<?xml version="1.0" encoding="utf-8"?>
<!-- Created by @FCLOGO 2025-2-8 GMT+8 16:02:47 . https://fclogo.top/ -->
<!-- FOR PERSONAL USE ONLY NOT FOR COMMERCIAL USE -->
<svg version="1.1" xmlns="http://www.w3.org/2000/svg" xmlns:xlink="http://www.w3.org/1999/xlink" x="0px" y="0px"
	 viewBox="0 0 800 800" style="enable-background:new 0 0 800 800;" xml:space="preserve">
<g>
	<path style="fill:#171819;" d="M628.361,149.2679c-0.0319-0.0824-0.0737-0.1539-0.1146-0.2306
		c-0.1026-0.1938-0.2242-0.3664-0.3706-0.5208c-0.0548-0.058-0.1027-0.1181-0.1634-0.1701
		c-0.2122-0.1846-0.4464-0.3407-0.7074-0.4441c-0.0189-0.0075-0.0388-0.0075-0.0588-0.0145
		c-0.2451-0.0904-0.5021-0.1342-0.7662-0.1454c-0.0369-0.0015-0.0687-0.0199-0.1056-0.0199c-0.0498,0-0.0986,0.0259-0.1484,0.0289
		c-0.2042,0.0122-0.4035,0.0521-0.6047,0.1168c-0.0837,0.0269-0.1644,0.0476-0.2461,0.0842c-0.272,0.1208-0.535,0.278-0.7711,0.5106
		c-3.0826,3.0429-6.454,5.7952-10.0676,8.2117c-1.8073,1.2083-3.6754,2.3328-5.5982,3.3677
		c-3.8457,2.0698-7.9136,3.7817-12.1568,5.0908c-4.2443,1.3091-8.6658,2.2153-13.2179,2.6741
		c-2.2766,0.2294-4.5859,0.347-6.9233,0.347l-0.0189-0.0017c-2.6362-0.001-5.2266-0.1539-7.7751-0.4436
		c-1.5193-0.1739-2.9919-0.4927-4.4803-0.7642c-16.2885-2.9655-30.5963-11.6069-40.6559-23.9261
		c-0.4792-0.5876-1.1567-0.87-1.8402-0.87c-0.7731,0-1.5542,0.3624-2.0623,1.0551c-7.1255,9.703-16.5943,17.5623-27.5536,22.8063
		l0,0c-1.1766,0.5629-2.3712,1.0942-3.5807,1.5958c-0.0439,0.0182-0.0877,0.0359-0.1315,0.0538
		c-1.1617,0.4797-2.3403,0.9285-3.5319,1.3495c-0.1205,0.0423-0.2421,0.0829-0.3627,0.1248
		c-1.1218,0.3898-2.2566,0.754-3.4023,1.0902c-0.2262,0.0663-0.4553,0.126-0.6825,0.19c-1.0581,0.2994-2.1231,0.5808-3.2001,0.8331
		c-0.3547,0.0824-0.7133,0.1527-1.07,0.2299c-0.9704,0.2125-1.9438,0.4165-2.9281,0.5898
		c-0.5191,0.0907-1.0451,0.1597-1.5682,0.2393c-0.8469,0.13-1.6917,0.2645-2.5475,0.3651
		c-0.7602,0.0887-1.5313,0.1445-2.2985,0.2097c-0.6436,0.0553-1.2832,0.1275-1.9328,0.1659
		c-1.4387,0.0842-2.8873,0.1318-4.3469,0.1318c-2.0334,0-4.039-0.1118-6.0306-0.275c-0.4523-0.0369-0.9026-0.0762-1.353-0.121
		c-1.9906-0.2005-3.9662-0.4553-5.907-0.8122l-0.0488-0.0105c-1.9677-0.3629-3.8995-0.8237-5.8074-1.3403
		c-0.3098-0.0837-0.6207-0.1656-0.9295-0.2536c-1.9428-0.5535-3.8597-1.1687-5.7327-1.874l0,0
		c-13.0176-4.9005-24.2768-13.3893-32.562-24.2713c-0.5091-0.669-1.2544-1.0035-2.0006-1.0035
		c-0.7452,0-1.4915,0.3345-2.0006,1.0035c-8.2842,10.8813-19.5424,19.3695-32.558,24.2703v-0.0003
		c-1.877,0.7066-3.7969,1.3226-5.7426,1.8768c-0.3029,0.0859-0.6068,0.1666-0.9106,0.2488
		c-1.9139,0.5186-3.8517,0.9803-5.8244,1.3445l-0.0399,0.0087c-1.9428,0.3574-3.9214,0.6127-5.914,0.8132
		c-0.4473,0.0448-0.8967,0.0839-1.347,0.1206c-1.9916,0.1634-3.9991,0.2752-6.0336,0.2752l0,0h-0.004
		c-1.4586,0-2.9052-0.0476-4.3429-0.1318c-0.6436-0.0381-1.2773-0.1096-1.9159-0.1644c-0.7751-0.0658-1.5512-0.1218-2.3184-0.2115
		c-0.8499-0.0999-1.6897-0.2339-2.5306-0.3629c-0.528-0.0805-1.0591-0.1499-1.5831-0.2416
		c-0.9793-0.1723-1.9478-0.3759-2.9131-0.5866c-0.3627-0.0787-0.7273-0.1497-1.087-0.2336c-1.075-0.2523-2.139-0.533-3.1951-0.8319
		c-0.2271-0.064-0.4563-0.1238-0.6825-0.1898c-1.1437-0.3358-2.2766-0.6989-3.3964-1.0882
		c-0.1235-0.0428-0.2491-0.0842-0.3726-0.1278c-1.1906-0.4209-2.3682-0.87-3.5309-1.3492
		c-0.0418-0.0174-0.0837-0.0344-0.1255-0.0518c-1.2105-0.5019-2.4051-1.0332-3.5827-1.5963l0,0
		c-10.9593-5.2435-20.4291-13.1028-27.5556-22.8058c-0.5081-0.6924-1.2892-1.0551-2.0623-1.0551
		c-0.6835,0-1.36,0.2825-1.8402,0.8698c-10.0646,12.3242-24.3804,20.9668-40.6778,23.9283
		c-1.4845,0.2705-2.953,0.5876-4.4694,0.7609c-2.5465,0.2889-5.1339,0.4421-7.7572,0.4431l-0.0239,0.0015
		c-2.3373,0-4.6467-0.1176-6.9233-0.347c-2.2766-0.2294-4.5202-0.5706-6.725-1.0182c-6.6144-1.3425-12.8811-3.642-18.6497-6.7467
		c-1.9238-1.0349-3.7919-2.1595-5.5982-3.3677c-3.6146-2.4165-6.985-5.1688-10.0686-8.2117
		c-0.2351-0.2324-0.4982-0.3896-0.7701-0.5104c-0.0817-0.0366-0.1634-0.0573-0.2471-0.0844
		c-0.2003-0.0645-0.3995-0.1046-0.6038-0.1168c-0.0498-0.003-0.0986-0.0289-0.1484-0.0289c-0.0369,0-0.0687,0.0184-0.1056,0.0199
		c-0.264,0.0112-0.5221,0.055-0.7672,0.1454c0,0-0.0389,0.007-0.0578,0.0145c-0.261,0.1034-0.4952,0.2595-0.7084,0.4441
		c-0.0598,0.0523-0.1076,0.1123-0.1634,0.1706c-0.1455,0.1537-0.267,0.3258-0.3686,0.5186
		c-0.0418,0.0775-0.0837,0.1497-0.1166,0.2334c-0.1096,0.2775-0.1863,0.5759-0.1863,0.9114l-0.002,0.0047v167.271h0.1016v0.1014
		l-0.1016,212.4488c-0.005,11.8632,5.0971,23.155,14.003,30.9916l133.5438,118.1577l46.4424,41.0911v-0.0003l32.9286,29.1353
		c0.4663,0.4122,1.0491,0.6185,1.6329,0.6185c0.5818,0,1.1657-0.206,1.631-0.618l32.9286-29.1081v0.0003l57.3927-50.7335v-0.0002
		L614.7994,560.947c2.1888-1.9575,4.1426-4.1249,5.8423-6.4587c5.0991-7.001,7.9106-15.4974,7.9076-24.306l-0.0856-212.7263h0.0856
		v-0.0002V150.185C628.5493,149.847,628.4716,149.5471,628.361,149.2679z M278.0556,159.4
		c8.4944,8.7565,18.7722,15.4964,29.9916,19.9656v473.6167l-69.157-61.1896V179.0522
		C253.5018,176.2608,267.0336,169.4915,278.0556,159.4z M400.0035,734.3439l-34.5636-30.5818V181.5607
		c12.9619-4.0674,24.7919-11.1633,34.5586-20.911c9.7687,9.749,21.5988,16.8447,34.5626,20.912v522.2346L400.0035,734.3439z
		 M491.9538,179.3643c11.2183-4.4696,21.4961-11.2096,29.9896-19.9658c11.0131,10.0835,24.5318,16.8489,39.1306,19.645v412.918
		l-69.1201,61.1012V179.3643z"/>
	<polygon style="fill:#171819;" points="315.6718,114.0622 336.4895,101.4488 357.3071,114.0622 351.7558,90.3732 370.1653,74.4706 
		345.9125,72.4424 336.4895,50 327.0745,72.4424 302.8136,74.4706 321.2342,90.3732 	"/>
	<polygon style="fill:#171819;" points="442.2146,114.0622 463.0313,101.4488 483.8489,114.0622 478.2986,90.3732 496.7082,74.4706 
		472.4553,72.4424 463.0313,50 453.6173,72.4424 429.3564,74.4706 447.777,90.3732 	"/>
	<path style="fill:#171819;" d="M255.3101,411.232c1.069,2.6138,2.5535,4.8853,4.4515,6.7997
		c1.8979,1.9243,4.1645,3.4435,6.7778,4.5551c2.6043,1.1066,5.4547,1.6613,8.4925,1.6613c2.0324,0,3.8487-0.1736,5.4707-0.5063
		c1.6309-0.3378,3.1274-0.8269,4.4973-1.4877c1.3659-0.6533,2.6073-1.4396,3.759-2.3413c1.1597-0.9161,2.2696-1.946,3.3456-3.0865
		l-5.8283-5.8978c-1.6299,1.5094-3.2529,2.7004-4.9117,3.564c-1.6349,0.8775-3.6564,1.3163-6.0276,1.3163
		c-1.7874,0-3.4153-0.3472-4.9077-1.0466c-1.4855-0.6944-2.7558-1.6299-3.8098-2.8208c-1.0362-1.1866-1.869-2.5804-2.4638-4.1645
		c-0.5868-1.5794-0.8758-3.2626-0.8758-5.0517v-0.1203c0-1.7796,0.2889-3.4529,0.8758-5.0204
		c0.5948-1.5555,1.4337-2.9418,2.4957-4.1354c1.072-1.1789,2.3622-2.1097,3.8357-2.7921c1.4855-0.6655,3.1035-1.0102,4.85-1.0102
		c2.1002,0,3.9872,0.4242,5.666,1.2538c1.6848,0.8269,3.3416,1.9794,4.9695,3.4432l5.8273-6.7178
		c-0.9495-0.9452-1.9727-1.818-3.0815-2.6138c-1.1109-0.7933-2.3244-1.466-3.6355-2.016c-1.3141-0.5594-2.7677-0.9931-4.3648-1.3116
		c-1.613-0.3183-3.3705-0.4702-5.3212-0.4702c-3.2151,0-6.1392,0.5622-8.8063,1.6855c-2.6551,1.1333-4.9307,2.6766-6.8286,4.637
		c-1.8979,1.9652-3.3824,4.2412-4.4515,6.8358c-1.072,2.5971-1.617,5.382-1.617,8.3525v0.1208
		C253.6931,405.8167,254.2381,408.6135,255.3101,411.232z"/>
	<path style="fill:#171819;" d="M405.3676,381.622h-8.4327l-17.8327,41.9075h9.3313l3.8049-9.3266h17.5926l3.8079,9.3266h9.5645
		L405.3676,381.622z M395.5032,406.1203l5.5215-13.4934l5.5364,13.4934H395.5032z"/>
	<path style="fill:#171819;" d="M541.2546,405.4933c-1.3739-1.5649-3.2739-2.7971-5.6749-3.718
		c0.7473-0.3983,1.4437-0.8777,2.0972-1.4277c0.6486-0.5497,1.2255-1.1958,1.7216-1.9338c0.4822-0.7283,0.8757-1.5552,1.1786-2.4691
		c0.2949-0.9044,0.4344-1.9532,0.4344-3.1468v-0.1083c0-2.8188-0.9474-5.177-2.8354-7.0867
		c-2.4549-2.4521-6.0715-3.6823-10.8696-3.6823h-19.2784v41.6089h19.7546c2.3223,0,4.4544-0.2314,6.3713-0.7089
		c1.9288-0.47,3.5657-1.1886,4.9406-2.1413c1.353-0.95,2.4041-2.1413,3.1423-3.5685c0.7233-1.4275,1.09-3.089,1.09-4.9818v-0.1303
		C543.327,409.226,542.6395,407.0583,541.2546,405.4933z M516.935,389.9503h9.0284c1.9597,0,3.4352,0.3617,4.4754,1.0994
		c1.0192,0.7283,1.5353,1.7891,1.5353,3.1735v0.1206c0,1.5502-0.5858,2.6716-1.7894,3.3565
		c-1.1836,0.7039-2.7846,1.0414-4.8071,1.0414h-8.4426V389.9503z M534.2965,410.9934c0,1.541-0.5739,2.6813-1.7177,3.4168
		c-1.1597,0.738-2.7368,1.0972-4.7563,1.0972H516.935v-9.1555h10.5837c2.3842,0,4.1038,0.405,5.1688,1.2224
		c1.076,0.8075,1.609,1.9144,1.609,3.2963V410.9934z"/>
</g>
<g>
</g>
<g>
</g>
<g>
</g>
<g>
</g>
<g>
</g>
<g>
</g>
<g>
</g>
<g>
</g>
<g>
</g>
<g>
</g>
<g>
</g>
<g>
</g>
<g>
</g>
<g>
</g>
<g>
</g>
</svg>
