<?xml version="1.0" encoding="utf-8"?>
<!-- Created by @FCLOGO 2025-2-8 GMT+8 16:02:47 . https://fclogo.top/ -->
<!-- FOR PERSONAL USE ONLY NOT FOR COMMERCIAL USE -->
<svg version="1.1" xmlns="http://www.w3.org/2000/svg" xmlns:xlink="http://www.w3.org/1999/xlink" x="0px" y="0px"
	 viewBox="0 0 800 800" style="enable-background:new 0 0 800 800;" xml:space="preserve">
<g>
	<path style="fill:#00569D;" d="M400,172.7906c159.3926,0,288.6047,129.2121,288.6047,288.6047S559.3926,750,400,750
		S111.3953,620.788,111.3953,461.3953S240.6074,172.7906,400,172.7906"/>
	<circle style="fill:none;stroke:#00569D;stroke-width:0.57;stroke-miterlimit:22.93;" cx="400" cy="461.3953" r="288.6047"/>
	<path style="fill:#FFFFFF;" d="M400.5345,247.3468c117.8469,0,213.3804,95.5335,213.3804,213.3804
		s-95.5335,213.3804-213.3804,213.3804S187.154,578.5742,187.154,460.7272S282.6875,247.3468,400.5345,247.3468"/>
	<circle style="fill:none;stroke:#025EA4;stroke-width:0.57;stroke-miterlimit:22.93;" cx="400.5345" cy="460.7272" r="213.3804"/>
	<path style="fill-rule:evenodd;clip-rule:evenodd;fill:#FFFFFF;" d="M150.0095,475.0239c5.0773,0,9.2193-4.142,9.2193-9.2193
		c0-5.0773-4.142-9.2193-9.2193-9.2193c-5.0773,0-9.2193,4.142-9.2193,9.2193
		C140.7902,470.8819,144.9322,475.0239,150.0095,475.0239"/>
	<path style="fill-rule:evenodd;clip-rule:evenodd;fill:#FFFFFF;" d="M150.0095,456.1844c5.3445,0,9.6201,4.2756,9.6201,9.6201
		c0,5.3445-4.2756,9.6202-9.6201,9.6202s-9.6202-4.2756-9.6202-9.6202c0-2.5387,1.0689-4.9437,2.8059-6.8143
		C145.0658,457.1197,147.4709,456.1844,150.0095,456.1844 M156.2894,459.5247c-3.4739-3.4739-9.0857-3.4739-12.426,0
		s-3.4739,9.0857,0,12.426c3.474,3.474,9.0857,3.474,12.426,0c1.6034-1.6034,2.5387-3.8748,2.5387-6.2798
		C158.828,463.3995,157.8927,461.1281,156.2894,459.5247"/>
	<path style="fill-rule:evenodd;clip-rule:evenodd;fill:#FFFFFF;" d="M654.1325,474.7566c5.0773,0,9.2193-4.142,9.2193-9.2193
		s-4.142-9.2193-9.2193-9.2193c-5.0773,0-9.2194,4.142-9.2194,9.2193S649.0552,474.623,654.1325,474.7566"/>
	<path style="fill-rule:evenodd;clip-rule:evenodd;fill:#FFFFFF;" d="M654.1325,455.9171c5.3445,0,9.6202,4.2756,9.6202,9.6202
		s-4.2756,9.6201-9.6202,9.6201s-9.6202-4.2756-9.6202-9.6201c0-2.5387,1.0689-4.9437,2.8058-6.8143
		C649.1888,456.8524,651.5939,455.9171,654.1325,455.9171 M660.4124,459.2575c-3.474-3.4739-8.9521-3.4739-12.4261,0
		c-3.4739,3.474-3.4739,8.9521,0,12.4261s8.9521,3.4739,12.4261,0c1.6033-1.6034,2.5386-3.8748,2.5386-6.1462
		C662.951,463.1323,662.0157,460.8609,660.4124,459.2575"/>
	<rect x="258.7708" y="357.9786" style="fill:#E32021;" width="284.8635" height="192.804"/>
	<path style="fill-rule:evenodd;clip-rule:evenodd;fill:#E32021;" d="M258.7708,351.8324h291.0098v205.0964h-297.156V351.8324
		H258.7708z M537.4881,364.1248H264.917V544.77h272.5711V364.1248z"/>
	<polygon style="fill-rule:evenodd;clip-rule:evenodd;fill:#FFFFFF;" points="258.7708,357.9786 290.1699,357.9786 
		543.6343,520.4524 543.6343,550.7826 508.3604,550.7826 258.7708,389.9122 	"/>
	<path style="fill-rule:evenodd;clip-rule:evenodd;fill:#EA2D31;" d="M258.7708,357.5778h31.5327l0.1336,0.1336l253.4644,162.4738
		l0.1336,0.1336v30.9983h-35.6748h-0.1336l-249.7232-161.004l-0.1336-0.1336v-32.6016H258.7708z M290.0363,358.3795h-30.8647
		v31.2656l249.456,160.7368h34.7394v-29.6622L290.0363,358.3795z"/>
	<polygon style="fill-rule:evenodd;clip-rule:evenodd;fill:#00569D;" points="306.3371,335.7988 306.3371,315.0887 
		312.6169,315.0887 316.3581,329.2517 319.9656,315.0887 326.2455,315.0887 326.2455,335.7988 322.3707,335.7988 322.3707,319.498 
		318.2287,335.7988 314.2202,335.7988 310.2119,319.498 310.2119,335.7988 	"/>
	<polygon style="fill-rule:evenodd;clip-rule:evenodd;fill:#00569D;" points="332.7925,335.7988 332.7925,315.0887 
		348.1581,315.0887 348.1581,318.5627 337.0681,318.5627 337.0681,323.2391 347.3564,323.2391 347.3564,326.7131 337.0681,326.7131 
		337.0681,332.3249 348.5589,332.3249 348.5589,335.7988 	"/>
	<polygon style="fill-rule:evenodd;clip-rule:evenodd;fill:#00569D;" points="354.5715,335.7988 354.5715,315.0887 
		358.5799,315.0887 367.1311,328.9845 367.1311,315.0887 371.0059,315.0887 371.0059,335.7988 366.7303,335.7988 358.4463,322.1703 
		358.4463,335.7988 	"/>
	<path style="fill-rule:evenodd;clip-rule:evenodd;fill:#00569D;" d="M376.7513,329.1181l4.142-0.4008
		c0.1336,1.2025,0.6681,2.1378,1.4698,2.9395c0.8017,0.6681,1.8706,1.0689,2.9395,0.9353c1.0689,0.1336,2.1378-0.2672,3.0731-0.8017
		c0.6681-0.5344,1.0689-1.2025,1.0689-2.0042c0-0.4008-0.1336-0.9353-0.4008-1.2025c-0.4008-0.4008-0.9353-0.8017-1.4698-0.9353
		c-0.5345-0.1336-1.6034-0.5345-3.3403-0.9353c-1.737-0.2672-3.3403-1.0689-4.6765-2.0042
		c-1.2025-1.0689-1.8706-2.5386-1.8706-4.142c0-1.0689,0.2672-2.1378,0.9353-2.9395c0.6681-0.9353,1.4698-1.6034,2.5386-2.1378
		c1.3362-0.5345,2.6723-0.8017,4.142-0.6681c2.1378-0.1336,4.142,0.4008,5.879,1.7369c1.3361,1.2025,2.0042,2.8059,2.0042,4.5428
		l-4.142,0.1336c-0.1336-0.9353-0.5345-1.737-1.2025-2.2714c-0.8017-0.5345-1.737-0.8017-2.6723-0.6681
		c-1.0689-0.1336-2.0042,0.1336-2.8059,0.8017c-0.4008,0.2672-0.6681,0.8017-0.6681,1.3361c0,0.5345,0.2672,0.9353,0.6681,1.2025
		c1.2025,0.6681,2.5386,1.2025,3.8748,1.3362c1.6034,0.2672,3.0731,0.8016,4.5428,1.4697c0.9353,0.5345,1.737,1.2025,2.2714,2.1378
		c1.2025,2.1378,1.0689,4.5428-0.1336,6.6807c-0.6681,1.0689-1.6034,1.8706-2.8059,2.2715
		c-1.4698,0.5345-2.9395,0.8017-4.5428,0.8017c-2.1378,0.1336-4.2756-0.5345-6.0126-1.8706
		C377.8202,332.993,376.8849,331.1223,376.7513,329.1181"/>
	<path style="fill-rule:evenodd;clip-rule:evenodd;fill:#00569D;" d="M408.8185,329.1181l4.142-0.4008
		c0.1336,1.2025,0.6681,2.1378,1.4698,2.9395c0.8017,0.6681,1.8706,1.0689,3.0731,0.9353c1.0689,0.1336,2.1378-0.2672,3.0731-0.8017
		c0.6681-0.5344,1.0689-1.2025,1.0689-2.0042c0-0.4008-0.1336-0.9353-0.4008-1.2025c-0.4008-0.4008-0.9353-0.8017-1.4698-0.9353
		c-0.5345-0.1336-1.6033-0.5345-3.3403-0.9353c-1.737-0.2672-3.3403-1.0689-4.6765-2.0042
		c-1.2025-1.0689-1.8706-2.5386-1.8706-4.142c0-1.0689,0.2672-2.1378,0.9353-2.9395c0.6681-0.9353,1.4698-1.6034,2.5387-2.1378
		c1.3361-0.5345,2.6723-0.8017,4.142-0.6681c2.1378-0.1336,4.142,0.4008,5.879,1.7369c1.3361,1.2025,2.0042,2.8059,2.0042,4.5428
		l-4.142,0.1336c-0.1336-0.9353-0.5345-1.737-1.2025-2.2714c-0.8017-0.5345-1.737-0.8017-2.6723-0.6681
		c-0.9353,0-2.0042,0.1336-2.8059,0.8017c-0.4008,0.2672-0.6681,0.8017-0.6681,1.3361c0,0.5345,0.2672,0.9353,0.6681,1.2025
		c1.2025,0.6681,2.5387,1.2025,3.8748,1.3362c1.6034,0.2672,3.0731,0.8016,4.5428,1.4697c0.9353,0.5345,1.737,1.2025,2.2714,2.1378
		c1.2025,2.1378,1.0689,4.5428-0.1336,6.6807c-0.6681,1.0689-1.6034,1.8706-2.8059,2.2715
		c-1.4698,0.5345-2.9395,0.8017-4.5428,0.8017c-2.1378,0.1336-4.2756-0.5345-6.0126-1.8706
		C409.8874,332.993,408.9521,331.1223,408.8185,329.1181"/>
	<path style="fill-rule:evenodd;clip-rule:evenodd;fill:#00569D;" d="M450.2386,335.7988h-4.5428l-1.737-4.8101h-8.284
		l-1.737,4.6765h-4.4092l8.0168-20.7101h4.4092L450.2386,335.7988z M442.489,327.6484l-2.8059-7.6159l-2.8059,7.6159H442.489z"/>
	<polygon style="fill-rule:evenodd;clip-rule:evenodd;fill:#00569D;" points="454.7814,335.7988 454.7814,315.0887 
		458.9234,315.0887 467.3411,328.9845 467.3411,315.0887 471.2159,315.0887 471.2159,335.7988 467.0739,335.7988 458.6562,322.1703 
		458.6562,335.7988 	"/>
	<path style="fill-rule:evenodd;clip-rule:evenodd;fill:#00569D;" d="M496.736,335.7988h-4.5428l-1.737-4.8101h-8.284l-1.737,4.6765
		h-4.4093l8.0168-20.7101h4.4092L496.736,335.7988z M489.1201,327.6484l-2.9395-7.6159l-2.8059,7.6159H489.1201z"/>
	<rect x="389.4445" y="572.6952" style="fill:#00569D;" width="4.142" height="20.7101"/>
	<polygon style="fill-rule:evenodd;clip-rule:evenodd;fill:#00569D;" points="397.595,593.4053 397.595,572.6952 401.6034,572.6952 
		410.1546,586.591 410.1546,572.6952 414.0294,572.6952 414.0294,593.4053 409.8874,593.4053 401.4698,579.7767 401.4698,593.4053 	
		"/>
	<path style="fill-rule:evenodd;clip-rule:evenodd;fill:#00569D;" d="M309.2766,628.0111l2.9395,3.0731
		c-1.3362,1.4698-3.2067,2.5387-5.2109,2.9395c-4.5428,0.4008-8.9521-2.405-10.1546-6.8143
		c-0.6681-2.8059-0.1336-5.6118,1.3362-8.0168c1.2025-2.6723,3.4739-4.6765,6.1462-5.7454
		c2.5387-0.8017,5.2109-0.5345,7.4824,0.8016c2.0042,1.0689,3.6075,2.8059,4.2756,4.9437c0.4008,1.4697,0.4008,2.9395,0,4.4092
		l-4.142-1.0689c0.6681-2.0042-0.2672-4.142-2.1378-5.0773c-1.2025-0.668-2.8059-0.8017-4.142-0.2672
		c-1.737,0.8016-3.0731,2.2714-3.8748,4.142c-1.0689,1.6033-1.6034,3.6075-1.3361,5.6118c0.2672,1.3361,1.2025,2.5386,2.405,3.2067
		c0.9353,0.5344,2.0042,0.668,3.0731,0.4008C307.5396,629.8817,308.6085,629.08,309.2766,628.0111"/>
	<path style="fill-rule:evenodd;clip-rule:evenodd;fill:#00569D;" d="M315.8236,628.1447c0.6681-1.737,1.6034-3.2067,2.9395-4.5428
		c0.8017-0.8017,1.8706-1.4698,2.9395-1.8706s2.1378-0.6681,3.2067-0.6681c1.4697,0,3.0731,0.4009,4.4092,0.9353
		c2.5386,0.9353,4.5428,2.9395,5.6118,5.4781c1.6033,5.7454-1.0689,11.758-6.1462,14.5638
		c-5.3445,1.8706-11.0899-0.668-13.4949-5.7454C314.3539,633.6229,314.4875,630.6833,315.8236,628.1447 M319.9656,629.748
		c-0.9353,1.737-1.0689,3.7412-0.5345,5.4781c1.0689,2.9395,4.2756,4.4092,7.2151,3.3403c0.1336,0,0.2672-0.1336,0.4008-0.1336
		c1.737-0.9353,2.9395-2.5386,3.6076-4.4092c0.8017-1.6033,1.0689-3.6075,0.6681-5.4781c-0.5345-1.4697-1.6034-2.6722-3.0731-3.2067
		c-1.4698-0.668-3.0731-0.668-4.5429,0C321.8362,626.4077,320.5001,627.8775,319.9656,629.748"/>
	<path style="fill-rule:evenodd;clip-rule:evenodd;fill:#00569D;" d="M333.4606,646.4497l5.3445-20.042l8.5512,2.2714
		c1.6034,0.4009,3.0731,0.9353,4.5429,1.737c0.9353,0.668,1.4697,1.4697,1.8706,2.5386c0.2672,1.0689,0.2672,2.2714,0,3.3403
		c-0.2672,1.3361-1.2025,2.5386-2.2714,3.3403c-1.3361,0.8017-2.9395,1.0689-4.4092,0.8017c0.6681,0.668,1.2025,1.4697,1.737,2.2714
		c0.5345,1.2025,1.0689,2.5386,1.3362,3.8748l1.3361,4.5428l-4.8101-1.3361l-1.737-5.0773
		c-0.4008-1.2025-0.8017-2.4051-1.3362-3.474c-0.2672-0.4008-0.5344-0.8016-0.9353-1.2025
		c-0.6681-0.4008-1.3362-0.668-2.0042-0.8016l-0.8017-0.2673l-2.1378,8.2841l-4.142-1.0689L333.4606,646.4497z M340.5421,635.8943
		l2.9395,0.8016c1.2025,0.4009,2.4051,0.6681,3.7412,0.6681c0.5345,0,0.9353-0.2672,1.3362-0.5344
		c0.4008-0.4009,0.6681-0.8017,0.8017-1.3362c0.1336-0.5344,0.1336-1.2025-0.1336-1.7369
		c-0.2672-0.5345-0.8017-0.9353-1.3361-1.2025c-0.2672-0.1336-1.3362-0.4009-2.9395-0.8017l-3.2067-0.8017L340.5421,635.8943z"/>
	<path style="fill-rule:evenodd;clip-rule:evenodd;fill:#00569D;" d="M353.6362,651.9279l3.3403-20.4428l6.5471,1.0689
		c1.6033,0.1336,3.2067,0.5344,4.8101,1.0688c1.0689,0.5345,2.0042,1.3362,2.5387,2.5387c0.6681,1.3361,0.8017,2.8058,0.5344,4.142
		c-0.1336,1.0689-0.5344,2.1378-1.2025,3.0731c-0.5345,0.6681-1.2025,1.3362-2.0042,1.737
		c-0.6681,0.4008-1.4698,0.5344-2.2714,0.6681c-1.4698,0-2.9395-0.1337-4.2756-0.4009l-2.6723-0.4008l-1.2025,7.7496
		L353.6362,651.9279z M360.5841,635.627l-0.9353,5.879l2.2715,0.4008c1.0689,0.2672,2.1378,0.2672,3.3403,0.1336
		c0.5345-0.1336,1.0689-0.4008,1.4697-0.8017c0.4008-0.4008,0.6681-0.9352,0.8017-1.4697c0.1336-0.668,0-1.3361-0.4008-2.0042
		c-0.4008-0.5344-0.9353-0.9353-1.4698-1.2025c-0.9353-0.2672-2.0042-0.5344-2.9395-0.668L360.5841,635.627z"/>
	<path style="fill-rule:evenodd;clip-rule:evenodd;fill:#00569D;" d="M372.342,645.2472c0.1336-1.8706,0.5345-3.6075,1.3361-5.2109
		c0.5345-1.0689,1.2025-2.0042,2.1378-2.6722c0.8017-0.8017,1.737-1.3361,2.8059-1.737c1.4698-0.5344,2.9395-0.668,4.5428-0.5344
		c2.8059,0,5.3445,1.3361,7.0815,3.3403c3.3403,4.8101,2.9395,11.3571-1.0689,15.7664c-4.4092,3.4739-10.6891,3.0731-14.5638-0.9353
		C372.8765,650.8589,372.0748,648.0531,372.342,645.2472 M376.7513,645.3808c-0.2672,1.8706,0.1336,3.8748,1.3362,5.4781
		c1.8706,2.405,5.4781,2.8059,7.8831,0.8017c0.1336-0.1336,0.2672-0.1336,0.2672-0.2672c1.3361-1.4698,2.0042-3.3403,2.0042-5.3445
		c0.2672-1.8706-0.1336-3.8748-1.2025-5.4781c-2.1378-2.405-5.7454-2.6723-8.1504-0.6681l-0.1336,0.1336
		C377.2857,641.506,376.6177,643.3766,376.7513,645.3808"/>
	<path style="fill-rule:evenodd;clip-rule:evenodd;fill:#00569D;" d="M395.0563,657.1388l-0.6681-20.7101l8.8185-0.2672
		c1.6034-0.1336,3.2067,0,4.8101,0.4008c1.0689,0.2673,1.8706,1.0689,2.4051,1.8706c0.6681,0.9353,0.9353,2.0042,1.0689,3.2067
		c0.1336,1.3361-0.4008,2.8058-1.2025,3.8748c-1.0689,1.2026-2.5386,1.8706-4.142,2.0042c0.8017,0.4009,1.6034,0.9353,2.2714,1.6034
		c0.9353,1.0689,1.737,2.1378,2.405,3.3403l2.6723,4.0084l-4.9437,0.1336l-3.0731-4.4092
		c-0.6681-1.0689-1.4698-2.0042-2.2715-2.9395c-0.4008-0.4009-0.8017-0.6681-1.3361-0.8017
		c-0.6681-0.1336-1.4697-0.2672-2.1378-0.1336h-0.8017l0.2672,8.6849L395.0563,657.1388z M398.7975,645.1136l3.0731-0.1336
		c1.2025,0,2.5387-0.1336,3.7412-0.4008c0.5345-0.1337,0.9353-0.5345,1.2025-0.9353c0.2672-0.5345,0.4008-1.0689,0.4008-1.6034
		c0-0.668-0.1336-1.2025-0.5344-1.6033c-0.4008-0.4009-0.9353-0.6681-1.6034-0.8017h-3.0731l-3.2067,0.1336V645.1136z"/>
	<polygon style="fill-rule:evenodd;clip-rule:evenodd;fill:#00569D;" points="415.9,656.6043 413.2277,636.1615 428.4596,634.1573 
		428.8605,637.6312 417.7706,639.101 418.4386,643.6439 428.7268,642.3077 429.1277,645.7817 418.8395,647.1178 419.6411,652.5959 
		430.9983,651.1262 431.5327,654.6001 	"/>
	<path style="fill-rule:evenodd;clip-rule:evenodd;fill:#00569D;" d="M440.3512,646.4497l3.8748-1.3361
		c0.4008,1.0689,1.2025,2.0042,2.1378,2.5386c0.9353,0.5345,2.1378,0.5345,3.2067,0.2673c1.0689-0.1337,2.0042-0.6681,2.6723-1.4698
		c0.5345-0.668,0.6681-1.3361,0.5345-2.1378c-0.1336-0.4008-0.4008-0.8016-0.6681-1.2025
		c-0.5344-0.2672-1.0689-0.5344-1.6034-0.5344c-0.5345,0-1.6033-0.1336-3.4739-0.1336c-1.737,0.1336-3.474-0.2673-5.0773-0.9353
		c-1.4698-0.8017-2.405-2.0042-2.8059-3.6075c-0.2672-1.0689-0.1336-2.1378,0.1336-3.0731
		c0.4009-1.0689,1.0689-2.0042,2.0042-2.6723c1.2025-0.8016,2.4051-1.3361,3.7412-1.6033c2.0042-0.6681,4.142-0.5345,6.0126,0.4008
		c1.6033,0.8017,2.6723,2.2714,3.0731,4.0084l-4.142,1.0689c-0.2672-0.8017-0.8017-1.6034-1.6033-2.0042
		s-1.8706-0.4008-2.6723-0.1336c-0.9353,0.1336-1.8706,0.6681-2.5387,1.3361c-0.2672,0.4008-0.5345,0.9353-0.4008,1.3361
		c0.1336,0.4009,0.4008,0.9353,0.9353,1.0689c1.3361,0.4009,2.6723,0.5345,4.142,0.5345c1.6034,0,3.2068,0.1336,4.6765,0.4008
		c1.0689,0.2672,2.0042,0.8017,2.6722,1.4697c0.8017,0.8017,1.3362,1.8706,1.6034,3.0731s0.1336,2.405-0.1336,3.4739
		c-0.4008,1.2025-1.2025,2.1378-2.1378,2.8059c-1.3361,0.8017-2.6723,1.4697-4.142,1.7369
		c-2.0042,0.6681-4.2756,0.5345-6.2798-0.4008C442.2218,649.9236,440.8857,648.3203,440.3512,646.4497"/>
	<path style="fill-rule:evenodd;clip-rule:evenodd;fill:#00569D;" d="M479.2327,642.0405l-4.2756,1.4698l-3.2067-3.8748
		l-7.8832,2.6722l-0.1336,5.0773l-4.142,1.4697l0.9353-22.1798l4.142-1.4697L479.2327,642.0405z M469.3453,636.6959l-5.211-6.2798
		l-0.1336,8.1504L469.3453,636.6959z"/>
	<polygon style="fill-rule:evenodd;clip-rule:evenodd;fill:#00569D;" points="481.2369,641.1052 472.6856,622.2657 
		476.2932,620.6624 489.7881,629.6144 484.0428,617.0548 487.6503,615.4514 496.2016,634.2909 492.4604,636.0279 479.0991,627.2094 
		484.8444,639.5018 	"/>
	<path style="fill-rule:evenodd;clip-rule:evenodd;fill:#00569D;" d="M494.331,624.0027c-0.9353-1.4697-1.6034-3.2067-1.8706-5.0773
		c-0.1336-1.2025,0-2.2714,0.2672-3.4739c0.2672-1.0689,0.6681-2.1378,1.3362-2.9395c0.9353-1.2026,2.1378-2.2715,3.4739-2.9395
		c2.2715-1.4697,5.0773-2.0042,7.7496-1.2025c5.4781,2.1378,8.8184,7.7496,8.0168,13.6285
		c-1.6034,5.3445-7.0815,8.5513-12.5597,7.3488C497.8049,628.4119,495.5335,626.5413,494.331,624.0027 M497.9386,621.5977
		c0.8016,1.7369,2.2714,3.0731,4.142,3.7411c1.4698,0.5345,3.2068,0.2672,4.5429-0.5344c1.3362-0.8017,2.405-2.1378,2.6723-3.6076
		c0.2672-1.8705-0.2672-3.8748-1.3361-5.4781c-0.8017-1.737-2.2715-3.0731-4.142-3.7412c-1.4698-0.5344-3.2067-0.2672-4.4093,0.5345
		c-1.3361,0.8016-2.405,2.1378-2.6723,3.6075C496.3352,618.1237,496.736,620.1279,497.9386,621.5977"/>
	<path style="fill-rule:evenodd;clip-rule:evenodd;fill:#FFFFFF;" d="M153.7507,568.1523l-2.6723-7.2151l6.4134-5.6118
		l-4.9437-13.2277h-8.5513l-2.6723-7.0815l37.6789,0.5344l2.6723,7.0815L153.7507,568.1523z M162.302,551.0498l10.4218-9.0857
		H158.828L162.302,551.0498z"/>
	<path style="fill-rule:evenodd;clip-rule:evenodd;fill:#FFFFFF;" d="M159.0952,579.6431l30.7311-17.1025l7.2151,13.0941
		c1.4697,2.405,2.5387,4.9437,3.2067,7.616c0.2672,1.7369-0.1336,3.6075-0.9353,5.2109c-0.9353,1.737-2.405,3.2067-4.142,4.142
		c-2.0042,1.2025-4.4092,1.6033-6.8143,1.2025c-2.5387-0.6681-4.8101-2.2714-6.2798-4.5428c0,1.6033-0.2672,3.2067-0.8017,4.6765
		c-0.8017,2.1378-1.8706,4.2756-3.0731,6.2798l-3.8748,7.0815l-3.8748-7.3488l4.2756-8.1504
		c1.0689-1.8705,1.8706-3.8748,2.6723-5.7454c0.2672-0.8017,0.4008-1.7369,0.2672-2.5386
		c-0.2672-1.2025-0.8017-2.2714-1.3361-3.3403l-0.6681-1.3361l-12.9605,7.0815L159.0952,579.6431z M180.3398,576.0355l2.5387,4.5428
		c0.9353,1.8706,2.1378,3.7412,3.474,5.3445c0.6681,0.5344,1.4697,0.9353,2.2714,1.0689c0.9353,0.1336,1.8706-0.1336,2.6723-0.6681
		c0.9353-0.5344,1.6034-1.2025,2.0042-2.1378c0.2672-0.9352,0.2672-2.0042-0.1336-2.9395c-0.2672-0.5345-1.0689-2.0042-2.405-4.5429
		l-2.6723-4.8101L180.3398,576.0355z"/>
	<path style="fill-rule:evenodd;clip-rule:evenodd;fill:#FFFFFF;" d="M202.2523,622.533l4.6765-3.6076l9.3529,12.0252
		l-11.0899,8.6849c-2.5387-0.4008-4.8101-1.3361-6.9479-2.6722c-2.5387-1.4698-4.8101-3.4739-6.5471-5.7454
		c-2.1378-2.5386-3.4739-5.7454-4.142-8.9521c-0.4008-3.0731,0-6.1462,1.4697-8.9521c1.4697-2.9395,3.6076-5.4781,6.1462-7.3487
		c2.6723-2.1378,5.7454-3.6076,9.0857-4.142c3.2067-0.5344,6.4134-0.1336,9.3529,1.3361c2.5386,1.3361,4.8101,3.2067,6.547,5.6118
		c2.6723,3.4739,4.142,6.6807,4.142,9.7538s-1.0689,6.0126-3.0731,8.4177l-5.4781-4.8101c1.0689-1.3361,1.6034-2.9395,1.4698-4.6765
		c-0.1336-1.8706-0.8017-3.6075-2.0042-4.9437c-1.6033-2.2714-4.0084-3.7412-6.8143-4.0084
		c-2.6723-0.2672-5.6118,0.8017-8.5513,3.2067c-3.3403,2.5386-5.2109,5.2109-5.7454,8.0168
		c-0.5344,2.6723,0.2672,5.4781,2.0042,7.7496c0.9353,1.2025,2.1378,2.1378,3.474,2.9395c1.2025,0.8016,2.6723,1.3361,4.142,1.7369
		l3.474-2.6722L202.2523,622.533z"/>
	<polygon style="fill-rule:evenodd;clip-rule:evenodd;fill:#FFFFFF;" points="212.4069,653.5312 235.2548,626.8085 
		255.0296,643.7775 251.1548,648.1867 236.8582,636.0279 231.7809,641.9069 245.1422,653.264 241.2674,657.8068 227.9061,646.4497 
		221.7599,653.6649 236.5909,666.3581 232.7162,670.9009 	"/>
	<polygon style="fill-rule:evenodd;clip-rule:evenodd;fill:#FFFFFF;" points="244.3405,680.2538 262.9128,650.3245 
		268.7917,654.0657 268.6581,681.7236 281.0842,661.6816 286.6959,665.1556 268.1237,694.9514 262.1111,691.2101 262.1111,664.0867 
		249.9523,683.7278 	"/>
	<polygon style="fill-rule:evenodd;clip-rule:evenodd;fill:#FFFFFF;" points="289.9026,705.774 301.3934,678.9177 
		291.9068,674.7758 294.1783,669.4312 319.832,680.3875 317.5606,685.8657 307.9404,681.7236 296.4497,708.5799 	"/>
	
		<rect x="309.9231" y="697.5627" transform="matrix(0.3138 -0.9495 0.9495 0.3138 -440.9636 792.0512)" style="fill:#FFFFFF;" width="35.1409" height="7.0811"/>
	<polygon style="fill-rule:evenodd;clip-rule:evenodd;fill:#FFFFFF;" points="340.4085,723.0101 346.4211,688.4043 
		353.2354,689.6068 363.5236,715.2606 367.532,692.0118 373.9454,693.2144 367.9328,727.8202 360.9849,726.6177 350.8303,701.3647 
		346.9555,724.2126 	"/>
	<path style="fill-rule:evenodd;clip-rule:evenodd;fill:#FFFFFF;" d="M382.6302,712.321c-0.1336-3.0731,0.4008-6.1462,1.4698-9.0857
		c0.8017-1.8705,1.8706-3.4739,3.2067-4.9437c1.2025-1.3361,2.8059-2.5387,4.5428-3.2067c2.405-1.0689,4.9437-1.4697,7.4823-1.4697
		c4.6765-0.2673,9.2193,1.3361,12.5597,4.6765c3.2067,3.2067,4.8101,7.616,4.9437,13.3613s-1.3361,10.1546-4.4092,13.3613
		c-6.9479,6.5471-17.6369,6.6807-24.8521,0.4008C384.2336,722.342,382.6302,717.9328,382.6302,712.321 M389.8454,711.9202
		c0,4.0084,1.0689,6.9479,2.9395,9.0857c3.6075,3.8748,9.6201,4.0084,13.4949,0.4009c0.1336-0.1337,0.4008-0.4009,0.5345-0.5345
		c1.8706-2.1378,2.6723-5.2109,2.5386-9.2193c-0.1336-4.142-0.9353-7.0815-2.8058-8.9521
		c-1.8706-2.0042-4.4092-2.9395-7.0815-2.8059c-2.6723,0-5.2109,1.0689-7.0815,3.0731
		C390.6471,704.8387,389.8454,707.9118,389.8454,711.9202"/>
	<path style="fill-rule:evenodd;clip-rule:evenodd;fill:#FFFFFF;" d="M427.658,716.8639l6.6807-1.7369
		c0.5345,1.8706,1.737,3.4739,3.3403,4.6765c1.6033,0.9353,3.4739,1.2025,5.3445,0.8017c1.8706-0.1336,3.4739-0.9353,4.81-2.2714
		c0.9353-0.9353,1.3362-2.2714,1.2025-3.6075c-0.1336-0.8017-0.5345-1.4698-1.0689-2.0042
		c-0.8017-0.5345-1.737-0.9353-2.6723-1.0689c-0.8017-0.1336-2.8059-0.4009-5.879-0.5345c-2.9395,0-5.879-0.8016-8.4176-2.1378
		c-2.4051-1.4697-3.8748-3.7411-4.2756-6.5471c-0.2672-1.7369,0-3.6075,0.6681-5.2109c0.8017-1.737,2.1378-3.2067,3.7411-4.2756
		c2.0042-1.2025,4.2756-2.0042,6.6807-2.405c4.2756-0.6681,7.7496-0.2672,10.2882,1.3361c2.5387,1.6033,4.2756,4.142,4.8101,7.0815
		l-6.9479,1.3362c-0.4008-1.4698-1.3361-2.6723-2.5386-3.474c-1.4698-0.668-3.0731-0.8016-4.5428-0.4008
		c-1.737,0.1336-3.3403,0.9353-4.5428,2.0042c-0.6681,0.668-0.9353,1.4697-0.8017,2.405c0.1336,0.8017,0.6681,1.4697,1.3362,2.0042
		c1.0689,0.668,3.2067,1.0689,6.8143,1.2025c2.6723,0.1336,5.3445,0.5344,8.0168,1.2025c1.7369,0.5344,3.2067,1.6033,4.4092,2.9395
		c2.5386,3.2067,3.0731,7.3487,1.6034,11.0899c-0.8017,2.0042-2.2714,3.6075-4.142,4.6765
		c-2.2715,1.3361-4.8101,2.1378-7.3487,2.5386c-4.4093,0.6681-7.8832,0.2672-10.5555-1.3361
		C430.4638,723.1437,428.4596,720.2042,427.658,716.8639"/>
	<path style="fill-rule:evenodd;clip-rule:evenodd;fill:#FFFFFF;" d="M477.8966,680.9219l6.8142-2.1378l6.8143,21.1109
		c0.8017,2.1378,1.2025,4.4092,1.3362,6.6807c0,2.1378-0.6681,4.142-2.0042,5.879c-1.6033,1.8705-3.7411,3.3403-6.2798,4.0084
		c-2.8059,1.0689-5.879,0.9353-8.5513-0.2672c-2.405-1.2025-4.142-3.7411-5.3445-7.2151l6.1462-2.8058
		c0.4008,1.3361,1.2025,2.6722,2.1378,3.7411c2.0042,1.4697,4.6765,1.0689,6.1462-0.8017c0.1336-0.2672,0.2672-0.5344,0.4008-0.668
		c0.2672-1.0689,0-2.9395-0.8017-5.6118L477.8966,680.9219z"/>
	<path style="fill-rule:evenodd;clip-rule:evenodd;fill:#FFFFFF;" d="M494.9991,674.1077l6.4134-3.2067l8.4176,17.2361
		c0.8017,1.7369,1.737,3.4739,2.8059,5.2109c0.8017,1.0689,2.1378,1.8706,3.4739,2.1378c1.6034,0.2672,3.3403,0,4.8101-0.9353
		c1.4697-0.668,2.6722-1.7369,3.4739-3.0731c0.5344-1.0689,0.668-2.4051,0.2672-3.4739c-0.6681-1.8706-1.4698-3.7412-2.405-5.4781
		l-8.6849-17.3698l6.4135-3.2067l8.1504,16.5681c1.4697,2.6722,2.5386,5.3445,3.4739,8.284c0.4008,1.6034,0.4008,3.3403,0,4.9437
		c-0.4009,1.6033-1.3361,3.2067-2.405,4.4092c-1.6033,1.6033-3.4739,3.0731-5.6118,4.0084
		c-2.2714,1.2026-4.8101,2.0042-7.3488,2.4051c-1.737,0.1336-3.4739-0.1337-5.0773-0.9353
		c-1.3362-0.5345-2.5386-1.4698-3.4739-2.6723c-1.737-2.405-3.3403-4.9437-4.5429-7.7496L494.9991,674.1077z"/>
	<polygon style="fill-rule:evenodd;clip-rule:evenodd;fill:#FFFFFF;" points="549.5133,684.5295 528.0015,656.7379 
		533.3461,652.4623 559.267,662.2161 544.8369,643.6439 550.0477,639.5018 571.5595,667.2934 565.9477,671.7026 540.5612,662.2161 
		554.7242,680.3875 	"/>
	
		<rect x="570.5917" y="623.7255" transform="matrix(0.7259 -0.6878 0.6878 0.7259 -283.7128 570.6586)" style="fill:#FFFFFF;" width="7.0809" height="35.14"/>
	<path style="fill-rule:evenodd;clip-rule:evenodd;fill:#FFFFFF;" d="M585.4552,631.0842c-2.5386-1.8705-4.5428-4.142-6.1462-6.8143
		c-0.9353-1.7369-1.4698-3.6075-1.737-5.6118c-0.2672-1.8705-0.1336-3.7411,0.2672-5.4781
		c0.6681-2.5386,2.0042-4.8101,3.6076-6.8143c2.6722-3.7411,6.8143-6.2798,11.4907-6.8143
		c4.4092-0.4008,8.9521,1.0689,13.495,4.6765c4.5428,3.6076,7.0815,7.4824,7.6159,11.8916
		c0.5344,4.5428-0.8017,9.2193-3.8748,12.6932c-2.6723,3.7412-6.8143,6.2798-11.4908,6.8143
		C594.2737,636.0279,589.8644,634.5582,585.4552,631.0842 M589.7309,625.0716c3.0731,2.405,6.0126,3.6075,8.8184,3.4739
		c5.2109-0.4008,9.2194-4.9437,8.6849-10.2882c0-0.2672,0-0.5345-0.1336-0.8017c-0.5345-2.6722-2.2714-5.3445-5.4781-7.8832
		s-6.0126-3.6075-8.6849-3.4739c-5.4781,0.5344-9.3529,5.4781-8.8185,10.8227v0.2672
		C584.7872,619.9943,586.5241,622.6666,589.7309,625.0716"/>
	<path style="fill-rule:evenodd;clip-rule:evenodd;fill:#FFFFFF;" d="M627.9442,602.7582l-30.731-17.2361l7.3487-13.0941
		c1.2026-2.5386,2.8059-4.6765,4.8101-6.6807c1.3361-1.2025,3.0731-1.8706,4.9437-2.0042c2.0042-0.1336,3.8748,0.4008,5.6117,1.3361
		c2.1378,1.0689,3.7412,2.9395,4.5429,5.2109c0.668,2.5386,0.5344,5.2109-0.5345,7.616c1.3361-0.8017,2.8058-1.4698,4.4092-1.8706
		c2.2714-0.4008,4.6765-0.6681,6.9479-0.6681l8.0168-0.4008l-4.142,7.3488l-9.2194,0.668
		c-2.1378,0.1336-4.2756,0.4008-6.4134,0.8017c-0.8017,0.1336-1.6034,0.5345-2.2715,1.2025
		c-0.8016,0.8017-1.6033,1.8706-2.1378,2.9395l-0.6681,1.3361l12.8268,7.2151L627.9442,602.7582z M613.7812,586.7245l2.5386-4.5428
		c1.2025-1.8706,2.0042-3.7412,2.6723-5.7454c0.1336-0.8016,0-1.7369-0.2673-2.405c-0.4008-0.8016-1.0688-1.4697-2.0042-1.8705
		c-0.9352-0.5345-2.0042-0.8017-2.9395-0.5345c-1.0689,0.2672-1.8706,0.8017-2.5387,1.6034
		c-0.4008,0.5344-1.2025,2.0042-2.6722,4.4092l-2.6722,4.8101L613.7812,586.7245z"/>
	<path style="fill-rule:evenodd;clip-rule:evenodd;fill:#FFFFFF;" d="M636.6292,560.9372l1.8705-6.6807
		c1.8706,0.5345,3.8748,0.2673,5.6118-0.5344c1.6034-0.9353,2.8059-2.405,3.3403-4.2756c0.8017-1.6033,0.9353-3.4739,0.5345-5.3445
		c-0.4009-1.3361-1.3361-2.405-2.5387-2.8058c-0.668-0.2673-1.4697-0.2673-2.2714-0.1336c-0.9353,0.4008-1.737,1.0688-2.2715,1.8705
		c-0.5344,0.6681-1.7369,2.2714-3.4739,4.6765c-1.4697,2.5387-3.6075,4.6765-6.1462,6.1462
		c-4.142,2.2714-9.2194,1.0689-11.8916-2.6722c-1.0689-1.6034-1.7369-3.474-1.7369-5.3445c0-2.405,0.4008-4.6765,1.3361-6.8143
		c1.6033-4.142,3.6075-6.8143,6.2798-8.2841c2.6722-1.3361,5.7454-1.6033,8.5512-0.5344l-2.2714,6.6807
		c-1.4698-0.4009-2.9395-0.2673-4.4092,0.4008c-1.3361,0.9353-2.2714,2.2714-2.6722,3.7411
		c-0.6681,1.6034-0.9353,3.3403-0.5345,4.9437c0.1336,0.8017,0.8017,1.4697,1.6033,1.8706
		c0.8017,0.2672,1.6034,0.2672,2.4051-0.2673c1.0689-0.5344,2.5386-2.2714,4.5428-5.2109c1.4697-2.2714,3.2067-4.4092,5.0773-6.2798
		c1.3362-1.2025,2.9395-2.0042,4.6765-2.405c4.0084-0.5345,8.0168,1.0689,10.4218,4.2756c1.2025,1.7369,2.0042,3.7411,2.0042,5.879
		c0,2.6723-0.5345,5.2109-1.4697,7.616c-1.6034,4.142-3.7412,6.9479-6.5471,8.5512
		C643.4434,561.6053,639.8359,562.0061,636.6292,560.9372"/>
	<path style="fill-rule:evenodd;clip-rule:evenodd;fill:#FFFFFF;" d="M175.1288,397.3946l-1.6033,7.4824l-8.4176,1.3361
		l-3.0731,13.7621l7.2151,4.5428l-1.6034,7.3488l-31.2655-20.9773l1.6033-7.3488L175.1288,397.3946z M158.828,407.1483
		l-13.7622,1.8706l11.758,7.4823L158.828,407.1483z"/>
	<path style="fill-rule:evenodd;clip-rule:evenodd;fill:#FFFFFF;" d="M167.2457,384.1668l1.737-6.6807
		c1.8706,0.5345,3.8748,0.2672,5.7454-0.5344c1.6034-0.9353,2.8059-2.5387,3.3403-4.2756c0.8017-1.6034,0.9353-3.6076,0.4008-5.3445
		c-0.4008-1.3361-1.3361-2.2715-2.5386-2.8059c-0.6681-0.2672-1.4698-0.2672-2.2714,0c-0.9353,0.4008-1.737,1.0689-2.2714,1.8706
		c-0.5345,0.6681-1.737,2.2714-3.4739,4.8101c-1.4697,2.5386-3.6076,4.6765-6.0126,6.2798
		c-4.142,2.2715-9.2193,1.0689-11.8916-2.6723c-1.0689-1.6033-1.737-3.4739-1.737-5.3445c0-2.405,0.4008-4.6765,1.3361-6.9479
		c1.6034-4.142,3.6076-6.9479,6.2798-8.284c2.6723-1.3362,5.7454-1.6033,8.4176-0.5345l-2.1378,6.8143
		c-1.4697-0.4008-2.9395-0.2672-4.2756,0.4008c-1.3361,0.9353-2.2714,2.2714-2.6723,3.7412
		c-0.6681,1.6033-0.9353,3.3403-0.5345,4.9437c0.2672,0.8017,0.8017,1.4698,1.6034,1.8706c0.8017,0.2672,1.6034,0.1336,2.405-0.2672
		c1.0689-0.5345,2.5387-2.2715,4.5428-5.2109c1.4697-2.2715,3.2067-4.4093,5.0773-6.4135c1.3361-1.2025,2.9395-2.0042,4.6765-2.405
		c4.0084-0.5344,8.0168,1.0689,10.4218,4.2756c1.2025,1.6034,2.0042,3.7412,2.0042,5.879c0,2.6723-0.5345,5.2109-1.4697,7.6159
		c-1.6034,4.142-3.7412,6.9479-6.4135,8.5512C174.0599,384.9685,170.586,385.2357,167.2457,384.1668"/>
	<path style="fill-rule:evenodd;clip-rule:evenodd;fill:#FFFFFF;" d="M178.7364,341.8114
		c-2.6723-1.4698-4.9437-3.6076-6.8143-6.0126c-1.0689-1.6034-1.8706-3.474-2.405-5.3445s-0.6681-3.7412-0.2672-5.4781
		c0.4008-2.5386,1.3361-5.0773,2.6723-7.2151c2.2714-4.142,6.0126-7.0815,10.5555-8.1504c4.4092-0.9353,8.9521,0,13.8958,2.9395
		c4.9437,2.9395,7.8832,6.5471,8.9521,10.8227c1.0689,4.5429,0.2672,9.2194-2.2714,13.0941
		c-2.2714,4.142-6.0126,7.0815-10.5555,8.1504C188.0893,345.6862,183.5465,344.6173,178.7364,341.8114 M182.3439,335.3979
		c3.474,2.0042,6.4134,2.8059,9.2193,2.2715c2.6723-0.5345,4.9437-2.1378,6.2798-4.4092c1.4697-2.2715,1.737-5.0773,0.9353-7.4824
		c-0.8017-2.5386-2.9395-4.9437-6.4134-7.0815c-3.474-2.1378-6.547-2.9395-9.0857-2.405c-2.6723,0.5344-4.9437,2.1378-6.1462,4.5428
		c-1.4697,2.2714-1.8706,5.0773-1.0689,7.616C176.7322,330.9887,178.87,333.2602,182.3439,335.3979"/>
	<path style="fill-rule:evenodd;clip-rule:evenodd;fill:#FFFFFF;" d="M225.3674,286.2283l6.2798-3.6075
		c2.0042,2.8059,2.9395,6.2798,2.6723,9.6201c-0.4008,3.3403-1.8706,6.4135-4.2756,8.8185
		c-2.8059,3.3404-6.9479,5.2109-11.2235,5.3445c-4.4092,0.1336-8.6849-1.7369-12.6933-5.4781
		c-4.2756-3.8748-6.6807-8.1504-7.0815-12.5596c-0.4008-4.5428,1.2025-8.9521,4.4092-12.1588
		c2.5387-2.9395,6.0126-4.8101,9.8874-5.2109c2.5386-0.1336,5.0773,0.5345,7.2151,1.737l-3.4739,6.2798
		c-1.4698-0.9353-3.2067-1.2025-4.9437-0.9353c-1.737,0.2672-3.2067,1.2025-4.4092,2.5386c-1.737,1.737-2.5387,4.142-2.1378,6.5471
		c0.2672,2.405,2.0042,5.0773,5.0773,7.8832c3.0731,2.8059,6.1462,4.5428,8.6849,4.5428c2.405,0.1336,4.8101-0.9353,6.2798-2.6723
		c1.2025-1.3362,1.8706-3.0731,2.0042-4.8101C227.5052,289.9695,226.7036,287.9653,225.3674,286.2283"/>
	
		<rect x="238.329" y="248.1342" transform="matrix(0.7762 -0.6305 0.6305 0.7762 -113.3948 211.9754)" style="fill:#FFFFFF;" width="7.082" height="35.1404"/>
	<path style="fill-rule:evenodd;clip-rule:evenodd;fill:#FFFFFF;" d="M294.1783,252.0233l-6.6807,3.8748l-6.6807-5.4782
		l-12.1588,7.0815l1.4698,8.284l-6.5471,3.8748l-5.7454-37.2781l6.5471-3.7412L294.1783,252.0233z M275.8733,246.6787
		l-10.6891-8.8184l2.405,13.6285L275.8733,246.6787z"/>
	<path style="fill-rule:evenodd;clip-rule:evenodd;fill:#FFFFFF;" d="M320.5001,226.9039l7.2151-0.5344
		c0.5345,3.3403,0,6.8143-1.737,9.8874c-4.4092,6.5471-12.8269,8.9521-20.042,5.879c-4.0084-1.8706-6.9479-5.3445-9.0857-10.4219
		c-2.1378-5.4781-2.5386-10.1546-0.8017-14.2966c1.6034-4.142,5.0773-7.4823,9.2193-8.9521
		c3.474-1.6034,7.4824-1.737,11.0899-0.4008c2.2714,1.0689,4.2756,2.6723,5.7454,4.6765l-5.879,4.142
		c-2.0042-3.0731-5.7454-4.142-9.0857-2.6723c-2.2714,0.8017-4.0084,2.6723-4.8101,4.9437
		c-0.8017,2.405-0.4008,5.4781,1.2025,9.3529c1.6034,4.142,3.6076,6.8143,5.7454,7.8832c2.1378,1.2025,4.5428,1.2025,6.8143,0.2672
		c1.6034-0.6681,3.0731-1.8706,3.8748-3.474C320.6337,231.1796,320.9009,229.0418,320.5001,226.9039"/>
	
		<rect x="340.8144" y="198.1635" transform="matrix(0.9741 -0.226 0.226 0.9741 -39.8505 83.4179)" style="fill:#FFFFFF;" width="7.0817" height="35.1397"/>
	<path style="fill-rule:evenodd;clip-rule:evenodd;fill:#FFFFFF;" d="M362.9891,211.672c-0.2672-3.0731,0-6.1462,0.9353-9.0857
		c0.6681-1.8706,1.6034-3.474,2.9395-5.0773c1.2025-1.4697,2.6722-2.6723,4.2756-3.474c2.2714-1.2025,4.8101-1.737,7.4824-1.8706
		c4.5428-0.5345,9.2193,0.9353,12.6933,3.8748c3.3403,2.9395,5.2109,7.3487,5.6118,13.0941
		c0.4008,5.7454-0.8017,10.2882-3.6076,13.6286c-6.5471,6.9479-17.2361,7.6159-24.7184,1.737
		C365.2606,221.5595,363.39,217.2838,362.9891,211.672 M370.3379,211.004c0.2672,4.0084,1.3361,6.9479,3.3403,8.8185
		c1.8706,1.8706,4.5428,2.8059,7.2151,2.5387c2.6723-0.1336,5.0773-1.4697,6.6807-3.6075s2.405-5.2109,2.1378-9.3529
		c-0.2672-4.0084-1.3361-6.9479-3.3403-8.8185c-4.0084-3.6076-10.2882-3.2067-13.8958,0.8017
		c-0.1336,0.1336-0.1336,0.1336-0.1336,0.2672C370.7387,203.9225,370.0706,206.9956,370.3379,211.004"/>
	<polygon style="fill-rule:evenodd;clip-rule:evenodd;fill:#FFFFFF;" points="411.4908,226.6367 415.6328,191.7637 
		422.447,192.5654 433.9377,217.6847 436.7437,194.3024 443.2907,195.104 439.1487,229.9771 432.0672,229.1754 420.7101,204.7242 
		418.0378,227.4384 	"/>
	<path style="fill-rule:evenodd;clip-rule:evenodd;fill:#FFFFFF;" d="M488.3184,243.3385l-7.3487-2.2714l-0.5345-8.5513
		l-13.3613-4.2756l-5.2109,6.8143l-7.2151-2.2714l23.6495-29.3949l7.2151,2.2714L488.3184,243.3385z M480.0344,226.1023
		l-0.6681-13.8958l-8.4177,10.9563L480.0344,226.1023z"/>
	<polygon style="fill-rule:evenodd;clip-rule:evenodd;fill:#FFFFFF;" points="502.3478,250.1527 515.1746,223.9645 
		505.8217,219.4216 508.3604,214.0771 533.4797,226.3696 530.8074,231.7141 521.5881,227.1712 508.6276,253.3595 	"/>
	<polygon style="fill-rule:evenodd;clip-rule:evenodd;fill:#FFFFFF;" points="528.536,264.4493 549.5132,236.5241 
		555.1251,240.7998 537.7553,263.9149 551.9183,274.4703 548.3107,279.2804 	"/>
	<polygon style="fill-rule:evenodd;clip-rule:evenodd;fill:#FFFFFF;" points="557.9309,287.2972 583.1838,262.9796 
		601.3552,281.6855 597.0796,285.8275 583.8519,272.0653 578.2401,277.5434 590.5325,290.2367 586.2569,294.3787 573.9645,281.6855 
		567.1502,288.3661 580.7787,302.3955 576.5032,306.5375 	"/>
	<polygon style="fill-rule:evenodd;clip-rule:evenodd;fill:#FFFFFF;" points="589.8645,323.3728 613.3804,306.1367 
		607.3678,297.719 612.0443,294.2451 628.6124,316.8257 623.8022,320.2997 617.6561,311.882 594.0065,329.1182 	"/>
	
		<rect x="605.0809" y="339.5677" transform="matrix(0.8841 -0.4673 0.4673 0.8841 -88.1686 330.7288)" style="fill:#FFFFFF;" width="35.1399" height="7.0817"/>
	<path style="fill-rule:evenodd;clip-rule:evenodd;fill:#FFFFFF;" d="M635.1594,384.1668l0.1336,7.2151
		c-3.4739,0.4008-6.8143-0.4008-9.7538-2.2714c-6.2798-4.8101-8.284-13.3613-4.8101-20.4428
		c2.0042-3.8748,5.7454-6.6807,10.8227-8.5513c5.4781-1.8706,10.2882-1.8706,14.2966-0.1336
		c4.142,1.8706,7.2151,5.4781,8.4176,9.7538c1.3362,3.6076,1.3362,7.616-0.2672,11.0899c-1.2025,2.2715-2.8058,4.142-4.9437,5.4781
		l-3.8748-6.1462c3.0731-1.737,4.4092-5.6117,3.2067-8.9521c-0.668-2.2715-2.405-4.142-4.6765-5.0773
		c-2.2714-0.9353-5.4781-0.6681-9.3529,0.6681c-4.2757,1.4698-6.9479,3.2068-8.1505,5.3445
		c-1.2025,2.0042-1.4697,4.5429-0.6681,6.8143c0.5345,1.737,1.737,3.0731,3.2067,4.0084
		C630.7501,384.1668,632.8879,384.5677,635.1594,384.1668"/>
	<path style="fill-rule:evenodd;clip-rule:evenodd;fill:#FFFFFF;" d="M634.0905,439.2155l-1.3361-7.616l7.3487-4.4092
		l-2.405-13.8958l-8.284-1.4697l-1.3362-7.3488l37.0109,7.3488l1.3361,7.3487L634.0905,439.2155z M645.5812,423.85l12.0252-7.0815
		l-13.6286-2.405L645.5812,423.85z"/>
	<g>
		<radialGradient id="SVGID_1_" cx="399.3319" cy="97.6331" r="46.6745" gradientUnits="userSpaceOnUse">
			<stop  offset="0" style="stop-color:#FED500"/>
			<stop  offset="1" style="stop-color:#FCB918"/>
		</radialGradient>
		<polygon style="fill:url(#SVGID_1_);" points="388.5092,86.4764 353.6362,86.4764 381.9622,108.9234 371.0059,145.2663 
			399.3319,122.6856 427.5243,145.2663 416.7017,108.9234 445.0277,86.4764 410.021,86.4764 399.3319,50 		"/>
		
			<radialGradient id="SVGID_00000173122254699614675020000012888665620579260824_" cx="524.4608" cy="136.5814" r="27.2517" gradientUnits="userSpaceOnUse">
			<stop  offset="0" style="stop-color:#FED500"/>
			<stop  offset="1" style="stop-color:#FCB918"/>
		</radialGradient>
		<polygon style="fill:url(#SVGID_00000173122254699614675020000012888665620579260824_);" points="520.252,125.3578 
			501.5461,117.8755 511.968,135.9133 498.473,153.1494 518.3813,147.0032 528.6696,165.041 530.5402,143.2621 550.4485,137.2495 
			531.7427,129.9007 533.6133,108.1217 		"/>
		
			<radialGradient id="SVGID_00000038375583733540592480000011658086968580336803_" cx="626.4745" cy="197.5759" r="27.0235" gradientUnits="userSpaceOnUse">
			<stop  offset="0" style="stop-color:#FED500"/>
			<stop  offset="1" style="stop-color:#FCB918"/>
		</radialGradient>
		<polygon style="fill:url(#SVGID_00000038375583733540592480000011658086968580336803_);" points="627.2762,184.0141 
			610.9754,172.2561 616.7208,192.1645 599.351,205.5258 620.0611,204.4569 625.6729,224.4989 632.888,203.9225 653.598,202.9872 
			637.2972,191.2292 644.5123,170.6528 		"/>
		
			<radialGradient id="SVGID_00000166676691935056913850000000221337024286992054_" cx="275.5392" cy="136.5814" r="27.2518" gradientUnits="userSpaceOnUse">
			<stop  offset="0" style="stop-color:#FED500"/>
			<stop  offset="1" style="stop-color:#FCB918"/>
		</radialGradient>
		<polygon style="fill:url(#SVGID_00000166676691935056913850000000221337024286992054_);" points="268.2573,129.9007 
			249.5514,137.2495 269.4598,143.2621 271.3304,165.041 281.7523,147.0032 301.527,153.1494 288.0321,135.9133 298.4539,117.8755 
			279.748,125.3578 266.3867,108.1217 		"/>
		
			<radialGradient id="SVGID_00000061441500202606050980000002741830395091185334_" cx="173.5255" cy="197.5759" r="27.0235" gradientUnits="userSpaceOnUse">
			<stop  offset="0" style="stop-color:#FED500"/>
			<stop  offset="1" style="stop-color:#FCB918"/>
		</radialGradient>
		<polygon style="fill:url(#SVGID_00000061441500202606050980000002741830395091185334_);" points="162.7028,191.2292 
			146.402,202.9872 167.112,203.9225 174.3271,224.4989 179.9389,204.4569 200.649,205.5258 183.4129,192.1645 189.0246,172.2561 
			172.7238,184.0141 155.4877,170.6528 		"/>
	</g>
</g>
<g>
</g>
<g>
</g>
<g>
</g>
<g>
</g>
<g>
</g>
<g>
</g>
<g>
</g>
<g>
</g>
<g>
</g>
<g>
</g>
<g>
</g>
<g>
</g>
<g>
</g>
<g>
</g>
<g>
</g>
</svg>
