<svg version="1.1" xmlns="http://www.w3.org/2000/svg" xmlns:xlink="http://www.w3.org/1999/xlink" x="0px" y="0px"
	 viewBox="0 0 800 800" enable-background="new 0 0 800 800" xml:space="preserve">
<g>
	<path fill="#900000" d="M655.8,326.6c11.5-62,16.9-93.6,54.9-142.5c0,0-3.9-3-11.5-7.8c-8.3,6.7-19.7,14.1-34.1,19.5
		c-34.4,13-74.8-9.7-25.6-50.1c0.2-0.2,0.4-0.3,0.6-0.5c-5-2.2-10.2-4.4-15.7-6.6c-12.5,8.8-29.1,18.6-47.1,23.7
		c-37.1,10.5-57.3,2.4-67-10.9c-7.6-10.5-4.1-28.7,5.9-44.2c-8.2-1.5-16.7-2.9-25.4-4.2c-19.5,30-52.9,49.8-90.8,49.8
		c-37.9,0-71.3-19.8-90.8-49.8c-8.7,1.2-17.2,2.6-25.4,4.2c10,15.5,13.6,33.7,5.9,44.2c-9.7,13.3-29.9,21.5-67,10.9
		c-18-5.1-34.7-14.9-47.1-23.7c-5.5,2.2-10.7,4.4-15.7,6.6c0.2,0.2,0.4,0.3,0.6,0.5c49.3,40.4,8.8,63.1-25.6,50.1
		c-14.4-5.4-25.8-12.8-34.1-19.5c-7.6,4.9-11.5,7.8-11.5,7.8c38,48.9,43.3,80.5,54.9,142.5c16,96.7-13.4,152.7,5.4,214.9
		c18.8,62.2,61.6,101.4,125.6,144.3S400,750,400,750s60.8-21.3,124.8-64.2c64-42.9,106.9-82.1,125.6-144.3
		C669.1,479.4,639.8,423.3,655.8,326.6z M643.2,448.3c2.9,32.8,5.4,61.1-3.3,90.1C622,598,580.3,635.6,518.8,676.9
		c-53.3,35.7-105,56.4-118.8,61.6c-13.9-5.2-65.4-25.9-118.8-61.6C219.7,635.7,178,598.1,160,538.5c-8.7-29-6.2-57.3-3.3-90.1
		c3-34.5,6.4-73.6-1.8-123.5v-0.2l-0.6-3.5c-7.2-38.4-12.3-65.8-25.1-93.6C178.6,205.3,272.3,173,400,173s221.3,32.3,270.8,54.6
		c-12.8,27.8-17.9,55.2-25.1,93.6l-0.6,3.5v0.1C636.7,374.7,640.2,413.8,643.2,448.3z"/>
	<g>
		<circle fill="#900000" cx="115.2" cy="129.3" r="18.4"/>
		<circle fill="#900000" cx="232" cy="90.8" r="19.3"/>
		<circle fill="#900000" cx="684.8" cy="129.3" r="18.4"/>
		<circle fill="#900000" cx="568" cy="90.8" r="19.3"/>
		<circle fill="#900000" cx="400" cy="77.2" r="27.2"/>
	</g>
	<g>
		<path fill="#900000" d="M160.5,277.9l-1.5-4.6l17.1-5.5l-12-36.8l5.8-1.9l4.3,13.4l17.8-5.8l1.6,5l-17.8,5.8l6,18.4l21.3-6.9
			l1.5,4.6L160.5,277.9L160.5,277.9z M212.4,226.5c-0.6-0.3-1.5-0.7-2.7-1.4c-1.1-0.7-3.1-1.7-5.9-3l2.4-4.4
			c1.7,0.8,4.6,2.2,8.8,4.1L212.4,226.5L212.4,226.5z M214,239.4c-2.6-1.5-5.5-3-8.7-4.4l2.4-4.2c3.1,1.3,6,2.6,8.8,3.9L214,239.4z
			 M217.9,262.3l-5.2-0.2c0.3-6.5,0.4-12.5,0.3-17.9c1.7,0.3,3.4,0.4,5.3,0.3C218,252.6,217.9,258.6,217.9,262.3L217.9,262.3z
			 M219,231.6c-0.2-0.1-0.3-0.3-0.5-0.5c-1-0.7-2.2-1.5-3.6-2.4c3-4.6,5-9.7,6-15.3l5.4-0.7c-0.5,1.4-0.8,2.8-1,4.1l22.2-5.3l1,4.2
			l-24.7,5.9c-0.2,0.4-0.5,1.1-0.9,2c-0.3,1-0.6,1.7-0.9,2.2l24.5-5.8c0.1,0.5,0.4,1.6,0.8,3.4c0.7,3.3,1.2,6,1.7,8l4-0.9l1,4.2
			l-4.2,1l1.5,7.3l3.4-0.8l1,4.2l-3.6,0.9c0.9,4.3-1.1,7.1-6.1,8.3l-7.2,1.7c-0.7-1.2-1.4-2.4-2.1-3.7c0.6-0.2,1.7-0.4,3.2-0.8
			c1.5-0.2,2.8-0.5,3.6-0.7c2.7-0.5,3.9-1.7,3.7-3.7l-23.5,5.6l-1.4-11.7l-4,0.9l-1-4.2l4.6-1.1l-1.3-9.5
			C220.2,229.3,219.6,230.4,219,231.6L219,231.6z M225.9,229.3l0.8,7.4l17.6-4.2c-0.9-3.8-1.4-6.2-1.5-7.3L225.9,229.3L225.9,229.3z
			 M246.6,244.1c-0.2-1.4-0.7-3.8-1.5-7.3l-17.8,4.2l0.8,7.4l11.2-2.7c-0.8-0.4-1.9-0.8-3.3-1.4c-1.3-0.6-2.4-1.1-3.2-1.5l2-3.3
			c0.4,0.2,1.2,0.5,2.2,0.9c1.8,0.7,3.2,1.2,4.4,1.8l-2,3.5L246.6,244.1L246.6,244.1z M237,234.1c-2.1-1.1-4.3-2.1-6.5-2.9l2-3.3
			c1,0.4,2.4,1,4.2,1.6c0.9,0.5,1.7,0.8,2.3,1.1L237,234.1L237,234.1z M268,214.6c-0.6-0.3-1.4-0.8-2.6-1.6c-1-0.8-2.9-1.9-5.7-3.4
			l2.7-4.2c1.6,0.9,4.4,2.5,8.5,4.8L268,214.6z M268.6,227.6c-2.5-1.7-5.3-3.4-8.3-5l2.7-4c3,1.5,5.8,3,8.4,4.6L268.6,227.6
			L268.6,227.6z M270.7,250.7l-5.2-0.6c0.8-6.4,1.4-12.4,1.7-17.8c1.6,0.4,3.4,0.6,5.3,0.8C271.6,241.1,271,247,270.7,250.7z
			 M274.2,220.2l-0.5-0.5c-0.9-0.8-2-1.7-3.4-2.6c3.4-4.4,5.8-9.3,7.1-14.7l5.5-0.3c-0.6,1.4-1,2.7-1.3,4l22.5-3.6l0.7,4.2l-25,4
			c-0.2,0.4-0.6,1.1-1.1,1.9c-0.4,1-0.7,1.7-1,2.1l24.8-3.9c0.1,0.5,0.3,1.7,0.5,3.5c0.4,3.4,0.8,6.1,1.1,8.1l4-0.6l0.7,4.2
			l-4.2,0.7l1,7.3l3.5-0.5l0.7,4.2l-3.7,0.6c0.6,4.4-1.7,7-6.7,7.8l-7.3,1.2c-0.6-1.2-1.2-2.5-1.8-3.9c0.6-0.1,1.7-0.3,3.3-0.5
			c1.6-0.1,2.8-0.2,3.7-0.4c2.7-0.3,4-1.4,4-3.4l-23.9,3.8l-0.5-11.8l-4,0.6l-0.7-4.2l4.6-0.7l-0.5-9.6
			C275.6,218,274.9,219,274.2,220.2L274.2,220.2z M281.2,218.5l0.2,7.5l17.9-2.8c-0.6-3.9-0.9-6.3-1-7.3L281.2,218.5z M300.7,234.7
			c-0.1-1.4-0.4-3.9-1-7.3l-18.1,2.9l0.2,7.5l11.4-1.8c-0.7-0.4-1.8-1-3.2-1.7c-1.3-0.7-2.3-1.3-3-1.7l2.3-3.1
			c0.4,0.2,1.1,0.5,2.1,1c1.7,0.8,3.1,1.5,4.3,2.1l-2.2,3.3L300.7,234.7L300.7,234.7z M292,224.1c-2-1.3-4.1-2.4-6.3-3.4l2.3-3.1
			c1,0.5,2.4,1.1,4.1,1.9c0.9,0.5,1.6,0.9,2.2,1.2L292,224.1L292,224.1z M322.7,220.3c-2-2.3-4.3-4.8-6.9-7.5l4.1-2.7
			c2.4,2.2,4.7,4.4,7,6.9L322.7,220.3z M323.1,207.4c-1-1.2-2.6-2.9-4.7-5.1c-1-1.1-1.7-1.9-2.1-2.4l4.3-2.7l6.8,6.9L323.1,207.4
			L323.1,207.4z M328.9,229.2c-0.2-0.5-0.5-1.1-0.9-1.9c-0.5-0.9-0.8-1.5-1.1-1.9l-2.5,17.2l-5.2-1c1.2-5,2.1-11,2.9-17.8
			c0.5,0.1,1.3,0.2,2.2,0.4c1.1,0.3,1.8,0.5,2.2,0.6v-0.2c4.1-2.8,7.3-6.3,9.7-10.6l-8.7,0.7l-0.3-4.1l8-0.6l-0.4-5.4l-6,0.5
			l-0.3-4.1l6-0.5l-0.4-5.1l4.9-0.4l0.4,5.1l8.7-0.7l-0.4-5.1l4.9-0.4l0.4,5.1l7-0.6l0.3,4.1l-7,0.6l0.4,5.4l8.7-0.7l0.3,4.1
			l-9.5,0.8c2.8,3.6,6.4,6.2,11,7.9l-2,4.7c-3-1.5-5.5-3.1-7.6-4.9l0.8,9.7l-16.9,1.3l0.2,2.1c0,2,1.1,2.8,3.3,2.5l12.1-1
			c2.3-0.1,3.6-0.9,3.7-2.6c0.1-0.5,0.2-1.5,0.4-3c0.1-0.8,0.1-1.4,0.2-1.8c1.5,0.5,2.9,0.9,4.4,1.2c-0.1,2-0.4,3.7-0.7,5.3
			c-0.5,3-2.8,4.7-6.6,5l-14.8,1.2c-3.9,0.2-6.1-1.5-6.5-5.2l-0.8-10.1C331.8,226.6,330.4,227.9,328.9,229.2L328.9,229.2z
			 M337.6,223l0.4,4.9l12.2-1l-0.4-4.9L337.6,223z M341.4,213.7c-1,1.9-2.1,3.7-3.3,5.3l13.8-1.1c-0.8-0.7-2-2.1-3.5-4.2
			c-0.2-0.2-0.3-0.4-0.4-0.6L341.4,213.7z M339.5,204.3l0.4,5.4l8.7-0.7l-0.4-5.4L339.5,204.3z M378.5,212.9V195H415v17.9h-15.2v7.4
			h17.4v4.7h-17.4v8.2c3.6,0.1,10.3,0.2,20.1,0.2c-0.7,1.3-1.2,2.8-1.6,4.5c-10,0-16.8-0.1-20.5-0.2c-7.3-0.1-12.4-2.5-15.2-7
			c-1.2,2.6-3.3,5.7-6.4,9.2c-1.3-1.6-2.5-2.9-3.7-4.1c4.9-4.3,7.6-10.7,8-19.1l5.1,0.8c-0.3,2.7-0.6,5.1-1,7.2
			c2.2,4.8,5.5,7.5,9.7,8.2V213L378.5,212.9z M383.9,199.5v8.8h25.5v-8.8H383.9z M429.9,201.7l0.4-4.7l15.4,1.2l-0.4,4.7l-5.1-0.4
			l-0.9,10.9l4.5,0.4l-0.4,4.7l-4.5-0.4L438,230h0.4c2.2-0.1,3.9-0.2,4.9-0.4c-0.1,1.7-0.3,3.4-0.4,5.1c-4.3,0-9.5,0.4-15.5,1.1
			l-0.4-5.1l6.1-0.3l1-12.6l-5.1-0.4l0.4-4.7l5.1,0.4l0.9-10.9L429.9,201.7z M471.5,237.9c-4.9-5.2-8.3-10.8-10-16.6l-1.1,13.6
			c-0.1,4.2-2.4,6.1-6.9,5.7c-1.4,0-3.3-0.1-5.5-0.2c-0.1-1.8-0.3-3.5-0.6-4.9c0.5,0,1.4,0.2,2.5,0.4c1,0.1,1.7,0.1,2.1,0.2
			c2.3,0.3,3.5-0.6,3.6-2.8l0.5-6.8c-1.1,0.7-2.8,1.7-5.1,2.9c-2.6,1.5-4.5,2.6-5.8,3.5l-1.8-5c5.6-2.7,9.9-4.9,13-6.6l1-12.8
			l-11.5-0.9l0.4-4.5l11.5,0.9l0.7-8.4l4.9,0.4l-0.7,8.4l7.4,0.6c-0.5-0.6-1.3-1.5-2.3-2.7c-1.2-1.3-2.1-2.3-2.7-3l3.5-2.1
			c0.5,0.4,1.1,1.1,2,2.1c1.4,1.6,2.5,2.6,3.1,3.2l-3.5,2.5l5.8,0.5l-0.4,4.5l-13.2-1.1l-0.1,1.2c0.1,0.3,0.2,0.6,0.3,1
			c0.6,3.7,1.3,6.4,2.1,8c2.4-2.3,4.7-4.5,6.8-6.7l3.6,3.4c-3.8,3.4-6.7,5.8-8.8,7.3c1.9,3.8,4.6,7.4,8.1,10.8
			c-0.3,0.4-0.8,1.1-1.5,2.2C472.3,236.9,471.7,237.5,471.5,237.9L471.5,237.9z M450.1,221.1c-1.4-3.1-3-6.1-4.6-9l4.3-1.8
			c1.6,2.9,3.1,5.8,4.6,8.8L450.1,221.1z M486,244.7l3.9-24.7c-1.6,2-3.5,4-5.7,6c0.2-2.2,0.2-4.4-0.1-6.7
			c5.1-5.6,9.4-12.3,12.8-19.9l4.8,2.1c-1.7,3.3-3.5,6.5-5.5,9.6l-5.4,34.3L486,244.7L486,244.7z M495.3,246.5l-1.9-4.4
			c4.4-0.9,8.6-2.4,12.8-4.5l2.3,3.9c-0.7,0.3-1.7,0.6-2.9,0.9C501.4,244.4,498,245.8,495.3,246.5z M494.4,235.3l0.6-4l4,0.6
			l4.6-29.3l26.4,4.2l-4.6,29.3l4,0.6l-0.6,4L494.4,235.3L494.4,235.3z M504.5,228.8l-0.6,3.9l16.6,2.6l0.6-3.9L504.5,228.8
			L504.5,228.8z M505.6,221.7l-0.6,3.9l16.6,2.6l0.6-3.9L505.6,221.7L505.6,221.7z M506.7,214.4l-0.6,3.9l16.6,2.6l0.6-3.9
			L506.7,214.4L506.7,214.4z M507.9,207.2l-0.6,3.9l16.6,2.6l0.6-3.9L507.9,207.2L507.9,207.2z M524.3,250.9
			c-4.5-4-8.1-6.9-10.9-8.6l3.1-3.1c1.4,1,3.4,2.5,5.8,4.5c2.3,1.5,4,2.7,5.2,3.6L524.3,250.9L524.3,250.9z M538.7,251.6
			c-1.1-1.6-2.2-2.9-3.5-4c4.4-2.7,8.9-6.2,13.7-10.4l3.9,3.7C547.5,245.5,542.7,249,538.7,251.6L538.7,251.6z M542,233.3l7.6-20.8
			c10.7,2.6,22.5,4.7,35.1,6.5l0.6,5.1c-13-2-23.7-4-32.1-5.8L549,230l12.1,2.9l2.2-9.3l5.3,1.3l-2.2,9.3l17.3,4.1l-1.1,4.7
			l-17.3-4.1l-3.1,12.9c-0.9,4.7-3.6,6.5-8.1,5.3c-1.3-0.2-3.5-0.6-6.7-1.4c0.1-0.9,0.1-2.7,0-5.2c2.1,0.5,4.1,1,5.9,1.4
			c2.1,0.5,3.4-0.3,3.8-2.5l2.8-11.8L542,233.3L542,233.3z M576.3,260.3c-0.6-1.2-1.6-3.2-3-5.9c-2.2-4.4-3.7-7.6-4.7-9.5l4.6-1.7
			c1.1,2,2.7,5.1,4.8,9.2c1.6,2.9,2.7,5,3.3,6.2L576.3,260.3L576.3,260.3z M590.1,267.2L596,249l20.4,6.6l-5.8,18l-4.6-1.5l0.9-2.8
			l-11.1-3.6l-1,3L590.1,267.2L590.1,267.2z M594.7,243.9l1.3-4.1l6.9,2.2c0-0.3-0.1-0.7-0.3-1.1c-0.7-2.5-1.3-4.5-1.8-5.9l4.6-0.8
			c0.1,0.5,0.3,1.1,0.6,1.8c0.8,2.2,1.3,3.9,1.6,5.2l-4.4,0.8l6.7,2.2c0.8-0.7,1.1-1,0.9-0.7c2.6-2.4,4.5-4.4,5.7-5.7l3.7,3.1
			c-1.8,1.6-3.6,3.3-5.5,5l6.7,2.2l-1.3,4.1L594.7,243.9z M599.3,254.4l-2.5,7.6l11.1,3.6l2.5-7.6L599.3,254.4L599.3,254.4z
			 M599.9,232.3l1.3-4.1l9.6,3.1c0-0.9-0.1-2.3-0.3-4.2c-0.1-0.6-0.2-1-0.2-1.3l5.2,0.9c0.1,1.3,0.3,3,0.4,5.2c0,0.4,0,0.8,0.1,1
			l8.2,2.6l-1.3,4.1L599.9,232.3z M614.8,275.6l13.5-41.7l16.5,5.3l-1.4,4.5l-8.4,10.8c2.6,4.7,3.2,9,1.7,13.1
			c-1.6,5.2-4.6,7.3-9.1,6.1c-0.9-0.2-2.5-0.6-4.7-1.3c0.3-1.8,0.5-3.6,0.7-5.3c1.3,0.6,2.6,1,3.8,1.4c2.3,0.8,4-0.2,4.8-2.9
			c1-3.2,0.3-7.2-2.1-11.9l8.5-11.6l-7.2-2.3l-12.1,37.5L614.8,275.6L614.8,275.6z"/>
		<g>
			<path fill="#900000" d="M185.5,286.5l2.7,8.6l-0.3,0.1c-2.5-3.8-7.7-7.1-12.4-5.9c-2.3,0.6-3.2,2.4-2.7,4.3
				c1.5,5.4,18.4-0.5,21.2,10.9c1.5,5.7-3.7,9.1-9.4,10.6c-2.1,0.6-6.7,0.9-10.9-2v5.4l-0.3,0.1l-3.5-12.1l0.3-0.1
				c3.3,4.6,8.7,9.8,14.6,8.2c2-0.5,3.9-2.2,3.1-4.9c-1.6-5.7-17.9,0.7-20.5-10.9c-1.3-4.7,2.1-8.3,7.4-9.8c2.2-0.6,5.6-1,10.1,1.3
				v-3.8L185.5,286.5L185.5,286.5z"/>
			<path fill="#900000" d="M210.8,279.4l13.9-3.1l0.1,0.4l-1.8,0.4c-0.5,0.1-0.7,0.3-0.6,0.7l5.4,24c0.1,0.4,0.4,0.5,0.8,0.4
				l1.8-0.4l0.1,0.4l-13.9,3.1l-0.1-0.4l1.8-0.4c0.5-0.1,0.7-0.3,0.6-0.7l-2.7-12L207,294l2.7,12c0.1,0.4,0.4,0.5,0.8,0.4l2.9-0.6
				l0.1,0.4l-15.9,3.5l-0.1-0.4l2.6-0.6c0.5-0.1,0.7-0.3,0.6-0.7l-5.4-24c-0.1-0.4-0.4-0.5-0.8-0.4l-2.9,0.7l-0.1-0.4l15.7-3.6
				l0.1,0.4l-2.5,0.6c-0.5,0.1-0.7,0.3-0.6,0.7l2.6,11.6l9.2-2.2l-2.6-11.6c-0.1-0.4-0.4-0.5-0.8-0.4l-1.8,0.4V279.4L210.8,279.4z"
				/>
			<path fill="#900000" d="M344.7,257.2l16.2-0.7v0.4l-2.7,0.1c-0.5,0-0.7,0.2-0.7,0.6l1.1,24.6c0,0.4,0.3,0.5,0.8,0.5l2.9-0.1v0.4
				l-15.3,0.7v-0.4l1.8-0.1c0.5,0,0.7-0.2,0.7-0.6l-0.6-12.3l-9.4,0.5l0.6,12.3c0,0.4,0.3,0.5,0.8,0.5l3-0.1v0.4l-16.2,0.7v-0.4
				l2.7-0.1c0.5,0,0.7-0.2,0.7-0.6l-1.1-23.8c0-0.4-0.3-0.5-0.8-0.5l-3.5-0.2v-0.8l17.2-0.8v0.4l-3.1,0.6c-0.5,0-0.6,0.3-0.6,0.7
				l0.3,11.3l9.4-0.5l-0.5-11.9c0-0.4-0.3-0.5-0.8-0.5l-2.9,0.1V257.2L344.7,257.2z"/>
			<path fill="#900000" d="M262.2,271.5l3.4,21.8c0,0.4,0.3,0.5,0.8,0.5l5.1-0.4v0.6l-10,1.4V295l1.6-0.3c0.5-0.1,0.7-0.4,0.7-0.8
				l-3.3-22.8l-0.6-0.7c-0.7-0.8-4.6-0.7-5.7-0.6v-0.9l15.1-1.6l15.8,13.4l-1.7-14.8c0-0.4-0.3-0.5-0.8-0.5l-3.8-0.1v-0.4l10.1-1.1
				v0.4l-3.3,0.8c-0.5,0.1-0.7,0.2-0.7,0.6l3.2,25.4l-5.3,0.6L262.2,271.5L262.2,271.5z"/>
			<path fill="#900000" d="M308.2,288.3c-11.1,0.4-16.3-5.4-16.4-13.6c-0.1-8.1,6.8-14,17-14.1c4.8-0.1,7.8,2,9,3.5l0.9-5h0.8
				l1,12.7l-0.6,0.1c-0.2-2.5-1.2-4.7-2.6-6.5c-2-2.6-4.6-3.8-7.7-3.8c-3.8,0.1-6.4,2.1-6.7,12.8c-0.2,6.7,2.5,12.2,5.8,12.5
				c1.9,0.2,3.6-0.2,4.6-1.3l-0.2-10.1c0-0.4-0.3-0.9-0.7-0.9h-4.2v-0.8l16.7-0.2v0.8h-1.8c-0.5,0-0.7,0.2-0.7,0.6l0.2,11.3h-0.4
				c-0.6-0.7-2.6-1.7-4.3-1.7C314.9,284.8,312.6,288.3,308.2,288.3L308.2,288.3z"/>
			<path fill="#900000" d="M375.7,282l2.7-0.1c0.4,0,0.7-0.5,0.5-0.8l-2.4-6.7l-7.3,0.2l-1.8,6.6c-0.3,0.9-0.2,1.1,0.7,1.1l4.1-0.1
				v0.6l-9.5,0.3v-0.6h1.4c0.8,0,1.4-0.4,1.7-0.9l7.9-25.3l4.5-0.1l11,25c0.2,0.3,0.4,0.5,0.8,0.5l2.6,0.1v0.4l-17,0.5L375.7,282
				L375.7,282z M369.5,273.8l6.7-0.2l-3.8-9.4L369.5,273.8L369.5,273.8z"/>
			<path fill="#900000" d="M244.3,298.5l3.3-0.9c0.4-0.1,0.6-0.6,0.4-0.9l-3.9-6.1l-7.5,1.6L236,299c-0.1,0.9,0,1.2,0.9,1l4.1-0.9
				l0.1,0.6l-9.3,2l-0.1-0.6l1.4-0.3c0.8-0.2,1.3-0.6,1.5-1.2l3.3-26.9l4.9-0.6l15.3,22.8c0.2,0.3,0.5,0.4,0.8,0.4l2.5-0.3l0.1,0.4
				l-17.1,3.6L244.3,298.5L244.3,298.5z M236.6,291.3l7-1.5l-5.8-8.5L236.6,291.3z"/>
			<path fill="#900000" d="M393.1,255.7l16.9,0.1v0.4h-3.1c-0.5,0-0.7,0.2-0.7,0.5l-0.1,24.6c0,0.4,0.2,0.5,0.7,0.5h3.1v0.4
				l-16.9-0.1v-0.4h3.3c0.5,0,0.7-0.2,0.7-0.5l0.1-24.6c0-0.4-0.2-0.5-0.7-0.5h-3.3V255.7L393.1,255.7z"/>
			<path fill="#900000" d="M432,282.3h1.8c0.5,0,0.7-0.2,0.7-0.5l0.3-24.6c0-0.4-0.2-0.5-0.7-0.6h-1.8v-0.4l17.1,0.2
				c8.3,0.1,10.5,2.9,10.5,8.6c-0.1,6.5-2.8,7.1-10.5,7l-5.6-0.1l-0.1,10c0,0.3,0.3,0.5,0.7,0.5h3.8v0.4l-16.2-0.2L432,282.3
				L432,282.3z M444,256.8l-0.2,14.8h2.8c4.9,0.1,4.7-3.9,4.7-6.8c0-4.3-0.1-8-5.1-8H444z"/>
			<path fill="#900000" d="M478,258.7c10.8,1.1,15.6,7.3,14.7,15.5c-0.8,8.2-6.8,13.2-17.5,12.1c-10.9-1.1-14.4-7.3-13.6-15.4
				C462.5,262.8,467.1,257.6,478,258.7z M475.1,285.9c2.9,0.3,6.6-1.1,7.8-12.7c1.2-11.7-2.1-13.7-5.1-14c-3.3-0.3-5.1,1.1-6.4,12.9
				C470.3,283.5,471.9,285.6,475.1,285.9L475.1,285.9z"/>
			<path fill="#900000" d="M493.4,287.5l3.8,0.2c0.5,0,0.7-0.1,0.8-0.5l2.2-24.5c0-0.4-0.2-0.6-0.7-0.6l-1.8-0.2v-0.4l16.7,1.5
				c8.7,0.8,11.5,3.4,11,8.8c-0.4,4.4-2.4,6.2-7.4,6.3c5.4,1.3,5.1,5,4.9,8.2c-0.1,2.2-0.2,3,1,3c0.9,0,2.1-2.3,2.8-3.2l0.3,0.6
				c-1.7,3.5-3,5.3-7.2,5.2c-5-0.1-7.6-2.4-7.4-6.7c0.2-4.4,1.1-7.5-1.3-8l-3.1-0.3l-1,11.2c0,0.3,0.3,0.5,0.7,0.5l2.9,0.3v0.4
				l-17.2-1.5L493.4,287.5L493.4,287.5z M509.4,263l-1.2,12.9l2,0.2c5.6,0.5,5.5-3.3,5.7-5.2c0.3-2.9,0.7-7.3-4.6-7.8L509.4,263
				L509.4,263z"/>
			<path fill="#900000" d="M532.1,293.5l3.7,0.6c0.5,0.1,0.8,0,0.8-0.4l4.2-24.8l-0.9-0.2c-4.3-0.7-8.5,4.7-10.9,9.8l-0.4-0.1
				l1.6-11.8l30.5,5.2l-2.3,11.6l-0.4-0.1c-0.6-5.6-2.8-12-7.1-12.7l-1-0.2l-4.2,24.9c0,0.3,0.2,0.5,0.6,0.6l3.7,0.6v0.5l-17.9-3.1
				L532.1,293.5L532.1,293.5z"/>
			<path fill="#900000" d="M583.6,278.8c0.1-0.4-0.1-0.6-0.6-0.7l-3-0.6l0.1-0.4l28.3,5.7l-3.5,11.9l-0.7-0.1
				c-0.7-5.7-3.6-12.8-8.3-13.7l-3.3-0.7l-2.6,12.4l3.6,0.9c1.5,0.3,3.3-2.1,3.8-4.5l0.1-0.4l0.5,0.1l-2.3,11.2l-0.5-0.1l0.2-0.9
				c0.4-2.2-0.6-4.7-1.8-4.9l-3.6-0.9l-2.4,11.7c0,0.3,0.2,0.5,0.6,0.6l3.7,0.8l-0.1,0.4l-18.6-3.7l0.1-0.4l4.5,0.8
				c0.5,0.1,0.8,0,0.8-0.4L583.6,278.8L583.6,278.8z"/>
			<path fill="#900000" d="M632.5,303.4l-0.4-0.1c0.6-5.2-0.9-12-6.6-13.6c-3-0.8-6.5,1.2-8.7,11.2c-2,9-1,12.6,2.9,13.7
				c5.6,1.5,10-2,11.7-5.9l0.5,0.1c-2.4,5.6-7.2,7.9-14.4,6c-8.7-2.4-13.5-9.6-11.3-17.4c2.1-7.8,9.8-11.7,18.8-9.3
				c4.9,1.3,6.5,4.5,7.5,6.4l3.5-2.7l0.4,0.1L632.5,303.4L632.5,303.4z"/>
		</g>
	</g>
	<path fill="#900000" d="M629.7,449.5c-2.8-31.7-5.9-67.2-0.3-111.5c-53.3-19-131.3-38-229.4-38s-176.1,19-229.4,38
		c5.6,44.3,2.5,79.8-0.3,111.5c-2.8,31.4-5.1,58.5,2.8,85c8,26.6,21.1,49,41.2,70.8c17.4,18.8,40.4,37.3,74.5,60.2
		c47.1,31.6,92.6,51,111.2,58.3c18.6-7.3,64.2-26.8,111.2-58.3c34.2-22.9,57.1-41.5,74.5-60.2c20.1-21.7,33.2-44.2,41.2-70.8
		C634.9,508,632.5,480.9,629.7,449.5z M606.5,379.3c1.3,50.7-30.7,74.6-30.7,74.6C573.7,408.1,606.5,379.3,606.5,379.3z
		 M606.5,434.5c-4.6,50.6-39.2,70.6-39.2,70.5C570.5,459.2,606.5,434.5,606.5,434.5z M575.5,336c18.1,47.4-4.2,80.6-4.2,80.6
		C554.1,374,575.5,336,575.5,336z M304.9,370.6c0,0,16.2-39.8,95.2-39c100,9,119.2,99,123.7,47.8c0,0,52.7,39.5,0,87
		c0,0,14,13,28.2-14.7c0,0,19.7,39.8-2,69.4c-21.7,29.6-50.9,18.1-70,2.9c0,0,61.2,10,58.4-43.1c0,0-31.8,18.5-42.7-20.5
		c0,0,47.9-6,29.8-49.1c0,0-6.8,20.1-24.1,2c-17-17.8-89.5-116.7-187-42.8c-1.8,1.3-0.8,4.2,1.4,4.2h57.7l-32.1,23
		c0,0-13-24-43.5-11.3c-30.6,12.7-46.7,14.5-28.8,56.3c0,0,7-16.6,37.8-13.9s68.6,12.1,89.8,52.5c21.2,40.4-0.7,98.1-43.4,125.6
		c0,0,16.7-19.1,23.9-40.4c7.2-21.3,20.4-63.6-5.7-89.3c-26.1-25.7-53.1-29-65.1-29.4c-12.1-0.4-25.8,2.8-41.4,27
		c0,0-18.9-34.2-21.7-53.1C240.5,402.8,247.7,380.7,304.9,370.6z M224.5,336c0,0,21.4,38,4.2,80.6
		C228.7,416.6,206.4,383.4,224.5,336z M232.7,505c0,0.1-34.6-19.9-39.2-70.5C193.5,434.5,229.5,459.2,232.7,505z M193.5,379.3
		c0,0,32.8,28.8,30.7,74.6C224.2,453.9,192.2,430,193.5,379.3z M186.6,497.1c0,0,43,7.5,65,47.8
		C251.7,544.9,211.8,541.2,186.6,497.1z M288.2,594.1c0,0-39.9-2.4-66.6-45.6C221.6,548.5,264.8,554.6,288.2,594.1z M310,614.4
		c0,0-36.8,15.8-80-10.8C230,603.6,271.3,589.6,310,614.4z M272.3,640.7c0,0,36.2-24.4,80-10.6C352.3,630.1,321,655,272.3,640.7z
		 M313.5,665.6c0,0,31-30.7,76.6-25.3C390.1,640.2,364,670.6,313.5,665.6z M422.5,681.4c-5-6.1-7.7-13.4-22.5-29.9
		c-14.8,16.6-17.5,23.8-22.5,29.9c-5.4,6.6-9.2,0.5-2.3-11c4.9-8.1,16.9-16.1,23.7-20.2c-0.8-0.9-1.6-1.8-2.5-2.7c0,0,1.4,0.7,3.6,2
		c2.2-1.3,3.6-2,3.6-2c-0.9,0.9-1.7,1.8-2.5,2.7c6.7,4.1,18.8,12.1,23.7,20.2C431.7,681.9,427.9,688,422.5,681.4z M409.9,640.3
		c45.6-5.4,76.6,25.3,76.6,25.3C436,670.6,409.9,640.2,409.9,640.3z M447.7,630.1c43.8-13.8,80,10.6,80,10.6
		C479,655,447.7,630.1,447.7,630.1z M490,614.4c38.7-24.8,80-10.8,80-10.8C526.8,630.2,490,614.4,490,614.4z M511.8,594.1
		c23.4-39.5,66.6-45.6,66.6-45.6C551.7,591.7,511.8,594.1,511.8,594.1z M548.4,544.9c22-40.3,65-47.8,65-47.8
		C588.2,541.2,548.3,544.9,548.4,544.9z"/>
</g>
</svg>
