<?xml version="1.0" encoding="utf-8"?>
<!-- Created by @FCLOGO 2025-2-9 GMT+8 21:00:28 . https://fclogo.top/ -->
<!-- FOR PERSONAL USE ONLY NOT FOR COMMERCIAL USE -->
<svg version="1.1" xmlns="http://www.w3.org/2000/svg" xmlns:xlink="http://www.w3.org/1999/xlink" x="0px" y="0px"
	 viewBox="0 0 800 800" style="enable-background:new 0 0 800 800;" xml:space="preserve">
<path d="M287.4019,270.7316h30.8418v125.5167h-26.9788l-40.186-63.1108v63.1108h-30.8414V270.7316h26.9562l40.2082,63.1108V270.7316
	z M389.14,364.18c-2.84-3.72-5.82-7.77-5.82-30.69s2.98-27.16,5.82-30.85c2.1-2.72,5.93-5.01,10.86-5.4v-27.55
	c-14.53,0.32-24.71,5.22-33.59,14.08c-13.22,13.23-15.21,30.86-15.21,49.72s1.99,36.49,15.21,49.72
	c8.88,8.86,19.06,13.77,33.59,14.09v-27.57C395.07,369.32,391.24,366.89,389.14,364.18z M537.6277,346.538h-22.0513v22.0292h22.0513
	c8.4576,0,11.2917-5.8189,11.2917-11.0969C548.9194,352.1749,546.0853,346.538,537.6277,346.538z M544.653,308.627
	c0-4.9319-2.6614-10.2227-11.119-10.2227h-17.9576v20.4587h17.9576C541.9916,318.863,544.653,313.5632,544.653,308.627z
	 M401.48,369.8c5.65,0,10.05-2.64,12.34-5.62c2.82-3.72,5.83-7.77,5.83-30.69s-3.01-27.16-5.83-30.85
	c-2.29-2.9901-6.69-5.46-12.34-5.46c-0.5,0-1,0.02-1.48,0.06v72.49C400.48,369.78,400.98,369.8,401.48,369.8z M684.67,291.86
	c-0.32,51.28-6.67,99.16-18.88,142.34c-12.03,42.56-31.02,85.3-54.85,123.62c-22.28,35.8-51.21,71.0099-86.01,104.63
	c-36.48,35.24-74.88,63.2599-114.17,83.3199l-5.66,2.89l-0.33,0.19c-1.44,0.73-3.06,1.15-4.77,1.15c-1.72,0-3.37-0.43-4.8-1.2
	l-0.29-0.14l-5.65-2.89c-39.29-20.06-77.7-48.08-114.18-83.3199c-34.81-33.6201-63.73-68.83-86.02-104.63
	c-23.83-38.32-42.81-81.06-54.85-123.62C122,391.02,115.65,343.14,115.33,291.86c-0.36-60.02,10.34-120.95,20.38-173.34l3.94-20.65
	l0.16-0.82c0.89-3.65,4.09-6.36,7.94-6.36c1.23,0,2.4,0.3,3.44,0.8l0.55,0.28l18.44,9.58c25.61,13.29,53.22,20.03,82.03,20.03
	c49.61,0,95.97-20.12,130.5-56.66l11.41-12.06l0.35-0.37C395.9,50.87,397.85,50,400,50s4.1,0.86,5.52,2.27l0.43,0.4301l11.36,12.02
	c34.51,36.54,80.87,56.66,130.5,56.66c28.79,0,56.4-6.74,82.02-20.03l18.43-9.58l0.56-0.28c1.04-0.5,2.22-0.8,3.45-0.8
	c3.85,0,7.04,2.71,7.92,6.36l0.16,0.82l3.97,20.65C674.34,170.91,685.03,231.84,684.67,291.86z M451.77,333.49
	c0-18.86-1.98-36.49-15.2-49.72c-9.18-9.16-19.76-14.09-35.09-14.09c-0.5,0-0.99,0.01-1.48,0.01V82.46
	c-37.3,38.64-89.59,62.71-147.53,62.71c-33.39,0-64.8799-8.04-92.74-22.2c-10.63,54.42-20.23,110.29-19.88,164.69
	c0.28,45.01,5.66,90.27,17.9,132.64c11.63,40.26,29.78,79.72,51.96,114.62c22.81,35.89,51.29,68.57,82.1,97.71
	c32.07,30.33,68.93,57.77,108.19,77.41V397.3c0.49,0,0.98,0.01,1.48,0.01c15.33,0,25.91-4.94,35.09-14.1
	C449.79,369.98,451.77,352.35,451.77,333.49z M579.76,359.23c0-17.64-12.9-24.14-18.01-27.32c3.87-2.65,13.73-10.59,13.73-24.87
	c0-21.67-13.92-36.3-40-36.3h-50.76v125.51h55.91C563.02,396.25,579.76,383.21,579.76,359.23z"/>
<g>
</g>
<g>
</g>
<g>
</g>
<g>
</g>
<g>
</g>
<g>
</g>
<g>
</g>
<g>
</g>
<g>
</g>
<g>
</g>
<g>
</g>
<g>
</g>
<g>
</g>
<g>
</g>
<g>
</g>
</svg>
