<?xml version="1.0" encoding="UTF-8"?>
<svg data-name="图层_1" xmlns="http://www.w3.org/2000/svg" version="1.1" viewBox="0 0 800 800">
  <!-- Created by @FCLOGO 2024-12-10 GMT+8 17:23:24 . https://fclogo.top/ -->
<!-- FOR PERSONAL USE ONLY NOT FOR COMMERCIAL USE -->
  <path d="M348.2194,774.301c-.786,0-1.3752-.2173-1.7682-.6519-.393-.4352-.5284-1.03-.406-1.7856l.2518-1.6478c.122-.755.4501-1.3504.9841-1.785.5339-.4352,1.1939-.6525,1.9799-.6525.7553,0,1.3293.1987,1.7223.5954.3927.3967.551.9381.4747,1.6248h-1.2358c.0304-.3589-.0553-.637-.2573-.8357-.2024-.1981-.4979-.2974-.8869-.2974-.4197,0-.763.1167-1.03.3489-.2673.2328-.4349.5631-.5035.9903l-.2632,1.659c-.0686.4352-.0056.7686.1887,1.0015.1946.2328.5017.3489.9214.3489.389,0,.7152-.0987.9785-.2974.2632-.1981.4365-.4805.5206-.8469h1.2358c-.1372.6867-.4672,1.2306-.9897,1.631-.5228.4005-1.1616.6004-1.9169.6004ZM352.7967,774.1868l.9956-6.2943h1.1902l-.1946,1.1902c.3359-.8698.9729-1.3044,1.9113-1.3044.6712,0,1.1691.208,1.4932.624.3244.416.4293.9859.3148,1.7105l-.0686.4234h-1.2703l.0571-.3204c.0689-.4501.0115-.7953-.1714-1.0356-.1832-.2403-.4771-.3607-.8813-.3607-.4045,0-.7401.1223-1.007.3663-.2673.2446-.4349.588-.5035,1.03l-.6296,3.9711h-1.2358ZM361.9058,774.301c-.7705,0-1.3463-.2229-1.7279-.6693s-.515-1.0356-.4005-1.7682l.2518-1.6478c.0838-.488.2573-.9152.5206-1.2815s.6007-.6507,1.0129-.8524c.4119-.2024.8732-.3036,1.3845-.3036.7705,0,1.3485.2235,1.7338.6693.3852.4464.5169,1.0356.3949,1.7682l-.1717,1.1213h-3.845l-.0916.5265c-.1527.9536.2173,1.4305,1.1098,1.4305.7171,0,1.175-.2477,1.3734-.7438h1.2247c-.1679.5339-.5035.9599-1.007,1.2759-.5038.3166-1.0912.475-1.7626.475ZM361.2306,770.2157l-.0456.2862,2.6548-.0118.0459-.2856c.0686-.4656.0133-.822-.1661-1.0704-.1791-.2477-.4861-.3719-.9211-.3719-.4427,0-.7953.126-1.0586.3775-.2632.2521-.4331.6109-.5094,1.076ZM368.3258,774.301c-.6333,0-1.1027-.2117-1.4078-.6351s-.3967-1.0008-.2744-1.7335l.2744-1.7738c.1145-.7326.393-1.3119.8357-1.7397.4424-.4272.98-.6407,1.6133-.6407.4653,0,.8298.1186,1.093.3545.2632.2365.3908.5575.3834.9617h.023l.1717-1.202h1.2358l-.9956,6.2943h-1.2247l.1946-1.2014h-.023c-.122.4116-.3511.7339-.6867.9667s-.7401.3489-1.2129.3489ZM368.9324,773.2257c.389,0,.7152-.1186.9782-.3551.2632-.2359.4293-.5718.4979-1.007l.2518-1.6478c.0686-.4272.0096-.7612-.1773-1.0015-.1872-.2403-.475-.3601-.8642-.3601-.3967,0-.7249.118-.9841.3545-.2595.2365-.4234.5724-.492,1.007l-.2518,1.6478c-.0686.4427-.0133.7804.1658,1.0133.1794.2328.4712.3489.8757.3489ZM376.3477,774.1868c-.5721,0-.9937-.1565-1.2644-.4694-.271-.3123-.3607-.7512-.2691-1.3156l.538-3.3874h-1.7394l.1714-1.1219h1.7397l.2747-1.7161h1.2358l-.2747,1.7161h2.472l-.1832,1.1219h-2.4605l-.5377,3.3874c-.0764.4421.099.6637.5262.6637h1.7167l-.1717,1.1213h-1.7738ZM382.5042,774.301c-.7705,0-1.3463-.2229-1.7279-.6693s-.515-1.0356-.4005-1.7682l.2518-1.6478c.0838-.488.2573-.9152.5206-1.2815s.6007-.6507,1.0129-.8524c.4119-.2024.8732-.3036,1.3845-.3036.7705,0,1.3485.2235,1.7338.6693.3852.4464.5169,1.0356.3949,1.7682l-.1717,1.1213h-3.845l-.0916.5265c-.1527.9536.2173,1.4305,1.1098,1.4305.7171,0,1.175-.2477,1.3734-.7438h1.2247c-.1679.5339-.5035.9599-1.007,1.2759-.5038.3166-1.0912.475-1.7626.475ZM381.829,770.2157l-.0456.2862,2.6548-.0118.0459-.2856c.0686-.4656.0133-.822-.1661-1.0704-.1791-.2477-.4861-.3719-.9211-.3719-.4427,0-.7953.126-1.0586.3775-.2632.2521-.4331.6109-.5094,1.076ZM388.9243,774.301c-.6333,0-1.1008-.2117-1.4019-.6351-.3014-.4234-.3949-1.0008-.2803-1.7335l.2744-1.7738c.1145-.7326.393-1.3119.8357-1.7397.4424-.4272.98-.6407,1.6133-.6407.4653,0,.8298.1186,1.093.3545.2632.2365.3908.5575.3834.9617h.023l.2058-1.4652.2977-1.7962h1.2358l-1.3274,8.3537h-1.2247l.1946-1.2014h-.023c-.122.4116-.3511.7339-.6867.9667s-.7401.3489-1.2129.3489ZM389.5309,773.2257c.389,0,.7152-.1186.9782-.3551.2632-.2359.4293-.5718.4979-1.007l.2518-1.6478c.0761-.4272.0189-.7612-.1717-1.0015-.1909-.2403-.4805-.3601-.8698-.3601-.3967,0-.7249.118-.9841.3545-.2595.2365-.4234.5724-.492,1.007l-.2518,1.6478c-.0764.4427-.023.7804.1602,1.0133s.4768.3489.8813.3489ZM401.0175,774.301c-.4731,0-.8394-.1161-1.0986-.3489-.2595-.2328-.3852-.5551-.3775-.9667h-.0115l-.1946,1.2014h-1.2243l1.3274-8.3537h1.2358l-.2862,1.7962-.2744,1.4652h.0456c.122-.4123.353-.7345.6923-.9673.3396-.2322.7419-.3489,1.2076-.3489.633,0,1.1002.2136,1.4016.6407.3014.4278.3949,1.007.2806,1.7397l-.2747,1.7738c-.1145.7326-.3949,1.31-.8413,1.7335-.4461.4234-.9822.6351-1.6077.6351ZM400.7657,773.2257c.3967,0,.7227-.1161.9785-.3489.2555-.2328.4216-.5706.4976-1.0133l.2518-1.6478c.0689-.4346.0115-.7705-.1714-1.007-.1832-.2365-.4734-.3545-.8698-.3545-.3893,0-.7152.1198-.9785.3601s-.429.5743-.4979,1.0015l-.2518,1.6478c-.0686.4352-.0112.7711.1717,1.007.1832.2365.4731.3551.8698.3551ZM405.4694,776.2468l.1717-1.0642h1.934c.6407,0,1.007-.3017,1.0986-.9046l.1028-.6749.2061-1.1902h-.0345c-.122.4197-.3471.7438-.6752.9729-.3281.2285-.7286.3433-1.2014.3433-.6258,0-1.093-.2005-1.4019-.601s-.4104-.9443-.3033-1.631l.5836-3.6047h1.2358l-.5606,3.4793c-.0612.4116,0,.732.1832.9611s.4653.3433.8469.3433c.389,0,.7168-.1217.9841-.3663.267-.244.4309-.5836.492-1.0182l.538-3.3992h1.2358l-1.007,6.4086c-.0993.6029-.37,1.0778-.8124,1.4249-.4427.3471-.9996.5209-1.6707.5209h-1.9455ZM417.787,770.0853h3.221l.5368-1.8545h-5.4659l-1.7081,6.4419h2.1473l.5856-2.0985h3.0257l.4392-1.7081h-3.0257l.244-.7808ZM424.229,772.9158c-.5856,0-1.0249-.3904-1.0249-1.1225,0-.8784.6344-1.7569,1.6105-1.7569.488,0,.8784.244,1.0248.7808l1.9521-.8296c-.2928-1.1713-1.2689-1.9033-2.6353-1.9033-2.7817,0-4.1482,2.1473-4.1482,3.9042s1.2689,2.8305,3.0746,2.8305c1.3665,0,2.3425-.5856,2.9769-1.4153l-1.5129-1.1713c-.3904.4392-.8296.6832-1.3177.6832ZM430.9149,768.2308h-2.1473l-1.7569,6.4419h5.1242l.488-1.8545h-2.9281l1.2201-4.5874ZM439.7481,771.0125c0-1.6593-1.3177-2.9281-3.221-2.9281-2.1961,0-3.8066,1.8057-3.8066,3.8066,0,1.6593,1.3177,2.9281,3.221,2.9281,2.1961,0,3.8066-1.8057,3.8066-3.8066ZM434.9167,771.6957c0-.8296.5856-1.7081,1.5129-1.7081.7808,0,1.1713.5368,1.1713,1.2201,0,.8296-.5856,1.7081-1.5129,1.7081-.7808,0-1.1713-.5368-1.1713-1.2201ZM443.2131,772.2326h1.0737l-.1952.6832c-.1464.0488-.3416.0976-.5856.0976-.6832,0-1.2689-.3904-1.2689-1.2201,0-1.0249.732-1.9033,1.9521-1.9033.5856,0,1.1225.244,1.5129.5856l1.3665-1.3665c-.4392-.5368-1.5129-1.0737-2.7329-1.0737-2.5865,0-4.2946,1.7569-4.2946,3.8554,0,2.0497,1.6105,2.8793,3.221,2.8793.9272,0,1.8545-.2928,2.4889-.6832l.9272-3.3186h-3.1234l-.3416,1.4641ZM450.7775,768.0844c-2.1961,0-3.8066,1.8057-3.8066,3.8066,0,1.6593,1.3177,2.9281,3.221,2.9281,2.1961,0,3.8066-1.8057,3.8066-3.8066,0-1.6593-1.3177-2.9281-3.221-2.9281ZM450.3382,772.9158c-.7808,0-1.1713-.5368-1.1713-1.2201,0-.8296.5856-1.7081,1.5129-1.7081.7808,0,1.1713.5368,1.1713,1.2201,0,.8296-.5856,1.7081-1.5129,1.7081ZM437.9424,767.4987c-.0488.2928.0976.488.4392.488s.5368-.1952.6344-.488c.0488-.244-.0976-.488-.4392-.488s-.5856.244-.6344.488ZM432.1349,765.4978c-.4392,0-.732.244-.7808.5856s.0976.5856.5368.5856.732-.244.7808-.5856c.0976-.3416-.0976-.5856-.5368-.5856ZM433.0134,767.3035c-.0976.5368.1464.8784.8296.8784.6344,0,1.0737-.3904,1.1713-.8784s-.1464-.8784-.8296-.8784c-.6832,0-1.0737.3904-1.1713.8784ZM439.6017,777.552l-2.4401-1.8057h-1.5129l4.2458,3.1722,1.6105-3.1722h-.976l-.9272,1.8057ZM425.8394,767.1571l-2.0009-1.4641,23.1323-2.7817-2.1473,4.2458h1.0248l2.6841-5.3195-26.9877,3.221,2.7817,2.0985h1.5129ZM338.7186,785.7853l.6088-3.8315h2.32l-.084.5194h-1.7636l-.1837,1.1445h1.6272l-.084.5248h-1.6166l-.2573,1.6428h-.5668ZM342.97,785.8377c-.3568,0-.6228-.1005-.7978-.3019-.175-.201-.2345-.473-.1784-.8161l.2677-1.7006c.056-.3429.2029-.6148.4408-.8161.2379-.201.5355-.3019.8923-.3019s.6228.1.7979.2993c.1748.1993.2361.4707.1837.8136l-.2677,1.7057c-.0561.3431-.2039.6151-.4435.8161-.2398.2013-.5381.3019-.895.3019ZM343.0487,785.3339c.1925,0,.3483-.0524.4672-.1575.119-.1051.1942-.2571.2257-.4568l.2678-1.7006c.0315-.1993.0051-.3517-.0787-.4565-.084-.1051-.2223-.1575-.4148-.1575s-.3473.0524-.4645.1575c-.1173.1048-.1916.2571-.2231.4565l-.2677,1.7006c-.0315.1996-.0053.3517.0787.4568s.2204.1575.4094.1575ZM344.9961,785.7853l.6088-3.8315h1.202c.2379,0,.4391.0464.6036.139.1645.0928.2835.223.357.391s.091.3656.0524.5932c-.0384.2591-.14.4838-.3044.6746-.1645.1905-.3656.3209-.6036.391l.5354,1.6428h-.6194l-.4777-1.5748h-.5406l-.2466,1.5748h-.5668ZM345.8883,783.7068h.6352c.1889,0,.349-.0558.4803-.168.1313-.1119.2107-.2623.2388-.4514.0316-.1925,0-.3454-.0944-.4593-.0945-.1136-.2362-.1706-.4252-.1706h-.6352l-.1995,1.2493ZM349.545,785.7853l.6088-3.8315h1.2544c.3709,0,.6508.1048.8399.315.1889.2099.2553.4898.1993.8398-.0384.2344-.1216.4383-.2493.6114s-.2905.307-.4881.4015c-.1978.0945-.419.1418-.6639.1418h-.6928l-.2415,1.5221h-.5668ZM350.432,783.754h.6928c.1924,0,.3568-.0587.4934-.176.1364-.117.2204-.2737.2519-.4696s-.0017-.3525-.0997-.4699-.245-.1757-.441-.1757h-.6876l-.2099,1.2911ZM352.7466,785.7853l.6088-3.8315h2.2518l-.0787.5038h-1.6954l-.1731,1.0867h1.5115l-.0787.4986h-1.5115l-.1942,1.2387h1.6901l-.0787.5038h-2.2518ZM355.8434,785.7853l.6088-3.8315h1.202c.2379,0,.4391.0464.6036.139.1645.0928.2835.223.357.391s.091.3656.0524.5932c-.0384.2591-.14.4838-.3044.6746-.1645.1905-.3656.3209-.6036.391l.5354,1.6428h-.6194l-.4777-1.5748h-.5406l-.2466,1.5748h-.5668ZM356.7356,783.7068h.6352c.1889,0,.349-.0558.4803-.168.1313-.1119.2107-.2623.2388-.4514.0316-.1925,0-.3454-.0944-.4593-.0945-.1136-.2362-.1706-.4252-.1706h-.6352l-.1995,1.2493ZM360.1316,785.8377c-.385,0-.6736-.0951-.8661-.2859-.1924-.1908-.2641-.4505-.2151-.7794h.5668c-.028.1748.0105.3121.1155.4121.1051.0997.266.1495.483.1495.2029,0,.3701-.049.5012-.1469.1313-.098.2109-.2327.2389-.4044.0209-.1504.0007-.2788-.0604-.3856-.0614-.1068-.1583-.1811-.2913-.2233l-.4566-.1364c-.266-.0803-.4619-.217-.5879-.4095-.126-.1922-.1697-.4197-.1313-.6823.035-.2099.1121-.3935.2309-.551s.2729-.2799.4619-.3673.4024-.1313.6404-.1313c.3498,0,.6158.0954.7978.2859.182.1908.2485.4437.1995.7586h-.5668c.0279-.168-.0027-.3001-.092-.3964-.0891-.0963-.2301-.1444-.4225-.1444-.1889,0-.343.0447-.4619.1338-.119.0894-.1889.2144-.21.3753-.0245.1506-.007.2791.0525.3859s.1575.1811.2939.223l.4672.1469c.2624.0806.4558.2173.5801.4095.1242.1925.1653.4217.1233.6877-.035.217-.1155.4058-.2415.5667-.1259.1612-.2878.2862-.4855.3753-.1976.0894-.419.1338-.6639.1338ZM363.2651,785.8377c-.3568,0-.6228-.1005-.7978-.3019-.175-.201-.2345-.473-.1784-.8161l.2677-1.7006c.056-.3429.2029-.6148.4408-.8161.2379-.201.5355-.3019.8923-.3019s.6228.1.7979.2993c.1748.1993.2361.4707.1837.8136l-.2677,1.7057c-.0561.3431-.2039.6151-.4435.8161-.2398.2013-.5381.3019-.895.3019ZM363.3439,785.3339c.1925,0,.3483-.0524.4672-.1575.119-.1051.1942-.2571.2257-.4568l.2678-1.7006c.0315-.1993.0051-.3517-.0787-.4565-.084-.1051-.2223-.1575-.4148-.1575s-.3473.0524-.4645.1575c-.1173.1048-.1916.2571-.2231.4565l-.2677,1.7006c-.0315.1996-.0053.3517.0787.4568s.2204.1575.4094.1575ZM365.2754,785.7853l.6088-3.8315h.7086l.6194,3.186c.007-.098.0165-.217.0289-.3571.0121-.1398.0271-.2851.0446-.4354.0175-.1506.0367-.2888.0577-.4146l.315-1.9788h.525l-.609,3.8315h-.7085l-.6141-3.186c-.0071.0945-.0167.209-.0289.3437s-.0272.2757-.0446.4226c-.0177.1469-.0367.2833-.0578.4095l-.315,2.0102h-.5301ZM368.2252,785.7853l1.5851-3.8315h.7454l.3726,3.8315h-.5616l-.0735-.9711h-1.0865l-.3884.9711h-.5932ZM369.3852,784.3418h.8714l-.0893-1.1023c-.0175-.1959-.0298-.3654-.0367-.5089-.0071-.1435-.0105-.2432-.0105-.2993-.0175.0561-.0517.1558-.1024.2993s-.1146.3112-.1915.5038l-.441,1.1075ZM371.7208,785.7853l.6088-3.8315h.567l-.525,3.3118h1.6744l-.0787.5197h-2.2465ZM376.6785,785.8377c-.3673,0-.6342-.1005-.8003-.3019-.1663-.201-.2214-.475-.1654-.8213l.4357-2.7608h.567l-.4357,2.7554c-.0315.1962-.008.35.0708.4619.0787.1122.2144.168.4068.168.1925,0,.3473-.0558.4646-.168.1172-.1119.1915-.2657.2231-.4619l.4355-2.7554h.567l-.4357,2.7608c-.056.35-.2003.6245-.433.8241-.2328.1993-.5328.299-.9003.299ZM379.8435,785.8377c-.385,0-.6736-.0951-.8661-.2859-.1924-.1908-.2641-.4505-.2151-.7794h.5668c-.028.1748.0105.3121.1155.4121.1051.0997.266.1495.483.1495.2029,0,.3701-.049.5012-.1469.1313-.098.2109-.2327.2389-.4044.0209-.1504.0007-.2788-.0604-.3856-.0614-.1068-.1583-.1811-.2913-.2233l-.4566-.1364c-.266-.0803-.4619-.217-.5879-.4095-.126-.1922-.1697-.4197-.1313-.6823.035-.2099.1121-.3935.2309-.551s.2729-.2799.4619-.3673.4024-.1313.6404-.1313c.3498,0,.6158.0954.7978.2859.182.1908.2485.4437.1995.7586h-.5668c.0279-.168-.0027-.3001-.092-.3964-.0891-.0963-.2301-.1444-.4225-.1444-.1889,0-.343.0447-.4619.1338-.119.0894-.1889.2144-.21.3753-.0245.1506-.007.2791.0525.3859s.1575.1811.2939.223l.4672.1469c.2624.0806.4558.2173.5801.4095.1242.1925.1653.4217.1233.6877-.035.217-.1155.4058-.2415.5667-.1259.1612-.2878.2862-.4855.3753-.1976.0894-.419.1338-.6639.1338ZM381.9062,785.7853l.6088-3.8315h2.2518l-.0787.5038h-1.6954l-.1731,1.0867h1.5115l-.0787.4986h-1.5115l-.1942,1.2387h1.6901l-.0787.5038h-2.2518ZM386.9426,785.8377c-.3568,0-.6228-.1005-.7978-.3019-.175-.201-.2345-.473-.1784-.8161l.2677-1.7006c.056-.3429.2029-.6148.4408-.8161.2379-.201.5355-.3019.8923-.3019s.6228.1.7979.2993c.1748.1993.2361.4707.1837.8136l-.2677,1.7057c-.0561.3431-.2039.6151-.4435.8161-.2398.2013-.5381.3019-.895.3019ZM387.0213,785.3339c.1925,0,.3483-.0524.4672-.1575.119-.1051.1942-.2571.2257-.4568l.2678-1.7006c.0315-.1993.0051-.3517-.0787-.4565-.084-.1051-.2223-.1575-.4148-.1575s-.3473.0524-.4645.1575c-.1173.1048-.1916.2571-.2231.4565l-.2677,1.7006c-.0315.1996-.0053.3517.0787.4568s.2204.1575.4094.1575ZM388.9529,785.7853l.6088-3.8315h.7086l.6194,3.186c.007-.098.0165-.217.0289-.3571.0121-.1398.0271-.2851.0446-.4354.0175-.1506.0367-.2888.0577-.4146l.315-1.9788h.525l-.609,3.8315h-.7085l-.6141-3.186c-.0071.0945-.0167.209-.0289.3437s-.0272.2757-.0446.4226c-.0177.1469-.0367.2833-.0578.4095l-.315,2.0102h-.5301ZM392.249,785.7853l.6088-3.8315h.567l-.525,3.3118h1.6744l-.0787.5197h-2.2465ZM396.1174,785.7853l.2204-1.4119-.7506-2.4197h.5774l.4462,1.4486c.0279.0945.0498.1837.0656.2677.0157.084.0253.1469.0288.1888.0175-.0419.0464-.1048.0867-.1888.0402-.084.0883-.1731.1442-.2677l.8976-1.4486h.5984l-1.5275,2.4197-.2204,1.4119h-.5668ZM399.217,785.7853l.6088-3.8315h.7086l.6192,3.186c.0071-.098.0165-.217.029-.3571.012-.1398.0271-.2851.0444-.4354.0177-.1506.037-.2888.0578-.4146l.315-1.9788h.5248l-.6088,3.8315h-.7085l-.6141-3.186c-.0071.0945-.0167.209-.0289.3437s-.0272.2757-.0446.4226c-.0177.1469-.0367.2833-.0578.4095l-.315,2.0102h-.5301ZM403.5053,785.8377c-.3571,0-.6231-.1005-.7979-.3019-.1751-.201-.2344-.473-.1785-.8161l.2677-1.7006c.0561-.3429.203-.6148.4411-.8161.2378-.201.5354-.3019.8922-.3019.3571,0,.6228.1.7979.2993.1748.1993.2361.4707.1837.8136l-.2677,1.7057c-.0561.3431-.2039.6151-.4437.8161-.2395.2013-.5379.3019-.8947.3019ZM403.5839,785.3339c.1925,0,.3483-.0524.4673-.1575.1187-.1051.1942-.2571.2255-.4568l.2677-1.7006c.0316-.1993.0054-.3517-.0786-.4565-.084-.1051-.2224-.1575-.4146-.1575-.1925,0-.3474.0524-.4647.1575-.117.1048-.1914.2571-.223.4565l-.2677,1.7006c-.0316.1996-.0051.3517.0789.4568.0837.1051.2204.1575.4092.1575ZM406.3814,785.7853l.5248-3.3121h-1.0234l.084-.5194h2.6193l-.084.5194h-1.0289l-.5248,3.3121h-.567ZM409.5178,785.7853l.6088-3.8315h2.32l-.084.5194h-1.7636l-.1837,1.1445h1.6272l-.084.5248h-1.6166l-.2571,1.6428h-.567ZM413.7694,785.8377c-.3571,0-.6231-.1005-.7979-.3019-.1751-.201-.2344-.473-.1785-.8161l.2677-1.7006c.0561-.3429.203-.6148.4411-.8161.2378-.201.5354-.3019.8922-.3019.3571,0,.6228.1.7979.2993.1748.1993.2361.4707.1837.8136l-.2677,1.7057c-.0561.3431-.2039.6151-.4437.8161-.2395.2013-.5379.3019-.8947.3019ZM413.848,785.3339c.1925,0,.3483-.0524.4673-.1575.1187-.1051.1942-.2571.2255-.4568l.2677-1.7006c.0316-.1993.0054-.3517-.0786-.4565-.084-.1051-.2224-.1575-.4146-.1575-.1925,0-.3474.0524-.4647.1575-.117.1048-.1914.2571-.223.4565l-.2677,1.7006c-.0316.1996-.0051.3517.0789.4568.0837.1051.2204.1575.4092.1575ZM415.7952,785.7853l.6088-3.8315h1.202c.2381,0,.4391.0464.6037.139.1643.0928.2833.223.3568.391s.0911.3656.0527.5932c-.0387.2591-.1401.4838-.3044.6746-.1646.1905-.3659.3209-.6037.391l.5354,1.6428h-.6194l-.4776-1.5748h-.5408l-.2466,1.5748h-.567ZM416.6876,783.7068h.635c.1891,0,.3491-.0558.4804-.168.131-.1119.2107-.2623.2386-.4514.0316-.1925,0-.3454-.0945-.4593-.0943-.1136-.2361-.1706-.4252-.1706h-.635l-.1993,1.2493ZM420.905,785.8377c-.3602,0-.6308-.1005-.8107-.3019-.1803-.201-.2423-.473-.1865-.8161l.2677-1.7006c.0561-.3463.2056-.6194.4488-.8187s.545-.2993.9056-.2993c.3568,0,.6253.1008.8056.3019.1803.2013.2423.4733.1865.8161h-.567c.0313-.1993.0026-.3517-.0866-.4565-.0894-.1051-.2284-.1575-.4175-.1575-.1925,0-.3508.0524-.475.1575-.1242.1048-.2019.2554-.2335.4514l-.2677,1.7057c-.0316.1996-.0026.3517.0866.4568.0894.1051.2301.1575.4226.1575s.35-.0524.4724-.1575.1993-.2571.2309-.4568h.5667c-.0347.2275-.1145.4252-.2386.5932s-.2808.2976-.4699.3884c-.1888.0908-.4024.1364-.6404.1364ZM424.0335,785.8377c-.3571,0-.6231-.1005-.7979-.3019-.1751-.201-.2344-.473-.1785-.8161l.2677-1.7006c.0561-.3429.203-.6148.4411-.8161.2378-.201.5354-.3019.8922-.3019.3571,0,.6228.1.7979.2993.1748.1993.2361.4707.1837.8136l-.2677,1.7057c-.0561.3431-.2039.6151-.4437.8161-.2395.2013-.5379.3019-.8947.3019ZM424.1121,785.3339c.1925,0,.3483-.0524.4673-.1575.1187-.1051.1942-.2571.2255-.4568l.2677-1.7006c.0316-.1993.0054-.3517-.0786-.4565-.084-.1051-.2224-.1575-.4146-.1575-.1925,0-.3474.0524-.4647.1575-.117.1048-.1914.2571-.223.4565l-.2677,1.7006c-.0316.1996-.0051.3517.0789.4568.0837.1051.2204.1575.4092.1575ZM425.9653,785.7853l.6088-3.8315h.6874l.1837,1.2282c.0211.119.0367.2301.0473.3332.0105.1034.0194.1828.0262.2389.0177-.0561.0473-.1364.0894-.2415.0419-.1051.0908-.217.1469-.336l.5667-1.2228h.7088l-.6088,3.8315h-.5354l.2045-1.2911c.0245-.168.0578-.3525.1-.5539.0419-.201.0874-.4041.1364-.6088s.0963-.3998.1418-.5852c.0453-.1854.0874-.3483.1259-.4881l-.8554,1.8632h-.5513l-.2833-1.8632c-.0037.1364-.0105.2947-.0211.475s-.0236.3719-.0393.5747c-.0157.203-.035.4069-.0578.6114-.0228.2047-.0481.3964-.076.5749l-.2047,1.2911h-.5405ZM429.1145,785.7853l.6088-3.8315h.6874l.1837,1.2282c.0211.119.0367.2301.0473.3332.0105.1034.0194.1828.0262.2389.0177-.0561.0473-.1364.0894-.2415.0419-.1051.0908-.217.1469-.336l.5667-1.2228h.7088l-.6088,3.8315h-.5354l.2045-1.2911c.0245-.168.0578-.3525.1-.5539.0419-.201.0874-.4041.1364-.6088s.0963-.3998.1418-.5852c.0453-.1854.0874-.3483.1259-.4881l-.8554,1.8632h-.5513l-.2833-1.8632c-.0037.1364-.0105.2947-.0211.475s-.0236.3719-.0393.5747c-.0157.203-.035.4069-.0578.6114-.0228.2047-.0481.3964-.076.5749l-.2047,1.2911h-.5405ZM432.4107,785.7853l.6088-3.8315h2.2516l-.0786.5038h-1.6955l-.1731,1.0867h1.5115l-.0786.4986h-1.5118l-.1942,1.2387h1.6901l-.0786.5038h-2.2516ZM435.5073,785.7853l.6088-3.8315h1.202c.2381,0,.4391.0464.6037.139.1643.0928.2833.223.3568.391s.0911.3656.0527.5932c-.0387.2591-.1401.4838-.3044.6746-.1646.1905-.3659.3209-.6037.391l.5354,1.6428h-.6194l-.4776-1.5748h-.5408l-.2466,1.5748h-.567ZM436.3997,783.7068h.635c.1891,0,.3491-.0558.4804-.168.131-.1119.2107-.2623.2386-.4514.0316-.1925,0-.3454-.0945-.4593-.0943-.1136-.2361-.1706-.4252-.1706h-.635l-.1993,1.2493ZM439.8007,785.8377c-.3602,0-.6308-.1005-.8107-.3019-.1803-.201-.2423-.473-.1865-.8161l.2677-1.7006c.0561-.3463.2056-.6194.4488-.8187s.545-.2993.9056-.2993c.3568,0,.6253.1008.8056.3019.1803.2013.2423.4733.1865.8161h-.567c.0313-.1993.0026-.3517-.0866-.4565-.0894-.1051-.2284-.1575-.4175-.1575-.1925,0-.3508.0524-.475.1575-.1242.1048-.2019.2554-.2335.4514l-.2677,1.7057c-.0316.1996-.0026.3517.0866.4568.0894.1051.2301.1575.4226.1575s.35-.0524.4724-.1575.1993-.2571.2309-.4568h.5667c-.0347.2275-.1145.4252-.2386.5932s-.2808.2976-.4699.3884c-.1888.0908-.4024.1364-.6404.1364ZM441.8792,785.7853l.0789-.5038h.7768l.4459-2.824h-.7766l.0837-.5038h2.1258l-.084.5038h-.7766l-.4462,2.824h.7768l-.0789.5038h-2.1258ZM444.7399,785.7853l1.585-3.8315h.7452l.3728,3.8315h-.5616l-.0735-.9711h-1.0867l-.3884.9711h-.5929ZM445.8998,784.3418h.8714l-.0894-1.1023c-.0174-.1959-.0296-.3654-.0367-.5089-.0068-.1435-.0103-.2432-.0103-.2993-.0177.0561-.0518.1558-.1025.2993s-.1148.3112-.1916.5038l-.4408,1.1075ZM448.2354,785.7853l.6088-3.8315h.567l-.5248,3.3118h1.6741l-.0786.5197h-2.2465ZM453.1932,785.8377c-.3676,0-.6345-.1005-.8005-.3019-.1663-.201-.2213-.475-.1654-.8213l.4357-2.7608h.567l-.4357,2.7554c-.0316.1962-.008.35.0709.4619.0786.1122.2141.168.4066.168s.3474-.0558.4645-.168c.1173-.1119.1916-.2657.2233-.4619l.4357-2.7554h.5667l-.4357,2.7608c-.0558.35-.2002.6245-.4328.8241-.2329.1993-.5328.299-.9001.299ZM456.3581,785.8377c-.385,0-.6738-.0951-.866-.2859-.1925-.1908-.2643-.4505-.2153-.7794h.567c-.0282.1748.0105.3121.1153.4121.1051.0997.266.1495.483.1495.2028,0,.3699-.049.5012-.1469s.2107-.2327.2389-.4044c.0211-.1504.0009-.2788-.0604-.3856s-.1583-.1811-.2913-.2233l-.4568-.1364c-.266-.0803-.4619-.217-.5878-.4095-.1259-.1922-.1697-.4197-.1313-.6823.035-.2099.1119-.3935.2309-.551s.2731-.2799.4619-.3673c.1891-.0874.4024-.1313.6404-.1313.3497,0,.6157.0954.7979.2859.1817.1908.2483.4437.1993.7586h-.567c.0279-.168-.0026-.3001-.0917-.3964-.0894-.0963-.2301-.1444-.4226-.1444-.1891,0-.3429.0447-.4619.1338-.119.0894-.1891.2144-.2099.3753-.0245.1506-.0071.2791.0524.3859s.1575.1811.2939.223l.4673.1469c.2623.0806.4556.2173.5798.4095.1242.1925.1654.4217.1236.6877-.035.217-.1156.4058-.2415.5667-.1262.1612-.2879.2862-.4855.3753-.1979.0894-.4192.1338-.6641.1338ZM458.4209,785.7853l.6088-3.8315h2.2516l-.0786.5038h-1.6955l-.1731,1.0867h1.5115l-.0786.4986h-1.5118l-.1942,1.2387h1.6901l-.0786.5038h-2.2516Z" style="fill: #ccc;"/>
  <path d="M400,50c-193.302,0-349.9928,156.7005-349.9928,349.9976s156.6908,350.0024,349.9928,350.0024,349.9928-156.7053,349.9928-350.0048S593.2923,50,400,50ZM400,740.9852c-188.3186.0024-340.9779-152.6641-340.9779-340.9876S211.6814,59.0173,400,59.0173s340.9755,152.6665,340.9755,340.9779-152.6569,340.99-340.9755,340.99ZM620.4525,495.0425l-42.3295-43.8404,54.4601,22.3383c-4.2292,8.4702-6.3135,12.7836-12.1306,21.5021ZM542.042,505.3273c16.0537,18.8152,8.1762,25.4589-4.8291,33.9026l-38.5727-59.588c8.1882-3.7616,14.562-11.8318,25.4926,3.0941l17.9092,22.5913ZM162.6095,402.6459c-1.0988-3.6459-1.7471-6.3738-2.2507-10.0197l41.5752-11.2944c0-.1904,2.1374,4.9834,4.2266,8.7763,3.2074,6.9401-2.8748,9.6799-8.9642,12.4005l-15.2078,5.6749c-11.6993,4.2628-16.3622,4.4243-19.3791-5.5376ZM170.3327,478.302l58.6361-24.466-44.1102,47.6285c-5.8894-7.8003-10.1233-14.5332-14.5259-23.1624ZM400,68.8177c-182.9064,0-331.1775,148.2712-331.1775,331.1799s148.2687,331.1848,331.1775,331.1848,331.1775-148.2712,331.1775-331.1848S582.9064,68.8177,400,68.8177ZM675.5631,299.7645l-14.3451,14.979,7.8124,19.2538-18.5983-9.092-15.7862,13.4247,2.858-20.5888-17.5863-10.9571,20.3647-3.6387,4.9231-20.1984,9.7305,18.3525,20.6273-1.535ZM637.887,240.2729l15.3308-5.2002-7.9714,14.1596,9.6534,13.0584-15.8513-3.2484-9.3642,13.2729-1.829-16.1766-15.4392-4.8508,14.7259-6.7497-.1783-16.2705,10.9233,12.0053ZM611.7317,192.8276l10.7643-6.4847-3.7207,12.0535,9.4654,8.2967-12.5547.1638-4.9279,11.6125-4.0243-11.9474-12.5041-1.1254,10.0583-7.5473-2.8073-12.3065,10.2511,7.2847ZM571.7131,152.1826l9.2366,4.2797,7.6268-6.781-1.1856,10.1691,8.769,5.2051-9.9859,2.0073-2.2098,9.9908-4.9809-8.9281-10.1281.9687,6.9063-7.5184-4.0483-9.3931ZM400,99.6479c100.0571,0,181.1665,81.1093,181.1665,181.1689s-81.107,181.1568-181.1665,181.1568-181.1641-81.1022-181.1641-181.1568,81.1094-181.1689,181.1641-181.1689ZM211.3657,149.6813l7.6292,6.781,9.2437-4.2797-4.0484,9.3931,6.9039,7.5184-10.1305-.9687-4.981,8.9281-2.2097-9.9908-9.9812-2.0073,8.7667-5.2051-1.1928-10.1691ZM177.4438,186.343l10.7667,6.4847,10.2511-7.2847-2.8049,12.3065,10.0559,7.5473-12.5017,1.1254-4.0291,11.9474-4.9255-11.6125-12.5499-.1638,9.4582-8.2967-3.7206-12.0535ZM146.7293,235.0727l15.3308,5.2002,10.9233-12.0053-.1784,16.2705,14.7235,6.7497-15.4416,4.8508-1.8242,16.1766-9.3618-13.2729-15.8513,3.2484,9.6534-13.0584-7.9738-14.1596ZM145.0087,301.2996l9.7257-18.3525,4.9255,20.1984,20.3623,3.6387-17.5742,10.9571,2.8507,20.5888-15.7838-13.4247-18.5984,9.092,7.8172-19.2538-14.3476-14.979,20.6225,1.535ZM91.3415,379.9992l123.7184-21.9624c2.6434,6.9063,10.4751,21.9672,13.6873,26.9602,7.8991,12.1017,2.6676,25.871-12.0679,33.4182l-30.1796,15.3886c-14.3982,7.1738-41.6837,3.9833-46.8429-15.3356-2.3061-6.5882-3.3664-11.8005-4.9328-18.8538l-43.1512,12.027c-1.0217-15.6175-1.1566-18.3454-.2313-31.6423ZM133.8348,557.1752l32.4254-34.9894c-7.1449-10.7739-13.4728-19.9213-19.3213-33.6423l-37.5124,16.5187c-4.1737-10.8944-7.6967-22.9624-9.4317-31.3122l154.5028-54.66c4.7448,4.9472,10.6149,10.5306,16.4054,15.4392l-115.7325,154.363c-7.4075-9.6751-15.0488-21.1093-21.3358-31.717ZM159.3563,594.0346l131.2319-144.8301c-.494-.1205,11.8631,7.4846,17.7983,10.504l-101.3415,134.4176c10.6028,10.5185,14.615,13.8416,27.5337,23.5528l-18.367,31.2037c-19.2707-13.8657-44.5585-38.5028-56.8554-54.848ZM377.2665,708.9213c-11.639-.3157-29.594-3.0146-42.2885-6.0195l19.396-114.6337-48.7827,78.2828-1.2362-95.1967c-4.0387,12.0728-44.3657,104.3923-44.3657,104.7369-14.4343-7.3811-26.2348-14.7669-35.9099-21.5937l101.6596-186.8463c5.9689,2.4604,12.7548,4.6436,18.7984,6.4436l-11.145,96.2401c3.0363-6.9569,37.7389-90.1531,37.7389-90.5098,5.2942.8579,15.379,1.7712,19.8008,1.9591l-13.6656,227.1371ZM394.1203,709.7284l4.6821-227.7347c18.0513-.147,25.9842-1.1759,39.8016-3.6243l5.8388,21.5142c-7.9136,2.0121-16.897,3.5086-25.4782,3.7616l6.3521,54.9685c11.4656-1.3109,21.9576-3.0025,32.9026-6.1521l7.8124,28.9626c-11.7427,3.8267-20.7261,5.8123-37.2016,7.5714l9.0317,77.7816c15.9235-1.4315,31.9025-5.3352,48.2863-10.5884l10.1932,38.481c-30.6013,10.2004-66.7112,16.0031-102.2211,15.0584ZM509.9539,689.9734l-64.6798-212.9654c6.8774-1.629,11.386-2.858,17.8633-5.005l88.235,198.678c-11.9499,6.5376-26.6252,13.762-41.4186,19.2924ZM626.5612,611.1027l-67.0413-54.1468-7.8148,5.2894,50.0358,73.1789c-10.8632,9.5161-24.589,19.5093-37.0305,27.2108l-94.4931-193.1719c12.1355-4.446,22.4058-9.5112,32.6737-15.5886,13.0054-8.3763,23.8564.1205,34.7749,10.2004l27.618,25.6854c26.1697,24.348,21.4347,42.5054,15.6247,48.3538l68.6896,45.1224c-7.4413,10.2848-14.7669,19.2948-23.0371,27.8662ZM692.9519,500.0162l-36.804-16.0512c-5.6918,13.2078-8.7184,19.6683-15.6825,30.9651l32.3556,32.2905c-6.1015,10.8631-13.3861,22.5214-20.4852,32.2447l-118.2844-148.4832c5.4894-4.7641,10.2486-9.8173,14.8633-14.6609l153.6015,52.9564c-2.2314,10.292-5.4266,20.0586-9.5642,30.7386ZM665.8543,449.3611c-4.0796-1.7206-8.6196-3.7833-12.2583-5.3087,3.8845-9.4992,6.3039-16.2586,8.6076-25.071,6.0147,2.364,18.5309,8.2437,20.7672-2.8338,1.6675-8.9618.7735-12.4173-7.7618-15.2873-5.9642-1.229-12.174-5.6701-28.4879,7.4629-27.835,23.7576-40.9824,15.6705-58.5205,7.5714-20.143-8.9762-20.3141-22.0539-17.4947-29.1963,2.8194-7.1449,5.2388-12.0897,9.1232-17.3357,3.8749-5.2412,11.7451-9.1618,23.6733-7.2509,4.9279.8748,10.0245,1.7663,16.3428,2.8845-2.311,6.3087-4.6966,12.3884-7.3907,18.2224-10.6269-3.1303-13.2873-2.2098-15.8488,3.1857-3.364,7.034,2.3928,9.0582,8.3979,11.3354,11.2775,4.4773,13.3403.9976,25.7794-8.2244,24.2419-18.2345,35.8063-17.2827,53.1347-13.803,17.7645,3.1953,28.0252,15.5934,28.2903,29.5482,0,2.6219.8868,9.9619-2.0242,25.0445-4.8604,22.4564-25.7818,26.4927-44.3295,19.0562ZM399.9832,452.713c94.9268,0,171.8986-76.9574,171.8986-171.889s-76.9719-171.8986-171.8987-171.8986-171.8962,76.955-171.8962,171.8986,76.9622,171.889,171.8963,171.889ZM567.872,281.212c0,91.7363-73.5717,166.2719-164.9297,167.8599,87.1121-60.1446,136.9262-163.4646,134.4827-264.2904,19.1791,27.2854,30.4494,60.5398,30.447,96.4305ZM535.1116,181.5573c-40.9366-9.6583-90.1025-29.5916-133.1188-68.2173,54.5878.6458,102.9055,27.3337,133.1188,68.2173ZM400.0169,116.0895c7.5015,7.5617,55.4745,50.137,134.073,68.5594,1.1036,171.395-123.1545,254.8298-134.073,262.1217-10.9715-7.3859-135.3864-93.8617-133.861-262.1217,76.9767-17.8778,126.5353-61.0652,133.861-68.5594ZM397.9349,113.34c-44.7175,38.5317-93.428,58.9855-133.1211,68.2775,30.1964-40.9126,78.5237-67.6197,133.1211-68.2775ZM397.118,449.0719c-91.4013-1.535-165.0285-76.0875-165.0285-167.8575,0-35.9653,11.3186-69.28,30.5627-96.6064-2.3446,100.2451,49.3274,205.1795,134.4658,264.4639ZM400.0144,434.7822c78.6804-54.4818,126.3233-151.1267,123.3136-243.9016-36.8329-8.6655-84.4902-26.4782-123.3208-63.046-40.4065,36.4424-87.5988,54.7588-123.2701,63.0628-2.9085,92.1628,46.4694,190.2778,123.2774,243.8848ZM280.0095,198.5315h69.9839c.7989,1.338,1.26,2.9278,1.26,4.8098v4.964h-70.933c-.1566-3.2218-.2554-6.4846-.3109-9.7738ZM365.2106,189.6877c10.6775-13.8367,27.03-27.9987,44.8958-27.5313,77.596,2.0266,80.0371,110.6383,27.4181,132.1693-50.7708,20.3454-59.8796-44.5271-30.1097-42.0861,18.2682,1.494,13.0969,36.8136-9.0052,17.9116,2.0482,39.6715,69.9161,13.2656,41.4932-39.3221,16.3308-19.4442.9206-55.9324-26.9023-55.9927-24.895-.0578-33.946,23.1697-33.9388,36.2762v133.0223c.1301,16.0103,1.8169,34.4376,17.6634,46.0694-12.1089,2.5856-30.4061-4.9882-31.9941-27.9409-7.4509,4.1158-13.9331,5.6316-20.825-2.6989,3.5084-1.3427,5.8782-3.3384,7.4772-5.5882h.0003c.0008-.001.0014-.0021.0022-.0031.0378-.0532.0754-.1064.1123-.1598.0393-.0571.0798-.1131.1192-.1696.0021-.0085.0033-.0186.0054-.0271,2.5001-3.7472,2.961-8.1275,2.961-11.3806v-76.1911l-8.1642-7.5425,4.4068-4.3327h.0006l1.3976-1.3687h-.0061l2.3652-2.3254v-47.1682c0-9.4293-9.2582-14.0729-15.7139-13.8439,9.4365-10.0559,18.061-7.9763,26.3408.2241ZM433.1551,187.0254c-.142-.1462-.2879-.2897-.4327-.4342.0053.0053.011.0102.0163.0154.1319.1318.2654.2626.3952.3959.0072.0075.014.0155.0212.0229ZM391.2734,187.4274h42.2537c2.6762,2.8424,4.881,6.1572,6.5234,9.7257h-54.6992c1.4239-3.4685,3.3842-6.8177,5.9221-9.7257ZM392.5396,186.0586c4.8563-4.9116,11.5689-8.2437,20.3934-8.1208,7.5164.1037,14.1072,3.2742,19.2269,8.1208h-39.6203ZM384.8164,198.529h55.8366c1.2973,3.1449,2.1638,6.4499,2.5309,9.7739h-60.6215c.3066-3.1392,1.0458-6.4864,2.2539-9.7739ZM382.3912,220.7734h.0033v-1.3687h-.0031l.0008-7.9811c.0032-.5721.0281-1.159.0629-1.7519h60.8437c.2279,3.2989-.0254,6.5917-.8528,9.733h-60.0515v1.3687h59.6335c-1.143,3.5617-3.0317,6.8924-5.7718,9.7715h-53.8659l.0009-9.7715ZM417.6211,276.4093h18.0412c-10.3752,11.8967-28.1407,13.5524-32.5681.6218,6.2479,3.6436,11.2466,2.6121,14.527-.6218ZM436.7952,275.0407h-17.9797c1.9926-2.6583,3.0989-6.2533,3.1482-9.9233h19.9343c-1.1419,3.7768-2.9185,7.1013-5.1027,9.9233ZM442.2788,263.7414h-20.3493c-.2044-3.4665-1.3664-6.8996-3.6264-9.5763h.0109c-.0212-.0247-.0467-.0455-.0681-.0702-.0001-.0001-.0003-.0003-.0003-.0004.0215.0248.0471.0457.0685.0706h24.9643c.1142,3.4352-.2524,6.6339-.9995,9.5763ZM441.3462,243.0176h.0017c1.0503,3.4326,1.6411,6.6946,1.8547,9.7787h-26.2164c.021.0189.0383.042.0592.061h0c-.0209-.019-.0381-.0421-.0592-.061h-.012c-2.2092-1.9765-5.1905-3.3416-9.0293-3.6748-5.4636-.3854-9.8549,1.0547-13.1627,3.6748h-12.3926v1.3687h10.8759c-2.5179,2.5437-4.2478,5.8653-5.1791,9.5763h-5.6994l.003-31.8182h.0043s54.1974,0,54.1974,0c1.8363,3.3646,3.2584,6.608,4.3065,9.7184h-58.5087v1.376h58.9566ZM382.387,265.1173h5.3947c-.6109,3.1524-.6708,6.5339-.1767,9.9233h-5.2189l.0009-9.9233ZM382.3859,276.4093h5.4486c.635,3.341,1.8108,6.6542,3.532,9.7281h-8.9815l.0009-9.7281ZM382.3849,287.5086h9.7969c2.4413,3.8787,5.7984,7.292,10.0812,9.7763h-19.8791l.0009-9.7763ZM347.5332,352.9228c-.0992.1128-.1963.2278-.2987.3369-.0024.0026-.005.0048-.0075.0074.1125-.1201.2198-.2468.3286-.3715-.0077.0088-.0148.0185-.0224.0273ZM349.9691,198.489c.0033.0054.0062.0111.0094.0166-.0528-.0898-.1143-.1725-.1703-.2596.0528.0817.1104.1591.1608.243ZM280.3903,209.674h70.8631v9.733h-70.1908c-.2771-3.2098-.5037-6.4532-.6723-9.733ZM281.1734,220.7757h70.0799v9.7715h-69.0341c-.3952-3.2146-.7446-6.4774-1.0458-9.7715ZM282.3928,231.9256h68.8606v9.7208h-67.4437c-.5229-3.1977-.9976-6.4388-1.4169-9.7208ZM284.041,243.0224h67.2124v6.2027l-3.6578,3.576h-61.74c-.6578-3.2146-1.2602-6.475-1.8145-9.7787ZM288.6532,265.1197h60.135l-1.4579-1.376h-59.0241c-.7639-3.1423-1.4916-6.3376-2.1663-9.5739h60.0557l-4.4293,4.3303,5.565,5.2412h-.0009l1.4579,1.376h.0039l2.4588,2.3157v7.6123h-59.9254c-.9374-3.2628-1.8338-6.5617-2.6724-9.9257ZM291.7256,276.4142h59.5254v9.7257h-56.4674c-1.0651-3.1881-2.0893-6.4292-3.058-9.7257ZM295.2439,287.511h56.0071v9.7787h-52.4841c-1.2193-3.2026-2.3928-6.4581-3.523-9.7787ZM299.297,298.6584h51.9539v9.7257h-47.99c-1.3639-3.176-2.6892-6.4243-3.964-9.7257ZM303.8587,309.7601h47.3923v9.7642h-42.915c-1.5374-3.1808-3.029-6.4364-4.4773-9.7642ZM309.001,320.9003h42.25v9.7257h-37.2907c-1.694-3.1688-3.3495-6.4051-4.9592-9.7257ZM314.6952,332.0044h36.5558v9.1474c.0009.1216-.0095.2318-.0102.3519h-31.1742c-1.8217-3.0869-3.6122-6.2581-5.3713-9.4992ZM320.881,342.8796h30.3197c-.2438,4.2315-1.5073,7.4089-3.4065,9.7257h-20.8575c-2.0459-3.1495-4.0653-6.393-6.0557-9.7257ZM327.8307,353.9764h18.676c-2.3174,2.1047-5.2776,3.2548-8.4177,3.6628,1.535,2.465,3.159,4.4768,4.841,6.1135h-.0215c.1574.1559.3177.3001.4772.4475.0186.0172.0367.0371.0552.0542-.1782-.1635-.3568-.3253-.5324-.4993h-8.3666c-2.2507-3.1519-4.4942-6.4123-6.7111-9.7787ZM335.5227,365.1238h8.916c-.2787-.2279-.5562-.4665-.832-.7139.0078.007.0157.0126.0235.0196.268.2398.5378.4705.8085.6919h.0216c5.4902,4.4774,11.5355,4.9986,17.3671,2.5471.4492,2.5126,1.1715,4.9138,2.1229,7.1762h-21.1068c-2.4387-3.111-4.8822-6.3473-7.3208-9.7209ZM343.9278,376.2207h20.6298c-.2037-.4406-.4048-.891-.597-1.3526,1.8191,4.3169,4.4835,8.12,7.7482,11.1817-.0185-.0173-.0386-.0329-.057-.0503h-19.6297c-2.6676-3.099-5.3809-6.3593-8.0943-9.7787ZM400.0771,430.1603c-1.7832-1.1205-6.4436-4.364-12.9475-9.6968h25.8107c-6.5641,5.3472-11.2173,8.5763-12.8632,9.6968ZM414.6079,419.0899h-29.141c-3.2845-2.7519-6.9906-5.9978-10.986-9.7257h51.2214c-4.0411,3.7279-7.7786,6.9713-11.0944,9.7257ZM427.1867,407.9883h-54.1709c-3.0604-2.8965-6.2774-6.0726-9.6052-9.5258h73.4778c-3.3688,3.4532-6.6195,6.6292-9.7016,9.5258ZM438.2039,397.0962h-76.1116c-2.8965-3.0387-5.8629-6.2798-8.8702-9.7208h19.9863c-.0398-.0334-.0776-.0701-.1174-.1037.0241.0201.0495.0383.0737.0584.0165.0139.0321.0291.0486.0429h.0057c8.2688,6.8173,19.7693,9.1628,31.0076,3.8966-2.2475-1.1866-4.2669-2.4885-6.0913-3.8941h49.0159c-3.0459,3.4435-6.0292,6.6846-8.9473,9.7208ZM448.3513,385.9994h-51.9075c-3.3071-2.8697-5.8689-6.144-7.8504-9.7787h67.91c-2.7399,3.4218-5.4604,6.6822-8.1521,9.7787ZM457.5855,374.8447h-69.7066c-1.4853-3.0113-2.601-6.2575-3.4237-9.7209h80.5041c-2.4483,3.3761-4.911,6.6099-7.3738,9.7209ZM465.9496,363.7552h-81.805c-.6581-3.0975-1.0978-6.3623-1.3754-9.7787h89.8939c-2.2097,3.3665-4.458,6.6292-6.7135,9.7787ZM473.5668,352.6053h-90.8998c0-.0008-.0001-.0016-.0002-.0024h-.0023c-.2122-3.1213-.299-6.3647-.2975-9.7233h97.2698c-2.0025,3.3327-4.0243,6.5762-6.0701,9.7257ZM480.4394,341.5037h-98.0651c.0021-.2992.0023-.5956.0057-.8964l.0008-8.6028h103.4275c-1.7543,3.2484-3.5399,6.4172-5.3689,9.4992ZM486.5481,330.6261h-104.1672l.0009-9.7257h109.1111c-1.6025,3.3207-3.2556,6.5569-4.9448,9.7257ZM492.1508,319.5244h-109.7659v-.0024h-.003l.0009-9.7618h114.2283c-1.441,3.3279-2.9303,6.5834-4.4604,9.7642ZM497.1967,308.3842h-114.8119v-.0024h-.0018l.0009-9.7281h22.5446c7.5848,3.4147,17.6333,4.0997,30.1983.0048h66.0124c-1.2651,3.299-2.5832,6.5497-3.9424,9.7257ZM501.6668,297.2898h-62.764c-.5037.1904-.9904.4024-1.494.588-.2503.092-.4921.1659-.7399.2526.2497-.0877.4932-.1637.7448-.2551.2328-.0846.456-.184.6867-.2717.2684-.1079.5368-.2142.8097-.3186h-.0043c5.8357-2.3335,11.0209-5.6635,15.5288-9.7739h50.7119c-1.1157,3.3206-2.2772,6.5762-3.4797,9.7787ZM505.6092,286.1399h-49.7178c2.9765-2.9189,5.6306-6.191,7.9719-9.7306h.0004c-.0011.0016-.0021.0032-.0032.0048h44.7657c-.9542,3.2965-1.9639,6.5376-3.017,9.7257ZM509.0238,275.0454h-44.2603c.001-.0016.0021-.0031.0031-.0048h-.0055c1.957-3.1264,3.6702-6.4521,5.1411-9.9258h.0043c.0156-.0374.0302-.0755.0457-.113.0072-.0171.0153-.0336.0225-.0508-.0231.056-.0449.1128-.0682.1686h41.7583c-.829,3.364-1.7133,6.6629-2.641,9.9257ZM511.9998,263.7438h-41.5366c-.1396.3445-.2785.6904-.4188,1.0351.0408-.0977.0773-.1978.1177-.2957.0998-.2486.2007-.4966.3011-.7443h-.0049c1.2389-3.0929,2.2944-6.292,3.1498-9.5739h.0046c.0124-.0499.0245-.1001.0368-.1501.0043-.0169.0095-.0335.0138-.0504-.0167.0684-.0336.137-.0506.2053h40.5221c-.6603,3.2363-1.376,6.4316-2.1351,9.5739ZM514.4144,252.8012h-40.4643c-.0582.2255-.1116.4496-.1662.6742.0298-.1187.0557-.2389.0851-.3577.0263-.1072.0515-.2139.0786-.3213h-.0022c.7773-3.2013,1.3741-6.4696,1.7857-9.7787h.0069c.0124-.1112.0251-.2244.0383-.3359-.0133.1131-.0256.2279-.0382.3406h40.4595c-.5446,3.3014-1.1398,6.5641-1.7832,9.7787ZM516.4121,241.6464h-40.5179c.0002-.0016.0004-.0031.0006-.0048h-.0002c.3492-3.2156.5204-6.4627.5214-9.7161h41.3842c-.4169,3.282-.8699,6.5231-1.388,9.7208ZM517.9592,230.5472h-41.5415v-.0048h-.0054c-.0489-3.2646-.2742-6.5295-.6786-9.7691h.0041c.0001.0008.0002.0016.0003.0024h43.226c-.2771,3.2941-.6217,6.5569-1.0049,9.7715ZM519.0868,219.407h-43.5365c-.0001-.0008-.0002-.0016-.0003-.0024h-.0054c-.4625-3.2851-1.1031-6.5393-1.9382-9.733h.0056c.0002.0008.0004.0016.0006.0024h46.1103c-.1615,3.2821-.3759,6.5232-.6362,9.733ZM519.7881,208.3053h-46.5507c-.0002-.0008-.0004-.0016-.0006-.0024h-.0079c-.9349-3.3403-2.0732-6.6099-3.4264-9.7739h.0066c.0004.0008.0007.0016.0011.0025h50.2551c-.041,3.2893-.1301,6.5521-.2771,9.7738ZM520.0917,193.3119c0,1.2892,0,2.5664-.012,3.8435h-50.8806c-.0004-.0008-.0007-.0016-.0011-.0025h-.0058c-1.5277-3.3833-3.294-6.6415-5.317-9.7257h.003c.0005.0008.0011.0016.0016.0024h34.8255c6.8172,2.1567,13.9476,4.1423,21.3864,5.8822ZM494.4738,186.061h-31.525c-.0006-.0008-.0011-.0016-.0016-.0024h-.0057c-2.432-3.5153-5.1876-6.801-8.2963-9.7739h.0026c.0008.0008.0018.0016.0026.0024h14.4512c7.8582,3.4483,16.3212,6.7618,25.3721,9.7739ZM466.0173,174.9112h-12.8679c-.0009-.0008-.0018-.0016-.0026-.0024h-.0128c-4.3238-3.8646-9.2674-7.155-14.8392-9.7209h8.2517c5.9689,3.2652,12.4656,6.5473,19.4707,9.7233ZM400.0145,132.3432c1.5446,1.5952,5.1134,4.8941,10.5522,9.2269h-21.372c5.6315-4.3375,9.316-7.6437,10.8197-9.2269ZM387.3922,142.9388h24.9263c3.7447,2.9038,8.2726,6.2148,13.5355,9.7306h-52.3226c5.3665-3.5158,10.0076-6.8196,13.8608-9.7306ZM371.4109,154.0356h56.518c4.8075,3.1519,10.1932,6.4509,16.1428,9.7811h-8.9859c.0185.0072.0356.0158.0541.0231-.0191-.0075-.0373-.0156-.0565-.0231h-.002c-7.317-2.8782-15.6249-4.566-24.975-4.711-6.5851-.2023-13.3252,1.6919-19.619,4.7086h-.018c-.0016.0008-.0031.0016-.0047.0024h-35.3823c5.9665-3.3302,11.4294-6.6292,16.3284-9.7811ZM352.5908,165.1879h35.1918c.0016-.0008.0031-.0016.0047-.0024h.0078c-5.087,2.7471-9.8084,6.1666-13.8199,9.7233h-.0028c-.0009.0008-.0018.0016-.0027.0025h-40.8327c6.9497-3.1688,13.4463-6.4533,19.4538-9.7233ZM330.0791,176.2872h42.3852c-3.1162,2.9194-5.7355,5.8802-7.6657,8.5883-9.5557-8.1052-19.4523-6.7052-27.2625,1.1855h-32.4628c8.8413-3.0049,17.1959-6.3111,25.0058-9.7738ZM300.9261,187.4298h35.3409c-1.3199,1.4983-2.5748,3.1818-3.7469,5.0484,5.9779-.3641,12.9463.7601,16.4594,4.6773h-68.9892c-.012-1.2771-.0168-2.5543-.012-3.8435,7.2364-1.7278,14.2295-3.7134,20.9478-5.8822Z" style="fill: #006437;"/>
</svg>