<?xml version="1.0" encoding="utf-8"?>
<!-- Created by @FCLOGO 2024-10-21 GMT+8 20:57:49 . https://fclogo.top/ -->
<!-- FOR PERSONAL USE ONLY NOT FOR COMMERCIAL USE -->
<svg version="1.1" xmlns="http://www.w3.org/2000/svg" xmlns:xlink="http://www.w3.org/1999/xlink" x="0px" y="0px"
	 viewBox="0 0 800 800" style="enable-background:new 0 0 800 800;" xml:space="preserve">
<path style="fill:#CCCCCC;" d="M348.22,774.3c-0.79,0-1.38-0.22-1.77-0.65c-0.39-0.44-0.53-1.03-0.41-1.79l0.25-1.65
	c0.12-0.75,0.45-1.35,0.98-1.78c0.53-0.44,1.19-0.65,1.98-0.65c0.76,0,1.33,0.2,1.72,0.6c0.39,0.4,0.55,0.94,0.47,1.62h-1.24
	c0.03-0.36-0.06-0.64-0.26-0.84c-0.2-0.2-0.5-0.3-0.89-0.3c-0.42,0-0.76,0.12-1.03,0.35c-0.27,0.23-0.43,0.56-0.5,0.99l-0.26,1.66
	c-0.07,0.44-0.01,0.77,0.19,1c0.19,0.23,0.5,0.35,0.92,0.35c0.39,0,0.72-0.1,0.98-0.3c0.26-0.2,0.44-0.48,0.52-0.85h1.24
	c-0.14,0.69-0.47,1.23-0.99,1.63C349.61,774.1,348.97,774.3,348.22,774.3z M352.8,774.19l1-6.29h1.19l-0.19,1.19
	c0.34-0.87,0.97-1.3,1.91-1.3c0.67,0,1.17,0.21,1.49,0.62c0.32,0.42,0.43,0.99,0.31,1.71l-0.07,0.42h-1.27l0.06-0.32
	c0.07-0.45,0.01-0.8-0.17-1.04c-0.18-0.24-0.48-0.36-0.88-0.36c-0.4,0-0.74,0.12-1.01,0.37c-0.27,0.24-0.43,0.59-0.5,1.03
	l-0.63,3.97H352.8z M361.91,774.3c-0.77,0-1.35-0.22-1.73-0.67c-0.38-0.45-0.51-1.04-0.4-1.77l0.25-1.65
	c0.08-0.49,0.26-0.92,0.52-1.28c0.26-0.37,0.6-0.65,1.01-0.85c0.41-0.2,0.87-0.3,1.38-0.3c0.77,0,1.35,0.22,1.73,0.67
	c0.39,0.45,0.52,1.04,0.39,1.77l-0.17,1.12h-3.85l-0.09,0.53c-0.15,0.95,0.22,1.43,1.11,1.43c0.72,0,1.17-0.25,1.37-0.74h1.22
	c-0.17,0.53-0.5,0.96-1.01,1.28C363.16,774.14,362.58,774.3,361.91,774.3z M361.23,770.22l-0.05,0.29l2.65-0.01l0.05-0.29
	c0.07-0.47,0.01-0.82-0.17-1.07c-0.18-0.25-0.49-0.37-0.92-0.37c-0.44,0-0.8,0.13-1.06,0.38
	C361.48,769.39,361.31,769.75,361.23,770.22z M368.33,774.3c-0.63,0-1.1-0.21-1.41-0.64c-0.31-0.42-0.4-1-0.27-1.73l0.27-1.77
	c0.11-0.73,0.39-1.31,0.84-1.74c0.44-0.43,0.98-0.64,1.61-0.64c0.47,0,0.83,0.12,1.09,0.35c0.26,0.24,0.39,0.56,0.38,0.96h0.02
	l0.17-1.2h1.24l-1,6.29h-1.22l0.19-1.2h-0.02c-0.12,0.41-0.35,0.73-0.69,0.97C369.2,774.18,368.8,774.3,368.33,774.3z
	 M368.93,773.23c0.39,0,0.72-0.12,0.98-0.36c0.26-0.24,0.43-0.57,0.5-1.01l0.25-1.65c0.07-0.43,0.01-0.76-0.18-1
	c-0.19-0.24-0.47-0.36-0.86-0.36c-0.4,0-0.72,0.12-0.98,0.35c-0.26,0.24-0.42,0.57-0.49,1.01l-0.25,1.65
	c-0.07,0.44-0.01,0.78,0.17,1.01C368.24,773.11,368.53,773.23,368.93,773.23z M376.35,774.19c-0.57,0-0.99-0.16-1.26-0.47
	c-0.27-0.31-0.36-0.75-0.27-1.32l0.54-3.39h-1.74l0.17-1.12h1.74l0.27-1.72h1.24l-0.27,1.72h2.47l-0.18,1.12h-2.46l-0.54,3.39
	c-0.08,0.44,0.1,0.66,0.53,0.66h1.72l-0.17,1.12H376.35z M382.5,774.3c-0.77,0-1.35-0.22-1.73-0.67c-0.38-0.45-0.52-1.04-0.4-1.77
	l0.25-1.65c0.08-0.49,0.26-0.92,0.52-1.28c0.26-0.37,0.6-0.65,1.01-0.85c0.41-0.2,0.87-0.3,1.38-0.3c0.77,0,1.35,0.22,1.73,0.67
	c0.39,0.45,0.52,1.04,0.39,1.77l-0.17,1.12h-3.85l-0.09,0.53c-0.15,0.95,0.22,1.43,1.11,1.43c0.72,0,1.17-0.25,1.37-0.74h1.22
	c-0.17,0.53-0.5,0.96-1.01,1.28C383.76,774.14,383.18,774.3,382.5,774.3z M381.83,770.22l-0.05,0.29l2.65-0.01l0.05-0.29
	c0.07-0.47,0.01-0.82-0.17-1.07c-0.18-0.25-0.49-0.37-0.92-0.37c-0.44,0-0.8,0.13-1.06,0.38
	C382.08,769.39,381.91,769.75,381.83,770.22z M388.92,774.3c-0.63,0-1.1-0.21-1.4-0.64c-0.3-0.42-0.39-1-0.28-1.73l0.27-1.77
	c0.11-0.73,0.39-1.31,0.84-1.74c0.44-0.43,0.98-0.64,1.61-0.64c0.47,0,0.83,0.12,1.09,0.35c0.26,0.24,0.39,0.56,0.38,0.96h0.02
	l0.21-1.47l0.3-1.8h1.24l-1.33,8.35h-1.22l0.19-1.2h-0.02c-0.12,0.41-0.35,0.73-0.69,0.97C389.8,774.18,389.4,774.3,388.92,774.3z
	 M389.53,773.23c0.39,0,0.72-0.12,0.98-0.36c0.26-0.24,0.43-0.57,0.5-1.01l0.25-1.65c0.08-0.43,0.02-0.76-0.17-1
	c-0.19-0.24-0.48-0.36-0.87-0.36c-0.4,0-0.72,0.12-0.98,0.35c-0.26,0.24-0.42,0.57-0.49,1.01l-0.25,1.65
	c-0.08,0.44-0.02,0.78,0.16,1.01C388.83,773.11,389.13,773.23,389.53,773.23z M401.02,774.3c-0.47,0-0.84-0.12-1.1-0.35
	c-0.26-0.23-0.39-0.56-0.38-0.97h-0.01l-0.19,1.2h-1.22l1.33-8.35h1.24l-0.29,1.8l-0.27,1.47h0.05c0.12-0.41,0.35-0.73,0.69-0.97
	c0.34-0.23,0.74-0.35,1.21-0.35c0.63,0,1.1,0.21,1.4,0.64c0.3,0.43,0.39,1.01,0.28,1.74l-0.27,1.77c-0.11,0.73-0.39,1.31-0.84,1.73
	C402.18,774.09,401.64,774.3,401.02,774.3z M400.77,773.23c0.4,0,0.72-0.12,0.98-0.35c0.26-0.23,0.42-0.57,0.5-1.01l0.25-1.65
	c0.07-0.43,0.01-0.77-0.17-1.01c-0.18-0.24-0.47-0.35-0.87-0.35c-0.39,0-0.72,0.12-0.98,0.36c-0.26,0.24-0.43,0.57-0.5,1l-0.25,1.65
	c-0.07,0.44-0.01,0.77,0.17,1.01C400.08,773.11,400.37,773.23,400.77,773.23z M405.47,776.25l0.17-1.06h1.93
	c0.64,0,1.01-0.3,1.1-0.9l0.1-0.67l0.21-1.19h-0.03c-0.12,0.42-0.35,0.74-0.68,0.97c-0.33,0.23-0.73,0.34-1.2,0.34
	c-0.63,0-1.09-0.2-1.4-0.6c-0.31-0.4-0.41-0.94-0.3-1.63l0.58-3.6h1.24l-0.56,3.48c-0.06,0.41,0,0.73,0.18,0.96
	c0.18,0.23,0.47,0.34,0.85,0.34c0.39,0,0.72-0.12,0.98-0.37c0.27-0.24,0.43-0.58,0.49-1.02l0.54-3.4h1.24l-1.01,6.41
	c-0.1,0.6-0.37,1.08-0.81,1.42c-0.44,0.35-1,0.52-1.67,0.52H405.47z M417.79,770.09h3.22l0.54-1.85h-5.47l-1.71,6.44h2.15l0.59-2.1
	h3.03l0.44-1.71h-3.03L417.79,770.09z M424.23,772.92c-0.59,0-1.02-0.39-1.02-1.12c0-0.88,0.63-1.76,1.61-1.76
	c0.49,0,0.88,0.24,1.02,0.78l1.95-0.83c-0.29-1.17-1.27-1.9-2.64-1.9c-2.78,0-4.15,2.15-4.15,3.9c0,1.76,1.27,2.83,3.07,2.83
	c1.37,0,2.34-0.59,2.98-1.42l-1.51-1.17C425.16,772.67,424.72,772.92,424.23,772.92z M430.91,768.23h-2.15l-1.76,6.44h5.12
	l0.49-1.85h-2.93L430.91,768.23z M439.75,771.01c0-1.66-1.32-2.93-3.22-2.93c-2.2,0-3.81,1.81-3.81,3.81c0,1.66,1.32,2.93,3.22,2.93
	C438.14,774.82,439.75,773.01,439.75,771.01z M434.92,771.7c0-0.83,0.59-1.71,1.51-1.71c0.78,0,1.17,0.54,1.17,1.22
	c0,0.83-0.59,1.71-1.51,1.71C435.31,772.92,434.92,772.38,434.92,771.7z M443.21,772.23h1.07l-0.2,0.68
	c-0.15,0.05-0.34,0.1-0.59,0.1c-0.68,0-1.27-0.39-1.27-1.22c0-1.02,0.73-1.9,1.95-1.9c0.59,0,1.12,0.24,1.51,0.59l1.37-1.37
	c-0.44-0.54-1.51-1.07-2.73-1.07c-2.59,0-4.29,1.76-4.29,3.86c0,2.05,1.61,2.88,3.22,2.88c0.93,0,1.85-0.29,2.49-0.68l0.93-3.32
	h-3.12L443.21,772.23z M450.78,768.08c-2.2,0-3.81,1.81-3.81,3.81c0,1.66,1.32,2.93,3.22,2.93c2.2,0,3.81-1.81,3.81-3.81
	C454,769.35,452.68,768.08,450.78,768.08z M450.34,772.92c-0.78,0-1.17-0.54-1.17-1.22c0-0.83,0.59-1.71,1.51-1.71
	c0.78,0,1.17,0.54,1.17,1.22C451.85,772.04,451.27,772.92,450.34,772.92z M437.94,767.5c-0.05,0.29,0.1,0.49,0.44,0.49
	s0.54-0.2,0.63-0.49c0.05-0.24-0.1-0.49-0.44-0.49C438.24,767.01,437.99,767.25,437.94,767.5z M432.13,765.5
	c-0.44,0-0.73,0.24-0.78,0.59c-0.05,0.34,0.1,0.59,0.54,0.59s0.73-0.24,0.78-0.59C432.77,765.74,432.57,765.5,432.13,765.5z
	 M433.01,767.3c-0.1,0.54,0.15,0.88,0.83,0.88c0.63,0,1.07-0.39,1.17-0.88s-0.15-0.88-0.83-0.88
	C433.5,766.43,433.11,766.82,433.01,767.3z M439.6,777.55l-2.44-1.81h-1.51l4.25,3.17l1.61-3.17h-0.98L439.6,777.55z M425.84,767.16
	l-2-1.46l23.13-2.78l-2.15,4.25h1.02l2.68-5.32l-26.99,3.22l2.78,2.1H425.84z M338.72,785.79l0.61-3.83h2.32l-0.08,0.52h-1.76
	l-0.18,1.14h1.63l-0.08,0.52h-1.62l-0.26,1.64H338.72z M342.97,785.84c-0.36,0-0.62-0.1-0.8-0.3c-0.17-0.2-0.23-0.47-0.18-0.82
	l0.27-1.7c0.06-0.34,0.2-0.61,0.44-0.82c0.24-0.2,0.54-0.3,0.89-0.3c0.36,0,0.62,0.1,0.8,0.3c0.17,0.2,0.24,0.47,0.18,0.81
	l-0.27,1.71c-0.06,0.34-0.2,0.62-0.44,0.82C343.63,785.74,343.33,785.84,342.97,785.84z M343.05,785.33c0.19,0,0.35-0.05,0.47-0.16
	c0.12-0.11,0.19-0.26,0.23-0.46l0.27-1.7c0.03-0.2,0.01-0.35-0.08-0.46c-0.08-0.11-0.22-0.16-0.41-0.16s-0.35,0.05-0.46,0.16
	c-0.12,0.1-0.19,0.26-0.22,0.46l-0.27,1.7c-0.03,0.2-0.01,0.35,0.08,0.46C342.72,785.28,342.86,785.33,343.05,785.33z M345,785.79
	l0.61-3.83h1.2c0.24,0,0.44,0.05,0.6,0.14c0.16,0.09,0.28,0.22,0.36,0.39c0.07,0.17,0.09,0.37,0.05,0.59
	c-0.04,0.26-0.14,0.48-0.3,0.67c-0.16,0.19-0.37,0.32-0.6,0.39l0.54,1.64h-0.62l-0.48-1.57h-0.54l-0.25,1.57H345z M345.89,783.71
	h0.64c0.19,0,0.35-0.06,0.48-0.17c0.13-0.11,0.21-0.26,0.24-0.45c0.03-0.19,0-0.35-0.09-0.46c-0.09-0.11-0.24-0.17-0.43-0.17h-0.64
	L345.89,783.71z M349.54,785.79l0.61-3.83h1.25c0.37,0,0.65,0.1,0.84,0.31c0.19,0.21,0.26,0.49,0.2,0.84
	c-0.04,0.23-0.12,0.44-0.25,0.61s-0.29,0.31-0.49,0.4c-0.2,0.09-0.42,0.14-0.66,0.14h-0.69l-0.24,1.52H349.54z M350.43,783.75h0.69
	c0.19,0,0.36-0.06,0.49-0.18c0.14-0.12,0.22-0.27,0.25-0.47c0.03-0.2,0-0.35-0.1-0.47c-0.1-0.12-0.25-0.18-0.44-0.18h-0.69
	L350.43,783.75z M352.75,785.79l0.61-3.83h2.25l-0.08,0.5h-1.7l-0.17,1.09h1.51l-0.08,0.5h-1.51l-0.19,1.24h1.69l-0.08,0.5H352.75z
	 M355.84,785.79l0.61-3.83h1.2c0.24,0,0.44,0.05,0.6,0.14c0.16,0.09,0.28,0.22,0.36,0.39c0.07,0.17,0.09,0.37,0.05,0.59
	c-0.04,0.26-0.14,0.48-0.3,0.67c-0.16,0.19-0.37,0.32-0.6,0.39l0.54,1.64h-0.62l-0.48-1.57h-0.54l-0.25,1.57H355.84z M356.74,783.71
	h0.64c0.19,0,0.35-0.06,0.48-0.17c0.13-0.11,0.21-0.26,0.24-0.45c0.03-0.19,0-0.35-0.09-0.46c-0.09-0.11-0.24-0.17-0.43-0.17h-0.64
	L356.74,783.71z M360.13,785.84c-0.39,0-0.67-0.1-0.87-0.29c-0.19-0.19-0.26-0.45-0.22-0.78h0.57c-0.03,0.17,0.01,0.31,0.12,0.41
	c0.11,0.1,0.27,0.15,0.48,0.15c0.2,0,0.37-0.05,0.5-0.15c0.13-0.1,0.21-0.23,0.24-0.4c0.02-0.15,0-0.28-0.06-0.39
	c-0.06-0.11-0.16-0.18-0.29-0.22l-0.46-0.14c-0.27-0.08-0.46-0.22-0.59-0.41c-0.13-0.19-0.17-0.42-0.13-0.68
	c0.04-0.21,0.11-0.39,0.23-0.55c0.12-0.16,0.27-0.28,0.46-0.37c0.19-0.09,0.4-0.13,0.64-0.13c0.35,0,0.62,0.1,0.8,0.29
	c0.18,0.19,0.25,0.44,0.2,0.76h-0.57c0.03-0.17,0-0.3-0.09-0.4c-0.09-0.1-0.23-0.14-0.42-0.14c-0.19,0-0.34,0.04-0.46,0.13
	c-0.12,0.09-0.19,0.21-0.21,0.38c-0.02,0.15-0.01,0.28,0.05,0.39c0.06,0.11,0.16,0.18,0.29,0.22l0.47,0.15
	c0.26,0.08,0.46,0.22,0.58,0.41c0.12,0.19,0.17,0.42,0.12,0.69c-0.04,0.22-0.12,0.41-0.24,0.57c-0.13,0.16-0.29,0.29-0.49,0.38
	C360.6,785.79,360.38,785.84,360.13,785.84z M363.27,785.84c-0.36,0-0.62-0.1-0.8-0.3c-0.17-0.2-0.23-0.47-0.18-0.82l0.27-1.7
	c0.06-0.34,0.2-0.61,0.44-0.82c0.24-0.2,0.54-0.3,0.89-0.3c0.36,0,0.62,0.1,0.8,0.3c0.17,0.2,0.24,0.47,0.18,0.81l-0.27,1.71
	c-0.06,0.34-0.2,0.62-0.44,0.82C363.92,785.74,363.62,785.84,363.27,785.84z M363.34,785.33c0.19,0,0.35-0.05,0.47-0.16
	c0.12-0.11,0.19-0.26,0.23-0.46l0.27-1.7c0.03-0.2,0.01-0.35-0.08-0.46c-0.08-0.11-0.22-0.16-0.41-0.16c-0.19,0-0.35,0.05-0.46,0.16
	c-0.12,0.1-0.19,0.26-0.22,0.46l-0.27,1.7c-0.03,0.2-0.01,0.35,0.08,0.46C363.02,785.28,363.15,785.33,363.34,785.33z
	 M365.28,785.79l0.61-3.83h0.71l0.62,3.19c0.01-0.1,0.02-0.22,0.03-0.36c0.01-0.14,0.03-0.29,0.04-0.44
	c0.02-0.15,0.04-0.29,0.06-0.41l0.31-1.98h0.52l-0.61,3.83h-0.71l-0.61-3.19c-0.01,0.09-0.02,0.21-0.03,0.34s-0.03,0.28-0.04,0.42
	c-0.02,0.15-0.04,0.28-0.06,0.41l-0.31,2.01H365.28z M368.23,785.79l1.59-3.83h0.75l0.37,3.83h-0.56l-0.07-0.97h-1.09l-0.39,0.97
	H368.23z M369.39,784.34h0.87l-0.09-1.1c-0.02-0.2-0.03-0.37-0.04-0.51c-0.01-0.14-0.01-0.24-0.01-0.3c-0.02,0.06-0.05,0.16-0.1,0.3
	c-0.05,0.14-0.11,0.31-0.19,0.5L369.39,784.34z M371.72,785.79l0.61-3.83h0.57l-0.52,3.31h1.67l-0.08,0.52H371.72z M376.68,785.84
	c-0.37,0-0.63-0.1-0.8-0.3c-0.17-0.2-0.22-0.48-0.17-0.82l0.44-2.76h0.57l-0.44,2.76c-0.03,0.2-0.01,0.35,0.07,0.46
	c0.08,0.11,0.21,0.17,0.41,0.17c0.19,0,0.35-0.06,0.46-0.17c0.12-0.11,0.19-0.27,0.22-0.46l0.44-2.76h0.57l-0.44,2.76
	c-0.06,0.35-0.2,0.62-0.43,0.82C377.35,785.74,377.05,785.84,376.68,785.84z M379.84,785.84c-0.39,0-0.67-0.1-0.87-0.29
	c-0.19-0.19-0.26-0.45-0.22-0.78h0.57c-0.03,0.17,0.01,0.31,0.12,0.41c0.11,0.1,0.27,0.15,0.48,0.15c0.2,0,0.37-0.05,0.5-0.15
	c0.13-0.1,0.21-0.23,0.24-0.4c0.02-0.15,0-0.28-0.06-0.39c-0.06-0.11-0.16-0.18-0.29-0.22l-0.46-0.14
	c-0.27-0.08-0.46-0.22-0.59-0.41c-0.13-0.19-0.17-0.42-0.13-0.68c0.04-0.21,0.11-0.39,0.23-0.55s0.27-0.28,0.46-0.37
	c0.19-0.09,0.4-0.13,0.64-0.13c0.35,0,0.62,0.1,0.8,0.29c0.18,0.19,0.25,0.44,0.2,0.76h-0.57c0.03-0.17,0-0.3-0.09-0.4
	c-0.09-0.1-0.23-0.14-0.42-0.14c-0.19,0-0.34,0.04-0.46,0.13c-0.12,0.09-0.19,0.21-0.21,0.38c-0.02,0.15-0.01,0.28,0.05,0.39
	c0.06,0.11,0.16,0.18,0.29,0.22l0.47,0.15c0.26,0.08,0.46,0.22,0.58,0.41c0.12,0.19,0.17,0.42,0.12,0.69
	c-0.04,0.22-0.12,0.41-0.24,0.57c-0.13,0.16-0.29,0.29-0.49,0.38C380.31,785.79,380.09,785.84,379.84,785.84z M381.91,785.79
	l0.61-3.83h2.25l-0.08,0.5h-1.7l-0.17,1.09h1.51l-0.08,0.5h-1.51l-0.19,1.24h1.69l-0.08,0.5H381.91z M386.94,785.84
	c-0.36,0-0.62-0.1-0.8-0.3c-0.17-0.2-0.23-0.47-0.18-0.82l0.27-1.7c0.06-0.34,0.2-0.61,0.44-0.82c0.24-0.2,0.54-0.3,0.89-0.3
	c0.36,0,0.62,0.1,0.8,0.3c0.17,0.2,0.24,0.47,0.18,0.81l-0.27,1.71c-0.06,0.34-0.2,0.62-0.44,0.82
	C387.6,785.74,387.3,785.84,386.94,785.84z M387.02,785.33c0.19,0,0.35-0.05,0.47-0.16c0.12-0.11,0.19-0.26,0.23-0.46l0.27-1.7
	c0.03-0.2,0.01-0.35-0.08-0.46c-0.08-0.11-0.22-0.16-0.41-0.16c-0.19,0-0.35,0.05-0.46,0.16c-0.12,0.1-0.19,0.26-0.22,0.46
	l-0.27,1.7c-0.03,0.2-0.01,0.35,0.08,0.46C386.7,785.28,386.83,785.33,387.02,785.33z M388.95,785.79l0.61-3.83h0.71l0.62,3.19
	c0.01-0.1,0.02-0.22,0.03-0.36c0.01-0.14,0.03-0.29,0.04-0.44c0.02-0.15,0.04-0.29,0.06-0.41l0.31-1.98h0.52l-0.61,3.83h-0.71
	l-0.61-3.19c-0.01,0.09-0.02,0.21-0.03,0.34c-0.01,0.13-0.03,0.28-0.04,0.42c-0.02,0.15-0.04,0.28-0.06,0.41l-0.31,2.01H388.95z
	 M392.25,785.79l0.61-3.83h0.57l-0.52,3.31h1.67l-0.08,0.52H392.25z M396.12,785.79l0.22-1.41l-0.75-2.42h0.58l0.45,1.45
	c0.03,0.09,0.05,0.18,0.07,0.27c0.02,0.08,0.03,0.15,0.03,0.19c0.02-0.04,0.05-0.1,0.09-0.19c0.04-0.08,0.09-0.17,0.14-0.27
	l0.9-1.45h0.6l-1.53,2.42l-0.22,1.41H396.12z M399.22,785.79l0.61-3.83h0.71l0.62,3.19c0.01-0.1,0.02-0.22,0.03-0.36
	c0.01-0.14,0.03-0.29,0.04-0.44c0.02-0.15,0.04-0.29,0.06-0.41l0.31-1.98h0.52l-0.61,3.83h-0.71l-0.61-3.19
	c-0.01,0.09-0.02,0.21-0.03,0.34c-0.01,0.13-0.03,0.28-0.04,0.42c-0.02,0.15-0.04,0.28-0.06,0.41l-0.31,2.01H399.22z M403.51,785.84
	c-0.36,0-0.62-0.1-0.8-0.3c-0.18-0.2-0.23-0.47-0.18-0.82l0.27-1.7c0.06-0.34,0.2-0.61,0.44-0.82c0.24-0.2,0.54-0.3,0.89-0.3
	c0.36,0,0.62,0.1,0.8,0.3c0.17,0.2,0.24,0.47,0.18,0.81l-0.27,1.71c-0.06,0.34-0.2,0.62-0.44,0.82
	C404.16,785.74,403.86,785.84,403.51,785.84z M403.58,785.33c0.19,0,0.35-0.05,0.47-0.16c0.12-0.11,0.19-0.26,0.23-0.46l0.27-1.7
	c0.03-0.2,0.01-0.35-0.08-0.46c-0.08-0.11-0.22-0.16-0.41-0.16c-0.19,0-0.35,0.05-0.46,0.16c-0.12,0.1-0.19,0.26-0.22,0.46
	l-0.27,1.7c-0.03,0.2-0.01,0.35,0.08,0.46C403.26,785.28,403.4,785.33,403.58,785.33z M406.38,785.79l0.52-3.31h-1.02l0.08-0.52
	h2.62l-0.08,0.52h-1.03l-0.52,3.31H406.38z M409.52,785.79l0.61-3.83h2.32l-0.08,0.52h-1.76l-0.18,1.14h1.63l-0.08,0.52h-1.62
	l-0.26,1.64H409.52z M413.77,785.84c-0.36,0-0.62-0.1-0.8-0.3c-0.18-0.2-0.23-0.47-0.18-0.82l0.27-1.7c0.06-0.34,0.2-0.61,0.44-0.82
	c0.24-0.2,0.54-0.3,0.89-0.3c0.36,0,0.62,0.1,0.8,0.3c0.17,0.2,0.24,0.47,0.18,0.81l-0.27,1.71c-0.06,0.34-0.2,0.62-0.44,0.82
	C414.42,785.74,414.13,785.84,413.77,785.84z M413.85,785.33c0.19,0,0.35-0.05,0.47-0.16c0.12-0.11,0.19-0.26,0.23-0.46l0.27-1.7
	c0.03-0.2,0.01-0.35-0.08-0.46c-0.08-0.11-0.22-0.16-0.41-0.16c-0.19,0-0.35,0.05-0.46,0.16c-0.12,0.1-0.19,0.26-0.22,0.46
	l-0.27,1.7c-0.03,0.2-0.01,0.35,0.08,0.46C413.52,785.28,413.66,785.33,413.85,785.33z M415.8,785.79l0.61-3.83h1.2
	c0.24,0,0.44,0.05,0.6,0.14c0.16,0.09,0.28,0.22,0.36,0.39c0.07,0.17,0.09,0.37,0.05,0.59c-0.04,0.26-0.14,0.48-0.3,0.67
	c-0.16,0.19-0.37,0.32-0.6,0.39l0.54,1.64h-0.62l-0.48-1.57h-0.54l-0.25,1.57H415.8z M416.69,783.71h0.64
	c0.19,0,0.35-0.06,0.48-0.17c0.13-0.11,0.21-0.26,0.24-0.45c0.03-0.19,0-0.35-0.09-0.46c-0.09-0.11-0.24-0.17-0.43-0.17h-0.64
	L416.69,783.71z M420.91,785.84c-0.36,0-0.63-0.1-0.81-0.3c-0.18-0.2-0.24-0.47-0.19-0.82l0.27-1.7c0.06-0.35,0.21-0.62,0.45-0.82
	s0.55-0.3,0.91-0.3c0.36,0,0.63,0.1,0.81,0.3c0.18,0.2,0.24,0.47,0.19,0.82h-0.57c0.03-0.2,0-0.35-0.09-0.46
	c-0.09-0.11-0.23-0.16-0.42-0.16c-0.19,0-0.35,0.05-0.48,0.16c-0.12,0.1-0.2,0.26-0.23,0.45l-0.27,1.71c-0.03,0.2,0,0.35,0.09,0.46
	c0.09,0.11,0.23,0.16,0.42,0.16c0.19,0,0.35-0.05,0.47-0.16c0.12-0.11,0.2-0.26,0.23-0.46h0.57c-0.03,0.23-0.11,0.43-0.24,0.59
	c-0.12,0.17-0.28,0.3-0.47,0.39C421.36,785.79,421.14,785.84,420.91,785.84z M424.03,785.84c-0.36,0-0.62-0.1-0.8-0.3
	c-0.18-0.2-0.23-0.47-0.18-0.82l0.27-1.7c0.06-0.34,0.2-0.61,0.44-0.82c0.24-0.2,0.54-0.3,0.89-0.3c0.36,0,0.62,0.1,0.8,0.3
	c0.17,0.2,0.24,0.47,0.18,0.81l-0.27,1.71c-0.06,0.34-0.2,0.62-0.44,0.82C424.69,785.74,424.39,785.84,424.03,785.84z
	 M424.11,785.33c0.19,0,0.35-0.05,0.47-0.16c0.12-0.11,0.19-0.26,0.23-0.46l0.27-1.7c0.03-0.2,0.01-0.35-0.08-0.46
	c-0.08-0.11-0.22-0.16-0.41-0.16c-0.19,0-0.35,0.05-0.46,0.16c-0.12,0.1-0.19,0.26-0.22,0.46l-0.27,1.7
	c-0.03,0.2-0.01,0.35,0.08,0.46C423.79,785.28,423.92,785.33,424.11,785.33z M425.97,785.79l0.61-3.83h0.69l0.18,1.23
	c0.02,0.12,0.04,0.23,0.05,0.33c0.01,0.1,0.02,0.18,0.03,0.24c0.02-0.06,0.05-0.14,0.09-0.24c0.04-0.11,0.09-0.22,0.15-0.34
	l0.57-1.22h0.71l-0.61,3.83h-0.54l0.2-1.29c0.02-0.17,0.06-0.35,0.1-0.55c0.04-0.2,0.09-0.4,0.14-0.61c0.05-0.2,0.1-0.4,0.14-0.59
	c0.05-0.19,0.09-0.35,0.13-0.49l-0.86,1.86h-0.55l-0.28-1.86c0,0.14-0.01,0.29-0.02,0.47c-0.01,0.18-0.02,0.37-0.04,0.57
	c-0.02,0.2-0.04,0.41-0.06,0.61c-0.02,0.2-0.05,0.4-0.08,0.57l-0.2,1.29H425.97z M429.11,785.79l0.61-3.83h0.69l0.18,1.23
	c0.02,0.12,0.04,0.23,0.05,0.33c0.01,0.1,0.02,0.18,0.03,0.24c0.02-0.06,0.05-0.14,0.09-0.24c0.04-0.11,0.09-0.22,0.15-0.34
	l0.57-1.22h0.71l-0.61,3.83h-0.54l0.2-1.29c0.02-0.17,0.06-0.35,0.1-0.55c0.04-0.2,0.09-0.4,0.14-0.61c0.05-0.2,0.1-0.4,0.14-0.59
	c0.05-0.19,0.09-0.35,0.13-0.49l-0.86,1.86h-0.55l-0.28-1.86c0,0.14-0.01,0.29-0.02,0.47c-0.01,0.18-0.02,0.37-0.04,0.57
	c-0.02,0.2-0.04,0.41-0.06,0.61c-0.02,0.2-0.05,0.4-0.08,0.57l-0.2,1.29H429.11z M432.41,785.79l0.61-3.83h2.25l-0.08,0.5h-1.7
	l-0.17,1.09h1.51l-0.08,0.5h-1.51l-0.19,1.24h1.69l-0.08,0.5H432.41z M435.51,785.79l0.61-3.83h1.2c0.24,0,0.44,0.05,0.6,0.14
	c0.16,0.09,0.28,0.22,0.36,0.39c0.07,0.17,0.09,0.37,0.05,0.59c-0.04,0.26-0.14,0.48-0.3,0.67c-0.16,0.19-0.37,0.32-0.6,0.39
	l0.54,1.64h-0.62l-0.48-1.57h-0.54l-0.25,1.57H435.51z M436.4,783.71h0.64c0.19,0,0.35-0.06,0.48-0.17
	c0.13-0.11,0.21-0.26,0.24-0.45c0.03-0.19,0-0.35-0.09-0.46c-0.09-0.11-0.24-0.17-0.43-0.17h-0.64L436.4,783.71z M439.8,785.84
	c-0.36,0-0.63-0.1-0.81-0.3c-0.18-0.2-0.24-0.47-0.19-0.82l0.27-1.7c0.06-0.35,0.21-0.62,0.45-0.82s0.55-0.3,0.91-0.3
	c0.36,0,0.63,0.1,0.81,0.3c0.18,0.2,0.24,0.47,0.19,0.82h-0.57c0.03-0.2,0-0.35-0.09-0.46c-0.09-0.11-0.23-0.16-0.42-0.16
	c-0.19,0-0.35,0.05-0.47,0.16c-0.12,0.1-0.2,0.26-0.23,0.45l-0.27,1.71c-0.03,0.2,0,0.35,0.09,0.46c0.09,0.11,0.23,0.16,0.42,0.16
	s0.35-0.05,0.47-0.16c0.12-0.11,0.2-0.26,0.23-0.46h0.57c-0.03,0.23-0.11,0.43-0.24,0.59c-0.12,0.17-0.28,0.3-0.47,0.39
	C440.25,785.79,440.04,785.84,439.8,785.84z M441.88,785.79l0.08-0.5h0.78l0.45-2.82h-0.78l0.08-0.5h2.13l-0.08,0.5h-0.78
	l-0.45,2.82h0.78l-0.08,0.5H441.88z M444.74,785.79l1.59-3.83h0.75l0.37,3.83h-0.56l-0.07-0.97h-1.09l-0.39,0.97H444.74z
	 M445.9,784.34h0.87l-0.09-1.1c-0.02-0.2-0.03-0.37-0.04-0.51c-0.01-0.14-0.01-0.24-0.01-0.3c-0.02,0.06-0.05,0.16-0.1,0.3
	c-0.05,0.14-0.11,0.31-0.19,0.5L445.9,784.34z M448.24,785.79l0.61-3.83h0.57l-0.52,3.31h1.67l-0.08,0.52H448.24z M453.19,785.84
	c-0.37,0-0.63-0.1-0.8-0.3c-0.17-0.2-0.22-0.48-0.17-0.82l0.44-2.76h0.57l-0.44,2.76c-0.03,0.2-0.01,0.35,0.07,0.46
	c0.08,0.11,0.21,0.17,0.41,0.17c0.19,0,0.35-0.06,0.46-0.17c0.12-0.11,0.19-0.27,0.22-0.46l0.44-2.76h0.57l-0.44,2.76
	c-0.06,0.35-0.2,0.62-0.43,0.82C453.86,785.74,453.56,785.84,453.19,785.84z M456.36,785.84c-0.39,0-0.67-0.1-0.87-0.29
	c-0.19-0.19-0.26-0.45-0.22-0.78h0.57c-0.03,0.17,0.01,0.31,0.12,0.41c0.11,0.1,0.27,0.15,0.48,0.15c0.2,0,0.37-0.05,0.5-0.15
	s0.21-0.23,0.24-0.4c0.02-0.15,0-0.28-0.06-0.39c-0.06-0.11-0.16-0.18-0.29-0.22l-0.46-0.14c-0.27-0.08-0.46-0.22-0.59-0.41
	c-0.13-0.19-0.17-0.42-0.13-0.68c0.04-0.21,0.11-0.39,0.23-0.55c0.12-0.16,0.27-0.28,0.46-0.37c0.19-0.09,0.4-0.13,0.64-0.13
	c0.35,0,0.62,0.1,0.8,0.29c0.18,0.19,0.25,0.44,0.2,0.76h-0.57c0.03-0.17,0-0.3-0.09-0.4c-0.09-0.1-0.23-0.14-0.42-0.14
	c-0.19,0-0.34,0.04-0.46,0.13c-0.12,0.09-0.19,0.21-0.21,0.38c-0.02,0.15-0.01,0.28,0.05,0.39c0.06,0.11,0.16,0.18,0.29,0.22
	l0.47,0.15c0.26,0.08,0.46,0.22,0.58,0.41c0.12,0.19,0.17,0.42,0.12,0.69c-0.04,0.22-0.12,0.41-0.24,0.57
	c-0.13,0.16-0.29,0.29-0.49,0.38C456.82,785.79,456.6,785.84,456.36,785.84z M458.42,785.79l0.61-3.83h2.25l-0.08,0.5h-1.7
	l-0.17,1.09h1.51l-0.08,0.5h-1.51l-0.19,1.24h1.69l-0.08,0.5H458.42z"/>
<path style="fill:#302E57;" d="M662.6,50H110.97v372.34c0,225.42,162.7,283.08,270.5,321.1l18.48,6.56l18.58-6.56
	c107.65-38.02,270.5-95.48,270.5-321.1V50H662.6z M675.74,422.34c0,95.83-29.61,168.21-90.47,221.41
	c-51.65,45.08-115.22,67.52-171.17,87.31l-14.18,5.01l-14.18-5.01c-55.96-19.78-119.52-42.23-171.17-87.31
	c-60.87-53.2-90.47-125.58-90.47-221.41V63.07h538.5h13.14V422.34z M300.17,542.31c2.58,2.19,5.83,3.44,9.22,3.56
	c1.95,0,4.61-0.65,4.61-3.26c0-5.61-13.37-4.46-13.37-15.03c0.01-2.6,1.21-5.06,3.26-6.66c2.24-1.53,4.91-2.31,7.61-2.2
	c2.52-0.01,5.01,0.45,7.36,1.35v5.46c-1.79-1.32-3.94-2.07-6.16-2.15c-1.7,0-3.81,0.8-3.81,2.96c0,2.15,2.55,3.11,4.16,3.81
	c2.1,0.85,4.06,2.01,5.81,3.46c2.09,1.73,3.29,4.3,3.26,7.01c0.06,2.9-1.23,5.66-3.51,7.46c-2.48,1.75-5.49,2.6-8.52,2.4
	c-2.9-0.02-5.77-0.59-8.47-1.65L300.17,542.31z M329.33,528.79c1.03,0.08,2.07-0.17,2.96-0.7l0,0v16.83c0,2.15,0,3.46,1.5,5.01l0,0
	h-10.62l0,0c1.65-1.5,1.55-2.81,1.55-5.01v-11.07c0-2.15,0-3.51-1.5-5.01l0,0L329.33,528.79z M324.32,523.78
	c-0.14-2.4,1.69-4.46,4.1-4.61c0.02,0,0.04,0,0.06,0c2.34,0.08,4.19,2.02,4.16,4.36c0.06,2.41-1.85,4.4-4.26,4.46
	c-0.02,0-0.03,0-0.05,0c-2.32-0.05-4.16-1.98-4.11-4.3c0-0.02,0-0.04,0-0.05L324.32,523.78z M344.81,530.54
	c1.29-1.66,3.31-2.58,5.41-2.45c2.35-0.14,4.63,0.82,6.16,2.6c1.29,1.91,1.83,4.23,1.5,6.51v7.61c0,2.2,0,3.56,1.5,5.01l0,0h-10.62
	l0,0c1.65-1.4,1.5-2.76,1.5-5.01v-7.76c0.11-1.02-0.1-2.06-0.6-2.96c-0.46-0.81-1.32-1.3-2.25-1.3c-0.8,0.01-1.54,0.4-2,1.05
	c-0.52,0.98-0.73,2.1-0.6,3.21v7.76c0,2.2,0,3.56,1.55,5.01l0,0h-10.67l0,0c1.65-1.4,1.55-2.76,1.55-5.01v-11.07
	c0-2.1,0-3.46-1.55-5.01l0,0h5.86c1.07,0,2.14-0.24,3.11-0.7l0,0L344.81,530.54z M379.02,533.95L379.02,533.95
	c-1.31-0.95-2.89-1.48-4.51-1.5c-1.29-0.01-2.51,0.58-3.31,1.6c-0.87,1.35-1.27,2.95-1.15,4.56c-0.06,2.08,0.6,4.11,1.85,5.76
	c1,1.12,2.46,1.72,3.96,1.65c2.13-0.08,4.17-0.85,5.81-2.2l0,0l-1.45,5.01c-2.32,1.2-4.9,1.81-7.51,1.8
	c-5.94,0.28-10.98-4.31-11.26-10.26c-0.01-0.22-0.01-0.44-0.01-0.66c-0.17-6.22,4.74-11.4,10.96-11.57c0.47-0.01,0.94,0,1.41,0.05
	c1.7,0,3.46,0.3,5.01,0.45L379.02,533.95z M390.89,535.55c0-1.85,1.3-3.36,3.21-3.36c1.9,0,2.96,1.55,2.96,3.36H390.89z
	 M404.72,543.97c-2.23,1.36-4.76,2.16-7.36,2.35c-3.51,0.07-6.41-2.73-6.48-6.24c0-0.21,0-0.42,0.02-0.62h13.63
	c0-7.06-3.46-11.27-10.42-11.27c-5.86-0.06-10.67,4.64-10.73,10.51c0,0.2,0,0.41,0.01,0.61c-0.18,3.46,1.29,6.81,3.96,9.02
	c2.59,1.7,5.67,2.51,8.77,2.3c2.38,0,4.73-0.49,6.91-1.45L404.72,543.97z M422.25,543.62c0,2.4,0,5.01,2.25,6.26l0,0h-12.62l0,0
	c2.55-1.65,2.65-3.66,2.65-6.46v-15.78l-4.36-1.2l0,0c4.65-1.14,8.82-3.71,11.92-7.36l0,0L422.25,543.62z M429.56,547.12
	c7.15-1.62,12-8.27,11.37-15.58c0-2.81-0.65-8.01-4.11-8.01s-3.46,3.66-3.46,5.96s0.9,6.31,4.06,6.31c0.63-0.01,1.25-0.16,1.8-0.45
	l0,0l-3.16,4.61h-1c-2.37,0.11-4.68-0.74-6.41-2.35c-2.03-2.02-3.14-4.8-3.06-7.66c-0.26-5.89,4.31-10.87,10.2-11.12
	c0.32-0.01,0.65-0.01,0.97,0c6.44-0.13,11.77,5,11.9,11.44c0.01,0.53-0.02,1.06-0.08,1.58c0.05,5.29-2.26,10.32-6.31,13.73
	c-3.77,3.37-8.62,5.25-13.68,5.31h-0.8L429.56,547.12z M455.01,547.12c7.12-1.66,11.94-8.3,11.32-15.58c0-2.81-0.65-8.01-4.11-8.01
	s-3.46,3.66-3.46,5.96s0.95,6.31,4.11,6.31c0.61,0,1.22-0.15,1.75-0.45l0,0l-3.21,4.61h-0.95c-2.38,0.1-4.7-0.75-6.46-2.35
	c-2.02-2.03-3.11-4.8-3.01-7.66c-0.26-5.89,4.31-10.87,10.2-11.12c0.32-0.01,0.65-0.01,0.97,0c6.42-0.13,11.72,4.97,11.85,11.38
	c0.01,0.55-0.02,1.1-0.08,1.64c0.08,5.29-2.24,10.34-6.31,13.73c-3.77,3.37-8.62,5.25-13.68,5.31h-0.75L455.01,547.12z
	 M488.12,545.07c-3.51,0-3.81-7.26-3.81-9.67c-0.13-2.63,0.16-5.27,0.85-7.81c0.5-1.4,1.55-3.26,3.16-3.26
	c3.66,0,3.71,7.06,3.71,9.62C492.03,536.5,491.73,545.07,488.12,545.07z M488.12,550.63c3.68-0.19,7.01-2.23,8.87-5.41
	c1.82-3.25,2.72-6.94,2.6-10.67c0.16-3.86-0.84-7.68-2.86-10.97c-1.85-2.92-5.06-4.68-8.52-4.66c-3.83,0.06-7.34,2.16-9.22,5.51
	c-1.65,3.22-2.49,6.8-2.45,10.42c-0.07,3.77,0.86,7.49,2.7,10.77c1.96,3.09,5.36,4.96,9.02,4.96L488.12,550.63z M256.59,270.06
	c4.24,5.8,6.41,12.86,6.16,20.04c0,0,0.7,25.05-25.05,26.35c0,0-12.12,1.25-15.03-15.03c-0.28-1.85-2.01-3.12-3.86-2.86
	c-4.92-0.13-9.76-1.2-14.28-3.16c0,0-2-1.3,0.5-1.65c6.53-2,10.3-8.83,8.52-15.43c0.03-4.73-3.78-8.59-8.52-8.62l0,0
	c-2.88-0.03-5.68,0.95-7.91,2.76c-5.11,3.2-11.76,2.41-15.98-1.9c0,0-2.65-2.35,0.55-1.85c0,0,9.72,0.5,9.72-8.52
	c0,0,0.6-6.66-8.32-7.01c-3.55-0.04-6.99,1.22-9.67,3.56c0,0-1.65,2.15-1.2-1.1c0.54-5.17,3.37-9.82,7.71-12.67
	c2.29-1.8,4.87-3.23,7.61-4.21c3.29-1.4,5.15-4.91,4.46-8.42c-0.62-4-4.23-6.85-8.27-6.51c-2.97-0.21-5.87,1-7.81,3.26
	c0,0-1.8,2.6-1.7-0.4c0.3-8.08,6.94-14.48,15.03-14.48c5.72,0.37,10.63,4.21,12.37,9.67c1.02-1.41,2.26-2.66,3.66-3.71
	c1.83-2.97,1.33-6.82-1.2-9.22c0,0-2.81-1.75,0-1.9c6.81-1.06,13.18,3.6,14.24,10.41c0.07,0.45,0.12,0.91,0.14,1.36
	c-0.21,4.67-2.39,9.02-6.01,11.97c-0.7,8.49,2.47,16.84,8.62,22.74c1.15,1.05,2.91,1.05,4.06,0c1.59-2.51,1.21-5.78-0.9-7.86
	c0,0-1.6-1.75,1.35-1.75c0,0,20.04,0,18.18,24.3c-0.33,3.47,2.21,6.55,5.68,6.89c0.48,0.05,0.96,0.04,1.44-0.03
	c0,0,3.16-0.25,3.26-4.41C254.14,270.86,254.14,267.1,256.59,270.06z M442.04,400.3c6.66-9.02,11.12-7.66,11.12-7.66
	c3.21,0.7,3.81,6.81,3.81,6.81c-0.08,0.58,0.32,1.11,0.89,1.19c0.15,0.02,0.31,0.01,0.46-0.04c8.07-3.01,13.53-17.48,13.53-17.48
	c0.7-1.4,3.01-1.25,3.01-1.25c7.31,1.12,14.39-3.07,16.93-10.02c0.7-1.8-1.65-1-1.65-1c-17.48,4.36-17.48-13.78-17.48-13.78
	c0.3-14.28,11.27-15.03,11.27-15.03c3.23-0.19,6.42,0.77,9.02,2.71c2.35,1.9,1.85-1.85,1.85-1.85
	c-1.35-21.69-35.07-21.49-35.07-21.49c-58.61,1.35-74.49,24.04-74.49,24.04c-1.35,2.15,1,1.3,1,1.3
	c10.47-2.86,12.62,10.72,12.62,10.72c0.8,11.12-7.71,10.42-7.71,10.42c-8.06,0.55-14.63-9.32-14.63-9.32
	c-2.31-3.22-6.06-5.09-10.02-5.01c-7.84,0.71-14.67,5.62-17.83,12.82c-0.85,2.45,1.65,0.95,1.65,0.95c5.01-3.86,8.06-2.65,8.06-2.65
	c1.21,0.5,1.92,1.76,1.7,3.06c-0.97,2.6-3.23,4.5-5.96,5.01c-6.69,1.56-12.12,6.44-14.38,12.92c-0.55,2.25,0.95,1.55,0.95,1.55
	c2.87-2.51,7-2.99,10.37-1.2c6.06,5.01,1.55,9.37,1.55,9.37c-2.71,2.15-8.06,0.7-8.06,0.7c-2.1-0.7-0.65,1.45-0.65,1.45
	c2.7,4.35,7.24,7.23,12.32,7.81c7.65,0.81,15.02-3.17,18.53-10.02c2.35-4.21,4.71-2.91,4.71-2.91c2.6,1.15,1.25,5.61,1.25,5.61
	c-0.55,1.55,0.55,1.45,0.55,1.45c5.36,0,8.27-6.61,8.27-6.61c0.83-1.71,2.81-2.53,4.61-1.9c3.51,1.7,1.1,6.81,1.1,6.81
	c-0.95,2,0.7,1.45,0.7,1.45c4.34-1.55,7.68-5.09,8.97-9.52c2.65-6.81,6.36-6.46,6.36-6.46c4.46,0,5.01,5.36,5.01,5.36
	c0,5.86-4.01,6.06-4.01,6.06c-3.96,0-1.8,1.8-1.8,1.8c9.72,7.06,20.64-7.31,20.64-7.31c1.96-2.43,5.52-2.82,7.96-0.86
	c0.32,0.25,0.6,0.54,0.86,0.86c2.25,2.2,0,9.47,0,9.47s-0.6,1.9,0,2.5C439.98,401,440.89,401.55,442.04,400.3z M615.31,267.95
	c-6.71-4.36-6.61-9.07-6.61-9.07c-0.9-12.12,8.52-11.42,8.52-11.42c9.57,1,10.62,12.32,10.62,12.32c0,2.2,2.2,0.65,2.2,0.65
	c4.56-5.16,5.04-12.75,1.15-18.43c-7.16-10.47-26.8-6.16-26.8-6.16l-1.35-1.9c0.59-3.01,2.58-5.56,5.36-6.86
	c4.21-1.29,8.78-0.17,11.92,2.91c3.11,2.71,2.55-1.3,2.55-1.3c-1.29-10.18-10.58-17.4-20.77-16.11c-1.82,0.23-3.6,0.73-5.28,1.48
	c-8.92,3.21-8.57,15.48-8.57,15.48c-10.68-6.9-23.01-10.79-35.72-11.27c-20.72,0.09-40.75,7.41-56.66,20.69
	c-6.26-2.48-12.13-5.86-17.43-10.02c-8.78-6.53-18.1-12.31-27.85-17.28c-22.7-9.88-48.41-10.24-71.38-1
	c-33.51,14.63-27.1,44.18-27.1,44.18c7.31,36.27,47.24,32.56,47.24,32.56c23.2-0.87,45.94-6.78,66.62-17.33
	c10.2,9.22,23.47,14.29,37.22,14.23c0,0,26.4,0.8,39.47-16.48c0,0,2.4-2.71-1.3-1.75c0,0-38.92,11.77-57.96-4.06
	c6.71-3.51,11.92-6.56,11.92-6.56l0,0c6.4,3.05,13.25,5.07,20.29,5.96c51.5,7.36,60.11-14.28,60.11-14.28c2-2.86-2-1.2-2-1.2
	c-20.53,3.84-41.64,3.35-61.97-1.45c38.97-26.9,68.48-4.46,68.48-4.46c14.43,9.72,9.37,30.06,9.37,30.06
	c-6.36,28.55-68.13,21.19-68.13,21.19c-38.62-3.41-95.93,1.65-95.93,1.65c-14.81,1.22-29.68,1.62-44.53,1.2
	c-26.2-2.45-33.81-16.63-33.81-16.63c-2.61-5.57-2.2-12.09,1.1-17.28c1.05-1.3-0.45-1.45-0.45-1.45c-5.76-0.46-10.06-5.51-9.6-11.27
	c0.06-0.76,0.21-1.52,0.43-2.25c0.65-3.36,7.51-10.02,7.51-10.02c2.15-1.95,0-2.2,0-2.2c-4.35-0.79-8.35-2.93-11.42-6.11
	c-5.91-6.41-3.96-17.73-3.96-17.73c10.32-5.91,10.02-13.02,10.02-13.02c0-2.6-1.95-0.4-1.95-0.4l-3.11,2.5
	c-2.1,1.75-6.61,0.5-6.61,0.5c-3.46-0.96-6.81-2.25-10.02-3.86c-8.89-3.65-18.86-3.65-27.75,0c-4.39,1.94-9.39,1.94-13.78,0
	l-2.1-1.1c-2.35-1.35-0.9,1.55-0.9,1.55c3.81,8.17,7.71,9.07,7.71,9.07c1.12,11.01-5.44,21.36-15.88,25.05c-2.45,0.65,0,1.95,0,1.95
	c3.54,3.28,5.39,8.01,5.01,12.82c0.43,5.2-2.24,10.16-6.81,12.67c-1.25,0.4,0,1.75,0,1.75c8.42,11.27,6.56,28.55,6.56,28.55
	c-3.56,21.84-17.48,29.55-17.48,29.55c-11.52,7.96-21.67,17.74-30.06,28.95c-2.62,2.66-6.31,3.97-10.02,3.56
	c-2.5-0.45-3.51-3.41-3.51-3.41c-0.28-6.89-3.35-13.37-8.52-17.93c-7.19-4.87-16.33-5.87-24.4-2.65c-2.3,1.2,0.4,1.45,0.4,1.45
	c8.92-0.5,10.02,4.71,10.02,4.71c1.33,4.61,1.54,9.47,0.6,14.18c-8.36-2.02-16.78,3.12-18.8,11.48c-0.31,1.27-0.45,2.58-0.43,3.89
	c-0.16,5.02,1.63,9.91,5.01,13.63c2.35,2.1,2.15-0.85,2.15-0.85c-0.23-2.56,0.28-5.13,1.45-7.41c2.1-2.65,5.4-4.07,8.77-3.76
	c5.61,0.4,6.56,3.26,6.56,3.26c1.4,3.61-1.05,4.46-1.05,4.46c-4.52,2.5-7.61,6.97-8.37,12.07c-0.25,4.7,1.43,9.3,4.66,12.72
	c4.21,3.26,2.71-0.95,2.71-0.95c-0.65-13.58,15.78-12.77,15.78-12.77c7.06,0,4.71,3.71,4.71,3.71c-2.36,1.44-4.98,2.41-7.71,2.86
	c-2.35,0.35,0,2,0,2c3,3.07,7.08,4.87,11.37,5.01c9.57,0,16.98-14.23,16.98-14.23c1.34-2.42,4.39-3.29,6.81-1.95
	c0.14,0.08,0.27,0.16,0.4,0.25c2.34,1.35,3.51,4.09,2.86,6.71c-0.35,13.58,7.36,18.13,7.36,18.13c3.21,2.5,2.71-0.7,2.71-0.7
	c-0.01-3.51,2.54-6.49,6.01-7.01c6.36-1.05,8.06,6.71,8.06,6.71c1.7,3.01,2.5-0.35,2.5-0.35c10.77-18.63,15.03-15.58,15.03-15.58
	c3.36,0.5,3.01,6.51,3.01,6.51c0.55,2.86,2.55,0,2.55,0c9.24-14.59,19.94-28.22,31.91-40.68c8.67-8.67,14.58-8.01,14.58-8.01
	c6.06,0.45,8.97,10.47,8.97,10.47c0.9,2.4,3.21,0.5,3.21,0.5c33.51-25.93,74.86-39.66,117.22-38.92
	c32.56,1.3,41.43,14.23,41.43,14.23c10.42,14.13,3.01,31.76,3.01,31.76c-4.91,8.6-5.6,18.98-1.85,28.15
	c9.42,19.69,26.55,18.83,26.55,18.83c5.01,0,1.7-2.05,1.7-2.05c-11.77-7.86-8.92-23.49-8.92-23.49c0.55-8.01,10.02-8.01,10.02-8.01
	c2.15,0.22,4.31,0.22,6.46,0c12.67,0,28.8-9.42,28.8-9.42c4.37-1.92,9.1-2.91,13.88-2.91c11.52,0.3,11.37,7.66,11.37,7.66
	c-0.02,2.66-1.12,5.19-3.06,7.01c-1.46,1.31-3.71,1.19-5.02-0.28c-0.15-0.16-0.27-0.34-0.39-0.52c-1.95-2.81-5.2-4.44-8.62-4.31
	c-6.05,0.14-11.31,4.2-12.97,10.02c-0.85,3.46,0.5,2.3,0.5,2.3c3.66-2.96,5.91-2,5.91-2c2.65,0.85,0,2.1,0,2.1
	C563.64,392,569,406.18,569,406.18c2.45,5.01,2.71,0.65,2.71,0.65c-0.17-1.56,0.6-3.07,1.95-3.86c2.68-0.97,5.68-0.12,7.46,2.1
	c2.78,3.59,2.59,8.65-0.45,12.02c-2.4,2.65,0,3.06,0,3.06c7.07,0.31,13.93-2.47,18.78-7.61c3.14-5.27,5.12-11.14,5.81-17.23
	c0.75-2.5,2.25-0.65,2.25-0.65c2.3,2.81,0.65,8.62,0.65,8.62c0,1.75,1.65,0.35,1.65,0.35c4.99-4.13,6.41-11.19,3.41-16.93
	c-0.77-1.75-0.28-3.8,1.2-5.01c5.78-3.32,9.31-9.51,9.22-16.18c-0.3-1.05-1.95,0-1.95,0c-8.47,4.71-11.07-3.11-11.07-3.11
	c-1.35-4.16,1.45-5.51,1.45-5.51c9.56-4.95,14.88-15.46,13.22-26.1c-0.5-3.06-2.15,0-2.15,0c-9.02,12.57-25.05-0.65-25.05-0.65
	c2.55-16.43-10.87-16.98-10.87-16.98c-2.71-0.3-1.1,1.65-1.1,1.65c2.11,2.04,3.18,4.94,2.91,7.86c-0.35,7.11-10.02,6.01-10.02,6.01
	c-21.94,0-27.45-22.59-27.45-22.59c37.42,3.81,51.3-9.17,51.3-9.17c8.27-7.51,13.78-6.41,13.78-6.41c5.07-0.19,9.77,2.65,11.97,7.21
	c1.3,1.75,1.9,0,1.9,0C633.79,285.36,627.23,272.54,615.31,267.95z M397.05,272.46c-27.4,0.95-30.36-20.54-30.36-20.54
	c-1.29-7.08,1.31-14.3,6.81-18.94c1.1,4.41,5.26,13.53,20.34,13.78c4.69-0.11,9.2-1.79,12.82-4.76c0,0,1.75-1.5-0.55-1.5
	c0,0-16.58-0.3-16.03-12.17c-0.13-2.55,1.24-4.94,3.51-6.11c1.79-0.59,3.62-1.09,5.46-1.5c2.2-0.5,4.36-0.85,6.56-1.15
	c1.62,6.51,7.23,11.26,13.93,11.77c2.38,0.1,4.75-0.36,6.91-1.35c0,0,1.6-1.15-0.6-1.55c-3.27-0.45-5.75-3.17-5.91-6.46
	c0,0-0.85-2.6,3.91-2.5h0.45c3.01,0.45,23.14,4.71,15.63,20.54c0,0-2.1,3.01-0.5,2.55c1.8-0.23,3.61,0.29,5.01,1.45
	c4.84,4.78,9.03,10.17,12.47,16.03c-19.12,7.38-39.33,11.58-59.81,12.42h-0.05V272.46z M473.9,252.43
	c-5.05-5.62-9.58-11.69-13.53-18.13c6.66,5.19,13.68,9.91,20.99,14.13c-2.45,1.6-4.96,2.71-7.41,3.96L473.9,252.43z M320.76,213.85
	c-1.6,3.98-6.11,5.91-10.1,4.32c-0.13-0.05-0.25-0.1-0.37-0.16c0,0,1.75-5.81,10.52-4.21L320.76,213.85z M301.63,218.06
	c-4.04,1.44-8.48-0.67-9.92-4.71c-0.04-0.1-0.07-0.2-0.1-0.3c8.77-0.9,10.07,4.96,10.07,4.96L301.63,218.06z M316.1,255.03
	c-2.23,4.25-6.57,6.97-11.37,7.11c-4.48-0.34-8.44-3.05-10.37-7.11c-4.41-7.91-9.12-17.03-9.12-17.03c1.33,0.39,2.69,0.71,4.06,0.95
	c1.17,2.5,2.55,4.89,4.11,7.16c0,0,1,1.25,1.35-0.4c0.73-2.23,2.06-4.2,3.86-5.71c2.2,0,4.56,0,6.96,0h5.91
	c1.7,1.67,2.75,3.89,2.96,6.26c0.4,2.25,2,0.25,2,0.25c1.56-2.3,2.89-4.75,3.96-7.31c1.9-0.3,3.56-0.6,5.01-0.9
	C325.27,238.25,318.21,250.42,316.1,255.03z M188.72,143.32h-11.27l5.46-17.18l0,0L188.72,143.32z M191.47,151.44l2.71,8.42
	c0.46,1.04,0.68,2.17,0.65,3.31c0,2.27-1.3,4.34-3.36,5.31v0.3h25.05v-0.3c-3.48-3.25-5.91-7.48-6.96-12.12l-15.68-45.08h-20.04l0,0
	c1.83,1.03,3.02,2.91,3.16,5.01c-0.37,2.4-0.99,4.75-1.85,7.01l-11.42,35.07c-0.95,3.81-2.94,7.28-5.76,10.02v0.3h16.53v-0.3
	c-1.79-1.04-2.93-2.94-3.01-5.01c0.2-2.15,0.71-4.26,1.5-6.26l2-5.96L191.47,151.44z M260.3,123.34c-4.03-2.93-8.89-4.53-13.88-4.56
	c-11.37,0-14.58,9.62-14.58,20.04c0,12.02,5.56,21.84,17.88,21.84c6.37-0.3,12.56-2.27,17.93-5.71l-4.16,12.77
	c-5.37,1.47-10.92,2.18-16.48,2.1c-16.89,0.76-31.19-12.31-31.96-29.2c-0.39-8.6,2.87-16.97,8.96-23.05
	c6.51-5.33,14.73-8.11,23.14-7.81l12.52,1.15L260.3,123.34z M345.56,170.62c-3.53-0.49-6.93-1.67-10.02-3.46
	c-4.95-2.76-9.03-6.86-11.77-11.82L307.84,133l0,0v23.09c-0.68,4.48,0.66,9.03,3.66,12.42v0.3h-16.03v-0.3
	c3.07-3.36,4.45-7.93,3.76-12.42v-30.06c0.65-5.3-1.2-10.59-5.01-14.33l0,0h17.23l0,0l25.5,35.07v-22.64
	c0.69-4.51-0.65-9.09-3.66-12.52l0,0h15.93l0,0c-3.02,3.42-4.36,8.01-3.66,12.52V170.62z M381.12,143.32h-11.27l5.46-17.18l0,0
	L381.12,143.32z M383.88,151.44l2.71,8.47c0.48,1.04,0.71,2.17,0.7,3.31c-0.02,2.28-1.34,4.34-3.41,5.31v0.3h25.05v-0.3
	c-3.56-3.24-6.06-7.48-7.16-12.17l-15.68-45.08h-20.04l0,0c1.83,1.03,3.02,2.91,3.16,5.01c-0.37,2.4-0.99,4.75-1.85,7.01
	l-11.42,35.07c-0.95,3.8-2.93,7.26-5.71,10.02v0.3h16.98v-0.3c-1.79-1.04-2.93-2.94-3.01-5.01c0.2-2.15,0.71-4.26,1.5-6.26l2-5.96
	L383.88,151.44z M456.21,167.27c-5.74,1.72-11.69,2.63-17.68,2.71c-17.28,0-31.21-10.32-31.21-29.71
	c-0.72-16.14,11.79-29.81,27.93-30.52c0.98-0.04,1.95-0.04,2.93,0.02c4.35-0.02,8.69,0.57,12.87,1.75v12.12h-0.45
	c-3.39-2.93-7.7-4.56-12.17-4.61c-10.77,0-15.43,7.96-15.43,18.48s3.56,23.14,15.58,23.14c1.12,0.13,2.24,0.13,3.36,0v-12.97
	c0.56-3.19-0.65-6.43-3.16-8.47l0,0h17.43L456.21,167.27z M490.58,143.32h-11.27l5.51-17.18l0,0L490.58,143.32z M493.33,151.44
	l2.76,8.42c0.46,1.04,0.68,2.17,0.65,3.31c-0.02,2.28-1.34,4.34-3.41,5.31v0.3h25.05v-0.3c-3.55-3.24-6.03-7.49-7.11-12.17
	l-15.68-45.08h-20.54l0,0c1.83,1.03,3.02,2.91,3.16,5.01c-0.35,2.39-0.96,4.75-1.8,7.01l-11.47,35.07
	c-0.93,3.81-2.91,7.28-5.71,10.02v0.3h16.98v-0.3c-1.78-1.05-2.9-2.94-2.96-5.01c0.21-2.14,0.7-4.25,1.45-6.26l2-5.96L493.33,151.44
	z M571.13,170.62c-3.53-0.49-6.93-1.67-10.02-3.46c-4.94-2.78-9.01-6.87-11.77-11.82L533.41,133l0,0v23.09
	c-0.68,4.48,0.66,9.03,3.66,12.42v0.3h-15.98v-0.3c3.05-3.37,4.41-7.93,3.71-12.42v-30.06c0.68-5.3-1.18-10.6-5.01-14.33l0,0h17.28
	l0,0l25.45,35.07v-22.64c0.69-4.51-0.65-9.09-3.66-12.52l0,0h15.93l0,0c-3,3.43-4.34,8.01-3.66,12.52L571.13,170.62L571.13,170.62z
	 M594.82,137.56c0-9.02,4.36-18.89,14.13-18.89c11.37,0,15.03,14.23,15.03,24.19c0.28,4.29-0.79,8.57-3.06,12.22
	c-3.54,5.94-11.22,7.89-17.17,4.36c-2.25-1.34-4.03-3.35-5.07-5.76C596.24,148.66,594.92,143.16,594.82,137.56z M578.74,139.82
	c-0.68,15.92,11.68,29.38,27.6,30.06c0.82,0.03,1.64,0.03,2.46,0c16.83,0,31.21-11.12,31.21-30.06s-12.77-30.06-30.06-30.06
	c-16.33-0.89-30.28,11.63-31.17,27.95C578.74,138.42,578.73,139.12,578.74,139.82z M191.92,484.01c-0.82,5.42,0.82,10.93,4.46,15.03
	v0.3h-26.9v-0.3c5.01-3.31,4.26-9.37,4.26-15.03v-39.52c0-5.51,0.7-11.52-4.26-15.03v-0.3h23.79c6.14-0.52,12.32,0.34,18.08,2.5
	c6.09,3.25,9.81,9.68,9.57,16.58c0,15.03-12.12,20.94-24.7,20.94c-1.22,0.04-2.45-0.04-3.66-0.25c6.26-2.54,10.26-8.73,10.02-15.48
	c0-7.56-2.5-13.53-10.37-13.83L191.92,484.01z M250.03,468.38h-13.72l6.66-20.89l0,0L250.03,468.38z M253.34,478.4l3.36,10.32
	c0.56,1.26,0.84,2.63,0.8,4.01c-0.02,2.79-1.64,5.32-4.16,6.51v0.3h30.46v-0.3c-4.32-4.04-7.33-9.27-8.67-15.03l-19.04-54.65h-24.75
	v0.3c2.27,1.25,3.73,3.58,3.86,6.16c-0.43,2.9-1.19,5.74-2.25,8.47l-13.88,42.38c-1.17,4.63-3.58,8.85-6.96,12.22v0.3h20.64v-0.3
	c-2.09-1.29-3.44-3.51-3.61-5.96c0.25-2.61,0.86-5.17,1.8-7.61l2.45-7.26L253.34,478.4z M309.34,439.82c2.05-0.16,4.1,0.37,5.81,1.5
	c2.69,2.21,4.19,5.54,4.06,9.02c0.1,6.53-4.47,12.19-10.87,13.48v-23.99L309.34,439.82z M308.34,469.43l11.67,23.14
	c2.06,5.45,7.86,8.52,13.53,7.16l13.93-1c-3.93-3.65-7.2-7.96-9.67-12.72l-12.02-21.14c7.03-2.65,11.78-9.27,12.02-16.78
	c0.3-6.65-3.19-12.9-9.02-16.13c-4.17-2.06-8.85-2.89-13.48-2.4h-30.06v0.3c5.01,3.31,4.26,9.32,4.26,15.03v39.52
	c0,5.51,0.7,11.57-4.26,15.03v0.3h27.15v-0.3c-5.01-3.31-4.21-9.37-4.21-15.03L308.34,469.43z M399.61,444.08
	c-4.9-3.54-10.79-5.46-16.83-5.51c-13.83,0-17.78,11.67-17.78,24.5c0,14.68,6.76,26.55,21.79,26.55c7.74-0.38,15.25-2.76,21.79-6.91
	l-5.01,15.53c-6.53,1.78-13.27,2.63-20.04,2.5c-9.87,0.71-19.62-2.57-27.05-9.12c-7.69-7.13-11.94-17.22-11.67-27.7
	c-0.06-9.99,3.89-19.6,10.97-26.65c7.91-6.48,17.93-9.83,28.15-9.42l15.03,1.35L399.61,444.08z M433.37,487.61
	c3.41,1.21,7.01,1.75,10.62,1.6c5.57,0.57,11.07-1.62,14.73-5.86h0.5l-4.06,16.03h-44.68v-0.3c5.01-3.31,4.26-9.22,4.26-14.78
	v-39.72c0-5.51,0.7-11.57-4.26-14.73v-0.3h35.07c1.44,0.12,2.89-0.07,4.26-0.55h0.3v15.38h-0.1c-2.76-5.01-8.47-4.46-13.42-4.46
	h-3.26v17.23h9.42c1.26,0.05,2.52-0.14,3.71-0.55h0.5v15.03h-0.5c-1.4-4.26-6.06-3.81-10.02-3.81h-3.36L433.37,487.61z
	 M484.02,484.31c0,5.56-0.7,11.47,4.26,14.78v0.3h-27.15v-0.3c5.01-3.31,4.26-9.22,4.26-14.78v-39.62c0-5.51,0.7-11.52-4.26-15.03
	v-0.3h27.15v0.3c-5.01,3.31-4.26,9.32-4.26,15.03V484.31z M519.13,439.82c2.07-0.16,4.13,0.37,5.86,1.5
	c2.66,2.23,4.14,5.55,4.01,9.02c0.1,6.53-4.47,12.19-10.87,13.48v-23.99L519.13,439.82z M518.13,469.43l11.67,23.14
	c2.06,5.45,7.86,8.52,13.53,7.16l13.93-1c-3.91-3.67-7.18-7.97-9.67-12.72l-12.02-21.14c7.03-2.65,11.78-9.27,12.02-16.78
	c0.32-6.64-3.15-12.9-8.97-16.13c-4.2-2.05-8.88-2.88-13.53-2.4h-30.06v0.3c5.01,3.31,4.21,9.32,4.21,15.03v39.52
	c0,5.51,0.75,11.57-4.21,15.03v0.3h27.15v-0.3c-5.01-3.31-4.26-9.37-4.26-15.03L518.13,469.43z M574.48,461.36
	c0-10.92,5.26-22.94,17.18-22.94c13.83,0,18.33,17.33,18.33,29.45c0.35,5.27-0.94,10.52-3.71,15.03c-2.99,4.53-8,7.32-13.42,7.46
	c-5.85-0.4-11.05-3.9-13.63-9.17C576.22,475.02,574.59,468.25,574.48,461.36z M554.95,464.27c-0.8,19.35,14.24,35.68,33.59,36.48
	c1.04,0.04,2.08,0.04,3.13-0.01c20.49,0,37.92-13.48,37.92-36.62s-15.53-36.27-36.72-36.27s-37.67,13.78-37.67,36.42L554.95,464.27
	L554.95,464.27z M442.53,577.63c13.58,7.56,19.52,16.82,17.19,26.85l-0.77,3.31l3.27-0.94c2.89-0.83,5.88-1.25,8.88-1.25
	c5.39,0,10.68,1.35,15.39,3.92c-0.55,3.11-3.41,11.71-18.09,14.93l-4.13,0.91l3.32,2.62c11.48,9.07,6.8,26.11,5.36,30.47
	c-1.24,0.18-2.5,0.28-3.76,0.28c-5.99,0-11.83-2.11-16.45-5.95c-4.34-4.26-7.2-9.91-8.08-15.93l-0.94-6.45l-2.84,5.87
	c-2.65,5.49-9.36,14.7-24.42,14.7c-1.44,0-2.94-0.08-4.48-0.25c0.28-4.78,1.92-18.26,11.4-24.37l2.98-1.92l-3.19-1.55
	c-7.51-3.65-12.46-11.17-12.92-19.44c2.36-0.6,4.79-0.91,7.23-0.91c5.07,0,10.08,1.33,14.49,3.84l4.72,2.69l-1.85-5.11
	c-2.15-5.94-2.64-12.28-1.44-18.46c1.16,0.42,2.96,1.4,5.18,3.74l5.42,5.7l-2.03-7.59C441.09,584.08,441.3,580.7,442.53,577.63
	 M441.63,574.87c-2.19,3.95-2.77,8.6-1.6,12.97c-4.18-4.4-7.31-4.67-8.02-4.67c-0.1,0-0.15,0.01-0.15,0.01
	c-1.77,7.1-1.39,14.56,1.1,21.44c-4.76-2.72-10.11-4.11-15.48-4.11c-3.11,0-6.24,0.47-9.27,1.41c-0.09,9.66,5.39,18.51,14.08,22.74
	c-12.67,8.17-12.37,27.8-12.37,27.8c2.33,0.34,4.51,0.5,6.54,0.5c16.39,0,23.5-10.22,26.22-15.83c0.95,6.51,4.01,12.53,8.72,17.13
	c5.04,4.21,11.35,6.46,17.79,6.46c1.75,0,3.5-0.17,5.25-0.5c0,0,8.92-22.34-5.61-33.81c19.59-4.3,19.79-17.97,19.79-17.97
	c-5.35-3.2-11.41-4.83-17.52-4.83c-3.16,0-6.33,0.44-9.43,1.32C463.52,596.97,461.67,585.29,441.63,574.87L441.63,574.87z
	 M503.5,579.68c-1.48-4.38-2.64-8.87-3.46-13.42c-1.99,1.4-4.17,2.53-6.46,3.36c0,0-19.34,5.31-22.34,30.06
	c5.9,0.81,11.69,2.32,17.23,4.51C493.03,601.92,509.16,594.91,503.5,579.68z M522.89,608.79c-18.43-13.17-30.06-1.25-30.06-1.05
	c-1.09,9.77-8.01,17.9-17.48,20.54c2.24,2.33,3.95,5.12,5.01,8.17c2.9,2.26,6.06,4.16,9.42,5.66l0.65,0.45
	c25.05,10.62,45.58-17.48,45.58-17.48c1.55-2.42,3.64-4.45,6.11-5.91C535.37,616.38,528.92,612.9,522.89,608.79z M459.47,615.14
	c-3.55-0.89-7.3-0.37-10.47,1.45c0-1.8,0.65-7.86-3.41-9.17c0,0-2.4,2.76-0.8,9.52c-2.65-2.16-6.22-2.82-9.47-1.75
	c1.67,2.71,4.46,4.55,7.61,5.01c-1.85,1.55-7.41,4.36-6.11,8.92c0.01-0.14,7.67-2,9.48-6.86c0.92,3.69,3.85,6.54,7.56,7.36
	c0.44-3.56-0.91-7.1-3.61-9.47C452.05,619.7,456.81,621.15,459.47,615.14z M446.98,621.4c-0.04,0.01-0.09,0.01-0.13,0.02
	c-1.17,0.15-2.25-0.68-2.4-1.85c-0.02-1.19,0.92-2.17,2.11-2.19c1.02-0.04,1.92,0.67,2.14,1.68
	C448.87,620.18,448.1,621.23,446.98,621.4z M353.61,577.55c1.2,3.07,1.4,6.44,0.53,9.68l-2.15,8.01l5.56-6.15
	c2.23-2.46,4.05-3.42,5.18-3.79c1.22,6.2,0.72,12.58-1.47,18.54l-1.88,5.13l4.75-2.7c4.41-2.51,9.43-3.84,14.5-3.84
	c2.44,0,4.87,0.3,7.23,0.91c-0.39,8.31-5.35,15.83-12.92,19.43l-3.25,1.55l3.03,1.94c9.51,6.1,11.13,19.59,11.4,24.36
	c-1.54,0.17-3.04,0.25-4.48,0.25c-15.05,0-21.77-9.21-24.43-14.7l-2.86-5.89l-0.92,6.48c-0.86,6.02-3.73,11.67-8.08,15.93
	c-4.6,3.84-10.43,5.95-16.43,5.95c-1.26,0-2.53-0.09-3.78-0.28c-1.45-4.35-6.16-21.38,5.36-30.47l3.33-2.63l-4.15-0.89
	c-14.59-3.14-17.5-11.69-18.07-14.93c4.72-2.57,10.03-3.92,15.42-3.92c3.01,0,6,0.42,8.9,1.25l3.3,0.95l-0.81-3.34
	C334.03,594.45,339.97,585.21,353.61,577.55 M354.52,574.78c-20.04,10.52-21.94,22.19-20.04,30.06c-3.1-0.89-6.28-1.33-9.45-1.33
	c-6.12,0-12.19,1.64-17.55,4.84l0,0c0.01,0,0.22,13.76,19.79,17.97c-14.53,11.47-5.61,33.81-5.61,33.81
	c1.75,0.34,3.52,0.51,5.27,0.51c6.44,0,12.74-2.25,17.77-6.47c4.72-4.59,7.79-10.61,8.72-17.13c2.72,5.61,9.84,15.83,26.23,15.83
	c2.03,0,4.2-0.16,6.53-0.5c0,0,0.35-19.64-12.37-27.8c8.75-4.16,14.25-13.06,14.08-22.74c-3.03-0.94-6.15-1.4-9.26-1.4
	c-5.38,0-10.73,1.39-15.49,4.1c2.52-6.87,2.92-14.34,1.15-21.44c0,0-0.12-0.02-0.34-0.02c-0.99,0-4,0.4-7.88,4.68
	C357.24,583.39,356.69,578.74,354.52,574.78L354.52,574.78z M353.17,620.06c3.17-0.47,5.97-2.3,7.66-5.01
	c-3.26-1.09-6.86-0.43-9.52,1.75c1.6-6.76-0.8-9.52-0.8-9.52c-4.06,1.3-3.46,7.36-3.36,9.17c-3.19-1.82-6.96-2.34-10.52-1.45
	c2.65,6.16,7.41,4.71,9.22,5.01c-2.7,2.36-4.05,5.91-3.61,9.47c3.73-0.8,6.69-3.66,7.61-7.36c1.77,5,9.48,6.86,9.48,6.86
	C360.58,624.42,355.02,621.62,353.17,620.06z M351.68,619.63c-0.16,1.18-1.24,2.01-2.42,1.85s-2.01-1.24-1.85-2.42
	c0.16-1.18,1.23-2,2.41-1.85h0.01C351.01,617.37,351.84,618.45,351.68,619.63z M292.66,579.68c1.46-4.39,2.6-8.87,3.41-13.42
	c1.99,1.4,4.17,2.53,6.46,3.36c0,0,19.39,5.31,22.39,30.06c-5.92,0.81-11.72,2.32-17.28,4.51
	C303.08,601.92,286.95,594.91,292.66,579.68z M273.22,608.79c18.48-13.17,30.06-1.25,30.06-1.05c1.12,9.76,8.03,17.88,17.48,20.54
	c-2.24,2.33-3.95,5.12-5.01,8.17c-2.88,2.26-6.03,4.16-9.37,5.66l-0.65,0.45c-25.05,10.62-45.58-17.48-45.58-17.48
	c-1.56-2.41-3.65-4.43-6.11-5.91C260.77,616.37,267.2,612.89,273.22,608.79z M175.36,375.37c0.02,0,0.04,0,0.06-0.01
	c-0.01,0-0.02,0.01-0.04,0.01C175.38,375.37,175.37,375.37,175.36,375.37z M343.86,395.95c0.01,0,0.02,0,0.03,0
	c-0.02,0-0.04,0-0.06,0C343.85,395.96,343.85,395.95,343.86,395.95z M623.18,365.07c-0.08-0.02-0.17-0.03-0.26-0.02
	c0.03,0,0.05-0.01,0.08-0.01C623.06,365.04,623.12,365.06,623.18,365.07z M622.04,230.93C622.04,230.93,622.04,230.93,622.04,230.93
	c0,0,0.01,0,0.02,0C622.05,230.93,622.05,230.93,622.04,230.93z M311,518.71c0.17,0,0.33,0,0.5,0.01c-0.26-0.01-0.52-0.01-0.77,0
	C310.82,518.72,310.91,518.71,311,518.71z M613.45,230.96c-1.47,0-2.86,0.07-4.11,0.17c0.16-0.11,0.33-0.21,0.51-0.31
	c0.67-0.18,1.37-0.27,2.06-0.27c0.88,0,1.75,0.14,2.57,0.42C614.14,230.97,613.79,230.96,613.45,230.96z M604.39,235.84l-1.35-1.9v0
	L604.39,235.84z M311.58,518.72c0.35,0,0.69,0.03,1.04,0.05c-0.37-0.02-0.74-0.05-1.12-0.05
	C311.53,518.72,311.55,518.72,311.58,518.72z M613.45,234.96c0.08,0,0.17,0,0.25,0c-0.17,0-0.35,0-0.52,0
	C613.27,234.96,613.36,234.96,613.45,234.96z M608.7,258.88C608.7,258.88,608.7,258.88,608.7,258.88
	C608.7,258.88,608.7,258.88,608.7,258.88c0,0,0,0.04,0,0.12C608.7,258.92,608.7,258.88,608.7,258.88z M605.29,212.47
	c-0.38-0.02-0.76-0.04-1.14-0.03c0.1,0,0.2-0.01,0.31-0.01C604.74,212.43,605.02,212.46,605.29,212.47z M310.09,550.48
	c0.34,0.02,0.67,0.03,1.01,0.02c-0.05,0-0.09,0.01-0.14,0.01C310.67,550.51,310.38,550.5,310.09,550.48z M491.14,370.67
	c0.01,0,0.03,0,0.04,0c-0.02,0-0.05,0-0.07,0C491.12,370.67,491.13,370.67,491.14,370.67z M459.76,321.41c0,0,0.01,0,0.01,0
	c-0.02,0-0.05,0-0.05,0S459.74,321.41,459.76,321.41z M395.05,550.66c0.36,0,0.71,0,1.07-0.03c-0.32,0.02-0.64,0.03-0.96,0.03
	C395.12,550.66,395.09,550.66,395.05,550.66z M509.75,362.56c-0.06,0.17-0.1,0.25-0.1,0.25c-0.24,0.42-0.44,0.85-0.65,1.27
	c0.22-0.42,0.42-0.85,0.65-1.27C509.65,362.81,509.69,362.72,509.75,362.56z M349.83,528.08c0.13,0,0.26,0,0.39,0.01
	c-0.2-0.01-0.4-0.01-0.6,0C349.69,528.09,349.76,528.08,349.83,528.08z M394,528.19c0.04,0,0.07,0,0.11,0
	c-0.21,0-0.41,0.02-0.62,0.02C393.66,528.21,393.83,528.19,394,528.19z M623.64,365.51c-0.03-0.12-0.09-0.2-0.15-0.27
	C623.55,365.31,623.61,365.39,623.64,365.51L623.64,365.51z M372.82,528.14c-0.14,0-0.28,0-0.42,0c0.11,0,0.21,0,0.32,0
	C372.75,528.14,372.78,528.14,372.82,528.14z M350.67,528.08c0.08,0,0.15,0.01,0.23,0.01c-0.23-0.01-0.45-0.01-0.68,0
	C350.37,528.08,350.52,528.08,350.67,528.08z M372.71,550.63c0.19,0,0.37-0.01,0.56-0.01c-0.16,0-0.33,0.01-0.49,0.01
	C372.75,550.63,372.73,550.63,372.71,550.63z M371.89,550.63c0.27,0.01,0.54,0.02,0.82,0c-0.17,0.01-0.34,0.01-0.52,0.01
	C372.09,550.64,371.99,550.63,371.89,550.63z M379.42,537.93c-0.01,0.24-0.04,0.49-0.04,0.73c0,0.22,0,0.43,0.01,0.64
	c-0.02,0.42,0.01,0.83,0.02,1.24c-0.09,0.06-0.19,0.12-0.28,0.19c-0.95,0.79-2.17,1.24-3.42,1.29l-0.09,0
	c-0.25,0-0.48-0.09-0.66-0.24c-0.63-0.9-0.95-1.98-0.92-3.06c0-0.14,0-0.28-0.01-0.41c-0.05-0.66,0.08-1.29,0.38-1.85
	c0.02-0.01,0.04-0.01,0.06-0.01c0.77,0.01,1.55,0.27,2.19,0.74c0.7,0.51,1.52,0.76,2.35,0.76
	C379.16,537.95,379.29,537.94,379.42,537.93z M340.2,387.32c0.01,0,0.02,0,0.03,0c0,0,0,0-0.01,0
	C340.22,387.32,340.21,387.32,340.2,387.32z M196.22,469.18c-0.2,0.01-0.4,0.01-0.61,0.01c-0.27,0-0.54-0.02-0.81-0.03
	C195.27,469.18,195.75,469.2,196.22,469.18z M315.21,450.4c0.04,2.7-1.05,5.18-2.87,6.96v-13.05c0.15,0.07,0.29,0.15,0.43,0.24
	c1.63,1.42,2.52,3.47,2.44,5.64C315.21,450.26,315.21,450.33,315.21,450.4z M436.63,109.72c-0.46,0-0.92,0.01-1.38,0.03
	c0.44-0.02,0.88-0.03,1.32-0.03C436.59,109.72,436.61,109.72,436.63,109.72z M196.17,445.03c1.34,1.27,2.41,3.7,2.41,8.42
	c0,0.05,0,0.09,0,0.14c0.1,2.87-0.83,5.63-2.51,7.81L196.17,445.03z M318.44,429.44c-0.37-0.01-0.74-0.01-1.11,0
	c0.19,0,0.38-0.02,0.57-0.02C318.08,429.42,318.26,429.43,318.44,429.44z M330.83,500.05c-0.09,0-0.18-0.01-0.28-0.01
	c0.16,0,0.33,0,0.5,0C330.98,500.04,330.91,500.05,330.83,500.05z M197.44,429.03c-0.49-0.01-0.98-0.01-1.48,0
	c0.26-0.01,0.53-0.02,0.79-0.02C196.99,429.01,197.22,429.02,197.44,429.03z M608.37,109.72c-0.32,0-0.64,0.01-0.97,0.02
	c0.3-0.01,0.61-0.02,0.91-0.02C608.33,109.72,608.35,109.72,608.37,109.72z M607.57,169.9c0.41,0,0.82-0.01,1.23-0.02
	c-0.82,0.03-1.64,0.03-2.46,0C606.75,169.9,607.16,169.9,607.57,169.9z M485.02,139.32h-0.23l0.11-0.35L485.02,139.32z
	 M438.54,109.77c-0.12,0-0.24-0.01-0.36,0c0.07,0,0.14,0,0.21,0C438.44,109.77,438.49,109.77,438.54,109.77z M602.28,151.93
	c-2.17-4.46-3.36-9.44-3.46-14.41c0.01-5.16,2.14-14.85,10.13-14.85c8.72,0,11.03,13.21,11.03,20.19c0,0.09,0,0.17,0.01,0.26
	c0.23,3.48-0.63,6.89-2.47,9.85c-0.01,0.02-0.03,0.04-0.04,0.06c-1.55,2.61-4.3,4.17-7.34,4.17c-1.52,0-3.03-0.41-4.35-1.2
	c-1.54-0.92-2.73-2.27-3.44-3.9C602.33,152.04,602.3,151.99,602.28,151.93z M624.55,329.44c-0.03,0-0.05,0-0.08,0.01
	c0.01,0,0.03-0.01,0.04-0.01C624.52,329.43,624.54,329.43,624.55,329.44z M622.87,228.69c-0.08-0.61-0.19-1.21-0.32-1.8
	C622.68,227.48,622.79,228.08,622.87,228.69C622.87,228.69,622.87,228.7,622.87,228.69C622.87,228.7,622.87,228.69,622.87,228.69z
	 M629.68,298.5c-0.01,0-0.01,0-0.02,0c0.02,0,0.04,0,0.06,0C629.7,298.49,629.69,298.5,629.68,298.5z M628.66,260.96
	c-0.03,0-0.05,0-0.08-0.01c0.04,0,0.08,0,0.11,0C628.69,260.96,628.67,260.96,628.66,260.96z M379.2,652.86c0.32,0,0.65,0,0.98,0
	c-0.17,0-0.35,0.01-0.53,0.01C379.5,652.87,379.35,652.86,379.2,652.86z M631.19,242C631.19,242,631.19,242,631.19,242
	C631.19,242,631.19,242,631.19,242c0.73,1.06,1.31,2.2,1.73,3.37C632.5,244.2,631.92,243.07,631.19,242z M292.29,644.89
	c0.67,0.04,1.34,0.07,2.02,0.06c-0.04,0-0.08,0-0.12,0C293.55,644.96,292.92,644.93,292.29,644.89z M290.08,602.6
	c0.1,0,0.18,0.01,0.28,0.01c-0.18,0-0.37-0.01-0.56,0C289.89,602.61,289.98,602.6,290.08,602.6z M378.63,600.43
	c0.09,0,0.17,0.01,0.26,0.01c-0.12,0-0.24-0.01-0.35-0.01C378.57,600.43,378.6,600.43,378.63,600.43z M243.08,460.31l1.38,4.07
	h-2.67L243.08,460.31z M326.56,660.63c0.21,0,0.42,0,0.64,0c-0.09,0-0.18,0.01-0.26,0.01C326.81,660.64,326.68,660.63,326.56,660.63
	z M307.53,608.95c0,0.04,0.01,0.09,0.02,0.13c0,0,0,0,0,0C307.54,609.04,307.53,608.99,307.53,608.95z M363.95,583.07
	c0.01,0,0.01,0,0.01,0C363.95,583.07,363.95,583.07,363.95,583.07C363.94,583.07,363.94,583.07,363.95,583.07z M190.46,396.34
	c0.04,0,0.08,0,0.12,0c-0.02,0-0.03,0.01-0.05,0.01C190.51,396.35,190.48,396.34,190.46,396.34z M205.69,387.53
	c1.33-0.35,2.63-0.83,3.87-1.43C208.32,386.69,207.03,387.17,205.69,387.53z M406.54,240.52c-0.12-0.01-0.27-0.02-0.43-0.02
	c0,0-0.15,0-0.41-0.02c0.26,0.01,0.41,0.02,0.41,0.02C406.27,240.5,406.41,240.51,406.54,240.52z M251.31,404.83
	c0.04,0,0.07,0,0.11,0c-0.02,0-0.03,0.01-0.04,0.01C251.35,404.83,251.33,404.83,251.31,404.83z M426.37,228.57
	c-0.14-0.05-0.32-0.09-0.52-0.13c-0.41-0.06-0.81-0.15-1.19-0.27c0.38,0.12,0.78,0.22,1.19,0.27
	C426.06,228.48,426.23,228.52,426.37,228.57z M242.09,385.75c0.08-0.33,0.13-0.66,0.16-0.99
	C242.22,385.09,242.17,385.42,242.09,385.75L242.09,385.75z M419.94,221.98c0,0-0.01-0.03-0.02-0.07
	C419.93,221.95,419.94,221.98,419.94,221.98c0.02,0.41,0.08,0.81,0.17,1.2C420.02,222.79,419.96,222.39,419.94,221.98z
	 M399.91,235.34v-10.72c0,0,0.01,0,0.01,0c0.97-0.22,1.95-0.42,3.03-0.6c2.93,6.36,9.1,10.76,16.28,11.31
	c0.05,0,0.09,0.01,0.14,0.01c0.27,0.01,0.54,0.02,0.81,0.02c2.73,0,5.47-0.6,7.94-1.73c0.23-0.11,0.46-0.24,0.67-0.39
	c1.73-1.24,2.54-3.17,2.12-5.04c-0.21-0.91-1.04-3.1-4.34-3.7c-0.06-0.01-0.11-0.02-0.17-0.03c-0.66-0.09-1.24-0.4-1.67-0.85
	c3.29,0.69,9.99,2.84,12.16,6.9c1.08,2.03,0.94,4.49-0.44,7.51c-1.12,1.67-2.3,4.03-1.12,6.3c0.74,1.41,2.2,2.29,3.82,2.29
	c0.31,0,0.63-0.03,0.94-0.09c0.06,0,0.12-0.01,0.18-0.01c0.55,0,1.08,0.18,1.51,0.5c3.39,3.36,6.44,7.05,9.12,11
	c-16.44,5.85-33.56,9.31-50.99,10.31v-18.45c3.38-0.92,6.56-2.55,9.29-4.78c0.02-0.02,0.04-0.04,0.07-0.06
	c1.78-1.53,2.46-3.65,1.76-5.54c-0.33-0.9-1.47-2.98-4.86-3C404.94,236.47,402.37,236.18,399.91,235.34z M419.86,289.34
	c15.77-2.6,31.21-7.5,45.51-14.5c6.37,5.24,13.71,9.06,21.55,11.26c-31.11,0.16-61.43,2.81-61.74,2.84
	C423.42,289.08,421.64,289.22,419.86,289.34z M252.16,403.18L252.16,403.18L252.16,403.18L252.16,403.18z M420.18,231.35
	c-0.21,0-0.43,0-0.64-0.01c0.43,0.02,0.86,0,1.29-0.02C420.61,231.33,420.4,231.35,420.18,231.35z M414.68,203.99
	c-0.9-0.01-1.81,0.01-2.71,0.03c0.58-0.01,1.16-0.04,1.74-0.04C414.03,203.98,414.36,203.99,414.68,203.99z M439.14,242.62
	c-0.04,0-0.07-0.01-0.1-0.02c0.04,0.01,0.07,0.02,0.12,0.02C439.15,242.62,439.15,242.62,439.14,242.62z M380.3,500.82
	c0.29,0,0.58,0.01,0.87,0c-0.1,0-0.19,0.01-0.29,0.01C380.68,500.84,380.49,500.83,380.3,500.82z M383.53,500.74
	c0.66,0.01,1.32,0.01,1.98,0c-0.21,0-0.42,0.01-0.63,0.01C384.43,500.75,383.98,500.75,383.53,500.74z M267.36,404.1
	c0.07,0.02,0.13,0.03,0.2,0.03c0,0,0,0,0,0C267.49,404.13,267.43,404.12,267.36,404.1z M383.93,427.85c-0.6-0.02-1.2-0.03-1.8-0.03
	c0.04,0,0.08,0,0.12,0C382.81,427.82,383.37,427.83,383.93,427.85z M399.91,448.06v34.61c-4.2,1.7-8.67,2.71-13.22,2.95
	c-15.97-0.06-17.69-15.78-17.69-22.55c0-20.5,10.37-20.5,13.78-20.5c5.22,0.04,10.24,1.69,14.49,4.75c0.7,0.5,1.52,0.76,2.34,0.76
	C399.71,448.08,399.81,448.07,399.91,448.06z M662.6,76.2H399.91h0H137.22V373v49.34c0,11.67,0.46,22.85,1.35,33.55
	c1.02,12.23,2.59,23.86,4.67,34.9c0.26,1.38,0.53,2.75,0.81,4.12c0.83,4.09,1.73,8.1,2.7,12.03c0.32,1.31,0.65,2.61,0.99,3.9
	c1.01,3.88,2.1,7.68,3.24,11.4c0.38,1.24,0.77,2.48,1.17,3.7c3.96,12.25,8.64,23.67,13.93,34.33c1.06,2.13,2.14,4.23,3.25,6.31
	c43.73,81.86,124.77,117.4,196.27,143.36c2.72,0.99,5.42,1.96,8.1,2.92c1.79,0.64,3.57,1.28,5.35,1.91
	c7.1,2.52,14.07,4.97,20.86,7.38c108.7-38.57,262.69-86.41,262.69-299.81V76.2L662.6,76.2z M412.01,116.52
	c6-6.55,14.19-10.38,23.07-10.77c0.5-0.02,0.99-0.03,1.48-0.03c0.59,0,1.17,0.02,1.73,0.05l0.1,0c4.65,0,9.27,0.64,13.74,1.9
	c1.72,0.49,2.91,2.06,2.91,3.85v12.12c0,2.21-1.79,4-4,4h-0.45c-0.96,0-1.89-0.35-2.62-0.97c-2.67-2.31-6.08-3.6-9.55-3.64
	c-5.21,0-11.43,2.51-11.43,14.48c0,5.4,1,10.24,2.81,13.63c1.9,3.56,4.5,5.32,8.13,5.5v-8.95c0-0.23,0.02-0.46,0.06-0.69
	c0.31-1.76-0.36-3.55-1.74-4.67c-1.31-1.07-1.81-2.85-1.25-4.44s2.08-2.66,3.77-2.66h17.43c2.21,0,4,1.79,4,4l0,20.7
	c0.34-0.82,0.63-1.67,0.84-2.54c0.02-0.1,0.05-0.2,0.08-0.29l11.47-35.07c0.02-0.05,0.03-0.1,0.05-0.15
	c0.69-1.85,1.2-3.76,1.51-5.68c-0.13-0.61-0.52-1.15-1.08-1.46c-1.58-0.89-2.37-2.74-1.91-4.5c0.46-1.76,2.05-2.99,3.87-2.99h20.54
	c1.7,0,3.22,1.08,3.78,2.69L515.05,155c0.05,0.14,0.09,0.27,0.12,0.41c0.73,3.18,2.23,6.07,4.35,8.5c1.24-2.16,1.73-4.68,1.33-7.2
	c-0.03-0.2-0.05-0.41-0.05-0.62v-30.06c0-0.17,0.01-0.34,0.03-0.51c0.52-4.02-0.92-8.12-3.83-10.96c-1.17-1.14-1.53-2.86-0.91-4.37
	c0.61-1.51,2.08-2.49,3.71-2.49h17.28c1.28,0,2.48,0.61,3.24,1.65l18.21,25.1v-10.32c0-0.2,0.02-0.4,0.05-0.6
	c0.51-3.35-0.48-6.73-2.71-9.28c-1.04-1.18-1.29-2.86-0.64-4.29s2.07-2.35,3.64-2.35h15.93c1.57,0,2.99,0.92,3.64,2.35
	c0.65,1.43,0.4,3.11-0.63,4.29c-2.23,2.55-3.22,5.94-2.72,9.29c0.03,0.2,0.04,0.4,0.04,0.6v10.05
	c2.49-16.21,16.48-28.46,33.18-28.46c0.58,0,1.16,0.02,1.74,0.04c20.31,0.05,33.95,13.72,33.95,34.06c0,10.15-3.67,18.83-10.61,25.1
	c-6.38,5.76-15.09,8.94-24.52,8.96c-0.43,0.02-0.87,0.02-1.3,0.02c-0.46,0-0.92-0.01-1.4-0.03c-15.84-0.68-28.62-12.53-31.04-27.61
	v24.35c0,1.16-0.5,2.26-1.37,3.02c-0.73,0.64-1.67,0.98-2.63,0.98c-0.18,0-0.37-0.01-0.55-0.04c-4.05-0.56-7.91-1.89-11.43-3.94
	c-5.51-3.1-10.07-7.65-13.19-13.16l-8.55-11.99v10.59c0,0.2-0.02,0.4-0.05,0.6c-0.5,3.32,0.48,6.66,2.7,9.17
	c0.65,0.73,1,1.67,1,2.65v0.3c0,2.21-1.79,4-4,4h-15.98c-0.5,0-0.97-0.1-1.4-0.27c-0.41,0.14-0.85,0.24-1.31,0.24h-25.05
	c-2.21,0-4-1.79-4-4v-0.3c0-1.55,0.9-2.96,2.3-3.62c0.68-0.32,1.1-0.98,1.11-1.72c0-0.02,0-0.05,0-0.07
	c0.01-0.56-0.09-1.09-0.31-1.59c-0.05-0.12-0.1-0.25-0.14-0.37l-1.88-5.72l-10.86-0.22l-1.07,3.18c-0.01,0.04-0.03,0.08-0.04,0.13
	c-0.6,1.59-0.99,3.26-1.18,4.94c0.08,0.62,0.43,1.16,0.98,1.48c1.22,0.72,1.97,2.03,1.97,3.45v0.3c0,2.21-1.79,4-4,4h-16.98
	c-1.14,0-2.17-0.48-2.89-1.25c-5.77,1.63-11.74,2.51-17.75,2.59c-0.02,0-0.04,0-0.05,0c-21.03,0-35.17-13.51-35.21-33.62
	C402.95,131.52,406.03,123.06,412.01,116.52z M200.38,499.34c0,2.21-1.79,4-4,4h-26.9c-2.21,0-4-1.79-4-4v-0.3
	c0-1.34,0.67-2.6,1.8-3.34c2.48-1.64,2.56-4.74,2.49-9.67c-0.01-0.68-0.02-1.35-0.02-2.03v-39.52c0-0.62,0.01-1.25,0.02-1.88
	c0.07-4.94-0.02-8.07-2.59-9.88c-1.06-0.75-1.69-1.97-1.69-3.27v-0.3c0-2.21,1.79-4,4-4h23.62c1.21-0.1,2.44-0.15,3.66-0.15
	c0,0,0,0,0,0c5.48,0,10.86,0.98,15.99,2.9c0.16,0.06,0.32,0.13,0.48,0.22c7.37,3.93,11.95,11.85,11.69,20.18
	c-0.03,15.09-11.26,24.85-28.64,24.87c-0.1,0-0.2,0.01-0.29,0.01l-0.07,10.85c0,0.19-0.02,0.38-0.04,0.57
	c-0.64,4.26,0.63,8.55,3.5,11.78c0.65,0.73,1.01,1.68,1.01,2.66V499.34z M253.04,490.34c-0.06-0.13-0.11-0.26-0.15-0.39l-2.47-7.58
	l-14.17-0.1l-1.52,4.52c-0.02,0.05-0.04,0.11-0.06,0.16c-0.77,2-1.28,4.07-1.51,6.18c0.16,1.05,0.77,1.99,1.69,2.55
	c1.18,0.73,1.9,2.02,1.9,3.4v0.3c0,2.21-1.79,4-4,4h-20.64c-2.21,0-4-1.79-4-4v-0.3c0-1.06,0.42-2.08,1.18-2.83
	c2.87-2.87,4.92-6.45,5.91-10.37c0.02-0.09,0.05-0.18,0.08-0.27l13.88-42.38c0.02-0.07,0.05-0.14,0.07-0.2
	c0.9-2.33,1.56-4.73,1.95-7.15c-0.16-1.07-0.8-1.99-1.76-2.53c-1.28-0.7-2.07-2.05-2.07-3.5v-0.3c0-2.21,1.79-4,4-4h24.75
	c1.7,0,3.22,1.08,3.78,2.68l19.04,54.65c0.05,0.13,0.09,0.27,0.12,0.41c0.95,4.09,2.87,7.82,5.57,10.97
	c0.94-1.85,0.97-4.45,0.93-7.98c-0.01-0.63-0.02-1.26-0.02-1.88v-39.52c0-0.68,0.01-1.36,0.02-2.04c0.08-5.51-0.13-8.09-2.49-9.65
	c-1.12-0.74-1.8-1.99-1.8-3.34v-0.3c0-2.21,1.79-4,4-4h29.86c0.93-0.09,1.87-0.14,2.8-0.14c4.37,0,8.75,1.02,12.66,2.95
	c0.06,0.03,0.11,0.06,0.17,0.09c7.2,3.99,11.44,11.57,11.08,19.78c-0.25,7.58-4.23,14.36-10.46,18.31l9.94,17.48
	c0.03,0.04,0.05,0.09,0.07,0.13c2.27,4.38,5.25,8.29,8.84,11.63c1.17,1.08,1.58,2.76,1.05,4.26c-0.53,1.5-1.9,2.55-3.49,2.66
	l-13.63,0.98c-1.08,0.23-2.19,0.35-3.29,0.35c-6.36,0-12.15-3.95-14.48-9.85l-4.18-8.3c0,0.21-0.01,0.43-0.01,0.64
	c-0.09,5.34,0.12,8.03,2.44,9.56c1.12,0.74,1.8,1.99,1.8,3.34v0.3c0,2.21-1.79,4-4,4h-27.15c-0.44,0-0.85-0.09-1.25-0.22
	c-0.06,0-0.12,0.02-0.19,0.02h-30.46c-2.21,0-4-1.79-4-4v-0.3c0-1.55,0.89-2.96,2.29-3.62c1.13-0.53,1.86-1.68,1.87-2.92
	c0-0.03,0-0.06,0-0.09C253.52,491.85,253.37,491.07,253.04,490.34z M390.18,652.44c-0.03,1.96-1.48,3.6-3.42,3.89
	c-2.44,0.36-4.83,0.54-7.11,0.54c-12.28,0-20.03-5.09-24.79-10.48c-1.75,3.97-4.25,7.6-7.38,10.65c-0.07,0.07-0.14,0.13-0.22,0.2
	c-5.69,4.77-12.91,7.4-20.34,7.4c-2.02,0-4.05-0.2-6.03-0.58c-1.34-0.26-2.45-1.18-2.95-2.44c-0.1-0.25-2.48-6.27-2.92-13.85
	c-0.12-2.07-0.08-4.05,0.11-5.95c-2.15,1.43-4.41,2.71-6.77,3.79l-0.35,0.25c-0.22,0.16-0.46,0.29-0.72,0.39
	c-4.25,1.8-8.66,2.71-13.1,2.71c-8.92,0-18.21-3.75-26.88-10.84c-6.39-5.23-10.24-10.45-10.4-10.67c-0.04-0.06-0.09-0.12-0.13-0.19
	c-1.22-1.89-2.89-3.5-4.81-4.66c-1.29-0.78-2.04-2.22-1.93-3.72s1.06-2.82,2.45-3.4c6.45-2.69,12.66-6.04,18.43-9.97
	c6.44-4.58,12.88-6.9,19.14-6.9c0.9,0,1.75,0.06,2.58,0.15c-5.26-5.84-6.57-12.88-3.77-20.41c1.39-4.18,2.48-8.48,3.25-12.79
	c0.24-1.35,1.15-2.48,2.41-3c0.49-0.2,1.01-0.3,1.52-0.3c0.81,0,1.62,0.25,2.3,0.73c1.66,1.17,3.48,2.12,5.41,2.83
	c2.3,0.69,21.95,7.32,25.11,33.38c0.02,0.18,0.01,0.35,0.01,0.53c0.34,0.03,0.68,0.05,1.01,0.1c0.05-3.74,1-7.42,2.82-10.88
	c3.49-6.64,10.19-12.59,19.93-17.7c0.59-0.31,1.23-0.46,1.86-0.46c1.42,0,2.78,0.75,3.51,2.08c1.19,2.18,1.99,4.51,2.37,6.9
	c1.48-0.55,2.69-0.68,3.54-0.68c0.47,0,0.82,0.04,1.03,0.08c1.56,0.27,2.82,1.44,3.2,2.97c1.29,5.17,1.55,10.47,0.79,15.66
	c3.14-0.89,6.39-1.35,9.67-1.35c3.54,0,7.05,0.53,10.44,1.58c1.65,0.51,2.79,2.02,2.82,3.75c0.16,9.21-4.13,17.84-11.26,23.3
	C390.36,635.31,390.19,651.66,390.18,652.44z M657.6,422.34c0,90.28-27.57,158.25-84.28,207.78
	c-49.02,42.81-110.79,64.62-165.3,83.86c-2.73,0.96-5.44,1.92-8.12,2.87V554.27c-1.2,0.22-2.42,0.35-3.66,0.36
	c-0.36,0.02-0.73,0.03-1.1,0.03c-3.56,0-7.02-1.03-10-2.99c-0.12-0.08-0.24-0.17-0.36-0.26c-0.34-0.28-0.65-0.59-0.97-0.9
	c-0.37,0.8-0.98,1.46-1.78,1.87c-2.84,1.47-6.04,2.24-9.26,2.25c-0.2,0.01-0.4,0.01-0.6,0.01c-3.46,0-6.65-1.19-9.17-3.19
	c-0.64,1.44-2.06,2.37-3.64,2.37h-10.62c-0.41,0-0.82-0.06-1.2-0.18c-0.38,0.12-0.79,0.18-1.2,0.18h-10.67
	c-0.24,0-0.48-0.03-0.72-0.07c-0.38,0.12-0.78,0.18-1.18,0.18h-10.62c-1.38,0-2.64-0.72-3.37-1.86c-2.67,1.6-5.7,2.44-8.84,2.44
	c-0.34,0-0.68-0.01-1.01-0.03c-3.34-0.04-6.63-0.68-9.79-1.93c-1.24-0.49-2.15-1.56-2.44-2.85l-1.45-6.52
	c-0.37-1.68,0.37-3.41,1.84-4.29c0.64-0.39,1.35-0.58,2.07-0.58c0.93,0,1.85,0.32,2.59,0.95c1.45,1.23,3.21,2.06,5.07,2.42
	c-0.25-0.13-0.49-0.24-0.72-0.35c-3.92-1.92-10.49-5.14-10.49-13.76c0.01-3.86,1.76-7.43,4.8-9.8c0.07-0.05,0.14-0.1,0.2-0.15
	c2.78-1.9,6.02-2.91,9.36-2.91c0.19,0,0.38,0,0.57,0.01h0.01c2.98,0,5.91,0.54,8.71,1.61c0.89,0.34,1.59,0.98,2.04,1.77
	c1.42-1.66,3.49-2.78,5.84-2.92c0.08-0.01,0.17-0.01,0.25-0.01h0.06c0.05,0,0.09,0,0.14,0c4.46,0.15,8.04,3.88,8.02,8.33
	c0.01,0.42-0.03,0.82-0.08,1.23h4.99c0.48,0,0.96-0.11,1.4-0.31c0.54-0.26,1.13-0.39,1.71-0.39c0.69,0,1.39,0.18,2,0.54
	c1.01-0.32,2.07-0.49,3.16-0.49c0.13,0,0.26,0,0.39,0.01c0.15-0.01,0.3-0.01,0.45-0.01c3.37,0,6.55,1.46,8.74,4.01
	c0.1,0.12,0.19,0.24,0.28,0.37c0.35,0.52,0.65,1.07,0.92,1.62c0.31-0.4,0.65-0.79,1-1.17c2.8-2.96,6.59-4.65,10.69-4.76
	c0.13,0,0.27,0,0.4,0c0.46,0,0.89,0.02,1.3,0.05c1.36,0.01,2.68,0.17,3.85,0.32c0.46,0.06,0.91,0.11,1.34,0.15
	c1.99,0.19,3.54,1.83,3.61,3.83l0.03,0.9c2.69-3.17,6.7-5.2,11.15-5.2h0l0.11,0c2.15,0,4.09,0.33,5.8,0.96v-21.92
	c-4.96,1.02-9.99,1.53-15.03,1.53c-0.41,0-0.83,0-1.25-0.01c-0.91,0.06-1.84,0.09-2.75,0.09c-9.97,0-19.57-3.63-27.04-10.21
	c-0.03-0.02-0.05-0.04-0.07-0.07c-8.51-7.89-13.23-19.07-12.95-30.67c-0.05-10.98,4.38-21.71,12.15-29.44
	c0.09-0.09,0.19-0.18,0.29-0.26c8.15-6.68,18.46-10.36,29.01-10.36c0.61,0,1.23,0.01,1.84,0.04c0.07,0,0.13,0.01,0.2,0.01
	l15.03,1.35c0.2,0.02,0.4,0.06,0.59,0.11v-23.51c-0.84,0.46-1.71,0.86-2.62,1.18c-0.03,0.01-0.05,0.02-0.08,0.03
	c-0.31,0.1-0.94,0.27-1.7,0.27c-1.6,0-3.04-0.78-3.87-2.07c-0.44-0.7-0.83-1.74-0.65-3.11c-2.12,2.72-5.4,5.34-9.66,5.37
	c-0.04,0-0.07,0-0.11,0c-1.53,0-2.95-0.73-3.81-1.94c-0.26-0.36-0.57-0.93-0.73-1.67c-4.2,5.98-11.03,9.59-18.49,9.59
	c-0.79,0-1.6-0.04-2.42-0.13c-6.31-0.72-11.86-4.22-15.23-9.62c-1.25-1.9-1.47-3.83-0.61-5.45c0.77-1.44,2.24-2.31,3.94-2.31
	c0.57,0,1.15,0.1,1.79,0.29c0.29,0.07,1.44,0.33,2.68,0.33c0.83,0,1.34-0.12,1.6-0.22c0.14-0.22,0.32-0.57,0.29-0.92
	c-0.04-0.55-0.54-1.28-1.38-2.05c-0.66-0.29-1.37-0.44-2.09-0.44c-1.26,0-2.48,0.46-3.43,1.28c-0.28,0.25-0.6,0.45-0.94,0.61
	c-0.38,0.18-1.17,0.48-2.15,0.48c-1.42,0-2.73-0.63-3.6-1.73c-1-1.27-1.26-2.91-0.78-4.87c0.03-0.12,0.07-0.25,0.11-0.37
	c1.62-4.63,4.55-8.53,8.34-11.35h-35.46c-5.79,7.25-11.2,14.79-16.14,22.6c-0.03,0.05-0.07,0.1-0.1,0.15
	c-0.78,1.11-2.45,2.98-4.92,2.98c-1.92,0-4.19-1.19-4.83-4.52c-0.06-0.33-0.08-0.66-0.07-0.99c0.04-0.62-0.05-1.55-0.2-2.19
	c-1.27,0.79-4.6,3.58-10.14,13.07c-0.81,2.46-2.67,4.02-4.88,4.02c-1.35,0-3.27-0.57-4.81-3.29c-0.2-0.35-0.33-0.69-0.42-1.08
	c-0.01-0.04-0.96-3.69-3.01-3.69c-0.16,0-0.32,0.01-0.5,0.04c-0.02,0-0.04,0.01-0.06,0.01c-1.45,0.22-2.52,1.41-2.6,2.87
	c0.09,1,0.02,2.77-1.21,4.21c-0.89,1.04-2.2,1.64-3.59,1.64c-1.74,0-3.2-0.9-4.19-1.65c-3.64-2.29-9.41-9.23-9.09-21.53
	c0.01-0.29,0.05-0.58,0.12-0.86c0.22-0.89-0.18-1.82-0.98-2.28c-0.1-0.05-0.19-0.11-0.28-0.18c-0.03-0.02-0.05-0.03-0.08-0.05
	c-0.15-0.08-0.31-0.12-0.47-0.12c-0.14,0-0.6,0.04-0.87,0.49c-1.03,1.96-8.97,16.32-20.49,16.32c-0.04,0-0.09,0-0.13,0
	c-5.24-0.17-10.15-2.29-13.87-5.98c-1.9-1.47-2.75-3.46-2.3-5.38c0.05-0.21,0.13-0.49,0.27-0.8c-0.91,0.43-1.75,0.98-2.44,1.69
	c-1.17,1.23-1.73,2.87-1.71,5c0.36,1.33,0.56,3.28-0.6,4.93c-0.86,1.22-2.22,1.92-3.74,1.92c-1.48,0-2.92-0.62-4.8-2.08
	c-0.16-0.13-0.32-0.27-0.46-0.42c-3.96-4.19-6.05-9.91-5.75-15.68c0.01-0.13,0.02-0.25,0.04-0.38c0.48-3.19,1.71-6.2,3.54-8.8h-2.97
	c0.01,0.14,0,0.27,0.01,0.41c0,0.03,0,0.06,0.01,0.09c0.06,0.82,0.03,2.88-1.4,4.41c-0.88,0.94-2.08,1.46-3.37,1.46
	c-1.38,0-2.7-0.58-4.04-1.77c-0.1-0.09-0.2-0.19-0.3-0.29c-1.21-1.33-2.22-2.78-3.08-4.31h-25.75V81.2h257.69v57.64l5.64,16.21
	c0.05,0.13,0.08,0.27,0.12,0.4c0.92,3.91,2.98,7.41,5.96,10.13c0.83,0.76,1.31,1.83,1.31,2.96v0.3c0,2.21-1.79,4-4,4h-9.02v28.14
	c4.55-0.66,9.15-0.99,13.8-0.99c13.32,0,26.27,2.7,38.48,8.01c0.07,0.03,0.15,0.07,0.22,0.1c9.93,5.06,19.5,11,28.42,17.63
	c0.03,0.02,0.06,0.04,0.08,0.06c4.4,3.45,9.2,6.33,14.29,8.56c16.28-12.88,36.54-19.99,57.31-20.08c0.01,0,0.01,0,0.02,0
	c0.05,0,0.1,0,0.15,0c11.33,0.43,22.41,3.43,32.37,8.75c1.13-4.59,3.83-10.28,10.28-12.67c2-0.88,4.12-1.46,6.27-1.74
	c0.95-0.12,1.91-0.18,2.86-0.18c11.32,0,20.94,8.48,22.38,19.74c0.16,1.15,0.21,3.23-1.03,4.88c3.72,1.48,6.65,3.72,8.68,6.7
	c4.93,7.2,4.33,16.79-1.45,23.34c-0.21,0.23-0.44,0.44-0.69,0.62c-0.54,0.38-1.97,1.26-3.68,1.26c-2.33,0-4.69-1.68-4.82-4.91
	c-0.13-1.03-1.22-7.91-6.92-8.6c-0.34,0-1.94,0.07-2.98,1.19c-1.03,1.11-1.47,3.16-1.26,5.94c0.02,0.21,0.03,0.16,0.02,0.3
	c0.07,0.5,0.62,2.9,4.46,5.5c13.59,5.47,20.98,20.16,17.21,34.36c-0.02,0.09-0.05,0.18-0.08,0.27c-0.72,2.11-2.54,3.48-4.61,3.48
	c-1.14,0-2.81-0.42-4.28-2.39c-0.15-0.2-0.28-0.42-0.39-0.65c-1.45-3.01-4.55-4.96-7.89-4.96c-0.11,0-0.22,0-0.33,0.01
	c-0.17,0.01-0.29,0.02-0.4,0.02c-0.14,0-0.26-0.01-0.45-0.07c-0.03,0-0.07,0-0.12,0c-1.01,0-4.73,0.39-10.27,5.43
	c-0.92,0.83-12.58,10.91-40.76,10.91c-2.35,0-4.77-0.07-7.24-0.21c2.89,5.79,9.17,14.1,21.46,14.1c0.14,0,0.3,0.01,0.43,0.02
	c0,0,0.37,0.04,0.94,0.04c1.4,0,2.69-0.23,3.54-0.62c0.8-0.38,1.08-0.78,1.12-1.65c0-0.06,0.01-0.11,0.01-0.17
	c0.16-1.7-0.48-3.43-1.71-4.62c-0.11-0.1-0.21-0.21-0.3-0.33c-1.42-1.72-1.78-3.8-0.96-5.55c0.38-0.81,1.59-2.68,4.63-2.68
	c0.26,0,0.54,0.01,0.83,0.04c1.2,0.08,7.1,0.7,11.21,5.69c2.81,3.42,4.01,7.92,3.59,13.42c2.54,1.68,6.81,3.93,10.68,3.93
	c2.79,0,4.95-1.14,6.76-3.59c0.76-1.3,2.28-3.19,4.74-3.19c0.66,0,3.99,0.23,4.73,4.74c1.91,12.23-4.11,24.27-14.99,30.09
	c0,0.14,0.02,0.41,0.15,0.84c0.14,0.38,0.83,1.92,2.31,1.92c0.55,0,1.51-0.17,2.96-0.96c0.59-0.36,1.87-1.01,3.33-1.01
	c2.11,0,3.91,1.35,4.48,3.37c0.1,0.34,0.15,0.69,0.15,1.05c0.04,2.61-0.39,5.15-1.21,7.54h31.17V422.34z M395.49,399.3
	c0.01,0,0.03,0,0.04,0c-0.01,0-0.02,0-0.03,0C395.5,399.3,395.5,399.3,395.49,399.3z M188.31,373L188.31,373
	c-0.29,0.28-0.57,0.57-0.83,0.87C187.74,373.57,188.02,373.28,188.31,373z M287.63,394.73c0.03,0,0.06,0,0.1,0
	c-0.02,0-0.03,0.01-0.05,0.01C287.66,394.73,287.65,394.73,287.63,394.73z M357.98,405.44c0.23,0,0.47,0,0.7-0.01
	c-0.17,0-0.33,0.02-0.5,0.02C358.12,405.45,358.05,405.44,357.98,405.44z M381.22,399.48c0.02,0,0.04,0,0.04,0
	S381.25,399.48,381.22,399.48C381.22,399.48,381.22,399.48,381.22,399.48z M597.66,371.57c0,0.33-0.02,0.66-0.06,0.99
	C597.64,372.23,597.66,371.9,597.66,371.57c0,0,0-0.01,0-0.02C597.66,371.56,597.66,371.57,597.66,371.57z M579.21,249.1
	c0.9-1.4,1.24-2.74,1-3.99c9.19,8.6,5.54,23.84,5.5,24.01c-0.01,0.03-0.02,0.06-0.02,0.1c-1.57,7.06-9.82,18.91-47.39,18.91
	c-9.3,0-16.29-0.82-16.36-0.82c-0.04,0-0.08-0.01-0.12-0.01c-1.6-0.14-3.25-0.27-4.96-0.39c9.26-1.9,21.1-6.31,28.91-16.56
	c1.13-1.33,1.7-2.76,1.66-4.12C571.04,263.22,577.95,251.68,579.21,249.1z M535.75,262.93c-0.1,0-0.19,0-0.29,0
	c-0.08,0-0.17,0-0.25,0C535.39,262.93,535.56,262.93,535.75,262.93z M564.65,306.79c0.92,0,1.83-0.01,2.72-0.03
	c-0.84,0.02-1.7,0.03-2.58,0.03C564.75,306.79,564.7,306.79,564.65,306.79z M569.23,373c2.56-1.24,4.37-2.25,4.99-2.6
	c3.81-1.64,7.86-2.48,12.02-2.49c5.29,0.15,7.3,2.07,7.42,3.69c-0.01,0.48-0.1,0.95-0.22,1.4h-3.2c-2.54-2.25-5.83-3.54-9.29-3.54
	c-0.17,0-0.33,0-0.5,0.01c-3.81,0.09-7.35,1.38-10.23,3.53H569.23z M542.77,265.87c-0.06,0-0.13,0-0.2,0c0.02,0,0.05-0.01,0.08-0.01
	C542.69,265.86,542.73,265.87,542.77,265.87z M541.37,266.07C541.36,266.07,541.36,266.07,541.37,266.07
	c-0.01,0-0.06,0.02-0.16,0.05C541.31,266.09,541.36,266.07,541.37,266.07C541.36,266.07,541.36,266.07,541.37,266.07z
	 M622.19,365.25c-0.18,0.08-0.33,0.16-0.42,0.21C621.86,365.41,622.01,365.33,622.19,365.25z M575.68,245.45c-0.04,0-0.09,0-0.13,0
	c0.03,0,0.06-0.01,0.08-0.01C575.65,245.45,575.67,245.45,575.68,245.45z M621.69,365.51c0,0-0.01,0-0.01,0.01
	C621.68,365.51,621.69,365.51,621.69,365.51c0,0,0.02-0.01,0.05-0.03C621.72,365.49,621.69,365.51,621.69,365.51z M586.73,313.13
	c-0.09,0-0.16,0-0.24,0.01c0.07,0,0.13-0.01,0.21-0.01C586.71,313.13,586.72,313.13,586.73,313.13z M593.66,371.5
	c0,0.02,0,0.03,0,0.03C593.66,371.53,593.66,371.5,593.66,371.5C593.66,371.5,593.66,371.5,593.66,371.5z M622.85,365.06
	c-0.2,0.02-0.41,0.09-0.59,0.17C622.44,365.15,622.65,365.08,622.85,365.06z M495.32,255.45c0,0-0.02,0.01-0.04,0.03
	C495.3,255.46,495.32,255.45,495.32,255.45L495.32,255.45z M487.18,324.26c3.53,1.08,6.31,2.26,8.41,3.35
	c5.39,2.79,7.55,5.46,7.77,5.74c0.03,0.04,0.02,0.03,0.06,0.09c8.44,11.44,3.31,25.86,2.61,27.65c-2.11,3.77-3.5,7.8-4.18,11.92
	h-6.25c0.7-2.09,0.01-3.6-0.48-4.32c-0.87-1.27-2.33-2-3.99-2c-0.87,0-1.65,0.19-2.08,0.32c-1.44,0.35-2.77,0.53-3.96,0.53
	c-3.51,0-5.8-1.53-7.21-4.81c-1.12-2.6-1.22-5.35-1.23-5.62c0.25-10.44,7.24-11.04,7.54-11.06c0.15-0.01,0.34-0.01,0.53-0.01
	c2.09,0,4.08,0.66,5.78,1.9c1.16,0.92,2.32,1.37,3.54,1.37c1.33,0,2.59-0.57,3.46-1.57c1.42-1.63,1.42-3.89,1.27-5.19
	C498.4,336.79,495.89,329.57,487.18,324.26z M490.01,290.09c-0.13,0-0.26,0-0.4,0c0.11,0,0.21,0,0.32,0
	C489.95,290.09,489.98,290.09,490.01,290.09z M494.05,345.29c-0.01,0-0.02,0-0.04,0c0.03,0,0.05-0.01,0.07-0.01
	C494.08,345.28,494.07,345.29,494.05,345.29z M478.44,228.94c-3.29-2.45-6.66-4.79-10.1-7.03
	C471.78,224.15,475.15,226.49,478.44,228.94c1.86,1.46,3.8,2.83,5.79,4.09C482.24,231.77,480.3,230.4,478.44,228.94z M502.95,284.3
	c-0.4,0-0.8-0.02-1.19-0.03c0.48,0.01,0.96,0.03,1.44,0.03C503.11,284.3,503.03,284.3,502.95,284.3z M503.73,284.31
	c-0.09,0-0.17,0-0.24,0c0.08,0,0.18,0,0.29,0C503.77,284.31,503.75,284.31,503.73,284.31z M546.16,244.49
	c-7.89,0-15.78-0.64-23.56-1.92c9.27-4.86,18.63-7.32,27.93-7.32c11.58,0,20.31,3.89,24.51,6.23c-0.93,0.09-1.83,0.37-2.41,0.58
	C563.91,243.67,555.01,244.49,546.16,244.49z M463.44,239.06c-1.06-1.56-2.08-3.15-3.07-4.76c0,0,0,0,0,0
	C461.36,235.91,462.38,237.5,463.44,239.06z M515.8,245.37c-1.35-0.28-2.7-0.58-4.05-0.89c0.81-0.56,1.62-1.09,2.43-1.61
	c-0.81,0.52-1.61,1.05-2.43,1.61C513.1,244.8,514.45,245.09,515.8,245.37z M512.19,266.28c-8.46,0-15.46-1.33-20.91-3.96
	c1.74-0.96,3.2-1.78,4.25-2.38c6.24,2.75,12.81,4.57,19.55,5.43c1.52,0.22,3.02,0.41,4.49,0.58
	C517.18,266.16,514.7,266.28,512.19,266.28z"/>
</svg>
