<?xml version="1.0" encoding="utf-8"?>
<!-- Created by @FCLOGO 2024-10-16 GMT+8 9:58:39 . https://fclogo.top/ -->
<!-- FOR PERSONAL USE ONLY NOT FOR COMMERCIAL USE -->
<svg version="1.1" xmlns="http://www.w3.org/2000/svg" xmlns:xlink="http://www.w3.org/1999/xlink" x="0px" y="0px"
	 viewBox="0 0 800 800" style="enable-background:new 0 0 800 800;" xml:space="preserve">
<path style="fill:#CCCCCC;" d="M348.22,774.3c-0.79,0-1.38-0.22-1.77-0.65c-0.39-0.44-0.53-1.03-0.41-1.79l0.25-1.65
	c0.12-0.75,0.45-1.35,0.98-1.78c0.53-0.44,1.19-0.65,1.98-0.65c0.76,0,1.33,0.2,1.72,0.6c0.39,0.4,0.55,0.94,0.47,1.62h-1.24
	c0.03-0.36-0.06-0.64-0.26-0.84c-0.2-0.2-0.5-0.3-0.89-0.3c-0.42,0-0.76,0.12-1.03,0.35c-0.27,0.23-0.43,0.56-0.5,0.99l-0.26,1.66
	c-0.07,0.44-0.01,0.77,0.19,1c0.19,0.23,0.5,0.35,0.92,0.35c0.39,0,0.72-0.1,0.98-0.3c0.26-0.2,0.44-0.48,0.52-0.85h1.24
	c-0.14,0.69-0.47,1.23-0.99,1.63C349.61,774.1,348.97,774.3,348.22,774.3z M352.8,774.19l1-6.29h1.19l-0.19,1.19
	c0.34-0.87,0.97-1.3,1.91-1.3c0.67,0,1.17,0.21,1.49,0.62c0.32,0.42,0.43,0.99,0.31,1.71l-0.07,0.42h-1.27l0.06-0.32
	c0.07-0.45,0.01-0.8-0.17-1.04c-0.18-0.24-0.48-0.36-0.88-0.36c-0.4,0-0.74,0.12-1.01,0.37c-0.27,0.24-0.43,0.59-0.5,1.03
	l-0.63,3.97H352.8z M361.91,774.3c-0.77,0-1.35-0.22-1.73-0.67c-0.38-0.45-0.51-1.04-0.4-1.77l0.25-1.65
	c0.08-0.49,0.26-0.92,0.52-1.28c0.26-0.37,0.6-0.65,1.01-0.85c0.41-0.2,0.87-0.3,1.38-0.3c0.77,0,1.35,0.22,1.73,0.67
	c0.39,0.45,0.52,1.04,0.39,1.77l-0.17,1.12h-3.85l-0.09,0.53c-0.15,0.95,0.22,1.43,1.11,1.43c0.72,0,1.17-0.25,1.37-0.74h1.22
	c-0.17,0.53-0.5,0.96-1.01,1.28C363.16,774.14,362.58,774.3,361.91,774.3z M361.23,770.22l-0.05,0.29l2.65-0.01l0.05-0.29
	c0.07-0.47,0.01-0.82-0.17-1.07c-0.18-0.25-0.49-0.37-0.92-0.37c-0.44,0-0.8,0.13-1.06,0.38
	C361.48,769.39,361.31,769.75,361.23,770.22z M368.33,774.3c-0.63,0-1.1-0.21-1.41-0.64c-0.31-0.42-0.4-1-0.27-1.73l0.27-1.77
	c0.11-0.73,0.39-1.31,0.84-1.74c0.44-0.43,0.98-0.64,1.61-0.64c0.47,0,0.83,0.12,1.09,0.35c0.26,0.24,0.39,0.56,0.38,0.96h0.02
	l0.17-1.2h1.24l-1,6.29h-1.22l0.19-1.2h-0.02c-0.12,0.41-0.35,0.73-0.69,0.97C369.2,774.18,368.8,774.3,368.33,774.3z
	 M368.93,773.23c0.39,0,0.72-0.12,0.98-0.36c0.26-0.24,0.43-0.57,0.5-1.01l0.25-1.65c0.07-0.43,0.01-0.76-0.18-1
	c-0.19-0.24-0.47-0.36-0.86-0.36c-0.4,0-0.72,0.12-0.98,0.35c-0.26,0.24-0.42,0.57-0.49,1.01l-0.25,1.65
	c-0.07,0.44-0.01,0.78,0.17,1.01C368.24,773.11,368.53,773.23,368.93,773.23z M376.35,774.19c-0.57,0-0.99-0.16-1.26-0.47
	c-0.27-0.31-0.36-0.75-0.27-1.32l0.54-3.39h-1.74l0.17-1.12h1.74l0.27-1.72h1.24l-0.27,1.72h2.47l-0.18,1.12h-2.46l-0.54,3.39
	c-0.08,0.44,0.1,0.66,0.53,0.66h1.72l-0.17,1.12H376.35z M382.5,774.3c-0.77,0-1.35-0.22-1.73-0.67c-0.38-0.45-0.52-1.04-0.4-1.77
	l0.25-1.65c0.08-0.49,0.26-0.92,0.52-1.28c0.26-0.37,0.6-0.65,1.01-0.85c0.41-0.2,0.87-0.3,1.38-0.3c0.77,0,1.35,0.22,1.73,0.67
	c0.39,0.45,0.52,1.04,0.39,1.77l-0.17,1.12h-3.85l-0.09,0.53c-0.15,0.95,0.22,1.43,1.11,1.43c0.72,0,1.17-0.25,1.37-0.74h1.22
	c-0.17,0.53-0.5,0.96-1.01,1.28C383.76,774.14,383.18,774.3,382.5,774.3z M381.83,770.22l-0.05,0.29l2.65-0.01l0.05-0.29
	c0.07-0.47,0.01-0.82-0.17-1.07c-0.18-0.25-0.49-0.37-0.92-0.37c-0.44,0-0.8,0.13-1.06,0.38
	C382.08,769.39,381.91,769.75,381.83,770.22z M388.92,774.3c-0.63,0-1.1-0.21-1.4-0.64c-0.3-0.42-0.39-1-0.28-1.73l0.27-1.77
	c0.11-0.73,0.39-1.31,0.84-1.74c0.44-0.43,0.98-0.64,1.61-0.64c0.47,0,0.83,0.12,1.09,0.35c0.26,0.24,0.39,0.56,0.38,0.96h0.02
	l0.21-1.47l0.3-1.8h1.24l-1.33,8.35h-1.22l0.19-1.2h-0.02c-0.12,0.41-0.35,0.73-0.69,0.97C389.8,774.18,389.4,774.3,388.92,774.3z
	 M389.53,773.23c0.39,0,0.72-0.12,0.98-0.36c0.26-0.24,0.43-0.57,0.5-1.01l0.25-1.65c0.08-0.43,0.02-0.76-0.17-1
	c-0.19-0.24-0.48-0.36-0.87-0.36c-0.4,0-0.72,0.12-0.98,0.35c-0.26,0.24-0.42,0.57-0.49,1.01l-0.25,1.65
	c-0.08,0.44-0.02,0.78,0.16,1.01C388.83,773.11,389.13,773.23,389.53,773.23z M401.02,774.3c-0.47,0-0.84-0.12-1.1-0.35
	c-0.26-0.23-0.39-0.56-0.38-0.97h-0.01l-0.19,1.2h-1.22l1.33-8.35h1.24l-0.29,1.8l-0.27,1.47h0.05c0.12-0.41,0.35-0.73,0.69-0.97
	c0.34-0.23,0.74-0.35,1.21-0.35c0.63,0,1.1,0.21,1.4,0.64c0.3,0.43,0.39,1.01,0.28,1.74l-0.27,1.77c-0.11,0.73-0.39,1.31-0.84,1.73
	C402.18,774.09,401.64,774.3,401.02,774.3z M400.77,773.23c0.4,0,0.72-0.12,0.98-0.35c0.26-0.23,0.42-0.57,0.5-1.01l0.25-1.65
	c0.07-0.43,0.01-0.77-0.17-1.01c-0.18-0.24-0.47-0.35-0.87-0.35c-0.39,0-0.72,0.12-0.98,0.36c-0.26,0.24-0.43,0.57-0.5,1l-0.25,1.65
	c-0.07,0.44-0.01,0.77,0.17,1.01C400.08,773.11,400.37,773.23,400.77,773.23z M405.47,776.25l0.17-1.06h1.93
	c0.64,0,1.01-0.3,1.1-0.9l0.1-0.67l0.21-1.19h-0.03c-0.12,0.42-0.35,0.74-0.68,0.97c-0.33,0.23-0.73,0.34-1.2,0.34
	c-0.63,0-1.09-0.2-1.4-0.6c-0.31-0.4-0.41-0.94-0.3-1.63l0.58-3.6h1.24l-0.56,3.48c-0.06,0.41,0,0.73,0.18,0.96
	c0.18,0.23,0.47,0.34,0.85,0.34c0.39,0,0.72-0.12,0.98-0.37c0.27-0.24,0.43-0.58,0.49-1.02l0.54-3.4h1.24l-1.01,6.41
	c-0.1,0.6-0.37,1.08-0.81,1.42c-0.44,0.35-1,0.52-1.67,0.52H405.47z M417.79,770.09h3.22l0.54-1.85h-5.47l-1.71,6.44h2.15l0.59-2.1
	h3.03l0.44-1.71h-3.03L417.79,770.09z M424.23,772.92c-0.59,0-1.02-0.39-1.02-1.12c0-0.88,0.63-1.76,1.61-1.76
	c0.49,0,0.88,0.24,1.02,0.78l1.95-0.83c-0.29-1.17-1.27-1.9-2.64-1.9c-2.78,0-4.15,2.15-4.15,3.9c0,1.76,1.27,2.83,3.07,2.83
	c1.37,0,2.34-0.59,2.98-1.42l-1.51-1.17C425.16,772.67,424.72,772.92,424.23,772.92z M430.91,768.23h-2.15l-1.76,6.44h5.12
	l0.49-1.85h-2.93L430.91,768.23z M439.75,771.01c0-1.66-1.32-2.93-3.22-2.93c-2.2,0-3.81,1.81-3.81,3.81c0,1.66,1.32,2.93,3.22,2.93
	C438.14,774.82,439.75,773.01,439.75,771.01z M434.92,771.7c0-0.83,0.59-1.71,1.51-1.71c0.78,0,1.17,0.54,1.17,1.22
	c0,0.83-0.59,1.71-1.51,1.71C435.31,772.92,434.92,772.38,434.92,771.7z M443.21,772.23h1.07l-0.2,0.68
	c-0.15,0.05-0.34,0.1-0.59,0.1c-0.68,0-1.27-0.39-1.27-1.22c0-1.02,0.73-1.9,1.95-1.9c0.59,0,1.12,0.24,1.51,0.59l1.37-1.37
	c-0.44-0.54-1.51-1.07-2.73-1.07c-2.59,0-4.29,1.76-4.29,3.86c0,2.05,1.61,2.88,3.22,2.88c0.93,0,1.85-0.29,2.49-0.68l0.93-3.32
	h-3.12L443.21,772.23z M450.78,768.08c-2.2,0-3.81,1.81-3.81,3.81c0,1.66,1.32,2.93,3.22,2.93c2.2,0,3.81-1.81,3.81-3.81
	C454,769.35,452.68,768.08,450.78,768.08z M450.34,772.92c-0.78,0-1.17-0.54-1.17-1.22c0-0.83,0.59-1.71,1.51-1.71
	c0.78,0,1.17,0.54,1.17,1.22C451.85,772.04,451.27,772.92,450.34,772.92z M437.94,767.5c-0.05,0.29,0.1,0.49,0.44,0.49
	s0.54-0.2,0.63-0.49c0.05-0.24-0.1-0.49-0.44-0.49C438.24,767.01,437.99,767.25,437.94,767.5z M432.13,765.5
	c-0.44,0-0.73,0.24-0.78,0.59c-0.05,0.34,0.1,0.59,0.54,0.59s0.73-0.24,0.78-0.59C432.77,765.74,432.57,765.5,432.13,765.5z
	 M433.01,767.3c-0.1,0.54,0.15,0.88,0.83,0.88c0.63,0,1.07-0.39,1.17-0.88s-0.15-0.88-0.83-0.88
	C433.5,766.43,433.11,766.82,433.01,767.3z M439.6,777.55l-2.44-1.81h-1.51l4.25,3.17l1.61-3.17h-0.98L439.6,777.55z M425.84,767.16
	l-2-1.46l23.13-2.78l-2.15,4.25h1.02l2.68-5.32l-26.99,3.22l2.78,2.1H425.84z M338.72,785.79l0.61-3.83h2.32l-0.08,0.52h-1.76
	l-0.18,1.14h1.63l-0.08,0.52h-1.62l-0.26,1.64H338.72z M342.97,785.84c-0.36,0-0.62-0.1-0.8-0.3c-0.17-0.2-0.23-0.47-0.18-0.82
	l0.27-1.7c0.06-0.34,0.2-0.61,0.44-0.82c0.24-0.2,0.54-0.3,0.89-0.3c0.36,0,0.62,0.1,0.8,0.3c0.17,0.2,0.24,0.47,0.18,0.81
	l-0.27,1.71c-0.06,0.34-0.2,0.62-0.44,0.82C343.63,785.74,343.33,785.84,342.97,785.84z M343.05,785.33c0.19,0,0.35-0.05,0.47-0.16
	c0.12-0.11,0.19-0.26,0.23-0.46l0.27-1.7c0.03-0.2,0.01-0.35-0.08-0.46c-0.08-0.11-0.22-0.16-0.41-0.16s-0.35,0.05-0.46,0.16
	c-0.12,0.1-0.19,0.26-0.22,0.46l-0.27,1.7c-0.03,0.2-0.01,0.35,0.08,0.46C342.72,785.28,342.86,785.33,343.05,785.33z M345,785.79
	l0.61-3.83h1.2c0.24,0,0.44,0.05,0.6,0.14c0.16,0.09,0.28,0.22,0.36,0.39c0.07,0.17,0.09,0.37,0.05,0.59
	c-0.04,0.26-0.14,0.48-0.3,0.67c-0.16,0.19-0.37,0.32-0.6,0.39l0.54,1.64h-0.62l-0.48-1.57h-0.54l-0.25,1.57H345z M345.89,783.71
	h0.64c0.19,0,0.35-0.06,0.48-0.17c0.13-0.11,0.21-0.26,0.24-0.45c0.03-0.19,0-0.35-0.09-0.46c-0.09-0.11-0.24-0.17-0.43-0.17h-0.64
	L345.89,783.71z M349.54,785.79l0.61-3.83h1.25c0.37,0,0.65,0.1,0.84,0.31c0.19,0.21,0.26,0.49,0.2,0.84
	c-0.04,0.23-0.12,0.44-0.25,0.61s-0.29,0.31-0.49,0.4c-0.2,0.09-0.42,0.14-0.66,0.14h-0.69l-0.24,1.52H349.54z M350.43,783.75h0.69
	c0.19,0,0.36-0.06,0.49-0.18c0.14-0.12,0.22-0.27,0.25-0.47c0.03-0.2,0-0.35-0.1-0.47c-0.1-0.12-0.25-0.18-0.44-0.18h-0.69
	L350.43,783.75z M352.75,785.79l0.61-3.83h2.25l-0.08,0.5h-1.7l-0.17,1.09h1.51l-0.08,0.5h-1.51l-0.19,1.24h1.69l-0.08,0.5H352.75z
	 M355.84,785.79l0.61-3.83h1.2c0.24,0,0.44,0.05,0.6,0.14c0.16,0.09,0.28,0.22,0.36,0.39c0.07,0.17,0.09,0.37,0.05,0.59
	c-0.04,0.26-0.14,0.48-0.3,0.67c-0.16,0.19-0.37,0.32-0.6,0.39l0.54,1.64h-0.62l-0.48-1.57h-0.54l-0.25,1.57H355.84z M356.74,783.71
	h0.64c0.19,0,0.35-0.06,0.48-0.17c0.13-0.11,0.21-0.26,0.24-0.45c0.03-0.19,0-0.35-0.09-0.46c-0.09-0.11-0.24-0.17-0.43-0.17h-0.64
	L356.74,783.71z M360.13,785.84c-0.39,0-0.67-0.1-0.87-0.29c-0.19-0.19-0.26-0.45-0.22-0.78h0.57c-0.03,0.17,0.01,0.31,0.12,0.41
	c0.11,0.1,0.27,0.15,0.48,0.15c0.2,0,0.37-0.05,0.5-0.15c0.13-0.1,0.21-0.23,0.24-0.4c0.02-0.15,0-0.28-0.06-0.39
	c-0.06-0.11-0.16-0.18-0.29-0.22l-0.46-0.14c-0.27-0.08-0.46-0.22-0.59-0.41c-0.13-0.19-0.17-0.42-0.13-0.68
	c0.04-0.21,0.11-0.39,0.23-0.55c0.12-0.16,0.27-0.28,0.46-0.37c0.19-0.09,0.4-0.13,0.64-0.13c0.35,0,0.62,0.1,0.8,0.29
	c0.18,0.19,0.25,0.44,0.2,0.76h-0.57c0.03-0.17,0-0.3-0.09-0.4c-0.09-0.1-0.23-0.14-0.42-0.14c-0.19,0-0.34,0.04-0.46,0.13
	c-0.12,0.09-0.19,0.21-0.21,0.38c-0.02,0.15-0.01,0.28,0.05,0.39c0.06,0.11,0.16,0.18,0.29,0.22l0.47,0.15
	c0.26,0.08,0.46,0.22,0.58,0.41c0.12,0.19,0.17,0.42,0.12,0.69c-0.04,0.22-0.12,0.41-0.24,0.57c-0.13,0.16-0.29,0.29-0.49,0.38
	C360.6,785.79,360.38,785.84,360.13,785.84z M363.27,785.84c-0.36,0-0.62-0.1-0.8-0.3c-0.17-0.2-0.23-0.47-0.18-0.82l0.27-1.7
	c0.06-0.34,0.2-0.61,0.44-0.82c0.24-0.2,0.54-0.3,0.89-0.3c0.36,0,0.62,0.1,0.8,0.3c0.17,0.2,0.24,0.47,0.18,0.81l-0.27,1.71
	c-0.06,0.34-0.2,0.62-0.44,0.82C363.92,785.74,363.62,785.84,363.27,785.84z M363.34,785.33c0.19,0,0.35-0.05,0.47-0.16
	c0.12-0.11,0.19-0.26,0.23-0.46l0.27-1.7c0.03-0.2,0.01-0.35-0.08-0.46c-0.08-0.11-0.22-0.16-0.41-0.16c-0.19,0-0.35,0.05-0.46,0.16
	c-0.12,0.1-0.19,0.26-0.22,0.46l-0.27,1.7c-0.03,0.2-0.01,0.35,0.08,0.46C363.02,785.28,363.15,785.33,363.34,785.33z
	 M365.28,785.79l0.61-3.83h0.71l0.62,3.19c0.01-0.1,0.02-0.22,0.03-0.36c0.01-0.14,0.03-0.29,0.04-0.44
	c0.02-0.15,0.04-0.29,0.06-0.41l0.31-1.98h0.52l-0.61,3.83h-0.71l-0.61-3.19c-0.01,0.09-0.02,0.21-0.03,0.34s-0.03,0.28-0.04,0.42
	c-0.02,0.15-0.04,0.28-0.06,0.41l-0.31,2.01H365.28z M368.23,785.79l1.59-3.83h0.75l0.37,3.83h-0.56l-0.07-0.97h-1.09l-0.39,0.97
	H368.23z M369.39,784.34h0.87l-0.09-1.1c-0.02-0.2-0.03-0.37-0.04-0.51c-0.01-0.14-0.01-0.24-0.01-0.3c-0.02,0.06-0.05,0.16-0.1,0.3
	c-0.05,0.14-0.11,0.31-0.19,0.5L369.39,784.34z M371.72,785.79l0.61-3.83h0.57l-0.52,3.31h1.67l-0.08,0.52H371.72z M376.68,785.84
	c-0.37,0-0.63-0.1-0.8-0.3c-0.17-0.2-0.22-0.48-0.17-0.82l0.44-2.76h0.57l-0.44,2.76c-0.03,0.2-0.01,0.35,0.07,0.46
	c0.08,0.11,0.21,0.17,0.41,0.17c0.19,0,0.35-0.06,0.46-0.17c0.12-0.11,0.19-0.27,0.22-0.46l0.44-2.76h0.57l-0.44,2.76
	c-0.06,0.35-0.2,0.62-0.43,0.82C377.35,785.74,377.05,785.84,376.68,785.84z M379.84,785.84c-0.39,0-0.67-0.1-0.87-0.29
	c-0.19-0.19-0.26-0.45-0.22-0.78h0.57c-0.03,0.17,0.01,0.31,0.12,0.41c0.11,0.1,0.27,0.15,0.48,0.15c0.2,0,0.37-0.05,0.5-0.15
	c0.13-0.1,0.21-0.23,0.24-0.4c0.02-0.15,0-0.28-0.06-0.39c-0.06-0.11-0.16-0.18-0.29-0.22l-0.46-0.14
	c-0.27-0.08-0.46-0.22-0.59-0.41c-0.13-0.19-0.17-0.42-0.13-0.68c0.04-0.21,0.11-0.39,0.23-0.55s0.27-0.28,0.46-0.37
	c0.19-0.09,0.4-0.13,0.64-0.13c0.35,0,0.62,0.1,0.8,0.29c0.18,0.19,0.25,0.44,0.2,0.76h-0.57c0.03-0.17,0-0.3-0.09-0.4
	c-0.09-0.1-0.23-0.14-0.42-0.14c-0.19,0-0.34,0.04-0.46,0.13c-0.12,0.09-0.19,0.21-0.21,0.38c-0.02,0.15-0.01,0.28,0.05,0.39
	c0.06,0.11,0.16,0.18,0.29,0.22l0.47,0.15c0.26,0.08,0.46,0.22,0.58,0.41c0.12,0.19,0.17,0.42,0.12,0.69
	c-0.04,0.22-0.12,0.41-0.24,0.57c-0.13,0.16-0.29,0.29-0.49,0.38C380.31,785.79,380.09,785.84,379.84,785.84z M381.91,785.79
	l0.61-3.83h2.25l-0.08,0.5h-1.7l-0.17,1.09h1.51l-0.08,0.5h-1.51l-0.19,1.24h1.69l-0.08,0.5H381.91z M386.94,785.84
	c-0.36,0-0.62-0.1-0.8-0.3c-0.17-0.2-0.23-0.47-0.18-0.82l0.27-1.7c0.06-0.34,0.2-0.61,0.44-0.82c0.24-0.2,0.54-0.3,0.89-0.3
	c0.36,0,0.62,0.1,0.8,0.3c0.17,0.2,0.24,0.47,0.18,0.81l-0.27,1.71c-0.06,0.34-0.2,0.62-0.44,0.82
	C387.6,785.74,387.3,785.84,386.94,785.84z M387.02,785.33c0.19,0,0.35-0.05,0.47-0.16c0.12-0.11,0.19-0.26,0.23-0.46l0.27-1.7
	c0.03-0.2,0.01-0.35-0.08-0.46c-0.08-0.11-0.22-0.16-0.41-0.16c-0.19,0-0.35,0.05-0.46,0.16c-0.12,0.1-0.19,0.26-0.22,0.46
	l-0.27,1.7c-0.03,0.2-0.01,0.35,0.08,0.46C386.7,785.28,386.83,785.33,387.02,785.33z M388.95,785.79l0.61-3.83h0.71l0.62,3.19
	c0.01-0.1,0.02-0.22,0.03-0.36c0.01-0.14,0.03-0.29,0.04-0.44c0.02-0.15,0.04-0.29,0.06-0.41l0.31-1.98h0.52l-0.61,3.83h-0.71
	l-0.61-3.19c-0.01,0.09-0.02,0.21-0.03,0.34c-0.01,0.13-0.03,0.28-0.04,0.42c-0.02,0.15-0.04,0.28-0.06,0.41l-0.31,2.01H388.95z
	 M392.25,785.79l0.61-3.83h0.57l-0.52,3.31h1.67l-0.08,0.52H392.25z M396.12,785.79l0.22-1.41l-0.75-2.42h0.58l0.45,1.45
	c0.03,0.09,0.05,0.18,0.07,0.27c0.02,0.08,0.03,0.15,0.03,0.19c0.02-0.04,0.05-0.1,0.09-0.19c0.04-0.08,0.09-0.17,0.14-0.27
	l0.9-1.45h0.6l-1.53,2.42l-0.22,1.41H396.12z M399.22,785.79l0.61-3.83h0.71l0.62,3.19c0.01-0.1,0.02-0.22,0.03-0.36
	c0.01-0.14,0.03-0.29,0.04-0.44c0.02-0.15,0.04-0.29,0.06-0.41l0.31-1.98h0.52l-0.61,3.83h-0.71l-0.61-3.19
	c-0.01,0.09-0.02,0.21-0.03,0.34c-0.01,0.13-0.03,0.28-0.04,0.42c-0.02,0.15-0.04,0.28-0.06,0.41l-0.31,2.01H399.22z M403.51,785.84
	c-0.36,0-0.62-0.1-0.8-0.3c-0.18-0.2-0.23-0.47-0.18-0.82l0.27-1.7c0.06-0.34,0.2-0.61,0.44-0.82c0.24-0.2,0.54-0.3,0.89-0.3
	c0.36,0,0.62,0.1,0.8,0.3c0.17,0.2,0.24,0.47,0.18,0.81l-0.27,1.71c-0.06,0.34-0.2,0.62-0.44,0.82
	C404.16,785.74,403.86,785.84,403.51,785.84z M403.58,785.33c0.19,0,0.35-0.05,0.47-0.16c0.12-0.11,0.19-0.26,0.23-0.46l0.27-1.7
	c0.03-0.2,0.01-0.35-0.08-0.46c-0.08-0.11-0.22-0.16-0.41-0.16c-0.19,0-0.35,0.05-0.46,0.16c-0.12,0.1-0.19,0.26-0.22,0.46
	l-0.27,1.7c-0.03,0.2-0.01,0.35,0.08,0.46C403.26,785.28,403.4,785.33,403.58,785.33z M406.38,785.79l0.52-3.31h-1.02l0.08-0.52
	h2.62l-0.08,0.52h-1.03l-0.52,3.31H406.38z M409.52,785.79l0.61-3.83h2.32l-0.08,0.52h-1.76l-0.18,1.14h1.63l-0.08,0.52h-1.62
	l-0.26,1.64H409.52z M413.77,785.84c-0.36,0-0.62-0.1-0.8-0.3c-0.18-0.2-0.23-0.47-0.18-0.82l0.27-1.7c0.06-0.34,0.2-0.61,0.44-0.82
	c0.24-0.2,0.54-0.3,0.89-0.3c0.36,0,0.62,0.1,0.8,0.3c0.17,0.2,0.24,0.47,0.18,0.81l-0.27,1.71c-0.06,0.34-0.2,0.62-0.44,0.82
	C414.42,785.74,414.13,785.84,413.77,785.84z M413.85,785.33c0.19,0,0.35-0.05,0.47-0.16c0.12-0.11,0.19-0.26,0.23-0.46l0.27-1.7
	c0.03-0.2,0.01-0.35-0.08-0.46c-0.08-0.11-0.22-0.16-0.41-0.16c-0.19,0-0.35,0.05-0.46,0.16c-0.12,0.1-0.19,0.26-0.22,0.46
	l-0.27,1.7c-0.03,0.2-0.01,0.35,0.08,0.46C413.52,785.28,413.66,785.33,413.85,785.33z M415.8,785.79l0.61-3.83h1.2
	c0.24,0,0.44,0.05,0.6,0.14c0.16,0.09,0.28,0.22,0.36,0.39c0.07,0.17,0.09,0.37,0.05,0.59c-0.04,0.26-0.14,0.48-0.3,0.67
	c-0.16,0.19-0.37,0.32-0.6,0.39l0.54,1.64h-0.62l-0.48-1.57h-0.54l-0.25,1.57H415.8z M416.69,783.71h0.64
	c0.19,0,0.35-0.06,0.48-0.17c0.13-0.11,0.21-0.26,0.24-0.45c0.03-0.19,0-0.35-0.09-0.46c-0.09-0.11-0.24-0.17-0.43-0.17h-0.64
	L416.69,783.71z M420.91,785.84c-0.36,0-0.63-0.1-0.81-0.3c-0.18-0.2-0.24-0.47-0.19-0.82l0.27-1.7c0.06-0.35,0.21-0.62,0.45-0.82
	s0.55-0.3,0.91-0.3c0.36,0,0.63,0.1,0.81,0.3c0.18,0.2,0.24,0.47,0.19,0.82h-0.57c0.03-0.2,0-0.35-0.09-0.46
	c-0.09-0.11-0.23-0.16-0.42-0.16c-0.19,0-0.35,0.05-0.48,0.16c-0.12,0.1-0.2,0.26-0.23,0.45l-0.27,1.71c-0.03,0.2,0,0.35,0.09,0.46
	c0.09,0.11,0.23,0.16,0.42,0.16c0.19,0,0.35-0.05,0.47-0.16c0.12-0.11,0.2-0.26,0.23-0.46h0.57c-0.03,0.23-0.11,0.43-0.24,0.59
	c-0.12,0.17-0.28,0.3-0.47,0.39C421.36,785.79,421.14,785.84,420.91,785.84z M424.03,785.84c-0.36,0-0.62-0.1-0.8-0.3
	c-0.18-0.2-0.23-0.47-0.18-0.82l0.27-1.7c0.06-0.34,0.2-0.61,0.44-0.82c0.24-0.2,0.54-0.3,0.89-0.3c0.36,0,0.62,0.1,0.8,0.3
	c0.17,0.2,0.24,0.47,0.18,0.81l-0.27,1.71c-0.06,0.34-0.2,0.62-0.44,0.82C424.69,785.74,424.39,785.84,424.03,785.84z
	 M424.11,785.33c0.19,0,0.35-0.05,0.47-0.16c0.12-0.11,0.19-0.26,0.23-0.46l0.27-1.7c0.03-0.2,0.01-0.35-0.08-0.46
	c-0.08-0.11-0.22-0.16-0.41-0.16c-0.19,0-0.35,0.05-0.46,0.16c-0.12,0.1-0.19,0.26-0.22,0.46l-0.27,1.7
	c-0.03,0.2-0.01,0.35,0.08,0.46C423.79,785.28,423.92,785.33,424.11,785.33z M425.97,785.79l0.61-3.83h0.69l0.18,1.23
	c0.02,0.12,0.04,0.23,0.05,0.33c0.01,0.1,0.02,0.18,0.03,0.24c0.02-0.06,0.05-0.14,0.09-0.24c0.04-0.11,0.09-0.22,0.15-0.34
	l0.57-1.22h0.71l-0.61,3.83h-0.54l0.2-1.29c0.02-0.17,0.06-0.35,0.1-0.55c0.04-0.2,0.09-0.4,0.14-0.61c0.05-0.2,0.1-0.4,0.14-0.59
	c0.05-0.19,0.09-0.35,0.13-0.49l-0.86,1.86h-0.55l-0.28-1.86c0,0.14-0.01,0.29-0.02,0.47c-0.01,0.18-0.02,0.37-0.04,0.57
	c-0.02,0.2-0.04,0.41-0.06,0.61c-0.02,0.2-0.05,0.4-0.08,0.57l-0.2,1.29H425.97z M429.11,785.79l0.61-3.83h0.69l0.18,1.23
	c0.02,0.12,0.04,0.23,0.05,0.33c0.01,0.1,0.02,0.18,0.03,0.24c0.02-0.06,0.05-0.14,0.09-0.24c0.04-0.11,0.09-0.22,0.15-0.34
	l0.57-1.22h0.71l-0.61,3.83h-0.54l0.2-1.29c0.02-0.17,0.06-0.35,0.1-0.55c0.04-0.2,0.09-0.4,0.14-0.61c0.05-0.2,0.1-0.4,0.14-0.59
	c0.05-0.19,0.09-0.35,0.13-0.49l-0.86,1.86h-0.55l-0.28-1.86c0,0.14-0.01,0.29-0.02,0.47c-0.01,0.18-0.02,0.37-0.04,0.57
	c-0.02,0.2-0.04,0.41-0.06,0.61c-0.02,0.2-0.05,0.4-0.08,0.57l-0.2,1.29H429.11z M432.41,785.79l0.61-3.83h2.25l-0.08,0.5h-1.7
	l-0.17,1.09h1.51l-0.08,0.5h-1.51l-0.19,1.24h1.69l-0.08,0.5H432.41z M435.51,785.79l0.61-3.83h1.2c0.24,0,0.44,0.05,0.6,0.14
	c0.16,0.09,0.28,0.22,0.36,0.39c0.07,0.17,0.09,0.37,0.05,0.59c-0.04,0.26-0.14,0.48-0.3,0.67c-0.16,0.19-0.37,0.32-0.6,0.39
	l0.54,1.64h-0.62l-0.48-1.57h-0.54l-0.25,1.57H435.51z M436.4,783.71h0.64c0.19,0,0.35-0.06,0.48-0.17
	c0.13-0.11,0.21-0.26,0.24-0.45c0.03-0.19,0-0.35-0.09-0.46c-0.09-0.11-0.24-0.17-0.43-0.17h-0.64L436.4,783.71z M439.8,785.84
	c-0.36,0-0.63-0.1-0.81-0.3c-0.18-0.2-0.24-0.47-0.19-0.82l0.27-1.7c0.06-0.35,0.21-0.62,0.45-0.82s0.55-0.3,0.91-0.3
	c0.36,0,0.63,0.1,0.81,0.3c0.18,0.2,0.24,0.47,0.19,0.82h-0.57c0.03-0.2,0-0.35-0.09-0.46c-0.09-0.11-0.23-0.16-0.42-0.16
	c-0.19,0-0.35,0.05-0.47,0.16c-0.12,0.1-0.2,0.26-0.23,0.45l-0.27,1.71c-0.03,0.2,0,0.35,0.09,0.46c0.09,0.11,0.23,0.16,0.42,0.16
	s0.35-0.05,0.47-0.16c0.12-0.11,0.2-0.26,0.23-0.46h0.57c-0.03,0.23-0.11,0.43-0.24,0.59c-0.12,0.17-0.28,0.3-0.47,0.39
	C440.25,785.79,440.04,785.84,439.8,785.84z M441.88,785.79l0.08-0.5h0.78l0.45-2.82h-0.78l0.08-0.5h2.13l-0.08,0.5h-0.78
	l-0.45,2.82h0.78l-0.08,0.5H441.88z M444.74,785.79l1.59-3.83h0.75l0.37,3.83h-0.56l-0.07-0.97h-1.09l-0.39,0.97H444.74z
	 M445.9,784.34h0.87l-0.09-1.1c-0.02-0.2-0.03-0.37-0.04-0.51c-0.01-0.14-0.01-0.24-0.01-0.3c-0.02,0.06-0.05,0.16-0.1,0.3
	c-0.05,0.14-0.11,0.31-0.19,0.5L445.9,784.34z M448.24,785.79l0.61-3.83h0.57l-0.52,3.31h1.67l-0.08,0.52H448.24z M453.19,785.84
	c-0.37,0-0.63-0.1-0.8-0.3c-0.17-0.2-0.22-0.48-0.17-0.82l0.44-2.76h0.57l-0.44,2.76c-0.03,0.2-0.01,0.35,0.07,0.46
	c0.08,0.11,0.21,0.17,0.41,0.17c0.19,0,0.35-0.06,0.46-0.17c0.12-0.11,0.19-0.27,0.22-0.46l0.44-2.76h0.57l-0.44,2.76
	c-0.06,0.35-0.2,0.62-0.43,0.82C453.86,785.74,453.56,785.84,453.19,785.84z M456.36,785.84c-0.39,0-0.67-0.1-0.87-0.29
	c-0.19-0.19-0.26-0.45-0.22-0.78h0.57c-0.03,0.17,0.01,0.31,0.12,0.41c0.11,0.1,0.27,0.15,0.48,0.15c0.2,0,0.37-0.05,0.5-0.15
	s0.21-0.23,0.24-0.4c0.02-0.15,0-0.28-0.06-0.39c-0.06-0.11-0.16-0.18-0.29-0.22l-0.46-0.14c-0.27-0.08-0.46-0.22-0.59-0.41
	c-0.13-0.19-0.17-0.42-0.13-0.68c0.04-0.21,0.11-0.39,0.23-0.55c0.12-0.16,0.27-0.28,0.46-0.37c0.19-0.09,0.4-0.13,0.64-0.13
	c0.35,0,0.62,0.1,0.8,0.29c0.18,0.19,0.25,0.44,0.2,0.76h-0.57c0.03-0.17,0-0.3-0.09-0.4c-0.09-0.1-0.23-0.14-0.42-0.14
	c-0.19,0-0.34,0.04-0.46,0.13c-0.12,0.09-0.19,0.21-0.21,0.38c-0.02,0.15-0.01,0.28,0.05,0.39c0.06,0.11,0.16,0.18,0.29,0.22
	l0.47,0.15c0.26,0.08,0.46,0.22,0.58,0.41c0.12,0.19,0.17,0.42,0.12,0.69c-0.04,0.22-0.12,0.41-0.24,0.57
	c-0.13,0.16-0.29,0.29-0.49,0.38C456.82,785.79,456.6,785.84,456.36,785.84z M458.42,785.79l0.61-3.83h2.25l-0.08,0.5h-1.7
	l-0.17,1.09h1.51l-0.08,0.5h-1.51l-0.19,1.24h1.69l-0.08,0.5H458.42z"/>
<path style="fill:#302E57;" d="M662.6,50H110.97v372.34c0,225.42,162.7,283.08,270.5,321.1l18.48,6.56l18.58-6.56
	c107.65-38.02,270.5-95.48,270.5-321.1V50H662.6z M675.74,422.34c0,95.83-29.61,168.21-90.47,221.41
	c-51.65,45.08-115.22,67.52-171.17,87.31l-14.18,5.01l-14.18-5.01c-55.96-19.78-119.52-42.23-171.17-87.31
	c-60.87-53.2-90.47-125.58-90.47-221.41V63.07h538.5h13.14V422.34z M328.33,527.99c-2.32-0.05-4.16-1.98-4.11-4.3
	c0-0.02,0-0.04,0-0.05l0.1,0.14c-0.14-2.4,1.69-4.46,4.1-4.61c0.02,0,0.04,0,0.06,0c2.34,0.08,4.19,2.02,4.16,4.36
	c0.06,2.41-1.85,4.4-4.26,4.46C328.36,527.99,328.35,527.99,328.33,527.99z M465.39,484.31v-39.62c0-5.51,0.7-11.52-4.26-15.03v-0.3
	h27.15v0.3c-5.01,3.31-4.26,9.32-4.26,15.03v39.62c0,5.56-0.7,11.47,4.26,14.78v0.3h-27.15v-0.3
	C466.14,495.78,465.39,489.87,465.39,484.31z M314,542.61c0-5.61-13.37-4.46-13.37-15.03c0.01-2.6,1.21-5.06,3.26-6.66
	c2.24-1.53,4.91-2.31,7.61-2.2c2.52-0.01,5.01,0.45,7.36,1.35v5.46c-1.79-1.32-3.94-2.07-6.16-2.15c-1.7,0-3.81,0.8-3.81,2.96
	c0,2.15,2.55,3.11,4.16,3.81c2.1,0.85,4.06,2.01,5.81,3.46c2.09,1.73,3.29,4.3,3.26,7.01c0.06,2.9-1.23,5.66-3.51,7.46
	c-2.48,1.75-5.49,2.6-8.52,2.4c-2.9-0.02-5.77-0.59-8.47-1.65l-1.45-6.52c2.58,2.19,5.83,3.44,9.22,3.56
	C311.34,545.87,314,545.22,314,542.61z M488.21,518.92c-3.83,0.06-7.34,2.16-9.22,5.51c-1.65,3.22-2.49,6.8-2.45,10.42
	c-0.07,3.77,0.86,7.49,2.7,10.77c1.96,3.09,5.36,4.96,9.02,4.96l-0.14,0.05c3.68-0.19,7.01-2.23,8.87-5.41
	c1.82-3.25,2.72-6.94,2.6-10.67c0.16-3.86-0.84-7.68-2.86-10.97C494.88,520.66,491.67,518.9,488.21,518.92z M488.12,545.07
	c-3.51,0-3.81-7.26-3.81-9.67c-0.13-2.63,0.16-5.27,0.85-7.81c0.5-1.4,1.55-3.26,3.16-3.26c3.66,0,3.71,7.06,3.71,9.62
	C492.03,536.5,491.73,545.07,488.12,545.07z M333.79,549.93h-10.62c1.65-1.5,1.55-2.81,1.55-5.01v-11.07c0-2.15,0-3.51-1.5-5.01
	l6.11-0.05c1.03,0.08,2.07-0.17,2.96-0.7v16.83C332.29,547.07,332.29,548.38,333.79,549.93z M357.88,537.2v7.61
	c0,2.2,0,3.56,1.5,5.01h-10.62c1.65-1.4,1.5-2.76,1.5-5.01v-7.76c0.11-1.02-0.1-2.06-0.6-2.96c-0.46-0.81-1.32-1.3-2.25-1.3
	c-0.8,0.01-1.54,0.4-2,1.05c-0.52,0.98-0.73,2.1-0.6,3.21v7.76c0,2.2,0,3.56,1.55,5.01h-10.67c1.65-1.4,1.55-2.76,1.55-5.01v-11.07
	c0-2.1,0-3.46-1.55-5.01h5.86c1.07,0,2.14-0.24,3.11-0.7l0.15,2.51c1.29-1.66,3.31-2.58,5.41-2.45c2.35-0.14,4.63,0.82,6.16,2.6
	C357.67,532.6,358.21,534.92,357.88,537.2z M296.07,566.26c1.99,1.4,4.17,2.53,6.46,3.36c0,0,19.39,5.31,22.39,30.06
	c-5.92,0.81-11.72,2.32-17.28,4.51c-4.56-2.27-20.69-9.28-14.98-24.51C294.12,575.29,295.26,570.81,296.07,566.26z M488.47,604.19
	c-5.54-2.19-11.33-3.7-17.23-4.51c3-24.75,22.34-30.06,22.34-30.06c2.29-0.83,4.47-1.96,6.46-3.36c0.82,4.55,1.98,9.04,3.46,13.42
	C509.16,594.91,493.03,601.92,488.47,604.19z M253.34,499.24v0.3h30.46v-0.3c-4.32-4.04-7.33-9.27-8.67-15.03l-19.04-54.65h-24.75
	v0.3c2.27,1.25,3.73,3.58,3.86,6.16c-0.43,2.9-1.19,5.74-2.25,8.47l-13.88,42.38c-1.17,4.63-3.58,8.85-6.96,12.22v0.3h20.64v-0.3
	c-2.09-1.29-3.44-3.51-3.61-5.96c0.25-2.61,0.86-5.17,1.8-7.61l2.45-7.26l19.95,0.14l3.36,10.32c0.56,1.26,0.84,2.63,0.8,4.01
	C257.48,495.52,255.86,498.05,253.34,499.24z M236.31,468.38l6.66-20.89l7.06,20.89H236.31z M174.5,168.39
	c-1.79-1.04-2.93-2.94-3.01-5.01c0.2-2.15,0.71-4.26,1.5-6.26l2-5.96l16.48,0.28l2.71,8.42c0.46,1.04,0.68,2.17,0.65,3.31
	c0,2.27-1.3,4.34-3.36,5.31v0.3h25.05v-0.3c-3.48-3.25-5.91-7.48-6.96-12.12l-15.68-45.08h-20.04c1.83,1.03,3.02,2.91,3.16,5.01
	c-0.37,2.4-0.99,4.75-1.85,7.01l-11.42,35.07c-0.95,3.81-2.94,7.28-5.76,10.02v0.3h16.53V168.39z M182.91,126.14l5.81,17.18h-11.27
	L182.91,126.14z M196.38,499.04v0.3h-26.9v-0.3c5.01-3.31,4.26-9.37,4.26-15.03v-39.52c0-5.51,0.7-11.52-4.26-15.03v-0.3h23.79
	c6.14-0.52,12.32,0.34,18.08,2.5c6.09,3.25,9.81,9.68,9.57,16.58c0,15.03-12.12,20.94-24.7,20.94c-1.22,0.04-2.45-0.04-3.66-0.25
	c6.26-2.54,10.26-8.73,10.02-15.48c0-7.56-2.5-13.53-10.37-13.83l-0.29,44.39C191.1,489.43,192.74,494.94,196.38,499.04z
	 M213.55,278.32c0.03-4.73-3.78-8.59-8.52-8.62c-2.88-0.03-5.68,0.95-7.91,2.76c-5.11,3.2-11.76,2.41-15.98-1.9
	c0,0-2.65-2.35,0.55-1.85c0,0,9.72,0.5,9.72-8.52c0,0,0.6-6.66-8.32-7.01c-3.55-0.04-6.99,1.22-9.67,3.56c0,0-1.65,2.15-1.2-1.1
	c0.54-5.17,3.37-9.82,7.71-12.67c2.29-1.8,4.87-3.23,7.61-4.21c3.29-1.4,5.15-4.91,4.46-8.42c-0.62-4-4.23-6.85-8.27-6.51
	c-2.97-0.21-5.87,1-7.81,3.26c0,0-1.8,2.6-1.7-0.4c0.3-8.08,6.94-14.48,15.03-14.48c5.72,0.37,10.63,4.21,12.37,9.67
	c1.02-1.41,2.26-2.66,3.66-3.71c1.83-2.97,1.33-6.82-1.2-9.22c0,0-2.81-1.75,0-1.9c6.81-1.06,13.18,3.6,14.24,10.41
	c0.07,0.45,0.12,0.91,0.14,1.36c-0.21,4.67-2.39,9.02-6.01,11.97c-0.7,8.49,2.47,16.84,8.62,22.74c1.15,1.05,2.91,1.05,4.06,0
	c1.59-2.51,1.21-5.78-0.9-7.86c0,0-1.6-1.75,1.35-1.75c0,0,20.04,0,18.18,24.3c-0.33,3.47,2.21,6.55,5.68,6.89
	c0.48,0.05,0.96,0.04,1.44-0.03c0,0,3.16-0.25,3.26-4.41c0,0.19,0-3.57,2.45-0.61c4.24,5.8,6.41,12.86,6.16,20.04
	c0,0,0.7,25.05-25.05,26.35c0,0-12.12,1.25-15.03-15.03c-0.28-1.85-2.01-3.12-3.86-2.86c-4.92-0.13-9.76-1.2-14.28-3.16
	c0,0-2-1.3,0.5-1.65C211.56,291.75,215.33,284.92,213.55,278.32z M215.05,140.62c-0.39-8.6,2.87-16.97,8.96-23.05
	c6.51-5.33,14.73-8.11,23.14-7.81l12.52,1.15l0.63,12.43c-4.03-2.93-8.89-4.53-13.88-4.56c-11.37,0-14.58,9.62-14.58,20.04
	c0,12.02,5.56,21.84,17.88,21.84c6.37-0.3,12.56-2.27,17.93-5.71l-4.16,12.77c-5.37,1.47-10.92,2.18-16.48,2.1
	C230.12,170.58,215.82,157.51,215.05,140.62z M294.22,111.7h17.23l25.5,35.07v-22.64c0.69-4.51-0.65-9.09-3.66-12.52h15.93
	c-3.02,3.42-4.36,8.01-3.66,12.52v46.49c-3.53-0.49-6.93-1.67-10.02-3.46c-4.95-2.76-9.03-6.86-11.77-11.82L307.84,133v23.09
	c-0.68,4.48,0.66,9.03,3.66,12.42v0.3h-16.03v-0.3c3.07-3.36,4.45-7.93,3.76-12.42v-30.06C299.88,120.73,298.03,115.44,294.22,111.7
	z M440.93,531.54c0-2.81-0.65-8.01-4.11-8.01c-3.46,0-3.46,3.66-3.46,5.96s0.9,6.31,4.06,6.31c0.63-0.01,1.25-0.16,1.8-0.45
	l-3.16,4.61h-1c-2.37,0.11-4.68-0.74-6.41-2.35c-2.03-2.02-3.14-4.8-3.06-7.66c-0.26-5.89,4.31-10.87,10.2-11.12
	c0.32-0.01,0.65-0.01,0.97,0c6.44-0.13,11.77,5,11.9,11.44c0.01,0.53-0.02,1.06-0.08,1.58c0.05,5.29-2.26,10.32-6.31,13.73
	c-3.77,3.37-8.62,5.25-13.68,5.31h-0.8l1.77-3.77C436.71,545.5,441.56,538.85,440.93,531.54z M455.16,499.38h-44.68v-0.3
	c5.01-3.31,4.26-9.22,4.26-14.78v-39.72c0-5.51,0.7-11.57-4.26-14.73v-0.3h35.07c1.44,0.12,2.89-0.07,4.26-0.55h0.3v15.38h-0.1
	c-2.76-5.01-8.47-4.46-13.42-4.46h-3.26v17.23h9.42c1.26,0.05,2.52-0.14,3.71-0.55h0.5v15.03h-0.5c-1.4-4.26-6.06-3.81-10.02-3.81
	h-3.36l0.29,19.79c3.41,1.21,7.01,1.75,10.62,1.6c5.57,0.57,11.07-1.62,14.73-5.86h0.5L455.16,499.38z M466.33,531.54
	c0-2.81-0.65-8.01-4.11-8.01c-3.46,0-3.46,3.66-3.46,5.96s0.95,6.31,4.11,6.31c0.61,0,1.22-0.15,1.75-0.45l-3.21,4.61h-0.95
	c-2.38,0.1-4.7-0.75-6.46-2.35c-2.02-2.03-3.11-4.8-3.01-7.66c-0.26-5.89,4.31-10.87,10.2-11.12c0.32-0.01,0.65-0.01,0.97,0
	c6.42-0.13,11.72,4.97,11.85,11.38c0.01,0.55-0.02,1.1-0.08,1.64c0.08,5.29-2.24,10.34-6.31,13.73c-3.77,3.37-8.62,5.25-13.68,5.31
	h-0.75l1.82-3.77C462.13,545.46,466.95,538.82,466.33,531.54z M320.76,628.28c-2.24,2.33-3.95,5.12-5.01,8.17
	c-2.88,2.26-6.03,4.16-9.37,5.66l-0.65,0.45c-25.05,10.62-45.58-17.48-45.58-17.48c-1.56-2.41-3.65-4.43-6.11-5.91
	c6.73-2.8,13.16-6.28,19.18-10.38c18.48-13.17,30.06-1.25,30.06-1.05C304.4,617.5,311.31,625.62,320.76,628.28z M285.24,499.44v0.3
	h27.15v-0.3c-5.01-3.31-4.21-9.37-4.21-15.03l0.16-14.98l11.67,23.14c2.06,5.45,7.86,8.52,13.53,7.16l13.93-1
	c-3.93-3.65-7.2-7.96-9.67-12.72l-12.02-21.14c7.03-2.65,11.78-9.27,12.02-16.78c0.3-6.65-3.19-12.9-9.02-16.13
	c-4.17-2.06-8.85-2.89-13.48-2.4h-30.06v0.3c5.01,3.31,4.26,9.32,4.26,15.03v39.52C289.5,489.92,290.2,495.98,285.24,499.44z
	 M308.34,439.83l1-0.01c2.05-0.16,4.1,0.37,5.81,1.5c2.69,2.21,4.19,5.54,4.06,9.02c0.1,6.53-4.47,12.19-10.87,13.48V439.83z
	 M398.86,357.47c0,0-2.15-13.58-12.62-10.72c0,0-2.35,0.85-1-1.3c0,0,15.88-22.69,74.49-24.04c0,0,33.72-0.2,35.07,21.49
	c0,0,0.5,3.75-1.85,1.85c-2.6-1.94-5.79-2.9-9.02-2.71c0,0-10.97,0.75-11.27,15.03c0,0,0,18.14,17.48,13.78c0,0,2.35-0.8,1.65,1
	c-2.54,6.95-9.62,11.14-16.93,10.02c0,0-2.31-0.15-3.01,1.25c0,0-5.46,14.47-13.53,17.48c-0.15,0.05-0.31,0.06-0.46,0.04
	c-0.57-0.08-0.97-0.61-0.89-1.19c0,0-0.6-6.11-3.81-6.81c0,0-4.46-1.36-11.12,7.66c-1.15,1.25-2.06,0.7-2.11,0.83
	c-0.6-0.6,0-2.5,0-2.5s2.25-7.27,0-9.47c-0.26-0.32-0.54-0.61-0.86-0.86c-2.44-1.96-6-1.57-7.96,0.86c0,0-10.92,14.37-20.64,7.31
	c0,0-2.16-1.8,1.8-1.8c0,0,4.01-0.2,4.01-6.06c0,0-0.55-5.36-5.01-5.36c0,0-3.71-0.35-6.36,6.46c-1.29,4.43-4.63,7.97-8.97,9.52
	c0,0-1.65,0.55-0.7-1.45c0,0,2.41-5.11-1.1-6.81c-1.8-0.63-3.78,0.19-4.61,1.9c0,0-2.91,6.61-8.27,6.61c0,0-1.1,0.1-0.55-1.45
	c0,0,1.35-4.46-1.25-5.61c0,0-2.36-1.3-4.71,2.91c-3.51,6.85-10.88,10.83-18.53,10.02c-5.08-0.58-9.62-3.46-12.32-7.81
	c0,0-1.45-2.15,0.65-1.45c0,0,5.35,1.45,8.06-0.7c0,0,4.51-4.36-1.55-9.37c-3.37-1.79-7.5-1.31-10.37,1.2c0,0-1.5,0.7-0.95-1.55
	c2.26-6.48,7.69-11.36,14.38-12.92c2.73-0.51,4.99-2.41,5.96-5.01c0.22-1.3-0.49-2.56-1.7-3.06c0,0-3.05-1.21-8.06,2.65
	c0,0-2.5,1.5-1.65-0.95c3.16-7.2,9.99-12.11,17.83-12.82c3.96-0.08,7.71,1.79,10.02,5.01c0,0,6.57,9.87,14.63,9.32
	C391.15,367.89,399.66,368.59,398.86,357.47z M414.53,543.42v-15.78l-4.36-1.2c4.65-1.14,8.82-3.71,11.92-7.36l0.16,24.54
	c0,2.4,0,5.01,2.25,6.26h-12.62C414.43,548.23,414.53,546.22,414.53,543.42z M547.59,486.01l-12.02-21.14
	c7.03-2.65,11.78-9.27,12.02-16.78c0.32-6.64-3.15-12.9-8.97-16.13c-4.2-2.05-8.88-2.88-13.53-2.4h-30.06v0.3
	c5.01,3.31,4.21,9.32,4.21,15.03v39.52c0,5.51,0.75,11.57-4.21,15.03v0.3h27.15v-0.3c-5.01-3.31-4.26-9.37-4.26-15.03l0.21-14.98
	l11.67,23.14c2.06,5.45,7.86,8.52,13.53,7.16l13.93-1C553.35,495.06,550.08,490.76,547.59,486.01z M518.13,463.82v-23.99l1-0.01
	c2.07-0.16,4.13,0.37,5.86,1.5c2.66,2.23,4.14,5.55,4.01,9.02C529.1,456.87,524.53,462.53,518.13,463.82z M448.7,619.06
	c0.17,1.12-0.6,2.17-1.72,2.34c-0.04,0.01-0.09,0.01-0.13,0.02c-1.17,0.15-2.25-0.68-2.4-1.85c-0.02-1.19,0.92-2.17,2.11-2.19
	C447.58,617.34,448.48,618.05,448.7,619.06z M592.87,427.85c-21.19,0-37.67,13.78-37.67,36.42h-0.25v0
	c-0.8,19.35,14.24,35.68,33.59,36.48c1.04,0.04,2.08,0.04,3.13-0.01c20.49,0,37.92-13.48,37.92-36.62
	C629.59,440.98,614.06,427.85,592.87,427.85z M606.28,482.9c-2.99,4.53-8,7.32-13.42,7.46c-5.85-0.4-11.05-3.9-13.63-9.17
	c-3.01-6.17-4.64-12.94-4.75-19.83c0-10.92,5.26-22.94,17.18-22.94c13.83,0,18.33,17.33,18.33,29.45
	C610.34,473.14,609.05,478.39,606.28,482.9z M522.89,608.79c6.03,4.11,12.48,7.59,19.23,10.38c-2.47,1.46-4.56,3.49-6.11,5.91
	c0,0-20.53,28.1-45.58,17.48l-0.65-0.45c-3.36-1.5-6.52-3.4-9.42-5.66c-1.06-3.05-2.77-5.84-5.01-8.17
	c9.47-2.64,16.39-10.77,17.48-20.54C492.83,607.54,504.46,595.62,522.89,608.79z M468.83,626.41c19.59-4.3,19.79-17.97,19.79-17.97
	c-8.11-4.85-17.87-6.11-26.95-3.51c1.85-7.96,0-19.64-20.04-30.06c-2.19,3.95-2.77,8.6-1.6,12.97c-4.76-5.01-8.17-4.66-8.17-4.66
	c-1.77,7.1-1.39,14.56,1.1,21.44c-7.52-4.29-16.48-5.27-24.75-2.7c-0.09,9.66,5.39,18.51,14.08,22.74
	c-12.67,8.17-12.37,27.8-12.37,27.8c21.09,3.11,29.71-9.02,32.76-15.33c0.95,6.51,4.01,12.53,8.72,17.13
	c6.4,5.35,14.86,7.54,23.04,5.96C474.44,660.22,483.36,637.88,468.83,626.41z M450.25,620.15c2.7,2.37,4.05,5.91,3.61,9.47
	c-3.71-0.82-6.64-3.67-7.56-7.36c-1.81,4.86-9.47,6.72-9.48,6.86c-1.3-4.56,4.26-7.37,6.11-8.92c-3.15-0.46-5.94-2.3-7.61-5.01
	c3.25-1.07,6.82-0.41,9.47,1.75c-1.6-6.76,0.8-9.52,0.8-9.52c4.06,1.31,3.41,7.37,3.41,9.17c3.17-1.82,6.92-2.34,10.47-1.45
	C456.81,621.15,452.05,619.7,450.25,620.15z M617.22,247.46c9.57,1,10.62,12.32,10.62,12.32c0,2.2,2.2,0.65,2.2,0.65
	c4.56-5.16,5.04-12.75,1.15-18.43c-7.16-10.47-26.8-6.16-26.8-6.16l-1.35-1.9c0.59-3.01,2.58-5.56,5.36-6.86
	c4.21-1.29,8.78-0.17,11.92,2.91c3.11,2.71,2.55-1.3,2.55-1.3c-1.29-10.18-10.58-17.4-20.77-16.11c-1.82,0.23-3.6,0.73-5.28,1.48
	c-8.92,3.21-8.57,15.48-8.57,15.48c-10.68-6.9-23.01-10.79-35.72-11.27c-20.72,0.09-40.75,7.41-56.66,20.69
	c-6.26-2.48-12.13-5.86-17.43-10.02c-8.78-6.53-18.1-12.31-27.85-17.28c-22.7-9.88-48.41-10.24-71.38-1
	c-33.51,14.63-27.1,44.18-27.1,44.18c7.31,36.27,47.24,32.56,47.24,32.56c23.2-0.87,45.94-6.78,66.62-17.33
	c10.2,9.22,23.47,14.29,37.22,14.23c0,0,26.4,0.8,39.47-16.48c0,0,2.4-2.71-1.3-1.75c0,0-38.92,11.77-57.96-4.06
	c6.71-3.51,11.92-6.56,11.92-6.56c6.4,3.05,13.25,5.07,20.29,5.96c51.5,7.36,60.11-14.28,60.11-14.28c2-2.86-2-1.2-2-1.2
	c-20.53,3.84-41.64,3.35-61.97-1.45c38.97-26.9,68.48-4.46,68.48-4.46c14.43,9.72,9.37,30.06,9.37,30.06
	c-6.36,28.55-68.13,21.19-68.13,21.19c-38.62-3.41-95.93,1.65-95.93,1.65c-14.81,1.22-29.68,1.62-44.53,1.2
	c-26.2-2.45-33.81-16.63-33.81-16.63c-2.61-5.57-2.2-12.09,1.1-17.28c1.05-1.3-0.45-1.45-0.45-1.45c-5.76-0.46-10.06-5.51-9.6-11.27
	c0.06-0.76,0.21-1.52,0.43-2.25c0.65-3.36,7.51-10.02,7.51-10.02c2.15-1.95,0-2.2,0-2.2c-4.35-0.79-8.35-2.93-11.42-6.11
	c-5.91-6.41-3.96-17.73-3.96-17.73c10.32-5.91,10.02-13.02,10.02-13.02c0-2.6-1.95-0.4-1.95-0.4l-3.11,2.5
	c-2.1,1.75-6.61,0.5-6.61,0.5c-3.46-0.96-6.81-2.25-10.02-3.86c-8.89-3.65-18.86-3.65-27.75,0c-4.39,1.94-9.39,1.94-13.78,0
	l-2.1-1.1c-2.35-1.35-0.9,1.55-0.9,1.55c3.81,8.17,7.71,9.07,7.71,9.07c1.12,11.01-5.44,21.36-15.88,25.05c-2.45,0.65,0,1.95,0,1.95
	c3.54,3.28,5.39,8.01,5.01,12.82c0.43,5.2-2.24,10.16-6.81,12.67c-1.25,0.4,0,1.75,0,1.75c8.42,11.27,6.56,28.55,6.56,28.55
	c-3.56,21.84-17.48,29.55-17.48,29.55c-11.52,7.96-21.67,17.74-30.06,28.95c-2.62,2.66-6.31,3.97-10.02,3.56
	c-2.5-0.45-3.51-3.41-3.51-3.41c-0.28-6.89-3.35-13.37-8.52-17.93c-7.19-4.87-16.33-5.87-24.4-2.65c-2.3,1.2,0.4,1.45,0.4,1.45
	c8.92-0.5,10.02,4.71,10.02,4.71c1.33,4.61,1.54,9.47,0.6,14.18c-8.36-2.02-16.78,3.12-18.8,11.48c-0.31,1.27-0.45,2.58-0.43,3.89
	c-0.16,5.02,1.63,9.91,5.01,13.63c2.35,2.1,2.15-0.85,2.15-0.85c-0.23-2.56,0.28-5.13,1.45-7.41c2.1-2.65,5.4-4.07,8.77-3.76
	c5.61,0.4,6.56,3.26,6.56,3.26c1.4,3.61-1.05,4.46-1.05,4.46c-4.52,2.5-7.61,6.97-8.37,12.07c-0.25,4.7,1.43,9.3,4.66,12.72
	c4.21,3.26,2.71-0.95,2.71-0.95c-0.65-13.58,15.78-12.77,15.78-12.77c7.06,0,4.71,3.71,4.71,3.71c-2.36,1.44-4.98,2.41-7.71,2.86
	c-2.35,0.35,0,2,0,2c3,3.07,7.08,4.87,11.37,5.01c9.57,0,16.98-14.23,16.98-14.23c1.34-2.42,4.39-3.29,6.81-1.95
	c0.14,0.08,0.27,0.16,0.4,0.25c2.34,1.35,3.51,4.09,2.86,6.71c-0.35,13.58,7.36,18.13,7.36,18.13c3.21,2.5,2.71-0.7,2.71-0.7
	c-0.01-3.51,2.54-6.49,6.01-7.01c6.36-1.05,8.06,6.71,8.06,6.71c1.7,3.01,2.5-0.35,2.5-0.35c10.77-18.63,15.03-15.58,15.03-15.58
	c3.36,0.5,3.01,6.51,3.01,6.51c0.55,2.86,2.55,0,2.55,0c9.24-14.59,19.94-28.22,31.91-40.68c8.67-8.67,14.58-8.01,14.58-8.01
	c6.06,0.45,8.97,10.47,8.97,10.47c0.9,2.4,3.21,0.5,3.21,0.5c33.51-25.93,74.86-39.66,117.22-38.92
	c32.56,1.3,41.43,14.23,41.43,14.23c10.42,14.13,3.01,31.76,3.01,31.76c-4.91,8.6-5.6,18.98-1.85,28.15
	c9.42,19.69,26.55,18.83,26.55,18.83c5.01,0,1.7-2.05,1.7-2.05c-11.77-7.86-8.92-23.49-8.92-23.49c0.55-8.01,10.02-8.01,10.02-8.01
	c2.15,0.22,4.31,0.22,6.46,0c12.67,0,28.8-9.42,28.8-9.42c4.37-1.92,9.1-2.91,13.88-2.91c11.52,0.3,11.37,7.66,11.37,7.66
	c-0.02,2.66-1.12,5.19-3.06,7.01c-1.46,1.31-3.71,1.19-5.02-0.28c-0.15-0.16-0.27-0.34-0.39-0.52c-1.95-2.81-5.2-4.44-8.62-4.31
	c-6.05,0.14-11.31,4.2-12.97,10.02c-0.85,3.46,0.5,2.3,0.5,2.3c3.66-2.96,5.91-2,5.91-2c2.65,0.85,0,2.1,0,2.1
	C563.64,392,569,406.18,569,406.18c2.45,5.01,2.71,0.65,2.71,0.65c-0.17-1.56,0.6-3.07,1.95-3.86c2.68-0.97,5.68-0.12,7.46,2.1
	c2.78,3.59,2.59,8.65-0.45,12.02c-2.4,2.65,0,3.06,0,3.06c7.07,0.31,13.93-2.47,18.78-7.61c3.14-5.27,5.12-11.14,5.81-17.23
	c0.75-2.5,2.25-0.65,2.25-0.65c2.3,2.81,0.65,8.62,0.65,8.62c0,1.75,1.65,0.35,1.65,0.35c4.99-4.13,6.41-11.19,3.41-16.93
	c-0.77-1.75-0.28-3.8,1.2-5.01c5.78-3.32,9.31-9.51,9.22-16.18c-0.3-1.05-1.95,0-1.95,0c-8.47,4.71-11.07-3.11-11.07-3.11
	c-1.35-4.16,1.45-5.51,1.45-5.51c9.56-4.95,14.88-15.46,13.22-26.1c-0.5-3.06-2.15,0-2.15,0c-9.02,12.57-25.05-0.65-25.05-0.65
	c2.55-16.43-10.87-16.98-10.87-16.98c-2.71-0.3-1.1,1.65-1.1,1.65c2.11,2.04,3.18,4.94,2.91,7.86c-0.35,7.11-10.02,6.01-10.02,6.01
	c-21.94,0-27.45-22.59-27.45-22.59c37.42,3.81,51.3-9.17,51.3-9.17c8.27-7.51,13.78-6.41,13.78-6.41c5.07-0.19,9.77,2.65,11.97,7.21
	c1.3,1.75,1.9,0,1.9,0c3.28-12.36-3.28-25.18-15.2-29.77c-6.71-4.36-6.61-9.07-6.61-9.07C607.8,246.76,617.22,247.46,617.22,247.46z
	 M397.1,272.47h-0.05v-0.01c-27.4,0.95-30.36-20.54-30.36-20.54c-1.29-7.08,1.31-14.3,6.81-18.94c1.1,4.41,5.26,13.53,20.34,13.78
	c4.69-0.11,9.2-1.79,12.82-4.76c0,0,1.75-1.5-0.55-1.5c0,0-16.58-0.3-16.03-12.17c-0.13-2.55,1.24-4.94,3.51-6.11
	c1.79-0.59,3.62-1.09,5.46-1.5c2.2-0.5,4.36-0.85,6.56-1.15c1.62,6.51,7.23,11.26,13.93,11.77c2.38,0.1,4.75-0.36,6.91-1.35
	c0,0,1.6-1.15-0.6-1.55c-3.27-0.45-5.75-3.17-5.91-6.46c0,0-0.85-2.6,3.91-2.5h0.45c3.01,0.45,23.14,4.71,15.63,20.54
	c0,0-2.1,3.01-0.5,2.55c1.8-0.23,3.61,0.29,5.01,1.45c4.84,4.78,9.03,10.17,12.47,16.03C437.79,267.43,417.58,271.63,397.1,272.47z
	 M473.95,252.39l-0.05,0.04c-5.05-5.62-9.58-11.69-13.53-18.13c6.66,5.19,13.68,9.91,20.99,14.13
	C478.91,250.03,476.4,251.14,473.95,252.39z M320.81,213.8l-0.05,0.05c-1.6,3.98-6.11,5.91-10.1,4.32c-0.13-0.05-0.25-0.1-0.37-0.16
	C310.29,218.01,312.04,212.2,320.81,213.8z M301.68,218.01l-0.05,0.05c-4.04,1.44-8.48-0.67-9.92-4.71c-0.04-0.1-0.07-0.2-0.1-0.3
	C300.38,212.15,301.68,218.01,301.68,218.01z M316.1,255.03c-2.23,4.25-6.57,6.97-11.37,7.11c-4.48-0.34-8.44-3.05-10.37-7.11
	c-4.41-7.91-9.12-17.03-9.12-17.03c1.33,0.39,2.69,0.71,4.06,0.95c1.17,2.5,2.55,4.89,4.11,7.16c0,0,1,1.25,1.35-0.4
	c0.73-2.23,2.06-4.2,3.86-5.71c2.2,0,4.56,0,6.96,0h5.91c1.7,1.67,2.75,3.89,2.96,6.26c0.4,2.25,2,0.25,2,0.25
	c1.56-2.3,2.89-4.75,3.96-7.31c1.9-0.3,3.56-0.6,5.01-0.9C325.27,238.25,318.21,250.42,316.1,255.03z M366.05,111.28
	c1.83,1.03,3.02,2.91,3.16,5.01c-0.37,2.4-0.99,4.75-1.85,7.01l-11.42,35.07c-0.95,3.8-2.93,7.26-5.71,10.02v0.3h16.98v-0.3
	c-1.79-1.04-2.93-2.94-3.01-5.01c0.2-2.15,0.71-4.26,1.5-6.26l2-5.96l16.18,0.28l2.71,8.47c0.48,1.04,0.71,2.17,0.7,3.31
	c-0.02,2.28-1.34,4.34-3.41,5.31v0.3h25.05v-0.3c-3.56-3.24-6.06-7.48-7.16-12.17l-15.68-45.08H366.05z M369.85,143.32l5.46-17.18
	l5.81,17.18H369.85z M407.32,140.27c-0.72-16.14,11.79-29.81,27.93-30.52c0.98-0.04,1.95-0.04,2.93,0.02
	c4.35-0.02,8.69,0.57,12.87,1.75v12.12h-0.45c-3.39-2.93-7.7-4.56-12.17-4.61c-10.77,0-15.43,7.96-15.43,18.48
	s3.56,23.14,15.58,23.14c1.12,0.13,2.24,0.13,3.36,0v-12.97c0.56-3.19-0.65-6.43-3.16-8.47h17.43l0,28.06
	c-5.74,1.72-11.69,2.63-17.68,2.71C421.25,169.98,407.32,159.66,407.32,140.27z M351.68,619.63c-0.16,1.18-1.24,2.01-2.42,1.85
	s-2.01-1.24-1.85-2.42c0.16-1.18,1.23-2,2.41-1.85h0.01C351.01,617.37,351.84,618.45,351.68,619.63z M519.79,111.7h17.28
	l25.45,35.07v-22.64c0.69-4.51-0.65-9.09-3.66-12.52h15.93c-3,3.43-4.34,8.01-3.66,12.52v46.49h0c-3.53-0.49-6.93-1.67-10.02-3.46
	c-4.94-2.78-9.01-6.87-11.77-11.82L533.41,133v23.09c-0.68,4.48,0.66,9.03,3.66,12.42v0.3h-15.98v-0.3
	c3.05-3.37,4.41-7.93,3.71-12.42v-30.06C525.48,120.73,523.62,115.43,519.79,111.7z M606.34,169.88c0.82,0.03,1.64,0.03,2.46,0
	c16.83,0,31.21-11.12,31.21-30.06s-12.77-30.06-30.06-30.06c-16.33-0.89-30.28,11.63-31.17,27.95c-0.04,0.71-0.05,1.41-0.04,2.11
	C578.06,155.74,590.42,169.2,606.34,169.88z M608.95,118.67c11.37,0,15.03,14.23,15.03,24.19c0.28,4.29-0.79,8.57-3.06,12.22
	c-3.54,5.94-11.22,7.89-17.17,4.36c-2.25-1.34-4.03-3.35-5.07-5.76c-2.44-5.02-3.76-10.52-3.86-16.12
	C594.82,128.54,599.18,118.67,608.95,118.67z M476.21,168.34c-1.78-1.05-2.9-2.94-2.96-5.01c0.21-2.14,0.7-4.25,1.45-6.26l2-5.96
	l16.63,0.33l2.76,8.42c0.46,1.04,0.68,2.17,0.65,3.31c-0.02,2.28-1.34,4.34-3.41,5.31v0.3h25.05v-0.3
	c-3.55-3.24-6.03-7.49-7.11-12.17l-15.68-45.08h-20.54c1.83,1.03,3.02,2.91,3.16,5.01c-0.35,2.39-0.96,4.75-1.8,7.01l-11.47,35.07
	c-0.93,3.81-2.91,7.28-5.71,10.02v0.3h16.98V168.34z M484.82,126.14l5.76,17.18h-11.27L484.82,126.14z M408.58,482.71l-5.01,15.53
	c-6.53,1.78-13.27,2.63-20.04,2.5c-9.87,0.71-19.62-2.57-27.05-9.12c-7.69-7.13-11.94-17.22-11.67-27.7
	c-0.06-9.99,3.89-19.6,10.97-26.65c7.91-6.48,17.93-9.83,28.15-9.42l15.03,1.35l0.65,14.88c-4.9-3.54-10.79-5.46-16.83-5.51
	c-13.83,0-17.78,11.67-17.78,24.5c0,14.68,6.76,26.55,21.79,26.55C394.53,489.24,402.04,486.86,408.58,482.71z M371.2,534.05
	c-0.87,1.35-1.27,2.95-1.15,4.56c-0.06,2.08,0.6,4.11,1.85,5.76c1,1.12,2.46,1.72,3.96,1.65c2.13-0.08,4.17-0.85,5.81-2.2
	l-1.45,5.01c-2.32,1.2-4.9,1.81-7.51,1.8c-5.94,0.28-10.98-4.31-11.26-10.26c-0.01-0.22-0.01-0.44-0.01-0.66
	c-0.17-6.22,4.74-11.4,10.96-11.57c0.47-0.01,0.94,0,1.41,0.05c1.7,0,3.46,0.3,5.01,0.45l0.2,5.31c-1.31-0.95-2.89-1.48-4.51-1.5
	C373.22,532.44,372,533.03,371.2,534.05z M390.88,540.08c0-0.21,0-0.42,0.02-0.62h13.63c0-7.06-3.46-11.27-10.42-11.27
	c-5.86-0.06-10.67,4.64-10.73,10.51c0,0.2,0,0.41,0.01,0.61c-0.18,3.46,1.29,6.81,3.96,9.02c2.59,1.7,5.67,2.51,8.77,2.3
	c2.38,0,4.73-0.49,6.91-1.45l1.69-5.21c-2.23,1.36-4.76,2.16-7.36,2.35C393.85,546.39,390.95,543.59,390.88,540.08z M394.1,532.19
	c1.9,0,2.96,1.55,2.96,3.36h-6.17C390.89,533.7,392.19,532.19,394.1,532.19z M387.89,601.83c-8.27-2.56-17.23-1.58-24.75,2.7
	c2.52-6.87,2.92-14.34,1.15-21.44c0,0-3.46-0.6-8.22,4.66c1.17-4.36,0.62-9.01-1.55-12.97c-20.04,10.52-21.94,22.19-20.04,30.06
	c-9.1-2.61-18.87-1.34-27,3.51c0.01-0.01,0.21,13.76,19.79,17.97c-14.53,11.47-5.61,33.81-5.61,33.81
	c8.19,1.59,16.65-0.6,23.04-5.96c4.72-4.59,7.79-10.61,8.72-17.13c3.06,6.31,11.67,18.43,32.76,15.33c0,0,0.35-19.64-12.37-27.8
	C382.56,620.41,388.06,611.51,387.89,601.83z M359.33,628.98c0,0-7.71-1.86-9.48-6.86c-0.92,3.7-3.88,6.56-7.61,7.36
	c-0.44-3.56,0.91-7.11,3.61-9.47c-1.81-0.3-6.57,1.15-9.22-5.01c3.56-0.89,7.33-0.37,10.52,1.45c-0.1-1.81-0.7-7.87,3.36-9.17
	c0,0,2.4,2.76,0.8,9.52c2.66-2.18,6.26-2.84,9.52-1.75c-1.69,2.71-4.49,4.54-7.66,5.01C355.02,621.62,360.58,624.42,359.33,628.98z
	 M400.8,446.28c0.04-0.02,0.07-0.06,0.11-0.08v37.68c-0.66,0.28-1.33,0.53-2,0.78v-38.19C399.53,446.65,400.21,446.6,400.8,446.28z
	 M494.34,372h9.23c-0.13,0.66-0.25,1.33-0.34,2h-9.63c0.18-0.41,0.36-0.82,0.52-1.24C494.22,372.49,494.29,372.24,494.34,372z
	 M400.91,289.82v1.86c-0.67,0.01-1.33,0.03-2,0.04v-1.79c0.27-0.01,0.48-0.03,0.58-0.04C399.97,289.88,400.44,289.85,400.91,289.82z
	 M400.91,427.65c-0.41-0.52-1.02-0.88-1.73-0.94l-0.27-0.02v-26.05c0.7-0.37,1.36-0.79,2-1.24V427.65z M400.91,171.33v31.06
	c-0.67,0.09-1.33,0.19-2,0.29v-31.35H400.91z M399.6,223.16c0.43-0.1,0.86-0.19,1.31-0.28v14.33c-0.66-0.17-1.33-0.37-2-0.62v-13.26
	C399.14,223.27,399.37,223.21,399.6,223.16z M400.91,329.77v1.13c-0.69,0.34-1.36,0.68-2,1.01v-1.41
	C399.58,330.26,400.24,330.01,400.91,329.77z M398.91,248.57c0.68-0.17,1.34-0.36,2-0.58v21.78c-0.67,0.04-1.33,0.07-2,0.11V248.57z
	 M589.13,374c-0.97-0.84-2.07-1.5-3.23-2h9.24c-0.05,0.69-0.19,1.36-0.43,2H589.13z M398.91,543.59v-1.63h2v1.05
	C400.26,543.25,399.59,543.45,398.91,543.59z M137.22,76.2v346.14c0,212.75,153.05,260.95,261.69,299.46v0.35h2v-0.35
	c108.64-38.51,261.69-86.71,261.69-299.46V76.2H399.91H137.22z M400.91,81.2H657.6V372h-32.42c-0.21,0.68-0.46,1.35-0.75,2h33.17
	v48.34c0,90.28-27.57,158.25-84.28,207.78c-49.02,42.81-110.79,64.62-165.3,83.86c-2.39,0.84-4.76,1.68-7.12,2.51V552.52
	c-0.66,0.17-1.33,0.3-2,0.39v163.58c-2.35-0.83-4.72-1.67-7.12-2.51c-54.5-19.24-116.28-41.05-165.3-83.86
	c-56.71-49.53-84.28-117.5-84.28-207.78V374h28.14c-0.45-0.65-0.86-1.31-1.23-2h-26.91V81.2h256.69v59.33l2,5.75V81.2z M571.41,374
	h-8.06c1.65-0.68,3.16-1.36,4.5-2h7.31C573.82,372.5,572.56,373.18,571.41,374z M400.91,501.46v25.81c-0.62-0.34-1.29-0.62-2-0.85
	v-24.53C399.58,501.76,400.24,501.61,400.91,501.46z M178.66,374c0-0.18,0-0.34-0.01-0.45c-0.05-0.52-0.05-1.03-0.03-1.55h7.19
	c-0.57,0.63-1.11,1.3-1.59,2H178.66z M307.72,372h41.09c-1.18,0.57-2.31,1.24-3.36,2h-39.34C306.64,373.33,307.19,372.67,307.72,372
	z"/>
</svg>
