<?xml version="1.0" encoding="utf-8"?>
<!-- Created by @FCLOGO 2022-06-23 11:11:48 . https://fclogo.top/ -->
<!-- FOR PERSONAL USE ONLY NOT FOR COMMERCIAL USE -->
<svg version="1.1" xmlns="http://www.w3.org/2000/svg" xmlns:xlink="http://www.w3.org/1999/xlink" x="0px" y="0px"
	 viewBox="0 0 800 800" enable-background="new 0 0 800 800" xml:space="preserve">
<g>
	<path fill="#088E3F" d="M495.26,537.19V503.4c-1.46,0.94-3.25,1.38-5.07,1.1c-6.44-0.96-11.6-3.01-15.75-5.8v45.46
		c-3.38,1.08-6.82,2.14-10.31,3.2c-0.26,0.31-0.54,0.61-0.85,0.87c2.72,3.98,5.09,8.22,7.07,12.67c1.36-0.38,2.72-0.74,4.09-1.13
		v12.57c1.85,6.77,2.84,13.89,2.84,21.25c0,7.34-1,14.43-2.84,21.19v9.96h20.82V553.5c14.17-4.51,28.33-9.52,42.34-15.08
		c8.24-3.27,16.01-6.61,23.32-9.98c3.37-8.18,6.53-16.48,9.46-24.89C551.64,514.72,526.36,526.23,495.26,537.19z"/>
	<path fill="#088E3F" d="M372.05,248.47c-0.31-4.06,0.21-7.21,0.87-9.56c-1.5-1.59-2.37-3.79-2.37-6.23c0-2.54,0.9-4.85,2.47-6.57
		c-0.2-1.83-2.42-22.99-2.67-25.44c-0.02-0.15-0.02-0.3-0.03-0.45h-5.8v76.95c3.81-2.04,9.11-4.28,13.29-5.86
		C373.83,264.86,372.65,256.24,372.05,248.47z"/>
	<path fill="#088E3F" d="M403.47,222.4v-22.17H385.5c1.61,5.29,5.29,17.48,6.4,22.08C395.22,222.47,399.4,222.56,403.47,222.4z"/>
	<path fill="#088E3F" d="M318.07,261.22c3.06-0.01,6.87-0.02,7.99-0.18c0.9-0.12,2.89-1.11,4.06-1.92c2.18-1.49,5-1.72,7.38-0.57
		c2.38,1.14,3.98,3.46,4.18,6.1c0.16,2.18-0.23,4.31-0.89,6.27c0.86,0.29,1.61,0.55,2.29,0.79v-86.97h-43.26v77.66
		c1.56-0.39,3.15-0.68,4.75-0.82C308.5,261.25,313.59,261.24,318.07,261.22z"/>
	<path fill="#088E3F" d="M581.37,83.5h-16.62l-0.59,9.07h16.84L581.37,83.5z M571.43,91.91c-0.31-2.33-1.03-4.42-2.16-6.27
		c1.37-0.15,2.55-0.61,3.54-1.36c0.68,2.27,1.63,4.37,2.83,6.3C574.22,90.81,572.82,91.26,571.43,91.91z"/>
	<path fill="#088E3F" d="M661.22,450.53c-1.62-8.46-6.8-19.7-21.82-27.87c11.8-5.87,19.93-18.05,19.93-32.1
		c0-19.76-16.08-35.83-35.83-35.83c-0.61,0-1.21,0.04-1.81,0.07c0.33-7.88,0.51-15.81,0.51-23.79c0-52.7,0-96.48,0-132.56
		c-21.48-12.33-44.06-22.8-67.48-31.23c-49.16-17.7-102.43-26.68-158.33-26.68c-55.9,0-109.17,8.98-158.33,26.68
		c-23.42,8.43-46,18.9-67.48,31.23c0,36.08,0,79.86,0,132.55c0,48.06,6.04,94.53,17.26,138.21c-2.15,1.43-4.26,2.87-6.3,4.32
		c-31.26,22.23-45.77,43.71-43.13,63.85c1.18,8.99,5.28,17.12,11.87,23.51c5.21,5.06,12.04,9.11,20.29,12.03
		c7.19,2.54,40.27,6.46,57.08,4.8c-31.81,9.12-86.55,10.66-86.55,10.66s29.01,18.81,80,22.79c7.96,0.62,17.87,0.96,28,1
		c38.26,60.08,88.71,107.98,147.28,137.84c80.56-41.07,145.75-116.28,185-210.36c19.85-10,36.66-20.6,49.57-31.34
		c10.43-8.68,18.32-17.46,23.47-26.09C660.88,471.38,663.17,460.72,661.22,450.53z M623.49,373.72c9.3,0,16.84,7.54,16.84,16.84
		s-7.54,16.84-16.84,16.84s-16.84-7.54-16.84-16.84S614.19,373.72,623.49,373.72z M560.92,528.44
		c-6.44,15.65-13.66,30.87-21.67,45.56c-35.92,65.89-85.15,117.41-142.86,149.68c-52.17-29.18-97.4-74.08-132.15-131.11
		c-41.02,1.89-66.99,0.58-66.99,0.58c22.01-1.5,43.32-3.44,63.9-5.75c-2.6-4.4-5.14-8.86-7.62-13.4
		c-2.76-5.06-5.42-10.19-7.99-15.38c-35.9,3.48-84.77,3.16-88.29-23.71c-1.99-15.16,18.13-37.2,56.33-59.33
		c-13.04-46.01-19.78-94.76-19.78-144.58V212.14c16.81-8.92,34.29-16.66,52.13-23.09c46.63-16.79,97.25-25.31,150.46-25.31
		c53.21,0,103.83,8.51,150.46,25.31c17.84,6.43,35.33,14.17,52.13,23.09V331c0,33.97-3.14,67.44-9.27,99.89
		C671.73,433.69,656.35,484.39,560.92,528.44z"/>
	<rect x="344.55" y="100.49" fill="#088E3F" width="17.49" height="11.47"/>
	<path fill="#088E3F" d="M403.47,513.4v-34.21c-9.98-8.39-18.23-19.57-24.64-33.52c-0.23-0.5-0.42-0.91-0.57-1.22
		c-1.51-1.94-7.93-6.67-13.75-10.84v86.27c9.89-4.34,20.81-6.76,32.3-6.76C399.05,513.12,401.27,513.22,403.47,513.4z"/>
	<path fill="#088E3F" d="M580.85,96.51h-17.11l-0.81,10.55h17.3L580.85,96.51z M570.73,106.3c-0.5-2.72-1.39-5.19-2.67-7.43
		c1.31-0.46,2.55-0.94,3.72-1.45c0.2,0.62,0.31,0.98,0.35,1.1l1.03,2.54c0.63,1.58,1.26,2.78,1.89,3.61
		C573.65,105.19,572.21,105.73,570.73,106.3z"/>
	<path fill="#088E3F" d="M241.92,551.19c1.18,2.49,2.39,4.97,3.61,7.44c21.29-2.06,38.03-5.47,38.03-5.47
		C267.55,552.98,253.69,552.32,241.92,551.19z"/>
	<rect x="295.44" y="77.35" fill="#088E3F" width="11.34" height="26.47"/>
	<path fill="#088E3F" d="M241.92,551.19c-8.26-17.4-15.5-35.43-21.68-53.97C176.49,527.21,181.78,545.4,241.92,551.19z"/>
	<path fill="#088E3F" d="M520.75,436.67c0,0,40.64-3.08,66.72,5.45c0.79-3.73,1.53-7.47,2.24-11.23
		C571.56,430.27,548.64,432,520.75,436.67z"/>
	<path fill="#088E3F" d="M608.47,459.82c-1.85-8.61-10.17-14.16-21-17.71c-4.44,20.99-10.15,41.52-17.09,61.43
		C597.61,487.33,611.05,471.84,608.47,459.82z"/>
	<path fill="#088E3F" d="M396.38,132.1c56.88,0,111.11,9.14,161.19,27.18c22.36,8.05,43.97,17.92,64.62,29.47
		c0-102.77,0-138.75,0-138.75H170.58c0,0,0,35.97,0,138.75c20.65-11.55,42.25-21.42,64.62-29.47
		C285.28,141.24,339.51,132.1,396.38,132.1z M329.41,120.75c-1.67-1.77-3.46-3.03-5.37-3.76c1.58-3.56,3.37-10.81,5.37-21.73
		l0.14-0.75c1.21,1.21,2.46,1.99,3.75,2.34c0.22,0.08,0.54,0.17,0.97,0.29C331.93,105.68,330.31,113.55,329.41,120.75z
		 M366.95,121.13c-1.13-0.12-1.97-0.17-2.51-0.17c-0.59,0-1.47,0.06-2.62,0.17c0.13-0.85,0.19-1.92,0.19-3.21v-1.82h-17.3v1.59
		c0,0.13,0.04,0.67,0.11,1.62c0.04,0.6,0.05,1.31,0.05,2.14c-1.17-0.15-2.04-0.23-2.62-0.23c-0.59,0-1.48,0.08-2.64,0.23l0.11-3.41
		l0.11-4.91v-10.17c0-1.23-0.1-3.83-0.3-7.8c2.93,0.29,5.7,0.43,8.31,0.43h10.69c2.77,0,5.61-0.11,8.53-0.32
		c-0.27,3.43-0.4,5.82-0.4,7.17v11.01C366.66,115.04,366.76,117.6,366.95,121.13z M405,105.18c1.8-0.19,3.44-0.73,4.91-1.62
		c0.86,2.6,2.11,5.43,3.72,8.5c-1.98,0.19-3.84,0.73-5.59,1.62C407.44,110.67,406.42,107.84,405,105.18z M486.85,118.9
		c-1.78-1.23-3.45-2.01-5.02-2.34c2.52-4.78,4.31-12.39,5.37-22.83c1.53,1.37,2.95,2.42,4.26,3.15c-0.95,2.72-2.35,9.24-4.18,19.57
		L486.85,118.9z M495.65,120.9c-1.19-1.43-2.79-2.66-4.8-3.7c2.41-0.6,4.84-1.73,7.29-3.4c2.45-1.67,4.38-3.51,5.8-5.53
		c1.3,1.27,2.82,2.5,4.59,3.67C504.83,113.81,500.54,116.8,495.65,120.9z M525.85,120.61c-3.08-3.39-7.14-6.37-12.2-8.93
		c1.26-1.04,2.3-2.19,3.13-3.44c0.92,0.6,1.48,0.95,1.7,1.07l4.67,2.83c1.31,0.81,3.04,1.96,5.18,3.44l1.05,0.72
		C527.98,117.58,526.8,119.01,525.85,120.61z M551.68,100.09l-1.73,7.05c-1.55,6.4-2.32,10.89-2.32,13.47
		c-1.46-1.77-3.37-3.31-5.75-4.62c2.48-4.24,4.47-11.18,5.96-20.84l0.3-1.97c1.26,1.43,2.58,2.36,3.97,2.8
		c0.2,0.06,0.49,0.16,0.89,0.32C552.44,97.48,552,98.74,551.68,100.09z M569.55,66.62c-1.21,0.73-2.59,2.34-4.16,4.83h19.19
		c1.47,0,3.4-0.13,5.78-0.4c-0.11,1.08-0.16,1.89-0.16,2.43c0,0.54,0.05,1.35,0.16,2.43c-1.78-0.19-3.75-0.29-5.91-0.29h-21.21
		l-2.51,3.67h20.38c0.65,0,1.66-0.05,3.05-0.14l2.05-0.17c-0.09,0.81-0.15,1.42-0.19,1.82c-0.13,1.08-0.2,1.76-0.22,2.05l-0.43,9.74
		h2.75c1.28,0,2.62-0.13,4.02-0.4c-0.07,1-0.11,1.77-0.11,2.31c0,0.46,0.04,1.18,0.11,2.17l-1.46-0.03l-2.48-0.09h-2.92l-0.46,10.49
		h2.13c0.22,0,0.77-0.06,1.67-0.17c0.29-0.04,0.72-0.08,1.3-0.12c-0.07,1.1-0.11,1.93-0.11,2.49c0,0.56,0.04,1.4,0.11,2.51
		c-1.19-0.12-2.23-0.17-3.13-0.17h-2.29l-0.35,4.8c-0.14,2.02-0.81,3.37-2,4.05c-1.19,0.67-3.48,1.01-6.88,1.01h-0.73
		c-0.13-2.04-0.81-3.91-2.05-5.61l0.86,0.14c1.46,0.27,2.65,0.4,3.56,0.4c1.71,0,2.61-0.5,2.7-1.5l0.3-3.32h-14.57l-4.8,0.12
		l-2.4,0.06l1.35-15.17h-2.05c-0.92,0-1.94,0.06-3.08,0.17c0.07-0.98,0.11-1.71,0.11-2.17c0-0.52-0.04-1.27-0.11-2.25
		c0.54,0.04,0.94,0.08,1.21,0.12c1.06,0.12,1.7,0.17,1.92,0.17h2.21l0.7-12.54c-1.22,1.75-2.42,3.55-3.59,5.38
		c-1.22-1.16-2.93-2.08-5.13-2.77c5.4-4.14,9.44-10.24,12.12-18.29C565.15,65.27,567.06,66.03,569.55,66.62z M546.93,66.45
		c2.84,2.37,5.85,4.65,9.01,6.85c-1.4,1.23-2.68,2.6-3.83,4.1c-2.48-3.24-5.42-5.62-8.8-7.14
		C544.73,69.05,545.94,67.78,546.93,66.45z M542.88,80.06c3.29,2.12,6.71,4.13,10.26,6.04c-1.35,1.33-2.4,2.89-3.16,4.68
		c-2.14-2.85-5.53-5.04-10.17-6.56C540.94,82.86,541.96,81.47,542.88,80.06z M495.27,70.96c1.8,0.15,3.05,0.23,3.75,0.23h10.93
		c-0.45-1.73-1.31-3.5-2.59-5.29c2.09-0.21,3.88-0.59,5.37-1.13c0.76,2.02,1.41,4.16,1.97,6.42h8.58c0.88,0,2.43-0.08,4.64-0.23
		c-0.16,2.39-0.24,4.24-0.24,5.55c0,1.18,0.1,3.06,0.3,5.66c-1.08-0.08-1.89-0.12-2.43-0.12c-0.56,0-1.39,0.04-2.48,0.12
		c0.05-0.73,0.1-1.27,0.14-1.62c0.05-0.54,0.08-0.91,0.08-1.13v-4.39h-23.61v3.03c0,0.94,0.12,2.02,0.35,3.24
		c1.64,0.19,2.81,0.29,3.51,0.29c6.33,0,11.5-0.91,15.49-2.72c0.72,1.95,1.63,3.61,2.73,5c-1.67,0-3.2,0.07-4.59,0.2l-9.53,0.81
		c-0.5,0.06-1.55,0.13-3.13,0.23v4.42h17.87c0.83,0,2.09-0.09,3.78-0.26c-0.11,1-0.16,1.76-0.16,2.28c0,0.58,0.08,1.45,0.24,2.63
		c-1.37-0.21-2.63-0.32-3.78-0.32h-4.48v8.44h8.04c1.49,0,2.92-0.12,4.26-0.38c-0.14,1.21-0.22,2.14-0.22,2.77
		c0,0.58,0.07,1.47,0.22,2.69c-1.89-0.19-3.36-0.29-4.4-0.29h-29.15c-1.08,0-2.53,0.1-4.35,0.29c0.09-1.08,0.14-1.91,0.14-2.49
		c0-0.62-0.06-1.58-0.19-2.89c0.83,0.06,1.46,0.11,1.89,0.14c1.06,0.1,1.75,0.14,2.08,0.14h3.64V85.55l-0.05-2.05l-0.05-1.7
		c-1.01-0.19-1.77-0.29-2.29-0.29c-0.5,0-1.28,0.11-2.32,0.32c0.2-2.52,0.3-4.39,0.3-5.61C495.51,75.02,495.43,73.27,495.27,70.96z
		 M485.74,67.06c0.86,0.71,1.51,1.24,1.94,1.59c2.77,2.35,5.1,4.03,6.99,5.03c-1.31,1.33-2.38,2.76-3.18,4.28
		c-2.77-2.79-5.62-5.05-8.56-6.76C484.12,69.8,485.06,68.43,485.74,67.06z M482.67,80.61c2.73,2.41,5.95,4.39,9.63,5.95
		c-1.38,1.48-2.39,2.98-3.02,4.48c-1.89-2.27-5.01-4.33-9.37-6.18C481.28,83.28,482.2,81.86,482.67,80.61z M451.58,85.83h8.89V98.1
		h-8.89V85.83z M384.92,73.68v-1.1c1.84,0.67,3.61,1.01,5.32,1.01c-0.74,1.52-1.4,4.05-2,7.57h4.29v-11.1
		c0-1.29-0.14-2.67-0.43-4.13c1.78,0.33,3.07,0.49,3.86,0.49c0.49,0,1.1-0.03,1.84-0.09c-0.29,0.4-0.47,0.71-0.54,0.92l-0.19,1.39
		c-0.05,0.35-0.08,0.65-0.08,0.92v11.56h3.16c0.56,0,1.49-0.08,2.81-0.23c-0.23,1.14-0.35,1.96-0.35,2.49c0,0.5,0.07,1.22,0.22,2.17
		c0.67,0,1.66,0.03,3,0.09c1.28,0.08,2.08,0.12,2.4,0.12h5.29v-7.31h-4.83c-1.44,0-2.86,0.08-4.26,0.23
		c0.14-1.14,0.22-1.99,0.22-2.57c0-0.62-0.09-1.55-0.27-2.8c1.48,0.23,2.96,0.35,4.45,0.35h4.7v-5.43c0-1-0.13-2.15-0.4-3.44
		c1.75,0.39,3.34,0.58,4.78,0.58l1.13-0.03c-0.65,1.04-0.97,2.26-0.97,3.67v4.65h7.02c0.95,0,2.25-0.07,3.89-0.2
		c-0.09,1.21-0.13,2.13-0.13,2.75c0,0.54,0.04,1.37,0.11,2.49c-1.35-0.15-2.91-0.23-4.67-0.23h-6.24v7.31h10.63
		c1.03,0,2.29-0.09,3.78-0.26c-0.14,1.12-0.22,1.96-0.22,2.51c0,0.56,0.07,1.4,0.22,2.51c-1.3-0.15-2.57-0.23-3.83-0.23h-4.02v6.5
		h3.05c1.47,0,2.87-0.08,4.18-0.23c-0.2,1.06-0.3,1.87-0.3,2.43c0,0.52,0.1,1.3,0.3,2.34c-1.38-0.12-2.7-0.17-3.94-0.17h-3.29v13.47
		c0,2.47-0.74,4.22-2.21,5.26c-1.48,1.04-3.95,1.56-7.42,1.56c-0.18-1.93-0.86-3.82-2.05-5.69l1.59,0.29
		c1.08,0.19,2.02,0.29,2.83,0.29c1.76,0,2.64-0.92,2.64-2.77v-12.43h-11.74c-1.12,0-2.79,0.07-5.02,0.2c0.2-1.06,0.3-1.85,0.3-2.37
		c0-0.54-0.1-1.34-0.3-2.4c1.84,0.15,3.33,0.23,4.48,0.23h12.28v-6.5h-12.01c-2.07,0-3.81,0.09-5.24,0.26
		c0.16-1.02,0.24-1.78,0.24-2.28c0-0.56-0.08-1.36-0.24-2.4l-1.57-0.12c-0.86-0.06-1.5-0.09-1.92-0.09h-2.21v9.83
		c2.19-0.91,3.92-1.8,5.18-2.69c-0.07,1.02-0.11,1.88-0.11,2.57c0,0.54,0.07,1.47,0.22,2.8c-1.6,0.33-3.36,0.92-5.26,1.76v17.02
		c0,1.66,0.14,3.11,0.43,4.36c-1.19-0.19-2.07-0.29-2.65-0.29c-0.59,0-1.48,0.1-2.67,0.29c0.25-1.19,0.38-2.51,0.38-3.96v-15.87
		c-3.08,1.21-5.92,2.54-8.53,3.99c-0.45-2.08-1.18-4.06-2.19-5.95c3.02-0.29,6.6-1.17,10.74-2.66V85.64h-4.94
		c-0.22,1.62-0.55,3.74-1,6.36l-0.3,1.71c-1.42-0.92-2.93-1.58-4.53-1.97C383.88,85.8,384.92,79.78,384.92,73.68z M341.94,67.38
		c1.87,0.79,3.82,1.37,5.86,1.73c-0.94,0.81-1.85,2.63-2.75,5.46h6.77v-6.79c0-1.14-0.1-2.12-0.3-2.95
		c1.85,0.39,3.76,0.66,5.72,0.84c-0.7,0.83-1.05,1.72-1.05,2.69v6.21h7.39c1.4,0,3.01-0.15,4.83-0.46c-0.07,1.16-0.11,2.02-0.11,2.6
		c0,0.56,0.04,1.4,0.11,2.51c-1.87-0.29-3.33-0.43-4.37-0.43h-7.85v8.18h9.09c1.91,0,4.01-0.23,6.32-0.69
		c-0.16,1.23-0.24,2.15-0.24,2.75c0,0.56,0.06,1.39,0.19,2.49c-3.02-0.23-5.13-0.35-6.32-0.35H340.8c-1.12,0-2.84,0.1-5.18,0.29
		c0.11-1.06,0.16-1.84,0.16-2.34c0-0.56-0.05-1.38-0.16-2.46c1.03,0.06,1.79,0.11,2.29,0.14c1.48,0.12,2.45,0.17,2.92,0.17h10.98
		v-8.18h-7.85c-0.54,1.87-1.11,3.7-1.7,5.49c-1.58-0.71-3.31-1.18-5.18-1.42C339.94,78.61,341.56,73.44,341.94,67.38z M328.06,67.38
		c2.18,2.06,5.11,4.12,8.8,6.19c-1.21,1.37-2.29,2.81-3.27,4.33c-2.61-2.43-5.44-4.58-8.5-6.44
		C326.3,70.26,327.29,68.9,328.06,67.38z M324.1,80.03c3.11,2.31,6.32,4.36,9.61,6.16c-1.1,1.54-2.03,3.18-2.81,4.91
		c-3.17-3.02-6.35-5.22-9.55-6.59C322.39,83.11,323.3,81.61,324.1,80.03z M300.89,72.95l10.77-0.26c-0.31,1.91-0.46,4.57-0.46,7.98
		v25.03c0,0.6,0.07,2.39,0.22,5.38c0.07,1.54,0.11,2.48,0.11,2.8c-1.08-0.08-1.89-0.12-2.43-0.12c-0.58,0-1.41,0.04-2.51,0.12
		c0.13-1.39,0.19-2.69,0.19-3.9v-2.23h-11.39v1.79l0.14,5.35c-1.19-0.13-2.07-0.2-2.65-0.2c-0.49,0-1.21,0.04-2.16,0.12l0.13-5.29
		l0.14-5.4V80.47c0-2.93-0.13-5.51-0.38-7.75L300.89,72.95z M267.61,86.57c-1.89,0-3.72,0.16-5.51,0.49
		c0.11-1.06,0.16-1.85,0.16-2.37c0-0.54-0.05-1.35-0.16-2.43c1.87,0.21,3.65,0.32,5.34,0.32h6.77V72.2
		c-3.58,0.64-6.67,1.16-9.26,1.56c-0.2-2.31-0.96-3.95-2.29-4.91c1.3,0.1,2.17,0.14,2.62,0.14c6.71,0,13.14-1.25,19.3-3.76
		c0.49,2.29,1.59,3.98,3.32,5.06l-1.65,0.23c-1.62,0.21-4.22,0.55-7.8,1.01v11.07h4.26c1.98,0,3.76-0.15,5.34-0.46
		c-0.07,1.08-0.11,1.9-0.11,2.46c0,0.5,0.04,1.29,0.11,2.37c-1.62-0.27-3.45-0.4-5.51-0.4h-4.1v7.89c1.37-0.44,2.54-1.04,3.51-1.79
		c2.11,2.93,4.34,5.84,6.69,8.73c-1.55,0.79-3.09,1.66-4.62,2.6c-1.91-3.85-3.77-6.73-5.59-8.64v16.85c0,2.25,0.12,5.29,0.35,9.1
		c-1.08-0.08-1.87-0.12-2.38-0.12c-0.59,0-1.44,0.04-2.54,0.12c0.2-4.14,0.3-7,0.3-8.58V92.66c-1.26,4.3-4.4,9.91-9.42,16.85
		l-0.49,0.66c-0.31-0.48-0.53-0.84-0.67-1.07c-1.15-1.81-2.36-3.06-3.62-3.76c5.54-3.74,9.86-10,12.95-18.78H267.61z M215.34,73.44
		l-0.11,3.5v21.7v3.61l0.11,3.32c-0.94-0.08-1.66-0.12-2.19-0.12c-0.45,0-1.17,0.05-2.16,0.14c0.07-0.98,0.11-2.17,0.11-3.55v-1.82
		h-6.05v4.05c0,1.81,0.04,3.7,0.13,5.66c-0.99-0.08-1.75-0.12-2.29-0.12c-0.45,0-1.17,0.04-2.16,0.12c0.14-3.26,0.22-6.24,0.22-8.96
		V78.33c0-2.56-0.11-5.33-0.32-8.29l7.48,0.2l7.34-0.2L215.34,73.44z M233.65,120.15c-1.21,0.67-3.77,1.01-7.65,1.01
		c-0.22-2.45-1.02-4.47-2.4-6.07c0.77,0.1,1.35,0.17,1.73,0.23c1.49,0.21,2.57,0.32,3.24,0.32c1.51,0,2.27-0.55,2.27-1.65l0.11-2.14
		V98.53h-5.96c-2.59,0-5.17,0.1-7.75,0.29c0.07-1.41,0.11-2.43,0.11-3.06l-0.03-2.28c1.35,0.17,3.35,0.26,5.99,0.26h7.61v-20.2
		c-4.86,0.39-8.9,0.98-12.12,1.79c-0.29-1.7-0.75-3.36-1.38-5c1.37,0.08,2.39,0.12,3.08,0.12c2.82,0,6.69-0.43,11.59-1.3
		c4.9-0.87,8.91-1.82,12.02-2.86l0.4-0.14c1.03,2.25,2.35,4.22,3.97,5.9c-0.97-0.13-1.67-0.2-2.11-0.2c-1.57,0-3.5,0.19-5.8,0.58
		l-3.78,0.64c-0.14,0.02-0.59,0.08-1.35,0.17v20.52h6.8c2.16,0,4.64-0.19,7.45-0.58c-0.07,1.14-0.11,2.03-0.11,2.69
		c0,0.6,0.05,1.59,0.16,2.98c-0.99-0.06-1.73-0.11-2.21-0.14c-2.14-0.17-3.58-0.26-4.32-0.26h-7.75v17.51
		C235.48,118.07,234.87,119.47,233.65,120.15z M218.85,79.57c1.66-0.35,3.31-0.9,4.97-1.65c0.38,1.77,1.01,3.71,1.89,5.81l1.89,4.57
		c0.05,0.12,0.23,0.55,0.51,1.3c-1.76,0.42-3.57,0.89-5.43,1.39C221.95,86.32,220.67,82.52,218.85,79.57z M248.21,79.43
		c-1.06,0.83-2.15,2.6-3.27,5.32l-2.54,6.18c-0.02,0.04-0.15,0.31-0.4,0.81c-1.55-0.71-3.18-1.18-4.91-1.39
		c2.54-3.97,4.18-8.45,4.94-13.44C243.96,78.01,246.02,78.85,248.21,79.43z"/>
	<rect x="204.98" y="74.6" fill="#088E3F" width="6.1" height="21.47"/>
	<path fill="#088E3F" d="M432.82,324.15c-0.14,4.41-0.2,6.43,13.54,8.62c2.31,0.37,4.78,0.67,7.26,0.92v-14.01h-20.69
		c0,0.13-0.01,0.26-0.01,0.39C432.89,321.37,432.86,322.73,432.82,324.15z"/>
	<path fill="#088E3F" d="M426.33,493.31c0.05-0.26,0.11-0.54,0.17-0.8c-0.06-0.02-0.11-0.04-0.17-0.07V493.31z"/>
	<path fill="#088E3F" d="M495.26,348.87h-6.05c0.27,1.76-0.08,3.6-1.09,5.15c-5.27,8.13-9.85,13.62-13.69,17.33v28.71
		c-4.49,0.48-8.94,1-13.36,1.54c0.63,2.37,1.05,4.65,1.32,6.61c0.3,0.1,0.61,0.21,0.91,0.32c3.76-0.65,7.47-1.28,11.13-1.87v8.22
		c6.86,5.63,12.9,14.64,15.89,28.96l0.11,0.53c1.01,4.77,2.63,9.52,4.82,14.35v-55.26c48.58-7.01,83.04-8.9,83.04-8.9
		c-28.81,0-56.53,1.24-83.04,3.49V348.87z"/>
	<rect x="504.5" y="93.85" fill="#088E3F" width="9.26" height="8.5"/>
	<path fill="#088E3F" d="M449.88,467.57c1.16,1.18,2.4,2.45,3.74,3.8v-19.88c-3.31,3.9-7.17,6.91-10.9,9.08
		C445.01,462.6,447.31,464.94,449.88,467.57z"/>
	<path fill="#088E3F" d="M299.83,624.73h22.77c-4.03-9.58-6.26-20.1-6.26-31.15c0-23.79,10.33-45.17,26.75-59.9v-95.98
		c6.25-2.07,12.57-4.03,18.9-5.91c-0.62-0.44-1.23-0.88-1.81-1.29c-3.72-2.64-7.54-5.35-10.87-7.85c-2.09,0.55-4.16,1.09-6.22,1.65
		v-6.78c-5.91-5.75-12.04-14.61-16.63-21.92c-0.2,0.37-0.41,0.75-0.62,1.12c-6.43,11.45-13.01,17.2-20.1,17.6
		c-1.74,0.1-3.62-0.2-5.58-0.8c4.04,6.06,3.5,10.41,2.24,13.06c-0.61,1.28-1.49,2.35-2.56,3.19v7.71
		c-34.56,11.79-63.58,24.96-86.25,38.09c2.06,7.28,4.28,14.5,6.66,21.63c14.84-10.18,35.32-21.71,61.22-34.58
		c5.97-2.97,12.11-5.81,18.37-8.53v128.42c-12.58,1.77-25.48,3.4-38.68,4.88c1.02,1.73,2.05,3.46,3.1,5.17
		c10.87-0.5,22.8-1.22,35.59-2.25V624.73z"/>
	<path fill="#088E3F" d="M458.47,542.63c0,0,3.51-8.25,0.18-14.04c-3.33-5.79-4.04-9.65,1.23-21.05c5.26-11.4,4.04-21.4,4.04-21.4
		s-8.07-2.11-15.26-9.3c-7.19-7.19-11.4-12.11-16.49-14.91c0,0-1.58-4.21,1.05-5.09c2.63-0.88,23.86-8.95,21.75-33.16
		c0,0,8.6,1.23,9.47,19.12c0.88,17.89-2.46,50,26.84,54.39c0,0-7.46-4.47-6.32-9.04c0,0,23.54,13.74,31.11-1.2
		c0,0-12.63,0-20.82-12.87c-8.19-12.87-10.88-22.69-12.05-28.19c-1.17-5.5-5.03-27.37-27.72-31.93c0,0-0.47-16.26-7.95-21.75
		c0,0,15.44-14.27,13.57-20.58c0,0,7.72-1.4,20.82-21.64c0,0-4.5,0.44-7.75,0.35c0,0,1.32-4.44,1.78-8.07c0,0-17.54-0.12-30.76-2.22
		c-13.22-2.11-20.12-4.91-19.77-16.14c0.32-10.37-0.04-17.79,3.5-21.35l101.09,13.22l0.11-0.83c2.49,2.05,5.85,3.49,10.39,4.06
		c0,0-6.78-2.46-9.94-8.07c-3.16-5.61-2.69-16.37-1.05-27.37c1.64-10.99,6.2-31.58-23.04-38.83l26.02-20.18l-27.78,17.6
		c0,0,2.57-12.87-1.4-20.12s-7.72-13.45-23.98-17.31c-16.26-3.86-23.86-6.67-29.59-25.15c0,0,0.04,5.19,1.43,10.51l-0.72-0.23
		l-25.71,80.03c-5.66,0.84-13.64,2.02-17.69,2.56c0,0-3.33-2.98-1.93-3.77c1.4-0.79,3.68-2.02,3.51-5
		c-0.18-2.98-2.63-2.69-2.51-4.56c0.12-1.87,3.04-0.47,2.81-5.38c-0.23-4.91-6.78-14.74-16.96-17.08c0,0-0.82-2.81,2.11-2.22
		c2.92,0.58,16.14,2.57,21.17-8.3c0,0-5.5,3.39-10.99,3.63c-5.5,0.23-11.58,0.06-15.96-0.29c-2.28-0.35-2.28,0.09-3.51-5.18
		s-7.11-24.39-7.11-24.39s2.54,24.3,2.68,25.44c0.13,1.14,1.71,1.49,1.8,2.63c0.09,1.14-1.89,2.15-3.2,2.76
		c-1.32,0.61-1.24,2.88-0.48,3.23c0.76,0.35,3,1.09,3,2.51c0,1.43-2.6,4.62-2.07,11.4c0.53,6.78,1.58,16.02,5.91,21.29
		c2.34,2.57,3.86,6.08-1.17,7.72c-5.03,1.64-15.2,5.85-18.48,8.19c-3.27,2.34-15.79,14.91-20,18.42c0,0-3.68-2.98-4.56-8.07
		c0,0,5.03-0.29,10.29,0.06l-16.14-14.5c0,0,3.86-0.94,8.54-1.05c0,0-4.09-1.99-14.15-4.56c0,0,5.03-5.5,4.68-10.18
		c0,0-3.86,2.69-7.25,3.16c-3.39,0.47-14.97,0-21.87,0.58c-6.9,0.58-14.5,5.15-19.77,7.13s-8.07-4.56-7.84-9.82
		c0,0-3.98,6.32-2.57,11.58c0,0-4.68,0.7-6.08,3.51c0,0,0-6.08-7.72-9.59c0,0,3.39,7.95,3.16,10.76s-1.75,3.39-1.17,5.26
		c0.58,1.87,3.51,1.99,3.27,7.13c-0.23,5.15,0,11.46,5.15,14.97c0.99,0.58-0.47,3.51-0.12,5.03c0.35,1.52,3.39,0,3.63,4.33
		c0.23,4.33,0.7,20.23,2.46,24.27s5.61,4.56,10.18,3.68c4.56-0.88,6.67-3.16,6.84-6.32c0.18-3.16,0.35-7.89,3.33-7.89
		c2.98,0,2.46,9.12,1.05,10.35c-1.4,1.23-2.63,3.16-4.56,17.02c-0.7,4.39-2.11,5.44-7.19,5.44s-8.77-0.88-14.21-5.26
		c-5.44-4.39-7.89-6.67-10-6.32c-2.11,0.35-11.75,5.96-11.75,14.04c0,3.33,6.67,5.09,1.23,9.65c-5.44,4.56-29.47,28.42-32.28,42.81
		c0,0,9.3,1.4,15.26-1.75c5.96-3.16,12.28-9.65,7.19-15.09c-1.75-1.93,0.09-4.3,1.84-3.33s4.74,4.3,6.75-0.61
		c2.02-4.91,6.67-10.96,8.42-10.96c0,0,0,5.26,0.7,8.6s0.7,8.95,0.7,8.95s7.02,5.26,9.3,10.7c2.28,5.44,2.11,8.07,4.74,8.42
		c2.63,0.35,4.82-0.79,7.37-0.88c2.54-0.09,8.68-0.26,11.49-0.35c2.81-0.09,2.54-3.51-0.88-7.98c-3.42-4.47-5.88-9.12-9.91-9.12
		c-4.04,0-8.51-0.53-8.33-3.68c0.18-3.16,0.61-4.71-1.26-6.23c-1.87-1.52-3.39-3.16-2.46-15.32c0,0,23.74,25.5,34.15,24.91
		s20.35-27.25,20.35-27.25s14.15,26.08,24.91,34.62c10.76,8.54,31.7,21.75,34.15,26.55c2.46,4.8,14.39,36.84,50.18,46.55
		c0,0-3.66,23.4-11.11,38.6c-8.35-3.34-17.45-5.19-26.99-5.19c-40.18,0-72.75,32.57-72.75,72.75s32.57,72.75,72.75,72.75
		s72.75-32.57,72.75-72.75c0-19.55-7.73-37.28-20.27-50.36C452.31,543.6,455.5,543.51,458.47,542.63z M506.25,248.95
		c1.52,1.75,2.92-0.35,5.73,1.52c2.81,1.87,14.39,9.01,13.57,24.21c-0.6,11.12-4.88,28.12,2.07,37.6l-94.98-12.42
		c4.55-3.13,10.52-7.28,14.26-10.73c4.56-4.21,15.09-13.16,21.93-18.42c6.84-5.26,18.36-13.92,20-14.97
		c1.64-1.05,3.39-1.17,5.38-1.17c1.99,0,3.74-3.27,4.8-4.8C500.05,248.25,504.73,247.19,506.25,248.95z M452.48,193.97
		c1.05,2.5,2.51,4.73,4.53,6.09c7.13,4.8,12.63,6.55,23.98,9.94c11.35,3.39,19.65,11.23,19.3,25.61c0,0-8.77-0.23-11.11,9.12
		c-1.29,4.91-8.42,5.15-12.16,7.6c-3.74,2.46-8.19,4.8-8.19,4.8s-19.82,0.94-37.72,11.81c0,0-1.1,0.17-2.85,0.43L452.48,193.97z
		 M362.63,333.74c0,0,5.61-3.74,10.06-4.21c5.61,5.61,5.85,11.7,5.85,11.7L362.63,333.74z M438.47,517.72
		c1.23-8.77,6.84-25.26,6.84-25.26s5.61,1.05,5.79,3.16c0.18,2.11-0.35,13.16-5.61,25.44C440.23,533.33,437.25,526.49,438.47,517.72
		z M445.66,565.66l-3.04,18.88l-19.22,1.76l-19.23-19.52l2.33-17.54l19.91-3.36L445.66,565.66z M396.81,524.23
		c8.97,0,17.54,1.71,25.4,4.81c1.37,0.54,2.71,1.12,4.03,1.74c0.02,0.01,0.03,0.01,0.05,0.02c0.6,0.28,1.2,0.58,1.8,0.88
		c0.07,0.03,0.13,0.06,0.2,0.1c0.65,0.33,1.3,0.67,1.94,1.03l-3.09,6.18h0l-1.36,2.73l-20.73,3.5l-17.28-10.56l-0.09-9.8
		C390.66,524.45,393.7,524.23,396.81,524.23z M359.76,550.7l25.65-12.54l16.94,10.35l-2.3,17.29l-26.18,13.24l-15.58-9.26
		L359.76,550.7z M372.04,582.87l4.13,27.43l-14.35,12.95l-17.3-8.83l-4.75-27.29l16.51-13.62L372.04,582.87z M348.14,544.19
		l7.44,5.95l-1.53,19.74l-17.31,14.29l-8.36-1.83C330.79,567.52,337.9,554.28,348.14,544.19z M363.32,654.32
		c-12.49-6.9-22.63-17.54-28.9-30.41l8.51-5.57l17.61,8.99l8.89,19.56L363.32,654.32z M373.37,645.37l-8.65-19.05l14.51-13.09
		l28.08,4.44l8.59,16.84l-14.32,14.14L373.37,645.37z M406.79,662.21l-2.05-10.77l14.67-14.49l18.78-1.46l6.67,8.07
		C434.65,653.38,421.47,660.1,406.79,662.21z M437.84,631.29l-18.13,1.4l-8.64-16.93l13.09-25.3l19.07-1.75l9.25,17.46
		L437.84,631.29z M449.77,566.61l9.2-3.77c4.59,9.27,7.19,19.7,7.19,30.74c0,3.82-0.32,7.56-0.92,11.21l-9.04-0.6l-9.58-18.06
		L449.77,566.61z"/>
</g>
<g>
</g>
<g>
</g>
<g>
</g>
<g>
</g>
<g>
</g>
<g>
</g>
<g>
</g>
<g>
</g>
<g>
</g>
<g>
</g>
<g>
</g>
</svg>
