<svg version="1.1" xmlns="http://www.w3.org/2000/svg" xmlns:xlink="http://www.w3.org/1999/xlink" x="0px" y="0px"
	 viewBox="0 0 800 800" enable-background="new 0 0 800 800" xml:space="preserve">
<g>
	<path fill="#0F7D40" d="M274.4,339.2l-20.7-16.5c-2.8-2.2-6.8-0.6-7.4,2.8c-1.5,8.5-2.2,17.2-2.2,26.1c0,36.6,12.6,70.2,33.7,96.8
		c1.9,2.5,5.9,1,5.9-2.1v-87.7C283.7,351,280.3,343.9,274.4,339.2z"/>
	<path fill="#0F7D40" d="M386,417.8c1.8-1.5,2.9-3.8,2.9-6.2v-12.8c0-2.4-1.1-4.7-2.8-6.2l-20-16l-3-2.4
		c-10.8-8.7-17.1-21.8-17.1-35.6v-47.4c0-8.5-3.9-16.5-10.5-21.8l-36.4-28.9c-2.6-2.1-6.5-1.9-8.9,0.5
		c-12.4,12.3-22.8,26.7-30.5,42.7c-1,2.1-0.4,4.6,1.4,6.1l22.8,18.2l8.5,6.8c8,6.4,12.7,16.1,12.7,26.3v127.8c0,3.9,1.8,7.5,4.9,9.7
		c9,6.4,18.7,11.9,29,16.3c3.3,1.4,7-1,7-4.6v-22c0-11,4.9-21.5,13.5-28.6l7-5.8L386,417.8z"/>
	<path fill="#0F7D40" d="M424.5,462.9l-13.4-11l-11.1-9.1l-11.1,9.1l-13.4,11c-5.8,4.7-9.1,11.8-9.1,19.2v17.5
		c0,2.5,1.8,4.6,4.2,5.1c9.6,1.9,19.3,2.8,29.4,2.8c10.1,0,19.9-1,29.4-2.8c2.4-0.5,4.2-2.6,4.2-5.1v-17.5
		C433.6,474.6,430.2,467.6,424.5,462.9z"/>
	<path fill="#0F7D40" d="M324.8,222l21.1,17.4l5.4,4.7c9.1,7.6,14.4,18.8,14.4,30.6v44.8c0,12.4,5.6,24,15.2,31.7l7.8,6.2l7.5,6
		c2.1,1.7,5.2,1.7,7.3,0l7.5-6l7.8-6.2c9.6-7.7,15.2-19.4,15.2-31.7v-44.8c0-11.9,5.3-23.1,14.4-30.6l5.7-4.7l21.1-17.4
		c2.5-2,2.1-5.9-0.7-7.4c-22.1-12-47.5-18.9-74.5-18.9s-52.4,6.8-74.5,18.9C322.7,216.1,322.4,220,324.8,222z"/>
	<path fill="#0F7D40" d="M539.1,289.9c1.9-1.5,2.4-4,1.4-6.1c-7.7-15.9-18.1-30.3-30.5-42.7c-2.4-2.4-6.2-2.6-8.9-0.5l-36.4,28.9
		c-6.6,5.3-10.5,13.3-10.5,21.8v47.4c0,13.8-6.3,26.9-17.1,35.6l-3,2.4l-20,16c-1.9,1.5-3,3.8-3,6.2v12.8c0,2.4,1,4.7,2.9,6.2
		l19.6,16.1l7,5.8c8.5,7,13.5,17.5,13.5,28.6v22c0,3.6,3.7,6,7,4.6c10.4-4.4,20.1-9.9,29.1-16.3c3.1-2.2,4.9-5.9,4.9-9.7V341.1
		c0-10.2,4.7-19.9,12.7-26.3l8.5-6.8L539.1,289.9z"/>
	<path fill="#0F7D40" d="M553.7,325.5c-0.6-3.4-4.7-5-7.4-2.8l-20.7,16.5c-5.9,4.7-9.3,11.9-9.3,19.4v87.7c0,3.1,3.9,4.6,5.9,2.1
		c21.1-26.6,33.7-60.2,33.7-96.8C555.9,342.7,555.2,334,553.7,325.5z"/>
	<path fill="#0F7D40" d="M657.9,468.1c58.3-138.8,47.6-309.6,47.6-309.6L400,50L94.5,158.5c0,0-10.6,170.8,47.6,309.6
		c10.3,24.5,21.7,47.2,34,68.3c-40.5,10.6-65.2,20-65.2,20c23,51.1,42.6,77.6,42.6,77.6c12.1-3,24.1-5.7,36-8.1l16.2,28.1
		c3.9,6.7,12.1,9.5,19.3,6.5c8.2-3.4,20.4-8.1,35.8-12.8C311.2,699.3,362.9,732.3,400,750c37.1-17.7,88.8-50.7,139.2-102.3
		c15.4,4.8,27.5,9.4,35.8,12.8c7.2,3,15.4,0.2,19.3-6.5l16.2-28.1c11.9,2.4,23.9,5.1,36,8.1c0,0,19.7-26.4,42.6-77.6
		c0,0-24.6-9.4-65.2-20C636.2,515.3,647.6,492.6,657.9,468.1z M152.5,462.9c-49.6-120.5-45.5-263.2-44.3-295.6L400,62.7l292,104.6
		c1.2,32.3,5.3,175.1-44.3,295.6c-12.7,30.9-27.3,59.9-43.9,86.9c-16.6-6.1-34.9-11.8-54.1-16.7c0.2,0,0.4,0.1,0.6,0.1
		c52.2-43.3,85.5-108.6,85.5-181.7c0-130.2-105.6-235.8-235.8-235.8S164.2,221.4,164.2,351.6c0,73.1,33.3,138.4,85.5,181.7
		c0.2,0,0.4-0.1,0.6-0.1c-19.1,4.9-37.4,10.5-53.9,16.6C179.8,522.8,165.2,493.8,152.5,462.9z M540.5,530.8
		c-48-11.6-99.8-18.7-140.5-18.7c-40.7,0-92.5,7.1-140.4,18.7c0.1,0,0.3-0.1,0.4-0.1c-53.2-41.6-87.3-106.4-87.3-179.1
		c0-125.5,101.8-227.3,227.3-227.3s227.3,101.8,227.3,227.3c0,72.7-34.2,137.5-87.3,179.1C540.1,530.7,540.3,530.8,540.5,530.8z
		 M522.7,650.3c-50.9,48-96.8,76-122.6,88.7c-25.8-12.7-71.7-40.7-122.6-88.7c-2-1.9-4-3.9-6-5.8c32.8-9.3,77.4-18.1,128.5-18.1
		c51.2,0,95.9,8.8,128.7,18.1C526.7,646.5,524.7,648.4,522.7,650.3z M625.9,543.5c18,4.7,46.5,13.5,54.6,16.5
		c-16.5,35.8-30.9,58.4-36.5,66.6c-12-2.9-24.2-5.5-36.5-8l-18.6,32.1c-1.6,2.8-4.6,4.5-7.8,4.5c-29.6-10.1-92.3-35.3-180.9-35.2
		c-88.5-0.1-151.3,25.1-180.9,35.2c-3.2,0-6.2-1.7-7.8-4.5l-18.6-32.1c-12.3,2.4-24.5,5.1-36.5,8c-5.5-8.2-20-30.8-36.5-66.6
		c8.1-3,36.5-11.8,54.6-16.5c2-0.5,3.9-0.8,5.5-0.9c0.1,0.2,0.2,0.3,0.3,0.5c1.5,2.5,3.1,5,4.6,7.5c0,0.1,0,0.1,0,0.1
		c0.6,0.9,1.1,1.8,1.6,2.6c-2.4,2.8-6.5,5.9-10.5,6.9c26.1-6.6,49.8-14.7,73.1-20.8c47.9-12.5,93.9-20.8,151-20.7
		c57.1-0.2,103.1,8.2,151,20.7c23.3,6.1,46.9,14.2,73.1,20.8c-3.9-1-8.1-4.1-10.5-6.9c0.4-0.8,1-1.7,1.5-2.6c1.5-2.5,3.1-5,4.6-7.5
		c0.1-0.2,0.2-0.3,0.3-0.5C621.8,542.9,623.6,543.2,625.9,543.5z"/>
	<polygon fill="#0F7D40" points="352.2,640.3 352.1,640.2 344.6,646.1 344.6,653.1 352.2,647.8 352.2,675.3 357.7,675.3 
		357.7,640.2 352.2,640.2 	"/>
	<path fill="#0F7D40" d="M383,639.7c-6.2,0-11.2,5-11.2,11.2c0,6.1,4.9,11.1,11,11.2l-7.3,13.3h7.4l9.6-18.7
		c1.1-1.8,1.7-3.7,1.7-5.8C394.2,644.7,389.2,639.7,383,639.7z M383,656.2c-2.9,0-5.3-2.4-5.3-5.3c0-2.9,2.4-5.3,5.3-5.3
		c2.9,0,5.3,2.4,5.3,5.3C388.3,653.8,385.9,656.2,383,656.2z"/>
	<path fill="#0F7D40" d="M414.6,662.1l-7.3,13.3h7.4l9.6-18.7c1.1-1.8,1.7-3.7,1.7-5.8c0-6.2-5-11.2-11.2-11.2s-11.2,5-11.2,11.2
		C403.6,657,408.5,662,414.6,662.1z M414.8,645.6c2.9,0,5.3,2.4,5.3,5.3c0,2.9-2.4,5.3-5.3,5.3c-2.9,0-5.3-2.4-5.3-5.3
		C409.5,648,411.9,645.6,414.8,645.6z"/>
	<path fill="#0F7D40" d="M455.7,670.2H442l7.7-9.3l3.3-4.3c0.7-0.9,4.3-5.6,1.8-10.6c-2.5-5.1-8.7-8-15.1-5.2
		c-4,1.8-5.7,5.9-5.5,10.3c0,0.1,0,0.1,0,0.2h5.9c-0.3-1.8,0-4.2,1.5-5.1c5.3-3.1,9.8,2.4,7.6,5.8c-0.9,1.4-3,4-3,4l-4.8,5.6
		l-7.5,8.6v5.2h21.8V670.2z"/>
	<polygon fill="#0F7D40" points="458.3,578.4 472.5,579.9 468.6,554.8 	"/>
	<path fill="#0F7D40" d="M623.6,554.7c10,5.1,14.4,9.9,6.1,11.7c-2.7,0.3-21.7-4.2-27.3-5.9c-78-22.1-124.3-36.4-202.4-36.2
		c-78.1-0.2-124.4,14.1-202.4,36.2c-5.6,1.7-24.6,6.2-27.3,5.9c-8.3-1.8-3.9-6.6,6.1-11.7c29.4-18-47.8,8.5-49.1,8.7
		c13.5,28.5,25.3,47.8,31.4,57.1c10.2-2.4,20.6-4.7,31.1-6.8c0,0-9.1-15.7-12.8-33.1c10.5,18,28.5,49.5,39,67.5
		c30.1-3.3,93.5-35.8,184-33.5c90.5-2.3,154,30.2,184,33.5c10.5-18,28.5-49.4,39-67.5c-3.7,17.4-12.8,33.1-12.8,33.1
		c10.4,2.1,20.8,4.4,31.1,6.8c6.1-9.3,17.9-28.6,31.4-57.1C671.4,563.2,594.2,536.7,623.6,554.7z M229.9,587.6
		c2-30,32-31.5,45.2-31.5c1.4,6.8,2.2,11.7,2.2,11.7c-5.3-0.8-36.2-2-33.1,22.1c4.3,24.1,29.8,13,29.8,13l-2.3-11.4l-10.3,2.1
		l-2.2-10.5c7.9-1.7,23-4.1,23-4.1l6.4,27.6C263.6,627.5,227.9,617.6,229.9,587.6z M330.6,604.5c-20.3,3.4-26.9-5-30.9-24.8
		c-3.9-20-5-29.3-5-29.3l13.9-2.2c0,0,2.9,17.2,5.1,30.9s10.1,13.7,13.2,13.5c3.1-0.2,11.9-1.3,9.7-17.6s-4.4-30.2-4.4-30.2
		l15.2-1.5c0,0,1.8,12.4,3.3,28.2S351.4,601.1,330.6,604.5z M395.5,599.9c-17.1,0-31-13.9-31-31s13.9-31,31-31c17.1,0,31,13.9,31,31
		S412.6,599.9,395.5,599.9z M476.2,603.8l-2.2-14.3l-19.6-2.2l-5.6,12.8l-14.9-1.7l27.1-54.9l17.5,1.7l12.9,58.9L476.2,603.8z
		 M554.3,621l-12.6-3.7l-17.5-45.9l-7.9,39l-13.6-3.3l11.6-54.9l16.5,3.3l16.2,42.7l10.6-36.1l13.6,4L554.3,621z"/>
	
		<ellipse transform="matrix(0.3827 -0.9239 0.9239 0.3827 -281.4464 716.5856)" fill="#0F7D40" cx="395.5" cy="568.9" rx="17.6" ry="17.6"/>
	<path fill="#0F7D40" d="M231.6,431.5c-4.1,1.5-5.7,6-4.7,8.9c0,0-4.5-3.8-9.2-1.2c-4.2,2.3-4.1,7.7-1.4,12.7c2.7,5.1,6.3,11,6.3,11
		l27.1-15.2c0,0-2.6-5.3-5.5-10.4C241.4,432.3,236.1,429.8,231.6,431.5z M223.9,453.9c0,0-0.8-1.6-2.2-4c-1.2-2.2,0.2-4.4,1.1-5
		c0.9-0.6,3.7-0.4,4.9,1.1s2.9,4,2.9,4.2L223.9,453.9z M234.4,447.9c0,0-0.4-1-1.6-3.1c-1.4-2.4-1.3-6.1,0.5-7.1
		c2.2-1.2,4.1-0.2,5.5,1.8c1.5,2,2.9,4.3,2.9,4.3L234.4,447.9z"/>
	<path fill="#0F7D40" d="M533.3,234.3c3.9,4.3,9.6,5.6,13.6,3c3.7-2.3,4.3-7.1,2.7-9.7c0,0,5.2,2.8,9.2-0.8
		c3.6-3.2,2.4-8.4-1.4-12.7c-3.8-4.3-8.5-9.3-8.5-9.4l-23.2,20.7C525.7,225.4,529.4,230,533.3,234.3z M549.6,213.9
		c0,0,1.1,1.3,3,3.4c1.7,1.8,0.8,4.3,0,5.1c-0.8,0.8-3.5,1.2-5,0c-1.6-1.3-3.8-3.4-3.7-3.4L549.6,213.9z M540.5,222
		c0,0,0.6,0.8,2.3,2.6c1.9,2,2.6,5.6,1.1,7c-1.9,1.7-4,1.1-5.8-0.5c-1.9-1.6-3.8-3.6-3.8-3.6L540.5,222z"/>
	<path fill="#0F7D40" d="M566.2,454.4c0,0-0.8,5.8,3.9,8.4c4.2,2.3,8.7-0.6,11.5-5.6c2.8-5,5.9-11.2,5.8-11.1l-27.3-14.9
		c0,0-3.1,5.1-5.8,10.2s-2,10.9,1.8,13.8C559.6,457.8,564.3,456.8,566.2,454.4z M570.5,450.7c0.6-1.8,1.9-4.6,1.9-4.7l6.7,3.7
		c0,0-0.9,1.5-2.2,4c-1.2,2.2-3.9,2.2-4.8,1.7C571.2,454.9,569.8,452.5,570.5,450.7z M559.1,444.8c0.9-2.3,2.1-4.8,2.1-4.8l7.3,4
		c0,0-0.6,0.8-1.7,3c-1.3,2.5-4.5,4.4-6.3,3.4C558.3,449.2,558.2,447.1,559.1,444.8z"/>
	<polygon fill="#0F7D40" points="224.2,423.7 230.5,421.4 235.2,419.7 229.7,402.1 224,403.8 227.7,414.5 221.3,416.8 217,406.8 
		211.4,408.8 215.6,418.9 209.9,420.9 206.1,411 200.1,412.3 204.1,423 206.9,430.1 212.7,428 218.5,425.8 	"/>
	<polygon fill="#0F7D40" points="226.4,387 195.5,393.3 196.9,400.8 227.9,394 	"/>
	<polygon fill="#0F7D40" points="222.4,346.4 190.9,345.9 190.7,353.5 222.4,353.7 	"/>
	<path fill="#0F7D40" d="M211.5,371.8c3.1,0,5.1,0.9,6.2,2.5c1,1.5,1,3.7,0.1,6l6.5-0.3v-5.8c0-6.8-6.3-9.3-10.3-9.3
		c-0.2,0-0.3,0-0.4,0c-3.8,0.2-19.2,1.6-21.5,1.8l0.2,7c1.7-0.2,10.2-1.2,17.7-1.8C210.5,371.8,211,371.8,211.5,371.8z"/>
	<polygon fill="#0F7D40" points="223.7,330.2 202.2,326.8 226.8,315.7 227.1,309.4 196.1,304.6 195,311.6 214.7,314.2 192.6,324.5 
		191.6,331.9 222.7,337.2 	"/>
	<path fill="#0F7D40" d="M221.5,298.1c17.4-0.6,15-22.7,15-22.7l-14.3-5.3l-4.2,11.2l5.7,2.4l1.5-4.9l5.3,2.2
		c0.2,4.4-3.7,9.9-9.2,9.9c-5.4,0-9.6-3.8-10.9-9.3c-1.3-5.5,5.5-13.1,5.5-13.1l-6.7-0.6C199.5,279.1,203.6,297.2,221.5,298.1z"/>
	<path fill="#0F7D40" d="M242.8,250.3c16.7,4.8,21.3-16.9,21.3-16.9l-12-9.5l-7.5,9.4l4.7,4.1l3-4.1l4.3,3.7
		c-1.1,4.3-6.6,8.3-11.8,6.6s-7.9-6.6-7.5-12.2c0.5-5.6,9.3-10.7,9.3-10.7l-6.2-2.7C227.7,225.6,226,244.1,242.8,250.3z"/>
	<path fill="#0F7D40" d="M332.5,179.7l10.7-3.5l4.5,5.8l7.1-2.6l-21.2-25.6l-7.3,2.8v33.1l6.3-2.5L332.5,179.7z M332.2,161.8
		L340,172l-7.6,2.1L332.2,161.8z"/>
	<path fill="#0F7D40" d="M548.3,251.7l7.3-1.5l5.4,9.9l-5,5.6l3.9,6.5l21.5-25.4l-4.1-6.7l-32.6,5.9L548.3,251.7z M573,246.8
		l-8.6,9.5l-3.4-7.1L573,246.8z"/>
	<polygon fill="#0F7D40" points="367.7,177 364.9,155.5 379.9,174.1 388.1,173.7 384.3,143.8 377.3,144.2 379.7,164.2 365,146.6 
		356.4,147.3 360.5,177.5 	"/>
	<path fill="#0F7D40" d="M281.1,220.8l0.7-0.6c5.4-4.8,5.7-13.3,0.6-18.6l-12.9-13.1l-5.1,4.7l13.5,14.5c2.2,2.3,2,5.9-0.4,8
		l-0.3,0.3c-2.3,1.9-5.7,1.7-7.7-0.5L256,200.8l-4.9,4.6l12,14.1C267.7,224.9,275.8,225.5,281.1,220.8z"/>
	<path fill="#0F7D40" d="M568,409.4l-0.3,0.9c-2.5,6.9,1.3,14.4,8.4,16.5l17.6,5.3l2.2-6.6l-18.8-6.1c-3-1-4.6-4.2-3.5-7.2l0.1-0.4
		c1.1-2.8,4.2-4.3,7-3.3l18.9,6.4l2.1-6.4l-17.3-6.6C577.8,399.4,570.4,402.8,568,409.4z"/>
	<polygon fill="#0F7D40" points="568.8,295.4 574.5,293.8 570.6,283.6 593.6,273.9 590.9,267 563,278.3 	"/>
	<polygon fill="#0F7D40" points="575.3,320.3 581.2,319.2 579.2,308.1 603.2,302.8 601.6,295.5 571.5,302.3 	"/>
	<polygon fill="#0F7D40" points="574.1,392.3 580,392.6 581.8,382.6 606.6,386.7 607.2,379.1 576.8,374.2 	"/>
	<path fill="#0F7D40" d="M310.9,198.9c6.9-5,8.2-14.9,3-22.2c-5.2-7.3-15.1-9.2-22-4.3c-6.9,4.9-8.2,14.9-3,22.2
		S304,203.8,310.9,198.9z M295.5,177.4c3.6-2.6,9.1-1,12.3,3.5c3.3,4.6,3,10.3-0.6,12.8c-3.6,2.6-9.1,1-12.3-3.5
		S292,180,295.5,177.4z"/>
	<path fill="#0F7D40" d="M451.9,181.9c8,2.8,16.9-1.9,19.8-10.4s-1.3-17.6-9.3-20.4c-8-2.7-16.9,1.9-19.8,10.4
		C439.7,170,443.9,179.1,451.9,181.9z M449.6,164c1.8-5.2,6.6-8.3,10.7-6.9c4.1,1.4,6.1,6.8,4.3,12c-1.7,5.2-6.5,8.3-10.7,6.9
		C449.8,174.6,447.8,169.2,449.6,164z"/>
	<path fill="#0F7D40" d="M482.9,195.2c6.7,5.1,16.6,3.6,22.1-3.5c5.5-7.1,4.5-17.1-2.2-22.3c-6.7-5.2-16.6-3.7-22.1,3.5
		C475.2,180,476.2,190,482.9,195.2z M486.7,177.4c3.4-4.4,8.9-5.7,12.4-3c3.5,2.7,3.5,8.4,0.1,12.8c-3.4,4.3-9,5.7-12.4,3
		C483.3,187.5,483.3,181.8,486.7,177.4z"/>
	<polygon fill="#0F7D40" points="423,163.9 433.6,164.8 433.9,158.7 423.6,157.9 424.2,150.7 435.9,151.1 436.1,145.6 417.9,144.4 
		414.8,173.9 422,174.2 	"/>
	<polygon fill="#0F7D40" points="513.9,214.7 529.7,195.4 536.4,200.6 540.4,196.2 520.6,181 517.3,185.9 523.7,190.8 508.7,210.3 	
		"/>
	<path fill="#0F7D40" d="M577.2,356.3c-0.1,5.5,2.1,9.3,2.1,9.3h7.4c0,0-2.4-1.9-2.8-6.4c-0.4-5.4,2.3-9.7,8.9-10.1
		c6.2-0.4,10.9,4.5,10.6,8.9c-0.2,4.4-2.2,7.6-2.2,7.6h7.3c0,0,2-2.1,1.5-8c-0.4-6-4.4-16.2-16.6-16
		C581,341.8,577.3,350.8,577.2,356.3z"/>
</g>
</svg>
