<svg version="1.1" xmlns="http://www.w3.org/2000/svg" xmlns:xlink="http://www.w3.org/1999/xlink" x="0px" y="0px"
	 viewBox="0 0 800 800" enable-background="new 0 0 800 800" xml:space="preserve">
<path fill="#175A2D" d="M689.1,556.4c-22.9,51.2-42.6,77.6-42.6,77.6c-31.2-7.7-61.9-13.5-91.3-17.7c21.8-25.2,41.1-52.7,58.1-82.6
	l0,0C660.2,545.4,689.1,556.4,689.1,556.4z"/>
<path fill="#175A2D" d="M705.5,158.5L400,50L94.5,158.5c0,0-10.6,170.8,47.6,309.6C210,630,330.5,716.9,400,750
	c69.5-33.1,190-120,257.9-281.9C716.2,329.3,705.5,158.5,705.5,158.5z"/>
<path fill="#FDCE1D" d="M400,62.7l292,104.6c1.2,32.3,5.3,175.1-44.3,295.6c-30.3,73.7-71.3,136.7-125,187.4
	c-50.9,48-96.8,76-122.6,88.7c-25.8-12.7-71.7-40.7-122.6-88.7c-53.7-50.7-94.7-113.7-125-187.4c-49.6-120.5-45.5-263.2-44.3-295.6
	L400,62.7z"/>
<path fill="#0F7D40" d="M400,730c-19.9-10.2-64.8-36.2-117.1-85.6c-51.1-48.2-92.6-110.4-123.1-184.6
	c-42.2-102.5-45.8-221.6-43.9-286.9L400,71.2L684.2,173c1.9,65.3-1.7,184.4-43.9,286.9c-30.6,74.3-72,136.4-123.1,184.6
	C464.8,693.9,419.9,719.8,400,730z"/>
<circle fill="#FDCE1D" cx="400" cy="351.6" r="235.8"/>
<circle fill="#107D3E" cx="400" cy="351.6" r="227.3"/>
<g>
	<path fill="#FDCE1D" d="M283.7,358.6v87.7c0,3.1-4,4.6-5.9,2.1c-21.1-26.6-33.7-60.2-33.7-96.8c0-8.9,0.7-17.6,2.2-26.1
		c0.6-3.4,4.6-5,7.4-2.8l20.7,16.5C280.3,343.9,283.7,351,283.7,358.6z"/>
	<path fill="#FDCE1D" d="M388.9,398.8v12.8c0,2.4-1.1,4.7-2.9,6.2l-19.5,16.1l-7,5.8c-8.6,7.1-13.5,17.6-13.5,28.6v22
		c0,3.6-3.7,6-7,4.6c-10.3-4.4-20-9.9-29-16.3c-3.1-2.2-4.9-5.8-4.9-9.7V341.1c0-10.2-4.7-19.9-12.7-26.3l-8.5-6.8l-22.8-18.2
		c-1.8-1.5-2.4-4-1.4-6.1c7.7-16,18.1-30.4,30.5-42.7c2.4-2.4,6.3-2.6,8.9-0.5l36.4,28.9c6.6,5.3,10.5,13.3,10.5,21.8v47.4
		c0,13.8,6.3,26.9,17.1,35.6l3,2.4l20,16C387.8,394.1,388.9,396.4,388.9,398.8z"/>
	<path fill="#FDCE1D" d="M433.6,482.1v17.5c0,2.5-1.8,4.6-4.2,5.1c-9.5,1.8-19.3,2.8-29.4,2.8s-19.8-0.9-29.4-2.8
		c-2.4-0.5-4.2-2.6-4.2-5.1v-17.5c0-7.4,3.3-14.5,9.1-19.2l13.4-11l11.1-9.1l11.1,9.1l13.4,11C430.2,467.6,433.6,474.6,433.6,482.1z
		"/>
	<path fill="#FDCE1D" d="M345.9,239.4L324.8,222c-2.4-2-2.1-5.9,0.7-7.4c22.1-12.1,47.5-18.9,74.5-18.9s52.4,6.9,74.5,18.9
		c2.8,1.5,3.2,5.4,0.7,7.4l-21.1,17.4l-5.7,4.7c-9.1,7.5-14.4,18.7-14.4,30.6v44.8c0,12.3-5.6,24-15.2,31.7l-7.8,6.2l-7.5,6
		c-2.1,1.7-5.2,1.7-7.3,0l-7.5-6l-7.8-6.2c-9.6-7.7-15.2-19.3-15.2-31.7v-44.8c0-11.8-5.3-23-14.4-30.6L345.9,239.4z"/>
	<path fill="#FDCE1D" d="M516.3,308l-8.5,6.8c-8,6.4-12.7,16.1-12.7,26.3V469c0,3.8-1.8,7.5-4.9,9.7c-9,6.4-18.7,11.9-29.1,16.3
		c-3.3,1.4-7-1-7-4.6v-22c0-11.1-5-21.6-13.5-28.6l-7-5.8L414,417.9c-1.9-1.5-2.9-3.8-2.9-6.2v-12.8c0-2.4,1.1-4.7,3-6.2l20-16
		l3-2.4c10.8-8.7,17.1-21.8,17.1-35.6v-47.4c0-8.5,3.9-16.5,10.5-21.8l36.4-28.9c2.7-2.1,6.5-1.9,8.9,0.5
		c12.4,12.4,22.8,26.8,30.5,42.7c1,2.1,0.5,4.6-1.4,6.1L516.3,308z"/>
	<path fill="#FDCE1D" d="M555.9,351.6c0,36.6-12.6,70.2-33.7,96.8c-2,2.5-5.9,1-5.9-2.1v-87.7c0-7.5,3.4-14.7,9.3-19.4l20.7-16.5
		c2.7-2.2,6.8-0.6,7.4,2.8C555.2,334,555.9,342.7,555.9,351.6z"/>
</g>
<path fill="#175A2D" d="M244.9,616.3c-29.4,4.2-60.1,10-91.4,17.7c0,0-19.6-26.5-42.6-77.6c0,0,29-11,75.8-22.7
	C203.8,563.5,223.1,591.1,244.9,616.3z"/>
<path fill="#175A2D" d="M400,512.1c-74.8,0-187.4,24.1-244,55.8l49.7,86.1c3.9,6.7,12.1,9.5,19.3,6.5c26.2-10.9,91.9-34.1,175-34.1
	s148.8,23.2,175,34.1c7.2,3,15.4,0.2,19.3-6.5l49.7-86.1C587.4,536.2,474.8,512.1,400,512.1z"/>
<path fill="#107D3E" d="M228.9,612.2c-24.7,3.9-48.9,8.8-72.6,14.5c-5.6-8.2-20-30.8-36.5-66.6c10-3.5,31-10.3,59.8-17.8
	C195,568,211.6,591.3,228.9,612.2z"/>
<path fill="#107D3E" d="M680.3,560.1c-16.5,35.8-31,58.4-36.5,66.6c-23.6-5.7-47.8-10.6-72.6-14.5c17.2-20.9,33.9-44.1,49.3-69.9
	C649.3,549.8,670.3,556.6,680.3,560.1z"/>
<path fill="#107D3E" d="M580.9,655.3c-1.2,0-2.3-0.2-3.4-0.7C552.5,644.2,485,620,400,620s-152.5,24.2-177.5,34.5
	c-1.1,0.5-2.3,0.7-3.4,0.7c-3.2,0-6.2-1.7-7.8-4.5l-46.4-80.3C220,542,325.4,518.6,400,518.6s180,23.4,235.1,51.8l-46.4,80.3
	C587.1,653.5,584.1,655.3,580.9,655.3L580.9,655.3z"/>
<path fill="#FDCE1D" d="M620.1,542.7c-0.1,0.2-0.2,0.3-0.3,0.5c-1.5,2.5-3.1,5-4.6,7.5l0,0c-0.5,0.9-1.1,1.8-1.5,2.6
	c2.4,2.8,6.6,5.9,10.5,6.9c-26.2-6.6-49.8-14.7-73.1-20.8c-47.9-12.5-93.9-20.9-151-20.7c-57.1-0.1-103.1,8.2-151,20.7
	c-23.3,6.1-47,14.2-73.1,20.8c4-1,8.1-4.1,10.5-6.9c-0.5-0.8-1-1.7-1.6-2.6c0,0,0,0,0-0.1c-1.5-2.5-3.1-5-4.6-7.5
	c-0.1-0.2-0.2-0.3-0.3-0.5c-1.6,0.1-3.5,0.4-5.5,0.9c-18.1,4.7-46.5,13.5-54.6,16.5c16.5,35.8,31,58.4,36.5,66.6
	c12-2.9,24.2-5.6,36.5-8l18.6,32.1c1.6,2.8,4.6,4.5,7.8,4.5c29.6-10.1,92.4-35.3,180.9-35.2l0,0l0,0c88.6-0.1,151.3,25.1,180.9,35.2
	c3.2,0,6.2-1.7,7.8-4.5l18.6-32.1c12.3,2.5,24.5,5.1,36.5,8c5.6-8.2,20-30.8,36.5-66.6c-8.1-3-36.6-11.8-54.6-16.5
	C623.6,543.2,621.8,542.9,620.1,542.7z M641.3,620.5c-10.3-2.4-20.7-4.7-31.1-6.8c0,0,9.1-15.7,12.8-33.1
	c-10.5,18.1-28.5,49.5-39,67.5c-30-3.3-93.5-35.8-184-33.5c-90.5-2.3-153.9,30.2-184,33.5c-10.5-18-28.5-49.5-39-67.5
	c3.7,17.4,12.8,33.1,12.8,33.1c-10.5,2.1-20.9,4.4-31.1,6.8c-6.1-9.3-17.9-28.6-31.4-57.1c1.3-0.2,78.5-26.7,49.1-8.7
	c-10,5.1-14.4,9.9-6.1,11.7c2.7,0.3,21.7-4.2,27.3-5.9c78-22.1,124.3-36.4,202.4-36.2c78.1-0.2,124.4,14.1,202.4,36.2
	c5.6,1.7,24.6,6.2,27.3,5.9c8.3-1.8,3.9-6.6-6.1-11.7c-29.4-18,47.8,8.5,49.1,8.7C659.2,591.9,647.4,611.2,641.3,620.5z"/>
<g>
	<polygon fill="#FDCE1D" points="352.2,640.2 352.2,640.3 352.1,640.2 344.6,646.1 344.6,653.1 352.2,647.8 352.2,675.3 
		357.7,675.3 357.7,640.2 	"/>
	<path fill="#FDCE1D" d="M394.2,650.9c0-6.2-5-11.2-11.2-11.2s-11.2,5-11.2,11.2c0,6.1,4.9,11.1,11,11.2l-7.3,13.3h7.4l9.6-18.7l0,0
		C393.6,654.9,394.2,653,394.2,650.9z M377.7,650.9c0-2.9,2.4-5.3,5.3-5.3s5.3,2.4,5.3,5.3c0,2.9-2.4,5.3-5.3,5.3
		S377.7,653.8,377.7,650.9z"/>
	<path fill="#FDCE1D" d="M426,650.9c0-6.2-5-11.2-11.2-11.2s-11.2,5-11.2,11.2c0,6.1,4.9,11.1,11,11.2l-7.3,13.3h7.4l9.6-18.7l0,0
		C425.4,654.9,426,653,426,650.9z M409.5,650.9c0-2.9,2.4-5.3,5.3-5.3s5.3,2.4,5.3,5.3c0,2.9-2.4,5.3-5.3,5.3
		S409.5,653.8,409.5,650.9z"/>
	<path fill="#FDCE1D" d="M449.7,660.9l3.3-4.3c0.7-0.9,4.3-5.6,1.8-10.6c-2.5-5.1-8.7-8-15.1-5.2c-4,1.8-5.7,5.9-5.5,10.3
		c0,0.1,0,0.1,0,0.2h5.9l0,0c-0.3-1.8,0-4.2,1.5-5.1c5.3-3.1,9.8,2.4,7.6,5.8c-0.9,1.4-3,4-3,4l-4.8,5.6l-7.5,8.6v5.2h21.8v-5.2H442
		L449.7,660.9z"/>
</g>
<g>
	<path fill="#FDCE1D" d="M277.3,567.8c0,0-0.8-4.9-2.2-11.7c-13.2,0-43.2,1.5-45.2,31.5s33.7,39.9,58.7,19l-6.4-27.6
		c0,0-15.1,2.4-23,4.1l2.2,10.5l10.3-2.1l2.3,11.4c0,0-25.5,11.1-29.8-13C241.1,565.8,272,567,277.3,567.8z"/>
	<path fill="#FDCE1D" d="M294.7,550.4l13.9-2.2c0,0,2.9,17.2,5.1,30.9s10.1,13.7,13.2,13.5s11.9-1.3,9.7-17.6
		c-2.2-16.3-4.4-30.2-4.4-30.2l15.2-1.5c0,0,1.8,12.4,3.3,28.2s0.7,29.6-20.1,33c-20.3,3.4-26.9-5-30.9-24.8
		C295.8,559.7,294.7,550.4,294.7,550.4z"/>
	<path fill="#FDCE1D" d="M395.5,537.9c-17.1,0-31,13.9-31,31s13.9,31,31,31s31-13.9,31-31S412.6,537.9,395.5,537.9z M395.5,586.5
		c-9.7,0-17.6-7.9-17.6-17.6s7.9-17.6,17.6-17.6s17.6,7.9,17.6,17.6S405.2,586.5,395.5,586.5z"/>
	<path fill="#FDCE1D" d="M476.2,603.8l15.2,0.3l-12.9-58.9l-17.5-1.7l-27.1,54.9l14.9,1.7l5.6-12.8l19.6,2.2L476.2,603.8z
		 M458.3,578.4l10.3-23.6l3.9,25.1L458.3,578.4z"/>
	<polygon fill="#FDCE1D" points="514.3,552.2 502.7,607.1 516.3,610.4 524.2,571.4 541.7,617.3 554.3,621 571.2,566.1 557.6,562.1 
		547,598.2 530.8,555.5 	"/>
</g>
<g>
	<path fill="#FDCE1D" d="M216.3,451.9c-2.7-5-2.8-10.4,1.4-12.7c4.7-2.6,9.2,1.2,9.2,1.2c-1-2.9,0.6-7.4,4.7-8.9
		c4.5-1.7,9.8,0.8,12.6,5.8c2.9,5.1,5.5,10.4,5.5,10.4l-27.1,15.2C222.6,462.9,219,457,216.3,451.9z M227.7,446
		c-1.2-1.5-4-1.7-4.9-1.1s-2.3,2.8-1.1,5c1.4,2.4,2.2,4,2.2,4l6.7-3.7C230.6,450,228.9,447.5,227.7,446z M238.8,439.5
		c-1.4-2-3.3-3-5.5-1.8c-1.8,1-1.9,4.7-0.5,7.1c1.2,2.1,1.6,3.1,1.6,3.1l7.3-4.1C241.7,443.8,240.3,441.5,238.8,439.5z"/>
	<path fill="#FDCE1D" d="M557.4,214.1c3.8,4.3,5,9.5,1.4,12.7c-4,3.6-9.2,0.8-9.2,0.8c1.6,2.6,1,7.4-2.7,9.7c-4,2.6-9.7,1.3-13.6-3
		c-3.9-4.3-7.6-8.9-7.6-8.9l23.2-20.7C548.9,204.8,553.6,209.8,557.4,214.1z M547.6,222.4c1.5,1.2,4.2,0.8,5,0s1.7-3.3,0-5.1
		c-1.9-2.1-3-3.4-3-3.4l-5.7,5.1C543.8,219,546,221.1,547.6,222.4z M538.1,231.1c1.8,1.6,3.9,2.2,5.8,0.5c1.5-1.4,0.8-5-1.1-7
		c-1.7-1.8-2.3-2.6-2.3-2.6l-6.2,5.5C534.3,227.5,536.2,229.5,538.1,231.1z"/>
	<path fill="#FDCE1D" d="M581.6,457.2c-2.8,5-7.3,7.9-11.5,5.6c-4.7-2.6-3.9-8.4-3.9-8.4c-1.9,2.4-6.6,3.4-10.1,0.8
		c-3.8-2.9-4.5-8.7-1.8-13.8s5.8-10.2,5.8-10.2l27.3,14.9C587.5,446,584.4,452.2,581.6,457.2z M570.5,450.7
		c-0.7,1.8,0.7,4.2,1.6,4.7c0.9,0.5,3.6,0.5,4.8-1.7c1.3-2.5,2.2-4,2.2-4l-6.7-3.7C572.4,446.1,571.1,448.9,570.5,450.7z
		 M559.1,444.8c-0.9,2.3-0.8,4.4,1.4,5.6c1.8,1,5-0.9,6.3-3.4c1.1-2.2,1.7-3,1.7-3l-7.3-4C561.2,440,560,442.5,559.1,444.8z"/>
	<polygon fill="#FDCE1D" points="235.2,419.7 230.5,421.4 224.2,423.7 218.5,425.8 212.7,428 206.9,430.1 204.1,423 200.1,412.3 
		206.1,411 209.9,420.9 215.6,418.9 211.4,408.8 217,406.8 221.3,416.8 227.7,414.5 224,403.8 229.7,402.1 	"/>
	<polygon fill="#FDCE1D" points="195.5,393.3 196.9,400.8 227.9,394 226.4,387 	"/>
	<polygon fill="#FDCE1D" points="190.9,345.9 190.7,353.5 222.4,353.7 222.4,346.4 	"/>
	<path fill="#FDCE1D" d="M217.8,380.3c0.9-2.3,0.9-4.5-0.1-6c-1.1-1.6-3.1-2.5-6.2-2.5c-0.5,0-1,0-1.5,0.1c-7.5,0.6-16,1.6-17.7,1.8
		l-0.2-7c2.3-0.2,17.7-1.6,21.5-1.8c0.1,0,0.2,0,0.4,0c4,0,10.3,2.5,10.3,9.3v5.8L217.8,380.3z"/>
	<polygon fill="#FDCE1D" points="191.6,331.9 192.6,324.5 214.7,314.2 195,311.6 196.1,304.6 227.1,309.4 226.8,315.7 202.2,326.8 
		223.7,330.2 222.7,337.2 	"/>
	<path fill="#FDCE1D" d="M209.2,267.9l6.7,0.6c0,0-6.8,7.6-5.5,13.1s5.5,9.3,10.9,9.3c5.5,0,9.4-5.5,9.2-9.9l-5.3-2.2l-1.5,4.9
		l-5.7-2.4l4.2-11.2l14.3,5.3c0,0,2.4,22.1-15,22.7C203.6,297.2,199.5,279.1,209.2,267.9z"/>
	<path fill="#FDCE1D" d="M240.4,218l6.2,2.7c0,0-8.8,5.1-9.3,10.7c-0.4,5.6,2.3,10.5,7.5,12.2s10.7-2.3,11.8-6.6l-4.3-3.7l-3,4.1
		l-4.7-4.1l7.5-9.4l12,9.5c0,0-4.6,21.7-21.3,16.9C226,244.1,227.7,225.6,240.4,218z"/>
	<path fill="#FDCE1D" d="M347.7,182l7.1-2.6l-21.2-25.6l-7.3,2.8v33.1l6.3-2.5l-0.1-7.5l10.7-3.5L347.7,182z M332.4,174.1l-0.2-12.3
		L340,172L332.4,174.1z"/>
	<path fill="#FDCE1D" d="M556,265.7l3.9,6.5l21.5-25.4l-4.1-6.7l-32.6,5.9l3.6,5.7l7.3-1.5l5.4,9.9L556,265.7z M561,249.2l12-2.4
		l-8.6,9.5L561,249.2z"/>
	<polygon fill="#FDCE1D" points="356.4,147.3 360.5,177.5 367.7,177 364.9,155.5 379.9,174.1 388.1,173.7 384.3,143.8 377.3,144.2 
		379.7,164.2 365,146.6 	"/>
	<path fill="#FDCE1D" d="M281.8,220.2l-0.7,0.6c-5.3,4.7-13.4,4.1-18-1.3l-12-14.1l4.9-4.6l13.5,14.7c2,2.2,5.4,2.4,7.7,0.5l0.3-0.3
		c2.4-2.1,2.6-5.7,0.4-8l-13.5-14.5l5.1-4.7l12.9,13.1C287.5,206.9,287.2,215.4,281.8,220.2z"/>
	<path fill="#FDCE1D" d="M567.7,410.3l0.3-0.9c2.4-6.6,9.8-10,16.4-7.5l17.3,6.6l-2.1,6.4l-18.9-6.4c-2.8-1-5.9,0.5-7,3.3l-0.1,0.4
		c-1.1,3,0.5,6.2,3.5,7.2l18.8,6.1l-2.2,6.6l-17.6-5.3C569,424.7,565.2,417.2,567.7,410.3z"/>
	<polygon fill="#FDCE1D" points="563,278.3 590.9,267 593.6,273.9 570.6,283.6 574.5,293.8 568.8,295.4 	"/>
	<polygon fill="#FDCE1D" points="571.5,302.3 601.6,295.5 603.2,302.8 579.2,308.1 581.2,319.2 575.3,320.3 	"/>
	<polygon fill="#FDCE1D" points="576.8,374.2 607.2,379.1 606.6,386.7 581.8,382.6 580,392.6 574.1,392.3 	"/>
	<path fill="#FDCE1D" d="M313.9,176.7c-5.2-7.3-15.1-9.2-22-4.3s-8.2,14.9-3,22.2s15.1,9.2,22,4.3
		C317.8,193.9,319.1,184,313.9,176.7z M307.2,193.7c-3.6,2.6-9.1,1-12.3-3.5c-3.2-4.5-2.9-10.2,0.6-12.8c3.6-2.6,9.1-1,12.3,3.5
		C311.1,185.5,310.8,191.2,307.2,193.7z"/>
	<path fill="#FDCE1D" d="M471.7,171.5c2.9-8.5-1.3-17.6-9.3-20.4c-8-2.7-16.9,1.9-19.8,10.4s1.3,17.6,9.3,20.4
		C459.9,184.7,468.8,180,471.7,171.5z M453.9,176c-4.1-1.4-6.1-6.8-4.3-12c1.8-5.2,6.6-8.3,10.7-6.9c4.1,1.4,6.1,6.8,4.3,12
		C462.9,174.3,458.1,177.4,453.9,176z"/>
	<path fill="#FDCE1D" d="M505,191.7c5.5-7.1,4.5-17.1-2.2-22.3s-16.6-3.7-22.1,3.5c-5.5,7.1-4.5,17.1,2.2,22.3
		C489.6,200.3,499.5,198.8,505,191.7z M486.8,190.2c-3.5-2.7-3.5-8.4-0.1-12.8c3.4-4.4,8.9-5.7,12.4-3s3.5,8.4,0.1,12.8
		C495.8,191.5,490.2,192.9,486.8,190.2z"/>
	<polygon fill="#FDCE1D" points="435.9,151.1 436.1,145.6 417.9,144.4 414.8,173.9 422,174.2 423,163.9 433.6,164.8 433.9,158.7 
		423.6,157.9 424.2,150.7 	"/>
	<polygon fill="#FDCE1D" points="540.4,196.2 520.6,181 517.3,185.9 523.7,190.8 508.7,210.3 513.9,214.7 529.7,195.4 536.4,200.6 	
		"/>
	<path fill="#FDCE1D" d="M601.2,365.6h7.3c0,0,2-2.1,1.5-8c-0.4-6-4.4-16.2-16.6-16c-12.4,0.2-16.1,9.2-16.2,14.7
		c-0.1,5.5,2.1,9.3,2.1,9.3h7.4c0,0-2.4-1.9-2.8-6.4c-0.4-5.4,2.3-9.7,8.9-10.1c6.2-0.4,10.9,4.5,10.6,8.9
		C603.2,362.4,601.2,365.6,601.2,365.6z"/>
</g>
</svg>
