<?xml version="1.0" encoding="utf-8"?>
<!-- Created by @FCLOGO 2023-10-24 GMT+8 16:31:18 . https://fclogo.top/ -->
<!-- FOR PERSONAL USE ONLY NOT FOR COMMERCIAL USE -->
<svg version="1.1" xmlns="http://www.w3.org/2000/svg" xmlns:xlink="http://www.w3.org/1999/xlink" x="0px" y="0px"
	 viewBox="0 0 800 800" style="enable-background:new 0 0 800 800;" xml:space="preserve">
<style type="text/css">
	.st0{fill:#00552B;}
	.st1{fill-rule:evenodd;clip-rule:evenodd;fill:#00552B;}
</style>
<g>
	<path class="st0" d="M698.3,475C664.8,608.6,544,707.5,400,707.5C230.2,707.5,92.5,569.8,92.5,400S230.2,92.5,400,92.5
		c144,0,264.8,98.9,298.3,232.5h43.7C707.6,167.7,567.6,50,400,50C206.7,50,50,206.7,50,400s156.7,350,350,350
		c167.6,0,307.6-117.7,341.9-275H698.3z"/>
	<path class="st1" d="M531.6,368.9l-27.9-123.7l-18-80H314.3l-18,80l-27.9,123.7l-18,80L213.7,612h82l36.7-163.1h217.2L531.6,368.9z
		 M350.4,368.9l27.9-123.7h43.5l27.9,123.7H350.4z M586.3,612h-82l-27.1-120.2h82L586.3,612z"/>
	<g>
		<path class="st0" d="M419.2,321.9c4,9.4,8.3,14.9,9.2,18.1c0.9,3.3,3.1,7.7,3.6,9.4c0.5,1.7,2,5.9,4.5,0.7c1.1-2.4,2.3-4,3.4-5.7
			l-21.4-95.1h-37.1l-8.7,38.8c4.3,0.8,9.1,1.2,13.5,0.9c6.3-0.4,8.1-2.4,11.7,2.2c0.2,0.3,0.4,0.5,0.6,0.8l0,16.4
			c-10.2,0-20.2-0.1-30.2-0.4l-0.5,2c4,0.1,8.1,0.2,12.1,0.2c6.2,0.1,12.4,0.1,18.6,0.1l0.1,51.8c-7.8,0-15.6,0-23.3-0.2
			c-6.4-0.1-12.7-0.2-19.1-0.4l-0.4,2c6.5,0.2,13,0.3,19.5,0.4c7.7,0.1,15.5,0.2,23.3,0.2l0,0.9h2l0-0.9c14.7,0,29.2-0.3,43.7-0.7
			l-0.4-2c-14.3,0.4-28.7,0.7-43.2,0.7l-0.1-51.8c5.4,0,10.8-0.1,16.2-0.1C416.8,313.5,417.4,317.6,419.2,321.9z M400.5,308.2
			l0-13.6c0.7,1,1.1,1.7,3.3,4.6c3.8,4.8,6,7.4,7.8,5.9c1.8-1.5,2.9-2,2.9-4.8c0-2.8,2.7-1.7,2.7,1.1c0,1.3-0.4,3.7-0.5,6.7
			C411.3,308.2,405.9,308.2,400.5,308.2z"/>
		<path class="st0" d="M540.1,452.9c-1,11.8-2.3,23.5-3.9,34.9h2c1.6-11.4,2.9-23.1,3.9-34.9H540.1z"/>
		<path class="st0" d="M498.7,452.9h-2c-0.7,11.8-1.6,23.5-2.7,34.9h2C497.1,476.4,498,464.7,498.7,452.9z"/>
		<path class="st0" d="M609.4,424c-0.7,0.2-3.7,0.9-5.8,1.4c-2.1,0.5-2,1-3.5,2.1c-1.6,1-1.2,1.4-3.9,4.5l2.8-0.3
			c0,0,1.8-1.2,2.3-1.6c0.5-0.3,4.4-2.6,4.4-2.6s3.4-1.9,4.2-2.1C610.8,425.3,610.1,423.9,609.4,424z"/>
		<path class="st0" d="M730.8,394.7c-0.2-13.4-1.2-26.6-3-39.7h-2c1.8,12.9,2.8,26,3,39.2c0,0.2,0,0.3,0,0.5c0,0.5,0,1,0,1.5
			c0,0.9,0,1.7,0,2.6l-39.1,0c-0.1-21.7-2.5-43-7.1-63.6c-0.2-0.6-0.3-1.3-0.5-1.9c-4.4-18.7-10.6-36.9-18.6-54.3
			c-0.3-0.6-0.6-1.2-0.9-1.9c-9.4-20.2-21.3-39.4-35.3-57.1c-0.4-0.5-0.9-1.1-1.3-1.6c-0.6,0.3-1.3,0.6-1.9,0.8
			c-4.5,2-9,3.8-13.7,5.7c-0.3-0.5-0.6-1-0.8-1.4c-1-2.3,0-4.6-1-7.3c-1-2.7-4.3-3.3-9.9-7.7c-5.5-4.3,0,0,0.5-2.6
			c0.5-2.6,3.5,0.1,5.7,1.3c2.1,1.2-1.7-5.7-1-10c0.7-4.3-2.7-0.7-4.7-0.3c-2,0.3-8.6-0.7-8.6-0.7l6.3,7.6l-3.7,0.7
			c0,0,3.2,5.3,5.7,8c2.4,2.7,2.7,5,5,10c1,2.1,1.3,3.4,1.3,4.4c-2.8,1.1-5.6,2.1-8.4,3.1c-5-9.6-10.4-18.8-16.3-27.7
			c0-1-0.1-2.3-0.2-3.8c-1.2-10.3-4.6-17.4-4.6-17.4l-8.1-11.4l11.9,12.2l7.4,7l1.3-4.1l-9.2-8.7l3.1,0.2c0,0-5.6-4.7-10.9-8.9
			c0.4-0.2,0.7-0.4,1.1-0.6c-0.6-0.4-1.2-0.9-1.8-1.3c-0.3,0.2-0.7,0.4-1,0.6c-2.2-1.7-4.3-3.2-5.8-4.2c-5.4-3.5-1.1,2.2-1.1,2.2
			s1,0.8-3.8,0c-4.8-0.8-9.4,1.8-10.3-3.5c-0.6-3.6-2.8-9-4.1-12c-8.5-4.9-17.2-9.3-26.2-13.3c-0.3-0.2-0.5-0.4-0.7-0.6
			c-2.9-1.3-5.7-2.5-8.6-3.7c0.3,0.2,0.6,0.4,0.8,0.6c-2.5-1-4.9-2-7.4-2.9c0.1,0,0.2-0.1,0.4-0.1c-1-0.4-2-0.8-3.1-1.1
			c-0.1,0-0.2,0.1-0.4,0.1c-7.3-2.6-14.7-5-22.2-7.1c-0.2-0.1-0.4-0.3-0.6-0.4c-2.1-0.6-4.1-1.1-6.2-1.6c0.2,0.1,0.4,0.3,0.7,0.4
			c-0.5-0.1-1-0.3-1.5-0.4c0,0.1,0,0.1,0,0.2c0.5,3,0.5,6.5-6.3,3.9c-2.2-0.8-4.3-2.1-6.5-3.4c-0.8-0.8-1.7-1.5-2.5-2.2
			c-1-0.9-2.1-1.8-3.1-2.6c-1.4-0.3-2.9-0.5-4.3-0.7c1,0.7,1.9,1.5,2.9,2.3c-2-0.5-3.9-0.4-5.8,0.6c-1.5,0.8-3.1,1.7-4.8,2.5
			c-1.4-1.8-2.7-3.5-4.1-5c-0.7-0.8-1.4-1.5-2-2.3c-1-0.1-2-0.2-3-0.3c0.7,0.7,1.4,1.5,2.1,2.3c1.8,1.9,3.5,4.1,5.3,6.3
			c-4.4,2.2-8.7,4.4-11.4,6.2c-0.9,0.6-1.5,1.3-2,2c-1.1-3.3-2.3-6.4-3.4-9.2c-0.9-2.3-1.9-4.5-2.9-6.5c-0.3-0.7-0.7-1.4-1-2.1
			c-0.8-0.1-1.5-0.1-2.3-0.1c0.4,0.7,0.7,1.4,1.1,2.1c2.5,5,4.9,11.1,7.3,18.2c-0.9,1.8-2.1,3.4-5.7,3.9c-4.4,0.6-10.3,4.4-16.5,7.4
			c-0.1,0-0.1,0-0.2,0l0-30l0-2c-0.3,0-0.7,0-1,0c-0.3,0-0.7,0-1,0l0,2l0,30c-8.6,0-17.1-0.3-25.5-0.9c3.3-11.8,6.7-21.4,10.3-28.6
			c0.4-0.7,0.7-1.4,1.1-2.1c-0.8,0-1.6,0.1-2.3,0.1c-0.3,0.7-0.7,1.4-1,2.1c-1,2-1.9,4.2-2.9,6.5c-2.5,6.2-4.9,13.5-7.2,21.8
			c-5.5-0.4-10.9-1-16.4-1.7c-1.3-2.9-0.9-5.3-1.4-7c4.3-7.1,8.8-13.2,13.4-18.3c0.7-0.8,1.4-1.5,2.1-2.2c-1,0.1-2,0.2-3,0.3
			c-0.7,0.7-1.4,1.5-2,2.3c-4,4.6-7.9,10-11.7,16.2c-1.1-0.9-3.2-1.4-7.1-1.5c-4.4-0.1-7.4,0.1-10,0.7c4.4-4.8,9-9.2,13.7-13
			c1.1-0.9,2.2-1.8,3.3-2.6c-1.4,0.2-2.9,0.5-4.3,0.8c-1,0.8-2.1,1.7-3.1,2.6c-4.6,4-9,8.4-13.3,13.4c-2.4,0.8-4.8,1.9-8.2,3.2
			c-3.7-0.8-7.5-1.7-11.2-2.6c3.8-3.2,7.7-6.2,11.6-9c-2,0.5-3.9,1.1-5.9,1.7c-2.8,2.1-5.5,4.3-8.2,6.7c-0.6,0.5-1.2,1-1.8,1.6
			c-4.3,3.8-8.5,7.9-12.7,12.2c-1.1,0.3-2.2,0.6-3.4,0.7c-6.7,0.9-14.8,9.6-12.6,10.1c1,0.2,3.7,0.1,6.4,0c-2.1,2.5-4.1,5.1-6.2,7.7
			c-4.2,2.4-8.6,4.7-11.9,5.4c-8.5,1.9-17.1,1.3-17.1,1.3l6.3-7.9c0,0,0.8-1.6,4.3-6.5c7-6.6,14.2-12.7,21.6-18.3
			c2.5-1.9,5-3.7,7.5-5.4c-2.9,1.2-5.7,2.4-8.6,3.7c-2.4,1.8-4.8,3.6-7.1,5.5c-3.6,2.9-7.2,6-10.8,9.3c0.5-2,0.5-4,0.2-5.5
			c-2.6,1.4-5.2,2.8-7.7,4.3c-3.4,5.3-7.7,12.3-11.5,15.5c-2.6,2.1-5.9,4-8.4,5.4c-1.8-0.9-3.5-1.8-5.2-2.8
			c-0.6-0.3-1.3-0.7-1.9-1.1l-1.9,1.4c0.6,0.4,1.3,0.7,1.9,1.1c1.6,0.9,3.3,1.8,4.9,2.6c-2.1,1.2-2.5,1.9,0.7,1.7
			c1.3-0.1,2.2,0,3,0.2c0.4,0.2,0.8,0.4,1.3,0.6c0.5,0.4,0.7,0.9,0.7,1.4c-1.1,1.3-2.2,2.7-3.3,4c-3.2,0.8-8.4-1.5-8.4-1.5l0.9,10
			c0,0-0.4,1.1-1.1,2.6c-1.2,1.6-2.3,3.2-3.5,4.8c-0.9,0.7-2,1.1-3.1,0.9c-4.5-0.9-5.8-3.5-12.1-3.9c-4-0.3-7-1.8-9.1-1h0
			c-0.7,0.3-1.2,0.7-1.7,1.6v0c-0.4,0.7-0.7,1.7-1,2.9c-1.5,7.6-7.2,9.6-5.8,11.4c1.3,1.8-7.1,3.9-1.8,7.9c5.4,4,7.3,3,1.8,7.4
			c-1.3,1-2.2,2.1-3,3.2c-4.4-1.7-8.8-3.5-13.1-5.4c-0.6-0.3-1.3-0.5-1.9-0.8l-1.3,1.7c-14.1,17.8-25.9,37-35.3,57.2l-0.9,1.9
			c-8,17.4-14.1,35.6-18.5,54.4l-0.4,2c-4.6,20.7-7,42.1-7,63.8l0,2c0.1,21.4,2.6,42.4,7.2,62.8l0.5,2c4.4,18.7,10.6,36.9,18.6,54.3
			v0l0.9,1.9c0.7-0.2,1.3-0.3,2-0.5c13.1-3.4,26.5-6.5,40.5-9.3c6,19.3,13.5,37.8,22.4,55.2c-9.5,3.4-18.7,7-27.6,10.9l0,0
			c-0.6,0.3-1.3,0.6-1.9,0.8l0,0h0l1.3,1.7h0c0.6-0.3,1.3-0.6,1.9-0.8c8.7-3.8,17.8-7.4,27.2-10.8c3.7,7.1,7.7,14,11.9,20.7l0.6-2.8
			c-3.7-6.1-7.2-12.3-10.6-18.6c5.2-1.8,10.5-3.6,16-5.3l0.5-2.4c-5.9,1.8-11.7,3.8-17.5,5.8v0c-8.9-17.3-16.4-35.8-22.4-55
			c12.7-2.6,25.7-5,39-7.1c2.2,9.4,4.6,18.5,7.3,27.5l0.9-4c-2.3-7.8-4.4-15.8-6.3-23.9h0c4-0.6,8-1.2,12-1.8l0.5-2.2
			c-4.4,0.6-8.7,1.3-13,2c-3.1-13.9-5.6-28.2-7.5-42.8c3.9,5.1,8,10.3,8.1,12.2c0.2,3.5,0.9,7.2,5.4,13.8c2.3,3.3,5.3,6.7,8.1,9.7
			l75.3-334.5h177.9l39.9,177c0,0,0,0,0,0c2.2,2.8,3.8,2.8,3.8,5.5s0.9,4.2,0.9,4.2s3.4-2.8,6.1-5.2c0.4,4.2,0.7,8.4,1,12.7
			c-2.6,0.3-5.2,0.5-7.8,0.7l0.4,2c2.5-0.2,5-0.4,7.5-0.7c0.9,13.2,1.4,26.7,1.4,40.3l2,8.7c0-1.8,0.1-3.5,0.1-5.3l17.9,0
			c0.5,0.3,1.2,0.8,2,1.6c3,2.6,5.8,1.7,9,0.2c1.4-0.7,1.6-1.2,1.3-1.8l7.7,0c0,0.5,0,0.8,0.2,1.1c0.9,1.2,2.3,1,1.8,5.4
			c-0.5,4.4-1.4,3.5,0.4,6.1c1.8,2.6,3.5,7,3.4,3.7c-0.2-3.3,0-7.5,0.2-8.5c0.1-0.5,0.4-2.1,0.8-3.8c-0.1,5.9-0.2,11.8-0.5,17.7
			c-5.1,0-6.3,0-9.9-0.2c-3.8-0.2-4,0.2-7.6-1.4c-3.5-1.6-3.5-2.3-5-4s-2.1-1.4-5.4-1.9c-3.3-0.5-1.9-0.9-6.1-0.9s-5.7,0.7-7.3-0.5
			c-0.4-0.3-0.9-0.5-1.4-0.8l1,4.6c1.4,0.6,3.3,1,8.7,1.9c9.2,1.4,4.7,2.8,11.3,3.5c6.6,0.7,9.5,1.9,13.7,1.6c2.8-0.2,5,0.2,7.9,0.4
			c-0.4,7.4-0.9,14.8-1.6,22c-11.3-1.5-22.7-2.8-34.3-4l0.5,2.1c11.4,1.2,22.6,2.5,33.6,3.9c-0.8,7.8-1.8,15.6-2.9,23.3
			c-0.7,0.2-1.5,0.4-2.5,0.6c-9.4,1.8-5.1,2.6-13.5,3.5c-8.4,0.8-8.2,2.1-14.3,3.8c-6.1,1.7-4.4-5.1-6.1,1.7c-0.6,2.3-1,4.2-1.4,5.9
			h16.9l9.9,43.8c3.7-1.1,1.7-2.5,11.7-1.3c10.2,1.2,7.4-3.4,11.6,2.2c4.2,5.6,9.1,5,7.6,8.7c-1.5,3.7-7.6,6.1-1.7,7.9
			c1,0.3,2,0.5,2.8,0.5c-1.9,4.2-3.8,8.4-5.9,12.6c-1.7,0.3-1.7-0.4-1.6,2.7c0,0.2,0,0.3,0,0.5c-0.2,0.4-0.4,0.8-0.6,1.1v0
			c-5.7-2-11.5-3.9-17.4-5.7l0.5,2.2c5.4,1.7,10.7,3.4,15.9,5.2h0c-3.3,6.4-6.8,12.6-10.5,18.7l0.6,2.8c4.2-6.8,8.1-13.7,11.8-20.8
			c0,0,0,0,0,0c0,0.4-0.2,0.9-0.6,1.7c-1.3,2.7-2.8,5.7,0.2,4.8c3-0.8,2.6,0,4.3-3c0.5-0.9,1-1.3,1.4-1.6c7.5,2.8,14.8,5.7,22,8.8
			c-6.5,8.1-13.5,16-21,23.5c-4,4.1-8.2,8-12.4,11.8l0.2,1.1h-1.4c-6.1,5.4-12.4,10.5-18.8,15.3c-3.7-2-7.5-4-11.4-5.9h0
			c2.6-3,5.1-6.2,7.6-9.4h-2.6c-2.3,2.9-4.6,5.7-6.9,8.5c-6.2-3-12.6-5.8-19.1-8.5h-6.2c-8.7,13.8-18.2,26.1-28.2,36.8
			c-3.1-3.1-3.1-1.6-8-5.7c-3.3-2.7-5.1-4-8.1-5.4c4.8-7.9,9.4-16.5,13.8-25.7h-0.9l-0.4-1.9c-0.1,0.1-0.1,0.3-0.2,0.4
			c-4.5,9.5-9.2,18.3-14.1,26.3c-2.4-1.1-5.6-2.4-10.5-4.6c-6.8-3-9.1-4.3-10.3-5.1c1.9-5,3.8-10.3,5.6-15.8
			c1.7-5.1,3.3-10.3,4.8-15.7c7.7,1.5,15.2,3.2,22.7,5.2l-0.5-2.2c-7.1-1.9-14.3-3.5-21.6-4.9h0c3.9-14.1,7.4-29.2,10.4-45l-1.1-5
			c-3.2,17.5-6.9,34.1-11.2,49.6c-10.8-2.1-21.9-3.7-33.1-4.8c2.3-16.6,4.3-34.4,6-53.2c12.6,0.9,25.1,2.1,37.3,3.6l-0.5-2.1
			c-12-1.5-24.3-2.7-36.7-3.6v0c1.3-14.5,2.3-29.6,3.1-45.1c7.7,0.3,15.3,0.7,22.8,1.1l-0.5-2c-7.4-0.4-14.8-0.8-22.3-1.1
			c0.6-12.2,1.1-24.6,1.5-37.3h-2c-0.4,12.6-0.9,25-1.5,37.2v0c-15.9-0.6-31.9-0.9-48.1-0.9v0l0-36.3h-2l0,36.3
			c-16.2,0-32.2,0.4-48.1,1c-0.7-12.2-1.2-24.7-1.6-37.3h-2c0.4,12.7,0.9,25.2,1.6,37.4c-7.3,0.3-14.5,0.7-21.8,1.1l-0.5,2.1
			c7.4-0.5,14.8-0.9,22.3-1.2h0c0.9,15.5,1.9,30.6,3.2,45.1c-12.3,0.9-24.4,2.1-36.3,3.7l-0.5,2.1c12.1-1.6,24.4-2.9,36.9-3.8
			c1.7,18.8,3.7,36.6,6.1,53.2v0c-11.2,1.2-22.2,2.9-33,5v0c-4.3-15.2-8.1-31.6-11.2-48.8l-1.1,4.9c3,15.5,6.5,30.4,10.4,44.3
			c-7.3,1.5-14.4,3.1-21.5,5l-0.5,2.3c7.4-2,14.9-3.8,22.6-5.3c1.5,5.3,3.1,10.5,4.8,15.5c4.9,14.8,10.1,27.9,15.7,39.2
			c-0.6,0.2-1.4,0.4-2.2,0.9c-5.4,2.9-5.5,0.3-15.5,2.2c-0.6,0.1-1.1,0.2-1.5,0.3c-9.2-12.2-17.9-26.6-25.8-43.3
			c0-0.1-0.1-0.1-0.1-0.2l-0.3,1.4h-1.2c7.8,16.4,16.3,30.7,25.4,42.8c-3.7,1.5-4.3,3.9-4.5,6.4c-2.8,0.7-5.5,1.3-8.3,2.1
			c-15.6-13.4-30-30.5-43-50.8h0c0.4-0.1,0.8-0.3,1.1-0.4h-5.8c-7,2.8-13.9,5.8-20.5,9.1l0,0c-2.5-2.9-5-6-7.4-9.1h-2.6
			c2.7,3.4,5.4,6.8,8.2,10c-3.8,1.9-7.6,3.9-11.2,5.9c-0.6,0.4-1.3,0.7-1.9,1.1l0,0l1.9,1.4c0.6-0.4,1.3-0.7,1.9-1.1
			c3.5-1.9,7.1-3.8,10.8-5.6c10.3,11.9,21.2,22.4,32.7,31.7c2.7,1.3,5.4,2.6,8.2,3.8c-13.9-10.3-26.9-22.4-39.1-36.4
			c7-3.4,14.3-6.6,21.8-9.6l0,0c12.8,20.2,27.1,37.2,42.5,50.7c-2.7,0.7-5.3,1.5-8,2.3c-1.1,0.3-2.1,0.6-3.1,1
			c1.1,0.4,2.2,0.8,3.2,1.2c4,1.5,8,2.8,12.1,4.1c0,0,0,0-0.1,0.1c27.7,8.8,57.3,13.6,87.9,13.6c41.7,0,81.2-8.8,117-24.6
			c-0.1-0.1-0.2-0.2-0.3-0.3c0.5-0.2,1-0.5,1.6-0.7c18.6-8.3,36.3-18.7,52.9-30.9h0l1.8-1.3h0c11.2-8.4,21.9-17.6,32-27.7
			c7.7-7.7,14.8-15.7,21.5-24h0l1.3-1.6c4.1-5.1,7.9-10.4,11.6-15.8c0.6-0.6,1.1-1.1,1.5-1.4c12.1-18,22.2-37.3,30.1-57.9v0
			c0-0.3,0-0.7-0.1-1c4.6-12.1,8.4-24.6,11.4-37.3h0l0.5-2v0c3.2-14.4,5.3-29.1,6.3-44.1c0.1-0.1,0.3-0.3,0.4-0.4
			c0.1-1.8,0.2-3.6,0.3-5.4c-0.1,0.1-0.3,0.3-0.4,0.5c0-0.9,0.1-1.7,0.1-2.6c0.1,0.1,0.2,0.2,0.3,0.4c0,0,0.1,0.1,0.1,0.1
			c0-0.5,0-1,0.1-1.6c-0.1-0.1-0.3-0.2-0.4-0.3c0.1-3.1,0.2-6.2,0.2-9.3h0l39.1,0c0,14.9-1,29.7-3,44.2h2
			C730,428.5,731,411.7,730.8,394.7z M201.2,401.5c3.9,5.6,6.4,12.7,6.6,15.9c0.1,1.8,0.7,3.6,1.1,5.5c0.1,1.8,0.2,3.5,0.3,5.3
			c-0.1,0.6-0.2,1.3-0.4,1.9c-1.4,4.6-2.7,13.2-1.8,18.2c-13.1,1.8-26.1,3.8-38.7,6c-2.4-17.2-3.7-34.9-3.8-52.7v0L201.2,401.5z
			 M193,367.1c0.9,5.9,0.9,7.4,0,14.6c-0.9,7.2,0.9,11.4,6.1,17c0.2,0.2,0.4,0.4,0.6,0.7l-35.3,0c0-15.6,0.9-31,2.7-46.1
			c0.1,0,0.2,0,0.3,0c3.5,0,11.9-3.9,12.4,0.4c0.4,4.4,1.3,7.9,4.7,7.4C187.9,360.8,192.1,361.2,193,367.1z M173.6,221.1
			c4.3,1.9,8.7,3.7,13.2,5.5c-2.3,3.2-4.9,6.4-13.7,9c-13.5,4-0.5,5.4-12.6,12.7c-5,3-7.8,5-10.1,6.8
			C157.3,243.3,165,231.9,173.6,221.1z M122.3,321.2c0.3,0.8,0.5,1.6,0.8,2.4c1.6,4.3,2.5,7.4,3.1,12.2c-2.5-0.5-4.9-1-7.3-1.6
			C120,329.9,121.1,325.5,122.3,321.2z M111.6,399.6c0-21.6,2.4-42.8,7-63.3c2.7,0.6,5.4,1.1,8.1,1.7c0.8,5.8,5.8,10.5,8.5,15
			c2.7,4.6,5.5,5.5,9.2,4.6c3.7-0.9,8.6,0,12.1,0c2.7,0,5.8-2.5,8.6-3.6c-1.7,15-2.6,30.2-2.6,45.6L111.6,399.6L111.6,399.6z
			 M111.6,401.6l50.8-0.1c0.1,18,1.4,35.7,3.8,53.1v0c-16.2,2.8-32.1,5.9-47.5,9.3v0C114.1,443.7,111.7,422.8,111.6,401.6z
			 M178.5,510.7c-13.9,2.9-27.5,6-40.7,9.4c-8-17.4-14.2-35.5-18.6-54.2c15.3-3.4,31.1-6.5,47.3-9.3
			C169.2,475.2,173.2,493.2,178.5,510.7L178.5,510.7z M219.6,503.2c-13.3,2.1-26.4,4.5-39.1,7.1v0c-5.3-17.4-9.3-35.5-12-54
			c12.7-2.2,25.7-4.2,39-6c0.7,1.6,2.3,4,4.2,6.5C213.6,472.6,216.2,488.1,219.6,503.2z M284,159.2c1.3-1.6,2.6-3.1,3.9-4.7
			c1.9-0.1,3.3-0.2,3.3-0.2S288.2,156.6,284,159.2z M316.8,135.5c-8.3,2.6-13.4,5.1-17.6,6.8c3.5-3.5,7-6.8,10.6-9.9
			c3.1,0.8,6.3,1.6,9.5,2.3C318.5,135,317.7,135.3,316.8,135.5z M369.2,146.3c-1.9,0.3-3.5,0.5-4.3-0.3c-1.8-1.7-4.4,1.6-9.2-4.9
			c4.8,0.6,9.6,1.1,14.5,1.5C369.8,143.8,369.5,145.1,369.2,146.3z M390.5,145.1c-9.6,1.5-9.9,0.9-14.4,0.4
			c-1.6-0.2-3.2,0.1-4.7,0.3c0.3-1.1,0.6-2.2,0.9-3.3c7.1,0.5,14.3,0.8,21.5,0.9c0.7,0,1.5,0,2.2,0
			C394.1,144.3,392.3,144.9,390.5,145.1z M585.7,470.9c0.1-0.4,0.1-0.9,0.2-1.3C586,470.1,586,470.5,585.7,470.9z M313.9,674.9
			c-3.6-1.1-7.1-2.3-10.7-3.5c2.2-0.6,4.3-1.2,6.5-1.8c1.8,1.5,3.5,2.9,5.3,4.3C314.8,674.2,314.4,674.5,313.9,674.9z M318.1,669.3
			c-0.4,1.6-0.8,2.3-1.5,3.2c-1.5-1.2-3-2.4-4.4-3.6c2.1-0.5,4.1-1,6.2-1.5C318.4,668,318.3,668.7,318.1,669.3z M354,537.3
			c-1.3-14.5-2.4-29.6-3.2-45.1c15.8-0.6,31.8-1,48-1l0.1,44.5v0C383.7,535.7,368.7,536.3,354,537.3L354,537.3z M354.2,539.3
			c14.6-1,29.5-1.6,44.6-1.6l0.1,52.7c-13,0-25.9,0.7-38.6,2C357.9,575.8,355.9,558,354.2,539.3z M363.1,642
			c-1.5,2.4-3.2,1.2-6.4-1.1c-3.2-2.4-5.4,3.4-7.1,9.8c-1.1,3.9-1.6,3.7-3.2,3.7c-5.7-11.3-11-24.6-15.9-39.6
			c-1.6-5-3.2-10-4.7-15.3c10.7-2.1,21.6-3.8,32.8-5c1,7.1,2.1,14,3.3,20.7c1.4,7.9,2.8,15.3,4.3,22.2
			C363.9,638.9,364.3,640.1,363.1,642z M395.9,633.6c-3.4,0.7-4.2-2.7-7.5-6.6c-3.3-4-4.9-3.1-6.4-3.8c-1.5-0.6-2.8,0-3.8,2.9
			c-1,2.9-2.4,4.8-4.2,8.4c-1.8,3.6-1.2,0.2-5.8,2c-0.1,0-0.2,0.1-0.2,0.1c-1.4-6.8-2.8-14-4.2-21.6c-1.1-6.6-2.2-13.5-3.2-20.5
			c12.5-1.3,25.3-2,38.3-2l0,41.3C397.9,633.5,397,633.4,395.9,633.6z M400.7,491.2c6.4,0,12.8,0,19.1,0.1
			c9.7,0.1,19.3,0.4,28.8,0.8c-0.8,15.5-1.9,30.5-3.1,45c-14.7-1-29.7-1.5-44.8-1.5L400.7,491.2z M400.8,537.7c3.5,0,6.9,0,10.4,0.1
			c11.5,0.2,22.9,0.6,34.2,1.4c-1.6,18.7-3.6,36.5-5.9,53.1c-12.7-1.2-25.6-1.9-38.6-1.9L400.8,537.7z M433.2,625.8
			c-2.2-3.5-4.5-2.9-7.5-1.8c-3,1.1-4.4,2-7.8,5.5c-3.3,3.5-2.6,1.3-9.3,3.8c-3.4,1.3-5.8,1.1-7.7,0.8l-0.1-41.8c2,0,3.9,0,5.9,0
			c10.9,0.2,21.8,0.8,32.4,1.8h0c-1,7.1-2.1,14-3.2,20.6c-0.7,4.1-1.4,8.1-2.2,12C433.6,626.5,433.4,626.2,433.2,625.8z
			 M462.2,628.9c-4.3-2.2-1.2-1.7-2.7-4.2c-1.5-2.5-2-1.4-6-0.7s-3.8,2.6-4.9,6.2c-1.1,3.6-3.7,1.3-8.4,0.7
			c-2.7-0.3-3.9-0.8-4.9-1.8c0.9-4.5,1.7-9.1,2.5-13.9c1.1-6.7,2.2-13.6,3.2-20.8c11.1,1.1,22.1,2.7,32.8,4.8
			c-1.5,5.3-3.1,10.5-4.7,15.5c-1.7,5.3-3.5,10.4-5.3,15.3C463.6,629.7,463,629.4,462.2,628.9z M517.3,662.8
			c-0.7,0.3-1.4,0.6-2.1,0.9c-2.1-1.8-4.8-4-7.7-7.5c-0.6-0.8-1.2-1.4-1.7-2c10.3-11,19.9-23.6,28.9-37.8c7.5,2.9,14.8,6.1,21.9,9.5
			C544.3,640.1,531.2,652.4,517.3,662.8z M525.4,659c11.6-9.4,22.6-20.1,32.9-32.1l0,0c3.7,1.8,7.3,3.7,10.9,5.7
			C555.4,642.7,540.8,651.6,525.4,659z M687.7,398.8l-50.8,0.1c0-18.3-1.3-36.3-3.8-53.9c16.3-2.8,32.1-5.9,47.5-9.3
			C685.2,356.2,687.6,377.3,687.7,398.8z M639.5,406.3c-3.3,4.3-1.7,2-1.7,2l-1-1.6c0-1.9,0.1-3.8,0.1-5.7l8.6,0
			c-0.7,0.3-1.5,0.7-2.6,1.1C638.3,403.6,642.8,402,639.5,406.3z M680.1,333.7c-15.4,3.4-31.2,6.5-47.4,9.3
			c-2.7-18.6-6.7-36.7-12-54.1c13.9-2.9,27.6-6,40.8-9.4C669.5,296.9,675.8,315,680.1,333.7z M597.5,337.3c0,1.1-4.3,4.2-4.3,4.2
			l-3.5,4.2l7.4,1.7c0,0,5.4-3.7,5.7-4.2c0.3-0.4,1.4-8.4-0.3-8.7c-1.8-0.3-6.7-3.1-6.7-3.1s-0.7-4.9-2.5-5.2
			c-1.8-0.3-5.3-1.4-5.3-1.4l-1.4-6.3v-8l-4.2-1.5c-0.8-4.2-1.7-8.4-2.6-12.6c13.3-2.1,26.4-4.5,39.2-7.1c5.3,17.4,9.3,35.5,12,54
			c-8.6,1.5-17.3,2.8-26,4.1c-0.5-0.7-0.9-1.1-0.9-1.1l-1.8,1.5c-4.6,0.7-9.1,1.3-13.7,1.9c-0.6-6.1-1.4-12.1-2.2-18.1
			c1.4,0.1,3.6-0.6,3.6-0.6s4.2,3.2,3.2,4.5C591.9,336.9,597.5,336.3,597.5,337.3z M606.3,243.8c2-2.3,1.1-4.4,4.6-6
			c3.6-1.6,4.3-5.2,4-6.7c-0.2-0.9-1.9-2.7-3.3-4.6c4.7-1.8,9.2-3.7,13.7-5.7c14.1,17.6,25.9,36.7,35.3,56.8
			c-13.1,3.4-26.7,6.5-40.5,9.3c-4.4-14.3-9.7-28.2-15.8-41.6C605,245,605.6,244.6,606.3,243.8z M605,229.1c-0.1,0.5-0.1,1,0,1.7
			c0.3,2.8-2.1,3.6-4.3,6.8c-1-2-1.9-3.9-2.9-5.8C600.2,230.9,602.6,230,605,229.1z M599.4,239.4c-1.9,2-3.6,1.1-5.3,3.4
			c-2,2.7-1.3,7.6-1.3,7.6l4.7,9.6c0,0,1.7-8,3.7-11.3c0.6-1,1.2-1.7,1.7-2.2c6,13.1,11.1,26.7,15.5,40.8c-12.7,2.6-25.7,4.9-39,7.1
			c-0.9-4-1.9-7.9-2.9-11.8l0.8-3.7l-1.5-0.4c-0.1,0-0.3,0.1-0.4,0.1c-0.6-2.1-1.2-4.3-1.8-6.4c0.5-1.6,0.8-3.5,0.5-5.9
			c-0.8-6.1-2.3-5.5-4.7-7.7c-1.8-5.5-3.7-10.8-5.7-16.1c4.5-1.2,9-2.6,13.4-3.9c0.8,1.9,1.1,3.1,1.1,3.1s2.4,0.2,4-1.8
			c1.1-1.3,1.6-2.1,1.4-3.3c4.1-1.3,8.3-2.7,12.3-4.1C597.1,234.7,598.2,237,599.4,239.4z M565.1,252.8c-1.1-2.1-1.8-4.2-2.3-6.3
			c-0.5-1.8-2.8-2.1-5.3-2.4c1.4-0.4,2.7-0.7,4.1-1.1C562.8,246.3,563.9,249.5,565.1,252.8z M573.4,214.1c-2-3.1-1.8-6.2-0.8-6.9
			c1-0.7,2,0,3.7-0.5c1.1-0.3,3,0.6,3.8-1.6c5.3,8.2,10.3,16.6,14.8,25.4c-3.9,1.4-7.9,2.7-12,4c0-0.1-0.1-0.2-0.1-0.3
			c-1.2-2.8-0.7-2.5-5.2-6.4c-4.5-3.9-7.1-4.6-7.1-5.7c0-1.1,2.7-4.1,2.7-4.1S575.5,217.2,573.4,214.1z M558.8,225.4
			c1.3-1.5,3.5-3.1,5.5-3c2,0.2,3.3,1.5,2.9,3.9c-0.5,2.5-1.9,3.4-0.3,4.3c1.5,0.8,5.2-0.3,5.2-0.3s1.2,0.5,3.2,4.4
			c0.4,0.7,0.7,1.4,1,2c-4.4,1.3-8.8,2.7-13.3,3.9c-1.7-4.6-3.6-9-5.5-13.5C557.9,226.5,558.3,225.9,558.8,225.4z M555.5,222.8
			c-0.2-0.5-0.5-1-0.7-1.5C555.2,221.6,555.4,222.2,555.5,222.8z M550.2,227.1c0.7-1.6,0.5-2.5,1.2-3.8c0.5-0.9,0.5-1.6,1.2-2
			c1,2.2,2,4.4,3,6.7c0.1,1,0.3,1.9,0.3,1.9s0.1-0.2,0.3-0.5c1.7,3.9,3.3,7.8,4.8,11.8c-2.5,0.7-5.1,1.3-7.6,2
			c-0.8-0.3-1.4-0.8-1.9-1.5c-2.7-3.7-2.5-4.1-0.7-5.7c1.9-1.5,0.4-3.4,0.4-3.4s-3.9-0.2-4.1-1.8
			C546.8,229.2,549.5,228.7,550.2,227.1z M556.6,293c3.4-2.6,1.8,1.2,6.1-3.4c4.3-4.6,6.3-5.7,7.2-9.6c0.4-1.7,1.4-3.2,2.3-4.8
			c0.5,1.8,1,3.6,1.5,5.5c-0.6,1.2-1.1,2.6-1.3,3.1c-0.5,1-1.5,5.1-1.1,6.4c0.3,1.2,1.9,4,2,3.3c0.1-0.5,1.5-4.7,2.1-6.5
			c0.6,2.6,1.3,5.1,1.9,7.8c-10.2,1.6-20.6,3.1-31.2,4.4l-0.2-0.8C545.8,298.3,553.2,295.7,556.6,293z M532.7,308.8
			c-2.2-2.4-4-1.5-0.4-4.8c0.5-0.5,0.9-0.9,1.3-1.3c0.4,0,0.7-0.1,1.1-0.1c0.5,3.3,1,6.7,1.5,10C534.7,311,533.5,309.7,532.7,308.8z
			 M536.2,299.5c0.7-0.8,1.2-1.4,2.1-1.6c2-0.6,6.1-2.4,5.8,0.2c0,0.5-0.1,0.9-0.1,1.4c-2.5,0.3-5.1,0.6-7.7,0.9
			C536.3,300.1,536.2,299.8,536.2,299.5z M541.5,341c2.5-1.8,5.2-2.4,5.8-5.6c0.7-3.7,4.3-8.1-2-13.8c-2.6-2.4-4.8-4.6-6.7-6.5
			c-0.6-4.3-1.2-8.6-1.9-12.8c2.4-0.3,4.8-0.6,7.2-0.9c-0.1,1-0.1,1.6-0.1,1.6l-3.1,3.7c0,0,0.2,3.7,2.9,3.1
			c2.7-0.7,4.7-2.6,5.6-4.4c0.9-1.8,1.8-4.6,0.9-4.4c-0.6,0.1-1.9,0-2.7-0.1c10.2-1.3,20.4-2.7,30.4-4.3c0.9,4.2,1.8,8.4,2.7,12.6
			c-1.4,6.2-0.4,11.1,0.6,14.4c0.6,2,1.8,3.6,2.8,4.9c1.1,7,2,14.2,2.7,21.4c-14.3,1.9-28.9,3.6-43.7,5
			C542.3,350.4,541.9,345.7,541.5,341z M584.7,386.7c0.2,3.5,0.4,6.5-0.2,8c-0.3,0.9-1.2,2.6-1.8,4.2l-9.7,0
			c-0.2-0.3-0.4-0.7-0.5-1.1c-0.5-2.5,0-3,1.2-3.7c1.2-0.7,3-2.3,3.2-3.1c0.2-0.9,0.9-4.2,1.1-6.1c0.2-1.9,2-0.9,3.5-1
			c1.6-0.2-0.9-4-0.9-4s-2.5-1.8-4.8-6.8c-2.3-5.1,1.8-2.3,5.7-5.2c3.9-3,3.4-2.1,3-2.8c-0.4-0.7-4.1-1.4-5.5-3s-0.3-1.4-3.9-4
			c-3.5-2.6-1.6-0.5-2.5,0.5s-2.1,4.9-2.1,4.9s-2.8,4-3.2,4.5c-0.3,0.5-2.5-0.3-3.2,0.7c-0.7,1-0.5,1-1.2,3.7
			c-0.7,2.6-1.4,1.9-2.3,3s-2.8-0.2-5,0.9c-2.1,1-0.7,1.6-1.1,4.9c-0.4,3.3-0.9-0.2-7.6-2.3c0,0,0,0-1.6,1c-1.6,1,0.2,3.8,1.6,6.1
			c1.4,2.3,0.5,5.1,0.2,7.7c-0.4,2.6,1.2,1.6,3.5,4.7c0.2,0.2,0.3,0.4,0.5,0.6l-7.2,0c0-14.1-0.5-28.1-1.4-41.9
			c14.8-1.5,29.4-3.1,43.7-5c1,9.7,1.6,19.6,2,29.6c-0.2,0.1-0.4,0.3-0.6,0.5C585.3,384.6,584.6,383.2,584.7,386.7z M587.6,390.5
			c0.4-1.3,0.4-2.7,1.1-3.4c0,1.9,0.1,3.7,0.1,5.6C587.8,392.6,587.1,392,587.6,390.5z M588.5,351.8c3.5-0.5,7-1,10.5-1.5l-1.2,0.9
			c0,0-3.9-1.4-4.6,1c-0.7,2.4-2.4,8.3-2.5,8.7l5.3-5.9c0,0,3.9-2.1,3.9,0.7c0,2.8,0.4,4.2,2.1,5.9c1.8,1.7,5.3,0.7,5-2.4
			c-0.4-3.1,0-0.7,0-5.2c0-1.9-0.5-3.5-1.2-4.7c8.5-1.3,16.9-2.6,25.2-4c2.5,17.5,3.7,35.4,3.8,53.6l-0.3,0
			c-0.1-1.3-0.6-2.9-1.6-4.7c-2.8-4.9-3.6-0.5-5.4,0.4c-1.7,0.9-4.3,1.6-4.3,1.6s-1.6,1.5-0.2,2.7l-30.2,0c-1.2-2.6-2.6-3.9-0.4-4.1
			c2.7-0.2,6.7,2.4,6.7,0s4.4-6.3-1.1-5.2c-4,0.8-6,2.1-7.4,2.7c0-1.9-0.1-3.7-0.1-5.5c2.2-0.1,5.8-0.5,7.3-0.5
			c1.8,0,5.8-2.4,5.1-6.8c0,0-2.3,4.4-3.9,4.4c-1.6,0-2.3,1-5.7-0.3c-1.6-0.7-2.4-1.6-3.1-2.1C590.2,371.5,589.5,361.6,588.5,351.8z
			 M634.8,400.9c0,0.9,0,1.7,0,2.6l-0.6-1c0,0,0.3-0.6,0.4-1.6L634.8,400.9z M598.2,453.5c-4.5,2.2-6,10.1-8.7,8.3
			c-1.3-0.9-1.8-1.7-2.3-1.9c0.4-3.5,0.8-7.1,1.2-10.7c4.5,0.6,8.9,1.2,13.3,1.8C600.9,451.8,599.8,452.6,598.2,453.5z M600.7,563.9
			c0-0.7-0.1-1.1-0.1-1.5c2.1-4.2,4-8.5,5.9-12.8c2.2-0.1,2.9-0.5,1.8,2.3c-1.7,4.4,3,3.3-0.3,7c-2.3,2.5-2.8,3.6-1.9,5.2
			C601.6,564.3,600.8,566.1,600.7,563.9z M607.4,451.9c1.7,0.3,3.4,0.5,5.2,0.8c0.8,3.6,2,6.6-1.5,4.8
			C608.5,456.2,608.4,453.8,607.4,451.9z M604.8,569.6c0.3-0.3,0.7-0.7,1-1.4c0.4-0.8,1.1-1.5,1.8-2c0.1,0.2,0.3,0.4,0.5,0.6
			c3,3.6,6.7,1.9,7.5,5.2c0.2,0.9,0.5,1.6,0.8,2C612.5,572.6,608.7,571.1,604.8,569.6z M625.9,578.1c-2.3-1-4.6-2-7-3
			c0.9,0,2.1-0.2,3.6-0.6c3.3-0.7,4,1.1,5.3,1.1C627.1,576.4,626.5,577.3,625.9,578.1z M625.2,439.6c-2,0.8-1.9,2.6-2.3,3.3
			c-0.4,0.7-2-1.4-4.5,1c-2,1.9-5.1,4-5.8,6.7c-7.9-1.2-15.9-2.3-24-3.4c0.7-7.3,1.3-14.7,1.6-22.1c1.1,0.1,2.2,0.1,3.6,0.1
			c6.3,0.1,7.8-1.2,11.1-1.9s4-2.6-2.8-1.9c-6.4,0.7-6.8,1.1-11.7,1.2c0.3-6.3,0.4-12.6,0.5-19c1,2.3,2.3,5.5,2.2,6
			c-0.2,0.7,4.2,5.2,3.9,1.4c-0.3-3.7-2-6.5-3.3-10l31.3,0c0.5,0.9,1.1,2.2,2.4,4.6c2.4,4.5-0.5,1.4,0.3,4.7
			c0.9,3.3,3.1,1.2,6.8,1.6c0,0,0.1,0,0.1,0c-0.3,10.3-1,20.6-2.1,30.7C627.7,439.8,627,438.9,625.2,439.6z M651.9,466
			c-1.2,1.8-0.2,3.3-3.1,5.3c-2.9,2.1-2.3,4.2-5.5-1c-3.2-5.3-7-10.5-8.6-12.2c-0.7-0.8-1.5-1.4-1.8-2c0-0.1,0-0.1,0-0.2
			c6.9,1.2,13.6,2.4,20.3,3.7C653,462.5,652.9,464.4,651.9,466z M671.4,495.4c-0.1-0.6-0.3-1.2-0.6-2c-2.7-8.8-3.6-4.2-5.5-11.3
			c-1.8-7.1-4,4.2-1.9-8.2c1.9-10.8,3.4-8.4,2.7-11.8c4.7,1,9.4,1.9,14,2.9C677.9,475.4,674.9,485.5,671.4,495.4z M680.7,463.1
			L680.7,463.1c-5-1.1-10-2.1-15-3.1c-1.6-6-2.3,1.2-2.2-7.1c0.1-8.4-2.5-13.5-2.5-13.5c-1.3,3-0.7,3.7-4,9c-3,5-3.2,6.1-3.5,9.2
			c-6.5-1.2-13.1-2.4-19.8-3.6c0.1-0.1,0.1-0.1,0.2-0.2c2.3-1.7,4.7,1.6,5.3-1.7s6-8.1,0.7-9.2c-5-1-1.1,3-5.3,0.8
			c1.2-10.4,1.9-21,2.2-31.7c0.6,0.1,0.2,0.4,1.5,2.8c2.1,3.6,1.6,1.6,4.7,3.2c3.1,1.6,2.8,1.8,3.6,6.3c0.9,4.5,0,1.1-1,5.9
			c-1,4.9,0.7,1.1,5.5,3.2c4.8,2.2,0,0,1.9,4.1c1.9,4.1,2.1,0.7,6.8,1.4c4.7,0.7,1.2-1.4,2.1-6.5c0.9-5,0,0,2.4-3.1
			c2.4-3.1,2.1,0.5,4.2,2.5c2.1,2,1.7,3.4,2.4,8.5s1.9,2.9,3.6,4.3c1.7,1.4,5.5,1.1,9.2,1.4c0.2,0,0.3,0,0.5,0
			C683,451.9,682,457.5,680.7,463.1z M687.5,408.6c-2.1-1.5-4.2-2.8-4.5-3c0.4,0.3,2.5,1.8,4.5,3.8c-0.1,2.3-0.2,4.7-0.3,7
			c-0.2,0.4-0.4,0.7-0.8,1.2c-1.4,1.6-0.9,0.9-2.1,2.9c-1.2,2,0,0-2.4,0.4c-2.4,0.4-1.9,0.9-4.8,0.4c0,0-1,1.1,0,2
			c1,0.9,2.2,0.9,4,2.2c1.7,1.3,1.2,0,3.5-0.5c2.2-0.5,1.7-1.3,2.2-2.7c0,0,0-0.1,0.1-0.1c-0.6,7.5-1.4,14.9-2.6,22.3
			c-0.8-1-2.3-2.1-3.4-2.6c-2.2-0.9-1-1.6-4.8-5.9c-3.8-4.3-1.4-4.3-4-7.7c-2.6-3.4,0.4-0.9,2.9-1.1c2.6-0.2,0.7-2.9-0.5-4.3
			c-1.2-1.4-3.9-2.3-4.5-3.4c-0.6-1.1,0-2.2-0.7-4.5c-0.7-2.3-5.4-4.5-10.6-8.3c-4.7-3.4-7.5-4.5-9.2-5.6l38.1,0
			C687.7,403.5,687.6,406.1,687.5,408.6z"/>
		<path class="st0" d="M370.1,301.3c1.9-2.1,3.4-2.5,1.2-4.1c-0.2-0.1-0.4-0.3-0.5-0.4l-1.1,5.1
			C369.8,301.7,369.9,301.5,370.1,301.3z"/>
		<path class="st0" d="M332,468.9l-1.9,8.6c1.2-2,1.9-4.5,1.9-8.1C332,469.2,332,469,332,468.9z"/>
	</g>
</g>
</svg>
