<?xml version="1.0" encoding="UTF-8"?>
<svg id="_图层_1" data-name="图层_1" xmlns="http://www.w3.org/2000/svg" version="1.1" viewBox="0 0 800 800">
  <!-- Created by @FCLOGO 2024-12-5 GMT+8 15:27:32 . https://fclogo.top/ -->
<!-- FOR PERSONAL USE ONLY NOT FOR COMMERCIAL USE -->
  <defs>
    <style>
      .st0 {
        fill: #fff;
      }

      .st0, .st1, .st2 {
        fill-rule: evenodd;
      }

      .st3 {
        fill: #ccc;
      }

      .st1 {
        fill: #085a2c;
      }

      .st2 {
        fill: #231815;
      }
    </style>
  </defs>
  <path class="st3" d="M348.22,774.3c-.79,0-1.38-.22-1.77-.65-.39-.44-.53-1.03-.41-1.79l.25-1.65c.12-.75.45-1.35.98-1.78.53-.44,1.19-.65,1.98-.65s1.33.2,1.72.6c.39.4.55.94.47,1.62h-1.24c.03-.36-.06-.64-.26-.84-.2-.2-.5-.3-.89-.3-.42,0-.76.12-1.03.35-.27.23-.43.56-.5.99l-.26,1.66c-.07.44,0,.77.19,1,.19.23.5.35.92.35.39,0,.72-.1.98-.3.26-.2.44-.48.52-.85h1.24c-.14.69-.47,1.23-.99,1.63-.52.4-1.16.6-1.92.6ZM352.8,774.19l1-6.29h1.19l-.19,1.19c.34-.87.97-1.3,1.91-1.3.67,0,1.17.21,1.49.62.32.42.43.99.31,1.71l-.07.42h-1.27l.06-.32c.07-.45.01-.8-.17-1.04-.18-.24-.48-.36-.88-.36s-.74.12-1.01.37c-.27.24-.43.59-.5,1.03l-.63,3.97h-1.24ZM361.91,774.3c-.77,0-1.35-.22-1.73-.67s-.52-1.04-.4-1.77l.25-1.65c.08-.49.26-.92.52-1.28s.6-.65,1.01-.85c.41-.2.87-.3,1.38-.3.77,0,1.35.22,1.73.67.39.45.52,1.04.39,1.77l-.17,1.12h-3.85l-.09.53c-.15.95.22,1.43,1.11,1.43.72,0,1.17-.25,1.37-.74h1.22c-.17.53-.5.96-1.01,1.28-.5.32-1.09.47-1.76.47ZM361.23,770.22l-.05.29h2.65s.05-.3.05-.3c.07-.47.01-.82-.17-1.07-.18-.25-.49-.37-.92-.37s-.8.13-1.06.38c-.26.25-.43.61-.51,1.08ZM368.33,774.3c-.63,0-1.1-.21-1.41-.64s-.4-1-.27-1.73l.27-1.77c.11-.73.39-1.31.84-1.74.44-.43.98-.64,1.61-.64.47,0,.83.12,1.09.35.26.24.39.56.38.96h.02l.17-1.2h1.24l-1,6.29h-1.22l.19-1.2h-.02c-.12.41-.35.73-.69.97s-.74.35-1.21.35ZM368.93,773.23c.39,0,.72-.12.98-.36.26-.24.43-.57.5-1.01l.25-1.65c.07-.43,0-.76-.18-1-.19-.24-.47-.36-.86-.36s-.72.12-.98.35c-.26.24-.42.57-.49,1.01l-.25,1.65c-.07.44-.01.78.17,1.01.18.23.47.35.88.35ZM376.35,774.19c-.57,0-.99-.16-1.26-.47-.27-.31-.36-.75-.27-1.32l.54-3.39h-1.74l.17-1.12h1.74l.27-1.72h1.24l-.27,1.72h2.47l-.18,1.12h-2.46l-.54,3.39c-.08.44.1.66.53.66h1.72l-.17,1.12h-1.77ZM382.5,774.3c-.77,0-1.35-.22-1.73-.67s-.52-1.04-.4-1.77l.25-1.65c.08-.49.26-.92.52-1.28s.6-.65,1.01-.85c.41-.2.87-.3,1.38-.3.77,0,1.35.22,1.73.67.39.45.52,1.04.39,1.77l-.17,1.12h-3.85l-.09.53c-.15.95.22,1.43,1.11,1.43.72,0,1.17-.25,1.37-.74h1.22c-.17.53-.5.96-1.01,1.28-.5.32-1.09.47-1.76.47ZM381.83,770.22l-.05.29h2.65s.05-.3.05-.3c.07-.47.01-.82-.17-1.07-.18-.25-.49-.37-.92-.37s-.8.13-1.06.38c-.26.25-.43.61-.51,1.08ZM388.92,774.3c-.63,0-1.1-.21-1.4-.64-.3-.42-.39-1-.28-1.73l.27-1.77c.11-.73.39-1.31.84-1.74.44-.43.98-.64,1.61-.64.47,0,.83.12,1.09.35.26.24.39.56.38.96h.02l.21-1.47.3-1.8h1.24l-1.33,8.35h-1.22l.19-1.2h-.02c-.12.41-.35.73-.69.97s-.74.35-1.21.35ZM389.53,773.23c.39,0,.72-.12.98-.36.26-.24.43-.57.5-1.01l.25-1.65c.08-.43.02-.76-.17-1-.19-.24-.48-.36-.87-.36s-.72.12-.98.35c-.26.24-.42.57-.49,1.01l-.25,1.65c-.08.44-.02.78.16,1.01s.48.35.88.35ZM401.02,774.3c-.47,0-.84-.12-1.1-.35-.26-.23-.39-.56-.38-.97h-.01l-.19,1.2h-1.22l1.33-8.35h1.24l-.29,1.8-.27,1.47h.05c.12-.41.35-.73.69-.97.34-.23.74-.35,1.21-.35.63,0,1.1.21,1.4.64.3.43.39,1.01.28,1.74l-.27,1.77c-.11.73-.39,1.31-.84,1.73-.45.42-.98.64-1.61.64ZM400.77,773.23c.4,0,.72-.12.98-.35.26-.23.42-.57.5-1.01l.25-1.65c.07-.43.01-.77-.17-1.01-.18-.24-.47-.35-.87-.35s-.72.12-.98.36-.43.57-.5,1l-.25,1.65c-.07.44-.01.77.17,1.01.18.24.47.36.87.36ZM405.47,776.25l.17-1.06h1.93c.64,0,1.01-.3,1.1-.9l.1-.67.21-1.19h-.03c-.12.42-.35.74-.68.97-.33.23-.73.34-1.2.34-.63,0-1.09-.2-1.4-.6s-.41-.94-.3-1.63l.58-3.6h1.24l-.56,3.48c-.06.41,0,.73.18.96s.47.34.85.34.72-.12.98-.37c.27-.24.43-.58.49-1.02l.54-3.4h1.24l-1.01,6.41c-.1.6-.37,1.08-.81,1.42-.44.35-1,.52-1.67.52h-1.95ZM417.79,770.09h3.22l.54-1.85h-5.47l-1.71,6.44h2.15l.59-2.1h3.03l.44-1.71h-3.03l.24-.78ZM424.23,772.92c-.59,0-1.02-.39-1.02-1.12,0-.88.63-1.76,1.61-1.76.49,0,.88.24,1.02.78l1.95-.83c-.29-1.17-1.27-1.9-2.64-1.9-2.78,0-4.15,2.15-4.15,3.9s1.27,2.83,3.07,2.83c1.37,0,2.34-.59,2.98-1.42l-1.51-1.17c-.39.44-.83.68-1.32.68ZM430.91,768.23h-2.15l-1.76,6.44h5.12l.49-1.85h-2.93l1.22-4.59ZM439.75,771.01c0-1.66-1.32-2.93-3.22-2.93-2.2,0-3.81,1.81-3.81,3.81,0,1.66,1.32,2.93,3.22,2.93,2.2,0,3.81-1.81,3.81-3.81ZM434.92,771.7c0-.83.59-1.71,1.51-1.71.78,0,1.17.54,1.17,1.22,0,.83-.59,1.71-1.51,1.71-.78,0-1.17-.54-1.17-1.22ZM443.21,772.23h1.07l-.2.68c-.15.05-.34.1-.59.1-.68,0-1.27-.39-1.27-1.22,0-1.02.73-1.9,1.95-1.9.59,0,1.12.24,1.51.59l1.37-1.37c-.44-.54-1.51-1.07-2.73-1.07-2.59,0-4.29,1.76-4.29,3.86s1.61,2.88,3.22,2.88c.93,0,1.85-.29,2.49-.68l.93-3.32h-3.12l-.34,1.46ZM450.78,768.08c-2.2,0-3.81,1.81-3.81,3.81,0,1.66,1.32,2.93,3.22,2.93,2.2,0,3.81-1.81,3.81-3.81,0-1.66-1.32-2.93-3.22-2.93ZM450.34,772.92c-.78,0-1.17-.54-1.17-1.22,0-.83.59-1.71,1.51-1.71.78,0,1.17.54,1.17,1.22,0,.83-.59,1.71-1.51,1.71ZM437.94,767.5c-.05.29.1.49.44.49s.54-.2.63-.49c.05-.24-.1-.49-.44-.49s-.59.24-.63.49ZM432.13,765.5c-.44,0-.73.24-.78.59s.1.59.54.59.73-.24.78-.59c.1-.34-.1-.59-.54-.59ZM433.01,767.3c-.1.54.15.88.83.88.63,0,1.07-.39,1.17-.88s-.15-.88-.83-.88c-.68,0-1.07.39-1.17.88ZM439.6,777.55l-2.44-1.81h-1.51l4.25,3.17,1.61-3.17h-.98l-.93,1.81ZM425.84,767.16l-2-1.46,23.13-2.78-2.15,4.25h1.02l2.68-5.32-26.99,3.22,2.78,2.1h1.51ZM338.72,785.79l.61-3.83h2.32l-.08.52h-1.76l-.18,1.14h1.63l-.08.52h-1.62l-.26,1.64h-.57ZM342.97,785.84c-.36,0-.62-.1-.8-.3-.17-.2-.23-.47-.18-.82l.27-1.7c.06-.34.2-.61.44-.82.24-.2.54-.3.89-.3s.62.1.8.3c.17.2.24.47.18.81l-.27,1.71c-.06.34-.2.62-.44.82-.24.2-.54.3-.9.3ZM343.05,785.33c.19,0,.35-.05.47-.16.12-.11.19-.26.23-.46l.27-1.7c.03-.2,0-.35-.08-.46-.08-.11-.22-.16-.41-.16s-.35.05-.46.16c-.12.1-.19.26-.22.46l-.27,1.7c-.03.2,0,.35.08.46s.22.16.41.16ZM345,785.79l.61-3.83h1.2c.24,0,.44.05.6.14.16.09.28.22.36.39s.09.37.05.59c-.04.26-.14.48-.3.67-.16.19-.37.32-.6.39l.54,1.64h-.62l-.48-1.57h-.54l-.25,1.57h-.57ZM345.89,783.71h.64c.19,0,.35-.06.48-.17.13-.11.21-.26.24-.45.03-.19,0-.35-.09-.46-.09-.11-.24-.17-.43-.17h-.64l-.2,1.25ZM349.54,785.79l.61-3.83h1.25c.37,0,.65.1.84.31.19.21.26.49.2.84-.04.23-.12.44-.25.61s-.29.31-.49.4c-.2.09-.42.14-.66.14h-.69l-.24,1.52h-.57ZM350.43,783.75h.69c.19,0,.36-.06.49-.18.14-.12.22-.27.25-.47s0-.35-.1-.47-.25-.18-.44-.18h-.69l-.21,1.29ZM352.75,785.79l.61-3.83h2.25l-.08.5h-1.7l-.17,1.09h1.51l-.08.5h-1.51l-.19,1.24h1.69l-.08.5h-2.25ZM355.84,785.79l.61-3.83h1.2c.24,0,.44.05.6.14.16.09.28.22.36.39s.09.37.05.59c-.04.26-.14.48-.3.67-.16.19-.37.32-.6.39l.54,1.64h-.62l-.48-1.57h-.54l-.25,1.57h-.57ZM356.74,783.71h.64c.19,0,.35-.06.48-.17.13-.11.21-.26.24-.45.03-.19,0-.35-.09-.46-.09-.11-.24-.17-.43-.17h-.64l-.2,1.25ZM360.13,785.84c-.39,0-.67-.1-.87-.29-.19-.19-.26-.45-.22-.78h.57c-.03.17.01.31.12.41.11.1.27.15.48.15.2,0,.37-.05.5-.15.13-.1.21-.23.24-.4.02-.15,0-.28-.06-.39-.06-.11-.16-.18-.29-.22l-.46-.14c-.27-.08-.46-.22-.59-.41-.13-.19-.17-.42-.13-.68.04-.21.11-.39.23-.55s.27-.28.46-.37.4-.13.64-.13c.35,0,.62.1.8.29.18.19.25.44.2.76h-.57c.03-.17,0-.3-.09-.4-.09-.1-.23-.14-.42-.14s-.34.04-.46.13c-.12.09-.19.21-.21.38-.02.15,0,.28.05.39s.16.18.29.22l.47.15c.26.08.46.22.58.41.12.19.17.42.12.69-.04.22-.12.41-.24.57-.13.16-.29.29-.49.38-.2.09-.42.13-.66.13ZM363.27,785.84c-.36,0-.62-.1-.8-.3-.17-.2-.23-.47-.18-.82l.27-1.7c.06-.34.2-.61.44-.82.24-.2.54-.3.89-.3s.62.1.8.3c.17.2.24.47.18.81l-.27,1.71c-.06.34-.2.62-.44.82-.24.2-.54.3-.9.3ZM363.34,785.33c.19,0,.35-.05.47-.16.12-.11.19-.26.23-.46l.27-1.7c.03-.2,0-.35-.08-.46-.08-.11-.22-.16-.41-.16s-.35.05-.46.16c-.12.1-.19.26-.22.46l-.27,1.7c-.03.2,0,.35.08.46s.22.16.41.16ZM365.28,785.79l.61-3.83h.71l.62,3.19c0-.1.02-.22.03-.36.01-.14.03-.29.04-.44.02-.15.04-.29.06-.41l.31-1.98h.52l-.61,3.83h-.71l-.61-3.19c0,.09-.02.21-.03.34s-.03.28-.04.42c-.02.15-.04.28-.06.41l-.31,2.01h-.53ZM368.23,785.79l1.59-3.83h.75l.37,3.83h-.56l-.07-.97h-1.09l-.39.97h-.59ZM369.39,784.34h.87l-.09-1.1c-.02-.2-.03-.37-.04-.51,0-.14-.01-.24-.01-.3-.02.06-.05.16-.1.3s-.11.31-.19.5l-.44,1.11ZM371.72,785.79l.61-3.83h.57l-.52,3.31h1.67l-.08.52h-2.25ZM376.68,785.84c-.37,0-.63-.1-.8-.3-.17-.2-.22-.47-.17-.82l.44-2.76h.57l-.44,2.76c-.03.2,0,.35.07.46.08.11.21.17.41.17s.35-.06.46-.17c.12-.11.19-.27.22-.46l.44-2.76h.57l-.44,2.76c-.06.35-.2.62-.43.82-.23.2-.53.3-.9.3ZM379.84,785.84c-.39,0-.67-.1-.87-.29-.19-.19-.26-.45-.22-.78h.57c-.03.17.01.31.12.41.11.1.27.15.48.15.2,0,.37-.05.5-.15.13-.1.21-.23.24-.4.02-.15,0-.28-.06-.39-.06-.11-.16-.18-.29-.22l-.46-.14c-.27-.08-.46-.22-.59-.41-.13-.19-.17-.42-.13-.68.04-.21.11-.39.23-.55s.27-.28.46-.37.4-.13.64-.13c.35,0,.62.1.8.29.18.19.25.44.2.76h-.57c.03-.17,0-.3-.09-.4-.09-.1-.23-.14-.42-.14s-.34.04-.46.13c-.12.09-.19.21-.21.38-.02.15,0,.28.05.39s.16.18.29.22l.47.15c.26.08.46.22.58.41.12.19.17.42.12.69-.04.22-.12.41-.24.57-.13.16-.29.29-.49.38-.2.09-.42.13-.66.13ZM381.91,785.79l.61-3.83h2.25l-.08.5h-1.7l-.17,1.09h1.51l-.08.5h-1.51l-.19,1.24h1.69l-.08.5h-2.25ZM386.94,785.84c-.36,0-.62-.1-.8-.3-.17-.2-.23-.47-.18-.82l.27-1.7c.06-.34.2-.61.44-.82.24-.2.54-.3.89-.3s.62.1.8.3c.17.2.24.47.18.81l-.27,1.71c-.06.34-.2.62-.44.82-.24.2-.54.3-.9.3ZM387.02,785.33c.19,0,.35-.05.47-.16.12-.11.19-.26.23-.46l.27-1.7c.03-.2,0-.35-.08-.46-.08-.11-.22-.16-.41-.16s-.35.05-.46.16c-.12.1-.19.26-.22.46l-.27,1.7c-.03.2,0,.35.08.46s.22.16.41.16ZM388.95,785.79l.61-3.83h.71l.62,3.19c0-.1.02-.22.03-.36.01-.14.03-.29.04-.44.02-.15.04-.29.06-.41l.31-1.98h.52l-.61,3.83h-.71l-.61-3.19c0,.09-.02.21-.03.34s-.03.28-.04.42c-.02.15-.04.28-.06.41l-.31,2.01h-.53ZM392.25,785.79l.61-3.83h.57l-.52,3.31h1.67l-.08.52h-2.25ZM396.12,785.79l.22-1.41-.75-2.42h.58l.45,1.45c.03.09.05.18.07.27.02.08.03.15.03.19.02-.04.05-.1.09-.19.04-.08.09-.17.14-.27l.9-1.45h.6l-1.53,2.42-.22,1.41h-.57ZM399.22,785.79l.61-3.83h.71l.62,3.19c0-.1.02-.22.03-.36.01-.14.03-.29.04-.44.02-.15.04-.29.06-.41l.31-1.98h.52l-.61,3.83h-.71l-.61-3.19c0,.09-.02.21-.03.34s-.03.28-.04.42c-.02.15-.04.28-.06.41l-.31,2.01h-.53ZM403.51,785.84c-.36,0-.62-.1-.8-.3-.18-.2-.23-.47-.18-.82l.27-1.7c.06-.34.2-.61.44-.82.24-.2.54-.3.89-.3s.62.1.8.3c.17.2.24.47.18.81l-.27,1.71c-.06.34-.2.62-.44.82-.24.2-.54.3-.89.3ZM403.58,785.33c.19,0,.35-.05.47-.16.12-.11.19-.26.23-.46l.27-1.7c.03-.2,0-.35-.08-.46-.08-.11-.22-.16-.41-.16s-.35.05-.46.16c-.12.1-.19.26-.22.46l-.27,1.7c-.03.2,0,.35.08.46.08.11.22.16.41.16ZM406.38,785.79l.52-3.31h-1.02l.08-.52h2.62l-.08.52h-1.03l-.52,3.31h-.57ZM409.52,785.79l.61-3.83h2.32l-.08.52h-1.76l-.18,1.14h1.63l-.08.52h-1.62l-.26,1.64h-.57ZM413.77,785.84c-.36,0-.62-.1-.8-.3-.18-.2-.23-.47-.18-.82l.27-1.7c.06-.34.2-.61.44-.82.24-.2.54-.3.89-.3s.62.1.8.3c.17.2.24.47.18.81l-.27,1.71c-.06.34-.2.62-.44.82-.24.2-.54.3-.89.3ZM413.85,785.33c.19,0,.35-.05.47-.16.12-.11.19-.26.23-.46l.27-1.7c.03-.2,0-.35-.08-.46-.08-.11-.22-.16-.41-.16s-.35.05-.46.16c-.12.1-.19.26-.22.46l-.27,1.7c-.03.2,0,.35.08.46.08.11.22.16.41.16ZM415.8,785.79l.61-3.83h1.2c.24,0,.44.05.6.14.16.09.28.22.36.39s.09.37.05.59c-.04.26-.14.48-.3.67-.16.19-.37.32-.6.39l.54,1.64h-.62l-.48-1.57h-.54l-.25,1.57h-.57ZM416.69,783.71h.64c.19,0,.35-.06.48-.17.13-.11.21-.26.24-.45.03-.19,0-.35-.09-.46-.09-.11-.24-.17-.43-.17h-.64l-.2,1.25ZM420.91,785.84c-.36,0-.63-.1-.81-.3-.18-.2-.24-.47-.19-.82l.27-1.7c.06-.35.21-.62.45-.82s.55-.3.91-.3.63.1.81.3c.18.2.24.47.19.82h-.57c.03-.2,0-.35-.09-.46-.09-.11-.23-.16-.42-.16s-.35.05-.47.16c-.12.1-.2.26-.23.45l-.27,1.71c-.03.2,0,.35.09.46.09.11.23.16.42.16s.35-.05.47-.16.2-.26.23-.46h.57c-.03.23-.11.43-.24.59s-.28.3-.47.39c-.19.09-.4.14-.64.14ZM424.03,785.84c-.36,0-.62-.1-.8-.3-.18-.2-.23-.47-.18-.82l.27-1.7c.06-.34.2-.61.44-.82.24-.2.54-.3.89-.3s.62.1.8.3c.17.2.24.47.18.81l-.27,1.71c-.06.34-.2.62-.44.82-.24.2-.54.3-.89.3ZM424.11,785.33c.19,0,.35-.05.47-.16.12-.11.19-.26.23-.46l.27-1.7c.03-.2,0-.35-.08-.46-.08-.11-.22-.16-.41-.16s-.35.05-.46.16c-.12.1-.19.26-.22.46l-.27,1.7c-.03.2,0,.35.08.46.08.11.22.16.41.16ZM425.97,785.79l.61-3.83h.69l.18,1.23c.02.12.04.23.05.33.01.1.02.18.03.24.02-.06.05-.14.09-.24.04-.11.09-.22.15-.34l.57-1.22h.71l-.61,3.83h-.54l.2-1.29c.02-.17.06-.35.1-.55.04-.2.09-.4.14-.61s.1-.4.14-.59c.05-.19.09-.35.13-.49l-.86,1.86h-.55l-.28-1.86c0,.14-.01.29-.02.47s-.02.37-.04.57c-.02.2-.04.41-.06.61-.02.2-.05.4-.08.57l-.2,1.29h-.54ZM429.11,785.79l.61-3.83h.69l.18,1.23c.02.12.04.23.05.33.01.1.02.18.03.24.02-.06.05-.14.09-.24.04-.11.09-.22.15-.34l.57-1.22h.71l-.61,3.83h-.54l.2-1.29c.02-.17.06-.35.1-.55.04-.2.09-.4.14-.61s.1-.4.14-.59c.05-.19.09-.35.13-.49l-.86,1.86h-.55l-.28-1.86c0,.14-.01.29-.02.47s-.02.37-.04.57c-.02.2-.04.41-.06.61-.02.2-.05.4-.08.57l-.2,1.29h-.54ZM432.41,785.79l.61-3.83h2.25l-.08.5h-1.7l-.17,1.09h1.51l-.08.5h-1.51l-.19,1.24h1.69l-.08.5h-2.25ZM435.51,785.79l.61-3.83h1.2c.24,0,.44.05.6.14.16.09.28.22.36.39s.09.37.05.59c-.04.26-.14.48-.3.67-.16.19-.37.32-.6.39l.54,1.64h-.62l-.48-1.57h-.54l-.25,1.57h-.57ZM436.4,783.71h.64c.19,0,.35-.06.48-.17.13-.11.21-.26.24-.45.03-.19,0-.35-.09-.46-.09-.11-.24-.17-.43-.17h-.64l-.2,1.25ZM439.8,785.84c-.36,0-.63-.1-.81-.3-.18-.2-.24-.47-.19-.82l.27-1.7c.06-.35.21-.62.45-.82s.55-.3.91-.3.63.1.81.3c.18.2.24.47.19.82h-.57c.03-.2,0-.35-.09-.46-.09-.11-.23-.16-.42-.16s-.35.05-.47.16c-.12.1-.2.26-.23.45l-.27,1.71c-.03.2,0,.35.09.46.09.11.23.16.42.16s.35-.05.47-.16.2-.26.23-.46h.57c-.03.23-.11.43-.24.59s-.28.3-.47.39c-.19.09-.4.14-.64.14ZM441.88,785.79l.08-.5h.78l.45-2.82h-.78l.08-.5h2.13l-.08.5h-.78l-.45,2.82h.78l-.08.5h-2.13ZM444.74,785.79l1.59-3.83h.75l.37,3.83h-.56l-.07-.97h-1.09l-.39.97h-.59ZM445.9,784.34h.87l-.09-1.1c-.02-.2-.03-.37-.04-.51,0-.14-.01-.24-.01-.3-.02.06-.05.16-.1.3s-.11.31-.19.5l-.44,1.11ZM448.24,785.79l.61-3.83h.57l-.52,3.31h1.67l-.08.52h-2.25ZM453.19,785.84c-.37,0-.63-.1-.8-.3-.17-.2-.22-.47-.17-.82l.44-2.76h.57l-.44,2.76c-.03.2,0,.35.07.46.08.11.21.17.41.17s.35-.06.46-.17c.12-.11.19-.27.22-.46l.44-2.76h.57l-.44,2.76c-.06.35-.2.62-.43.82-.23.2-.53.3-.9.3ZM456.36,785.84c-.39,0-.67-.1-.87-.29-.19-.19-.26-.45-.22-.78h.57c-.03.17.01.31.12.41.11.1.27.15.48.15.2,0,.37-.05.5-.15s.21-.23.24-.4c.02-.15,0-.28-.06-.39s-.16-.18-.29-.22l-.46-.14c-.27-.08-.46-.22-.59-.41-.13-.19-.17-.42-.13-.68.04-.21.11-.39.23-.55s.27-.28.46-.37c.19-.09.4-.13.64-.13.35,0,.62.1.8.29.18.19.25.44.2.76h-.57c.03-.17,0-.3-.09-.4-.09-.1-.23-.14-.42-.14s-.34.04-.46.13c-.12.09-.19.21-.21.38-.02.15,0,.28.05.39s.16.18.29.22l.47.15c.26.08.46.22.58.41.12.19.17.42.12.69-.04.22-.12.41-.24.57-.13.16-.29.29-.49.38-.2.09-.42.13-.66.13ZM458.42,785.79l.61-3.83h2.25l-.08.5h-1.7l-.17,1.09h1.51l-.08.5h-1.51l-.19,1.24h1.69l-.08.5h-2.25Z"/>
  <g>
    <path class="st2" d="M112.23,444.52h-56.57c39.39-26.88,78.4-70.76,104.79-107.59h-67.27c57.51-48.4,110.91-114.8,133.46-154.66H54.25l31.95,21.73c-18.96,53.91-36.2,131.57-36.2,222.47,0,29.52,2.28,56.79,6.76,82.25,18.56-18.41,37.34-40.65,55.48-64.2h0Z"/>
    <path class="st2" d="M348.34,282.08c0-33.86-7.78-64.7-18.99-99.8h-90.68c3.64,48.89,21.14,109.23,58.36,154.66h-61.22c5.23,37.19,21.65,78.06,42.47,107.59h-75.75c7.22,48,28.85,91.38,46.38,115.02h-82.37l-29.6,117.23c19.27,22.01,41.7,42.67,67.23,62.59-1.06-6.88-1.63-13.48-1.63-19.85,0-61.34,35.27-135.43,72.91-209.16,36.45-73.88,72.9-140.03,72.9-228.27h0Z"/>
    <path class="st2" d="M53.63,133.9c1.7-1.49,3.13-3.12,4.3-4.9,1.17-1.78,2.16-3.75,2.98-5.9l19.03-50.24h-13.06c-2.16,0-4.04.14-5.63.4-1.59.27-3.32.9-5.18,1.9l7.74-14.51h69.96l-3.26,14.51c-1.12-1-2.33-1.63-3.61-1.9-1.29-.27-3.13-.4-5.53-.4h-13.28l-19.03,50.24c-.84,2.23-1.34,4.19-1.5,5.9-.15,1.71.04,3.34.59,4.9h-34.51Z"/>
    <path class="st2" d="M199.59,60.64c-1.63,1.49-3.07,3.2-4.34,5.14-1.26,1.94-2.25,3.84-2.95,5.7l-19.54,51.59c-.84,2.23-1.35,4.21-1.5,5.92-.16,1.71.04,3.35.58,4.91h-34.68c1.6-1.41,3.03-3.09,4.29-5.02,1.26-1.94,2.26-3.87,3-5.81l19.54-51.59c.82-2.16,1.3-4.09,1.46-5.81.15-1.71-.02-3.39-.54-5.03h34.68Z"/>
    <path class="st2" d="M236.86,163.17l.13-85.01-17.01,44.91c-.82,2.16-1.32,4.14-1.51,5.92-.19,1.79.01,3.43.59,4.91h-18.71c1.6-1.41,3.03-3.09,4.29-5.02,1.26-1.94,2.26-3.87,3-5.81l19.54-51.59c.82-2.16,1.3-4.09,1.46-5.81.16-1.71-.02-3.39-.54-5.03h38.29l-1.57,41.98,30.46-41.98h38.29c-1.73,1.56-3.18,3.24-4.35,5.03-1.17,1.79-2.15,3.72-2.94,5.81l-19.54,51.59c-.82,2.16-1.32,4.13-1.5,5.92-.19,1.79.01,3.43.59,4.91h-34.68c1.6-1.42,3.03-3.09,4.29-5.03,1.26-1.94,2.26-3.87,3-5.81l17.01-44.91-58.58,85.01h0Z"/>
    <path class="st2" d="M382.83,90.54l6.7-17.7h16.26c1.87,0,3.01.5,3.42,1.48.41.99,0,3.09-1.22,6.32l-1.08,2.86c-.92,2.42-1.96,4.2-3.14,5.33-1.18,1.14-3,1.7-5.46,1.7h-15.47ZM424.19,98.38c-2.42-1.56-6.59-2.35-12.54-2.35,6.09,0,10.92-.82,14.47-2.46,3.55-1.64,6.33-5.1,8.33-10.39l2.75-7.25c2.26-5.95,2.05-9.99-.62-12.11-2.67-2.12-7.14-3.18-13.42-3.18h-60.5c.52,1.64.7,3.31.54,5.03-.16,1.71-.64,3.65-1.46,5.81l-19.54,51.59c-.73,1.94-1.73,3.87-3,5.81-1.26,1.94-2.69,3.61-4.29,5.02h60.5c6.35,0,11.64-1.06,15.89-3.18,4.23-2.12,7.46-6.09,9.66-11.9l3.85-10.17c2-5.29,1.79-8.71-.62-10.27h0ZM371.04,121.69l7.17-18.93h14.68c2.76,0,4.43.39,4.99,1.16.57.77.38,2.42-.57,4.93l-2.73,7.2c-.87,2.29-2.04,3.8-3.51,4.54-1.47.74-3.48,1.11-6.02,1.11h-14.01Z"/>
    <path class="st2" d="M493.01,90.54h22.82c2.38,0,4.34-.09,5.86-.27,1.52-.18,3.31-.62,5.37-1.33l-5.83,15.39c-.82-.79-1.87-1.31-3.16-1.57-1.28-.25-2.82-.38-4.61-.38h-24.94l-7.3,19.29h27.6c1.34,0,2.66-.13,3.95-.39,1.29-.26,3.83-.96,7.61-2.08l-8.03,14.69h-67.26c1.6-1.41,3.03-3.09,4.29-5.02,1.26-1.94,2.26-3.87,3-5.81l19.54-51.59c.82-2.16,1.3-4.09,1.46-5.81.16-1.71-.02-3.39-.54-5.03h65.65l-3.17,13.98c-1.61-.66-3.42-1.12-5.45-1.38-2.02-.26-4.34-.39-6.94-.39h-23.22l-6.7,17.7h0Z"/>
    <path class="st2" d="M589.82,90.54l6.7-17.7h15.02c2.97,0,4.64.44,5.01,1.32.37.88.04,2.68-.98,5.39l-1.79,4.73c-.95,2.49-1.93,4.16-2.96,5-1.03.84-2.76,1.26-5.21,1.26h-15.8ZM594.04,102.76l1.29,31.14h32.76c-.58-1.64-.99-3.2-1.24-4.69-.26-1.49-.49-3.24-.7-5.25l-2.15-21.21,1.63.11c3.34,0,6.07-.93,8.19-2.79,2.11-1.86,3.88-4.65,5.29-8.38l5.97-15.75c2.26-5.96,2.05-10-.61-12.12-2.66-2.12-7.13-3.19-13.39-3.19h-61.42c.52,1.64.7,3.31.54,5.03-.16,1.71-.64,3.65-1.46,5.81l-19.54,51.59c-.74,1.94-1.73,3.87-3,5.81-1.27,1.94-2.7,3.61-4.29,5.02h34.68c-.55-1.56-.75-3.2-.59-4.91.16-1.71.65-3.68,1.5-5.92l7.7-20.32h8.85Z"/>
    <path class="st2" d="M746.99,75.68c-1.23-1.09-2.76-1.83-4.59-2.23-1.83-.4-3.98-.6-6.44-.6h-25.77c-1.64,0-2.99.26-4.04.77-1.06.51-1.87,1.53-2.45,3.07l-.91,2.41c-.74,1.97-.8,3.19-.15,3.67.64.48,2.12.71,4.45.71h18.41c6.66,0,11.26,1.01,13.79,3.02,2.53,2.01,2.62,6.11.28,12.3l-7.58,20.02c-2.15,5.67-5.41,9.6-9.8,11.8-4.38,2.2-9.63,3.3-15.76,3.3h-49.54l3.05-14.86c1.54,1.08,3.39,1.79,5.54,2.13,2.15.35,4.61.52,7.39.52h26.19c1.57,0,2.74-.27,3.52-.82.77-.55,1.42-1.52,1.95-2.91l.87-2.31c.61-1.61.83-2.75.67-3.41-.16-.66-.95-.99-2.38-.99h-21.14c-6.82,0-11.48-.97-13.97-2.9-2.49-1.94-2.55-6.03-.18-12.29l7.61-20.11c2.17-5.73,5.47-9.72,9.9-11.96,4.43-2.23,9.67-3.35,15.72-3.35h48.37l-3.01,15.04h0Z"/>
    <path class="st1" d="M708.98,182.28h-98.62c11.2,35.1,18.99,65.94,18.99,99.8,0,5.8-.17,11.49-.47,17.1,11.4-26.91,22.39-55.2,33.33-85.1l46.76-31.8h0Z"/>
    <path class="st1" d="M461.6,282.08c0-33.86-7.78-64.7-18.99-99.8h-58.75c11.2,35.1,18.98,65.94,18.98,99.8,0,88.24-36.45,154.39-72.91,228.27-35.64,69.84-69.15,139.99-72.59,199.34,23.04-13.4,44.67-26.75,64.97-40.13,11.9-49.71,38.48-104.55,66.37-159.2,36.45-73.88,72.9-140.03,72.9-228.27h0Z"/>
    <path class="st1" d="M574.85,282.08c0-33.86-7.78-64.7-18.99-99.8h-58.75c11.2,35.1,18.99,65.94,18.99,99.8,0,88.24-36.45,154.39-72.91,228.27-18.67,36.58-36.76,73.25-50.25,108.41,40.3-31.79,74.42-64.35,104.1-98.78,1.62-3.21,3.26-6.42,4.9-9.63,36.45-73.88,72.9-140.03,72.9-228.27h0Z"/>
    <path class="st0" d="M248.9,559.54c-17.53-23.64-39.16-67.02-46.38-115.02h75.75c-20.81-29.52-37.24-70.4-42.47-107.59h61.22c-37.21-45.43-54.72-105.77-58.36-154.66h-12.04c-22.55,39.86-75.95,106.26-133.46,154.66h67.27c-26.38,36.83-65.39,80.7-104.79,107.59h56.57c-18.14,23.55-36.91,45.78-55.48,64.2,3.13,17.81,7.34,34.71,12.63,50.82h41.63l-15.11,59.87c11.54,20.27,25.21,39.28,41.03,57.36l29.6-117.23h82.37Z"/>
    <path class="st0" d="M402.85,282.08c0-33.86-7.78-64.7-18.98-99.8h-54.5c11.2,35.1,18.99,65.94,18.99,99.8,0,88.24-36.45,154.39-72.9,228.27-37.63,73.73-72.91,147.82-72.91,209.16,0,6.38.57,12.97,1.63,19.85,18.55-9.94,36.24-19.82,53.18-29.67,3.44-59.35,36.95-129.5,72.59-199.34,36.45-73.88,72.91-140.03,72.91-228.27h0Z"/>
    <path class="st0" d="M516.1,282.08c0-33.86-7.78-64.7-18.99-99.8h-54.5c11.2,35.1,18.99,65.94,18.99,99.8,0,88.24-36.45,154.39-72.9,228.27-27.9,54.65-54.48,109.49-66.37,159.2,25.52-16.82,48.96-33.69,70.63-50.79,13.49-35.16,31.58-71.83,50.25-108.41,36.45-73.88,72.91-140.03,72.91-228.27h0Z"/>
    <path class="st0" d="M610.36,182.28h-54.5c11.2,35.1,18.99,65.94,18.99,99.8,0,88.24-36.45,154.39-72.9,228.27-1.64,3.21-3.27,6.42-4.9,9.63,55.7-64.6,95.82-135.79,131.83-220.8.3-5.61.47-11.31.47-17.1,0-33.86-7.78-64.7-18.99-99.8h0Z"/>
    <path class="st2" d="M69.38,559.54c6.97,21.23,15.82,41.09,26.52,59.87l15.11-59.87h-41.63Z"/>
  </g>
</svg>