<?xml version="1.0" encoding="UTF-8"?>
<svg id="_图层_1" data-name="图层_1" xmlns="http://www.w3.org/2000/svg" version="1.1" viewBox="0 0 800 800">
  <!-- Created by @FCLOGO 2024-12-5 GMT+8 15:27:32 . https://fclogo.top/ -->
<!-- FOR PERSONAL USE ONLY NOT FOR COMMERCIAL USE -->
  <defs>
    <style>
      .st0 {
        fill: #ccc;
      }

      .st1 {
        fill: #fff;
      }

      .st2 {
        fill: #cb9700;
      }

      .st3 {
        fill: #004712;
      }
    </style>
  </defs>
  <path class="st0" d="M348.22,774.3c-.79,0-1.38-.22-1.77-.65-.39-.44-.53-1.03-.41-1.79l.25-1.65c.12-.75.45-1.35.98-1.78.53-.44,1.19-.65,1.98-.65s1.33.2,1.72.6c.39.4.55.94.47,1.62h-1.24c.03-.36-.06-.64-.26-.84-.2-.2-.5-.3-.89-.3-.42,0-.76.12-1.03.35-.27.23-.43.56-.5.99l-.26,1.66c-.07.44,0,.77.19,1,.19.23.5.35.92.35.39,0,.72-.1.98-.3.26-.2.44-.48.52-.85h1.24c-.14.69-.47,1.23-.99,1.63-.52.4-1.16.6-1.92.6ZM352.8,774.19l1-6.29h1.19l-.19,1.19c.34-.87.97-1.3,1.91-1.3.67,0,1.17.21,1.49.62.32.42.43.99.31,1.71l-.07.42h-1.27l.06-.32c.07-.45.01-.8-.17-1.04-.18-.24-.48-.36-.88-.36s-.74.12-1.01.37c-.27.24-.43.59-.5,1.03l-.63,3.97h-1.24ZM361.91,774.3c-.77,0-1.35-.22-1.73-.67s-.52-1.04-.4-1.77l.25-1.65c.08-.49.26-.92.52-1.28s.6-.65,1.01-.85c.41-.2.87-.3,1.38-.3.77,0,1.35.22,1.73.67.39.45.52,1.04.39,1.77l-.17,1.12h-3.85l-.09.53c-.15.95.22,1.43,1.11,1.43.72,0,1.17-.25,1.37-.74h1.22c-.17.53-.5.96-1.01,1.28-.5.32-1.09.47-1.76.47ZM361.23,770.22l-.05.29h2.65s.05-.3.05-.3c.07-.47.01-.82-.17-1.07-.18-.25-.49-.37-.92-.37s-.8.13-1.06.38c-.26.25-.43.61-.51,1.08ZM368.33,774.3c-.63,0-1.1-.21-1.41-.64s-.4-1-.27-1.73l.27-1.77c.11-.73.39-1.31.84-1.74.44-.43.98-.64,1.61-.64.47,0,.83.12,1.09.35.26.24.39.56.38.96h.02l.17-1.2h1.24l-1,6.29h-1.22l.19-1.2h-.02c-.12.41-.35.73-.69.97s-.74.35-1.21.35ZM368.93,773.23c.39,0,.72-.12.98-.36.26-.24.43-.57.5-1.01l.25-1.65c.07-.43,0-.76-.18-1-.19-.24-.47-.36-.86-.36s-.72.12-.98.35c-.26.24-.42.57-.49,1.01l-.25,1.65c-.07.44-.01.78.17,1.01.18.23.47.35.88.35ZM376.35,774.19c-.57,0-.99-.16-1.26-.47-.27-.31-.36-.75-.27-1.32l.54-3.39h-1.74l.17-1.12h1.74l.27-1.72h1.24l-.27,1.72h2.47l-.18,1.12h-2.46l-.54,3.39c-.08.44.1.66.53.66h1.72l-.17,1.12h-1.77ZM382.5,774.3c-.77,0-1.35-.22-1.73-.67s-.52-1.04-.4-1.77l.25-1.65c.08-.49.26-.92.52-1.28s.6-.65,1.01-.85c.41-.2.87-.3,1.38-.3.77,0,1.35.22,1.73.67.39.45.52,1.04.39,1.77l-.17,1.12h-3.85l-.09.53c-.15.95.22,1.43,1.11,1.43.72,0,1.17-.25,1.37-.74h1.22c-.17.53-.5.96-1.01,1.28-.5.32-1.09.47-1.76.47ZM381.83,770.22l-.05.29h2.65s.05-.3.05-.3c.07-.47.01-.82-.17-1.07-.18-.25-.49-.37-.92-.37s-.8.13-1.06.38c-.26.25-.43.61-.51,1.08ZM388.92,774.3c-.63,0-1.1-.21-1.4-.64-.3-.42-.39-1-.28-1.73l.27-1.77c.11-.73.39-1.31.84-1.74.44-.43.98-.64,1.61-.64.47,0,.83.12,1.09.35.26.24.39.56.38.96h.02l.21-1.47.3-1.8h1.24l-1.33,8.35h-1.22l.19-1.2h-.02c-.12.41-.35.73-.69.97s-.74.35-1.21.35ZM389.53,773.23c.39,0,.72-.12.98-.36.26-.24.43-.57.5-1.01l.25-1.65c.08-.43.02-.76-.17-1-.19-.24-.48-.36-.87-.36s-.72.12-.98.35c-.26.24-.42.57-.49,1.01l-.25,1.65c-.08.44-.02.78.16,1.01s.48.35.88.35ZM401.02,774.3c-.47,0-.84-.12-1.1-.35-.26-.23-.39-.56-.38-.97h-.01l-.19,1.2h-1.22l1.33-8.35h1.24l-.29,1.8-.27,1.47h.05c.12-.41.35-.73.69-.97.34-.23.74-.35,1.21-.35.63,0,1.1.21,1.4.64.3.43.39,1.01.28,1.74l-.27,1.77c-.11.73-.39,1.31-.84,1.73-.45.42-.98.64-1.61.64ZM400.77,773.23c.4,0,.72-.12.98-.35.26-.23.42-.57.5-1.01l.25-1.65c.07-.43.01-.77-.17-1.01-.18-.24-.47-.35-.87-.35s-.72.12-.98.36-.43.57-.5,1l-.25,1.65c-.07.44-.01.77.17,1.01.18.24.47.36.87.36ZM405.47,776.25l.17-1.06h1.93c.64,0,1.01-.3,1.1-.9l.1-.67.21-1.19h-.03c-.12.42-.35.74-.68.97-.33.23-.73.34-1.2.34-.63,0-1.09-.2-1.4-.6s-.41-.94-.3-1.63l.58-3.6h1.24l-.56,3.48c-.06.41,0,.73.18.96s.47.34.85.34.72-.12.98-.37c.27-.24.43-.58.49-1.02l.54-3.4h1.24l-1.01,6.41c-.1.6-.37,1.08-.81,1.42-.44.35-1,.52-1.67.52h-1.95ZM417.79,770.09h3.22l.54-1.85h-5.47l-1.71,6.44h2.15l.59-2.1h3.03l.44-1.71h-3.03l.24-.78ZM424.23,772.92c-.59,0-1.02-.39-1.02-1.12,0-.88.63-1.76,1.61-1.76.49,0,.88.24,1.02.78l1.95-.83c-.29-1.17-1.27-1.9-2.64-1.9-2.78,0-4.15,2.15-4.15,3.9s1.27,2.83,3.07,2.83c1.37,0,2.34-.59,2.98-1.42l-1.51-1.17c-.39.44-.83.68-1.32.68ZM430.91,768.23h-2.15l-1.76,6.44h5.12l.49-1.85h-2.93l1.22-4.59ZM439.75,771.01c0-1.66-1.32-2.93-3.22-2.93-2.2,0-3.81,1.81-3.81,3.81,0,1.66,1.32,2.93,3.22,2.93,2.2,0,3.81-1.81,3.81-3.81ZM434.92,771.7c0-.83.59-1.71,1.51-1.71.78,0,1.17.54,1.17,1.22,0,.83-.59,1.71-1.51,1.71-.78,0-1.17-.54-1.17-1.22ZM443.21,772.23h1.07l-.2.68c-.15.05-.34.1-.59.1-.68,0-1.27-.39-1.27-1.22,0-1.02.73-1.9,1.95-1.9.59,0,1.12.24,1.51.59l1.37-1.37c-.44-.54-1.51-1.07-2.73-1.07-2.59,0-4.29,1.76-4.29,3.86s1.61,2.88,3.22,2.88c.93,0,1.85-.29,2.49-.68l.93-3.32h-3.12l-.34,1.46ZM450.78,768.08c-2.2,0-3.81,1.81-3.81,3.81,0,1.66,1.32,2.93,3.22,2.93,2.2,0,3.81-1.81,3.81-3.81,0-1.66-1.32-2.93-3.22-2.93ZM450.34,772.92c-.78,0-1.17-.54-1.17-1.22,0-.83.59-1.71,1.51-1.71.78,0,1.17.54,1.17,1.22,0,.83-.59,1.71-1.51,1.71ZM437.94,767.5c-.05.29.1.49.44.49s.54-.2.63-.49c.05-.24-.1-.49-.44-.49s-.59.24-.63.49ZM432.13,765.5c-.44,0-.73.24-.78.59s.1.59.54.59.73-.24.78-.59c.1-.34-.1-.59-.54-.59ZM433.01,767.3c-.1.54.15.88.83.88.63,0,1.07-.39,1.17-.88s-.15-.88-.83-.88c-.68,0-1.07.39-1.17.88ZM439.6,777.55l-2.44-1.81h-1.51l4.25,3.17,1.61-3.17h-.98l-.93,1.81ZM425.84,767.16l-2-1.46,23.13-2.78-2.15,4.25h1.02l2.68-5.32-26.99,3.22,2.78,2.1h1.51ZM338.72,785.79l.61-3.83h2.32l-.08.52h-1.76l-.18,1.14h1.63l-.08.52h-1.62l-.26,1.64h-.57ZM342.97,785.84c-.36,0-.62-.1-.8-.3-.17-.2-.23-.47-.18-.82l.27-1.7c.06-.34.2-.61.44-.82.24-.2.54-.3.89-.3s.62.1.8.3c.17.2.24.47.18.81l-.27,1.71c-.06.34-.2.62-.44.82-.24.2-.54.3-.9.3ZM343.05,785.33c.19,0,.35-.05.47-.16.12-.11.19-.26.23-.46l.27-1.7c.03-.2,0-.35-.08-.46-.08-.11-.22-.16-.41-.16s-.35.05-.46.16c-.12.1-.19.26-.22.46l-.27,1.7c-.03.2,0,.35.08.46s.22.16.41.16ZM345,785.79l.61-3.83h1.2c.24,0,.44.05.6.14.16.09.28.22.36.39s.09.37.05.59c-.04.26-.14.48-.3.67-.16.19-.37.32-.6.39l.54,1.64h-.62l-.48-1.57h-.54l-.25,1.57h-.57ZM345.89,783.71h.64c.19,0,.35-.06.48-.17.13-.11.21-.26.24-.45.03-.19,0-.35-.09-.46-.09-.11-.24-.17-.43-.17h-.64l-.2,1.25ZM349.54,785.79l.61-3.83h1.25c.37,0,.65.1.84.31.19.21.26.49.2.84-.04.23-.12.44-.25.61s-.29.31-.49.4c-.2.09-.42.14-.66.14h-.69l-.24,1.52h-.57ZM350.43,783.75h.69c.19,0,.36-.06.49-.18.14-.12.22-.27.25-.47s0-.35-.1-.47-.25-.18-.44-.18h-.69l-.21,1.29ZM352.75,785.79l.61-3.83h2.25l-.08.5h-1.7l-.17,1.09h1.51l-.08.5h-1.51l-.19,1.24h1.69l-.08.5h-2.25ZM355.84,785.79l.61-3.83h1.2c.24,0,.44.05.6.14.16.09.28.22.36.39s.09.37.05.59c-.04.26-.14.48-.3.67-.16.19-.37.32-.6.39l.54,1.64h-.62l-.48-1.57h-.54l-.25,1.57h-.57ZM356.74,783.71h.64c.19,0,.35-.06.48-.17.13-.11.21-.26.24-.45.03-.19,0-.35-.09-.46-.09-.11-.24-.17-.43-.17h-.64l-.2,1.25ZM360.13,785.84c-.39,0-.67-.1-.87-.29-.19-.19-.26-.45-.22-.78h.57c-.03.17.01.31.12.41.11.1.27.15.48.15.2,0,.37-.05.5-.15.13-.1.21-.23.24-.4.02-.15,0-.28-.06-.39-.06-.11-.16-.18-.29-.22l-.46-.14c-.27-.08-.46-.22-.59-.41-.13-.19-.17-.42-.13-.68.04-.21.11-.39.23-.55s.27-.28.46-.37.4-.13.64-.13c.35,0,.62.1.8.29.18.19.25.44.2.76h-.57c.03-.17,0-.3-.09-.4-.09-.1-.23-.14-.42-.14s-.34.04-.46.13c-.12.09-.19.21-.21.38-.02.15,0,.28.05.39s.16.18.29.22l.47.15c.26.08.46.22.58.41.12.19.17.42.12.69-.04.22-.12.41-.24.57-.13.16-.29.29-.49.38-.2.09-.42.13-.66.13ZM363.27,785.84c-.36,0-.62-.1-.8-.3-.17-.2-.23-.47-.18-.82l.27-1.7c.06-.34.2-.61.44-.82.24-.2.54-.3.89-.3s.62.1.8.3c.17.2.24.47.18.81l-.27,1.71c-.06.34-.2.62-.44.82-.24.2-.54.3-.9.3ZM363.34,785.33c.19,0,.35-.05.47-.16.12-.11.19-.26.23-.46l.27-1.7c.03-.2,0-.35-.08-.46-.08-.11-.22-.16-.41-.16s-.35.05-.46.16c-.12.1-.19.26-.22.46l-.27,1.7c-.03.2,0,.35.08.46s.22.16.41.16ZM365.28,785.79l.61-3.83h.71l.62,3.19c0-.1.02-.22.03-.36.01-.14.03-.29.04-.44.02-.15.04-.29.06-.41l.31-1.98h.52l-.61,3.83h-.71l-.61-3.19c0,.09-.02.21-.03.34s-.03.28-.04.42c-.02.15-.04.28-.06.41l-.31,2.01h-.53ZM368.23,785.79l1.59-3.83h.75l.37,3.83h-.56l-.07-.97h-1.09l-.39.97h-.59ZM369.39,784.34h.87l-.09-1.1c-.02-.2-.03-.37-.04-.51,0-.14-.01-.24-.01-.3-.02.06-.05.16-.1.3s-.11.31-.19.5l-.44,1.11ZM371.72,785.79l.61-3.83h.57l-.52,3.31h1.67l-.08.52h-2.25ZM376.68,785.84c-.37,0-.63-.1-.8-.3-.17-.2-.22-.47-.17-.82l.44-2.76h.57l-.44,2.76c-.03.2,0,.35.07.46.08.11.21.17.41.17s.35-.06.46-.17c.12-.11.19-.27.22-.46l.44-2.76h.57l-.44,2.76c-.06.35-.2.62-.43.82-.23.2-.53.3-.9.3ZM379.84,785.84c-.39,0-.67-.1-.87-.29-.19-.19-.26-.45-.22-.78h.57c-.03.17.01.31.12.41.11.1.27.15.48.15.2,0,.37-.05.5-.15.13-.1.21-.23.24-.4.02-.15,0-.28-.06-.39-.06-.11-.16-.18-.29-.22l-.46-.14c-.27-.08-.46-.22-.59-.41-.13-.19-.17-.42-.13-.68.04-.21.11-.39.23-.55s.27-.28.46-.37.4-.13.64-.13c.35,0,.62.1.8.29.18.19.25.44.2.76h-.57c.03-.17,0-.3-.09-.4-.09-.1-.23-.14-.42-.14s-.34.04-.46.13c-.12.09-.19.21-.21.38-.02.15,0,.28.05.39s.16.18.29.22l.47.15c.26.08.46.22.58.41.12.19.17.42.12.69-.04.22-.12.41-.24.57-.13.16-.29.29-.49.38-.2.09-.42.13-.66.13ZM381.91,785.79l.61-3.83h2.25l-.08.5h-1.7l-.17,1.09h1.51l-.08.5h-1.51l-.19,1.24h1.69l-.08.5h-2.25ZM386.94,785.84c-.36,0-.62-.1-.8-.3-.17-.2-.23-.47-.18-.82l.27-1.7c.06-.34.2-.61.44-.82.24-.2.54-.3.89-.3s.62.1.8.3c.17.2.24.47.18.81l-.27,1.71c-.06.34-.2.62-.44.82-.24.2-.54.3-.9.3ZM387.02,785.33c.19,0,.35-.05.47-.16.12-.11.19-.26.23-.46l.27-1.7c.03-.2,0-.35-.08-.46-.08-.11-.22-.16-.41-.16s-.35.05-.46.16c-.12.1-.19.26-.22.46l-.27,1.7c-.03.2,0,.35.08.46s.22.16.41.16ZM388.95,785.79l.61-3.83h.71l.62,3.19c0-.1.02-.22.03-.36.01-.14.03-.29.04-.44.02-.15.04-.29.06-.41l.31-1.98h.52l-.61,3.83h-.71l-.61-3.19c0,.09-.02.21-.03.34s-.03.28-.04.42c-.02.15-.04.28-.06.41l-.31,2.01h-.53ZM392.25,785.79l.61-3.83h.57l-.52,3.31h1.67l-.08.52h-2.25ZM396.12,785.79l.22-1.41-.75-2.42h.58l.45,1.45c.03.09.05.18.07.27.02.08.03.15.03.19.02-.04.05-.1.09-.19.04-.08.09-.17.14-.27l.9-1.45h.6l-1.53,2.42-.22,1.41h-.57ZM399.22,785.79l.61-3.83h.71l.62,3.19c0-.1.02-.22.03-.36.01-.14.03-.29.04-.44.02-.15.04-.29.06-.41l.31-1.98h.52l-.61,3.83h-.71l-.61-3.19c0,.09-.02.21-.03.34s-.03.28-.04.42c-.02.15-.04.28-.06.41l-.31,2.01h-.53ZM403.51,785.84c-.36,0-.62-.1-.8-.3-.18-.2-.23-.47-.18-.82l.27-1.7c.06-.34.2-.61.44-.82.24-.2.54-.3.89-.3s.62.1.8.3c.17.2.24.47.18.81l-.27,1.71c-.06.34-.2.62-.44.82-.24.2-.54.3-.89.3ZM403.58,785.33c.19,0,.35-.05.47-.16.12-.11.19-.26.23-.46l.27-1.7c.03-.2,0-.35-.08-.46-.08-.11-.22-.16-.41-.16s-.35.05-.46.16c-.12.1-.19.26-.22.46l-.27,1.7c-.03.2,0,.35.08.46.08.11.22.16.41.16ZM406.38,785.79l.52-3.31h-1.02l.08-.52h2.62l-.08.52h-1.03l-.52,3.31h-.57ZM409.52,785.79l.61-3.83h2.32l-.08.52h-1.76l-.18,1.14h1.63l-.08.52h-1.62l-.26,1.64h-.57ZM413.77,785.84c-.36,0-.62-.1-.8-.3-.18-.2-.23-.47-.18-.82l.27-1.7c.06-.34.2-.61.44-.82.24-.2.54-.3.89-.3s.62.1.8.3c.17.2.24.47.18.81l-.27,1.71c-.06.34-.2.62-.44.82-.24.2-.54.3-.89.3ZM413.85,785.33c.19,0,.35-.05.47-.16.12-.11.19-.26.23-.46l.27-1.7c.03-.2,0-.35-.08-.46-.08-.11-.22-.16-.41-.16s-.35.05-.46.16c-.12.1-.19.26-.22.46l-.27,1.7c-.03.2,0,.35.08.46.08.11.22.16.41.16ZM415.8,785.79l.61-3.83h1.2c.24,0,.44.05.6.14.16.09.28.22.36.39s.09.37.05.59c-.04.26-.14.48-.3.67-.16.19-.37.32-.6.39l.54,1.64h-.62l-.48-1.57h-.54l-.25,1.57h-.57ZM416.69,783.71h.64c.19,0,.35-.06.48-.17.13-.11.21-.26.24-.45.03-.19,0-.35-.09-.46-.09-.11-.24-.17-.43-.17h-.64l-.2,1.25ZM420.91,785.84c-.36,0-.63-.1-.81-.3-.18-.2-.24-.47-.19-.82l.27-1.7c.06-.35.21-.62.45-.82s.55-.3.91-.3.63.1.81.3c.18.2.24.47.19.82h-.57c.03-.2,0-.35-.09-.46-.09-.11-.23-.16-.42-.16s-.35.05-.47.16c-.12.1-.2.26-.23.45l-.27,1.71c-.03.2,0,.35.09.46.09.11.23.16.42.16s.35-.05.47-.16.2-.26.23-.46h.57c-.03.23-.11.43-.24.59s-.28.3-.47.39c-.19.09-.4.14-.64.14ZM424.03,785.84c-.36,0-.62-.1-.8-.3-.18-.2-.23-.47-.18-.82l.27-1.7c.06-.34.2-.61.44-.82.24-.2.54-.3.89-.3s.62.1.8.3c.17.2.24.47.18.81l-.27,1.71c-.06.34-.2.62-.44.82-.24.2-.54.3-.89.3ZM424.11,785.33c.19,0,.35-.05.47-.16.12-.11.19-.26.23-.46l.27-1.7c.03-.2,0-.35-.08-.46-.08-.11-.22-.16-.41-.16s-.35.05-.46.16c-.12.1-.19.26-.22.46l-.27,1.7c-.03.2,0,.35.08.46.08.11.22.16.41.16ZM425.97,785.79l.61-3.83h.69l.18,1.23c.02.12.04.23.05.33.01.1.02.18.03.24.02-.06.05-.14.09-.24.04-.11.09-.22.15-.34l.57-1.22h.71l-.61,3.83h-.54l.2-1.29c.02-.17.06-.35.1-.55.04-.2.09-.4.14-.61s.1-.4.14-.59c.05-.19.09-.35.13-.49l-.86,1.86h-.55l-.28-1.86c0,.14-.01.29-.02.47s-.02.37-.04.57c-.02.2-.04.41-.06.61-.02.2-.05.4-.08.57l-.2,1.29h-.54ZM429.11,785.79l.61-3.83h.69l.18,1.23c.02.12.04.23.05.33.01.1.02.18.03.24.02-.06.05-.14.09-.24.04-.11.09-.22.15-.34l.57-1.22h.71l-.61,3.83h-.54l.2-1.29c.02-.17.06-.35.1-.55.04-.2.09-.4.14-.61s.1-.4.14-.59c.05-.19.09-.35.13-.49l-.86,1.86h-.55l-.28-1.86c0,.14-.01.29-.02.47s-.02.37-.04.57c-.02.2-.04.41-.06.61-.02.2-.05.4-.08.57l-.2,1.29h-.54ZM432.41,785.79l.61-3.83h2.25l-.08.5h-1.7l-.17,1.09h1.51l-.08.5h-1.51l-.19,1.24h1.69l-.08.5h-2.25ZM435.51,785.79l.61-3.83h1.2c.24,0,.44.05.6.14.16.09.28.22.36.39s.09.37.05.59c-.04.26-.14.48-.3.67-.16.19-.37.32-.6.39l.54,1.64h-.62l-.48-1.57h-.54l-.25,1.57h-.57ZM436.4,783.71h.64c.19,0,.35-.06.48-.17.13-.11.21-.26.24-.45.03-.19,0-.35-.09-.46-.09-.11-.24-.17-.43-.17h-.64l-.2,1.25ZM439.8,785.84c-.36,0-.63-.1-.81-.3-.18-.2-.24-.47-.19-.82l.27-1.7c.06-.35.21-.62.45-.82s.55-.3.91-.3.63.1.81.3c.18.2.24.47.19.82h-.57c.03-.2,0-.35-.09-.46-.09-.11-.23-.16-.42-.16s-.35.05-.47.16c-.12.1-.2.26-.23.45l-.27,1.71c-.03.2,0,.35.09.46.09.11.23.16.42.16s.35-.05.47-.16.2-.26.23-.46h.57c-.03.23-.11.43-.24.59s-.28.3-.47.39c-.19.09-.4.14-.64.14ZM441.88,785.79l.08-.5h.78l.45-2.82h-.78l.08-.5h2.13l-.08.5h-.78l-.45,2.82h.78l-.08.5h-2.13ZM444.74,785.79l1.59-3.83h.75l.37,3.83h-.56l-.07-.97h-1.09l-.39.97h-.59ZM445.9,784.34h.87l-.09-1.1c-.02-.2-.03-.37-.04-.51,0-.14-.01-.24-.01-.3-.02.06-.05.16-.1.3s-.11.31-.19.5l-.44,1.11ZM448.24,785.79l.61-3.83h.57l-.52,3.31h1.67l-.08.52h-2.25ZM453.19,785.84c-.37,0-.63-.1-.8-.3-.17-.2-.22-.47-.17-.82l.44-2.76h.57l-.44,2.76c-.03.2,0,.35.07.46.08.11.21.17.41.17s.35-.06.46-.17c.12-.11.19-.27.22-.46l.44-2.76h.57l-.44,2.76c-.06.35-.2.62-.43.82-.23.2-.53.3-.9.3ZM456.36,785.84c-.39,0-.67-.1-.87-.29-.19-.19-.26-.45-.22-.78h.57c-.03.17.01.31.12.41.11.1.27.15.48.15.2,0,.37-.05.5-.15s.21-.23.24-.4c.02-.15,0-.28-.06-.39s-.16-.18-.29-.22l-.46-.14c-.27-.08-.46-.22-.59-.41-.13-.19-.17-.42-.13-.68.04-.21.11-.39.23-.55s.27-.28.46-.37c.19-.09.4-.13.64-.13.35,0,.62.1.8.29.18.19.25.44.2.76h-.57c.03-.17,0-.3-.09-.4-.09-.1-.23-.14-.42-.14s-.34.04-.46.13c-.12.09-.19.21-.21.38-.02.15,0,.28.05.39s.16.18.29.22l.47.15c.26.08.46.22.58.41.12.19.17.42.12.69-.04.22-.12.41-.24.57-.13.16-.29.29-.49.38-.2.09-.42.13-.66.13ZM458.42,785.79l.61-3.83h2.25l-.08.5h-1.7l-.17,1.09h1.51l-.08.5h-1.51l-.19,1.24h1.69l-.08.5h-2.25Z"/>
  <g>
    <path class="st3" d="M735.67,385.62c.09-92.98-38.5-181.82-106.53-245.21-5.88-22.93-13.23-37.24-14.01-38.71l-8.23-15.48-16.66,5.59c-5.98,1.96-11.96,3.82-18.03,5.68-106.17-63.42-238.62-63.3-344.68.29-10.88-3.23-16.95-5.59-17.25-5.68l-18.03-6.86-8.23,17.44c-5.78,12.35-10.4,25.21-13.82,38.42-67.62,63.33-105.94,151.87-105.85,244.52,0,162.79,115.94,298.52,269.71,329.1-.78,7.64-1.27,12.94-1.37,15.48,4.06,3.16,8.35,6.01,12.84,8.53,10.88,5.59,28.13,11.27,53.8,11.27h1.76c40.87-.1,60.76-14.6,66.64-19.8-.1-2.45-.69-7.74-1.67-15.48,153.77-30.68,269.61-166.31,269.61-329.1Z"/>
    <path class="st2" d="M649.03,192.65c-5.1-43.12-25.48-78.31-34.5-92.12l.59,1.18c1.08,2.06,16.17,31.17,20.19,74.68.29,3.14.49,6.37.69,9.7v.59c.2,3.43.29,6.96.29,10.58v.2c3.63,4.61,7.15,9.21,10.49,14.01,50.65,71.79,67.61,162.06,46.45,247.33l-192.68-189.61c-6.86-1.47-14.11-2.84-21.76-4.12l210.71,207.38c-5.9,19.73-13.82,38.8-23.62,56.91l-212.28-212.45c-.59,8.92-1.08,18.72-1.27,29.21l202.28,202.28c-10.31,16.08-22.12,31.14-35.28,44.98l-166.71-166.71c.1,5.68.2,11.56.29,17.64l157.79,157.89c-36.17,35.26-80.62,60.87-129.27,74.48-2.84.78-5.59,1.47-8.43,2.25l-2.06.49c-2.94.69-5.78,1.37-8.72,1.96h0v.59c.29,3.92.69,7.74.98,11.47,0,.29.1.59.1.88,1.76,12.15,3.04,21.76,3.72,28.23,4.21-10.31,7.84-20.84,10.88-31.56,136.32-34.69,237.17-158.18,237.17-305.29.12-69.92-23.13-137.88-66.06-193.07ZM348.16,317.31l-213.45,212.96c-10.09-18.55-18.23-38.09-24.31-58.31l208.06-206.4c-7.74,1.27-14.99,2.74-21.76,4.31l-190.03,188.46c-20.97-85.07-4.02-175.06,46.45-246.68,3.33-4.7,6.86-9.41,10.39-13.92v-.29c-.1-6.66.2-13.62.78-20.68h0c2.02-25.39,8.55-50.22,19.31-73.31-9.7,15.48-28.03,49-32.73,89.48-42.81,55.09-65.99,122.91-65.86,192.68,0,147.01,100.75,270.49,236.98,305.29,3.06,11.11,6.83,22.01,11.27,32.64.78-8.53,2.45-23.23,4.7-42.14-2.94-.59-5.88-1.27-8.82-1.96l-2.06-.49c-2.84-.69-5.68-1.47-8.43-2.25-47.7-13.32-91.37-38.23-127.11-72.52l157.49-158.77c.1-6.08.2-12.05.29-17.74l-166.71,167.78c-13.63-14.15-25.87-29.57-36.56-46.06l203.36-202.87c-.29-10.49-.69-20.29-1.27-29.21h0ZM523.39,109.64h0c5.19-1.08,10.39-2.25,15.48-3.43l1.67-.39,3.04-.69h-.1c15.19-3.72,30.19-7.94,44.98-12.84l-59.19,5.98c-82.29-36.97-176.47-36.93-258.73.1l-59.78-6.08c14.84,5.17,29.96,9.52,45.28,13.03h.1l.88.2,4.9,1.08,1.57.29c1.57.39,3.14.69,4.8,1.08l1.37.29c2.06.39,4.21.88,6.37,1.27h0l.59.1c78.51-35.07,168.23-35.1,246.78-.1v.1Z"/>
    <path class="st1" d="M596.6,111.01c-211.69,70.66-394.67,0-394.67,0-41.46,87.71-.1,172-.1,172,0,0,65.86-45.18,198.07-45.18s196.7,45.08,196.7,45.08c42.14-92.81,0-171.9,0-171.9ZM444.2,716.38c-11.17-92.71-13.33-297.25-13.33-355.07.06-34.12,2.68-68.19,7.84-101.93-12.15-.98-25.09-1.57-38.61-1.57s-25.97.49-38.03,1.47c5.11,33.77,7.73,67.87,7.84,102.02,0,57.82-2.16,262.36-13.33,355.07h0s10.68,11.07,43.81,11.07h.2c33.03,0,43.71-11.07,43.61-11.07h0Z"/>
  </g>
</svg>