<?xml version="1.0" encoding="utf-8"?>
<!-- Created by @FCLOGO 2025-2-20 GMT+8 13:03:52 . https://fclogo.top/ -->
<!-- FOR PERSONAL USE ONLY NOT FOR COMMERCIAL USE -->
<svg version="1.1" xmlns="http://www.w3.org/2000/svg" xmlns:xlink="http://www.w3.org/1999/xlink" x="0px" y="0px"
	 viewBox="0 0 800 800" style="enable-background:new 0 0 800 800;" xml:space="preserve">
<g>
	<g>
		<path style="fill:#08182F;" d="M348.2942,55.3672L157.2705,95.4571v434.2442c0,21.7114,10.1096,42.1849,27.3481,55.3842L400,750
			l215.3814-164.9146c17.2385-13.1993,27.3481-33.6728,27.3481-55.3842V95.4571L451.7057,55.3672
			C417.6066,48.2109,382.3933,48.2109,348.2942,55.3672z"/>
		<path style="opacity:0.1;fill:#FFFFFF;enable-background:new    ;" d="M559.9906,486.3085l82.6,47.6891
			c0.0401-0.6502,0.049-1.3049,0.0709-1.9579l-80.9399-46.7307l16.0385-9.2594l64.9694,37.5101v-1.9988l-63.2383-36.5107
			l16.0386-9.2596l47.1996,27.2505v-1.9988l-45.4685-26.2511l16.0393-9.2599l29.4292,16.9903v-1.9975l-10.6728-6.1616V362.5794
			l10.6728-6.1709v-1.9996L472.001,453.1242v-18.9968l0.1014,0.1759l170.627-98.5099v-1.9979L472.0011,432.363v-18.5544
			l170.7284-98.5719v-1.9978l-170.7284,98.5709v-18.1309l158.588-91.5576l12.1403,7.0096v-1.9978l-28.5643-16.4927v-18.6468
			l28.5643,16.4931v-1.9978l-28.5643-16.4931v-18.6559l28.5643,16.4931v-1.9978l-28.5643-16.4931v-18.6458l28.5643,16.4897v-1.9978
			l-28.5643-16.4897v-18.6514l28.5643,16.4916v-1.9978l-99.2882-57.3241l16.1516-9.3241l83.1367,47.995V203.89l-81.4064-46.9961
			l16.152-9.3243l65.2544,37.6736v-1.9978l-63.5241-36.6746l16.1604-9.3293l47.3637,27.3461v-1.9978l-45.6335-26.3471l16.152-9.3244
			l29.4815,17.0194v-1.9978l-28.5643-16.5174V89.4623l-1.7311-0.3633v15.7528L453.24,196.752l-16.0536-9.2681l171.708-99.1279
			l-2.5379-0.5326L435.4562,186.485l-16.0582-9.2708l163.4048-94.334l-2.5378-0.5326l-162.5971,93.8677l-16.0445-9.2629
			L556.7191,77.406l-2.5381-0.5327l-82.1797,47.4473v-18.5461l58.6231-33.8449l-2.5378-0.5327l-56.0853,32.3798V85.2362
			l32.5349-18.7816l-2.5379-0.5327l-29.997,17.3165v-18.53l6.4557-3.7271l-2.5379-0.5326l-3.9178,2.2619v-3.0841l-1.7312-0.3633
			v66.057l-16.0487,9.2659v-78.691l-1.7312-0.3633v80.0538l-16.0589,9.2718V52.6701c-0.5768-0.0844-1.1539-0.1673-1.7312-0.2476
			v93.4345l-16.0487,9.2659V50.7013c-0.5768-0.0428-1.1542-0.073-1.7312-0.1119v105.533l-16.0584,9.2714V50.0111
			c-0.5772-0.002-1.154-0.002-1.7312,0.0001v115.5024l-16.0487-9.2653V50.5892c-0.577,0.0389-1.1544,0.0691-1.7312,0.1119v104.5476
			l-16.0589-9.2712v-93.554c-0.5773,0.0803-1.1543,0.1633-1.7312,0.2476v92.3069l-16.0487-9.2653V55.5315l-1.7312,0.3633v78.8187
			l-16.1532-9.3256l0.0493-66.1134l-1.7313,0.3634l-0.003,4.0901l-170.672,98.5398v1.9984L327.941,65.7273l-0.0138,18.5526
			l-170.6568,98.5285v1.9984L327.9258,86.279l-0.0138,18.5461l-159.0438,91.8194l0.2219,0.3841l-11.8196-6.8236v1.998
			l28.4618,16.4317v18.5503l-28.4618-16.4323v1.9984l28.4618,16.4323v18.54l-28.4618-16.4341v1.9984l28.4618,16.4342v18.5294
			l-28.4618-16.4312v1.9983l28.4618,16.4312v18.5509l-28.4618-16.4323v1.9988l99.2499,57.3051l-16.0384,9.2783l-83.2115-48.0439
			v1.9984l81.4826,47.0457l-16.0367,9.2773l-65.446-37.7874v1.9984l63.7171,36.7893l-16.0418,9.2803l-47.6753-27.5255v1.9983
			l45.9464,26.5273l-16.0418,9.2803l-29.9046-17.2659v1.9984l10.6824,6.1676l-0.0106,101.4716l-10.6717,6.1612v1.9992
			l170.7232-98.5664v18.5169l-170.7232,98.5671v1.9992L327.9937,394.27v18.538l-170.7232,98.5671v1.9994l170.7232-98.5671v18.537
			l-170.66,98.5301c0.0204,0.6547,0.023,1.3118,0.0618,1.9637l11.2401-6.4895l17.0967,9.7358v18.6765l-27.7032-15.9945
			c0.1067,0.7314,0.2023,1.4651,0.3319,2.191l27.3714,15.8029v28.1777l1.7312,1.3256v-50.182l16.0502-9.2429v71.7144l1.7312,1.3256
			v-74.0369l16.0538-9.2451v95.5741l1.7312,1.3255v-97.8965l16.0538-9.245v119.4338l1.7312,1.3255V506.3579l16.0543-9.2454v143.2941
			l1.7312,1.3255V497.0458l16.0538,9.2753v142.6295l-3.7779,2.1812l1.4888,1.1399l56.5101-32.6265l16.0517,9.2702l-58.7593,33.9247
			l1.4887,1.1399l59.0019-34.0648l16.0507,9.2696l-61.2505,35.3632l1.4887,1.1399l61.493-35.5033l16.0514,9.27l-63.742,36.8016
			l1.4887,1.14l63.9846-36.9417l16.0511,9.2698l-66.2335,38.24l1.4887,1.14l30.035-17.3408v40.3382l1.7312,1.3255V680.764
			l16.0538-9.2687v64.2241l1.7312,1.3255v-66.549l16.0543-9.269v88.1106L400,750l0.8658-0.663v-88.1159l16.0533,9.2711v66.5531
			l1.7312-1.3256V671.492l16.0548,9.2719v42.6628l1.7312-1.3255v-40.3375l16.0538,9.2714v18.7739l1.7312-1.3255v-16.4453
			l12.2192,7.0893l1.4872-1.1388l-13.7064-7.9521v-0.0013l-124.4805-71.8897v-18.536l151.8771,87.8967l1.487-1.1386
			l-153.3641-88.7573v-18.3193l167.3206,96.3904l1.4888-1.14L329.7408,577.294v-18.537l182.4518,105.3388l1.4883-1.1396
			l-183.94-106.1987v-18.6097L523.63,650.1694v5.1689l1.7311-1.3256V506.3009l16.059-9.2712v144.6869l1.7311-1.3255V497.0367
			l16.0487,9.2708v121.7953l1.7312-1.3255V507.3076l16.0589,9.2768v97.8968l1.7312-1.3255v-95.5713l16.0486,9.2709v74.0121
			l1.7312-1.3255v-71.6866l16.0589,9.2768v50.1137l1.7312-1.3255v-27.2169l16.7217,9.6536
			c0.3206-0.4813,0.6398-0.9626,0.9481-1.4515l-17.6698-10.2009V538.132l24.6331,14.2298c0.1917-0.5577,0.3733-1.1191,0.5509-1.6821
			l-95.4635-55.1463L559.9906,486.3085z M614.2375,372.8824l16.088-9.3021v99.7828l-16.1603-9.3296L614.2375,372.8824z
			 M185.9348,453.7727l-16.2613,9.3883l0.0104-99.4726l16.6961,9.6398L185.9348,453.7727z M612.4529,433.4746L453.065,525.4911
			l-16.092-9.2191l175.4962-101.3441L612.4529,433.4746z M612.4711,412.9279L435.2354,515.2765l-15.7159-9.0037l192.9677-111.729
			L612.4711,412.9279z M612.5054,373.8839l-0.0164,18.6595L417.7855,505.2775l-16.276-9.3963L612.5054,373.8839z M400.8658,494.2546
			V333.0219l16.0543,9.2416V484.972L400.8658,494.2546z M418.6513,483.971V343.26l16.0487,9.2384v122.1932L418.6513,483.971z
			 M436.4312,473.6907V353.495l16.0589,9.2443v101.6662L436.4312,473.6907z M454.2213,463.4044v-99.6686l16.0487,9.2384v81.1509
			L454.2213,463.4044z M471.5092,371.8257l0.0587-0.1017l-141.6284-81.528l-0.182-18.9067l157.949,91.1859L471.5092,371.8257z
			 M328.208,290.2004l-16.2553,9.4038V199.3586l16.0589,9.2714v61.1601L328.208,290.2004z M259.3968,167.0175l16.0399-9.2798
			L470.27,270.2282v18.5352L259.3968,167.0175z M310.2215,198.3591v102.2466l-16.0487,9.2842V189.0936L310.2215,198.3591z
			 M292.4417,188.0941v122.7974l-16.0589,9.2902V178.8226L292.4417,188.0941z M274.6516,177.8232v143.36l-16.0482,9.2839V168.5579
			L274.6516,177.8232z M541.097,331.6527l-16.0679,9.276L329.7428,228.1738v-18.5443L541.097,331.6527z M472.0011,289.763v-81.3045
			l16.0487-9.2647v99.8349L472.0011,289.763z M489.781,300.028V198.1943l16.0374-9.2582v120.351L489.781,300.028z
			 M507.5496,310.2866V187.9368l16.0385-9.2588v140.8683L507.5496,310.2866z M525.3192,320.5458V177.6786l16.0374-9.2583v161.3844
			L525.3192,320.5458z M523.299,341.9276l-16.0642,9.2739l-177.492-102.4682v-18.5611L523.299,341.9276z M470.2699,247.6711
			L294.9483,146.4494l16.0454-9.283l159.2762,91.9538V247.6711z M470.2699,249.6689v18.5616L277.1655,156.7376l16.054-9.288
			L470.2699,249.6689z M329.7428,250.7316l175.7616,101.4686l-16.0679,9.2759l-159.6937-92.1937V250.7316z M628.8591,301.1223
			L472.0012,391.681v-18.1416l141.1509-81.4862L628.8591,301.1223z M613.2006,290.9704l-0.0485,0.084l-0.0485-0.084H613.2006z
			 M596.3956,199.7879l16.0385,9.2599V290.47l-16.0385,9.259V199.7879z M578.627,189.5292l16.0374,9.2592v101.94l-16.0374,9.2584
			V189.5292z M560.8574,179.2699l16.0385,9.2598v122.4565l-16.0385,9.2589V179.2699z M559.1262,178.2704v142.9742l-16.0385,9.259
			v-161.493L559.1262,178.2704z M612.434,106.8496v18.5409L471.0287,207.022l-16.0587-9.2711L612.434,106.8496z M328.7623,126.8865
			l141.5076,81.6953v18.5406l-157.5473-90.9562L328.7623,126.8865z M170.3772,197.7717l157.5333-90.9473l-0.0138,18.5639
			l-141.2992,81.7478L170.3772,197.7717z M203.5122,299.0657L187.4635,289.8v-81.1659l16.0487-9.2849V299.0657z M221.3023,309.3368
			l-16.2771-9.3976h0.2182V198.3477l16.0589-9.2908V309.3368z M239.0821,319.6019l-16.0487-9.2657V188.0554l16.0487-9.2849V319.6019
			z M240.8133,320.6013V177.7689l16.0589-9.2908V329.873L240.8133,320.6013z M188.1116,373.2465l140.9658-81.5493l16.0733,9.2525
			l-157.1411,90.7308L188.1116,373.2465z M187.9986,393.6853l158.8854-91.7379l15.8829,9.143L187.897,412.0419L187.9986,393.6853z
			 M187.8858,414.0477l176.6143-101.9596l15.8686,9.1347L187.7843,432.4045L187.8858,414.0477z M187.6716,452.77l0.1016-18.3596
			L382.102,322.2206l15.8687,9.1347L187.6716,452.77z M399.1346,332.6816V494.51l-16.0543-9.2684v-143.291L399.1346,332.6816z
			 M381.3492,342.95v141.2921l-16.0538-9.2681V352.2187L381.3492,342.95z M363.5642,353.2181v120.7565l-16.0385-9.2592V362.4779
			L363.5642,353.2181z M345.7946,363.4774V463.716l-16.0697-9.2773v-81.6835L345.7946,363.4774z M186.5955,535.5847l-16.2234-9.2384
			l157.6217-91.0024v18.8128L186.5955,535.5847z M292.4381,638.6829l-16.0528,9.2682V507.3212l16.0538,9.2753L292.4381,638.6829z
			 M294.1693,637.6833l0.001-120.0867l15.8348,9.1488l0.2179,101.6693L294.1693,637.6833z M328.0096,618.1454l-16.0575,9.2709
			l-0.2137-99.6695l16.2712,9.4008V618.1454z M470.2699,617.3419L259.5257,495.5827l15.9877-9.207L470.27,598.8187v18.5232H470.2699
			z M470.2699,596.82L277.2471,485.3774l15.9669-9.195l177.0559,102.2229V596.82z M470.2699,576.4065L294.9478,475.184
			l15.9665-9.1948l159.3556,91.9975V576.4065z M470.2699,555.9879l-157.6218-90.9971l15.9655-9.1942l88.7419,51.2313
			l52.9145,30.3146L470.2699,555.9879L470.2699,555.9879z M488.06,627.6202l-16.0589-9.2781v-81.2349l16.0589-9.2712V627.6202z
			 M505.8501,637.8986l-16.0589-9.2782V526.8365l16.0589-9.2713V637.8986z M523.63,648.171l-16.0487-9.2722V516.5657l16.0487-9.2654
			V648.171z M470.9349,535.7288l-16.132-9.2421l157.6484-91.0122l-0.0163,18.5578L470.9349,535.7288z M157.2705,141.7433
			l28.4618-16.433V89.4838l1.7312-0.3633v14.6452l39.8521-23.009l5.4379-1.1413l-45.29,26.1486v18.5466l95.7549-55.2862
			l5.4379-1.1413l-131.3857,75.8584L157.2705,141.7433L157.2705,141.7433z"/>
		<path style="fill:#D0B07D;" d="M451.7057,55.3672c-34.0991-7.1563-69.3124-7.1563-103.4114,0L157.2705,95.4571v434.2442
			c0,21.7115,10.1096,42.1849,27.348,55.3842L400,750l215.3814-164.9146c17.2385-13.1993,27.3481-33.6727,27.3481-55.3842V95.4571
			L451.7057,55.3672z M631.1911,529.7011c0,18.0011-8.5329,35.28-22.8248,46.2223L399.9997,735.4678l-208.366-159.5434
			c-14.2924-10.9433-22.8248-28.2222-22.8248-46.2233V104.8253l181.855-38.1657c16.1921-3.3983,32.7914-5.1213,49.3359-5.1213
			s33.1443,1.723,49.3363,5.1213l181.855,38.1657V529.7011z"/>
	</g>
	<g>
		<path style="fill:#FFFFFF;" d="M192.4101,168.8708v-36.4917L355.5117,98.149c14.6018-3.0644,29.5698-4.6178,44.4881-4.6178
			c14.9178,0,29.8857,1.5534,44.488,4.6178l163.102,34.2301v36.4917h6.2937v-41.6017l-168.103-35.2795
			c-15.0254-3.153-30.4277-4.752-45.7808-4.752c-15.3526,0-30.7555,1.599-45.7808,4.752l-168.1025,35.2795v41.6017H192.4101z"/>
		<path style="fill:#FFFFFF;" d="M607.5898,345.7014v167.0619c0,16.0538-7.61,31.4664-20.3561,41.2265l-187.234,143.3616
			l-187.233-143.3616c-12.7467-9.7601-20.3566-25.1716-20.3566-41.2265v-167.062h-6.2937v167.062
			c0,18.1201,8.4373,35.207,22.8243,46.2229l191.059,146.2916l191.0594-146.2916c14.3871-11.0159,22.8243-28.1028,22.8243-46.2229
			v-167.062L607.5898,345.7014L607.5898,345.7014z"/>
	</g>
	<g>
		<path style="fill:#FFFFFF;" d="M296.297,185.2785v128.2443c-6.7132,0.7658-13.3531,1.6154-19.9195,2.5385V185.2785H296.297z"/>
		<path style="fill:#FFFFFF;" d="M262.1013,185.2785v132.9016c-6.7238,1.0594-13.3636,2.1923-19.909,3.4091v-68.192
			c-1.007,5.2028-4.0595,25.2587-7.1538,46.0173c-1.2377,8.2657-2.4756,16.6469-3.5979,24.2412
			c-4.3322,0.8601-8.6224,1.7622-12.8706,2.6958c-1.1539-7.7307-2.3811-15.472-3.6084-22.8671
			c-4.5105-27.388-8.9265-50.0872-8.9265-50.0872v75.8284c-6.7657,1.6049-13.4055,3.3041-19.9195,5.0768V185.2785h19.9195
			c0,0,15.1153,62.5383,18.8705,77.3808l17.2867-77.3808H262.1013z"/>
		<path style="fill:#FFFFFF;" d="M375.1988,185.2785v122.7268c-6.6818,0.1784-13.3217,0.4196-19.9091,0.7448v-0.0105
			l-8.3391-22.6783l-16.458-44.7375v68.9473c-6.7028,0.5035-13.3427,1.0804-19.9196,1.7307V185.2785h19.9196l24.7971,67.1012
			v-67.1012H375.1988z"/>
		<path style="fill:#FFFFFF;" d="M459.7439,185.2785v32.0663h-19.9195v-9.7237h-29.8636v77.0347
			c10.0175,0.1049,19.972,0.3566,29.8636,0.7657v-16.7517h-9.5769v-22.3321h29.4964v63.2515
			c-6.5874-0.4301-13.2272-0.7867-19.9195-1.0699c-9.8496-0.4196-19.8146-0.6819-29.8636-0.7867
			c-3.3042-0.0315-6.6293-0.0525-9.965-0.0525c-3.3252,0-6.6503,0.021-9.9545,0.0525V185.2785H459.7439z"/>
		<path style="fill:#FFFFFF;" d="M614.5475,185.2785v149.2023c-6.514-1.7832-13.1539-3.4825-19.909-5.0979
			c-7.8567-1.8881-15.8811-3.6608-24.0524-5.3182c-6.5454-1.3321-13.1747-2.5804-19.909-3.7657V185.2785h19.909v115.2164
			c8.1398,1.5944,16.1538,3.3042,24.0524,5.1294V185.2785H614.5475z"/>
		<path style="fill:#FFFFFF;" d="M536.9579,185.2785H515.401h-19.9195h-21.086v22.3376h21.086v104.9941
			c6.7133,0.7133,13.3531,1.4895,19.9195,2.3392V207.6161h21.5569V185.2785z"/>
	</g>
	<g>
		<path style="fill:#FFFFFF;" d="M445.8405,420.7246c0,0,13.7772,34.0673,9.0178,56.6118
			c-4.7594,22.5446-18.7871,37.4401-28.0554,48.1532c-9.2683,10.7131-38.0752,43.027-37.8247,71.0824
			s16.7831,40.5801,21.1668,43.8365c0,0-9.2683-16.0317-8.6421-30.3099c0.6263-14.2782,3.006-26.5524,25.6757-50.5999
			c22.6698-24.0475,38.5762-40.5802,45.1517-59.743C478.9058,480.5928,477.0271,442.956,445.8405,420.7246z"/>
		<path style="fill:#FFFFFF;" d="M403.3572,399.5409c0,0,17.8722,27.7905,12.3712,54.3153
			c-4.679,22.5613-18.7871,37.4401-28.0554,48.1532c-9.2683,10.7131-38.0752,43.0269-37.8247,71.0823
			c0.2505,28.0554,16.7832,40.5802,21.1668,43.8366c0,0-9.2683-16.0317-8.6421-30.3099c0.6263-14.2782,3.006-26.5524,25.6757-50.6
			c22.6698-24.0475,38.5762-40.5801,45.1517-59.743C439.7759,457.1126,438.0439,416.9985,403.3572,399.5409z"/>
		<path style="fill:#F0402C;" d="M335.413,581.3325c0,0-11.313-20.8318,0.2098-47.8852
			c11.5228-27.0535,35.0693-43.0851,47.093-57.8643c12.0238-14.7792,16.4043-24.1728,15.778-37.1985
			c-0.6262-13.0257-6.7666-22.4193-10.1467-27.0534c-3.38-4.6342-16.2774-17.7068-35.9413-16.4309
			c0,0,16.6579-15.5072,34.8188-16.8849s53.9816,1.002,65.8801-2.2545c11.8985-3.2564,34.5683-12.65,35.445-46.3416
			c0,0-15.0297,23.6718-40.0792,23.0455s-35.0692-3.7574-48.4707-3.2564s-69.3871,7.3896-83.2896,79.7826
			c0,0,16.9084-21.793,35.8208-15.7812c18.9124,6.0119,19.6638,22.1688,19.1628,26.5524
			c-0.501,4.3837-0.6263,9.8946-20.1648,30.5604c-19.5386,20.6658-32.9808,44.0432-33.1467,66.8383
			C318.2255,558.7224,323.0135,570.937,335.413,581.3325z"/>
	</g>
</g>
<g>
	<g>
		<path style="fill:#FFFFFF;" d="M382.4277,154.4623c-5.0251,0-9.9973,0-15.0429,0c0-9.0366,0-18.0461,0-27.1075
			c5.0078,0,9.999,0,15.0429,0C382.4277,136.3637,382.4277,145.3755,382.4277,154.4623z M371.0973,131.0796
			c0,6.5591,0,13.0735,0,19.5845c2.557,0,5.0573,0,7.5713,0c0-6.5489,0-13.0453,0-19.5845
			C376.1267,131.0796,373.6283,131.0796,371.0973,131.0796z"/>
		<path style="fill:#FFFFFF;" d="M363.0939,154.4543c-5.0445,0-10.0377,0-15.0695,0c0-5.4239,0-10.8125,0-16.2654
			c3.7972,0,7.5333,0,11.3106,0c0-2.3896,0-4.7149,0-7.1448c-3.7653,0-7.5163,0-11.3149,0c0-1.2952,0-2.4861,0-3.7067
			c5.0412,0,10.0347,0,15.0854,0c0,4.8693,0,9.7043,0,14.6081c-3.7966,0-7.5553,0-11.3597,0c0,2.9426,0,5.8168,0,8.7688
			c3.7834,0,7.5407,0,11.3482,0C363.0939,151.984,363.0939,153.1774,363.0939,154.4543z"/>
		<path style="fill:#FFFFFF;" d="M456.38,127.3638c0,9.0142,0,18.0069,0,27.0966c-0.5815,0.008-2.9666,0.0244-3.6679,0.0244
			c0-5.2133-0.046-8.6181-0.046-12.4954c-3.783,0-7.5199,0-11.3493,0c0-3.6898-0.0369-13.0832-0.0369-14.6255
			C446.3241,127.3638,451.3325,127.3638,456.38,127.3638z M452.6333,138.1551c0-2.3904,0-4.712,0-7.0234
			c-2.1465,0-5.8218,0.0307-7.5465,0.0307c0,2.3154,0,4.6357,0,6.9927C447.6129,138.1551,450.0885,138.1551,452.6333,138.1551z"/>
		<path style="fill:#FFFFFF;" d="M423.8253,127.4076c3.3114,0,6.5444,0,9.8758,0c0,7.811,0,15.5839,0,23.4247
			c1.7702,0,3.4435,0,5.163,0c0,1.2627,0,2.4582,0,3.6575c-2.1054,0-13.4017,0.0294-15.0453,0.0294c0-1.1867,0-2.3817,0-3.6671
			c2.0336,0,4.0536,0,6.1082,0c0-6.5915,0-13.0932,0-19.7099c-1.0195-0.0058-5.0546-0.0174-6.1017-0.0174
			C423.8253,129.8603,423.8253,128.6668,423.8253,127.4076z"/>
	</g>
	<g>
		<path style="fill:#F0402C;" d="M403.9907,123.0182c-9.4327,0-17.0793,7.6467-17.0793,17.0793
			c0,9.4327,7.6467,17.0793,17.0793,17.0793c9.4326,0,17.0793-7.6467,17.0793-17.0793
			C421.07,130.6649,413.4233,123.0182,403.9907,123.0182z M415.6343,149.7293l-3.8852,1.1691
			c-0.1602,0.0482-0.2994,0.1493-0.3947,0.2868l-2.1536,3.1048c-1.6249,0.5984-3.38,0.9255-5.2101,0.9255
			c-1.8265,0-3.5783-0.3257-5.2006-0.9218l-2.3607-3.4034c-0.0954-0.1375-0.2345-0.2386-0.3947-0.2868l-3.9389-1.1852
			c-2.0181-2.5699-3.2229-5.8071-3.2229-9.3206c0-0.0537,0.0015-0.1071,0.002-0.1608l2.4951-3.2809
			c0.1013-0.1332,0.1544-0.2968,0.1508-0.4641l-0.0982-4.4869c1.872-2.7942,4.6502-4.9317,7.9106-5.9901l4.3738,1.5277
			c0.158,0.0552,0.33,0.0552,0.4879,0l4.412-1.5411c3.2261,1.0369,5.9828,3.1299,7.8613,5.8705l-0.0962,4.3947
			c-0.0037,0.1673,0.0495,0.3309,0.1508,0.4641l2.5821,3.3952c0.0016,0.0905,0.0034,0.1808,0.0034,0.2717
			C419.1085,143.7544,417.8031,147.1119,415.6343,149.7293z"/>
		<path style="fill:#F0402C;" d="M399.5524,139.4349l1.4303,4.4019c0.0977,0.3005,0.3777,0.504,0.6937,0.504h4.6285
			c0.316,0,0.5961-0.2035,0.6937-0.504l1.4303-4.4019c0.0977-0.3005-0.0093-0.6298-0.265-0.8155l-3.7445-2.7206
			c-0.2557-0.1857-0.6018-0.1857-0.8575,0l-3.7445,2.7206C399.5618,138.8051,399.4548,139.1343,399.5524,139.4349z"/>
		<path style="fill:#F0402C;" d="M408.0221,148.1561c-0.102-0.153-0.2737-0.2449-0.4576-0.2449h-3.5737h-3.5737
			c-0.1839,0-0.3556,0.0919-0.4576,0.2449l-0.7932,1.1899c-0.1197,0.1795-0.1234,0.4124-0.0094,0.5955l2.3179,3.7275
			c0.1004,0.1614,0.277,0.2596,0.4671,0.2596h2.0491h2.0491c0.1901,0,0.3667-0.0981,0.4671-0.2596l2.3179-3.7275
			c0.1139-0.1832,0.1102-0.416-0.0094-0.5955L408.0221,148.1561z"/>
		<path style="fill:#F0402C;" d="M417.4496,142.0867l-2.8288-3.3563c-0.139-0.1649-0.3616-0.2334-0.5693-0.1751l-1.3768,0.3867
			c-0.177,0.0497-0.3175,0.1847-0.3743,0.3596l-1.1043,3.3988l-1.1043,3.3988c-0.0569,0.1749-0.0225,0.3666,0.0915,0.5109
			l0.8865,1.1221c0.1337,0.1693,0.354,0.2447,0.5635,0.193l4.2613-1.0526c0.1845-0.0456,0.3325-0.1832,0.3912-0.364l0.6332-1.9488
			l0.6332-1.9488C417.6108,142.4303,417.5721,142.232,417.4496,142.0867z"/>
		<path style="fill:#F0402C;" d="M405.6318,132.1526l2.8912,2.1006l2.8912,2.1006c0.1488,0.1081,0.3417,0.1347,0.5142,0.0708
			l1.3412-0.4964c0.2023-0.0749,0.3422-0.2611,0.3577-0.4762l0.3157-4.378c0.0137-0.1896-0.0715-0.3728-0.2253-0.4845
			l-1.6577-1.2044l-1.6577-1.2044c-0.1538-0.1117-0.3543-0.1361-0.5304-0.0645l-4.0662,1.6532
			c-0.1998,0.0813-0.3337,0.2718-0.3424,0.4874l-0.0576,1.4289C405.3982,131.8692,405.4831,132.0445,405.6318,132.1526z"/>
		<path style="fill:#F0402C;" d="M394.3063,135.479c0.0155,0.2152,0.1554,0.4014,0.3577,0.4763l1.3412,0.4964
			c0.1725,0.0638,0.3654,0.0372,0.5142-0.0708l2.8912-2.1006l2.8912-2.1006c0.1488-0.1081,0.2337-0.2834,0.2263-0.4671
			l-0.0576-1.4289c-0.0087-0.2155-0.1426-0.4061-0.3424-0.4874l-4.0662-1.6532c-0.1761-0.0716-0.3766-0.0472-0.5304,0.0645
			l-1.6577,1.2044l-1.6577,1.2044c-0.1538,0.1117-0.239,0.2949-0.2253,0.4845L394.3063,135.479z"/>
		<path style="fill:#F0402C;" d="M396.7707,142.6328l-1.1043-3.3988c-0.0568-0.1749-0.1973-0.3098-0.3744-0.3595l-1.3768-0.3867
			c-0.2077-0.0583-0.4303,0.0101-0.5693,0.1751l-2.8288,3.3563c-0.1225,0.1453-0.1613,0.3436-0.1025,0.5244l0.6332,1.9488
			l0.6332,1.9488c0.0587,0.1808,0.2067,0.3184,0.3912,0.364l4.2613,1.0526c0.2094,0.0517,0.4297-0.0237,0.5635-0.193l0.8865-1.1221
			c0.114-0.1443,0.1483-0.336,0.0915-0.5109L396.7707,142.6328z"/>
	</g>
</g>
</svg>
