<?xml version="1.0" encoding="utf-8"?>
<!-- Created by @FCLOGO 2025-2-20 GMT+8 13:03:52 . https://fclogo.top/ -->
<!-- FOR PERSONAL USE ONLY NOT FOR COMMERCIAL USE -->
<svg version="1.1" xmlns="http://www.w3.org/2000/svg" xmlns:xlink="http://www.w3.org/1999/xlink" x="0px" y="0px"
	 viewBox="0 0 800 800" style="enable-background:new 0 0 800 800;" xml:space="preserve">
<path style="fill:#08182F;" d="M206.0351,329.2256c-6.7657,1.6049-13.4055,3.3041-19.9195,5.0768V185.2785h19.9195
	c0,0,15.1153,62.5383,18.8705,77.3809l17.2867-77.3809h19.909v132.9016c-6.7238,1.0594-13.3635,2.1923-19.909,3.4091v-68.192
	c-1.007,5.2028-4.0594,25.2587-7.1538,46.0173c-1.2377,8.2657-2.4756,16.6469-3.5979,24.2412
	c-4.3322,0.8602-8.6224,1.7623-12.8706,2.6958c-1.1539-7.7307-2.3811-15.4719-3.6083-22.8671
	c-4.5105-27.388-8.9266-50.0872-8.9266-50.0872V329.2256z M607.5897,345.7014v167.0618c0,16.0538-7.61,31.4664-20.3561,41.2265
	l-187.234,143.3615L212.7667,553.9897c-12.7466-9.7601-20.3566-25.1717-20.3566-41.2265V345.7013h-6.2937v167.062
	c0,18.1201,8.4373,35.207,22.8243,46.2229l191.059,146.2916l191.0595-146.2915c14.387-11.0159,22.8243-28.1028,22.8243-46.2229
	v-167.062h-6.2937H607.5897z M310.5731,185.2785v126.7234c6.577-0.6504,13.2168-1.2273,19.9196-1.7308v-68.9473l16.458,44.7375
	l8.3391,22.6783v0.0105c6.5875-0.3253,13.2273-0.5664,19.9091-0.7448V185.2785h-19.9091v67.1012l-24.7971-67.1012H310.5731z
	 M316.7106,428.9911c0,0,16.9083-21.793,35.8207-15.7812c18.9123,6.0119,19.6638,22.1688,19.1628,26.5524
	c-0.501,4.3837-0.6262,9.8946-20.1648,30.5604c-19.5385,20.6658-32.9807,44.0433-33.1467,66.8383
	c-0.157,21.5615,4.631,33.7759,17.0305,44.1716c0,0-11.313-20.8318,0.2098-47.8853c11.5226-27.0534,35.0693-43.0851,47.093-57.8643
	c12.0238-14.7792,16.4043-24.1728,15.7781-37.1985c-0.6263-13.0258-6.7666-22.4194-10.1467-27.0535
	c-3.3801-4.6341-16.2773-17.7068-35.9413-16.4308c0,0,16.6579-15.5071,34.8188-16.8849c18.1609-1.3777,53.9816,1.002,65.8801-2.2545
	s34.5683-12.65,35.445-46.3416c0,0-15.0297,23.6717-40.0792,23.0455c-25.0494-0.6262-35.0692-3.7574-48.4707-3.2564
	C386.5985,349.7093,330.6129,356.5979,316.7106,428.9911z M390.0414,307.7327c3.3042-0.0315,6.6294-0.0525,9.9545-0.0525
	c3.3357,0,6.6609,0.021,9.965,0.0525c10.0489,0.1049,20.0139,0.3671,29.8635,0.7867c6.6923,0.2831,13.3322,0.6398,19.9195,1.0699
	v-63.2515h-29.4963v22.332h9.5768v16.7517c-9.8915-0.4091-19.846-0.6608-29.8635-0.7657v-77.0347h29.8635v9.7237h19.9195v-32.0663
	h-69.7025V307.7327z M276.3775,185.2785v130.7828c6.5664-0.9231,13.2062-1.7727,19.9195-2.5385V185.2785H276.3775z
	 M427.1786,559.4987c22.6698-24.0475,38.5763-40.5802,45.1517-59.743c6.5755-19.1628,4.6968-56.7997-26.4898-79.0311
	c0,0,13.7772,34.0673,9.0178,56.6118c-4.7594,22.5446-18.787,37.4401-28.0554,48.1532s-38.0753,43.0269-37.8247,71.0823
	c0.2505,28.0554,16.7831,40.5802,21.1668,43.8366c0,0-9.2683-16.0317-8.6421-30.3099
	C402.1292,595.8204,404.5089,583.5462,427.1786,559.4987z M399.9998,87.2375c-15.3526,0-30.7555,1.599-45.7808,4.752
	l-168.1025,35.2796v41.6017h6.2937v-36.4917L355.5117,98.149c14.6017-3.0643,29.5697-4.6178,44.488-4.6178
	c14.9178,0,29.8858,1.5535,44.4881,4.6178l163.102,34.2301v36.4917h6.2937v-41.6017l-168.103-35.2796
	C430.7552,88.8365,415.3528,87.2375,399.9998,87.2375z M594.6385,305.6243c-7.8986-1.8252-15.9127-3.535-24.0524-5.1294V185.2785
	h-19.909V320.299c6.7343,1.1852,13.3636,2.4336,19.909,3.7657c8.1713,1.6574,16.1957,3.4301,24.0524,5.3182
	c6.7551,1.6154,13.395,3.3147,19.909,5.0979V185.2785h-19.909V305.6243z M388.0487,536.0186
	c22.6698-24.0475,38.5762-40.5802,45.1517-59.743s4.8434-59.277-29.8432-76.7346c0,0,17.8722,27.7904,12.3712,54.3152
	c-4.679,22.5613-18.7871,37.4401-28.0554,48.1532c-9.2683,10.713-38.0752,43.0269-37.8247,71.0823
	c0.2505,28.0554,16.7831,40.5801,21.1668,43.8366c0,0-9.2682-16.0317-8.6421-30.3099
	C362.9993,572.3402,365.3789,560.066,388.0487,536.0186z M642.7295,95.457v434.2442c0,21.7114-10.1096,42.1849-27.3481,55.3842
	L399.9999,750L184.6186,585.0854c-17.2385-13.1993-27.3481-33.6727-27.3481-55.3842V95.457l191.0238-40.0898
	c34.099-7.1564,69.3123-7.1564,103.4114,0L642.7295,95.457z M631.1911,104.8253l-181.855-38.1657
	c-16.1921-3.3983-32.7919-5.1213-49.3364-5.1213c-16.5444,0-33.1437,1.723-49.3358,5.1213l-181.855,38.1657v424.8756
	c0,18.0011,8.5324,35.2802,22.8248,46.2233l208.366,159.5435l208.3666-159.5444c14.2919-10.9423,22.8248-28.2212,22.8248-46.2224
	V104.8253z M515.4011,314.9494V207.6161h21.5569v-22.3376h-21.5569h-19.9195h-21.0861v22.3376h21.0861v104.9941
	C502.1948,313.3235,508.8346,314.0997,515.4011,314.9494z M367.3848,127.3548c5.0078,0,9.999,0,15.0428,0
	c0,9.0089,0,18.0206,0,27.1075c-5.0251,0-9.9973,0-15.0428,0C367.3848,145.4257,367.3848,136.4161,367.3848,127.3548z
	 M371.0973,150.6642c2.557,0,5.0572,0,7.5713,0c0-6.549,0-13.0453,0-19.5846c-2.5419,0-5.0403,0-7.5713,0
	C371.0973,137.6387,371.0973,144.1531,371.0973,150.6642z M363.1054,141.9454c0-4.9038,0-9.7387,0-14.608
	c-5.0507,0-10.0443,0-15.0854,0c0,1.2206,0,2.4114,0,3.7067c3.7986,0,7.5497,0,11.3149,0c0,2.4299,0,4.7552,0,7.1448
	c-3.7772,0-7.5134,0-11.3105,0c0,5.4529,0,10.8415,0,16.2654c5.0318,0,10.025,0,15.0695,0c0-1.2769,0-2.4703,0-3.7401
	c-3.8074,0-7.5648,0-11.3482,0c0-2.952,0-5.8262,0-8.7688C355.55,141.9454,359.3088,141.9454,363.1054,141.9454z M452.6661,141.9893
	c-3.783,0-7.5199,0-11.3493,0c0-3.6898-0.0369-13.0833-0.0369-14.6255c5.0441,0,10.0526,0,15.1001,0c0,9.0142,0,18.0069,0,27.0966
	c-0.5815,0.0081-2.9666,0.0244-3.6678,0.0244C452.7122,149.2714,452.6661,145.8666,452.6661,141.9893z M452.6333,131.1317
	c-2.1465,0-5.8218,0.0307-7.5465,0.0307c0,2.3154,0,4.6356,0,6.9927c2.5261,0,5.0017,0,7.5465,0
	C452.6333,135.7648,452.6333,133.4431,452.6333,131.1317z M423.8188,150.8521c0,1.2854,0,2.4805,0,3.6671
	c1.6436,0,12.9399-0.0294,15.0453-0.0294c0-1.1993,0-2.3948,0-3.6575c-1.7195,0-3.3927,0-5.163,0c0-7.8408,0-15.6137,0-23.4247
	c-3.3314,0-6.5644,0-9.8758,0c0,1.2592,0,2.4526,0,3.7172c1.0471,0,5.0822,0.0116,6.1017,0.0174c0,6.6167,0,13.1184,0,19.7099
	C427.8723,150.8521,425.8524,150.8521,423.8188,150.8521z M421.07,140.0975c0,9.4327-7.6467,17.0793-17.0793,17.0793
	c-9.4326,0-17.0793-7.6467-17.0793-17.0793s7.6467-17.0793,17.0793-17.0793C413.4233,123.0182,421.07,130.6649,421.07,140.0975z
	 M416.3722,135.9666l0.0961-4.3947c-1.8785-2.7407-4.6351-4.8336-7.8613-5.8705l-4.412,1.541c-0.158,0.0552-0.33,0.0552-0.4879,0
	l-4.3738-1.5276c-3.2604,1.0583-6.0386,3.1959-7.9106,5.9901l0.0982,4.4869c0.0037,0.1673-0.0495,0.3309-0.1508,0.4641
	l-2.4952,3.2809c-0.0005,0.0536-0.002,0.107-0.002,0.1608c0,3.5134,1.2048,6.7507,3.2229,9.3206l3.9388,1.1852
	c0.1603,0.0482,0.2994,0.1493,0.3948,0.2868l2.3607,3.4034c1.6223,0.5962,3.3741,0.9219,5.2006,0.9219
	c1.8301,0,3.5851-0.3271,5.2101-0.9255l2.1536-3.1048c0.0954-0.1375,0.2345-0.2386,0.3948-0.2868l3.8851-1.1691
	c2.1689-2.6173,3.4742-5.9749,3.4742-9.6317c0-0.0909-0.0018-0.1812-0.0035-0.2717l-2.582-3.3952
	C416.4217,136.2975,416.3685,136.1339,416.3722,135.9666z M399.5524,139.4349l1.4303,4.4019
	c0.0977,0.3005,0.3777,0.504,0.6937,0.504h4.6285c0.316,0,0.5961-0.2035,0.6937-0.504l1.4302-4.4019
	c0.0977-0.3005-0.0093-0.6298-0.265-0.8156l-3.7445-2.7205c-0.2557-0.1858-0.6019-0.1858-0.8575,0l-3.7445,2.7205
	C399.5618,138.8051,399.4548,139.1343,399.5524,139.4349z M408.022,148.1561c-0.102-0.153-0.2737-0.2449-0.4576-0.2449h-3.5737
	h-3.5737c-0.1839,0-0.3557,0.0919-0.4576,0.2449l-0.7933,1.1899c-0.1197,0.1795-0.1234,0.4124-0.0095,0.5956l2.3179,3.7275
	c0.1004,0.1614,0.277,0.2596,0.4671,0.2596h2.049h2.0491c0.1901,0,0.3667-0.0981,0.4671-0.2596l2.3179-3.7275
	c0.1139-0.1832,0.1102-0.4161-0.0095-0.5956L408.022,148.1561z M414.0515,138.5553l-1.3768,0.3867
	c-0.1771,0.0497-0.3176,0.1846-0.3744,0.3596l-1.1043,3.3988l-1.1044,3.3988c-0.0568,0.1749-0.0225,0.3666,0.0916,0.5109
	l0.8865,1.1221c0.1337,0.1693,0.3541,0.2448,0.5635,0.1931l4.2614-1.0527c0.1845-0.0455,0.3325-0.1832,0.3912-0.364l0.6332-1.9488
	l0.6332-1.9488c0.0587-0.1808,0.02-0.3791-0.1025-0.5244l-2.8288-3.3563C414.4818,138.5654,414.2592,138.4969,414.0515,138.5553z
	 M411.9285,136.4246l1.3412-0.4964c0.2023-0.0749,0.3422-0.2611,0.3577-0.4763l0.3157-4.3781
	c0.0137-0.1896-0.0715-0.3728-0.2253-0.4845l-1.6577-1.2044l-1.6577-1.2044c-0.1538-0.1118-0.3544-0.1362-0.5305-0.0646
	l-4.0662,1.6531c-0.1998,0.0812-0.3337,0.2719-0.3424,0.4874l-0.0576,1.4289c-0.0074,0.1838,0.0775,0.3591,0.2263,0.4672
	l2.8912,2.1006l2.8912,2.1006C411.563,136.4619,411.756,136.4884,411.9285,136.4246z M402.3018,132.1796
	c0.1488-0.1081,0.2337-0.2834,0.2263-0.4672l-0.0576-1.4289c-0.0087-0.2156-0.1426-0.4061-0.3424-0.4874l-4.0662-1.6531
	c-0.1761-0.0716-0.3766-0.0472-0.5304,0.0645l-1.6578,1.2045l-1.6577,1.2044c-0.1537,0.1117-0.239,0.2949-0.2253,0.4845
	l0.3157,4.3781c0.0155,0.2151,0.1553,0.4014,0.3577,0.4763l1.3412,0.4963c0.1724,0.0638,0.3654,0.0373,0.5142-0.0708l2.8912-2.1006
	L402.3018,132.1796z M396.7708,142.6328l-1.1044-3.3988c-0.0568-0.1749-0.1973-0.3099-0.3743-0.3596l-1.3768-0.3868
	c-0.2076-0.0583-0.4302,0.0101-0.5693,0.175l-2.8288,3.3564c-0.1225,0.1453-0.1613,0.3436-0.1025,0.5244l0.6332,1.9487
	l0.6332,1.9488c0.0588,0.1808,0.2067,0.3184,0.3912,0.364l4.2614,1.0526c0.2094,0.0518,0.4297-0.0237,0.5635-0.193l0.8865-1.1221
	c0.114-0.1443,0.1483-0.3361,0.0915-0.5109L396.7708,142.6328z"/>
</svg>
