<?xml version="1.0" encoding="UTF-8"?>
<svg id="_图层_1" data-name="图层_1" xmlns="http://www.w3.org/2000/svg" version="1.1" viewBox="0 0 800 800">
  <!-- Created by @FCLOGO 2024-11-29 GMT+8 10:38:02 . https://fclogo.top/ -->
<!-- FOR PERSONAL USE ONLY NOT FOR COMMERCIAL USE -->
  <defs>
    <style>
      .st0 {
        fill: #ccc;
      }

      .st1 {
        fill: #011b4a;
      }
    </style>
  </defs>
  <path class="st0" d="M348.22,774.3c-.79,0-1.38-.22-1.77-.65-.39-.44-.53-1.03-.41-1.79l.25-1.65c.12-.75.45-1.35.98-1.78.53-.44,1.19-.65,1.98-.65s1.33.2,1.72.6c.39.4.55.94.47,1.62h-1.24c.03-.36-.06-.64-.26-.84-.2-.2-.5-.3-.89-.3-.42,0-.76.12-1.03.35-.27.23-.43.56-.5.99l-.26,1.66c-.07.44,0,.77.19,1,.19.23.5.35.92.35.39,0,.72-.1.98-.3.26-.2.44-.48.52-.85h1.24c-.14.69-.47,1.23-.99,1.63-.52.4-1.16.6-1.92.6ZM352.8,774.19l1-6.29h1.19l-.19,1.19c.34-.87.97-1.3,1.91-1.3.67,0,1.17.21,1.49.62.32.42.43.99.31,1.71l-.07.42h-1.27l.06-.32c.07-.45.01-.8-.17-1.04-.18-.24-.48-.36-.88-.36s-.74.12-1.01.37c-.27.24-.43.59-.5,1.03l-.63,3.97h-1.24ZM361.91,774.3c-.77,0-1.35-.22-1.73-.67s-.52-1.04-.4-1.77l.25-1.65c.08-.49.26-.92.52-1.28s.6-.65,1.01-.85c.41-.2.87-.3,1.38-.3.77,0,1.35.22,1.73.67.39.45.52,1.04.39,1.77l-.17,1.12h-3.85l-.09.53c-.15.95.22,1.43,1.11,1.43.72,0,1.17-.25,1.37-.74h1.22c-.17.53-.5.96-1.01,1.28-.5.32-1.09.47-1.76.47ZM361.23,770.22l-.05.29h2.65s.05-.3.05-.3c.07-.47.01-.82-.17-1.07-.18-.25-.49-.37-.92-.37s-.8.13-1.06.38c-.26.25-.43.61-.51,1.08ZM368.33,774.3c-.63,0-1.1-.21-1.41-.64s-.4-1-.27-1.73l.27-1.77c.11-.73.39-1.31.84-1.74.44-.43.98-.64,1.61-.64.47,0,.83.12,1.09.35.26.24.39.56.38.96h.02l.17-1.2h1.24l-1,6.29h-1.22l.19-1.2h-.02c-.12.41-.35.73-.69.97s-.74.35-1.21.35ZM368.93,773.23c.39,0,.72-.12.98-.36.26-.24.43-.57.5-1.01l.25-1.65c.07-.43,0-.76-.18-1-.19-.24-.47-.36-.86-.36s-.72.12-.98.35c-.26.24-.42.57-.49,1.01l-.25,1.65c-.07.44-.01.78.17,1.01.18.23.47.35.88.35ZM376.35,774.19c-.57,0-.99-.16-1.26-.47-.27-.31-.36-.75-.27-1.32l.54-3.39h-1.74l.17-1.12h1.74l.27-1.72h1.24l-.27,1.72h2.47l-.18,1.12h-2.46l-.54,3.39c-.08.44.1.66.53.66h1.72l-.17,1.12h-1.77ZM382.5,774.3c-.77,0-1.35-.22-1.73-.67s-.52-1.04-.4-1.77l.25-1.65c.08-.49.26-.92.52-1.28s.6-.65,1.01-.85c.41-.2.87-.3,1.38-.3.77,0,1.35.22,1.73.67.39.45.52,1.04.39,1.77l-.17,1.12h-3.85l-.09.53c-.15.95.22,1.43,1.11,1.43.72,0,1.17-.25,1.37-.74h1.22c-.17.53-.5.96-1.01,1.28-.5.32-1.09.47-1.76.47ZM381.83,770.22l-.05.29h2.65s.05-.3.05-.3c.07-.47.01-.82-.17-1.07-.18-.25-.49-.37-.92-.37s-.8.13-1.06.38c-.26.25-.43.61-.51,1.08ZM388.92,774.3c-.63,0-1.1-.21-1.4-.64-.3-.42-.39-1-.28-1.73l.27-1.77c.11-.73.39-1.31.84-1.74.44-.43.98-.64,1.61-.64.47,0,.83.12,1.09.35.26.24.39.56.38.96h.02l.21-1.47.3-1.8h1.24l-1.33,8.35h-1.22l.19-1.2h-.02c-.12.41-.35.73-.69.97s-.74.35-1.21.35ZM389.53,773.23c.39,0,.72-.12.98-.36.26-.24.43-.57.5-1.01l.25-1.65c.08-.43.02-.76-.17-1-.19-.24-.48-.36-.87-.36s-.72.12-.98.35c-.26.24-.42.57-.49,1.01l-.25,1.65c-.08.44-.02.78.16,1.01s.48.35.88.35ZM401.02,774.3c-.47,0-.84-.12-1.1-.35-.26-.23-.39-.56-.38-.97h-.01l-.19,1.2h-1.22l1.33-8.35h1.24l-.29,1.8-.27,1.47h.05c.12-.41.35-.73.69-.97.34-.23.74-.35,1.21-.35.63,0,1.1.21,1.4.64.3.43.39,1.01.28,1.74l-.27,1.77c-.11.73-.39,1.31-.84,1.73-.45.42-.98.64-1.61.64ZM400.77,773.23c.4,0,.72-.12.98-.35.26-.23.42-.57.5-1.01l.25-1.65c.07-.43.01-.77-.17-1.01-.18-.24-.47-.35-.87-.35s-.72.12-.98.36-.43.57-.5,1l-.25,1.65c-.07.44-.01.77.17,1.01.18.24.47.36.87.36ZM405.47,776.25l.17-1.06h1.93c.64,0,1.01-.3,1.1-.9l.1-.67.21-1.19h-.03c-.12.42-.35.74-.68.97-.33.23-.73.34-1.2.34-.63,0-1.09-.2-1.4-.6s-.41-.94-.3-1.63l.58-3.6h1.24l-.56,3.48c-.06.41,0,.73.18.96s.47.34.85.34.72-.12.98-.37c.27-.24.43-.58.49-1.02l.54-3.4h1.24l-1.01,6.41c-.1.6-.37,1.08-.81,1.42-.44.35-1,.52-1.67.52h-1.95ZM417.79,770.09h3.22l.54-1.85h-5.47l-1.71,6.44h2.15l.59-2.1h3.03l.44-1.71h-3.03l.24-.78ZM424.23,772.92c-.59,0-1.02-.39-1.02-1.12,0-.88.63-1.76,1.61-1.76.49,0,.88.24,1.02.78l1.95-.83c-.29-1.17-1.27-1.9-2.64-1.9-2.78,0-4.15,2.15-4.15,3.9s1.27,2.83,3.07,2.83c1.37,0,2.34-.59,2.98-1.42l-1.51-1.17c-.39.44-.83.68-1.32.68ZM430.91,768.23h-2.15l-1.76,6.44h5.12l.49-1.85h-2.93l1.22-4.59ZM439.75,771.01c0-1.66-1.32-2.93-3.22-2.93-2.2,0-3.81,1.81-3.81,3.81,0,1.66,1.32,2.93,3.22,2.93,2.2,0,3.81-1.81,3.81-3.81ZM434.92,771.7c0-.83.59-1.71,1.51-1.71.78,0,1.17.54,1.17,1.22,0,.83-.59,1.71-1.51,1.71-.78,0-1.17-.54-1.17-1.22ZM443.21,772.23h1.07l-.2.68c-.15.05-.34.1-.59.1-.68,0-1.27-.39-1.27-1.22,0-1.02.73-1.9,1.95-1.9.59,0,1.12.24,1.51.59l1.37-1.37c-.44-.54-1.51-1.07-2.73-1.07-2.59,0-4.29,1.76-4.29,3.86s1.61,2.88,3.22,2.88c.93,0,1.85-.29,2.49-.68l.93-3.32h-3.12l-.34,1.46ZM450.78,768.08c-2.2,0-3.81,1.81-3.81,3.81,0,1.66,1.32,2.93,3.22,2.93,2.2,0,3.81-1.81,3.81-3.81,0-1.66-1.32-2.93-3.22-2.93ZM450.34,772.92c-.78,0-1.17-.54-1.17-1.22,0-.83.59-1.71,1.51-1.71.78,0,1.17.54,1.17,1.22,0,.83-.59,1.71-1.51,1.71ZM437.94,767.5c-.05.29.1.49.44.49s.54-.2.63-.49c.05-.24-.1-.49-.44-.49s-.59.24-.63.49ZM432.13,765.5c-.44,0-.73.24-.78.59s.1.59.54.59.73-.24.78-.59c.1-.34-.1-.59-.54-.59ZM433.01,767.3c-.1.54.15.88.83.88.63,0,1.07-.39,1.17-.88s-.15-.88-.83-.88c-.68,0-1.07.39-1.17.88ZM439.6,777.55l-2.44-1.81h-1.51l4.25,3.17,1.61-3.17h-.98l-.93,1.81ZM425.84,767.16l-2-1.46,23.13-2.78-2.15,4.25h1.02l2.68-5.32-26.99,3.22,2.78,2.1h1.51ZM338.72,785.79l.61-3.83h2.32l-.08.52h-1.76l-.18,1.14h1.63l-.08.52h-1.62l-.26,1.64h-.57ZM342.97,785.84c-.36,0-.62-.1-.8-.3-.17-.2-.23-.47-.18-.82l.27-1.7c.06-.34.2-.61.44-.82.24-.2.54-.3.89-.3s.62.1.8.3c.17.2.24.47.18.81l-.27,1.71c-.06.34-.2.62-.44.82-.24.2-.54.3-.9.3ZM343.05,785.33c.19,0,.35-.05.47-.16.12-.11.19-.26.23-.46l.27-1.7c.03-.2,0-.35-.08-.46-.08-.11-.22-.16-.41-.16s-.35.05-.46.16c-.12.1-.19.26-.22.46l-.27,1.7c-.03.2,0,.35.08.46s.22.16.41.16ZM345,785.79l.61-3.83h1.2c.24,0,.44.05.6.14.16.09.28.22.36.39s.09.37.05.59c-.04.26-.14.48-.3.67-.16.19-.37.32-.6.39l.54,1.64h-.62l-.48-1.57h-.54l-.25,1.57h-.57ZM345.89,783.71h.64c.19,0,.35-.06.48-.17.13-.11.21-.26.24-.45.03-.19,0-.35-.09-.46-.09-.11-.24-.17-.43-.17h-.64l-.2,1.25ZM349.54,785.79l.61-3.83h1.25c.37,0,.65.1.84.31.19.21.26.49.2.84-.04.23-.12.44-.25.61s-.29.31-.49.4c-.2.09-.42.14-.66.14h-.69l-.24,1.52h-.57ZM350.43,783.75h.69c.19,0,.36-.06.49-.18.14-.12.22-.27.25-.47s0-.35-.1-.47-.25-.18-.44-.18h-.69l-.21,1.29ZM352.75,785.79l.61-3.83h2.25l-.08.5h-1.7l-.17,1.09h1.51l-.08.5h-1.51l-.19,1.24h1.69l-.08.5h-2.25ZM355.84,785.79l.61-3.83h1.2c.24,0,.44.05.6.14.16.09.28.22.36.39s.09.37.05.59c-.04.26-.14.48-.3.67-.16.19-.37.32-.6.39l.54,1.64h-.62l-.48-1.57h-.54l-.25,1.57h-.57ZM356.74,783.71h.64c.19,0,.35-.06.48-.17.13-.11.21-.26.24-.45.03-.19,0-.35-.09-.46-.09-.11-.24-.17-.43-.17h-.64l-.2,1.25ZM360.13,785.84c-.39,0-.67-.1-.87-.29-.19-.19-.26-.45-.22-.78h.57c-.03.17.01.31.12.41.11.1.27.15.48.15.2,0,.37-.05.5-.15.13-.1.21-.23.24-.4.02-.15,0-.28-.06-.39-.06-.11-.16-.18-.29-.22l-.46-.14c-.27-.08-.46-.22-.59-.41-.13-.19-.17-.42-.13-.68.04-.21.11-.39.23-.55s.27-.28.46-.37.4-.13.64-.13c.35,0,.62.1.8.29.18.19.25.44.2.76h-.57c.03-.17,0-.3-.09-.4-.09-.1-.23-.14-.42-.14s-.34.04-.46.13c-.12.09-.19.21-.21.38-.02.15,0,.28.05.39s.16.18.29.22l.47.15c.26.08.46.22.58.41.12.19.17.42.12.69-.04.22-.12.41-.24.57-.13.16-.29.29-.49.38-.2.09-.42.13-.66.13ZM363.27,785.84c-.36,0-.62-.1-.8-.3-.17-.2-.23-.47-.18-.82l.27-1.7c.06-.34.2-.61.44-.82.24-.2.54-.3.89-.3s.62.1.8.3c.17.2.24.47.18.81l-.27,1.71c-.06.34-.2.62-.44.82-.24.2-.54.3-.9.3ZM363.34,785.33c.19,0,.35-.05.47-.16.12-.11.19-.26.23-.46l.27-1.7c.03-.2,0-.35-.08-.46-.08-.11-.22-.16-.41-.16s-.35.05-.46.16c-.12.1-.19.26-.22.46l-.27,1.7c-.03.2,0,.35.08.46s.22.16.41.16ZM365.28,785.79l.61-3.83h.71l.62,3.19c0-.1.02-.22.03-.36.01-.14.03-.29.04-.44.02-.15.04-.29.06-.41l.31-1.98h.52l-.61,3.83h-.71l-.61-3.19c0,.09-.02.21-.03.34s-.03.28-.04.42c-.02.15-.04.28-.06.41l-.31,2.01h-.53ZM368.23,785.79l1.59-3.83h.75l.37,3.83h-.56l-.07-.97h-1.09l-.39.97h-.59ZM369.39,784.34h.87l-.09-1.1c-.02-.2-.03-.37-.04-.51,0-.14-.01-.24-.01-.3-.02.06-.05.16-.1.3s-.11.31-.19.5l-.44,1.11ZM371.72,785.79l.61-3.83h.57l-.52,3.31h1.67l-.08.52h-2.25ZM376.68,785.84c-.37,0-.63-.1-.8-.3-.17-.2-.22-.47-.17-.82l.44-2.76h.57l-.44,2.76c-.03.2,0,.35.07.46.08.11.21.17.41.17s.35-.06.46-.17c.12-.11.19-.27.22-.46l.44-2.76h.57l-.44,2.76c-.06.35-.2.62-.43.82-.23.2-.53.3-.9.3ZM379.84,785.84c-.39,0-.67-.1-.87-.29-.19-.19-.26-.45-.22-.78h.57c-.03.17.01.31.12.41.11.1.27.15.48.15.2,0,.37-.05.5-.15.13-.1.21-.23.24-.4.02-.15,0-.28-.06-.39-.06-.11-.16-.18-.29-.22l-.46-.14c-.27-.08-.46-.22-.59-.41-.13-.19-.17-.42-.13-.68.04-.21.11-.39.23-.55s.27-.28.46-.37.4-.13.64-.13c.35,0,.62.1.8.29.18.19.25.44.2.76h-.57c.03-.17,0-.3-.09-.4-.09-.1-.23-.14-.42-.14s-.34.04-.46.13c-.12.09-.19.21-.21.38-.02.15,0,.28.05.39s.16.18.29.22l.47.15c.26.08.46.22.58.41.12.19.17.42.12.69-.04.22-.12.41-.24.57-.13.16-.29.29-.49.38-.2.09-.42.13-.66.13ZM381.91,785.79l.61-3.83h2.25l-.08.5h-1.7l-.17,1.09h1.51l-.08.5h-1.51l-.19,1.24h1.69l-.08.5h-2.25ZM386.94,785.84c-.36,0-.62-.1-.8-.3-.17-.2-.23-.47-.18-.82l.27-1.7c.06-.34.2-.61.44-.82.24-.2.54-.3.89-.3s.62.1.8.3c.17.2.24.47.18.81l-.27,1.71c-.06.34-.2.62-.44.82-.24.2-.54.3-.9.3ZM387.02,785.33c.19,0,.35-.05.47-.16.12-.11.19-.26.23-.46l.27-1.7c.03-.2,0-.35-.08-.46-.08-.11-.22-.16-.41-.16s-.35.05-.46.16c-.12.1-.19.26-.22.46l-.27,1.7c-.03.2,0,.35.08.46s.22.16.41.16ZM388.95,785.79l.61-3.83h.71l.62,3.19c0-.1.02-.22.03-.36.01-.14.03-.29.04-.44.02-.15.04-.29.06-.41l.31-1.98h.52l-.61,3.83h-.71l-.61-3.19c0,.09-.02.21-.03.34s-.03.28-.04.42c-.02.15-.04.28-.06.41l-.31,2.01h-.53ZM392.25,785.79l.61-3.83h.57l-.52,3.31h1.67l-.08.52h-2.25ZM396.12,785.79l.22-1.41-.75-2.42h.58l.45,1.45c.03.09.05.18.07.27.02.08.03.15.03.19.02-.04.05-.1.09-.19.04-.08.09-.17.14-.27l.9-1.45h.6l-1.53,2.42-.22,1.41h-.57ZM399.22,785.79l.61-3.83h.71l.62,3.19c0-.1.02-.22.03-.36.01-.14.03-.29.04-.44.02-.15.04-.29.06-.41l.31-1.98h.52l-.61,3.83h-.71l-.61-3.19c0,.09-.02.21-.03.34s-.03.28-.04.42c-.02.15-.04.28-.06.41l-.31,2.01h-.53ZM403.51,785.84c-.36,0-.62-.1-.8-.3-.18-.2-.23-.47-.18-.82l.27-1.7c.06-.34.2-.61.44-.82.24-.2.54-.3.89-.3s.62.1.8.3c.17.2.24.47.18.81l-.27,1.71c-.06.34-.2.62-.44.82-.24.2-.54.3-.89.3ZM403.58,785.33c.19,0,.35-.05.47-.16.12-.11.19-.26.23-.46l.27-1.7c.03-.2,0-.35-.08-.46-.08-.11-.22-.16-.41-.16s-.35.05-.46.16c-.12.1-.19.26-.22.46l-.27,1.7c-.03.2,0,.35.08.46.08.11.22.16.41.16ZM406.38,785.79l.52-3.31h-1.02l.08-.52h2.62l-.08.52h-1.03l-.52,3.31h-.57ZM409.52,785.79l.61-3.83h2.32l-.08.52h-1.76l-.18,1.14h1.63l-.08.52h-1.62l-.26,1.64h-.57ZM413.77,785.84c-.36,0-.62-.1-.8-.3-.18-.2-.23-.47-.18-.82l.27-1.7c.06-.34.2-.61.44-.82.24-.2.54-.3.89-.3s.62.1.8.3c.17.2.24.47.18.81l-.27,1.71c-.06.34-.2.62-.44.82-.24.2-.54.3-.89.3ZM413.85,785.33c.19,0,.35-.05.47-.16.12-.11.19-.26.23-.46l.27-1.7c.03-.2,0-.35-.08-.46-.08-.11-.22-.16-.41-.16s-.35.05-.46.16c-.12.1-.19.26-.22.46l-.27,1.7c-.03.2,0,.35.08.46.08.11.22.16.41.16ZM415.8,785.79l.61-3.83h1.2c.24,0,.44.05.6.14.16.09.28.22.36.39s.09.37.05.59c-.04.26-.14.48-.3.67-.16.19-.37.32-.6.39l.54,1.64h-.62l-.48-1.57h-.54l-.25,1.57h-.57ZM416.69,783.71h.64c.19,0,.35-.06.48-.17.13-.11.21-.26.24-.45.03-.19,0-.35-.09-.46-.09-.11-.24-.17-.43-.17h-.64l-.2,1.25ZM420.91,785.84c-.36,0-.63-.1-.81-.3-.18-.2-.24-.47-.19-.82l.27-1.7c.06-.35.21-.62.45-.82s.55-.3.91-.3.63.1.81.3c.18.2.24.47.19.82h-.57c.03-.2,0-.35-.09-.46-.09-.11-.23-.16-.42-.16s-.35.05-.47.16c-.12.1-.2.26-.23.45l-.27,1.71c-.03.2,0,.35.09.46.09.11.23.16.42.16s.35-.05.47-.16.2-.26.23-.46h.57c-.03.23-.11.43-.24.59s-.28.3-.47.39c-.19.09-.4.14-.64.14ZM424.03,785.84c-.36,0-.62-.1-.8-.3-.18-.2-.23-.47-.18-.82l.27-1.7c.06-.34.2-.61.44-.82.24-.2.54-.3.89-.3s.62.1.8.3c.17.2.24.47.18.81l-.27,1.71c-.06.34-.2.62-.44.82-.24.2-.54.3-.89.3ZM424.11,785.33c.19,0,.35-.05.47-.16.12-.11.19-.26.23-.46l.27-1.7c.03-.2,0-.35-.08-.46-.08-.11-.22-.16-.41-.16s-.35.05-.46.16c-.12.1-.19.26-.22.46l-.27,1.7c-.03.2,0,.35.08.46.08.11.22.16.41.16ZM425.97,785.79l.61-3.83h.69l.18,1.23c.02.12.04.23.05.33.01.1.02.18.03.24.02-.06.05-.14.09-.24.04-.11.09-.22.15-.34l.57-1.22h.71l-.61,3.83h-.54l.2-1.29c.02-.17.06-.35.1-.55.04-.2.09-.4.14-.61s.1-.4.14-.59c.05-.19.09-.35.13-.49l-.86,1.86h-.55l-.28-1.86c0,.14-.01.29-.02.47s-.02.37-.04.57c-.02.2-.04.41-.06.61-.02.2-.05.4-.08.57l-.2,1.29h-.54ZM429.11,785.79l.61-3.83h.69l.18,1.23c.02.12.04.23.05.33.01.1.02.18.03.24.02-.06.05-.14.09-.24.04-.11.09-.22.15-.34l.57-1.22h.71l-.61,3.83h-.54l.2-1.29c.02-.17.06-.35.1-.55.04-.2.09-.4.14-.61s.1-.4.14-.59c.05-.19.09-.35.13-.49l-.86,1.86h-.55l-.28-1.86c0,.14-.01.29-.02.47s-.02.37-.04.57c-.02.2-.04.41-.06.61-.02.2-.05.4-.08.57l-.2,1.29h-.54ZM432.41,785.79l.61-3.83h2.25l-.08.5h-1.7l-.17,1.09h1.51l-.08.5h-1.51l-.19,1.24h1.69l-.08.5h-2.25ZM435.51,785.79l.61-3.83h1.2c.24,0,.44.05.6.14.16.09.28.22.36.39s.09.37.05.59c-.04.26-.14.48-.3.67-.16.19-.37.32-.6.39l.54,1.64h-.62l-.48-1.57h-.54l-.25,1.57h-.57ZM436.4,783.71h.64c.19,0,.35-.06.48-.17.13-.11.21-.26.24-.45.03-.19,0-.35-.09-.46-.09-.11-.24-.17-.43-.17h-.64l-.2,1.25ZM439.8,785.84c-.36,0-.63-.1-.81-.3-.18-.2-.24-.47-.19-.82l.27-1.7c.06-.35.21-.62.45-.82s.55-.3.91-.3.63.1.81.3c.18.2.24.47.19.82h-.57c.03-.2,0-.35-.09-.46-.09-.11-.23-.16-.42-.16s-.35.05-.47.16c-.12.1-.2.26-.23.45l-.27,1.71c-.03.2,0,.35.09.46.09.11.23.16.42.16s.35-.05.47-.16.2-.26.23-.46h.57c-.03.23-.11.43-.24.59s-.28.3-.47.39c-.19.09-.4.14-.64.14ZM441.88,785.79l.08-.5h.78l.45-2.82h-.78l.08-.5h2.13l-.08.5h-.78l-.45,2.82h.78l-.08.5h-2.13ZM444.74,785.79l1.59-3.83h.75l.37,3.83h-.56l-.07-.97h-1.09l-.39.97h-.59ZM445.9,784.34h.87l-.09-1.1c-.02-.2-.03-.37-.04-.51,0-.14-.01-.24-.01-.3-.02.06-.05.16-.1.3s-.11.31-.19.5l-.44,1.11ZM448.24,785.79l.61-3.83h.57l-.52,3.31h1.67l-.08.52h-2.25ZM453.19,785.84c-.37,0-.63-.1-.8-.3-.17-.2-.22-.47-.17-.82l.44-2.76h.57l-.44,2.76c-.03.2,0,.35.07.46.08.11.21.17.41.17s.35-.06.46-.17c.12-.11.19-.27.22-.46l.44-2.76h.57l-.44,2.76c-.06.35-.2.62-.43.82-.23.2-.53.3-.9.3ZM456.36,785.84c-.39,0-.67-.1-.87-.29-.19-.19-.26-.45-.22-.78h.57c-.03.17.01.31.12.41.11.1.27.15.48.15.2,0,.37-.05.5-.15s.21-.23.24-.4c.02-.15,0-.28-.06-.39s-.16-.18-.29-.22l-.46-.14c-.27-.08-.46-.22-.59-.41-.13-.19-.17-.42-.13-.68.04-.21.11-.39.23-.55s.27-.28.46-.37c.19-.09.4-.13.64-.13.35,0,.62.1.8.29.18.19.25.44.2.76h-.57c.03-.17,0-.3-.09-.4-.09-.1-.23-.14-.42-.14s-.34.04-.46.13c-.12.09-.19.21-.21.38-.02.15,0,.28.05.39s.16.18.29.22l.47.15c.26.08.46.22.58.41.12.19.17.42.12.69-.04.22-.12.41-.24.57-.13.16-.29.29-.49.38-.2.09-.42.13-.66.13ZM458.42,785.79l.61-3.83h2.25l-.08.5h-1.7l-.17,1.09h1.51l-.08.5h-1.51l-.19,1.24h1.69l-.08.5h-2.25Z"/>
  <path class="st1" d="M463.28,182.13c-38.79-4.22-127.75-1.69-127.75-1.69,0,0,17.71-42.16,63.87-42.16s63.87,43.85,63.87,43.85ZM512.25,223.57l-13.56-1.23c-1.6-.15-2.93.98-3.07,2.5l-.13,1.43,19.2,1.74.13-1.43c.14-1.52-1.01-2.88-2.57-3.02ZM414.93,225.13v-6.2c0-1.54-1.25-2.79-2.79-2.79h-23.12c-1.54,0-2.79,1.25-2.79,2.79v6.2c0,1.54,1.25,2.79,2.79,2.79h23.12c1.54,0,2.79-1.25,2.79-2.79ZM494.14,241.17l19.2,1.74.39-4.28-19.2-1.74-.39,4.28ZM494.82,233.65l19.2,1.74.38-4.14-19.2-1.74-.38,4.14ZM579.49,259.2c-1.07-.13-2.05.54-2.17,1.54l-.99,8.17c-.12,1,.66,1.89,1.74,2.02l13,1.58c1.07.13,2-.54,2.12-1.55l.99-8.17c.12-1.01-.61-1.88-1.69-2.01l-13-1.58ZM305.49,257.87l14.88-1.35c1.08-.1,1.83-1,1.74-2l-.64-7c-.09-.96-.99-1.66-2.07-1.56l-14.88,1.35c-1.08.1-1.89.96-1.8,1.92l.64,7c.09,1.01,1.05,1.75,2.12,1.65ZM493.46,248.6l19.2,1.74.38-4.19-19.2-1.74-.38,4.19ZM458.57,608.25c.64,1.35,1.17,2.81,1.6,4.4.94,3.46,1.84,6.74,2.6,9.52,27.38-12.12,50.56-32.04,66.72-56.92-17.5,7.31-42.11,23.21-57.34,33.54-7.28,4.95-12.41,8.62-13.58,9.46ZM750,320v188.88l-114.47,40.26,8.43-48.49s26.56,6.75,31.2,8.85l-11.38,14.33,34.15-16.86s-29.51-19.39-76.31-28.25c0,0-1.26,79.26-40.9,129.86-39.63,50.59-93.3,93.6-180.72,93.6s-141.09-43-180.72-93.6c-39.63-50.59-40.9-129.86-40.9-129.86-46.8,8.85-76.31,28.25-76.31,28.25l34.15,16.86-11.38-14.33c4.64-2.11,31.2-8.85,31.2-8.85l8.43,48.49-114.47-40.26v-188.88c26.98-14.33,122.16-38.16,122.16-38.16l1.48-75.26c6.1-3.05,12.71-6.04,19.6-8.95,1.73-32.31-17.81-61.46-17.81-61.46,35.83,15.07,47.49,36.37,51.29,48.65,7.66-2.69,15.25-5.22,22.55-7.56-3.67-28.61-15.65-51.83-15.65-51.83,30.54,16.97,41.01,35.41,44.23,43.1,6.61-1.92,12.39-3.54,16.99-4.8,7.02-1.92,13.06-6.46,16.7-12.76,14.94-25.89,42.08-53.15,88.47-53.15s73.53,27.27,88.47,53.15c3.64,6.3,9.68,10.84,16.7,12.76,4.66,1.28,10.53,2.92,17.24,4.88,3.77-7.59,15.51-25.64,46.49-39.59,0,0-12.86,17.23-16.21,48.88,7.24,2.34,14.75,4.87,22.3,7.54,2.48-12.14,12.43-37.52,52.24-56.42,0,0-19.03,35.34-18.02,69.67,6.01,2.58,11.78,5.22,17.16,7.91l1.48,75.26s95.18,23.82,122.16,38.16ZM603.98,241.27l-4.33,35.62,3.32.4,4.33-35.62c.18-1.46,1.59-2.49,3.11-2.31l3.57.43c1.51.18,2.64,1.53,2.46,2.99l-1.09,8.95c-.18,1.46-1.59,2.49-3.11,2.31l-2.3-.28-.38,3.11,2.3.28c1.51.18,2.64,1.53,2.46,2.99l-1.17,9.64c-.17,1.42-1.59,2.45-3.1,2.27l-2.39-.29-.38,3.11,2.39.29c3.42.42,6.41-1.77,6.8-4.97l1.17-9.64c.2-1.64-.35-3.24-1.44-4.44,1.35-.9,2.27-2.32,2.46-3.96l1.09-8.95c.38-3.15-1.99-6.08-5.41-6.5l-3.57-.43c-3.42-.42-6.42,1.86-6.81,5.01ZM599.57,254.69l.38-3.11-3.66-.45.85-7.03-3.32-.4-.85,7.03-11.53-1.4.85-7.03-3.32-.4-.85,7.03-3.67-.45-.38,3.11,25.5,3.1ZM592.86,257.67l-13-1.58c-2.88-.35-5.55,1.6-5.87,4.25l-.99,8.17c-.33,2.69,1.79,5.22,4.68,5.57l13,1.58c2.88.35,5.55-1.6,5.88-4.29l.99-8.17c.32-2.65-1.8-5.18-4.68-5.53ZM590.45,237.08l.44-3.65-3.32-.4-.44,3.65-10.16-1.23-.38,3.11,23.6,2.87.38-3.11-10.11-1.23ZM205.68,218.81s93.09-24.03,194.32-24.03,200.73,27.83,200.73,27.83c0,0-21.08-15.18-114.26-35.84,0,0-24.32-67.88-86.47-67.88-52.78,0-73.96,35.27-83.8,57.01-2.84,6.29-8.51,10.83-15.25,12.28-21.36,4.61-68.74,15.92-95.27,30.63ZM529.92,240.32l.81-10.35c.09-1.1.97-1.85,2.03-1.77l34.1,1.81.16-3.31-34.05-1.76c-2.85-.18-5.35,1.99-5.57,4.77l-.81,10.35c-.22,2.83,1.96,5.31,4.81,5.54l13.76,1.08-1.05,13.37c-.12,1.53-1.43,2.68-3.02,2.56l-3.62-.28-.26,3.26,3.62.28c3.33.26,6.3-2.25,6.56-5.56l1.05-13.37,18.25,1.43.26-3.26-18.25-1.43.87-11.12-3.28-.26-.87,11.12-13.76-1.08c-1.06-.08-1.82-.96-1.74-2.02ZM560.85,251.48l-3.15,1.1,5.23,15.02,3.14-1.05-5.23-15.07ZM530.28,249.32c-2.04,5.53-4.39,10.21-7.42,13.45l2.4,2.26c3.45-3.68,6.02-8.69,8.14-14.6l-3.12-1.11ZM512.9,253.62l5.49.5.29-3.24-2.72-.25,2.15-23.75c.3-3.28-2.23-6.25-5.58-6.55l-13.56-1.23c-3.35-.3-6.36,2.06-6.67,5.44l-2.15,23.75-2.72-.25-.29,3.24,5.88.53c-1.3,2.47-3.23,4.84-6.13,6.59l1.71,2.7c4-2.47,6.44-5.65,7.97-8.97l12.29,1.12,5.79,10.17,2.94-1.61-4.69-8.2ZM483.95,224.41l-3.27,36.03,3.3.3,3.93-43.36-11.5,8.46,2.02,2.58,5.51-4.01ZM462.2,240.47l3.98,17.11,3.26-.66-3.98-17.06-3.26.61ZM462.53,237.09l6.43-6.39-2.46-2.14-6.43,6.39,2.46,2.14ZM470.55,220.13l.09-2.36-3.33-.13-.09,2.36c-.04,1.02-.86,1.82-1.74,1.79l-7.68-.3.23-5.8-3.33-.13-.23,5.8-12.82-.51-.12,3.15,12.82.51-1.12,28.33c-.04,1.02-.81,1.78-1.74,1.74l-3.13-.12-.12,3.15,3.13.12c2.74.11,5.08-2.03,5.19-4.76l1.12-28.33,7.68.3c2.74.11,5.08-2.07,5.19-4.81ZM439.67,254.99l2.92,1.65c3.24-5.21,5.14-10.9,5.68-17.14l-3.32-.27c-.52,5.69-2.3,10.96-5.28,15.77ZM447.61,236.36l2.63-2.03-5.91-6.69-2.63,2.03,5.91,6.69ZM434.22,234.11l.5-12.52,4.45.18.12-3.15-12.18-.48-.12,3.15,4.4.17-.5,12.52-4.16-.16-.12,3.15,4.16.16-.53,13.26-5.53,1.13.66,3.09,13.78-2.8-.66-3.14-4.89,1.01.49-12.43,4.26.17.12-3.15-4.26-.17ZM383.5,241.52c0,6.06-1.54,9.56-4.9,13.07l2.4,2.31c2.45-2.55,4.04-5.09,4.95-8.36,3.6,5.29,8.8,7.93,14.28,7.93l20.57-.05v-3.27l-19.18.05v-11.05h17.35v-3.27h-17.35v-7.69h10.52c3.32,0,6.06-2.74,6.06-6.06v-6.2c0-3.32-2.74-6.06-6.06-6.06h-23.12c-3.32,0-6.06,2.74-6.06,6.06v6.2c0,3.32,2.74,6.06,6.06,6.06h9.28v21.87c-4.66-.72-9.04-3.94-11.58-9.9.05-.53.05-1.06.05-1.63l-.05-5.48h-3.27l.05,5.48ZM331.67,228.2l1.19,24.51c.15,3.17,3.08,5.65,6.48,5.48l34.47-1.68-.15-3.12-34.47,1.68c-1.57.08-2.91-1.05-2.98-2.52l-1.19-24.51-3.34.16ZM334.88,225.15l-.39-7.94-3.34.16.39,7.94,3.34-.16ZM358.26,237.72l13.57-.66-.15-3.12-13.57.66-.25-5.05,8.95-.44-.15-3.12-22.08,1.07.15,3.12,9.79-.48.25,5.05-14.41.7.15,3.12,14.41-.7.43,8.81c.07,1.47-1.15,2.72-2.72,2.8l-2.71.13.15,3.12,2.71-.13c3.39-.17,6.07-2.92,5.92-6.08l-.43-8.81ZM344.39,239.32c-.34,4.2-1.29,7.98-3.71,11.96l2.89,1.56c2.79-4.51,3.87-8.7,4.23-13.27l-3.41-.25ZM364.69,239.07l5.17,12.13,3.1-1.16-5.17-12.13-3.1,1.16ZM372.4,228.39l-4.29-9.22c-1.1-2.39-2.98-3.58-6.28-3.42l-13.43.65c-3.29.16-5.05,1.53-5.92,4.01l-3.38,9.6,3.2.95,3.43-9.6c.4-.99,1.29-1.77,2.82-1.84l13.43-.65c1.52-.07,2.49.61,3.03,1.55l4.29,9.22,3.09-1.25ZM313.99,234.12c-2.91,2.76-7.7,4.85-16.24,5.9l.38,3.1c19.27-2.44,21.41-9.23,24.2-17.7l1.15-3.66-21.19,1.93.81-3.53-3.22-.63-1.81,7.73,20.8-1.89c-1.01,3-2.04,5.77-4.2,8.09l-.28-2.56-16.43,1.59.34,3.15,15.7-1.52ZM299.4,249.52l.64,7c.25,2.7,2.85,4.72,5.73,4.46l14.88-1.35c2.84-.26,5.03-2.72,4.79-5.42l-.64-7c-.25-2.7-2.84-4.63-5.68-4.37l-14.88,1.35c-2.89.26-5.09,2.63-4.84,5.33ZM285.05,244.73l-4.26.39.28,3.11,4.26-.39.85,9.33c.29,3.16,3.31,5.51,6.69,5.2l4.11-.37-.28-3.11-4.11.37c-1.57.14-2.95-.93-3.08-2.4l-.85-9.33,6.95-.63-.28-3.11-6.95.63-.6-6.59,6.95-.63-.28-3.11-14.53,1.32.28,3.11,4.26-.39.6,6.59ZM283.65,227.14l1.26-5.1-3.22-.72-2.31,9.34,14.63-1.33-.28-3.11-10.08.92ZM255.96,247.76l14.47-1.24-.28-3.34-14.48,1.22-.57-6.65-3.34.29.57,6.65-13.11,1.11c2.57-3.49,4.56-7.35,6.05-10.77l26.03-2.52-.32-3.34-24.29,2.35c1.25-3.34,1.87-5.73,1.93-5.96l-3.25-.83c-.02.07-.75,3.1-2.34,7.15l-13.37,1.3.32,3.34,11.54-1.12c-1.69,3.61-3.97,7.53-6.93,10.73l.11,3.48,17.93-1.54,1.33,15.46-6.34,1.31.68,3.28,6.33-1.3c1.67-.34,2.82-1.88,2.67-3.58l-1.33-15.45ZM240.54,253.24c-.02.06-1.7,5.65-7.74,12.19l2.46,2.28c6.62-7.17,8.42-13.28,8.5-13.54l-3.22-.93ZM261.89,253.31c.05.03,5.38,3.56,10.94,9.83l2.51-2.23c-5.88-6.63-11.38-10.26-11.61-10.41l-1.84,2.81ZM183.53,244.73l1.78,33.62,3.26-.24-1.77-33.57c-.09-1.59.95-3.02,2.43-3.19l32.22-3.79-.38-3.25-16.66,1.96-.5-4.25-3.25.38.5,4.25-12.32,1.45c-3.25.38-5.5,3.41-5.32,6.63ZM191.04,294.87c-.99.23-1.99.46-2.98.69l-1.71,15.02-.26,2.32-2.27.56-17.18,4.22-7.52,41.18-1.75,9.59-4.52-8.63-16.28-31.09-15,5-2.78.93-1.29-2.63-4.14-8.42.79,10.49.19,2.5-2.35.89-29.46,11.15,2.62,24.18,2.72-.71,3.75-.98.43,3.85,5.53,49.96.32,2.89-2.82.72-2.7.69,4.98,42.36c12.94-5.49,41.44-15.89,49.77-18.92l-.27-12.77-.05-2.61,2.52-.69,27.51-7.59,3.89-1.07.34,4.02.9,10.57c48-15.99,134.34-26.22,151.54-28.15l-.19-30.28-.09-14.41,6.44,12.89,14.86,29.72,38.05-.93,4.08-27.77,1.4-9.5,4.82,8.3c15.07,25.94,41.83,29.89,52.63,30.38.72.03,1.44.05,2.16.05,18.81,0,35.18-10.58,43.79-28.31,8.13-16.75,8.69-38.81,8.6-46.71l-2.23-.14-.36-2.74c-.45-3.45-1.62-8.77-1.64-8.83l-1.04-4.69,4.76.65,21.71,2.95,3.02.41-.13,3.05-1.9,45.96-.15,3.69-3.66-.51-5.39-.75-1.64,43.98c16.99,2.05,44.87,8.27,55.15,10.63l2.18-43.24-4.49-.83-3.02-.56.29-3.05c1.03-10.85,2.5-45.33,2.52-45.67l.16-3.77,3.73.6c7.9,1.28,22.33,5.39,22.94,5.57l2.64.76-.22,2.74c-.02.28-2.32,28.56-2.94,41.83-.58,12.43-.19,30.51,9.88,44,9.92,13.29,36.8,25.26,59.92,26.7.68.04,1.37.06,2.03.06,9.18,0,16.95-3.9,23.09-11.59,5.15-6.44,8.76-15.32,9.92-24.34,2.28-17.84,4.6-46.15,4.62-46.43l.37-4.58,4.25,1.75,2.8,1.15,1.31-24.23c-13.94-6.46-41.92-16.62-52.5-20.4l-1.63,25.09c1.73.43,3.31.92,3.59,1.01l2.6.82-.27,2.71c-.13,1.29-3.18,31.75-4.12,39.29-.56,4.47-1.72,13.76-8.87,13.76-.43,0-.88-.04-1.33-.11-9.36-1.56-14.78-7.57-14.5-16.07.31-9.45,2.75-42.38,2.85-43.77l.3-4.06,3.93,1.07,2.98.81,1.5-24.58c-37.09-16.49-127.7-31.16-147.47-34.23v29.67l-6.12-8.91c-13.79-20.08-23.15-29.54-49.25-29.55-2.28,0-4.71.08-7.23.23-17.88,1.09-29.98,14.74-36.99,26.01l-1.32,2.11-1.24,2.28c-3.87,7.07-5.73,12.66-5.74,12.72l-6.54,19.86v-20.91s0-13.28,0-13.28v-3.35h8.64v-24.26c-17.78.17-45.19,1.61-54.43,2.12v24.25h7.59v22.6l-6.24-10.59-4.1-6.96-2.98-5.06-.51-.86-12.51-21.22c-86.25,8.73-130.12,23.5-130.55,23.65l-4.2,1.44-.23-4.43-.65-12.34ZM349.66,318.95v-6.96h-4.1l4.1,6.96ZM394.56,309.88v13.28s1.9-5.81,5.99-13.28h-5.99ZM113.76,316.79l6.75,13.75,17.71-5.9,17.6,33.62,7.91-43.32,19.29-4.74,1.57-13.8c-28.87,6.96-52.78,14.26-70.83,20.4ZM521.64,638.58c-38.67,21.08-69.26,33.31-121.64,34.99-80.62,1.69-146.84-65.14-146.84-65.14,18.76,32.25,69.78,77.37,146.84,77.37s121.64-47.22,121.64-47.22ZM574.23,482.07c0-6.64-.37-13.19-1.1-19.63-6.68-1.39-13.64-2.74-20.85-4.02,1.2,7.71,1.82,15.6,1.82,23.65,0,19.29-3.6,37.75-10.13,54.77l-3.48-32.75s-12.02-2.74-16.44-4.64c-.1-.04-.2-.09-.3-.13-4.37-2.1-9.47-9.14-9.47-9.14,0,0-.02.02-.06.04-.12-11.1-.48-25.81-1.5-37.86h-.01c-5.96-.77-12.04-1.49-18.28-2.15-27.91-2.97-58.48-4.83-91.48-4.93.8,10.1,1.87,20.82,5.51,28.5,1.29,2.69,2.88,5.01,4.91,6.8,9.27,8.23,44.48,28.88,45.95,33.94,0,0,18.57-7.57,36.06-9.24-2.26,1.82-4.16,3.36-5.29,4.29-4.84,4.01-18.54,12.65-22.97,17.5-4.43,4.84-9.28,15.81-11.8,22.23-2.54,6.43-8.44,24.77-13.7,32.15l13.35,21.59c-3.71-3.8-9.49-6.49-18.84-8.72-2.22-.54-5.01-.97-8.15-1.33-19.06-2.16-51.61-1.3-57.41-.57-4.35.54-13.64,3.9-19.95,8.77,1.34-1.85,2.75-3.88,3.93-5.72,3.38-5.26,7.38-12.64,3.58-21.71-3.79-9.07-16.64-41.53-18.97-44.28-.01-.01-.02-.02-.04-.04-2.53-2.89-28.87-23.8-34.95-27.56-.2-.12-.39-.26-.6-.4,19.62,5.01,40.87,13.04,40.87,13.04,0,0,29.3-21.28,41.53-29.3,12.23-8.01,12.64-18.56,12.64-28.88v-12.52c-1.29.32-2.59.8-3.85,1.46h-.01c-37.61.21-72.05,2.7-102.95,6.52l-1.39,32.96c-1.01-1.63-1.62-2.69-1.62-2.69,0,0,.63,9.27-6.54,13.69-7.16,4.43-21.92,12.64-21.92,12.64v34.23c-8.03-18.59-12.5-39.06-12.5-60.56,0-8.16.64-16.19,1.88-24-7.21,1.26-14.16,2.59-20.85,3.96-.76,6.57-1.15,13.27-1.15,20.04,0,95.68,77.56,173.26,173.26,173.26s173.26-77.57,173.26-173.26ZM274.45,489.22c2.95-1.26,6.75-8.85,6.75-17.92v-18.14c-7.16.97-14.13,2.01-20.87,3.11v38.02s11.17-3.8,14.12-5.06ZM365.1,513.58c-7.38,6.1-11.8,10.74-10.12,18.33,5.05,24.03,21.08,48.06,21.08,48.06.29.04.59.1.91.13,14.42,2.09,51.57-.13,51.57-.13,9.96-13.45,19.43-45.92,21.65-53.87.3-1.1-.01-2.27-.84-3.04-4.29-4.04-17.81-16.62-23.97-20.67-4.72-3.1-8.74-6.63-13.55-8.82-2.73-1.25-5.7-2.07-9.19-2.15-9.67-.21-30.18,16.03-37.56,22.14ZM524.05,487.22l18.66,5.38s.15-18.76-.64-35.94c-6.62-1.1-13.42-2.13-20.43-3.11l2.41,33.67ZM725.1,331.59s-85.91-39.27-219.58-54.64c-32.52-3.74-67.86-6.07-105.48-6.07-80.92,0-151.31,10.76-205.69,23.21l.68,12.94s44.27-15.18,133.44-24.03l13.6,23.07v-24.86s39.84-2.32,61.13-2.32v26.43c7.6-12.21,20.47-26.41,39.63-27.58,2.61-.16,5.08-.24,7.44-.24,28.33,0,38.58,11.44,52.01,31v-22.77s113.52,16.76,154.31,36.05l-1.9,30.99-6.96-1.9s-2.53,34.15-2.85,43.64c-.32,9.49,7.91,12.02,11.7,12.65.27.05.53.07.78.07,3.23,0,4.66-3.78,5.54-10.82.95-7.59,4.11-39.21,4.11-39.21,0,0-4.01-1.26-6.11-1.48l2.11-32.46s42.58,14.97,59.03,22.98l-1.69,31.2-7.17-2.95s-2.32,28.46-4.64,46.59c-2.25,17.55-13.97,38.86-36.34,38.86-.73,0-1.48-.02-2.24-.07-23.82-1.48-51.86-13.91-62.4-28.04-10.54-14.12-11.17-32.67-10.54-46.17s2.95-41.95,2.95-41.95c0,0-14.76-4.22-22.56-5.48,0,0-1.48,34.78-2.53,45.85l7.38,1.37-2.53,50.17s-41.95-9.91-61.77-11.81l1.9-50.8,9.06,1.26,1.9-45.96-21.71-2.95s1.21,5.48,1.69,9.12l2.53.16s1.69,29.62-8.85,51.33c-10.1,20.81-28.92,30.2-46.8,30.2-.77,0-1.55-.02-2.31-.05-18.55-.84-42.03-9.06-55.38-32.04l-4.49,30.57-43,1.05-15.81-31.62.21,33.31s-105.72,11.07-157.89,29.72l-1.26-14.86-27.51,7.59.32,15.18s-45.53,16.44-55.97,21.5l-5.85-49.8,5.53-1.42-5.53-49.96-6.48,1.69-3.32-30.62,31.88-12.07-1.22-16.11c-22.38,7.78-34.61,13.37-34.61,13.37v165.7s78.48-45.43,221.31-61.85c31.49-3.61,66.12-5.82,103.71-5.82,208.11,0,325.1,67.67,325.1,67.67v-165.7ZM271.94,564.46c16.9,26.38,41.67,47.25,70.97,59.3.29-3.35.74-8.22,1.32-13.43.12-1.1.49-2.18,1.04-3.23-4.7-2.75-9.47-5.53-14.24-8.31-23.06-13.44-45.86-26.66-59.09-34.33ZM234.93,385.17l-2.64.68-5.69,1.48-3.94,1.02-.25-4.06-3.16-51.86-.16-2.57,2.44-.82,6.31-2.11,4.2-1.4.21,4.42,2.54,52.49.13,2.72ZM231.45,382.61l-2.54-52.49-6.31,2.11,3.16,51.86,5.69-1.48ZM281.01,317.12l3.83-.71.14,3.89,1.9,53.33.12,3.47h-12.4l-.12-3.23-1.86-52.28-.1-2.89,2.84-.53,5.65-1.05ZM281.62,320.42l-5.65,1.05,1.86,52.28h5.69l-1.9-53.33ZM163.89,391.25l-24.66-55.65s-28.04,9.49-43,16.44l.84,10.33,6.11-2.11s3.79,59.87,5.48,70.41l-5.06,1.9s1.69,20.45,2.11,28.04c0,0,23.61-10.12,36.68-13.07,0,0-2.11-25.09-2.11-28.88l-7.38,2.95-3.58-57.97,27.19,63.87s12.02-4.43,20.66-7.17c0,0,12.02-67.67,14.76-78.42l3.37,58.99-6.53,1.93,1.69,28.67s25.72-6.32,36.68-8.64l-1.69-29.3-5.48,1.26-3.79-72.73,5.9-1.69-.63-10.33s-34.99,8.01-42.79,11.59c0,0-9.91,44.69-14.76,69.57ZM242.2,316.2s2.21,65.03,2.95,71.67l-13.7,3.37,1.11,29.57s15.34-4.43,53.44-9.96l-.79-29.72s-9.49,1.11-14.07,2.06l-2.53-72.25s6.8-1.48,14.23-2.32v-11.59s-41.74,7.22-55.81,11.59l.63,10.96s9.91-2.53,14.55-3.37ZM296.12,379.71h-5.53l1.5,29.72s22.37-2.85,36.28-4.27v-29.25l-8.22.16-.95-52.17s31.15,59.29,40.79,78.26l27.98-.69s3.79-20.82,5.85-29.2h-7.43v-74.15h8.85v-10.91s-26.4-.32-40.95.95v10.59h7.27l.63,55.49s-31.91-56.37-36.84-63.4l-37.31,5.06v10.59h6.32l1.74,73.2ZM444.73,402.32c35.47,8.65,58.66-18.66,57.71-61.19,0,0-30.36-4.11-50.75-4.74v16.28l24.19,2.06s-1.26,16.13-20.24,16.13-26.88-14.55-26.88-34.47,14.39-30.51,26.09-30.51,26.25,9.01,30.83,26.09l15.02,1.58s-6.32-47.59-49.33-48.06c-40.63,0-50.44,48.54-48.85,61.03,1.58,12.49,6.75,47.17,42.21,55.81ZM538.84,384.08l-8.99-1.84-1.05,30.15s31.14,4.19,41.32,8.43l.84-30.15-6.96-1.43,2.39-65.67c12.83,2.79,24.64,5.74,31.14,8.28l.84-18.23s-33.94-10.01-86.85-18.23v17.71s12.89,2.16,28.97,5.23l-1.64,65.76ZM606.37,387.51c-.84,18.13,4.43,41.95,32.04,52.28,27.62,10.33,55.02,19.39,59.24-26.14,2.58-27.86,3.66-44.5,4.11-53.23,2.55,1.03,4.9,2,6.85,2.85v-10.96s-18.13-8.64-39.42-15.81v11.38s2.11.78,5.41,2.03c-.34,6.11-1.04,17.57-2.25,34.18-1.9,25.98-3.16,31.88-15.81,31.88s-24.24-10.79-23.4-29.32c.67-14.63,2.51-40.29,3.26-50.46,2.61.78,4.86,1.47,6.44,1.99v-10.54s-18.16-6.32-38.68-12.12l-.95,11.07s2.28.65,5.77,1.64c-.45,10.38-1.9,44.05-2.61,59.28Z"/>
</svg>