<?xml version="1.0" encoding="utf-8"?>
<!-- Generator: Adobe Illustrator 26.0.3, SVG Export Plug-In . SVG Version: 6.00 Build 0)  -->
<svg version="1.1" id="图层_1" xmlns="http://www.w3.org/2000/svg" xmlns:xlink="http://www.w3.org/1999/xlink" x="0px" y="0px"
	 viewBox="0 0 800 800" style="enable-background:new 0 0 800 800;" xml:space="preserve">
<g>
	<g>
		<path style="fill:#009BDF;" d="M111.8426,50v557.5447c0,18.2803,8.7719,51.5518,67.5501,69.0654
			c34.5255,10.2104,68.8253,10.4944,72.6391,10.4944h1.2961c54.6339,0,100.6096,17.0221,132.9281,49.2211L400.0116,750
			l13.828-13.5836c32.2555-31.6746,79.5484-49.1088,133.1541-49.1088h0.76c1.4241,0,140.4037-0.8954,140.4037-79.2544V50H111.8426z
			 M668.5438,608.0532c0,57.7547-119.5594,59.6337-120.79,59.6337h-0.76c-59.0883,0-110.8622,19.3575-146.8866,54.7292
			c-36.1437-35.9667-86.6514-54.9273-146.7793-54.9273h-1.2961c-1.4127,0-34.6864-0.1002-67.0911-9.6878
			c-24.3805-7.2687-53.4753-21.8754-53.4753-50.2563V69.6089h537.0784V608.0532z"/>
	</g>
	<g>
		<path style="fill:#009BDF;" d="M207.6408,223.7569l0.0211,420.6633c23.4927,4.5807,43.5143,4.6713,44.5636,4.6713h1.2843
			c10.6275,0,20.9962,0.5619,31.1292,1.7094V223.7569C256.6916,223.7569,230.6185,223.7569,207.6408,223.7569z"/>
		<path style="fill:#009BDF;" d="M438.5096,517.5972V223.7569c-25.549,0-51.4286,0-76.9445,0v449.2775c0,0,0-2.6411,0,0.0583
			c14.0868,7.1168,27.0919,15.7625,38.7891,25.9286c11.4713-9.7368,24.3063-18.1359,38.1555-25.1056V517.5972"/>
		<path style="fill:#009BDF;" d="M515.4565,223.7569V645.616v5.5269c10.3895-1.2542,20.975-1.8738,31.7611-1.8738h0.7503
			c11.9214-0.1237,28.1502-1.5434,44.4329-4.709V223.7569C569.3815,223.7569,543.243,223.7569,515.4565,223.7569z"/>
	</g>
	<g>
		<path style="fill:#009BDF;" d="M221.1916,152.1899l-0.0953,0.2239l25.0657,28.7727h-20.7397l-19.1429-25.3178h-19.7628v25.3178
			h-17.1499v-71.0587h37.4283c21.553,0,32.565,8.2593,32.565,22.2597C239.36,141.9704,232.8352,150.3203,221.1916,152.1899z
			 M206.1839,122.9072h-19.6673v21.3338h19.0148c11.1823,0,15.9166-3.4825,15.9166-11.0935
			C221.448,126.3197,217.1844,122.9072,206.1839,122.9072z"/>
		<path style="fill:#009BDF;" d="M318.1812,166.785h-43.8247l-7.0283,14.4016h-18.3806l38.1133-71.0587h19.0151l38.3811,71.0587
			h-19.3364L318.1812,166.785z M293.2104,128.4082L280.5692,154.09h31.57L299.81,128.4082l-3.1074-7.0116h-0.2799L293.2104,128.4082
			z"/>
		<path style="fill:#009BDF;" d="M411.3873,126.1473c-5.7625-1.809-13.2407-3.3151-21.9073-3.3151
			c-20.5348,0-27.7539,7.0122-27.7539,22.6348c0,16.4972,7.4756,23.2178,28.1502,23.2178c8.1421,0,15.4154-1.5991,21.5111-4.0698
			l2.175,12.4971c-7.0916,3.1211-16.6792,5.4846-25.7958,5.4846c-29.5022,0-44.0155-13.8046-44.0155-37.1296
			c0-21.6928,13.8066-36.7542,45.4724-36.7542c8.73,0,18.0283,1.7158,24.0264,3.7926L411.3873,126.1473z"/>
		<path style="fill:#009BDF;" d="M426.7169,110.1279h17.331v71.0587h-17.331V110.1279z"/>
		<path style="fill:#009BDF;" d="M529.4569,181.1866l-46.2113-44.0483l-5.3896-5.3943l-0.2893,0.0865l0.194,7.6649v41.6913H462.121
			v-71.0587h14.4388l43.223,42.286l5.4316,5.4734l0.1817-0.1981l-0.1817-7.5831v-39.9782h15.5438v71.0587H529.4569z"/>
		<path style="fill:#009BDF;" d="M629.5305,178.1446c-7.5524,2.7598-18.7467,4.5593-29.1594,4.5593
			c-32.694,0-46.629-14.0983-46.629-36.8568c0-22.7418,14.0637-37.1343,46.629-37.1343c9.662,0,19.9583,1.415,27.5626,3.9002
			l-1.7014,13.8093c-7.3173-2.3594-16.1127-3.7997-25.0364-3.7997c-21.4666,0-29.4249,6.5782-29.4249,22.947
			c0,15.9289,7.1655,23.1152,28.0007,23.1152c5.7089,0,10.5947-0.6618,14.8794-1.8998v-22.544h14.8793V178.1446z"/>
	</g>
</g>
<g>
</g>
<g>
</g>
<g>
</g>
<g>
</g>
<g>
</g>
<g>
</g>
<g>
</g>
<g>
</g>
<g>
</g>
<g>
</g>
<g>
</g>
<g>
</g>
<g>
</g>
<g>
</g>
<g>
</g>
</svg>
