<?xml version="1.0" encoding="utf-8"?>
<!-- Generator: Adobe Illustrator 26.0.3, SVG Export Plug-In . SVG Version: 6.00 Build 0)  -->
<svg version="1.1" id="图层_1" xmlns="http://www.w3.org/2000/svg" xmlns:xlink="http://www.w3.org/1999/xlink" x="0px" y="0px"
	 viewBox="0 0 800 800" style="enable-background:new 0 0 800 800;" xml:space="preserve">
<g>
	<path style="fill:#00263A;" d="M399.9715,750l-13.731-13.6768c-32.328-32.1931-78.2971-49.2052-132.9236-49.2052h-1.3104
		c-3.7965,0-38.1208-0.2979-72.6462-10.5117c-58.7495-17.5016-67.511-50.7827-67.511-69.0556V50h576.3013v558.0616
		c0,78.347-138.9955,79.2553-140.4055,79.2553h-0.7545c-53.6048,0-100.8914,17.4399-133.1697,49.108L399.9715,750z"/>
	<path style="fill:#009BDF;" d="M131.4631,69.6138v537.937c0,28.3777,29.0946,42.989,53.4628,50.2482
		c32.4132,9.5918,65.6776,9.7054,67.0827,9.7054h1.3082c60.119,0,110.6391,18.9492,146.7588,54.9198
		c36.0511-35.3698,87.8107-54.7236,146.915-54.7236h0.7545c1.2017,0,120.7822-1.8947,120.7822-59.6389V69.6138H131.4631z"/>
	<path style="fill:#FFFFFF;" d="M207.6198,223.7587l0.0448,420.6686c23.4672,4.5793,43.4973,4.6671,44.543,4.6671h1.3055
		c10.6137,0,20.9765,0.5699,31.1169,1.7054V223.7587H207.6198z"/>
	<path style="fill:#FFFFFF;" d="M361.5598,223.7587v449.2735v0.0615c14.0742,7.1221,27.0602,15.7676,38.7596,25.9318
		c11.4983-9.7405,24.3234-18.1331,38.1705-25.1087V223.7587H361.5598z"/>
	<path style="fill:#FFFFFF;" d="M515.441,223.7587v421.8727v5.5233c10.3701-1.2632,20.9835-1.8876,31.7462-1.8876h0.7591
		c11.9241-0.1136,28.1791-1.5327,44.4248-4.7097V223.7587H515.441z"/>
	<path style="fill:#FFFFFF;" d="M221.1662,152.1947l-0.0899,0.2211l25.0828,28.7739h-20.7587l-19.1196-25.3192h-19.7889v25.3192
		h-17.1492v-71.0507h37.416c21.5936,0,32.6,8.2528,32.6,22.2549C239.3587,141.9739,232.8135,150.3343,221.1662,152.1947
		 M206.1839,122.9206h-19.692v21.3204h19.0344c11.1788,0,15.9144-3.4831,15.9144-11.0795
		C221.4407,126.3315,217.1711,122.9206,206.1839,122.9206"/>
	<path style="fill:#FFFFFF;" d="M318.1715,166.7905h-43.8238l-7.049,14.3981h-18.3649l38.1041-71.0495h19.0228l38.3785,71.0495
		h-19.3396L318.1715,166.7905z M293.1999,128.4153l-12.6314,25.6883h31.5403l-12.3378-25.6883l-3.0847-7.0134h-0.272
		L293.1999,128.4153z"/>
	<path style="fill:#FFFFFF;" d="M411.3492,126.1457c-5.7551-1.7989-13.2226-3.3116-21.8964-3.3116
		c-20.5269,0-27.7368,7.011-27.7368,22.6463c0,16.4797,7.4818,23.2071,28.1553,23.2071c8.1133,0,15.406-1.5943,21.4778-4.0673
		l2.1998,12.494c-7.1057,3.1222-16.6878,5.483-25.7876,5.483c-29.5342,0-44.0319-13.8068-44.0319-37.1168
		c0-21.6978,13.8139-36.7666,45.4866-36.7666c8.7118,0,18.0125,1.7137,24.0161,3.7929L411.3492,126.1457z"/>
	<rect x="426.7007" y="110.1391" style="fill:#FFFFFF;" width="17.336" height="71.0507"/>
	<polygon style="fill:#FFFFFF;" points="529.4608,181.1898 483.2336,137.1436 477.8382,131.7519 477.5568,131.8369 
		477.7578,139.503 477.7578,181.1898 462.1084,181.1898 462.1084,110.1391 476.5303,110.1391 519.7791,152.4159 525.2031,157.8929 
		525.3898,157.6943 525.2031,150.1131 525.2031,110.1391 540.7294,110.1391 540.7294,181.1898 	"/>
	<path style="fill:#FFFFFF;" d="M629.5053,178.1538c-7.548,2.7509-18.7529,4.5522-29.1535,4.5522
		c-32.7017,0-46.6149-14.0977-46.6149-36.8589c0-22.7316,14.0433-37.1321,46.6149-37.1321c9.6509,0,19.9662,1.4252,27.5735,3.9065
		l-1.7148,13.801c-7.3068-2.3548-16.092-3.7919-25.0331-3.7919c-21.4708,0-29.4255,6.5747-29.4255,22.9338
		c0,15.9439,7.1742,23.1218,28.0157,23.1218c5.6863,0,10.5922-0.66,14.876-1.8946v-22.5495h14.8617V178.1538z"/>
</g>
<g>
</g>
<g>
</g>
<g>
</g>
<g>
</g>
<g>
</g>
<g>
</g>
<g>
</g>
<g>
</g>
<g>
</g>
<g>
</g>
<g>
</g>
<g>
</g>
<g>
</g>
<g>
</g>
<g>
</g>
</svg>
