<?xml version="1.0" encoding="utf-8"?>
<!-- Created by @FCLOGO 2022-06-21 09:57:32 . https://fclogo.top/ -->
<!-- FOR PERSONAL USE ONLY NOT FOR COMMERCIAL USE -->
<svg version="1.1" xmlns="http://www.w3.org/2000/svg" xmlns:xlink="http://www.w3.org/1999/xlink" x="0px" y="0px"
	 viewBox="0 0 800 800" enable-background="new 0 0 800 800" xml:space="preserve">
<g>
	<g>
		<g>
			<path d="M714.85,134.12L630.97,50H169.03l-83.89,84.12c0,0,48.97,57.2,48.97,154.94c0,103.12-31.26,118.41-31.26,206.2
				s61.85,137.01,135.68,168.93S365.68,715.68,400,750c34.32-34.32,87.64-53.89,161.46-85.81s135.68-81.14,135.68-168.93
				s-31.26-103.09-31.26-206.2C665.88,191.32,714.85,134.12,714.85,134.12z"/>
			<path fill="#FFFFFF" d="M400,733.6c-30.58-26.67-72.04-44.32-127.56-67.95c-9.37-3.99-19.05-8.11-29.14-12.47
				c-40.43-17.48-70.32-37.29-91.39-60.55c-24.93-27.53-37.05-59.38-37.05-97.36c0-40.46,6.91-64.89,14.23-90.76
				c8.37-29.57,17.02-60.15,17.02-115.45c0-79.82-31.06-133.56-45.13-153.82L174.02,62h451.97l73.03,73.23
				c-14.08,20.26-45.13,74.01-45.13,153.82c0,55.3,8.66,85.88,17.03,115.45c7.32,25.86,14.23,50.29,14.23,90.76
				c0,37.98-12.12,69.83-37.05,97.36c-21.07,23.26-50.96,43.07-91.39,60.55c-10.09,4.36-19.77,8.48-29.14,12.47
				C472.04,689.28,430.58,706.93,400,733.6z"/>
			<path fill="#FE1800" d="M650.92,193.98H149.08c0,0,38.91,60.85,38.91,135.68s-18.62,119.71,0.67,160.28
				C224.75,565.86,400,597.02,400,638.92c0-41.9,175.25-73.06,211.35-148.98c19.29-40.57,0.67-85.46,0.67-160.28
				S650.92,193.98,650.92,193.98z"/>
			<g>
				<polygon fill="#FFFFFF" points="446.19,416.45 400,462.64 400,416.45 				"/>
				<polygon fill="#FFFFFF" points="488.56,416.45 400,505.01 400,480.05 463.6,416.45 				"/>
				<polygon fill="#FFFFFF" points="538.37,416.45 402.76,552.06 400,549.3 400,534.42 517.97,416.45 				"/>
				<polygon fill="#FFFFFF" points="595.91,416.45 405.04,607.31 400,602.27 400,597.13 580.68,416.45 				"/>
			</g>
			<g>
				<path d="M418,193.98v421c-11.2,7.85-18,15.69-18,23.94c0-8.25-6.8-16.09-18-23.94v-421L418,193.98L418,193.98z"/>
				<path d="M326,193.98v391.61c-11.61-5.38-23.81-10.96-36-16.87V193.98H326z"/>
				<path d="M234,193.98V537.4c-14.36-9.79-26.87-20.5-36-32.38V193.98H234z"/>
				<path d="M612.01,329.65c0,34.44,3.94,62.54,6.32,86.8H400V193.98h250.92C650.92,193.98,612.01,254.83,612.01,329.65z"/>
			</g>
		</g>
		<g>
			<path d="M649,410.38c4.52,0.08,5.97,3.29,7.17,6.35c2.72,6.95,6.67,7.99,8.78,7.99c2.94,0,6.8-2.74,8.25-8.02
				c0.53-1.92,4.43-15.21-5.19-27c-2.78-3.4-7.89-7.51-16.76-7.51c-17.85,0-33.85,17.58-34.92,38.38
				c-1.3,25.25-3.08,40.58-9.65,59.41c-9.09,26.05-34.18,48.54-74.58,66.84c-43.01,19.49-78.94,37.6-106.78,53.84
				c-13.88,8.1-21.54,14.26-25.32,17.74c-3.78-3.47-11.44-9.64-25.32-17.74c-27.84-16.24-63.77-34.35-106.78-53.84
				c-40.4-18.3-65.49-40.79-74.58-66.84c-6.57-18.83-8.34-34.16-9.65-59.41c-1.07-20.8-17.07-38.38-34.92-38.38
				c-8.87,0-13.98,4.11-16.76,7.51c-9.62,11.78-5.72,25.08-5.19,27c1.45,5.28,5.31,8.02,8.25,8.02c2.11,0,6.06-1.04,8.78-7.99
				c1.2-3.06,2.65-6.27,7.17-6.35c2.76-0.05,5.98,1.92,7.67,3.91c2.88,3.38,7.06,12.91,1.3,19.79
				c-11.78,14.05-40.11,43.93-29.62,90.89c4.66,20.84,10.13,31.14,21.8,47.39c15.18,21.12,37.11,37.98,65.18,50.1
				c13.79,5.96,28.69,11.88,44.47,18.14c51.78,20.58,110.48,43.9,135.19,72.26l3.02,3.46l3.02-3.46
				c24.71-28.36,83.4-51.68,135.19-72.26c15.77-6.27,30.67-12.19,44.47-18.14c28.07-12.12,50-28.97,65.18-50.1
				c11.68-16.25,17.15-26.55,21.8-47.39c10.49-46.97-17.84-76.85-29.62-90.89c-5.76-6.87-1.58-16.41,1.3-19.79
				C643.02,412.3,646.25,410.33,649,410.38z"/>
			<path fill="#FE1800" d="M659.9,407.47c2.99,7.65,7.65,6.65,8.98,0.67c1.33-5.99-1.33-21.95-17.62-21.95s-30.01,16.92-30.93,34.58
				c-1.33,25.77-3.21,41.46-9.87,60.52c-6.65,19.07-24.83,45.67-76.71,69.17s-85.13,41.24-106.41,53.65
				C406.06,616.52,400,624.06,400,624.06s-6.06-7.54-27.34-19.95c-21.28-12.41-54.54-30.15-106.41-53.65s-70.06-50.1-76.71-69.17
				c-6.65-19.07-8.54-34.75-9.87-60.52c-0.91-17.66-14.63-34.58-30.93-34.58c-16.29,0-18.95,15.96-17.62,21.95
				c1.33,5.99,5.99,6.98,8.98-0.67s11.97-13.97,20.95-2.99c8.98,10.97,8.31,22.61,1,32.59c-7.32,9.98-33.25,40.24-28.27,72.16
				c4.99,31.92,24.28,75.49,85.13,101.76c60.85,26.27,148.34,53.87,181.08,91.45c32.74-37.58,120.23-65.18,181.08-91.45
				c60.86-26.27,80.14-69.83,85.13-101.76c4.99-31.92-20.95-62.19-28.27-72.16c-7.32-9.98-7.98-21.62,1-32.59
				C647.92,393.5,656.9,399.82,659.9,407.47z"/>
			<g>
				<polygon fill="#FFFFFF" points="400,630.16 405.73,647.79 424.27,647.79 409.27,658.69 415,676.32 400,665.42 385,676.32 
					390.73,658.69 375.73,647.79 394.27,647.79 				"/>
				<polygon fill="#FFFFFF" points="294.11,575.8 292.08,594.22 308.98,601.85 290.82,605.61 288.79,624.04 279.61,607.94 
					261.45,611.7 273.93,597.99 264.74,581.89 281.63,589.51 				"/>
				<polygon fill="#FFFFFF" points="200.6,519.78 192.96,536.67 206.67,549.15 188.25,547.11 180.61,564.01 176.86,545.85 
					158.43,543.82 174.54,534.63 170.78,516.48 184.49,528.96 				"/>
				<polygon fill="#FFFFFF" points="505.89,575.8 507.92,594.22 491.02,601.85 509.18,605.61 511.21,624.04 520.39,607.94 
					538.55,611.7 526.07,597.99 535.26,581.89 518.37,589.51 				"/>
				<polygon fill="#FFFFFF" points="599.4,519.78 607.04,536.67 593.33,549.15 611.75,547.11 619.39,564.01 623.14,545.85 
					641.57,543.82 625.46,534.63 629.22,516.48 615.51,528.96 				"/>
			</g>
		</g>
	</g>
	<g>
		<polygon fill="#FE1800" points="402.71,150.54 419.44,138.39 413.05,118.72 392.37,118.72 385.98,138.39 		"/>
		<polygon points="402.71,79.29 385.98,91.45 392.37,111.11 413.05,111.11 419.44,91.45 		"/>
		<g>
			<polygon points="367.58,105.4 350.85,117.56 357.24,137.23 377.91,137.23 384.3,117.56 			"/>
			<polygon points="437.85,105.4 421.12,117.56 427.51,137.23 448.19,137.23 454.58,117.56 			"/>
		</g>
		<g>
			<polygon points="424.11,146.21 407.38,158.37 413.77,178.04 434.45,178.04 440.84,158.37 			"/>
			<polygon points="381.32,146.21 364.59,158.37 370.98,178.04 391.66,178.04 398.05,158.37 			"/>
		</g>
	</g>
	<g>
		<g>
			<path d="M161.56,114.29v21.45H150.7V90.93h10.86v20.37h22.54V90.93h11.13v44.81H184.1v-21.45H161.56z"/>
			<path d="M202.16,127.86V98.81c0.18-5.43,2.72-8.05,7.6-7.88H238v2.99h-22.27c-1.63,0-2.54,0.81-2.72,2.44v14.66h22v2.99h-22
				v16.02c0,1.81,0.72,2.72,2.17,2.72H238v2.99h-28.79C204.51,135.74,202.16,133.12,202.16,127.86z"/>
			<path d="M276.87,135.74l-21.73-34.49v34.22h-10.32V90.93h11.95l22,35.03V90.93h10.05v44.81H276.87z"/>
			<path d="M296.74,126.78V99.89c0-5.97,2.99-8.96,8.96-8.96h34.49v2.99h-29.87c-1.81-0.18-2.63,0.72-2.44,2.72v33.67
				c-0.18,1.81,0.63,2.63,2.44,2.44h14.66c2.53-0.18,4.07-0.99,4.62-2.44v-18.19h-16.57v-3.26l26.88,0.27v26.61H329.6v-3.8
				c-0.72,2.35-2.72,3.62-5.97,3.8H305.7C299.73,135.74,296.74,132.75,296.74,126.78z"/>
		</g>
		<g>
			<path d="M464.41,135.47v-19.01l-16.29-25.53h10.59l11.95,20.64l12.49-20.64h9.5l-16.57,25.8v18.74H464.41z"/>
			<path d="M507.65,90.93v39.92c0,1.27,0.63,1.9,1.9,1.9h14.94c2.53-0.18,4.07-1.26,4.62-3.26V90.93h10.86v44.81h-11.13v-2.99
				c-0.91,1.81-2.44,2.81-4.62,2.99h-19.55c-5.07-0.54-7.78-3.08-8.15-7.6v-37.2H507.65z"/>
			<path d="M562.48,121.62l-3.8,8.15c-1.63,4.35-6.25,6.34-13.85,5.97c0.72-0.91,1.72-2.62,2.99-5.16c0.91-1.63,1.54-2.81,1.9-3.53
				l16.02-36.39l11.13,0.27l16.57,36.39c0.72,1.99,1.9,4.25,3.53,6.79c0.54,0.72,0.91,1.27,1.09,1.63c-5.61,0-9.05-0.36-10.32-1.09
				c-1.81-0.72-3.44-2.81-4.89-6.25l-2.72-6.79H562.48z M579.05,118.9l-7.6-19.01l-8.15,19.01H579.05z"/>
			<path d="M637.35,135.74l-21.73-34.49v34.22h-10.32V90.93h11.95l22,35.03V90.93h10.05v44.81H637.35z"/>
		</g>
	</g>
	<g>
		<g>
			<path d="M162.45,178.42l-12.86-20.41v20.25h-6.11V151.9h7.07l13.02,20.73V151.9h5.95v26.52H162.45z"/>
			<path d="M195.62,178.42h-6.27v-1.93c-0.54,1.29-1.5,1.93-2.89,1.93h-9.16c-3,0.11-4.55-1.39-4.66-4.5v-4.18
				c0.11-3,1.66-4.39,4.66-4.18h10.93c0.75,0,1.12-0.32,1.12-0.96v-3.05c0-0.64-0.38-0.96-1.12-0.96h-14.78v-1.61h17.36
				c3.21-0.11,4.82,1.61,4.82,5.14V178.42z M178.91,168.62v6.75c0,0.86,0.37,1.29,1.12,1.29h6.75c1.61-0.11,2.46-0.7,2.57-1.77
				v-7.71h-9.32C179.28,167.17,178.91,167.65,178.91,168.62z"/>
			<path d="M204,158.97v2.09c0.54-1.18,1.45-1.87,2.73-2.09h9.16c3.32-0.11,4.98,1.61,4.98,5.14v14.3h-6.11v-16.39
				c0.11-1.07-0.32-1.55-1.29-1.45h-6.75c-1.5,0.11-2.41,0.64-2.73,1.61v16.23h-5.95v-19.44H204z"/>
			<path d="M225.09,172.95v-15.75c0-3.54,1.77-5.3,5.3-5.3h15.91v1.77h-13.02c-1.07-0.11-1.55,0.43-1.45,1.61v19.77
				c-0.11,1.07,0.37,1.55,1.45,1.45h13.18v1.93h-16.07C226.85,178.42,225.09,176.6,225.09,172.95z"/>
			<path d="M256.46,161.06h0.16c0.64-1.29,1.61-2.03,2.89-2.25h8.68c3.32-0.11,4.98,1.66,4.98,5.3v14.3h-6.11v-16.39
				c0.11-1.07-0.32-1.55-1.29-1.45h-6.75c-1.29,0.32-2.14,0.96-2.57,1.93v15.91h-6.11v-26.68h6.11V161.06z"/>
			<path d="M299.4,178.42h-6.27v-1.93c-0.54,1.29-1.5,1.93-2.89,1.93h-9.16c-3,0.11-4.55-1.39-4.66-4.5v-4.18
				c0.11-3,1.66-4.39,4.66-4.18H292c0.75,0,1.12-0.32,1.12-0.96v-3.05c0-0.64-0.38-0.96-1.12-0.96h-14.78v-1.61h17.36
				c3.21-0.11,4.82,1.61,4.82,5.14V178.42z M282.68,168.62v6.75c0,0.86,0.37,1.29,1.12,1.29h6.75c1.61-0.11,2.46-0.7,2.57-1.77
				v-7.71h-9.32C283.06,167.17,282.68,167.65,282.68,168.62z"/>
			<path d="M308.81,158.97v2.09c0.54-1.18,1.45-1.87,2.73-2.09h9.16c3.32-0.11,4.98,1.61,4.98,5.14v14.3h-6.11v-16.39
				c0.11-1.07-0.32-1.55-1.29-1.45h-6.75c-1.5,0.11-2.41,0.64-2.73,1.61v16.23h-5.95v-19.44H308.81z"/>
			<path d="M330.72,183.72h13.34c1.29,0.11,1.87-0.54,1.77-1.93v-5.46c-0.54,1.29-1.61,1.93-3.21,1.93h-8.68
				c-3.32,0.11-4.93-1.61-4.82-5.14v-9c-0.11-3.64,1.5-5.41,4.82-5.3h9.48c0.96,0.11,1.77,0.8,2.41,2.09v-2.09h6.43v21.05
				c0,3.64-1.61,5.52-4.82,5.62h-16.71V183.72z M345.82,174.88v-12.53c-0.11-0.96-0.7-1.55-1.77-1.77h-7.39
				c-0.86-0.11-1.29,0.32-1.29,1.29v13.34c0,0.96,0.43,1.45,1.29,1.45h7.07C345.02,176.55,345.72,175.95,345.82,174.88z"/>
		</g>
		<g>
			<path d="M458.54,151.9h6.59v2.41c0.64-1.61,1.61-2.41,2.89-2.41h10.77c3.54,0,5.3,1.71,5.3,5.14v2.57
				c0.11,3.32-1.82,5.09-5.79,5.3c3.96,0.22,5.89,2.09,5.79,5.62v2.73c0,3.43-1.77,5.14-5.3,5.14h-10.61
				c-1.5-0.11-2.57-0.91-3.21-2.41v2.41h-6.43V151.9z M465.13,164.12h11.09c0.96,0,1.39-0.59,1.29-1.77v-6.91
				c0.11-1.29-0.32-1.87-1.29-1.77h-8.68c-1.5,0.11-2.31,0.91-2.41,2.41V164.12z M467.7,176.65h8.52c0.96,0,1.39-0.59,1.29-1.77
				v-7.07c0.11-1.39-0.32-2.03-1.29-1.93h-11.09v8.2C465.23,175.69,466.09,176.55,467.7,176.65z"/>
			<path d="M510.76,178.42h-6.27v-1.93c-0.54,1.29-1.5,1.93-2.89,1.93h-9.16c-3,0.11-4.55-1.39-4.66-4.5v-4.18
				c0.11-3,1.66-4.39,4.66-4.18h10.93c0.75,0,1.12-0.32,1.12-0.96v-3.05c0-0.64-0.38-0.96-1.12-0.96h-14.78v-1.61h17.36
				c3.21-0.11,4.82,1.61,4.82,5.14V178.42z M494.05,168.62v6.75c0,0.86,0.37,1.29,1.12,1.29h6.75c1.61-0.11,2.46-0.7,2.57-1.77
				v-7.71h-9.32C494.42,167.17,494.05,167.65,494.05,168.62z"/>
			<path d="M550.07,158.81v19.61h-6.27v-19.61H550.07z M549.74,152.39v4.66h-5.62v-4.66H549.74z"/>
			<path d="M570.06,178.42v-21.05c-0.22-3.86,1.39-5.68,4.82-5.46h16.71v1.77h-12.21c-1.93,0-2.89,1.07-2.89,3.21v7.07h14.46v1.93
				h-14.46v12.53H570.06z"/>
			<path d="M595.27,178.42v-5.46h6.75v5.46H595.27z"/>
			<path d="M606.43,172.95v-15.75c0-3.54,1.77-5.3,5.3-5.3h15.91v1.77h-13.02c-1.07-0.11-1.55,0.43-1.45,1.61v19.77
				c-0.11,1.07,0.38,1.55,1.45,1.45h13.18v1.93h-16.07C608.2,178.42,606.43,176.6,606.43,172.95z"/>
			<path d="M631.77,178.42v-5.46h6.75v5.46H631.77z"/>
			<g>
				<path d="M523.61,178v-10.96l-9.4-14.72h6.11l6.89,11.9l7.2-11.9h5.48l-9.55,14.88V178H523.61z"/>
			</g>
		</g>
	</g>
	<g>
		<path fill="#FFFFFF" d="M484.39,303.35h-15.66l-30.6-53.22v53.22h-14.59v-74.93h16.42l29.84,52.31v-52.31h14.59V303.35z"/>
		<path fill="#FFFFFF" d="M539.49,303.35h-33.96v-74.93h36.4c9.18,0.14,15.69,2.8,19.52,7.98c2.3,3.19,3.46,7,3.46,11.44
			c0,4.58-1.15,8.25-3.46,11.03c-1.29,1.56-3.19,2.98-5.69,4.27c3.83,1.39,6.72,3.59,8.67,6.61c1.95,3.02,2.92,6.68,2.92,10.98
			c0,4.44-1.12,8.42-3.36,11.95c-1.42,2.34-3.2,4.3-5.34,5.9c-2.41,1.83-5.24,3.08-8.51,3.76
			C546.87,303.01,543.32,303.35,539.49,303.35z M546.91,256.07c2.03-1.22,3.05-3.41,3.05-6.56c0-3.49-1.36-5.8-4.07-6.91
			c-2.34-0.78-5.32-1.17-8.95-1.17h-16.47v16.52h18.4C542.16,257.95,544.84,257.33,546.91,256.07z M539.13,270.36h-18.66v19.98h18.4
			c3.29,0,5.85-0.44,7.68-1.32c3.32-1.63,4.98-4.74,4.98-9.35c0-3.9-1.61-6.57-4.83-8.03C544.91,270.81,542.38,270.39,539.13,270.36
			z"/>
		<path fill="#FFFFFF" d="M468.32,392.58v-33.45h-29.28v33.45h-15.5v-74.93h15.5v28.57h29.28v-28.57h15.56v74.93H468.32z"/>
		<path fill="#FFFFFF" d="M563.05,330.87h-41.97v17.23h37.29v13.01h-37.29v31.42h-15.56V317.7h57.52V330.87z"/>
	</g>
</g>
<g>
</g>
<g>
</g>
<g>
</g>
<g>
</g>
<g>
</g>
<g>
</g>
<g>
</g>
<g>
</g>
<g>
</g>
<g>
</g>
<g>
</g>
</svg>
