<svg version="1.1" xmlns="http://www.w3.org/2000/svg" xmlns:xlink="http://www.w3.org/1999/xlink" x="0px" y="0px"
	 viewBox="0 0 800 800" enable-background="new 0 0 800 800" xml:space="preserve">
<g>
	<circle fill="#FFFFFF" cx="400" cy="400" r="350"/>
	<path fill="#052490" d="M400,50C206.7,50,50,206.7,50,400s156.7,350,350,350s350-156.7,350-350S593.3,50,400,50z M67.1,400
		c0-2.8,0-5.5,0.1-8.3l151.4-159.6c0.1,14.6,2.5,43.2,16.7,69.4L74.7,470.9C69.7,448.1,67.1,424.3,67.1,400z M77.8,483.8
		l163.6-172.4c5.2,7.6,11.5,14.7,19.3,21c8.6,7,17.5,12.8,26.8,17.5L101,546.4C91.2,526.6,83.4,505.7,77.8,483.8z M400,732.9
		c-105.3,0-199.2-48.9-260.2-125.3l0,0c-12.6-15.8-23.8-32.7-33.4-50.7l191.9-202.2c23.9,9.3,49.8,11,77.6,4L215,528.3
		c38.5,24.9,84.3,39.3,133.5,39.3c136,0,246.3-110.3,246.3-246.3S484.5,75,348.5,75c-9.1,0-18.1,0.5-27,1.5
		c25.2-6.1,51.4-9.3,78.5-9.3c183.8,0,332.9,149,332.9,332.9S583.8,732.9,400,732.9z"/>
	<circle fill="#183077" cx="358.8" cy="228" r="115.4"/>
	<circle fill="#FFFFFF" cx="358.8" cy="228" r="109.4"/>
	<circle fill="#052490" cx="358.8" cy="228" r="98"/>
	<path fill="#052490" d="M358.8,128.2c55.2,0,99.9,44.7,99.9,99.9s-44.7,99.9-99.9,99.9s-99.9-44.7-99.9-99.9
		S303.6,128.2,358.8,128.2 M358.8,126.2c-27.2,0-52.7,10.6-72,29.8c-19.2,19.2-29.8,44.8-29.8,72s10.6,52.7,29.8,72
		c19.2,19.2,44.8,29.8,72,29.8c27.2,0,52.7-10.6,72-29.8c19.2-19.2,29.8-44.8,29.8-72s-10.6-52.7-29.8-72S385.9,126.2,358.8,126.2
		L358.8,126.2z"/>
	<g>
		<path fill="#FFFFFF" d="M280.3,180.6c0,0,17.4-35.7,66.1-43.6v5.1c0,0,7.6,3.6,29.5,8.6c0,0,2.4,21.1,5.6,24.9l-4.1-5.5v7.9
			c0,0-21,19.8-24.7,24c0,0-5.5,2.2-14.1,1.7c-8.5-0.5-29.1-3.2-31.3-6.6s-6.2-18.7-6.5-21.8c-0.3-3.2,10.8-14.4,25.3-25
			c0,0-19.1,9.8-27.2,22.3C298.9,172.6,283.1,179.2,280.3,180.6z"/>
		<path fill="#FFFFFF" d="M378.6,150.4c0,0,10.6-3,13.3-4c2.6-1.1,6.5-3,13.6,2s18.3,13.1,20.9,16.7c2.5,3.6,4.8,19.2,4.7,20.9
			c-0.1,1.7-5.8,4.8-10.5,6.2c-4.7,1.4-5.9,1.6-12.8-3.4c-6.9-5-16.1-8.1-20.6-9.7C382.9,177.5,378.1,159.7,378.6,150.4z"/>
		<path fill="#FFFFFF" d="M416.9,199.5c0.6-2.4,11.1-9.2,14.2-9.3c3.2-0.2,16.9,19.5,18.7,22.1c1.7,2.7,1.7,21,1.3,24.8
			c-0.5,3.8-10.8,8.5-14.4,12c-3.6,3.5-7.6,7.3-9.6,4.6c-2.1-2.7-12.5-15.2-13.8-20.6c-1.3-5.4,0.9-11.7,2.1-16.3
			S416.4,201.4,416.9,199.5z"/>
		<path fill="#FFFFFF" d="M424.1,254.6c-1.5-3-11.8-19.1-19.2-16.4c-7.4,2.7-27.6,4.6-31.2,4.9c-4,0.3-19,28.5-20.9,32.5
			c-1.9,4-5.3,9.9-1.1,13.1c4.2,3.2,14.3,16.2,14.3,16.2s7.6,1.9,26.6-2.3c19-4.2,27.8-12.4,28.9-19
			C422.6,277,425.6,257.6,424.1,254.6z M411.6,294.1c-11.9,6.6-38.1,8.4-38.1,8.4c21.5-4.3,34.8-9.5,40.9-15.3
			c5.1-4.8,6.7-19.5,6.7-19.5C421.3,278,424.1,287.2,411.6,294.1z"/>
		<path fill="#FFFFFF" d="M317.3,204.3c4,0.2,29.7,1.1,33.1,5.1c3.4,4,6.7,15.1,9.6,19.7c2.8,4.6,6.5,10,6.8,12.5
			c0.3,2.5-3.6,13.6-12.2,25.8s-10,16.3-22.1,17.1c-12.2,0.8-15.3,2.7-24.4-5.7c-9-8.4-18.7-23.6-19.5-35.1s1.9-12.3,3.8-15.3
			c1.9-3,10.9-18.3,12.2-20.7S308,203.8,317.3,204.3z"/>
		<path fill="#FFFFFF" d="M273.3,234.2c0,0,7,29.1,31,47.4c0,0-15.6-24.7-19-35.6S281.5,235,273.3,234.2z"/>
		<path fill="#FFFFFF" d="M282.8,184.7c0,0,8.2-5.3,11.6-4.6s5.5,8.4,6.5,17.5c0,0-5.9-14.5-7.2-14.5
			C292.5,183,288.3,182.8,282.8,184.7z"/>
		<path fill="#FFFFFF" d="M350.6,136.3c0,0,17.6-3.8,28,1.7C378.6,138,363.7,136.2,350.6,136.3z"/>
		<path fill="#FFFFFF" d="M366.2,195.7c0,0,12.7-11.7,14.5-11.9c1.9-0.2,4.3-1,19.9,6.3c0,0-11.8-9.5-19.1-9.3
			C374.2,181,366.2,195.7,366.2,195.7z"/>
	</g>
	<g>
		<linearGradient id="SVGID_1_" gradientUnits="userSpaceOnUse" x1="346.8578" y1="484.5962" x2="362.0752" y2="484.5962">
			<stop  offset="0" style="stop-color:#E4BD7C"/>
			<stop  offset="0.5" style="stop-color:#C19A3E"/>
			<stop  offset="1" style="stop-color:#E0C7A1"/>
		</linearGradient>
		<path fill="url(#SVGID_1_)" d="M353.5,459.4h-6.7v8.6h4.8c1.1,0,1.9,0.9,1.9,1.9v39.9h8.6V468v-1c0-4.2-3.4-7.6-7.6-7.6H353.5z"/>
		<linearGradient id="SVGID_2_" gradientUnits="userSpaceOnUse" x1="368.936" y1="484.5961" x2="394.6154" y2="484.5961">
			<stop  offset="0" style="stop-color:#E4BD7C"/>
			<stop  offset="0.5" style="stop-color:#C19A3E"/>
			<stop  offset="1" style="stop-color:#E0C7A1"/>
		</linearGradient>
		<path fill="url(#SVGID_2_)" d="M368.9,467v14.4c0,4.2,3.4,7.6,7.6,7.6h9.5v10.3c0,1.1-0.9,1.9-1.9,1.9h-14.3v8.6H387
			c4.2,0,7.6-3.4,7.6-7.6V467c0-4.2-3.4-7.6-7.6-7.6h-10.5C372.3,459.4,368.9,462.8,368.9,467z M377.5,478.6v-8.7
			c0-1.1,0.9-1.9,1.9-1.9h4.8c1.1,0,1.9,0.9,1.9,1.9v8.7c0,1.1-0.9,1.9-1.9,1.9h-4.8C378.3,480.5,377.5,479.6,377.5,478.6z"/>
		<linearGradient id="SVGID_3_" gradientUnits="userSpaceOnUse" x1="401.8897" y1="484.5961" x2="427.569" y2="484.5961">
			<stop  offset="0" style="stop-color:#E4BD7C"/>
			<stop  offset="0.5" style="stop-color:#C19A3E"/>
			<stop  offset="1" style="stop-color:#E0C7A1"/>
		</linearGradient>
		<path fill="url(#SVGID_3_)" d="M427.6,478.9V467c0-4.2-3.4-7.6-7.6-7.6h-10.5c-4.2,0-7.6,3.4-7.6,7.6v11.9c0,3.2,2.6,5.7,5.7,5.7
			c-3.2,0-5.7,2.6-5.7,5.7v11.9c0,4.2,3.4,7.6,7.6,7.6H420c4.2,0,7.6-3.4,7.6-7.6v-11.9c0-3.2-2.6-5.7-5.7-5.7
			C425,484.6,427.6,482,427.6,478.9z M419,499.3c0,1.1-0.9,1.9-1.9,1.9h-4.8c-1.1,0-1.9-0.9-1.9-1.9v-8.6c0-1.1,0.9-1.9,1.9-1.9h4.8
			c1.1,0,1.9,0.9,1.9,1.9V499.3z M410.4,469.9c0-1.1,0.9-1.9,1.9-1.9h4.8c1.1,0,1.9,0.9,1.9,1.9v8.6c0,1.1-0.9,1.9-1.9,1.9h-4.8
			c-1.1,0-1.9-0.9-1.9-1.9V469.9z"/>
		<linearGradient id="SVGID_4_" gradientUnits="userSpaceOnUse" x1="434.971" y1="484.755" x2="460.6504" y2="484.755">
			<stop  offset="0" style="stop-color:#E4BD7C"/>
			<stop  offset="0.5" style="stop-color:#C19A3E"/>
			<stop  offset="1" style="stop-color:#E0C7A1"/>
		</linearGradient>
		<path fill="url(#SVGID_4_)" d="M460.7,479v-12c0-4.2-3.4-7.6-7.6-7.6H435v8.6h15.2c1.1,0,1.9,0.9,1.9,1.9v8.7
			c0,1.1-0.9,1.9-1.9,1.9h-7.6v4.3v4.3h7.6c1.1,0,1.9,0.9,1.9,1.9v8.7c0,1.1-0.9,1.9-1.9,1.9H435v8.6H453c4.2,0,7.6-3.4,7.6-7.6v-12
			c0-3.2-2.6-5.7-5.7-5.7C458.1,484.8,460.7,482.2,460.7,479z"/>
	</g>
	<g>
		<path fill="#052490" d="M238.6,563.8l-48,61.5l23.2,18.2c5.4,4.2,13.2,3.2,17.4-2.1l32.8-42c4.2-5.4,3.2-13.2-2.1-17.4
			L238.6,563.8z M219.2,631.9l-9-7c-1.2-1-1.5-2.8-0.5-4l29.3-37.5c1-1.2,2.8-1.5,4-0.5l9,7c1.2,1,1.5,2.8,0.5,4l-29.3,37.5
			C222.2,632.6,220.4,632.9,219.2,631.9z"/>
		<path fill="#052490" d="M268.9,604.9l-24,61.1l11.5,4.5l12-30.5l15.9,6.3l-12,30.5l11.5,4.5l24-61.1c2.5-6.4-0.6-13.5-7-16
			l-15.9-6.3C278.5,595.4,271.4,598.5,268.9,604.9z M288.8,634.7l-15.9-6.3l6.1-15.5c0.8-2,3-2.9,4.9-2.1l8.9,3.5
			c2,0.8,2.9,3,2.1,4.9L288.8,634.7z"/>
		<path fill="#052490" d="M320.3,675.1l8.6-62.2l-12.2-1.7l-9,65c-0.9,6.8,3.8,13,10.5,13.9l22.6,3.5l1.7-12.2l-19.8-3.1
			C321.2,678.1,320.1,676.6,320.3,675.1z"/>
		<rect x="359.8" y="617.2" fill="#052490" width="12.4" height="78"/>
		<polygon fill="#052490" points="457.4,604.4 470.8,647.6 441.1,609.4 429.3,613.1 452.3,687.6 464.1,683.9 450.7,640.7 
			480.5,678.9 492.3,675.2 469.2,600.7 		"/>
		<path fill="#052490" d="M603.3,538.4L591,528c-5.2-4.4-13-3.7-17.4,1.5l-19,22.5l59.6,50.3l8-9.5l-25.1-21.2l8-9.5
			c1.7-2,4.7-2.3,6.7-0.6l21.5,18.1l8-9.5l-21.8-18.4c-4.4-3.7-11-3.2-14.7,1.3C608.3,548.7,607.8,542.1,603.3,538.4z M572,550.5
			l8.6-10.2c1.4-1.6,3.8-1.8,5.4-0.5l6.9,5.8c3.2,2.7,3.6,7.5,0.9,10.7l-6.1,7.3L572,550.5z"/>
		<path fill="#052490" d="M383.3,630.9l6.7,65.3l12.3-1.3l-3.3-32.6l17-1.7l3.3,32.6l12.3-1.3l-6.7-65.3c-0.7-6.8-6.8-11.7-13.6-11
			l-17,1.7C387.5,618,382.6,624.1,383.3,630.9z M414.7,648.2l-17,1.7l-1.7-16.6c-0.2-2.1,1.3-4,3.4-4.2l9.5-1c2.1-0.2,4,1.3,4.2,3.4
			L414.7,648.2z"/>
		<path fill="#052490" d="M516.2,580.6l48.4,61.2l9.7-7.7l-14.7-18.7l13.4-10.6c5.4-4.2,6.3-12,2-17.4l-18.3-23.1
			c-4.2-5.4-12-6.3-17.4-2L516.2,580.6z M562.3,597.5l-7.5,5.9c-1.6,1.3-4,1-5.3-0.6L536,585.6c-1.3-1.6-1-4,0.6-5.3l7.5-5.9
			c1.6-1.3,4-1,5.3,0.6l13.6,17.2C564.3,593.8,564,596.2,562.3,597.5z"/>
		<path fill="#052490" d="M596.3,521.5l47.7,23.7c6.1,3,13.5,0.5,16.6-5.6l7.6-15.3c3-6.1,0.5-13.5-5.6-16.6L614.9,484
			c-6.1-3-13.5-0.5-16.6,5.6l-7.6,15.3C587.7,511,590.2,518.4,596.3,521.5z M655.4,522.1l-4.2,8.5c-0.9,1.9-3.2,2.7-5.1,1.7
			l-40.9-20.3c-1.9-0.9-2.7-3.2-1.7-5.1l4.2-8.5c0.9-1.9,3.2-2.7,5.1-1.7l40.9,20.3C655.6,518,656.4,520.2,655.4,522.1z"/>
	</g>
</g>
<g>
</g>
<g>
</g>
<g>
</g>
<g>
</g>
<g>
</g>
<g>
</g>
<g>
</g>
<g>
</g>
<g>
</g>
<g>
</g>
<g>
</g>
</svg>
