<?xml version="1.0" encoding="UTF-8"?>
<svg data-name="图层_1" xmlns="http://www.w3.org/2000/svg" version="1.1" viewBox="0 0 800 800">
  <!-- Created by @FCLOGO 2024-12-16 GMT+8 17:12:03 . https://fclogo.top/ -->
<!-- FOR PERSONAL USE ONLY NOT FOR COMMERCIAL USE -->
<!-- Created by @FCLOGO 2024-12-16 GMT+8 17:12:03 . https://fclogo.top/ -->
<!-- FOR PERSONAL USE ONLY NOT FOR COMMERCIAL USE -->
  <path d="M348.2194,774.301c-.786,0-1.3752-.2173-1.7682-.6519-.393-.4352-.5284-1.03-.406-1.7856l.2518-1.6478c.122-.755.4501-1.3504.9841-1.785.5339-.4352,1.1939-.6525,1.9799-.6525.7553,0,1.3293.1987,1.7223.5954.3927.3967.551.9381.4747,1.6248h-1.2358c.0304-.3589-.0553-.637-.2573-.8357-.2024-.1981-.4979-.2974-.8869-.2974-.4197,0-.763.1167-1.03.3489-.2673.2328-.4349.5631-.5035.9903l-.2632,1.659c-.0686.4352-.0056.7686.1887,1.0015.1946.2328.5017.3489.9214.3489.389,0,.7152-.0987.9785-.2974.2632-.1981.4365-.4805.5206-.8469h1.2358c-.1372.6867-.4672,1.2306-.9897,1.631-.5228.4005-1.1616.6004-1.9169.6004ZM352.7967,774.1868l.9956-6.2943h1.1902l-.1946,1.1902c.3359-.8698.9729-1.3044,1.9113-1.3044.6712,0,1.1691.208,1.4932.624.3244.416.4293.9859.3148,1.7105l-.0686.4234h-1.2703l.0571-.3204c.0689-.4501.0115-.7953-.1714-1.0356-.1832-.2403-.4771-.3607-.8813-.3607-.4045,0-.7401.1223-1.007.3663-.2673.2446-.4349.588-.5035,1.03l-.6296,3.9711h-1.2358ZM361.9058,774.301c-.7705,0-1.3463-.2229-1.7279-.6693s-.515-1.0356-.4005-1.7682l.2518-1.6478c.0838-.488.2573-.9152.5206-1.2815s.6007-.6507,1.0129-.8524c.4119-.2024.8732-.3036,1.3845-.3036.7705,0,1.3485.2235,1.7338.6693.3852.4464.5169,1.0356.3949,1.7682l-.1717,1.1213h-3.845l-.0916.5265c-.1527.9536.2173,1.4305,1.1098,1.4305.7171,0,1.175-.2477,1.3734-.7438h1.2247c-.1679.5339-.5035.9599-1.007,1.2759-.5038.3166-1.0912.475-1.7626.475ZM361.2306,770.2157l-.0456.2862,2.6548-.0118.0459-.2856c.0686-.4656.0133-.822-.1661-1.0704-.1791-.2477-.4861-.3719-.9211-.3719-.4427,0-.7953.126-1.0586.3775-.2632.2521-.4331.6109-.5094,1.076ZM368.3258,774.301c-.6333,0-1.1027-.2117-1.4078-.6351s-.3967-1.0008-.2744-1.7335l.2744-1.7738c.1145-.7326.393-1.3119.8357-1.7397.4424-.4272.98-.6407,1.6133-.6407.4653,0,.8298.1186,1.093.3545.2632.2365.3908.5575.3834.9617h.023l.1717-1.202h1.2358l-.9956,6.2943h-1.2247l.1946-1.2014h-.023c-.122.4116-.3511.7339-.6867.9667s-.7401.3489-1.2129.3489ZM368.9324,773.2257c.389,0,.7152-.1186.9782-.3551.2632-.2359.4293-.5718.4979-1.007l.2518-1.6478c.0686-.4272.0096-.7612-.1773-1.0015-.1872-.2403-.475-.3601-.8642-.3601-.3967,0-.7249.118-.9841.3545-.2595.2365-.4234.5724-.492,1.007l-.2518,1.6478c-.0686.4427-.0133.7804.1658,1.0133.1794.2328.4712.3489.8757.3489ZM376.3477,774.1868c-.5721,0-.9937-.1565-1.2644-.4694-.271-.3123-.3607-.7512-.2691-1.3156l.538-3.3874h-1.7394l.1714-1.1219h1.7397l.2747-1.7161h1.2358l-.2747,1.7161h2.472l-.1832,1.1219h-2.4605l-.5377,3.3874c-.0764.4421.099.6637.5262.6637h1.7167l-.1717,1.1213h-1.7738ZM382.5042,774.301c-.7705,0-1.3463-.2229-1.7279-.6693s-.515-1.0356-.4005-1.7682l.2518-1.6478c.0838-.488.2573-.9152.5206-1.2815s.6007-.6507,1.0129-.8524c.4119-.2024.8732-.3036,1.3845-.3036.7705,0,1.3485.2235,1.7338.6693.3852.4464.5169,1.0356.3949,1.7682l-.1717,1.1213h-3.845l-.0916.5265c-.1527.9536.2173,1.4305,1.1098,1.4305.7171,0,1.175-.2477,1.3734-.7438h1.2247c-.1679.5339-.5035.9599-1.007,1.2759-.5038.3166-1.0912.475-1.7626.475ZM381.829,770.2157l-.0456.2862,2.6548-.0118.0459-.2856c.0686-.4656.0133-.822-.1661-1.0704-.1791-.2477-.4861-.3719-.9211-.3719-.4427,0-.7953.126-1.0586.3775-.2632.2521-.4331.6109-.5094,1.076ZM388.9243,774.301c-.6333,0-1.1008-.2117-1.4019-.6351-.3014-.4234-.3949-1.0008-.2803-1.7335l.2744-1.7738c.1145-.7326.393-1.3119.8357-1.7397.4424-.4272.98-.6407,1.6133-.6407.4653,0,.8298.1186,1.093.3545.2632.2365.3908.5575.3834.9617h.023l.2058-1.4652.2977-1.7962h1.2358l-1.3274,8.3537h-1.2247l.1946-1.2014h-.023c-.122.4116-.3511.7339-.6867.9667s-.7401.3489-1.2129.3489ZM389.5309,773.2257c.389,0,.7152-.1186.9782-.3551.2632-.2359.4293-.5718.4979-1.007l.2518-1.6478c.0761-.4272.0189-.7612-.1717-1.0015-.1909-.2403-.4805-.3601-.8698-.3601-.3967,0-.7249.118-.9841.3545-.2595.2365-.4234.5724-.492,1.007l-.2518,1.6478c-.0764.4427-.023.7804.1602,1.0133s.4768.3489.8813.3489ZM401.0175,774.301c-.4731,0-.8394-.1161-1.0986-.3489-.2595-.2328-.3852-.5551-.3775-.9667h-.0115l-.1946,1.2014h-1.2243l1.3274-8.3537h1.2358l-.2862,1.7962-.2744,1.4652h.0456c.122-.4123.353-.7345.6923-.9673.3396-.2322.7419-.3489,1.2076-.3489.633,0,1.1002.2136,1.4016.6407.3014.4278.3949,1.007.2806,1.7397l-.2747,1.7738c-.1145.7326-.3949,1.31-.8413,1.7335-.4461.4234-.9822.6351-1.6077.6351ZM400.7657,773.2257c.3967,0,.7227-.1161.9785-.3489.2555-.2328.4216-.5706.4976-1.0133l.2518-1.6478c.0689-.4346.0115-.7705-.1714-1.007-.1832-.2365-.4734-.3545-.8698-.3545-.3893,0-.7152.1198-.9785.3601s-.429.5743-.4979,1.0015l-.2518,1.6478c-.0686.4352-.0112.7711.1717,1.007.1832.2365.4731.3551.8698.3551ZM405.4694,776.2468l.1717-1.0642h1.934c.6407,0,1.007-.3017,1.0986-.9046l.1028-.6749.2061-1.1902h-.0345c-.122.4197-.3471.7438-.6752.9729-.3281.2285-.7286.3433-1.2014.3433-.6258,0-1.093-.2005-1.4019-.601s-.4104-.9443-.3033-1.631l.5836-3.6047h1.2358l-.5606,3.4793c-.0612.4116,0,.732.1832.9611s.4653.3433.8469.3433c.389,0,.7168-.1217.9841-.3663.267-.244.4309-.5836.492-1.0182l.538-3.3992h1.2358l-1.007,6.4086c-.0993.6029-.37,1.0778-.8124,1.4249-.4427.3471-.9996.5209-1.6707.5209h-1.9455ZM417.787,770.0853h3.221l.5368-1.8545h-5.4659l-1.7081,6.4419h2.1473l.5856-2.0985h3.0257l.4392-1.7081h-3.0257l.244-.7808ZM424.229,772.9158c-.5856,0-1.0249-.3904-1.0249-1.1225,0-.8784.6344-1.7569,1.6105-1.7569.488,0,.8784.244,1.0248.7808l1.9521-.8296c-.2928-1.1713-1.2689-1.9033-2.6353-1.9033-2.7817,0-4.1482,2.1473-4.1482,3.9042s1.2689,2.8305,3.0746,2.8305c1.3665,0,2.3425-.5856,2.9769-1.4153l-1.5129-1.1713c-.3904.4392-.8296.6832-1.3177.6832ZM430.9149,768.2308h-2.1473l-1.7569,6.4419h5.1242l.488-1.8545h-2.9281l1.2201-4.5874ZM439.7481,771.0125c0-1.6593-1.3177-2.9281-3.221-2.9281-2.1961,0-3.8066,1.8057-3.8066,3.8066,0,1.6593,1.3177,2.9281,3.221,2.9281,2.1961,0,3.8066-1.8057,3.8066-3.8066ZM434.9167,771.6957c0-.8296.5856-1.7081,1.5129-1.7081.7808,0,1.1713.5368,1.1713,1.2201,0,.8296-.5856,1.7081-1.5129,1.7081-.7808,0-1.1713-.5368-1.1713-1.2201ZM443.2131,772.2326h1.0737l-.1952.6832c-.1464.0488-.3416.0976-.5856.0976-.6832,0-1.2689-.3904-1.2689-1.2201,0-1.0249.732-1.9033,1.9521-1.9033.5856,0,1.1225.244,1.5129.5856l1.3665-1.3665c-.4392-.5368-1.5129-1.0737-2.7329-1.0737-2.5865,0-4.2946,1.7569-4.2946,3.8554,0,2.0497,1.6105,2.8793,3.221,2.8793.9272,0,1.8545-.2928,2.4889-.6832l.9272-3.3186h-3.1234l-.3416,1.4641ZM450.7775,768.0844c-2.1961,0-3.8066,1.8057-3.8066,3.8066,0,1.6593,1.3177,2.9281,3.221,2.9281,2.1961,0,3.8066-1.8057,3.8066-3.8066,0-1.6593-1.3177-2.9281-3.221-2.9281ZM450.3382,772.9158c-.7808,0-1.1713-.5368-1.1713-1.2201,0-.8296.5856-1.7081,1.5129-1.7081.7808,0,1.1713.5368,1.1713,1.2201,0,.8296-.5856,1.7081-1.5129,1.7081ZM437.9424,767.4987c-.0488.2928.0976.488.4392.488s.5368-.1952.6344-.488c.0488-.244-.0976-.488-.4392-.488s-.5856.244-.6344.488ZM432.1349,765.4978c-.4392,0-.732.244-.7808.5856s.0976.5856.5368.5856.732-.244.7808-.5856c.0976-.3416-.0976-.5856-.5368-.5856ZM433.0134,767.3035c-.0976.5368.1464.8784.8296.8784.6344,0,1.0737-.3904,1.1713-.8784s-.1464-.8784-.8296-.8784c-.6832,0-1.0737.3904-1.1713.8784ZM439.6017,777.552l-2.4401-1.8057h-1.5129l4.2458,3.1722,1.6105-3.1722h-.976l-.9272,1.8057ZM425.8394,767.1571l-2.0009-1.4641,23.1323-2.7817-2.1473,4.2458h1.0248l2.6841-5.3195-26.9877,3.221,2.7817,2.0985h1.5129ZM338.7186,785.7853l.6088-3.8315h2.32l-.084.5194h-1.7636l-.1837,1.1445h1.6272l-.084.5248h-1.6166l-.2573,1.6428h-.5668ZM342.97,785.8377c-.3568,0-.6228-.1005-.7978-.3019-.175-.201-.2345-.473-.1784-.8161l.2677-1.7006c.056-.3429.2029-.6148.4408-.8161.2379-.201.5355-.3019.8923-.3019s.6228.1.7979.2993c.1748.1993.2361.4707.1837.8136l-.2677,1.7057c-.0561.3431-.2039.6151-.4435.8161-.2398.2013-.5381.3019-.895.3019ZM343.0487,785.3339c.1925,0,.3483-.0524.4672-.1575.119-.1051.1942-.2571.2257-.4568l.2678-1.7006c.0315-.1993.0051-.3517-.0787-.4565-.084-.1051-.2223-.1575-.4148-.1575s-.3473.0524-.4645.1575c-.1173.1048-.1916.2571-.2231.4565l-.2677,1.7006c-.0315.1996-.0053.3517.0787.4568s.2204.1575.4094.1575ZM344.9961,785.7853l.6088-3.8315h1.202c.2379,0,.4391.0464.6036.139.1645.0928.2835.223.357.391s.091.3656.0524.5932c-.0384.2591-.14.4838-.3044.6746-.1645.1905-.3656.3209-.6036.391l.5354,1.6428h-.6194l-.4777-1.5748h-.5406l-.2466,1.5748h-.5668ZM345.8883,783.7068h.6352c.1889,0,.349-.0558.4803-.168.1313-.1119.2107-.2623.2388-.4514.0316-.1925,0-.3454-.0944-.4593-.0945-.1136-.2362-.1706-.4252-.1706h-.6352l-.1995,1.2493ZM349.545,785.7853l.6088-3.8315h1.2544c.3709,0,.6508.1048.8399.315.1889.2099.2553.4898.1993.8398-.0384.2344-.1216.4383-.2493.6114s-.2905.307-.4881.4015c-.1978.0945-.419.1418-.6639.1418h-.6928l-.2415,1.5221h-.5668ZM350.432,783.754h.6928c.1924,0,.3568-.0587.4934-.176.1364-.117.2204-.2737.2519-.4696s-.0017-.3525-.0997-.4699-.245-.1757-.441-.1757h-.6876l-.2099,1.2911ZM352.7466,785.7853l.6088-3.8315h2.2518l-.0787.5038h-1.6954l-.1731,1.0867h1.5115l-.0787.4986h-1.5115l-.1942,1.2387h1.6901l-.0787.5038h-2.2518ZM355.8434,785.7853l.6088-3.8315h1.202c.2379,0,.4391.0464.6036.139.1645.0928.2835.223.357.391s.091.3656.0524.5932c-.0384.2591-.14.4838-.3044.6746-.1645.1905-.3656.3209-.6036.391l.5354,1.6428h-.6194l-.4777-1.5748h-.5406l-.2466,1.5748h-.5668ZM356.7356,783.7068h.6352c.1889,0,.349-.0558.4803-.168.1313-.1119.2107-.2623.2388-.4514.0316-.1925,0-.3454-.0944-.4593-.0945-.1136-.2362-.1706-.4252-.1706h-.6352l-.1995,1.2493ZM360.1316,785.8377c-.385,0-.6736-.0951-.8661-.2859-.1924-.1908-.2641-.4505-.2151-.7794h.5668c-.028.1748.0105.3121.1155.4121.1051.0997.266.1495.483.1495.2029,0,.3701-.049.5012-.1469.1313-.098.2109-.2327.2389-.4044.0209-.1504.0007-.2788-.0604-.3856-.0614-.1068-.1583-.1811-.2913-.2233l-.4566-.1364c-.266-.0803-.4619-.217-.5879-.4095-.126-.1922-.1697-.4197-.1313-.6823.035-.2099.1121-.3935.2309-.551s.2729-.2799.4619-.3673.4024-.1313.6404-.1313c.3498,0,.6158.0954.7978.2859.182.1908.2485.4437.1995.7586h-.5668c.0279-.168-.0027-.3001-.092-.3964-.0891-.0963-.2301-.1444-.4225-.1444-.1889,0-.343.0447-.4619.1338-.119.0894-.1889.2144-.21.3753-.0245.1506-.007.2791.0525.3859s.1575.1811.2939.223l.4672.1469c.2624.0806.4558.2173.5801.4095.1242.1925.1653.4217.1233.6877-.035.217-.1155.4058-.2415.5667-.1259.1612-.2878.2862-.4855.3753-.1976.0894-.419.1338-.6639.1338ZM363.2651,785.8377c-.3568,0-.6228-.1005-.7978-.3019-.175-.201-.2345-.473-.1784-.8161l.2677-1.7006c.056-.3429.2029-.6148.4408-.8161.2379-.201.5355-.3019.8923-.3019s.6228.1.7979.2993c.1748.1993.2361.4707.1837.8136l-.2677,1.7057c-.0561.3431-.2039.6151-.4435.8161-.2398.2013-.5381.3019-.895.3019ZM363.3439,785.3339c.1925,0,.3483-.0524.4672-.1575.119-.1051.1942-.2571.2257-.4568l.2678-1.7006c.0315-.1993.0051-.3517-.0787-.4565-.084-.1051-.2223-.1575-.4148-.1575s-.3473.0524-.4645.1575c-.1173.1048-.1916.2571-.2231.4565l-.2677,1.7006c-.0315.1996-.0053.3517.0787.4568s.2204.1575.4094.1575ZM365.2754,785.7853l.6088-3.8315h.7086l.6194,3.186c.007-.098.0165-.217.0289-.3571.0121-.1398.0271-.2851.0446-.4354.0175-.1506.0367-.2888.0577-.4146l.315-1.9788h.525l-.609,3.8315h-.7085l-.6141-3.186c-.0071.0945-.0167.209-.0289.3437s-.0272.2757-.0446.4226c-.0177.1469-.0367.2833-.0578.4095l-.315,2.0102h-.5301ZM368.2252,785.7853l1.5851-3.8315h.7454l.3726,3.8315h-.5616l-.0735-.9711h-1.0865l-.3884.9711h-.5932ZM369.3852,784.3418h.8714l-.0893-1.1023c-.0175-.1959-.0298-.3654-.0367-.5089-.0071-.1435-.0105-.2432-.0105-.2993-.0175.0561-.0517.1558-.1024.2993s-.1146.3112-.1915.5038l-.441,1.1075ZM371.7208,785.7853l.6088-3.8315h.567l-.525,3.3118h1.6744l-.0787.5197h-2.2465ZM376.6785,785.8377c-.3673,0-.6342-.1005-.8003-.3019-.1663-.201-.2214-.475-.1654-.8213l.4357-2.7608h.567l-.4357,2.7554c-.0315.1962-.008.35.0708.4619.0787.1122.2144.168.4068.168.1925,0,.3473-.0558.4646-.168.1172-.1119.1915-.2657.2231-.4619l.4355-2.7554h.567l-.4357,2.7608c-.056.35-.2003.6245-.433.8241-.2328.1993-.5328.299-.9003.299ZM379.8435,785.8377c-.385,0-.6736-.0951-.8661-.2859-.1924-.1908-.2641-.4505-.2151-.7794h.5668c-.028.1748.0105.3121.1155.4121.1051.0997.266.1495.483.1495.2029,0,.3701-.049.5012-.1469.1313-.098.2109-.2327.2389-.4044.0209-.1504.0007-.2788-.0604-.3856-.0614-.1068-.1583-.1811-.2913-.2233l-.4566-.1364c-.266-.0803-.4619-.217-.5879-.4095-.126-.1922-.1697-.4197-.1313-.6823.035-.2099.1121-.3935.2309-.551s.2729-.2799.4619-.3673.4024-.1313.6404-.1313c.3498,0,.6158.0954.7978.2859.182.1908.2485.4437.1995.7586h-.5668c.0279-.168-.0027-.3001-.092-.3964-.0891-.0963-.2301-.1444-.4225-.1444-.1889,0-.343.0447-.4619.1338-.119.0894-.1889.2144-.21.3753-.0245.1506-.007.2791.0525.3859s.1575.1811.2939.223l.4672.1469c.2624.0806.4558.2173.5801.4095.1242.1925.1653.4217.1233.6877-.035.217-.1155.4058-.2415.5667-.1259.1612-.2878.2862-.4855.3753-.1976.0894-.419.1338-.6639.1338ZM381.9062,785.7853l.6088-3.8315h2.2518l-.0787.5038h-1.6954l-.1731,1.0867h1.5115l-.0787.4986h-1.5115l-.1942,1.2387h1.6901l-.0787.5038h-2.2518ZM386.9426,785.8377c-.3568,0-.6228-.1005-.7978-.3019-.175-.201-.2345-.473-.1784-.8161l.2677-1.7006c.056-.3429.2029-.6148.4408-.8161.2379-.201.5355-.3019.8923-.3019s.6228.1.7979.2993c.1748.1993.2361.4707.1837.8136l-.2677,1.7057c-.0561.3431-.2039.6151-.4435.8161-.2398.2013-.5381.3019-.895.3019ZM387.0213,785.3339c.1925,0,.3483-.0524.4672-.1575.119-.1051.1942-.2571.2257-.4568l.2678-1.7006c.0315-.1993.0051-.3517-.0787-.4565-.084-.1051-.2223-.1575-.4148-.1575s-.3473.0524-.4645.1575c-.1173.1048-.1916.2571-.2231.4565l-.2677,1.7006c-.0315.1996-.0053.3517.0787.4568s.2204.1575.4094.1575ZM388.9529,785.7853l.6088-3.8315h.7086l.6194,3.186c.007-.098.0165-.217.0289-.3571.0121-.1398.0271-.2851.0446-.4354.0175-.1506.0367-.2888.0577-.4146l.315-1.9788h.525l-.609,3.8315h-.7085l-.6141-3.186c-.0071.0945-.0167.209-.0289.3437s-.0272.2757-.0446.4226c-.0177.1469-.0367.2833-.0578.4095l-.315,2.0102h-.5301ZM392.249,785.7853l.6088-3.8315h.567l-.525,3.3118h1.6744l-.0787.5197h-2.2465ZM396.1174,785.7853l.2204-1.4119-.7506-2.4197h.5774l.4462,1.4486c.0279.0945.0498.1837.0656.2677.0157.084.0253.1469.0288.1888.0175-.0419.0464-.1048.0867-.1888.0402-.084.0883-.1731.1442-.2677l.8976-1.4486h.5984l-1.5275,2.4197-.2204,1.4119h-.5668ZM399.217,785.7853l.6088-3.8315h.7086l.6192,3.186c.0071-.098.0165-.217.029-.3571.012-.1398.0271-.2851.0444-.4354.0177-.1506.037-.2888.0578-.4146l.315-1.9788h.5248l-.6088,3.8315h-.7085l-.6141-3.186c-.0071.0945-.0167.209-.0289.3437s-.0272.2757-.0446.4226c-.0177.1469-.0367.2833-.0578.4095l-.315,2.0102h-.5301ZM403.5053,785.8377c-.3571,0-.6231-.1005-.7979-.3019-.1751-.201-.2344-.473-.1785-.8161l.2677-1.7006c.0561-.3429.203-.6148.4411-.8161.2378-.201.5354-.3019.8922-.3019.3571,0,.6228.1.7979.2993.1748.1993.2361.4707.1837.8136l-.2677,1.7057c-.0561.3431-.2039.6151-.4437.8161-.2395.2013-.5379.3019-.8947.3019ZM403.5839,785.3339c.1925,0,.3483-.0524.4673-.1575.1187-.1051.1942-.2571.2255-.4568l.2677-1.7006c.0316-.1993.0054-.3517-.0786-.4565-.084-.1051-.2224-.1575-.4146-.1575-.1925,0-.3474.0524-.4647.1575-.117.1048-.1914.2571-.223.4565l-.2677,1.7006c-.0316.1996-.0051.3517.0789.4568.0837.1051.2204.1575.4092.1575ZM406.3814,785.7853l.5248-3.3121h-1.0234l.084-.5194h2.6193l-.084.5194h-1.0289l-.5248,3.3121h-.567ZM409.5178,785.7853l.6088-3.8315h2.32l-.084.5194h-1.7636l-.1837,1.1445h1.6272l-.084.5248h-1.6166l-.2571,1.6428h-.567ZM413.7694,785.8377c-.3571,0-.6231-.1005-.7979-.3019-.1751-.201-.2344-.473-.1785-.8161l.2677-1.7006c.0561-.3429.203-.6148.4411-.8161.2378-.201.5354-.3019.8922-.3019.3571,0,.6228.1.7979.2993.1748.1993.2361.4707.1837.8136l-.2677,1.7057c-.0561.3431-.2039.6151-.4437.8161-.2395.2013-.5379.3019-.8947.3019ZM413.848,785.3339c.1925,0,.3483-.0524.4673-.1575.1187-.1051.1942-.2571.2255-.4568l.2677-1.7006c.0316-.1993.0054-.3517-.0786-.4565-.084-.1051-.2224-.1575-.4146-.1575-.1925,0-.3474.0524-.4647.1575-.117.1048-.1914.2571-.223.4565l-.2677,1.7006c-.0316.1996-.0051.3517.0789.4568.0837.1051.2204.1575.4092.1575ZM415.7952,785.7853l.6088-3.8315h1.202c.2381,0,.4391.0464.6037.139.1643.0928.2833.223.3568.391s.0911.3656.0527.5932c-.0387.2591-.1401.4838-.3044.6746-.1646.1905-.3659.3209-.6037.391l.5354,1.6428h-.6194l-.4776-1.5748h-.5408l-.2466,1.5748h-.567ZM416.6876,783.7068h.635c.1891,0,.3491-.0558.4804-.168.131-.1119.2107-.2623.2386-.4514.0316-.1925,0-.3454-.0945-.4593-.0943-.1136-.2361-.1706-.4252-.1706h-.635l-.1993,1.2493ZM420.905,785.8377c-.3602,0-.6308-.1005-.8107-.3019-.1803-.201-.2423-.473-.1865-.8161l.2677-1.7006c.0561-.3463.2056-.6194.4488-.8187s.545-.2993.9056-.2993c.3568,0,.6253.1008.8056.3019.1803.2013.2423.4733.1865.8161h-.567c.0313-.1993.0026-.3517-.0866-.4565-.0894-.1051-.2284-.1575-.4175-.1575-.1925,0-.3508.0524-.475.1575-.1242.1048-.2019.2554-.2335.4514l-.2677,1.7057c-.0316.1996-.0026.3517.0866.4568.0894.1051.2301.1575.4226.1575s.35-.0524.4724-.1575.1993-.2571.2309-.4568h.5667c-.0347.2275-.1145.4252-.2386.5932s-.2808.2976-.4699.3884c-.1888.0908-.4024.1364-.6404.1364ZM424.0335,785.8377c-.3571,0-.6231-.1005-.7979-.3019-.1751-.201-.2344-.473-.1785-.8161l.2677-1.7006c.0561-.3429.203-.6148.4411-.8161.2378-.201.5354-.3019.8922-.3019.3571,0,.6228.1.7979.2993.1748.1993.2361.4707.1837.8136l-.2677,1.7057c-.0561.3431-.2039.6151-.4437.8161-.2395.2013-.5379.3019-.8947.3019ZM424.1121,785.3339c.1925,0,.3483-.0524.4673-.1575.1187-.1051.1942-.2571.2255-.4568l.2677-1.7006c.0316-.1993.0054-.3517-.0786-.4565-.084-.1051-.2224-.1575-.4146-.1575-.1925,0-.3474.0524-.4647.1575-.117.1048-.1914.2571-.223.4565l-.2677,1.7006c-.0316.1996-.0051.3517.0789.4568.0837.1051.2204.1575.4092.1575ZM425.9653,785.7853l.6088-3.8315h.6874l.1837,1.2282c.0211.119.0367.2301.0473.3332.0105.1034.0194.1828.0262.2389.0177-.0561.0473-.1364.0894-.2415.0419-.1051.0908-.217.1469-.336l.5667-1.2228h.7088l-.6088,3.8315h-.5354l.2045-1.2911c.0245-.168.0578-.3525.1-.5539.0419-.201.0874-.4041.1364-.6088s.0963-.3998.1418-.5852c.0453-.1854.0874-.3483.1259-.4881l-.8554,1.8632h-.5513l-.2833-1.8632c-.0037.1364-.0105.2947-.0211.475s-.0236.3719-.0393.5747c-.0157.203-.035.4069-.0578.6114-.0228.2047-.0481.3964-.076.5749l-.2047,1.2911h-.5405ZM429.1145,785.7853l.6088-3.8315h.6874l.1837,1.2282c.0211.119.0367.2301.0473.3332.0105.1034.0194.1828.0262.2389.0177-.0561.0473-.1364.0894-.2415.0419-.1051.0908-.217.1469-.336l.5667-1.2228h.7088l-.6088,3.8315h-.5354l.2045-1.2911c.0245-.168.0578-.3525.1-.5539.0419-.201.0874-.4041.1364-.6088s.0963-.3998.1418-.5852c.0453-.1854.0874-.3483.1259-.4881l-.8554,1.8632h-.5513l-.2833-1.8632c-.0037.1364-.0105.2947-.0211.475s-.0236.3719-.0393.5747c-.0157.203-.035.4069-.0578.6114-.0228.2047-.0481.3964-.076.5749l-.2047,1.2911h-.5405ZM432.4107,785.7853l.6088-3.8315h2.2516l-.0786.5038h-1.6955l-.1731,1.0867h1.5115l-.0786.4986h-1.5118l-.1942,1.2387h1.6901l-.0786.5038h-2.2516ZM435.5073,785.7853l.6088-3.8315h1.202c.2381,0,.4391.0464.6037.139.1643.0928.2833.223.3568.391s.0911.3656.0527.5932c-.0387.2591-.1401.4838-.3044.6746-.1646.1905-.3659.3209-.6037.391l.5354,1.6428h-.6194l-.4776-1.5748h-.5408l-.2466,1.5748h-.567ZM436.3997,783.7068h.635c.1891,0,.3491-.0558.4804-.168.131-.1119.2107-.2623.2386-.4514.0316-.1925,0-.3454-.0945-.4593-.0943-.1136-.2361-.1706-.4252-.1706h-.635l-.1993,1.2493ZM439.8007,785.8377c-.3602,0-.6308-.1005-.8107-.3019-.1803-.201-.2423-.473-.1865-.8161l.2677-1.7006c.0561-.3463.2056-.6194.4488-.8187s.545-.2993.9056-.2993c.3568,0,.6253.1008.8056.3019.1803.2013.2423.4733.1865.8161h-.567c.0313-.1993.0026-.3517-.0866-.4565-.0894-.1051-.2284-.1575-.4175-.1575-.1925,0-.3508.0524-.475.1575-.1242.1048-.2019.2554-.2335.4514l-.2677,1.7057c-.0316.1996-.0026.3517.0866.4568.0894.1051.2301.1575.4226.1575s.35-.0524.4724-.1575.1993-.2571.2309-.4568h.5667c-.0347.2275-.1145.4252-.2386.5932s-.2808.2976-.4699.3884c-.1888.0908-.4024.1364-.6404.1364ZM441.8792,785.7853l.0789-.5038h.7768l.4459-2.824h-.7766l.0837-.5038h2.1258l-.084.5038h-.7766l-.4462,2.824h.7768l-.0789.5038h-2.1258ZM444.7399,785.7853l1.585-3.8315h.7452l.3728,3.8315h-.5616l-.0735-.9711h-1.0867l-.3884.9711h-.5929ZM445.8998,784.3418h.8714l-.0894-1.1023c-.0174-.1959-.0296-.3654-.0367-.5089-.0068-.1435-.0103-.2432-.0103-.2993-.0177.0561-.0518.1558-.1025.2993s-.1148.3112-.1916.5038l-.4408,1.1075ZM448.2354,785.7853l.6088-3.8315h.567l-.5248,3.3118h1.6741l-.0786.5197h-2.2465ZM453.1932,785.8377c-.3676,0-.6345-.1005-.8005-.3019-.1663-.201-.2213-.475-.1654-.8213l.4357-2.7608h.567l-.4357,2.7554c-.0316.1962-.008.35.0709.4619.0786.1122.2141.168.4066.168s.3474-.0558.4645-.168c.1173-.1119.1916-.2657.2233-.4619l.4357-2.7554h.5667l-.4357,2.7608c-.0558.35-.2002.6245-.4328.8241-.2329.1993-.5328.299-.9001.299ZM456.3581,785.8377c-.385,0-.6738-.0951-.866-.2859-.1925-.1908-.2643-.4505-.2153-.7794h.567c-.0282.1748.0105.3121.1153.4121.1051.0997.266.1495.483.1495.2028,0,.3699-.049.5012-.1469s.2107-.2327.2389-.4044c.0211-.1504.0009-.2788-.0604-.3856s-.1583-.1811-.2913-.2233l-.4568-.1364c-.266-.0803-.4619-.217-.5878-.4095-.1259-.1922-.1697-.4197-.1313-.6823.035-.2099.1119-.3935.2309-.551s.2731-.2799.4619-.3673c.1891-.0874.4024-.1313.6404-.1313.3497,0,.6157.0954.7979.2859.1817.1908.2483.4437.1993.7586h-.567c.0279-.168-.0026-.3001-.0917-.3964-.0894-.0963-.2301-.1444-.4226-.1444-.1891,0-.3429.0447-.4619.1338-.119.0894-.1891.2144-.2099.3753-.0245.1506-.0071.2791.0524.3859s.1575.1811.2939.223l.4673.1469c.2623.0806.4556.2173.5798.4095.1242.1925.1654.4217.1236.6877-.035.217-.1156.4058-.2415.5667-.1262.1612-.2879.2862-.4855.3753-.1979.0894-.4192.1338-.6641.1338ZM458.4209,785.7853l.6088-3.8315h2.2516l-.0786.5038h-1.6955l-.1731,1.0867h1.5115l-.0786.4986h-1.5118l-.1942,1.2387h1.6901l-.0786.5038h-2.2516Z" style="fill: #ccc;"/>
  <g>
    <g>
      <path d="M178.6329,114.29v451.2992c0,62.8097,81.42,85.4381,146.8731,103.6254l.3172.1057c13.9577,3.9124,27.1752,7.6133,39.0181,11.4199.1057,0,13.3233,4.4411,24.9547,12.1601,3.7009,2.432,7.4018,5.3927,10.3625,8.0362,3.5952-3.1722,7.0846-5.8157,10.3625-8.0362,11.2085-7.2961,23.5801-11.6314,24.9547-12.0544,11.8429-3.9124,25.0604-7.6133,39.0181-11.4199l.3172-.1057c65.4532-18.1873,146.8731-40.8157,146.8731-103.6254V114.29c-17.6586-5.287-101.0876-28.3384-221.5257-28.3384-120.5438,0-203.8671,23.0514-221.5257,28.3384Z" style="fill: #94bee5;"/>
      <path d="M400.1586,728.9578l-10.4683-9.8338c-4.0181-3.7009-7.8248-6.8731-11.1027-8.9879-9.1994-6.0272-20.0906-9.7281-20.1964-9.7281-11.3142-3.7009-24.3202-7.4018-38.1722-11.2084h-.2115c-34.2598-9.5166-73.0665-20.3021-103.9426-37.6435-17.8701-10.0453-31.1934-21.148-40.8157-34.0484-11.4199-15.2266-17.1299-32.568-17.1299-51.707V99.4864l10.4683-3.4894c3.7009-1.2689,92.6284-30.5589,231.571-30.5589s227.8701,29.29,231.571,30.5589l10.4683,3.4894v466.1028c0,19.139-5.8157,36.4804-17.1299,51.707-9.6224,12.7945-22.9456,24.003-40.8157,34.0484-30.9819,17.3414-69.7886,28.1269-104.0484,37.6435h-.2115c-13.7462,3.8066-26.858,7.4018-38.1722,11.2084-.1057,0-10.997,3.8066-20.0906,9.7281-3.278,2.2205-7.0846,5.287-11.1027,8.9879l-10.4682,10.0453ZM168.3761,106.7825v458.8067c0,16.8127,5.0755,32.145,15.1209,45.574,8.7764,11.6314,21.0423,21.8882,37.6435,31.1934,29.8187,16.8127,67.991,27.3867,101.6163,36.6919h.2115c13.9577,3.9124,27.0695,7.5075,38.5952,11.3142.5287.2115,12.1601,4.1239,22.5226,10.8912,3.8067,2.5378,8.142,6.0272,12.4773,10.151h0l3.4894,3.2779,3.4894-3.2779c4.4411-4.1239,8.6707-7.6133,12.4773-10.151,10.4683-6.8731,22.4169-10.8912,22.5226-10.8912,11.6314-3.8066,24.7432-7.5075,38.7009-11.3142h.2115c33.7311-9.3051,71.7976-19.9849,101.6163-36.6919,16.6012-9.3051,28.8671-19.5619,37.6435-31.1934,10.0454-13.429,15.1209-28.7613,15.1209-45.574V106.7825l-3.4894-1.1631c-3.5952-1.1631-90.9366-29.9245-228.1873-29.9245s-224.5922,28.7613-228.2931,29.9245l-3.4894,1.1631Z" style="fill: #f0f0f0;"/>
      <path d="M400.1586,714.8944l-3.4894-3.2779c-3.0665-2.855-7.719-6.9788-12.4773-10.151-10.4683-6.8731-22.4169-10.8912-22.5226-10.8912-11.5257-3.8066-24.6375-7.4018-38.4894-11.3142l-.3172-.1057c-33.6254-9.3051-71.7976-19.9849-101.6163-36.6919-35.6345-20.0907-52.8702-45.1511-52.8702-76.8732V106.7825l3.4894-1.1631c.8459-.3172,91.0423-29.9245,228.2931-29.9245,71.6918,0,129.849,8.142,166.0121,14.9094,39.3354,7.4018,61.3293,14.6979,62.281,15.0151l3.4894,1.1631v458.8067c0,31.7221-17.2356,56.7825-52.7644,76.7674-29.8187,16.8127-67.991,27.3867-101.6163,36.6919l-.3172.1057c-13.852,3.8066-26.9638,7.5075-38.5952,11.3142-.423.1057-12.2659,4.2296-22.5226,10.8912-3.8067,2.432-8.0363,6.0272-12.4773,10.151l-3.4895,3.3838ZM178.6329,114.29v451.2992c0,62.8097,81.42,85.4381,146.8731,103.6254l.3172.1057c13.9577,3.9124,27.1752,7.6133,39.0181,11.4199.1057,0,13.3233,4.4411,24.9547,12.1601,3.7009,2.432,7.4018,5.3927,10.3625,8.0362,3.5952-3.1722,7.0846-5.8157,10.3625-8.0362,11.2085-7.2961,23.5801-11.6314,24.9547-12.0544,11.8429-3.9124,25.0604-7.6133,39.0181-11.4199l.3172-.1057c65.4532-18.1873,146.8731-40.8157,146.8731-103.6254V114.29c-17.6586-5.287-101.0876-28.3384-221.5257-28.3384-120.5438,0-203.8671,23.0514-221.5257,28.3384Z" style="fill: #480024;"/>
      <path d="M636.5937,81.2991c-3.8066-1.2689-95.0604-31.2991-236.4351-31.2991s-232.6284,30.0302-236.4351,31.2991l-21.0423,7.0846v477.2055c0,22.5226,6.7674,43.0363,20.1964,60.9063,10.8912,14.5921,25.8006,27.0695,45.574,38.1722,32.568,18.293,72.3263,29.3958,107.3263,39.1239l.2115.1057c13.6405,3.8066,26.435,7.2961,37.3263,10.8912.1057,0,9.1994,3.1722,16.6012,8.0362,2.5378,1.6918,5.8157,4.3353,9.0937,7.4018l21.0423,19.7734,21.0423-19.7734c3.278-3.0665,6.5559-5.71,8.9879-7.4018,6.8731-4.5468,15.6495-7.719,16.6012-8.0362,10.997-3.5952,23.7915-7.1903,37.3263-10.8912l.2115-.1057c35.1058-9.7281,74.864-20.8308,107.3263-39.1239,19.7734-11.1027,34.6828-23.5801,45.574-38.1722,13.429-17.9758,20.1964-38.4895,20.1964-60.9063V88.3837l-20.7251-7.0846ZM642.1979,565.5892c0,19.139-5.8157,36.4804-17.1299,51.707-9.6224,12.7945-22.9456,24.003-40.8157,34.0484-30.9818,17.3414-69.7885,28.1269-104.0483,37.6435h-.2115c-13.7462,3.8066-26.858,7.4018-38.1722,11.2084-.1057,0-10.997,3.8066-20.0906,9.7281-3.278,2.2205-7.0846,5.287-11.1027,8.9879l-10.574,9.8338-10.4683-9.8338c-4.0181-3.7009-7.8248-6.8731-11.1027-8.9879-9.1994-6.0272-20.0906-9.7281-20.1964-9.7281-11.3142-3.7009-24.3202-7.4018-38.1722-11.2084h-.2115c-34.2598-9.5166-73.0665-20.3021-103.9426-37.6435-17.8701-10.0453-31.1934-21.148-40.8157-34.0484-11.4199-15.2266-17.1299-32.568-17.1299-51.707V99.4864l10.4683-3.4894c3.7009-1.2689,92.6284-30.5589,231.571-30.5589s227.8701,29.29,231.571,30.5589l10.4683,3.4894v466.1028h.1057Z" style="fill: #480024;"/>
    </g>
    <g>
      <path d="M237.8474,612.8551c-4.3354-2.432-7.8248-4.5468-7.8248-4.5468,1.0574,0,2.6435-.1057,3.7009-1.7976.8459-1.4804,1.4804-4.2296,2.3263-7.5075.2115-.7402.423-1.5861.6344-2.3263-3.8067-2.3263-7.5076-4.7583-11.3142-7.2961-.6344.5287-1.2689.9517-1.9033,1.4804-2.6435,2.1148-4.9698,3.8066-5.9215,5.1813-1.1631,1.6918-.6344,3.1722-.1057,4.1239,0,0-2.5378-1.9033-6.3444-4.5468-3.9124-2.7492-6.1329-4.3353-6.1329-4.3353,3.2779,0,6.2387-2.0091,12.9003-6.6616,6.5559-4.6526,13.006-9.5166,19.3505-14.3806.5287-.423,1.0574-.8459,1.4804-1.4804.423-.6344.3172-1.0574.3172-1.1631,4.9698,3.3837,9.9396,6.5559,15.0151,9.6223,0,0-.5287.1057-.9517.8459-.3172.6344-.6344,1.2689-.7402,1.9033-2.0091,7.719-3.8067,15.438-5.4985,23.2628-1.6918,7.9305-2.2206,11.4199-.9517,14.2749-.2115-.1058-3.278-1.9034-8.0363-4.6527ZM242.077,577.7493c.7402-2.3263,1.1631-3.5952,1.3746-3.9124-.2115.2115-.9517,1.0574-2.9607,2.855-3.4894,3.0665-6.9789,6.0272-10.574,9.0936,2.7493,1.9033,5.6042,3.7009,8.3535,5.3927,1.1631-4.5468,2.432-8.9879,3.8067-13.429Z" style="fill: #480024;"/>
      <path d="M259.1012,624.5922c-7.8248-3.8066-10.7855-7.4018-10.7855-7.2961,0,0,.7402-1.0574,2.1148-3.7009,1.5861-2.9607,2.432-4.7583,2.432-4.7583.7402,3.4894,2.3263,7.4018,8.142,10.2568,4.0181,1.9033,7.6133,2.6435,9.0937-.5287,1.1631-2.5378-.3172-4.2296-2.5378-6.8731-1.2689-1.4804-2.432-3.0665-3.5952-4.5468-3.3837-4.3353-5.4985-8.7764-2.855-13.7462,3.4894-6.5559,9.9396-7.1903,18.8218-2.9607,6.3444,2.9607,9.1994,5.8157,9.1994,5.8157,0,0-.6344,1.1631-1.7976,4.0181-1.2689,2.9607-1.7976,4.6526-1.7976,4.6526-1.0574-3.9124-2.9607-7.0846-7.1903-9.0936-3.5952-1.6918-6.2387-1.9033-7.5076.6344-1.1631,2.3263.3172,4.0181,2.7493,6.9788,1.0574,1.2689,2.1148,2.5378,3.1722,3.8066,3.9124,4.5468,6.1329,8.5649,3.9124,14.1692-3.8067,8.3535-12.2659,7.7191-21.571,3.1722Z" style="fill: #480024;"/>
      <path d="M322.5453,615.2871c0-.1057-.2115-.7402-1.5861-2.0091-1.1631-1.1631-3.1722-2.3263-5.9215-3.1722-1.0574-.3172-2.0091-.6344-3.0665-.9517-1.4804,4.5468-2.9607,9.0936-4.3354,13.7462-4.8641,15.2266-4.6526,15.5438-4.0181,18.0815.1057.3172.2115.7402.3172,1.0574,0,0-2.2206-.7402-7.6133-2.6435-5.3928-1.7976-7.719-2.6435-7.719-2.6435.3172-.2115.6344-.423.8459-.6344,2.0091-1.4804,2.432-1.7976,7.9305-17.2356,1.5861-4.3353,3.0665-8.6707,4.6526-13.006-1.0574-.3172-2.0091-.7402-3.0665-1.0574-2.6435-.9517-4.9698-1.2689-6.6616-1.0574-1.7976.2115-2.432.5287-2.5378.6344,0,0,.7402-1.4804,1.7976-4.1239,1.0574-2.5378,1.3746-3.5952,1.3746-3.5952,10.3625,4.2296,20.9366,7.719,31.6163,10.6797,0,0-.423,1.1631-1.0574,3.7009-.6344,2.6436-.8459,4.124-.9517,4.2297Z" style="fill: #480024;"/>
      <path d="M337.7719,651.133c-14.5922-2.9607-19.9849-12.0544-16.707-24.003,2.855-10.2568,10.574-18.3988,24.3202-15.6495,12.6888,2.432,18.293,10.151,16.8127,22.5226-1.1631,10.574-8.3535,20.1964-24.426,17.1299ZM344.4335,617.0847c-5.8157-1.1631-9.5166,2.5378-11.7372,12.4773-2.2206,9.8338-.3172,14.6979,6.0272,15.9667,6.4502,1.2689,10.1511-2.7492,11.8429-12.6888,1.5861-9.9395-.3172-14.5921-6.1329-15.7553Z" style="fill: #480024;"/>
      <path d="M407.1375,618.2478c-1.0574,1.9033-1.3746,2.5378-1.1631,18.9275.1057,6.4501.2115,12.9003.3172,19.3504,0,0-1.7976-.1057-5.9215-.1057h-7.8248c-4.8641-8.8822-9.1994-17.8701-13.2175-26.858-.8459-2.0091-1.3746-4.1239-1.3746-4.3353-.3172,3.7009-.5287,7.4018-.8459,11.1027-1.2689,15.9667-.9517,16.1782.2115,18.5045.2115.3172.3172.6344.5287.9517,0,0-2.0091-.2115-6.3444-.6344-4.6526-.423-6.4502-.5287-6.4502-.5287.2115-.3172.423-.5287.7402-.8459,1.3746-1.7976,1.9033-2.3263,3.5952-18.716,1.5861-15.861,1.3746-16.1782.423-18.3988-.1057-.3172-.3172-.6344-.423-.9517,0,0,2.1148.423,7.4018.8459,4.4411.3172,6.6616.3172,6.6616.3172,3.9124,8.9879,8.2477,17.8701,12.9003,26.6465,1.1631,2.1148,1.5861,3.9124,1.6918,4.2296,0-3.7009.1057-7.4018.1057-11.1027.1057-15.9667-.1057-16.1782-1.2689-18.3988-.2115-.3172-.3172-.6344-.5287-.9517,0,0,1.6918.1057,5.6042.1057,4.0181,0,5.71-.2115,5.71-.2115-.2115.4231-.423.7403-.5287,1.0575Z" style="fill: #480024;"/>
      <path d="M459.7961,624.4865c-1.0574,9.0936-2.3263,18.293-3.9124,27.3867,0,0-2.855.423-7.9305,1.1631-4.8641.7402-8.142,1.1631-8.142,1.1631-4.0181-8.3535-7.8248-16.7069-11.4199-25.1662-3.0665-7.4018-4.4411-10.6797-6.7674-12.4773,0,0,2.1148,0,7.719-.5287,5.8157-.6344,8.0363-1.0574,8.0363-1.0574-.6344.6344-1.6918,1.6918-1.3746,3.7009.2115,1.9033,1.5861,4.9698,3.278,8.7764,2.6435,5.9214,5.3928,11.9486,8.142,17.8701.6344,1.3746,1.1631,2.9607,1.2689,3.1722,0-.2115.1057-1.7976.3172-3.3837.9517-6.4501,1.7976-13.006,2.6435-19.4562.423-4.2296.8459-7.5075.423-9.4109-.3172-2.0091-1.5861-2.7492-2.432-3.0665,0,0,2.2206-.2115,6.9789-1.1631,4.4411-.8459,6.2387-1.4804,6.2387-1.4804-1.6919,2.4321-2.1148,5.9216-3.0665,13.9578Z" style="fill: #480024;"/>
      <path d="M481.0499,646.3747c-5.4985,1.3746-7.8248,2.0091-7.8248,2.0091.1057-.3172.2115-.7402.423-1.0574.8459-2.3263,1.0574-2.7492-2.7493-18.8217-3.7009-15.5438-3.9124-15.7553-5.6042-17.5528l-.7402-.7402s2.0091-.3172,6.8731-1.5861c5.1813-1.3746,6.8731-2.0091,6.8731-1.9033-.1057.3172-.2115.7402-.2115,1.0574-.5287,2.3263-.7402,2.7492,3.5952,18.6102,4.2296,15.438,4.5468,15.5438,6.4502,17.3414.3172.2115.5287.5287.8459.7402-.1057-.1058-2.432.5286-7.9305,1.9032Z" style="fill: #480024;"/>
      <path d="M522.0771,630.8309c.2115.6344.423,1.3746.6344,2.0091-7.5076,3.0665-15.2266,5.8157-22.8399,8.2477-3.3837,1.0574-4.8641,1.5861-4.8641,1.5861.1057-.3172.2115-.7402.3172-1.0574.6344-2.3263.8459-2.855-4.0181-18.6102-4.7583-15.2266-5.0755-15.438-6.8731-17.1299l-.7402-.7402s1.9033-.423,7.0846-2.1148c5.0755-1.6918,6.6616-2.432,6.6616-2.432-.1057.423-.1057.7402-.2115,1.1631-.5287,2.432-.423,3.4894,3.7009,15.3323,1.9033,5.287,3.7009,10.6797,5.6042,15.9667,1.3746-.5287,2.7493-.9517,4.1239-1.4804,7.6133-2.855,8.0363-4.7583,9.1994-8.4592-.1057,0,.423,2.1149,2.2206,7.7191Z" style="fill: #480024;"/>
      <path d="M553.4819,616.0273c.3172.6344.5287,1.2689.8459,1.9033-7.2961,3.9124-14.5921,7.5075-22.0997,10.7855-3.278,1.4804-4.7583,2.1148-4.7583,2.1148.1057-.3172.1057-.7402.2115-1.0574.423-2.432.5287-2.9607-5.9215-18.0815-6.3444-14.6979-6.6616-14.8036-8.6707-16.284-.3172-.2115-.5287-.423-.8459-.6344,0,0,1.9033-.6344,6.8731-2.855,4.8641-2.2205,6.4502-3.1722,6.4502-3.1722,0,.423-.1057.7402-.1057,1.1631-.3172,2.432-.1057,3.5952,5.287,14.8036,2.432,5.0755,4.8641,10.2568,7.2961,15.3323,1.3746-.6344,2.6435-1.2689,4.0181-1.9033,7.4018-3.7009,7.6133-5.71,8.3535-9.4109-.1057-.1057.6344,2.0091,3.0665,7.2961Z" style="fill: #480024;"/>
      <path d="M588.6934,596.5711c-4.1239,2.9607-7.5076,5.287-7.5076,5.287.423-.9517,1.0574-2.432-.1057-4.1239-.9517-1.3746-3.1722-3.1722-5.8157-5.287-.6344-.5287-1.2689-1.0574-1.9033-1.4804-3.7009,2.432-7.5076,4.864-11.3142,7.1903.2115.7402.423,1.5861.5287,2.3263.8459,3.2779,1.3746,6.1329,2.2206,7.5075,1.0574,1.7976,2.6435,1.9033,3.5952,1.9033,0,0-2.7493,1.5861-6.6616,3.8066-4.1239,2.3263-6.3444,3.7009-6.3444,3.7009,1.2689-2.9607.7402-6.5559-.7402-14.4864-1.4804-7.9305-3.1722-15.7553-5.0755-23.5801-.2115-.6344-.3172-1.2689-.7402-1.9033-.3172-.6344-.8459-.7402-.9517-.7402,5.0755-3.0665,10.0453-6.2387,15.0151-9.6223,0,0-.1057.5287.3172,1.1631s.8459,1.0574,1.3746,1.4804c6.1329,5.0755,12.4773,9.9396,18.8217,14.6979,6.4502,4.7583,9.4109,6.7674,12.6888,6.7674.1058.1058-2.855,2.2206-7.4018,5.3928ZM558.4517,578.1723c-1.7976-1.5861-2.7493-2.5378-2.9607-2.855.1057.3172.5287,1.3746,1.2689,3.9124,1.2689,4.4411,2.5378,8.8822,3.8067,13.429,2.855-1.6918,5.6042-3.4894,8.3535-5.287-3.4894-3.0665-6.9789-6.133-10.4683-9.1994Z" style="fill: #480024;"/>
    </g>
    <g>
      <path d="M357.3339,577.5378v-4.1239c4.0181,0,6.0272-1.4804,6.1329-4.4411h4.3354v24.8489h-5.287v-17.3414c-.8459.6345-2.6435,1.0575-5.1813,1.0575Z" style="fill: #fff;"/>
      <path d="M380.8082,593.3989c-1.4804-.5287-2.7493-1.4804-3.5952-2.5378-.8459-1.1631-1.2689-2.5378-1.2689-4.1239,0-2.7492,1.5861-4.864,4.6526-6.2387v-.1057c-2.3263-1.2689-3.4894-2.9607-3.4894-5.287,0-1.3746.423-2.5378,1.1631-3.5952s1.7976-1.7976,3.1722-2.3263,2.855-.7402,4.5468-.7402,3.1722.2115,4.5468.7402,2.432,1.2689,3.1722,2.3263,1.1631,2.2205,1.1631,3.5952c0,2.2205-1.1631,4.0181-3.4894,5.287v.1057c3.0665,1.3746,4.6526,3.4894,4.6526,6.2387,0,1.5861-.423,3.0665-1.2689,4.1239-.8459,1.1631-2.1148,2.0091-3.5952,2.5378s-3.1722.8459-5.0755.8459c-2.0091,0-3.7009-.2114-5.287-.8459ZM382.6058,589.1692c.8459.7402,1.9033,1.1631,3.3837,1.1631,1.3746,0,2.5378-.423,3.3837-1.1631.8459-.7402,1.2689-1.6918,1.2689-2.855s-.423-2.1148-1.2689-2.855c-.8459-.7402-1.9033-1.0574-3.3837-1.0574s-2.5378.3172-3.3837,1.0574c-.8459.7402-1.2689,1.6918-1.2689,2.855,0,1.0575.423,2.1149,1.2689,2.855ZM383.0287,577.9608c.6344.6344,1.6918.8459,2.9607.8459s2.2206-.3172,2.9607-.8459c.6344-.6344,1.0574-1.3746,1.0574-2.432s-.3172-1.7976-1.0574-2.432c-.6344-.6344-1.6918-.8459-2.9607-.8459s-2.2206.3172-2.9607.8459c-.6344.6344-1.0574,1.3746-1.0574,2.432.1057.9516.423,1.7976,1.0574,2.432Z" style="fill: #fff;"/>
      <path d="M406.926,585.8913c.7402-2.6435,1.7976-5.0755,3.0665-7.2961,1.2689-2.2205,2.6435-3.9124,4.1239-5.1813v-.1057h-12.2659v-4.3353h17.8701v4.0181c-2.7493,2.2205-4.7583,5.1813-6.2387,8.9879s-2.2206,7.719-2.2206,11.8429h-5.6042c.1057-2.6435.423-5.287,1.2689-7.9305Z" style="fill: #fff;"/>
      <path d="M434.9472,588.3233h-11.4199v-5.0755l11.4199-14.2749h5.287v15.1208h3.5952v4.3353h-3.5952v5.3927h-5.287v-5.4984ZM434.9472,583.988v-9.0936l-7.2961,9.0936h7.2961Z" style="fill: #fff;"/>
    </g>
    <g>
      <polygon points="237.9532 160.0755 251.5936 152.7795 265.1284 160.0755 262.4849 144.7432 273.4819 133.852 258.361 131.6314 251.5936 117.6737 244.7205 131.6314 229.5997 133.852 240.5967 144.7432 237.9532 160.0755" style="fill: #fff;"/>
      <g>
        <path d="M325.4003,273.852c6.1329,0,9.9396-3.1722,13.2175-7.6133-1.1631-.2115-2.2206-.3172-3.278-.5287-4.7583,6.2387-11.3142,8.142-9.9396,8.142Z" style="fill: #7da3c9;"/>
        <path d="M351.0952,335.4985c-20.3021.8459-45.0453,9.8338-55.1964,19.8791-8.7764,8.7764-2.1148,19.6677-10.574,28.0212-1.3746,2.7493-1.2689,6.5559-1.2689,9.0937,4.1239-1.4804,5.9215-4.9698,5.9215-4.9698,0,0,.423,5.9215,6.3444,6.5559,1.2689,5.287,4.6526,9.7281,5.71,9.7281.7402,0-.7402-7.1903,1.4804-11.7372,1.4804-1.4804,2.432-2.9607,3.1722-4.6526-.9517-2.6435-.7402-5.1813-.423-6.1329.1057-.2115.3172-.3172.423-.1057.3172.3172.8459.6344,1.4804,1.0574.9517-6.1329.3172-12.5831,5.9215-18.1873,8.4592-8.4592,27.3867-16.1782,45.2568-18.9275-2.855-3.3837-5.7099-6.7674-8.2477-9.6224Z" style="fill: #7da3c9;"/>
        <path d="M367.0619,214.1088c-2.7493.8459-13.5347,8.9879-17.6586,13.1118-1.5861,1.5861,1.3746,5.8157.7402,6.4502,0,0-.1057.1057-.3172.1057-1.0574,0-2.0091-.3172-2.9607-.8459.9517,4.2296,5.1813,8.7764,8.5649,11.5257,4.4411-3.5952,8.8822-6.2387,12.4773-9.0937.9517-.9517,2.1148-1.9033,3.4894-3.0665,2.5378-2.7493,4.2296-5.8157,4.2296-10.2568.1058-5.6042-2.855-9.7281-8.5649-7.9305Z" style="fill: #7da3c9;"/>
        <path d="M276.8656,401.9034c1.0574,0-.2115-5.4985,2.1148-8.9879.5287.1057,1.0574.2115,1.5861.2115.3172,0,.7402,0,1.0574-.1057-1.2689-1.7976-2.7493-4.5468-3.3837-7.5076-3.8067-.423-5.287-2.9607-5.9215-4.7583-.3172,1.9033,0,4.3354.9517,6.4502-3.0665,6.1329,2.2206,14.6979,3.5952,14.6979Z" style="fill: #7da3c9;"/>
        <path d="M341.1556,211.8882c6.4502-2.7493,8.6707-10.6798,8.6707-15.4381,0-2.3263-1.6918-3.5952-5.0755-3.5952-2.2206,0-7.9305.2115-12.2659,1.2689-1.1631,1.5861-1.5861,3.4894-1.5861,5.8157-.1057,4.1239,5.9215,9.1994,10.2568,11.9486Z" style="fill: #7da3c9;"/>
        <path d="M394.8716,427.4925c0-17.8701,10.8912-24.426,10.8912-35.7402,0-2.5378-1.6918-7.1903-2.6435-8.3535h0c-.1057,0,0,.1057,0,.1057,3.278,10.6798-5.1813,14.1692-11.3142,31.2991-7.6133,2.1148-15.7553,8.6707-15.7553,20.3021,0,12.2659,9.5166,21.148,18.1873,21.148,1.3746,0,2.432-.423,3.0665-.6344h.2115c-2.1148-3.3837-3.3837-7.4018-3.3837-11.9486,0-3.1722.6344-6.0272,1.6918-8.4592-.6344-2.1149-.9517-4.6526-.9517-7.7191Z" style="fill: #7da3c9;"/>
        <path d="M311.0196,293.3082c3.0665,4.5468,5.4985,9.4109,6.5559,14.2749,2.9607-2.2206,4.7583-3.7009,4.7583-3.7009-4.4411-4.4411-7.5075-7.2961-11.3142-10.574Z" style="fill: #7da3c9;"/>
        <path d="M425.2191,459.6375c2.0091,2.432,3.4894,5.287,3.4894,9.4109,0,5.3928-2.0091,8.4592-2.855,9.5166-.1057.2115,0,.423.2115.423,1.9033.3172,9.3051.5287,16.3897-11.2085,9.4109,4.8641,6.8731,13.006,6.1329,14.9094-.1057.2115.1057.423.3172.423,12.2659-.423,16.1782-17.0242,16.1782-17.0242.3172,0,.7402-.1057,1.0574-.1057.1057-.423.1057-.9517.1057-1.3746,0-4.5468-8.565-8.2477-19.3504-7.0846,0,0-3.9124,16.6012-16.1782,17.0242-.2115,0-.3172-.2115-.3172-.423.7402-1.9033,3.1722-9.6223-5.1813-14.4864Z" style="fill: #7da3c9;"/>
        <path d="M407.7719,478.1421c.1057-.2115,0-.423-.2115-.423-9.0937.1057-12.9003-4.2296-13.6405-6.8731,9.4109,3.8067,15.0151,2.0091,18.1873-.7402-2.0091.5287-3.4894.423-4.2296.3172-.2115,0-.3172-.3172-.2115-.423.5287-.7402,1.6918-2.432,2.432-5.287-4.7583-.7402-9.4109-3.9124-12.4773-8.6707v.1057c-.9517,2.6435-5.71,12.9003-21.9939,6.2387.7402,2.6435,4.5468,6.9789,13.6405,6.8731.2115,0,.3172.2115.2115.423-2.5378,5.1813-6.9789,6.3444-10.574,6.3444-5.4985,0-10.8912-3.1722-16.9184-3.1722-11.8429,0-17.4471,14.8036-36.7976,14.8036,2.6435-2.855,2.5378-9.6224-4.6526-9.6224-12.9003,0-23.7915,15.6495-40.8157,15.9668h-.9517c-.1057.9517-.1057,2.0091-.1057,3.0665,0,4.9698,1.5861,11.6314,2.5378,11.6314s1.5861-7.719,4.8641-10.6798c1.3746,1.3746,3.0665,2.432,4.9698,3.278,1.7976.8459,3.9124,1.2689,6.3444,1.2689h.423c17.1299-.3172,28.0212-15.9668,40.8157-15.9668,7.1903,0,7.2961,6.7674,4.6526,9.6224,19.4562,0,24.9547-14.8036,36.7976-14.8036,6.0272,0,11.4199,3.1722,16.9184,3.1722,3.8067-.1057,8.2478-1.2689,10.7855-6.4501Z" style="fill: #7da3c9;"/>
        <path d="M543.4366,443.0363c-5.287,4.2296-15.2266,3.278-15.2266,3.278,4.6526-3.7009,8.0363-14.2749,3.278-24.2145-.1057-.2115-.423-.2115-.5287,0-4.1239,9.7281-11.9486,13.6405-19.6677,14.4864-.423.423-.8459.8459-1.2689,1.1631,0,0,9.8338.9517,15.2266-3.278.2115-.1057.423,0,.423.2115-.5287,14.6979-20.3021,24.5317-20.3021,24.5317,2.432,2.432,7.9305,2.0091,10.0453.6344.2115-.1057.423,0,.423.3172-.423,2.9607-3.9124,5.6042-6.8731,8.565-24.426,24.426-18.9275,40.0755-31.8278,40.0755.1057-.5287,1.1631-5.0755-3.9124-5.0755-7.9305,0-14.3807,15.0151-23.7915,24.426-6.4502,6.4501-14.3807,10.574-23.3686,10.574-3.0665,0-6.2387-1.3746-8.6707-2.9607-.423.3172-.7402.6344-1.1631.9517,2.432,4.1239,7.1903,5.1813,10.2568,5.1813-.423,3.9124-.3172,10.574.6344,11.5257.7402.7402,3.8067-5.6042,8.4592-8.9879,2.432,1.4804,5.4985,2.9607,8.6707,2.9607,8.8822,0,16.9184-4.2296,23.3686-10.574,9.4109-9.4109,15.861-24.426,23.7915-24.426,4.9698,0,4.0181,4.5468,3.9124,5.0755,12.7946,0,7.4018-15.6495,31.8278-40.0755,2.9607-2.9607,6.4502-5.6042,6.8731-8.565,0-.2115-.2115-.423-.423-.3172-2.1148,1.3746-7.6133,1.7976-10.0453-.6344,0,0,19.7734-9.8338,20.3021-24.5317,0-.3173-.2115-.4231-.423-.3173Z" style="fill: #7da3c9;"/>
        <path d="M245.7779,274.1692h0c.7402,3.4894,3.5952,10.1511,9.8338,10.1511,2.855,0,4.8641-.7402,6.1329-1.7976.6344.1057,1.3746.2115,2.2206.2115,8.2477,0,10.1511-9.9396,20.4079-9.9396h.1057c-6.3444-5.287-13.429-8.565-18.2931-8.565-10.2568,0-12.1601,9.9396-20.4079,9.9396Z" style="fill: #7da3c9;"/>
        <path d="M257.7266,205.1209c0,19.6677,9.9396,28.3384,10.6798,29.0786.3172.3172.5287.7402.6344,1.2689,5.4985.7402,10.2568,2.1148,14.4864,3.8067-3.1722-4.2296-7.6133-12.4773-7.6133-25.5891,0-3.9124-2.6435-6.9789-6.7674-6.9789h0c-1.2689-2.7493-4.6526-8.3535-11.7372-8.3535-1.4804,0-2.6435.1057-3.5952.423,2.432,1.0574,3.9124,3.4894,3.9124,6.3444Z" style="fill: #7da3c9;"/>
        <path d="M590.3853,239.2749c-2.5378,0-3.9124.423-3.9124.423,0,0,17.0242-16.707,17.0242-42.7191,0-11.8429-2.855-16.3897-3.278-16.3897-.8459,0-.9517,7.0846-6.3444,12.4773-2.6435,2.6435-6.2387,3.7009-9.3051,5.0755-3.3837,20.4079-16.1782,32.9909-16.1782,32.9909,0,0,1.3746-.423,3.9124-.423,5.6042,0,9.6224,3.9124,8.7764,4.7583-.7402.7402-8.3535-.3172-15.5438,6.7674,0,0-9.3051,11.3142-24.7432,11.3142s-28.9728-7.5076-28.9728-7.5076c-6.0272,5.3928-10.4683,13.7462-10.4683,21.6767,0,7.8248,2.3263,15.1208,7.1903,22.7341,4.6526,7.1903,10.997,13.852,17.2356,20.3021,12.4773,13.006,25.4834,26.5408,25.4834,45.574,0,9.1994-3.0665,17.8701-8.6707,24.3202-3.0665,3.5952-6.8731,6.4502-11.2085,8.4592-4.5468,2.1148-9.7281,3.1722-15.2266,3.1722-8.2477,0-15.2266-1.6918-21.4652-4.0181,1.4804.7402,3.0665,1.4804,4.6526,2.3263,9.5166,4.8641,20.3021,10.3625,35.1058,10.3625,5.4985,0,10.574-1.0574,15.2266-3.1722,4.3354-2.0091,8.0363-4.8641,11.2085-8.4592,5.6042-6.5559,8.6707-15.2266,8.6707-24.3202,0-19.0332-12.9003-32.4623-25.4834-45.574-6.2387-6.4502-12.5831-13.1118-17.2356-20.3021-4.9698-7.719-7.1903-14.9094-7.1903-22.7341,0-7.9305,4.4411-16.284,10.4683-21.6767,0,0,13.429,7.5076,28.9728,7.5076,15.4381,0,24.7432-11.3142,24.7432-11.3142,7.0846-7.0846,14.6979-6.0272,15.5438-6.7674.6344-.9517-3.3837-4.8641-8.9879-4.8641Z" style="fill: #7da3c9;"/>
        <path d="M438.9653,122.432c.1057-.1057.1057-.3172-.1057-.423-2.0091-.7402-6.3444-2.432-16.284-2.432-2.5378,0-4.9698.3172-7.2961.9517,9.5166-1.4804,17.2356-.5287,23.6858,1.9033Z" style="fill: #7da3c9;"/>
        <path d="M490.8837,428.1269c-3.0665-3.9124-4.9698-8.9879-4.9698-14.5921,0-11.4199,3.7009-16.4955,5.1813-26.6465-3.5952-1.4804-6.8731-3.1722-10.0453-4.7583-2.855-1.4804-5.4985-2.855-8.142-3.9124-1.4804,10.2568-5.1813,15.3323-5.1813,26.858,0,13.429,10.3625,23.1571,22.5226,23.1571.3173-.1057.5287-.1057.6345-.1057Z" style="fill: #7da3c9;"/>
        <path d="M483.5877,157.1148c.2115,0,.3172.2115.2115.423-1.5861,2.855-5.9215,5.9215-9.5166,5.9215-1.6918,0-2.7493-.2115-2.7493-.2115,10.3625,9.1994,8.8822,34.2598,19.8791,35.1057.2115,0,.3172.3172.2115.5287-1.5861,1.3746-4.1239,2.432-8.4592,2.432-3.9124,0-7.1903-2.0091-7.1903-2.0091,0,0,2.3263,3.5952,2.3263,8.565s-2.0091,6.2387-2.0091,13.3233c0,6.1329,5.9215,10.1511,7.4018,11.1027.2115.1057.2115.3172,0,.423-.8459.6344-2.3263,1.0574-4.9698,1.0574-3.0665,0-9.1994-2.1148-12.6888-5.6042.8459.8459,5.0755,5.3928,5.0755,13.1118s-2.855,13.6405-2.855,21.3595c0,6.7674,4.5468,10.4683,5.71,11.3142.1057.1057.1057.3172,0,.423-.6344.5287-1.9033,1.2689-4.0181,1.2689-2.3263,0-9.4109-1.4804-13.5347-5.4985,2.1148,8.9879-3.5952,16.0725-3.5952,28.8671,0,23.4743,18.0816,38.5952,20.6193,63.7613,4.8641,1.9033,9.4109,4.3354,13.9577,6.6616,1.3746.7402,2.7493,1.3746,4.1239,2.0091-2.855-24.6375-20.5136-40.71-20.5136-63.8671,0-12.7946,5.71-19.8791,3.5952-28.8671,4.1239,4.1239,11.2085,5.4985,13.5347,5.4985.6344,0,1.1631-.1057,1.6918-.2115-.6344-1.9033-1.1631-3.8067-1.5861-5.71-1.0574-1.7976-1.9033-4.1239-1.9033-7.0846,0-3.8067.7402-7.1903,1.3746-10.4683.2115-.9517.423-2.0091.6344-2.9607.5287-2.5378.8459-5.0755.8459-7.9305,0-7.719-4.2296-12.2659-5.0755-13.1118,3.1722,3.1722,8.6707,5.1813,11.8429,5.4985.9517-1.1631,2.0091-2.3263,3.0665-3.4894-2.2206-1.9033-4.7583-5.0755-4.7583-9.0937,0-7.0846,2.0091-8.3535,2.0091-13.3233s-2.3263-8.565-2.3263-8.565c0,0,3.278,2.0091,7.1903,2.0091,4.3354,0,6.8731-1.0574,8.4592-2.432.2115-.2115.1057-.423-.2115-.5287-10.997-.8459-9.5166-25.9063-19.8791-35.1057,0,0,1.0574.2115,2.7493.2115,3.5952,0,7.9305-3.0665,9.5166-5.9215.1057-.2115,0-.423-.2115-.423-16.4955-.8459-23.6858-31.1934-51.0725-36.5861,13.9577,10.997,21.0423,27.5982,33.0967,28.1269Z" style="fill: #7da3c9;"/>
      </g>
      <path d="M351.8354,163.565c-2.5378,2.5378-2.2206,5.71-4.4411,7.9305-.9517.9517-2.2206,1.5861-3.9124,1.5861-3.278,0-5.4985-2.7493-5.4985-5.4985,0-2.855,3.278-5.3928,12.1601-5.3928,1.0574,0,2.3263,0,3.4894.1057-.6344.2115-1.2689.6344-1.7976,1.2689" style="fill: #7496bd;"/>
      <path d="M572.1979,230.71c-2.5378,0-3.9124.423-3.9124.423,0,0,17.0242-16.707,17.0242-42.719,0-11.8429-2.855-16.3897-3.278-16.3897-.8459,0-.9517,7.0846-6.3444,12.4773-3.9124,3.9124-10.1511,4.3354-13.6405,7.8248,3.3837-7.1903.9517-16.8127.423-16.8127-.423,0-.2115,5.0755-6.6616,11.5257-4.1239,4.1239-13.5347,7.0846-21.3595,14.8036,3.278-7.6133.423-15.5438-.3172-15.5438s0,4.5468-4.4411,8.9879c-4.1239,4.1239-12.0544,6.1329-17.9758,12.1601-8.2477,8.2477-6.7674,20.7251-6.7674,25.2719v1.2689c-1.1631.8459-2.3263,1.7976-3.4894,2.7493-9.3051,8.142-14.2749,18.9275-14.2749,31.0876,0,23.2628,15.0151,38.9124,28.3384,52.8701,5.9215,6.1329,11.4199,11.9486,15.4381,17.9758,4.1239,6.2387,6.0272,11.9486,6.0272,17.8701,0,5.71-1.9033,11.3142-5.287,15.2266-3.8067,4.4411-8.9879,6.6616-15.6495,6.6616-11.4199,0-19.7734-4.2296-28.6556-8.7764-4.5468-2.3263-9.0937-4.7583-13.9577-6.6616-2.5378-25.0604-20.6193-40.287-20.6193-63.7613,0-12.7946,5.71-19.8791,3.5952-28.8671,4.1239,4.1239,11.2085,5.4985,13.5347,5.4985,2.0091,0,3.278-.7402,4.0181-1.2689.1057-.1057.1057-.3172,0-.423-1.1631-.8459-5.71-4.5468-5.71-11.3142,0-7.719,2.855-13.6405,2.855-21.3595s-4.2296-12.2659-5.0755-13.1118c3.4894,3.4894,9.6224,5.6042,12.6888,5.6042,2.6435,0,4.1239-.423,4.9698-1.0574.1057-.1057.1057-.3172,0-.423-1.4804-.9517-7.4018-4.9698-7.4018-11.1027,0-7.0846,2.0091-8.3535,2.0091-13.3233s-2.3263-8.565-2.3263-8.565c0,0,3.278,2.0091,7.1903,2.0091,4.3354,0,6.8731-1.0574,8.4592-2.432.2115-.2115.1057-.423-.2115-.5287-10.997-.8459-9.5166-25.9063-19.8791-35.1057,0,0,1.0574.2115,2.7493.2115,3.5952,0,7.9305-3.0665,9.5166-5.9215.1057-.2115,0-.423-.2115-.423-19.8791-1.0574-26.2236-45.0453-71.0574-36.1631,2.3263-3.2779,6.6616-6.0272,8.142-6.9789.2115-.1057.2115-.423,0-.5287-2.0091-.7402-6.3444-2.432-16.284-2.432-10.2568,0-19.6677,5.4985-25.0604,12.4773,2.432-4.864-.5287-10.997-3.278-14.0634-.1057-.2115-.423-.1057-.5287.1057-.3172,1.2689-1.3746,3.9124-3.0665,5.6042-8.0363,8.0363-22.5226,13.2175-22.5226,30.0302,0,0-4.7583,3.0665-11.1027,7.4018-6.4502,4.3354-9.8338,11.2085-9.8338,13.429-2.432,1.2689-12.5831,8.7764-20.7251,16.9184-.2115.2115-.2115.5287-.1057.7402.8459,1.3746,1.4804,3.0665,1.7976,4.0181.1057.423.6344.5287.9517.2115,1.0574-1.0574,3.278-2.9607,4.3354-3.278-1.7976,1.7976-2.432,4.0181-2.432,6.7674,0,6.1329,13.5347,14.6979,14.3807,13.852.6344-.6344-1.5861-6.8731.423-8.8822,3.0665-3.0665,13.852-3.3837,17.1299-3.3837,3.3837,0,5.0755,1.2689,5.0755,3.5952,0,5.71-3.278,16.3897-13.6405,16.3897-4.2296,0-6.8731-4.0181-7.6133-3.3837-.6344.6344-.1057,6.6616,1.2689,8.6707,0,0-1.1631,1.3746-1.1631,4.2296,0,7.4018,12.2659,16.9184,13.5347,15.6496.8459-.8459-2.5378-9.1994-.423-9.1994,1.1631,0,4.4411,4.7583,8.2477,4.7583.2115,0,.2115-.1057.3172-.1057.6344-.6344-2.432-4.8641-.7402-6.4502,4.1239-4.1239,14.9094-12.2659,17.6586-13.1118,5.71-1.7976,8.6707,2.3263,8.6707,7.9305,0,12.4773-13.2175,15.0151-24.003,25.6949-10.7855,10.7855-12.9003,26.1178-26.435,26.1178-1.7976,0,10.0453-3.278,13.429-15.0151-35.423.3172-41.4502-19.4562-69.7885-23.2628-.1057-.423-.3172-.8459-.6344-1.2689-.7402-.7402-10.6798-9.5166-10.6798-29.0786,0-3.9124-2.6435-6.9789-6.7674-6.9789h0c-1.2689-2.7493-4.6526-8.3535-11.7372-8.3535-6.7674,0-8.4592,3.1722-8.0363,3.4894.423.423,3.278-.6344,6.7674,2.855,2.0091,2.0091,2.855,4.3354,3.1722,5.9215-.8459,1.0574-1.3746,2.2206-1.3746,3.5952,0,0-3.4894-.6344-6.8731,2.5378-1.4804-.8459-3.9124-1.7976-7.6133-1.7976-9.7281,0-11.7372,8.7764-11.3142,9.1994.423.423,2.1148-1.5861,5.0755-1.5861,3.3837,0,6.9789,2.7493,8.8822,4.3354-.2115,2.2206.2115,4.3354,1.6918,5.8157,0,0-4.6526,1.3746-5.4985,7.9305-.2115,0-.423.1057-.6344.2115-12.9003,3.5952-10.4683,13.6405-9.9396,13.6405s1.1631-4.3354,7.0846-4.3354c2.0091,0,3.7009.2115,4.9698.5287,2.3263,4.4411,6.4502,5.4985,9.4109,5.4985,2.6435,0,5.1813-.6344,7.4018-.6344,2.9607,0,4.7583,1.7976,4.7583,5.9215,0,6.0272-5.8157,4.2296-8.4592,6.8731-1.7976,1.7976-2.0091,3.3837-2.0091,5.8157v.3172c-.8459.2115-1.6918.423-2.5378.423-4.0181,0-6.3444-3.5952-6.8731-3.0665-.7402.7402,1.6918,12.2659,9.8338,12.2659,2.855,0,4.8641-.7402,6.1329-1.7976.6344.1057,1.3746.2115,2.2206.2115,8.2477,0,10.1511-9.9396,20.4079-9.9396,10.1511,0,29.9245,14.1692,32.7795,31.8278,0,.2115.3172.3172.423.2115,4.4411-3.7009,4.2296-9.1994,4.2296-9.1994,8.3535,6.7674,11.8429,9.9396,18.8218,16.8127,0,0-40.71,31.2991-42.8248,32.568-1.7976,1.0574-2.7493,1.5861-4.9698,1.5861-5.71,0-7.5076-9.6224-16.707-9.6224-1.7976,0-3.0665.5287-4.1239,1.3746-.9517-.2115-2.1148-.3172-3.5952-.3172-10.7855,0-12.6888,14.4864-11.7372,14.4864,1.0574,0,1.7976-3.7009,6.8731-3.7009.6344,0,1.3746.1057,2.0091.2115,0,2.7493,1.0574,5.3928,2.855,6.7674,0,0-2.9607,1.0574-4.6526,4.5468-12.7946.423-12.5831,15.5438-11.3142,15.5438.8459,0,1.3746-6.3444,8.7764-6.3444.5287,0,1.2689.2115,1.9033.5287,1.2689,5.6042,5.1813,8.6707,9.7281,8.6707-1.1631,2.1148-.9517,5.4985.3172,8.4592-2.9607,6.2387,2.3263,14.6979,3.7009,14.6979,1.0574,0-.2115-5.4985,2.1148-8.9879.5287.1057,1.0574.2115,1.5861.2115,6.6616,0,9.5166-5.6042,9.5166-5.6042,0,0,.423,5.9215,6.3444,6.5559,1.2689,5.287,4.6526,9.7281,5.71,9.7281.7402,0-.7402-7.1903,1.4804-11.7372,8.4592-8.4592,1.7976-19.3504,10.574-28.0212,10.0453-10.0453,34.7885-19.0332,55.1964-19.8791,7.4018,8.2477,17.5529,20.8308,22.2054,24.003l-.5287.5287c-12.5831,12.5831-35.8459,1.5861-48.1118,13.852-4.8641,4.8641-5.4985,9.3051-12.3716,9.3051-2.3263,0-4.5468-1.1631-5.4985-2.1148-.1057-.1057-.423-.1057-.423.1057-.423,1.4804-.7402,6.3444,2.9607,10.0453,4.2296,4.2296,9.5166,3.4894,10.8912,2.7493-3.3837,4.5468-10.7855,4.3354-15.1209,1.7976-.2115-.1057-.5287.1057-.423.3172,3.3837,13.1118,16.9184,10.574,16.9184,10.574,2.855,14.0634,16.707,19.8791,16.707,29.29,0,2.6435-1.0574,5.6042-3.278,7.8248-5.287,5.287-16.9184,8.7764-29.6073,8.7764-20.4079,0-20.7251-14.4864-31.8278-14.4864-1.4804,0-2.855.2115-4.2296.5287-1.5861-1.7976-5.0755-3.9124-9.5166-3.9124-6.7674,0-10.7855,7.719-9.8338,8.6707.5287.5287,2.5378-1.9033,5.6042-1.9033,1.4804,0,3.3837,1.2689,4.1239,3.3837-.5287.6344-1.0574,1.3746-1.4804,2.2206-1.1631-.3172-2.5378-.5287-4.3354-.5287-12.7946,0-12.5831,14.8036-11.2085,14.8036.7402,0,2.432-5.4985,8.6707-4.7583-1.2689,2.3263-1.9033,4.8641-1.9033,7.719v1.2689c-2.9607,1.6918-5.1813,4.8641-5.1813,8.565,0,5.3928,1.0574,8.0363,1.7976,8.0363.9517,0,1.7976-6.2387,6.4502-8.2477,2.1148,2.855,5.1813,5.0755,8.7764,6.0272-.423,1.7976-.8459,4.6526-.8459,8.6707,0,4.9698,1.5861,11.6314,2.5378,11.6314s1.5861-7.719,4.8641-10.6798c1.3746,1.3746,3.0665,2.432,4.9698,3.278,1.7976.8459,3.9124,1.2689,6.3444,1.2689h.423c17.1299-.3172,28.0212-15.9668,40.8157-15.9668,7.1903,0,7.2961,6.7674,4.6526,9.6224,19.4562,0,24.9547-14.8036,36.7976-14.8036,6.0272,0,11.4199,3.1722,16.9184,3.1722,3.5952,0,8.0363-1.1631,10.574-6.3444.1057-.2115,0-.423-.2115-.423-9.0937.1057-12.9003-4.2296-13.6405-6.8731,16.284,6.5559,21.0423-3.5952,21.9939-6.2387.1057-.2115-.1057-.423-.423-.3172-.6344.3172-1.7976.6344-3.0665.6344-8.7764,0-18.1873-8.8822-18.1873-21.148,0-11.6314,8.0363-18.1873,15.7553-20.3021,6.0272-17.1299,14.5921-20.6193,11.3142-31.2991v-.1057h0c.9517,1.1631,2.6435,5.8157,2.6435,8.3535,0,11.3142-10.8912,17.7643-10.8912,35.7402,0,20.1964,15.7553,19.4562,15.7553,32.991,0,5.3928-2.0091,8.4592-2.855,9.5166-.1057.2115,0,.423.2115.423,1.9033.3172,9.3051.5287,16.3897-11.2085,9.4109,4.8641,6.8731,13.006,6.1329,14.9094-.1057.2115.1057.423.3172.423,12.2659-.423,16.1782-17.0242,16.1782-17.0242,10.7855-1.1631,19.3504,2.5378,19.3504,7.0846,0,11.7372-21.8882,33.6254-37.855,33.6254-5.9215,0-8.0363-6.2387-13.2175-6.2387-3.8067,0-5.6042,1.7976-6.7674,4.1239-2.1148-.9517-4.2296-1.3746-6.2387-1.3746-5.0755,0-9.5166,2.855-11.1027,9.0937-6.8731,2.2206-8.2477,12.9003-7.6133,13.6405.5287.5287,3.9124-5.0755,9.5166-3.8067.9517,1.5861,2.1148,2.855,3.0665,3.8067-1.1631.6344-2.3263,1.3746-3.7009,2.7493-6.7674,6.7674-5.0755,14.275-4.4411,14.9094.7402.7402,1.9033-2.6435,3.8067-4.5468,1.4804-1.4804,3.5952-3.0665,6.4502-2.855,2.3263,4.3353,7.2961,5.4985,10.4683,5.4985-.423,3.9124-.3172,10.574.6344,11.5257.7402.7402,3.8067-5.6042,8.4592-8.9879,2.432,1.4804,5.4985,2.9607,8.6707,2.9607,8.8822,0,16.9184-4.2296,23.3686-10.574,9.4109-9.4109,15.861-24.426,23.7915-24.426,4.9698,0,4.0181,4.5468,3.9124,5.0755,12.7946,0,7.4018-15.6495,31.8278-40.0755,2.9607-2.9607,6.4502-5.6042,6.8731-8.565,0-.2115-.2115-.423-.423-.3172-2.1148,1.3746-7.6133,1.7976-10.0453-.6344,0,0,19.7734-9.8338,20.3021-24.5317,0-.2115-.3172-.423-.423-.2115-5.287,4.2296-15.2266,3.278-15.2266,3.278,4.6526-3.7009,8.0363-14.2749,3.278-24.2145-.1057-.2115-.423-.2115-.5287,0-4.5468,10.8912-13.9577,14.5921-22.4169,14.5921-12.1601,0-22.5226-9.8338-22.5226-23.1571,0-11.4199,3.7009-16.6012,5.1813-26.858,2.6435,1.1631,5.287,2.432,8.142,3.9124,9.5166,4.8641,20.3021,10.3625,35.1058,10.3625,5.4985,0,10.574-1.0574,15.2266-3.1722,4.3354-2.0091,8.0363-4.8641,11.2085-8.4592,5.6042-6.5559,8.6707-15.2266,8.6707-24.3202,0-19.0332-12.9003-32.4623-25.4834-45.574-6.2387-6.4502-12.5831-13.1118-17.2356-20.3021-4.9698-7.719-7.1903-14.9094-7.1903-22.7341,0-7.9305,4.4411-16.284,10.4683-21.6767,0,0,13.429,7.5076,28.9728,7.5076,15.4381,0,24.7432-11.3142,24.7432-11.3142,7.0846-7.0846,14.6979-6.0272,15.5438-6.7674.5287-1.3748-3.4894-5.2872-9.0937-5.2872M351.8354,163.565c-2.5378,2.5378-2.2206,5.71-4.4411,7.9305-.9517.9517-2.2206,1.5861-3.9124,1.5861-3.278,0-5.4985-2.7493-5.4985-5.4985,0-2.855,3.278-5.3928,12.1601-5.3928,1.0574,0,2.3263,0,3.4894.1057-.6344.2115-1.2689.6344-1.7976,1.2689" style="fill: #ffe505;"/>
    </g>
  </g>
</svg>