<?xml version="1.0" encoding="utf-8"?>
<!-- Created by @FCLOGO 2022-06-23 11:12:44 . https://fclogo.top/ -->
<!-- FOR PERSONAL USE ONLY NOT FOR COMMERCIAL USE -->
<svg version="1.1" xmlns="http://www.w3.org/2000/svg" xmlns:xlink="http://www.w3.org/1999/xlink" x="0px" y="0px"
	 viewBox="0 0 800 800" enable-background="new 0 0 800 800" xml:space="preserve">
<g>
	<g>
		<path fill="#FFFFFF" d="M170.58,50c0,0,0,67.32,0,281c0,187.39,91.58,350.58,225.81,419c134.23-68.42,225.81-231.61,225.81-419
			c0-213.68,0-281,0-281H170.58z"/>
		<path fill="#042E9C" d="M661.22,450.53c-1.62-8.46-6.8-19.7-21.82-27.87c11.8-5.87,19.93-18.05,19.93-32.1
			c0-19.76-16.08-35.83-35.83-35.83c-14.02,0-26.18,8.1-32.06,19.86l-0.01,0l-0.01,0c-24.5-0.66-56.76,1.71-77.16,3.01v-28.73
			v-18.99h-18.99h-20.82h-1.82v-10.2v-18.99h-18.99h-27.29h-3.87V200.23v-18.99h-18.99h-38.96h-2.43v-15.49h-18.99h-43.26h-18.99
			v18.99v239.31c-39.95,14.57-74.08,31.56-99.29,49.48c-31.26,22.23-45.77,43.71-43.13,63.85c1.18,8.99,5.28,17.12,11.87,23.51
			c5.21,5.06,12.04,9.11,20.29,12.03c7.19,2.54,40.27,6.46,57.08,4.8c-31.81,9.12-86.55,10.66-86.55,10.66s29.01,18.81,80,22.79
			c16.65,1.3,41.85,1.38,59.73-0.02v13.58v18.99h18.99h43.26h18.99h2.43h38.96h18.99h3.87h27.29h18.99h1.82h20.82h18.99v-18.99
			v-57.49c10.39-3.54,20.55-7.27,30.35-11.17c36.22-14.38,66.08-30.9,86.35-47.78c10.43-8.68,18.32-17.46,23.47-26.09
			C660.88,471.38,663.17,460.72,661.22,450.53z M280.83,534.13c-21.64-0.33-39.16-1.6-52.14-3.77c-7.12-1.19-11.86-2.49-14.95-3.57
			c2.83-2.97,7.83-7.41,16.55-13.44c12.23-8.46,29.2-18.24,50.53-29.13V534.13z M565.39,484.33c-13.35,8.47-30.75,17.09-51.14,25.37
			v-89.68c1.2-0.16,2.39-0.31,3.57-0.46l4.37,36.04c0.05,0,6.66-0.49,15.95-0.49c32.78,0,47.05,5.56,51.05,8.51
			C587.57,466.48,582.18,473.69,565.39,484.33z"/>
		<path fill="#042E9C" d="M396.38,132.1c56.88,0,111.11,9.14,161.19,27.18c22.36,8.05,43.97,17.92,64.62,29.47
			c0-102.77,0-138.75,0-138.75H170.58c0,0,0,35.97,0,138.75c20.65-11.55,42.25-21.42,64.62-29.47
			C285.28,141.24,339.51,132.1,396.38,132.1z"/>
		<path fill="#042E9C" d="M396.38,140.54c-55.9,0-109.17,8.98-158.33,26.68c-23.42,8.43-46,18.9-67.48,31.23
			c0,36.08,0,79.86,0,132.55c0,187.39,91.58,350.58,225.81,419c134.23-68.42,225.81-231.61,225.81-419c0-52.7,0-96.48,0-132.56
			c-21.48-12.33-44.06-22.8-67.48-31.23C505.55,149.51,452.28,140.54,396.38,140.54z"/>
		<path fill="#FFFFFF" d="M396.38,723.69C338.67,691.41,289.45,639.89,253.53,574c-39.08-71.68-59.74-155.71-59.74-243V212.14
			c16.81-8.92,34.29-16.66,52.13-23.09c46.63-16.79,97.25-25.31,150.46-25.31c53.21,0,103.83,8.51,150.46,25.31
			c17.84,6.43,35.33,14.17,52.13,23.09V331c0,87.29-20.66,171.32-59.74,243C503.32,639.89,454.1,691.41,396.38,723.69z"/>
		<path fill="#088E3F" d="M395.33,715.8c-54.8-31.78-101.91-81.86-136.24-144.83c-38.57-70.76-58.96-153.74-58.96-239.97V215.97
			l1.15-0.59c15.14-7.78,30.89-14.64,46.8-20.37c45.94-16.54,95.84-24.93,148.32-24.93c52.48,0,102.38,8.39,148.32,24.93
			c15.92,5.73,31.66,12.59,46.8,20.37l1.15,0.59V331c0,86.23-20.39,169.21-58.96,239.97c-34.33,62.97-81.44,113.05-136.24,144.83
			l-1.06,0.61L395.33,715.8z"/>
		<g>
			<rect x="299.83" y="184.74" fill="#20BA5E" width="43.26" height="439.99"/>
			<rect x="364.51" y="200.23" fill="#20BA5E" width="38.96" height="424.5"/>
			<rect x="426.33" y="319.68" fill="#20BA5E" width="27.29" height="305.05"/>
			<rect x="474.44" y="348.87" fill="#20BA5E" width="20.82" height="275.87"/>
			<path fill="#20BA5E" d="M578.3,394.56c0,0-179.65,9.82-296.84,68.07s-123.51,89.12,2.11,90.53c0,0-120.7,24.56-126.32-18.25
				C151.63,492.11,322.16,394.56,578.3,394.56z"/>
			<path fill="#20BA5E" d="M520.75,436.67c0,0,81.43-6.18,87.72,23.16c8.42,39.3-154.39,115.79-411.23,133.33
				c0,0,179.73,9.03,340.35-54.74C677.25,482.98,684.26,409.3,520.75,436.67z"/>
			<circle fill="#20BA5E" cx="623.49" cy="390.56" r="16.84"/>
		</g>
	</g>
	<g>
		<path fill="#FFFFFF" d="M543.09,312.08c-1.12-0.43-4.64-2.22-6.07-4.77c-0.66-1.17-2.62-6.28-0.18-22.66l0.22-1.44
			c1.46-9.42,4.57-29.58-15.66-40.69l15.64-12.12c3.12-2.42,3.78-6.85,1.52-10.08c-2.26-3.23-6.67-4.11-10-1.99l-15.89,10.07
			c-0.38-3.41-1.23-6.9-2.87-9.89c-4.87-8.88-10.4-16.59-28.75-20.94c-15.08-3.58-19.63-5.27-24.24-20.15
			c-1.08-3.5-4.56-5.67-8.19-5.11c-3.62,0.56-6.28,3.7-6.25,7.36c0,0.49,0.06,4.12,0.86,8.6l-24.1,75.02
			c-1.03,0.15-2.06,0.3-3.09,0.45c0-0.16-0.01-0.31-0.02-0.47c-0.08-1.4-0.38-2.59-0.78-3.59c0.83-1.77,1.19-3.86,1.08-6.27
			c-0.2-4.11-2.29-8.86-5.73-13.09c5.57-2.44,9.34-6.66,11.38-11.06c1.36-2.95,0.63-6.43-1.79-8.59c-2.42-2.17-5.98-2.49-8.76-0.81
			c-1.03,0.62-4.61,2.43-7.46,2.55c-4.22,0.18-8.6,0.09-12.04-0.08c-1.41-5.81-6.92-23.79-7.16-24.56
			c-1.12-3.63-4.81-5.82-8.54-5.07c-3.73,0.76-6.27,4.22-5.87,8.01c0.26,2.45,2.47,23.61,2.67,25.44c-1.57,1.71-2.48,4.03-2.47,6.57
			c0,2.43,0.87,4.63,2.37,6.23c-0.66,2.35-1.18,5.5-0.87,9.56c0.6,7.77,1.78,16.39,5.75,22.86c-5.53,2.09-13.04,5.34-16.43,7.76
			c-1.69,1.21-4.48,3.77-8.63,7.7l-2.9-2.6c0.55-0.78,0.95-1.69,1.16-2.67c0.72-3.33-0.93-6.72-3.99-8.21
			c-0.31-0.15-2.23-1.06-6.22-2.38c0.66-1.96,1.05-4.09,0.89-6.27c-0.2-2.63-1.8-4.95-4.18-6.1c-2.38-1.14-5.21-0.92-7.38,0.57
			c-1.17,0.8-3.16,1.79-4.06,1.92c-1.12,0.15-4.93,0.17-7.99,0.18c-4.49,0.01-9.57,0.03-13.5,0.36c-6.19,0.52-12.25,3.32-17.13,5.56
			c-0.82,0.38-1.61,0.74-2.36,1.07c-0.09-0.5-0.14-1.06-0.12-1.64c0.15-3.35-1.98-6.38-5.17-7.38c-3.2-1-6.67,0.28-8.46,3.11
			c-0.43,0.68-1.6,2.66-2.57,5.36c-1.29-0.97-2.78-1.87-4.5-2.65c-2.77-1.26-6.03-0.69-8.21,1.44c-2.18,2.13-2.83,5.38-1.64,8.18
			c1.14,2.68,2.26,5.98,2.53,7.38c-0.03,0.06-0.06,0.13-0.09,0.19c-0.56,1.21-1.88,4.03-0.71,7.77c0.72,2.29,2.1,3.71,2.95,4.52
			c0,0.02,0,0.05,0,0.07c-0.16,3.57-0.55,12.21,5.04,18.5c-0.11,1.05-0.12,2.24,0.17,3.5c0.37,1.61,1.3,3.61,3.54,5.06
			c0,0.1,0.01,0.19,0.01,0.29c0.56,12.53,1.23,20.57,2.95,24.53c1.66,3.82,6.05,9.8,16.99,8.22c-0.18,1.16-0.37,2.4-0.56,3.73
			c0,0-0.01,0-0.01,0c-3.45,0-5.52-0.36-9.57-3.63l-1.81-1.47c-5.16-4.2-8.9-7.24-14.04-6.38c-5.36,0.89-17.92,9.23-17.92,21.32
			c0,2.43,0.87,4.36,1.81,5.82c-7.83,7.23-29.67,29.54-32.73,45.22c-0.39,1.98,0.05,4.02,1.21,5.67c1.16,1.65,2.94,2.75,4.93,3.05
			c1.2,0.18,11.93,1.65,19.82-2.53c2.65-1.4,11.39-6.63,12.8-15.06c0.06-0.37,0.11-0.74,0.14-1.12c0.65-0.25,1.34-0.59,2.04-1.08
			c0.4,1.65,1.36,3.13,2.73,4.17c2.26,1.71,5.91,5.22,6.93,7.66c0.57,1.37,0.98,2.56,1.33,3.62c1.06,3.15,2.83,8.41,9.24,9.27
			c2.83,0.38,5.17-0.13,6.88-0.51c0.69-0.15,1.33-0.29,1.72-0.31c1.59-0.05,4.59-0.14,7.3-0.22l4.17-0.12
			c3.62-0.11,6.67-2.05,8.16-5.17c1.26-2.65,1.8-7-2.24-13.06c1.96,0.6,3.84,0.89,5.58,0.8c7.1-0.4,13.67-6.16,20.1-17.6
			c0.21-0.37,0.42-0.75,0.62-1.12c5.35,8.52,12.79,19.15,19.54,24.5c3.94,3.12,9.15,6.82,14.18,10.4
			c6.46,4.59,16.18,11.49,18.09,13.93c0.15,0.31,0.34,0.73,0.57,1.22c10.82,23.54,26.84,39.27,47.67,46.84
			c-2.74,13.75-8.15,32.32-14.49,37.93c-1.59,1.4-2.49,3.42-2.49,5.53c0,2.94,1.48,5.64,4.06,7.42c4.67,3.21,14.31,3.45,20.7,2.47
			c2.39,1.47,5.39,2.75,8.66,3.64c2.57,0.7,5.91,1.34,9.6,1.34c2.56,0,5.29-0.31,8.03-1.11c2.12-0.62,3.85-2.16,4.71-4.19
			c0.51-1.19,4.8-11.89-0.22-20.61c-1.98-3.45-2.8-4.87,1.53-14.27c2.47-5.35,3.71-10.47,4.31-14.69c4.64,4.2,10.88,7.29,19.29,8.55
			c3.11,0.47,6.13-1.09,7.59-3.78c4.2,0.77,8.7,0.9,12.92-0.34c5.28-1.56,9.42-5.04,11.97-10.08c1.18-2.32,1.2-5.1-0.19-7.3
			c-1.4-2.2-3.7-3.52-6.29-3.43c-0.36-0.01-8.91-0.36-14.69-9.45c-5.63-8.85-9.25-17.28-11.05-25.76l-0.11-0.53
			c-4.68-22.44-16.86-31.85-27.92-35.63c-0.59-4.4-1.92-10.42-4.86-15.47c4.77-5.05,9.07-10.82,10.55-16.26
			c4.63-2.92,11.44-9.17,20.04-22.45c1.54-2.38,1.58-5.43,0.11-7.85c-1.1-1.8-2.89-3.02-4.9-3.41c0.12-1.94-0.52-3.85-1.81-5.33
			c-1.39-1.59-3.4-2.51-5.51-2.53c-0.17,0-17.16-0.14-29.65-2.13c-13.75-2.19-13.68-4.2-13.54-8.62c0.04-1.42,0.08-2.78,0.11-4.08
			c0.07-3.06,0.16-6.86,0.49-9.47l95.65,12.5c0,0,0.01,0,0.01,0c3.03,1.65,6.56,2.74,10.53,3.23c3.73,0.46,7.24-1.94,8.12-5.6
			C548.61,317.08,546.63,313.36,543.09,312.08z M442.72,460.56c5.17-3,10.6-7.6,14.46-13.98c0.03,1.06,0.05,2.17,0.07,3.3
			c0.15,7.6,0.33,17.29,2.67,26.42c-1.89-1.13-4.02-2.65-6.05-4.68c-1.44-1.44-2.76-2.79-4-4.05
			C447.31,464.94,445.01,462.6,442.72,460.56z M492.44,230c-4.17,1.91-8.36,5.6-10.22,12.17c-0.71,0.38-2.1,0.87-3.06,1.21
			c-1.96,0.68-4.17,1.46-6.19,2.78c-2.22,1.46-4.76,2.9-6.26,3.72c-4.1,0.38-14.68,1.74-26.47,6.37l15.5-48.25
			c6.73,4.06,12.68,5.95,23.14,9.07C484.05,218.62,490.63,221.63,492.44,230z M503.64,256.12c1.95,0.97,3.82,1.01,4.93,0.95
			c4.47,3.02,10.09,8.06,9.6,17.21c-0.12,2.28-0.43,4.96-0.76,7.8c-0.76,6.62-1.63,14.22-0.69,21.32l-65.18-8.52
			c0.12-0.11,0.24-0.22,0.36-0.33c4.55-4.2,14.9-12.97,21.42-17.99c7.47-5.75,17.67-13.37,19.38-14.54
			c0.17-0.03,0.58-0.07,1.49-0.07C498.9,261.95,501.83,258.7,503.64,256.12z"/>
		<circle fill="#FFFFFF" cx="396.81" cy="593.58" r="80.47"/>
		<path d="M530.02,315.78l0.11-0.83c2.49,2.05,5.85,3.49,10.39,4.06c0,0-6.78-2.46-9.94-8.07c-3.16-5.61-2.69-16.37-1.05-27.37
			c1.64-10.99,6.2-31.58-23.04-38.83l26.02-20.18l-27.78,17.6c0,0,2.57-12.87-1.4-20.12c-3.98-7.25-7.72-13.45-23.98-17.31
			c-16.26-3.86-23.86-6.67-29.59-25.15c0,0,0.04,5.19,1.43,10.51l-0.72-0.23l-25.71,80.03c-5.66,0.84-13.64,2.02-17.69,2.56
			c0,0-3.33-2.98-1.93-3.77c1.4-0.79,3.68-2.02,3.51-5c-0.18-2.98-2.63-2.69-2.51-4.56c0.12-1.87,3.04-0.47,2.81-5.38
			c-0.23-4.91-6.78-14.74-16.96-17.08c0,0-0.82-2.81,2.11-2.22c2.92,0.58,16.14,2.57,21.17-8.3c0,0-5.5,3.39-10.99,3.63
			c-5.5,0.23-11.58,0.06-15.96-0.29c-2.28-0.35-2.28,0.09-3.51-5.18s-7.11-24.39-7.11-24.39s2.54,24.3,2.68,25.44
			c0.13,1.14,1.71,1.49,1.8,2.63c0.09,1.14-1.89,2.15-3.2,2.76c-1.32,0.61-1.24,2.88-0.48,3.23c0.76,0.35,3,1.09,3,2.51
			s-2.6,4.62-2.07,11.4c0.53,6.78,1.58,16.02,5.91,21.29c2.34,2.57,3.86,6.08-1.17,7.72c-5.03,1.64-15.2,5.85-18.48,8.19
			c-3.27,2.34-15.79,14.91-20,18.42c0,0-3.68-2.98-4.56-8.07c0,0,5.03-0.29,10.29,0.06l-16.14-14.5c0,0,3.86-0.94,8.54-1.05
			c0,0-4.09-1.99-14.15-4.56c0,0,5.03-5.5,4.68-10.18c0,0-3.86,2.69-7.25,3.16c-3.39,0.47-14.97,0-21.87,0.58
			c-6.9,0.58-14.5,5.15-19.77,7.13c-5.26,1.99-8.07-4.56-7.84-9.82c0,0-3.98,6.32-2.57,11.58c0,0-4.68,0.7-6.08,3.51
			c0,0,0-6.08-7.72-9.59c0,0,3.39,7.95,3.16,10.76c-0.23,2.81-1.75,3.39-1.17,5.26c0.58,1.87,3.51,1.99,3.27,7.13
			c-0.23,5.15,0,11.46,5.15,14.97c0.99,0.58-0.47,3.51-0.12,5.03c0.35,1.52,3.39,0,3.63,4.33c0.23,4.33,0.7,20.23,2.46,24.27
			c1.75,4.04,5.61,4.56,10.18,3.68c4.56-0.88,6.67-3.16,6.84-6.32c0.18-3.16,0.35-7.89,3.33-7.89c2.98,0,2.46,9.12,1.05,10.35
			c-1.4,1.23-2.63,3.16-4.56,17.02c-0.7,4.39-2.11,5.44-7.19,5.44s-8.77-0.88-14.21-5.26c-5.44-4.39-7.89-6.67-10-6.32
			c-2.11,0.35-11.75,5.96-11.75,14.04c0,3.33,6.67,5.09,1.23,9.65c-5.44,4.56-29.47,28.42-32.28,42.81c0,0,9.3,1.4,15.26-1.75
			c5.96-3.16,12.28-9.65,7.19-15.09c-1.75-1.93,0.09-4.3,1.84-3.33c1.75,0.96,4.74,4.3,6.75-0.61c2.02-4.91,6.67-10.96,8.42-10.96
			c0,0,0,5.26,0.7,8.6c0.7,3.33,0.7,8.95,0.7,8.95s7.02,5.26,9.3,10.7c2.28,5.44,2.11,8.07,4.74,8.42c2.63,0.35,4.82-0.79,7.37-0.88
			c2.54-0.09,8.68-0.26,11.49-0.35c2.81-0.09,2.54-3.51-0.88-7.98c-3.42-4.47-5.88-9.12-9.91-9.12c-4.04,0-8.51-0.53-8.33-3.68
			c0.18-3.16,0.61-4.71-1.26-6.23c-1.87-1.52-3.39-3.16-2.46-15.32c0,0,23.74,25.5,34.15,24.91c10.41-0.58,20.35-27.25,20.35-27.25
			s14.15,26.08,24.91,34.62c10.76,8.54,31.7,21.75,34.15,26.55c2.46,4.8,14.39,36.84,50.18,46.55c0,0-5.91,37.84-18.01,48.54
			c0,3.51,14.56,3.68,19.12,1.93c2.63,2.98,13.51,7.37,22.46,4.74c0,0,3.51-8.25,0.18-14.04c-3.33-5.79-4.04-9.65,1.23-21.05
			c5.26-11.4,4.04-21.4,4.04-21.4s-8.07-2.11-15.26-9.3c-7.19-7.19-11.4-12.11-16.49-14.91c0,0-1.58-4.21,1.05-5.09
			c2.63-0.88,23.86-8.95,21.75-33.16c0,0,8.6,1.23,9.47,19.12c0.88,17.89-2.46,50,26.84,54.39c0,0-7.46-4.47-6.32-9.04
			c0,0,23.54,13.74,31.11-1.2c0,0-12.63,0-20.82-12.87c-8.19-12.87-10.88-22.69-12.05-28.19c-1.17-5.5-5.03-27.37-27.72-31.93
			c0,0-0.47-16.26-7.95-21.75c0,0,15.44-14.27,13.57-20.58c0,0,7.72-1.4,20.82-21.64c0,0-4.5,0.44-7.75,0.35
			c0,0,1.32-4.44,1.78-8.07c0,0-17.54-0.12-30.76-2.22c-13.22-2.11-20.12-4.91-19.77-16.14c0.32-10.37-0.04-17.79,3.5-21.35
			L530.02,315.78z M362.63,333.74c0,0,5.61-3.74,10.06-4.21c5.61,5.61,5.85,11.7,5.85,11.7L362.63,333.74z M438.47,517.72
			c1.23-8.77,6.84-25.26,6.84-25.26s5.61,1.05,5.79,3.16c0.18,2.11-0.35,13.16-5.61,25.44
			C440.23,533.33,437.25,526.49,438.47,517.72z M506.25,248.95c1.52,1.75,2.92-0.35,5.73,1.52c2.81,1.87,14.39,9.01,13.57,24.21
			c-0.6,11.12-4.88,28.12,2.07,37.6l-94.98-12.42c4.55-3.13,10.52-7.28,14.26-10.73c4.56-4.21,15.09-13.16,21.93-18.42
			c6.84-5.26,18.36-13.92,20-14.97c1.64-1.05,3.39-1.17,5.38-1.17c1.99,0,3.74-3.27,4.8-4.8
			C500.05,248.25,504.73,247.19,506.25,248.95z M452.48,193.97c1.05,2.5,2.51,4.73,4.53,6.09c7.13,4.8,12.63,6.55,23.98,9.94
			c11.35,3.39,19.65,11.23,19.3,25.61c0,0-8.77-0.23-11.11,9.12c-1.29,4.91-8.42,5.15-12.16,7.6c-3.74,2.46-8.19,4.8-8.19,4.8
			s-19.82,0.94-37.72,11.81c0,0-1.1,0.17-2.85,0.43L452.48,193.97z"/>
		<circle cx="396.81" cy="593.58" r="72.75"/>
		<circle fill="#FFFFFF" cx="396.81" cy="593.58" r="69.36"/>
		<path d="M456.21,604.2l-9.58-18.06l3.14-19.52l9.48-3.88c-6.32-12.78-16.45-23.33-28.9-30.18l-4.58,9.16l-20.73,3.5l-17.28-10.56
			l-0.1-10.11c-15.4,2.02-29.23,9.07-39.76,19.46l7.67,6.14l-1.53,19.74l-17.31,14.29l-8.64-1.89c-0.6,3.68-0.92,7.45-0.92,11.3
			c0,10.93,2.52,21.28,7.02,30.49l8.75-5.73l17.61,8.99l8.89,19.56l-6.3,7.65c9.98,5.53,21.46,8.67,33.67,8.67
			c3.41,0,6.76-0.24,10.03-0.72l-2.1-11.06l14.67-14.49l18.78-1.46l6.86,8.3c10.64-10.21,18.02-23.77,20.49-38.99L456.21,604.2z
			 M406.5,549.24l19.91-3.36l19.25,19.77l-3.04,18.88l-19.22,1.76l-19.23-19.52L406.5,549.24z M359.76,550.7l25.65-12.54
			l16.94,10.35l-2.3,17.29l-26.18,13.24l-15.58-9.26L359.76,550.7z M344.51,614.42l-4.75-27.29l16.51-13.62l15.76,9.36l4.13,27.43
			l-14.35,12.95L344.51,614.42z M401.58,648.64l-28.2-3.27l-8.65-19.05l14.51-13.09l28.08,4.44l8.59,16.84L401.58,648.64z
			 M437.84,631.29l-18.13,1.4l-8.64-16.93l13.09-25.3l19.07-1.75l9.25,17.46L437.84,631.29z"/>
	</g>
	<g>
		<path fill="#FFFFFF" d="M200.74,109.95c0.14-3.26,0.22-6.24,0.22-8.96V78.33c0-2.56-0.11-5.33-0.32-8.29l7.48,0.2l7.34-0.2
			l-0.11,3.41l-0.11,3.5v21.7v3.61l0.11,3.32c-0.94-0.08-1.66-0.12-2.19-0.12c-0.45,0-1.17,0.05-2.16,0.14
			c0.07-0.98,0.11-2.17,0.11-3.55v-1.82h-6.05v4.05c0,1.81,0.04,3.7,0.13,5.66c-0.99-0.08-1.75-0.12-2.29-0.12
			C202.45,109.83,201.73,109.87,200.74,109.95z M204.98,96.07h6.1V74.6h-6.1V96.07z M217.23,98.82c0.07-1.41,0.11-2.43,0.11-3.06
			l-0.03-2.28c1.35,0.17,3.35,0.26,5.99,0.26h7.61v-20.2c-4.86,0.39-8.9,0.98-12.12,1.79c-0.29-1.7-0.75-3.36-1.38-5
			c1.37,0.08,2.39,0.12,3.08,0.12c2.82,0,6.69-0.43,11.59-1.3c4.9-0.87,8.91-1.82,12.02-2.86l0.4-0.14c1.03,2.25,2.35,4.22,3.97,5.9
			c-0.97-0.13-1.67-0.2-2.11-0.2c-1.57,0-3.5,0.19-5.8,0.58l-3.78,0.64c-0.14,0.02-0.59,0.08-1.35,0.17v20.52h6.8
			c2.16,0,4.64-0.19,7.45-0.58c-0.07,1.14-0.11,2.03-0.11,2.69c0,0.6,0.05,1.59,0.16,2.98c-0.99-0.06-1.73-0.11-2.21-0.14
			c-2.14-0.17-3.58-0.26-4.32-0.26h-7.75v17.51c0,2.14-0.61,3.54-1.82,4.22c-1.21,0.67-3.77,1.01-7.65,1.01
			c-0.22-2.45-1.02-4.47-2.4-6.07c0.77,0.1,1.35,0.17,1.73,0.23c1.49,0.21,2.57,0.32,3.24,0.32c1.51,0,2.27-0.55,2.27-1.65
			l0.11-2.14V98.53h-5.96C222.39,98.53,219.8,98.63,217.23,98.82z M218.85,79.57c1.66-0.35,3.31-0.9,4.97-1.65
			c0.38,1.77,1.01,3.71,1.89,5.81l1.89,4.57c0.05,0.12,0.23,0.55,0.51,1.3c-1.76,0.42-3.57,0.89-5.43,1.39
			C221.95,86.32,220.67,82.52,218.85,79.57z M237.1,90.35c2.54-3.97,4.18-8.45,4.94-13.44c1.93,1.1,3.99,1.94,6.18,2.51
			c-1.06,0.83-2.15,2.6-3.27,5.32l-2.54,6.18c-0.02,0.04-0.15,0.31-0.4,0.81C240.46,91.03,238.82,90.56,237.1,90.35z"/>
		<path fill="#FFFFFF" d="M260,105.35c5.54-3.74,9.86-10,12.95-18.78h-5.34c-1.89,0-3.72,0.16-5.51,0.49
			c0.11-1.06,0.16-1.85,0.16-2.37c0-0.54-0.05-1.35-0.16-2.43c1.87,0.21,3.65,0.32,5.34,0.32h6.77V72.2
			c-3.58,0.64-6.67,1.16-9.26,1.56c-0.2-2.31-0.96-3.95-2.29-4.91c1.3,0.1,2.17,0.14,2.62,0.14c6.71,0,13.14-1.25,19.3-3.76
			c0.49,2.29,1.59,3.98,3.32,5.06l-1.65,0.23c-1.62,0.21-4.22,0.55-7.8,1.01v11.07h4.26c1.98,0,3.76-0.15,5.34-0.46
			c-0.07,1.08-0.11,1.9-0.11,2.46c0,0.5,0.04,1.29,0.11,2.37c-1.62-0.27-3.45-0.4-5.51-0.4h-4.1v7.89c1.37-0.44,2.54-1.04,3.51-1.79
			c2.11,2.93,4.34,5.84,6.69,8.73c-1.55,0.79-3.09,1.66-4.62,2.6c-1.91-3.85-3.77-6.73-5.59-8.64v16.85c0,2.25,0.12,5.29,0.35,9.1
			c-1.08-0.08-1.87-0.12-2.38-0.12c-0.59,0-1.44,0.04-2.54,0.12c0.2-4.14,0.3-7,0.3-8.58V92.66c-1.26,4.3-4.4,9.91-9.42,16.85
			l-0.49,0.66c-0.31-0.48-0.53-0.84-0.67-1.07C262.47,107.3,261.26,106.04,260,105.35z M290.72,114.8l0.13-5.29l0.13-5.4V80.47
			c0-2.93-0.13-5.51-0.38-7.75l10.28,0.23l10.77-0.26c-0.31,1.91-0.46,4.57-0.46,7.98v25.03c0,0.6,0.07,2.39,0.22,5.38
			c0.07,1.54,0.11,2.48,0.11,2.8c-1.08-0.08-1.89-0.12-2.43-0.12c-0.58,0-1.41,0.04-2.51,0.12c0.13-1.39,0.19-2.69,0.19-3.9v-2.23
			h-11.39v1.79l0.13,5.35c-1.19-0.13-2.07-0.2-2.65-0.2C292.39,114.69,291.67,114.72,290.72,114.8z M295.44,103.82h11.34V77.35
			h-11.34V103.82z"/>
		<path fill="#FFFFFF" d="M321.34,84.51c1.04-1.41,1.96-2.9,2.75-4.48c3.11,2.31,6.32,4.36,9.61,6.16c-1.1,1.54-2.03,3.18-2.81,4.91
			C327.73,88.08,324.55,85.88,321.34,84.51z M324.04,117c1.58-3.56,3.37-10.81,5.37-21.73l0.13-0.75c1.21,1.21,2.46,1.99,3.75,2.34
			c0.22,0.08,0.54,0.17,0.97,0.29c-2.34,8.54-3.96,16.41-4.86,23.61C327.74,118.98,325.95,117.73,324.04,117z M325.09,71.45
			c1.21-1.19,2.19-2.55,2.97-4.08c2.18,2.06,5.11,4.12,8.8,6.19c-1.21,1.37-2.29,2.81-3.27,4.33
			C330.99,75.47,328.15,73.32,325.09,71.45z M335.62,86.65c1.03,0.06,1.79,0.11,2.29,0.14c1.48,0.12,2.45,0.17,2.92,0.17h10.98
			v-8.18h-7.85c-0.54,1.87-1.11,3.7-1.7,5.49c-1.58-0.71-3.31-1.18-5.18-1.42c2.86-4.26,4.48-9.42,4.86-15.49
			c1.87,0.79,3.82,1.37,5.86,1.73c-0.94,0.81-1.85,2.63-2.75,5.46h6.77v-6.79c0-1.14-0.1-2.12-0.3-2.95
			c1.85,0.39,3.76,0.66,5.72,0.84c-0.7,0.83-1.05,1.72-1.05,2.69v6.21h7.39c1.4,0,3.01-0.15,4.83-0.46
			c-0.07,1.16-0.11,2.02-0.11,2.6c0,0.56,0.04,1.4,0.11,2.51c-1.87-0.29-3.33-0.43-4.37-0.43h-7.85v8.18h9.09
			c1.91,0,4.01-0.23,6.32-0.69c-0.16,1.23-0.24,2.15-0.24,2.75c0,0.56,0.06,1.39,0.19,2.49c-3.02-0.23-5.13-0.35-6.32-0.35H340.8
			c-1.12,0-2.84,0.1-5.18,0.29c0.11-1.06,0.16-1.84,0.16-2.34C335.78,88.55,335.73,87.73,335.62,86.65z M339.61,121.45l0.11-3.41
			l0.11-4.91v-10.17c0-1.23-0.1-3.83-0.3-7.8c2.93,0.29,5.7,0.43,8.31,0.43h10.69c2.77,0,5.61-0.11,8.53-0.32
			c-0.27,3.43-0.4,5.82-0.4,7.17v11.01c0,1.6,0.1,4.16,0.3,7.69c-1.13-0.12-1.97-0.17-2.51-0.17c-0.59,0-1.47,0.06-2.62,0.17
			c0.13-0.85,0.19-1.92,0.19-3.21v-1.82h-17.3v1.59c0,0.13,0.04,0.67,0.11,1.62c0.04,0.6,0.05,1.31,0.05,2.14
			c-1.17-0.15-2.04-0.23-2.62-0.23C341.67,121.22,340.78,121.29,339.61,121.45z M344.55,111.97h17.49V100.5h-17.49V111.97z"/>
		<path fill="#FFFFFF" d="M381.79,91.74c2.09-5.93,3.13-11.96,3.13-18.06v-1.1c1.84,0.67,3.61,1.01,5.32,1.01
			c-0.74,1.52-1.4,4.05-2,7.57h4.29v-11.1c0-1.29-0.14-2.67-0.43-4.13c1.78,0.33,3.07,0.49,3.86,0.49c0.49,0,1.1-0.03,1.84-0.09
			c-0.29,0.4-0.47,0.71-0.54,0.92l-0.19,1.39c-0.05,0.35-0.08,0.65-0.08,0.92v11.56h3.16c0.56,0,1.49-0.08,2.81-0.23
			c-0.23,1.14-0.35,1.96-0.35,2.49c0,0.5,0.07,1.22,0.22,2.17c0.67,0,1.66,0.03,3,0.09c1.28,0.08,2.08,0.12,2.4,0.12h5.29v-7.31
			h-4.83c-1.44,0-2.86,0.08-4.26,0.23c0.14-1.14,0.22-1.99,0.22-2.57c0-0.62-0.09-1.55-0.27-2.8c1.48,0.23,2.96,0.35,4.45,0.35h4.7
			v-5.43c0-1-0.13-2.15-0.4-3.44c1.75,0.39,3.34,0.58,4.78,0.58l1.13-0.03c-0.65,1.04-0.97,2.26-0.97,3.67v4.65h7.02
			c0.95,0,2.25-0.07,3.89-0.2c-0.09,1.21-0.13,2.13-0.13,2.75c0,0.54,0.04,1.37,0.11,2.49c-1.35-0.15-2.91-0.23-4.67-0.23h-6.24
			v7.31h10.63c1.03,0,2.29-0.09,3.78-0.26c-0.14,1.12-0.22,1.96-0.22,2.51c0,0.56,0.07,1.4,0.22,2.51c-1.3-0.15-2.57-0.23-3.83-0.23
			h-4.02v6.5h3.05c1.47,0,2.87-0.08,4.18-0.23c-0.2,1.06-0.3,1.87-0.3,2.43c0,0.52,0.1,1.3,0.3,2.34c-1.38-0.12-2.7-0.17-3.94-0.17
			h-3.29v13.47c0,2.47-0.74,4.22-2.21,5.26c-1.48,1.04-3.95,1.56-7.42,1.56c-0.18-1.93-0.86-3.82-2.05-5.69l1.59,0.29
			c1.08,0.19,2.02,0.29,2.83,0.29c1.76,0,2.64-0.92,2.64-2.77v-12.43h-11.74c-1.12,0-2.79,0.07-5.02,0.2c0.2-1.06,0.3-1.85,0.3-2.37
			c0-0.54-0.1-1.34-0.3-2.4c1.84,0.15,3.33,0.23,4.48,0.23h12.28v-6.5h-12.01c-2.07,0-3.81,0.09-5.24,0.26
			c0.16-1.02,0.24-1.78,0.24-2.28c0-0.56-0.08-1.36-0.24-2.4l-1.57-0.12c-0.86-0.06-1.5-0.09-1.92-0.09h-2.21v9.83
			c2.19-0.91,3.92-1.8,5.18-2.69c-0.07,1.02-0.11,1.88-0.11,2.57c0,0.54,0.07,1.47,0.22,2.8c-1.6,0.33-3.36,0.92-5.26,1.76v17.02
			c0,1.66,0.14,3.11,0.43,4.36c-1.19-0.19-2.07-0.29-2.65-0.29c-0.59,0-1.48,0.1-2.67,0.29c0.25-1.19,0.38-2.51,0.38-3.96v-15.87
			c-3.08,1.21-5.92,2.54-8.53,3.99c-0.45-2.08-1.18-4.06-2.19-5.95c3.02-0.29,6.6-1.17,10.74-2.66V85.64h-4.94
			c-0.22,1.62-0.55,3.74-1,6.36l-0.3,1.71C384.9,92.78,383.39,92.12,381.79,91.74z M405,105.18c1.8-0.19,3.44-0.73,4.91-1.62
			c0.86,2.6,2.11,5.43,3.72,8.5c-1.98,0.19-3.84,0.73-5.59,1.62C407.44,110.67,406.42,107.84,405,105.18z"/>
		<path fill="#FFFFFF" d="M479.91,84.86c1.37-1.58,2.28-3,2.75-4.25c2.73,2.41,5.95,4.39,9.63,5.95c-1.38,1.48-2.39,2.98-3.02,4.48
			C487.39,88.77,484.27,86.71,479.91,84.86z M481.83,116.56c2.52-4.78,4.31-12.39,5.37-22.83c1.53,1.37,2.95,2.42,4.26,3.15
			c-0.95,2.72-2.35,9.24-4.18,19.57l-0.43,2.46C485.07,117.67,483.4,116.89,481.83,116.56z M482.94,71.19
			c1.19-1.39,2.12-2.76,2.81-4.13c0.86,0.71,1.51,1.24,1.94,1.59c2.77,2.35,5.1,4.03,6.99,5.03c-1.31,1.33-2.38,2.76-3.18,4.28
			C488.72,75.16,485.87,72.91,482.94,71.19z M490.84,117.2c2.41-0.6,4.84-1.73,7.29-3.4c2.45-1.67,4.38-3.51,5.8-5.53
			c1.3,1.27,2.82,2.5,4.59,3.67c-3.69,1.87-7.98,4.86-12.87,8.96C494.46,119.47,492.86,118.24,490.84,117.2z M492.38,107.4
			c0.09-1.08,0.13-1.91,0.13-2.49c0-0.62-0.06-1.58-0.19-2.89c0.83,0.06,1.46,0.11,1.89,0.14c1.06,0.1,1.75,0.14,2.08,0.14h3.64
			V85.55l-0.05-2.05l-0.05-1.7c-1.01-0.19-1.77-0.29-2.29-0.29c-0.5,0-1.28,0.11-2.32,0.32c0.2-2.52,0.3-4.39,0.3-5.61
			c0-1.19-0.08-2.95-0.24-5.26c1.8,0.15,3.05,0.23,3.75,0.23h10.93c-0.45-1.73-1.31-3.5-2.59-5.29c2.09-0.21,3.88-0.59,5.37-1.13
			c0.76,2.02,1.41,4.16,1.97,6.42h8.58c0.88,0,2.43-0.08,4.64-0.23c-0.16,2.39-0.24,4.24-0.24,5.55c0,1.18,0.1,3.06,0.3,5.66
			c-1.08-0.08-1.89-0.12-2.43-0.12c-0.56,0-1.39,0.04-2.48,0.12c0.05-0.73,0.1-1.27,0.14-1.62c0.05-0.54,0.08-0.92,0.08-1.13v-4.39
			h-23.61v3.03c0,0.94,0.12,2.02,0.35,3.24c1.64,0.19,2.81,0.29,3.51,0.29c6.33,0,11.5-0.91,15.49-2.72c0.72,1.95,1.63,3.61,2.73,5
			c-1.67,0-3.2,0.07-4.59,0.2l-9.53,0.81c-0.5,0.06-1.55,0.13-3.13,0.23v4.42h17.87c0.83,0,2.09-0.09,3.78-0.26
			c-0.11,1-0.16,1.76-0.16,2.28c0,0.58,0.08,1.45,0.24,2.63c-1.37-0.21-2.63-0.32-3.78-0.32h-4.48v8.44h8.04
			c1.49,0,2.92-0.12,4.26-0.38c-0.14,1.21-0.22,2.14-0.22,2.77c0,0.58,0.07,1.47,0.22,2.69c-1.89-0.19-3.36-0.29-4.4-0.29h-29.15
			C495.65,107.11,494.2,107.21,492.38,107.4z M504.5,93.85v8.5h9.26v-8.5H504.5z M513.65,111.68c1.26-1.04,2.3-2.19,3.13-3.44
			c0.92,0.6,1.48,0.95,1.7,1.07l4.67,2.83c1.31,0.81,3.04,1.96,5.18,3.44l1.05,0.72c-1.4,1.27-2.58,2.71-3.54,4.31
			C522.77,117.22,518.71,114.24,513.65,111.68z"/>
		<path fill="#FFFFFF" d="M539.8,84.22c1.13-1.37,2.16-2.76,3.08-4.16c3.29,2.12,6.71,4.13,10.26,6.04
			c-1.35,1.33-2.4,2.89-3.16,4.68C547.84,87.93,544.45,85.75,539.8,84.22z M541.88,115.99c2.48-4.24,4.47-11.18,5.96-20.84l0.3-1.97
			c1.26,1.43,2.58,2.36,3.97,2.8c0.2,0.06,0.49,0.16,0.89,0.32c-0.56,1.18-1,2.44-1.32,3.79l-1.73,7.05
			c-1.55,6.4-2.32,10.89-2.32,13.47C546.17,118.84,544.26,117.3,541.88,115.99z M543.31,70.27c1.42-1.21,2.63-2.49,3.62-3.82
			c2.84,2.37,5.85,4.65,9.01,6.85c-1.4,1.23-2.68,2.6-3.83,4.1C549.63,74.17,546.7,71.79,543.31,70.27z M551.68,82.63
			c5.4-4.14,9.44-10.24,12.12-18.29c1.35,0.92,3.27,1.69,5.75,2.28c-1.21,0.73-2.59,2.34-4.16,4.83h19.19c1.47,0,3.4-0.13,5.78-0.4
			c-0.11,1.08-0.16,1.89-0.16,2.43c0,0.54,0.05,1.35,0.16,2.43c-1.78-0.19-3.75-0.29-5.91-0.29h-21.21l-2.51,3.67h20.38
			c0.65,0,1.66-0.05,3.05-0.14l2.05-0.17c-0.09,0.81-0.15,1.42-0.19,1.82c-0.13,1.08-0.2,1.76-0.22,2.05l-0.43,9.74h2.75
			c1.28,0,2.62-0.13,4.02-0.4c-0.07,1-0.11,1.77-0.11,2.31c0,0.46,0.04,1.18,0.11,2.17l-1.46-0.03l-2.48-0.09h-2.92l-0.46,10.49
			h2.13c0.22,0,0.77-0.06,1.67-0.17c0.29-0.04,0.72-0.08,1.3-0.12c-0.07,1.1-0.11,1.93-0.11,2.49c0,0.56,0.04,1.4,0.11,2.51
			c-1.19-0.12-2.23-0.17-3.13-0.17h-2.29l-0.35,4.8c-0.14,2.02-0.81,3.37-2,4.05c-1.19,0.67-3.48,1.01-6.88,1.01h-0.73
			c-0.13-2.04-0.81-3.91-2.05-5.61l0.86,0.14c1.46,0.27,2.65,0.4,3.56,0.4c1.71,0,2.61-0.5,2.7-1.5l0.3-3.32h-14.57l-4.8,0.12
			l-2.4,0.06l1.35-15.17h-2.05c-0.92,0-1.94,0.06-3.08,0.17c0.07-0.98,0.11-1.71,0.11-2.17c0-0.52-0.04-1.27-0.11-2.25
			c0.54,0.04,0.94,0.08,1.21,0.12c1.06,0.12,1.7,0.17,1.92,0.17h2.21l0.7-12.54c-1.22,1.75-2.42,3.55-3.59,5.38
			C555.58,84.25,553.87,83.33,551.68,82.63z M562.93,107.06h17.3l0.62-10.55h-17.11L562.93,107.06z M564.15,92.58h16.84l0.38-9.07
			h-16.62L564.15,92.58z M568.06,98.88c1.31-0.46,2.55-0.94,3.72-1.45c0.2,0.62,0.31,0.98,0.35,1.1l1.03,2.54
			c0.63,1.58,1.26,2.78,1.89,3.61c-1.4,0.5-2.84,1.04-4.32,1.62C570.23,103.59,569.34,101.11,568.06,98.88z M569.28,85.64
			c1.37-0.15,2.55-0.61,3.54-1.36c0.68,2.27,1.63,4.37,2.83,6.3c-1.42,0.23-2.82,0.67-4.21,1.33
			C571.13,89.58,570.41,87.49,569.28,85.64z"/>
		<rect x="451.58" y="85.83" fill="#FFFFFF" width="8.89" height="12.27"/>
	</g>
</g>
<g>
</g>
<g>
</g>
<g>
</g>
<g>
</g>
<g>
</g>
<g>
</g>
<g>
</g>
<g>
</g>
<g>
</g>
<g>
</g>
<g>
</g>
</svg>
