<?xml version="1.0" encoding="utf-8"?>
<!-- Created by @FCLOGO 2022-06-23 11:16:08 . https://fclogo.top/ -->
<!-- FOR PERSONAL USE ONLY NOT FOR COMMERCIAL USE -->
<svg version="1.1" xmlns="http://www.w3.org/2000/svg" xmlns:xlink="http://www.w3.org/1999/xlink" x="0px" y="0px"
	 viewBox="0 0 800 800" enable-background="new 0 0 800 800" xml:space="preserve">
<g>
	<path fill="#114775" d="M127.12,51.32c0,0,0,129.22,0,348.68S330.94,718.86,400,751.32C469.06,718.86,672.88,619.47,672.88,400
		s0-348.68,0-348.68H127.12z M646.98,400c0,86.34-34.47,162.7-102.44,226.96c-51.97,49.14-111.55,79.89-144.54,95.7
		c-32.99-15.82-92.57-46.56-144.54-95.7C187.48,562.7,153.02,486.34,153.02,400V185.8h493.96V400z M646.98,165.88H153.02V77.22
		h493.96V165.88z"/>
	<path fill="#114775" d="M208.26,439.25h-49.75c1.18,9.14,2.77,18.14,4.79,27.02L208.26,439.25z"/>
	<path fill="#114775" d="M191.24,540.14c4.09,7.51,8.54,14.91,13.35,22.2l193.92-116.52v30.2L219.74,583.44
		c5.3,6.8,10.93,13.49,16.9,20.06l161.87-97.26v212.39c0.51,0.25,1.02,0.49,1.49,0.72c0.48-0.23,0.98-0.47,1.49-0.72V188.8h-2.98
		v250.45h-39.37L191.24,540.14z"/>
	<path fill="#114775" d="M258.56,439.25L258.56,439.25l-88.09,52.93c2.73,8.32,5.85,16.53,9.35,24.6l129.01-77.53H258.56z"/>
	<path fill="#114775" d="M257.51,624.79c5.86,5.54,11.82,10.84,17.81,15.91l123.18-74.02v-30.22l-143.31,86.12
		C255.96,623.32,256.73,624.05,257.51,624.79z"/>
	<path fill="#114775" d="M370.45,704.42l28.05-16.87v-30.22l-53.94,32.42C353.87,695.34,362.61,700.23,370.45,704.42z"/>
	<path fill="#114775" d="M320.06,674.26l78.44-47.13V596.9l-101.53,61.01C304.76,663.76,312.5,669.21,320.06,674.26z"/>
	<path fill="#114775" d="M182.67,373.83c16.07,7.45,45.22-1.49,45.22-1.49s-38.76,1.61-40.42-10.27
		c-2.65-17.89,54.33-36.11,88.45-45.06c34.12-8.95,72.55-9.17,72.55-9.17l10.16-4.42c-70.23,0.88-147.14,26.5-170,42.08
		C165.77,361.08,166.6,366.38,182.67,373.83z"/>
	<path fill="#114775" d="M315.78,323.96c140.25,0.44-44.61,72.44-125.67,64.49c0,0-3.09,3.75-12.37,5.3c0,0,79.51-1.1,153.28-27.61
		C404.79,339.64,400.81,311.81,315.78,323.96z"/>
	
		<ellipse transform="matrix(0.7071 -0.7071 0.7071 0.7071 -106.3048 352.8374)" fill="#114775" cx="372.76" cy="304.74" rx="8.83" ry="8.83"/>
	<path fill="#114775" d="M415.17,649.29c69.35-24.74,143.55-110.44,162.55-137.82s42.41-71.56,27.17-93.09s-57.65-5.63-65.6,1.33
		c-53.01,43.07-80.83,45.05-92.43,18.22c-11.6-26.84,25.18-86.8,72.88-133.18s90.44-58.31,90.44-58.31
		c6.3-12.59,11.6-18.22,11.6-18.22c-41.08,18.55-80.83,45.05-131.52,98.39c-50.69,53.34-80.5,119.27-56.65,136.99
		c23.85,17.73,58.63-1.49,65.26-7.45c43.4-32.14,57.65-34.79,73.22-32.47s27.83,20.21,9.94,61.95
		c-17.89,41.74-59.3,83.48-97.07,113.96c-37.77,30.48-59.19,32.47-59.19,32.47L415.17,649.29z"/>
	<path fill="#114775" d="M518.07,351.12c0,23.76,19.33,43.09,43.09,43.09s43.09-19.33,43.09-43.09c0-23.76-19.33-43.09-43.09-43.09
		S518.07,327.36,518.07,351.12z M588.67,323.7c1.83,1.51,5.77,5.7,12.21,16.9c0.89,3.36,1.37,6.88,1.37,10.52
		c0,8.66-2.7,16.69-7.29,23.32c-1.72-1.54-3.52-3.5-4.87-5.87c0,0-4.19,7.73-16.57,10.82c0,0,0.36,3.09-1.05,7.45
		c-0.01,0.02-0.02,0.03-0.03,0.05h0.01c0,0,0,0,0,0c-0.14,0.44-0.3,0.88-0.47,1.34c0,0,2.1,0.32,5.26,0.7
		c-4.94,2.11-10.37,3.28-16.08,3.28c-10.67,0-20.41-4.09-27.72-10.79c4.64,2.56,8.28,4.05,8.28,4.05c-0.34-1.99,0.66-9.61,0.66-9.61
		c-5.18-4.1-9.05-13.4-10.35-16.82c3.08-4.66,6.22-9.31,9.58-13.8c-3.87,4.09-7.55,8.35-11.19,12.67c-3.43,0.2-7.7-1.93-7.7-1.93
		c0,3.55,0.18,7.35,0.39,10.63c-1.95-4.78-3.04-10.01-3.04-15.49c0-22.66,18.43-41.09,41.09-41.09c10.42,0,19.93,3.9,27.18,10.31
		c-0.11,0.54-0.24,1.05-0.39,1.49c-3.57,0.36-7.06,0.89-10.56,1.47C581.16,323.33,584.95,323.41,588.67,323.7z"/>
	<path fill="#114775" d="M560.69,316.79c-0.84-2.02-2.13-4.65-3.01-6c0.44,1.28,1.02,3.83,1.4,5.93c-1.99,1.03-9.33,4.93-15.28,9.56
		h-0.01c-3.06-1.26-7.08-2.49-10.29-2.49c2.95,0.59,6.62,2.4,9.27,4.11c-0.06,0.99-0.16,2.79-0.21,5.02
		c0.05,0.21,1.73,7.13,4.02,8.93c2.32,1.82,12.59,7.07,14.19,7.29c1.6,0.22,12.82-5.36,14.16-6.92c1.3-1.52,1.47-5.34,1.47-5.34
		s0.43,5.13,0.02,6.09c-0.55,1.26-12.36,8.99-15.26,8.65c-2.9-0.33-15.07-7.37-16.32-8.61c-1.21-1.21-2.23-9.69-2.28-10.07
		c-0.07,3.1-0.05,7.04,0.27,10.89c0,0,9.28,5.74,18.11,9.94c0,0,6.4-2.42,17.22-9.93c0,0,0.22-11.93-2.21-20.1
		C575.95,323.74,569.61,319.66,560.69,316.79z"/>
	<path fill="#114775" d="M590.7,353.07c1.1,1.86,1.41,4.04,1.54,6.18c0.08,2.22-0.14,4.49-0.61,6.78c2.27-3.74,3.01-8.83,1.28-12.96
		c2.88-2.99,4.96-7.06,4.69-11.23c-0.36,3.9-2.65,7.23-5.63,9.6c-2.72-3.79-7.04-5.91-11.44-6.94
		C584.24,346.89,588.41,349.32,590.7,353.07z"/>
	<path fill="#114775" d="M561.52,371.81c0.67-4.1,1.49-13.27-0.52-16.81c1,5-0.04,12.8-1.31,16.56c-0.79,0.64-1.68,1.15-2.76,1.54
		c-3.44,1.32-5.93,1.9-11.93,2.9c2.53,0.31,6.32,0.18,8.84-0.19c2.33-0.42,4.65-0.89,6.61-2.35c2.88,2.71,6.52,4.35,10.32,5.32
		c-1.7-1.16-3.42-2.25-5.08-3.45C564.23,374.28,562.75,373.12,561.52,371.81z"/>
	<path fill="#114775" d="M516.79,533.33c0-23.76-19.33-43.09-43.09-43.09s-43.09,19.33-43.09,43.09c0,23.76,19.33,43.09,43.09,43.09
		S516.79,557.09,516.79,533.33z M454.92,558.07c-5.18-4.1-9.05-13.4-10.35-16.82c3.08-4.66,6.22-9.31,9.58-13.8
		c-3.87,4.09-7.55,8.35-11.19,12.67c-3.43,0.2-7.7-1.93-7.7-1.93c0,3.55,0.18,7.35,0.39,10.63c-1.95-4.78-3.04-10.01-3.04-15.49
		c0-22.66,18.43-41.09,41.09-41.09c10.42,0,19.93,3.9,27.18,10.31c-0.11,0.54-0.24,1.05-0.39,1.49c-3.57,0.36-7.06,0.89-10.56,1.47
		c3.77,0.03,7.56,0.11,11.28,0.4c1.83,1.51,5.77,5.7,12.21,16.9c0.89,3.36,1.37,6.88,1.37,10.52c0,8.66-2.7,16.69-7.29,23.32
		c-1.72-1.54-3.52-3.5-4.87-5.87c0,0-4.19,7.73-16.57,10.82c0,0,0.36,3.09-1.05,7.45c-0.01,0.02-0.02,0.03-0.03,0.05h0.01
		c0,0,0,0,0,0c-0.14,0.44-0.3,0.88-0.47,1.34c0,0,2.1,0.32,5.26,0.7c-4.94,2.11-10.37,3.28-16.08,3.28
		c-10.67,0-20.41-4.09-27.72-10.79c4.64,2.56,8.28,4.05,8.28,4.05C453.92,565.69,454.92,558.07,454.92,558.07z"/>
	<path fill="#114775" d="M455.1,515.13c0.05,0.21,1.73,7.13,4.02,8.93c2.32,1.82,12.59,7.07,14.19,7.29
		c1.6,0.22,12.82-5.36,14.16-6.92c1.3-1.52,1.47-5.34,1.47-5.34s0.43,5.13,0.02,6.09c-0.55,1.26-12.36,8.99-15.26,8.65
		c-2.9-0.33-15.07-7.37-16.32-8.61c-1.21-1.21-2.23-9.69-2.28-10.07c-0.07,3.1-0.05,7.04,0.27,10.89c0,0,9.28,5.74,18.11,9.94
		c0,0,6.4-2.42,17.22-9.93c0,0,0.22-11.93-2.21-20.1c0,0-6.34-4.08-15.26-6.95c-0.84-2.02-2.13-4.65-3.01-6
		c0.44,1.28,1.02,3.83,1.4,5.93c-1.99,1.03-9.33,4.93-15.28,9.56h-0.01c-3.06-1.26-7.08-2.49-10.29-2.49
		c2.95,0.59,6.62,2.4,9.27,4.11C455.25,511.1,455.15,512.9,455.1,515.13z"/>
	<path fill="#114775" d="M503.24,535.28c1.1,1.86,1.41,4.04,1.54,6.18c0.08,2.22-0.14,4.49-0.61,6.78
		c2.27-3.74,3.01-8.83,1.28-12.96c2.88-2.99,4.96-7.06,4.69-11.23c-0.36,3.9-2.65,7.23-5.63,9.6c-2.72-3.79-7.04-5.91-11.44-6.94
		C496.78,529.1,500.95,531.53,503.24,535.28z"/>
	<path fill="#114775" d="M474.06,554.02c0.67-4.1,1.49-13.27-0.52-16.81c1,5-0.04,12.8-1.31,16.56c-0.79,0.64-1.68,1.15-2.76,1.54
		c-3.44,1.32-5.93,1.9-11.93,2.9c2.53,0.31,6.32,0.18,8.84-0.19c2.33-0.42,4.65-0.89,6.61-2.35c2.88,2.71,6.52,4.35,10.32,5.32
		c-1.7-1.16-3.42-2.25-5.08-3.45C476.77,556.49,475.29,555.33,474.06,554.02z"/>
	<path fill="#114775" d="M182.26,122.83c-3.56,2.71-8.61,4.48-15.17,5.31c2.23,1.08,3.91,2.47,5.09,4.18
		c6.72-2.42,11.44-4.86,14.15-7.31c2.71-2.45,4.96-6.33,6.76-11.62c1.98,4.96,4.46,8.7,7.44,11.21c2.98,2.51,7.59,4.76,13.83,6.74
		c0.9-1.88,2.31-3.58,4.22-5.08c-6.14-0.49-10.9-1.91-14.29-4.25c-3.39-2.34-6.04-6.05-7.95-11.13h15.1c0.88,0,2.37,0.08,4.46,0.23
		c-0.12-1.02-0.17-1.79-0.17-2.3c0-0.5,0.06-1.25,0.17-2.26c-1.54,0.25-3.05,0.38-4.52,0.38h-16.2V96.37h12.09
		c1.61,0,3.17,0.08,4.68,0.23c-0.07-0.88-0.11-1.54-0.11-1.99c0-0.56,0.06-1.41,0.19-2.55c-1.72,0.17-3.52,0.25-5.37,0.25h-28.85
		c-1.58,0-2.95-0.09-4.13-0.29c0.2,1.04,0.3,1.82,0.3,2.35c0,0.52-0.1,1.3-0.3,2.35c1.87-0.23,3.5-0.34,4.9-0.34h11.82v10.6h-14.44
		c-2.04,0-3.91-0.14-5.62-0.41c0.19,1.03,0.28,1.81,0.28,2.32s-0.07,1.25-0.22,2.23c1.36-0.15,2.98-0.23,4.85-0.23h14.46
		C188.3,116.13,185.81,120.12,182.26,122.83z"/>
	<path fill="#114775" d="M228.86,97.98c1.28-1.17,2.73-2.14,4.35-2.91c-0.7-0.55-2.01-1.54-3.94-2.95l-2.81-2.08
		c-0.11-0.07-0.51-0.34-1.21-0.81c-0.97,1.2-2.21,2.18-3.72,2.93C224.42,93.82,226.86,95.76,228.86,97.98z"/>
	<path fill="#114775" d="M225.33,109.62c-0.57,7.34-2.61,13.49-6.14,18.45c2.34,0.62,4.4,1.62,6.19,3
		c0.9-4.87,2.52-11.31,4.85-19.33C228.64,111.41,227,110.7,225.33,109.62z"/>
	<path fill="#114775" d="M230.49,104.51c-2.34-1.47-5.28-3.12-8.82-4.94c-0.86,1.16-1.87,2.22-3.03,3.2
		c3.57,1.61,6.26,3.27,8.08,5.01C227.76,106.5,229.02,105.41,230.49,104.51z"/>
	<path fill="#114775" d="M237.52,100.25c-0.44,0-1.55-0.03-3.33-0.11c-1.21-0.06-1.95-0.09-2.23-0.09c0.12,0.77,0.17,1.35,0.17,1.74
		s-0.06,0.98-0.17,1.76c0.42,0,1.21-0.03,2.37-0.11c1.43-0.09,2.31-0.14,2.64-0.14h9.73v3.47h-7.25c-0.35,0-0.95-0.02-1.79-0.07
		c-0.55-0.03-1.38-0.06-2.48-0.11c0.07,0.84,0.11,1.47,0.11,1.89c0,0.44-0.04,1.08-0.11,1.92c0.55,0,1.33-0.03,2.34-0.09
		c1.3-0.07,2.08-0.11,2.34-0.11h6.81v3.77h-7.03c-0.68,0-1.66-0.03-2.95-0.09l-3.09-0.18c0.07,0.9,0.11,1.57,0.11,2.01
		c0,0.45-0.04,1.13-0.11,2.03c0.4,0,1.29-0.03,2.67-0.09c1.82-0.07,2.94-0.11,3.36-0.11h7.03v3.63h-9.84
		c-2.13,0-4.17-0.09-6.14-0.29c0.11,0.98,0.17,1.71,0.17,2.21c0,0.48-0.06,1.21-0.17,2.19c2.78-0.21,5.03-0.32,6.75-0.31h9.26v3.72
		c0,1.05-0.1,2.29-0.28,3.72c1.06-0.06,1.88-0.09,2.45-0.09c0.49,0,1.26,0.03,2.31,0.09c-0.15-0.91-0.22-2.39-0.22-4.47v-2.98h11.65
		c1.89,0,3.76,0.08,5.62,0.23c-0.07-0.9-0.11-1.58-0.11-2.03c0-0.48,0.04-1.21,0.11-2.19c-1.47,0.13-3.51,0.2-6.12,0.2h-11.16v-3.63
		h9.09c1.52,0,3.17,0.06,4.93,0.2c-0.07-0.87-0.11-1.52-0.11-1.96c0-0.45,0.04-1.13,0.11-2.03c-1.77,0.16-3.5,0.23-5.21,0.23h-8.84
		v-3.77h8.07l2.76,0.07l2.37,0.07c0-0.37-0.02-0.85-0.06-1.44c-0.07-1.01-0.11-1.57-0.11-1.69v-3.9h1.52c0.46,0,1.22,0.03,2.29,0.07
		c0.41,0.01,1.02,0.04,1.85,0.09c-0.05-0.74-0.08-1.29-0.08-1.65c0-0.38,0.02-0.93,0.08-1.67c-1.65,0.07-2.89,0.11-3.72,0.11h-1.93
		v-3.02c0-1.19,0.05-2.48,0.14-3.86c-2.15,0.11-3.99,0.16-5.51,0.16H251v-2.53c0-0.96,0.27-1.67,0.8-2.12
		c-1.46,0-3.28-0.11-5.45-0.34c0.19,0.99,0.28,1.85,0.28,2.57v2.41h-7.27c-1.1,0-2.54-0.08-4.3-0.23c0.07,0.84,0.11,1.47,0.11,1.89
		c0,0.44-0.04,1.08-0.11,1.94l1.96-0.16c1.03-0.07,1.79-0.11,2.29-0.11h7.33v3.38H237.52z M250.96,96.88h8.29v3.41h-8.29V96.88z
		 M250.93,103.35h8.16v3.45h-8.16V103.35z"/>
	<path fill="#114775" d="M310.51,128.3c0.24-0.01,1.07-0.11,2.48-0.29c0.56,1.24,1,2.31,1.29,3.2c1.71-0.77,3.57-1.32,5.59-1.67
		c-3.12-4.02-5.9-8.54-8.32-13.58c-1.44,0.89-3.03,1.48-4.77,1.78c1.71,1.97,3.29,4.32,4.74,7.04l-15.32,1.02
		c2.42-3,4.3-5.75,5.62-8.26c1.98-3.74,3.25-6.04,3.8-6.89c0.55-0.85,1.34-1.67,2.37-2.47c-2.29-0.36-4.53-0.97-6.72-1.83
		c-0.51,4.36-1.79,8.35-3.83,11.97c-2.04,3.62-4.42,6.11-7.14,7.48c1.38,1.3,2.07,2.86,2.08,4.67c3.29-0.66,6.11-1.1,8.46-1.31
		L310.51,128.3z"/>
	<path fill="#114775" d="M310.26,103.77c1.57,2.69,3.92,5.27,7.04,7.75l0.63-0.68c1.25-1.31,2.84-2.33,4.77-3.07
		c-3.57-1.29-6.42-3.36-8.57-6.21c-2.15-2.85-3.22-6.02-3.22-9.49c0-0.9,0.28-1.73,0.85-2.5c-1.05,0.06-1.91,0.09-2.59,0.09
		c-0.73,0-1.95-0.09-3.66-0.27c0.29,0.84,0.6,1.99,0.91,3.45C307.41,97.44,308.69,101.09,310.26,103.77z"/>
	<path fill="#114775" d="M288.43,108.81c1.95,0.35,3.6,1.11,4.96,2.27c3.01-2.93,5.29-6.88,6.83-11.84l1.65-5.32
		c0.22-0.72,0.9-1.48,2.04-2.28c-2.17-0.42-4.31-1.04-6.42-1.87C297.05,98,294.03,104.34,288.43,108.81z"/>
	<path fill="#114775" d="M270.97,103.19c1.23-0.13,2.02-0.2,2.37-0.2h2.59h3.33c-2.74,7.62-5.98,12.92-9.73,15.88
		c1.65,1.25,2.79,2.66,3.42,4.24l0.3-0.5c2.44-3.76,4.35-7.46,5.73-11.1l0.99-2.55v19.01c0,1.06-0.12,2.6-0.36,4.62
		c1.1-0.11,1.97-0.16,2.59-0.16c0.47,0,1.24,0.05,2.31,0.16c-0.22-1.92-0.33-3.46-0.33-4.62v-17.44c1.47,1.82,2.67,3.85,3.61,6.07
		c1.36-0.8,2.81-1.41,4.35-1.83c-1.7-1.65-3.27-3.77-4.68-6.36c-1.03,0.53-2.13,0.96-3.31,1.31v-6.74h4c1.6,0,2.96,0.09,4.08,0.27
		c-0.13-0.84-0.19-1.46-0.19-1.87c0-0.5,0.09-1.23,0.25-2.19c-1.44,0.13-2.72,0.2-3.86,0.2h-4.24V92.4c0-1.08,0.38-2.15,1.13-3.2
		c-1.93-0.09-3.83-0.39-5.7-0.92c0.22,1.24,0.33,2.55,0.33,3.95v7.17h-3.97c-1.76,0-3.45-0.06-5.07-0.2
		c0.17,0.95,0.25,1.65,0.25,2.1C271.16,101.73,271.1,102.36,270.97,103.19z"/>
	<path fill="#114775" d="M333.2,119.19c0.72-2.06,1.48-3.74,2.29-5.05c-1.6-0.54-3.11-1.45-4.52-2.71
		c-2.13,7.8-4.65,13.72-7.55,17.75c2.06,0.71,3.83,1.68,5.32,2.94c0.57-1.78,1.26-3.83,2.09-6.16L333.2,119.19z"/>
	<path fill="#114775" d="M345.99,95.95h5.84v28.91h-10.17c-0.9,0-2.87-0.08-5.9-0.23c0.07,0.99,0.11,1.73,0.11,2.21
		c0,0.49-0.04,1.24-0.11,2.23c2.43-0.12,4.41-0.18,5.94-0.21h25.13c1.66,0,3.84,0.06,6.55,0.18c-0.2,0.13-0.39,0.26-0.59,0.39
		c1.88,0.72,3.41,1.7,4.61,2.96c2.86-2.81,5.44-6.02,7.74-9.61c3.5,4.03,7.24,6.5,11.21,7.4c3.96,0.9,12.99,1.35,27.08,1.35
		c0.43-1.93,1.19-3.65,2.27-5.19c0.26,0.64,0.49,1.28,0.69,1.91c2.29-1.23,5.36-2.53,9.2-3.88l8.1-2.86
		c-0.11-0.71-0.17-1.26-0.17-1.67c0-0.51,0.15-1.31,0.44-2.39c-1.92,0.85-4.31,1.72-7.16,2.62v-9.72h2.81h1.68
		c0.22,0,0.72,0.05,1.49,0.14c-0.07-0.8-0.11-1.38-0.11-1.76c0-0.4,0.04-1,0.11-1.8c-1.32,0.18-2.36,0.27-3.11,0.27h-2.87v-9.45
		h3.28l1.82,0.05l1.21,0.05c-0.07-0.8-0.11-1.38-0.11-1.76c0-0.45,0.04-1.1,0.11-1.96c-1.06,0.13-2.17,0.2-3.33,0.2h-9.97
		c-1.03,0-2.39-0.05-4.08-0.14c0.07,0.84,0.11,1.49,0.11,1.94c0,0.37-0.04,0.97-0.11,1.8l1.57-0.09c1.01-0.06,1.74-0.09,2.18-0.09
		h2.98v9.45h-2.48h-2.07c-0.25,0-0.84-0.06-1.76-0.18c0.11,0.81,0.17,1.43,0.17,1.85c0,0.38-0.06,0.96-0.17,1.74
		c1.59-0.17,2.97-0.25,4.13-0.25h2.18v11.14c-3.17,1-5.85,1.69-8.04,2.08c0.46,0.88,0.87,1.75,1.23,2.62
		c-4.93,0.84-10.83,1.27-17.68,1.27c-1.35,0-3.25-0.09-5.71-0.27v-8.8h12.84c0.21,0,0.97,0.05,2.29,0.14
		c0.96,0.06,1.83,0.09,2.62,0.09c-0.11-0.96-0.17-1.67-0.17-2.12c0-0.53,0.06-1.29,0.17-2.28c-0.44,0-1.15,0.03-2.12,0.09
		c-1.69,0.11-2.65,0.16-2.89,0.16h-12.77v-7.31h10.64c0.48,0,1.41,0.04,2.81,0.11c0.39,0.01,0.96,0.04,1.71,0.09
		c-0.13-1.37-0.19-2.81-0.19-4.31v-9.43c0-0.77,0.06-1.77,0.19-3c-0.88,0.03-1.54,0.05-1.98,0.07c-1.38,0.07-2.26,0.11-2.65,0.11
		h-24.88c-0.44,0-1.38-0.03-2.81-0.11c-0.44-0.02-1.1-0.04-1.98-0.07c0.11,1.28,0.17,2.36,0.17,3.23v9.2c0,1.52-0.06,2.96-0.17,4.31
		l1.57-0.09c1.44-0.07,2.43-0.11,2.98-0.11h10.06v19.35c-4.65-1.49-8.17-3.87-10.58-7.13c1.25-3.41,2.48-5.74,3.69-6.99
		c-2.18-0.38-4.3-1.05-6.36-2.01c-0.55,4.49-1.74,8.24-3.57,11.22c-1.72,2.8-4.21,5.26-7.44,7.39c-0.07-0.96-0.11-1.69-0.11-2.17
		c0-0.49,0.04-1.24,0.11-2.23c-2.35,0.16-4.55,0.23-6.61,0.23h-9.86V95.94h7.33c1.73,0,4.01,0.06,6.86,0.18
		c-0.07-0.94-0.11-1.66-0.11-2.14s0.04-1.19,0.11-2.14l-3.5,0.07l-3.44,0.07h-17.49l-3.22-0.07l-3.09-0.07
		c0.07,0.96,0.11,1.69,0.11,2.19c0,0.47-0.04,1.17-0.11,2.12C343.03,96.02,344.89,95.95,345.99,95.95z M387.64,103.22v-8.86h24.8
		v8.86H387.64z"/>
	<path fill="#114775" d="M338.66,94.99c-2.46-1.7-5.3-3.43-8.51-5.19l-1.41-0.77c-0.83,1.25-1.97,2.42-3.42,3.5
		c2.9,1.2,6.07,3.12,9.51,5.78C335.69,97.3,336.97,96.19,338.66,94.99z"/>
	<path fill="#114775" d="M334.99,105.23c-1.53-0.74-3.46-1.56-5.79-2.48c-1.26-0.5-2.34-0.93-3.22-1.29l-1.43-0.56
		c-0.73,1.35-1.71,2.56-2.92,3.63c3.71,1.08,7.1,2.54,10.16,4.38C332.62,107.58,333.69,106.36,334.99,105.23z"/>
	<path fill="#114775" d="M472.48,94.38c-2.03-1.63-3.43-3.5-4.22-5.62c-1.32,0.79-2.85,1.42-4.6,1.89c1.52,1.45,2.82,3.28,3.89,5.51
		C469.2,95.43,470.85,94.83,472.48,94.38z"/>
	<path fill="#114775" d="M448.78,105.34c-0.95,0.86-2.26,1.44-3.91,1.76c1.94,1.89,3.43,4,4.46,6.34c1.36-0.86,2.84-1.5,4.46-1.94
		C452.29,110.27,450.62,108.21,448.78,105.34z"/>
	<path fill="#114775" d="M449.72,100.71H456v11.17l-0.47,0.5c-4.23,4.52-9,8.39-14.33,11.59c1.95,0.48,3.43,1.53,4.45,3.14
		c1.41-2.12,4.32-5.18,8.73-9.16c0.35-0.33,0.88-0.83,1.6-1.49v8.95c0,1.4-0.1,2.25-0.29,2.54c-0.19,0.29-0.74,0.44-1.64,0.44
		c-0.97,0-2.09-0.08-3.36-0.25c1.06,1.16,1.69,2.63,1.87,4.4c0.29-0.05,0.46-0.07,0.52-0.07l4.24-0.5c1.29-0.14,2.12-0.42,2.51-0.86
		c0.39-0.43,0.58-1.3,0.58-2.59V107.9c0.8,4.33,2.33,8.36,4.57,12.08c2.24,3.73,4.77,6.42,7.6,8.09c1.71-1.46,3.41-2.45,5.1-2.96
		c-3.63-1.79-6.2-3.65-7.71-5.59l-1.68-2.21l-1.08-1.35c-0.24-0.35-0.55-0.9-0.94-1.65c3.92-3.31,6.96-5.39,9.15-6.25
		c-1.67-0.9-3.23-2.02-4.68-3.36c-1.52,2.65-3.57,4.91-6.14,6.79c-2.08-3.75-3.32-7.33-3.72-10.74h9.7c1.94,0,3.7,0.08,5.26,0.25
		c-0.11-0.82-0.17-1.45-0.17-1.87c0-0.46,0.07-1.15,0.22-2.08c-1.93,0.18-3.77,0.27-5.51,0.27h-9.92v-4.98v-1.4
		c0-0.53,0.33-1.23,0.99-2.1c-1.78,0-3.68-0.18-5.7-0.54c0.19,1.45,0.28,2.7,0.28,3.77v5.26h-6.01c-0.46,0-1.53-0.05-3.22-0.14
		c-0.55-0.03-1.39-0.06-2.51-0.09l0.05,2.01l-0.05,2.01C446.74,100.85,448.54,100.71,449.72,100.71z"/>
	<path fill="#114775" d="M496.7,94.65v24.09h-2.59c-0.26,0-0.84-0.03-1.74-0.09c-0.39-0.02-0.97-0.04-1.74-0.07
		c0.15,0.85,0.22,1.48,0.24,1.88c0,0.48-0.07,1.16-0.22,2.05c0.44,0,1.34-0.03,2.7-0.09c1.44-0.06,2.34-0.09,2.73-0.09h27.36
		l3.22,0.09l2.7,0.09c-0.05-0.87-0.08-1.52-0.08-1.96c0-0.43,0.02-1.09,0.08-1.96c-0.57,0.03-0.99,0.06-1.27,0.07
		c-0.83,0.06-1.41,0.09-1.74,0.09h-3.03V94.59c0-0.35,0.04-1.05,0.11-2.1c0.07-1.03,0.11-1.63,0.11-1.83
		c-0.53,0-1.47,0.02-2.81,0.07c-1.25,0.06-2.05,0.09-2.4,0.09h-16.12c-0.35,0-1.21-0.03-2.59-0.09c-1.47-0.05-2.52-0.07-3.14-0.07
		l0.11,1.67C496.66,93.39,496.7,94.17,496.7,94.65z M501.35,94.49h17.41v3.56h-17.41V94.49z M501.35,101.16h17.41v4.33h-17.41
		V101.16z M501.35,108.47h17.41v3.52h-17.41V108.47z M501.35,114.91h17.3v3.83h-17.3V114.91z"/>
	<path fill="#114775" d="M508.24,125.41c-1.74-0.7-3.31-1.54-4.71-2.5c-3.05,2.59-7.12,4.85-12.21,6.79
		c1.58,0.58,2.86,1.46,3.84,2.61l2.67-1.47c2.09-1.16,3.65-2.07,4.68-2.75C504.53,126.79,506.44,125.89,508.24,125.41z"/>
	<path fill="#114775" d="M528.84,128.98c-4.33-1.7-8.52-3.64-12.56-5.82c-0.84,0.93-1.96,1.7-3.36,2.32
		c4.85,2.23,8.78,4.39,11.79,6.5C525.94,130.84,527.32,129.84,528.84,128.98z"/>
	<path fill="#114775" d="M484.54,104.82v23.98c0,0.21-0.06,0.92-0.17,2.14c-0.07,0.74-0.11,1.24-0.11,1.51l2.37-0.04
		c0.52,0,1.35,0.02,2.51,0.07c0-0.2-0.04-0.92-0.11-2.17c-0.07-1.28-0.11-2.13-0.11-2.57V98.3l0.97-1.83
		c1.65-3.08,3.11-5.11,4.38-6.07c-2.22-0.31-4.35-0.88-6.39-1.69c-2.2,7.67-6.07,14.46-11.6,20.35c1.3,1.29,2.35,2.71,3.13,4.26
		C481.12,110.72,482.83,107.89,484.54,104.82z"/>
	<path fill="#114775" d="M542.24,110.71h12.34v15.5c0,1.17-0.8,1.76-2.42,1.76c-1.1,0-2.62-0.18-4.57-0.54
		c1.28,1.43,1.99,3.11,2.12,5.03c3.32,0,5.73-0.32,7.23-0.96s2.25-1.67,2.25-3.08v-17.71h13.8c1.18,0,2.66,0.11,4.44,0.34
		c-0.12-1.02-0.17-1.79-0.17-2.3s0.06-1.28,0.17-2.3c-2.11,0.23-3.62,0.34-4.52,0.34h-13.72v-6.74c0-1.2,0.41-2.12,1.24-2.77
		c-1.71,0-3.75-0.17-6.12-0.5c0.19,1.14,0.28,2.17,0.28,3.09v6.92h-13.91l1.43-11.75h1.85c7.18,0,13.12-0.17,17.8-0.5l8.02-0.56
		c0.97-0.07,1.74-0.11,2.31-0.11c0.55,0,1.41,0.05,2.59,0.14c-1.65-1.48-2.81-3.12-3.47-4.92c-5.97,1.61-14.15,2.41-24.55,2.41
		c-1.66,0-3.01-0.03-4.08-0.07l-3.94-0.16c-0.62-0.03-1.03-0.05-1.21-0.05c0.11,0.99,0.17,1.73,0.17,2.21
		c0,0.43-0.02,0.91-0.08,1.44l-0.85,8.55c-0.22,2.27-0.96,3.6-2.23,3.99c0.79,1.19,1.32,2.54,1.57,4.07
		C538.09,110.97,540.16,110.71,542.24,110.71z"/>
	<path fill="#114775" d="M549.59,116.88c-2.04-0.73-3.88-1.68-5.51-2.84c-3.01,4.42-7.89,8.33-14.63,11.71c2,0.63,3.7,1.49,5.1,2.57
		C540.5,123.19,545.51,119.38,549.59,116.88z"/>
	<path fill="#114775" d="M568.76,115.88c-0.2-0.15-0.9-0.64-2.09-1.47c-1.14,0.99-2.48,1.76-4.02,2.3
		c5.35,3.38,9.41,6.82,12.2,10.34c1.57-1.1,3.39-1.95,5.45-2.55c-1.6-1.31-3.8-2.98-6.61-5.03L568.76,115.88z"/>
	<path fill="#114775" d="M612.21,128.95v1.47c0,0.3-0.07,0.92-0.22,1.87h5.32c-0.12-0.95-0.17-1.57-0.17-1.87v-1.47V95h7.03
		c-1.07,4.4-2.23,8.7-3.5,12.9c4.23,3.01,6.34,6.45,6.34,10.33c0,2.42-1.59,3.63-4.77,3.63c-0.74,0-1.76-0.09-3.06-0.27
		c0.87,1.22,1.45,2.92,1.74,5.12c8.01-0.76,12.01-3.27,12.01-7.56c0-1.65-0.4-3.19-1.2-4.61c-0.8-1.43-2.56-3.71-5.28-6.85
		c-0.19-0.21-0.46-0.53-0.83-0.97c1.17-3.72,2.02-6.51,2.53-8.37c0.84-3.24,1.82-5.67,2.92-7.29c-1.97,0.18-4.12,0.27-6.45,0.27
		h-8.02c-1.76,0-3.38-0.08-4.85-0.25c0.29,2.62,0.44,4.57,0.46,5.87V128.95z"/>
	<path fill="#114775" d="M589.04,105.06c1.48-0.48,3.01-0.9,4.57-1.26c-1.14-1.5-2.06-3.07-2.78-4.69
		c-1.37,0.57-2.83,1.04-4.35,1.42C587.6,101.95,588.46,103.46,589.04,105.06z"/>
	<path fill="#114775" d="M598.82,92.23c-0.88-1.31-1.61-2.66-2.2-4.04c-1.56,0.56-3.17,0.98-4.82,1.27c0.95,1.35,1.69,2.68,2.2,3.99
		C595.56,92.98,597.17,92.58,598.82,92.23z"/>
	<path fill="#114775" d="M582.57,97.68c2.41-0.1,4.23-0.14,5.46-0.14h15.4h3.97c0.22,0,0.9,0.05,2.04,0.14
		c-0.15-1.01-0.22-1.74-0.22-2.21c0-0.42,0.04-1,0.11-1.74c-0.86,0.04-1.51,0.08-1.93,0.11c-2.06,0.12-3.42,0.18-4.08,0.18h-15.29
		l-3.64-0.14c-0.88-0.05-1.53-0.07-1.93-0.07c0.15,0.99,0.22,1.72,0.22,2.18C582.68,96.39,582.64,96.96,582.57,97.68z"/>
	<path fill="#114775" d="M589.63,127.93v-1.26h11.98v1.35c0,0.49-0.1,1.35-0.28,2.57c1.08-0.07,1.91-0.11,2.48-0.11
		c0.59,0,1.5,0.05,2.73,0.16c-0.15-1.03-0.22-1.72-0.22-2.05v-1.62v-10.51c0-1.04,0.11-2.54,0.33-4.51
		c-2.08,0.23-4.08,0.34-6.01,0.34h-10.47c-1.52,0-3.31-0.08-5.37-0.25c0,0.41,0.04,1.2,0.11,2.37c0.07,1.06,0.11,1.75,0.11,2.05
		v11.48v1.96c0,0.2-0.08,0.66-0.25,1.4c1.14-0.11,2.01-0.16,2.6-0.17c0.55,0,1.38,0.05,2.48,0.16c-0.15-0.99-0.22-1.64-0.22-1.96
		V127.93z M589.65,115.62h11.9v7.76h-11.9V115.62z"/>
	<path fill="#114775" d="M580.53,108.79c1.84-0.11,3.01-0.16,3.54-0.17h3.75h16.28h3.83c0.33,0,1.19,0.05,2.59,0.16
		c-0.1-0.79-0.14-1.42-0.14-1.87c0-0.33,0.05-0.87,0.14-1.62c-1.4,0.11-2.26,0.16-2.59,0.16h-3.75h-2.98
		c0.42-0.59,0.74-1.02,0.96-1.31c1.23-1.7,2.65-2.97,4.27-3.81c-2.08-0.48-4.05-1.03-5.9-1.65c-0.68,2.26-1.6,4.51-2.78,6.77h-10.06
		c-1.73,0-4.12-0.09-7.19-0.27c0.17,0.84,0.25,1.48,0.25,1.92C580.75,107.46,580.68,108.02,580.53,108.79z"/>
	<path fill="#114775" d="M180.61,145.42h-9.78v-4.12h10.88v2.32l2.5-0.71v-0.44c0-1.34-0.27-2.26-0.82-2.8
		c-0.55-0.53-1.56-0.8-3-0.8H172c-1.49,0-2.48,0.27-3,0.82c-0.55,0.55-0.82,1.55-0.82,3.04v1.37c0,1.51,0.27,2.5,0.82,3.04
		c0.54,0.55,1.52,0.82,3,0.82h9.76v4.48h-11.47v-2.58l-2.73,0.62v0.56c0,1.46,0.28,2.48,0.82,3.04c0.56,0.54,1.55,0.8,3.03,0.8h9.19
		c1.47,0,2.48-0.27,3-0.81c0.53-0.54,0.8-1.57,0.8-3.04v-1.79c0-1.5-0.27-2.49-0.82-3.03C183.06,145.69,182.09,145.42,180.61,145.42
		z"/>
	<path fill="#114775" d="M206.15,138.88h-10.9c-1.49,0-2.51,0.28-3.03,0.83c-0.53,0.56-0.79,1.55-0.79,3.04v8.32
		c0,1.45,0.27,2.47,0.79,3.02c0.53,0.56,1.52,0.82,3.03,0.82h10.9c1.47,0,2.48-0.27,3.01-0.8c0.54-0.57,0.82-1.6,0.82-3.05v-8.32
		c0-1.46-0.28-2.48-0.82-3.04C208.64,139.16,207.63,138.88,206.15,138.88z M207.08,152.46h-12.76V141.3h12.76V152.46z"/>
	<path fill="#114775" d="M232.24,147.67h-0.01c0,1.04,0.03,1.82,0.06,2.3c0.04,0.4,0.08,0.76,0.13,1.12
		c-0.22-0.27-0.44-0.53-0.64-0.74c-0.28-0.35-0.59-0.63-0.86-0.88l-11.79-10.55l-0.04-0.03h-1.83v16.03h2.67v-9.41
		c0-0.74,0-1.39-0.03-1.93c-0.02-0.3-0.04-0.63-0.08-0.98c0.27,0.35,0.61,0.72,1.06,1.11c0.08,0.07,0.15,0.13,0.2,0.18l12.15,11
		l0.04,0.04h1.67V138.9h-2.7V147.67z"/>
	<path fill="#114775" d="M256.2,138.88H246c-1.48,0-2.5,0.28-3.03,0.82c-0.55,0.55-0.82,1.54-0.82,3.02v8.33
		c0,1.49,0.27,2.48,0.82,3.02c0.52,0.56,1.52,0.83,3.03,0.83h10.2c1.47,0,2.48-0.27,3-0.8c0.56-0.53,0.83-1.53,0.83-3.04v-5.25
		h-9.27v2.28h6.37v4.37h-12.08V141.3h12.08v2.34l2.9-0.57v-0.5c0-1.4-0.27-2.34-0.83-2.89C258.64,139.15,257.64,138.88,256.2,138.88
		z"/>
	<path fill="#114775" d="M276.91,152.46h-8.17v-5.26l-2.9,0.61v3.26c0,1.51,0.27,2.5,0.82,3.05c0.53,0.53,1.54,0.79,3,0.79h6.32
		c1.47,0,2.48-0.27,3-0.8c0.56-0.54,0.83-1.53,0.83-3.04v-12.18h-2.9V152.46z"/>
	<rect x="287.05" y="138.88" fill="#114775" width="2.9" height="16.03"/>
	<path fill="#114775" d="M302.98,138.88l-8.76,16.03h2.91l2.01-3.87h10.51l2.01,3.87h3.22l-8.93-16.03H302.98z M300.41,148.78
		l3.99-7.66l4.03,7.66H300.41z"/>
	<path fill="#114775" d="M334.17,147.67h-0.03c0,0.96,0.03,1.74,0.09,2.3c0.02,0.37,0.05,0.74,0.1,1.1c-0.2-0.25-0.41-0.5-0.61-0.72
		c-0.32-0.37-0.61-0.65-0.88-0.88l-11.79-10.55l-0.04-0.03h-1.83v16.03h2.7v-9.41c0-0.81-0.03-1.46-0.06-1.93
		c-0.02-0.34-0.03-0.68-0.06-0.99c0.27,0.35,0.61,0.71,1.05,1.11c0.11,0.1,0.19,0.18,0.25,0.23l12.1,10.95l0.04,0.04h1.67v-16.03
		h-2.7V147.67z"/>
	<path fill="#114775" d="M358.11,138.88h-10.2c-1.49,0-2.51,0.28-3.03,0.83c-0.53,0.55-0.79,1.57-0.79,3.02v8.33
		c0,1.45,0.27,2.47,0.79,3.02c0.53,0.56,1.52,0.82,3.03,0.82h10.2c1.46,0,2.48-0.27,3.03-0.81c0.53-0.54,0.8-1.56,0.8-3.04v-5.25
		h-9.27v2.28h6.37v4.37h-12.05V141.3h12.05v2.34l2.9-0.57v-0.5c0-1.39-0.27-2.34-0.83-2.89
		C360.55,139.14,359.57,138.88,358.11,138.88z"/>
	<polygon fill="#114775" points="368.79,154.91 371.72,154.91 371.72,148.56 378.76,148.56 378.76,146.18 371.72,146.18 
		371.72,141.3 384.07,141.3 384.07,138.88 368.79,138.88 	"/>
	<path fill="#114775" d="M402.32,138.88h-10.9c-1.51,0-2.5,0.27-3.03,0.83c-0.55,0.57-0.82,1.59-0.82,3.04v8.32
		c0,1.44,0.28,2.45,0.82,3.02c0.53,0.56,1.52,0.82,3.03,0.82h10.9c1.46,0,2.44-0.26,3-0.8c0.54-0.57,0.82-1.6,0.82-3.05v-8.32
		c0-1.46-0.28-2.48-0.82-3.04C404.77,139.15,403.79,138.88,402.32,138.88z M403.25,152.46h-12.78V141.3h12.78V152.46z"/>
	<path fill="#114775" d="M427.92,138.88h-10.9c-1.49,0-2.5,0.28-3.03,0.83c-0.54,0.57-0.82,1.59-0.82,3.04v8.32
		c0,1.44,0.27,2.45,0.82,3.02c0.52,0.56,1.52,0.83,3.03,0.83h10.9c1.47,0,2.48-0.27,3.01-0.8c0.53-0.56,0.79-1.56,0.79-3.05v-8.32
		c0-1.47-0.27-2.5-0.79-3.04C430.4,139.15,429.41,138.88,427.92,138.88z M428.85,152.46h-12.78V141.3h12.78V152.46z"/>
	<polygon fill="#114775" points="435.28,141.3 442.48,141.3 442.48,154.91 445.38,154.91 445.38,141.3 452.62,141.3 452.62,138.88 
		435.28,138.88 	"/>
	<path fill="#114775" d="M470.6,146.6c0.58-0.15,1.04-0.38,1.37-0.7c0.43-0.43,0.65-1.11,0.65-1.99v-1.84
		c0-1.12-0.28-1.94-0.82-2.43c-0.52-0.51-1.41-0.77-2.64-0.77h-12.85v16.03h11.9c1.51,0,2.61-0.25,3.37-0.78
		c0.76-0.52,1.15-1.35,1.15-2.44v-2.01c0-0.95-0.24-1.68-0.73-2.23C471.67,147.06,471.2,146.77,470.6,146.6z M459.23,141.29h8.95
		c0.75,0,1.06,0.15,1.2,0.27c0.19,0.17,0.29,0.49,0.29,0.96v1.56c0,0.48-0.1,0.8-0.32,0.99c-0.19,0.19-0.58,0.28-1.17,0.28h-8.95
		V141.29z M469.81,150.75c0,0.65-0.12,1.13-0.35,1.36c-0.23,0.25-0.64,0.38-1.27,0.38h-8.95v-4.82h8.95c0.62,0,1.04,0.13,1.27,0.37
		c0.23,0.27,0.35,0.74,0.35,1.4V150.75z"/>
	<path fill="#114775" d="M487.83,138.88h-2.99l-8.64,15.83l-0.11,0.2H479l2.01-3.87h10.51l1.97,3.8l0.04,0.07h3.19l-8.85-15.96
		L487.83,138.88z M482.24,148.78l4.02-7.66l4.03,7.66H482.24z"/>
	<polygon fill="#114775" points="503.92,138.88 501.02,138.88 501.02,154.91 515.86,154.91 515.86,152.46 503.92,152.46 	"/>
	<polygon fill="#114775" points="523.4,138.88 520.5,138.88 520.5,154.91 535.33,154.91 535.33,152.46 523.4,152.46 	"/>
	<path fill="#114775" d="M563.39,138.88h-8.83c-1.48,0-2.47,0.27-3.03,0.82c-0.53,0.55-0.79,1.54-0.79,3.04v8.32
		c0,1.48,0.27,2.5,0.8,3.04c0.56,0.54,1.55,0.8,3.03,0.8h8.83c1.49,0,2.51-0.27,3.01-0.79c0.55-0.55,0.82-1.55,0.82-3.05v-1.98
		l-2.92-0.61v3.99h-10.65V141.3h10.65v3.58l2.92-0.54v-1.59c0-1.52-0.27-2.52-0.81-3.06C565.9,139.16,564.89,138.88,563.39,138.88z"
		/>
	<polygon fill="#114775" points="576.33,138.88 573.4,138.88 573.4,154.91 588.26,154.91 588.26,152.46 576.33,152.46 	"/>
	<path fill="#114775" d="M605.48,152.46H594.3v-13.58h-2.93v12.18c0,1.48,0.27,2.47,0.82,3.02c0.52,0.56,1.51,0.83,3,0.83h9.36
		c1.46,0,2.47-0.27,3.01-0.8c0.53-0.56,0.79-1.56,0.79-3.05v-12.18h-2.87V152.46z"/>
	<path fill="#114775" d="M630.11,146.6c0.58-0.15,1.04-0.38,1.37-0.7c0.46-0.45,0.69-1.13,0.69-1.99v-1.84
		c0-1.08-0.29-1.92-0.83-2.43c-0.54-0.51-1.44-0.76-2.66-0.76h-12.85v16.03h11.93c1.5,0,2.63-0.26,3.35-0.78
		c0.77-0.53,1.18-1.37,1.18-2.44v-2.01c-0.02-0.9-0.26-1.65-0.75-2.23C631.19,147.05,630.71,146.77,630.11,146.6z M618.76,141.28
		h8.94c0.61,0,1,0.09,1.2,0.27c0.19,0.17,0.29,0.48,0.29,0.96v1.57h-0.01c0,0.49-0.1,0.8-0.32,0.99c-0.18,0.18-0.57,0.27-1.16,0.27
		h-8.94V141.28z M629.32,150.75c0,0.69-0.12,1.14-0.37,1.37c-0.19,0.24-0.62,0.37-1.26,0.37h-8.94v-4.82h8.94
		c0.62,0,1.05,0.12,1.27,0.38c0.25,0.25,0.36,0.69,0.36,1.39V150.75z"/>
	<path fill="#114775" d="M317.77,286.24h-9.16v18.37c3.04-0.45,6.09-0.88,9.16-1.26V286.24z"/>
	<path fill="#114775" d="M317.77,312.78c-2.94,0.31-6.01,0.66-9.16,1.08v52.67c3.18-1.06,6.24-2.12,9.16-3.18v-36.38
		c-0.66-0.01-1.32-0.01-2-0.01l-0.42-5.97c0.82-0.12,1.61-0.22,2.41-0.33V312.78z"/>
	<path fill="#114775" d="M286.33,317.63v55.6c4.24-1.15,8.47-2.37,12.67-3.64v-54.32C294.82,315.94,290.57,316.73,286.33,317.63z"/>
	<path fill="#114775" d="M233.84,333.09v50.78c6.42-0.84,13.08-1.9,19.88-3.17v-54.27C246.57,328.64,239.93,330.87,233.84,333.09z"
		/>
	<path fill="#114775" d="M276.68,319.91c-5.37,1.41-10.53,2.84-15.49,4.29v55.03c5.53-1.14,11.12-2.42,16.72-3.82V319.6
		C277.5,319.71,277.09,319.81,276.68,319.91z"/>
	<path fill="#114775" d="M299,271.11h-12.67v37.42c4.17-0.84,8.39-1.63,12.67-2.37V271.11z"/>
	<path fill="#114775" d="M277.91,222.74h-16.72v91.6c5.42-1.41,11-2.77,16.72-4.03V222.74z"/>
	<path fill="#114775" d="M286.33,382.35v22.11H299v-25.28C294.75,380.31,290.52,381.36,286.33,382.35z"/>
	<path fill="#114775" d="M317.77,373.76c-3.05,0.96-6.11,1.88-9.16,2.76v27.94h9.16V373.76z"/>
	<path fill="#114775" d="M253.72,214.63h-19.88v107.79c6.24-2.07,12.9-4.11,19.88-6.06V214.63z"/>
	<path fill="#114775" d="M261.19,387.6v16.86h16.72v-20.21C272.23,385.48,266.64,386.59,261.19,387.6z"/>
	<path fill="#114775" d="M233.84,391.94v12.52h19.88v-15.54C246.8,390.09,240.14,391.09,233.84,391.94z"/>
</g>
</svg>
