<?xml version="1.0" encoding="UTF-8"?>
<svg data-name="图层_1" xmlns="http://www.w3.org/2000/svg" version="1.1" viewBox="0 0 800 800">
  <!-- Created by @FCLOGO 2025-7-2 GMT+8 22:43:45 . https://fclogo.top/ -->
<!-- FOR PERSONAL USE ONLY NOT FOR COMMERCIAL USE -->
  <path d="M646.8419,417.9879c-12.9212-37.2924-17.5749-74.2845-17.5749-108.219,0-43.5893,7.6779-82.1351,15.3526-109.7752,3.8395-13.821,7.679-24.9145,10.5547-32.5522,2.8776-7.6366,4.7865-11.7927,4.788-11.8035l.3043-.6664-.705-.1892c-34.3551-9.0968-67.2254-35.1803-91.4703-59.0084-12.1254-11.91-22.0963-23.2527-29.0339-31.6154-6.9372-8.3657-10.8248-13.726-10.8368-13.7392l-.3076-.4194-.4614.2276c-42.5673,20.8132-87.3343,26.2633-127.451,26.2633s-84.8847-5.4501-127.4487-26.2633l-.468-.2255-.3008.4173c-.0111.0159-3.8996,5.3735-10.8374,13.7392-20.8027,25.0928-68.9622,76.986-120.5033,90.6238l-.7093.1892.3047.6664c.005.0108,1.9131,4.167,4.7882,11.8035,8.6332,22.9099,25.9088,76.9434,25.9072,142.3274,0,33.9345-4.653,70.9267-17.5751,108.219-.0088.0358-15.5896,44.9747-15.5929,95.5082,0,39.6554,9.6038,82.8395,44.0439,110.3385.0445.0319,46.1388,36.8216,123.4399,56.515.0066.0021,3.1644.8041,8.6304,2.898,16.3987,6.2829,53.3146,24.1116,85.8355,66.1243l.4855.6282.4878-.6282c21.6808-28.0084,45.3123-45.2687,63.5199-55.5251,9.1023-5.1271,16.8496-8.5052,22.3152-10.5992,5.466-2.094,8.6233-2.8932,8.6304-2.898,77.3003-19.6933,123.3958-56.4831,123.4403-56.515,34.4367-27.4956,44.0406-70.683,44.0406-110.3385-.0066-50.5372-15.5813-95.4724-15.5929-95.5082"/>
  <path d="M617.6248,622.8689c-.0082.0072-2.8518,2.2785-8.3586,6.0194-16.5212,11.2247-56.8247,35.5441-114.6199,50.2667-.0739.0181-51.1536,13.0437-94.6452,68.836-43.4938-55.7923-94.5702-68.8179-94.6495-68.836-38.5286-9.8159-69.2842-23.897-90.4015-35.5171-10.5585-5.81-18.7083-11.0083-24.2134-14.7496-5.5065-3.7409-8.351-6.014-8.3599-6.0194-34.0078-27.1392-43.5753-69.8883-43.578-109.3728,0-25.1427,3.8804-48.9278,7.7646-66.4223,3.884-17.495,7.7568-28.6511,7.7617-28.6824,12.972-37.4446,17.6406-74.575,17.6422-108.6225-.0043-82.4382-27.3502-146.8107-30.5101-153.9801,66.3304-18.0687,126.2225-97.768,131.0132-104.2296,42.66,20.7426,87.4506,26.1653,127.5303,26.168,40.082-.0027,84.8668-5.4243,127.5299-26.1669,4.7907,6.4604,64.6861,86.1609,131.0142,104.2284-3.1594,7.1698-30.5068,71.5419-30.5101,153.9801,0,34.0475,4.6674,71.1778,17.6429,108.6225.0109.0292,3.8753,11.1874,7.7595,28.6797,3.8804,17.4934,7.7617,41.2824,7.7617,66.4251,0,39.4846-9.5675,82.2365-43.5737,109.3728" style="fill: #d09a3f;"/>
  <path d="M235.6569,114.4211l.4116-.3864c18.1069-16.9031,32.3323-33.4729,40.6382-43.7788l.2903-.3609.4311.1806c35.5126,15.0902,75.7506,22.4529,122.5729,22.4529s87.0631-7.3626,122.5741-22.4529l.4272-.1806.2944.3609c8.3036,10.3059,22.5311,26.8757,40.6359,43.7815l.4101.3837-111.685,143.6667-.4585-.2508c-.085-.0452-.1571-.0883-.2155-.1175-16.422-8.8513-33.8978-13.3331-51.9662-13.3331s-35.5472,4.4818-51.9698,13.3298c-.0643.0364-.141.0822-.2359.1345l-.4596.2464-111.6953-143.676Z"/>
  <path d="M347.6845,256.512c16.529-8.8615,34.1408-13.3598,52.333-13.3598,18.1829,0,35.7899,4.4944,52.3078,13.3508l110.355-141.948c-17.7574-16.6288-31.7454-32.8793-40.0523-43.161-35.5832,15.0411-75.8685,22.3697-122.627,22.3697s-87.0448-7.3286-122.6264-22.3697c-8.3075,10.2817-22.2937,26.531-40.0527,43.157l110.3626,141.9608Z" style="fill: #352b7d;"/>
  <path d="M441.6925,559.1262l-.435.1809c-13.2321,5.4705-27.0531,8.2456-41.24,8.2456-14.1962,0-28.0247-2.7779-41.2658-8.2544l-.4338-.1803-76.1133,97.7842.8268.2755c8.1939,2.7333,16.8601,5.3079,25.9751,7.6294,2.0343.5176,47.5515,12.5631,90.5399,59.6957l.4546.4978.456-.4978c42.9861-47.1327,88.5054-59.1781,90.5387-59.6957,9.1148-2.3215,17.7822-4.8961,25.9749-7.6294l.8297-.2755-76.1079-97.776Z"/>
  <path d="M490.6893,663.6111c-2.1706.5573-47.6067,12.5989-90.6882,59.5617-43.0814-46.9629-88.5187-59.0044-90.6898-59.5617-8.7776-2.2322-17.1407-4.7077-25.0606-7.3251l74.4654-95.6699c13.252,5.4215,27.0978,8.1719,41.3016,8.1719,14.1914,0,28.0331-2.7516,41.277-8.1624l74.457,95.6604c-7.922,2.6174-16.2842,5.0929-25.0622,7.3251" style="fill: #352b7d;"/>
  <path d="M183.1704,603.5835c-22.8072-23.7613-29.5548-57.8036-29.5575-89.8774.0027-46.8902,14.4293-89.6789,14.6983-90.4682,13.7079-39.566,18.3809-78.705,18.3809-113.667,0-28.7088-3.1485-54.6022-7.0303-75.599-.8208-4.4367-1.6888-8.7265-2.5867-12.8895l1.0924-.5098,99.9695,128.4343-.0898.3049c-5.3634,17.8864-8.1702,37.0091-8.1702,56.6488,0,24.7133,4.4415,48.6131,12.83,70.2476l.1262.3236-99.1676,127.5643-.4951-.5125Z"/>
  <path d="M180.8748,233.7481c3.893,21.0584,7.0519,47.0236,7.0519,75.8228,0,35.0712-4.6857,74.3495-18.4509,114.0705-.2431.701-14.6333,43.4265-14.6279,90.0647-.0039,31.6859,6.6374,65.1331,28.7205,88.505l97.8635-125.8834c-8.3648-21.6955-12.7875-45.628-12.7875-70.3672h-.0027c.0027-19.6424,2.7946-38.7795,8.1321-56.6962l-97.9329-125.8139c.7023,3.3468,1.3835,6.7751,2.0339,10.2978" style="fill: #352b7d;"/>
  <path d="M517.1698,476.5377l.1274-.3236c8.3856-21.636,12.8275-45.5364,12.8275-70.2531,0-19.6414-2.8055-38.7668-8.1678-56.6517l-.0927-.3052,99.9718-128.4305,1.0891.5088c-.8968,4.1642-1.7681,8.4519-2.5856,12.8916-3.8815,20.994-7.0315,46.8868-7.0315,75.598,0,34.9635,4.6729,74.0998,18.382,113.668.1274.371,11.7264,34.2279,14.2371,75.1813.314,5.1509.4702,10.1879.4718,15.0979-.0015,17.4765-1.9997,33.3549-5.9776,47.3549-4.8697,17.1281-12.7902,31.455-23.5889,42.7094l-.4954.5137-99.1671-127.5595Z"/>
  <path d="M616.4339,602.2111c10.3931-11.0126,18.0511-24.9702,22.7996-41.675,3.9437-13.8676,5.9317-29.6347,5.9317-47.0169,0-4.8839-.1581-9.8953-.4707-15.024-2.4936-40.7637-14.0622-74.5518-14.168-74.8529-13.7663-39.7208-18.4536-78.9981-18.4536-114.0702,0-28.8004,3.1587-54.7656,7.0534-75.8251.6504-3.522,1.3328-6.9516,2.0345-10.2984l-97.9308,125.8107c5.3371,17.9164,8.1272,37.0561,8.1294,56.7018-.0021,24.7398-4.4244,48.676-12.7854,70.3715l97.8598,125.8785Z" style="fill: #352b7d;"/>
  <path d="M455.649,552.9619l-.4317-.5557.6065-.357c13.9835-8.2104,26.5602-19.3543,37.4279-33.2056,6.3183-8.0521,11.879-16.8088,16.6462-26.1133l.4404-.8604,94.7483,121.8696-.5275.3743c-9.1336,6.483-34.2653,22.9822-71.6795,37.3548l-.4317.1626-76.7989-98.6693Z"/>
  <path d="M532.8652,650.1519c36.355-14.0165,61.0043-30.0174,70.455-36.6713l-92.7667-119.3271c-4.7029,9.0499-10.1545,17.5817-16.3316,25.4554-10.7971,13.7612-23.2857,24.8874-37.1683,33.147l75.8117,97.396Z" style="fill: #fff;"/>
  <path d="M344.1878,552.0381c-13.9796-8.2083-26.5541-19.347-37.4185-33.19-6.327-8.0605-11.8895-16.8193-16.6585-26.1245l-.4447-.8631-94.751,121.8801.5258.3753c9.1132,6.4667,34.2505,22.9744,71.6819,37.3503l.4266.1637,77.2444-99.2359-.6059-.356Z"/>
  <path d="M267.1387,650.1519c-36.3752-14.0226-61.0281-30.0318-70.4577-36.6713l92.7745-119.3347c4.7059,9.0547,10.1611,17.5902,16.3436,25.4639,10.7948,13.7564,23.2803,24.8782,37.1578,33.1332l-75.8183,97.4089Z" style="fill: #fff;"/>
  <path d="M166.7162,181.7622l-.0327-.1065c-1.9676-6.2507-3.85-11.7158-5.5178-16.2977l-.2045-.5585.5518-.222c22.7654-9.2417,44.1909-24.1402,62.59-39.8478l.4906-.4216,109.7804,141.2105-.4867.3809.4867-.3809.3903.5044-.5153.3759c-10.0497,7.2845-19.2539,16.2159-27.4797,26.6955-9.0394,11.5158-16.5293,24.446-22.3532,38.3821l-.4058.979-117.2941-150.6933Z"/>
  <path d="M283.6897,330.0296c5.8016-13.6642,13.2106-26.3586,22.1084-37.6976,8.1521-10.3847,17.262-19.2687,27.2102-26.5575l-108.5955-139.69c-18.2094,15.4843-39.3527,30.1629-61.8867,39.4101,1.6133,4.454,3.4178,9.7103,5.2969,15.6828l115.8667,148.8521Z" style="fill: #fff;"/>
  <path d="M515.5902,331.4716c-5.8199-13.9357-13.3073-26.8642-22.3384-38.3745-8.227-10.4851-17.4355-19.4209-27.4902-26.7115l-.5164-.3741,110.1616-141.7025.4927.4179c18.399,15.7093,39.824,30.6099,62.5889,39.8499l-.232.5705.232-.5705.5495.2226-.1995.5617c-1.6689,4.5787-3.5505,10.0431-5.5201,16.2939l-.0307.1054-117.2928,150.6872-.4044-.9761Z"/>
  <path d="M494.2191,292.3332c8.8961,11.3362,16.298,24.0293,22.098,37.691l115.8601-148.8455c1.8805-5.9728,3.6845-11.2327,5.2979-15.684-22.535-9.2472-43.6762-23.9246-61.8868-39.409l-108.5879,139.6784c9.9534,7.2878,19.0677,16.1805,27.2186,26.5691" style="fill: #fff;"/>
  <path d="M515.3222,405.9688c0,81.0656-51.6315,146.7831-115.3217,146.7831s-115.3215-65.7174-115.3215-146.7831,51.6313-146.7815,115.3215-146.7815,115.3217,65.7169,115.3217,146.7815"/>
  <path d="M514.0892,405.9688c0,80.3833-51.0797,145.5495-114.0887,145.5495s-114.0885-65.1662-114.0885-145.5495,51.0796-145.5473,114.0885-145.5473,114.0887,65.1645,114.0887,145.5473" style="fill: #5da2d3;"/>
  <path d="M223.7551,472.0412c-11.1047.0144-19.244-5.6226-24.4763-14.7087-5.2428-9.0864-7.6907-21.6102-7.6934-35.6219.0027-14.022,2.4506-26.5421,7.6934-35.6283,5.2323-9.0841,13.3749-14.7162,24.4763-14.7018,17.5039-.076,31.5061,9.3458,32.1682,33.5334l-.6164.0198v-.618.618l.6164-.0198.0198.636h-18.4371v-.6162c0-.1268.0016-.2436,0-.3578-.0492-9.7294-4.6029-17.1395-13.7509-17.151-5.2605-.0342-8.7422,5.0007-10.8897,12.0046-2.1336,6.9588-2.864,15.6443-2.8607,22.281-.0033,6.6329.727,15.3174,2.8607,22.2717,2.1474,6.9994,5.6292,12.0322,10.8897,11.998,9.148-.0132,13.7017-7.3952,13.7525-17.1213,0-.1202-.0016-.2355-.0016-.35l-.0066-.623h18.4419l-.0181.6362c-.6588,24.091-14.553,33.519-31.9555,33.519h-.2127"/>
  <path d="M200.3481,386.7017c-5.089,8.7963-7.5312,21.1301-7.5279,35.0088-.0033,13.8694,2.4389,26.2054,7.5279,35.0046,5.1022,8.7996,12.7385,14.0787,23.4071,14.092,16.9148-.0733,29.9116-8.4965,30.913-31.6858h-15.9297c-.0424,4.938-1.2616,9.3993-3.7184,12.6844-2.4957,3.3439-6.3127,5.4174-11.265,5.4098-6.1948-.0332-9.8992-5.767-12.0703-12.8724-2.1865-7.1494-2.9112-15.9075-2.9147-22.6326.0035-6.726.7282-15.4883,2.9147-22.6419,2.1712-7.1081,5.8755-12.8448,12.0703-12.8791,4.9523-.0093,8.772,2.072,11.265,5.4231,2.4568,3.2929,3.676,7.764,3.7184,12.7031h15.9297c-1.0014-23.1914-13.9983-31.6278-30.913-31.7001-10.6703.0122-18.3048,5.2887-23.4071,14.0862" style="fill: #d09a3f;"/>
  <polygon points="568.5571 468.6223 568.5571 387.3907 546.7279 387.3907 546.1096 387.3907 546.1096 373.2633 608.4158 373.2633 608.4158 387.3907 585.9688 387.3907 585.9688 468.6223 568.5571 468.6223"/>
  <polygon points="569.7928 386.1555 569.7928 467.3881 584.7337 467.3881 584.7337 386.1555 607.1806 386.1555 607.1806 374.4985 547.3459 374.4985 547.3459 386.1555 569.7928 386.1555" style="fill: #d09a3f;"/>
  <path d="M410.1192,655.6813h0c-2.9196,5.9341-7.8835,9.9383-16.8751,9.9653h-.4321l-7.5369-.0039v-62.7205h7.5369c.1587-.005.2993-.0078.4321-.0078,8.9888.0253,13.9528,4.0363,16.8751,9.9692,2.9019,5.9445,3.5943,13.8627,3.5899,21.3915.0045,7.539-.688,15.4644-3.5899,21.4062M421.7828,597.5652c-6.4494-8.0143-15.8224-11.8159-27.2324-11.8102-.2011.0033-.4099,0-.6178.0076l-25.6846-.0027v97.0429h25.6994c.0618,0,.1247.0021.1875.0021.1252,0,.2514-.0021.3765-.0021,11.4178.0093,20.8038-3.7862,27.2592-11.7999,6.46-8.008,9.9826-20.1307,9.9826-36.7279,0-16.5807-3.5171-28.7013-9.9703-36.7098Z"/>
  <path d="M411.2275,656.223h0c-3.0176,6.2528-8.5703,10.6562-17.9006,10.6562h-.0828c-.1482,0-.2927-.0033-.4321,0h-8.7698v-65.1932h8.7587c.1412,0,.2895-.0051.4431-.0051,9.3767-.0264,14.9559,4.3902,17.9834,10.6605,3.0454,6.2652,3.709,14.3307,3.7157,21.9338-.0066,7.6144-.6676,15.6839-3.7157,21.9479M394.5504,586.9907c-.2011,0-.3985,0-.603.0055h-24.467v94.5735h24.4703c.188,0,.376.0029.5606,0,22.2429-.0601,35.9245-14.4144,36.0082-47.2946-.0838-32.8493-13.747-47.2248-35.9691-47.2844Z" style="fill: #d09a3f;"/>
  <path d="M472.4539,405.9688c0,57.3896-32.4381,103.9148-72.4534,103.9148s-72.4534-46.5252-72.4534-103.9148,32.4382-103.9134,72.4534-103.9134,72.4534,46.5243,72.4534,103.9134"/>
  <path d="M471.2209,405.9688c0,56.7089-31.8858,102.6806-71.2204,102.6806s-71.2193-45.9718-71.2193-102.6806,31.8858-102.6802,71.2193-102.6802,71.2204,45.9718,71.2204,102.6802" style="fill: #d09a3f;"/>
  <path d="M458.9274,434.4511c-1.1606-.9133-1.8567-1.9954-2.2603-2.8463-.4031-.8522-.4872-1.4264-.4977-1.4264l-.0199-.107-.049-.0892c-.3595-.6356-.4713-1.0694-.4665-1.2732.0105-.2664.0436-.2938.7756-.3589.5582-.0061,1.2721.1526,1.8408.3103.5678.1577.9934.3142.995.3142l.7513.286.0815-.7986c.0436-.4245.0661-.8225.0661-1.1995.0078-3.339-1.6915-4.7991-1.7864-4.8619l-.0682-.0589-.0789-.0309c-3.1378-1.3543-3.3726-3.5739-3.3979-4.5115,0-.253.0276-.3687.0225-.3687l.021-.1301-.0303-.1301c-.6504-2.4914-3.059-3.0761-4.9523-3.0524-1.1383.0006-2.196.1818-2.8685.3302-.3969-1.8977-2.1219-5.4098-2.1286-5.4771l-.9265-1.9539-.2448,2.1474c-.1577,1.5526-1.5538,3.1257-2.9875,4.2523-1.4204,1.1338-2.7901,1.8173-2.7901,1.8221l-.0495.0227-.0436.0364c-1.7318,1.3277-5.3546,1.6431-7.5688,1.6254-1.1422.0017-1.905-.0646-1.905-.0646-.2248-.0181-.4305-.0231-.6228-.0231-1.5692-.0066-2.5861.4752-3.1555,1.146-.566.667-.6489,1.4082-.6489,1.8078,0,.1235.0099.2184.0166.279v.2034c-.0848,3.5505-1.7069,3.7458-2.9536,3.8395-.6053,0-1.0341-.1345-1.0391-.124-.4261-.1031-.7875-.1454-1.1233-.1454-.9539-.0161-1.7344.4149-2.1385,1.0681-.4113.6411-.5188,1.4012-.5209,2.1562.005,1.9131.7579,3.929.7645,3.9608l.1052.2899.2983.091c.0643-.0023.2677.1935.3963.6988.1301.4822.1775,1.1459.1775,1.762,0,.8136-.0772,1.5412-.1037,1.7743-.3247.775-.9817,1.3389-1.6508,1.7242-.5787.1824-1.205.4178-1.8828.7248l.3731,1.1679c.0237-.0192.9755-.1835,2.0174-.7578,1.0539-.3181,1.8871-.4179,2.5254-.4179.6504,0,1.0974.1064,1.3691.2013.0931.0325.1654.0632.2193.0892,1.4498,3.1614,2.8805,4.3112,4.3115,4.3373,1.8172-.0646,2.6645-1.7539,2.7123-1.7815.9172-2.158,1.9539-2.2803,2.5107-2.3118.2463,0,.3461.0519.3512.0387l.076.0259.0751.0045c2.5501.2226,2.9764.9034,3.0127,1.8089.0385,1.3113-1.4426,3.564-3.0006,5.3266-1.5433,1.7836-3.0894,3.1555-3.0911,3.1605l-1.5818,1.4088,2.0916-.3401,28.3082-4.6474-.0661-.5865c-.064-.5182-.0838-.98-.0865-1.3957.0055-1.9258.5357-2.7273.9512-3.0971.2117-.1863.4157-.2734.5639-.3163.1454-.0436.189-.028.189-.0418h.1829l.1565-.1003c1.3543-.883,1.9408-1.8988,1.9336-2.8502-.0473-1.6353-1.4265-2.5161-1.4568-2.5663"/>
  <path d="M421.5938,483.9157c-1.1603-.9049-1.8515-1.9853-2.2522-2.8391-.3946-.8521-.4768-1.4309-.4855-1.4309l-.0183-.1079-.0539-.0976c-.3634-.6355-.4791-1.0704-.4741-1.2727.0132-.2563.0364-.2788.761-.3484.5573-.0055,1.2728.1561,1.8461.3169.5742.1589,1.0092.3214,1.0119.3187l.7529.2882.0787-.803c.042-.411.0618-.7937.0618-1.1641.0078-3.3748-1.7032-4.8316-1.8002-4.8989l-.0673-.0535-.0772-.0313c-3.1383-1.367-3.3709-3.5772-3.3979-4.5098,0-.2553.0271-.3683.0231-.371l.0199-.1301-.0325-.1289c-.6504-2.5047-3.0631-3.0917-4.9624-3.0691-1.1365.0027-2.1914.1835-2.8617.3308-.3941-1.8934-2.1012-5.3927-2.1078-5.4594l-.9172-1.944-.2563,2.133c-.1643,1.5523-1.5647,3.1181-2.9968,4.2364-1.4231,1.1244-2.7922,1.7974-2.7922,1.8029l-.0523.0265-.0474.0342c-1.7197,1.3438-5.3615,1.6607-7.5766,1.6425-.569,0-1.0395-.016-1.3741-.0301-.329-.0177-.5192-.0342-.5192-.0315-.2091-.0183-.4062-.0253-.5915-.0225-1.5704-.0078-2.59.4678-3.1626,1.1342-.5717.667-.6532,1.4084-.6532,1.8157,0,.1377.0093.2407.0171.3026.001.064.001.1313.001.1946-.0827,3.549-1.729,3.7446-2.984,3.8401-.602,0-1.0263-.1312-1.0302-.1231-.4245-.1001-.7898-.147-1.1338-.147-.9502-.0177-1.7257.4134-2.1336,1.0599-.4089.6436-.5182,1.401-.5204,2.1523.0051,1.9186.7667,3.9437.7712,3.9768l.1075.2944.3047.0875c.0694,0,.2641.1826.3953.6792.1266.4706.1752,1.1237.1752,1.7372,0,.8291-.0827,1.5754-.1091,1.804-.3274.7871-.9911,1.3555-1.6662,1.7419-.5734.1806-1.1962.4171-1.8686.7199l.3731,1.1678c.0249-.0181.9674-.1802,2.0063-.7539,1.0616-.3209,1.8999-.4212,2.5377-.4212.6516,0,1.0962.1043,1.3702.199.0904.0336.162.0628.2161.0882,1.4595,3.1642,2.8904,4.3151,4.3228,4.341,1.8134-.0667,2.6528-1.7555,2.7054-1.783.916-2.1545,1.9582-2.2797,2.5243-2.311.246,0,.3484.0523.3533.039l.0766.0226.0723.0054c2.5453.2261,2.9707.9046,3.0034,1.8092.0412,1.3057-1.4387,3.5574-2.9935,5.3161-1.5423,1.781-3.086,3.15-3.0889,3.1545l-1.5951,1.4169,2.1072-.3455,28.2696-4.6486-.0661-.5832c-.0562-.4971-.0793-.9453-.0793-1.3483.007-1.9402.5433-2.7477.9704-3.1235.2172-.1869.4284-.2773.581-.3209.1521-.0457.1974-.0313.1995-.0406h.1869l.155-.1048c1.331-.8781,1.9104-1.89,1.9053-2.8402-.0474-1.6476-1.4348-2.5411-1.4649-2.5912"/>
  <path d="M381.8133,444.0223c-.0562-.5015-.0763-.9534-.079-1.358.0084-1.9396.538-2.7454.9559-3.1175.2166-.1878.4204-.2767.5676-.3203.1483-.0436.1908-.0274.1908-.0385h.1874l.1554-.103c1.3531-.8797,1.9396-1.9005,1.9329-2.8558-.0472-1.6386-1.4258-2.5282-1.4571-2.5795-1.1725-.8973-1.8599-1.9738-2.255-2.8303-.3947-.8515-.4707-1.4325-.4823-1.4325l-.0183-.1124-.0546-.0976c-.3675-.6399-.4828-1.0776-.4777-1.2787.0159-.2425.018-.2596.7264-.3259.5582-.0088,1.2798.1577,1.8608.3226.5726.1641,1.0113.3296,1.014.3268l.7546.2927.0817-.8025c.0457-.4229.0655-.8201.0655-1.1972.0066-3.36-1.707-4.8317-1.8013-4.8984l-.0634-.0568-.0841-.0331c-3.1391-1.3481-3.37-3.5805-3.397-4.508,0-.247.0253-.3589.0225-.3589l.021-.1328-.0342-.1223c-.6543-2.5134-3.085-3.0993-4.9943-3.0785-1.1249.0012-2.1695.1787-2.8358.322-.3864-1.8906-2.094-5.3912-2.1012-5.4573l-.9116-1.9429-.258,2.131c-.1653,1.552-1.5676,3.1245-3.0022,4.2484-1.4216,1.126-2.7934,1.8052-2.7934,1.81l-.0529.0243-.0459.0364c-1.7203,1.3411-5.3498,1.6596-7.5594,1.6413-1.1315,0-1.8883-.0643-1.89-.0643-.21-.0144-.4068-.0231-.5897-.0199-1.5846-.0078-2.6093.4745-3.1825,1.1504-.5738.6669-.6532,1.4138-.6553,1.8167,0,.1223.0088.2182.0154.2767,0,.0688.0027.1389.0027.2022-.0815,3.5463-1.7383,3.7409-2.9946,3.8362-.5967,0-1.0167-.1284-1.0196-.118-.4204-.1013-.7832-.1448-1.1194-.1448-.9518-.0183-1.7335.4145-2.1379,1.0671-.413.6426-.5194,1.4021-.5221,2.1568.0056,1.9143.7574,3.9299.764,3.9624l.1103.2987.3086.0832c.0657-.0015.2647.1835.3969.6858.1285.4823.1787,1.147.1764,1.7642,0,.8081-.0776,1.5285-.1013,1.7556-.3352.7811-.9932,1.3448-1.6613,1.7279-.5744.1793-1.1978.414-1.8723.7161l.3704,1.1673c.0253-.0175.9683-.1764,2.0069-.7479,1.0461-.3136,1.875-.4124,2.511-.4151.6528.0027,1.1013.1075,1.3759.2024.0941.0331.1664.0644.2209.0914,1.4595,3.1737,2.896,4.3208,4.328,4.3484,1.8094-.0667,2.6495-1.7479,2.6975-1.7776.9226-2.1706,1.9792-2.2908,2.5404-2.3232.2374,0,.3338.0501.3389.0352l.0772.0265.0728.005c2.5519.2193,2.9776.8967,3.0111,1.8035.0397,1.3108-1.4408,3.565-2.9979,5.3282-1.5439,1.7854-3.0905,3.1584-3.0905,3.1638l-1.5968,1.415,2.106-.3451,28.2884-4.6651-.0661-.5822Z"/>
  <path d="M457.6234,369.2254c-3.4345-4.9657-13.2015-6.2069-15.9453-6.4979.2289-1.0236.3323-1.9952.3323-2.9103-.0181-6.2769-4.7102-9.6645-4.7643-9.7096-2.2764-1.6581-4.3814-2.2488-6.1645-2.2451-3.6884.0128-5.864,2.4296-5.917,2.4793l-.9815,1.0831,1.4611-.0529c.0663-.0024.1412-.0024.2238-.0024,3.6676.0183,5.4462,1.5935,6.445,3.1848.4955.8013.7706,1.61.9188,2.2169.1511.6075.1676.9773.171.9773.0171.2921.0258.582.0258.856-.0495,5.9587-4.0336,6.2598-5.6778,6.3412-.0142,0-.0237-.001-.037-.001v-1.5021h-21.5874v-19.8639h-1.1173c2.4611-3.5453,3.3979-11.0447,3.4538-11.1026.0943-.657.1388-1.3135.1361-1.9616-.0418-9.1943-8.5151-17.2426-8.5373-17.296l-1.0467-1.0043v1.4484c.0292,1.8509-1.8146,6.1363-3.6851,9.7825-1.8626,3.6701-3.7283,6.8054-3.731,6.812-.3373.5715-.4542,1.2441-.4569,1.9672.0342,3.5953,2.9339,9.1716,4.1366,11.3544h-1.4039v19.8639h-21.5859v1.5031h-.0369c-1.647-.0803-5.6376-.3852-5.6811-6.3418-.0027-.2734.0084-.5567.0277-.855-.0033-.0043.1015-1.5978,1.0897-3.1946,1.0022-1.5913,2.7769-3.1666,6.4466-3.1848.0811,0,.1538,0,.2256.0024l1.4617.0529-.9821-1.0842c-.0547-.0502-2.2307-2.465-5.9203-2.4798-1.7842,0-3.8869.5876-6.1645,2.2472-.0511.0457-4.7462,3.4333-4.7645,9.7101,0,.9133.1015,1.8834.3325,2.9091-2.7465.2911-12.508,1.5333-15.9441,6.4995l-.2277.3418.2277.3417c3.4361,4.9679,13.2003,6.2084,15.9457,6.4979-.2304,1.0245-.3341,1.997-.3341,2.9103.0183,6.2757,4.7134,9.6643,4.7672,9.7105,2.2776,1.6559,4.3776,2.2466,6.1618,2.2451,3.6896-.0126,5.8656-2.428,5.9203-2.4786l.9518-1.0517-1.4193.0198c-.0811.0027-.1593.0027-.2376.0027-3.6725-.0175-5.4444-1.5941-6.4466-3.1852-.4939-.8015-.771-1.6094-.9199-2.2157-.1493-.6069-.1643-.9763-.1697-.9763-.0171-.3008-.0277-.5859-.0277-.8565.0459-5.9593,4.0342-6.2625,5.6784-6.3451.0144,0,.0259.0011.0396.0011v1.5068h21.5877v71.4989h1.9351c-.0204.3197-.0379.7214-.0379,1.2147.0148,2.5945.4281,7.2989,3.8846,9.6525l.3422.2286.3445-.2286c3.4532-2.3521,3.8666-7.058,3.8809-9.654,0-.4928-.0171-.8941-.0364-1.2131h1.9369v-71.4989h21.5874v-1.5079c.0132,0,.021-.0018.0342-.0018,1.6442.0844,5.6363.3854,5.6805,6.3441.0027.2723-.0054.5595-.0258.8566v.0039c0,.0673-.1202,1.6271-1.0897,3.1903-1.0025,1.5907-2.7774,3.1683-6.445,3.1858-.0788,0-.1575,0-.2377-.0039l-1.418-.0186.9523,1.05c.0529.0513,2.2262,2.4665,5.917,2.4803h.0111c1.7804,0,3.8813-.5909,6.1534-2.2451.0541-.0463,4.7462-3.4337,4.7643-9.7105,0-.9133-.1007-1.8846-.3311-2.9103,2.7454-.2895,12.5096-1.5301,15.9441-6.4958l.228-.3443-.228-.3428Z"/>
  <path d="M372.2491,372.9535c-.932.0027-2.6254.152-4.1483,1.2059-1.5301,1.0518-2.7769,3.0503-2.764,6.3733,0,.2983.0099.6108.0303.9328.007.0544.1145,1.8795,1.2721,3.7617,1.0025,1.6557,2.8947,3.3209,6.0773,3.6956-.0364.0221-.0723.0447-.1103.0678-.8736.527-2.1276,1.0488-3.6868,1.0488-1.513-.0015-3.3324-.484-5.438-2.0068-.0049-.0021-1.0467-.7578-2.1177-2.2427-1.0747-1.4898-2.1379-3.6637-2.1379-6.4713,0-1.0082.1355-2.1.4624-3.2801l.2034-.7254-.7528-.0562c-.0049,0-3.102-.226-6.6435-1.1155-3.3786-.8318-7.1124-2.3223-8.8449-4.5726,1.7325-2.2522,5.4663-3.7415,8.8449-4.5743,3.5415-.8886,6.6386-1.1089,6.6435-1.1146l.7556-.0562-.2061-.7243c-.3284-1.1801-.4624-2.2731-.4624-3.2811,0-2.8105,1.0632-4.985,2.1379-6.4715,1.071-1.4859,2.1234-2.2274,2.1177-2.2412,2.1056-1.5271,3.925-2.0095,5.438-2.0111,1.5593,0,2.8132.5218,3.6868,1.0506.0379.0237.0739.0469.1103.0694-3.1826.3731-5.0748,2.0393-6.0773,3.6941-1.1575,1.8837-1.2651,3.7067-1.2721,3.7629-.0204.3191-.0303.631-.0303.9326-.0155,3.3198,1.2339,5.3182,2.764,6.3706,1.5228,1.0539,3.219,1.2026,4.151,1.2059h.0369v6.7729h-.0396" style="fill: #e1331e;"/>
  <path d="M427.7547,372.9535c.9322.0027,2.6254.152,4.1471,1.2059,1.5313,1.0518,2.7781,3.0503,2.7648,6.3733,0,.2983-.0096.6108-.0294.9328-.0076.0544-.1151,1.8795-1.2727,3.7617-1.002,1.6557-2.8947,3.3209-6.0778,3.6956.0358.0221.0728.0447.1107.0678.8736.527,2.1282,1.0488,3.6868,1.0488,1.5126-.0015,3.3315-.484,5.4375-2.0068.005-.0021,1.0473-.7578,2.1183-2.2427,1.0747-1.4898,2.138-3.6637,2.138-6.4713,0-1.0082-.1355-2.1-.4624-3.2801l-.204-.7254.7529-.0562c.0056,0,3.1025-.226,6.644-1.1155,3.3792-.8318,7.1124-2.3223,8.8449-4.5726-1.7325-2.2522-5.4657-3.7415-8.8449-4.5743-3.5415-.8886-6.6383-1.1089-6.644-1.1146l-.755-.0562.2061-.7243c.3284-1.1801.4624-2.2731.4624-3.2811,0-2.8105-1.0633-4.985-2.138-6.4715-1.071-1.4859-2.1231-2.2274-2.1183-2.2412-2.106-1.5271-3.9249-2.0095-5.4375-2.0111-1.5587,0-2.8132.5218-3.6868,1.0506-.0379.0237-.0749.0469-.1107.0694,3.1831.3731,5.0758,2.0393,6.0778,3.6941,1.1575,1.8837,1.2651,3.7067,1.2727,3.7629.0198.3191.0294.631.0294.9326.0159,3.3198-1.2336,5.3182-2.7648,6.3706-1.5217,1.0539-3.2179,1.2026-4.1499,1.2059h-.0375v6.7729h.0402" style="fill: #e1331e;"/>
  <path d="M394.6045,339.5193c-1.1327-2.429-2.241-5.412-2.2278-7.2948-.0033-.5864.1031-1.0434.28-1.335.0093-.0739,6.3004-10.4835,7.4216-15.8696.786.8621,1.999,2.2919,3.2161,4.1074,2.0555,3.059,4.0765,7.1814,4.0711,11.3874,0,.5937-.0396,1.1895-.1246,1.7909,0,.0037-.3317,2.343-1.0158,4.971-.6282,2.498-1.6641,5.2617-2.7796,6.3024h-6.7608c-.3594-.6362-1.2198-2.1949-2.0802-4.0596" style="fill: #e1331e;"/>
  <path d="M402.9939,448.4076c.0155,2.3767-.4762,6.4349-2.9929,8.3847-2.5206-1.9497-3.0106-6.008-2.9951-8.3831,0-.5048.0198-.9133.0397-1.2147h5.9109c.0187.3014.0373.7099.0373,1.2131" style="fill: #e1331e;"/>
  <polygon points="373.5212 374.4593 395.111 374.4593 395.111 445.9582 404.8939 445.9582 404.8939 374.4593 426.48 374.4593 426.48 364.6754 404.8912 364.6754 404.8912 344.8152 395.111 344.8123 395.111 364.6754 373.5212 364.6754 373.5212 374.4593" style="fill: #d2dc00;"/>
  <path d="M442.4806,154.17h0c-.7749-1.3245-2.1991-2.2247-3.8395-2.2247-.6637,0-1.2832.1622-1.8459.4263-.0342-.0095-.0694-.0198-.1048-.0294-.1659-.0468-.3323-.0892-.4982-.1349-2.8408-4.4755-7.0943-9.1116-13.4334-12.0803,2.4335.4922,5.2798,1.1564,8.3444,2.0394,9.1739,2.6353,20.246,7.2326,27.8622,14.9488-.0027.0021.4954.5014,1.2754,1.5492.7832,1.0473,1.8295,2.6264,2.8766,4.7291.9607,1.9258,1.9122,4.3081,2.6728,7.1069-4.9651-7.812-13.768-12.9494-23.3096-16.3304M406.6633,147.7252h0c-.8787-5.0832-1.8002-8.699-2.2268-10.2494,7.2716.6449,13.0519,5.2385,17.0674,9.8165.6376.7282,1.2258,1.4525,1.7714,2.1596-6.4356-1.0263-12.3002-1.5046-16.612-1.7267ZM393.3378,147.7252h0c-4.3112.222-10.1747.7003-16.6108,1.7262.5456-.7072,1.1327-1.4309,1.7714-2.1591,4.0155-4.5779,9.7961-9.1716,17.0668-9.8165-.4272,1.5504-1.3487,5.1662-2.2274,10.2494ZM363.8116,152.204h0c-.167.0452-.3362.0888-.5033.1355-.0352.0094-.0711.021-.1063.0316-.5612-.2641-1.1789-.4257-1.842-.4257-1.6394,0-3.0619.8975-3.8362,2.2219-9.5367,3.3787-18.3352,8.5076-23.3013,16.2941.7584-2.7808,1.7059-5.1526,2.6612-7.0678,1.0494-2.1028,2.0943-3.6818,2.8766-4.7291.7799-1.0478,1.2781-1.5471,1.2765-1.5492,7.615-7.7162,18.6883-12.3135,27.861-14.9488,3.0658-.883,5.9131-1.5472,8.3444-2.0394-6.3364,2.9687-10.5898,7.6019-13.4307,12.077ZM481.6362,180.3518c.0468-.9433.0799-1.9028.0777-2.9015.0033-1.3956-.0474-2.8457-.1478-4.3516-.005-.0634-.4491-6.5843-5.1689-14.1047-.5326-.8505-1.1278-1.7124-1.7755-2.5784.7018-.7842,1.1416-1.8106,1.1416-2.9532-.0051-2.4774-1.9921-4.4563-4.4371-4.4612-1.0446.0021-1.9958.3759-2.7597.9777-3.8561-3.2961-8.8527-6.3469-15.2997-8.6805.022-.1346.043-.2696.043-.4091-.0027-1.4435-1.1785-2.5933-2.6122-2.5948-1.0212.0015-1.8933.5936-2.3154,1.4496-.8856-.2421-1.7842-.4763-2.7162-.6919-.0298-.0049-17.0139-3.9298-41.8094-4.3135,2.2719-1.3294,3.8113-3.7761,3.8164-6.6097-.0017-3.2426-2.0185-6.0089-4.8636-7.1272l.0027-6.3816h3.0656v-5.6187h-3.0683v-3.3513h-5.6177v3.3513h-3.0668v5.6187h3.0652l.0016,6.3816c-2.8436,1.1183-4.8619,3.8846-4.8631,7.1272.005,2.8336,1.545,5.2803,3.8169,6.6097-24.7965.3837-41.7807,4.3087-41.8093,4.3135-.9331.2156-1.8316.4498-2.7158.6919-.4233-.8559-1.2946-1.448-2.3154-1.4496-1.4337.0015-2.611,1.1513-2.6126,2.5948,0,.1394.0198.2745.0418.4091-6.4448,2.3336-11.4419,5.3844-15.2985,8.6805-.7651-.6018-1.7163-.9755-2.7609-.9777-2.444.0049-4.432,1.9837-4.437,4.4612,0,1.1426.441,2.169,1.1425,2.9532-.6475.866-1.2438,1.728-1.7759,2.5784-4.718,7.5204-5.1635,14.0413-5.1695,14.1047-.0998,1.5059-.1511,2.9561-.1478,4.3516,0,.9987.0321,1.9582.0795,2.9015-1.9738,1.0306-3.3431,3.0734-3.3431,5.4648.0018,3.0987,2.3244,5.6386,5.3113,6.0648,1.0986,3.5016,2.5542,6.4107,4.1444,8.8255-.0529.2629-.1015.5324-.1208.8312l-.0225.2596.1709.2001c.0081.0094,1.9935,2.2776,4.4467,4.5632.3562.323.7188.6466,1.0842.9662-.0583.2651-.0958.5375-.0958.8196,0,2.0896,1.6893,3.8005,3.7855,3.8026.9475-.0021,1.8062-.3687,2.4704-.9512.1009.012.2073.0412.307.0451.0171,0,.0331-.0066.0514-.0082l4.2231,5.7157c-.2349.5269-.3451,1.0262-.3451,1.4904.0628,1.857,1.561,2.6781,2.2114,2.9614l1.5659,4.2949c-2.4164.9915-4.1378,2.7003-4.1946,4.6789,0,.225.0294.4521.0817.6741.5192,2.046,2.8177,3.0409,5.427,3.0485.5044,0,1.0274-.0517,1.5571-.1289l.7611,3.5226c-.323.3286-.8229.9475-.953,1.7941-.0208.152-.0303.3031-.0303.4482-.0235,1.1072.6769,1.821,1.2855,2.0736.6084.2782,1.1431.2716,1.1915.2734h.0766l.0712-.0177c17.7614-4.4332,35.2662-5.8349,50.5152-5.8349s32.7558,1.4017,50.5154,5.8349l.0716.0177h.0771c.0487-.0018.5822.0049,1.1906-.2734.6096-.2526,1.309-.9664,1.2865-2.0736,0-.1451-.0105-.2962-.0304-.4482-.131-.8466-.6305-1.4655-.9523-1.7941l.7595-3.5226c.5308.0772,1.0551.1289,1.5571.1289,2.6093-.0076,4.9078-1.0025,5.4282-3.0485.0535-.222.0803-.4491.0803-.6741-.0545-1.9787-1.778-3.6875-4.1934-4.6789l1.5667-4.2949c.6492-.2833,2.1472-1.1044,2.2096-2.9614,0-.4642-.1103-.9634-.3439-1.4904l4.222-5.7157c.0192.0015.0342.0082.0523.0082.0988-.0039.2051-.0331.3061-.0451.6663.5825,1.5235.9491,2.4708.9512,2.0973-.0021,3.7867-1.713,3.7867-3.8026-.0016-.2821-.0379-.5545-.0968-.8196.3654-.3196.7286-.6431,1.0834-.9662,2.4551-2.2857,4.4403-4.5539,4.4469-4.5632l.1731-.2001-.0231-.2596c-.0198-.2988-.0671-.5684-.1212-.8312,1.589-2.4148,3.0447-5.3239,4.1432-8.8255,2.9869-.4262,5.309-2.966,5.3117-6.0648,0-2.3914-1.3697-4.4342-3.3417-5.4648Z"/>
  <path d="M341.0516,209.785c1.573-.6125,3.1058-1.2491,3.8169-1.9176v-.0021l.0012.0021.0006-.0021-.0006-.0006c.0545-.1027,1.6007-1.4839,1.6707-3.1247.0181-.5909-.3127-1.2522-.9531-1.6073-.6333-.3686-1.5014-.5373-2.7503-.5424-.5452.0012-1.1669.0358-1.8734.1119.034-.3501.0643-.7876.0655-1.2643-.0027-.8908-.097-1.9182-.5098-2.809-.3891-.8895-1.2722-1.6595-2.5184-1.6364-.856.0056-1.847.3126-3.0513.9766-1.631-5.8605-2.2692-11.0947-2.2692-15.6998,0-2.703.2365-5.1645.604-7.4339,3.9476-9.277,13.1942-15.2742,23.6888-19.1503-.0393.2337-.0733.468-.0733.7122.0016,1.8921,1.2038,3.5072,2.8833,4.1499-.9448,2.7108-1.2606,4.5368-1.2645,4.5501-.3506,2.0278-.5059,4.0644-.5059,6.0866,0,.2101.0171.4179.021.6256-2.8012.5793-4.9105,3.0686-4.9105,6.035.0043,3.4217,2.7598,6.1799,6.154,6.1799.1905-.0024.3713-.0402.5567-.0574.3549,1.3114.7467,2.5675,1.1568,3.7828-.071.0856-.1554.1538-.2193.2486-.2806.3969-.393.8653-.3909,1.313.0381,1.1927.7029,2.4467,1.3996,3.4504-.3098-.0646-.6041-.0932-.8826-.0932-2.1264.0166-2.9845,1.6551-3.0149,1.7218-.4426.8583-.6372,1.6316-.6354,2.3287.0457,1.8437,1.2798,2.8099,2.1583,3.2707-.8246.9971-1.19,1.8789-1.1945,2.6976.1424,2.5332,3.0845,2.9779,3.0845,3.0266.1676.0351.3373.0507.5087.0507.925-.0326,2.0218-.4728,3.1269-1.0926-.2155.3639-.4299.7327-.6415,1.0992-.849,1.4839-1.5869,2.8739-1.8933,3.4546-1.653.2061-9.4164,1.126-15.4751,1.126-.6802,0-1.3399-.0132-1.9627-.0363-1.4826-.0595-2.8045-.2738-3.8461-.497-.021-.0128-.0414-.0221-.0606-.0336" style="fill: #e1331e;"/>
  <path d="M427.8773,156.6955c.9893,2.0554,1.4126,5.7935,1.406,10.1903.0015,5.3983-.5993,11.7987-1.3339,17.6015-.1141-.0183-.2288-.0514-.3445-.0557-.1841,0-.377.0198-.5633.071-1.6254.356-2.611,1.4866-2.5377,3.0568.0039.9416.2328,2.0665.5981,3.5151-.782-.3816-1.8227-.769-2.8634-.7822-.3588,0-.7292.0474-1.0881.1813-.8933.3401-2.5018,1.3063-2.5447,3.1947.0012.9855.4855,2.0559,1.6045,3.2161-.7563.7871-2.2102,2.4786-2.2681,4.2397-.0177,1.5449,1.3751,2.7345,4.2252,2.9009l.1556.0109.1406-.0611c.0061-.0038.2193-.0993.5633-.252l-2.1931,2.5377-15.3654-.0463c-.0138-.5623-.0304-1.4733-.0304-2.503-.0015-.9829.0183-2.0819.0706-3.07.5219.276.8686.4507.8725.4524l.1775.0892.1956-.033c3.3105-.4822,4.7204-1.9198,4.7071-3.5679-.0408-1.5301-1.0516-2.8761-1.7004-3.6004,1.2573-.9401,1.7728-2.1114,1.7617-3.1714-.0231-1.3801-.7264-2.4588-1.4303-2.9676-.5573-.381-1.2153-.4823-1.8702-.4845-.1704,0-.3428.0154-.5138.0301.7111-5.5541,1.0016-10.9233,1.0016-15.9538-.0017-8.7704-.8649-16.5131-1.8359-22.4625,4.5356.2415,10.7326.7679,17.4597,1.9033,2.3254,3.2554,3.5424,5.8112,3.5436,5.8199" style="fill: #e1331e;"/>
  <path d="M392.2938,187.3886c-.1718-.0147-.3449-.0301-.5131-.0301-.6559.0021-1.3129.1035-1.8718.4845-.7039.5088-1.406,1.5875-1.4291,2.9676-.0105,1.0599.5032,2.2313,1.7614,3.1714-.6475.7243-1.659,2.0702-1.7008,3.6004-.0122,1.6481,1.3961,3.0857,4.7075,3.5679l.1958.033.178-.0892c.0021-.0017.3494-.1764.8721-.4524.0529.9881.0722,2.0871.071,3.07,0,1.0297-.0181,1.9407-.0325,2.503l-15.3637.0463-2.192-2.5377c.3433.1526.5549.2482.5609.252l.1424.0611.1538-.0109c2.8512-.1664,4.243-1.356,4.2258-2.9009-.0585-1.7611-1.5114-3.4526-2.2681-4.2397,1.1184-1.1602,1.6028-2.2306,1.6045-3.2161-.0424-1.8884-1.6497-2.8546-2.5432-3.1947-.3589-.134-.7292-.1813-1.0891-.1813-1.0418.0132-2.0813.4007-2.8634.7822.3654-1.4486.593-2.5735.5979-3.5151.0722-1.5703-.9115-2.7008-2.5371-3.0568-.1878-.0512-.3797-.071-.5649-.071-.1159.0043-.2288.0374-.3445.0557-.7342-5.8028-1.3348-12.2032-1.3339-17.6015-.0066-4.3968.4167-8.1349,1.4072-10.1903.0018-.0088,1.2182-2.5645,3.542-5.8209,6.7288-1.1356,12.9258-1.6608,17.4602-1.9023-.9701,5.9494-1.8342,13.6921-1.8354,22.4625,0,5.0305.2899,10.3997,1.002,15.9538" style="fill: #e1331e;"/>
  <path d="M455.0443,210.3156c-.6244.0231-1.2837.0363-1.9643.0363-6.0564,0-13.8221-.9199-15.4739-1.126-.3058-.5807-1.0446-1.9708-1.8921-3.4546-.2118-.3665-.4272-.7353-.6438-1.0992,1.1062.6197,2.2036,1.0599,3.1273,1.0926.173,0,.343-.0155.5094-.0507,0-.0487,2.941-.4934,3.0833-3.0266-.0039-.8187-.3698-1.7004-1.1923-2.6976.8781-.4608,2.1117-1.427,2.1568-3.2707.0027-.6971-.1923-1.4704-.636-2.3287-.0292-.0667-.8875-1.7052-3.0149-1.7218-.2767,0-.5711.0286-.8802.0932.6955-1.0037,1.3592-2.2576,1.3971-3.4504.0023-.4477-.1079-.9161-.3901-1.313-.0645-.0948-.1472-.1631-.2195-.2486.4095-1.2153.8036-2.4714,1.1564-3.7828.1875.0172.3665.0551.5573.0574,3.3948,0,6.1492-2.7582,6.1546-6.1799,0-2.9664-2.1094-5.4557-4.9105-6.035.0039-.2077.022-.4155.022-.6256,0-2.0222-.157-4.0588-.5081-6.0866-.0027-.0133-.3197-1.8393-1.2645-4.5501,1.6794-.6427,2.8823-2.2578,2.8844-4.1499,0-.2442-.0352-.4785-.0721-.711,10.5015,3.8802,19.756,9.891,23.6969,19.2058.3615,2.2538.5935,4.6966.5935,7.3771,0,4.6051-.6381,9.8393-2.2692,15.6998-1.2044-.664-2.1943-.971-3.0508-.9766-1.2468-.0231-2.1298.7469-2.5177,1.6364-.414.8908-.5071,1.9182-.5089,2.809.0006.4767.0294.9142.0646,1.2643-.7077-.0761-1.3282-.1107-1.8746-.1119-1.2483.0051-2.1169.1737-2.7493.5424-.6409.3551-.9707,1.0164-.9541,1.6073.07,1.6409,1.6166,3.0221,1.6707,3.1247v.0006l.0023.0021v-.0021s0,.0021.001.0021c.7089.6685,2.2406,1.3045,3.8137,1.9176-.021.0115-.0408.0231-.0617.0341-1.0434.2231-2.3625.4371-3.8424.4966" style="fill: #e1331e;"/>
  <path d="M417.8826,139.6112c8.7879,2.5768,14.2244,8.2886,17.5579,13.7089-.7663.8004-1.2419,1.8812-1.2419,3.0772,0,2.4417,1.9843,4.4508,4.4425,4.453.1252,0,.2436-.0265.3661-.0375.9467,2.6804,1.26,4.4893,1.261,4.4959.3389,1.9485.49,3.9163.4872,5.8751,0,.1671-.0153.3335-.0183.4994-.0049,0-.0081-.0012-.0126-.0012-3.4243,0-6.1841,2.7702-6.1841,6.1623.0037,2.7961,1.8579,5.1149,4.3995,5.8849-.2983,1.093-.6125,2.1601-.9503,3.1887-.4834-.2343-1.0286-.3467-1.5991-.3352-1.137.0018-2.4335.3616-4.0258.916-.5484-.6162-1.7891-1.9537-3.22-2.6411.752-5.8923,1.372-12.4309,1.3724-17.9719-.0066-4.481-.3852-8.2964-1.5256-10.7194-.0342-.0177-4.4773-9.4925-12.8067-15.395.7099-.1373,1.3189-.5666,1.6977-1.1602" style="fill: #d09a3f;"/>
  <path d="M397.7208,135.9523c-.1995.3628-.3203.7733-.3207,1.2188.0043,1.4319,1.1618,2.6025,2.5943,2.608.0024,0,.0051-.0009.0051-.0009.0039,0,.0054.0009.0066.0009,1.4346-.0055,2.591-1.1761,2.5961-2.608,0-.4455-.1213-.856-.3219-1.2188,4.0968.0381,7.9888.1736,11.637.3761-.5059.4761-.8229,1.1486-.8245,1.8909.0006.2415.0441.4714.1052.694-2.8319-1.5142-6.0248-2.5498-9.5684-2.728l-.8709-.0379.2557.8355c0,.0116,1.1091,3.629,2.2252,9.7643,1.1183,6.1336,2.235,14.7579,2.235,24.6875,0,5.0905-.2933,10.527-1.0308,16.1478-.3311.0724-.6514.1527-.938.2382.7546-1.6083,1.0846-2.8452,1.0885-3.8527.0155-1.0589-.4272-1.8961-1.1095-2.3493-.6736-.4536-1.4739-.5732-2.2443-.5748-1.3731.0027-2.7284.4035-3.24.5693-.5098-.1658-1.8651-.5666-3.2386-.5693-.7716.0015-1.5713.1212-2.2433.5748-.6841.4531-1.126,1.2904-1.1101,2.3493.0039,1.0075.3323,2.2444,1.0891,3.8527-.2876-.0854-.609-.1658-.938-.2382-.7381-5.6208-1.0329-11.0573-1.0329-16.1478,0-9.9296,1.1182-18.5539,2.2349-24.6875,1.1173-6.1353,2.2274-9.7526,2.2274-9.7643l.2551-.8355-.8725.0379c-3.5424.1781-6.7354,1.2137-9.5675,2.728.0618-.2226.1054-.4525.1054-.694-.0017-.7423-.3181-1.4148-.8256-1.8909,3.6493-.2025,7.5411-.338,11.637-.3761" style="fill: #d09a3f;"/>
  <path d="M383.8163,140.7714c-8.3285,5.9025-12.7721,15.3773-12.8067,15.395-1.1393,2.423-1.5174,6.2384-1.5258,10.7194.0006,5.541.623,12.0796,1.3726,17.9719-1.4297.6874-2.6717,2.0249-3.2185,2.6411-1.5923-.5544-2.8892-.9142-4.0257-.916-.5721-.0115-1.1155.1009-1.6007.3352-.3368-1.0286-.6526-2.0956-.9485-3.1887,2.5408-.77,4.3941-3.0888,4.3989-5.8849,0-3.3921-2.7592-6.1623-6.1847-6.1623-.0051,0-.009.0012-.0117.0012-.0027-.1659-.0177-.3323-.0177-.4994-.0033-1.9588.1478-3.9266.4851-5.8751.001-.0066.3152-1.8156,1.261-4.4959.1231.011.2409.0375.3661.0375,2.4603-.0021,4.4446-2.0113,4.4446-4.453,0-1.1961-.4777-2.2769-1.2441-3.0772,3.3335-5.4203,8.7698-11.1322,17.5591-13.7089.3786.5936.9866,1.0229,1.6965,1.1602" style="fill: #d09a3f;"/>
  <path d="M333.3003,199.011c-.8266-.4492-2.9449-1.4982-4.9986-1.5147-1.2522-.0508-2.5254.5044-3.2795,1.7725-1.275-2.0618-2.4274-4.5064-3.3551-7.3456,3.1776-.2441,5.6976-2.8715,5.6976-6.1065,0-3.4255-2.763-6.1864-6.1627-6.1864-.5573,0-1.0891.0986-1.6045.2391-.034-.7969-.077-1.5841-.0776-2.419,0-1.3675.0478-2.7894.1476-4.2667,0-.0061.0998-1.5346.7751-4.0177.8334-3.0314,2.5008-7.4206,5.8713-11.9523.685.4344,1.4926.6923,2.3611.6923,2.4545-.0049,4.4668-1.9738,4.4689-4.4436,0-.9795-.323-1.873-.8536-2.6038,3.7473-3.1924,8.6154-6.1516,14.9215-8.4265.4756.6429,1.2324,1.0661,2.0934,1.0672,1.4204-.0017,2.5515-1.146,2.5861-2.5504.8842-.2431,1.787-.4771,2.7201-.6943.0138-.0024,4.6458-1.0755,12.6534-2.153,4.172-.5638,9.2583-1.1251,15.0572-1.5351-.3455.4151-.5649.9326-.6003,1.5049-8.2011,1.2714-29.1002,5.5973-41.5623,18.1778-.0667.0634-8.7104,8.8509-8.7104,26.0203,0,4.8068.6796,10.2663,2.4086,16.3646-.1824.1207-.3654.2419-.5573.377" style="fill: #d09a3f;"/>
  <path d="M451.3349,240.6924c-.2377.112-.485.145-.603.1555-17.8578-4.4481-35.43-5.8503-50.7314-5.8526-15.3013.0023-32.8734,1.4045-50.73,5.8526-.1169-.0105-.3667-.0436-.6026-.1555-.3212-.1797-.5522-.3323-.576-.9573,0-.0832.0084-.1793.021-.2866.0331-.2866.2199-.6257.4249-.8766.1141-.146.2111-.244.2823-.3113.916-.2211,6.3964-1.5075,14.8665-2.8017,9.2917-1.4226,22.1309-2.8446,36.3139-2.8418,14.1832-.0027,27.024,1.4193,36.3141,2.8418,8.47,1.2942,13.9504,2.5806,14.8688,2.8017.07.0673.1659.1653.2816.3113.2051.2508.3902.59.4245.8766.0132.1073.0198.2034.0198.2866-.0225.625-.2524.7776-.5744.9573" style="fill: #d09a3f;"/>
  <path d="M454.6239,225.2923c-.1958-.0562-.3848-.1223-.5861-.1703h.0012l-4.8697-1.1161c-.8412-.1939-1.6674-.2905-2.4533-.2905-2.596.0045-4.879,1.0109-5.4225,3.0635-.0552.2298-.0805.4626-.0805.6934.0673,2.4131,2.6263,4.4322,5.945,5.2232l4.5485,1.0476-.6924,3.2089c-3.8368-.8911-25.1905-5.5701-51.0136-5.5718-25.8229.0018-47.1756,4.6807-51.0124,5.5718l-.6923-3.2089,4.5473-1.0476c3.3186-.791,5.8777-2.8102,5.9461-5.2232,0-.2308-.0249-.4636-.0811-.6934-.5429-2.0526-2.8271-3.059-5.4231-3.0635-.7848,0-1.6121.0967-2.4522.2905l-4.8697,1.1161c-.2013.048-.3903.1141-.586.1703l-1.4307-3.926c1.805-.4471,7.2833-1.7318,15.4578-3.026,10.1037-1.5996,24.2895-3.2002,40.5962-3.2002s30.4932,1.6006,40.5979,3.2002c8.1741,1.2942,13.6521,2.5789,15.4562,3.026l-1.4307,3.926Z" style="fill: #d09a3f;"/>
  <path d="M457.534,219.8776c-.2794.2166-.545.3455-.7054.4134-2.2742-.5831-25.678-6.3844-56.828-6.3859-31.1495.0015-54.5536,5.8028-56.8257,6.3859-.1613-.0679-.4281-.1968-.7077-.4134-.4354-.3427-.7969-.7871-.7969-1.4364,0-.2718.0908-.6192.2683-1.0176,1.4084-.2845,7.5192-1.4793,16.7405-2.6777,10.5541-1.373,25.1543-2.7448,41.3215-2.7448s30.7676,1.3718,41.3234,2.7448c9.2211,1.1983,15.3304,2.3932,16.7388,2.6777.1785.3984.2683.7458.2683,1.0176,0,.6493-.3594,1.0936-.7971,1.4364" style="fill: #d09a3f;"/>
  <path d="M458.2412,216.2022c-3.3108-.6673-28.0247-5.4335-58.2407-5.4352-30.2163.0017-54.9291,4.7678-58.2405,5.4352l-3.8986-5.2732c.2927-.0974.6736-.2275,1.1024-.377.9856.2994,3.2272.8842,5.9457.9962.6415.0231,1.3168.0363,2.0117.0363,6.9366,0,15.9393-1.1734,15.9535-1.1761l.3197-.042.1495-.2849c.0015-.005.917-1.7743,2.0165-3.6973.6736-1.195,1.4574-2.4748,2.0859-3.3693,1.3309-.9938,2.4609-1.992,3.0181-2.486.8737.5375,2.3995,1.2898,3.8131,1.9563l4.3297,5.0107,17.1179-.0529.0225-.5913c0-.0051.0495-1.4084.0495-3.1401-.0009-1.2028-.0225-2.5431-.1085-3.715.4134-.227.8538-.4767,1.2991-.7375.8433-.4976,1.689-1.0339,2.3493-1.5394.2407-.2077.4668-.3813.6625-.561l.0009.0009.0006-.0009c.1958.1797.4239.3533.666.561.6591.5055,1.5031,1.0418,2.3473,1.5394.4443.2607.8859.5104,1.2981.7375-.0838,1.172-.1057,2.5122-.1063,3.715,0,1.7318.0474,3.135.0474,3.1401l.0226.5913,17.1203.0529,4.3295-5.0107c1.4126-.6665,2.9395-1.4188,3.8119-1.9563.5561.4939,1.686,1.4922,3.0183,2.486.6273.8945,1.4115,2.1743,2.0856,3.3693,1.0996,1.9231,2.0152,3.6924,2.018,3.6973l.1476.2849.3193.042c.0165.0027,9.0178,1.1761,15.9534,1.1761.6961,0,1.3706-.0132,2.0117-.0363,2.7189-.112,4.9601-.6968,5.9461-.9962.4293.1495.8093.2796,1.1019.377l-3.8986,5.2732Z" style="fill: #d09a3f;"/>
  <path d="M480.4048,179.8694c-.5153-.1405-1.0461-.2391-1.6056-.2391-3.3991,0-6.1612,2.761-6.1612,6.1864,0,3.2351,2.5185,5.8624,5.697,6.1065-.9277,2.8392-2.0802,5.2837-3.3545,7.3456-.7544-1.2681-2.0288-1.8233-3.2795-1.7725-2.0553.0165-4.1712,1.0655-4.9998,1.5147-.1911-.1352-.3737-.2563-.5573-.377,1.7292-6.0984,2.4094-11.5579,2.4094-16.3646,0-17.1694-8.6443-25.9569-8.7115-26.0203-12.4622-12.5805-33.3592-16.9064-41.5624-18.1778-.0354-.5723-.2524-1.0897-.5981-1.5049,5.7992.41,10.8843.9713,15.0561,1.5351,8.0076,1.0775,12.6399,2.1506,12.6526,2.153.9347.2172,1.8359.4512,2.7216.6943.0331,1.4045,1.1641,2.5488,2.5861,2.5504.8604-.0011,1.6184-.4243,2.0935-1.0672,6.3056,2.2749,11.1726,5.2341,14.9205,8.4265-.5312.7308-.8544,1.6244-.8544,2.6038.0039,2.4698,2.0168,4.4387,4.4691,4.4436.8697,0,1.6755-.2579,2.3611-.6923,3.3705,4.5318,5.0396,8.9209,5.8713,11.9523.6763,2.483.7751,4.0116.7751,4.0177.1001,1.4772.1476,2.8991.1476,4.2667,0,.8349-.0424,1.6221-.0766,2.419" style="fill: #d09a3f;"/>
  <path d="M395.5475,150.378h.0029c0,2.4771,2.0139,4.448,4.4678,4.4507,2.4407-.0027,4.431-1.9776,4.4355-4.4507,0-2.4611-1.9909-4.452-4.4355-4.452-2.4587,0-4.4678,1.9892-4.4707,4.452"/>
  <path d="M400.0011,160.7678c-3.4024,0-6.1682,2.7598-6.1709,6.1709.0076,3.4252,2.7703,6.1629,6.1709,6.1696,3.4317-.0066,6.1645-2.7495,6.1699-6.1696-.0055-3.4052-2.7349-6.1642-6.1699-6.1709"/>
  <path d="M398.4264,120.5579v-7.1681h-3.0718v-3.1539h3.0718v-3.3534h3.1495v3.3534h3.0695v3.1512l-3.0695.0027v7.1681h-.4747c-.3648-.0528-.7363-.0898-1.1149-.091-.3821,0-.7529.0382-1.1194.091h-.4404Z" style="fill: #d09a3f;"/>
  <path d="M393.565,128.1288c0,3.5691,2.876,6.4418,6.4213,6.4472,3.5776,0,6.4515-2.8781,6.4515-6.4472,0-3.5472-2.8739-6.4278-6.4515-6.4278-3.5453.0076-6.4163,2.8806-6.4213,6.4278" style="fill: #d09a3f;"/>
  <path d="M396.7828,150.378c.0039,1.7912,1.4517,3.2188,3.2354,3.2188,1.7611,0,3.2023-1.4249,3.2023-3.2188-.0033-1.7776-1.4463-3.2179-3.2023-3.2194-1.7792.0015-3.2315,1.4467-3.2354,3.2194" style="fill: #5da2d3;"/>
  <path d="M395.0664,166.9386c0,2.7433,2.213,4.9366,4.9346,4.9366,2.7588-.003,4.9336-2.1883,4.937-4.9366-.0033-2.7333-2.1809-4.9358-4.937-4.9385-2.7201.0045-4.9331,2.2103-4.9346,4.9385" style="fill: #5da2d3;"/>
  <path d="M398.6332,137.1712c.0021.7435.6316,1.3723,1.3613,1.3744.7646-.0021,1.3726-.6233,1.3753-1.3744-.0027-.7497-.6002-1.3595-1.3753-1.3627-.7373.0032-1.3591.6196-1.3613,1.3627" style="fill: #5da2d3;"/>
  <path d="M344.6769,206.1802c-.3407.4755-.6802.8096-.6802.8118-.3292.3737-2.2225,1.2293-3.8914,1.8361-1.2215.4574-2.3608.841-2.9064,1.0206.2007-.4612.3131-.9683.3152-1.5019-.006-2.0822-1.7131-3.7662-3.7866-3.7683-1.3471,0-2.5204.7054-3.1918,1.7581-.2508-.2237-.5005-.4497-.7409-.6784-1.9678-1.829-3.634-3.6604-4.1751-4.2639.3273-2.2286,1.3012-2.5913,2.682-2.6634,1.0395-.0116,2.2196.3776,3.1428.7662.915.3881,1.5736.7749,1.5787.7715l.3533.2123.3311-.2425c2.0577-1.5153,3.473-2.0224,4.2932-2.013.7696.0215,1.0926.3259,1.4029.9288.2882.603.394,1.4911.3918,2.2836,0,1.0212-.1565,1.859-.155,1.8608l-.1536.837.846-.1156c1.0037-.1355,1.8332-.1963,2.504-.1963,1.1304-.0021,1.8095.1781,2.1235.3711.3065.201.3298.3047.3467.545.015.3506-.2822.9685-.6304,1.4403" style="fill: #d09a3f;"/>
  <path d="M333.7275,210.9149c1.3885-.003,2.5476-1.1594,2.5515-2.5681-.0039-1.3874-1.1575-2.5344-2.5515-2.5359-1.4105.0015-2.5481,1.1443-2.5507,2.5359h-.0024c.005,1.4117,1.147,2.5651,2.5531,2.5681" style="fill: #d09a3f;"/>
  <path d="M361.6146,189.3113c.0023-.2596.0552-.4455.167-.6048.4741-.6504.9475-.8736,1.8305-.8913.9331-.0049,2.2682.3578,3.9945.9829l.4045.1472.2761-.3324c.0039-.0033.6333-.7601,1.4966-1.519.8515-.7662,1.9715-1.4607,2.6126-1.4299.0914,0,.1704.01.2413.0292,1.367.4431,1.5532.6889,1.6271,1.8662.005.9575-.3494,2.4689-.9265,4.6174l-.4254,1.5979c-.6682-.5953-1.5373-.9674-2.4957-.9685-2.0119.0024-3.6268,1.5557-3.7668,3.5227l-2.3602-2.4372c-.0029,0-.6835-.7066-1.367-1.6614-.6901-.9469-1.3294-2.1654-1.3086-2.9189" style="fill: #d09a3f;"/>
  <path d="M361.8041,204.532c-.0959,0-.1779-.0102-.2512-.0247.0039.0017-.5612-.1246-1.1178-.4464-.5705-.3368-.9948-.769-.9882-1.3736-.0066-.5083.3009-1.3378,1.4385-2.4963l.7264-.7453-.9998-.2821c-.0015,0-.5468-.1554-1.0936-.5583-.5567-.413-1.0362-.9796-1.0389-1.8863,0-.4624.1274-1.0428.4993-1.7642,0-.0018.119-.2397.4332-.5116.3157-.2717.7744-.5384,1.4853-.5384.6251,0,1.4822.2116,2.6161.9365l3.135,2.0078c.1069,1.5114,1.0749,2.7598,2.4269,3.2696-.582.4995-1.3916,1.1697-2.2917,1.8398-1.749,1.3356-3.9443,2.6133-4.9796,2.5735" style="fill: #d09a3f;"/>
  <path d="M377.89,202.7793c-.4218-.1879-1.6872-.7529-3.0553-1.3977-.971-.4536-2.0041-.9607-2.8048-1.3864,1.2687-.6044,2.161-1.8855,2.161-3.4056-.0009-1.121-.4976-2.1148-1.2687-2.8061l1.3624-.9397c.0033,0,.4791-.3296,1.1758-.667.6911-.338,1.5896-.6582,2.3034-.652.2473,0,.4678.0358.6586.1053.6708.2382,1.7815,1.0253,1.7412,2.0383.0033.6211-.3523,1.54-1.6602,2.7514l-.4873.451.4844.4542c.0029,0,.5948.5561,1.1923,1.3388.6046.7738,1.1513,1.7847,1.1338,2.4605-.0171.6713-.3638,1.373-2.9367,1.6551" style="fill: #d09a3f;"/>
  <path d="M367.8545,196.5896c.0027,1.4303,1.1332,2.5488,2.5626,2.553,1.3916,0,2.5398-1.1288,2.5435-2.553-.0037-1.4077-1.1568-2.5498-2.5435-2.5526-1.4243,0-2.5626,1.1411-2.5626,2.5526" style="fill: #d09a3f;"/>
  <path d="M455.3282,206.1802c.3413.4755.678.8096.678.8118.3302.3737,2.2229,1.2293,3.893,1.8361,1.2198.4574,2.3608.841,2.9069,1.0206-.2-.4612-.313-.9683-.3142-1.5019.0045-2.0822,1.7098-3.7662,3.7845-3.7683,1.3471,0,2.5206.7054,3.1909,1.7581.253-.2237.5015-.4497.7424-.6784,1.9672-1.829,3.634-3.6604,4.1745-4.2639-.3284-2.2286-1.3012-2.5913-2.6808-2.6634-1.0395-.0116-2.2196.3776-3.1434.7662-.9166.3881-1.5736.7749-1.5802.7715l-.3524.2123-.3302-.2425c-2.0597-1.5153-3.4739-2.0224-4.2935-2.013-.77.0215-1.0926.3259-1.4033.9288-.2866.603-.3931,1.4911-.3908,2.2836,0,1.0212.1565,1.859.1544,1.8608l.1532.837-.8451-.1156c-1.0049-.1355-1.8344-.1963-2.5056-.1963-1.1299-.0021-1.808.1781-2.1237.3711-.3049.201-.328.3047-.3455.545-.0144.3506.2827.9685.631,1.4403" style="fill: #d09a3f;"/>
  <path d="M466.2764,210.9149c-1.3891-.003-2.5476-1.1594-2.5503-2.5681.0027-1.3874,1.1564-2.5344,2.5503-2.5359,1.4115.0015,2.5492,1.1443,2.5519,2.5359h.0018c-.0045,1.4117-1.1464,2.5651-2.5537,2.5681" style="fill: #d09a3f;"/>
  <path d="M438.3905,189.3113c-.0024-.2596-.0564-.4455-.167-.6048-.4741-.6504-.9469-.8736-1.8299-.8913-.9355-.0049-2.2694.3578-3.9962.9829l-.4056.1472-.275-.3324c-.0029-.0033-.6323-.7601-1.4964-1.519-.8505-.7662-1.9722-1.4607-2.6127-1.4299-.0904,0-.1692.01-.2403.0292-1.3668.4431-1.5548.6889-1.6281,1.8662-.005.9575.3494,2.4689.9277,4.6174l.4248,1.5979c.6682-.5953,1.5373-.9674,2.4954-.9685,2.0123.0024,3.6267,1.5557,3.7683,3.5227l2.3586-2.4372c.0021,0,.6844-.7066,1.3667-1.6614.6918-.9469,1.3296-2.1654,1.3098-2.9189" style="fill: #d09a3f;"/>
  <path d="M438.2003,204.532c.0958,0,.177-.0102.2507-.0247-.0027.0017.5623-.1246,1.1184-.4464.5711-.3368.996-.769.9878-1.3736.0082-.5083-.3022-1.3378-1.4375-2.4963l-.7264-.7453.9998-.2821c.0027,0,.5468-.1554,1.0936-.5583.5567-.413,1.035-.9796,1.0377-1.8863,0-.4624-.1272-1.0428-.4993-1.7642,0-.0018-.1184-.2397-.4321-.5116-.3169-.2717-.775-.5384-1.4865-.5384-.6261,0-1.4805.2116-2.6159.9365l-3.1352,2.0078c-.1063,1.5114-1.0738,2.7598-2.4257,3.2696.5819.4995,1.3916,1.1697,2.2902,1.8398,1.75,1.3356,3.9447,2.6133,4.9805,2.5735" style="fill: #d09a3f;"/>
  <path d="M422.1151,202.7793c.4217-.1879,1.6851-.7529,3.0553-1.3977.9695-.4536,2.004-.9607,2.8043-1.3864-1.2682-.6044-2.1622-1.8855-2.1622-3.4056.0016-1.121.4988-2.1148,1.2699-2.8061l-1.3624-.9397c-.0027,0-.4791-.3296-1.1741-.667-.6922-.338-1.5907-.6582-2.3055-.652-.2475,0-.468.0358-.6576.1053-.6702.2382-1.7825,1.0253-1.7418,2.0383-.0027.6211.3517,1.54,1.6607,2.7514l.4861.451-.4834.4542c-.0027,0-.5952.5561-1.1921,1.3388-.6047.7738-1.1519,1.7847-1.135,2.4605.0183.6713.3649,1.373,2.9379,1.6551" style="fill: #d09a3f;"/>
  <path d="M432.1488,196.5896c-.0021,1.4303-1.1317,2.5488-2.5618,2.553-1.3919,0-2.5394-1.1288-2.5428-2.553.0033-1.4077,1.1564-2.5498,2.5428-2.5526,1.4253,0,2.5618,1.1411,2.5618,2.5526" style="fill: #d09a3f;"/>
  <path d="M410.2262,197.5822c-.0138.8207-.4993,1.7623-3.4748,2.3145-.4729-.2419-1.7924-.9265-3.1113-1.702-.8201-.4818-1.6376-1.0022-2.2274-1.4558-.1301-.0986-.2442-.1934-.3494-.2848,1.5857-.4564,2.7465-1.8856,2.7493-3.6004-.0045-2.1078-1.7022-3.8004-3.8092-3.8019-2.0862.0015-3.7581,1.6993-3.7635,3.8019,0,1.7038,1.1419,3.1341,2.7003,3.5965-.623.5281-1.793,1.3124-2.8866,1.9258-1.2115.7006-2.3668,1.2975-2.8017,1.5208-2.9797-.5522-3.4648-1.4938-3.4768-2.3145-.0105-.6697.4205-1.5217.9013-2.1728.4723-.6507.9413-1.0841.9397-1.0869l.6057-.5655-.716-.42c-1.4414-.8598-1.7803-1.7422-1.7924-2.5266-.0228-.8887.5847-1.7584.8962-1.9518.2343-.1653.6426-.2668,1.1513-.2668h.0198c.7844-.0066,1.716.2184,2.449.4442.7346.226,1.2721.4498,1.2748.4471l1.6475.7084-.8649-1.5721c-1.2192-2.2141-1.6524-3.7314-1.6458-4.6513.0408-1.4188.7922-1.6095,2.1204-1.6911.7083-.0051,1.4678.1394,2.0459.2821.5795.1424.9806.2866.9827.2839l.2091.0739.2127-.0739c0-.0049,1.6016-.5737,3.0244-.5678,1.3283.0817,2.079.274,2.1225,1.6928.0049.9199-.4299,2.4402-1.6454,4.654l-.8581,1.5694,1.6425-.7084c0-.0082,2.1501-.9046,3.7226-.8913.5161-.0015.9343.0987,1.1708.2668.3098.1898.9156,1.0631.8923,1.9518-.012.7871-.3467,1.6667-1.7885,2.5266l-.715.42.6047.5655c.0027,0,.468.4338.9398,1.0869.4795.6466.9112,1.5003.9013,2.1728" style="fill: #d09a3f;"/>
  <path d="M397.475,192.8537c.0027,1.3928,1.1317,2.5332,2.5284,2.535,1.4319,0,2.5723-1.1467,2.5739-2.535-.0015-1.4282-1.142-2.5674-2.5739-2.5674-1.3951,0-2.5256,1.1322-2.5284,2.5674" style="fill: #d09a3f;"/>
  <path d="M382.9399,138.2194c.0021.7541.6267,1.3675,1.3679,1.3675.7826-.0051,1.3627-.5976,1.3675-1.3675-.0021-.749-.5925-1.3675-1.3675-1.3675-.7363.0024-1.3658.6307-1.3679,1.3675" style="fill: #5da2d3;"/>
  <path d="M347.9266,140.8893c.0027.7529.6228,1.373,1.3784,1.3759.749-.0028,1.3582-.6163,1.3582-1.3759-.0033-.7595-.6014-1.3608-1.3582-1.3608-.7622,0-1.3757.6091-1.3784,1.3608" style="fill: #5da2d3;"/>
  <path d="M358.1334,156.3974c.0015,1.7567,1.4577,3.2144,3.2266,3.2194,1.7698-.005,3.2083-1.4612,3.2134-3.2194-.005-1.7776-1.4402-3.2155-3.2134-3.2188-1.7716.0033-3.2251,1.4463-3.2266,3.2188" style="fill: #5da2d3;"/>
  <path d="M325.4725,153.4623c.0027,1.7815,1.4412,3.2085,3.2023,3.21,1.7821,0,3.2322-1.4337,3.235-3.21-.0027-1.7963-1.4558-3.2267-3.235-3.2267-1.7611,0-3.2023,1.4261-3.2023,3.2267" style="fill: #5da2d3;"/>
  <path d="M354.3561,177.8445c0,2.7427,2.2091,4.9409,4.9211,4.9451,2.7475-.0015,4.9511-2.2025,4.9511-4.9451-.0045-2.7068-2.2064-4.9237-4.9511-4.9288-2.7086.0051-4.9162,2.2219-4.9211,4.9288" style="fill: #5da2d3;"/>
  <path d="M316.2572,185.8167c.0056,2.707,2.2279,4.915,4.9447,4.9199,2.7146-.0049,4.9226-2.2102,4.9286-4.9199-.006-2.7471-2.214-4.9474-4.9286-4.955-2.7135.0076-4.9391,2.2103-4.9447,4.955" style="fill: #5da2d3;"/>
  <path d="M341.2529,230.3765c0,.1312.0142.2623.0446.3941.2205,1.1377,1.8741,2.1012,4.2282,2.0934.6928,0,1.4325-.0805,2.1881-.2536l4.8543-1.1173c3.031-.6724,5.0559-2.6345,4.9889-4.0209,0-.1388-.0155-.2716-.0475-.4029-.2458-1.1685-1.8867-2.1237-4.2243-2.1187-.6862,0-1.4214.0805-2.1772.258l-4.8685,1.1167c-3.0117.6558-5.055,2.6412-4.9866,4.0511" style="fill: #d2dc00;"/>
  <path d="M417.064,138.2194c-.0027.7541-.6244,1.3675-1.3668,1.3675-.7838-.0051-1.3627-.5976-1.3687-1.3675.0027-.749.5924-1.3675,1.3687-1.3675.7363.0024,1.364.6307,1.3668,1.3675" style="fill: #5da2d3;"/>
  <path d="M452.0784,140.8893c-.0039.7529-.625,1.373-1.3784,1.3759-.7502-.0028-1.3588-.6163-1.3588-1.3759.0027-.7595.6008-1.3608,1.3588-1.3608.761,0,1.3745.6091,1.3784,1.3608" style="fill: #5da2d3;"/>
  <path d="M441.8716,156.3974c-.0039,1.7567-1.4577,3.2144-3.2278,3.2194-1.7686-.005-3.2071-1.4612-3.2122-3.2194.005-1.7776,1.4396-3.2155,3.2122-3.2188,1.7716.0033,3.2239,1.4463,3.2278,3.2188" style="fill: #5da2d3;"/>
  <path d="M474.5308,153.4623c-.0021,1.7815-1.4402,3.2085-3.2017,3.21-1.7809,0-3.2316-1.4337-3.235-3.21.0033-1.7963,1.4568-3.2267,3.235-3.2267,1.7615,0,3.2017,1.4261,3.2017,3.2267" style="fill: #5da2d3;"/>
  <path d="M445.6478,177.8445c0,2.7427-2.2085,4.9409-4.9199,4.9451-2.7475-.0015-4.9523-2.2025-4.9523-4.9451.0055-2.7068,2.2064-4.9237,4.9523-4.9288,2.7086.0051,4.915,2.2219,4.9199,4.9288" style="fill: #5da2d3;"/>
  <path d="M483.7467,185.8167c-.0045,2.707-2.2285,4.915-4.9453,4.9199-2.7135-.0049-4.9219-2.2102-4.927-4.9199.0051-2.7471,2.2136-4.9474,4.927-4.955,2.7147.0076,4.9409,2.2103,4.9453,4.955" style="fill: #5da2d3;"/>
  <path d="M458.7516,230.3765c0,.1312-.0148.2623-.0452.3941-.2193,1.1377-1.874,2.1012-4.2288,2.0934-.691,0-1.4319-.0805-2.1865-.2536l-4.8547-1.1173c-3.0304-.6724-5.0577-2.6345-4.9883-4.0209,0-.1388.0155-.2716.0475-.4029.2452-1.1685,1.8867-2.1237,4.2231-2.1187.6874,0,1.422.0805,2.1784.258l4.8685,1.1167c3.0106.6558,5.0538,2.6412,4.986,4.0511" style="fill: #d2dc00;"/>
  <path d="M408.0159,218.7366h-15.9964c-3.7382.021-6.9895,1.7758-7.0856,4.5352.0938,2.7751,3.3497,4.5329,7.0856,4.5527h15.9964c3.6914-.0198,6.9565-1.7755,7.0535-4.5527-.0987-2.7616-3.3621-4.5127-7.0535-4.5352"/>
  <path d="M412.2378,225.5261c-1.0488.6427-2.5585,1.0659-4.222,1.0644h-15.9964c-1.689.0015-3.2074-.4217-4.2562-1.0644-1.0616-.6504-1.6001-1.4634-1.5952-2.2542-.0049-.7784.5336-1.5914,1.5929-2.239,1.0511-.6399,2.5695-1.0642,4.2585-1.0642h15.9964c1.6635,0,3.1731.4243,4.222,1.0642,1.0617.6476,1.6028,1.4606,1.598,2.239.0049.7881-.539,1.6038-1.598,2.2542" style="fill: #d2dc00;"/>
  <path d="M333.3675,313.3641c-3.5006-1.5599-7.6045.016-9.1638,3.5148-1.259,2.8243-.4746,6.0422,1.7158,7.9989l-1.9528,4.383-4.7898-2.1358-1.5571,3.4989,4.7886,2.1342-11.0711,24.8477c-2.1941-1.7146-5.4594-5.1441-5.1071-10.1141l4.4926.2469-6.2026-11.1963-7.9887,10.5685,4.3886.2485c-.064,2.8459.1136,14.6246,8.9799,18.6747,8.9423,3.8852,17.817-3.8633,19.8894-5.8122l3.1191,3.0971,2.5151-13.0068-12.4723,2.8754,3.1876,3.1747c-3.4597,3.5865-8.1945,3.451-10.935,2.9676l11.0705-24.8483,4.7921,2.134,1.5571-3.4977-4.7899-2.1354,1.953-4.3812c2.9196.3197,5.837-1.2492,7.0965-4.0744,1.5575-3.4994-.0166-7.6042-3.5156-9.1628"/>
  <path d="M325.4019,353.8887l2.4335,2.4252-.3786.435c-4.3165,4.9286-10.4868,4.2601-13.266,3.6377l-.7346-.1647,12.1954-27.3706,4.7904,2.1336.5533-1.2413-4.7903-2.1342,2.3448-5.2642c-.2794-.085-.5567-.1797-.8301-.3022-.2734-.1223-.532-.2641-.7822-.4162l-2.0928,4.6978-.2524.5672-4.7925-2.1364-.5528,1.2417,4.7907,2.1336-12.1954,27.3722-.6135-.4371c-2.3205-1.6496-6.9444-5.7896-6.1666-12.2957l.0694-.5726,3.4312.188-4.2024-7.5849-5.4522,7.2106,3.3065.1845-.0451.6234c.0109.0078-.2442,3.5228.6844,7.5645.9283,4.0528,3.0067,8.5081,7.5468,10.5243,4.5358,2.0273,9.2373.5936,12.8746-1.4249,3.6241-2.015,6.0746-4.5439,6.0789-4.551l.4323-.4488,2.3518,2.331,1.7148-8.8735-8.4514,1.9479Z" style="fill: #fff;"/>
  <path d="M332.8655,314.4919c-2.8817-1.2761-6.246.0142-7.5336,2.8893-1.2759,2.8799.0132,6.2471,2.8899,7.5346,2.8778,1.2771,6.2465-.0148,7.533-2.8908,1.2771-2.8789-.0144-6.2456-2.8893-7.533" style="fill: #fff;"/>
  <path d="M306.9336,454.5935c1.2594,2.8258,4.1767,4.3946,7.0965,4.0738l1.9528,4.3824-4.7898,2.1354,1.5571,3.4977,4.7907-2.134,11.0711,24.8483c-2.7411.4834-7.4747.6201-10.9344-2.9676l3.187-3.1741-12.4715-2.8757,2.515,13.0062,3.1191-3.0969c2.0726,1.9489,10.9466,9.6973,19.8896,5.8121,8.8657-4.0489,9.0432-15.8288,8.9798-18.6741l4.3884-.2479-7.9887-10.5696-6.2024,11.1952,4.4926-.2458c.3521,4.971-2.913,8.3994-5.1073,10.1152l-11.0712-24.8479,4.7888-2.1352-1.5583-3.4979-4.7886,2.1348-1.953-4.383c2.1894-1.9567,2.9736-5.174,1.7154-7.9989-1.5586-3.4989-5.6634-5.0746-9.164-3.5136-3.4983,1.5587-5.0736,5.6623-3.5148,9.1611"/>
  <path d="M316.879,457.6939c-.2508.1521-.5087.2944-.782.4161-.2734.1213-.5507.2172-.8301.3022l2.344,5.2642-4.7898,2.1348.5534,1.2408,4.7892-2.1342,12.1965,27.3712-.7352.1653c-2.779.6216-8.9489,1.2903-13.2652-3.6385l-.3794-.4348,2.4335-2.4251-8.4506-1.9491,1.7146,8.8734,2.352-2.3298.4315.4482c.005.0075,2.4554,2.5375,6.0795,4.5515,3.6361,2.0195,8.339,3.4532,12.874,1.4249,4.5407-2.0173,6.6191-6.4709,7.5474-10.5255.9287-4.0406.673-7.5556.6846-7.5627l-.0459-.624,3.3071-.1851-5.4528-7.21-4.2018,7.5858,3.4312-.1878.0694.5703c.7772,6.5079-3.8467,10.6472-6.1667,12.2975l-.6135.4365-12.1954-27.371,4.7909-2.1348-.5534-1.2419-4.7921,2.1365-.253-.5662-2.0922-4.6988Z" style="fill: #fff;"/>
  <path d="M308.0617,454.092c1.2865,2.876,4.6548,4.1679,7.5324,2.8908,2.8772-1.2874,4.1664-4.654,2.8904-7.5357-1.2876-2.8739-4.6525-4.163-7.5342-2.8881-2.8743,1.2886-4.1658,4.654-2.8887,7.533" style="fill: #fff;"/>
  <path d="M466.634,313.3641c3.5006-1.5599,7.6053.016,9.164,3.5148,1.259,2.8243.4752,6.0422-1.7152,7.9989l1.9528,4.383,4.7897-2.1358,1.5583,3.4989-4.7894,2.1342,11.0717,24.8477c2.1931-1.7146,5.4588-5.1441,5.1061-10.1141l-4.4921.2469,6.203-11.1963,7.9882,10.5685-4.389.2485c.064,2.8459-.113,14.6246-8.9798,18.6747-8.9417,3.8852-17.817-3.8633-19.8888-5.8122l-3.1187,3.0971-2.5161-13.0068,12.4726,2.8754-3.1879,3.1747c3.4603,3.5865,8.1943,3.451,10.9354,2.9676l-11.0715-24.8483-4.7909,2.134-1.5577-3.4977,4.7897-2.1354-1.9534-4.3812c-2.9178.3197-5.8358-1.2492-7.0947-4.0744-1.5589-3.4994.0148-7.6042,3.5136-9.1628"/>
  <path d="M474.6008,353.8887l-2.4335,2.4252.3782.435c4.3169,4.9286,10.4862,4.2601,13.2664,3.6377l.7348-.1647-12.1965-27.3706-4.7898,2.1336-.553-1.2413,4.7903-2.1342-2.3452-5.2642c.28-.085.5573-.1797.8306-.3022.2734-.1223.5309-.2641.7815-.4162l2.0924,4.6978.2536.5672,4.7919-2.1364.5528,1.2417-4.7909,2.1336,12.1961,27.3722.6135-.4371c2.3203-1.6496,6.9432-5.7896,6.1666-12.2957l-.07-.5726-3.4306.188,4.201-7.5849,5.453,7.2106-3.3071.1845.0457.6234c-.0105.0078.2446,3.5228-.6835,7.5645-.9293,4.0528-3.0067,8.5081-7.5474,10.5243-4.5362,2.0273-9.2378.5936-12.875-1.4249-3.6229-2.015-6.0735-4.5439-6.0785-4.551l-.4332-.4488-2.3502,2.331-1.7146-8.8735,8.4506,1.9479Z" style="fill: #fff;"/>
  <path d="M467.1362,314.4919c2.8815-1.2761,6.2466.0142,7.5346,2.8893,1.2756,2.8799-.0132,6.2471-2.8899,7.5346-2.8788,1.2771-6.2465-.0148-7.533-2.8908-1.2765-2.8789.0144-6.2456,2.8882-7.533" style="fill: #fff;"/>
  <path d="M493.0682,454.5935c-1.2588,2.8258-4.1763,4.3946-7.0947,4.0738l-1.9534,4.3824,4.7904,2.1354-1.5583,3.4977-4.7909-2.134-11.0715,24.8483c2.7409.4834,7.4762.6201,10.936-2.9676l-3.1885-3.1741,12.4732-2.8757-2.5163,13.0062-3.1191-3.0969c-2.0712,1.9489-10.947,9.6973-19.8888,5.8121-8.8669-4.0489-9.0433-15.8288-8.9798-18.6741l-4.3881-.2479,7.9878-10.5696,6.2024,11.1952-4.4914-.2458c-.3533,4.971,2.9123,8.3994,5.1067,10.1152l11.0703-24.8479-4.7891-2.1352,1.5583-3.4979,4.7903,2.1348,1.9528-4.383c-2.1904-1.9567-2.9748-5.174-1.7158-7.9989,1.5592-3.4989,5.6634-5.0746,9.1638-3.5136,3.499,1.5587,5.073,5.6623,3.5138,9.1611"/>
  <path d="M483.1239,457.6939c.2507.1521.5081.2944.7815.4161.2734.1213.5507.2172.8306.3022l-2.3442,5.2642,4.7892,2.1348-.5528,1.2408-4.7897-2.1342-12.1966,27.3712.7348.1653c2.7802.6216,8.9507,1.2903,13.267-3.6385l.3775-.4348-2.4335-2.4251,8.4514-1.9491-1.7148,8.8734-2.3506-2.3298-.4332.4482c-.005.0075-2.4551,2.5375-6.0785,4.5515-3.6373,2.0195-8.3387,3.4532-12.874,1.4249-4.5411-2.0173-6.6185-6.4709-7.5478-10.5255-.9288-4.0406-.6736-7.5556-.6841-7.5627l.0457-.624-3.3071-.1851,5.4529-7.21,4.2011,7.5858-3.43-.1878-.0706.5703c-.7766,6.5079,3.8473,10.6472,6.1667,12.2975l.6135.4365,12.1965-27.371-4.7907-2.1348.5522-1.2419,4.7931,2.1365.2524-.5662,2.0924-4.6988Z" style="fill: #fff;"/>
  <path d="M491.9416,454.092c-1.2876,2.876-4.6552,4.1679-7.533,2.8908-2.8766-1.2874-4.1658-4.654-2.8904-7.5357,1.2876-2.8739,4.6525-4.163,7.5341-2.8881,2.8739,1.2886,4.1658,4.654,2.8893,7.533" style="fill: #fff;"/>
  <path d="M506.3213,410.3287l-5.7151-9.7135c-.0987-.3395-.1388-.6296-.1388-.8886.0037-1.1657.82-1.7422,1.9528-2.1418,1.1072-.3721,2.3479-.3974,2.5711-.3974h.0023l.6613.049v-8.6331h-24.7668v8.7076l.6862-.1234c.2812,0,1.4729.0385,2.541.3947,1.1344.4023,1.9528.9827,1.9528,2.1484,0,.2547-.0385.5462-.1311.8824l-5.7159,9.7158v13.0084h26.1002v-13.0084Z"/>
  <rect x="496.0799" y="389.8356" width="1.9015" height="2.4517" style="fill: #fff;"/>
  <rect x="488.5596" y="389.8356" width="1.8988" height="2.4517" style="fill: #fff;"/>
  <rect x="490.8276" y="416.2511" width="4.8868" height="5.8524" style="fill: #fff;"/>
  <path d="M505.0845,422.1046h-8.1348v-7.0889h-7.3556v7.0889h-8.1402v-11.4398l5.6214-9.5542.0231-.0751c.1406-.4663.2051-.9034.2051-1.3051.0016-1.9093-1.4916-2.9091-2.799-3.3164-.9049-.2987-1.8045-.4035-2.3833-.4393v-6.1392h5.2049v3.6847h4.3676v-3.6847h3.1533v3.6847h4.3703v-3.6847h5.2008l.0017,6.1398c-.5792.0364-1.4811.14-2.386.4387-1.3075.4074-2.8006,1.4072-2.7991,3.3125-.0015.408.0667.8457.2085,1.3119l.0198.0722,5.6214,9.5542v11.4398Z" style="fill: #fff;"/>
  <polygon points="494.8473 407.694 499.2161 407.694 499.2161 407.079 499.2161 401.792 494.8473 401.792 494.8473 407.694"/>
  <rect x="496.0793" y="403.0244" width="1.9032" height="3.4372" style="fill: #fff;"/>
  <polygon points="487.3272 407.6967 487.9444 407.6967 491.6964 407.6967 491.6964 401.792 487.3272 401.792 487.3272 407.6967"/>
  <rect x="488.5584" y="403.0238" width="1.9023" height="3.4366" style="fill: #fff;"/>
  <path d="M293.6814,410.3287l5.7147-9.7135c.0986-.3395.1383-.6296.1383-.8886-.0033-1.1657-.8202-1.7422-1.9528-2.1418-1.1068-.3721-2.3479-.3974-2.5702-.3974h-.0027l-.6609.049v-8.6331h24.7674v8.7076l-.688-.1234c-.28,0-1.471.0385-2.5402.3947-1.135.4023-1.9524.9827-1.9524,2.1484,0,.2547.0381.5462.1313.8824l5.7145,9.7158v13.0084h-26.099v-13.0084Z"/>
  <rect x="302.0213" y="389.8356" width="1.9005" height="2.4517" style="fill: #fff;"/>
  <rect x="309.5444" y="389.8356" width="1.899" height="2.4517" style="fill: #fff;"/>
  <rect x="304.2884" y="416.2511" width="4.8862" height="5.8524" style="fill: #fff;"/>
  <path d="M294.9182,422.1046h8.1338v-7.0889h7.3566v7.0889h8.1393v-11.4398l-5.6204-9.5542-.0231-.0751c-.141-.4663-.2049-.9034-.2049-1.3051-.0027-1.9093,1.4914-2.9091,2.7988-3.3164.904-.2987,1.8041-.4035,2.3822-.4393v-6.1392h-5.2035v3.6847h-4.3688v-3.6847h-3.1515v3.6847h-4.3715v-3.6847h-5.1999l-.0033,6.1398c.5792.0364,1.482.14,2.3872.4387,1.3063.4074,2.8012,1.4072,2.7979,3.3125.0033.408-.0663.8457-.2067,1.3119l-.021.0722-5.621,9.5542v11.4398Z" style="fill: #fff;"/>
  <polygon points="305.1542 407.694 300.7862 407.694 300.7862 407.079 300.7862 401.792 305.1542 401.792 305.1542 407.694"/>
  <rect x="302.0204" y="403.0244" width="1.9036" height="3.4372" style="fill: #fff;"/>
  <polygon points="312.6757 407.6967 312.0584 407.6967 308.3066 407.6967 308.3066 401.792 312.6757 401.792 312.6757 407.6967"/>
  <rect x="309.5417" y="403.0238" width="1.9026" height="3.4366" style="fill: #fff;"/>
  <polygon points="349.2704 297.5342 399.6516 265.1611 399.9836 264.9445 450.7066 297.5342 349.2704 297.5342"/>
  <polygon points="353.4705 296.2979 446.4956 296.2979 399.9851 266.4122 353.4705 296.2979" style="fill: #fff;"/>
  <path d="M421.4598,524.2325c-.0529-.2269-.0756-.4204-.0756-.582.0177-.7385.3529-1.0014.8859-1.2534.5192-.2238,1.1734-.2563,1.367-.2536l.7027.118v-6.3325h-14.575v4.9854h-19.5295v-4.9854h-14.5727v6.3761l.7226-.1643c.2199.0012.8427.0418,1.3443.2563.5345.252.8659.5149.8869,1.2534,0,.1631-.021.3533-.0706.5726l-3.2668,6.6016v9.085h49.4432v-9.085l-3.2624-6.5922Z"/>
  <rect x="418.9194" y="517.1631" width=".5363" height="1.2666" style="fill: #fff;"/>
  <rect x="414.6515" y="517.1631" width=".5336" height="1.2666" style="fill: #fff;"/>
  <polygon points="408.712 522.1496 409.7647 522.1496 409.7647 522.2048 409.7647 523.348 408.712 523.348 408.712 522.1496" style="fill: #fff;"/>
  <rect x="402.7097" y="522.1496" width="1.0527" height="1.1984" style="fill: #fff;"/>
  <rect x="396.2405" y="522.1496" width="1.05" height="1.1984" style="fill: #fff;"/>
  <rect x="390.2364" y="522.1496" width="1.0516" height="1.1984" style="fill: #fff;"/>
  <rect x="384.8171" y="517.1631" width=".5335" height="1.2666" style="fill: #fff;"/>
  <rect x="380.5467" y="517.1631" width=".5335" height="1.2666" style="fill: #fff;"/>
  <rect x="381.8386" y="535.0705" width="2.219" height="3.6042" style="fill: #fff;"/>
  <path d="M389.3875,538.6747h-4.0958v-4.8345h-4.6855v4.8345h-4.0958v-7.5579l2.8037-5.6644v3.8482h2.9991v-4.416h-2.7191l.1208-.2421.0159-.0622c.079-.329.1174-.6393.1174-.9299.0204-1.2892-.8544-2.0879-1.6403-2.3915-.4783-.1974-.9502-.2829-1.3123-.3203v-3.7757h2.4191v2.4992h2.9995v-2.4992h1.2705v2.4992h3.0001v-2.4992h2.4176v3.7514h-.0021v.0265c-.36.0381-.8319.1235-1.3102.3209-.7888.3008-1.6625,1.0996-1.6454,2.3887,0,.2921.042.6008.1262.932l.0155.0651.1168.2371h-2.7207v4.416h3.0022v-3.8449l2.8027,5.6611v7.5579Z" style="fill: #fff;"/>
  <rect x="380.5471" y="526.1159" width=".5336" height="1.9524" style="fill: #fff;"/>
  <rect x="384.815" y="526.1159" width=".5374" height="1.9524" style="fill: #fff;"/>
  <rect x="398.6188" y="535.0876" width="2.7676" height="3.5706" style="fill: #fff;"/>
  <path d="M402.6175,538.6763v-4.8211h-5.2338v4.8211h-6.7659v-7.8515l-3.2657-6.6004c-.0513-.2205-.0733-.4118-.0733-.5738.021-.7358.3521-.9977.8869-1.2501.2706-.1163.5754-.1797.8346-.2149v2.3969h3.5202v-2.4329h2.4848v2.4329h3.5204v-2.4329h2.9515v2.4329h3.5177v-2.4329h2.4875v2.4329h3.5148v-2.3969c.2592.0352.5639.0986.8346.2149.5324.2524.8682.5143.8857,1.2501,0,.1653-.0187.3512-.0671.5705l-3.268,6.6038v7.8515h-6.7647Z" style="fill: #fff;"/>
  <rect x="415.943" y="535.0722" width="2.2184" height="3.6025" style="fill: #fff;"/>
  <path d="M423.4898,538.6747h-4.0931v-4.8339h-4.6857v4.8339h-4.0963v-7.5579l2.8027-5.6644v3.8482h3.0001v-4.416h-2.7195l.1219-.2448.016-.0643c.0772-.3286.1151-.6345.1151-.925.0183-1.2892-.8538-2.0879-1.6425-2.3887-.4783-.1974-.9485-.2828-1.3084-.3209v-3.7779h2.4173v2.4992h3.0001v-2.4992h1.2695v2.4992h3.0028v-2.4992h2.4146v3.7757c-.3599.0373-.834.1229-1.3134.323-.7899.3008-1.6584,1.1034-1.6404,2.3887,0,.2921.0409.6008.1225.9299l.0165.0651.0309.0617.0875.1775h-2.7211v4.416h3.0022v-3.8482l2.8006,5.6628v7.5595Z" style="fill: #fff;"/>
  <rect x="414.65" y="526.1159" width=".5351" height="1.9524" style="fill: #fff;"/>
  <rect x="418.9194" y="526.1159" width=".5374" height="1.9545" style="fill: #fff;"/>
  <polygon points="404.0947 525.3862 404.0947 529.4032 407.6106 529.4032 407.6106 524.7672 404.0947 524.7672 404.0947 525.3862"/>
  <rect x="405.3271" y="525.9996" width="1.05" height="2.1706" style="fill: #fff;"/>
  <polygon points="392.3876 524.7672 392.3876 529.4032 395.9065 529.4032 395.9065 524.7672 395.2903 524.7672 392.3876 524.7672"/>
  <rect x="393.6218" y="525.9996" width="1.0521" height="2.1706" style="fill: #fff;"/>
</svg>