<svg xmlns="http://www.w3.org/2000/svg" xmlns:xlink="http://www.w3.org/1999/xlink" x="0px" y="0px"
	 viewBox="0 0 512 512" style="enable-background:new 0 0 512 512;" xml:space="preserve">
<g>
	<path d="M433.5,93.3c-32.7-15-67.6-26.1-104.2-32.3c-0.7-0.1-1.4,0.2-1.7,0.8c-4.5,8-9.5,18.4-13,26.6c-39.3-5.9-78.5-5.9-117,0
		c-3.5-8.3-8.7-18.6-13.1-26.6c-0.3-0.6-1-0.9-1.7-0.8c-36.6,6.3-71.5,17.4-104.2,32.3c-0.2,0.1-0.6,0.3-0.7,0.6
		C11.4,193.1-6.8,289.7,2.1,385.3c0,0.5,0.3,0.9,0.7,1.1C46.6,418.5,89,438.1,130.7,451c0.7,0.2,1.4,0,1.8-0.6
		c9.8-13.5,18.6-27.7,26.2-42.5c0.5-0.9,0-1.9-0.9-2.3c-13.9-5.3-27.2-11.8-39.9-19.1c-1-0.6-1.1-2.1-0.1-2.7
		c2.6-2.1,5.4-4.1,7.9-6.2c0.5-0.3,1.1-0.5,1.6-0.2c83.8,38.3,174.5,38.3,257.2,0c0.6-0.2,1.1-0.2,1.7,0.2c2.5,2.1,5.3,4.2,8,6.3
		c0.9,0.7,0.9,2.2-0.1,2.7c-12.8,7.4-26.1,13.7-40,19c-0.9,0.3-1.3,1.4-0.9,2.3c7.7,14.9,16.5,29,26.2,42.5c0.5,0.6,1.1,0.8,1.8,0.6
		c41.8-12.9,84.2-32.5,128-64.6c0.3-0.2,0.6-0.7,0.7-1.1c10.6-110.4-17.8-206.4-75.6-291.4C433.9,93.6,433.7,93.4,433.5,93.3z
		 M171.1,327.1c-25.3,0-46.1-23.2-46.1-51.6s20.3-51.6,46.1-51.6c25.8,0,46.4,23.3,46.1,51.6C217.2,303.9,196.7,327.1,171.1,327.1z
		 M341.3,327.1c-25.3,0-46.1-23.2-46.1-51.6s20.3-51.6,46.1-51.6c25.8,0,46.4,23.3,46.1,51.6C387.2,303.9,367.1,327.1,341.3,327.1z"
		/>
</g>
</svg>
