<svg xmlns="http://www.w3.org/2000/svg" width="512" height="512" viewBox="0 0 512 512">
<g>
	<path d="M495.6,157.1c-1.1-25.5-5.2-43-11.2-58.2c-6.1-16.1-15.5-30.6-27.8-42.6c-12-12.2-26.5-21.7-42.5-27.7
		c-15.3-5.9-32.7-10-58.2-11.2c-25.7-1.2-33.9-1.5-99-1.5s-73.3,0.3-98.9,1.4c-25.5,1.1-43,5.3-58.2,11.2
		C83.7,34.7,69.2,44,57.2,56.3C45,68.3,35.6,82.9,29.6,98.8c-5.9,15.3-10,32.7-11.2,58.2c-1.2,25.7-1.5,33.9-1.5,99
		s0.3,73.3,1.4,98.9c1.1,25.5,5.3,43,11.2,58.2c6.1,16.1,15.6,30.6,27.8,42.6c12,12.2,26.5,21.7,42.5,27.7
		c15.3,5.9,32.7,10,58.2,11.2c25.6,1.1,33.8,1.4,98.9,1.4s73.3-0.3,98.9-1.4c25.5-1.1,43-5.2,58.2-11.2c32.3-12.5,57.8-38,70.2-70.2
		c5.9-15.3,10-32.7,11.2-58.2c1.1-25.6,1.4-33.8,1.4-98.9S496.7,182.7,495.6,157.1z M452.4,353.1c-1,23.4-5,36.1-8.3,44.5
		c-8.1,20.9-24.7,37.5-45.6,45.6c-8.4,3.3-21.2,7.2-44.5,8.2c-25.3,1.1-32.9,1.4-97,1.4s-71.7-0.3-97-1.4c-23.4-1-36.1-5-44.5-8.2
		c-10.4-3.8-19.9-9.9-27.6-17.9c-8-7.8-14.1-17.2-17.9-27.6c-3.3-8.4-7.2-21.2-8.2-44.5c-1.1-25.3-1.4-32.9-1.4-97s0.3-71.7,1.4-97
		c1-23.4,5-36.1,8.2-44.5c3.8-10.4,9.9-19.9,18-27.6c7.8-8,17.2-14.1,27.6-17.9c8.4-3.3,21.2-7.2,44.5-8.3c25.3-1.1,32.9-1.4,97-1.4
		c64.1,0,71.7,0.3,97,1.4c23.4,1,36.1,5,44.5,8.3c10.4,3.8,19.9,9.9,27.6,17.9c8,7.8,14.1,17.2,17.9,27.6c3.3,8.4,7.2,21.2,8.3,44.5
		c1.1,25.3,1.4,32.9,1.4,97S453.5,327.8,452.4,353.1L452.4,353.1z"/>
	<path d="M256.9,132.7c-68.1,0-123.3,55.2-123.3,123.3s55.2,123.3,123.3,123.3c68.1,0,123.3-55.2,123.3-123.3S325,132.7,256.9,132.7
		z M256.9,336c-44.2,0-80-35.8-80-80s35.8-80,80-80c44.2,0,80,35.8,80,80S301.1,336,256.9,336z M413.9,127.9
		c0,15.9-12.9,28.8-28.8,28.8c-15.9,0-28.8-12.9-28.8-28.8c0-15.9,12.9-28.8,28.8-28.8C401,99.1,413.9,112,413.9,127.9L413.9,127.9z
		"/>
</g>
</svg>
