<svg xmlns="http://www.w3.org/2000/svg" version="1.1" xmlns:xlink="http://www.w3.org/1999/xlink" width="512" height="512" x="0" y="0" viewBox="0 0 128 128" style="enable-background:new 0 0 512 512" xml:space="preserve" class=""><g><path d="M124 8v36c0 2.211-1.789 4-4 4s-4-1.789-4-4V17.656L58.828 74.828C58.047 75.609 57.023 76 56 76s-2.047-.391-2.828-1.172a3.997 3.997 0 0 1 0-5.656L110.344 12H84c-2.211 0-4-1.789-4-4s1.789-4 4-4h36c2.211 0 4 1.789 4 4zm-16 104V64c0-2.211-1.789-4-4-4s-4 1.789-4 4v48c0 2.207-1.793 4-4 4H16c-2.207 0-4-1.793-4-4V32c0-2.207 1.793-4 4-4h48c2.211 0 4-1.789 4-4s-1.789-4-4-4H16C9.383 20 4 25.383 4 32v80c0 6.617 5.383 12 12 12h80c6.617 0 12-5.383 12-12z" opacity="1" data-original="#000000" class=""></path></g></svg>