<svg version="1.1" xmlns="http://www.w3.org/2000/svg" xmlns:xlink="http://www.w3.org/1999/xlink" x="0px" y="0px"
	 viewBox="0 0 513 342" enable-background="new 0 0 513 342" xml:space="preserve">
<path fill="#EE1D24" d="M0,0h513v342H0V0z"/>
<path fill="#FFFF02" d="M175.69,170.91l-6.96-10.47l-12.16,3.38l7.85-9.9l-6.96-10.47l11.84,4.36l7.78-9.89l-0.51,12.62l11.84,4.36
	l-12.16,3.38L175.69,170.91z M217.94,56.36l-5.94,11.12l8.79,9.04l-12.36-2.19l-5.94,11.19l-1.81-12.48l-12.36-2.19l11.32-5.55
	l-1.81-12.48l8.79,9.04L217.94,56.36z M177.96,18.3l-1.14,12.55l11.59,5l-12.27,2.82l-1.14,12.55l-6.49-10.84l-12.21,2.82l8.25-9.53
	l-6.49-10.77l11.59,4.93L177.96,18.3z M221.44,113.86l-10.01,7.71l4.27,11.88l-10.38-7.14l-10.01,7.78l3.53-12.14l-10.38-7.07
	l12.59-0.38l3.53-12.14l4.27,11.88L221.44,113.86z M86.28,33.21l11.84,36.62h38.47l-31.08,22.52l11.84,36.62l-31.08-22.59
	l-31.15,22.59l11.91-36.62L35.9,69.83h38.54L86.28,33.21z"/>
</svg>
