<?xml version="1.0" encoding="utf-8"?>
<!-- Created by @FCLOGO 2024-10-16 GMT+8 9:58:39 . https://fclogo.top/ -->
<!-- FOR PERSONAL USE ONLY NOT FOR COMMERCIAL USE -->
<svg version="1.1" xmlns="http://www.w3.org/2000/svg" xmlns:xlink="http://www.w3.org/1999/xlink" x="0px" y="0px"
	 viewBox="0 0 800 800" style="enable-background:new 0 0 800 800;" xml:space="preserve">
<path style="fill:#CCCCCC;" d="M348.22,774.3c-0.79,0-1.38-0.22-1.77-0.65c-0.39-0.44-0.53-1.03-0.41-1.79l0.25-1.65
	c0.12-0.75,0.45-1.35,0.98-1.78c0.53-0.44,1.19-0.65,1.98-0.65c0.76,0,1.33,0.2,1.72,0.6c0.39,0.4,0.55,0.94,0.47,1.62h-1.24
	c0.03-0.36-0.06-0.64-0.26-0.84c-0.2-0.2-0.5-0.3-0.89-0.3c-0.42,0-0.76,0.12-1.03,0.35c-0.27,0.23-0.43,0.56-0.5,0.99l-0.26,1.66
	c-0.07,0.44-0.01,0.77,0.19,1c0.19,0.23,0.5,0.35,0.92,0.35c0.39,0,0.72-0.1,0.98-0.3c0.26-0.2,0.44-0.48,0.52-0.85h1.24
	c-0.14,0.69-0.47,1.23-0.99,1.63C349.61,774.1,348.97,774.3,348.22,774.3z M352.8,774.19l1-6.29h1.19l-0.19,1.19
	c0.34-0.87,0.97-1.3,1.91-1.3c0.67,0,1.17,0.21,1.49,0.62c0.32,0.42,0.43,0.99,0.31,1.71l-0.07,0.42h-1.27l0.06-0.32
	c0.07-0.45,0.01-0.8-0.17-1.04c-0.18-0.24-0.48-0.36-0.88-0.36c-0.4,0-0.74,0.12-1.01,0.37c-0.27,0.24-0.43,0.59-0.5,1.03
	l-0.63,3.97H352.8z M361.91,774.3c-0.77,0-1.35-0.22-1.73-0.67c-0.38-0.45-0.51-1.04-0.4-1.77l0.25-1.65
	c0.08-0.49,0.26-0.92,0.52-1.28c0.26-0.37,0.6-0.65,1.01-0.85c0.41-0.2,0.87-0.3,1.38-0.3c0.77,0,1.35,0.22,1.73,0.67
	c0.39,0.45,0.52,1.04,0.39,1.77l-0.17,1.12h-3.85l-0.09,0.53c-0.15,0.95,0.22,1.43,1.11,1.43c0.72,0,1.17-0.25,1.37-0.74h1.22
	c-0.17,0.53-0.5,0.96-1.01,1.28C363.16,774.14,362.58,774.3,361.91,774.3z M361.23,770.22l-0.05,0.29l2.65-0.01l0.05-0.29
	c0.07-0.47,0.01-0.82-0.17-1.07c-0.18-0.25-0.49-0.37-0.92-0.37c-0.44,0-0.8,0.13-1.06,0.38
	C361.48,769.39,361.31,769.75,361.23,770.22z M368.33,774.3c-0.63,0-1.1-0.21-1.41-0.64c-0.31-0.42-0.4-1-0.27-1.73l0.27-1.77
	c0.11-0.73,0.39-1.31,0.84-1.74c0.44-0.43,0.98-0.64,1.61-0.64c0.47,0,0.83,0.12,1.09,0.35c0.26,0.24,0.39,0.56,0.38,0.96h0.02
	l0.17-1.2h1.24l-1,6.29h-1.22l0.19-1.2h-0.02c-0.12,0.41-0.35,0.73-0.69,0.97C369.2,774.18,368.8,774.3,368.33,774.3z
	 M368.93,773.23c0.39,0,0.72-0.12,0.98-0.36c0.26-0.24,0.43-0.57,0.5-1.01l0.25-1.65c0.07-0.43,0.01-0.76-0.18-1
	c-0.19-0.24-0.47-0.36-0.86-0.36c-0.4,0-0.72,0.12-0.98,0.35c-0.26,0.24-0.42,0.57-0.49,1.01l-0.25,1.65
	c-0.07,0.44-0.01,0.78,0.17,1.01C368.24,773.11,368.53,773.23,368.93,773.23z M376.35,774.19c-0.57,0-0.99-0.16-1.26-0.47
	c-0.27-0.31-0.36-0.75-0.27-1.32l0.54-3.39h-1.74l0.17-1.12h1.74l0.27-1.72h1.24l-0.27,1.72h2.47l-0.18,1.12h-2.46l-0.54,3.39
	c-0.08,0.44,0.1,0.66,0.53,0.66h1.72l-0.17,1.12H376.35z M382.5,774.3c-0.77,0-1.35-0.22-1.73-0.67c-0.38-0.45-0.52-1.04-0.4-1.77
	l0.25-1.65c0.08-0.49,0.26-0.92,0.52-1.28c0.26-0.37,0.6-0.65,1.01-0.85c0.41-0.2,0.87-0.3,1.38-0.3c0.77,0,1.35,0.22,1.73,0.67
	c0.39,0.45,0.52,1.04,0.39,1.77l-0.17,1.12h-3.85l-0.09,0.53c-0.15,0.95,0.22,1.43,1.11,1.43c0.72,0,1.17-0.25,1.37-0.74h1.22
	c-0.17,0.53-0.5,0.96-1.01,1.28C383.76,774.14,383.18,774.3,382.5,774.3z M381.83,770.22l-0.05,0.29l2.65-0.01l0.05-0.29
	c0.07-0.47,0.01-0.82-0.17-1.07c-0.18-0.25-0.49-0.37-0.92-0.37c-0.44,0-0.8,0.13-1.06,0.38
	C382.08,769.39,381.91,769.75,381.83,770.22z M388.92,774.3c-0.63,0-1.1-0.21-1.4-0.64c-0.3-0.42-0.39-1-0.28-1.73l0.27-1.77
	c0.11-0.73,0.39-1.31,0.84-1.74c0.44-0.43,0.98-0.64,1.61-0.64c0.47,0,0.83,0.12,1.09,0.35c0.26,0.24,0.39,0.56,0.38,0.96h0.02
	l0.21-1.47l0.3-1.8h1.24l-1.33,8.35h-1.22l0.19-1.2h-0.02c-0.12,0.41-0.35,0.73-0.69,0.97C389.8,774.18,389.4,774.3,388.92,774.3z
	 M389.53,773.23c0.39,0,0.72-0.12,0.98-0.36c0.26-0.24,0.43-0.57,0.5-1.01l0.25-1.65c0.08-0.43,0.02-0.76-0.17-1
	c-0.19-0.24-0.48-0.36-0.87-0.36c-0.4,0-0.72,0.12-0.98,0.35c-0.26,0.24-0.42,0.57-0.49,1.01l-0.25,1.65
	c-0.08,0.44-0.02,0.78,0.16,1.01C388.83,773.11,389.13,773.23,389.53,773.23z M401.02,774.3c-0.47,0-0.84-0.12-1.1-0.35
	c-0.26-0.23-0.39-0.56-0.38-0.97h-0.01l-0.19,1.2h-1.22l1.33-8.35h1.24l-0.29,1.8l-0.27,1.47h0.05c0.12-0.41,0.35-0.73,0.69-0.97
	c0.34-0.23,0.74-0.35,1.21-0.35c0.63,0,1.1,0.21,1.4,0.64c0.3,0.43,0.39,1.01,0.28,1.74l-0.27,1.77c-0.11,0.73-0.39,1.31-0.84,1.73
	C402.18,774.09,401.64,774.3,401.02,774.3z M400.77,773.23c0.4,0,0.72-0.12,0.98-0.35c0.26-0.23,0.42-0.57,0.5-1.01l0.25-1.65
	c0.07-0.43,0.01-0.77-0.17-1.01c-0.18-0.24-0.47-0.35-0.87-0.35c-0.39,0-0.72,0.12-0.98,0.36c-0.26,0.24-0.43,0.57-0.5,1l-0.25,1.65
	c-0.07,0.44-0.01,0.77,0.17,1.01C400.08,773.11,400.37,773.23,400.77,773.23z M405.47,776.25l0.17-1.06h1.93
	c0.64,0,1.01-0.3,1.1-0.9l0.1-0.67l0.21-1.19h-0.03c-0.12,0.42-0.35,0.74-0.68,0.97c-0.33,0.23-0.73,0.34-1.2,0.34
	c-0.63,0-1.09-0.2-1.4-0.6c-0.31-0.4-0.41-0.94-0.3-1.63l0.58-3.6h1.24l-0.56,3.48c-0.06,0.41,0,0.73,0.18,0.96
	c0.18,0.23,0.47,0.34,0.85,0.34c0.39,0,0.72-0.12,0.98-0.37c0.27-0.24,0.43-0.58,0.49-1.02l0.54-3.4h1.24l-1.01,6.41
	c-0.1,0.6-0.37,1.08-0.81,1.42c-0.44,0.35-1,0.52-1.67,0.52H405.47z M417.79,770.09h3.22l0.54-1.85h-5.47l-1.71,6.44h2.15l0.59-2.1
	h3.03l0.44-1.71h-3.03L417.79,770.09z M424.23,772.92c-0.59,0-1.02-0.39-1.02-1.12c0-0.88,0.63-1.76,1.61-1.76
	c0.49,0,0.88,0.24,1.02,0.78l1.95-0.83c-0.29-1.17-1.27-1.9-2.64-1.9c-2.78,0-4.15,2.15-4.15,3.9c0,1.76,1.27,2.83,3.07,2.83
	c1.37,0,2.34-0.59,2.98-1.42l-1.51-1.17C425.16,772.67,424.72,772.92,424.23,772.92z M430.91,768.23h-2.15l-1.76,6.44h5.12
	l0.49-1.85h-2.93L430.91,768.23z M439.75,771.01c0-1.66-1.32-2.93-3.22-2.93c-2.2,0-3.81,1.81-3.81,3.81c0,1.66,1.32,2.93,3.22,2.93
	C438.14,774.82,439.75,773.01,439.75,771.01z M434.92,771.7c0-0.83,0.59-1.71,1.51-1.71c0.78,0,1.17,0.54,1.17,1.22
	c0,0.83-0.59,1.71-1.51,1.71C435.31,772.92,434.92,772.38,434.92,771.7z M443.21,772.23h1.07l-0.2,0.68
	c-0.15,0.05-0.34,0.1-0.59,0.1c-0.68,0-1.27-0.39-1.27-1.22c0-1.02,0.73-1.9,1.95-1.9c0.59,0,1.12,0.24,1.51,0.59l1.37-1.37
	c-0.44-0.54-1.51-1.07-2.73-1.07c-2.59,0-4.29,1.76-4.29,3.86c0,2.05,1.61,2.88,3.22,2.88c0.93,0,1.85-0.29,2.49-0.68l0.93-3.32
	h-3.12L443.21,772.23z M450.78,768.08c-2.2,0-3.81,1.81-3.81,3.81c0,1.66,1.32,2.93,3.22,2.93c2.2,0,3.81-1.81,3.81-3.81
	C454,769.35,452.68,768.08,450.78,768.08z M450.34,772.92c-0.78,0-1.17-0.54-1.17-1.22c0-0.83,0.59-1.71,1.51-1.71
	c0.78,0,1.17,0.54,1.17,1.22C451.85,772.04,451.27,772.92,450.34,772.92z M437.94,767.5c-0.05,0.29,0.1,0.49,0.44,0.49
	s0.54-0.2,0.63-0.49c0.05-0.24-0.1-0.49-0.44-0.49C438.24,767.01,437.99,767.25,437.94,767.5z M432.13,765.5
	c-0.44,0-0.73,0.24-0.78,0.59c-0.05,0.34,0.1,0.59,0.54,0.59s0.73-0.24,0.78-0.59C432.77,765.74,432.57,765.5,432.13,765.5z
	 M433.01,767.3c-0.1,0.54,0.15,0.88,0.83,0.88c0.63,0,1.07-0.39,1.17-0.88s-0.15-0.88-0.83-0.88
	C433.5,766.43,433.11,766.82,433.01,767.3z M439.6,777.55l-2.44-1.81h-1.51l4.25,3.17l1.61-3.17h-0.98L439.6,777.55z M425.84,767.16
	l-2-1.46l23.13-2.78l-2.15,4.25h1.02l2.68-5.32l-26.99,3.22l2.78,2.1H425.84z M338.72,785.79l0.61-3.83h2.32l-0.08,0.52h-1.76
	l-0.18,1.14h1.63l-0.08,0.52h-1.62l-0.26,1.64H338.72z M342.97,785.84c-0.36,0-0.62-0.1-0.8-0.3c-0.17-0.2-0.23-0.47-0.18-0.82
	l0.27-1.7c0.06-0.34,0.2-0.61,0.44-0.82c0.24-0.2,0.54-0.3,0.89-0.3c0.36,0,0.62,0.1,0.8,0.3c0.17,0.2,0.24,0.47,0.18,0.81
	l-0.27,1.71c-0.06,0.34-0.2,0.62-0.44,0.82C343.63,785.74,343.33,785.84,342.97,785.84z M343.05,785.33c0.19,0,0.35-0.05,0.47-0.16
	c0.12-0.11,0.19-0.26,0.23-0.46l0.27-1.7c0.03-0.2,0.01-0.35-0.08-0.46c-0.08-0.11-0.22-0.16-0.41-0.16s-0.35,0.05-0.46,0.16
	c-0.12,0.1-0.19,0.26-0.22,0.46l-0.27,1.7c-0.03,0.2-0.01,0.35,0.08,0.46C342.72,785.28,342.86,785.33,343.05,785.33z M345,785.79
	l0.61-3.83h1.2c0.24,0,0.44,0.05,0.6,0.14c0.16,0.09,0.28,0.22,0.36,0.39c0.07,0.17,0.09,0.37,0.05,0.59
	c-0.04,0.26-0.14,0.48-0.3,0.67c-0.16,0.19-0.37,0.32-0.6,0.39l0.54,1.64h-0.62l-0.48-1.57h-0.54l-0.25,1.57H345z M345.89,783.71
	h0.64c0.19,0,0.35-0.06,0.48-0.17c0.13-0.11,0.21-0.26,0.24-0.45c0.03-0.19,0-0.35-0.09-0.46c-0.09-0.11-0.24-0.17-0.43-0.17h-0.64
	L345.89,783.71z M349.54,785.79l0.61-3.83h1.25c0.37,0,0.65,0.1,0.84,0.31c0.19,0.21,0.26,0.49,0.2,0.84
	c-0.04,0.23-0.12,0.44-0.25,0.61s-0.29,0.31-0.49,0.4c-0.2,0.09-0.42,0.14-0.66,0.14h-0.69l-0.24,1.52H349.54z M350.43,783.75h0.69
	c0.19,0,0.36-0.06,0.49-0.18c0.14-0.12,0.22-0.27,0.25-0.47c0.03-0.2,0-0.35-0.1-0.47c-0.1-0.12-0.25-0.18-0.44-0.18h-0.69
	L350.43,783.75z M352.75,785.79l0.61-3.83h2.25l-0.08,0.5h-1.7l-0.17,1.09h1.51l-0.08,0.5h-1.51l-0.19,1.24h1.69l-0.08,0.5H352.75z
	 M355.84,785.79l0.61-3.83h1.2c0.24,0,0.44,0.05,0.6,0.14c0.16,0.09,0.28,0.22,0.36,0.39c0.07,0.17,0.09,0.37,0.05,0.59
	c-0.04,0.26-0.14,0.48-0.3,0.67c-0.16,0.19-0.37,0.32-0.6,0.39l0.54,1.64h-0.62l-0.48-1.57h-0.54l-0.25,1.57H355.84z M356.74,783.71
	h0.64c0.19,0,0.35-0.06,0.48-0.17c0.13-0.11,0.21-0.26,0.24-0.45c0.03-0.19,0-0.35-0.09-0.46c-0.09-0.11-0.24-0.17-0.43-0.17h-0.64
	L356.74,783.71z M360.13,785.84c-0.39,0-0.67-0.1-0.87-0.29c-0.19-0.19-0.26-0.45-0.22-0.78h0.57c-0.03,0.17,0.01,0.31,0.12,0.41
	c0.11,0.1,0.27,0.15,0.48,0.15c0.2,0,0.37-0.05,0.5-0.15c0.13-0.1,0.21-0.23,0.24-0.4c0.02-0.15,0-0.28-0.06-0.39
	c-0.06-0.11-0.16-0.18-0.29-0.22l-0.46-0.14c-0.27-0.08-0.46-0.22-0.59-0.41c-0.13-0.19-0.17-0.42-0.13-0.68
	c0.04-0.21,0.11-0.39,0.23-0.55c0.12-0.16,0.27-0.28,0.46-0.37c0.19-0.09,0.4-0.13,0.64-0.13c0.35,0,0.62,0.1,0.8,0.29
	c0.18,0.19,0.25,0.44,0.2,0.76h-0.57c0.03-0.17,0-0.3-0.09-0.4c-0.09-0.1-0.23-0.14-0.42-0.14c-0.19,0-0.34,0.04-0.46,0.13
	c-0.12,0.09-0.19,0.21-0.21,0.38c-0.02,0.15-0.01,0.28,0.05,0.39c0.06,0.11,0.16,0.18,0.29,0.22l0.47,0.15
	c0.26,0.08,0.46,0.22,0.58,0.41c0.12,0.19,0.17,0.42,0.12,0.69c-0.04,0.22-0.12,0.41-0.24,0.57c-0.13,0.16-0.29,0.29-0.49,0.38
	C360.6,785.79,360.38,785.84,360.13,785.84z M363.27,785.84c-0.36,0-0.62-0.1-0.8-0.3c-0.17-0.2-0.23-0.47-0.18-0.82l0.27-1.7
	c0.06-0.34,0.2-0.61,0.44-0.82c0.24-0.2,0.54-0.3,0.89-0.3c0.36,0,0.62,0.1,0.8,0.3c0.17,0.2,0.24,0.47,0.18,0.81l-0.27,1.71
	c-0.06,0.34-0.2,0.62-0.44,0.82C363.92,785.74,363.62,785.84,363.27,785.84z M363.34,785.33c0.19,0,0.35-0.05,0.47-0.16
	c0.12-0.11,0.19-0.26,0.23-0.46l0.27-1.7c0.03-0.2,0.01-0.35-0.08-0.46c-0.08-0.11-0.22-0.16-0.41-0.16c-0.19,0-0.35,0.05-0.46,0.16
	c-0.12,0.1-0.19,0.26-0.22,0.46l-0.27,1.7c-0.03,0.2-0.01,0.35,0.08,0.46C363.02,785.28,363.15,785.33,363.34,785.33z
	 M365.28,785.79l0.61-3.83h0.71l0.62,3.19c0.01-0.1,0.02-0.22,0.03-0.36c0.01-0.14,0.03-0.29,0.04-0.44
	c0.02-0.15,0.04-0.29,0.06-0.41l0.31-1.98h0.52l-0.61,3.83h-0.71l-0.61-3.19c-0.01,0.09-0.02,0.21-0.03,0.34s-0.03,0.28-0.04,0.42
	c-0.02,0.15-0.04,0.28-0.06,0.41l-0.31,2.01H365.28z M368.23,785.79l1.59-3.83h0.75l0.37,3.83h-0.56l-0.07-0.97h-1.09l-0.39,0.97
	H368.23z M369.39,784.34h0.87l-0.09-1.1c-0.02-0.2-0.03-0.37-0.04-0.51c-0.01-0.14-0.01-0.24-0.01-0.3c-0.02,0.06-0.05,0.16-0.1,0.3
	c-0.05,0.14-0.11,0.31-0.19,0.5L369.39,784.34z M371.72,785.79l0.61-3.83h0.57l-0.52,3.31h1.67l-0.08,0.52H371.72z M376.68,785.84
	c-0.37,0-0.63-0.1-0.8-0.3c-0.17-0.2-0.22-0.48-0.17-0.82l0.44-2.76h0.57l-0.44,2.76c-0.03,0.2-0.01,0.35,0.07,0.46
	c0.08,0.11,0.21,0.17,0.41,0.17c0.19,0,0.35-0.06,0.46-0.17c0.12-0.11,0.19-0.27,0.22-0.46l0.44-2.76h0.57l-0.44,2.76
	c-0.06,0.35-0.2,0.62-0.43,0.82C377.35,785.74,377.05,785.84,376.68,785.84z M379.84,785.84c-0.39,0-0.67-0.1-0.87-0.29
	c-0.19-0.19-0.26-0.45-0.22-0.78h0.57c-0.03,0.17,0.01,0.31,0.12,0.41c0.11,0.1,0.27,0.15,0.48,0.15c0.2,0,0.37-0.05,0.5-0.15
	c0.13-0.1,0.21-0.23,0.24-0.4c0.02-0.15,0-0.28-0.06-0.39c-0.06-0.11-0.16-0.18-0.29-0.22l-0.46-0.14
	c-0.27-0.08-0.46-0.22-0.59-0.41c-0.13-0.19-0.17-0.42-0.13-0.68c0.04-0.21,0.11-0.39,0.23-0.55s0.27-0.28,0.46-0.37
	c0.19-0.09,0.4-0.13,0.64-0.13c0.35,0,0.62,0.1,0.8,0.29c0.18,0.19,0.25,0.44,0.2,0.76h-0.57c0.03-0.17,0-0.3-0.09-0.4
	c-0.09-0.1-0.23-0.14-0.42-0.14c-0.19,0-0.34,0.04-0.46,0.13c-0.12,0.09-0.19,0.21-0.21,0.38c-0.02,0.15-0.01,0.28,0.05,0.39
	c0.06,0.11,0.16,0.18,0.29,0.22l0.47,0.15c0.26,0.08,0.46,0.22,0.58,0.41c0.12,0.19,0.17,0.42,0.12,0.69
	c-0.04,0.22-0.12,0.41-0.24,0.57c-0.13,0.16-0.29,0.29-0.49,0.38C380.31,785.79,380.09,785.84,379.84,785.84z M381.91,785.79
	l0.61-3.83h2.25l-0.08,0.5h-1.7l-0.17,1.09h1.51l-0.08,0.5h-1.51l-0.19,1.24h1.69l-0.08,0.5H381.91z M386.94,785.84
	c-0.36,0-0.62-0.1-0.8-0.3c-0.17-0.2-0.23-0.47-0.18-0.82l0.27-1.7c0.06-0.34,0.2-0.61,0.44-0.82c0.24-0.2,0.54-0.3,0.89-0.3
	c0.36,0,0.62,0.1,0.8,0.3c0.17,0.2,0.24,0.47,0.18,0.81l-0.27,1.71c-0.06,0.34-0.2,0.62-0.44,0.82
	C387.6,785.74,387.3,785.84,386.94,785.84z M387.02,785.33c0.19,0,0.35-0.05,0.47-0.16c0.12-0.11,0.19-0.26,0.23-0.46l0.27-1.7
	c0.03-0.2,0.01-0.35-0.08-0.46c-0.08-0.11-0.22-0.16-0.41-0.16c-0.19,0-0.35,0.05-0.46,0.16c-0.12,0.1-0.19,0.26-0.22,0.46
	l-0.27,1.7c-0.03,0.2-0.01,0.35,0.08,0.46C386.7,785.28,386.83,785.33,387.02,785.33z M388.95,785.79l0.61-3.83h0.71l0.62,3.19
	c0.01-0.1,0.02-0.22,0.03-0.36c0.01-0.14,0.03-0.29,0.04-0.44c0.02-0.15,0.04-0.29,0.06-0.41l0.31-1.98h0.52l-0.61,3.83h-0.71
	l-0.61-3.19c-0.01,0.09-0.02,0.21-0.03,0.34c-0.01,0.13-0.03,0.28-0.04,0.42c-0.02,0.15-0.04,0.28-0.06,0.41l-0.31,2.01H388.95z
	 M392.25,785.79l0.61-3.83h0.57l-0.52,3.31h1.67l-0.08,0.52H392.25z M396.12,785.79l0.22-1.41l-0.75-2.42h0.58l0.45,1.45
	c0.03,0.09,0.05,0.18,0.07,0.27c0.02,0.08,0.03,0.15,0.03,0.19c0.02-0.04,0.05-0.1,0.09-0.19c0.04-0.08,0.09-0.17,0.14-0.27
	l0.9-1.45h0.6l-1.53,2.42l-0.22,1.41H396.12z M399.22,785.79l0.61-3.83h0.71l0.62,3.19c0.01-0.1,0.02-0.22,0.03-0.36
	c0.01-0.14,0.03-0.29,0.04-0.44c0.02-0.15,0.04-0.29,0.06-0.41l0.31-1.98h0.52l-0.61,3.83h-0.71l-0.61-3.19
	c-0.01,0.09-0.02,0.21-0.03,0.34c-0.01,0.13-0.03,0.28-0.04,0.42c-0.02,0.15-0.04,0.28-0.06,0.41l-0.31,2.01H399.22z M403.51,785.84
	c-0.36,0-0.62-0.1-0.8-0.3c-0.18-0.2-0.23-0.47-0.18-0.82l0.27-1.7c0.06-0.34,0.2-0.61,0.44-0.82c0.24-0.2,0.54-0.3,0.89-0.3
	c0.36,0,0.62,0.1,0.8,0.3c0.17,0.2,0.24,0.47,0.18,0.81l-0.27,1.71c-0.06,0.34-0.2,0.62-0.44,0.82
	C404.16,785.74,403.86,785.84,403.51,785.84z M403.58,785.33c0.19,0,0.35-0.05,0.47-0.16c0.12-0.11,0.19-0.26,0.23-0.46l0.27-1.7
	c0.03-0.2,0.01-0.35-0.08-0.46c-0.08-0.11-0.22-0.16-0.41-0.16c-0.19,0-0.35,0.05-0.46,0.16c-0.12,0.1-0.19,0.26-0.22,0.46
	l-0.27,1.7c-0.03,0.2-0.01,0.35,0.08,0.46C403.26,785.28,403.4,785.33,403.58,785.33z M406.38,785.79l0.52-3.31h-1.02l0.08-0.52
	h2.62l-0.08,0.52h-1.03l-0.52,3.31H406.38z M409.52,785.79l0.61-3.83h2.32l-0.08,0.52h-1.76l-0.18,1.14h1.63l-0.08,0.52h-1.62
	l-0.26,1.64H409.52z M413.77,785.84c-0.36,0-0.62-0.1-0.8-0.3c-0.18-0.2-0.23-0.47-0.18-0.82l0.27-1.7c0.06-0.34,0.2-0.61,0.44-0.82
	c0.24-0.2,0.54-0.3,0.89-0.3c0.36,0,0.62,0.1,0.8,0.3c0.17,0.2,0.24,0.47,0.18,0.81l-0.27,1.71c-0.06,0.34-0.2,0.62-0.44,0.82
	C414.42,785.74,414.13,785.84,413.77,785.84z M413.85,785.33c0.19,0,0.35-0.05,0.47-0.16c0.12-0.11,0.19-0.26,0.23-0.46l0.27-1.7
	c0.03-0.2,0.01-0.35-0.08-0.46c-0.08-0.11-0.22-0.16-0.41-0.16c-0.19,0-0.35,0.05-0.46,0.16c-0.12,0.1-0.19,0.26-0.22,0.46
	l-0.27,1.7c-0.03,0.2-0.01,0.35,0.08,0.46C413.52,785.28,413.66,785.33,413.85,785.33z M415.8,785.79l0.61-3.83h1.2
	c0.24,0,0.44,0.05,0.6,0.14c0.16,0.09,0.28,0.22,0.36,0.39c0.07,0.17,0.09,0.37,0.05,0.59c-0.04,0.26-0.14,0.48-0.3,0.67
	c-0.16,0.19-0.37,0.32-0.6,0.39l0.54,1.64h-0.62l-0.48-1.57h-0.54l-0.25,1.57H415.8z M416.69,783.71h0.64
	c0.19,0,0.35-0.06,0.48-0.17c0.13-0.11,0.21-0.26,0.24-0.45c0.03-0.19,0-0.35-0.09-0.46c-0.09-0.11-0.24-0.17-0.43-0.17h-0.64
	L416.69,783.71z M420.91,785.84c-0.36,0-0.63-0.1-0.81-0.3c-0.18-0.2-0.24-0.47-0.19-0.82l0.27-1.7c0.06-0.35,0.21-0.62,0.45-0.82
	s0.55-0.3,0.91-0.3c0.36,0,0.63,0.1,0.81,0.3c0.18,0.2,0.24,0.47,0.19,0.82h-0.57c0.03-0.2,0-0.35-0.09-0.46
	c-0.09-0.11-0.23-0.16-0.42-0.16c-0.19,0-0.35,0.05-0.48,0.16c-0.12,0.1-0.2,0.26-0.23,0.45l-0.27,1.71c-0.03,0.2,0,0.35,0.09,0.46
	c0.09,0.11,0.23,0.16,0.42,0.16c0.19,0,0.35-0.05,0.47-0.16c0.12-0.11,0.2-0.26,0.23-0.46h0.57c-0.03,0.23-0.11,0.43-0.24,0.59
	c-0.12,0.17-0.28,0.3-0.47,0.39C421.36,785.79,421.14,785.84,420.91,785.84z M424.03,785.84c-0.36,0-0.62-0.1-0.8-0.3
	c-0.18-0.2-0.23-0.47-0.18-0.82l0.27-1.7c0.06-0.34,0.2-0.61,0.44-0.82c0.24-0.2,0.54-0.3,0.89-0.3c0.36,0,0.62,0.1,0.8,0.3
	c0.17,0.2,0.24,0.47,0.18,0.81l-0.27,1.71c-0.06,0.34-0.2,0.62-0.44,0.82C424.69,785.74,424.39,785.84,424.03,785.84z
	 M424.11,785.33c0.19,0,0.35-0.05,0.47-0.16c0.12-0.11,0.19-0.26,0.23-0.46l0.27-1.7c0.03-0.2,0.01-0.35-0.08-0.46
	c-0.08-0.11-0.22-0.16-0.41-0.16c-0.19,0-0.35,0.05-0.46,0.16c-0.12,0.1-0.19,0.26-0.22,0.46l-0.27,1.7
	c-0.03,0.2-0.01,0.35,0.08,0.46C423.79,785.28,423.92,785.33,424.11,785.33z M425.97,785.79l0.61-3.83h0.69l0.18,1.23
	c0.02,0.12,0.04,0.23,0.05,0.33c0.01,0.1,0.02,0.18,0.03,0.24c0.02-0.06,0.05-0.14,0.09-0.24c0.04-0.11,0.09-0.22,0.15-0.34
	l0.57-1.22h0.71l-0.61,3.83h-0.54l0.2-1.29c0.02-0.17,0.06-0.35,0.1-0.55c0.04-0.2,0.09-0.4,0.14-0.61c0.05-0.2,0.1-0.4,0.14-0.59
	c0.05-0.19,0.09-0.35,0.13-0.49l-0.86,1.86h-0.55l-0.28-1.86c0,0.14-0.01,0.29-0.02,0.47c-0.01,0.18-0.02,0.37-0.04,0.57
	c-0.02,0.2-0.04,0.41-0.06,0.61c-0.02,0.2-0.05,0.4-0.08,0.57l-0.2,1.29H425.97z M429.11,785.79l0.61-3.83h0.69l0.18,1.23
	c0.02,0.12,0.04,0.23,0.05,0.33c0.01,0.1,0.02,0.18,0.03,0.24c0.02-0.06,0.05-0.14,0.09-0.24c0.04-0.11,0.09-0.22,0.15-0.34
	l0.57-1.22h0.71l-0.61,3.83h-0.54l0.2-1.29c0.02-0.17,0.06-0.35,0.1-0.55c0.04-0.2,0.09-0.4,0.14-0.61c0.05-0.2,0.1-0.4,0.14-0.59
	c0.05-0.19,0.09-0.35,0.13-0.49l-0.86,1.86h-0.55l-0.28-1.86c0,0.14-0.01,0.29-0.02,0.47c-0.01,0.18-0.02,0.37-0.04,0.57
	c-0.02,0.2-0.04,0.41-0.06,0.61c-0.02,0.2-0.05,0.4-0.08,0.57l-0.2,1.29H429.11z M432.41,785.79l0.61-3.83h2.25l-0.08,0.5h-1.7
	l-0.17,1.09h1.51l-0.08,0.5h-1.51l-0.19,1.24h1.69l-0.08,0.5H432.41z M435.51,785.79l0.61-3.83h1.2c0.24,0,0.44,0.05,0.6,0.14
	c0.16,0.09,0.28,0.22,0.36,0.39c0.07,0.17,0.09,0.37,0.05,0.59c-0.04,0.26-0.14,0.48-0.3,0.67c-0.16,0.19-0.37,0.32-0.6,0.39
	l0.54,1.64h-0.62l-0.48-1.57h-0.54l-0.25,1.57H435.51z M436.4,783.71h0.64c0.19,0,0.35-0.06,0.48-0.17
	c0.13-0.11,0.21-0.26,0.24-0.45c0.03-0.19,0-0.35-0.09-0.46c-0.09-0.11-0.24-0.17-0.43-0.17h-0.64L436.4,783.71z M439.8,785.84
	c-0.36,0-0.63-0.1-0.81-0.3c-0.18-0.2-0.24-0.47-0.19-0.82l0.27-1.7c0.06-0.35,0.21-0.62,0.45-0.82s0.55-0.3,0.91-0.3
	c0.36,0,0.63,0.1,0.81,0.3c0.18,0.2,0.24,0.47,0.19,0.82h-0.57c0.03-0.2,0-0.35-0.09-0.46c-0.09-0.11-0.23-0.16-0.42-0.16
	c-0.19,0-0.35,0.05-0.47,0.16c-0.12,0.1-0.2,0.26-0.23,0.45l-0.27,1.71c-0.03,0.2,0,0.35,0.09,0.46c0.09,0.11,0.23,0.16,0.42,0.16
	s0.35-0.05,0.47-0.16c0.12-0.11,0.2-0.26,0.23-0.46h0.57c-0.03,0.23-0.11,0.43-0.24,0.59c-0.12,0.17-0.28,0.3-0.47,0.39
	C440.25,785.79,440.04,785.84,439.8,785.84z M441.88,785.79l0.08-0.5h0.78l0.45-2.82h-0.78l0.08-0.5h2.13l-0.08,0.5h-0.78
	l-0.45,2.82h0.78l-0.08,0.5H441.88z M444.74,785.79l1.59-3.83h0.75l0.37,3.83h-0.56l-0.07-0.97h-1.09l-0.39,0.97H444.74z
	 M445.9,784.34h0.87l-0.09-1.1c-0.02-0.2-0.03-0.37-0.04-0.51c-0.01-0.14-0.01-0.24-0.01-0.3c-0.02,0.06-0.05,0.16-0.1,0.3
	c-0.05,0.14-0.11,0.31-0.19,0.5L445.9,784.34z M448.24,785.79l0.61-3.83h0.57l-0.52,3.31h1.67l-0.08,0.52H448.24z M453.19,785.84
	c-0.37,0-0.63-0.1-0.8-0.3c-0.17-0.2-0.22-0.48-0.17-0.82l0.44-2.76h0.57l-0.44,2.76c-0.03,0.2-0.01,0.35,0.07,0.46
	c0.08,0.11,0.21,0.17,0.41,0.17c0.19,0,0.35-0.06,0.46-0.17c0.12-0.11,0.19-0.27,0.22-0.46l0.44-2.76h0.57l-0.44,2.76
	c-0.06,0.35-0.2,0.62-0.43,0.82C453.86,785.74,453.56,785.84,453.19,785.84z M456.36,785.84c-0.39,0-0.67-0.1-0.87-0.29
	c-0.19-0.19-0.26-0.45-0.22-0.78h0.57c-0.03,0.17,0.01,0.31,0.12,0.41c0.11,0.1,0.27,0.15,0.48,0.15c0.2,0,0.37-0.05,0.5-0.15
	s0.21-0.23,0.24-0.4c0.02-0.15,0-0.28-0.06-0.39c-0.06-0.11-0.16-0.18-0.29-0.22l-0.46-0.14c-0.27-0.08-0.46-0.22-0.59-0.41
	c-0.13-0.19-0.17-0.42-0.13-0.68c0.04-0.21,0.11-0.39,0.23-0.55c0.12-0.16,0.27-0.28,0.46-0.37c0.19-0.09,0.4-0.13,0.64-0.13
	c0.35,0,0.62,0.1,0.8,0.29c0.18,0.19,0.25,0.44,0.2,0.76h-0.57c0.03-0.17,0-0.3-0.09-0.4c-0.09-0.1-0.23-0.14-0.42-0.14
	c-0.19,0-0.34,0.04-0.46,0.13c-0.12,0.09-0.19,0.21-0.21,0.38c-0.02,0.15-0.01,0.28,0.05,0.39c0.06,0.11,0.16,0.18,0.29,0.22
	l0.47,0.15c0.26,0.08,0.46,0.22,0.58,0.41c0.12,0.19,0.17,0.42,0.12,0.69c-0.04,0.22-0.12,0.41-0.24,0.57
	c-0.13,0.16-0.29,0.29-0.49,0.38C456.82,785.79,456.6,785.84,456.36,785.84z M458.42,785.79l0.61-3.83h2.25l-0.08,0.5h-1.7
	l-0.17,1.09h1.51l-0.08,0.5h-1.51l-0.19,1.24h1.69l-0.08,0.5H458.42z"/>
<path style="fill:#E30613;" d="M247.77,233.69l5.85-52.79L265.13,77l37.02,89.33L247.77,233.69z M331.02,130.63l1.54-1.91
	l-65.6-52.51l36.62,88.38L331.02,130.63z M244.98,237.15l6.31-56.93l-98.1-28.5l88.95,88.95L244.98,237.15z M148.29,356.86
	l22.94-28.38l13.44-16.65l-108.35-44.9l65.29,81.61L148.29,356.86z M114.41,398.82l32.34-40.06l-7.02-8.72l-0.26-0.33l-89.4,49.23
	h64.25C114.37,398.9,114.37,398.86,114.41,398.82z M238.84,244.74l2.05-2.53l-89.09-89.09l28.47,98.11L238.84,244.74z M236.7,247.38
	l-55.77,6.17l-103.9,11.5l108.92,45.18L236.7,247.38z M533.04,76.21l-65.61,52.51l28.98,35.87L533.04,76.21z M552.23,233.69
	l-5.85-52.79l-11.5-103.94l-37.02,89.37L552.23,233.69z M563.31,247.43l39.91,49.41l10.8,13.36l70.14-27.95l0.84-0.32l40.05-16.6
	l-105.97-11.74L563.31,247.43z M660.52,349.75l-0.26,0.32l-7.01,8.72l17.46,21.61l14.88,18.41c0.04,0.04,0.08,0.08,0.08,0.16H750
	L660.52,349.75z M658.4,348.58l63.42-79.18l-106.45,42.48l11.61,14.38l24.74,30.63L658.4,348.58z M557.86,240.68l88.96-88.92
	l-98.1,28.46l6.31,56.93L557.86,240.68z M561.18,244.79l58.56,6.49l28.47-98.12l-89.09,89.05L561.18,244.79z M685.59,401.13
	L685.59,401.13C685.59,401.13,685.59,401.13,685.59,401.13l-6.28,7.78l-26.02,32.23l7.24,9.05L750,400.97h-64.33
	C685.67,401.01,685.63,401.09,685.59,401.13z M139.73,449.83l6.98-8.69l-14.02-17.37l-18.28-22.64c-0.01-0.01,0-0.02-0.01-0.03
	c-0.03-0.04-0.07-0.1-0.1-0.17H50l89.47,49.23L139.73,449.83z M555.02,562.8l-6.3,56.88l98.02,28.46l-88.85-88.89L555.02,562.8z
	 M550.12,568.87l-51.42,63.66l36.17,90.33L546.38,619l5.85-52.75L550.12,568.87z M651.75,443.05l-18.05,22.33l-18.37,22.74
	l108.39,44.9l-65.33-81.65L651.75,443.05z M563.35,552.48l55.71-6.17l103.86-11.46l-108.91-45.1L563.35,552.48z M497.14,634.46
	l-29.68,36.75L533,723.7l-29.74-74.48L497.14,634.46z M619.33,548.68l-58.11,6.44l-2.06,2.58l89.05,89.09l-28.46-98.15
	L619.33,548.68z M303.57,635.35l-36.61,88.35l65.56-52.51L303.57,635.35z M236.64,552.48l-50.73-62.82L77.03,534.8l103.9,11.5
	L236.64,552.48z M162.25,460.37l-14-17.32l-6.65,8.28l-65.37,81.65l108.39-44.9L162.25,460.37z M239.58,556.12l-0.81-1l-58.52-6.48
	l-28.46,98.15l89.05-89.09L239.58,556.12z M242.11,559.25l-88.93,88.93l98.1-28.5l-6.3-56.87L242.11,559.25z M247.77,566.26
	l5.85,52.74l11.5,103.94l37.02-89.36L247.77,566.26z M399.2,662.56v85.31L118.87,400.78h68.91l43.51,53.86l36.78,45.54l0.04,0.04
	l87.54,108.4l0,0L399.2,662.56z M400.83,137.44V52.13l280.29,347.05h-68.91l-43.47-53.82l0,0l-36.82-45.58l-0.04-0.04L400.83,137.44
	z M420.02,580.23l22.65,27.87L400,660.93l-42.68-52.99l22.61-27.87l19.27,23.89c0.2,0.24,0.49,0.37,0.8,0.36
	c0.3,0,0.59-0.13,0.8-0.36L420.02,580.23z M379.93,219.73l-22.61-27.87L400,139.03l42.68,52.99l-22.61,27.87L400.79,196
	c-0.02-0.03-0.05-0.05-0.07-0.07c-0.44-0.4-1.12-0.37-1.52,0.07L379.93,219.73z M275.59,293.01l22.61,28.03l-42.64,52.83
	l-22.65-27.99L275.59,293.01z M255.53,426.09l35.79,44.31l-22.61,27.99l-35.79-44.31L255.53,426.09z M524.4,293.01l-22.65,28.03
	l42.68,52.83l22.61-27.99L524.4,293.01z M544.42,426.09l-35.75,44.31l22.61,27.99l35.75-44.31L544.42,426.09z M562.93,399.98
	L400,601.73L237.06,399.98L400,198.27L562.93,399.98z M493.95,348.87h12.74v-12.74h-12.74V348.87z M400,239.71L270.54,399.98
	L400,560.25l129.42-160.27L400,239.71z M469.11,318.29h12.74v-12.74h-12.74V318.29z M444.3,287.72h12.74v-12.74H444.3V287.72z
	 M419.46,257.11h12.74v-12.74h-12.74V257.11z M391.08,221.44l8.92,11.03l8.92-11.03L400,210.41L391.08,221.44z M367.79,257.11h12.74
	v-12.74h-12.74V257.11z M342.95,287.72h12.74v-12.74h-12.74V287.72z M318.15,318.29h12.74v-12.74h-12.74V318.29z M293.31,348.87
	h12.74v-12.74h-12.74V348.87z M268.47,379.48h12.74v-12.74h-12.74V379.48z M263.25,399.98l-8.92-11.03l-8.88,11.03l8.88,11.03
	L263.25,399.98z M281.21,420.52h-12.74v12.74h12.74V420.52z M306.05,451.09h-12.74v12.74h12.74V451.09z M330.89,481.67h-12.74v12.74
	h12.74V481.67z M355.69,512.28h-12.74v12.74h12.74V512.28z M380.53,542.85h-12.74v12.74h12.74V542.85z M408.91,578.52L400,567.5
	l-8.92,11.03l8.92,11.03L408.91,578.52z M432.2,542.85h-12.74v12.74h12.74V542.85z M457.04,512.28H444.3v12.74h12.74V512.28z
	 M481.84,481.67h-12.74v12.74h12.74V481.67z M506.68,451.09h-12.74v12.74h12.74V451.09z M531.53,420.52h-12.74v12.74h12.74V420.52z
	 M531.53,366.74h-12.74v12.74h12.74V366.74z M545.62,411.01l8.92-11.03l-8.92-11.03l-8.88,11.03L545.62,411.01z M299.76,371.95
	l53.54,22.73l-9.63,45.38l-18.43,20.26l35.79,44.03l34.24-22.49v-229.9l-20.34,25.64l-12.06,59.24l-37.78,3.54L299.76,371.95z
	 M500.24,371.95l-53.54,22.73l9.59,45.38l18.43,20.26l-35.75,44.03l-34.28-22.49v-229.9l20.38,25.64l12.06,59.24l37.78,3.54
	L500.24,371.95z M226.11,289.95c-1.51,1.87-1.43,2.03,0,3.98l5.65,8.44c0.88,1.27,0.96,1.39,2.31-0.36c2.73-3.17,2.73-7.86,0-11.03
	C231.88,287.76,228.5,286.8,226.11,289.95z M289.81,233.3l-4.58-3.38c-0.93-0.82-1.93-1.57-2.99-2.23c0,0.44,0.48,1.79,1.31,4.3
	l2.03,6.33c0.52,1.51,0.6,1.47,1.27,0.6l2.95-3.66C290.64,234.22,290.68,233.98,289.81,233.3z M257.48,273.91l-4.54-3.38
	c-0.95-0.82-1.96-1.56-3.03-2.23c0,0.44,0.52,1.79,1.31,4.3l2.07,6.33c0.52,1.55,0.56,1.47,1.27,0.6l2.91-3.66
	C258.28,274.82,258.36,274.58,257.48,273.91z M399.2,52.13v85.31l-43.55,53.9L187.78,399.18h-68.91L399.2,52.13z M222.81,339.87
	c0-0.27-0.16-0.52-0.4-0.64c-0.8,0.32-1.67-0.56-2.63-1.99l-1.75-2.51c-1.71-2.51-1.75-3.07-0.84-4.62l0.44-0.8
	c0.08-0.6-0.44-1.11-0.88-1.11c-1.15,1.63-2.15,2.91-3.42,4.54c-1.99,2.51-3.42,4.22-4.58,5.53c-0.03,0.53,0.27,1.02,0.76,1.23
	l1.23-1.07c2.23-1.99,2.43-1.75,4.38,1.15l1.04,1.43c0.68,0.86,1.18,1.85,1.47,2.91c-0.13,1.57-0.81,3.05-1.91,4.18
	c-1.8,2.55-4.86,3.9-7.96,3.5c-3.57-1.11-6.58-3.53-8.44-6.77c-4.74-6.97-5.81-15.21-0.76-21.58c0.34-0.63,0.8-1.2,1.34-1.67
	c2.45-2.1,6.15-1.82,8.25,0.63c0.4,0.2,0.84-0.68,0.84-1.23c-2.31-3.03-3.9-4.86-4.78-6.05c-0.63,0.71-1.33,1.36-2.07,1.95
	c-1.57,1.25-2.99,2.67-4.26,4.22c-3.82,4.6-5.91,10.38-5.93,16.36c0.02,4.61,1.41,9.11,3.98,12.94c1.93,3.25,5.19,5.49,8.92,6.13
	c4.86-0.03,9.36-2.54,11.94-6.65c1.88-2.49,3.51-5.15,4.86-7.96C221.98,341.22,222.37,340.53,222.81,339.87z M233.91,327.61
	c0.12-0.44-0.32-1.23-0.72-1.23l-0.72,0.64c-1.55,1.31-1.87,1.67-4.82-2.67l-10.39-15.17c-2.95-4.34-2.75-4.78-1.55-6.73l0.52-0.92
	c0-0.56-0.52-1.11-0.84-1.11c-1.43,1.67-2.67,3.26-3.98,4.94s-2.63,3.22-3.98,4.74c-0.06,0.55,0.25,1.06,0.76,1.27l0.72-0.68
	c1.55-1.31,1.87-1.67,4.82,2.67l10.35,15.21c2.95,4.34,2.75,4.78,1.59,6.73l-0.56,0.92c-0.04,0.52,0.52,1.11,0.84,1.11
	c1.39-1.67,2.63-3.42,3.98-5.02C231.29,330.71,232.6,329.12,233.91,327.61z M254.89,301.01c-0.08-0.32-0.4-0.76-0.64-0.76
	c-0.75,0.78-1.78,1.23-2.87,1.23c-4.3-0.6-8.46-1.95-12.3-3.98c-0.44-0.08-0.44-0.36-0.44-0.68c1.34-3.55,0.99-7.53-0.96-10.79
	c-1.19-2.43-3.99-3.62-6.57-2.79c-2.6,1.21-4.82,3.1-6.45,5.45c-2.39,2.99-4.74,6.21-6.37,8.72c-0.06,0.53,0.25,1.03,0.76,1.19
	l0.84-0.84c1.47-1.47,1.83-1.07,4.5,2.91l9.99,14.73c2.95,4.34,2.79,4.78,1.59,6.73l-0.56,0.92c-0.08,0.6,0.52,1.11,0.84,1.11
	c1.43-1.75,2.67-3.42,3.98-5.02c1.31-1.59,2.63-3.18,3.98-4.7c0.12-0.44-0.36-1.23-0.76-1.23l-0.72,0.68
	c-1.55,1.31-1.87,1.63-4.82-2.67l-3.58-5.25c-0.56-0.84-0.68-0.84,0.28-2.03c0.96-1.19,0.96-1.55,2.75-0.84
	c1.79,0.72,4.14,1.95,6.05,2.71c3.31,1.96,7.57,1,9.71-2.19C253.81,302.83,254.4,301.95,254.89,301.01z M274.84,276.61
	c0.08-0.48-0.4-1.15-0.84-1.15l-0.52,0.44c-1.75,1.43-2.03,1.35-4.58-0.56l-15.92-11.94c-1.71-1.27-3.42-2.75-5.14-3.98
	c-0.27-0.08-0.57,0.04-0.72,0.28c0.08,1.53-0.15,3.06-0.68,4.5c0.71,1.12,1.21,2.36,1.47,3.66l5.97,19.51
	c0.88,2.79,1.59,5.25,1.95,6.77c0.57,1.29,0.47,2.78-0.28,3.98l-0.76,1.27c0.08,0.64,0.52,1.15,0.88,1.15
	c0.92-1.35,1.55-2.27,2.75-3.7c1.19-1.43,2.15-2.63,3.15-3.7c0.06-0.55-0.25-1.06-0.76-1.27l-0.96,0.84
	c-1.23,1.11-1.43,1.15-2.47-1.95l-2.15-6.41c-0.72-1.43-0.76-1.39,0-2.31l4.06-4.98c0.8-1.04,0.92-1.15,1.91-0.4l5.14,3.98
	c1.59,1.15,1.63,1.59,0.72,3.1l-0.52,0.92c-0.04,0.48,0.52,1.07,0.88,1.07c0.96-1.31,1.75-2.67,3.42-4.54
	C272.53,279.32,273.6,278.01,274.84,276.61z M282,267.85c-0.96-2.67-2.87-9.12-4.22-14.33l-1.83-6.85
	c-1.47-5.81-2.55-9.55-3.07-12.5c-0.28-1.36-0.05-2.77,0.64-3.98l0.6-1.11c-0.08-0.52-0.52-1.11-0.88-1.11
	c-0.76,1.11-1.79,2.51-2.71,3.66c-0.92,1.15-1.91,2.35-3.18,3.74c-0.08,0.48,0.36,1.23,0.76,1.23l1.04-0.76
	c1.07-0.8,1.39-0.56,2.03,1.63c2.31,7.48,4.34,15.29,6.29,22.37c-0.92-0.56-3.34-1.99-5.14-3.18l-6.93-4.86
	c-1.83-1.03-3.54-2.26-5.1-3.66c-0.24-0.32-0.12-0.84,0.36-1.83l0.48-1.15c0.08-0.6-0.4-1.15-0.84-1.15
	c-1.47,2.03-2.63,3.54-3.74,4.94c-1.11,1.39-2.39,2.91-3.54,4.26c-0.13,0.53,0.16,1.06,0.68,1.23l0.84-0.64
	c1.35-1.15,2.03-0.92,4.7,0.84l16.72,10.83c1.74,1.13,3.4,2.36,4.98,3.7c0.28-0.07,0.52-0.24,0.68-0.48
	C281.82,268.46,281.96,268.17,282,267.85z M306.96,236.01c0.08-0.44-0.4-1.15-0.84-1.15l-0.52,0.44c-1.75,1.43-2.07,1.35-4.58-0.56
	l-15.92-11.94c-1.71-1.27-3.38-2.75-5.1-3.98c-0.27-0.08-0.57,0.04-0.72,0.28c0.06,1.53-0.17,3.05-0.68,4.5
	c0.7,1.13,1.19,2.37,1.47,3.66l5.93,19.51c0.92,2.79,1.63,5.25,1.99,6.77c0.57,1.3,0.45,2.79-0.32,3.98l-0.72,1.27
	c0.04,0.64,0.48,1.15,0.84,1.15c0.96-1.35,1.59-2.27,2.79-3.7c1.19-1.43,2.15-2.63,3.14-3.7c0.06-0.55-0.25-1.06-0.76-1.27l-1,0.84
	c-1.23,1.11-1.39,1.15-2.47-1.95l-2.15-6.41c-0.48-1.43-0.52-1.39,0.24-2.31l3.78-4.98c0.8-1.04,0.96-1.15,1.95-0.4l5.14,3.98
	c1.59,1.15,1.59,1.59,0.72,3.1l-0.56,0.92c0,0.48,0.52,1.07,0.88,1.07c1-1.31,1.83-2.67,3.46-4.54
	C304.61,238.71,305.73,237.4,306.96,236.01z M326.91,211.13c-0.76-0.84-4.14-5.89-4.98-7.09l-6.65-9.59
	c-2.01-2.64-3.72-5.5-5.1-8.52c-0.12-0.89,0.1-1.79,0.64-2.51l0.52-1.04c0.04-0.6-0.52-1.11-0.88-1.11c-1,1.43-1.83,2.63-2.95,3.98
	c-1.11,1.35-2.23,2.67-3.38,3.98c-0.2,0.48,0.28,1.23,0.76,1.23l0.72-0.68c0.8-0.8,1.47-1.07,2.15-0.8c2.4,2.09,4.43,4.56,6.01,7.32
	l5.41,7.96c0.6,0.64,1.19,0.96,0.6,1.07c-0.6,0.12-6.09-0.84-8.56-1.19l-5.89-0.8c-3.56-0.41-7.06-1.3-10.39-2.63
	c-0.64,0.96-1.31,1.87-1.91,2.63c-1.1,1.38-2.27,2.71-3.5,3.98c-0.2,0.48,0.32,1.31,0.72,1.31l0.48-0.4
	c0.62-0.52,1.34-0.9,2.11-1.11c1.79,0,2.19,0.8,4.38,3.98l6.57,9.71c1.99,2.61,3.7,5.43,5.1,8.4c0.12,0.9-0.11,1.81-0.64,2.55
	l-0.48,1c-0.04,0.6,0.48,1.11,0.84,1.11c0.96-1.43,1.87-2.63,2.95-3.98c1.07-1.35,2.23-2.75,3.38-3.98c0.2-0.48-0.32-1.23-0.76-1.23
	l-0.72,0.64c-0.84,0.84-1.51,1.11-2.19,0.84c-2.37-2.14-4.38-4.64-5.97-7.4l-5.41-7.96c-1.47-2.15-1.71-2.71-1.71-2.71
	c2.29,0.2,4.56,0.55,6.81,1.04l14.17,2.43c4.34,0.72,6.09,1.07,7.17,1.35C326.73,212.42,326.95,211.78,326.91,211.13z
	 M346.37,186.64c-0.69-2.94-1.76-5.78-3.18-8.44c-0.36-0.28-1.15,0.28-1.15,0.84c0.84,2.22,1.13,4.61,0.84,6.97
	c-0.9,2.69-2.38,5.15-4.34,7.21c-2.11,2.55-2.83,3.42-3.38,3.98c-0.56,0.56-1.04,0.84-1.35,0.56c-0.32-0.28-1.11-6.65-1.35-8.24
	l-2.11-15.92c-0.72-5.37-1.55-12.54-1.55-14.33c-0.2-0.36-0.48-0.36-0.72-0.36c-0.97,1.48-2.02,2.9-3.14,4.26l-7.6,9.79
	c-2.31,2.79-2.91,3.46-3.74,2.79c-0.2-0.04-0.48,0.28-0.48,0.6c1.19,2.67,2.23,5.53,3.42,8.44c0.4,0.28,1.11-0.24,1.11-0.88
	c-0.47-1.55-0.74-3.16-0.8-4.78c0.36-2.54,1.53-4.9,3.34-6.73l3.46-4.38c0.56-0.72,1-1.23,1.19-0.96c0.55,2.36,0.95,4.75,1.19,7.17
	l2.87,21.54c0.56,4.26,1,9.12,1,10.43c0.12,0.4,0.4,0.4,0.6,0.4c0.48-0.76,1.39-1.99,2.95-3.98l7.52-9.39
	C342.99,190.62,344.7,188.56,346.37,186.64z M681.13,400.78L400.83,747.83v-85.35l211.35-261.7H681.13z M464.21,649.98
	c0.16-0.4-0.4-1.15-0.72-1.15l-0.84,0.8c-0.83,0.95-2.05,1.45-3.3,1.35c-4.46-0.4-10.63-1.27-15.92-2.19
	c-0.84-0.12-0.84-0.44-0.84-1.31c0.12-2.91,0.36-5.97,0.36-9.2c-0.25-3.89,0.77-7.76,2.91-11.03c0.16-0.56-0.48-1.23-0.92-0.96
	c-1.07,1.39-2.15,2.99-3.26,4.26c-1.11,1.27-2.19,2.47-3.5,3.98c-0.04,0.6,0.28,1.19,0.72,1.19l1.19-0.84
	c0.48-0.36,0.76,0.48,0.76,1.51c0,1.03,0,3.38,0,4.34v7.96c0.22,1.72-0.01,3.46-0.68,5.06c-0.48,0.6-1-0.04-1.75-1.04l-3.03-4.18
	c-2.91-3.94-2.67-4.3-1.47-6.37l0.44-0.76c0.08-0.48-0.48-1.03-0.84-1.03c-1.27,1.55-2.71,3.26-3.98,4.98
	c-1.27,1.71-2.67,3.38-3.98,4.86c-0.1,0.51,0.21,1.02,0.72,1.15l0.68-0.64c1.63-1.47,1.95-1.79,4.9,2.19l10.07,14.01
	c2.95,3.94,2.75,4.42,1.51,6.45l-0.4,0.6c-0.08,0.44,0.52,1,0.88,1c1.23-1.43,2.63-3.26,3.98-4.9c1.35-1.63,2.75-3.3,4.26-5.02
	c0.12-0.44-0.4-1.15-0.76-1.15l-0.84,0.84c-1.59,1.55-1.99,1.79-4.9-2.19l-3.5-4.74c-0.76-1.07-1.51-1.91-0.76-2.83
	c0.31-0.29,0.73-0.43,1.15-0.36c2.19,0.04,10.27,1.55,13.02,1.95c0.52,0.08,0.96,0.6,0.52,1.27l-0.72,1.15
	c-0.12,0.52,0.44,1.27,0.88,1c1.11-1.71,2.39-3.26,3.98-5.29C461.82,652.69,463.09,651.21,464.21,649.98z M473.4,638.67
	c0.12-0.44-0.36-1.15-0.76-1.15l-0.76,0.72c-1.59,1.55-1.95,1.83-4.9-2.15l-10.27-13.89c-2.91-3.98-2.71-4.42-1.47-6.41l0.6-0.96
	c0.04-0.52-0.52-1-0.84-1c-1.27,1.71-2.59,3.42-3.98,5.14c-1.39,1.71-2.79,3.38-4.18,4.98c-0.1,0.51,0.21,1.02,0.72,1.15l0.76-0.72
	c1.63-1.55,1.95-1.79,4.9,2.19l10.27,13.85c2.95,3.98,2.75,4.42,1.47,6.41l-0.6,0.96c0,0.52,0.52,1,0.88,1
	c1.23-1.71,2.63-3.5,3.98-5.18C470.58,641.94,472.01,640.27,473.4,638.67z M488.09,618.21l-1.23,1.19
	c-1.55,1.55-1.91,1.83-4.86-2.15l-11.94-16.12c-1.15-1.59-1.19-1.67-0.36-2.67l1.71-2.15c3.3-4.06,4.38-4.06,6.93-1.63
	c0.55-0.18,0.9-0.7,0.88-1.27c-1.55-2.02-2.89-4.19-3.98-6.49c-0.12-0.04-0.32,0.08-0.52,0.28c-0.12,0.19-0.21,0.39-0.28,0.6
	c0.28,1.43-0.08,2.11-1.59,3.98l-12.46,15.37c-2.07,2.59-2.55,3.07-3.38,2.31c-0.18,0.01-0.34,0.09-0.44,0.24
	c-0.08,0.18-0.08,0.38,0,0.56c0.76,1.59,1.99,4.46,2.99,7.13c0.4,0.2,1.15-0.48,1.15-0.96c-1.3-3.26-0.41-6.99,2.23-9.32l1.71-2.11
	c0.8-1,0.88-0.96,2.03,0.6l11.78,16.04c2.95,3.94,2.67,4.34,1.39,6.33l-1.15,1.79c-0.04,0.44,0.52,1,0.88,1
	c1.91-2.51,3.3-4.5,4.66-5.97c1.35-1.47,2.75-3.34,4.58-5.45C488.97,618.89,488.49,618.21,488.09,618.21z M512.22,590.78
	c0.08-0.44-0.36-1.04-0.8-1.04l-0.56,0.44c-1.83,1.67-2.15,1.63-4.7,0L490.24,580c-1.71-1.07-3.38-2.35-5.14-3.42
	c-0.3-0.03-0.59,0.11-0.76,0.36c0.03,1.51-0.24,3.01-0.8,4.42c0.7,1.04,1.18,2.2,1.43,3.42l5.65,18.47
	c0.84,2.83,1.51,4.98,1.87,6.41c0.51,1.25,0.34,2.68-0.44,3.78l-0.76,1.31c0.04,0.6,0.48,1.03,0.84,1.03c1-1.51,1.59-2.39,2.91-3.98
	c1.31-1.59,2.31-2.87,3.34-3.98c0.1-0.53-0.23-1.04-0.76-1.15l-1,0.92c-1.31,1.15-1.47,1.27-2.51-1.71l-2.07-6.01
	c-0.44-1.35-0.48-1.31,0.32-2.31l4.02-4.9c0.88-1.07,1-1.19,1.99-0.56l5.21,3.34c1.59,0.96,1.63,1.39,0.64,2.95l-0.6,0.92
	c0,0.48,0.52,1,0.92,1c1.04-1.35,2.11-2.79,3.66-4.74C509.79,593.61,510.94,592.26,512.22,590.78z M533.79,564.23
	c0.16-0.44-0.4-1.15-0.76-1.15l-0.84,0.8c-0.8,0.98-2.04,1.49-3.3,1.35c-4.42-0.4-10.63-1.27-15.92-2.19
	c-0.8-0.12-0.8-0.44-0.8-1.31c0.32-2.91,0.32-5.97,0.32-9.2c-0.21-3.89,0.8-7.75,2.91-11.03c0.16-0.56-0.48-1.27-0.88-0.96
	c-1.07,1.39-2.19,2.99-3.3,4.26c-1.11,1.27-2.15,2.47-3.5,3.98c0,0.6,0.32,1.15,0.76,1.15l1.19-0.8c0.44-0.36,0.72,0.48,0.72,1.51
	c0,1.04,0,3.38,0,4.34v7.96c0.18,1.7-0.05,3.42-0.68,5.02c-0.48,0.6-1,0-1.75-1.04l-3.03-4.14c-2.95-3.94-2.71-4.34-1.47-6.41
	l0.44-0.76c0.08-0.44-0.52-1-0.88-1c-1.27,1.55-2.71,3.18-3.98,4.94c-1.27,1.75-2.67,3.38-3.98,4.9c-0.1,0.51,0.21,1.02,0.72,1.15
	l0.68-0.64c1.63-1.51,1.95-1.79,4.9,2.19l10.19,14.01c2.91,3.94,2.71,4.38,1.47,6.41l-0.36,0.6c-0.08,0.48,0.48,1,0.88,1
	c1.23-1.39,2.63-3.18,3.98-4.86c1.35-1.67,2.75-3.34,4.22-5.06c0.16-0.44-0.36-1.11-0.72-1.11l-0.84,0.84
	c-1.63,1.51-1.99,1.79-4.9-2.19l-3.5-4.74c-0.76-1.11-1.55-1.91-0.76-2.87c0.31-0.26,0.71-0.38,1.11-0.32
	c2.19,0,10.31,1.55,13.02,1.95c0.56,0.08,1,0.56,0.56,1.23l-0.72,1.15c-0.16,0.56,0.4,1.31,0.84,1.04c1.15-1.75,2.39-3.26,3.98-5.29
	C531.41,566.94,532.68,565.47,533.79,564.23z M547.61,547.11c0.12-0.44-0.32-1.15-0.72-1.15l-1.27,1.27
	c-1.63,1.67-1.99,1.91-4.94-2.07l-1.67-2.23c-1.56-1.89-2.52-4.21-2.75-6.65c-0.6-3.26-1.19-6.45-1.75-9.87
	c-0.84-5.25-0.96-6.37,0.2-8.4l0.68-1.31c0-0.56-0.44-1-0.84-1c-0.92,1.27-1.91,2.39-2.83,3.66s-1.91,2.39-3.3,3.98
	c-0.13,0.53,0.19,1.06,0.72,1.19l1.11-0.88c0.48-0.28,0.84-0.68,1.11-0.28c0.53,1.04,0.92,2.16,1.15,3.3
	c0.88,4.26,1.67,8.28,2.51,12.66c-3.22-1.23-6.61-2.83-10.15-4.58c-1.39-0.68-1.75-1-1.99-1.27s-0.12-0.56,0.28-1.27l0.8-1.31
	c0.04-0.56-0.52-1-0.88-1c-0.84,0.96-2.67,3.38-3.98,4.94c-1.31,1.55-2.63,3.1-3.98,4.62c-0.16,0.44,0.28,1.23,0.68,1.23l0.96-0.76
	c1.55-1.31,2.11-1.19,3.98-0.44l10.23,4.34c1.82,0.58,3.38,1.79,4.38,3.42l1.79,2.27c2.91,3.94,2.71,4.38,1.43,6.37l-0.88,1.35
	c0,0.52,0.52,1.03,0.88,1.03c1.59-2.15,2.99-4.02,4.34-5.61C544.26,551.09,545.66,549.38,547.61,547.11z M568.47,517.38
	c-0.19-4.08-1.71-7.98-4.34-11.11l-3.3-4.46c-2.03-2.41-3.72-5.09-5.02-7.96c-0.08-0.91,0.18-1.81,0.72-2.55l0.52-1
	c0.04-0.6-0.44-1-0.84-1c-1.07,1.35-2.03,2.59-3.18,3.98c-1.15,1.39-2.35,2.75-3.46,3.98c-0.2,0.48,0.24,1.11,0.72,1.11l0.72-0.64
	c0.88-0.92,1.55-1.15,2.23-0.92c1.35,0.4,3.94,3.82,6.01,6.65l3.3,4.62c4.22,5.65,5.53,11.07,1.27,16.36
	c-4.26,5.29-8.56,2.47-12.54-2.67l-6.29-8.56c-2.95-3.94-2.79-4.46-1.47-6.45l0.56-0.92c0.04-0.52-0.48-1-0.84-1
	c-1.23,1.75-2.71,3.5-3.98,5.18c-1.27,1.67-2.71,3.34-3.98,4.78c-0.12,0.44,0.32,1.11,0.72,1.11l0.6-0.56
	c1.67-1.47,1.99-1.75,4.94,2.23l7.05,9.83c2.83,3.78,5.41,5.49,7.96,5.49c3.3-0.56,6.2-2.52,7.96-5.37
	C566.93,524.72,568.33,521.13,568.47,517.38z M583.04,490.47c-2.23-3-6.32-3.93-9.63-2.19l-2.79,1.11c-2.99,1.19-5.1,0.6-6.25-0.96
	c-1.79-2.52-1.56-5.95,0.56-8.2c0.15-0.2,0.31-0.39,0.48-0.57c1.89-1.93,4.99-1.96,6.92-0.07c0.54-0.2,0.9-0.73,0.88-1.31
	c-1.18-1.67-2.65-3.11-4.34-4.26c-1.74,1.28-3.35,2.75-4.78,4.38c-4.03,4.03-4.72,10.31-1.67,15.13c2.33,2.87,6.38,3.68,9.63,1.91
	l1.95-0.76c2.43-1.39,5.52-0.7,7.13,1.59c1.8,2.63,1.52,6.17-0.68,8.48c-2.58,2.6-6.71,2.83-9.55,0.52
	c-0.55,0.18-0.9,0.73-0.84,1.31c1.21,1.97,2.97,3.53,5.06,4.52c-0.02,0.01-0.03,0.01-0.05,0.02h0.08c-0.01-0.01-0.02-0.02-0.03-0.02
	c0.4-0.16,0.78-0.33,1.17-0.52C583.71,506.9,586.73,497.89,583.04,490.47z M611.66,468.13c0.12-0.44-0.36-1.15-0.76-1.15l-0.76,0.72
	c-1.59,1.55-1.95,1.79-4.9-2.19l-10.27-13.85c-2.91-3.98-2.67-4.34-1.43-6.41l0.44-0.8c0.08-0.48-0.48-1-0.84-1
	c-1.31,1.55-2.63,3.26-3.98,4.94c-1.35,1.67-2.75,3.34-4.22,5.02c-0.16,0.44,0.4,1.15,0.76,1.15l0.76-0.72
	c1.59-1.55,1.95-1.79,4.86,2.19l3.34,4.5c0.8,1.03,0.76,1.23-0.8,3.14l-7.17,8.84c-1.55,1.91-1.71,1.99-2.47,0.92l-3.34-4.5
	c-2.95-3.94-2.71-4.34-1.47-6.41l0.44-0.76c0.08-0.44-0.52-1-0.88-1c-1.27,1.51-2.63,3.22-3.98,4.9c-1.35,1.67-2.83,3.42-4.22,5.02
	c-0.12,0.44,0.4,1.15,0.76,1.15l0.72-0.72c1.63-1.55,1.99-1.79,4.94,2.19l10.27,13.85c2.91,3.98,2.71,4.42,1.47,6.45l-0.36,0.64
	c-0.04,0.52,0.48,1,0.84,1c1.27-1.51,2.63-3.3,3.98-4.94c1.35-1.63,2.75-3.3,4.38-5.18c0.12-0.48-0.32-1.15-0.72-1.15l-1.04,0.96
	c-1.63,1.55-1.95,1.83-4.86-2.15l-3.98-5.45c-0.72-1.04-0.68-1.19,0.88-3.14l7.48-8.84c1.55-1.91,1.71-1.95,2.43-0.92l3.98,5.45
	c2.95,3.98,2.75,4.42,1.47,6.41l-0.6,0.96c0,0.52,0.52,1,0.88,1c1.23-1.71,2.83-3.5,3.98-5.18S610.27,469.73,611.66,468.13z
	 M624.28,453.64c2.44-2.85,3.84-6.44,3.98-10.19c-0.21-4.08-1.75-7.98-4.38-11.11l-3.26-4.42c-2.02-2.43-3.71-5.1-5.06-7.96
	c-0.07-0.92,0.19-1.83,0.72-2.59l0.52-1c0.04-0.56-0.44-0.96-0.84-0.96c-1.07,1.35-1.95,2.59-3.14,3.98s-2.39,2.79-3.46,3.98
	c-0.24,0.52,0.24,1.11,0.68,1.11l0.72-0.64c0.88-0.92,1.55-1.11,2.23-0.92c1.35,0.4,3.98,3.86,6.01,6.65l3.46,4.66
	c4.22,5.69,5.53,11.07,1.27,16.36c-4.26,5.29-8.56,2.47-12.54-2.67l-6.33-8.56c-2.91-3.94-2.75-4.42-1.47-6.41l0.6-0.96
	c0-0.52-0.48-1-0.84-1c-1.27,1.75-2.67,3.5-3.98,5.18c-1.31,1.67-2.71,3.34-3.98,4.78c-0.1,0.49,0.19,0.98,0.68,1.11l0.64-0.52
	c1.67-1.47,1.99-1.79,4.9,2.19l6.97,9.75c2.79,3.78,5.37,5.53,7.96,5.53C619.61,458.45,622.5,456.48,624.28,453.64z M494.78,589.47
	l-4.58-2.91c-0.97-0.7-2-1.33-3.07-1.87c0,0.4,0.48,1.67,1.23,3.98l1.95,5.97c0.52,1.43,0.56,1.39,1.31,0.48l3.14-3.78
	C495.66,590.31,495.74,590.07,494.78,589.47z"/>
</svg>
