<svg version="1.1" xmlns="http://www.w3.org/2000/svg" xmlns:xlink="http://www.w3.org/1999/xlink" x="0px" y="0px"
	 viewBox="0 0 800 800" enable-background="new 0 0 800 800" xml:space="preserve">
<g>
	<g>
		<path fill="#EF8200" d="M400,750.1c275-100,275-280,275-280v-420H400C400,50.1,400,480.1,400,750.1z"/>
		<path fill="#FCD13E" d="M400,750.1c-275-100-275-280-275-280v-420h275C400,50.1,400,480.1,400,750.1z"/>
	</g>
	<path fill="#FFFFFF" d="M654,71.1v399c0,0.1-0.1,9.9-4.1,25.8c-3.7,14.7-11.5,37.7-28,64c-18.6,29.7-44.1,57.4-75.8,82.5
		c-39.3,31-88.3,58-145.6,80.3c-57.6-22.2-106.8-49.3-146.2-80.3c-31.9-25.1-57.5-52.8-76.1-82.5c-16.5-26.3-24.4-49.3-28.1-64
		c-4-15.9-4.1-25.7-4.1-25.8v-399L654,71.1 M661,64.1H139v406c0,0,0,160,261.5,260c260.5-100,260.5-260,260.5-260V64.1L661,64.1z"/>
	<path fill="#83181D" d="M645,78.1H155v392c0,0,0,140,245,240c245-100,245-240,245-240V78.1z"/>
	<path fill="#E50012" d="M640,470.1c0,0.1-0.1,8.7-3.8,22.9c-3.5,13.1-10.9,33.7-26.5,57.7c-17.5,27-41.7,52.7-71.7,76.3
		c-37.2,29.3-83.6,55.4-138,77.8c-54.4-22.4-100.8-48.5-138-77.8c-30-23.6-54.1-49.3-71.7-76.3c-15.6-24-23-44.6-26.5-57.7
		c-3.8-14.2-3.8-22.8-3.8-22.9v-387h480V470.1z"/>
</g>
<g>
	<path fill="#FCD13E" d="M462.6,475c-8.1,0.8-23.2,4.1-30.5,7.2c-8.8,3.8-18.2,6.8-27.1,10.7c-20.5,9.2-36.7,15.7-60.1,15.6
		c-21.7-0.1-43.3-9.1-59.6-23c-5.1-4.4-19-17.7-21.2-24c-1.1-0.6-1.9-2.9-2.8-4.1c-8.1,47.1,36.1,107.2,78.2,123.4
		c6.6,2.5,11.7,4.8,18.6,6.8c37.2,10.7,71.2,7.3,106.4-8.3c27.7-12.3,69.4-45.3,49.7-80.4C503.6,480,483.4,473,462.6,475z"/>
	<path fill="#FCD13E" d="M518.3,383.2c7.2,0.1,14.3-4,19.3-8.8c3.6-3.6,9.5-11.8,9.8-16.9c-16.3-5.2-45.5-14.1-56.4-25.3
		c-5.9-6.2-3.7-8.1-2.9-15.1c0.7-6.6-0.8-10.6-5.6-14.3c-5.8-4.7-22.3-8.8-30.1-10.8c-10.3-2.8-21.1-6.1-31-9.9
		c-16.7-6.4-39.7-18.2-52.4-29.4c-14.6-12.8-17.1-18.9-19.7-21.3c-6.8,3.8-7,12.9-5,20.1c6.4,22.3,34.9,41.4,35.7,43.2l15.6,11
		c-10.7,6.5-57.1-19.2-65.9-24.9c-14-9.2-30.3-18.8-39.7-33.1c-3.1-4.6-5.1-9.8-5.6-10.4c-9.2,1.9-9.6,17.1-6.9,24.3
		c4.7,12.4,11.6,24.1,22,32.4c17.6,14.1,19,13.9,38.3,22.8c-20.9,4.2-25.7,5.9-44.2,17.1c-8.9,5.3-28.8,23.4-30.4,30.8l17.7,1.8
		c-16.3,12.8-25.5,34.4-27.2,55.2c-0.5,5.5-0.9,20.9,1,25.4c4.7-1.3,11.4-8,16.3-9.7c1.3,6.7,1.4,10.9,3.8,17.6
		c3.1,8.3,11.6,19.7,18.1,24.7c16.5,12.5,36.5,20.5,57.5,20.6c5.6,0,29.7-2.7,34.5-8.3c-6.1-0.6-13.1,0.2-19.6-0.4
		c-21.8-1.9-52.2-11.5-63.7-31.7c-5.7-10.1-9.3-16.1-10.6-29.3c-1.3-12.5,1.4-33,9.3-42.1c5-8.4,10.7-13.3,18.5-18.9
		c5-3.6,19.8-10.4,25.5-11.2l-16.5,10.3c-1.7,1-3.4,2.9-5.2,4.3c-9.3,7.2-14.7,18.6-16.4,20.3c-0.1,2.1-12,22.6-1.8,46.8
		c4.6,11,12.3,20.7,21.9,27.4c4.6,3.2,11.4,6.3,16.6,8.3c31.4,12,58.8,6,89.4-5c4.4-1.6,9.1-2.9,13.3-4.6
		c30.9-12.5,72.3,1.8,81.9,35.3c0.6,2.4,2.1,15.4,2.2,15.6c-0.1-1.5,1.9-6,2.6-8c6.2-17.9-2.7-42.5-15.9-55.8
		c-7.4-7.4-16.8-12.3-27-15.9c-16-5.6-35.9-1.3-39-1.9c-1,0.7-15.6,4.4-18.7,5.5c-14.4,4.8-19,9.1-37.5,10.5
		c-5.2,0.4-17.7,0.2-22.2-1.7c-19.6-3.1-37.3-22.1-30.2-43.7c1.9-5.5,5.8-12.8,10.7-15.4c-2.5,6.7-6.5,10.4-4.9,22.3
		c2.1,15.6,14,23.4,28.5,26.4c13.5,2.8,28.1,0.5,40.7-4.6c6.1-2.5,12.1-6,17-10.5c-8.5-0.3-20.7,4-35.1-0.6
		c-15.9-5-24.4-18.3-22.4-34.4c1.2-9.3,7.3-17.6,15.9-21.9c10.5-5.4,22.8-3.8,30.3,5.6c7.1,9,0.6,29.1-19.3,20.2
		c-1.2,5.9,3.8,10.2,8.3,12.9c18,6,20.9-3.6,35.4-7.9c5.6-1.7,14.7-2,20.2,0.5c8.9,4.1,6.9,3.7,12.5,10.8c4.7,0.9,12.5-1.9,16.5-4.5
		c3.1-1.9,9.3-7.7,10.2-11c-8.9-1.6-9.1-0.6-20.4-3.5c-13.2-3.4-39.9-19.3-38-32.3C481.1,352.7,495.2,364.2,518.3,383.2z
		 M435.9,314.3c-0.4-0.4,28.9-1.3,35.5,5.9c1,1.1,1,6.3-6.7,10.6c-2.7,1.5-3.8,1.3-6.4,0.2C458.3,330.9,445.3,324.6,435.9,314.3z"/>
</g>
<g>
	<path fill-rule="evenodd" clip-rule="evenodd" fill="#FFFFFF" d="M608.8,124.8h-52.9c0,0-17.7,1.6-18.4,20.7v29.6
		c0,0,0.3,14.1,17.7,19.1h43.7l10.2-14.5h-53.3v-40.5h43.4L608.8,124.8z"/>
	<path fill-rule="evenodd" clip-rule="evenodd" fill="#FFFFFF" d="M527,124.8h-51.4c0,0-16.3-0.6-20.4,21v11.7l-10,14.4h10v22.4h19
		v-22.4h37.4l10.4-14H475v-19.4h42.7L527,124.8z"/>
	<path fill="#FFFFFF" d="M349.3,125.6h-52.6c0,0-14.9,1.5-16.7,18.5v9.1l-10.5,13.4l11.2,0.4v10.5c0,0,1.5,13.8,14.5,16h45l9.1-14.1
		h-49.7v-12.3h34.5l11.2-14.1h-45v-14.5h41L349.3,125.6z"/>
	<path fill="#FFFFFF" d="M428.3,159.3c0,0,11.6-6.2,9.8-17c0,0-1.5-16-12.3-16.7c-10.5-1.1-61.7-0.7-61.7-0.7v27.9l-12.7,12.7h12
		v28.7h60.2c0,0,12,1.8,14.1-15.2C437.7,178.9,442.1,165.5,428.3,159.3z M418.5,179.3h-36.6v-13.1c0-0.4,36.6-0.4,36.6-0.4V179.3z
		 M418.5,152.4h-36.6v-13.1c0-0.4,36.6-0.4,36.6-0.4V152.4z"/>
	<polygon fill="#FFFFFF" points="244.2,125.6 244.2,153.1 229.7,153.1 228.6,153.1 214.5,153.1 214.5,125.6 196.7,125.6 
		196.7,193.4 215.6,193.4 215.6,166.6 228.6,166.6 229.7,166.6 242.8,166.6 242.8,193.4 262,193.4 262,125.6 	"/>
</g>
<g>
	<path fill="#FFFFFF" d="M312,625.4l4.5-2c0.8,2,2.3,3.8,4,4.6c1.8,0.9,3,0.6,3.6-0.5c0.6-1.2-0.4-2.1-1.8-3.8l-2.1-2.4
		c-1.8-1.9-2.9-4.7-1.4-7.7c1.7-3.5,6.2-4.8,10.6-2.6c2.4,1.2,4.5,3.3,5.4,6l-4,1.9c-0.9-1.7-1.9-2.9-3.5-3.7
		c-1.5-0.7-2.8-0.6-3.3,0.5c-0.6,1.2,0.5,2.2,2,3.9l2.1,2.3c2.1,2.3,2.8,4.8,1.3,7.7c-1.7,3.5-6.1,5.1-11.1,2.7
		C315.6,630.8,313.2,628.4,312,625.4z"/>
	<path fill="#FFFFFF" d="M339.4,615.1l5.2,1.9l-8.1,21.6l-5.2-1.9L339.4,615.1z"/>
	<path fill="#FFFFFF" d="M348.1,619.1l5.5,1.3l2.9,12.1l1,5.5l0.2,0c0.3-2.4,0.7-5.8,1.3-8.5l1.8-7.4l5.1,1.3l-5.5,22.4l-5.5-1.3
		l-2.9-12.2l-1-5.4l-0.2,0c-0.4,2.6-0.7,5.7-1.3,8.4l-1.8,7.4l-5.1-1.3L348.1,619.1z"/>
	<path fill="#FFFFFF" d="M367.5,635.6c1.2-7.6,6.9-11.2,12.7-10.3c3,0.5,5.1,2.2,6.5,4l-3.4,3.1c-1-1.2-2.1-2.1-3.7-2.4
		c-2.9-0.5-5.8,1.8-6.5,6.2c-0.7,4.5,1,7.5,4.2,8c1.8,0.3,3.4-0.4,4.7-1.4l2.4,3.9c-2.3,1.9-5,2.7-8,2.2
		C370.6,648.1,366.4,643.3,367.5,635.6z"/>
	<path fill="#FFFFFF" d="M389.4,627.1l14.6,0.3l-0.1,4.6l-9.1-0.2l-0.1,4.3l7.7,0.2l-0.1,4.6l-7.7-0.2l-0.1,4.9l9.4,0.2l-0.1,4.6
		l-15-0.4L389.4,627.1z"/>
	<path fill="#FFFFFF" d="M415.6,647.2c4.7-6,8.2-10.4,7.7-13.5c-0.3-2.1-1.6-3-3.5-2.8c-1.6,0.2-2.6,1.5-3.5,2.8l-3.4-2.5
		c1.9-2.7,3.8-4.2,7-4.7c4.4-0.7,7.9,1.7,8.6,6.1c0.6,3.7-2.3,8.2-5.2,12.2c1.1-0.3,2.7-0.7,3.7-0.9l4.2-0.6l0.7,4.6l-15.8,2.4
		L415.6,647.2z"/>
	<path fill="#FFFFFF" d="M433.1,636.3c-2-7.4,0.2-12.1,4.9-13.3c4.7-1.2,8.9,1.7,10.9,9.1c2,7.4-0.2,12.2-4.9,13.5
		C439.3,646.9,435.1,643.8,433.1,636.3z M443.9,633.5c-1.6-5.9-3.1-6.7-4.7-6.3c-1.6,0.4-2.6,2-1,7.8c1.6,5.9,3.2,6.9,4.8,6.5
		C444.5,641.1,445.4,639.4,443.9,633.5z"/>
	<path fill="#FFFFFF" d="M451.4,631.3c-2.7-7.2-1-12,3.5-13.7c4.5-1.7,9,0.8,11.7,7.9c2.7,7.2,1.1,12.2-3.4,13.9
		C458.6,641.1,454.1,638.5,451.4,631.3z M461.8,627.3c-2.2-5.7-3.8-6.4-5.4-5.8c-1.5,0.6-2.3,2.2-0.2,7.9c2.2,5.7,3.9,6.5,5.4,6
		S463.9,633,461.8,627.3z"/>
	<path fill="#FFFFFF" d="M473.3,631.9l1.1-4.3c1.1,0.4,2.7,0.5,3.8-0.1c2.3-1.2,3.1-3.7,0.5-8.9c-2.5-5-4.8-5.5-6.3-4.8
		c-1.3,0.7-2,2.1-0.8,4.3c1.1,2.1,2.5,2.2,3.9,1.5c1-0.5,1.8-1.6,1.9-3.6l1.9,3.1c-0.3,2-1.7,3.8-3,4.5c-3.5,1.8-7,1.1-9.2-3.1
		c-2.2-4.2-0.3-8.3,3.3-10.2c3.9-2,9.1-1,12.8,6.1c3.8,7.4,1.6,12.8-2.6,15C477.8,632.7,475.2,632.6,473.3,631.9z"/>
</g>
</svg>
