<?xml version="1.0" encoding="utf-8"?>
<!-- Created by @FCLOGO 2022-06-15 23:06:18 . https://fclogo.top/ -->
<!-- FOR PERSONAL USE ONLY NOT FOR COMMERCIAL USE -->
<svg version="1.1" xmlns="http://www.w3.org/2000/svg" xmlns:xlink="http://www.w3.org/1999/xlink" x="0px" y="0px"
	 viewBox="0 0 800 800" enable-background="new 0 0 800 800" xml:space="preserve">
<g>
	<path fill="#299DCC" d="M276.68,412.31c0.06,0,0.12,0,0.17,0c1.17,0.05,2.25,0.1,3.26,0.16c7.35,0.38,10.1,0.52,15.83-3.31
		c8.51-5.69,14.36,1.04,17.17,4.28c0.24,0.27,0.46,0.53,0.68,0.77c1.11,1.24,3.54,2.61,5.85,3.68c0-1.45,0.09-3.1,0.37-4.56
		c0.45-2.31,2.09-4.03,3.83-5.85c1-1.04,2.02-2.11,2.85-3.32l-41.18-2.25c-0.95,1.09-2.51,2.23-5.43,2.23c-0.01,0-0.03,0-0.04,0
		c-2.37-0.01-4.06-0.38-5.24-0.81c-1.46,1.18-3.51,2.29-5.43,2.38c-2.45,0.12-5.64-1.2-7.26-5.08l-6.4-0.35
		c-0.1,0.66-0.45,1.25-0.99,1.64c-0.57,0.42-1.29,0.58-1.99,0.44l-12.19-2.5c3.64,12.63,7.88,25.24,12.69,37.62
		c0.79-0.26,1.58-0.46,2.35-0.59c3.74-0.64,8.03-0.73,12.18-0.81c4.49-0.09,9.14-0.18,11.04-1.08c14.53-6.26,18.73-6.16,26.35-5.99
		l0.22,0.01c1.74,0.04,2.84-0.07,3.52-0.19c-0.09-0.09-0.19-0.19-0.31-0.29c-4.33-4.13-5.47-4.25-7.98-4.53
		c-0.33-0.04-0.68-0.08-1.06-0.12c-3.46-0.44-10.95,0.88-12.13,2.15c-1.57,2.05-5.62,4.81-8.74,4.44c-0.62-0.07-1.19-0.27-1.68-0.56
		c-0.16,0.2-0.31,0.41-0.45,0.59c-0.77,1.02-1.64,2.19-2.63,3.11c-3.27,3.03-10.06,1.49-11.39,1.15c-1.02-0.26-1.76-1.13-1.86-2.18
		c-0.02-0.2-0.47-4.96-0.38-7.44C260.44,421.23,268.75,412.53,276.68,412.31z"/>
	<path fill="#299DCC" d="M400,541.93C400,541.93,400,541.93,400,541.93l0-60.65c-11.33-2.54-22.66-7.39-35.16-13
		c-13.45-6.03-22.23-12.43-25.96-16.41c-1.65-1.76-2.59-1.71-4.02-1.64c-0.66,0.03-1.41,0.07-2.21-0.08
		c-1.41-0.26-2.48-1.09-3.35-1.76c-0.07-0.05-0.15-0.12-0.23-0.18c-2.65,1.93-8.02,3.11-13.06,0.76c-2.36-1.1-3.97-2.4-5.27-3.45
		c-1.52-1.23-2.3-1.82-3.41-1.88c-1.99-0.1-2.53,0.36-2.84,0.63c-0.19,0.16-0.35,0.29-0.49,0.38c-1.3,0.85-5.04,1.32-8.18,0.14
		c-5.49-1.85-9.61-0.84-12.57,0.26c-3.14,1.17-8.69,3.92-12.16,6.32c-3.65,2.52-6.45,3.9-9.12,2.96c-0.88-0.31-1.54-0.86-2.02-1.53
		c0,0.02-0.01,0.04-0.01,0.05c-0.05,0.17-0.1,0.34-0.14,0.51c20.08,45.99,48.36,87.65,84.32,114.61
		C357.54,552.06,377.6,541.93,400,541.93z"/>
	<path fill="#299DCC" d="M400,376.04v-1.66c-0.71,0.6-1.15,1.12-1.41,1.56C399.01,375.99,399.5,376.02,400,376.04z"/>
	<path fill="#299DCC" d="M615.29,273.49c0.92-1.87,1.34-3.91,1.34-5.85v-11.21c0-0.5-0.25-0.95-0.62-1.22l0.09-13.32
		c0.32-0.27,0.53-0.68,0.53-1.14v-21.6c0-0.83-0.67-1.5-1.5-1.5h-6.75v-18.18h5.94c0.83,0,1.5-0.67,1.5-1.5v-20.89
		c0-0.83-0.67-1.5-1.5-1.5h-5.94v-2.88c0-0.83-0.67-1.5-1.5-1.5h-26.49c-0.83,0-1.5,0.67-1.5,1.5v2.88h-2.35
		C534.11,99.84,470.77,51.76,400,51.76c-69.59,0-131.99,46.49-174.4,120.06h-3.86c-0.83,0-1.5,0.67-1.5,1.5v1.13
		c-2.79-2.13-6.12-3.24-9.7-3.24c-4.19,0-8.01,1.48-11.03,4.28c-3.16,2.93-4.83,6.76-4.83,11.08c0,1.7,0.26,3.33,0.77,4.86
		c-0.28-0.01-0.62,0.09-0.88,0.27c-0.4,0.28-0.64,0.74-0.64,1.23l0.15,28.45c0,0.42,0.18,0.82,0.49,1.1l1.62,1.48
		c1.24,1.13,2.22,2.48,2.96,4.05c-19.39,51.2-30.49,110.51-30.49,173.75c0,193.3,103.57,350,231.34,350s231.34-156.7,231.34-350
		C631.34,356.48,625.64,313.21,615.29,273.49z M580.39,178.58c0.83,0,1.5-0.67,1.5-1.5v-2.88h23.49v2.88c0,0.83,0.67,1.5,1.5,1.5
		h5.94v17.89h-5.94c-0.83,0-1.5,0.67-1.5,1.5v21.18c0,0.83,0.67,1.5,1.5,1.5h6.75v18.97c-0.32,0.27-0.52,0.68-0.52,1.13L613,256.42
		c0,0.4,0.15,0.78,0.44,1.07c0.06,0.06,0.13,0.12,0.2,0.17v9.98c0,9.01-8.6,9.71-11.24,9.71h-91.91v-8.69c0-0.83-0.67-1.5-1.5-1.5
		H470.9c-0.83,0-1.5,0.67-1.5,1.5v8.69h-23.8v-6.45c0-2.69-1.73-3.74-6.18-3.74h-33.54c-0.79,0-1.45,0.62-1.5,1.41
		c-0.15,2.64-1.03,4.76-2.61,6.29c-1.71,1.65-4.09,2.49-7.07,2.49c-0.14,0-0.29,0-0.47-0.01h-20.1c-10.86,0-16.84-6.09-16.84-17.15
		l-0.11-86H382v21.11c0,0.83,0.67,1.5,1.5,1.5h20.78c0.24,0.34,0.61,0.57,1.05,0.62c0.76,0.08,1.46-0.41,1.63-1.15
		c2.17-9.25,8.96-14.14,19.62-14.14h17.52c0.83,0,1.5-0.67,1.5-1.5v-6.45h23.8v6.45c0,0.83,0.67,1.5,1.5,1.5h18.74
		c5.81,0,10.38,1.64,13.59,4.87c2.38,2.39,3.96,5.68,4.69,9.77c0.04,0.25,0.15,0.48,0.3,0.67c-0.08,0.22-0.11,0.47-0.08,0.71
		c0.19,1.5,0.28,2.98,0.27,4.52v16.47c0,0.83,0.67,1.5,1.5,1.5h7.84c0.83,0,1.5-0.67,1.5-1.5v-20.47c0-0.34-0.01-0.62-0.04-0.84
		c-0.07-0.77-0.72-1.36-1.49-1.36l-6.83,0v-17.89h6.85c0.83,0,1.5-0.67,1.5-1.5v-2.88h23.49v2.88c0,0.83,0.67,1.5,1.5,1.5H580.39z
		 M576.11,289.92c0.66,2.17,1.31,4.35,1.93,6.54C577.41,294.27,576.77,292.09,576.11,289.92
		C576.11,289.92,576.11,289.92,576.11,289.92z M576.09,289.88H400H223.91c2.72-8.89,5.8-17.57,9.17-26.03h13.72l-0.12,14.99
		c0,0.4,0.15,0.78,0.43,1.07c0.28,0.28,0.66,0.44,1.06,0.44l32.88,0c9.82-0.2,16.24-6.27,17.61-16.64l0.04-0.33
		c0.01-0.06,0.01-0.13,0.01-0.2V223.5c0.27,0.26,0.64,0.42,1.04,0.42h17.52c3.1,0,3.49,0.38,3.49,3.39V253H301.8
		c-0.83,0-1.5,0.67-1.5,1.5v24.35c0,0.83,0.67,1.5,1.5,1.5h30.56c5.89,0,10.58-1.73,13.92-5.15c3.52-3.6,5.23-8.77,5.1-15.35v-87.14
		c0-0.83-0.67-1.5-1.5-1.5h-27.61c-0.83,0-1.5,0.67-1.5,1.5v21.93h-17.37v-21.32c0-0.83-0.67-1.5-1.5-1.5h-9.79
		c31.74-31.41,69.06-48.35,107.88-48.35c40.34,0,79.08,18.3,111.6,52.12h-2.2c-0.83,0-1.5,0.67-1.5,1.5v11.05
		c-0.73-1.19-1.58-2.27-2.54-3.24c-3.79-3.82-9.08-5.75-15.72-5.75H472.4v-6.45c0-0.83-0.67-1.5-1.5-1.5h-26.8
		c-0.83,0-1.5,0.67-1.5,1.5v6.45h-16.02c-11.35,0-19.11,5.19-22.05,14.67H385v-21.11c0-0.83-0.67-1.5-1.5-1.5h-27.82
		c-0.4,0-0.78,0.16-1.06,0.44c-0.28,0.28-0.44,0.66-0.44,1.06l0.11,87.5c0,12.61,7.42,20.14,19.84,20.14l20.06,0
		c0.17,0,0.34,0.01,0.51,0.01c3.79,0,6.88-1.12,9.16-3.34c1.83-1.78,2.96-4.08,3.37-6.85h32.19c2.3,0,3.01,0.31,3.18,0.41
		c0.01,0.09,0.01,0.23,0.01,0.33v7.95c0,0.83,0.67,1.5,1.5,1.5h26.8c0.83,0,1.5-0.67,1.5-1.5v-8.69h35.09v8.69
		c0,0.83,0.67,1.5,1.5,1.5h64.02C574.07,283.5,575.11,286.67,576.09,289.88z M317.29,220.92h-16.02v-23.44
		c0.2,0.09,0.42,0.15,0.65,0.15h20.37c0.83,0,1.5-0.67,1.5-1.5V174.2h24.61l0,85.68c0.12,5.77-1.31,10.22-4.25,13.22
		c-2.76,2.82-6.72,4.25-11.78,4.25H303.3V256h18.98c0.83,0,1.5-0.67,1.5-1.5v-27.19C323.78,222.65,322.02,220.92,317.29,220.92z
		 M511.29,199.47l4.96,0v18.18h-4.84v-14.96C511.42,201.62,511.38,200.54,511.29,199.47z M400,96.24
		c52.65,0,100.76,28.29,137.59,74.96h-19.84c-0.83,0-1.5,0.67-1.5,1.5v1.97c-33.64-35.81-74.05-55.21-116.25-55.21
		c-41.07,0-80.45,18.36-113.53,52.35h-24.53C298.82,124.78,347.12,96.24,400,96.24z M198.2,221.74l-1.13-1.03l-0.14-25.63l0.87,0.32
		c0.6,0.22,1.28,0.03,1.69-0.47c0.4-0.5,0.44-1.21,0.09-1.75c-1.27-1.97-1.91-4.2-1.91-6.62c0-3.46,1.34-6.53,3.87-8.88
		c2.46-2.28,5.57-3.48,9-3.48c3.36,0,6.43,1.2,8.89,3.48c0.42,0.39,0.8,0.79,1.16,1.22c0.4,0.49,1.07,0.67,1.66,0.45
		c0.59-0.21,0.99-0.78,0.99-1.41v-3.13h77.17v20.95c-0.19-0.09-0.39-0.14-0.61-0.15l-2.54-0.06c-0.42-0.02-0.79,0.14-1.08,0.43
		c-0.29,0.28-0.45,0.67-0.45,1.07v66.02l-0.03,0.23c-1.19,9.01-6.28,13.86-14.72,14.04h-31.28l0.12-14.99c0-0.4-0.15-0.78-0.43-1.07
		c-0.28-0.28-0.66-0.44-1.06-0.44h-22.22v-2.12c0-0.78-0.59-1.42-1.37-1.49c-0.77-0.07-1.47,0.47-1.61,1.23l-3.23,18.27h-23.66
		l6.91-32.1C204.95,233.9,203.34,226.41,198.2,221.74z M400,707.28c-115.84,0-209.74-136.78-209.74-305.52
		c0-43.39,6.23-84.64,17.42-122.02h13.46c0.73,0,1.35-0.52,1.48-1.24l2.59-14.65h3.56c-16.39,41.67-25.13,88.8-25.13,137.91
		c0,76.47,21.12,148.15,59.46,201.86c28.82,40.37,64.66,66.61,103.29,76.27c-4.25-2.21-8.26-4.82-11.97-7.79
		c-32.77-11.64-63.08-35.8-88.07-70.81c-37.86-53.03-58.72-123.89-58.72-199.53c0-39.17,5.6-77.04,16.25-111.84
		c0,30.27,4.66,64.68,13.74,99.3l16.36-0.82c0.73-0.03,1.43,0.24,1.93,0.77c0.36,0.37,0.58,0.85,0.66,1.35l6.59,0.36
		c0.72-0.29,1.72-0.39,2.98,0.16l7.07,0.39c0.89-1.05,1.86-1.83,2.67-2.43c0.43-0.31,0.85-0.73,1.31-1.18
		c1.42-1.4,3.36-3.31,6.75-2.97l0.36,0.04c2.87,0.29,4.1,0.38,5.6-0.42c1.71-0.91,2.54-2.02,2.55-2.03
		c0.62-0.84,1.71-1.22,2.72-0.92c1,0.29,1.73,1.17,1.8,2.22c0.07,1.12-0.1,2.82-0.84,4.4c1.17,0.2,2.19,0.71,2.64,0.96
		c0.9,0.5,1.4,1.51,1.26,2.53c-0.07,0.47-0.26,0.9-0.56,1.25l31.32,1.71c1.38-2.79,2.79-4.93,3.95-6.56c-1,0.28-1.96,0.27-2.85-0.04
		c-0.43-0.15-0.82-0.36-1.17-0.63c-0.34,0.74-0.86,1.4-1.7,1.79c-1.91,0.89-3.77-0.37-4.54-0.91c-5.67-3.56-7.12-9.66-6.71-12.9
		c0.28-2.19,2.27-3.91,3.7-4.88c0.39-2.48,1.83-7.76,7.2-13.63c6.18-6.75,6.17-6.84,6.08-8c-0.23-2.64-0.07-3.82,0.79-6.02
		c0.78-2,3.12-3,5.12-3.5c-0.19-1.27-0.5-2.18-0.51-2.2c-0.29-0.84-0.11-1.78,0.48-2.46c0.59-0.67,1.49-0.99,2.36-0.81
		c2.4,0.47,5.78,3.36,7.52,4.98c10.36-0.45,18.75,0.16,19.12,0.19c1.22,0.09,2.18,1.05,2.3,2.24c5.28,0.9,7.5,2.55,7.81,2.8
		c0.65,0.52,0.98,1.32,0.93,2.12c2.57,0.24,3.84,0.52,3.92,0.54c1.13,0.26,1.93,1.26,1.94,2.42c0,0.58-0.19,1.11-0.53,1.54
		c4.41,0.33,6.72,1.09,6.85,1.13c1.09,0.37,1.78,1.43,1.69,2.55c2.24,0.43,3.51,0.99,3.73,1.1c1.08,0.5,1.65,1.69,1.37,2.84
		c-0.01,0.06-0.03,0.12-0.05,0.18c0.14,0.06,0.26,0.13,0.39,0.2v-58.82h165.95c-1.1,34.09-7.75,71.05-18.87,106.53l1.31,0.07
		c2.69,0.16,4.75,2.47,4.61,5.15c-0.16,2.69-2.5,4.75-5.15,4.62l-3.92-0.21c-4.93,14.56-10.61,28.79-16.97,42.4
		c11.81,2.61,12.24,9.06,12.25,9.94c0,0.52-0.16,1.01-0.43,1.42c7.03,1.09,13.16,1.06,13.28,1.06c0.88,0.01,1.62,0.4,2.09,1.09
		c0.47,0.69,0.56,1.57,0.25,2.34c-0.21,0.53-0.46,1-0.73,1.44c1.32-0.2,2.87-0.35,4.71-0.4c10.11-0.28,16.79,4.68,17.06,4.89
		c0.92,0.7,1.25,1.94,0.78,3c-0.47,1.06-1.6,1.66-2.74,1.45c-1.6-0.29-2.87-0.1-4.98,0.24c-0.89,0.14-1.88,0.3-3.02,0.43
		c-0.84,0.1-1.79,0.91-2.65,1.94c3.03,0.21,5.27,0.65,5.41,0.68c1.23,0.24,2.09,1.36,2,2.62c-0.08,1.25-1.08,2.25-2.34,2.33
		c-1.33,0.08-1.95,0.4-2.98,0.93c-0.99,0.51-2.22,1.14-4.17,1.58c-1.23,0.28-2.83,1.19-4.38,2.08c-2.5,1.42-5.07,2.85-7.74,2.86
		c-2.38-0.04-3.45-0.5-4.69-1.15c-0.66-0.35-1.29-0.67-2.69-1c-2.49-0.65-4.21-1.26-5.38-1.95c-5.14,2.06-13.85-0.82-19.16-3.7
		c-1.67-0.9-3.76-1.99-6.04-3.14c-5.36,9.05-10.99,17.58-16.88,25.52c0.21,0.35,0.44,0.73,0.68,1.12c1.83,3.01,4.33,7.14,5.21,10.27
		c0.42,1.47,0.8,1.68,1.17,1.88c0.5,0.27,1.84,0.99,1.99,2.76l0.02,0.23c0,0.02,0,0.04,0,0.06c1.98,0.02,2.51,0.06,3.65,0.62
		c0.21,0.1,0.5,0.24,0.97,0.43c3.75,1.47,7.6,12.11,8,14.12c0.27,1.36-0.2,2.66-1.29,3.59c-2.84,2.42-9.69,1.73-12.58,0.67
		c0.96,1.56,1.45,4.03,1.37,9c-0.02,1.29-0.09,5.22-2.97,6.67c-0.68,0.34-1.38,0.5-2.11,0.5c-2.79,0-5.93-2.24-9.21-4.57
		c-0.52-0.37-1.06-0.75-1.62-1.14c-5.74-4-13.59-9.48-12.14-17.12c0.55-2.85,0.93-5.38,1.2-7.76c-2.45,2.63-4.93,5.18-7.45,7.64
		c-6.43,6.27-13.03,11.89-19.8,16.89c14.85,13.39,24.21,32.76,24.21,54.29c0,28.19-16.05,52.68-39.48,64.87
		c38.63-9.66,74.47-35.91,103.29-76.27c38.34-53.7,59.46-125.39,59.46-201.86c0-42.74-6.61-83.97-19.13-121.41h15.26
		c11.08,37.22,17.24,78.26,17.24,121.41C609.74,570.49,515.84,707.28,400,707.28z"/>
	<path fill="#299DCC" d="M261.53,449.46c0,0-0.15,2.02,1.28,2.52c1.44,0.51,3.34-0.22,6.86-2.66c3.52-2.44,9.19-5.3,12.72-6.61
		c3.54-1.31,8.16-2.33,14.31-0.26c2.6,0.98,5.45,0.42,5.93,0.11c0.47-0.31,1.33-1.59,4.83-1.42c3.51,0.18,4.87,3.35,9.61,5.56
		c4.74,2.21,9.67,0.49,11.04-0.95c1.36-1.43,3.01,1.56,5,1.93s4.3-1.05,7.6,2.47c3.3,3.52,11.79,9.85,25.15,15.84
		c13.36,5.99,24.93,10.89,36.41,13.21s14.93,0.41,19.23,6.95c4.3,6.54,6.11,9.13,10.8,9.29c4.68,0.17,5.07,2.15,10.2,7.29
		c5.12,5.15,7.99,7.87,13.33,7.91c5.34,0.04,16.43-1.32,20.1,3.42c3.67,4.75,3.48,6.23,3.34,12.41c-0.15,6.18-0.58,11.26-1.87,17.95
		c-1.28,6.68,7.26,11.84,12.75,15.76s10.22,7.09,10.35-0.6c0.13-7.69-1.23-7.97-1.99-8.7c-0.76-0.73-3.87-3.17-5.84-3.75
		c-1.96-0.57,0.36-3.7-0.84-5.13c-1.21-1.44-3.04-1.35-3.83-3.49s-0.85-6.74,0.65-6.76c0.82,1.93,0,5.03,2.37,6.62
		c2.36,1.59,4.55,0.37,6.11,3.24c1.56,2.87,1.77,5.36,5.35,6.67c3.58,1.31,11.08,1.2,10.56-1.43c-0.52-2.63-4.32-11.44-6.46-12.27
		c-2.14-0.84-1.02-0.86-4.3-0.87c-1.83-0.07-1.82-1.44-1.92-2.57c-0.1-1.14-1.97-0.25-3.08-4.17c-1.1-3.92-5.5-10.33-6.39-12.14
		c0.06-2.96,0.56-15.66-0.67-17.41c-1.22-1.76-1.31-2.93-4.35-2.99s-5.71-0.08-7.58-0.11c-1.87-0.03-3.01-1.08-0.93-4.83
		c2.08-3.74,3.32-17.13,2.02-24.67c0,0,2.11-0.96,4.8,3.02c2.69,3.98,3.42,8.35,9.53,10.84c6.11,2.49,17.98,8.29,24.19,11.65
		c6.21,3.36,15.48,5.72,18.44,2.68c0,0-0.94,1.06,5.48,2.73c3.87,0.9,3.33,2.03,6.85,2.08c3.53,0.05,7.9-4.05,11.54-4.87
		c3.64-0.82,4.16-2.36,7.55-2.57c0,0-4.54-0.9-9.37-0.71c0,0,2.9-6.37,6.81-6.83c3.92-0.47,5.93-1.17,8.75-0.64
		c0,0-6.14-4.64-15.49-4.39c-9.35,0.26-9.88,2.96-16.94,3.58c0,0,0.61-2.25,2.65-3.2c2.04-0.95,6.28-0.8,7.92-4.85
		c0,0-22.55,0.22-32.1-7.96c0,0,12.03-0.39,16.74,2.99c0,0-0.03-8.14-19.89-8.53c-19.85-0.39-22.45-3.51-25.95-4.6
		c-3.5-1.09-8.84-2.84-17.32-1.79c0,0-8.69-10.74-21.16-13.62c0,0-0.43-4.98-5.13-7.61c0,0,1.08-3.4,2.31-2.16
		c1.23,1.22,3.74,5.08,5.71,6.4c1.98,1.32,10.09-4.38,14.59-4.45c0,0-2.9-3.74-11.34-5.46c-8.45-1.72-18.32-1.06-18.32-1.06
		s-0.93-6.54-0.37-9.67c0,0,0.64-1.21,1.83,0.72c0,0-0.34-4.57,0.19-8.58l106.11,5.79c1.32,0.07,2.45-0.94,2.52-2.26
		c0.07-1.32-0.94-2.45-2.26-2.52l-104.92-5.72c0.15-0.21,0.29-0.4,0.46-0.56c0,0,7.62,0.65,8.06-2.83c0.44-3.48,0.85-7.48-4.23-7.07
		c-5.08,0.42-2.32-3.61,0.14-3.62c2.46-0.01,6-0.95,5.81-2.79c-0.2-1.85-2.13-1.77-4.15-1.92s0.02-1.82,1.75-1.92
		c1.72-0.1,1.39-2.5-0.65-3.29s-2.47-0.75-7.15-7.76c-4.67-7.02-5.02-10.17-4.63-13.22c0,0-3.25-1.38-4.1-4.8
		c-0.85-3.42-0.25-8.17-0.13-11.52c0.12-3.35,4.92-3.38,8.56-1.64c3.63,1.74,3.48-0.84,11.2,0.3c0,0-0.96-2.53-3.87-3.22
		c-2.91-0.69-5.29-0.46-6.71-1.07c-1.42-0.6-1.52-1.48-3.33-1.6c0,0,0.53-3.25-3.47-3.01c-4,0.23-6.56,1.08-7.05,4.88
		c0,0-13.72,0.17-14.28,2.89c-0.56,2.71,0.67,6.51-2.94,7.97c0,0-0.76,0.92,0.74,1.76c1.49,0.84,0.25,3.08,0.66,4.9
		c0.41,1.81,1.97,0.9,1.77,3.76c-0.2,2.86-2.57,2.56-4.09,6.86c-1.52,4.3-7.81,10.87-9.63,13.85c0,0-6.44,0.14-6.43-1.14
		c0.01-1.29,0.17-3.84,5.7-6.97c0,0-2.76-1-5.05-0.65c0,0-0.71-2.01,3.49-4.69c0,0-2.31-0.78-7.08-1.07c0,0,1.21-1.93,8.2-1.36
		c0,0-0.81-2.51-7.77-3.24c0,0,0.72-1.83,4.08-1.72c0,0-3.34-1.55-9.45-1.37c0,0,1.27-2.41,4.29-2.18c0,0-3.84-1.3-11.41-1.14
		c0,0,1.24-3.38,3.39-3.9c0,0-3.12-0.72-10.01-0.8c0,0,0.98-2.6,4.16-2.36c0,0-3.4-2.73-13.22-2.82c0,0,2.12-1.55,4.49-1.67
		c0,0-9.06-0.67-19.88-0.13c0,0-4.71-4.61-7.06-5.07c0,0,0.83,2.35,0.79,5.08c0,0-4.72,0.52-5.44,2.36
		c-0.72,1.83-0.82,2.62-0.63,4.89c0.19,2.27-0.01,2.57-6.72,9.9c-6.72,7.33-6.69,13.42-6.69,13.42s-3.33,1.82-3.58,3.71
		c-0.24,1.89,0.41,7.27,5.62,10.51c2.21,1.57,2.78,0.84,3.01-2.18c0.22-3.02,2.65-1.91,2.73,0.03c0.08,1.93,2.56,3.48,7.6-2.5
		c5.04-5.99,7-9.59,14.11-8.26c2.5,0.53-8.08,7.12-11.87,8.56c-1.9,0.48-1.73,1.62-2.06,3.59c-0.26,1.6-3.91,4.77-7.04,11.78
		L292.46,395c0,0,0,0,0-0.01c0.55-1.75,2.86-3.19,5.11-3.71c0,0-2.25-1.25-3.15-0.48c-0.9,0.77-2.44,1.53-4.75,1.4
		c0,0-0.26-1.72,2.41-3.15c2.67-1.42,2.42-5.15,2.42-5.15s-1.08,1.54-3.41,2.78c-2.32,1.23-4.29,0.97-7.38,0.66
		c-3.09-0.31-4.29,2.18-6.33,3.68c-1.06,0.77-2.14,1.7-2.94,2.98l-9.14-0.5c0-0.03,0.01-0.06,0.01-0.1c-0.05,0-0.98-0.59-1.52,0.02
		l-9.86-0.53l0.19-1.98l-29.97,1.5c-0.9,0.04-1,1.32-0.12,1.51l29.22,6l0.22-2.26l10.5,0.58c0.02,0.07,0.03,0.14,0.05,0.22
		c0.97,3.68,3.41,4.85,5.24,4.77c1.83-0.09,4.3-1.81,5.09-2.94c0,0,1.33,1.35,5.71,1.37c2.77,0.01,3.56-1.24,4.25-2.3l46.26,2.53
		c-0.08,0.25-0.16,0.48-0.25,0.74c-1.97,5.32-7.21,7.85-7.85,11.19c-0.64,3.34-0.15,7.9-0.15,7.9s-7.57-2.68-10.38-5.82
		c-2.81-3.14-7.35-9.5-14.6-4.64s-10.57,4-20.58,3.57c-6.87,0.19-13.87,8.08-13.96,10.41c-0.09,2.35,0.37,7.11,0.37,7.11
		s6.63,1.7,9.06-0.55c2.42-2.26,4.52-6.91,5.52-4.64c1,2.26,5.92-0.31,7.72-2.65c1.8-2.34,10.83-3.54,14.41-3.08
		c3.58,0.46,4.96,0.1,10.4,5.29c2.88,2.61,2.73,5-4.95,4.83c-7.68-0.18-11.36-0.32-25.44,5.74c-4.27,2.02-15.82,0.71-23.86,2.09
		c-8.04,1.38-16.44,10.58-16.42,11.71c0.02,1.13,1.91,3.46,7.98,3.7c6.07,0.24,9.22-0.11,9.76-1.85
		C257.89,451.13,257.96,448.9,261.53,449.46z M400.98,381.07c0,0,0.01,3.33-2.93,3.69C396.55,384.95,395.29,380.36,400.98,381.07z
		 M269.79,401.67c-1.18,0.25-3.21-0.71-4.15-3.31l7.57,0.41c0,0,0,0.01,0.01,0.02C273.18,400.31,270.43,401.53,269.79,401.67z"/>
	<path fill="#299DCC" d="M211.76,199.07c-0.62,0.06-1.14,0.49-1.31,1.09c-0.17,0.6,0.06,1.24,0.56,1.61
		c5.73,4.2,9.82,10.06,12.16,17.42c0.2,0.63,0.78,1.04,1.43,1.04c0.08,0,0.15-0.01,0.23-0.02c0.73-0.11,1.27-0.74,1.27-1.48v-7.42
		c0-5.89,1.62-10.42,4.82-13.48c0.44-0.42,0.58-1.07,0.36-1.64c-0.23-0.57-0.78-0.94-1.39-0.94h-6.64c0-0.63-0.4-1.2-1-1.41
		c-0.6-0.21-1.26-0.03-1.66,0.47c-0.33,0.41-0.7,0.81-1.1,1.19C217.33,197.57,214.66,198.81,211.76,199.07z"/>
	<path fill="#299DCC" d="M404.68,220.21H383.5c-0.83,0-1.5,0.67-1.5,1.5v32.79c0,0.83,0.67,1.5,1.5,1.5h21.18
		c0.83,0,1.5-0.67,1.5-1.5v-32.79C406.18,220.88,405.51,220.21,404.68,220.21z M403.18,253H385v-29.8h18.18V253z"/>
	<path fill="#299DCC" d="M477.92,202.38h-7.03c-0.83,0-1.5,0.67-1.5,1.5v41.55c0,0.83,0.67,1.5,1.5,1.5h12.11
		c0.83,0,1.5-0.67,1.5-1.5v-36.26C484.51,204.22,482.73,202.38,477.92,202.38z M481.52,243.94h-9.12v-38.56h5.53
		c3.12,0,3.59,0.5,3.59,3.8V243.94z"/>
	<path fill="#299DCC" d="M438.81,202.38h-7.23c-0.83,0-1.5,0.67-1.5,1.5v41.55c0,0.83,0.67,1.5,1.5,1.5h12.52
		c0.83,0,1.5-0.67,1.5-1.5v-36.56C445.6,204.86,444.47,202.38,438.81,202.38z M442.61,243.94h-9.53v-38.56h5.73
		c3.63,0,3.8,0.78,3.8,3.49V243.94z"/>
	<path fill="#299DCC" d="M269.72,211.93c0-9.91-4.52-14.87-13.55-14.87h-12.73c-9.24,0-13.85,4.75-13.85,14.26v46.04h40.13V211.93z
		 M254.14,244.32h-8.76v-34.23h4.18c3.06,0,4.58,1.49,4.58,4.48V244.32z"/>
	<path fill="#299DCC" d="M276.04,199.7v56.94c0.07,2.85-1.36,4.31-4.28,4.38h-18.44l-0.1,12.83h27.71c6.59-0.14,10.35-3.8,11.31-11
		v-70.9l4.69,0.1v-6.82v-6.93h-15.18h-55v13.45h40.34C273.05,191.89,276.04,194.54,276.04,199.7z"/>
	<path fill="#299DCC" d="M210.54,195.63c2.51,0,4.69-0.88,6.52-2.65c1.83-1.76,2.75-3.9,2.75-6.42c0-2.51-0.92-4.62-2.75-6.32
		c-1.83-1.7-4.01-2.55-6.52-2.55c-2.58,0-4.79,0.85-6.62,2.55c-1.83,1.7-2.75,3.8-2.75,6.32c0,2.51,0.92,4.65,2.75,6.42
		C205.75,194.75,207.96,195.63,210.54,195.63z"/>
	<path fill="#299DCC" d="M206.57,245.34l-6.01,27.91h16.4l4.18-23.63c3.67-26.55-3.23-43.05-20.68-49.5l0.1,19.05
		C206.6,224.66,208.6,233.38,206.57,245.34z"/>
	<path fill="#299DCC" d="M326.56,258.37c-0.61,0.68-1.6,1.05-2.95,1.12H306.8v14.36h25.57c8.56,0,12.73-4.65,12.53-13.95v-82.2
		h-17.62v23.43h-22.51v16.3h12.53c6.65,0,9.98,3.29,9.98,9.88v28.52C327.27,256.91,327.03,257.76,326.56,258.37z"/>
	<path fill="#299DCC" d="M378.51,257.05v-40.34h22v-16.4h-22V177.7h-17.83l0.1,82.51c0,9.1,4.45,13.65,13.34,13.65h20.17
		c4.41,0.14,6.62-1.9,6.62-6.11v-8.25h-19.96C379.32,259.49,378.51,258.68,378.51,257.05z"/>
	<path fill="#299DCC" d="M489.64,185.65H465.9v-7.95H449.1v7.95h-22.51c-11.14,0-16.77,5.81-16.91,17.42v47.37v6.52v6.72h29.74
		c6.45,0,9.68,2.41,9.68,7.23v2.95h16.81v-10.19h29.03h9.88l0.1-9.68v-51.34C504.98,191.32,499.89,185.65,489.64,185.65z
		 M449.1,250.43h-22.51v-51.54h12.22c6.86,0,10.29,3.33,10.29,9.98V250.43z M488.01,250.43h-2.65H465.9v-51.54h12.02
		c6.72,0,10.08,3.43,10.08,10.29V250.43z"/>
	<path fill="#299DCC" d="M539.24,177.7h-16.5v4.38h-8.35v10.9h4.07c2.85,0,4.28,1.9,4.28,5.7v25.47h-8.76v11.61h10.29
		c-3.4,1.9-6.55,3.02-9.47,3.36l-0.1,14.46l3.97-0.92v3.57h27.4c5.23,0,7.84,1.15,7.84,3.46v1.73h-39.93v12.43h88.42
		c5.16,0,7.74-2.07,7.74-6.21v-6.21h-39.83v-5.19h35.45v-3.67l3.77,0.81l0.1-14.36c-4.07-0.27-7.54-1.36-10.39-3.26h10.9v-11.61
		h-8.25v-31.17h7.44v-10.9h-7.44v-4.38h-16.5v4.38h-46.14V177.7z M539.24,206.32h40.03c4.07,0,6.11,0.99,6.11,2.95v1.12h-46.14
		V206.32z M539.24,219.67h40.03c4.07,0,6.11,1.05,6.11,3.16v1.32h-46.14V219.67z M589.26,245.34h-18.95v-5.6h-16.4v5.6l-18.84,0.1
		c5.43-2.92,9.57-6.14,12.43-9.68h30.56C581.04,239.97,584.78,243.16,589.26,245.34z M579.07,192.98c4.21,0,6.32,0.99,6.32,2.95
		v1.12h-46.14v-4.07H579.07z"/>
	<polygon fill="#299DCC" points="404.63,155.5 385.37,155.5 403.47,139.98 403.47,132.67 370.7,132.67 370.7,139.98 387.09,139.98 
		369.15,155.5 369.15,162.81 404.63,162.81 	"/>
	<path fill="#299DCC" d="M425.23,162.53v-29.87h-10.61l-0.02,24.29c0,1.73-1.41,3.14-3.14,3.14h-4.42v9.3h11.32
		C422.15,169.4,425.23,166.33,425.23,162.53z"/>
	<path fill="#299DCC" d="M469.09,615.02c0-38.16-30.93-69.09-69.09-69.09s-69.09,30.93-69.09,69.09c0,38.16,30.93,69.09,69.09,69.09
		S469.09,653.18,469.09,615.02z M461.1,615.02c0,4.34-0.46,8.56-1.32,12.65c-1.26-1.78-2.98-4.09-5.32-6.96c0,0,3.27-9.3,0.39-18.49
		c-1.39-4.44-2.68-8.57-5.63-11.81c0.95-2.35,2.14-4.85,3.14-6.84C457.9,592.75,461.1,603.52,461.1,615.02z M338.9,615.02
		c0-4.23,0.43-8.37,1.26-12.36c3.07,7.1,7.4,12.36,7.4,12.36c-0.94,11.25,4.26,22.13,4.26,22.13c-2.04,3.51-3.12,7.06-3.69,10.11
		C342.29,637.9,338.9,626.85,338.9,615.02z M431.92,667.09c-2.48-2.49-5.82-6.33-8.68-11.34c0,0-7.31,7.31-16.86,7.97
		s-16.03,0-29.15-14.78c0,0,5.98,10.46,13.95,16.28c0,0-0.44,5.49-5.67,9.15c-15.09-3.68-27.99-12.98-36.37-25.55
		c1.82-5.81,4.51-9.68,4.51-9.68c10.3,6.14,22.75,6.48,22.75,6.48s0.83-14.78,3.99-21.92c3.16-7.14,29.4-12.46,29.4-12.46
		c-17.77,0-27.57,4.98-27.57,4.98c-10.8-8.47-13.78-21.92-13.78-21.92c-15.28,9.8-17.94,17.94-17.94,17.94
		c-4.95-2.99-8.14-7.24-10.08-10.68c3.85-17.03,14.82-31.38,29.61-39.75l6.54,6.91c0,0-7.64,12.79-7.14,22.09
		c0,0,5.92-26.35,22.75-26.35c16.83,0,16.83,0,16.83,0l0.52-9.79c17.51,2.75,32.55,12.97,41.8,27.28c-1.3,2.9-3.36,4.73-5.17,5.84
		c-3.16-2.08-7.63-3.53-14.24-4.07c-4.98-0.55-3.66-2.49-10.19-8.97c-5.81-5.77-9.96-8.19-9.96-8.19s10.63,11.79,13.95,17.77
		c3.32,5.98-9.96,26.74-9.96,26.74s12.46,9.3,16.28,15.45c3.19,5.13-3.22,19.27-5.43,23.81c2.24-4.47,9.08-18,10.74-19.66
		c1.99-1.99,6.14-5.31,11.29-7.64c4.11-1.85,7.79,2,10.54,7.17C455.2,645.74,445.24,658.9,431.92,667.09z"/>
	<path fill="#299DCC" d="M426.61,650.33c-0.45,0.89-0.71,1.43-0.71,1.43S426.17,651.23,426.61,650.33z"/>
</g>
<g>
</g>
<g>
</g>
<g>
</g>
<g>
</g>
<g>
</g>
<g>
</g>
<g>
</g>
<g>
</g>
<g>
</g>
<g>
</g>
<g>
</g>
</svg>
