<?xml version="1.0" encoding="utf-8"?>
<!-- Created by @FCLOGO 2023-10-5 GMT+8 21:34:33 . https://fclogo.top/ -->
<!-- FOR PERSONAL USE ONLY NOT FOR COMMERCIAL USE -->
<svg version="1.1" xmlns="http://www.w3.org/2000/svg" xmlns:xlink="http://www.w3.org/1999/xlink" x="0px" y="0px"
	 viewBox="0 0 800 800" style="enable-background:new 0 0 800 800;" xml:space="preserve">
<style type="text/css">
	.st0{fill:url(#SVGID_1_);}
	.st1{fill:#013F94;}
	.st2{fill:#EE8F01;}
	.st3{fill:#FFFFFF;}
	.st4{fill:#960651;}
	.st5{fill:#72A729;}
	.st6{fill:#05093B;}
	.st7{fill:#F9F9EC;}
</style>
<g>
	<g>
		<linearGradient id="SVGID_1_" gradientUnits="userSpaceOnUse" x1="146.0858" y1="400" x2="653.9142" y2="400">
			<stop  offset="0" style="stop-color:#B2B2B1"/>
			<stop  offset="0.2542" style="stop-color:#FFFFFF"/>
			<stop  offset="0.4944" style="stop-color:#B2B2B1"/>
			<stop  offset="0.7402" style="stop-color:#FFFFFF"/>
			<stop  offset="1" style="stop-color:#B2B2B1"/>
		</linearGradient>
		<path class="st0" d="M400.2,60c96,89.1,243.7,126,243.7,126s2.7,14,2.7,74.8c0,335.9-247.2,480.7-247.2,480.7
			s-245.9-141.8-245.9-490c0-47.4,3.3-65.7,3.3-65.7S293.7,155,400.2,60 M400.3,50l-5,4.5c-54.1,48.3-116.5,79.5-159.2,97.1
			c-46.5,19.2-80.5,26.9-80.9,27l-4.8,1.1l-0.9,4.8c-0.1,0.8-3.4,19.5-3.4,67c0,80.3,13.1,156.3,38.9,226
			c20.7,55.8,49.5,107.6,85.6,154.1c32.2,41.3,64.4,70.7,85.7,88c23.2,18.9,38.7,27.9,39.4,28.3l3.7,2.1l3.7-2.2
			c0.7-0.4,16.2-9.6,39.5-28.5c21.4-17.4,53.8-46.8,86.1-87.7c36.3-46,65.3-96.9,86.1-151.4c26-68.1,39.1-141.9,39.1-219.4
			c0-60.8-2.7-75.5-2.8-76.1l-0.9-4.6l-4.6-1.1c-0.4-0.1-37.1-9.4-85-29.4c-44-18.3-106.7-49.7-155.4-94.9L400.3,50L400.3,50z"/>
		<path class="st1" d="M400.2,60c96,89.1,243.7,126,243.7,126s2.7,14,2.7,74.8c0,335.9-247.2,480.7-247.2,480.7
			s-245.9-141.8-245.9-490c0-47.4,3.3-65.7,3.3-65.7S293.7,155,400.2,60z"/>
		<path class="st2" d="M400,80.9c49.5,42.5,109.3,72.2,152,90c34.3,14.3,62.7,23.2,77.3,27.4c0.7,9.9,1.5,28.7,1.5,62.5
			c0,74.4-12.5,145.2-37.3,210.4c-19.8,52.2-47.4,101-82.1,145.1c-30.9,39.4-61.9,67.6-82.5,84.4c-12.7,10.4-23.1,17.8-29.7,22.2
			c-6.6-4.4-16.9-11.7-29.5-22c-20.4-16.7-51.2-44.9-81.9-84.6c-34.5-44.5-61.9-94.2-81.6-147.7c-24.6-66.9-37.1-139.9-37.1-217.1
			c0-26.4,1.1-43.5,1.9-53.1c14-3.8,40.6-11.8,73.4-25.3C286.2,155.8,346,126.2,400,80.9 M400.2,60
			c-106.5,95-243.4,125.8-243.4,125.8s-3.3,18.3-3.3,65.7c0,348.2,245.9,490,245.9,490s247.2-144.8,247.2-480.7
			c0-60.8-2.7-74.8-2.7-74.8S496.2,149.1,400.2,60L400.2,60z"/>
	</g>
	<g>
		<polygon class="st3" points="206.1,190.3 235.3,190.3 240.2,235.9 274.3,190.3 303.7,190.3 248.2,255.1 237.3,290.7 210.3,290.7 
			221.7,255.1 		"/>
		<g>
			<path class="st3" d="M360.6,236l-2.1-5.6l46.5-40.1h-29.3L329.3,231l12.6-40.7h-27.1l-31.3,100.5H312l7.1-26.3l17.4-15.1l1.9,5.5
				C341,251.9,350.8,241,360.6,236z"/>
			<path class="st3" d="M341,262.5l9.7,28.2h30.6l-17.1-45.2C349.3,254.4,343.1,260.2,341,262.5z"/>
		</g>
		<g>
			<path class="st3" d="M429,232.7c3.8-6,9.3-12.4,15.1-16.7c7.3-5.4,15.3-7,21.1-6.9c14.3,0.2,18.9,8.2,18.9,8.2l18.6-15.6
				c0,0-10.6-13.5-32.7-13.5c-34.8,0-58.7,20.9-69.1,43.6C407.1,231.5,425.3,232.5,429,232.7z"/>
			<path class="st3" d="M447.8,247.1c18.2,4.9,29.4,14,29.4,14s-8.7-2.8-13.8-3.8l-3.8,11.9c-6.7,2.8-8.5,2.1-13.2,2.1
				c-16.3,0-20.7-7.1-21.9-16c-2.1,0.2-10.2,1-22.8,5.8c0.7-2.6,1.9-10.7,6.2-14.2c-3.2-0.5-10.1,0.9-11.8,1.2
				c-0.5,2.9-0.7,5.8-0.7,8.5c0,19.2,9.7,35.7,44.6,35.7c28.2,0,41.8-12.8,41.8-12.8l12.8-45.8h-41.7L447.8,247.1z"/>
		</g>
		<polygon class="st3" points="518.6,190.1 608.3,190.2 602.5,210.7 570.9,210.7 547,290.8 518.6,290.8 544.2,210.6 512.8,210.6 		
			"/>
		<rect x="504.9" y="304.6" class="st3" width="94.6" height="2.8"/>
		<rect x="205" y="304.6" class="st3" width="94.6" height="2.8"/>
		<g>
			<path class="st3" d="M309.3,305.3c0,0,0,0.1-0.1,0.1c0-0.1,0-0.1-0.1-0.1l0,0l-2.3-4.4h-2l3.4,6.4v3.7h1.8v-3.7l3.5-6.4h-1.9
				L309.3,305.3z"/>
			<path class="st3" d="M320.6,306.9c0,1.7-0.7,2.5-2,2.5c-1.4,0-2.1-0.9-2.1-2.6v-5.9h-1.6v6c0,2.7,1.2,4.1,3.6,4.1
				c2.5,0,3.7-1.4,3.7-4.2v-5.8h-1.6V306.9z"/>
			<path class="st3" d="M331.8,300.9h-2.1l-2.2,3.4c-0.1,0.1-0.1,0.2-0.2,0.3c-0.1-0.1-0.1-0.2-0.2-0.3l-2.1-3.4h-2.2l3.3,5
				l-3.6,5.1h2.2l2.4-3.7c0,0,0-0.1,0-0.1c0,0,0,0.1,0.1,0.1l2.4,3.7h2.2l-3.4-5.1L331.8,300.9z"/>
			<rect x="332.4" y="300.9" class="st3" width="1.8" height="10.1"/>
			<path class="st3" d="M344,305.3c0,0,0,0.1-0.1,0.1c0-0.1,0-0.1-0.1-0.1l0,0l-2.3-4.4h-2l3.4,6.4v3.7h1.8v-3.7l3.5-6.4h-1.9
				L344,305.3z"/>
			<path class="st3" d="M355.9,306.9c0,1.7-0.7,2.5-2.3,2.5c-1.6,0-2.4-0.9-2.4-2.6v-5.9h-1.8v5.9c0,2.7,1.4,4.1,4,4.1
				c2.8,0,4.2-1.4,4.2-4.2v-5.8h-1.8V306.9z"/>
			<polygon class="st3" points="367.5,301.1 365.2,301.1 361.5,305.2 361.5,301.1 359.7,301.1 359.7,311 361.5,311 361.5,306.7 
				365.3,311 367.8,311 363,305.8 			"/>
			<path class="st3" d="M374.8,306.9c0,1.7-0.7,2.6-2.3,2.6c-1.6,0-2.4-0.9-2.4-2.6v-5.9h-1.8v6c0,2.7,1.4,4.1,4,4.1
				c2.8,0,4.2-1.4,4.2-4.3v-5.9h-1.8V306.9z"/>
			<path class="st3" d="M385.1,307.8c0,0.2,0,0.4,0,0.6l-4.7-7.4h-1.9V311h1.7v-7c0-0.2,0-0.3,0-0.5l4.8,7.5h1.8v-10.1h-1.7V307.8z"
				/>
			<polygon class="st3" points="392.4,311 394.4,311 394.4,306.8 398.4,306.8 398.4,305.2 394.4,305.2 394.4,302.4 398.7,302.4 
				398.7,300.9 392.4,300.9 			"/>
			<path class="st3" d="M404.2,300.9c-1.6,0-2.9,0.5-3.8,1.4c-0.9,0.9-1.4,2.2-1.4,3.8c0,1.5,0.5,2.7,1.4,3.6
				c0.9,0.9,2.2,1.4,3.7,1.4c1.6,0,2.8-0.5,3.8-1.4c0.9-0.9,1.4-2.2,1.4-3.8c0-1.5-0.5-2.7-1.4-3.6
				C406.9,301.4,405.6,300.9,404.2,300.9z M407.3,306.1c0,1.1-0.3,2-0.9,2.7c-0.6,0.6-1.4,0.9-2.4,0.9c-1,0-1.7-0.3-2.3-1
				c-0.6-0.7-0.9-1.5-0.9-2.6c0-1.1,0.3-2,0.9-2.6c0.6-0.7,1.4-1,2.4-1c1,0,1.8,0.3,2.3,0.9C407,304,407.3,304.9,407.3,306.1z"/>
			<path class="st3" d="M415,300.9c-1.6,0-2.9,0.5-3.8,1.4c-0.9,0.9-1.4,2.2-1.4,3.8c0,1.5,0.5,2.7,1.4,3.6c0.9,0.9,2.2,1.4,3.7,1.4
				c1.6,0,2.8-0.5,3.8-1.4c0.9-0.9,1.4-2.2,1.4-3.8c0-1.5-0.5-2.7-1.4-3.6C417.7,301.4,416.5,300.9,415,300.9z M414.9,309.6
				c-1,0-1.7-0.3-2.3-1c-0.6-0.7-0.9-1.5-0.9-2.6c0-1.1,0.3-2,0.9-2.6c0.6-0.7,1.4-1,2.4-1c1,0,1.8,0.3,2.3,0.9
				c0.6,0.6,0.9,1.5,0.9,2.7c0,1.1-0.3,2-0.9,2.7C416.7,309.3,415.9,309.6,414.9,309.6z"/>
			<polygon class="st3" points="420.6,302.6 423.7,302.6 423.7,311 425.5,311 425.5,302.6 428.6,302.6 428.6,301.1 420.6,301.1 			
				"/>
			<path class="st3" d="M435,305.6c0.4-0.2,0.7-0.4,0.9-0.7c0.4-0.4,0.6-1,0.6-1.5c0-0.7-0.3-1.3-1-1.8c-0.6-0.4-1.5-0.7-2.6-0.7
				h-3.6V311h3.7c1.2,0,2.1-0.3,2.9-0.8c0.8-0.6,1.2-1.3,1.2-2.2c0-0.7-0.3-1.3-0.8-1.8C435.9,305.9,435.5,305.7,435,305.6z
				 M435,308c0,0.5-0.2,0.8-0.5,1.1c-0.4,0.3-0.9,0.4-1.6,0.4h-1.5v-2.9h1.3C434.7,306.5,435,307.4,435,308z M431.3,305v-2.6h1.2
				c1.7,0,1.9,0.7,1.9,1.2c0,0.5-0.2,0.8-0.5,1.1c-0.4,0.3-0.9,0.4-1.5,0.4H431.3z"/>
			<path class="st3" d="M441.4,300.9l-4.1,10.1h2l1-2.6h4l1,2.6h2l-4.1-10.1H441.4z M442.3,303.2l1.4,3.6h-2.8L442.3,303.2z"/>
			<polygon class="st3" points="449.7,300.9 447.7,300.9 447.7,311 454.2,311 454.2,309.5 449.7,309.5 			"/>
			<polygon class="st3" points="457.3,300.9 455.2,300.9 455.2,311 462.3,311 462.3,309.5 457.3,309.5 			"/>
			<path class="st3" d="M471.5,300.9c-1.6,0-2.9,0.5-3.9,1.5c-1,1-1.5,2.3-1.5,3.8c0,1.5,0.5,2.7,1.4,3.6c0.9,0.9,2.2,1.4,3.7,1.4
				c1.2,0,2.2-0.2,2.9-0.6l0.1-0.1v-1.7l-0.4,0.2c-0.7,0.4-1.6,0.6-2.5,0.6c-1,0-1.8-0.3-2.5-0.9c-0.6-0.6-0.9-1.5-0.9-2.6
				c0-1.1,0.3-2.1,1-2.7c0.7-0.7,1.5-1,2.6-1c0.8,0,1.6,0.2,2.3,0.5l0.3,0.2v-1.8l-0.1-0.1C473.4,301,472.5,300.9,471.5,300.9z"/>
			<polygon class="st3" points="477.3,300.9 475.4,300.9 475.4,311 481.9,311 481.9,309.5 477.3,309.5 			"/>
			<path class="st3" d="M488.6,306.9c0,1.7-0.7,2.6-2,2.6c-1.4,0-2.1-0.9-2.1-2.6v-5.9h-1.6v6c0,2.7,1.2,4.1,3.5,4.1
				c2.4,0,3.7-1.4,3.7-4.3v-5.9h-1.6V306.9z"/>
			<path class="st3" d="M498.7,306.2c-0.3-0.3-0.7-0.5-1.2-0.7c0.3-0.2,0.6-0.4,0.9-0.7c0.4-0.4,0.6-1,0.6-1.5c0-0.7-0.3-1.3-1-1.8
				c-0.6-0.4-1.5-0.7-2.5-0.7H492V311h3.6c1.1,0,2.1-0.3,2.8-0.8c0.7-0.6,1.1-1.3,1.1-2.2C499.5,307.3,499.2,306.7,498.7,306.2z
				 M496.4,304.6c-0.3,0.3-0.8,0.4-1.5,0.4h-1.1v-2.6h1.2c1.6,0,1.8,0.7,1.8,1.2C496.9,304,496.8,304.4,496.4,304.6z M493.9,306.5
				h1.2c2.1,0,2.3,0.8,2.3,1.4c0,0.5-0.2,0.8-0.5,1.1c-0.4,0.3-0.9,0.4-1.6,0.4h-1.5V306.5z"/>
		</g>
		<path class="st4" d="M315.8,297.4l0.7-4c0-0.2,2.7-15.2,14.5-32.8c10.9-16.2,31.9-37.9,70.5-49.2l1.1-0.3l-0.6,1
			c-4.6,8.1-7.6,13.1-8.7,15c5-0.8,28.2-4.1,46.1-0.2l0.9,0.2L426,239c6.7-0.2,36.3,0.3,59.7,20.7l3.3,2.8l-3.8-2.1
			c-38.9-21.4-82.3-3.7-82.7-3.5l-1.3,0.5l8.8-14.8c-24.3,1.1-39.4,12.4-39.6,12.6l-1,0.8l3.4-16.5c-38.9,15.9-55.3,53.9-55.4,54.3
			L315.8,297.4z M400.6,212.7c-37.6,11.3-58.2,32.5-68.8,48.4c-8,11.9-11.8,22.7-13.4,28.3c5.4-10.3,22.5-38.4,54.8-51.2l0.8-0.3
			l-3.3,15.9c3.8-2.5,18.4-11.4,40-12.1l0.8,0l-8.2,13.9c7.2-2.6,43.9-14.6,78.4,2C456.1,237.9,425,240,424.6,240l-1.5,0.1
			l15.1-12.4c-19.7-4-45.5,0.5-45.8,0.6l-1,0.2l0.5-0.9C392.1,227.5,395,222.5,400.6,212.7z"/>
	</g>
	<g>
		<path class="st2" d="M225.5,321.3v108.3c-9.6-32.5-16.5-68.5-19.2-108.3H225.5z"/>
		<path class="st2" d="M295.5,321.2v249.6c-10.6-14.4-21.1-30.4-31-48.1V321.2H295.5z"/>
		<polygon class="st2" points="365.5,321.2 365.5,562.5 334.5,616.2 334.5,321.2 		"/>
		<polygon class="st2" points="504.8,321.3 474.5,373.7 474.5,321.3 		"/>
		<polygon class="st2" points="435.5,321.3 435.5,441.2 404.5,494.9 404.5,321.3 		"/>
	</g>
	<g>
		<circle class="st1" cx="400" cy="467" r="77"/>
		<circle class="st3" cx="400" cy="467" r="73.9"/>
		<g>
			<g>
				<path class="st5" d="M438.9,525.2c-0.1-0.1-0.2,0-0.2,0c-0.1,0.1-0.2,0.2-0.3,0.3l0,0l0,0c-0.4,0.2-0.8,0.5-1.1,0.7
					c-0.3,0.1-0.5,0.3-0.7,0.5c-0.3,0.3-0.6,0.4-0.9,0.4c-0.2,0-0.4,0.1-0.4,0.3c0,0.3-0.1,0.4-0.3,0.5c-0.4,0.4-1,0.5-1.5,0.9
					c-0.5,0.4-1,0.5-1.6,0.1c-0.1-0.1-0.3,0-0.3,0.1c-0.1,0.1-0.2,0.2-0.2,0.3c-0.1,0.4-0.4,0.5-0.8,0.4c-0.4-0.1-0.6,0-0.8,0.4
					c-0.2,0.4-0.4,0.6-0.8,0.8c-0.4,0.2-0.8,0.4-1.2,0.5c-0.7,0.1-1.2,0.5-1.7,1c-0.3,0.3-0.6,0.5-1,0.6c-0.6,0.1-1.2,0.2-1.6,0.6
					c-0.5,0.4-1,0.7-1.7,0.8c-0.3,0.1-0.6,0.1-0.8,0.4c-0.3,0-0.5,0.1-0.8,0.1c-0.3,0-0.6,0.1-0.9,0.3c0,0-0.1,0.1,0,0.2
					c0,0,0.1,0.1,0.1,0.1c0.6-0.1,1.2-0.1,1.7-0.4l0,0c1.1-0.1,2.2-0.5,3.2-1c0.2-0.1,0.5-0.2,0.7-0.3c0.9-0.4,1.9-0.7,2.8-1.2
					c1.3-0.7,2.6-1.4,4-1.9c1.2-0.5,2.4-1,3.3-1.9c0,0,0.1-0.1,0.2-0.1c1.2-0.6,2.1-1.6,3-2.6c0.3-0.1,0.3-0.4,0.5-0.6
					C438.9,525.3,438.9,525.2,438.9,525.2z"/>
				<path class="st5" d="M439.5,434.6c0.1,0.2,0.1,0.4-0.1,0.6c-0.2,0.2-0.3,0.3-0.3,0.6c0,0.4-0.1,0.7-0.4,0.9
					c-0.1,0.1-0.2,0.3-0.2,0.5c0,0.2-0.1,0.3-0.1,0.5c-0.1,0.3,0.2,0.5,0.4,0.3c0.4-0.2,0.7-0.3,1.1-0.1c0.2,0.1,0.5,0,0.6-0.2
					c0.3-0.3,0.6-0.3,1-0.3c0.2,0,0.4,0,0.6,0c0.1,0,0.3-0.1,0.3-0.2c0.3-0.3,0.5-0.7,0.3-1c-0.2-0.4-0.2-0.7,0.1-1
					c0.3-0.4,0.2-0.8,0.3-1.3c0-0.4-0.3-0.6-0.5-0.8c-0.3-0.3-0.6-0.7-0.9-1c-0.3-0.3-1.2,0-1.3,0.4c0,0,0,0.1,0,0.1
					c0,0.1,0,0.1,0.1,0.2c0.1,0.2,0,0.4-0.2,0.5c-0.3,0.2-0.8,0.1-0.9,0.4C439,434,439.4,434.3,439.5,434.6z"/>
				<path class="st5" d="M463,441.8c0,0,0-0.1,0-0.1c0,0-0.1,0-0.1,0.1C462.9,441.7,462.9,441.8,463,441.8z"/>
				<path class="st5" d="M462.9,441.6c0,0,0,0.1,0,0.1c0.1,0,0.1-0.1,0.1-0.2l0,0C463,441.6,463,441.6,462.9,441.6z"/>
				<path class="st5" d="M442.8,431.2C442.8,431.3,442.8,431.3,442.8,431.2c-0.1,0.3,0,0.5,0.2,0.5c0.3,0,0.6-0.1,1-0.1
					c0.3,0,0.5,0.2,0.3,0.5c0,0.1-0.1,0.2-0.1,0.2c-0.3,0.3-0.3,0.7-0.2,1.1c0.1,0.4,0.3,0.7,0.6,0.9c0.4,0.3,0.7,0.6,1.2,0.8
					c0.5,0.2,0.7,0.7,0.9,1c0.1,0.2,0,0.2-0.2,0.3c-0.1,0-0.3,0-0.3,0.1c0,0.1,0,0.3,0.1,0.4c0,0.1,0.1,0.1,0.2,0.2
					c0.1,0.1,0.2,0.2,0.2,0.3c0.1,0.1,0,0.3-0.1,0.4c-0.1,0.1-0.2,0-0.3,0c-0.5-0.2-1-0.5-1.1-1.1c0,0,0,0-0.1-0.1
					c-0.1-0.2-0.4-0.3-0.5-0.2c-0.1,0.1-0.1,0.3-0.1,0.4c0.1,0.3,0.3,0.6,0.4,0.9c0.2,0.7-0.1,1-0.9,0.9c0,0-0.1,0-0.1,0
					c-0.3,0-0.7,0.1-0.7,0.2c0,0.2,0.3,0.2,0.4,0.3c0.2,0.2,0.4,0.3,0.7,0.2c0.7-0.2,1.2,0.3,1.8,0.5c0.1,0,0.2,0.2,0.2,0.3
					c0,0.1-0.1,0.2-0.3,0.2c-0.2,0-0.3,0-0.5,0c-0.5-0.1-0.9,0.1-1.1,0.5c-0.1,0.2-0.3,0.2-0.5,0.2c-0.7-0.1-1,0.4-1.3,0.9
					c0,0,0,0.1,0,0.2c0.1,0.1,0.2,0.1,0.2,0.1c0.2-0.1,0.5-0.2,0.7-0.3c0.5-0.2,0.9-0.1,1.2,0.4c0.1,0.2,0.1,0.4,0.3,0.4
					c0.4,0.1,0.5,0.4,0.8,0.7c0,0.2,0.1,0.3,0.3,0.3c0.1,0,0.1-0.1,0.1-0.2l0,0l0,0c-0.1-0.3-0.1-0.6-0.2-0.9c0-0.1,0-0.2,0.1-0.2
					c0.1,0,0.2,0,0.3,0c0.5,0.4,1.1,0.4,1.7,0.4c0.4,0,0.8,0,0.9,0.5c0.1,0.2,0.2,0.2,0.4,0.3c0.1,0,0.1,0,0.2,0
					c0.2-0.2,0.2-0.7,0-0.9c-0.4-0.5-0.4-0.5-0.1-1c0.1-0.1,0.2-0.2,0.2-0.3c0.5-0.8,0.3-1.4-0.5-1.9c-0.2-0.1-0.4-0.2-0.5-0.4
					c0-0.1-0.2-0.2-0.1-0.3c0.1-0.2,0.3,0,0.4,0.1c0.3,0.2,0.6,0.4,0.9,0.6c0,0.2,0.1,0.3,0.3,0.3c0.1,0,0.1,0-0.1-0.3
					c0,0-0.1-0.1-0.1-0.1l0,0l0,0c-0.2-0.4-0.6-0.5-0.7-0.9c-0.2-0.5-0.5-0.8-0.8-1.2c-0.5-0.6-0.9-1.1-1.2-1.8
					c-0.3-0.7-0.6-1.4-1.4-1.8c-0.2-0.1-0.3-0.3-0.1-0.5c0.4-0.5,0.3-1.1,0.5-1.6c0.1-0.4,0-0.7-0.4-0.8c-0.3-0.1-0.5-0.2-0.8-0.3
					c-0.2-0.1-0.4-0.2-0.5-0.4c-0.1-0.2-0.2-0.3,0-0.5c0.1-0.1,0.1-0.1,0.2-0.2c0.1-0.2,0-0.4-0.2-0.5c-0.1,0-0.3-0.1-0.4-0.1
					c-0.5,0-0.8-0.2-1.1-0.7c0-0.1-0.1-0.1-0.1-0.2c0,0-0.1-0.1-0.2-0.1c-0.1,0-0.2,0.1-0.2,0.2c-0.1,0.3,0,0.5,0.1,0.7
					C443.2,429.5,443.5,430.4,442.8,431.2z"/>
				<path class="st5" d="M437.2,416.7c-0.2-0.3-0.4-0.5-0.8-0.6c-0.2,0-0.4-0.1-0.6-0.1c-0.3,0-0.5-0.2-0.7-0.4
					c-0.1-0.2-0.3-0.4-0.4-0.6c-0.2-0.5-0.6-0.7-1.2-0.6c-0.4,0-0.8,0.1-1.2,0c-0.3-0.1-0.5-0.1-0.7,0.3c-0.1,0.3-0.3,0.3-0.6,0.1
					c-0.1-0.1-0.1-0.1-0.2-0.2c-0.2-0.1-0.4-0.4-0.7-0.5c-0.2,0.3,0.2,0.5,0.3,0.7c0,0.1,0.1,0.1,0.1,0.2c0,0.1,0,0.2-0.1,0.3
					c-0.1,0.1-0.2,0.1-0.3,0c-0.4-0.3-0.8-0.6-0.9-1.2c-0.2-0.9-0.9-1.3-1.8-1.5c-0.1,0-0.2,0.1-0.3,0.1c0,0.3,0.4,0.3,0.5,0.5
					c0.1,0.2,0,0.4-0.2,0.4c-0.5,0-1,0.1-1.5,0.1c0,0.2,0.1,0.3,0.3,0.3c0.4,0.1,0.8,0.1,1.2,0.2c0.3,0.1,0.5,0.2,0.7,0.5
					c0.2,0.2,0.3,0.4,0.1,0.7c-0.1,0.2,0.1,0.3,0.2,0.4c0.2,0.1,0.5,0.2,0.7,0.3c0.2,0.1,0.4,0.3,0.4,0.5c-0.1,0.4,0.1,0.5,0.4,0.6
					c0.5,0.2,1,0.3,1.4,0.7c0.2,0.2,0.4,0.2,0.6,0.2c0.2,0,0.4-0.1,0.6-0.2c0.3-0.2,0.4-0.1,0.7,0.1c0.1,0.1,0.1,0.1,0.2,0.2
					c0.2,0.3,0.5,0.3,0.8,0.2c0.4-0.2,0.7-0.1,1.1,0c0.5,0.1,1,0,1.4-0.4c0.2-0.2,0.3-0.3,0.5-0.4c0,0,0.1-0.1,0.1-0.1
					C437.4,417.2,437.3,416.9,437.2,416.7z"/>
				<path class="st5" d="M471.1,464.3c-0.1,0-0.1,0.1-0.2,0.1c-0.3,0.5-0.6,1-0.8,1.5c-0.1,0.1-0.1,0-0.2-0.1
					c0.2-0.4,0.3-0.8,0.6-1.2c0.2-0.3,0.1-0.7,0.4-0.9l0,0c0.2-0.3,1.3-0.8,1.3-1.1c-0.2-4.1-0.8-8.2-1.7-12.2
					c-0.8-3.8-2.1-7.5-3.5-11.2c-0.4-1-0.7-1.9-1.5-3.5c-0.7-1-1.2-1.3-1.6-2.1c-0.2,0.1-0.6,0.5-0.6,0.7c-0.6-0.9-1-1.8-1.5-2.8h0
					c-0.1-0.2-0.3-0.4-0.4-0.6l0,0v0c-0.2-0.2-0.3-0.5-0.6-0.6c0,0,0,0,0,0c0,0,0,0,0,0c-0.2-0.1-0.5-0.2-0.7-0.3
					c0.1,0,0.2-0.1,0.3-0.1c0.2,0.1,0.4-0.1,0.4-0.2l0,0c-0.1-0.1-0.1-0.1-0.1-0.2c0,0,0,0,0,0l0,0c0,0,0,0,0,0c0,0,0,0,0,0
					c0,0-0.1,0-0.1,0l-0.1-0.1c0-0.1,0-0.1,0.1-0.2c0,0.1,0.1,0.2,0.1,0.3c0,0,0,0,0,0v0c0,0,0,0,0,0c0.1,0.1,0.1,0.1,0.1,0.2h0
					c0.1,0,0.1,0.1,0.1,0.2c0,0,0.1,0.1,0.1,0.1c0,0.1,0.1,0.2,0.2,0.2c0.1,0,0.2,0.1,0.3,0.1c0,0.1-0.1,0.2-0.1,0.3
					c0.2,0.2,0.4,0.3,0.7,0.5c0,0,0,0,0,0c0,0,0,0,0,0c0,0,0,0,0,0c0,0,0,0.1,0,0.1c0,0,0,0.1-0.1,0c0.2,0,0.2-0.1,0.1-0.2
					c0-0.4-0.2-0.7-0.5-1v0c-0.2-0.3-0.3-0.6-0.5-0.9c-0.9-1.5-1.8-3-3-4.4c-0.3-0.3-0.6-0.7-0.8-1.1c-0.2-0.4-0.4-0.7-0.8-1
					c-0.3-0.3-0.6-0.6-0.8-1c-0.2-0.4-0.5-0.8-0.7-1.1c-0.5-0.6-1.2-1-1.6-1.6c0-0.1-0.2-0.1-0.3-0.1c-0.1-0.2-0.2-0.3-0.4-0.3
					c0,0-0.1,0-0.2,0c0,0.1,0,0.1,0.1,0.2c0.1,0.1,0.2,0.2,0.3,0.3v0c0.1,0.2,0.3,0.4,0.4,0.7c0,0,0,0.1,0,0.2c0,0-0.1,0.1-0.2,0.1
					c-0.4-0.1-0.9-0.2-1.2-0.6c-0.1-0.1-0.3-0.1-0.4,0c-0.1,0.1-0.1,0.3-0.1,0.4c0.1,0.2,0.2,0.4,0.4,0.5c0.2,0.1,0.4,0.1,0.5,0.3
					c0.2,0.4,0.6,0.7,0.6,1.2c0,0.3,0,0.6,0.2,0.8c0.2,0.3,0.2,0.6,0,0.9c-0.2,0.3-0.1,0.6,0.1,0.9c0.4,0.3,0.5,0.8,0.5,1.2
					c0,0.6,0.1,1.2-0.3,1.7c-0.1,0.1-0.1,0.2-0.1,0.4c-0.1,0.4-0.4,0.6-0.8,0.7c-0.2,0.1-0.4,0.1-0.7,0.1c-0.3,0-0.5,0.2-0.5,0.5
					c0,0.2-0.1,0.4,0,0.6c0,0.5,0.2,0.9,0.2,1.4c0,0.4,0.2,0.8,0.4,1.1c0.2,0.3,0.5,0.6,0.5,1c0,0.5,0.1,0.8,0.6,0.9
					c0.1,0,0.2,0.2,0.3,0.3c0.1,0.2,0.2,0.5,0.4,0.7c0.6,0.2,0.8,0.2,1-0.3c0.2-0.4,0.3-0.8,0.5-1.1c0-0.1,0.1-0.2,0.2-0.2
					c0.1,0,0.2,0.1,0.2,0.2c0.2,0.3-0.1,0.6,0.1,0.9c0.1,0.3,0.4,0.5,0.5,0.8c0,0.2,0.1,0.4,0.2,0.6c0.2,0.4,0.4,0.8,0.8,1.1
					c0.6,0.4,0.7,1,0.5,1.7c-0.1,0.3-0.2,0.5-0.3,0.8c-0.1,0.4-0.1,0.8,0.2,1.2c0.2,0.3,0.5,0.6,0.7,0.9c0.2,0.2,0.5,0.2,0.6-0.1
					c0-0.1,0.1-0.2,0.1-0.3c0.3-0.9,0.6-1.9,0.4-2.9c0-0.1,0-0.3,0-0.4c0-0.4,0.1-0.8,0.5-1.1c0.3-0.2,0.3-0.4,0.2-0.7
					c-0.2-0.3-0.4-0.7-0.6-1c-0.4-0.5-0.7-1.1-0.8-1.7c0-0.2-0.1-0.5-0.2-0.7c-0.1-0.5-0.1-0.9,0.2-1.3c0.3-0.4,0.3-0.8,0.1-1.3
					c-0.2-0.5-0.4-1-0.9-1.3c-0.1,0-0.2-0.2-0.2-0.3c-0.2-0.4-0.4-0.9-0.7-1.3c0,0,0-0.1,0-0.1c0.3,0,0.5,0.2,0.8,0.3
					c0.2,0.2,0.4,0.4,0.6,0.6c0.2,0.3,0.5,0.5,0.7,0.8c0.2,0.3,0.6,0.3,0.7,0.6c-0.3,0.3,0.1,0.5,0.1,0.7c-0.1,0.3,0.1,0.6-0.2,0.8
					c-0.3,0.3-0.3,0.6-0.1,0.9c0.3,0.6,0.5,1.3,0.6,2c0.1,0.8,0.6,1.5,0.9,2.3c0.1,0.3,0.4,0.5,0.7,0.5c0.5,0.1,0.8,0.4,1.1,0.8
					c0.3,0.4,0.6,0.8,1.1,1c0.1,0,0.1,0.1,0.2,0.1c0.2,0.2,0.3,0.5,0.1,0.7c-0.1,0.2-0.5,0.2-0.7,0c-0.5-0.4-1.1-0.8-1.4-1.4
					c-0.1-0.3-0.4-0.6-0.8-0.8c-0.1,0-0.2-0.1-0.3,0c-0.1,0.1-0.1,0.2-0.1,0.2c0.3,0.5,0.4,1.1,1,1.5c0.4,0.3,0.6,0.7,0.7,1.1
					c0.1,0.5,0.3,0.9,0.3,1.4l0,0c0.1,0.3,0.2,0.5,0.4,0.8c0.1,0.1,0,0.2-0.1,0.2c-0.1,0-0.2,0-0.2-0.1c-0.2-0.2-0.3-0.5-0.3-0.8
					c-0.3-0.6-0.8-1.1-1.2-1.7c-0.1-0.1-0.1-0.1-0.2-0.2c-0.1,0-0.2,0-0.3,0c-0.1,0.1-0.2,0.2-0.1,0.3c0.1,0.1,0.2,0.3,0.3,0.4
					c0.3,0.2,0.4,0.5,0.4,0.9c-0.1,0.4,0,0.8,0.3,1.1c0.2,0.2,0.2,0.6,0.3,0.9c-0.1,0.1-0.1,1.3-0.2,1.3c-0.3,0-0.8,0.9-1.1,0.9
					c-0.3,0.1-0.9-0.1-1.2,0c-0.3,0.1-0.2-1.6-0.5-1.5c-0.2,0.1-0.3,0-0.3-0.3c0-0.4-0.2-0.6-0.6-0.8c-0.1,0-0.3-0.1-0.4-0.1
					c-0.8-0.1-1.2-0.7-1.4-1.3c-0.2-0.5-0.2-1.1-0.4-1.6c-0.1-0.5-0.1-0.9,0.2-1.4c0.3-0.3,0.2-0.7-0.1-1c-0.3-0.3-0.4-0.6-0.8-0.9
					c-0.2-0.2-0.3-0.5-0.5-0.7c-0.3-0.5-0.7-0.7-1.2-0.5c0,0,0,0,0,0c0,0.3,0,0.5,0.2,0.7c0.4,0.4,0.7,0.9,0.8,1.4
					c0.1,0.6,0.2,1.2,0.3,1.9c0,0.2,0,0.4,0,0.7c-0.1,0.3,0,0.5,0,0.7c0.1,0.5,0,0.7-0.5,0.8c-0.3,0.1-0.6,0.1-0.8-0.1
					c-0.2-0.1-0.4-0.3-0.6-0.4c-0.1-0.1-0.3-0.2-0.5-0.2c-0.3,0-0.6,0.1-0.9,0.1c-0.1,0-0.2,0.1-0.1,0.2c0,0.1,0.1,0.2,0.1,0.3
					c0.2,0.3,0.6,1.2,0.7,1.6c0,0.1,0,0.1,0,0.2c0,0.2,0.1,0.3-0.1,0.4c-0.2,0.1-0.4,0.1-0.5,0c-0.2-0.1-0.4-0.3-0.7-0.4
					c-0.3-0.2-0.6,0-0.6,0.3c0,0.4-0.1,0.6-0.4,0.8c-0.2,0.2-0.4,0.3-0.6,0.6c-0.4,0.5-0.6,0.5-0.9,0.1c-0.1-0.1-0.2-0.3-0.3-0.5
					c0-0.1-0.1-0.2-0.1-0.3c-0.1-0.1-0.2-0.2-0.3-0.2c-0.1,0-0.2,0.1-0.2,0.3c0,0,0,0.1,0,0.1c0.1,0.3,0.1,0.7-0.3,0.8
					c-0.4,0.2-0.7,0-0.9-0.3c-0.3-0.3-0.7-0.3-1.1-0.1c-0.3,0.1-0.5,0.4-0.4,0.8c0.2,0.5,0.5,0.8,1,1c0.4,0.1,0.5,0.3,0.6,0.7
					c0.2,0.6,0.2,1.3,0.5,1.9c0.1,0.1-0.1,0.3-0.2,0.4c-0.2,0-0.4,0-0.6,0c-0.6,0-1.2,0.1-1.7,0.2c-0.7,0.1-1.4,0.4-1.9,0.8
					c-0.1,0.1-0.1,0.3,0,0.3c0.1,0.1,0.2,0.1,0.4,0.2c1.3,0.5,2.6,1,3.8,1.4c0.2,0.1,0.4,0.1,0.4,0.4c-0.2,0.2-0.3,0.5-0.6,0.7
					c-0.2,0.1-0.5-0.1-0.8,0c-0.1,0-0.1,0-0.2,0c-0.4,0-0.7-0.1-0.9-0.5c-0.1-0.3-0.4-0.4-0.6-0.4c-0.5,0.1-1.1,0.1-1.5,0.6
					c-0.3,0.5-0.8,0.6-1.4,0.3c-0.1,0-0.2-0.1-0.4-0.1c-0.2-0.1-0.5-0.1-0.6,0c-0.4,0.5-1,0.7-1.6,0.9c-0.1,0-0.1,0.1-0.2,0.2
					c-0.2,0.3-0.3,0.5,0,0.7c0.4,0.3,0.4,0.8,0.4,1.2c0,0.6-0.1,1.2-0.3,1.8c-0.2,0.6-0.5,1-1,1.2c-0.2,0.1-0.4,0.2-0.6,0.3
					c-0.5,0.3-0.6,1-0.4,1.4c0.1,0.2,0.4,0.3,0.6,0.1c0.4-0.4,0.8-0.4,1.3-0.4c0.3,0,0.5,0.1,0.6,0.4c0.1,0.2,0.2,0.4,0.5,0.6
					c0.2,0.1,0.2,0.4,0.1,0.6c-0.1,0.2-0.2,0.3-0.3,0.5c0,0,0,0.1,0,0.2c0,0,0.1,0.1,0.2,0c0.2-0.1,0.5-0.2,0.6-0.4
					c0.4-0.5,0.9-0.6,1.5-0.5c0.4,0.1,0.8,0.1,1.2,0.1c0.7,0,1.4,0.2,2-0.1c0.2-0.1,0.4-0.1,0.6,0c0.2,0.1,0.4,0.1,0.6,0.2
					c0.6,0.1,1-0.2,1-0.8c0-0.3-0.1-0.5-0.1-0.7c-0.1-0.3,0-0.6,0.1-0.8c0.2-0.3,0.4-0.7,0.6-1c0.1-0.2,0.3-0.4,0.5-0.5
					c0.3-0.2,0.6-0.3,0.9-0.2c0.3,0.1,0.3,0.4,0.4,0.6c0.1,0.5,0.5,0.7,0.9,0.7c0.1-0.4-0.1-0.9,0.1-1.3c0.2-0.6,0.3-1.2,0.2-1.9
					c0-0.1,0-0.3,0.1-0.4c0.3-0.4,1.1-0.4,1.4,0c0.2,0.2,0.3,0.4,0.4,0.6c0.3,0.4,0.6,0.4,1,0.1c0.1-0.1,0.1-0.1,0.2-0.2
					c0.4-0.4,0.6-0.5,1.2-0.3c0.4,0.2,0.8,0.4,0.9,0.8c0.1,0.4,0.5,0.7,0.7,1.1c0.2,0.4,0.2,0.9,0.3,1.4c0,0,0,0.1,0,0.1
					c0.4,1.1,0.7,2.1,1.1,3.2c0.3,1,0.7,2,0.9,3c0,0.3,0.1,0.6,0,0.9c-0.1,0.5-0.4,0.7-0.9,0.5c-0.2-0.1-0.4-0.2-0.5-0.1
					c-0.3,0.3-0.7,0.2-1.1,0.4c-0.2,0.1-0.3,0.2-0.4,0.4c0,0.2-0.1,0.3-0.2,0.4c-0.3,0.4-0.2,0.7,0.1,1c0.3,0.3,0.4,0.7,0.3,1.1
					c-0.1,0.6,0.1,1.2,0.4,1.7c0,0.1,0.1,0.2,0.2,0.1c0.1,0,0.1-0.2,0.1-0.2c0-0.2-0.1-0.4-0.2-0.6c-0.1-0.3-0.1-0.5,0.3-0.6
					c0.4-0.1,0.6-0.4,0.5-0.8c0-0.2,0-0.3,0-0.5c0-0.6,0.3-0.8,0.9-0.7c0.2,0,0.4,0.1,0.6-0.1c0.1-0.2,0.3-0.3,0.3-0.6
					c0.1-0.3,0.1-0.6,0-0.9c0-0.2-0.1-0.4-0.1-0.6c0-0.4,0.1-0.6,0.3-0.6c0.2-0.1,0.3,0.2,0.2,0.6c0,0.2,0,0.4,0.2,0.6
					c0.1,0.1,0.2,0.1,0.2,0.1c0.1,0,0.1-0.1,0.2-0.2c0.1-0.5-0.1-0.9-0.2-1.4c-0.2-0.6-0.5-1.1-0.7-1.7c-0.1-0.2-0.2-0.5-0.1-0.7
					c0.1-0.3,0-0.6-0.2-0.8c-0.5-0.7-0.8-1.5-1-2.4c-0.3-1.2-0.3-2.4-0.7-3.5c0-0.1,0-0.3,0.1-0.3c0.1,0,0.3,0,0.4,0
					c0.2,0.1,0.4,0.2,0.4,0.5c0,0.3,0,0.6,0.1,0.9c0,0.4,0.2,0.7,0.6,0.9c0.7,0.4,1,1,1.1,1.7c0.2,0.9,0.6,1.8,0.9,2.7
					c0.2,0.5,0.3,1,0.4,1.6c0,0.1,0.1,0.3,0,0.5c-0.3,0.4-0.2,0.9-0.1,1.4c0.1,0.6,0.1,1.2,0,1.9c0,0,0,0.1,0,0.1
					c0,0.8,0,1.6,0.1,2.5c0,0.2,0,0.4-0.1,0.6c-0.3,0.4-0.3,0.9,0,1.3c0.2,0.3,0.1,0.5-0.1,0.8c-0.1,0.1-0.2,0.3-0.2,0.4
					c0,0.1,0,0.3,0.1,0.3c0.1,0.1,0.3,0,0.3-0.1c0.3-0.4,0.4-0.8,0.5-1.2c0.1-0.7,0.2-1.3,0.3-2c0.1-1.1,0.2-2.2,0.4-3.3
					c0.1-0.6,0.2-1.2,0.1-1.9c0-0.2,0-0.4,0.1-0.5c0,0,0.1-0.1,0.2-0.1c0.1,0,0.1,0,0.1,0.1c0,0.1,0.1,0.2,0.1,0.4
					c0,0.3,0,0.6,0,0.9c0.1,0.4,0.1,0.9,0,1.3c-0.1,0.2-0.1,0.5,0,0.7c0,0.2,0.2,0.3,0.3,0.3c0.4-0.1,0.8-0.1,1.1-0.1
					c0.2,0,0.3-0.3,0.6-0.2c0.1-0.1,0.3-0.2,0.3-0.3c0.2-0.6,0.6-1.2,0.5-1.9c0-0.1,0-0.1,0-0.2c0.4-1.7,0.3-1.4-0.4-3
					c0-0.1-0.1-0.1-0.1-0.2c-0.1-0.2-0.1-0.4,0-0.6c0.5-0.5,0.3-1.1,0.1-1.6c-0.1-0.1-0.2-0.3-0.3-0.4c-0.3-0.4,0.1-0.8,0.1-1.3
					c0,0,0.1,0,0.2,0c0.2,0,0.3,0.1,0.4,0.3c0.1,0.2,0.1,0.4,0.1,0.6c0,0.3,0,0.6,0,0.9c0,0.5,0.1,0.9,0.7,1.1
					c0.3,0.1,0.4,0.4,0.4,0.7c0,0.5,0,1,0.1,1.5c0.1,0.4,0.2,0.7,0.6,0.9c0,0,0,0,0,0c0.5-0.3,0.6-0.7,0.4-1.2
					c-0.1-0.2-0.1-0.4-0.1-0.6c0-0.8-0.2-1.6-0.7-2.2c-0.1-0.1-0.1-0.2-0.1-0.3c0-0.1,0-0.2,0.1-0.2c0.1,0,0.2,0,0.3,0
					c0.2,0.1,0.3,0.2,0.3,0.4c0.1,0.4,0.2,0.7,0.6,0.9c0.2,0.1,0.2,0.3,0.3,0.5c0.1,0.7,0,1.4-0.1,2.1c-0.1,0.3-0.4,0.5-0.5,0.8
					c0.1,0.3,0.2,0.5,0.1,0.8c0,0.1,0.2,0.2,0.2,0.3c0.1,0.2,0.2,0.4,0.3,0.6c0.2-0.4,0.4-0.8,0.9-1.1c0.4-0.3,0.6-0.1,0.6,0.4
					c0.1-0.2,0.1-0.4,0.1-0.7C471.1,465.6,471.1,464.9,471.1,464.3z M464,436.2c-0.2-0.3-0.3-0.7-0.4-1c-0.1-0.1-0.1-0.1-0.1-0.2
					c-0.1-0.1-0.1-0.1-0.1-0.3c0.1,0.1,0.1,0.1,0.1,0.3c0.1,0.1,0.1,0.1,0.1,0.2c0.2,0.1,0.3,0.3,0.4,0.5c0.1,0.2,0.2,0.4,0.4,0.6
					C464.3,436.4,464.1,436.3,464,436.2z"/>
				<path class="st5" d="M425.1,408.7c0,0-0.1,0.1-0.1,0.1c0,0.1,0,0.1,0.1,0.1c0.2,0.1,0.5,0.1,0.8,0.1
					C425.6,408.8,425.4,408.8,425.1,408.7z"/>
				<path class="st5" d="M454.5,461.7c-0.1-0.2-0.3-0.3-0.4-0.5c0,0-0.1,0-0.2,0c0,0-0.1,0.1-0.1,0.1c0.1,0.3,0,0.6-0.1,0.9
					c-0.1,0.3-0.2,0.8,0,1.1c0.2,0.4,0.2,0.8,0.2,1.3c0,0.1,0.1,0.2,0.2,0.3c0.5,0.2,1.2-0.1,1.2-0.7c0-0.7,0.4-1.5-0.5-2.1
					C454.6,462.1,454.6,461.9,454.5,461.7z"/>
				<path class="st5" d="M463.6,486.4c-0.1,0.1-0.1,0.2-0.2,0.3C463.5,486.7,463.5,486.6,463.6,486.4z"/>
				<path class="st5" d="M450.2,462.4c0,0.1,0.1,0.2,0.2,0.2c0.2-0.1,0.2-0.2,0.1-0.3c0,0,0,0,0,0c0-0.1,0.1-0.2,0.1-0.4
					c0-0.1,0-0.3-0.1-0.3c-0.4-0.3-0.8-0.5-1.3-0.5c-0.1,0-0.2,0.1-0.1,0.2C449.3,461.7,449.5,462.3,450.2,462.4z"/>
				<path class="st5" d="M463.8,485.8c0-0.1,0-0.2,0.1-0.2c0,0-0.2,0.7-0.3,0.9C463.7,486.2,463.8,486,463.8,485.8z"/>
				<path class="st5" d="M455.1,458.5c-0.1-0.1-0.2-0.2-0.3-0.1c0,0-0.1,0.2,0,0.2c0.1,0.2,0.2,0.4,0.4,0.6l0,0c0,0.1,0,0.1,0,0.2
					c0,0,0,0,0,0.1c0,0,0,0,0,0c0,0,0-0.1,0-0.1c0,0-0.1,0.1-0.1,0.2l0,0l0,0c-0.2,0.2-0.1,0.5-0.1,0.7c0,0.3,0.6,0.8,0.8,0.7
					c0.3-0.2,0.1-0.5,0.1-0.7c-0.1-0.3-0.1-0.6-0.3-0.9c0-0.1-0.1-0.2-0.1-0.3c0,0,0,0,0,0h0h0h0C455.3,459,455.2,458.7,455.1,458.5
					z"/>
				<path class="st5" d="M461.7,476.6c0.2,0.2,0.4,0.4,0.6,0.6c0.3,0.3,0.5,0.6,0.4,1c0,0.1,0,0.2,0,0.3c0,0.1,0.1,0.2,0.2,0.2
					c0.1,0,0.1,0,0.2-0.1c0,0,0.1-0.1,0.1-0.2c0-0.1,0.1-0.2,0.1-0.3c0-0.6-0.2-1.1-0.6-1.5c-0.2-0.2-0.4-0.3-0.5-0.6
					c-0.1-0.2-0.2-0.3-0.3-0.4c-0.1-0.1-0.3-0.1-0.4,0c-0.1,0.1-0.1,0.2-0.1,0.3C461.4,476.2,461.5,476.4,461.7,476.6z"/>
				<path class="st5" d="M463.1,487.7c0,0.1,0,0.2,0,0.3c0-0.4,0.1-0.8,0.3-1.1c-0.1,0.1-0.2,0.3-0.3,0.4
					C463.2,487.3,463.2,487.5,463.1,487.7z"/>
				<path class="st5" d="M469.4,486c0.5-1.6,1.1-3.3,1.4-5c0.8-3.6,1.2-8.2,1.4-12c0.1-1.3,0.1-3.9,0-5.2c0,0-0.6-0.3-0.6-0.3l0,0
					c-0.3,0-0.3,0.1-0.5,0.3c-0.2,0.1-0.4,0.3-0.5,0.6c-0.1,0.3-0.3,0.4-0.5,0.6c0,0.2,0.1,0.5-0.1,0.7c-0.3,0.3-0.2,0.7-0.1,1
					c0.4,0.6,0.4,1.3,0.2,2c-0.1,0.3-0.1,0.7-0.2,1c0,0.2-0.4,2-0.6,2c-0.1,0-0.2-0.1-0.3-0.2c-0.1-0.1-0.1-0.2-0.1-0.4
					c0-0.2-0.1-0.4-0.1-0.7c-0.1-1.2-0.1-1.2-1.1-1.9c-0.1,0-0.2,0.1-0.3,0.2c-0.3,0.3-0.3,0.3-0.8,0c-0.2-0.2-0.2-0.2-0.5,0.1
					c-0.1,0.1-0.2,0.1-0.2,0.2c0,0,0,0,0,0c-0.2,0-0.3,0.1-0.5,0.1c-0.5,0-0.7,0.3-0.8,0.7c0,0.1,0,0.2,0,0.3
					c-0.1,0.6-0.3,1.2-1,1.5c-0.2,0.1-0.1,0.5,0.1,0.5c0.1,0,0.2,0.1,0.3,0.1c0.5,0.1,0.5,0.1,0.5,0.5c0,0.1,0,0.3,0,0.4
					c0.1,0.9,0.1,1.9,0.6,2.7c0.2,0.3,0.2,0.7-0.1,1c-0.1,0.1-0.1,0.2,0,0.3c0.1,0,0.2,0,0.2-0.1c0.1-0.1,0.1-0.2,0.2-0.3
					c0.2-0.2,0.4-0.2,0.5,0c0.3,0.5,0.4,0.5,0.8,0.2c0.1-0.1,0.2-0.2,0.4-0.3c0.2,0.4-0.3,0.5-0.2,0.9c0.3,3.5-1.3,5.7-1.4,6.1
					c-1.5,4.3-2.1,1.1-2.2-1.3c0-0.1-2.8,2.4-2.1,0.9c0.2-0.5,0.2-1.8,0-2.4c-0.1-0.3-0.1-0.6-0.2-0.8c-0.1-0.5-0.3-1-0.6-1.4
					c-0.4-0.7-0.9-1.2-1.7-1.2c-0.3,0-0.4-0.1-0.5-0.4c-0.1-0.2-0.2-0.5-0.3-0.7c-0.1-0.3-0.3-0.5-0.6-0.6c-0.2-0.1-0.4,0-0.5,0.1
					c-0.1,0.3-0.1,0.5,0,0.7c0.2,0.2,0.4,0.4,0.5,0.6c0.2,0.2,0.4,0.4,0.4,0.6c0,0.4,0.1,0.7,0.3,1.1c0.1,0.2,0,0.4-0.2,0.6
					c-0.2,0.1-0.5,0.2-0.6,0c-0.5-0.6-1-1-1.4-1.7c-0.4-0.9-0.8-1.7-1.3-2.6c-0.4-0.8-0.8-1.6-1.4-2.3c-0.7-0.8-0.5-1.5,0.5-1.8
					c0.3-0.1,0.5-0.4,0.6-0.7c0.2-0.7,0.1-1.6,0.4-2.3c0-0.1,0-0.2,0-0.4c-0.1-0.4-0.2-0.6-0.6-0.6c-0.9-0.1-1.6-0.6-2.2-1.3
					c-0.2-0.2-0.4-0.4-0.6-0.6c-0.2-0.2-0.5-0.3-0.7-0.1c-0.5,0.3-0.9,0.6-1.5,0.6c-0.1,0-0.2,0.1-0.3,0.2c-0.5,0.3-1.3,0.2-1.8-0.1
					c-0.2-0.2-0.3-0.5-0.6-0.6c-0.3,0-0.7,0-1,0c-0.6,0.1-1.1,0-1.6,0c-0.3,0-0.5-0.1-0.6-0.3c-0.2-0.4-0.5-0.7-1.1-0.7
					c-0.4,0-0.7-0.2-0.8-0.7c0-0.2-0.1-0.4-0.2-0.5c-0.1-0.2-0.4-0.2-0.6,0c-0.4,0.3-0.5,0.8-0.7,1.2c-0.1,0.4-0.4,0.6-0.8,0.7
					c-0.3,0.1-0.6,0.2-1,0.1c-0.6,0-1.1,0-1.6-0.2c-0.3-0.1-0.5,0-0.7,0.2c-0.2,0.2-0.1,0.3-0.1,0.5c0.2,0.5,0,0.8-0.3,1.2
					c-0.6,0.3-0.8,0.7-0.8,1.3c0,0.2-0.1,0.5-0.2,0.7c-0.1,0.3-0.3,0.5-0.6,0.6c-0.5,0.1-1,0.3-1.5,0.2c-0.5-0.1-0.8,0-1.1,0.4
					c-0.4,0.5-0.9,0.8-1.6,0.8c-0.6,0-1,0.3-1.3,0.8c-0.3,0.4-0.7,0.7-1,1c-0.4,0.3-0.8,0.5-1.4,0.3c-0.3-0.1-0.6-0.1-0.8,0.1
					c-0.3,0.2-0.6,0.4-0.8,0.6c-0.4,0.3-0.6,0.8-0.6,1.2c0,0.3-0.1,0.6-0.2,0.9c-0.1,0.1,0,0.3,0,0.5c0.1,0.5,0.2,0.9,0.2,1.4
					c0,0.5-0.2,1-0.2,1.5c0,0.3-0.1,0.5,0,0.8c0.1,0.4,0,0.6-0.3,0.9c-0.5,0.5-1,1.1-1.4,1.7c-0.3,0.4-0.5,0.7-0.9,0.9
					c-0.5,0.3-0.8,0.8-0.6,1.5c0.1,0.2,0.1,0.4,0,0.6c-0.2,0.3,0,0.6,0.2,0.8c0.1,0.1,0.2,0.1,0.2,0.2c0.4,0.6,0.7,1.1,0.3,1.8
					c-0.3,0.5-0.4,1.1-0.5,1.6c-0.1,0.4,0,0.6,0.3,0.8c0.4,0.3,0.6,0.7,0.9,1.1c0.2,0.2,0.3,0.5,0.3,0.8c0,0.6,0,1.1,0.1,1.7
					c0,0.3,0.1,0.5,0.3,0.8c0.2,0.5,0.6,0.9,1,1.3c0.1,0.1,0.2,0.2,0.3,0.2c0.6,0.1,1.2,0.4,1.8,0.6c0.3,0.1,0.6,0.2,0.9,0.1
					c0.4-0.2,0.8-0.1,1.2,0c0.4,0.1,0.8,0.3,1.2,0.4c0.7,0.2,1.4,0.3,2.1-0.1c0.3-0.2,0.6-0.3,0.9-0.3c0.6,0.1,1.2,0.1,1.7,0.3
					c0.2,0.1,0.5,0.2,0.6,0.4c0.1,0.2,0.4,0.3,0.6,0.5c0.4,0.2,0.4,0.3,0.1,0.7c-0.3,0.3-0.4,0.6-0.8,0.8c-0.1,0-0.1,0.2-0.1,0.3
					c0.1,0.1,0.1,0.3,0.2,0.4c0,0,0,0.2,0,0.2c-0.3,0.2-0.5,0.5-0.9,0.5c-0.2,0-0.3,0-0.5,0c-0.1,0-0.2,0.1-0.2,0.3
					c0,0.1,0,0.3,0.1,0.3c0.1,0.1,0.2,0.1,0.4,0.1c0.2,0,0.5,0,0.6,0.2c0.2,0.2,0.4,0.2,0.6,0.1c0.4-0.1,0.5-0.1,0.6,0.4
					c0.1,0.3,0.2,0.6,0.5,0.7c0.1,0,0.2,0.2,0.2,0.3c0.1,0.5,0,0.9-0.6,1.1c-0.1,0-0.2,0.2-0.3,0.2c-0.5,0.2-0.7,0.6-0.6,1.1
					c0.1,0.5-0.1,0.8-0.5,1.1c-0.2,0.2-0.4,0.4-0.7,0.5c-0.3,0.2-0.5,0.4-0.4,0.8c0.1,0.6-0.2,1.2,0.1,1.8c0,0.1,0,0.2,0,0.3
					c-0.2,1-0.4,1.9-1.1,2.7c-0.4,0.5-0.8,1-1.3,1.4c-0.4,0.4-0.9,0.8-1.1,1.3c-0.4,0.8-1.1,1.2-1.8,1.7c-0.6,0.3-1.1,0.5-1.7,0.1
					c-0.1,0-0.2-0.1-0.3-0.1c-0.2,0-0.3,0-0.5,0.1c-0.8,0.8-1.9,1.2-2.8,2c-0.3,0.3-0.9,0.5-1.4,0.6c-0.5,0.1-0.7,0.3-0.8,0.7
					c-0.1,0.3-0.1,0.6-0.2,0.9c-0.1,0.6-0.3,1.2-0.8,1.6c-0.4,0.4-0.7,0.9-1,1.4c-0.6,1.3-1.7,2-3.1,2.3c-0.4,0.1-0.8,0.1-1.2,0.1
					c-0.3,0-0.6,0.2-0.7,0.4c-0.1,0.1-0.1,0.3-0.2,0.4c-0.2,0.3-0.5,0.7-0.9,0.7c-0.4,0.1-0.6,0.3-0.7,0.7c-0.1,0.4-0.4,0.6-0.8,0.7
					c-0.6,0.1-1.2,0.1-1.7,0.6c-0.5,0-0.9,0.4-1.4,0.4c-0.5,0-0.9,0.2-1.1,0.7c-0.2,0.4-0.5,0.6-0.9,0.6c-0.2,0-0.5,0-0.7,0.1
					c-0.2,0-0.3,0.1-0.4,0.2c0,0-0.1,0.1-0.1,0.2c0,0.1,0.1,0.2,0.1,0.2c0.6,0.2,1.2,0.4,1.9,0.5c0.2,0.1,0.4,0.1,0.7,0.1
					c1.5,0,3,0.3,4.5,0.1c0.8-0.1,1.6-0.1,2.4-0.3c0.5-0.2,0.9-0.3,1.4-0.4c2.5-0.7,5-1.4,7.5-2.2c1.1-0.4,2.1-0.9,3-1.5
					c0.7-0.5,1.5-1,2.4-1.3c0.6-0.2,1.2-0.3,1.8-0.4c1.4-0.2,2.7-0.7,3.9-1.5c2.5-1.5,4.7-3.3,6.7-5.2c0.6-0.5,1.2-1,1.8-1.5
					c1.7-1.2,3.5-2.2,5.4-3.2c0.8-0.4,1.7-0.8,2.4-1.4c2.1-1.5,3.9-3.3,5.6-5.2c0.2-0.2,0.5-0.3,0.3-0.6c-0.1-0.2-0.4-0.1-0.6-0.1
					c-0.9-0.2-1.1-0.5-0.7-1.3c0.5-0.8,0.9-1.6,1.7-2.2c0.1-0.1,0.2-0.2,0.2-0.3l0,0l0,0c0.2-0.6,0.4-1.2,0.7-1.8
					c0-0.7,0.3-1.4,0.2-2.1c0.4-0.5,0.5-1.2,0.7-1.8c0.2-0.4,0.3-0.8,0.5-1.1c0.3-0.6,0.6-1.1,1-1.6c0.2-0.2,0.4-0.5,0.5-0.8
					c0.5-1,0.6-2.1,0.7-3.1c0.1-0.6,0.3-1.1,0.2-1.8c0-0.2,0.1-0.3,0.2-0.4c0.4-0.3,0.6-0.8,0.7-1.3c0-0.3,0.1-0.5,0.4-0.6
					c0.2-0.2,0.3-0.4,0.4-0.7c0-0.6,1-1.1,0.9-0.7c0,0.3-0.1,0.6-0.1,0.9c0,0.7-0.3,1.3-0.8,1.8c-0.3,0.3-0.6,0.8-0.5,1.3
					c0,0.4-0.4,0.7-0.4,1c0,0.4,0,0.7-0.1,1.1c-0.5,1.2-0.9,2.3-1.3,3.5c-0.1,0.3-0.3,0.6-0.6,0.9c-0.4,0.6-0.8,1.1-0.9,1.8
					c-0.1,0.8-0.5,1.5-0.8,2.2c-0.2,0.5-0.4,0.9-0.7,1.4c0,0.1,0.1,0.3,0,0.4c-0.3,0.4-0.3,0.9-0.4,1.3c0,0,0,0,0,0l0,0
					c0.1,0.5,0,0.9-0.3,1.2c-0.1,0.1-0.3,0.3-0.1,0.6c0.5-0.5,1.1-0.7,1.6-1.2c0.6-0.6,1.4-1,2-1.6c0.3-0.3,0.7-0.9,0.9-1.3
					c1.3-2.1,3-4.4,4-6.6c0.9-1.8,1.5-3.2,2.2-5.1C468,490,468.8,488,469.4,486z"/>
			</g>
		</g>
		<g>
			<g>
				<g>
					
						<rect x="396.9" y="408.6" transform="matrix(1 -4.732028e-03 4.732028e-03 1 -2.0122 1.8877)" class="st6" width="2" height="35.1"/>
				</g>
				<g>
					<path class="st6" d="M343.3,426l-1.4-1.5c5.8-5.5,26.3-20.8,33.3-24.3l0.9,1.8C369.2,405.4,349.1,420.6,343.3,426z"/>
				</g>
				<g>
					
						<rect x="358.4" y="438" transform="matrix(0.3162 -0.9487 0.9487 0.3162 -185.7565 651.9821)" class="st6" width="2" height="33.7"/>
				</g>
				<g>
					<path class="st6" d="M340.7,509.6c-4.5-9.9-12.4-41.4-12.7-42.7l1.9-0.5c0.1,0.3,8.2,32.6,12.6,42.4L340.7,509.6z"/>
				</g>
				<g>
					
						<rect x="356.3" y="498.2" transform="matrix(0.5832 -0.8123 0.8123 0.5832 -249.7093 511.689)" class="st6" width="35.1" height="2"/>
				</g>
			</g>
			<g>
				<polygon class="st1" points="414.4,490.5 380.5,490.5 370.6,458.6 397.7,438.3 424.7,458.6 				"/>
				<path class="st1" d="M424.8,404.1l-27,11.1l-27.3-11.8l4.2-6c7.9-2.9,16.5-4.5,25.4-4.5c6.8,0,13.3,0.9,19.5,2.6L424.8,404.1z"
					/>
				<path class="st1" d="M347.8,450.7L329.7,472l-3.6-2.3c0-0.9,0-1.8,0-2.6c0-17.1,5.8-32.9,15.6-45.4l4.4,0.1L347.8,450.7z"/>
				<path class="st1" d="M382.4,535.2l-5.1,2.3c-16.2-5.2-29.9-15.9-39.1-29.8l1-2.9l27.9,4.2L382.4,535.2z"/>
			</g>
			<g>
				<polygon class="st3" points="397.9,442 419.3,460.5 398.3,445.7 377.2,461 384.4,489.1 374.2,460.2 				"/>
				<path class="st7" d="M416.4,397.6l-1.1,3.7l-0.6-2.8c-19.2-4.5-31.3,0-31.3,0v2.8l-1.4-3.4C381.9,397.9,397.8,391.6,416.4,397.6
					z"/>
				<path class="st3" d="M344.8,430l-5.9-0.3c-10.5,15.4-10.5,30.9-10.5,30.9l4.4,3l-2.8-3.2c0,0,3.4-22.7,10.1-30L344.8,430z"/>
				<polygon class="st3" points="345.4,512.8 345,508.1 365.3,511.3 374.6,529.3 363.6,513.4 346.2,509.5 				"/>
			</g>
		</g>
	</g>
	<g>
		<path class="st3" d="M470.5,423.1c7.9,12.7,12.5,27.8,12.5,43.9c0,45.8-37.2,83-83,83c-0.9,0-1.8,0-2.7,0l-66.5,115.2
			c-1.9-1.9-3.8-3.9-5.8-6l63.5-110l3.3-5.7c2.7,0.3,5.5,0.5,8.3,0.5c0.2,0,0.5,0,0.7,0c42.1-0.4,76.3-34.8,76.3-77
			c0-13.8-3.6-26.7-10-37.9c-1.5-2.6-3.1-5.1-4.9-7.5l3.3-5.7l54.6-94.6h9.2L470.5,423.1z"/>
	</g>
</g>
</svg>
