<?xml version="1.0" encoding="utf-8"?>
<!-- Generator: Adobe Illustrator 28.4.0, SVG Export Plug-In . SVG Version: 6.00 Build 0)  -->
<svg version="1.1" id="Capa_1" xmlns="http://www.w3.org/2000/svg" xmlns:xlink="http://www.w3.org/1999/xlink" x="0px" y="0px"
	 viewBox="0 0 800 800" style="enable-background:new 0 0 800 800;" xml:space="preserve">
<style type="text/css">
	
		.st0{clip-path:url(#SVGID_00000169528195265632858540000000849244018571292859_);fill:url(#SVGID_00000085246739549157224860000012751480272768659594_);}
	.st1{fill:#FFFFFF;}
	.st2{fill:#11B61C;}
	.st3{fill:#2B5008;}
	.st4{fill:#18AA1F;}
	.st5{fill:#FB0000;}
</style>
<g>
	<g>
		<defs>
			<path id="SVGID_1_" d="M399.9996,91.5022c14.173,0,52.1274,28.9667,116.556,28.9667c38.9801,0,70.3759-14.1046,99.6212-29.1524
				c3.4233-1.7611,7.5781-1.2308,10.4471,1.3361l122.1335,109.2159c1.4604,1.3069,1.6596,3.521,0.4597,5.0694
				c-23.7588,30.6423-59.8693,59.0578-59.8693,94.038c0,37.6375,55.4924,109.3824,55.4924,172.4785
				c0,58.2157-43.2997,99.8999-92.1257,124.5967c-52.7795,26.698-120.5366,41.7805-175.524,65.6627
				c-31.3485,13.6131-57.2381,31.7149-77.1907,45.9999c-19.9533-14.285-45.8434-32.3868-77.1908-45.9999
				c-54.9885-23.8822-122.7446-38.9647-175.5231-65.6627c-48.8269-24.6968-92.1254-66.381-92.1254-124.5967
				c0-63.096,55.4907-134.841,55.4907-172.4785c0-34.9802-36.1091-63.3957-59.8671-94.038
				c-1.2011-1.5484-1.0016-3.7625,0.4585-5.0694L173.3753,92.6526c2.869-2.5669,7.0249-3.0972,10.4471-1.3361
				c29.2441,15.0478,60.641,29.1524,99.6211,29.1524C347.8712,120.4689,385.8265,91.5022,399.9996,91.5022"/>
		</defs>
		<clipPath id="SVGID_00000052824563546539757630000016704970291109208240_">
			<use xlink:href="#SVGID_1_"  style="overflow:visible;"/>
		</clipPath>
		
			<linearGradient id="SVGID_00000178903069863771748470000000492364746217141163_" gradientUnits="userSpaceOnUse" x1="399.9998" y1="709.7136" x2="399.9998" y2="90.2913">
			<stop  offset="0" style="stop-color:#D10800"/>
			<stop  offset="0.46" style="stop-color:#D10800"/>
			<stop  offset="0.68" style="stop-color:#5D0308"/>
			<stop  offset="0.74" style="stop-color:#5D0308"/>
			<stop  offset="0.86" style="stop-color:#D10800"/>
			<stop  offset="1" style="stop-color:#D10800"/>
		</linearGradient>
		
			<rect x="49.5828" y="89.5554" style="clip-path:url(#SVGID_00000052824563546539757630000016704970291109208240_);fill:url(#SVGID_00000178903069863771748470000000492364746217141163_);" width="700.834" height="620.1583"/>
	</g>
	<path class="st1" d="M397.8091,689.9031c1.2903,0.9932,3.0888,0.9949,4.3776,0.0017
		c27.9592-21.5028,56.2563-37.0279,91.6267-50.6962c34.7431-13.4268,74.2607-23.8363,101.8533-36.0328
		c69.8477-30.874,114.6462-68.8683,114.6462-129.7993c0-34.7552-10.5159-59.4747-20.7167-83.7585
		c-14.4525-34.3982-30.0973-65.3404-30.0973-85.9431c0-29.9108,27.1237-56.2767,53.4536-88.8877
		c1.6899-2.0958,1.4811-5.1425-0.4846-6.9807L605.1458,107.4579c-0.7787-0.7282-1.9368-0.8689-2.8673-0.3506
		c-30.7161,17.124-66.2479,28.3139-98.238,28.3139c-27.8716,0-63.0976-8.5448-99.1707-26.7007
		c-3.0569-1.539-6.677-1.5418-9.7339-0.0027c-36.0749,18.1575-71.3024,26.7035-99.1762,26.7035
		c-31.9922,0-67.523-11.1899-98.2392-28.3139c-0.9316-0.5183-2.0895-0.3776-2.8685,0.3506L87.5316,207.8052
		c-1.966,1.8394-2.1749,4.8862-0.4838,6.9807c26.3288,32.6122,53.4534,58.9787,53.4534,88.8889
		c0,20.6028-15.6458,51.545-30.0967,85.9431c-10.2023,24.2838-20.7171,49.0033-20.7171,83.7585
		c0,60.9309,44.7988,98.9253,114.6439,129.7993c27.5944,12.1965,67.1113,22.6061,101.8545,36.0328
		C341.5555,652.8769,369.8515,668.4004,397.8091,689.9031"/>
	<path class="st2" d="M399.9996,682.676c2.6374,0,7.4149-4.3521,9.4748-6.0405c19.519-16.0057,53.4744-33.8281,92.8-48.1726
		c30.906-11.2716,65.7406-20.4962,96.5444-34.3848c58.2289-26.2534,105.0833-63.5038,105.0833-122.9119
		c0-62.9631-50.1149-128.5465-50.1149-166.9086c0-33.1541,31.2876-56.5528,52.0975-86.8396c0.2758-0.402,1.05-1.2204,1.05-2.1758
		c0-1.5157-1.05-2.3809-1.05-2.3809l-106.202-99.1791c-33.9119,16.4777-61.9242,27.6705-96.6391,27.6705
		c-24.8296,0-44.7813-4.6674-63.3881-11.303c-31.3561-11.1835-33.7256-15.2414-39.6557-15.2414
		c-5.9302,0-8.2997,4.0579-39.6558,15.2414c-18.6062,6.6356-38.5595,11.303-63.3875,11.303
		c-34.7151,0-62.7278-11.1928-96.6409-27.6705L94.1155,212.8613c0,0-1.0521,0.8653-1.0521,2.3809
		c0,0.9554,0.7754,1.7738,1.0521,2.1758c20.8089,30.2868,52.0965,53.6855,52.0965,86.8396
		c0,38.3621-50.1161,103.9455-50.1161,166.9086c0,59.408,46.8553,96.6585,105.0844,122.9119
		c30.8027,13.8885,65.6384,23.1132,96.5442,34.3848c39.3247,14.3445,73.2813,32.1669,92.8002,48.1726
		C392.5844,678.3239,397.3633,682.676,399.9996,682.676"/>
	<path class="st1" d="M399.9996,673.7892c-1.2011-0.8752-2.6242-2.0757-3.3-2.645c-0.3716-0.3137-0.706-0.5948-0.992-0.8279
		c-20.6788-16.9572-55.3712-35.0099-95.1831-49.5303c-11.1883-4.081-23.0778-7.9601-34.5771-11.7104
		c-20.6622-6.7392-42.027-13.7101-61.4083-22.4463c-31.7855-14.3328-55.2747-29.7709-71.8074-47.1986
		c-19.1524-20.1888-28.4624-42.5176-28.4624-68.2627c0-33.6552,15.3985-68.9061,28.9827-100.0069
		c11.34-25.9597,21.1322-48.379,21.1322-66.9035c0-26.4645-17.366-47.0396-34.1616-66.9371
		c-5.0604-5.9947-10.2509-12.1442-15.0191-18.4894c-1.2942-1.7231-1.0788-4.1332,0.4955-5.6044l96.1088-89.7538
		c34.6887,16.5432,61.9782,26.0526,95.1483,26.0526c22.8978,0,43.2936-3.6316,66.1335-11.7775
		c16.6843-5.9506,25.4464-9.9793,30.6826-12.3867c4.1955-1.9281,5.2731-2.3795,6.2273-2.3795c0.9535,0,2.0316,0.4515,6.2261,2.3795
		c5.2373,2.4074,14.0005,6.4361,30.6837,12.3867c22.8398,8.1459,43.2357,11.7775,66.1323,11.7775
		c33.1713,0,60.4596-9.5094,95.1504-26.0526L694.3,213.2256c1.5718,1.4684,1.7885,3.8864,0.4954,5.6056
		c-4.7682,6.344-9.9598,12.4946-15.0203,18.4904c-16.7939,19.8971-34.1627,40.4716-34.1627,66.9361
		c0,18.5245,9.7946,40.9438,21.1346,66.9035c13.5843,31.1008,28.9827,66.3516,28.9827,100.0069
		c0,25.745-9.31,48.0738-28.4624,68.2627c-16.5332,17.4277-40.0208,32.8658-71.8074,47.1986
		c-19.3823,8.7362-40.746,15.7071-61.4099,22.4463c-11.4977,3.7503-23.3883,7.6295-34.5767,11.7104
		c-39.8119,14.5203-74.5037,32.5731-95.1808,49.5303c-0.2872,0.2331-0.6212,0.5143-0.9932,0.8279
		C402.6237,671.7135,401.2016,672.914,399.9996,673.7892"/>
	<path class="st3" d="M428.4102,364.6307c-3.4333-5.3206-4.7987-12.3807-5.1217-19.3786c4.8351-0.0544,5.1085-1.0434,9.5576-1.0434
		c5.8788,0,5.1629,4.9994,9.1183,4.9994c2.1418,0,3.6251-4.0104,5.7669-4.0104c5.163,0,6.3729,3.351,11.0953,3.351
		c3.038,0,2.0334-3.4051,4.4485-3.4051c4.1759,0,1.7589,2.5811,10.2729,2.5811c1.4832,0,0.3728-3.318,1.4282-3.8449
		c0.4386-0.2193,0.9343-0.2746,2.0316-0.2746c5.2187,0,3.8457,9.0627,8.8983,9.0627c2.5278,0,3.9552-3.7343,9.2283-3.7343h3.0763
		c4.6144,0,5.5465-3.4063,9.2268-3.4063c3.1864,0,3.7899,3.9002,4.8343,5.4378c2.5828-2.7466,4.2838-4.6678,8.0193-4.6678
		c4.3939,0,4.8895,3.5694,7.4149,3.5694c2.1418,0,3.9001-1.5378,7.1418-1.5378c2.4702,0,3.9,0.2199,5.822,0.2199
		c2.0316,0,3.9002-1.0439,6.7008-1.0439c9.0636,0-1.2078,9.2826,23.1799,9.2826c3.6245,0,6.9211-0.9884,10.3257-0.9884
		c5.9317,0,7.8554,4.5043,12.6694,4.5043c4.7429,0,6.0062-3.57,9.8514-3.57c5.6033,0,6.2624,6.7552,9.7774,6.7552
		c1.5929,0,4.3707-2.0024,5.3834-5.3276c0.8238-2.7096,0.5807-6.4258,1.9213-9.6122c2.955-7.0186,7.801-10.5463,7.801-15.9826
		c0-11.0952-22.3559-12.4687-22.3559-22.7941c0-1.1536,0.2734-2.4173,0.2734-4.1736c0-5.9879-5.2181-4.7798-5.2181-8.5145
		c0-2.9109,1.5382-1.8674,1.5382-7.4134c0-17.6318-13.7861-15.4899-13.7861-23.4539c0-3.5154,2.5256-5.7091,7.8538-5.7091
		c0.7694-10.3276-14.2259-11.0419-22.7389-16.6987c-2.7928-1.8552-4.5587-5.6436-6.7013-9.0631
		c-2.1039-3.3573-4.6116-6.3403-4.3406-9.0051c-6.8643,0-9.0614-4.1742-14.2795-4.1742c-4.2307,0-7.4149,2.8569-9.2283,2.8569
		l-5.2731-0.1649c-11.9744,0-10.5712-6.3737-12.7433-7.4702c-7.9034-3.9916-18.5103-3.57-19.2241-14.1703
		c-4.0655,0-4.985-2.8406-6.5382-5.0542c-1.3862-1.9749-3.2447-3.3495-4.7224-3.3495c-2.1418,0-3.57,3.6803-9.1181,3.6803
		c-7.6907,0-8.2392-7.7447-18.1819-7.7447h-3.2392c-7.1418,0-11.0424-5.2191-15.5445-5.2191c-1.4832,0-2.0867,0.3296-3.1863,0.3296
		c-4.7793,0-5.3834-3.0762-9.2283-3.0762c-2.8558,0-3.8452,1.1537-3.8452,3.6257v4.0092H426.2
		c-3.0193-6.4263-18.7837-7.1406-27.4081-7.1406c-18.9496,0-12.9074,6.8116-22.9048,6.8116c-7.1405,0-6.3717-5.6027-13.8419-5.6027
		c-2.1971,0-5.8773,2.5266-5.8773,3.954c0,1.4282,0.0552,2.3624-1.7031,2.3624c-3.0199,0-2.9107-4.8332-5.272-4.8332
		c-1.2639,0-4.0645,3.1851-6.8116,3.1851l-3.0209-0.1091c-5.2732,0-12.1933,9.2824-18.1808,9.2824
		c-3.6802,0-4.8339-1.3183-9.4479-1.3183c-5.9323,0-7.0303,3.7346-9.7222,7.1955c-3.6451,4.6862-7.4152,8.6227-12.6331,8.6227
		h-4.285c-2.197,0-3.3505,2.0327-3.3505,4.0104s1.6473,2.9659,4.1195,2.9649c0,2.4726-6.2063,2.4164-10.9857,2.4164
		c-5.5475,0-7.5793,2.6919-11.0402,2.6919c-4.34,0-2.3623-3.5148-13.5127-3.5148c-1.9771,0-3.9002,1.2628-3.9002,2.4164
		c0,0.4942,1.5935,1.208,1.5935,3.6244c0,3.2415-3.7905,5.0538-6.0972,5.0538c-1.9709,0-2.7679-0.7706-3.2954-1.8122
		c-0.5015-0.9893-0.055-2.2521-2.4714-2.2521c-1.7584,0-2.6921,1.8678-2.6921,4.4491c0,2.6919,0.9337,4.7786,0.9337,5.8221
		c0,2.5272,2.7465,2.8567,2.7465,5.4363c0,2.6368-3.1313,6.3717-15.3802,6.3717c-8.8431,0-13.4571,3.5709-16.8628,13.8952
		c1.0984-0.1091,2.3022-0.3296,3.4609-0.3296c1.7572,0,2.8556,0.7689,2.8556,1.9225c0,1.658-2.4064,3.7724-5.3272,6.2614
		c-3.7569,3.2029-8.239,6.5911-8.239,15.6536c0,12.304-2.9659,11.0402-2.9659,13.5106c0,1.1536,0.685,1.9445,1.1525,3.4057
		c0.581,1.8161,1.0449,3.9371,2.0327,5.6573c1.1161,1.9456,2.5884,3.2955,3.3143,3.2955c8.3306,0,1.7935-13.6214,8.6049-13.6214
		c1.9225,0,2.0411,0.7161,2.6915,1.1536c0.7121,0.4774,1.2087,0.6967,1.2087,1.0986c0,0.9882-1.9225,1.4827-3.2414,1.5929
		l0.1653,2.252c0,2.5806-3.3507,3.7895-5.9323,6.9759c-4.614,2.1418-5.8226,11.4771-13.5674,11.4771h-3.2404
		c-3.1313,0-5.2181,5.3834-5.2181,12.5798c0,2.6913,1.2088,4.2297,2.142,4.2297c3.7353,0,4.4716,2.6032,6.2613,4.6129
		c1.351,1.5184,2.9258,2.5816,3.5161,2.5816c1.4832,0,3.4057-2.3623,5.8767-2.3623c2.3644,0,3.7981,0.98,5.1634,1.3179
		c2.8237,0.7,4.356,1.0444,6.2073,1.0444c4.8885,0,9.5019,4.7789,13.7867,4.7789c5.4374,0,7.8544-4.394,13.1275-4.394
		c4.6686,0,7.2502,0.8228,10.1623,0.8228c3.1852,0,6.1511-2.5266,10.7104-2.5266c7.1958,0,6.482,6.3716,15.4894,6.3716
		c5.2179,0,12.084-4.4485,14.8863-4.4485c1.5367,0,2.5811,1.4276,2.5811,2.5812c0,2.1418,2.5266,4.4491,5.6017,4.4491
		c3.561,0,5.9803-3.4075,8.8443-6.3165c1.8612-1.8918,3.5572-3.7355,7.0854-3.7355l-0.2746,5.4387
		c8.5688-1.3189,15.7088-4.7787,20.5983-4.7787c1.1524,0,2.526,0.2193,3.6244,0.2193c10.6562,0,10.7664-8.5688,15.27-8.5688
		c1.4282,0,2.7471,1.4823,2.7471,3.6262c0,2.9649-1.2086,4.0089-1.2086,7.0303c0,2.2517,0.7688,2.8564,1.8674,2.8564
		c2.5816,0,10.491-5.8222,14.1713-5.8222c2.6916,0.5479,4.7784,1.3179,7.2509,1.3179c1.8122,0,3.6252-0.6597,4.7231-1.5373
		c0.2034,6.4019-7.3946,18.0639-14.1009,25.2562c-72.8689,10.3892-142.8265,30.8871-199.1032,55.5971
		c107.7428-24.9377,240.8872-51.907,360.5199-51.907c32.8621,0,66.9031,1.9225,98.1021,9.1622
		c-36.6371-12.6231-105.7391-20.2018-159.5114-20.2018C455.3608,363.3834,441.8866,363.8111,428.4102,364.6307"/>
	<path class="st4" d="M214.6146,324.7968L214.6146,324.7968c0.4272,0.4047,0.2361,1.1008,0.7949,1.4607
		c0.5754,0.3708,1.1212,0.6387,1.4358,0.6387c0.5192,0,2.6623-1.9048,2.7703-2.2076c0.5192,0,0.5849,0.4978,1.3207,0.4978
		c0.6057,0,1.2125-0.758,1.2125-0.9524c0-0.9959-1.4508-1.4943-1.9483-1.4943c-0.8439,0-0.5627,1.0395-1.6884,1.0395
		c-1.3207,0-1.6452-0.6713-2.7057-0.6713c-1.1041,0-0.7435,0.3192-1.2561,0.5412c-0.4563,0.1985-1.3417,0.0435-1.3417,0.5413
		C213.2086,324.3615,214.2388,324.439,214.6146,324.7968 M240.1604,255.2063L240.1604,255.2063
		c-0.3302,0.1148-0.5071,0.4179-0.1054,0.539c0.2652,0.0799,0.4428,0.3362,0.727,0.3655c0.1087,0.0114,0.3413,0.0313,0.425-0.0359
		c0.2557-0.2088,0.028-0.5114-0.1583-0.674C240.7793,255.1673,240.5043,255.0867,240.1604,255.2063z M243.9695,254.2026
		L243.9695,254.2026c0.3615,0.0172,0.7661,0.1643,0.8533,0.5771c0.0315,0.1484,0.0507,0.3782,0.0219,0.5281
		c-0.1172,0.6201-0.8256,0.6867-1.3309,0.7016c-0.3512,0.0104-0.8649,0.0315-1.1145,0.3076
		c-0.2073,0.2299-0.3037,0.566-0.4294,0.8461c-0.1582,0.3587-0.258,0.8108-0.6492,0.9872c-0.2956,0.134-0.9106,0.1063-1.1575-0.1031
		c-0.3484-0.2965-0.3969-0.8102-0.7216-1.1233c-0.2921-0.2823-0.6812-0.4548-0.9833-0.7369
		c-0.1538-0.1433-0.2557-0.3617-0.3792-0.5386c-0.1951-0.2776-0.3776-0.6784-0.1241-0.9959
		c0.1186-0.1476,0.3131-0.2551,0.468-0.3549c0.0959-0.0624,0.2343-0.1721,0.344-0.2079c0.1108-0.037,0.2248-0.0027,0.3407-0.0187
		c0.6475-0.0888,1.1573-0.7778,1.8332-0.6422c0.5534,0.1114,1.0813,0.323,1.595,0.5242
		C242.9802,254.1265,243.4955,254.1806,243.9695,254.2026z M299.6547,269.7856L299.6547,269.7856
		c-4.0693,1.2822-6.0068,2.0657-8.0984,3.3897c-1.3994,0.8859-0.7436,3.4957,1.7897,2.8883
		c2.3535-0.5651,5.9632-1.7588,8.035-2.6056C301.3497,271.9204,300.7318,270.9866,299.6547,269.7856z M410.0333,264.4138
		L410.0333,264.4138c-0.4525,0.2275-0.9955,0.2127-1.3255,0.6873c-0.2508,0.3642-0.2432,0.8394-0.5134,1.1915
		c-0.4287,0.5627-0.4365,0.9674-0.5102,1.6927c-0.0877,0.8682-0.5717,2.3965,1.5074,1.8013
		c2.2009-0.6294,2.0284-0.4377,3.8947,0.6625c1.6805,0.9944,1.6028-1.4544,1.8017-2.532c0.3496-1.8873-0.8923-4.1384-3.4195-4.447
		C410.5551,263.3588,410.758,264.0483,410.0333,264.4138z M409.5411,289.6992L409.5411,289.6992
		c0.4122,0.0255,0.5396-0.4982,0.8449-0.5627c0.9193-0.1929,1.6822-0.2635,2.4191-1.0692c-0.0551-1.4072-1.1711-0.9458-1.5758-1.351
		c-0.5925-0.5948-0.5622-1.2942-1.8002-1.3514C408.8063,287.0581,408.5175,288.0931,409.5411,289.6992z M341.8676,224.4267
		L341.8676,224.4267c-0.4173,0.614-0.5789,1.6773-0.1396,2.3194c0.8847,1.2942,4.3417,0.6168,5.7081,0.6901
		c2.0355,0.1103,2.6579-0.6586,2.5519-2.6363c-0.0766-1.4436-1.6203-3.5919-2.8671-1.8112
		c-0.3473,0.4962-0.1787,0.7529-0.7805,0.9046c-0.4626,0.1163-1.0584-0.2056-1.5247-0.2464
		C343.767,223.5531,342.5284,223.4512,341.8676,224.4267z M356.9087,247.6061L356.9087,247.6061
		c-1.1927,0.3704-3.4102,0.8896-3.7872,2.1579c-0.2602,0.8773-0.0656,1.4021,0.8991,1.4848
		c1.1507,0.0997,1.0594-0.9644,1.9864-1.3625c1.744-0.722,3.5352,0.274,5.2416-0.0315c1.2264-0.2181,1.1332-1.9318,0.2893-2.5293
		C360.3558,246.4905,358.1543,247.2197,356.9087,247.6061z M443.2821,291.8647L443.2821,291.8647
		c-0.7104,0.8463-2.9108,1.5109-2.9108,3.2151c0,1.1536,2.0714,1.7792,1.4828,2.5536c-0.4971,0.6553-1.2038,0.5555-1.9765,0.5778
		c-0.6819,0.0186-0.6819,1.5652,0.5753,1.5652c3.5435,0,5.3774-0.7832,5.1915-2.6363c1.3173-0.4122,1.7297-1.5659,1.7297-2.9665
		c0-2.8309-1.0064-2.6137-1.6481-3.4901c-0.4101-0.5612-0.4194-1.0418-0.7408-1.0418
		C444.1061,289.6418,444.1822,290.7955,443.2821,291.8647z M472.3387,307.6853L472.3387,307.6853
		c-0.5753,0.9895,2.6375,2.8018,4.4491,2.8018c1.4828,0,4.0392-1.4006,7.8268-1.4006c3.2966,0,5.11,0.7418,6.8401,0.7418
		c1.2359,0,2.8348,0.2466,2.7191-0.7418c-0.1655-1.4012-4.5325-1.8951-8.5698-1.8951c-6.0134,0-7.0029,0.742-9.31,0.742
		C474.3175,307.9334,473.3281,306.6972,472.3387,307.6853z M558.3555,339.6539c-6.0134,0-6.8378,1.4832-11.6172,1.4832
		c-7.4966,0-17.0557-4.2027-31.3081-4.2027c-5.0268,0-9.2291,0.9893-14.6654,0.9893c-13.0182,0-21.0926-4.916-36.9384-4.916
		c-8.7352,0-21.0397,2.1418-34.8258,2.1418c-6.4258,0-18.6735-0.3296-21.9695-1.8123c3.0209-2.7471,19.6643-5.1634,25.5966-5.1634
		c3.1292,0,32.8864-3.9542,49.9839-3.9542c13.7041,0,21.2007,2.7459,33.889,2.7459c4.2842,0,8.1579-0.3296,12.935-0.3296
		c4.3979,0,6.7563,0.4945,7.8274,0.4945c3.4615,0,13.0189-0.0826,15.0792-4.6966c-2.3016-0.7453-3.0061-2.1475-3.1086-4.242
		c-0.0172-0.3638-0.2469-0.6838-0.5849-0.8178c-0.3401-0.1328-0.7253-0.0553-0.9875,0.1983
		c-4.7756,4.6497-7.0465,4.9931-10.3981,1.5659c-0.824,2.0603-3.1313,3.213-5.7665,3.213c-3.7905,0-5.7676-2.0594-5.7676-5.1078
		c0-3.872,3.8722-1.6476,3.8722-5.4375c0-4.3676-1.6481-3.5435-1.3179-5.6853c1.8948-0.8241,4.449,0.2469,4.449-1.5655
		c0-0.6432-0.2469-1.5659-1.1546-1.5659c-4.2,0-3.6246,3.9554-8.1554,3.9554c-4.7792,0-4.8613-2.7191-8.4045-2.7191
		c-0.6172-0.6177-2.3887-0.1653-1.3177,2.3894c-1.8779-0.7611-3.0496-1.6479-3.0496-3.7072c0-3.0486,0.9893-5.0264,4.9445-5.0264
		c1.6487,0,3.79,1.9778,5.1085,1.9778c0.4116-0.9894,0.0814-2.39,0.0814-2.39c3.79-1.4826,3.1307,3.1314,7.1682,3.1314
		l2.5543-0.3296c-0.139-3.8281,1.0704-5.5207,3.8737-5.109c0.7403-2.2239-0.0838-4.4485-2.0603-4.4485
		c-2.1426,0-1.5649,3.214-4.2028,4.0369c-0.7402-2.9659-2.3066-2.8833-4.614-2.8833c-5.1895,0-8.437,0.7181-15.1587,1.3184
		c-2.6964,0.2403-6.0993,0.0315-8.8982,0.4124c-7.8291,1.062-13.3492,4.3665-21.6696,2.7177
		c3.8906,0.0889,7.901-0.5324,12.1104-1.8122c3.6385-1.1052,7.3755-2.7807,11.8642-3.9548
		c5.1388-1.3432,9.2175-1.4947,13.2658-2.0598c3.4219-0.4767,7.1496-1.4754,8.1575-1.4005c1.2954-2.5408-0.3307-6.097-3.2966-6.097
		c-6.0134,0-6.8378,2.719-11.2865,2.719c-2.5542,0-3.7089-1.2363-3.7905-3.7899c-1.4204,0-2.3259,0.5919-3.9552,1.1536
		c-1.561,0.5378-3.192,0.5561-5.1893,1.9775c-3.1902,2.2682-4.2859,5.3548-7.4157,5.3548c-2.8842,0-6.097-2.3888-9.9707-2.3888
		c-3.7063,0-5.1895,4.614-7.9905,4.614c-6.0972,0-13.7591-10.5464-13.7591-17.8799c2.3055-0.329,5.0245-3.4598,5.0245-7.0842
		c0-5.4386-8.7329-13.2658-8.7329-19.4446c0-2.2245,1.1525-2.8016,1.8951-2.8016c1.1525,0,2.8787,0.0529,3.9552,0.5771
		c0.4482-2.1778-0.9893-5.3559-1.071-7.4163h5.0246c1.3956-2.6373,2.6909-3.2706,4.1207-3.4598
		c1.3178-2.0603,0.4117-4.367-2.8011-4.367c-5.8503,0-4.6978,1.9777-11.7005,3.2134l-0.0815,3.8732
		c0,3.0106-2.2187,5.7979-4.6145,9.2273c-1.4051,2.0129-3.543,2.5542-3.543,7.1676c0,5.1088,3.7083,4.9435,3.7083,9.8871
		c-0.1295,2.2812-1.567,4.1195-4.5329,4.1195c-2.3887,0-4.6954-2.9659-4.5308-5.4375c-6.4256-0.082-11.9457-2.0604-13.2652-4.614
		c0.5771-2.8015,1.5664-4.7786,1.5664-7.0853c0-0.7418-0.6586-1.5659-2.472-1.5659c-6.7563,0-4.7798,8.8155-10.0514,8.8155
		c-6.8396,0-3.7899-11.2045-10.7112-11.2045c-1.9769,0-2.8004,7.2498-7.0854,7.2498c-2.8015,0-5.3552-2.3883-5.3552-6.5096
		c0-3.2949,1.2357-5.9317,2.1418-7.6613l6.6743-0.4951c0.2981-4.1619,1.0786-5.9131,3.7899-6.2613
		c-0.6591-0.4939-1.7131-0.7415-2.4721-0.7415c-3.2954,0-4.8856,1.4457-5.2732,4.9436
		c-11.8039,0.6074-19.7559,1.0451-29.4136,0.7414c-0.4119-0.0132-0.6571-1.1356,0.2467-1.2363
		c2.9666-0.3292,3.8734-0.9057,5.356-0.9057c5.3453-3.3814,8.6645-3.8945,11.7814-3.214c2.3073-1.4,3.9554-1.8122,4.6971-3.954
		c0.0315-2.7185,1.2855-3.4036,3.7073-4.4493c-0.6586-1.4004-2.3893-1.9776-5.2732-1.9776c-4.6954,0-4.0368,6.4268-12.0289,6.4268
		c-7.4157,0-11.2057-13.1832-17.3843-13.1832c-3.1313,0-4.6146,3.2955-5.5201,3.2955c-0.9067,0-1.6487-2.4716-3.4609-3.6247
		c-0.5573-0.3548-2.181-0.7142-4.1195-1.4833c-1.7671-0.7006-3.8726-2.3887-5.9317-2.3887c-4.285,0-3.7079,3.377-8.6514,3.377
		c-3.6252,0-3.7905-1.9765-8.239-1.9765c-7.7453,0-8.4039,4.2022-14.1715,4.2022c-0.5269,0-0.8946-0.8131-0.6591-1.072
		c1.6485-1.8124,3.7079-3.4597,6.015-3.4597c4.8609,0,23.5635-6.8385,25.9525-6.8385c1.9026,0,2.8015,0.4118,5.6854,0.4118
		c2.2246,0,11.3703-4.3665,18.1255-4.3665c6.5094,0,9.8877,2.6368,15.6541,2.6368c13.0178,0,7.4984-3.8733,28.3434-3.8733
		c8.4022,0,10.2978,0.5768,18.7017,0.5768c4.7798,0,6.2625-0.4939,13.3472-0.4939c9.6407,0,16.8089,10.2162,28.5894,10.2162
		c4.0561,0,14.2777,1.3444,19.8569,3.6261c9.0327,3.6914,15.9126,7.4756,23.7282,11.1223
		c3.8566,1.7986,7.0105,2.7119,10.4648,4.3664c4.9346,2.3662,5.5574,3.5729,8.1552,4.7789c3.2377,1.5019,8.266,2.7189,10.877,2.7189
		c2.9659,0,6.014,1.1536,6.014,4.8609c0,1.6476-0.4124,4.1201-1.4,5.6854c12.5234-0.1653,19.9384,1.4832,20.5154,6.9206
		c6.6725-0.2469,10.2161,0.9882,10.2161,5.4375c0,2.143-1.6479,3.3775-1.6479,5.4378c0,2.5542,1.7659,2.6121,3.1305,4.2838
		c2.2793,2.7918,3.9257,7.3445,7.0034,10.1346c3.1578,2.8628,6.838,3.4609,6.838,5.8503c0,3.4597-1.1525,4.8613-1.1525,8.5692
		c0,4.9424,3.6875,7.4194,6.3442,12.6871c1.6804,3.3336,1.9461,7.6868,3.7899,10.7116c2.3034,3.7773,5.9323,5.6949,5.9323,8.6515
		l-1.6485,3.9542v15.2417c-12.2761,1.8956-10.9488-3.9542-15.6542-3.9542c-6.5911,0-8.5682,4.1197-14.4185,4.1197
		C568.984,344.2679,565.9359,339.6539,558.3555,339.6539z"/>
	<path d="M302.4967,558.3907L302.4967,558.3907c-0.7634,0.5204-1.4083,1.1906-1.9341,2.0129h7.6582
		c-0.0838-0.8848-0.4365-1.5721-1.0577-2.0621c-0.6213-0.4882-1.3796-0.733-2.2742-0.733
		C304.0577,557.6085,303.2595,557.8687,302.4967,558.3907 M308.1743,566.277c0.1781,0,0.3094,0.0739,0.3935,0.222l1.6112,2.7003
		c0.0953,0.1577,0.1427,0.3055,0.1427,0.4421c0,0.1995-0.1322,0.3951-0.3945,0.5853c-1.4111,1.0422-2.7047,1.7413-3.8782,2.1
		c-1.1735,0.3571-2.4284,0.5374-3.7662,0.5374c-1.5373,0-2.9367-0.3589-4.2006-1.0749c-1.2627-0.7159-2.2577-1.6977-2.9835-2.9448
		c-0.7265-1.248-1.0903-2.6396-1.0903-4.178c0-0.5886,0.0525-1.1619,0.1577-1.7203c0.3479-1.9579,1.0659-3.6874,2.155-5.1878
		c1.0902-1.5003,2.4506-2.6637,4.0828-3.4901c1.632-0.8256,3.4002-1.2402,5.3068-1.2402c1.157,0,2.2884,0.2833,3.3946,0.8456
		c1.1058,0.5639,2.0191,1.4313,2.7405,2.6047c0.7204,1.1735,1.0815,2.6243,1.0815,4.3505c0,0.6531-0.0535,1.318-0.1577,1.9904
		c-0.085,0.5485-0.2271,0.9547-0.4278,1.2242c-0.1989,0.2678-0.4707,0.4503-0.8124,0.545
		c-0.3428,0.0931-0.8136,0.1423-1.4138,0.1423h-10.7695c0.0418,0.6838,0.2217,1.2837,0.5363,1.8002
		c0.3164,0.5146,0.7397,0.9154,1.2717,1.2003c0.5318,0.2829,1.1342,0.4257,1.8083,0.4257c0.7475,0,1.3846-0.0628,1.9104-0.1902
		c0.5258-0.1252,0.9536-0.2812,1.2792-0.4653c0.3263-0.1839,0.6841-0.4233,1.0749-0.7175c0.2304-0.1693,0.4041-0.2905,0.5203-0.365
		C307.884,566.3265,308.0262,566.277,308.1743,566.277z"/>
	<path d="M314.1669,569.1519c0-0.2734,0.1527-0.5411,0.4585-0.8052l2.4638-2.1154c0.1577-0.1274,0.3049-0.1898,0.4416-0.1898
		c0.1587,0,0.3323,0.0948,0.5213,0.285c1.0422,1.1465,2.158,1.7203,3.3474,1.7203c0.7484,0,1.3015-0.118,1.659-0.3554
		c0.3578-0.237,0.5837-0.5657,0.6792-0.9872c0.0202-0.1461,0.0307-0.247,0.0307-0.2999c0-0.2316-0.0727-0.4349-0.2209-0.608
		c-0.1472-0.1749-0.4058-0.3417-0.7729-0.505c-0.3693-0.1632-0.8956-0.351-1.5797-0.5604
		c-1.3901-0.4328-2.4632-1.0803-3.2216-1.9441c-0.758-0.8621-1.1365-1.9257-1.1365-3.1887c0-0.5258,0.0573-1.0422,0.1725-1.547
		c0.2217-1.0313,0.6775-1.9353,1.3664-2.7101c0.6895-0.7729,1.5659-1.3708,2.6291-1.7926c1.0632-0.4194,2.2532-0.63,3.569-0.63
		c1.0533,0,1.9771,0.1462,2.7724,0.4422c0.7949,0.2942,1.4424,0.6438,1.9417,1.0499c0.4999,0.4045,0.9818,0.8659,1.4447,1.3808
		c0.1472,0.1692,0.2217,0.3267,0.2217,0.4744c0,0.2112-0.1637,0.4371-0.489,0.6802l-2.5591,1.895
		c-0.2001,0.1575-0.3786,0.2352-0.5363,0.2352c-0.1378,0-0.2905-0.0832-0.4587-0.2523c-0.2837-0.2827-0.5186-0.4994-0.7027-0.6477
		c-0.1841-0.1461-0.421-0.275-0.7099-0.3852c-0.2899-0.1126-0.6399-0.1671-1.05-0.1671c-0.5687,0-1.0218,0.0892-1.3586,0.2695
		c-0.3374,0.1779-0.5363,0.3984-0.6003,0.6625c-0.021,0.1252-0.0315,0.2111-0.0315,0.2524c0,0.1902,0.0685,0.3478,0.2057,0.473
		c0.1367,0.1272,0.3384,0.2485,0.6072,0.3649c0.2686,0.1156,0.6924,0.2734,1.2711,0.4723c0.4741,0.1577,0.9211,0.3175,1.3426,0.4752
		c1.3471,0.5143,2.3157,1.196,2.9054,2.0448c0.5898,0.8466,0.8845,1.7926,0.8845,2.8331c0,0.4746-0.0577,0.9701-0.1736,1.485
		c-0.2953,1.3482-0.8632,2.4725-1.7052,3.3726c-0.8416,0.9001-1.8531,1.561-3.032,1.9804
		c-1.1795,0.4218-2.4424,0.6321-3.7904,0.6321c-1.3576,0-2.6155-0.2639-3.774-0.7898c-1.1581-0.5258-2.0951-1.331-2.8111-2.4152
		C314.2412,569.5372,314.1669,569.3414,314.1669,569.1519"/>
	<path d="M354.5806,560.7987c0-0.7369-0.209-1.3273-0.6234-1.7698c-0.4161-0.4404-0.9773-0.6625-1.6829-0.6625
		c-0.8526,0-1.6056,0.3052-2.2575,0.915c-0.6532,0.6118-1.0842,1.4166-1.2954,2.4174l-2.1634,10.1379
		c-0.0418,0.2413-0.14,0.4216-0.2915,0.5374c-0.1526,0.1157-0.3455,0.1731-0.5777,0.1731h-4.3737
		c-0.3897,0-0.5841-0.1637-0.5841-0.49v-0.0628c0-0.063,0.0049-0.1159,0.0154-0.1577l3.8212-17.9558
		c0.0949-0.4728,0.38-0.7098,0.8538-0.7098h2.7637c0.2415,0,0.4491,0.0871,0.6228,0.2601c0.1748,0.1746,0.2718,0.3759,0.2928,0.6073
		l0.0634,1.7076c0.8945-0.9689,1.8156-1.6734,2.7631-2.1099c0.9473-0.4365,1.9748-0.6553,3.08-0.6553
		c1.0202,0,1.9841,0.226,2.8898,0.6801c0.9049,0.452,1.5571,1.2,1.9577,2.2422c2.0002-1.9479,4.1008-2.9223,6.3012-2.9223
		c1.2528,0,2.3028,0.2602,3.1506,0.7826c0.8472,0.5204,1.476,1.2451,1.8867,2.17c0.4113,0.9271,0.6162,1.9957,0.6162,3.2056
		c0,0.8318-0.0953,1.707-0.2839,2.6221l-2.1479,10.0909c-0.0949,0.463-0.3788,0.6951-0.8528,0.6951h-4.2799
		c-0.3891,0-0.5837-0.1637-0.5837-0.49c0-0.0303,0.0096-0.0992,0.0309-0.2051l2.148-10.1383
		c0.0728-0.3362,0.1102-0.6796,0.1102-1.0269c0-0.7159-0.1847-1.2783-0.5528-1.6883c-0.3683-0.4101-0.9001-0.6172-1.5952-0.6172
		c-0.5681,0-1.1079,0.1404-1.6181,0.4194c-0.511,0.2795-0.9454,0.6707-1.3032,1.1757c-0.3576,0.5071-0.6057,1.0842-0.7424,1.7374
		l-2.1313,10.1383c-0.0949,0.463-0.3743,0.6951-0.8367,0.6951h-4.2961c-0.3891,0-0.5835-0.1637-0.5835-0.49
		c0-0.0303,0.0099-0.0992,0.0307-0.2051l2.164-10.1533C354.5491,561.3815,354.5806,561.0838,354.5806,560.7987"/>
	<path d="M378.7267,545.3304L378.7267,545.3304c0.2364-0.2259,0.5765-0.3401,1.0179-0.3401h3.4747
		c0.6213,0,0.9316,0.2734,0.9316,0.8208c0,0.0853-0.021,0.2332-0.0634,0.442l-0.742,3.5054
		c-0.0844,0.4233-0.2343,0.7123-0.4497,0.8698c-0.2167,0.1577-0.5243,0.2376-0.9238,0.2376h-3.4751
		c-0.3368,0-0.5942-0.055-0.7733-0.1676c-0.1787-0.1102-0.268-0.3014-0.268-0.5748c0-0.1484,0.01-0.264,0.0315-0.3479l0.7418-3.5225
		C378.3232,545.864,378.4891,545.5564,378.7267,545.3304 M376.9491,553.376c0.1587-0.1157,0.3214-0.1731,0.49-0.1731h4.5004
		c0.1692,0,0.2998,0.0457,0.3951,0.1406c0.0949,0.0947,0.1423,0.2167,0.1423,0.3648c0,0.0723-0.0056,0.1252-0.0159,0.1577
		l-3.8368,18.0182c-0.0949,0.4426-0.3589,0.663-0.7898,0.663h-4.5016c-0.3786,0-0.5678-0.1522-0.5678-0.4581
		c0-0.0319,0.0105-0.1003,0.0315-0.205l3.8377-18.0182C376.6862,553.6548,376.792,553.4917,376.9491,553.376z"/>
	<path d="M401.3103,558.3907L401.3103,558.3907c-0.7634,0.5204-1.4072,1.1906-1.9341,2.0129h7.6586
		c-0.0859-0.8848-0.4369-1.5721-1.0576-2.0621c-0.6212-0.4882-1.3808-0.733-2.2754-0.733
		C402.8707,557.6085,402.0731,557.8687,401.3103,558.3907 M406.9875,566.277c0.1779,0,0.3092,0.0739,0.3946,0.222l1.61,2.7003
		c0.0955,0.1577,0.1427,0.3055,0.1427,0.4421c0,0.1995-0.1311,0.3951-0.3951,0.5853c-1.411,1.0422-2.7018,1.7413-3.8776,2.1
		c-1.1735,0.3571-2.4284,0.5374-3.7644,0.5374c-1.5373,0-2.9379-0.3589-4.2006-1.0749c-1.2633-0.7159-2.2589-1.6977-2.9853-2.9448
		c-0.7258-1.248-1.0885-2.6396-1.0885-4.178c0-0.5886,0.0517-1.1619,0.1577-1.7203c0.3471-1.9579,1.066-3.6874,2.155-5.1878
		c1.0897-1.5003,2.4506-2.6637,4.0826-3.4901c1.6321-0.8256,3.3993-1.2402,5.3058-1.2402c1.1585,0,2.2901,0.2833,3.3952,0.8456
		c1.105,0.5639,2.0183,1.4313,2.7399,2.6047c0.7198,1.1735,1.0809,2.6243,1.0809,4.3505c0,0.6531-0.0535,1.318-0.1583,1.9904
		c-0.0833,0.5485-0.2254,0.9547-0.4249,1.2242c-0.2013,0.2678-0.4708,0.4503-0.8148,0.545
		c-0.3416,0.0931-0.8123,0.1423-1.4126,0.1423h-10.7701c0.043,0.6838,0.2215,1.2837,0.5374,1.8002
		c0.3163,0.5146,0.7397,0.9154,1.2715,1.2003c0.5302,0.2829,1.1343,0.4257,1.8079,0.4257c0.7463,0,1.3823-0.0628,1.9104-0.1902
		c0.5258-0.1252,0.9529-0.2812,1.2798-0.4653c0.3245-0.1839,0.6835-0.4233,1.0726-0.7175c0.232-0.1693,0.4046-0.2905,0.5224-0.365
		C406.6985,566.3265,406.8391,566.277,406.9875,566.277z"/>
	<path d="M428.7178,561.9359L428.7178,561.9359c0-0.6851-0.1462-1.3195-0.4404-1.9044c-0.2965-0.5831-0.7161-1.0521-1.2645-1.4048
		c-0.5473-0.3517-1.1888-0.5281-1.9258-0.5281c-0.98,0-1.863,0.2129-2.6528,0.64c-0.79,0.4256-1.4431,1.001-1.9596,1.728
		c-0.5147,0.727-0.8674,1.5417-1.0576,2.4479c-0.0949,0.4116-0.1423,0.8007-0.1423,1.1696c0,0.6949,0.1538,1.3117,0.4593,1.8546
		c0.304,0.5419,0.7406,0.9629,1.3102,1.2633c0.5676,0.2998,1.2477,0.4497,2.0375,0.4497c0.9157,0,1.7623-0.2236,2.5426-0.67
		c0.779-0.4482,1.4282-1.0331,1.9501-1.753c0.5203-0.7214,0.8661-1.4941,1.0331-2.3142
		C428.6819,562.5246,428.7178,562.1981,428.7178,561.9359 M429.9502,578.4525h-4.4057c-0.3798,0-0.5676-0.152-0.5676-0.4579
		c0-0.0414,0.0099-0.1154,0.0303-0.22l1.4848-6.9801c-0.7689,0.6111-1.61,1.0956-2.5272,1.4523
		c-0.9149,0.3594-1.842,0.5375-2.7778,0.5375c-1.4321,0-2.7042-0.3512-3.8148-1.05c-1.111-0.7006-1.9732-1.6559-2.5882-2.8657
		c-0.6174-1.2114-0.925-2.5591-0.925-4.0444c0-0.7877,0.0838-1.5682,0.2524-2.3355c0.4107-1.9484,1.1531-3.6382,2.2258-5.0703
		c1.0747-1.4313,2.3849-2.5249,3.9326-3.2844c1.5478-0.7579,3.2282-1.1359,5.0379-1.1359c2.2421,0,3.9265,0.9154,5.0542,2.748
		l0.6002-1.2952c0.021-0.0421,0.0856-0.1841,0.1979-0.4272c0.1097-0.2431,0.2485-0.4389,0.4173-0.5925
		c0.1674-0.1522,0.3477-0.2283,0.5373-0.2283h3.2057c0.1896,0,0.3362,0.0381,0.4426,0.118
		c0.1042,0.0776,0.1571,0.1971,0.1571,0.3548c0,0.0325-0.0111,0.101-0.0321,0.2051l-5.0851,23.8937
		C430.698,578.2266,430.4138,578.4525,429.9502,578.4525z"/>
	<path d="M452.9003,553.2029h4.3902c0.3891,0,0.5826,0.1577,0.5826,0.4728c0,0.0325-0.0093,0.1103-0.0303,0.2377l-3.8076,17.9233
		c-0.104,0.4729-0.389,0.7105-0.852,0.7105h-2.8105c-0.243,0-0.4503-0.0876-0.6245-0.2602c-0.1731-0.1754-0.2701-0.3765-0.291-0.608
		l-0.0793-1.6899c-1.8422,1.9158-4.0167,2.8751-6.5211,2.8751c-0.8427,0-1.7109-0.209-2.6071-0.6246
		c-0.8946-0.4161-1.6497-1.0825-2.2653-1.9981c-0.6168-0.9149-0.9243-2.0734-0.9243-3.4745c0-0.6951,0.0847-1.4297,0.2524-2.2102
		l2.2748-10.6605c0.0947-0.4614,0.3741-0.6934,0.8373-0.6934h4.2953c0.389,0,0.5825,0.1616,0.5825,0.4885
		c0,0.0319-0.0093,0.1001-0.0303,0.2049l-2.18,10.2504c-0.0622,0.2617-0.0947,0.5314-0.0947,0.8048
		c0,0.7368,0.2314,1.3403,0.6949,1.8077c0.4636,0.469,1.1317,0.7021,2.0053,0.7021c0.4332,0,0.9341-0.1019,1.5097-0.3074
		c0.5732-0.2045,1.1128-0.5579,1.6175-1.0572c0.5056-0.4993,0.8472-1.1603,1.0275-1.9825l2.1628-10.2007
		C452.1309,553.4382,452.4251,553.2029,452.9003,553.2029"/>
	<path d="M463.2774,545.3304L463.2774,545.3304c0.2371-0.2259,0.577-0.3401,1.0197-0.3401h3.473
		c0.6211,0,0.9319,0.2734,0.9319,0.8208c0,0.0853-0.0204,0.2332-0.0622,0.442l-0.7424,3.5054
		c-0.0856,0.4233-0.2355,0.7123-0.4503,0.8698c-0.216,0.1577-0.5236,0.2376-0.925,0.2376h-3.4724
		c-0.3386,0-0.5964-0.055-0.7751-0.1676c-0.1785-0.1102-0.2677-0.3014-0.2677-0.5748c0-0.1484,0.0093-0.264,0.0303-0.3479
		l0.7424-3.5225C462.8744,545.864,463.0398,545.5564,463.2774,545.3304 M461.502,553.376c0.1577-0.1157,0.3208-0.1731,0.4878-0.1731
		h4.502c0.1671,0,0.3004,0.0457,0.393,0.1406c0.0954,0.0947,0.1429,0.2167,0.1429,0.3648c0,0.0723-0.0039,0.1252-0.0155,0.1577
		l-3.8374,18.0182c-0.0947,0.4426-0.357,0.663-0.7898,0.663h-4.5005c-0.3797,0-0.5676-0.1522-0.5676-0.4581
		c0-0.0319,0.0094-0.1003,0.0303-0.205l3.8372-18.0182C461.2379,553.6548,461.3445,553.4917,461.502,553.376z"/>
	<path d="M473.6714,564.004L473.6714,564.004c0,0.6741,0.1367,1.2874,0.41,1.8398c0.2734,0.5529,0.6819,0.9915,1.2254,1.3178
		c0.5408,0.3268,1.2014,0.4899,1.9804,0.4899c0.9265,0,1.787-0.2067,2.5822-0.6227c0.7959-0.4156,1.4622-0.9816,1.9976-1.6993
		c0.5372-0.7144,0.9061-1.5214,1.105-2.4152c0.0954-0.4311,0.1427-0.8472,0.1427-1.248c0-1.0726-0.3191-1.9368-0.9551-2.59
		c-0.636-0.6516-1.5703-0.9778-2.8027-0.9778c-0.8526,0-1.6767,0.2316-2.4704,0.6931c-0.7959,0.4633-1.47,1.0669-2.0222,1.8095
		c-0.553,0.7429-0.9133,1.5135-1.0826,2.3133C473.7078,563.2521,473.6714,563.6149,473.6714,564.004 M471.2088,553.2029h3.2052
		c0.2413,0,0.3969,0.0892,0.4657,0.2679c0.0678,0.1785,0.1081,0.3687,0.119,0.5676c0.0099,0.2012,0.021,0.3385,0.0309,0.4124
		l0.0622,1.2952c1.9065-1.8326,3.9801-2.748,6.2228-2.748c1.4321,0,2.7021,0.3212,3.8071,0.9628
		c1.1052,0.642,1.9656,1.5422,2.5806,2.7003c0.6174,1.1585,0.925,2.4951,0.925,4.0103c0,0.8015-0.0949,1.6426-0.2851,2.5272
		c-0.4007,1.8422-1.1107,3.4862-2.1324,4.9354c-1.0214,1.4469-2.3051,2.5844-3.8528,3.4108
		c-1.5471,0.8256-3.2794,1.2396-5.1955,1.2396c-0.9374,0-1.8188-0.1841-2.645-0.5524c-0.8257-0.3687-1.4827-0.847-1.9651-1.4373
		l-1.4847,6.9801c-0.0955,0.4519-0.3689,0.6779-0.8223,0.6779h-4.4058c-0.1896,0-0.3355-0.0379-0.442-0.1179
		c-0.1048-0.0777-0.1577-0.1973-0.1577-0.355c0-0.0325,0.011-0.1004,0.032-0.205l5.0851-23.8937
		C470.4609,553.4289,470.7452,553.2029,471.2088,553.2029z"/>
	<path d="M496.2451,564.0667L496.2451,564.0667c0,0.695,0.139,1.3213,0.4185,1.8795c0.2788,0.5585,0.6835,0.9971,1.2147,1.318
		c0.532,0.3229,1.1626,0.4822,1.8879,0.4822c0.8637,0,1.6766-0.2221,2.44-0.6625c0.7634-0.4426,1.4072-1.0329,1.9347-1.7698
		c0.5264-0.7369,0.8773-1.5306,1.0576-2.385c0.0838-0.4194,0.1273-0.8052,0.1273-1.1525c0-0.6927-0.1382-1.3179-0.4116-1.8701
		c-0.274-0.5528-0.6742-0.9878-1.2005-1.303c-0.526-0.317-1.1527-0.4747-1.8779-0.4747c-0.8544,0-1.6635,0.2205-2.4323,0.6555
		c-0.769,0.438-1.4225,1.0212-1.9579,1.7521c-0.5374,0.733-0.8962,1.5306-1.0747,2.3926
		C496.2871,563.3508,496.2451,563.7306,496.2451,564.0667 M493.1106,557.694c1.1408-1.4982,2.5597-2.6545,4.255-3.4654
		c1.696-0.8107,3.5381-1.2153,5.5279-1.2153c1.5779,0,2.9845,0.3417,4.2153,1.0251c1.2324,0.6858,2.1893,1.6277,2.8751,2.8276
		c0.6835,1.1999,1.0251,2.5482,1.0251,4.0423c0,0.6329-0.0739,1.3047-0.2205,2.0207c-0.41,2.0224-1.1844,3.7806-2.322,5.2755
		c-1.1353,1.4941-2.5365,2.645-4.2,3.4498c-1.6635,0.8052-3.473,1.2098-5.4308,1.2098c-1.5913,0-3.01-0.3472-4.2574-1.0446
		c-1.2477-0.6928-2.2178-1.6518-2.9129-2.8727c-0.695-1.2209-1.0422-2.59-1.0422-4.1057c0-0.6323,0.0622-1.2684,0.1896-1.9122
		C491.2018,560.941,491.9675,559.1959,493.1106,557.694z"/>
	<path class="st5" d="M300.2081,489.5378L300.2081,489.5378l-3.9871-36.2231l-22.1972,36.2231H300.2081z M295.0579,415.8464h20.1089
		c2.3386,0,3.7077,1.1921,4.1075,3.5739l17.156,111.4064c0.0562,0.2227,0.0853,0.5281,0.0853,0.9155
		c0,1.7163-1.0268,2.5746-3.0806,2.5746h-23.6174c-2.4533,0-3.8506-1.1636-4.1924-3.4901l-2.3109-15.6183h-44.8393l-8.9841,15.6183
		c-1.2563,2.3265-3.1385,3.4901-5.6486,3.4901h-25.3277c-1.598,0-2.3967-0.4973-2.3967-1.4958c0-0.4978,0.2565-1.1626,0.77-1.9943
		l72.2655-111.4064C290.579,417.0385,292.5474,415.8464,295.0579,415.8464z"/>
	<path class="st5" d="M431.4124,467.9417L431.4124,467.9417c0-4.6503-1.071-8.847-3.2089-12.5856
		c-2.1403-3.7386-5.8238-6.6593-9.73-8.7654c-3.9079-2.1039-9.7775-3.1556-14.9668-3.1556h-11.4662l-10.8831,61.9755h11.4662
		c5.9902,0,11.7219-1.3825,17.1984-4.1531c5.4765-2.7703,10.1269-6.5227,13.9493-11.2579
		c3.8202-4.7342,5.7003-9.8992,6.9554-15.4932C431.1826,472.1253,431.4124,469.9378,431.4124,467.9417 M368.8165,413.8699h42.2551
		c9.2991,0,18.5424,2.1739,26.4155,6.5226c7.8724,4.3484,15.4507,12.3482,20.1009,20.0459c4.6488,7.7,5.6552,16.3668,5.6552,26.0031
		c0,2.6038-0.2283,5.5131-0.6835,8.7235c-1.7699,11.576-7.5804,21.8637-14.7959,30.8646
		c-7.2184,9.0008-16.0874,15.9638-26.6132,20.893c-10.5255,4.9297-21.463,7.3942-32.8147,7.3942h-40.8331
		c-2.0537,0-3.0812-0.8009-3.0812-2.4092c0-0.1654,0.0562-0.5263,0.1709-1.0809l19.7737-113.3852
		C364.8805,415.062,366.3632,413.8699,368.8165,413.8699z"/>
	<path class="st5" d="M537.9711,504.3303l3.3022-21.7595c0.4557-2.3259,1.884-3.4901,4.2799-3.4901h22.933
		c0.7976,0,1.4958,0.1803,2.0961,0.5411c0.5981,0.3589,0.8985,0.9818,0.8985,1.8686c0,0.1647-0.0574,0.5258-0.171,1.0803
		l-6.4946,39.8652c-0.1725,0.8313-0.4707,1.5511-0.9,2.1607c-0.4272,0.6096-1.0687,1.1353-1.9237,1.5781
		c-11.7538,6.5359-24.8444,9.8036-39.2775,9.8036c-9.9826,0-19.6001-2.1875-27.5283-6.5623
		c-7.9292-4.3752-16.1115-11.1411-20.5877-18.9794c-4.481-7.8367-7.3769-16.0531-7.3769-25.9673
		c0-3.1578,0.2563-6.397,0.7695-9.7201c1.6536-11.6855,8.6701-24.7767,15.7714-33.9974
		c7.1021-9.2229,15.3564-15.7494,26.083-20.9006c10.7232-5.1503,22.2188-8.3858,34.4836-8.3858
		c7.0732,0,13.2924,1.0539,18.6548,3.1577c5.3624,2.106,9.1219,4.5197,13.9128,8.562c0.7992,0.6648,1.1982,1.3582,1.1982,2.0775
		c0,0.7198-0.399,1.5229-1.1982,2.4097l-16.575,19.0968c-0.9133,0.9421-1.8818,1.4111-2.9092,1.4111
		c-0.7998,0-1.5112-0.2755-2.1379-0.8295c-2.2258-1.8824-4.793-3.365-7.7023-4.446c-2.9106-1.0801-6.7635-2.2779-10.2441-2.2779
		c-6.2191,0-10.6908,1.384-16.051,4.1525c-5.3647,2.7703-9.8553,6.5508-13.4781,11.3417
		c-3.6235,4.7913-6.7486,12.7587-8.0609,18.6282c-0.5717,2.7703-0.1974,5.2335-0.1974,7.3941c0,4.6525,1.6574,8.82,3.6553,12.5042
		c1.9954,3.6836,6.1656,5.9323,9.8739,8.0642c3.7084,2.1327,8.705,3.1981,13.666,3.1981
		C530.8428,505.91,534.1487,505.3842,537.9711,504.3303"/>
</g>
</svg>
