<?xml version="1.0" encoding="UTF-8"?>
<svg id="_图层_1" data-name="图层_1" xmlns="http://www.w3.org/2000/svg" xmlns:xlink="http://www.w3.org/1999/xlink" version="1.1" viewBox="0 0 800 800">
  <!-- Created by @FCLOGO 2024-12-5 GMT+8 15:27:32 . https://fclogo.top/ -->
<!-- FOR PERSONAL USE ONLY NOT FOR COMMERCIAL USE -->
  <defs>
    <style>
      .st0 {
        fill: url(#_未命名的渐变_2);
      }

      .st1 {
        fill: #ccc;
      }

      .st2 {
        fill: #fff;
      }

      .st3 {
        fill: #02152b;
      }

      .st4 {
        fill: #697a7c;
      }
    </style>
    <linearGradient id="_未命名的渐变_2" data-name="未命名的渐变 2" x1="677.1" y1="726.25" x2="677.1" y2="-455.13" gradientTransform="translate(.41 473.79) scale(.59 -.59)" gradientUnits="userSpaceOnUse">
      <stop offset="0" stop-color="#f9a51a"/>
      <stop offset="0" stop-color="#f9a31a"/>
      <stop offset=".11" stop-color="#f47b1e"/>
      <stop offset=".2" stop-color="#f16321"/>
      <stop offset=".25" stop-color="#f05a22"/>
      <stop offset=".55" stop-color="#ec1c24"/>
      <stop offset=".58" stop-color="#da2e33"/>
      <stop offset=".65" stop-color="#ab5e58"/>
      <stop offset=".65" stop-color="#aa5f59"/>
      <stop offset=".83" stop-color="#0f8ac8"/>
      <stop offset=".85" stop-color="#008ed3"/>
      <stop offset=".86" stop-color="#007bc4"/>
      <stop offset=".88" stop-color="#006ab6"/>
      <stop offset=".9" stop-color="#005dac"/>
      <stop offset=".93" stop-color="#0056a7"/>
      <stop offset="1" stop-color="#0054a5"/>
    </linearGradient>
  </defs>
  <path class="st1" d="M348.22,774.3c-.79,0-1.38-.22-1.77-.65-.39-.44-.53-1.03-.41-1.79l.25-1.65c.12-.75.45-1.35.98-1.78.53-.44,1.19-.65,1.98-.65s1.33.2,1.72.6c.39.4.55.94.47,1.62h-1.24c.03-.36-.06-.64-.26-.84-.2-.2-.5-.3-.89-.3-.42,0-.76.12-1.03.35-.27.23-.43.56-.5.99l-.26,1.66c-.07.44,0,.77.19,1,.19.23.5.35.92.35.39,0,.72-.1.98-.3.26-.2.44-.48.52-.85h1.24c-.14.69-.47,1.23-.99,1.63-.52.4-1.16.6-1.92.6ZM352.8,774.19l1-6.29h1.19l-.19,1.19c.34-.87.97-1.3,1.91-1.3.67,0,1.17.21,1.49.62.32.42.43.99.31,1.71l-.07.42h-1.27l.06-.32c.07-.45.01-.8-.17-1.04-.18-.24-.48-.36-.88-.36s-.74.12-1.01.37c-.27.24-.43.59-.5,1.03l-.63,3.97h-1.24ZM361.91,774.3c-.77,0-1.35-.22-1.73-.67s-.52-1.04-.4-1.77l.25-1.65c.08-.49.26-.92.52-1.28s.6-.65,1.01-.85c.41-.2.87-.3,1.38-.3.77,0,1.35.22,1.73.67.39.45.52,1.04.39,1.77l-.17,1.12h-3.85l-.09.53c-.15.95.22,1.43,1.11,1.43.72,0,1.17-.25,1.37-.74h1.22c-.17.53-.5.96-1.01,1.28-.5.32-1.09.47-1.76.47ZM361.23,770.22l-.05.29h2.65s.05-.3.05-.3c.07-.47.01-.82-.17-1.07-.18-.25-.49-.37-.92-.37s-.8.13-1.06.38c-.26.25-.43.61-.51,1.08ZM368.33,774.3c-.63,0-1.1-.21-1.41-.64s-.4-1-.27-1.73l.27-1.77c.11-.73.39-1.31.84-1.74.44-.43.98-.64,1.61-.64.47,0,.83.12,1.09.35.26.24.39.56.38.96h.02l.17-1.2h1.24l-1,6.29h-1.22l.19-1.2h-.02c-.12.41-.35.73-.69.97s-.74.35-1.21.35ZM368.93,773.23c.39,0,.72-.12.98-.36.26-.24.43-.57.5-1.01l.25-1.65c.07-.43,0-.76-.18-1-.19-.24-.47-.36-.86-.36s-.72.12-.98.35c-.26.24-.42.57-.49,1.01l-.25,1.65c-.07.44-.01.78.17,1.01.18.23.47.35.88.35ZM376.35,774.19c-.57,0-.99-.16-1.26-.47-.27-.31-.36-.75-.27-1.32l.54-3.39h-1.74l.17-1.12h1.74l.27-1.72h1.24l-.27,1.72h2.47l-.18,1.12h-2.46l-.54,3.39c-.08.44.1.66.53.66h1.72l-.17,1.12h-1.77ZM382.5,774.3c-.77,0-1.35-.22-1.73-.67s-.52-1.04-.4-1.77l.25-1.65c.08-.49.26-.92.52-1.28s.6-.65,1.01-.85c.41-.2.87-.3,1.38-.3.77,0,1.35.22,1.73.67.39.45.52,1.04.39,1.77l-.17,1.12h-3.85l-.09.53c-.15.95.22,1.43,1.11,1.43.72,0,1.17-.25,1.37-.74h1.22c-.17.53-.5.96-1.01,1.28-.5.32-1.09.47-1.76.47ZM381.83,770.22l-.05.29h2.65s.05-.3.05-.3c.07-.47.01-.82-.17-1.07-.18-.25-.49-.37-.92-.37s-.8.13-1.06.38c-.26.25-.43.61-.51,1.08ZM388.92,774.3c-.63,0-1.1-.21-1.4-.64-.3-.42-.39-1-.28-1.73l.27-1.77c.11-.73.39-1.31.84-1.74.44-.43.98-.64,1.61-.64.47,0,.83.12,1.09.35.26.24.39.56.38.96h.02l.21-1.47.3-1.8h1.24l-1.33,8.35h-1.22l.19-1.2h-.02c-.12.41-.35.73-.69.97s-.74.35-1.21.35ZM389.53,773.23c.39,0,.72-.12.98-.36.26-.24.43-.57.5-1.01l.25-1.65c.08-.43.02-.76-.17-1-.19-.24-.48-.36-.87-.36s-.72.12-.98.35c-.26.24-.42.57-.49,1.01l-.25,1.65c-.08.44-.02.78.16,1.01s.48.35.88.35ZM401.02,774.3c-.47,0-.84-.12-1.1-.35-.26-.23-.39-.56-.38-.97h-.01l-.19,1.2h-1.22l1.33-8.35h1.24l-.29,1.8-.27,1.47h.05c.12-.41.35-.73.69-.97.34-.23.74-.35,1.21-.35.63,0,1.1.21,1.4.64.3.43.39,1.01.28,1.74l-.27,1.77c-.11.73-.39,1.31-.84,1.73-.45.42-.98.64-1.61.64ZM400.77,773.23c.4,0,.72-.12.98-.35.26-.23.42-.57.5-1.01l.25-1.65c.07-.43.01-.77-.17-1.01-.18-.24-.47-.35-.87-.35s-.72.12-.98.36-.43.57-.5,1l-.25,1.65c-.07.44-.01.77.17,1.01.18.24.47.36.87.36ZM405.47,776.25l.17-1.06h1.93c.64,0,1.01-.3,1.1-.9l.1-.67.21-1.19h-.03c-.12.42-.35.74-.68.97-.33.23-.73.34-1.2.34-.63,0-1.09-.2-1.4-.6s-.41-.94-.3-1.63l.58-3.6h1.24l-.56,3.48c-.06.41,0,.73.18.96s.47.34.85.34.72-.12.98-.37c.27-.24.43-.58.49-1.02l.54-3.4h1.24l-1.01,6.41c-.1.6-.37,1.08-.81,1.42-.44.35-1,.52-1.67.52h-1.95ZM417.79,770.09h3.22l.54-1.85h-5.47l-1.71,6.44h2.15l.59-2.1h3.03l.44-1.71h-3.03l.24-.78ZM424.23,772.92c-.59,0-1.02-.39-1.02-1.12,0-.88.63-1.76,1.61-1.76.49,0,.88.24,1.02.78l1.95-.83c-.29-1.17-1.27-1.9-2.64-1.9-2.78,0-4.15,2.15-4.15,3.9s1.27,2.83,3.07,2.83c1.37,0,2.34-.59,2.98-1.42l-1.51-1.17c-.39.44-.83.68-1.32.68ZM430.91,768.23h-2.15l-1.76,6.44h5.12l.49-1.85h-2.93l1.22-4.59ZM439.75,771.01c0-1.66-1.32-2.93-3.22-2.93-2.2,0-3.81,1.81-3.81,3.81,0,1.66,1.32,2.93,3.22,2.93,2.2,0,3.81-1.81,3.81-3.81ZM434.92,771.7c0-.83.59-1.71,1.51-1.71.78,0,1.17.54,1.17,1.22,0,.83-.59,1.71-1.51,1.71-.78,0-1.17-.54-1.17-1.22ZM443.21,772.23h1.07l-.2.68c-.15.05-.34.1-.59.1-.68,0-1.27-.39-1.27-1.22,0-1.02.73-1.9,1.95-1.9.59,0,1.12.24,1.51.59l1.37-1.37c-.44-.54-1.51-1.07-2.73-1.07-2.59,0-4.29,1.76-4.29,3.86s1.61,2.88,3.22,2.88c.93,0,1.85-.29,2.49-.68l.93-3.32h-3.12l-.34,1.46ZM450.78,768.08c-2.2,0-3.81,1.81-3.81,3.81,0,1.66,1.32,2.93,3.22,2.93,2.2,0,3.81-1.81,3.81-3.81,0-1.66-1.32-2.93-3.22-2.93ZM450.34,772.92c-.78,0-1.17-.54-1.17-1.22,0-.83.59-1.71,1.51-1.71.78,0,1.17.54,1.17,1.22,0,.83-.59,1.71-1.51,1.71ZM437.94,767.5c-.05.29.1.49.44.49s.54-.2.63-.49c.05-.24-.1-.49-.44-.49s-.59.24-.63.49ZM432.13,765.5c-.44,0-.73.24-.78.59s.1.59.54.59.73-.24.78-.59c.1-.34-.1-.59-.54-.59ZM433.01,767.3c-.1.54.15.88.83.88.63,0,1.07-.39,1.17-.88s-.15-.88-.83-.88c-.68,0-1.07.39-1.17.88ZM439.6,777.55l-2.44-1.81h-1.51l4.25,3.17,1.61-3.17h-.98l-.93,1.81ZM425.84,767.16l-2-1.46,23.13-2.78-2.15,4.25h1.02l2.68-5.32-26.99,3.22,2.78,2.1h1.51ZM338.72,785.79l.61-3.83h2.32l-.08.52h-1.76l-.18,1.14h1.63l-.08.52h-1.62l-.26,1.64h-.57ZM342.97,785.84c-.36,0-.62-.1-.8-.3-.17-.2-.23-.47-.18-.82l.27-1.7c.06-.34.2-.61.44-.82.24-.2.54-.3.89-.3s.62.1.8.3c.17.2.24.47.18.81l-.27,1.71c-.06.34-.2.62-.44.82-.24.2-.54.3-.9.3ZM343.05,785.33c.19,0,.35-.05.47-.16.12-.11.19-.26.23-.46l.27-1.7c.03-.2,0-.35-.08-.46-.08-.11-.22-.16-.41-.16s-.35.05-.46.16c-.12.1-.19.26-.22.46l-.27,1.7c-.03.2,0,.35.08.46s.22.16.41.16ZM345,785.79l.61-3.83h1.2c.24,0,.44.05.6.14.16.09.28.22.36.39s.09.37.05.59c-.04.26-.14.48-.3.67-.16.19-.37.32-.6.39l.54,1.64h-.62l-.48-1.57h-.54l-.25,1.57h-.57ZM345.89,783.71h.64c.19,0,.35-.06.48-.17.13-.11.21-.26.24-.45.03-.19,0-.35-.09-.46-.09-.11-.24-.17-.43-.17h-.64l-.2,1.25ZM349.54,785.79l.61-3.83h1.25c.37,0,.65.1.84.31.19.21.26.49.2.84-.04.23-.12.44-.25.61s-.29.31-.49.4c-.2.09-.42.14-.66.14h-.69l-.24,1.52h-.57ZM350.43,783.75h.69c.19,0,.36-.06.49-.18.14-.12.22-.27.25-.47s0-.35-.1-.47-.25-.18-.44-.18h-.69l-.21,1.29ZM352.75,785.79l.61-3.83h2.25l-.08.5h-1.7l-.17,1.09h1.51l-.08.5h-1.51l-.19,1.24h1.69l-.08.5h-2.25ZM355.84,785.79l.61-3.83h1.2c.24,0,.44.05.6.14.16.09.28.22.36.39s.09.37.05.59c-.04.26-.14.48-.3.67-.16.19-.37.32-.6.39l.54,1.64h-.62l-.48-1.57h-.54l-.25,1.57h-.57ZM356.74,783.71h.64c.19,0,.35-.06.48-.17.13-.11.21-.26.24-.45.03-.19,0-.35-.09-.46-.09-.11-.24-.17-.43-.17h-.64l-.2,1.25ZM360.13,785.84c-.39,0-.67-.1-.87-.29-.19-.19-.26-.45-.22-.78h.57c-.03.17.01.31.12.41.11.1.27.15.48.15.2,0,.37-.05.5-.15.13-.1.21-.23.24-.4.02-.15,0-.28-.06-.39-.06-.11-.16-.18-.29-.22l-.46-.14c-.27-.08-.46-.22-.59-.41-.13-.19-.17-.42-.13-.68.04-.21.11-.39.23-.55s.27-.28.46-.37.4-.13.64-.13c.35,0,.62.1.8.29.18.19.25.44.2.76h-.57c.03-.17,0-.3-.09-.4-.09-.1-.23-.14-.42-.14s-.34.04-.46.13c-.12.09-.19.21-.21.38-.02.15,0,.28.05.39s.16.18.29.22l.47.15c.26.08.46.22.58.41.12.19.17.42.12.69-.04.22-.12.41-.24.57-.13.16-.29.29-.49.38-.2.09-.42.13-.66.13ZM363.27,785.84c-.36,0-.62-.1-.8-.3-.17-.2-.23-.47-.18-.82l.27-1.7c.06-.34.2-.61.44-.82.24-.2.54-.3.89-.3s.62.1.8.3c.17.2.24.47.18.81l-.27,1.71c-.06.34-.2.62-.44.82-.24.2-.54.3-.9.3ZM363.34,785.33c.19,0,.35-.05.47-.16.12-.11.19-.26.23-.46l.27-1.7c.03-.2,0-.35-.08-.46-.08-.11-.22-.16-.41-.16s-.35.05-.46.16c-.12.1-.19.26-.22.46l-.27,1.7c-.03.2,0,.35.08.46s.22.16.41.16ZM365.28,785.79l.61-3.83h.71l.62,3.19c0-.1.02-.22.03-.36.01-.14.03-.29.04-.44.02-.15.04-.29.06-.41l.31-1.98h.52l-.61,3.83h-.71l-.61-3.19c0,.09-.02.21-.03.34s-.03.28-.04.42c-.02.15-.04.28-.06.41l-.31,2.01h-.53ZM368.23,785.79l1.59-3.83h.75l.37,3.83h-.56l-.07-.97h-1.09l-.39.97h-.59ZM369.39,784.34h.87l-.09-1.1c-.02-.2-.03-.37-.04-.51,0-.14-.01-.24-.01-.3-.02.06-.05.16-.1.3s-.11.31-.19.5l-.44,1.11ZM371.72,785.79l.61-3.83h.57l-.52,3.31h1.67l-.08.52h-2.25ZM376.68,785.84c-.37,0-.63-.1-.8-.3-.17-.2-.22-.47-.17-.82l.44-2.76h.57l-.44,2.76c-.03.2,0,.35.07.46.08.11.21.17.41.17s.35-.06.46-.17c.12-.11.19-.27.22-.46l.44-2.76h.57l-.44,2.76c-.06.35-.2.62-.43.82-.23.2-.53.3-.9.3ZM379.84,785.84c-.39,0-.67-.1-.87-.29-.19-.19-.26-.45-.22-.78h.57c-.03.17.01.31.12.41.11.1.27.15.48.15.2,0,.37-.05.5-.15.13-.1.21-.23.24-.4.02-.15,0-.28-.06-.39-.06-.11-.16-.18-.29-.22l-.46-.14c-.27-.08-.46-.22-.59-.41-.13-.19-.17-.42-.13-.68.04-.21.11-.39.23-.55s.27-.28.46-.37.4-.13.64-.13c.35,0,.62.1.8.29.18.19.25.44.2.76h-.57c.03-.17,0-.3-.09-.4-.09-.1-.23-.14-.42-.14s-.34.04-.46.13c-.12.09-.19.21-.21.38-.02.15,0,.28.05.39s.16.18.29.22l.47.15c.26.08.46.22.58.41.12.19.17.42.12.69-.04.22-.12.41-.24.57-.13.16-.29.29-.49.38-.2.09-.42.13-.66.13ZM381.91,785.79l.61-3.83h2.25l-.08.5h-1.7l-.17,1.09h1.51l-.08.5h-1.51l-.19,1.24h1.69l-.08.5h-2.25ZM386.94,785.84c-.36,0-.62-.1-.8-.3-.17-.2-.23-.47-.18-.82l.27-1.7c.06-.34.2-.61.44-.82.24-.2.54-.3.89-.3s.62.1.8.3c.17.2.24.47.18.81l-.27,1.71c-.06.34-.2.62-.44.82-.24.2-.54.3-.9.3ZM387.02,785.33c.19,0,.35-.05.47-.16.12-.11.19-.26.23-.46l.27-1.7c.03-.2,0-.35-.08-.46-.08-.11-.22-.16-.41-.16s-.35.05-.46.16c-.12.1-.19.26-.22.46l-.27,1.7c-.03.2,0,.35.08.46s.22.16.41.16ZM388.95,785.79l.61-3.83h.71l.62,3.19c0-.1.02-.22.03-.36.01-.14.03-.29.04-.44.02-.15.04-.29.06-.41l.31-1.98h.52l-.61,3.83h-.71l-.61-3.19c0,.09-.02.21-.03.34s-.03.28-.04.42c-.02.15-.04.28-.06.41l-.31,2.01h-.53ZM392.25,785.79l.61-3.83h.57l-.52,3.31h1.67l-.08.52h-2.25ZM396.12,785.79l.22-1.41-.75-2.42h.58l.45,1.45c.03.09.05.18.07.27.02.08.03.15.03.19.02-.04.05-.1.09-.19.04-.08.09-.17.14-.27l.9-1.45h.6l-1.53,2.42-.22,1.41h-.57ZM399.22,785.79l.61-3.83h.71l.62,3.19c0-.1.02-.22.03-.36.01-.14.03-.29.04-.44.02-.15.04-.29.06-.41l.31-1.98h.52l-.61,3.83h-.71l-.61-3.19c0,.09-.02.21-.03.34s-.03.28-.04.42c-.02.15-.04.28-.06.41l-.31,2.01h-.53ZM403.51,785.84c-.36,0-.62-.1-.8-.3-.18-.2-.23-.47-.18-.82l.27-1.7c.06-.34.2-.61.44-.82.24-.2.54-.3.89-.3s.62.1.8.3c.17.2.24.47.18.81l-.27,1.71c-.06.34-.2.62-.44.82-.24.2-.54.3-.89.3ZM403.58,785.33c.19,0,.35-.05.47-.16.12-.11.19-.26.23-.46l.27-1.7c.03-.2,0-.35-.08-.46-.08-.11-.22-.16-.41-.16s-.35.05-.46.16c-.12.1-.19.26-.22.46l-.27,1.7c-.03.2,0,.35.08.46.08.11.22.16.41.16ZM406.38,785.79l.52-3.31h-1.02l.08-.52h2.62l-.08.52h-1.03l-.52,3.31h-.57ZM409.52,785.79l.61-3.83h2.32l-.08.52h-1.76l-.18,1.14h1.63l-.08.52h-1.62l-.26,1.64h-.57ZM413.77,785.84c-.36,0-.62-.1-.8-.3-.18-.2-.23-.47-.18-.82l.27-1.7c.06-.34.2-.61.44-.82.24-.2.54-.3.89-.3s.62.1.8.3c.17.2.24.47.18.81l-.27,1.71c-.06.34-.2.62-.44.82-.24.2-.54.3-.89.3ZM413.85,785.33c.19,0,.35-.05.47-.16.12-.11.19-.26.23-.46l.27-1.7c.03-.2,0-.35-.08-.46-.08-.11-.22-.16-.41-.16s-.35.05-.46.16c-.12.1-.19.26-.22.46l-.27,1.7c-.03.2,0,.35.08.46.08.11.22.16.41.16ZM415.8,785.79l.61-3.83h1.2c.24,0,.44.05.6.14.16.09.28.22.36.39s.09.37.05.59c-.04.26-.14.48-.3.67-.16.19-.37.32-.6.39l.54,1.64h-.62l-.48-1.57h-.54l-.25,1.57h-.57ZM416.69,783.71h.64c.19,0,.35-.06.48-.17.13-.11.21-.26.24-.45.03-.19,0-.35-.09-.46-.09-.11-.24-.17-.43-.17h-.64l-.2,1.25ZM420.91,785.84c-.36,0-.63-.1-.81-.3-.18-.2-.24-.47-.19-.82l.27-1.7c.06-.35.21-.62.45-.82s.55-.3.91-.3.63.1.81.3c.18.2.24.47.19.82h-.57c.03-.2,0-.35-.09-.46-.09-.11-.23-.16-.42-.16s-.35.05-.47.16c-.12.1-.2.26-.23.45l-.27,1.71c-.03.2,0,.35.09.46.09.11.23.16.42.16s.35-.05.47-.16.2-.26.23-.46h.57c-.03.23-.11.43-.24.59s-.28.3-.47.39c-.19.09-.4.14-.64.14ZM424.03,785.84c-.36,0-.62-.1-.8-.3-.18-.2-.23-.47-.18-.82l.27-1.7c.06-.34.2-.61.44-.82.24-.2.54-.3.89-.3s.62.1.8.3c.17.2.24.47.18.81l-.27,1.71c-.06.34-.2.62-.44.82-.24.2-.54.3-.89.3ZM424.11,785.33c.19,0,.35-.05.47-.16.12-.11.19-.26.23-.46l.27-1.7c.03-.2,0-.35-.08-.46-.08-.11-.22-.16-.41-.16s-.35.05-.46.16c-.12.1-.19.26-.22.46l-.27,1.7c-.03.2,0,.35.08.46.08.11.22.16.41.16ZM425.97,785.79l.61-3.83h.69l.18,1.23c.02.12.04.23.05.33.01.1.02.18.03.24.02-.06.05-.14.09-.24.04-.11.09-.22.15-.34l.57-1.22h.71l-.61,3.83h-.54l.2-1.29c.02-.17.06-.35.1-.55.04-.2.09-.4.14-.61s.1-.4.14-.59c.05-.19.09-.35.13-.49l-.86,1.86h-.55l-.28-1.86c0,.14-.01.29-.02.47s-.02.37-.04.57c-.02.2-.04.41-.06.61-.02.2-.05.4-.08.57l-.2,1.29h-.54ZM429.11,785.79l.61-3.83h.69l.18,1.23c.02.12.04.23.05.33.01.1.02.18.03.24.02-.06.05-.14.09-.24.04-.11.09-.22.15-.34l.57-1.22h.71l-.61,3.83h-.54l.2-1.29c.02-.17.06-.35.1-.55.04-.2.09-.4.14-.61s.1-.4.14-.59c.05-.19.09-.35.13-.49l-.86,1.86h-.55l-.28-1.86c0,.14-.01.29-.02.47s-.02.37-.04.57c-.02.2-.04.41-.06.61-.02.2-.05.4-.08.57l-.2,1.29h-.54ZM432.41,785.79l.61-3.83h2.25l-.08.5h-1.7l-.17,1.09h1.51l-.08.5h-1.51l-.19,1.24h1.69l-.08.5h-2.25ZM435.51,785.79l.61-3.83h1.2c.24,0,.44.05.6.14.16.09.28.22.36.39s.09.37.05.59c-.04.26-.14.48-.3.67-.16.19-.37.32-.6.39l.54,1.64h-.62l-.48-1.57h-.54l-.25,1.57h-.57ZM436.4,783.71h.64c.19,0,.35-.06.48-.17.13-.11.21-.26.24-.45.03-.19,0-.35-.09-.46-.09-.11-.24-.17-.43-.17h-.64l-.2,1.25ZM439.8,785.84c-.36,0-.63-.1-.81-.3-.18-.2-.24-.47-.19-.82l.27-1.7c.06-.35.21-.62.45-.82s.55-.3.91-.3.63.1.81.3c.18.2.24.47.19.82h-.57c.03-.2,0-.35-.09-.46-.09-.11-.23-.16-.42-.16s-.35.05-.47.16c-.12.1-.2.26-.23.45l-.27,1.71c-.03.2,0,.35.09.46.09.11.23.16.42.16s.35-.05.47-.16.2-.26.23-.46h.57c-.03.23-.11.43-.24.59s-.28.3-.47.39c-.19.09-.4.14-.64.14ZM441.88,785.79l.08-.5h.78l.45-2.82h-.78l.08-.5h2.13l-.08.5h-.78l-.45,2.82h.78l-.08.5h-2.13ZM444.74,785.79l1.59-3.83h.75l.37,3.83h-.56l-.07-.97h-1.09l-.39.97h-.59ZM445.9,784.34h.87l-.09-1.1c-.02-.2-.03-.37-.04-.51,0-.14-.01-.24-.01-.3-.02.06-.05.16-.1.3s-.11.31-.19.5l-.44,1.11ZM448.24,785.79l.61-3.83h.57l-.52,3.31h1.67l-.08.52h-2.25ZM453.19,785.84c-.37,0-.63-.1-.8-.3-.17-.2-.22-.47-.17-.82l.44-2.76h.57l-.44,2.76c-.03.2,0,.35.07.46.08.11.21.17.41.17s.35-.06.46-.17c.12-.11.19-.27.22-.46l.44-2.76h.57l-.44,2.76c-.06.35-.2.62-.43.82-.23.2-.53.3-.9.3ZM456.36,785.84c-.39,0-.67-.1-.87-.29-.19-.19-.26-.45-.22-.78h.57c-.03.17.01.31.12.41.11.1.27.15.48.15.2,0,.37-.05.5-.15s.21-.23.24-.4c.02-.15,0-.28-.06-.39s-.16-.18-.29-.22l-.46-.14c-.27-.08-.46-.22-.59-.41-.13-.19-.17-.42-.13-.68.04-.21.11-.39.23-.55s.27-.28.46-.37c.19-.09.4-.13.64-.13.35,0,.62.1.8.29.18.19.25.44.2.76h-.57c.03-.17,0-.3-.09-.4-.09-.1-.23-.14-.42-.14s-.34.04-.46.13c-.12.09-.19.21-.21.38-.02.15,0,.28.05.39s.16.18.29.22l.47.15c.26.08.46.22.58.41.12.19.17.42.12.69-.04.22-.12.41-.24.57-.13.16-.29.29-.49.38-.2.09-.42.13-.66.13ZM458.42,785.79l.61-3.83h2.25l-.08.5h-1.7l-.17,1.09h1.51l-.08.5h-1.51l-.19,1.24h1.69l-.08.5h-2.25Z"/>
  <g>
    <path class="st3" d="M650.39,469.56V142.84c0-20.55-13.18-38.43-32.79-44.51-70.21-21.76-143.42-32.8-217.6-32.8s-147.39,11.03-217.6,32.8c-19.62,6.07-32.79,23.97-32.79,44.51v326.72c0,66.88,26.04,129.77,73.34,177.06,10.17,10.17,21.21,19.49,32.86,27.72,47.56,34.12,144.2,59.09,144.2,59.09,0,0,96.64-24.97,144.2-59.09,11.64-8.23,22.7-17.57,32.86-27.72,47.27-47.29,73.32-110.17,73.32-177.06Z"/>
    <path class="st0" d="M622.2,83.49c-71.69-22.22-146.45-33.49-222.2-33.49s-150.51,11.27-222.21,33.5c-26.15,8.09-43.72,31.94-43.72,59.34v326.72c0,71.03,27.66,137.81,77.89,188.04,8.48,8.48,17.6,16.45,27.17,23.76,0,0,6.6,4.88,7.38,5.43l.23.16c48.68,34.92,147.81,61.61,152.01,62.73l1.24.33,1.24-.33c4.2-1.11,103.34-27.8,152.02-62.74l.21-.15c.75-.54,7.38-5.43,7.43-5.48,9.51-7.26,18.63-15.24,27.12-23.72,50.23-50.23,77.89-117.01,77.89-188.04V142.84c0-27.39-17.57-51.25-43.73-59.35ZM650.39,469.56c0,66.89-26.04,129.77-73.34,177.06-10.16,10.16-21.21,19.48-32.86,27.72-47.56,34.12-144.2,59.09-144.2,59.09,0,0-96.64-24.97-144.2-59.09-11.64-8.23-22.69-17.55-32.86-27.72-47.29-47.29-73.34-110.17-73.34-177.06V142.84c0-20.55,13.18-38.43,32.79-44.51,70.21-21.76,143.42-32.8,217.6-32.8s147.39,11.03,217.6,32.8c19.62,6.07,32.79,23.97,32.79,44.51v326.72h.02Z"/>
    <path class="st4" d="M612.43,113.43c-68.53-21.25-140-32.01-212.44-32.01s-143.9,10.77-212.43,32.01c-13.4,4.15-22.41,16.38-22.41,30.42v325.43c0,62.73,24.43,121.7,68.79,166.06,9.65,9.65,19.99,18.36,30.92,26.08h-.01c46.57,33.41,135.14,54.9,135.14,54.9,0,0,88.57-21.5,135.14-54.9h-.01c10.93-7.72,21.27-16.43,30.92-26.08,44.35-44.36,68.79-103.34,68.79-166.06V143.85c.01-14.04-8.99-26.27-22.4-30.42M192.17,128.26c67.04-20.78,136.97-31.32,207.83-31.32s140.79,10.54,207.83,31.32c6.86,2.12,11.48,8.4,11.48,15.58v123.28c-70.64-22.69-144.37-34.19-219.31-34.19s-148.67,11.5-219.31,34.19v-123.28c0-7.19,4.61-13.45,11.48-15.58M180.69,284.44c39.04-12.85,79.06-22.19,119.73-27.97-24.39,11.43-46.87,27.14-66.48,46.75-23.64,23.64-41.62,51.43-53.25,81.72v-100.51ZM555.34,624.63c-41.5,41.5-96.66,64.34-155.35,64.34s-113.85-22.86-155.34-64.34c-41.49-41.49-64.34-96.66-64.34-155.34s22.86-113.85,64.34-155.35c41.49-41.49,96.66-64.34,155.34-64.34s113.85,22.86,155.35,64.34c41.49,41.5,64.34,96.66,64.34,155.35s-22.84,113.85-64.34,155.34M566.06,303.23c-19.62-19.62-42.09-35.32-66.49-46.75,40.67,5.78,80.69,15.13,119.74,27.98v100.5c-11.64-30.3-29.62-58.09-53.25-81.72"/>
    <g>
      <path class="st2" d="M222.36,155.32c.04,6.09.07,11.11.11,17.19,5.25-1.41,10.52-2.74,15.78-4.03v-21.88c0-7.48-6.32-12.03-14.08-9.97-4.63,1.23-9.26,2.51-13.88,3.83-7.73,2.22-13.97,10.25-13.97,17.72v18.33c0,4.08,1.42,7.59,4.02,10,6.64,6.13,13.3,12.36,19.98,18.69,1.55,1.47,2.39,3.59,2.39,5.99v10.37c0,.64-.54,1.3-1.2,1.48-2.81.76-5.63,1.54-8.43,2.33-.66.19-1.2-.18-1.2-.82v-18.76c-5.21,1.48-10.39,3.03-15.56,4.63v23.32c0,7.48,6.24,11.59,13.97,9.37,4.62-1.33,9.24-2.6,13.88-3.83,7.76-2.06,14.08-9.64,14.08-17.12v-18.02c0-4.09-1.44-7.72-4.09-10.26-6.59-6.32-13.16-12.54-19.71-18.66-1.56-1.45-2.4-3.56-2.4-5.98v-5.08c0-5.15-4.93-5.68-5.25-5.63h-.02.01-.01.01c4.78-1.41,9.57-2.76,14.38-4.05.66-.18,1.18.19,1.2.83h0Z"/>
      <path class="st2" d="M282.76,124.52c-7.46,1.29-14.89,2.71-22.32,4.26-5.38,34.86-10.75,69.79-16.11,104.77,5.65-1.31,11.3-2.56,16.98-3.73.7-5.35,1.42-10.17,2.12-15.51,5.41-1.1,10.82-2.13,16.25-3.1.72,5.08,1.42,9.63,2.13,14.71,5.64-.99,11.29-1.9,16.95-2.74-5.34-32.95-10.67-65.82-16.01-98.64ZM265.4,197.65c2.02-15.56,4.05-38.57,6.07-54.11,2.03,14.76,4.06,37,6.07,51.78-4.05.74-8.1,1.51-12.15,2.32Z"/>
      <path class="st2" d="M306.15,120.89c5.86-.81,11.73-1.55,17.6-2.2,4.26,16.43,8.51,32.91,12.78,49.42v-50.72c5.45-.5,10.92-.95,16.38-1.33v101.21c-5.89.41-11.77.89-17.66,1.44-4.35-16.85-8.69-33.67-13.03-50.44v51.8c-5.36.61-10.72,1.29-16.07,2.03-.01-33.74-.01-67.48-.01-101.21Z"/>
      <path class="st2" d="M408.63,114.48c-9.76-.12-19.51-.04-29.27.26v101.21c9.76-.29,19.51-.38,29.27-.26,7.63.09,13.83-5.5,13.83-12.68v-75.24c-.01-7.16-6.19-13.2-13.83-13.3ZM406.29,197.15c0,.67-.59,1.21-1.3,1.21-3.15-.02-6.32-.02-9.48,0v-59.79c-.06-5.24-5.39-7.01-5.39-7.01h.04s-.07-.01-.07-.01c4.97-.07,9.94-.09,14.92-.06.72,0,1.3.55,1.3,1.23-.01,22.82-.01,41.63-.01,64.44Z"/>
      <path class="st2" d="M433.78,216.47c5.38.27,10.77.6,16.14.99v-101.21c-5.38-.39-10.75-.73-16.14-.99v101.21Z"/>
      <path class="st2" d="M500.25,121.8c-12.98-1.92-26-3.46-39.05-4.63v101.22c13.04,1.17,26.07,2.71,39.05,4.63v-16.25c-7.63-1.13-15.28-2.12-22.95-2.99v-28.23c6.91.79,13.79,1.68,20.67,2.66v-15.19c-6.88-1-13.78-1.88-20.67-2.66v-18.27c-.08-5.22-5.37-7.62-5.37-7.61l.28.07c-.16-.05-.27-.07-.27-.07,9.45,1,18.89,2.19,28.3,3.58.01-5.08.01-11.21.01-16.26Z"/>
      <path class="st2" d="M535.28,145.36c.04,6.46.07,11.86.11,18.32,5.31,1.07,10.61,2.2,15.9,3.4v-22.96c0-7.47-6.32-14.97-14.15-16.57-4.7-.96-9.4-1.86-14.12-2.73-7.86-1.43-14.24,3.61-14.24,11.08v75.63c0,7.47,6.39,14.53,14.24,15.96,4.71.86,9.42,1.77,14.12,2.73,7.83,1.59,14.15-3,14.15-10.48v-38.93c-7.05-1.59-14.12-3.07-21.21-4.44,3.38,3.46,5.31,7.93,5.31,12.2v23.14c0,.67-.57,1.1-1.28.96-2.76-.55-5.52-1.08-8.29-1.59-.7-.13-1.28-.79-1.28-1.45v-60.38c0-5.32-5.34-8.13-5.34-8.11.01,0,.04.01.05.01-.02-.01-.05-.01-.05-.01,4.94.87,9.86,1.79,14.79,2.78.72.15,1.29.81,1.29,1.48Z"/>
      <path class="st2" d="M589.66,140.45c-4.59-1.31-9.17-2.59-13.78-3.81-7.8-2.06-14.14,2.5-14.14,10v75.47c0,7.52,6.34,15.12,14.14,17.18,4.6,1.22,9.19,2.49,13.78,3.81,7.76,2.23,14.03-1.89,14.03-9.4v-75.47c0-7.49-6.26-15.55-14.03-17.78ZM588.01,224.72c0,.54-.46.84-1.01.69-2.81-.8-5.63-1.57-8.45-2.33-.56-.15-1.02-.72-1.02-1.25v-60.62c0-5.32-5.27-8.55-5.27-8.54,4.93,1.27,9.84,2.59,14.74,3.98.56.16,1.01.73,1.01,1.27v66.81Z"/>
      <path class="st2" d="M588.05,463.87c-.38-14.51-2.47-29-6.22-43.11-.34-.97-.73-2.03-1.14-3.08-1.25-3.25-2.67-6.24-4.2-8.88-6.88-11.93-16.91-18.38-31.56-20.29-4.56-.6-10.18-.94-15.42-.94l-129.38.18c-11.02.01-21.73,2.19-31.84,6.47l-1.69.72,10.64-18.42c2.5-4,6.79-6.39,11.53-6.39h153.68c7.54.15,14.1,1.7,19.48,4.62l1.22.66-.7-1.2c-2.63-4.5-5.48-8.96-8.47-13.22-2.94-4.2-7.76-6.71-12.89-6.71h-151l6.78-11.74c2.52-3.87,6.77-6.19,11.36-6.19h.15c.06,0,.11-.01.16,0h124.85l-.67-.67c-5.36-5.34-11.13-10.43-17.18-15.13l-.29-.19c-6.75-5.23-13.9-10.01-21.23-14.25-1.28-.74-2.54-1.45-3.81-2.18-13.06-7.13-26.99-12.7-41.43-16.58-.9-.16-1.88-.34-2.87-.49-18.9-2.94-32.2,2.11-43.14,16.38-2.79,3.64-5.9,8.34-8.53,12.89l-64.54,112.13c-5.5,9.55-8.97,19.91-10.31,30.81l-.22,1.82-10.62-18.42c-2.23-4.16-2.15-9.09.22-13.17l76.86-133.12c3.9-6.47,8.54-11.37,13.76-14.56l1.18-.73h-1.38c-5.23.02-10.52.26-15.7.72-5.11.45-9.69,3.37-12.25,7.8l-75.52,130.81-6.77-11.74c-2.06-4.05-1.99-8.76.19-12.71l.4-.69,62.32-107.94-.9.25c-7.33,1.98-14.62,4.46-21.68,7.33l-.3.13c-5.84,2.39-11.64,5.11-17.25,8.1l-.09.05c-1.93,1.03-3.76,2.05-5.62,3.11l-.79.46c-13.83,8.07-26.55,17.84-37.83,29.04-.68.79-1.41,1.65-2.12,2.54-12,14.89-14.27,28.95-7.39,45.55,1.76,4.23,4.27,9.28,6.9,13.83l64.79,111.99c3.56,6.17,7.93,11.84,12.95,16.86,2.63,2.63,5.51,5.14,8.56,7.45l1.45,1.1h-20.99c-4.75-.09-9.16-2.7-11.52-6.81l-76.82-133.06c-3.66-6.63-5.59-13.1-5.76-19.22l-.04-1.4-.69,1.21c-2.59,4.56-5.03,9.26-7.22,14-2.16,4.64-1.91,10.06.64,14.49l75.51,130.78h-13.23c-4.73-.13-9.11-2.76-11.43-6.86l-62.49-108.23-.25.91c-2.01,7.54-3.55,15.27-4.6,22.96-1.13,8.4-1.7,16.9-1.7,25.27,0,1.71.01,3.41.02,5.1.38,14.51,2.46,29,6.22,43.11.34.97.73,2.03,1.14,3.1,6.91,17.84,17.93,26.83,35.75,29.18,4.55.6,10.17.94,15.42.94l129.38-.12c7.12,0,14.21-.94,21.08-2.78,3.59-.96,7.2-2.2,10.73-3.69l1.68-.72-10.6,18.36c-2.49,4-6.79,6.39-11.5,6.39h-153.72c-7.54-.15-14.1-1.7-19.47-4.62l-1.22-.66.7,1.2c2.63,4.49,5.48,8.95,8.47,13.22,2.94,4.2,7.76,6.71,12.89,6.71h151l-6.78,11.74c-2.51,3.88-6.77,6.19-11.36,6.19h-125.17l.67.67c5.36,5.34,11.13,10.43,17.18,15.13l.29.19c6.75,5.22,13.9,10.01,21.24,14.25,1.27.73,2.52,1.44,3.78,2.16,13.08,7.14,27.02,12.72,41.48,16.6.89.16,1.88.34,2.87.49,18.9,2.94,32.2-2.11,43.14-16.38,2.79-3.65,5.9-8.34,8.53-12.89l64.54-112.13c5.5-9.55,8.97-19.91,10.31-30.81l.22-1.82,10.64,18.43c2.22,4.16,2.13,9.08-.22,13.15l-76.86,133.11c-3.92,6.47-8.55,11.39-13.77,14.58l-1.18.73h1.4c5.22-.02,10.5-.26,15.7-.72,5.11-.45,9.69-3.37,12.25-7.81l75.52-130.81,6.78,11.74c2.12,4.15,1.98,9.03-.39,13.05-.04.07-.06.12-.09.16l-62.42,108.12.91-.25c7.33-1.99,14.63-4.46,21.72-7.35l.27-.12c5.84-2.39,11.62-5.11,17.2-8.08l.26-.13c1.88-1,3.73-2.03,5.5-3.05l.74-.42c13.85-8.08,26.58-17.85,37.89-29.07.68-.79,1.4-1.65,2.12-2.54,12-14.9,14.28-28.95,7.39-45.55-1.76-4.23-4.27-9.28-6.9-13.83-20.79-36.02-60.35-104.24-64.83-111.97-5.5-9.5-12.75-17.68-21.55-24.32l-1.47-1.1h21.06c4.74.08,9.16,2.69,11.52,6.79l76.83,133.07c3.66,6.63,5.59,13.1,5.76,19.22l.04,1.4.69-1.21c2.6-4.55,5.03-9.26,7.22-14,2.16-4.64,1.91-10.06-.64-14.49l-75.54-130.74h13.23c4.73.13,9.11,2.74,11.43,6.86l62.49,108.23.23-.91c2.01-7.55,3.55-15.3,4.61-23.01,1.13-8.38,1.69-16.87,1.69-25.24,0-1.71-.01-3.4-.02-5.1M574.09,473.53l-40.66-70.41,1.11.05c3.04.13,5.93.38,8.36.69,12.15,1.59,18.47,6.85,23.32,19.41,5.19,13.43,7.83,29.57,7.85,47.97v2.29ZM432.66,412.42c15.1,8.72,25.92,22.84,30.45,39.75,1.47,5.48,2.22,11.14,2.24,16.82,0,17.41-6.84,33.84-19.24,46.25-4.01,4.01-8.54,7.49-13.44,10.35-9.83,5.68-21.07,8.67-32.54,8.67s-22.84-3.01-32.79-8.71c-15.1-8.72-25.92-22.83-30.45-39.74-1.47-5.48-2.22-11.14-2.24-16.82,0-17.41,6.84-33.84,19.24-46.25,4.01-4.01,8.54-7.49,13.44-10.34,10.01-5.78,21.26-8.67,32.54-8.67,11.3-.02,22.66,2.88,32.79,8.69M443.53,302.15c13.7,2.13,27.83,7.6,44.47,17.19l1.98,1.14h-80.29l.6-.94c1.63-2.56,3.28-4.95,4.78-6.9,7.45-9.72,15.16-12.57,28.46-10.5M272.14,377.76c-4.69-11.32-3.31-19.42,5.15-29.9,8.69-10.79,20.49-20.3,37.13-29.91l1.98-1.15-40.15,69.54-.52-1c-1.42-2.69-2.65-5.31-3.59-7.58M266.55,534.84l-1.11-.05c-3.04-.13-5.93-.38-8.36-.69-12.15-1.59-18.47-6.85-23.32-19.41-5.19-13.44-7.83-29.57-7.85-47.97v-2.29l40.64,70.41ZM390.31,617.48l-.6.94c-1.64,2.57-3.3,4.96-4.78,6.9-6.06,7.92-12.15,11.14-21,11.14-2.26,0-4.7-.21-7.47-.64-13.7-2.13-27.83-7.6-44.47-17.19l-1.98-1.14h80.3ZM483.61,621.16l40.15-69.54.52,1c1.41,2.71,2.65,5.34,3.59,7.59,4.7,11.32,3.31,19.42-5.15,29.9-8.69,10.8-20.49,20.3-37.13,29.91l-1.98,1.14Z"/>
      <path class="st2" d="M362.12,448.64v46.97c0,4.47,3.62,8.09,8.09,8.09h5.18c.43,0,.79-.35.79-.79v-21.66h15.75c.43,0,.79-.35.79-.79v-13.24c0-.43-.35-.79-.79-.79h-15.75v-17.8c0-1.24,1.01-2.26,2.26-2.26h32.78c.23,0,.34.3.15.45l-6.68,5.03c-2.09,1.57-3.35,4-3.46,6.6v25.83c0,10.66,8.28,19.76,18.93,20.16,11.2.42,20.45-8.56,20.45-19.68v-8c0-.43-.35-.79-.79-.79h-12.5c-.43,0-.79.35-.79.79v8c0,3.35-2.94,6.03-6.37,5.58-2.84-.36-4.89-2.92-4.89-5.78v-32.33c0-2.94,2.15-5.57,5.08-5.85,3.35-.32,6.18,2.31,6.18,5.61v8.68c0,.43.35.79.79.79h12.5c.43,0,.79-.35.79-.79v-8.68c0-10.87-8.82-19.69-19.69-19.69h-42.46c-9.03.02-16.34,7.33-16.34,16.34"/>
    </g>
  </g>
</svg>