<!-- Created by @FCLOGO 2022-03-31 10:25:06 . https://fclogo.top/ -->
<!-- FOR PERSONAL USE ONLY NOT FOR COMMERCIAL USE -->
<svg version="1.1" xmlns="http://www.w3.org/2000/svg" xmlns:xlink="http://www.w3.org/1999/xlink" x="0px" y="0px"
	 viewBox="0 0 800 800" enable-background="new 0 0 800 800" xml:space="preserve">
<g>
	<path fill="#DF117B" d="M646.5,473.9c0.1,0,0.2,0,0.2,0c2.4-0.3,7.1-1,7.2-20c0-5.5-3.3-12.7-8.6-14.9c-2.3-1-4.9-2.7-7.2-4.7
		c-0.5,3.5-1.1,7-1.7,10.5c1,2.3,1.8,4.4,2.1,5.9l1.1,5.5C641.3,465.9,643.2,473.9,646.5,473.9z"/>
	<path fill="#DF117B" d="M399.3,716.1c77.6,0,148.7-28,203.7-74.4H195.6C250.6,688.1,321.7,716.1,399.3,716.1z"/>
	<polygon fill="#DF117B" points="450.4,278.4 399.3,190 387.6,210.1 437.6,296.7 	"/>
	<polygon fill="#DF117B" points="348.2,278.4 360.9,296.7 396.4,235.3 384.8,215 	"/>
	<path fill="#DF117B" d="M399.4,267.5c2.5,0,4.6,1.6,5.3,3.8h9.8c-0.9-7.6-7.3-13.5-15.1-13.5c-8.4,0-15.3,6.8-15.3,15.3
		s6.8,15.3,15.3,15.3c7.8,0,14.3-5.9,15.1-13.5l-9.8,0c-0.7,2.2-2.8,3.8-5.3,3.8c-3.1,0-5.6-2.5-5.6-5.6
		C393.8,270,396.3,267.5,399.4,267.5z"/>
	<path fill="#DF117B" d="M429.7,472l6.6,9.7c0,0,24.5-17.5,55.7-10.3l5.4-19.9c0.1,0-33.3-22.2-40.3-42.5l-13.8,2.2
		C443.3,411.2,452.6,451.5,429.7,472z"/>
	<path fill="#DF117B" d="M162.9,407.1c-0.1-1.4-0.1-2.9-0.1-4.3C162.8,404.2,162.8,405.7,162.9,407.1z"/>
	<polygon fill="#DF117B" points="477.1,579.5 516,579.5 511.7,543.6 	"/>
	<path fill="#DF117B" d="M54.7,504.8v132.3h689.2V504.8H54.7z M191.1,608.4l11.3-36.1h-43.8l-11.4,36.1h-24.6l22.6-71.4
		c1.8-5.8,7.2-9.8,13.4-9.8h14.2l-11.4,36.4h43.8l8.4-26.6c1.8-5.8,7.2-9.8,13.4-9.8h14.4l-25.7,81.2H191.1z M319.8,599.8l-2.8,8.8
		h-88l22.6-71.4c1.8-5.8,7.2-9.8,13.4-9.8h77.6l-2.8,8.8h-63.4l-8.5,27.1h63.4l-2.8,8.8h-63.3l-8.7,27.7H319.8z M411.7,608.4
		l-44-62.6l-19.8,62.7h-17.8l22.6-71.4c1.8-5.8,7.2-9.8,13.4-9.8h16.8c3.8,0,7.4,1.8,9.5,5l24.2,34.4l10.8-34.4
		c0.9-2.9,3.6-4.9,6.7-4.9h12.6v-0.2h0.1l-25.7,81.2H411.7z M519.6,608.5l-2.4-20.2h-48.4l-19.6,20.2h-17.9l74.3-77
		c2.7-2.8,6.3-4.3,10.1-4.3h13.7c6,0,11,4.5,11.8,10.3l8.5,71H519.6z M650.5,608.4h-9.4l-44-62.6l-19.8,62.6h-17.8l22.6-71.4
		c1.8-5.8,7.2-9.8,13.4-9.8h16.8c3.8,0,7.4,1.8,9.5,5l24.2,34.4l10.8-34.4c0.9-2.9,3.6-4.9,6.7-4.9h12.6v-0.1h0.1L650.5,608.4z"/>
	<path fill="#DF117B" d="M179.8,500.1c-13.9-30.5-21.7-64.4-21.7-100.1c0-133.2,108-241.2,241.2-241.2s241.2,108,241.2,241.2
		c0,4.2-0.1,8.3-0.3,12.5c1.2-0.3,2.4-0.4,3.7-0.4c8.3,0,18.5,5.9,25.9,15.1c10.7,13.2,13.3,19.5,14.9,24.2l0.4,1.1l0.5-1
		c0.5-0.9,1.3-2.7,1.3-5.4c0.2-10.1,0.4-21.4-12.5-30.7c-4.7-3.4-6.4-10.6-3.9-16.1c2.4-5,7.4-7.8,14.2-7.8c2.3,0,4.8,0.3,7.4,1
		c12.1,2.9,19.3,8.5,23.1,18.1c0.1-3.5,0.2-7.1,0.2-10.6c0-174.6-141.5-316.1-316.1-316.1S83.2,225.4,83.2,400
		c0,35,5.7,68.6,16.2,100.1H179.8z M693.2,363.3c1,8.1-1.5,12.7-7.5,13.9c-3.7,0.3-6.5-1.4-8.4-5.3h-0.2c-0.6,5.2-3.4,8.2-8.1,8.9
		c-6,0.3-9.6-4-11.1-13.1l-1.7-13.3l35.3-4.4L693.2,363.3z M683.6,317l-18.6,5c-7.7,1.5-10.6,5-8.9,10.5c1.2,5.5,5.5,7,12.9,4.5
		l18.7-4.8l1.9,7.4l-21.6,5.6c-8.6,1.9-14.3-1.9-17.1-11.4c-2.3-9.8,0.8-16,9.2-18.6l21.6-5.6L683.6,317z M673.6,287.7l-27.5,10.9
		l5.7,14.2l-5.6,2.4l-8.4-21.3l33-13.1L673.6,287.7z M637.9,255.9c10.8-5.3,18.6-3.9,23.4,4.2c4.4,8.6,3.2,14.9-3.8,19.1l-3.8-7.1
		c3.7-2.3,4.6-5.4,2.7-9.2c-2.2-3.6-7.1-3.5-14.6,0.2c-7.2,4.1-9.9,8.1-8.2,12c2.2,3.9,5.3,4.9,9.2,2.9l3.8,7.1
		c-7,3.3-12.9,0.8-17.6-7.6C624.7,268.9,627.7,261.8,637.9,255.9z M624.4,207.1l4.7,5.8L606,231.5l9.6,12l-4.8,3.7l-14.2-17.9
		L624.4,207.1z M608.8,190.7l-21.1,20.8l10.7,10.9l-4.2,4.2l-16-16.3l25.4-24.9L608.8,190.7z M588.9,172.5L576.3,208l-6-4.8l2.6-7.5
		l-10.9-8.8l-6.7,4.1l-5.7-4.6l32.3-19.6L588.9,172.5z M555.1,148.1c6.9,4.3,9,9.1,6.1,14.6c-2.1,3.1-5.2,4.1-9.4,3.2l-0.1,0.2
		c3.7,3.8,4.3,7.8,1.8,11.9c-3.4,4.7-9.1,4.8-17.1,0.3l-11.4-7l18.7-30.2L555.1,148.1z M508.9,130.8l2.5-5.4l26.1,12.1l-2.5,5.4
		l-9.5-4.5L513,165.2l-7-3.2l12.5-26.8L508.9,130.8z M467.8,129.7c4.1-11.4,11.3-15.6,22-12.5c10.3,3.5,13.7,11.2,10.4,22.9
		c-4,11.1-11.2,15.1-21.6,12C468.1,148.5,464.5,141,467.8,129.7z M429,122.7c2.4-11.9,9-17.2,20-15.5c10.7,2,15.2,9.1,13.5,21.2
		c-2.5,11.5-9,16.5-19.7,15C431.9,141.3,427.3,134.5,429,122.7z M402.7,103.7l22.9,1l-0.3,5.9l-15.3-0.7l-0.4,8.4l14.3,0.6l-0.3,5.9
		l-14.3-0.6l-0.8,15.3l-7.4-0.3L402.7,103.7z M351,107.7l17.5,25.8l0.2-0.2l-4.1-27.6l7-1l5.2,35.1l-10.8,1.6l-18.1-27.2l-0.2,0.2
		l4.3,29.1l-7,1l-5.2-35.1L351,107.7z M314.2,115.4c10.5-2.9,17.7,1.5,21.6,13c3.1,11.4-0.6,18.8-11,22.2
		c-10.7,2.9-18-1.2-21.6-12.4C300.1,126.5,303.8,118.8,314.2,115.4z M291.1,124.2l13.4,32.9l-7.1,2.9L284,127.1L291.1,124.2z
		 M278.5,129.1l2.7,5.3l-9.4,4.8l13.3,26.4l-6.8,3.5L265,142.7l-9.5,4.7l-2.7-5.3L278.5,129.1z M235.6,152.2c8-5.1,14.4-4.5,19.3,2
		l-6.7,4.4c-2.6-3.5-5.8-4.1-9.4-1.8c-3.4,2.5-2.8,7.4,1.6,14.6c4.8,6.8,9,9.1,12.7,7c3.7-2.6,4.3-5.7,2-9.4l6.7-4.4
		c4,6.7,2,12.8-5.9,18.2c-8.1,5.1-15.5,2.8-22.3-6.9C227.3,165.7,228,157.7,235.6,152.2z M199.1,181.8l12.7,14.6
		c4.7,6.2,9.2,7.3,13.3,3.4c4.4-3.5,3.9-8-1.6-13.6l-12.7-14.7l5.8-5l14.6,16.9c5.5,6.9,4.6,13.7-2.6,20.4
		c-7.8,6.4-14.6,6.4-20.7-0.1l-14.6-16.9L199.1,181.8z M178.3,202.8c5.4-5.9,10.4-7,15-3.1c3.4,3.1,3.9,6.9,1.6,11.2l0.1,0.1
		c2.6-2.3,5.9-2.2,10.1,0.5c0.5,0.2,0.8,0.4,1,0.6c3.4,2.5,5.9,3.9,7.6,4.1l-5.5,6.2c-2.8-1.5-5.5-3.2-8.1-5.3
		c-2.5-1.8-4.3-2-5.6-0.6l-5.1,6l10.6,9.4l-5.1,5.7l-26.6-23.5L178.3,202.8z M164.1,219.2l4.9,3.4l-6,8.6l24.3,16.9l-4.4,6.3
		l-24.3-16.9l-6,8.8l-4.9-3.4L164.1,219.2z M137.7,259c4.1-6.4,9.3-8.3,15.5-5.4l-3.4,6.4c-3.2-1.6-5.7-0.7-7.4,2.5
		c-1.5,3.4-1.1,5.8,1.3,7.2c2,1.1,4.3,0.2,6.8-2.6c0.3-0.3,0.5-0.5,0.6-0.8c0.1-0.1,0.3-0.4,0.6-0.8c5.4-6.5,10.2-8.6,14.4-6.2
		c6.5,3.6,7.5,9.9,3,18.9c-4.3,8.1-9.9,10.3-16.8,6.5l3.6-6.8c3.6,1.9,6.5,1.2,8.5-2.2c2.1-4.1,1.8-6.9-0.7-8.4
		c-2.1-1.1-4.7,0-7.6,3.6c-0.4,0.5-0.7,0.8-1,1c-5.2,6-10,7.9-14.1,5.7C134.8,273.8,133.6,267.7,137.7,259z M120.3,300.2l31-2.7
		l-0.1-0.2l-26.1-9.8l2.5-6.6l33.3,12.4l-3.8,10.2l-32.6,2.6l0.1,0.2l27.5,10.3l-2.5,6.6l-33.3-12.4L120.3,300.2z M109.3,336
		c2.6-10.5,9.8-14.7,21.9-12.5c11.3,3,16,9.8,13.9,20.4c-2.6,10.8-9.7,15.1-21.3,12.8C112,353.7,107.2,346.9,109.3,336z
		 M103.1,374.8c1.3-9.6,5.8-14.2,13.8-14l-0.7,8c-4.3-0.1-6.8,2-7.3,6.3c-0.1,4.2,4,6.8,12.4,7.8c8.3,0.4,12.7-1.4,13.3-5.6
		c0.2-4.5-1.8-6.9-6.1-7.4l0.7-8c7.7,1,11.3,6.3,10.6,15.9c-1.1,9.5-7.4,13.9-19.3,13.2C108.6,389.6,102.7,384.2,103.1,374.8z"/>
	<path fill="#DF117B" d="M443.7,138.2c5.8,1,9.4-2.8,10.8-11.2c1.4-8.5-0.8-13.4-6.6-14.3c-5.9-1-9.6,2.8-11,11.4
		C435.5,132.5,437.7,137.2,443.7,138.2z"/>
	<path fill="#DF117B" d="M323.3,145.6c5.6-1.7,7.2-6.6,4.8-14.8c-2.5-8.3-6.6-11.7-12.2-10c-5.8,1.7-7.4,6.7-4.9,15.1
		C313.4,144.1,317.5,147.3,323.3,145.6z"/>
	<path fill="#DF117B" d="M554.1,159.5c1.5-2.4,0.8-4.5-2-6.2l-5-3.1l-4.4,7l5.1,3.1C550.6,162,552.7,161.8,554.1,159.5z"/>
	<path fill="#DF117B" d="M188.9,206.5c-2.3-2-4.6-1.7-6.9,1.1l-4.1,4.7l7,6.2l4.2-4.7C191.5,211.1,191.4,208.7,188.9,206.5z"/>
	<path fill="#DF117B" d="M480.3,147.2c5.6,1.8,9.7-1.4,12.3-9.5c2.5-8.4,1.1-13.4-4.5-15.2c-5.7-1.8-9.9,1.4-12.5,9.7
		C473,140.3,474.6,145.3,480.3,147.2z"/>
	<polygon fill="#DF117B" points="581.1,175.1 581,175 567.4,183.5 575.3,189.9 	"/>
	<path fill="#DF117B" d="M683.7,369.7c2.8-0.3,4-2.2,3.6-5.5l-0.7-5.9l-8.2,1.1l0.7,5.9C679.5,368.6,681,370.1,683.7,369.7z"/>
	<path fill="#DF117B" d="M539.7,173.3c3.4,2.4,6,2.2,7.6-0.7c1.9-2.9,1-5.3-2.7-7.3l-5.1-3.1l-4.9,8L539.7,173.3z"/>
	<path fill="#DF117B" d="M669.1,372.7c3.4-0.3,4.8-2.5,4-6.7l-0.7-5.9l-9.3,1.2l0.7,5.9C664.1,371.4,665.8,373.2,669.1,372.7z"/>
	<path fill="#DF117B" d="M125.5,348.9c8.4,1.8,13.2-0.2,14.5-6c1.3-5.7-2.3-9.5-10.6-11.4c-8.6-1.9-13.4,0-14.7,5.8
		C113.4,343.2,117,347,125.5,348.9z"/>
	<path fill="#DF117B" d="M515.2,492.4c-0.7,2.6-1.5,5.1-2.3,7.7h11.3C522.3,497,519.1,494.5,515.2,492.4z"/>
	<path fill="#DF117B" d="M532.1,500.1H561c-5.1-20.3-15.6-34.6-42-41.7c0,1.4,0.1,2.7,0.1,4.1c0,7.8-0.8,15.4-2.2,22.8
		C524.2,488.7,529.7,493.5,532.1,500.1z"/>
	<path fill="#DF117B" d="M610.1,500.1c-3.3-43.4-21.4-67.1-36.6-79.5c-15.9-13-38-17.5-68.6-13.8c2.9,5.3,5.3,10.8,7.4,16.5
		c27,1.6,42.8,9.2,51.8,16.6c11.7,9.4,25.8,27.5,29.5,60.3H610.1z"/>
	<path fill="#DF117B" d="M710.7,451.7c0-2.9,0.2-5.9,0.4-9.2l0.1-0.9v-0.1c0.5-7.1,1.2-16.8-0.6-24.2c-2.6-10.7-8.1-15.9-19.9-18.7
		c-2-0.5-4-0.8-5.8-0.8c-4.2,0-7,1.4-8.2,4c-1.2,2.7-0.4,6.3,1.8,7.9c15.7,11.4,15.4,25.6,15.2,36.1c0,4.1-1.1,7-2.1,8.7
		c-1.3,2.4-3.7,3.8-6.3,3.8c-0.2,0-0.4,0-0.6,0c-2.7-0.3-5.2-2.1-6.1-4.8c-1.4-4.2-3.8-9.8-13.8-22.2c-7.1-8.8-15.6-12.7-20.8-12.7
		c-0.8,0-1.6,0.1-2.3,0.3c-2.1,0.6-3.3,2.1-3.6,4.4c0.2,2.1,5.2,7.5,9.9,9.5c8.4,3.5,12.8,13.3,12.8,21.1c0,12.4-1.6,25-13,26.6
		c-0.1,0-0.1,0-0.2,0c-0.3,0.1-0.7,0.1-1,0.1c-9.1,0-11.2-11.2-13.5-23.1l-0.1-0.8l-0.3-1.6l-0.6-3.2c-0.8-4.3-8.9-18.5-12.9-24.5
		c-9.8-14.8-17.8-25.2-38-36.9c-8.4-4.9-23.3-10.7-46.5-10.7c-9,0-18.6,0.9-29,2.5c-5.1,1.5-9.7,3.1-14.1,5c3.4,4,6.6,8.3,9.4,12.8
		c34.2-4.7,59.1,0.2,77.1,15c16.4,13.3,35.9,38.7,39.2,85h98.5c4.9-3.7,9.7-8.1,14.7-13.3c3.5-3.5,7.2-9.4,8.7-13.5
		c3.6-10,4.8-25.1,0.8-28.8l-0.1-0.1c-0.7-0.7-1.5-1-2.5-1c-0.4,0-0.9,0-1.4,0.2c-2.1,0.8-3.5,2.9-3.8,5.8c0,0.1,0,0.1,0,0.1
		c-1.1,9-2.6,12.8-6.2,14.6c-0.6,0.3-1.2,0.5-1.9,0.6c-0.8,0.1-1.7,0.2-2.5,0.2c-2.6,0-5-0.8-6.9-2.4
		C712,460.3,710.7,456.7,710.7,451.7z"/>
	<path fill="#DF117B" d="M586.4,500.1c-3.5-29.9-16.2-46.1-26.7-54.7c-7.9-6.5-21.7-13.1-45.1-14.9c1.9,6.6,3.2,13.3,3.9,20.3
		c9.6,2.4,17.7,5.7,24.3,10c13.1,8.6,21.2,20.8,25.5,39.3H586.4z"/>
	<path fill="#DF117B" d="M507.6,500.1c4.2-11.8,6.5-24.4,6.5-37.6c0-61.8-50.1-111.9-111.9-111.9c-39.5,0-74.2,20.5-94.1,51.4
		c5.3,4.7,10.2,9.9,14.6,15.7c17.9-39.3,49.1-39.8,49.1-39.8l1.8-9.3l-14.5-2.6c13.2-5.9,27.7-9.2,43.1-9.2c2.7,0,5.4,0.1,8,0.3
		c-3.3,2.9-12.4,9.1-28.5,9.1l-0.6,9.9c0.2,0.1,32.8-4.4,58.1,26.4l14.7-2.8c0,0-6.4-18.9-3.9-31.5c31.9,16.2,54.5,48.1,57.5,85.6
		l-2.6-1.1l-5.4,22c0,0,4.2,2.7,6.4,8.4c-1.2,5.9-2.8,11.5-4.9,17H507.6z"/>
	<path fill="#DF117B" d="M365.4,492.1l-0.5,8H421c1.8-3.6,4.1-7,7.1-10.2l-4.9-11C423.2,478.9,399.9,498.2,365.4,492.1z"/>
	<path fill="#DF117B" d="M354.7,500.1l1.2-12.4c0,0-2.7-1.2-6.6-3.8c0.9,5.2,1.6,10.6,2.2,16.2H354.7z"/>
	<path fill="#DF117B" d="M260.1,500.1c-4.7-14.2-14.1-27.5-36.8-36.6c-17.1-6.8-36.4-1.3-50.3,5c0.9,3,1.9,5.9,2.9,8.9
		c0,0.1,0,0.1,0.1,0.2c8.8-2.6,19.8-4,30.5-0.6c10.8,3.5,19.6,11.2,26.2,23.1H260.1z"/>
	<path fill="#DF117B" d="M289.8,500.1c-4.5-24.9-20.4-55.9-60.9-60c-25.2-2.5-45.8,4.7-60.1,12.7c-0.3-1.2-0.6-2.4-0.8-3.6
		c0.3,1.2,0.5,2.4,0.8,3.6c0.7,2.9,1.4,5.8,2.2,8.7c0,0,0,0.1,0,0.1c15.1-6.8,35.7-12.2,54.9-4.6c26.5,10.6,36.7,26.8,41.5,43.1
		H289.8z"/>
	<path fill="#DF117B" d="M312.4,500.1c-4.1-29.3-19.6-79.9-78.1-86.3c-30.5-3.3-53.6,7.1-69.3,18.6c0.6,4.4,1.3,8.7,2.2,13.1
		c15.2-8.1,36.3-15,62.4-12.3c24.2,2.5,43.4,14.4,55.5,34.5c6.9,11.4,10.2,23,11.8,32.4H312.4z"/>
	<path fill="#DF117B" d="M204.4,483.7c-8.9-2.9-18.3-1.7-26,0.5c2.1,5.4,4.3,10.7,6.8,15.9h39.5
		C219.2,491.7,212.4,486.2,204.4,483.7z"/>
	<path fill="#DF117B" d="M344.5,500.1c-10.2-99.2-71.6-117-108.3-118.4c-25.4-1-48.3,6.7-73.3,25.4c0.2,5.8,0.5,11.5,1.1,17.2
		c0,0,0,0.1,0,0.1c15.5-10.6,39.5-20.9,71-17.5c30.2,3.3,53.2,17.8,68.2,43.3c10.1,17,14.5,35.3,16.3,49.9H344.5z"/>
</g>
<g>
</g>
<g>
</g>
<g>
</g>
<g>
</g>
<g>
</g>
<g>
</g>
<g>
</g>
<g>
</g>
<g>
</g>
<g>
</g>
<g>
</g>
</svg>
