<svg version="1.1" xmlns="http://www.w3.org/2000/svg" xmlns:xlink="http://www.w3.org/1999/xlink" x="0px" y="0px"
	 viewBox="0 0 800 800" enable-background="new 0 0 800 800" xml:space="preserve">
<g>
	<g>
		<path fill-rule="evenodd" clip-rule="evenodd" fill="#FBC600" d="M419.7,65.6C330.6,82.9,239,121.4,167.9,178.3
			c0,0-7.5,235.9,5.2,273.5c0,0,47.7,236.2,245,282.7h0.5C615.8,688,663.8,452.9,663.8,452.9c11.7-41.7,4.9-274.6,4.9-274.6
			C564.3,96.1,419.7,66.1,419.7,65.6L419.7,65.6z M419.6,76.3c0,0.5,139.5,29.6,240.2,109.1c0,0,6.6,225.4-4.7,265.8
			c0,0-46.3,227.5-236.6,272.5h-0.4c-190.3-45-236.3-273.6-236.3-273.6c-12.2-36.4-5-264.7-5-264.7
			C245.3,130.3,333.7,93.1,419.6,76.3z"/>
		<path fill-rule="evenodd" clip-rule="evenodd" d="M419.6,76.2c-86,16.8-174.4,54-242.9,109.1c0,0-7.2,228.3,5,264.7
			c0,0,46,228.6,236.4,273.6h0.4c190.3-45,236.6-272.5,236.6-272.5c11.3-40.4,4.7-265.8,4.7-265.8
			C559.2,105.8,419.6,76.8,419.6,76.2L419.6,76.2z"/>
		<path fill-rule="evenodd" clip-rule="evenodd" fill="#FFFFFF" d="M419.6,86.7c0,0.5,134.6,28.6,231.7,105.6
			c0,0,6.4,218.2-4.5,257.3c0,0-44.7,220.2-228.2,263.7h-0.4c-183.6-43.6-228-264.8-228-264.8c-11.7-35.2-4.8-256.2-4.8-256.2
			C251.4,138.9,336.6,102.9,419.6,86.7z"/>
		<path fill-rule="evenodd" clip-rule="evenodd" fill="#D50E19" d="M419.5,92.1c-80.9,16-164,51.4-228.5,103.8
			c0,0-6.8,217.1,4.7,251.8c0,0,9.6,48.3,38.5,103.8c-5.4,1.8-26.4,8.4-38.9,6.2c0,0,6.3,20.3-6.6,63.8l39.4-13.8
			c0,0-16.7,29.3,9.7,29c0,0,14.6,1.6,54.3-2.7c31.6,33.2,72.8,61.3,126,74h0.4c58.7-14,102.8-46.7,135.6-84.3
			c2.6,0.7,44.9,12.5,56.7,17.6c0,0,7.2-22.1,32.9-35.4c0,0-26.7-9.4-33.7-12.4c0,0,33.3-32.5,23.9-36.2c0,0-12.1-10.5-25.7-16.5
			c24.5-50.3,32.9-92,32.9-92c10.6-38.4,4.4-252.8,4.4-252.8C550.8,120.2,419.5,92.6,419.5,92.1z"/>
		<path fill-rule="evenodd" clip-rule="evenodd" fill="#FBC600" d="M233.9,592.6c0,0,0.3-24.7,13.1-29.3l24-10.8
			c7.6-3.4-12.9-3.7-32.1,4.3c-6.1,2.5-27.9,10.8-33.2,9.7c0,0-3,33.9-5.8,45C206.9,607.4,233.4,601.8,233.9,592.6z"/>
		<path fill-rule="evenodd" clip-rule="evenodd" fill="#FBC600" d="M266.1,573.9l-20,0.1c0,0-4.7-6.3,21.7-13.3
			C271.7,559.7,269.5,574.2,266.1,573.9z"/>
		<polygon fill-rule="evenodd" clip-rule="evenodd" fill="#FBC600" points="329.6,560.3 340.6,544.2 352.4,554.4 339.2,558.8 
			338.2,560.6 		"/>
		<path fill-rule="evenodd" clip-rule="evenodd" fill="#FBC600" d="M555.3,600.8c0,0,28.7,0.3,31.2-6.5c0,0,1.9-5.8-17.1-4.1
			L555.3,600.8z"/>
		<path fill-rule="evenodd" clip-rule="evenodd" fill="#FBC600" d="M603,599.5c0.4,0.1-15.2,8.5-32.8,8.8
			c-9.9,0.2-23.4,0.4-23.1,2.3c0.1,0.7,1,1.7,5.2,3.3l53.3,14.8c0,0,8.5-15.3,21.4-19.9L603,599.5z"/>
		<path fill-rule="evenodd" clip-rule="evenodd" fill="#FBC600" d="M520.6,587.4c8,57.9-38,109.4-95.7,112.2
			c-49.1,2.3-91.5-29.9-102.6-74.8c1.3-0.5,3-1.2,5-2c10.2,42.5,50.5,73.8,96.9,71c53.1-3.2,97.5-52.4,91.1-106.6
			C517.4,587.4,518.4,587.1,520.6,587.4L520.6,587.4z M448.7,620.6c-0.3,4.3,1,8.3,3.3,11.6c-4-1.8-8.8-2.2-13.6-0.9l-29.1,8
			c-3.4,0.9-6.4,3.2-8.7,6.2c1-5-0.2-10.3-3.5-15l-16.6-23.9L340.8,620c-0.5,2.8-1.1,8.4-0.8,11.5c-2.7-2.7-8.2-10.1-10.2-8.7
			c-2.3,1.2,3.2,14.2,8.9,24.4c5.7,10.1,22,27.3,23.3,25.5c1-0.9-2.2-8.8-4.2-13.7c8.6,4.5,18.6,5.7,27.1,2.7
			c5-1.8,8.8-4.4,11.4-7.4c-1.5,5.3-1.5,11,0.6,15.5c4,8.7,11.2,14.7,20.7,17c-3.4,1.7-9.5,4.7-9,5.5c0.5,1.1,14.4,1.8,25.9-0.2
			c11.5-2,31.8-10.7,31.8-13.5c-0.3-1.7-9-0.9-14.3-0.6c7.1-6.6,11.6-15.7,11.6-24.6c0-5.8-1.4-10.6-3.8-14.3
			c4.5,2.4,9.8,3.4,15,2.5c12.8-2.3,17.9-8.5,23.1-16.7c0.7,5.3,2.4,13.1,4.4,13.4c8.8-4.1,13.4-39.1,11.1-51l-8.1-0.3
			c-3.1,1.6-3.9,7.3-4.8,10.4c-1.3-2.8-1.9-7.4-3.8-9.6l-45.8,3.4L448.7,620.6z"/>
		<path fill-rule="evenodd" clip-rule="evenodd" fill="#FBC600" d="M375.7,542.7c-0.1-1.7,20.3-25.2,63-40.2c0,0,20.1,7.7,33.1,22.1
			C457,524.1,375.8,544.4,375.7,542.7z"/>
		<path fill-rule="evenodd" clip-rule="evenodd" fill="#FBC600" d="M495.6,525.3c0,0-26.1-19.6-37.6-21c0,0,5.5-4.5,43.7,18.8
			L495.6,525.3z"/>
		<path fill-rule="evenodd" clip-rule="evenodd" fill="#FBC600" d="M231.7,619.1c0,0-3.1,8.4,5.8,8.9c34.6,3.7,70.6-6.1,107.3-16.5
			c36-10.2,73.4-25,110.8-27.9c29.3-2.3,118.9-12.2,138.4,7.4c0,0,2.8,3.1,7.1-0.7l21.8-23.1c0,0,8-8.4-2.9-15.3
			c0,0-32.8-22.8-103.4-23.2c0,0-68.2-1.4-170.9,35.6c0,0-51.6,19.2-103.1,17.3L231.7,619.1z"/>
		<g>
			<path fill-rule="evenodd" clip-rule="evenodd" d="M353.3,522.6c0,0-23.1,15.2-30.3,15.7c0,0,10-14.3,1.9-11.7c0,0-7,4.5-2.6-2.4
				c0,0,6.2-10.4-1.6-8.7l-11.7,14.3l-15.7-0.4l-5.5,4.8l-15,0.5c-1.2,0-8.9,4.3-14.9,6.3c-8.9,3-19.6,2.6-25.5,2.5l2.7-4.8
				l-23.6-3.9l5.6-4.2l0.3-1.9c0,0-20.3-2.5-22.5-5.7c0,0,41.8-21.4,63.5-37c0,0,39.5-25.3,42.4-33.4c0,0-1.3-1.6-21.5,5.9
				c0,0,0.3-14.8-3.9-11.2l-19.9,10.3l0.6-14.7c0,0,0.8-4.3-5.2,0l-17.9,10l-1.4-11.6l-22.1,9.4c0,0-2.1-15.1-7.4-10.8l-37.1,15.4
				l3.1-7.3c0,0,2.3-4.7-4-1.6l-32.8,14.8l-0.4-9.7c0,0-26.5,10.8-41.9,10.2c0,0,3.2-9.2-1-7.7c0,0-23.1,4.4-38.2,2.6
				c0,0,98-76,100.4-78.4c3.7-3.7-7.3-4.7-6.8-11.2c0,0,18.6-3.9,29.2-11c0,0,53-31.3,81.1-43.5c0,0,44.3-23.4,71.9-21.9
				c0,0,35-4,32.9,27.7c0,0-2.5,45.3,41.1,35.9c0,0,50-10.1,78.9-40.2c0,0,19.7-23,42.1-41.6c17.9-14.9,34.7-25.7,58.2-23.8
				c43.6,3.6,70.9,41.3,112.6,51.3c0,0-2.1,4.4-4.3,8c0,0,25.9,21.4,39.9,26.2c0,0,19,7.8,22.8,7.8c0,0-10.8,8.6-29.7,13.4
				c0,0,7.7,2.8-0.5,6.8c0,0-11.8,6.7-35.1,0c0,0-2-0.7,0.3,2.6c0,0,5.1,3.9,1.1,4.3c0,0-18.4,3-36.8-5.8c0,0-14.9-8.9-19.2-14.6
				c0,0-3.4-4.5-3.4,2.1c0,0-4.1,24.2-7.7,27.7c0,0-6.4-1.9-10.2-7.8l-7.6,15.9l-9.7-6.3c0,0-2.7-2.1-4.1,3.4c0,0-3.9,12-7.9,15.4
				c0,0-8.6-7.2-9.5-6c0,0-8.7,21.3-13,24.2L549,409c0,0-2.6-2.9-4.7,1.8c0,0-11.2,18.1-13.1,19.3l-6.2-9.3c0,0-1.9-3.3-3.9,1.1
				c0,0-13.7,18.4-15.4,18.4c0,0-4.8-7-9.2-1.5c0,0-13.1,11-15.1,11c0,0-1.7-5.7-2.4-8c0,0-0.8-2.9-7.1,2.1l-13.5,8.5l-1-8
				l-21.8,10.5l-0.3-5c0,0-25.2,16.5-32.4,19.9c0,0-3.3,7.2,8.2,17.2c0,0-5,4.8-0.9,7.6c6.2,6.1,13.9,6.3,21.7,6.1
				c6.8-0.2,17.9,0.5,21.8,5.8c6.8,9.1-3.6,19.6-12.9,19.7c0,0-1.3,9.2-14.7,12c0,0,1.9-11.3-3.2-12.2c-1.6,0.1-8.4,17.4-16,16.7
				c-1.2-2.6-5.9-12.7-12.3-9.6c-1.9,0.9,7.6,19.2-10.9,22c-0.3-9.1-1.8-12.6-9.5-11.9l-7.6-8.3l-22.7,2.9c0,0-2.4,0.2,0.4-2.5
				l13.5-12.4L353.3,522.6z"/>
			<path fill-rule="evenodd" clip-rule="evenodd" fill="#FBC600" d="M217.2,520.6c2.2-3.1,54.8-38.8,77-47.7
				c0,0-50.8,40.3-60.3,45.1C230.4,520.3,215,523.7,217.2,520.6z"/>
			<path fill-rule="evenodd" clip-rule="evenodd" fill="#FBC600" d="M228.6,530.7c-0.4-2.8,61.9-52.4,86.3-62.2
				c0,0-43.9,46.4-71.5,63C241.6,532.9,229,533.5,228.6,530.7z"/>
			<path fill-rule="evenodd" clip-rule="evenodd" fill="#FBC600" d="M253.8,531.7c7.3-6.7,42.2-42.8,66.3-54.5
				c0,0-11.4,20-54.7,56.5C262.7,535.9,249.7,535.6,253.8,531.7z"/>
			<path fill-rule="evenodd" clip-rule="evenodd" fill="#FBC600" d="M289.6,516.9c10.6-9.4,27.6-24.6,28.9-22.8
				c1.1,1.5-10.2,13.4-20.2,23.1c-1.2,1.2-15.9,18-18.7,10.9C278.2,524.7,287.8,518.5,289.6,516.9z"/>
			<path fill-rule="evenodd" clip-rule="evenodd" fill="#FBC600" d="M323.7,501.1c2.5,0.5-11.8,18.3-14.3,20.5
				c-4.8,4.3-8.5,4.4-9.1,2.8c-0.6-1.7,2-4,5.4-7.4C312.3,510.4,322,500.7,323.7,501.1z"/>
			<path fill-rule="evenodd" clip-rule="evenodd" fill="#FBC600" d="M411.4,456.9c0,0-15.8,13.6-37.3,22.5c0,0-5.7,2.9-2.3-4.2
				c0,0,6.8-10.3,1-5.5c0,0-13.6,11.8-11.3,21.1c0,0,7,12.3-0.9,19.2c0,0-13.3,14.2-23.3,17.3c0,0-4.5,1.7-0.4-4.2
				c0,0,7.5-11.5,3.2-8.9l-6.8,4.3c0,0-4.5,3.3-2.8-3c0,0,7.7-13.3,3.7-11.2c0,0-7.1,5.4-4.4-1.3l8.4-17.3c0,0,2.6-6.1-1.6-2.8
				c0,0-5.5,4.3-8.6,6c0,0-3.5,1.5-0.8-3.6c0,0,16-29.9,33.4-40.9c0,0,27.3-19.1,30-22.4c0,0,1.3-1.9-2.2,0c0,0-6.9,2.8-8.6-2
				c0,0-1.7-11.4,14-12.4c0,0-0.3-5.7,3-9.5h-11.8c0,0-1.7,13.1-23.3,11.3c0,0-4.8-9.9,10.2-15.2c0,0,3.5-0.9,7.3-0.5
				c0,0,4.9-7.2,6.4-8.4l-11.1-0.1c0,0-3.1,0.1-2.7-5.8l0.1-6.5c0,0-10.6,3.6-14.3-1c0,0-2.6-1.4-0.4-10.6c0,0-9.7,3.2-19.1,2.7
				c0,0-13.3,15.8-20.8,17.2c0,0-8,2.3-7.1-3.2c0,0-1-5,7.4-10.9c0,0,8.2-8.1,16.2-6.8l8.2-10.9c0,0,1.1-1.7-2.9,0.1
				c0,0-8.3,2.6-15.4,2.5c0,0-0.1,5.9-6.6,10.3c-4.7,3.3-26.6,22.8-33.4,14.8c0,0-3.8-5.1,6.3-11.5c0,0,11.6-10.5,21.5-14.7
				c2.9-1.2,6.5-0.7,8.6-3c0.7-0.8,1.5-2.1,1.5-3.7c0,0,0.6-7.1,3.2-9.1c0,0,1.5-1.6-1.5-0.5c0,0-9.5,5.1-14.8,5
				c0,0,0.5,5.7-4.5,9.1c0,0-35.3,30.4-43.8,24.1c0,0-4.3-5,9.4-14.4c0,0,17.1-17.8,31.9-19.4c0,0,0.5-10.7,3.7-12.8
				c0,0,2-1.6-2.2-0.4c0,0-5.3,1.8-12.3,1.5c0,0,3.9,11.8-21.7,27.1c0,0-31.9,25-37.6,17.9c0,0-4.8-6.6,16.4-19.9
				c0,0,22.7-16.4,29.1-19.4c0,0,1.4-5.3,2.9-6.9c0,0,2.7-2.9-1-1.9c0,0-7.5,3.5-11.7,4.6c0,0-3.4,2.5-3.1,5.6
				c0,0-9.3,11.4-21.5,17.3c0,0-29.2,25.9-41.1,17.8c0,0-7.5-7.7,23.2-19.4c0,0,23.3-11.8,28.3-15.8c0,0,5.3-2.9,1.3-2.1
				c0,0-9.4,1.4-12.5,0.7c0,0-2.6,9.1-32.1,20.7c0,0-23.6,12.1-40.9,14.6c0,0-4.8,0.7-0.9-2.3c0,0,26.7-17,53.6-30.2
				c0,0,46.8-25.8,82.5-35c0,0,31-8.2,41.7,2.1c0,0,6.3,2,7.3,24.6c0,0,2.7,45,53.4,32.3l-4.5,6.4l9-0.4l-9.2,9h8.6l-9.2,10.5
				l9.8,1.9l-7.3,8.4l11.6-1.3l-7.1,10.5h7.1l-7.1,8.8h6l-4.7,6.7l5.6,0.2l-4.3,6.2l8.3,0.2l-8.8,11.7l6.8-1c0,0,0.2,3.6-9.1,10.9
				c0,0,3.7,0.8,6.5-1c0,0-1.3,3.7-8.7,8.7L411.4,456.9z"/>
			<path fill-rule="evenodd" clip-rule="evenodd" fill="#FBC600" d="M363.3,514.8c0,0-8.4,6.1,1.2,4.5c0,0,3.7-0.2,1.9,1.6
				c0,0-5.5,3-0.6,2.2c0,0,3,0.9-3.6,3.7c0,0-10.9,4.2-13.2,8.3c0,0,13.8-0.1,21.5-5.7l0.4,5.8c0,0,6.8-3,6.5,0.2
				c0,0-0.6,6.4,8.2,1.8c0,0,6.4-3.7-0.9-7.3c0,0-12-2.5-5.9-3.4c0,0,3.9,0.9,8.6-3.4c0,0,1.2-1.7,1.3,0.9c0,0,2.9,4.4,7.8-2.1
				c0,0,1.9-2.5,2.3,0.4c0,0-0.9,4.5,4,0.9c0,0,7.5-3.6,6.4-6.3c-2-5-29,5-34.2,4.4C371.6,520.8,368.5,511.3,363.3,514.8z"/>
			<path fill-rule="evenodd" clip-rule="evenodd" fill="#D3B467" d="M429.8,523.1l0.4,10.8c0,0,5.8-1.2,6.3-13.2L429.8,523.1z"/>
			<path fill-rule="evenodd" clip-rule="evenodd" fill="#D3B467" d="M446.2,512.1l0.4,10.1c0,0,4.8-0.6,6.2-8.9
				c0.5-3.2,1-5.3-2.2-3.5L446.2,512.1z"/>
			<path fill-rule="evenodd" clip-rule="evenodd" fill="#FBC600" d="M387.1,538.3c4.1-1.5,5.2,2.2,4.4,6c-0.7,3.6-3.1,7.2-4.5,6.5
				c-0.5-0.3,2-3.4-1.2-6.5C382.7,541.1,385.3,539,387.1,538.3z"/>
			<path fill-rule="evenodd" clip-rule="evenodd" fill="#FBC600" d="M411.7,520.4c4.8-1.2,5.5,3.2,4.2,7.3c-1.3,4-4.5,7.6-6,6.6
				c-0.6-0.4,2.7-3.5-0.4-7.5C406.4,522.9,409.6,521,411.7,520.4z"/>
			<path fill-rule="evenodd" clip-rule="evenodd" fill="#D3B467" d="M372.3,497.7c2.9,2.3,11.1-10.3,11.9-9.4c1.2,1.2-2,5.7-2.6,6.8
				c-2.4,4-5.5,10.2-0.1,7.7c0,0,14.8-6.7,18.8-10.5c0,0,3.8-3,0.3-9.4c0,0-3.7-5.5-3.5-8.4c-1.4,0.9-11.1,4.1-16,7.4
				C377.4,484.4,367.3,493.9,372.3,497.7z"/>
			<path fill-rule="evenodd" clip-rule="evenodd" fill="#D3B467" d="M417.5,512.6c-0.5,0.1,18.3-0.8,12.5,7.1
				c-1.2,1.7-3.9,4.7-9.6,0.1c-1.9-1.6-1.5-4.6-3.3-5.6c-0.8-0.4-2.4-0.9-5.4-0.9l-10.1-0.2c0,0-4.3-1,2.1-3.4c0,0,5.7-1.5,5.2-2.9
				c-0.7-1.7-7.1,0.4-4.1-2.4c0,0,3.7-2.3,0.7-3c-9.9-1-1.9-9.5,1.9-5.8c0,0,7,7.4,10.7,8.1c0,0,12.8,0.6,18.5,0
				c2.2-0.3,14.6,0.1,9.7,4.7c-2.5,2.3-8.6,6.7-7.8,1.7c0.2-1.3,0.4-3.1-1.4-2.1c0,0-9.2,8-8.9,1.4
				C428,508.5,419.2,512.2,417.5,512.6z"/>
			<path fill-rule="evenodd" clip-rule="evenodd" fill="#D3B467" d="M161,378.8c-29.4,24.9-59.3,47.5-88.4,70.3c0,0-5.1,3.2,3.3,2.2
				c0,0,15.6,1,41.2-19c0,0,50.2-39.1,61.8-55.2C183.1,371.9,165.6,375,161,378.8z"/>
			<path fill-rule="evenodd" clip-rule="evenodd" fill="#D3B467" d="M192.2,377.6c0,0,2.3-10.9-2.2-5.9c0,0-17.5,22.9-23.8,27.7
				L106.4,447c-10.7,8.5-9,8.5-4.1,7.3c0,0,17.7-3,24.3-7.7c0,0,28.9-21.5,35.1-27.8c0,0,10.8-10,18.4-15.2c0,0,21.2-16.2,22.1-25.9
				L192.2,377.6z"/>
			<path fill-rule="evenodd" clip-rule="evenodd" fill="#D3B467" d="M304.9,387.9c0,0,1.2-10.3-2.8-4.9c0,0-13.5,22.9-19.4,28.3
				l-17.7,21.1c-5.8,7-2.8,14.4-1.4,14.6c2.2,0.3,11.4-6.4,18.9-14.3c4.3-4.5,13.6-15.5,21.9-25.5c6.9-8.3,13.3-15.6,13.3-19.7
				L304.9,387.9z"/>
			<path fill-rule="evenodd" clip-rule="evenodd" fill="#D3B467" d="M210.3,377.6c-1.8,3.8-8.4,16.3-26.9,31.2
				c0,0-25,18.5-34.9,28.4c0,0-16.9,17.9-4.7,13c0,0,24.8-10.5,44.8-30.8c0,0,30.3-26.7,36-33.2c2-2.3,1.7-11.7-1.4-12.3
				C220.6,373.4,211.6,374.8,210.3,377.6z"/>
			<path fill-rule="evenodd" clip-rule="evenodd" fill="#D3B467" d="M252,372.5c8.6,3.9-33.2,48.1-38,52
				c-4.9,3.9-32.2,18.8-36.7,17.3c-4.5-1.5,20.4-24.4,29.4-32.7C220.9,395.8,244.8,369.2,252,372.5z"/>
			<path fill-rule="evenodd" clip-rule="evenodd" fill="#D3B467" d="M276.4,375.1c0,0-13.4-0.7-21.1,8.9c0,0-28.2,31.8-36.8,44.2
				c0,0-8.9,13.8-0.9,11.2c0,0,8-1.7,16.6-10.5l42.1-46.6L276.4,375.1z"/>
			<path fill-rule="evenodd" clip-rule="evenodd" fill="#D3B467" d="M283.2,383.3c0,0-29.8,33-34.7,38.3c0,0-9.1,6.9-9.9,14.3
				c0,0-2.6,7.7,3.1,5.2c0,0,11.3-2.4,28.8-22.5c0,0,19-22,19.9-24.9c0,0,4.1-8.2,3.4-10.1L283.2,383.3z"/>
			<path fill-rule="evenodd" clip-rule="evenodd" fill="#D3B467" d="M325.2,389.3c0,0-35,42.3-36.1,43.5c0,0-7,6.3-2.9,15.5
				c0,0,1.3,4,12.5-4.8c0,0,29.2-23.2,40.3-53.8L325.2,389.3z"/>
			<path fill-rule="evenodd" clip-rule="evenodd" fill="#D3B467" d="M351.4,400.2c7.9,1.3-2,15.3-14,26c-11,9.8-23.9,17.3-28.2,16.2
				c-1.7-0.4,6.1-8.8,14.3-18.4C330.9,415.5,338.4,398.2,351.4,400.2z"/>
			<path fill-rule="evenodd" clip-rule="evenodd" fill="#D3B467" d="M358.2,414.6c4,1.1-3.1,13.1-11.5,20.6
				c-7.7,6.9-14.1,11.7-28.1,14.1c-1.2,0.2,12.9-10.5,18.7-17.2C342.5,426,352.1,412.9,358.2,414.6z"/>
			<path fill-rule="evenodd" clip-rule="evenodd" fill="#D3B467" d="M340.8,448.7c0,0,15.4-4.7,23.8-11.4c0,0,9.8-19.7,8.4-23.1
				C371.5,410.6,339.9,448.6,340.8,448.7z"/>
			<path fill-rule="evenodd" clip-rule="evenodd" fill="#FFFFFF" d="M435.7,349.5c0,0,9.9-6.9,40.1-16.6c0,0,38.7-18,50.5-12.3
				c0,0,1.9,1.3-1.5,2.5c0,0-10.3,3-13.4,9.8c0,0-1.1,2.5-0.5,2.6c1.7,0.4,2.4-4.1,5.4-3.6c3.1,0.4,3.2,4.5,7.5,2.8
				c4.5-1.8,4.4-9.3,8.1-9.8c4.6-0.7-0.3,13.4,5.4,3.6c0,0,4.2-9.4,16.1-9c0,0,13.4-0.3,11.3,17.8c0,0-5.9-9.2-15.4-3.6
				c0,0-7.9,4-14.5,6.6c0,0-6.1,2.1-8.2,7.3c0,0-2.8,4.6,3.6,0.1c0,0,16.5-9,27.2-5.7c0,0,3.3,1.7-0.8,3.4c0,0-30.2,8.8-48.9,26.3
				c0,0-18,17-32.1,35.7c0,0-16.7,20.1-13.6,7.8c0,0,6.7-18.3,2.3-11.6c0,0-10.8,9.9-14.7,14.6c0,0-1.3-7.9,1.1-13.6
				c0,0,2.1-5.7-1-1.1c0,0-6.6,7.3-13.6,6c0,0,5.8-10,7.7-13.2c0,0,2.5-4.2-2.9-0.9c0,0-9,4.8-13.5,2.2c0,0,6.6-10.5,12.7-16.7
				c0,0,1.6-2.1,0.8-2.2c-2.6-0.4-12.4,8.1-18.1,7.3c0,0,4.2-6.6,12.4-12.5c0.4-0.3,6.3-4.6,2.5-3.1c-0.1,0-9.7,3.8-12.6,1.4
				c0,0-0.4-3.6,13.2-9.6c0.2,0.1,3.1-1.5,0.2-1.4c0,0-9.3,0.1-12.4,0.5c0,0,3.4-5.4,12.5-10.5C441.2,349.9,436.5,349.6,435.7,349.5
				L435.7,349.5z M455,402.7c0.7,0.6,4.3-2.5,7.5-5.4c2.5-2.2,5-4,4-4.9c-2.3-2-7.2,1.8-9.1,3.7C454.4,399,454.3,402.1,455,402.7
				L455,402.7z M475.2,390.1c1.2,1.1,17.3-8.6,13.4-11.3c-2.5-1.7-6.7,2.1-8.6,3.9C477,385.6,474.5,389.4,475.2,390.1L475.2,390.1z
				 M474.6,378.7c-2.1-2.2-7.7,0.5-10,2.4c-3.2,2.8-8.7,8.2-8,8.8C457.8,391.2,476.2,380.4,474.6,378.7L474.6,378.7z M478.4,393.5
				c-4.3,5.3-8.5,12.5-6.9,12.1c1.8-0.4,7.2-5.8,11.6-10.6C485.8,392.2,479.4,392.2,478.4,393.5L478.4,393.5z M449.3,381.1l-8.8,8.3
				c0,0-0.1,1.4,4.5-1.2c0,0,7.3-4.4,10.1-6.7L449.3,381.1z"/>
			<path fill-rule="evenodd" clip-rule="evenodd" fill="#FBC600" d="M491.4,407.2c0,0-9.1,33.4-26.4,35.5c0,0-4.4-1.4,6.7-16.3
				c0,0,3.9-4.8-0.6-1.4c0,0-15.5,17.8-23.7,17.4l30-30.9c0,0,45.4-59.2,86.7-62.7l0.9-8.6l4,0.6c0,0,4.8-19.1-6.1-24.5
				c0,0-6.8-5.3-26.2,1.6c0,0-8.8-9.5-35.3,0.3c0,0-25,9.6-27.6,9.6c0,0,35.7-34.5,39.9-38.7c0,0,32.5-43,68.9-32.4
				c0,0,32.7,7.2,20.4,15.9c0,0-24.4,9.6-53,9.9c0,0,4.4,9-19.1,7.6c0,0-5.9-1.2-1.1,3.1c0,0,9.8,5.9-5.3,10.8
				c0,0-17.7,4.8-19.8,4.8c0,0,28.8,2.9,36.4-7.5c0,0,2.4-1.8-2.7-5.9c0,0-4-2,3.7-1.8c0,0,28.2,0.7,23.3-7.6c0,0,28,2.2,30.8-0.6
				c0,0-2-3.5,0.8-4.9c0,0,12.4-10.8,21-7.7c0,0,5.9,0.9,22.1,13.3c0,0,28.1,17.2,38.2,18.3c0,0-6.8,8.2-33.3-1.1
				c0,0-24.1-10.9-34.8-23.5l-6.3,5.2c0,0,20.2,8.2,23.5,18.1c0,0-8.4,2.1-16.3-3.7c0,0-14.8-8.3-17-10.2c0,0-7,0.9-9.4,4.3
				c0,0,14.8,1.7,22.5,13.2c0,0-16.8,2.7-35.2-11.9c0,0-8,2-10,1.6c-1.6-0.3,0.1,2,3.1,2.1c0,0,19.1,2.3,20.8,15.6
				c-8.6,3-19.4-6.2-24.8-9.5c-2.8-1.7-5.6-1.5-2.7,2.3c0,0,17.6,19.4,38.4,13.3l-3.6-7.3c0,0,27.6,2.6,29.8,1.8l-5-5.3L642,309
				l71.2,48.1c0,0-14.6,12.8-51.1-15.1c0,0-22.8-18-25.8-22.2l-2.4,7c0,0,42,30.2,42.5,36.9c0,0-18.7,5.6-44.8-20.2l-12-12.1
				l-2.5,5.8c0,0,9.3,9.5-0.3,29.8c0,0-6.8,3.6-5.9-14.7c0,0,0.2-24.2-3.6-29.1l-5.4,5c0,0,11.8,29.9-2.7,50.9
				c0,0-10.8-1.3-7.8-30.9l2.3-14.1l-7,5.3c0,0,2.5,37-7.4,50.6c0,0-12.7,4.6-2.3-43l-7.4,5.7c0,0,2.9,34-13.1,53.1
				c0,0-14.3-3.6,2.1-44.9l-7.6,4.2c0,0-0.6,39.3-18.3,54c0,0-10.5-6.3,6.1-42.8l-7.4,5c0,0-12.4,46.3-23.3,48.7
				c0,0-8.1-4.7,10.3-38.7c0,0-6,0.6-7.7,5.8c0,0-8.4,35.4-24,44.7c0,0-9.8-7.1,13.7-41L491.4,407.2L491.4,407.2z M660.7,315
				c0,0,23.1,21.8,48.6,28.7c7.6,2,14.2,1.6,21.9,1.3l-51.4-31.8L660.7,315z"/>
			<path fill-rule="evenodd" clip-rule="evenodd" fill="#FBC600" d="M326.8,380.8c0,0-6.1,7.4,15.5,2.9c0,0,8.2-1.5,7.4-14.6
				l-10.7,0.1L326.8,380.8z"/>
			<path fill-rule="evenodd" clip-rule="evenodd" fill="#FBC600" d="M366.4,390.6c0,0-4.6,5.2-20,4.1c0,0-1.9-17.9,18.1-15
				L366.4,390.6z"/>
		</g>
	</g>
	<g>
		<path d="M333.4,596.4l2.6-1c0.4,1,1,1.8,1.6,2.3c0.7,0.5,1.5,0.9,2.6,1c1.1,0.1,2.2,0,3.4-0.3c1.1-0.3,2-0.7,2.7-1.3
			c0.7-0.5,1.2-1.1,1.5-1.8c0.2-0.7,0.3-1.3,0.1-1.9c-0.2-0.7-0.5-1.2-1.1-1.5c-0.5-0.4-1.3-0.6-2.3-0.7c-0.6-0.1-2,0-4.1,0
			c-2.1,0.1-3.6,0-4.5-0.2c-1.2-0.2-2.1-0.7-2.8-1.3c-0.7-0.6-1.2-1.4-1.5-2.4c-0.3-1.1-0.3-2.1,0.1-3.2c0.3-1.1,1-2,2.1-2.8
			c1-0.8,2.3-1.4,3.7-1.8c1.6-0.4,3-0.6,4.4-0.4c1.3,0.2,2.5,0.6,3.4,1.4c0.9,0.8,1.6,1.8,2,3l-2.6,0.9c-0.5-1.3-1.3-2.1-2.3-2.6
			c-1-0.4-2.4-0.4-4,0c-1.7,0.5-2.8,1.1-3.5,1.9c-0.6,0.8-0.8,1.7-0.5,2.5c0.2,0.7,0.7,1.3,1.4,1.6c0.7,0.3,2.2,0.4,4.7,0.3
			c2.4-0.1,4.1-0.1,5.1,0c1.4,0.2,2.5,0.7,3.3,1.4c0.8,0.7,1.4,1.6,1.7,2.7c0.3,1.1,0.3,2.2-0.1,3.4c-0.4,1.2-1.1,2.2-2.1,3.1
			c-1.1,0.9-2.3,1.5-3.9,1.9c-1.9,0.5-3.6,0.7-5.1,0.5c-1.5-0.2-2.7-0.7-3.8-1.6C334.6,598.9,333.8,597.8,333.4,596.4z"/>
		<path d="M356.5,597.2l-6.2-20.7l2.8-0.8l6.2,20.7L356.5,597.2z"/>
		<path d="M364.1,595l-6.4-20.7l2.9-0.8l16.1,13l-5-16.2l2.7-0.8l6.4,20.7l-2.9,0.9l-16.1-13l5,16.3L364.1,595z"/>
		<path d="M398.4,577.2l3-0.1c0.1,2.4-0.5,4.4-1.7,6.1c-1.2,1.6-2.9,2.7-5.1,3.3c-2.3,0.6-4.3,0.7-6,0.2c-1.7-0.5-3.2-1.5-4.4-3.1
			c-1.2-1.5-2.2-3.3-2.7-5.3c-0.6-2.2-0.8-4.2-0.4-6c0.4-1.8,1.2-3.4,2.5-4.7c1.3-1.3,2.9-2.2,4.8-2.7c2.1-0.6,4.1-0.6,5.8,0.1
			c1.8,0.7,3.2,1.9,4.3,3.6l-2.6,1.4c-0.9-1.4-2-2.3-3.1-2.7c-1.1-0.4-2.4-0.4-3.8-0.1c-1.6,0.5-2.9,1.2-3.8,2.3
			c-0.9,1.1-1.3,2.3-1.4,3.7c-0.1,1.4,0.1,2.8,0.5,4.2c0.5,1.8,1.2,3.2,2.1,4.4c0.9,1.2,2,1.9,3.3,2.3c1.3,0.3,2.6,0.3,3.9,0
			c1.6-0.4,2.8-1.3,3.6-2.4C398.2,580.5,398.5,579,398.4,577.2z"/>
		<path d="M406.6,582.8l-5-21.1l15.5-3.5l0.6,2.5l-12.7,2.9l1.5,6.5l11.9-2.7l0.6,2.5l-11.9,2.7l1.7,7.2l13.2-3l0.6,2.5L406.6,582.8
			z"/>
		<path d="M466.7,570.1l0.3,2.6l-14.5,1.7c-0.1-0.7-0.1-1.3,0.1-1.9c0.3-1,0.7-2.1,1.4-3.2c0.7-1.1,1.7-2.3,3.1-3.8
			c2.2-2.3,3.6-4,4.3-5.3c0.7-1.3,1-2.4,0.9-3.4c-0.1-1.1-0.6-2-1.5-2.6c-0.9-0.7-1.9-0.9-3.1-0.8c-1.3,0.2-2.3,0.7-3,1.6
			c-0.7,0.9-1,2-0.8,3.4l-2.8,0c-0.1-2.1,0.5-3.8,1.6-5.1c1.1-1.2,2.7-2,4.8-2.2c2.1-0.3,3.8,0.1,5.2,1.2c1.4,1,2.1,2.4,2.4,4.2
			c0.1,0.9,0,1.8-0.2,2.7c-0.3,0.9-0.7,1.9-1.5,2.9c-0.7,1.1-2,2.5-3.7,4.4c-1.5,1.6-2.4,2.6-2.8,3.2c-0.4,0.5-0.7,1.1-1,1.6
			L466.7,570.1z"/>
		<path d="M468.5,561.3c-0.4-2.6-0.4-4.8-0.1-6.5c0.3-1.7,0.9-3,1.9-4c0.9-1,2.2-1.6,3.8-1.9c1.2-0.2,2.2-0.1,3.2,0.3
			c1,0.4,1.8,0.9,2.5,1.8c0.7,0.8,1.3,1.9,1.8,3.1c0.5,1.3,0.9,3,1.2,5.2c0.4,2.6,0.4,4.8,0.1,6.4c-0.3,1.7-0.9,3-1.8,4.1
			c-0.9,1-2.2,1.7-3.8,1.9c-2.1,0.3-3.9-0.2-5.3-1.6C470.2,568.4,469.1,565.5,468.5,561.3z M471.3,560.9c0.5,3.6,1.3,6,2.3,7.1
			c1,1.1,2.1,1.5,3.4,1.4c1.2-0.2,2.2-0.9,2.9-2.3c0.7-1.3,0.8-3.8,0.2-7.5c-0.5-3.7-1.3-6-2.3-7.1c-1-1.1-2.1-1.5-3.4-1.4
			c-1.2,0.2-2.1,0.8-2.7,2C470.9,554.7,470.8,557.2,471.3,560.9z"/>
		<path d="M485.6,558.8c-0.3-2.6-0.4-4.8,0-6.5c0.3-1.7,1-3,1.9-4c0.9-1,2.2-1.6,3.8-1.8c1.2-0.2,2.2-0.1,3.2,0.3
			c0.9,0.4,1.8,1,2.5,1.8c0.7,0.8,1.3,1.9,1.8,3.1c0.5,1.3,0.9,3,1.2,5.2c0.3,2.6,0.4,4.8,0,6.4c-0.3,1.7-0.9,3-1.9,4
			c-0.9,1-2.2,1.6-3.8,1.8c-2.1,0.3-3.9-0.3-5.3-1.6C487.2,565.9,486.1,563,485.6,558.8z M488.3,558.4c0.5,3.7,1.2,6,2.2,7.1
			c1,1.1,2.1,1.6,3.4,1.4c1.2-0.2,2.2-0.9,2.9-2.2c0.7-1.3,0.8-3.8,0.3-7.5c-0.5-3.7-1.2-6-2.2-7.1c-1-1.1-2.1-1.6-3.4-1.4
			c-1.2,0.2-2.2,0.8-2.8,2C488,552.2,487.9,554.8,488.3,558.4z"/>
		<path d="M502,548.1l-0.3-2.6l14.2-1.6l0.2,2.1c-1.2,1.7-2.4,3.8-3.5,6.5c-1.1,2.7-1.9,5.4-2.4,8.1c-0.3,1.9-0.5,4-0.4,6.2
			l-2.8,0.3c-0.2-1.8,0-3.9,0.3-6.5c0.4-2.6,1.1-5.1,2-7.5c1-2.4,2.1-4.5,3.3-6.3L502,548.1z"/>
		<path fill="#231815" d="M281.7,165.5c-0.2,6.2-0.3,12.1-0.3,17.7h29.5c-0.2,4.5-0.3,10.6-0.3,18.4c0,7.6,0.1,13.2,0.3,17h-7.5v-5
			h-22.1v14.4c0,2.7,0.1,7.7,0.3,15h-8.1c0.5-4,0.7-8.7,0.7-14v-15.4h-22.1v5h-7.5c0.2-3.3,0.3-9,0.3-17c0-8.2-0.1-14.4-0.3-18.4
			h29.5c0-6-0.1-11.9-0.3-17.7H281.7z M274.3,208.2v-19.7h-22.1v19.7H274.3z M303.5,208.2v-19.7h-22.1v19.7H303.5z"/>
		<path fill="#231815" d="M353.4,216.2c4.3,0,7.1-0.6,8.3-1.7c1.2-1.1,1.7-6.3,1.5-15.7h-15.6v31c0,3.1,1.4,4.7,4.1,4.7h13.9
			c1.6,0.2,2.8-0.6,3.6-2.3c0.8-1.8,1.3-4,1.5-6.7c1.8,1.1,4.2,2.1,7.1,3c-1.6,5.8-3.1,9.2-4.6,10.2c-1.5,1-3.5,1.5-5.9,1.5h-19
			c-4.5,0-6.8-2.3-6.8-7v-28.4c0-3.3-0.1-7-0.3-11c-1.6,1.8-3.4,3.7-5.4,5.7c-2-2.2-4-3.9-5.8-5c2.5-1.8,4.9-3.7,7.1-5.8
			c2.3-2.1,4.4-4.5,6.4-7.2c2-2.7,4-5.3,5.8-8c1.8-2.7,3.4-5.7,4.8-9c1.8,1.3,4.3,2.8,7.5,4.3c-1.4,0.9-2.5,1.8-3.4,2.7
			c2,1.6,4.6,3.3,7.8,5.3c3.2,2,7.1,5.3,11.9,10c-1.8,1.3-3.5,3.1-5.1,5.3c-4.3-5.1-7.6-8.6-10-10.3c-2.4-1.8-4.8-3.6-7.3-5.3
			c-3.4,4.7-6.1,8.2-8.1,10.7l-5.1,5.7H370c-0.2,6.5-0.3,11.5-0.3,15c0,3.3-0.3,6.2-0.8,8.5c-0.6,2.3-2,4-4.2,5
			c-2.3,1-5.1,1.7-8.5,2.2C355.4,221.1,354.5,218.7,353.4,216.2z M387,190.2v24c0,4.2,0.1,7.8,0.3,10.7h-7.1
			c0.2-3.6,0.3-7.1,0.3-10.7v-25c0-3.3-0.1-6.9-0.3-10.7h7.1C387.1,182.1,387,186,387,190.2z M404.6,178.5v55.1c0,3.8-1,6.1-2.9,7
			c-1.9,0.9-5.1,1.7-9.7,2.3c-0.7-2.9-1.7-5.5-3.1-7.7c4.1,0,6.7-0.1,7.8-0.3c1.1-0.2,1.7-1.4,1.7-3.7v-52.7c0-3.6-0.1-7.5-0.3-11.7
			h6.8C404.7,170.6,404.6,174.5,404.6,178.5z"/>
		<path fill="#231815" d="M430.7,206.5c-2.5-0.4-4.6-0.8-6.4-1c0.7-3.1,1.6-10.3,2.7-21.7c1.8,0.2,4,0.7,6.4,1.3
			C432.3,193.2,431.4,200.3,430.7,206.5z M443.3,177.2v50.7c0,4.7,0.1,9.2,0.3,13.7h-6.8c0.2-4.5,0.3-9,0.3-13.7v-49.7
			c0-3.6-0.1-7.6-0.3-12h6.8C443.4,170.2,443.3,173.8,443.3,177.2z M455.2,196.2c-2,0.4-4,1.1-5.8,2c-0.7-4.5-1.8-9.2-3.4-14.4
			c1.4-0.4,3.2-1,5.4-1.7C452.8,187.7,454,192.4,455.2,196.2z M492.5,232.6c3.6,0,7.1-0.1,10.5-0.3v6c-3.4-0.2-6.9-0.3-10.5-0.3
			h-29.2c-4.1,0-8.1,0.1-12.2,0.3v-6c4.3,0.2,8.4,0.3,12.2,0.3H492.5z M488.4,170.5c2.9,0,7.1-0.2,12.6-0.7v6.3
			c-5.4-0.2-9.5-0.3-12.2-0.3h-22.4c-2.5,0-6.3,0.1-11.5,0.3v-6.3c5,0.4,8.8,0.7,11.5,0.7H488.4z M496.6,205.2
			c0,8.2,0.1,15.1,0.3,20.7h-6.8v-4H465v5h-6.4c0.2-5.1,0.3-12.4,0.3-21.7c0-9.3-0.1-16-0.3-20h38.3
			C496.7,190.3,496.6,197,496.6,205.2z M490.1,201.2v-11H465v11H490.1z M490.1,216.9v-10.7H465v10.7H490.1z"/>
		<path fill="#231815" d="M551.5,174.5c0.4-3.8,0.7-6.9,0.7-9.3c3.2,0.7,5.9,1.2,8.1,1.7c-0.7,1.3-1.5,3.9-2.4,7.7h20.4
			c3.2,0,6.7-0.1,10.5-0.3v5.7c-3.9-0.2-7.4-0.3-10.5-0.3h-21.4c-0.5,2-1,3.8-1.7,5.3H576c3.2,0,6.3-0.1,9.5-0.3v6
			c-2.9-0.2-6.2-0.3-9.8-0.3h-22.4l-2.7,6h32.2c2.9,0,6.4-0.1,10.5-0.3v5.3c-4.1-0.2-7.6-0.3-10.5-0.3h-10.5c1.8,2.5,4.5,4.8,8.1,7
			c3.6,2.2,8.7,3.9,15.3,5c-2.5,2-4,4-4.4,6c-7-2-12.5-4.6-16.5-7.8c-4-3.2-7.2-6.6-9.7-10.2h-17.6c-2.9,3.8-6.5,7.3-10.7,10.7
			c-4.2,3.3-8.2,6-12,8c-1.1-2-2.9-3.7-5.4-5c3.8-1.1,7.6-3,11.4-5.7c3.7-2.7,6.8-5.3,9.3-8h-9.5c-2.9,0-6,0.1-9.2,0.3v-5.3
			c3.2,0.2,6.3,0.3,9.5,0.3H543c1.4-2,2.6-4,3.7-6h-9.8c-2.7,0-5.7,0.1-8.8,0.3v-6c3.2,0.2,6.2,0.3,9.2,0.3h11.5
			c0.7-1.8,1.2-3.6,1.7-5.3h-15.3c-3.6,0-7.2,0.1-10.9,0.3v-5.7c3.6,0.2,7.9,0.3,12.9,0.3H551.5z M538.6,234.2c-4.5,2-8.5,4-11.9,6
			c-1.1-2.2-2.6-4.3-4.4-6.3c5.4-1.6,10.3-3.3,14.8-5.2c4.4-1.9,9-3.9,13.7-6.2c0,1.8,0.1,3.8,0.3,6
			C547.3,230.4,543.1,232.2,538.6,234.2z M548.1,218.9c-2.3,1.8-4.1,3.5-5.4,5c-2-3.1-4.8-5.9-8.1-8.3c1.1-0.9,2.5-2.2,4.1-4
			C542,214,545.2,216.4,548.1,218.9z M559.7,214.2v7c1.4,0.4,2.9,1.1,4.8,2c4.1-4.7,6.7-8.2,7.8-10.7c1.6,1.1,3.7,2.2,6.4,3.3
			c-1.8,1.6-4.6,4.6-8.5,9c5.2,2.5,11.5,5.6,19,9.3c-2,1.8-3.5,3.8-4.4,6c-7.7-5.1-16.1-9.5-25.1-13v9.7c0,2.2-1,3.8-3.1,4.7
			c-2,0.9-4.5,1.6-7.5,2c-0.2-2-1.4-4.2-3.4-6.7c5.4,0.7,8-0.3,7.8-3v-19.4c0-2.4-0.1-5-0.3-7.7h7.1
			C559.9,209.5,559.7,212,559.7,214.2z"/>
	</g>
</g>
<g>
</g>
<g>
</g>
<g>
</g>
<g>
</g>
<g>
</g>
<g>
</g>
<g>
</g>
<g>
</g>
<g>
</g>
<g>
</g>
<g>
</g>
</svg>
