<?xml version="1.0" encoding="utf-8"?>
<!-- Created by @FCLOGO 2021-12-13 16:07:22 . https://fclogo.top/ -->
<!-- FOR PERSONAL USE ONLY NOT FOR COMMERCIAL USE -->
<svg version="1.1" xmlns="http://www.w3.org/2000/svg" xmlns:xlink="http://www.w3.org/1999/xlink" x="0px" y="0px"
	 viewBox="0 0 800 800" style="enable-background:new 0 0 800 800;" xml:space="preserve">
<g>
	<path style="fill:#F7B400;" d="M400,50c-180.22,0-261.95,81.87-261.95,81.87s0,312.88,0,364.05
		c0,127.19,103.31,167.75,170.6,196.99c44.79,19.47,65.31,30.15,91.35,57.09c26.04-26.93,46.56-37.62,91.35-57.09
		c67.29-29.24,170.6-69.8,170.6-196.99c0-51.17,0-364.05,0-364.05S580.22,50,400,50z"/>
	<path style="fill:#1E257D;" d="M400,732.08c-24.01-22.45-46.32-33.52-86.26-50.88l-6.47-2.8
		c-66.03-28.56-156.45-67.68-156.45-182.48V137.55c7.53-6.42,26.5-21.13,57.4-35.7C246.05,84.02,310.03,62.77,400,62.77
		c152.07,0,231.66,59.81,249.18,74.77v358.38c0,114.81-90.42,153.92-156.45,182.48l-6.47,2.8C446.32,698.56,424,709.64,400,732.08z"
		/>
	<path style="fill:#F7B400;" d="M612.17,218.55c-109.44,1.57-182.71,35.85-211.74,44.98c-0.07-0.03-0.14-0.07-0.21-0.1l0,0l0,0h0
		l0,0c-0.07,0.03-0.15,0.07-0.21,0.1c-29.03-9.13-102.3-43.41-211.74-44.98c-7.18-0.1-11.12-0.8-11.12,6.1v276.61
		c0,85.46,66.63,123.25,140.86,153.36l6.82,2.77c24.52,9.99,52.22,21.94,70.6,37.26l4.59,3.83l0.21-0.18l0.21,0.18l4.59-3.83
		c18.38-15.32,46.08-27.26,70.6-37.26l6.82-2.77c74.23-30.11,140.86-67.9,140.86-153.36V224.65
		C623.29,217.74,619.34,218.44,612.17,218.55z"/>
	<path style="fill:#1E257D;" d="M589.4,423.07l-50.27-50.22c-1.43-1.43-1.43-4.97-1.43-7.92v-63.02c0-6.26,0.26-10.75-9.82-10.75
		h-55.81l-4.26,0.01c-7.67,0-10.73-0.38-14.97-4.62c-6-6-45.09-43.96-46.75-45.57c-3.4-3.3-8.8-3.3-12.2,0
		c-1.66,1.61-40.75,39.58-46.75,45.57c-4.24,4.24-7.31,4.62-14.97,4.62l-60.75-0.01c-9.49,0-9.14,4.13-9.14,11.31v62.45
		c0,2.95,0,6.48-1.43,7.92l-50.18,50.22c-3.42,3.42-3.42,8.2,0,11.61l50.18,50.16c1.43,1.43,1.43,1.74,1.43,4.69v65.68
		c0,5.63-1.47,11.31,9.78,11.31h55.85l4.26-0.01c7.67,0,10.73,0.38,14.97,4.62c6,6,45.09,43.96,46.75,45.57
		c1.7,1.65,3.9,2.47,6.1,2.47c2.2,0,4.4-0.83,6.1-2.47c1.66-1.61,40.75-39.58,46.75-45.57c4.25-4.24,7.31-4.62,14.97-4.62
		l60.75,0.01c11.24,0,9.14-7.04,9.14-9.7v-67.29c0-2.95,0-3.26,1.43-4.69l50.15-50.16C592.69,431.26,592.82,426.49,589.4,423.07z
		 M561.59,420.09h-70.21V350.3l28.79-29.02v46.87c0,4.19,0,10.51,6.56,17.08L561.59,420.09z M461.39,308.7l46.62-0.01l-28.54,28.77
		h-33.29l-2.73,0.01c-4.68,0-5.57-0.25-7.37-2.04c-3.16-3.16-20.58-20.09-27.34-26.66v-40.77c12.25,11.91,28.16,27.41,31.71,30.95
		C449.47,307.96,451.76,308.7,461.39,308.7z M402.86,530.23c-1.01,0.98-4.82,0.9-5.88-0.13c-7.9-7.68-18.4-17.91-20.71-20.21
		c-0.32-0.32-0.65-0.62-0.97-0.92c7.34-3.57,19.43-9.45,20.23-9.82c1.16-0.55,2.99-1.7,4.45-1.7c1.46,0,3.3,1.16,4.45,1.7
		c0.8,0.38,12.89,6.26,20.23,9.82c-0.32,0.3-0.65,0.59-0.97,0.92C421.38,512.2,410.76,522.54,402.86,530.23z M394.64,329.87
		c3.66-3.55,7.4-3.19,10.68,0c7.52,7.28,16.29,15.86,18.38,17.94c6.62,6.62,8.93,7.17,15.56,7.17l29.37-0.01c0,0,5.25,0.47,5.25,5.7
		c0,1.28,0,10.45,0,23.56c-7.72,1.56-36.2,7.28-42.01,8.3c-6.2,1.09-6.66,2.92-6.14,7.11c0.34,2.79,3.28,41.47,3.65,45.49
		c0.36,4.01-1.7,5.11-4.01,5.11c-2.31,0-25.37,0-25.37,0s-23.06,0-25.37,0c-2.31,0-4.38-1.09-4.01-5.11
		c0.36-4.01,3.31-42.7,3.65-45.49c0.52-4.2,0.06-6.02-6.14-7.11c-5.82-1.03-34.29-6.75-42.01-8.3c0-13.23,0-22.53,0-23.9
		c0-5.56,5.89-5.37,5.89-5.37l29.37,0.01c6.63,0,8.29-0.55,14.92-7.17C378.35,345.73,387.13,337.16,394.64,329.87z M326.09,394.32
		c5.8,3.37,22.77,13.26,25.23,14.95c3.89,2.68,4.2,5.23,3.59,11.43c-0.61,6.2-2.32,28.49-2.58,31.77
		c-0.55,6.75,0.36,8.57,6.11,10.67c7.73,2.82,30.89,11.92,30.89,11.92s-0.24,3.95-4.8,8.15c-3.56,3.27-17.64,14.74-23.68,19.64
		c-1.44-0.11-2.88-0.14-4.32-0.14l-25.39,0.01c0,0-5.04-0.6-5.04-5.04C326.09,481.45,326.09,429.51,326.09,394.32z M439.12,502.86
		c-6.04-4.9-20.12-16.37-23.68-19.64c-4.56-4.2-4.8-8.15-4.8-8.15s23.17-9.1,30.89-11.92c5.75-2.1,6.66-3.92,6.11-10.67
		c-0.27-3.28-1.98-25.57-2.59-31.77c-0.61-6.2-0.3-8.76,3.59-11.43c2.46-1.69,19.42-11.57,25.23-14.95c0,34.8,0,86.23,0,102.94
		c0,5.11-5.01,5.46-5.01,5.46l-25.42-0.01C442,502.71,440.56,502.75,439.12,502.86z M338.64,308.7c9.63,0,11.86-0.73,20.88-9.75
		c3.54-3.54,19.46-19.04,31.71-30.95v40.77c-6.76,6.57-24.18,23.5-27.34,26.66c-1.79,1.79-2.69,2.04-7.37,2.04l-36.01-0.01
		l-28.54-28.77L338.64,308.7z M273.23,385.23c6.56-6.56,6.56-12.89,6.56-17.08v-46.88l28.79,29.02v69.79h-70.2L273.23,385.23z
		 M238.37,437.6h70.2v70.27l-28.79,29.02v-47.36c0-4.19,0-10.51-6.56-17.07L238.37,437.6z M338.46,549l-46.01,0.01l28.54-28.77h32.8
		l2.74-0.01c4.68,0,5.57,0.25,7.36,2.04c3.16,3.17,20.58,20.1,27.34,26.67v40.77c-12.25-11.91-28.16-27.41-31.71-30.95
		C350.5,549.73,348.09,549,338.46,549z M461.42,549c-9.63,0-11.95,0.73-20.97,9.75c-3.55,3.54-19.46,19.04-31.71,30.95v-40.77
		c6.76-6.57,24.18-23.5,27.34-26.66c1.79-1.79,2.69-2.04,7.36-2.04l35.54,0.01l28.54,28.77L461.42,549z M526.74,472.46
		c-6.56,6.56-6.56,12.89-6.56,17.07v47.36l-28.79-29.02V437.6h70.21L526.74,472.46z"/>
	<g>
		<path style="fill:#F7B400;" d="M191.01,182.7c11.67,4.3,18.48,4.25,26.65,4.19c14.98-0.12,23.59-7.01,23.59-19.52V128.5H229.5
			v37.48c0,4.73-3.13,11.73-12.07,12.71c-7.55,0.83-14.27-0.75-24.73-4.76L191.01,182.7z"/>
		<rect x="253.5" y="128.49" style="fill:#F7B400;" width="11.39" height="56.79"/>
		<path style="fill:#F7B400;" d="M342.88,129.91h11.96c0,0,18.03,17.61,34.03,41.82v-41.82h11.38v55.37h-14.12
			c0,0-19.37-26.56-32.34-40.25v40.25h-10.92V129.91z"/>
		<path style="fill:#F7B400;" d="M467.69,130.44v9.51c0,0-8.87-3.03-22.38-3.03c-13.51,0-24.11,0.43-24.11,21.3
			c0,22.05,16.54,19.57,22.49,19.57c8.97,0,14.05-2.06,14.05-2.06v-20.54h10.38v27.67c0,0-13.08,4-24.76,4
			c-32.86,0-32.32-19.46-32.32-29.62c0-10.16-1.08-29.4,33.08-29.4C461.74,127.85,467.69,130.44,467.69,130.44z"/>
		<path style="fill:#F7B400;" d="M535.34,129.8v9.66c0,0-12.4-2.88-26.81-2.88c-14.41,0-18.74,2.02-18.74,8.51
			c0,6.49,11.12,6.84,18.45,7.35c7.78,0.54,29.69-1.51,29.69,16.72c0,16.43-17.44,17.44-29.12,17.44c-11.68,0-27.24-2.59-27.24-2.59
			v-9.95c0,0,11.53,3.6,26.38,3.6c14.85,0,19.6-2.31,19.6-7.93c0-5.62-2.88-7.93-15.42-8.5c-12.54-0.58-32.29,0.86-32.29-16.14
			c0-14.85,12.11-17.44,30.56-17.44C522.83,127.63,535.34,129.8,535.34,129.8z"/>
		<path style="fill:#F7B400;" d="M603.2,163.3c0-14.27,0-34.81,0-34.81h-11.03c0,0,0,28.42,0,34.04c0,5.62-2.26,14.35-18.01,14.35
			c-15.74,0-18.05-8.73-18.05-14.35c0-5.62,0-34.04,0-34.04h-11.03c0,0,0,20.54,0,34.81c0,12.81,7.13,22.79,29.08,22.79
			C596.11,186.09,603.2,176,603.2,163.3z"/>
		<path style="fill:#F7B400;" d="M319.57,185.53h11.71l-21.7-57.08h-12.44l-21.7,57.08h11.71l6.15-17.3h20.12L319.57,185.53z
			 M295.99,160.7l7.38-20.77l7.38,20.77H295.99z"/>
	</g>
	<g>
		<defs>
			<path id="SVGID_1_" d="M612.17,218.55c-109.44,1.57-182.71,35.85-211.74,44.98c-0.07-0.03-0.14-0.07-0.21-0.1l0,0l0,0h0l0,0
				c-0.07,0.03-0.15,0.07-0.21,0.1c-29.03-9.13-102.3-43.41-211.74-44.98c-7.18-0.1-11.12-0.8-11.12,6.1v276.61
				c0,85.46,66.63,123.25,140.86,153.36l6.82,2.77c24.52,9.99,52.22,21.94,70.6,37.26l4.59,3.83l0.21-0.18l0.21,0.18l4.59-3.83
				c18.38-15.32,46.08-27.26,70.6-37.26l6.82-2.77c74.23-30.11,140.86-67.9,140.86-153.36V224.65
				C623.29,217.74,619.34,218.44,612.17,218.55z"/>
		</defs>
		<clipPath id="SVGID_00000114774517153126629270000015391243892627108510_">
			<use xlink:href="#SVGID_1_"  style="overflow:visible;"/>
		</clipPath>
		<g style="clip-path:url(#SVGID_00000114774517153126629270000015391243892627108510_);">
			<path style="fill:#1E257D;" d="M488.38,677.53c0,48.81-39.57,88.38-88.38,88.38c-48.81,0-88.38-39.57-88.38-88.38
				c0-48.81,39.57-88.38,88.38-88.38C448.81,589.15,488.38,628.72,488.38,677.53z"/>
			<path style="fill:#F7B400;" d="M400,602.79L400,602.79L400,602.79c-41.21,0-74.74,33.53-74.74,74.75
				c0,21.33,9.2,41.71,25.25,55.94c2.88,2.55,6,4.91,9.17,6.94l0.19,0.14l0.35,0.21c11.93,7.53,25.68,11.51,39.78,11.51h0l0,0
				c14.1,0,27.85-3.98,39.78-11.51l0.35-0.21l0.19-0.14c3.16-2.02,6.28-4.38,9.17-6.94c16.06-14.23,25.25-34.62,25.25-55.94
				C474.74,636.32,441.21,602.79,400,602.79z M457.36,636.32l-9.71-2.48l-24.69-17.75l-5.27-6.99
				C433.89,613.29,447.84,623.1,457.36,636.32z M402.62,626.93l19.83-6.23l22.45,16.17l-0.45,20.31l-21,6.12l-20.97-14.58
				L402.62,626.93z M397.52,648.72l-20.97,14.58l-21-6.12l-0.44-20.31l22.44-16.17l19.83,6.23L397.52,648.72z M382.32,609.1
				l-5.27,6.99l-24.68,17.75l-9.71,2.48C352.17,623.1,366.11,613.29,382.32,609.1z M344.25,720.9
				c-9.34-11.99-14.92-27.03-14.92-43.36c0-1.99,0.1-3.96,0.26-5.92l6.42,8.23l-0.1,0.03l9.24,31.14l0.08-0.02L344.25,720.9z
				 M347.25,707.58l-8.22-27.74l14.81-18.65l21.08,6.14l8.61,26.93l-13.74,19.57L347.25,707.58z M400,748.21L400,748.21L400,748.21
				c-9.46,0-18.49-1.88-26.74-5.27l11.12-4.59v0.03l15.62-0.32h0l0,0l15.62,0.32v-0.03l11.12,4.59
				C418.49,746.33,409.46,748.21,400,748.21z M415.49,735.47L400,735.18l0,0h0l-15.49,0.29l-12.17-19.81l13.48-18.96H400h0l0,0
				h14.18l13.48,18.96L415.49,735.47z M430.21,713.82l-13.74-19.57l8.61-26.93l21.08-6.14l14.81,18.65l-8.22,27.74L430.21,713.82z
				 M454.77,711l0.07,0.02l9.24-31.14l-0.1-0.03l6.42-8.23c0.17,1.95,0.27,3.92,0.27,5.92c0,16.33-5.59,31.38-14.93,43.36
				L454.77,711z"/>
		</g>
	</g>
</g>
<g>
</g>
<g>
</g>
<g>
</g>
<g>
</g>
<g>
</g>
<g>
</g>
<g>
</g>
<g>
</g>
<g>
</g>
<g>
</g>
<g>
</g>
</svg>
