<svg version="1.1" xmlns="http://www.w3.org/2000/svg" xmlns:xlink="http://www.w3.org/1999/xlink" x="0px" y="0px"
	 viewBox="0 0 800 800" enable-background="new 0 0 800 800" xml:space="preserve">
<g>
	<path fill="#E50112" d="M680,308.2c0.2-2.7,0.5-5.3,0.7-8c0.9-10.1,1.7-20.2,2.4-30.2c-4.1-3.2-9-6.8-14.8-10.7
		c-6.2-4.2-15.2-9.7-28.7-15.9c-92.7-42.8-164.1-58-262.3-57.4C289,186.5,158.7,215.9,82,250.7c-1.6,0.6-3.3,1.4-5,2.2
		c-2.3,1.1-4.5,2.2-6.5,3.3c7.5,121.7,27.9,252.3,70.6,313.4c20.6,29.4,51.2,58.5,84,84.7c0.6-2.3,1.2-4.6,1.9-6.8
		c0.3-1,0.6-2,0.8-3C241,599.2,285.1,513.9,351.5,456c67.8-59.2,143.7-64.5,188.2-64.5c39.5,0,94.1,6.8,126.4,22.2
		c4.2,2,7.9,4.1,11.2,6.4c29.3,20,44.6,41.2,51.2,55.2C731.3,458.2,750.6,359.7,680,308.2z M90.6,271.2L90.6,271.2
		c126.7-51.9,212.3-51.9,212.3-51.9C190.5,259.4,119,307.8,95.4,325.1C93.4,306.7,91.9,288.6,90.6,271.2z M102,378.3
		c-0.2-1.2-0.4-2.5-0.5-3.8c-0.8-5.8-1.6-11.6-2.4-17.3c55.7-28,73-32,73-32c-9.3,6.8-20,16.3-30.5,26c-15.2,14.3-29.7,29.2-38,37.9
		C103.1,385.6,102.6,382,102,378.3z M182.8,590.3c-6-6.3-11.6-12.7-16.7-19.1c-2.1-2.6-4.1-5.2-6-7.8c-1.1-1.5-2.2-3-3.2-4.5
		c-3-4.2-5.8-8.9-8.6-14c8.5-10.4,41.7-47.1,75.8-65.8C224,479.1,190.9,531.5,182.8,590.3z M226.1,407
		c-21.4,27.7-69.7,92.8-81.3,131.3c-2-4-4-8.2-5.9-12.7c-5.8-13.5-11.2-29.2-16.2-46.8c12-11.9,61.6-59.2,113.7-84.9
		C236.4,393.9,232.4,398.8,226.1,407z M251,408.1c24-30.6,61.6-60.3,76.7-71.4C183.4,377.9,127.6,445,116.9,456.6
		c-0.9-3.8-1.8-7.8-2.7-11.8c-2.2-9.9-4.3-20.3-6.3-31.2c11.2-14.2,47.6-58.2,91.3-89.4c52.8-37.7,100.2-53.6,123.7-61.6
		c-70,11.1-121,42.1-143.7,54.3c127-129.7,286-95.1,314.6-89.8c-44.6-22.6-129-15.3-168.3-10.6c154.3-44.6,301.1,42.6,310.8,51
		c-20.4,0.4-58.1,5.3-70.5,8.9c-8.5-4-26.4-10.3-46.5-17.1c-9.5,7.4-24.8,10.7-34.6,6.9c-9.2-3.6-11.4-13.7-10.7-21.7
		c-25.3-8-45.6-14.3-45.6-14.3c4,43.5,28.8,48.3,46.1,46.6c17-1.7,68.8-6.9,70.5-7.1c-17.2,4.1-34.8,9.3-52.3,15.4
		C370.9,327.2,251,408.1,251,408.1z M706.9,413.8c0,0-0.1-0.1-0.1-0.1c-15.7-14.2-114.4-86.1-326.8-41.5
		c0.7-0.4,24.5-13.1,76.7-28.1c1.4-0.4,2.7-0.8,4.1-1.2c0.9-0.2,1.7-0.5,2.6-0.7c18.5-5.1,40.4-10.5,65.8-15.7c0.1,0,0.2,0,0.3-0.1
		c-17.1-0.3-48.5,3-76.9,9.6c-9.9,2.3-19.5,5-28,8.1c0.9-0.7,61.4-44.6,175.6-56.2c14,7.7,57.9,33.3,67.5,41.2
		C677.3,337.3,708.6,361.6,706.9,413.8z"/>
	<polygon fill="#E50112" points="422.2,603.2 421.4,603.9 427.8,617.1 433.7,612.5 	"/>
	<path fill="#E50112" d="M647.5,410.8c-5.9-2-12.4-3.8-19.5-5.5L377.4,604.4l37.9-184.9c-20.4,9.3-41.1,22-61.2,39.5
		c-10.4,9.1-20.2,18.8-29.4,28.9l-38.4,187.6c-17.2-11.7-34.9-24.6-51.8-38.2c-1.4,4-2.5,7.8-3.4,11.3l-1.4,5l-0.8,3.6
		c57.6,45.3,121,81.1,148.6,92.7c43.9-18.6,178.9-98.4,236.1-180.3c23.6-33.8,40.4-88.8,52-151.8
		C660.4,415.5,654.4,413.1,647.5,410.8L647.5,410.8z M574.3,464.9c4.5-3.5,11.5-2.4,15.4,2.4c2,2.6,4.6,5.8,5.1,9.8
		c0.1,0.9,0.2,1.9,0.1,2.8l-0.1,0.6c0,0,0.9,0.1,1.1,0.1c4.6,0.9,5.8,1.4,10.7,8.2c3.8,5.2,4.3,11.2-1.2,15.5
		c-2.7,2.2-9.7,6.4-15.5-0.9l-4.2-5.3l5.4-4.2l4.2,5.3c1.3,1.6,2.4,2.5,5.9-0.2c1.3-1,2.3-2.2,1.5-4.7c-1.1-3.4-4.4-7-7.7-7.2
		c-1.7-0.1-3.9,1.2-6.7,3.3l-4.2-5.4c4.4-3.7,4.1-6,4-6.8c-0.3-2.1-2.1-4.5-3.7-6.5c-1.7-2.1-4.4-2.4-5.8-1.3
		c-3.7,2.9-2.2,4.8-1.5,5.7l3.2,4.1l-5.4,4.2l-3.7-4.7l-0.1-0.2C567.9,474.5,569.1,469,574.3,464.9z M555,480.2l6.3-5l31.1,39.3
		l-5.8,4.6l-24.3-30.7l0,3.6l-7.4-0.1L555,480.2z M537,494.4c5-4,12.3-3.1,16.2,1.9l16.7,21.1c4,5,3.1,12.3-1.9,16.2
		c-5,4-12.3,3.1-16.2-1.9l-16.7-21.1C531.2,505.7,532,498.4,537,494.4z M515.6,510.7c4.8-3.8,8.8-3.2,11.3-2
		c2.8,1.3,4.7,3.8,6.4,5.9l0.2,0.3c4.1,5.2,3.7,10.8,3.2,16.8c-0.1,1.4-0.2,2.9-0.3,4.4l0,0.2c-0.2,5.5-0.3,7.4,1.7,10.5l0.3,0.5
		l12.2-9.6l4.6,5.8l-18,14.3l-2.3-2.9c-6-7.6-6.2-10.4-5.9-18.8l0-0.2c0.1-1.7,0.2-3.2,0.3-4.7c0.4-5.7,0.5-8.9-1.7-11.7l-0.2-0.3
		c-1.2-1.5-2.6-3.2-3.8-3.8c-0.6-0.3-1.5-0.4-3.5,1.1c-2.4,1.9-2.5,3.1-2.3,4c0.3,1.5,1.7,3.3,3,4.9l-5.8,4.6
		c-1.7-2.1-3.7-4.8-4.4-7.9C510,519.1,510.4,514.8,515.6,510.7z M525.5,567.6c-1.4,1.1-3.4,0.9-4.5-0.5c-1.1-1.4-0.9-3.4,0.5-4.5
		c1.4-1.1,3.4-0.9,4.5,0.5C527.1,564.5,526.9,566.5,525.5,567.6z M477.8,541.2c5.5-4.4,13.6-3.4,18,2.1l1.4,1.7l-5.8,4.6l-1.4-1.7
		c-1.8-2.3-5.2-2.7-7.6-0.9c-2.3,1.8-2.7,5.2-0.9,7.6l15.2,19.2c1.8,2.3,5.2,2.7,7.6,0.9c2.3-1.8,2.7-5.2,0.9-7.6l-1.4-1.7l5.8-4.6
		l1.4,1.7c4.4,5.5,3.4,13.6-2.1,18s-13.6,3.4-18-2.1l-15.2-19.2C471.4,553.6,472.3,545.5,477.8,541.2z M492,593.6
		c-1.4,1.1-3.4,0.9-4.5-0.5c-1.1-1.4-0.9-3.4,0.5-4.5c1.4-1.1,3.4-0.9,4.5,0.5C493.6,590.5,493.4,592.5,492,593.6z M443.7,568.2
		l0.5-0.3l11.6-9.2l4.6,5.8l-12.1,9.6l9.2,11.7l9.3-7.4l3.9,4.9l-9.3,7.4l13.4,16.9L469,612l-31.1-39.3L443.7,568.2z M417.3,589.6
		L457,622l-5.9,4.7l-11.5-9.4l-8.5,6.7l6.5,13.4l-5.9,4.7l-22.4-46.2L417.3,589.6z M377.4,621.1l29.5,24l0.9-0.7l-16.6-34.2l5.9-4.7
		l22.4,46.2l-8.2,6.5l-39.8-32.4L377.4,621.1z M368.6,628.1l31.1,39.3l-5.8,4.6l-31.1-39.3L368.6,628.1z M339.8,650.8l29.5,24
		l0.9-0.7l-16.6-34.2l5.9-4.7l22.4,46.2l-8.2,6.5l-39.8-32.4L339.8,650.8z M597.9,558.9c-51,72.9-171.4,147.2-220.5,170.3
		c-6.3-3-13.8-6.8-22.2-11.3l269-213.8C616.3,526.8,607.5,545.2,597.9,558.9z"/>
	<path fill="#E50112" d="M558.1,526.8c1.2,1.6,3.5,1.8,5.1,0.6s1.8-3.5,0.6-5.1L547,501.3c-1.2-1.6-3.5-1.8-5.1-0.6
		s-1.8,3.5-0.6,5.1L558.1,526.8z"/>
	<path fill="#E50112" d="M175.2,191.1c2,0.7,4.2,1.1,6.5,0.9c2.3-0.1,4.9-0.7,7.7-1.7l1-0.4l-0.5-5.7l-0.5,0.2c-1.8,0.7-3.4,1-4.7,1
		c-1.4,0-2.8-0.3-4.2-0.9c2.5-4.1,4.2-8.4,5-12.8c0.8-4.4,0.7-8.2-0.5-11.2c-1-2.8-2.6-4.7-4.6-5.7c-2.1-1.1-4.4-1.1-7-0.2
		c-4.6,1.7-7.9,5-9.9,10.1c-2,5-2,10.1-0.2,15.3c0.8,2.2,1.7,4.1,2.8,5.5c1,1.5,2.3,2.7,3.7,3.6c-1.1,1.1-2.4,2.1-3.7,3
		c-1,0.7-2.1,1.3-3.2,1.9c-1.7,0.4-3.1,0.3-4.2-0.2c-1.3-0.6-2.4-2-3.2-4.2c-1-2.7-1.7-7.3-2.3-13.6s-0.9-14.8-1-25.5
		c2.2-0.9,3.7-2.2,4.5-3.8c0.7-1.6,0.7-3.5-0.1-5.7c-0.6-1.6-1.5-2.8-2.7-3.4c-1.2-0.7-2.5-0.8-4-0.2c-2.5,0.9-4.2,4.1-5.3,9.6
		c-1.1,5.5-1.4,13-0.9,22.5c-0.6,0.2-1.3,0.4-2,0.6c-0.7,0.2-1.6,0.6-2.9,1c-0.6,0.2-1.2,0.4-1.8,0.7c-0.6,0.2-1.2,0.5-1.9,0.8
		c-0.1-3.4-0.4-7.2-0.8-11.4c-0.4-4.3-0.9-9-1.5-14.3c-2.6-0.3-5.2-0.3-7.8,0.1c-2.6,0.4-5.4,1.1-8.3,2.1c-4,1.4-6.9,3.4-8.8,5.9
		c-1.9,2.5-2.3,5-1.4,7.6c0.4,1,0.8,1.7,1.4,2.1s1.2,0.5,1.9,0.2c0.1,0,0.2-0.1,0.3-0.1c0.1-0.1,0.2-0.1,0.3-0.2
		c-0.3-1.5,0-2.8,0.9-4c0.9-1.2,2.4-2.1,4.4-2.9c1.4-0.5,2.9-0.9,4.5-1.2c1.6-0.3,3.3-0.4,5.2-0.5c0.4,3.7,0.7,7.3,0.9,10.8
		c0.2,3.6,0.4,7,0.5,10.5c-5.8,3.3-9.9,7.7-12.3,13.2c-2.5,5.5-2.8,10.7-1,15.8c1.1,3.2,2.9,5.4,5.2,6.7c2.3,1.2,4.9,1.3,7.8,0.3
		c4.1-1.5,6.8-4.8,8.3-10c1.4-5.2,1.7-13,0.9-23.3c0.2-0.1,0.6-0.3,0.9-0.5c1.8-0.9,2.9-1.3,3.3-1.5c0.7-0.3,2-0.7,3.7-1.2
		c0.2-0.1,0.4-0.1,0.5-0.1c0.5,4.6,1,8.3,1.4,11.1c0.5,2.8,1,4.9,1.5,6.3c1.3,3.7,3.3,5.9,5.9,6.8c2.3,0.8,5.3,0.6,9.2-0.6l0,0.2
		c0.6-0.3,1.2-0.5,1.8-0.8l0.7-0.2l0-0.1c1.5-0.8,3-1.6,4.4-2.6C171.2,195,173.2,193.2,175.2,191.1z M171.4,166.9
		c0.7-3.1,2-5,4.1-5.7c1-0.4,1.8-0.3,2.6,0c0.7,0.4,1.3,1.1,1.7,2.2c0.8,2.2,0.9,5.1,0.2,8.7c-0.7,3.6-2,6.8-3.9,9.4
		c-0.9-0.5-1.6-1.2-2.2-2c-0.6-0.8-1.1-1.8-1.6-3.1C171,173.2,170.7,170,171.4,166.9z M127.3,199c-0.6,3.4-1.8,5.5-3.6,6.1
		c-0.8,0.3-1.6,0.2-2.3-0.2c-0.7-0.4-1.3-1.2-1.6-2.3c-0.9-2.4-0.6-5.3,0.8-8.6c1.4-3.3,3.7-6.3,6.9-9.1
		C127.9,190.8,127.9,195.5,127.3,199z"/>
	<path fill="#E50112" d="M198.6,154.6c-1.6,5.4-2.6,10.6-2.9,15.5c-0.3,4.9,0,9.1,1.1,12.5c0.9,3.1,2.2,5.3,3.9,6.5
		c1.7,1.3,3.7,1.5,6,0.9c1.9-0.6,3.6-1.7,5.1-3.4c1.5-1.7,2.7-3.9,3.5-6.5c2.3,0.4,4.5,0.6,6.5,0.5s4.1-0.4,6.1-1
		c4.7-1.4,8.1-4.2,10.3-8.5c2.2-4.3,2.6-8.8,1.2-13.6c-0.7-2.2-1.7-4.3-3.2-6.2c-1.5-1.9-3.3-3.7-5.7-5.4c3.8-3.2,6.4-6.6,7.9-10.3
		c1.4-3.7,1.5-7.4,0.4-11.2c-1.1-3.5-2.9-6.1-5.5-7.8c-2.6-1.6-5.5-2-8.6-1c-1.6,0.5-3.2,1.3-4.7,2.3c-1.5,1.1-2.8,2.4-4,3.9
		c0-0.3-0.1-0.7-0.1-1c0-0.3-0.1-0.5-0.2-0.8c-0.1-0.4-0.4-0.8-0.8-1c-0.4-0.2-0.7-0.3-1.1-0.2c-0.9,0.3-1.9,0.8-3.1,1.7
		c-1.2,0.9-2,1.6-2.4,2.3c-0.6,1-0.4,3.7,0.5,8c0.2,1.2,0.4,2.1,0.5,2.8c-2,2.2-4,5.2-5.9,8.9C201.5,146.2,199.9,150.3,198.6,154.6z
		 M219.9,125.2c1.1-0.9,2.2-1.5,3.4-1.9c1.7-0.5,3.2-0.4,4.4,0.4s2.1,2.1,2.7,4c0.6,2,0.5,4.4-0.3,7.1c-0.8,2.7-2.2,5.5-4.3,8.3
		c-1.3-0.5-2.6-0.8-3.8-0.9c-1.3-0.1-2.5,0-3.8,0.2c-0.1-2.4-0.3-4.8-0.5-7.1c-0.2-2.3-0.5-4.5-0.8-6.7
		C217.8,127.2,218.9,126.1,219.9,125.2z M218.3,163.6c0.3-3.6,0.3-7.4,0.2-11.7c0.7-0.1,1.3-0.3,1.9-0.4c0.6-0.1,1.1-0.3,1.6-0.4
		c0.4-0.1,1-0.3,1.5-0.5c0.6-0.2,1.2-0.5,1.8-0.8c1.2,0.9,2.1,2,2.9,3.1c0.7,1.1,1.3,2.4,1.7,3.8c1.1,3.6,1,7-0.3,10
		c-1.3,3-3.5,5-6.5,5.9c-0.8,0.2-1.7,0.4-2.7,0.5c-1,0.1-2.2,0.2-3.6,0.2C217.5,170.3,218,167.1,218.3,163.6z M209.9,143.4
		c0.5,11.3,0.4,20.3-0.4,26.7c-0.7,6.5-2,10-3.9,10.5c-0.6,0.2-1,0.1-1.4-0.1c-0.4-0.2-0.7-0.7-0.9-1.5c-0.4-1.3-0.6-3-0.6-5.2
		c0-2.2,0.1-4.9,0.5-8c0.6-4.9,1.4-9.1,2.5-12.8C206.8,149.5,208.2,146.3,209.9,143.4z"/>
	<path fill="#E50112" d="M252.7,171.1c2,0.9,4.2,1.5,6.6,1.5c2.4,0.1,5.1-0.2,8.1-1l1.1-0.3l0-1.2c0.3-0.2,0.5-0.4,0.8-0.6
		c1.6-1.3,3-3.1,4.2-5.2c0.7,2,2,3.3,3.9,3.8c1.9,0.6,4.5,0.5,7.9-0.1l1.4-0.3l0.4-5.9c-2.3,0.3-3.9,0.3-4.7,0
		c-0.8-0.3-1.4-1-1.6-2.2c-0.2-0.9-0.1-2.8,0.3-5.9l0.1-0.5l1.4-12.7c0.1-1.4,0.4-3.4,0.8-6c0.4-2.6,0.6-4.3,0.4-5.1
		c-0.1-0.6-0.5-1-1.1-1.2c-0.6-0.2-1.4-0.2-2.4,0c-4.4,0.9-6.6,3.5-6.5,7.8c0,2,0,3.7-0.1,5c-0.4,8.4-1.3,14.5-2.8,18.4
		c-1.4,3.7-3.6,6-6.4,6.8c-0.5,0-0.9,0-1.4,0c-1.4-0.1-2.8-0.5-4.2-1.3c3.1-3.8,5.3-7.9,6.7-12.3c1.4-4.3,1.6-8.1,0.9-11.2
		c-0.7-2.9-2.1-4.9-4.1-6.2c-2-1.3-4.4-1.5-7.2-0.9c-4.9,1.2-8.7,4.2-11.4,9.1c-2.6,4.8-3.3,9.9-2,15.2c0.6,2.3,1.3,4.2,2.2,5.8
		c0.9,1.6,2,2.9,3.4,4c-1.3,1-2.7,1.9-4.1,2.6c-1.5,0.8-3.1,1.4-4.9,2l-0.3,5.8c2.6-0.8,5.1-1.8,7.5-3.1
		C248.1,174.5,250.4,172.9,252.7,171.1z M251.7,146.6c1.1-3,2.7-4.8,4.9-5.3c1.1-0.3,1.9-0.2,2.6,0.3c0.7,0.5,1.2,1.3,1.5,2.4
		c0.6,2.3,0.3,5.2-0.8,8.7c-1.1,3.5-2.8,6.5-5.1,9c-0.9-0.6-1.5-1.3-2.1-2.2c-0.5-0.9-0.9-2-1.3-3.2
		C250.5,152.8,250.6,149.6,251.7,146.6z"/>
	<path fill="#E50112" d="M276.2,116.9c0.9,0.7,2.1,0.8,3.6,0.6c1.7-0.3,3-1.2,4-2.7c0.9-1.5,1.2-3.1,0.9-5c-0.3-1.4-0.9-2.4-1.9-3.2
		c-1-0.7-2.2-1-3.6-0.7c-1.6,0.3-2.9,1.2-3.9,2.7c-0.9,1.5-1.2,3.2-0.9,5.1C274.7,115.2,275.3,116.3,276.2,116.9z"/>
	<path fill="#E50112" d="M405.5,160.8c1.8-0.4,3.6-1,5.3-1.8c0.9,1,2,1.7,3.4,2.2c1.3,0.5,2.9,0.8,4.7,0.8c2.5,0.1,4.8-0.6,7-1.9
		c2.2-1.3,4.3-3.4,6.2-6.1c1.8-2.6,3.3-5.4,4.3-8.5c1.1-3.1,1.6-6.2,1.7-9.2c0.1-2.4-0.4-4.3-1.3-5.7c-0.9-1.4-2.2-2.1-3.9-2.1
		c-1.6,0-2.9,0.5-3.9,1.6c-1,1.1-1.6,2.6-1.6,4.4c0,1.2,0.3,2.2,0.9,2.9c0.6,0.7,1.6,1.2,2.9,1.4c-0.2,4.6-1.6,8.7-4.2,12.4
		c-2.6,3.6-5.2,5.4-7.8,5.3c-1.1,0-1.9-0.4-2.5-1.2c-0.6-0.8-0.9-1.9-0.9-3.2c0.1-2.9,0.8-6,2.3-9.2c1.5-3.3,3.6-6.5,6.3-9.6
		c0.7-0.8,1.7-1.7,2.9-2.9c1.3-1.2,1.9-2,1.9-2.6c0-0.4-0.1-0.7-0.5-1c-0.3-0.2-0.7-0.4-1.3-0.4c-2.1,0-4.4,0.5-6.9,1.7
		s-4.6,2.8-6.4,4.8c-2.1,2.2-3.7,4.8-4.9,7.8c-1.2,2.9-1.9,5.8-1.9,8.5c0,1,0,2,0.2,2.9c0.1,0.9,0.3,1.8,0.6,2.6
		c-0.9,0.5-1.8,0.8-2.9,1.1l0.1-0.6c-1.9,0-3.1-0.3-3.7-0.8c-0.6-0.5-1-1.4-1-2.7c0-1.4,0.2-3.2,0.7-5.5c0.5-2.3,1.3-5,2.4-8.4
		c0.8-2.4,1.7-4.9,2.8-7.6c1.1-2.7,1.6-4.2,1.6-4.4c0-0.8-0.6-1.4-1.8-2c-1.2-0.5-2.6-0.8-4.2-0.8c-1.7,0-3,1.9-3.9,5.6
		c-0.9,3.6-1.8,6.7-2.8,9.4c-1.8,4.9-3.7,8.8-5.8,11.7c-2.1,2.9-3.9,4.4-5.5,4.4c-0.7,0-1.2-0.2-1.6-0.6c-0.4-0.4-0.6-1-0.6-1.8
		c0-1,0.3-2.5,0.8-4.5c0.6-2.1,1.6-5.1,3-9c0.9-2.4,1.8-4.9,2.9-7.6c1.1-2.6,1.6-4.1,1.6-4.4c0-0.8-0.8-1.4-2.4-2.1
		c-1.6-0.6-3.2-0.9-4.8-0.9c-1.2,0-2.4,2.1-3.6,6.3c-0.4,1.3-0.7,2.3-0.9,3c-0.2,0.8-0.6,2-1,3.5c-2.4,8-3.5,13.3-3.5,15.9
		c0,0.4,0,0.7,0,0.9c0,0.2,0,0.4,0.1,0.6c-1.3,0.8-2.5,1.4-3.8,1.9c-0.7,0.2-1.3,0.4-2,0.5c-1-0.1-1.7-0.2-2.2-0.4
		c-0.8-0.4-1.2-1.1-1.3-2.1c-0.1-0.6,0.1-1.7,0.3-3.2c0.3-1.5,0.7-3.1,1.2-4.9l0.8-2.7c2.5-8.5,3.6-13.7,3.5-15.5
		c-0.1-1.7-0.7-3-1.7-3.8c-1-0.9-2.4-1.2-4.1-1.1c-3.3,0.3-6.6,2.2-9.8,5.8c-3.2,3.6-6.6,9.1-10.2,16.5l10.3-36
		c0.2-0.6,0.4-1.5,0.8-2.6c0.8-2.8,1.2-4.5,1.1-5.3c-0.1-0.7-0.5-1.2-1.3-1.4s-2.3-0.3-4.4-0.1c-3.1,0.3-5.1,3-6,8.1
		c-0.5,3-1,5.5-1.4,7.5l-6.2,28.2c-1.3,5.8-2.7,9.9-4.3,12.3c-0.1,0.2-0.3,0.4-0.4,0.6l-3.4,0.3c0.2-1.8,0.3-3.3,0.4-4.7
		c0-1.4,0-2.5-0.2-3.4c-0.5-3-1.6-5.6-3.1-8c-1.6-2.3-3.7-4.3-6.2-5.8c4.1-3,7-6.4,8.9-10.1c1.9-3.7,2.5-7.4,1.9-11
		c-0.8-4.5-2.9-7.8-6.4-9.9c-3.5-2.1-7.9-2.8-13.1-1.9c-4.7,0.8-8.5,2.7-11.3,5.8c-2.8,3.1-3.9,6.4-3.3,9.9c0.3,1.5,0.9,2.7,1.9,3.5
		c1,0.8,2.2,1.1,3.6,0.9c0.6-0.1,1.2-0.3,1.6-0.6c0.4-0.3,0.9-0.6,1.2-1.1c-0.2-0.5-0.5-1-0.6-1.5c-0.2-0.5-0.3-1-0.5-1.6
		c-0.4-2.1,0.1-3.9,1.4-5.4c1.3-1.5,3.1-2.5,5.5-2.9c2.7-0.5,5-0.1,6.7,1.1c1.7,1.2,2.8,3.1,3.3,5.7c0.5,2.7,0.1,5.5-1.2,8.3
		s-3.4,5.6-6.4,8.4c-1-0.2-2.1-0.4-3-0.4c-1,0-1.9,0-2.9,0.2c-2.3,0.4-4,1.2-5.2,2.4c-1.2,1.2-1.7,2.6-1.4,4.2
		c0.2,1.3,0.9,2.2,2.1,2.8c1.2,0.5,2.7,0.6,4.5,0.3c1.1-0.2,2.2-0.5,3.5-1c1.3-0.5,2.6-1.1,4.1-1.9c1,1.3,1.8,2.7,2.5,4.2
		c0.6,1.5,1.1,3,1.4,4.7c0.2,1.5,0.4,3,0.3,4.5c0,1.5-0.2,3.1-0.5,4.7c-1.3,0.1-2.6,0.2-3.8,0.3c-1.2,0.1-2.4,0.3-3.5,0.5
		c-7.1,1.2-12.8,3.8-16.9,7.7c-4.2,3.9-5.9,8.1-5.1,12.5c0.5,2.9,2,5.1,4.6,6.4c2.6,1.3,5.7,1.7,9.6,1.1c5.2-0.9,10-3.3,14.2-7.3
		c3.5-3.3,6.4-7.4,8.7-12.4c1.6-0.3,3.1-0.8,4.4-1.5c1.5-0.8,2.8-1.9,3.9-3.3c-0.3,0.7-0.5,1.3-0.6,1.8c-0.1,0.5-0.2,0.9-0.1,1.1
		c0,0.5,0.3,0.9,0.7,1.1c0.4,0.2,1.2,0.2,2.3,0.1c3.3-0.3,5.4-2.1,6.2-5.4c0.4-1.8,0.9-3.3,1.3-4.6c2-6.2,4.5-11.6,7.5-16.1
		c3-4.5,5.3-6.8,6.8-6.9c0.5,0,0.8,0,1.1,0.3c0.2,0.2,0.4,0.5,0.4,1c0,0.6-0.5,2.6-1.6,5.9l-0.3,0.8c-1.3,4-2.2,7.3-2.8,9.9
		c-0.6,2.6-0.8,4.5-0.7,5.7c0.2,2.6,1.4,4.5,3.6,5.6c2.2,1.1,5.4,1.4,9.9,1.1l0.9-0.1l0.2-1.3c0.2-0.1,0.4-0.1,0.6-0.2
		c1.6-0.6,3-1.4,4.4-2.5c0.5,1.1,1.2,2,2.2,2.5c1,0.6,2.3,0.8,3.8,0.8c2.3,0,4.5-1,6.6-3c2.1-1.9,4.8-5.8,8.3-11.6
		c-0.6,2.1-1,3.8-1.2,5.1c-0.2,1.3-0.3,2.4-0.3,3.3c0,2.2,0.7,3.7,2.1,4.5c0.8,0.5,2.1,0.9,3.8,1l-0.3,0.8
		C401.7,161.4,403.7,161.2,405.5,160.8z M311.1,173.4c-2.8,3-5.7,4.8-8.7,5.3c-1.4,0.2-2.7,0.1-3.6-0.4c-1-0.5-1.6-1.4-1.8-2.5
		c-0.5-2.7,0.8-5.4,3.7-8c2.9-2.6,6.7-4.3,11.3-5.1c0.7-0.1,1.5-0.2,2.4-0.3c0.9-0.1,2-0.2,3.1-0.2
		C316,166.7,313.9,170.4,311.1,173.4z"/>
	<path fill="#E50112" d="M497.2,173.5c1.9-0.1,3.7-0.4,5.6-0.9c0.7,1.1,1.7,2.1,3,2.8c1.2,0.7,2.8,1.3,4.6,1.6
		c2.5,0.5,4.9,0.2,7.4-0.7s4.9-2.7,7.3-5.2c2.3-2.3,4.2-5,5.8-7.9c1.6-3,2.7-6,3.3-9.1c0.5-2.5,0.4-4.5-0.3-6s-1.8-2.5-3.5-2.8
		c-1.5-0.3-2.9,0-4.2,1c-1.2,1-2,2.4-2.4,4.2c-0.2,1.2-0.1,2.3,0.4,3.2c0.5,0.9,1.4,1.5,2.6,2c-1,4.7-3.1,8.7-6.4,11.9
		c-3.2,3.2-6.1,4.6-8.7,4.1c-1.1-0.2-1.9-0.8-2.3-1.7c-0.5-0.9-0.6-2.1-0.3-3.4c0.6-2.9,1.9-5.9,3.9-9c2.1-3.1,4.7-6,8-8.7
		c0.8-0.7,2-1.5,3.4-2.5c1.5-1,2.3-1.7,2.4-2.3c0.1-0.4,0-0.8-0.3-1.1c-0.3-0.3-0.7-0.5-1.2-0.6c-2.1-0.4-4.5-0.2-7.2,0.6
		c-2.7,0.8-5.1,2.1-7.3,3.8c-2.5,1.9-4.6,4.3-6.3,7.1c-1.7,2.8-2.9,5.6-3.4,8.4c-0.2,1-0.3,2-0.4,3c0,1,0,1.9,0.2,2.8
		c-0.9,0.3-1.8,0.5-2.8,0.5l0.1-0.3c-2.1-0.4-3.5-0.9-4.2-1.5s-0.9-1.5-0.8-2.8c0.2-1.4,1.2-4.2,3-8.2c1.8-4,4.3-8.9,7.3-14.7
		c1.8-3.4,3.6-6.7,5.5-10c1.9-3.3,2.9-5,2.9-5.2c0.1-0.8-0.3-1.6-1.3-2.3c-1-0.7-2.1-1.2-3.4-1.4c-0.9-0.1-1.7,0-2.2,0.3
		c-0.5,0.3-1.1,1-1.7,2.1c-0.2,0.3-0.4,0.7-0.7,1.3c-2.4,4.7-4.8,9-7.3,12.7c-5.1,7.8-10,13.8-14.7,18c-4.7,4.2-8.6,6-11.7,5.6
		c-1.5-0.2-2.6-0.9-3.3-2c-0.7-1.2-0.9-2.7-0.7-4.6c0.2-1.8,0.9-3.8,2-5.9c1.1-2.1,2.7-4.5,4.9-7.3c3-3.8,6.2-7.2,9.4-10.2
		c3.2-3,6.6-5.5,10-7.5c3.1-1.9,6-3.3,8.6-4.2c2.6-0.9,5.1-1.5,7.6-1.7c0.5,0,1.1,0,1.9,0.1c1.3,0.1,2-0.2,2.1-0.8
		c0.1-0.9-0.2-2.1-1-3.5c-0.8-1.5-1.6-2.3-2.5-2.4c-2.5-0.3-6.4,0.4-12,2.1c-5.5,1.7-10.6,4.1-15.2,7.1c-7.1,4.5-12.9,9.9-17.6,16.2
		c-4.7,6.3-7.4,12.4-8.1,18.2c-0.5,3.7,0.1,6.8,1.7,9.3c1.6,2.5,3.9,3.9,7,4.3c3.9,0.5,8-0.7,12.4-3.5c4.4-2.8,9-7.3,13.9-13.4
		l-0.2,0.5c-3,6.3-4.6,10.3-4.9,12.2c-0.3,2.4,0.3,4.2,1.9,5.4c1,0.8,2.6,1.5,4.6,2l-0.3,0.6C493.3,173.5,495.3,173.6,497.2,173.5z"
		/>
	<path fill="#E50112" d="M578.4,181.2c-0.1,0.2-0.2,0.4-0.2,0.4c-0.1,0.4,0,0.8,0.4,1.2c0.4,0.3,1,0.6,1.8,0.9c1.8,0.5,3,0.1,3.8-1
		l0.1-0.1l4.6-7.6c0.1-0.2,0.3-0.6,0.6-1c0.5-0.7,0.7-1.2,0.8-1.4c0.4-1.3-1.4-2.9-5.4-4.9c-1-0.5-1.9-0.9-2.5-1.2
		c2-3,4.3-6.4,6.9-10.3c2.6-3.9,5.7-8.6,9.4-14.3c-3.6-3-7.2-5.5-10.8-7.5c-3.6-2-7.2-3.5-10.7-4.5c-4.2-1.2-7.8-1.2-10.8,0
		s-4.9,3.4-5.8,6.6c-0.4,1.3-0.3,2.6,0.1,3.6c0.5,1.1,1.2,1.8,2.3,2.1c0.4,0.1,0.7,0.1,1.1,0c0.4-0.1,0.7-0.3,1-0.6
		c0-0.1,0.1-0.3,0.1-0.6c0.1-0.8,0.2-1.3,0.3-1.4c0.4-1.5,1.3-2.4,2.8-2.8c1.5-0.4,3.4-0.3,5.7,0.3c1.7,0.5,3.5,1.3,5.5,2.4
		c2,1.1,4.2,2.6,6.8,4.4L573.4,163c-4.5-1.2-7.8-1.9-9.8-1.9c-2-0.1-3.2,0.4-3.7,1.4l-2.1,4.3l-0.1,0.3c-0.1,0.2-0.1,0.5,0,0.7
		c0.1,0.2,0.2,0.3,0.3,0.4c0.1,0,1.4,0.1,3.8,0.2c2.4,0.1,4.7,0.4,7,1c-5.8,9.2-10.8,15.4-15.1,18.6c-4.3,3.2-8.8,4.1-13.4,2.8
		c-2.3-0.6-3.9-1.7-4.9-3.3c-1-1.6-1.4-3.5-1.1-5.9l-0.2,0c-1.4-0.4-2.7-0.2-3.9,0.6c-1.2,0.8-2,1.9-2.4,3.4
		c-0.8,2.8-0.2,5.5,1.8,8.1c2,2.6,4.9,4.4,8.8,5.5c6.7,1.9,13.2,0.8,19.3-3.2c6.1-4.1,12.8-11.7,20.1-23c0.9,0.4,1.7,0.7,2.3,1.1
		c0.7,0.3,1.3,0.7,1.8,1.1l-3.5,6.2C578.5,181,578.4,181.1,578.4,181.2z"/>
	<path fill="#E50112" d="M584,199.7c1.8,0,3.2-0.6,4.4-1.7s1.7-2.7,1.7-4.5c0-1.6-0.5-2.9-1.4-3.8c-0.9-1-2.1-1.4-3.6-1.4
		c-2,0-3.5,0.6-4.6,1.7c-1.1,1.1-1.7,2.6-1.7,4.6c0,1.7,0.5,3,1.4,3.9C581,199.3,582.3,199.7,584,199.7z"/>
	<path fill="#E50112" d="M627.3,187.8c0.1,0.2,0.4,0.3,0.8,0.5c1.1,0.4,2.2,0.3,3.2-0.3s1.9-1.5,2.3-2.8c0.7-1.9,0.5-3.8-0.6-5.5
		c-1.1-1.7-2.9-3.1-5.4-4c-5-1.8-10.2-1.4-15.6,1.2c-5.4,2.7-9.1,6.7-11.1,12.2c-0.6,1.7-1,3.2-1.2,4.6c-0.2,1.4-0.2,2.7,0.1,4
		c-1.4,0.3-2.9,0.3-4.3,0.2c-1.5-0.1-3-0.4-4.5-0.9l-3.4,4.5c2.6,0.9,5.1,1.4,7.5,1.5s4.7-0.1,6.8-0.7c1.2,2,2.9,3.8,5.2,5.4
		c2.3,1.7,5.2,3.1,8.6,4.4c0,0,0.1,0,0.2,0.1c0.5,0.1,0.9,0.2,1.3,0.3l1.9-2.6c-0.1,0.4-0.1,0.8-0.1,1.2c0,1.8,0.5,3.1,1.5,4.1
		c1,1,2.3,1.4,4.1,1.4c1.9,0,3.4-0.6,4.6-1.8s1.8-2.8,1.8-4.7c0-1.7-0.5-3-1.4-4c-1-1-2.2-1.5-3.8-1.5c-2.1,0-3.7,0.6-4.8,1.8
		c-0.4,0.4-0.7,0.8-0.9,1.3c-4.4-1.8-7.5-3.9-9-6.3c-1.6-2.5-1.8-5.5-0.5-9.1c1.3-3.6,3.5-6.4,6.5-8.3c3-2,5.8-2.5,8.3-1.6
		c1.1,0.4,1.9,1,2.2,1.7c0.3,0.7,0.3,1.7-0.1,2.8C627.2,187.3,627.2,187.7,627.3,187.8z"/>
	<path fill="#E50112" d="M75.1,249.5c4.4-2.1,9-4.2,13.8-6.2c-2-36.5-2.7-68.7-2.9-92.6c31.9-16,78.1-36.8,131.7-53.8
		c58.9-18.6,112.6-28,159.6-28c47.1,0,100.8,9.4,159.6,28c53.7,16.9,99.8,37.7,131.7,53.8c-0.2,25.9-1,61.5-3.4,101.8
		c1.9,1.2,3.7,2.4,5.3,3.6c3,2.2,7.6,5.6,12.9,9.6c3-44.4,4.3-87.8,4.3-126.6C607.1,97.2,485.1,50,377.4,50S147.6,97.2,67,139.1
		c0,34.7,1,73.2,3.4,112.7l2.3-1.2L75.1,249.5z"/>
</g>
<g>
</g>
<g>
</g>
<g>
</g>
<g>
</g>
<g>
</g>
<g>
</g>
<g>
</g>
<g>
</g>
<g>
</g>
<g>
</g>
<g>
</g>
</svg>
