<!-- Created by @FCLOGO 2022-02-26 15:06:08 . https://fclogo.top/ -->
<!-- FOR PERSONAL USE ONLY NOT FOR COMMERCIAL USE -->
<svg version="1.1" xmlns="http://www.w3.org/2000/svg" xmlns:xlink="http://www.w3.org/1999/xlink" x="0px" y="0px"
	 viewBox="0 0 800 800" enable-background="new 0 0 800 800" xml:space="preserve">
<g>
	<path fill="#36774D" d="M575,182.6H225L50,400l175,217.4h350L750,400L575,182.6z M567.6,601.9H232.4L69.9,400l162.5-201.9h335.1
		L730.1,400L567.6,601.9z"/>
	<path fill="#36774D" d="M561.6,210.5H238.4L85.8,400l152.5,189.5h323.3L714.2,400L561.6,210.5z M559.7,585.3H240.3L91.2,400
		l149.2-185.3h319.3L708.8,400L559.7,585.3z"/>
	<path fill="#36774D" d="M453.3,402.3c9.7-29.2,25-53.5,38.1-70.6h-87.1c0,0,0,1.8,0,62.5c0,54-48.2,99.4-101.1,99.4s-80,0-80,0
		v64.8H389c35.5-39.9,44.6-78.2,53.5-115.5C445.6,429.6,448.9,415.8,453.3,402.3z"/>
	<path fill="#36774D" d="M621.3,341.4l-54.6-2.9c0.8-0.9,1.5-1.8,2.3-2.7l58.6-2.6l-54.8-1.5H514c-13.2,15.5-32.9,42.6-44,76.1
		c-4.2,12.7-7.3,25.6-10.5,39.2c-8.1,34.3-17.1,72.3-47.7,111.4h61l55.6-0.6l-52.5-3.5c0.6-0.8,1.2-1.6,1.9-2.6l56.1-3l-52-2.7
		c0.5-0.8,1-1.5,1.6-2.4l57.9-2.9l-54.1-3c0.4-0.6,0.8-1.3,1.2-1.9l59.6-2.3l-56.4-2.9c0.5-0.8,0.9-1.6,1.4-2.4l58.9-3.3l-55.1-3.4
		c0.4-0.7,0.8-1.5,1.1-2.2l57.9-4l-54.6-2.7c0.3-0.6,0.6-1.2,0.9-1.8l57.4-3.1l-54.8-2.9c0.3-0.7,0.6-1.4,0.8-2l57.8-2.9l-55.7-2.7
		c0.3-0.9,0.6-1.8,0.9-2.6l57.9-3.4l-56-2.2c0.3-0.9,0.5-1.7,0.8-2.6l58.1-3.9l-56.3-2.3c0.2-0.8,0.5-1.7,0.7-2.5l59.2-3.2l-57.9-2
		c0.2-0.9,0.4-1.8,0.7-2.7l58.7-3.6l-57.4-1.9c0.2-0.9,0.4-1.9,0.6-2.8l60.1-4.2l-58.7-2c0.2-0.9,0.4-1.7,0.6-2.6l58.3-3.2l-57-2.4
		c0.2-0.9,0.4-1.8,0.6-2.7l59.7-2.8l-58.3-2.5c0.3-1,0.5-2,0.8-3l57.6-2.9l-56.1-2.5c0.1-0.4,0.2-0.8,0.4-1.2
		c0.2-0.6,0.3-1.2,0.5-1.8l59.3-3.6l-57.8-1.5c0.3-0.9,0.5-1.7,0.8-2.6l57.4-3.7l-55.5-2.5c0.3-0.9,0.5-1.7,0.8-2.6l58.4-3.2
		l-56.7-2c0.3-1,0.7-2,1-3l57.7-4.1l-55.6-2c0.3-0.8,0.5-1.5,0.8-2.3l59-3.7l-56.8-2.1c0.3-0.8,0.6-1.6,0.9-2.4l58.3-3.7l-55.9-2.1
		c0.4-0.9,0.7-1.7,1.1-2.6l59.4-3.4l-56.7-2.6c0.4-0.9,0.9-1.9,1.3-2.8l59-3.9l-56.7-0.6c0.5-0.9,0.9-1.8,1.4-2.6l59.6-4.7
		l-55.7-2.1c0.5-0.8,1-1.6,1.4-2.4l61.1-2.9l-57-3.3c0.6-0.9,1.2-1.7,1.8-2.6L621.3,341.4z"/>
	<path fill="#36774D" d="M242.2,369.3c-0.4-0.4-0.8-0.9-1.1-1.4c-2.3,4.3-5.1,10.2-7.4,16.4c11,8.3,19.3,22.3,21.9,38.9l11.2-0.4
		c-0.7-3.1-1.1-6.2-1.1-9.5c0-13,6.1-24.6,15.7-32.3l-5.3-7.7C263.6,379.2,249.9,378,242.2,369.3z"/>
	<path fill="#36774D" d="M318.3,336.3c-0.2-1.5-0.3-3-0.3-4.5l-18.3,0.3c2.7,10.9-2.1,24.5-13.1,34.3c-1.4,1.2-2.8,2.3-4.3,3.4
		l5.1,7.4c6.2-3.4,13.3-5.3,20.8-5.3c8.6,0,16.6,2.5,23.3,6.8l5.7-11.1C327.1,360.6,319.8,349.5,318.3,336.3z"/>
	<path fill="#36774D" d="M373.2,373.5c-2,0.5-4,0.9-6.2,1.2c-8.3,1-16.4-0.4-23.5-3.7l-6.2,12c8.3,7.6,13.4,18.4,13.4,30.3
		c0,2.2-0.2,4.4-0.5,6.5l11.8,2.4c2.9-10.8,8.2-19.8,14.4-25.4C375.3,386.2,374.1,378.7,373.2,373.5z"/>
	<path fill="#36774D" d="M302.8,478.5c47.5,0,86.2-38.7,86.2-86.2S350.3,306,302.8,306s-86.2,38.7-86.2,86.2
		S255.2,478.5,302.8,478.5z M277.8,472.6c7.2-4.8,17.5-8.2,29.2-9.1v-8.6c-16.9-0.5-31.4-10.6-37.8-24.9l-12.9,0.4
		c0.5,10.3-1.3,20.1-4.9,28.5c-1.5-1.2-3-2.4-4.4-3.7c1.1-13.5,2.5-24.5,3-27.6c1.2,0,3.3,0.1,6.3,0.1c5.6,0,13.8-0.2,23-0.8
		c2,2.3,12,13.3,30.5,19.2l0.2,19.7c-11.6,3.1-20.2,5.9-26.5,8.4C281.7,473.7,279.7,473.2,277.8,472.6z M308.7,383.2
		c-6,0-12.8,0.7-19.5,2.9c-1.6-2.9-7.5-13.5-14.4-23.3c1.4-3.1,8.6-19.6,16-32.9H323c2.1,2.5,15,17.6,19.1,31
		c-0.8,2.2-5.7,15.5-12.2,25.2C327.5,385.4,319.1,383.2,308.7,383.2z M339.2,421.5c-15.9,15.8-26.4,21.7-28.4,22.7
		c-18.2-5.8-28.3-16.8-30-18.7c1-19.9,7.4-34.8,8.6-37.3c18.3-6,37.3-0.9,40.3,0C335.1,399,338.6,418.1,339.2,421.5z M287.5,387.3
		c-1.3,2.8-7.7,17.7-8.7,37.5c-14.5,1-26.7,0.8-29.2,0.7c-9-10.9-18.5-36.7-19.7-39.8c2.7-9.5,10.1-22.3,11.6-25
		c16.7-0.5,29.1,2.4,31.4,3C280.1,373.9,286.2,385,287.5,387.3z M302.8,476.4c-5.3,0-10.4-0.5-15.4-1.4c5.9-2.2,13.7-4.6,23.8-7.3
		l17.8,4.6C320.7,474.9,311.9,476.4,302.8,476.4z M361.6,452.3c-1.9-6.5-2.4-14.5-1-23l-12.1-2.5c-5.1,14.5-18.2,25.4-34.2,27.7v8.8
		c9.4,0.1,17.9,1.9,24.7,4.9c-2.1,1-4.3,2-6.6,2.8l-20.3-5.2l-0.2-19.8c2.5-1.3,12.8-7.2,28.6-22.9c9.7,2.8,21.1,4.1,24.4,4.5
		l0.3,21.1C364.1,449.9,362.8,451.1,361.6,452.3z M341.2,421.1c-0.7-3.8-4.1-22.5-9.6-33.7c6.4-9.6,11.3-22.6,12.4-25.6
		c3.2-0.4,18-2,29.5,0c1,3.5,5.7,21.6,6.4,40.6c-1.1,2-8.5,15.6-14.5,23.1C362.9,425.2,351.2,424,341.2,421.1z M367.3,446.2
		l-0.3-19.3c6.1-7.5,13.3-20.8,14.7-23.4l4.6-0.9C384.2,419.1,377.4,434.1,367.3,446.2z M383.7,369.2c-1.2,0.7-2.3,1.3-3.6,1.9
		c0.9,4.9,2,11.7,3.1,21.3c1.2-0.6,2.4-1,3.7-1.3c0,0.4,0,0.8,0,1.2c0,2.8-0.1,5.5-0.4,8.3l-4.5,0.9c-0.8-19.6-5.9-37.9-6.6-40.5
		l2.2-7C380.2,358.8,382.2,363.9,383.7,369.2z M376.3,351.4l-2.7,8.3c-11.7-2-26-0.4-29.7,0c-4.4-13.7-16.8-28.3-19.3-31.2
		c0.8-1.9,4.2-8.3,13.5-12.7C354.3,323.4,367.7,335.9,376.3,351.4z M265.9,316.6c11-3.5,22.1-1.6,28.9,6c0.6,0.7,1.2,1.5,1.8,2.3
		l21.9-0.3c0.7-4.9,2.3-9.6,4.6-13.9c4.4,1.1,8.6,2.5,12.7,4.2c-8.7,4.6-12,10.8-13,12.9h-32.2c-5.1-5-16.3-8.7-25-11
		C265.7,316.7,265.8,316.7,265.9,316.6z M240.6,338c1.3-2.5,2.9-4.9,4.8-7.2c5.2-4.9,11.1-9.1,17.4-12.6c8.6,2.1,20.8,5.8,26.1,10.7
		c-7.2,13.1-14.2,29-15.9,32.7c-3.2-0.8-15.4-3.3-31.2-2.9C240.5,353.8,240.4,345.5,240.6,338z M219.9,377.5c2.6,0.7,5.1,1.7,7.5,3
		c3.3-8.8,7.5-16.4,9.8-20.5c-1.3-5.2-0.9-11.1,1.1-16.8c0,6.3,0.4,12.5,1.5,16.6c-1.4,2.4-9,15.5-11.9,25.5l-9.4,4.7
		C218.8,385.6,219.2,381.5,219.9,377.5z M218.6,392.2l9.7-4.9c2,5.4,10.9,28.9,19.7,39.6c-0.3,2.3-1.8,13-2.9,26.6
		C228.8,438.1,218.6,416.4,218.6,392.2C218.6,392.2,218.6,392.2,218.6,392.2z"/>
	<path fill="#36774D" d="M335.3,269.2c-2.3,0.2-4.9,0.6-7.7,1.4c-0.8,0.2-1.9,0.3-3.6,0.3h-1.3c-0.9,0-1.6,0.1-2,0.4
		c-0.4,0.3-0.6,0.7-0.6,1.4c0,0.7,0.7,1.9,2.2,3.7c1.5,1.8,3,2.7,4.6,2.7c0.6,0,1.7-0.3,3.2-0.8c1.5-0.5,4.9-1.3,10-2.4
		c5.2-1.1,9.3-1.6,12.4-1.6c6.3,0,14.4,1,24.5,3c0.8,0.2,1.7,0.3,2.7,0.3s1.9-0.2,2.8-0.7c0.8-0.5,1.3-1.2,1.3-2.1
		c0-0.9-1.1-2.3-3.2-4.1c-2.2-1.9-6.4-3.4-12.6-4.7c-0.2,0.6-1,1-2.5,1.2c-1.5,0.2-5.5,0.4-12.1,0.6c3.2-4,5.8-6.9,7.6-8.5
		c1.9-1.6,3.8-2.9,5.7-3.6c1.9-0.8,2.9-1.9,2.9-3.4c0-1.5-1.5-3.1-4.6-4.8c-3-1.7-6.1-2.6-9.3-2.6c-1.9,0-3.3,0.3-4.3,0.8
		c-2.5,1.3-4.6,2.2-6.3,2.7c-1.8,0.5-4.3,0.9-7.7,1c-3.3,0.2-5.5,0.6-6.5,1.2c-1,0.6-2.1,2.1-3.3,4.4c0.9-0.5,2-0.8,3.2-0.8
		c1.8,0,3.5,0.5,5.1,1.6c1.6,1.1,2.9,1.8,4,2.2c1.1,0.4,2.2,0.6,3.3,0.8c1.1,0.1,1.7,0.4,1.7,0.8c0,0.6-1.4,2.3-4.1,5.1
		C338.1,267.7,336.2,269.1,335.3,269.2z"/>
	<path fill="#36774D" d="M298,265.1c0.8,0.3,1.3,1,1.3,1.9c0,0.9-0.3,3.1-1,6.5c-0.6,3.4-1.3,5.5-2,6.4c-0.3,0.3-0.4,0.9-0.4,1.8
		c0,0.9,0.5,2.1,1.5,3.8c1,1.6,2.6,3.2,4.8,4.5c2.2,1.4,3.9,2.1,5.2,2.1c1.3,0,2-0.5,2.3-1.6c0.1-0.6,1-1.9,2.6-3.9
		c1.7-2,3.6-5.6,6-10.9c2.3-5.3,3.5-9,3.5-11c0-0.7-0.3-1.1-1-1.1c-0.8,0-1.5,0.5-2,1.6c-1.4,2.8-4.1,6.4-8.4,10.7
		c-4.2,4.3-6.9,6.5-8.1,6.5c-0.3,0-0.9-0.3-1.8-0.9c-0.8-0.6-1.3-1.2-1.3-1.9c0-0.6,1.2-2.7,3.5-6.3c2.3-3.5,3.9-5.7,4.6-6.5
		c0.8-0.8,1.1-1.9,1.1-3.4c0-1.5-0.4-2.9-1.2-4.2c-0.8-1.3-2.1-2.3-3.9-3.1c-1.8-0.8-3.2-1.8-4.3-3c-1.1-1.3-1.7-2.9-1.8-4.8
		c-0.1-0.5-0.3-0.8-0.7-0.8c-0.4,0-1.3,0.8-2.7,2.3c-1.4,1.5-2.2,3.2-2.2,4.9c0,1.8,0.4,3.7,1.1,5.7
		C293.7,262.5,295.4,264.1,298,265.1z"/>
	<path fill="#36774D" d="M304.8,246.1c2.4,0.4,4.2,0.6,5.3,0.6s2-0.1,2.5-0.3c1.5-0.4,2.8-0.7,3.9-0.7c1.1,0,2,0.1,2.7,0.2
		c1.7,0.2,3.3-0.2,4.7-1.1c1.4-1,2.2-2.3,2.2-3.9c0-1.6-1.1-3.1-3.4-4.4c-2.3-1.3-5.5-2.4-9.6-3.3c-4.1-0.9-6.9-1.3-8.1-1.3
		c-1.5,0-2.3,0.4-2.3,1.1c0,0.8,0.7,1.9,2.1,3.3c1.4,1.5,2.4,2.4,3,2.8c0.6,0.4,0.9,0.8,0.9,1.3c0,1.2-2,2.5-6,4
		c-0.9,0.4-1.4,0.7-1.4,0.9C301.2,245.4,302.4,245.7,304.8,246.1z"/>
	<path fill="#36774D" d="M492.6,277c-0.3,0-0.5,0.1-0.5,0.3c0,0.4,1.6,1.9,4.8,4.7c3.2,2.7,6.5,4.6,9.8,5.8c3.3,1.1,5.5,1.7,6.5,1.7
		c1,0,1.8-0.3,2.3-0.8c0.6-0.5,0.9-1.1,0.9-1.7c0-2-1.4-4.2-4.1-6.6c-2.8-2.4-5.4-3.6-8.1-3.6c-2.4,0-4.8,0-7.4,0.1
		C494.4,276.9,493,277,492.6,277z"/>
	<path fill="#36774D" d="M422.6,258.4c2.5,1.7,5.2,2.6,8.1,2.6c2.6,0,6.5-0.9,11.6-2.7c5.1-1.8,11.2-4.4,18.3-7.8
		c2.6-1.2,6-2.3,10.2-3.2c4.2-0.9,6.9-1.4,8.2-1.4c0.5,0,0.8,0.1,0.8,0.3c0,0.6-2,2.2-6.1,4.7c-3-1.2-5.3-1.8-6.9-1.8
		c-2.3,0-4,0.5-5.1,1.4c-1.1,0.9-2.3,3.9-3.6,8.9c-2.1,0.9-4,1.3-5.6,1.3c-1.7,0-2.9,0.2-3.7,0.7c-0.8,0.4-1.5,1.4-2.2,2.7
		c-0.6,1.4-1,2.6-1,3.6c0,1.1,0.7,1.9,2.2,2.4c1.5,0.6,3.6,0.8,6.3,0.8c-0.2,2-0.2,3.6-0.1,5c-3.9,6-7.3,10-10.1,11.9
		c-2.8,2-5.2,3-7,3c-1.4,0-2.5-0.2-3.3-0.7c-0.8-0.4-1.4-0.7-1.8-0.7c-0.5,0-0.7,0.2-0.7,0.5c0,0.4,0.6,1.3,1.7,2.8
		c1.1,1.5,2.6,2.3,4.6,2.3c2.3,0,5.2-0.8,8.7-2.3c3.5-1.6,7.1-3.9,10.7-7l1.7,1.8c3.3,3.1,5.5,5.7,6.6,7.8c1.1,2,2.5,3.1,4.3,3.1
		c2.2,0,5.4-1.9,9.7-5.6c4.3-3.7,7.7-9.1,10.3-16c0.8-2.3,1.7-3.9,2.6-4.9c0.9-1,1.3-2,1.3-2.9c0-1.2-0.4-2.2-1.3-3.2
		c-0.9-0.9-2.7-2.2-5.5-3.8c-2.8-1.6-5.8-2.4-9.1-2.6c0.2-1.2,0.6-2,1.2-2.5c0.6-0.5,3.3-1.9,7.9-4.3c4.6-2.3,7.8-3.9,9.6-4.7
		c1.8-0.8,2.7-1.7,2.7-2.9c0-1.1-1-2.1-2.9-2.9c-1.9-0.8-4.2-1.2-7-1.2c-2.8,0-6.5,0.3-11.1,1c0.8-1.5,2.4-2.8,5-3.9
		c3.8-1.6,5.7-3.5,5.7-5.7c0-2.2-1.2-4.2-3.5-6c-2.3-1.8-5.2-2.7-8.7-2.7c-5.7,0-11.3,2.5-16.9,7.4c-1.4,1.2-2.9,1.8-4.8,1.8
		c-1.8,0-3.2-0.3-4.1-0.9c-0.9-0.6-1.7-0.9-2.4-0.9c-0.7,0-1.2,0.6-1.5,1.7c-0.3,1.1-0.5,2.2-0.5,3.3c0,2.9,1.1,5.2,3.2,7
		c2.1,1.7,3.9,2.6,5.4,2.6c1.5,0,3-0.6,4.4-1.7c1.5-1.1,2.3-2.9,2.6-5.3c0.3-2.4,1.5-5,3.7-7.8c2.2-2.8,3.7-4.4,4.5-4.8
		c0.8-0.4,1.7-0.6,2.7-0.6c1.6,0,2.6,0.6,3,1.7c0.4,1.1,0.6,2.2,0.6,3.1c0,1-0.3,1.8-0.8,2.6c-0.5,0.8-1.6,1.9-3.3,3.4
		c-1.7,1.5-3.6,3.1-5.8,4.8c-2.2,1.7-3.8,2.7-4.9,3.2c-1.1,0.4-3.7,1.1-7.9,2.1c-7.5,1.6-13.8,3-18.7,4.2c-4.9,1.2-8.7,2.2-11.3,2.9
		c-2.6,0.8-4,1.2-4.3,1.3c-0.2,0.1-0.3,0.3-0.3,0.7C418.9,255.6,420.1,256.6,422.6,258.4z M455.3,274.1c-0.4-1.2-0.5-2.3-0.3-3.2
		c0.4-0.2,1.2-0.4,2.4-0.6C457.2,271.9,456.5,273.2,455.3,274.1z M461.6,255.5c1.1-0.8,2-1.2,2.9-1.2c0.9,0,1.3,0.4,1.3,1.3
		c-1.5,1-3.6,2-6.2,3.1C459.9,257.3,460.5,256.3,461.6,255.5z M479.5,265.8c0.7,1,1,2.2,1,3.6c0,1.5-1.3,4.6-3.9,9.6
		c-2.6,4.9-4.3,7.7-5.1,8.3c-0.8,0.6-1.8,1-3,1c-3.7,0-6.9-1.7-9.5-5c4.9-5.8,8.5-10.4,10.8-14c2.5-3.3,4.8-4.9,7.1-4.9
		C478,264.3,478.9,264.8,479.5,265.8z"/>
	<path fill="#36774D" d="M423.4,276.1c-0.7,0.3-1.5,1.1-2.4,2.5c-0.9,1.4-1.3,2.8-1.3,4.4c0,1.6,0.3,2.8,1,3.8
		c0.7,1,1.5,1.5,2.5,1.5c1,0,1.9-0.3,2.8-0.8c0.9-0.6,2.1-1.6,3.5-3.1c1.4-1.5,3.7-3.4,6.9-5.7c3.2-2.3,6.8-4.7,11-7.1l-15.2,4.6
		c-1.5,0.5-2.7,0.8-3.6,0.8c-0.9,0-1.3-0.3-1.3-0.8l0.3-0.8c0-0.4-0.2-0.7-0.5-0.9c-0.3-0.2-0.7-0.3-1-0.3c-0.3,0-0.7,0.1-1.1,0.3
		c-0.4,0.2-0.5,0.3-0.4,0.4C424.4,275.4,424.1,275.8,423.4,276.1z"/>
	<path fill="#36774D" d="M423,326.6c4.2,1.2,9.5,1.8,15.9,1.8c5,0,10.2-0.4,15.5-1.3c5.3-0.9,9.6-1.9,12.7-3l5.3-11.1h-26.7
		l-2.2,4.7h14.2l-1.7,3.5c-2.2,0.7-4.7,1.2-7.5,1.7c-2.8,0.5-5.5,0.7-8.1,0.7c-5.2,0-9.1-0.8-11.5-2.5c-2.5-1.6-2.9-4.1-1.3-7.4
		c1.4-3.1,4.1-5.4,8.1-6.9c3.9-1.6,8.6-2.3,14-2.3c3.6,0,6.4,0.4,8.4,1.2c2,0.8,3.1,1.9,3.3,3.2l12.8-1c0-2.6-1.8-4.6-5.4-6
		c-3.6-1.5-9.2-2.2-16.8-2.2c-5.9,0-11,0.5-15.4,1.4c-5.7,1.2-10.5,2.9-14.2,5.2c-3.7,2.3-6.3,4.8-7.7,7.7c-1.3,2.7-1.2,5.1,0.1,7.4
		C416.1,323.6,418.9,325.4,423,326.6z"/>
	<polygon fill="#36774D" points="476.4,328 488.7,328 502.1,300.1 489.7,300.1 	"/>
	<path fill="#36774D" d="M505.1,314c-1.3,2.7-1.3,5.1,0,7.4c1.3,2.3,4,4,8.2,5.2c4.2,1.2,9.5,1.8,15.9,1.8c5,0,10.2-0.4,15.6-1.3
		c5.3-0.9,9.6-1.9,12.7-3l5.4-11.1h-26.7l-2.3,4.7h14.2l-1.7,3.5c-2.2,0.7-4.7,1.2-7.5,1.7c-2.8,0.5-5.5,0.7-8.1,0.7
		c-5.2,0-9.1-0.8-11.5-2.5c-2.4-1.6-2.9-4.1-1.3-7.4c1.5-3.1,4.2-5.4,8.2-6.9c4-1.6,8.6-2.3,14.1-2.3c3.6,0,6.4,0.4,8.4,1.2
		c2,0.8,3.1,1.9,3.3,3.2l12.8-1c0-2.6-1.7-4.6-5.3-6c-3.6-1.5-9.2-2.2-16.8-2.2c-5.9,0-11,0.5-15.4,1.4c-5.8,1.2-10.5,2.9-14.3,5.2
		C509.1,308.5,506.5,311.1,505.1,314z"/>
	<polygon fill="#36774D" points="615.9,323.3 581.7,323.3 585.4,315.7 616.2,315.7 618.5,311 587.7,311 590.8,304.8 623.9,304.8 
		626.3,300.1 580.7,300.1 567,328 613.6,328 	"/>
</g>
<g>
</g>
<g>
</g>
<g>
</g>
<g>
</g>
<g>
</g>
<g>
</g>
<g>
</g>
<g>
</g>
<g>
</g>
<g>
</g>
<g>
</g>
</svg>
