<?xml version="1.0" encoding="utf-8"?>
<!-- Created by @FCLOGO 2022-03-31 15:15:58 . https://fclogo.top/ -->
<!-- FOR PERSONAL USE ONLY NOT FOR COMMERCIAL USE -->
<svg version="1.1" xmlns="http://www.w3.org/2000/svg" xmlns:xlink="http://www.w3.org/1999/xlink" x="0px" y="0px"
	 viewBox="0 0 800 800" enable-background="new 0 0 800 800" xml:space="preserve">
<g>
	<path fill="#1D2087" d="M697,161.1l-0.1-4.8l-4.3-2.3c-39.1-21.4-56.7-61.8-56.9-62.2l-1.3-3l-3-1.4C628.1,85.9,547.4,50,400,50
		c-147.4,0-228.1,35.9-231.4,37.4l-3,1.4l-1.3,3c-0.2,0.4-17.6,40.7-56.9,62.2l-4.3,2.3l-0.1,4.8c0,1.2-3.1,120.3,31.2,251.2
		c20.2,77.2,49.2,143.4,86.2,196.8C267,676.3,326.5,723.4,397.1,749l2.9,1l2.9-1c70.6-25.6,130.1-72.6,176.7-139.9
		c37-53.4,66.1-119.6,86.2-196.8C700.1,281.4,697,162.3,697,161.1z M649.4,408.4C618.7,525.3,550.6,675.9,400,732
		c-150.6-56.1-218.7-206.7-249.4-323.6c-29.9-114-31-218.9-30.8-242.1c35.2-21,53.4-54.2,58.5-64.7c15.3-6.2,93.2-34.7,221.6-34.7
		c128.5,0,206.3,28.5,221.6,34.7c5.1,10.5,23.4,43.7,58.5,64.7C680.3,189.4,679.3,294.4,649.4,408.4z"/>
	<path fill="#1D2087" d="M606.5,188.2c0,0-71.8-33.8-206.5-33.8s-206.5,33.8-206.5,33.8s-6,31.2-54.2,47.4c0,0-5.1,368.4,260.6,484
		c265.7-115.6,260.6-484,260.6-484C612.5,219.4,606.5,188.2,606.5,188.2z M624.1,432.8c-18.4,61.1-44,114.6-76.3,159
		C508.3,646.3,458.5,687,400,713c-58.5-26-108.3-66.8-147.9-121.2c-32.2-44.3-57.9-97.8-76.3-159c-27.6-91.9-30.3-173.9-30.5-193
		c39-14.4,50.2-38.5,53.1-47.3c6-2.5,22.8-9.1,49.6-15.6c56.8-13.8,113.9-16.6,151.8-16.6c68.7,0,120.5,9,151.8,16.6
		c26.8,6.5,43.7,13.1,49.6,15.6c2.9,8.7,14.2,32.8,53.1,47.3C654.4,258.9,651.7,340.9,624.1,432.8z"/>
	<path fill="#1D2087" d="M336.1,241.8c-61.1,9.1-87.2,27.7-87.2,35.5c0,25.9,147.2,16.4,147.2,16.4s-106.6-2.8-106.6-15.8
		c0-33.8,287.7-27.1,287.7-27.1C468,233.5,388.9,233.9,336.1,241.8z"/>
	<path fill="#1D2087" d="M302.5,282.9c5.6,1.4,13.9,2.9,26.5,4.3c-0.8-8.5-1.1-16.8-1.1-24.8c-10.4,1.8-17.8,3.8-23.2,5.6
		C303.7,273,302.9,278,302.5,282.9z"/>
	<path fill="#1D2087" d="M377.7,295.8c-8.7,0.6-18.6,1.2-28.4,1.4c1,7.2,2.5,14.4,4.2,21.3c7.2-0.3,14.3-0.6,21.4-1
		C375.5,309.9,376.4,302.7,377.7,295.8z"/>
	<path fill="#1D2087" d="M506,271.7c0,0-4.6-9.2-13-19.3c-36.6,0.3-66.6,1.3-91.2,2.6c-3.4,6.8-5.9,14.2-7.7,21.6
		c8.1-0.1,19.5-0.3,31.5-0.5C469.4,237.6,506,271.7,506,271.7z"/>
	<path fill="#1D2087" d="M347.7,276.2c0,4.3,0.2,8.6,0.6,12.9c9.9,0.8,20.7,1.7,30.2,2.4c2.8-13.5,6.7-25.3,11.4-35.8
		c-16.1,1.1-29.6,2.3-40.9,3.7C348.1,265.2,347.7,270.8,347.7,276.2z"/>
	<path fill="#1D2087" d="M393.1,281.1c-0.8,3.8-1.4,7.6-1.9,11.3c8.5,0.6,14.2,1,14.2,1s-5.7,0.6-14.5,1.4
		c-1.1,8.8-1.4,16.5-1.4,21.9c1.5-0.1,3.1-0.2,4.6-0.3c8.5-14.5,16.9-25.7,25.1-34.2C409,281.7,399.8,281.3,393.1,281.1z"/>
	<path fill="#1D2087" d="M330.2,297.4c-10.2-0.1-19.5-0.4-27.8-0.9c0.6,8.7,2.6,16.5,5.4,23.4c8.7-0.2,17.7-0.4,26.7-0.7
		C332.6,311.9,331.2,304.6,330.2,297.4z"/>
	<path fill="#1D2087" d="M418.2,234.6c18.7,0.1,38.4,0.9,58.9,2.4c-8.7-6.4-19.1-11.2-30.9-11.2
		C434.8,225.8,425.6,229.1,418.2,234.6z"/>
	<path fill="#1D2087" d="M334.5,200.6c0,0-13.1,18.7-22.6,43.6c5.3-1.2,10.9-2.2,16.8-3.2C330.5,217.1,334.5,200.6,334.5,200.6z"/>
	<path fill="#1D2087" d="M472.6,181c-66.5-20.8-103.8,15.9-118,56.4c14.6-1.5,30.3-2.4,46.9-2.8C430.6,190.4,472.6,181,472.6,181z"
		/>
	<path fill="#1D2087" d="M536.9,294.6c0-12.4-37.2-16.9-65.4-16.9c-28.2,0-89.1,1.1-89.1,1.1s115.1,2.3,115.1,15.4
		c0,33.1-289.9,27.8-289.9,27.8s84.2,14.3,170.7,14.3C482,336.4,536.9,307,536.9,294.6z"/>
	
		<rect x="246.7" y="95.7" transform="matrix(0.9852 -0.1712 0.1712 0.9852 -13.1763 46.134)" fill="#1D2087" width="28.3" height="7.6"/>
	<path fill="#1D2087" d="M246.6,110l1.4,7.9l36.2-6.3l15.9,33.5l10.8-1.9l-16.6-33.4l4.7-0.9c5.2-0.9,6.7-4,4.6-9.5l-4.5-10.5
		l-8.1,1.4l4.6,11.2l-4,0.7l-4.5-13.8l-10.3,1.8l4.7,13.8L246.6,110z"/>
	<path fill="#1D2087" d="M260.1,120.6l-8.6,1.5l3.9,22.6c1,5.3,4,7.5,8.9,6.7l26-4.6l-1.5-8.5l-9.6,1.7l-1.8-10.5l8-1.4l-1.4-7.9
		l-8,1.4l-1-5.5l-10,1.7l4.2,23.9l-5.3,0.9L260.1,120.6z"/>
	<path fill="#1D2087" d="M375.8,90.9l-3.3,14.4l-2.4-3.2c-1.3-1.5-2.9-2.7-4.8-3.6c-3-1.2-5.9-1.1-8.6,0.4c-2.7,1.6-4.9,4.5-6.5,8.5
		c-2.7,6.6-2.4,14,0.9,22.3c2.5,4.7,5.3,7.7,8.5,8.8c3.1,1.2,6.2,0.7,9.3-1.2l3.1-3l2.8-4.7l4,8.3l10.4-0.5l-9.1-21.1l6.5-25.8
		c0.4-6.1-2-9.2-7.3-9.1L347.9,83l0.5,9.4L375.8,90.9z M367.9,122.6c-1.1,2.5-2.2,4.2-3.2,5.1c-1,0.9-2,0.8-3-0.2
		c-1-1-1.8-2.1-2.4-3.5c-0.6-1.4-1.1-3.1-1.4-5.2c-0.1-2,0.1-4.1,0.7-6.5c1.4-3,2.8-4,4.4-3c1.6,1.1,3,2.7,4.2,5l1.9,3.7
		L367.9,122.6z"/>
	<path fill="#1D2087" d="M331.8,93c1.3,1.1,2.8,1.6,4.5,1.6c1.6-0.1,3-0.8,4.2-2c1.2-1.3,1.7-2.7,1.6-4.3c-0.1-1.6-0.8-3-2.1-4.1
		c-1.3-1.1-2.7-1.6-4.3-1.5c-1.7,0.1-3.1,0.7-4.3,2c-1.2,1.2-1.7,2.6-1.6,4.3C329.9,90.5,330.6,91.9,331.8,93z"/>
	<path fill="#1D2087" d="M334.7,125.3l-3.6,15.9l10-0.5l3.1-14.5c2.1-13.8-3-23.7-15.3-29.8l0.6,13.2
		C334.4,112.3,336.1,117.6,334.7,125.3z"/>
	<path fill="#1D2087" d="M447.2,110.9l-14.7-0.7c-5-0.3-7.6,2-7.8,6.8l-0.5,10.5l-0.2,3.9l-0.2,4.1l29.7,1.5l0.8-18
		C454.5,113.9,452.2,111.2,447.2,110.9z M443.8,128.5l-9.7-0.5l0.5-9.6l6.2,0.3c2.3,0.1,3.5,1.2,3.4,3.3L443.8,128.5z"/>
	<path fill="#1D2087" d="M421.6,105.7l32.7,1.7c3,0.2,4.4,1.4,4.3,3.6l-1.4,29.6l4.3,0.2c4.1,0.2,6.2-1.6,6.5-5.5l1.4-27.2
		c0.2-5.3-1.9-8.1-6.2-8.3l-2.3-0.1l8.5-15l-10.3-0.5l-8.9,15l-4.2-0.3l0.9-17.3l-10.5-0.5l-0.4,7.3l-6,2c-2.8,1-4.5,0-5.2-3
		l-0.8-5.3l-10.3-0.5l1.9,10.4c1.2,3.6,3.6,5.5,7.2,5.7c3.1,0,6-0.3,8.8-1.1l4.2-1.5l-0.2,3.3l-16-0.8c-5.3-0.2-8.1,2.4-8.4,7.7
		l-1.7,33l10.5,0.5L421.6,105.7z"/>
	<path fill="#1D2087" d="M529.9,150.1l14.8,2.5l-17.4-24.1c6.3-5.4,12.8-12.1,19.7-20.2l5.2,0.9l1.5-8.5l-23.1-4l0.9-5.2l-10.9-1.9
		l-0.9,5.2l-23.4-4l-1.5,8.5l39.6,6.8c-4,5.4-8.5,9.9-13.4,13.6l-9.7-13.7l-14-2.4l15.3,22.6c-6,3.6-13.2,6-21.6,7.3l-1.7,9.9
		c11.4-0.7,21.2-3.6,29.3-8.6L529.9,150.1z"/>
	<path fill="#1D2087" d="M384.3,606.5c-0.1-2.3-0.2-3.8-0.5-4.3c-0.2-0.6-0.8-0.9-1.6-0.8c-0.8,0-1.3,0.4-1.6,1
		c-0.2,0.6-0.3,2.1-0.3,4.3l0.7,21.3c0.1,2.5,0.3,4.1,0.5,4.6c0.3,0.5,0.8,0.8,1.6,0.7c0.8,0,1.3-0.3,1.6-1c0.2-0.6,0.3-2,0.2-4.1
		L384.3,606.5z"/>
	<path fill="#1D2087" d="M267.1,606.8c14.1,17.2,44.4,46.1,48.4,50c4.7-1.1,35.8-7.7,84.4-7.7s79.8,6.7,84.4,7.7
		c4-3.8,34.3-32.8,48.4-50c-9.4-2.9-60.6-17.7-132.9-17.7C327.8,589.1,276.5,603.9,267.1,606.8z M331.2,643.5l-0.7-6.2
		c5.7-12.4,9-20,10-22.9c1-2.9,1.4-5.1,1.2-6.7c-0.1-1.2-0.4-2-0.9-2.6c-0.5-0.5-1.1-0.8-1.9-0.7c-0.8,0.1-1.4,0.5-1.7,1.2
		c-0.3,0.7-0.4,2-0.1,3.9l0.5,4.1l-9.7,1.2l-0.2-1.6c-0.3-2.4-0.4-4.4-0.3-5.8c0.1-1.4,0.5-2.9,1.4-4.4c0.8-1.5,2-2.7,3.5-3.5
		c1.5-0.9,3.3-1.5,5.5-1.7c4.3-0.5,7.7,0.2,10.2,2c2.5,1.9,3.9,4.4,4.3,7.7c0.3,2.5,0,5.2-0.9,8.1c-0.9,2.9-3.9,9.2-8.9,18.9
		l11.9-1.4l0.9,7.4L331.2,643.5z M395.5,631.7c-0.3,1.5-1,3-2.1,4.3c-1.1,1.3-2.4,2.3-4,3c-1.6,0.6-3.4,1-5.3,1
		c-2.6,0.1-4.8-0.1-6.5-0.7c-1.7-0.5-3.2-1.4-4.2-2.7c-1.1-1.2-1.8-2.6-2.3-4c-0.5-1.4-0.8-3.6-0.9-6.7l-0.5-15.2
		c-0.1-4,0.1-7,0.8-9c0.6-2,2-3.7,4-4.9c2-1.3,4.5-2,7.4-2c2.4-0.1,4.5,0.3,6.5,1.1c1.9,0.8,3.4,1.8,4.3,2.9c1,1.2,1.6,2.5,2,4
		c0.4,1.5,0.6,3.9,0.7,7.2l0.5,14.6C395.9,627.7,395.8,630.2,395.5,631.7z M445.2,626.7l0.4-3.4l10.8,1.3l-0.8,7.1
		c-0.2,1.9-0.3,3.1-0.1,3.6c0.2,0.5,0.6,0.8,1.4,0.9c0.8,0.1,1.4-0.2,1.8-0.8c0.3-0.6,0.7-2.3,1-5l0.4-3c0.2-1.7,0.2-2.9-0.1-3.7
		c-0.3-0.8-0.8-1.4-1.5-1.7c-0.7-0.3-2.1-0.6-4.2-0.9l0.7-6.3c2.6,0.3,4.2,0.4,4.8,0.3c0.6-0.1,1.1-0.5,1.5-1.1
		c0.3-0.6,0.6-1.6,0.8-3.1l0.3-2.4c0.2-1.5,0.1-2.5-0.1-3.1c-0.3-0.5-0.7-0.8-1.4-0.9c-0.8-0.1-1.3,0.1-1.6,0.6
		c-0.3,0.5-0.6,1.5-0.8,3.2l-0.4,3.6l-10.8-1.3l0.4-3.7c0.5-4.1,1.8-6.8,3.8-8.1c2.1-1.2,5.2-1.6,9.3-1.1c5.2,0.6,8.5,2,10.1,4.3
		c1.6,2.2,2.2,5.1,1.8,8.7c-0.3,2.4-0.8,4.1-1.6,5.1c-0.8,1-2.1,1.8-3.8,2.5c1.6,0.8,2.7,1.8,3.3,3.2c0.7,1.4,0.7,4.4,0.2,9
		c-0.4,3.5-1.1,6.1-2.1,7.9c-1,1.8-2.5,3.1-4.6,3.9c-2,0.8-4.6,1-7.6,0.6c-3.4-0.4-6.1-1.3-7.9-2.7c-1.8-1.4-2.9-2.9-3.4-4.7
		C444.7,633.8,444.7,630.9,445.2,626.7z M411.3,602.2c5.3-0.9,9.4-3.1,12.3-6.5l6.4,0.2l-1.7,43.7l-10.9-0.4l0.9-23.4
		c0.1-3.4,0.1-5.4,0-6.1c-0.1-0.7-0.6-1.2-1.3-1.6c-0.7-0.4-2.3-0.6-4.8-0.7l-1.1,0L411.3,602.2z"/>
	<path fill="#1D2087" d="M445.8,677.6l-6-0.3c1.1-3.4,3.6-12.1,3.6-19.8c0.7-0.6,2.4-2,4.4-3.9c-1-0.1-2-0.2-3.1-0.3
		c-1.2,1-2.1,1.8-2.6,2.3l-5.6-3c-1.8-0.1-3.6-0.3-5.5-0.4l10.1,5.4c0,7.8-2.8,16.8-3.7,19.5c-6.2,4.9-16.9,10.5-18.9,11.5
		c-2.7-0.4-11.8-4.1-17.8-6.8v-21.3l13.2-9c-1.3,0-2.6-0.1-3.9-0.1l-10.5,7.2l-11-7.2c-1.3,0-2.7,0.1-4,0.1l13.9,9v21.4
		c-7.8,3.9-18.2,6-18.3,6l-0.7,0.1c-3.4-1.8-12.3-6.6-17.7-10.9c-0.9-2.7-3.6-11.7-3.7-19.5l10-5.3c-1.9,0.1-3.7,0.2-5.5,0.4
		l-5.5,2.9c-0.5-0.5-1.5-1.2-2.6-2.2c-1,0.1-2.1,0.2-3.1,0.3c2,1.8,3.7,3.2,4.4,3.8c0,7.8,2.5,16.5,3.6,19.8l-5.4,0.3
		c-6.3-6.4-11.2-14.1-14.4-22.6c-0.8,0.1-1.6,0.2-2.3,0.3c9.3,25.5,33.9,43.8,62.6,43.8s53.2-18.3,62.6-43.8
		c-0.7-0.1-1.5-0.2-2.3-0.3C457.1,663.5,452.1,671.2,445.8,677.6z M356.4,679.7l4.8-0.3c7,5.4,18.3,11.1,18.9,11.4l0.1-0.2
		c0.7,1.2,1.7,2.6,2.4,3.7C372.7,691.6,363.7,686.5,356.4,679.7z M414.2,695.2c-4.6,1-9.3,1.6-14.2,1.6c-5,0-9.8-0.6-14.5-1.7
		l0.2-0.2c0,0-2.1-2.8-3.5-5.2c3.3-0.7,11.1-2.8,17.5-6c2.7,1.2,13,5.7,17.6,6.8C416.5,692.5,415.3,694.6,414.2,695.2z M418,694.2
		c0.8-1.4,1.4-2.9,1.7-3.6c2.1-1.1,12.1-6.3,18.4-11.2l5.4,0.3C436.4,686.4,427.7,691.4,418,694.2z"/>
	<path fill="#1D2087" d="M388.8,478.4c0.2,1.7,0.7,3.2,0.9,5c0.5-2.9-0.2-6.5,1-8.5c0.2,1.5,0.8,2.7,1.8,3.8c-0.7-2.7-0.6-4.7,0-6.4
		c1-2.6,1.7-4.6,2-6.8c0.3-1.9,0.2-3.9-0.2-6.5c-0.3,3.6-0.6,6.4-1.4,8.2c-1.2,2.8-3.1,3.8-3.9,6.9c-0.1,0.3-0.1,0.6-0.2,0.8
		c-0.1-1-0.2-1.9-0.2-2.4c0.1-2.7,1.8-5.2,1.8-5.2c-2.2,1-3.4,3.6-3.5,6.4c-0.2-1.1-0.4-2.8,0-4.4c0.5-1.7,1.6-3.3,2.7-5.4
		c-2,2.1-3.4,3.5-4.1,5.4c-0.6,1.6-0.5,3.6-0.7,5.9c0,0-0.6-1.5-0.7-3.3c-0.1-1,0-2.1,0.2-3.1c1.3-2,3.1-4.4,3.9-6.1
		c0.8-1.6,0.4-4.1-0.1-5.7c0.4-1.6,1-3.8,1.3-5.8c0.6-4-0.1-9.9-0.1-9.9c-1.1,3.8-4.3,5.7-6.3,10.7c-2.5,6.3-4.3,13.8-4.7,15.6
		c-0.4,1.7,0.1,2.9,0.7,3.7c-0.1,2.2-0.2,4.8-0.2,4.8c-0.4-0.3-0.7-0.9-1.1-1.7c0,0-0.3,2.9,0.8,5.8c1.1,2.8,4.4,6.4,4.7,6.6
		c-2.7-5.2-2.1-11.1-2.1-11.1c0.4,1,0.7,1.5,1.4,2.2c0.7,2,1.6,4.2,2.7,5.6c2.6,3.3,2.5,4.8,4.5,7c0,0-2.1-4.9-1.8-8
		C388,481.2,388.5,479.8,388.8,478.4z"/>
	<path fill="#1D2087" d="M498.4,482.5c-2.1-4.2-2.9-10.2-3.2-16.8c-0.7,3.6-0.9,7.1-0.9,10.6c0,3.9,0.5,7.8,1.1,11.5
		C496.3,485.9,497.4,484.2,498.4,482.5z"/>
	<path fill="#1D2087" d="M301.6,482.5c1,1.7,2.1,3.4,3,5.3c0.6-3.7,1-7.6,1.1-11.5c0-3.5-0.2-7-0.9-10.6
		C304.4,472.3,303.7,478.3,301.6,482.5z"/>
	<path fill="#1D2087" d="M411,474.2c-0.8-3.2-2.6-4.2-3.9-6.9c-0.8-1.8-1.1-4.6-1.4-8.2c-0.4,2.5-0.5,4.5-0.2,6.5
		c0.3,2.2,1,4.2,2,6.8c0.6,1.6,0.7,3.7,0,6.4c1-1,1.5-2.3,1.8-3.8c1.1,2,0.4,5.6,1,8.5c0.2-1.8,0.7-3.3,0.9-5
		c0.2,1.4,0.7,2.8,0.8,4.1c0.3,3.1-1.8,8-1.8,8c1.9-2.2,1.9-3.7,4.5-7c1.1-1.4,2-3.6,2.7-5.6c0.8-0.7,1-1.2,1.4-2.2
		c0,0,0.6,5.9-2.1,11.1c0.4-0.2,3.6-3.8,4.7-6.6c1.1-2.8,0.8-5.8,0.8-5.8c-0.4,0.8-0.7,1.5-1.1,1.7c0,0-0.1-2.6-0.2-4.8
		c0.6-0.8,1.1-2.1,0.7-3.7c-0.4-1.8-2.2-9.3-4.7-15.6c-2-5.1-5.2-6.9-6.3-10.7c0,0-0.7,6-0.1,9.9c0.3,2,0.8,4.2,1.3,5.8
		c-0.4,1.6-0.9,4.1-0.1,5.7c0.9,1.7,2.6,4,3.9,6.1c0.2,1,0.3,2.1,0.2,3.1c-0.2,1.8-0.7,3.3-0.7,3.3c-0.2-2.3-0.1-4.4-0.7-5.9
		c-0.7-1.9-2.1-3.2-4.1-5.4c1.1,2.2,2.3,3.8,2.7,5.4c0.4,1.6,0.2,3.2,0,4.4c-0.1-2.8-1.4-5.5-3.5-6.4c0,0,1.7,2.5,1.8,5.2
		c0,0.5-0.1,1.4-0.2,2.4C411.1,474.7,411,474.4,411,474.2z"/>
	<path fill="#1D2087" d="M432,473.4c-0.6,0.5-1.1,0.7-1.7,1.1c0.8-2.9,0.8-5.6,0.2-7.8c-0.2,0.7-0.4,1-0.8,1.5
		c-0.5-4.1-2.4-5.9-4-7.9c1.2,3.6,2.2,7.2,0.3,10.4c0.7,0,1.3-0.5,2-1c0,1.6-0.8,3.2-2.2,4.8c0.7-0.1,1.5-0.3,2.1-0.7
		c0,2.2-1.3,4.4-3,6.6c0.6-0.2,1.3-0.6,1.9-1.2c-0.4,1.5-2,3.3-2.9,4.9C427.1,480.3,431,477.2,432,473.4z"/>
	<path fill="#1D2087" d="M373.1,479c0.6,0.6,1.3,1,1.9,1.2c-1.7-2.2-3-4.4-3-6.6c0.6,0.4,1.4,0.7,2.1,0.7c-1.4-1.5-2.1-3.1-2.2-4.8
		c0.7,0.5,1.3,1,2,1c-1.9-3.2-0.9-6.8,0.3-10.4c-1.6,2-3.5,3.8-4,7.9c-0.4-0.5-0.6-0.8-0.8-1.5c-0.6,2.2-0.6,5,0.2,7.8
		c-0.6-0.4-1.1-0.6-1.7-1.1c1,3.8,4.9,6.9,8.1,10.5C375.1,482.2,373.5,480.5,373.1,479z"/>
	<path fill="#1D2087" d="M360,465.4c0.3,1.5,0.4,2.8,0.3,4.2c-1-1.7-2.2-2.8-3.4-3.7c0.2,0.8,0.4,1.5,0.3,2.2
		c-2.8-1.9-4.1-4.5-7.2-6.6c0.4,1.3,1,2.4,0.9,3.4c-2-1-3.3-3.9-5.8-5.2c0.6,1.1,1,2.1,1.3,3.2c-2.5-3.3-3.7-6.7-3.4-9.7
		c1.1,1.7,3.3,3.3,6.1,4.3c1.6,1.6,3.7,2.7,5.4,4.8c-0.3-1.6-0.3-2.8,0.1-3.6c0.9,1.5,2.1,3.1,4.1,4.6c-0.2-1.4-0.2-2.6,0.2-3.6
		c1.4,3.4,3.2,4.2,4.8,6.3c-0.8-4.7,0.4-8,1.7-11c0.2,1,0.8,2.3,1.2,3.2c0.3-3.3,1.9-6.2,2.9-8.7c-0.1,1.2,0.1,2.4,0.5,3.5
		c1.1-6.8,5.3-11.7,7.1-17.6c-2.3,4.2-5.2,6-7,10c-0.3-1.3-0.1-2.3-0.1-3.4c-1,2.5-2.5,4.1-3,7.4c-0.7-2.2-0.1-4-0.1-6
		c-1.5,3.1-3.7,5.1-4.5,9.4c-0.8-1.1-0.8-2.8-0.6-4.7c-1.1,2.1-1.8,4.2-1.8,6.1c-1.1-0.7-1.6-1.9-1.8-3.3c-0.6,1.6-0.7,3.2,0,4.9
		c-1.6-1.1-2.7-2.4-3.3-3.7c-0.4,1.2-0.6,2.6-0.5,4.1c-1.9-0.5-3.3-1.3-4.2-2.2c0,0.4,0.1,0.8,0.2,1.1c-1.9-3-3.4-6.3-3.1-8.7
		c0.7,1.1,1.6,2.2,2.5,2.3c-1.5-5.7-1.4-10.2-0.9-14.4c-1.1,1.9-1.8,4.5-2,8.1c-1-1.8-1.3-3.4-1.1-4.8c-1.9,3.2-1.9,7.8-1,13.1
		c-1.8-1.7-3.1-4.3-3.8-7.6c-1.2,2.9-1.3,7.1-0.1,12.6c-1.3-1.2-2.2-2.8-2.8-4.8c0.2,4,1.2,7.5,2.8,10.7c-1.5-0.9-3-2.2-4.5-4.2
		c-0.2,2.8,0.5,5.2,1.9,7.3c1.2,1.8,3.2,3.5,5.6,4.8c0.2,0.5,0.3,0.9,0.3,1.4c-1-0.1-2-0.5-3-1.2c0.2,1.1,0.7,2.3,1.6,3.3
		c-1.6-0.2-3.1-0.5-4.7-1.2c1.6,2.3,4.5,2.7,7.4,4.6c-0.4-0.7-0.7-1.4-0.7-2.1c1.6,0.8,2,1.7,4.8,2.5c-1.1-1.4-1.7-2.5-2-3.5
		c2.4,0.7,4.3,2.4,7.4,3.3c-1.8-1.6-3-3.1-3.3-4.2c2.7,1,4.3,3.2,7.3,4.3c-0.7-0.8-1.2-1.7-1.4-2.5c0,0,7.6,5.2,12.8,5.7
		C364.7,475.7,363.4,470.4,360,465.4z M344.7,468.1c-0.4-0.2-0.8-0.3-1.2-0.4c-1.2-1.5-2.3-3.1-2.8-4.5c1.5,1,4,1.6,6,1.8
		c0.1,0.5,0.1,0.9,0.1,1.4c-1-0.7-2.1-1.1-3.1-1.1C344.4,466.1,344.7,467.1,344.7,468.1z"/>
	<path fill="#1D2087" d="M422.8,435.5c1.8,5.8,6,10.8,7.1,17.6c0.4-1.1,0.5-2.3,0.5-3.5c0.9,2.5,2.5,5.3,2.9,8.7
		c0.4-0.9,1-2.2,1.2-3.2c1.3,3,2.4,6.3,1.7,11c1.6-2.1,3.4-3,4.8-6.3c0.4,1,0.4,2.3,0.2,3.6c2-1.5,3.2-3.1,4.1-4.6
		c0.4,0.8,0.4,2,0.1,3.6c1.7-2.1,3.8-3.3,5.4-4.8c2.7-1,5-2.6,6.1-4.3c0.3,3-0.9,6.5-3.4,9.7c0.3-1,0.7-2.1,1.3-3.2
		c-2.5,1.2-3.8,4.2-5.8,5.2c-0.1-1,0.4-2.2,0.9-3.4c-3.1,2.1-4.4,4.7-7.2,6.6c-0.1-0.8,0-1.4,0.3-2.2c-1.2,0.9-2.4,2.1-3.4,3.7
		c0-1.4,0-2.7,0.3-4.2c-3.4,5.1-4.7,10.3-10.3,14.7c5.2-0.5,12.8-5.7,12.8-5.7c-0.1,0.9-0.7,1.7-1.4,2.5c3-1.2,4.6-3.3,7.3-4.3
		c-0.3,1.2-1.6,2.6-3.3,4.2c3-0.9,5-2.7,7.4-3.3c-0.2,1-0.8,2.2-2,3.5c2.8-0.7,3.2-1.6,4.8-2.5c0,0.7-0.3,1.4-0.7,2.1
		c2.9-1.9,5.8-2.3,7.5-4.6c-1.6,0.6-3.1,1-4.7,1.2c0.8-1.1,1.3-2.2,1.6-3.3c-1,0.7-2,1.1-3,1.2c0-0.5,0.1-1,0.3-1.4
		c2.4-1.3,4.4-3.1,5.6-4.8c1.4-2.1,2-4.5,1.9-7.3c-1.5,2-3,3.4-4.5,4.2c1.6-3.2,2.6-6.7,2.8-10.7c-0.6,2-1.5,3.6-2.8,4.8
		c1.2-5.5,1.1-9.7-0.1-12.6c-0.7,3.3-2,5.9-3.8,7.6c0.9-5.2,0.9-9.8-1-13.1c0.1,1.4-0.1,3-1.1,4.8c-0.2-3.6-0.9-6.2-2-8.1
		c0.5,4.2,0.6,8.7-0.9,14.4c0.9-0.1,1.8-1.3,2.5-2.3c0.3,2.4-1.2,5.7-3.1,8.7c0.1-0.4,0.1-0.8,0.2-1.1c-0.9,1-2.3,1.7-4.2,2.2
		c0.1-1.5,0-2.9-0.5-4.1c-0.6,1.4-1.7,2.6-3.3,3.7c0.7-1.7,0.6-3.4,0-4.9c-0.2,1.4-0.7,2.6-1.8,3.3c0-1.9-0.6-4-1.8-6.1
		c0.2,1.8,0.2,3.5-0.6,4.7c-0.8-4.3-3-6.2-4.5-9.4c0,2,0.6,3.8-0.1,6c-0.5-3.3-2-4.9-3-7.4c0,1.1,0.2,2.1-0.1,3.4
		C428.1,441.5,425.2,439.7,422.8,435.5z M459.2,463.2c-0.5,1.5-1.6,3.1-2.8,4.5c-0.4,0.1-0.8,0.2-1.2,0.4c0-1,0.3-1.9,1-2.9
		c-1,0-2.1,0.4-3.1,1.1c0-0.5,0-0.9,0.1-1.4C455.2,464.7,457.6,464.1,459.2,463.2z"/>
	<path fill="#1D2087" d="M440.5,512.8c-1.3-1-2.3-2.4-3.4-3.7c0,1.2,0.3,2.4,0.8,3.2c-1,0.2-2.1-0.1-3-0.6c1.2,2.8,3.4,4.5,6.5,5.1
		c-0.9-0.6-1.5-1.4-1.6-2.3c2.2,0.9,4.3,1.3,6.3,1.4C444.2,514.9,442.2,514.1,440.5,512.8z"/>
	<path fill="#1D2087" d="M358.5,516.7c3.1-0.6,5.4-2.3,6.5-5.1c-0.9,0.6-1.9,0.8-3,0.6c0.4-0.8,0.8-2,0.8-3.2
		c-1.1,1.3-2.1,2.7-3.4,3.7c-1.7,1.3-3.7,2.1-5.6,3c2-0.1,4.1-0.5,6.3-1.4C360,515.4,359.4,516.1,358.5,516.7z"/>
	<path fill="#1D2087" d="M406.7,483.9c-0.4,2.1-0.2,4.5,1,7.3c-0.6-5.3,0.9-7.3,1-12.6C408.2,480.9,407.2,480.8,406.7,483.9z"/>
	<path fill="#1D2087" d="M393.2,483.9c-0.5-3.1-1.5-3-2-5.3c0.2,5.3,1.6,7.3,1,12.6C393.4,488.4,393.6,486,393.2,483.9z"/>
	<path fill="#1D2087" d="M404.1,488.4c0.2,1.8,0.8,3.2,2.9,5.6c-1.1-2.4-1.5-4.6-1.6-6.4c-0.1-1.6,0.3-3.1,0.5-5
		C404.7,484.7,403.9,486.1,404.1,488.4z"/>
	<path fill="#1D2087" d="M383.4,538.5c-0.7,1.7-0.8,3.2-0.1,6.3c0.1-2.6,0.9-4.7,1.7-6.4c0.7-1.5,1.7-2.6,2.8-4.1
		C385.6,535.4,384.3,536.3,383.4,538.5z"/>
	<path fill="#1D2087" d="M416.5,538.5c-0.9-2.1-2.2-3-4.4-4.2c1.1,1.5,2.1,2.7,2.8,4.1c0.8,1.7,1.5,3.7,1.7,6.4
		C417.3,541.6,417.2,540.1,416.5,538.5z"/>
	<path fill="#1D2087" d="M395.8,488.4c0.2-2.3-0.5-3.7-1.8-5.8c0.3,1.8,0.6,3.4,0.5,5c-0.1,1.8-0.5,4-1.6,6.4
		C394.9,491.6,395.6,490.3,395.8,488.4z"/>
	<path fill="#1D2087" d="M414.9,549.1c0,0,0.6-3.3-0.7-7.5c-1-3.3-3.9-6.9-4.9-11.2c-1.2-5.4-0.3-10.6,1-14.1
		c1.1-2.8,2.6-4.6,2.6-4.6c-2.7,0.5-4.1,2.1-5.2,3.8c0.8-3.9,2.5-6,4.7-7.3c-2.9,0-5.3,1.4-7.2,3.9c0.1-1.4,0.8-2.8,2-4
		c-0.9,0.4-3.8,1.9-5.4,5.5c-1.6,3.6-1.5,8-1.5,9.6c0.7-1.4,1.6-2.4,2.3-2.7c-1.3,3.6-1,6.7-2,10.1c1-0.7,1.3-1.2,1.9-2.3
		c-0.1,2.8-0.5,5.6-1.3,8.2c0.8-0.3,1.6-1.1,2.1-1.7c0.2,4.2-0.8,9.6-0.9,14.5c-0.6-3.8,0.4-8.9-0.3-11.1c-0.2,1.3-0.8,2.2-1.2,2.9
		c-0.1-0.4-0.1-0.7-0.2-1.1c-0.1-0.5-0.1-0.9-0.1-0.9l0,0c-0.1-1.5-0.1-3.1-0.5-4.5l-0.1,0.5l-0.1-0.5c-0.4,1.4-0.4,3-0.5,4.5l0,0
		c0,0,0,0.3-0.1,0.9c0,0.4-0.1,0.7-0.2,1.1c-0.5-0.7-1-1.6-1.2-2.9c-0.7,2.2,0.3,7.3-0.3,11.1c-0.1-4.8-1.1-10.2-0.9-14.5
		c0.5,0.6,1.3,1.4,2.1,1.7c-0.8-2.6-1.2-5.4-1.3-8.2c0.6,1.1,0.9,1.6,1.9,2.3c-1-3.4-0.7-6.5-2-10.1c0.7,0.3,1.6,1.3,2.3,2.7
		c0-1.6,0.1-6-1.5-9.6c-1.6-3.6-4.5-5.1-5.4-5.5c1.2,1.3,1.8,2.6,2,4c-1.9-2.5-4.2-3.9-7.2-3.9c2.2,1.3,3.9,3.4,4.7,7.3
		c-1.1-1.7-2.5-3.3-5.2-3.8c0,0,1.5,1.8,2.6,4.6c1.3,3.5,2.2,8.6,1,14.1c-0.9,4.3-3.8,7.9-4.9,11.2c-1.3,4.2-0.7,7.5-0.7,7.5
		c0.8-2.5,1.7-4.1,3.7-5.9c-1.4,2.6-1.5,4.8-0.5,7.8c0.2-1.7,0.9-3.1,2.1-4.2c-0.4,2.1,0.1,4.1,1.3,6c-0.1-1.5,0.5-2.4,0.8-2.8
		c0.1,2.5,0.6,4.8,2.9,4.9c2.3,0.1,2.1,2.1,4.6,1.6c0,0,0,0,0.1,0c0,0,0,0,0.1,0c2.5,0.5,2.3-1.5,4.6-1.6c2.3-0.1,2.7-2.4,2.9-4.9
		c0.3,0.4,0.9,1.4,0.8,2.8c1.2-1.9,1.7-3.9,1.3-6c1.2,1,1.9,2.4,2.1,4.2c1-3,1-5.2-0.5-7.8C413.2,545,414.1,546.7,414.9,549.1z"/>
	<path fill="#1D2087" d="M406.8,504.4c-1.3-0.1-3.1-1-4.7-2c0.5,1.2,2.7,2.6,4.3,3.3c-1.4,0-2.8,0.1-3.9,1c3.2-0.2,6.1,0.8,9.2-0.1
		c-2.8-2.6-4.8-9.2-4.8-9.2c-0.2,1.7,0,3.5,0.9,5.4c-1.8-0.5-3.7-2.7-5.8-5.5C403.1,500.3,404.6,502.7,406.8,504.4z"/>
	<path fill="#1D2087" d="M397.3,506.7c-1.1-0.9-2.4-1-3.9-1c1.6-0.8,3.8-2.1,4.3-3.3c-1.5,1-3.3,1.9-4.7,2c2.2-1.7,3.7-4,4.7-7
		c-2.1,2.8-4,4.9-5.8,5.5c0.9-1.9,1.1-3.7,0.9-5.4c0,0-2,6.6-4.8,9.2C391.3,507.5,394.1,506.5,397.3,506.7z"/>
	<path fill="#1D2087" d="M437.5,542.7c-1.7-4-4.2-5.3-4.2-5.3s3,4.3,3,7c0,2.7-0.2,3.8-0.7,5.1C435.6,549.5,439.2,546.7,437.5,542.7
		z"/>
	<path fill="#1D2087" d="M362.4,542.7c-1.7,4,1.9,6.8,1.9,6.8c-0.4-1.3-0.7-2.4-0.7-5.1c0-2.7,3-7,3-7S364.1,538.7,362.4,542.7z"/>
	<path fill="#1D2087" d="M431.9,534.6c-2.1-3.8-5.6-4.9-5.6-4.9c2.3,1.6,3.4,3.6,4.5,5.6c1,1.8,1.5,3.9,2.6,6.3
		C433,538.7,432.8,536.3,431.9,534.6z"/>
	<path fill="#1D2087" d="M373.9,529.7c0,0-3.5,1.2-5.6,4.9c-1,1.7-1.1,4.1-1.4,7c1.1-2.3,1.6-4.5,2.6-6.3
		C370.5,533.3,371.6,531.3,373.9,529.7z"/>
	<path fill="#1D2087" d="M428.1,535.3c1.2,1.2,1.7,2.5,2.1,3.8c0.4,1.1,0.5,2.5,1,4c0.1-1.7,0.2-3.2-0.2-4.3
		C430,536.3,428.1,535.3,428.1,535.3z"/>
	<path fill="#1D2087" d="M369,543.1c0.4-1.5,0.5-2.8,1-4c0.5-1.3,0.9-2.6,2.1-3.8c0,0-2,1-2.9,3.5
		C368.8,539.9,368.9,541.3,369,543.1z"/>
	<path fill="#1D2087" d="M404.2,558.4c-1.2,0-2.2,0.4-3.7,0.4c-1.2,0-2.8-0.4-4-0.4c-1,0-2.1,0.2-3.1,0.4c0,0,4.6,1.7,5.5,3.1
		c0.8,1.4,0.7,3.2,1.4,3.2c0.6,0,0.7-2.4,1.7-3.4c1-1.1,5.2-3,5.2-3S405.9,558.4,404.2,558.4z"/>
	<path fill="#1D2087" d="M430.7,571.4c-1.2,0.8-2,0-3.8,0.2c-1.8,0.2-1.4,0.5-3.4,0.7c-2,0.2-2.8-0.6-4.1-0.6c-1.3,0-2,0-3.3,0.1
		c-1.3,0.1-2.4-0.9-3.4-1.3c-1-0.4-2.1-0.1-1.8,0.7c0.3,0.8,1.1,0.7,2,0.8c1,0.1,0.9,0.8,2.3,1.3c1.4,0.5,1.4-0.1,2.7-0.1
		c1.3,0,3.6,0.5,4.8,1c1.3,0.5,2.5-0.2,4.4-0.4c1.9-0.2,2.6,0.1,4.4-0.6c1.2-0.5,1.9-1.3,2.4-1.6c-0.8-0.2-1.6-0.4-2.2-0.6
		C431.4,571.1,431,571.2,430.7,571.4z"/>
	<path fill="#1D2087" d="M432.5,575.1c-1.3,1.1-3,1.3-5.1,1.4c-2.2,0.2-2.8-0.7-4.2-0.7c-1.4,0-1.4,0.5-3,0.6
		c-1.6,0.1-1.5-0.3-2.9-0.3s-3.4-0.7-3.1,0.1c0.3,0.8,2.6,1.5,3.9,1.6c1.3,0.1,1.9-0.2,3-0.1c1.1,0.1,2.9,0.2,5,0.2
		c2.1,0,3.2-0.5,5.1-0.7c0.5,0,0.8,0.1,0.9,0.4c7.9-0.1,16.3,0.7,23.3,3c-6.6-4.4-14.8-7.2-20.4-8.9
		C435.9,572.9,433.8,574,432.5,575.1z"/>
	<path fill="#1D2087" d="M448.8,406.4c4.6-0.3,6.2,9.3,7.6,16.3c1.2-12.5-1.9-24.5-7.7-31.9c-11.4-14.5-28.2-16.8-38.7-27.4
		c-5.4-5.5-6.9-11.5-8.7-17.7c-0.1,9.3,1.1,18,9.8,28.2c6.9,8.1,22.1,11.4,26.4,24c1.5,4.4,1.1,10.1-2.3,10.9
		c-1.9,0.4-4.1-1.1-5.7-3.8c-1.4-2.3-2.4-5.5-2.6-8.4c-0.9,4.1-0.9,7,0.1,10.7c1.2,4.6,4.8,8,6.4,12.6c1,2.8,1,6.7,0,9.7
		c-3.8-10.5-9.4-18.4-17.1-22.9c0.8,3.6,1.1,9-0.8,12.3c-2.7,4.7-7.4,6.5-11.1,10.5c-2.3,2.5-3.9,5.9-4.4,8.4
		c-0.5-2.5-2.1-5.9-4.4-8.4c-3.7-4-8.4-5.9-11.1-10.5c-1.9-3.4-1.7-8.7-0.8-12.3c-7.7,4.5-13.3,12.4-17.1,22.9c-1-3-1-6.9,0-9.7
		c1.6-4.6,5.2-8,6.4-12.6c1-3.7,1-6.6,0.1-10.7c-0.2,2.9-1.2,6.1-2.6,8.4c-1.6,2.6-3.8,4.2-5.7,3.8c-3.3-0.7-3.8-6.4-2.3-10.9
		c4.4-12.6,19.6-15.9,26.4-24c8.6-10.2,9.9-18.9,9.8-28.2c-1.8,6.2-3.3,12.3-8.7,17.7c-4,4.1-8.9,6.9-14.1,9.7
		c-1.3-12.3-1.9-23.9-1.9-34.7c-4.9,0-9.9-0.1-14.7-0.2c5.4,16,11.3,29,14.7,36c-7.8,4.1-16.1,8.4-22.6,16.7
		c-5.8,7.4-9,19.4-7.7,31.9c1.4-7,3-16.6,7.6-16.3c4,0.2,6.2,5.6,5,11c-0.6,2.5-1.6,5-3,7.2c-0.6,0.9-1.2,1.8-1.9,2.7
		c-2.9,3.8-6.6,7-10.5,9.6c-0.4-5-1-9.4-1.7-13.7c-0.2-1-0.3-2-0.5-3c-0.5-4-0.9-7.9-0.9-12.3c0.1-6.8,3.4-12.1,7.6-16.3
		c-4.5,1.5-9.3,6.3-11.7,13c-2.6,7.1-2.4,15.2-1.9,23.3c0,0.2,0,0.4,0,0.6c0.2,3.7,0.5,7.3,0.7,10.9c0,0.4,0,0.9,0.1,1.3l0,0.9
		c0.1,3.8-0.1,7.4-0.8,10.7c-1.1,4.9-4.5,7.1-7.2,6.9c-1.2-0.1-2.2-0.4-3-0.9c1.1,2.6,3.5,5.1,3.5,5.1c-2.4-0.5-3.9-1.7-7.2-1.4
		c4.3,1.3,6.2,4.7,9.2,7.2c-1.3-0.3-2.3-0.6-3.5-0.6c2.1,1,7.2,6,7.5,7.1c0.3,1.1-2-1-3.9-1.1c3.4,2.6,3.3,6.1,7.2,9
		c-1.6-0.9-3.3-1.4-5-1.3c2.9,1.4,4.9,3.1,6.3,5.1c-2.7-0.1-5.2,0-7.1,0.8c2.6,0.2,5.1,0.8,7.6,2.1c-2.6,0.8-4.8,1.4-5.9,2.5
		c1-0.2,4.4-0.6,7.4-0.4c2.9,0.2,5.6,0.8,5.6,0.8s-0.1,3.2,1.1,4.3c1.2,1.1,3.7,1.1,4.8,2c1.1,0.9,1.3,1.6,2.6,2.8
		c0.7,0.6,2.6,1.2,4.5,1.8c1.6,0.5,3,1.1,4.4,1.1c-0.8,0.5-0.9,1.5-2,2.2c1.9,0.2,3.4,0.6,4.7,0.3c1.7-0.4,3-1.6,3.7-2.6
		c-1.7,1.3-3.5,1.9-5.4,1.4c0.1-1.1,0.9-1.7,2.5-2.3c-1.1-0.2-3.5-0.3-5.2-1.4c-1.9-1.3-4.5-3-5.9-4.6c-1.1-1.2-1.2-2.2-2.1-3
		c-1.8-1.8-4.8-3.9-6.2-6l3.4-0.2l-6.4-5.3l6.8,3.2l-2.4-3c1.5,0.4,2.9,0.7,3.8,1.3c1.8,1.1,2.4,4.4,4.2,7.6c1.5,2.7,4,5.4,7.5,6.3
		c7.5,2.1,11.9-0.9,13.3,1.3c0.3,0.6,0.7,3.9-0.3,6.9c0.6-0.4,1.1-1.1,1.5-1.8c0.3,1.2-0.3,5.1-1,6.9c-0.9,2.2-3,4.8-5,6.5
		c-2.5,2.2-5,3.4-5,3.4c2.3-0.4,5.7-1.3,8-2.3c-0.7,1.7-1.4,3.4-2.3,4.9c-1.6,2.8-3.4,5.2-5.3,7.6c2.5-2,5.1-4,7.4-6.3
		c2-1.9,3.7-4.1,5.6-6.3c0.5,2.5,0.4,4.9,0.2,7.3c-0.4,3.9-1.5,7.6-2.6,11.4c2-2.9,4.2-6.2,5.5-10.6c0.9-3.3,1.2-7.4,1.2-11.5
		c1.6,1.8,2.5,4.3,2.9,6.9c0.4,2.9,0.1,6.3-0.7,10c1.8-2.7,3.1-8.9,2-15c1.3,1.7,2.2,3.7,2.9,5.9c-1.3-8.1-3.8-12-6.7-14.9
		c1-0.2,2.2-0.2,3.1-0.1c-0.5-1.2-1.3-1.7-2.2-2.1c3.8-3.1,6-6.7,7.1-10.7c0,0-2.2,3.3-4.6,5.5c-2.1,1.9-3.7,3.3-5.1,2.6
		c-1.8-0.9-2.7-2.8-2.9-3.5c0.6,0.5,1.5,0.6,2.5,0.5c-1.6-1.2-2.9-2.7-3.6-4.4c0.8,0.6,1.6,0.8,2.5,0.7c-0.3-0.4-1.6-1.6-2.3-3.7
		c-0.9-2.7-0.7-5.2-2-7.2c-1.8-2.8-5.1-4.2-7.7-4.7c-2.3-0.5-3.9-2.1-6.7-2.5c1,0.7,1.8,1.4,1.5,1.4c-0.8-0.1-4.3-1.3-5.7-1
		c-0.6,0.1,1.2,1.3,0.6,1.2c-1.6-0.4-8-0.2-9.7-0.4c-1.6-0.2-1.3-0.4,1.6-1.1c-2-0.3-5.1-0.4-7.5-1.4c-2.5-1.1-4.5-2.6-5.4-3.4
		l-1.8-2.6l2-0.3l-3.3-3.7l3.2,0.7l-3.9-4.4l3.2,0.8l-4.3-7l3.6,2.4l-2.8-6.1l4.3,2.3l-3.8-13.9c0.4,0.4,0.9,0.7,1.5,1
		c-0.4-1.5-1-2.5-1.4-4.1c-1.6-6.9-0.9-14-1-21c0.2,1.4,0.6,3,1.1,4.3c0.5,1.3,1.2,2.5,1.9,3.8c-0.4-1.7-0.9-3.2-1.2-4.9
		c-0.3-1.6-0.4-3.3-0.3-5c1.7,5.7,5.2,8,5.7,15.4c0.2,3.1,0.3,6.9,0.2,8.5c0.5-1.9,1.2-3.3,2-4.1c0.1,0.9,0.4,1.6,0.8,1.9
		c0.1-1.3,1.1-3,2.7-5c0,0.6,0.5,1.1,1,1.4c0.4-1.6,4.7-7.3,5.9-8.7c2.8-2.6,4.7-6.4,4.7-6.4c-0.2,1.5,0,3.4,0.2,4.6
		c0.6-4.4,2-5.3,3.2-7.8c0.1,1.4,0.4,2.8,1.4,4.3c0.6-1.9,1.6-3,2.7-3.6c-1,2.8,0.3,6-1.5,7.8c-0.9-0.3-1.7-1-2.6-2
		c0.8,2.2,0.1,3.6,0.1,5.4c-0.7-0.5-1.3-1.4-1.8-2.9c-0.2,4.4-1.9,7-2.9,10.4c-0.5-1.8-1.1-3.2-1.8-4c0.7,4.9-1.1,7.5-2.5,11.4
		c-0.7,2-1.1,4.2-1.5,6.2c0.9-1.8,1.8-3.3,2.8-4.4c0.3,1.4,0.8,2.7,1.4,3.9c0.3-2.9,0.9-5.1,1.8-6.9l1.6,4.3
		c-0.1-3.1,0.5-5.9,1.6-8.5c0.3,1.5,1,2.8,2.2,3.8c0.1-3.1,0.5-5.9,2-7.4c0.1,1,0.5,2.2,1.3,3.5c0.4-2.6,1.2-5.4,2.6-7
		c0.3,1,0.6,2,1.4,2.7c0.3-5.5,6.1-7.8,5.2-14.2c1.4,4.5,4.1,4.9,5.3,7.9c0.1-2.8-0.5-6.3,0.3-8.5c1.2,2.5,3.4,4.7,3.5,7.5
		c3-1.1,5.1,1.7,4.4,5c-0.8-0.4-1.8-1.1-2.9-2.4c0.3,2.8-0.5,4.5,0.1,7.6c-0.9-1.2-1.5-2.8-1.9-4.9c-0.8,3.9-2.2,6.5-2.6,10.2
		l-0.9-1.8c-1.7,4.2-1.2,7.4-5,12.5c4.7-2.1,6-6.5,8.5-8.8c-0.4,1.8-1.2,3.1-1.3,5.4c1.2-2.6,3-3.8,4.2-6.4c0.6-1.3,0.9-3.6,1.2-5.4
		c0,1.1,0.3,2.3,1,3.8c0.1-2.4,0.7-4.2,1.6-5.4c0,1.1,0.4,2.1,1.1,3c0.4-1.4,1.2-2.7,2.3-3.8c0.8,2.1,1,4.2,0.7,6.3
		c1.1-1.5,1.6-3.4,1.7-5.4c0.6,1.3,1.2,3,1.4,4.7c0.4,3,0.2,6.6,0.3,10.3c0.5-1.6,0.7-3.2,0.7-5.1c0.6,1.4,1.1,4.7,1.1,8
		c0,3.4-0.3,7.4-0.9,10c-0.4,1.8-0.8,3-0.8,3c1.8,1.4,2.3,6.2,2.7,11.7c0.1,1.1,0.5,1.3,0.5,0c0.3-5.6,0.8-10.3,2.7-11.8
		c0,0-0.4-1.2-0.8-3c-0.5-2.7-0.9-6.7-0.9-10c0-3.3,0.5-6.6,1.1-8c0,1.8,0.2,3.5,0.7,5.1c0-3.7-0.2-7.3,0.3-10.3
		c0.2-1.8,0.8-3.4,1.4-4.7c0.1,2.1,0.6,3.9,1.7,5.4c-0.3-2.1-0.1-4.2,0.7-6.3c1.1,1.1,1.8,2.3,2.3,3.8c0.7-0.9,1.1-1.9,1.1-3
		c0.9,1.3,1.5,3.1,1.6,5.4c0.7-1.4,1-2.7,1-3.8c0.3,1.8,0.6,4,1.2,5.4c1.2,2.6,3,3.8,4.2,6.4c-0.1-2.3-0.9-3.6-1.3-5.4
		c2.5,2.3,3.8,6.7,8.5,8.8c-3.8-5-3.4-8.3-5-12.5l-0.9,1.8c-0.4-3.7-1.8-6.3-2.6-10.2c-0.4,2.1-1,3.7-1.9,4.9
		c0.6-3.1-0.2-4.8,0.1-7.6c-1.1,1.3-2,2-2.9,2.4c-0.7-3.3,1.3-6.1,4.4-5c0-2.7,2.3-5,3.5-7.5c0.8,2.2,0.2,5.7,0.3,8.5
		c1.2-3,3.9-3.4,5.3-7.9c-0.9,6.4,5,8.7,5.2,14.2c0.8-0.7,1.1-1.8,1.4-2.7c1.3,1.6,2.2,4.3,2.6,7c0.7-1.3,1.2-2.5,1.3-3.5
		c1.4,1.5,1.9,4.3,2,7.4c1.2-1,1.9-2.3,2.2-3.8c1.1,2.6,1.7,5.4,1.6,8.5l1.6-4.3c0.9,1.8,1.5,4.1,1.8,6.9c0.6-1.2,1.1-2.4,1.4-3.9
		c0.9,1.1,1.8,2.5,2.8,4.4c-0.5-2-0.8-4.2-1.5-6.2c-0.1-0.2-0.1-0.4-0.2-0.5c0.4-1.5,1.2-4.3,0.9-6.9c-0.4-3.7-2-6.6-2-6.6
		c0.1,1.9-0.4,3.8-0.4,6.6c0,1.3,0.1,2.5,0.2,3.7c-0.9-2.2-1.5-4.4-1-7.6c-0.8,0.8-1.3,2.2-1.8,4c-1-3.5-2.7-6-2.9-10.4
		c-0.5,1.5-1.1,2.4-1.8,2.9c0-1.8-0.7-3.2,0.1-5.4c-0.8,1-1.7,1.7-2.6,2c-1.8-1.8-0.4-5-1.5-7.8c1.1,0.6,2.1,1.6,2.7,3.6
		c1-1.5,1.3-2.9,1.4-4.3c1.2,2.5,2.6,3.4,3.2,7.8c0.3-1.2,0.5-3.2,0.2-4.6c0,0,1.8,3.6,4.5,6.2c0.9,1,5.7,7.2,6.1,8.9
		c0.5-0.3,1-0.8,1-1.4c1.6,2,2.6,3.7,2.7,5c0.5-0.3,0.8-0.9,0.8-1.9c0.8,0.8,1.5,2.2,2,4.1c-0.1-1.7,0-5.4,0.2-8.5
		c0.5-7.5,4.1-9.7,5.8-15.4c0.1,1.7,0,3.4-0.3,5c-0.3,1.7-0.8,3.2-1.2,4.9c0.7-1.3,1.4-2.4,1.9-3.8c0.5-1.3,0.8-2.9,1.1-4.3
		c-0.1,7,0.5,14-1.1,21c-0.4,1.6-0.9,2.6-1.4,4.1c0.6-0.3,1.1-0.6,1.5-1l-3.8,13.8l4.3-2.3l-2.8,6.1l3.6-2.4l-4.3,7l3.2-0.8
		l-3.9,4.4l3.2-0.7l-3.3,3.7l2,0.3l-1.8,2.6c-0.9,0.8-2.9,2.4-5.4,3.4c-2.3,1-5.5,1.1-7.5,1.4c2.8,0.6,3.2,0.9,1.6,1.1
		c-1.7,0.2-8,0-9.7,0.4c-0.6,0.2,1.2-1.1,0.6-1.2c-1.4-0.2-4.9,0.9-5.7,1c-0.3,0,0.5-0.7,1.5-1.4c-2.8,0.4-4.5,2-6.7,2.5
		c-2.6,0.5-5.9,1.9-7.7,4.7c-1.3,2-1.1,4.5-2,7.2c-0.7,2.1-2,3.3-2.3,3.7c0.8,0.1,1.7-0.1,2.5-0.7c-0.7,1.7-2,3.1-3.6,4.4
		c1,0,1.9,0,2.5-0.5c-0.2,0.7-1,2.6-2.9,3.5c-1.4,0.6-3-0.8-5.1-2.6c-2.5-2.2-4.6-5.5-4.6-5.5c1.1,3.9,3.4,7.5,7.2,10.7
		c-0.9,0.4-1.6,0.9-2.2,2.1c0.9-0.1,2.1-0.2,3.1,0.1c-2.9,2.9-5.4,6.8-6.7,14.9c0.7-2.2,1.6-4.2,2.9-5.9c-1.1,6,0.2,12.3,2,15
		c-0.7-3.7-1.1-7.1-0.7-10c0.4-2.6,1.3-5.1,2.9-6.9c0,4.1,0.3,8.2,1.2,11.5c1.3,4.4,3.5,7.7,5.5,10.6c-1.1-3.8-2.2-7.5-2.6-11.4
		c-0.2-2.3-0.3-4.8,0.2-7.3c1.9,2.2,3.7,4.4,5.6,6.3c2.4,2.3,5,4.4,7.4,6.3c-1.8-2.4-3.7-4.8-5.3-7.6c-0.8-1.5-1.5-3.2-2.3-4.9
		c2.3,1,5.7,1.9,8,2.3c0,0-2.5-1.2-5-3.4c-2-1.8-4.1-4.3-5-6.5c-0.8-1.9-1.3-5.8-1-6.9c0.4,0.7,0.9,1.5,1.5,1.8
		c-1-3-0.6-6.3-0.3-6.9c1.3-2.2,5.7,0.7,13.3-1.3c3.5-1,5.9-3.6,7.5-6.3c1.8-3.2,2.5-6.5,4.2-7.6c0.9-0.5,2.3-0.9,3.8-1.3l-2.4,3
		l6.8-3.2l-6.4,5.3l3.4,0.2c-1.4,2.1-4.4,4.2-6.2,6c-0.9,0.9-0.9,1.8-2.1,3c-1.4,1.6-4,3.3-5.9,4.6c-1.7,1.1-4.1,1.3-5.2,1.4
		c1.5,0.6,2.4,1.2,2.5,2.3c-1.8,0.4-3.6-0.2-5.4-1.4c0.7,1,2,2.2,3.7,2.6c1.3,0.4,2.8-0.1,4.7-0.3c-1.1-0.7-1.2-1.7-2-2.2
		c1.3,0,2.8-0.6,4.4-1.1c1.9-0.6,3.8-1.1,4.5-1.8c1.3-1.2,1.5-1.9,2.6-2.8c1.1-0.9,3.6-0.9,4.8-2c1.2-1.1,1.1-4.3,1.1-4.3
		s2.7-0.6,5.6-0.8c2.9-0.2,6.3,0.2,7.4,0.4c-1.2-1-3.3-1.7-5.9-2.5c2.5-1.3,5-1.9,7.6-2.1c-1.9-0.8-4.4-0.8-7.1-0.8
		c1.4-1.9,3.5-3.7,6.3-5.1c-1.7-0.1-3.4,0.5-5,1.3c3.9-3,3.8-6.4,7.2-9c-1.9,0.1-4.2,2.2-3.9,1.1c0.3-1.1,5.4-6.1,7.5-7.1
		c-1.2,0-2.1,0.3-3.5,0.6c3-2.6,4.8-6,9.2-7.2c-3.3-0.2-4.8,0.9-7.2,1.4c0,0,2.4-2.5,3.5-5.1c-0.8,0.5-1.8,0.8-3,0.9
		c-2.7,0.2-6.1-2-7.2-6.9c-0.6-2.9-0.8-6.1-0.8-9.5c0-1.2,0.1-2.3,0.1-3.5c0.1-2.9,0.4-5.9,0.6-8.9c0.1-1.2,0.2-2.4,0.2-3.6
		c0.5-7.7,0.5-15.5-1.9-22.3c-2.4-6.7-7.2-11.5-11.7-13c4.3,4.2,7.5,9.5,7.6,16.3c0,4.1-0.3,7.9-0.8,11.7c-0.2,1.6-0.5,3.3-0.7,4.9
		c-0.6,3.9-1.2,8-1.5,12.5c-3-2-5.9-4.4-8.4-7.1c-1.2-1.2-2.2-2.6-3.2-4c-1.8-2.6-3.2-5.5-3.8-8.5
		C442.6,412,444.8,406.6,448.8,406.4z M367.1,486.3c1.1,0,2,0.8,2,1.7c0,0.9-0.9,1.7-2,1.7c-1.1,0-2-0.8-2-1.7
		C365.1,487.1,366,486.3,367.1,486.3z M356.4,485.7c2.5,0.1,4.8-0.1,6.7-0.1c-0.5,0.6-0.8,1.5-0.8,2.4c0,0.2,0,0.4,0.1,0.5
		c0.7,0.3,1.3,0.9,1.3,1.6c0,0.2-0.1,0.4-0.1,0.6c0.7,0.7,1.6,1.1,2.6,1.1c2.1,0,3.8-1.7,3.8-3.8c0-0.3,0-0.5-0.1-0.8
		c1.7,0.9,2.5,2.1,3.1,3.1c0.6,1.1,0.7,2.7-0.5,4.1c-1.4,1.6-3.7,3.3-8.3,2.4c-3.3-0.6-5.1-2.4-6.1-4.4
		C356.2,489.3,356.4,485.7,356.4,485.7z M432.9,486.3c1.1,0,2,0.8,2,1.7c0,0.9-0.9,1.7-2,1.7c-1.1,0-2-0.8-2-1.7
		C430.8,487.1,431.7,486.3,432.9,486.3z M442,492.5c-1.1,2-2.8,3.8-6.1,4.4c-4.6,0.9-7-0.8-8.3-2.4c-1.2-1.4-1.1-2.9-0.5-4.1
		c0.5-1,1.4-2.2,3.1-3.1c-0.1,0.3-0.1,0.5-0.1,0.8c0,2.1,1.7,3.8,3.8,3.8c1,0,1.9-0.4,2.6-1.1c-0.1-0.2-0.1-0.4-0.1-0.6
		c0-0.7,0.5-1.3,1.3-1.6c0-0.2,0.1-0.4,0.1-0.5c0-0.9-0.3-1.7-0.8-2.4c1.9,0,4.2,0.1,6.7,0.1C443.5,485.7,443.7,489.3,442,492.5z"/>
	<path fill="#1D2087" d="M539.3,461.5c-0.9,7.8,0.2,16.2,3,25.1c0.1-3.7,0.1-10.4,2.2-16c2.1-5.8,6.6-9.5,9.9-7.5
		c3.8,2.3-0.9,11.4-3.8,15.4c6-3.3,11.5-14.2,12.9-25.6c1.9-15.9-5.2-24.6-5.9-36.6c-0.4-6.3,0.7-10.6,4.4-17.4
		c-5.3,5.4-9.1,11.4-9.5,21.6c-0.3,8.9,3.4,16.1,2.7,24.3c-0.8,8.2-5.4,12.3-7.9,11.9c-4.2-0.7-1.7-8.8,1-13.1
		C543.1,447.5,540.2,453.7,539.3,461.5z"/>
	<path fill="#1D2087" d="M558.4,477.8c-10.8,11.9-22.3,18.3-32.6,31.4c-5.4,6.9-8.9,14.1-10.3,20.3c1.2-1.4,7.2-9.1,10.6-6.2
		c3.2,2.6-1.9,15.2-16.6,24.7c-19.4,12.6-30.9,11.4-31.4,8.1c-0.7-5.4,14.7-7,24.2-15c8.1-6.8,11.4-15.4,13.1-21
		c-5,7.5-11.3,13.6-17.8,15.4c4.1-6.8,5.8-13.4,6.5-20.1c0.7-7-0.1-14-2.4-21.1c-1.5,1.9-2.9,4.2-4,6.6c1.4,10.3,0.1,20.2-5.2,26.6
		c-0.7-7.4,0.3-19.9,4.7-28.4c6.4-12.3,13.9-12.3,19-18.8c5-6.6,5.6-15.7,4.7-20.3c-1.2,6.2-4.1,12.2-7.5,12.2
		c-3.7,0-6.2-8.4-6.4-16.3c-0.1-6,0.8-11.6,3.5-11.9c2.3-0.2,4,1.3,4.6,5c0.5,3.1,0.5,7-0.2,10.7c2.7-3.1,5-11.4,2-18.2
		c-4.1-9.3-14.5-19.6-20.1-27.5c-4-5.6-4.4-9.1-2.9-11.4c1.3-2.1,4.9-1.2,8.3,2c4.6,4.3,8,10.2,9.6,14.5c-1.4-9.8-6.7-19-14.4-26.7
		c-9.8-9.7-22.1-16.3-34.5-23.6c-6.9-4.1-11.5-9.5-16.3-14c2.5,4.5,7.4,10.3,12.2,15c6.5,6.4,14.5,10.8,18.9,18.3
		c6,10.2,4.7,21.7,1,21.8c-2,0.1-2.8-3.4-3.9-8.3c-1.4-6.4-1.9-13.7-1.9-16.4c-1.9-2.5-4.3-4.6-6.2-6.2c-0.3,13.2,1.2,26.6,4.4,37.5
		c3.3,10.9,8.7,22.6,15.4,30.2c-1.5-4-4.9-13.6-4.8-23.9c0-6,1.8-11.1,5.6-11.1c4.5-0.1,7.6,8.4,7.7,18.7c0,8.6-1.9,18.6-7.7,25.3
		c-1.1-5.8-5.2-11.4-10.5-14.5c1.2,1.5,3.5,5.3,3.9,8.7c0.2,1.4,0.2,2.7,0,3.8c1.3-0.1,2.7,0,4,0.6c-1.6,0.8-3,1.5-4.1,2.6
		c2.2-0.3,4.3-0.3,6.5,0.4c-1.5,1.4-3.4,2.1-5.6,2.4c2.9,0.9,4.6,2.3,5.4,4.1c-1.9,0-4,0.1-5.8,0.8c1.5,0.3,2.6,0.9,3.1,1.9
		c-1.3,0.3-2.9,0.7-4.1,1.7c2.2,0,4.5,0.1,6.4,1.5c-1.2,0.6-2.5,0.9-3.7,1.3c-0.9-0.6-1.8-1-2.9-1.1c-1.9-0.2-3.3,0.5-5.7,2.9
		c2.2-1,4.2-1.1,6-0.9c-0.6,0.3-1.2,0.8-1.6,1.4c0.7,0,1.4,0,2,0.1c-1.7,0-3.3,0.7-5.5,1.7c2.1,0,4-0.2,5.6,0.2c0,0,0,0,0,0
		c-0.4,0.2-0.9,0.4-1.3,0.6c-0.3-0.1-0.6-0.1-0.9-0.1c-1.9-0.2-3.3,0.5-5.7,2.9c1.2-0.6,2.4-0.8,3.6-0.9c-0.3,0.2-0.5,0.5-0.7,0.8
		c1.1-0.1,2.3,0.1,3.4,0.6c-0.7,1.4-4.9,1.9-7.1,3.6c0,0,2.3-0.1,4.2,0.3c1.2,0.2,2.2,0.9,2.4,1.2c0.4,1-4,3.7-4,3.7
		c1.3,0.1,3,0.4,4.2,1.3c-1.5,0-3.4,0.3-4.9,1c1.4,0.4,2.6,1,3.7,2c-1.2,0.1-2.4,0.4-3.7,1c-1.1-0.1-2.2-0.3-3.2-0.8
		c0.2,0.6,0.7,1.3,1.7,2c-1.1,0.5-2.3,0.7-3.5,0.8c0.6,0.3,1,0.8,1.1,1.6c-1.4-0.1-2.8,0.2-4.1,0.7c1.4,0.4,2.5,1,3,2
		c-1.9,0-3.8,0.3-5.7,0.9c-0.5-0.5-1-1-1.6-1.4c1-0.1,2.5-0.4,4.6,0.4c0,0-1.1-1.2-2.4-2.3c-1-0.9-2.2-1.6-2.9-1.6
		c-1.6-0.2-2.6,1.5-3.5,1.6c0.6,0.6,1.7,1,1.9,1.9c-0.9-0.2-2.3-0.2-3.5,0.3c1.1,1.1,3.4,1.7,3.4,3.2c-1.3-0.6-3-0.9-5.1-0.8
		c0.9,0.7,1.5,1.6,1.8,2.8c-1.2-0.6-3.1-0.7-5.4-0.5c1,0.9,1.9,1.8,2,3.1c-1.4,0.5-2.6,1.4-3.6,2.8c1.3-0.4,2.7-0.6,3.9-0.6
		c1.1,0,2.1,0.4,3.1,0.8c0.3,0.3,0.6,0.7,0.8,1.2c-5.2-0.2-7.8,1.4-11.8,0.8c1.2,2.1,4.4,1.4,7.9,3c-1.6,0.6-3.9-0.1-5.6,1.1
		c1.1,0.4,1.8,0.9,1.9,1.6c-2-0.9-3.9-1.5-5.5-1.3c0.6,0.4,0.9,1,0.8,1.7c-1.1-0.6-2.6-1-5-0.8c1,0.6,1.7,1.2,1.8,1.9
		c-1.2-0.4-2.5-0.4-3.6,0c2.8,1.6,4.4,3.7,9.2,3.6c-0.8-0.5-1.4-1.1-1.8-2c1.5-0.1,2.8,0.2,4.1,0.9c-0.5-1.2-1.1-2.1-1.7-2.7
		c1.7,0.1,3.2,0.4,4.5,1c-0.1-0.8-0.2-1.4-0.6-1.8c0.4,0.1,1.9,0.3,2.5,0.5c-0.3-0.4-0.7-1.2-0.9-1.7c1.4,0.7,2.7,1.5,3.4,3.5
		c-1.3-0.4-2.8-1-4.2-1c0.9,0.7,1.7,1.4,1.9,2.3c-1.6-0.7-3.5-1.5-5.5-1.6c1.3,1.1,2.2,2.2,2.6,3.3c-1.8-0.2-2.9,0.5-4.9,0.3
		c0,0,2.5,1,1.2,1.3c-0.6,0.1-2.7,0.2-4.8-0.3c-2.3-0.5-4.6-1.2-6.8-2.4c0.2,0.4,1.8,2.1,4,3.1c1.9,0.9,4.2,1.3,6.4,1.3
		c0.6,0,1.1,0,1.6-0.1c1.2,0.4,2.2,0.9,3,1.7c-4.2,0.8-7.5,0.1-11.3-0.1c1,1.7,3.2,3.4,6,5c-1,0.2-2.1,0.3-3.5,0.1
		c0.4,0.7,4.6,2.6,6.6,3.1c0.9,0.2,3,0.7,5.5,0.9c0.8,1.6,2,2.8,3.5,3.9c-1.8,0-3.5-0.6-5.1-1.5c0.7,1.4,1.9,2.7,3.6,3.8
		c0,0-1.8-0.3-4.2-1.2c-2.4-0.9-3.7-2.4-6.9-4.8c-3.2-2.3-8.6-4.6-8.6-4.6c1.3,1.6,4.2,7.1,4.6,10.5c0.4,3.4-0.8,7.9-0.8,7.9
		s1.4-1.5,2.5-3.1c1.3-1.9,2.5-3.9,2.9-3.9c0.9,0,0.7,0.9-0.1,4.1c-0.8,3.2-5.8,6.8-7.5,7.3c-0.7,0.2-0.6-0.4-0.4-1.4
		c0.7-0.8,1.3-1.7,1.5-2.6c0.8-3.1,0.3-7.1-0.2-8.3c-0.8,4.6-3.6,8-6.3,9.2c0.9-2.4,1.2-4.4,0.8-6c-0.5,2.4-2.4,5.3-4.7,5.9
		c0.9-2.5,1.2-3.5,1-5.8c-0.9,2.5-2.5,4.3-4,5.2c0.7-1.4,0.6-3.6,0.4-4.9c-0.5,1.4-1.3,3-2.9,4.8c0.3-2.1,0.3-4.4-0.1-6.4
		c-0.6-3.6-2.1-5.9-2.1-5.9c0.5,3.2,0.9,6.4,0.6,6.8c-0.3,0.4-1.2-2.6-2.4-4c1,2.6,1.1,5.4,0.9,5.9c-0.3,0.6-1.4-1.4-2.4-2.3
		c1.2,2.7,0.9,7.1-0.3,4.3c-0.4,3.6-1.5,2.8-2.5,0.5c-0.9,3.1-2.7,3.2-4.3,1.6c-0.4,2.1-1.7,2.3-2.8,1.7c-0.6,1.3-1.8,1.7-3.7,2.5
		c0,0,1.1-0.2,2.7-0.4c0.6-0.1,1.3-0.2,2.1-0.3c3.4-0.3,5.3-0.3,6.6,1c0.2,0.3,0.7,0.9,0.7,1.2c0,0.7-0.7,1.5-1.4,2.1
		c0,0-0.1,0-0.1,0c-2.5,0.6-4.8,3-5.6,2.1c-0.8-0.9,4.3-2.7,4.3-3.6c0.1-0.9-2.2-0.8-6.5,1.3c-4.3,2.1-5.5,5.3-4.4,4.3
		c1.1-1,3.6-0.8,2.6-0.1c-1,0.7-2.4,1.9-2.1,3.6c0.2,1.8,1.4,3.9,2.2,4.7c-0.9-2.7-0.8-5.2,1.1-7.4c-0.5,1.8-0.4,3.2,0.5,4
		c0,0-0.2-2,1.9-4c1.7-1.6,6.4-2.7,10.2-5.7c0.6,0.9,5.2,0.5,8.7,0c-0.1,0.1-0.3,0.2-0.4,0.3c-1.6,0.9-2.6,0.3-3.9,1.1
		c-1.3,0.8-1.1,1.2,0.7,1.2c1.8,0,3.7-1.1,5.4-1.7c1.7-0.5,3-1.8,5.9-2.2c1-0.1,1.7-0.1,2.3,0c0.2-0.1,0.4-0.2,0.6-0.3
		c5.9-4.2,13.7-8.2,19.8-7.8c-4,0.3-10.5,2.7-16.1,6.3c4.2-1.3,9.2-1.7,12.4-1.7c6,0,14-0.7,18.7-1.7c-5.7,1.8-12.2,2.5-18.6,2.5
		c-5.6,0-12.1,1.2-15.6,3.2l-0.2,0.1c0.2,0.2,0.3,0.4,0.3,0.7c10.3,0.4,23-0.5,29.1-2.1c-7.3,2.5-19.5,3.3-29.2,3.2
		c-0.5,1.1-2.2,0.9-3.3,1.6c-1.3,0.7-2.3,1.7-3.1,2.4c-0.8,0.7-2-0.1-4.3,0.6c-2.3,0.7-1.3,1.5-2.8,2.1c-1.5,0.6-3,0.4-4.9,0.6
		c-1.8,0.2-4,0.4-2.7,1.3c1.3,0.9,3.3-0.6,5.1-0.5c1.8,0.1,2.5,0.7,4.4,0.8c1.8,0.1,1.9-0.5,3-1.1c1.1-0.5,1.7-0.2,3-0.7
		c1.3-0.5,1.5-0.9,2.4-2.3c0.8-1.2,2-1.3,2.8-0.9c16.7-4.6,36.1-6.5,45.5,0.7c-11.9-6.2-29.5-4.1-44.9,0.3c0,0.1-0.1,0.1-0.1,0.2
		c3.2,0.9,6.3,1.5,9.4,2.2c12.7,0.3,25.4,1.8,32.7,6.6c-7.7-3.7-17.7-5-28-5.4c8.1,2.5,16,7.1,24.5,20c-4.9-6.7-11.1-12.7-17.9-16.1
		c-3.6-1.8-7.2-3-11-4c-4.3-0.1-8.6,0-12.7,0.1c-0.2,0.2-0.5,0.5-0.7,0.8c-0.2,0.2-0.4,0.4-0.7,0.5c6.9,2.3,16.1,5.7,22.7,10.9
		c5,1.9,9.2,4.6,11.7,8.4c-2.6-2.8-5.9-4.9-9.5-6.5c2.1,2,3.8,4.2,5,6.7c-1.5-2.8-3.8-5.2-6.5-7.4c-7.4-2.9-16.1-3.9-24.6-3.9
		c5.9,2.6,11.8,6.5,13.7,10.1c7.5,0.7,14.7,1.5,21.4,2.4c7,0,13.9-0.5,20.5-2.9c17-6.2,23.8-20.4,26.6-27.9
		c-3.3,5-5.5,8.4-13.7,13.6c-7.8,4.9-17.1,6.1-19.1,2.1c-2.5-4.9,4.5-11.5,13.3-15.5c12.1-5.5,27.7-7.3,40.5-19.5
		c9.9-9.4,16.5-21.4,14.8-34c-1.8,10.8-7.2,16.8-13,13.5c-1.9-1.1-2.8-6.4,0.4-11.7c6-9.7,20.1-21.3,25.9-33
		c3.2-6.6,2.7-14.4,1.6-17.4C566,465.8,564.4,471.1,558.4,477.8z M476.1,494.1c0.9,0.3,1.4,0.8,1.6,1.4c-1.2,0.5-2.6,0.1-3.7,0.6
		c0.8,0.1,1.7,1,2.1,1.8c-1-0.7-2.1-1.4-3.5-1.8C473.8,495.7,475.1,494.9,476.1,494.1z M476.2,498.6c-0.1,0.5-0.6,1.2-1.3,1.8
		c-0.6-0.7-1.2-1.1-1.9-1.4c0.8-0.6,1.9-0.8,3.2-0.9C476.2,498.3,476.2,498.4,476.2,498.6z M474.6,500.7c-0.7,0.6-1.6,1.1-2.4,1.3
		c0,0.2,0,0.4,0,0.7c-0.2-0.5-0.5-0.9-0.8-1.1C472.5,500.9,473.5,500.6,474.6,500.7z M464.9,502.1c-0.2-0.4-0.5-0.8-0.8-1.2
		c1.4,0.6,2.5,1.4,3.3,2.5c-1.3-0.2-3.1-0.2-4.3,0c-0.4-0.5-0.9-1-1.4-1.5C462.6,501.8,463.6,501.8,464.9,502.1z M464.6,506.7
		c0.2,0.3,0.5,0.7,0.7,1c-1.7-0.2-3.6-0.3-5.3-0.2c-0.2-0.5-0.4-0.9-0.7-1.2C460.8,506.1,462.6,506.3,464.6,506.7z M456.3,508.2
		c-0.1-0.3-0.3-0.5-0.5-0.7c0.7,0,1.5,0.1,2.2,0.3C457.4,507.9,456.8,508,456.3,508.2z M453.7,516.3c0.6-0.3,1.3-0.5,2.5-0.9
		l-0.5-0.6c2.2-1.8,6.4-0.3,8.6-2.1l-1.7-1.5c1.5-2,5.2-2,7.2-4.2c-0.3-0.9-0.4-1-1.2-1.4c1.2-1.2,2.4-1.8,3.5-2.1
		c-0.2,0.8-0.5,1.7-1.2,2.7c-1.2,1.8-4.8,3.2-4.8,3.2c0.5,0.5,0.9,1.4,0.7,2.6c-0.2,0.2-1.4,1.3-3.7,2.1c-2.3,0.8-6.4,0.8-6.4,0.8
		l1.1,1.1C456.6,516.3,455.1,516.4,453.7,516.3z M455.4,537.8c0.8,0,1.7,0.1,2.6,0c0.2,0.6,0.6,1.2,1,1.8
		C457.7,539.3,456.5,538.6,455.4,537.8z M458.6,537.7c0.7-0.1,1.3-0.2,2-0.3c0.2,0.8,0.5,1.5,0.8,2.1
		C460.4,539.3,459.5,538.6,458.6,537.7z M462.2,537c0.3-0.1,0.6-0.3,0.9-0.4c0.1,0.3,0.1,0.6,0.2,0.9
		C462.8,537.4,462.5,537.2,462.2,537z M465.9,545.7c8.6-6.8,14.7-13.7,17.4-23.3c2-7.3,2.2-18.3-1.2-22.9c0.9,8.3,0.3,13.8-3.8,21.1
		c-3.1,5.4-8.5,9.8-12,9.6c-0.1,0-0.1,0-0.2,0c-0.1,0-0.2,0-0.3,0c-0.1,0-0.3-0.1-0.4-0.1c0,0-0.1,0-0.1,0c-0.1,0-0.2,0-0.2-0.1
		c-0.2-0.1-0.3-0.2-0.5-0.3c-0.1,0-0.1-0.1-0.2-0.1c-0.2-0.2-0.4-0.4-0.5-0.6c-0.1-0.2-0.2-0.3-0.3-0.5c0-0.1,0-0.1-0.1-0.2
		c0,0,0-0.1,0-0.1c0-0.1-0.1-0.2-0.1-0.3c0-0.1,0-0.1-0.1-0.2c0,0,0-0.1,0-0.1c0-0.1-0.1-0.2-0.1-0.3c0-0.1,0-0.1,0-0.2
		c0-0.1,0-0.2,0-0.3c0-0.1,0-0.3-0.1-0.4c0,0,0,0,0-0.1c0-0.2,0-0.5,0-0.8c0-0.1,0-0.2,0-0.3c0-0.2,0-0.4,0-0.5c0-0.1,0-0.3,0-0.4
		c0-0.1,0-0.3,0-0.4c0-0.3,0.1-0.7,0.2-1c0-0.1,0-0.1,0-0.2c0.6-3.2,2.2-7.2,4.7-11.2c3.5-5.4,8.1-10.7,12.4-17.8
		c3.3-5.4,5-10.5,6.3-15.1c0,0,0,0,0,0c0,0,0,0,0,0c1.1-3.9,2-7.4,3.5-10.4c3-5.9,6.5-8.2,9.8-7.3c3.7,1.1,4,5.1,3.5,10.6
		c-0.9,9.7-11.5,21.7-15.5,36.3c-4.3,16-2,29.8-1.9,32.1C479.7,541.1,472.9,543.1,465.9,545.7z"/>
	<path fill="#1D2087" d="M438.2,566.9c-0.3,0.4-0.6,0.7-0.9,1c2,0,4,0,6,0C441.6,567.6,439.9,567.2,438.2,566.9z"/>
	<path fill="#1D2087" d="M372.8,573.8c1.9,0.2,3.2,0.9,4.4,0.4c1.3-0.5,3.5-1,4.8-1c1.3,0,1.3,0.6,2.7,0.1c1.4-0.5,1.3-1.1,2.3-1.3
		c1-0.1,1.8,0,2-0.8c0.3-0.8-0.9-1.1-1.8-0.7c-1,0.4-2,1.3-3.4,1.3c-1.3-0.1-2-0.1-3.3-0.1c-1.3,0-2.1,0.8-4.1,0.6
		c-2-0.2-1.5-0.5-3.4-0.7c-1.8-0.2-2.6,0.6-3.8-0.2c-0.3-0.2-0.7-0.3-1.1-0.4c-0.7,0.2-1.4,0.4-2.2,0.6c0.6,0.2,1.2,1.1,2.4,1.6
		C370.2,573.9,370.9,573.6,372.8,573.8z"/>
	<path fill="#1D2087" d="M245.6,463.1c3.3-2,7.8,1.7,9.9,7.5c2,5.6,2,12.3,2.2,16c2.9-8.9,3.9-17.2,3-25.1c-0.9-7.8-3.8-14-8.9-17.9
		c2.7,4.3,5.2,12.4,1,13.1c-2.5,0.4-7.1-3.6-7.9-11.9c-0.8-8.2,3-15.4,2.7-24.3c-0.4-10.1-4.2-16.1-9.5-21.6
		c3.6,6.7,4.8,11.1,4.4,17.4c-0.7,12-7.8,20.7-5.9,36.6c1.3,11.5,6.9,22.3,12.9,25.6C246.5,474.5,241.8,465.4,245.6,463.1z"/>
	<path fill="#1D2087" d="M317,576.1c-2,4-11.4,2.8-19.1-2.1c-8.2-5.2-10.4-8.6-13.7-13.6c2.9,7.5,9.6,21.7,26.6,27.9
		c6.6,2.4,13.5,2.9,20.5,2.9c6.7-0.9,13.9-1.7,21.4-2.4c1.9-3.6,7.8-7.5,13.7-10.1c-8.4-0.1-17.2,0.9-24.6,3.9
		c-2.7,2.1-4.9,4.6-6.5,7.4c1.1-2.5,2.9-4.7,5-6.7c-3.6,1.6-6.8,3.7-9.5,6.5c2.5-3.8,6.7-6.5,11.7-8.4c6.6-5.2,15.8-8.6,22.7-10.9
		c-0.3-0.1-0.5-0.3-0.7-0.5c-0.2-0.3-0.5-0.5-0.7-0.8c-4.1-0.1-8.4-0.1-12.7-0.1c-3.7,1-7.4,2.2-11,4c-6.8,3.4-12.9,9.5-17.9,16.1
		c8.6-13,16.5-17.5,24.5-20c-10.3,0.4-20.4,1.7-28,5.4c7.3-4.9,20-6.3,32.6-6.6c3.1-0.8,6.2-1.4,9.4-2.2c0-0.1-0.1-0.1-0.1-0.2
		c-15.4-4.3-33-6.5-44.9-0.3c9.4-7.3,28.8-5.4,45.5-0.7c0.9-0.4,2.1-0.4,2.8,0.9c0.9,1.4,1.1,1.8,2.4,2.3c1.3,0.5,1.8,0.2,3,0.7
		c1.1,0.5,1.2,1.1,3,1.1c1.8-0.1,2.6-0.7,4.4-0.8c1.8-0.1,3.8,1.5,5.1,0.5c1.3-0.9-0.9-1.1-2.7-1.3c-1.8-0.2-3.4,0-4.9-0.6
		c-1.5-0.6-0.5-1.4-2.8-2.1c-2.3-0.7-3.5,0.1-4.3-0.6c-0.8-0.7-1.8-1.7-3.1-2.4c-1.1-0.7-2.8-0.5-3.3-1.6
		c-9.7,0.1-21.9-0.6-29.2-3.2c6.1,1.6,18.8,2.6,29.1,2.1c0-0.3,0.2-0.5,0.3-0.7l-0.1-0.1c-3.5-1.9-10-3.1-15.6-3.2
		c-6.4,0-12.9-0.7-18.6-2.5c4.6,1.1,12.6,1.8,18.7,1.7c3.2,0,8.2,0.4,12.4,1.7c-5.6-3.6-12.1-6-16.1-6.3c6.2-0.4,13.9,3.6,19.8,7.8
		c0.2,0.1,0.4,0.2,0.6,0.3c0.6-0.1,1.3-0.1,2.3,0c2.9,0.3,4.2,1.6,5.9,2.2c1.7,0.5,3.6,1.7,5.4,1.7c1.8,0,2-0.4,0.7-1.2
		c-1.3-0.8-2.3-0.2-3.9-1.1c-0.1-0.1-0.2-0.2-0.4-0.3c3.5,0.5,8,0.9,8.6,0c3.8,3,8.5,4.1,10.2,5.7c2.1,2,1.9,4,1.9,4
		c0.8-0.8,1-2.1,0.5-4c1.9,2.2,2,4.8,1.1,7.4c0.8-0.8,2-2.9,2.2-4.7c0.2-1.8-1.1-2.9-2.1-3.6c-1-0.7,1.5-0.9,2.6,0.1
		c1.1,1-0.2-2.1-4.4-4.3c-4.3-2.1-6.6-2.3-6.5-1.3c0.1,1,5.1,2.7,4.4,3.6c-0.8,0.9-3.1-1.5-5.6-2c-0.7-0.6-1.4-1.4-1.4-2.1
		c0-0.3,0.5-0.9,0.7-1.2c1.3-1.3,3.2-1.3,6.4-1c0.8,0.1,1.6,0.3,2.2,0.4c1.6,0.2,2.7,0.4,2.7,0.4c-1.9-0.8-3.1-1.2-3.7-2.5
		c-1.1,0.6-2.3,0.4-2.8-1.7c-1.6,1.6-3.4,1.5-4.3-1.6c-1,2.3-2.1,3.1-2.5-0.5c-1.2,2.8-1.6-1.6-0.3-4.3c-1.1,0.9-2.1,2.9-2.4,2.3
		c-0.3-0.5-0.1-3.3,0.9-5.9c-1.2,1.4-2,4.4-2.4,4c-0.3-0.4,0.2-3.6,0.6-6.8c0,0-1.5,2.3-2.1,5.9c-0.3,1.9-0.4,4.2-0.1,6.4
		c-1.7-1.8-2.4-3.5-2.9-4.9c-0.2,1.3-0.2,3.5,0.4,4.9c-1.6-0.9-3.2-2.7-4-5.2c-0.2,2.3,0,3.3,1,5.8c-2.3-0.6-4.2-3.6-4.7-5.9
		c-0.4,1.6-0.1,3.6,0.8,6c-2.8-1.2-5.5-4.6-6.3-9.2c-0.5,1.2-1,5.2-0.2,8.3c0.2,0.9,0.8,1.9,1.6,2.8c0.2,0.9,0.2,1.4-0.4,1.2
		c-1.6-0.5-6.7-4.1-7.5-7.3c-0.8-3.2-1-4.1-0.1-4.1c0.5,0,1.6,2.1,2.9,3.9c1.1,1.6,2.5,3.1,2.5,3.1s-1.2-4.4-0.8-7.9
		c0.4-3.4,3.3-8.9,4.6-10.5c0,0-5.5,2.2-8.6,4.6c-3.2,2.3-4.5,3.8-6.9,4.8c-2.4,0.9-4.2,1.2-4.2,1.2c1.7-1.1,2.9-2.3,3.6-3.8
		c-1.6,0.9-3.2,1.5-5.1,1.5c1.5-1,2.7-2.3,3.5-3.9c2.4-0.2,4.5-0.7,5.4-0.9c2-0.5,6.2-2.4,6.6-3.1c-1.4,0.2-2.5,0.1-3.5-0.1
		c2.8-1.7,5-3.4,6-5c-3.8,0.3-7.1,1-11.3,0.1c0.8-0.8,1.9-1.3,3.1-1.7c0.5,0.1,1.1,0.1,1.7,0.1c2.2,0,4.5-0.3,6.4-1.3
		c2.2-1.1,3.8-2.8,4-3.1c-2.1,1.2-4.4,1.9-6.8,2.4c-2.1,0.4-4.1,0.4-4.8,0.3c-1.3-0.2,1.2-1.3,1.2-1.3c-2,0.2-3.1-0.5-4.9-0.3
		c0.3-1.1,1.2-2.2,2.6-3.3c-2,0.1-3.9,0.8-5.5,1.6c0.2-0.9,0.9-1.6,1.9-2.3c-1.4,0-2.9,0.6-4.2,1c0.7-1.9,1.9-2.7,3.3-3.4
		c-0.3,0.5-0.6,1.3-0.9,1.6c0.6-0.2,2.1-0.3,2.5-0.5c-0.4,0.5-0.4,1.1-0.6,1.8c1.4-0.6,2.9-0.9,4.5-1c-0.6,0.6-1.1,1.5-1.7,2.7
		c1.2-0.7,2.6-1,4.1-0.9c-0.4,0.9-1.1,1.5-1.8,2c4.8,0.1,6.4-2.1,9.2-3.6c-1.1-0.4-2.5-0.4-3.6,0c0.1-0.7,0.7-1.4,1.8-1.9
		c-2.4-0.2-3.9,0.2-5,0.8c-0.1-0.7,0.2-1.3,0.8-1.7c-1.6-0.1-3.5,0.4-5.5,1.3c0.1-0.7,0.8-1.2,1.9-1.6c-1.7-1.1-4-0.5-5.6-1.1
		c3.5-1.6,6.7-0.9,7.9-3c-4,0.6-6.6-1-11.8-0.8c0.2-0.5,0.5-0.9,0.8-1.2c1-0.4,2-0.8,3.1-0.8c1.2,0,2.6,0.1,3.9,0.6
		c-1-1.4-2.2-2.3-3.6-2.8c0.1-1.3,1-2.2,2-3.1c-2.4-0.2-4.3-0.1-5.4,0.5c0.3-1.3,0.9-2.2,1.8-2.8c-2.1-0.1-3.9,0.2-5.1,0.8
		c0.1-1.5,2.3-2.1,3.4-3.2c-1.2-0.5-2.6-0.5-3.5-0.3c0.2-0.9,1.3-1.3,1.9-1.9c-0.9-0.1-1.9-1.8-3.5-1.6c-0.8,0.1-1.9,0.8-2.9,1.6
		c-1.3,1-2.4,2.3-2.4,2.3c2.2-0.8,3.6-0.5,4.6-0.4c-0.6,0.4-1.1,0.9-1.6,1.4c-1.9-0.5-3.9-0.9-5.7-0.9c0.6-1.1,1.7-1.7,3-2
		c-1.3-0.6-2.7-0.8-4.1-0.7c0.1-0.8,0.6-1.3,1.1-1.6c-1.2-0.1-2.4-0.3-3.5-0.8c1-0.7,1.5-1.4,1.7-2c-1,0.5-2,0.7-3.1,0.8
		c-1.3-0.6-2.5-0.9-3.7-1c1-1,2.3-1.6,3.7-2c-1.4-0.7-3.3-1-4.9-1c1.2-0.9,2.9-1.2,4.2-1.3c0,0-4.4-2.7-4-3.7c0.2-0.4,1.2-1,2.4-1.2
		c1.9-0.4,4.2-0.3,4.2-0.3c-2.2-1.7-6.4-2.1-7.1-3.6c1.1-0.5,2.3-0.6,3.4-0.6c-0.3-0.4-0.7-0.8-1.1-1.1c1.3,0,2.8,0.3,4.3,1
		c-2.4-2.5-3.8-3.1-5.7-2.9c-0.5,0.1-1,0.2-1.4,0.3c-0.5-0.2-0.9-0.4-1.4-0.6c0.2-0.1,0.4-0.1,0.7-0.2c1.7-0.4,3.5-0.2,5.6-0.2
		c-1.6-0.7-2.9-1.3-4.1-1.5c0.1,0,0.1,0,0.2,0c-0.6-0.7-1.2-1.2-2-1.5c0,0,0.1,0,0.1,0c1.9-0.3,4.2-0.3,6.6,0.8
		c-2.4-2.5-3.8-3.1-5.7-2.9c-1.3,0.1-2.3,0.6-3.3,1.4c-1.2-0.3-2.5-0.6-3.7-1.3c1.9-1.4,4.2-1.6,6.4-1.5c-1.2-1-2.8-1.5-4.1-1.7
		c0.6-1,1.6-1.6,3.1-1.9c-1.8-0.7-3.9-0.9-5.8-0.8c0.8-1.8,2.5-3.2,5.4-4.1c-2.2-0.3-4.1-1-5.6-2.4c2.2-0.7,4.3-0.7,6.5-0.4
		c-1.1-1.2-2.5-1.9-4.1-2.6c1.3-0.5,2.7-0.6,4-0.6c-0.2-1.2-0.1-2.5,0-3.8c0.4-3.4,2.8-7.3,3.9-8.7c-5.3,3.1-9.4,8.7-10.5,14.5
		c-5.8-6.7-7.7-16.7-7.7-25.3c0.1-10.4,3.1-18.8,7.7-18.7c3.8,0.1,5.6,5.1,5.6,11.1c0.1,10.3-3.4,19.9-4.8,23.9
		c6.7-7.6,12.1-19.3,15.4-30.2c3.3-10.9,4.8-24.3,4.4-37.5c-1.9,1.6-4.3,3.7-6.2,6.2c-0.1,2.7-0.5,10-1.9,16.4
		c-1.1,4.8-1.8,8.3-3.9,8.3c-3.7-0.1-5-11.5,1-21.8c4.3-7.4,12.4-11.8,18.9-18.3c4.8-4.7,9.6-10.5,12.2-15c-4.8,4.5-9.4,10-16.3,14
		c-12.4,7.3-24.7,13.9-34.5,23.6c-7.7,7.7-12.9,16.9-14.4,26.7c1.7-4.4,5.1-10.2,9.6-14.5c3.4-3.2,7-4.1,8.3-2
		c1.5,2.3,1.1,5.7-2.9,11.4c-5.6,7.9-16,18.2-20.1,27.5c-3,6.8-0.7,15.1,2,18.2c-0.6-3.7-0.7-7.6-0.2-10.7c0.6-3.7,2.3-5.2,4.6-5
		c2.7,0.3,3.7,5.9,3.5,11.9c-0.2,7.9-2.7,16.3-6.4,16.3c-3.3,0-6.2-6-7.5-12.2c-0.9,4.6-0.3,13.7,4.7,20.3c5,6.6,12.6,6.5,19,18.8
		c4.4,8.5,5.4,21.1,4.7,28.4c-5.3-6.3-6.6-16.2-5.2-26.6c-1-2.4-2.5-4.7-4-6.6c-2.3,7.1-3.1,14.1-2.4,21.1
		c0.7,6.8,2.5,13.3,6.5,20.1c-6.5-1.8-12.7-7.9-17.7-15.4c1.7,5.6,4.9,14.2,13.1,21c9.5,8,25,9.7,24.2,15c-0.5,3.3-12,4.6-31.4-8.1
		c-14.6-9.5-19.7-22.1-16.6-24.7c3.4-2.8,9.4,4.8,10.6,6.2c-1.4-6.2-4.9-13.4-10.3-20.3c-3.5-4.4-7.1-8.1-10.8-11.5
		c-0.5-0.5-1.3-1.2-1.9-1.7c-6.6-5.8-13.4-11-19.9-18.2c-6-6.7-7.7-12-8.2-19.1c-1.1,3-1.6,10.8,1.6,17.4
		c5.7,11.7,19.8,23.3,25.9,33c3.3,5.3,2.3,10.6,0.4,11.7c-5.8,3.3-11.2-2.7-13-13.5c-1.7,12.6,5,24.7,14.8,34
		c12.8,12.2,28.5,13.9,40.5,19.5C312.6,564.7,319.5,571.2,317,576.1z M336.8,537.5c0-0.3,0.1-0.6,0.1-0.9c0.3,0.2,0.6,0.3,0.9,0.4
		C337.5,537.2,337.2,537.4,336.8,537.5z M344.6,537.8c-1.1,0.9-2.3,1.5-3.6,1.8c0.4-0.6,0.7-1.2,1-1.8
		C342.9,537.8,343.8,537.8,344.6,537.8z M338.6,539.6c0.3-0.6,0.6-1.3,0.8-2.1c0.6,0.1,1.3,0.2,2,0.3
		C340.5,538.6,339.6,539.3,338.6,539.6z M344.1,507.5c-0.2,0.2-0.3,0.5-0.5,0.7c-0.6-0.2-1.1-0.3-1.7-0.4
		C342.7,507.6,343.4,507.5,344.1,507.5z M340.6,506.4c-0.3,0.3-0.5,0.8-0.7,1.2c-1.8-0.1-3.6,0-5.3,0.2c0.2-0.4,0.5-0.7,0.7-1
		C337.3,506.3,339.1,506.1,340.6,506.4z M335.9,501c-0.3,0.4-0.6,0.7-0.8,1.2c1.2-0.3,2.3-0.3,3.2-0.2c-0.5,0.5-1,1-1.4,1.5
		c-1.2-0.2-3-0.2-4.3,0C333.3,502.4,334.5,501.6,335.9,501z M331.3,505.7c-0.7,0.4-0.8,0.5-1.2,1.4c2.1,2.2,5.8,2.2,7.2,4.2
		l-1.7,1.5c2.2,1.8,6.4,0.3,8.6,2.1l-0.5,0.6c1.2,0.4,1.9,0.6,2.5,0.9c-1.4,0-2.8-0.1-4.1-0.5l1.1-1.1c0,0-4.1,0-6.4-0.8
		c-2.3-0.8-3.5-1.8-3.7-2.1c-0.1-1.2,0.2-2,0.7-2.6c0,0-3.6-1.4-4.8-3.2c-0.6-1-1-1.9-1.2-2.6C329,503.9,330.2,504.5,331.3,505.7z
		 M327.7,502.4c0-0.2,0-0.3,0-0.5c-0.8-0.2-1.7-0.7-2.4-1.3c1,0,2.1,0.2,3.1,0.9C328.2,501.7,327.9,502.1,327.7,502.4z M325,500.4
		c-0.7-0.6-1.1-1.3-1.2-1.8c0-0.1,0-0.3,0-0.4c1.2,0.1,2.3,0.4,3,0.9C326.2,499.3,325.6,499.7,325,500.4z M323.8,494.2
		c1,0.8,2.2,1.5,3.5,2c-1.3,0.4-2.4,1-3.3,1.7c0.4-0.8,1.3-1.6,2-1.7c-1-0.5-2.5-0.1-3.7-0.6C322.5,494.9,323,494.5,323.8,494.2z
		 M313.7,540c0.1-2.3,2.4-16.1-1.9-32.1c-3.9-14.6-14.5-26.6-15.5-36.3c-0.5-5.5-0.3-9.6,3.5-10.6c3.4-1,6.8,1.4,9.8,7.3
		c3.3,6.4,3.7,15.5,9.9,25.5c4.4,7,9,12.4,12.4,17.8c2.5,3.9,4.1,7.8,4.7,11c0,0-0.1,0-0.1,0c0.3,1.4,0.4,2.7,0.3,3.8
		c0,0.2,0,0.3-0.1,0.4c0,0.1,0,0.2,0,0.4c0,0.2-0.1,0.3-0.1,0.4c0,0.1,0,0.2-0.1,0.3c0,0.1-0.1,0.3-0.2,0.4c0,0.1-0.1,0.2-0.1,0.3
		c-0.1,0.2-0.2,0.4-0.3,0.6c-0.2,0.2-0.3,0.4-0.5,0.6c-0.1,0.1-0.2,0.1-0.2,0.2c-0.1,0.1-0.3,0.2-0.4,0.2c-0.1,0-0.2,0.1-0.3,0.1
		c-0.1,0.1-0.3,0.1-0.5,0.1c-0.1,0-0.2,0-0.3,0c-0.2,0-0.3,0-0.5,0c-3.5-0.2-8.7-4.4-11.6-9.6c-4.1-7.3-4.7-12.8-3.8-21.1
		c-3.4,4.6-3.2,15.6-1.2,22.9c2.7,9.6,8.9,16.5,17.4,23.3C327.2,543.1,320.3,541.1,313.7,540z"/>
	<path fill="#1D2087" d="M344.6,580.7c7-2.3,15.3-3.1,23.3-3c0.1-0.3,0.4-0.4,0.9-0.4c1.9,0.2,3,0.7,5.1,0.7c2.1,0,3.9-0.1,5-0.2
		c1.1-0.1,1.8,0.3,3,0.1c1.3-0.1,3.6-0.8,3.9-1.6c0.3-0.8-1.7-0.1-3.1-0.1s-1.3,0.4-2.9,0.3c-1.6-0.1-1.6-0.6-3-0.6
		c-1.4,0-2,0.9-4.2,0.7c-2.2-0.2-3.9-0.4-5.1-1.4c-1.3-1.1-3.4-2.2-2.4-3.2C359.4,573.5,351.2,576.3,344.6,580.7z"/>
	<path fill="#1D2087" d="M400.6,569.5c-0.3-0.1-1-0.1-1.3,0c-0.6-0.1-1.1-0.3-2.3-1c0,0,1.6,2,1.3,4c-0.3,2-2.4,4.5-4.6,5.8
		c-2.2,1.3-2.2,2.6-7.3,3.3c-5.1,0.7-14.3,0.5-16.2-0.5c-0.8-0.4-1.4-1.1-1.9-1.8c-6.6,2.2-12.1,5.9-15.2,9.6
		c7.1-0.6,14.5-1.1,22.3-1.5c-0.3-0.1-0.6-0.2-0.9-0.3c-1.4-0.4-2.6-1-3.4-1.5c0.1-0.1,0.2-0.1,0.3-0.2c1.7-0.9,4.8,0.4,7.9,0.1
		c3.1-0.3,5.5-1,7.3-2.2c-0.3,1.1-1.1,2.1-2.2,3c0,0,1.6-0.3,3.2-0.9c1.2-0.4,2.3-1.1,2.9-1.5c1.5-0.8,0.1,1.8,0.1,1.8
		s1.3-0.8,2.4-1.9c1.1-1.1,2.1-2.4,2.6-2.6c1.1-0.3,0.4,2.4,0.4,2.4s1.1-1.2,1.9-2.7c0.8-1.5,1.2-3.2,2.2-3.6c1,0.4,1.4,2.1,2.2,3.6
		c0.8,1.5,1.9,2.7,1.9,2.7s-0.7-2.6,0.4-2.4c0.5,0.1,1.5,1.5,2.6,2.6c1.1,1.1,2.4,1.9,2.4,1.9s-1.3-2.6,0.1-1.8
		c0.6,0.3,1.8,1,2.9,1.5c1.6,0.6,3.2,0.9,3.2,0.9c-1.1-0.9-1.9-1.9-2.2-3c1.7,1.3,4.1,2,7.3,2.2c3.1,0.3,6.2-1.1,7.9-0.1l0.1,0
		c-0.9,0.5-2.1,1.1-3.7,1.6c-0.3,0.1-0.6,0.2-0.8,0.2c7.9,0.4,15.5,0.9,22.7,1.5c-3.1-3.6-8.6-7.4-15.2-9.6
		c-0.4,0.7-1.1,1.4-1.9,1.8c-1.9,1-11.2,1.2-16.2,0.5c-5.1-0.7-5.1-2-7.3-3.3c-2.2-1.3-4.3-3.8-4.6-5.8c-0.3-2,1.3-4,1.3-4
		C401.8,569.2,401.2,569.5,400.6,569.5z"/>
	<path fill="#1D2087" d="M356.7,567.9c2,0,4.1,0,6,0c-0.3-0.3-0.6-0.7-0.9-1C360.1,567.2,358.4,567.6,356.7,567.9z"/>
	<path fill="#1D2087" d="M352,359.9c-0.7,1-1.5,2-2.3,3c3.8,1.9,6.3,2.8,6.3,2.8C354.6,363.8,353.3,361.8,352,359.9z"/>
	<path fill="#1D2087" d="M344.6,360.1c1.3-1.2,2.5-2.4,3.7-3.6c0.3-0.3,0.7-0.7,1-1c-3.4-5.8-6.3-11.8-8.8-18
		c-7.9-0.3-15.7-0.8-23.2-1.3C326,347.8,336.6,355.5,344.6,360.1z"/>
</g>
<g>
</g>
<g>
</g>
<g>
</g>
<g>
</g>
<g>
</g>
<g>
</g>
<g>
</g>
<g>
</g>
<g>
</g>
<g>
</g>
<g>
</g>
</svg>
