<svg version="1.1" xmlns="http://www.w3.org/2000/svg" xmlns:xlink="http://www.w3.org/1999/xlink" x="0px" y="0px"
	 viewBox="0 0 800 800" enable-background="new 0 0 800 800" xml:space="preserve">
<g>
	<g>
		<path fill="#FFFFFF" d="M641.2,208.5c-4.8,0-9.1,2.2-11.9,5.7c-6.4,0.2-28.3-0.3-56.2-13.2c14.4-13.2,17.4-15.9,17.4-15.9
			l-1.5-3.9c1.4,0.1,3,0.1,4.9,0c8.4-0.4,15.3-6.8,15.3-15.3c0-8.4-6.8-15.3-15.3-15.3c-6.2,0-11.6,3.7-13.9,9.1
			c-30.1,1.4-55.7-12.7-70.7-23.7c1-2,1.5-4.2,1.5-6.6c0-8.3-6.7-14.9-14.9-14.9c-7,0-12.8,4.8-14.5,11.3
			c-13.7-0.8-37.3-8.6-68-43.2c1-2,1.6-4.3,1.6-6.7c0-8.2-6.7-14.9-14.9-14.9c-8.2,0-14.9,6.7-14.9,14.9c0,2.3,0.5,4.4,1.4,6.4
			c-27.2,31.3-51.9,42.5-68,43.4c-1.7-6.4-7.5-11-14.4-11c-8.3,0-14.9,6.7-14.9,14.9c0,2.3,0.5,4.5,1.5,6.5
			c-23.6,16.8-49.2,26.3-70.6,23.9c-2.4-5.4-7.7-9.1-14-9.1c-8.4,0-15.3,6.8-15.3,15.3c0,8.4,6.8,14.8,15.3,15.3
			c1.9,0.1,3.5,0.1,4.9,0l-1.8,3.8c0,0,9.9,9.7,17.2,15.9c-24.1,11.4-44.7,13.3-55.8,13.3c-2.8-3.5-7.1-5.7-11.9-5.7
			c-8.4,0-15.2,6.8-15.2,15.2c0,8.4,6.8,15.2,15.2,15.2c0.2,0,0.4,0,0.6,0v3.5c0,0,39.2,53,38.9,114.3
			c-0.2,53.9-19.1,84.1-19.8,148.8C177.9,570,215.6,683.7,400,739.1c50-11.5,114.5-44.4,160.4-89.9c50.1-49.6,60.3-105.3,61-147.3
			c0.8-44-20.6-110.1-19.7-144.3c1.8-63.9,38.7-115.4,38.7-115.4v-3.5c0.2,0,0.5,0,0.7,0c8.4,0,15.2-6.8,15.2-15.2
			C656.3,215.3,649.5,208.5,641.2,208.5z"/>
		<path fill="#C9A239" d="M400,60.9c8.2,0,14.9,6.7,14.9,14.9c0,2.4-0.6,4.7-1.6,6.7c30.8,34.7,54.3,42.5,68,43.2
			c1.6-6.5,7.5-11.3,14.5-11.3c8.3,0,14.9,6.7,14.9,14.9c0,2.4-0.6,4.6-1.5,6.6c14.3,10.4,38.2,23.8,66.5,23.8c1.4,0,2.8,0,4.2-0.1
			c2.4-5.3,7.7-9.1,13.9-9.1c8.4,0,15.3,6.8,15.3,15.3c0,8.4-6.8,14.8-15.3,15.3c-1,0.1-1.9,0.1-2.7,0.1c-0.8,0-1.5,0-2.1-0.1
			l1.5,3.9c0,0-3,2.7-17.4,15.9c25.6,11.9,46.1,13.3,54.3,13.3c0.7,0,1.4,0,1.9,0c2.8-3.5,7.1-5.7,11.9-5.7
			c8.4,0,15.2,6.8,15.2,15.2c0,8.4-6.8,15.2-15.2,15.2c-0.3,0-0.5,0-0.7,0v3.5c0,0-36.9,51.5-38.7,115.4
			c-1,34.2,20.4,100.2,19.7,144.3c-0.7,41.9-10.9,97.6-61,147.3C514.5,694.7,450,727.5,400,739.1C215.6,683.7,177.9,570,178.6,505.4
			c0.7-64.7,19.6-94.9,19.8-148.8c0.3-61.4-38.9-114.3-38.9-114.3v-3.5c-0.2,0-0.4,0-0.6,0c-8.4,0-15.2-6.8-15.2-15.2
			c0-8.4,6.8-15.2,15.2-15.2c4.8,0,9.1,2.2,11.9,5.7c0,0,0.1,0,0.1,0c11.1,0,31.6-1.9,55.7-13.3c-7.2-6.2-17.2-15.9-17.2-15.9
			l1.8-3.8c-0.7,0-1.4,0.1-2.2,0.1c-0.9,0-1.8,0-2.7-0.1c-8.4-0.4-15.3-6.8-15.3-15.3c0-8.4,6.8-15.3,15.3-15.3
			c6.3,0,11.6,3.8,14,9.1c2.2,0.3,4.5,0.4,6.9,0.4c19.9,0,42.6-9.2,63.7-24.2c-0.9-2-1.5-4.1-1.5-6.5c0-8.3,6.7-14.9,14.9-14.9
			c6.9,0,12.7,4.7,14.4,11c16.1-0.9,40.7-12,68-43.4c-0.9-1.9-1.4-4.1-1.4-6.4C385.2,67.6,391.8,60.9,400,60.9 M400,50
			c-14.2,0-25.8,11.6-25.8,25.8c0,1.2,0.1,2.4,0.2,3.5c-22.2,24.1-40,31.8-49.9,34.2c-4.8-6.2-12.3-10-20.4-10
			c-14.3,0-25.9,11.6-25.9,25.9c0,0.6,0,1.1,0.1,1.7c-18.1,11.7-36.1,18.1-51.4,18.1c-0.2,0-0.4,0-0.6,0c-4.9-5.9-12.3-9.5-20.2-9.5
			c-14.4,0-26.2,11.7-26.2,26.2c0,7,2.8,13.5,7.8,18.4c3.5,3.4,7.9,5.8,12.7,7c0.4,0.5,0.8,1,1.3,1.5c0.2,0.2,2,2,4.6,4.5
			c-12.9,4.2-23.8,5.6-31.3,6c-4.6-3.6-10.2-5.6-16.2-5.6c-14.4,0-26.1,11.7-26.1,26.1c0,11.4,7.4,21.2,17.6,24.7
			c0.1,0.2,0.2,0.3,0.3,0.4c0.4,0.5,37,50.9,36.8,107.8c-0.1,24.8-4.4,44.6-8.9,65.5c-5.2,23.8-10.5,48.5-10.9,83.2
			c-0.3,25.3,5,75.4,43.5,126.9c18.2,24.5,41.9,46.4,70.4,65.2c32.2,21.3,71,38.8,115.3,52.1c1,0.3,2.1,0.5,3.1,0.5
			c0.8,0,1.6-0.1,2.5-0.3c57.1-13.2,122.1-49.6,165.6-92.8c23.7-23.5,41.1-50.7,51.6-80.7c8-22.8,12.1-47.1,12.6-74.2
			c0.4-24.3-5.3-53.7-10.9-82.1c-4.7-24.2-9.2-47-8.8-62c0.9-31,10.8-58.9,18.9-77c8.9-19.8,17.7-32.2,17.8-32.4
			c0.1-0.1,0.1-0.2,0.2-0.2c10.3-3.5,17.8-13.3,17.8-24.8c0-14.4-11.7-26.1-26.1-26.1c-6,0-11.7,2-16.3,5.7
			c-6.2-0.2-17.4-1.4-31.6-6c3.5-3.2,4.5-4.1,4.5-4.1c0.6-0.6,1.2-1.2,1.6-1.8c4.9-1.1,9.3-3.6,12.9-7c5-4.9,7.8-11.4,7.8-18.4
			c0-14.4-11.8-26.2-26.2-26.2c-7.7,0-15,3.4-19.9,9.1c-20.9-0.4-39.2-9-52.4-17.6c0-0.6,0.1-1.2,0.1-1.8
			c0-14.3-11.6-25.9-25.9-25.9c-8.3,0-15.8,3.9-20.6,10.3c-10.8-2.6-27.8-10.6-49.6-34.1c0.2-1.3,0.3-2.6,0.3-3.9
			C425.8,61.6,414.3,50,400,50L400,50z"/>
	</g>
	<g>
		<path fill="#F5AB48" d="M401.2,76.9c-8.2,12.8-35.8,64.7-96.1,54.9c-1.9,11-41.8,41.3-94.2,35.3c19.5,26.1,31.4,36,31.4,36
			s-31.2,20.1-83.2,20.6c11.3,5.9,52.6,65.4,53.2,115.7c0.7,62-17.5,125.7-18.4,165.7C191.6,608.4,318,718.9,400,718.9
			c33.3,0,102.9-32.4,148.5-80.2c52.2-54.7,61.3-113,61-140.9c-0.3-37.1-20.3-109-19.1-154.5c1.6-62.4,51.6-120.2,51.6-120.2
			s-48.1,0.9-80.9-20.1c19.6-19.2,30.7-35.8,30.7-35.8s-57.5,8.4-96.7-34.9C444.9,141,412.1,95.4,401.2,76.9z"/>
	</g>
	<path fill="#E50112" d="M548.5,638.7c52.2-54.7,61.3-113,61-140.9c-0.3-37.1-20.3-109-19.1-154.5c0-1.5,0.1-3.1,0.2-4.6
		c-2-6.9-20.5-39.1-190.1-39.1c-162.4,0-185.1,29.9-188.3,38.9c0,0.3,0,0.7,0,1c0.7,62-17.5,125.7-18.4,165.7
		C191.6,608.4,318,718.9,400,718.9C433.2,718.9,502.9,686.5,548.5,638.7z"/>
	<g>
		<path fill="#AD0002" d="M464.2,699.5c15.9-7.8,32.5-17.7,48.3-29.3V306.2c-13.6-2-29.6-3.7-48.3-4.8V699.5z"/>
		<path fill="#AD0002" d="M590.6,338.7c-1.1-3.8-7.1-15.2-40.3-24.7v322.8c50.5-54.1,59.4-111.4,59.2-138.9
			c-0.3-37.1-20.3-109-19.1-154.5C590.4,341.8,590.5,340.3,590.6,338.7z"/>
		<path fill="#AD0002" d="M249.2,314.9c-28.5,8.8-35.3,19-36.9,23.6c0,0.3,0,0.7,0,1c0.7,62-17.5,125.7-18.4,165.7
			c-1,44.7,22.1,90.7,55.3,128.6V314.9z"/>
		<path fill="#AD0002" d="M287,669.9c15.6,12.5,32,23.2,48.3,31.3V301.5c-18.8,1.2-34.8,3-48.3,5.1V669.9z"/>
	</g>
	<circle fill="#E50112" cx="640.7" cy="224.5" r="7.2"/>
	<path fill="#E50112" d="M166.8,223.5c0,3.9-3.2,7.1-7.1,7.1c-3.9,0-7.1-3.2-7.1-7.1c0-3.9,3.2-7.1,7.1-7.1
		C163.6,216.4,166.8,219.6,166.8,223.5z"/>
	<path fill="#E50112" d="M217.5,167.9c0,3.9-3.2,7-7,7c-3.9,0-7-3.2-7-7c0-3.9,3.2-7,7-7C214.3,160.9,217.5,164,217.5,167.9z"/>
	<path fill="#E50112" d="M598.9,167.9c0,3.9-3.2,7-7,7c-3.9,0-7-3.2-7-7c0-3.9,3.2-7,7-7C595.8,160.9,598.9,164,598.9,167.9z"/>
	<path fill="#E50112" d="M312.3,131.8c0,3.9-3.2,7.1-7.1,7.1c-3.9,0-7.1-3.2-7.1-7.1s3.2-7.1,7.1-7.1
		C309.1,124.8,312.3,127.9,312.3,131.8z"/>
	<path fill="#E50112" d="M501.3,132.9c0,3.9-3.2,7.1-7.1,7.1c-3.9,0-7.1-3.2-7.1-7.1c0-3.9,3.2-7.1,7.1-7.1
		C498.1,125.8,501.3,129,501.3,132.9z"/>
	<path fill="#E50112" d="M406.1,88.2h-9.6V70.6c0,0,0.5-2.5,4.8-2.4c4.3,0.1,4.8,2.4,4.8,2.4V88.2z"/>
	<path fill="#AD0002" d="M400.8,94C356,150.9,315.5,144,315.5,144l1.6,9.3h167.1l4.1-10.1C488.3,143.3,448.5,151,400.8,94z"/>
	<path fill="#E50112" d="M322.6,160.5h158.2l-11.4,25l45.2,20c0,0-69.4,14.7-112.7,13.8c-43.3-0.9-115.3-14-115.3-14l46.7-20.3
		L322.6,160.5z"/>
	<path fill="#AD0002" d="M286.6,212.4c0,0,73,13.3,114,13c41-0.3,113.2-10.3,113.2-10.3l-22,28.2c0,0-48-4.7-91.1-4.8
		c-43.2-0.1-88.4,3-88.4,3L286.6,212.4z"/>
	<path fill="#E50112" d="M309.2,144.7l3.5,10c-9.4,9.3-63.7,35.2-88.1,21.3C268.6,175.8,298.8,156.1,309.2,144.7z"/>
	<path fill="#AD0002" d="M233.5,187.1c0,0,53.5-2.4,81.2-24.7l11.5,20.5c-38.6,15.2-50,20.3-62,20.3c-12,0-16.4,0-16.4,0
		L233.5,187.1z"/>
	<path fill="#E50112" d="M195.3,227.5c0,0,48.9,3.7,70.5-16.8c-9.9-0.9-17.6-1.1-17.6-1.1C242.5,218.5,195.3,227.5,195.3,227.5z"/>
	<path fill="#E50112" d="M493.5,145.4l-3.5,10c9.4,9.3,63.7,35.2,88.1,21.3C534.1,176.5,503.8,156.8,493.5,145.4z"/>
	<path fill="#AD0002" d="M569.2,187.8c0,0-53.5-2.4-81.2-24.7l-11.5,20.5c38.6,15.2,50,20.3,62,20.3s16.4,0,16.4,0L569.2,187.8z"/>
	<path fill="#E50112" d="M607.4,228.2c0,0-48.9,3.7-70.5-16.8c9.9-0.9,17.6-1.1,17.6-1.1C560.2,219.2,607.4,228.2,607.4,228.2z"/>
	<path fill="#AD0002" d="M180.7,234.1c0,0,13.9,1,27.3,1.2c11.8,0.2,22.5-0.7,32.6-4.3c15.8-5.7,28-13.9,35.6-20.8
		c8.2,10.4,26.9,33.8,26.9,33.8s-89.9,12.8-96.6,15.6C198.2,251.5,180.7,234.1,180.7,234.1z"/>
	<path fill="#AD0002" d="M622.1,234.5c0,0-10.6,1.1-24,1.4c-11.8,0.2-26.4-1.4-36.4-5.1c-15.8-5.7-26.9-12.9-34.5-19.8
		c-8.2,10.4-28.8,32.1-28.8,32.1s49.9,6.1,97.5,19.3C604.3,250.6,622.1,234.5,622.1,234.5z"/>
	<path fill="#C6B47E" d="M283.2,204.5c0,4.2-3.4,7.6-7.6,7.6c-4.2,0-7.6-3.4-7.6-7.6c0-4.2,3.4-7.6,7.6-7.6
		C279.8,197,283.2,200.4,283.2,204.5z"/>
	<path fill="#E50112" d="M280.4,204.5c0,2.6-2.1,4.7-4.7,4.7c-2.6,0-4.7-2.1-4.7-4.7c0-2.6,2.1-4.7,4.7-4.7
		C278.3,199.8,280.4,201.9,280.4,204.5z"/>
	<path fill="#C6B47E" d="M535.5,205.5c0,4.7-3.9,8.6-8.6,8.6s-8.6-3.8-8.6-8.6c0-4.7,3.9-8.6,8.6-8.6S535.5,200.7,535.5,205.5z"/>
	<path fill="#E50112" d="M532.5,205.4c0,3-2.5,5.5-5.5,5.5c-3.1,0-5.5-2.5-5.5-5.5c0-3.1,2.5-5.5,5.5-5.5
		C530,199.9,532.5,202.4,532.5,205.4z"/>
	<g>
		<path fill="#4C4B4C" d="M315,678c0.8-45.6,38.2-82.3,84.1-82.3c46.1,0,83.3,36,83.9,81.8c0,0.2-42.4,31.4-85.6,31.3
			C356.6,708.8,315,678.3,315,678"/>
		<path fill="#0D0D0D" d="M464.5,613c-17.4-16.9-40.6-26.3-65.3-26.3c-24.6,0-47.7,9.5-65.3,26.6c-17.4,17-27.3,39.8-27.8,64
			c-0.1,1.4-0.2,3.8,0.2,6.8c31.8,21.5,65.4,34.7,93.7,34.7c21.1,0,57-13.1,92-34.9c0.5-3.2,0.4-5.7,0.2-7.2
			C491.6,652.5,481.8,629.9,464.5,613z"/>
		<path fill="#FFFFFF" d="M346.2,619.8c-0.5-1.4-0.1-4.4,0.1-5.3c-10.9,8.9-19.6,20.6-24.9,33.9l6.2-2.8
			C331.1,631.8,346.2,619.8,346.2,619.8"/>
		<path fill="#FFFFFF" d="M348,618.3c0,0,15.5,0.5,19.3,1.6c0,0,22.6-12,36-11.7c0,0,4.2-9.3,9.1-11.5c-4.2-0.7-8.6-1-13-1
			c-18.6,0-35.8,6.1-49.8,16.3l-1.3,1.2C348.3,613.2,347.2,616.8,348,618.3"/>
		<path fill="#FFFFFF" d="M477.5,656.6c0,0,1.6-0.1,2.1-1.1c0,0,0-0.2,0.1-0.4c0,0,0,0,0,0c-5.9-19.3-18.5-35.7-35.2-46.3
			c0.8,1.1,10,15,10.6,15.7C455.6,625.3,467.7,635.5,477.5,656.6"/>
		<g opacity="0.17">
			<g>
				<defs>
					<rect id="SVGID_1_" x="426.9" y="625.8" width="48.3" height="58"/>
				</defs>
				<clipPath id="SVGID_2_">
					<use xlink:href="#SVGID_1_"  overflow="visible"/>
				</clipPath>
				<path clip-path="url(#SVGID_2_)" fill="#B2B2B2" d="M453,625.8c0,0-20.3,0.6-21.2,1c0,0-3.1,30.2-4.9,33.4
					c0,0,13.8,15.1,17.5,23.6c0,0,27.1-20,30.8-24.3C475.2,659.5,467.7,636.6,453,625.8"/>
			</g>
		</g>
		<path fill="#FFFFFF" d="M453,625.8c0,0-20.3,0.6-21.2,1c0,0-3.1,30.2-4.9,33.4c0,0,13.8,15.1,17.5,23.6l22.6-0.6
			c0,0,6.5-21.8,8.2-23.7C475.2,659.5,467.7,636.6,453,625.8"/>
		<path fill="#FFFFFF" d="M404.4,609.5c-10.6-0.7-36,11.9-36,11.9c-5,8.1-6,28.5-6,28.5c2.1,0.7,30.1,20.8,30.1,20.8
			c6-1.3,33.2-11.7,33.2-11.7c1.5-3.2,4.2-33,4.2-33C427.1,621.8,404.4,609.5,404.4,609.5"/>
		<path fill="#FFFFFF" d="M335.4,664.1c-5.6-6.9-6.9-17-6.9-17c-4.4,1-6.4,3.3-7.4,5.1c-0.3,0.8-5.6,24.8-5.8,25.7
			c0,0,7.5,9,16.6,7.3C332.6,681.8,335.4,664.1,335.4,664.1"/>
		<path fill="#FFFFFF" d="M361.5,650.9c-10.7,4.1-24.5,13.9-24.5,13.9c-0.8,1.4-3.8,21.4-3.8,21.4c17.9,15.9,58,18.5,58,18.5
			s-0.2-30.5-0.5-32.2C390.4,670.9,361.5,650.9,361.5,650.9"/>
		<polygon fill="#FFFFFF" points="444.5,685.5 463.4,685.5 442.3,695.2 		"/>
		<path fill="#838384" d="M394.7,700.7c0,0,0.6-16,7.4-23.6c6.8-7.6,16.5-12.8,16.5-12.8l-24.3,7.8L394.7,700.7z"/>
		<path fill="#D3CEBF" d="M363.2,646.3c0,0,6.3-14.9,11.1-20.3c4.8-5.4,18.4-13.7,18.4-13.7l-23.4,10.1L363.2,646.3z"/>
		<path fill="#838384" d="M331.8,636.6c0,0,12.9-15.4,26.7-15.4l-11-1.2L331.8,636.6z"/>
		<g opacity="0.39">
			<g>
				<defs>
					<rect id="SVGID_3_" x="440.5" y="627.5" width="39.2" height="64.7"/>
				</defs>
				<clipPath id="SVGID_4_">
					<use xlink:href="#SVGID_3_"  overflow="visible"/>
				</clipPath>
				<path clip-path="url(#SVGID_4_)" fill="#D3CEBF" d="M462.6,627.5c0,0-5.9,33.3-22.1,49.8l8.9,14.9c0,0,9.2-2.8,16.6-8.7
					c4.7-3.7,5.5-20.4,9.4-24c2.4-2.2,3.1-2.6,4.3-4.2C479.7,655.3,476,637.4,462.6,627.5"/>
			</g>
		</g>
		<path fill="#0D0D0D" d="M564.3,492.3c-4.6-43.8-30.3-71.2-30.3-71.2l5.5-0.8c-2.6-9.6-12.1-18.2-12.1-18.2
			c12.1-13.5,6.1-25.1,6.1-25.1c-7.8,2.6-13.7,0.9-13.7,0.9c16.3-10.9,12.6-49.8,12.6-49.8c0,1.2-5.8,3.5-5.8,3.5
			c-6.8-39.5-36.9-43.5-43.3-32.8c-6.4,10.7-10.3,18.5-20,18.5c-9.7,0-27.3-21.4-27.3-21.4c-0.8,1.8-4.9,7.8-4.9,7.8
			c-4.1-7.7-15.4-13-15.4-13c-0.9,1.5-3.1,9-3.1,9c-1-2-10.2-14.5-11.8-16.7l-0.1-0.2l-0.1,0.2c-1.6,2.1-10.8,14.7-11.8,16.7
			c0,0-2.2-7.5-3.1-9c0,0-11.2,5.4-15.4,13c0,0-4.1-6-4.9-7.8c0,0-17.7,21.4-27.3,21.4c-9.7,0-13.5-7.8-20-18.5
			c-6.5-10.7-36.6-6.7-43.3,32.8c0,0-5.8-2.3-5.8-3.5c0,0-3.7,38.9,12.6,49.8c0,0-5.8,1.7-13.7-0.9c0,0-6,11.6,6.1,25.1
			c0,0-9.5,8.6-12.1,18.2l5.5,0.8c0,0-25.6,27.4-30.3,71.2l12-4.6c0,0-4,40.1,4,56.9l8-7.7c0,0,9.2,28.2,22.4,40.1l10.8-17.1
			c0,0,4.9,22.3,21.5,41.3l10.4-23c0,0,10.8,16.8,15.7,19l-1.2,6.1l12-4l0.9,18.1l17.8-9.2c0,0,5.2,14.1,20.6,19.3l1.2-4l7.1,6.7
			h0.7l7.1-6.7l1.2,4c15.4-5.2,20.6-19.3,20.6-19.3l17.8,9.2l0.9-18.1l12,4l-1.2-6.1c4.9-2.1,15.7-19,15.7-19l10.4,23
			c16.6-19,21.5-41.3,21.5-41.3l10.8,17.1c13.2-11.9,22.4-40.1,22.4-40.1l8,7.7c8-16.8,4-56.9,4-56.9L564.3,492.3z"/>
		<path fill="#FFFFFF" d="M402.4,633.6h-3.3l-4.2-4l-0.7,2.2l-3.1-1.1c-12.1-4.1-18.4-13.1-21-17.9l-19.3,10l-1-18.8l-13.2,4.4
			l1.9-9.5c-3.7-3-8.3-9.2-11.5-13.8l-10.1,22.2l-3.3-3.8c-11.3-13-17.3-27.3-20.2-35.6l-9,14.3l-2.9-2.6
			c-10.4-9.4-18.3-28-21.6-36.7l-7.6,7.3l-1.9-4.1c-6.6-13.9-5.5-41.9-4.7-53.5l-12.1,4.6l0.6-5.2c3.6-34.5,19.7-58.8,27.3-68.4
			l-3.4-0.5l1-3.5c2-7.5,7.7-14.2,10.9-17.6c-10.8-14-4.9-25.8-4.6-26.4l1.3-2.5l2.6,0.9c1.7,0.6,3.5,1,5.2,1.1
			c-11.2-15.4-8.5-45.8-8.4-47.2l6.4,0.3c0,0,0-0.1,0-0.1c0-0.9-0.4-1.5-0.6-1.6c0.1,0.1,0.4,0.3,0.8,0.6
			c5.6-25.1,21.2-36.4,34.7-36.4c6.1,0,11.2,2.5,13.7,6.7c0.5,0.8,1,1.6,1.5,2.4c5.8,9.8,8.9,14.5,15.7,14.5
			c5.6,0,17.9-11.8,24.8-20.3l3.4-4.1l2.1,4.9c0.2,0.5,1,1.8,2,3.4c5.4-6.1,13.5-10.1,13.9-10.3l2.7-1.3l1.5,2.5
			c0.4,0.7,0.9,1.9,1.4,3.3c2.5-3.6,5.8-8,8.1-11.2l2.7-3.7l2.7,3.7c2.7,3.7,5.7,7.8,8.1,11.2c0.5-1.4,1-2.6,1.4-3.3l1.5-2.5
			l2.6,1.3c0.4,0.2,8.5,4.1,13.9,10.3c1-1.5,1.8-2.9,2-3.4l2.1-4.9l3.4,4.1c6.9,8.4,19.2,20.3,24.8,20.3c6.8,0,9.9-4.7,15.7-14.5
			c0.5-0.8,1-1.6,1.5-2.4c2.5-4.2,7.6-6.7,13.7-6.7c13.5,0,29.1,11.3,34.7,36.4c0.4-0.2,0.7-0.4,0.8-0.6c-0.2,0.2-0.6,0.7-0.6,1.6
			c0,0,0,0,0,0.1l6.4-0.3c0.1,1.5,2.8,31.8-8.4,47.2c1.7-0.2,3.5-0.6,5.2-1.1l2.6-0.9l1.3,2.5c0.3,0.5,6.2,12.4-4.6,26.4
			c3.2,3.3,8.8,10.1,10.9,17.6l1,3.5l-3.4,0.5c7.5,9.7,23.6,34,27.3,68.4l0.6,5.2l-12.1-4.6c0.8,11.6,1.9,39.6-4.7,53.5l-1.9,4.1
			l-7.6-7.3c-3.3,8.8-11.2,27.3-21.6,36.7l-2.9,2.6l-9-14.3c-2.8,8.4-8.8,22.7-20.2,35.6l-3.3,3.8L474.6,585
			c-3.2,4.7-7.8,10.8-11.5,13.8l1.9,9.5l-13.2-4.4l-1,18.8l-19.3-10c-2.7,4.9-9,13.9-21,17.9l-3.1,1.1l-0.7-2.2L402.4,633.6z
			 M391.8,617.7l9,8.5l9-8.5l1.7,5.6c11.4-5.3,15.5-16,15.5-16.1l1.3-3.4l16.6,8.6l0.9-17.3l10.7,3.6l-0.6-3.2l2.4-1
			c2.5-1.1,9.3-10.1,14.2-17.8l3.2-5l10.8,23.7c13.3-17.1,17.5-35.8,17.5-36l1.7-7.7l12.8,20.4c11-12.4,18.7-35.7,18.8-35.9l1.6-4.9
			l8.2,7.8c5.3-17.6,2.1-50.6,2.1-50.9l-0.5-5.2l11.8,4.5c-5.8-39.1-28.5-63.8-28.7-64l-4.2-4.6l7.7-1.1c-3.3-7.2-9.8-13.1-9.9-13.2
			l-2.4-2.2l2.2-2.4c7.4-8.2,7.2-15.4,6.4-19c-2.2,0.5-4.5,0.8-6.7,0.8c-3.4,0-5.5-0.6-5.8-0.7l-6.7-1.9l5.8-3.9
			c10.3-6.9,11.9-28.7,11.5-41.3c-0.5,0.2-1.1,0.5-1.8,0.7l-3.7,1.5l-0.7-3.9c-4.8-27.8-20.6-35.2-29.2-35.2c-3.8,0-6.8,1.3-8.2,3.5
			c-0.5,0.8-1,1.6-1.4,2.4c-5.9,9.9-10.5,17.7-21.3,17.7c-8.7,0-20.9-12.4-26.8-19.1c-1.1,1.7-2.2,3.4-2.8,4.1l-3,4.3l-2.5-4.6
			c-2.3-4.3-7.5-7.9-10.8-9.9c-0.5,1.6-1.1,3.6-1.6,5.3l-2.3,8l-3.7-7.4c-0.4-0.8-3.3-5-9-12.8c-4.9,6.8-8.5,11.9-9,12.8l-3.7,7.3
			l-2.3-7.8c-0.5-1.8-1.1-3.7-1.6-5.3c-3.3,2-8.5,5.6-10.8,9.9l-2.5,4.6l-3-4.3c-0.5-0.7-1.7-2.4-2.8-4.1
			c-5.9,6.7-18.2,19.1-26.8,19.1c-10.8,0-15.4-7.8-21.3-17.7c-0.5-0.8-0.9-1.6-1.4-2.4c-1.3-2.2-4.4-3.5-8.2-3.5
			c-8.6,0-24.4,7.4-29.2,35.2l-0.7,3.9l-3.7-1.5c-0.6-0.2-1.2-0.5-1.8-0.7c-0.4,12.6,1.2,34.4,11.5,41.3l5.8,3.9l-6.7,1.9
			c-0.2,0.1-2.4,0.7-5.8,0.7c-2.2,0-4.5-0.3-6.7-0.8c-0.8,3.6-0.9,10.8,6.5,19l2.2,2.4l-2.4,2.2c-0.1,0.1-6.6,6-9.9,13.2l7.7,1.1
			l-4.3,4.6c-0.2,0.3-22.9,25-28.7,64l11.8-4.5l-0.5,5.2c0,0.4-3.2,33.3,2.1,50.9l8.2-7.8l1.6,4.9c0.1,0.3,7.8,23.6,18.8,35.9
			l12.8-20.4l1.7,7.7c0,0.2,4.3,18.8,17.5,36l10.8-23.7l3.2,5c4.9,7.7,11.8,16.7,14.2,17.8l2.4,1l-0.6,3.2l10.7-3.6l0.9,17.3
			l16.6-8.6l1.3,3.4c0,0.1,4.2,10.8,15.5,16.1L391.8,617.7z"/>
		<path fill="#B2B2B2" d="M279.3,434.7c0,0-9.4,21.8-9.3,30c0,0,6-3.8,8.1-3.9c0,0-9.4,25.8-7.5,36.6c0,0,6.5-5.5,9.9-6.8
			c0,0,0.7,37.2,5.1,40.9c0,0,16.7-11,20.6-10.9c0,0,7.4,18.2,12,21.1c0,0,12.4-10.1,16.3-10.7c0,0,2.5,30.8,18.3,43.2
			c0,0-6.6,4.1-7.8,6.7c0,0-11.5-16.4-13.1-37.2c0,0-8.4,6.1-17.5,26.9c0,0-8.4-16.8-11.7-39.6c0,0-13.4,7.8-19.7,19.1
			c0,0-9.7-23.1-8.6-45.2c0,0-6.6,3.2-10.8,9.2c0,0-1.1-32,4.8-44.7c0,0-7.2-0.3-10.1,2C258.2,471.5,266.7,448.1,279.3,434.7"/>
		<path fill="#FFFFFF" d="M366.6,462c0,0-4.5-13-16.8-18.7C349.8,443.3,346.3,458.5,366.6,462"/>
		<path fill="#FFFFFF" d="M435.9,462c0,0,4.5-13,16.8-18.7C452.7,443.3,456.1,458.5,435.9,462"/>
		<path fill="#FFFFFF" d="M510.3,412.6c-5.3-3.7-15.7-3.6-15.7-3.6c2.2-3,21.1-11.6,21.1-11.6c-22-2-29.7-13.7-29.7-13.7
			c19.7-6.1,26.4-16.5,26.4-16.5c-7.9,3.6-20.3-0.6-20.3-0.6c18.5-14.4,19.6-25.9,19.6-25.9c-8.3,9.5-15.3,6.7-15.3,6.7
			c7.7-17.8-5.6-25.8-5.6-25.8s-5.5,6.1-13.6,11.5c-8.1,5.4-19.7,2.5-19.7,2.5c6.5,10,15.4,7.2,15.4,7.2s-2.9,6.3-8.2,6.3
			c-5.3,0-15.7-13-22.8-16.8c-7.1-3.8-12.1,1.5-12.1,1.5c-2.2-7.5-8.6-14.5-8.6-14.5c-3,6.1-10.5,13.1-10.5,13.1
			c0.1-1.7-4.4-10.4-4.4-10.4c-0.5,3.5-4.3,13.4-5,15c-0.6-1.7-4.4-11.6-5-15c0,0-4.5,8.7-4.4,10.4c0,0-7.5-7-10.5-13.1
			c0,0-6.5,7-8.6,14.5c0,0-5-5.3-12.1-1.5c-7.1,3.8-17.5,16.8-22.8,16.8c-5.3,0-8.2-6.3-8.2-6.3s9,2.8,15.4-7.2
			c0,0-11.6,2.9-19.7-2.5c-8.1-5.4-13.6-11.5-13.6-11.5s-13.4,8-5.6,25.8c0,0-7,2.9-15.3-6.7c0,0,1,11.6,19.6,25.9
			c0,0-12.3,4.1-20.3,0.6c0,0,6.7,10.4,26.4,16.5c0,0-7.7,11.7-29.7,13.7c0,0,18.9,8.6,21.1,11.6c0,0-10.4-0.1-15.7,3.6
			c0,0,9.6,0.3,10.8,2c0,0-7.6,8.5-8.1,12.3c0,0,7-0.7,8.2,0.1c0,0-8.9,11.7-10,18.7c0,0,5-1.7,6.7-1.4c0,0-6.3,15.7-6.5,26.4
			c0,0,6.6-2,8.9-1.7c0,0-6.3,17-6.5,27.7c0,0,5.2-1.5,7.4-0.9c0,0-6.1,8.7-6.1,13.6c0,0,8.6-5.2,14.7-3.7c0,0-2.6-11.2-8.4-14.6
			c0,0,3.7-12.4,5.5-13.1c0,0-11.1-18.4-7.6-32.1c3.5-13.8,18.2-22.5,18.2-22.5S313,434,313,435.2c0,0,10.4-5.5,12.9-3.7
			c0,0-13.5-35.4,12.9-54.2c0,0-16.9,30,3.2,54.2c0,0,6-0.2,8.4,1.2c0,0,0.2-25.4,30.7-24.6c0,0-22,11.6-19.2,27.6
			c0,0,4.3-11.6,10.3-13.3c0,0-4.8,26.6,3.5,41.9c0,0,4.5-5.8,5.7-13.6c0,0,8.8,13.2-5.5,29.2c0,0-3.2-3.7-5.2-6.9
			c0,0-9.7,12.2-18.9,3.1c0,0,9.2-1.4,12.1-6c0,0-24.4-3.8-23.5-23.9c0,0-5.7,6.9-2.8,19.4c0,0-6-6.3-6-11.9
			c0-5.7-5.8,14.2,4.5,25.7c0,0,6.4,0.2,8.8,2.6c0,0-10.3,1.1-10.9,3.2c0,0-9.2-6.9-11.7-17.3c-2.5-10.4,4-22.7,4-22.7
			s-14.6-4.4-14.9,9.3c-0.3,13.8,10.6,34.4,22.4,40c4.3,2.5,15.7-6.7,15.7-6.7s-15.4,17.4-14.7,21.9c0,0-1.3-3.3-0.8-6.8
			c0,0-6.2-4.3-10.8-9.6c0,0,1.3,7.9,6.1,11.7c0,0-4.5,0.9-6.2,0c0,0-0.7,4.7,7.4,11.4c0,0,0.2-5.5,1-7.3c0,0,1.4,5.4,5.5,8.8
			c0,0,6.8-20.2,24.7-28.4c0,0-23.7,24.3-18.8,48.1c1.5,6.7,30.7,20.5,35.3,19.6c0,0-16.3,2.8-30.4-6.4c0,0,4.3,12.6,35.5,16.4
			c0,0-3.5,5.1-25.5,0.8c0,0,7.8,8.1,16.7,8.4c8.9,0.3,24.6-8.9,24.6-8.9s-4.8-4-7.5-3.8c-2.8,0.2-4.3-7.5-4.3-7.5s-10-7.8-11.7-10
			c-1.7-2.1-1.8-12.6-7.1-15c0,0,6.1-4.1,12.4,7.8c0,0,10.3-5.2,14.1,6.3c0,0-6.5-4.1-10-0.3c0,0,10.6,5.2,10,12.6
			c0,0,3.2,3.4,4.3,3.2l1.9-5.7l1.9,5.7c1.1,0.2,4.3-3.2,4.3-3.2c-0.6-7.3,10-12.6,10-12.6c-3.5-3.8-10,0.3-10,0.3
			c3.8-11.5,14.1-6.3,14.1-6.3c6.3-11.9,12.4-7.8,12.4-7.8c-5.2,2.4-5.4,12.9-7.1,15c-1.7,2.1-11.7,10-11.7,10s-1.5,7.7-4.3,7.5
			c-2.8-0.2-7.5,3.8-7.5,3.8s15.7,9.2,24.6,8.9c8.9-0.3,16.7-8.4,16.7-8.4c-22,4.3-25.5-0.8-25.5-0.8c31.2-3.8,35.5-16.4,35.5-16.4
			c-14.1,9.2-30.4,6.4-30.4,6.4c4.6,0.9,33.8-12.9,35.3-19.6c4.9-23.9-18.8-48.1-18.8-48.1c17.9,8.2,24.7,28.4,24.7,28.4
			c4.1-3.4,5.5-8.8,5.5-8.8c0.8,1.8,1,7.3,1,7.3c8.1-6.7,7.4-11.4,7.4-11.4c-1.7,0.9-6.2,0-6.2,0c4.8-3.8,6.1-11.7,6.1-11.7
			c-4.6,5.3-10.8,9.6-10.8,9.6c0.5,3.5-0.8,6.8-0.8,6.8c0.6-4.4-14.7-21.9-14.7-21.9s11.4,9.2,15.7,6.7c11.8-5.5,22.7-26.2,22.4-40
			c-0.3-13.8-14.9-9.3-14.9-9.3s6.5,12.2,4,22.7c-2.5,10.4-11.7,17.3-11.7,17.3c-0.6-2.1-10.9-3.2-10.9-3.2c2.3-2.5,8.8-2.6,8.8-2.6
			c10.3-11.5,4.5-31.4,4.5-25.7c0,5.7-6,11.9-6,11.9c2.9-12.6-2.8-19.4-2.8-19.4c0.9,20.1-23.5,23.9-23.5,23.9
			c2.9,4.6,12.1,6,12.1,6c-9.2,9.2-18.9-3.1-18.9-3.1c-2,3.2-5.2,6.9-5.2,6.9c-14.3-16.1-5.5-29.2-5.5-29.2
			c1.2,7.8,5.7,13.6,5.7,13.6c8.3-15.3,3.5-41.9,3.5-41.9c6,1.7,10.3,13.3,10.3,13.3c2.8-15.9-19.2-27.6-19.2-27.6
			c30.6-0.8,30.7,24.6,30.7,24.6c2.5-1.4,8.4-1.2,8.4-1.2c20.1-24.2,3.2-54.2,3.2-54.2c26.4,18.8,12.9,54.2,12.9,54.2
			c2.5-1.8,12.9,3.7,12.9,3.7c0-1.1-6.7-11.9-6.7-11.9s14.7,8.7,18.2,22.5c3.5,13.8-7.6,32.1-7.6,32.1c1.8,0.7,5.5,13.1,5.5,13.1
			c-5.8,3.4-8.4,14.6-8.4,14.6c6.1-1.5,14.7,3.7,14.7,3.7c0-4.9-6.1-13.6-6.1-13.6c2.2-0.6,7.4,0.9,7.4,0.9
			c-0.1-10.7-6.5-27.7-6.5-27.7c2.3-0.2,8.9,1.7,8.9,1.7c-0.1-10.7-6.4-26.4-6.4-26.4c1.7-0.3,6.7,1.4,6.7,1.4
			c-1.2-7-10-18.7-10-18.7c1.2-0.8,8.2-0.1,8.2-0.1c-0.5-3.8-8.1-12.3-8.1-12.3C500.8,412.9,510.3,412.6,510.3,412.6 M369.9,544
			c0,0-5.5,3.5-14.7-2.3c-9.2-5.8-8.6-11.2-8.6-11.2S354.8,538.8,369.9,544 M373.9,506.5c-3.1,6-1.7,12.4-1.7,12.4
			c-4.1-2.8-5.7-11.5-3.1-16.4c2.6-4.9,8.4-16.7,8.4-16.7C380.5,492.3,376.9,500.5,373.9,506.5 M456.1,530.5c0,0,0.6,5.4-8.6,11.2
			c-9.2,5.8-14.7,2.3-14.7,2.3C447.8,538.8,456.1,530.5,456.1,530.5 M425,485.8c0,0,5.8,11.8,8.4,16.7c2.6,4.9,1.1,13.6-3.1,16.4
			c0,0,1.4-6.4-1.7-12.4C425.6,500.5,422.1,492.3,425,485.8 M420.7,397l1.7,7.2c0,0-14.3-7-17.5-7.5c0,0,0.1,4.4,2.3,7.5
			c2.2,3.1,10.8,10.8,10.5,14.8c0,0-5.5-3.7-9.5-3.4c0,0,11.7,11.6,10.3,24.7c0,0-5.9-15-14.3-18.7c0,0-0.5,6.3,2,10.9
			c2.4,4.6,1.8,14.7,1.8,14.7s-2.6-5.3-4.3-5.4c0,0-0.8,10.1-2.3,13.4v0.3c0,0-0.1-0.1-0.1-0.2c0,0.1-0.1,0.1-0.1,0.2v-0.3
			c-1.5-3.3-2.3-13.4-2.3-13.4c-1.6,0.1-4.3,5.4-4.3,5.4s-0.6-10.1,1.8-14.7c2.4-4.6,2-10.9,2-10.9c-8.4,3.7-14.3,18.7-14.3,18.7
			c-1.4-13.1,10.3-24.7,10.3-24.7c-4-0.4-9.5,3.4-9.5,3.4c-0.3-4,8.3-11.7,10.5-14.8c2.2-3.1,2.3-7.5,2.3-7.5
			c-3.2,0.5-17.5,7.5-17.5,7.5l1.7-7.2c-10.3,1.4-30.6,10.6-30.6,10.6s8.4-13.8,17.5-21.9c9.1-8.1,24.3-12,24.3-12
			c-4.7,8.5-4,13.5-4,13.5c4.1-5,12-11.7,12.1-11.7v0l0,0v0c0,0,7.9,6.7,12.1,11.7c0,0,0.7-5-4-13.5c0,0,15.3,3.9,24.3,12
			c9.1,8.1,17.5,21.9,17.5,21.9S431,398.4,420.7,397 M455.4,360.5c-3.5,0-15.4-5.8-16.1-7c-0.6-1.1,0.2-4.7,0.2-4.7
			c-3.8,4.6-8.3,4.4-8.3,4.4c0.3-3.4-1.2-8.6-1.2-8.6c-0.2,7.5-1.7,13.2-1.7,13.2c4.9,1.7,22.6,15.5,22.6,15.5
			c-0.7-3.2-14.1-15.8-14.1-15.8c30,6.4,25.8,40.9,25.8,40.9s-8.5-13.8-26-27.1c-21.3-13.7-32.3-6.8-34.9-4.7l-0.3,0.3l-0.3-0.3
			c-2.6-2.1-13.5-9-34.9,4.7c-17.5,13.3-26,27.1-26,27.1s-4.1-34.4,25.8-40.9c0,0-13.4,12.6-14.1,15.8c0,0,17.7-13.9,22.6-15.5
			c0,0-1.5-5.7-1.7-13.2c0,0-1.5,5.2-1.2,8.6c0,0-4.5,0.2-8.3-4.4c0,0,0.8,3.5,0.2,4.7c-0.6,1.1-12.5,7-16.1,7c-3.5,0-17,4.7-21.4,8
			c0,0,2.9-6.6,22.1-14.5c5.2-2.1,8.1-6,8.1-6s0.2-10.3,7.8-13.9c0,0,0,8.3,3.5,11.5c0,0,2.5-9.8,11.8-10.9c0,0-1.7,8.9-0.2,12.2
			c0,0,7.7-6.3,10.6-6.1c0,0-4.1,8.1-3.8,13.2c0,0,7.2,0.3,15.2-4.4c8,4.7,15.2,4.4,15.2,4.4c0.3-5.1-3.8-13.2-3.8-13.2
			c2.9-0.2,10.6,6.1,10.6,6.1c1.5-3.4-0.2-12.2-0.2-12.2c9.4,1.1,11.8,10.9,11.8,10.9c3.5-3.2,3.5-11.5,3.5-11.5
			c7.7,3.7,7.8,13.9,7.8,13.9s2.9,3.8,8.1,6c19.2,8,22.1,14.5,22.1,14.5C472.5,365.2,459,360.5,455.4,360.5"/>
		<path fill="#A5411D" d="M401.9,366.5l-0.3,0.3l-0.3-0.3c-2.6-2.1-13.5-9-34.9,4.7c-2.7,2.1-5.2,4.1-7.5,6.2
			c2.1-0.9,14.5-5.7,24.2-6.2c0,0-4.7,5.1-8.4,10.2c8.6-5.3,18.6-7.8,18.6-7.8c-4.7,8.5-4,13.5-4,13.5c4.1-5,12-11.7,12.1-11.7v0
			l0,0v0c0,0,7.9,6.7,12.1,11.7c0,0,0.7-5-4-13.5c0,0,10.1,2.6,18.7,7.9c-2.1-3.4-5.6-8.3-8.1-9.9c0,0,12.7,0.9,24.1,5.8
			c-2.3-2-4.8-4.1-7.5-6.2C415.4,357.5,404.5,364.4,401.9,366.5"/>
		<path fill="#F5AB48" d="M477.2,332.9c-8.1,5.4-19.7,2.5-19.7,2.5c6.5,10,15.4,7.2,15.4,7.2s-2.9,6.3-8.2,6.3
			c-5.3,0-15.7-13-22.8-16.8c-7.1-3.8-12.1,1.5-12.1,1.5c-2.2-7.5-8.6-14.5-8.6-14.5c-3,6.1-10.5,13.1-10.5,13.1
			c0.1-1.7-4.4-10.4-4.4-10.4c-0.5,3.5-4.3,13.3-5,15c-0.6-1.7-4.4-11.6-5-15c0,0-4.5,8.7-4.4,10.4c0,0-7.5-7-10.5-13.1
			c0,0-6.5,7-8.6,14.5c0,0-5-5.3-12.1-1.5c-7.1,3.8-17.5,16.8-22.8,16.8c-5.3,0-8.2-6.3-8.2-6.3s9,2.8,15.4-7.2
			c0,0-11.6,2.9-19.7-2.5c-7-4.7-12.1-9.9-13.3-11.2c-2.5,7.6-5.2,23.6,8.6,36.5c0,0-4,1.7-9.8-1.4c0,0,7.3,18,16.9,22.7
			c0,0-5.1,12.1-4.8,23c1.5-9,5.8-18.3,15.7-25.4c0,0-2.2,3.9-4,9.9c2.4-3.1,5-6.1,7.8-8.7c3-8.9,9.6-18,23.5-21
			c0,0-13.4,12.6-14.1,15.8c0,0,17.7-13.9,22.6-15.5c0,0-1.5-5.7-1.7-13.2c0,0-1.5,5.2-1.2,8.6c0,0-4.5,0.2-8.3-4.4
			c0,0,0.8,3.5,0.2,4.7c-0.6,1.1-12.5,7-16.1,7c-3.5,0-17,4.7-21.3,8c0,0,2.9-6.6,22.1-14.5c5.2-2.1,8.1-6,8.1-6s0.2-10.3,7.8-13.9
			c0,0,0,8.3,3.5,11.5c0,0,2.5-9.8,11.8-10.9c0,0-1.7,8.9-0.2,12.2c0,0,7.7-6.3,10.6-6.1c0,0-4.1,8.1-3.8,13.2c0,0,7.2,0.3,15.2-4.4
			v0c8,4.7,15.2,4.4,15.2,4.4c0.3-5.1-3.8-13.2-3.8-13.2c2.9-0.2,10.6,6.1,10.6,6.1c1.5-3.4-0.2-12.2-0.2-12.2
			c9.4,1.1,11.8,10.9,11.8,10.9c3.5-3.2,3.5-11.5,3.5-11.5c7.7,3.7,7.8,13.9,7.8,13.9s2.9,3.8,8.1,6c19.2,8,22.1,14.5,22.1,14.5
			c-4.3-3.2-17.8-8-21.4-8c-3.5,0-15.4-5.8-16.1-7c-0.6-1.1,0.2-4.7,0.2-4.7c-3.8,4.6-8.3,4.4-8.3,4.4c0.3-3.4-1.2-8.6-1.2-8.6
			c-0.2,7.5-1.7,13.2-1.7,13.2c4.9,1.7,22.6,15.5,22.6,15.5c-0.7-3.2-14.1-15.8-14.1-15.8c14,3,20.6,12.1,23.6,21
			c1.5,1.5,5,5.2,7.7,9.6c-1.9-6.6-4.3-10.8-4.3-10.8c9.5,6.8,13.8,15.6,15.5,24.2c0.4-2.7,0.4-9.3-4.7-21.3
			c0,0,12.4-10.7,17.3-23.1c0,0-6.4,2.2-10.1,1.6c0,0,17.5-13.7,8.9-37.2C490.8,321.4,485.3,327.5,477.2,332.9"/>
		<path fill="#A5411D" d="M388.1,345.5c-1,2.7-2,5.9-1.8,8.5c0,0,7.2,0.3,15.2-4.4v0c8,4.7,15.2,4.4,15.2,4.4c0.1-2.2-0.6-5-1.4-7.4
			c-3-2.6-8.4-3.3-8.4-3.3c1.1,2.1,0.5,4.9,0.5,4.9c-2.4-0.4-6.1-2.7-6.1-2.7c-0.9,0.8-5.9,2.6-5.9,2.6c-0.7-2.2,0.5-4.7,0.5-4.7
			C393.4,343.3,390.5,344.3,388.1,345.5"/>
		<path fill="#A5411D" d="M364.7,338.5c0.4,2.5,1.3,5.4,3.1,7.1c0,0,0.4-1.5,1.4-3.4C367.1,341,365.2,339,364.7,338.5"/>
		<path fill="#A5411D" d="M435.1,345.5c1.8-1.6,2.7-4.5,3.1-7c-1.4,1.7-3.5,3.1-4.5,3.7C434.8,344,435.1,345.5,435.1,345.5"/>
		<path fill="#A5411D" d="M379.5,346.9c0,0,1.7-1.3,3.7-2.8c1-3.8,3.1-7.2,3.1-7.2c-2.1,0.1-4.7,1-7.3,2
			C378.8,341.7,378.7,345.1,379.5,346.9"/>
		<path fill="#A5411D" d="M418.7,343.4c2.5,1.7,4.7,3.5,4.7,3.5c0.8-1.7,0.7-4.6,0.5-7.2c-3.5-2.3-7.3-2.4-7.3-2.4
			C417.9,340,418.5,342,418.7,343.4"/>
		<path fill="#F5AB48" d="M453,487.7c0,0,4.6,3.7,9,5.8l-6.3-9.3c1.2-0.6,3.9-1.2,6.5-1.6c-2.4-0.5-4.6-0.7-4.6-0.7
			c2.3-2.5,8.8-2.6,8.8-2.6c10.3-11.5,4.5-31.4,4.5-25.7c0,5.7-6,11.9-6,11.9c2.9-12.6-2.8-19.4-2.8-19.4
			c0.9,20.1-23.5,23.9-23.5,23.9c2.9,4.6,12.1,6,12.1,6c-9.2,9.2-18.9-3.1-18.9-3.1c-2,3.2-5.2,6.9-5.2,6.9
			c-14.3-16.1-5.5-29.2-5.5-29.2c1.2,7.8,5.7,13.6,5.7,13.6c0.2-0.3,0.3-0.6,0.5-0.9c2.2-23.1-5.3-37.8-5.3-37.8
			c1.5,0.1,6.6,2.5,6.6,2.5c-3.2-11.5-17.7-25.6-23.7-31.2c0,0.9,0.3,4.6,2.3,7.3c2.2,3.1,10.8,10.8,10.5,14.8c0,0-5.5-3.8-9.5-3.4
			c0,0,11.7,11.6,10.3,24.7c0,0-5.9-15-14.3-18.7c0,0-0.5,6.3,2,10.9c2.4,4.6,1.8,14.7,1.8,14.7s-2.7-5.3-4.3-5.4
			c0,0-0.8,10.1-2.3,13.4v0.3c0,0,0-0.1-0.1-0.2c0,0.1-0.1,0.1-0.1,0.2v-0.3c-1.5-3.3-2.3-13.4-2.3-13.4c-1.6,0.1-4.3,5.4-4.3,5.4
			s-0.6-10.1,1.8-14.7c2.4-4.6,2-10.9,2-10.9c-8.4,3.7-14.3,18.7-14.3,18.7c-1.4-13.1,10.5-24.5,10.5-24.5c-4-0.4-9.6,3.2-9.6,3.2
			c-0.3-4,8.3-11.5,10.5-14.6c1.6-2.2,2.2-6.1,2.3-7.5c-6.3,5.8-20.5,20.2-23.6,31.5c0,0,5.1-2.4,6.6-2.5c0,0-7.6,14.9-5.2,38.3
			c0,0,4.5-5.8,5.7-13.6c0,0,8.8,13.2-5.5,29.2c0,0-3.2-3.7-5.2-6.9c0,0-9.7,12.2-18.9,3.1c0,0,9.2-1.4,12.1-6
			c0,0-24.4-3.8-23.5-23.9c0,0-5.7,6.9-2.8,19.4c0,0-6-6.3-6-11.9c0-5.7-5.8,14.2,4.5,25.7c0,0,6.5,0.1,8.8,2.6c0,0-2.7,0.3-5.4,0.8
			c2.9,0.4,6.3,1,7.7,1.8l-5.8,8.5c4.1-2.1,8.1-5.3,8.1-5.3s-2.1,2.4-4.7,5.6c3.7-1.5,8.3-3.3,9.9-3.3c0,0-1.8,2.8-3,6
			c2.8-2.5,6.2-4.8,10-6.6c0,0-19.8,35.1-0.7,40.9c4.2,1.3,8.8,5,12.5,8.6c-0.9-3.2-2.2-6.6-4.9-7.8c0,0,6.1-4.1,12.4,7.8
			c0,0,10.3-5.2,14.1,6.3c0,0-6.5-4.1-10-0.3c0,0,10.6,5.2,10,12.6c0,0,3.2,3.4,4.3,3.2l1.9-5.7l1.9,5.7c1.1,0.2,4.3-3.2,4.3-3.2
			c-0.6-7.3,10-12.6,10-12.6c-3.5-3.8-10,0.3-10,0.3c3.8-11.5,14.1-6.3,14.1-6.3c6.3-11.9,12.4-7.8,12.4-7.8c-2.7,1.3-4,4.6-4.9,7.9
			c3.8-3.7,8.6-7.7,13-9c16.4-5,4-31.8,0.2-39.1c-0.9-1-1.4-1.5-1.4-1.5c0.3,0.1,0.5,0.3,0.8,0.4c-0.2-0.5-0.4-0.7-0.4-0.7l1,1
			c3.6,1.8,6.7,4.1,9.4,6.6c-1.2-3.6-3.4-7.1-3.4-7.1c1.4,0,5.4,1.4,8.9,2.9C454.8,489.7,453,487.7,453,487.7 M373.7,506.3
			c-3.1,6-1.7,12.4-1.7,12.4c-4.1-2.8-5.7-11.5-3.1-16.4c2.6-4.9,8.4-16.7,8.4-16.7C380.3,492.1,376.8,500.4,373.7,506.3
			 M430.2,518.7c0,0,1.4-6.4-1.7-12.4c-3.1-6-6.6-14.2-3.7-20.7c0,0,5.8,11.8,8.4,16.7C435.9,507.3,434.4,516,430.2,518.7"/>
		<path fill="#A5411D" d="M419.2,514.5c0,0,3.2-2.3,7.8-11.5c-2.5-5.4-4.4-11.9-2-17.2c0,0,2.6,5.3,5.1,10.2
			c0.1-0.3,0.2-0.5,0.3-0.8c0,0-1.2-6.6-0.8-10.8c0,0,26.7,6.4,33.5-18.6c0,0-3.2,2.2-5.5,2.3c0,0,5.1-4.3,7.8-13.5
			c-0.9-5.5-3.3-8.4-3.3-8.4c0.9,20.1-23.5,23.9-23.5,23.9c2.9,4.6,12.1,6,12.1,6c-9.2,9.2-18.9-3.1-18.9-3.1
			c-2,3.2-5.2,6.9-5.2,6.9c-14.3-16.1-5.5-29.2-5.5-29.2c1.2,7.8,5.7,13.6,5.7,13.6c0.1-0.2,0.2-0.3,0.3-0.5
			c0.2-2.6,2.4-27.4-4.6-37.4c0,0,1.1,8.1,0.3,11.8c0,0-2.9-9-5.4-9.8l-1.1-0.7c1.6,3.8,2.7,8.1,2.2,12.6c0,0-5.9-15-14.3-18.7
			c0,0-0.5,6.3,2,10.9c2.4,4.6,1.8,14.7,1.8,14.7s-2.7-5.3-4.3-5.4c0,0-0.8,10.1-2.3,13.4v0.3c0,0-0.1-0.1-0.1-0.2
			c0,0.1-0.1,0.1-0.1,0.2v-0.3c-1.5-3.3-2.3-13.4-2.3-13.4c-1.6,0.1-4.3,5.4-4.3,5.4s-0.6-10.1,1.8-14.7c2.4-4.6,2-10.9,2-10.9
			c-8.4,3.7-14.3,18.7-14.3,18.7c-0.4-4.3,0.5-8.3,2-11.9l-0.1,0c-2.5,0.8-5.4,9.8-5.4,9.8c-0.8-3.7,0.3-11.8,0.3-11.8
			c-6.8,9.7-5,33.5-4.7,37.2c1.2-1.8,4.2-6.7,5.2-12.9c0,0,8.8,13.2-5.5,29.2c0,0-3.2-3.7-5.2-6.9c0,0-9.7,12.2-18.9,3.1
			c0,0,9.2-1.4,12.1-6c0,0-24.4-3.8-23.5-23.9c0,0-1.9,2.3-2.9,6.7c2.5,10.4,8.3,15.2,8.3,15.2c-2.3-0.1-5.5-2.3-5.5-2.3
			c6.8,25,33.5,18.6,33.5,18.6c0.3,3.6-0.5,9-0.7,10.4c2.3-4.6,4.5-9.1,4.5-9.1c2.2,4.9,0.7,11-1.6,16.2c4.9,10.1,8.3,12.5,8.3,12.5
			c-0.7-27.1,17.4-37.2,17.4-37.2S419.9,487.4,419.2,514.5"/>
		<path fill="#4C4B4C" d="M359.6,454.3c0,2.9-0.8,5.2-1.8,5.2c-1,0-1.8-2.3-1.8-5.2c0-2.9,0.8-5.2,1.8-5.2
			C358.8,449.1,359.6,451.4,359.6,454.3"/>
		<path fill="#4C4B4C" d="M446.1,454.3c0,2.9-0.8,5.2-1.8,5.2c-1,0-1.8-2.3-1.8-5.2c0-2.9,0.8-5.2,1.8-5.2
			C445.4,449.1,446.1,451.4,446.1,454.3"/>
		<path fill="#B2B2B2" d="M436.1,584.3c0,0-2.7-3.5-4.7-5c0,0-13.7,4-25.6-5.3c-1.5-1.3-5.3,4.7-5.3,4.7c0,0-3.8-6-5.3-4.7
			c-11.9,9.3-25.6,5.3-25.6,5.3c-2.1,1.5-4.7,5-4.7,5c6.6-1.5,11,1.4,11,1.4c-4.9,5.1-5,10.2-5,10.2c4-4,9.7-6.2,9.7-6.2
			c0.4,9.9,4.9,15.1,4.9,15.1c-0.1-2.2,4.2-9.4,4.2-9.4c2.4-0.2,9.6,10.2,9.6,10.2c-0.1-2.4,1.3-7.6,1.3-7.6s1.4,5.2,1.2,7.6
			c0,0,7.2-10.5,9.6-10.2c0,0,4.3,7.2,4.2,9.4c0,0,4.4-5.2,4.9-15.1c0,0,5.7,2.2,9.7,6.2c0,0-0.1-5.2-5-10.2
			C425.1,585.7,429.5,582.8,436.1,584.3"/>
		<path fill="#B2B2B2" d="M523.3,441.1c0,0,9.4,21.8,9.3,30c0,0-6-3.8-8.1-3.9c0,0,9.4,25.8,7.5,36.6c0,0-6.5-5.5-9.9-6.8
			c0,0-0.7,37.2-5.1,40.9c0,0-16.7-11-20.6-10.9c0,0-7.4,18.2-12,21.1c0,0-12.4-10.1-16.3-10.7c0,0-2.5,30.8-18.3,43.2
			c0,0,6.6,4.1,7.8,6.7c0,0,11.5-16.4,13.1-37.2c0,0,8.4,6.1,17.5,26.9c0,0,8.4-16.8,11.7-39.6c0,0,13.4,7.8,19.7,19.1
			c0,0,9.7-23.1,8.6-45.2c0,0,6.6,3.2,10.8,9.2c0,0,1.1-32-4.8-44.7c0,0,7.2-0.3,10.1,2C544.4,477.9,535.9,454.5,523.3,441.1"/>
	</g>
	<g>
		<path fill="#FFFFFF" d="M378.1,196.9v4.9h-18.3c0.2-1.9,0.8-3.6,1.8-5.3c1-1.7,3-3.9,5.9-6.7c2.4-2.2,3.8-3.7,4.3-4.5
			c0.7-1.1,1.1-2.2,1.1-3.3c0-1.2-0.3-2.1-0.9-2.7c-0.6-0.6-1.5-1-2.6-1c-1.1,0-2,0.3-2.6,1c-0.6,0.7-1,1.8-1.1,3.3l-5.2-0.5
			c0.3-2.9,1.3-5,2.9-6.3c1.6-1.3,3.7-1.9,6.1-1.9c2.7,0,4.8,0.7,6.3,2.2c1.5,1.5,2.3,3.3,2.3,5.5c0,1.2-0.2,2.4-0.7,3.6
			c-0.4,1.1-1.1,2.3-2.1,3.5c-0.6,0.8-1.8,2-3.4,3.5c-1.7,1.5-2.7,2.6-3.1,3.1c-0.4,0.5-0.8,1-1.1,1.5H378.1z"/>
		<path fill="#FFFFFF" d="M390.5,173.9c2.6,0,4.7,1,6.2,2.9c1.8,2.3,2.7,6,2.7,11.3c0,5.3-0.9,9-2.7,11.3c-1.5,1.9-3.5,2.8-6.2,2.8
			c-2.7,0-4.8-1-6.4-3.1c-1.6-2.1-2.4-5.8-2.4-11.1c0-5.2,0.9-9,2.7-11.3C385.8,174.9,387.8,173.9,390.5,173.9z M390.5,178.4
			c-0.6,0-1.2,0.2-1.7,0.6c-0.5,0.4-0.9,1.1-1.2,2.2c-0.4,1.4-0.5,3.7-0.5,6.9c0,3.3,0.2,5.5,0.5,6.7c0.3,1.2,0.7,2,1.2,2.4
			c0.5,0.4,1.1,0.6,1.7,0.6c0.6,0,1.2-0.2,1.7-0.6c0.5-0.4,0.9-1.1,1.2-2.2c0.4-1.4,0.5-3.7,0.5-6.9c0-3.3-0.2-5.5-0.5-6.7
			c-0.3-1.2-0.7-2-1.2-2.4C391.7,178.6,391.1,178.4,390.5,178.4z"/>
		<path fill="#FFFFFF" d="M416.2,201.8H411v-20c-1.9,1.8-4.2,3.2-6.8,4V181c1.4-0.5,2.8-1.3,4.4-2.6c1.6-1.3,2.7-2.7,3.3-4.4h4.2
			V201.8z"/>
		<path fill="#FFFFFF" d="M424.1,194.7l5.2-0.5c0.1,1.2,0.6,2.1,1.3,2.8c0.7,0.7,1.6,1,2.5,1c1.1,0,2-0.5,2.8-1.4
			c0.8-0.9,1.1-2.3,1.1-4.1c0-1.7-0.4-3-1.1-3.8c-0.7-0.9-1.7-1.3-2.9-1.3c-1.5,0-2.8,0.7-4,2l-4.2-0.6l2.7-14.4h13.8v5h-9.9
			l-0.8,4.7c1.2-0.6,2.4-0.9,3.6-0.9c2.3,0,4.3,0.9,5.9,2.6c1.6,1.7,2.4,3.9,2.4,6.7c0,2.3-0.7,4.3-2,6.1c-1.8,2.4-4.2,3.7-7.4,3.7
			c-2.5,0-4.6-0.7-6.2-2.1C425.4,198.8,424.4,197,424.1,194.7z"/>
	</g>
	<g>
		<path d="M353,275.6l1.5-0.7l-0.4-8.3l-1.1,0.1l-0.3-4.2l1.1-0.1l-0.5-8.1l5.6-0.3l0.5,8.1l0.9-0.1l0.3,4.2l-0.9,0.1l0.3,6.4
			l1.1-0.5l0.3,4.8l-7.8,3.7L353,275.6z M378.9,275.4l-0.7-3.7l1.5-1.1l-0.2-6.3l-2.5,1.9l-1.2-6.4l3.6-0.2l-0.2-4l-0.6,0l-0.5-2.1
			l-2.9,0.2l0.4,2.1l-0.5,0l-0.5-2.7l-5.4,0.3l0.5,2.7l-8.3,0.5l0.6,24.1l4.8-0.7v-3.5l1.7-0.1l2.2-2.2l0.8,3l2.3-1.7l0.4,4.4l6-0.4
			l0.7-4.1L378.9,275.4z M366.7,273.3l0-6.4l0.7,0l0,6.4L366.7,273.3z M370.4,271.4l0-8.4l-3.8,0.1v-2.7l3.6-0.3l2.1,9.8
			L370.4,271.4z"/>
		<path d="M212.6,274.7l6-1.3l2.9,3.6l-6,1.1L212.6,274.7z M215,284.1l2.3-0.4c0,0,1.8,9.2,2,10.4c0.2,1.2-1.5,5.4-1.5,5.4l6.2-0.4
			l0.6-1.7c0,0,1.3,1,2.8,0.9c1.5-0.2,17.4-3.3,17.4-3.3l-0.8-4.1l-18.3,3.6l-3.2-16.3l-8.3,1.7L215,284.1z M224.4,276l8.9-1.7
			l-3.2,4.6l2.3,11.8l-2.3,0.4l0.3,1.5l8.5-1.6l-2.3-11.8l4.5-5.9l-0.9-4l-16.5,3.2L224.4,276z"/>
		<path d="M246.5,269.2l9.4-2l-0.6-2.2l7.3-1.6l0.6,2.4l9.1-2l1.7,7.2l-6.7,1.5l-0.7-3.2l-12.2,2.5l0.7,3.4l-7.2,1.5L246.5,269.2z
			 M247.9,278.4l0.8,3.6l10.4-2.1l1.8,9.6l-3.6,0.8l0.4,1.7l10.9-2l-2.3-11.4l9.4-1.9l-0.9-3.9l-26.8,5.5"/>
		<path d="M285.7,276.4l5.6-0.7l-0.3,10.6l-5.6,1.1L285.7,276.4z M285.8,275.3l5.6-0.7l-2.6-6.4l-5.6,0.7L285.8,275.3z M284.6,267.8
			l5.6-0.7l-2.6-6.4l-5.6,0.7L284.6,267.8z M290.1,263.4l1.2,8.5l3.8-0.6l-0.6-4.3l2.5-0.4l-5,19.9l6.3-0.8l2.3-10.3l1.3-0.1l0.7,10
			l9.4-1.3v-4.7l-0.8,0.1l-0.7,1.4l-3.9,0.6l-0.7-9.9l-4.3,0.5l1-5.9l2.5-0.2l0.5,4.3l4-0.5l-0.9-8.4l-5.3,0.6l0.5-3.6l-5.4,0.7
			l-0.7,3.7L290.1,263.4z"/>
		<path d="M329.7,267.5l-1.9,0.3l0.7-11.4l-11.7,1l2.9,25.9l4.9-0.5l-0.4-3.5l5.5-0.8V267.5z M325.2,278l-1,0.2l-1.9-16.7l1.7-0.1
			l-0.4,7.8l1.4-0.1L325.2,278z M344.1,254.8l-13.8,1.2l2.3,26.1l13.8-1.2L344.1,254.8z M336.6,260.5l1.7-0.1l0.5,5.8l-1.7,0.1
			L336.6,260.5z M338,276.4l-0.5-5.6l1.7-0.1l0.5,5.6L338,276.4z"/>
		<path d="M404.2,260.2h9.3v17l-7.4,0l-0.3-0.9h1.3l0-11.7h-2.8v14.1h-7.1v-14.1h-2.7v12.7H388v-17h9.1v-1.4h-10.2v-4.4h9.8
			l-0.7-2.2h7.3l0.7,2.2h10.6v4.4h-10.4V260.2z"/>
		<path d="M433.6,279.8l-4-2.4l-0.6,2.3l-6.8-0.2l3.3-12.9l6.8,0.2l-1.6,6.1l2.4,1.5l0.3-9.1l-9.3-0.3l0.3-11.7l24.1,0.7l-0.3,11.7
			l-8-0.2l-0.1,2.7l8.4,0.2l-0.1,4.1l-8.4-0.2l-0.1,3.9l9.6,0.3l-1.1,3.7L433.6,279.8z M431.1,257.7l-0.1,3.5l10.4,0.3l0.1-3.5
			L431.1,257.7z"/>
		<path d="M477.4,282.4l-7.7-0.6l-0.2-1.3l-4.2-0.3l1.9-10l5,0.4l-1.3,7.2l1.1,0.1l1.2-14.8l-6.4-0.5l0.2-2.7l-1.6-0.1l-0.5,5.6
			l1.4,0.1l-0.3,4.1l-1.4-0.1l-0.4,5.2l1.6-0.3l-0.3,4.1l-9.5,2l0.3-4.1l2.1-0.5l0.6-6.9l-1.8-0.1l0.3-4.1l1.8,0.1l0.5-5.6l-2-0.2
			l0.3-4.1l9.3,0.8l-0.2,2.7l6.3,0.5l0.3-3.3l5.7,0.5l-0.3,3.3l0.8,0.1l-0.2-2.6l4.5,0.4l0.2,2.6l0.9,0.1l-0.3,4.1l-6.3-0.5
			L477.4,282.4z M467.1,263.2l4.9,0.4l0.2,6.3l-4.9-0.4L467.1,263.2z M478.8,270.4l1.2-6.2l5,0.4l-1.2,6.2L478.8,270.4z M478.8,271
			l5,0.4l0.1,10.1l-5-0.4L478.8,271z"/>
		<path d="M493.1,283.7l2.5-19.5l-1.8,0l0.3-4.9l8.4-0.7l-3.2,25.4l3.2-3.9l6.9,0.8l-3.5,4.3L493.1,283.7z M500.7,275.9l1.1,0.1
			l2-16.8l16.7,2l-2,16.8l1.2,0.1l-0.4,3.6l-19-2.3L500.7,275.9z M509.5,263.5l-0.1,0.7l4.4,0.5l0.1-0.7L509.5,263.5z M509,267.7
			l-0.1,0.7l4.4,0.5l0.1-0.7L509,267.7z M508.5,271.9l-0.1,0.7l4.4,0.5l0.1-0.7L508.5,271.9z M508,276l-0.1,0.7l4.4,0.5l0.1-0.7
			L508,276z M509.8,281.1l6.8,0.8l2.6,5l-6.8-0.8L509.8,281.1z"/>
		<path d="M536.2,279l-4.7,9l-6.7-1.2l4.7-9L536.2,279z M544.7,280.3l1.5,10l6.7,1.2l-1.5-10L544.7,280.3z M546,270.6l-7.3-1.3
			l-0.8,4.8l-2.7-0.5l2.2-5.2l18.8,3.2l-0.1-4.3l-24.4-4.3l-4,9.4l-0.7,4.3l10.1,1.7c0,0-0.5,3.6-1.1,6.5c-0.6,2.8-3,4.6-3,4.6
			l7.5,1.3c0,0,2.2-2.3,2.5-3.7c0.9-4.6,1.4-7.3,1.4-7.3l10.3,1.8l0.2-4.4l-9.8-1.7L546,270.6z"/>
		<path d="M561.8,278.2l2.1,0.4l-0.1-4l5.6,1.2l0.1,4l0.3,0.1l1.8-3.6l5.6,1.2l-1.8,3.6l2.2,0.4l-0.8,3.8L561,282L561.8,278.2z
			 M563.7,270.1l4.7,1l-0.2-2.4l5.9,1.2l0.1,2.3l4.6,1l-0.8,3.8l-15.1-3.2L563.7,270.1z M561.9,283.1l-2.4,11.4l13.6,2.8l2.4-11.4
			L561.9,283.1z M567.9,292.4l-1.7-0.4l0.8-3.9l1.7,0.4L567.9,292.4z M589.4,285.8l-1.9-0.3l4.4-10.8l-11.6-2.8l-5.7,25.9l4.9,1.1
			l0.8-3.5l5.5,1.1L589.4,285.8z M581.6,294.4l-1-0.2l3.7-16.7l1.7,0.4l-2.9,7.4l1.4,0.3L581.6,294.4z"/>
	</g>
</g>
<g>
</g>
<g>
</g>
<g>
</g>
<g>
</g>
<g>
</g>
<g>
</g>
<g>
</g>
<g>
</g>
<g>
</g>
<g>
</g>
<g>
</g>
</svg>
