<!-- Created by @FCLOGO 2022-02-27 17:25:47 . https://fclogo.top/ -->
<!-- FOR PERSONAL USE ONLY NOT FOR COMMERCIAL USE -->
<svg version="1.1" xmlns="http://www.w3.org/2000/svg" xmlns:xlink="http://www.w3.org/1999/xlink" x="0px" y="0px"
	 viewBox="0 0 800 800" enable-background="new 0 0 800 800" xml:space="preserve">
<g>
	<g>
		<path fill="#004EA2" d="M400.3,50l-274.4,67.5c0,0,17.1,176.1,44,282.6s66,269.9,230.3,349.9c164.4-80.1,203.5-243.5,230.3-349.9
			c26.9-106.5,44-282.6,44-282.6L400.3,50z"/>
		<path fill="#E70012" d="M400.3,744.4C242.2,666.1,202.4,508.2,176,403.5l-1.2-4.6c-24.2-95.7-40.6-249.9-43.4-277.5l268.9-66.2
			l268.9,66.2c-2.8,27.7-19.3,181.9-43.4,277.5l-1.2,4.6C598.2,508.2,558.4,666.1,400.3,744.4z"/>
		<g>
			<path fill="#004EA2" d="M195.6,105.5l191.9,632.3c-36.2-19.7-65.9-43.8-90.4-70.4l-165.7-546v0L195.6,105.5z"/>
			<path fill="#004EA2" d="M669.2,121.3L669.2,121.3l-165.7,546c-24.5,26.6-54.1,50.7-90.4,70.4L605,105.5h0L669.2,121.3z"/>
		</g>
	</g>
	<g>
		<g>
			<g>
				<path fill="#FFFFFF" d="M369,303.2l3,0.5c-1.2,2.7-2.8,4.6-4.7,6c-2,1.3-4.2,2-6.5,2c-2.9,0-5-0.8-6.6-2.6
					c-1.5-1.7-2.1-4.1-1.9-7.3c0.4-4.1,1.8-7.5,4.6-10.2c2.4-2.5,5.4-3.7,8.7-3.7c2.4,0,4.4,0.7,5.8,2c1.4,1.3,2.2,3,2.2,5.2
					l-2.9,0.3c-0.2-1.7-0.7-2.9-1.7-3.7c-0.8-0.8-2-1.2-3.6-1.2c-2.9,0-5.3,1.2-7.2,3.7c-1.7,2.2-2.7,4.7-2.9,7.7
					c-0.2,2.3,0.3,4.2,1.4,5.4c1,1.3,2.5,1.8,4.4,1.8c1.6,0,3-0.5,4.4-1.5C367.1,306.6,368.2,305.1,369,303.2z"/>
				<polygon fill="#FFFFFF" points="373.6,311.3 380.3,288.4 383.3,288.4 380.6,297.9 392.6,297.9 395.4,288.4 398.6,288.4 
					391.9,311.3 388.8,311.3 391.9,300.5 379.8,300.5 376.7,311.3 				"/>
				<polygon fill="#FFFFFF" points="397.6,311.3 404.2,288.4 407.2,288.4 400.6,311.3 				"/>
				<path fill="#FFFFFF" d="M406.3,311.3l6.7-22.9h3l3.3,8.6c0.9,2.6,1.8,4.8,2.3,6.6c0.3,1.1,0.6,2.5,1,4.3c0.5-1.9,1-3.9,1.6-6
					l3.9-13.4h3l-6.7,22.9h-3l-4.8-13.3c-0.8-2.3-1.5-4.3-1.8-6.1c-0.3,1.5-0.7,3.2-1.4,5.5l-4.1,14L406.3,311.3L406.3,311.3z"/>
				<path fill="#FFFFFF" d="M427.6,311.3l15-22.9h3.7l2,22.9h-3l-0.6-6.7h-9.4l-4.3,6.7H427.6L427.6,311.3z M436.7,302.3h7.8
					l-0.5-5.8c-0.2-2.2-0.3-4.2-0.3-5.6c-0.6,1.3-1.5,2.9-2.7,4.6L436.7,302.3z"/>
			</g>
			<g>
				<path fill="#FFFFFF" d="M317.1,336.8l3,0.5c-1.2,2.7-2.8,4.7-4.7,6.1c-1.9,1.3-4.2,2-6.5,2c-2.8,0-5-0.8-6.5-2.6
					c-1.6-1.8-2.2-4.2-1.9-7.4c0.3-4.2,1.8-7.7,4.5-10.4c2.5-2.5,5.4-3.7,8.7-3.7c2.5,0,4.4,0.6,5.8,2c1.5,1.3,2.2,3,2.3,5.3l-3,0.3
					c-0.2-1.7-0.7-3-1.7-3.8c-0.8-0.8-2-1.2-3.6-1.2c-2.9,0-5.2,1.3-7.2,3.8c-1.7,2.1-2.6,4.7-2.9,7.8c-0.2,2.3,0.3,4.2,1.4,5.5
					c1,1.2,2.6,1.8,4.4,1.8c1.6,0,3.1-0.6,4.5-1.6C315.2,340.2,316.3,338.7,317.1,336.8z"/>
				<polygon fill="#FFFFFF" points="321.7,345 328.4,321.7 331.4,321.7 328.7,331.4 340.7,331.4 343.5,321.7 346.7,321.7 340,345 
					336.9,345 340,334 328,334 324.9,345 				"/>
				<path fill="#FFFFFF" d="M347.6,335.2c0.3-4.1,1.8-7.5,4.3-10c2.6-2.6,5.5-3.9,9-3.9c3,0,5.3,0.9,6.9,2.9
					c1.7,1.8,2.4,4.3,2.1,7.6c-0.2,2.2-0.7,4.3-1.8,6.3c-0.7,1.4-1.8,2.7-2.9,3.7c-1.1,1.1-2.3,1.8-3.6,2.5
					c-1.6,0.7-3.3,1.1-5.1,1.1c-1.8,0-3.5-0.5-5-1.4c-1.5-0.8-2.6-2.1-3.2-3.7C347.7,338.7,347.4,337.1,347.6,335.2L347.6,335.2z
					 M350.6,335.4c-0.1,1.4,0.1,2.6,0.6,3.8c0.5,1.1,1.2,2,2.3,2.7c1.1,0.6,2.2,0.9,3.5,0.9c1.1,0,2.3-0.3,3.4-0.8
					c1.1-0.6,2.1-1.4,3-2.4c1-0.9,1.8-2.2,2.3-3.7c0.6-1.5,1-2.9,1.1-4.3c0.2-2.3-0.4-4.2-1.5-5.5c-1.2-1.4-2.8-2-4.7-2
					c-2.4,0-4.6,1-6.7,3.1C352,329.1,350.9,331.9,350.6,335.4z"/>
				<path fill="#FFFFFF" d="M370.7,345l6.7-23.3h3l3.2,8.8c1,2.6,1.8,4.9,2.4,6.7c0.3,1.1,0.6,2.5,1,4.3c0.5-2,0.9-4,1.6-6.1
					l3.9-13.7h3l-6.7,23.3h-3l-4.8-13.4c-0.8-2.4-1.5-4.5-1.8-6.3c-0.3,1.5-0.7,3.3-1.4,5.5l-4.1,14.1
					C373.7,345,370.7,345,370.7,345z"/>
				<path fill="#FFFFFF" d="M406.5,335.9l0.8-2.7h10.2l-2.7,9.4c-1.4,0.8-2.9,1.5-4.5,2c-1.8,0.5-3.3,0.7-4.9,0.7
					c-3.4,0-5.8-1-7.3-3c-1.3-1.8-1.8-4-1.7-6.7c0.3-2.8,1.1-5.4,2.5-7.6c1.4-2.3,3-4,5-5.1c1.9-1.1,4.1-1.7,6.4-1.7
					c1.7,0,3,0.3,4.3,0.9c1.3,0.6,2.2,1.4,2.9,2.4c0.6,0.9,1,2.3,1.2,3.9l-3,0.4c-0.3-1.7-0.8-2.9-1.8-3.7c-1-0.8-2.3-1.3-3.9-1.3
					c-1.8,0-3.3,0.5-4.9,1.4c-1.5,0.9-2.8,2.3-3.8,4.2c-0.9,1.8-1.5,3.9-1.7,6.3c-0.2,2.3,0.2,4.1,1.3,5.3c1,1.2,2.5,1.8,4.5,1.8
					s4.3-0.6,6.7-1.9l1.4-5L406.5,335.9L406.5,335.9z"/>
				<path fill="#FFFFFF" d="M437.7,343.1c0.7,0.9,1.7,1.8,3,2.7l-1.5,1.8c-1.4-0.9-2.6-2-3.6-3.3c-1.6,0.7-3.1,1.1-4.6,1.1
					c-1.1,0-2.3-0.2-3.7-0.6c-1.3-0.4-2.4-1.1-3.2-1.9c-0.8-0.9-1.5-2-1.9-3.4c-0.4-1.4-0.6-2.9-0.5-4.5c0.2-2,0.7-4,1.7-5.8
					c0.7-1.5,1.7-2.8,2.8-3.9c1.1-1.1,2.3-1.9,3.6-2.6c1.7-0.8,3.5-1.2,5.4-1.2c2.9,0,5.2,0.9,6.8,2.9c1.8,1.8,2.4,4.3,2.2,7.6
					c-0.2,2.3-0.8,4.4-1.9,6.4C440.9,340.2,439.4,341.8,437.7,343.1L437.7,343.1z M435.9,341.1c1.4-1,2.5-2.4,3.4-4.1
					c0.9-1.8,1.5-3.6,1.6-5.5c0.2-2.4-0.3-4.3-1.5-5.6c-1.2-1.3-2.7-2-4.6-2c-1.6,0-3,0.5-4.6,1.4c-1.5,0.9-2.8,2.2-3.8,4
					c-1,1.8-1.6,3.7-1.8,5.8c-0.2,2.6,0.5,4.6,2,6c1.2,1.1,2.5,1.7,4,1.7c1.1,0,2.1-0.2,3.1-0.6c-0.9-0.8-1.8-1.6-2.9-2.1l1.3-1.8
					c0.6,0.3,1.3,0.6,1.8,1C434.5,339.7,435.2,340.3,435.9,341.1z"/>
				<polygon fill="#FFFFFF" points="445,345 451.6,321.7 454.8,321.7 448.1,345 				"/>
				<path fill="#FFFFFF" d="M453.8,345l6.7-23.3h3l3.2,8.8c1,2.6,1.8,4.9,2.3,6.7c0.4,1.1,0.7,2.5,1.1,4.3c0.5-2,0.9-4,1.6-6.1
					l3.9-13.7h3L472,345h-3l-4.8-13.4c-0.8-2.4-1.5-4.5-1.9-6.3c-0.3,1.5-0.6,3.3-1.3,5.5l-4.1,14.1C456.8,345,453.8,345,453.8,345z
					"/>
				<path fill="#FFFFFF" d="M489.7,335.9l0.7-2.7h10.3l-2.8,9.4c-1.3,0.8-2.8,1.5-4.5,2c-1.7,0.5-3.2,0.7-4.9,0.7
					c-3.3,0-5.8-1-7.3-3c-1.3-1.8-1.8-4-1.7-6.7c0.3-2.8,1-5.4,2.5-7.6c1.4-2.3,3-4,5-5.1c2-1.1,4.2-1.7,6.5-1.7
					c1.6,0,3,0.3,4.3,0.9c1.3,0.6,2.2,1.4,2.9,2.4c0.6,0.9,1,2.3,1.2,3.9l-3.1,0.4c-0.2-1.7-0.7-2.9-1.8-3.7
					c-0.9-0.8-2.2-1.3-3.9-1.3s-3.2,0.5-4.8,1.4c-1.5,0.9-2.8,2.3-3.8,4.2c-1,1.8-1.7,3.9-1.8,6.3c-0.1,2.3,0.3,4.1,1.4,5.3
					c1,1.2,2.6,1.8,4.6,1.8c2,0,4.3-0.6,6.7-1.9l1.5-5L489.7,335.9L489.7,335.9z"/>
			</g>
		</g>
		<path fill-rule="evenodd" clip-rule="evenodd" fill="#FFFFFF" d="M428,131l0.2,0.1l0.2,0.1l0.2,0.1l0.2,0.1l0.2,0.1l0.2,0.1
			l0.2,0.1l0.2,0l0.5,0.1l0.5,0l0.4,0h0.4l2.2,0.6l2.2,0.6l2.2,0.7l2.2,0.7l2.2,0.7l2.1,0.7l1.1,0.4l1.1,0.4l1,0.4l1,0.4l1,0.4
			l1,0.4l1,0.4l1,0.4l1,0.4l1,0.5l1,0.5l1,0.5l1,0.5l1,0.5l1,0.5l1,0.5l1,0.5l1,0.6l1,0.5l1,0.6l0.3,0.1l0.3,0.1l0.3,0.1l0.3,0.2
			l0.3,0.2l0.3,0.2l0.3,0.2l0.3,0.2l0.5,0.4l0.5,0.4l0.3,0.2l0.3,0.2l0.3,0.2l0.3,0.1l0.5,0.4l0.5,0.3l0.5,0.3l0.5,0.4l0.5,0.4
			l0.5,0.4l0.3,0.2l0.3,0.2l0.3,0.2l0.3,0.3l0.6,0.4l0.6,0.4l0.6,0.4l0.6,0.4l0.6,0.4l0.6,0.4l0.6,0.4l0.6,0.4l7.8,7.2l0,0.1l0,0.1
			l0,0.1l0,0.1l0.1,0.2l0.1,0.2l0.1,0.2l0.2,0.2l0.2,0.2l0.2,0.2l0.3,0.3l0.3,0.3l0.1,0.2l0.1,0.2l0,0.1l0,0.1l0,0.1v0.1l0.3,0.2
			l0.2,0.2l0.2,0.2l0.2,0.2l0.3,0.4l0.3,0.4l0.3,0.4l0.3,0.4l0.2,0.2l0.2,0.2l0.2,0.2l0.2,0.2l0.2,0.3l0.2,0.3l0.2,0.3l0.2,0.3
			l0.2,0.4l0.2,0.4l0.2,0.4l0.1,0.4l0.1,0.1l0.1,0.1l0.1,0.1l0.1,0.1l0.2,0.3l0.2,0.3l0.3,0.6l0.3,0.6l0.7,0.7l0.7,1.2l0.7,1.3
			l0.7,1.3l0.6,1.3l0.6,1.3l0.5,1.4l0.5,1.4l0.5,1.4l0.4,1.4l0.4,1.4l0.4,1.5l0.3,1.5l0.3,1.5l0.3,1.5l0.2,1.5l0.2,1.5l0.1,1.5
			l0.1,1.5l0.1,1.5l0,1.5v1.5l-0.1,1.5l-0.1,1.5l-0.1,1.5l-0.2,1.5l-0.2,1.5l-0.2,1.5l-0.3,1.5l-0.3,1.5l-0.4,1.5l-0.4,1.5l-0.4,1.5
			l-0.3,0.9l-0.3,0.9l-0.3,0.9l-0.3,0.9l-0.3,0.9l-0.4,0.9l-0.4,0.9l-0.4,0.9l-0.4,0.9l-0.4,0.9l-0.5,0.9l-0.5,0.9l-0.5,0.8
			l-0.5,0.9l-0.5,0.8l-0.5,0.8l-0.5,0.8l-0.6,0.8l-0.6,0.8l-0.6,0.8l-0.6,0.8l-0.6,0.8l-0.7,0.8l-0.7,0.8l-0.7,0.8l-0.7,0.8
			l-0.7,0.8l-0.7,0.7l-0.7,0.7l-0.8,0.7l-0.8,0.7l-0.8,0.7h-0.4l-0.4,0.5l-0.4,0.5l-0.2,0.2l-0.2,0.2l-0.2,0.2l-0.2,0.2l-0.2,0.2
			l-0.2,0.2l-0.3,0.2l-0.3,0.2l-0.3,0.2l-0.3,0.2l-0.3,0.2l-0.3,0.1l-0.1,0.2l-0.2,0.2l-0.2,0.2l-0.2,0.2l-0.2,0.2l-0.2,0.1
			l-0.2,0.1l-0.2,0.1l-0.4,0.3l-0.4,0.3l-0.2,0.2l-0.2,0.2l-0.2,0.2l-0.2,0.2l-0.1,0l-0.1,0l-0.1,0.1L474,253l-0.2,0.2l-0.2,0.3
			l-0.1,0.1l-0.1,0.1l-0.1,0.1l-0.1,0.1l-0.2,0.1l-0.2,0.1l-0.2,0l-0.2,0l-0.3,0.3l-0.3,0.3l-0.4,0.3l-0.3,0.2l-0.7,0.4l-0.7,0.4
			l-0.7,0.4l-0.7,0.4l-0.4,0.2l-0.3,0.3l-0.3,0.3l-0.3,0.3l-0.3,0.1l-0.3,0.1l-0.2,0.1l-0.3,0.1l-0.5,0.3l-0.5,0.3l-0.5,0.3
			l-0.5,0.3l-0.3,0.1l-0.2,0.1l-0.3,0.1l-0.3,0.1l-0.7,0.7l-1.1,0.5l-1.1,0.5l-1.1,0.5l-1.1,0.5l-1.1,0.5l-1.1,0.5l-1.1,0.5
			l-1.1,0.5l-1.1,0.5l-1.1,0.4l-1.1,0.4l-1.2,0.4l-1.2,0.4l-1.2,0.4l-1.2,0.3L444,268l-0.5,0.2l-0.5,0.2l-0.5,0.2l-0.5,0.2l-0.5,0.2
			l-0.5,0.1l-0.5,0.1l-0.5,0.1l-0.4,0.2l-0.4,0.2l-0.4,0.2l-0.4,0.2l-0.4,0.2l-0.4,0.1l-0.2,0.1l-0.2,0l-0.2,0l-0.2,0l-0.3,0.2
			l-0.3,0.2l-0.3,0.1l-0.3,0.1l-0.3,0.1l-0.3,0.1l-0.3,0.1l-0.3,0.1l-0.3,0.1l-0.3,0.1l-0.3,0.1l-0.3,0.1l-0.3,0.1l-0.3,0.1
			l-0.3,0.2l-0.3,0.2l-1.3,0.3l-1.3,0.3l-1.3,0.3l-1.3,0.2l-1.3,0.2l-1.3,0.2l-1.3,0.2l-1.4,0.2l-1.3,0.2l-1.4,0.2l-1.4,0.2
			l-1.4,0.2l-1.4,0.1l-1.4,0.1l-1.4,0.1l-1.4,0.1l-1.4,0.1l-1.4,0.1l-1.4,0.1l-1.4,0l-1.4,0l-1.4,0h-1.4l-1.4,0l-1.4,0l-1.4-0.1
			l-1.4-0.1l-1.4-0.1l-1.4-0.1l-1.4-0.1l-1.4-0.1l-1.4-0.1l-2.2-0.3l-2.2-0.3l-2.2-0.3l-2.1-0.3l-2.1-0.4l-2.1-0.4l-2.1-0.4
			l-2.1-0.4l-2.1-0.5l-2.1-0.5l-2-0.5l-2-0.6l-2-0.6l-2-0.6l-2-0.7l-2-0.7l-0.5-0.3l-0.5-0.3l-0.5-0.3l-0.6-0.3l-0.3-0.1l-0.3-0.1
			l-0.3-0.1l-0.3-0.1l-0.3-0.1l-0.3-0.1l-0.3,0l-0.3,0l-0.7-0.4l-0.7-0.4l-0.7-0.4l-0.7-0.4l-0.3-0.2l-0.4-0.2l-0.4-0.2l-0.4-0.2
			l-0.4-0.1l-0.4-0.1l-0.4-0.1l-0.4-0.1l-1.7-1l-1.7-1l-1.7-1l-1.7-1l-1.7-1.1l-1.7-1.1l-0.8-0.5l-0.8-0.6l-0.8-0.6l-0.8-0.6
			l-0.8-0.6l-0.8-0.6l-0.8-0.6l-0.8-0.6l-0.8-0.6l-0.8-0.6l-0.8-0.7l-0.8-0.7l-0.8-0.7l-0.8-0.7l-0.8-0.7l-0.8-0.7l-0.8-0.7
			l-0.8-0.7l-0.7-0.7l-0.7-0.7l-0.1-0.2l-0.1-0.2l-0.1-0.2l-0.2-0.2l-0.4-0.3l-0.4-0.4l-0.4-0.4l-0.4-0.4l-0.2-0.2l-0.2-0.2
			l-0.2-0.2l-0.1-0.3l-0.3-0.2l-0.2-0.2l-0.2-0.2l-0.2-0.2l-0.3-0.4l-0.3-0.4l-0.1-0.2l-0.2-0.2l-0.2-0.2l-0.2-0.2l-0.2-0.2
			l-0.2-0.2l-0.3-0.2l-0.3-0.2l-0.2-0.4l-0.2-0.4l-0.2-0.4l-0.2-0.4l-0.2-0.4l-0.3-0.4l-0.3-0.4l-0.3-0.4l-0.1-0.1l-0.1-0.1
			l-0.1-0.1l-0.1-0.1l-0.1-0.2l-0.1-0.3l-0.1-0.1l-0.1-0.1l-0.1-0.1l-0.1-0.1l-0.1-0.1l-0.1-0.1l-0.2-0.1l-0.2-0.1l0-0.3l0-0.2
			l-0.1-0.2l-0.1-0.2l-0.1-0.2l-0.1-0.2l-0.1-0.2l-0.2-0.2l-0.3-0.4l-0.3-0.5l-0.1-0.2l-0.1-0.3l-0.1-0.3l-0.1-0.3l-0.4-0.3
			l-0.7-1.3l-0.6-1.3l-0.6-1.3l-0.5-1.3l-0.5-1.3l-0.5-1.4l-0.4-1.4l-0.4-1.4l-0.4-1.4l-0.3-1.4l-0.3-1.4l-0.3-1.4l-0.2-1.5
			l-0.2-1.5l-0.2-1.5l-0.1-1.5l-0.1-1.5l-0.1-1.5l0-1.5v-1.5l0.1-1.5l0.1-1.5l0.1-1.5l0.2-1.5l0.2-1.5l0.2-1.4l0.3-1.4l0.3-1.4
			l0.3-1.4l0.4-1.4l0.4-1.4l0.4-1.4l0.3-0.9l0.4-0.9l0.4-0.9l0.4-0.9l0.4-0.9l0.4-0.9l0.4-0.9l0.5-0.9l0.5-0.9l0.5-0.9l0.5-0.9
			l0.5-0.9l0.5-0.9l0.6-0.9l0.6-0.9l0.6-0.9l0.6-0.9l0.6-0.9l0.7-0.9l0.7-0.8l0.7-0.8l0.7-0.8l0.7-0.8l0.7-0.8l0.7-0.8l0.7-0.8
			l0.8-0.8l0.8-0.8l0.8-0.8l0.8-0.8l0.8-0.8l0.8-0.8l0.3-0.1l0.2-0.1l0.2-0.1l0.2-0.1l0.2-0.1l0.2-0.2l0.2-0.2l0.2-0.2l0.4-0.3
			l0.3-0.3l0.2-0.1l0.2-0.1l0.2-0.1l0.2-0.1l0.2-0.2l0.2-0.2l0.2-0.2l0.2-0.2l0.4-0.3l0.4-0.3l0.4-0.3l0.4-0.3l0.2-0.2l0.2-0.2
			l0.2-0.2l0.1-0.2l0.4-0.3l0.4-0.2l0.4-0.3l0.4-0.2l0.4-0.2l0.4-0.2l0.4-0.2l0.4-0.1l0.2-0.2l0.2-0.2l0.2-0.2l0.2-0.2l0.4-0.3
			l0.4-0.3l0.4-0.3l0.4-0.3l0.2-0.1l0.2-0.2l0.2-0.2l0.1-0.2l0.3-0.1l0.3-0.1l0.3-0.1l0.2-0.1l0.5-0.2l0.5-0.3l0.5-0.3l0.5-0.2
			l0.2-0.1l0.2-0.1l0.3-0.1l0.3-0.1l0.2-0.2l0.2-0.2l0.2-0.2l0.2-0.2l0.5-0.3l0.5-0.2l0.5-0.2l0.5-0.2l0.4-0.2l0.4-0.3l1.1-0.5
			l1.1-0.5l1.1-0.5l1.1-0.5l1.1-0.5l1.1-0.4l1.1-0.4l1.1-0.4l0.1-0.1l0.1-0.1l0.1-0.1l0.1-0.1l0.1,0l0.1,0l0.1,0h0.1l0.4,0.1l0.5,0
			l1.3-0.6l1.3-0.5l1.3-0.5l1.3-0.5l1.3-0.5l1.4-0.5l1.3-0.4l1.4-0.4l1.4-0.4l1.4-0.4l1.4-0.4l1.4-0.4l1.4-0.4l1.4-0.3l1.4-0.3
			l1.4-0.3l0.1-0.1l0.1-0.1l0.1-0.1l0.1,0l0.1,0l0.1,0l0.1,0l0.2,0l0.3,0l0.3,0h0.2l0.2,0l0.1,0l0.1-0.1l1.3-0.3l1.3-0.3l1.3-0.3
			l1.3-0.2l1.4-0.2l1.4-0.2l1.4-0.2l1.4-0.2l1.4-0.2l1.4-0.1l1.4-0.1l1.4-0.1l1.4-0.1l1.4-0.1l1.4-0.1l1.4-0.1l1.4,0l1.4,0h1.4h1.4
			l1.4,0l1.4,0l1.4,0.1l1.4,0.1l1.4,0.1l1.4,0.1l1.4,0.1l1.4,0.1l1.4,0.1l1.4,0.2l1.4,0.2l1.3,0.2l0.9,0.1l0.9,0.1l0.9,0.1l0.9,0.1
			l0.9,0.1l0.9,0.1l0.9,0.1L428,131L428,131L428,131z M436.9,139.3l0.9,0.3l0.9,0.3l0.9,0.3l0.9,0.4l0.9,0.4l0.9,0.4l0.9,0.4
			l0.9,0.4l0.9,0.4l0.9,0.4l0.9,0.4l0.9,0.4l0.9,0.5l0.9,0.5l0.9,0.5l0.9,0.5l0.8,0.4l0.8,0.4l0.8,0.4l0.8,0.5l0.8,0.5l0.8,0.5
			l0.8,0.5l0.8,0.5l0.7,0.5l0.7,0.5l0.8,0.6l0.7,0.6l0.7,0.6l0.7,0.6l0.7,0.6l0.7,0.6h0.3l0.6,0.5l0.6,0.5l0.7,0.6l0.7,0.6l0.3,0.3
			l0.3,0.3l0.3,0.3l0.3,0.3l0.2,0.3l0.2,0.3l0.2,0.3l0.2,0.3h-13.5l-2.1,4.2l-2.1,4.2l-2.1,4.2l-2.1,4.2l-2.1,4.2l-2.1,4.2l-2.1,4.2
			l-2.1,4.2l-2.1,4.2l-2.1,4.2l-2.1,4.2l-2.1,4.2l-2.1,4.2l-2.1,4.2l-2.1,4.2l-2.1,4.2l0.4,0.3h31.6l0.3-0.4l0.3-0.3l0.2-0.3
			l0.2-0.4l0.2-0.4l0.2-0.4l0.1-0.2l0.1-0.2l0.1-0.2l0.1-0.3l0.3-0.4l0.3-0.4l0.3-0.5l0.2-0.5l0.2-0.5l0.2-0.5l0.2-0.5l0.2-0.5
			l-27.4-0.3l0.1-0.1l0-0.1l0.1-0.1l0.1-0.1l0.1-0.1l0.1-0.1l0.1-0.1l0.1-0.1l0.2-0.1l0.2-0.1l0.2-0.1l0.2-0.1l0.5-0.1l0.5-0.1
			l0.2-0.1l0.2-0.1l0.2-0.1l0.2-0.1l0.5-0.3l0.5-0.2l0.5-0.2l0.5-0.2l0.9-0.4l0.9-0.4l0.9-0.4l0.9-0.4l0.5-0.2l0.5-0.2l0.5-0.2
			l0.5-0.2l0-0.1l0.1-0.1l0.1-0.1l0.1-0.1l0.1-0.1l0.1-0.1l0.2-0.1l0.2-0.1l0.2-0.1l0.2,0l0.2,0l0.2-0.1l0.2,0l0.1-0.1l0.1-0.1
			l0.1-0.1l0.1-0.1l0.1-0.1l0-0.1l0-0.1l0.3-0.1l0.3-0.1l0.3-0.1l0.3-0.2l0.3-0.2l0.3-0.2l0.3-0.2l0.3-0.2l0.3-0.2l0.3-0.2l0.3-0.2
			l0.3-0.2l0.3-0.2l0.3-0.1l0.3-0.1l0.3-0.1l0.4-0.3l0.4-0.3l0.4-0.3l0.4-0.3l0.4-0.3l0.4-0.2l0.2-0.1l0.2-0.1l0.2-0.1l0.2-0.1
			l0.6-0.5l0.6-0.5l0.6-0.5l0.6-0.6l1.2-1.2l1.2-1.2l1.2-1.2l1.2-1.2l0.6-0.5l0.6-0.5l0.6-0.5l0.6-0.5l0-0.2l0.1-0.2l0.1-0.2
			l0.1-0.2l0.1-0.2l0.1-0.2l0.1-0.2l0.1-0.2l0.3-0.3l0.3-0.3l0.1-0.2l0.1-0.2l0.1-0.2l0.1-0.2l0.2-0.1l0.2-0.1l0.2-0.2l0.1-0.2
			l0.2-0.3l0.2-0.3l0.2-0.3l0.2-0.3l0.1-0.1l0.1-0.2l0.2-0.1l0.2-0.1l0.3-0.4l0.2-0.3l0.2-0.3l0.2-0.3l0.2-0.3l0.2-0.3l0.2-0.3
			l0.2-0.4l0.7-1.4l0.7-1.4l0.7-1.4l0.7-1.4l0.7-1.4l0.7-1.4l0.7-1.4l0.7-1.4l0.7-1.4l0.7-1.4l0.7-1.4l0.7-1.4l0.7-1.4l0.7-1.4
			l0.7-1.4l0.7-1.4l0.1,0l0.1,0l0.1-0.1l0.1-0.1l0.1-0.1l0.1-0.1l0.1,0l0.1,0l0.2,0.3l0.2,0.3l0.2,0.3l0.2,0.3l0.3,0.5l0.3,0.5
			l0.7,1.2l0.7,1.1l0.7,1.1l0.6,1.1l0.6,1.1l0.6,1.1l0.3,0.6l0.3,0.6l0.3,0.6l0.3,0.6l0.7,1.6l0.6,1.6l0.5,1.7l0.5,1.7l0.4,1.7
			l0.4,1.7l0.3,1.8l0.3,1.8l0.2,1.8l0.2,1.8l0.1,1.8l0.1,1.8v1.8l-0.1,1.8l-0.1,1.8L487,208l-0.2,1.8l-0.3,1.8l-0.3,1.8l-0.4,1.8
			l-0.4,1.7l-0.5,1.7l-0.5,1.7l-0.6,1.7l-0.6,1.6l-0.7,1.6l-0.7,1.6l-0.8,1.6l-0.8,1.5l-0.9,1.5l-0.9,1.4l-1,1.4l-0.2,0.2l-0.2,0.2
			l-0.2,0.2l-0.2,0.2l-0.3,0.4l-0.3,0.4l-0.2,0.2l-0.2,0.2l-0.2,0.2l-0.2,0.2l-0.2,0.2l-0.2,0.2l-0.2,0.2l-0.2,0.2l0,0.1l0,0.1
			l0,0.1l-0.1,0.1l-0.1,0.1l-0.1,0.1l-0.1,0.1l-0.1,0.1l-0.2,0.2l-0.2,0.2l-0.1,0.1l-0.1,0.1l-0.1,0.1l0,0.1l-0.5,0.7l-0.5,0.7
			l-0.6,0.7l-0.6,0.7l-0.6,0.7l-0.6,0.6l-0.6,0.6l-0.6,0.6l-0.6,0.6l-0.6,0.6l-0.7,0.6l-0.7,0.6l-1.3,1.2l-1.3,1.2l-0.2,0.1
			l-0.2,0.1l-0.2,0.1l-0.2,0.1l-0.3,0.3l-0.3,0.3l-0.3,0.3l-0.3,0.3l-0.2,0.1l-0.2,0.1l-0.2,0.1l-0.2,0.1l-0.2,0.2l-0.2,0.2
			l-0.2,0.2l-0.2,0.1l-0.4,0.2l-0.4,0.2l-0.2,0.1l-0.2,0.1l-0.2,0.1l-0.2,0.2l-0.2,0.2l-0.2,0.2l-0.1,0.2l-0.1,0.2l-0.4,0.1
			l-0.4,0.2l-0.4,0.2l-0.4,0.2l-0.4,0.2l-0.4,0.3l-0.4,0.2l-0.4,0.3l-0.5,0.4l-0.6,0.4l-0.6,0.4l-0.6,0.4l-0.6,0.4l-0.6,0.4
			l-0.6,0.4l-0.5,0.4l-0.4,0.1l-0.4,0.1l-0.4,0.1l-0.4,0.2l-0.4,0.2l-0.3,0.2l-0.2,0.1l-0.2,0.1l-0.1,0.1l-0.1,0.1l-1.1,0.4
			l-1.1,0.4l-1,0.5l-1,0.5l-1,0.5l-1,0.5l-1,0.5l-0.9,0.5l-0.2-0.1l-0.2,0h-0.1l-0.1,0l-0.1,0l-0.1,0.1l-0.1,0.1l-0.1,0.1l-0.2,0.2
			l-0.2,0.2l-0.1,0.1l-0.1,0l-0.1,0l-0.1,0h-0.2l-0.2,0l-0.2,0l-0.2,0l-0.3,0.1l-0.3,0.1l-0.3,0.2l-0.3,0.2l-0.4,0.2l-0.4,0.2
			l-0.5,0.1l-0.5,0.1l-0.5,0.1l-0.5,0.1l-0.5,0.1l-0.5,0.1l-0.5,0.1l-0.5,0.1l-2,0.5l-2,0.5l-2,0.5l-2.1,0.4l-2.1,0.4l-2.1,0.4
			l-2.2,0.3l-2.2,0.3l-2.2,0.2l-2.2,0.2l-2.2,0.1l-2.2,0.1l-2.2,0.1h-2.2l-2.2,0l-2.2-0.1l-2.2-0.1l-2.2-0.2l-2.2-0.2l-2.2-0.3
			l-2.2-0.3l-2.2-0.3l-2.2-0.4l-2.1-0.4l-2.1-0.4l-2.1-0.5l-2.1-0.5l-2-0.6l-2-0.6l-2-0.7l-1.9-0.7l-1.9-0.8l-0.5-0.3l-0.5-0.2
			l-0.6-0.2l-0.6-0.2l-1.2-0.4l-1.2-0.5l-0.6-0.3l-0.6-0.3l-0.6-0.3l-0.6-0.3l-0.6-0.3l-0.6-0.4l-0.3-0.2l-0.3-0.2l-0.3-0.2L353,259
			l-0.3-0.1l-0.3-0.1l-0.3-0.1l-0.3-0.1l-0.3-0.2l-0.3-0.2l-0.3-0.2l-0.3-0.2l-0.6-0.4l-0.6-0.4l-0.3-0.2l-0.3-0.2l-0.3-0.2
			l-0.3-0.1l-0.2-0.2l-0.2-0.2l-0.2-0.2l-0.2-0.2l-0.2-0.1l-0.2-0.1l-0.2-0.1l-0.2-0.1l-0.2-0.1l-0.2-0.1l-0.2-0.1l-0.2-0.1
			l-0.2-0.2l-0.2-0.2l-0.2-0.2l-0.2-0.2l-0.1,0l-0.1,0l-0.1,0L344,254l-0.2-0.2l-0.2-0.2l-0.2-0.2l-0.2-0.2l-0.1-0.1l-0.1-0.1
			l-0.1,0h-0.1l-0.2-0.2l-0.2-0.2l-0.2-0.2l-0.2-0.2l-0.4-0.3l-0.4-0.3l-0.2-0.1l-0.2-0.1l-0.2-0.1l-0.2-0.2L340,251l-0.2-0.2
			l-0.2-0.2l-0.1-0.2l-0.3-0.1l-0.3-0.2l-0.2-0.2l-0.2-0.2l-0.2-0.2l-0.2-0.2l-0.2-0.2l-0.2-0.2l-0.4-0.4l-0.3-0.4l-0.3-0.4
			l-0.3-0.4v-0.3l32.7-0.3l0.2-0.1l0.2-0.1l0.1-0.2l0.1-0.1l0.1-0.2l0.1-0.2l0.1-0.2l0.1-0.2l0.1-0.3l0.1-0.3l0.1-0.1l0.1-0.2
			l0.1-0.1l0.1-0.1l0.4-1l0.4-1l0.5-1l0.5-1l0.5-1l0.4-1l0.2-0.5l0.2-0.5l0.2-0.6l0.2-0.6l-40.5-0.3l0.1-0.1l0.1-0.1l0.1-0.1
			l0.1-0.1l0.2-0.2l0.2-0.1l0.2-0.1l0.2-0.1l0.2-0.1l0.3-0.1l0.5-0.1l0.6-0.1l0.3-0.1l0.3-0.1l0.3-0.1l0.3-0.1l1.3-0.5l1.2-0.5
			l1.2-0.5l1.2-0.5l1.2-0.5l1.2-0.5l1.2-0.6l1.2-0.6l1.2-0.6l1.2-0.6l1.2-0.6l1.2-0.6l1.2-0.6l1.2-0.6l1.2-0.6l1.2-0.6l0.5-0.5
			l0.6-0.5l0.6-0.5l0.6-0.5l0.3-0.2l0.3-0.2l0.3-0.2l0.3-0.2l0.3-0.2l0.3-0.2l0.3-0.2l0.3-0.1l0.1-0.2l0.2-0.2l0.2-0.2l0.2-0.2
			l0.2-0.1l0.2-0.1l0.2-0.1l0.2-0.1l0.4-0.2l0.4-0.2l0.2-0.1l0.2-0.2l0.2-0.2l0.2-0.2l0.2-0.1l0.2-0.1l0.2-0.1l0.2-0.1l0.3-0.3
			l0.3-0.3l0.3-0.3l0.3-0.2l0.1-0.1l0.1-0.1l0.1-0.1h0.1l9.2-9l0.1-0.1l0-0.1l0.1-0.1l0.1-0.1l0.1-0.2l0.2-0.2l0.2-0.2l0.2-0.2
			l0.2-0.2l0.2-0.2l0.2-0.2l0.2-0.2l0.2-0.2l0.2-0.2l0.2-0.2l0.1-0.2l0.1-0.1l0.1-0.1l0.1-0.1l0-0.1l0.7-0.7l0.6-0.7l0.6-0.8
			l0.6-0.8l0.6-0.8l0.6-0.8l0.6-0.8l0.5-0.8l0.5-0.8l0.5-0.8l0.5-0.9l0.5-0.9l0.5-0.9l0.5-0.9l0.5-0.8l0.5-0.9l0.7-0.3l0.5-1.1
			l0.5-1.1l0.5-1.1l0.5-1.1l0.5-1.1l0.5-1.1l0.5-1.1l0.5-1.1l0.5-1.1l0.5-1.1l0.6-1.1l0.6-1.1l0.6-1.1l0.6-1.1l0.6-1.1l0.7-1.1
			l0.4-0.9l0.4-0.9l0.4-0.9l0.4-0.9l0.4-0.9l0.4-0.9l0.4-0.9l0.5-0.9l0.4-0.9l0.4-0.9l0.5-0.9l0.5-0.9l0.5-0.9l0.5-0.9l0.5-0.9
			l0.5-0.9l0.4-0.3l-0.4-0.3h-37.3l-2.5,4.9l-2.5,4.9l-2.5,4.9l-2.5,4.9l-2.5,4.9l-2.5,4.9l-2.5,4.9l-2.5,4.9l-2.5,4.9l-2.5,4.9
			l-2.5,4.9l-2.5,4.9l-2.5,4.9l-2.5,4.9l-2.5,4.9l-2.5,4.9l-0.1,0.1l-0.1,0l-0.1,0l-0.1,0l-0.1,0l-0.1,0h-0.1l-0.1,0l-0.1-0.1
			l-0.1-0.1l-0.1-0.1l-0.1-0.1l-0.2-0.3l-0.2-0.3l-0.1-0.2l-0.1-0.1l-0.1-0.1l-0.1-0.1l-0.1,0l-0.1,0l-0.1-0.4l-0.2-0.3l-0.2-0.3
			l-0.2-0.3l-0.2-0.3l-0.2-0.3l-0.2-0.3l-0.2-0.4l-0.2-0.1l-0.2-0.2l-0.1-0.2l-0.1-0.2l-0.2-0.4l-0.1-0.4l-0.1-0.2l-0.1-0.2
			l-0.1-0.2l-0.1-0.2l-0.1-0.1l-0.1-0.1l-0.2-0.1l-0.2-0.1l-0.2-0.6l-0.2-0.6l-0.3-0.5l-0.3-0.5l-0.5-1l-0.6-1l-0.3-0.5l-0.3-0.5
			l-0.3-0.5l-0.2-0.5l-0.2-0.5l-0.2-0.5l-0.2-0.5l-0.2-0.5l-0.3-0.7l-0.3-0.7l-0.2-0.7l-0.2-0.7L317,219l-0.2-0.7l-0.2-0.7l-0.2-0.7
			l-0.4-1.5l-0.3-1.5l-0.3-1.5l-0.3-1.4l-0.2-0.9l-0.1-0.9l-0.1-0.9l-0.1-0.9l-0.1-0.9l-0.1-0.9l-0.1-0.9l0-0.9l0-0.9l0-0.9l0-0.9
			l0-0.9l0.1-0.9l0.1-0.9l0.1-0.9l0.1-0.9l0.1-0.9l0.1-0.9l0.1-0.9l0.1-0.9l0.2-0.9l0.2-0.9l0.2-0.9l0.2-0.9l0.4-1.7l0.4-1.7
			l0.4-1.7l0.5-1.6l0.1-0.2l0.1-0.2l0.1-0.2l0.1-0.2l0.2-0.4l0.2-0.4l0.1-0.2l0.1-0.2l0.1-0.2l0.1-0.2l0.1-0.2l0.2-0.2l0.2-0.2
			l0.2-0.2l0.3-0.8l0.3-0.8l0.3-0.7l0.3-0.7l0.4-0.7l0.4-0.7l0.4-0.7l0.4-0.7l0.8-1.4l0.8-1.4l0.8-1.4l0.8-1.4l0.3-0.1l0.2-0.1
			l0.2-0.2l0.2-0.2l0.1-0.2l0.1-0.2l0.1-0.2l0.1-0.2l0.1-0.2l0.1-0.2l0.1-0.2l0.1-0.2l0.2-0.2l0.2-0.1l0.2-0.1l0.2-0.1l0-0.2
			l0.1-0.2l0.1-0.2l0.1-0.2l0.1-0.1l0.1-0.1l0.1-0.1l0.1-0.1l0.1-0.1l0.1-0.1l0.1-0.1l0.1-0.1l0.1-0.2l0.1-0.2l0.1-0.2l0-0.2
			l0.5-0.4l0.5-0.4l0.5-0.4l0.4-0.4l0.8-0.9l0.8-0.9l0.4-0.4l0.4-0.4l0.4-0.4l0.4-0.4l0.2-0.2l0.2-0.2l0.2-0.2l0.2-0.2l0.2-0.2
			l0.3-0.2l0.2-0.1l0.3-0.1l0.3-0.4l0.3-0.4l0.3-0.3l0.3-0.3l0.3-0.3l0.3-0.3l0.3-0.3l0.3-0.2l0.6-0.5l0.7-0.5l0.3-0.3l0.3-0.3
			l0.3-0.3l0.3-0.3l0.4-0.3l0.4-0.3l0.4-0.3l0.4-0.3l0.4-0.3l0.4-0.3l0.4-0.3l0.4-0.3l0.1-0.2l0.1-0.2l0.2-0.1l0.2-0.1l0.2-0.1
			l0.2-0.1l0.2-0.1l0.2-0.1l0.3-0.2l0.3-0.2l0.2-0.1l0.2-0.1l0.2-0.1l0.1-0.1l0.3-0.2l0.3-0.2l0.3-0.2l0.3-0.2l0.5-0.3l0.5-0.3
			l0.9-0.6l0.9-0.6l0.9-0.5l0.9-0.5l0.9-0.5l0.9-0.5l0.9-0.5l0.9-0.5l0.9-0.5l1-0.5l1-0.4l1-0.4l1-0.4l1-0.4l1-0.4l1-0.4l0.9-0.3
			l0.9-0.3l0.9-0.3l0.9-0.3l0.9-0.3l0.9-0.3l0.9-0.3l0.9-0.3l0.3-0.1l0.3-0.1l0.3-0.1l0.3-0.1l0.7-0.2l0.7-0.1l0.7-0.1l0.7-0.2
			l0.3-0.1l0.3-0.1l0.3-0.1l0.3-0.1l1-0.2l1-0.2l1-0.2l1-0.2l1-0.2l1-0.2l1-0.1l1-0.2l1-0.1l1-0.1l1-0.1l1.1-0.1l1.1-0.1l1.1-0.1
			l1.1-0.1l1.1-0.1l1.1-0.1l1.1,0l1.1,0l1.1,0l2.2,0h2.2l2.2,0l2.2,0.1l2.2,0.1l2.2,0.1l1.7,0.1l1.7,0.2l1.7,0.2l1.7,0.2l1.6,0.3
			l1.6,0.3l1.6,0.3l1.6,0.3l1.6,0.4l1.6,0.4l1.6,0.4l1.6,0.4l1.6,0.4l1.6,0.5l1.5,0.5L436.9,139.3L436.9,139.3L436.9,139.3z
			 M445,159l-0.8,1.8l-0.8,1.8l-0.8,1.8l-0.9,1.8l-0.8,1.8l-0.8,1.8l-0.8,1.8l-0.8,1.8l-0.8,1.8l-0.8,1.8l-0.9,1.8l-0.8,1.8
			l-0.8,1.8l-0.8,1.8l-0.8,1.8l-0.8,1.8l-0.4,0.5l-0.3,0.5l-0.3,0.5l-0.3,0.5l-0.3,0.5l-0.3,0.5l-0.3,0.5l-0.3,0.5l-0.3,0.5
			l-0.3,0.5l-0.3,0.5l-0.3,0.5l-0.6,0.9l-0.5,0.9l-0.3,0.5l-0.3,0.5l-0.3,0.4l-0.3,0.4l-0.3,0.4l-0.3,0.4l-0.4,0.4l-0.4,0.4l0,0.1
			l0,0.1l-0.1,0.1l-0.1,0.1l-0.2,0.2l-0.2,0.2l-0.1,0.1l-0.1,0.1l-0.1,0.1l-0.1,0.1l-0.1,0.2l-0.1,0.2l0,0.2l0,0.2l-0.5,0.5
			l-0.5,0.4l-0.2,0.2l-0.2,0.2l-0.1,0.1l-0.1,0.1l-0.1,0.1l-0.1,0.1l-1.2,1.2l-1.1,1.1l-1,1.1l-1,1l-1,1l-1.1,1.1l-1.2,1.1l-1.3,1.2
			l-0.2,0l-0.2,0l-0.2,0.1l-0.2,0.1l-0.1,0.1l-0.1,0.1l-0.1,0.1l-0.1,0.1l-0.2,0.3l-0.2,0.2l-0.1,0.1l-0.1,0.1l-0.1,0l-0.1,0
			l-0.1,0.2l-0.2,0.2l-0.2,0.2l-0.2,0.1l-0.4,0.2l-0.4,0.2l-0.2,0.1l-0.2,0.1l-0.2,0.1l-0.2,0.2l-0.2,0.2l-0.2,0.2l-0.2,0.2
			l-0.2,0.2l-0.4,0.1l-0.4,0.2l-0.4,0.2l-0.4,0.2l-0.4,0.2l-0.4,0.3l-0.4,0.2l-0.4,0.3l-0.1,0.1l-0.1,0.1l-0.1,0.1l-0.1,0.1
			l-0.3,0.2l-0.3,0.1l-0.3,0.1l-0.3,0.2l-0.2,0.1l-0.2,0.1l-0.1,0.1l-0.1,0.1l-0.9,0.5l-0.9,0.5l-0.9,0.5l-1,0.5l-1,0.5l-1,0.4
			l-0.5,0.2l-0.5,0.2l-0.5,0.2l-0.5,0.2l-0.6,0.4l-0.6,0.4l-0.6,0.3l-0.6,0.3l-0.6,0.3l-0.6,0.3l-0.7,0.3l-0.6,0.3l-1.3,0.5
			l-1.3,0.5l-1.3,0.5l-1.3,0.5l0.7,0.7h33.8l0,0.3l-0.1,0.3l-0.1,0.3l-0.1,0.3l-0.2,0.5l-0.2,0.5l-0.2,0.5l-0.2,0.5l-0.3,0.5
			l-0.3,0.5l-0.5,1l-0.5,1l-0.3,0.5l-0.2,0.5L415,235l-0.2,0.5h-40.1v-0.7l2.4-4.8l2.4-4.7l2.4-4.8l2.4-4.7l2.4-4.7l2.4-4.8l2.4-4.7
			l2.4-4.7l2.4-4.8l2.4-4.7l2.4-4.7l2.4-4.8l2.4-4.7l2.4-4.7l2.4-4.8l2.4-4.7H445L445,159L445,159z"/>
	</g>
	<g>
		<path fill="#004EA2" d="M675.6,394.5c-2.8-3.7-7.3-5.9-12-5.9h-30.1c-6.7,0-12.6,4.5-14.4,10.9l-5.5,19.4
			c-5.9-17.8-22.7-30.4-42.1-30.4c-19.9,0-37.5,13.4-42.8,32.6l-14.5,52.5l-3.3-47.4c-1.5-21.1-19.2-37.7-40.4-37.7h0
			c-7,0-202.1,0-202.1,0c-6.8,0-12.7,4.6-14.5,11.1l-26.4,98.4h-23.5l24-90.7c1.2-4.5,0.2-9.3-2.6-13c-2.8-3.7-7.2-5.9-11.9-5.9
			h-45.2c-6.8,0-12.7,4.6-14.5,11.1l-31.5,117.4c-2.6,9.6-0.6,19.6,5.5,27.5c6,7.9,15.2,12.4,25.1,12.4h404.2
			c6.9,0,12.8-4.6,14.5-11.3l1.6-6.4c2,3,4.4,5.7,7.1,8.1c7.2,6.2,16.4,9.6,25.8,9.6c17.7,0,33.3-11.9,38.1-28.9l33.7-120.5
			C679.4,403.1,678.5,398.2,675.6,394.5z"/>
		<g>
			<path fill="#FFFFFF" d="M168.4,403.5L136.9,521c-2.8,10.6,5.1,20.9,16.1,20.9h52.8c8.6,0,16.3-5.3,19.5-13.3l6.1-15.6h-46.8
				l29-109.5H168.4z"/>
			<polygon fill="#FFFFFF" points="268.4,403.5 231.3,541.9 277,541.9 315.2,403.5 			"/>
			<path fill="#FFFFFF" d="M433.1,418.1l6.4-14.5h-93.8c-11,0-20.6,7.4-23.5,18l-32.8,120.4h46.2l14.7-53.6h39.1l10.4-31.7H359
				l5.4-19.9h40.2C416.9,436.7,428.1,429.4,433.1,418.1z"/>
			<path fill="#FFFFFF" d="M361.5,541.9l88.1-127.4c4.8-6.9,12.6-11,20.9-11h0c13.4,0,24.5,10.3,25.4,23.7l8,114.7h-67.8v-28.9H474
				l-4-57.5l-63.5,86.4L361.5,541.9z"/>
			<path fill="#FFFFFF" d="M510.9,541.9l32.2-116.8c3.5-12.7,15.1-21.6,28.3-21.6l0,0c14.9,0,27.4,11.1,29.2,25.8l7.6,63.2
				l25.3-89.1h30.1L630,524c-3,10.6-12.6,17.9-23.6,17.9h0c-12.2,0-22.5-8.9-24.3-21l-7.1-48.2l-17.7,69.2H510.9z"/>
		</g>
	</g>
</g>
</svg>
