<!-- Created by @FCLOGO 2021-12-27 17:15:26 . https://fclogo.top/ -->
<!-- FOR PERSONAL USE ONLY NOT FOR COMMERCIAL USE -->
<svg version="1.1" xmlns="http://www.w3.org/2000/svg" xmlns:xlink="http://www.w3.org/1999/xlink" x="0px" y="0px"
	 viewBox="0 0 800 800" enable-background="new 0 0 800 800" xml:space="preserve">
<g>
	<path fill="#D71518" d="M400,50C206.7,50,50,206.7,50,400s156.7,350,350,350s350-156.7,350-350S593.3,50,400,50z M400,739.49
		C212.51,739.49,60.51,587.49,60.51,400S212.51,60.51,400,60.51S739.49,212.51,739.49,400S587.49,739.49,400,739.49z"/>
	<path fill="#D71518" d="M154.86,491.01l-4.31-4.5c-5.08,5.7-11.42,11.08-19.04,16.13l5.04,5.33
		C142.31,503.23,148.41,497.58,154.86,491.01z"/>
	<path fill="#D71518" d="M177.66,516.7c3.8,8.04,6.32,13.89,7.55,17.56l6.37-3.02c-2.57-4.37-7.07-13.36-13.5-26.95
		c-6.43-13.59-10.28-22.26-11.56-26.02l-6.37,3.01c1.75,2.86,4.58,8.32,8.49,16.36l-42.35,20.03c-3.88-7.84-6.77-14.49-8.69-19.96
		l-6.65,3.14c2.16,3.51,6.89,12.97,14.18,28.39c7.29,15.42,11.93,25.76,13.92,31.02l6.65-3.14c-2.49-3.97-5.96-10.77-10.41-20.4
		L177.66,516.7z M129.03,523.44l42.35-20.03l3.57,7.54l-42.35,20.03L129.03,523.44z"/>
	<path fill="#D71518" d="M176.59,539.34c0.21-0.1,0.2-0.54-0.01-1.34c-0.56-2.25-0.89-4.72-0.99-7.41
		c-9.53,1.83-18.51,2.52-26.94,2.09c0.63,2.27,0.87,4.56,0.73,6.86c10.28-0.73,16.9-1.11,19.88-1.14c2.97-0.04,4.89,0.13,5.74,0.51
		C175.86,539.3,176.39,539.44,176.59,539.34z"/>
	<path fill="#D71518" d="M238.26,579.4c0.47,0.09,0.76,0.08,0.88-0.05c0.12-0.13,0.07-0.3-0.15-0.5c-2.43-2.28-4.4-4.72-5.91-7.32
		c-1.62,1.8-3.24,3.41-4.84,4.82c-6.52-6.19-12.26-11.93-17.22-17.21l-4.62,4.92c4.33,3.51,10.17,8.65,17.54,15.43
		c-1.16,0.79-2.52,1.62-4.11,2.49c-4.64-4.36-9.09-8.81-13.34-13.36l-4.26,4.53c3.63,2.93,7.84,6.6,12.63,11.03
		c-1.31,0.51-3.33,1.14-6.05,1.91c-5.53-5.19-10.25-9.9-14.17-14.14l-4.26,4.53c3.23,2.55,7.34,6.13,12.35,10.77
		c-8.87,1.1-16.46,0.18-22.77-2.77c0.51,2.7,0.67,5.34,0.46,7.92c9.98,1.47,19.06,1.3,27.23-0.53l13.04,12.25
		c-0.86,4.39-1.04,8.64-0.54,12.75c0.5,4.11,1.82,8.87,3.96,14.28c1.61-0.98,4.42-1.68,8.41-2.09c-5.52-7.19-8.1-14.23-7.74-21.1
		c4.28,4.09,8.34,8.18,12.18,12.27l4.26-4.53c-3.85-3.06-9.22-7.83-16.11-14.29l-11.72-11c1.66-0.52,3.59-1.24,5.78-2.17l6.91,6.49
		c5.53,5.19,9.99,9.66,13.4,13.42l4.26-4.53c-4.81-3.96-9.55-8.14-14.23-12.53l-5.42-5.09c1.41-0.62,2.89-1.34,4.44-2.18
		c8.84,8.3,15.43,14.84,19.76,19.6l4.62-4.92c-4.7-3.79-11.19-9.53-19.47-17.25C236.19,579.91,237.79,579.3,238.26,579.4z"/>
	<path fill="#D71518" d="M195.85,609.39c0.61-0.64,1.38-1.39,2.32-2.24c-6.49-1.73-13.71-4.93-21.65-9.62
		c-0.43,2.37-1.17,4.86-2.23,7.47c6.34,1.37,13.02,3.52,20.04,6.45C194.73,610.73,195.24,610.04,195.85,609.39z"/>
	<path fill="#D71518" d="M216.71,612.2c-3.03,1.31-6.52,2.3-10.47,2.96c-0.66-1.52-1.19-2.61-1.6-3.27l5.97-6.35
		c0.86-0.92,1.74-1.43,2.63-1.53c0.89-0.1,1.4-0.22,1.54-0.37c0.14-0.15,0-0.41-0.4-0.79l-1.99-1.76c-1.14-1.07-2.22-2.29-3.23-3.65
		c-1.44,2.12-3.55,4.67-6.36,7.65l-10.43,11.11c-0.55,0.59-1.11,0.83-1.67,0.72c-0.56-0.11-1.21-0.52-1.97-1.23
		c-0.76-0.71-1.67-1.71-2.75-3c-0.23,2.97-1.26,5.44-3.09,7.39c2.7,1.77,4.74,2.94,6.12,3.51c1.38,0.56,2.46,0.72,3.26,0.46
		c0.8-0.26,1.73-0.92,2.81-1.99l6.07-6.46c2.52,6.32,4.97,13.75,7.35,22.29c2.59-0.69,4.95-1.21,7.08-1.56
		c-2.02-5.01-4.39-10.53-7.12-16.56c4.67-0.25,7.5-0.22,8.48,0.11c0.97,0.33,1.53,0.42,1.67,0.27c0.14-0.15,0.11-0.41-0.08-0.8
		C217.73,617.38,217.12,615.01,216.71,612.2z"/>
	<path fill="#D71518" d="M196.45,603.77c-0.02-2.86,0.15-5.37,0.51-7.52l-6.3-0.82c0.15,2.43-0.06,4.94-0.62,7.53L196.45,603.77z"/>
	<path fill="#D71518" d="M289.71,618.08c-0.89,3.07-2.31,7.04-4.24,11.9c-1.93,4.86-3.64,8.76-5.14,11.7
		c3.09,0.85,9.06,3,17.91,6.46l-11.11,27.97c-5.51-4.2-8.38-9.56-8.62-16.07c3.58-3.53,5.79-5.41,6.65-5.64
		c0.85-0.23,1.33-0.48,1.43-0.74c0.1-0.26-0.14-0.61-0.72-1.06c-1.84-1.38-3.59-3-5.25-4.86c-7.16,10.21-15.29,16.79-24.41,19.75
		c1.98,2.14,3.32,4.45,4.03,6.9c4.4-2.44,8.99-5.78,13.77-10.03c0.76,5.2,1.99,8.92,3.68,11.17c1.69,2.25,4.29,4.5,7.79,6.77
		c3.51,2.26,10.96,5.66,22.38,10.2c3.05,1.21,5.54,2.15,7.45,2.8c1.09-3.16,2.79-5.52,5.11-7.11c-6.78-1.28-14.84-3.78-24.19-7.49
		c-1.36-0.54-2.6-1.06-3.71-1.55l5.26-13.24c11.65,4.63,18.59,7.74,20.84,9.34l2.6-6.55c-3.28-0.65-10.46-3.18-21.54-7.58
		l4.25-10.71c7.65,3.04,13.73,5.68,18.23,7.9c0.99-3.31,2.34-7.13,4.07-11.47c1.73-4.34,3.49-8.39,5.31-12.13
		c-4.28-1.27-11.04-3.73-20.27-7.4C302.06,623.64,294.87,620.56,289.71,618.08z M317.91,650.16l-28.95-11.5l4.95-12.47l28.95,11.5
		L317.91,650.16z"/>
	<path fill="#D71518" d="M419.1,680.7c6.58-6.92,10.68-10.47,12.3-10.64c0.66-0.09,0.99-0.31,1-0.67c0.01-0.35-0.58-0.82-1.76-1.39
		c-1.18-0.57-2.89-1.89-5.13-3.95c-2.04,4.11-4.79,8.31-8.24,12.6c-1.6-4.07-2.97-8.74-4.09-14.02l0.07-4.09
		c8.19,0.13,14.42,0.49,18.71,1.06l0.11-6.67c-4.3,0.44-10.55,0.59-18.73,0.45l0.14-8.56c0.03-1.62,0.3-2.6,0.81-2.94
		c0.61-0.45,0.92-0.82,0.93-1.12c0-0.3-0.52-0.46-1.58-0.48c-2.48-0.04-4.54-0.25-6.21-0.63c0.23,1.27,0.28,5.82,0.16,13.65
		c-6.52-0.15-11.67-0.49-15.45-1.01l-0.11,6.67c3.8-0.39,8.96-0.56,15.47-0.51l-0.26,16.3c-6.92,8.99-13.55,15.95-19.9,20.91
		c1.95,1.45,3.76,3.17,5.45,5.17c2.28-3.35,7.05-9.56,14.33-18.65l-0.28,17.21c-0.02,0.91-0.17,1.55-0.45,1.93s-0.91,0.63-1.87,0.77
		c-0.96,0.14-2.55,0.16-4.78,0.07c1.58,2.2,2.55,4.49,2.92,6.87c3.14-0.3,5.37-0.63,6.69-0.99c1.32-0.36,2.17-0.87,2.56-1.55
		c0.39-0.68,0.6-1.75,0.62-3.21l0.45-27.67c1.46,6.39,3.43,11.6,5.89,15.64c2.46,4.03,6.06,7.78,10.81,11.24
		c1.06-2.76,2.39-5.27,3.99-7.52C427.53,692.53,422.68,687.78,419.1,680.7z"/>
	<path fill="#D71518" d="M389.85,684.7c-3.16,1.72-5.96,3.11-8.41,4.19l0.25-15.61c2.63,0.09,4.9,0.33,6.81,0.72l0.1-6.29
		c-1.57,0.28-3.85,0.42-6.83,0.42l0.25-15.16c3.38,0.11,5.93,0.35,7.65,0.73l0.1-6.44c-2.79,0.36-6.45,0.5-11,0.43
		c-4.55-0.07-8.23-0.33-11.06-0.79l-0.1,6.44c2.28-0.37,5.24-0.55,8.88-0.54l-0.25,15.31c-3.13-0.1-5.88-0.35-8.25-0.74l-0.1,6.29
		c2.08-0.37,4.84-0.55,8.27-0.55l-0.3,18.19c-2.8,1.12-6.53,2.45-11.21,3.99c1.32,2.65,2.16,5.37,2.52,8.15
		c3.23-2.68,10.93-6.97,23.11-12.89C389.96,688.97,389.81,687.02,389.85,684.7z"/>
	<path fill="#D71518" d="M402.9,674.98c-1.72-3.36-3.96-6.81-6.73-10.34l-4.75,2.88c2.82,3.64,4.96,7.16,6.42,10.57L402.9,674.98z"
		/>
	<path fill="#D71518" d="M428.33,649.08c-1.97-3.32-3.69-6.07-5.17-8.27l-5.35,2.57c2.13,2.87,3.67,5.8,4.63,8.79L428.33,649.08z"/>
	<path fill="#D71518" d="M520.51,673.45c6.79,0.7,12.96,2.1,18.51,4.21l2.41-7.14l-18.13-2.82L520.51,673.45z"/>
	<path fill="#D71518" d="M537.21,655c-2.08,1.2-4.36,2.31-6.83,3.34l-13.88-35.35c-1.03-2.63-1.7-4.46-1.99-5.49
		c-3.14,1.4-8.67,3.65-16.57,6.75s-13.46,5.2-16.66,6.3c0.45,1.02,1.23,2.91,2.31,5.69l13.77,35.07c-2.62,0.92-4.76,1.63-6.42,2.11
		l2.05,5.22c2.57-1.34,10.66-4.68,24.28-10.03c13.62-5.35,20.96-8.12,22.02-8.32L537.21,655z M488.81,633.37l21.87-8.59l2.13,5.43
		l-21.87,8.59L488.81,633.37z M492.49,642.76l21.87-8.59l2.33,5.93l-21.87,8.59L492.49,642.76z M496.4,652.7l21.87-8.59l2.36,6
		l-21.87,8.59L496.4,652.7z M502.86,669.14l-2.52-6.42l21.87-8.59l2.52,6.42L502.86,669.14z"/>
	<path fill="#D71518" d="M511.72,675.23c-1.47,0.06-3.3-0.29-5.5-1.05c-1.04,4.97-4.13,10.36-9.28,16.19
		c2.04-0.2,4.12,0.34,6.25,1.62l5.2-8.32c1.61-2.53,2.69-4.17,3.25-4.9c0.55-0.73,1.14-1.35,1.75-1.87
		c0.61-0.51,0.85-0.93,0.73-1.26C513.99,675.31,513.19,675.17,511.72,675.23z"/>
	<path fill="#D71518" d="M475.12,634.92c0.11-1.02,0.32-1.88,0.62-2.57c0.3-0.69,0.4-1.15,0.31-1.38c-0.09-0.24-0.47-0.3-1.14-0.2
		c-2.64,0.33-5.21,0.28-7.71-0.15c1.07,4.52,1.53,10.08,1.38,16.68c-0.15,6.6-0.99,11.97-2.52,16.1c2.21,0.92,4.27,2.29,6.17,4.09
		c0.63-4.21,1.07-7.91,1.34-11.11l9.92,25.26c1.96,4.99,3.68,10.14,5.18,15.48l6.14-2.41l-20.29-51.65
		C474.81,638.65,475.01,635.94,475.12,634.92z"/>
	<path fill="#D71518" d="M602.34,595.01l-0.1,6c8.55-0.02,16.15,0.8,22.82,2.47l0.84-8.45
		C617.17,594.73,609.32,594.72,602.34,595.01z"/>
	<path fill="#D71518" d="M587.63,615.03c-0.28-0.3-0.78-0.28-1.5,0.05c-1.96,0.86-4.32,1.44-7.09,1.73
		c2.39,8.13,2.86,16.68,1.4,25.63c2.58-1.09,5.01-1.7,7.31-1.83c0.02-8.79-0.15-15.02-0.52-18.68c-0.26-2.87-0.18-4.66,0.22-5.38
		C587.84,615.84,587.91,615.33,587.63,615.03z"/>
	<path fill="#D71518" d="M608.03,616.13l-17.52-18.8c8.09-7.47,14.15-12.77,18.15-15.88l-4.81-5.16
		c-4.06,4.68-9.72,10.4-16.96,17.15l-6.67-7.16c-0.79-0.85-1.03-1.7-0.71-2.55c0.16-0.57,0.12-0.98-0.12-1.24
		c-0.34-0.37-0.92-0.18-1.74,0.58c-1.59,1.48-3.78,3.1-6.55,4.86c2.21,1.33,5.82,4.69,10.85,10.09l-13.64,12.71l-9.95-12.9
		c14.97-15.96,24.44-25.78,28.39-29.46c0.74-0.69,1.24-1.12,1.49-1.29c0.55-0.37,0.67-0.73,0.36-1.06c-0.17-0.18-0.51-0.29-1.01-0.3
		c-2,0-4.53-0.86-7.58-2.57c-1.88,3.62-5.46,8.52-10.74,14.72c-5.28,6.2-10.38,11.59-15.29,16.17c-1.55,1.45-3.01,2.74-4.37,3.87
		c2.34,2.44,5.05,5.66,8.11,9.65c3.06,3.99,4.79,6.57,5.2,7.75c0.4,1.18,0.44,2.1,0.09,2.77c2.05,0.72,4.07,1.74,6.06,3.06
		c0.61-2.16,2.11-4.57,4.49-7.24c2.38-2.67,6.39-6.66,12.01-11.97l15.66,16.8c1.07,1.15,1.54,2.12,1.43,2.92
		c-0.12,0.8-1.01,1.98-2.67,3.53c-0.78,0.72-1.85,1.65-3.21,2.78c3.07,0.11,5.89,1.14,8.47,3.09c2.59-3.38,4.27-5.79,5.06-7.25
		c0.78-1.46,1-2.66,0.66-3.62C610.63,619.21,609.65,617.87,608.03,616.13z"/>
	<path fill="#D71518" d="M649.71,513.47l-5.81-2.78c-0.71,2.3-2.3,6.04-4.78,11.24c-3.14-5.26-4.78-8.25-4.91-8.98
		c-0.13-0.73-0.3-1.15-0.53-1.26c-0.23-0.11-0.44-0.01-0.64,0.28c-1.12,1.54-2.79,3.09-5,4.67c3.77,3.48,6.77,6.71,8.99,9.67
		l-4.67,9.78c-1.77,3.69-3.5,6.92-5.22,9.69l5.81,2.78c1.4-4.09,3.95-10.03,7.67-17.8C644.33,522.98,647.36,517.22,649.71,513.47z"
		/>
	<path fill="#D71518" d="M659.67,523.94c-2.69-1.29-5.08-2.62-7.16-4.01c-0.42,1.7-2.31,6.05-5.65,13.05
		c-3.35,7-5.59,11.29-6.74,12.87c1.73,0.49,4.26,1.53,7.58,3.12l8.96,4.28c3.01,1.44,5.75,2.97,8.22,4.6l2.81-5.88l-6.16-2.94
		l6.86-14.36l5.27,2.52l2.81-5.88c-2.64-0.81-5.57-1.99-8.81-3.54L659.67,523.94z M656.89,546.81l-9.03-4.31l6.86-14.36l9.03,4.31
		L656.89,546.81z"/>
	<path fill="#D71518" d="M626.32,503.88c-1.38,3.71-3.65,8.86-6.79,15.45c-3.15,6.59-5.97,12.09-8.47,16.49l5.61,2.68
		c1.38-3.71,3.64-8.85,6.78-15.41s5.97-12.07,8.49-16.53L626.32,503.88z"/>
	<path fill="#D71518" d="M669.68,513.01l-37.82-18.08l4.64-9.71l16.41,15.24c7.87-3.35,14.46-3.76,19.75-1.23
		c3.28,1.57,3.89,4.52,1.82,8.85c-0.44,0.91-0.98,1.88-1.64,2.91c2.34-0.34,4.94-0.08,7.78,0.78c1.78-4.3,2.25-8,1.43-11.08
		c-0.82-3.08-2.85-5.4-6.09-6.94c-5.2-2.48-12.43-2.3-21.69,0.56l-19.46-18.88c-1.54,3.8-3.22,7.62-5.05,11.45
		c-1.83,3.83-3.74,7.54-5.73,11.12c0.66,0.03,3.1,1.06,7.35,3.09l35.84,17.13c5.97,2.85,11.03,5.64,15.17,8.34l3.2-6.7
		C681.31,518.32,676.02,516.04,669.68,513.01z"/>
	<path fill="#D71518" d="M631.9,535.45l0.08-6.85c-3.12,0.08-6.19-0.18-9.2-0.79l-0.49,6.82
		C625.61,534.27,628.81,534.54,631.9,535.45z"/>
	<path fill="#D71518" d="M619.15,512.9c-1.82,0.3-4.49,0.32-8,0.04l-0.98,8.02c3.82-0.25,6.54-0.15,8.18,0.29L619.15,512.9z"/>
	<path fill="#D71518" d="M579.08,296.65c7.11,8.77,15.23,15.55,24.71,19.69c0.36,0.16,0.72,0.35,1.17,0.57
		c-1.25,2.43-2.47,4.75-3.64,7.09c-0.15,0.3-0.24,0.89-0.06,1.16c1.25,1.88,2.57,3.71,3.87,5.56c8.54-6.01,16.99-11.96,25.44-17.9
		c-1.45-2.06-2.83-4.02-4.18-5.94c-1.99,0.53-3.89,1.1-5.85,1.52c-4.45,0.96-9.08,1.22-14.05,0.09c-7.97-1.8-14.68-6.82-20.49-14.16
		c-6.27-7.91-9.57-16.35-9.42-25.34c0.14-8.5,3.35-14.93,7.98-20.35c4.21-4.92,9.32-8.66,14.89-11.76
		c5.73-3.19,11.89-5.51,18.82-6.19c4.84-0.48,9.8-0.1,14.98,2.04c8.11,3.35,14.17,9.71,18.89,17.9c4.28,7.43,5.71,14.77,4.6,21.97
		c-0.8,5.17-2.76,9.56-5.24,13.58c-1.1,1.78-1.12,1.77,0.44,3.98c0.97,1.38,1.94,2.76,2.95,4.19c7.71-5.87,15.26-11.62,22.92-17.44
		c-1.28-1.82-2.55-3.53-3.7-5.3c-0.64-0.99-1.16-1.25-2.04-0.99c-2.09,0.61-4.26,1.07-6.49,1.61c-0.15-0.84-0.27-1.51-0.38-2.19
		c-0.98-5.65-2.31-11.29-4.52-16.89c-4.58-11.6-11.94-21.32-21.11-29.48c-16.63-14.8-33.63-20.17-50.66-15.98
		c-8.44,2.08-15.25,6.76-20.68,13.34c-10.35,12.52-12.22,28.6-5.08,48.3C566.75,279.27,572.29,288.27,579.08,296.65z"/>
	<path fill="#D71518" d="M475.41,202.4c-2.17-0.82-4.28-1.55-6.32-2.41c-5.4-2.29-7.68-5.2-7.34-9.38c0.1-1.23,0.4-2.43,0.75-3.6
		c2.58-8.56,5.21-17.11,7.82-25.67c0.11-0.36,0.22-0.72,0.38-1.23c2.48,0.88,4.8,1.67,7.08,2.53c7.5,2.83,11.88,7.22,12.14,13.62
		c0.08,1.89,0.11,3.77,0.16,5.65c2.34,0.71,4.66,1.42,6.78,2.07c3.58-11.73,7.13-23.38,10.7-35.07c-2.2-0.67-4.49-1.37-6.67-2.03
		c-1.34,1.81-2.5,3.65-3.98,5.29c-2.28,2.51-5.16,4.49-9.54,4.63c-5,0.16-9.83-1.33-14.75-2.8c0.1-0.41,0.15-0.71,0.24-1
		c2.7-8.86,5.4-17.71,8.11-26.57c0.13-0.44,0.28-0.87,0.45-1.29c0.85-2,2.12-2.64,4.93-2.12c2.39,0.44,4.79,1.05,7.14,1.74
		c6.47,1.91,12.81,4.13,18.61,7.44c5.52,3.15,9.5,7.07,10.48,12.3c0.4,2.12,0.42,4.24,0.67,6.36c0.04,0.32,0.3,0.86,0.58,0.96
		c1.96,0.67,3.95,1.24,5.99,1.87c0.1-0.33,0.17-0.52,0.22-0.72c1.69-6.99,3.34-13.99,5.11-20.97c0.27-1.09-0.15-1.38-1.43-1.75
		c-30.68-8.84-61.25-18.06-91.61-27.94c-0.34-0.11-0.68-0.21-1.09-0.33c-0.5,1.65-0.98,3.21-1.49,4.87
		c0.55,0.19,1.08,0.34,1.58,0.55c2.31,0.94,4.7,1.75,6.89,2.86c3.71,1.88,5.53,4.55,5.24,7.78c-0.13,1.44-0.38,2.87-0.79,4.24
		c-5.68,18.73-11.4,37.44-17.13,56.16c-0.34,1.1-0.75,2.19-1.25,3.24c-1.48,3.1-4.24,4.84-8.86,4.48c-1-0.08-2.01-0.2-3-0.42
		c-2.1-0.45-4.2-0.98-6.38-1.49c-0.25,0.82-0.49,1.59-0.72,2.36c-0.24,0.79-0.48,1.58-0.68,2.24c19.99,6.1,39.79,12.14,59.57,18.18
		C474.47,205.49,474.95,203.93,475.41,202.4z"/>
	<path fill="#D71518" d="M253.08,166.2c0.26-0.11,0.48-0.7,0.45-1c-0.09-1-0.36-1.95-0.45-2.95c-0.5-5.52,1.07-10.82,6.13-15.71
		c3.54-3.42,7.89-5.93,12.6-7.91c2.6-1.09,5.31-1.98,8.02-2.75c2.1-0.59,3.17-0.06,3.9,1.43c0.19,0.38,0.33,0.78,0.49,1.17
		c7.75,19.72,15.51,39.44,23.26,59.16c0.24,0.62,0.49,1.24,0.7,1.88c1.68,5.23,0.06,8.46-5.96,11.87c-0.28,0.16-0.57,0.31-0.86,0.45
		c-2.14,1-4.28,1.99-6.47,3c0.61,1.55,1.21,3.08,1.77,4.5c20.1-7.9,40.13-15.78,60.15-23.65c-0.58-1.48-1.17-2.98-1.79-4.55
		c-0.57,0.2-1.09,0.41-1.61,0.57c-2.71,0.8-5.4,1.77-8.13,2.35c-4.13,0.88-7.29-0.07-9.09-2.85c-0.79-1.21-1.48-2.5-2.01-3.83
		c-7.79-19.74-15.55-39.5-23.32-59.25c-0.17-0.43-0.34-0.85-0.46-1.29c-0.45-1.7-0.02-2.64,1.99-3.81c4.3-2.5,8.98-4.04,13.77-5.14
		c9.6-2.21,17.29-0.77,22.55,5.06c1.23,1.36,2.22,2.87,3.35,4.34c2.15-0.84,4.3-1.69,6.67-2.62c-3.5-7.9-6.95-15.71-10.36-23.42
		c-36.7,14.43-73.21,28.78-109.86,43.19c2.76,7.99,5.55,16.06,8.37,24.24C249.03,167.82,251.07,167.05,253.08,166.2z"/>
	<path fill="#D71518" d="M114.7,312.76c1.92-3.18,4.26-5.56,7.4-6.39c0.78-0.21,1.57-0.44,2.35-0.55
		c18.04-2.62,36.07-5.23,54.11-7.82c0.45-0.06,0.92,0.1,1.3,0.3c5.42,2.89,10.84,5.78,16.24,8.71c0.94,0.51,1.84,1.1,2.69,1.76
		c2.59,2.02,3.53,5.04,2.33,9.27c-0.27,0.95-0.59,1.91-0.99,2.84c-0.85,1.96-1.77,3.9-2.65,5.85c1.47,0.79,2.88,1.55,4.18,2.24
		c9.77-18.2,19.49-36.32,29.19-54.39c-1.38-0.74-2.79-1.5-4.18-2.24c-1.22,1.96-2.34,3.88-3.57,5.69c-3.3,4.85-6.51,6.45-10.61,5.31
		c-1.14-0.32-2.2-0.84-3.24-1.39c-5.88-3.12-11.75-6.27-17.6-9.46c-0.54-0.29-1.01-0.86-1.27-1.48c-2.68-6.22-5.31-12.48-7.95-18.74
		c-4.1-9.71-8.19-19.43-12.28-29.15c-1.57-3.72-1.93-7.82-0.3-12.53c0.26-0.76,0.53-1.52,0.82-2.35c-0.8-0.43-1.53-0.82-2.26-1.21
		c-0.71-0.38-1.42-0.76-1.99-1.07c-6.34,11.81-12.55,23.4-18.8,35.03c1.35,0.73,2.74,1.47,4.15,2.23c1.27-1.93,2.36-3.81,3.64-5.5
		c3.29-4.34,6.53-4.99,9.61-2.14c2.61,2.41,4.48,5.58,5.93,9.09c3.85,9.26,7.54,18.63,11.29,27.96c0.05,0.14,0.07,0.3,0.11,0.51
		c-0.3,0.06-0.56,0.13-0.81,0.16c-12.03,1.5-24.07,3.01-36.1,4.46c-1.77,0.21-3.54,0.32-5.26,0.22c-2.43-0.14-3.54-1.96-2.96-4.87
		c0.31-1.55,0.88-3.13,1.49-4.65c0.73-1.8,1.62-3.55,2.43-5.29c-1.51-0.81-2.92-1.57-4.22-2.27c-9.2,17.15-18.36,34.21-27.51,51.27
		c1.38,0.74,2.8,1.5,4.27,2.29C114.05,313.85,114.37,313.3,114.7,312.76z"/>
	<path fill="#D71518" d="M447.16,484.14l131.42-81.2h64.54l24.23-27.26H499.67c-3.04,52.41-46.5,93.98-99.67,93.98
		c-53.17,0-96.63-41.57-99.67-93.98H132.65l24.23,27.26h64.54l131.42,81.2v5.6H251.15v27.33h101.69v46.09H400h47.16v-46.09h101.69
		v-27.33H447.16V484.14z"/>
	<path fill="#D71518" d="M306.46,369.8c0,51.66,41.88,93.54,93.54,93.54c51.66,0,93.54-41.88,93.54-93.54s-41.88-93.54-93.54-93.54
		C348.34,276.26,306.46,318.14,306.46,369.8z M326.36,418.52v-0.01c-8.44-12.74-13.66-27.78-14.52-44l20.35-24.82L358,360.89
		l12.67,45.66l-14.68,20.27L326.36,418.52z M488.16,374.51c-0.85,16.22-6.08,31.27-14.52,44l-29.64,8.31l-14.67-20.27L442,360.89
		l25.8-11.19L488.16,374.51z M432.71,287.79h0.01c13.31,5.3,25.03,13.76,34.22,24.44l-0.57,32.46l-25.1,10.49l-38.51-29.37
		l-0.38-27.43L432.71,287.79z M424.09,410.04l14.67,19.58l-17.13,25.8h-0.01c-6.92,1.74-14.16,2.67-21.62,2.67
		s-14.7-0.92-21.63-2.67h-0.01l-17.13-25.8l14.68-19.58H424.09z M367.27,287.79l30.33,10.58l-0.38,27.43l-38.51,29.37l-25.1-10.49
		l-0.57-32.44C342.25,301.56,353.96,293.1,367.27,287.79z"/>
</g>
<g>
</g>
<g>
</g>
<g>
</g>
<g>
</g>
<g>
</g>
<g>
</g>
<g>
</g>
<g>
</g>
<g>
</g>
<g>
</g>
<g>
</g>
</svg>
