<!-- Created by @FCLOGO 2022-02-15 20:43:33 . https://fclogo.top/ -->
<!-- FOR PERSONAL USE ONLY NOT FOR COMMERCIAL USE -->
<svg version="1.1" xmlns="http://www.w3.org/2000/svg" xmlns:xlink="http://www.w3.org/1999/xlink" x="0px" y="0px"
	 viewBox="0 0 800 800" enable-background="new 0 0 800 800" xml:space="preserve">
<g>
	<g>
		<path fill="#FF0000" d="M384.35,684.91v55.67L187.4,615.07c-14.51-9.24-23.52-25.05-24.1-42.24l-12.09-361.15
			c-0.55-16.56,9.8-31.52,25.49-36.83l139.84-47.38l46.94-15.9v230.54h-46.94V177.03l-118.18,40.04L210.31,574L384.35,684.91z"/>
		<path fill="#FF0000" d="M648.79,211.67L636.7,572.83c-0.57,17.19-9.59,33-24.1,42.24L415.65,740.58v-55.67L589.69,574
			l11.94-356.94l-118.18-40.04v165.08h-46.94V111.57l46.94,15.9l139.84,47.38C638.99,180.16,649.34,195.12,648.79,211.67z"/>
	</g>
	<g>
		<path fill="#CAAE74" d="M50,431.24l52.71,3.96l-24.28,44.39c94.66-62.1,182.53-77.94,182.53-77.94l-16.4-56.47
			C244.56,345.18,149.11,362.39,50,431.24z"/>
		<path fill="#FFFFFF" d="M109.48,431.53l-47.24-3.55c82.82-54.84,161.68-74.12,179.38-77.94l14.07,48.44
			c-18.22,3.99-88.85,21.6-165.83,68.91L109.48,431.53z"/>
		<path fill="#CAAE74" d="M750,431.24l-52.71,3.96l24.28,44.39c-94.66-62.1-182.53-77.94-182.53-77.94l16.4-56.47
			C555.44,345.18,650.89,362.39,750,431.24z"/>
		<path fill="#FFFFFF" d="M710.14,467.39c-44.23-27.18-85.8-44.23-113.96-54c-17.6-6.1-31.96-10.08-40.9-12.34
			c-4.94-1.25-8.44-2.09-10.95-2.64l14.05-48.38c17.7,3.83,96.56,23.1,179.38,77.94l-47.24,3.55L710.14,467.39z"/>
		<path fill="#CAAE74" d="M620.12,344.14c0,0-97.51-40.79-219.6-41.02v-0.01c-0.17,0-0.35,0-0.52,0c-0.17,0-0.35,0-0.52,0v0.01
			c-122.09,0.23-219.6,41.02-219.6,41.02l16.4,56.47c32.78-11.42,111.23-34.82,203.71-34.9c92.48,0.09,170.93,23.49,203.71,34.9
			L620.12,344.14z"/>
		<path fill="#FFFFFF" d="M184.95,346.62c18.35-7.07,107.43-39.13,214.54-39.33h1.03c107.18,0.2,196.2,32.26,214.54,39.33
			l-14.13,48.62c-33.01-11.16-110.67-33.62-200.92-33.71c-90.26,0.09-167.92,22.55-200.93,33.71L184.95,346.62z"/>
	</g>
	<g>
		<g>
			<polygon fill="#CAAE74" points="400,59.42 405.68,76.85 423.99,76.85 409.15,87.63 414.84,105.12 400,94.35 385.16,105.12 
				390.85,87.63 376.01,76.85 394.32,76.85 			"/>
			<polygon fill="#CAAE74" points="400,122.68 405.68,140.1 423.99,140.1 409.15,150.88 414.84,168.38 400,157.6 385.16,168.38 
				390.85,150.88 376.01,140.1 394.32,140.1 			"/>
			<polygon fill="#CAAE74" points="400,185.93 405.68,203.35 423.99,203.35 409.15,214.13 414.84,231.63 400,220.85 385.16,231.63 
				390.85,214.13 376.01,203.35 394.32,203.35 			"/>
			<polygon fill="#CAAE74" points="400,249.18 405.68,266.6 423.99,266.6 409.15,277.38 414.84,294.88 400,284.1 385.16,294.88 
				390.85,277.38 376.01,266.6 394.32,266.6 			"/>
			<polygon fill="#CAAE74" points="400,312.43 405.68,329.86 423.99,329.86 409.15,340.63 414.84,358.13 400,347.35 385.16,358.13 
				390.85,340.63 376.01,329.86 394.32,329.86 			"/>
		</g>
		<g>
			<polygon fill="#CAAE74" points="121.29,403.18 130.08,412.42 141.58,406.93 135.49,418.15 144.3,427.44 131.75,425.12 
				125.65,436.33 123.99,423.64 111.43,421.31 122.94,415.83 			"/>
			<polygon fill="#CAAE74" points="162.84,384.88 171.1,394.6 182.89,389.77 176.17,400.63 184.45,410.4 172.05,407.37 
				165.33,418.23 164.38,405.46 151.98,402.43 163.77,397.6 			"/>
		</g>
		<g>
			<polygon fill="#CAAE74" points="677.06,415.83 688.57,421.31 676.01,423.64 674.35,436.33 668.25,425.12 655.7,427.44 
				664.51,418.15 658.42,406.93 669.92,412.42 678.71,403.18 			"/>
			<polygon fill="#CAAE74" points="636.23,397.6 648.02,402.43 635.62,405.46 634.67,418.23 627.95,407.37 615.55,410.4 
				623.83,400.63 617.11,389.77 628.9,394.6 637.16,384.88 			"/>
		</g>
	</g>
	<g>
		<g>
			<path d="M459.68,324.33l-0.65,7.76l-0.6-0.05c-0.55-2.18-1.5-3.89-2.86-5.11c-1.36-1.23-2.9-1.91-4.62-2.05
				c-1.65-0.14-3.05,0.21-4.23,1.05c-1.17,0.83-2.05,2.06-2.65,3.68s-0.96,3.3-1.11,5.04c-0.18,2.11-0.08,3.98,0.28,5.62
				c0.37,1.63,1.07,2.87,2.12,3.71c1.05,0.84,2.34,1.32,3.86,1.45c0.53,0.04,1.08,0.03,1.65-0.03c0.57-0.07,1.15-0.18,1.76-0.35
				l0.38-4.58c0.07-0.87,0.06-1.43-0.04-1.7c-0.1-0.26-0.32-0.52-0.68-0.75c-0.36-0.24-0.8-0.38-1.33-0.42l-0.57-0.05l0.05-0.6
				l10.71,0.89l-0.05,0.6c-0.82-0.01-1.39,0.05-1.73,0.19c-0.33,0.14-0.6,0.4-0.81,0.77c-0.11,0.2-0.21,0.7-0.27,1.5l-0.38,4.58
				c-1.46,0.51-2.96,0.86-4.51,1.05c-1.55,0.19-3.14,0.22-4.77,0.08c-2.09-0.17-3.8-0.6-5.13-1.29c-1.33-0.68-2.49-1.53-3.47-2.55
				c-0.98-1.01-1.72-2.13-2.22-3.33c-0.63-1.56-0.87-3.26-0.72-5.11c0.28-3.31,1.67-6.02,4.19-8.11c2.52-2.09,5.54-2.99,9.07-2.69
				c1.09,0.09,2.07,0.26,2.93,0.51c0.47,0.13,1.22,0.44,2.25,0.93c1.03,0.5,1.65,0.75,1.84,0.77c0.3,0.02,0.59-0.06,0.87-0.26
				c0.28-0.2,0.55-0.6,0.82-1.2L459.68,324.33z"/>
			<path d="M472.09,327.56l-1.1,8.93l0.44,0.05c1.39,0.17,2.45-0.14,3.19-0.94s1.29-2.04,1.68-3.72l0.61,0.08l-1.42,11.49
				l-0.61-0.08c0.03-1.27-0.12-2.32-0.44-3.17c-0.32-0.85-0.73-1.45-1.25-1.79c-0.52-0.34-1.3-0.58-2.34-0.71l-0.76,6.18
				c-0.15,1.21-0.19,1.95-0.12,2.24c0.07,0.28,0.23,0.53,0.49,0.73c0.26,0.21,0.7,0.35,1.33,0.43l1.31,0.16
				c2.05,0.25,3.75-0.02,5.1-0.81c1.35-0.8,2.42-2.13,3.2-4.01l0.6,0.07l-1.85,6.85l-18.96-2.35l0.07-0.6l0.73,0.09
				c0.64,0.08,1.16,0.03,1.58-0.15c0.3-0.12,0.55-0.35,0.74-0.7c0.15-0.24,0.29-0.92,0.43-2.02l1.78-14.43
				c0.12-0.99,0.17-1.61,0.15-1.84c-0.06-0.39-0.23-0.71-0.49-0.95c-0.37-0.35-0.91-0.57-1.63-0.66l-0.73-0.09l0.07-0.6l18.36,2.27
				l-0.8,6.49l-0.62-0.08c-0.12-1.62-0.41-2.82-0.9-3.58c-0.48-0.76-1.22-1.37-2.21-1.82c-0.58-0.27-1.7-0.51-3.36-0.71
				L472.09,327.56z"/>
			<path d="M494.16,329.32l8.57,15.28l1.52-9.38c0.21-1.31,0.17-2.22-0.13-2.75c-0.41-0.71-1.23-1.15-2.45-1.32l0.1-0.6l7.21,1.17
				l-0.1,0.6c-0.94-0.03-1.59,0.02-1.93,0.16c-0.35,0.14-0.64,0.4-0.89,0.8c-0.25,0.4-0.45,1.11-0.62,2.14l-2.95,18.17l-0.55-0.09
				l-11.81-20.56l-2.25,13.87c-0.2,1.26-0.05,2.15,0.45,2.68c0.5,0.53,1.12,0.86,1.86,0.98l0.52,0.08l-0.1,0.59l-7.74-1.25l0.1-0.6
				c1.2,0.18,2.08,0.07,2.63-0.33s0.92-1.19,1.11-2.35l2.5-15.4l-0.37-0.65c-0.37-0.65-0.71-1.1-1.04-1.34
				c-0.32-0.24-0.82-0.42-1.48-0.55l0.1-0.6L494.16,329.32z"/>
			<path d="M519.07,335.02l-1.77,8.82l0.43,0.09c1.37,0.28,2.46,0.04,3.25-0.69c0.79-0.74,1.44-1.93,1.95-3.58l0.61,0.12
				l-2.28,11.35l-0.61-0.12c0.12-1.26,0.05-2.33-0.2-3.2c-0.25-0.87-0.62-1.5-1.11-1.88c-0.49-0.38-1.25-0.68-2.28-0.88l-1.23,6.1
				c-0.24,1.19-0.34,1.93-0.29,2.22c0.05,0.29,0.19,0.54,0.44,0.77c0.24,0.23,0.67,0.4,1.29,0.53l1.29,0.26
				c2.02,0.41,3.74,0.26,5.15-0.43c1.41-0.69,2.57-1.94,3.49-3.75l0.59,0.12l-2.36,6.69l-18.73-3.76l0.12-0.59l0.72,0.14
				c0.63,0.13,1.16,0.12,1.59-0.03c0.31-0.09,0.57-0.31,0.79-0.64c0.17-0.23,0.36-0.89,0.58-1.98l2.86-14.26
				c0.2-0.98,0.29-1.59,0.28-1.82c-0.03-0.39-0.17-0.72-0.42-0.98c-0.35-0.38-0.87-0.64-1.57-0.78l-0.72-0.14l0.12-0.59l18.14,3.64
				l-1.29,6.41l-0.61-0.12c0.01-1.63-0.2-2.84-0.62-3.63c-0.42-0.79-1.11-1.45-2.07-1.98c-0.56-0.31-1.66-0.63-3.3-0.96
				L519.07,335.02z"/>
			<path d="M538.66,350.26l-1.45,6.02c-0.28,1.16-0.39,1.91-0.31,2.25c0.07,0.34,0.26,0.64,0.58,0.9s0.96,0.52,1.95,0.75l-0.14,0.59
				l-11-2.65l0.14-0.59c0.99,0.24,1.69,0.31,2.09,0.21c0.4-0.1,0.7-0.28,0.92-0.54c0.21-0.26,0.46-0.97,0.74-2.14l3.36-13.94
				c0.28-1.16,0.39-1.91,0.31-2.25c-0.07-0.34-0.26-0.64-0.58-0.9c-0.32-0.27-0.96-0.52-1.95-0.75l0.14-0.59l9.98,2.41
				c2.6,0.63,4.46,1.26,5.58,1.91c1.12,0.65,1.94,1.55,2.47,2.7c0.53,1.15,0.63,2.37,0.32,3.67c-0.38,1.58-1.27,2.76-2.66,3.52
				c-0.89,0.48-2.02,0.72-3.41,0.74l3.41,8.52c0.45,1.1,0.79,1.81,1.02,2.11c0.35,0.43,0.81,0.73,1.38,0.9l-0.14,0.59l-6.77-1.63
				l-4.56-11.46L538.66,350.26z M541.2,339.72l-2.27,9.41l0.9,0.22c1.47,0.35,2.6,0.48,3.39,0.39c0.79-0.09,1.48-0.44,2.07-1.04
				c0.59-0.6,1.02-1.47,1.29-2.6c0.39-1.64,0.3-2.94-0.27-3.91s-1.72-1.65-3.42-2.06L541.2,339.72z"/>
			<path d="M565.97,361.33l-7.51-2.15l-1.49,1.81c-0.49,0.61-0.8,1.13-0.93,1.58c-0.17,0.6-0.06,1.1,0.34,1.52
				c0.23,0.25,0.89,0.57,1.98,0.97l-0.17,0.58l-7.07-2.03l0.17-0.58c0.8,0.1,1.51-0.03,2.15-0.41c0.64-0.38,1.55-1.27,2.74-2.68
				l12.46-14.78l0.3,0.09l2.67,19.62c0.26,1.86,0.56,3.07,0.91,3.63c0.26,0.43,0.71,0.76,1.34,1l-0.17,0.58l-10.28-2.95l0.17-0.58
				l0.42,0.12c0.83,0.24,1.44,0.29,1.84,0.15c0.28-0.1,0.46-0.31,0.55-0.62c0.05-0.19,0.08-0.39,0.07-0.61
				c0.01-0.1-0.04-0.54-0.13-1.31L565.97,361.33z M565.77,360.02l-1.07-8.23l-5.36,6.38L565.77,360.02z"/>
			<path d="M596.21,369.58l-3.3,7.07l-18.56-6.37l0.2-0.57l0.69,0.24c0.61,0.21,1.13,0.27,1.58,0.18c0.32-0.05,0.61-0.23,0.87-0.53
				c0.2-0.21,0.48-0.84,0.84-1.88l4.72-13.75c0.37-1.07,0.54-1.76,0.52-2.06c-0.02-0.31-0.17-0.62-0.45-0.94
				c-0.28-0.32-0.71-0.58-1.29-0.78l-0.69-0.24l0.2-0.57l11.15,3.82l-0.2,0.57l-0.91-0.31c-0.61-0.21-1.13-0.27-1.58-0.18
				c-0.32,0.05-0.61,0.23-0.89,0.52c-0.2,0.21-0.48,0.84-0.84,1.88l-4.57,13.32c-0.37,1.07-0.54,1.77-0.52,2.11
				c0.02,0.34,0.19,0.64,0.5,0.9c0.23,0.18,0.83,0.44,1.82,0.78l1.74,0.6c1.11,0.38,2.1,0.5,2.98,0.37
				c0.87-0.14,1.72-0.53,2.55-1.19c0.83-0.66,1.77-1.73,2.81-3.2L596.21,369.58z"/>
		</g>
		<g>
			<path d="M220.79,348.68l1.9,5.67l-0.56,0.19c-0.77-1.2-1.45-2.02-2.04-2.45c-0.59-0.44-1.3-0.71-2.11-0.82
				c-0.45-0.05-1.17,0.08-2.15,0.41l-1.56,0.52l5.41,16.17c0.36,1.07,0.64,1.72,0.85,1.95c0.21,0.23,0.52,0.39,0.93,0.47
				s0.92,0.03,1.52-0.17l0.7-0.23l0.19,0.57l-10.98,3.67l-0.19-0.57l0.7-0.23c0.61-0.2,1.06-0.48,1.36-0.82
				c0.22-0.23,0.35-0.55,0.39-0.95c0.03-0.29-0.13-0.95-0.48-2l-5.41-16.17l-1.51,0.51c-1.41,0.47-2.34,1.11-2.78,1.92
				c-0.62,1.13-0.79,2.51-0.51,4.14l-0.59,0.2l-1.9-5.67L220.79,348.68z"/>
			<path d="M239.63,359.74l-7.51,2.12l-0.31,2.32c-0.1,0.77-0.08,1.38,0.04,1.83c0.17,0.6,0.53,0.97,1.09,1.11
				c0.33,0.09,1.06,0.02,2.19-0.21l0.16,0.58l-7.07,2l-0.16-0.58c0.73-0.33,1.27-0.82,1.61-1.48c0.35-0.66,0.65-1.9,0.91-3.72
				l2.82-19.12l0.3-0.08l12.6,15.28c1.2,1.45,2.09,2.32,2.69,2.61c0.45,0.22,1,0.27,1.67,0.14l0.16,0.58l-10.29,2.91l-0.16-0.58
				l0.42-0.12c0.83-0.23,1.37-0.51,1.64-0.84c0.18-0.23,0.23-0.5,0.14-0.82c-0.05-0.19-0.14-0.37-0.26-0.55
				c-0.05-0.09-0.31-0.44-0.8-1.04L239.63,359.74z M238.77,358.73l-5.24-6.43l-1.2,8.25L238.77,358.73z"/>
			<path d="M264.46,359.24l0.14,0.59l-11.23,2.74l-0.14-0.59l0.71-0.17c0.62-0.15,1.1-0.39,1.42-0.7c0.24-0.21,0.39-0.52,0.45-0.91
				c0.05-0.28-0.05-0.96-0.31-2.04l-3.45-14.13c-0.27-1.1-0.49-1.77-0.68-2.02c-0.18-0.25-0.48-0.43-0.88-0.55
				c-0.4-0.12-0.91-0.11-1.51,0.04l-0.71,0.17l-0.14-0.59l11.23-2.74l0.14,0.59l-0.71,0.17c-0.62,0.15-1.1,0.39-1.42,0.7
				c-0.24,0.21-0.39,0.52-0.46,0.92c-0.05,0.28,0.05,0.96,0.31,2.04l3.45,14.13c0.27,1.1,0.5,1.77,0.68,2.01
				c0.19,0.24,0.48,0.43,0.89,0.55c0.4,0.12,0.91,0.11,1.51-0.04L264.46,359.24z"/>
			<path d="M277.59,333.85l1.71,7.17l-0.65,0.14c-0.69-1.74-1.76-3.03-3.2-3.88c-1.44-0.84-2.86-1.11-4.27-0.82
				c-1.08,0.23-1.88,0.7-2.39,1.42c-0.51,0.71-0.68,1.45-0.52,2.2c0.1,0.48,0.3,0.88,0.61,1.2c0.41,0.43,1.01,0.82,1.8,1.17
				c0.57,0.24,1.86,0.62,3.86,1.13c2.79,0.7,4.75,1.51,5.87,2.43c1.11,0.92,1.81,2.09,2.12,3.52c0.39,1.81,0.01,3.51-1.12,5.11
				c-1.13,1.6-2.78,2.63-4.95,3.1c-0.68,0.15-1.34,0.21-1.97,0.2c-0.64-0.01-1.45-0.11-2.45-0.3c-0.56-0.1-1-0.12-1.33-0.05
				c-0.28,0.06-0.55,0.23-0.81,0.51c-0.26,0.28-0.44,0.66-0.54,1.13l-0.59,0.13l-1.74-8.16l0.59-0.13c0.96,2.2,2.23,3.76,3.82,4.68
				c1.59,0.92,3.16,1.22,4.7,0.89c1.19-0.25,2.07-0.78,2.64-1.58c0.57-0.8,0.76-1.63,0.58-2.49c-0.11-0.51-0.35-0.98-0.72-1.4
				c-0.37-0.42-0.88-0.79-1.53-1.1c-0.64-0.31-1.74-0.66-3.29-1.06c-2.17-0.55-3.76-1.07-4.77-1.57c-1.01-0.5-1.83-1.12-2.47-1.86
				c-0.64-0.74-1.07-1.62-1.28-2.63c-0.37-1.72-0.05-3.32,0.96-4.8c1.01-1.48,2.47-2.43,4.39-2.84c0.7-0.15,1.4-0.21,2.1-0.18
				c0.53,0.02,1.19,0.13,1.98,0.32c0.79,0.19,1.33,0.26,1.62,0.2c0.28-0.06,0.48-0.19,0.6-0.39c0.12-0.2,0.18-0.64,0.18-1.32
				L277.59,333.85z"/>
			<path d="M293.81,342.97l1.17,6.75c0.19,1.11,0.37,1.8,0.55,2.06c0.17,0.26,0.45,0.46,0.85,0.61c0.39,0.15,0.9,0.17,1.51,0.06
				l0.72-0.12l0.1,0.59l-11.39,1.97l-0.1-0.59l0.72-0.12c0.63-0.11,1.12-0.31,1.47-0.6c0.25-0.2,0.42-0.49,0.51-0.88
				c0.07-0.28,0.02-0.96-0.17-2.05l-2.48-14.33c-0.19-1.11-0.37-1.8-0.54-2.06c-0.17-0.26-0.45-0.46-0.84-0.61
				c-0.39-0.15-0.9-0.17-1.51-0.06l-0.72,0.12l-0.1-0.59l11.39-1.97l0.1,0.59l-0.72,0.12c-0.63,0.11-1.12,0.31-1.47,0.6
				c-0.25,0.2-0.43,0.49-0.53,0.88c-0.07,0.28-0.02,0.96,0.17,2.05l1.07,6.17l7.69-1.33l-1.07-6.17c-0.19-1.11-0.37-1.8-0.54-2.06
				c-0.17-0.26-0.45-0.46-0.85-0.61c-0.4-0.15-0.91-0.17-1.52-0.06l-0.71,0.12l-0.1-0.59l11.37-1.96l0.1,0.59l-0.71,0.12
				c-0.64,0.11-1.13,0.31-1.47,0.6c-0.25,0.2-0.43,0.49-0.53,0.88c-0.07,0.28-0.02,0.96,0.17,2.05l2.48,14.33
				c0.19,1.11,0.37,1.8,0.54,2.06c0.17,0.26,0.45,0.46,0.85,0.61c0.4,0.15,0.91,0.17,1.52,0.06l0.71-0.12l0.1,0.59l-11.37,1.97
				l-0.1-0.59l0.71-0.12c0.64-0.11,1.13-0.31,1.47-0.6c0.25-0.2,0.43-0.49,0.53-0.88c0.07-0.28,0.02-0.96-0.17-2.05l-1.17-6.75
				L293.81,342.97z"/>
			<path d="M326.71,342.36l-7.74,0.99l-0.65,2.25c-0.21,0.75-0.29,1.36-0.23,1.82c0.08,0.61,0.39,1.04,0.92,1.26
				c0.31,0.13,1.05,0.17,2.2,0.11l0.08,0.6l-7.29,0.94l-0.08-0.6c0.77-0.22,1.38-0.63,1.81-1.23c0.44-0.6,0.92-1.78,1.45-3.55
				l5.6-18.5l0.31-0.04l10.21,16.96c0.97,1.61,1.73,2.6,2.27,2.98c0.41,0.29,0.95,0.41,1.63,0.38l0.08,0.6l-10.61,1.36l-0.08-0.6
				l0.44-0.06c0.85-0.11,1.43-0.3,1.75-0.59c0.21-0.2,0.3-0.47,0.26-0.79c-0.02-0.19-0.08-0.39-0.17-0.59
				c-0.03-0.09-0.25-0.48-0.64-1.15L326.71,342.36z M326,341.23l-4.24-7.13l-2.39,7.98L326,341.23z"/>
			<path d="M345.54,324.41l12.03,12.73l-0.81-9.47c-0.11-1.32-0.38-2.2-0.8-2.63c-0.57-0.58-1.47-0.81-2.69-0.69l-0.05-0.6
				l7.28-0.62l0.05,0.6c-0.92,0.2-1.53,0.41-1.84,0.62c-0.3,0.22-0.53,0.55-0.67,0.99c-0.14,0.44-0.17,1.18-0.08,2.22l1.56,18.34
				l-0.55,0.05l-16.46-17.07l1.19,14c0.11,1.27,0.47,2.1,1.09,2.49c0.62,0.39,1.3,0.56,2.05,0.5l0.52-0.04l0.05,0.6l-7.81,0.67
				l-0.05-0.6c1.21-0.11,2.04-0.43,2.47-0.96c0.44-0.53,0.6-1.38,0.5-2.55l-1.32-15.54l-0.52-0.54c-0.52-0.55-0.96-0.89-1.33-1.05
				c-0.37-0.15-0.9-0.21-1.57-0.18l-0.05-0.6L345.54,324.41z"/>
		</g>
	</g>
	<path fill="#00A151" d="M400,433.43l36.74,54.72l25.63,38.18l25.04-36.29l40.59,69.89H400H271.99l40.59-69.89l25.04,36.29
		l25.63-38.18L400,433.43 M400,377.28l-62.73,93.42l-26.96-39.07l-69.94,120.41c-10.1,17.39,2.45,39.18,22.55,39.18H400h137.07
		c20.11,0,32.65-21.79,22.55-39.18l-69.94-120.41l-26.96,39.07L400,377.28L400,377.28z"/>
	<g>
		<g>
			<circle cx="400" cy="580.79" r="103.28"/>
		</g>
		<g>
			<circle fill="#FFFFFF" cx="400" cy="580.79" r="99.11"/>
		</g>
		<g>
			<polygon points="400,535.41 357.65,565.03 374.23,614.59 425.77,614.59 442.35,565.03 			"/>
			<g>
				<path d="M335.32,526.54v32.97l-20.45,27.44l-16.8-13.67c1.15-16.69,6.36-32.24,14.61-45.69L335.32,526.54z"/>
			</g>
			<g>
				<path d="M434.22,502.23L400,512.35l-34.22-10.12l12.52-21.39c6.99-1.56,14.29-2.3,21.7-2.3s14.71,0.83,21.7,2.3L434.22,502.23z"
					/>
			</g>
			<g>
				<path d="M501.92,573.28l-16.8,13.67l-20.45-27.44v-32.97l22.64,1.04C495.56,541.04,500.77,556.58,501.92,573.28z"/>
			</g>
			<g>
				<path d="M476.36,648.8L476.36,648.8c-9.91,11.16-22.32,20.13-36.2,26.08l-20.45-12.73l20.03-26.81l34.43-13.04L476.36,648.8z"/>
			</g>
			<g>
				<path d="M380.39,662.16l-20.45,12.73c-13.98-5.95-26.29-14.92-36.2-26.08l0,0l2.19-26.5l34.43,13.04L380.39,662.16z"/>
			</g>
		</g>
	</g>
</g>
<g>
</g>
<g>
</g>
<g>
</g>
<g>
</g>
<g>
</g>
<g>
</g>
<g>
</g>
<g>
</g>
<g>
</g>
<g>
</g>
<g>
</g>
</svg>
