<?xml version="1.0" encoding="utf-8"?>
<!-- Generator: Adobe Illustrator 25.2.1, SVG Export Plug-In . SVG Version: 6.00 Build 0)  -->
<svg version="1.1" id="图层_1" xmlns="http://www.w3.org/2000/svg" xmlns:xlink="http://www.w3.org/1999/xlink" x="0px" y="0px"
	 viewBox="0 0 800 800" style="enable-background:new 0 0 800 800;" xml:space="preserve">
<style type="text/css">
	.st0{fill:#FF0200;}
</style>
<g>
	<path class="st0" d="M648.6,159.7c-18-26.5-77.8-47.3-137.7-59.8l30.3,54.2c0.8,1.5,2.4,2.5,4.2,2.5h14.8c1.5,0,2-2.2,0.5-2.6
		c-0.7-0.2-1.5-0.4-2.5-0.6c-6.7-1.4-9.1-6-8-11.9c1-6,6-10.1,16-9.6c10,0.5,21.1,5.7,20.5,20.8c-0.6,15.2-9.5,17-15,17h-30.5
		c-3.3,0-6.3-1.7-8-4.6l-40.9-68.8c-12.6-2.3-24.9-4.2-36.7-5.7c0-3.1,0-7,0-11.3c0-10.2-8.3-18.5-18.5-18.5
		c-7.3,0-13.6,4.3-16.6,10.4c0-0.3,0-0.6,0-0.9c0-11.3-9.1-20.4-20.4-20.4s-20.4,9.1-20.4,20.4c0,0.3,0,0.6,0,0.9
		c-3-6.2-9.3-10.4-16.6-10.4c-10.2,0-18.5,8.3-18.5,18.5c0,4.3,0,8.2,0,11.3c-11.8,1.5-24.2,3.4-36.7,5.7L267,165.1
		c-1.7,2.8-4.7,4.6-8,4.6h-30.5c-5.5,0-14.4-1.9-15-17c-0.6-15.2,10.5-20.3,20.5-20.8c10-0.5,15,3.6,16,9.6c1,6-1.4,10.5-8,11.9
		c-1,0.2-1.8,0.4-2.5,0.6c-1.4,0.4-0.9,2.6,0.5,2.6h14.8c1.7,0,3.3-0.9,4.2-2.5l30.3-54.2c-59.9,12.5-119.7,33.3-137.7,59.8
		c-1.8,2.7-2.6,5.9-2.5,9.1l23,385.3c0.9,15.4,8.6,29.7,20.9,39l206.7,156.2l0,0.7l0.4-0.3l0.4,0.3l0-0.7l206.7-156.2
		c12.3-9.3,20-23.6,20.9-39l23-385.3C651.2,165.6,650.4,162.4,648.6,159.7z M472.3,144.1c10.4,2.5,20.2-4.6,24.6-8.1
		c1.1-0.9,2.7-0.2,2.9,1.2c3.8,29.5-5.7,32.5-13.3,32.5c-7.9,0-18.3-6.1-27.9-8.1c-7.2-1.5-19.6,2.2-25.2,4.2
		c-1.4,0.5-2.7-0.7-2.4-2.1C436.5,136.1,455.7,140,472.3,144.1z M361.7,188.9c15.3-2.5,16.7,5.9,16.7,11c0,1.9-1.3,3.5-3.2,3.9
		c-19.5,4.3-21.4,21.1-21.4,27.7c0,1.2-1.3,1.9-2.3,1.3C322.8,216.3,339.2,192.5,361.7,188.9z M335,175.5c0-4.8,6.1-8.7,13.5-8.7
		c7.5,0,13.5,3.9,13.5,8.7c0,4.8-6.1,8.7-13.5,8.7C341,184.2,335,180.3,335,175.5z M373.7,219.7c2.6-0.9,6.6-1.7,13.6,6
		c7,7.8,12.7,7.7,12.7,7.7s5.7,0.1,12.7-7.7c7-7.8,11.1-6.9,13.6-6c5.1,1.9,4.9,15.4-1.2,24.4c-6.1,9-14.8,14.8-25.2,14.8
		s-19.1-5.8-25.2-14.8C368.7,235.2,368.6,221.6,373.7,219.7z M380.9,187.4c0,0,6.7-13.4,19.1-13.4s19.1,13.4,19.1,13.4
		c-12.5,6.1-19.1,18.9-19.1,18.9S393.4,193.5,380.9,187.4z M424.7,203.8c-1.8-0.4-3.2-2-3.2-3.9c0-5,1.4-13.4,16.7-11
		c22.5,3.6,38.9,27.4,10.2,43.9c-1,0.6-2.3-0.2-2.3-1.3C446.2,224.9,444.2,208,424.7,203.8z M451.5,184.2c-7.5,0-13.5-3.9-13.5-8.7
		c0-4.8,6.1-8.7,13.5-8.7c7.5,0,13.5,3.9,13.5,8.7C465,180.3,459,184.2,451.5,184.2z M437,71.2c4.5,0,8.1,3.6,8.1,8.1
		s-3.6,8.1-8.1,8.1c-4.5,0-8.1-3.6-8.1-8.1S432.5,71.2,437,71.2z M415.5,103.7h32.2c4,0,6.5,4.4,4.5,7.8
		c-6.1,10.2-18.5,28.8-37.9,47.3c-2.4,2.3-6.3,0.6-6.3-2.7v-44.9C408,107.1,411.4,103.7,415.5,103.7z M400,64.3
		c5.8,0,10.5,4.7,10.5,10.5c0,5.8-4.7,10.5-10.5,10.5s-10.5-4.7-10.5-10.5C389.5,69,394.2,64.3,400,64.3z M363,71.2
		c4.5,0,8.1,3.6,8.1,8.1s-3.6,8.1-8.1,8.1c-4.5,0-8.1-3.6-8.1-8.1S358.5,71.2,363,71.2z M352.3,103.7h32.2c4.2,0,7.5,3.4,7.5,7.5
		v44.9c0,3.3-3.9,4.9-6.3,2.7c-19.4-18.5-31.8-37.1-37.9-47.3C345.8,108.1,348.3,103.7,352.3,103.7z M300.2,137.2
		c0.2-1.4,1.8-2,2.9-1.2c4.4,3.5,14.3,10.6,24.6,8.1c16.6-4.1,35.8-8,41.3,19.5c0.3,1.4-1.1,2.6-2.4,2.1c-5.6-1.9-18-5.7-25.2-4.2
		c-9.6,2-20.1,8.1-27.9,8.1C305.8,169.7,296.4,166.7,300.2,137.2z M176.7,221.3c-1,0.6-2.2-0.6-1.5-1.6c11-15,13.5-18.3,18.2-30
		c2.9-7.1,0.6-11.9-1.4-14.2c-0.6-0.8-1.9-0.4-1.9,0.6c-0.6,14.5-10.9,19.2-18.2,19.3c-7.7,0.1-15.9-2.8-15.3-12.4
		c0.6-9.6,4.8-18.8,23.7-21.7s37.8,17.9,23.9,35.8C194.6,209.6,183,217.6,176.7,221.3z M348.9,694.9c-9.2,0-16.6-7.4-16.6-16.6
		c0-9.2,7.4-16.6,16.6-16.6c9.2,0,16.6,7.4,16.6,16.6C365.5,687.5,358.1,694.9,348.9,694.9z M400.9,715.9
		c-12.7,0-23.1-10.3-23.1-23.1s10.3-23.1,23.1-23.1s23.1,10.3,23.1,23.1S413.6,715.9,400.9,715.9z M451.1,694.9
		c-9.2,0-16.6-7.4-16.6-16.6c0-9.2,7.4-16.6,16.6-16.6c9.2,0,16.6,7.4,16.6,16.6C467.7,687.5,460.3,694.9,451.1,694.9z M599.2,228.6
		l-12,313.3c-0.3,7.7-3.2,15-8.3,20.8c-21.9,25.2-88.2,91.7-178.8,91.7S243.1,588,221.2,562.7c-5-5.8-8-13.2-8.3-20.8l-12-313.3
		c-0.1-2.6,0.6-5.2,1.9-7.4c10.8-17.2,35.6-10.7,35.6-10.7c2.3-15.1,15.5-22.5,15.5-22.5c-1.6,24.8,1.9,41.1,1.9,41.1
		c11.3-15.9,27.9-27.2,27.9-27.2c3.9,8.9,3.8,22.3,20.6,35.7c19.6,15.6,54.7,10.9,54.7,10.9c6.6,14,24.4,24.4,41,24.4
		s34.4-10.5,41-24.4c0,0,35.1,4.8,54.7-10.9c16.8-13.4,16.7-26.8,20.6-35.7c0,0,16.7,11.3,27.9,27.2c0,0,3.5-16.3,1.9-41.1
		c0,0,13.2,7.4,15.5,22.5c0,0,24.7-6.4,35.6,10.7C598.6,223.4,599.3,226,599.2,228.6z M628,195.4c-7.3-0.1-17.6-4.9-18.2-19.3
		c0-1-1.3-1.4-1.9-0.6c-1.9,2.4-4.3,7.1-1.4,14.2c4.8,11.7,7.2,15,18.2,30c0.7,1-0.4,2.2-1.5,1.6c-6.2-3.7-17.9-11.7-27.6-24.2
		c-14-17.9,4.9-38.7,23.9-35.8s23.1,12.1,23.7,21.7C643.8,192.7,635.7,195.6,628,195.4z"/>
	<path class="st0" d="M400,436.5c-58,0-105,47-105,105c0,58,47,105,105,105s105-47,105-105C505,483.6,458,436.5,400,436.5z
		 M400,640.4c-54.6,0-98.9-44.3-98.9-98.9c0-54.6,44.3-98.9,98.9-98.9s98.9,44.3,98.9,98.9C498.9,596.2,454.6,640.4,400,640.4z"/>
	<path class="st0" d="M340.4,488.6l-16.9,2.1c-8.8,13.1-14.2,28.6-15.2,45.4l12.3,12.5l19.8-27.2V488.6z"/>
	<path class="st0" d="M330.6,581.1l-0.8,19.6c9.8,11.6,22.5,20.8,37,26.4h0l16.6-10l-20.1-25.3L330.6,581.1z"/>
	<path class="st0" d="M459.6,521.4l19.8,27.2l12.3-12.5c-1-16.7-6.4-32.2-15.2-45.4l-16.9-2.1V521.4z"/>
	<path class="st0" d="M436.8,591.9l-20.1,25.3l16.6,10h0c14.4-5.6,27.1-14.8,37-26.4l-0.8-19.6L436.8,591.9z"/>
	<path class="st0" d="M431.6,468.5l-8.5-15.9c-7.4-1.9-15.1-2.9-23.1-2.9s-15.7,1-23.1,2.9l-8.5,15.9l31.6,9.3L431.6,468.5z"/>
	<polygon class="st0" points="434,530.1 400,504.9 366,530.1 379.2,570.1 420.8,570.1 	"/>
	<path class="st0" d="M228.2,285.8h-20.7l0,6.9h1c0.2-2.5,1.1-4.1,2.8-5c0.9-0.5,2.2-0.7,3.9-0.8V305c0,1.3-0.2,2.1-0.7,2.5
		s-1.3,0.6-2.7,0.6v0.9H224v-0.9c-1.4,0-2.3-0.2-2.8-0.6c-0.4-0.4-0.7-1.3-0.7-2.5v-18.1c1.7,0,3,0.3,3.9,0.8c1.5,0.9,2.5,2.6,2.8,5
		h1L228.2,285.8z"/>
	<path class="st0" d="M237.8,308.2c-0.8,0-1.4-0.1-1.8-0.2c-0.7-0.2-1-0.6-1-1.1c0-0.4,0.2-1,0.5-1.9c0.1-0.4,0.5-1.3,1-2.7h7.7
		l0.9,2.1c0.2,0.5,0.3,0.9,0.5,1.2c0.2,0.5,0.3,1,0.3,1.2c0,0.6-0.2,1-0.5,1.1s-1.1,0.2-2.2,0.3v0.9h11.1v-0.9
		c-0.8,0-1.4-0.3-1.8-0.8c-0.4-0.6-1.1-1.9-1.9-3.9l-7.7-18.1h-1l-7.6,18.8c-0.6,1.5-1.1,2.5-1.4,2.9c-0.5,0.7-1.2,1.1-2,1.1v0.9h7
		V308.2z M240.1,293h0.3l3.3,8H237L240.1,293z"/>
	<path class="st0" d="M273.2,308.2c-1.1,0-1.9-0.2-2.4-0.5c-0.5-0.3-0.8-1-0.8-1.9v-16.6c0-1,0.3-1.7,1-2.1c0.4-0.2,1.1-0.3,2.2-0.4
		v-0.9h-12v0.9c1,0,1.7,0.2,2.1,0.4c0.7,0.3,1,1,1,2v16.6c0,1-0.3,1.7-1,2.1c-0.4,0.2-1.1,0.3-2.1,0.4v0.9h12V308.2z"/>
	<path class="st0" d="M285.1,308.7c0.1-0.2,0.4-0.3,0.7-0.3c0.1,0,0.2,0,0.4,0c0.1,0,0.3,0.1,0.4,0.1l0.7,0.3
		c0.7,0.3,1.4,0.5,2.1,0.6s1.4,0.2,2.1,0.2c3,0,5.1-0.8,6.5-2.3c1.3-1.5,2-3.2,2-4.9c0-1.9-0.6-3.4-1.9-4.7
		c-0.7-0.7-1.6-1.3-2.7-1.9l-2.5-1.3c-2.1-1.1-3.5-1.9-4.1-2.4c-0.6-0.5-0.9-1.3-0.9-2.4c0-0.9,0.3-1.7,1-2.3
		c0.7-0.6,1.6-0.9,2.7-0.9c1.6,0,3,0.6,4.1,1.9s1.9,2.7,2.4,4.5h1v-7.5h-1c-0.1,0.4-0.2,0.6-0.3,0.9c-0.1,0.2-0.4,0.3-0.8,0.3
		c-0.2,0-0.8-0.2-2-0.6c-1.2-0.4-2.4-0.6-3.6-0.6c-2.4,0-4.3,0.7-5.4,2.2c-1.2,1.5-1.8,3-1.8,4.7c0,1.6,0.4,2.9,1.3,4
		c0.9,1.1,2.4,2.2,4.6,3.3l2.2,1.1c1.4,0.7,2.3,1.2,2.7,1.7c0.7,0.6,1,1.5,1,2.5c0,0.9-0.3,1.7-1,2.5c-0.6,0.8-1.7,1.2-3.3,1.2
		c-1.6,0-3-0.6-4.2-1.7c-1.2-1.2-2.1-3-2.6-5.6h-1v8.5h1C284.8,309.2,284.9,308.9,285.1,308.7z"/>
	<path class="st0" d="M315.4,308.2c-1,0-1.6-0.2-2-0.4c-0.7-0.4-1-1-1-2.1v-7.9h8.2v7.9c0,1-0.3,1.7-1,2c-0.4,0.2-1.1,0.4-2.1,0.4
		v0.9h11.7v-0.9c-0.9,0-1.6-0.2-2-0.4c-0.7-0.4-1-1-1-2v-16.6c0-1,0.3-1.6,0.9-2c0.4-0.2,1.1-0.4,2.1-0.4v-0.9h-11.7v0.9
		c1,0.1,1.8,0.2,2.1,0.4c0.6,0.3,0.9,1,0.9,2v7.1h-8.2v-7.1c0-1,0.3-1.7,1-2c0.4-0.2,1.1-0.3,2.1-0.4v-0.9h-11.6v0.9
		c1,0.1,1.7,0.3,2,0.4c0.6,0.3,0.9,1,0.9,2v16.6c0,1-0.3,1.7-1,2c-0.4,0.2-1,0.3-1.9,0.4v0.9h11.6V308.2z"/>
	<path class="st0" d="M336.5,308.2c-0.8,0-1.4-0.1-1.8-0.2c-0.7-0.2-1-0.6-1-1.1c0-0.4,0.2-1,0.5-1.9c0.1-0.4,0.5-1.3,1-2.7h7.7
		l0.9,2.1c0.2,0.5,0.3,0.9,0.5,1.2c0.2,0.5,0.3,1,0.3,1.2c0,0.6-0.2,1-0.5,1.1s-1.1,0.2-2.2,0.3v0.9h11.1v-0.9
		c-0.8,0-1.4-0.3-1.8-0.8c-0.4-0.6-1.1-1.9-1.9-3.9l-7.7-18.1h-1l-7.6,18.8c-0.6,1.5-1.1,2.5-1.4,2.9c-0.5,0.7-1.2,1.1-2,1.1v0.9h7
		V308.2z M338.7,293h0.3l3.3,8h-6.7L338.7,293z"/>
	<path class="st0" d="M361.8,308.2c-1.4-0.1-2.4-0.4-2.8-1.1c-0.3-0.4-0.4-1.2-0.4-2.2v-13.5h0.2l15.1,18.4h1v-20.3
		c0-1,0.2-1.7,0.5-2s1.1-0.5,2.2-0.7v-0.9h-7.4v0.9c1.3,0.1,2.1,0.4,2.5,0.9c0.4,0.5,0.6,1.3,0.6,2.5v10.1h-0.2l-11.8-14.4h-7.3v0.9
		c0.4,0.1,0.8,0.2,1,0.4c0.2,0.2,0.9,0.9,1.9,2.1v16.3c0,0.9-0.2,1.6-0.6,2c-0.4,0.5-1.2,0.7-2.5,0.7v0.9h7.8V308.2z"/>
	<path class="st0" d="M434.3,309.7c2.1,0,4-0.2,5.7-0.7c1.7-0.5,2.9-0.9,3.7-1.4v-4.4c0-1.2,0.2-2,0.6-2.4s1.2-0.7,2.4-0.7v-0.9
		h-11.9v0.9c1.3,0,2.1,0.1,2.5,0.3c0.6,0.3,1,1,1,2.1v3.6c0,0.7-0.1,1.2-0.4,1.6c-0.5,0.6-1.5,0.9-3,0.9c-2.7,0-4.6-1.1-5.5-3.4
		c-1-2.3-1.4-4.8-1.4-7.7c0-3.5,0.5-6.2,1.5-8.2c1-1.9,2.7-2.9,4.9-2.9c2,0,3.9,0.9,5.5,2.8c0.9,1,1.7,2.4,2.5,4.2h0.9v-8.1h-1
		c-0.1,0.5-0.3,0.9-0.6,1.2c-0.2,0.3-0.5,0.4-0.9,0.4c-0.3,0-1.2-0.3-2.7-0.8c-1.4-0.5-2.8-0.8-4.3-0.8c-3.6,0-6.5,1.2-8.8,3.6
		c-2.2,2.4-3.3,5.3-3.3,8.7c0,3.4,1.1,6.2,3.2,8.5C427.4,308.5,430.4,309.7,434.3,309.7z"/>
	<path class="st0" d="M469.6,301.8h-1c-1.1,2.4-2.3,4-3.7,4.8c-1.4,0.9-3.2,1.3-5.4,1.3c-1.2,0-1.9-0.1-2.3-0.4
		c-0.4-0.3-0.6-0.8-0.6-1.5v-8.4c2,0,3.3,0.4,4.1,1.2c0.8,0.8,1.3,2.2,1.5,4.2h0.9v-11.7h-0.9c-0.4,2-0.9,3.3-1.6,4
		c-0.7,0.7-2,1.1-4,1.1v-8c0-0.7,0.1-1.1,0.4-1.3c0.3-0.2,1-0.3,2-0.3c2.8,0,4.7,0.4,5.7,1.2c1.1,0.8,1.8,2.3,2.2,4.6h0.8v-7H448
		v0.9c1,0.1,1.7,0.2,2.1,0.4c0.7,0.3,1,1,1,2v16.7c0,1-0.3,1.7-1,2c-0.4,0.2-1.1,0.4-2.1,0.4v0.9h20.2L469.6,301.8z"/>
	<path class="st0" d="M479.3,308.1c-1.4-0.1-2.4-0.4-2.8-1.2c-0.3-0.4-0.4-1.2-0.4-2.3v-13.6h0.2l15.2,18.5h1v-20.4
		c0-1.1,0.2-1.7,0.5-2s1.1-0.5,2.2-0.7v-0.9h-7.4v0.9c1.3,0.1,2.1,0.4,2.6,0.9s0.6,1.3,0.6,2.5v10.2h-0.2l-11.9-14.4h-7.3v0.9
		c0.4,0.1,0.8,0.2,1,0.4c0.2,0.2,0.9,0.9,2,2.1v16.4c0,0.9-0.2,1.6-0.6,2c-0.4,0.5-1.2,0.7-2.5,0.7v0.9h7.8V308.1z"/>
	<path class="st0" d="M518.6,301.8h-1c-1.1,2.4-2.3,4-3.7,4.8c-1.4,0.9-3.2,1.3-5.4,1.3c-1.2,0-1.9-0.1-2.3-0.4
		c-0.4-0.3-0.6-0.8-0.6-1.5v-8.4c2,0,3.3,0.4,4.1,1.2c0.8,0.8,1.3,2.2,1.5,4.2h0.9v-11.7h-0.9c-0.4,2-0.9,3.3-1.6,4
		c-0.7,0.7-2,1.1-4,1.1v-8c0-0.7,0.1-1.1,0.4-1.3c0.3-0.2,1-0.3,2-0.3c2.8,0,4.7,0.4,5.7,1.2c1.1,0.8,1.8,2.3,2.2,4.6h0.8v-7H497
		v0.9c1,0.1,1.7,0.2,2.1,0.4c0.7,0.3,1,1,1,2v16.7c0,1-0.3,1.7-1,2c-0.4,0.2-1.1,0.4-2.1,0.4v0.9h20.2L518.6,301.8z"/>
	<path class="st0" d="M532,308.1c-1.2,0-2-0.3-2.4-0.7c-0.4-0.4-0.6-1.2-0.6-2.5v-6.8h0L537,309h7.2v-0.8c-0.3,0-0.6-0.1-0.8-0.2
		c-0.2-0.1-0.4-0.3-0.6-0.5l-7.3-9.8c1.2-0.2,2.4-0.7,3.5-1.6c1.5-1.1,2.2-2.6,2.2-4.4c0-2.5-1.4-4.3-4.2-5.3
		c-1.4-0.5-3.3-0.7-5.6-0.7h-11.1v0.9c1.2,0.1,1.9,0.3,2.3,0.6c0.5,0.4,0.8,1.3,0.8,2.6V305c0,1.3-0.2,2.1-0.6,2.5
		c-0.4,0.4-1.2,0.6-2.4,0.7v0.9H532V308.1z M528.9,288.3c0-0.5,0.1-0.9,0.4-1.1c0.3-0.2,0.9-0.3,1.8-0.3c1.7,0,2.9,0.7,3.5,2
		c0.4,0.8,0.6,1.8,0.6,3.2c0,2.2-0.5,3.6-1.5,4.2c-1,0.6-2.6,0.9-4.9,1V288.3z"/>
	<path class="st0" d="M552.1,308.1c-0.8,0-1.4-0.1-1.8-0.2c-0.7-0.2-1-0.6-1-1.1c0-0.4,0.2-1.1,0.5-1.9c0.1-0.4,0.5-1.3,1-2.7h7.8
		l0.9,2.1c0.2,0.5,0.3,0.9,0.5,1.2c0.2,0.6,0.3,1,0.3,1.2c0,0.6-0.2,1-0.5,1.1c-0.4,0.1-1.1,0.2-2.2,0.3v0.9h11.2v-0.9
		c-0.8,0-1.4-0.3-1.8-0.9c-0.4-0.6-1.1-1.9-1.9-3.9l-7.7-18.2h-1l-7.7,18.9c-0.6,1.5-1.1,2.5-1.4,2.9c-0.5,0.7-1.2,1.1-2,1.1v0.9
		h7.1V308.1z M554.4,292.9h0.3l3.3,8h-6.7L554.4,292.9z"/>
	<path class="st0" d="M587.3,306.6c-1.4,0.9-3.2,1.4-5.2,1.4c-1.2,0-1.9-0.1-2.3-0.4c-0.4-0.2-0.6-0.8-0.6-1.5v-16.3
		c0-1.4,0.2-2.2,0.7-2.6c0.5-0.3,1.4-0.5,2.8-0.6v-0.9h-12.1v0.9c1,0.1,1.7,0.2,2.1,0.4c0.7,0.3,1,1,1,2v16.7c0,1-0.3,1.7-1,2.1
		c-0.4,0.2-1.1,0.3-2,0.4v0.9h20l1.4-7.8h-1C589.9,303.8,588.7,305.6,587.3,306.6z"/>
	<path class="st0" d="M474.6,316.3L445,368.7l-45-88.5l-45,88.5l-29.7-52.4l-92.4,174.9c-14.2,26.8,5.3,59.1,35.6,59.1h21.9
		c-0.2-2.9-0.3-5.8-0.3-8.7c0-10.6,1.5-20.9,4.3-30.6h-25.8c-0.2,0-0.4,0-0.4,0c-0.2-0.1-0.5-0.6-0.5-0.9c0,0,0-0.2,0.2-0.4
		l58.8-111.3l25.1,44.4c4-2,8.2-3.7,12.5-5.2l25.9-50.9l9.9-19.4l9.9,19.4l25.9,50.9c4.3,1.5,8.5,3.2,12.5,5.2l25.1-44.4l58.8,111.3
		c0.1,0.2,0.2,0.3,0.2,0.4c0,0.2-0.3,0.8-0.5,0.9c0,0-0.2,0-0.4,0h-25.8c2.8,9.7,4.3,20,4.3,30.6c0,2.9-0.1,5.8-0.3,8.7h21.9
		c30.3,0,49.8-32.3,35.6-59.1L474.6,316.3z"/>
</g>
</svg>
