<svg version="1.1" xmlns="http://www.w3.org/2000/svg" xmlns:xlink="http://www.w3.org/1999/xlink" x="0px" y="0px"
	 viewBox="0 0 800 800" enable-background="new 0 0 800 800" xml:space="preserve">
<g>
	<g>
		<path fill-rule="evenodd" clip-rule="evenodd" fill="#FEFEFE" d="M663.5,456.2l10.3-24.8l-20.2-7.4c-5.6-2-11.3-4-17-5.9
			c-4.1-30-5.3-56.9-3.1-83.4c3.1-35.8,12.6-71.1,30.2-112.7l1.6-3.8l-94.5-116l-4.1,0.9c-10.8,2.4-19.1,3.9-27,4.5
			c-7.8,0.5-15.5,0.2-25.1-1.2c-4.7-0.7-20.2-3-35.7-7.1c-13.4-3.5-26.7-8.1-31.7-13.4l1.1,0.2c15.2,2.1,25,3.4,27.4-11.4
			c0-0.1,0-0.2,0-0.2c0.3-2.1-0.1-4.4-1.2-6.3c-1.3-2.4-3.5-4.2-6.6-4.7l-0.1,0l-0.2,0c-0.5-0.1-1-0.1-1.6-0.1
			c0.1-0.5,0.2-1,0.3-1.5c0.4-2.9-0.2-6-2.3-8.5c-1.4-1.7-3.5-3.1-5.9-3.4h0c-2.3-0.3-4.6,0.2-6.9,1.9c-1.9,1.5-2.8,2.9-3.3,4.3
			c-1.2,0.1-2.7,0-4.3-0.1c-9.1-0.6-15.3,1.9-20.3,4c-0.7,0.3-1.4,0.6-2,0.8l0,0l-2.1,0.8h0c-4.4,1.8-7.1,2.8-8.6,2
			c-6.4-3.4-12.1-0.8-20,2.8c-5.2,2.3-11.6,5.3-19.5,6.7c-6,1.1-10,3.1-12.6,6c-1.3,1.5-2.2,3-2.7,4.7l-1.1-0.5
			c-1.9-0.9-3.9-1.5-5.9-1.8c-3.6-0.5-7.3-0.2-10.6,1.2c-3.6,1.5-6.6,4.2-8.4,8c-0.7,1.4-1.1,3-1.4,4.7c-0.1,0.6-0.1,1.2-0.2,1.8
			c-1.2-0.3-2.4-0.5-3.6-0.7c-5.4-0.6-10.7,0.4-14.6,3c-0.8,0.5-1.5,1.1-2.2,1.7h-2l-1.1,0.3c-4.4,1.5-10,3-16.1,4.1
			c-4.8,0.9-10,1.5-15.2,1.6c-6.6,0.2-12.6-0.3-18.6-1c-6-0.8-12.1-2-18.7-3.4l-4.1-0.8l-94.5,116l1.6,3.8
			c17.6,41.5,27.1,76.8,30,112.6c2.2,26.2,0.9,52.9-3.3,82.5c-6.8,2.2-13.5,4.5-20.1,6.9l-19.7,7.1l9.7,25.1l-43.7,22.8l57.2,114.7
			c7.1-5.3,11-7.5,17.7-11.8c12.1,28,32.6,59.4,67.1,99l7.4,8.5l11.2-1.8c9.9-1.6,20.1-1.5,30.6,0.1c10.6,1.6,21.4,4.6,32.4,9
			c11.5,4.6,23.4,10.6,35.5,18c12.2,7.4,24.5,15.9,36.9,25.5l12.5,9.7l12.5-9.7c12.4-9.6,24.7-18.1,36.9-25.5
			c12.1-7.3,24-13.4,35.5-18c11-4.4,21.8-7.4,32.4-9c10.5-1.6,20.7-1.6,30.6-0.1l11.2,1.8l7.4-8.5c33.2-38.1,54.4-70.6,66.6-98
			c4.8,3.1,9.8,6.1,15.6,10.2l57.8-114.1L663.5,456.2z"/>
		<path fill-rule="evenodd" clip-rule="evenodd" fill="#E62319" d="M294.8,146.4c-7.1,1.4-14.3,2.2-21.6,2.3
			c-5,0.1-9.8-0.1-14.5-0.4c-3.3-0.2-6.7-0.6-10.1-1l-61.5,73.5C228,323.3,213.7,394.2,203.3,446c-0.7,3.5-1.4,6.7-2.5,12.7
			c-5.2,27.2-9.9,51.7-3.6,80.4l0,0c6.3,28.5,23.4,61.7,61.4,106.9c26.4-1.8,52.3,4.2,76.8,14.5c23.6,9.9,45.8,23.7,65.7,38.1
			c19.9-14.4,42.1-28.2,65.7-38.1c24.4-10.2,50.4-16.3,76.8-14.5c37.9-45,55.1-78.2,61.4-106.7c6.4-28.7,1.8-53.3-3.2-80.6
			c-0.5-2.6-1.5-7.7-2.5-12.9c-10.1-51.8-23.9-122.7,16.8-225l-61.5-73.5c-7.4,1-14.9,1.6-22.4,1.6c-8.5,0.1-17.1-0.4-25.4-1.6
			c-3.3-0.5-9.7-2-16-3.7c-7.9-2.1-16-4.5-18.6-5.5l-12.5-4.9c-1.1-0.1-2.2-0.2-3.3-0.4c-7.3-0.9-13.7-1.8-19.2-3.1
			c-2.7-0.6-5.2-1.3-7.5-2.1l-5.2,1.5c-12,3.5-16.2,1.3-21.9-1.7c-2-1.1-4.4-2.3-7.9-3.1c-2-0.5-5.2-0.6-9-0.3
			c-3.9,0.3-8.2,1-12.6,2.2c-2.1,0.5-3.9,0.9-5.5,1.3l5.2,6.1l-14.6,0.3c-2.9,0.1-5.6-0.3-8-1c-2.5-0.8-4.7-1.9-6.8-3.4
			c-1.2-0.9-2.3-2-3.1-3.3c-1.8,2.5-4,4.7-6.5,6.6c-5.6,4.2-12.3,6.8-17.7,8.4C308.9,143.2,301.8,145,294.8,146.4"/>
		<g>
			<path fill-rule="evenodd" clip-rule="evenodd" fill="#A01012" d="M197.8,474.4h28.5v129c-16.3-24.8-25.1-45.6-29.2-64.3l0,0
				C192.1,516,194.1,495.7,197.8,474.4"/>
			<path fill-rule="evenodd" clip-rule="evenodd" fill="#A01012" d="M273.7,474.4h53.4v182.8c-17.3-6.4-35.2-10.6-53.4-11.4V474.4z"
				/>
			<path fill-rule="evenodd" clip-rule="evenodd" fill="#A01012" d="M374.4,474.4h53.4v206.2c-9.3,5.7-18.2,11.7-26.8,17.9
				c-8.5-6.1-17.4-12.2-26.7-17.8V474.4z"/>
			<path fill-rule="evenodd" clip-rule="evenodd" fill="#A01012" d="M475.1,474.4h53.4v171.4c-18.3,0.7-36.2,4.9-53.4,11.4V474.4z"
				/>
			<path fill-rule="evenodd" clip-rule="evenodd" fill="#A01012" d="M575.9,474.4h28.7c3.6,21.3,5.6,41.8,0.4,64.9
				c-4.2,18.6-12.9,39.3-29.1,63.9V474.4z"/>
		</g>
		<g>
			<path fill-rule="evenodd" clip-rule="evenodd" fill="#FEFEFE" d="M477.1,288.5l3.9,3.5c3.9,3.5,6,8,7.1,12.4c1,4,1.1,8,1,11.2
				c-0.1,2.7-0.5,4.8-1,6.5c1.2,2.2,1.9,4.6,2.3,6.8c0.1,0.6,0.2,1.2,0.2,1.8c8.1,2.4,17,6,25.2,9.9c11.7,5.6,22.3,12,27.7,16.5
				l6.3,5.3l-3.5,2.8c3.9,2.2,8.4,4.9,12.7,7.6c6.2,4,12.2,8.3,15.7,11.9l6.9,7.1l-3.1,1.3c7.3,4.8,14.5,10.1,19.2,15.5l9.7,11.2
				H214l0.3-7.1c0.5-11.6,3.7-30.8,8.7-49.7c3-11.3,6.6-22.6,10.8-32.1l-11.4-0.2l5.1-9.7l1.2-2.2c4.2-8,12.3-23.9,25.2-38.9l-9.3,0
				l7-10.6c6.7-10.1,14.6-20.4,23-29.6c6.2-6.8,12.7-13.1,19.3-18.3c-1.8-4.7-2.7-9.5-3-14.1c-0.6-8,0.8-15.6,3.1-19.9l0.9-1.7
				l1.5-1c5.7-3.5,15-5.5,25.4-6.5c12.6-1.2,27.1-1,38.3-0.4c6.5-3.8,18.3-8.9,31-12.6c10.8-3.2,22.4-5.4,32.4-5.3
				c6.3,0.1,13.6,1.1,20.6,3c6,1.6,11.8,3.7,16.7,6.3c19.4-0.8,26.4,6,35.4,14.6l2.1,2l0.4,0.5l4.1,2c5.4,2.7,12.2,6.1,17.2,12.7
				c1.9,2.6,2.6,5.5,3.1,8.2c0.1,0.6,0.3,1.2,0.4,1.6c0.2,0.6,0.6,1.4,1,2.3c1.2,2.3,2.4,4.8,3,8.8c1.1,7.8,0.5,13.5-1.4,18.5
				c-1.6,4.3-4,7.8-7,11.3c-1.5,8-4.4,17.2-9,24.1c-4.5,6.6-10.5,11.2-18.6,11.3l-2.1,0l-1.7-1.1c-2.2-1.4-3.7-3.6-4.7-6.1
				C480.9,282.3,478.8,285.1,477.1,288.5"/>
			<path fill-rule="evenodd" clip-rule="evenodd" fill="#061D47" d="M465.8,309.1l0.3,0c2-2.4,7-8.9,10.4-12.2
				c5.5,4.9,6.1,13,5.9,18.3c-0.2,4.1-1.4,6.4-1.9,7.7c3.9,4,3.7,10.5,3.6,12.9c19.1,4.5,46,18.5,55.2,26.3l-5.2,4.1
				c5.2,2.2,28.2,15.1,35.9,23l-5.8,2.4c9.8,6.3,22.2,13.8,28.6,21.2H221.1c0.9-20.1,10.2-64.9,23.4-88.5c-4.1-0.3-7-0.4-10.9-0.5
				c4.2-8,15.3-31.1,34.2-49.1c-2.3-0.7-8.1-1.9-10.5-1.9c12.5-18.7,28.8-37.9,45.1-49.4c-6.4-11.7-5.5-27-2.4-33
				c11.2-7,42.4-6.9,61.8-5.8c9.6-6.4,40.1-18.3,61.6-18.1c11.1,0.1,26.1,3.7,35.8,9.3c19.2-1.2,25,5.8,33.9,14.2
				c2.5,3.6,14.8,6.1,21.3,14.8c1.4,1.8,1.8,5.2,2.4,7.5c0.9,3.2,3.2,5.5,3.8,10.3c1.8,13.1-1.8,19-8,25.8
				c-2.3,13.4-8.5,31.4-21.4,31.6c-3.9-2.6-4-12.6-4.2-14C485.1,268.4,464.6,282.7,465.8,309.1"/>
			<path fill-rule="evenodd" clip-rule="evenodd" fill="#C9D4DA" d="M355.6,207.8c-6.1,4.7-8.2,4.1-13.6,3.8c-1.1,1.2-1.2,4,1.8,5
				c-3,0.9-4.1,2.4-10.9-1.4c-1.1,1.3-0.5,6.7,2.7,7.4c-9,5.2-13.4,11.1-14.8,19.5c-7.4-4.4-10.5-7.1-12.7-9.8
				c-7.3,5.7-19,15-30.9,35c2.4,0,4.2,0.7,6.8,1.3c-5.6,8.7-25.6,31.3-31.8,45.1c3.4-0.2,6,0.1,9.8,1.1
				c-10.9,25.6-25.3,68.8-25.1,98.2h115.4c11.3-3.8,14.5-17.5,13.6-21.2c-14.6-12.2-25.9-28.4-27.7-55.7c3.3,3.7,14.6,8.1,19.7,8.5
				c-12.1-11.4-15.8-29.2-16.8-39.3c-1.9,1.5-6.6,5.6-9.2,6.3c-7.5-24.7,0.3-42.2,1.7-46.2c-1.1,0-3.7,0.2-5.2,0.4
				c2.5-13.5,17.4-26.6,23.8-29.4c0,0.1-4.6,14-3.2,26.9c1.3,11.3,5.9,24.5,7.2,26.4c9.9,14.7,34.3,26.9,54.6,20.1
				c-9-10.3-5.7-41.1-1.7-53.2c7.3-22.2,22.3-52.5,52.2-52.7c5.8,3.7,18.5,3.6,24.3,3.9c1.1-0.3,3.7-2.6,6.9-2.4
				c5.6,0.8,11.8,1.4,14,1.5c-7.1-5.7-18.7-10.1-28-10.7c1.9-2.5,4.5-2.7,7.2-2.3c-9.1-9.7-18.7-9.9-22.1-9.9l2.9,6.1
				c-8.1-5.2-12.9-8.7-23.1-12.5c-22.1-8.2-58.6,5.5-75.5,16.3c1.7,0.8,4.4,3.8,5,6.4c-14.4-5-47.6-9.8-63.1-5.3
				c-2.6,6.7-4.2,18.4,2.4,24.1c-1.5-2.9-3.2-9.8,2.7-19.3C329.7,199.8,345.3,203.6,355.6,207.8"/>
			<path fill-rule="evenodd" clip-rule="evenodd" fill="#FFFFFF" d="M340.1,253.9c1.9-0.4,3.6-0.7,5-0.4c-3.7,6.6-4.7,20.3-3.5,24.3
				l5.6-5.4c-2.5,17.2,4.4,26.8,8.6,32c3.6-0.7,6.8-1.7,8.9-3.3c4.2,2.2,10.1,7.1,9.3,15.9c7.8,3.2,28,5.6,38.6,7.1
				c11.8,1.6,25.2,15.4,17.7,25c9.6,4.5,23.1,3.6,30.7,0.1l1.7,4.8c6.2-2.5,15.2-13.8,14.5-24.4c-4.1,1.9-12.8,5.9-28.4,1.2
				c-11.8-3.6-15-9.5-17.7-14.8c-6.6-3-20.1-12.6-23.2-26.2c2-21,8.2-38.6,22.5-52.3c-16.7,2.3-40.3,10.2-44.3,29
				c3.2-2,6.6-3.3,10.1-3.8c-3,4.3-4.4,18-2.4,24.8c1.7-1.7,3.2-2.2,4.7-2.5c-0.3,5.1,0.1,15.3,5.1,21.9c-14.8-1.4-35.1-9-35.9-32
				c-5.7,4.3-8.9,9.6-10,12.6c-2.1-9-3.8-21.3,2-35.8c-4.9,0.9-6.2,3-9.2,6.1c-0.9-4.7-0.8-17.4,3.7-22.8
				C346,240.7,341.6,251.1,340.1,253.9"/>
			<path fill-rule="evenodd" clip-rule="evenodd" fill="#FFFFFF" d="M494.1,271.9c4.3-1.5,9.4-14.5,9.2-24.2c0-0.9,0.1-1-0.5-1.6
				c-1.2-1.2-1.5-1.8-3.8-3.3c-1.4-0.9-2.6,0.2-2.7,1.1C495.6,254.3,495.7,260.3,494.1,271.9"/>
			<path fill-rule="evenodd" clip-rule="evenodd" fill="#FFFFFF" d="M475.6,248.2c4-1.2,4.4-3.9,8.4-3.5c6.3,0,5.8,2.3,7.2,4.1
				c1.2-1.5,2.7-5.2,2.5-6.5c-2.2-0.8-3.4-1.8-5.3-1.6c-4.7,0.3-9.7,0.4-13.3,0.4C474.7,241.6,474.4,245.1,475.6,248.2"/>
			<path fill-rule="evenodd" clip-rule="evenodd" fill="#FFFFFF" d="M460.5,242.8c-2.5,1.3-2.3,9-2.9,15.6c-0.7,8.1-1.3,15.4-1.4,19
				c6-3,19.9-36.4,13.2-36.2C466.4,241.5,463.4,241.3,460.5,242.8"/>
			<path fill-rule="evenodd" clip-rule="evenodd" fill="#FFFFFF" d="M475.3,306.7c-3.8,5.6-5.7,9.6-10.4,14.7
				c-4.1,1.2-8.8,1.3-14-1.4c1.6-4.3,6-10.1,2.6-21.9c-2.4,6-10,14.9-13.4,18c-1.6,1.4,2,4.2,2.9,4.8c2.1,1.3,4.3,2.4,6.9,2.4
				c5,1.6,10.5,1.8,14.7,1.5c3.8,0.8,6.3-0.7,7.8-2.4C474.9,318.8,477.2,313.8,475.3,306.7"/>
			<path fill-rule="evenodd" clip-rule="evenodd" fill="#FFFFFF" d="M508.6,240.6c5.4-6.7,5.7-16.9,2.5-25.3
				c-2.6,3.5-10,10-11.4,13.1c-1.1,3.5-0.6,4.4,0.6,6.5C501.7,237.3,504.9,238.2,508.6,240.6"/>
			<path fill-rule="evenodd" clip-rule="evenodd" fill="#C9D4DA" d="M508.6,240.6c1.2-1.2,2.4-3.7,3-5.2c-2.8-1.4-5.1-3.7-6.2-6.4
				C505.2,237.2,507,238.5,508.6,240.6"/>
			<path fill-rule="evenodd" clip-rule="evenodd" fill="#061D47" d="M462.8,204.8c-4.1-2.1-8.2-6.1-9.2-7.4
				c-0.5,0.8-3.1,2.4-6.1,0.9c-5.7-2.9-9.6-7.4-15.1-9.2c-9.9-3.3-23.6,3.8-26.9,8.4l10.4-1.7c6.8,8.7,17,9.4,23.6,7.1
				c4.1-1.4,10.4-1.9,16.2,0.2c9.5,3.4,10,4.5,9.8,3.8C465.3,206.4,464.2,205.5,462.8,204.8"/>
			<path fill-rule="evenodd" clip-rule="evenodd" fill="#ABBCC4" d="M381.1,217.1c-8.4,8.9-6.4,27.7,1,34.1
				c2.7-13.6,12.1-15.3,22-21.1c-3.9,0.9-12.7,1.9-17-1.4C383.7,226.3,382.1,223,381.1,217.1"/>
			<path fill-rule="evenodd" clip-rule="evenodd" fill="#FFFFFF" d="M438.1,204c-4.2,3.1-7.8,4.1-11.6,4.9
				c-8.1,1.8-15.7-0.4-16.9-4.6c-1-3.4,1.6-5.6,4.9-3.6c1.7,1,5.8,4.2,11.8,4.7C431.9,205.9,433.2,205.4,438.1,204"/>
			<path fill-rule="evenodd" clip-rule="evenodd" fill="#FFFFFF" d="M373,200.4c-3.8,2.7-8.7,4.2-12.5,4.1
				c-3.7-1.5-9.1-7.8-50.8-9.5C321.8,190.9,357,194.3,373,200.4"/>
			<path fill-rule="evenodd" clip-rule="evenodd" fill="#FFFFFF" d="M308.2,232.3c-14.9,11.9-21.3,20.4-31.5,34.9l7,1.5
				c-11.9,14.8-23.9,30.3-31.8,45.2l9.9,1.2c-8.5,19.3-23.7,59-24.8,97.9h20.2c-3.8-19,12.9-94.1,24.1-111.8
				c-2.8-0.3-7.5-0.1-10.9-0.3c4.3-7.8,28.3-38.2,28.3-38.2l-7.3-1.1c6.7-10.2,11.9-16.5,21.8-24.6
				C311,235.2,310.4,234.7,308.2,232.3"/>
			<path fill-rule="evenodd" clip-rule="evenodd" fill="#C9D4DA" d="M421.2,194.9c3.3,3.3,12,6,18.2,4.3c-1.5-2.1-5.9-4.7-8.7-5.1
				C428.3,193.6,423.5,194,421.2,194.9"/>
			<path fill-rule="evenodd" clip-rule="evenodd" fill="#FFFFFF" d="M441.2,194.3c-6.7-12.1-11.3-16-14.8-16.5
				c-5.2-0.8-6.1,3.4-5.7,6c-13.1-0.8-19.4,7.6-19.6,12c-0.1,2.3,1.7,3.2,4.4,1.7c1.5-2.6,9.1-7,15-8.3
				C423.9,188.5,431.5,186,441.2,194.3"/>
			<path fill-rule="evenodd" clip-rule="evenodd" fill="#C9D4DA" d="M571.3,413c-8.6-8-17.7-14.9-23.4-19.5l5-3
				c-9.8-8-20.8-15.6-32.5-21.6l4.5-4.6c-10.5-7.3-30.6-16.4-43.4-18.3c-5.1,10.5-13.5,14.9-21.5,17.8l-1.9-4.7
				c-0.8,0.6-1.7,1.3-3.5,1.9c-3,27.5-22,30.7-21.9,52h127.2H571.3z"/>
			<path fill-rule="evenodd" clip-rule="evenodd" fill="#FFFFFF" d="M571.3,413c-9.3-8-15.8-13.9-23.4-19.5l5-3
				c-7.9-6.7-21.9-16.3-32.5-21.6l4.5-4.6c-18.1-12.1-28-15.4-43.4-18.3c-1.1,2.3-3.7,5.9-5.3,7.8c14.1,0.5,23.8,5.7,37.6,12.2
				l-5.4,5.2c16.6,8.3,25.7,15.1,30.9,19.7l-4.9,3.2c10.3,7.7,14.2,13.4,18.2,18.9H571.3z"/>
			<path fill-rule="evenodd" clip-rule="evenodd" fill="#FFFFFF" d="M386.2,362.9c-2.4-2.1-8.1-5.1-10-20.5
				c15.8,8.9,38.6-6.2,44.6,7.8c2.8,6.6,17.4,10.4,20.1,10.7c0.1,6.5-5.3,15.1-8.1,18c-1.6-2.2-4.1-3.7-6.1-4.6
				c-5.4,14.1-6.9,24.6-5.9,38.7h-50.2c7-5.5,11.3-20.5,12.6-30.6c-8.4-1.2-16.2-11.1-21.2-23.9C370.1,361.3,376.9,364,386.2,362.9"
				/>
			<path fill-rule="evenodd" clip-rule="evenodd" fill="#061D47" d="M370.1,237.5c-0.2,3.5-3.1,4.6-5.7,5.8c-3.6,1.3-9.1,4-8.9-1.5
				c0.2-4.7,2.2-10,7.6-10.5C367.9,230.7,370.3,232.6,370.1,237.5"/>
			<path fill-rule="evenodd" clip-rule="evenodd" fill="#061D47" d="M398.5,211.3c-1.7-3.9,2.3-6.6,3.7-7.8c2.3-1.9,6.8-3.7,7.9-3.8
				c-1.1,2.9-3.4,12-5.1,13.4C403.1,214.7,399.9,214.4,398.5,211.3"/>
			<path fill-rule="evenodd" clip-rule="evenodd" fill="#061D47" d="M384.5,285.9c-0.8,1.1-3.7,4.8-5.8,4.8
				c-4.8-0.2-6.9-5.1-5.2-9.7c1.5-4,5.3-5.1,9.3-4.5C386.3,277,386.4,283.2,384.5,285.9"/>
			<path fill-rule="evenodd" clip-rule="evenodd" fill="#061D47" d="M378.6,255.3c0.3,4.4-1.7,6.3-4.2,9.4c-1.7,2.2-5.9,7.5-8.1,7.9
				c-4.5,0.5-5.6-4-5-8.2c0.8-5.8,3.4-10.6,7.2-13.1C370.8,249.7,378.3,250.4,378.6,255.3"/>
			<path fill-rule="evenodd" clip-rule="evenodd" fill="#061D47" d="M383.8,202.2c-4.2,3.9-2.1,5.6-1.4,6.3c1.1,1.2,3.6,0.8,5-0.2
				c1.5-1.2,2.1-2.5,2.7-3.8c1.1-2.2,0.3-3-0.1-3.5C389.1,200,387.2,199,383.8,202.2"/>
			<path fill-rule="evenodd" clip-rule="evenodd" fill="#061D47" d="M396.1,216.3c3.7,0.2,3.6,4.7,3.7,6.3c0.1,2.8-1.3,5-2.3,5.2
				c-2.9,0.3-6.2-4.5-6.2-6.9C391.1,218.7,393,216.1,396.1,216.3"/>
			<path fill-rule="evenodd" clip-rule="evenodd" fill="#061D47" d="M431.2,180.4c-1.7-1.6-4-4.3-5.4-5.7c2.4-1.3,4.6-0.8,6.6-0.4
				c4.5,0.9,8.9,12.9,8.7,19.5C438.3,189.3,435.2,184.3,431.2,180.4"/>
			<path fill-rule="evenodd" clip-rule="evenodd" fill="#061D47" d="M367.1,225.1c-4.8-0.2,0.7-8.3,2.1-9.8c3.6-3.9,7.6-4.6,8.6-3.7
				c1.2,1,0.9,2.7,0.8,4.3c-0.3,2.7-1.4,6.3-2.3,7.2C374.6,224.9,372.4,225.4,367.1,225.1"/>
			<path fill-rule="evenodd" clip-rule="evenodd" fill="#061D47" d="M389.5,308c-1.8-0.3-5.9-2.1-6.5-4.7c-1.1-4.7,2.9-7.5,7.7-7.3
				c4.4,0.5,6.5,3.1,7.2,7.4C398.5,306.9,392.7,308.5,389.5,308"/>
			<path fill-rule="evenodd" clip-rule="evenodd" fill="#061D47" d="M471.5,191.8c2.1,2.5,3.1,1.3,3.5,1c0.7-0.6,0.5-2.1,0-2.8
				c-0.6-0.9-1.3-1.2-2.1-1.6c-1.2-0.7-2.7-1.1-3-0.9C469.4,187.8,469.8,189.8,471.5,191.8"/>
			<path fill-rule="evenodd" clip-rule="evenodd" fill="#061D47" d="M449.2,187.9c2.3,2.4,4.4,1.3,5.3,0.9c1.4-0.6,1.7-2,1.1-2.7
				c-0.7-0.9-1.7-1.2-2.7-1.6c-1.7-0.6-3.9-1.1-4.4-0.9C447.4,184.1,447.3,185.9,449.2,187.9"/>
			<path fill-rule="evenodd" clip-rule="evenodd" fill="#061D47" d="M462.7,192.3c2.1,2.7-0.2,3-0.8,3.1c-1,0.2-2.7-0.6-3.4-1.4
				c-0.8-0.9-0.9-1.5-1.1-2.2c-0.3-1.2-0.5-2.3,0.2-2.5C458.9,188.7,461,190.1,462.7,192.3"/>
			<path fill-rule="evenodd" clip-rule="evenodd" fill="#061D47" d="M423.2,184.4c-8.6-3.8-12.8-6.1-18.8-0.1
				c-1.9,1.9-8.6,8.6-9.2,11c-0.6,2.5,4.6,3.9,7.4,2.9c-2.2-0.7-0.1-5.4,5.4-10.3C411.2,185,415.8,183.7,423.2,184.4"/>
			<path fill-rule="evenodd" clip-rule="evenodd" fill="#061D47" d="M403.8,324.8c-5.2-2.2-4.3-8.3-1-10.2c2.1-1.2,5.1-0.7,8.2,3.3
				c1.5,1.9,1.5,4.3,0.8,6C411.5,326.8,405.7,326.7,403.8,324.8"/>
			<path fill-rule="evenodd" clip-rule="evenodd" fill="#061D47" d="M309.2,285.5c4.7-1.8,4.8-6.1,5.6-10.6c0.4-3.1,1.5-4.5,1.8-7.7
				c0.1-2.9-1.1-7.3-5.5-5.6c-4.2,1.6-8.2,3.8-10.4,8c-1.3,2.5-2.2,5.3-2,8.2C299.3,284.8,302.6,287.5,309.2,285.5"/>
			<path fill-rule="evenodd" clip-rule="evenodd" fill="#061D47" d="M310.1,316.1c1.9-5.9-7.1-17-11.3-21.1c-2.7-2.3-7.6-4.6-9.5,1
				c-2.9,8.5,0,19.7,5.6,24.2C301.5,325.5,307.2,324.9,310.1,316.1"/>
			<path fill-rule="evenodd" clip-rule="evenodd" fill="#061D47" d="M287.5,355.2c3.8,3.9,12.5,12.9,20.6,6.3
				C343.5,332.5,247.2,313.7,287.5,355.2"/>
			<path fill-rule="evenodd" clip-rule="evenodd" fill="#061D47" d="M291.8,375.7c-5.4-1.1-26.4-7.3-24,10.3
				c0.7,5.1,3.4,9.6,7.2,13.1c5.6,5.2,13.5,8.3,20.8,8.2C320.1,406.8,321.1,383.4,291.8,375.7"/>
			<path fill-rule="evenodd" clip-rule="evenodd" fill="#061D47" d="M477.6,368.8c-0.1-5.5,3-6,7.1-10.1c2.9-2.7,3.8-4.8,6.9-7.4
				c2.9-2.3,6.6-1.9,6.3,3.4c-0.4,7.5-2.8,14.2-9.6,20.2C481.2,379.7,477.8,376.9,477.6,368.8"/>
			<path fill-rule="evenodd" clip-rule="evenodd" fill="#061D47" d="M431.3,413c9.4-8.5,16.3-11.4,33.5-48.6
				c4.4,18-4.1,43.6-13.9,48.6H431.3z"/>
			<path fill-rule="evenodd" clip-rule="evenodd" fill="#061D47" d="M486.4,382.4c-1.1,0.1-5.2,0.3-7.5,2.7
				c-6.2,6.5-11.9,19.1-7.9,20.3c3.3,1,7.7-0.5,12.1-4c2.7-2.2,5.6-5.1,7.4-8C494.7,386.6,493.2,381.5,486.4,382.4"/>
			<path fill-rule="evenodd" clip-rule="evenodd" fill="#061D47" d="M499.9,394.2c2.1-5,9.3-11.6,15.3-15.4
				c3.8-2.3,7.1-4.3,10.5,1.5c3.3,5.7-0.1,12.1-6.3,16.1C509.7,402.9,494.3,407.6,499.9,394.2"/>
			<path fill-rule="evenodd" clip-rule="evenodd" fill="#FFFFFF" d="M446,212.7c3.2,1.3,11,3,19.8,3.4c-10.1,1.8-19.1,0.9-23.6,0.4
				c0.7,1.8,5.3,3.9,10.6,4c7.4,0.1,14.1-0.1,16.7-0.2c-7.9,2.8-25,4.8-33.2,3.3c5.2,7.7,26.6,3.1,36.6,1.1
				c-9.5,6.5-29.3,8.8-41.4,7.6c10.3,12.9,20.3,3.2,38.2,2.6c13.8-0.5,20.7,0.2,22.9-1.3c1.6-1,2.4-2.2,3.4-5.3
				c0.9-5.4-10.9-11.2-12.5-17.5c-2.7-3.4-7-3.1-12.3-6.5C465.5,202.6,451.6,205.6,446,212.7"/>
			<path fill-rule="evenodd" clip-rule="evenodd" fill="#C9D4DA" d="M446,212.7c1.2,0.5,3,1,5.2,1.5c0.6-2.8,1.9-5.5,3-7.5
				C450.9,208.2,447.9,210.2,446,212.7 M450.8,217.2c-3.6-0.1-6.6-0.4-8.6-0.6c0.6,1.6,4.3,3.4,8.8,3.9
				C450.8,219.4,450.7,218.3,450.8,217.2 M452.2,223.7c-6,0.6-12,0.7-15.9,0c3,4.5,11.5,4.8,20.1,3.9
				C454.4,226.5,453.1,225.1,452.2,223.7 M461.6,229.6c6.2,1.8,17.3,3.5,26.6-4.3c-2.4,6.4-4.9,8.6-8.5,9.4c-2.8,0-6.2,0.1-10,0.2
				c-17.9,0.6-27.9,10.3-38.2-2.6C439.8,233.1,451.8,232.3,461.6,229.6"/>
		</g>
		<path fill-rule="evenodd" clip-rule="evenodd" fill="#061D47" d="M273.1,141.8c13.7-0.1,27.1-3.1,40.9-7.4c9.6-3,23.8-9,23.8-22.9
			c-6.1-9.2-20.5-10.2-25.3-4.7c-5.7,6.4-1.9,14.7,6,13.7c6.4-0.8,7.1-8.5,3.2-10.7c0,0,0.1,0,0.1,0c5.2,0.6,6.7,6.2,4.2,10.5
			c-1.7,2.9-5.2,5.3-10.6,5.2c-8.6-0.1-13.5-8.8-8.3-17.1c0,0,0,0,0,0c-8.2,2.7-20.4,5.8-33.3,6.1c-14,0.3-25.4-1.8-38.8-4.6
			l-89.3,109.6c35.8,84.5,38.6,143.7,21.5,232.8c-12.3,64.3-22.2,115.5,72.5,224.3l4.9,5.7l7.5-1.2c21.3-3.3,43.6,0.3,66.6,9.5
			c23.9,9.5,48.7,24.9,74.1,44.4l8.4,6.4l8.4-6.4c25.3-19.5,50.1-34.9,74.1-44.4c23-9.1,45.3-12.8,66.6-9.5l7.5,1.2l4.9-5.7
			c94.3-108.4,84.8-159.6,72.9-224c-16.6-89.2-13.7-148.5,22.1-233l-89.3-109.6c-22.3,5-34.3,6.3-54.6,3.3
			c-9.5-1.4-63.2-9.6-73.1-24.8c0.5,7-2.9,10.6-4.9,12.2c-4.4,3.5-15.6,5-16.1,10.8c-0.3,2.9,1.3,4.3,6.1,6.9
			c6.9,3.8,17.2,5.9,31.4,7.6c20.3,2.4,27.2,0.4,30.4-2.2c-7.3,0.8-14.7,0.4-26.5-1.2c-11-1.5-24-5.1-25.7-8.4c-0.4-0.8-0.6-2.2,2-2
			c2,0.2,6.9,2.1,13.4,3.7c8.9,2.5,20.6,4.8,32.1,4.9c4.7,0,8.2-0.3,12-0.4c0,0-4.8,11.3-20.2,11.3c4.2,1.6,26.3,7.8,33.1,8.8
			c16.5,2.4,33.6,2,49.7-0.5l66.5,79.6c-45.5,111.3-25.2,185.3-15.5,238c10.4,56.1,18.7,100.9-62,195.6
			c-52.8-5-104.3,23.5-145.4,53.9c-41.1-30.4-92.6-58.9-145.4-53.9c-80.9-95-72.3-139.8-61.6-195.7c10.1-52.6,30.8-126.5-14.8-237.9
			l66.5-79.6C254.7,141.3,263.9,141.9,273.1,141.8 M425.2,83.2l-0.3,0.6c-5.7,11.4-22.3-1.3-31.4,10.6c-1.2,1.5-1.2,2.8-1.4,3.3
			c-0.8,0.2-1.9,0.2-4.1,1.3c-8.3,4.4-15.7,11.8-29.3,11.7c-2.6,0-5.2-0.1-7.6-0.4c2.1-0.7,2.4-3.4,1.9-4.9
			c-0.4-1.3-1.5-2.8-2.5-3.2c0.8,1.3,1.1,3.5,0.2,4.9c-2.2,3.4-6.4,2.5-9.3,1c-4.8-2.6-6.8-7.6-6.2-11.5c1.2-8.1,10-10,16.6-6.9
			c3.7,1.7,4,2.3,8.6,4.8c4.6,2.4,12.4,4.1,17,0.8c4.3-3.1,4.7-8.5,0-9.3c0,0,0,0,0,0c2.4,1.9,0.5,5.8-2.3,7.9
			c-4,3-12.1,0.8-12.9-3.8c-0.9-4.9,1.3-8.5,10.1-10.1c18.5-3.2,28.7-13.6,35.1-10.2c4.8,2.6,9,0.4,16.5-2.5
			c4.7-1.9,10.5-5,19.3-4.4c4,0.3,7.2,0.1,9.7-0.7c2.4-0.8,0.3-3.3,2.5-4.9c1.4-1,2.6-0.5,3.5,0.5c1.6,1.9,0.5,5.5-0.9,7
			c-4.8,5-12,2.2-21.1,4.3c-1.7,0.4-3.1,1-4.2,1.8c9.3-0.3,19.1,3.7,25.5,4.1c3.7,0.3,4.8-0.8,5.4-2.5c0.9-2.2,2.3-2.4,3.3-2.3
			c1.7,0.2,2.4,2,2.1,3.5c-1.3,8.3-8.8,7.2-20.3,5.6c-9.2-1.3-13.2-2.6-18.4-0.9C428.7,79,426.8,80.1,425.2,83.2 M394.8,101.9
			c4.9-14.5,18.3-5,28.9-9.8c5.6-2.6,6.6-6.5,6.5-11c7.3,3.8,7.1,9.2,3.5,13.5c-6.8,8.3-20.3,5.9-21.1,15.8
			c-0.7,7.9,6.6,10.8,9.8,12.1c-14.6,4.2-14-2.1-26.4-5c-5.2-1.2-14.8-0.7-24.9,2c-9.5,2.5-13.4,1.9-14.6,2.9
			c-0.8,0.6-0.9,1.8,1.5,4.5c-4.4,0.1-7.7-1-10.6-3.2c-3-2.2-4.2-7.6-0.3-9.6c3.7-1.9,10.6,0.5,16.1,0c11.5-1.1,15.9-4.4,20.1-7.5
			C386.9,103.9,389.7,101.6,394.8,101.9"/>
		<path opacity="0.2" fill-rule="evenodd" clip-rule="evenodd" d="M605,539.3c-1.9,8.4-4.7,17.3-8.8,26.8c-12-4.3-24-7.8-33.2-9.3
			l-17.4-2.8l15.9-18.6c-17.7-4.5-44.5-10.7-67.6-13.9c-29-4-61.3-6.4-94.1-6.4c-32.7,0-65,2.5-94.1,6.4c-23.1,3.1-51.2,9.6-69,14
			l16.3,18.1l-16.4,3.2c-8.7,1.4-19.9,4.5-31.2,8.4c-3.9-9.2-6.6-17.8-8.4-26.1l0,0c-6.3-28.7-1.6-53.2,3.6-80.4
			c1.1-6,1.8-9.2,2.5-12.7c1.6-7.7,3.2-15.9,4.7-24.5c19.3-4.8,38.9-8.8,58.7-12c45.1-7.4,90.8-10.9,133.1-11.2h0.1
			c42.3,0.3,88,3.9,133.1,11.2c20.8,3.4,41.6,7.7,61.8,12.8c1.4,8.2,3,16.1,4.4,23.5c1,5.3,2,10.4,2.5,12.9
			C606.8,486,611.4,510.6,605,539.3z"/>
		<g>
			<path fill-rule="evenodd" clip-rule="evenodd" fill="#061D47" d="M399.9,389.2c42.3,0.3,88,3.8,133.1,11.2
				c40.8,6.7,81.2,16.5,118.3,30.1l13.1,4.8l-9.4,24.3l43.3,22.6l-51.1,100.7l-12.7-8.2c-7.8-5-20.8-11.1-34.7-16.3
				c-13.1-5-26.7-9-36.9-10.7l-24.4-3.9l17.3-19.7c-17.7-4.5-38.8-8.5-61.9-11.7c-29-4-61.3-6.4-94.1-6.4c-32.7,0-65,2.5-94.1,6.4
				c-23.1,3.1-44.2,7.2-61.9,11.7l17.3,19.7l-24.4,3.9c-20.4,3.3-54.2,15.8-71.5,27l-12.7,8.2l-51.1-100.7l43.3-22.6l-9.4-24.3
				l13.1-4.8c37.1-13.5,77.5-23.4,118.3-30.1c45.1-7.4,90.8-10.9,133.1-11.2H399.9z"/>
			<path fill-rule="evenodd" clip-rule="evenodd" fill="#FEFEFE" d="M399.9,402.8c78.9,0.6,170.2,12.6,246.8,40.5l-23.6,61.1l0.1,0
				l26.9-32.2l30,15.7l-38.1,75.2c-16.7-10.8-53.9-25.3-76.8-29l15.2-17.3c-40.6-13.1-109.9-24.6-180.5-24.6
				c-70.6,0-139.9,11.5-180.5,24.6l15.2,17.3c-22.9,3.7-60.1,18.2-76.8,29L119.7,488l30-15.7l26.9,32.2l0.1,0L153,443.3
				C229.7,415.5,320.9,403.4,399.9,402.8"/>
		</g>
		<g>
			<path fill-rule="evenodd" clip-rule="evenodd" fill="#061D47" d="M278,646l85.6-71.4l4.9-1.6l29.5-23.9l2.1-0.2l52,48.2
				l62.9,20.9l17.1,11.4l20.4,5.7c-3.3,4.2-5.2,6.4-8.9,10.8c-26.4-1.8-52.3,4.2-76.8,14.5c-23.6,9.9-45.8,23.7-65.7,38.1
				c-19.9-14.4-42.1-28.2-65.7-38.1C316.9,652.7,297.7,647.4,278,646"/>
			<path fill-rule="evenodd" clip-rule="evenodd" fill="#FEFEFE" d="M365.9,601.2L346,621.6l15.7-24.7l7.1-8.4l3.8-8.4l-6.5,1.8
				l-72.7,66.3c3,0.5,6.1,1.1,9.1,1.8l35.1-30l-8.3,36.3l-1.2,1.6c2.4,0.9,4.8,1.9,7.2,2.9c23.6,9.9,45.8,23.7,65.7,38.1
				c12.5-9,25.9-17.8,39.9-25.5c-4.5-0.6-13.4-4-14.4-3.7c-2.6-10.9-3.9-10.6-9.8-19.1c0.6,4.4,2.8,20.5,4.1,27.5
				c-5.7-1.8-10-3.3-14.6-6.7c-9.1-9.4-15.4-26.1-21.2-34.4l24.8,18.9c0.3-2.8,0.5-21.6-3.6-28.1l-29.9-38.1l-3.6,5.3L365.9,601.2z
				 M378.2,578.4l20.4-16.7l1.3-0.1l40.5,37.5l11.7,18.6l19.1,20.8l24.5,12.4c-11.6,2.9-22.9,7-33.8,11.9l-1.9-3.1l-40-33
				l-32.3-34.8l-4.9-10.1L378.2,578.4z M497.1,650.5c15.2-3.7,30.7-5.4,46.4-4.3c1.7-2,3.4-4,5-6l-21.1-5.6l-13-9.4l-60.1-19.2
				l-2.1-0.1l22.5,23.5L497.1,650.5z"/>
			<g>
				<path fill-rule="evenodd" clip-rule="evenodd" fill="#C9D4DA" d="M346,621.6l15.7-24.7l7.1-8.4l3.8-8.4l-6.5,1.8l-72.7,66.3
					c3,0.5,6.1,1.1,9.1,1.8l35.1-30l-13.7,30.5l4.3,7.4c1.2,0.5,2.4,0.9,3.6,1.4L346,621.6z M378.2,578.4l20.4-16.7l-4.2,19.4
					l42.5,56l32.3,22.6c-0.8,0.3-1.6,0.7-2.4,1c-1.7,0.7-3.3,1.4-5,2.1l-1.9-3.1l-40-33l-32.3-34.8l-4.9-10.1L378.2,578.4z"/>
				<path fill-rule="evenodd" clip-rule="evenodd" fill="#C9D4DA" d="M497.2,650.5l-23.8-22.8l50.2,18.5
					C514.6,646.9,505.8,648.4,497.2,650.5"/>
			</g>
		</g>
		<path fill-rule="evenodd" clip-rule="evenodd" fill="#FEFEFE" d="M296.6,546.1l-1.1-7.1l9.6-1.4l-0.5-3.3l-9.6,1.4l-0.8-5.2
			l10.1-1.5l-0.5-3.5l-13.7,2l2.8,19.1L296.6,546.1z M316.2,523.7c-6.6,0.8-9.2,6.3-8.6,11.3c0.6,5,4.4,9.5,11.1,8.7
			c6.7-0.8,9.2-6.2,8.6-11.1C326.8,527.6,322.8,522.9,316.2,523.7 M316.7,527c4.5-0.6,6.8,2.8,7.1,6.1c0.3,3.2-0.9,6.8-5.5,7.3
			c-4.5,0.6-6.6-2.6-7.1-5.7C310.7,531.5,312.1,527.6,316.7,527 M338,521.5c-6.7,0.6-9.4,6-8.9,11.1c0.5,5.1,4.1,9.6,10.8,9
			c6.8-0.6,9.3-5.9,8.9-10.9C348.4,525.7,344.6,520.9,338,521.5 M338.3,524.8c4.5-0.4,6.7,3,6.9,6.3c0.2,3.2-1.1,6.7-5.7,7.2
			c-4.5,0.4-6.6-2.8-6.9-6C332.2,529.1,333.8,525.2,338.3,524.8 M356,539.9l-0.6-16l-6.1,0.2l-0.1-3.3c5.6-0.2,10.3-0.4,15.9-0.6
			l0.1,3.3l-6.1,0.2l0.6,16L356,539.9z M370.9,530.8l5.6-0.2c1.5-0.1,3.6,0.8,3.7,2.5c0.1,1.8-2,2.4-3.5,2.4l-5.6,0.2L370.9,530.8z
			 M370.6,523.1l5.6-0.2c2.3-0.1,3.1,1.4,3.1,2.3c0,1.1-0.7,2.1-3,2.2l-5.6,0.2L370.6,523.1z M376,519.6c-3.1,0.1-6.1,0.2-9.2,0.3
			l0.7,19.3c3.1-0.1,6.1-0.2,9.2-0.3c4-0.1,7.2-1.6,7-5.9c0-1.2-1-3.6-3.2-4.2c1.8-0.9,2.4-2.3,2.4-3.8
			C382.7,521.1,379.8,519.5,376,519.6 M401.6,538.4l4,0l-8.8-19.3l-4,0l-8.6,19.4l3.9,0l1.6-3.7l10.1-0.1L401.6,538.4z M398.5,531.4
			l-7.2,0l3.5-8.3L398.5,531.4z M407.7,518.9l-0.5,19.3l13.6,0.4l0.1-3.4l-9.9-0.3l0.4-16L407.7,518.9z M423.9,519.5l-0.9,19.3
			l13.6,0.6l0.2-3.4l-9.9-0.5l0.7-16L423.9,519.5z M458.3,536c-1.4,1.2-3.3,1.7-5,1.6c-4.8-0.4-6.3-3.9-6.1-7.1
			c0.2-3.2,2.5-6.5,7.2-6.1c1.7,0.1,3.3,0.9,4.5,2.2l2.6-2.1c-1.8-2.1-4.2-3.3-6.8-3.5c-7-0.6-10.7,4.3-11,9.3
			c-0.4,5,2.2,10.2,9.4,10.8c2.8,0.2,5.4-0.5,7.6-2.3L458.3,536z M463.7,521.9l-2.1,19.2l13.5,1.5l0.4-3.3l-9.9-1.1l1.8-15.9
			L463.7,521.9z M492.1,525.2l-1.5,11c-0.4,3.3-2.4,5.1-5.4,4.7c-3-0.4-4.7-2.5-4.2-5.9l1.5-11l-3.6-0.5l-1.5,11
			c-0.8,5.8,2.8,9.1,7.4,9.7c4.8,0.6,8.7-1.8,9.4-7.5l1.5-11L492.1,525.2z M501.3,537.4l5.5,0.9c1.5,0.3,3.4,1.5,3.1,3.2
			c-0.3,1.8-2.5,1.9-4,1.7l-5.5-0.9L501.3,537.4z M502.6,529.9l5.5,0.9c2.3,0.4,2.7,2,2.6,2.9c-0.2,1.1-1.1,1.9-3.3,1.5l-5.5-0.9
			L502.6,529.9z M508.7,527.5c-3-0.5-6-1-9-1.5l-3.3,19.1c3,0.5,6,1,9,1.5c3.9,0.7,7.4-0.1,8.1-4.4c0.2-1.2-0.2-3.7-2.3-4.8
			c1.9-0.5,2.9-1.8,3.1-3.3C514.9,530.4,512.4,528.2,508.7,527.5"/>
		<g>
			<path fill-rule="evenodd" clip-rule="evenodd" fill="#061D47" d="M171.2,544.5c-0.4-1.1-1-1.9-1.9-2.2c-0.7-0.3-1.6-0.3-2.7,0.1
				c-0.5,0.2-1,0.3-1.5,0.5c-0.4,0.1-0.7,0.1-0.9,0c-0.3-0.1-0.4-0.3-0.5-0.4c-0.2-0.5,0-1.3,1-1.8c0.5-0.2,1.5-0.7,2.5-0.3
				c0.4-0.9,0.7-1.8,1.1-2.7c-1.4-0.6-2.9-0.4-4.6,0.4c-1.3,0.6-2.3,1.5-2.7,2.5c-0.5,1-0.5,2.2,0,3.3c0.4,1,1,1.7,1.8,2
				c0.7,0.3,1.7,0.3,2.8-0.1c0.5-0.2,1-0.3,1.5-0.5c0.4-0.1,0.7-0.1,0.9,0c0.2,0.1,0.4,0.3,0.5,0.6c0.3,0.7-0.1,1.3-1.3,1.9
				c-0.9,0.5-2.1,0.7-3,0.4c-0.4,0.9-0.7,1.9-1.1,2.8c1.7,0.7,3.3,0.3,5.1-0.6c1.2-0.6,2.2-1.5,2.8-2.5
				C171.5,546.9,171.7,545.7,171.2,544.5 M177.5,546c-1,0.5-1.9,0.9-2.9,1.4c-0.8-2-1.7-3.9-2.5-5.9c-0.8-2-1.7-3.9-2.5-5.9
				c1-0.5,1.9-0.9,2.9-1.4c0.8,1.9,1.7,3.9,2.5,5.8C175.8,542.1,176.7,544,177.5,546 M189,540.9c-0.8-2-1.6-3.9-2.5-5.9l-2.5-5.9
				c-1,0.4-2,0.8-2.9,1.2c0.4,1,0.8,2,1.2,2.9c0.4,1,0.8,2,1.2,2.9c-1.1-0.7-2.1-1.4-3.2-2.1c-1-0.7-2.1-1.4-3.1-2.1
				c-0.9,0.4-1.7,0.7-2.6,1.1c0.8,2,1.6,3.9,2.5,5.9c0.8,2,1.6,3.9,2.5,5.9c1-0.4,1.9-0.9,2.9-1.3c-0.4-1-0.8-2-1.2-2.9
				c-0.4-1-0.8-2-1.2-2.9c1,0.7,2.1,1.4,3.1,2.1c1,0.7,2.1,1.4,3.2,2.1C187.3,541.6,188.2,541.3,189,540.9 M198.6,532.6
				c0.3,1.4,0.1,2.6-0.5,3.5c-0.6,0.9-1.5,1.6-2.6,2c-1.4,0.5-2.7,0.5-3.9-0.1c-0.9-0.4-1.5-1-1.9-1.7c-0.5-0.7-0.8-1.6-1.1-2.5
				s-0.7-1.7-0.9-2.6c-0.2-0.8-0.2-1.7,0.2-2.6c0.5-1.2,1.4-2.1,2.8-2.6c1.2-0.4,2.3-0.5,3.4-0.2c1.1,0.3,2,1.1,2.8,2.3
				c-1,0.4-2,0.7-3.1,1.1c-0.5-0.6-1.1-1.1-2.1-0.7c-0.5,0.2-0.9,0.6-1,0.9c-0.1,0.5-0.2,0.9,0.7,3.1c0.9,2.2,1.2,2.5,1.6,2.8
				c0.3,0.2,0.8,0.3,1.4,0.1c1-0.4,1.1-1.1,1.1-1.8C196.6,533.4,197.6,533,198.6,532.6 M209.9,532.4c-0.4-0.9-0.8-1.7-1.1-2.6
				c-1.8,0.6-3.6,1.3-5.3,1.9c-0.3-0.7-0.6-1.4-0.9-2.1c1.5-0.6,3-1.1,4.5-1.7c-0.4-0.9-0.8-1.7-1.1-2.6c-1.5,0.6-3,1.1-4.5,1.7
				c-0.3-0.7-0.6-1.3-0.9-2c1.8-0.7,3.5-1.3,5.3-2c-0.4-0.9-0.8-1.7-1.2-2.6c-2.8,1-5.5,2.1-8.3,3.2c0.9,2,1.7,3.9,2.6,5.9
				c0.9,2,1.7,3.9,2.6,5.9C204.3,534.3,207.1,533.3,209.9,532.4"/>
			<path fill-rule="evenodd" clip-rule="evenodd" fill="#061D47" d="M599.7,536.2c0.3-0.8,0.7-1.7,1-2.5c-1.5-0.5-3-1-4.5-1.6
				c1.4-0.7,2.8-1.4,4.3-2c1.4-0.7,2.2-1.1,2.8-2.4c0.5-1.1,0.4-2.2,0-3.1c-0.4-0.9-1.3-1.6-2.5-2c-1.1-0.4-2.2-0.4-3.2,0
				c-1,0.4-1.8,1.1-2.3,2.3c1,0.3,1.9,0.7,2.9,1c0.4-0.9,1.1-0.9,1.6-0.8c0.7,0.3,0.9,0.9,0.7,1.5c-0.2,0.5-0.5,0.8-1.2,1.1
				c-1.1,0.5-2.2,1.1-3.3,1.6c-1.1,0.5-2.2,1.1-3.3,1.6c-0.4,0.8-0.7,1.7-1.1,2.5C594.3,534.4,597,535.3,599.7,536.2 M630.6,540.1
				c0.1-0.3,0.2-0.6,0.3-1c-0.6,0.5-1.1,1-1.7,1.5c-0.6,0.5-1.1,1-1.7,1.5c0.7,0.3,1.3,0.5,2,0.8c0.2-0.6,0.4-1.1,0.6-1.7
				C630.3,540.9,630.4,540.5,630.6,540.1 M635,536.1c-0.5,1.4-0.9,2.7-1.4,4c-0.5,1.3-0.9,2.7-1.4,4c0.3,0.1,0.6,0.3,0.9,0.4
				c-0.3,0.9-0.6,1.8-0.9,2.7c-0.3-0.1-0.6-0.3-0.9-0.4c-0.2,0.6-0.4,1.1-0.6,1.6c-0.9-0.4-1.8-0.8-2.7-1.2l0.6-1.6
				c-1.7-0.7-3.4-1.4-5.1-2.1c0.3-0.9,0.6-1.8,0.9-2.7c1.1-1.1,2.3-2.1,3.4-3.2c1.1-1.1,2.3-2.1,3.4-3.2c0.3,0.1,0.7,0.3,1,0.4
				C633.2,535.4,634.1,535.7,635,536.1 M611.7,536.6c-0.5,1.2-1.3,2-2.3,2.4c-1,0.4-2.1,0.3-3.1,0c-1-0.4-1.9-1-2.5-1.9
				c-0.5-0.9-0.7-2-0.2-3.2c0.3-0.8,0.6-1.6,0.9-2.4c0.3-0.8,0.6-1.6,0.9-2.4c0.5-1.3,1.3-2,2.3-2.4c1-0.4,2.1-0.4,3.1,0
				c1,0.4,1.9,1,2.4,1.9c0.5,0.9,0.7,2,0.2,3.3c-0.3,0.8-0.6,1.6-0.9,2.4C612.3,535,612,535.8,611.7,536.6 M608.8,535.6
				c0.3-0.8,0.6-1.6,0.9-2.4c0.3-0.8,0.6-1.6,0.9-2.4c0.3-0.8-0.1-1.4-0.7-1.7c-0.6-0.2-1.3,0-1.6,0.9c-0.3,0.8-0.6,1.6-0.9,2.4
				c-0.3,0.8-0.6,1.6-0.9,2.4c-0.3,0.8,0.1,1.4,0.7,1.6C607.9,536.7,608.5,536.5,608.8,535.6 M618.9,543.7c0.8-2,1.5-4,2.3-6
				c0.8-2,1.5-4,2.3-6c-0.9-0.4-1.9-0.8-2.8-1.1c-1.2,0.4-2.3,0.8-3.5,1.2c-0.4,1-0.8,2-1.1,3c1.2-0.4,2.3-0.8,3.5-1.2
				c-0.6,1.5-1.2,3-1.7,4.5c-0.6,1.5-1.2,3-1.7,4.5C617,543,618,543.3,618.9,543.7"/>
		</g>
		<g>
			<path fill-rule="evenodd" clip-rule="evenodd" fill="#061D47" d="M208.9,501.7l-8,2.1l-2.3-19.9l8.2-2.1L208.9,501.7z
				 M226.4,497.2l-7.8-18.5l8.2-2.1l7.6,18.6L226.4,497.2z M222.4,449.6l-1.1-0.6l-30.6,8l-1,1.1c-1-1.3-1.9-2.7-2.3-4.4l12.9-3.4
				l-0.9-3.4l8.1-2.1l0.9,3.4l13.6-3.5C222.6,446.3,222.8,447.9,222.4,449.6 M212.5,496.2l-1.8,0.5l-0.3,4.6l11.7-3l-6.1-23.4
				l10.4-2.7l1.3,0.2c0.4-1.2,0.5-3.4-0.2-4.9l-12.6,3.3l-1.1-4.1l10.7-2.8l1.2,0.4c0.4-1.5,0.4-3.3-0.3-4.9l-5.3,1.4l0.4-9.9
				l-8.3,2.1L212,463l-7,1.8l-5.1-8.5l-8.3,2.1l5.2,8.4l-4.7,1.3c0.4,1.8,1.2,3.2,2.3,4.4l1-1l10-2.6l1.1,4.1l-12.3,3.2
				c0.3,1.7,1.2,3.2,2.3,4.5l1-0.9l10.1-2.6L212.5,496.2z M243.4,492.8l-3.9-21.4L236,458l6.4-1.7l8.9,34.4l8.6-2.2l-8.9-34.4
				l2.4-0.6l1.4,0.6c0.8-1.7,1-3.4,0.4-5.4l-20.2,5.2l-2.1-8.1l16.8-6.9l1.7,0.5c0.3-1.9,0.4-4-0.1-5.7l-27.5,10.5l8.1,31.2
				l3.6,19.4L243.4,492.8z"/>
			<g>
				<path fill="#061D47" d="M292.6,433.5l2,16.1l34.5-4.3l-2-16.1C314.8,430.7,304.9,432,292.6,433.5z M300.4,436.4l5.5-0.7l0.3,2.3
					l-5.5,0.7L300.4,436.4z M301.5,444.7l-0.3-2.2l5.5-0.7l0.3,2.2L301.5,444.7z M314.6,434.7c1.8-0.2,3.7-0.5,5.5-0.7l0.3,2.3
					l-5.5,0.7L314.6,434.7z M315.6,443l-0.3-2.2l5.5-0.7l0.3,2.2L315.6,443z"/>
				<path fill="#061D47" d="M294.9,457.5l1.3-1.5l33.3-4.2l1.3,1c1.1-1.8,1.1-3.4,1.2-5.2l-39.1,4.9
					C293.2,454.3,294,456.2,294.9,457.5z"/>
				<path fill="#061D47" d="M332.5,471.1l-2-16.1c-12.3,1.5-22,2.7-34.3,4.2l2,16.1L332.5,471.1z M324.8,468.1l-5.5,0.7l-0.3-2.3
					l5.5-0.7L324.8,468.1z M323.7,459.7l0.3,2.2l-5.5,0.7l-0.3-2.2C320.1,460.2,321.9,459.9,323.7,459.7z M310.6,469.9l-5.5,0.7
					l-0.3-2.3l5.5-0.7L310.6,469.9z M309.6,461.5l0.3,2.2l-5.5,0.7l-0.3-2.2L309.6,461.5z"/>
				<polygon fill="#061D47" points="335.4,473.7 296.4,478.5 296.9,482.4 335.9,477.6 				"/>
				<path fill="#061D47" d="M270,479.7l0.8-0.8l12.7-1.3l-0.4-3.9l-2.9,0.3l-0.7-6.8l2.9-0.3l-0.4-3.9l-2.9,0.3l-0.2-2.2l-8.6,0.9
					l0.2,2.2l-3,0.3c0.2,1.8,0.8,3.2,1.5,4.6l0.9-1l1-0.1l0.7,6.8l-3,0.3C268.7,476.8,269.3,478.2,270,479.7z"/>
				<path fill="#061D47" d="M293.3,430.7l32.5-4l1.8,1.3c1-2,1.3-3.8,1.1-5.6l-39.1,4.8c0.2,2,1,3.7,2.2,5.2L293.3,430.7z"/>
				<path fill="#061D47" d="M274.3,454.4l-0.8-6.3l16.9-2.1l-2.1-18.2l-8.2,1.1l0,0l-18.6,2.4c0.4,2,1.2,3.6,2.4,4.9l2-1.6l14.3-1.6
					l1,10.1l-16.1,2.2l1.7,14.2l16.7-2.3l3,22.7l-14.8,1.9l-1.6,4.2l25.5-3.3l-4-30.6L274.3,454.4z"/>
			</g>
			<path fill-rule="evenodd" clip-rule="evenodd" fill="#061D47" d="M370.3,441l32.2-1.3c-0.1,2.6-1.1,4.8-3.2,6.9l-1.4-1.1
				l-12.9,0.5l18.9,28.6l-10.7,0.4l-18.8-28.6l-6.9,0.3l-14.2,30l-10.7,0.4l14.2-30l-9.6,0.4l-1.9,1.4c-2.8-2.4-3.8-4.5-4.2-6.7
				l18.5-0.8l6.6-13.8l-19,0.8l-1.8,1.5c-3.4-1.4-4.9-5.1-5.1-6.9l61.4-2.5c0.5,2.3-1.2,6-2.9,7l-1.3-1.1l-20.7,0.9L370.3,441z"/>
			<path fill-rule="evenodd" clip-rule="evenodd" fill="#061D47" d="M420.5,471.1L436,472l3-51.3l9.2,3.4l-1.2,2.1l-2.7,46.4
				l15.7,0.9l2.8-47l9.3,4l-1.3,1.9l-2.7,45.7l-56-3.3l3-51.5c3.1,1.2,6.1,2.4,9.2,3.6l-1.4,2.5L420.5,471.1z"/>
			<g>
				<polygon fill="#061D47" points="502.3,446.7 505,441.9 497.5,440.8 492.7,440.1 490.1,444.9 497.5,446 				"/>
				<polygon fill="#061D47" points="497.5,453.4 501.3,453.9 503.9,449.1 497.5,448.2 491.6,447.3 489,452.1 				"/>
				<polygon fill="#061D47" points="497.5,458.1 479.3,455.4 480.2,460.1 497.5,462.6 522.4,466.3 528.1,467.2 529.6,467.4 
					528.9,472.3 522.4,471.3 497.5,467.6 478.2,464.8 478.8,469.2 497.5,471.9 522.4,475.6 528.2,476.5 527.4,482 522.4,481.2 
					497.5,477.5 477.3,474.5 477.7,479.1 497.5,482 522.4,485.7 534.3,487.5 537.8,464.1 522.4,461.8 				"/>
				<polygon fill="#061D47" points="522.4,457 527.2,457.8 529.8,453 522.4,451.9 517.5,451.2 514.9,455.9 				"/>
				<polygon fill="#061D47" points="528.6,450.6 531.3,445.8 522.4,444.5 519,444 516.7,448.8 522.4,449.7 				"/>
				<polygon fill="#061D47" points="516.1,436.7 516.6,433.1 522.4,433.9 537.3,436.1 539.7,437.7 543.6,432.8 522.4,429.6 
					497.5,425.9 482.8,423.7 485.7,429.9 488,428.8 497.5,430.2 508.1,431.8 507.6,435.4 497.5,434 482.6,431.7 479.5,452.6 
					487.5,451.9 489.7,437.3 497.5,438.4 506.9,439.8 504.4,457 513.1,456.9 515.4,441.1 522.4,442.1 533.1,443.7 530.6,460.3 
					538.4,459.8 541.3,440.4 522.4,437.6 				"/>
			</g>
			<g>
				<polygon fill="#061D47" points="554.7,455.2 560.3,453.4 560.4,446.9 562.7,446.4 565,445.8 565,452.2 571.3,450.1 571.4,444.4 
					574.4,443.7 575.3,438.7 562.7,441.3 551.3,443.6 550.1,448.9 554.4,447.9 				"/>
				<polygon fill="#061D47" points="577.4,451.8 577.9,449.9 578,449.3 577.9,449.4 577.4,449.5 562.7,454.1 547.7,458.9 
					546.4,464.1 561,459.3 562.7,462.5 563,463.1 562.7,463.3 544.9,470.5 543.5,476.1 562.7,468.4 563.2,468.2 562.7,470.5 
					561.6,474.9 542.1,481.8 540.8,487.5 560.3,480.5 558.3,488.8 553.6,487.7 549.4,490.9 562.7,494.1 565.8,494.9 573.6,462.8 
					569.9,456.8 576.6,454.9 				"/>
				<polygon fill="#061D47" points="591.2,449.4 593.9,444.1 586.1,444.2 577.9,460.7 577.4,461.6 576.8,462.8 577.4,462.8 
					577.9,462.7 585.1,462.1 589.3,453.4 601.6,456.4 592.5,492.9 589.2,496.1 584.9,495 581.3,498.6 594.7,501.8 600.6,495.9 
					610.6,454.1 				"/>
				<polygon fill="#061D47" points="592.8,466.4 584.8,466.7 577.9,486.2 577.7,486.6 577.9,486.6 585.9,486.2 				"/>
			</g>
		</g>
	</g>
	<g>
		<linearGradient id="SVGID_1_" gradientUnits="userSpaceOnUse" x1="135.2753" y1="413.7933" x2="664.4399" y2="413.7933">
			<stop  offset="0" style="stop-color:#FFFFFF;stop-opacity:0.4"/>
			<stop  offset="0.5" style="stop-color:#FFFFFF;stop-opacity:0"/>
			<stop  offset="1" style="stop-color:#FFFFFF;stop-opacity:0.4"/>
		</linearGradient>
		<path fill-rule="evenodd" clip-rule="evenodd" fill="url(#SVGID_1_)" d="M664.4,435.2l-9.8,3.2l-5.4-2
			c-35-12.7-74.4-22.7-117.2-29.8c-42.5-7-88.2-10.8-132.1-11.2h-0.1c-43.9,0.3-89.6,4.2-132.1,11.2c-42.8,7-82.2,17-117.2,29.8
			l-5,1.8h0l-10.2-3l13.1-4.8c37.1-13.5,77.5-23.4,118.3-30.1c45.1-7.4,90.8-10.9,133.1-11.2h0.1c42.3,0.3,88,3.9,133.1,11.2
			c40.8,6.7,81.2,16.5,118.3,30.1L664.4,435.2z"/>
		<linearGradient id="SVGID_2_" gradientUnits="userSpaceOnUse" x1="693.6952" y1="482.6969" x2="652.1583" y2="461.5539">
			<stop  offset="0" style="stop-color:#FFFFFF;stop-opacity:0.4"/>
			<stop  offset="0.6063" style="stop-color:#FFFFFF;stop-opacity:0"/>
		</linearGradient>
		<polygon fill-rule="evenodd" clip-rule="evenodd" fill="url(#SVGID_2_)" points="692,484.9 647.1,462.5 655.1,459.5 698.4,482.2 
					"/>
		<linearGradient id="SVGID_3_" gradientUnits="userSpaceOnUse" x1="106.392" y1="483.467" x2="148.0148" y2="461.2667">
			<stop  offset="0" style="stop-color:#FFFFFF;stop-opacity:0.4"/>
			<stop  offset="0.6063" style="stop-color:#FFFFFF;stop-opacity:0"/>
		</linearGradient>
		<polygon fill-rule="evenodd" clip-rule="evenodd" fill="url(#SVGID_3_)" points="108,484.9 152.9,462.5 144.9,459.5 101.6,482.2 
					"/>
	</g>
	<g>
		<linearGradient id="SVGID_4_" gradientUnits="userSpaceOnUse" x1="164.5189" y1="219.0209" x2="180.3661" y2="282.3284">
			<stop  offset="0" style="stop-color:#FFFFFF;stop-opacity:0.5"/>
			<stop  offset="0.85" style="stop-color:#FFFFFF;stop-opacity:0"/>
		</linearGradient>
		<path fill-rule="evenodd" clip-rule="evenodd" fill="url(#SVGID_4_)" d="M158.9,219.6c-1.8,1.3-3.7,3.5-3.8,6.8
			c0,0-2.8-4.9-9.2-6.3c-0.1-0.2-0.2-0.4-0.3-0.6L158.9,219.6z M165.2,219.7c4.3,1.6,6.8,6.2,6.8,6.2c0.1-3.1,1.9-5,3.6-6.2
			L165.2,219.7z M180,221.4c-0.3,0-0.6,0-0.9,0c-2.8,0.1-6.2,1.5-6.5,5c0,0,7.1-0.1,10.3,7.3c0,0,0.8-0.1,1.9,0
			C183.3,229.6,181.7,225.5,180,221.4z M172.6,228.6c-6.5,0.5-6.1,5.6-6.1,5.6s6.5-0.7,10.1,6.8c0,0,0.1-6.5,5.4-7.4
			C182,233.6,179.1,228.2,172.6,228.6z M166,258.5c-2.2,0.1-3.8,0.8-5,1.7c0.5,1.7,1.1,3.3,1.6,5c2.4,0.4,5.4,2,8.2,6.5
			c0,0,0.2-6.5,5.5-6.9C176.3,264.9,173.4,258.2,166,258.5z M163.3,267.7c0.6,2,1.2,3.9,1.7,5.8c1.2-0.8,2.9-1.3,5.4-1
			C170.4,272.4,168.5,268.1,163.3,267.7z M186,272.1c0,0-2-5-9-4.8c-6.2,0.2-5.7,5.6-5.7,5.6s6.3-0.6,8,6.5
			C179.3,279.3,178.4,272.8,186,272.1z M183.2,259.7c-6.5,0.1-6.2,5.3-6.2,5.3s7.6-0.8,10.1,7.4c0,0,1.1-6.6,6-6.5
			C193.1,266,189.6,259.7,183.2,259.7z M190.8,251.1c-7,0.4-6.2,6.5-6.2,6.5c8,2.2,10.1,9.5,10.1,9.5l0.7-0.6
			C194,261.5,192.5,256.4,190.8,251.1z M174.1,251.4c-6.5,0.2-6.4,5.1-6.4,5.1s5.2-0.1,8.8,7.4c0,0,0.7-7,7.4-6.3
			C183.9,257.5,180.6,251.1,174.1,251.4z M158.3,252.2c0.8,2.2,1.5,4.3,2.2,6.5c1.6-1.4,4.1-2.9,6.5-2.1
			C167,256.6,165.6,251.6,158.3,252.2z M162.4,244c-2.7,0.1-4.6,1.5-5.9,3.1c0.3,0.9,0.7,1.8,1,2.8c2.2-0.5,5.4,0.3,9.7,5.6
			c0,0,0.7-4.8,4.7-6C171.9,249.5,169.2,243.8,162.4,244z M179.3,243.5c-6.5,0.5-6.5,4.7-6.5,5.8c0,0,6.3-1.5,11.2,6.9
			c0,0,0.3-6.1,4.9-6.9C188.9,249.3,185.8,243,179.3,243.5z M185.6,235.9c-9.2-1.4-8.3,5.9-8.3,5.9c7.8-2.4,12.4,7.4,12.4,7.4
			c0.1,0,0.3,0,0.5,0C188.7,244.7,187.2,240.3,185.6,235.9z M152.6,236.7c1.2,3,2.3,6.1,3.4,9c0.9-1.5,2.2-2.9,3.8-3.7
			C159.9,242,158.1,237.7,152.6,236.7z M166.6,236.4c-6.4,0.5-6.2,5.7-6.2,5.7s7-2,11.6,6.5c0,0,0.8-5.8,4.4-6.7
			C176.5,241.9,173,235.9,166.6,236.4z M156.4,229c-2.7,0.1-4.6,1.4-5.7,2.7c0.4,0.9,0.7,1.8,1,2.7c2.1,0,5.2,1.3,8.3,6.4
			c0,0,0.9-6.2,5.6-6.6C165.6,234.1,162.6,228.7,156.4,229z M147.1,222.8c1,2.5,2.1,5,3,7.5c0.9-1.4,2.3-2.8,4.4-3.1
			C154.5,227.1,153.6,224,147.1,222.8z M162.3,221.2c-6.4-0.2-6.6,5.7-6.6,5.7c6.2-0.5,10.2,6.4,10.2,6.4c1.1-6.7,5.6-6.9,5.6-6.9
			C171.1,225.8,168.7,221.4,162.3,221.2z"/>
		<linearGradient id="SVGID_5_" gradientUnits="userSpaceOnUse" x1="237.9331" y1="127.8002" x2="202.4472" y2="171.5462">
			<stop  offset="0" style="stop-color:#FFFFFF;stop-opacity:0.5"/>
			<stop  offset="0.85" style="stop-color:#FFFFFF;stop-opacity:0"/>
		</linearGradient>
		<path fill-rule="evenodd" clip-rule="evenodd" fill="url(#SVGID_5_)" d="M237.9,117.5c-0.1-0.1-2.7-2.1-7.8-1.5l4.8-5.9
			L237.9,117.5z M237.5,130.8c1.9-0.4,5,0.1,5,0.1l-2.4-6.9C240.4,125.9,237.5,130.8,237.5,130.8z M236.8,131c0,0,2.8-3.6,1-9.5
			c-1.8-5.9-8.7-4.6-8.7-4.6c3.2,5.9-1.4,11.6-1.4,11.6C234.5,126.2,236.8,131,236.8,131z M245,138.5c-0.5-7.8-7.8-7.2-7.8-7.2
			c3.1,6.5-2.2,12.3-2.2,12.3c2.6-1.3,5.6-0.2,7.2,0.6l2.8-3.4C245.1,140.2,245.1,139.4,245,138.5z M227.4,119.2l-5.3,6.6
			c2.9,0.6,5,2.5,5,2.5C229.6,124.3,228.7,121.2,227.4,119.2z M226.5,134.3c-0.4-3-2-6.3-5.4-7.4l-2.1,2.5c0.3,2.3,0.1,5.7-3,9.1
			c0,0,5.9-2,8.6,2.6C224.7,141.1,227.1,138.1,226.5,134.3z M225.6,141c6.3-1.7,8.7,2.4,8.7,2.4s2.6-2.1,1.6-8.6
			c-1-6.5-8.4-5.7-8.4-5.7C230.6,135.1,225.6,141,225.6,141z M222.9,153.3c6.2-1.7,8.6,2.3,8.6,2.3s2.8-1.3,1.7-8.3
			c-1.1-7.1-8.1-5.6-8.1-5.6C227.5,148,222.9,153.3,222.9,153.3z M240.6,146.2c-0.9-1.3-2.7-2.4-5.9-2c0,0,0.9,3.6,0,8.9
			L240.6,146.2z M217.3,131.6l-4.9,6c0.8,0.3,1.6,0.8,2.3,1.5C214.7,139.1,218.5,136,217.3,131.6z M215.3,139.4
			c0,0,3.3,6.3-1.5,12.9c0,0,5.1-1.6,7.8,1.5c0,0,2.8-3.2,2.1-8.3C223,140.5,219.5,138.2,215.3,139.4z M215,146.1
			c-0.2-2.5-1.5-5.7-3.6-7.3l-4.3,5.3c0,1.5-0.4,3.6-1.8,6.4c0,0,5.9-0.8,7.3,2C212.6,152.6,215.2,149.6,215,146.1z M222.1,154.4
			c0,0,3.6,6.5-1.6,13.7c0.2-0.2,2.3-2.6,5.3-4.3l4.7-5.6C229.3,155.5,226.8,152.6,222.1,154.4z M210.8,166.3
			c4.7-2.6,8.9,1.3,8.9,1.3s3.8-3.8,1.7-9.7c-2.3-6.5-8.1-4.7-8.1-4.7C217,160.2,210.8,166.3,210.8,166.3z M201.1,162
			c6.7-1.2,8.9,4.3,8.9,4.3s3.7-2.8,2.1-9.5s-7.7-5.3-7.7-5.3C205.5,157.8,201.1,162,201.1,162z M198.9,173c4.1-3.5,7.8,2.2,7.8,2.2
			s2-2.5,0.8-7.7c-1.3-6.1-7.3-4.6-7.3-4.6C201.8,168.3,198.9,173,198.9,173z M205.7,145.8l-2.6,3.2c0.6,0.7,1.2,1.4,1.2,1.8
			C204.3,150.9,206.3,148.6,205.7,145.8z M201.7,150.8l-6.6,8.1c3,1.2,4.7,3.6,4.7,3.6C203.6,158.5,202.6,153.5,201.7,150.8z
			 M194.4,159.7l-0.9,1.1c0,0,0,0,0,0c-0.1,4.4-4.7,8.2-4.7,8.2c5.1-2.4,9.5,3,9.5,3C201.6,164.4,196.7,160.9,194.4,159.7z
			 M210.1,167c0.7,5.6-1.2,11.9-1.3,12.2c1.7-3.8,6-5,8.7-5.4l1.8-2.1C216.7,164.1,210.1,167,210.1,167z"/>
		<linearGradient id="SVGID_6_" gradientUnits="userSpaceOnUse" x1="562.7565" y1="126.093" x2="505.5776" y2="125.6898">
			<stop  offset="0" style="stop-color:#FFFFFF;stop-opacity:0.5"/>
			<stop  offset="0.85" style="stop-color:#FFFFFF;stop-opacity:0"/>
		</linearGradient>
		<path fill-rule="evenodd" clip-rule="evenodd" fill="url(#SVGID_6_)" d="M568.3,110.1l-9.1,24.8c0,0-1-3.5-4.1-3.9
			c0,0,5.6-1.6,6.9-5.3c1.3-3.7,0.8-6.6-2.7-8.3c0,0,5.7-2,7.9-7.2c0.3-0.1,0.7-0.1,1-0.2L568.3,110.1z M554,131.1
			c-0.2,7.3-8.6,8.2-8.6,8.2c0,0.8-0.3,1.5-0.7,2.2c3.9-0.3,7.7-0.8,11.5-1.3C560.9,132.8,554,131.1,554,131.1z M555.9,112.5
			c1.1,1.1,2.1,2.5,2.2,3.9c0,0,4.8-0.3,6.6-5.7C561.5,111.4,558.6,112,555.9,112.5z M554.4,130.1c3.6-0.6,6.5-4.4,6.8-7.9
			c0.4-3.5-3.3-5-3.3-5c-0.8,7-8.1,7.8-8.1,7.8C554.4,126.4,554.4,130.1,554.4,130.1z M545.3,138.4c0,0,4.1,0.7,6.5-5.4
			c2.4-6.1-2.6-7.5-2.6-7.5c-1.1,6.4-8.3,7.4-8.3,7.4C545.9,134.9,545.3,138.4,545.3,138.4z M539.6,133c0,0-2.5,5-8.6,5.5
			c0,0-0.9,1.9-2.1,3.6c4.5,0,8.9-0.1,13.4-0.4c0.7-1,1.3-2.3,1.4-3.8C543.8,134.2,539.6,133,539.6,133z M525.4,131.4
			c-4.1,5-9.3,4.4-9.3,4.4c-0.9,1.7-3,3.6-4.9,5.1c5.3,0.6,10.6,1,16,1.1C532.7,134,525.4,131.4,525.4,131.4z M519.6,114.1
			L519.6,114.1c-0.6-0.1-1.3-0.1-1.9-0.2c-1.9,3.2-6,4.5-6,4.5c3.2,2.9,1.3,8.4,1.3,8.4s3.8,0.7,7.1-4.9
			C522.1,118.3,520.8,115.6,519.6,114.1z M516.5,134.7c0,0,4.3,1.4,7.5-4.9c3.2-6.2-1.8-7.6-1.8-7.6c-1.7,4.2-8.6,5.1-8.6,5.1
			C518.9,129.4,516.5,134.7,516.5,134.7z M520.8,114.2c1.1,1.4,2.7,4,1.9,7.4c0,0,6-1,7.9-6.8C527.5,114.7,524.3,114.5,520.8,114.2z
			 M532.5,114.8c-0.1,0.9-0.4,1.9-0.9,2.6c0,0,2.7-0.5,4.2-2.6C534.7,114.8,533.6,114.8,532.5,114.8z M545.1,114.1
			c0.2,1.3,0.4,2.9,0.1,4.5c0,0,3.4-0.5,4.9-5.2C548.4,113.7,546.7,113.9,545.1,114.1z M543.5,114.3c-1.8,0.2-3.5,0.3-5.3,0.4
			c-2.3,2.6-5.7,3.2-5.7,3.2c3.8,1.9,3.7,6.5,3.7,6.5c2-0.3,5-2.3,6.5-5.1C543.6,117.8,543.6,115.9,543.5,114.3z M554.6,112.7
			c-0.7,0.1-1.4,0.2-2.1,0.4c-1,4.2-6.7,6.3-6.7,6.3c3.3,1.7,3.5,5.3,3.5,5.3c4.2-1.2,6.2-4.1,6.6-7.4
			C556.3,115.3,555.4,113.7,554.6,112.7z M540.2,132.2c4.4-0.6,7.2-5,7.4-8.2c0.2-3.2-2.9-4.6-2.9-4.6c-1.3,4.5-7.5,5.4-7.5,5.4
			C541.9,127.6,540.2,132.2,540.2,132.2z M531.1,138c4.2-0.8,7.5-5.5,7.7-8.6s-2.9-4.4-2.9-4.4c-1.7,5.6-8.5,6.7-8.5,6.7
			C531.5,133.2,531.1,138,531.1,138z M525.8,130.9c5.3-0.2,8.2-4.6,8.6-8.2c0.4-3.6-3.3-4.7-3.3-4.7c-1.9,2.9-7.4,4.1-7.4,4.1
			C529.3,125.7,525.8,130.9,525.8,130.9z"/>
		<linearGradient id="SVGID_7_" gradientUnits="userSpaceOnUse" x1="642.3755" y1="218.6847" x2="592.2109" y2="163.383">
			<stop  offset="0" style="stop-color:#FFFFFF;stop-opacity:0.5"/>
			<stop  offset="0.85" style="stop-color:#FFFFFF;stop-opacity:0"/>
		</linearGradient>
		<path fill-rule="evenodd" clip-rule="evenodd" fill="url(#SVGID_7_)" d="M623.9,219.7c0-0.1,0-0.1,0.1-0.2l-4.6-5.5
			c1.4,0,2.4-0.1,2.4-0.1c1.6,3.7,6,5.6,6,5.6L623.9,219.7z M635.4,219.6h10.4c0,0-6-1.4-8.9-5.3C637,214.3,637.1,218.3,635.4,219.6
			z M651.8,212.5c0.1,2.7-0.4,6.3-3.9,7.1h9.5c0,0,0-0.1,0-0.1L651.8,212.5z M640.9,208.6c0,0-0.6,4.8-3.6,5.1c0,0,3.8,4.1,8.1,4
			c4.4-0.2,5.5-2.2,5.6-4.7C651.1,212.9,645.8,213.8,640.9,208.6z M645,204.2c-1.1,3.2-4.1,3.3-4.1,3.3c3.6,3.8,8,3.7,9.6,3.6
			L645,204.2z M622.4,214.1c0,0,2.9,4.6,8.9,4.6c6,0,5-5.1,5-5.1c-5.7,0.8-10.4-5.2-10.4-5.2C626.2,214,622.4,214.1,622.4,214.1z
			 M630.1,201.9c0,0,0.2,4.9-3.9,5.5c0,0,4.2,5,8.9,4.5c4.7-0.5,5-2.7,5.2-4.3C640.3,207.6,635.1,207.9,630.1,201.9z M642,200.5
			L642,200.5c-2.4-0.5-5.8-2-9.2-6.2c0,0,0.6,5-2.6,6.2c0,0,3.3,5.6,9,5.2c2.7-0.2,4.2-1.3,5-2.4L642,200.5z M634.9,191.8
			c-0.5,0.7-1.2,1.3-2.1,1.6c0,0,3.5,4.8,7.1,4.6L634.9,191.8z M626.8,181.9c0,7.1-5.7,6.3-5.7,6.3c3.6,3.7,7.4,3.9,10.3,3.3
			c1-0.2,1.7-0.8,2.1-1.4L626.8,181.9z M617.8,194c0,0,4.2,5.3,10,4.8c5.8-0.5,4.4-5.2,4.4-5.2c-6.1,1.3-11.1-4.8-11.1-4.8
			C621.2,193.4,617.8,194,617.8,194z M615.3,200.8c0,0,3.8,4.5,9.5,4.8c5.7,0.3,4.5-5.1,4.5-5.1c-5.6,1.5-11.4-5.5-11.4-5.5
			C618.2,199.2,615.3,200.8,615.3,200.8z M625.4,207.2c-4.1,1.5-10.3-5.5-10.3-5.5c0.2,2.7-0.7,4.4-1.7,5.3l4.2,5
			c1.1,0.3,2.3,0.4,3.5,0.3C626.9,211.8,625.4,207.2,625.4,207.2z M614.6,200.8c-1.3,0.4-4.5-0.2-7-0.8l4.7,5.6
			C615.8,204.2,614.6,200.8,614.6,200.8z M603,194.5c3.8-2.2,2.8-6.4,2.8-6.4c5.8,7.3,11.6,6,11.6,6c0.5,3.1-1.2,5-5.5,5.1
			c-2.4,0.1-5-1.2-7-2.4L603,194.5z M611.5,181.8c0,0-0.1,4.9-5.6,5.5c0,0,3,4.3,7.1,4.8c4.1,0.5,7.5-0.2,7.6-3.9
			C620.6,188.2,614.9,187.2,611.5,181.8z M625.7,180.5c-1.9,0.2-5.6-0.2-10.1-5.4c0,0-0.2,5-4,5.8c0,0,2.3,4.2,6.9,4.9
			c4.1,0.6,7.2,0.5,8.2-3.9L625.7,180.5z M620.4,174c-1.4,0.2-3.1,0.3-4.8,0.2c0,0,3.9,4.7,8.6,4.5L620.4,174z M599.8,172.3
			c0,0,2.4,5.4,9.3,6.4c7,1,6-4.9,6-4.9c-3.8-0.3-8-6.5-8-6.5C606.9,173.9,599.8,172.3,599.8,172.3z M596.2,179.5
			c0.8,1.2,3.8,5.6,9.8,5.7s5-4.6,5-4.6c-6.1,0.7-10.8-6.6-10.8-6.6C600.1,179.6,596.2,179.5,596.2,179.5z M605.1,186.8
			c-6.5-1.1-9.6-7-9.6-7c-1.6-0.1-4.1-0.8-5.9-1.3l11.8,14.1C606.9,191.8,605.1,186.8,605.1,186.8z M599.3,171.9
			c-4.2-1.2-7.6-6.4-7.6-6.4c-0.1,2.8-5.4,4.2-8.9,4.8l4.7,5.7c0,0,0,0,0,0c2.3,0.9,4.7,1.6,7.1,1.6
			C600.7,177.7,599.3,171.9,599.3,171.9z M592.9,165.1c0,0,3.3,5.2,9,5.4c5.8,0.2,4.8-6.3,4.8-6.3s-3.6,2.3-7.3-1.7
			C599.3,162.5,599.2,165.8,592.9,165.1z M613.1,165c-1.4,0.4-3.3,0.8-5.9,0.6c0,0,4,8.2,11.8,6.6L613.1,165z"/>
		<linearGradient id="SVGID_8_" gradientUnits="userSpaceOnUse" x1="402.5532" y1="722.8546" x2="468.2482" y2="681.1071">
			<stop  offset="0" style="stop-color:#FFFFFF;stop-opacity:0.5"/>
			<stop  offset="0.85" style="stop-color:#FFFFFF;stop-opacity:0"/>
		</linearGradient>
		<path fill-rule="evenodd" clip-rule="evenodd" fill="url(#SVGID_8_)" d="M405.3,711.1c-3,1.3-4.4,6.9-4.4,6.9v-11.1
			c0.1,0,0.1,0.1,0.2,0.1c1.5-1.1,3-2.2,4.5-3.3C404.8,707.7,405.3,711.1,405.3,711.1z M408.7,727.3c0,0-5.9,1.1-7.8-5v19l0.2,0.1
			l4.5-3.5C405.2,735,405.5,731,408.7,727.3z M405.6,711.6c0,0-3.9,2.6-2.7,8.5s5,6.3,6.6,6.4c0,0-1.3-8.6,3.8-11.6
			C413.4,714.8,407.1,715.4,405.6,711.6z M409.8,727.2c-2.5,3.1-2.8,6.9-2.7,9.5l2.3-1.8c1.7-1.3,3.4-2.6,5-3.8
			C410.3,729.1,409.8,727.2,409.8,727.2z M422.7,718.3c-7.3,1.2-8.5-3.5-8.5-3.5s-3.5,2.3-2.9,8.7c0.3,3.5,2.5,5.5,4.5,6.5
			c0.9-0.6,1.7-1.3,2.6-1.9C418.2,721.2,422.7,718.3,422.7,718.3z M418.1,695c-3.8,2.6-7.6,5.2-11.3,7.8c-0.3,5.1,0.6,11.3,6.7,11.4
			c0,0-1.2-8,4.4-11.5C417.9,702.7,417.4,699.3,418.1,695z M418.2,703.2c-1.2,1-3.7,4.8-2.1,10.3s7.1,4.1,7.1,4.1
			c-2.3-5.9,3.5-11.1,3.5-11.1C419.6,707.5,418.2,703.2,418.2,703.2z M423.4,718.4c-3,3.1-3.4,6-2.9,8.2c2.1-1.5,4.1-3,6.2-4.4
			C424.1,720.3,423.4,718.4,423.4,718.4z M427.8,706.3c-5.3,7.4-2.4,12.2,0.6,14.7c1-0.7,2-1.4,3-2c-0.1-7.4,4.3-10.3,4.3-10.3
			C429.7,709.8,427.8,706.3,427.8,706.3z M436.6,708.4c-3,2.5-3.4,6.3-3.1,9.2c2.9-1.9,5.8-3.8,8.6-5.6
			C437.3,710.5,436.6,708.4,436.6,708.4z M431.3,692.2c-0.7-1.7-0.8-3.6-0.8-5.2c-3.5,2.1-6.9,4.3-10.3,6.6c-3.4,13.2,7,12.6,7,12.6
			C423.8,697.5,431.3,692.2,431.3,692.2z M431.6,692.9c0,0-3.7,2.6-3.1,9.2c0.6,6.7,7.4,5.9,7.4,5.9c-1.7-8.6,3.9-12.6,3.9-12.6
			C433.4,696.7,431.6,692.9,431.6,692.9z M446.6,683.9c0,0-0.5-3-0.1-6.1c-4.7,2.5-9.3,5.1-13.8,7.9c0,4.6,1.3,10.3,8.4,9
			C441.1,694.7,440.3,688.5,446.6,683.9z M449.1,700.8c-7.1,0.3-7.9-5.5-7.9-5.5c-2.9,1.4-5,8.7-2.7,12.5c1.4,2.3,3.5,3.1,4.9,3.4
			c0.4-0.3,0.8-0.5,1.2-0.8C444,704.6,449.1,700.8,449.1,700.8z M450.6,700.6c-3.2,2.3-3.9,6.1-4,8.6c2.7-1.7,5.4-3.2,8.1-4.8
			C451.2,702.3,450.6,700.6,450.6,700.6z M446.7,684.5c0,0-4.1,3.9-3.3,10.1s6.8,5.6,6.8,5.6c-1-8.9,5-12.2,5-12.2
			C449.2,689,446.7,684.5,446.7,684.5z M457.1,687.5c-2,0.6-5,3.5-5,9.7c0,3.5,2.1,5.4,4,6.4c0,0,0,0,0,0c1.2-0.7,2.4-1.3,3.5-1.9
			c1.7-3.7,5.1-6.9,5.1-6.9C456.2,694.7,457.1,687.5,457.1,687.5z M448.6,676.6c-0.6,5.1,0.1,12,8.4,10.3c0,0,0.4-6.3,6.8-9.7
			c0,0,0.2-4.9,4-9.8 M471.3,683.9c0,0-7.1-0.8-7.4-5.8c0,0-5.3,2.8-4.7,9.1c0.7,6.3,4.1,7.2,6.8,7.1
			C466.1,694.2,465.8,687.8,471.3,683.9z M466.4,694.7c-2.8,1.9-4.4,4.4-5.2,6.2c1.9-1,3.8-2,5.7-3
			C466.5,696.3,466.4,694.7,466.4,694.7z M476.1,674.4c-4.5-2.8-4.1-6.4-2.5-9.4c-1.1,0.4-2.2,0.9-3.3,1.3c-2.4,2.7-4.3,5.9-4.2,9
			c0.1,8,7.4,7.5,7.4,7.5C472.1,678,476.1,674.4,476.1,674.4z M478.6,692.5c-0.8-0.5-6.2-3.7-5.3-8.7c0,0-6.8,4.2-4.5,13.1
			c1.8-0.9,3.5-1.7,5.3-2.5h0c1-0.9,2.4-1.6,4.2-1.9c0,0,0,0,0,0C478.5,692.6,478.6,692.6,478.6,692.5
			C478.7,692.6,478.7,692.6,478.6,692.5z"/>
		<linearGradient id="SVGID_9_" gradientUnits="userSpaceOnUse" x1="249.7741" y1="665.8214" x2="308.4897" y2="672.7845">
			<stop  offset="0" style="stop-color:#FFFFFF;stop-opacity:0.5"/>
			<stop  offset="0.85" style="stop-color:#FFFFFF;stop-opacity:0"/>
		</linearGradient>
		<path fill-rule="evenodd" clip-rule="evenodd" fill="url(#SVGID_9_)" d="M261.9,657.8c-5.8-0.6-10.2,4.7-10.2,4.7l3.6-9.8
			c0.1,0.1,0.2,0.2,0.3,0.3c0.8-0.1,1.7-0.1,2.5-0.2C259.6,656.1,261.9,657.8,261.9,657.8z M246.2,677.2c2.6-3.3,8.5-4.1,8.5-4.1
			c-4.7-3.2-4.1-7.8-4.1-7.8L246.2,677.2z M255,674c-6.2,1.5-7.8,5.5-8.2,7.8l5.3-0.8c1.6-0.2,3.1-0.5,4.7-0.6
			C254,678,255,674,255,674z M265.6,666.9c0,0-4.9-3.1-3.8-8.5c0,0-5.6,0.3-8.1,5.5c-2.5,5.2,0.4,8,1.6,8.8
			C255.2,672.7,258.4,666.8,265.6,666.9z M260,652.7c0.1,1.6,0.6,3.3,2.3,4.4c0,0,1.9-2.8,5.3-4.7
			C265.1,652.5,262.5,652.6,260,652.7z M272.7,652.6c-0.8,0-1.5,0-2.3-0.1c0,0,0,0,0,0c-1.8,0.9-4.2,2.6-5.9,5.6
			c-3,5.3,1.9,8.6,1.9,8.6c3-6,10.1-5.6,10.1-5.6C272.2,657.8,272.3,654.3,272.7,652.6z M275.4,652.7c-1.1,2.1-1.4,5.1,2.2,8
			c0,0,2-5.2,7.8-7.1C282,653.2,278.7,652.9,275.4,652.7z M281.5,668.8c0,0-5-2.9-3.9-7.3c0,0-5.7,0.2-8.6,5
			c-3.7,6.1,1.6,9.4,1.6,9.4S272.2,669,281.5,668.8z M266.1,667.6c0,0-6.5,0.4-8.3,5.8c-0.9,2.6-0.7,5.1-0.2,7
			c0.8-0.1,1.5-0.1,2.3-0.2c1.2-2,3.9-4.1,9.7-4.2C269.5,676,264.3,672.7,266.1,667.6z M270.4,676.5c0,0-4.9-0.3-7.4,3.4
			c2.5-0.1,5-0.1,7.5-0.1C270.3,678.8,270.2,677.6,270.4,676.5z M282.4,669.5c-2.5,0-5.7,0.6-8.6,5.4c-1.1,1.8-1.3,3.6-1.1,5h0
			c1.4,0.1,2.9,0.2,4.3,0.3c3.7-3.5,8.3-3.6,8.3-3.6C281.2,673.8,282.4,669.5,282.4,669.5z M289.4,654.2c-0.7-0.1-1.5-0.2-2.2-0.3
			c-2.6,1.1-5.9,3.2-7.2,7.2c-1.7,5.3,2.4,7.7,2.4,7.7c2.4-7.4,11-6.6,11-6.6C289.3,660,289.2,656.1,289.4,654.2z M291.7,654.5
			c-1.7,5.4,3.3,7.7,3.3,7.7c1.1-2.7,6-4.2,9.6-5C300.3,656.2,296,655.3,291.7,654.5z M296.7,672.5c0,0-5.6-4.6-2-9.6
			c0,0-5-1.3-9.2,4.7c-4.3,5.9,1.1,9.2,1.1,9.2S289.4,671.9,296.7,672.5z M280.3,680.5c1.5,0.2,3,0.4,4.5,0.6
			c0.2-2.5,1.3-3.7,1.3-3.7C282.8,677.4,281.1,679,280.3,680.5z M297.2,673.2c-7.4,0.7-9.6,5.2-10.3,8.3c2,0.3,4.1,0.7,6.1,1.2
			c0,0,0,0,0,0c3.6-0.4,7.4-0.5,7.4-0.5C295.8,678,297.2,673.2,297.2,673.2z M305.8,658.5c-4.2,0.2-8.3,2.3-10.1,6.9
			c-1.9,4.7,2,7.4,2,7.4c0.8-3.8,7.6-5.4,7.6-5.4C302.7,663.1,305.8,658.5,305.8,658.5z M305.9,668.5c0,0-4.8,1.2-6.6,5.7
			c-1.8,4.5,3,9.1,3,9.1s1.9-5.6,7.1-5.3C309.4,678.1,304.3,673.2,305.9,668.5z"/>
		<linearGradient id="SVGID_10_" gradientUnits="userSpaceOnUse" x1="556.5707" y1="664.3615" x2="594.5688" y2="611.3082">
			<stop  offset="0" style="stop-color:#FFFFFF;stop-opacity:0.5"/>
			<stop  offset="0.85" style="stop-color:#FFFFFF;stop-opacity:0"/>
		</linearGradient>
		<path fill-rule="evenodd" clip-rule="evenodd" fill="url(#SVGID_10_)" d="M560.3,679.1l-2.6,2.9l-5.4-13.4
			c3.6,0.5,6.2-1.1,6.2-1.1C557.3,673.2,559,677,560.3,679.1z M557.3,654.5c-5.7,3.2-9-0.1-10.4-2c-0.1,0.1-0.2,0.2-0.3,0.4
			c0.9,3.2,3,10.3,5.4,12.9c3,3.4,6.9,0.8,6.9,0.8C554.7,662.7,557.3,654.5,557.3,654.5z M569.5,666.3c0,0-4.8,4.8-10.2,0.7
			c0,0-1.3,6.7,3.1,9.7l0.1-0.1c2.4-2.8,4.8-5.5,7.1-8.2C569.4,667.7,569.3,666.7,569.5,666.3z M555.2,642.6c-2.1,2.6-4.4,5.3-6.7,8
			c4.3,7,8.7,2.9,8.7,2.9C555,651.6,555,645.9,555.2,642.6z M556.4,642.3c-0.7,7.3,2.5,10.3,5.3,12c2.8,1.8,5.9-1.1,5.9-1.1
			c-4.5-3-1.8-11.4-1.8-11.4C561.4,645.2,556.4,642.3,556.4,642.3z M562.5,633.5c-1.6,2.1-3.3,4.3-5.1,6.4c1.7,1.6,5,3.7,9,1
			C566.4,640.9,563,638.7,562.5,633.5z M557.8,654.5c0,0-1.7,4.9,2.5,10s8.7,1.2,8.7,1.2c-4.7-3-1.9-11.2-1.9-11.2
			C562.4,657.7,557.8,654.5,557.8,654.5z M567.7,653.9c0,0-1.6,7.9,4.2,11.5c1.3-1.6,2.6-3.1,3.8-4.6c0-2.1,0.2-4.4,1-6.5
			C576.6,654.4,571.4,657.3,567.7,653.9z M577.9,653.3c0,0-1.3,2.4-0.7,5.8c1.3-1.5,2.5-3.1,3.7-4.6
			C580,654.2,578.9,653.9,577.9,653.3z M566.8,641.2c-0.3,3.8-1.1,6.8,2.9,11.1c4,4.3,8,0.8,8,0.8c-5.4-4.2-2.7-12.8-2.7-12.8
			C570.9,643.7,566.8,641.2,566.8,641.2z M573.1,626.8c-2.7,2-5,2-6.5,1.4c-0.9,1.1-1.7,2.3-2.6,3.4c0.3,2.2,1.1,4.6,2.8,6.6
			c4.1,4.8,8.7,1.1,8.7,1.1C570,636.5,573.1,626.8,573.1,626.8z M574.2,625.9c0,0-2.5,6.4,1.4,10.7c3.8,4.3,8.7,2.5,8.7,2.5
			s-2.9-5.5-0.1-11.1C584.2,627.9,578,630.8,574.2,625.9z M572.5,620.2c-1.6,2.3-3.4,4.6-5.1,7c1.6,0.3,4.5,0.4,6.8-1.7
			C574.2,625.4,572.7,624.3,572.5,620.2z M583.9,639.7c-3,2.3-8.4,0.6-8.4,0.6s-1,4.6,1.5,8.7c1.4,2.3,3.5,3.4,5.1,3.9
			c1-1.3,2-2.6,3-3.9C581.9,645.6,583.9,639.9,583.9,639.7z M584.6,639.2c-0.9,4.1,0.4,6.8,1.7,8.5c1.4-1.8,2.7-3.5,4-5.3
			C586.5,641.8,584.6,639.2,584.6,639.2z M584.1,614.1c-3.3,2.1-6,1.4-7.6,0.4c-0.8,1.1-1.5,2.2-2.3,3.3c0,2.3,0.6,5.1,2.4,7.4
			c3.8,4.9,8.4,1.5,8.4,1.5C579.9,622.3,584.1,614.1,584.1,614.1z M594.4,627.4c-4.7,3.3-9.3-0.2-9.3-0.2s-2.3,5,0.5,9.9
			c1.4,2.6,3.7,3.7,5.5,4.2c1.1-1.4,2.1-2.8,3.1-4.2C592.2,633.1,594.4,627.4,594.4,627.4z M585.5,613.1c-2.8,3.3-2.2,8.1,1.1,12.5
			c3,4,8.4,0.9,8.4,0.9c-1.9-5.2,1.3-10,1.3-10C588.6,619.9,585.5,613.1,585.5,613.1z M595.2,627c-1.2,3.5-0.6,6.8,0,8.7
			c1.1-1.6,2.3-3.2,3.4-4.7C596.2,629.3,595.2,627,595.2,627z M597.2,615.7c-3.6,6.7,0.2,11.7,2.3,13.8c2.6-3.7,5-7.3,7.3-10.8
			C599.9,619.7,597.2,615.7,597.2,615.7z M585.9,600.3c-2.6,4.2-5.5,8.5-8.5,13c2,1,4.9,1.7,7.7-0.7
			C585,612.6,584.9,606.1,585.9,600.3z M586.7,600.9c-0.8,6.1-0.1,10.1,2.8,13.6c2.9,3.5,7.4,1,7.4,1c-2.9-4.6,0.3-11.2,0.3-11.2
			C590.5,606.6,586.7,600.9,586.7,600.9z M605.8,608.4c-6,1.3-8.1-4.2-8.1-4.2s-2.6,4.1,1.1,9.9c2.2,3.5,6.2,3.7,8.8,3.4
			c0.3-0.5,0.6-1,0.9-1.5C605.4,613.4,605.8,608.4,605.8,608.4z"/>
	</g>
</g>
<g>
</g>
<g>
</g>
<g>
</g>
<g>
</g>
<g>
</g>
<g>
</g>
<g>
</g>
<g>
</g>
<g>
</g>
<g>
</g>
<g>
</g>
</svg>
