<svg version="1.1" xmlns="http://www.w3.org/2000/svg" xmlns:xlink="http://www.w3.org/1999/xlink" x="0px" y="0px"
	 viewBox="0 0 800 800" style="enable-background:new 0 0 800 800;" xml:space="preserve">
<style type="text/css">
	.st0{fill:#003399;}
</style>
<path class="st0" d="M742.3,326.9C742.3,326.8,742.3,326.8,742.3,326.9c-0.5-2.4-1.1-4.8-1.6-7.2c0,0,0,0,0,0
	c-1.1-4.7-2.3-9.4-3.6-14.1c0,0,0-0.1,0-0.1c-0.6-2.3-1.3-4.5-2-6.8c0-0.1-0.1-0.2-0.1-0.3c-1.4-4.5-2.8-9.1-4.4-13.5
	c0-0.1,0-0.1-0.1-0.2c-0.8-2.2-1.5-4.3-2.3-6.5c-0.1-0.2-0.1-0.4-0.2-0.5c-0.8-2.2-1.6-4.3-2.5-6.5c0,0,0,0,0,0
	c-0.9-2.2-1.8-4.4-2.7-6.6c0,0,0-0.1,0-0.1c-0.9-2.1-1.8-4.2-2.7-6.3c-0.1-0.2-0.2-0.4-0.3-0.6c-0.9-2-1.8-4.1-2.8-6.1
	c-0.1-0.1-0.1-0.3-0.2-0.4c-1.9-4.1-4-8.2-6.1-12.3c-0.1-0.2-0.2-0.4-0.3-0.6c-1-2-2.1-3.9-3.1-5.8c-0.1-0.2-0.2-0.4-0.3-0.5
	c-2.2-4-4.4-7.9-6.8-11.8c-0.1-0.2-0.2-0.3-0.3-0.5c-1.1-1.9-2.3-3.8-3.5-5.6c-0.1-0.2-0.2-0.4-0.3-0.5c-2.4-3.9-5-7.7-7.6-11.5
	c0-0.1-0.1-0.1-0.1-0.2c-1.3-1.9-2.6-3.7-3.9-5.6c-0.1-0.1-0.2-0.3-0.3-0.4c-4.1-5.7-8.4-11.3-12.8-16.7c0,0,0,0,0-0.1l0,0
	C621.7,118.1,552.1,74.3,472.5,57.5c-0.1,0-0.1,0-0.2,0c-6.9-1.4-13.8-2.7-20.8-3.7c-0.3,0-0.5-0.1-0.8-0.1
	c-2.2-0.3-4.5-0.6-6.7-0.9c-0.1,0-0.2,0-0.3,0c-2.2-0.3-4.4-0.5-6.5-0.8c-0.2,0-0.5-0.1-0.7-0.1c-2.2-0.2-4.3-0.4-6.5-0.6
	c-0.4,0-0.8-0.1-1.1-0.1c-2.2-0.2-4.4-0.3-6.6-0.5c-0.1,0-0.2,0-0.3,0c-2.1-0.1-4.3-0.2-6.4-0.3c-0.4,0-0.8,0-1.1-0.1
	c-2.1-0.1-4.3-0.2-6.4-0.2c-0.4,0-0.9,0-1.3,0c-2.2,0-4.4-0.1-6.7-0.1c0,0,0,0,0,0c0,0,0,0,0,0c0,0,0,0,0,0c-2.3,0-4.6,0-6.9,0.1
	c-0.4,0-0.8,0-1.2,0c-2.2,0.1-4.4,0.1-6.6,0.2c-0.4,0-0.8,0-1.3,0.1c-2.3,0.1-4.5,0.2-6.7,0.4c-0.2,0-0.4,0-0.5,0
	c-2.2,0.1-4.4,0.3-6.6,0.5c-0.3,0-0.6,0-0.9,0.1c-2.2,0.2-4.4,0.4-6.7,0.6c-0.4,0-0.8,0.1-1.1,0.1c-2.2,0.2-4.4,0.5-6.7,0.8
	c-0.2,0-0.5,0.1-0.7,0.1c-2.3,0.3-4.5,0.6-6.8,0.9c-0.1,0-0.2,0-0.2,0c-2.3,0.3-4.5,0.7-6.8,1.1c-0.3,0.1-0.6,0.1-0.9,0.2
	c-2.2,0.4-4.5,0.8-6.7,1.2c-0.2,0-0.4,0.1-0.6,0.1c-4.6,0.9-9.2,1.9-13.8,3c-0.2,0-0.3,0.1-0.5,0.1c-2.3,0.5-4.5,1.1-6.8,1.7
	c-0.2,0-0.3,0.1-0.5,0.1c-7,1.8-13.9,3.9-20.7,6.1c-0.1,0-0.2,0-0.2,0.1c-63.3,21-118.6,59.6-160.1,110l0,0
	c-0.1,0.2-0.3,0.3-0.4,0.5c-1.2,1.5-2.4,3-3.6,4.5c-0.2,0.3-0.5,0.6-0.7,0.9c-1.2,1.6-2.5,3.2-3.7,4.8c-0.3,0.4-0.6,0.8-0.9,1.2
	c-1.2,1.6-2.4,3.2-3.6,4.8c-0.3,0.4-0.5,0.7-0.8,1.1c-1.1,1.6-2.2,3.1-3.3,4.7c-0.1,0.2-0.3,0.4-0.4,0.6c-1.2,1.7-2.3,3.4-3.4,5
	c-0.3,0.4-0.6,0.8-0.8,1.3c-1.1,1.7-2.2,3.3-3.2,5c-0.3,0.4-0.6,0.9-0.8,1.3c-1.1,1.7-2.2,3.4-3.2,5.2c-0.2,0.3-0.3,0.6-0.5,0.8
	c-1,1.6-1.9,3.2-2.9,4.9c-0.2,0.4-0.4,0.7-0.6,1.1c-1,1.7-2,3.5-3,5.3c-0.2,0.4-0.5,0.9-0.7,1.3c-1,1.8-1.9,3.6-2.9,5.3
	c-0.2,0.4-0.4,0.7-0.6,1.1c-0.9,1.7-1.8,3.5-2.7,5.2c-0.1,0.2-0.2,0.4-0.3,0.7c-0.9,1.9-1.8,3.8-2.7,5.6c-0.2,0.4-0.4,0.8-0.6,1.2
	c-0.9,1.9-1.7,3.7-2.6,5.6c-0.2,0.4-0.4,0.8-0.5,1.2c-0.9,1.9-1.7,3.9-2.5,5.9c-0.1,0.1-0.1,0.3-0.2,0.4c-0.8,1.9-1.6,3.8-2.4,5.8
	c-0.1,0.3-0.3,0.6-0.4,1c-0.8,2-1.5,3.9-2.3,5.9c-0.1,0.4-0.3,0.8-0.4,1.2c-0.7,2-1.5,4-2.2,6c-0.1,0.3-0.2,0.5-0.3,0.8
	c-0.7,2-1.4,4.1-2.1,6.1c-0.1,0.2-0.1,0.3-0.2,0.5c-0.7,2.1-1.3,4.2-2,6.3c-0.1,0.3-0.2,0.7-0.3,1c-0.6,2.1-1.2,4.2-1.8,6.3
	c-0.1,0.3-0.2,0.6-0.3,0.9c-1.2,4.4-2.4,8.8-3.4,13.3c-0.1,0.3-0.1,0.5-0.2,0.8c-0.5,2.2-1,4.3-1.5,6.5c-0.1,0.3-0.1,0.6-0.2,1
	c-0.5,2.2-0.9,4.4-1.3,6.7c0,0.1-0.1,0.3-0.1,0.4c-0.4,2.3-0.8,4.5-1.2,6.8c0,0.1,0,0.3-0.1,0.4c-0.4,2.3-0.7,4.5-1.1,6.8
	c0,0.3-0.1,0.6-0.1,0.9c-0.3,2.2-0.6,4.5-0.9,6.7c0,0.3-0.1,0.5-0.1,0.8c-0.6,4.7-1,9.4-1.4,14.1c0,0.3,0,0.6-0.1,0.8
	c-0.2,2.3-0.3,4.6-0.5,6.9c0,0.3,0,0.6-0.1,1c-0.1,2.3-0.2,4.7-0.3,7c0,0.1,0,0.2,0,0.3c-0.1,2.3-0.1,4.7-0.2,7.1c0,0.1,0,0.3,0,0.4
	l0,0c0,1.8,0,3.5,0,5.3c0,83.7,29.4,160.6,78.5,220.8c0.1,0.1,0.1,0.2,0.2,0.2c2.8,3.4,5.6,6.7,8.5,10c0.1,0.1,0.1,0.2,0.2,0.3
	c1.4,1.6,2.9,3.2,4.3,4.8c0.1,0.1,0.2,0.2,0.3,0.3c2.9,3.2,5.8,6.3,8.9,9.3c0.2,0.2,0.4,0.4,0.5,0.5c1.5,1.5,3,3,4.5,4.5
	c0,0,0.1,0,0.1,0.1c1.5,1.5,3,2.9,4.5,4.3c0.2,0.2,0.3,0.3,0.5,0.5c1.5,1.4,3,2.8,4.6,4.2c0.2,0.2,0.4,0.4,0.6,0.6
	c3.1,2.8,6.2,5.5,9.4,8.2c0.3,0.2,0.5,0.4,0.8,0.6c1.6,1.3,3.2,2.6,4.8,3.9c0.1,0.1,0.3,0.2,0.4,0.3c1.5,1.2,3.1,2.5,4.7,3.7
	c0.2,0.2,0.4,0.3,0.6,0.5c1.6,1.2,3.2,2.5,4.9,3.7c0.3,0.2,0.5,0.4,0.8,0.6c3.3,2.5,6.7,4.9,10.1,7.2c0.3,0.2,0.5,0.4,0.8,0.6
	c1.7,1.2,3.4,2.3,5.1,3.4c0.2,0.1,0.3,0.2,0.5,0.3c1.7,1.1,3.4,2.2,5.1,3.3c0.2,0.1,0.3,0.2,0.5,0.3c1.8,1.1,3.5,2.2,5.3,3.3
	c0.2,0.1,0.5,0.3,0.7,0.4c3.6,2.2,7.3,4.3,11,6.3c0.2,0.1,0.4,0.2,0.6,0.3c1.9,1,3.7,2,5.6,3c0.1,0.1,0.2,0.1,0.3,0.2
	c1.9,1,3.9,2,5.8,3c0,0,0,0,0,0c2,1,3.9,1.9,5.9,2.9c0.2,0.1,0.3,0.1,0.5,0.2c4,1.9,8,3.7,12.1,5.5c0.1,0,0.1,0.1,0.2,0.1
	c6.3,2.7,12.6,5.2,19.1,7.5c0,0,0,0,0,0c37,13.3,76.9,20.5,118.4,20.5c193.3,0,350-156.7,350-350C750,374.9,747.4,350.4,742.3,326.9
	z M408.6,129.4l86-49.6c70.6,20.8,131.4,64.3,174.1,122L657.4,299l-94.9,48.3L408.6,221.5V129.4z M400.5,285.1l37,89.3l19.1-47.7
	L516,455.9c3.9,8.6-2.3,18.3-11.7,18.3H296.8c-9.4,0-15.7-9.8-11.7-18.3l59.4-129.2l19.1,47.7L400.5,285.1z M302.4,80.7l90.1,49
	v91.8L238.5,347.3L143.6,299l-11.4-98.4C174.2,144.3,233.6,101.7,302.4,80.7z M229.9,614.2l-92.1-7.6C92.9,549.8,66.2,478,66.2,400
	c0-6.9,0.2-13.8,0.6-20.6l71.5-65l96.2,49l47.4,176L229.9,614.2z M521.6,711c-37.7,14.7-78.7,22.9-121.6,22.9
	c-42.5,0-83.1-7.9-120.4-22.4l-36.7-87.6l51.6-74.2h211.9l51.6,74.2L521.6,711z M662.1,606.7l-91,7.5l-52-74.8l47.4-176l96.2-49
	l70.5,64c0.5,7.1,0.7,14.3,0.7,21.5C733.8,478.1,707,549.9,662.1,606.7z"/>
</svg>
