<!-- Created by @FCLOGO 2022-03-31 10:25:40 . https://fclogo.top/ -->
<!-- FOR PERSONAL USE ONLY NOT FOR COMMERCIAL USE -->
<svg version="1.1" xmlns="http://www.w3.org/2000/svg" xmlns:xlink="http://www.w3.org/1999/xlink" x="0px" y="0px"
	 viewBox="0 0 800 800" enable-background="new 0 0 800 800" xml:space="preserve">
<g>
	<circle cx="395.3" cy="400" r="324.4"/>
	<circle fill="#DF117B" cx="395.3" cy="400" r="318.3"/>
	<circle cx="395.3" cy="400" r="244.2"/>
	<circle fill="#007D38" cx="395.3" cy="400" r="237.5"/>
</g>
<g>
	<path fill="#FFFFFF" d="M567.6,524.3c-48.4,0-76.7-6.5-77-6.5h-0.1h-0.1c-14.7,0-26.2-4.2-34.2-12.5
		c-16.2-16.7-15.2-46.8-14.6-64.8c0.1-3.1,0.2-5.7,0.2-8c0-32.3,20.8-55.4,60-66.7c10.6-1.9,20.8-2.8,30.4-2.8
		c25,0,41.2,6.4,50.4,11.7c21.7,12.5,30.5,24.2,40.6,39.4c2.7,4.1,12.8,20.8,14,27.2l1.1,5.6c1.8,9.8,3.7,17.9,7.1,17.9
		c0.1,0,0.2,0,0.2,0c2.4-0.3,7.2-1,7.3-20.2c0-5.6-3.3-12.8-8.7-15.1c-6.3-2.6-14.9-10.7-14.1-16.7c0.7-5,3.8-8.6,8.4-10
		c1.3-0.4,2.7-0.5,4.2-0.5c8.4,0,18.7,6,26.2,15.3c10.8,13.4,13.5,19.7,15.1,24.5l0.4,1.1l0.5-1c0.5-0.9,1.3-2.7,1.3-5.5
		c0.2-10.2,0.4-21.6-12.6-31c-4.8-3.4-6.5-10.7-3.9-16.3c2.4-5.1,7.5-7.9,14.4-7.9c2.3,0,4.9,0.3,7.5,1
		c14.4,3.4,21.9,10.6,25.1,23.8c2,8.5,1.3,18.9,0.8,26.5l-0.1,0.9c-0.2,3.2-0.3,6.2-0.3,8.9c0,2.9,0.6,4.9,1.7,5.8
		c0.8,0.7,1.9,0.8,2.7,0.8c0.4,0,0.9,0,1.3-0.1h0.1h0.1c0.6-0.3,1.7-1.9,2.6-9.5c0.6-5.6,3.7-9.9,8.3-11.6c1.2-0.4,2.4-0.6,3.7-0.6
		c2.7,0,5.3,1,7.2,2.9c7.9,7.4,4.1,27.7,1,36.4c-2.1,5.9-8.3,13.6-10.3,16.2c-2,2.1-61.9,35.7-128.6,40.2
		C593.6,523.8,580.4,524.3,567.6,524.3z"/>
	<g>
		<path fill="#F58E00" d="M532.3,369.6c23.5,0,38.5,5.9,47,10.8c20.4,11.8,28.5,22.4,38.4,37.3c4,6.1,12.2,20.4,13,24.8l0.6,3.2
			l0.3,1.6l0.1,0.8c2.3,12,4.4,23.4,13.7,23.4c0.3,0,0.7,0,1-0.1c0.1,0,0.1,0,0.2,0c11.5-1.6,13.1-14.4,13.1-26.9
			c0-7.9-4.4-17.8-12.9-21.3c-4.8-2-9.8-7.5-10-9.6c0.3-2.3,1.5-3.8,3.6-4.4c0.7-0.2,1.5-0.3,2.3-0.3c5.3,0,13.9,3.9,21,12.8
			c10.1,12.5,12.5,18.2,14,22.5c0.9,2.7,3.4,4.6,6.2,4.9c0.2,0,0.4,0,0.6,0c2.6,0,5.1-1.4,6.4-3.8c1-1.7,2.1-4.7,2.1-8.8l0,0
			c0.2-10.6,0.5-25-15.4-36.5c-2.2-1.6-3-5.3-1.8-8c1.2-2.6,4-4,8.3-4c1.8,0,3.8,0.3,5.9,0.8c11.9,2.8,17.5,8.1,20.1,18.9
			c1.8,7.5,1.1,17.3,0.6,24.5v0.1l-0.1,0.9c-0.2,3.3-0.4,6.4-0.4,9.3c0,5.1,1.3,8.7,4.1,10.9c1.9,1.6,4.3,2.4,7,2.4
			c0.8,0,1.7-0.1,2.5-0.2c0.7-0.1,1.3-0.3,1.9-0.6c3.6-1.8,5.2-5.7,6.3-14.8c0,0,0,0,0-0.1c0.3-2.9,1.7-5.1,3.8-5.9
			c0.5-0.2,1-0.2,1.4-0.2c1,0,1.8,0.3,2.5,1l0.1,0.1c4,3.7,2.8,19-0.8,29.1c-1.5,4.1-5.3,10.1-8.8,13.7
			c-30.6,31.9-55.4,33.6-115.3,37.5c-2.9,0.2-5.9,0.4-9,0.6c-13.1,0.9-26.1,1.3-38.8,1.3c-47.4,0-75.2-6.3-75.4-6.4
			c-0.5-0.1-1.1-0.2-1.6-0.2c-13,0-22.6-3.4-29.4-10.4c-14.2-14.7-13.3-43-12.8-59.9c0.1-3,0.2-5.8,0.2-8.2
			c0-29.3,18.4-49.5,54.8-60.1C513.5,370.5,523.2,369.6,532.3,369.6 M532.3,362.3c-9,0-19.2,0.8-30.5,2.8
			c-55.7,16.1-60.4,50.8-60.4,67.2c0,22.7-8.5,85.8,49.2,85.8c0,0,28.1,6.5,77.1,6.5c11.9,0,25-0.4,39.2-1.3
			c67.1-4.5,94.8-4.7,129-40.3c4-4.2,8.5-11,10.4-16.3c3-8.4,7.1-29.3-1.1-36.9c-2.1-2-4.8-3-7.6-3c-1.3,0-2.6,0.2-3.8,0.6
			c-4.7,1.7-8,6.2-8.6,12c-0.9,8-2.1,9-2.3,9.1c-0.4,0.1-0.8,0.1-1.2,0.1c-0.9,0-1.8-0.2-2.4-0.7c-1-0.8-1.5-2.7-1.5-5.4
			c0-2.9,0.2-6.2,0.4-9.8c0.6-8.6,1.2-18.4-0.8-26.7c-3.3-13.4-10.9-20.7-25.5-24.2c-2.7-0.7-5.3-1-7.6-1c-7.1,0-12.4,2.9-14.9,8.2
			c-2.7,5.8-0.9,13.3,4.1,16.9c12.8,9.2,12.6,20.5,12.4,30.5v0.1c0,2.4-0.6,4.2-1.2,5.3c-1.7-5-4.4-11.3-15.2-24.7
			c-7.7-9.6-18.1-15.5-26.6-15.5c-1.5,0-2.9,0.2-4.3,0.6c-4.9,1.4-8.1,5.2-8.8,10.4c-0.9,6.4,8.1,14.6,14.4,17.2
			c5.3,2.2,8.4,9.2,8.4,14.6c-0.1,18.9-4.7,19.4-6.9,19.7c-0.1,0-0.1,0-0.2,0c-3.4,0-5.3-11-6.7-18.3c-0.3-1.6-0.6-3.2-0.9-4.8
			c-1.3-6.6-11.4-23.3-14.1-27.4c-10.1-15.2-18.9-27-40.8-39.6C574,368.9,557.7,362.3,532.3,362.3L532.3,362.3z"/>
		<g>
			<path fill="#F58E00" d="M609,502c-0.9-50.8-20.9-77.6-37.5-91.1c-21.1-17.3-53.3-19.8-101.4-7.9l-1.7-7
				c50.5-12.5,84.7-9.6,107.8,9.3c17.8,14.5,39.2,43,40.2,96.6L609,502z"/>
		</g>
		<g>
			<path fill="#F58E00" d="M585.2,497.9c-2.3-34.5-16.3-52.7-27.6-62c-12.1-9.9-37.6-20.2-90.1-13.2l-1-7.2
				c55.1-7.3,82.4,4,95.6,14.8c12.5,10.1,27.8,30,30.3,67.1L585.2,497.9z"/>
		</g>
		<g>
			<path fill="#F58E00" d="M560.4,498.3c-6.4-34.5-23.7-54.4-93.2-54.4c-0.1,0-0.1,0-0.2,0v-7.3c0.1,0,0.1,0,0.2,0
				c34.3,0,57.6,4.7,73.3,14.9c14.6,9.5,23,23.5,27,45.4L560.4,498.3z"/>
		</g>
		<g>
			<path fill="#F58E00" d="M523.8,497.9c-1-17.7-32.2-21.8-55.7-23.3l0.5-7.2c28.4,1.8,61.1,6.9,62.4,30.1L523.8,497.9z"/>
		</g>
	</g>
</g>
<g>
	<circle fill-rule="evenodd" clip-rule="evenodd" cx="398.3" cy="409.2" r="113.2"/>
	<circle fill-rule="evenodd" clip-rule="evenodd" fill="#FFFFFF" cx="398.3" cy="409.2" r="106.9"/>
	<path fill-rule="evenodd" clip-rule="evenodd" d="M315.2,377.2h-7.9c0,0-1.6,37.7-11.6,44.3l13.8,37.5c0,0,16.7-15,40.4-7.1
		l1.6-17.3C351.6,434.7,315.6,418.8,315.2,377.2L315.2,377.2z M316.2,367.7c17.7-43.6,51.4-44.1,51.4-44.1l1.8-9.4l-18.3-3.3
		c-24.4,11.2-46.5,41-46.5,41l1.2,19.3L316.2,367.7L316.2,367.7z M435.7,348.5l14.9-2.8c0,0-7.9-23.4-2.8-35.6c0,0-21-9.2-39.8-8.9
		c0,0-9.2,10.6-30.3,10.6l-0.6,10C377.1,321.9,410.1,317.4,435.7,348.5L435.7,348.5L435.7,348.5z M502.1,399.3l-5.5,22.2
		c0,0,7.7,4.9,7.7,15.5l4.5-35L502.1,399.3L502.1,399.3z M453.8,355.1l-14,2.2c0,0,9.4,40.8-13.8,61.5l6.7,9.8
		c0,0,24.8-17.7,56.3-10.4l5.5-20.1C494.7,398.1,460.9,375.6,453.8,355.1L453.8,355.1L453.8,355.1z M419.5,425.8
		c0,0-23.6,19.5-58.5,13.4l-1,15.5c0,0,29.3,7.7,41.4,40.6l12.6-5.5c0,0-9.2-31.9,10.4-52.8L419.5,425.8z"/>
</g>
<g>
	<path fill="#FFFFFF" d="M334.5,490.1c3.1-21.8-0.6-43.4-7.5-58.6c-20.4-45-66.7-67.2-101.9-65.9c-28.4,1.1-49.2,11.8-67.1,22.7
		c-0.2,3.9-0.3,7.8-0.3,11.8c0,31.9,6.3,62.3,17.7,90.1h159.1V490.1z"/>
	<path fill="#F58E00" d="M334.5,490.1h-7.1c3.1-20.7-0.3-41.3-6.8-55.7c-19.1-42.2-62.3-63-95.2-61.7c-28.7,1.1-49.5,12.8-67.7,24.1
		c0-2.8,0.1-5.6,0.3-8.4c18-10.9,38.7-21.6,67.1-22.7c35.2-1.4,81.5,20.8,101.9,65.9C333.9,446.7,337.6,468.3,334.5,490.1z"/>
	<path fill="#F58E00" d="M307.7,490.1h-7c-1.2-26.2-10.9-48.1-28.4-63.7c-14.7-13.2-35.1-21.7-54.3-22.9c-22-1.3-42.1,8.4-59.1,19.5
		c-0.3-2.6-0.5-5.3-0.6-7.9c17.2-10.7,37.8-20,60.2-18.6c20.8,1.3,42.7,10.5,58.6,24.7C290.6,433.3,306.2,454.8,307.7,490.1z"/>
	<path fill="#F58E00" d="M286.2,490.1h-7c-4.9-40-31.9-53.5-48.6-58.1c-24.9-6.8-53.3-1.3-68.8,12.1c-0.5-2.6-0.9-5.2-1.3-7.8
		c17.8-12.9,46.7-18,72-11.1C263.2,433.6,282.3,456.9,286.2,490.1z"/>
	<path fill="#F58E00" d="M254.9,490.1h-7.4c-7.2-16.9-21.2-29.1-32.5-32.9c-17.5-5.8-36.5-1.5-49.5,3.2c-0.6-2.3-1.2-4.5-1.7-6.8
		l0,0c14-4.9,34.4-9.3,53.4-3C232.2,455.5,247.7,470.9,254.9,490.1z"/>
	<path fill="#F58E00" d="M223.3,490.1h-8.8c-6.9-8.1-16.4-12.9-28.3-14.5c-5.9-0.8-11.6-0.6-16.2-0.1c-0.8-2.2-1.5-4.5-2.2-6.8
		C182.4,467,208.1,467.6,223.3,490.1z"/>
</g>
<g>
	<g>
		<rect x="50" y="490.1" width="686.4" height="162.8"/>
		<rect x="59.2" y="499.2" fill="#007D38" width="668.1" height="144.5"/>
	</g>
	<g>
		<path fill="#FFFFFF" d="M147.4,546v70.8h20.7h9.4c7.5,0,11.2-3.5,11.2-10.4V546h-20.6H147.4L147.4,546z M172.9,600.8
			c0,2.6-1.2,3.5-3.3,3.3H168h-5.7v-45.5h5.7h4.9V600.8L172.9,600.8z"/>
		<path fill="#FFFFFF" d="M144.2,527.1v13.4H168h27.1v64.1c0,3.1-1.2,4.5-3.7,4.1h-2.2v12.2h10c7.5,0,11.2-3.9,11.2-12.2v-68.2h4.1
			v-13.4h-46.6L144.2,527.1L144.2,527.1z"/>
		<path fill="#FFFFFF" d="M132,567.2l-2.7-9.6H111l4.1,17.7c1.2,5.9,4.3,8.5,9,7.9h18.7V571h-6.2C134.4,571.3,132.8,570.2,132,567.2
			z"/>
		<path fill="#FFFFFF" d="M132.4,536.7l-2.4-11h-18.4l3.9,20.3c0.6,5.3,3.9,7.7,9.6,7.1h17.7v-13h-6.2
			C134,540.3,132.6,539.1,132.4,536.7z"/>
		<path fill="#FFFFFF" d="M119.6,606.8c-0.8,2-2.2,2.8-4.1,2.6h-5.3v11.2h13.6c6.7,0.2,10.4-2.2,11.4-7.5l7.3-25.2h-17.3
			L119.6,606.8z"/>
		<path fill="#FFFFFF" d="M330.7,527.1v-4.3h-8.5h-8.5v4.3h-12.1h-31.3v12h31.3h12.2v6.9h-12.2h-28.7v73.4h16.5v-19.9h12.2h12.2
			v19.9h8.5h8.5v-19.9H343h12.4v5.5c0.2,2.4-0.8,3.1-3.3,2.6h-9h-3.5v11.8h3.5H358c9.8,0.6,14.4-3.1,13.8-11v-62.3h-28.7h-12.2v-6.9
			h12.2H374v-12h-30.9L330.7,527.1L330.7,527.1z M313.8,586.9h-12.2h-12.2v-7.5h12.2h12.2V586.9z M355.3,586.9h-12.4h-12.2v-7.5
			h12.2h12.4V586.9z M342.9,558h12.4v10.2h-11l5.1-7.3h-6.5h-11.8l-5.5,7.3h-3.3H319l-5.5-7.7h-11.9h-5.9l4.9,7.7h-11.2V558h12.2
			h20.7H342.9z"/>
		<path fill="#FFFFFF" d="M525.1,526.5h-24.6H495v-3.7h-5.5h-12.2v4.3h-26v11.2h26.4v4.7h-27.1v11.6h27.1v4.3h-26.4v11.7h26.4v4.7
			h-26.4v10.4h26.4v5.1h-26.4v10.4h26.4v3.7h11.8h6.5v-3.7h4.5h26.8v-10.4h-26.8h-4.1v-5.1h4.1h26.8v-10.4h-26.8h-4.1v-4.7h4.1h11.4
			c9,0.4,13.6-3.3,13.6-10.8v-5.5h4.1v-11.2h-4.5V526.5z M496,537.9h4.5h4.5v5.1h-4.5H496V537.9z M505.4,557.2c-0.2,1.4-1,2-2.2,1.8
			h-2.8h-5.1v-4.4h5.1h4.9L505.4,557.2z"/>
		<path fill="#FFFFFF" d="M489.5,607.1H460c-8.5-0.8-13.4-3.1-14.9-7.1v-23.2c-0.4-2.2-1.4-4.3-3.2-6.3c-0.6-0.8-1-1.4-1-2l1-1.4
			c2-2,3.2-4.3,3.2-7.5v-37.4h-18.3V534h4.1v26c0,1.2-0.6,1.8-1.8,2.2h-0.4h-2v12.6h2c1.2,0.2,2,1.2,2.2,2.9v25.6
			c-0.2,2.4-1.2,3.7-2.8,3.7h-2.2v10.8h9c1.6,0,3.7-0.8,6.3-2.5c1-0.4,1.8-0.8,2.4-0.8c0.6,0,1.6,0.4,3.1,1.4c2.4,1.4,4.5,2,6.3,2
			h36.4h11h28.1v-10.8h-28.1L489.5,607.1L489.5,607.1z"/>
		<path fill="#FFFFFF" d="M674.9,593.8c4.9-0.4,7.9-4.1,8.7-11.4l4.1-53.7h-12.8h-1.8l-3.7,49.2c-0.6,2.4-1.6,3.6-3.1,3.3h-4.2v12.6
			h11C673.7,593.8,674.3,593.8,674.9,593.8z"/>
		<polygon fill="#FFFFFF" points="656.8,606.4 656.8,524.1 640.9,524.1 640.9,606.4 631.8,606.4 631.8,524.1 615.9,524.1 
			615.9,606.4 598.4,606.4 586.8,606.4 586.8,619.3 598.4,619.3 674.9,619.3 687.7,619.3 687.7,606.4 674.9,606.4 		"/>
		<path fill="#FFFFFF" d="M598.4,594.2h0.2H610v-12.6h-3.1c-2.2,0.6-3.2-0.8-2.8-4.3l-2.8-48.2h-3h-11.6l3.1,52.9
			C590,590.4,592.7,594.6,598.4,594.2z"/>
	</g>
</g>
<g>
	<path fill-rule="evenodd" clip-rule="evenodd" fill="#FFFFFF" d="M331.9,213.2c-1.8,1.6-4.6,2.8-8.1,3.8v7.8
		c2.5-0.6,4.4-1.4,5.8-2.2c1.6-0.6,3.2-1.6,4.8-3v23.2h10v-35.4h-8.3C335.4,209.9,333.7,211.7,331.9,213.2z"/>
	<path fill-rule="evenodd" clip-rule="evenodd" fill="#FFFFFF" d="M376.8,209.5c-2-1.2-4.7-1.8-7.9-2c-0.2,0-0.4,0-0.6,0
		c-3,0-5.3,0.6-7.3,1.6s-3.5,2.4-4.5,4.2c-1.2,2-1.8,4-1.8,6.4c0,3.2,1.2,6.2,3.3,8.4c2.2,2.4,4.7,3.2,7.9,3.2c1,0,2,0,3-0.2
		c0.4-0.2,1-0.4,1.4-0.6c1.2-0.6,2.4-1.4,3.5-2.6c-0.2,3.6-0.8,6-1.4,7.2c-0.8,1.6-2.2,2.6-3.5,2.6h-0.2c-0.8,0-1.6-0.4-2.2-1
		c-0.6-0.6-1-1.4-1.2-2.8l-9.8,1.2c0.6,1.8,1.4,3.2,2.6,4.6c1,1.2,2.4,2.2,3.9,2.8c1.6,0.8,3.9,1,6.7,1c0,0,0,0,0.2,0
		c4.5,0,8.3-1.6,11-4.2c2.6-3,3.9-7.6,3.9-14c0-4.2-0.6-7.6-2-10.2C380.7,212.6,378.9,210.7,376.8,209.5z M372.3,224
		c-1,1-2.2,1.4-3.3,1.6c-0.2,0-0.2,0-0.2,0c-1.4,0-2.4-0.6-3.3-1.6c-0.8-1.2-1.2-2.6-1.2-4.6s0.4-3.2,1.2-4.2s2-1.4,3.1-1.4
		c0.2,0,0.2,0,0.4,0c1.2,0,2.4,0.6,3.1,1.6c1,1,1.6,2.6,1.6,4.4C373.6,221.5,373,223.1,372.3,224z"/>
	<path fill-rule="evenodd" clip-rule="evenodd" fill="#FFFFFF" d="M409.3,209.5c-2.2-1.2-4.5-1.8-7.9-2c-0.2,0-0.4,0-0.6,0
		c-2.9,0-5.3,0.6-7.3,1.6s-3.5,2.4-4.5,4.2c-1.2,2-1.8,4-1.8,6.4c0,3.2,1.2,6.2,3.3,8.4c2.2,2.4,4.9,3.2,8.1,3.2c1,0,1.8,0,2.8-0.2
		c0.6-0.2,1-0.4,1.4-0.6c1.4-0.6,2.3-1.4,3.5-2.6c-0.4,3.6-0.8,6-1.4,7.2c-0.8,1.6-2,2.6-3.5,2.6l0,0c-1,0-1.6-0.4-2.3-1
		c-0.6-0.6-1-1.4-1.2-2.8l-9.8,1.2c0.6,1.8,1.4,3.2,2.6,4.6c1,1.2,2.4,2.2,3.9,2.8c1.8,0.8,3.9,1,6.7,1h0.2c4.5,0,8.1-1.6,10.8-4.2
		c2.6-3,3.9-7.6,3.9-14c0-4.2-0.6-7.6-1.8-10.2C413.1,212.6,411.3,210.7,409.3,209.5z M404.9,224c-1,1-2,1.4-3.3,1.6
		c-1.4,0-2.6-0.6-3.3-1.6c-1-1.2-1.4-2.6-1.4-4.6s0.4-3.2,1.2-4.2c1-1,2-1.4,3.3-1.4h0.2c1.2,0,2.4,0.6,3.3,1.6
		c0.6,1,1.2,2.6,1.2,4.4C406.1,221.5,405.7,223.1,404.9,224z"/>
	<path fill-rule="evenodd" clip-rule="evenodd" fill="#FFFFFF" d="M445.4,229.1v-21.4h-8.5l-4.7,5.6l-13.1,15.2v8h13.2h4.7v6.6h8.5
		v-6.6h4.5v-7.4L445.4,229.1L445.4,229.1z M437,229.1h-4.7h-4.7l4.7-5.6l4.7-5.4V229.1z"/>
</g>
<g>
	<path fill="#FFFFFF" d="M140.4,463.1l1.4,6.7l-31.5,6.9l-1.4-6.7l12.5-2.7l-2.6-12l-12.5,2.7l-1.5-6.8l31.5-6.9l1.4,6.7l-13.8,3
		l2.6,12.1L140.4,463.1z"/>
	<path fill="#FFFFFF" d="M135.7,439.6l-32.1,3.4l-2.3-21.5l5.4-0.6l1.5,14.6l7.5-0.8l-1.4-13.5l5.4-0.6l1.4,13.5l8.5-0.9l-1.6-15.1
		l5.4-0.6L135.7,439.6z"/>
	<path fill="#FFFFFF" d="M133.2,383.9l-0.2,9.9L105.9,406l0.2,0.2l26.7,0.4l-0.1,6.5l-32.3-0.5l0.2-10.2l25.7-11.8l-0.2-0.2
		l-25.3-0.4l0.1-6.5L133.2,383.9z"/>
	<path fill="#FFFFFF" d="M134,375l-0.8,6.6L102.7,366l1-8.1l33.5-7.2l-0.9,6.9l-7.1,1.5l-1.6,12.7L134,375z M122.4,369.3l1.2-9.1
		l-14.2,2.5v0.2L122.4,369.3z"/>
	<path fill="#FFFFFF" d="M144.8,320.1l-2.4,9.6l-29.1,5.6l0.1,0.2l25.9,6.6l-1.6,6.3l-31.2-8l2.5-9.9l27.7-5.6l-0.1-0.2l-24.5-6.3
		l1.6-6.3L144.8,320.1z"/>
	<path fill="#FFFFFF" d="M140.8,272l-2.9,6.7c-3.8-1.4-6.4-0.3-8.1,3.2c-1.3,3.7,1.4,7.1,8.4,10.3c7,2.8,11.4,2.5,13.2-0.9
		c1.5-3.8,0.5-6.5-3-8.2l2.9-6.7c6.4,3.1,7.8,8.8,4.5,16.8c-3.8,7.9-10.5,9.8-20.4,5.7c-9.8-4.8-13.2-11.1-10-19.1
		C128.8,272.1,133.9,269.5,140.8,272z"/>
	<path fill="#FFFFFF" d="M170,265.6c-5.4,8.6-12.7,10.2-22,5.1c-9.3-5.9-11.6-13.2-6.7-22c5.2-8.4,12.7-9.9,22.4-4.7
		C172.6,249.9,174.7,257,170,265.6z M145.5,251.3c-2.7,4.7-0.7,9,6.1,13.1c6.7,4,11.5,3.6,14.2-1.1c2.7-4.6,0.7-8.9-6-12.9
		C153,246.4,148.2,246.7,145.5,251.3z"/>
	<path fill="#FFFFFF" d="M197.5,225.9l-6.1,7.8l-28.9-6.5v0.2l21.1,16.3l-4,5.1l-25.5-19.8l6.3-8.1l27.6,6v-0.2L168,211.3l4-5.1
		L197.5,225.9z"/>
	<path fill="#FFFFFF" d="M201.1,189.3l-4.7,4.8c-2.4-2.2-4.8-2.1-7.2,0.3c-2.2,2.5-2.4,4.8-0.7,6.7c1.5,1.4,3.8,1.3,6.7-0.5
		c0.3-0.2,0.6-0.3,0.7-0.5c0.1-0.1,0.3-0.2,0.7-0.5c6.4-4.4,11.1-4.9,14.2-1.7c4.8,4.8,4,10.5-2.2,17.1c-5.9,6-11.3,6.4-16.2,1.4
		l4.9-5c2.6,2.6,5.4,2.7,8,0.3c2.8-3,3.3-5.6,1.5-7.5c-1.6-1.5-4.1-1.1-7.5,1.2c-0.5,0.3-0.8,0.5-1.1,0.6c-6.1,4-10.8,4.4-13.8,1.3
		c-4.5-4.9-3.9-10.5,1.8-17C191.5,185.5,196.3,185.2,201.1,189.3z"/>
	<path fill="#FFFFFF" d="M202.2,183l-3.4-4.2l20.2-16.6l3.4,4.2l-7.4,6.1l17.1,20.7l-5.4,4.5l-17.1-20.7L202.2,183z"/>
	<path fill="#FFFFFF" d="M240.1,171.1l7.1,10.8l-5.8,3.9l-17.9-26.9l11.5-7.6c6.2-4,10.9-3.7,13.9,0.8c2.2,3.6,1.8,7-1.2,10.2
		l0.1,0.1c2.8-1.4,5.7-0.5,8.7,2.7c0.3,0.3,0.6,0.6,0.7,0.8c2.4,3,4.4,4.8,5.7,5.5l-6.3,4.2c-2.1-1.9-4.1-4.2-5.9-6.6
		c-1.7-2.2-3.3-2.8-4.8-1.8L240.1,171.1z M232.4,159.5l4.8,7.1l4.8-3.1c2.7-1.8,3.2-4,1.5-6.5c-1.5-2.3-3.7-2.5-6.3-0.6L232.4,159.5
		z"/>
	<path fill="#FFFFFF" d="M270.4,131.2l6.2-3.1l9.1,18.1c3.3,7.3,1,13.1-6.9,17.3c-8.3,4-14.4,2.3-18.2-4.7l-9.1-18.1l6.2-3.1
		l7.9,15.7c2.7,6.5,6.5,8.5,11.1,6c4.7-2.1,5.2-6.2,1.6-12.4L270.4,131.2z"/>
	<path fill="#FFFFFF" d="M312.9,125.5l-6.9,2.5c-1.6-3.7-4.3-4.9-8-3.6c-3.6,1.5-4.1,6-1.6,13.2c2.8,7,6.1,9.9,9.7,8.9
		c3.8-1.5,5.1-4.2,3.9-7.9l6.9-2.5c2.1,6.8-0.9,11.8-9.1,14.8c-8.3,2.7-14.4-0.8-18.3-10.9c-3.4-10.3-1.1-17.2,6.8-20.5
		C304.4,116.9,309.9,118.8,312.9,125.5z"/>
	<path fill="#FFFFFF" d="M314.6,119.7l-1.3-5.3l25.4-6.3l1.3,5.3l-9.3,2.3l6.5,26.1l-6.8,1.7l-6.5-26.1L314.6,119.7z"/>
	<path fill="#FFFFFF" d="M350.6,106.2l5.5,31.7l-6.8,1.3l-5.5-31.7L350.6,106.2z"/>
	<path fill="#FFFFFF" d="M375.4,136.1c-10.1,0.6-15.7-4.4-16.8-15c-0.6-11.1,4.1-17.1,14-18.2c9.8-0.6,15.4,4.6,16.7,15.5
		C389.9,129.2,385.2,135.1,375.4,136.1z M373,108c-5.5,0.5-7.8,4.7-7.2,12.5c0.7,7.8,3.8,11.5,9.1,11c5.4-0.4,7.7-4.6,7-12.4
		C381.3,111.2,378.3,107.5,373,108z"/>
	<path fill="#FFFFFF" d="M423.7,135.6l-9.9-0.4l-11.5-27.4l-0.2,0.2l-1.1,26.7l-6.5-0.3l1.3-32.3l10.2,0.4l11.2,26l0.2-0.2l1-25.3
		l6.5,0.3L423.7,135.6z"/>
	<path fill="#FFFFFF" d="M447.3,139.3l-6.7-1.3l6.2-31.6l20.4,4l-1,5.3l-13.7-2.7l-1.5,7.5l12.9,2.5l-1,5.3l-12.9-2.5L447.3,139.3z"
		/>
	<path fill="#FFFFFF" d="M477.7,147.2c-9.5-3.2-12.9-10-9.9-20.3c3.7-10.4,10.2-14.3,19.9-11.5c9.3,3.1,12.6,10.1,9.5,20.7
		C493.7,146.3,487.1,150,477.7,147.2z M486.1,120.3c-5.2-1.6-9,1.3-11.4,8.8c-2.3,7.4-0.9,12,4.4,13.6c5.1,1.6,8.8-1.3,11.2-8.7
		C492.6,126.4,491.2,121.9,486.1,120.3z"/>
	<path fill="#FFFFFF" d="M509,159.4c-9.1-4.5-11.5-11.6-7.2-21.4c5-9.8,12-12.9,21.2-8.8c8.9,4.4,11.2,11.7,6.9,21.8
		C525.1,160.5,518.2,163.4,509,159.4z M520.9,133.7c-5-2.3-9.1,0.2-12.4,7.3c-3.2,7.1-2.4,11.8,2.5,14c4.9,2.2,8.9-0.2,12.2-7.3
		C526.5,140.6,525.8,136,520.9,133.7z"/>
	<path fill="#FFFFFF" d="M538.5,143.4l2.8-4.7l22.3,13.6l-2.8,4.7l-8.2-5l-13.9,22.9l-6-3.7l13.9-22.9L538.5,143.4z"/>
	<path fill="#FFFFFF" d="M558.9,188.9l-9.7-7.4l19.6-25.7l9.7,7.4c5.9,4.5,7.3,9.1,4.3,13.7c-2.1,2.6-5.1,3.3-8.8,2l-0.1,0.1
		c3,3.8,3.2,7.4,0.6,11C570.8,194.1,565.8,193.7,558.9,188.9z M557.9,181.4l4.3,3.2c2.9,2.5,5.3,2.5,7,0c2-2.4,1.4-4.7-1.8-6.9
		l-4.3-3.2L557.9,181.4z M566.4,170.4l4.3,3.2c2.4,1.8,4.4,1.7,5.8-0.2c1.5-2,1.1-4-1.3-5.8l-4.3-3.2L566.4,170.4z"/>
	<path fill="#FFFFFF" d="M575,202l-4.8-4.6l30.7-15.2l5.9,5.7L592.7,219l-5.1-4.9l2.9-6.6l-9.2-8.8L575,202z M586.4,196.1l6.7,6.4
		l6.4-13l-0.1-0.1L586.4,196.1z"/>
	<path fill="#FFFFFF" d="M607.8,237.1l-13.5-15.8l24.5-20.9l4.4,5.2l-20.4,17.3l9,10.7L607.8,237.1z"/>
	<path fill="#FFFFFF" d="M621.7,256.8l-12-17l26.4-18.6l4,5.6l-22,15.4l8,11.4L621.7,256.8z"/>
	<path fill="#FFFFFF" d="M660.6,282.7l-3.3-6.5c3.4-2,4.3-4.8,2.6-8.3c-1.9-3.3-6.4-3.3-13.4-0.1c-6.6,3.7-9.2,7.2-7.7,10.8
		c1.9,3.6,4.7,4.6,8.3,2.8l3.3,6.5c-6.5,2.9-11.8,0.5-15.8-7.2c-3.8-7.9-0.9-14.3,8.5-19.4c9.9-4.7,16.9-3.1,21.2,4.4
		C668.2,273.3,667,279,660.6,282.7z"/>
	<path fill="#FFFFFF" d="M649.8,315.2l-7.5-19.4l30.1-11.7l2.4,6.4l-25.1,9.6l5.1,13L649.8,315.2z"/>
	<path fill="#FFFFFF" d="M687.6,330.5l1.8,6.8l-19.6,5.2c-7.8,1.7-13-1.7-15.5-10.3c-2.1-8.9,0.6-14.5,8.3-16.8l19.6-5.2l1.8,6.8
		l-17,4.5c-7,1.3-9.6,4.6-8.1,9.5c1.1,5,5,6.4,11.8,4.2L687.6,330.5z"/>
	<path fill="#FFFFFF" d="M660.9,362.9l-1.7-12.1l32-4.6l1.7,12.1c1,7.4-1.2,11.7-6.7,12.8c-3.3,0.4-5.9-1.2-7.7-4.8h-0.2
		c-0.5,4.8-2.9,7.5-7.3,8.2C665.8,375,662.4,371.2,660.9,362.9z M665.5,357l0.7,5.4c0.3,3.9,1.9,5.5,5,5c3.1-0.3,4.3-2.3,3.6-6.2
		l-0.7-5.4L665.5,357z M679.3,355.1l0.7,5.4c0.4,3,1.8,4.4,4.3,4c2.5-0.4,3.6-2,3.1-5.1l-0.7-5.4L679.3,355.1z"/>
</g>
<g>
</g>
<g>
</g>
<g>
</g>
<g>
</g>
<g>
</g>
<g>
</g>
<g>
</g>
<g>
</g>
<g>
</g>
<g>
</g>
<g>
</g>
</svg>
