<!-- Created by @FCLOGO 2022-01-03 22:50:35 . https://fclogo.top/ -->
<!-- FOR PERSONAL USE ONLY NOT FOR COMMERCIAL USE -->
<svg version="1.1" xmlns="http://www.w3.org/2000/svg" xmlns:xlink="http://www.w3.org/1999/xlink" x="0px" y="0px"
	 viewBox="0 0 800 800" enable-background="new 0 0 800 800" xml:space="preserve">
<g>
	<path d="M653.3,313.7c-4.5-83.4,41-170.6,41-170.6L611.6,50c0,0-104.3,0-211.6,0s-211.6,0-211.6,0l-82.7,93.1
		c0,0,45.4,87.2,41,170.6c-4.5,83.4-17.1,135.6-19.4,146.8c-2.2,11.2-10.4,53.6,4.5,94.6s41.7,70.8,74.5,87.7
		C239.1,659.6,390.6,731.1,400,750c9.4-18.9,160.9-90.4,193.7-107.3c32.8-16.9,59.6-46.7,74.5-87.7s6.7-83.4,4.5-94.6
		C670.4,449.3,657.8,397.1,653.3,313.7z"/>
	<path fill="#FFFFFF" d="M400,740c-18.6-16.7-75.2-46.2-162.3-89.1c-12.5-6.2-22.4-11-28.3-14.1c-32.8-16.9-57.4-45.9-71.3-84
		c-9.5-26-10.9-57.5-4.2-91c0.2-1.1,0.5-2.6,0.9-4.4c3.6-16.7,14.5-67.6,18.6-143.3c4-74.9-30.6-151.3-39.6-169.9l77.7-87.5h417.1
		l77.7,87.5c-9.1,18.6-43.6,95-39.6,169.9c4.1,75.7,15,126.6,18.6,143.3c0.4,1.9,0.7,3.3,0.9,4.4c6.7,33.5,5.3,65-4.2,91
		c-13.8,38.1-38.5,67.1-71.3,84c-6,3.1-15.8,7.9-28.3,14.1C475.2,693.8,418.6,723.3,400,740z"/>
	<path d="M400,714.7c-27.1-18.5-78.5-45-153.4-81.9c-12.5-6.1-22.2-11-28-13.9c-28.2-14.5-49.5-39.7-61.5-72.9
		c-8.2-22.5-9.4-50.2-3.4-80.1c0.2-1,0.5-2.4,0.9-4.2c3.7-17.1,14.8-69.2,19-146.4c3.6-68-21.9-135.8-35.9-167.5L200.6,77h399
		l62.9,70.8c-14.1,31.7-39.6,99.5-35.9,167.5c4.1,77.3,15.3,129.3,19,146.4l0.1,0.4c0.3,1.5,0.6,2.8,0.8,3.7
		c6,29.9,4.8,57.6-3.4,80.2c-12.1,33.2-33.4,58.4-61.5,72.9c-5.8,3-15.6,7.8-28,13.9C478.5,669.7,427.1,696.2,400,714.7z"/>
	<path d="M400,710.6c-28-18.8-79.1-45-151.9-80.9l-0.1-0.1c-12.3-6.1-22.1-10.9-27.8-13.8c-27.4-14.1-48.1-38.7-59.9-71.1
		c-8-21.9-9.1-49-3.2-78.3c0.2-1,0.5-2.3,0.8-4v-0.1c3.7-17.2,14.9-69.4,19-147c3.6-66.6-20.2-132.5-35.3-167L202,80.2h396
		l60.4,68.1c-15.1,34.6-38.9,100.5-35.3,167c4.2,77.6,15.4,129.8,19,147l0.1,0.6c0.3,1.5,0.6,2.6,0.7,3.5
		c5.9,29.3,4.7,56.4-3.2,78.3c-11.8,32.4-32.5,57-59.9,71.1c-5.7,3-15.4,7.7-27.6,13.7l-0.4,0.2C479.1,665.7,428.1,691.8,400,710.6z
		"/>
	<path d="M234.4,269.4H278h52.3h43.6h52.3h43.6H522h43.6h52.3h6.7c5.5-49.6,22.2-94.6,33.8-121.1L598,80.2H202l-60.4,68.1
		c11.6,26.5,28.3,71.5,33.8,121.1h6.7H234.4z"/>
	<g>
		<g>
			<path fill="#FFFFFF" d="M182.1,269.4v315c10.5,13.2,23.3,23.8,38,31.4c3.4,1.8,8.3,4.2,14.3,7.1V269.4H182.1z"/>
			<path fill="#FFFFFF" d="M278,269.4v375.2c19.3,9.6,36.7,18.4,52.3,26.5V269.4H278z"/>
			<path fill="#FFFFFF" d="M373.9,269.4v425.3c10.2,5.8,18.9,11.1,26.1,16c7.2-4.8,15.9-10.1,26.1-16V269.4H373.9z"/>
			<path fill="#FFFFFF" d="M469.7,269.4v401.7c15.6-8.1,33-16.9,52.3-26.5V269.4H469.7z"/>
			<path fill="#FFFFFF" d="M565.6,269.4V623c6-3,10.8-5.4,14.3-7.2c14.7-7.6,27.5-18.2,38-31.4v-315L565.6,269.4L565.6,269.4z"/>
		</g>
		<g>
			<path fill="#C00824" d="M176.9,315.3c-4.2,77.5-15.4,129.8-19,147v0.1c-0.4,1.7-0.6,3-0.8,4c-5.9,29.3-4.7,56.4,3.2,78.3
				c5.5,15,12.8,28.3,21.9,39.7v-315h-6.7C177.1,284.4,177.7,299.8,176.9,315.3z"/>
			<path fill="#C00824" d="M234.4,269.4V623c4,2,8.6,4.2,13.6,6.7l0.1,0.1c10.4,5.1,20.4,10.1,29.9,14.8V269.4H234.4z"/>
			<path fill="#C00824" d="M330.3,269.4v401.7c16.7,8.7,31.2,16.5,43.6,23.6V269.4H330.3z"/>
			<path fill="#C00824" d="M426.1,269.4v425.3c12.4-7.1,26.9-14.9,43.6-23.6V269.4H426.1z"/>
			<path fill="#C00824" d="M522,269.4v375.2c9.5-4.7,19.5-9.7,29.9-14.8l0.4-0.2c4.9-2.4,9.3-4.6,13.3-6.6V269.4H522z"/>
			<path fill="#C00824" d="M617.9,584.4c9.1-11.4,16.4-24.7,21.9-39.7c8-21.9,9.1-49,3.2-78.3c-0.2-0.9-0.4-2.1-0.7-3.5l-0.1-0.6
				c-3.7-17.2-14.9-69.4-19-147c-0.8-15.5-0.2-30.9,1.5-45.9H618L617.9,584.4L617.9,584.4z"/>
		</g>
	</g>
</g>
<g>
	<g>
		<path d="M398.4,331.2c-75.5,0.9-135.9,62.8-135,138.3s62.8,135.9,138.3,135s135.9-62.8,135-138.3
			C535.7,390.7,473.9,330.2,398.4,331.2z"/>
		<circle fill="#030303" cx="400" cy="467.8" r="132.9"/>
		<path fill="#FFFFFF" d="M332.3,483.3c-6.8-28.2-20.4-43.5-30.7-45.4c-7.1-1.3-21.2-1.8-30.8-1.3c-2.5,10.5-3.8,21.4-3.7,32.6
			l0.1,0.8c0,1.5,0.1,2.9,0.1,4.3c0.9,17,4.9,33.3,11.5,48c0.6,1.3,1.1,2.6,1.7,3.7c4.3,8.6,9.4,16.8,15.2,24.2
			c7.7-1.6,16.8-4.2,22.7-8.6C331,533.1,339,511.5,332.3,483.3z M446.5,566.7c-4.5-14.4-22.7-28.8-51.6-30.8s-47.7,6.2-52.5,15.4
			c-3.6,6.7-8.7,20.8-10.9,30.3c10.4,6.3,21.6,11.1,33.4,14.4c1.4,0.4,3,0.7,4.4,1.1c10.5,2.5,21.4,3.7,32.4,3.6
			c2.9,0,5.8-0.2,8.7-0.4c1.5-0.2,2.9-0.3,4.4-0.4c11.5-1.3,22.6-4,33-7.9C448.4,583.9,448.7,574,446.5,566.7z M532.7,460.1
			c-7.7-3.3-17.9-6.7-26.1-6.6c-15.2,0.3-33.9,13.8-44,40.9s-7.3,47.5,0,54.8c5.3,5.1,16.7,13.3,25.1,18.5c8-7.1,15.2-15.2,21.5-24
			c0.7-1.1,1.6-2.4,2.4-3.5c8.3-12.8,14.3-27,17.9-42.2c0.4-1.4,0.6-3,0.9-4.4c1.7-8.9,2.6-18,2.6-27.2
			C532.9,464.2,532.9,462.1,532.7,460.1z M506.3,387.9c-0.8-1.1-1.8-2.2-2.6-3.3c-10.3-12.8-22.9-23.6-37-31.8
			c-1.3-0.7-2.5-1.5-3.8-2.2c-9.2-5-19.1-8.8-29.5-11.5c-5.3,6.3-11.8,15.2-13.9,22.9c-4.2,14.6,3.2,36.5,26.2,54
			c22.9,17.7,43.2,20.9,52.5,16.1c6.1-3.3,16.6-11.2,23.8-17.6C517.7,405,512.4,395.9,506.3,387.9z M396.9,363.9
			c-1.2-7-5.4-19.6-9-28.4c-12.5,1.1-24.3,4-35.7,8.2c-1.3,0.5-2.8,1.1-4.1,1.6c-11.9,5.1-23.2,11.9-33.1,20.2
			c-1.1,1-2.4,1.9-3.5,2.9c-8.9,7.9-16.9,17.1-23.4,27.3c4.3,7.1,10.3,15.5,16.9,20c12.5,8.6,35.5,8.7,59.7-7.2
			C388.8,392.3,398.6,374.3,396.9,363.9z"/>
		<path fill="#CBCBCB" d="M505.8,471.5l23.8,26.3c0.4-1.4,0.6-3,0.9-4.4l-22.9-25.3l-11.5-47l-0.8-3.3l11-29.9
			c-0.8-1.1-1.8-2.2-2.6-3.3l-11.4,31L454,403.7l-15.6-36.3l28.2-14.6c-1.3-0.7-2.5-1.5-3.8-2.2l-27.3,14l-55.3-3.5l-28-17.5
			c-1.3,0.5-2.8,1.1-4.1,1.6l29.1,18.2L356.4,396l-39.5,5.5l-1.8-36.2c-1.1,1-2.4,1.9-3.5,2.9l1.6,35l-19.9,47.7l-26.2,19
			c0,1.5,0.1,2.9,0.1,4.3l27-19.6l22.2,32.9l-6.3,37.8l-31.5-3c0.6,1.3,1.1,2.6,1.7,3.7l30.5,2.9l40.2,35.4l13.4,31.6
			c1.4,0.4,3,0.7,4.4,1.1l-13.9-32.7l38.5-13.9l33.3,20.4L410,600.1c1.5-0.2,2.9-0.3,4.4-0.4l16.3-28.4L476,542l33.1,1.3
			c0.7-1.1,1.6-2.4,2.4-3.5l-34.1-1.3l-0.2-39.6L505.8,471.5z M380.8,364.8l54.1,3.4l15.8,36.6l-31.1,38.8l-35.8-3.1l-24.1-42.8
			L380.8,364.8z M427.2,477l-30.3,11.1L368,472.6l15.4-28.3l35.3,2.9L427.2,477z M296.9,452.1l19.5-46.7l40.1-5.6l23.9,42.6
			l-16,29.3l-45.1,13.4L296.9,452.1z M392.1,547.3l-38.9,14l-39.5-34.6l6.4-38l45.4-13.4l29.4,16L392.1,547.3z M473.9,539.4
			l-44.4,28.7l-33.6-20.5l2.7-56.2l30.8-11.3l44.3,19.4L473.9,539.4z M475,496.3L431,477l-8.8-31l31.1-38.8l38.6,12l2.1,8.7
			l9.9,40.6L475,496.3z"/>
		<path fill="#CBCBCB" d="M398.4,334.9C325,335.8,266.2,396,267.1,469.4c0.9,73.5,61.1,132.2,134.5,131.3
			c73.5-0.9,132.2-61.1,131.3-134.5S471.9,334,398.4,334.9z M401.6,595.5c-70.6,0.8-128.5-55.7-129.2-126.2S328,340.8,398.6,340
			s128.5,55.7,129.2,126.2C528.6,536.8,472,594.7,401.6,595.5z"/>
	</g>
</g>
<g>
	<circle fill="#FFFFFF" cx="400" cy="467.8" r="59.9"/>
	<path fill="#C00824" d="M444.6,483.9c-10.9,3.7-25.1,5.9-40.9,5.9c-33.8,0-61.3-10.4-61.3-22.9c0-4.9,4.1-9.3,10.9-13.1
		c12.6-5.9,27.8-7.8,46.5-7.8c29.2,0,44.5,6.6,47.9,8.1c5.6,2.4,8.5,7,8.5,9.2c-0.2,5.4-9.8,9.5-21.7,9.2s-21.2-5.1-21.1-10.5
		c0.2-5.4,9.8-9.5,21.7-9.2c2,0,3.9,0.2,5.8,0.5c-6.1-1.4-13.2-2.2-21.1-2.2c-22.2,0-40.4,6.8-40.4,15.3s18,15.3,40.4,15.3
		c19.5,0,35.8-5.3,39.6-12.2c0.3-0.5,0.5-1.2,0.5-1.7l0,0c0-33.1-26.8-59.9-59.9-59.9s-59.9,26.8-59.9,59.9s26.8,59.9,59.9,59.9
		c31.1,0,56.5-23.6,59.6-53.8C456.8,477.6,451.6,481.2,444.6,483.9z"/>
</g>
<g>
	<path fill="#C9A943" d="M197.4,219.5c-5.5-0.3-8.2-3.3-8.2-9v-79.3H231v11.7h-7.8v9h7.8V191c0.3,4.2-1.6,6.1-5.5,5.9h-2.3v10.9h7.8
		v11.7L197.4,219.5L197.4,219.5z M211.9,142.9H201v62.9c0,1.3,0.6,2,2,2h9v-10.9h-7V152h7v-9.1H211.9z M219.3,186.7
		c1.3,0.3,1.8-0.5,1.6-2.3v-22.7H215v25H219.3z M234.1,130.4h43v12.5h-14.8v7h15.2v49.2h-10.9v-38.3h-21.5v38.3h-10.9v-49.2h16v-7
		h-16v-12.5H234.1z M240,208.5c1.8,0.3,3.3-0.8,4.3-3.1l6.2-10.9v-28.9H261v28.9l6.2,11.3c0.8,1.6,2.3,2.5,4.7,2.7h5.1v10.9h-9.4
		c-3.4,0.5-5.7-0.9-7-4.3l-4.7-8.6l-4.7,8.6c-1.6,3.1-3.7,4.6-6.2,4.3h-10.5v-10.9H240z"/>
	<path fill="#C9A943" d="M300.8,137.8h35.5v-7H352v7h35.5v62.5c0.5,8.6-2.9,12.5-10.2,11.7h-25.8v7H337v-6.6h-36.3L300.8,137.8
		L300.8,137.8z M336.7,150.7h-21.5v49.2h21.5V150.7z M351.6,199.6h19.9c1,0,1.6-0.9,1.6-2.7v-46.1h-21.5V199.6z"/>
	<path fill="#C9A943" d="M413.8,129.6h82v31.6c0.3,7.8-2.6,11.5-8.6,10.9h-23.4V183H499v11.3h-34.8v12.9h35.5v12.1h-62.1
		c-4.2,0.3-7.2-1.2-9-4.3c-1.3,2.6-3.4,3.9-6.2,3.9h-12.1v-11.7h4.3c2.3,0,3.5-1.2,3.5-3.5v-26.2h14.1V197c0.8,6.2,3.6,9.5,8.6,9.8
		h8.6V172h-35.5v-42.4H413.8z M428.7,141.4v20.3h50.8c1.6,0,2.3-1,2.3-3.1v-17.2H428.7z"/>
	<path fill="#C9A943" d="M532.3,142.5h-10.9v-10.9h33.2v10.5h-9.8v27.7h9.4v10.5h-9.4v28.5h9.4v10.5H521v-10.2h11.3v-28.9h-10.9
		v-10.9h10.9V142.5z M556.9,137.4h20.7V130h12.9v7.4h5.5c1.8-0.3,2.7-1.2,2.7-2.7v-3.1H610v7.4c0.3,6.5-3.7,9.8-11.7,9.8h-8.2v30.1
		H603l2.7,27c0,2.3,0.8,3.5,2.3,3.5h2.3v10.5H603c-5.5,0.3-8.3-2.1-8.6-7l-2.7-27.3h-1.6v23c0.8,8.3-2.1,12.1-8.6,11.3h-8.2V209h2
		c1.6,0,2.2-0.6,2-2v-21.1H576l-4.7,26.2c-0.8,5.2-3.5,7.7-8.2,7.4h-7.4v-10.9h0.8c1.8,0,2.9-0.8,3.1-2.3l4.7-27.3h12.9v-29.7h-20.3
		L556.9,137.4L556.9,137.4z M574.1,174.2h-8.6c-4.4,0.3-7-2.1-7.8-7l-2-12.5h12.1l1.6,7.4c0.3,2.1,1.2,3,2.7,2.7h2V174.2z
		 M592.4,174.6v-9.8h2.3c1.3,0,2.1-0.8,2.3-2.3l1.6-8.2h12.1l-2.3,13.7c-0.8,4.7-3.5,6.9-8.2,6.6H592.4z"/>
</g>
</svg>
