<!-- Created by @FCLOGO 2021-12-28 15:17:17 . https://fclogo.top/ -->
<!-- FOR PERSONAL USE ONLY NOT FOR COMMERCIAL USE -->
<svg version="1.1" xmlns="http://www.w3.org/2000/svg" xmlns:xlink="http://www.w3.org/1999/xlink" x="0px" y="0px"
	 viewBox="0 0 800 800" enable-background="new 0 0 800 800" xml:space="preserve">
<path fill="#3F9365" d="M132.2,50v432.2C132.2,630.1,252.1,750,400,750h0c147.9,0,267.8-119.9,267.8-267.8V50H132.2z M663.56,482.2
	c0,70.4-27.42,136.59-77.2,186.37c-49.78,49.78-115.97,77.2-186.36,77.2c-70.4,0-136.59-27.42-186.37-77.2
	c-49.78-49.78-77.19-115.97-77.19-186.37V54.24h527.12V482.2z"/>
<g>
	<polygon fill="#3F9365" points="351.24,411.38 307.38,411.38 448.03,167.76 491.89,167.76 	"/>
	<polygon fill="#3F9365" points="220.1,269.94 293.6,142.63 271.67,104.64 176.23,269.94 	"/>
	<polygon fill="#3F9365" points="293.6,435.25 220.1,307.93 176.23,307.93 271.67,473.23 	"/>
	<polygon fill="#3F9365" points="304.57,85.66 326.5,123.64 473.5,123.64 495.43,85.66 	"/>
	<polygon fill="#3F9365" points="506.4,142.63 579.9,269.94 623.77,269.94 528.33,104.65 	"/>
	<polygon fill="#3F9365" points="473.5,454.24 326.5,454.24 304.57,492.22 495.43,492.22 	"/>
	<polygon fill="#3F9365" points="579.9,307.93 506.4,435.25 528.33,473.23 623.77,307.93 	"/>
</g>
<g>
	<path fill="#3F9365" d="M272.29,585.37v-6.35l11.54-13.25c1.89-2.16,3.3-3.7,4.21-4.61c-0.95,0.06-2.19,0.1-3.74,0.12l-10.88,0.06
		v-6.76h25.46v5.77l-11.77,13.57l-4.15,4.5c2.26-0.13,3.66-0.2,4.21-0.2h12.62v7.16H272.29z"/>
	<path fill="#3F9365" d="M313.39,542.86v15.63c2.63-3.07,5.77-4.61,9.43-4.61c1.88,0,3.57,0.35,5.08,1.04
		c1.51,0.7,2.64,1.59,3.41,2.67c0.76,1.08,1.29,2.28,1.57,3.6c0.28,1.32,0.42,3.35,0.42,6.12v18.07h-8.15V569.1
		c0-3.23-0.15-5.28-0.46-6.15c-0.31-0.87-0.86-1.56-1.64-2.07c-0.78-0.51-1.76-0.77-2.94-0.77c-1.35,0-2.56,0.33-3.63,0.99
		c-1.06,0.66-1.84,1.65-2.33,2.97c-0.49,1.32-0.74,3.28-0.74,5.87v15.43h-8.15v-42.52H313.39z"/>
	<path fill="#3F9365" d="M341.55,550.4v-7.54h8.15v7.54H341.55z M341.55,585.37v-30.8h8.15v30.8H341.55z"/>
	<path fill="#3F9365" d="M384.9,563.68l-8.03,1.45c-0.27-1.6-0.88-2.81-1.84-3.63s-2.2-1.22-3.73-1.22c-2.03,0-3.65,0.7-4.86,2.1
		c-1.21,1.4-1.81,3.75-1.81,7.03c0,3.65,0.61,6.24,1.84,7.74c1.23,1.51,2.88,2.26,4.94,2.26c1.55,0,2.81-0.44,3.8-1.32
		c0.99-0.88,1.68-2.39,2.09-4.54l8,1.36c-0.83,3.67-2.43,6.45-4.79,8.32c-2.36,1.88-5.52,2.81-9.48,2.81c-4.5,0-8.1-1.42-10.77-4.26
		c-2.68-2.84-4.02-6.78-4.02-11.8c0-5.08,1.34-9.04,4.03-11.88c2.69-2.83,6.32-4.25,10.9-4.25c3.75,0,6.73,0.81,8.95,2.42
		C382.35,557.91,383.94,560.37,384.9,563.68z"/>
	<path fill="#3F9365" d="M399.2,542.86v15.63c2.63-3.07,5.77-4.61,9.43-4.61c1.87,0,3.57,0.35,5.08,1.04
		c1.51,0.7,2.64,1.59,3.41,2.67c0.76,1.08,1.29,2.28,1.57,3.6c0.28,1.32,0.42,3.35,0.42,6.12v18.07h-8.15V569.1
		c0-3.23-0.16-5.28-0.46-6.15c-0.31-0.87-0.86-1.56-1.64-2.07c-0.78-0.51-1.76-0.77-2.94-0.77c-1.35,0-2.56,0.33-3.63,0.99
		c-1.06,0.66-1.84,1.65-2.33,2.97c-0.49,1.32-0.74,3.28-0.74,5.87v15.43h-8.15v-42.52H399.2z"/>
	<path fill="#3F9365" d="M445.2,575.57l8.12,1.36c-1.04,2.98-2.69,5.25-4.94,6.8c-2.25,1.56-5.07,2.33-8.45,2.33
		c-5.36,0-9.32-1.75-11.89-5.25c-2.03-2.8-3.05-6.34-3.05-10.61c0-5.1,1.33-9.1,4-11.99c2.67-2.89,6.04-4.34,10.12-4.34
		c4.58,0,8.2,1.51,10.85,4.54c2.65,3.03,3.92,7.66,3.8,13.91h-20.42c0.06,2.42,0.71,4.3,1.97,5.64c1.26,1.34,2.82,2.02,4.7,2.02
		c1.28,0,2.35-0.35,3.22-1.04S444.75,577.12,445.2,575.57z M445.66,567.33c-0.06-2.36-0.67-4.15-1.83-5.38
		c-1.16-1.23-2.57-1.84-4.23-1.84c-1.78,0-3.25,0.65-4.41,1.94c-1.16,1.3-1.73,3.06-1.71,5.28H445.66z"/>
	<path fill="#3F9365" d="M488.41,585.37h-8.15v-15.72c0-3.32-0.17-5.48-0.52-6.45c-0.35-0.98-0.91-1.73-1.7-2.28
		c-0.78-0.54-1.73-0.81-2.83-0.81c-1.41,0-2.68,0.39-3.8,1.16c-1.12,0.77-1.89,1.8-2.31,3.07c-0.42,1.28-0.62,3.64-0.62,7.08v13.95
		h-8.15v-30.8h7.57v4.52c2.69-3.48,6.07-5.22,10.15-5.22c1.8,0,3.44,0.32,4.93,0.97c1.49,0.65,2.61,1.47,3.38,2.48
		c0.76,1.01,1.29,2.15,1.6,3.42c0.3,1.28,0.45,3.1,0.45,5.48V585.37z"/>
	<path fill="#3F9365" d="M495.92,587.4l9.31,1.13c0.15,1.08,0.51,1.83,1.07,2.23c0.77,0.58,1.99,0.87,3.65,0.87
		c2.13,0,3.72-0.32,4.79-0.96c0.71-0.43,1.26-1.11,1.62-2.06c0.25-0.68,0.38-1.92,0.38-3.74v-4.5c-2.44,3.33-5.51,4.99-9.22,4.99
		c-4.14,0-7.41-1.75-9.83-5.25c-1.9-2.76-2.84-6.21-2.84-10.32c0-5.16,1.24-9.11,3.73-11.83c2.48-2.73,5.57-4.09,9.27-4.09
		c3.81,0,6.95,1.67,9.43,5.02v-4.32h7.63v27.64c0,3.63-0.3,6.35-0.9,8.15c-0.6,1.8-1.44,3.21-2.52,4.23
		c-1.08,1.02-2.53,1.83-4.34,2.41c-1.81,0.58-4.09,0.87-6.86,0.87c-5.22,0-8.92-0.89-11.11-2.68c-2.19-1.79-3.28-4.06-3.28-6.8
		C495.89,588.12,495.9,587.79,495.92,587.4z M503.2,569.33c0,3.27,0.63,5.66,1.9,7.18c1.27,1.52,2.83,2.28,4.68,2.28
		c1.99,0,3.67-0.78,5.05-2.33c1.37-1.56,2.06-3.86,2.06-6.92c0-3.19-0.66-5.56-1.97-7.11c-1.32-1.55-2.98-2.32-4.99-2.32
		c-1.95,0-3.56,0.76-4.83,2.28C503.83,563.91,503.2,566.22,503.2,569.33z"/>
</g>
<g>
	<path fill="#3F9365" d="M240.45,614.05l0.25-0.26c1.18-1,1.52-2.59,1.02-4.79c-0.51-2.2-1.77-4.69-3.78-7.49
		c-2.01-2.8-3.85-4.73-5.52-5.8c-1.67-1.07-3.05-1.21-4.14-0.42l-0.05,0.04c-0.84,0.6-1.17,1.46-1,2.58
		c0.17,1.12,0.64,2.34,1.4,3.67c0.76,1.33,1.9,3.15,3.42,5.47c2.11,3.21,3.72,5.89,4.82,8.02c1.1,2.14,1.65,4.25,1.67,6.34
		c0.01,2.09-0.96,3.84-2.92,5.25l-0.05,0.03c-2.38,1.71-5.2,1.66-8.46-0.17c-3.26-1.82-6.62-5.13-10.06-9.92
		c-3.56-4.95-5.55-9.09-5.97-12.42c-0.42-3.33,0.61-6.18,3.1-8.56l0.24-0.17l4.27,5.93l-0.29,0.21c-1.2,1.25-1.6,2.85-1.21,4.78
		c0.39,1.94,1.65,4.38,3.78,7.34c2.08,2.89,4.03,4.94,5.85,6.15c1.82,1.2,3.29,1.4,4.41,0.59l0.05-0.03
		c0.8-0.58,1.11-1.41,0.92-2.49c-0.19-1.08-0.65-2.26-1.38-3.54c-0.73-1.28-1.82-3.04-3.27-5.26c-2.15-3.19-3.78-5.87-4.92-8.06
		c-1.13-2.18-1.71-4.36-1.72-6.52c-0.02-2.16,0.99-3.97,3.01-5.42l0.05-0.03c2.38-1.71,5.11-1.73,8.18-0.07
		c3.08,1.67,6.32,4.88,9.74,9.64c3.4,4.73,5.34,8.89,5.83,12.48c0.49,3.6-0.49,6.47-2.94,8.63l-0.14,0.1L240.45,614.05z"/>
	<path fill="#3F9365" d="M241.77,640.61c-0.88-4.34,0.32-8.35,3.62-12.05l0.04-0.04c3.27-3.67,7.09-5.3,11.48-4.89
		c4.38,0.41,8.94,2.72,13.67,6.93c4.76,4.24,7.61,8.53,8.57,12.88c0.95,4.35-0.21,8.36-3.47,12.02l-0.04,0.04
		c-3.29,3.7-7.17,5.33-11.62,4.92c-4.46-0.42-9.06-2.74-13.82-6.99C245.45,649.22,242.65,644.95,241.77,640.61z M262.3,653.86
		c2.83,0.16,5.35-1,7.56-3.49l0.04-0.04c2.19-2.45,3.02-5.06,2.51-7.82c-0.51-2.76-2.26-5.47-5.24-8.13
		c-2.93-2.61-5.78-3.99-8.57-4.13c-2.79-0.15-5.26,0.99-7.42,3.41l-0.04,0.04c-2.21,2.48-3.09,5.11-2.64,7.87
		c0.45,2.76,2.14,5.45,5.07,8.06C256.57,652.29,259.47,653.7,262.3,653.86z"/>
	<path fill="#3F9365" d="M311.6,671.12c0.69-1.66,0.38-3.42-0.91-5.29c-1.3-1.87-3.52-3.67-6.68-5.42c-3.4-1.87-6.45-2.55-9.15-2.03
		c-2.71,0.52-4.85,2.22-6.44,5.09l-0.03,0.05c-1.59,2.88-1.86,5.6-0.81,8.17c1.05,2.57,3.37,4.85,6.98,6.84
		c2.91,1.61,5.49,2.42,7.74,2.44c2.25,0.02,3.94-0.7,5.06-2.16l0.17-0.18l6.29,3.47l-0.25,0.33c-1.91,2.97-4.69,4.51-8.35,4.62
		c-3.66,0.11-8-1.23-13.02-4c-5.76-3.18-9.55-6.77-11.38-10.79c-1.83-4.02-1.55-8.19,0.84-12.53l0.03-0.05
		c2.37-4.3,5.72-6.76,10.04-7.38c4.32-0.62,9.27,0.61,14.86,3.69c5.16,2.85,8.72,5.87,10.68,9.05c1.95,3.18,2.21,6.27,0.78,9.28
		l-0.21,0.5l-6.29-3.47L311.6,671.12z"/>
	<path fill="#3F9365" d="M354.16,685.85c0.31-1.77-0.38-3.42-2.05-4.96c-1.68-1.54-4.24-2.81-7.7-3.82
		c-3.73-1.08-6.85-1.07-9.38,0.03c-2.53,1.1-4.25,3.23-5.17,6.39l-0.02,0.06c-0.92,3.16-0.58,5.87,1,8.15
		c1.59,2.28,4.36,3.99,8.31,5.14c3.19,0.93,5.89,1.15,8.09,0.68c2.2-0.47,3.69-1.55,4.46-3.22l0.12-0.21l6.9,2.01l-0.17,0.38
		c-1.21,3.32-3.59,5.43-7.13,6.34c-3.54,0.91-8.07,0.56-13.58-1.04c-6.31-1.84-10.8-4.51-13.47-8.03
		c-2.67-3.52-3.31-7.65-1.93-12.41l0.02-0.06c1.37-4.71,4.1-7.85,8.18-9.41c4.08-1.55,9.18-1.44,15.3,0.34
		c5.66,1.65,9.8,3.81,12.4,6.48c2.6,2.67,3.54,5.64,2.8,8.88l-0.09,0.53l-6.9-2.01L354.16,685.85z"/>
	<path fill="#3F9365" d="M399.48,699.77l7.12,0.43l-0.01,0.24c-0.64,3.33-2.65,5.85-6.04,7.55c-3.39,1.7-7.9,2.38-13.51,2.05
		c-6.56-0.39-11.61-2.01-15.15-4.86c-3.54-2.85-5.16-6.74-4.86-11.68l0-0.06c0.29-4.9,2.32-8.56,6.07-10.97
		c3.75-2.41,8.81-3.43,15.18-3.05c6.13,0.37,10.82,1.94,14.09,4.71c3.26,2.77,4.77,6.57,4.52,11.4l-0.09,1.48l-32.31-1.93
		c0.02,3.02,1.14,5.39,3.35,7.13c2.22,1.74,5.36,2.73,9.43,2.97c3.32,0.2,6.05-0.17,8.19-1.12c2.14-0.94,3.48-2.33,4.03-4.16
		L399.48,699.77z M379.5,685.66c-2.25,1.14-3.74,2.87-4.48,5.21l24.49,1.46c-0.41-2.36-1.62-4.25-3.62-5.66
		c-2-1.41-4.64-2.21-7.92-2.41C384.57,684.06,381.75,684.52,379.5,685.66z"/>
	<path fill="#3F9365" d="M436.88,677.12l0.78,6.19c-1.43-0.3-3.08-0.33-4.92-0.1c-2.24,0.28-4.17,1.11-5.79,2.47
		c-1.62,1.36-2.82,3.1-3.59,5.21c-0.77,2.11-1,4.39-0.69,6.82l0.12,0.94l1.26,9.96l-7.48,0.95l-3.73-29.46l6.6-0.83l0.89,7.07
		c1.04-2.53,2.53-4.59,4.48-6.19c1.95-1.6,4.3-2.58,7.05-2.93C433.71,676.99,435.38,676.95,436.88,677.12z"/>
	<path fill="#3F9365" d="M493.39,668.28c-0.9-1.55-2.49-2.38-4.76-2.48c-2.27-0.1-5.06,0.57-8.36,2.03
		c-3.55,1.57-5.94,3.58-7.17,6.05c-1.23,2.47-1.18,5.2,0.15,8.21l0.02,0.05c1.33,3.01,3.33,4.87,6,5.6c2.68,0.72,5.9,0.26,9.67-1.41
		c3.04-1.34,5.26-2.9,6.64-4.68c1.38-1.78,1.83-3.55,1.35-5.33l-0.04-0.24l6.58-2.9l0.11,0.41c1.2,3.32,0.74,6.47-1.39,9.44
		c-2.13,2.97-5.82,5.62-11.08,7.93c-6.01,2.65-11.17,3.49-15.48,2.51c-4.3-0.98-7.46-3.73-9.45-8.26l-0.02-0.05
		c-1.98-4.49-1.91-8.65,0.22-12.46c2.13-3.81,6.11-7.01,11.94-9.58c5.4-2.38,9.95-3.38,13.67-3.01c3.71,0.38,6.33,2.05,7.86,5.01
		l0.27,0.47l-6.58,2.9L493.39,668.28z"/>
	<path fill="#3F9365" d="M521.99,673.62l-6.33,3.98l-22.14-35.19l6.33-3.99L521.99,673.62z"/>
	<path fill="#3F9365" d="M540.97,620.66l19.38,22.5l-5.04,4.34l-3.76-4.37c0.09,2.59-0.62,5.24-2.13,7.95
		c-1.51,2.71-3.75,5.34-6.72,7.9c-3.6,3.1-7.11,4.7-10.53,4.79c-3.42,0.1-6.41-1.34-8.96-4.31l-11.63-13.5l5.72-4.92l11.04,12.83
		c1.52,1.77,3.34,2.64,5.45,2.6c2.11-0.04,4.26-1,6.45-2.89c3.39-2.92,5.47-5.92,6.23-9.01c0.76-3.09,0.1-5.85-1.99-8.28
		l-9.22-10.71L540.97,620.66z"/>
	<path fill="#3F9365" d="M568.97,589.58c4.16-1.16,8.18-0.31,12.09,2.53l0.05,0.04c3.93,2.87,5.98,6.46,6.15,10.77
		c0.16,4.31-1.57,8.94-5.18,13.9c-1.94,2.66-3.99,4.73-6.17,6.23c-2.17,1.5-4.4,2.37-6.69,2.62l3.79,2.77l-3.89,5.32l-33.58-24.51
		l4.55-6.24l12.52,9.14c-0.34-4.17,1.23-8.64,4.71-13.4C560.93,593.8,564.82,590.74,568.97,589.58z M576.42,598.37
		c-2.65-1.94-5.32-2.53-7.99-1.79c-2.68,0.74-5.19,2.73-7.55,5.96c-2.36,3.23-3.49,6.25-3.41,9.05c0.08,2.81,1.42,5.16,4.01,7.05
		l0.34,0.25c2.59,1.89,5.24,2.45,7.96,1.69c2.71-0.76,5.25-2.76,7.61-5.99c2.36-3.23,3.47-6.24,3.33-9.04
		c-0.14-2.8-1.55-5.18-4.24-7.14L576.42,598.37z"/>
</g>
<g>
</g>
<g>
</g>
<g>
</g>
<g>
</g>
<g>
</g>
<g>
</g>
<g>
</g>
<g>
</g>
<g>
</g>
<g>
</g>
<g>
</g>
</svg>
