<svg version="1.1" xmlns="http://www.w3.org/2000/svg" xmlns:xlink="http://www.w3.org/1999/xlink" x="0px" y="0px"
	 viewBox="0 0 800 800" enable-background="new 0 0 800 800" xml:space="preserve">
<g>
	<path fill="#F08300" d="M400.8,50c-97.4,0-199.7,19.2-304.1,56.4c0,13.9,0,277.7,0,277.7S77.3,638.9,400.8,750
		c32.3-10,304.1-109.4,302.6-365.9V106.4C600.6,69.2,498.3,50,400.8,50z M656.1,545.1c-22.7,40.1-54.7,77-95.1,109.7
		c-72.2,58.5-147.2,84.6-160.1,88.9c-72-25-132.5-59.2-179.7-101.9c-38-34.3-67.6-74.1-88-118.3c-18.1-39.4-25.5-75-28.4-98
		c-3.2-24.9-2.1-40.8-2.1-40.9l0-0.2v-0.2V110.6C205.6,74.4,305.9,56,400.8,56c95.5,0,195.3,18.4,296.6,54.6l0,273.5
		C697.8,441.9,683.9,496,656.1,545.1z"/>
	<path fill="#F08300" d="M632.3,508.7l-7.9-13.5l-1.5,16.1l-15.4,3.9L622,521l-1.3,14.6l9.6-11.5l14.5,5.4l-7.9-13.2l9.4-11.1
		L632.3,508.7z M642.6,527.8l-12.4-5.1l-1.1-6.4l-7.3,16.8l1.1-13.3l6.1-3.5l-18.4-1.2l13.1-3.3l5.4,4.6l-4-18.5l6.6,11.7l-2.6,6.9
		l14.8-9.4l-8.2,9.6l-6.7-0.2L642.6,527.8z"/>
	<path fill="#F08300" d="M669.5,338.1l-7.5,12.3l-15.4-4l10.5,12.5l-7.9,13.8l14.1-6.3l9.6,11.3l-1.1-15.1l13.8-6.2l-14.7-3.7
		L669.5,338.1z M670.8,362.1l-5.7-3.8l6.6,16.8l-8.5-10l1.9-6.8l-13.7,12.4l6.8-11.9l6.9-0.5l-15.8-10.1l12.9,3.2l2.9,6.9l3.8-17.1
		l1.2,12.6l-5,4.4l17.8-1.5L670.8,362.1z"/>
	<path fill="#F08300" d="M604.4,217.4l5.3,14.9l4.4-14.7l14.9,0.2l-12.1-8.9l4.4-14.7l-12.4,8.8l-11.8-8.6l4.1,13.7l-12.8,8.8
		L604.4,217.4z M598.8,196.7l10.3,7.8l0.1,6.6l10.7-14.5l-4,12.6l-6.7,1.8l17.3,5.8l-13.1,0.2l-4.2-6l0.1,18.3l-4-13l3.9-5.3
		l-18.1,5l10.9-7.2l7.2,2.2L598.8,196.7z"/>
	<path fill="#F08300" d="M671.6,423.3l-11.4,9l-12.8-8.8l5.3,15.2l-12.2,10.1l15.8-1.2l5.2,14.2l3.8-14.6l15.1-1.2l-12.4-8.5
		L671.6,423.3z M677.7,445.4l-13.4,1l-3.8-5.4l0.5,18l-4.6-12.3l4.1-5.7l-17.2,6.6l10.8-8.5l6.5,2l-11.2-15.2l10.6,7.6l0.6,7.6
		l9.3-14.9l-3.3,12.1l-5.9,2.8L677.7,445.4z"/>
	<path fill="#F08300" d="M641.3,284.2l-1.5,15.7l10.4-11.6l13.3,6.7l-7.1-13.3l10-11.2l-14.9,2.5l-7.1-12.9l-2.1,14.4l-15.3,2.2
		L641.3,284.2z M642.7,275.4l5.8,4.8l-3.8-17.2l6.2,11l-2.4,6.2l15.6-8.5l-9.2,9.8l-6.4-1.3l13,12.6l-12.1-5.4l-0.9-7.2l-7.6,16.8
		l1.4-13.6l6.2-3.2l-18.7-2.9L642.7,275.4z"/>
	<path fill="#F08300" d="M185.3,217.7l4.4,14.7l5.3-14.9l16-0.5l-12.8-8.8l4.1-13.7l-11.8,8.6l-12.4-8.8l4.4,14.7l-12.2,8.9
		L185.3,217.7z M183.6,209.2l-4-12.6l10.7,14.5l0.1-6.6l10.3-7.8L190.3,211l7.2-2.2l10.9,7.2l-18.1-5l3.8,5.3l-4,13l0.1-18.3l-4.2,6
		l-13.1-0.2l17.3-5.8L183.6,209.2z"/>
	<path fill="#F08300" d="M191.9,515.1l-15.4-3.9l-1.5-16.1l-7.9,13.5l-14.1-3.5l9.4,11.1l-7.9,13.2l14.5-5.4l9.7,11.5l-1.3-14.6
		L191.9,515.1z M177.6,533.1l-7.3-16.8l-1.1,6.4l-12.4,5.1l13.6-11.5l-6.6,0.2l-8.2-9.6l14.8,9.4l-2.6-6.9l6.6-11.7l-4,18.5l5.4-4.6
		l13.1,3.3l-18.4,1.2l6.1,3.5L177.6,533.1z"/>
	<path fill="#F08300" d="M126.4,377.8l9.6-11.3l14.1,6.3l-8-13.8l10.5-12.5l-15.4,4l-7.5-12.3l-1.4,14.7l-14.7,3.7l13.8,6.2
		L126.4,377.8z M116.5,356.8l17.8,1.5l-5-4.4l1.2-12.6l3.8,17.1l2.9-6.9l12.9-3.2l-15.8,10.1l6.9,0.5l6.8,11.9l-13.7-12.4l1.9,6.8
		l-8.5,10l6.6-16.8l-5.7,3.8L116.5,356.8z"/>
	<path fill="#F08300" d="M136,294.9l13.3-6.7l10.4,11.6l-1.5-15.7l14.4-7.6l-15.3-2.2l-2-14.4l-7.1,12.9l-14.9-2.5l10,11.2
		L136,294.9z M135.3,271.7l15.6,8.5l-2.4-6.2l6.2-11l-3.8,17.2l5.8-4.8l12.9,1.9l-18.7,2.9l6.2,3.2l1.4,13.6l-7.6-16.8l-0.9,7.2
		l-12.1,5.4l13-12.6l-6.4,1.3L135.3,271.7z"/>
	<path fill="#F08300" d="M146.8,438.8l5.3-15.2l-12.9,8.8l-11.4-9l3.8,14.3l-12.4,8.5l15.1,1.2l3.8,14.6l5.2-14.2l15.8,1.2
		L146.8,438.8z M143,446.6l-4.6,12.3l0.5-18l-3.8,5.4l-13.4-1l17.2-4.5l-5.9-2.8l-3.3-12.1l9.2,14.9l0.6-7.6l10.6-7.6l-11.2,15.2
		l6.5-2l10.8,8.5l-17.2-6.6L143,446.6z"/>
	<path fill="#F08300" d="M281.1,345.8c-28.4,5.6-59.8,62.8,2.3,90.5c0,0-38.2-42.1,6.5-63c0,0,9-3.4,31.3-5.9c0,0,24.4-40.9-12-74.5
		l-4.2-11.8c0,0-3.4,0.4-5.5,3.5l-13,3.5c0,0-14.9-3.5-26,7c0,0,1,3.7-3.2,4.8c-4.2,1.1-11.7,6.6-14,7.2c-2.3,0.6-1.2,2.8-2.8,4.2
		c-1.6,1.4-1.2,4.8-0.3,8.1c0.9,3.3,2.6,5.8,4.4,5.3c1.9-0.5,5.8,2.9,5.8,2.9s1.2-10.3,9.3-6c8.1,4.3,10.8,10.6,5.8,12.4
		c-5,1.8-10.3,0.8-10.3,0.8l1.6,8c0,0,2.5,3.8,11,0c8.4-3.8,6.6-5.2,12.5-5.3c5.9-0.1,22-5.4,23-12.6c1-7.3,5-1.8,4.2,2.8
		C306.9,332.5,302.3,341.7,281.1,345.8z"/>
	<path fill="#F08300" d="M196.1,389l4.2,15.8l2.8-0.7c0,0,5.1,11.6,10.8,12.5c5.7,1,16.9,7.4,27.5,17c10.5,9.6,35.9,3.8,35.9,3.8
		c-12.7-2.6-26.2-23.3-26.2-23.3c-6.9-5.1-19.6-0.7-26.9-3.7c-7.3-3-7.4-3.5-9.6-13.4C212.5,387.1,196.1,389,196.1,389z"/>
	<path fill="#F08300" d="M459.5,313.7L459.5,313.7C459.6,313.8,459.5,313.7,459.5,313.7z"/>
	<path fill="#F08300" d="M542.7,507.5c4.2-1.1,11.7-6.6,14-7.2c2.3-0.6,1.2-2.8,2.8-4.2c1.6-1.4,1.2-4.8,0.3-8.1
		c-0.9-3.3-2.5-5.8-4.4-5.3c-1.8,0.5-5.8-2.9-5.8-2.9s-1.2,10.3-9.4,6c-8.1-4.3-10.8-10.6-5.8-12.4c5-1.8,10.3-0.8,10.3-0.8l-1.7-8
		c0,0-2.5-3.8-11,0c-8.4,3.7-6.6,5.2-12.5,5.3c-6,0.1-22,5.4-23,12.6c-1,7.3-5,1.8-4.3-2.8c0.7-4.7,5.3-13.9,26.5-18.1
		c28.4-5.6,59.8-62.8-2.4-90.5c0,0,38.2,42-6.5,63c0,0-9.1,3.4-31.3,5.9c0,0-24.4,40.9,12,74.5l4.2,11.8c0,0,3.4-0.4,5.5-3.5l13-3.5
		c0,0,14.9,3.5,26-7C539.5,512.4,538.5,508.7,542.7,507.5z"/>
	<path fill="#F08300" d="M522.7,370c12.6,2.6,26.2,23.4,26.2,23.4c6.8,5.1,19.6,0.7,26.9,3.7c7.3,3,7.4,3.5,9.6,13.4
		c2.1,9.9,18.6,8,18.6,8l-4.2-15.8l-2.8,0.7c0,0-5.1-11.6-10.8-12.5c-5.7-1-16.9-7.4-27.5-17.1C548.1,364.2,522.7,370,522.7,370z"/>
	<path fill="#F08300" d="M340.5,493.7L340.5,493.7C340.5,493.7,340.5,493.7,340.5,493.7z"/>
	<path fill="#F08300" d="M351.9,492.4c12.8-0.7,16.8,8.9,24.2,8.5c7.3-0.5,8.5-6.3,8.5-12.7c0-6.5,9.2-7.5,9.2-7.5
		c-3.3-7.4-4.5-23-4.9-30.5c1.6,0.4,3.2,0.7,4.8,0.9c0,0,0,0,0,0c0.5-1.2,1-2.5,1.2-3.6c0,0-0.1-0.1-0.1-0.1c0-0.1,0-0.2,0.1-0.3
		c0.1,0,0.2,0,0.3,0.1c0,0,0,0,0,0.1c2.9,0.2,5.9,0.1,8.9-0.3c0-0.1,0-0.2,0.1-0.2c0.1,0,0.2,0,0.3,0.1c0,0.1,0,0.3-0.1,0.3
		c0.3,1.3,0.9,2.6,1.6,3.9c16.3-2.1,30.2-12.5,37-26.8c0,0,0,0,0,0c-1-0.9-2.1-1.7-3.1-2.3c0,0-0.1,0-0.1,0c-0.1,0-0.2-0.1-0.2-0.2
		c0-0.1,0.1-0.2,0.2-0.2c0,0,0,0,0.1,0c1.1-2.7,1.9-5.6,2.5-8.5c-0.1,0-0.2-0.1-0.2-0.2c0-0.1,0.1-0.2,0.2-0.2
		c0.1,0,0.2,0.1,0.2,0.2c0,0,0,0,0,0c1.3,0.1,2.7,0,4.2-0.3c0.5-2.9,0.8-5.8,0.8-8.8c0-13.6-5.7-25.9-14.9-34.6
		c-1.1,0.6-2.3,1.5-3.1,2.2c0,0,0,0.1,0,0.1c0,0.1-0.2,0.2-0.3,0.1c-0.1,0-0.2-0.2-0.2-0.3c0,0,0,0,0-0.1c-2.3-1.9-4.7-3.5-7.4-5
		c0,0.1-0.1,0.1-0.2,0.1c-0.1,0-0.2-0.2-0.2-0.3c0.1-0.1,0.2-0.2,0.3-0.2c0,0,0,0,0,0c0.5-1.3,0.8-2.6,1-4.1c0,0,0,0,0.1-0.1
		c-1.9-1.1-3.9-2-6-2.8c7.6-4.5,11.8-12.7,11.9-16.8c0.1-5-4.5-13.2-0.8-17c3.7-3.7,8.4-3,13.9-1c5.5,2,1.2,3.4,11.4,14.6
		c10.2,11.2,13.3,1.2,13.3,1.2l-7.1-26.4c-0.2,0.2-1.7,0.7-11.4,1.2c-12.8,0.7-16.8-8.9-24.2-8.5s-8.5,6.3-8.5,12.7
		c0,6.5-9.2,7.5-9.2,7.5c3.3,7.5,4.5,23.1,4.9,30.5c-3.6-0.9-7.3-1.4-11.2-1.4c-8.8,0-17.1,2.5-24.2,6.7c0,0,0,0,0,0
		c0.3,1.3,0.8,2.6,1.3,3.6c0,0,0.1,0,0.1,0c0.1,0.1,0.1,0.2,0.1,0.3c-0.1,0.1-0.2,0.2-0.3,0.1c0,0,0,0,0,0c-2.4,1.7-4.7,3.6-6.8,5.7
		c0.1,0.1,0.1,0.2,0,0.3c-0.1,0.1-0.2,0.1-0.3,0.1c-0.1-0.1-0.1-0.2,0-0.3c-1.1-0.8-2.3-1.5-3.7-2.1c-8.5,8.7-13.7,20.5-13.7,33.5
		c0,3,0.3,5.9,0.8,8.8c0,0,0,0,0,0c1.3,0.1,2.7,0.1,3.9,0c0,0,0-0.1,0.1-0.1c0.1-0.1,0.2,0,0.3,0c0.1,0.1,0,0.2-0.1,0.3c0,0,0,0,0,0
		c0.7,2.8,1.7,5.6,3,8.3c0.1,0,0.2,0,0.3,0.1c0.1,0.1,0,0.2,0,0.3c-0.1,0.1-0.2,0.1-0.3,0c-1.1,0.7-2.2,1.7-3.3,2.8c0,0,0,0,0,0
		c5.3,11,14.7,19.7,26.1,24.1c-7.6,4.5-11.7,12.6-11.9,16.7c-0.1,5,4.5,13.2,0.8,17c-3.7,3.7-8.4,3-13.9,1c-5.5-2-1.2-3.4-11.4-14.6
		c-10.2-11.2-13.3-1.2-13.3-1.2l7.1,26.4C340.7,493.4,342.2,493,351.9,492.4z M430,398.7c2.7,8.4,5.8,12.1,9.6,13.5
		c0.1-0.1,0.2-0.2,0.3-0.2c0.2,0,0.3,0.1,0.3,0.3c0,0.2-0.1,0.3-0.3,0.3c0,0,0,0,0,0v0.1c-0.6,2.7-1.4,5.3-2.6,7.9
		c0.1,0.1,0.1,0.2,0.1,0.3c0,0.2-0.1,0.3-0.3,0.3c-0.2,0-0.3-0.1-0.3-0.3c-4.8-1-10.5,0.9-16.6,5.6l-4.6-5.5
		c4.9-6.4,9.6-13,9.3-20.8L430,398.7z M404.5,373.9c8.9-0.1,13.3-1.9,15.8-5.1c-0.1-0.1-0.1-0.2-0.1-0.3c0.1-0.2,0.2-0.3,0.4-0.2
		c0.2,0.1,0.3,0.2,0.2,0.4c0,0,0,0,0,0c0,0,0,0,0,0c2.4,1.4,4.7,3,6.8,4.9c0.1-0.1,0.2-0.1,0.3-0.1c0.2,0.1,0.3,0.3,0.2,0.4
		c0,0.2-0.2,0.3-0.4,0.2c-2.4,4.3-2.3,10.3,0.4,17.5l-6.6,2.7c-4.6-6.6-9.5-13-17-15.1L404.5,373.9z M410.9,426.3l3.1,4.4
		c-7.1,5.2-9.7,9.4-9.8,13.4c0.1,0,0.2,0.1,0.2,0.2c0.1,0.2,0,0.4-0.2,0.4c-0.2,0-0.4,0-0.4-0.2c0,0,0,0,0,0c0,0,0,0-0.1,0
		c-2.8,0.3-5.5,0.3-8.3,0c0,0.1-0.1,0.2-0.2,0.2c-0.2,0-0.4,0-0.4-0.2c-0.1-0.2,0-0.4,0.2-0.4c0,0,0,0,0,0c-0.5-4.9-4.2-9.7-10.5-14
		l3.8-6.1C395.8,426.6,403.6,429,410.9,426.3z M371.4,374.2c0.1-0.1,0.3-0.2,0.5-0.1c0,0,0,0,0,0c0,0,0,0,0,0c2-2,4.2-3.7,6.5-5.2
		c0-0.1,0-0.2,0-0.3c0.1-0.2,0.3-0.2,0.5-0.1c0.1,0.1,0.2,0.3,0.1,0.5c0,0,0,0,0,0c3.5,3.5,9.3,5,16.9,4.4l0.8,7.1
		c-7.6,2.6-15.1,5.6-19.2,12.2l-5.2-1.5c2.4-8.6,1.8-13.3-0.6-16.6c-0.1,0.1-0.2,0.1-0.3,0C371.4,374.6,371.4,374.3,371.4,374.2z
		 M378.9,425.4c-7.2-5.2-11.9-6.3-15.8-5.1c0,0.1,0,0.2-0.1,0.3c-0.2,0.1-0.4,0.1-0.5-0.1c-0.1-0.1-0.1-0.3,0.1-0.5c0,0,0,0,0,0
		c0,0,0,0,0,0c-1.2-2.6-2-5.2-2.6-7.9c-0.1,0-0.2,0-0.3-0.1c-0.1-0.2-0.1-0.4,0.1-0.5c0.1-0.1,0.4-0.1,0.5,0.1
		c4.4-2.1,7.9-7,10-14.4l6.9,1.7c-0.1,8,0,16.1,4.9,22.2L378.9,425.4z"/>
	<path fill="#F08300" d="M436.4,252.9c0,0,2.4,12.8,7.1,13.5l14.4-3.9l-3.4-12.5c0,0-12-3.8-14.2-6.6c-2.3-2.9-18.5,3.5-18.5,3.5
		s-19,3.6-18.6,25.4l-36.7,9.8c0,0,18.6-12.4,20.1-34.8c1.5-22.3-1.9-36.8,20.3-43.3c0,0,4.2-2.1,3.2-5.8c-1-3.7-4.6-5-6.7-4.4
		c-2.1,0.6-19.8,3.3-23.8,18.8c-4.1,15.5,1.6,31.9-3.7,41.1c-5.3,9.1-16.2,20.3-19,24.8c-2.8,4.5-5.5,11.9-2.5,24.3
		c3.1,12.4,7,19.5,9.8,22.8c2.8,3.2,8.4,19.4,6.8,26.3c-1.6,6.9-14,18.4-24.7,20.3c-10.7,1.9-19.8-2.4-33-0.4
		c-13.1,2-26.7,3.7-35.1,16.6c-8.5,13-1.4,39.2,13.2,48.5c14.7,9.3,37.2,2.2,37.2,2.2s5.8-2.5,2.9,3.4c-2.9,6-12.8,20.1-13.5,23.8
		c-0.8,3.7-6.2,2.2-6.2,2.2s-4.7,0.2-7.7,1.1c-3,0.8-5.2,2.9-6,5.6c-0.8,2.7-0.1,9.7,0.9,10.7c0,0,15.2-2.6,16.2-0.9l9.8-2.6
		c0,0,7.1-29.3,28.4-42.5c0,0-3.3-6.6-4.3-12.3c-1-5.7-2.4-20.3-11-24.4c-8.6-4.2-7.7-8.4-0.9-5.2c4.6,2.1,8.2,4,11.8,11.3
		c-0.2-1.8-0.3-3.7-0.3-5.5c0-28.2,22.9-51.3,51-51.3c2.5,0,4.9,0.2,7.3,0.5c-1.1-10.8-4.1-24.1-9.7-41.4c0,0,25.4-11.3,25-31.1
		C422.1,260.7,422.9,252.6,436.4,252.9z"/>
	<path fill="#F08300" d="M267.8,183.8v-51.3h-14.6V183h0c-0.3,11-7.4,19.7-16.1,19.7v7.3C254.1,210.1,267.8,198.3,267.8,183.8z"/>
	<path fill="#F08300" d="M308.2,125.1c21.5-20.4,53.1-33.3,88.5-33.3c30.3,0,57.9,9.5,78.7,25c-22-19.1-52.8-30.9-86.8-30.9
		c-39.7,0-75,16.1-97.1,41c3.8-1.4,8-2.2,12.3-2.2C305.2,124.8,306.7,124.9,308.2,125.1z"/>
	<path fill="#F08300" d="M455.9,137.6c2.7,3.3,4.7,7,6.1,11c3.1-3.3,7.5-5.3,12.3-5.3c9.4,0,17,7.6,17,17c0,9.4-7.6,17-17,17
		c-9.4,0-17-7.6-17-17c0-16.1-13.1-29.3-29.3-29.3c-16.1,0-29.2,13.1-29.2,29.3c0,16.2,13.1,29.3,29.2,29.3c7,0,13.5-2.4,18.5-6.6
		c-2.7-3.3-4.8-7-6.2-11c-3.1,3.3-7.5,5.3-12.4,5.3c-9.3,0-16.9-7.6-16.9-17c0-9.4,7.6-17,16.9-17c9.4,0,17,7.6,17,17
		c0,16.2,13.1,29.3,29.3,29.3c16.2,0,29.3-13.1,29.3-29.3c0-16.1-13.1-29.3-29.3-29.3C467.4,131.1,460.9,133.5,455.9,137.6z"/>
	<path fill="#F08300" d="M392.2,188.1v-38.1c0-9.7-7.9-17.6-17.6-17.6h-35.1v55.6h12.3v-43.9h19.3c4.8,0,8.8,3.9,8.8,8.8v35.1H392.2
		z"/>
	<path fill="#F08300" d="M522.5,144.2h19.3c4.8,0,8.8,3.9,8.8,8.8v35.1H563v-38.1c0-9.7-7.9-17.6-17.6-17.6h-35.1v55.6h12.3V144.2z"
		/>
	<path fill="#F08300" d="M303.7,189.6c16.1,0,29.3-13.1,29.3-29.3c0-16.1-13.1-29.3-29.3-29.3c-16.2,0-29.3,13.1-29.3,29.3
		C274.4,176.5,287.5,189.6,303.7,189.6z M303.7,143.3c9.4,0,17,7.6,17,17c0,9.4-7.6,17-17,17c-9.4,0-17-7.6-17-17
		C286.7,150.9,294.3,143.3,303.7,143.3z"/>
	<path fill="#F08300" d="M212.5,573.7c1.4-1.4,2.7-2.7,3.9-3.9c2.4-2.4,4.2-4.1,5.3-5.2c1.1-1.1,2.2-2.1,3.2-3.1l-3-3
		c-1,1-2.1,2.1-3.3,3.3c-1.2,1.2-3.1,3.2-5.7,5.8c-1.1,1.1-2.3,2.3-3.5,3.5c-1.2,1.2-2.5,2.5-3.8,3.8c-1.2,1.2-2.3,2-3.2,2.5
		c-1,0.5-2,0.7-3,0.7c-1.1,0-2.1-0.3-3.2-0.9c-1-0.6-2.3-1.5-3.8-2.6l-2.1,2.9c2.2,1.8,4.1,3,5.9,3.6c1.8,0.6,3.4,0.9,4.8,0.8
		c1.4-0.1,2.7-0.5,3.9-1.2c1.2-0.7,2.3-1.5,3.4-2.6C209.7,576.5,211.1,575.1,212.5,573.7z"/>
	<path fill="#F08300" d="M233.3,597.3c1.3-1.6,2.3-3.3,2.9-5c0.6-1.7,0.8-3.6,0.7-5.5c-0.1-1.6-0.5-3.2-1.3-4.6
		c-0.8-1.4-1.8-2.7-3.2-3.8c-1.3-1.1-2.8-1.9-4.4-2.4c-1.6-0.5-3.3-0.6-4.9-0.4c-1.9,0.2-3.6,0.8-5.1,1.7c-1.6,0.9-3,2.1-4.2,3.7
		c-1.3,1.6-2.3,3.4-2.9,5.3c-0.6,1.9-0.8,3.8-0.6,5.6c0.2,1.6,0.7,3,1.4,4.4c0.8,1.4,1.8,2.6,3.1,3.7c1.4,1.1,2.8,1.9,4.2,2.4
		c1.4,0.5,3,0.6,4.6,0.5c1.9-0.1,3.7-0.7,5.4-1.7C230.5,600.2,232,598.9,233.3,597.3z M226.5,597.8c-1.3,0.8-2.7,1.2-4.1,1.4
		c-1,0.1-2,0-3-0.3c-1-0.3-1.9-0.8-2.7-1.5c-0.8-0.6-1.4-1.4-1.9-2.2c-0.5-0.8-0.8-1.7-0.9-2.6c-0.2-1.6-0.1-3.2,0.4-4.6
		c0.5-1.5,1.4-2.9,2.5-4.3c1-1.2,2.2-2.2,3.5-3c1.3-0.8,2.7-1.3,4-1.4c1.1-0.1,2.2-0.1,3.1,0.2c0.9,0.3,1.9,0.8,2.8,1.6
		c0.8,0.6,1.4,1.4,1.9,2.3c0.5,0.9,0.8,1.8,0.9,2.7c0.2,1.5,0,3.1-0.6,4.6c-0.6,1.5-1.4,2.9-2.4,4.2C229,596,227.8,597,226.5,597.8z
		"/>
	<path fill="#F08300" d="M260.5,601.5c-0.3-1.9-1.4-3.5-3.3-4.7c-0.9-0.6-2.2-1.1-3.9-1.6c-1.7-0.5-3.9-0.8-6.7-1l0-0.1l1.7-2.5
		l-3.3-2.2c-1.5,2.3-3,4.5-4.3,6.6c-1.4,2-2.6,3.8-3.6,5.4c-2.2,3.3-3.9,5.8-5.1,7.5c-1.2,1.7-1.8,2.5-1.8,2.6l3.4,2.3
		c0.1-0.1,0.9-1.4,2.5-3.8c1.6-2.4,2.9-4.5,4.1-6.2c0.9-1.3,1.8-2.7,2.9-4.3c1.1-1.6,1.6-2.4,1.7-2.6c1.9,0.1,3.6,0.4,5.3,0.7
		c1.7,0.4,2.9,0.9,3.8,1.5c1.5,1,2.3,2.1,2.4,3.2c0.1,1.1-0.4,2.5-1.4,4.2c-0.5,0.7-1.2,1.8-2.2,3.2c-1,1.5-1.7,2.6-2.2,3.3
		c-0.4,0.5-1.3,1.9-2.9,4.2c-1.5,2.3-2.5,3.6-2.7,4l3.4,2.3c0.1-0.1,0.7-1.2,2-3.2c1.3-2,2.4-3.7,3.3-5c0.6-0.8,1.3-1.9,2.2-3.2
		c0.9-1.3,1.9-2.9,3.2-4.7C260.3,605.4,260.8,603.4,260.5,601.5z"/>
	<path fill="#F08300" d="M283.9,616.3c-0.4-1.6-1.2-3-2.2-4.2c-1-1.2-2.3-2.3-3.9-3.1c-1.5-0.8-3.1-1.3-4.8-1.5
		c-1.7-0.2-3.3,0-4.9,0.6c-1.8,0.6-3.4,1.4-4.7,2.6c-1.3,1.2-2.5,2.7-3.4,4.4c-1,1.8-1.6,3.7-1.8,5.7c-0.3,2-0.1,3.9,0.5,5.6
		c0.5,1.5,1.2,2.9,2.3,4.1c1,1.2,2.3,2.2,3.7,3c1.6,0.8,3.1,1.4,4.6,1.5c1.5,0.2,3,0,4.6-0.4c1.8-0.5,3.5-1.4,5-2.7
		c1.5-1.3,2.8-2.8,3.7-4.6c1-1.8,1.6-3.6,1.8-5.5C284.5,620,284.4,618.1,283.9,616.3z M280.2,620.9c-0.3,1.6-0.8,3.1-1.6,4.6
		c-0.7,1.4-1.7,2.6-2.8,3.6c-1.1,1-2.4,1.7-3.7,2.1c-1,0.3-2,0.4-3,0.3c-1-0.1-2-0.4-3-1c-0.9-0.5-1.6-1.1-2.3-1.7
		c-0.6-0.7-1.1-1.5-1.4-2.4c-0.6-1.5-0.7-3.1-0.5-4.6c0.2-1.6,0.8-3.1,1.6-4.7c0.7-1.4,1.7-2.6,2.9-3.6c1.2-1,2.4-1.7,3.6-2.1
		c1.1-0.3,2.1-0.5,3.1-0.4s2,0.4,3,1c0.9,0.5,1.7,1.1,2.3,1.9c0.7,0.8,1.1,1.6,1.4,2.5C280.4,617.7,280.5,619.2,280.2,620.9z"/>
	<path fill="#F08300" d="M308.8,627.2c-0.6-1.6-1.5-2.9-2.6-4c-1.1-1.1-2.5-2-4.2-2.7c-1.6-0.7-3.3-1-4.9-1c-1.7,0-3.3,0.3-4.9,1
		c-1.7,0.7-3.2,1.8-4.4,3.1c-1.2,1.3-2.2,2.9-3,4.7c-0.8,1.9-1.2,3.9-1.3,5.9c0,2,0.3,3.9,1,5.5c0.6,1.5,1.5,2.7,2.7,3.8
		c1.1,1.1,2.5,2,4,2.6c1.6,0.7,3.2,1,4.7,1c1.5,0,3-0.3,4.5-0.8c1.8-0.7,3.3-1.7,4.7-3.2c1.4-1.4,2.5-3.1,3.3-4.9
		c0.8-1.9,1.2-3.8,1.3-5.6C309.8,630.8,309.5,629,308.8,627.2z M305.6,632.1c-0.1,1.6-0.5,3.2-1.1,4.7c-0.6,1.5-1.4,2.7-2.5,3.9
		c-1,1.1-2.2,1.9-3.5,2.5c-0.9,0.4-1.9,0.6-3,0.6c-1,0-2.1-0.2-3.1-0.7c-0.9-0.4-1.7-0.9-2.4-1.5c-0.7-0.6-1.2-1.4-1.6-2.2
		c-0.7-1.5-1-3-0.9-4.6c0.1-1.6,0.5-3.2,1.1-4.8c0.6-1.4,1.4-2.7,2.5-3.9c1.1-1.2,2.2-2,3.4-2.5c1.1-0.5,2.1-0.7,3-0.7
		c1,0,2,0.2,3.1,0.7c0.9,0.4,1.8,0.9,2.5,1.6c0.7,0.7,1.3,1.5,1.7,2.3C305.5,629,305.8,630.5,305.6,632.1z"/>
	<path fill="#F08300" d="M330.9,630.7c-1-0.3-2.4-0.4-4.2-0.4c-1.7,0-4,0.4-6.7,1v-0.1l0.9-2.9l-3.8-1.2c-0.8,2.7-1.5,5.2-2.2,7.6
		c-0.7,2.4-1.3,4.4-1.8,6.2c-1.2,3.8-2,6.7-2.6,8.6c-0.6,1.9-0.9,3-1,3.1l3.9,1.2c0-0.2,0.5-1.6,1.3-4.4c0.8-2.8,1.5-5.1,2.1-7.1
		c0.5-1.5,0.9-3.2,1.5-5c0.5-1.8,0.8-2.8,0.9-3c1.8-0.5,3.6-0.7,5.3-0.9c1.7-0.1,3.1,0,4.1,0.3c1.7,0.5,2.8,1.3,3.2,2.3
		c0.4,1,0.4,2.5-0.1,4.5c-0.2,0.8-0.6,2-1.1,3.7c-0.5,1.7-0.9,3-1.2,3.8c-0.2,0.6-0.7,2.3-1.5,4.9c-0.8,2.6-1.3,4.2-1.5,4.6l3.9,1.2
		c0-0.1,0.4-1.3,1-3.6c0.7-2.3,1.2-4.2,1.7-5.7c0.3-0.9,0.7-2.2,1.1-3.7c0.5-1.5,1-3.4,1.7-5.5c0.7-2.3,0.6-4.4-0.3-6.1
		C334.6,632.5,333.1,631.3,330.9,630.7z"/>
	<path fill="#F08300" d="M365.5,630.1c-2-0.2-4-0.4-5.8-0.6c-1.8-0.2-3.4-0.4-4.6-0.5c-0.3,3.5-0.6,6.8-0.9,10
		c-0.3,3.3-0.6,5.8-0.8,7.8c-0.5,5-0.9,8.9-1.2,11.6c-0.3,2.7-0.5,4.5-0.6,5.6l4.3,0.4c0.2-1.7,0.3-3.9,0.6-6.6
		c0.2-2.7,0.5-5.6,0.8-8.7c0.2,0,0.8,0.1,1.8,0.2c1,0.1,1.8,0.2,2.5,0.3c2.3,0.2,4.9,0.5,7.7,0.8c2.9,0.3,4.5,0.5,4.8,0.5l0.4-3.7
		c-0.3,0-1.7-0.1-4.2-0.4c-2.5-0.2-5.2-0.5-8.1-0.8c-0.9-0.1-1.8-0.2-2.8-0.3c-1-0.1-1.6-0.2-1.8-0.2c0.2-1.8,0.4-3.8,0.7-6.1
		c0.3-2.3,0.5-4.4,0.7-6.4c0.8,0.1,1.7,0.2,2.8,0.3c1.1,0.1,2.3,0.2,3.6,0.4c2.9,0.3,5.3,0.6,7.3,0.8c2,0.2,3.1,0.4,3.4,0.4l0.4-3.7
		c-0.3,0-1.4-0.1-3.4-0.3C371,630.7,368.5,630.4,365.5,630.1z"/>
	<path fill="#F08300" d="M399.3,644.4c-1.1-1.3-2.4-2.2-3.8-2.9c-1.4-0.7-3.1-1-4.9-1.1c-1.7-0.1-3.4,0.2-5,0.8
		c-1.6,0.6-3,1.5-4.2,2.6c-1.4,1.3-2.4,2.8-3.1,4.4c-0.7,1.7-1.1,3.5-1.2,5.5c-0.1,2.1,0.2,4.1,0.8,6c0.6,1.9,1.6,3.5,2.9,4.9
		c1.1,1.2,2.4,2,3.8,2.7c1.4,0.6,3,1,4.7,1.1c1.8,0.1,3.4-0.1,4.8-0.6c1.4-0.5,2.7-1.3,3.9-2.3c1.4-1.2,2.5-2.8,3.4-4.6
		c0.8-1.8,1.2-3.7,1.3-5.8c0.1-2.1-0.1-4-0.7-5.7C401.5,647.4,400.6,645.8,399.3,644.4z M398.6,654.9c-0.1,1.6-0.4,3.1-1,4.5
		c-0.6,1.4-1.4,2.6-2.4,3.6c-0.8,0.7-1.6,1.2-2.6,1.5c-1,0.3-2,0.5-3.1,0.4c-1,0-1.9-0.3-2.8-0.6c-0.9-0.4-1.6-0.9-2.3-1.5
		c-1.2-1.1-2-2.5-2.4-4c-0.5-1.5-0.7-3.2-0.6-4.9c0.1-1.6,0.4-3.1,1-4.5c0.6-1.4,1.4-2.6,2.3-3.5c0.8-0.8,1.7-1.3,2.6-1.7
		c0.9-0.4,2-0.5,3.2-0.4c1,0,2,0.3,2.9,0.7c0.9,0.4,1.7,0.9,2.4,1.6c1.1,1.1,1.8,2.5,2.3,4C398.5,651.6,398.7,653.2,398.6,654.9z"/>
	<path fill="#F08300" d="M430,647.4c-0.8-1.7-1.9-3.1-3.3-4.4c-1.2-1.1-2.6-1.9-4.1-2.4c-1.5-0.5-3.2-0.7-5-0.5
		c-1.7,0.1-3.3,0.6-4.8,1.3c-1.5,0.8-2.8,1.8-3.9,3.1c-1.2,1.4-2.1,3-2.5,4.8c-0.5,1.7-0.7,3.6-0.5,5.6c0.2,2.1,0.7,4,1.5,5.8
		c0.9,1.8,2,3.3,3.4,4.5c1.2,1,2.6,1.7,4.1,2.2c1.5,0.5,3.1,0.6,4.8,0.5c1.8-0.1,3.3-0.5,4.7-1.2c1.3-0.7,2.6-1.6,3.6-2.8
		c1.2-1.4,2.2-3,2.8-4.9c0.6-1.9,0.8-3.9,0.7-5.9C431.2,650.9,430.8,649,430,647.4z M426.8,658c-0.4,1.4-1.1,2.7-2,3.8
		c-0.7,0.8-1.4,1.4-2.4,1.9c-0.9,0.4-1.9,0.7-3,0.8c-1,0.1-1.9,0-2.9-0.3c-0.9-0.3-1.7-0.7-2.4-1.2c-1.3-1-2.3-2.2-2.9-3.7
		c-0.6-1.4-1-3-1.2-4.8c-0.1-1.6,0-3.1,0.5-4.6c0.4-1.5,1.1-2.7,1.9-3.8c0.7-0.9,1.5-1.5,2.4-2c0.8-0.4,1.9-0.7,3.1-0.8
		c1-0.1,2,0,3,0.3c1,0.3,1.8,0.7,2.5,1.4c1.2,1,2.1,2.2,2.8,3.7c0.6,1.5,1,3.1,1.2,4.7C427.4,655,427.2,656.5,426.8,658z"/>
	<path fill="#F08300" d="M451.5,659.7c-0.4,0.1-0.8,0.1-1.1,0.2c-2.5,0.4-4.5,0.3-5.9-0.5c-1.4-0.8-2.3-2.3-2.7-4.6
		c-0.2-1.5-0.5-2.7-0.7-3.8c-0.2-1.1-0.3-1.9-0.5-2.7c-0.1-0.9-0.4-2.2-0.6-4c-0.3-1.8-0.5-2.9-0.5-3.3l9.3-1.6l-0.5-3l-9.3,1.6
		l-1.1-6.2l-3.8,0.6l1,6.2l-4.5,0.7l0.5,3l4.3-0.7c0.6,3.2,1,6,1.3,8.2c0.3,2.2,0.7,4.3,1,6.2c0.5,3.1,1.8,5.2,3.9,6.3
		c2.1,1.2,4.9,1.5,8.4,0.8c0.3-0.1,0.8-0.1,1.2-0.2c0.5-0.1,0.8-0.2,0.9-0.2l-0.1-3.3C452.2,659.6,451.9,659.6,451.5,659.7z"/>
	<path fill="#F08300" d="M474.1,637.7c-1.2-1.4-2.6-2.3-4.3-3c-1.6-0.6-3.6-1-5.8-1c-2.2,0-5.1,0.4-8.6,1.3l-3-11.7l-4,1.1
		c0.8,3,1.6,5.9,2.4,8.7c0.8,2.9,1.5,5.8,2.4,8.8c1.3,5,2.4,9.2,3.3,12.8c0.9,3.5,1.5,5.9,1.9,7.3c0.4-0.1,0.7-0.2,1.1-0.3
		c0.4-0.1,0.8-0.2,1.1-0.3c2.7-0.7,5-1.5,6.8-2.3c1.9-0.8,3.4-1.7,4.8-2.8c2.1-1.6,3.5-3.6,4.3-5.9c0.8-2.4,0.9-4.9,0.1-7.7
		C476.2,640.7,475.3,639.1,474.1,637.7z M472.8,649.2c-0.4,1.6-1.3,3.1-2.7,4.4c-1,0.9-2.2,1.7-3.6,2.4c-1.5,0.7-3.1,1.3-5,1.8
		c-0.3-1.2-0.7-2.4-1-3.5c-0.3-1.2-0.9-3.2-1.6-6c-0.4-1.5-0.9-3.4-1.5-5.8c-0.6-2.3-0.9-3.7-1-4.1c0.2,0,0.3-0.1,0.6-0.1
		c0.2-0.1,0.4-0.1,0.7-0.2c1.2-0.3,2.3-0.5,3.5-0.6c1.2-0.1,2.2-0.1,3.3,0c2,0.1,3.7,0.8,5.3,1.8c1.5,1.1,2.5,2.7,3.1,4.7
		C473.1,645.8,473.2,647.6,472.8,649.2z"/>
	<path fill="#F08300" d="M498,633.3c-0.9-2.4-1.8-4.1-2.7-5.2c-0.9-1.1-2-1.9-3.3-2.4c-1.3-0.5-2.8-0.7-4.5-0.6
		c-1.7,0.2-3.5,0.6-5.4,1.3c-1.3,0.5-2.3,0.8-3,1.2c-0.7,0.3-1.2,0.5-1.4,0.6l0.8,3.4c0.9-0.4,1.6-0.7,2.1-0.9
		c0.5-0.2,1.1-0.5,1.9-0.7c1.2-0.4,2.2-0.8,3.2-1c0.9-0.2,1.8-0.3,2.6-0.2c1.2,0,2.2,0.4,3.1,1c0.8,0.6,1.6,1.6,2.1,2.8
		c-2.2,1-4.2,2-5.8,3c-1.7,1-2.9,1.9-3.8,2.8c-1.4,1.3-2.5,2.8-3,4.3c-0.5,1.5-0.5,3,0,4.6c0.6,1.5,1.4,2.6,2.6,3.3
		c1.2,0.8,2.6,1.2,4.1,1.3c1.2,0.1,2.5,0,3.9-0.2c1.4-0.3,2.9-0.6,4.2-1.1c2.2-0.8,3.9-1.5,5.2-2.2c1.3-0.6,2-1,2.2-1.1
		c-0.1-0.2-0.6-1.6-1.5-4.1C500.7,640.7,499.5,637.4,498,633.3z M496.9,646.9c-0.5,0.2-0.9,0.3-1.2,0.5c-1.1,0.4-2.1,0.7-3.2,1
		c-1,0.2-2,0.4-2.9,0.4c-1.2,0-2.2-0.2-3.1-0.6c-0.9-0.5-1.5-1.3-1.9-2.4c-0.4-1-0.3-2,0.1-3c0.5-1,1.1-1.8,1.9-2.5
		c1.1-0.9,2.4-1.9,4.2-2.8c1.7-0.9,2.9-1.5,3.6-1.8c0.4,1.1,0.8,2.1,1.1,3c0.3,0.9,0.6,1.6,0.8,2.1c0.6,1.7,1.1,3,1.5,3.9
		c0.4,1,0.6,1.5,0.6,1.6C497.9,646.5,497.4,646.7,496.9,646.9z"/>
	<path fill="#F08300" d="M505.8,624.2c-1-2.2-2.2-5-3.6-8.2c-1.4-3.2-2.7-6.1-3.7-8.6l-3.7,1.7c1.6,3.6,3.1,6.8,4.4,9.7
		c1.3,2.9,2.4,5.3,3.2,7.2c1.3,3,2.9,6.7,4.9,11.2c2,4.5,3,6.8,3,7l3.7-1.7c-0.1-0.2-0.9-2.1-2.6-5.7
		C509.8,633.3,507.9,629,505.8,624.2z"/>
	<path fill="#F08300" d="M515.7,619.5c-1.1-2.2-2.4-4.9-3.9-8.1c-1.5-3.2-2.9-6-4-8.4l-3.7,1.8c1.8,3.5,3.4,6.7,4.8,9.6
		c1.4,2.8,2.5,5.2,3.5,7.1c1.4,2.9,3.2,6.6,5.3,11c2.1,4.4,3.2,6.7,3.3,6.9l3.7-1.8c-0.1-0.2-1-2-2.8-5.6
		C520.1,628.4,518.1,624.3,515.7,619.5z"/>
	<path fill="#F08300" d="M557.8,614.6c-0.4,0.3-0.8,0.5-1.1,0.6c-2,1.1-4,2-5.8,2.8c-2,0.6-4.4,1.5-6.1,1.6
		c-2.2,0.2-4.4-0.2-6.4-1.2c-1.9-1-3.6-2.6-4.9-4.9c-1.1-2-1.6-4.1-1.4-6.4c0.2-2.3,1.5-4.9,3-6.8c1.1-1.4,2.3-2.7,3.7-3.8
		c1.5-1.1,3.2-2.3,5.4-3.5c0.1-0.1,0.3-0.1,0.4-0.3c0.3-0.1,0.4-0.1,0.5-0.2l-2.5-3.8c-0.1,0.1-0.3,0.3-0.5,0.4
		c-0.3,0.1-0.4,0.3-0.7,0.4c-2.6,1.5-5,3.3-7.2,5.3c-2.3,2-3.9,4.1-5,6.3c-1.2,2.5-1.9,4.9-2,7.7s0.5,5.2,1.9,7.6
		c1.5,2.6,3.6,4.6,6.1,6s5.4,2.1,8.6,2c2.4-0.1,4.7-0.6,7.2-1.3c2.5-0.7,5-1.9,7.5-3.4c0.3-0.1,0.5-0.2,0.9-0.5
		c0.4-0.1,0.7-0.2,0.8-0.4l-1.9-4.2C558.5,614.5,558.3,614.6,557.8,614.6z"/>
	<path fill="#F08300" d="M560.7,593.7c-1.5-2.1-3.1-4.4-5.2-7.4c-2.1-2.9-3.9-5.5-5.4-7.6l-3.3,2.4c2.3,3.1,4.4,6.1,6.3,8.6
		s3.3,4.7,4.6,6.4c1.9,2.6,4.3,6,7.1,10c2.8,4,4.3,6.1,4.4,6.3l3.3-2.4c-0.1-0.2-1.4-1.9-3.5-5C566.5,601.7,563.8,598,560.7,593.7z"
		/>
	<path fill="#F08300" d="M590.3,585.2c-1.1-1.3-2.4-2.8-3.8-4.6c-2.6-3.1-4.4-5.4-5.4-6.6c-1-1.4-1.7-2.1-1.9-2.3l-3.1,2.6
		c0.1,0.2,1,1.3,2.7,3.2s3.1,3.6,4.3,5.1c1.7,1.9,3,3.6,4.2,5c1.1,1.4,1.8,2,1.9,2.2c-0.4,1-0.9,2.4-1.9,4.3c-0.8,1.8-2,3.2-3.2,4.2
		c-1.2,0.9-2.4,1.4-3.5,1c-1.1-0.3-2.3-1.2-3.7-2.8c-0.4-0.6-1.2-1.6-2.4-2.9c-1.1-1.5-2.2-2.5-2.9-3.5c-0.8-1.1-2-2.5-3.4-4.3
		s-2.3-2.7-2.4-2.9l-3.2,2.6c0.2,0.2,1.1,1.3,2.6,3c1.5,1.8,2.7,3.2,3.7,4.5c0.6,0.7,1.5,1.8,2.7,3.2c1.2,1.6,2.3,2.8,3.2,3.9
		c1.7,1.9,3.5,3.1,5.4,3.3c1.9,0.2,3.8-0.4,5.6-1.9c1.4-1.1,2.5-2.6,3.4-4.4c0.8-1.8,1.5-3.4,1.9-4.9l2,2.3l3.1-2.5
		C593.4,588.6,591.4,586.3,590.3,585.2z"/>
	<path fill="#F08300" d="M609.9,561.2c-1.5-1.5-3-2.5-4.5-2.9c-1.6-0.6-3.4-0.8-5.2-0.5c-1.8,0.2-3.6,0.9-5.6,2
		c-1.9,1-4.2,2.8-6.8,5.3l-8.4-8.7l-3,2.9c2.2,2.2,4.3,4.3,6.4,6.4c2,2.1,4.2,4.3,6.4,6.5c3.6,3.7,6.7,6.9,9.2,9.5
		c2.5,2.6,4.3,4.4,5.2,5.4c0.2-0.3,0.5-0.5,0.8-0.8c0.2-0.3,0.5-0.5,0.8-0.8c2-2,3.6-3.8,4.8-5.4s2.2-3.2,2.8-4.8
		c1-2.4,1.2-4.8,0.8-7.3C613.2,565.4,611.9,563.1,609.9,561.2z M609.6,573.9c-0.4,1.3-1.1,2.6-2,3.9c-1,1.3-2.1,2.6-3.5,4
		c-0.8-0.9-1.7-1.8-2.6-2.6c-0.9-0.8-2.3-2.3-4.4-4.4c-1.1-1.1-2.4-2.6-4.1-4.3c-1.7-1.7-2.6-2.7-2.9-3c0.1-0.1,0.2-0.2,0.4-0.4
		c0.2-0.2,0.3-0.3,0.5-0.5c0.9-0.9,1.8-1.6,2.7-2.3c0.9-0.7,1.9-1.3,2.8-1.7c1.8-0.9,3.6-1.2,5.5-1c1.8,0.2,3.5,1.1,5,2.6
		c1.4,1.4,2.4,2.9,2.8,4.6C610.1,570.4,610.2,572.1,609.6,573.9z"/>
	<path fill="#F08300" d="M359.7,564.1c2.3,2.9,18.5-3.5,18.5-3.5s19-3.6,18.6-25.4l36.7-9.8c0,0-18.6,12.4-20.1,34.8
		c-1.5,22.3,1.9,36.8-20.3,43.3c0,0-4.2,2.1-3.2,5.8c1,3.7,4.6,5,6.7,4.4c2.1-0.6,19.8-3.3,23.8-18.8c4.1-15.5-1.6-31.9,3.7-41.1
		c5.3-9.1,16.2-20.3,19-24.8c2.8-4.5,5.5-11.9,2.5-24.3c-3.1-12.4-7-19.5-9.8-22.7c-2.9-3.2-8.4-19.4-6.8-26.3
		c1.6-6.9,14-18.4,24.7-20.3c10.7-1.9,19.8,2.4,33,0.4c13.1-2,26.7-3.7,35.1-16.6c8.5-13,1.4-39.2-13.2-48.5
		c-14.7-9.3-37.2-2.2-37.2-2.2s-5.8,2.6-2.9-3.4c2.9-6,12.8-20.1,13.5-23.8c0.8-3.7,6.1-2.1,6.1-2.1s4.7-0.2,7.7-1.1
		c3-0.8,5.2-2.9,6-5.6c0.8-2.7,0.1-9.7-0.9-10.7c0,0-15.2,2.6-16.2,0.9l-9.8,2.6c0,0-7.1,29.3-28.4,42.5c0,0,3.3,6.6,4.3,12.3
		c1,5.7,2.4,20.3,11,24.4c8.6,4.2,7.7,8.4,0.9,5.2c-4.6-2.1-8.3-4.1-11.8-11.4c0.2,1.9,0.3,3.8,0.3,5.7c0,28.1-23.1,51.1-51.2,51.1
		c-2.4,0-4.7-0.2-7-0.5c1.1,10.8,4.1,24.1,9.7,41.4c0,0-25.4,11.3-25,31.1c0.3,19.8-0.5,28-14,27.7c0,0-2.4-12.8-7.1-13.6l-14.4,3.9
		l3.4,12.5C345.4,557.4,357.4,561.2,359.7,564.1z"/>
</g>
<g>
</g>
<g>
</g>
<g>
</g>
<g>
</g>
<g>
</g>
<g>
</g>
</svg>
