<!-- Created by @FCLOGO 2022-02-27 17:26:09 . https://fclogo.top/ -->
<!-- FOR PERSONAL USE ONLY NOT FOR COMMERCIAL USE -->
<svg version="1.1" xmlns="http://www.w3.org/2000/svg" xmlns:xlink="http://www.w3.org/1999/xlink" x="0px" y="0px"
	 viewBox="0 0 800 800" enable-background="new 0 0 800 800" xml:space="preserve">
<g>
	<g>
		<path fill="#004EA2" d="M400.7,50C356.3,79.5,116,118.8,116,118.8s10.1,128.7,19.4,181.6s41.2,216.2,94.1,293.3
			C291.8,699.4,400.7,750,400.7,750s108.9-50.6,171.1-156.4c52.8-77,84.8-240.3,94.1-293.3c9.4-52.8,19.4-181.6,19.4-181.6
			S445.1,79.5,400.7,50L400.7,50z"/>
		<path fill="#E70012" d="M400.7,59.5c22.4,12.4,75.3,27.1,157.4,44c51.8,10.7,100.5,19,118.6,22.1c-2.3,28.2-10.9,128.7-18.7,173.4
			c-4.8,27-15.1,80.8-30.5,136.8c-19.1,69.4-40.1,121-62.2,153.2l-0.2,0.2l-0.1,0.2c-31.3,53.3-75.2,92-106.4,115.2
			c-26.9,19.9-49.4,32-57.7,36.2c-8.3-4.2-30.5-16.2-57.3-36c-31.3-23.1-75.3-61.9-106.7-115.4l-0.1-0.2l-0.2-0.2
			c-22.1-32.2-43.1-83.8-62.2-153.2c-15.5-56-25.8-109.8-30.5-136.8c-7.9-44.6-16.5-145.2-18.7-173.4c18.1-3.1,66.9-11.5,118.6-22.1
			C325.4,86.6,378.3,71.8,400.7,59.5"/>
		<path fill="#004EA2" d="M184.6,109.8c-27.7,5.2-49.8,10.1-60.8,12c0.1,1.5,1.3,7.2,1.4,9.1L315,682.2
			c10.1,8.8,19.6,16.4,28.3,22.7c26.8,19.8,49.1,31.8,57.3,36c0.3-0.2,0.7-0.3,1-0.5L184.6,109.8z"/>
		<path fill="#004EA2" d="M615.6,114.7c27.7,5.2,50.6,6.2,61.6,8.1c-0.1,1.5-0.4,6.2-0.6,8.1L486.8,682.2
			c-10.1,8.8-19.6,16.4-28.3,22.7c-26.8,19.8-49.1,31.8-57.3,36c-0.3-0.2-0.7-0.3-1-0.5L615.6,114.7z"/>
	</g>
	<g>
		<path fill="#FFFFFF" d="M157.3,409.4c-8.6,0-38.1-0.4-38.1-0.4l-24.9,92.9l47.1,0.4c0,0,45.9-7.4,52.2-54.8
			C197.3,415.6,165.8,409.4,157.3,409.4z M163.1,466.5c-9.4,13.7-26,14.8-26,14.8l-14-0.4l14-49.8l18.2,0.4
			C173.1,435.4,172.5,452.8,163.1,466.5z"/>
		<path fill="#004EA2" d="M119.1,409c0,0,29.5,0.4,38.1,0.4c8.6,0,40.1,6.2,36.2,38.1c-6.2,47.5-52.2,54.8-52.2,54.8l-47.1-0.4
			L119.1,409 M137.1,481.3c0,0,16.8-1.2,26-14.8c9.3-13.6,10.1-31.1-7.8-35l-18.2-0.4l-14,49.8L137.1,481.3 M115.6,404.2l-0.9,3.5
			l-24.9,92.9l-1.6,5.8h6l47.1,0.4h0.4l0.4-0.1c0.5-0.1,12.6-2.1,25.5-10.3c12.1-7.7,27-22.2,30.5-48.6c1.4-11.8-1.3-21.5-8-29.1
			c-10.4-11.7-27.1-14.3-32.8-14.3c-8.5,0-37.8-0.4-38.1-0.4L115.6,404.2L115.6,404.2z M129.2,476.4l11.4-40.6l14.2,0.3
			c4.8,1.1,8,3.5,9.3,7c2.1,5.4,0.3,13.4-4.8,20.7c-7.5,10.9-20.6,12.6-22.3,12.8L129.2,476.4L129.2,476.4z"/>
		<path fill="#FFFFFF" d="M534.6,409.4c-8.6,0-38.1-0.4-38.1-0.4l-24.9,92.9l47.1,0.4c0,0,45.9-7.4,52.2-54.8
			C574.7,415.6,543.2,409.4,534.6,409.4z M540.5,466.5c-9.4,13.7-26,14.8-26,14.8l-14-0.4l14-49.8l18.2,0.4
			C550.6,435.4,549.9,452.8,540.5,466.5z"/>
		<path fill="#004EA2" d="M496.5,409c0,0,29.5,0.4,38.1,0.4s40.1,6.2,36.2,38.1c-6.2,47.5-52.2,54.8-52.2,54.8l-47.1-0.4L496.5,409
			 M514.5,481.3c0,0,16.8-1.2,26-14.8c9.4-13.7,10.1-31.1-7.8-35l-18.2-0.4l-14,49.8L514.5,481.3 M492.9,404.2l-0.9,3.5l-24.9,92.9
			l-1.6,5.8h6l47.1,0.4h0.4l0.4-0.1c0.5-0.1,12.6-2.1,25.5-10.3c12.1-7.7,27-22.2,30.5-48.6c1.4-11.8-1.3-21.5-8-29.1
			c-10.4-11.7-27.1-14.3-32.8-14.3c-8.5,0-37.8-0.4-38.1-0.4L492.9,404.2L492.9,404.2z M506.6,476.4l11.4-40.6l14.2,0.3
			c4.8,1.1,8,3.5,9.3,7c2.1,5.4,0.3,13.4-4.8,20.7c-7.5,10.9-20.6,12.6-22.3,12.8L506.6,476.4L506.6,476.4z"/>
		<path fill="#FFFFFF" d="M259.1,409h-19.4l-65.3,93.3H200l13.7-21h34.2l3.1,21h24.1L259.1,409z M227.6,461.4l13.3-20.6l4.3,20.2
			L227.6,461.4z"/>
		<path fill="#004EA2" d="M259.1,409l16,93.3h-24.1l-3.1-21h-34.2l-13.7,21h-25.6l65.3-93.3H259.1 M227.6,461.4l17.5-0.4l-4.3-20.2
			L227.6,461.4 M263.1,404.3h-3.9h-19.4h-2.4l-1.4,2l-65.3,93.3l-5.2,7.4h9h25.6h2.5l1.4-2.1l12.3-18.8h27.6l2.5,17.1l0.6,4h4h24.1
			h5.5l-0.9-5.5l-16-93.3L263.1,404.3L263.1,404.3z M236.3,456.5l2.4-3.7l0.8,3.6L236.3,456.5L236.3,456.5z"/>
		<path fill="#FFFFFF" d="M636.2,409h-19.4l-65.3,93.3h25.6l13.7-21H625l3.1,21h24.1L636.2,409z M604.7,461.4l13.3-20.6l4.3,20.2
			L604.7,461.4z"/>
		<path fill="#004EA2" d="M636.2,409l16,93.3H628l-3.1-21h-34.2l-13.7,21h-25.6l65.3-93.3H636.2 M604.7,461.4l17.5-0.4l-4.3-20.2
			L604.7,461.4 M640.2,404.3h-3.9h-19.4h-2.5l-1.4,2l-65.3,93.3l-5.2,7.4h9h25.6h2.5l1.4-2.1l12.3-18.8h27.6l2.5,17.1l0.6,4h4h24.1
			h5.5l-0.9-5.5l-16-93.3L640.2,404.3L640.2,404.3z M613.4,456.5l2.4-3.7l0.8,3.6L613.4,456.5L613.4,456.5z"/>
		<polygon fill="#FFFFFF" points="304.3,409 324.1,409 350.5,461 364.1,409 387.4,409 363,502.3 343.6,502.3 317.4,449 303.1,502.3 
			279.7,502.3 		"/>
		<path fill="#004EA2" d="M387.4,409l-24.5,93.3h-19.4l-26-53.2l-14.4,53.2h-23.3l24.5-93.3h19.8l26.4,52.2l13.6-52.2H387.4
			 M393.5,404.3h-6.1h-23.3h-3.6l-0.9,3.5L349.1,448l-20.9-41.1l-1.3-2.6H324h-19.7h-3.6l-0.9,3.5l-24.5,93.3l-1.5,5.9h6.1h23.3h3.6
			l0.9-3.5l11.2-41.3l20.6,42.1l1.3,2.6h2.9h19.4h3.6l0.9-3.5l24.5-93.3L393.5,404.3L393.5,404.3z"/>
		<path fill="#FFFFFF" d="M479.3,423.7l-17.8,16.8c0,0-8.2-15.2-29.1-9.4c-17.8,5.5-25.6,25.6-25.3,34.6s7,15.6,12.9,16.4
			c5.9,0.8,25.3,2.7,26.4-13.6h-21.4l5.9-21.4h43.9l-10.5,42c0,0-27.6,24.5-62.4,11.3c-27-12.9-19.2-45.9-10-61
			c6.2-10.1,23.7-29.9,47.5-30.7S471.1,413.6,479.3,423.7z"/>
		<path fill="#004EA2" d="M443.3,408.5c20.6,0,28.3,5.7,36,15.3l-17.8,16.8c0,0-5.8-10.7-19.9-10.7c-2.7,0-5.8,0.4-9.2,1.3
			c-17.8,5.5-25.6,25.6-25.3,34.6c0.4,9,7,15.6,12.9,16.4c1.6,0.2,4.1,0.5,7.1,0.5c8,0,18.5-2.2,19.4-14.2h-21.4l5.8-21.3h43.9
			l-10.5,42c0,0-17.2,15.3-41.4,15.3c-6.6,0-13.7-1.1-21-4c-27-12.9-19.2-45.9-10-61c6.2-10.1,23.7-29.9,47.5-30.7
			C440.6,408.5,442,408.5,443.3,408.5 M443.3,403.8c-1.4,0-2.8,0-4.2,0.1c-24.9,0.8-44,21.1-51.3,32.9c-7.1,11.5-12.2,30-7.7,45.4
			c3,10.1,9.6,17.6,19.5,22.3l0.2,0.1l0.2,0.1c7.4,2.8,15.1,4.3,22.7,4.3c25.7,0,43.7-15.8,44.5-16.4l1.1-1l0.3-1.4l10.5-42l1.4-5.8
			h-6h-8.4l16.4-15.3l3.2-3l-2.7-3.4c-3.5-4.4-8-9.2-14.8-12.5C461.7,405.3,453.8,403.8,443.3,403.8L443.3,403.8z M433.5,435.6
			c2.8-0.8,5.4-1.2,7.9-1.2c10.2,0,14.9,6.5,15.8,8h-26.4h-3.6l-0.9,3.4l-5.8,21.3l-1.6,5.9h6.1h15.2c-3.2,4.8-10.2,4.8-13.2,4.8
			c-2,0-4.1-0.2-6.4-0.5c-3.4-0.5-8.5-5-8.8-11.9C411.3,459,417.4,440.5,433.5,435.6L433.5,435.6z"/>
		<polygon fill="#FFFFFF" points="682.4,409 705.7,409 681.3,502.3 658,502.3 		"/>
		<path fill="#004EA2" d="M705.7,409l-24.5,93.3h-23.3l24.5-93.3H705.7 M711.8,404.3h-6.1h-23.3h-3.6l-0.9,3.5l-24.5,93.3l-1.5,5.9
			h6.1h23.3h3.6l0.9-3.5l24.5-93.3L711.8,404.3L711.8,404.3z"/>
	</g>
	<g>
		<g>
			<g>
				<path fill="#FFFFFF" d="M374.4,279.9c-0.1-0.2-0.3-0.5-0.7-0.9c-0.3-0.4-0.7-0.8-1.2-1.1c-0.5-0.4-1.1-0.7-1.8-1
					s-1.6-0.4-2.6-0.4c-1.3,0-2.5,0.2-3.7,0.7s-2.2,1.2-3.2,2c-1,0.8-1.8,1.8-2.5,2.9c-0.7,1.1-1.1,2.3-1.4,3.6
					c-0.2,1.3-0.2,2.5,0.1,3.7c0.3,1.1,0.8,2.1,1.4,3c0.7,0.9,1.5,1.5,2.5,2c1,0.5,2.1,0.7,3.3,0.7c1.3,0,2.6-0.3,3.8-0.9
					c1.3-0.6,2.4-1.4,3.4-2.3h4.4c-0.9,1.2-1.9,2.2-2.9,3c-1,0.8-2.1,1.5-3.1,2c-1.1,0.5-2.1,0.9-3.2,1.1c-1.1,0.2-2.1,0.3-3,0.3
					c-1.7,0-3.3-0.3-4.7-1c-1.4-0.7-2.5-1.6-3.4-2.8c-0.9-1.2-1.6-2.5-1.9-4c-0.4-1.5-0.4-3.2-0.1-4.9c0.3-1.8,1-3.4,1.9-4.9
					c1-1.5,2.1-2.8,3.4-4c1.3-1.1,2.8-2,4.5-2.6c1.6-0.6,3.3-1,5-1c0.5,0,1,0,1.5,0.1c0.6,0.1,1.2,0.2,1.8,0.4
					c0.6,0.2,1.2,0.4,1.9,0.7c0.6,0.3,1.2,0.7,1.8,1.2c1,0.8,1.6,1.6,2,2.3c0.4,0.8,0.7,1.4,0.9,2L374.4,279.9L374.4,279.9z"/>
				<path fill="#FFFFFF" d="M390.5,297.9l2-10.5h-10l-2,10.5h-3.5l4.5-24.1h3.5l-1.9,10.5h10l1.9-10.5h3.5l-4.5,24.1H390.5z"/>
				<path fill="#FFFFFF" d="M397.5,297.9l4.5-24.1h3.5l-4.5,24.1H397.5z"/>
				<path fill="#FFFFFF" d="M419.9,297.9l-8.5-18.6h-0.1l-3.5,18.6h-3.5l4.5-24.1h3.9l8.4,18.3h0.1l3.4-18.3h3.5l-4.5,24.1H419.9z"
					/>
				<path fill="#FFFFFF" d="M442.8,297.9l-1.4-7.1h-8.7l-4,7.1H425l13.7-24.1h3.2l4.7,24.1H442.8z M440.8,287.5l-1.4-9.3h-0.1
					l-4.8,9.3H440.8z"/>
			</g>
			<g>
				<path fill="#FFFFFF" d="M320.7,316.6c-0.1-0.2-0.3-0.5-0.7-0.9c-0.3-0.4-0.7-0.8-1.2-1.1c-0.5-0.4-1.1-0.7-1.8-1
					c-0.7-0.3-1.6-0.4-2.6-0.4c-1.3,0-2.5,0.2-3.7,0.7c-1.2,0.5-2.2,1.2-3.2,2s-1.8,1.8-2.5,2.9c-0.7,1.1-1.1,2.3-1.4,3.6
					c-0.2,1.3-0.2,2.5,0.1,3.7c0.3,1.1,0.8,2.1,1.4,3c0.7,0.9,1.5,1.5,2.5,2c1,0.5,2.1,0.7,3.3,0.7c1.3,0,2.6-0.3,3.8-0.9
					c1.3-0.6,2.4-1.4,3.4-2.3h4.4c-0.9,1.2-1.9,2.2-2.9,3c-1,0.8-2.1,1.5-3.1,2c-1.1,0.5-2.1,0.9-3.2,1.1c-1.1,0.2-2.1,0.3-3,0.3
					c-1.7,0-3.3-0.3-4.7-1c-1.4-0.7-2.5-1.6-3.4-2.8c-0.9-1.2-1.6-2.5-1.9-4c-0.4-1.5-0.4-3.2-0.1-4.9c0.3-1.8,1-3.4,1.9-4.9
					c1-1.5,2.1-2.8,3.4-4c1.3-1.1,2.8-2,4.5-2.6c1.6-0.6,3.3-1,5-1c0.5,0,1,0,1.5,0.1c0.6,0.1,1.2,0.2,1.8,0.4
					c0.6,0.2,1.2,0.4,1.9,0.7c0.6,0.3,1.2,0.7,1.8,1.2c1,0.8,1.6,1.6,2,2.3c0.4,0.8,0.7,1.4,0.9,2L320.7,316.6L320.7,316.6z"/>
				<path fill="#FFFFFF" d="M336.9,334.7l2-10.5h-10l-2,10.5h-3.5l4.5-24.1h3.5l-1.9,10.5h10l1.9-10.5h3.5l-4.5,24.1H336.9z"/>
				<path fill="#FFFFFF" d="M370,322.6c-0.3,1.7-0.9,3.2-1.8,4.8c-0.9,1.5-2,2.8-3.4,4c-1.4,1.1-2.9,2.1-4.5,2.8
					c-1.7,0.7-3.4,1-5.2,1c-1.8,0-3.4-0.3-4.8-1c-1.4-0.7-2.6-1.6-3.5-2.8c-0.9-1.2-1.5-2.5-1.9-4s-0.4-3.1,0-4.8
					c0.3-1.6,0.9-3.2,1.8-4.7s2-2.9,3.4-4c1.3-1.2,2.8-2.1,4.5-2.8c1.7-0.7,3.4-1,5.3-1c1.8,0,3.4,0.3,4.8,1
					c1.4,0.7,2.6,1.6,3.5,2.7s1.6,2.5,1.9,4C370.3,319.3,370.3,320.9,370,322.6z M366.4,322.7c0.2-1.1,0.2-2.2,0-3.3
					c-0.2-1.1-0.6-2.1-1.1-3c-0.6-0.9-1.4-1.7-2.4-2.2c-1-0.6-2.3-0.9-3.8-0.9c-1.6,0-3,0.3-4.2,0.9s-2.3,1.4-3.2,2.3
					c-0.9,0.9-1.7,1.9-2.2,3c-0.6,1.1-0.9,2.1-1.1,3.1c-0.2,1-0.2,2,0,3.1c0.2,1.1,0.5,2.1,1.1,3s1.4,1.7,2.4,2.3
					c1,0.6,2.3,0.9,3.9,0.9c1.6,0,3-0.3,4.2-0.9s2.3-1.4,3.2-2.3c0.9-0.9,1.7-1.9,2.2-3C365.9,324.6,366.3,323.6,366.4,322.7z"/>
				<path fill="#FFFFFF" d="M385.5,334.7l-8.5-18.6H377l-3.5,18.6H370l4.5-24.1h3.9l8.4,18.3h0.1l3.4-18.3h3.5l-4.5,24.1H385.5z"/>
				<path fill="#FFFFFF" d="M413.9,316.5c-0.2-0.3-0.5-0.6-0.8-1c-0.3-0.4-0.7-0.7-1.2-1.1c-0.5-0.3-1-0.6-1.7-0.9
					c-0.7-0.2-1.4-0.4-2.3-0.4c-1.3,0-2.5,0.3-3.7,0.8c-1.2,0.5-2.3,1.2-3.2,2c-1,0.9-1.8,1.9-2.5,3c-0.7,1.1-1.1,2.3-1.4,3.6
					c-0.2,1.3-0.2,2.6,0.1,3.7c0.3,1.1,0.8,2.1,1.5,2.9c0.7,0.8,1.5,1.5,2.5,1.9c1,0.5,2.1,0.7,3.2,0.7c0.1,0,0.3,0,0.7,0
					c0.3,0,0.8-0.1,1.3-0.2c0.5-0.1,1.1-0.3,1.7-0.5c0.6-0.2,1.3-0.6,1.9-1c0.7-0.4,1.3-1,2-1.7c0.6-0.7,1.3-1.5,1.9-2.5h-11.3
					l0.6-3.2h15.3c-0.4,2-1.1,3.8-2.2,5.4c-1,1.6-2.3,2.9-3.6,3.9c-1.4,1-2.8,1.8-4.4,2.4c-1.6,0.5-3.1,0.8-4.6,0.8
					c-1.8,0-3.3-0.3-4.7-1c-1.4-0.7-2.5-1.6-3.4-2.7s-1.5-2.5-1.9-4c-0.3-1.5-0.4-3.1-0.1-4.8s1-3.4,1.9-4.9s2-2.9,3.4-4
					c1.3-1.1,2.8-2.1,4.4-2.7c1.6-0.7,3.3-1,5.1-1c1,0,2,0.1,3,0.4c1,0.3,1.9,0.7,2.8,1.2c0.9,0.5,1.6,1.2,2.3,2
					c0.7,0.8,1.2,1.8,1.6,2.9L413.9,316.5L413.9,316.5z"/>
				<path fill="#FFFFFF" d="M442.4,335.1c-0.8,0-1.5-0.1-2-0.2c-0.6-0.1-1.1-0.3-1.5-0.4c-0.4-0.2-0.8-0.4-1.2-0.6
					c-0.3-0.2-0.7-0.4-0.9-0.7c-1.2,0.6-2.4,1-3.6,1.4c-1.2,0.3-2.5,0.5-3.7,0.5c-1.7,0-3.2-0.3-4.6-1c-1.4-0.7-2.5-1.6-3.5-2.7
					c-0.9-1.1-1.6-2.5-1.9-4c-0.4-1.5-0.4-3.2-0.1-4.9c0.3-1.7,1-3.4,1.9-4.9s2-2.8,3.4-4c1.3-1.1,2.8-2,4.5-2.7
					c1.6-0.6,3.3-1,5.1-1s3.4,0.3,4.8,1c1.4,0.7,2.5,1.6,3.5,2.7c0.9,1.1,1.5,2.5,1.9,4c0.3,1.5,0.4,3.1,0.1,4.8
					c-0.2,1.1-0.5,2-0.9,2.9c-0.4,0.9-0.8,1.7-1.2,2.4c-0.4,0.7-0.9,1.3-1.3,1.8c-0.4,0.5-0.8,1-1.1,1.3c0.2,0.2,0.5,0.3,0.7,0.4
					c0.2,0.1,0.5,0.2,0.7,0.3s0.5,0.1,0.8,0.1s0.7,0,1.1,0L442.4,335.1z M437.2,328.9c0.2-0.2,0.5-0.5,0.9-0.9
					c0.3-0.4,0.7-0.8,1-1.3c0.3-0.5,0.7-1.1,1-1.8c0.3-0.7,0.5-1.4,0.7-2.3c0.2-1.2,0.2-2.4,0-3.6c-0.2-1.1-0.7-2.1-1.3-3
					c-0.6-0.9-1.4-1.5-2.4-2c-1-0.5-2.1-0.8-3.4-0.8c-1.2,0-2.5,0.3-3.7,0.8c-1.2,0.5-2.3,1.2-3.2,2c-1,0.9-1.8,1.9-2.5,3
					c-0.7,1.2-1.1,2.4-1.4,3.7c-0.1,0.6-0.2,1-0.2,1.4c0,0.3,0,0.7,0,1c0.9-0.3,1.8-0.6,2.7-0.6c0.9-0.1,1.6-0.1,2.1-0.1
					c1.8,0,3.5,0.4,5.1,1.2C434.1,326.3,435.7,327.4,437.2,328.9z M434,330.8c-0.8-0.7-1.5-1.2-2.2-1.6c-0.7-0.4-1.3-0.7-1.9-1
					s-1.2-0.4-1.8-0.5c-0.6-0.1-1.1-0.1-1.7-0.1c-0.4,0-0.8,0-1,0c-0.3,0-0.5,0.1-0.8,0.1c-0.2,0-0.4,0.1-0.6,0.2
					c-0.2,0.1-0.3,0.1-0.5,0.2c0.6,1.2,1.5,2.1,2.7,2.8c1.2,0.7,2.5,1,3.9,1c1.1,0,1.9-0.1,2.5-0.4C433.2,331.3,433.6,331,434,330.8
					z"/>
				<path fill="#FFFFFF" d="M444.2,334.7l4.5-24.1h3.5l-4.5,24.1H444.2z"/>
				<path fill="#FFFFFF" d="M466.6,334.7l-8.5-18.6H458l-3.5,18.6h-3.5l4.5-24.1h3.9l8.4,18.3h0.1l3.4-18.3h3.5l-4.5,24.1H466.6z"/>
				<path fill="#FFFFFF" d="M494.9,316.5c-0.2-0.3-0.5-0.6-0.8-1c-0.3-0.4-0.7-0.7-1.2-1.1c-0.5-0.3-1-0.6-1.7-0.9
					c-0.7-0.2-1.4-0.4-2.3-0.4c-1.3,0-2.5,0.3-3.7,0.8c-1.2,0.5-2.3,1.2-3.2,2c-1,0.9-1.8,1.9-2.5,3s-1.1,2.3-1.4,3.6
					c-0.2,1.3-0.2,2.6,0.1,3.7c0.3,1.1,0.8,2.1,1.5,2.9c0.7,0.8,1.5,1.5,2.5,1.9c1,0.5,2.1,0.7,3.2,0.7c0.1,0,0.3,0,0.7,0
					c0.3,0,0.8-0.1,1.3-0.2c0.5-0.1,1.1-0.3,1.7-0.5c0.6-0.2,1.3-0.6,1.9-1c0.7-0.4,1.3-1,2-1.7c0.6-0.7,1.3-1.5,1.9-2.5h-11.3
					l0.6-3.2h15.3c-0.4,2-1.1,3.8-2.2,5.4c-1,1.6-2.3,2.9-3.6,3.9c-1.4,1-2.8,1.8-4.4,2.4c-1.6,0.5-3.1,0.8-4.6,0.8
					c-1.8,0-3.3-0.3-4.7-1c-1.4-0.7-2.5-1.6-3.4-2.7s-1.5-2.5-1.9-4c-0.3-1.5-0.4-3.1-0.1-4.8s0.9-3.4,1.9-4.9c0.9-1.5,2-2.9,3.4-4
					c1.3-1.1,2.8-2.1,4.4-2.7c1.6-0.7,3.3-1,5.1-1c1,0,2,0.1,3,0.4c1,0.3,1.9,0.7,2.8,1.2c0.9,0.5,1.6,1.2,2.3,2
					c0.7,0.8,1.2,1.8,1.6,2.9L494.9,316.5L494.9,316.5z"/>
			</g>
		</g>
		<g>
			<g>
				<path fill="#FFFFFF" d="M304.2,173l-46.6,78.5H335c0,0-17.9-17.3-10.4-39.3C332.2,190.4,308,170.7,304.2,173z"/>
				<path fill="#FFFFFF" d="M312.5,169.5c0,0,41.5-20.8,67.5,23.1c21.9,45-17.9,75.6-42.7,50.2C312.4,217.5,354.7,207.6,312.5,169.5
					z"/>
			</g>
			<path fill-rule="evenodd" clip-rule="evenodd" fill="#FFFFFF" d="M497.7,165.5l0.1,0.1l0.1,0.1l0.1,0.1l0.1,0l0.1,0l0.1,0l0.1,0
				l0.1,0l0.3,0l0.3,0l0.3,0h0.3l1.3,0.4l1.3,0.4l1.3,0.4l1.3,0.4l1.3,0.4l1.3,0.4l0.6,0.2l0.6,0.2l0.6,0.2l0.6,0.2l0.6,0.3l0.6,0.2
				l0.6,0.3l0.6,0.3l0.6,0.3l0.6,0.3l0.6,0.3l0.6,0.3l0.6,0.3l0.6,0.3l0.6,0.3l0.6,0.3l0.6,0.3l0.6,0.3l0.6,0.3l0.6,0.4l0.2,0.1
				l0.2,0.1l0.2,0.1l0.2,0.1l0.2,0.1l0.2,0.1l0.2,0.1l0.2,0.1l0.3,0.3l0.3,0.2l0.2,0.1l0.2,0.1l0.2,0.1l0.2,0.1l0.3,0.2l0.3,0.2
				l0.3,0.2l0.3,0.2l0.3,0.2l0.3,0.2l0.2,0.1l0.2,0.1l0.2,0.1l0.2,0.2l0.4,0.3l0.3,0.3l0.4,0.3l0.4,0.3l0.3,0.3l0.4,0.3l0.4,0.3
				l0.3,0.3l4.7,4.4l0,0.1l0,0.1l0,0.1l0,0.1l0.1,0.1l0.1,0.1l0.1,0.1l0.1,0.1l0.1,0.1l0.1,0.1l0.2,0.2l0.2,0.2l0.1,0.1l0.1,0.1l0,0
				l0,0.1l0,0.1v0.1l0.2,0.1l0.1,0.1l0.1,0.1l0.1,0.1l0.2,0.2l0.2,0.2l0.2,0.2l0.2,0.2l0.1,0.1l0.1,0.1l0.1,0.1l0.1,0.1l0.1,0.2
				l0.1,0.2l0.1,0.2l0.1,0.2l0.1,0.2l0.1,0.2l0.1,0.2l0.1,0.2l0.1,0l0.1,0.1l0.1,0.1l0.1,0.1l0.1,0.2l0.1,0.2l0.2,0.4l0.2,0.3
				l0.4,0.4l0.4,0.7l0.4,0.8l0.4,0.8l0.4,0.8l0.4,0.8l0.3,0.8l0.3,0.8l0.3,0.8l0.3,0.9l0.2,0.9l0.2,0.9l0.2,0.9l0.2,0.9l0.2,0.9
				l0.1,0.9l0.1,0.9l0.1,0.9l0.1,0.9l0,0.9l0,0.9v0.9l0,0.9l-0.1,0.9l-0.1,0.9l-0.1,0.9l-0.1,0.9l-0.1,0.9l-0.2,0.9l-0.2,0.9
				l-0.2,0.9l-0.2,0.9l-0.3,0.9l-0.2,0.6l-0.2,0.6l-0.2,0.6l-0.2,0.5l-0.2,0.5l-0.2,0.5l-0.2,0.5l-0.2,0.5l-0.3,0.5l-0.3,0.5
				l-0.3,0.5l-0.3,0.5l-0.3,0.5l-0.3,0.5l-0.3,0.5l-0.3,0.5l-0.3,0.5l-0.4,0.5l-0.4,0.5l-0.4,0.5l-0.4,0.5l-0.4,0.5l-0.4,0.5
				l-0.4,0.5l-0.4,0.5l-0.4,0.5l-0.4,0.5l-0.4,0.4l-0.4,0.4l-0.5,0.4l-0.5,0.4l-0.5,0.4H530l-0.2,0.3l-0.2,0.3l-0.1,0.1l-0.1,0.1
				l-0.1,0.1l-0.1,0.1l-0.1,0.1l-0.1,0.1l-0.2,0.1l-0.2,0.1l-0.2,0.1L528,237l-0.2,0.1l-0.2,0.1l-0.1,0.1l-0.1,0.1l-0.1,0.1
				l-0.1,0.1l-0.1,0.1l-0.1,0.1l-0.1,0.1l-0.1,0.1l-0.3,0.2l-0.3,0.2l-0.1,0.1l-0.1,0.1l-0.1,0.1l-0.1,0.1l-0.1,0l-0.1,0l-0.1,0
				l-0.1,0.1l-0.1,0.1l-0.1,0.2l-0.1,0.1l-0.1,0.1l-0.1,0.1l-0.1,0.1l-0.1,0.1l-0.1,0l-0.1,0l-0.1,0l-0.2,0.2L524,240l-0.2,0.2
				l-0.2,0.1l-0.4,0.3l-0.4,0.2l-0.4,0.2l-0.4,0.2l-0.2,0.1l-0.2,0.2l-0.2,0.2L521,242l-0.2,0.1l-0.2,0.1l-0.1,0.1l-0.2,0.1
				l-0.3,0.2l-0.3,0.2l-0.3,0.2l-0.3,0.2l-0.2,0.1l-0.1,0.1l-0.2,0.1l-0.2,0.1l-0.4,0.4l-0.7,0.3l-0.7,0.3l-0.7,0.3l-0.7,0.3
				l-0.7,0.3l-0.7,0.3l-0.7,0.3l-0.7,0.3l-0.7,0.3l-0.7,0.3l-0.7,0.3l-0.7,0.2l-0.7,0.2l-0.7,0.2l-0.7,0.2l-0.7,0.2l-0.3,0.1
				l-0.3,0.1l-0.3,0.1l-0.3,0.1l-0.3,0.1l-0.3,0.1l-0.3,0.1l-0.3,0.1l-0.2,0.1l-0.2,0.1l-0.2,0.1l-0.2,0.1l-0.2,0.1l-0.2,0.1l-0.1,0
				l-0.1,0l-0.1,0l-0.1,0l-0.2,0.1l-0.2,0.1l-0.2,0.1l-0.2,0.1l-0.2,0.1l-0.2,0l-0.2,0l-0.2,0l-0.2,0l-0.2,0l-0.2,0l-0.2,0.1
				l-0.2,0.1l-0.2,0.1l-0.2,0.1l-0.2,0.1l-0.8,0.2l-0.8,0.2l-0.8,0.2l-0.8,0.1l-0.8,0.1l-0.8,0.1l-0.8,0.1l-0.8,0.1l-0.8,0.1
				l-0.8,0.1l-0.8,0.1l-0.8,0.1l-0.8,0.1l-0.8,0.1l-0.8,0.1l-0.8,0.1l-0.8,0l-0.8,0l-0.8,0l-0.8,0l-0.8,0l-0.8,0h-0.8l-0.8,0l-0.8,0
				l-0.8,0l-0.8,0l-0.8,0l-0.8-0.1l-0.8-0.1l-0.8-0.1l-0.8-0.1l-1.3-0.2l-1.3-0.2l-1.3-0.2l-1.3-0.2l-1.3-0.2l-1.3-0.2l-1.3-0.3
				l-1.3-0.3l-1.2-0.3l-1.3-0.3l-1.2-0.3l-1.2-0.3l-1.2-0.4l-1.2-0.4l-1.2-0.4l-1.2-0.4l-0.3-0.2l-0.3-0.2l-0.3-0.2l-0.3-0.2
				l-0.2-0.1l-0.2-0.1l-0.2-0.1l-0.2-0.1l-0.2,0l-0.2,0l-0.2,0l-0.2,0l-0.4-0.2l-0.4-0.2l-0.4-0.3l-0.4-0.2l-0.2-0.1l-0.2-0.1
				l-0.2-0.1l-0.2-0.1l-0.2-0.1l-0.2-0.1l-0.2-0.1l-0.2-0.1l-1-0.6l-1-0.6l-1-0.6l-1-0.6l-1-0.6l-1-0.7l-0.5-0.3l-0.5-0.3l-0.5-0.3
				l-0.5-0.4l-0.5-0.4l-0.5-0.4l-0.5-0.4l-0.5-0.4l-0.5-0.4l-0.5-0.4l-0.5-0.4l-0.5-0.4l-0.5-0.4l-0.5-0.4l-0.5-0.4l-0.5-0.4
				l-0.5-0.4l-0.5-0.4l-0.4-0.4l-0.4-0.4l0-0.1l-0.1-0.1l-0.1-0.1l-0.1-0.1l-0.2-0.2l-0.3-0.2l-0.3-0.2l-0.3-0.2l-0.1-0.1l-0.1-0.1
				l-0.1-0.1l-0.1-0.2l-0.2-0.1l-0.1-0.1l-0.1-0.1l-0.1-0.1l-0.2-0.3l-0.2-0.3l-0.1-0.1l-0.1-0.1l-0.1-0.1l-0.1-0.1l-0.1-0.1
				l-0.1-0.1l-0.2-0.1l-0.2-0.1l-0.1-0.2l-0.1-0.2l-0.1-0.2l-0.1-0.2l-0.1-0.2l-0.2-0.2l-0.2-0.2l-0.2-0.2l-0.1,0l-0.1-0.1l-0.1-0.1
				l0-0.1l-0.1-0.1l-0.1-0.2l0-0.1l0-0.1l0-0.1l-0.1-0.1l-0.1-0.1l-0.1-0.1l-0.1-0.1l-0.1,0l0-0.2l0-0.1l0-0.1l-0.1-0.1l-0.1-0.1
				l-0.1-0.1l-0.1-0.1l-0.1-0.1l-0.2-0.3l-0.2-0.3l-0.1-0.1l-0.1-0.2l-0.1-0.2l0-0.2l-0.2-0.2l-0.4-0.8l-0.4-0.8l-0.3-0.8l-0.3-0.8
				l-0.3-0.8l-0.3-0.8l-0.3-0.8l-0.3-0.8l-0.2-0.8l-0.2-0.8l-0.2-0.9l-0.2-0.9l-0.1-0.9l-0.1-0.9l-0.1-0.9l-0.1-0.9l-0.1-0.9l0-0.9
				l0-0.9v-0.9l0-0.9l0-0.9l0.1-0.9l0.1-0.9l0.1-0.9l0.1-0.9l0.2-0.9l0.2-0.9l0.2-0.8l0.2-0.8l0.2-0.8l0.3-0.8l0.2-0.6l0.2-0.6
				l0.2-0.6l0.2-0.6l0.3-0.5l0.3-0.6l0.3-0.5l0.3-0.5l0.3-0.5l0.3-0.5l0.3-0.5l0.3-0.5l0.3-0.5l0.4-0.5l0.4-0.5l0.4-0.5l0.4-0.5
				l0.4-0.5l0.4-0.5l0.4-0.5l0.4-0.5l0.4-0.5l0.4-0.5l0.4-0.5l0.4-0.5l0.4-0.5l0.5-0.5l0.5-0.5l0.5-0.5l0.5-0.5l0.5-0.5l0.5-0.5
				l0.2-0.1l0.1-0.1l0.1-0.1l0.1-0.1l0.1-0.1l0.1-0.1l0.1-0.1l0.1-0.1l0.2-0.2l0.2-0.2l0.1-0.1l0.1-0.1l0.1-0.1l0.1-0.1l0.1-0.1
				l0.1-0.1l0.1-0.1l0.1-0.1l0.3-0.2l0.3-0.2l0.2-0.2l0.2-0.2l0.1-0.1l0.1-0.1l0.1-0.1l0.1-0.1l0.2-0.2l0.2-0.1l0.2-0.2l0.2-0.1
				l0.2-0.1l0.2-0.1l0.2-0.1l0.2-0.1l0.1-0.1l0.1-0.1l0.1-0.1l0.1-0.1l0.2-0.2l0.2-0.2l0.2-0.2l0.2-0.2l0.1-0.1l0.1-0.1l0.1-0.1
				l0.1-0.1l0.2,0l0.2-0.1l0.2-0.1l0.1-0.1l0.3-0.1l0.3-0.2l0.3-0.2l0.3-0.1l0.1-0.1l0.1-0.1l0.2-0.1l0.2,0l0.1-0.1l0.1-0.1l0.1-0.1
				l0.1-0.1l0.3-0.2l0.3-0.1l0.3-0.1l0.3-0.1l0.3-0.1l0.3-0.2l0.6-0.3l0.6-0.3l0.6-0.3l0.6-0.3l0.6-0.3l0.6-0.3l0.6-0.3l0.6-0.2
				l0-0.1l0-0.1l0-0.1l0,0l0,0l0.1,0l0,0h0.1l0.2,0l0.3,0l0.8-0.3l0.8-0.3l0.8-0.3l0.8-0.3l0.8-0.3l0.8-0.3l0.8-0.3l0.8-0.3l0.8-0.2
				l0.8-0.2l0.8-0.2l0.8-0.2l0.8-0.2l0.8-0.2l0.8-0.2l0.8-0.2l0.1-0.1l0.1,0l0.1,0l0.1,0l0.1,0l0.1,0l0.1,0l0.1,0l0.2,0l0.2,0h0.1
				l0.1,0l0.1,0l0.1,0l0.8-0.2l0.8-0.2l0.8-0.2l0.8-0.1l0.8-0.1l0.8-0.1l0.8-0.1l0.8-0.1l0.8-0.1l0.8-0.1l0.9-0.1l0.9-0.1l0.9-0.1
				l0.9-0.1l0.9,0l0.9,0l0.9,0l0.9,0h0.9h0.9l0.9,0l0.9,0l0.9,0l0.9,0l0.8,0.1l0.8,0.1l0.8,0.1l0.8,0.1l0.8,0.1l0.8,0.1l0.8,0.1
				l0.8,0.1l0.5,0.1l0.5,0.1l0.5,0.1l0.5,0.1l0.5,0.1l0.5,0.1l0.5,0.1L497.7,165.5L497.7,165.5L497.7,165.5z M503.1,170.5l0.5,0.2
				l0.5,0.2l0.5,0.2l0.5,0.2l0.5,0.2l0.5,0.2l0.5,0.2l0.5,0.2l0.5,0.2l0.5,0.2l0.5,0.3l0.5,0.3l0.5,0.3l0.5,0.3l0.5,0.3l0.5,0.3
				l0.5,0.2l0.5,0.3l0.5,0.3l0.5,0.3l0.5,0.3l0.5,0.3l0.5,0.3l0.5,0.3l0.4,0.3l0.4,0.3l0.5,0.3l0.4,0.3l0.4,0.3l0.4,0.4l0.4,0.4
				l0.4,0.4h0.2l0.4,0.3l0.4,0.3l0.4,0.4l0.4,0.4l0.2,0.2l0.2,0.2l0.2,0.2l0.2,0.2l0.1,0.2l0.1,0.2l0.1,0.2l0.1,0.2h-8.1l-1.3,2.5
				l-1.3,2.5l-1.3,2.6l-1.3,2.5l-1.3,2.5l-1.3,2.5l-1.3,2.5l-1.3,2.6l-1.3,2.5l-1.3,2.5l-1.3,2.5l-1.3,2.5l-1.3,2.6l-1.3,2.5
				l-1.3,2.5l-1.3,2.5l0.2,0.2h19l0.2-0.2l0.2-0.2l0.1-0.2l0.1-0.2l0.1-0.2l0.1-0.2l0.1-0.1l0.1-0.1l0-0.1l0-0.2l0.2-0.2l0.2-0.3
				l0.2-0.3l0.1-0.3l0.1-0.3l0.1-0.3l0.1-0.3l0.1-0.3l-16.5-0.2l0-0.1l0-0.1l0-0.1l0-0.1l0-0.1l0,0l0.1-0.1l0,0l0.1-0.1l0.1-0.1
				l0.1-0.1l0.1,0l0.3-0.1l0.3-0.1l0.1,0l0.1-0.1l0.1-0.1l0.1-0.1l0.3-0.2l0.3-0.1l0.3-0.1l0.3-0.1l0.6-0.2l0.6-0.2l0.6-0.2l0.6-0.2
				l0.3-0.1l0.3-0.1l0.3-0.1l0.3-0.1l0-0.1l0,0l0-0.1l0,0l0.1-0.1l0.1-0.1l0.1,0l0.1,0l0.1,0l0.1,0l0.1,0l0.1,0l0.1,0l0.1,0l0.1-0.1
				l0.1-0.1l0,0l0,0l0-0.1l0-0.1l0.2,0l0.2-0.1l0.2-0.1l0.2-0.1l0.2-0.1l0.2-0.1l0.2-0.1l0.2-0.1l0.2-0.1l0.2-0.1l0.2-0.1l0.2-0.1
				l0.2-0.1l0.2-0.1l0.2-0.1l0.2,0l0.2-0.2l0.2-0.2l0.2-0.2l0.2-0.2l0.2-0.2l0.2-0.1l0.1-0.1l0.1-0.1l0.1-0.1l0.1,0l0.4-0.3l0.4-0.3
				l0.4-0.3l0.4-0.3l0.7-0.7l0.7-0.7l0.7-0.7l0.7-0.7l0.4-0.3l0.4-0.3l0.4-0.3l0.4-0.3l0-0.1l0-0.1l0-0.1l0.1-0.1l0.1-0.1l0.1-0.1
				l0.1-0.1l0.1-0.1l0.2-0.2l0.2-0.2l0.1-0.1l0.1-0.1l0.1-0.1l0.1-0.1l0.1-0.1l0.1-0.1l0.1-0.1l0.1-0.1l0.1-0.2l0.1-0.2l0.1-0.2
				l0.1-0.2l0.1-0.1l0.1-0.1l0.1-0.1l0.1-0.1l0.2-0.2l0.1-0.2l0.1-0.2l0.1-0.2l0.1-0.2l0.1-0.2l0.1-0.2l0.1-0.2l0.4-0.8l0.4-0.8
				l0.4-0.8l0.4-0.8l0.4-0.8l0.4-0.8l0.4-0.8l0.4-0.8l0.4-0.8l0.4-0.8l0.4-0.8l0.4-0.8l0.4-0.8l0.4-0.8l0.4-0.8l0.4-0.8l0.1,0l0.1,0
				l0,0l0,0l0,0l0,0l0.1,0l0.1,0l0.1,0.2l0.1,0.2l0.1,0.2l0.1,0.2l0.2,0.3l0.2,0.3l0.4,0.7l0.4,0.7l0.4,0.7l0.4,0.7l0.4,0.7l0.4,0.7
				l0.2,0.3l0.2,0.3l0.2,0.3l0.2,0.4l0.4,1l0.4,1l0.3,1l0.3,1l0.3,1l0.2,1l0.2,1.1l0.2,1.1l0.1,1.1l0.1,1.1l0.1,1.1l0,1.1v1.1l0,1.1
				l-0.1,1.1l-0.1,1.1l-0.1,1.1L533,214l-0.2,1.1l-0.2,1.1l-0.3,1l-0.3,1l-0.3,1l-0.4,1l-0.4,1l-0.4,1l-0.4,1l-0.5,0.9l-0.5,0.9
				l-0.5,0.9l-0.6,0.9l-0.6,0.8l-0.1,0.1l-0.1,0.1l-0.1,0.1l-0.1,0.1l-0.2,0.3l-0.2,0.3l-0.1,0.1l-0.1,0.1l-0.1,0.1l-0.1,0.1
				l-0.1,0.1l-0.1,0.1l-0.1,0.1l-0.1,0.1l0,0.1l0,0.1l0,0.1l0,0.1l-0.1,0.1l-0.1,0.1l-0.1,0.1l-0.1,0.1l-0.1,0.1l-0.1,0.1l-0.1,0.1
				l0,0.1l0,0.1l0,0.1l-0.3,0.4l-0.3,0.4l-0.4,0.4l-0.4,0.4l-0.4,0.4l-0.4,0.4l-0.4,0.4l-0.4,0.4l-0.4,0.4l-0.4,0.4l-0.4,0.4
				l-0.4,0.4l-0.8,0.7l-0.8,0.7l-0.1,0l-0.1,0.1l-0.1,0.1l-0.1,0.1l-0.2,0.2l-0.2,0.2l-0.2,0.2l-0.2,0.2l-0.1,0.1l-0.1,0.1l-0.1,0.1
				l-0.1,0l-0.1,0.1l-0.1,0.1l-0.1,0.1l-0.1,0.1l-0.2,0.1l-0.2,0.1l-0.1,0.1l-0.1,0.1l-0.1,0.1l-0.1,0.1l-0.1,0.1l-0.1,0.1l-0.1,0.1
				l-0.1,0.1l-0.2,0.1l-0.2,0.1l-0.2,0.1l-0.2,0.1l-0.2,0.1l-0.2,0.2l-0.2,0.1l-0.2,0.2l-0.3,0.2l-0.3,0.2l-0.4,0.2l-0.4,0.2
				l-0.4,0.2l-0.4,0.2l-0.4,0.2l-0.3,0.2l-0.2,0.1l-0.2,0.1l-0.2,0.1l-0.2,0.1l-0.2,0.1l-0.2,0.1l-0.1,0.1l-0.1,0.1l-0.1,0.1
				l-0.1,0.1l-0.6,0.2l-0.6,0.3l-0.6,0.3l-0.6,0.3l-0.6,0.3l-0.6,0.3l-0.6,0.3l-0.6,0.3l-0.1,0l-0.1,0h-0.1l-0.1,0l-0.1,0l-0.1,0
				l-0.1,0l-0.1,0l-0.1,0.1l-0.1,0.1l-0.1,0l-0.1,0l-0.1,0l-0.1,0h-0.1l-0.1,0l-0.1,0l-0.1,0l-0.2,0l-0.2,0.1l-0.2,0.1l-0.2,0.1
				l-0.2,0.1l-0.2,0.1l-0.3,0.1l-0.3,0.1l-0.3,0.1l-0.3,0.1l-0.3,0.1l-0.3,0.1l-0.3,0.1l-0.3,0.1l-1.2,0.3l-1.2,0.3l-1.2,0.3
				l-1.3,0.3l-1.3,0.2l-1.3,0.2l-1.3,0.2l-1.3,0.2l-1.3,0.1l-1.3,0.1l-1.3,0.1l-1.3,0.1l-1.3,0h-1.3l-1.4,0l-1.3,0l-1.4-0.1
				l-1.3-0.1l-1.3-0.1l-1.3-0.2l-1.3-0.2l-1.3-0.2l-1.3-0.2l-1.3-0.3l-1.3-0.3l-1.3-0.3l-1.3-0.3l-1.2-0.4l-1.2-0.4l-1.2-0.4
				l-1.2-0.4l-1.1-0.5l-0.3-0.2l-0.3-0.1l-0.4-0.1l-0.3-0.1l-0.7-0.3l-0.7-0.3L455,244l-0.4-0.2l-0.4-0.2l-0.4-0.2l-0.4-0.2
				l-0.3-0.2l-0.2-0.1l-0.2-0.1l-0.2-0.1l-0.2-0.1l-0.2,0l-0.2-0.1l-0.2-0.1l-0.2-0.1l-0.2-0.1l-0.2-0.1l-0.2-0.1l-0.2-0.1l-0.4-0.2
				l-0.4-0.2l-0.2-0.1l-0.2-0.1l-0.2-0.1l-0.2-0.1l-0.1-0.1l-0.1-0.1l-0.1-0.1l-0.1-0.1l-0.1-0.1l-0.1-0.1l-0.1-0.1l-0.1-0.1
				l-0.1-0.1l-0.1-0.1l-0.1-0.1l-0.1-0.1l-0.1-0.1l-0.1-0.1l-0.1-0.1l-0.1-0.1l-0.1,0l-0.1,0l-0.1,0l-0.1,0l-0.1-0.1l-0.1-0.1
				l-0.1-0.1l-0.1-0.1l-0.1,0l-0.1,0l-0.1,0h-0.1l-0.1-0.1l-0.1-0.1l-0.1-0.1l-0.1-0.1l-0.3-0.2l-0.3-0.2l-0.1-0.1l-0.1-0.1L445,238
				l-0.1-0.1l-0.1-0.1l-0.1-0.1l-0.1-0.1l-0.1-0.1l-0.2-0.1l-0.2-0.1l-0.1-0.1l-0.1-0.1l-0.1-0.1l-0.1-0.1l-0.1-0.1l-0.1-0.1
				l-0.2-0.3l-0.2-0.3l-0.2-0.2l-0.2-0.2v-0.2l19.7-0.2l0.1-0.1l0.1-0.1l0.1-0.1l0.1-0.1l0.1-0.1l0-0.1l0-0.1l0-0.1l0.1-0.2l0.1-0.2
				l0-0.1l0-0.1l0.1-0.1l0.1-0.1l0.2-0.6l0.3-0.6l0.3-0.6l0.3-0.6l0.3-0.6l0.3-0.6l0.1-0.3l0.1-0.3l0.1-0.3l0.1-0.3l-24.4-0.2l0-0.1
				l0.1-0.1l0-0.1l0.1-0.1l0.1-0.1l0.1-0.1l0.1-0.1l0.1-0.1l0.1-0.1l0.2,0l0.3-0.1l0.3-0.1l0.2,0l0.2-0.1l0.2-0.1l0.2-0.1l0.8-0.3
				l0.7-0.3l0.7-0.3l0.7-0.3l0.7-0.3l0.7-0.3l0.7-0.3l0.7-0.4l0.7-0.4l0.7-0.4l0.7-0.4l0.7-0.4l0.7-0.4l0.7-0.4l0.7-0.4l0.7-0.4
				l0.3-0.3l0.4-0.3l0.4-0.3l0.4-0.3l0.2-0.1l0.2-0.1l0.2-0.1l0.2-0.1l0.2-0.1l0.2-0.1l0.2-0.1l0.2-0.1l0.1-0.1l0.1-0.1l0.1-0.1
				l0.1-0.1l0.1-0.1l0.1-0.1l0.1-0.1l0.1-0.1l0.2-0.1l0.2-0.1l0.1-0.1l0.1-0.1l0.1-0.1l0.1-0.1l0.1,0l0.1-0.1l0.1-0.1l0.1-0.1
				l0.2-0.2l0.2-0.2l0.2-0.2l0.2-0.1l0.1-0.1l0.1,0l0.1,0h0.1l5.6-5.4l0-0.1l0-0.1l0-0.1l0-0.1l0.1-0.1l0.1-0.1l0.1-0.1l0.1-0.1
				l0.1-0.1l0.1-0.1l0.1-0.1l0.1-0.1l0.1-0.1l0.1-0.1l0.1-0.1l0.1-0.1l0-0.1l0-0.1l0-0.1l0-0.1l0.4-0.4l0.4-0.4l0.4-0.5l0.4-0.5
				l0.4-0.5l0.4-0.5l0.3-0.5l0.3-0.5l0.3-0.5l0.3-0.5l0.3-0.5l0.3-0.5l0.3-0.5l0.3-0.5l0.3-0.5l0.3-0.5l0.4-0.2l0.3-0.7l0.3-0.7
				l0.3-0.7l0.3-0.7l0.3-0.7l0.3-0.7l0.3-0.7l0.3-0.7l0.3-0.7l0.3-0.7l0.3-0.7l0.3-0.7l0.4-0.7l0.4-0.7l0.4-0.7l0.4-0.7l0.2-0.5
				l0.2-0.5l0.2-0.5l0.3-0.5l0.3-0.5l0.3-0.5l0.3-0.5l0.3-0.5l0.3-0.5l0.3-0.5l0.3-0.5l0.3-0.5l0.3-0.5l0.3-0.5l0.3-0.5l0.3-0.5
				l0.2-0.2l-0.2-0.2h-22.5l-1.5,2.9l-1.5,2.9l-1.5,2.9l-1.5,2.9l-1.5,3L452,200l-1.5,2.9l-1.5,2.9l-1.5,2.9l-1.5,2.9l-1.5,3
				l-1.5,2.9l-1.5,2.9l-1.5,2.9l-1.5,2.9l-1.5,2.9l-0.1,0l-0.1,0l-0.1,0l-0.1,0l-0.1,0l0,0h-0.1l0,0l-0.1,0l-0.1-0.1l-0.1-0.1
				l-0.1-0.1l-0.1-0.2l-0.1-0.2l-0.1-0.1l-0.1-0.1l0,0l-0.1,0l-0.1,0l-0.1,0l-0.1-0.2l-0.1-0.2l-0.1-0.2l-0.1-0.2l-0.1-0.2l-0.1-0.2
				l-0.1-0.2L435,227l-0.1-0.1l-0.1-0.1l-0.1-0.1l-0.1-0.1l-0.1-0.2l-0.1-0.2l0-0.1l0-0.1l-0.1-0.1l-0.1-0.1l-0.1-0.1l-0.1-0.1
				l-0.1-0.1l-0.1-0.1l-0.1-0.3l-0.1-0.3l-0.2-0.3l-0.2-0.3l-0.3-0.6l-0.4-0.6l-0.2-0.3l-0.2-0.3l-0.2-0.3l-0.1-0.3l-0.1-0.3
				l-0.1-0.3l-0.1-0.3l-0.1-0.3l-0.2-0.4l-0.2-0.4l-0.1-0.4L431,219l-0.1-0.4l-0.1-0.4l-0.1-0.4l-0.1-0.4l-0.2-0.9l-0.2-0.9
				l-0.2-0.9l-0.2-0.9l-0.1-0.5l-0.1-0.5l-0.1-0.5l-0.1-0.5l-0.1-0.5l0-0.5l0-0.5l0-0.6l0-0.5l0-0.5l0-0.5l0-0.5l0-0.5l0-0.5
				l0.1-0.5l0.1-0.5l0.1-0.5l0.1-0.5l0.1-0.5l0.1-0.5l0.1-0.5l0.1-0.5l0.1-0.5l0.1-0.5l0.2-1l0.2-1l0.3-1l0.3-1l0.1-0.1l0.1-0.1
				l0.1-0.1l0.1-0.1l0.1-0.3l0.1-0.3l0.1-0.1l0.1-0.1l0.1-0.1l0.1-0.1l0.1-0.1l0.1-0.1l0.1-0.1l0.1-0.1l0.2-0.5l0.2-0.5l0.2-0.4
				l0.2-0.4l0.2-0.4l0.2-0.4l0.2-0.4l0.2-0.4l0.5-0.8l0.5-0.8l0.5-0.8l0.5-0.9l0.2-0.1l0.1-0.1l0.1-0.1l0.1-0.1l0.1-0.1l0.1-0.1
				l0.1-0.1l0.1-0.1l0.1-0.1l0.1-0.1l0.1-0.1l0.1-0.1l0.1-0.1l0.1-0.1l0.1-0.1l0.1-0.1l0-0.1l0-0.1l0-0.1l0.1-0.1l0.1-0.1l0.1-0.1
				l0.1-0.1l0.1-0.1l0.1-0.1l0.1-0.1l0.1-0.1l0.1-0.1l0.1-0.1l0-0.1l0-0.1l0-0.1l0.3-0.2l0.3-0.3l0.3-0.3l0.3-0.3l0.5-0.6l0.5-0.5
				l0.2-0.3l0.2-0.3l0.2-0.3l0.3-0.2l0.1-0.1l0.1-0.1l0.1-0.1l0.1-0.1l0.1-0.1l0.2-0.1l0.1-0.1l0.2-0.1l0.2-0.2l0.2-0.2l0.2-0.2
				l0.2-0.2l0.2-0.2l0.2-0.2l0.2-0.2l0.2-0.1l0.4-0.3l0.4-0.3l0.2-0.2l0.2-0.2l0.2-0.2l0.2-0.2l0.2-0.2l0.2-0.2l0.2-0.2l0.2-0.2
				l0.2-0.2l0.2-0.2l0.2-0.2l0.2-0.2l0.1-0.1l0.1-0.1l0.1-0.1l0.1-0.1l0.1-0.1l0.1-0.1l0.1-0.1l0.1,0l0.2-0.1l0.2-0.1l0.1-0.1
				l0.1-0.1l0.1-0.1l0.1-0.1l0.2-0.1l0.2-0.1l0.2-0.1l0.2-0.1l0.3-0.2l0.3-0.2l0.6-0.3l0.6-0.3l0.6-0.3l0.6-0.3l0.6-0.3l0.6-0.3
				l0.6-0.3l0.6-0.3l0.6-0.3l0.6-0.3l0.6-0.3l0.6-0.3l0.6-0.3l0.6-0.2l0.6-0.2l0.6-0.2l0.5-0.2l0.5-0.2l0.5-0.2l0.5-0.2l0.5-0.2
				l0.5-0.2l0.5-0.2l0.5-0.2l0.2-0.1l0.2-0.1l0.2-0.1l0.2-0.1l0.4-0.1l0.4-0.1l0.4-0.1l0.4-0.1l0.2-0.1l0.2-0.1l0.2-0.1l0.2-0.1
				l0.6-0.1l0.6-0.1l0.6-0.1l0.6-0.1l0.6-0.1l0.6-0.1l0.6-0.1l0.6-0.1l0.6-0.1l0.6-0.1l0.6-0.1l0.6-0.1l0.6-0.1l0.6-0.1l0.6,0l0.7,0
				l0.6,0l0.7,0l0.7,0l0.7,0l1.3,0h1.3l1.3,0l1.3,0l1.3,0.1l1.3,0.1l1,0.1l1,0.1l1,0.1l1,0.1l1,0.2l1,0.2l1,0.2l1,0.2l1,0.2l1,0.2
				l1,0.3l1,0.3l1,0.3l1,0.3l0.9,0.3L503.1,170.5L503.1,170.5L503.1,170.5z M508,182.4l-0.5,1.1l-0.5,1.1l-0.5,1.1l-0.5,1.1
				l-0.5,1.1l-0.5,1.1l-0.5,1.1l-0.5,1.1l-0.5,1.1l-0.5,1.1l-0.5,1.1l-0.5,1.1l-0.5,1.1l-0.5,1.1l-0.5,1.1l-0.5,1.1l-0.2,0.3
				l-0.2,0.3l-0.2,0.3l-0.2,0.3l-0.2,0.3l-0.2,0.3l-0.2,0.3l-0.2,0.3l-0.2,0.3l-0.2,0.3l-0.2,0.3l-0.2,0.3l-0.3,0.6l-0.3,0.6
				l-0.2,0.3l-0.2,0.3l-0.2,0.3l-0.2,0.3l-0.2,0.3l-0.2,0.2l-0.2,0.2l-0.2,0.2l0,0.1l0,0.1l0,0.1l0,0.1l-0.1,0.1L495,207l-0.1,0.1
				l-0.1,0.1l-0.1,0.1l0,0.1l0,0.1l0,0.1l0,0.1l0,0.1l-0.3,0.3l-0.3,0.2l-0.1,0.1l-0.1,0.1l-0.1,0.1l-0.1,0.1l0,0.1l0,0.1l-0.7,0.7
				l-0.7,0.7l-0.6,0.6l-0.6,0.6l-0.6,0.6l-0.7,0.7l-0.7,0.7l-0.8,0.7l-0.1,0l-0.1,0l-0.1,0l-0.1,0.1l-0.1,0.1l-0.1,0.1l-0.1,0.1
				l-0.1,0.1l-0.1,0.2l-0.1,0.1l-0.1,0.1l-0.1,0l-0.1,0l-0.1,0l-0.1,0.1l-0.1,0.1l-0.1,0.1l-0.1,0.1l-0.2,0.1l-0.2,0.1l-0.1,0.1
				l-0.1,0.1l-0.1,0.1l-0.1,0.1l-0.1,0.1l-0.1,0.1l-0.1,0.1l-0.1,0.1l-0.2,0.1l-0.2,0.1l-0.2,0.1l-0.2,0.1l-0.2,0.1l-0.2,0.2
				l-0.2,0.1l-0.2,0.2l0,0.1l-0.1,0.1l-0.1,0.1l-0.1,0.1l-0.2,0.1l-0.2,0.1l-0.2,0.1l-0.2,0.1l-0.1,0.1l-0.1,0.1l-0.1,0.1l-0.1,0.1
				l-0.6,0.3l-0.6,0.3l-0.6,0.3l-0.6,0.3l-0.6,0.3l-0.6,0.3l-0.3,0.1l-0.3,0.1l-0.3,0.1l-0.3,0.1l-0.4,0.2l-0.4,0.2l-0.4,0.2
				l-0.4,0.2l-0.4,0.2l-0.4,0.2l-0.4,0.2l-0.4,0.2l-0.8,0.3l-0.8,0.3L472,223l-0.8,0.3l0.4,0.4h20.3l0,0.2l0,0.2l0,0.2l0,0.2
				l-0.1,0.3l-0.1,0.3l-0.1,0.3l-0.1,0.3l-0.2,0.3l-0.2,0.3l-0.3,0.6l-0.3,0.6l-0.2,0.3l-0.1,0.3l-0.1,0.3l-0.1,0.3h-24.2v-0.4
				l1.4-2.9l1.4-2.9l1.4-2.9l1.4-2.9l1.4-2.9l1.4-2.9l1.4-2.9l1.4-2.9l1.4-2.9l1.4-2.9l1.4-2.9l1.4-2.9l1.4-2.9l1.4-2.9l1.4-2.9
				l1.4-2.9H508L508,182.4L508,182.4z"/>
		</g>
	</g>
</g>
<g>
</g>
<g>
</g>
<g>
</g>
<g>
</g>
<g>
</g>
<g>
</g>
<g>
</g>
<g>
</g>
<g>
</g>
<g>
</g>
<g>
</g>
</svg>
