<!-- Created by @FCLOGO 2022-02-26 15:11:09 . https://fclogo.top/ -->
<!-- FOR PERSONAL USE ONLY NOT FOR COMMERCIAL USE -->
<svg version="1.1" xmlns="http://www.w3.org/2000/svg" xmlns:xlink="http://www.w3.org/1999/xlink" x="0px" y="0px"
	 viewBox="0 0 800 800" enable-background="new 0 0 800 800" xml:space="preserve">
<g>
	<path fill="#004097" d="M748.1,458.2c5.8-34.2-3.1-51.2-3.5-51.9l-0.4-0.7h-56.4l-0.1,0l-0.2,0h-1.3l0,0.3c-2,0.5-6.2,1.9-11.3,5.4
		c8-28.4,19.9-47.7,25.6-57c0.7-1.2,1.4-2.2,1.9-3.1c9-15.1,3.8-37.8-6.7-47.2c-2.2-2-4.3-3.8-6.3-5.4c-7.1-6-13.2-11.2-23.1-24.7
		c-2.5-3.4-5.5-7.2-8.7-11.2c-5.3-20.6-3.2-38.7,0.5-52c6.1-22,17.6-36.1,17.7-36.2l0.8-1l-1-0.9c-21.3-18.4-30.3-46.9-30.4-47.2
		l-0.8-2.6l-1.6,2.3c-14.9,21.7-20.2,44.1-21.6,62.4c0.2-15.8,1.4-29.7,4.7-42.2c8.6-32.4,33.3-64.8,33.3-64.8L641.3,50H158.7
		l-18.1,30.5c0,0,24.8,32.4,33.3,64.8c3.3,12.5,4.5,26.4,4.7,42.2c-1.3-18.4-6.7-40.8-21.6-62.4l-1.6-2.3l-0.8,2.6
		c-0.1,0.3-9.1,28.7-30.4,47.2l-1,0.9l0.8,1c0.1,0.1,11.6,14.2,17.7,36.2c3.7,13.3,5.8,31.4,0.5,52c-3.2,4-6.2,7.8-8.7,11.2
		c-9.9,13.5-16,18.7-23.1,24.7c-2,1.7-4.1,3.4-6.3,5.4c-10.5,9.5-15.7,32.2-6.7,47.2c0.5,0.9,1.2,1.9,1.9,3.1
		c5.7,9.3,17.6,28.6,25.6,57c-5.2-3.5-9.4-4.9-11.3-5.4l0-0.3h-1.3l-0.2,0l-0.1,0H55.8l-0.4,0.7c-0.4,0.7-9.3,17.6-3.5,51.9
		c5.1,30,26.9,125.3,107.3,201.7c-5.6,4.3-8,7.8-8.9,10.4c-0.3,0.7-0.5,1.4-0.5,2c-0.6,1.8-4.2,13.4,5.9,24.1
		c10.7,11.2,31.7,26.2,45.1,33.7c1.2,0.7,2.6,1.5,4.1,2.4c9.2,5.4,23.1,13.7,35,13.7c0,0,0,0,0,0c11.6,0,18.5-7.9,20.5-23.4
		C288.6,735.7,334.5,750,400,750c65.5,0,111.4-14.3,139.6-27.2c2,15.5,8.9,23.4,20.5,23.4c0,0,0,0,0,0c11.9,0,25.8-8.2,35-13.7
		c1.5-0.9,2.9-1.7,4.1-2.4c13.4-7.5,34.4-22.5,45.1-33.7c10.2-10.6,6.6-22.3,5.9-24.1c0-0.6-0.2-1.3-0.5-2c-1-2.6-3.4-6.1-8.9-10.4
		C721.1,583.5,743,488.2,748.1,458.2z M686.4,411.5c1.6,34.6-3.5,65-12.1,91c-9,3.5-17.5,6.4-23.8,7.5c-5.9-10-9.8-28.6,3.1-61.2
		C664.8,420.8,681,413.3,686.4,411.5z M662,277c10.3,14,16.9,19.6,23.9,25.6c2,1.7,4,3.4,6.1,5.3c9,8.1,13.4,27.6,5.7,40.5
		c-0.5,0.9-1.1,1.9-1.8,3c-6.3,10.2-20,32.5-28.1,65.5c-6.4,6.1-13.4,15.5-19.1,29.8c-13,32.7-9.8,52.6-3.7,64.3
		c-2.8,0.6-5.9,1.1-9.4,1.5c-1.1,0.1-2.1,0.2-3.2,0.2c-18.4,0-31.8-18.5-35.9-30.2c-3.9-11-1-36.5,6.8-59.3
		c7.4-21.9,34.3-66.7,50.3-86.7c15.1-18.8,0.5-59.7-8.6-80.8C652.3,264.4,658.1,271.7,662,277z M643.1,134.7
		c4.2,10,12.5,26.3,26.4,39.4c-3.8,5.3-11.6,17.8-16.4,35c-4.1,14.6-4.9,29.9-2.7,44.7c-3.7-4.4-7.3-8.7-10.7-12.6l-10.2-15.6
		C628,219.9,618.1,176.9,643.1,134.7z M130.5,174.1c13.8-13.1,22.2-29.4,26.4-39.4c25.1,42.2,15.1,85.2,13.6,91l-10.2,15.6
		c-3.3,3.9-7,8.2-10.7,12.6c2.3-14.8,1.4-30.1-2.7-44.7C142.1,191.9,134.3,179.5,130.5,174.1z M104.1,351.5c-0.7-1.1-1.3-2.2-1.8-3
		c-7.7-12.9-3.3-32.4,5.7-40.5c2.2-2,4.2-3.7,6.1-5.3c7-6,13.6-11.6,23.9-25.6c3.9-5.3,9.7-12.6,17-21.3c-9.2,21.1-23.7,62-8.6,80.8
		c16,19.9,42.9,64.7,50.3,86.7c7.7,22.8,10.6,48.3,6.8,59.3c-4.1,11.7-17.5,30.2-35.9,30.2c-1.1,0-2.1-0.1-3.2-0.2
		c-3.5-0.4-6.6-0.9-9.4-1.5c6.1-11.6,9.3-31.6-3.7-64.3c-5.7-14.3-12.6-23.7-19.1-29.8C124.2,384,110.4,361.7,104.1,351.5z
		 M113.6,411.5c5.5,1.8,21.6,9.4,32.7,37.3c13,32.7,9,51.3,3.1,61.2c-6.4-1.2-14.9-4-23.8-7.5C117.1,476.5,112,446.1,113.6,411.5z
		 M57.2,457.3c-4.3-25.6,0.1-41.1,2.1-46.3h48.9c-3.7,78.9,27,136.3,53.5,170.5c24,31,48.7,49.2,57.3,55l-28.2,43.3
		C88.6,601.9,62.7,489.9,57.2,457.3z M155.1,672.8c0.1-0.6,0.5-1.5,1.4-2.8c1.4-1.7,3.7-3.8,6.9-6.3c7.6,7,15.7,13.8,24.3,20.4
		c-0.9,0.8-1.9,1.2-3.1,1.2c-3.2,0-7.3-2.7-10.5-4.9c-2.2-1.5-4.1-2.7-5.9-3.4l-0.9-0.3c-2.3-0.9-7-2.7-12.2-3.7L155.1,672.8z
		 M255.3,720.4c-0.9,6-1.9,8.9-2.5,10.2c-3.7-3.9-7.3-6-14.1-9c-5.1-2.3-10.6-8.6-10.9-12.4c-0.2-2.4,0.9-3.8,1.3-4.4
		C233.4,708.1,242.1,713.9,255.3,720.4C255.3,720.4,255.3,720.4,255.3,720.4z M400,744.6c-101.8,0-155.5-35-167.5-43.9
		c7-10.4,19.8-33.4,24.5-42c21.5,10.9,76,34.7,143,34.7c67,0,121.5-23.8,143-34.7c4.7,8.6,17.5,31.6,24.5,42
		C555.4,709.7,501.6,744.6,400,744.6z M547.2,730.7c-0.6-1.4-1.6-4.3-2.5-10.2c0,0,0,0,0,0c13.2-6.5,21.9-12.3,26.1-15.5
		c0.5,0.5,1.5,2,1.3,4.4c-0.3,3.8-5.7,10-10.9,12.4C554.5,724.7,550.9,726.8,547.2,730.7z M645.9,678.2c0.2,3.7-0.5,9.2-5.6,14.5
		c-10.3,10.8-30.8,25.4-43.8,32.7c-1.2,0.7-2.6,1.5-4.2,2.4c-8.2,4.8-21.8,12.9-32.3,12.9c-4.6,0-8.1-1.6-10.6-5
		c0.6-0.4,1.1-0.9,1.5-1.4c3.1-3.3,6.3-5.1,12.4-7.9c7.1-3.2,13.6-11.1,14-16.9c0.4-5.4-2.7-8.4-3.5-9.1c-5.5-7-19-31.1-25.1-42.2
		l-0.1-0.2l0,0c-1.8-3.3-3-5.4-3-5.5l-0.6-1.2l-1.2,0.6c-1.5,0.8-3.2,1.7-5,2.6c0-0.1,0-0.1,0-0.2c-2.2,1.2-3.7,2-4.4,2.3l-1.2-0.1
		l0,0.6c-25.5,12.1-74.4,30.7-133.5,30.7s-108-18.6-133.5-30.7l0-0.6l-1.2,0.1c-0.7-0.3-2.3-1.2-4.6-2.4c0,0.1,0,0.1,0,0.2
		c-1.8-0.9-3.4-1.7-4.9-2.5l-1.2-0.6l-0.6,1.2c0,0.1-1.2,2.2-3,5.5h0l-0.1,0.1c-6.1,11.1-19.6,35.2-25.1,42.2
		c-0.7,0.6-3.9,3.6-3.5,9.1c0.4,5.8,6.9,13.7,14,16.9c6.1,2.8,9.4,4.6,12.4,7.9c0.5,0.5,1,1,1.5,1.4c-2.5,3.4-6,5-10.6,5
		c-10.4,0-24.1-8.1-32.3-12.9c-1.6-0.9-3-1.8-4.2-2.4c-13-7.3-33.5-21.9-43.8-32.7c-5.1-5.3-5.8-10.8-5.6-14.5
		c4.8,1,9.2,2.7,11.4,3.5c0.4,0.1,0.7,0.3,0.9,0.4c1.2,0.5,2.9,1.6,4.8,2.8c3.9,2.6,8.7,5.8,13.5,5.8c2.8,0,5.3-1.1,7.4-3.2l0.2,0.1
		l6.8-10.4l25.6-39.4l0,0l1.9-2.9l-1.2-0.7c-0.1-0.1-3.6-2.2-9.4-6.5l-0.5-0.6l-0.2,0.1c-11.4-8.5-30.6-24.8-49.3-49
		c-13.3-17.2-27.7-40.3-38-69.2c8.9,3.3,17.2,5.9,23.2,6.6c3.7,0.9,7.9,1.7,12.7,2.2c1.3,0.1,2.5,0.2,3.8,0.2c0,0,0,0,0,0
		c21.4,0,36.2-20.2,40.9-33.8c4.8-13.8,0.3-42.1-6.7-62.8c-7.7-22.8-34.6-67.6-51.2-88.3c-15.6-19.4,5.6-74.2,24.7-105.1l0.1-0.1
		l0.1-0.2c0.1-0.2,1.9-6.8,2.9-17.4c-0.5,19.9-1.6,42.5-1.6,68.3c0,16.3-0.4,48.2-1.1,85.8c7.4,11.9,14.6,24.6,20.2,35.9
		c1-52.5,1.7-100.5,1.7-121.7c0-18,0.6-34.8,1-49.5c1.2-35.7,2.1-63.9-4.6-89.2c-6.4-24.3-20.6-48.1-28.7-60.4l5.2-8.8h459l5.2,8.8
		c-8.1,12.3-22.3,36.1-28.7,60.4c-6.7,25.3-5.8,53.5-4.6,89.2c0.5,14.8,1,31.6,1,49.5c0,21.3,0.7,69.2,1.7,121.7
		c5.6-11.3,12.8-24,20.2-35.9c-0.6-37.6-1.1-69.4-1.1-85.8c0-25.8-1.1-48.4-1.6-68.3c1,10.6,2.9,17.2,2.9,17.4l0.1,0.2l0.1,0.1
		c19.2,30.9,40.3,85.7,24.7,105.1c-16.6,20.7-43.5,65.5-51.2,88.3c-7,20.7-11.6,48.9-6.7,62.8c4.8,13.6,19.6,33.8,40.9,33.8
		c0,0,0,0,0,0c1.2,0,2.5-0.1,3.8-0.2c4.8-0.5,9-1.3,12.7-2.2c6-0.8,14.3-3.3,23.2-6.6c-10.3,28.8-24.7,51.9-38,69.2
		c-18.6,24.1-37.9,40.4-49.3,49l-0.2-0.1l-0.5,0.6c-5.7,4.3-9.3,6.4-9.4,6.5l-1.2,0.7l1.9,2.9l0,0l25.6,39.4l6.8,10.4l0.2-0.1
		c2.1,2.1,4.6,3.2,7.4,3.2c4.8,0,9.6-3.2,13.5-5.8c1.8-1.2,3.5-2.4,4.8-2.8c0.2-0.1,0.6-0.2,0.9-0.4
		C636.7,680.9,641.1,679.2,645.9,678.2z M643.5,670.1c0.9,1.2,1.3,2.2,1.4,2.8l0,0.1c-5.2,1.1-9.9,2.9-12.2,3.7l-0.9,0.3
		c-1.8,0.7-3.7,1.9-5.9,3.4c-3.3,2.2-7.3,4.9-10.5,4.9c-1.1,0-2.1-0.4-3.1-1.2c8.6-6.6,16.7-13.4,24.3-20.4
		C639.8,666.2,642.1,668.4,643.5,670.1z M609.2,679.8L581,636.5c8.6-5.8,33.3-23.9,57.3-55c26.5-34.3,57.2-91.6,53.5-170.5h48.9
		c2,5.2,6.4,20.8,2.1,46.3C737.3,489.9,711.4,601.9,609.2,679.8z"/>
	<path fill="#004097" d="M253,159.2c14.2,0,25.9-10.4,28-24c0.2-1.4,0.3-2.8,0.3-4.3c0-1.6-0.1-3.1-0.4-4.7h-39v8.9h28.6
		c-1.9,7.9-9,13.7-17.4,13.7c-9.9,0-18-8.1-18-18c0-9.9,8.1-18,18-18c6.6,0,12.3,3.5,15.5,8.8h11.3c-3.8-11.1-14.4-19.2-26.8-19.2
		c-15.6,0-28.3,12.7-28.3,28.3C224.7,146.5,237.4,159.2,253,159.2z"/>
	<rect x="285.4" y="117.4" fill="#004097" width="10" height="40.5"/>
	<path fill="#004097" d="M309.3,135.7C309.3,135.7,309.3,135.7,309.3,135.7c0-5.7,4.1-10,7.7-10c5,0,7.7,2.7,7.7,6.9v25.3h10v-28.7
		c0-6.1-4.3-11.2-10-12.4c-0.9-0.2-1.7-0.3-2.6-0.3c-4.5,0-9.6,2.1-12.7,5.4v-4.5h-10v40.5h10V135.7z"/>
	<rect x="285.4" y="103.5" fill="#004097" width="10" height="10"/>
	<path fill="#004097" d="M406.6,158.5c9,0,16.8-5.6,19.9-13.6h-10.6c-2.2,2.7-5.6,4.4-9.3,4.4c-5.4,0-10.1-3.6-11.6-8.6h32.6
		c0.2-1.2,0.3-2.4,0.3-3.6c0-1.9-0.2-3.6-0.7-5.4c-2.4-9.2-10.7-16-20.7-16c-11.8,0-21.3,9.6-21.3,21.3
		C385.2,148.9,394.8,158.5,406.6,158.5z M406.6,125c4.8,0,8.9,2.8,10.9,6.8h-21.8C397.7,127.8,401.8,125,406.6,125z"/>
	<path fill="#004097" d="M225.9,176.4c0.9-0.5,1.8-1,2.7-1.7v1.1l1.2,0h1.5v1.2h-3.1l-1.4,0v1.8l1.4,0h3.1v3h-1.7
		c0.3-0.2,0.6-0.4,0.9-0.5l-0.5-0.9c-0.1-0.1-0.4-0.6-0.9-1.4c-0.5,0.4-1,0.6-1.6,0.8l0.4,0.7c0.2,0.3,0.4,0.7,0.7,1.3h-2.2l-1.2,0
		v1.8l1.1,0H238l1.3,0v-1.8l-1.3,0h-2.2c0.3-0.4,0.5-0.7,0.6-0.9c0.1-0.1,0.2-0.3,0.3-0.6c0.1-0.3,0.3-0.5,0.4-0.7
		c-0.6-0.2-0.9-0.3-1.1-0.4c-0.2-0.1-0.4-0.2-0.6-0.4c-0.2,0.6-0.4,1-0.5,1.2c-0.2,0.3-0.4,0.6-0.7,1c0.3,0.2,0.6,0.4,1,0.7h-1.8v-3
		h3.2l1.3,0V177l-1.3,0h-3.1v-1.2h1.6l1,0v-1c1.1,0.7,2.2,1.2,3.1,1.6l0.3-0.7c0-0.1,0.2-0.6,0.6-1.2c-0.8-0.1-1.6-0.4-2.5-0.9
		s-1.6-1-2.2-1.5s-0.9-0.9-1.1-1.1c-0.2-0.2-0.4-0.5-0.6-0.8l0.3-0.5c-0.7-0.2-1.1-0.3-1.3-0.3c-0.2-0.1-0.4-0.2-0.7-0.3l-0.2,0.4
		c-0.3,0.7-0.8,1.4-1.6,2.1c-0.8,0.7-1.5,1.3-2.3,1.8s-1.3,0.8-1.7,1c-0.4,0.1-0.7,0.2-1,0.3l0.5,0.6
		C225.4,175.5,225.6,175.8,225.9,176.4z M230.8,172.9c0.2-0.1,0.6-0.6,1.3-1.3l0.8,0.9c0.3,0.4,0.9,0.9,1.8,1.7h-5.3L230.8,172.9z"
		/>
	<path fill="#004097" d="M249.2,179.8l0.4,0.4c0.2,0.2,0.5,0.7,1,1.5l0.3-0.3c0.1-0.1,0.4-0.4,1-0.9c-0.7-0.8-1-1.3-1.2-1.5h3.7
		l1.2,0.1v-1.8l-1.2,0h-7.9l-1.4,0v1.8l1.4-0.1h3.9C250,179.3,249.7,179.6,249.2,179.8z"/>
	<path fill="#004097" d="M254.3,183.5c0.5-0.5,1-0.8,1.5-1.1c-0.6-1-1.2-2-1.8-3l-0.3,0.2c-0.2,0.1-0.6,0.3-1.3,0.6
		c0.3,0.5,0.6,1,0.9,1.5S254,182.8,254.3,183.5z"/>
	<path fill="#004097" d="M242.5,183.9h1.9l-0.1-1.4v-6.6c0.4-0.5,0.8-1.1,1.3-1.6v1.7l-0.1,1.1l1.2-0.1h6.9l1,0.1l0-1.1v-2.1l0-1.1
		l-1,0.1h-2.6l0-0.6l3,0h1v-1.7h-1.1h-2.8l0.1-1.3c-0.7,0.1-1.4,0-2,0l0,0.8c0,0,0,0.2,0,0.5h-2.5l-1.3-0.1v1.7l1.3,0h2.5l0,0.6
		h-2.4l-1.2-0.1l0.1,1.1c-0.3-0.1-0.6-0.3-0.8-0.5s-0.4-0.4-0.7-0.6c-0.7,1.3-1.4,2.2-1.9,2.8s-1.2,1-1.8,1.4
		c0.3,0.7,0.5,1.2,0.6,1.4s0.1,0.4,0.2,0.6l0.4-0.4l0.5-0.5c0.1-0.1,0.2-0.2,0.4-0.4v4.6L242.5,183.9z M252.1,174.4h0.9v1.2h-0.9
		V174.4z M249.8,174.4h0.8v1.2h-0.8V174.4z M247.4,174.4h0.9v1.2h-0.9V174.4z"/>
	<path fill="#004097" d="M247.3,183.3c0.1,0.1,0.3,0.3,0.5,0.4s1.1,0.2,2.3,0.2c1.1,0,1.8-0.1,2.1-0.3c0.3-0.2,0.5-0.5,0.7-0.8
		c0.2-0.4,0.3-0.7,0.4-1c-0.5-0.2-0.8-0.3-1-0.4c-0.2-0.1-0.4-0.2-0.7-0.4l-0.2,0.7c0,0.2-0.1,0.4-0.3,0.5c-0.2,0.1-0.5,0.2-0.9,0.1
		c-0.5,0-0.8,0-1-0.1c-0.2,0-0.3-0.1-0.3-0.1c0-0.1-0.1-0.2-0.1-0.4v-1.2l0-0.9h-1.8l0,0.8v2.2C247.2,182.9,247.2,183.2,247.3,183.3
		z"/>
	<path fill="#004097" d="M245.9,183.5c0.2-0.4,0.4-0.9,0.6-1.4s0.4-1.1,0.6-1.8c-0.6-0.1-1.1-0.3-1.7-0.6l-0.1,0.4
		c0,0.2-0.1,0.5-0.2,0.9c-0.1,0.4-0.3,0.8-0.6,1.4l0.5,0.3C245.1,182.8,245.5,183.1,245.9,183.5z"/>
	<path fill="#004097" d="M243.5,172.6c0.2-0.3,0.5-0.6,0.9-1c0.4-0.4,0.8-0.9,1.3-1.4c-0.4-0.2-0.8-0.4-1-0.6
		c-0.2-0.2-0.4-0.4-0.6-0.6c-0.3,0.4-0.7,1-1.2,1.6c-0.5,0.6-1.2,1.2-2.2,1.7c0.4,0.5,0.7,0.8,0.8,1.1c0.1,0.2,0.2,0.4,0.4,0.6
		C242.8,173.3,243.3,172.8,243.5,172.6z"/>
	<path fill="#004097" d="M271.3,183.4c0.1-0.7,0.2-1.1,0.3-1.4s0.1-0.5,0.2-0.8l-1.2,0.3c-0.3,0.1-1,0.1-2.1,0.1
		c-1.1,0-2.2-0.1-3.2-0.2v-2.6h3l1.3,0v-1.8l-1.3,0h-3v-1.9h2.5l1.7,0.1l0-1.4v-3.2l0-1.3l-1.7,0.1h-7.3l-1.7-0.1l0,1.3v3.2l0,1.4
		l1.7-0.1h3v5.7l-0.5-0.2c-0.2-0.1-0.5-0.2-0.8-0.5c-0.3-0.3-0.5-0.5-0.7-0.8c-0.1-0.2-0.3-0.5-0.4-0.8l0.1-0.7
		c0-0.2,0.1-0.8,0.2-1.8c-0.8-0.1-1.5-0.2-2.1-0.4l0,1c0,0.3,0,0.7-0.1,1.3c-0.1,0.6-0.3,1.2-0.5,1.8c-0.2,0.6-0.5,1-0.9,1.4
		s-0.8,0.6-1.1,0.8c0.4,0.4,0.9,1,1.4,1.6c0.6-0.6,1-1,1.3-1.3s0.4-0.6,0.6-0.8c0.1-0.2,0.3-0.5,0.4-0.8l0.2,0.3
		c0.1,0.2,0.4,0.5,0.8,0.8c0.4,0.3,0.9,0.6,1.5,0.8c0.6,0.2,1.6,0.4,2.9,0.6c1.3,0.1,2.5,0.2,3.5,0.1l1.5-0.1
		C270.9,183.5,271.1,183.5,271.3,183.4z M260.6,173.5v-2.3h7v2.3H260.6z"/>
	<path fill="#004097" d="M274.4,179.7c-0.2,0.1-0.7,0.2-1.5,0.4l0.3,0.6c0,0,0.2,0.5,0.5,1.3c0.6-0.3,1.3-0.6,2.3-1
		c0.9-0.4,1.7-0.7,2.4-0.9l0-0.6l0-0.8c0-0.1,0-0.3,0-0.5c-0.5,0.3-1.1,0.5-1.6,0.7v-2.6h0.3l1.1,0v-1.7l-1.1,0h-0.4v-2.8h0.4
		l1.1,0.1v-1.8l-1.1,0.1h-2.9l-1.1-0.1v1.8l1.1-0.1h0.7v2.8h-0.7l-1.1,0v1.7l1.1,0h0.8v3.2L274.4,179.7z"/>
	<path fill="#004097" d="M281.7,172.1h-2.1L278,172v1.8l1.6-0.1h2.1v4.2c-0.2-0.2-0.3-0.5-0.5-0.8l-0.4,0.6
		c-0.1,0.1-0.3,0.4-0.7,0.8c-0.4,0.4-0.8,0.8-1.2,1.2c-0.4,0.4-0.8,0.7-1,0.8c-0.3,0.2-0.6,0.3-0.8,0.4c0.4,0.4,0.7,0.8,0.9,1
		c0.2,0.2,0.3,0.4,0.4,0.7c1.3-1.2,2.4-2.4,3.3-3.3v2.5c0,0.1,0,0.2-0.1,0.2c0,0.1-0.2,0.1-0.3,0.1c0,0-0.4,0-1.1-0.1l0.2,0.4
		c0.1,0.3,0.3,0.8,0.5,1.5c0.7,0,1.3,0,1.8-0.1c0.5-0.1,0.8-0.3,0.9-0.4c0.1-0.2,0.1-0.4,0.1-0.8v-3.2l0.6,0.9
		c0.3,0.4,0.7,0.9,1.2,1.4c0.6,0.5,0.9,0.8,1.1,1c0.2,0.1,0.4,0.2,0.6,0.4l0.3-0.4l0.5-0.9c0.1-0.1,0.2-0.2,0.3-0.4
		c-0.5-0.2-0.8-0.4-1.1-0.6c-0.3-0.2-0.5-0.4-0.9-0.7c-0.3-0.3-0.6-0.6-0.7-0.8c-0.2-0.2-0.4-0.5-0.6-0.9l0.3-0.2
		c0.1-0.1,0.4-0.4,1-0.9c0.6-0.6,1-1,1.3-1.3l-0.5-0.4c-0.1,0-0.4-0.4-0.9-0.9c-0.3,0.5-0.6,0.9-0.9,1.1s-0.7,0.6-1.2,1.1
		c-0.2-0.6-0.4-1.1-0.5-1.5c-0.1-0.4-0.1-0.7-0.1-0.9c0-0.2,0-0.4,0-0.6h2.6l1.6,0.1V172l-1.6,0.1l0.2-0.2l0.4-0.3
		c0.1-0.1,0.2-0.2,0.4-0.3l-0.4-0.5l-1-1c-0.1-0.1-0.3-0.2-0.4-0.4c-0.4,0.4-0.8,0.8-1.3,1.1c0.6,0.5,1.2,1,1.7,1.6h-1.9v-1.5
		l0.1-1.2h-2l0,1.2L281.7,172.1z"/>
	<path fill="#004097" d="M279.6,178.1c0.5-0.4,1-0.8,1.5-1.1l-0.3-0.6c-0.1-0.2-0.5-0.8-1.1-1.7c-0.5,0.3-1,0.6-1.5,0.8
		c0.4,0.6,0.7,1,0.9,1.4C279.2,177.2,279.4,177.6,279.6,178.1z"/>
	<path fill="#004097" d="M295.3,181.3c-0.4,0.4-0.8,0.7-1.1,0.8c-0.3,0.1-0.7,0.3-0.9,0.3c0.4,0.4,0.7,0.7,0.9,0.9s0.3,0.4,0.4,0.6
		c1.4-0.9,2.6-1.9,3.5-2.9l-0.4-0.2c-0.2-0.1-0.6-0.4-1.2-0.8C296.1,180.5,295.7,180.9,295.3,181.3z"/>
	<path fill="#004097" d="M293.9,169.8c-0.6-0.1-1.3-0.4-2.1-0.8l-0.1,0.6c0,0.2-0.1,0.5-0.3,1.1c-0.1,0.5-0.3,1-0.6,1.6
		c-0.2,0.6-0.5,1.1-0.9,1.6c-0.3,0.5-0.7,0.9-1.1,1.2l0.3,0.4c0.2,0.3,0.4,0.9,0.7,1.7c0.3-0.4,0.7-0.8,1.1-1.3v6l-0.1,1.8h1.9
		l0-1.8v-7.5l0-1.2h-0.2c0.6-1.4,0.9-2.2,1.1-2.6C293.7,170.3,293.8,170,293.9,169.8z"/>
	<path fill="#004097" d="M298.8,181.1c0.6,0.4,1.2,0.9,1.8,1.3c0.5,0.5,1.1,1,1.8,1.7c0.4-0.4,0.9-0.8,1.4-1.3
		c-1.2-1-2.4-1.9-3.5-2.8C299.8,180.4,299.3,180.8,298.8,181.1z"/>
	<path fill="#004097" d="M294.5,171.2v7l-1.5-0.1v1.8l1.7-0.1h7.4l1.6,0.1v-1.8l-1.6,0.1v-7l0.1-1.7l-1.5,0.1H296l-1.6-0.1
		L294.5,171.2z M296.3,171.1h4.1v0.8h-4.1V171.1z M296.3,173.3h4.1v0.7h-4.1V173.3z M296.3,175.4h4.1v0.7h-4.1V175.4z M296.3,177.5
		h4.1v0.7h-4.1V177.5z"/>
	<path fill="#004097" d="M316.7,181.2c0.8,0.9,1.3,1.4,1.5,1.7c0.2,0.3,0.4,0.6,0.7,0.9l0.6-0.6l0.6-0.6c0.1-0.1,0.2-0.2,0.4-0.4
		l-0.5-0.6c0,0-0.2-0.2-0.5-0.5c-0.3-0.3-0.7-0.7-1.2-1.2s-0.9-0.9-1.3-1.3c-0.4-0.4-0.7-0.7-1-1l-0.4,0.4c-0.1,0.1-0.5,0.5-1.1,1
		l0.6,0.4C315.3,179.8,315.9,180.3,316.7,181.2z"/>
	<path fill="#004097" d="M310.8,184c0.3,0,0.6,0,0.9,0c0.5,0,0.9-0.1,1.3-0.2c0.4-0.1,0.7-0.3,0.8-0.4s0.1-0.4,0.1-0.7v-5.2h3.7
		l2.1,0.1v-2l-2.1,0.1h-3.7v-1.8l0.1-1.6h-2.1l0.1,1.6v1.8h-3.5l0.3-3.5c1.5-0.1,2.9-0.2,4.2-0.3c1.3-0.1,2.4-0.2,3.3-0.4
		c0.9-0.1,2-0.3,3.2-0.6l-0.4-0.5l-0.6-0.9c-0.1-0.1-0.2-0.3-0.4-0.6l-0.8,0.4c-0.2,0.1-0.8,0.2-1.9,0.5c-1.1,0.2-2.1,0.3-3.1,0.4
		c-1,0.1-2.1,0.1-3.2,0.1c-0.6,0-1.1,0-1.3,0s-0.5,0-0.8-0.1l0,1.3c0,0.2,0,0.8-0.1,1.5c-0.1,0.8-0.1,1.5-0.2,2.1
		c-0.1,0.6-0.1,1.1-0.2,1.5c-0.1,0.4-0.1,0.7-0.2,1l2-0.1h3.9v3.7c0,0.3,0,0.5,0,0.5s0,0.1-0.1,0.1c0,0-0.1,0.1-0.3,0.1
		c-0.2,0-0.6,0-1.3-0.1l0.3,0.7C310.6,182.8,310.7,183.3,310.8,184z"/>
	<path fill="#004097" d="M309,178.3c-0.1,0.3-0.4,0.7-0.8,1.2c-0.4,0.5-0.8,1-1.2,1.4c-0.4,0.4-0.8,0.7-1,0.9s-0.5,0.3-0.8,0.5
		c0.7,0.6,1.1,0.9,1.2,1c0.1,0.1,0.3,0.3,0.4,0.4l0.6-0.5c0.1-0.1,0.3-0.3,0.8-0.8s0.8-0.8,1-1s0.5-0.5,0.8-1c0.3-0.4,0.7-1,1.1-1.6
		c-0.7-0.4-1.3-0.8-1.8-1.1L309,178.3z"/>
	<path fill="#004097" d="M329.6,175.4l-1.6,0.1h-0.6c0.3-0.5,0.5-0.9,0.7-1.1c0.1-0.2,0.2-0.5,0.3-0.7c-0.3-0.2-0.7-0.3-1-0.5h0.6
		l1.3,0v-1.8l-1.3,0h-1.9c0.3-0.2,0.6-0.5,0.9-0.7c-0.5-0.7-0.9-1.3-1.3-1.8c-0.7,0.3-1.3,0.6-1.8,0.8c0.5,0.6,0.8,1,0.9,1.1
		c0.1,0.2,0.2,0.4,0.3,0.5h-1.9l-1.4,0v1.8l1.4,0h0.7c-0.4,0.2-0.8,0.4-1.1,0.5l0.3,0.5l0.4,0.9c0,0.1,0.1,0.2,0.2,0.4h-0.5
		l-1.6-0.1v1.8l1.6-0.1h4.9l1.6,0.1V175.4z M326.7,175.4h-2.4c0.3-0.1,0.6-0.3,0.9-0.4c-0.1-0.3-0.3-0.7-0.4-1
		c-0.2-0.3-0.3-0.6-0.4-0.9h2.3l-0.1,0.4c-0.1,0.4-0.4,0.8-0.8,1.5C326.1,175.1,326.4,175.3,326.7,175.4z"/>
	<path fill="#004097" d="M328.9,177.9l-1.2,0h-3.9l-1.5,0l0,1.1v3.1l0,1.4h1.9v-0.4h2.9v0.5h1.8l0-1.5V179L328.9,177.9z M327,181.5
		h-2.9v-2h2.9V181.5z"/>
	<path fill="#004097" d="M329.9,170.3l0,1.6v10.5l-0.1,1.5h1.9l-0.1-1.5v-10.4l1.6,0l-0.4,1.3c-0.1,0.3-0.3,0.9-0.7,2v0.8l0.6,0.5
		c0.3,0.2,0.7,0.6,1,1.1c0.3,0.5,0.5,1.1,0.4,1.7c-0.1,0.6-0.4,1-1,1s-1,0-1.3,0l0.2,0.6c0.1,0.2,0.2,0.5,0.2,0.7s0.1,0.5,0.1,0.7
		c0.8-0.1,1.5-0.3,1.9-0.5s0.9-0.5,1.2-0.9c0.3-0.4,0.5-1.2,0.6-2.2c0.1-1.1-0.7-2.2-2.3-3.5l1.7-4l-0.7-1.1h-3.7L329.9,170.3z"/>
	
		<ellipse transform="matrix(0.7071 -0.7071 0.7071 0.7071 -21.7764 300.4009)" fill="#004097" cx="351.7" cy="176.5" rx="7.6" ry="7.6"/>
	<path fill="#004097" d="M364.5,183.9c0.8,0.2,1.6,0.4,2.4,0.4c4.2,0,7.6-3.4,7.6-7.6c0-4.2-3.4-7.6-7.6-7.6c-0.8,0-1.6,0.1-2.4,0.4
		c3,1,5.2,3.8,5.2,7.2C369.7,180,367.6,182.9,364.5,183.9z"/>
	<path fill="#004097" d="M385.7,176.7c0,3.4-2.2,6.2-5.2,7.2c0.8,0.2,1.6,0.4,2.4,0.4c4.2,0,7.6-3.4,7.6-7.6c0-4.2-3.4-7.6-7.6-7.6
		c-0.8,0-1.6,0.1-2.4,0.4C383.5,170.5,385.7,173.3,385.7,176.7z"/>
	<path fill="#004097" d="M396.5,183.9c0.8,0.2,1.6,0.4,2.4,0.4c4.2,0,7.6-3.4,7.6-7.6c0-4.2-3.4-7.6-7.6-7.6c-0.8,0-1.6,0.1-2.4,0.4
		c3,1,5.2,3.8,5.2,7.2C401.7,180,399.5,182.9,396.5,183.9z"/>
	<path fill="#004097" d="M412.5,183.9c0.8,0.2,1.6,0.4,2.4,0.4c4.2,0,7.6-3.4,7.6-7.6c0-4.2-3.4-7.6-7.6-7.6c-0.8,0-1.6,0.1-2.4,0.4
		c3,1,5.2,3.8,5.2,7.2C417.7,180,415.5,182.9,412.5,183.9z"/>
	<path fill="#004097" d="M352.2,146.3c0.5,0.4,1.1,0.7,1.6,1c0.6,0.3,1.3,0.6,1.9,0.8c1.1,0.3,2.3,0.5,3.4,0.5c0.5,0,1,0,1.6-0.1
		c0.2,0,0.3,0,0.5-0.1c1.7-0.3,3.3-0.9,4.8-1.9c0.5-0.3,0.9-0.7,1.3-1.1c1.1-1,2-2.3,2.7-3.6c0.7-1.5,1.1-3.1,1.2-4.8v-0.8
		c-0.1-1.6-0.4-3.3-1.2-4.8c-0.5-1-1.1-2-2-2.9c-0.6-0.7-1.3-1.3-2.1-1.8c-1.5-1-3.1-1.6-4.8-1.9c-0.2,0-0.3,0-0.5-0.1
		c-0.5-0.1-1-0.1-1.6-0.1c-1.2,0-2.3,0.2-3.4,0.5c-0.7,0.2-1.3,0.5-1.9,0.8c-0.6,0.3-1.1,0.6-1.6,1c-0.3,0.2-0.6,0.5-1,0.8
		c-0.9,0.8-1.6,1.7-2.2,2.7c-0.2,0.3-0.3,0.6-0.5,0.9c-0.7,1.5-1.1,3.2-1.2,4.8v0.8c0.1,1.6,0.5,3.3,1.2,4.8
		c0.1,0.3,0.3,0.6,0.5,0.9c0.4,0.7,0.9,1.3,1.5,2C351.1,145.4,351.6,145.9,352.2,146.3z M355.8,147.5c-0.1,0-0.3-0.1-0.4-0.2
		c0.1,0,0.2,0,0.2-0.1c0.1,0,0.1,0.1,0.2,0.1c0.1,0.1,0.3,0.2,0.4,0.2C356.1,147.6,355.9,147.6,355.8,147.5z M359.2,145.6
		c-1.2,0.3-2.5,0.4-3.4,0.2l-0.1,0c-0.7-0.4-1.3-0.9-1.9-1.4c-0.1-0.1-0.3-0.3-0.4-0.4c-0.6-0.6-1-1.2-1.2-1.8
		c0.2-1.2,0.5-2.4,1.2-3.5c0.1,0,0.2,0,0.4,0c0.6,0,1.3-0.1,1.9-0.1l0.1,0c0.8-0.1,1.5-0.2,2.3-0.3c0.3,0.4,0.7,0.8,1,1.2
		c0.5,0.6,1,1.1,1.6,1.6c0.2,0.1,0.3,0.3,0.5,0.4l0.1,0.1c0,0.2-0.1,0.4-0.1,0.6c-0.1,0.5-0.2,0.9-0.4,1.4c0,0.1-0.1,0.2-0.1,0.3
		c-0.2,0.5-0.4,1-0.7,1.6C359.8,145.4,359.5,145.5,359.2,145.6z M352.2,136.9c-0.5-0.7-0.8-1.4-1.1-2.2c0.3-0.8,0.6-1.6,1-2.3
		c0-0.1,0.1-0.1,0.1-0.2c0.3-0.6,0.7-1.2,1.2-1.7c0.2-0.1,0.3-0.1,0.5-0.2c0.7-0.2,1.3-0.3,1.9-0.4c0.8-0.1,1.5,0,2.1,0.1
		c0.5,0.6,0.9,1.2,1.3,1.8l0,0.1c0.4,0.6,0.8,1.3,1.1,1.9c-0.4,0.7-0.8,1.4-1.1,2.1c-0.3,0.6-0.7,1.3-1,2c-0.8,0.2-1.5,0.3-2.3,0.4
		l-0.1,0c-0.6,0.1-1.3,0.1-1.9,0.1c-0.1,0-0.3,0-0.4,0C353,137.9,352.6,137.4,352.2,136.9z M367,145.1c-0.3,0.3-0.6,0.6-1,0.8
		c-1.5,1.1-3.1,1.7-4.8,2l-0.1,0c0,0,0.1,0,0.1,0c0.6-0.2,1-0.5,1.4-0.9c0.9-0.1,1.7-0.4,2.4-0.8c0.3-0.2,0.7-0.4,1-0.6
		c0.4-0.3,0.8-0.6,1.2-1c0.1,0,0.2,0,0.4-0.1C367.4,144.7,367.2,144.9,367,145.1z M367.2,144.3c-0.4,0.4-0.8,0.8-1.2,1.1
		c-0.4,0.3-0.7,0.5-1.1,0.7c-0.7,0.4-1.5,0.7-2.4,0.8c-0.5-0.2-0.9-0.4-1.3-0.6c-0.2-0.1-0.3-0.2-0.5-0.3c-0.2-0.2-0.4-0.3-0.6-0.5
		c0.2-0.4,0.4-0.8,0.6-1.2c0.1-0.2,0.2-0.5,0.3-0.7c0.1-0.2,0.1-0.4,0.2-0.6c0.1-0.5,0.2-0.9,0.3-1.4c1.5-0.5,2.9-1.2,4.1-2.2
		l0.4,0.2c0.8,0.5,1.5,1,2.3,1.5C368.4,141.8,368,143.1,367.2,144.3z M370,133.1c0.5,1.4,0.7,2.8,0.6,4.2c0,0.4,0,0.7-0.1,1.1
		c0,0,0-0.1,0-0.1c0.1-1,0.1-1.9,0-2.7c-0.1-0.6-0.2-1.2-0.5-1.7c-0.1-0.3-0.2-0.5-0.3-0.8c0-0.3,0-0.6,0-0.9
		C369.8,132.4,369.9,132.7,370,133.1z M369.4,132.9c0.2,0.4,0.4,0.9,0.6,1.4c0.1,0.4,0.2,0.8,0.3,1.2c0.2,1,0.1,2.1-0.1,3.3
		c-0.1,0.2-0.1,0.3-0.2,0.4c-0.4,0.8-1,1.4-1.6,1.7c-0.8-0.5-1.6-1-2.4-1.6l-0.3-0.2c0.1-1.5-0.1-3-0.7-4.4c0.3-0.4,0.7-0.8,1-1.2
		c0.1-0.1,0.2-0.3,0.3-0.4c0.3-0.5,0.6-1,0.8-1.4C367.7,131.7,368.7,132.2,369.4,132.9z M367,131.6c-0.2,0.5-0.5,1-0.8,1.5
		c-0.1,0.1-0.1,0.1-0.2,0.2c-0.3,0.5-0.7,0.9-1.1,1.4c-1.1-0.4-2.5-0.7-3.7-0.8c-0.2,0-0.3,0-0.5,0c-0.1,0-0.2,0-0.2,0
		c-0.3-0.7-0.7-1.4-1.1-2c-0.1-0.1-0.1-0.2-0.2-0.3c-0.4-0.5-0.7-1.1-1.1-1.6c0.3-0.7,0.7-1.3,1.1-1.8c0.3-0.3,0.6-0.6,0.9-0.9
		c0.2,0,0.5,0,0.7-0.1c0.2,0,0.3,0,0.5,0c0.4,0,0.8,0,1.2,0.1c0.8,0.1,1.7,0.4,2.5,0.8c0.4,0.4,0.8,0.9,1.1,1.3
		C366.5,130.1,366.9,130.8,367,131.6z M357.3,125.7C357.4,125.7,357.4,125.6,357.3,125.7c0.7-0.2,1.3-0.2,1.9-0.2c0.2,0,0.4,0,0.6,0
		c0.3,0,0.7,0,1,0.1c0.2,0,0.3,0,0.5,0.1c1.6,0.3,3.1,0.9,4.4,1.8c-0.3,0-0.6,0.2-0.9,0.4c-0.8-0.3-1.5-0.6-2.3-0.7
		c-0.4-0.1-0.8-0.1-1.2-0.1c-0.2,0-0.3,0-0.5,0c-0.2,0-0.5,0-0.7,0.1c-0.3-0.2-0.6-0.4-0.8-0.5c-0.7-0.4-1.4-0.6-2.1-0.6
		C357.2,125.8,357.3,125.8,357.3,125.7z M352.2,127.9c0.5-0.4,1.1-0.8,1.6-1.1c0.6-0.3,1.3-0.6,1.9-0.8c0.4-0.1,0.9-0.3,1.3-0.3
		c-0.1,0.1-0.1,0.2-0.2,0.3c0,0,0,0-0.1,0c-0.3,0-0.7,0.1-1,0.2c-0.7,0.2-1.3,0.6-1.9,1c-0.3,0.2-0.6,0.5-0.8,0.7
		C352.8,127.9,352.5,127.9,352.2,127.9L352.2,127.9L352.2,127.9z M348.6,133c0.1-0.4,0.3-0.8,0.5-1.1c0.6-1.3,1.5-2.4,2.5-3.4
		c0.1-0.1,0.2-0.1,0.2-0.2c0.1,0,0.2-0.1,0.3-0.1l0,0l0,0c0.2-0.1,0.5-0.1,0.7-0.1c-0.1,0.8,0.1,1.5,0.4,2.2c-0.4,0.5-0.8,1-1.1,1.5
		c-0.1,0.2-0.2,0.3-0.3,0.5c-0.4,0.8-0.8,1.6-1,2.4c-0.7,0.3-1.3,0.6-1.8,1c-0.2,0.1-0.3,0.3-0.5,0.4l0,0c-0.2-0.3-0.4-0.6-0.5-0.9
		c0,0,0-0.1,0-0.1C348.2,134.4,348.4,133.7,348.6,133z M348.6,140.5c-0.5-1.4-0.7-2.8-0.6-4.2c0-0.2,0-0.5,0.1-0.7
		c0.1,0.3,0.3,0.5,0.4,0.7c-0.3,0.7-0.2,2.1,0.1,3.2c0.1,0.4,0.3,0.8,0.5,1.2c0,0,0,0.1,0,0.1c0,0,0,0,0,0.1
		c-0.1,0.1-0.2,0.3-0.2,0.4C348.8,141,348.7,140.8,348.6,140.5z M349.1,141.6L349.1,141.6c0-0.1,0-0.2,0-0.3c0-0.1,0.1-0.2,0.2-0.4
		c0.8,0.8,1.8,1.2,2.8,1.3c0,0.1,0.1,0.2,0.1,0.3c0.2,0.5,0.6,1,1.1,1.5c0.2,0.2,0.4,0.4,0.5,0.5c0.5,0.5,1,0.9,1.6,1.2
		c-0.1,0.5-0.1,0.9,0,1.4c-0.1,0.1-0.3,0.1-0.4,0.1c-0.4-0.2-0.8-0.3-1.2-0.6c-0.6-0.3-1.1-0.7-1.6-1.1c-0.4-0.4-0.9-0.7-1.3-1.2
		C350.2,143.6,349.6,142.7,349.1,141.6L349.1,141.6z"/>
	<path fill="#004097" d="M223.5,425.5c1.2,9.7,4.7,2.5,6.9,12.7c-1.6,1.8-2.8,3.2-4.8,4.7c1.3,3.9,3.5,9.5,4.4,14.1
		c5.5,5.8,3.3,3.3,2.8,10.3c9.6,7.7-2.5,4.8,9.4,21.6c0.2,0,0.4,0,0.6,0c9.6,16.4,26.1,31.5,44,40.6c4.2,1.2,36,10,37.8,0.7
		c-2.1-0.9-20.9-8.9-19.6-9.8c12.6,2.6,25.9,5.3,39.7,6.9c7.3,1.8,7.7,3.7,10.9,11.9c17.7,0,36.3-5.5,51.5-14.4
		c0.2-0.6,0.4-1.3,0.6-1.9c-4.3-12.9,22.7-22.5,31-19.6c1.5,5.9-17.4,15.4-19.3,20.1c17.1-8.2,33.9-19.7,48.4-32.2
		c0.6-4.8-5.7-4-8.1-4.5c-1.8-8.2,12.9-11.6,16-5.2c-0.5,1.9-0.5,1.9-1.9,4.2c79.6-73.1,101-159.9,93.5-214.3
		c-7.9-50.3-31.8-76.4-33.4-77.1c-4.3,27.8-27.6,60.6-56.1,70.8c-0.4,0.6-0.4,0.6-0.2,2.2c0.2,0,0.4,0,0.6,0
		c21.8,45,5.2,104-26.5,140.4c-0.9,1.3-3.9,5.6-5.3,6c-31.1,35-88.3,66.5-130.8,35.1c-21.5-13.3-27-33.8-31.4-57.8
		c-1.7,2.6-1.7,2.6-2.1,2.6c-1.6-7.2-0.2-30.3,4.3-34.8c0.3,0.1,0.6,0.2,0.9,0.3c0.2-0.2,0.4-0.4,0.6-0.5
		c4.7-19.7,12.5-38.6,23.6-55.5c-3.9-8.4-0.3-13,8.8-11.9c3.4-3.7,7.6-9.5,12.1-14.9c1.6-1.3,9.9-7.4,9.9-9
		c-1.5,0.3-1.5,0.3-17.2,7.6c-6.1,2-10.9,2.7-16.7,2.7c4.3-9.4,4.2-8.4,14.7-11.4c0-0.3,0-0.6,0.1-0.9c-0.2-0.1-0.4-0.1-0.6-0.1
		c0-5.8,3.3-11.2,3.3-16.5c-0.3-0.1-0.5-0.2-0.7-0.3c-5.7,3.1-5.7,3.1-11.9,5.7c0,0.5,0,1.1,0,1.7c1.1,0.5,2.2,1.1,3.4,1.7
		c-0.3,1.3-1.2,2.4-1.9,3.6c-2,0.3-7.7,0.6-7.7,3.5c-0.8,0.2-3.2,2.1-4,2.2c-1.1-1.5-2-2.9-2.9-4.3c7.9-13.4,17.7-27.6,32.8-33.5
		c0.6-0.6,0.6-0.6,0.8-1.7c-4.7-0.5-6.8,3.1-10.7,3.6c-1.7-1.6-1.6-1.9-2.9-2.2c-5.1,9.3-10.9,17.4-18.7,24.2
		c-7.6,3.2-6.5-0.7-7.9,9c-3.9,12.2-14.6,35.7-28.3,39.8c-0.8-4.6,3.7-10.6,3.7-15.7c-0.6,0-1.3,0.1-1.9,0.2
		c-8.5,11.4-17.7,27.9-19.9,42.5c2.4,1.2,3.7,0.7,4.9,4.9c0.2,2.5-2.1,18.8-5.3,18.8c-1.6-1.9-3.6-3.5-4.9-4.3
		c-0.2-3.8-0.5-4.6-1.7-6.6c-9.6-4.7-6.3,20.9-5.9,25.9c1.5,1.2,4.6,1.6,7.6,2c1.2,2.4-3.1,16.6-5.2,19c-5.3-4-4.6-10.4-10.6-10.4
		C220.9,392.3,224.4,410.2,223.5,425.5z"/>
	<path fill="#004097" d="M258.8,283.9c5.4-1.1,9.4-12.1,11.7-16.6c-0.4-0.5-0.8-1.1-1.3-1.5c-5.1,0-6.8,6.4-10.2,6.4
		c-0.6,0.6-0.6,0.6-4,8.5C257.1,282.8,257.1,282.8,258.8,283.9z"/>
	
		<ellipse transform="matrix(0.6179 -0.7863 0.7863 0.6179 21.5215 454.3991)" fill="#004097" cx="478.2" cy="205.1" rx="45.1" ry="31.5"/>
	
		<ellipse transform="matrix(0.6179 -0.7863 0.7863 0.6179 97.3611 459.8251)" fill="#004097" cx="521.7" cy="129.7" rx="25.3" ry="17.7"/>
	<path fill="#004097" d="M426.8,263.2c-0.7-0.1-1.3-0.3-2-0.4c0,0,0,0,0,0c-0.3-0.1-0.7-0.1-1-0.2c-0.1,0-0.2,0-0.3-0.1
		c-0.2,0-0.5-0.1-0.7-0.1c-0.7-0.1-1.3-0.2-2-0.3c-0.9-0.1-1.9-0.2-2.9-0.3c-0.1,0-0.1,0-0.2,0c-0.3,0-0.6,0-0.8,0
		c-0.3,0-0.5,0-0.8,0c-0.7,0-1.3-0.1-2-0.1c-0.2,0-0.4,0-0.6,0c-0.1,0-0.2,0-0.3,0c-0.8,0-1.7,0-2.5,0.1c0,0,0,0,0,0
		c-0.5,0-0.9,0-1.4,0.1c-0.3,0-0.6,0-0.9,0c-0.2,0-0.4,0-0.6,0.1c-0.2,0-0.4,0-0.5,0c-0.4,0-0.9,0.1-1.3,0.1c-0.1,0-0.2,0-0.2,0
		c0,0-0.1,0-0.1,0c-0.8,0.1-1.6,0.2-2.4,0.3c-0.1,0-0.2,0-0.3,0c-0.4,0.1-0.8,0.1-1.2,0.2c-0.3,0-0.6,0.1-0.9,0.1
		c-0.4,0.1-0.8,0.1-1.2,0.2c0,0,0,0,0,0c-0.5,0.1-0.9,0.2-1.4,0.3c-0.1,0-0.2,0-0.2,0c-0.2,0.1-0.5,0.1-0.7,0.2
		c-0.5,0.1-1,0.2-1.5,0.4c-0.5,0.1-1.1,0.3-1.6,0.4c-0.3,0.1-0.5,0.1-0.8,0.2c-0.3,0.1-0.7,0.2-1,0.3c-0.2,0-0.3,0.1-0.5,0.2
		c-0.8,0.2-1.6,0.5-2.5,0.8c-0.2,0.1-0.5,0.1-0.7,0.2l0,0c-19.3,6.4-38.8,19.9-54.5,39.3l0,0c-0.4,0.5-0.8,0.9-1.1,1.4
		c-0.2,0.3-0.5,0.6-0.7,0.9l0,0c-12.8,16.6-21,34.8-24.3,52.3c0,0,0,0,0,0c0,0.1,0,0.1,0,0.2c-0.1,0.3-0.1,0.6-0.2,0.9
		c-0.2,1-0.4,2-0.5,3c0,0,0,0,0,0c-3.1,21,0.9,40.4,12.3,54c0.6,0.7,1.3,1.5,1.9,2.2c0,0,0,0,0,0c0.1,0.1,0.2,0.2,0.3,0.3
		c0.1,0.1,0.1,0.1,0.2,0.2c0.6,0.7,1.3,1.3,2,1.9c0.2,0.2,0.4,0.4,0.6,0.6c0.3,0.3,0.6,0.6,0.9,0.8c0.4,0.4,0.8,0.7,1.3,1
		c0.9,0.7,1.8,1.4,2.8,2c0.2,0.1,0.4,0.3,0.6,0.4c0.6,0.4,1.3,0.8,1.9,1.2c0.1,0.1,0.2,0.1,0.3,0.2c0.1,0.1,0.2,0.1,0.4,0.2
		c0.2,0.1,0.4,0.2,0.5,0.3c0.7,0.4,1.4,0.7,2.1,1.1c0.1,0.1,0.3,0.1,0.4,0.2c0,0,0,0,0,0c0.6,0.3,1.3,0.6,1.9,0.9
		c0.2,0.1,0.4,0.2,0.6,0.2c0.3,0.1,0.5,0.2,0.8,0.3c0.2,0.1,0.3,0.1,0.5,0.2c0,0,0.1,0,0.1,0c0.5,0.2,1,0.4,1.5,0.5
		c0.2,0.1,0.4,0.1,0.6,0.2c0.2,0.1,0.4,0.1,0.7,0.2c0.2,0.1,0.5,0.1,0.7,0.2c0.3,0.1,0.6,0.2,0.9,0.3c0.4,0.1,0.8,0.2,1.3,0.3
		c0,0,0,0,0,0c0.1,0,0.1,0,0.2,0c0.2,0.1,0.4,0.1,0.6,0.2c0.6,0.1,1.2,0.3,1.8,0.4c0.1,0,0.2,0,0.3,0.1c0.4,0.1,0.8,0.2,1.2,0.2
		c0.2,0,0.4,0.1,0.6,0.1c0.7,0.1,1.4,0.2,2,0.3c0,0,0.1,0,0.1,0c0.2,0,0.4,0,0.5,0.1c0.6,0.1,1.1,0.1,1.7,0.2c0.3,0,0.6,0,0.9,0.1
		c0.3,0,0.7,0.1,1,0.1c0.1,0,0.2,0,0.3,0c0.7,0,1.5,0.1,2.2,0.1l0,0c12.7,0.3,26.3-3.2,39.5-9.9l0,0c0,0,0.1,0,0.1,0
		c0.6-0.3,1.3-0.7,1.9-1c0.1-0.1,0.2-0.1,0.3-0.2c0.3-0.2,0.6-0.3,0.9-0.5c0,0,0.1,0,0.1,0c1.1-0.6,2.2-1.2,3.3-1.9
		c0.6-0.4,1.2-0.7,1.8-1.1c0.6-0.3,1.1-0.7,1.7-1.1c0.7-0.4,1.3-0.9,2-1.3c0.5-0.3,0.9-0.6,1.4-0.9c0.7-0.5,1.4-1,2.1-1.5
		c0.2-0.2,0.4-0.3,0.7-0.5c0.3-0.2,0.6-0.4,0.9-0.6c0.5-0.4,1.1-0.8,1.6-1.2c0.7-0.5,1.4-1.1,2.1-1.7c0.6-0.4,1.1-0.9,1.7-1.4
		c0.1,0,0.1-0.1,0.2-0.1c0.6-0.5,1.1-1,1.7-1.5c0.2-0.2,0.4-0.3,0.6-0.5c0,0,0.1-0.1,0.1-0.1c0.2-0.2,0.5-0.4,0.7-0.6
		c0.4-0.4,0.9-0.8,1.3-1.2c0.1-0.1,0.3-0.2,0.4-0.4c0.2-0.1,0.3-0.3,0.4-0.4c0.5-0.5,1-0.9,1.5-1.4c0.3-0.3,0.6-0.6,0.9-0.9
		c0.4-0.3,0.7-0.7,1-1c0.5-0.5,1-1.1,1.6-1.6c0.3-0.3,0.7-0.7,1-1c0.4-0.4,0.8-0.9,1.2-1.3c0,0,0,0,0,0c1-1,1.9-2.1,2.8-3.2
		c0.2-0.3,0.5-0.5,0.7-0.8c1.1-1.3,2.2-2.6,3.3-4c0,0,0.1-0.1,0.1-0.1c0.3-0.4,0.6-0.8,0.9-1.2l0,0c10.9-14.2,18.4-29.6,22.3-44.7
		l0,0c0.3-1.1,0.5-2.1,0.8-3.2c0-0.1,0-0.2,0.1-0.3c0.1-0.4,0.2-0.7,0.2-1.1c0.1-0.6,0.3-1.2,0.4-1.7c0-0.1,0-0.1,0-0.2
		c0.1-0.3,0.1-0.7,0.2-1c0.1-0.4,0.1-0.8,0.2-1.2c0.2-1.1,0.4-2.2,0.5-3.3c0-0.1,0-0.2,0-0.3c0-0.1,0-0.3,0.1-0.4
		c0.1-1,0.3-2.1,0.4-3.1c0-0.1,0-0.2,0-0.3c0-0.2,0-0.4,0.1-0.6c0.1-0.6,0.1-1.2,0.2-1.8c0-0.2,0-0.5,0-0.7c0-0.2,0-0.5,0-0.7
		c0-0.4,0-0.7,0.1-1.1c0-0.2,0-0.4,0-0.6c0-0.2,0-0.5,0-0.7c0-0.7,0-1.4,0-2.1c0,0,0-0.1,0-0.1c0-0.2,0-0.3,0-0.5c0-0.7,0-1.4,0-2
		c0-0.5,0-1.1-0.1-1.6c0-0.3,0-0.7-0.1-1c0-0.5-0.1-1-0.1-1.4c0-0.6-0.1-1.3-0.2-1.9c0,0,0-0.1,0-0.1c-0.1-0.6-0.1-1.3-0.2-1.9
		c0-0.3-0.1-0.5-0.1-0.8c0-0.1,0-0.3-0.1-0.4c-0.1-1-0.3-2-0.5-2.9c-0.2-1.1-0.4-2.2-0.7-3.2c0-0.2-0.1-0.3-0.1-0.5
		c0-0.1-0.1-0.3-0.1-0.4c0,0,0,0,0,0c-0.1-0.4-0.2-0.7-0.3-1.1c-0.2-0.6-0.3-1.2-0.5-1.8c0-0.2-0.1-0.3-0.2-0.5
		c0-0.1-0.1-0.3-0.1-0.4c-0.1-0.4-0.3-0.9-0.4-1.3c-0.2-0.5-0.3-0.9-0.5-1.3c0-0.1-0.1-0.2-0.1-0.3c0-0.1-0.1-0.1-0.1-0.2
		c0-0.1-0.1-0.2-0.1-0.3c-0.1-0.4-0.3-0.7-0.4-1.1c-0.2-0.6-0.5-1.1-0.7-1.7c0-0.1-0.1-0.1-0.1-0.2c0-0.1-0.1-0.1-0.1-0.2
		c-0.2-0.4-0.4-0.8-0.6-1.2l0,0c-3.4-6.9-8.1-13-14.2-17.8c-4.6-3.6-9.7-6.3-15.2-8.1l0,0c0,0,0,0,0,0c-0.1,0-0.3-0.1-0.4-0.1
		c-0.4-0.1-0.7-0.2-1.1-0.3c-0.5-0.2-1-0.3-1.5-0.4c-0.1,0-0.1,0-0.2,0c-0.2-0.1-0.5-0.1-0.7-0.2C427.3,263.3,427,263.3,426.8,263.2
		z M390.3,286.9l23.3,4.7c-0.9,8.7-1.5,20.9-1.9,30.2l-24.5,20.7l-26.1-4.6l-0.5-27.7C365.1,305.5,374.1,297.3,390.3,286.9z
		 M333.7,310.2l2.1,4.4l-15.4,36.9c-2.3,1.1-5.3,2.9-9,5.7C314.9,341.1,322.6,324.9,333.7,310.2z M321.4,415.7
		c-8.8-10.7-13.1-25.6-12.2-42.8c0.2-3.9,0.7-7.7,1.4-11.6c4.4-3.5,7.9-5.7,10.5-7l13.6,9.2l1.3,37.2L321.4,415.7z M335.5,307.8
		c14.9-18.8,33.9-32.5,53.1-39.1l-0.9,16.7c-15.7,10.2-24.4,18.1-28.9,22.9l-21,4.4L335.5,307.8z M360.8,402.8l-22.2-3.3l-1.3-36
		l23.2-23l25.6,4.5l1.4,30.6L360.8,402.8z M361.7,433.1l9-9.3l26-3.9l1.1,3.4C385.9,429.4,373.5,432.9,361.7,433.1z M397.5,417.1
		l-26.5,4l-8.3-16.5l26.7-27.3l28.9-3.8l4.1,19.6L397.5,417.1z M462,341.2c-3.7,16.1-11.7,32.9-23.6,48.1c-0.2,0.3-0.5,0.6-0.7,0.9
		l-12.7,2l-4.4-21.1l11.7-30.9c4.4-3,12.6-8.4,23.1-13.2L462,341.2z M445,274.7c6.1,4.8,10.7,10.9,14,18l-2.5,3.2
		c-7.2-7.1-15.1-11.9-20.9-14.8l-3.4-13.4C436.8,269.3,441.1,271.7,445,274.7z M434.9,283.7c5.9,3.1,14,8.1,21,15.4l-1.1,25.2
		c-9.6,4.4-17.5,9.2-22.3,12.5l-18-15.2c0.4-9.3,1-21.5,1.9-30.1L434.9,283.7z"/>
	<path fill="#004097" d="M102.5,532.3l1.3-0.5L97.8,516l-5.6,2.1l3.4,9.1c-2.2-0.2-4-0.8-5.4-1.9c-1.4-1.1-2.5-2.7-3.3-4.7
		c-1.2-3.2-1.1-6.2,0.1-9.2c1.3-2.9,3.4-5,6.5-6.1c2.9-1.1,5.8-1,8.6,0.3c2.8,1.3,4.8,3.5,6,6.6c1.3,3.5,1.1,7.2-0.7,10.9l5.7,2.6
		c1.3-2.7,2.1-5.2,2.2-7.5c0.1-2.7-0.3-5.5-1.4-8.2c-2-5.2-5.4-8.7-10.3-10.6c-4.1-1.6-8.2-1.6-12.4,0c-3,1.1-5.6,2.9-7.6,5.4
		c-2.1,2.5-3.3,5.2-3.8,8.3c-0.5,3.1-0.1,6.2,1.2,9.5c1.1,3,2.8,5.4,4.9,7.2c2.1,1.8,4.7,2.9,7.7,3.4
		C96.9,533.6,99.7,533.3,102.5,532.3z"/>
	
		<rect x="93.7" y="541.8" transform="matrix(0.8924 -0.4513 0.4513 0.8924 -234.0442 108.4902)" fill="#004097" width="33.5" height="6.3"/>
	<polygon fill="#004097" points="142.9,568.1 124.2,579.7 135.4,555.9 132.2,550.7 103.7,568.3 107.1,573.7 125.8,562.2 
		114.6,585.9 117.8,591.1 146.3,573.5 	"/>
	<path fill="#004097" d="M162,607.1c1.2-2.9,1.6-5.6,1.1-8.2c-0.5-2.6-2.2-5.8-5.2-9.7l-4.6-6l-26.4,20.5l4.7,6
		c2.7,3.4,4.7,5.7,6.3,6.7c1.5,1.1,3.3,1.7,5.3,2c2,0.3,4.2,0.1,6.4-0.5c2.2-0.7,4.4-1.8,6.4-3.4C158.8,612.6,160.8,610,162,607.1z
		 M152.1,609.6c-1.8,1.4-3.6,2.3-5.4,2.6c-1.8,0.3-3.3,0.2-4.6-0.5c-1.3-0.6-2.9-2.1-4.7-4.4l-1.8-2.3l16.7-13l1.3,1.7
		c2.4,3.1,3.5,5.9,3.2,8.4C156.5,605,154.9,607.4,152.1,609.6z"/>
	<polygon fill="#004097" points="152.2,635 164.6,648.4 169.2,644.1 161.1,635.4 167.5,629.4 175.6,638.1 180.1,633.9 172,625.2 
		176.4,621.1 184.5,629.8 189.1,625.6 176.6,612.2 	"/>
	<path fill="#004097" d="M651.7,615.1c0.2,2.6,0,4.7-0.5,6.3c-0.5,1.6-1.3,3.1-2.5,4.5c-1.4,1.6-3.1,2.8-5,3.5
		c-1.9,0.7-3.8,0.8-5.8,0.4c-1.9-0.4-3.8-1.3-5.4-2.8c-2.4-2.1-3.7-4.7-3.9-7.8c-0.2-3.1,0.7-5.8,2.8-8.2c2.5-2.9,5.9-4.4,10.3-4.6
		l-0.3-6.1c-2.8,0-5.5,0.6-8.1,1.7c-2.6,1.2-4.7,2.8-6.6,4.9c-2.1,2.4-3.5,5.2-4.2,8.4c-0.7,3.2-0.5,6.2,0.5,9
		c1,2.8,2.7,5.4,5.2,7.5c3.9,3.4,8.2,4.9,12.8,4.6c4.7-0.3,8.7-2.5,12.1-6.4c1.9-2.1,3.1-4.3,3.9-6.6c0.7-2.3,1-5.1,0.8-8.6
		L651.7,615.1z"/>
	<polygon fill="#004097" points="672.4,594.2 650,578.5 646.3,583.7 673.7,602.9 682.7,590 677.7,586.6 	"/>
	<path fill="#004097" d="M697.5,552.2c-1-1-2.9-2.3-5.8-3.9l-17.4-9.7l-3.1,5.6l18.2,10.1c2,1.1,3.2,2,3.8,2.6
		c0.5,0.7,0.8,1.5,0.9,2.4c0.1,1-0.2,1.9-0.7,2.9c-0.5,0.9-1.2,1.6-1.9,2c-0.8,0.4-1.6,0.6-2.4,0.5c-0.8-0.1-2.1-0.6-3.7-1.5
		l-18.9-10.5l-3.1,5.6l17.4,9.7c3.5,1.9,6.1,3,8,3.1c1.8,0.1,3.7-0.3,5.5-1.3c1.8-1,3.4-2.6,4.5-4.7c0.9-1.6,1.4-3.2,1.6-4.7
		c0.2-1.5,0-3-0.6-4.5S698.5,553.2,697.5,552.2z"/>
	<path fill="#004097" d="M711.4,512.4c-1.8-0.7-3.6-0.9-5.2-0.6c-1.7,0.3-3.3,1.3-5,2.8c-0.4-1.5-1-2.6-1.7-3.5
		c-0.8-0.9-1.7-1.6-2.9-2c-1.8-0.7-3.6-0.8-5.4-0.2c-1.8,0.6-3.3,1.7-4.5,3.3c-0.9,1.2-1.9,3.2-3,6l-2,4.9l31.1,12.4l3.5-8.7
		c1-2.5,1.4-4.6,1.3-6.3c-0.1-1.7-0.8-3.3-1.8-4.8C714.6,514.2,713.2,513.1,711.4,512.4z M696.7,520.7l-0.5,1.3l-6.5-2.6l0.6-1.5
		c0.5-1.4,1.2-2.3,2.1-2.7c0.8-0.4,1.7-0.5,2.7-0.1c1,0.4,1.7,1.1,2.1,2C697.4,518.1,697.3,519.3,696.7,520.7z M710,525.8l-0.6,1.5
		l-8-3.2l0.5-1.2c0.9-2.3,2-3.8,3.2-4.5s2.4-0.8,3.8-0.2c1.2,0.5,1.9,1.3,2.2,2.4C711.3,521.6,711,523.3,710,525.8z"/>
	<polygon fill="#004097" points="257.1,706.8 262.8,709.5 269,695.8 278.4,700 280.9,694.4 271.6,690.2 274.1,684.7 283.5,688.9 
		286,683.3 270.9,676.4 	"/>
	<path fill="#004097" d="M313.2,691.9c-3-0.9-6-1-9.1-0.3c-3,0.7-5.7,2.1-8,4.3c-2.3,2.1-3.8,4.7-4.8,7.8c-1.4,4.6-1,9,1.2,13.3
		c2.2,4.3,5.7,7.2,10.5,8.6c4.6,1.4,9,0.9,13.2-1.3c4.2-2.3,7-5.7,8.4-10.4c1.4-4.7,1-9.2-1.3-13.5
		C321.1,696.1,317.7,693.3,313.2,691.9z M318.5,711.9c-0.9,3.1-2.7,5.3-5.4,6.8c-2.7,1.5-5.4,1.8-8.3,0.9c-2.6-0.8-4.6-2.3-6.1-4.5
		c-1.9-2.8-2.3-6-1.3-9.6c1-3.2,2.8-5.5,5.4-6.9c2.6-1.5,5.4-1.7,8.4-0.8c2.9,0.9,5.1,2.7,6.5,5.4
		C319.2,706,319.5,708.9,318.5,711.9z"/>
	<path fill="#004097" d="M357.8,701.6c-3.1-0.4-6.1-0.1-9,1.1c-2.9,1.2-5.3,3-7.2,5.4c-1.9,2.4-3.1,5.3-3.5,8.4
		c-0.7,4.7,0.4,9,3.2,12.9c2.8,3.9,6.7,6.2,11.7,6.9c4.7,0.7,9-0.5,12.8-3.3c3.8-2.9,6-6.7,6.7-11.6c0.7-4.9-0.4-9.3-3.3-13.1
		C366.3,704.6,362.5,702.3,357.8,701.6z M366.2,720.6c-0.4,3.2-1.9,5.7-4.3,7.6c-2.4,1.9-5.1,2.6-8.1,2.2c-2.6-0.4-4.9-1.5-6.7-3.5
		c-2.3-2.5-3.2-5.6-2.7-9.2c0.5-3.3,1.9-5.9,4.3-7.7c2.4-1.8,5.1-2.5,8.2-2.1c3,0.4,5.5,1.9,7.3,4.4S366.7,717.5,366.2,720.6z"/>
	<polygon fill="#004097" points="384.7,711.4 390.6,711.5 390.1,738.7 396.6,738.8 397.1,711.7 403.2,711.8 403.3,705.5 
		384.8,705.1 	"/>
	<path fill="#004097" d="M436.1,722.2c-1.1-1.4-2.6-2.4-4.7-3.2c1.1-1,1.9-2,2.4-3.1c0.5-1.1,0.6-2.3,0.5-3.5
		c-0.2-1.9-0.9-3.6-2.2-4.9c-1.3-1.3-3-2.2-5-2.6c-1.4-0.3-3.7-0.3-6.7-0.1l-5.2,0.4l2.7,33.3l9.3-0.7c2.7-0.2,4.8-0.8,6.2-1.7
		c1.5-0.9,2.6-2.1,3.5-3.8s1.2-3.4,1-5.2C437.8,725.2,437.2,723.5,436.1,722.2z M422,710.7l1.6-0.1c1.5-0.1,2.6,0.1,3.3,0.7
		c0.8,0.6,1.2,1.4,1.3,2.4c0.1,1.1-0.2,2-0.9,2.7c-0.7,0.7-1.8,1.1-3.4,1.3l-1.4,0.1L422,710.7z M430.5,730.4
		c-0.9,0.7-2.6,1.2-5.3,1.4l-1.6,0.1l-0.7-8.5l1.3-0.1c2.5-0.2,4.3,0.1,5.5,0.8c1.1,0.7,1.8,1.8,1.9,3.3
		C431.8,728.7,431.4,729.7,430.5,730.4z"/>
	<path fill="#004097" d="M459.2,699.7l-5.8,35.4l6.5-1.4l1.3-7.3l13.4-2.8l4,6.2l6.5-1.4l-19.4-30.1L459.2,699.7z M462.1,719.8
		l2-12.2l6.7,10.3L462.1,719.8z"/>
	<polygon fill="#004097" points="504.5,715.9 495.7,689.9 489.7,692 500.4,723.7 515.2,718.7 513.3,712.9 	"/>
	<polygon fill="#004097" points="541.5,700.9 533,704.7 521.8,679.7 516,682.3 529.7,712.8 544,706.4 	"/>
	<path fill="#004097" d="M259.5,592.9c-1.4,0-3.1-0.1-5.1-0.5c-2-0.3-4.2-0.9-6.7-1.8c0,1.5-0.2,3.3-0.5,5.3c3.6,0.6,6.1,1,7.6,1.3
		c1.5,0.2,3,0.4,4.5,0.5c1.5,0.1,3.8,0.2,6.9,0.3l-0.8-5.6C262.9,592.7,260.9,592.8,259.5,592.9z"/>
	<path fill="#004097" d="M243.3,596.2c4.9-7.2,7.8-11.5,8.8-12.8l-4.3-3.2c-0.9,1.6-3.8,6.1-8.5,13.4c-3.4-2.4-5.8-4.1-7.1-5.1
		l-2.7,4.2c1.4,0.8,3.9,2.3,7.5,4.5l-5.8,8.9c-0.6,0.6-1.1,0.9-1.4,1c-0.3,0.1-0.9,0.3-1.9,0.6l0.2,5.4c4.8-0.1,7.9-0.1,9.5,0.1
		c1.5,0.1,3.5,0.1,5.8-0.1c0-1,0.3-2.4,0.8-4.1c-1.6,0.1-2.9,0.1-4.2,0.1s-2.9-0.2-5-0.3l5.8-8.8l6.2,4.1c-1.2,2.6-1.9,4.7-2.1,6.3
		c-0.3,1.7-0.4,3-0.3,3.9c0,0.9,0.1,1.9,0.3,3c0.1,1.1,0.6,2.4,1.3,4s1.5,3.3,2.5,5.2c1.7-1.1,3.4-2.1,5-3.1c-1-1.1-1.8-2.3-2.5-3.3
		c-0.7-1.1-1.2-2.3-1.4-3.8c-0.3-1.4-0.5-2.8-0.5-4.1c0-1.3,0-2.2,0.2-2.9c0.2-0.6,0.6-1.6,1.2-2.9c4.4,3,7.3,5.2,8.8,6.5l2.9-4.4
		c-2.4-1.3-7.5-4.5-15.3-9.7L243.3,596.2z"/>
	<path fill="#004097" d="M341.3,630.1l-5.2-6.2l-4.3,3.1c2.2,2.5,4,4.6,5.5,6.5L341.3,630.1z"/>
	<path fill="#004097" d="M334.7,638l-5-5.7l-3.4,3.5c1.7,1.7,3.5,3.7,5.3,5.9L334.7,638z"/>
	<path fill="#004097" d="M354.5,637c1.2,2.9,2,4.8,2.4,5.9s1.1,3,2.1,5.8l4.1-2.5c-1.2-3.1-2.7-6.6-4.5-10.7L354.5,637z"/>
	<path fill="#004097" d="M334.7,641.5l3.1,3.9c3.3-3.3,6.5-6.9,9.4-10.9l-3.9-2.5c-1.3,2-2.6,3.7-3.7,5
		C338.4,638.3,336.8,639.8,334.7,641.5z"/>
	<path fill="#004097" d="M335.2,646.8c-1.3-1.6-2.3-2.9-2.9-3.9c-2.6,4.1-6.2,8.3-10.7,12.5l3.5,4.7c1.9-2.5,3.5-4.7,4.8-6.4
		C331.2,652,333,649.7,335.2,646.8z"/>
	<path fill="#004097" d="M349.6,652.2c0.3-2.3,1.2-6.2,2.5-11.9c1.4-5.7,2.4-9.5,3.1-11.5l-5.1-1.5c-0.3,2.3-1.2,6.2-2.5,11.9
		c-1.4,5.7-2.4,9.6-3.1,11.8L349.6,652.2z"/>
	<path fill="#004097" d="M351.5,651.8c-1.9,1.2-4.1,2.1-6.6,3c-2.6,0.8-4.9,1.4-7,1.7c-2.1,0.3-4.8,0.4-8.1,0.2
		c0.9,1.9,1.6,3.9,1.9,5.9c3.3-0.3,6.2-0.8,8.8-1.4c2.6-0.7,5.2-1.5,7.6-2.4c2.5-1,6.2-3,11.3-6.2l-2.8-5
		C355.1,649.3,353.3,650.7,351.5,651.8z"/>
	<path fill="#004097" d="M463,658.2c0.8-2.1,1.5-4.2,2-6.2l-4.3-0.6c-0.7,1.8-1.4,3.8-2.2,5.9l3.1,1.2c-1.6,0.4-3.4,0.7-5.2,1.1
		l-1.8-8.2c5.6-1.2,9.5-2,11.6-2.3l-0.9-4.3c-2.1,0.7-5.9,1.6-11.5,2.9l-0.8-3.7c2.6-0.6,4.9-1,6.8-1.2l-0.7-3
		c2.5,0.9,5.6,1.8,9.2,2.7c0.1-1.5,0.4-3.3,0.9-5.3c-3.8-0.5-6.7-1.1-8.7-1.8c-2-0.7-3.9-1.6-5.7-2.8c-1.6-1-3.1-2.1-4.4-3.2
		c0.1-0.3,0.3-0.6,0.4-0.9l-5.2-0.4c-1.6,3.5-2.9,6.2-4.1,8.1c-1.2,1.9-2.6,3.6-4.3,5.2c-1.7,1.6-3.7,3.1-6.2,4.5
		c1.2,1.1,2.5,2.5,3.8,4.1c2.3-2,4.2-3.7,5.6-5.2l0.5,2.3c2.1-0.7,4.7-1.4,7.9-2.1l0.8,3.7c-5.6,1.2-9.5,2-11.6,2.3l0.9,4.3
		c2.1-0.7,5.9-1.6,11.5-2.9l1.8,8.2c-2,0.4-3.9,0.9-5.5,1.2l2.4-2.1l-4.3-4.8l-3.9,2.5l4.3,4.8c-4.1,0.8-6.9,1.3-8.6,1.6l1,4.6
		c2.6-0.8,8.5-2.2,17.6-4.2s15-3.2,17.7-3.6l-1-4.6C470.2,656.4,467.3,657.2,463,658.2z M442.4,642.5c1.3-1.7,2.6-3.4,3.8-5.3
		c0.6-1,1.3-2.1,2-3.3c1.4,1.2,2.9,2.2,4.5,3.2c1.3,0.8,2.9,1.5,4.8,2.3C450.5,640.9,445.5,641.9,442.4,642.5z"/>
	<path fill="#004097" d="M543.8,610.6l2.4,3.7c1.8-1.4,5.6-4,11.4-7.7l0.5-0.3c5.5-3.5,9.2-5.8,11.2-6.8l-2.4-3.7
		c-1.8,1.4-5.6,4-11.4,7.7C549.8,607.1,545.9,609.5,543.8,610.6z"/>
	<path fill="#004097" d="M562.1,611.8l0.8-3.9l-4.8-1.7l-1.4,3.5C558.5,610.3,560.3,611,562.1,611.8z"/>
	<path fill="#004097" d="M548,615.3c0.6,2.1,1.2,4.3,1.7,6.7l4.6,0.8c-0.7-3-1.4-5.8-2-8.3L548,615.3z"/>
	<path fill="#004097" d="M563.6,609c0.4,1.2,0.6,2,0.6,2.2c0,0.3-0.3,0.8-0.9,1.7l-2.8,1.8c-0.6,0.2-1,0.2-1.2,0.2
		c-0.1,0-0.4-0.2-0.8-0.4c-0.8-1.2-1.7-2.9-2.8-4.9l-4.6,2.6c1.5,2,3.2,4.5,5.1,7.4c0.7,0.5,1.3,0.8,1.8,0.9c0.5,0,1.2-0.1,2.1-0.4
		l6.8-4.4c0.6-0.6,1-1.1,1.2-1.3c0.2-0.3,0.3-0.5,0.4-0.8c0.1-0.3,0.1-0.6,0.1-1c0-0.4-0.2-1.7-0.5-3.9
		C566.4,608.9,564.8,609,563.6,609z"/>
	<path fill="#004097" d="M534.7,594.4l-4.8-0.5c-0.1,1.8-0.2,3.3-0.4,4.5s-0.8,3.6-2.1,7.3c1.4,0.5,2.9,1.1,4.4,2c1-3.8,1.7-6.4,2-8
		C534.2,598,534.5,596.3,534.7,594.4z"/>
	<path fill="#004097" d="M567.1,602.3l-2.4,3.8c2.1,0.9,3.5,1.5,4.2,1.9c0.7,0.4,2.1,1.2,4.1,2.4l1.2-4.5c-1.2-0.7-2.2-1.3-3.1-1.7
		C570.2,603.8,568.8,603.1,567.1,602.3z"/>
	<path fill="#004097" d="M540.3,601.9c0.6,0.8,1.2,1.5,1.6,2.1c0.8,1.2,1.7,2.9,2.8,4.9c1.8-1.4,5.2-3.7,10.1-6.8
		c4.9-3.1,8.4-5.2,10.4-6.3c-1.4-1.8-2.5-3.3-3.3-4.6c-0.8-1.2-1.7-2.9-2.8-4.9c-1.5,1.2-4.2,3.1-8.1,5.6c-0.3-0.5-0.7-1.2-1-1.9
		c4.2-2.7,7.2-4.5,9.1-5.5l-2.4-3.7c-1.6,1.2-4.4,3.2-8.6,5.9c-0.4-0.8-0.9-1.7-1.4-2.4l-4.5,2.2c0.8,1.1,1.5,2,2,2.8
		c-4,2.6-6.9,4.3-8.7,5.2l2.4,3.7c1.5-1.2,4.4-3.2,8.5-5.8c0.2,0.6,0.6,1.2,1,1.9c-4,2.6-6.9,4.3-8.7,5.2c0.6,0.8,1.2,1.6,1.6,2.3
		l-4.5,0.3c-0.1,3-0.3,5.7-0.7,8.1c-0.4,2.4-1,4.3-1.6,5.6c1.3,0.9,2.7,2,4.3,3.2c0.5-1.5,0.9-3,1.3-4.3c4.7,7.3,7.5,11.8,8.4,13.7
		l4.2-2.7c-1.4-1.7-5.2-7.6-11.6-17.5C540.1,606.3,540.2,604.3,540.3,601.9z M557.1,592l2,3.1l-2.1,1.3l-2-3.1L557.1,592z
		 M551.9,595.4l2,3.1l-2.1,1.3l-2-3.1L551.9,595.4z M546.6,598.8l2,3.1l-2.1,1.3l-2-3.1L546.6,598.8z"/>
	<path fill="#004097" d="M359.3,157.9c4.4,0,8.4-1.3,11.8-3.6v3.6h10v-54.4h-10v15.8c-3.4-2.3-7.4-3.6-11.8-3.6
		c-11.6,0-21.1,9.4-21.1,21.1S347.7,157.9,359.3,157.9z M359.3,123.3c7.5,0,13.5,6,13.5,13.5s-6,13.5-13.5,13.5
		c-7.5,0-13.5-6-13.5-13.5S351.9,123.3,359.3,123.3z"/>
	<path fill="#004097" d="M584.3,623.7L584.3,623.7c11.6-8.8,28-23.1,44.2-43.3c-0.3-14.2-0.7-35.2-1.2-59.7
		c-12.6-1.8-22.7-10-29.6-19.1C557.8,553.5,492,612.9,400,612.9s-157.8-59.4-197.7-111.2c-7,9.1-17.1,17.3-29.6,19.1
		c-0.5,24.5-0.9,45.5-1.2,59.7c16.3,20.2,32.6,34.5,44.2,43.3l0,0l1.6,1.3c5.8,4.4,9.5,6.6,9.5,6.7l3.8,2.3l0,0.1
		c14.8,9.1,34.1,19.2,36.4,20.3c24,11.5,73.3,30.8,133,30.8c59.7,0,109-19.3,133.1-30.8c0.8-0.4,21.1-11,36.3-20.3l0,0l2.6-1.6
		l1.2-0.7c0,0,3.7-2.3,9.6-6.7L584.3,623.7z M556.5,631.4c-48.3,29.7-101,44.7-156.5,44.7c-113.6,0-187.6-64.4-208-84.5
		c0.3-13.5,0.9-43.3,1.7-79.6c10.5,13.5,22.8,27.5,36.9,40.9c51.2,48.7,108.2,73.3,169.4,73.3s118.2-24.7,169.4-73.3
		c14.1-13.4,26.4-27.4,36.9-40.9c0.7,36.4,1.4,66.2,1.7,79.6C599.6,599.8,582.1,615.7,556.5,631.4z"/>
</g>
<g>
</g>
<g>
</g>
<g>
</g>
<g>
</g>
<g>
</g>
<g>
</g>
<g>
</g>
<g>
</g>
<g>
</g>
<g>
</g>
<g>
</g>
</svg>
