<svg version="1.1" id="图层_1" xmlns="http://www.w3.org/2000/svg" xmlns:xlink="http://www.w3.org/1999/xlink" x="0px" y="0px"
	 viewBox="0 0 800 800" enable-background="new 0 0 800 800" xml:space="preserve">
<g>
	<g>
		<path fill="#927736" d="M671.4,101.7c0,0-126.8-51.7-271.4-51.7s-271.4,51.7-271.4,51.7s-7.7,186.4-6.8,239.2
			c1,59.5-1.7,140.1,18.1,197.3C166.3,614.7,305.7,708.9,400,750c94.3-41.1,233.7-135.3,260.2-211.9
			c19.8-57.2,17.1-137.8,18.1-197.3C679.1,288.1,671.4,101.7,671.4,101.7z"/>
		<path fill="#FFFFFF" d="M400,719.2c-45.6-21.1-96.5-52-138.4-84.1c-69.2-53-89.4-89.2-95.2-106.1
			c-15.4-44.5-15.9-109.2-16.3-161.2c-0.1-9.6-0.1-18.6-0.3-27.4c-0.7-41.6,4.2-170.3,6.1-218.8c38.2-13.3,136.7-43.5,244.1-43.5
			c107.4,0,205.9,30.2,244.1,43.5c1.9,48.5,6.8,177.2,6.1,218.8c-0.1,8.8-0.2,17.8-0.3,27.4c-0.4,52-0.9,116.7-16.3,161.2
			c-5.8,16.9-26,53.1-95.2,106.1C496.5,667.1,445.6,698,400,719.2z"/>
	</g>
	<linearGradient id="SVGID_1_" gradientUnits="userSpaceOnUse" x1="257.9685" y1="212.4787" x2="558.388" y2="587.0641">
		<stop  offset="0" style="stop-color:#E51624"/>
		<stop  offset="0.8" style="stop-color:#C01834"/>
	</linearGradient>
	<path fill="url(#SVGID_1_)" d="M572.3,240.2v-31.6c-22.4-5.6-47-10-70.7-13.2v30.9c-29-4.1-52.4-5.3-71.3-5.7v-32.5
		c-13.2-0.9-23.8-1.2-30.3-1.2c-8,0-22.3,0.6-40,1.9v32c-19.3,0.6-42.7,2.4-71.3,6.9v-31c-24,3.6-48.6,8.3-70.4,14.3v31.5
		c-12,3.1-24.6,6.6-38,10.7c-0.1,56.8-0.2,157.4,3.8,208c4.9,61,1.3,136.7,215.8,243.6C614.6,598,610.9,522.3,615.8,461.3
		c4.1-50.6,4-151.1,3.8-208C602.8,248.2,587,243.9,572.3,240.2z"/>
	<linearGradient id="SVGID_2_" gradientUnits="userSpaceOnUse" x1="240.1308" y1="300.2002" x2="581.7693" y2="600.6989">
		<stop  offset="0" style="stop-color:#353637"/>
		<stop  offset="1" style="stop-color:#000000"/>
	</linearGradient>
	<path fill="url(#SVGID_2_)" d="M509,552.4l61,35C539.9,622,488.5,660.8,400,704.9c-69.8-34.8-116.5-66.2-147.9-95
		c-1.6-22-3.1-48.1-3.4-70.7c-2.7-186,120.7-221.9,182.5-220.6c48.2,1,83.9,19.2,83.9,19.2s42.1-22.1,40.7-34
		c-1.1-9.5-10.9-8.2-13.9-8.2c-28.7-0.2-33.6,0.9-40.5,19.2c-19-6.4-42.9-10.3-74.7-10.5c-116.2-0.8-197.2,79.8-243.7,134.8
		c-0.8-16.1-1.3-34.7-1.7-54.2c34.3-44.1,115.3-126.1,263.1-124.2c99.7,1.3,138.7,41.6,138.7,41.6l-37.6,34.8
		c-1.1,56.3,15.6,62.2,14.7,77.6c-0.6,10.2-11.3,42.8-11.6,77.2c-0.2,28.1,7.5,26,6.1,31.5C547.4,553.1,509,552.4,509,552.4z
		 M531.5,422.6c-8-17.8-4.9-31.2-4.9-31.2C511.3,398.3,515.9,415,531.5,422.6z M434,409.2c-4.5-21.2,6.9-37.6,6.9-37.6
		C420.4,378,424.2,403.9,434,409.2z"/>
	<g>
		<path fill="#FFFFFF" d="M444.7,505c0,0,11.6-14.3,11.6-45c-7.6-8.9-10.5-20.3-9.1-21.6c1.3-1.3,5.3-4.9,0-14.7
			c-5.3-9.8-16-35.9-57.2-37c2.4-4.7,3.3-9.1,0.7-12.7s-8.2-12-12.9-10.9c-5.8-3.1-22-10.7-33.4-3.8c-11.4,6.9-29.8,27.4-10.2,53.4
			c-1.6-12.9-4.2-30.7,14.7-46.3c12.2,0.4,14,8.5,14,8.5S346,388.3,348,401.6c4.5-8,12.5-17.6,18-19.8c4.7,2.7,17.7,9.5,3.3,18.1
			c8,1,14.3-2.9,18.7-8.5c6,0.8,36.9,1.4,49.3,44c-28.9-0.5-49.9,0-61.6,0c-11.7,0-19,6.2-20,21.2c13.7,1.7,34.1,8,34.4,26.1
			s0,28.7,0,28.7s35.7-9,32.4,28.7c7.3-7.3,12.7-20.4,15-27.7c2.3-7.3,8-33.1,1-34.4c-7-1.3-6,7.7-21,7.7s-18.4,0.3-14-10.7
			c4.3-11,16.7-17,26.7-17C440.2,458.1,449.5,462.6,444.7,505z"/>
		<path fill="#FFFFFF" d="M338.7,411c0,0,6,8.9,12.2,9.4c-4,4.2-8.9,18.7-6.2,33.8c-6-7.1-7.8-22.5-2.7-30.1
			C339.6,420.1,338.9,416.1,338.7,411z"/>
		<path fill="#FFFFFF" d="M340.5,456.2c0,0-7.1,7.3-6.2,17.1C329.3,466.9,328.5,456.4,340.5,456.2z"/>
		<path fill="#FFFFFF" d="M353.7,482.3c0,0-6.6,24.9,5.9,40.5C350.3,517.4,339.2,500.7,353.7,482.3z"/>
		<path fill="#FFFFFF" d="M344,503.8v35.7c0,0,8-5,11.4,0.3c-5,4.3-8.7,10-2.7,17.4c6,7.3,8.2,8.9,12,11.4c3.8,2.4,2.9,7.1-1.1,10.5
			s-13.1,10.2-16.7,9.4s-4,0.2-8.7-8.5c-4.7-8.7-11.6-23.8,0-37C338.2,534.8,339.6,507.2,344,503.8z"/>
		<path fill="#FFFFFF" d="M292.6,609.4c0,0,29.1-25.3,44.8-25.4c0.7,0,1.3,0.5,1.4,1.3c0.2,2.5,0.6,8.3-0.5,12.1c-1.3,5-2.3,4.7-5,6
			c-2.7,1.3-16,9-18,15.7C307.3,618.7,297.6,615.1,292.6,609.4z"/>
		<path fill="#FFFFFF" d="M360.7,589.1c0,0-5.1,11.4-12,15.4s-20.3,9.8-21.2,15.4c-0.9,5.6,124.7,47.2,193.9-16.9
			c-5.8-6.5-25.4-20-39.6-19.6c-16,0.4-37.8,6.5-66.8,17.4c-35.2,13.1-44.1,12.7-47,8.9C365.2,605.8,363,606.9,360.7,589.1z"/>
		<path fill="#FFFFFF" d="M438.8,550.2c0,0,8.6,3,7.3,5.3s-1.8,2.8-18,8c-16.3,5.2-60,17.6-58.5,32.5c1.5,14.9,34.6,1.3,42.9-2.2
			c8.4-3.5,23.2-10.4,30.6-11.5c7.3-1.2,10.9-1.5,17.2-1.8c4.7-0.2,5.3-1.2,7.3-6.2S476.6,546.7,438.8,550.2z"/>
		<path fill="#FFFFFF" d="M444.2,516.5c0,0-1.7,22.5-17,41.8C438.4,556.8,454.3,539.7,444.2,516.5z"/>
		<path fill="#FFFFFF" d="M383,526.5c0,0,6.9-7.8,16.7-6.5s18,8.2,17.1,17.6s-8,17.8-16.9,17.8c-8.9,0-13.6-5.1-14.7-8.2
			c-1.1-3.1-0.9-6.1,4.9-6.2c6.6-0.1,13.8,2.3,13.3-6.7c0,0-15.2,0.3-20-0.7c-0.6-0.1-1.1-0.7-1.1-1.3c-0.1-2.8-0.5-3.4,4.4-3.5
			c5.8-0.1,21.4,0,21.4,0S404.6,522.4,383,526.5z"/>
		<path fill="#FFFFFF" d="M375.7,509.2c-6.5,0-12.7-1.3-13.4-14.9c-0.2-9.1-0.7-10.2,2.2-10.2c2.9,0,8,2.4,10.2,2.4
			c2.2,0,4.2-0.7,5.8-1.3s7.2-1.7,5.6,10.2C385,503.8,385.1,509.2,375.7,509.2z"/>
		<path fill="#FFFFFF" d="M364.7,478.2h17.1c0,0-1.3-8.9-9.1-8.9C365,469.3,364.7,478.2,364.7,478.2z"/>
		<path fill="#FFFFFF" d="M411.4,478.2h17.1c0,0-1.3-8.9-9.1-8.9C411.6,469.3,411.4,478.2,411.4,478.2z"/>
	</g>
	<g>
		<path fill="#FFFFFF" d="M292.6,279.4c-57,14.3-93.1,48.1-112,71.1c-1-16.5-1.2-27.8-0.3-41.3C237.7,278.3,292.6,279.4,292.6,279.4
			z"/>
		<path fill="#FFFFFF" d="M208.2,557.5c-12.3-19.3-16.8-34.1-19.5-52.8c9.4-48.8,50.8-101.3,51.5-102.2
			C204.6,472.7,204.2,527.9,208.2,557.5z"/>
	</g>
	<g>
		<linearGradient id="SVGID_3_" gradientUnits="userSpaceOnUse" x1="174.0249" y1="153.8796" x2="631.1226" y2="153.8796">
			<stop  offset="0" style="stop-color:#353637"/>
			<stop  offset="1" style="stop-color:#000000"/>
		</linearGradient>
		<path fill="url(#SVGID_3_)" d="M190.7,204.9l-5.4-22.2l19.6-6.2l2.8,11.4l11.3-2.8l-2.4-9.9l-35-7.7l-7.5-30.8l4.3-6.8l40.9-10
			l6.2,4.2l4.5,18.3l-19.5,6.2l-2-8.2l-11.4,2.8l1.8,7.5l34.9,7.7l8.3,34l-3.5,6.4l-40.9,10L190.7,204.9z M254.2,194.9l-13.2-80
			l20.3-2.9l3.8,26.7l13.6-1.6l-4.7-27.1l19.7-3.2l12.4,80l-19.4,3l-4.4-32.7l-13.5,1.9l4.9,33.3L254.2,194.9z M313.6,184.7
			l10.5-82.4l29.7-2.1l21.9,80.1l-22.3,1.6l-2.6-13.3l-14.1,1l-0.7,13.5L313.6,184.7z M340.2,116.8l-0.2,0l-2.4,34.3l9.7-0.7
			L340.2,116.8z M380.4,179.9l16.9-81.2l30.1,0.2l15.9,81.4l-22.6-0.1l-1.6-13.4l-14.3-0.1l-1.8,13.4L380.4,179.9z M412.3,114.3
			l-0.2,0l-5,33.9l9.8,0.1L412.3,114.3z M451,181.5l8.3-80.7l24.1,2.5l15.9,49.4l0.1,0l4.9-47.2l18.2,1.9l-8.3,80.7l-24.1-2.5
			l-15.8-49.6l-0.1,0l-4.9,47.4L451,181.5z M520.2,189.1l25.6-37.3l-8.6-42.5l22.4,4.7l2,28.5l0.5,0.1l12.8-25.4l21.7,4.6
			l-22.8,34.8l8.3,44.7l-23.2-4.6l-1.4-29.8l-0.8,0l-12.9,26.7L520.2,189.1z M589.7,203.3l21.5-78.2l19.9,6l-22.6,78L589.7,203.3z"
			/>
		<g>
			<path fill="#927736" d="M219.2,119.9l6.2,4.2l4.5,18.3l-19.5,6.2l-2-8.2l-11.4,2.8l1.8,7.5l34.9,7.7l8.3,34l-3.5,6.4l-40.9,10
				l-6.8-3.9l-5.4-22.2l19.6-6.2l2.8,11.4l11.3-2.8l-2.4-9.9l-35-7.7l-7.5-30.8l4.3-6.8L219.2,119.9 M219.5,118.4l-0.6,0.1l-40.9,10
				l-0.5,0.1l-0.3,0.5l-4.3,6.8l-0.3,0.5l0.1,0.6l7.5,30.8l0.2,0.8l0.8,0.2l34.2,7.5l1.9,7.7l-8.6,2.1l-2.4-10l-0.4-1.4l-1.4,0.4
				l-19.6,6.2l-1.2,0.4l0.3,1.3l5.4,22.2l0.1,0.6l0.5,0.3l6.8,3.9l0.5,0.3l0.5-0.1l40.9-10l0.6-0.1l0.3-0.5l3.5-6.4l0.3-0.5
				l-0.1-0.5l-8.3-34l-0.2-0.8l-0.8-0.2l-34.1-7.6l-1.3-5.3l8.7-2.1l1.7,6.8l0.4,1.4l1.4-0.4l19.5-6.2l1.2-0.4l-0.3-1.3l-4.5-18.3
				l-0.1-0.5l-0.4-0.3l-6.2-4.2L219.5,118.4L219.5,118.4z"/>
			<path fill="#927736" d="M293.7,106.7l12.4,80l-19.4,3l-4.4-32.7l-13.5,1.9l4.9,33.3l-19.5,2.7l-13.2-80l20.3-2.9l3.8,26.7
				l13.6-1.6l-4.7-27.1L293.7,106.7 M294.9,105.2l-1.4,0.2l-19.7,3.2l-1.4,0.2l0.2,1.4l4.4,25.7l-10.8,1.3l-3.6-25.4l-0.2-1.4
				l-1.4,0.2l-20.3,2.9l-1.4,0.2l0.2,1.4l13.2,80l0.2,1.3l1.3-0.2l19.5-2.7l1.4-0.2l-0.2-1.4l-4.7-31.9l10.7-1.5l4.2,31.3l0.2,1.4
				l1.4-0.2l19.4-3l1.4-0.2l-0.2-1.4l-12.4-80L294.9,105.2L294.9,105.2z"/>
			<path fill="#927736" d="M353.8,100.2l21.9,80.1l-22.3,1.6l-2.6-13.3l-14.1,1l-0.7,13.5l-22.3,1.6l10.5-82.4L353.8,100.2
				 M337.6,151l9.7-0.7l-7.1-33.6l-0.2,0L337.6,151 M354.9,98.8l-1.1,0.1l-29.7,2.1l-1.1,0.1l-0.1,1.1l-10.5,82.4l-0.2,1.7l1.7-0.1
				l22.3-1.6l1.2-0.1l0.1-1.2l0.7-12.3l11.7-0.8l2.4,12.1l0.2,1.2l1.2-0.1l22.3-1.6l1.7-0.1l-0.4-1.6l-21.9-80.1L354.9,98.8
				L354.9,98.8z M339.1,149.5l1.6-23.5l4.9,23.1L339.1,149.5L339.1,149.5z"/>
			<path fill="#927736" d="M397.2,98.7l30.1,0.2l15.9,81.4l-22.6-0.1l-1.6-13.4l-14.3-0.1l-1.8,13.4l-22.6-0.1L397.2,98.7
				 M416.9,148.3l-4.6-34l-0.2,0l-5,33.9L416.9,148.3 M396.1,97.3l-0.2,1.1L379,179.7l-0.3,1.7l1.7,0l22.6,0.1l1.2,0l0.2-1.2
				l1.6-12.2l11.8,0.1l1.5,12.2l0.1,1.2l1.2,0l22.6,0.1l1.7,0l-0.3-1.7l-15.9-81.4l-0.2-1.1l-1.1,0l-30.1-0.2L396.1,97.3L396.1,97.3
				z M408.7,146.9l3.4-23.4l3.2,23.4L408.7,146.9L408.7,146.9z"/>
			<path fill="#927736" d="M459.3,100.7l24.1,2.5l15.9,49.4l0.1,0l4.9-47.2l18.2,1.9l-8.3,80.7l-24.1-2.5l-15.8-49.6l-0.1,0
				l-4.9,47.4l-18.2-1.9L459.3,100.7 M458.1,99.2l-0.1,1.4l-8.3,80.7l-0.1,1.4l1.4,0.1l18.2,1.9l1.4,0.1l0.1-1.4l4.2-41.1l13.9,43.5
				l0.3,0.9l0.9,0.1l24.1,2.5l1.4,0.1l0.1-1.4l8.3-80.7l0.1-1.4l-1.4-0.1l-18.2-1.9l-1.4-0.1l-0.1,1.4l-4.2,40.9l-13.9-43.3
				l-0.3-0.9l-0.9-0.1l-24.1-2.5L458.1,99.2L458.1,99.2z"/>
			<path fill="#927736" d="M537.2,109.2l22.4,4.7l2,28.5l0.5,0.1l12.8-25.4l21.7,4.6l-22.8,34.8l8.3,44.7l-23.2-4.6l-1.4-29.8
				l-0.8,0l-12.9,26.7l-23.6-4.4l25.6-37.3L537.2,109.2 M535.4,107.4l0.4,2.1l8.5,42l-25.2,36.8l-1.2,1.8l2.1,0.4l23.6,4.4l1,0.2
				l0.5-1l11.3-23.3l1.2,25.9l0.1,1.1l1.1,0.2l23.2,4.6l2,0.4l-0.4-2l-8.2-44.1l22.5-34.4l1.1-1.7l-2-0.4l-21.7-4.6l-1-0.2l-0.5,1
				l-11,21.8l-1.7-24.5l-0.1-1l-1-0.2l-22.4-4.8L535.4,107.4L535.4,107.4z"/>
			<path fill="#927736" d="M611.2,125.1l19.9,6l-22.6,78l-18.8-5.8L611.2,125.1 M610.2,123.3l-0.4,1.4l-21.5,78.2l-0.4,1.3l1.3,0.4
				l18.8,5.8l1.3,0.4l0.4-1.4l22.6-78l0.4-1.3l-1.3-0.4l-19.9-6L610.2,123.3L610.2,123.3z"/>
		</g>
	</g>
	<g>
		<g>
			<path fill="#927736" d="M167.8,708.6c0,0-64.7-22.6-84.9-35.1l40.2-40.2c0,0,3.5-49.3,5.7-58c13.5,7.8,54.8,24.5,71,31
				L167.8,708.6z"/>
			<path fill="#FFFFFF" d="M158.7,690.4c-15.4-5.6-36.6-13.7-52.2-20.7l30.2-30.2l0.4-5.2c0.9-12.7,2-26.8,3.1-37.7
				c13.3,6,29.7,12.8,42.3,17.9L158.7,690.4z"/>
			<path fill="#927736" d="M632.2,708.6c0,0,64.7-22.6,84.9-35.1L677,633.3c0,0-3.5-49.3-5.7-58c-13.5,7.8-54.8,24.5-71,31
				L632.2,708.6z"/>
			<path fill="#FFFFFF" d="M641.3,690.4c15.4-5.6,36.6-13.7,52.2-20.7l-30.2-30.2l-0.4-5.2c-0.9-12.7-2-26.8-3.1-37.7
				c-13.3,6-29.7,12.8-42.3,17.9L641.3,690.4z"/>
			<path fill="#927736" d="M617.9,580.5c0,0-93.4,41.1-217.9,41.1s-217.9-41.1-217.9-41.1l-38.5,100.8
				c94,37.4,187.5,47.7,256.4,47.7s162.4-10.2,256.4-47.7L617.9,580.5z"/>
			<path fill="#FFFFFF" d="M400,714.9c-58.4,0-146.1-7.4-238.2-41.7l28.4-74.4c30.8,11.5,110.2,36.9,209.8,36.9
				c99.6,0,179-25.4,209.8-36.9l28.4,74.4C546.1,707.5,458.4,714.9,400,714.9z"/>
		</g>
		<g>
			<polygon fill="#C01734" points="295.6,682.6 296.3,687.8 301.5,688.7 296.8,691 297.6,696.3 293.9,692.5 289.1,694.8 
				291.6,690.2 287.9,686.4 293.1,687.3 			"/>
			<polygon fill="#C01734" points="509.8,681.9 509,687.1 503.8,688 508.5,690.4 507.7,695.6 511.4,691.8 516.2,694.1 513.7,689.5 
				517.4,685.7 512.2,686.6 			"/>
			<g>
				<path fill="#C01734" d="M335,699.1c0.3-1.2,0.5-1.8,0.8-2.9c-4.1-0.4-6.1-0.7-10.1-1.2c0.9-3.4,1.4-5.1,2.3-8.6
					c5.9,0.7,8.8,1.1,14.8,1.6c-0.4,1.7-0.6,2.5-0.9,4.2c-2-0.2-3-0.3-5-0.5c0.2-0.7,0.3-1,0.5-1.7c-1.9-0.2-2.9-0.3-4.8-0.5
					c-0.5,1.5-0.7,2.2-1.2,3.6c4,0.5,6.1,0.7,10.1,1.1c-0.7,2.7-1,4-1.7,6.6c0,0.2-0.1,0.5-0.2,0.7c-0.1,0.2-0.3,0.4-0.5,0.5
					c-0.2,0.1-0.4,0.2-0.7,0.3c-0.2,0.1-0.5,0.1-0.8,0.1c-5.3-0.6-8-0.9-13.3-1.5c0.4-1.6,0.6-2.4,1-3.9c0.3,0.4,0.4,0.7,0.6,1.1
					C329.5,698.5,331.3,698.7,335,699.1z"/>
				<path fill="#C01734" d="M350.6,689.1c-1.4,5.8-2.1,8.7-3.6,14.5c-1.9-0.2-2.9-0.3-4.9-0.5c1.2-5.4,1.9-8.1,3.1-13.6
					c-0.3-0.4-0.4-0.6-0.7-1.1C347,688.8,348.2,688.9,350.6,689.1z"/>
				<path fill="#C01734" d="M358.5,690.4c1.8,3.9,2.8,5.8,4.7,9.6c0.7-3.7,1.1-5.5,1.8-9.2c1.7,0.1,2.6,0.2,4.3,0.2
					c-1.1,5.9-1.7,8.8-2.9,14.6c-2.1-0.1-3.1-0.2-5.1-0.3c-1.8-3.7-2.7-5.6-4.5-9.4c-0.8,3.6-1.2,5.4-1.9,8.9
					c-1.9-0.1-2.8-0.2-4.6-0.4c1.3-5.4,1.9-8.1,3.2-13.6c-0.4-0.4-0.6-0.6-0.9-1.1C354.9,690.1,356.1,690.2,358.5,690.4z"/>
				<path fill="#C01734" d="M369.5,706.1c-0.2-0.1-0.4-0.2-0.5-0.4c-0.1-0.2-0.2-0.4-0.3-0.6c0-0.2,0-0.4,0.1-0.7
					c1-5.2,1.5-7.8,2.4-12.9c6.3,0.3,9.5,0.4,15.8,0.6c-0.1,1-0.2,1.5-0.3,2.5c-4.4-0.1-6.7-0.2-11.1-0.4c-0.7,3.9-1,5.8-1.7,9.7
					c4,0.2,6,0.3,10,0.4c0.5-0.4,0.8-0.6,1.3-1c-0.2,1.4-0.4,2.1-0.6,3.5c-5.8-0.2-8.6-0.3-14.4-0.6
					C370,706.3,369.7,706.2,369.5,706.1z"/>
				<path fill="#C01734" d="M403.2,692.3c-0.1,1-0.1,1.5-0.2,2.5c-3.3,0-5,0-8.3,0c-0.2,1.3-0.3,1.9-0.5,3.2c3.1,0,4.7,0,7.8,0
					c-0.1,1-0.1,1.5-0.2,2.5c-3.3,0-4.9,0-8.2-0.1c-0.2,1.6-0.3,2.4-0.6,4c3.6,0,5.4,0.1,9,0.1c-0.1,1-0.1,1.5-0.2,2.5
					c-5.8,0-8.6,0-14.4-0.2c0.9-5.5,1.4-8.2,2.3-13.7c-0.3-0.4-0.4-0.6-0.7-1C394.6,692.3,397.5,692.3,403.2,692.3z"/>
				<path fill="#C01734" d="M429.2,694c-2,0.1-3,0.1-5,0.2c-0.1,0.8-0.1,1.2-0.2,2c-2,0.1-3,0.1-5,0.2c0.2-1.8,0.3-2.7,0.5-4.5
					c6-0.2,8.9-0.3,14.9-0.6c-0.3,3.6-0.5,5.4-0.8,9c-4.2,0.2-6.3,0.3-10.6,0.5c-0.1,1.4-0.2,2.1-0.4,3.5c3.9-0.1,5.8-0.2,9.6-0.4
					c0.4-0.4,0.7-0.6,1.1-1c-0.1,1.4-0.2,2.1-0.3,3.5c-5.4,0.3-8,0.4-13.4,0.5c-0.5,0-0.9-0.1-1.2-0.5c-0.3-0.3-0.4-0.7-0.4-1.3
					c0.3-2.7,0.5-4,0.8-6.7c4-0.1,6-0.2,10-0.4C428.9,696.4,429,695.6,429.2,694z"/>
				<path fill="#C01734" d="M436.8,692.8c0-0.5,0.2-0.9,0.6-1.3c0.4-0.4,0.8-0.6,1.3-0.6c5.2-0.3,7.9-0.5,13.1-1
					c-0.3,5.3-0.5,7.9-0.8,13.2c0,0.5-0.3,1-0.6,1.3c-0.4,0.4-0.8,0.6-1.3,0.6c-5.4,0.4-8,0.6-13.4,0.9
					C436.2,700.7,436.4,698,436.8,692.8z M441.8,693.1c-0.3,4-0.5,6-0.8,10c2-0.1,3-0.2,5-0.3c0.3-4,0.4-6,0.7-10
					C444.8,692.9,443.8,693,441.8,693.1z"/>
				<path fill="#C01734" d="M459.4,703.8c-2,0.2-3,0.3-5.1,0.5c0.3-4.7,0.4-7.1,0.6-11.8c-0.8,0.2-1.2,0.3-2,0.5
					c0.1-1.1,0.1-1.6,0.2-2.7c2.8-0.6,4.2-1,7-1.6C459.8,694.6,459.7,697.7,459.4,703.8z"/>
				<path fill="#C01734" d="M472.1,695.8c-3.6,0.4-5.4,0.6-9,1c0-1,0.1-1.5,0.1-2.5c3.6-0.4,5.4-0.6,9-1c0-1.4,0.1-2.1,0.1-3.5
					c-4,0.5-6,0.7-9.9,1.1c0-1,0.1-1.5,0.1-2.5c5.9-0.6,8.9-0.9,14.8-1.7c-0.1,5.3-0.1,7.9-0.2,13.2c0,0.5-0.2,1-0.6,1.3
					c-0.4,0.4-0.8,0.6-1.3,0.7c-5.4,0.6-8,0.9-13.4,1.5c0.1-1,0.1-1.5,0.1-2.5c4-0.4,6-0.6,10.1-1.1
					C472,698.2,472,697.4,472.1,695.8z"/>
			</g>
		</g>
		<g>
			<path fill="#927736" d="M371.6,649.7c0.1,0,0.1,0,0.2,0c0.9,0,1.7,0.4,2.3,1.1c0.6,0.6,0.9,1.5,0.9,2.3l-0.9,20.1
				c-0.1,1.7-1.5,3.1-3.3,3.1c-0.1,0-0.1,0-0.2,0c-1.8-0.1-3.2-1.6-3.1-3.4l0.9-20.1C368.5,651,369.9,649.7,371.6,649.7
				 M371.6,643.6c-4.9,0-9,3.9-9.3,8.9l-0.9,20.1c-0.2,5.1,3.7,9.5,8.9,9.7c0.1,0,0.3,0,0.4,0c4.9,0,9-3.9,9.3-8.9l0.9-20.1
				c0.2-5.1-3.7-9.5-8.9-9.7h0C371.9,643.7,371.8,643.6,371.6,643.6L371.6,643.6z"/>
			<path fill="#927736" d="M278.7,637.6c0.2,0,0.4,0,0.6,0.1c1.8,0.3,3,2,2.6,3.8l-3.5,19.8c-0.3,1.6-1.6,2.7-3.2,2.7
				c-0.2,0-0.4,0-0.6-0.1c-1.8-0.3-3-2-2.6-3.8l3.5-19.8C275.8,638.7,277.2,637.6,278.7,637.6 M278.7,631.5c-4.4,0-8.3,3.2-9.1,7.7
				l-3.5,19.8c-0.9,5.1,2.5,9.9,7.5,10.8h0c0.6,0.1,1.1,0.1,1.6,0.1c4.4,0,8.3-3.2,9.1-7.7l3.5-19.8c0.9-5.1-2.5-9.9-7.5-10.8h0
				C279.8,631.6,279.3,631.5,278.7,631.5L278.7,631.5z"/>
			<path fill="#927736" d="M394.1,650.8c0,0,0.1,0,0.1,0c0.9,0,1.7,0.4,2.3,1.1c0.6,0.6,0.9,1.5,0.9,2.3l-0.8,20.1
				c-0.1,1.8-1.5,3.1-3.3,3.1c0,0-0.1,0-0.1,0c-1.8-0.1-3.2-1.6-3.1-3.4l0.8-20.1C390.9,652.1,392.3,650.8,394.1,650.8 M394.1,644.7
				c-5,0-9.1,3.9-9.3,8.9l-0.8,20.1c-0.2,5.1,3.8,9.5,8.9,9.7c0.1,0,0.3,0,0.4,0c5,0,9.1-3.9,9.3-8.9l0.8-20.1
				c0.2-5.1-3.8-9.5-8.9-9.7C394.4,644.7,394.2,644.7,394.1,644.7L394.1,644.7z"/>
			<path fill="#927736" d="M321.3,644.5l2.9,0.3c0.9,0.1,1.8,0.6,2.4,1.3c0.6,0.7,0.9,1.7,0.8,2.6l-2.1,19.4
				c-0.2,1.8-1.7,3.2-3.5,3.2c-0.1,0-0.3,0-0.4,0l-2.9-0.3L321.3,644.5 M315.9,637.9l-4.3,38.4l8.9,1c0.4,0,0.7,0.1,1.1,0.1
				c4.8,0,9-3.6,9.5-8.5l2.1-19.4c0.6-5.3-3.2-10-8.5-10.6L315.9,637.9L315.9,637.9z"/>
			<polygon fill="#927736" points="246.4,630.7 247.9,624.8 231.8,620.7 222.1,657.2 237.9,661.1 239.4,655.2 229.5,652.8 
				232.1,643.1 239.8,645 241.2,639.2 233.6,637.3 236.1,628 			"/>
			<polygon fill="#927736" points="423.3,644.9 405.9,644.9 405.9,650.9 411.6,650.9 411.6,682.6 417.6,682.6 417.6,650.9 
				423.3,650.9 			"/>
			<polygon fill="#927736" points="359.9,649.6 360.3,643.6 343.9,642.6 341.2,679.3 347.2,679.7 348.3,664.9 356,665.2 
				356.2,659.1 348.8,658.9 349.5,649 			"/>
			<path fill="#927736" d="M538.5,654.9l-6,0.9l1,5.1c0.2,0.9,0,1.7-0.5,2.4c-0.5,0.7-1.2,1.2-2.1,1.4c-0.2,0-0.4,0.1-0.6,0.1
				c-1.6,0-2.9-1.1-3.2-2.7l-3.7-19.7c-0.2-0.9,0-1.7,0.5-2.4c0.5-0.7,1.2-1.2,2.1-1.4c0.2,0,0.4-0.1,0.6-0.1c1.6,0,2.4,0.8,2.8,2.9
				l0.6,3.2l6-0.2l-0.7-4.2c-0.9-4.7-4.3-7.8-8.7-7.8c-0.6,0-1.2,0.1-1.7,0.2c-5,1-8.4,5.8-7.4,10.9l3.7,19.7
				c0.8,4.5,4.7,7.6,9.1,7.6c0.6,0,1.2-0.1,1.7-0.2c5-1,8.4-5.8,7.4-10.9L538.5,654.9z"/>
			<path fill="#927736" d="M565.9,622.3l8.3,28.2c0.5,1.7-0.5,3.5-2.2,4.1c-1.7,0.5-3.5-0.5-4.1-2.2l-8.3-28.2l-5.8,1.7l8.3,28.2
				c1.4,4.9,6.6,7.7,11.5,6.3h0c4.9-1.4,7.7-6.6,6.3-11.5l-8.3-28.2L565.9,622.3z"/>
			<polygon fill="#927736" points="545.1,666.5 537,630.1 542.9,628.8 549.8,659.5 560.1,657.5 561.2,663.4 			"/>
			<polygon fill="#927736" points="495.7,675.9 491.1,638.8 497.1,638.1 501,669.3 511.5,668.4 512,674.4 			"/>
			<polygon fill="#927736" points="477.1,678.6 472.4,641.5 478.4,640.8 482.3,672 492.8,671 493.4,677 			"/>
			<path fill="#927736" d="M466.6,680.1l5.6-0.4l-8.7-36.4h-9l-2,37.8l5.6-0.4l0.5-8.5l6.2-0.1L466.6,680.1z M458.8,666.1l0.8-15.4
				l3.7,15.3L458.8,666.1z"/>
			<polygon fill="#927736" points="301.1,674.3 296.4,651.8 293.3,672.3 287.8,672.2 293.2,635.5 298.8,636.1 303.5,658.8 
				306.8,637.9 312.3,638.2 306.5,674.9 			"/>
			<polygon fill="#927736" points="265.3,628.7 257.7,640.1 256.4,626.6 250.7,626 252.8,648.2 249.4,664.3 255,664.8 258.2,649.4 
				271,630.2 			"/>
			<path fill="#927736" d="M443.5,662.2c4.8-6.2,1.9-17.7-7.3-17.4c-6.9,0.2-4.8,0.1-8.9,0.3l1,37.6c6.2,0.2,13,0.6,16.3-3
				C448,675.9,448.9,665.5,443.5,662.2z M436.3,650.8c4.8-0.1,3.7,6.5,2.6,8c-0.7,1-3.6,0.9-5.1,0.9l-0.2-8.9
				C434.3,650.8,435.2,650.8,436.3,650.8z M440.8,672.9c-0.9,4.1-3.9,3.5-6.6,3.5l-0.3-10.7C442,664.9,441.3,670.5,440.8,672.9z"/>
			<path fill="#927736" d="M595.9,631.4c2.9-7.3-2.9-17.6-11.7-14.8c-6.6,2.1-4.6,1.4-8.4,2.7l11.1,35.9c6-1.5,12.7-2.9,14.9-7.3
				C603.9,643.5,602,633.2,595.9,631.4z M585.9,622.4c4.6-1.4,5.3,5.3,4.6,7c-0.4,1.2-3.2,1.8-4.6,2.3l-2.6-8.5
				C584,622.9,584.8,622.7,585.9,622.4z M596.2,642.5c0.2,4.2-2.8,4.4-5.4,5.2l-3.2-10.3C595.2,634.4,596,640,596.2,642.5z"/>
			<path fill="#927736" d="M220.1,634.9c6.5-4.3,7.4-16.2-1.3-18.8c-6.6-2-4.5-1.4-8.5-2.5l-11,36c5.8,2.2,12.1,4.7,16.4,2.3
				C220,649.5,224.1,639.9,220.1,634.9z M216.9,621.8c4.6,1.4,1.4,7.4-0.1,8.4c-1,0.8-3.7-0.3-5.1-0.7l2.6-8.5
				C215,621.2,215.9,621.5,216.9,621.8z M214.2,644.3c-2.2,3.5-4.8,2-7.4,1.2l3.2-10.3C217.8,637,215.4,642.1,214.2,644.3z"/>
		</g>
	</g>
</g>
<g>
</g>
<g>
</g>
<g>
</g>
<g>
</g>
<g>
</g>
<g>
</g>
<g>
</g>
<g>
</g>
<g>
</g>
<g>
</g>
<g>
</g>
</svg>
