<svg version="1.1" xmlns="http://www.w3.org/2000/svg" xmlns:xlink="http://www.w3.org/1999/xlink" x="0px" y="0px"
	 viewBox="0 0 800 800" enable-background="new 0 0 800 800" xml:space="preserve">
<g>
	<polygon fill="#C01734" points="631.1,131 611.2,125.1 589.7,203.3 608.5,209.1 	"/>
	<polygon fill="#C01734" points="499.4,152.6 499.3,152.6 483.4,103.2 459.3,100.7 451,181.5 469.2,183.4 474.1,135.9 474.2,135.9 
		490,185.5 514.1,188 522.4,107.2 504.2,105.4 	"/>
	<polygon fill="#C01734" points="210.3,148.6 229.9,142.5 225.4,124.1 219.2,119.9 178.3,129.9 174,136.7 181.5,167.5 216.6,175.2 
		219,185.1 207.6,187.9 204.9,176.5 185.2,182.7 190.7,204.9 197.5,208.8 238.4,198.8 241.9,192.4 233.6,158.5 198.7,150.7 
		196.9,143.2 208.3,140.4 	"/>
	<polygon fill="#C01734" points="261.2,112 241,114.9 254.2,194.9 273.7,192.2 268.8,158.9 282.3,157.1 286.6,189.7 306.1,186.8 
		293.7,106.7 273.9,109.9 278.6,137.1 265,138.7 	"/>
	<path fill="#C01734" d="M404.7,166.7l14.3,0.1l1.6,13.4l22.6,0.1l-15.9-81.4l-30.1-0.2l-16.9,81.2l22.6,0.1L404.7,166.7z
		 M412.1,114.3l0.2,0l4.6,34l-9.8-0.1L412.1,114.3z"/>
	<path fill="#C01734" d="M350.8,168.6l2.6,13.3l22.3-1.6l-21.9-80.1l-29.7,2.1l-10.5,82.4l22.3-1.6l0.7-13.5L350.8,168.6z
		 M340,116.8l0.2,0l7.1,33.6l-9.7,0.7L340,116.8z"/>
	<polygon fill="#C01734" points="543.8,193.5 556.7,166.8 557.5,166.8 558.9,196.7 582.1,201.3 573.8,156.6 596.6,121.8 575,117.2 
		562.2,142.6 561.6,142.5 559.6,114 537.2,109.2 545.8,151.7 520.2,189.1 	"/>
	<polygon fill="#C01734" points="296.3,687.8 295.6,682.6 293.1,687.3 287.9,686.4 291.6,690.2 289.1,694.8 293.9,692.5 
		297.6,696.3 296.8,691 301.5,688.7 	"/>
	<polygon fill="#C01734" points="512.2,686.6 509.8,681.9 509,687.1 503.8,688 508.5,690.4 507.7,695.6 511.4,691.8 516.2,694.1 
		513.7,689.5 517.4,685.7 	"/>
	<path fill="#C01734" d="M341.8,692.3c0.4-1.7,0.6-2.5,0.9-4.2c-5.9-0.6-8.9-0.9-14.8-1.6c-0.9,3.4-1.4,5.1-2.3,8.6
		c4.1,0.5,6.1,0.7,10.1,1.2c-0.3,1.2-0.5,1.8-0.8,2.9c-3.7-0.4-5.5-0.6-9.2-1.1c-0.3-0.4-0.4-0.7-0.6-1.1c-0.4,1.6-0.6,2.4-1,3.9
		c5.3,0.7,8,1,13.3,1.5c0.3,0,0.5,0,0.8-0.1c0.2-0.1,0.5-0.2,0.7-0.3c0.2-0.1,0.4-0.3,0.5-0.5c0.1-0.2,0.2-0.4,0.2-0.7
		c0.7-2.7,1-4,1.7-6.6c-4-0.4-6.1-0.6-10.1-1.1c0.5-1.5,0.7-2.2,1.2-3.6c1.9,0.2,2.9,0.3,4.8,0.5c-0.2,0.7-0.3,1-0.5,1.7
		C338.8,692,339.8,692.1,341.8,692.3z"/>
	<path fill="#C01734" d="M344.6,688.6c0.3,0.4,0.4,0.6,0.7,1.1c-1.2,5.4-1.8,8.1-3.1,13.6c1.9,0.2,2.9,0.3,4.9,0.5
		c1.5-5.8,2.2-8.7,3.6-14.5C348.2,688.9,347,688.8,344.6,688.6z"/>
	<path fill="#C01734" d="M365,690.8c-0.7,3.7-1.1,5.5-1.8,9.2c-1.9-3.8-2.8-5.8-4.7-9.6c-2.4-0.2-3.6-0.3-6-0.5
		c0.4,0.4,0.6,0.6,0.9,1.1c-1.2,5.4-1.9,8.1-3.2,13.6c1.8,0.2,2.8,0.2,4.6,0.4c0.8-3.6,1.2-5.3,1.9-8.9c1.8,3.8,2.7,5.6,4.5,9.4
		c2.1,0.1,3.1,0.2,5.1,0.3c1.2-5.9,1.7-8.8,2.9-14.6C367.6,691,366.7,690.9,365,690.8z"/>
	<path fill="#C01734" d="M368.8,704.5c-0.1,0.2-0.1,0.5-0.1,0.7c0,0.2,0.1,0.4,0.3,0.6c0.1,0.2,0.3,0.3,0.5,0.4
		c0.2,0.1,0.4,0.2,0.7,0.2c5.8,0.3,8.6,0.4,14.4,0.6c0.2-1.4,0.4-2.1,0.6-3.5c-0.5,0.4-0.8,0.6-1.3,1c-4-0.1-6-0.2-10-0.4
		c0.7-3.9,1-5.8,1.7-9.7c4.4,0.2,6.7,0.3,11.1,0.4c0.1-1,0.2-1.5,0.3-2.5c-6.3-0.2-9.5-0.3-15.8-0.6
		C370.3,696.7,369.8,699.3,368.8,704.5z"/>
	<path fill="#C01734" d="M388.9,692.2c0.3,0.4,0.4,0.6,0.7,1c-0.9,5.5-1.4,8.2-2.3,13.7c5.8,0.1,8.6,0.2,14.4,0.2
		c0.1-1,0.1-1.5,0.2-2.5c-3.6,0-5.4,0-9-0.1c0.2-1.6,0.3-2.4,0.6-4c3.3,0,4.9,0.1,8.2,0.1c0.1-1,0.1-1.5,0.2-2.5c-3.1,0-4.7,0-7.8,0
		c0.2-1.3,0.3-1.9,0.5-3.2c3.3,0,5,0,8.3,0c0.1-1,0.1-1.5,0.2-2.5C397.5,692.3,394.6,692.3,388.9,692.2z"/>
	<path fill="#C01734" d="M419,696.4c2-0.1,3-0.1,5-0.2c0.1-0.8,0.1-1.2,0.2-2c2-0.1,3-0.1,5-0.2c-0.2,1.6-0.2,2.4-0.4,4
		c-4,0.2-6,0.3-10,0.4c-0.3,2.7-0.5,4-0.8,6.7c-0.1,0.5,0.1,0.9,0.4,1.3c0.3,0.3,0.7,0.5,1.2,0.5c5.4-0.2,8.1-0.3,13.4-0.5
		c0.1-1.4,0.2-2.1,0.3-3.5c-0.4,0.4-0.7,0.6-1.1,1c-3.9,0.2-5.8,0.3-9.6,0.4c0.1-1.4,0.2-2.1,0.4-3.5c4.2-0.2,6.4-0.2,10.6-0.5
		c0.3-3.6,0.5-5.4,0.8-9c-6,0.3-8.9,0.4-14.9,0.6C419.3,693.7,419.2,694.6,419,696.4z"/>
	<path fill="#C01734" d="M437.5,691.5c-0.4,0.4-0.6,0.8-0.6,1.3c-0.4,5.3-0.6,7.9-1.1,13.2c5.4-0.3,8-0.5,13.4-0.9
		c0.5,0,1-0.2,1.3-0.6c0.4-0.4,0.6-0.8,0.6-1.3c0.3-5.3,0.5-7.9,0.8-13.2c-5.2,0.4-7.9,0.6-13.1,1
		C438.3,690.9,437.8,691.1,437.5,691.5z M441.8,693.1c2-0.1,3-0.2,5-0.4c-0.3,4-0.4,6-0.7,10c-2,0.1-3,0.2-5,0.3
		C441.3,699.1,441.5,697.1,441.8,693.1z"/>
	<path fill="#C01734" d="M452.9,692.9c0.8-0.2,1.2-0.3,2-0.5c-0.2,4.7-0.4,7.1-0.6,11.8c2-0.2,3-0.3,5.1-0.5
		c0.3-6.1,0.4-9.2,0.7-15.3c-2.8,0.7-4.2,1-7,1.6C453,691.3,453,691.8,452.9,692.9z"/>
	<path fill="#C01734" d="M462.3,690.9c4-0.4,6-0.6,9.9-1.1c0,1.4-0.1,2.1-0.1,3.5c-3.6,0.4-5.4,0.6-9,1c0,1-0.1,1.5-0.1,2.5
		c3.6-0.4,5.4-0.6,9-1c0,1.6-0.1,2.4-0.1,4c-4,0.5-6,0.7-10.1,1.1c-0.1,1-0.1,1.5-0.1,2.5c5.4-0.5,8-0.8,13.4-1.5
		c0.5-0.1,0.9-0.3,1.3-0.7c0.4-0.4,0.5-0.8,0.6-1.3c0.1-5.3,0.2-7.9,0.2-13.2c-5.9,0.7-8.9,1.1-14.8,1.7
		C462.3,689.4,462.3,689.9,462.3,690.9z"/>
	<path fill="#C01734" d="M370.3,682.3c0.1,0,0.3,0,0.4,0c4.9,0,9-3.9,9.3-8.9l0.9-20.1c0.2-5.1-3.7-9.5-8.9-9.7c-0.1,0-0.3,0-0.4,0
		c-4.9,0-9,3.9-9.3,8.9l-0.9,20.1C361.2,677.7,365.2,682.1,370.3,682.3z M368.4,652.8c0.1-1.7,1.5-3.1,3.3-3.1c0.1,0,0.1,0,0.2,0
		c0.9,0,1.7,0.4,2.3,1.1c0.6,0.6,0.9,1.5,0.9,2.3l-0.9,20.1c-0.1,1.7-1.5,3.1-3.3,3.1c-0.1,0-0.1,0-0.2,0c-1.8-0.1-3.2-1.6-3.1-3.4
		L368.4,652.8z"/>
	<path fill="#C01734" d="M280.4,631.7c-0.6-0.1-1.1-0.1-1.6-0.1c-4.4,0-8.3,3.2-9.1,7.7l-3.5,19.8c-0.9,5.1,2.5,9.9,7.5,10.8h0
		c0.6,0.1,1.1,0.1,1.6,0.1c4.4,0,8.3-3.2,9.1-7.7l3.5-19.8C288.8,637.4,285.4,632.6,280.4,631.7z M282,641.4l-3.5,19.8
		c-0.3,1.6-1.6,2.7-3.2,2.7c-0.2,0-0.4,0-0.6-0.1c-1.8-0.3-3-2-2.6-3.8l3.5-19.8c0.3-1.6,1.6-2.7,3.2-2.7c0.2,0,0.4,0,0.6,0.1
		C281.1,637.9,282.3,639.6,282,641.4z"/>
	<path fill="#C01734" d="M394.5,644.7c-0.1,0-0.3,0-0.4,0c-5,0-9.1,3.9-9.3,8.9l-0.8,20.1c-0.2,5.1,3.8,9.5,8.9,9.7
		c0.1,0,0.3,0,0.4,0c5,0,9.1-3.9,9.3-8.9l0.8-20.1C403.6,649.3,399.6,645,394.5,644.7z M396.5,674.2c-0.1,1.8-1.5,3.1-3.3,3.1
		c0,0-0.1,0-0.1,0c-1.8-0.1-3.2-1.6-3.1-3.4l0.8-20.1c0.1-1.8,1.5-3.1,3.3-3.1c0,0,0.1,0,0.1,0c0.9,0,1.7,0.4,2.3,1.1
		c0.6,0.6,0.9,1.5,0.9,2.3L396.5,674.2z"/>
	<path fill="#C01734" d="M331.2,668.8l2.1-19.4c0.6-5.3-3.2-10-8.5-10.6l-8.9-1l-4.3,38.4l8.9,1c0.4,0,0.7,0.1,1.1,0.1
		C326.5,677.4,330.7,673.7,331.2,668.8z M327.4,648.8l-2.1,19.4c-0.2,1.8-1.7,3.2-3.5,3.2c-0.1,0-0.3,0-0.4,0l-2.9-0.3l2.9-26.5
		l2.9,0.3c0.9,0.1,1.8,0.6,2.4,1.3C327.2,646.9,327.5,647.8,327.4,648.8z"/>
	<polygon fill="#C01734" points="222.1,657.2 237.9,661.1 239.4,655.2 229.5,652.8 232.1,643.1 239.8,645 241.2,639.2 233.6,637.3 
		236.1,628 246.4,630.7 247.9,624.8 231.8,620.7 	"/>
	<polygon fill="#C01734" points="423.3,644.9 405.9,644.9 405.9,650.9 411.6,650.9 411.6,682.6 417.6,682.6 417.6,650.9 
		423.3,650.9 	"/>
	<polygon fill="#C01734" points="348.3,664.9 356,665.2 356.2,659.1 348.8,658.9 349.5,649 359.9,649.6 360.3,643.6 343.9,642.6 
		341.2,679.3 347.2,679.7 	"/>
	<path fill="#C01734" d="M538.5,654.9l-6,0.9l1,5.1c0.2,0.9,0,1.7-0.5,2.4c-0.5,0.7-1.2,1.2-2.1,1.4c-0.2,0-0.4,0.1-0.6,0.1
		c-1.6,0-2.9-1.1-3.2-2.7l-3.7-19.7c-0.2-0.9,0-1.7,0.5-2.4c0.5-0.7,1.2-1.2,2.1-1.4c0.2,0,0.4-0.1,0.6-0.1c1.6,0,2.4,0.8,2.8,2.9
		l0.6,3.2l6-0.2l-0.7-4.2c-0.9-4.7-4.3-7.8-8.7-7.8c-0.6,0-1.2,0.1-1.7,0.2c-5,1-8.4,5.8-7.4,10.9l3.7,19.7c0.8,4.5,4.7,7.6,9.1,7.6
		c0.6,0,1.2-0.1,1.7-0.2c5-1,8.4-5.8,7.4-10.9L538.5,654.9z"/>
	<path fill="#C01734" d="M571.7,620.6l-5.8,1.7l8.3,28.2c0.5,1.7-0.5,3.5-2.2,4.1c-1.7,0.5-3.5-0.5-4.1-2.2l-8.3-28.2l-5.8,1.7
		l8.3,28.2c1.4,4.9,6.6,7.7,11.5,6.3l0,0c4.9-1.4,7.7-6.6,6.3-11.5L571.7,620.6z"/>
	<polygon fill="#C01734" points="549.8,659.5 542.9,628.8 537,630.1 545.1,666.5 561.2,663.4 560.1,657.5 	"/>
	<polygon fill="#C01734" points="511.5,668.4 501,669.3 497.1,638.1 491.1,638.8 495.7,675.9 512,674.4 	"/>
	<polygon fill="#C01734" points="482.3,672 478.4,640.8 472.4,641.5 477.1,678.6 493.4,677 492.8,671 	"/>
	<path fill="#C01734" d="M458.5,672.2l6.2-0.1l1.9,8l5.6-0.4l-8.7-36.4h-9l-2,37.8l5.6-0.4L458.5,672.2z M459.7,650.7l3.7,15.3
		l-4.5,0.1L459.7,650.7z"/>
	<polygon fill="#C01734" points="306.8,637.9 303.5,658.8 298.8,636.1 293.2,635.5 287.8,672.2 293.3,672.3 296.4,651.8 
		301.1,674.3 306.5,674.9 312.3,638.2 	"/>
	<polygon fill="#C01734" points="265.3,628.7 257.7,640.1 256.4,626.6 250.7,626 252.8,648.2 249.4,664.3 255,664.8 258.2,649.4 
		271,630.2 	"/>
	<path fill="#C01734" d="M444.6,679.7c3.4-3.7,4.2-14.1-1.2-17.5c4.8-6.2,1.9-17.7-7.3-17.4c-6.9,0.2-4.8,0.1-8.9,0.3l1,37.6
		C434.6,682.9,441.3,683.3,444.6,679.7z M440.8,672.9c-0.9,4.1-3.9,3.5-6.6,3.5l-0.3-10.7C442,664.9,441.3,670.5,440.8,672.9z
		 M436.3,650.8c4.8-0.1,3.7,6.5,2.6,8c-0.7,1-3.6,0.9-5.1,0.9l-0.2-8.9C434.3,650.8,435.2,650.8,436.3,650.8z"/>
	<path fill="#C01734" d="M595.9,631.4c2.9-7.3-2.9-17.6-11.7-14.8c-6.6,2.1-4.6,1.4-8.4,2.7l11.1,35.9c6-1.5,12.7-2.9,14.9-7.3
		C603.9,643.5,602,633.2,595.9,631.4z M585.9,631.6l-2.6-8.5c0.7-0.2,1.6-0.5,2.6-0.8c4.6-1.4,5.3,5.3,4.6,7
		C590.1,630.5,587.3,631.2,585.9,631.6z M590.8,647.6l-3.2-10.3c7.5-2.9,8.4,2.6,8.6,5.1C596.4,646.6,593.4,646.8,590.8,647.6z"/>
	<path fill="#C01734" d="M218.8,616.1c-6.6-2-4.5-1.4-8.5-2.5l-11,36c5.8,2.2,12.1,4.7,16.4,2.3c4.4-2.5,8.5-12,4.5-17
		C226.6,630.6,227.5,618.8,218.8,616.1z M214.2,644.3c-2.2,3.5-4.8,2-7.4,1.2l3.2-10.3C217.8,637,215.4,642.1,214.2,644.3z
		 M216.8,630.2c-1,0.8-3.7-0.3-5.1-0.7l2.6-8.5c0.7,0.2,1.6,0.5,2.6,0.8C221.5,623.3,218.3,629.2,216.8,630.2z"/>
	<path fill="#C01734" d="M362.3,732c13.1,6.8,25.7,12.8,37.7,18c11.9-5.2,24.6-11.3,37.7-18c-13.7,0.7-26.3,1-37.7,1
		S376,732.7,362.3,732z"/>
	<path fill="#C01734" d="M139.8,538.1c5.9,16.9,17.3,34.8,32.5,52.7c0.5,0.2,0.9,0.4,1.4,0.6l6.2-16.2l3.8,1.7
		c0.3,0.1,7.7,3.3,20.8,7.9c-24.8-26.1-34.4-45-38.2-55.8c-15.4-44.5-15.9-109.2-16.3-161.2c-0.1-9.6-0.1-18.6-0.3-27.4
		c-0.7-41.6,4.2-170.3,6.1-218.8c38.2-13.3,136.7-43.5,244.1-43.5c107.4,0,205.9,30.2,244.1,43.5c1.9,48.5,6.8,177.2,6.1,218.8
		c-0.1,8.8-0.2,17.8-0.3,27.4c-0.4,52-0.9,116.7-16.3,161.2c-3.7,10.8-13.4,29.7-38.2,55.8c13.2-4.6,20.6-7.8,20.8-7.9l3.8-1.7
		l6.2,16.2c0.5-0.2,0.9-0.4,1.4-0.6c15.2-17.9,26.6-35.7,32.5-52.7c19.8-57.2,17.1-137.8,18.1-197.3c0.9-52.8-6.8-239.2-6.8-239.2
		S544.6,50,400,50s-271.4,51.7-271.4,51.7s-7.7,186.4-6.8,239.2C122.8,400.3,120.1,481,139.8,538.1z"/>
	<path fill="#C01734" d="M619.7,253.3c-16.9-5.1-32.6-9.4-47.4-13.1v-31.6c-22.4-5.6-47-10-70.7-13.2v30.9
		c-29-4.1-52.4-5.3-71.3-5.7v-32.5c-13.2-0.9-23.8-1.2-30.3-1.2c-8,0-22.3,0.6-40,1.9v32c-19.3,0.6-42.7,2.4-71.3,6.9v-31
		c-24,3.6-48.6,8.3-70.4,14.3v31.5c-12,3.1-24.7,6.6-38,10.7c0,15.9-0.1,35.2,0,55.8c0,13.4,0.1,27.3,0.3,41.3
		c0.1,11.6,0.3,23.1,0.5,34.4c0,0,0,0,0,0c0.3,16.7,0.8,32.6,1.4,47c0,0,0,0.1,0,0.1c0,0.7,0.1,1.3,0.1,2c0.5,10.1,1,19.4,1.6,27.4
		c1.1,13.7,1.8,28.1,4.6,43.4c0,0,0,0,0,0.1c3,16.4,8.4,33.9,19.4,52.6c0,0,0,0.1,0.1,0.1c7,11.9,16.2,24.2,28.4,37.2
		c3.6,1,7.5,2.1,11.4,3.1c-10.2-10.1-18.9-20.1-26.1-30.2c-6.3-8.8-11.2-17.3-15.1-25.6c-1.6-31.5,3.3-80.1,33.5-139.5
		c-0.7,0.8-34.1,43.1-47.7,87c-0.8-7.1-1.3-14.1-1.8-20.8c-0.2-2.7-0.4-5.3-0.6-7.9c-0.7-8.2-1.2-17.8-1.7-28.4
		c47.3-54.6,126.5-128.9,238-128.1c31.8,0.2,55.7,4.1,74.7,10.5c6.9-18.3,11.8-19.4,40.5-19.2c3,0,12.8-1.2,13.9,8.2
		c1.4,11.9-40.7,34-40.7,34s-35.7-18.2-83.9-19.2c-61.8-1.3-185.2,34.6-182.5,220.6c0.3,18.9,1.4,40.2,2.7,59.4
		c12.9,3.3,27.3,6.5,43,9.3c6.4-5.3,29.7-23.9,43.1-24c0.7,0,1.3,0.5,1.4,1.3c0.2,2.5,0.6,8.3-0.5,12.1c-1.3,5-2.3,4.7-5,6
		c-1.8,0.9-8.1,4.5-12.8,8.7c4,0.5,8.1,1.1,12.2,1.5c4.7-3.4,11.6-6.7,16-9.2c6.9-4,12-15.4,12-15.4c2.2,17.8,4.5,16.7,7.3,20.5
		c2.9,3.8,11.8,4.2,47-8.9c29-10.8,50.8-16.9,66.8-17.4c14.3-0.4,33.8,13.1,39.6,19.6c-0.9,0.9-1.9,1.7-2.9,2.6
		c16.8-3.4,31.8-7.1,44.8-10.8c0.1-0.1,0.1-0.1,0.2-0.2c0.4-0.4,0.8-0.8,1.1-1.2c0.7-0.7,1.3-1.4,1.9-2.1c0.4-0.5,0.9-1,1.3-1.4
		c0.4-0.5,0.9-1,1.3-1.5c0.3-0.3,0.5-0.6,0.8-0.9l0,0c42.9-49.3,42.9-90.2,45.8-126.1C619.9,410.7,619.8,310.2,619.7,253.3z
		 M344.3,359.3c11.4-6.9,27.6,0.7,33.4,3.8c4.7-1.1,10.2,7.3,12.9,10.9c2.7,3.6,1.8,8-0.7,12.7c16.7,0.5,28.4,5,36.8,10.9
		c-2.1-9.6,1-21.9,14.2-26.1c0,0-9.2,13.4-7.8,31.5c7.7,7.6,11.5,16,14,20.6c5.3,9.8,1.3,13.4,0,14.7c-1.3,1.3,1.6,12.7,9.1,21.6
		c0,30.7-11.6,45-11.6,45c4.8-42.3-4.5-46.9-14.5-46.9c-10,0-22.4,6-26.7,17c-4.3,11-1,10.7,14,10.7s14-9,21-7.7s1.3,27.1-1,34.4
		c-2.3,7.3-7.7,20.4-15,27.7c3.3-37.7-32.4-28.7-32.4-28.7s0.3-10.7,0-28.7c-0.3-18-20.7-24.4-34.4-26.1c1-15,8.4-21.2,20-21.2
		s32.7-0.5,61.6,0c-12.4-42.6-43.3-43.3-49.3-44c-4.5,5.6-10.7,9.5-18.7,8.5c14.4-8.7,1.3-15.5-3.3-18.1c-5.6,2.2-13.6,11.8-18,19.8
		c-2-13.4,14.7-26.7,14.7-26.7s-1.8-8-14-8.5c-18.9,15.6-16.3,33.4-14.7,46.3C314.4,386.7,332.9,366.2,344.3,359.3z M428.5,478.2
		h-17.1c0,0,0.2-8.9,8-8.9S428.5,478.2,428.5,478.2z M403.4,534.3c0,0-15.2,0.3-20-0.7c-0.6-0.1-1.1-0.7-1.1-1.3
		c-0.1-2.8-0.5-3.4,4.4-3.5c5.8-0.1,21.4,0,21.4,0s-3.4-6.3-25-2.2c0,0,6.9-7.8,16.7-6.5c9.8,1.3,18,8.2,17.1,17.6
		c-0.9,9.4-8,17.8-16.9,17.8s-13.6-5.1-14.7-8.2c-1.1-3.1-0.9-6.1,4.9-6.2C396.7,540.9,403.9,543.3,403.4,534.3z M381.9,478.2h-17.1
		c0,0,0.2-8.9,8-8.9S381.9,478.2,381.9,478.2z M344.7,454.2c-6-7.1-7.8-22.5-2.7-30.1c-2.4-4-3.1-8-3.3-13.1c0,0,6,8.9,12.2,9.4
		C346.9,424.6,342,439,344.7,454.2z M353.7,482.3c0,0-6.6,24.9,5.9,40.5C350.3,517.4,339.2,500.7,353.7,482.3z M340.5,456.2
		c0,0-7.1,7.3-6.2,17.1C329.3,466.9,328.5,456.4,340.5,456.2z M363.6,579.1c-4,3.3-13.1,10.2-16.7,9.4c-3.6-0.9-4,0.2-8.7-8.5
		s-11.6-23.8,0-37c0-8.2,1.3-35.9,5.8-39.2v35.7c0,0,8-5,11.4,0.3c-5,4.3-8.7,10-2.7,17.4c6,7.3,8.2,8.9,12,11.4
		S367.6,575.8,363.6,579.1z M362.3,494.3c-0.2-9.1-0.7-10.2,2.2-10.2c2.9,0,8,2.4,10.2,2.4c2.2,0,4.2-0.7,5.8-1.3s7.2-1.7,5.6,10.2
		c-1.2,8.5-1.1,13.9-10.5,13.9C369.2,509.2,363,507.8,362.3,494.3z M467.6,574.3c-2,5-2.7,6-7.3,6.2c-6.3,0.3-9.9,0.7-17.2,1.8
		c-7.3,1.2-22.2,8-30.6,11.5c-8.4,3.5-41.4,17-42.9,2.2s42.3-27.3,58.5-32.5c16.3-5.2,16.8-5.7,18-8c0.9-1.8-3.7-3.9-6.1-4.9
		c-3.9,4.4-8.7,7.1-12.8,7.6c15.4-19.2,17-41.8,17-41.8c6.1,14.2,2.6,26-3.6,33.5C476.4,547.4,469.6,569.4,467.6,574.3z
		 M526.6,391.4c0,0-3.1,13.4,4.9,31.2C515.9,415,511.3,398.3,526.6,391.4z M609.9,460.8c-0.2,2.6-0.4,5.3-0.6,7.9
		c-2.1,28.8-4.5,61.5-31.1,98.8c-4,5.6-8.5,11.2-13.4,16.8L509,552.4c0,0,38.4,0.7,45.4-28.9c1.3-5.6-6.3-3.5-6.1-31.5
		c0.2-34.3,11-67,11.6-77.2c0.9-15.3-15.7-21.3-14.7-77.6l37.6-34.8c0,0-39-40.4-138.7-41.6c-139.9-1.8-220,71.6-257.2,116.8
		c-0.2-11.3-0.3-22.7-0.4-34c20.1-22.4,54.6-51.2,106.1-64.2c0,0-51.2-1-106.3,26.7c0-18.6,0-35.4,0-48.3
		c11.3-3.4,22.6-6.5,33.5-9.3l4.5-1.2v-31.5c16.9-4.5,36.5-8.5,58.4-11.9v31l6.9-1.1c24.1-3.8,47.2-6,70.6-6.8l5.8-0.2v-32.2
		c13.7-0.9,26.1-1.5,34-1.5c5.9,0,14.5,0.3,24.3,0.9v32.7l5.9,0.1c24.2,0.4,46.6,2.2,70.6,5.6l6.8,1v-30.9
		c21.7,3.2,41.4,6.9,58.7,11V245l4.6,1.1c13.9,3.4,28.3,7.4,42.9,11.7C613.8,306.3,614,409.9,609.9,460.8z"/>
	<path fill="#C01734" d="M677,633.3c0,0-3.5-49.3-5.7-58c-8.8,5.1-29.5,14-47.3,21.3v0l-6.2-16.1c0,0-93.4,41.1-217.9,41.1
		s-217.9-41.1-217.9-41.1l-6.2,16.1c-17.8-7.4-38.4-16.2-47.3-21.3c-2.2,8.7-5.7,58-5.7,58l-40.2,40.2
		c20.3,12.5,84.9,35.1,84.9,35.1l5.2-16.5c0,0,0,0,0,0C256.8,720.7,338.3,729,400,729s143.2-8.2,227.1-36.9c0,0,0,0,0,0l5.2,16.5
		c0,0,64.7-22.6,84.9-35.1L677,633.3z M158.7,690.4c-15.4-5.6-36.6-13.7-52.2-20.7l30.2-30.2l0.4-5.2c0.9-12.7,2-26.8,3.1-37.7
		c9.5,4.3,20.6,9,30.8,13.2l-27.3,71.5c5.3,2.1,10.7,4.2,16,6.1L158.7,690.4z M400,714.9c-58.4,0-146.1-7.4-238.2-41.7l28.4-74.4
		c30.8,11.5,110.2,36.9,209.8,36.9c99.6,0,179-25.4,209.8-36.9l28.4,74.4C546.1,707.5,458.4,714.9,400,714.9z M640.4,687.4
		c5.3-2,10.7-4,16-6.1L629,609.8c10.2-4.2,21.3-8.9,30.8-13.2c1.1,10.9,2.2,25,3.1,37.7l0.4,5.2l30.2,30.2
		c-15.6,7-36.8,15.1-52.2,20.7L640.4,687.4z"/>
</g>
<g>
</g>
<g>
</g>
<g>
</g>
<g>
</g>
<g>
</g>
<g>
</g>
<g>
</g>
<g>
</g>
<g>
</g>
<g>
</g>
<g>
</g>
</svg>
