<!-- Created by @FCLOGO 2022-02-16 16:04:15 . https://fclogo.top/ -->
<!-- FOR PERSONAL USE ONLY NOT FOR COMMERCIAL USE -->
<svg version="1.1" xmlns="http://www.w3.org/2000/svg" xmlns:xlink="http://www.w3.org/1999/xlink" x="0px" y="0px"
	 viewBox="0 0 800 800" enable-background="new 0 0 800 800" xml:space="preserve">
<g>
	<polygon fill="#FE6A2C" points="662.17,192.9 662.17,192.9 662.17,192.9 	"/>
	<path fill="#FE6A2C" d="M183.07,299.74c-1.37-5.12-6.68-8.2-11.8-6.83s-8.2,6.68-6.83,11.8l11.77,44.16
		c1.37,5.12,6.68,8.2,11.8,6.83c5.12-1.37,8.2-6.68,6.83-11.8L183.07,299.74z"/>
	<path fill="#FE6A2C" d="M266.36,273.52c-2.72,3.85-5.73,8.17-9.17,12.96l7.65,51.46l9.3-1.38c5.48-0.81,9.26-5.92,8.44-11.39
		l-6.41-43.1C275.44,277.11,271.21,273.56,266.36,273.52z"/>
	<path fill="#FE6A2C" d="M692.52,407.99c21.71-29.54,22.47-106.48,22.47-106.48c-13.74-7.68-61.74-23.52-61.74-23.52
		s1.98-5.71,4.66-14.49c2.39-7.73,5.16-17.19,6.92-24.86c1-3.99,1.96-8.1,2.85-12.21c-0.01,0.02-0.01,0.05-0.02,0.07
		c-9.94-9.77-31.54-30.52-47.03-42.18c0,0-15.38,41.47-19.8,45.66c0,0-17.24-19.1-15.38-46.59c1.4-0.93,44.26-15.38,44.26-15.38
		s24,19.1,25.63,20.5c0.96,0.81,1.84,0.36,2.2-1.14c0,0,0,0.01,0.01,0.01c-17.8-22.34-53.29-60.35-107.99-90.64
		c-41.11-22.76-87.7-34.51-135.12-36.37c-34.25-1.34-64.76,4.42-64.76,4.42s-10.02-3.25-22.83-1.86
		c-12.82,1.4-12.11-1.17-15.85-7.68c-3.72-6.53-10.25-6.29-17.24-3.03c-6.99,3.26-27.73,15.14-37.27,21.44
		c-9.56,6.28-21.67,14.67-29.35,20.5c-7.7,5.82-7.22,9.31-6.76,12.11c0.47,2.79,1.17,8.61,1.17,8.61
		c-31.31,21.56-53.76,46.46-61.77,55.94c-6.45-1.59-12.91-4.03-19.06-7.6c-13.28-7.68-34.95-30.17-34.95-30.17
		c3.26,43.8,24.94,64.76,24.94,64.76c-5.51-0.92-25.68-11.98-26.31-12.32c0.68,0.72,24.53,25.92,29.8,30.73
		c5.36,4.9,6.99,4.67,6.99,4.67l-5.35,5.82c2.79,18.64,14.43,49.86,14.43,49.86c-30.28,8.39-65.22,23.3-65.22,23.3
		c3.25,81.55,23.52,108.11,23.52,108.11c27.96-12.59,139.1-56.39,295.49-56.39C573,351.61,692.52,407.99,692.52,407.99z
		 M489.43,341.88c-0.09-0.01-4.7-0.3-4.78-0.32c-1.09-1.12-46.18-48.7-48.41-51.04l-3.08,46.64l-8.9-0.6l5.54-83.84
		c0.23,0.02,4.91,0.33,5.14,0.35l48.03,51.1l3.09-46.73l8.9,0.6L489.43,341.88z M580.67,283.11l-27.5-5.22l-5.35,27.41l18.08,2.62
		l-1.31,9.44l-18.78-2.71l-7.14,35.68l-18.36-3.67l16.4-81.95l45.64,9.14L580.67,283.11z M640.87,288.85l17.71,5.57
		c10.15,3.19,15.79,14,12.6,24.15l-0.17,0.54l-9.41-2.67c1.04-5.68-2.29-11.38-7.94-13.15l-5.08-1.6
		c-6.12-1.92-12.64,1.48-14.56,7.6l-12.77,40.62c-1.92,6.12,1.48,12.64,7.6,14.56l5.08,1.6c5.55,1.74,11.41-0.9,13.89-5.96
		l9.47,2.66l-0.25,0.79c-3.19,10.15-14,15.79-24.15,12.6l-17.71-5.57c-10.15-3.19-15.79-14-12.6-24.15l14.14-44.99
		C619.91,291.3,630.72,285.66,640.87,288.85z M551.67,129c17.91,6.17,34.44,13.94,48.98,21.96c-5.99,2.77-14.56,6.13-17.53,4.48
		c-4.2-2.33-11.41-4.89-14.43-5.36c-3.04-0.46-7.22-0.93-9.32-6.06c-2.1-5.13-3.5-8.03-7.7-9.78c-4.2-1.75-7.34,0-18.17,4.2
		c-10.84,4.2-15.73,7.68-46.83-4.89c-31.1-12.59-51.03-29.01-51.03-29.01S487.72,106.98,551.67,129z M216.53,143.67
		c-2.1,7.35-5.95,12.59-12.24,20.27c-6.29,7.7-9.78,9.45-22.71,9.45c-4.65,0-9.53-0.32-14.5-1.09
		C183.04,159.1,216.53,143.67,216.53,143.67z M208.26,369.78c-6.52,1.86-10.02-0.23-10.95-2.56c-0.41-1.03-0.89-2.43-1.29-3.69
		l-14.91,3.98c-9.73,2.59-19.82-3.24-22.41-12.98l-12.26-46c-2.59-9.73,3.24-19.82,12.98-22.41l18.79-5.01
		c9.73-2.59,19.82,3.24,22.41,12.98l12.26,46c2.14,8.02-1.46,16.27-8.23,20.38c0.76,0.49,1.57,0.74,2.35,0.47
		c4.31-1.51,11.07-3.84,11.07-3.84l2.45,8.74C220.49,365.82,214.78,367.92,208.26,369.78z M312.28,265.64
		c0,0-5.59-15.38-19.57-15.03c-6.54,0.16-11.48,3.77-17.21,10.65c9.68,0.01,18.16,7.06,19.62,16.92l6.55,44.04
		c1.61,10.85-5.88,20.96-16.73,22.58l-36.25,5.39l-8.62-57.92c-3.11-0.77-6.69-0.81-10.28,0.98c0,0,4.89-39.14-31.1-51.72
		c0,0,8.04-12.23,0.7-17.82c-7.34-5.59-20.27-15.38-24.46-18.87c0,0-36.69-4.54-55.22-46.3c0,0,24.11,31.63,106.59,30.93
		c0,0-9.2-8.62-11.07-11.42c-1.86-2.8-3.73-4.66-0.47-8.39c3.26-3.73,22.37-21.67,19.1-64.77c0,0,25.63-22.13,64.3-18.41
		c0,0-9.79-10.48-20.74-10.95c0,0,13.75-10.02,27.03-15.38c0,0,0.7,4.43,4.89,8.39c4.19,3.96,7.22,4.89,21.2,4.43
		c13.98-0.47,30.45,1.86,51.95,13.05c12.93,9.44,104.84,81.78,104.84,81.78s-19.92-27.61-23.41-34.25c0,0,23.76,12.58,37.74,16.77
		c13.98,4.19,24.46,4.54,48.23-5.94c0,0,22.37,49.62,30.05,66.05s15.03,33.55,39.84,46.13l2.8,13.98c0,0-49.27-13.28-78.98-16.42
		c0,0-21.32-13.98-31.45-40.54c0,0-0.35,18.35,9.96,28.83c0,0-21.49,4.37-24.99,5.3c-6.06-0.93-32.15-3.49-44.03-3.26
		c-8.39-3.96-37.39-15.84-47.18-19.34c-5.94-5.59-17.47-16.08-17.47-16.08s-27.26,2.1-42.29,0c0,0-6.29-33.2-16.08-43.68
		c0,0,1.4,23.76-0.35,40.54c-1.75,16.77-4.54,26.91-7.69,32.5C318.92,243.97,311.59,255.16,312.28,265.64z M335.87,229.91
		c0,0,35.91-0.91,46.65-10.75l23.24,22.89c0,0-59.85,0.61-80.32,1.92L335.87,229.91z M372.78,337.39l-1.35-37.69l-17.76,0.69
		l1.35,37.53l-19.45,0.7l-3.03-84.52l19.45-0.7l1.35,37.54l17.76-0.69l-1.34-37.38l19.45-0.7l3.03,84.52L372.78,337.39z"/>
	<path fill="#FE6A2C" d="M404.03,750c0,0,220.7-96.45,262.05-309.98l26.44-13.98c0,0-17.01-8.88-48.42-19.66
		C596.8,655.73,404.03,750,404.03,750z"/>
	<path fill="#FE6A2C" d="M163.95,406.38c-31.41,10.79-48.42,19.66-48.42,19.66l26.44,13.98C183.33,653.55,404.03,750,404.03,750
		S211.26,655.73,163.95,406.38z"/>
	<path fill="#FE6A2C" d="M311.88,373.64L311.88,373.64c0.33-0.03,0.66-0.07,1-0.11C312.55,373.56,312.22,373.6,311.88,373.64z"/>
	<path fill="#FE6A2C" d="M177.32,401.98c3.43,16.8,11.21,48.26,27.15,87.1l107.41-115.43c-63.77,7.36-114.14,21.14-147.89,32.72
		C168.17,404.93,172.63,403.46,177.32,401.98z"/>
	<path fill="#FE6A2C" d="M492.03,594.84c10.49,0,16.07-4.67,20.74-7.46c4.65-2.79,11.88-5.82,17.24-5.82
		c4.59,0,12.02-0.61,21.02,6.22c5.11-7.65,9.93-15.25,14.44-22.77h-21.72c-10.95,0-14.91-3.72-19.34-6.75
		c-4.43-3.03-10.02-8.15-21.2-8.15c-11.18,0-17,5.82-21.67,9.31c-4.65,3.5-13.74,5.6-22.59,5.6c-8.86,0-54.92,0-54.92,0v1.17
		l-198.95-75.62c11.31,27.33,26.65,58.24,47.33,90.23l0-0.01c11.38-7.22,24.87-11.42,39.36-11.42c40.59,0,73.48,32.9,73.48,73.48
		c0,3.88-0.3,7.68-0.88,11.41l0,0h39.67h94.89c9.17-10,17.71-20.08,25.7-30.16l-120.59,0.11v-29.35
		C404.03,594.84,481.54,594.84,492.03,594.84z"/>
	<path fill="#FE6A2C" d="M491.21,418.47c19.57,0,22.37-4.83,27.62-7.98c5.24-3.14,13.28-7.51,23.93,0
		c10.66,7.52,14.51,7.87,30.58,7.87h53.67c1.6-6.4,2.82-11.92,3.73-16.38c0.01,0,0.01,0,0.02,0c-13.99-4.44-30.2-9.03-48.47-13.34
		c0.02,0.01,0.05,0.01,0.07,0.02h-40.13c-22.37,0-22.37-3.85-28.31-8.74c-5.93-4.89-14.67-6.99-25.16,0
		c-10.49,6.99-11.18,8.74-28.66,8.74c-17.46,0-56.08,0-56.08,0v-20.27c0.04,0,0.08,0,0.12,0c-0.04,0-0.08,0-0.12,0
		c-31.51,0-60.9,1.81-87.94,4.79c0.27,18.58,6.47,97.54,87.93,174.58l0.01,0v-12.32c0,0,10.41,0,21.14,0
		c10.71,0,17.24-2.33,22.37-5.36c5.13-3.03,14.91-10.71,27.95-10.71s19.1,6.06,24.7,10.25c5.59,4.2,8.15,5.82,17.94,5.82h63.94
		c5.37-10.32,10.2-20.36,14.54-30.05h-97.34c-16.31,0-21.32-1.4-30.41-8.39c-9.09-6.99-13.39-9.32-21.08-9.32
		c-16.22,0.42-26.62,15.18-43.74,17.9v-44.87c12.37-7.34,25.97-4.98,41.64,9.97c10.48,8.61,25.85,7.46,41,7.46
		c25.44-2.25,75.59,5.93,93.66-6.29c8.16-6.05,18.97-2.36,28,5.32c4.05-10.56,7.47-20.46,10.36-29.54H594.3
		c-12.57,0-17.12-2.68-22.37-5.49c-5.24-2.79-11.64-7.34-23.06,0c-11.42,7.35-19.34,5.49-35.41,5.49h-71.99
		c-16.06,0-27.88-8.61-37.45-19.13v-10C424.19,418.47,475.6,418.47,491.21,418.47z"/>
	<path fill="#FE6A2C" d="M381.78,696.28c-2.45,1.32-5.12,2.22-7.93,2.84c-0.17,0.04-0.31,0.19-0.46,0.29
		c0.13,0.13,0.23,0.29,0.39,0.37c0.36,0.18,0.75,0.31,1.11,0.48c0.38,0.19,0.75,0.24,1.19,0.1c1.94-0.6,3.94-1.08,5.82-1.8
		c5.06-1.92,9.19-4.77,12.07-8.79c2.05-2.87,3.11-6,3.49-9.3c0.34-2.92,0.19-5.82-0.94-8.64c-1.77-4.39-5.14-7.24-10.92-7.59
		c-4.86-0.29-8.9,1.16-11.88,4.4c-2.59,2.82-3.29,6.06-2.72,9.54c0.75,4.51,4.37,7.58,9.78,8.12c2.64,0.26,5.12-0.18,7.2-1.7
		c1.15-0.84,2.35-1.64,3.53-2.45c0.05,0.02,0.1,0.04,0.15,0.06c-0.11,0.81-0.17,1.62-0.35,2.42
		C390.18,689.68,386.9,693.51,381.78,696.28z M390.68,680.3c-3.04,3.94-9.56,3.98-12.69,0.1c-1.35-1.67-1.85-3.56-1.9-5.53
		c-0.05-1.65,0.16-3.29,0.9-4.85c1.74-3.67,5.92-4.58,9.5-3.85c1.91,0.39,3.12,1.55,4.03,2.93c1.28,1.96,1.64,4.11,1.71,5.8
		C392.27,677.16,391.82,678.81,390.68,680.3z"/>
	<path fill="#FE6A2C" d="M410.89,696.64c-2.27,1.14-4.72,1.93-7.27,2.49c-0.16,0.04-0.29,0.17-0.44,0.25
		c0.12,0.13,0.2,0.31,0.36,0.38c0.39,0.2,0.8,0.39,1.23,0.51c0.33,0.09,0.75,0.16,1.06,0.08c1.98-0.56,3.99-1.07,5.89-1.79
		c5.09-1.94,9.25-4.82,12.12-8.89c2.03-2.88,3.06-6.02,3.43-9.32c0.32-2.89,0.16-5.76-0.96-8.54c-1.78-4.39-5.16-7.23-10.94-7.57
		c-4.86-0.28-8.9,1.17-11.87,4.42c-2.58,2.82-3.3,6.07-2.69,9.55c0.92,5.22,5.36,7.82,9.85,8.12c2.63,0.17,5.08-0.22,7.14-1.74
		c1.14-0.83,2.32-1.62,3.49-2.43c0.06,0.01,0.13,0.03,0.19,0.04c-0.16,1-0.24,2.01-0.5,2.99C419.63,690.24,416.15,694,410.89,696.64
		z M421.36,678.73c-0.82,2.19-2.63,3.73-5.34,4.34c-3.17,0.71-6.4-0.37-8.24-2.67c-1.44-1.8-1.87-3.82-1.92-5.79
		c0.07-1.67,0.24-3.17,0.92-4.6c1.75-3.67,5.92-4.57,9.5-3.85c1.62,0.32,2.82,1.22,3.62,2.39
		C422.09,671.75,422.7,675.18,421.36,678.73z"/>
	<path fill="#FE6A2C" d="M445.63,697.64c-1.42,0.53-2.92,0.61-4.45,0.57c-4.21-0.1-7.25-1.71-9.04-4.9
		c-0.42-0.75-0.77-1.53-1.17-2.33c-0.5,0.16-1.02,0.33-1.58,0.51c0.97,2.4,1.78,4.76,2.09,7.22c0.02,0.13,0.19,0.31,0.33,0.35
		c2.2,0.6,4.43,1.18,6.76,1.22c6.67,0.12,11.95-2.2,15.93-6.62c1.44-1.6,2.2-3.44,2.29-5.47c0.14-3.34-1.58-5.7-5.24-7.04
		c-0.58-0.21-1.19-0.39-1.8-0.54c-0.73-0.18-1.49-0.31-2.31-0.48c0.21-0.14,0.36-0.23,0.5-0.35c1.4-1.15,2.91-2.23,4.19-3.48
		c3.38-3.3,2.61-9.17-3.3-11.27c-4.19-1.49-8.46-1.39-12.58,0.24c-2.06,0.81-3.65,1.98-3.96,4.09c-0.22,1.49-0.79,2.94-1.22,4.46
		c0.55,0,1.05-0.02,1.54,0.01c0.33,0.01,0.45-0.1,0.53-0.35c0.21-0.64,0.49-1.27,0.68-1.91c0.28-0.94,0.92-1.66,1.8-2.24
		c1.73-1.13,3.69-1.78,5.89-1.83c4.35-0.1,7.7,2.65,7.51,6.2c-0.23,4.16-4.14,7.1-8.92,6.75c-0.63-0.05-1.26-0.07-1.9-0.11
		c-0.22,0.79-0.45,1.53-0.63,2.27c-0.04,0.18-0.01,0.46,0.13,0.56c0.12,0.09,0.47,0.04,0.67-0.03c1.64-0.61,3.32-1,5.15-0.92
		c3.78,0.16,6.15,1.65,7.12,4.61c0.7,2.15,0.62,4.29-0.32,6.38C449.45,695.17,448.01,696.75,445.63,697.64z"/>
	<path fill="#FE6A2C" d="M352.42,695.84c-0.13,1.12-0.72,1.7-2.05,1.91c-0.82,0.13-1.66,0.16-2.5,0.22
		c-0.89,0.06-1.78,0.09-2.7,0.13c0,0.52,0,0.99,0,1.45c6.57,0,13.1,0,19.65,0c0-0.47,0-0.95,0-1.45c-0.92-0.04-1.8-0.07-2.67-0.13
		c-0.85-0.06-1.71-0.13-2.54-0.28c-1.12-0.2-1.74-0.83-1.81-1.8c-0.04-0.56-0.11-1.13-0.11-1.69c-0.01-9.78,0-19.55,0-29.33
		c0-0.21,0-0.43,0-0.6c-0.55-0.32-1.03-0.3-1.54,0c-0.32,0.19-0.7,0.31-1.06,0.46c-3.77,1.57-9.61,3.94-13.59,5.08
		c-0.39,0.11-0.55,0.25-0.45,0.6c0.15,0.57,0.31,0.97,0.45,1.66c0.38-0.08,0.71-0.12,1.01-0.23c2.42-0.89,6.07-2.31,8.45-3.32
		c0.53-0.23,1.42-0.44,1.48,0.06c0.06,0.48,0.08,0.96,0.09,1.44c0,8.08,0.01,16.15,0,24.23
		C352.53,694.78,352.48,695.31,352.42,695.84z"/>
</g>
<g>
</g>
<g>
</g>
<g>
</g>
<g>
</g>
<g>
</g>
<g>
</g>
<g>
</g>
<g>
</g>
<g>
</g>
<g>
</g>
<g>
</g>
</svg>
