<svg version="1.1" xmlns="http://www.w3.org/2000/svg" xmlns:xlink="http://www.w3.org/1999/xlink" x="0px" y="0px"
	 viewBox="0 0 800 800" enable-background="new 0 0 800 800" xml:space="preserve">
<g>
	<path fill-rule="evenodd" clip-rule="evenodd" fill="#B02224" d="M270.6,694.8C310,711.5,351.9,720,395.1,720
		c43.2,0,85.1-8.5,124.5-25.1c25.4-10.7,49-24.5,70.6-41.2H199.9C221.6,670.3,245.2,684.1,270.6,694.8z"/>
	<path fill-rule="evenodd" clip-rule="evenodd" fill="#B02224" d="M352.1,242.8v-36h-8.1c-1,2.4-2.6,4.1-4.3,5.7
		c-1.8,1.6-4.5,2.8-7.9,3.9v7.9c2.4-0.6,4.3-1.4,5.7-2.2c1.6-0.6,3.1-1.6,4.7-3v23.6H352.1z"/>
	<path fill-rule="evenodd" clip-rule="evenodd" fill="#B02224" d="M376.7,237.5l-0.2,0c-0.8,0-1.6-0.4-2.2-1c-0.6-0.6-1-1.4-1.2-2.8
		l-9.8,1.2c0.6,1.8,1.4,3.3,2.6,4.7c1,1.2,2.4,2.2,3.9,2.8c1.6,0.8,3.9,1,6.7,1c0,0,0,0,0.2,0c4.5,0,8.3-1.6,11-4.3
		c2.6-3.1,3.9-7.7,3.9-14.2c0-4.3-0.6-7.7-2-10.4c-1.2-2.6-3-4.5-5.1-5.7c-2-1.2-4.7-1.8-7.9-2c-0.2,0-0.4,0-0.6,0
		c-3,0-5.3,0.6-7.3,1.6c-2,1-3.5,2.4-4.5,4.3c-1.2,2-1.8,4.1-1.8,6.5c0,3.3,1.2,6.3,3.3,8.5c2.2,2.4,4.7,3.3,7.9,3.3c1,0,2,0,3-0.2
		c0.4-0.2,1-0.4,1.4-0.6c1.2-0.6,2.4-1.4,3.5-2.6c-0.2,3.7-0.8,6.1-1.4,7.3C379.5,236.5,378.1,237.5,376.7,237.5z M380.1,223.5
		c-1,1-2.2,1.4-3.3,1.6c-0.2,0-0.2,0-0.2,0c-1.4,0-2.4-0.6-3.3-1.6c-0.8-1.2-1.2-2.6-1.2-4.7c0-2,0.4-3.3,1.2-4.3
		c0.8-1,2-1.4,3.1-1.4c0.2,0,0.2,0,0.4,0c1.2,0,2.4,0.6,3.1,1.6c1,1,1.6,2.6,1.6,4.5C381.4,220.9,380.8,222.5,380.1,223.5z"/>
	<path fill-rule="evenodd" clip-rule="evenodd" fill="#B02224" d="M409.6,237.5L409.6,237.5c-1,0-1.6-0.4-2.3-1
		c-0.6-0.6-1-1.4-1.2-2.8l-9.8,1.2c0.6,1.8,1.4,3.3,2.6,4.7c1,1.2,2.4,2.2,3.9,2.8c1.8,0.8,3.9,1,6.7,1h0.2c4.5,0,8.1-1.6,10.8-4.3
		c2.6-3.1,3.9-7.7,3.9-14.2c0-4.3-0.6-7.7-1.8-10.4c-1.4-2.6-3.1-4.5-5.1-5.7c-2.2-1.2-4.5-1.8-7.9-2c-0.2,0-0.4,0-0.6,0
		c-2.9,0-5.3,0.6-7.3,1.6c-2,1-3.5,2.4-4.5,4.3c-1.2,2-1.8,4.1-1.8,6.5c0,3.3,1.2,6.3,3.3,8.5c2.2,2.4,4.9,3.3,8.1,3.3
		c1,0,1.8,0,2.8-0.2c0.6-0.2,1-0.4,1.4-0.6c1.4-0.6,2.3-1.4,3.5-2.6c-0.4,3.7-0.8,6.1-1.4,7.3C412.3,236.5,411.1,237.5,409.6,237.5z
		 M412.9,223.5c-1,1-2,1.4-3.3,1.6c-1.4,0-2.6-0.6-3.3-1.6c-1-1.2-1.4-2.6-1.4-4.7c0-2,0.4-3.3,1.2-4.3c1-1,2-1.4,3.3-1.4h0.2
		c1.2,0,2.4,0.6,3.3,1.6c0.6,1,1.2,2.6,1.2,4.5C414.1,220.9,413.7,222.5,412.9,223.5z"/>
	<path fill-rule="evenodd" clip-rule="evenodd" fill="#B02224" d="M445.4,206.8l-4.7,5.7L427.5,228v8.1h13.2h4.7v6.7h8.5v-6.7h4.5
		v-7.5h-4.5v-21.8H445.4z M445.4,228.6h-4.7h-4.7l4.7-5.7l4.7-5.5V228.6z"/>
	<path fill-rule="evenodd" clip-rule="evenodd" fill="#B02224" d="M743.5,437.7c-0.6-1.8-1.2-2.8-2-3.2c-0.6-0.4-1.4-0.6-2.4-0.6
		c-1.6,0-2.5,0.4-2.9,0.8c-0.6,0.4-1.2,1-1.6,2c-0.8,2.2-1.2,5.7-2,9c-0.4,2.4-1.2,4.7-3.2,6.9c-1,1.2-2.5,2-4.3,2.4
		c-1.4,0.4-2.6,0.6-3.7,0.6c-1.6,0-3.1-0.4-4.5-1.4c-1.6-0.8-2.6-2.4-3.1-3.7c-1.2-3.1-1.4-6.9-1.6-12c0-4.7,0.4-10.6,0.8-17.9
		c0-1.2,0.2-2.2,0.2-3.3c0-5.7-1-10.2-2.6-14c-1.6-3.5-3.5-6.3-6.1-8.7c-5.1-4.3-12-6.5-18.7-7.5c-0.8-0.2-1.6-0.2-2.2-0.2
		c-3,0-4.3,0.8-5.5,2c-1,1.2-1.6,3.1-1.6,4.9c0,2.8,1,5.3,2.6,6.5c3.4,3,6.9,6.1,9.6,10.8c2.8,4.7,4.5,10.8,5.1,18.7
		c0.2,1,0.2,2,0.2,2.9c0,3.3-0.6,6.3-1.2,8.9c-0.8,2.5-1.8,4.5-3,6.3c-0.8,1-1.6,2-2.9,2.6c-0.6,0.4-1.4,0.8-2.4,0.8
		c-1,0-1.8-0.4-2.6-0.8c-0.8-0.4-1.4-1.2-1.8-1.8c-0.6-1.4-1-2.7-1-4.3c-0.2-0.8-0.6-2.8-1.8-4.7c-1-2.2-2.4-4.7-4.1-7.3
		c-3.3-5.1-7.9-10.6-11.8-14.6c-2.6-2.8-4.9-4.7-6.3-5.5c-3.5-2-8.5-3.7-12-3.7c-1.8,0-3.2,0.4-3.9,1c-0.8,0.6-1.4,1-1.6,2.6
		c0,0.4-0.2,0.8-0.2,1.2c0,1.2,0.4,2.4,1.2,3.3c0.6,1,1.6,2,2.6,3c6.3,4.7,8.6,3.1,15.5,13.4c2.3,3.5,3.7,7.7,3.7,12.4
		c0,3.9-0.8,8.3-2.2,13.4c-1.2,3.7-2.5,6.7-4.3,8.9c-2,2.2-4.3,3.5-7.1,3.5c-2,0-3.7-0.8-5.3-1.8c-1.6-1.2-2.8-2.5-3.8-4.5
		c-2.2-3.5-3.5-8.3-3.9-13.8c-0.4-7.3-4.5-16.5-8.6-24.2c-11.6-20.7-28.3-40.3-50.5-49.8c-15-6.1-30.3-8.1-43.3-8.1
		c-9.9,0-18.4,1.1-24,2.1c2.9,8.1,4.9,16.5,6,25.3c2.8-0.4,6.5-0.7,10.7-0.7c13.8,0,34,3,51.9,17.1c17.8,13.7,33.3,38.3,39,79.6
		h101.4c1.7-1.2,3.5-2.5,5.2-3.9c4.9-4.1,9.8-9.2,13.4-14.2c2.6-3,4.1-6.1,4.9-8.5c2-5.5,4.1-14.5,4.1-21.8
		C744.5,441.6,744.1,439.2,743.5,437.7z"/>
	<path fill-rule="evenodd" clip-rule="evenodd" fill="#B02224" d="M556.7,492.5c-1.8-8-5.5-14.4-10.2-19.4c-5.3-5.7-12.2-10-19.3-13
		c-7.8-3.2-15.5-4.9-21.1-5.7c-2.4,5.9-5.2,11.6-8.5,16.9c14.3,3.2,23.4,8.4,29,14.6c2,2.2,3.5,4.4,4.8,6.7H556.7z"/>
	<path fill-rule="evenodd" clip-rule="evenodd" fill="#B02224" d="M508.5,448c2.6,0.4,5.5,1,8.7,1.8c10.6,2.8,23.6,8.1,33.6,18.3
		c5.9,6,10.6,14.2,12.6,24.4h21.2c-2.5-14.1-6.9-24.9-12.4-33.4c-5.9-9.2-13.2-15.7-20.7-20.3c-14.3-8.8-29.5-10.4-38.3-10.6
		C512.2,435,510.6,441.6,508.5,448z"/>
	<path fill-rule="evenodd" clip-rule="evenodd" fill="#B02224" d="M542.5,427c12.2,4.7,25.4,13.4,35.2,28.5c6.1,9.6,11,21.6,13.5,37
		h17.5c-5.7-39.7-20.2-61.9-36.4-74.5c-16.5-12.8-35-15.7-48-15.7c-4,0-7.5,0.3-10.1,0.6c0.2,2.6,0.3,5.2,0.3,7.8
		c0,3.7-0.2,7.3-0.5,10.9C521,421.8,531.4,423,542.5,427z"/>
	<path fill-rule="evenodd" clip-rule="evenodd" fill="#B02224" d="M349.6,453.4l1.6-17.3c0,0-36-15.9-36.4-57.6h-7.9
		c0,0-0.6,13.9-3.3,26.3c14.2,15.9,21.4,32.4,24.8,47C334.5,450.7,341.6,450.8,349.6,453.4z"/>
	<path fill-rule="evenodd" clip-rule="evenodd" fill="#B02224" d="M425.9,420.2l6.7,9.8c0,0,24.8-17.7,56.4-10.4l5.5-20.1
		c0,0-33.8-22.6-40.9-43.1l-14,2.2C439.7,358.6,449.1,399.5,425.9,420.2z"/>
	<polygon fill-rule="evenodd" clip-rule="evenodd" fill="#B02224" points="284.8,559.4 284.8,569.6 296,569.6 291.1,561.9 
		297,561.9 308.8,561.9 314.3,569.6 317.6,569.6 321,569.6 326.5,562.3 338.3,562.3 344.8,562.3 339.6,569.6 350.7,569.6 
		350.7,559.4 338.3,559.4 317.6,559.4 297,559.4 	"/>
	<path fill-rule="evenodd" clip-rule="evenodd" fill="#B02224" d="M157.7,560v45.6h5.7h1.6c2.2,0.2,3.3-0.8,3.3-3.3V560h-4.9H157.7z
		"/>
	<polygon fill-rule="evenodd" clip-rule="evenodd" fill="#B02224" points="326.1,580.8 326.1,588.3 338.3,588.3 350.7,588.3 
		350.7,580.8 338.3,580.8 	"/>
	<polygon fill-rule="evenodd" clip-rule="evenodd" fill="#B02224" points="284.8,580.8 284.8,588.3 297,588.3 309.2,588.3 
		309.2,580.8 297,580.8 	"/>
	<polygon fill-rule="evenodd" clip-rule="evenodd" fill="#B02224" points="500.9,544.4 500.9,539.3 496.4,539.3 491.9,539.3 
		491.9,544.4 496.4,544.4 	"/>
	<path fill-rule="evenodd" clip-rule="evenodd" fill="#B02224" d="M499.1,560.4c1.2,0.2,2-0.4,2.2-1.8l0-2.6h-4.9h-5.1v4.3h5.1
		H499.1z"/>
	<path fill-rule="evenodd" clip-rule="evenodd" fill="#B02224" d="M57.7,644.9h674.8V501.2H57.7V644.9z M184.1,607.8
		c0,6.9-3.7,10.4-11.2,10.4h-9.4h-20.7v-70.8h20.7h20.6V607.8z M659,582.6h4.1c1.6,0.2,2.5-1,3.1-3.3l3.7-49.2h1.8h12.8l-4.1,53.7
		c-0.8,7.3-3.7,11-8.7,11.4c-0.6,0-1.2,0-1.8,0h-11V582.6z M595.3,530.5h3l2.8,48.2c-0.4,3.5,0.6,4.9,2.8,4.3h3.1v12.6h-11.4h-0.2
		c-5.7,0.4-8.5-3.7-8.5-12.2l-3.1-52.9H595.3z M583.7,607.8h11.6h17.5v-82.2h15.9v82.2h9v-82.2h15.9v82.2h18.1h12.8v13h-12.8h-76.5
		h-11.6V607.8z M446.4,544.4h27.1v-4.7h-26.4v-11.2h26v-4.3h12.2h5.5v3.7h5.5H521v16.5h4.5v11.2h-4.1v5.5c0,7.5-4.5,11.2-13.6,10.8
		h-11.4h-4.1v4.7h4.1h26.8v10.4h-26.8h-4.1v5.1h4.1h26.8v10.4h-26.8h-4.5v3.7h-6.5h-11.8v-3.7h-26.4v-10.4h26.4v-5.1h-26.4v-10.4
		h26.4V572h-26.4v-11.6h26.4V556h-27.1V544.4z M421.8,608.5h2.2c1.6,0,2.6-1.4,2.8-3.7v-25.6c-0.2-1.8-1-2.7-2.2-2.9h-2v-12.6h2h0.4
		c1.2-0.4,1.8-1,1.8-2.2v-26h-4.1v-11.8h18.3v37.4c0,3.1-1.2,5.5-3.2,7.5l-1,1.4c0,0.6,0.4,1.2,1,2c1.8,2,2.8,4.1,3.2,6.3v23.2
		c1.6,3.9,6.5,6.3,14.9,7.1h29.5h11h28.1v10.8h-28.1h-11H449c-1.8,0-3.9-0.6-6.3-2c-1.6-1-2.6-1.4-3.1-1.4c-0.6,0-1.4,0.4-2.4,0.8
		c-2.6,1.8-4.7,2.5-6.3,2.5h-9V608.5z M265.7,528.5H297h12.2v-4.3h8.5h8.5v4.3h12.2h30.9v12h-30.9h-12.2v6.9h12.2H367v62.3
		c0.6,7.9-3.9,11.6-13.8,11h-14.9h-3.5v-11.8h3.5h9c2.5,0.6,3.5-0.2,3.3-2.6v-5.5h-12.4h-12.2v19.9h-8.5h-8.5v-19.9H297h-12.2v19.9
		h-16.5v-73.4H297h12.2v-6.9H297h-31.3V528.5z M139.6,528.5h23.8H210v13.4h-4.1v68.2c0,8.3-3.7,12.2-11.2,12.2h-10v-12.2h2.2
		c2.5,0.4,3.7-1,3.7-4.1v-64.1h-27.1h-23.8V528.5z M125.5,527.1l2.4,11c0.2,2.4,1.6,3.5,4.1,3.3h6.3v13h-17.7
		c-5.7,0.6-9-1.8-9.6-7.1l-3.9-20.3H125.5z M124.7,559l2.7,9.6c0.8,3,2.4,4.1,4.5,3.8h6.3v12.2h-18.7c-4.7,0.6-7.9-2-9-7.9
		l-4.1-17.7H124.7z M105.6,610.7h5.3c2,0.2,3.3-0.6,4.1-2.6l5.5-18.9h17.3l-7.3,25.2c-1,5.3-4.7,7.7-11.4,7.5h-13.6V610.7z"/>
	<path fill-rule="evenodd" clip-rule="evenodd" fill="#B02224" d="M253.5,163.1l-10.5-7.8c-2.5-1.9-4.7-3.6-6.5-5
		c0.8,2.3,1.5,4.6,2,7l3,13.5L253.5,163.1z"/>
	<path fill-rule="evenodd" clip-rule="evenodd" fill="#B02224" d="M430.1,111.8c-0.8-3-1.5-5.7-1.9-8c-0.8,2.3-1.7,4.5-2.8,6.7
		l-6.1,12.4l14.2,1.4L430.1,111.8z"/>
	<path fill-rule="evenodd" clip-rule="evenodd" fill="#B02224" d="M168.3,492.5c-11.7-28.5-18.1-59.8-18.1-92.5
		c0-135.2,109.6-244.9,244.9-244.9S640,264.8,640,400c0,1.9,0,3.8-0.1,5.8c4.9-1.4,12.1,0.8,17.1,3.6c7.7,4.3,25,26.2,25.6,34.8
		c0.6,8.8,9.2,1.2,8.3-14.2c-1.2-15.1-7.1-21.6-13.8-27.1c-6.5-5.5-5.3-21.2,9.2-19.1c11.6,1.7,24.5,6.8,28.7,22
		c0-1.9,0.1-3.8,0.1-5.8c0-43.2-8.5-85.1-25.1-124.5c-16.1-38.1-39.2-72.3-68.6-101.7c-29.4-29.4-63.6-52.5-101.7-68.6
		C480.2,88.5,438.3,80,395.1,80c-43.2,0-85.1,8.5-124.5,25.1c-38.1,16.1-72.3,39.2-101.7,68.6c-29.4,29.4-52.5,63.6-68.6,101.7
		C83.6,314.9,75.1,356.8,75.1,400c0,31.7,4.6,62.7,13.6,92.5H168.3z M667.8,254.4c2.3,4.2,3.2,8.4,2.6,12.4c-0.6,4-2.5,7.7-5.8,11
		l-0.4,0.4l-4.9-5.4l0.3-0.4c2.4-2.5,3.7-5,4.1-7.4c0.3-2.4-0.2-5-1.6-7.6c-1.7-3-3.8-5.2-6.4-6.4c-2.6-1.2-5.3-1.6-8.2-1.1
		c-2.9,0.5-5.8,1.5-8.4,3c-3.4,1.9-6.1,4-8.1,6.4c-2,2.3-3,4.9-3.1,7.6c-0.1,2.7,0.5,5.3,1.8,7.7c1.6,2.9,3.8,4.9,6.6,6
		c2.8,1.1,6.1,1.1,9.8,0l0.5-0.2l1.9,7.2l-0.5,0.1c-2.3,0.6-4.4,0.9-6.5,0.9c-2.7,0-5.1-0.5-7.4-1.4c-4.1-1.7-7.3-4.8-9.7-9.1
		c-2.5-4.5-3.6-8.7-3.3-12.6c0.3-3.8,1.8-7.5,4.5-10.9c2.6-3.4,6-6.2,10-8.3c4.3-2.4,8.6-3.6,12.8-3.8c4.1-0.1,8,0.9,11.4,3.1
		C663.1,247.8,665.8,250.7,667.8,254.4z M629.3,199.6l20.2,25.6l-5.2,4.1l-15.7-19.9l-10.5,8.3l13.6,17.2l-5.2,4.1l-13.6-17.2
		l-16.7,13.1l-4.5-5.7L629.3,199.6z M587.5,159.6l-3.8,5.4l-22.7-15.8l-7.6,10.9l21.2,14.8l-3.8,5.4l-21.2-14.8l-8.5,12.2l23.5,16.4
		l-3.8,5.4l-29.5-20.6l27.4-39.2L587.5,159.6z M509.3,114.6l8,3.8l2.3,17c0.4,2.8,0.6,5.6,0.8,8.3c2.1-1.5,4.6-3,7.4-4.7l14.3-8.7
		l7.7,3.7l-29.2,16.7l-8.7,18.2l-6.6-3.1l8.7-18.2L509.3,114.6z M462.4,100.8l6.9,1.9l13.3,40.5l9.5-34.1l6.8,1.9L486,157.1
		l-6.9-1.9l-13.3-40.6l-9.5,34.2l-6.8-1.9L462.4,100.8z M425.3,95.9l7.4,0.7l0.1,0.4l14.6,49.2l-8.2-0.8l-4-14.6l-18.7-1.9
		l-6.5,13.6l-7.7-0.8L425.3,95.9z M397.6,94.7l0.8,47.8l-7.3,0.1l-0.8-47.8L397.6,94.7z M359.8,130l0.1,0.6c0.5,3.4,1.4,5.7,2.6,6.7
		c1.2,1.1,2.8,1.5,4.7,1.3c1.4-0.2,2.6-0.6,3.6-1.4c1-0.8,1.5-1.7,1.8-2.8c0.3-1.2,0.3-3.1,0-5.7L369,96.2l7.2-0.8l3.6,32.2
		c0.4,3.9,0.3,7.1-0.4,9.4c-0.7,2.3-2.1,4.2-4.1,5.7c-2,1.4-4.4,2.3-7.2,2.6c-0.7,0.1-1.4,0.1-2.1,0.1c-3.2,0-5.9-0.9-8-2.7
		c-2.5-2.2-4-5.7-4.5-10.5l0-0.5L359.8,130z M268,123.8l0.2,0.2l35.5,23.2l-13.9-32.6l6.5-2.8l18.8,44l-6.6,2.8l-35.7-23.3
		l13.9,32.6l-6.5,2.8l-18.8-44L268,123.8z M235.5,141.9l42.4,29.5l-6.9,4.5l-12.3-8.9L243,177.2l3.4,14.7l-6.5,4.2l-10.6-50.1
		L235.5,141.9z M182.9,183.6l41.5,10l-24-26.1l5.2-4.8L238,198l-5.3,4.9l-41.5-10l24.1,26.1l-5.2,4.8l-32.4-35.2L182.9,183.6z
		 M167.4,199.9l5.2,4l-16.8,21.9l10.5,8.1l15.8-20.5l5.2,4l-15.8,20.5l11.7,9l17.5-22.7l5.2,4L184,256.7l-0.4-0.3l-37.5-28.8
		L167.4,199.9z M123,268.1l17,9l10.8-20.5l-17-9l3.4-6.4l42.3,22.3l-3.4,6.4l-19.5-10.3l-10.8,20.5l19.5,10.3l-3.4,6.4l-42.3-22.3
		L123,268.1z"/>
	<path fill-rule="evenodd" clip-rule="evenodd" fill="#B02224" d="M398.2,297.2c-55.6,0-101.7,39.8-111.5,92.5
		c1.9,1.4,3.9,2.9,5.8,4.5c2-12.6,6.1-24.5,12.1-35.2l0.8,13.4l10.4-3.4c17.7-43.6,51.5-44.2,51.5-44.2l1.8-9.4l-14-2.6
		c13.2-5.8,27.8-9,43.1-9c2.7,0,5.3,0.1,7.9,0.3c-3.4,2.9-12.6,9.2-28.7,9.2l-0.6,10c0,0,33-4.5,58.6,26.6l15-2.8
		c0,0-6.4-19-3.9-31.7c10.1,5.1,19.2,11.8,27.1,19.7c17.5,17.5,29,40.9,31.1,66.8l-2.8-1.1l-5.5,22.2c0,0,4.4,2.9,6.6,8.9
		c-4.2,21-14.7,39.8-29.4,54.2c-2.2,2.3-4.6,4.4-7,6.5h10c21.6-20.7,35-49.7,35-81.8C511.5,348,460.7,297.2,398.2,297.2z"/>
	<path fill-rule="evenodd" clip-rule="evenodd" fill="#B02224" d="M419.2,427.2c0,0-23.6,19.5-58.6,13.4l-1,15.5
		c0,0,26.7,7,39.7,36.4h11.7l2.6-1.2c0,0-9.2-31.9,10.4-52.9L419.2,427.2z"/>
	<path fill-rule="evenodd" clip-rule="evenodd" fill="#B02224" d="M495.8,474.1C495.8,474.1,495.8,474.1,495.8,474.1
		c-4.3,6.7-9.3,12.8-14.9,18.4h46.3C523.1,486.5,513.3,475.7,495.8,474.1z"/>
	<path fill-rule="evenodd" clip-rule="evenodd" fill="#B02224" d="M294.9,463.6c-4.7-12.2-13-26.2-28.1-39.1
		c-18.3-14.6-36.2-19.3-52.3-19.3c-6.7,0-13.2,1-19.1,2.4c-8.3,1.8-15.5,4.7-21.6,7.7c-7.8,3.7-13.2,7.6-15.8,9.6
		c0.6,5.8,1.6,12.7,1.9,14.2l0,0c2.2-1.6,5.3-3.7,9.4-5.7c3.2-1.8,7.1-3.5,11.5-5c4.4-1.5,9.3-2.7,14.7-3.5
		c3.4-0.4,7.1-0.6,10.8-0.6c9.6,0,20.5,1.6,32.3,5.9c21.6,8.1,33.6,21.8,39.7,35c5.1,10.5,6.6,20.8,7,27.3l0,0h15.1l0,0
		c0-0.3,0-0.6,0-1C300.2,485.8,299.5,475.6,294.9,463.6z"/>
	<path fill-rule="evenodd" clip-rule="evenodd" fill="#B02224" d="M278.7,492.5L278.7,492.5c-0.4-6-1.8-15.2-6.4-24.6
		c-5.7-11.8-16.1-24.2-36-31.5c-11.2-4.1-21.2-5.7-30.1-5.7c-3.7,0-7.5,0.2-10.8,0.8c-9.4,1.4-17.1,4.3-22.8,7.3
		c-6.3,3.1-10.2,6.3-11.6,7.6c0.4,2.4,0.9,4.7,1.3,6.9c0.2,1,0.4,2,0.6,2.9c5.9-2.4,17.9-6.7,32-6.7c0.2,0,0.4,0,0.4,0
		c10.4,0,22,2.6,32.9,9.8c9.8,6.6,18.9,17,25.8,33l0,0H278.7z"/>
	<path fill-rule="evenodd" clip-rule="evenodd" fill="#B02224" d="M306.7,492.5h19.4l0,0c0-0.1,0.1-0.2,0.1-0.4
		c0.8-4.5,1.8-11,1.8-18.7c0-18.9-5.5-45.6-30.7-71l0.1-0.1c-25.1-22.8-49.7-29.8-71.5-29.8c-19.3,0-36.4,5.7-48.8,11.8
		c-8.2,4.1-17.3,9.2-20.6,11.8c0,7.3,0.3,14.3,0.8,20.9c3.1-2,7.4-4.6,12.6-7.1c6.9-3.5,15.7-7.1,25.6-9.2c5.9-1.2,12.4-2,19.1-2
		c17.3,0,37,5.3,56.4,20.7h0.2c15.9,14,25,28.9,29.9,41.9c4.9,12.8,5.7,24,5.7,30.3C306.7,491.9,306.7,492.2,306.7,492.5
		L306.7,492.5z"/>
	<path fill-rule="evenodd" clip-rule="evenodd" fill="#B02224" d="M221.2,492.5L221.2,492.5l25.7,0l0,0
		c-6.4-13.5-14.2-22.2-22.4-27.7c-9.5-6.3-19.7-8.5-29.1-8.7c0,0-0.2,0-0.4,0c-13.7,0-25.7,4.7-30.4,6.7c0.8,3,1.6,5.8,2.4,8.5
		c1.3,0,4.1-0.4,7.7-0.4c5.5,0,13,0.6,20.6,2.7c1.8,0.4,3.5,1,5.1,1.8C208.4,478.5,216,483.9,221.2,492.5z"/>
	<path fill-rule="evenodd" clip-rule="evenodd" fill="#B02224" d="M198.2,481.3c-1-0.2-1.8-0.6-2.8-1c-7.5-2.4-15.1-2.9-20.6-2.9
		c-2.4,0-4.3,0-5.6,0.2c2.2,6.2,4.4,11.2,6.2,15h37.9l0,0C209.2,487.2,203.9,483.7,198.2,481.3z"/>
</g>
<g>
</g>
<g>
</g>
<g>
</g>
<g>
</g>
<g>
</g>
<g>
</g>
<g>
</g>
<g>
</g>
<g>
</g>
<g>
</g>
<g>
</g>
</svg>
