<svg version="1.1" xmlns="http://www.w3.org/2000/svg" xmlns:xlink="http://www.w3.org/1999/xlink" x="0px" y="0px"
	 viewBox="0 0 800 800" enable-background="new 0 0 800 800" xml:space="preserve">
<g>
	<g>
		<g>
			<g>
				<g>
					<path fill="#9B3B22" d="M644.2,213.8l-34.7-52.2c0,0-75.2,14-117-36L489,96.8c0,0-31.2,47.3-89,47.3s-89-47.3-89-47.3
						l-3.6,28.8c-41.9,50-117,36-117,36l-34.7,52.2c53.1,97.2,25.7,198.5,13.5,236.7C157.1,488.8,157.1,552.3,194,595
						c36.9,42.8,74.7,55.8,123.3,66.6c48.6,10.8,56.3,31.5,56.3,31.5l26.4,20.3l26.4-20.3c0,0,7.7-20.7,56.3-31.5
						c48.6-10.8,86.4-23.9,123.3-66.6c36.9-42.8,36.9-106.2,24.8-144.5C618.6,412.3,591.1,311,644.2,213.8z"/>
					<linearGradient id="SVGID_1_" gradientUnits="userSpaceOnUse" x1="176.2141" y1="394.2093" x2="623.8659" y2="395.0745">
						<stop  offset="5.000000e-02" style="stop-color:#F5A519"/>
						<stop  offset="0.25" style="stop-color:#F8DDA1"/>
						<stop  offset="0.5" style="stop-color:#EFBD3E"/>
						<stop  offset="0.7567" style="stop-color:#F8DDA1"/>
						<stop  offset="0.95" style="stop-color:#F5A519"/>
					</linearGradient>
					<path fill="url(#SVGID_1_)" d="M644.2,204.8l-31.1-47.7c0,0-82.4,6.7-113-32c0,0-5.2-21.1-8.9-38.6
						c-24.3,24.7-45.9,51.7-91.3,52c-45.4-0.3-67-27.3-91.3-52c-3.7,17.5-8.9,38.6-8.9,38.6c-30.6,38.6-113,32-113,32l-31.1,47.7
						c38.7,60.8,41.4,173.7,5.9,255.2C154.9,623.8,286.7,645.9,308,651c21.3,5.1,31.1,7.4,49.3,17.6c18.2,10.1,21.6,25,21.6,25
						l21.1,9.5l21.1-9.5c0,0,3.4-14.9,21.6-25c18.2-10.1,28-12.5,49.3-17.6c21.3-5.1,153.1-27.1,146.4-190.9
						C602.8,378.5,605.5,265.6,644.2,204.8z"/>
					<g>
						
							<radialGradient id="SVGID_2_" cx="400" cy="643.1311" r="538.2216" gradientTransform="matrix(1.028679e-13 -1 0.6204 6.381743e-14 1.0127 1043.1311)" gradientUnits="userSpaceOnUse">
							<stop  offset="0" style="stop-color:#DD2627"/>
							<stop  offset="0.4368" style="stop-color:#951F1F"/>
							<stop  offset="0.8175" style="stop-color:#5C1919"/>
							<stop  offset="1" style="stop-color:#461717"/>
						</radialGradient>
						<path fill="url(#SVGID_2_)" d="M616.2,464.9c-17.3-41.5-29-94.1-27.9-143.6c1.1-45.5,10.1-88.6,26.5-120.3
							c0,0-15-21.2-15.7-21.2c-108-2-122.8-49.4-122.8-49.4c-19.1,16.5-38.5,28.9-76.4,30.8c-37.8-2-57.3-14.3-76.4-30.8
							c0,0-14.8,47.4-122.8,49.4c-0.8,0-15.7,21.2-15.7,21.2c16.4,31.6,25.5,74.8,26.5,120.3c1.1,49.5-10.5,102.1-27.9,143.6
							c-1.5,57.1,14.6,101.5,50.3,129.3c23.1,18,57,24.3,79.1,28.2c23.7,4.1,40.9,10.4,57.3,21.9c26.6,18.8,29.3,37.6,29.6,42.8
							c0.2-5.3,3-24.1,29.6-42.8c16.3-11.5,33.6-17.8,57.3-21.9c22.1-3.8,56-10.1,79.1-28.2C601.6,566.5,617.7,522,616.2,464.9z"/>
					</g>
				</g>
				<g>
					<path fill="#C65C1E" d="M361.1,638.4c-4.6-2.6-9.3-4.9-14.3-6.9L184.9,462.3c5.1-12.5,9.7-26,13.6-40.1L361.1,638.4z"/>
					<path fill="#C65C1E" d="M391.4,664.7c-1.3-1.9-2.9-3.9-4.6-5.9l0,0l-176-355.3v0c-2.7-38.8-11.5-75-25.7-102.4
						c0,0,15-21.2,15.7-21.2c1.8,0,3.6-0.1,5.3-0.1L391.4,664.7z"/>
					<path fill="#C65C1E" d="M398,676.5L271.7,169.5c25.1-8.2,38.4-19.6,45.3-28L398,676.5z"/>
					<path fill="#C65C1E" d="M416,159.7l-16.5,520.6L370.7,157c8.5,2.3,18.1,3.7,29.3,4.3C405.7,161,411,160.5,416,159.7z"/>
					<path fill="#C65C1E" d="M521.2,166.9L400.7,678.7l83.7-535.7C490.8,150.4,502.1,159.6,521.2,166.9z"/>
					<path fill="#C65C1E" d="M610.1,194.3L404,672.4l170-494c7.8,0.8,16.1,1.2,25.2,1.4C599.6,179.9,605.6,188.1,610.1,194.3z"/>
					<path fill="#C65C1E" d="M602.9,427L432.7,642.2h0c-1.1,0.7-2.1,1.4-3.2,2.2c-2,1.4-3.9,2.8-5.6,4.2l168.9-266.3
						C595.3,397.6,598.7,412.6,602.9,427z"/>
				</g>
			</g>
			<path fill="#FDC306" d="M397.5,657.3c-1.9-5.7-3.5-10-5.4-13.9l3.6-1.8c2.1,4.2,3.7,8.6,5.7,14.4L397.5,657.3z M404,653.2
				l-3.8-1.4c2-5.5,3.8-10,6.4-14.2l3.4,2.2C407.6,643.6,405.8,647.9,404,653.2z M388,636.8c-2-2.6-4.4-5-7.4-7.4
				c-1.1-0.9-2.2-1.7-3.3-2.5l2.4-3.3c1.2,0.9,2.3,1.7,3.4,2.6c3.2,2.5,5.9,5.2,8.1,8.1L388,636.8z M414.7,633.7l-2.9-2.8
				c1.5-1.6,3.2-3.1,5.1-4.6c2.3-1.8,4.7-3.6,7-5.2l2.3,3.4c-2.3,1.5-4.6,3.2-6.8,5C417.7,630.8,416.1,632.2,414.7,633.7z
				 M370.7,622.4c-4.2-2.7-8.5-5-13.1-7.1l1.7-3.7c4.8,2.2,9.2,4.6,13.6,7.4L370.7,622.4z M433,620.2l-2-3.5c4.4-2.6,9-4.8,13.9-6.8
				l1.6,3.8C441.7,615.6,437.3,617.7,433,620.2z M350.1,612.2c-4.5-1.7-9.2-3.2-14.3-4.6l1.1-3.9c5.3,1.4,10.1,3,14.7,4.7
				L350.1,612.2z M453.9,610.8l-1.3-3.8c4.6-1.6,9.5-3,14.8-4.3l1,3.9C463.1,607.8,458.4,609.2,453.9,610.8z M328.1,605.7
				c-3.6-0.8-7.5-1.6-11.6-2.3c-1-0.2-2.1-0.4-3.3-0.6l0.7-4c1.1,0.2,2.2,0.4,3.3,0.6c4.1,0.7,8.1,1.5,11.8,2.3L328.1,605.7z
				 M476.2,604.8l-0.8-4c2.4-0.5,4.9-1,7.5-1.4c2.3-0.4,4.8-0.8,7.5-1.3l0.7,4c-2.7,0.5-5.3,0.9-7.6,1.3
				C481,603.9,478.5,604.3,476.2,604.8z M305.2,601.4c-5.5-1.1-10.4-2.1-15-3.3l1-3.9c4.6,1.1,9.4,2.2,14.8,3.2L305.2,601.4z
				 M499.1,600.5l-0.8-4c5.3-1.1,10.1-2.2,14.7-3.5l1.1,3.9C509.4,598.3,504.5,599.4,499.1,600.5z M282.3,596
				c-5.2-1.5-10.2-3.2-14.6-5l1.5-3.8c4.3,1.7,9.1,3.4,14.2,4.8L282.3,596z M521.9,594.7l-1.2-3.9c5.1-1.6,9.8-3.4,14.1-5.2l1.6,3.7
				C532,591.2,527.2,593.1,521.9,594.7z M260.1,587.7c-5.1-2.5-9.6-5.2-13.4-8l2.4-3.2c3.6,2.7,7.9,5.3,12.7,7.6L260.1,587.7z
				 M543.9,585.7l-1.9-3.6c3.6-1.9,6.8-4,9.6-6.2c0.9-0.7,1.7-1.4,2.6-2.1l2.6,3.1c-0.9,0.7-1.8,1.5-2.7,2.2
				C551.1,581.4,547.6,583.6,543.9,585.7z M240.4,574.3c-3.7-3.5-7.2-7.4-10.4-11.6l3.3-2.4c3,4,6.3,7.7,9.9,11.1L240.4,574.3z
				 M562.8,571.2l-2.9-2.8c3.4-3.5,6.5-7.4,9.3-11.6l3.4,2.3C569.6,563.4,566.4,567.5,562.8,571.2z M225.4,555.8
				c-2.6-4.3-5-8.9-7.1-13.8l3.7-1.6c2,4.7,4.3,9.2,6.8,13.3L225.4,555.8z M576.9,552l-3.6-2c2.3-4.2,4.4-8.8,6.3-13.6l3.8,1.4
				C581.5,542.9,579.3,547.6,576.9,552z M215.3,534.3c-1.6-4.7-3.1-9.7-4.3-14.8l4-0.9c1.2,5,2.6,9.9,4.1,14.4L215.3,534.3z
				 M586.1,530.1l-3.9-1.2c1.4-4.6,2.7-9.5,3.7-14.5l4,0.8C588.8,520.4,587.5,525.4,586.1,530.1z M209.4,511.4
				c-0.9-4.8-1.6-10-2.1-15.2l4-0.4c0.5,5.2,1.2,10.2,2.1,14.9L209.4,511.4z M591.3,507.1l-4-0.6c0.7-4.8,1.3-9.8,1.8-15l4,0.3
				C592.7,497.1,592.1,502.2,591.3,507.1z M206.6,488c-0.3-4.9-0.5-10.1-0.6-15.3l4.1,0c0,5.2,0.2,10.3,0.6,15.1L206.6,488z
				 M593.7,483.6l-4.1-0.2c0.2-4.4,0.3-8.9,0.3-13.5l0-1.6l4.1,0l0,1.6C594,474.6,593.9,479.2,593.7,483.6z M210.5,465.1l-3.9-1.1
				c1.3-4.8,2.6-9.7,4-14.7l3.9,1C213.1,455.4,211.8,460.3,210.5,465.1z M588.4,460.9c-1.5-5.6-2.8-10.3-3.9-14.7l3.9-1
				c1.2,4.4,2.4,9.1,3.9,14.7L588.4,460.9z M216.5,442.6l-3.9-1c1.3-5.2,2.6-10.1,3.7-14.7l3.9,0.9
				C219.1,432.5,217.9,437.3,216.5,442.6z M582.4,438.3c-1.3-5.2-2.5-10.1-3.6-14.8l4-0.9c1.1,4.7,2.3,9.5,3.6,14.8L582.4,438.3z
				 M222.1,419.8l-4-0.9c1.2-5.1,2.2-10.1,3.2-14.8l4,0.8C224.3,409.7,223.2,414.7,222.1,419.8z M577,415.6
				c-1.1-5.1-2.2-10.1-3.1-15l4-0.8c0.9,4.8,2,9.8,3.1,14.9L577,415.6z M226.9,396.9l-4-0.7c1-5.1,1.8-10.1,2.5-14.9l4,0.6
				C228.7,386.7,227.8,391.7,226.9,396.9z M572.4,392.6c-0.9-5.1-1.7-10.2-2.4-15.1l4-0.6c0.7,4.8,1.5,9.9,2.4,15L572.4,392.6z
				 M230.6,373.7l-4-0.5c0.7-5.1,1.2-10.2,1.7-15l4,0.4C231.8,363.4,231.3,368.6,230.6,373.7z M568.9,369.4
				c-0.6-5.2-1.1-10.3-1.5-15.2l4-0.3c0.4,4.9,0.9,9.9,1.5,15.1L568.9,369.4z M232.9,350.4l-4.1-0.3c0.3-5.1,0.5-10.2,0.6-15.1
				l4.1,0C233.4,340,233.2,345.2,232.9,350.4z M566.9,346c-0.2-4.6-0.3-9.2-0.3-13.6c0-0.6,0-1.2,0-1.8l4.1,0c0,0.6,0,1.2,0,1.8
				c0,4.3,0.1,8.8,0.3,13.4L566.9,346z M229.4,326.9l0-0.3c-0.1-5-0.3-10-0.7-14.8l4.1-0.3c0.3,4.8,0.6,9.9,0.7,15l0,0.3
				L229.4,326.9z M570.7,326.6l-4.1-0.1c0.1-5.2,0.4-10.3,0.7-15.3l4.1,0.3C571,316.4,570.8,321.5,570.7,326.6z M228,303.8
				c-0.5-5.1-1.1-10.1-1.8-15l4-0.6c0.7,5,1.4,10.1,1.9,15.2L228,303.8z M572,303.5l-4-0.4c0.5-5.1,1.1-10.3,1.9-15.2l4,0.6
				C573.1,293.4,572.5,298.4,572,303.5z M224.9,280.8c-0.9-4.9-2-9.9-3.2-14.8l3.9-1c1.2,4.9,2.3,10,3.2,15L224.9,280.8z
				 M575.2,280.5l-4-0.7c0.9-5,2-10.1,3.2-15l3.9,1C577.2,270.6,576.1,275.6,575.2,280.5z M219.7,258.3c-1.3-4.8-2.8-9.6-4.5-14.4
				l3.8-1.3c1.7,4.9,3.2,9.8,4.6,14.6L219.7,258.3z M580.4,258l-3.9-1.1c1.4-4.8,2.9-9.7,4.6-14.6l3.8,1.3
				C583.3,248.4,581.8,253.2,580.4,258z M212.4,236.3c-1.7-4.6-3.5-9.2-5.6-14.1l3.7-1.6c2.1,4.9,4,9.6,5.7,14.2L212.4,236.3z
				 M587.7,236l-3.8-1.4c1.7-4.6,3.6-9.3,5.7-14.2l3.7,1.6C591.2,226.8,589.4,231.4,587.7,236z M211.8,215.6l-3.4-2.3l8.6-12.6
				l3.4,2.3L211.8,215.6z M588,215.3l-8.6-12.6l3.4-2.3l8.6,12.6L588,215.3z M224.6,199.5l0-4.1c5.2,0,10.3-0.2,15.1-0.5l0.3,4.1
				C235,199.2,229.8,199.4,224.6,199.5z M575.1,199.5c-5.3-0.1-10.4-0.2-15.3-0.6l0.3-4.1c4.8,0.3,9.9,0.5,15.1,0.6L575.1,199.5z
				 M248.1,198.3l-0.4-4c5.2-0.5,10.2-1.2,14.9-2l0.7,4C258.4,197,253.3,197.7,248.1,198.3z M551.6,198.2
				c-5.3-0.5-10.4-1.2-15.2-2.1l0.7-4c4.7,0.8,9.7,1.5,14.9,2.1L551.6,198.2z M271.3,194.5l-0.9-4c5.1-1.2,9.9-2.5,14.4-4.1l1.3,3.8
				C281.5,191.9,276.5,193.4,271.3,194.5z M528.3,194.5c-5.2-1.2-10.2-2.6-14.8-4.3l1.3-3.8c4.5,1.6,9.3,3,14.4,4.1L528.3,194.5z
				 M293.9,187.3l-1.6-3.7c4.7-2,9.1-4.3,13.2-6.9l2.2,3.4C303.4,182.8,298.8,185.2,293.9,187.3z M505.8,187.2
				c-4.9-2.1-9.5-4.6-13.7-7.2l2.2-3.4c4,2.6,8.5,4.9,13.2,6.9L505.8,187.2z M400,183.5l-0.1,0c-2.7-0.1-5.3-0.4-7.9-0.7l0.5-4
				c2.5,0.3,5,0.5,7.5,0.6c2.4-0.1,4.8-0.3,7.2-0.6l0.5,4c-2.5,0.3-5,0.5-7.5,0.6L400,183.5z M415.8,181.6l-0.8-4
				c4.9-0.9,9.7-2.2,14.4-3.8l1.3,3.8C425.9,179.3,420.9,180.7,415.8,181.6z M383.9,181.6c-5.1-1-10.1-2.3-15-4l1.3-3.8
				c4.7,1.6,9.5,2.9,14.4,3.9L383.9,181.6z M314.4,175.4l-2.5-3.2c3.9-3.1,7.4-6.4,10.8-10.2l3.1,2.7
				C322.2,168.6,318.5,172.2,314.4,175.4z M485.3,175.2c-4.1-3.2-7.8-6.7-11.3-10.8l3.1-2.7c3.3,3.8,6.8,7.2,10.7,10.2L485.3,175.2z
				 M438.5,174.7l-1.6-3.7c4.4-1.9,8.8-4,13.4-6.7l2,3.5C447.6,170.5,443,172.8,438.5,174.7z M361.2,174.6c-4.5-1.9-9-4.2-13.8-6.9
				l2-3.5c4.7,2.6,9,4.8,13.4,6.7L361.2,174.6z M459.4,163.6l-2.1-3.4c3.6-2.3,7-4.5,10.8-7l1.6-1.1l1.1,1.6
				c0.4,0.6,0.9,1.2,1.3,1.8l-3.3,2.4c-0.1-0.1-0.1-0.2-0.2-0.3C465.6,159.7,462.5,161.7,459.4,163.6z M340.3,163.4
				c-3-1.9-6-3.8-9-5.8c-0.1,0.2-0.3,0.4-0.4,0.6l-3.3-2.4c0.5-0.7,1-1.4,1.5-2.1l1.1-1.6l1.6,1.1c3.7,2.4,7,4.6,10.5,6.8
				L340.3,163.4z"/>
		</g>
		<g>
			<g>
				<linearGradient id="SVGID_3_" gradientUnits="userSpaceOnUse" x1="50" y1="516.1062" x2="200.3228" y2="516.1062">
					<stop  offset="0.3926" style="stop-color:#E4A22A"/>
					<stop  offset="0.9586" style="stop-color:#D0641C"/>
				</linearGradient>
				<path fill="url(#SVGID_3_)" d="M200.3,468.8c0,0-8.8-12.7-51-3.4c-42.2,9.3-82.2,19.6-99.4,0c0,0,22.5,52.2,56.7,56.7
					c0,0-21.2,43.7-46.1,42.3c0,0,89.1,36.5,138.6-73.4L200.3,468.8z"/>
				<path fill="#813B21" d="M156.7,472.2c0,0,14.4-12.6,43.7-3.4l-1.1,35.6l-41-7L156.7,472.2z"/>
			</g>
			<g>
				
					<linearGradient id="SVGID_4_" gradientUnits="userSpaceOnUse" x1="50" y1="516.1062" x2="200.3228" y2="516.1062" gradientTransform="matrix(-1 0 0 1 800 0)">
					<stop  offset="0.3926" style="stop-color:#E4A22A"/>
					<stop  offset="0.9586" style="stop-color:#D0641C"/>
				</linearGradient>
				<path fill="url(#SVGID_4_)" d="M599.7,468.8c0,0,8.8-12.7,51-3.4c42.2,9.3,82.2,19.6,99.4,0c0,0-22.5,52.2-56.7,56.7
					c0,0,21.2,43.7,46.1,42.3c0,0-89.1,36.5-138.6-73.4L599.7,468.8z"/>
				<path fill="#813B21" d="M643.3,472.2c0,0-14.4-12.6-43.7-3.4l1.1,35.6l41-7L643.3,472.2z"/>
			</g>
			<linearGradient id="SVGID_5_" gradientUnits="userSpaceOnUse" x1="147.2148" y1="550.4759" x2="652.7852" y2="550.4759">
				<stop  offset="0" style="stop-color:#BF7419"/>
				<stop  offset="0.25" style="stop-color:#EFB636"/>
				<stop  offset="0.5" style="stop-color:#EE7619"/>
				<stop  offset="0.75" style="stop-color:#EFB837"/>
				<stop  offset="1" style="stop-color:#BD7610"/>
			</linearGradient>
			<path fill="url(#SVGID_5_)" d="M643.3,472.2c-29.3,29.3-190.8,42.3-243.3,42.3s-214.1-13.1-243.3-42.3c-9.5,95-9.5,95-9.5,95
				c16.2,32,174.2,61.7,252.8,61.7s236.6-29.7,252.8-61.7C652.8,567.1,652.8,567.1,643.3,472.2z"/>
		</g>
		<path d="M315.4,345.8c0,0-32.6,58.8-5.1,104.6c30.4,50.6,62.4,58.1,62.4,58.1s-55.4-8.4-74.6-56.4
			C279.9,406.6,294.1,371.5,315.4,345.8z M314.7,370.8c-3.7,44.6,2.7,99.2,88.8,121.5s112.4-53,112.4-53
			c-41.9,62.4-135.7,56-171.5-12.8S366,298.9,366,298.9C351.1,305,318.4,326.2,314.7,370.8z M497,384.4c0,0,19.4,32,0.5,50.4
			c-18.9,18.5-62.6,23.9-104.4,6.3c-41.9-17.6-41.4-91.8-41.4-91.8s-14,62.1,18.9,91.4s59,36,104.4,22.1S523.5,410.5,497,384.4z
			 M463.2,423.6c-40.5,21.2-100.8-54.9-100.8-54.9c19.8,60.3,95.9,87.3,121.5,62.6c25.7-24.8,1.8-45,1.8-45
			C489.3,398.4,482.6,412.8,463.2,423.6z M262,380.8c0,0,8.6-110.3,125.1-147.2c0,0-2-7.9-22.1,2.3c-20,10.1-38.3,10.8-50.4,15.5
			c-12.2,4.7-21.4,9.9-25.7,14c0,0,16.2-9.7,26.8-6.8c0,0-43.2,17.6-51.8,45c0,0,21.2-21.6,32.2-25
			C296.2,278.6,251.9,329.3,262,380.8z M282.3,433.9c0,0-26-121.9,111.4-168.4c0,0-0.7,14.1,11.9,6.9c12.6-7.2,33.3-17.6,49.3-14.9
			s6.1,11.5,2.3,15.5c0,0,12.2-4.6,17.7-7.9s9-8.5,12-5.7c3,2.8-0.7,7.6-0.7,7.6s13.7-3.8,13.3-17.7l-7.3-4.3c0,0-14.9,4.5-26.7,3.5
			c0,0,6.8-2.6,11-3.5s4.8-2,7.3-2.9c2.6-0.9,6.8-0.9,6.8-0.9s-4.2-2.8-8.4-2.3c-4.3,0.6-9.3,5.2-9.3,5.2l-30.8-0.8
			c0,0,10.6-5,40.4-7.6c0,0,6.2-4.4,11.9-4.3l0.3,2.7c0,0,3.4-3.4,9.5-6.4s4.1-12,1.7-14.5c-2.4-2.5-8.9-6.2-13.8-3.4
			c-4.9,2.9-7.1,3.9-12.7,4.9c-5.6,1-11.5,2.5-16,0.3s-17.7-12.5-20.8-13c-3-0.5-4.6-1.7-14-1.4c-9.5,0.3-15-1.4-17.7-2.5
			c0,0-0.1,4.8,9.2,4.7c9.3-0.1,15-0.1,19.5,1c4.5,1.1,6.3,2.5,12.6,7.4c6.2,4.9,13.2,7.1,15,7c1.8-0.1,18.9-2.8,18.9-2.8s2,4,0.3,4
			c-1.7,0-7.8-0.3-10.4,0.8s-5.2,4.1-5.2,4.1s-12.6-1.2-14.6-2.1c0,0-2,9.5-15.5,7.1c0,0-5.3,6-12,3.9c-6.8-2-6.1-6.3-5.2-9.1
			c0.9-2.8,4.1-4.3,6.1-3.9c2,0.3,2.9,1.4,2.7,4.2l-5.6-0.1c0,0,0.5,5.2,4.7,5.3c4.3,0.1,9-3.7,9.5-7.4c0,0,10.8,4.3,9.2-4.3
			s-16.5-12.9-30.9-12.5c-14.4,0.5-24.5,4.7-28.5,6.5c-2.3,1-5.4,2.6-7.6,3.7c-1.7,0.9-3.5,1.5-5.4,2c-3.5,0.8-9.8,2.5-13.8,5.4
			c-4.2,3.2-15.3,1.2-20.7,0c-1.5-0.3-2.8,1.1-2.4,2.6c0.4,1.3,0.9,2.8,1.5,3.8c1.5,2.3-2.3,3.2-9.2,4.1c-7,0.9-13.8,0.2-18.6-1.9
			c-4.7-2.1-11.4,0.9-3.7,6.4s23.5,5.9,31.4,2.4c7.9-3.5,10.8-5,17.3-7c6.5-2,31.5-11.4,40.6-1c0,0-37.1,14.5-58.2,28.1
			C320.7,274.1,245.2,334.7,282.3,433.9z"/>
		<linearGradient id="SVGID_6_" gradientUnits="userSpaceOnUse" x1="256.8777" y1="353.4023" x2="512.22" y2="353.4023">
			<stop  offset="4.811010e-02" style="stop-color:#F1A61B"/>
			<stop  offset="0.1694" style="stop-color:#FAE1B1"/>
			<stop  offset="0.5565" style="stop-color:#EFBD41"/>
			<stop  offset="0.7835" style="stop-color:#FAE4B4"/>
			<stop  offset="0.9803" style="stop-color:#F4A416"/>
		</linearGradient>
		<path fill="url(#SVGID_6_)" d="M311.7,345.8c0,0-32.6,58.8-5.1,104.6c30.4,50.6,62.4,58.1,62.4,58.1s-55.4-8.4-74.6-56.4
			C276.2,406.6,290.4,371.5,311.7,345.8z M311,370.8c-3.7,44.6,2.7,99.2,88.8,121.5s112.4-53,112.4-53
			c-41.9,62.4-135.7,56-171.5-12.8s21.6-127.6,21.6-127.6C347.5,305,314.8,326.2,311,370.8z M493.3,384.4c0,0,19.4,32,0.5,50.4
			s-62.6,23.9-104.4,6.3c-41.9-17.6-41.4-91.8-41.4-91.8s-14,62.1,18.9,91.4s59,36,104.4,22.1S519.9,410.5,493.3,384.4z
			 M459.6,423.6c-40.5,21.2-100.8-54.9-100.8-54.9c19.8,60.3,95.9,87.3,121.5,62.6c25.7-24.8,1.8-45,1.8-45
			C485.7,398.4,478.9,412.8,459.6,423.6z M258.4,380.8c0,0,8.6-110.3,125.1-147.2c0,0-2-7.9-22.1,2.3c-20,10.1-38.3,10.8-50.4,15.5
			c-12.2,4.7-21.4,9.9-25.7,14c0,0,16.2-9.7,26.8-6.8c0,0-43.2,17.6-51.8,45c0,0,21.2-21.6,32.2-25
			C292.6,278.6,248.3,329.3,258.4,380.8z M278.6,433.9c0,0-26-121.9,111.4-168.4c0,0-0.7,14.1,11.9,6.9
			c12.6-7.2,33.3-17.6,49.3-14.9s6.1,11.5,2.3,15.5c0,0,12.2-4.6,17.7-7.9s9-8.5,12-5.7c3,2.8-0.7,7.6-0.7,7.6s13.7-3.8,13.3-17.7
			l-7.3-4.3c0,0-14.9,4.5-26.7,3.5c0,0,6.8-2.6,11-3.5s4.8-2,7.3-2.9c2.6-0.9,6.8-0.9,6.8-0.9s-4.2-2.8-8.4-2.3
			c-4.3,0.6-9.3,5.2-9.3,5.2l-30.8-0.8c0,0,10.6-5,40.4-7.6c0,0,6.2-4.4,11.9-4.3l0.3,2.7c0,0,3.4-3.4,9.5-6.4s4.1-12,1.7-14.5
			c-2.4-2.5-8.9-6.2-13.8-3.4c-4.9,2.9-7.1,3.9-12.7,4.9c-5.6,1-11.5,2.5-16,0.3s-17.7-12.5-20.8-13c-3-0.5-4.6-1.7-14-1.4
			c-9.5,0.3-15-1.4-17.7-2.5c0,0-0.1,4.8,9.2,4.7c9.3-0.1,15-0.1,19.5,1c4.5,1.1,6.3,2.5,12.6,7.4c6.2,4.9,13.2,7.1,15,7
			c1.8-0.1,18.9-2.8,18.9-2.8s2,4,0.3,4c-1.7,0-7.8-0.3-10.4,0.8s-5.2,4.1-5.2,4.1s-12.6-1.2-14.6-2.1c0,0-2,9.5-15.5,7.1
			c0,0-5.3,6-12,3.9c-6.8-2-6.1-6.3-5.2-9.1c0.9-2.8,4.1-4.3,6.1-3.9c2,0.3,2.9,1.4,2.7,4.2l-5.6-0.1c0,0,0.5,5.2,4.7,5.3
			c4.3,0.1,9-3.7,9.5-7.4c0,0,10.8,4.3,9.2-4.3c-1.6-8.6-16.5-12.9-30.9-12.5s-24.5,4.7-28.5,6.5c-2.3,1-5.4,2.6-7.6,3.7
			c-1.7,0.9-3.5,1.5-5.4,2c-3.5,0.8-9.8,2.5-13.8,5.4c-4.2,3.2-15.3,1.2-20.7,0c-1.5-0.3-2.8,1.1-2.4,2.6c0.4,1.3,0.9,2.8,1.5,3.8
			c1.5,2.3-2.3,3.2-9.2,4.1c-7,0.9-13.8,0.2-18.6-1.9c-4.7-2.1-11.4,0.9-3.7,6.4s23.5,5.9,31.4,2.4c7.9-3.5,10.8-5,17.3-7
			c6.5-2,31.5-11.4,40.6-1c0,0-37.1,14.5-58.2,28.1C317,274.1,241.5,334.7,278.6,433.9z"/>
		<g>
			<circle fill="#FFFFFF" cx="424.1" cy="368" r="69"/>
			<linearGradient id="SVGID_7_" gradientUnits="userSpaceOnUse" x1="353.0847" y1="367.9518" x2="495.194" y2="367.9518">
				<stop  offset="0.1995" style="stop-color:#F0B936"/>
				<stop  offset="1" style="stop-color:#852720"/>
			</linearGradient>
			<path fill="url(#SVGID_7_)" d="M424.1,296.9c-39.2,0-71.1,31.8-71.1,71.1c0,39.2,31.8,71.1,71.1,71.1c39.2,0,71.1-31.8,71.1-71.1
				C495.2,328.7,463.4,296.9,424.1,296.9z M491.5,383.1l-4.2-1.9c0-2.9-0.1-18-2.7-27.8c1.4-2.1,3-5.1,4.4-9.2
				c2.7,7.4,4.2,15.4,4.2,23.8C493.2,373.2,492.6,378.3,491.5,383.1z M488,341.9c-1.5,5.2-3.4,8.7-5,10.9c-2.9,0.2-10.3,0.5-15-0.3
				c-6.9-12.1-16.5-20.4-23-25c0.6-2.3,3.2-11.9,6.5-14c4.8-0.6,10.8-1.1,14.2-0.5C475.6,320.3,483.3,330.3,488,341.9z M425.4,299
				c14,0.3,27.1,4.7,37.9,12.2c-4-0.2-9.2,0.4-13.2,0.9c-3.8-1.8-12.6-5.6-24.7-7.1V299z M443,327.8c6.3,4.4,16.6,12.8,23.7,25.4
				c-0.7,3.6-3.4,15.7-9,24.4c-10.4,4-23.1,5.1-31.4,5.4c-7.9-6.1-14.2-16.7-16.2-20.1l8.9-31.6C422.1,330.8,436.5,328,443,327.8z
				 M408.9,362.1c-9.2,2.2-20.9,8.4-22.7,9.4c-7.8-6.8-13.2-13-16.4-17c-0.2-5.9,4.2-17.1,5.6-20.5c5.7-4.1,17.1-11.6,27.2-13.4
				l15.1,10.5L408.9,362.1z M369.5,356.5c3.4,4.2,8.8,10.1,16.2,16.5c-1.2,7.8,1.1,22.7,1.8,27.2l-9.4,8.7c-5-2-14.2-10.6-17.5-13.7
				c-3-6.9-4.8-14.3-5.4-22.1C358.5,367.5,367.4,358.2,369.5,356.5z M379.1,410.1l9-8.4c8,3.8,22.5,6.5,26,7.1
				c3.1,5.1,8.1,12.1,15,17.2c-0.2,6.5-8.3,9.6-11.7,10.7c-10.5-1-20.2-4.3-28.8-9.5C384.7,422.3,380.1,412.8,379.1,410.1z
				 M430.8,425.3c-7-5.1-12.3-12.3-15.4-17.5c2.1-5,9.3-19.3,11.2-23.1c8.3-0.3,20.7-1.4,31.2-5.4c2.6,2,11.1,9.1,12.7,18
				c-1.9,6.2-5.8,15.3-13.5,23.5C447.1,424.3,435.2,425.1,430.8,425.3z M423.9,298.9v6.1c-2.8,1.4-15.6,7.9-21.4,13.9
				c-10.3,1.8-21.7,9.2-27.6,13.4c-3-2-3.8-6.2-4-8.4C383.6,308.7,402.6,299,423.9,298.9z M461.8,425.8c-2-0.7-2.9-2.9-3.3-4.3
				c8.3-9,12.2-18.9,14-25.2c3-1.9,9-6.4,14.2-13.8l4.5,2.1C486.9,401.8,476.2,416.4,461.8,425.8z"/>
		</g>
	</g>
	<g>
		<linearGradient id="SVGID_8_" gradientUnits="userSpaceOnUse" x1="189.8531" y1="562.2593" x2="609.5442" y2="562.2593">
			<stop  offset="0" style="stop-color:#2B0806"/>
			<stop  offset="0.1389" style="stop-color:#D32323"/>
			<stop  offset="0.2666" style="stop-color:#1E0604"/>
			<stop  offset="0.4917" style="stop-color:#C72324"/>
			<stop  offset="0.7964" style="stop-color:#2B0707"/>
			<stop  offset="0.9057" style="stop-color:#941A19"/>
			<stop  offset="1" style="stop-color:#2E0807"/>
		</linearGradient>
		<path fill="url(#SVGID_8_)" d="M406.7,604.4c-0.9,0-1.5-0.7-1.8-0.9c-1.1-1.3-2-2.4-2.7-3.5c-0.7-1-1.2-1.8-1.5-2.3
			c-0.7-1.2-1.2-2.2-1.8-3.1c-0.2-0.3-0.4-0.6-0.6-0.9c-0.1,0.1-0.2,0.2-0.2,0.3c-0.5,0.6-1.1,1.3-1.8,1.9c-0.5,0.4-1.2,0.9-2.1,0.9
			c-0.2,0-0.5,0-0.7-0.1c-0.8-0.3-1.3-1.1-1.9-2.9c-0.3-0.8-0.5-1.4-0.6-1.9c-0.2-0.6-0.3-1.2-0.3-1.7c0-0.5,0.1-1.1,0.3-1.6
			c0.2-0.4,0.4-1,0.7-1.5c0.9-1.6,1.6-3,2.1-3.9c0.5-0.9,0.8-1.6,1-2.1c-0.2-0.1-0.5-0.3-0.7-0.4c-0.3-0.2-0.6-0.4-0.9-0.6
			c-0.1,0.5-0.3,1.1-0.7,1.8c-0.4,0.9-0.8,1.8-1.4,2.9c-0.6,1.1-1.2,2.2-1.9,3.5c-0.7,1.2-1.5,2.4-2.4,3.6c-1.2,1.6-2.5,2.5-3.8,2.5
			c-0.1,0-0.1,0-0.2,0c-1.4,0-2.5-0.8-3-2.1c-0.7-1.8-0.9-3.2-0.6-4.2c0.3-1.3,1.2-2.2,2.4-2.3c0.1,0,0.1,0,0.2-0.1
			c0.1-0.1,0.4-0.5,1-1.5c0.1-0.1,0.1-0.3,0.1-0.3c-0.1-0.1-0.2-0.2-0.3-0.4c-0.7-0.7-1.4-1.4-2.3-2c-0.8-0.7-1.5-1.1-2-1.4
			l-0.1-0.1c-0.7-0.5-1-1.2-1.2-2.3c-0.1-1.1,0.2-2.1,1-2.9c1.3-1.4,2.6-2.7,3.9-3.7c1-0.8,2-1.4,3-1.6c0-0.3,0-0.6,0.1-0.8
			c0-0.2,0-0.4,0-0.5c-0.3-0.1-0.5-0.2-0.7-0.3c-0.4-0.2-0.9-0.4-1.3-0.7c-0.4-0.3-0.9-0.6-1.4-1c-0.5-0.4-1-0.9-1.6-1.5
			c-0.9-1-1-1.9-0.9-2.5c0.2-1,1-1.6,2.1-1.6c0.1,0,0.2,0,0.3,0c0.1,0,0.1,0,0.1,0c0.2,0,0.4,0,0.7-0.4c0.5-0.6,1.1-1.1,1.8-1.6
			c0.6-0.4,1.3-0.8,2-1c0.7-0.3,1.4-0.5,2.1-0.5c0.1,0,0.3,0,0.4,0c0.6,0,1.2,0.1,1.7,0.4c2.2,1.1,3.6,2.3,4.2,3.7
			c0.9,1.8,0.6,3.2,0.1,4.1c-0.6,1.2-1,2.7-1.4,4.7c-0.2,1.1-0.3,2.2-0.4,3.4c0.4,0.2,0.7,0.5,0.9,1c0,0,0,0.1,0,0.1c0,0,0,0,0,0
			c0.7-0.2,1.4-0.5,2.2-1c0.4-0.2,0.8-0.4,1.3-0.4c0.2,0,0.4,0,0.6,0.1c0.5,0.1,1.1,0.3,1.6,0.5c0.5,0.3,1.1,0.6,1.6,1
			c0.3,0.2,0.5,0.4,0.7,0.7c0.1,0,0.3,0,0.4,0c0.1,0,0.2,0,0.3,0c0-0.3,0-0.5,0-0.8c0-1,0-2.1,0.1-3.1c-0.1,0-0.1,0.1-0.2,0.1
			c-0.4,0.2-0.9,0.3-1.2,0.3c-0.5,0-1-0.2-1.4-0.5c-1.4-1.1-2.1-1.3-2.4-1.3c0,0-0.1,0-0.1,0c-0.1,0-0.2,0-0.4,0.3
			c-0.4,0.5-1,1-1.8,1h-0.2l-0.2-0.1c-0.5-0.1-0.8-0.4-1-0.8c-0.4-0.7-0.1-1.5,0.2-2.2c0.5-1.4,1.1-2.4,1.8-3
			c0.8-0.7,1.7-1.1,2.8-1.2c0.4-0.1,0.9-0.2,1.3-0.3c0.3-0.1,0.5-0.2,0.7-0.4c0.7-0.6,1.3-1.1,1.8-1.5c0.3-0.2,0.6-0.4,1-0.7
			c0.2-2.2,0.4-3.9,0.4-5c0-1-0.1-1.4-0.1-1.5c-0.1-0.1-0.2-0.2-0.3-0.2c-0.4,0.2-0.8,0.3-1.2,0.3c-0.5,0-1.6-0.2-2.2-1.8
			c-0.4-1.4-0.1-2.3,0.3-2.8c0.8-1.1,2.4-1.2,3-1.2c0,0,0,0,0,0c0.8,0,1.6,0.1,2.3,0.4c0.7,0.2,1.4,0.5,2,0.9
			c0.7,0.4,1.3,0.8,1.8,1.4c0.5,0.5,0.9,1,1.3,1.5l0.1,0.1l0,0.1c0.6,1.2,1,2.4,1,3.7c0,0.2,0,0.4,0,0.5c0.2,0,0.4,0,0.6,0
			c0.1,0,0.2,0,0.3,0c0.5,0,1.1,0.2,1.5,0.5c0.3,0.2,0.7,0.5,1.1,0.8c1,1,1.4,1.8,1.4,2.7c0,0.6-0.2,1.6-1.6,2.3
			c-1.2,0.5-2.2,1.1-3.1,1.6c-0.7,0.4-1.4,0.8-2,1.3c-0.1,1-0.2,2-0.3,3.2c0.2-0.2,0.3-0.4,0.5-0.6c0.8-1,1.8-1.5,3-1.5
			c0.1,0,0.2,0,0.3,0c1.3,0.1,2.5,0.9,3.5,2.3c0.9,1.2,1.4,2.3,1.5,3.3c0.1,1-0.3,2.2-1.1,3.8c-0.8,1.7-1.5,3.1-1.9,4.2
			c-0.3,0.7-0.5,1.2-0.6,1.5c0.1,0,0.1,0,0.2,0.1c0.6,0.2,1.2,0.4,1.8,0.5c0.6,0.1,1.1,0.2,1.5,0.3c0.9,0.1,1.6,0.3,2.1,0.6
			c0.6,0.4,1,1,1.4,1.9c0.7,1.6,1.2,2.7,1.4,3.3c0.3,0.8,0.3,1.4,0.3,2c-0.2,1.2-0.6,2-1.5,2.3c-0.2,0.1-0.5,0.1-0.8,0.1
			c-0.4,0-0.9-0.1-1.6-0.3c-0.7-0.2-1.4-0.4-1.9-0.6c-0.7-0.3-1.3-0.6-1.8-1.1c-0.3-0.4-0.7-0.6-1.3-0.8c-0.3-0.1-0.7-0.2-1.1-0.2
			c-0.2,0-0.5,0-0.7,0.1c-0.6,0.1-1.1,0.1-1.5,0.1c-0.7,0-1.3-0.1-1.7-0.4c0,0,0,0-0.1,0c0,0.8,0.1,1.5,0.1,2.3c0,1.2,0,2.3-0.1,3.5
			c-0.1,1.1-0.1,2.2-0.2,3.2c-0.1,1-0.2,1.9-0.3,2.5c-0.1,0.7-0.4,2-1.5,2.3l-0.2,0.1L406.7,604.4z M402.6,591.5
			c-0.1-0.8-0.1-1.7-0.1-2.8c0-0.2,0-0.5,0-0.7c-0.6,0.7-1.1,1.4-1.6,2.1C401.2,590.5,402.5,591.4,402.6,591.5z M409,576.8
			c0,0.4,0,0.9,0,1.3c0.3-0.9,0.6-1.8,0.9-2.9c-0.2,0.2-0.5,0.3-0.8,0.4C409.1,576,409.1,576.4,409,576.8z M460.6,601
			c-0.4,0-0.9-0.1-1.4-0.4c-0.5-0.3-1-0.7-1.5-1.4c-0.4-0.6-0.8-1.3-1.2-2.3c-0.4-1-0.7-2.1-1-3.6c-0.1-0.5,0-1.1,0.1-1.8
			c0-0.2,0.1-0.4,0.2-0.6c-0.4,0.2-0.9,0.3-1.3,0.3l-0.1,0c-0.3,0-0.7-0.1-1-0.2c0.1,0.9,0.1,1.6,0.2,2.2c0.1,1,0.1,1.9,0.1,2.5
			c0,0.7,0,1.3-0.1,1.7c-0.1,0.5-0.1,0.9-0.3,1.4c-0.4,1.4-1.3,1.8-1.8,1.9c-0.1,0-0.3,0-0.4,0c-0.4,0-1.2-0.1-1.8-1
			c-0.6-0.8-1.2-1.5-1.6-2.1c-0.5-0.7-0.9-1.4-1.2-2c-0.3-0.6-0.5-1.3-0.7-2c-0.1-0.7-0.2-1.4-0.2-2.2c0-1.1-0.1-2.5-0.2-4.1
			c-0.2-1.6-0.3-3.3-0.6-4.8c-0.2-1.2-0.4-2.3-0.5-3.3c-0.4,0.5-0.7,0.7-1,0.8c-0.4,0.3-0.9,0.4-1.4,0.4c-0.5,0-1.3-0.1-2-1.1
			c-0.6-0.8-1.1-1.6-1.6-2.3c-0.5-0.8-0.9-1.9-1.2-3.2c-0.2-0.5-0.1-1.1,0.3-1.8c0.2-0.4,0.6-0.9,1.1-1.7c1.6-2.1,3-4.4,4-6.9
			c1-2.5,1.7-5.3,2.1-8.2c0-0.1,0-0.2-0.5-0.4c-0.8-0.3-1.2-0.9-1.4-1.5c-0.3-1.1,0.6-2.1,0.9-2.5l0.1-0.1c0.5-0.4,1.1-0.6,1.8-0.6
			c0.1,0,0.3,0,0.4,0c0.7,0.1,1.4,0.3,2.3,0.6c0.8,0.3,1.6,0.8,2.4,1.4c0.8,0.6,1.7,1.3,2.5,2.2c0.7,0.8,1.1,1.9,1.2,3.3
			c0,0.3,0,0.6,0,0.9c0.2-0.2,0.5-0.2,0.9-0.2h0.5l0.1,0.1l0-0.1c0.5-1.1,1.4-1.8,2.5-2c0.2-1.3,0.6-2.6,1.2-3.9
			c0.6-1.3,1.5-2.7,2.6-4.3c0.2-0.4,0.8-1.1,2.1-1.1c0.6,0,1.2,0.1,2,0.4c1.1,0.5,2.2,1.1,3.3,1.9c1.1,0.8,2.1,1.6,2.9,2.6
			c0.9,1,1.5,2,2,3.1c0.6,1.2,0.8,2.4,0.6,3.5c-0.1,0.4-0.1,0.7-0.1,1.1c0,0.5,0,1.3,0,2.5c0,1.2,0.1,2.9,0.3,5
			c0.1,1.7,0.3,4,0.5,6.7c0.4-0.2,0.8-0.3,1.2-0.4c0.9-0.3,1.5-0.5,2.1-0.6c0.5-0.1,1-0.2,1.4-0.2c0.1,0,0.2,0,0.3,0
			c0.4,0,0.9,0.1,1.3,0.2c2.1,0.7,3.2,1.4,3.8,2.2c0.7,1.1,0.7,2.3-0.1,3.4c-0.4,0.5-0.9,0.9-1.7,1.3c-0.6,0.3-1.3,0.6-2.1,0.8
			c-0.8,0.3-1.6,0.5-2.4,0.7c-0.8,0.2-1.5,0.2-2.1,0.2l-0.2,0c-0.2,0-0.4,0-0.6,0c-0.2,0-0.5,0-0.7,0c-0.1,0-0.2,0-0.3,0
			c0,0.1,0,0.1-0.1,0.2c0.2-0.1,0.5-0.2,0.8-0.2c0.5,0,1,0.1,1.6,0.4c1.1,0.6,2.1,1.1,2.8,1.7c0.8,0.6,1.4,1.2,1.9,1.8
			c0.5,0.6,0.9,1.3,1.2,2c0.2,0.6,0.4,1.3,0.5,2.1c0.1,0.9,0.1,1.9-0.1,2.7c-0.2,0.9-0.5,1.6-0.9,2.2c-0.5,0.7-1,1.3-1.7,1.6
			c-0.4,0.2-0.8,0.3-1.2,0.3c-0.5,0-1-0.2-1.5-0.5c-0.5-0.3-1.3-0.8-2.2-1.4c-1-0.7-2.5-1.8-4.3-3.5l-3.3-2.9l4.4,0.3
			c0.2,0,0.4,0,0.5,0c0.8,0,1.2-0.1,1.5-0.2c0.4-0.2,0.6-0.3,0.7-0.5c0.1-0.2,0.1-0.4,0.1-0.7c-0.1-0.3-0.2-0.6-0.4-0.8
			c-0.5-0.5-1.1-1.3-1.2-2.1c-0.5,0.8-1.1,1.4-1.8,1.6c-0.3,0.1-0.6,0.2-0.9,0.2c-1.4,0-2.3-1.1-2.9-2.2c-0.4,0.2-0.9,0.4-1.4,0.6
			c-1.1,0.5-2.3,1.1-3.5,1.7c-0.9,0.5-1.7,0.9-2.6,1.4l-0.4,1c-0.3,0.7-0.5,1.3-0.6,1.7c0.6-0.3,1.2-0.5,1.8-0.8
			c1-0.5,1.9-1,2.5-1.4c0.4-0.3,0.8-0.4,1.2-0.4c0.8,0,1.7,0.5,1.9,1.9c0.1,1-0.3,2.1-1.2,3.4c-0.8,1-1.5,2.1-2.1,3.2
			c-0.8,1.3-1,1.9-1.1,2.1c-0.5,1.9-1.6,2.5-2.4,2.7l-0.1,0l-0.2,0L460.6,601z M456.8,560.4c-0.1,0.6-0.3,1.3-0.6,2.2
			c-0.6,1.9-1.1,4.2-1.6,6.7c-0.4,2.6-0.8,5.1-1,7.7c-0.3,2.5-0.4,4.9-0.5,7.1c0.3-0.1,0.6-0.2,0.8-0.2l0.2,0c0,0,0.1,0,0.1,0
			c0.3-0.1,0.4-0.2,0.5-0.3c0.3-0.2,0.6-0.5,1.1-0.8c0.4-0.3,0.9-0.5,1.4-0.8c0.5-0.3,1-0.6,1.6-1l0.1-0.1c-0.1-0.2-0.2-0.4-0.3-0.6
			c-0.3-0.6-0.4-1.4-0.5-2.4c0,0-0.4-5.5-0.5-6.9c-0.1-1.5-0.2-3.1-0.3-4.8s-0.2-3.5-0.3-5.3c0-0.3,0-0.5,0-0.7L456.8,560.4z
			 M468.3,576.7c0,0,0.1,0,0.1,0c0-0.1,0-0.2,0-0.4C468.4,576.4,468.3,576.7,468.3,576.7z M449.1,571.3c0.2,0.3,0.4,0.6,0.6,0.9
			c0,0,0,0.1,0.1,0.1c0.2-1,0.4-1.9,0.6-2.9c0.1-0.6,0.3-1.2,0.4-1.8c-0.2,0.4-0.3,0.8-0.5,1.2C449.9,569.7,449.5,570.5,449.1,571.3
			z M464.1,561.4c1.4,0.1,2.6,0.6,3.6,1.5c0,0,0.1,0.1,0.1,0.1c0-0.4-0.1-0.7-0.1-1.1c-0.2-1.3-0.4-2.9-0.6-4.8
			c-0.1-0.9-0.3-1.3-0.4-1.6c-0.7,0.5-1.7,1.1-3,1.6c-0.5,0.2-0.9,0.4-1.3,0.5c0.4,0.4,0.7,1,1,1.7
			C463.7,560,463.9,560.7,464.1,561.4z M348.1,599.1c-0.4,0-0.8-0.1-1.2-0.2c-0.6-0.2-1.4-0.6-2.5-1.3c-1-0.6-2.3-1.6-4.1-2.8
			c-1.5-1.1-3.5-2.6-5.8-4.3c-0.3,0.1-0.6,0.3-1,0.3c-0.4,0-0.8-0.1-1.1-0.3c-0.7-0.5-1-1.3-1.2-2.9c-0.9-0.9-1.7-1.8-2.5-2.6
			c-0.4-0.5-0.9-0.9-1.4-1.5c-1,2.1-1.9,3.9-2.9,5.3c-1.3,1.9-2.6,3.4-3.8,4.5c-1.3,1.1-2.5,1.8-3.7,2.1c-0.6,0.2-1.2,0.2-1.8,0.2
			c-0.5,0-1-0.1-1.4-0.2c-1.1-0.4-1.7-1.3-1.6-2.6c0.1-1.1,0.8-1.9,1.9-2.2c0.3-0.1,0.6-0.2,1.1-0.5c0.2-0.1,0.7-0.5,1.4-1.5
			c0.7-0.9,1.5-2.1,2.4-3.8c0.7-1.3,1.6-3,2.5-5c-0.1,0-0.3-0.1-0.4-0.1c-0.2,0-0.5-0.1-0.8-0.1c-0.3,0-0.7,0-1,0.1
			c-0.2,0-0.3,0-0.3,0c-1.3,0-2-0.9-2-1.7c0-0.4,0-1.5,1.4-2.2c1.1-0.5,2.2-1,3.3-1.3c0.8-0.2,1.5-0.4,2.2-0.5
			c0.3-0.7,0.5-1.4,0.7-2.1c0.3-0.9,0.6-1.8,0.9-2.7c0.2-0.5,0.6-2,1.9-2.1c-0.6-2.1-0.7-4.7-0.4-7.9c0.1-0.6,0-1.3-0.3-2.1
			c-0.3-0.8-0.7-1.8-1.4-3.1c-0.5-1-1-2-0.4-2.9c0.3-0.5,0.9-0.8,1.5-0.8c0.5,0,1,0.2,1.6,0.6l0.1,0.1c0.9,0.7,1.8,1.2,2.8,1.5
			c0.3,0.1,0.6,0.2,0.8,0.3c0-0.2,0-0.4,0-0.6c0.1-0.8,0.7-1.4,1.7-2c1.7-1.2,3.5-2.1,5.2-2.4c0.6-0.1,1.4-0.3,2.1-0.6
			c0.9-0.3,1.8-0.7,2.8-1.2c0.5-0.2,1-0.3,1.4-0.3c0.4,0,0.8,0.1,1.2,0.2c0.6,0.2,1.2,0.6,1.7,1.1c1.1,1.1,1.8,1.9,2.4,2.7
			c0.6,0.9,1,1.8,1.1,2.6c0.1,0.9,0,1.7-0.3,2.5c-0.3,0.7-0.8,1.3-1.3,2c-0.2,0.2-0.4,0.6-0.7,1c-0.3,0.5-0.6,1-1,1.6
			c-0.3,0.6-0.7,1.1-1,1.6c0,0.1-0.1,0.1-0.1,0.2c0.9,0.8,1.4,1.7,1.5,2.6c0.1,0.8-0.1,2.6-2.9,3.3c-1.9,0.4-3.6,0.8-5.1,1.2
			c-0.5,0.1-1,0.3-1.5,0.5c0.3,0.4,0.6,0.9,0.7,1.5c0.2,0.7,0.4,1.6,0.4,2.6c0.4,0,0.8-0.1,1.1-0.1c0.2,0,0.3-0.1,0.4-0.1
			c-0.2-0.6,0-1.1,0.1-1.4c0.2-0.3,0.6-1,1.8-1c0.1,0,0.3,0,0.4,0c0.7,0.1,1.3,0.2,1.9,0.3c0.6,0.1,1.2,0.2,1.7,0.4
			c0.6,0.2,1.1,0.6,1.6,1c0.5,0.4,0.9,1,1.2,1.7c0.4,0.8,0.4,1.8,0.1,2.9c-0.4,1.1-1.2,2-2.3,2.4c-0.8,0.4-1.8,0.8-2.8,1.2
			c-1,0.4-2.4,0.9-4,1.5c-0.4,0.1-0.7,0.2-1.1,0.2c-0.3,0-0.7,0-1.1-0.1c-0.2,0-0.4-0.1-0.5-0.2c0,0,0,0,0,0.1
			c-0.1,0.3-0.1,0.6-0.2,1c1,0.7,2,1.3,2.9,1.9c1.2,0.7,2.3,1.4,3.5,2c1.1,0.6,2.3,1.1,3.5,1.6c1.2,0.5,2.5,0.9,3.9,1.3
			c2.1,0.7,3.7,1.4,4.9,2.1c1.3,0.8,2.3,1.7,2.9,2.7c0.9,1.5,0.5,2.7,0.1,3.3c-0.4,0.6-1.2,1.3-2.8,1.3c-0.1,0-0.3,0-0.4,0
			c-0.7,0-1.4-0.1-2.1-0.1c-0.3,0-0.6,0-0.9,0c-0.4,0-0.9,0-1.3,0c-0.7,0-1.4,0-2,0.1c-0.6,0-1,0.1-1.4,0.2
			C348.6,599.1,348.3,599.1,348.1,599.1z M330.5,576.5c0.4,0.4,0.9,0.9,1.3,1.3c0.1,0.1,0.2,0.2,0.3,0.3c0.1-0.3,0.1-0.5,0.2-0.7
			c0.2-0.8,0.3-1.4,0.3-1.9c0.1-0.6,0.1-0.9,0.1-1c0-0.1,0-0.1,0-0.2c-0.3-0.6-0.5-1.2-0.7-1.8c-0.1-0.3-0.1-0.6-0.2-1
			c-0.2,0-0.3,0-0.5,0c-0.7,0-1.2-0.2-1.7-0.5c-0.1-0.1-0.2-0.1-0.4-0.2c0,0.1,0.1,0.2,0.2,0.3c0.7,1.1,1.2,2.2,1.3,3.3
			C330.8,575.1,330.8,575.8,330.5,576.5z M333.8,554.7c0.1,0.1,0.2,0.2,0.2,0.3c0.8,1.2,1,2.5,0.6,4c-0.1,0.6-0.3,1.4-0.4,2.3
			c0,0.1,0,0.3,0,0.4c0.4-0.1,0.9-0.3,1.3-0.4c0.6-0.2,1.3-0.4,1.9-0.6c0.4-0.1,0.8-0.2,1.1-0.4c0.7-0.9,1.4-2,2.1-3.3
			c0.3-0.5,0.5-1,0.8-1.5c-0.1,0-0.2,0.1-0.2,0.1c-0.6,0.4-1.3,0.6-1.9,0.8c-0.4,0.1-0.9,0.2-1.3,0.2c-0.3,0-0.5,0-0.8-0.1
			c-0.7-0.1-1.3-0.4-1.8-0.8c-0.6-0.5-1.1-0.8-1.4-1C334,554.8,333.9,554.7,333.8,554.7z M288.3,594.1c-0.6,0-1.2-0.1-2-0.3
			c-0.9-0.2-2.1-0.8-3.5-1.8c-0.8-0.5-1.8-1.2-3-2c-1.2-0.8-2.5-1.6-3.8-2.4c-1.2-0.8-2.5-1.5-3.6-2.1c-1.1-0.6-2-1.1-2.6-1.3
			c-1.3-0.6-2.6-1-3.8-1.3c-1.3-0.3-2.4-0.5-3.4-0.6c-0.7-0.1-1.3-0.1-1.8-0.1c-0.2,0-0.5,0-0.7,0c-0.7,0.1-0.9,0.1-0.9,0.1
			c-0.4,0.2-0.8,0.4-1.3,0.4c-0.6,0-1.2-0.3-1.6-0.7c-0.3-0.3-0.7-0.9-1.3-2.8c-0.4-1.4-0.4-2.5-0.1-3.4c0.4-0.9,1.2-1.5,2.2-1.5
			c0.4,0,0.8,0.1,1.2,0.2c0.3,0.1,0.5,0.2,0.6,0.2c0.1,0,0.1,0,0.2,0c0.3-0.1,0.6-0.2,0.8-0.3c0,0,0,0,0,0c-0.4-0.4-0.8-1-1.2-1.5
			c-0.5-0.8-0.9-1.7-1.1-2.7c-0.2-1-0.2-2,0-3c0.2-0.8,0.5-1.5,0.9-2.3c-0.6-0.2-1.2-0.6-1.7-1.4c-0.5-0.7-0.8-1.9-1-3.6
			c-0.1-0.7-0.1-1.4,0.1-2.2c0.2-0.7,0.4-1.5,0.7-2.1c0.3-0.7,0.7-1.4,1.2-2c0.5-0.6,1.1-1.2,1.8-1.6c0.7-0.5,1.2-0.8,1.7-1.2
			c0.2-0.2,0.4-0.3,0.5-0.4c-0.1-0.3-0.3-0.5-0.5-0.9c-0.3-0.6-0.5-1.1-0.7-1.5c-0.3-1-0.3-1.8,0-2.6c0.4-0.8,1.2-1.3,2.1-1.3
			c0.2,0,0.4,0,0.6,0.1c2.6,0.4,4.5,1.2,5.8,2.2c1.4,1.1,2.2,2.7,2.5,4.8c0.1,0.5,0.3,2.1-0.7,3.1c-0.4,0.4-1.1,0.8-2.2,0.8
			c-0.1,0-0.2,0-0.2,0c-0.1,0-0.4,0-1.1,0.2c-0.7,0.2-1.4,0.4-2.2,0.6c-0.8,0.3-1.6,0.5-2.3,0.8c-0.4,0.1-0.7,0.2-0.9,0.4
			c0.9,0.2,1.7,0.6,2.5,1.2c1,0.8,1.8,1.8,2.3,3c0.5,1.1,0.7,2.3,0.5,3.5c-0.1,1.3-0.7,2.4-1.6,3.2c-0.5,0.4-0.8,0.7-1,0.9
			c0.5,0.7,0.9,1.4,1.2,2.3c0.3,0.8,0.5,1.6,0.7,2.4c0.2,0.8,0.2,1.6,0.2,2.4c0,0.2,0,0.3,0,0.5c0,0,0.1,0,0.1,0
			c0.2,0.1,0.5,0.2,0.7,0.2c-0.1-0.5-0.1-1-0.1-1.5c0-0.7,0.1-1.4,0.3-2.1c0.2-0.7,0.5-1.5,0.8-2.5c0.8-2.2,1.2-3.8,1.4-5
			c0.2-1.4,0.1-1.8,0-1.8c-0.1-0.3-0.3-0.8-0.4-1.3c-0.1-0.5-0.2-1-0.2-1.5c0-0.5,0-0.9,0-1.2c0-0.5,0-0.8,0.1-1.2
			c0.1-0.7,0.4-1.2,0.8-1.7c0.6-0.7,1.2-0.8,1.7-0.8c0,0,0,0,0,0c0.7,0,1.3,0.3,1.7,0.8c0,0,0.1,0.1,0.1,0.1c0.3-1,1.3-1.2,1.6-1.3
			c0.6-0.2,1.3-0.5,2.2-0.8c0.8-0.3,1.7-0.8,2.9-1.5c-0.2-0.2-0.4-0.4-0.6-0.7c-0.2-0.2-0.4-0.5-0.5-0.7c-0.9,0.5-1.5,0.8-2.1,0.8
			c0,0,0,0,0,0c-1.2,0-2-0.6-2.4-1.7c-0.5-1.2-0.8-2.5-0.9-4.1c-0.1-1.6,0-3.2,0.5-4.9c0.4-1.6,1.3-2,2-2.1l0.1,0l0.1,0
			c1.4,0,2,1.4,2.2,2.1c0,0,0.1,0,0.1,0c1.4-0.5,2.8-1,4.2-1.6c1.4-0.6,2.5-1.1,3.3-1.5c0.9-0.5,1.9-0.8,2.9-0.8
			c0.7,0,1.3,0.1,2,0.4c1.5,0.6,2.8,1.9,3.8,3.8c0.4,0.9,0.7,1.6,0.8,2.4c0.1,0.8,0,1.4-0.2,2c-0.2,0.6-0.6,1.1-1,1.5
			c-0.5,0.4-1,0.6-1.6,0.6c0,0,0,0,0,0c-0.1,0-0.2,0-0.3,0c-0.1,0-0.3,0.1-0.8,0.5c-0.4,0.3-0.9,0.7-1.5,1.3
			c-0.5,0.5-1.1,1.1-1.8,1.8c0.1,0.2,0.1,0.4,0.2,0.6c0.6,0.1,1.2,0.3,1.8,0.6c1,0.5,1.9,1.2,2.6,2c0.7,0.8,1.3,1.8,1.6,2.8
			c0.4,1.1,0.4,2.2,0.2,3.3c-0.2,0.8-0.4,1.6-0.6,2.4c-0.2,0.8-0.4,1.9-0.6,3.2c-0.2,1.3-0.5,3-0.8,5c-0.3,2-0.7,4.5-1.1,7.4
			c-0.2,1-0.3,1.8-0.5,2.5c-0.1,0.7-0.3,1.4-0.5,2c-0.2,0.5-0.3,1-0.5,1.4c1,0.3,1.8,0.5,2.6,0.7c1.2,0.3,2.6,0.5,4,0.7
			c0.7,0.1,1.3,0.4,1.8,0.8c0.7,0.6,0.9,1.3,1,1.8c0,0.7-0.2,1.3-0.7,2c-0.5,0.6-1.2,1-2.2,1.4c-0.2,0.1-0.5,0.1-1.2,0.3
			c-0.5,0.1-1.1,0.2-1.8,0.3c-0.7,0.1-1.5,0.2-2.4,0.3c-0.8,0.1-1.7,0.2-2.5,0.2C288.5,594.1,288.4,594.1,288.3,594.1z M280.3,582.1
			c0.5,0.2,0.9,0.4,1.3,0.6c0-0.1-0.1-0.1-0.1-0.2c-0.3-0.6-0.6-1.2-0.8-1.8C280.6,581.2,280.5,581.7,280.3,582.1z M274.5,579.3
			c0.2,0.1,0.5,0.2,0.7,0.3c0-0.1,0-0.2,0-0.3c0.1-0.8,0.2-1.7,0.5-2.9c-0.2,0-0.4,0-0.6,0c-0.5,0-0.8-0.1-1.2-0.2
			c-0.1-0.1-0.3-0.1-0.4-0.2c-0.2,0.9-0.4,1.8-0.5,2.6C273.4,578.8,273.9,579,274.5,579.3z M282.3,575.6c0.4,0.1,0.8,0.3,1.1,0.6
			c0.5,0.5,1,0.9,1.3,1.2l0.4-2.6c-0.1,0-0.2,0-0.3,0l-0.3,0c-0.5,0-1,0-1.5,0.1c-0.2,0-0.4,0-0.6,0.1
			C282.4,575.2,282.4,575.4,282.3,575.6z M284.4,567.9c0.4,0.1,0.8,0.3,1.2,0.5c0.2,0.1,0.5,0.3,0.7,0.5c0.1-0.9,0.3-1.7,0.4-2.4
			c0.2-1.6,0.4-3,0.6-4.2c0.2-1.4,0.2-2,0.2-2.2c0-0.4-0.2-0.5-0.2-0.5c0,0-0.1,0-0.2,0c-0.2,0-0.5,0-0.9,0.1c0,0.2-0.1,0.4-0.1,0.6
			c0,0.2-0.1,0.4-0.1,0.6c0.3,0.3,0.5,0.6,0.7,1c0.3,0.6,0.4,1.3,0.3,2c0,0.6-0.2,1.2-0.4,1.7c-0.4,0.9-1.1,1.3-1.5,1.4
			c-0.1,0-0.1,0-0.2,0.2C284.6,567.3,284.5,567.5,284.4,567.9z M275.5,568.6c0.2,0,0.3-0.1,0.4-0.1c-0.1-0.1-0.2-0.1-0.4-0.2
			C275.5,568.4,275.5,568.5,275.5,568.6z M274.1,558.9c0,0,0.1-0.1,0.1-0.1c0,0-0.1-0.1-0.1-0.1
			C274.1,558.8,274.1,558.9,274.1,558.9z M513.9,592.8c-0.3,0-0.7-0.1-1-0.2c-0.6-0.2-1.2-0.6-1.9-1.3c-0.6-0.6-1.3-1.4-2.1-2.5
			c-0.3-0.5-0.6-1-0.8-1.5c-0.2-0.6-0.4-1.2-0.4-2c0-0.7,0-1.4,0.1-2.4c0.1-0.9,0.3-1.9,0.7-3.1c0.1-0.5,0.3-0.9,0.5-1.2
			c-0.3-0.1-0.5-0.2-0.8-0.4c-0.6-0.4-1.1-1-1.6-1.9c-0.4-0.8-0.7-1.8-1-3c-0.3-1.4-0.3-2.5-0.1-3.3c0.3-1,1-1.7,2-2.1
			c0,0,0.1,0,0.1-0.1c0.1-0.1,0.3-0.4,0.6-1.1c0.2-0.6,0.5-1.4,0.8-2.3c0.3-1,0.7-2.3,1.1-3.8c0,0,0,0,0-0.1c0,0-0.1,0-0.1,0
			c-0.3,0-0.5,0-0.8,0c-1.2,0-2.1-0.2-2.7-0.7c-0.9-0.6-1.5-1.6-1.8-3c-0.1-0.6-0.2-1.3-0.1-1.9c0.1-0.7,0.2-1.3,0.5-1.9
			c0.3-0.6,0.6-1.2,1.1-1.7c0.5-0.6,1.2-0.9,1.9-1.2l0.1,0c0.1,0,0.2-0.1,0.5-0.2c0.2-0.1,0.5-0.4,1.1-1.1c0.5-0.5,1.1-1.3,1.8-2.2
			c0.7-0.9,1.5-2.2,2.5-3.6c-0.4-0.6-0.5-1.3-0.3-2c0.2-0.6,0.6-1.2,1.3-1.6c0.5-0.3,1.2-0.6,2-0.7c0.5-0.1,0.9-0.1,1.4-0.1
			c0.3,0,0.6,0,0.9,0c0.6,0,1.3,0.2,2.2,0.6c0.9,0.4,1.6,0.9,2.1,1.5c1,1.3,1.5,2.3,1.6,3.3c0.1,1.1-0.4,2.2-1.4,3.3
			c-0.6,0.6-1,1.1-1.5,1.5c-0.4,0.4-1,1-1.6,1.6c-0.5,0.4-1,0.9-1.6,1.5c0.1,0,0.1,0,0.2,0c0.4-0.1,0.8-0.1,1.1-0.1
			c1.2,0,2.3,0.4,3.2,1.3c0.5,0.4,0.9,0.8,1.4,1c0.2,0.2,0.5,0.3,0.8,0.5c0.8-0.4,1.6-0.6,2.2-0.6c0.1,0,0.3,0,0.4,0
			c0.7,0.1,1.2,0.2,1.7,0.3c0.5,0.2,1,0.4,1.4,0.7c0.4,0.3,0.7,0.7,1,1.1c0.2,0.3,0.4,0.7,0.6,1.2c0.6,1.4,0.6,2.5,0,3.4
			c-0.5,0.8-1.6,1.3-3.6,1.7c-0.4,0.1-1.1,0.3-2.2,1c0,0.4,0.1,0.8,0.1,1.2c0.1,0.8,0.2,1.5,0.3,2.3c0.1,0.7,0.2,1.4,0.3,2
			c0.5-0.3,1.1-0.6,1.8-0.8c1.6-0.7,3.4-1.3,5.3-1.8c0.6-0.2,1.3-0.3,1.9-0.3c0.7,0,1.3,0.1,2,0.4c1.2,0.4,2.2,1.2,3,2.2
			c0.8,0.9,1.4,2.1,1.8,3.4c0.4,1.3,0.6,2.6,0.5,4c-0.2,4.1-2.7,4.6-3.8,4.6c-0.1,0-0.2,0-0.4,0c-1.5-0.1-3.1-0.3-4.7-0.6
			c-1.6-0.3-3.2-0.7-4.6-1.1c-0.2-0.1-0.4-0.1-0.6-0.2c0.2,1.2,0.4,2.4,0.6,3.5c0.2,1.3,0.3,2.6,0.4,3.6c0.1,1.2,0.1,2.1,0,2.9
			c-0.1,1.2-0.4,2-1.1,2.5c-0.3,0.2-0.7,0.3-1.1,0.3c-0.5,0-0.9-0.1-1.5-0.4c-1-0.5-2-1.1-3-1.7c-1-0.6-1.9-1.3-2.8-1.9
			c-0.9-0.6-1.7-1.1-2.4-1.6c-0.7-0.4-1.2-0.8-1.6-1c0,0,0,0-0.1,0c-0.2,0.6-0.4,1.1-0.5,1.6c-0.2,0.5-0.3,1-0.4,1.4
			c-0.1,0.5-0.3,0.9-0.4,1.4c-0.1,0.5-0.3,1.1-0.5,1.7c-0.2,0.9-0.8,1.4-1.2,1.7C514.8,592.7,514.4,592.8,513.9,592.8z M521.3,581.4
			c0.2,0.1,0.5,0.1,0.8,0.1c0.4,0,0.8-0.1,1.3-0.2c0.1,0,0.2,0,0.2-0.1c0-0.1,0-0.1,0-0.2c0-0.1,0-0.3-0.1-0.6c0-0.3-0.1-0.7-0.2-1
			c-0.4,0.3-0.8,0.7-1.2,1C521.9,580.7,521.6,581,521.3,581.4z M512.6,577.3c0.4,0.2,0.9,0.4,1.3,1c0.1,0,0.4-0.1,0.8-0.3
			c0.7-0.3,1.7-0.9,2.9-1.8c1.1-0.8,2.6-1.9,4.4-3.3l-0.2-0.8c-0.1-0.7-0.3-1.4-0.4-2.1l-0.3-1.6c-2.2,1.9-3.9,3.6-5.2,5.1
			C514.4,575.2,513.3,576.5,512.6,577.3z M529.9,575c0.5-0.3,1-0.4,1.4-0.4c0.5-0.1,1.1-0.3,1.8-0.7c0.8-0.5,1.4-0.9,1.9-1.3
			c0.9-0.7,1.2-1.1,1.3-1.2c-0.1,0-0.2,0-0.3,0c-0.2,0-0.3,0-0.5,0.1c-0.7,0.1-1.6,0.5-2.7,1c-0.9,0.4-1.9,1.1-3.1,1.9
			C529.8,574.5,529.8,574.7,529.9,575z M515.4,555.4c0.8,1.2,1.3,2.6,1.6,4c0.1,0.8,0.2,1.8,0.2,2.8c0,0,0,0,0.1-0.1
			c0.7-0.5,1.5-1.2,2.3-1.8l-0.2-0.9c-0.1-0.5-0.2-0.7-0.2-0.7c-0.1-0.1-0.2-0.1-0.6-0.3c-1-0.4-1.7-0.9-2.2-1.5
			c-0.4-0.6-0.6-1.2-0.5-1.9C515.8,555,515.6,555.2,515.4,555.4z M601.2,579.8c-0.6,0-1.4-0.3-2-1.5c-0.5-1.1-1-2.2-1.4-3.2
			c-0.4-1-0.8-2.1-1.2-3.2c-0.4-1.1-0.9-2.3-1.4-3.7c-0.5-1.3-1.1-3-1.7-4.9c-0.4-1.2-0.8-2.3-1.2-3.2c-0.3-0.8-0.6-1.5-0.8-2.1
			c-1-0.9-1.8-1.9-2.5-2.9c-0.4-0.7-0.9-1.5-1.3-2.5c-0.1,0.1-0.2,0.1-0.3,0.2c-0.3,0.2-0.6,0.4-0.9,0.6c0.5,0.1,1,0.4,1.4,0.8
			c0.5,0.4,0.9,0.9,1.2,1.5c0.3,0.5,0.5,1.1,0.6,1.7c0.2,0.8,0.1,1.5-0.2,2c-0.1,0.1-0.2,0.5-0.4,1.6c-0.1,0.7,0,1.5,0.2,2.6
			c0.3,1,0.5,1.9,0.4,2.6c-0.1,0.9-0.5,1.7-1.2,2.3c-0.3,0.3-0.9,0.7-2.6,1.6c-0.9,0.5-2,1-3.3,1.6c0.1,0.1,0.1,0.3,0.2,0.4l0.1,0.1
			c0.4,0.8,0.4,1.5,0,2.1c-0.3,0.5-0.9,0.8-1.5,0.8c-0.1,0-0.3,0-0.5,0c-0.5-0.1-1-0.2-1.5-0.4c-0.5-0.2-1-0.5-1.5-0.9
			c-0.5-0.3-1-0.8-1.5-1.3c-0.5-0.5-1.2-1.1-2-1.9c-0.9-0.9-1.6-1.9-2.2-3c-0.3-0.7-0.7-1.5-1-2.5c-0.3,0.2-0.5,0.4-0.7,0.6
			c-0.5,0.6-1.1,1.4-1.7,2.5c-0.3,0.6-0.6,1.1-1,1.4c-0.5,0.5-1.1,0.9-1.9,1.1c-0.5,0.1-1,0.2-1.5,0.2c-0.4,0-0.7,0-1.1-0.1
			c-0.8-0.2-1.4-0.4-2-0.8c-0.7-0.4-1.2-0.9-1.5-1.5c-0.5-0.9-0.3-1.9,0.4-2.6c2.1-2,4.1-4,5.9-5.7c1.2-1.2,2.4-2.2,3.5-3.2
			c-0.1-0.1-0.2-0.2-0.3-0.3c-0.4-0.4-0.7-1-1.1-1.8c-0.3-0.6-0.7-1.5-1.1-2.6c-0.6-1.5-0.8-2.5-0.6-3.3c0.2-1,0.9-1.7,1.8-1.9
			c0.1,0,0.2-0.1,0.3-0.2c0.3-0.2,0.6-0.5,0.9-0.8c0,0-0.4,0-0.4,0c-1.3,0-2.3-0.2-3.2-0.6c-0.9-0.4-1.7-1-2.3-1.9
			c-0.5-0.7-0.8-1.5-1.1-2.4c-0.2-0.6-0.2-1.2,0.1-1.7c0.1-0.3,0.3-0.5,0.5-0.7l-2.7,0.1l5.7-3c0.8-0.4,1.5-0.8,2-1.1
			c0.3-0.2,0.5-0.4,0.7-0.5c-0.2-0.4-0.4-0.8-0.6-1.1c-0.3-0.4-0.7-0.9-1.1-1.4c-0.7-0.7-1-1.3-1-1.9c0-0.5,0.1-1,0.5-1.4
			c0.3-0.4,0.8-0.6,1.3-0.6c0.8-0.1,1.8-0.1,2.8-0.1l0.2,0c1.1,0,2.3,0.1,3.5,0.3c1.3,0.3,2.4,1.1,3.4,2.4c0.6,0.9,1.1,1.8,1.6,2.9
			c0.6,0.1,1,0.3,1.4,0.6c0.5,0.4,1,1,1.5,2c0.7,1.2,0.3,2.7-1.1,4.2c-0.2,0.2-0.4,0.5-0.6,0.9c0.4,0.1,0.8,0.2,1.1,0.4
			c0.9,0.5,1.6,1.4,2.1,2.5c0.2,0.6,0.3,1.3,0.3,2c0.4-0.2,0.7-0.4,1-0.7c0.3-0.2,0.6-0.3,0.8-0.5c-0.4-0.3-0.6-0.8-0.7-1.5
			c-0.1-0.9,0.3-1.9,1.3-3.1c0-0.1-0.1-0.2-0.1-0.3c-0.1-0.4-0.2-0.7-0.2-1.1c-0.1-0.6-0.3-1.2-0.4-2c0-0.1,0-0.1,0-0.2
			c-0.3,0.1-0.5,0.2-0.7,0.2c-0.6,0-1.1-0.3-1.5-0.8c-0.3-0.4-0.5-1-0.6-2.7c-0.2-3.7,2-4.8,3.2-5.2c0.3-0.1,0.6-0.1,0.9-0.1
			c0.4,0,0.8,0.1,1.2,0.2c0.6,0.2,1.2,0.5,1.7,1c0.5,0.4,0.9,1,1.3,1.6c0-0.2,0-0.5,0.1-0.8c0.1-0.6,0.3-1.2,0.7-1.6
			c0.4-0.5,0.9-0.9,1.5-1.1c0.3-0.1,0.6-0.2,0.9-0.2c0.4,0,0.9,0.1,1.3,0.3c0.3,0.1,0.7,0.2,1.2,0.4c0.4,0.2,0.9,0.3,1.4,0.5
			c0.8,0.2,1.5,0.6,2.1,1.1c0.6,0.6,1.1,1.5,1.5,3c0.1,0.5,0.3,1,0.3,1.6c0.1,0.8-0.1,1.5-0.5,2.1c-0.4,0.5-0.7,1.1-0.8,1.8
			c-0.2,0.8-0.4,1.6-0.5,2.2l-0.3,1.6c0,0.2-0.1,0.5-0.1,0.7c1.7,0.7,3.1,1.4,4.3,2.2c1.4,0.9,2.5,2.1,3.3,3.4
			c0.8,1.3,1.4,2.9,1.7,4.7c0.3,1.7,0.5,3.8,0.4,6.1c-0.1,2.4-0.3,3.2-0.4,3.6c-0.4,0.8-1.1,1.4-2,1.4c-0.3,0-0.6-0.1-0.9-0.2
			c-0.4-0.1-1-0.3-1.6-0.4c-0.7-0.2-1.4-0.3-2.1-0.4c-0.5,0-1.2-0.2-2-0.4c0,0,0,0,0,0c0.2,1,0.4,2,0.6,2.9c0.3,1.6,0.6,3,0.9,4.4
			c0.2,1.3,0.5,2.5,0.6,3.6c0.2,1.1,0.4,2.1,0.5,3.1c0.1,0.8,0.3,2.6-1.2,3.2C601.6,579.7,601.4,579.8,601.2,579.8z M580.2,565.7
			c0.1,0.1,0.2,0.2,0.2,0.4c0.1-0.1,0.2-0.2,0.3-0.3c0.2-0.3,0.5-0.6,0.7-0.9c0.1-0.1,0.1-0.2,0.2-0.3
			C581.1,565,580.6,565.4,580.2,565.7z M596.9,551.3c0.2,0.5,0.3,1,0.5,1.5c0.2,0.6,0.4,1.2,0.6,1.7c0,0.1,0.1,0.2,0.1,0.3
			c0.2,0,0.4-0.1,0.7-0.1c0.4-0.1,0.9-0.1,1.4-0.2c0.5-0.1,0.9-0.2,1.3-0.2c1-0.2,1.4-0.4,1.5-0.5c-0.4-1.4-0.9-2.3-1.5-2.9
			c-0.3-0.3-0.6-0.5-0.8-0.5c0,0-0.1,0-0.1,0c-0.6,0.2-1.4,0.4-2.3,0.6C597.9,551.1,597.4,551.2,596.9,551.3z M593.6,540.2
			c0,0.2,0.1,0.4,0.2,0.7c0.1,0.4,0.2,0.8,0.3,1.2c0.2-0.7,0.3-1.5,0.3-2.3c0-0.3,0.1-0.7,0.1-1.1
			C594.2,539.2,593.9,539.7,593.6,540.2z M565.1,538.9c0.2,0.1,0.4,0.3,0.6,0.5c0.1,0.1,0.3,0.2,0.7,0.2c0.1,0,0.2,0,0.4,0
			c0.4,0,0.8-0.1,1.3-0.3l0.1,0c0.1,0,0.3-0.1,0.9-0.4c0.1-0.1,0.2-0.1,0.3-0.2c-0.7,0-1.5,0-2.4,0.1L565.1,538.9z M225.9,579.1
			c-0.4,0-0.8-0.1-1.2-0.3c-0.8-0.4-1.4-1-1.9-1.9c-0.5-1.1-0.9-2-1.2-2.7c-0.3-0.7-0.5-1.5-0.7-2.2c0-0.1,0-0.1,0-0.2
			c-0.6,0.5-1.2,0.8-1.8,0.8c-0.2,0-0.5,0-0.7-0.1c-0.9-0.3-1.7-1.1-2.5-2.6c-0.4-0.7-0.8-1.6-1.2-2.6c-0.1,0-0.1,0.1-0.2,0.1
			c-0.5,0.3-1,0.4-1.5,0.4c-0.3,0-0.6-0.1-0.9-0.2c-0.7-0.3-1.3-0.9-1.5-1.8c-0.2-0.7-0.2-1.5,0.1-2.4c0.1-0.5,0.3-0.8,0.4-1.2
			c0.2-0.4,0.4-0.7,0.8-1.2c0.3-0.4,0.8-0.8,1.3-1.3c0.3-0.3,0.7-0.6,1.2-1c-0.1,0-0.3-0.1-0.5-0.1c-0.5-0.1-1.1-0.1-1.8-0.1
			c0,0,0,0,0,0c-0.5,1.7-0.9,3.2-1.3,4.4c-0.4,1.5-0.8,2.7-1.1,3.7c-0.3,1-0.6,1.7-0.8,2.2c-0.3,0.7-0.4,1-0.5,1.1
			c-0.8,1.2-1.6,1.4-2.2,1.4c-0.4,0-0.8-0.1-1.2-0.3c-0.9-0.5-1.5-1.7-1.9-4c-0.1-0.6-0.1-1-0.2-1.3c0-0.4-0.1-0.7,0-1
			c0-0.4,0.1-0.9,0.3-1.3c0.1-0.3,0.3-0.6,0.5-1c0.1-0.2,0.3-0.7,0.7-1.7c-0.4,0.1-0.9,0.1-1.3,0.1c-0.3,0-0.5,0-0.8,0
			c-1-0.1-1.9-0.4-2.7-0.7c-0.1,0.2-0.1,0.5-0.2,0.7c-0.1,0.5-0.3,0.9-0.4,1.4c-0.2,0.4-0.3,0.8-0.4,1c-0.3,0.6-0.5,1.2-0.7,1.6
			c-0.1,0.4-0.2,0.7-0.2,1l0,0.1c-0.1,0.5-0.4,2.2-1.8,2.7c-0.2,0.1-0.4,0.1-0.6,0.1c-0.8,0-1.5-0.4-2.5-1.2l-0.1-0.1
			c-0.9-0.9-1.6-2.1-2-3.6c-0.4-1.4-0.6-3-0.5-4.7c0.1-1.8,0.4-4,0.9-6.4c0.5-2.4,1.3-5.4,2.3-8.9c0.3-1.2,0.6-2.1,0.9-2.9
			c0.2-0.8,0.5-1.4,0.7-1.9c0.2-0.5,0.4-1,0.5-1.4c0.2-0.4,0.3-0.8,0.5-1.3c0.4-1,0.8-1.9,1.2-2.6c0.4-0.7,0.8-1.3,1.1-1.8
			c0.4-0.5,0.8-1,1.3-1.3c0.4-0.3,0.9-0.6,1.4-0.8c0.8-0.4,1.5-0.8,2-1c0.5-0.3,0.8-0.5,1-0.6c0.1-0.1,0.2-0.2,0.2-0.2
			c0,0,0-0.1,0.1-0.3c0.1-0.8,0.2-1.6,0.2-2.5c0-1-0.2-1.4-0.2-1.5l0-0.1c-0.4-1-0.7-2-0.1-2.8c0.3-0.4,0.8-0.7,1.4-0.7
			c0.7,0,1.2,0.4,1.5,0.6l0.1,0.1c0.5,0.5,1.5,1.5,4.3,5.4c0.5,0.7,0.9,1.3,1.2,1.9c0.4,0.7,0.5,1.4,0.6,2.1c0,0.5-0.1,1-0.2,1.5
			c0.4-0.1,0.8-0.2,1.2-0.3c0.3-0.1,0.7-0.2,1.1-0.3c0.5-1.6,0.8-2.9,1-3.8c0.1-0.8,0-1.5-0.3-1.9c-0.3-0.4-0.5-0.9-0.7-1.4
			c-0.1-0.6-0.2-1.1,0-1.6c0.2-0.7,0.7-1.3,1.4-1.5c0.2-0.1,0.5-0.1,0.8-0.1c0.4,0,0.9,0.1,1.4,0.3c0.8,0.4,1.5,0.8,2.1,1.3
			c0.4,0.4,0.9,0.8,1.6,1.4c1.4,1.2,2.2,2.6,2.3,4c0.1,1-0.2,2.1-0.7,3.3c0.5,0.3,1,0.7,1.3,1.2c0.7,0.8,1.1,1.6,1.1,2.5
			c0,0.9-0.3,1.8-1.1,2.3c-0.5,0.4-1.1,0.6-1.7,0.6c-0.3,0-0.6,0-1-0.1c-0.1,0-0.2,0-0.5,0.1c-0.3,0.1-0.5,0.1-0.8,0.3
			c0.1,0,0.2,0.1,0.3,0.2c0.6,0.4,1.1,0.9,1.6,1.6c0.2-0.1,0.4-0.3,0.7-0.5c0.8-0.7,1.7-1.5,2.5-2.4c0.9-0.9,1.7-1.8,2.4-2.7
			c0.7-0.9,1.2-1.6,1.6-2.2c0-0.1,0.1-0.2,0-0.4c-0.1-0.2-0.4-0.6-1.1-1c-0.3-0.2-1.3-0.7-1.4-1.8c-0.1-0.6,0.1-1.2,0.6-1.6
			c0.4-0.4,1-0.6,1.7-0.6c0.6,0,1.3,0.1,2.3,0.5c1,0.3,1.9,0.9,2.8,1.7c0.8,0.8,1.4,1.6,1.8,2.4c0.3,0.6,0.4,1.2,0.4,1.8
			c0,0.6-0.1,1.1-0.2,1.7c-0.2,0.6-0.4,1.1-0.7,1.6c-0.3,0.5-0.6,0.8-0.9,1.1c-0.5,0.5-0.9,0.8-1.1,1c-0.1,0.1-0.1,0.1-0.2,0.2
			c0.3,0.1,0.7,0.2,1,0.4c1.2,0.5,2.2,1,3.1,1.6c0.9,0.6,1.6,1.1,2.3,1.7c0.7,0.6,1.2,1.2,1.4,1.7c0.9,1.6,1.1,2.5,0.9,3.2
			c-0.1,0.6-0.7,1.5-2.5,1.5c-0.1,0-0.3,0-0.5,0c0,0,0,0,0,0c-0.1,0-0.2,0-0.5,0.1c-0.4,0.1-0.9,0.3-1.4,0.5
			c-0.8,0.4-1.7,0.7-2.6,1.1c-0.2,0.1-0.5,0.2-0.7,0.3c0.1,0.2,0.3,0.4,0.4,0.6c0.4,0.7,0.7,1.5,0.8,2.3c0.1,0.8,0.2,1.6,0.1,2.6
			c-0.1,0.9-0.2,1.9-0.5,3.1c-0.2,0.8-0.4,1.8-0.7,3.1c-0.3,1.2-0.6,2.4-1,3.7c-0.3,1.3-0.7,2.5-1,3.6c-0.3,1.1-0.6,2-0.8,2.7
			c-0.6,1.9-1.2,3.3-1.9,4.3c-0.7,1.1-1.5,1.9-2.2,2.4C227.1,578.9,226.5,579.1,225.9,579.1z M201.6,552.5c-0.3,0.5-0.5,1.1-0.8,1.9
			c0,0.1-0.1,0.2-0.1,0.3c0.7-0.1,1.4-0.2,2.2-0.4c0.9-0.2,2.8-0.6,2.9-0.6c-0.3-0.1-0.5-0.2-0.7-0.3c-0.9-0.5-1.2-1.2-1.4-1.7
			c-0.2-0.7-0.1-1.4,0.2-2.1c0.1-0.2,0.3-0.5,0.4-0.7c0-0.2-0.1-0.3-0.1-0.5c-0.2,0.3-0.4,0.6-0.5,0.8l-1.2,1.8
			C202.2,551.6,201.9,552,201.6,552.5z M204.4,533.8c-2,0-2.8,0.4-3,0.6c-0.7,0.6-0.6,1.9-0.4,2.9c0.2,1.2,0.4,2.4,0.4,3.3
			c0.1,1,0,2-0.3,3c-0.2,0.9-0.6,1.9-1.1,2.9c-0.5,1-1.2,2.1-2,3.4c-0.1,0.2-0.3,0.6-0.6,1.3c0,0,0,0.1,0,0.1c0,0,0-0.1,0.1-0.1
			c0.1-0.2,0.3-0.6,0.6-1c0.3-0.4,0.6-0.9,0.9-1.3c0.3-0.4,0.6-0.8,0.9-1.2c0.3-0.5,0.6-0.8,1-1.1c0.7-0.8,1.3-1.3,2.1-1.3
			c0.3,0,0.6,0.1,0.8,0.2c0-0.3,0-0.6,0-0.9c0-0.2,0-0.4,0.1-0.6c-0.3-0.3-0.6-0.9-0.5-1.8c0.1-0.5,0.2-1.1,0.5-1.7
			c0.3-0.5,0.6-1,1-1.5c0.5-0.6,1.1-1,1.7-1.2c0.4-0.1,0.6-0.1,0.9-0.1c0.8,0,1.4,0.4,1.7,0.7c0,0,0,0,0.1,0.1
			c0.5-0.3,0.9-0.5,1.2-0.7c0.2-0.1,0.3-0.2,0.5-0.2c-0.2-0.1-0.3-0.3-0.4-0.4c-0.3-0.3-0.6-0.5-0.9-0.8c-0.3-0.3-0.8-0.6-1.3-1.1
			c-0.6-0.5-1.2-0.9-1.7-1.2c-0.5-0.3-0.7-0.3-0.8-0.3C205.2,533.8,204.8,533.8,204.4,533.8z M224.6,546.5c0.2,0,0.4,0,0.6,0
			c0.1,0,0.2,0,0.2,0c0.1-0.1,0.3-0.2,0.5-0.3c0.2-0.1,0.4-0.2,0.7-0.4c0.3-0.1,0.7-0.3,1.2-0.4c0.5-0.1,1.1-0.3,1.8-0.4
			c0.4-0.1,0.9-0.2,1.5-0.3c-0.1-0.1-0.2-0.1-0.3-0.2c-0.6-0.3-1.4-0.6-2.4-0.9c-0.2,0.1-0.4,0.3-0.6,0.4c-0.6,0.4-1.1,0.8-1.7,1.2
			c-0.6,0.4-1.1,0.7-1.7,1.1c-0.2,0.1-0.3,0.2-0.5,0.3C224.2,546.5,224.4,546.5,224.6,546.5z M419.1,564.2c-0.3,0-0.5,0-0.7-0.1
			c-0.8-0.3-1.4-1-1.5-1.9c-0.2-1.5-0.5-2.7-0.9-3.5c-0.4-0.7-1-1.3-1.8-1.7c-1.3-0.7-1.6-1.6-1.7-2.2c0-0.5,0.1-1,0.5-1.4
			c0.6-0.7,1.6-0.8,2.2-0.9c0.2,0,0.4,0,0.5,0c1,0,2,0.1,2.9,0.4c1.1,0.3,2,0.7,2.8,1.3c0.8,0.6,1.4,1.3,1.8,2.1
			c0.4,0.9,0.6,1.8,0.4,2.7c-0.2,1.3-0.6,2.3-1.2,3c-0.5,0.6-1,1.2-1.6,1.6C420.3,564,419.7,564.2,419.1,564.2z"/>
		<path fill="#FFF100" d="M205.2,521.6c0.1,0,0.3,0.1,0.6,0.3c0.7,0.6,2.1,2.4,4.1,5.2c0.5,0.7,0.8,1.2,1.1,1.7
			c0.2,0.5,0.4,0.9,0.4,1.3c0,0.4-0.1,0.9-0.3,1.4c-0.2,0.5-0.6,1.1-1,1.9c0.6,0,1.1-0.1,1.5-0.1c0.4-0.1,0.8-0.1,1.2-0.2
			c0.4-0.1,0.9-0.2,1.4-0.3c0.5-0.1,1.1-0.3,1.9-0.4c0.7-2.1,1.2-3.7,1.3-4.9c0.1-1.2,0-2.1-0.5-2.9c-0.2-0.3-0.4-0.6-0.5-1
			c-0.1-0.3-0.1-0.6,0-0.9c0.1-0.3,0.2-0.4,0.4-0.5c0.1,0,0.1,0,0.2,0c0.2,0,0.5,0.1,0.8,0.2c0.7,0.3,1.2,0.6,1.6,1
			c0.4,0.4,0.9,0.9,1.6,1.5c1.1,1,1.7,1.9,1.8,2.9c0.1,1-0.3,2.3-1.1,3.9c1,0.4,1.7,0.9,2.2,1.5c0.5,0.6,0.7,1.1,0.7,1.5
			c0,0.5-0.1,0.8-0.5,1.1c-0.2,0.2-0.5,0.3-0.8,0.3c-0.2,0-0.4,0-0.6-0.1c-0.1,0-0.2,0-0.4,0c-0.2,0-0.5,0-0.8,0.1
			c-0.5,0.1-1,0.3-1.6,0.6c-0.5,0.3-1.1,0.5-1.5,0.9c-0.5,0.3-0.8,0.6-1,1c1.3,0.1,2.4,0.3,3.1,0.8c0.7,0.5,1.3,1.2,1.8,2.3
			c0.6-0.2,1.3-0.7,2.2-1.4c0.9-0.7,1.7-1.6,2.6-2.5c0.9-0.9,1.7-1.8,2.5-2.8c0.8-0.9,1.3-1.8,1.7-2.5c0.3-0.5,0.3-1.1,0-1.7
			c-0.3-0.6-0.8-1.1-1.7-1.7c-0.7-0.4-0.9-0.7-0.5-1c0.1-0.1,0.3-0.2,0.6-0.2c0.4,0,1.1,0.1,1.9,0.4c0.8,0.2,1.5,0.7,2.2,1.4
			c0.7,0.7,1.2,1.3,1.5,2c0.2,0.4,0.3,0.8,0.3,1.2c0,0.4,0,0.8-0.2,1.3c-0.1,0.4-0.3,0.8-0.5,1.2c-0.2,0.4-0.4,0.6-0.6,0.8
			c-0.5,0.4-0.8,0.7-1,0.9c-0.2,0.2-0.4,0.3-0.5,0.4c-0.1,0.1-0.3,0.3-0.5,0.5c-0.2,0.2-0.6,0.6-1.1,1.2c1.2,0.2,2.3,0.5,3.4,1
			c1.1,0.4,2,0.9,2.8,1.4c0.8,0.5,1.5,1,2,1.6c0.6,0.5,0.9,1,1.1,1.4c0.6,1.1,0.9,1.8,0.8,2.1c-0.1,0.3-0.4,0.4-1,0.4
			c-0.1,0-0.2,0-0.4,0c0,0-0.1,0-0.1,0c-0.2,0-0.6,0.1-0.9,0.2c-0.5,0.1-1,0.3-1.6,0.6c-0.8,0.4-1.7,0.7-2.6,1.1
			c-0.9,0.3-1.7,0.6-2.5,0.9c0.6,0.8,1.1,1.5,1.4,2.1c0.3,0.6,0.5,1.2,0.7,1.9c0.1,0.6,0.1,1.4,0.1,2.1c-0.1,0.8-0.2,1.8-0.5,3
			c-0.2,0.8-0.4,1.8-0.7,3c-0.3,1.2-0.6,2.4-1,3.7c-0.3,1.2-0.7,2.4-1,3.6c-0.3,1.1-0.6,2-0.8,2.7c-0.6,1.7-1.1,3-1.7,3.9
			c-0.6,0.9-1.2,1.6-1.7,1.9c-0.3,0.2-0.6,0.3-0.9,0.3c-0.2,0-0.4,0-0.6-0.1c-0.5-0.2-0.9-0.6-1.2-1.2c-0.5-1-0.8-1.8-1.1-2.5
			c-0.3-0.7-0.5-1.3-0.6-2c-0.1-0.6-0.2-1.3-0.3-2.1c-0.1-0.7-0.1-1.7-0.1-2.9c-0.6,1.6-1.2,2.8-1.7,3.5c-0.4,0.6-0.8,0.9-1.3,0.9
			c-0.1,0-0.2,0-0.3,0c-0.5-0.2-1.1-0.8-1.6-1.8c-0.6-1.1-1.2-2.6-1.8-4.5c-0.5,0.7-1,1.1-1.5,1.3c-0.3,0.2-0.6,0.2-0.8,0.2
			c-0.1,0-0.2,0-0.4-0.1c-0.3-0.1-0.5-0.4-0.7-0.8c-0.1-0.4-0.1-0.9,0.1-1.6c0.1-0.4,0.2-0.6,0.3-0.9c0.1-0.2,0.3-0.5,0.6-0.8
			c0.3-0.3,0.7-0.7,1.2-1.1c0.5-0.4,1.2-1,2.1-1.7c0.2-0.2,0.3-0.4,0.3-0.7c0-0.3-0.2-0.5-0.6-0.7c-0.4-0.2-1-0.4-1.8-0.6
			c-0.6-0.1-1.3-0.2-2.1-0.2c-0.4,0-0.7,0-1.2,0c-0.6,2.1-1.2,3.9-1.6,5.4c-0.4,1.5-0.8,2.7-1.1,3.7c-0.3,0.9-0.5,1.7-0.7,2.1
			c-0.2,0.5-0.3,0.8-0.4,0.9c-0.3,0.4-0.6,0.7-0.9,0.7c-0.1,0-0.3,0-0.4-0.1c-0.5-0.3-0.9-1.3-1.2-3c-0.1-0.5-0.1-0.9-0.2-1.2
			c0-0.3,0-0.6,0-0.9c0-0.2,0.1-0.5,0.2-0.8c0.1-0.3,0.2-0.6,0.4-0.9c0.2-0.4,0.5-1.1,0.8-2.1c0.4-1,0.7-2,1.1-3
			c-1.3,0.9-2.6,1.3-3.9,1.3c-0.2,0-0.4,0-0.6,0c-1.5-0.2-2.8-0.7-3.9-1.7c-0.1,0.4-0.2,0.8-0.3,1.3c-0.1,0.5-0.2,0.9-0.4,1.4
			c-0.1,0.5-0.3,0.9-0.4,1.3c-0.1,0.4-0.3,0.7-0.4,0.9c-0.3,0.6-0.5,1.2-0.7,1.7c-0.2,0.5-0.3,1-0.3,1.4c-0.2,0.9-0.4,1.4-0.8,1.5
			c-0.1,0-0.1,0-0.2,0c-0.4,0-0.9-0.3-1.5-0.8c-0.7-0.7-1.3-1.7-1.7-3c-0.4-1.2-0.5-2.6-0.4-4.1c0.1-1.7,0.4-3.8,0.9-6.2
			c0.5-2.4,1.3-5.3,2.3-8.8c0.3-1.2,0.6-2.1,0.9-2.8c0.2-0.7,0.4-1.4,0.6-1.9c0.2-0.5,0.4-1,0.5-1.3c0.2-0.4,0.3-0.8,0.5-1.2
			c0.4-1,0.8-1.8,1.1-2.4c0.4-0.6,0.7-1.2,1-1.6c0.3-0.4,0.7-0.8,1-1c0.4-0.3,0.7-0.5,1.1-0.7c0.8-0.4,1.5-0.8,2-1.1
			c0.5-0.3,0.9-0.5,1.2-0.7c0.3-0.2,0.5-0.4,0.6-0.6c0.1-0.2,0.2-0.5,0.2-0.8c0.2-0.9,0.2-1.8,0.2-2.7c0-0.9-0.1-1.7-0.4-2.1
			c-0.3-0.8-0.4-1.3-0.3-1.4C205.1,521.6,205.1,521.6,205.2,521.6 M195,557c0.3-0.2,0.5-0.4,0.8-0.7c0.2-0.2,0.4-0.5,0.7-0.9
			c0.2-0.4,0.5-0.8,0.9-1.3c0.3-0.5,0.8-1.2,1.3-2c0.1-0.3,0.3-0.6,0.6-1c0.3-0.4,0.5-0.8,0.9-1.2c0.3-0.4,0.6-0.8,0.9-1.2
			c0.3-0.4,0.6-0.7,0.8-0.9c0.5-0.6,0.9-0.9,1.1-0.9c0.1,0,0.1,0,0.1,0.1c0.2,0.2,0,0.7-0.6,1.5c-0.5,0.8-0.9,1.4-1.2,1.8
			c-0.3,0.4-0.6,0.9-1,1.3c-0.3,0.6-0.7,1.3-1,2.3c-0.3,0.9-0.5,1.8-0.6,2.5c0.4,0,1-0.1,1.8-0.2c0.8-0.1,1.7-0.3,2.7-0.5
			c1-0.2,1.9-0.4,2.8-0.6c0.9-0.2,1.6-0.4,2.1-0.6c0.2-0.8,0.4-1.4,0.3-1.7c0-0.3-0.3-0.5-0.9-0.5c-0.7,0-1.3-0.1-1.6-0.4
			c-0.4-0.2-0.6-0.5-0.7-0.8c-0.1-0.3-0.1-0.6,0.1-1c0.2-0.3,0.4-0.6,0.7-0.9c-0.2-0.9-0.4-1.6-0.5-2.1c-0.1-0.6-0.2-1.1-0.2-1.4
			c0-0.4,0-0.7,0-1c0-0.3,0.1-0.6,0.2-1c0.1-0.3-0.1-0.5-0.4-0.7c-0.2-0.1-0.2-0.3-0.2-0.7c0-0.4,0.2-0.8,0.4-1.2
			c0.2-0.4,0.5-0.8,0.8-1.1c0.3-0.4,0.6-0.6,1-0.7c0.2,0,0.3-0.1,0.5-0.1c0.3,0,0.5,0.1,0.6,0.2c0.2,0.2,0.2,0.7-0.1,1.5
			c0.8-0.5,1.4-0.9,1.9-1.2c0.5-0.3,0.9-0.6,1.2-0.7c0.3-0.2,0.6-0.3,0.9-0.4c0.3-0.1,0.6-0.2,1-0.3c0.1-0.1,0.1-0.2,0.2-0.3
			c0-0.1,0.1-0.2,0.2-0.3c-0.4-0.4-0.8-0.7-1.1-0.9c-0.3-0.2-0.6-0.5-0.9-0.8c-0.3-0.3-0.6-0.5-0.9-0.8c-0.3-0.3-0.8-0.7-1.3-1.1
			c-0.7-0.6-1.4-1-2-1.3c-0.6-0.3-1.1-0.5-1.4-0.5c0,0,0,0,0,0c-0.5,0-0.9,0-1.3,0c-1.9,0-3.2,0.3-4,1c-0.9,0.8-1.3,2.3-0.9,4.3
			c0.2,1.2,0.4,2.3,0.4,3.1c0,0.9,0,1.7-0.2,2.5c-0.2,0.8-0.5,1.7-1,2.6c-0.5,0.9-1.1,2-2,3.3c-0.3,0.4-0.5,1-0.7,1.7
			c-0.2,0.8-0.4,1.5-0.6,2.4c-0.2,0.8-0.3,1.6-0.3,2.3C194.9,556.3,194.9,556.8,195,557 M212.9,542.2c-1,0-2-0.1-3.1-0.2
			c-0.2,0-0.3,0-0.4,0c-0.2,0-0.4,0-0.5,0.1c-0.2,0.1-0.3,0.3-0.5,0.6c0,0.3,0,0.5,0,0.9c0,0.3,0,0.7,0,1.1c1.9-0.7,3.4-1.2,4.5-1.5
			c1-0.3,1.7-0.4,2.3-0.4c0.1,0,0.1,0,0.2,0c0.6,0,1.1,0.2,1.4,0.6c0.3,0.4,0.7,1,1.1,1.7c0.4-0.9,0.8-1.7,1-2.2
			c0.2-0.6,0.3-1,0.3-1.3c0-0.3-0.1-0.5-0.2-0.5c0,0-0.1,0-0.2,0c-0.1,0-0.3,0-0.5,0.1c-1.7,0.6-3.2,0.9-4.4,1
			C213.5,542.2,213.2,542.2,212.9,542.2 M222.6,545.4C222.6,545.4,222.6,545.4,222.6,545.4c-0.6,0.6-1.1,1.2-1.6,1.8
			c-0.5,0.6-1.1,1.2-1.6,1.8c1.1-0.4,2.2-0.7,3.3-0.8c0.8-0.1,1.4-0.1,2-0.1c0.3,0,0.5,0,0.7,0c0.3,0,0.6-0.1,0.7-0.2
			c0.2-0.1,0.4-0.2,0.7-0.4c0.1-0.1,0.3-0.2,0.5-0.3c0.2-0.1,0.5-0.2,1-0.3c0.4-0.1,1-0.3,1.7-0.4c0.7-0.1,1.6-0.3,2.8-0.5
			c0.3-0.1,0.6-0.3,0.7-0.6c0.1-0.3,0-0.6-0.3-1c-0.3-0.4-0.8-0.8-1.6-1.2c-0.8-0.4-1.9-0.8-3.3-1.2c-0.3,0.2-0.7,0.5-1.3,0.9
			c-0.5,0.4-1.1,0.8-1.6,1.2c-0.6,0.4-1.1,0.7-1.6,1C223.3,545.3,222.9,545.4,222.6,545.4 M207.8,548.5c0.2-0.1,0.5-0.3,0.8-0.4
			c0.3-0.1,0.7-0.3,1.2-0.4c0-0.4-0.1-0.7-0.3-0.9c-0.2-0.2-0.6-0.4-1.2-0.5c-0.1,0.4-0.2,0.7-0.2,1.1
			C207.9,547.7,207.9,548.1,207.8,548.5 M212.7,547.7C212.8,547.7,212.8,547.7,212.7,547.7c0.4,0,0.7,0,1.1,0.1
			c0.4,0,0.9,0.1,1.4,0.2c0.3-0.3,0.5-0.5,0.7-0.7c0.2-0.2,0.4-0.5,0.6-0.8c0,0-0.1,0-0.1,0c-0.8,0-1.6,0.1-2.3,0.5
			C213.5,547.2,213,547.5,212.7,547.7 M226.5,551.8c0.6-0.2,1.1-0.6,1.3-1.3c0,0-0.1,0-0.1,0c-0.3,0-0.5,0-0.7-0.1
			c-0.1,0-0.3,0-0.4,0c-0.1,0-0.2,0-0.3,0c0,0.3,0,0.5,0.1,0.7C226.5,551.4,226.5,551.6,226.5,551.8 M214.6,552
			C214.6,552,214.6,552,214.6,552c0,0.6,0.3,1.1,0.7,1.6c0.4,0.5,0.9,0.7,1.3,0.7c0,0,0,0,0,0c0.3-0.1,0.6-0.2,0.9-0.2
			c0.4,0,0.8,0.1,1.2,0.2c0.9,0.3,1.7,0.9,2.5,1.7c0.4-1,0.8-1.7,1-2.3c0.2-0.6,0.3-1,0.4-1.3c0-0.3,0-0.4-0.1-0.4c0,0,0,0,0,0
			c-0.1,0-0.3,0.1-0.5,0.3c-0.4,0.4-0.8,0.7-1,0.9c-0.3,0.2-0.5,0.4-0.7,0.5c-0.1,0.1-0.3,0.1-0.4,0.1c-0.1,0-0.1,0-0.2,0
			c-0.2,0-0.4-0.1-0.7-0.2c-1.1-0.4-1.8-0.7-2.1-1c-0.3-0.3-0.3-0.8-0.2-1.5c-0.5,0.3-1,0.5-1.2,0.7C215.3,551.9,215,552,214.6,552
			 M212.1,553.9c0.2,0,0.5,0,0.7,0c0,0,0.1,0,0.1,0c0.2,0,0.5,0,0.8,0c0.1-0.4,0.2-0.8,0-1.2c-0.1-0.3-0.3-0.5-0.5-0.5c0,0,0,0,0,0
			c-0.3,0.1-0.6,0.2-0.7,0.5C212.4,552.9,212.2,553.3,212.1,553.9 M225.3,556.5c0.9-0.2,1.7-0.3,2.3-0.3c0.3,0,0.5,0,0.7,0.1
			c0.7,0.1,1.4,0.7,2.1,1.6c0.2-1.3,0.3-2.3,0.4-3.1c0-0.8,0-1.3-0.1-1.7c-0.1-0.4-0.2-0.5-0.4-0.5c0,0,0,0,0,0
			c-0.2,0-0.3,0.1-0.5,0.3c-0.7,0.8-1.3,1.4-1.9,1.8c-0.6,0.4-1.3,0.7-2.3,0.8c0,0.2-0.1,0.4-0.2,0.5
			C225.5,556.1,225.4,556.3,225.3,556.5 M225.7,570.6c0.1,0,0.2-0.1,0.4-0.2c0.3-0.3,0.7-1.3,1.3-2.8c-1.5-0.9-2.5-1.7-3-2.4
			c-0.5-0.7-0.6-1.4-0.4-2c0.1-0.4,0.2-0.7,0.3-0.9c0.1-0.2,0.2-0.5,0.4-0.7c0.2-0.2,0.4-0.5,0.7-0.8c0.3-0.3,0.7-0.6,1.1-1.1
			c-0.2-0.1-0.5-0.3-0.9-0.4c-0.4-0.1-0.8-0.2-1.2-0.3c-0.1,0.1-0.2,0.5-0.3,1c-0.2,0.5-0.3,1.1-0.5,1.7c-0.2,0.6-0.3,1.2-0.5,1.8
			c-0.1,0.6-0.3,1-0.3,1.3c0.2,0.8,0.6,1.7,1,2.8c0.4,1.1,1,2,1.5,2.7C225.4,570.5,225.5,570.6,225.7,570.6 M220.5,559.9
			c-0.6,0.6-1.2,1.3-1.8,1.9c-0.6,0.6-1.2,1.2-1.7,1.8c0.7,0.7,1.2,1.1,1.4,1.2c0,0,0.1,0,0.1,0c0.2,0,0.3-0.1,0.4-0.3
			c0.1-0.1,0.2-0.4,0.3-0.7c0.1-0.3,0.3-0.7,0.4-1.1c0.1-0.4,0.3-0.9,0.4-1.3C220.3,560.8,220.4,560.3,220.5,559.9 M229.7,560.6
			c-0.6,0.2-1.2,0.4-1.8,0.8c-0.6,0.3-1,0.7-1.3,1.1c0.9,0.4,1.6,1,2,1.6c0.2-0.4,0.4-1,0.6-1.6
			C229.4,561.8,229.5,561.2,229.7,560.6 M594.3,528.8c0.2,0,0.5,0.1,0.8,0.2c0.3,0.1,0.7,0.3,1.2,0.4c0.5,0.2,1,0.3,1.5,0.5
			c0.6,0.2,1.1,0.4,1.5,0.8c0.4,0.4,0.7,1.1,1.1,2.3c0.1,0.4,0.2,0.8,0.3,1.3c0,0.5,0,0.8-0.2,1.1c-0.5,0.6-0.8,1.4-1.1,2.2
			c-0.2,0.9-0.4,1.7-0.5,2.4c-0.1,0.6-0.2,1.1-0.3,1.5c-0.1,0.4-0.2,0.8-0.3,1.2c0,0.1,0,0.3,0.1,0.5c0.1,0.2,0.3,0.4,0.5,0.5
			c1.8,0.7,3.2,1.4,4.4,2.2c1.2,0.8,2.1,1.8,2.8,3c0.7,1.2,1.2,2.6,1.5,4.2c0.3,1.6,0.4,3.6,0.4,5.8c0,1.6-0.1,2.6-0.3,3
			c-0.1,0.3-0.3,0.5-0.6,0.5c-0.1,0-0.3,0-0.4-0.1c-0.4-0.2-1-0.3-1.8-0.5c-0.8-0.2-1.5-0.3-2.2-0.4c-0.5,0-1.2-0.2-1.9-0.3
			c-0.8-0.2-1.6-0.4-2.4-0.6c0.4,2,0.8,3.7,1.2,5.3c0.3,1.6,0.6,3,0.9,4.3c0.2,1.3,0.5,2.5,0.6,3.6c0.2,1.1,0.4,2.1,0.5,3.1
			c0.1,1,0,1.5-0.2,1.6c0,0-0.1,0-0.1,0c-0.2,0-0.4-0.2-0.6-0.6c-0.5-1.2-1-2.2-1.4-3.2c-0.4-1-0.8-2-1.2-3.1
			c-0.4-1.1-0.9-2.3-1.4-3.7c-0.5-1.3-1.1-3-1.7-4.9c-0.4-1.2-0.8-2.3-1.2-3.3c-0.4-1-0.7-1.8-0.9-2.4c-1-0.9-1.8-1.8-2.5-2.9
			c-0.6-1-1.3-2.3-1.9-3.9c-0.5,0.4-1.1,0.8-1.8,1.2c-0.7,0.5-1.3,1-2,1.5c-1,0.8-2,1.5-2.8,2c-0.8,0.5-1.5,0.7-2.1,0.7
			c0,0,0,0-0.1,0c-0.4,0.3-0.8,0.7-1.1,1c-0.3,0.3-0.6,0.7-0.9,1.1c-0.4,0.6-0.9,1.1-1.3,1.7c-0.5,0.5-1,1.1-1.5,1.6
			c0.1,0.8,0.5,1.5,1.3,2.2c0.8-0.9,1.5-1.7,2.1-2.3c0.6-0.7,1.1-1.2,1.5-1.8c0.4-0.5,0.7-0.9,1-1.3c0.3-0.4,0.5-0.7,0.8-1.1
			c0.6-0.9,1.2-1.4,1.9-1.7c0.5-0.2,1.1-0.3,1.7-0.3c0.3,0,0.5,0,0.8,0.1c0.4,0.1,0.7,0.2,1.1,0.5c0.3,0.3,0.6,0.7,0.9,1.1
			c0.2,0.4,0.4,0.9,0.5,1.3c0.1,0.4,0.1,0.8-0.1,1.1c-0.2,0.4-0.4,1-0.5,2c-0.2,0.9-0.1,2,0.3,3.3c0.3,0.9,0.4,1.5,0.4,2
			c-0.1,0.5-0.3,0.9-0.7,1.3c-0.3,0.3-1.1,0.8-2.3,1.4c-1.2,0.6-2.7,1.4-4.4,2.2c0.1,0.6,0.4,1.3,0.7,1.9c0.2,0.5,0.2,0.8-0.1,0.8
			c-0.1,0-0.1,0-0.2,0c-0.4-0.1-0.8-0.2-1.2-0.4c-0.4-0.2-0.8-0.4-1.2-0.7c-0.4-0.3-0.9-0.7-1.4-1.2c-0.5-0.5-1.2-1.1-1.9-1.8
			c-0.8-0.8-1.4-1.7-1.9-2.6c-0.5-1-1-2.3-1.5-4c-1.1,0.5-2,1-2.6,1.7c-0.6,0.7-1.3,1.6-1.9,2.8c-0.3,0.5-0.5,0.9-0.8,1.2
			c-0.3,0.3-0.7,0.5-1.3,0.7c-0.3,0.1-0.7,0.2-1,0.2c-0.3,0-0.5,0-0.8-0.1c-0.6-0.1-1.1-0.3-1.6-0.6c-0.4-0.3-0.7-0.6-0.9-0.9
			c-0.2-0.3-0.1-0.6,0.1-0.9c2.1-2.1,4.1-4,5.9-5.7c1.8-1.8,3.5-3.3,5.1-4.5c1.1-0.8,1.9-1.7,2.7-2.4c0.7-0.8,1.3-1.6,1.8-2.3
			c0.5-0.8,0.8-1.6,1.1-2.4c0.2-0.8,0.4-1.8,0.6-2.7c0.1-0.7-0.1-1.2-0.5-1.3c-0.1,0-0.1,0-0.2,0c-0.4,0-0.8,0.3-1.2,0.9
			c-0.4,0.6-0.8,1.3-1.2,2.1c-0.4,0.8-0.8,1.6-1.1,2.5c-0.5,1.3-0.9,2.4-1.2,3.2c-0.3,0.9-0.6,1.4-0.9,1.5c-0.3,0.2-0.6,0.3-0.9,0.3
			c0,0,0,0,0,0c-0.2,0-0.5-0.1-0.7-0.4c-0.3-0.3-0.5-0.7-0.8-1.3c-0.3-0.6-0.7-1.5-1.1-2.5c-0.5-1.2-0.6-2-0.6-2.4
			c0.1-0.4,0.3-0.7,0.7-0.7c0.1,0,0.4-0.2,0.9-0.6c0.4-0.4,0.9-0.8,1.4-1.3c0.5-0.5,0.9-1,1.3-1.5c0.4-0.5,0.6-0.9,0.7-1.2
			c-1.4,0.4-2.6,0.6-3.6,0.6c-0.1,0-0.2,0-0.2,0c-1.1,0-1.9-0.2-2.6-0.5c-0.7-0.3-1.2-0.7-1.6-1.3c-0.4-0.6-0.7-1.2-0.9-2
			c-0.1-0.3-0.1-0.5,0-0.6c0-0.1,0.1-0.1,0.1-0.1c0.1,0,0.2,0.1,0.3,0.2c0.3,0.4,0.8,0.7,1.6,0.7c0.2,0,0.4,0,0.5,0
			c0.6,0,1.2-0.1,1.8-0.4c0.3-0.1,0.7-0.2,1.2-0.5c0.5-0.3,1-0.5,1.6-0.9c0.5-0.3,1-0.7,1.5-1c0.5-0.3,0.8-0.7,1.1-0.9
			c-0.9-0.1-1.9-0.2-3-0.2c-0.2,0-0.3,0-0.5,0c-1,0-2.1,0-3.4,0.1c0.9-0.5,1.6-0.9,2.1-1.2c0.5-0.3,0.9-0.6,1.1-0.8
			c0.2-0.2,0.4-0.4,0.4-0.6c0-0.2,0-0.4-0.1-0.6c-0.3-0.7-0.6-1.3-1-1.7c-0.3-0.5-0.7-1-1.2-1.5c-0.4-0.4-0.6-0.8-0.7-1
			c0-0.2,0.1-0.4,0.3-0.4c0,0,0,0,0,0c0.8-0.1,1.7-0.1,2.8-0.1c0,0,0.1,0,0.1,0c1,0,2.1,0.1,3.3,0.3c0.9,0.2,1.7,0.8,2.4,1.8
			c0.7,1,1.3,2.1,1.7,3.3c0.8,0.1,1.3,0.3,1.6,0.5c0.3,0.2,0.7,0.7,1.1,1.5c0.3,0.6,0,1.5-0.9,2.5c-0.3,0.4-0.7,0.9-1,1.5
			c-0.3,0.6-0.6,1.2-0.9,1.7c0.1,0,0.2,0,0.2,0c1.1,0,1.9,0.2,2.4,0.5c0.6,0.3,1.1,0.9,1.4,1.8c0.2,0.5,0.2,1,0.2,1.5
			c-0.1,0.5-0.2,1.4-0.4,2.6c0.8-0.3,1.5-0.6,2.1-1c0.6-0.3,1.2-0.7,1.7-1c0.2-0.2,0.5-0.3,0.7-0.4c0.2-0.1,0.4-0.2,0.7-0.2
			c0.1,0,0.2,0,0.3,0c0.2,0,0.4,0,0.7,0c0.4,0,0.8,0.1,1.4,0.2l-0.8-3c-0.2,0.1-0.4,0.1-0.6,0.2c-0.2,0.1-0.5,0.2-0.7,0.3
			c-0.2,0.1-0.3,0.1-0.4,0.1c-0.3,0-0.4-0.2-0.5-0.6c0-0.6,0.5-1.4,1.5-2.6c-0.1-0.4-0.2-0.7-0.3-1.1c-0.1-0.3-0.2-0.7-0.2-1
			c-0.1-0.6-0.3-1.3-0.4-2c-0.1-0.7-0.3-1.4-0.4-2.1c0-0.2-0.1-0.4-0.3-0.4c-0.1,0-0.1,0-0.2,0c-0.3,0.1-0.7,0.4-1,0.9
			c-0.1,0.1-0.2,0.2-0.3,0.2c-0.1,0-0.2-0.1-0.2-0.2c-0.2-0.2-0.3-0.9-0.3-1.9c-0.1-2,0.6-3.3,2.2-3.7c0.2,0,0.3-0.1,0.5-0.1
			c0.2,0,0.5,0,0.7,0.1c0.4,0.1,0.8,0.4,1.2,0.7c0.4,0.3,0.7,0.8,1,1.3c0.3,0.5,0.5,1.1,0.6,1.8c0.1,0.7,0.2,1.4,0.4,2
			c0.7-0.8,1.3-1.5,1.5-2.2c0.3-0.7,0.4-1.4,0.3-2c0-0.3,0-0.6,0-1c0.1-0.4,0.2-0.7,0.4-0.9c0.2-0.3,0.4-0.4,0.8-0.6
			C594,528.8,594.1,528.8,594.3,528.8 M593.7,546.3c0.1-0.6,0.2-1.1,0.4-1.4c0.2-0.3,0.4-0.6,0.6-0.8c0.3-0.2,0.5-0.7,0.7-1.5
			c0.2-0.8,0.3-1.7,0.4-2.7c0.1-1,0.1-2,0.1-3.1c0-1.1-0.1-2-0.2-2.7c-0.1-0.5-0.2-0.7-0.4-0.7c0,0-0.1,0-0.1,0
			c-0.2,0.1-0.4,0.4-0.4,0.8c0,0.3-0.2,0.9-0.7,1.9c-0.4,0.9-1.2,2.2-2.2,3.8c0.1,0.3,0.2,0.8,0.3,1.4c0.2,0.6,0.3,1.2,0.5,1.9
			c0.2,0.6,0.4,1.2,0.5,1.8C593.5,545.6,593.7,546,593.7,546.3 M597.4,556.5c0.1,0,0.2,0,0.4,0c0.4,0,0.8-0.1,1.2-0.1
			c0.4-0.1,0.9-0.2,1.4-0.2c0.5-0.1,1-0.2,1.4-0.3c1.3-0.3,2.1-0.7,2.4-1.1c0.3-0.4,0.4-0.8,0.3-1.2c-0.5-1.7-1.2-2.9-2-3.7
			c-0.6-0.6-1.2-0.9-1.8-0.9c-0.2,0-0.3,0-0.5,0.1c-0.6,0.2-1.3,0.4-2.2,0.6c-0.9,0.2-1.9,0.4-3.1,0.4c0.1,0.4,0.3,0.9,0.5,1.5
			c0.2,0.6,0.4,1.2,0.6,1.8c0.2,0.6,0.4,1.2,0.6,1.8c0.2,0.6,0.4,1,0.5,1.3C597.1,556.4,597.3,556.5,597.4,556.5 M591.8,554.3
			l-1.6-5.2c-0.2,0.2-0.5,0.3-0.8,0.5c-0.3,0.2-0.5,0.3-0.6,0.5C589.5,551.5,590.5,553,591.8,554.3 M579.6,555.3
			c0.4-0.3,0.8-0.6,1.1-1c0.3-0.3,0.5-0.6,0.6-0.8c0.1-0.2,0.2-0.4,0.1-0.5c0,0,0,0-0.1,0c-0.1,0-0.1,0-0.2,0.1
			c-0.7,0.5-1.1,0.8-1.3,1.2C579.6,554.6,579.6,555,579.6,555.3 M579.9,568.1c0.3-0.1,0.6-0.2,1-0.4c0.3-0.2,0.7-0.5,1-0.8
			c0.3-0.3,0.6-0.7,0.9-1.1c0.3-0.4,0.4-0.9,0.6-1.3c0.4-1.5,0.5-2.6,0.4-3.3c-0.1-0.4-0.2-0.6-0.3-0.6c-0.1,0-0.3,0.1-0.5,0.4
			c-0.6,0.9-1.2,1.6-1.9,2.3c-0.7,0.6-1.3,1.1-1.8,1.5c-0.3,0.2-0.5,0.4-0.6,0.7c-0.1,0.3,0,0.7,0.3,1.2c0.2,0.3,0.4,0.5,0.5,0.8
			C579.6,567.5,579.7,567.8,579.9,568.1 M289,539.5c0.5,0,1,0.1,1.4,0.3c1.2,0.5,2.2,1.5,3,3.1c0.4,0.7,0.6,1.3,0.6,1.8
			c0,0.5,0,1-0.1,1.3c-0.1,0.4-0.3,0.6-0.5,0.8c-0.2,0.2-0.4,0.2-0.7,0.2c0,0,0,0,0,0c0,0,0,0-0.1,0c-0.2,0-0.5,0.1-0.8,0.2
			c-0.3,0.1-0.7,0.3-1.1,0.7c-0.5,0.3-1,0.8-1.6,1.5c-0.6,0.6-1.5,1.5-2.5,2.6c0.3,0.5,0.4,1,0.5,1.3c0,0.3,0,0.7-0.1,1
			c0.1,0,0.1,0,0.2,0c0.9,0,1.7,0.2,2.5,0.6c0.8,0.4,1.6,1,2.2,1.7c0.6,0.7,1,1.4,1.3,2.3c0.3,0.8,0.3,1.6,0.1,2.4
			c-0.2,0.8-0.4,1.6-0.6,2.5c-0.2,0.9-0.4,2-0.6,3.3c-0.2,1.3-0.5,3-0.8,5c-0.3,2-0.7,4.5-1.1,7.5c-0.2,0.9-0.3,1.7-0.4,2.4
			c-0.1,0.7-0.3,1.3-0.5,1.8c-0.2,0.5-0.3,1-0.5,1.5c-0.2,0.5-0.4,0.9-0.7,1.4c1.7,0.5,3.2,0.9,4.4,1.1c1.3,0.3,2.6,0.5,4.1,0.8
			c0.4,0.1,0.7,0.2,1,0.5c0.3,0.2,0.4,0.5,0.4,0.8c0,0.3-0.1,0.6-0.4,1c-0.3,0.4-0.8,0.7-1.5,0.9c-0.2,0.1-0.5,0.1-1,0.2
			c-0.5,0.1-1.1,0.2-1.8,0.3c-0.7,0.1-1.5,0.2-2.3,0.3c-0.8,0.1-1.6,0.2-2.4,0.2c-0.1,0-0.1,0-0.2,0c-0.4,0-1-0.1-1.6-0.3
			c-0.7-0.2-1.8-0.7-3.1-1.6c-0.8-0.6-1.8-1.2-3.1-2c-1.2-0.8-2.5-1.6-3.8-2.4c-1.3-0.8-2.5-1.5-3.7-2.2c-1.2-0.7-2.1-1.1-2.8-1.4
			c-1.4-0.6-2.7-1-4-1.4c-1.3-0.3-2.5-0.5-3.6-0.7c-0.7-0.1-1.4-0.1-2-0.1c-0.3,0-0.5,0-0.8,0c-0.8,0.1-1.3,0.2-1.6,0.3
			c-0.2,0.1-0.4,0.2-0.6,0.2c-0.2,0-0.4-0.1-0.5-0.2c-0.3-0.3-0.6-1-0.9-2.2c-0.3-1.1-0.4-1.9-0.1-2.4c0.2-0.4,0.4-0.6,0.8-0.6
			c0.2,0,0.4,0,0.7,0.1c0.4,0.2,0.8,0.3,1.2,0.3c0.2,0,0.3,0,0.5,0c0.6-0.1,1-0.3,1.4-0.6c0.4-0.3,0.6-0.6,0.8-0.9
			c0.1-0.3,0.1-0.6-0.1-0.8c-0.6-0.5-1.1-1.1-1.5-1.8c-0.4-0.7-0.7-1.4-0.9-2.2c-0.2-0.8-0.2-1.6,0-2.4c0.2-0.8,0.6-1.7,1.2-2.6
			c0.4-0.5,0.5-0.9,0.5-1.1c-0.1-0.2-0.5-0.3-1.4-0.3c-0.5,0-1-0.3-1.3-0.8c-0.3-0.5-0.6-1.5-0.8-3c-0.1-0.5-0.1-1.1,0.1-1.7
			c0.1-0.6,0.3-1.2,0.6-1.8c0.3-0.6,0.6-1.1,1-1.6c0.4-0.5,0.9-0.9,1.4-1.2c0.7-0.5,1.3-0.9,1.8-1.2c0.4-0.3,0.7-0.6,0.9-0.8
			c0.2-0.2,0.3-0.4,0.3-0.6c0-0.1,0-0.3-0.1-0.4c-0.2-0.3-0.4-0.8-0.7-1.3c-0.3-0.5-0.5-1-0.6-1.4c-0.2-0.6-0.2-1,0-1.4
			c0.1-0.3,0.4-0.4,0.7-0.4c0.1,0,0.2,0,0.3,0c2.3,0.4,4.1,1,5.1,1.9c1.1,0.9,1.7,2.2,2,3.9c0.1,0.9,0,1.5-0.3,1.8
			c-0.3,0.3-0.7,0.4-1.2,0.4c0,0-0.1,0-0.2,0c0,0-0.1,0-0.1,0c-0.3,0-0.8,0.1-1.5,0.2c-0.7,0.2-1.5,0.4-2.3,0.7
			c-0.8,0.3-1.6,0.5-2.4,0.8c-0.8,0.3-1.3,0.5-1.7,0.7c-0.3,0.2-0.6,0.4-0.8,0.7c-0.2,0.2-0.3,0.5-0.3,0.7c0,0.3,0,0.5,0.2,0.6
			c0.1,0.2,0.4,0.3,0.7,0.3c1.2,0.1,2.2,0.5,3.1,1.1c0.8,0.7,1.5,1.5,1.8,2.4c0.4,0.9,0.5,1.8,0.4,2.7c-0.1,0.9-0.5,1.6-1.1,2.2
			c-0.9,0.8-1.4,1.4-1.6,1.7c-0.1,0.3,0,0.7,0.4,1.2c0.4,0.6,0.8,1.2,1,1.9c0.3,0.7,0.5,1.4,0.6,2.1c0.1,0.7,0.2,1.4,0.2,2
			c0,0.6-0.1,1.1-0.3,1.5c0.6,0.2,1,0.4,1.4,0.5c0.4,0.1,0.8,0.3,1.1,0.4c0.3,0.1,0.7,0.3,1,0.4c0.3,0.1,0.7,0.3,1.2,0.4
			c-0.2-0.8-0.4-1.5-0.6-2.1c-0.1-0.6-0.2-1.2-0.2-1.7c0-0.6,0.1-1.2,0.3-1.8c0.2-0.6,0.4-1.4,0.8-2.4c0.8-2.3,1.3-4.1,1.4-5.3
			c0.1-1.2,0.1-2.1-0.1-2.5c-0.1-0.3-0.2-0.6-0.3-1c-0.1-0.4-0.1-0.8-0.2-1.3c0-0.4,0-0.8,0-1.2c0-0.3,0-0.6,0.1-0.8
			c0.1-0.4,0.2-0.7,0.4-1c0.2-0.2,0.4-0.3,0.6-0.3c0,0,0,0,0,0c0.2,0,0.4,0.1,0.5,0.3c0.2,0.2,0.2,0.5,0.3,0.8c0,0.5,0.1,1,0.3,1.5
			c0.2,0.5,0.5,1.2,0.9,2c0.6-1,1.2-1.9,1.8-2.5c0.6-0.7,1.4-1.3,2.4-2c-0.9,0.1-1.7,0.2-2.2,0.2c-0.4,0-0.6,0-0.7-0.1
			c-0.2-0.2-0.1-0.4,0.5-0.5c0.7-0.2,1.5-0.5,2.4-0.9c0.9-0.4,2.2-1.1,3.6-2c0.5-0.3,0.8-0.5,0.8-0.7c0.1-0.2,0-0.3-0.2-0.5
			c-0.4-0.2-0.8-0.7-1.4-1.4c-0.5-0.7-0.9-1.3-1.2-1.9c-1.3,0.9-2.2,1.4-2.7,1.4c0,0,0,0,0,0c-0.5,0-0.8-0.2-0.9-0.8
			c-0.4-1-0.7-2.3-0.8-3.7c-0.1-1.4,0-2.9,0.4-4.4c0.2-0.6,0.4-0.9,0.7-1c0,0,0,0,0,0c0.3,0,0.6,0.4,0.8,1.3
			c0.2,0.5,0.4,0.8,0.6,0.9c0.1,0,0.1,0,0.2,0c0.2,0,0.6-0.1,1.1-0.2c1.4-0.5,2.9-1,4.3-1.6c1.4-0.6,2.6-1.1,3.4-1.6
			C287.5,539.7,288.3,539.5,289,539.5 M282.7,549.2c0.4,0,0.9-0.2,1.3-0.5c0.5-0.3,1.1-0.9,1.7-1.7c0.6-0.8,1.4-1.9,2.2-3.3
			c0.3-0.6,0.5-0.9,0.4-0.9c0,0,0,0,0,0c-0.1,0-0.4,0.3-0.9,0.8c-0.6,0.7-1.5,1.6-2.6,2.5c-1.1,0.9-2.4,1.8-3.7,2.7
			c0.5,0.3,1,0.4,1.4,0.5C282.7,549.2,282.7,549.2,282.7,549.2 M282.5,569.2c0.1,0,0.1,0,0.2,0c0.8,0,1.5,0.2,2.1,0.5
			c0.6,0.3,1,1,1.1,2c0.1,0.8,0,1.2-0.3,1.4c-0.2,0.2-0.5,0.3-0.8,0.3c-0.1,0-0.1,0-0.2,0c-0.6,0-1.1,0-1.6,0.1
			c-0.5,0-1.1,0.1-1.7,0.3c-0.6,2.1-1.1,3.9-1.6,5.4c-0.5,1.5-0.9,2.7-1.2,3.6c1.7,0.8,3,1.4,4.1,1.9c1.1,0.4,1.9,0.8,2.6,1.1
			c-0.4-0.6-0.8-1.3-1.2-2c-0.4-0.7-0.7-1.3-1.1-1.9c-0.3-0.6-0.6-1.2-0.8-1.7c-0.2-0.5-0.3-0.9-0.4-1.2c-0.2-0.9-0.3-1.5-0.1-1.8
			c0.1-0.1,0.2-0.2,0.3-0.2c0.1,0,0.3,0.1,0.5,0.3c0.7,0.7,1.3,1.2,1.8,1.5c0.4,0.4,0.8,0.5,1.1,0.6c0,0,0.1,0,0.1,0
			c0.2,0,0.4-0.1,0.5-0.4c0.1-0.3,0.3-0.7,0.4-1.2c0.3-2,0.7-3.9,1-5.9c0.3-1.9,0.6-3.7,0.9-5.4c0.2-1.6,0.4-3,0.6-4.2
			c0.1-1.2,0.2-2,0.2-2.4c-0.1-1-0.5-1.6-1.1-1.9c-0.2-0.1-0.5-0.1-0.8-0.1c-0.6,0-1.3,0.2-2.2,0.5c-0.1,0.4-0.1,0.9-0.2,1.5
			c-0.1,0.6-0.2,1.1-0.3,1.5c0.5,0.2,0.8,0.5,0.9,0.9c0.2,0.4,0.2,0.8,0.2,1.3c0,0.4-0.1,0.8-0.3,1.2c-0.2,0.4-0.4,0.6-0.6,0.6
			c-0.5,0.2-0.9,0.5-1.1,1C283.1,567,282.8,567.9,282.5,569.2 M280.5,559.6c-0.6,0.2-1.3,0.3-2,0.5c-0.7,0.1-1.4,0.3-2.2,0.5
			c-0.6,0.1-1.1,0.4-1.4,0.9c-0.3,0.4-0.6,1.1-0.8,2.1c0.3-0.1,0.7-0.3,1.3-0.4c0.6-0.2,1.2-0.4,1.8-0.5c0.6-0.2,1.2-0.3,1.8-0.5
			c0.6-0.2,1-0.3,1.4-0.3L280.5,559.6 M277.3,582.2c-0.5-0.8-0.7-1.8-0.6-2.9c0.1-1.1,0.4-2.8,1-4.9c-1.2,0.3-2.1,0.5-2.6,0.5
			c-0.2,0-0.4,0-0.6-0.1c-0.4-0.2-0.6-0.8-0.4-1.9c0.1-0.8,0.2-1.4,0.4-1.9c0.2-0.5,0.4-0.8,0.7-0.8c1.3-0.3,2.2-0.6,2.8-0.9
			c0.6-0.3,1-0.7,1.3-1.2c-1.1-0.2-2.1-0.6-3-1.1c-0.8-0.5-1.5-1-1.8-1.6c0,0.5,0,1.1-0.2,1.8c-0.1,0.7-0.3,1.4-0.6,2.1
			c-0.5,1.3-0.9,2.8-1.3,4.7c-0.4,1.8-0.8,3.7-1.1,5.5c0.6,0.3,1.5,0.6,2.6,1.1C274.9,581.1,276.1,581.7,277.3,582.2 M518.6,540.2
			c0.2,0,0.5,0,0.8,0c0.5,0,1,0.2,1.7,0.5c0.7,0.3,1.2,0.6,1.5,1c0.8,1,1.2,1.8,1.3,2.5c0.1,0.7-0.3,1.4-1,2.1
			c-0.5,0.6-1,1.1-1.4,1.5c-0.4,0.4-1,0.9-1.6,1.5c-0.6,0.6-1.5,1.3-2.5,2.2c-1,0.9-2.3,2.1-4,3.6c1.1,1.3,1.8,2.8,2.1,4.5
			c0.3,1.6,0.3,3.6-0.1,5.8c0.9-0.8,1.9-1.5,2.8-2.2s1.9-1.5,3-2.5c-0.2-0.8-0.3-1.4-0.4-1.8c-0.1-0.5-0.2-0.8-0.3-1.1
			c-0.1-0.3-0.3-0.5-0.5-0.6c-0.2-0.1-0.5-0.3-0.9-0.4c-0.7-0.3-1.2-0.6-1.4-0.9c-0.2-0.4-0.3-0.7-0.2-1.1c0.2-0.5,0.4-0.8,0.6-1
			c0.2-0.2,0.8-0.3,1.6-0.5c0.3-0.1,0.6-0.1,0.8-0.1c0.8,0,1.6,0.3,2.2,0.9c0.6,0.5,1.1,0.9,1.5,1.2c0.5,0.3,1,0.6,1.7,1
			c0.9-0.6,1.6-0.8,2.2-0.8c0.1,0,0.1,0,0.2,0c0.6,0.1,1.1,0.2,1.4,0.3c0.4,0.1,0.7,0.3,0.9,0.4c0.2,0.2,0.4,0.4,0.6,0.7
			c0.2,0.3,0.3,0.6,0.5,1.1c0.4,0.9,0.4,1.5,0.1,1.9c-0.3,0.4-1.2,0.8-2.6,1.1c-0.9,0.2-2,0.8-3.4,1.7c0.1,0.7,0.1,1.4,0.2,2.1
			c0.1,0.8,0.2,1.5,0.3,2.3c0.1,0.8,0.3,1.6,0.4,2.3c0.1,0.7,0.3,1.4,0.4,2c0.7-0.7,1.9-1.4,3.4-2c1.5-0.6,3.2-1.2,5.1-1.7
			c0.5-0.2,1-0.3,1.5-0.3c0.5,0,1,0.1,1.4,0.3c0.9,0.3,1.7,0.9,2.4,1.7c0.7,0.8,1.2,1.8,1.5,2.9c0.4,1.1,0.5,2.3,0.5,3.4
			c-0.1,2.1-0.9,3.2-2.3,3.2c-0.1,0-0.2,0-0.2,0c-1.4-0.1-2.9-0.3-4.5-0.6c-1.6-0.3-3-0.7-4.4-1.1c-0.7-0.2-1.1-0.5-1.2-0.8
			c-0.1-0.3,0.2-0.4,0.9-0.5c0.8-0.1,1.6-0.4,2.4-0.9c0.8-0.5,1.5-1,2.1-1.4c0.9-0.7,1.5-1.3,1.7-1.8c0.3-0.5,0.3-1,0.1-1.3
			c-0.2-0.3-0.5-0.6-1-0.7c-0.3-0.1-0.5-0.1-0.8-0.1c-0.3,0-0.6,0-0.8,0.1c-0.8,0.2-1.8,0.5-3,1.1c-1.2,0.5-2.6,1.5-4.2,2.8
			c0.4,1.5,0.8,3,1.1,4.4c0.3,1.4,0.6,2.8,0.7,4.1c0.2,1.3,0.3,2.5,0.4,3.5c0.1,1,0.1,1.9,0,2.6c-0.1,0.9-0.2,1.3-0.4,1.5
			c-0.1,0-0.1,0.1-0.2,0.1c-0.2,0-0.5-0.1-0.8-0.3c-0.9-0.5-1.9-1-2.8-1.7c-1-0.6-1.9-1.3-2.7-1.9c-0.9-0.6-1.7-1.2-2.4-1.6
			c-0.7-0.5-1.4-0.8-1.9-1.1c-0.3-0.1-0.5-0.2-0.8-0.2c-0.2,0-0.3,0-0.5,0.1c-0.4,0.2-0.6,0.4-0.8,0.8c-0.2,0.6-0.5,1.2-0.6,1.7
			c-0.2,0.5-0.3,1-0.4,1.5c-0.1,0.5-0.3,0.9-0.4,1.4c-0.1,0.5-0.3,1-0.5,1.7c-0.1,0.4-0.3,0.7-0.6,0.9c-0.2,0.1-0.3,0.2-0.5,0.2
			c-0.2,0-0.3,0-0.5-0.1c-0.4-0.1-0.9-0.5-1.4-0.9c-0.5-0.5-1.1-1.2-1.8-2.2c-0.3-0.4-0.5-0.8-0.7-1.2c-0.2-0.4-0.3-0.9-0.3-1.5
			c0-0.6,0-1.3,0.1-2.1c0.1-0.8,0.3-1.8,0.6-2.9c0.3-0.9,0.7-1.4,1.4-1.6c0.1,0,0.3-0.1,0.4-0.1c0.5,0,0.9,0.2,1.2,0.7
			c0.2,0.2,0.5,0.4,0.8,0.4c0,0,0.1,0,0.1,0c0.3,0,0.9-0.2,1.6-0.5c0.8-0.4,1.8-1,3.1-1.9c1.3-0.9,3-2.2,5.2-3.9
			c-0.1-0.5-0.2-1-0.4-1.7s-0.3-1.3-0.4-2.1c-0.1-0.7-0.3-1.4-0.4-2.2c-0.1-0.7-0.2-1.4-0.3-2c-3.2,2.7-5.7,5-7.4,7
			c-1.7,2-2.9,3.4-3.6,4.2c-0.3,0.3-0.6,0.5-1,0.6c-0.1,0-0.2,0-0.3,0c-0.3,0-0.6-0.1-0.8-0.3c-0.4-0.2-0.7-0.7-1.1-1.3
			c-0.3-0.6-0.6-1.5-0.9-2.6c-0.2-1.2-0.3-2-0.1-2.5c0.2-0.5,0.5-0.9,1.1-1.1c0.3-0.1,0.6-0.3,0.8-0.6c0.2-0.3,0.5-0.8,0.8-1.4
			c0.3-0.6,0.6-1.5,0.9-2.5c0.3-1,0.7-2.3,1.1-3.9c0.1-0.5,0.1-1-0.2-1.4c-0.2-0.4-0.6-0.6-1.2-0.6c-0.1,0-0.2,0-0.3,0
			c-0.2,0-0.4,0-0.6,0c-0.9,0-1.5-0.1-1.9-0.4c-0.5-0.3-0.9-1-1.1-2.1c-0.1-0.5-0.1-1-0.1-1.5c0-0.5,0.2-1,0.4-1.4
			c0.2-0.5,0.5-0.9,0.8-1.2c0.3-0.4,0.8-0.6,1.2-0.8c0.3-0.1,0.7-0.2,1-0.5c0.4-0.3,0.8-0.7,1.4-1.3c0.5-0.6,1.2-1.4,1.9-2.4
			c0.7-1,1.6-2.3,2.7-3.8c0.3-0.5,0.3-1,0-1.4c-0.3-0.3-0.3-0.6-0.2-0.9c0.1-0.3,0.3-0.5,0.7-0.8c0.4-0.2,0.8-0.4,1.4-0.5
			C517.8,540.2,518.2,540.2,518.6,540.2 M522.1,583c0.5,0,1-0.1,1.6-0.2c0.6-0.1,1-0.3,1.2-0.5s0.3-0.6,0.3-1.2c0-0.2,0-0.5-0.1-0.8
			c-0.1-0.3-0.1-0.7-0.2-1.1c-0.1-0.4-0.1-0.8-0.3-1.2c-0.1-0.4-0.2-0.7-0.2-1c-1.3,0.9-2.4,1.7-3.1,2.4c-0.8,0.7-1.5,1.5-2,2.5
			c0.1,0.2,0.6,0.5,1.3,0.9C520.9,582.9,521.4,583,522.1,583 M344.8,547.4c0.2,0,0.4,0,0.6,0.1c0.4,0.2,0.8,0.5,1.3,0.8
			c1,0.9,1.7,1.8,2.2,2.5c0.5,0.7,0.8,1.3,0.9,1.9c0.1,0.6,0,1.2-0.2,1.7c-0.2,0.5-0.6,1.1-1.1,1.6c-0.3,0.3-0.5,0.7-0.8,1.2
			c-0.3,0.5-0.6,1-1,1.6c-0.3,0.6-0.7,1.1-1,1.7c-0.3,0.5-0.6,1-0.9,1.4c1.3,0.7,2,1.5,2.1,2.4c0.1,0.8-0.5,1.4-1.8,1.7
			c-1.9,0.4-3.6,0.8-5,1.2c-1.5,0.3-2.8,0.9-3.9,1.6c1.1,0.5,1.8,1.3,2,2.2c0.3,0.9,0.4,2.2,0.4,3.7c1.2,0,2.1-0.1,2.8-0.2
			c0.7-0.1,1.2-0.3,1.5-0.4c0.3-0.2,0.5-0.3,0.5-0.5c0-0.2,0-0.4-0.1-0.5c-0.2-0.3-0.3-0.6-0.2-0.7c0.1-0.1,0.2-0.2,0.5-0.2
			c0.1,0,0.1,0,0.2,0c0.7,0.1,1.3,0.2,1.8,0.2c0.5,0.1,1,0.2,1.4,0.4c0.4,0.2,0.8,0.4,1.1,0.7c0.3,0.3,0.6,0.7,0.9,1.3
			c0.2,0.4,0.2,1,0,1.7c-0.2,0.7-0.7,1.2-1.4,1.5c-0.9,0.4-1.8,0.8-2.8,1.2c-1,0.4-2.3,0.9-4,1.4c-0.2,0.1-0.4,0.1-0.6,0.1
			c-0.2,0-0.5,0-0.8-0.1c-0.5-0.1-1.1-0.5-1.8-1.2c-0.2,0.8-0.4,1.6-0.6,2.3c-0.2,0.7-0.3,1.3-0.4,2c1.3,0.9,2.6,1.7,3.8,2.5
			c1.2,0.7,2.4,1.4,3.6,2c1.2,0.6,2.4,1.2,3.7,1.6c1.2,0.5,2.6,0.9,4,1.3c2,0.6,3.5,1.3,4.6,1.9c1.1,0.6,1.9,1.3,2.3,2.1
			c0.4,0.7,0.5,1.2,0.2,1.7c-0.3,0.4-0.8,0.6-1.5,0.6c-0.1,0-0.2,0-0.3,0c-0.7,0-1.5-0.1-2.2-0.1c-0.3,0-0.6,0-0.9,0
			c-0.5,0-0.9,0-1.3,0c-0.7,0-1.4,0-2.1,0.1c-0.7,0-1.2,0.1-1.7,0.2c-0.1,0-0.3,0-0.4,0c-0.2,0-0.5,0-0.8-0.1
			c-0.5-0.1-1.2-0.5-2.1-1.1c-1-0.6-2.3-1.5-4-2.8c-1.7-1.2-4-2.9-6.7-5c-0.4,0.5-0.7,0.7-0.9,0.7c-0.1,0-0.2,0-0.2-0.1
			c-0.3-0.2-0.5-1-0.6-2.3c-1-1-2-2-2.9-3c-0.9-0.9-1.9-2-2.9-3.1c-1.2,3-2.4,5.4-3.7,7.2c-1.2,1.8-2.4,3.2-3.6,4.2
			c-1.1,1-2.2,1.6-3.1,1.8c-0.5,0.1-1,0.2-1.4,0.2c-0.4,0-0.7,0-0.9-0.1c-0.4-0.1-0.6-0.5-0.5-1c0.1-0.5,0.3-0.8,0.8-1
			c0.4-0.1,0.9-0.3,1.5-0.7c0.5-0.3,1.2-1,1.9-1.9c0.7-0.9,1.5-2.2,2.5-3.9c1-1.7,2.1-3.9,3.4-6.7c-0.9-0.3-1.7-0.5-2.3-0.6
			c-0.3,0-0.6-0.1-1-0.1c-0.4,0-0.8,0-1.2,0.1c0,0-0.1,0-0.1,0c-0.3,0-0.5-0.1-0.5-0.3c0-0.3,0.2-0.5,0.6-0.7c1-0.5,2-0.9,3.1-1.2
			c1-0.3,2-0.5,2.9-0.6c0.4-1.1,0.7-2,1-2.9c0.3-0.9,0.6-1.8,0.9-2.8c0.2-0.7,0.4-1,0.7-1c0,0,0,0,0.1,0c0.3,0.1,0.3,0.5,0.3,1.2
			c0,0.4-0.1,0.7,0,1c0,0.2,0.2,0.5,0.4,0.9c0.6,0.9,1,1.8,1.1,2.6c0.1,0.8-0.1,1.6-0.4,2.4c0.7,0.7,1.3,1.4,2,2
			c0.7,0.6,1.4,1.3,2.2,1.8c0.3-1.2,0.6-2.3,0.7-3.1c0.2-0.8,0.3-1.5,0.4-2.1c0.1-0.6,0.1-1,0.1-1.3c0-0.3-0.1-0.5-0.2-0.7
			c-0.3-0.5-0.4-1-0.5-1.5c-0.1-0.5-0.2-1.2-0.2-2.2c-0.4,0-0.7,0-1.1,0c-0.3,0-0.5,0-0.7,0c-0.4,0-0.8-0.1-1.1-0.3
			c-0.3-0.2-0.5-0.4-0.7-0.7c-0.2-0.3-0.4-0.7-0.6-1.2c-0.8-2-1-4.8-0.7-8.4c0.1-0.9,0-1.7-0.3-2.7c-0.3-0.9-0.8-2-1.5-3.4
			c-0.4-0.8-0.6-1.2-0.4-1.4c0-0.1,0.1-0.1,0.2-0.1c0.2,0,0.4,0.1,0.8,0.3c1,0.8,2.1,1.4,3.3,1.8c1.1,0.4,1.9,1,2.4,1.8
			c0.5,0.8,0.7,1.8,0.4,2.9c-0.2,0.7-0.3,1.5-0.4,2.5c-0.1,1-0.1,1.9-0.1,2.7c0.4-0.2,0.9-0.4,1.5-0.6c0.6-0.2,1.2-0.4,1.8-0.6
			c0.6-0.2,1.3-0.4,1.9-0.6c0.6-0.2,1.2-0.4,1.6-0.6c0.9-1.1,1.7-2.3,2.5-3.8c0.8-1.5,1.5-3,2.2-4.5c0.1-0.3,0.1-0.5-0.1-0.6
			c-0.2-0.1-0.4-0.2-0.7-0.2c0,0,0,0-0.1,0c-0.3,0-0.5,0.1-0.8,0.2c-0.3,0.1-0.6,0.4-0.7,0.6c-0.4,0.5-0.8,0.9-1.3,1.2
			c-0.5,0.3-1,0.5-1.5,0.6c-0.3,0.1-0.6,0.1-0.9,0.1c-0.2,0-0.4,0-0.5,0c-0.5-0.1-0.8-0.2-1.1-0.5c-0.7-0.5-1.2-0.9-1.5-1.1
			c-0.4-0.2-0.8-0.4-1.3-0.6c-0.3-0.1-0.5-0.2-0.5-0.4c0-0.2,0.4-0.5,1-1c1.6-1.1,3.2-1.9,4.7-2.2c0.7-0.1,1.5-0.4,2.4-0.7
			c0.9-0.3,1.8-0.7,2.9-1.2C344.3,547.4,344.6,547.4,344.8,547.4 M464.3,548.5c0.4,0,0.8,0.1,1.4,0.3c1,0.4,1.9,1,2.9,1.7
			c1,0.7,1.9,1.5,2.6,2.3c0.8,0.9,1.4,1.8,1.8,2.7c0.4,0.9,0.6,1.8,0.5,2.7c-0.1,0.3-0.1,0.8-0.2,1.3c0,0.5,0,1.4,0,2.6
			c0,1.2,0.1,2.9,0.3,5.1c0.1,2.2,0.3,5.1,0.6,8.7c1.2-0.5,2.2-0.8,3-1.1c0.8-0.3,1.4-0.4,2-0.5c0.4-0.1,0.8-0.1,1.1-0.1
			c0.1,0,0.1,0,0.2,0c0.3,0,0.6,0.1,0.9,0.2c1.7,0.5,2.7,1.1,3,1.6c0.4,0.6,0.3,1.1-0.1,1.8c-0.2,0.2-0.5,0.5-1.1,0.7
			c-0.6,0.3-1.2,0.5-1.9,0.8c-0.7,0.2-1.5,0.4-2.2,0.6c-0.7,0.1-1.3,0.2-1.8,0.2c-0.1,0-0.1,0-0.2,0c-0.2,0-0.4,0-0.7,0
			c-0.3,0-0.5,0-0.7,0c-0.4,0-0.9,0.1-1.4,0.3c-0.6,2.3-1.3,3.6-2.2,4c-0.1,0-0.2,0.1-0.4,0.1c-0.7,0-1.4-0.9-2.1-2.7
			c-0.8,0.3-1.7,0.7-2.8,1.2c-1.1,0.5-2.3,1.1-3.5,1.8c-1.2,0.7-2.5,1.4-3.7,2.1c-1.2,0.7-2.3,1.5-3.3,2.2c-0.2,0.2-0.5,0.3-0.9,0.4
			c-0.3,0.1-0.6,0.2-0.9,0.2c0,0-0.1,0-0.1,0c-0.3,0-0.6-0.1-0.8-0.2c-0.3-0.2-0.6-0.5-0.8-1c-0.1-0.2-0.1-0.4-0.1-0.8
			c0-0.4,0.1-0.7,0.2-1c0.1-0.3,0.3-0.6,0.4-0.9c0.2-0.2,0.4-0.4,0.6-0.4c0,0,0,0,0,0c0.1,0,0.1,0,0.2,0c0.2,0,0.5-0.1,0.8-0.2
			c0.4-0.2,0.6-0.3,0.9-0.5c0.2-0.1,0.5-0.3,0.9-0.6c0.4-0.3,0.9-0.5,1.4-0.8c0.5-0.3,1-0.6,1.6-0.9s1.1-0.6,1.5-0.9
			c-0.5-0.7-0.9-1.3-1.1-1.7c-0.2-0.4-0.3-1.1-0.4-1.9c-0.1-0.8-0.1-1.8-0.2-2.9c-0.1-1.2-0.2-2.5-0.3-4c-0.1-1.5-0.2-3.1-0.3-4.8
			c-0.1-1.7-0.2-3.4-0.3-5.2c0-0.9-0.1-1.4-0.3-1.7c-0.2-0.2-0.5-0.4-1-0.4c0.3-0.7,0.8-1,1.4-1.2c0.2,0,0.4,0,0.5,0
			c0.5,0,0.9,0.1,1.3,0.3c0.6,0.3,1.1,0.9,1.5,1.9c0.4,1,0.8,2,0.9,3c0.3,0,0.6-0.1,0.9-0.1c1.1,0,2.1,0.4,2.8,1.1
			c0.9,0.9,1.4,2.3,1.7,4.1c0.1,0.4,0,1.1-0.1,2c-0.1,0.9-0.3,1.8-0.5,2.9c-0.2,1.1-0.5,2.1-0.8,3.2c-0.3,1.1-0.6,2.1-0.8,3.1
			c0.6-0.3,1.3-0.6,2-0.8c0.7-0.2,1.4-0.5,1.9-0.7c-0.1-2.9-0.1-5.2-0.2-7c0-1.8-0.1-3.4-0.2-4.8c-0.1-1.4-0.2-2.8-0.4-4.1
			c-0.2-1.3-0.4-2.9-0.6-4.8c-0.2-1.5-0.6-2.4-1.1-2.7c-0.3-0.2-0.5-0.3-0.8-0.3c-0.2,0-0.5,0.1-0.7,0.3c-0.7,0.5-1.7,1.1-2.9,1.6
			c-1.3,0.5-2.4,0.9-3.3,1.1c0.2-1.3,0.5-2.6,1.2-3.8c0.6-1.2,1.4-2.6,2.5-4.2C463.6,548.7,463.9,548.5,464.3,548.5 M463.9,576.3
			c0.4-1.5,0.7-2.7,0.8-3.8c0.1-1.1,0.2-1.8,0.2-2.3c0-1.2-0.1-2.1-0.4-2.9c-0.3-0.8-0.6-1.2-1-1.4c-0.2,0.5-0.4,1.2-0.4,2.2
			c-0.1,0.9-0.1,1.9-0.1,2.9c0,1,0.1,2,0.3,3S463.7,575.7,463.9,576.3 M403.1,550.4c0.6,0,1.2,0.1,1.8,0.3c0.6,0.2,1.2,0.5,1.7,0.8
			c0.6,0.3,1,0.7,1.5,1.1c0.4,0.4,0.8,0.9,1.1,1.3c0.5,1,0.8,2,0.9,3c0.1,1.1-0.1,1.9-0.4,2.4c0.7-0.2,1.2-0.3,1.6-0.4
			c0.3-0.1,0.6-0.1,0.9-0.1c0.1,0,0.1,0,0.2,0c0.3,0,0.6,0.1,0.8,0.3c0.3,0.2,0.6,0.4,0.9,0.7c0.6,0.6,0.9,1.1,0.9,1.5
			s-0.3,0.7-0.8,1c-1.2,0.5-2.2,1.1-3.2,1.6c-1,0.5-1.9,1.1-2.7,1.7c-0.2,1.4-0.4,3-0.5,4.9c-0.1,1.9-0.3,3.9-0.3,6.1
			c-0.1,2.1-0.1,4.3-0.1,6.5c0,2.2,0.1,4.3,0.3,6.3c0.1,1.1,0.1,2.2,0.1,3.3c0,1.2,0,2.3-0.1,3.4c-0.1,1.1-0.1,2.1-0.2,3.1
			c-0.1,1-0.2,1.8-0.3,2.4c-0.1,0.7-0.3,1.1-0.5,1.2c0,0-0.1,0-0.1,0c-0.2,0-0.4-0.1-0.6-0.4c-1-1.2-1.9-2.3-2.6-3.3
			c-0.7-1-1.2-1.7-1.5-2.2c-0.6-1.1-1.2-2.2-1.8-3.1c-0.6-0.9-1.3-1.8-2-2.7c-0.4,0.7-0.8,1.4-1.3,1.9c-0.5,0.6-1,1.1-1.6,1.7
			c-0.4,0.4-0.8,0.6-1.1,0.6c-0.1,0-0.1,0-0.2,0c-0.3-0.1-0.6-0.8-1-2c-0.3-0.8-0.5-1.4-0.6-1.8c-0.1-0.5-0.2-0.9-0.2-1.2
			c0-0.4,0.1-0.7,0.2-1.1c0.1-0.4,0.3-0.8,0.6-1.3c0.9-1.7,1.6-3,2.1-4c0.5-1,0.8-1.7,1-2.3c0.2-0.5,0.3-0.9,0.3-1
			c0-0.2-0.1-0.3-0.2-0.4c-0.4-0.2-0.9-0.5-1.5-0.8c-0.5-0.3-1-0.6-1.5-0.9c-0.2-0.1-0.3-0.3-0.4-0.6c-0.1-0.3,0-0.5,0-0.8
			c0.1-0.3,0.2-0.5,0.4-0.8c0.2-0.2,0.4-0.4,0.6-0.4c1-0.2,1.9-0.6,2.8-1.2c0.1-0.1,0.3-0.1,0.5-0.1c0.1,0,0.2,0,0.4,0
			c0.4,0.1,0.8,0.2,1.2,0.4c0.4,0.2,0.9,0.5,1.3,0.8c0.4,0.3,0.8,0.7,1,1.1c0.4-0.1,0.8-0.2,1-0.2c0.3,0,0.4,0.1,0.4,0.2
			c0,0.2-0.3,0.5-0.9,0.9c-0.1,0.6-0.3,1.1-0.5,1.5c-0.2,0.4-0.5,1-0.9,1.8c-0.6,1-0.9,1.8-1.2,2.4c-0.2,0.6-0.3,1-0.4,1.2
			c0,0.2,0,0.3,0.1,0.3c0,0,0,0,0.1,0c0.1,0,0.3-0.2,0.5-0.4c0.6-0.6,1.3-1.3,2-2c0.7-0.7,1.6-1.5,2.5-2.5c0-0.8,0-1.6,0-2.6
			c0-1,0-2,0-3c0-1.1,0-2.1,0.1-3.1c0-1,0.1-2,0.1-2.9c-1,0.8-1.8,1.4-2.3,1.6c-0.3,0.1-0.5,0.2-0.7,0.2s-0.4-0.1-0.5-0.2
			c-1.3-1-2.3-1.5-3.1-1.6c-0.1,0-0.2,0-0.4,0c-0.6,0-1.1,0.3-1.6,0.9c-0.3,0.3-0.5,0.4-0.6,0.4c0,0,0,0-0.1,0c-0.2,0-0.1-0.4,0.1-1
			c0.4-1.2,0.9-2,1.4-2.5c0.5-0.5,1.2-0.7,1.9-0.8c0.6-0.1,1.1-0.2,1.5-0.3c0.5-0.1,0.9-0.4,1.3-0.7c0.6-0.6,1.2-1,1.7-1.4
			c0.5-0.3,1-0.7,1.6-1c0.3-2.7,0.4-4.6,0.5-5.8c0-1.2-0.1-2-0.3-2.4c-0.4-0.5-0.8-0.8-1.2-0.9c-0.2-0.1-0.4-0.1-0.5-0.1
			c-0.2,0-0.3,0-0.4,0.1c-0.2,0.2-0.4,0.3-0.6,0.3c-0.3,0-0.6-0.3-0.7-0.8c-0.2-0.6-0.1-1.1,0.1-1.4
			C401.6,550.7,402.2,550.5,403.1,550.4 M404,584.1c-0.8,0.8-1.7,1.7-2.6,2.9c-0.9,1.2-1.8,2.3-2.6,3.4c0.7,0.6,1.5,1.2,2.4,1.9
			c0.9,0.7,1.6,1.3,2.1,1.7c0.2,0.1,0.3,0.2,0.4,0.2c0.1,0,0.2-0.1,0.3-0.2c0.2-0.3,0.2-0.9,0.1-1.8c-0.1-0.9-0.1-2.1-0.2-3.5
			C403.9,587.3,403.9,585.7,404,584.1 M445.7,551.8c0.1,0,0.2,0,0.3,0c0.5,0,1.1,0.2,1.8,0.5c0.7,0.3,1.4,0.7,2.1,1.2
			c0.8,0.5,1.5,1.2,2.3,2c0.5,0.5,0.7,1.3,0.8,2.3c0,1-0.2,2-0.8,3.1c-0.4,0.8-0.8,1.5-1.1,2.1c-0.3,0.7-0.6,1.5-0.9,2.4
			c-0.3,0.9-0.7,1.8-1.1,2.9c-0.5,1-1,2.1-1.6,3.3c0.4,0.5,0.8,1,1.1,1.5c0.3,0.5,0.5,1,0.7,1.6c0.2,0.6,0.3,1.3,0.5,2
			c0.1,0.8,0.3,1.7,0.5,2.8c0.2-1.6,0.5-3.3,0.8-4.9c0.3-1.6,0.6-3.2,1-4.7c0.4-1.5,0.8-3,1.2-4.4c0.4-1.4,0.8-2.6,1.3-3.7
			c0.5-1.3,0.8-1.9,0.9-1.9c0,0,0,0,0,0c0.1,0.1-0.1,0.9-0.5,2.3c-0.6,2-1.2,4.3-1.6,6.9c-0.4,2.6-0.8,5.2-1.1,7.8
			c-0.3,2.6-0.4,5-0.5,7.3c-0.1,2.3,0,4.1,0.1,5.4c0.2,1.6,0.3,2.9,0.3,3.9c0.1,1,0.1,1.8,0.1,2.4c0,0.6,0,1.1,0,1.5
			c0,0.4-0.1,0.8-0.2,1.2c-0.1,0.5-0.3,0.7-0.6,0.8c0,0-0.1,0-0.1,0c-0.2,0-0.4-0.1-0.6-0.4c-0.6-0.8-1.2-1.5-1.6-2.1
			c-0.4-0.6-0.8-1.2-1-1.8c-0.3-0.6-0.4-1.1-0.6-1.7c-0.1-0.6-0.2-1.2-0.2-1.9c0-1.2-0.1-2.6-0.2-4.2c-0.2-1.7-0.3-3.3-0.6-4.9
			c-0.2-1.6-0.5-3-0.7-4.2c-0.3-1.2-0.5-1.9-0.8-2.1c-1,1.5-1.8,2.4-2.3,2.8c-0.2,0.1-0.4,0.2-0.6,0.2c-0.3,0-0.5-0.2-0.8-0.5
			c-0.6-0.8-1.1-1.5-1.5-2.2c-0.4-0.7-0.8-1.6-1.1-2.8c-0.1-0.2,0-0.5,0.1-0.8c0.2-0.3,0.5-0.8,1-1.4c1.7-2.2,3.1-4.6,4.2-7.2
			s1.8-5.5,2.2-8.7c0.1-0.8-0.3-1.5-1.3-1.9c-0.4-0.2-0.6-0.4-0.6-0.6c-0.1-0.2,0.1-0.6,0.6-1C445.1,551.8,445.3,551.8,445.7,551.8
			 M415.7,553.9c0.9,0,1.7,0.1,2.5,0.3c0.9,0.3,1.7,0.6,2.3,1.1c0.6,0.5,1.1,1,1.4,1.6c0.3,0.6,0.4,1.2,0.3,1.8
			c-0.2,1.1-0.5,1.8-0.9,2.4c-0.4,0.5-0.8,1-1.3,1.3c-0.3,0.3-0.6,0.4-0.9,0.4c-0.1,0-0.2,0-0.2,0c-0.3-0.1-0.5-0.3-0.5-0.7
			c-0.2-1.7-0.5-3-1.1-4c-0.5-1-1.3-1.8-2.4-2.3c-0.6-0.3-0.8-0.6-0.9-1c0-0.4,0.4-0.6,1.3-0.7C415.4,553.9,415.6,553.9,415.7,553.9
			 M388.5,558.6c0.4,0,0.7,0.1,1,0.2c1.9,1,3.1,2,3.6,3c0.5,1,0.5,2,0.1,2.8c-0.6,1.3-1.1,3-1.5,5c-0.4,2-0.5,4.3-0.5,6.7
			c0.4-1.1,0.7-1.6,0.9-1.6c0.1,0,0.1,0,0.1,0.1c0.1,0.4,0,2-0.6,4.8c-0.1,0.4-0.3,1-0.6,1.8c-0.3,0.8-0.8,1.8-1.4,2.8
			c-0.6,1.1-1.2,2.2-1.9,3.4c-0.7,1.2-1.5,2.4-2.3,3.5c-0.9,1.2-1.8,1.9-2.7,1.9c0,0-0.1,0-0.1,0c-0.8,0-1.3-0.4-1.6-1.1
			c-0.6-1.5-0.7-2.6-0.6-3.3c0.2-0.7,0.5-1.1,1.1-1.2c0.4,0,0.8-0.2,1-0.5c0.3-0.3,0.7-0.9,1.2-1.8c0.3-0.5,0.4-1,0.4-1.3
			c-0.1-0.3-0.3-0.7-0.8-1.2c-0.7-0.7-1.5-1.4-2.4-2.1c-0.9-0.7-1.6-1.2-2.2-1.5c-0.3-0.2-0.5-0.6-0.6-1.2c-0.1-0.6,0.1-1.2,0.6-1.7
			c1.2-1.4,2.5-2.6,3.8-3.6c1.2-1,2.3-1.5,3.3-1.5c0,0,0.1,0,0.1,0c0.1-0.8,0.1-1.5,0.2-2c0-0.5,0-0.9,0-1.1c0-0.3-0.1-0.4-0.1-0.5
			c-0.1-0.1-0.2-0.2-0.3-0.2c-0.4-0.1-0.8-0.3-1.2-0.4c-0.4-0.1-0.7-0.3-1.1-0.6c-0.4-0.2-0.8-0.5-1.2-0.9c-0.4-0.4-0.9-0.8-1.5-1.4
			c-0.4-0.4-0.6-0.8-0.5-1.1c0.1-0.3,0.3-0.4,0.6-0.4c0,0,0.1,0,0.1,0c0.1,0,0.2,0,0.3,0c0.7,0,1.3-0.3,1.8-0.9
			c0.4-0.5,0.9-0.9,1.5-1.3c0.6-0.4,1.1-0.7,1.7-0.9c0.6-0.2,1.1-0.4,1.7-0.4C388.3,558.6,388.4,558.6,388.5,558.6 M384.4,580.5
			c0.2,0,0.4,0,0.7-0.1c0.2-0.3,0.3-0.6,0.3-0.8c0-0.1-0.1-0.2-0.2-0.2c-0.1,0-0.1,0-0.2,0c-0.3,0.1-0.7,0.2-1.1,0.2
			c-0.4,0-1-0.1-1.7-0.3c0.5,0.5,0.9,0.8,1.4,0.9C383.8,580.4,384.1,580.5,384.4,580.5 M412.9,569.3c0.1,0,0.1,0,0.2,0
			c0.8,0.1,1.6,0.6,2.3,1.7c0.7,1,1.1,1.9,1.2,2.6c0.1,0.7-0.2,1.7-0.9,2.9c-0.8,1.8-1.5,3.2-2,4.2c-0.5,1.1-0.8,1.8-0.9,2.3
			c-0.1,0.3,0,0.6,0.1,0.7c0.2,0.1,0.6,0.3,1.2,0.5c0.7,0.2,1.3,0.4,2,0.5c0.6,0.1,1.2,0.2,1.7,0.3c0.6,0,1.1,0.2,1.4,0.4
			c0.3,0.2,0.6,0.6,0.9,1.3c0.7,1.5,1.1,2.6,1.3,3.2c0.2,0.6,0.3,1.1,0.2,1.4c-0.1,0.6-0.2,0.9-0.5,1c-0.1,0-0.2,0-0.3,0
			c-0.3,0-0.7-0.1-1.2-0.2c-0.7-0.2-1.3-0.4-1.8-0.6c-0.5-0.2-0.9-0.4-1.1-0.7c-0.5-0.5-1.1-1-1.9-1.3c-0.5-0.2-1-0.3-1.6-0.3
			c-0.3,0-0.7,0-1,0.1c-0.5,0.1-0.9,0.1-1.2,0.1c-0.4,0-0.7-0.1-0.9-0.2c-0.3-0.2-0.6-0.6-0.8-1.2c-0.5-1.8-0.8-3-0.9-3.8
			s0-1.3,0.3-1.8c0.4-0.5,0.9-1.7,1.4-3.4c0.6-1.7,1.1-3.7,1.8-5.8c0.2-0.6,0.2-1,0-1.1c-0.1-0.1-0.2-0.2-0.4-0.2
			c-0.1,0-0.2,0-0.3,0c-0.4,0.1-0.7,0.2-1,0.5c-0.2,0.2-0.5,0.6-0.9,1c-0.4,0.4-0.6,0.6-0.7,0.6c0,0,0,0-0.1,0
			c-0.1-0.1,0-0.3,0.2-0.8c0.4-0.7,0.8-1.3,1.2-1.9c0.4-0.6,0.7-1,1-1.4C411.5,569.6,412.1,569.3,412.9,569.3 M476.2,583.2
			c0.2,0,0.5,0.1,0.9,0.3c1.1,0.5,1.9,1.1,2.6,1.5c0.7,0.5,1.2,1,1.7,1.5c0.4,0.5,0.7,1,0.9,1.6c0.2,0.5,0.3,1.1,0.4,1.7
			c0.1,0.8,0.1,1.5-0.1,2.2c-0.2,0.7-0.4,1.3-0.7,1.8c-0.3,0.5-0.7,0.8-1.1,1.1c-0.2,0.1-0.4,0.1-0.6,0.1c-0.2,0-0.5-0.1-0.7-0.2
			c-0.5-0.3-1.2-0.7-2.2-1.4c-1-0.6-2.4-1.8-4.2-3.4c0.2,0,0.4,0,0.6,0c0.9,0,1.6-0.1,2.1-0.4c0.7-0.3,1.1-0.7,1.4-1.2
			c0.3-0.5,0.3-1,0.2-1.6c-0.1-0.6-0.4-1.1-0.8-1.5c-0.7-0.7-1-1.3-0.9-1.7C475.9,583.3,476,583.2,476.2,583.2 M459.6,588
			c-0.7,1.8-1,3-0.9,3.6c0.1,0.5,0.2,0.7,0.4,0.7c0,0,0.1,0,0.1,0c1.4-0.5,2.6-1,3.6-1.5c1.1-0.5,2-1,2.7-1.5
			c0.2-0.1,0.3-0.2,0.4-0.2c0.2,0,0.4,0.2,0.4,0.6c0.1,0.6-0.2,1.4-0.9,2.3c-0.8,1.1-1.5,2.2-2.2,3.3c-0.7,1.1-1.1,1.9-1.3,2.5
			c-0.3,1-0.7,1.5-1.3,1.7c0,0,0,0-0.1,0c-0.2,0-0.4-0.1-0.7-0.2c-0.3-0.2-0.6-0.5-1-1c-0.3-0.5-0.7-1.1-1-2c-0.3-0.9-0.6-2-0.9-3.3
			c0-0.3,0-0.7,0.1-1.2c0.1-0.5,0.3-1,0.5-1.5c0.2-0.5,0.5-1,0.8-1.4C458.9,588.5,459.2,588.2,459.6,588 M205.2,518.6
			c-1,0-2,0.5-2.6,1.3c-1.2,1.5-0.5,3.4-0.1,4.3l0,0.1l0,0.1c0,0,0,0,0,0c0,0,0.1,0.3,0.1,0.9c0,0.6,0,1.3-0.1,1.9
			c-0.1,0.1-0.3,0.2-0.5,0.3c-0.5,0.3-1.2,0.6-2,1.1c-0.5,0.3-1.1,0.6-1.5,0.9c-0.6,0.4-1.1,1-1.6,1.6c-0.4,0.5-0.8,1.2-1.2,1.9
			c-0.4,0.7-0.8,1.6-1.3,2.7c-0.2,0.4-0.4,0.9-0.5,1.2c-0.2,0.4-0.4,0.9-0.6,1.4c-0.2,0.6-0.4,1.2-0.7,2c-0.2,0.7-0.5,1.7-0.9,2.9
			c-1,3.6-1.8,6.6-2.3,9c-0.6,2.5-0.9,4.8-1,6.7c-0.1,1.8,0.1,3.6,0.5,5.1c0.5,1.7,1.3,3.1,2.4,4.2l0.1,0.1l0.1,0.1
			c0.9,0.7,2,1.6,3.5,1.6c0.4,0,0.7-0.1,1.1-0.2c1.5-0.5,2.4-1.8,2.8-3.8l0-0.1l0-0.1c0-0.1,0-0.3,0.2-0.6c0.2-0.4,0.4-1,0.6-1.5
			c0.1-0.3,0.3-0.7,0.4-1.1c0.1-0.2,0.1-0.4,0.2-0.7c0.5,0.1,1,0.2,1.6,0.3c0,0,0,0,0,0c-0.1,0.2-0.2,0.4-0.2,0.6
			c-0.2,0.6-0.4,1.2-0.4,1.8c0,0.4,0,0.8,0.1,1.2c0,0.4,0.1,0.8,0.2,1.3l0,0.1l0,0.1c0.4,2,1,4.1,2.6,5c0.6,0.3,1.2,0.5,1.9,0.5
			c0.8,0,2.2-0.3,3.4-2l0-0.1l0-0.1c0.2-0.3,0.3-0.6,0.6-1.4c0.1-0.3,0.2-0.6,0.3-0.9c0.3,0.2,0.6,0.4,1,0.6
			c0.5,0.2,0.9,0.3,1.4,0.3c0.3,0,0.5,0,0.8-0.1c0.2,0.5,0.5,1,0.7,1.4c0.6,1.2,1.6,2.8,3.4,3.3c0.4,0.1,0.8,0.2,1.1,0.2
			c0.3,0,0.5,0,0.9-0.1c0.1,0.3,0.2,0.5,0.3,0.8c0.3,0.7,0.7,1.6,1.2,2.7l0,0.1l0,0.1c0.6,1.2,1.5,2,2.5,2.5
			c0.6,0.3,1.2,0.4,1.9,0.4c0.9,0,1.7-0.3,2.5-0.7c0.9-0.6,1.8-1.5,2.7-2.8c0.8-1.2,1.4-2.7,2.1-4.6c0.2-0.7,0.5-1.6,0.8-2.8
			c0.3-1.1,0.7-2.3,1-3.6c0.3-1.3,0.7-2.5,1-3.8c0.3-1.2,0.5-2.2,0.7-3.1l0,0l0,0c0.3-1.3,0.4-2.4,0.5-3.3c0.1-1.1,0.1-2.1-0.1-3
			c-0.1-0.6-0.3-1.2-0.6-1.9c0.6-0.3,1.3-0.5,1.9-0.8c0.4-0.2,0.9-0.3,1.2-0.4c0.1,0,0.1,0,0.2,0c0.2,0,0.3,0,0.5,0
			c3,0,3.8-2,3.9-2.6c0.3-1.3-0.1-2.6-1-4.3c-0.4-0.7-0.9-1.4-1.7-2.1c-0.7-0.6-1.5-1.3-2.5-1.9c-0.6-0.4-1.4-0.8-2.1-1.2
			c0.2-0.3,0.4-0.6,0.7-0.9c0.4-0.6,0.7-1.3,0.9-2c0.2-0.7,0.3-1.4,0.3-2.1c0-0.8-0.2-1.6-0.5-2.4l0,0l0,0c-0.5-1-1.2-1.9-2.1-2.8
			c-1-1-2.2-1.7-3.4-2.1c-1.1-0.4-2-0.5-2.8-0.5c-1.4,0-2.2,0.6-2.7,1c-0.8,0.8-1.2,1.8-1,2.9c0.1,1.2,0.9,2.2,2.1,2.9
			c0,0,0.1,0.1,0.1,0.1c-0.2,0.3-0.5,0.8-1,1.3c0,0,0,0.1-0.1,0.1c-0.2-0.6-0.6-1.2-1.1-1.8c-0.2-0.3-0.4-0.5-0.7-0.7
			c0.3-1,0.4-2,0.4-2.9c-0.1-1.8-1.1-3.5-2.8-5c-0.7-0.6-1.2-1-1.6-1.4c-0.7-0.6-1.5-1.1-2.5-1.6c-0.7-0.3-1.4-0.5-2-0.5
			c-0.4,0-0.9,0.1-1.3,0.2c-1.2,0.4-2,1.4-2.3,2.6c-0.2,0.7-0.2,1.5,0,2.4c0.2,0.7,0.5,1.3,0.9,1.9c0,0.1,0.1,0.3,0,0.8
			c0,0.3-0.1,0.8-0.3,1.4c-0.1-0.4-0.3-0.7-0.5-1.1c-0.3-0.6-0.7-1.3-1.3-2c-2.9-4-3.9-5.1-4.5-5.6l-0.1-0.1l-0.1-0.1
			C207.4,519.3,206.5,518.6,205.2,518.6L205.2,518.6z M202.4,535.5c0.1-0.1,0.7-0.3,2-0.3c0.3,0,0.6,0,1,0c0.1,0,0.2,0.1,0.3,0.2
			c0.4,0.2,0.8,0.5,1.3,0.9c-0.3,0-0.6,0.1-0.9,0.1l-0.1,0l-0.1,0c-0.9,0.3-1.8,0.8-2.4,1.6c-0.3,0.4-0.6,0.8-0.8,1.2
			c-0.1-0.7-0.2-1.4-0.3-2.2C202.3,536.1,202.4,535.7,202.4,535.5L202.4,535.5z M594.3,525.8c-0.5,0-1,0.1-1.4,0.2
			c-0.9,0.3-1.6,0.9-2.1,1.6c-0.1,0.1-0.1,0.2-0.2,0.2c-0.6-0.5-1.2-0.8-1.9-1c-0.6-0.2-1.1-0.3-1.6-0.3c-0.5,0-0.9,0.1-1.3,0.2
			c-1.3,0.4-4.2,1.7-4.3,5.9c-0.3-0.2-0.6-0.3-0.9-0.4c-0.4-0.9-0.9-1.7-1.4-2.5c-1.1-1.6-2.6-2.7-4.2-3l-0.1,0l-0.1,0
			c-1.3-0.2-2.6-0.3-3.8-0.3l-0.2,0c-1.1,0-2.1,0-2.9,0.1c-0.9,0-1.7,0.4-2.3,1c-0.6,0.7-0.9,1.6-0.9,2.5c0.1,1.3,0.9,2.2,1.4,2.9
			c0.3,0.4,0.6,0.7,0.8,1c-0.4,0.2-0.8,0.5-1.3,0.7l-11.5,6.1l6.9-0.2c0,0.4,0.1,0.8,0.2,1.2c0.3,1,0.7,2,1.3,2.8
			c0.7,1.1,1.7,1.9,2.9,2.4c0.2,0.1,0.4,0.2,0.5,0.2c-0.4,0.5-0.6,1-0.8,1.7c-0.2,1.1,0,2.3,0.7,4.1c0.5,1.2,0.8,2,1.2,2.7
			c0.2,0.5,0.4,0.9,0.7,1.2c-0.8,0.7-1.6,1.5-2.4,2.3c-1.8,1.7-3.7,3.7-5.9,5.7c-1.2,1.1-1.5,2.9-0.7,4.4c0.4,0.9,1.1,1.6,2.1,2.1
			c0.7,0.4,1.5,0.7,2.5,0.9c0.5,0.1,0.9,0.1,1.4,0.1c0.6,0,1.3-0.1,1.9-0.3c1.1-0.3,2-0.9,2.6-1.6c0.4-0.5,0.8-1,1.2-1.7
			c0.2-0.4,0.4-0.7,0.6-0.9c0.1,0.1,0.1,0.3,0.2,0.4c0.6,1.2,1.4,2.4,2.4,3.4l0,0l0,0c0.8,0.8,1.5,1.4,2,1.9c0.6,0.6,1.2,1,1.7,1.4
			c0.6,0.5,1.2,0.8,1.8,1c0.6,0.2,1.2,0.4,1.8,0.5c0.2,0,0.5,0.1,0.7,0.1c1.2,0,2.2-0.6,2.8-1.5c0.4-0.6,0.7-1.5,0.4-2.7
			c0.7-0.4,1.4-0.7,2-1c1.9-1,2.5-1.5,2.9-1.8c1-0.9,1.5-2,1.7-3.2c0.1-0.9-0.1-2-0.5-3.2c-0.3-0.9-0.3-1.5-0.2-1.8
			c0.1-0.4,0.1-0.7,0.2-0.9c0,0,0,0.1,0,0.1c0.4,0.9,0.7,2,1.2,3.2c0.7,1.9,1.3,3.5,1.7,4.9c0.5,1.4,1,2.6,1.4,3.7
			c0.4,1.1,0.8,2.2,1.3,3.2c0.4,1,0.9,2.1,1.4,3.3c1,2.2,2.6,2.4,3.3,2.4c0.4,0,0.8-0.1,1.2-0.2c1.7-0.6,2.4-2.2,2.1-4.7l0-0.1
			l0-0.1c-0.1-1-0.3-2.1-0.5-3.2c-0.2-1.1-0.4-2.3-0.6-3.6c-0.2-1.3-0.5-2.8-0.9-4.4c0-0.2-0.1-0.5-0.2-0.7c0.6,0.1,1.3,0.2,2,0.4
			c0.8,0.2,1.2,0.3,1.5,0.4c0.5,0.2,1,0.2,1.4,0.2c1.5,0,2.8-0.9,3.4-2.3c0.3-0.7,0.5-1.7,0.6-4.2c0-2.5-0.1-4.6-0.5-6.4
			c-0.4-2-1-3.7-1.9-5.2c-0.9-1.5-2.2-2.8-3.7-3.9c-1-0.7-2.1-1.3-3.4-1.9c0.1-0.3,0.1-0.7,0.2-1l0,0l0,0c0.1-0.6,0.2-1.3,0.4-2.1
			c0.1-0.5,0.3-0.9,0.6-1.2l0,0l0,0c0.4-0.6,0.9-1.6,0.7-3.1c-0.1-0.6-0.2-1.3-0.4-1.9c-0.5-1.8-1.1-2.9-1.9-3.7
			c-0.7-0.7-1.7-1.2-2.7-1.5c-0.5-0.1-0.9-0.3-1.2-0.4c-0.5-0.2-0.9-0.3-1.2-0.5C595.5,525.9,594.9,525.8,594.3,525.8L594.3,525.8z
			 M582.8,540.6c0.6-0.8,1-1.6,1.1-2.3c0.2,0.1,0.3,0.1,0.5,0.1c0.1,0.3,0.1,0.6,0.2,0.9c0,0.3,0.1,0.5,0.2,0.8
			c-0.3,0.5-0.7,1-0.9,1.5C583.6,541.3,583.2,540.9,582.8,540.6L582.8,540.6z M598.9,552.4c0.6-0.2,1.2-0.3,1.6-0.4
			c0.1,0.1,0.3,0.4,0.6,0.9c-0.4,0.1-0.7,0.1-1.1,0.2c-0.3,0-0.5,0.1-0.8,0.1C599.1,553,599,552.7,598.9,552.4L598.9,552.4z
			 M289,536.5c-1.2,0-2.5,0.3-3.6,1c-0.7,0.4-1.8,0.9-3.1,1.4c-1,0.4-1.9,0.8-2.9,1.1c-0.9-1.4-2-1.7-3-1.7h-0.2l-0.2,0
			c-0.7,0.1-2.5,0.6-3.2,3.2c-0.5,1.9-0.7,3.7-0.5,5.4c0.1,0.7,0.1,1.4,0.3,2.1c-0.5-1.5-1.4-2.7-2.6-3.7c-1.5-1.2-3.6-2-6.5-2.5
			c-0.3-0.1-0.6-0.1-0.9-0.1c-1.5,0-2.8,0.8-3.4,2.2c-0.3,0.8-0.6,2-0.1,3.6l0,0.1l0,0.1c0.2,0.4,0.4,0.9,0.6,1.4
			c-0.3,0.2-0.6,0.4-1,0.7c-0.8,0.5-1.5,1.1-2.1,1.9c-0.6,0.7-1,1.5-1.4,2.3c-0.4,0.8-0.6,1.6-0.8,2.5c-0.2,1-0.2,1.9-0.1,2.8
			c0.3,2,0.7,3.3,1.3,4.2c0.3,0.5,0.6,0.8,1,1.2c-0.2,0.5-0.3,0.9-0.4,1.4c-0.3,1.2-0.3,2.5,0,3.6c0.2,0.8,0.4,1.6,0.8,2.3
			c-1.5,0-2.9,1-3.5,2.4c-0.5,1.2-0.5,2.7,0,4.4c0.5,1.7,1,2.7,1.6,3.4c0.7,0.8,1.7,1.2,2.7,1.2c0.6,0,1.2-0.2,1.8-0.5
			c0.1,0,0.2,0,0.5-0.1c0.2,0,0.4,0,0.6,0c0.5,0,1,0,1.7,0.1c1,0.1,2.1,0.3,3.3,0.6c1.2,0.3,2.3,0.7,3.5,1.2l0,0l0,0
			c0.4,0.2,1.1,0.5,2.4,1.2c1.1,0.6,2.3,1.3,3.6,2.1c1.3,0.8,2.5,1.6,3.7,2.3c1.2,0.8,2.2,1.4,3,2c1.7,1.1,2.9,1.8,4,2
			c0.9,0.2,1.7,0.4,2.4,0.4c0.2,0,0.3,0,0.4,0c0.8,0,1.7-0.1,2.5-0.2c0.9-0.1,1.7-0.2,2.4-0.3c0.7-0.1,1.4-0.2,1.9-0.3
			c0.8-0.2,1.1-0.2,1.4-0.3l0.1,0l0.1,0c1.3-0.5,2.2-1.1,2.8-1.9c0.8-1,1.1-2,1.1-3c-0.1-1.1-0.6-2.1-1.5-2.9
			c-0.7-0.5-1.4-0.9-2.3-1.1l-0.1,0l-0.1,0c-1.4-0.2-2.8-0.5-3.9-0.7c-0.3-0.1-0.7-0.1-1-0.2c0.2-0.6,0.4-1.3,0.5-2.1
			c0.1-0.7,0.3-1.5,0.5-2.5l0,0l0,0c0.4-3,0.8-5.5,1.1-7.4c0.3-2,0.6-3.6,0.8-5c0.2-1.3,0.4-2.3,0.6-3.1c0.2-0.8,0.4-1.6,0.6-2.4
			c0.3-1.4,0.3-2.7-0.2-4.1c-0.4-1.2-1-2.3-1.9-3.3c-0.8-1-1.9-1.8-3-2.4c-0.1-0.1-0.2-0.1-0.3-0.2c0.2-0.2,0.4-0.4,0.5-0.5
			c0.7-0.7,1.1-1,1.3-1.2c0.1-0.1,0.3-0.2,0.3-0.2c0.8,0,1.6-0.3,2.3-0.8c0.7-0.5,1.2-1.3,1.6-2.2c0.3-0.8,0.4-1.6,0.3-2.6
			c-0.1-0.9-0.4-1.9-0.9-3c-1.1-2.2-2.7-3.8-4.6-4.5C290.7,536.6,289.8,536.5,289,536.5L289,536.5z M272.5,554.6
			c0.5-0.9,0.7-2.1,0.5-3.5l0,0l0,0c0-0.1,0-0.2-0.1-0.3c0.1,0.2,0.2,0.5,0.3,0.7c0.4,1.2,1.3,2.1,2.4,2.5c-0.3,0.1-0.6,0.2-0.9,0.3
			c-0.6,0.2-1,0.4-1.4,0.6C273,554.7,272.8,554.6,272.5,554.6L272.5,554.6z M265.4,557.4C265.4,557.4,265.4,557.4,265.4,557.4
			c0.8-0.2,1.5-0.4,2.1-0.6c0.5-0.1,0.7-0.1,0.8-0.2c-0.2,0.4-0.4,0.9-0.5,1.5c-0.1,0.4-0.1,0.9-0.1,1.5c0,0.2,0,0.4,0,0.7
			C267.2,559.2,266.4,558.2,265.4,557.4L265.4,557.4z M266.4,569.1C266.4,569.1,266.4,569.1,266.4,569.1c0.6-0.5,1.1-1.1,1.4-1.8
			c-0.2,0.7-0.5,1.5-0.8,2.6c0,0.1-0.1,0.1-0.1,0.2C266.8,569.8,266.6,569.4,266.4,569.1L266.4,569.1z M518.6,537.2
			c-0.6,0-1.2,0-1.7,0.1c-1,0.2-1.8,0.5-2.5,0.9c-1.2,0.8-1.7,1.7-2,2.4c-0.2,0.8-0.2,1.6,0,2.3c-0.8,1.1-1.4,2.1-2,2.8
			c-0.7,0.9-1.2,1.6-1.7,2.1c-0.6,0.6-0.8,0.8-0.9,0.9c0,0,0,0,0,0l-0.1,0c-1,0.3-1.8,0.8-2.5,1.6c-0.6,0.6-1.1,1.3-1.4,2.1
			c-0.3,0.7-0.5,1.5-0.6,2.3c-0.1,0.8,0,1.6,0.1,2.4c0.4,1.8,1.2,3.2,2.4,4c0.7,0.4,1.5,0.7,2.5,0.8c-0.2,0.8-0.4,1.4-0.6,2
			c-0.3,0.9-0.5,1.7-0.7,2.2c-0.1,0.3-0.2,0.5-0.3,0.6c-1.3,0.6-2.1,1.6-2.5,2.9c-0.3,1-0.3,2.3,0.1,4c0.3,1.4,0.7,2.5,1.2,3.4
			c0.5,0.9,1.1,1.6,1.7,2.2c0,0,0,0,0,0.1l0,0.1l0,0.1c-0.3,1.2-0.5,2.3-0.7,3.3c-0.1,1-0.2,1.9-0.2,2.7c0,0.9,0.2,1.7,0.5,2.5
			c0.2,0.6,0.6,1.3,1,1.8c0.8,1.2,1.5,2.1,2.3,2.7c0.9,0.8,1.7,1.3,2.5,1.6c0.5,0.2,1,0.3,1.5,0.3c0.8,0,1.6-0.2,2.2-0.7
			c0.6-0.4,1.4-1.2,1.8-2.6c0.2-0.6,0.3-1.2,0.5-1.7c0.1-0.5,0.2-0.9,0.4-1.4c0.1-0.4,0.2-0.8,0.4-1.2c0,0,0,0,0,0
			c0.7,0.5,1.5,1,2.4,1.6c0.9,0.6,1.9,1.3,2.8,1.9c1.1,0.7,2.1,1.3,3.2,1.8c0.8,0.4,1.5,0.6,2.2,0.6c0.7,0,1.3-0.2,1.9-0.6
			c1.3-0.8,1.6-2.2,1.7-3.6c0.1-0.9,0.1-1.9,0-3.1c-0.1-1.1-0.2-2.4-0.4-3.8c-0.1-0.4-0.1-0.7-0.2-1.1c0.9,0.2,1.9,0.5,2.9,0.7
			c1.7,0.3,3.3,0.5,4.8,0.7c0.2,0,0.3,0,0.5,0c2.4,0,5.1-1.6,5.3-6c0.1-1.5-0.1-3.1-0.6-4.5c-0.5-1.5-1.2-2.8-2.1-3.8
			c-1-1.2-2.2-2.1-3.6-2.6c-0.8-0.3-1.6-0.5-2.5-0.5c-0.8,0-1.6,0.1-2.4,0.4c-2,0.5-3.8,1.2-5.4,1.8c0,0,0,0-0.1,0c0,0,0,0,0,0
			c-0.1-0.8-0.2-1.5-0.3-2.3c0-0.1,0-0.1,0-0.2c0.5-0.3,0.8-0.3,0.9-0.3c1.7-0.4,3.5-0.9,4.5-2.3c0.6-0.9,1.1-2.5,0.1-4.8l0,0l0,0
			c-0.2-0.5-0.5-0.9-0.6-1.3c-0.4-0.6-0.8-1.2-1.3-1.6c-0.5-0.4-1.2-0.7-1.9-1c-0.5-0.2-1.1-0.3-1.9-0.4c-0.2,0-0.4,0-0.6,0
			c-0.7,0-1.4,0.1-2.2,0.5c0,0-0.1,0-0.1-0.1c-0.4-0.3-0.8-0.6-1.3-1c-0.6-0.5-1.2-0.9-1.9-1.2c0.3-0.3,0.6-0.5,0.8-0.8
			c0.5-0.5,1-1,1.5-1.6c1.3-1.4,1.9-2.9,1.8-4.5c-0.1-1.3-0.7-2.6-1.9-4.1c-0.7-0.8-1.5-1.4-2.7-1.9c-1-0.4-1.9-0.7-2.7-0.7
			C519.3,537.2,518.9,537.2,518.6,537.2L518.6,537.2z M516.6,575c0.1-0.2,0.3-0.3,0.5-0.5c0.8-1,1.9-2,3.1-3.2
			c0.1,0.3,0.1,0.6,0.2,0.9c-1.5,1.1-2.7,2-3.6,2.7C516.7,575,516.6,575,516.6,575L516.6,575z M344.8,544.4c-0.7,0-1.4,0.1-2,0.4
			c-1,0.4-1.9,0.8-2.8,1.1c-0.7,0.3-1.3,0.4-1.8,0.5l0,0l0,0c-1.9,0.4-3.8,1.3-5.8,2.7c-0.7,0.5-1.4,1-1.8,1.8
			c-0.6-0.3-1.1-0.6-1.7-1l-0.1-0.1l-0.1-0.1c-0.5-0.4-1.4-0.8-2.4-0.8c-1.2,0-2.2,0.6-2.8,1.6c-1,1.7,0,3.6,0.4,4.4
			c0.8,1.4,1.1,2.3,1.3,2.8c0.2,0.5,0.2,1,0.2,1.5c-0.2,2.8-0.2,5.1,0.2,7.1c-0.6,0.5-1.2,1.2-1.6,2.5c-0.3,0.9-0.6,1.9-0.9,2.7
			c-0.1,0.4-0.3,0.8-0.4,1.2c-0.5,0.1-1,0.2-1.5,0.4c-1.2,0.3-2.4,0.8-3.6,1.4c-2.3,1.1-2.3,3.1-2.3,3.7c0.1,1.5,1.4,3.1,3.5,3.1
			c0.1,0,0.1,0,0.2,0c-0.5,1.1-1,2-1.5,2.8c-0.9,1.6-1.6,2.8-2.3,3.6c-0.7,0.9-1,1.1-1,1.1c-0.4,0.2-0.6,0.3-0.6,0.3l-0.1,0l-0.1,0
			c-1.6,0.5-2.7,1.8-2.9,3.5c-0.2,1.9,0.8,3.6,2.6,4.2c0.6,0.2,1.2,0.3,1.9,0.3c0.7,0,1.4-0.1,2.1-0.3c1.4-0.4,2.9-1.1,4.4-2.4
			c1.4-1.2,2.7-2.7,4.1-4.8c0.7-1,1.4-2.2,2.1-3.5c0.7,0.7,1.3,1.4,2.1,2.1c0.2,1.4,0.6,2.7,1.8,3.4c0.6,0.4,1.2,0.6,1.9,0.6
			c0.2,0,0.5,0,0.7-0.1c2.1,1.6,3.8,2.8,5.2,3.8c1.8,1.3,3.1,2.2,4.2,2.9c1.2,0.8,2.1,1.2,2.9,1.5c0.6,0.2,1.1,0.3,1.6,0.3
			c0.4,0,0.8,0,1.1-0.1c0.2,0,0.5-0.1,1.1-0.2c0.6,0,1.3-0.1,2-0.1c0.4,0,0.8,0,1.3,0c0.3,0,0.6,0,0.9,0c0.7,0,1.4,0,2.1,0.1
			c0.2,0,0.3,0,0.5,0c2.4,0,3.6-1.3,4-2c0.4-0.7,1.3-2.5-0.1-4.9c-0.7-1.3-1.9-2.3-3.4-3.2c-1.3-0.7-3-1.4-5.1-2.2l0,0l0,0
			c-1.3-0.4-2.6-0.8-3.8-1.3c-1.1-0.4-2.3-0.9-3.4-1.5c-1.1-0.6-2.3-1.2-3.4-1.9c-0.1,0-0.1-0.1-0.2-0.1c1.6-0.6,3-1.1,4-1.4
			c1-0.4,2-0.8,2.9-1.2c1.5-0.6,2.6-1.8,3.1-3.3c0.6-1.9,0.3-3.2-0.1-4.1c-0.4-0.8-0.9-1.6-1.5-2.1c-0.6-0.6-1.3-1-2.1-1.3
			c-0.6-0.2-1.3-0.4-2-0.5c-0.4-0.1-0.8-0.1-1.2-0.2c0.3-0.1,0.7-0.2,1-0.2c3.3-0.8,4.2-3.1,4.1-4.9c-0.1-1-0.5-1.9-1.2-2.7
			c0.2-0.3,0.3-0.6,0.5-0.9c0.3-0.5,0.6-1.1,0.9-1.6c0.3-0.4,0.5-0.7,0.6-0.8c0.7-0.8,1.2-1.6,1.5-2.3c0.5-1.1,0.6-2.2,0.5-3.4
			c-0.2-1.1-0.6-2.1-1.4-3.2c-0.6-0.9-1.4-1.8-2.5-2.9l0,0l0,0c-0.7-0.6-1.4-1.1-2.1-1.4C346,544.5,345.4,544.4,344.8,544.4
			L344.8,544.4z M336,559.7c0-0.1,0-0.2,0.1-0.3c0.1-0.5,0.2-0.9,0.2-1.4c0.2,0.1,0.5,0.1,0.7,0.2c0.3,0.1,0.7,0.1,1,0.1
			c0.1,0,0.2,0,0.3,0c-0.2,0.3-0.4,0.6-0.7,0.9c-0.2,0.1-0.4,0.1-0.6,0.2C336.7,559.5,336.4,559.6,336,559.7L336,559.7z
			 M464.3,545.5c-1.4,0-2.7,0.7-3.4,1.8c-1.1,1.6-2,3.1-2.6,4.4c-0.6,1.1-1,2.2-1.2,3.4c-0.5,0.2-1,0.5-1.3,0.9
			c-0.2-1-0.7-1.9-1.4-2.6l0,0l0,0c-0.9-0.9-1.8-1.7-2.7-2.4c-0.9-0.6-1.8-1.1-2.6-1.5c-1-0.4-1.9-0.7-2.7-0.7c-0.2,0-0.4,0-0.5,0
			c-1.4,0-2.3,0.6-2.8,1l-0.1,0.1l-0.1,0.1c-1.2,1.3-1.7,2.6-1.3,3.9c0.2,0.6,0.6,1.5,1.7,2.2c-0.4,2.5-1,4.9-1.9,7
			c-1,2.4-2.3,4.6-3.8,6.5c-0.7,0.8-1,1.4-1.3,1.9c-0.6,1.2-0.5,2.2-0.4,2.9c0.4,1.4,0.8,2.6,1.4,3.6c0.5,0.8,1,1.6,1.6,2.4
			c0.8,1.1,2,1.7,3.2,1.7c0.4,0,0.8-0.1,1.2-0.2c0,0.3,0.1,0.6,0.1,1c0.2,1.5,0.4,3.1,0.6,4.7c0.1,1.5,0.2,2.9,0.2,3.9l0,0l0,0
			c0,0.9,0.1,1.7,0.3,2.5c0.2,0.8,0.4,1.5,0.8,2.3c0.3,0.7,0.8,1.5,1.3,2.3c0.5,0.6,1,1.4,1.7,2.2c1,1.4,2.3,1.6,3,1.6
			c0.2,0,0.5,0,0.7-0.1c0.7-0.1,2.3-0.7,2.9-2.9l0-0.1l0-0.1c0.1-0.5,0.2-1.1,0.3-1.6c0-0.1,0-0.2,0-0.2c0.4,1.1,0.9,1.9,1.3,2.6
			c0.6,0.8,1.2,1.4,1.9,1.8c0.7,0.4,1.4,0.6,2.1,0.6c0.1,0,0.3,0,0.4,0l0.2,0l0.2,0c1-0.2,2.7-1.1,3.5-3.8c0-0.1,0.2-0.5,0.9-1.7
			c0.6-1,1.3-2.1,2.1-3.1c0.8-1.1,1.3-2.1,1.4-3.1l1.8,1.6c1.9,1.7,3.4,2.9,4.5,3.6c1,0.7,1.7,1.1,2.3,1.5c0.7,0.4,1.5,0.7,2.3,0.7
			c0.7,0,1.3-0.2,1.9-0.5c0.9-0.5,1.7-1.2,2.3-2.2c0.5-0.8,0.8-1.7,1.1-2.7c0.2-1,0.3-2.1,0.2-3.2c-0.1-0.8-0.3-1.6-0.6-2.4
			c-0.3-0.8-0.8-1.7-1.4-2.4c-0.6-0.7-1.3-1.4-2.2-2c-0.1,0-0.1-0.1-0.2-0.1c0.3-0.1,0.6-0.2,0.9-0.3c0.8-0.3,1.6-0.6,2.2-0.9
			c1.1-0.5,1.8-1,2.2-1.7l0,0l0,0c1.1-1.6,1.1-3.5,0.1-5.1c-0.8-1.2-2.2-2.1-4.6-2.8c-0.5-0.2-1-0.3-1.6-0.3c-0.1,0-0.3,0-0.4,0
			c-0.5,0-1,0.1-1.7,0.2c-0.5,0.1-1,0.2-1.7,0.4c-0.1-1.9-0.2-3.4-0.3-4.7c-0.1-2.2-0.2-3.8-0.2-5c0-1.4,0-2.1,0-2.4
			c0-0.5,0.1-0.7,0.1-0.9l0-0.1l0-0.1c0.2-1.4,0-2.9-0.7-4.4c-0.6-1.2-1.3-2.4-2.3-3.4c-0.9-1-2-2-3.1-2.8c-1.2-0.8-2.3-1.5-3.5-2
			l0,0l0,0C465.9,545.7,465.1,545.5,464.3,545.5L464.3,545.5z M464.6,558.4c0.4-0.2,0.8-0.3,1.1-0.5c0.1,0.8,0.2,1.6,0.3,2.3
			c-0.2-0.1-0.5-0.1-0.7-0.2c-0.1-0.4-0.3-0.8-0.5-1.3C464.7,558.7,464.7,558.5,464.6,558.4L464.6,558.4z M454.7,581.8
			c0.1-1.5,0.2-3.1,0.4-4.7c0.3-2.5,0.6-5,1-7.4c0,0.5,0.1,1,0.1,1.5c0.1,1.5,0.2,2.8,0.3,4l0.1,1.4l0.1,1.5
			c0.1,0.9,0.2,1.6,0.4,2.2c-0.2,0.1-0.4,0.2-0.6,0.4c-0.5,0.3-1,0.6-1.4,0.8C454.9,581.7,454.8,581.8,454.7,581.8L454.7,581.8z
			 M466.9,586.2c0.4-0.2,0.8-0.4,1.1-0.5c0.1,0,0.1-0.1,0.2-0.1c0.3,0.4,0.7,0.8,1.2,1.1l-1.6-0.1
			C467.6,586.5,467.2,586.3,466.9,586.2L466.9,586.2z M473.5,587c0.2-0.1,0.4-0.2,0.5-0.3c0.1,0.1,0.2,0.2,0.2,0.3
			c-0.1,0-0.3,0-0.5,0C473.7,587,473.6,587,473.5,587L473.5,587z M403.1,547.4L403.1,547.4l-0.1,0c-0.7,0-2.9,0.1-4.1,1.8
			c-0.5,0.7-1.2,2.1-0.5,4.1l0,0l0,0c0.9,2.6,3,2.8,3.6,2.8c0,0,0,0,0,0c0,0.9-0.1,2.3-0.3,4.1c-0.1,0.1-0.3,0.2-0.4,0.3
			c-0.6,0.4-1.3,1-2.1,1.7c0,0,0,0-0.1,0c-0.3,0.1-0.7,0.2-1.1,0.2c-0.6,0.1-1.1,0.2-1.6,0.4c-0.1-0.7-0.3-1.5-0.7-2.4
			c-0.8-1.7-2.4-3.1-4.9-4.4c-0.7-0.4-1.5-0.5-2.3-0.5c-0.2,0-0.4,0-0.5,0c-0.8,0.1-1.6,0.3-2.5,0.6c-0.8,0.3-1.5,0.7-2.2,1.2
			c-0.7,0.5-1.4,1-2,1.7c0,0-0.1,0-0.1,0c-1.8,0-3.2,1.1-3.6,2.8c-0.2,0.8-0.2,2.3,1.3,3.9c0.6,0.7,1.2,1.2,1.7,1.6
			c0.5,0.4,1,0.8,1.5,1.1c0.2,0.1,0.4,0.2,0.5,0.3c-0.6,0.3-1.1,0.7-1.7,1.2c-1.4,1.1-2.7,2.4-4.1,3.9c-1.1,1.1-1.6,2.6-1.4,4.1
			c0.2,1.8,1.1,2.8,1.8,3.3l0.1,0.1l0.1,0.1c0.3,0.2,0.9,0.6,1.9,1.3c0.6,0.5,1.2,1,1.7,1.4c-0.1,0.1-0.1,0.2-0.2,0.3
			c-1.6,0.4-2.7,1.6-3.1,3.4c-0.3,1.3-0.1,2.9,0.7,5c0.7,2,2.4,3.1,4.4,3.1c0.1,0,0.2,0,0.3,0c1.8-0.1,3.4-1.1,4.9-3.1l0,0l0,0
			c0.4-0.6,0.9-1.2,1.3-1.9c0.1,0.5,0.2,0.9,0.3,1.4c0.1,0.5,0.4,1.1,0.6,1.9c0.5,1.6,1.2,3.2,2.8,3.8c0.4,0.1,0.8,0.2,1.2,0.2
			c1,0,2-0.4,3-1.3l0,0l0,0c0.3-0.3,0.6-0.5,0.9-0.8c0.4,0.7,0.8,1.4,1.2,2.2l0,0.1l0.1,0.1c0.3,0.5,0.8,1.3,1.6,2.3
			c0.8,1.1,1.7,2.3,2.8,3.6l0,0l0,0c0.8,1,1.8,1.4,2.9,1.4c0.4,0,0.7-0.1,1.1-0.2c1.9-0.7,2.3-2.6,2.5-3.4l0,0l0,0
			c0.1-0.7,0.2-1.6,0.3-2.6c0.1-1,0.2-2.1,0.2-3.2c0.1-1.1,0.1-2.3,0.1-3.5c0-0.1,0-0.3,0-0.4c0.1,0,0.1,0,0.2,0c0.5,0,1,0,1.7-0.1
			l0,0l0,0c0.2,0,0.3,0,0.5,0c0.2,0,0.4,0,0.5,0.1c0.3,0.1,0.5,0.3,0.7,0.4c0.6,0.7,1.4,1.2,2.4,1.6c0.5,0.2,1.1,0.4,1.9,0.6
			c0.9,0.2,1.5,0.4,2.1,0.4c0.5,0,0.9-0.1,1.3-0.2c0.8-0.3,2.1-1.1,2.4-3.5l0,0l0,0c0.1-0.8,0-1.6-0.3-2.6c-0.1-0.5-0.5-1.3-1.5-3.5
			c-0.5-1.2-1.2-2-2-2.5c-0.8-0.5-1.7-0.8-2.9-0.9c-0.3,0-0.8-0.1-1.2-0.2c-0.1,0-0.2,0-0.3-0.1c0.5-1,1.1-2.4,1.9-4
			c0.9-1.8,1.3-3.2,1.2-4.5c-0.1-1.3-0.7-2.6-1.7-4.1c-1.3-1.8-2.8-2.8-4.6-2.9c0,0-0.1,0-0.1,0c0.7-0.4,1.5-0.8,2.3-1.1l0,0l0,0
			c0.3-0.1,0.6-0.3,0.8-0.5c0.4,0.4,0.9,0.7,1.4,0.9c0.4,0.1,0.8,0.2,1.2,0.2c0.9,0,1.8-0.3,2.7-1c0.7-0.5,1.4-1.1,1.9-1.9
			c0.7-0.9,1.2-2.1,1.5-3.7c0.2-1.2,0-2.5-0.5-3.6c-0.5-1-1.3-1.9-2.3-2.7c-0.9-0.7-2-1.2-3.3-1.6c-1-0.3-2.1-0.4-3.3-0.4
			c-0.2,0-0.4,0-0.6,0c-0.6,0-2.2,0.1-3.3,1.4c0,0,0,0,0,0l-0.1-0.1c-0.4-0.6-0.9-1.1-1.4-1.7c-0.6-0.6-1.3-1.2-2.1-1.6
			c-0.7-0.4-1.5-0.7-2.2-1C405,547.6,404,547.4,403.1,547.4L403.1,547.4z"/>
	</g>
</g>
<g>
</g>
<g>
</g>
<g>
</g>
<g>
</g>
<g>
</g>
<g>
</g>
<g>
</g>
<g>
</g>
<g>
</g>
<g>
</g>
<g>
</g>
</svg>
