<!-- Created by @FCLOGO 2022-01-06 20:04:10 . https://fclogo.top/ -->
<!-- FOR PERSONAL USE ONLY NOT FOR COMMERCIAL USE -->
<svg version="1.1" xmlns="http://www.w3.org/2000/svg" xmlns:xlink="http://www.w3.org/1999/xlink" x="0px" y="0px"
	 viewBox="0 0 800 800" enable-background="new 0 0 800 800" xml:space="preserve">
<g>
	<g>
		<circle fill="#00923F" cx="400" cy="400" r="350"/>
		<circle fill="#FFFFFF" cx="400" cy="400" r="338.3"/>
		<circle fill="#00923F" cx="400" cy="368.6" r="247.3"/>
		<circle fill="#FFFFFF" cx="400" cy="368.6" r="239.2"/>
		<path fill="#00923F" d="M647.3,365h-47.6L559,317l4.3-62.7l38.9-28.2c-31.2-44.2-76.5-77.7-129.4-93.9l-14.8,45.7L400,201.4
			L341.8,178l-14.9-45.8c-52.7,16.3-97.9,49.7-129,93.8l38.5,28l4.7,62.9l-39.7,47.5h-48.6c0,1.4,0,2.8,0,4.2
			c0,55.3,18.2,106.4,48.9,147.6l38-27.6l62.2,15.2l32.6,52l-15.2,46.7c25.3,8.8,52.5,13.5,80.9,13.5c27.7,0,54.3-4.5,79.1-12.9
			l-14.5-44.8l33.6-54.4l60.1-15.1l39.4,28.6c31.2-41.4,49.7-92.9,49.7-148.8C647.3,367.4,647.3,366.2,647.3,365z M460.2,184.4
			l96,69.7l-4.2,61.4l-33.7,11.1l-114.3-83l-0.6-36L460.2,184.4z M339.4,184.6l57.1,23l0.2,35.5l-114.3,83L248,315.5l-4.6-61.1
			L339.4,184.6z M243,482.2l-36.7-112.9l39.5-47.2l33.8,10.8l43.7,134.4l-20.7,29.5L243,482.2z M459.6,553l-118.7,0l-32.7-52.1
			l20.7-28.8h141.3l21.6,28.8L459.6,553z M556.6,481.9l-59.2,14.9l-21-28.6l43.7-134.4l34.1-11.7l39.2,46.3L556.6,481.9z"/>
	</g>
	<path fill="#00923F" d="M646.4,521.6c0.3-0.4,0.5-0.9,0.8-1.3c12.1-6.3,41.4-25.9,48.5-69.7c0,0-14.2,8.8-28.6,27.3
		c2.7-7.7,4.9-15.5,6.6-23.5c0-0.1,0.1-0.3,0.1-0.4c10.4-9.1,37.1-37.6,28.6-82.9c0,0-11.5,34.3-23.7,50.8c0.3-2.8,0.6-5.7,0.8-8.5
		l2.1-26c6.8-6.9,26.7-32.9,10.7-90.7c0,0-5.4,40.9-9.8,58c-0.7-8.1-1.9-16.1-3.6-24c-0.6-2.8-1.3-5.6-2-8.4
		c4.2-8,16.3-38.5-12.5-84.8c0,0,6.3,51,5.3,61.2c-0.9-2.6-1.9-5.2-2.9-7.7c-2.3-6-4.8-11.9-7.5-17.7c-4.6-42.1-36.8-61.8-36.8-61.8
		c5.6,40.3,23.9,55.9,32.5,61.1c2.6,6.5,5.3,12.9,7.6,19.4c-8-9.1-21-23.3-28.5-28.2c0,0,5,31.9,37.5,57.5c0.9,3.4,1.7,6.9,2.4,10.3
		c1.7,8.3,3,16.8,3.6,25.2c-3.7-9.4-12.2-29.6-21.7-41.8c0,0,0.3,36.9,20.8,69.7l-2.4,28c0,0.3,0,0.5-0.1,0.8
		c-0.9-11.8-3.4-29.1-10.2-40.7c0,0-9.1,30.3,4.5,79.7c0,0.2-0.1,0.4-0.1,0.6c-2.3,10.5-5.6,20.8-9.6,30.8c0.5-10.2,1-31.3-3-48.5
		c0,0-16.6,30.6-14.2,82.7c-1.8,3-3.7,6-5.7,8.9c-1.6,2.5-3.3,4.9-4.9,7.3c1.2-8.8,3.4-25.6,4.9-37.4c0,0-18.9,20.1-22.2,33.9
		c-3.9,16.2-11.2,35.1-12.7,38.9c-6.3,5.8-13,11.3-20,16.3c-0.9,0.6-1.8,1.3-2.7,1.9c0.6-3.4,2.1-8.7,5.6-15.7
		c6.2-12.7,14.5-35.7,14.5-35.7s-20.7,16-24.8,25.3c-3.2,7.3-13.2,29.9-19.3,41.3c-2.6,1.5-5.2,2.9-7.8,4.3
		c-6,3.2-12.1,6.2-18.2,9.1c-1.7,0.8-3.3,1.5-5,2.2c6.2-7.9,22.5-29,31.1-43.9c0,0-17.1,5.7-23.3,10.9c-5.9,4.9-26.1,28.3-30,42.2
		c-9.4,3.6-19,6.9-28.6,10l31.2-36.2c0,0-32.6,10.9-39.8,17.6c-5.3,4.9-14.9,19.1-21.6,27.5c-3.5,0.9-6.9,1.9-10.4,2.8l-10,2.6
		l-5,1.4l-4.9,1.3c-3.9,1.1-8,2.2-12,3.7c-4-1.4-8.1-2.6-12-3.7l-4.9-1.3l-5-1.4l-10-2.6c-3.5-0.9-7-1.8-10.4-2.8
		c-6.7-8.4-16.3-22.6-21.6-27.5c-7.2-6.7-39.8-17.6-39.8-17.6l31.2,36.2c-9.6-3.1-19.2-6.4-28.6-10c-3.9-13.9-24.1-37.3-30-42.2
		c-6.2-5.2-23.3-10.9-23.3-10.9c8.7,14.9,25,36,31.1,43.9c-1.7-0.7-3.3-1.5-5-2.2c-6.2-2.9-12.2-5.9-18.2-9.1
		c-2.6-1.4-5.2-2.8-7.8-4.3c-6.1-11.4-16.1-34-19.3-41.3c-4.1-9.3-24.8-25.3-24.8-25.3s8.3,23,14.5,35.7c3.5,7.1,5,12.4,5.6,15.7
		c-0.9-0.6-1.8-1.3-2.7-1.9c-7-5.1-13.7-10.5-20-16.3c-1.5-3.8-8.7-22.7-12.7-38.9c-3.4-13.8-22.2-33.9-22.2-33.9
		c1.5,11.8,3.7,28.6,4.9,37.4c-1.7-2.4-3.3-4.8-4.9-7.3c-1.9-2.9-3.8-5.9-5.7-8.9c2.4-52.1-14.2-82.7-14.2-82.7
		c-4,17.1-3.5,38.3-3,48.5c-4-10-7.2-20.3-9.6-30.8c0-0.2-0.1-0.4-0.1-0.6c13.7-49.3,4.5-79.7,4.5-79.7
		c-6.8,11.6-9.3,28.9-10.2,40.7c0-0.3,0-0.5-0.1-0.8l-2.4-28c20.6-32.9,20.8-69.7,20.8-69.7c-9.6,12.2-18.1,32.4-21.7,41.8
		c0.6-8.4,1.9-16.9,3.6-25.2c0.7-3.5,1.5-6.9,2.4-10.3c32.5-25.6,37.5-57.5,37.5-57.5c-7.4,4.9-20.5,19.1-28.5,28.2
		c2.3-6.6,5-13,7.6-19.4c8.6-5.2,26.9-20.8,32.5-61.1c0,0-32.2,19.7-36.8,61.8c-2.7,5.8-5.2,11.7-7.5,17.7c-1,2.6-2,5.1-2.9,7.7
		c-1.1-10.2,5.3-61.2,5.3-61.2c-28.8,46.3-16.7,76.8-12.5,84.8c-0.7,2.8-1.4,5.6-2,8.4c-1.7,7.9-3,15.9-3.6,24
		c-4.5-17.2-9.8-58-9.8-58c-16.1,57.8,3.9,83.8,10.7,90.7l2.1,26c0.2,2.8,0.5,5.7,0.8,8.5c-12.2-16.4-23.7-50.8-23.7-50.8
		c-8.5,45.3,18.2,73.8,28.6,82.9c0,0.1,0.1,0.3,0.1,0.4c1.7,7.9,4,15.8,6.6,23.5c-14.5-18.5-28.6-27.3-28.6-27.3
		c7.1,43.9,36.5,63.4,48.5,69.7c0.3,0.4,0.5,0.9,0.8,1.3c1.8,2.9,3.6,5.9,5.5,8.8c1.4,2.1,2.8,4.2,4.2,6.3
		c-13.1-6.7-33.9-15.3-33.9-15.3c16.8,35.2,44.8,45.2,59.7,48c6.4,6.6,13.3,12.8,20.5,18.5c-16.8-5.3-42.3-11.4-42.3-11.4
		c25.3,34.1,60.9,35.2,75.6,34c2.3,1.3,4.5,2.6,6.8,3.9c5.4,3,10.8,5.8,16.3,8.5c-8.2,0.6-18,1.4-21.6,2.3
		c-6.7,1.6-23.8,0.5-23.8,0.5c22.4,21.2,54.2,13.8,69.6,8.4c11,4.7,22.2,9,33.5,13c-18.9,1.1-50.8,5-50.8,5
		c35.3,20.1,67.5,11.3,82.2,5.1c3.4,1,6.7,2,10.1,3l9.8,2.9l2.3,0.7l2.5,0.8l4.9,1.5c-4.1,2.5-8.1,5.5-11.6,8.8
		c-5.6,5.1-10.2,11.1-14.1,17.4c-3.6,6.1-6.6,12.4-9.1,18.9h16c1.5-4.1,3.2-8.1,5.2-11.9c3-5.5,6.6-10.7,10.9-15.1
		c4.3-4.4,9.4-8.1,14.9-11c1-0.5,1.9-1,2.9-1.4c1,0.5,2,0.9,2.9,1.4c5.6,3,10.6,6.6,14.9,11c4.3,4.4,7.9,9.6,10.9,15.1
		c2,3.8,3.7,7.8,5.2,11.9h16c-2.5-6.5-5.4-12.8-9.1-18.9c-3.9-6.3-8.5-12.3-14.1-17.4c-3.5-3.4-7.5-6.3-11.6-8.8l4.9-1.5l2.5-0.8
		l2.3-0.7l9.8-2.9c3.4-1,6.7-2,10.1-3c14.7,6.1,46.9,15,82.2-5.1c0,0-32-3.9-50.8-5c11.3-4,22.5-8.3,33.5-13
		c15.4,5.5,47.2,12.8,69.6-8.4c0,0-17.1,1-23.8-0.5c-3.6-0.8-13.3-1.7-21.6-2.3c5.5-2.7,10.9-5.5,16.3-8.5c2.3-1.3,4.5-2.6,6.8-3.9
		c14.6,1.2,50.2,0.1,75.6-34c0,0-25.5,6.2-42.3,11.4c7.2-5.7,14.1-11.9,20.5-18.5c14.9-2.8,42.9-12.9,59.7-48
		c0,0-20.8,8.6-33.9,15.3c1.4-2.1,2.8-4.2,4.2-6.3C642.8,527.6,644.6,524.6,646.4,521.6z"/>
	<g>
		<g>
			<path fill="#FFFFFF" d="M417.9,334.1l-10.6,25.4l-7.3-20.1l-21.3,58.5h-36.1c-9.5,0-15.9-9.7-12.3-18.4l33.1-79.4l14.2,34.1
				l-8.5,23.4l-5.7-13.6l-15.1,36.3h17l34.7-95.2L417.9,334.1z"/>
			<path fill="#FFFFFF" d="M457.3,397.9h-36.1l-1.3-3.6v0l10.6-25.4l4.1,11.3h17l-15.1-36.3l-22.5,54H386l-1.5-3.6l8.5-23.4l3.9,9.3
				h6.3l6.2-14.9l27.2-65.2l33.1,79.4C473.3,388.2,466.8,397.9,457.3,397.9z"/>
		</g>
		<path fill="#FFFFFF" d="M337.9,412.1l3.5-4.8h-7.1l-3.5,4.8v25.3h34.5c1.7,0,3.1-1.4,3.1-3.1v-18.2c0-2.2-1.8-4-4-4H337.9z
			 M363.1,434.3h-27v-8.8h27V434.3z M363.1,422.9h-27v-7.7h27V422.9z"/>
		<g>
			<rect x="380" y="424.9" fill="#FFFFFF" width="39" height="2.2"/>
			<path fill="#FFFFFF" d="M385.3,415.3h11.5v8.3h5.3v-8.3h11.5v8.3h5.3v-8.8c0-1.2-1-2.2-2.2-2.2h-14.7V410H419v-2.7h-39v2.7h16.9
				v2.7h-14.7c-1.2,0-2.2,1-2.2,2.2v8.8h5.3V415.3z"/>
			<path fill="#FFFFFF" d="M419.1,437.4l-2.4-4h-6.2l1.1,1.8h-24l2.2-3.6H419v-2.2h-39v2.2h3.5l-3.5,5.8h27.7c0.5,0,1-0.2,1.4-0.6h0
				c0.5-0.6,1.2-0.9,2-0.9h1l0.9,1.5H419.1z"/>
			<rect x="387.1" y="416.8" fill="#FFFFFF" width="8" height="2.2"/>
			<rect x="387.1" y="420.6" fill="#FFFFFF" width="8" height="2.2"/>
			<rect x="403.9" y="416.7" fill="#FFFFFF" width="8" height="2.2"/>
			<rect x="403.9" y="420.6" fill="#FFFFFF" width="8" height="2.2"/>
		</g>
		<path fill="#FFFFFF" d="M458.8,410v23.4h-8v-26.1H445v26.1h-8V410h-5.8v27.4h29.3c2.2,0,4-1.8,4-4V410H458.8z"/>
	</g>
</g>
<g>
</g>
<g>
</g>
<g>
</g>
<g>
</g>
<g>
</g>
<g>
</g>
<g>
</g>
<g>
</g>
<g>
</g>
<g>
</g>
<g>
</g>
</svg>
