<!-- Created by @FCLOGO 2022-01-06 20:03:58 . https://fclogo.top/ -->
<!-- FOR PERSONAL USE ONLY NOT FOR COMMERCIAL USE -->
<svg version="1.1" xmlns="http://www.w3.org/2000/svg" xmlns:xlink="http://www.w3.org/1999/xlink" x="0px" y="0px"
	 viewBox="0 0 800 800" enable-background="new 0 0 800 800" xml:space="preserve">
<g>
	<path fill="#00923F" d="M400,50C206.7,50,50,206.7,50,400s156.7,350,350,350s350-156.7,350-350S593.3,50,400,50z M400,738.3
		C213.1,738.3,61.7,586.9,61.7,400S213.1,61.7,400,61.7S738.3,213.1,738.3,400S586.9,738.3,400,738.3z"/>
	<path fill="#00923F" d="M646.4,521.6c0.3-0.4,0.5-0.9,0.8-1.3c12.1-6.3,41.4-25.9,48.5-69.7c0,0-14.2,8.8-28.6,27.3
		c2.7-7.7,4.9-15.5,6.6-23.5c0-0.1,0.1-0.3,0.1-0.4c10.4-9.1,37.1-37.6,28.6-82.9c0,0-11.5,34.3-23.7,50.8c0.3-2.8,0.6-5.7,0.8-8.5
		l2.1-26c6.8-6.9,26.7-32.9,10.7-90.7c0,0-5.4,40.9-9.8,58c-0.7-8.1-1.9-16.1-3.6-24c-0.6-2.8-1.3-5.6-2-8.4
		c4.2-8,16.3-38.5-12.5-84.8c0,0,6.3,51,5.3,61.2c-0.9-2.6-1.9-5.2-2.9-7.7c-2.3-6-4.8-11.9-7.5-17.7c-4.6-42.1-36.8-61.8-36.8-61.8
		c5.6,40.3,23.9,55.9,32.5,61.1c2.6,6.5,5.3,12.9,7.6,19.4c-8-9.1-21-23.3-28.5-28.2c0,0,5,31.9,37.5,57.5c0.9,3.4,1.7,6.9,2.4,10.3
		c1.7,8.3,3,16.8,3.6,25.2c-3.7-9.4-12.2-29.6-21.7-41.8c0,0,0.3,36.9,20.8,69.7l-2.4,28c0,0.3,0,0.5-0.1,0.8
		c-0.9-11.8-3.4-29.1-10.2-40.7c0,0-9.1,30.3,4.5,79.7c0,0.2-0.1,0.4-0.1,0.6c-2.3,10.5-5.6,20.8-9.6,30.8c0.5-10.2,1-31.3-3-48.5
		c0,0-16.6,30.6-14.2,82.7c-1.8,3-3.7,6-5.7,8.9c-1.6,2.5-3.3,4.9-4.9,7.3c1.2-8.8,3.4-25.6,4.9-37.4c0,0-18.9,20.1-22.2,33.9
		c-3.9,16.2-11.2,35.1-12.7,38.9c-6.3,5.8-13,11.3-20,16.3c-0.9,0.6-1.8,1.3-2.7,1.9c0.6-3.4,2.1-8.7,5.6-15.7
		c6.2-12.7,14.5-35.7,14.5-35.7s-20.7,16-24.8,25.3c-3.2,7.3-13.2,29.9-19.3,41.3c-2.6,1.5-5.2,2.9-7.8,4.3
		c-6,3.2-12.1,6.2-18.2,9.1c-1.7,0.8-3.3,1.5-5,2.2c6.2-7.9,22.5-29,31.1-43.9c0,0-17.1,5.7-23.3,10.9c-5.9,4.9-26.1,28.3-30,42.2
		c-9.4,3.6-19,6.9-28.6,10l31.2-36.2c0,0-32.6,10.9-39.8,17.6c-5.3,4.9-14.9,19.1-21.6,27.5c-3.5,0.9-6.9,1.9-10.4,2.8l-10,2.6
		l-5,1.4l-4.9,1.3c-3.9,1.1-8,2.2-12,3.7c-4-1.4-8.1-2.6-12-3.7l-4.9-1.3l-5-1.4l-10-2.6c-3.5-0.9-7-1.8-10.4-2.8
		c-6.7-8.4-16.3-22.6-21.6-27.5c-7.2-6.7-39.8-17.6-39.8-17.6l31.2,36.2c-9.6-3.1-19.2-6.4-28.6-10c-3.9-13.9-24.1-37.3-30-42.2
		c-6.2-5.2-23.3-10.9-23.3-10.9c8.7,14.9,25,36,31.1,43.9c-1.7-0.7-3.3-1.5-5-2.2c-6.2-2.9-12.2-5.9-18.2-9.1
		c-2.6-1.4-5.2-2.8-7.8-4.3c-6.1-11.4-16.1-34-19.3-41.3c-4.1-9.3-24.8-25.3-24.8-25.3s8.3,23,14.5,35.7c3.5,7.1,5,12.4,5.6,15.7
		c-0.9-0.6-1.8-1.3-2.7-1.9c-7-5.1-13.7-10.5-20-16.3c-1.5-3.8-8.7-22.7-12.7-38.9c-3.4-13.8-22.2-33.9-22.2-33.9
		c1.5,11.8,3.7,28.6,4.9,37.4c-1.7-2.4-3.3-4.8-4.9-7.3c-1.9-2.9-3.8-5.9-5.7-8.9c2.4-52.1-14.2-82.7-14.2-82.7
		c-4,17.1-3.5,38.3-3,48.5c-4-10-7.2-20.3-9.6-30.8c0-0.2-0.1-0.4-0.1-0.6c13.7-49.3,4.5-79.7,4.5-79.7
		c-6.8,11.6-9.3,28.9-10.2,40.7c0-0.3,0-0.5-0.1-0.8l-2.4-28c20.6-32.9,20.8-69.7,20.8-69.7c-9.6,12.2-18.1,32.4-21.7,41.8
		c0.6-8.4,1.9-16.9,3.6-25.2c0.7-3.5,1.5-6.9,2.4-10.3c32.5-25.6,37.5-57.5,37.5-57.5c-7.4,4.9-20.5,19.1-28.5,28.2
		c2.3-6.6,5-13,7.6-19.4c8.6-5.2,26.9-20.8,32.5-61.1c0,0-32.2,19.7-36.8,61.8c-2.7,5.8-5.2,11.7-7.5,17.7c-1,2.6-2,5.1-2.9,7.7
		c-1.1-10.2,5.3-61.2,5.3-61.2c-28.8,46.3-16.7,76.8-12.5,84.8c-0.7,2.8-1.4,5.6-2,8.4c-1.7,7.9-3,15.9-3.6,24
		c-4.5-17.2-9.8-58-9.8-58c-16.1,57.8,3.9,83.8,10.7,90.7l2.1,26c0.2,2.8,0.5,5.7,0.8,8.5c-12.2-16.4-23.7-50.8-23.7-50.8
		c-8.5,45.3,18.2,73.8,28.6,82.9c0,0.1,0.1,0.3,0.1,0.4c1.7,7.9,4,15.8,6.6,23.5c-14.5-18.5-28.6-27.3-28.6-27.3
		c7.1,43.9,36.5,63.4,48.5,69.7c0.3,0.4,0.5,0.9,0.8,1.3c1.8,2.9,3.6,5.9,5.5,8.8c1.4,2.1,2.8,4.2,4.2,6.3
		c-13.1-6.7-33.9-15.3-33.9-15.3c16.8,35.2,44.8,45.2,59.7,48c6.4,6.6,13.3,12.8,20.5,18.5c-16.8-5.3-42.3-11.4-42.3-11.4
		c25.3,34.1,60.9,35.2,75.6,34c2.3,1.3,4.5,2.6,6.8,3.9c5.4,3,10.8,5.8,16.3,8.5c-8.2,0.6-18,1.4-21.6,2.3
		c-6.7,1.6-23.8,0.5-23.8,0.5c22.4,21.2,54.2,13.8,69.6,8.4c11,4.7,22.2,9,33.5,13c-18.9,1.1-50.8,5-50.8,5
		c35.3,20.1,67.5,11.3,82.2,5.1c3.4,1,6.7,2,10.1,3l9.8,2.9l2.3,0.7l2.5,0.8l4.9,1.5c-4.1,2.5-8.1,5.5-11.6,8.8
		c-5.6,5.1-10.2,11.1-14.1,17.4c-3.6,6.1-6.6,12.4-9.1,18.9h16c1.5-4.1,3.2-8.1,5.2-11.9c3-5.5,6.6-10.7,10.9-15.1
		c4.3-4.4,9.4-8.1,14.9-11c1-0.5,1.9-1,2.9-1.4c1,0.5,2,0.9,2.9,1.4c5.6,3,10.6,6.6,14.9,11c4.3,4.4,7.9,9.6,10.9,15.1
		c2,3.8,3.7,7.8,5.2,11.9h16c-2.5-6.5-5.4-12.8-9.1-18.9c-3.9-6.3-8.5-12.3-14.1-17.4c-3.5-3.4-7.5-6.3-11.6-8.8l4.9-1.5l2.5-0.8
		l2.3-0.7l9.8-2.9c3.4-1,6.7-2,10.1-3c14.7,6.1,46.9,15,82.2-5.1c0,0-32-3.9-50.8-5c11.3-4,22.5-8.3,33.5-13
		c15.4,5.5,47.2,12.8,69.6-8.4c0,0-17.1,1-23.8-0.5c-3.6-0.8-13.3-1.7-21.6-2.3c5.5-2.7,10.9-5.5,16.3-8.5c2.3-1.3,4.5-2.6,6.8-3.9
		c14.6,1.2,50.2,0.1,75.6-34c0,0-25.5,6.2-42.3,11.4c7.2-5.7,14.1-11.9,20.5-18.5c14.9-2.8,42.9-12.9,59.7-48
		c0,0-20.8,8.6-33.9,15.3c1.4-2.1,2.8-4.2,4.2-6.3C642.8,527.6,644.6,524.6,646.4,521.6z"/>
	<rect x="336.1" y="425.5" fill="#00923F" width="27" height="8.8"/>
	<path fill="#00923F" d="M152.7,364.4c0,1.4,0,2.8,0,4.2c0,0,0,0,0,0c0,0,0,0,0,0c0,0,0,0,0,0c0,2,0,3.9,0.1,5.8
		c0,0.6,0,1.2,0.1,1.9c0,1.3,0.1,2.7,0.2,4c0,0.7,0.1,1.4,0.1,2.1c0.1,1.3,0.2,2.6,0.2,3.9c0,0.7,0.1,1.3,0.1,2
		c0.1,1.5,0.3,3.1,0.4,4.6c0,0.4,0.1,0.8,0.1,1.1c0.2,1.9,0.4,3.8,0.6,5.6c0.1,0.6,0.2,1.2,0.2,1.8c0.2,1.3,0.3,2.6,0.5,3.9
		c0.1,0.7,0.2,1.4,0.3,2.2c0.2,1.2,0.4,2.4,0.6,3.5c0.1,0.7,0.3,1.5,0.4,2.2c0.2,1.3,0.5,2.5,0.7,3.8c0.1,0.6,0.2,1.2,0.4,1.8
		c0.4,1.8,0.8,3.5,1.2,5.3c0.1,0.6,0.3,1.2,0.4,1.9c0.3,1.2,0.6,2.4,0.9,3.6c0.2,0.8,0.4,1.5,0.6,2.3c0.3,1,0.6,2.1,0.8,3.1
		c0.2,0.8,0.4,1.6,0.7,2.4c0.3,1,0.6,2.1,0.9,3.1c0.2,0.8,0.5,1.5,0.7,2.3c0.4,1.4,0.9,2.8,1.3,4.1c0.3,1,0.7,2,1,2.9
		c0.4,1,0.7,2,1.1,3c0.3,0.8,0.6,1.7,0.9,2.5c0.3,0.9,0.7,1.7,1,2.6c0.3,0.9,0.7,1.7,1,2.6c0.3,0.8,0.7,1.6,1,2.5
		c0.4,0.9,0.7,1.8,1.1,2.6c0.3,0.8,0.7,1.6,1,2.4c0.7,1.6,1.5,3.3,2.2,4.9c0.3,0.7,0.7,1.4,1,2.1c0.4,0.9,0.9,1.9,1.4,2.8
		c0.3,0.7,0.7,1.4,1,2c0.5,0.9,1,1.9,1.4,2.8c0.3,0.6,0.7,1.3,1,1.9c0.5,1,1,1.9,1.5,2.8c0.3,0.6,0.6,1.1,0.9,1.6
		c1.9,3.4,3.9,6.8,6,10.1c0.3,0.5,0.6,1,0.9,1.5c0.6,1,1.2,2,1.9,2.9c0.3,0.5,0.7,1,1,1.5c0.7,1,1.3,2,2,2.9
		c0.3,0.4,0.6,0.8,0.9,1.2c29.7,42.8,72.5,75.8,122.6,93.1l0,0c0.2,0.1,0.5,0.1,0.7,0.2c0.8,0.3,1.6,0.5,2.4,0.8
		c1,0.3,1.9,0.6,2.9,0.9c0.8,0.3,1.7,0.5,2.5,0.8c1,0.3,2,0.6,2.9,0.9c0.8,0.2,1.6,0.5,2.5,0.7c1.1,0.3,2.2,0.6,3.3,0.9
		c0.7,0.2,1.4,0.4,2.1,0.6c1.7,0.4,3.5,0.9,5.2,1.3c0.8,0.2,1.6,0.3,2.3,0.5c1.1,0.2,2.1,0.5,3.2,0.7c0.8,0.2,1.7,0.3,2.5,0.5
		c1,0.2,2.1,0.4,3.1,0.6c0.8,0.2,1.7,0.3,2.6,0.5c1.1,0.2,2.1,0.4,3.2,0.5c0.8,0.1,1.6,0.3,2.4,0.4c1.3,0.2,2.6,0.4,4,0.6
		c0.7,0.1,1.4,0.2,2.1,0.3c1.7,0.2,3.4,0.4,5.1,0.6c0.8,0.1,1.5,0.1,2.3,0.2c1.2,0.1,2.3,0.2,3.5,0.3c0.8,0.1,1.7,0.1,2.5,0.2
		c1.1,0.1,2.2,0.2,3.4,0.2c0.8,0,1.7,0.1,2.5,0.1c1.2,0.1,2.4,0.1,3.6,0.1c0.8,0,1.5,0.1,2.3,0.1c1.6,0,3.2,0.1,4.8,0.1
		c0.3,0,0.6,0,1,0c0.3,0,0.6,0,0.9,0c1.6,0,3.3,0,4.9-0.1c0.7,0,1.5,0,2.2-0.1c1.2,0,2.4-0.1,3.7-0.1c0.8,0,1.6-0.1,2.3-0.1
		c1.2-0.1,2.4-0.1,3.6-0.2c0.7-0.1,1.5-0.1,2.2-0.2c1.5-0.1,2.9-0.2,4.4-0.4c0.4,0,0.9-0.1,1.3-0.1c1.9-0.2,3.7-0.4,5.6-0.6
		c0.6-0.1,1.2-0.2,1.8-0.2c1.3-0.2,2.6-0.4,3.9-0.6c0.7-0.1,1.4-0.2,2.1-0.3c1.2-0.2,2.5-0.4,3.7-0.6c0.7-0.1,1.3-0.2,2-0.4
		c1.4-0.2,2.7-0.5,4-0.8c0.5-0.1,1-0.2,1.5-0.3c1.8-0.4,3.6-0.8,5.4-1.2c0.5-0.1,1.1-0.3,1.6-0.4c1.3-0.3,2.6-0.6,3.8-0.9
		c0.7-0.2,1.5-0.4,2.2-0.6c1.1-0.3,2.1-0.6,3.2-0.9c0.8-0.2,1.6-0.4,2.4-0.7c1-0.3,2-0.6,3-0.9c0.8-0.2,1.6-0.5,2.4-0.7
		c1.1-0.3,2.1-0.7,3.2-1c48.4-15.9,90.2-46.4,120.2-86.2l0,0c0.1-0.1,0.2-0.3,0.3-0.4c0.4-0.5,0.7-1,1.1-1.5c0.7-1,1.4-2,2.1-2.9
		c0.4-0.6,0.8-1.1,1.2-1.7c0.7-1,1.3-1.9,2-2.9c0.4-0.6,0.8-1.1,1.1-1.7c0.7-1.1,1.4-2.2,2.2-3.3c0.3-0.4,0.6-0.9,0.9-1.3
		c1-1.5,1.9-3.1,2.9-4.6c0.2-0.4,0.4-0.8,0.7-1.1c0.7-1.2,1.4-2.4,2.1-3.6c0.3-0.6,0.6-1.1,1-1.7c0.6-1,1.2-2.1,1.8-3.2
		c0.3-0.6,0.7-1.2,1-1.8c0.6-1.1,1.2-2.2,1.7-3.3c0.3-0.5,0.6-1.1,0.8-1.6c0.8-1.5,1.5-3,2.2-4.5c0.1-0.2,0.1-0.3,0.2-0.5
		c0.8-1.6,1.6-3.3,2.3-5c0.2-0.5,0.5-1.1,0.7-1.6c0.5-1.2,1-2.3,1.5-3.5c0.3-0.6,0.5-1.3,0.8-1.9c0.5-1.1,0.9-2.2,1.4-3.4
		c0.2-0.6,0.5-1.2,0.7-1.9c0.5-1.3,1-2.5,1.4-3.8c0.2-0.5,0.4-0.9,0.5-1.4c0.6-1.7,1.2-3.5,1.8-5.2c0.1-0.4,0.3-0.9,0.4-1.3
		c0.4-1.3,0.9-2.7,1.3-4c0.2-0.6,0.4-1.3,0.6-1.9c0.4-1.2,0.7-2.3,1-3.5c0.2-0.7,0.4-1.3,0.6-2c0.3-1.2,0.7-2.4,1-3.7
		c0.2-0.6,0.3-1.2,0.5-1.8c0.4-1.7,0.8-3.4,1.2-5.1c0-0.1,0.1-0.2,0.1-0.4c0.4-1.8,0.8-3.7,1.2-5.5c0.1-0.6,0.2-1.2,0.4-1.8
		c0.3-1.3,0.5-2.5,0.7-3.8c0.1-0.7,0.2-1.4,0.4-2.1c0.2-1.2,0.4-2.5,0.6-3.7c0.1-0.7,0.2-1.4,0.3-2c0.2-1.4,0.4-2.8,0.6-4.2
		c0.1-0.5,0.1-1,0.2-1.5c0.2-1.9,0.5-3.8,0.6-5.7c0-0.5,0.1-0.9,0.1-1.4c0.1-1.4,0.3-2.9,0.4-4.4c0.1-0.7,0.1-1.4,0.1-2
		c0.1-1.3,0.2-2.6,0.2-3.8c0-0.7,0.1-1.4,0.1-2.1c0.1-1.3,0.1-2.7,0.2-4c0-0.6,0-1.2,0.1-1.9c0-2,0.1-3.9,0.1-5.9c0,0,0,0,0,0
		c0,0,0,0,0,0c0,0,0,0,0,0c0-1.2,0-2.4,0-3.5h0c-0.7-53.4-18.4-102.8-47.9-142.9c-0.1-0.1-0.2-0.2-0.3-0.4c-0.8-1.1-1.7-2.3-2.5-3.4
		c-0.3-0.3-0.5-0.7-0.8-1c-0.8-1-1.6-2.1-2.4-3.1c-0.3-0.4-0.6-0.8-1-1.2c-0.8-1-1.6-2-2.4-2.9c-0.3-0.4-0.7-0.8-1-1.2
		c-0.8-1-1.7-2-2.5-2.9c-0.1-0.1-0.3-0.3-0.4-0.4c-1.7-2-3.5-3.9-5.3-5.8c-0.4-0.5-0.9-1-1.3-1.4c-0.7-0.7-1.4-1.5-2.1-2.2
		c-0.6-0.6-1.2-1.2-1.8-1.8c-0.7-0.7-1.4-1.4-2-2c-0.6-0.6-1.3-1.3-1.9-1.9c-0.7-0.6-1.3-1.3-2-1.9c-0.7-0.7-1.4-1.3-2.1-2
		c-0.6-0.6-1.2-1.2-1.9-1.7c-0.8-0.8-1.7-1.5-2.5-2.2c-0.5-0.5-1.1-0.9-1.6-1.4c-1.4-1.2-2.7-2.3-4.1-3.5c-0.4-0.3-0.7-0.6-1.1-0.9
		c-1.1-0.9-2.2-1.8-3.3-2.6c-0.5-0.4-1-0.8-1.6-1.2c-1-0.7-1.9-1.5-2.9-2.2c-0.6-0.4-1.1-0.8-1.7-1.2c-1-0.7-1.9-1.4-2.9-2.1
		c-0.5-0.4-1.1-0.8-1.6-1.2c-1-0.7-2.1-1.5-3.2-2.2c-0.5-0.3-1-0.7-1.4-1c-1.3-0.9-2.7-1.8-4-2.6c-0.2-0.1-0.4-0.3-0.6-0.4
		c-1.6-1-3.2-2-4.9-3c-0.2-0.1-0.4-0.3-0.6-0.4c-1.4-0.8-2.8-1.7-4.2-2.5c-0.4-0.3-0.9-0.5-1.4-0.8c-1.2-0.7-2.4-1.3-3.6-2
		c-0.5-0.3-1-0.5-1.5-0.8c-1.2-0.6-2.4-1.3-3.6-1.9c-0.5-0.3-1-0.5-1.5-0.8c-1.3-0.7-2.6-1.3-3.9-1.9c-0.4-0.2-0.8-0.4-1.2-0.6
		c-3.5-1.7-7-3.3-10.5-4.8c-0.2-0.1-0.5-0.2-0.7-0.3c-1.5-0.6-3-1.3-4.6-1.9c-0.5-0.2-0.9-0.4-1.4-0.5c-1.3-0.5-2.7-1-4-1.5
		c-0.5-0.2-1-0.4-1.5-0.6c-1.3-0.5-2.7-1-4-1.4c-0.5-0.2-0.9-0.3-1.4-0.5c-1.5-0.5-3-1-4.6-1.5c-0.3-0.1-0.6-0.2-0.9-0.3
		c-0.2-0.1-0.4-0.1-0.7-0.2l0,0c-23-7.1-47.4-10.9-72.7-10.9c-25.5,0-50,3.8-73.1,11l0,0c0,0-0.1,0-0.1,0c-0.7,0.2-1.4,0.5-2.1,0.7
		c-1.1,0.3-2.2,0.7-3.3,1.1c-0.8,0.3-1.6,0.5-2.3,0.8c-1,0.3-2,0.7-3,1.1c-0.8,0.3-1.6,0.6-2.3,0.9c-1,0.4-2,0.8-3,1.1
		c-0.8,0.3-1.5,0.6-2.3,0.9c-1.1,0.4-2.1,0.9-3.2,1.3c-0.7,0.3-1.4,0.6-2,0.8c-1.3,0.6-2.7,1.1-4,1.7c-0.4,0.2-0.8,0.3-1.2,0.5
		c-1.7,0.8-3.3,1.5-5,2.3c-0.6,0.3-1.2,0.6-1.7,0.9c-1.1,0.5-2.2,1.1-3.3,1.6c-0.7,0.3-1.3,0.7-2,1c-1,0.5-2,1-3,1.6
		c-0.7,0.4-1.4,0.7-2,1.1c-1,0.5-1.9,1.1-2.9,1.6c-0.7,0.4-1.3,0.7-2,1.1c-1,0.6-2.1,1.2-3.1,1.8c-0.6,0.3-1.2,0.7-1.7,1
		c-1.5,0.9-3.1,1.9-4.6,2.9c-0.4,0.2-0.7,0.5-1.1,0.7c-1.2,0.8-2.4,1.5-3.5,2.3c-0.6,0.4-1.2,0.9-1.9,1.3c-0.9,0.6-1.8,1.2-2.7,1.9
		c-0.7,0.5-1.3,1-2,1.4c-0.8,0.6-1.7,1.2-2.5,1.8c-0.7,0.5-1.4,1-2,1.5c-0.8,0.6-1.6,1.2-2.4,1.8c-0.7,0.5-1.4,1.1-2,1.6
		c-0.8,0.6-1.6,1.3-2.4,1.9c-0.6,0.5-1.3,1-1.9,1.6c-1.3,1.1-2.6,2.2-3.9,3.3c-0.7,0.6-1.4,1.3-2.2,1.9c-0.6,0.6-1.3,1.1-1.9,1.7
		c-0.8,0.7-1.5,1.4-2.3,2.1c-0.6,0.5-1.2,1.1-1.7,1.6c-0.8,0.7-1.5,1.5-2.3,2.2c-0.5,0.5-1.1,1-1.6,1.5c-0.8,0.8-1.6,1.6-2.4,2.3
		c-0.4,0.4-0.9,0.9-1.3,1.4c-0.8,0.9-1.7,1.7-2.5,2.6c-0.2,0.2-0.4,0.4-0.6,0.6c-3.2,3.4-6.3,6.8-9.2,10.4c-0.1,0.2-0.3,0.3-0.4,0.5
		c-0.9,1.1-1.9,2.3-2.8,3.4c-0.2,0.2-0.4,0.4-0.5,0.7c-0.9,1.2-1.9,2.3-2.8,3.5c-0.1,0.2-0.2,0.3-0.3,0.5
		C172.5,258.8,153.6,309.4,152.7,364.4L152.7,364.4z M321.7,594.6c-45.7-15.8-85.1-45.2-113.5-83.2l31.4-22.8l62.2,15.2l32.6,52
		L321.7,594.6z M459.6,553l-118.7,0l-32.7-52.1l20.7-28.8h141.3l21.6,28.8L459.6,553z M365.4,380.1l34.7-95.2l17.9,49.2l-10.6,25.4
		l-7.3-20.1l-21.3,58.5h-36.1c-9.5,0-15.9-9.7-12.3-18.4l33.1-79.4l14.2,34.1l-8.5,23.4l-5.7-13.6l-15.1,36.3H365.4z M445,433.4
		v-26.1h5.8v26.1h8V410h5.8v23.4c0,2.2-1.8,4-4,4h-29.3V410h5.8v23.4H445z M457.3,397.9h-36.1l-1.3-3.6v0l10.6-25.4l4.1,11.3h17
		l-15.1-36.3l-22.5,54H386l-1.5-3.6l8.5-23.4l3.9,9.3h6.3l6.2-14.9l27.2-65.2l33.1,79.4C473.3,388.2,466.8,397.9,457.3,397.9z
		 M380,431.6v-2.2h39v2.2h-29.3l-2.2,3.6h24l-1.1-1.8h6.2l2.4,4h-6.2l-0.9-1.5h-1c-0.8,0-1.5,0.3-2,0.9c-0.3,0.4-0.8,0.6-1.4,0.6
		H380l3.5-5.8H380z M380,410v-2.7h39v2.7h-16.9v2.7h14.7c1.2,0,2.2,1,2.2,2.2v8.8h-5.3v-8.3h-11.5v8.3h-5.3v-8.3h-11.5v8.3H380v-8.8
		c0-1.2,1-2.2,2.2-2.2h14.7V410H380z M403.9,418.9v-2.2h8v2.2H403.9z M411.9,420.6v2.2h-8v-2.2H411.9z M387.1,419v-2.2h8v2.2H387.1z
		 M395.1,420.6v2.2h-8v-2.2H395.1z M419,424.9v2.2h-39v-2.2H419z M364.4,412.1c2.2,0,4,1.8,4,4v18.2c0,1.7-1.4,3.1-3.1,3.1h-34.5
		v-25.3l3.5-4.8h7.1l-3.5,4.8H364.4z M476.6,595.2l-12-37l33.6-54.4l60.1-15.1l32.8,23.8C562.3,550.5,522.6,579.7,476.6,595.2z
		 M563.2,254.3l32.3-23.5c26.9,38.1,42.9,84.3,43.6,134.2h-39.4L559,317L563.2,254.3z M593.5,368.5l-36.8,113.4l-59.2,14.9l-21-28.6
		l43.7-134.4l34.1-11.7L593.5,368.5z M556.2,254.1l-4.2,61.4l-33.7,11.1l-114.3-83l-0.6-36l56.7-23.2L556.2,254.1z M400,129.4
		c24.4,0,48,3.7,70.2,10.5l-12.3,37.9L400,201.4L341.8,178l-12.4-38C351.7,133.1,375.4,129.4,400,129.4z M339.4,184.6l57.1,23
		l0.2,35.5l-114.3,83L248,315.5l-4.6-61.1L339.4,184.6z M245.8,322.1l33.8,10.8l43.7,134.4l-20.7,29.5L243,482.2l-36.7-112.9
		L245.8,322.1z M204.5,230.8l31.9,23.2l4.7,62.9l-39.7,47.5h-40.5C161.7,314.7,177.7,268.7,204.5,230.8z"/>
	<rect x="336.1" y="415.2" fill="#00923F" width="27" height="7.7"/>
</g>
<g>
</g>
<g>
</g>
<g>
</g>
<g>
</g>
<g>
</g>
<g>
</g>
<g>
</g>
<g>
</g>
<g>
</g>
<g>
</g>
<g>
</g>
</svg>
