<svg version="1.1" xmlns="http://www.w3.org/2000/svg" xmlns:xlink="http://www.w3.org/1999/xlink" x="0px" y="0px"
	 viewBox="0 0 800 800" enable-background="new 0 0 800 800" xml:space="preserve">
<g>
	<path fill="#B02923" d="M674.8,271.1c-1.6-100,41-151.1,41-151.1l-84.4-70C547.3,90,403.2,87.9,400,87.8v0c0,0-0.1,0-0.1,0
		c0,0-0.1,0-0.1,0v0C396.6,87.9,252.6,90,168.5,50l-84.3,70c0,0,42.6,51,41,151.1c-1.6,115.4-46,136.5-46,249.1
		C79.1,729.2,399.9,750,399.9,750h0.1c0,0,321-20.8,320.9-229.9C720.9,407.5,676.4,386.5,674.8,271.1z M400,728.8L400,728.8
		c-0.2,0-300-21.7-300-207.7c0-105.3,45.2-135.6,46.9-243.6c1.6-96.6-33.4-153.5-33.4-153.5l58.4-48.5c78.9,34.8,222.2,33.1,228,33
		v0c0,0,0.1,0,0.1,0c0,0,0.1,0,0.1,0v0c5.8,0.1,149.2,1.8,228.1-33l58.4,48.5c0,0-35,56.9-33.4,153.5c1.8,107.9,47,138.2,47,243.6
		C700.2,707,400.1,728.8,400,728.8z"/>
	<path fill="#B02923" d="M435.5,282.6V297c-1,0.2-2.4,0.5-4.2,0.9c-1.2,0.2-2.1,0.3-2.6,0.5l-0.6,0.2v5.7l1.1-0.2
		c0.8-0.2,1.9-0.3,3.5-0.5c1.2-0.2,2.1-0.4,2.9-0.5v0.6c-0.1,3,0.6,5.3,2.1,6.8c1.5,1.5,3.6,2.3,6.5,2.3l12.4,0l0.5,0
		c2.9,0,5.1-0.7,6.5-2.2c1.3-1.4,1.9-3.3,1.9-5.9v-4.3h-7v3.4c0,2-0.9,2.8-3.1,2.8H447l-0.3,0c-1.2,0-2.7-0.4-2.7-3.5v-2
		c9.1-2.9,15.9-7.9,20.2-14.9l0.8-1.4h-9l-0.3,0.4c-2.8,3.8-6.8,6.9-11.8,9.2v-11.6H435.5z"/>
	<polygon fill="#B02923" points="441,312.6 432.3,312.6 432.3,319 407.2,319 407.2,325.2 432.3,325.2 432.3,340.2 441,340.2 
		441,325.2 466.1,325.2 466.1,319 441,319 	"/>
	<path fill="#B02923" d="M416.4,298.9v15.5h8.2v-21.2c2.4-2.6,4.4-6,5.9-9.9l0.5-1.2h-8.9l-0.2,0.6c-2.1,6.1-6.6,10.5-13.6,13
		l-0.6,0.2v5.7l1.1-0.3C411.6,300.7,414.2,299.9,416.4,298.9z"/>
	<path fill="#B02923" d="M495.7,299.4c2.3,0,4.1-0.6,5.3-1.9c1.3-1.4,1.9-3.5,1.7-6.2v-7.4h-6.6v6.9c0,2-0.9,2.8-2.9,2.8h-0.6v-12.9
		h-7.1v12.9h-3.5v-9.7h-6.8v15.5l19.4,0C495.1,299.3,495.4,299.4,495.7,299.4z"/>
	<path fill="#B02923" d="M528.8,331.3c0,0.4,0,0.6-0.1,0.6c0,0.1-0.2,0.1-0.6,0.1c-0.1,0-0.2,0-0.5,0h-0.8l-0.3,0
		c-0.1,0-0.3,0-0.3-0.9v-47.3h-21.1v26.5c0.3,9.9-1,17.1-3.7,21.4v-5.1l-1.2,0.4c-5.1,1.7-10.4,2.7-15.9,3.1v-9.1h8.6l0.5,0
		c2.7,0,4.8-0.7,6.2-2.2c1.4-1.5,2.1-3.6,2-6.4v-9.8h-26.9v6h19.3v3.3c0,2.7-1.2,3.1-2.4,3.1c-0.1,0-0.2,0-0.4,0h-14.7v22.7l1-0.1
		c9-0.8,16.7-2.4,22.8-4.6c-0.2,0.2-0.4,0.4-0.5,0.6l-0.3,0.3v7.2l1.5-1.1c5-3.9,8.2-7.9,9.6-11.8c1.6-4.1,2.3-10.6,2.3-19.9v-18.2
		h5.5v40.5c-0.1,2.5,0.5,4.4,1.7,5.6c1.1,1.2,2.8,1.8,5,1.8l0.4,0l2.5,0c2.1,0,3.7-0.6,4.7-1.7c1.1-1.1,1.6-2.8,1.5-5v-4.9h-5.6
		L528.8,331.3z"/>
	<path fill="#B02923" d="M561.2,303.4h-8.1l-0.1,0.8c-0.8,9.9-4.3,18.1-10.4,24.5l-0.3,0.3v6.5l1.4-0.8
		c10.2-6.1,16.1-16.3,17.4-30.2L561.2,303.4z"/>
	<path fill="#B02923" d="M557.8,294h31.9v9h8.1v-15.3h-36.2c0.6-1.5,1.2-3.1,1.7-4.8l0.3-1.2h-8.7l-0.2,0.7
		c-1.7,6.9-5.7,11.8-11.9,14.7l-0.5,0.2v5.6l1.2-0.4C550,300.5,554.7,297.6,557.8,294z"/>
	<path fill="#B02923" d="M566.9,331.3c0,1.8-0.8,2.6-2.7,2.6h-5.3v6.3l8.1,0c2.7,0,4.7-0.7,6.1-2.2c1.5-1.5,2.2-3.9,2.1-7v-34.4
		h-8.3V331.3z"/>
	<path fill="#B02923" d="M588.1,304.3l-0.1-0.8h-7.9l0.1,1c1,13.8,6.9,23.9,17.4,30.2l1.4,0.8V329l-0.3-0.3
		C592.4,322.6,588.9,314.3,588.1,304.3z"/>
	<path fill="#B02923" d="M460.8,185.8c-4.2-2.2-9.5-3.3-15.9-3.3c-4.7,0-8.9,0.7-12.6,2c-3.7,1.4-6.5,3.3-8.6,5.7
		c-2.1,2.4-3.3,4.9-3.7,7.5c-0.4,2.6-0.6,6.5-0.7,11.8l-0.1,21.2c0,7.1,0.6,12.5,2,16c1.3,3.5,4.1,6.3,8.2,8.3c4.1,2,9.4,3,15.8,3.1
		c6.1,0,11.3-1.1,15.5-3.5c4.2-2.3,6.9-5.1,8.2-8.2c1.2-3.1,1.9-8.5,1.9-16l0-2.8l-21.8-0.1l0,9.1c0,4-0.3,6.5-0.8,7.6
		c-0.5,1.1-1.6,1.6-3.2,1.6c-1.7,0-2.8-0.5-3.3-1.6c-0.5-1.1-0.7-3.4-0.7-6.9l0.1-33.7c0-3.7,0.3-6.1,0.7-7.2
		c0.5-1.1,1.6-1.7,3.4-1.6c1.6,0,2.6,0.5,3.1,1.4c0.5,0.9,0.7,3.2,0.7,6.9l0,12.6l21.8,0.1l0-6.9c0-6.8-0.6-11.8-1.9-15
		C467.7,190.6,465,187.9,460.8,185.8z"/>
	<polygon fill="#B02923" points="535.9,184.3 515.5,184.2 505.7,212.4 505.8,184.2 483.9,184.1 483.7,256.8 505.5,256.8 
		505.6,225.7 514.4,256.8 536.9,256.9 523.3,217 	"/>
	<polygon fill="#B02923" points="581.1,242.5 567.8,242.5 568,184.4 546.1,184.3 545.9,256.9 581,257 	"/>
	<path fill="#B02923" d="M200.6,236.5h9.3c0,0,5.3-20,28.7-22.9v22.9h10.6v-23c24.2,2.4,28.5,23,28.5,23h10.6
		c0,0-2.3-30.8-39.1-33.3v-0.4c37-2.3,39.3-33.3,39.3-33.3h-10.6c0,0-4.2,20.7-28.7,23v-23.3h-10.6v23.1
		c-23.2-3-28.5-22.9-28.5-22.9h-9.3c0,0,2.2,30,37.7,33.2v0.6C202.8,206.3,200.6,236.5,200.6,236.5z"/>
	<path fill="#B02923" d="M294.3,236.7h9.3c0,0,5.3-20,28.8-22.9v22.7H343v-22.8c24.1,2.5,28.3,23,28.3,23h10.6c0,0-2.3-30.7-39-33.3
		v-1c36.9-2.4,39.2-33.3,39.2-33.3h-10.6c0,0-4.2,20.7-28.6,23v-23h-10.6v22.8c-23.3-3-28.6-22.9-28.6-22.9h-9.3
		c0,0,2.2,30.1,37.8,33.2v1.2C296.6,206.5,294.3,236.7,294.3,236.7z"/>
	<path fill="#B02923" d="M217.8,353.5c8.8,0,164.8,0,164.8,0v-12c0,0-52,0-97.2,0v-26.4h95.5v-12h-95.5v-12.6v-11.9v-0.1h-68.8
		c0,0-5.8-1.3-5.7-9.3c0.1-7.9,6.1-8.2,6.1-8.2h147.7c0,0,7.8-0.3,7.9,8.5c0,8.9-7.6,9-7.6,9h-60.1v12H369c0,0,14-3,14.1-21.3
		c0-19-12.4-20.3-12.4-20.3h-154c0,0-16-0.8-15.9,20.3c-0.3,22.2,16.9,21.3,16.9,21.3h57.1V303v12v26.4c-29.1,0-53.2,0-55.1,0
		c-5.1,0-6.9-3.4-6.9-4.8c0-1.4,0-33.6,0-33.6h-12.2c0,0,0,26.4,0,33.1C200.5,342.8,206.5,353.4,217.8,353.5z"/>
	<path fill="#B02923" d="M488.7,647c-1.8-0.8-2.9-1-4-0.6c-1.1,0.3-2,3.5-1.3,4.7c0.7,1.2,4.1,0.8,5.3,0
		C489.9,650.3,490.5,647.9,488.7,647z"/>
	<path fill="#B02923" d="M523.1,633.8c-1.9,0-3.5,1-3.5,2.3c0,1.3,1.6,2.3,3.5,2.3c1.9,0,3.5-1,3.5-2.3
		C526.6,634.8,525.1,633.8,523.1,633.8z"/>
	<path fill="#B02923" d="M513.1,597.9c14.6,1.3,19.4-4.6,22.5-4.9c3.1-0.3,3.6,2.5,6.1,2.8c2.5,0.3,13.2-6.4,14.5-8.9
		c1.3-2.6,7.7,0.8,10-4.5c0.3-1-3.2,1.3-4.5,1.5c-6.4,0.9-5.5,0-6.9,0.5c-1.4,0.5-5.4,7.1-10.2,6.8c-1.8-0.1-5-3-5-3
		s-2.6-1.9-2.7-3.8c-0.2-3.9,8.5-11.7,9.5-14c1-2.4,1.6-7.1-0.1-7.4c-1.8-0.3-3,6.4-3,6.4s-10.1,10.1-11.7,12.4
		c-1.6,2.4,0.1,5-2.1,7.7c-1.9,2.3-13.5,1.9-16.5,1.8c-1.2,1.2,0.6,1.9,0.4,3.7C513.3,596.5,511,597.7,513.1,597.9z"/>
	<path fill="#B02923" d="M512.3,591.1c0,0,0.3,0,0.8,0c0,0,0,0,0,0H512.3z"/>
	<path fill="#B02923" d="M508.8,591.1c-1.6-1-5.6-0.7-7.1,1c-1.5,1.7-1.8,1.5-1.4,3.6c0.4,2.2,3.8,4.6,5.4,4.6c1.6,0,3.1-1.9,4-3.7
		C510.8,594.7,510.4,592.1,508.8,591.1z"/>
	<path fill="#B02923" d="M544.1,578.7c-1.9,1.9-2.8,4.1-2.2,6.1c0.6,2,3.9,2.5,6,2.4c2.1-0.1,5.2-2.1,6-3.9c0.8-1.9-0.3-4.9-1.6-6.1
		C551.1,575.9,545.9,576.8,544.1,578.7z"/>
	<path fill="#B02923" d="M571.1,561.6c0.1-0.6,0.6-6.1-2.8-3.3c-3.4,2.9-15.2,11.2-17,14.3c-1.8,3.1,1.5,3.3,2.8,3.3
		C555.4,575.9,571.1,562.2,571.1,561.6z"/>
	<path fill="#B02923" d="M557.7,577.1c-0.8,1.9-2.9,6.5,2.1,3.3c1.9-1.5,14.4-11.7,17-14.3c2.5-2.6-2.2-3.6-2.8-3.3
		C572.4,564.1,558.5,575.2,557.7,577.1z"/>
	<path fill="#B02923" d="M599.1,552.8c-5.9,0.3-8.5,3.4-8.5,3.4s-3.3,0.5-4.7,0c-1.5-0.5-4.6-1.9-5.5-3.4c-1.8-7,2.3-9.2,1.8-11.9
		c-0.5-2.8-3.6-9.4-4.7-8.8c-1,0.6,0.8,6.3,0.8,6.3s0.6,4.4-0.2,7.6c-0.8,3.2-2.9,6.8-3.3,9.8c-0.3,2.9,2.8,4.6,2.8,4.6
		s2.7,3.1,7.3,2.7c4.6-0.4,10.9-8.7,14.2-8.5c3.3,0.2,5,1.9,5.5,1.7C605.1,555.9,605.1,552.5,599.1,552.8z"/>
	<path fill="#B02923" d="M588.7,553.3c3,0,5.5-2.4,5.5-5.5c0-3-2.4-5.5-5.5-5.5c-3,0-5.5,2.4-5.5,5.5
		C583.2,550.9,585.6,553.3,588.7,553.3z"/>
	<path fill="#B02923" d="M556,594.2c-11.1,12-42.4,13.1-45.6,13.3c-3.2,0.2-45.6-5.4-43.6-12.9c0.9-1.5,18.6,6.5,21.2,4.7
		c2.2,1,1,5.1,11.3,3.8c15.4-1.8,17,3.9,16.9,1.4c0-2.5-10.5-3.8-15.6-3.6c-5.1,0.2-5.9-6.5-5-8.1c0.9-1.6,17.3-6.5,15.4-12.6
		c-1-1.4-3.6,4.9-11,5.4c-5,0.4-5.8,4.8-14.3,5.4c-11.6,0-19.2-2.3-17.4-4.3c-0.6-3.5,13.7,4.2,42.5-8.4
		c19.4-8.5,43.1-20.9,59.2-52.3c3.1-6.1,4.1-12.5,2.5-17c-31.3,18.3-33,63.2-102,69.8c-18.3,1.3-6.2-2.8-32.2-1.3
		c2.8-5.7,4.1-7.8,6.3-8.1c12.2,1.5,15.1-8.1,19.3-8.4c4.2-0.4,7.5,12.5,45.5-15.7c7.7-6.2,34.2-6.6,33.7-17.8
		c-0.2-2.3-4.4-1.2-5.7-0.9c-1.7,0.9-5.5,11.9-35.2,8.4c-7.5-4,3.4-2.4,19.7-12c10.3-6.1,22.8-18,34.2-35c1.3-2.4,0.7-4.7-1.6-5
		c-2.3-0.3-12.5,4.7-12.5,4.7s-11.4,1.1-19.1,9.1c-7.7,8.1-14.3,12.5-22.3,12.3c-8-0.1-8.3-6.1-7.5-7.8c0.4-0.8,15.7-5.3,30.6-14.9
		c15.6-10.1,30.7-25.6,27.9-36.6c-1.1-4.7-16,17.9-29.6,21.1c-5.1,1.2-11.2,5.9-17,9.3c-9.5,5.5-18.3,9.3-20.9,2.8
		c-4.2-10.5,41.2-35.5,45.2-41.2c3.9-5.8,21.1-12.9,12.9-33.4c-1.6-2.7-10,24.2-44.9,23.2c-5.3-0.1-29.3,22.1-37.6,31
		c-6.2,0.5-2.8-18.8,2.4-34.2c3.4-10.2,0.7-5.6,8.8-18.7c8.1-13.1,56.3-38.8,56.3-38.8s-12-1-19.2,2c-64.8,21.1-61.9,78.7-61.8,77.8
		c-2,17.8,5.6,24.3,6,25.9c0.5,1.6-1.5,13.8-1.5,13.8s-17.2-0.9-18.4,0.1c-1.2,1,16.4,13.4,5.9,12.1c-10.5-1.4-8.6-5.4-15.6-3.6
		c-9.8,2.8,17.6,13.4,13.5,15.7c-3.6,1.7-17.7-4.6-20.3-2.8c-5.1,2.7,13.1,11.3,9.7,13.8c-6.2,3.5-14-9.1-17.4-4.3
		c-4.3,5.5,8,11.4,6.8,15.1c-1.2,3.7-5,4-8.1,4.1c-6.3,0-13.5-4.7-13.8-15.8c-0.2-11.1,7.4-20.3,6.8-29.4
		c0-10.5-16.9-25.1-15.8-30.7c1.1-5.6,4.6-6.1,6.5-8.8c1.9-2.7,0.5-4.9-1.6-5.2c-2-0.3-9.9,8.6-14.2,9.9c-4.3,1.4-9.8-2.8-18.7,6.5
		c-1.4,1.1-16.9,1.6-18.3,9l23,0.7c0,0,22.4,6.3,21.9,17.8c-0.1,12.9-12.6,27.4-23,36.6c-3.5,2.8-5,9.3-12.7,9.3
		c-4.5,0.2,0-2.7-11.1-3.5c-0.5-2.9,11.5-11.6,9-16.8c-1.1-3-5.3,3-8.4,4.7c-3,1.7-6.1,1.9-7.7,1.4c-1.6-0.6-2.7-1-2.7-2.3
		c0-1.2,13.7-10.8,9-13.1c-4.6-2.3-6.8,5.5-10.8,5.2c-4.1-0.3-5.9-2.6-8.4-2c-2.5,0.6-2-1.7-1.1-2.7c0.9-1,11.7-5.5,13.3-7.2
		c1.6-1.7,1.1-4.9,0-5.2c-1.1-0.3-6,1.2-7,2.7c-1,1.5-13.4,0.8-13.4,0.8s-0.3-1.7,0.7-3.5c1-1.8,20.5-6.4,10.8-14
		c-1.8-1.3-1.9,4.4-5.4,5c-3.5,0.6-11.3,0-11.3,0s6.8-21.9-37-50.6c-5.1-3.6-11.7-13.5-11.7-13.5s-2.7,2-10.7,1.9
		c-27.4-3.1-29.9-21.6-37.5-21.3c0.3,0-3.1-0.3-3.4,0.8c-0.3,1.1-1,9.1,0.2,11.9c1.2,2.8,7.9,15.1,10.8,16.9l2.7,1.2
		c0,0,17.3,22.1,37.7,21.9c6.7,3.5,16.1,22.1,14.2,26c-2,3.9-11.6,0.7-13.3,0.2c-9.7-5.4-11-11.4-13.2-12c-2.2-0.7-6.1,0.7-9-0.3
		c-2.9-1-6.8-6.7-17.2-8.6c-9.6-7.1-13.7-19.1-17.3-14.9c-3.6,4.2,13.1,20.8,13.1,20.8s19.9,18.4,23.2,19.6c3.3,1.2,4.9,0.6,7.2,4.2
		c0.8,1.5,20.2-3.6,21.1,9c1.1,8.4-6.8,8.1-6.8,8.1s-6.8,0.9-9-5.1c-5.4-0.2-10-0.2-13.1-0.3c-3,0-12.8-16.7-14-15.7
		c-20.6-0.3-20.8-6-23.1-4.7c-2.3,1.3,15.8,22.9,23.1,25.4c4.6,1.5,7.3,16.8,33.9,19.8c1.7,0.7,3.6,2,1.8,3.2
		c-24.2,7.9-51.1-13-47.9-4.7c3.3,8.3,27.4,10.7,32.5,16c19.3,19.4,35.2,17.6,35.2,17.6s2.9-1.2,11.1-1.1
		c17.5,0.5,62.2,27.3,61.7,33.1c-0.5,5.7-3.6,6-3.6,6s-26.8,2-28.6,0c-1.8-2-25.4-4.7-28.2-4.5c-2.8,0.2-5.2,0.9-7.2,1.3
		c-2,0.5-18,0.8-20.5,1.8c-7.5,2.1-1.8,11.5,0,11.4c1.8,0,1.9-7.9,13.3-8c13.4-0.2,10.4,8.9,10.4,8.9s-5.8,3.5-3.1,5.2
		c7,3.8,8-6.2,15.8-6.3c7.8-0.1,8,8.2,8.1,9.5c0.1,1.3-2,4.4-1.1,5.2c0.9,0.8,6.7,1.2,7.9,0c1.2-1.2,3.4-2.2,3.4-4.6
		c0-2.4-2.9-5.2-2.9-7.5c0-2.3-0.7-4.9,5-5c5.6-0.1,12.1,4.6,14.7,6.3c2.6,1.7,5.4,0,7.7,0.5c2.3,0.5,2.9,2.4,5,2.9
		c2,0.6,6.2,0.1,9.9,1.1c3.7,1,4.2,4,7,5c2.8,1,4.2-2.1,7.7-1.8s3.6,3,7.2,1.4c1.8-1.9-2.1-2-2-6.3c0.1-4.3,7.5-9.8,15.4-9
		c7.8,0.7,8.9,4.2,12.3,5.2c3.4,1,8,0.2,8,0.2s7.5,4.1,7.7,9.7c-5.4,5.2-16.8,19.8-18.7,20.5c-2.9,1.6-24.8,8-25.1,11.6
		c-0.3,3.5-19.9-1.1-19,4.3c0.9,5.4,16,0,17.6,3.8c1.7,3.8,2,9.6,8.1,6.8c1.3-0.8,0.5-8.5,12.2-8.1c16-0.8,9.6,6.5,12.1,6.8
		c8.7,1.7,2.5-12.6-7.4-12.3c-2.5-1.9-0.3-5.5-0.3-5.5s9.2-4.8,10.7-6.6c1.4-1,9.8-3.3,12.5-5.4c2.7-2.1,16-9.8,18.1-15.5
		c2.1-5.7,1.8-8.5,1.9-12c0.1-3.4,3.9-1,3.2-4.3c-0.7-3.3-8.5,1.7-9.9-2c-2.8-1.4-1.4-6.1,3.2-5.9c21.5,5.8,10.7,43.6,12.6,43.3
		c2.5,0.2,11-10.7-1.2-43.7c21.5,15.3,18.9,44,20.9,44c2,0,3.4-12.2-8.4-38.7c17,9.5,15.2,38.9,17,38.4c1.8-0.5,0.9-25.7,0.9-25.7
		s12.9,4.7,12,18.5c-0.4,2.8-11.4,7.3-8.9,9.8c2.4,2.5,2.2-3.9,7.9-2.6c5.7,1.3,1.8,6.4,5.8,6.3c2.6-0.2-0.2-8.8-1.1-12.2
		c-0.9-3.4,4.4-13.5-16.3-26.2c2.7-2.5,16.6,6,34.8,5.2c11.5-0.5,6.9,15.7,8.4,16c1.5,0.3,1.2-2.8,4.1-2.3c2.8,0.6,2.7,2.8,3.6,2.3
		c0.9-0.6,0.1-7.3-6.5-14c-5.5-5.6,64.5-1.8,80.3-37.5C600.1,574.8,567.1,582.2,556,594.2z M369,474.5c0.4-0.1,0.8-0.3,1.1-0.6
		c1.5-1.1,2.9-3.8,2.3-4.7c-0.6-0.9-2.6-0.4-4.5,1c-1.4,1-2.3,2.2-2.4,3.1c-1.9-0.9-2.9-2-2.9-2s7.9-7.9,18.6,1.2
		C376.1,474.9,372,475.1,369,474.5z"/>
	<path fill="#B02923" d="M663.6,509.1c-4.7-101.9-45.3-120.4-45.3-224.3c0-113.1,24.3-151.9,24.3-151.9l-21.3-18
		c-87.6,30.8-215.5,29.8-221.3,29.7v0c0,0-0.1,0-0.1,0c0,0-0.1,0-0.1,0v0c-5.7,0.1-133.6,1.1-221.2-29.7l-21.3,18
		c0,0,24.3,38.8,24.3,151.9c0,103.8-40.5,122.4-45.3,224.3c-4.3,73.9,36.6,131.2,191.3,172.1c23.3,6.2,47.1,8.9,72.1,12.3v0
		c0,0,0.1,0,0.1,0c0,0,0.1,0,0.1,0v0c25-3.4,48.9-6.1,72.1-12.3C627,640.3,667.9,583.1,663.6,509.1z M400,154
		c32.8-0.3,144-2.1,219.1-26.9l10.2,8.6c-7.4,17.2-21.7,61.9-21.7,149.1c0,33.6,4.2,58.8,10,80.5H400V154z M170.8,135.8l10.2-8.6
		c68.5,22.6,167,26,208.6,26.7v211.5H182.5c5.8-21.7,10-46.9,10-80.5C192.6,197.6,178.2,153,170.8,135.8z M469.5,670.7
		c-18.8,5-48.9,8.5-69.4,11.3v0c0,0-0.1,0-0.1,0c0,0-0.1,0-0.1,0v0c-20.5-2.7-50.5-6.3-69.3-11.3c-167.2-44.3-186.4-106.2-183.3-161
		c2.2-47.4,12.5-76.6,22.5-104.8c3.3-9.4,6.7-18.9,9.8-29h312.9c4.6-2.3,9.5-4.2,14.7-5.9c4.7-1.9,11-2.3,15.6-2.3
		c2.8,0,4.8,0.2,4.9,0.2l10.2,0.8l-9,4.8c-0.1,0-1.7,0.9-4.5,2.5h96.3c3.1,10.2,6.4,19.6,9.8,29c10,28.2,20.3,57.4,22.5,104.8
		C656,564.5,636.7,626.5,469.5,670.7z"/>
</g>
<g>
</g>
<g>
</g>
<g>
</g>
<g>
</g>
<g>
</g>
<g>
</g>
<g>
</g>
<g>
</g>
<g>
</g>
<g>
</g>
<g>
</g>
</svg>
