<!-- Created by @FCLOGO 2022-03-02 21:27:18 . https://fclogo.top/ -->
<!-- FOR PERSONAL USE ONLY NOT FOR COMMERCIAL USE -->
<svg version="1.1" xmlns="http://www.w3.org/2000/svg" xmlns:xlink="http://www.w3.org/1999/xlink" x="0px" y="0px"
	 viewBox="0 0 800 800" enable-background="new 0 0 800 800" xml:space="preserve">
<g>
	<path fill="#005FA2" d="M228.4,231.9c0.2,0.3,1.1,1.9,2.5,4.9c5-2.4,9.5-4.9,13.4-7.6c3.9-2.7,6.4-5.2,7.5-7.4
		c1.1-2.3,1.9-4,2.4-5.3l2.2,4c0.5,0.9,1.6,2.4,3.5,4.5c1.9,2.1,4.1,4,6.5,5.9c2.4,1.9,6.1,3.8,10.9,5.8c0.9-2.7,1.6-4.5,2-5.2
		c0.4-0.7,0.9-1.5,1.5-2.3c-4.1-0.9-8.2-2.8-12.1-5.8c-3.9-3-6.5-5.9-7.8-8.5c-1.3-2.7-2.3-4.9-3-6.8H272l7.3,0.2v-7l-7.3,0.2h-15.5
		c0.2-3.4,0.4-6.7,0.6-9.9h12.8l6.6,0.2v-7.1l-6.6,0.2h-32.6l-7.1-0.2v7.1l7.1-0.2h12.4l-0.1,4.7c0,0.6-0.1,2.4-0.3,5.2h-13.6
		l-7.9-0.2v7l7.8-0.2h13.2l-0.4,2.2c-0.3,1.4-1,3.4-2,6c-1,2.5-3.3,5-6.9,7.3c-3.6,2.3-6.1,3.7-7.5,4.2c-1.4,0.5-3.2,1-5.5,1.7
		L228.4,231.9z"/>
	<path fill="#005FA2" d="M339.4,214.5c-2.4-1.5-3.9-2.4-4.4-2.8c-0.5-0.4-1-0.9-1.6-1.4c-0.7,2.7-1.3,4.8-1.9,6.5
		c-0.6,1.7-1.3,3.4-2,5.2c-0.8,1.8-1.5,3.3-2.1,4.4c-0.6,1.1-1.6,2.6-3,4.4c1.9,1.5,3.2,2.6,4,3.4c0.7,0.8,1.3,1.5,1.9,2.2l1.7-3.5
		c1.2-2.4,2.6-5.6,4.1-9.5l2.5-6.8C338.8,216.1,339,215.4,339.4,214.5z"/>
	<path fill="#005FA2" d="M345.2,195.9l-7.5-0.2v6.6l7.5-0.2h8.4v3.4h-5.9l-6.1-0.1v6.5l6.1-0.1h5.9v3h-7.7l-5.9-0.1v6.3l5.9-0.1h7.7
		v3.6H345l-7.2-0.2v6.6l7.2-0.2h8.6l-0.1,6.3h6.8l-0.1-6.3h11.6l7.2,0.2v-6.6l-7.2,0.2h-11.6v-3.6h9.8l5.6,0.1v-6.3l-5.6,0.1h-9.8
		v-3h8.1l6.3,0.2l-0.2-5.4v-4.5l4.7,0.1v-6.4l-4.7,0.1v-4.3l0.2-5.6l-6.3,0.2h-8.1l0.1-4.7h-6.8l0.1,4.7h-6.4l-5.6-0.1v6.3l5.6-0.1
		h6.4v3.6H345.2z M360.2,192.3h7.7v3.6h-7.7V192.3z M360.2,202.1h7.7v3.4h-7.7V202.1z"/>
	<path fill="#005FA2" d="M324.3,201.6c2.1,1.5,3.5,2.7,4.4,3.4c0.8,0.8,2.1,2.1,3.8,3.9l0.9-1.2l2.5-3.7c0.1-0.2,0.4-0.5,0.7-0.9
		l-1.3-1.3l-5.1-4.2c-0.4-0.3-0.9-0.7-1.6-1.3c-1,1.6-1.8,2.8-2.4,3.4C325.6,200.4,324.9,201,324.3,201.6z"/>
	<path fill="#005FA2" d="M330.1,185.3c-0.5,0.5-1.1,1.1-1.7,1.7c3,2.1,5,3.6,6.1,4.5c1,0.9,1.8,1.8,2.6,2.5c1.6-2.7,2.9-4.7,3.8-5.9
		c-2.7-2.2-5.5-4.3-8.4-6.3C331.4,183.6,330.6,184.7,330.1,185.3z"/>
	<path fill="#005FA2" d="M419.7,216.7c1.5,1.8,3,3.9,4.5,6.4c1.7-1,3.6-2.1,5.5-3.4c1.9-1.3,3.8-2.6,5.5-3.9
		c1.7-1.3,4.1-3.7,7.3-7.3H455c1.6,3,3,5.1,4.1,6.4c1.1,1.3,2.4,2.6,3.9,3.9s2.5,2.2,3.1,2.6c0.6,0.4,2.4,1.5,5.4,3.3
		c1.5-2.9,2.9-5.2,4.1-7l-2-0.5c-1.3-0.3-2.6-0.9-4.2-1.9c-1.5-1-2.8-1.9-3.7-2.7c-1-0.9-2.1-2.2-3.5-4.1h4.3l6.8,0.2v-6.3l-6.8,0.2
		h-20.8c0.5-1,0.9-1.8,1.3-2.6h14.5l5.8,0.1v-5.9l-5.8,0.1H449c0.3-1,0.6-1.9,0.9-2.9H465l6.8,0.2v-6.2l-6.8,0.2h-13.6
		c0.2-1,0.5-2.2,0.8-3.3c-2.3,0-4.8-0.3-7.6-0.9l-0.2,1.7l-0.1,1.3c-0.1,0.3-0.2,0.7-0.3,1.3h-14.4l-6.6-0.2v6.2l6.6-0.2h13.2
		c-0.2,1-0.6,1.9-0.9,2.9h-8.2l-6-0.1v5.9l6-0.1h6l-0.6,1.3c-0.1,0.2-0.4,0.6-0.8,1.3h-10.4l-6.4-0.2v6.3l6.4-0.2h5.6
		c-1.6,1.5-3.5,3.1-5.5,4.6C425.8,214.7,423,215.9,419.7,216.7z"/>
	<path fill="#005FA2" d="M427.8,235.5c2.4-1.3,5.3-2.7,8.5-4.2c3.2-1.5,5.3-2.4,6.3-2.9l-0.2-2.2c-0.1-0.5-0.1-1-0.1-1.6
		c0-0.6,0.1-1.3,0.1-2.1c-2.5,1.4-5.1,2.5-7.8,3.5s-5.9,2-9.6,3.1c0.9,1.7,1.6,3,2,3.9C427.3,234,427.6,234.8,427.8,235.5z"/>
	<path fill="#005FA2" d="M440.9,235c0.2,1,0.3,1.8,0.4,2.5c2.9-0.2,4.7-0.4,5.3-0.5c0.6-0.1,1.3-0.3,2-0.6s1.3-0.8,1.8-1.4
		c0.5-0.6,0.7-1.7,0.7-3.2v-12.1c1,0.9,2.3,2.3,3.8,4.2c2-1.5,4.1-3.3,6.3-5.6c-1.9-1.6-3.3-3-4.3-4.3l-1.3,1.5
		c-0.6,0.8-2.2,2.1-4.5,3.8v-2.6l0.1-6.3h-6.9l0.1,6.5v11.5c0,1.1-0.2,1.8-0.5,2.1c-0.3,0.3-1.7,0.3-4.1,0l0.5,1.6
		C440.5,233,440.8,234,440.9,235z"/>
	<path fill="#005FA2" d="M443.7,218.7c-2.1-1.8-4.1-3.3-5.9-4.6c-1.2,1.7-2.1,2.7-2.5,3.1c-0.4,0.4-0.9,0.8-1.5,1.3
		c2.5,1.8,4.5,3.4,6.1,4.8C441.4,221.4,442.7,219.8,443.7,218.7z"/>
	<path fill="#005FA2" d="M454.3,225.4c-0.2,0.6-1,2-2.3,4.2c5.8,2.2,10.8,4.5,14.9,6.9l0.7-1.5l1.6-3.5c0.1-0.3,0.3-0.7,0.6-1.3
		c-4.9-2.1-9.8-4.2-14.9-6.2L454.3,225.4z"/>
	<path fill="#005FA2" d="M522.7,225.8c-1.2,0.7-2.1,1.1-2.5,1.3c-0.4,0.2-1,0.5-1.8,0.8l1.2,2.5c0.1,0.3,0.8,2.1,2,5.5
		c1.1-1.5,2.4-3,3.8-4.5s2.6-2.2,3.6-2.1s1.9,0.4,2.6,0.9l2,1.7c1.5,1.4,3.2,2.3,5.1,2.9c1.8,0.5,4.2,0.9,7.1,1.1
		c2.9,0.3,5.9,0.4,9,0.5c3.1,0.1,8.7,0.1,16.6,0.1l0.3-2.1c0-0.6,0.6-2.6,1.6-6c-7.7,1.4-15.1,1.8-22.3,1.3
		c-7.2-0.5-11.3-1.1-12.5-1.8c-1.2-0.7-2.2-1.5-3.2-2.2c-1-0.7-1.7-1.3-2.3-1.7v-17.8l0.1-4.4l-4,0.1h-6.8l-3.6-0.1v6.7l3.6-0.1h3.9
		v15.5C525.1,224.5,523.9,225.1,522.7,225.8z"/>
	<path fill="#005FA2" d="M548.8,194.7h-8.2l-5.6-0.2v6.8l5.5-0.1h7.8l-0.1,1.6c-0.1,1.6-0.8,4.4-1.9,8.4c-1.1,3.9-5,7.2-11.6,9.7
		c1.7,1.7,2.8,2.9,3.3,3.6c0.5,0.7,1.1,1.4,1.6,2.3l3.5-2.5c2-1.3,3.9-3.2,5.7-5.4c1.8-2.2,2.9-4,3.5-5.3s1.1-2.4,1.4-3.3
		c2.1,2.6,4,5.2,5.8,7.8c1.8,2.6,3.7,5.6,5.7,9c1.5-1.7,3.4-3.4,5.6-5.3l-3.1-4.3l-4.2-5.6c-1.1-1.5-2.7-3.8-4.9-6.8
		c-1.4,1-2.3,1.6-2.7,1.8s-0.9,0.4-1.5,0.7l0.3-1.3c0-0.4,0.1-1.2,0.2-2.2c0.1-1.1,0.2-2.1,0.3-3.1h8.9l6.5,0.2v-6.8l-6.5,0.2h-8.5
		l0.1-3c0.1-2,0.2-3.6,0.3-4.8s0.2-2.6,0.4-4c-1.8,0-4.4-0.1-7.7-0.4l0.2,4.2c0,1.2,0,2.4,0,3.7S548.9,193.1,548.8,194.7z"/>
	<path fill="#005FA2" d="M521.6,187.6c2.8,3,4.6,5,5.5,6c0.9,1.1,2,2.4,3.2,4l1.5-1.7l1.8-2c0.4-0.4,1.1-1.1,2-2
		c-2.9-3.2-5.6-6.1-8.2-8.9C525.5,184.8,523.5,186.4,521.6,187.6z"/>
	<path fill="#005FA2" d="M288.1,562.2c-2.4,1.3-4.9,2-7.5,2.1c-2.6,0.2-5.7-0.4-9.4-1.6l-5.3,7.1c2.4,0.9,4.6,1.5,6.4,1.8
		c1.9,0.3,3.9,0.4,6.1,0.4L263,592.8l8.8,6.5l23.4-31.8L288.1,562.2z"/>
	<path fill="#005FA2" d="M289.9,601.2c-0.2,2.1-0.1,4.1,0.4,5.9s1.5,3.3,2.8,4.7c1.4,1.4,3.5,2.7,6.3,3.9c4.8,2.1,9.2,2.2,13.2,0.4
		c4-1.9,7.4-6,10.2-12.4c1.9-4.4,2.8-8.2,2.7-11.4c-0.1-3.2-1-5.9-2.6-8.1c-1.6-2.2-4.2-4.1-7.8-5.6c-2.9-1.3-5.6-1.8-8-1.7
		c-2.4,0.1-4.5,0.9-6.5,2.4c-2,1.4-3.5,3.3-4.5,5.7c-1.6,3.4-1.7,6.8-0.5,10c1.2,3.2,3.4,5.5,6.6,6.9c1.6,0.7,3.2,1,4.7,1
		s3.1-0.4,4.8-1.1c-2,3.7-3.5,6-4.7,6.9c-1.6,1.2-3.2,1.5-4.8,0.8c-0.9-0.4-1.5-1-1.9-1.8c-0.3-0.8-0.3-2,0-3.5L289.9,601.2z
		 M307.7,597c-1.4-0.5-2.3-1.6-2.7-3c-0.5-1.5-0.3-3.2,0.6-5.2c0.8-2,1.9-3.3,3.2-3.9s2.6-0.7,3.9-0.1c1.4,0.6,2.3,1.7,2.8,3.2
		c0.5,1.6,0.3,3.3-0.5,5.2s-1.9,3.2-3.2,3.8C310.5,597.6,309.1,597.6,307.7,597z"/>
	<path fill="#005FA2" d="M329.6,626.7c1.5,1.1,3.8,2,6.8,2.8c5.1,1.3,9.4,0.7,13.1-1.7c3.7-2.4,6.4-7,8.1-13.8
		c1.2-4.6,1.4-8.5,0.8-11.7c-0.7-3.1-2-5.6-3.9-7.5c-2-1.8-4.8-3.2-8.6-4.2c-3.1-0.8-5.9-0.9-8.2-0.4c-2.4,0.5-4.4,1.6-6.1,3.4
		s-2.9,3.9-3.5,6.4c-0.9,3.7-0.5,7,1.2,10s4.2,4.9,7.6,5.8c1.7,0.5,3.3,0.6,4.8,0.3c1.5-0.2,3-0.8,4.6-1.8c-1.4,3.9-2.6,6.4-3.6,7.5
		c-1.4,1.4-2.9,1.9-4.6,1.5c-1-0.2-1.7-0.7-2.2-1.5c-0.5-0.7-0.7-1.9-0.6-3.4l-10.7-1.3c0.1,2.2,0.6,4.1,1.5,5.5
		C326.9,624.2,328,625.6,329.6,626.7z M345.6,609.5c-1.3,0.9-2.6,1.1-4.1,0.7c-1.4-0.4-2.4-1.2-3.1-2.6s-0.7-3.1-0.2-5.2
		c0.6-2,1.4-3.5,2.6-4.3c1.1-0.8,2.4-1.1,3.8-0.7c1.5,0.4,2.6,1.3,3.3,2.7s0.8,3.2,0.3,5.2C347.6,607.3,346.8,608.7,345.6,609.5z"/>
	<path fill="#005FA2" d="M363.6,618.4c-1.2,1.5-1.9,3.3-2.1,5.6c-0.2,2.4,0.1,4.5,1.1,6.5c0.9,2,2.4,3.5,4.5,4.7
		c2.1,1.1,5.2,1.9,9.3,2.3c2.2,0.2,4.2,0.2,6.2-0.1c2-0.3,3.6-0.8,5-1.6c1.3-0.8,2.6-2,3.6-3.6s1.6-3.4,1.8-5.3c0.2-2-0.1-3.8-1-5.6
		c-0.9-1.7-2.3-3.2-4.3-4.4c1.7-1,3-1.9,3.8-3c1.1-1.4,1.7-3,1.9-4.7c0.3-3-0.7-5.6-3-7.8c-2.3-2.2-6-3.5-11.2-4
		c-3.9-0.4-7.1,0.1-9.6,1.5c-3.2,1.8-5,4.3-5.3,7.5c-0.2,2,0.2,3.8,1.1,5.4c0.7,1.1,1.8,2.2,3.4,3.3
		C366.5,615.7,364.8,616.8,363.6,618.4z M375.9,604.8c0.9-0.7,2-1,3.3-0.9c1.2,0.1,2.3,0.6,3,1.5s1,2.1,0.9,3.4
		c-0.1,1.3-0.6,2.3-1.5,3c-0.8,0.7-1.9,1-3.1,0.9c-1.4-0.1-2.4-0.6-3.2-1.5c-0.8-0.8-1.1-2-1-3.3C374.5,606.6,375,605.6,375.9,604.8
		z M372.2,624.5c0.2-1.8,0.8-3.2,1.9-4c1.1-1,2.3-1.4,3.6-1.3c1.3,0.2,2.5,0.8,3.4,2c1,1.1,1.4,2.6,1.2,4.3c-0.1,1.6-0.8,3-1.9,4
		c-1.1,1-2.3,1.4-3.6,1.3c-1.3-0.2-2.5-0.8-3.4-2C372.4,627.6,372,626.2,372.2,624.5z"/>
	<polygon fill="#005FA2" points="399.5,626.5 399.8,637.3 411.3,637 411,626.2 	"/>
	<path fill="#005FA2" d="M430,616.1c-4.7,4.5-7.8,8.2-9.3,11.2c-1.5,3.1-2.3,6.2-2.3,9.4l32.1-3.8l-1.2-9l-16.7,2
		c0.9-1,1.6-1.9,2.3-2.6c0.7-0.6,2-1.9,4-3.6c3.4-2.9,5.6-5.6,6.7-7.9c1.2-2.3,1.6-4.7,1.3-7c-0.2-2.2-1.1-4.2-2.5-5.8
		c-1.4-1.7-3.2-2.8-5.4-3.4c-2.1-0.6-5.1-0.6-8.9-0.2c-3.6,0.5-6.4,1.3-8.3,2.4c-2,1.2-3.4,2.7-4.3,4.5c-0.9,1.8-1.4,4.2-1.5,7.3
		l10.8-0.4c0-2.3,0.4-3.8,1.2-4.8c0.8-1,1.8-1.5,3.2-1.7c1.3-0.1,2.4,0.2,3.4,0.9c1,0.8,1.6,1.7,1.7,2.9c0.1,1.1-0.2,2.3-0.9,3.6
		C434.7,611.4,432.9,613.4,430,616.1z"/>
	<polygon fill="#005FA2" points="458.7,629 470.2,627.9 469.2,617.1 457.7,618.2 	"/>
	<path fill="#005FA2" d="M477.3,600.6c1.3-1.4,2.5-3,3.6-4.9l9.6,24l10.1-4L486,579l-8.4,3.3c-0.1,2.7-0.8,5.2-2.1,7.5
		c-1.3,2.3-3.4,4.6-6.4,7.1l3.3,8.2C474.4,603.5,476.1,602,477.3,600.6z"/>
	<path fill="#005FA2" d="M534.6,579.3c-2-3.2-4.7-5.3-8-6.1c-3.3-0.8-6.5-0.3-9.4,1.5c-1.5,0.9-2.7,2.1-3.5,3.3
		c-0.8,1.3-1.4,2.8-1.8,4.6c-1.9-3.7-2.9-6.2-3-7.7c-0.1-2,0.6-3.5,2.1-4.4c0.9-0.5,1.7-0.7,2.6-0.5c0.9,0.1,1.9,0.8,2.9,1.9
		l8.4-6.8c-1.6-1.5-3.3-2.5-5.2-3c-1.7-0.5-3.5-0.6-5.4-0.3c-1.9,0.4-4.2,1.4-6.8,3c-4.4,2.7-7,6.3-7.8,10.6
		c-0.8,4.3,0.7,9.5,4.4,15.4c2.5,4.1,5.2,7,7.9,8.7c2.7,1.7,5.4,2.5,8.1,2.4c2.7-0.2,5.7-1.2,9-3.3c2.8-1.8,4.8-3.6,6-5.7
		c1.2-2,1.8-4.3,1.7-6.7C536.7,583.8,536,581.5,534.6,579.3z M527.7,589.8c-0.3,1.4-1,2.5-2.2,3.2c-1.4,0.8-2.8,1-4.3,0.5
		c-1.6-0.4-2.9-1.5-4-3.3c-1-1.7-1.5-3.3-1-4.8c0.3-1.5,1-2.6,2.3-3.4c1.2-0.8,2.6-0.9,4-0.5c1.4,0.5,2.7,1.6,3.9,3.5
		C527.5,586.8,527.9,588.4,527.7,589.8z"/>
	<path fill="#005FA2" d="M218.6,494.7h21.7v-84.6h37.5l13.4-14.5v99h84.3l11.9-16.7v16.7h56.5c29.4,0,51.9-23.8,51.9-53.1
		c-0.1-29.4-19.1-53.1-48.4-53.1h-273v21.7h44.2V494.7z M410.5,410.1h33.3c17.4,0,26.7,14.1,26.7,31.5c0,17.4-10.5,31.5-27.9,31.5
		h-32.1V410.1z M312.9,449.7h54.4l11.5-19.6h-65.9v-20h60.3l14.2-14.2V473h-74.5V449.7z"/>
	<polygon fill="#005FA2" points="535.9,369.7 481.1,494.7 489.5,494.7 544.4,369.7 	"/>
	<path fill="#005FA2" d="M568.7,369.7h-8.5l-54.8,125h8.4l7.1-16.2h49.8l6.4,16.2h30.2l-44.1-112.1L568.7,369.7z M531.1,455.3
		l16-36.4l14.4,36.4H531.1z"/>
	<polygon fill="#005FA2" points="548.1,369.7 493.2,494.7 501.7,494.7 556.5,369.7 	"/>
	<path fill="#005FA2" d="M431.4,222.1c-1.9,1.3-3.7,2.4-5.3,3.3l-0.6,0.4c2.7-0.8,5.6-1.7,8.1-2.6c0.3-0.1,0.7-0.3,1-0.4
		c-0.6-0.5-1.3-1-2-1.5C432.2,221.6,431.8,221.9,431.4,222.1z"/>
	<path fill="#005FA2" d="M243.6,215.2c0.5-1.3,1.1-2.8,1.5-4.1h-9.5l-5,0.1v13.9c0.1,0,0.3-0.1,0.4-0.1c0.7-0.2,2.4-1.1,6.9-3.9
		C240.9,219.2,242.8,217.1,243.6,215.2z"/>
	<path fill="#005FA2" d="M246.5,198.5c0.1-1.6,0.1-2.1,0.1-2.2l0-1.7h-9.3l-6.7,0.2v3.6l5.2,0.1L246.5,198.5z"/>
	<path fill="#005FA2" d="M543.4,210.4c0.6-2.3,1.2-4.6,1.6-6.2h-4.5l-4.5,0.1l0,2l0,10.8C540.2,215.2,542.7,212.9,543.4,210.4z"/>
	<path fill="#005FA2" d="M362.8,613.3c-0.4-0.7-0.7-1.5-1-2.3v4.9c0.5-0.6,1.1-1.1,1.7-1.6c-0.2-0.3-0.4-0.6-0.6-0.9L362.8,613.3z"
		/>
	<path fill="#005FA2" d="M561.5,204c1.1,1.5,2,2.8,2.8,3.9c0.6,0.9,1.2,1.6,1.6,2.2l3.4,4.5v-10.5L564,204L561.5,204z"/>
	<path fill="#005FA2" d="M554.4,216.1c-0.8,1.5-1.9,3.1-3.3,4.7c-1.9,2.3-3.7,4.1-5.5,5.4c1.5,0.2,3.3,0.3,5.6,0.5
		c3.4,0.2,6.8,0.3,10.3,0.1c-1.6-2.6-3.1-4.9-4.5-7C556.1,218.5,555.3,217.3,554.4,216.1z"/>
	<path fill="#005FA2" d="M544.5,493.5h-9.9c-3.2,5.1-6.6,10-10.3,14.6l-0.7,1.5H523c-2.1,2.6-4.3,5.1-6.5,7.5l-2.1-7.5h-59.3
		l-10.2,26.9c-14.1,5-29.2,7.7-44.9,7.7c-15.7,0-30.9-2.7-44.9-7.7L345,509.7h-59.3l-2.1,7.5c-2.2-2.4-4.4-4.9-6.5-7.5h-10.8
		c30.4,40.7,79,67.1,133.8,67.1C461.7,576.8,515.6,543.3,544.5,493.5z M400,568.3c-23.7,0-46.1-5.2-66.3-14.5l20-13.3
		c14.5,5.1,30.1,8,46.3,8c16.2,0,31.8-2.8,46.3-8l20,13.3C446.1,563.1,423.7,568.3,400,568.3z"/>
	<path fill="#005FA2" d="M237.1,373.5h63l-10.8-39.6c17.2-25.1,42.7-44.1,72.6-52.9l36,23.6V357l-22.7,16.5h49.6L402.1,357v-52.4
		l36-23.6c29.9,8.8,55.4,27.8,72.7,52.9l-11.3,41.4l-20.4,6.6c1.5,0.9,3,1.9,4.5,2.9l17.1-5.6l10.9,8.7l14.6-33.2h31.4
		C534.8,289.7,472.8,243,400,243C320.3,243,253.7,298.8,237.1,373.5z M538.1,332.3l-23.9-0.9c-17.8-25.8-44.1-45.3-74.8-54.4
		l-8.3-22.4C477.1,263.7,515.9,292.8,538.1,332.3z M368.9,254.6l-8.3,22.4c-30.7,9.1-57,28.6-74.8,54.4l-23.9,0.9
		C284.1,292.8,322.9,263.7,368.9,254.6z"/>
	<path fill="#005FA2" d="M585.1,557.7c-0.9,10.7-3.9,24.4-15.8,38.9v-86.9h-2.5l-6.4-16.2H549c-13.6,24.2-33,44.7-56.2,59.8V588
		l11.7,29.4l-11.7,4.6v20.7c-4.9,1.7-9.8,3.3-15,4.9l-4.5,1.5c-8.7,2.9-17.8,5.8-28.4,9.8c-2.3,0.9-4.5,1.7-6.7,2.6v-24.2l-22.8,2.7
		v-3.4c0-3.6,0.9-7.1,2.6-10.7c1.7-3.3,4.9-7.2,9.9-12.1c3.6-3.4,4.6-4.8,4.8-5.3c0.4-0.8,0.6-1.4,0.6-1.9c0-0.2,0-0.4-0.5-0.8
		c-0.4-0.3-0.8-0.4-1.3-0.3c-0.8,0.1-1,0.3-1.2,0.6c-0.2,0.3-0.5,1-0.5,2.9v2.9l-16.9,0.6l0.1-3.2c0.1-3.5,0.7-6.3,1.8-8.5
		c1.2-2.3,3-4.3,5.4-5.7c2.3-1.3,5.4-2.2,9.4-2.8c3.6-0.4,6.4-0.4,8.5-0.1v-15.9c-12.3,2.8-25.1,4.3-38.2,4.3s-25.9-1.5-38.2-4.3
		v27.3c0.9-3.1,3.1-5.6,6.3-7.5c3-1.7,6.9-2.3,11.4-1.9c5.9,0.6,10.2,2.1,13,4.8c2.9,2.8,4.3,6.4,3.9,10.3c-0.3,2.4-1.1,4.4-2.5,6.2
		c-0.4,0.5-0.8,0.9-1.2,1.4c0.8,0.9,1.5,1.8,2,2.8c1.2,2.3,1.6,4.7,1.3,7.3c-0.3,2.4-1,4.6-2.2,6.6c-1.2,1.9-2.7,3.4-4.6,4.6
		c-1.8,1-3.7,1.6-6.1,2c-1.2,0.2-2.5,0.3-3.8,0.3c-1,0-2-0.1-3.1-0.2c-4.4-0.4-7.9-1.3-10.4-2.6l-0.1-0.1c-1.5-0.9-2.8-1.9-3.8-3.1
		v26.9c-2.2-0.9-4.5-1.8-6.7-2.6c-12.6-4.8-23.2-8.2-32.9-11.3c-5.2-1.7-10.1-3.2-15.1-5v-22.3c-0.1,0-0.3,0-0.4,0
		c-2.7,0-5.6-0.6-8.5-1.9c-3.2-1.4-5.5-2.8-7.2-4.5l-0.1-0.1c-1.8-1.9-2.9-3.8-3.5-5.9c-0.6-2.1-0.7-4.4-0.5-7l0.3-3.6l7.3,2.1
		c-0.7-1-1.3-2.1-1.7-3.4c-1.5-4-1.3-8.2,0.6-12.3c1.2-2.9,3.1-5.2,5.5-6.9c2.4-1.8,5.1-2.8,8.1-2.9c0,0,0.1,0,0.1,0v-20.6
		c-17.8-11.6-33.3-26.4-45.7-43.6h-30.8v86.7c-11.9-14.4-14.8-28-15.7-38.7c-1-12.2-2.2-28.7-3.5-48h-5c1.4,19.5,2.6,36.1,3.6,48.4
		c1.7,20.2,10.2,50.1,65.1,76.7c17.6,8.5,30.6,12.7,45.6,17.5c9.7,3.1,20.2,6.5,32.7,11.3c16.3,6.1,31.5,13.8,45.3,22.7l1.4,0.9
		l1.4-0.9c13.4-8.8,28.7-16.4,45.3-22.7c10.5-4,19.5-6.9,28.2-9.8l4.5-1.5c15-4.8,28-9,45.6-17.5c54.9-26.6,63.5-56.6,65.1-76.7
		c1-12.2,2.2-28.9,3.6-48.4h-5C587.3,529.1,586.1,545.6,585.1,557.7z M272.4,603.5l-13.6-10.1l13.9-18.7c-0.3,0-0.6-0.1-0.8-0.1
		c-2.1-0.3-4.5-1-7-2l-3.7-1.4l9-12l2,0.7c3.5,1.1,6.2,1.6,8.2,1.5l0.1,0c2.2-0.1,4.2-0.7,6.2-1.7l1.7-0.9l11,8.2L272.4,603.5z
		 M396.9,640.4l-0.5-16.8l17.5-0.5l0.5,16.8L396.9,640.4z M537.7,594.4c-1.4,2.4-3.6,4.5-7,6.7c-3.5,2.3-7,3.5-10.4,3.8l-0.1,0
		c-0.2,0-0.4,0-0.6,0c-3.1,0-6.2-1-9.3-2.9c-3.2-2-6.2-5.3-8.9-9.7c-4.1-6.6-5.7-12.5-4.8-17.5c1-5.2,4.1-9.5,9.2-12.6
		c2.9-1.8,5.5-2.9,7.7-3.4l0.2,0c2.3-0.4,4.6-0.2,6.7,0.4c2.3,0.6,4.4,1.8,6.4,3.7l2.5,2.4l-5.6,4.6c1.2,0,2.3,0.2,3.5,0.5
		c4,1,7.4,3.5,9.8,7.4c1.6,2.6,2.5,5.4,2.7,8.4C539.9,589,539.2,591.9,537.7,594.4z"/>
	<path fill="#005FA2" d="M492.5,136.2L492.5,136.2c-0.9-0.6-1.7-1.2-2.5-1.8l-0.1-0.1c-12.5-8.9-50.6-35.9-89.8-35.9
		c-39.7,0-77.5,27.1-90,36l-0.2,0.1c-0.4,0.3-0.8,0.6-1.2,0.9c-0.2,0.2-0.5,0.4-0.8,0.5l-0.4,0.2c-16.3,11.9-46.8,34-119.8,41.3
		l-2.4,0.2l0.1,2.4c2.7,44.4,7.3,119.8,11.9,193.3h5c-4.6-72.3-9.1-146.5-11.8-191.2c15-1.6,28.3-3.8,40-6.5v5.9l6.8,0.2l32.5,0
		l9.6-0.3v13.3l-9.7-0.3l-9.9,0c-0.1,1.3-0.2,2.6-0.2,3.9H272l10.3-0.3v13.2l-10.4-0.3l-9.5,0c0.3,0.7,0.7,1.6,1.2,2.5
		c0.8,1.5,2.6,4.1,6.9,7.4c3.4,2.6,7.1,4.4,10.9,5.2l4.6,1l-2.8,3.7c-0.4,0.6-0.9,1.3-1.3,2c-0.2,0.3-0.8,1.7-1.8,4.7l-1,3.1l-3-1.2
		c-5.4-2.3-9.1-4.2-11.6-6.2c-3-2.3-5.1-4.3-6.9-6.2c-1.3-1.5-2.4-2.8-3.2-3.9c-1.4,2.7-4.2,5.6-8.5,8.6c-3.8,2.7-8.4,5.2-13.8,7.8
		l-1.6,0.8v133.2h2.4c9.7-44.6,36.9-82.8,74.1-106.9V142.7c1.1-0.8,2.2-1.6,3.2-2.3l0.4-0.2c0.3-0.2,0.6-0.4,0.8-0.6
		c0.5-0.4,1-0.7,1.5-1.1c8-5.7,26.4-18.8,48.8-27.3v67.4h1.6l-0.1,4.7h5l9.4-0.3l-0.3,9.9l4.7-0.1v12.5l-4.7-0.1v1.4l0.2,5.1l1,0
		v9.7l3.4-0.1V234l-10.3-0.3l-8.5,0l0.1,6.3h-1.5v3.3c12.3-2.8,25.1-4.3,38.2-4.3s25.9,1.5,38.2,4.3V237c-0.1-0.4-0.1-0.9-0.2-1.4
		l0-0.3c0-0.4-0.1-0.9-0.3-1.3c0,0-0.1,0-0.1,0c-2.7,1.3-5.8,2.7-8.3,4.1l-3.3,1.8l-1-3.6c-0.1-0.3-0.2-0.6-0.3-1
		c-0.1-0.4-0.3-0.8-0.4-1.3c-0.3-0.7-0.9-1.7-1.5-3l-2-3.8l2.2-0.6l-1.2-2c-1.4-2.3-2.7-4.2-4.2-6l-3.1-3.7l4.7-1.1
		c2.1-0.5,4.1-1.2,5.7-2.1l-6.2,0.2v-12.5l6.2,0.2v-4.9l-4.7,0.1v-12.4l9.7,0.3l8.5,0v-71.5c22.3,8.5,40.8,21.6,48.7,27.2l0.1,0
		c0.8,0.6,1.6,1.2,2.6,1.9c1,0.7,2.1,1.5,3.2,2.3v123.9c31.9,20.7,56.5,51.7,69,88.3h7.5V239.5c-6.8,0-11.7,0-14.6-0.1
		c-3-0.1-6.1-0.2-9.2-0.5c-2.9-0.2-5.6-0.6-7.6-1.2l-0.1,0c-2.4-0.8-4.5-1.9-6.2-3.5l-1.8-1.5c-0.2-0.1-0.5-0.2-0.9-0.3
		c-0.2,0.1-0.6,0.4-1.3,1.1c-1.5,1.6-2.7,3-3.6,4.2l-3.4,4.6l-1.9-5.4c-0.8-2.4-1.4-3.9-1.7-4.8c-0.1-0.2-0.2-0.4-0.2-0.6l-2.6-5.3
		l3.1-1.2c0.6-0.2,1.1-0.5,1.5-0.7l0.4-0.2c0.5-0.2,1.1-0.5,2-1c0.7-0.4,1.4-0.8,2-1.1v-10.7h-0.9l-6.6,0.2v-12.9l6.7,0.2l5.1,0
		c-0.8-1-1.5-1.9-2.2-2.7l-0.5-0.6c-0.9-1-2.7-3-5.4-5.9l-2.5-2.6l3.1-1.9c1.7-1.1,3.5-2.5,5.3-4.2l2.2-2.1l2.7,2.9
		c2.4,2.6,4.9,5.3,7.6,8.2l1.6,1.8l1.2,0h5.2c0-0.5,0-1,0-1.4v-3.6l-0.4-7.6l3.4,0.3c3.5,0.3,6,0.4,7.4,0.4h3.5l-0.5,3.4
		c-0.2,1.1-0.3,2.3-0.3,3.3l0,0.5c-0.1,1.2-0.2,2.7-0.3,4.6h5.4l5.2-0.2v-15.6c11.7,2.6,25,4.9,40.1,6.4
		c-2.7,44.7-9,148.8-14.9,239.2l4.3,10.9c6.1-94.5,13-207.3,15.7-252.3l0.1-2.4l-2.4-0.2C539.4,170.3,510,148.9,492.5,136.2z"/>
	<path fill="#005FA2" d="M203.6,469.3v-44.2h-2.9C201.7,440.4,202.7,455.3,203.6,469.3z"/>
	<path fill="#005FA2" d="M517.9,94.9C500.9,82.8,453.9,50,400,50c-53.9,0-100.9,32.8-117.9,44.9c-17,12.1-45,36.7-147.8,36.7
		c0,0,20.1,337.2,27.6,430.2c5,62.8,52,96.8,92.1,116.3c31.6,15.4,51.7,18.9,82.2,30.5c44.6,17,63.8,41.4,63.8,41.4
		s19.2-24.4,63.8-41.4c30.5-11.6,50.6-15.2,82.2-30.5c40.1-19.5,87-53.5,92.1-116.3c7.5-93,27.6-430.2,27.6-430.2
		C562.9,131.6,534.9,107,517.9,94.9z M629.2,509.7h-8.5c-1.4,20.5-2.7,37.8-3.7,50.5c-3.4,42-29.6,74.4-80.2,99
		c-18.7,9.1-32.8,13.7-49.1,18.9c-9.7,3.1-19.7,6.4-31.4,10.8c-26.1,9.9-44.5,22.1-56.3,31.8c-11.8-9.7-30.2-21.9-56.3-31.8
		c-11.7-4.4-21.7-7.7-31.4-10.8c-16.3-5.3-30.4-9.9-49.1-18.9c-50.6-24.6-76.9-57-80.2-99c-2.3-27.9-5.7-78.3-9.3-135.1h-14.3v-51.7
		h11c-5.6-88.4-11.1-180.1-13.6-221.1c86.7-3.3,117.7-25.8,134.9-38.2c0.9-0.7,1.8-1.3,2.7-2c14.3-10.1,57.6-41,105.6-41
		s91.4,30.8,105.6,41c0.9,0.6,1.8,1.3,2.7,2c17.2,12.5,48.1,34.9,134.9,38.2c-3.6,60.4-14,231.3-21.3,338.8L629.2,509.7z"/>
</g>
</svg>
