<!-- Created by @FCLOGO 2022-01-06 20:05:32 . https://fclogo.top/ -->
<!-- FOR PERSONAL USE ONLY NOT FOR COMMERCIAL USE -->
<svg version="1.1" xmlns="http://www.w3.org/2000/svg" xmlns:xlink="http://www.w3.org/1999/xlink" x="0px" y="0px"
	 viewBox="0 0 800 800" enable-background="new 0 0 800 800" xml:space="preserve">
<g>
	<path fill="#3B8C26" d="M581.7,50H400H218.3l-95.5,88.1c0,0,0,293.7,0,384.3S223.2,713.3,400,750
		c176.8-36.7,277.2-137.1,277.2-227.6s0-384.3,0-384.3L581.7,50z"/>
	<path fill="#E6D701" d="M400,724.9c-77.2-16.7-142.4-46.8-188.8-87.1c-41.2-35.8-63.9-76.8-63.9-115.5V148.9l80.5-74.3h344.3
		l80.5,74.3v373.5c0,38.7-22.7,79.7-63.9,115.5C542.4,678.2,477.2,708.2,400,724.9z"/>
	<path fill="#06782D" d="M400,680.8c-71.5-16.1-131.7-44.1-174.3-81.1c-36.3-31.5-56.2-66.6-56.2-98.8V158.5l79.3-74.2h302.5
		l79.3,74.2v342.4c0,32.2-20,67.3-56.2,98.8C531.7,636.7,471.5,664.7,400,680.8z"/>
	<g>
		<path fill="#E6D701" d="M423.9,190.1C407.5,190.5,400,206,400,206s-7.6-15.5-23.9-15.9s-25.4,11.2-22.8,29.7
			c2.6,18.5,17.7,46.1,46.7,77c29-31,44.1-58.5,46.7-77C449.3,201.3,440.2,189.6,423.9,190.1z"/>
		<path fill="#E6D701" d="M423.9,93.8c-16.4,0.4-23.9,15.9-23.9,15.9s-7.6-15.5-23.9-15.9c-16.4-0.4-25.4,11.2-22.8,29.7
			c2.6,18.5,17.7,46.1,46.7,77c29-31,44.1-58.5,46.7-77C449.3,105,440.2,93.4,423.9,93.8z"/>
		<path fill="#E6D701" d="M292.8,156.5c-11.3,11.9-5.6,28.2-5.6,28.2s-16.3-5.6-28.2,5.6c-11.9,11.3-10,25.9,4.9,37.1
			c14.9,11.3,45.1,20.1,87.5,21.4c-1.4-42.4-10.2-72.6-21.4-87.5C318.7,146.4,304,144.6,292.8,156.5z"/>
		<path fill="#E6D701" d="M257.2,406.5c11.9,11.3,28.2,5.6,28.2,5.6s-5.6,16.3,5.6,28.2c11.3,11.9,25.9,10,37.1-4.9
			c11.3-14.9,20.1-45.1,21.4-87.5c-42.4,1.4-72.6,10.2-87.5,21.4C247.2,380.6,245.4,395.2,257.2,406.5z"/>
		<path fill="#E6D701" d="M507.2,442c11.3-11.9,5.6-28.2,5.6-28.2s16.3,5.6,28.2-5.6s10-25.9-4.9-37.1
			c-14.9-11.3-45.1-20.1-87.5-21.4c1.4,42.4,10.2,72.6,21.4,87.5C481.3,452,496,453.9,507.2,442z"/>
		<path fill="#E6D701" d="M542.8,192c-11.9-11.3-28.2-5.6-28.2-5.6s5.6-16.3-5.6-28.2c-11.3-11.9-25.9-10-37.1,4.9
			c-11.3,14.9-20.1,45.1-21.4,87.5c42.4-1.4,72.6-10.2,87.5-21.4C552.8,217.9,554.6,203.3,542.8,192z"/>
		<path fill="#E6D701" d="M194.5,275.4c0.4,16.4,15.9,23.9,15.9,23.9s-15.5,7.6-15.9,23.9s11.2,25.4,29.7,22.8
			c18.5-2.6,46.1-17.7,77-46.7c-31-29-58.5-44.1-77-46.7C205.7,250,194.1,259,194.5,275.4z"/>
		<path fill="#E6D701" d="M376.1,504.7c16.4-0.4,23.9-15.9,23.9-15.9s7.6,15.5,23.9,15.9c16.4,0.4,25.4-11.2,22.8-29.7
			c-2.6-18.5-17.7-46.1-46.7-77c-29,31-44.1,58.5-46.7,77C350.7,493.5,359.8,505.1,376.1,504.7z"/>
		<path fill="#E6D701" d="M605.5,323.1c-0.4-16.4-15.9-23.9-15.9-23.9s15.5-7.6,15.9-23.9c0.4-16.4-11.2-25.4-29.7-22.8
			c-18.5,2.6-46.1,17.7-77,46.7c31,29,58.5,44.1,77,46.7C594.3,348.5,605.9,339.5,605.5,323.1z"/>
		<path fill="#E6D701" d="M290.8,275.4c0.4,16.4,15.9,23.9,15.9,23.9s-15.5,7.6-15.9,23.9s11.2,25.4,29.7,22.8
			c18.5-2.6,46.1-17.7,77-46.7c-31-29-58.5-44.1-77-46.7C302,250,290.4,259,290.8,275.4z"/>
		<path fill="#E6D701" d="M376.1,408.4c16.4-0.4,23.9-15.9,23.9-15.9s7.6,15.5,23.9,15.9c16.4,0.4,25.4-11.2,22.8-29.7
			c-2.6-18.5-17.7-46.1-46.7-77c-29,31-44.1,58.5-46.7,77C350.7,397.2,359.8,408.8,376.1,408.4z"/>
		<path fill="#E6D701" d="M509.2,323.1c-0.4-16.4-15.9-23.9-15.9-23.9s15.5-7.6,15.9-23.9s-11.2-25.4-29.7-22.8
			c-18.5,2.6-46.1,17.7-77,46.7c31,29,58.5,44.1,77,46.7C498,348.5,509.6,339.5,509.2,323.1z"/>
	</g>
	<g>
		<g>
			<path fill="#FFFFFF" d="M262,536v-3.2c10,0,19.3-0.3,25.1-1.3l-11.4-4.7c0,0-15.4,3.5-62.6,3.7v0.9c0,0,15.4,0.9,32.8,1.3v3.3
				h-39.6v2.7h39.6v11.6H262v-11.6h38.1V536H262z"/>
			<path fill="#FFFFFF" d="M236.1,551.6l-3,2.7h40.2v4.9h-40.2v-4.9v-2.7h-16v18.4h63.4c4.8,0,8.7-3.9,8.7-8.7v-9.6H236.1z
				 M233.1,567.2v-5.3h40.2v5.3H233.1z"/>
			<path fill="#FFFFFF" d="M243.4,540.7h-18.2c0,0-6,6.9-17.1,10.1v0.6c0,0,17.9-0.5,35.4-10.4V540.7z"/>
			<path fill="#FFFFFF" d="M265.2,540.3l-0.2,0.5c14.7,9,30.6,10.8,30.6,10.8l3.5-6.5C285.5,545.4,265.2,540.3,265.2,540.3z"/>
		</g>
		<g>
			<path fill="#FFFFFF" d="M373.9,551.4H313v2.7h60.9v5.2h-58.2v2.7h58.2v5.2H315l-3,2.7h61.9h7.4c4.8,0,8.7-3.9,8.7-8.7v-9.8H373.9
				z"/>
			<path fill="#FFFFFF" d="M315.4,531.3c0,0-2.8,2.9-5.1,4.4s-5.4,3.5-5.4,3.5l8.7,4.2c0,0,3.8-3.1,6.8-5.8h23.2v12.1h16.1v-12.1
				H384l-1.3,2.3l6.9,1.6l8.1-7.4l-10.4-2.6l-1.8,3.3h-25.6v-5h33.5v-2.7h-33.5h-16.1h-35.2v2.7h35.2v5h-20.4
				c0.1-0.1,0.2-0.3,0.3-0.4L315.4,531.3z"/>
			<rect x="321.9" y="540.9" fill="#FFFFFF" width="16.3" height="2.7"/>
			<rect x="321.9" y="545.9" fill="#FFFFFF" width="16.3" height="2.7"/>
			<rect x="364.9" y="545.9" fill="#FFFFFF" width="16.3" height="2.7"/>
			<rect x="364.9" y="540.9" fill="#FFFFFF" width="16.3" height="2.7"/>
		</g>
		<g>
			<path fill="#FFFFFF" d="M439.9,534.2h17.8v-2.8h-17.8v-4.5h-14.8v4.5h-7c1.7-1.8,2.6-3,2.6-3v-0.2h-14.3c0,0,0.3,0.5-0.4,3.7
				c-0.7,3.2-3.2,6.1-3.2,6.1s5.1,0.4,8.2,0.4c1.6-1.5,3.1-2.9,4.3-4.1h9.7v5.4h-22.2v2.8h22.2v3.5h-19.7v20.1h14.7v-17.3h5v21h14.8
				v-21h5.2v15h-3.4l3,2.8h6.5c4.8,0,8.7-3.9,8.7-8.7v-12h-20v-3.5h21v-2.8h-21V534.2z"/>
			<rect x="463.6" y="530.4" fill="#FFFFFF" width="14.7" height="28"/>
			<path fill="#FFFFFF" d="M481.1,526.9v38.7h-12.1l3,4.3h15.1c4.8,0,8.7-3.9,8.7-8.7v-34.3H481.1z"/>
		</g>
		<g>
			<polygon fill="#FFFFFF" points="575.5,531.2 575.5,527.2 559.5,527.2 559.5,531.2 537.7,531.2 537.7,527.2 521.8,527.2 
				521.8,531.2 500.8,531.2 500.8,533.9 521.8,533.9 521.8,536.5 537.7,536.5 537.7,533.9 559.5,533.9 559.5,536.5 575.5,536.5 
				575.5,533.9 593.7,533.9 593.7,531.2 			"/>
			<path fill="#FFFFFF" d="M563.9,543.1c3.3-2.5,4.4-4.6,4.4-4.6h-16.5c-0.1,3.4-1,4.5-3.8,7.4c-2.8,2.9-7.4,4-7.4,4l2,1.7
				c7.7-1.4,13.2-3.5,17.1-5.7h16.2v20.5h-16.3l4,3.4H583c4.8,0,8.7-3.9,8.7-8.7v-18H563.9z"/>
			<path fill="#FFFFFF" d="M529.8,539.2l-0.2-0.8c0,0-2.7,0.2-7.2,0.2s-7.8-0.1-7.8-0.1s-2.7,3.4-5.6,5.3c-3,1.9-6.1,3.2-7.8,3.4
				l3.8,4c0,0,10.9-1.2,16.1-2.1c0.6-0.1,1.1-0.2,1.7-0.3c-1.5,1-3.1,1.9-4.7,2.6c-5.9,2.6-14.5,4-14.5,4l4.5,5.1
				c0,0,25.2-2.7,34.3-7l-2.7-1c0,0-13.8,3.2-19.3,2.1c0,0,21-6.1,24.8-10.7l-15.6-0.2c0,0-1.3,1.2-3.3,2.8
				c-3.1-0.1-7.7-0.2-10.5-0.7C515.6,545.6,526.8,541.5,529.8,539.2z"/>
			<path fill="#FFFFFF" d="M501.3,563.6l4.7,5.5c0,0,25.2-4.5,37.6-10.9l-2.5-0.8C541.1,557.5,523.3,563.6,501.3,563.6z"/>
			<path fill="#FFFFFF" d="M564.5,561.7l6.5-4.2c-7.3-5-17.2-6.1-17.2-6.1l-2.7,1.6c2.7,1.5,8.7,5.3,10.5,6.5
				S564.5,561.7,564.5,561.7z"/>
		</g>
	</g>
</g>
<g>
</g>
<g>
</g>
<g>
</g>
<g>
</g>
<g>
</g>
<g>
</g>
<g>
</g>
<g>
</g>
<g>
</g>
<g>
</g>
<g>
</g>
</svg>
