<!-- Created by @FCLOGO 2022-01-06 20:11:38 . https://fclogo.top/ -->
<!-- FOR PERSONAL USE ONLY NOT FOR COMMERCIAL USE -->
<svg version="1.1" xmlns="http://www.w3.org/2000/svg" xmlns:xlink="http://www.w3.org/1999/xlink" x="0px" y="0px"
	 viewBox="0 0 800 800" enable-background="new 0 0 800 800" xml:space="preserve">
<g>
	<g>
		<path fill="#01652F" d="M153.8,50c0,0,0,521.4,0,560.4s40.9,58.1,55.8,64.8c14.9,6.7,37.2,14.1,60.3,17.9
			c23.1,3.7,89,22.3,130.1,56.9c41.1-34.6,107-53.2,130.1-56.9c23.1-3.7,45.4-11.2,60.3-17.9c14.9-6.7,55.8-25.7,55.8-64.8
			s0-560.4,0-560.4H153.8z"/>
		<path fill="#00A551" d="M626,70.1v540.3c0,23.8-25.1,37.9-43.9,46.4c-13.6,6.1-30.5,11.4-46.5,14.7c-3,0.6-5.9,1.2-8.8,1.6
			c-13.5,2.2-47,10.4-81.7,26c-15.4,7-31,15.4-45.2,25.4c-14.2-10-29.8-18.4-45.2-25.4c-34.6-15.6-68.1-23.9-81.7-26
			c-2.9-0.5-5.8-1-8.8-1.6c-16-3.3-32.8-8.6-46.5-14.7c-18.9-8.5-43.9-22.5-43.9-46.4V70.1H626z"/>
		<g>
			<path fill="#FFF100" d="M264.4,70.1v601.4c-16-3.3-32.8-8.6-46.5-14.7c-18.9-8.5-43.9-22.5-43.9-46.4V70.1H264.4z"/>
			<path fill="#00A551" d="M354.8,70.1v629.1c-34.6-15.6-68.1-23.9-81.7-26c-2.9-0.5-5.8-1-8.8-1.6V70.1H354.8z"/>
			<path fill="#FFF100" d="M445.2,70.1v629.1c-15.4,7-31,15.4-45.2,25.4c-14.2-10-29.8-18.4-45.2-25.4V70.1H445.2z"/>
			<path fill="#00A551" d="M535.6,70.1v601.4c-3,0.6-5.9,1.2-8.8,1.6c-13.5,2.2-47,10.4-81.7,26V70.1H535.6z"/>
			<path fill="#FFF100" d="M626,70.1v540.3c0,23.8-25.1,37.9-43.9,46.4c-13.6,6.1-30.5,11.4-46.5,14.7V70.1H626z"/>
		</g>
	</g>
	<g>
		<g>
			<path fill="#FFF100" d="M501.6,164.4c-2-3.6-3.3-6-4-7.3c0.2-0.1,0.7-0.2,1.4-0.4c2-0.6,3.8-1.2,5.3-2c3.2-1.7,4.2-3.9,3.1-6.6
				c-1.6-3.2-3.6-4.3-5.8-3.3c-3.2,0.9-6,1.6-8.4,1.9c-1-0.3-1.2-0.9-0.6-1.8c8.7-3.6,14.1-3.3,16,0.8l9.3-18.2
				c1.4-2.4,0.4-4.5-2.9-6.2l-11.4-5.8c2.8-3.2,1.6-6-3.4-8.5l-0.2-0.1l-1.2-0.6c-2-1.6-4.8-0.8-8.4,2.4l-5.8-3l-5.1-2.6
				c-2.9-1.7-5.1-1.1-6.3,1.8l-7.7,15.1c-1.7,3-1.2,5.2,1.6,6.4l5.6,2.8l4.7,2.4c4.4,2.2,5.7,5.1,4,8.5l-0.6,1.2c-0.9,1.7-3.2,4-7,7
				l-1.2,2.3c-0.2,0.7-0.7,0.8-1.6,0.3l-3-1.5c-2.4-1.2-4.3-0.5-5.7,2.1l-0.6,1.2c-1.3,2.9-0.8,4.9,1.5,6l8.5,4.3l1.1,0.6
				c3.7,2.1,6.4,1.2,8.2-2.6l2.9-5.6c1.9,5.3,4.6,10.2,7.9,14.9c2.4,2.8,4.8,3.3,7.2,1.6C502.9,169.8,503.8,167.3,501.6,164.4z
				 M482.2,114.6c0.2-0.3,0.5-0.4,0.9-0.1l10.5,5.4l10.7,5.5c0.5,0.2,0.5,0.5,0.2,0.7l-0.9,1.9l-11.2-5.7l-11.2-5.7L482.2,114.6z
				 M488.2,130.6l-10.8-5.5c-0.3-0.1-0.3-0.4-0.2-0.7l0.9-1.9l11.2,5.7l11.2,5.7l-0.9,1.9c0,0.4-0.2,0.5-0.7,0.2L488.2,130.6z"/>
			<path fill="#01652F" d="M476.5,102.3c0.9,0,1.8,0.3,2.9,0.9l5.1,2.6l5.8,3c2.4-2.2,4.4-3.3,6.1-3.3c0.8,0,1.6,0.3,2.3,0.8
				l1.2,0.6l0.2,0.1c5,2.5,6.2,5.3,3.4,8.5l11.4,5.8c3.3,1.7,4.3,3.8,2.9,6.2l-9.3,18.2c-1-2.2-3-3.3-6-3.3c-2.6,0-5.9,0.8-10,2.5
				c-0.6,0.9-0.4,1.4,0.6,1.8c2.5-0.3,5.3-0.9,8.4-1.9c0.5-0.2,1-0.4,1.5-0.4c1.6,0,3,1.2,4.3,3.6c1.1,2.7,0.1,4.9-3.1,6.6
				c-1.5,0.8-3.3,1.4-5.3,2c-0.7,0.2-1.2,0.4-1.4,0.4c0.7,1.3,2,3.8,4,7.3c2.2,2.9,1.3,5.4-2.8,7.7c-0.9,0.6-1.8,1-2.7,1
				c-1.5,0-3-0.9-4.5-2.6c-3.4-4.7-6-9.6-7.9-14.9l-2.9,5.6c-1.1,2.4-2.7,3.7-4.6,3.7c-1.1,0-2.3-0.4-3.6-1.1l-1.1-0.6l-8.5-4.3
				c-2.3-1.2-2.8-3.2-1.5-6l0.6-1.2c0.9-1.8,2.1-2.7,3.5-2.7c0.7,0,1.4,0.2,2.2,0.6l3,1.5c0.4,0.2,0.7,0.3,0.9,0.3
				c0.4,0,0.6-0.2,0.7-0.6l1.2-2.3c3.8-2.9,6.1-5.3,7-7l0.6-1.2c1.7-3.4,0.4-6.3-4-8.5l-4.7-2.4l-5.6-2.8c-2.8-1.2-3.3-3.4-1.6-6.4
				l7.7-15.1C473.9,103.2,475,102.3,476.5,102.3 M503.6,127.9l0.9-1.9c0.3-0.2,0.2-0.5-0.2-0.7l-10.7-5.5l-10.5-5.4
				c-0.2-0.1-0.4-0.1-0.5-0.1c-0.2,0-0.3,0.1-0.4,0.3l-0.9,1.9l11.2,5.7L503.6,127.9 M499.3,136.2c0.2,0,0.3-0.1,0.3-0.4l0.9-1.9
				l-11.2-5.7l-11.2-5.7l-0.9,1.9c-0.2,0.3-0.1,0.5,0.2,0.7l10.8,5.5l10.7,5.5C499,136.1,499.2,136.2,499.3,136.2 M476.5,100
				L476.5,100c-1.4,0-3.9,0.5-5.4,4l-7.7,15c-1.2,2.2-1.5,4.1-1,5.8c0.5,1.6,1.7,2.8,3.6,3.7l5.5,2.8l4.7,2.4c4.6,2.4,3.6,4.4,3,5.5
				l-0.6,1.2c-0.4,0.8-1.8,2.6-6.4,6.2l-0.4,0.3l-0.2,0.4l-0.6,1.3l-2.1-1.1c-1.1-0.6-2.2-0.8-3.2-0.8c-1.6,0-3.8,0.7-5.5,3.9
				l-0.6,1.2l0,0.1l0,0.1c-2.5,5.6,0.9,8.1,2.5,9l8.5,4.3l1.1,0.6c1.6,0.9,3.2,1.4,4.6,1.4c2,0,4.7-0.9,6.6-4.9l0.6-1.2
				c1.7,3.8,3.8,7.4,6.3,10.8l0.1,0.1l0.1,0.1c1.9,2.2,4,3.4,6.2,3.4c1.4,0,2.7-0.4,3.9-1.3c2.8-1.6,4.4-3.4,4.8-5.5
				c0.4-1.8-0.1-3.5-1.4-5.3c-1.1-2-2-3.5-2.7-4.8c1.7-0.5,3.2-1.1,4.5-1.8c1.9-1,5.8-3.7,4.5-8.4l0.8-1.5l9.2-18.1
				c1.1-1.9,1-3.6,0.7-4.6c-0.5-1.8-2.1-3.4-4.5-4.7l-9.2-4.7c0.5-1.2,0.6-2.3,0.4-3.5c-0.5-2.4-2.5-4.4-6-6.1l-0.1,0l-0.1,0
				l-0.2-0.1l-0.9-0.5c-1-0.8-2.2-1.2-3.5-1.2c-2,0-4.1,0.9-6.5,2.8l-4.5-2.3l-5.1-2.6C479,100.4,477.7,100,476.5,100L476.5,100z"/>
		</g>
		<g>
			<path fill="#FFF100" d="M469.9,147.9c3.8-1.9,6.8-4.4,8.9-7.5c1.7-2.8,0.6-5.3-3.2-7.2l-4-2l-10.6-5.4c-2.3-1.2-4.1-0.3-5.6,2.5
				l-0.5,0.9c-1.5,3-1.2,4.9,0.8,5.7l8,4.1c-2.2,0.6-5.3,1-9.2,1.2c-1,0.1-1.7,0.1-2.1,0.1c-3,0.3-4.5,2.2-4.4,5.9
				c0.1,3.2,1.8,4.9,5.2,5c0.8,0,1.9,0,3.4,0c1.6-0.2,2.8-0.2,3.6-0.2c1-1.4,1.9-2.5,3-3.2c1.7-1.2,3.6-1.3,5.5-0.4L469.9,147.9z"/>
			<path fill="#01652F" d="M459.1,125.3c0.6,0,1.2,0.2,1.9,0.5l10.6,5.4l4,2c3.8,1.9,4.9,4.4,3.2,7.2c-2.1,3-5.1,5.5-8.9,7.5
				l-1.2-0.6c-0.9-0.4-1.7-0.7-2.5-0.7c-1,0-2,0.3-3,1c-1,0.7-2,1.8-3,3.2c-0.8,0-2,0.1-3.6,0.2c-0.6,0-1.1,0-1.6,0
				c-0.4,0-0.8,0-1.1,0c-0.3,0-0.5,0-0.7,0c-3.4-0.1-5.1-1.8-5.2-5c0-3.7,1.4-5.7,4.4-5.9c0.1,0,0.1,0,0.2,0c0.4,0,1.1,0,1.9-0.1
				c3.9-0.2,7-0.6,9.2-1.2l-8-4.1c-2-0.8-2.3-2.8-0.8-5.7l0.5-0.9C456.4,126.3,457.7,125.3,459.1,125.3 M459.1,123L459.1,123
				c-1.6,0-3.9,0.7-5.7,4.2l-0.5,0.9c-1.2,2.4-1.5,4.3-0.9,6c0.3,0.9,1.1,2.1,2.8,2.8l1.7,0.9c-0.7,0-1.3,0.1-2,0.1l0,0l0,0
				c-1,0.1-1.5,0.1-1.7,0.1l-0.1,0l-0.1,0l-0.1,0c-2,0.2-6.5,1.3-6.5,8.2c0.1,4.4,2.8,7,7.3,7.2l0.1,0l0.1,0l0.7,0l0.5,0l0.6,0
				c0.5,0,1,0,1.6,0l0.1,0l0.1,0c1.8-0.2,2.9-0.2,3.3-0.2l1.2,0l0.7-1c0.8-1.2,1.6-2.1,2.4-2.7c0.6-0.4,1.1-0.6,1.7-0.6
				c0.5,0,1,0.1,1.5,0.4l1.2,0.6l1,0.5l1-0.5c4.1-2.1,7.4-4.8,9.8-8.2l0.1-0.1l0-0.1c1-1.8,1.3-3.5,0.8-5.2c-0.6-2-2.3-3.7-5-5.1
				l-4-2l-10.6-5.4C461,123.3,460,123,459.1,123L459.1,123z"/>
		</g>
		<g>
			<path fill="#FFF100" d="M422.3,134.4h-21.6c-2.8,0.2-4.6-0.2-5.3-1c10.4-8.7,18.3-16,23.9-21.8c2-2.1,2.9-4.1,2.7-6.2v-1.3
				c-0.2-3.6-2.7-5.5-7.5-5.7h-10.1v-6.7c0.2-3.2-1.9-4.8-6.3-4.6h-3c-3.7-0.2-5.4,1.5-5.3,4.9v6.4h-13.3c-3.2-0.2-4.8,1.6-4.8,5.4
				v1.8c-0.3,3.6,1.2,5.3,4.8,5.1h23.3c0.7,0,1.1,0.2,1.3,0.5c0.2,0.3,0,0.7-0.5,1c-3.9,3.6-8.9,7.7-15.1,12.3
				c-4.2-3.1-7.4-3.3-9.5-0.5c-2.7,3.6-5.3,7.7-8,12.3c-1.8,3.4-1.3,6.2,1.7,8.5c3.4,2.4,6.4,2.1,9.1-0.8c0.5-0.7,1.1-1.5,1.8-2.6
				c0.8-1.4,1.4-2,1.7-1.8c0.3,0,1.2,0.4,2.5,1.3c2.7,2,4.7,3.3,6.3,3.9c1.7,1.2,4.4,1.7,8.3,1.5h23.1c3.2,0.2,4.7-1.6,4.5-5.4v-1.3
				C427,136.1,425.5,134.3,422.3,134.4z"/>
			<path fill="#01652F" d="M398.8,87.2c3.9,0,5.8,1.6,5.6,4.6v6.7h10.1c4.8,0.2,7.3,2,7.5,5.7v1.3c0.2,2.1-0.8,4.1-2.7,6.2
				c-5.5,5.8-13.5,13.1-23.9,21.8c0.6,0.7,1.9,1.1,3.9,1.1c0.4,0,0.9,0,1.4,0h21.6c0.1,0,0.3,0,0.4,0c2.9,0,4.4,1.8,4.4,5.4v1.3
				c0.2,3.6-1.2,5.4-4.1,5.4c-0.1,0-0.3,0-0.4,0h-23.1c-0.5,0-1,0-1.5,0c-3.1,0-5.4-0.5-6.8-1.6c-1.5-0.5-3.6-1.8-6.3-3.9
				c-1.4-0.9-2.2-1.3-2.5-1.3c0,0-0.1,0-0.1,0c-0.4,0-0.9,0.6-1.6,1.8c-0.7,1-1.3,1.9-1.8,2.6c-1.5,1.6-3,2.4-4.7,2.4
				c-1.4,0-2.8-0.5-4.4-1.6c-3-2.2-3.6-5.1-1.7-8.5c2.7-4.6,5.4-8.7,8-12.3c1-1.3,2.3-1.9,3.7-1.9c1.7,0,3.6,0.8,5.8,2.5
				c6.2-4.6,11.2-8.7,15.1-12.3c0.5-0.3,0.7-0.7,0.5-1c-0.2-0.3-0.6-0.5-1.3-0.5h-23.3c-0.2,0-0.3,0-0.5,0c-3.2,0-4.6-1.7-4.3-5.2
				v-1.8c0-3.6,1.5-5.4,4.4-5.4c0.1,0,0.3,0,0.4,0h13.3v-6.4c-0.2-3.3,1.4-4.9,4.8-4.9c0.2,0,0.3,0,0.5,0h3
				C398.4,87.2,398.6,87.2,398.8,87.2 M398.8,84.9L398.8,84.9c-0.2,0-0.5,0-0.7,0h-2.9c-0.2,0-0.4,0-0.6,0c-2.3,0-4.1,0.7-5.3,1.9
				c-1.2,1.3-1.8,3-1.7,5.3v4.1h-11c-0.2,0-0.3,0-0.4,0c-2.7,0-4.2,1.2-5,2.2c-1.1,1.3-1.6,3.1-1.6,5.5v1.7
				c-0.2,2.4,0.3,4.3,1.5,5.6c1.2,1.3,2.9,1.9,5,1.9c0.2,0,0.4,0,0.5,0h19.9c-3.1,2.7-6.8,5.7-11,8.9c-2.1-1.3-4-1.9-5.7-1.9
				c-2.2,0-4.1,1-5.5,2.8c-2.7,3.6-5.4,7.7-8.2,12.6l0,0l0,0c-2.4,4.4-1.5,8.4,2.4,11.3c1.9,1.4,3.8,2.1,5.7,2.1
				c2.3,0,4.5-1.1,6.4-3.1l0.1-0.1l0.1-0.1c0.4-0.5,0.8-1.2,1.3-1.9l0.5-0.8l0-0.1l0-0.1c0.1-0.1,0.2-0.2,0.2-0.4
				c0.2,0.1,0.5,0.3,0.9,0.5c2.7,2.1,4.8,3.4,6.5,4c1.8,1.2,4.4,1.8,7.8,1.8c0.5,0,1,0,1.5,0h23c0.2,0,0.3,0,0.5,0
				c1.9,0,3.5-0.6,4.6-1.8c1.3-1.3,1.9-3.3,1.8-5.9v-1.2c0-6.9-4.6-7.7-6.6-7.7c-0.1,0-0.3,0-0.4,0h-21.5h-0.1l-0.1,0
				c-0.1,0-0.2,0-0.3,0c8.7-7.5,15.6-13.9,20.6-19.1c2.4-2.5,3.6-5.2,3.4-7.8v-1.2v0l0,0c-0.1-2.8-1.5-7.5-9.7-7.8l0,0h0h-7.8v-4.4
				c0.1-2.4-0.8-3.9-1.6-4.8C403.8,85.6,401.6,84.9,398.8,84.9L398.8,84.9z"/>
		</g>
		<g>
			<path fill="#FFF100" d="M317.6,103.8l-16,7.6l-15.6,7.4c-4.6,2-5.7,5.3-3.4,10.1l18,37.8c2,4.1,4.9,5.1,8.8,3.1l16.3-7.7
				l16.4-7.8c4.2-1.8,5.3-4.7,3.2-8.8l-18.7-39.2C325.1,102.3,322.1,101.5,317.6,103.8z M331.4,145.3c0.4,0.6,0.2,1.1-0.7,1.5
				l-10,4.8l-10.1,4.8c-0.8,0.4-1.3,0.2-1.6-0.4l-4.4-9.3l11.2-5.3L327,136L331.4,145.3z M322,125.6l-11.2,5.3l-11.2,5.3l-3.7-7.8
				c-0.3-0.6,0-1.2,0.9-1.6l9.8-4.7l10-4.8c0.9-0.6,1.4-0.4,1.7,0.6L322,125.6z"/>
			<path fill="#01652F" d="M322,102.5c2.1,0,3.7,1.2,4.6,3.7l18.7,39.2c2.1,4,1.1,7-3.2,8.8l-16.4,7.8l-16.3,7.7
				c-1.3,0.7-2.5,1-3.6,1c-2.2,0-3.9-1.4-5.2-4.1l-18-37.8c-2.3-4.7-1.1-8.1,3.4-10.1l15.6-7.4l16-7.6
				C319.3,103,320.8,102.5,322,102.5 M299.7,136.2l11.2-5.3l11.2-5.3l-3.6-7.6c-0.2-0.6-0.5-1-0.9-1c-0.2,0-0.5,0.1-0.8,0.3l-10,4.8
				l-9.8,4.7c-0.9,0.4-1.2,1-0.9,1.6L299.7,136.2 M309.9,156.5c0.2,0,0.5-0.1,0.7-0.2l10.1-4.8l10-4.8c0.9-0.4,1.2-0.9,0.7-1.5
				L327,136l-11.2,5.3l-11.2,5.3l4.4,9.3C309.3,156.3,309.5,156.5,309.9,156.5 M322,100.3c-1.6,0-3.4,0.5-5.5,1.6l-15.9,7.6
				l-15.5,7.4c-2.7,1.2-4.6,2.9-5.4,5.1c-0.9,2.3-0.6,5,0.9,8l18,37.8c2.1,4.4,5.1,5.4,7.2,5.4c1.4,0,3-0.4,4.6-1.3l16.2-7.7
				l16.4-7.8c2.7-1.2,4.4-2.8,5.2-4.9c0.7-2.1,0.4-4.4-0.9-6.9l-18.6-39.1C327,100.9,323.8,100.3,322,100.3L322,100.3z M298.5,128.5
				l9.2-4.4l9.1-4.3l2.3,4.7l-9.1,4.3l-9.2,4.4L298.5,128.5L298.5,128.5z M307.6,147.7l9.2-4.4l9.1-4.3l2.9,6.2l-9.1,4.3l-9.2,4.4
				L307.6,147.7L307.6,147.7z"/>
		</g>
	</g>
	<g>
		<path fill-rule="evenodd" clip-rule="evenodd" fill="#FFFFFF" d="M501.3,284.8c0,55.9-45.3,101.3-101.3,101.3
			c-55.9,0-101.3-45.3-101.3-101.3c0-55.9,45.3-101.3,101.3-101.3C455.9,183.5,501.3,228.8,501.3,284.8z"/>
		<path fill-rule="evenodd" clip-rule="evenodd" d="M494.6,284.8c0,52.3-42.4,94.6-94.6,94.6s-94.6-42.4-94.6-94.6
			c0-52.3,42.4-94.6,94.6-94.6S494.6,232.5,494.6,284.8z"/>
		<g>
			<defs>
				<circle id="SVGID_1_" cx="400" cy="284.8" r="90"/>
			</defs>
			<clipPath id="SVGID_00000119110187759843176570000017272402477567887015_">
				<use xlink:href="#SVGID_1_"  overflow="visible"/>
			</clipPath>
			
				<polygon clip-path="url(#SVGID_00000119110187759843176570000017272402477567887015_)" fill-rule="evenodd" clip-rule="evenodd" fill="#FFFFFF" points="
				402.3,218.6 443.7,192.6 477.4,211.7 463.8,264.8 433,275.5 402.3,250.8 			"/>
			
				<polygon clip-path="url(#SVGID_00000119110187759843176570000017272402477567887015_)" fill-rule="evenodd" clip-rule="evenodd" fill="#FFFFFF" points="
				465,268.3 502.3,300.9 496,334.6 439.8,337.6 422.2,311.9 433.5,279.1 			"/>
			
				<polygon clip-path="url(#SVGID_00000119110187759843176570000017272402477567887015_)" fill-rule="evenodd" clip-rule="evenodd" fill="#FFFFFF" points="
				437.7,340.8 418.9,385.5 385.1,390.6 362.5,339.3 381.9,313.3 418.9,313.3 			"/>
			
				<polygon clip-path="url(#SVGID_00000119110187759843176570000017272402477567887015_)" fill-rule="evenodd" clip-rule="evenodd" fill="#FFFFFF" points="
				359,337.4 310.2,334.6 294.5,305.1 336.3,269.2 366.2,279.5 377.7,312.3 			"/>
			
				<polygon clip-path="url(#SVGID_00000119110187759843176570000017272402477567887015_)" fill-rule="evenodd" clip-rule="evenodd" fill="#FFFFFF" points="
				337.6,265.4 324.5,217 349.7,189.3 398.6,218.8 398.6,250.7 366.9,275.5 			"/>
		</g>
	</g>
	<g>
		<g>
			<path fill-rule="evenodd" clip-rule="evenodd" fill="#01652F" d="M374.1,472.8c0,0,8.7-45.6-24.1-83.9s-65-46.6-91.3-46.6
				s-64,14.9-63.5,48.1c0.5,33.2,36.7,41.2,62,42.7C282.6,434.5,335.7,429.6,374.1,472.8z"/>
			<path fill-rule="evenodd" clip-rule="evenodd" fill="#01652F" d="M391.7,598.3c0,0,3.5-40.2,19.8-64.5
				c16.4-24.3,28.8-29.8,54.6-35.7s111.1-22.3,109.7-64s-67.5-58.6-113.6-43.7c-46.1,14.9-72.9,44.2-79.9,114.1
				c0,0-13.9-28.3-42.7-27.8s-33.7,18.4-26.3,33.2c7.4,14.9,26.3,20.3,43.2,24.3c16.9,4,27.3,16.9,28.3,27.8
				C385.8,573,391.7,598.3,391.7,598.3z"/>
			<path fill-rule="evenodd" clip-rule="evenodd" fill="#01652F" d="M418.5,567.5c0,0,9.9-29.8,19.8-42.2
				c9.9-12.4,28.3-26.3,45.6-15.9c17.4,10.4,3.5,25.3-9.4,27.3s-26.6,2.4-37.2,11.9C429.5,555.7,418.5,567.5,418.5,567.5z"/>
			<path fill-rule="evenodd" clip-rule="evenodd" fill="#01652F" d="M472.6,377.2c0,0,12.9-20.6,29-19.8
				c16.1,0.7,16.1,9.4,12.4,12.7c-3.7,3.2-10.4,2.7-15,2.4c-4.6-0.4-9.1-0.5-13.9,1C481.3,374.6,472.6,377.2,472.6,377.2z"/>
			<path fill-rule="evenodd" clip-rule="evenodd" fill="#01652F" d="M517.3,356.7c0,0,21.9-24.4,42.7-21.1
				c21,3.3,16.7,15.9,11.2,19.5c-5.6,3.7-12.9,2.2-18.7,0.7c-5.8-1.5-11.5-2.7-18.1-1.7C529.1,355,517.3,356.7,517.3,356.7z"/>
		</g>
		<g>
			<path fill="#FFFFFF" d="M210.9,387.7c-0.9,0-1.8-0.3-2.6-0.8c-2-1.4-2.5-4.2-1.1-6.2c0.4-0.6,10.6-15.1,20.9-21.5
				c11.4-7,23.9-9.6,41.7-8.5c2.5,0.2,4.3,2.3,4.2,4.7c-0.2,2.5-2.3,4.3-4.7,4.2c-15.8-1-26.7,1.2-36.5,7.2
				c-8.8,5.4-18.2,18.8-18.3,19C213.7,387,212.3,387.7,210.9,387.7z"/>
			<path fill="#FFFFFF" d="M418.6,445.2c15.7-21,39.6-34.5,65.5-38.1c6.4-0.9,3.7-10.6-2.7-9.7c-28.6,4-54.2,19.7-71.5,42.7
				C406,445.3,414.8,450.3,418.6,445.2L418.6,445.2z"/>
			<path fill="#FFFFFF" d="M325.1,499.4c4.3-3.9,9.7-6.5,15.6-6.6c6-0.1,11.6,2.2,16.4,5.7c1.2,0.9,3.1,0.2,3.8-1
				c0.8-1.4,0.2-2.9-1-3.8c-5.6-4.1-12.6-6.7-19.6-6.5c-7.2,0.3-13.8,3.4-19.1,8.2C318.5,497.9,322.5,501.8,325.1,499.4L325.1,499.4
				z"/>
			<path fill="#FFFFFF" d="M444.5,534.2c4.6-6.2,10.9-11.5,18.4-13.8c2.7-0.9,1.6-5.2-1.2-4.3c-8.6,2.7-15.8,8.7-21.1,15.9
				c-0.7,1-0.2,2.5,0.8,3.1C442.6,535.6,443.8,535.1,444.5,534.2L444.5,534.2z"/>
			<path fill="#FFFFFF" d="M495.9,364.9c3.9-1.9,8.6-2.4,12.5-0.2c1.3,0.7,2.4-1.2,1.1-1.9c-4.6-2.6-10.1-2-14.7,0.2
				C493.4,363.6,494.6,365.5,495.9,364.9L495.9,364.9z"/>
			<path fill="#FFFFFF" d="M543.5,345.6c6.2-3.6,14-3.8,20.3-0.5c1.3,0.7,2.4-1.3,1.1-1.9c-7-3.7-15.7-3.6-22.6,0.5
				C541.1,344.4,542.3,346.3,543.5,345.6L543.5,345.6z"/>
			<circle fill-rule="evenodd" clip-rule="evenodd" fill="#FFFFFF" cx="284.7" cy="356.5" r="4.5"/>
			<circle fill-rule="evenodd" clip-rule="evenodd" fill="#FFFFFF" cx="365.4" cy="502" r="3.4"/>
			<circle fill-rule="evenodd" clip-rule="evenodd" fill="#FFFFFF" cx="469.1" cy="516.2" r="2.3"/>
			<circle fill-rule="evenodd" clip-rule="evenodd" fill="#FFFFFF" cx="499.9" cy="400" r="5.8"/>
			<circle fill-rule="evenodd" clip-rule="evenodd" fill="#FFFFFF" cx="511.6" cy="365.3" r="1.1"/>
			<circle fill-rule="evenodd" clip-rule="evenodd" fill="#FFFFFF" cx="567.8" cy="346" r="1.1"/>
		</g>
	</g>
	<g>
		<g>
			<path fill="#01652F" d="M230.1,594.2c2.2,0,4.5,0.6,6.9,1.8c3.7,1.9,6.2,4.3,7.3,7.2c1.1,2.9,1.2,6.3,0.1,9.9l-6.7-1.6
				c0.5-2,0.4-3.8-0.3-5.4c-0.6-1.6-1.8-2.9-3.6-3.7c-1.4-0.7-2.7-1-4-1c-1.3,0-2.5,0.3-3.8,0.9c-2.6,1.3-4.9,3.9-6.9,7.9
				c-2.2,4.3-3,8-2.5,10.9c0.5,3,2,5.1,4.6,6.4c1.3,0.6,2.7,1,4.3,1c0.1,0,0.2,0,0.3,0c1.5,0,2.8-0.2,4.1-0.6l2.3-4.6l-6.9-3.5
				l3.1-6.2l13,6.5l-7.3,14.6c-1.9,0.8-4.2,1.2-6.9,1.2c-0.2,0-0.4,0-0.6,0c-3-0.1-5.7-0.7-8.2-1.9c-3.1-1.6-5.5-3.7-7-6.5
				c-1.5-2.8-2.1-5.9-1.8-9.5c0.3-3.6,1.4-7.1,3.1-10.6c1.9-3.8,4.2-6.9,7-9.2c2.8-2.3,5.8-3.6,9.1-3.9
				C229.4,594.3,229.8,594.2,230.1,594.2 M230.1,592.6c-0.4,0-0.9,0-1.3,0.1c-3.6,0.4-7,1.8-10,4.3c-3,2.4-5.5,5.7-7.5,9.7
				c-1.8,3.7-2.9,7.5-3.3,11.2c-0.3,3.9,0.3,7.4,2,10.5c1.7,3.1,4.3,5.5,7.7,7.2c2.7,1.3,5.7,2,8.9,2.1c0.2,0,0.4,0,0.6,0
				c2.9,0,5.5-0.5,7.6-1.3l0.6-0.2l0.3-0.6l7.3-14.6l0.7-1.5l-1.5-0.7l-13-6.5l-1.5-0.7l-0.7,1.5l-3.1,6.2l-0.7,1.5l1.5,0.7l5.4,2.7
				l-1.2,2.5c-0.9,0.2-1.9,0.3-2.9,0.3l-0.3,0c-1.3,0-2.5-0.3-3.5-0.8c-2.1-1-3.3-2.7-3.7-5.1c-0.4-2.6,0.4-5.9,2.3-9.9
				c1.8-3.7,3.9-6.1,6.1-7.2c1-0.5,2-0.8,3.1-0.8c1.1,0,2.2,0.3,3.3,0.8c1.4,0.7,2.3,1.6,2.8,2.9c0.5,1.3,0.6,2.8,0.2,4.4l-0.4,1.6
				l1.6,0.4l6.7,1.6l1.6,0.4l0.5-1.5c1.2-4,1.1-7.7-0.1-11c-1.3-3.3-4-6.1-8.1-8.1C235.2,593.2,232.6,592.6,230.1,592.6L230.1,592.6
				z"/>
			<path fill="#01652F" d="M253.8,604.6l6.4,2.2l-7.1,21c-1.1,3.3-1.8,5.5-2,6.5c-0.3,1.7,0,3.2,0.7,4.5c0.7,1.3,2,2.3,3.7,2.9
				c0.9,0.3,1.8,0.5,2.6,0.5c0.7,0,1.4-0.1,2-0.4c1.2-0.6,2.2-1.5,2.8-2.8c0.6-1.3,1.5-3.4,2.5-6.5l7.3-21.4l6.4,2.2l-6.9,20.3
				c-1.6,4.6-2.9,7.9-3.9,9.7c-1,1.8-2.2,3.2-3.6,4.2c-1.4,1-3,1.6-4.8,1.9c-0.4,0.1-0.9,0.1-1.3,0.1c-1.5,0-3.3-0.3-5.2-1
				c-3-1-5.2-2.2-6.5-3.6s-2.1-2.9-2.6-4.6c-0.4-1.7-0.6-3.3-0.3-4.9c0.3-2.4,1.2-5.7,2.7-10L253.8,604.6 M252.7,602.4l-0.5,1.6
				l-7,20.6c-1.5,4.5-2.4,7.9-2.8,10.3c-0.2,1.8-0.1,3.7,0.4,5.6c0.5,1.9,1.5,3.7,3,5.3c1.5,1.6,3.8,2.9,7.2,4.1
				c2.1,0.7,4,1.1,5.7,1.1c0.5,0,1.1,0,1.5-0.1c2.1-0.3,4-1,5.6-2.2c1.6-1.1,2.9-2.7,4-4.8c1.1-1.9,2.4-5.2,4-9.9l6.9-20.3l0.5-1.6
				l-1.6-0.5l-6.4-2.2l-1.6-0.5l-0.5,1.6l-7.3,21.4c-1,3-1.8,5.1-2.4,6.3c-0.5,0.9-1.1,1.6-2,2c-0.4,0.2-0.8,0.3-1.3,0.3
				c-0.6,0-1.3-0.1-2-0.4c-1.4-0.5-2.3-1.1-2.8-2.1c-0.5-1-0.7-2.1-0.5-3.4c0.1-0.6,0.5-2.2,1.9-6.3l7.1-21l0.5-1.6l-1.6-0.5
				l-6.4-2.2L252.7,602.4L252.7,602.4z"/>
			<path fill="#01652F" d="M293.8,616.8l7,1.6l3.9,42.8l-7.2-1.6l-0.8-9.7l-13.1-3l-4.8,8.4l-7-1.6L293.8,616.8 M296.2,642.6
				l-1.1-15.8l-7.8,13.8L296.2,642.6 M293,614.9l-0.6,1.1l-21.9,36.9l-1.2,2l2.2,0.5l7,1.6l1.2,0.3l0.6-1.1l4.2-7.3l10.6,2.4
				l0.7,8.5l0.1,1.2l1.2,0.3l7.2,1.6l2.3,0.5l-0.2-2.3l-3.9-42.8l-0.1-1.2l-1.2-0.3l-7-1.6L293,614.9L293,614.9z M289.9,639.5l3.9-7
				l0.6,8L289.9,639.5L289.9,639.5z"/>
			<path fill="#01652F" d="M316.2,621.6l6.5,0.9l9.7,29l3.9-27l6.2,0.9l-5.8,40.4l-6.7-1l-9.6-28.3l-3.8,26.4l-6.2-0.9L316.2,621.6
				 M314.8,619.7l-0.2,1.7l-5.8,40.4l-0.2,1.7l1.7,0.2l6.2,0.9l1.7,0.2l0.2-1.7l2.8-19.4l7.3,21.6l0.3,1l1,0.1l6.7,1l1.7,0.2
				l0.2-1.7l5.8-40.4l0.2-1.7l-1.7-0.2l-6.2-0.9l-1.7-0.2l-0.2,1.7l-2.9,20l-7.5-22.2l-0.3-1l-1-0.1l-6.5-0.9L314.8,619.7
				L314.8,619.7z"/>
			<path fill="#01652F" d="M362.5,626.4c0.5,0,0.9,0,1.4,0.1c4.1,0.3,7.3,1.6,9.5,3.9c2.2,2.3,3.5,5.3,3.9,9.1l-6.8,1.1
				c-0.3-2-1.1-3.7-2.3-4.9c-1.2-1.2-2.8-1.9-4.7-2.1c-0.3,0-0.5,0-0.7,0c-2.6,0-4.8,1-6.5,3c-1.9,2.2-3,5.5-3.3,10
				c-0.3,4.8,0.3,8.5,1.9,11.1c1.6,2.5,3.8,3.9,6.7,4.1c0.2,0,0.4,0,0.6,0c1.2,0,2.5-0.2,3.7-0.7c1.5-0.6,2.7-1.3,3.8-2.2l0.4-5.2
				l-7.7-0.5l0.5-6.9l14.5,1l-1.1,16.2c-1.5,1.6-3.7,2.9-6.4,4c-2.4,0.9-4.7,1.4-7.1,1.4c-0.4,0-0.8,0-1.2,0c-3.5-0.2-6.5-1.3-9-3.3
				c-2.5-2-4.3-4.7-5.3-8.1c-1.1-3.4-1.5-7.1-1.2-11c0.3-4.2,1.3-8,3-11.2c1.7-3.2,4-5.6,6.9-7.1
				C357.7,626.9,359.9,626.4,362.5,626.4 M362.5,624.7c-2.8,0-5.4,0.6-7.5,1.7c-3.2,1.7-5.8,4.4-7.6,7.8c-1.8,3.4-2.8,7.4-3.2,11.8
				c-0.3,4.1,0.2,8,1.3,11.6c1.2,3.7,3.2,6.7,5.9,8.9c2.7,2.2,6.1,3.4,9.9,3.7c0.4,0,0.9,0,1.3,0c2.5,0,5.1-0.5,7.7-1.5
				c3-1.2,5.3-2.6,7-4.4l0.4-0.4l0-0.6l1.1-16.2l0.1-1.7l-1.7-0.1l-14.5-1l-1.7-0.1l-0.1,1.7l-0.5,6.9l-0.1,1.7l1.7,0.1l6.1,0.4
				l-0.2,2.7c-0.8,0.6-1.8,1.1-2.8,1.5c-1.1,0.4-2.1,0.6-3.1,0.6c-0.2,0-0.3,0-0.5,0c-2.3-0.2-4.1-1.2-5.4-3.3
				c-1.4-2.2-1.9-5.6-1.6-10.1c0.3-4.1,1.3-7.1,2.9-9c1.4-1.6,3.1-2.4,5.3-2.4c0.2,0,0.4,0,0.6,0c1.5,0.1,2.7,0.6,3.7,1.6
				c1,1,1.6,2.3,1.9,4l0.3,1.6l1.6-0.3l6.8-1.1l1.6-0.2l-0.2-1.6c-0.5-4.1-1.9-7.5-4.4-10.1c-2.5-2.6-6-4.1-10.6-4.4
				C363.5,624.7,363,624.7,362.5,624.7L362.5,624.7z"/>
			<path fill="#01652F" d="M382.9,628.2l24.5,0.2l-0.1,6.4l-18.6,27.4l19.1,0.2l-0.1,6.9l-27.2-0.3l0.1-7.4l17.8-26.3l-15.6-0.1
				L382.9,628.2 M381.3,626.5l0,1.7l-0.1,6.9l0,1.7l1.7,0l12.5,0.1l-16.1,23.7L379,661l0,0.5l-0.1,7.4l0,1.7l1.7,0l27.2,0.3l1.7,0
				l0-1.7l0.1-6.9l0-1.7l-1.7,0l-15.9-0.1l16.8-24.8l0.3-0.4l0-0.5l0.1-6.4l0-1.7l-1.7,0l-24.5-0.2L381.3,626.5L381.3,626.5z"/>
			<path fill="#01652F" d="M438.3,627.1l1.9,40.8l-6.8,0.3l-0.8-17.8l-13.2,0.6l0.8,17.8l-6.8,0.3l-1.9-40.8l6.8-0.3l0.7,16.1
				l13.2-0.6l-0.7-16.1L438.3,627.1 M439.9,625.4l-1.7,0.1l-6.8,0.3l-1.7,0.1l0.1,1.7l0.7,14.4l-9.9,0.5L420,628l-0.1-1.7l-1.7,0.1
				l-6.8,0.3l-1.7,0.1l0.1,1.7l1.9,40.8l0.1,1.7l1.7-0.1l6.8-0.3l1.7-0.1l-0.1-1.7l-0.7-16.2l9.9-0.4l0.7,16.2l0.1,1.7l1.7-0.1
				l6.8-0.3l1.7-0.1l-0.1-1.7l-1.9-40.8L439.9,625.4L439.9,625.4z"/>
			<path fill="#01652F" d="M460.9,624.2c4,0,7.5,1.4,10.3,4.3c3.4,3.4,5.4,8.4,6.2,15c0.8,6.6-0.1,11.8-2.6,15.9
				c-2.5,4-6.2,6.3-11.1,6.9c-0.7,0.1-1.4,0.1-2.1,0.1c-4,0-7.5-1.4-10.3-4.3c-3.3-3.3-5.4-8.2-6.1-14.7c-0.5-4.1-0.4-7.7,0.3-10.6
				c0.5-2.2,1.3-4.1,2.5-5.9c1.1-1.8,2.4-3.2,3.9-4.2c1.9-1.3,4.3-2.1,7-2.4C459.5,624.3,460.2,624.2,460.9,624.2 M461.9,659.4
				c0.3,0,0.7,0,1-0.1c2.7-0.3,4.7-1.7,6.2-4.3c1.4-2.6,1.9-6.2,1.3-10.9c-0.5-4.7-1.8-8-3.7-10.1c-1.7-1.8-3.7-2.7-6-2.7
				c-0.4,0-0.7,0-1.1,0.1c-2.8,0.3-4.9,1.7-6.3,4.3c-1.4,2.5-1.9,6.1-1.3,10.8c0.5,4.6,1.8,8,3.8,10.1
				C457.7,658.4,459.7,659.4,461.9,659.4 M460.9,622.5L460.9,622.5c-0.7,0-1.5,0-2.3,0.1c-3,0.3-5.6,1.3-7.7,2.7
				c-1.7,1.1-3.1,2.7-4.4,4.7c-1.2,1.9-2.1,4.1-2.7,6.4c-0.7,3.1-0.8,6.9-0.3,11.2c0.8,6.8,3,12.1,6.6,15.7c3.2,3.2,7,4.8,11.5,4.8
				c0.8,0,1.5,0,2.3-0.1c5.4-0.6,9.5-3.2,12.3-7.7c2.7-4.3,3.6-10.1,2.8-17c-0.8-7-3.1-12.3-6.7-16
				C469.2,624.2,465.3,622.5,460.9,622.5L460.9,622.5z M461.9,657.7c-1.8,0-3.4-0.8-4.8-2.3c-1.8-1.9-2.9-5-3.4-9.2
				c-0.5-4.3-0.1-7.6,1.1-9.8c1.2-2,2.8-3.2,5-3.4c0.3,0,0.6-0.1,0.9-0.1c1.8,0,3.4,0.7,4.7,2.2c1.7,1.8,2.8,4.9,3.3,9.2
				c0.5,4.3,0.1,7.6-1.1,9.9c-1.2,2.1-2.8,3.2-4.9,3.5C462.5,657.7,462.2,657.7,461.9,657.7L461.9,657.7z"/>
			<path fill="#01652F" d="M505.2,617.2l4.2,21c1,4.8,1.5,8.2,1.5,10.3c0,2.1-0.3,3.9-1,5.4c-0.7,1.6-1.8,2.9-3.2,4
				c-1.5,1.1-3.5,2-6.1,2.5c-1.7,0.3-3.1,0.5-4.4,0.5c-1.1,0-2.1-0.1-3-0.4c-1.8-0.6-3.3-1.5-4.5-2.7c-1.2-1.2-2.1-2.6-2.7-4.1
				c-0.9-2.2-1.8-5.6-2.7-10l-4.3-21.4l6.6-1.3l4.3,21.7c0.7,3.4,1.2,5.7,1.6,6.6c0.6,1.6,1.6,2.8,2.8,3.5c0.9,0.5,1.9,0.8,3,0.8
				c0.5,0,1.1-0.1,1.7-0.2c1.9-0.4,3.2-1.1,4-2.3c0.8-1.1,1.1-2.4,1-3.8c-0.1-1.4-0.4-3.7-1.1-6.9l-4.4-22.2L505.2,617.2
				 M506.5,615.3l-1.6,0.3l-6.6,1.3l-1.6,0.3l0.3,1.6l4.4,22.2c0.6,3.1,1,5.3,1,6.6c0.1,1-0.2,1.9-0.7,2.8c-0.5,0.7-1.5,1.3-2.9,1.6
				c-0.5,0.1-0.9,0.1-1.4,0.1c-0.8,0-1.5-0.2-2.1-0.5c-1-0.6-1.7-1.5-2.1-2.7c-0.2-0.6-0.7-2.2-1.5-6.4l-4.3-21.7l-0.3-1.6l-1.6,0.3
				l-6.6,1.3l-1.6,0.3l0.3,1.6l4.3,21.4c0.9,4.6,1.8,8,2.8,10.3c0.7,1.7,1.7,3.2,3.1,4.6c1.4,1.4,3.2,2.5,5.2,3.1
				c1,0.3,2.2,0.5,3.5,0.5c1.4,0,3-0.2,4.7-0.5c2.8-0.6,5.1-1.5,6.8-2.8c1.7-1.3,2.9-2.9,3.7-4.7c0.8-1.8,1.2-3.8,1.1-6.1
				c0-2.2-0.5-5.6-1.5-10.6l-4.2-21L506.5,615.3L506.5,615.3z"/>
			<path fill="#01652F" d="M532.9,609.3l1.9,6.6l-15.6,4.5l2.7,9.3l13.4-3.9l1.9,6.6l-13.4,3.9l4.9,16.7l-6.5,1.9l-11.4-39.2
				L532.9,609.3 M534,607.3l-1.6,0.5l-22,6.4l-1.6,0.5l0.5,1.6l11.4,39.2l0.5,1.6l1.6-0.5l6.5-1.9l1.6-0.5l-0.5-1.6l-4.4-15.1
				l11.8-3.4l1.6-0.5l-0.5-1.6l-1.9-6.6l-0.5-1.6l-1.6,0.5l-11.8,3.4l-1.8-6.1l13.9-4.1l1.6-0.5l-0.5-1.6l-1.9-6.6L534,607.3
				L534,607.3z"/>
			<path fill="#01652F" d="M549.3,638.4l2.6,7.4l-6.1,2.1l-2.6-7.4L549.3,638.4 M550.3,636.2l-1.6,0.5l-6.1,2.1l-1.6,0.5l0.5,1.6
				l2.6,7.4l0.5,1.6l1.6-0.5l6.1-2.1l1.6-0.5l-0.6-1.6l-2.6-7.4L550.3,636.2L550.3,636.2z"/>
			<path fill="#01652F" d="M562,597.9c1.8,0,3.6,0.4,5.4,1.2c2.1,1,4.2,2.8,6.2,5.5l-5.3,4.5c-1.2-1.8-2.7-3-4.3-3.6
				c-0.7-0.3-1.5-0.4-2.2-0.4c-0.9,0-1.8,0.2-2.7,0.6c-2.3,1-3.7,2.8-4.2,5.4c-0.5,2.6,0.2,6.1,2.2,10.6c2.1,4.7,4.3,7.8,6.6,9.1
				c1.3,0.8,2.6,1.2,4,1.2c0.9,0,1.9-0.2,2.8-0.6c1.6-0.7,2.8-2,3.4-3.8c0.6-1.8,0.6-4.2-0.1-7.1l7-0.4c0.9,4.5,0.7,8.2-0.5,11.1
				s-3.5,5.1-6.8,6.6c-1.8,0.8-3.7,1.2-5.5,1.2c-2.2,0-4.5-0.6-6.8-1.8c-4.1-2.2-7.5-6.3-10.1-12.1c-2.8-6.2-3.6-11.6-2.5-16.2
				c1.1-4.6,3.8-7.9,8.1-9.8C558.3,598.3,560.2,597.9,562,597.9 M562,596.2c-2.1,0-4.2,0.5-6.3,1.4c-4.8,2.1-7.8,5.8-9,10.9
				c-1.2,5-0.3,10.8,2.6,17.3c2.8,6.2,6.4,10.5,10.9,12.9c2.5,1.3,5,2,7.6,2c2.1,0,4.2-0.5,6.2-1.4c3.7-1.6,6.2-4.2,7.7-7.5
				c1.4-3.2,1.6-7.3,0.6-12.1l-0.3-1.4l-1.4,0.1l-7,0.4l-2,0.1l0.5,2c0.6,2.6,0.7,4.7,0.2,6.2c-0.5,1.4-1.3,2.3-2.5,2.8
				c-0.7,0.3-1.4,0.5-2.1,0.5c-1,0-2-0.3-3.1-1c-2-1.2-4-4-5.9-8.4c-1.8-4.1-2.5-7.3-2.1-9.6c0.4-2.1,1.4-3.4,3.2-4.2
				c0.7-0.3,1.3-0.5,2-0.5c0.5,0,1.1,0.1,1.7,0.3c1.3,0.5,2.5,1.5,3.5,2.9l1.1,1.5l1.4-1.2l5.3-4.5l1.2-1l-1-1.3
				c-2.2-2.9-4.5-4.9-6.8-6C566.1,596.7,564.1,596.2,562,596.2L562,596.2z"/>
			<path fill="#01652F" d="M594.7,617l4,6.7l-5.5,3.3l-4-6.7L594.7,617 M595.3,614.7l-1.4,0.9l-5.5,3.3l-1.4,0.9l0.9,1.4l4,6.7
				l0.9,1.4l1.4-0.9l5.5-3.3l1.4-0.9l-0.9-1.4l-4-6.7L595.3,614.7L595.3,614.7z"/>
		</g>
		<g>
			<path fill="#FFFFFF" d="M225.3,619.8l3.1-6.2l13,6.5l-7.3,14.6c-2,0.9-4.5,1.3-7.5,1.2c-3-0.1-5.7-0.7-8.2-1.9
				c-3.1-1.6-5.5-3.7-7-6.5c-1.5-2.8-2.1-5.9-1.8-9.5c0.3-3.6,1.4-7.1,3.1-10.6c1.9-3.8,4.2-6.9,7-9.2c2.8-2.3,5.8-3.6,9.1-3.9
				c2.5-0.3,5.2,0.3,8.1,1.8c3.7,1.9,6.2,4.3,7.3,7.2c1.1,2.9,1.2,6.3,0.1,9.9l-6.7-1.6c0.5-2,0.4-3.8-0.3-5.4
				c-0.6-1.6-1.8-2.9-3.6-3.7c-2.6-1.3-5.3-1.3-7.8-0.1c-2.6,1.3-4.9,3.9-6.9,7.9c-2.2,4.3-3,8-2.5,10.9c0.5,3,2,5.1,4.6,6.4
				c1.3,0.6,2.7,1,4.3,1c1.6,0,3-0.2,4.4-0.6l2.3-4.6L225.3,619.8z"/>
			<path fill="#FFFFFF" d="M253.8,604.6l6.4,2.2l-7.1,21c-1.1,3.3-1.8,5.5-2,6.5c-0.3,1.7,0,3.2,0.7,4.5c0.7,1.3,2,2.3,3.7,2.9
				c1.8,0.6,3.3,0.6,4.6,0c1.2-0.6,2.2-1.5,2.8-2.8c0.6-1.3,1.5-3.4,2.5-6.5l7.3-21.4l6.4,2.2l-6.9,20.3c-1.6,4.6-2.9,7.9-3.9,9.7
				c-1,1.8-2.2,3.2-3.6,4.2c-1.4,1-3,1.6-4.8,1.9c-1.8,0.3-4,0-6.5-0.9c-3-1-5.2-2.2-6.5-3.6s-2.1-2.9-2.6-4.6
				c-0.4-1.7-0.6-3.3-0.3-4.9c0.3-2.4,1.2-5.7,2.7-10L253.8,604.6z"/>
			<path fill="#FFFFFF" d="M304.7,661.2l-7.2-1.6l-0.8-9.7l-13.1-3l-4.8,8.4l-7-1.6l21.9-36.9l7,1.6L304.7,661.2z M296.2,642.6
				l-1.1-15.8l-7.8,13.8L296.2,642.6z"/>
			<path fill="#FFFFFF" d="M310.4,662.1l5.8-40.4l6.5,0.9l9.7,29l3.9-27l6.2,0.9l-5.8,40.4l-6.7-1l-9.6-28.3l-3.8,26.4L310.4,662.1z
				"/>
			<path fill="#FFFFFF" d="M362.2,652.9l0.5-6.9l14.5,1l-1.1,16.2c-1.5,1.6-3.7,2.9-6.4,4c-2.8,1.1-5.5,1.5-8.3,1.3
				c-3.5-0.2-6.5-1.3-9-3.3c-2.5-2-4.3-4.7-5.3-8.1c-1.1-3.4-1.5-7.1-1.2-11c0.3-4.2,1.3-8,3-11.2c1.7-3.2,4-5.6,6.9-7.1
				c2.2-1.2,5-1.7,8.1-1.5c4.1,0.3,7.3,1.6,9.5,3.9c2.2,2.3,3.5,5.3,3.9,9.1l-6.8,1.1c-0.3-2-1.1-3.7-2.3-4.9
				c-1.2-1.2-2.8-1.9-4.7-2.1c-2.9-0.2-5.4,0.8-7.3,2.9c-1.9,2.2-3,5.5-3.3,10c-0.3,4.8,0.3,8.5,1.9,11.1c1.6,2.5,3.8,3.9,6.7,4.1
				c1.4,0.1,2.9-0.1,4.3-0.7c1.5-0.6,2.7-1.3,3.8-2.2l0.4-5.2L362.2,652.9z"/>
			<path fill="#FFFFFF" d="M380.6,669l0.1-7.4l17.8-26.3l-15.6-0.1l0.1-6.9l24.5,0.2l-0.1,6.4l-18.6,27.4l19.1,0.2l-0.1,6.9
				L380.6,669z"/>
			<path fill="#FFFFFF" d="M413.4,669.2l-1.9-40.8l6.8-0.3l0.7,16.1l13.2-0.6l-0.7-16.1l6.8-0.3l1.9,40.8l-6.8,0.3l-0.8-17.8
				l-13.2,0.6l0.8,17.8L413.4,669.2z"/>
			<path fill="#FFFFFF" d="M445.2,647.4c-0.5-4.1-0.4-7.7,0.3-10.6c0.5-2.2,1.3-4.1,2.5-5.9c1.1-1.8,2.4-3.2,3.9-4.2
				c1.9-1.3,4.3-2.1,7-2.4c4.9-0.6,9,0.8,12.4,4.2c3.4,3.4,5.4,8.4,6.2,15c0.8,6.6-0.1,11.8-2.6,15.9c-2.5,4-6.2,6.3-11.1,6.9
				c-4.9,0.6-9.1-0.8-12.4-4.2C448,658.8,445.9,653.9,445.2,647.4z M452.1,646.4c0.5,4.6,1.8,8,3.8,10.1c2,2.2,4.4,3.1,7,2.8
				c2.7-0.3,4.7-1.7,6.2-4.3c1.4-2.6,1.9-6.2,1.3-10.9c-0.5-4.7-1.8-8-3.7-10.1c-1.9-2.1-4.3-3-7.1-2.7c-2.8,0.3-4.9,1.7-6.3,4.3
				C452,638.1,451.5,641.7,452.1,646.4z"/>
			<path fill="#FFFFFF" d="M479,622.5l6.6-1.3l4.3,21.7c0.7,3.4,1.2,5.7,1.6,6.6c0.6,1.6,1.6,2.8,2.8,3.5c1.3,0.8,2.8,1,4.7,0.6
				c1.9-0.4,3.2-1.1,4-2.3c0.8-1.1,1.1-2.4,1-3.8c-0.1-1.4-0.4-3.7-1.1-6.9l-4.4-22.2l6.6-1.3l4.2,21c1,4.8,1.5,8.2,1.5,10.3
				c0,2.1-0.3,3.9-1,5.4c-0.7,1.6-1.8,2.9-3.2,4c-1.5,1.1-3.5,2-6.1,2.5c-3.1,0.6-5.6,0.7-7.4,0.1c-1.8-0.6-3.3-1.5-4.5-2.7
				c-1.2-1.2-2.1-2.6-2.7-4.1c-0.9-2.2-1.8-5.6-2.7-10L479,622.5z"/>
			<path fill="#FFFFFF" d="M522.3,655l-11.4-39.2l22-6.4l1.9,6.6l-15.6,4.5l2.7,9.3l13.4-3.9l1.9,6.6l-13.4,3.9l4.9,16.7L522.3,655z
				"/>
			<path fill="#FFFFFF" d="M545.8,647.9l-2.6-7.4l6.1-2.1l2.6,7.4L545.8,647.9z"/>
			<path fill="#FFFFFF" d="M573.6,620.5l7-0.4c0.9,4.5,0.7,8.2-0.5,11.1s-3.5,5.1-6.8,6.6c-4.1,1.8-8.2,1.6-12.3-0.6
				c-4.1-2.2-7.5-6.3-10.1-12.1c-2.8-6.2-3.6-11.6-2.5-16.2c1.1-4.6,3.8-7.9,8.1-9.8c3.7-1.7,7.4-1.7,10.9,0c2.1,1,4.2,2.8,6.2,5.5
				l-5.3,4.5c-1.2-1.8-2.7-3-4.3-3.6c-1.6-0.6-3.3-0.5-4.9,0.2c-2.3,1-3.7,2.8-4.2,5.4c-0.5,2.6,0.2,6.1,2.2,10.6
				c2.1,4.7,4.3,7.8,6.6,9.1c2.3,1.4,4.5,1.6,6.8,0.6c1.6-0.7,2.8-2,3.4-3.8C574.4,625.8,574.3,623.5,573.6,620.5z"/>
			<path fill="#FFFFFF" d="M593.2,627l-4-6.7l5.5-3.3l4,6.7L593.2,627z"/>
		</g>
	</g>
</g>
<g>
</g>
<g>
</g>
<g>
</g>
<g>
</g>
<g>
</g>
<g>
</g>
<g>
</g>
<g>
</g>
<g>
</g>
<g>
</g>
<g>
</g>
</svg>
