<!-- Created by @FCLOGO 2022-02-27 17:25:37 . https://fclogo.top/ -->
<!-- FOR PERSONAL USE ONLY NOT FOR COMMERCIAL USE -->
<svg version="1.1" xmlns="http://www.w3.org/2000/svg" xmlns:xlink="http://www.w3.org/1999/xlink" x="0px" y="0px"
	 viewBox="0 0 800 800" enable-background="new 0 0 800 800" xml:space="preserve">
<g>
	<path fill="#004EA2" d="M365.7,287.9c-3.3,0-6.3,1.2-8.7,3.7c-2.8,2.7-4.3,6.1-4.6,10.2c-0.2,3.2,0.5,5.6,1.9,7.3
		c1.6,1.8,3.7,2.6,6.6,2.6c2.3,0,4.4-0.7,6.5-2c1.9-1.4,3.5-3.3,4.7-6l-3-0.5c-0.7,1.9-1.8,3.4-3.2,4.4c-1.4,1-2.9,1.5-4.4,1.5
		c-1.9,0-3.4-0.6-4.4-1.8c-1.1-1.2-1.6-3-1.4-5.4c0.2-3,1.2-5.5,2.9-7.7c1.9-2.5,4.3-3.7,7.2-3.7c1.6,0,2.8,0.4,3.6,1.2
		c0.9,0.8,1.5,2,1.7,3.7l2.9-0.3c0-2.1-0.8-3.9-2.2-5.2S368.1,287.9,365.7,287.9z"/>
	<polygon fill="#004EA2" points="380.3,288.4 373.6,311.3 376.7,311.3 379.8,300.5 391.9,300.5 388.8,311.3 391.9,311.3 
		398.6,288.4 395.4,288.4 392.6,297.9 380.6,297.9 383.3,288.4 	"/>
	<polygon fill="#004EA2" points="407.2,288.4 404.2,288.4 397.6,311.3 400.6,311.3 	"/>
	<path fill="#004EA2" d="M431.1,288.4h-3l-3.9,13.4c-0.6,2.1-1.1,4.1-1.6,6c-0.4-1.8-0.7-3.1-1-4.3c-0.6-1.8-1.4-4-2.3-6.6l-3.3-8.6
		h-3l-6.7,22.9v0h3l4.1-14c0.6-2.2,1.1-4,1.4-5.5c0.4,1.8,1,3.8,1.8,6.1l4.8,13.3h3L431.1,288.4z"/>
	<path fill="#004EA2" d="M448.3,311.3l-2-22.9h-3.7l-15,22.9h3.4l4.3-6.7h9.4l0.6,6.7H448.3z M436.7,302.3l4.3-6.8
		c1.2-1.8,2-3.3,2.7-4.6c0,1.5,0.1,3.4,0.3,5.6l0.5,5.8H436.7z"/>
	<path fill="#004EA2" d="M313.9,341.2c-1.4,1-3,1.6-4.5,1.6c-1.8,0-3.4-0.6-4.4-1.8c-1.1-1.3-1.6-3.1-1.4-5.5c0.3-3,1.2-5.6,2.9-7.8
		c2-2.5,4.3-3.8,7.2-3.8c1.6,0,2.8,0.4,3.6,1.2c0.9,0.8,1.5,2.1,1.7,3.8l3-0.3c-0.1-2.2-0.8-4-2.3-5.3c-1.4-1.4-3.3-2-5.8-2
		c-3.3,0-6.2,1.2-8.7,3.7c-2.7,2.7-4.3,6.2-4.5,10.4c-0.3,3.2,0.4,5.6,1.9,7.4c1.5,1.8,3.7,2.6,6.5,2.6c2.3,0,4.5-0.7,6.5-2
		c1.9-1.4,3.5-3.4,4.7-6.1l-3-0.5C316.3,338.7,315.2,340.2,313.9,341.2z"/>
	<polygon fill="#004EA2" points="340.7,331.4 328.7,331.4 331.4,321.7 328.4,321.7 321.7,345 324.9,345 328,334 340,334 336.9,345 
		340,345 346.7,321.7 343.5,321.7 	"/>
	<path fill="#004EA2" d="M360.9,321.4c-3.4,0-6.4,1.3-9,3.9c-2.6,2.5-4.1,5.9-4.3,10c-0.2,1.8,0.1,3.5,0.7,5.1
		c0.6,1.6,1.8,2.9,3.2,3.7c1.5,0.9,3.1,1.4,5,1.4c1.8,0,3.5-0.4,5.1-1.1c1.3-0.6,2.5-1.4,3.6-2.5c1.1-1,2.1-2.3,2.9-3.7
		c1.1-1.9,1.7-4.1,1.8-6.3c0.3-3.2-0.5-5.7-2.1-7.6C366.2,322.3,363.8,321.4,360.9,321.4z M366.9,331.5c-0.1,1.5-0.5,2.9-1.1,4.3
		c-0.6,1.5-1.3,2.8-2.3,3.7c-0.9,1-1.9,1.8-3,2.4c-1.1,0.6-2.3,0.8-3.4,0.8c-1.3,0-2.4-0.3-3.5-0.9c-1.1-0.6-1.8-1.6-2.3-2.7
		c-0.5-1.2-0.6-2.4-0.6-3.8c0.3-3.5,1.4-6.3,3.4-8.3c2-2.1,4.3-3.1,6.7-3.1c1.9,0,3.5,0.6,4.7,2
		C366.5,327.4,367.1,329.2,366.9,331.5z"/>
	<path fill="#004EA2" d="M388.6,335.4c-0.6,2.1-1.1,4.1-1.6,6.1c-0.4-1.8-0.7-3.2-1-4.3c-0.6-1.8-1.4-4.1-2.4-6.7l-3.2-8.8h-3
		l-6.7,23.3h3.1l4.1-14.1c0.6-2.2,1.1-4.1,1.4-5.5c0.4,1.8,1,3.9,1.8,6.3l4.8,13.4h3l6.7-23.3h-3L388.6,335.4z"/>
	<path fill="#004EA2" d="M401.4,329.5c1-1.8,2.3-3.2,3.8-4.2c1.6-0.9,3.1-1.4,4.9-1.4c1.6,0,2.9,0.5,3.9,1.3c0.9,0.8,1.5,2,1.8,3.7
		l3-0.4c-0.2-1.6-0.6-3-1.2-3.9c-0.6-1-1.6-1.9-2.9-2.4c-1.3-0.6-2.7-0.9-4.3-0.9c-2.3,0-4.4,0.6-6.4,1.7c-2,1.1-3.6,2.8-5,5.1
		c-1.4,2.2-2.2,4.8-2.5,7.6c-0.2,2.7,0.4,4.9,1.7,6.7c1.5,2,3.9,3,7.3,3c1.6,0,3.1-0.3,4.9-0.7c1.7-0.6,3.1-1.2,4.5-2l2.7-9.4h-10.2
		l-0.8,2.7v0h7.1l-1.4,5c-2.5,1.3-4.7,1.9-6.7,1.9s-3.5-0.6-4.5-1.8c-1.1-1.2-1.5-3-1.3-5.3C399.9,333.4,400.4,331.3,401.4,329.5z"
		/>
	<path fill="#004EA2" d="M435,321.4c-1.8,0-3.7,0.4-5.4,1.2c-1.3,0.6-2.5,1.5-3.6,2.6c-1.1,1.1-2,2.4-2.8,3.9
		c-0.9,1.9-1.5,3.8-1.7,5.8c-0.1,1.7,0.1,3.1,0.5,4.5c0.5,1.4,1.1,2.5,1.9,3.4c0.8,0.8,1.9,1.6,3.2,1.9c1.4,0.5,2.6,0.6,3.7,0.6
		c1.5,0,3-0.4,4.6-1.1c1,1.3,2.2,2.4,3.6,3.3l1.5-1.8c-1.3-0.8-2.2-1.8-3-2.7c1.8-1.3,3.2-2.9,4.4-4.9c1.1-1.9,1.8-4.1,1.9-6.4
		c0.2-3.2-0.5-5.7-2.2-7.6C440.2,322.3,437.9,321.4,435,321.4z M440.9,331.6c-0.1,1.8-0.6,3.7-1.6,5.5c-0.9,1.7-2,3-3.4,4.1
		c-0.7-0.8-1.4-1.5-1.9-1.8c-0.5-0.4-1.1-0.7-1.8-1l-1.3,1.8c1,0.6,1.9,1.3,2.9,2.1c-1,0.4-2,0.6-3.1,0.6c-1.5,0-2.8-0.6-4-1.7
		c-1.6-1.4-2.2-3.4-2-6c0.2-2.1,0.7-4.1,1.8-5.8c1-1.8,2.3-3,3.8-4c1.6-0.9,3-1.4,4.6-1.4c1.9,0,3.4,0.7,4.6,2
		C440.6,327.4,441.1,329.2,440.9,331.6z"/>
	<polygon fill="#004EA2" points="451.6,321.7 445,345 448.1,345 454.8,321.7 	"/>
	<path fill="#004EA2" d="M471.7,335.4c-0.6,2.1-1.1,4.1-1.6,6.1c-0.4-1.8-0.7-3.2-1.1-4.3c-0.6-1.8-1.3-4.1-2.3-6.7l-3.2-8.8h-3
		l-6.7,23.3h3l4.1-14.1c0.6-2.2,1-4.1,1.3-5.5c0.5,1.8,1.1,3.9,1.9,6.3l4.8,13.4h3l6.7-23.3h-3L471.7,335.4z"/>
	<path fill="#004EA2" d="M484.5,329.5c1-1.8,2.3-3.2,3.8-4.2c1.6-0.9,3.1-1.4,4.8-1.4s3,0.5,3.9,1.3c1,0.8,1.6,2,1.8,3.7l3.1-0.4
		c-0.2-1.6-0.6-3-1.2-3.9c-0.6-1-1.6-1.9-2.9-2.4c-1.3-0.6-2.8-0.9-4.3-0.9c-2.3,0-4.4,0.6-6.5,1.7c-1.9,1.1-3.6,2.8-5,5.1
		c-1.5,2.2-2.2,4.8-2.5,7.6c-0.2,2.7,0.4,4.9,1.7,6.7c1.5,2,4,3,7.3,3c1.7,0,3.2-0.3,4.9-0.7c1.8-0.6,3.2-1.2,4.5-2l2.8-9.4h-10.3
		l-0.7,2.7v0h7.1l-1.5,5c-2.4,1.3-4.6,1.9-6.7,1.9c-2,0-3.6-0.6-4.6-1.8c-1.1-1.2-1.5-3-1.4-5.3
		C482.9,333.4,483.5,331.3,484.5,329.5z"/>
	<path fill="#004EA2" d="M300.4,204.8l0.1,1.5l0.1,1.5l0.2,1.5l0.2,1.5l0.2,1.5l0.3,1.4l0.3,1.4l0.3,1.4l0.4,1.4l0.4,1.4l0.4,1.4
		l0.5,1.4l0.5,1.3l0.5,1.3l0.6,1.3l0.6,1.3l0.7,1.3l0.4,0.3l0.1,0.3l0.1,0.3l0.1,0.3l0.1,0.2l0.3,0.5l0.3,0.4l0.2,0.2l0.1,0.2
		l0.1,0.2l0.1,0.2l0.1,0.2l0.1,0.2l0,0.2l0,0.3l0.2,0.1l0.2,0.1l0.1,0.1l0.1,0.1l0.1,0.1l0.1,0.1l0.1,0.1l0.1,0.1l0.1,0.3l0.1,0.2
		l0.1,0.1l0.1,0.1l0.1,0.1l0.1,0.1l0.3,0.4l0.3,0.4l0.3,0.4l0.2,0.4l0.2,0.4l0.2,0.4l0.2,0.4l0.2,0.4l0.3,0.2l0.3,0.2l0.2,0.2
		l0.2,0.2l0.2,0.2l0.2,0.2l0.2,0.2l0.1,0.2l0.3,0.4l0.3,0.4l0.2,0.2l0.2,0.2l0.2,0.2l0.3,0.2l0.1,0.3l0.2,0.2l0.2,0.2l0.2,0.2
		l0.4,0.4l0.4,0.4l0.4,0.4l0.4,0.3l0.2,0.2l0.1,0.2l0.1,0.2l0.1,0.2l0.7,0.7l0.7,0.7l0.8,0.7l0.8,0.7l0.8,0.7l0.8,0.7l0.8,0.7
		l0.8,0.7l0.8,0.7l0.8,0.7l0.8,0.6l0.8,0.6l0.8,0.6l0.8,0.6l0.8,0.6l0.8,0.6l0.8,0.6l0.8,0.6l0.8,0.6l0.8,0.5l1.7,1.1l1.7,1.1l1.7,1
		l1.7,1l1.7,1l1.7,1l0.4,0.1l0.4,0.1l0.4,0.1l0.4,0.1l0.4,0.2l0.4,0.2l0.4,0.2l0.3,0.2l0.7,0.4l0.7,0.4l0.7,0.4l0.7,0.4l0.3,0l0.3,0
		l0.3,0.1l0.3,0.1l0.3,0.1l0.3,0.1l0.3,0.1l0.3,0.1l0.6,0.3l0.5,0.3l0.5,0.3l0.5,0.3l2,0.7l2,0.7l2,0.6l2,0.6l2,0.6l2,0.5l2.1,0.5
		l2.1,0.5l2.1,0.4l2.1,0.4l2.1,0.4l2.1,0.4l2.1,0.3l2.2,0.3l2.2,0.3l2.2,0.3l1.4,0.1l1.4,0.1l1.4,0.1l1.4,0.1l1.4,0.1l1.4,0.1
		l1.4,0.1l1.4,0l1.4,0h1.4l1.4,0l1.4,0l1.4,0l1.4-0.1l1.4-0.1l1.4-0.1l1.4-0.1l1.4-0.1l1.4-0.1l1.4-0.1l1.4-0.2l1.4-0.2l1.4-0.2
		l1.3-0.2l1.4-0.2l1.3-0.2l1.3-0.2l1.3-0.2l1.3-0.2l1.3-0.3l1.3-0.3l1.3-0.3l0.3-0.2l0.3-0.2l0.3-0.1l0.3-0.1l0.3-0.1l0.3-0.1
		l0.3-0.1l0.3-0.1l0.3-0.1l0.3-0.1l0.3-0.1l0.3-0.1l0.3-0.1l0.3-0.1l0.3-0.2l0.3-0.2l0.2,0l0.2,0l0.2,0l0.2-0.1l0.4-0.1l0.4-0.2
		l0.4-0.2l0.4-0.2l0.4-0.2l0.4-0.2l0.5-0.1l0.5-0.1l0.5-0.1l0.5-0.2l0.5-0.2l0.5-0.2l0.5-0.2l0.5-0.2l1.2-0.3l1.2-0.3l1.2-0.4
		l1.2-0.4l1.2-0.4l1.1-0.4l1.1-0.4l1.1-0.5l1.1-0.5l1.1-0.5l1.1-0.5l1.1-0.5l1.1-0.5l1.1-0.5l1.1-0.5l1.1-0.5l0.7-0.7l0.3-0.1
		l0.3-0.1l0.2-0.1l0.3-0.1l0.5-0.3l0.5-0.3l0.5-0.3l0.5-0.3l0.3-0.1l0.2-0.1l0.3-0.1l0.3-0.1l0.3-0.3l0.3-0.3l0.3-0.3l0.4-0.2
		l0.7-0.4l0.7-0.4l0.7-0.4l0.7-0.4l0.3-0.2l0.4-0.3l0.3-0.3l0.3-0.3l0.2,0l0.2,0l0.2-0.1l0.2-0.1l0.1-0.1l0.1-0.1l0.1-0.1l0.1-0.1
		l0.2-0.3l0.2-0.2l0.1-0.1l0.1-0.1l0.1,0l0.1,0l0.2-0.2l0.2-0.2l0.2-0.2l0.2-0.2l0.4-0.3l0.4-0.3l0.2-0.1l0.2-0.1l0.2-0.1l0.2-0.2
		l0.2-0.2l0.2-0.2l0.2-0.2l0.1-0.2l0.3-0.1l0.3-0.2l0.3-0.2l0.3-0.2l0.3-0.2l0.3-0.2l0.2-0.2l0.2-0.2l0.2-0.2l0.2-0.2l0.2-0.2
		l0.2-0.2l0.4-0.5l0.4-0.5h0.4l0.8-0.7l0.8-0.7l0.8-0.7l0.7-0.7l0.7-0.7l0.7-0.8l0.7-0.8l0.7-0.8l0.7-0.8l0.7-0.8l0.6-0.8l0.6-0.8
		l0.6-0.8l0.6-0.8l0.6-0.8l0.5-0.8l0.5-0.8l0.5-0.8l0.5-0.9l0.5-0.8l0.5-0.9l0.5-0.9l0.4-0.9l0.4-0.9l0.4-0.9l0.4-0.9l0.4-0.9
		l0.3-0.9l0.3-0.9l0.3-0.9l0.3-0.9l0.3-0.9l0.4-1.5l0.4-1.5l0.4-1.5l0.3-1.5l0.3-1.5l0.2-1.5l0.2-1.5l0.2-1.5l0.1-1.5l0.1-1.5
		l0.1-1.5v-1.5l0-1.5l-0.1-1.5l-0.1-1.5l-0.1-1.5l-0.2-1.5l-0.2-1.5l-0.3-1.5l-0.3-1.5l-0.3-1.5l-0.4-1.5l-0.4-1.4l-0.4-1.4
		l-0.5-1.4l-0.5-1.4l-0.5-1.4l-0.6-1.3l-0.6-1.3l-0.7-1.3l-0.7-1.3l-0.7-1.2l-0.7-0.7l-0.3-0.6l-0.3-0.6l-0.2-0.3l-0.2-0.3l-0.1-0.1
		l-0.1-0.1l-0.1-0.1l-0.1-0.1l-0.1-0.4l-0.2-0.4l-0.2-0.4l-0.2-0.4l-0.2-0.3l-0.2-0.3l-0.2-0.3l-0.2-0.3l-0.2-0.2l-0.2-0.2l-0.2-0.2
		l-0.2-0.2l-0.3-0.4l-0.3-0.4l-0.3-0.4l-0.3-0.4l-0.2-0.2l-0.2-0.2l-0.2-0.2l-0.3-0.2v-0.1l0-0.1l0-0.1l0-0.1l-0.1-0.2l-0.1-0.2
		l-0.3-0.3l-0.3-0.3l-0.2-0.2l-0.2-0.2l-0.2-0.2l-0.1-0.2l-0.1-0.2l-0.1-0.2l0-0.1l0-0.1l0-0.1l0-0.1l-7.8-7.2l-0.6-0.4l-0.6-0.4
		l-0.6-0.4l-0.6-0.4l-0.6-0.4l-0.6-0.4l-0.6-0.4l-0.6-0.4l-0.3-0.3l-0.3-0.2l-0.3-0.2l-0.3-0.2l-0.5-0.4l-0.5-0.4l-0.5-0.4l-0.5-0.3
		l-0.5-0.3l-0.5-0.4l-0.3-0.1l-0.3-0.2l-0.3-0.2l-0.3-0.2l-0.5-0.4l-0.5-0.4l-0.3-0.2l-0.3-0.2l-0.3-0.2l-0.3-0.2l-0.3-0.2l-0.3-0.1
		l-0.3-0.1l-0.3-0.1l-1-0.6l-1-0.5l-1-0.6l-1-0.5l-1-0.5l-1-0.5l-1-0.5l-1-0.5l-1-0.5l-1-0.5l-1-0.5l-1-0.4l-1-0.4l-1-0.4l-1-0.4
		l-1-0.4l-1-0.4l-1-0.4l-1.1-0.4l-1.1-0.4l-2.1-0.7l-2.2-0.7l-2.2-0.7l-2.2-0.7l-2.2-0.6l-2.2-0.6h-0.4l-0.4,0l-0.5,0l-0.5-0.1
		l-0.2,0l-0.2-0.1l-0.2-0.1l-0.2-0.1l-0.2-0.1l-0.2-0.1l-0.2-0.1L428,131l-0.9-0.1l-0.9-0.1l-0.9-0.1l-0.9-0.1l-0.9-0.1l-0.9-0.1
		l-0.9-0.1l-0.9-0.1l-1.3-0.2l-1.4-0.2l-1.4-0.2l-1.4-0.1l-1.4-0.1l-1.4-0.1l-1.4-0.1l-1.4-0.1l-1.4-0.1l-1.4-0.1l-1.4,0l-1.4,0
		h-1.4h-1.4l-1.4,0l-1.4,0l-1.4,0.1l-1.4,0.1l-1.4,0.1l-1.4,0.1l-1.4,0.1l-1.4,0.1l-1.4,0.1l-1.4,0.2l-1.4,0.2l-1.4,0.2l-1.4,0.2
		l-1.4,0.2l-1.3,0.2l-1.3,0.3l-1.3,0.3l-1.3,0.3l-0.1,0.1l-0.1,0l-0.2,0h-0.2l-0.3,0l-0.3,0l-0.2,0l-0.1,0l-0.1,0l-0.1,0l-0.1,0
		l-0.1,0.1l-0.1,0.1l-0.1,0.1l-1.4,0.3l-1.4,0.3l-1.4,0.3l-1.4,0.4l-1.4,0.4l-1.4,0.4l-1.4,0.4l-1.4,0.4l-1.4,0.4l-1.3,0.4l-1.4,0.5
		l-1.3,0.5l-1.3,0.5l-1.3,0.5l-1.3,0.5l-1.3,0.6l-0.5,0l-0.4-0.1h-0.1l-0.1,0l-0.1,0l-0.1,0l-0.1,0.1l-0.1,0.1l-0.1,0.1l-0.1,0.1
		l-1.1,0.4l-1.1,0.4l-1.1,0.4l-1.1,0.5l-1.1,0.5l-1.1,0.5l-1.1,0.5l-1.1,0.5l-0.4,0.3l-0.4,0.2l-0.5,0.2l-0.5,0.2l-0.5,0.2l-0.5,0.3
		l-0.2,0.2l-0.2,0.2l-0.2,0.2l-0.2,0.2l-0.3,0.1l-0.3,0.1l-0.2,0.1l-0.2,0.1l-0.5,0.2l-0.5,0.3l-0.5,0.3l-0.5,0.2l-0.2,0.1l-0.3,0.1
		l-0.3,0.1l-0.3,0.1l-0.1,0.2l-0.2,0.2l-0.2,0.2l-0.2,0.1l-0.4,0.3l-0.4,0.3l-0.4,0.3l-0.4,0.3l-0.2,0.2l-0.2,0.2l-0.2,0.2l-0.2,0.2
		l-0.4,0.1l-0.4,0.2l-0.4,0.2l-0.4,0.2l-0.4,0.2l-0.4,0.3l-0.4,0.2l-0.4,0.3l-0.1,0.2l-0.2,0.2l-0.2,0.2l-0.2,0.2l-0.4,0.3l-0.4,0.3
		l-0.4,0.3l-0.4,0.3l-0.2,0.2l-0.2,0.2l-0.2,0.2l-0.2,0.2l-0.2,0.1l-0.2,0.1l-0.2,0.1l-0.2,0.1l-0.3,0.3l-0.4,0.3l-0.2,0.2l-0.2,0.2
		l-0.2,0.2l-0.2,0.1l-0.2,0.1l-0.2,0.1l-0.2,0.1l-0.3,0.1l-0.8,0.8l-0.8,0.8l-0.8,0.8l-0.8,0.8l-0.8,0.8l-0.8,0.8l-0.7,0.8l-0.7,0.8
		l-0.7,0.8l-0.7,0.8l-0.7,0.8l-0.7,0.8l-0.7,0.8l-0.7,0.9l-0.6,0.9l-0.6,0.9l-0.6,0.9l-0.6,0.9l-0.6,0.9l-0.5,0.9L308,173l-0.5,0.9
		l-0.5,0.9l-0.5,0.9l-0.5,0.9l-0.4,0.9l-0.4,0.9l-0.4,0.9l-0.4,0.9l-0.4,0.9l-0.4,0.9l-0.3,0.9l-0.4,1.4l-0.4,1.4l-0.4,1.4l-0.3,1.4
		l-0.3,1.4l-0.3,1.4l-0.2,1.4l-0.2,1.5l-0.2,1.5l-0.1,1.5l-0.1,1.5l-0.1,1.5v1.5l0,1.5L300.4,204.8z M314.3,201.9l0-0.9l0-0.9
		l0.1-0.9l0.1-0.9l0.1-0.9l0.1-0.9l0.1-0.9l0.1-0.9l0.1-0.9l0.1-0.9l0.2-0.9l0.2-0.9l0.2-0.9l0.2-0.9l0.4-1.7l0.4-1.7l0.4-1.7
		l0.5-1.6l0.1-0.2l0.1-0.2l0.1-0.2l0.1-0.2l0.2-0.4l0.2-0.4l0.1-0.2l0.1-0.2l0.1-0.2l0.1-0.2l0.1-0.2l0.2-0.2l0.2-0.2l0.2-0.2
		l0.3-0.8l0.3-0.8l0.3-0.7l0.3-0.7l0.4-0.7l0.4-0.7l0.4-0.7l0.4-0.7l0.8-1.4l0.8-1.4l0.8-1.4l0.8-1.4l0.3-0.1l0.2-0.1l0.2-0.2
		l0.2-0.2l0.1-0.2l0.1-0.2l0.1-0.2l0.1-0.2l0.1-0.2l0.1-0.2l0.1-0.2l0.1-0.2l0.2-0.2l0.2-0.1l0.2-0.1l0.2-0.1l0-0.2l0.1-0.2l0.1-0.2
		l0.1-0.2l0.1-0.1l0.1-0.1l0.1-0.1l0.1-0.1l0.1-0.1l0.1-0.1l0.1-0.1l0.1-0.1l0.1-0.2l0.1-0.2l0.1-0.2l0-0.2l0.5-0.4l0.5-0.4l0.5-0.4
		l0.4-0.4l0.8-0.9l0.8-0.9l0.4-0.4l0.4-0.4l0.4-0.4l0.4-0.4l0.2-0.2l0.2-0.2l0.2-0.2l0.2-0.2l0.2-0.2l0.3-0.2l0.2-0.1l0.3-0.1
		l0.3-0.4l0.3-0.4l0.3-0.3l0.3-0.3l0.3-0.3l0.3-0.3l0.3-0.3l0.3-0.2l0.6-0.5l0.7-0.5l0.3-0.3l0.3-0.3l0.3-0.3l0.3-0.3l0.4-0.3
		l0.4-0.3l0.4-0.3l0.4-0.3l0.4-0.3l0.4-0.3l0.4-0.3l0.4-0.3l0.1-0.2l0.1-0.2l0.2-0.1l0.2-0.1l0.2-0.1l0.2-0.1l0.2-0.1l0.2-0.1
		l0.3-0.2l0.3-0.2l0.2-0.1l0.2-0.1l0.2-0.1l0.1-0.1l0.3-0.2l0.3-0.2l0.3-0.2l0.3-0.2l0.5-0.3l0.5-0.3l0.9-0.6l0.9-0.6l0.9-0.5
		l0.9-0.5l0.9-0.5l0.9-0.5l0.9-0.5l0.9-0.5l0.9-0.5l1-0.5l1-0.4l1-0.4l1-0.4l1-0.4l1-0.4l1-0.4l0.9-0.3l0.9-0.3l0.9-0.3l0.9-0.3
		l0.9-0.3l0.9-0.3l0.9-0.3l0.9-0.3l0.3-0.1l0.3-0.1l0.3-0.1l0.3-0.1l0.7-0.2l0.7-0.1l0.7-0.1l0.7-0.2l0.3-0.1l0.3-0.1l0.3-0.1
		l0.3-0.1l1-0.2l1-0.2l1-0.2l1-0.2l1-0.2l1-0.2l1-0.1l1-0.2l1-0.1l1-0.1l1-0.1l1.1-0.1l1.1-0.1l1.1-0.1l1.1-0.1l1.1-0.1l1.1-0.1
		l1.1,0l1.1,0l1.1,0l2.2,0h2.2l2.2,0l2.2,0.1l2.2,0.1l2.2,0.1l1.7,0.1l1.7,0.2l1.7,0.2l1.7,0.2l1.6,0.3l1.6,0.3l1.6,0.3l1.6,0.3
		l1.6,0.4l1.6,0.4l1.6,0.4l1.6,0.4l1.6,0.4l1.6,0.5l1.5,0.5l1.5,0.5l0.9,0.3l0.9,0.3l0.9,0.3l0.9,0.4l0.9,0.4l0.9,0.4l0.9,0.4
		l0.9,0.4l0.9,0.4l0.9,0.4l0.9,0.4l0.9,0.4l0.9,0.5l0.9,0.5l0.9,0.5l0.9,0.5l0.8,0.4l0.8,0.4l0.8,0.4l0.8,0.5l0.8,0.5l0.8,0.5
		l0.8,0.5l0.8,0.5l0.7,0.5l0.7,0.5l0.8,0.6l0.7,0.6l0.7,0.6l0.7,0.6l0.7,0.6l0.7,0.6h0.3l0.6,0.5l0.6,0.5l0.7,0.6l0.7,0.6l0.3,0.3
		l0.3,0.3l0.3,0.3l0.3,0.3l0.2,0.3l0.2,0.3l0.2,0.3l0.2,0.3h-13.5l-2.1,4.2l-2.1,4.2l-2.1,4.2l-2.1,4.2l-2.1,4.2l-2.1,4.2l-2.1,4.2
		l-2.1,4.2l-2.1,4.2l-2.1,4.2l-2.1,4.2l-2.1,4.2l-2.1,4.2l-2.1,4.2l-2.1,4.2l-2.1,4.2l0.4,0.3h31.6l0.3-0.4l0.3-0.3l0.2-0.3l0.2-0.4
		l0.2-0.4l0.2-0.4l0.1-0.2l0.1-0.2l0.1-0.2l0.1-0.3l0.3-0.4l0.3-0.4l0.3-0.5l0.2-0.5l0.2-0.5l0.2-0.5l0.2-0.5l0.2-0.5l-27.4-0.3
		l0.1-0.1l0-0.1l0.1-0.1l0.1-0.1l0.1-0.1l0.1-0.1l0.1-0.1l0.1-0.1l0.2-0.1l0.2-0.1l0.2-0.1l0.2-0.1l0.5-0.1l0.5-0.1l0.2-0.1l0.2-0.1
		l0.2-0.1l0.2-0.1l0.5-0.3l0.5-0.2l0.5-0.2l0.5-0.2l0.9-0.4l0.9-0.4l0.9-0.4l0.9-0.4l0.5-0.2l0.5-0.2l0.5-0.2l0.5-0.2l0-0.1l0.1-0.1
		l0.1-0.1l0.1-0.1l0.1-0.1l0.1-0.1l0.2-0.1l0.2-0.1l0.2-0.1l0.2,0l0.2,0l0.2-0.1l0.2,0l0.1-0.1l0.1-0.1l0.1-0.1l0.1-0.1l0.1-0.1
		l0-0.1l0-0.1l0.3-0.1l0.3-0.1l0.3-0.1l0.3-0.2l0.3-0.2l0.3-0.2l0.3-0.2l0.3-0.2l0.3-0.2l0.3-0.2l0.3-0.2l0.3-0.2l0.3-0.2l0.3-0.1
		l0.3-0.1l0.3-0.1l0.4-0.3l0.4-0.3l0.4-0.3l0.4-0.3l0.4-0.3l0.4-0.2l0.2-0.1l0.2-0.1l0.2-0.1l0.2-0.1l0.6-0.5l0.6-0.5l0.6-0.5
		l0.6-0.6l1.2-1.2l1.2-1.2l1.2-1.2l1.2-1.2l0.6-0.5l0.6-0.5l0.6-0.5l0.6-0.5l0-0.2l0.1-0.2l0.1-0.2l0.1-0.2l0.1-0.2l0.1-0.2l0.1-0.2
		l0.1-0.2l0.3-0.3l0.3-0.3l0.1-0.2l0.1-0.2l0.1-0.2l0.1-0.2l0.2-0.1l0.2-0.1l0.2-0.2l0.1-0.2l0.2-0.3l0.2-0.3l0.2-0.3l0.2-0.3
		l0.1-0.1l0.1-0.2l0.2-0.1l0.2-0.1l0.3-0.4l0.2-0.3l0.2-0.3l0.2-0.3l0.2-0.3l0.2-0.3l0.2-0.3l0.2-0.4l0.7-1.4l0.7-1.4l0.7-1.4
		l0.7-1.4l0.7-1.4l0.7-1.4l0.7-1.4l0.7-1.4l0.7-1.4l0.7-1.4l0.7-1.4l0.7-1.4l0.7-1.4l0.7-1.4l0.7-1.4l0.7-1.4l0.1,0l0.1,0l0.1-0.1
		l0.1-0.1l0.1-0.1l0.1-0.1l0.1,0l0.1,0l0.2,0.3l0.2,0.3l0.2,0.3l0.2,0.3l0.3,0.5l0.3,0.5l0.7,1.2l0.7,1.1l0.7,1.1l0.6,1.1l0.6,1.1
		l0.6,1.1l0.3,0.6l0.3,0.6l0.3,0.6l0.3,0.6l0.7,1.6l0.6,1.6l0.5,1.7l0.5,1.7l0.4,1.7l0.4,1.7l0.3,1.8l0.3,1.8l0.2,1.8l0.2,1.8
		l0.1,1.8l0.1,1.8v1.8l-0.1,1.8l-0.1,1.8L487,208l-0.2,1.8l-0.3,1.8l-0.3,1.8l-0.4,1.8l-0.4,1.7l-0.5,1.7l-0.5,1.7l-0.6,1.7
		l-0.6,1.6l-0.7,1.6l-0.7,1.6l-0.8,1.6l-0.8,1.5l-0.9,1.5l-0.9,1.4l-1,1.4l-0.2,0.2l-0.2,0.2l-0.2,0.2l-0.2,0.2l-0.3,0.4l-0.3,0.4
		l-0.2,0.2l-0.2,0.2l-0.2,0.2l-0.2,0.2l-0.2,0.2l-0.2,0.2l-0.2,0.2l-0.2,0.2l0,0.1l0,0.1l0,0.1l-0.1,0.1l-0.1,0.1l-0.1,0.1l-0.1,0.1
		l-0.1,0.1l-0.2,0.2l-0.2,0.2l-0.1,0.1l-0.1,0.1l-0.1,0.1l0,0.1l-0.5,0.7l-0.5,0.7l-0.6,0.7l-0.6,0.7l-0.6,0.7l-0.6,0.6l-0.6,0.6
		l-0.6,0.6l-0.6,0.6l-0.6,0.6l-0.7,0.6l-0.7,0.6l-1.3,1.2l-1.3,1.2l-0.2,0.1l-0.2,0.1l-0.2,0.1l-0.2,0.1l-0.3,0.3l-0.3,0.3l-0.3,0.3
		l-0.3,0.3l-0.2,0.1l-0.2,0.1l-0.2,0.1l-0.2,0.1l-0.2,0.2l-0.2,0.2l-0.2,0.2l-0.2,0.1l-0.4,0.2l-0.4,0.2l-0.2,0.1l-0.2,0.1l-0.2,0.1
		l-0.2,0.2l-0.2,0.2l-0.2,0.2l-0.1,0.2l-0.1,0.2l-0.4,0.1l-0.4,0.2l-0.4,0.2l-0.4,0.2l-0.4,0.2l-0.4,0.3l-0.4,0.2l-0.4,0.3l-0.5,0.4
		l-0.6,0.4l-0.6,0.4l-0.6,0.4l-0.6,0.4l-0.6,0.4l-0.6,0.4l-0.5,0.4l-0.4,0.1l-0.4,0.1l-0.4,0.1l-0.4,0.2l-0.4,0.2l-0.3,0.2l-0.2,0.1
		l-0.2,0.1l-0.1,0.1l-0.1,0.1l-1.1,0.4l-1.1,0.4l-1,0.5l-1,0.5l-1,0.5l-1,0.5l-1,0.5l-0.9,0.5l-0.2-0.1l-0.2,0h-0.1l-0.1,0l-0.1,0
		l-0.1,0.1l-0.1,0.1l-0.1,0.1l-0.2,0.2l-0.2,0.2l-0.1,0.1l-0.1,0l-0.1,0l-0.1,0h-0.2l-0.2,0l-0.2,0l-0.2,0l-0.3,0.1l-0.3,0.1
		l-0.3,0.2l-0.3,0.2l-0.4,0.2l-0.4,0.2l-0.5,0.1l-0.5,0.1l-0.5,0.1l-0.5,0.1l-0.5,0.1l-0.5,0.1l-0.5,0.1l-0.5,0.1l-2,0.5l-2,0.5
		l-2,0.5l-2.1,0.4l-2.1,0.4l-2.1,0.4l-2.2,0.3l-2.2,0.3l-2.2,0.2l-2.2,0.2l-2.2,0.1l-2.2,0.1l-2.2,0.1h-2.2l-2.2,0l-2.2-0.1
		l-2.2-0.1l-2.2-0.2l-2.2-0.2l-2.2-0.3l-2.2-0.3l-2.2-0.3l-2.2-0.4l-2.1-0.4l-2.1-0.4l-2.1-0.5l-2.1-0.5l-2-0.6l-2-0.6l-2-0.7
		l-1.9-0.7l-1.9-0.8l-0.5-0.3l-0.5-0.2l-0.6-0.2l-0.6-0.2l-1.2-0.4l-1.2-0.5l-0.6-0.3l-0.6-0.3l-0.6-0.3l-0.6-0.3l-0.6-0.3l-0.6-0.4
		l-0.3-0.2l-0.3-0.2l-0.3-0.2L353,259l-0.3-0.1l-0.3-0.1l-0.3-0.1l-0.3-0.1l-0.3-0.2l-0.3-0.2l-0.3-0.2l-0.3-0.2l-0.6-0.4l-0.6-0.4
		l-0.3-0.2l-0.3-0.2l-0.3-0.2l-0.3-0.1l-0.2-0.2l-0.2-0.2l-0.2-0.2l-0.2-0.2l-0.2-0.1l-0.2-0.1l-0.2-0.1l-0.2-0.1l-0.2-0.1l-0.2-0.1
		l-0.2-0.1l-0.2-0.1l-0.2-0.2l-0.2-0.2l-0.2-0.2l-0.2-0.2l-0.1,0l-0.1,0l-0.1,0L344,254l-0.2-0.2l-0.2-0.2l-0.2-0.2l-0.2-0.2
		l-0.1-0.1l-0.1-0.1l-0.1,0h-0.1l-0.2-0.2l-0.2-0.2l-0.2-0.2l-0.2-0.2l-0.4-0.3l-0.4-0.3l-0.2-0.1l-0.2-0.1l-0.2-0.1l-0.2-0.2
		L340,251l-0.2-0.2l-0.2-0.2l-0.1-0.2l-0.3-0.1l-0.3-0.2l-0.2-0.2l-0.2-0.2l-0.2-0.2l-0.2-0.2l-0.2-0.2l-0.2-0.2l-0.4-0.4l-0.3-0.4
		l-0.3-0.4l-0.3-0.4v-0.3l32.7-0.3l0.2-0.1l0.2-0.1l0.1-0.2l0.1-0.1l0.1-0.2l0.1-0.2l0.1-0.2l0.1-0.2l0.1-0.3l0.1-0.3l0.1-0.1
		l0.1-0.2l0.1-0.1l0.1-0.1l0.4-1l0.4-1l0.5-1l0.5-1l0.5-1l0.4-1l0.2-0.5l0.2-0.5l0.2-0.6l0.2-0.6l-40.5-0.3l0.1-0.1l0.1-0.1l0.1-0.1
		l0.1-0.1l0.2-0.2l0.2-0.1l0.2-0.1l0.2-0.1l0.2-0.1l0.3-0.1l0.5-0.1l0.6-0.1l0.3-0.1l0.3-0.1l0.3-0.1l0.3-0.1l1.3-0.5l1.2-0.5
		l1.2-0.5l1.2-0.5l1.2-0.5l1.2-0.5l1.2-0.6l1.2-0.6l1.2-0.6l1.2-0.6l1.2-0.6l1.2-0.6l1.2-0.6l1.2-0.6l1.2-0.6l1.2-0.6l0.5-0.5
		l0.6-0.5l0.6-0.5l0.6-0.5l0.3-0.2l0.3-0.2l0.3-0.2l0.3-0.2l0.3-0.2l0.3-0.2l0.3-0.2l0.3-0.1l0.1-0.2l0.2-0.2l0.2-0.2l0.2-0.2
		l0.2-0.1l0.2-0.1l0.2-0.1l0.2-0.1l0.4-0.2l0.4-0.2l0.2-0.1l0.2-0.2l0.2-0.2l0.2-0.2l0.2-0.1l0.2-0.1l0.2-0.1l0.2-0.1l0.3-0.3
		l0.3-0.3l0.3-0.3l0.3-0.2l0.1-0.1l0.1-0.1l0.1-0.1h0.1l9.2-9l0.1-0.1l0-0.1l0.1-0.1l0.1-0.1l0.1-0.2l0.2-0.2l0.2-0.2l0.2-0.2
		l0.2-0.2l0.2-0.2l0.2-0.2l0.2-0.2l0.2-0.2l0.2-0.2l0.2-0.2l0.1-0.2l0.1-0.1l0.1-0.1l0.1-0.1l0-0.1l0.7-0.7l0.6-0.7l0.6-0.8l0.6-0.8
		l0.6-0.8l0.6-0.8l0.6-0.8l0.5-0.8l0.5-0.8l0.5-0.8l0.5-0.9l0.5-0.9l0.5-0.9l0.5-0.9l0.5-0.8l0.5-0.9l0.7-0.3l0.5-1.1l0.5-1.1
		l0.5-1.1l0.5-1.1l0.5-1.1l0.5-1.1l0.5-1.1l0.5-1.1l0.5-1.1l0.5-1.1l0.6-1.1l0.6-1.1l0.6-1.1l0.6-1.1l0.6-1.1l0.7-1.1l0.4-0.9
		l0.4-0.9l0.4-0.9l0.4-0.9l0.4-0.9l0.4-0.9l0.4-0.9l0.5-0.9l0.4-0.9l0.4-0.9l0.5-0.9l0.5-0.9l0.5-0.9l0.5-0.9l0.5-0.9l0.5-0.9
		l0.4-0.3l-0.4-0.3h-37.3l-2.5,4.9l-2.5,4.9l-2.5,4.9l-2.5,4.9l-2.5,4.9l-2.5,4.9l-2.5,4.9l-2.5,4.9l-2.5,4.9l-2.5,4.9l-2.5,4.9
		l-2.5,4.9l-2.5,4.9l-2.5,4.9l-2.5,4.9l-2.5,4.9l-0.1,0.1l-0.1,0l-0.1,0l-0.1,0l-0.1,0l-0.1,0h-0.1l-0.1,0l-0.1-0.1l-0.1-0.1
		l-0.1-0.1l-0.1-0.1l-0.2-0.3l-0.2-0.3l-0.1-0.2l-0.1-0.1l-0.1-0.1l-0.1-0.1l-0.1,0l-0.1,0l-0.1-0.4l-0.2-0.3l-0.2-0.3l-0.2-0.3
		l-0.2-0.3l-0.2-0.3l-0.2-0.3l-0.2-0.4l-0.2-0.1l-0.2-0.2l-0.1-0.2l-0.1-0.2l-0.2-0.4l-0.1-0.4l-0.1-0.2l-0.1-0.2l-0.1-0.2l-0.1-0.2
		l-0.1-0.1l-0.1-0.1l-0.2-0.1l-0.2-0.1l-0.2-0.6l-0.2-0.6l-0.3-0.5l-0.3-0.5l-0.5-1l-0.6-1l-0.3-0.5l-0.3-0.5l-0.3-0.5l-0.2-0.5
		l-0.2-0.5l-0.2-0.5l-0.2-0.5l-0.2-0.5l-0.3-0.7l-0.3-0.7l-0.2-0.7l-0.2-0.7L317,219l-0.2-0.7l-0.2-0.7l-0.2-0.7l-0.4-1.5l-0.3-1.5
		l-0.3-1.5l-0.3-1.4l-0.2-0.9l-0.1-0.9l-0.1-0.9l-0.1-0.9l-0.1-0.9l-0.1-0.9l-0.1-0.9l0-0.9l0-0.9L314.3,201.9z"/>
	<polygon fill="#004EA2" points="400.8,182.7 398.5,187.4 396.1,192.2 393.7,196.9 391.3,201.6 388.9,206.4 386.6,211.1 
		384.2,215.9 381.8,220.6 379.4,225.4 377.1,230.1 374.7,234.9 374.7,235.6 414.8,235.6 415,235 415.3,234.5 415.5,234 415.8,233.5 
		416.3,232.6 416.9,231.6 417.1,231.1 417.4,230.6 417.6,230.1 417.8,229.6 418,229.1 418.2,228.6 418.2,228.4 418.3,228.1 
		418.4,227.9 418.4,227.6 384.6,227.6 383.9,226.9 385.3,226.4 386.6,225.9 387.9,225.4 389.2,224.9 389.9,224.7 390.5,224.4 
		391.1,224.1 391.8,223.8 392.4,223.5 393,223.2 393.6,222.8 394.2,222.4 394.8,222.2 395.3,222 395.8,221.8 396.3,221.6 
		397.3,221.2 398.3,220.7 399.2,220.2 400.2,219.7 401.1,219.2 402,218.6 402.2,218.5 402.3,218.4 402.5,218.3 402.6,218.2 
		402.9,218.1 403.2,218 403.5,217.8 403.8,217.7 403.9,217.6 404,217.5 404.1,217.4 404.2,217.3 404.6,217 405,216.8 405.4,216.5 
		405.8,216.3 406.2,216.1 406.6,215.9 407,215.7 407.4,215.5 407.5,215.3 407.7,215.1 407.8,214.9 408,214.7 408.2,214.6 
		408.4,214.4 408.6,214.3 408.8,214.2 409.2,214 409.6,213.7 409.7,213.6 409.9,213.5 410.1,213.3 410.2,213.1 410.4,213.1 
		410.5,213.1 410.6,213 410.7,212.9 410.9,212.7 411.1,212.4 411.3,212.3 411.4,212.2 411.5,212.1 411.7,212 411.8,211.9 412,211.8 
		412.2,211.8 412.3,211.7 413.6,210.5 414.8,209.4 415.9,208.3 416.9,207.3 418,206.2 419,205.2 420.1,204 421.2,202.8 421.3,202.6 
		421.4,202.5 421.5,202.4 421.6,202.3 421.7,202.1 422,201.9 422.5,201.5 423,201 423,200.9 423.1,200.7 423.1,200.5 423.2,200.4 
		423.2,200.2 423.3,200.1 423.4,200 423.5,199.9 423.7,199.7 423.9,199.5 424,199.3 424,199.2 424.1,199.1 424.1,199 424.5,198.6 
		424.8,198.2 425.2,197.8 425.5,197.3 425.8,196.9 426.1,196.4 426.4,195.9 426.7,195.5 427.2,194.5 427.8,193.6 428.1,193.1 
		428.4,192.7 428.7,192.2 429,191.7 429.3,191.2 429.6,190.7 429.9,190.2 430.1,189.7 430.5,189.2 430.8,188.6 431.1,188.1 
		431.5,187.6 432.4,185.8 433.2,184 434.1,182.2 434.9,180.4 435.7,178.6 436.6,176.8 437.4,175.1 438.3,173.3 439.1,171.5 
		440,169.7 440.8,167.9 441.6,166.1 442.5,164.3 443.3,162.5 444.2,160.7 445,159 412.7,159 410.3,163.7 407.9,168.4 405.6,173.2 
		403.2,177.9 	"/>
	<path fill="#004EA2" d="M675.6,394.5c-2.8-3.7-7.3-5.9-12-5.9h-30.1c0,0-0.1,0-0.1,0c25.3-107.2,41.2-271.1,41.2-271.1L400.3,50
		l-274.4,67.5c0,0,15.9,163.9,41.2,271.1c-6.3,0.5-11.6,4.9-13.2,11.1l-31.5,117.4c-2.6,9.6-0.6,19.6,5.5,27.5
		c6,7.9,15.2,12.4,25.1,12.4h67c33.2,74.1,86.2,147.2,180.3,193.1c97.1-47.3,150.4-123.7,183.4-200.2c6.6,4.6,14.5,7.1,22.6,7.1
		c17.7,0,33.3-11.9,38.1-28.9l33.7-120.5C679.4,403.1,678.5,398.2,675.6,394.5z M669.2,121.3L669.2,121.3
		c-2.7,26.8-18.2,172.2-41.2,268.3c-4.3,1.7-7.6,5.3-8.9,9.9l-5.5,19.4c-4.2-12.7-14-22.8-26.4-27.5c0,0,0,0,0,0L669.2,121.3
		L669.2,121.3z M400.3,55.2L605,105.5l-95.2,313.7c0,0,0,0,0,0c-4.4-17.7-20.5-30.7-39.3-30.7h0c-5.9,0-145.2,0-189,0l-85.9-283
		L400.3,55.2z M315.2,403.5L277,541.9h-45.7l37.1-138.4H315.2z M236.1,466.3l-8.5,31.8h-23.5l19.4-73.2L236.1,466.3z M131.4,121.3
		L131.4,121.3L131.4,121.3l81.1,267.2h-40.2C149.5,292.5,134.1,148,131.4,121.3z M205.7,541.9H153c-10.9,0-18.9-10.4-16.1-20.9
		l31.5-117.4h45.2l-29,109.5h46.8l-6.1,15.6C222.1,536.6,214.4,541.9,205.7,541.9z M225.6,556.9h38l33.5,110.4
		C265.8,633.4,243,595.3,225.6,556.9z M289.4,541.9l32.8-120.4c2.9-10.6,12.5-18,23.5-18h93.8l-6.4,14.5
		c-5,11.3-16.1,18.6-28.5,18.6h-40.2l-5.4,19.9h40.8l-10.4,31.7h-39.1l-14.7,53.6H289.4z M413.1,737.7c-4.2,2.3-8.5,4.5-12.8,6.7
		c-4.4-2.2-8.6-4.4-12.8-6.7l-54.9-180.8H468L413.1,737.7z M436.2,541.9v-28.9H474l-4-57.5l-63.5,86.4h-45.2l88.1-127.4
		c4.8-6.9,12.6-11,20.9-11c13.4,0,24.5,10.3,25.4,23.7l8,114.7H436.2z M503.5,667.3L537,556.9h20.2c6.9,0,12.8-4.6,14.5-11.3
		l1.6-6.4c1.8,2.7,3.9,5.1,6.2,7.3C561.7,588.4,537.6,630.3,503.5,667.3z M630,524c-3,10.6-12.6,17.9-23.6,17.9h0
		c-12.2,0-22.5-8.9-24.3-21l-7.1-48.2l-17.7,69.2h-46.2l32.2-116.8c3.5-12.7,15.1-21.6,28.3-21.6c14.9,0,27.4,11.1,29.2,25.8
		l7.6,63.2l25.3-89.1h30.1L630,524z"/>
</g>
</svg>
