<?xml version="1.0" encoding="UTF-8"?>
<svg id="_图层_1" data-name="图层_1" xmlns="http://www.w3.org/2000/svg" version="1.1" viewBox="0 0 800 800">
  <!-- Created by @FCLOGO 2024-12-5 GMT+8 15:27:32 . https://fclogo.top/ -->
<!-- FOR PERSONAL USE ONLY NOT FOR COMMERCIAL USE -->
  <defs>
    <style>
      .st0 {
        stroke: #ef7100;
        stroke-width: 1.68px;
      }

      .st0, .st1, .st2, .st3, .st4, .st5, .st6, .st7, .st8 {
        fill-rule: evenodd;
      }

      .st0, .st4, .st5 {
        fill: none;
      }

      .st1 {
        fill: #fff;
      }

      .st2 {
        fill: #f8e22a;
      }

      .st3 {
        fill: #080105;
      }

      .st4 {
        stroke-width: .42px;
      }

      .st4, .st5 {
        stroke: #080105;
      }

      .st5 {
        stroke-width: .84px;
      }

      .st9 {
        fill: #ccc;
      }

      .st6 {
        fill: #c3e6f5;
      }

      .st7 {
        fill: #f28400;
      }

      .st8 {
        fill: #9ac9e8;
      }
    </style>
  </defs>
  <path class="st9" d="M348.22,774.3c-.79,0-1.38-.22-1.77-.65-.39-.44-.53-1.03-.41-1.79l.25-1.65c.12-.75.45-1.35.98-1.78.53-.44,1.19-.65,1.98-.65s1.33.2,1.72.6c.39.4.55.94.47,1.62h-1.24c.03-.36-.06-.64-.26-.84-.2-.2-.5-.3-.89-.3-.42,0-.76.12-1.03.35-.27.23-.43.56-.5.99l-.26,1.66c-.07.44,0,.77.19,1,.19.23.5.35.92.35.39,0,.72-.1.98-.3.26-.2.44-.48.52-.85h1.24c-.14.69-.47,1.23-.99,1.63-.52.4-1.16.6-1.92.6ZM352.8,774.19l1-6.29h1.19l-.19,1.19c.34-.87.97-1.3,1.91-1.3.67,0,1.17.21,1.49.62.32.42.43.99.31,1.71l-.07.42h-1.27l.06-.32c.07-.45.01-.8-.17-1.04-.18-.24-.48-.36-.88-.36s-.74.12-1.01.37c-.27.24-.43.59-.5,1.03l-.63,3.97h-1.24ZM361.91,774.3c-.77,0-1.35-.22-1.73-.67s-.52-1.04-.4-1.77l.25-1.65c.08-.49.26-.92.52-1.28s.6-.65,1.01-.85c.41-.2.87-.3,1.38-.3.77,0,1.35.22,1.73.67.39.45.52,1.04.39,1.77l-.17,1.12h-3.85l-.09.53c-.15.95.22,1.43,1.11,1.43.72,0,1.17-.25,1.37-.74h1.22c-.17.53-.5.96-1.01,1.28-.5.32-1.09.47-1.76.47ZM361.23,770.22l-.05.29h2.65s.05-.3.05-.3c.07-.47.01-.82-.17-1.07-.18-.25-.49-.37-.92-.37s-.8.13-1.06.38c-.26.25-.43.61-.51,1.08ZM368.33,774.3c-.63,0-1.1-.21-1.41-.64s-.4-1-.27-1.73l.27-1.77c.11-.73.39-1.31.84-1.74.44-.43.98-.64,1.61-.64.47,0,.83.12,1.09.35.26.24.39.56.38.96h.02l.17-1.2h1.24l-1,6.29h-1.22l.19-1.2h-.02c-.12.41-.35.73-.69.97s-.74.35-1.21.35ZM368.93,773.23c.39,0,.72-.12.98-.36.26-.24.43-.57.5-1.01l.25-1.65c.07-.43,0-.76-.18-1-.19-.24-.47-.36-.86-.36s-.72.12-.98.35c-.26.24-.42.57-.49,1.01l-.25,1.65c-.07.44-.01.78.17,1.01.18.23.47.35.88.35ZM376.35,774.19c-.57,0-.99-.16-1.26-.47-.27-.31-.36-.75-.27-1.32l.54-3.39h-1.74l.17-1.12h1.74l.27-1.72h1.24l-.27,1.72h2.47l-.18,1.12h-2.46l-.54,3.39c-.08.44.1.66.53.66h1.72l-.17,1.12h-1.77ZM382.5,774.3c-.77,0-1.35-.22-1.73-.67s-.52-1.04-.4-1.77l.25-1.65c.08-.49.26-.92.52-1.28s.6-.65,1.01-.85c.41-.2.87-.3,1.38-.3.77,0,1.35.22,1.73.67.39.45.52,1.04.39,1.77l-.17,1.12h-3.85l-.09.53c-.15.95.22,1.43,1.11,1.43.72,0,1.17-.25,1.37-.74h1.22c-.17.53-.5.96-1.01,1.28-.5.32-1.09.47-1.76.47ZM381.83,770.22l-.05.29h2.65s.05-.3.05-.3c.07-.47.01-.82-.17-1.07-.18-.25-.49-.37-.92-.37s-.8.13-1.06.38c-.26.25-.43.61-.51,1.08ZM388.92,774.3c-.63,0-1.1-.21-1.4-.64-.3-.42-.39-1-.28-1.73l.27-1.77c.11-.73.39-1.31.84-1.74.44-.43.98-.64,1.61-.64.47,0,.83.12,1.09.35.26.24.39.56.38.96h.02l.21-1.47.3-1.8h1.24l-1.33,8.35h-1.22l.19-1.2h-.02c-.12.41-.35.73-.69.97s-.74.35-1.21.35ZM389.53,773.23c.39,0,.72-.12.98-.36.26-.24.43-.57.5-1.01l.25-1.65c.08-.43.02-.76-.17-1-.19-.24-.48-.36-.87-.36s-.72.12-.98.35c-.26.24-.42.57-.49,1.01l-.25,1.65c-.08.44-.02.78.16,1.01s.48.35.88.35ZM401.02,774.3c-.47,0-.84-.12-1.1-.35-.26-.23-.39-.56-.38-.97h-.01l-.19,1.2h-1.22l1.33-8.35h1.24l-.29,1.8-.27,1.47h.05c.12-.41.35-.73.69-.97.34-.23.74-.35,1.21-.35.63,0,1.1.21,1.4.64.3.43.39,1.01.28,1.74l-.27,1.77c-.11.73-.39,1.31-.84,1.73-.45.42-.98.64-1.61.64ZM400.77,773.23c.4,0,.72-.12.98-.35.26-.23.42-.57.5-1.01l.25-1.65c.07-.43.01-.77-.17-1.01-.18-.24-.47-.35-.87-.35s-.72.12-.98.36-.43.57-.5,1l-.25,1.65c-.07.44-.01.77.17,1.01.18.24.47.36.87.36ZM405.47,776.25l.17-1.06h1.93c.64,0,1.01-.3,1.1-.9l.1-.67.21-1.19h-.03c-.12.42-.35.74-.68.97-.33.23-.73.34-1.2.34-.63,0-1.09-.2-1.4-.6s-.41-.94-.3-1.63l.58-3.6h1.24l-.56,3.48c-.06.41,0,.73.18.96s.47.34.85.34.72-.12.98-.37c.27-.24.43-.58.49-1.02l.54-3.4h1.24l-1.01,6.41c-.1.6-.37,1.08-.81,1.42-.44.35-1,.52-1.67.52h-1.95ZM417.79,770.09h3.22l.54-1.85h-5.47l-1.71,6.44h2.15l.59-2.1h3.03l.44-1.71h-3.03l.24-.78ZM424.23,772.92c-.59,0-1.02-.39-1.02-1.12,0-.88.63-1.76,1.61-1.76.49,0,.88.24,1.02.78l1.95-.83c-.29-1.17-1.27-1.9-2.64-1.9-2.78,0-4.15,2.15-4.15,3.9s1.27,2.83,3.07,2.83c1.37,0,2.34-.59,2.98-1.42l-1.51-1.17c-.39.44-.83.68-1.32.68ZM430.91,768.23h-2.15l-1.76,6.44h5.12l.49-1.85h-2.93l1.22-4.59ZM439.75,771.01c0-1.66-1.32-2.93-3.22-2.93-2.2,0-3.81,1.81-3.81,3.81,0,1.66,1.32,2.93,3.22,2.93,2.2,0,3.81-1.81,3.81-3.81ZM434.92,771.7c0-.83.59-1.71,1.51-1.71.78,0,1.17.54,1.17,1.22,0,.83-.59,1.71-1.51,1.71-.78,0-1.17-.54-1.17-1.22ZM443.21,772.23h1.07l-.2.68c-.15.05-.34.1-.59.1-.68,0-1.27-.39-1.27-1.22,0-1.02.73-1.9,1.95-1.9.59,0,1.12.24,1.51.59l1.37-1.37c-.44-.54-1.51-1.07-2.73-1.07-2.59,0-4.29,1.76-4.29,3.86s1.61,2.88,3.22,2.88c.93,0,1.85-.29,2.49-.68l.93-3.32h-3.12l-.34,1.46ZM450.78,768.08c-2.2,0-3.81,1.81-3.81,3.81,0,1.66,1.32,2.93,3.22,2.93,2.2,0,3.81-1.81,3.81-3.81,0-1.66-1.32-2.93-3.22-2.93ZM450.34,772.92c-.78,0-1.17-.54-1.17-1.22,0-.83.59-1.71,1.51-1.71.78,0,1.17.54,1.17,1.22,0,.83-.59,1.71-1.51,1.71ZM437.94,767.5c-.05.29.1.49.44.49s.54-.2.63-.49c.05-.24-.1-.49-.44-.49s-.59.24-.63.49ZM432.13,765.5c-.44,0-.73.24-.78.59s.1.59.54.59.73-.24.78-.59c.1-.34-.1-.59-.54-.59ZM433.01,767.3c-.1.54.15.88.83.88.63,0,1.07-.39,1.17-.88s-.15-.88-.83-.88c-.68,0-1.07.39-1.17.88ZM439.6,777.55l-2.44-1.81h-1.51l4.25,3.17,1.61-3.17h-.98l-.93,1.81ZM425.84,767.16l-2-1.46,23.13-2.78-2.15,4.25h1.02l2.68-5.32-26.99,3.22,2.78,2.1h1.51ZM338.72,785.79l.61-3.83h2.32l-.08.52h-1.76l-.18,1.14h1.63l-.08.52h-1.62l-.26,1.64h-.57ZM342.97,785.84c-.36,0-.62-.1-.8-.3-.17-.2-.23-.47-.18-.82l.27-1.7c.06-.34.2-.61.44-.82.24-.2.54-.3.89-.3s.62.1.8.3c.17.2.24.47.18.81l-.27,1.71c-.06.34-.2.62-.44.82-.24.2-.54.3-.9.3ZM343.05,785.33c.19,0,.35-.05.47-.16.12-.11.19-.26.23-.46l.27-1.7c.03-.2,0-.35-.08-.46-.08-.11-.22-.16-.41-.16s-.35.05-.46.16c-.12.1-.19.26-.22.46l-.27,1.7c-.03.2,0,.35.08.46s.22.16.41.16ZM345,785.79l.61-3.83h1.2c.24,0,.44.05.6.14.16.09.28.22.36.39s.09.37.05.59c-.04.26-.14.48-.3.67-.16.19-.37.32-.6.39l.54,1.64h-.62l-.48-1.57h-.54l-.25,1.57h-.57ZM345.89,783.71h.64c.19,0,.35-.06.48-.17.13-.11.21-.26.24-.45.03-.19,0-.35-.09-.46-.09-.11-.24-.17-.43-.17h-.64l-.2,1.25ZM349.54,785.79l.61-3.83h1.25c.37,0,.65.1.84.31.19.21.26.49.2.84-.04.23-.12.44-.25.61s-.29.31-.49.4c-.2.09-.42.14-.66.14h-.69l-.24,1.52h-.57ZM350.43,783.75h.69c.19,0,.36-.06.49-.18.14-.12.22-.27.25-.47s0-.35-.1-.47-.25-.18-.44-.18h-.69l-.21,1.29ZM352.75,785.79l.61-3.83h2.25l-.08.5h-1.7l-.17,1.09h1.51l-.08.5h-1.51l-.19,1.24h1.69l-.08.5h-2.25ZM355.84,785.79l.61-3.83h1.2c.24,0,.44.05.6.14.16.09.28.22.36.39s.09.37.05.59c-.04.26-.14.48-.3.67-.16.19-.37.32-.6.39l.54,1.64h-.62l-.48-1.57h-.54l-.25,1.57h-.57ZM356.74,783.71h.64c.19,0,.35-.06.48-.17.13-.11.21-.26.24-.45.03-.19,0-.35-.09-.46-.09-.11-.24-.17-.43-.17h-.64l-.2,1.25ZM360.13,785.84c-.39,0-.67-.1-.87-.29-.19-.19-.26-.45-.22-.78h.57c-.03.17.01.31.12.41.11.1.27.15.48.15.2,0,.37-.05.5-.15.13-.1.21-.23.24-.4.02-.15,0-.28-.06-.39-.06-.11-.16-.18-.29-.22l-.46-.14c-.27-.08-.46-.22-.59-.41-.13-.19-.17-.42-.13-.68.04-.21.11-.39.23-.55s.27-.28.46-.37.4-.13.64-.13c.35,0,.62.1.8.29.18.19.25.44.2.76h-.57c.03-.17,0-.3-.09-.4-.09-.1-.23-.14-.42-.14s-.34.04-.46.13c-.12.09-.19.21-.21.38-.02.15,0,.28.05.39s.16.18.29.22l.47.15c.26.08.46.22.58.41.12.19.17.42.12.69-.04.22-.12.41-.24.57-.13.16-.29.29-.49.38-.2.09-.42.13-.66.13ZM363.27,785.84c-.36,0-.62-.1-.8-.3-.17-.2-.23-.47-.18-.82l.27-1.7c.06-.34.2-.61.44-.82.24-.2.54-.3.89-.3s.62.1.8.3c.17.2.24.47.18.81l-.27,1.71c-.06.34-.2.62-.44.82-.24.2-.54.3-.9.3ZM363.34,785.33c.19,0,.35-.05.47-.16.12-.11.19-.26.23-.46l.27-1.7c.03-.2,0-.35-.08-.46-.08-.11-.22-.16-.41-.16s-.35.05-.46.16c-.12.1-.19.26-.22.46l-.27,1.7c-.03.2,0,.35.08.46s.22.16.41.16ZM365.28,785.79l.61-3.83h.71l.62,3.19c0-.1.02-.22.03-.36.01-.14.03-.29.04-.44.02-.15.04-.29.06-.41l.31-1.98h.52l-.61,3.83h-.71l-.61-3.19c0,.09-.02.21-.03.34s-.03.28-.04.42c-.02.15-.04.28-.06.41l-.31,2.01h-.53ZM368.23,785.79l1.59-3.83h.75l.37,3.83h-.56l-.07-.97h-1.09l-.39.97h-.59ZM369.39,784.34h.87l-.09-1.1c-.02-.2-.03-.37-.04-.51,0-.14-.01-.24-.01-.3-.02.06-.05.16-.1.3s-.11.31-.19.5l-.44,1.11ZM371.72,785.79l.61-3.83h.57l-.52,3.31h1.67l-.08.52h-2.25ZM376.68,785.84c-.37,0-.63-.1-.8-.3-.17-.2-.22-.47-.17-.82l.44-2.76h.57l-.44,2.76c-.03.2,0,.35.07.46.08.11.21.17.41.17s.35-.06.46-.17c.12-.11.19-.27.22-.46l.44-2.76h.57l-.44,2.76c-.06.35-.2.62-.43.82-.23.2-.53.3-.9.3ZM379.84,785.84c-.39,0-.67-.1-.87-.29-.19-.19-.26-.45-.22-.78h.57c-.03.17.01.31.12.41.11.1.27.15.48.15.2,0,.37-.05.5-.15.13-.1.21-.23.24-.4.02-.15,0-.28-.06-.39-.06-.11-.16-.18-.29-.22l-.46-.14c-.27-.08-.46-.22-.59-.41-.13-.19-.17-.42-.13-.68.04-.21.11-.39.23-.55s.27-.28.46-.37.4-.13.64-.13c.35,0,.62.1.8.29.18.19.25.44.2.76h-.57c.03-.17,0-.3-.09-.4-.09-.1-.23-.14-.42-.14s-.34.04-.46.13c-.12.09-.19.21-.21.38-.02.15,0,.28.05.39s.16.18.29.22l.47.15c.26.08.46.22.58.41.12.19.17.42.12.69-.04.22-.12.41-.24.57-.13.16-.29.29-.49.38-.2.09-.42.13-.66.13ZM381.91,785.79l.61-3.83h2.25l-.08.5h-1.7l-.17,1.09h1.51l-.08.5h-1.51l-.19,1.24h1.69l-.08.5h-2.25ZM386.94,785.84c-.36,0-.62-.1-.8-.3-.17-.2-.23-.47-.18-.82l.27-1.7c.06-.34.2-.61.44-.82.24-.2.54-.3.89-.3s.62.1.8.3c.17.2.24.47.18.81l-.27,1.71c-.06.34-.2.62-.44.82-.24.2-.54.3-.9.3ZM387.02,785.33c.19,0,.35-.05.47-.16.12-.11.19-.26.23-.46l.27-1.7c.03-.2,0-.35-.08-.46-.08-.11-.22-.16-.41-.16s-.35.05-.46.16c-.12.1-.19.26-.22.46l-.27,1.7c-.03.2,0,.35.08.46s.22.16.41.16ZM388.95,785.79l.61-3.83h.71l.62,3.19c0-.1.02-.22.03-.36.01-.14.03-.29.04-.44.02-.15.04-.29.06-.41l.31-1.98h.52l-.61,3.83h-.71l-.61-3.19c0,.09-.02.21-.03.34s-.03.28-.04.42c-.02.15-.04.28-.06.41l-.31,2.01h-.53ZM392.25,785.79l.61-3.83h.57l-.52,3.31h1.67l-.08.52h-2.25ZM396.12,785.79l.22-1.41-.75-2.42h.58l.45,1.45c.03.09.05.18.07.27.02.08.03.15.03.19.02-.04.05-.1.09-.19.04-.08.09-.17.14-.27l.9-1.45h.6l-1.53,2.42-.22,1.41h-.57ZM399.22,785.79l.61-3.83h.71l.62,3.19c0-.1.02-.22.03-.36.01-.14.03-.29.04-.44.02-.15.04-.29.06-.41l.31-1.98h.52l-.61,3.83h-.71l-.61-3.19c0,.09-.02.21-.03.34s-.03.28-.04.42c-.02.15-.04.28-.06.41l-.31,2.01h-.53ZM403.51,785.84c-.36,0-.62-.1-.8-.3-.18-.2-.23-.47-.18-.82l.27-1.7c.06-.34.2-.61.44-.82.24-.2.54-.3.89-.3s.62.1.8.3c.17.2.24.47.18.81l-.27,1.71c-.06.34-.2.62-.44.82-.24.2-.54.3-.89.3ZM403.58,785.33c.19,0,.35-.05.47-.16.12-.11.19-.26.23-.46l.27-1.7c.03-.2,0-.35-.08-.46-.08-.11-.22-.16-.41-.16s-.35.05-.46.16c-.12.1-.19.26-.22.46l-.27,1.7c-.03.2,0,.35.08.46.08.11.22.16.41.16ZM406.38,785.79l.52-3.31h-1.02l.08-.52h2.62l-.08.52h-1.03l-.52,3.31h-.57ZM409.52,785.79l.61-3.83h2.32l-.08.52h-1.76l-.18,1.14h1.63l-.08.52h-1.62l-.26,1.64h-.57ZM413.77,785.84c-.36,0-.62-.1-.8-.3-.18-.2-.23-.47-.18-.82l.27-1.7c.06-.34.2-.61.44-.82.24-.2.54-.3.89-.3s.62.1.8.3c.17.2.24.47.18.81l-.27,1.71c-.06.34-.2.62-.44.82-.24.2-.54.3-.89.3ZM413.85,785.33c.19,0,.35-.05.47-.16.12-.11.19-.26.23-.46l.27-1.7c.03-.2,0-.35-.08-.46-.08-.11-.22-.16-.41-.16s-.35.05-.46.16c-.12.1-.19.26-.22.46l-.27,1.7c-.03.2,0,.35.08.46.08.11.22.16.41.16ZM415.8,785.79l.61-3.83h1.2c.24,0,.44.05.6.14.16.09.28.22.36.39s.09.37.05.59c-.04.26-.14.48-.3.67-.16.19-.37.32-.6.39l.54,1.64h-.62l-.48-1.57h-.54l-.25,1.57h-.57ZM416.69,783.71h.64c.19,0,.35-.06.48-.17.13-.11.21-.26.24-.45.03-.19,0-.35-.09-.46-.09-.11-.24-.17-.43-.17h-.64l-.2,1.25ZM420.91,785.84c-.36,0-.63-.1-.81-.3-.18-.2-.24-.47-.19-.82l.27-1.7c.06-.35.21-.62.45-.82s.55-.3.91-.3.63.1.81.3c.18.2.24.47.19.82h-.57c.03-.2,0-.35-.09-.46-.09-.11-.23-.16-.42-.16s-.35.05-.47.16c-.12.1-.2.26-.23.45l-.27,1.71c-.03.2,0,.35.09.46.09.11.23.16.42.16s.35-.05.47-.16.2-.26.23-.46h.57c-.03.23-.11.43-.24.59s-.28.3-.47.39c-.19.09-.4.14-.64.14ZM424.03,785.84c-.36,0-.62-.1-.8-.3-.18-.2-.23-.47-.18-.82l.27-1.7c.06-.34.2-.61.44-.82.24-.2.54-.3.89-.3s.62.1.8.3c.17.2.24.47.18.81l-.27,1.71c-.06.34-.2.62-.44.82-.24.2-.54.3-.89.3ZM424.11,785.33c.19,0,.35-.05.47-.16.12-.11.19-.26.23-.46l.27-1.7c.03-.2,0-.35-.08-.46-.08-.11-.22-.16-.41-.16s-.35.05-.46.16c-.12.1-.19.26-.22.46l-.27,1.7c-.03.2,0,.35.08.46.08.11.22.16.41.16ZM425.97,785.79l.61-3.83h.69l.18,1.23c.02.12.04.23.05.33.01.1.02.18.03.24.02-.06.05-.14.09-.24.04-.11.09-.22.15-.34l.57-1.22h.71l-.61,3.83h-.54l.2-1.29c.02-.17.06-.35.1-.55.04-.2.09-.4.14-.61s.1-.4.14-.59c.05-.19.09-.35.13-.49l-.86,1.86h-.55l-.28-1.86c0,.14-.01.29-.02.47s-.02.37-.04.57c-.02.2-.04.41-.06.61-.02.2-.05.4-.08.57l-.2,1.29h-.54ZM429.11,785.79l.61-3.83h.69l.18,1.23c.02.12.04.23.05.33.01.1.02.18.03.24.02-.06.05-.14.09-.24.04-.11.09-.22.15-.34l.57-1.22h.71l-.61,3.83h-.54l.2-1.29c.02-.17.06-.35.1-.55.04-.2.09-.4.14-.61s.1-.4.14-.59c.05-.19.09-.35.13-.49l-.86,1.86h-.55l-.28-1.86c0,.14-.01.29-.02.47s-.02.37-.04.57c-.02.2-.04.41-.06.61-.02.2-.05.4-.08.57l-.2,1.29h-.54ZM432.41,785.79l.61-3.83h2.25l-.08.5h-1.7l-.17,1.09h1.51l-.08.5h-1.51l-.19,1.24h1.69l-.08.5h-2.25ZM435.51,785.79l.61-3.83h1.2c.24,0,.44.05.6.14.16.09.28.22.36.39s.09.37.05.59c-.04.26-.14.48-.3.67-.16.19-.37.32-.6.39l.54,1.64h-.62l-.48-1.57h-.54l-.25,1.57h-.57ZM436.4,783.71h.64c.19,0,.35-.06.48-.17.13-.11.21-.26.24-.45.03-.19,0-.35-.09-.46-.09-.11-.24-.17-.43-.17h-.64l-.2,1.25ZM439.8,785.84c-.36,0-.63-.1-.81-.3-.18-.2-.24-.47-.19-.82l.27-1.7c.06-.35.21-.62.45-.82s.55-.3.91-.3.63.1.81.3c.18.2.24.47.19.82h-.57c.03-.2,0-.35-.09-.46-.09-.11-.23-.16-.42-.16s-.35.05-.47.16c-.12.1-.2.26-.23.45l-.27,1.71c-.03.2,0,.35.09.46.09.11.23.16.42.16s.35-.05.47-.16.2-.26.23-.46h.57c-.03.23-.11.43-.24.59s-.28.3-.47.39c-.19.09-.4.14-.64.14ZM441.88,785.79l.08-.5h.78l.45-2.82h-.78l.08-.5h2.13l-.08.5h-.78l-.45,2.82h.78l-.08.5h-2.13ZM444.74,785.79l1.59-3.83h.75l.37,3.83h-.56l-.07-.97h-1.09l-.39.97h-.59ZM445.9,784.34h.87l-.09-1.1c-.02-.2-.03-.37-.04-.51,0-.14-.01-.24-.01-.3-.02.06-.05.16-.1.3s-.11.31-.19.5l-.44,1.11ZM448.24,785.79l.61-3.83h.57l-.52,3.31h1.67l-.08.52h-2.25ZM453.19,785.84c-.37,0-.63-.1-.8-.3-.17-.2-.22-.47-.17-.82l.44-2.76h.57l-.44,2.76c-.03.2,0,.35.07.46.08.11.21.17.41.17s.35-.06.46-.17c.12-.11.19-.27.22-.46l.44-2.76h.57l-.44,2.76c-.06.35-.2.62-.43.82-.23.2-.53.3-.9.3ZM456.36,785.84c-.39,0-.67-.1-.87-.29-.19-.19-.26-.45-.22-.78h.57c-.03.17.01.31.12.41.11.1.27.15.48.15.2,0,.37-.05.5-.15s.21-.23.24-.4c.02-.15,0-.28-.06-.39s-.16-.18-.29-.22l-.46-.14c-.27-.08-.46-.22-.59-.41-.13-.19-.17-.42-.13-.68.04-.21.11-.39.23-.55s.27-.28.46-.37c.19-.09.4-.13.64-.13.35,0,.62.1.8.29.18.19.25.44.2.76h-.57c.03-.17,0-.3-.09-.4-.09-.1-.23-.14-.42-.14s-.34.04-.46.13c-.12.09-.19.21-.21.38-.02.15,0,.28.05.39s.16.18.29.22l.47.15c.26.08.46.22.58.41.12.19.17.42.12.69-.04.22-.12.41-.24.57-.13.16-.29.29-.49.38-.2.09-.42.13-.66.13ZM458.42,785.79l.61-3.83h2.25l-.08.5h-1.7l-.17,1.09h1.51l-.08.5h-1.51l-.19,1.24h1.69l-.08.5h-2.25Z"/>
  <g>
    <path class="st8" d="M257.86,117.45c-21.37,6.7-39.83,12.68-53.23,12.68-11.41,0-17.75-2.35-18.47-2.53l-21.37-10.32-78.22,61.75,3.08,22.27c3.08,22.09,7.42,44.9,13.04,67.9l-18.47,2.35h.54c-1.09.18-5.79.73-28.25,3.8l-6.52.91v251.32l45.27-6.52c36.03-5.25,74.06-9.78,112.8-13.22,57.04,85.82,124.21,150.83,168.57,183.42l-.36-.36c.91.72,4.35,3.26,19.37,14.3l4.35,3.26,23.36-17.2c44.36-32.59,111.54-97.59,168.57-183.42,38.75,3.44,76.77,7.97,112.8,13.22l45.27,6.52v-251.32l-34.22-4.71s-10.68-1.45-18.47-2.35c5.61-23,10.14-45.81,13.03-67.9l3.08-22.27-77.68-61.92-21.91,10.5c-.73.36-7.06,2.53-18.47,2.53-13.58,0-31.86-5.79-53.23-12.68-36.21-11.41-81.66-25.89-141.96-25.89s-105.92,14.49-142.32,25.89Z"/>
    <path class="st7" d="M260.04,124.69c-21.91,6.88-40.92,13.03-55.59,13.03-13.58,0-21-2.9-21.37-3.08-1.27-.54-17.56-8.51-17.56-8.51l-15.93,12.13-55.04,44,2.54,18.1c3.44,24.63,8.51,49.98,14.85,75.14-9.05,1.09-18.11,2.17-26.62,3.44l-27.7,3.8v236.11l36.76-5.43c38.21-5.61,77.86-10.14,117.69-13.76,56.67,86.37,124.21,152.1,169.3,185.23l19.01,13.94,19.01-13.94c45.26-33.13,112.62-98.86,169.3-185.23,39.83,3.62,79.31,8.15,117.69,13.76l36.76,5.43v-236.11l-27.7-3.8c-8.69-1.09-17.56-2.35-26.61-3.44,6.52-25.35,11.59-50.52,14.84-75.14l2.53-18.1-70.61-56.32s-17.38,8.33-17.92,8.69c-.54.18-7.97,3.08-21.37,3.08-14.67,0-33.68-5.98-55.59-13.03-36.58-11.41-81.3-25.71-140.51-25.71s-104.11,14.3-140.14,25.71Z"/>
    <path class="st1" d="M265.83,143.16c-23.54,7.43-43.82,13.94-61.38,13.94-19.19,0-29.33-4.89-29.51-4.89l-7.24-3.44-6.34,4.89-46.17,36.94.9,7.24c4.35,31.69,11.23,63.37,20.28,94.52-16.84,1.81-33.14,3.98-48.71,5.97l-11.04,1.45v196.64l14.48-2.17c42.91-6.34,86.73-11.23,130.19-14.85,56.49,88.9,124.94,156.26,170.93,189.94l7.42,5.43,7.42-5.43c45.99-33.86,114.61-101.22,170.93-189.94,43.63,3.62,87.45,8.69,130.18,14.85l14.49,2.17v-196.64l-11.04-1.45c-15.57-2.17-31.87-4.16-48.71-5.97,9.05-31.14,15.93-62.83,20.28-94.52l.9-7.24-52.51-41.83-7.25,3.44c-.18,0-10.32,4.89-29.51,4.89-17.56,0-37.84-6.52-61.38-13.94-34.76-11.04-77.86-24.8-134.17-24.8s-98.68,13.76-133.44,24.8Z"/>
    <path class="st3" d="M400.18,659.2c40.2-29.51,111.72-95.97,172.01-193.02,46.71,3.8,92.89,8.87,138.7,15.57v-170.93c-21.01-2.9-42.19-5.43-63.37-7.6,10.68-33.86,19.01-69.53,24.08-107.19l-40.56-32.41s-12.13,6.16-35.13,6.16c-47.07,0-102.66-38.56-195.55-38.56s-148.47,38.56-195.55,38.56c-23,0-35.13-6.16-35.13-6.16l-40.92,32.23c5.25,37.66,13.58,73.51,24.08,107.19-21.18,2.35-42.37,4.71-63.37,7.6v170.93c45.81-6.7,91.98-11.95,138.7-15.57,60.3,97.23,131.64,163.68,172.01,193.2Z"/>
    <path class="st7" d="M556.8,464.91c-2.53-.18-5.07-.36-7.42-.54-33.86,13.58-73.52,29.51-119.69,48.16,29.51-18.65,55.95-35.49,79.67-50.52-3.26-.18-6.7-.36-9.96-.54-22.09,13.94-46.35,29.15-72.97,45.99,18.29-16.84,35.13-32.41,50.88-46.9-2.72-.18-5.61-.18-8.33-.36-14.48,13.22-30.06,27.52-46.71,42.73,11.59-15.21,22.45-29.51,32.59-43.27-2.35,0-4.89-.18-7.24-.18-9.6,12.49-19.55,25.71-30.06,39.83,7.06-13.94,13.76-27.16,20.1-40.02-2.17,0-4.34,0-6.52-.18-5.97,11.95-12.31,24.44-19.01,37.3,3.8-13.04,7.61-25.53,11.05-37.48h-6.16c-3.44,11.41-6.88,23.36-10.68,35.85,1.27-12.31,2.72-24.26,3.98-35.85h-5.97c-1.27,11.41-2.54,23-3.8,35.13-.9-12.13-1.63-23.9-2.53-35.31h-5.98c.72,11.41,1.63,23.36,2.53,35.67-3.08-12.31-6.16-24.08-9.05-35.67h-6.16c3.08,11.95,6.16,24.26,9.42,36.94-5.79-12.86-11.59-25.17-17.02-36.94l-6.52.18c5.79,12.49,11.77,25.71,17.92,39.29-9.6-13.76-18.65-26.8-27.34-39.11-2.35,0-4.71.18-7.06.18,9.23,13.22,18.83,26.98,28.97,41.65l-41.28-41.28c-2.72,0-5.25.18-7.97.18,14.12,14.3,29.33,29.51,45.63,45.99-23.72-16.48-45.27-31.5-65.18-45.27-3.26.18-6.34.18-9.6.36,21.55,15.03,45.27,31.51,71.34,49.79-40.01-18.29-74.96-34.04-105.38-47.8-3.98.18-7.79.54-11.77.72,32.59,15.03,70.43,32.41,114.8,52.51-41.46-10.5-77.68-19.55-109.54-27.52l4.89,7.06c30.24,7.79,64.46,16.48,103.03,26.25-32.41-2.17-61.56-4.16-88.18-5.97,1.63,1.99,3.08,4.16,4.71,6.16,25.17,1.81,52.87,3.62,83.11,5.79-25.89,2.9-49.97,5.61-72.06,8.15l4.35,5.43c21.19-2.35,43.82-4.89,68.44-7.6-21.18,6.34-41.1,12.31-59.75,17.92,1.45,1.63,2.72,3.26,4.16,4.89,17.92-5.43,36.94-11.05,57.22-17.2-17.56,9.05-34.22,17.56-49.97,25.53,1.27,1.45,2.72,3.08,3.98,4.53,15.21-7.79,31.51-15.93,48.53-24.62-14.67,11.22-28.61,21.91-41.83,32.05,1.27,1.45,2.72,2.9,3.98,4.35,13.04-9.96,26.8-20.46,41.46-31.51-12.31,13.4-23.9,26.25-34.95,38.39,1.45,1.45,2.72,2.9,4.16,4.16,11.04-12.13,22.81-24.99,35.13-38.57-9.96,15.93-19.37,30.96-28.43,45.27,1.45,1.45,2.9,2.72,4.35,4.16,9.24-14.49,18.83-30.06,29.15-46.35-7.6,19.01-14.67,36.94-21.37,53.6,1.63,1.45,3.08,2.9,4.53,4.35,7.06-17.38,14.49-35.85,22.27-55.77-4.71,22.81-9.05,44.18-13.04,64.1,1.63,1.45,3.44,2.9,5.07,4.35,4.35-20.82,8.87-43.1,13.76-67.36-.54,28.07-1.09,53.78-1.63,77.32,1.81,1.45,3.62,2.9,5.25,4.16l.36-.36c.54-24.63,1.27-51.6,1.81-81.12,3.98,25.35,7.79,48.89,11.23,70.44,1.63-1.45,3.44-2.9,5.25-4.35-3.26-20.82-6.7-43.09-10.5-66.99,7.24,20.64,14.12,40.2,20.46,58.3,1.63-1.45,3.08-2.9,4.71-4.35-6.16-17.56-12.68-36.21-19.56-55.95,9.78,17.2,18.83,33.32,27.52,48.53,1.45-1.45,2.9-2.72,4.35-4.16-8.33-14.85-17.38-30.6-26.8-47.26,11.95,14.12,23.18,27.52,33.68,40.38l4.16-4.17c-10.5-12.67-21.55-25.89-33.32-40.02,13.94,11.59,27.34,22.63,39.83,33.13,1.27-1.45,2.72-2.9,3.98-4.35-12.67-10.5-26.08-21.73-40.2-33.5,16.48,9.24,32.05,18.11,46.71,26.44,1.27-1.45,2.72-2.9,3.98-4.53-15.03-8.51-30.96-17.56-47.8-27.16,19.37,6.7,37.66,13.22,54.86,19.01,1.45-1.63,2.72-3.08,4.17-4.71-17.93-6.34-36.76-12.86-57.22-19.92,23.36,3.62,45.08,7.06,65.36,10.14,1.45-1.81,2.9-3.44,4.35-5.25-21.18-3.44-44.18-7.06-68.81-10.86,28.79-.72,55.04-1.45,79.13-1.99,1.45-1.99,3.08-3.98,4.53-5.97-25.35.54-53.23,1.27-83.83,1.99,36.39-7.6,68.8-14.3,97.6-20.28,1.63-2.17,3.26-4.53,4.89-6.88-30.42,6.16-64.82,13.22-103.75,21.37,47.8-19.37,88.36-35.85,122.94-49.97l3.62-2.35Z"/>
    <polygon class="st1" points="400.18 494.25 408.51 519.6 435.31 519.6 413.76 535.35 422.09 560.7 400.54 544.95 379 560.7 387.33 535.35 365.78 519.6 392.58 519.6 400.18 494.25"/>
    <path class="st7" d="M618.36,300.14c23.9-30.24,20.64-27.16,20.64-27.16,0,0,2.35-3.98-23.9,26.98l3.26.18h0ZM577.45,296.7l-4.89-.18c58.67-76.23,54.86-69.17,54.86-69.17,0,0,5.61-5.61-49.97,69.35h0ZM521.31,293.08c54.32-109.36,48.89-101.76,48.89-101.76,0,0,2.9-9.05-53.96,101.4l5.07.36h0ZM472.79,291.09c38.93-133.99,34.58-124.76,34.58-124.76,0,0,1.45-10.14-39.47,124.57l4.89.18h0ZM342.06,290.73c-36.21-138.52-35.13-128.19-35.13-128.19,0,0-3.98-9.6,30.24,128.37l4.89-.18h0ZM294.98,292.36c-54.32-116.61-51.6-107.37-51.6-107.37,0,0-5.25-7.97,46.72,107.55l4.89-.18h0ZM240.84,295.44l-4.89.36c-57.04-83.11-51.24-77.13-51.24-77.13,0,0-3.8-7.6,56.13,76.77h0ZM191.05,299.42c-31.14-39.65-28.61-34.94-28.61-34.94,0,0-3.8-3.62,24.99,35.31l3.62-.36h0ZM378.63,199.47c-4.53-53.24-5.07-47.8-5.07-47.8,0,0-1.27-5.43,1.81,49.07,1.09-.36,2.17-.91,3.26-1.26h0ZM436.94,207.98c5.79-60.84,4.16-54.86,4.16-54.86,0,0-.18-5.98-7.42,52.69l3.26,2.18Z"/>
    <path class="st1" d="M535.26,180.28l-6.7-2.35-9.23,26.26,6.7,2.35,9.24-26.26h0ZM535.26,212.33c-.73,2.17-3.26,3.26-5.44,2.53l-19.01-6.88c-2.17-.73-3.26-3.26-2.54-5.43l10.5-29.52c.72-2.17,3.26-3.26,5.43-2.53l19.01,6.88c2.17.73,3.26,3.26,2.53,5.43l-10.5,29.52Z"/>
    <path class="st4" d="M535.26,180.28l-6.7-2.35-9.23,26.26,6.7,2.35,9.24-26.26h0ZM535.26,212.33c-.73,2.17-3.26,3.26-5.44,2.53l-19.01-6.88c-2.17-.73-3.26-3.26-2.54-5.43l10.5-29.52c.72-2.17,3.26-3.26,5.43-2.53l19.01,6.88c2.17.73,3.26,3.26,2.53,5.43l-10.5,29.52ZM535.26,212.33"/>
    <path class="st1" d="M278.32,176.11l-6.7,2.35,8.87,26.26,6.7-2.35-8.87-26.26h0ZM298.24,201.1c.72,2.17-.36,4.53-2.53,5.25l-19.37,6.52c-2.17.73-4.53-.36-5.25-2.53l-9.96-29.7c-.72-2.17.36-4.52,2.54-5.25l19.19-6.52c2.17-.72,4.53.36,5.25,2.72l10.14,29.52Z"/>
    <path class="st4" d="M278.32,176.11l-6.7,2.35,8.87,26.26,6.7-2.35-8.87-26.26h0ZM298.24,201.1c.72,2.17-.36,4.53-2.53,5.25l-19.37,6.52c-2.17.73-4.53-.36-5.25-2.53l-9.96-29.7c-.72-2.17.36-4.52,2.54-5.25l19.19-6.52c2.17-.72,4.53.36,5.25,2.72l10.14,29.52ZM298.24,201.1"/>
    <path class="st1" d="M346.04,158.73l4.89,32.95-7.06,1.09-4.89-32.95-10.68,1.63,5.25,35.13c.36,2.35,2.54,3.8,4.71,3.44l19.92-2.9c2.35-.36,3.8-2.53,3.44-4.71l-5.25-35.13-10.32,1.45Z"/>
    <path class="st4" d="M346.04,158.73l4.89,32.95-7.06,1.09-4.89-32.95-10.68,1.63,5.25,35.13c.36,2.35,2.54,3.8,4.71,3.44l19.92-2.9c2.35-.36,3.8-2.53,3.44-4.71l-5.25-35.13-10.32,1.45ZM346.04,158.73"/>
    <polygon class="st1" points="482.93 162.35 454.86 157.46 453.96 162.89 462.83 164.53 456.86 198.2 467.36 200.01 473.33 166.34 482.2 167.97 482.93 162.35"/>
    <path class="st4" d="M482.93,162.35l-28.07-4.89-.9,5.43,8.87,1.63-5.97,33.68,10.5,1.81,5.98-33.68,8.87,1.63.72-5.61ZM482.93,162.35"/>
    <polygon class="st1" points="603.52 201.28 593.74 218.3 592.29 194.76 586.86 191.68 566.94 226.09 574.91 230.8 584.69 213.78 586.14 237.31 591.57 240.39 611.49 205.99 603.52 201.28"/>
    <path class="st4" d="M603.52,201.28l-9.78,17.02-1.45-23.54-5.43-3.08-19.92,34.4,7.97,4.71,9.77-17.02,1.45,23.54,5.43,3.08,19.92-34.4-7.97-4.71ZM603.52,201.28"/>
    <polygon class="st1" points="210.79 193.86 218.75 208.34 209.88 213.23 201.92 198.75 193.77 203.27 212.96 238.04 221.11 233.51 213.14 219.03 222.01 214.14 229.98 228.62 238.13 224.1 218.75 189.33 210.79 193.86"/>
    <path class="st4" d="M210.79,193.86l7.97,14.48-8.87,4.89-7.97-14.49-8.15,4.52,19.19,34.77,8.15-4.53-7.97-14.48,8.87-4.89,7.97,14.49,8.15-4.52-19.37-34.77-7.97,4.53ZM210.79,193.86"/>
    <path class="st1" d="M403.98,165.07v-4.53l6.34.18-.18,5.98,9.6.18.18-7.42c0-2.36-1.63-4.17-3.62-4.35l-18.11-.36c-1.99,0-3.8,1.81-3.8,4.17l-.18,7.42c-.18,7.43,15.75,12.86,15.57,17.38v4.53l-6.34-.18.18-5.98h-9.6l-.18,8.33c0,2.35,1.63,4.16,3.62,4.34l18.11.36c1.99,0,3.8-1.81,3.8-4.16l.18-8.33c.18-6.88-15.57-13.04-15.57-17.56Z"/>
    <path class="st4" d="M403.98,165.07v-4.53l6.34.18-.18,5.98,9.6.18.18-7.42c0-2.36-1.63-4.17-3.62-4.35l-18.11-.36c-1.99,0-3.8,1.81-3.8,4.17l-.18,7.42c-.18,7.43,15.75,12.86,15.57,17.38v4.53l-6.34-.18.18-5.98h-9.6l-.18,8.33c0,2.35,1.63,4.16,3.62,4.34l18.11.36c1.99,0,3.8-1.81,3.8-4.16l.18-8.33c.18-6.88-15.57-13.04-15.57-17.56ZM403.98,165.07"/>
    <path class="st1" d="M598.08,360.98c0-18.83-.9-35.67,26.44-31.69,27.52,3.98,51.6,7.6,56.13,8.33,10.69,1.63-9.59,9.05-9.59,16.3v81.48c0,8.33-4.35,15.39-17.75,13.4-5.43-.72-11.95-1.63-28.61-4.16-28.25-4.35-26.44-14.48-26.44-40.02l-.18-43.64h0ZM647.15,423.09v-68.08c0-3.62-1.81-7.79-5.98-7.79l-6.52-.91c-10.32-1.27-12.5,1.63-13.77,18.11-.36,5.43-.36,12.68-.36,21.55s.36,16.11.36,21.73c0,18.47,2.72,20.46,8.15,21,5.43.72,12.13,1.63,12.13,1.63,2.72.18,5.98-2.17,5.98-7.24h0ZM196.48,405.71c0,25.53,1.63,35.85-26.44,40.02-28.24,4.35-27.34,3.8-41.1,5.98v-97.41c0-7.24-20.28-14.67-9.6-16.3,4.53-.72,23.36-3.44,50.7-7.42,27.52-3.98,26.44,12.86,26.44,31.69v43.46h0ZM160.09,430.69c3.08-.36,5.61-1.27,7.43-2.35,1.81-1.27,3.26-3.26,4.35-6.52.9-3.08,1.63-7.42,1.99-12.86.36-5.43.36-12.67.36-21.73s-.18-16.12-.36-21.55c-.36-5.43-.91-9.6-1.99-12.31-1.09-2.72-2.35-4.53-4.35-5.25-1.81-.72-4.35-.72-7.43-.36-2.17.36-4.35.54-6.52.91v82.93c2.17-.36,4.35-.73,6.52-.91h0ZM421.73,381.8l6.52-29.7,9.78,42.19s-7.24-5.43-16.3-12.49h0ZM470.62,431.78c-8.87-38.75-21.73-77.5-30.6-116.06-11.95-.36-11.59-.54-23.54-.54-3.98,17.38-8.69,34.77-13.4,51.97-9.05-7.06-16.48-13.04-17.92-14.3-3.8-3.8-4.71,1.81-3.08,3.44.54.54,8.33,9.42,18.29,21-4.89,17.74-9.6,35.49-13.76,53.23,9.96-.18,14.67-.18,24.62,0l7.06-32.41c14.85,17.02,28.43,32.96,28.43,32.96,7.97.18,15.93.54,23.9.72h0ZM506.83,318.43l23.9,59.21,23.9-55.59s6.52,1.09,18.65,2.35v115.16c-7.97-.91-15.03-2.72-23-3.44,0-28.61.91-56.67.91-56.67l-16.29,45.27-9.6-.72-16.3-44.54v54.32c-7.97-.54-13.58-.9-21.55-1.27v-115.16c12.31.54,19.37,1.09,19.37,1.09h0ZM312.36,317.53l34.4,52.15v-53.59c8.87-.36,13.4-.54,22.27-.54v115.16c-5.79,0-12.68.36-12.68.36l-33.5-52.87v53.96c-8.87.36-14.12.91-23,1.45v-115.16c5.25-.36,12.49-.9,12.49-.9h0ZM208.98,325.86c10.32-1.09,14.67-1.63,24.99-2.53,3.62,13.04,14.3,42.55,14.3,42.55,3.62-13.76,10.68-31.32,14.3-45.09,10.5-.91,14.3-1.27,24.81-1.81-9.24,23.9-17.38,47.8-26.8,71.88v45.27c-9.6.73-14.3,1.63-23.72,2.54v-45.27c-9.05-22.45-18.83-45.27-27.88-67.54Z"/>
    <path class="st0" d="M598.08,360.98c0-18.83-.9-35.67,26.44-31.69,27.52,3.98,51.6,7.6,56.13,8.33,10.69,1.63-9.59,9.05-9.59,16.3v81.48c0,8.33-4.35,15.39-17.75,13.4-5.43-.72-11.95-1.63-28.61-4.16-28.25-4.35-26.44-14.48-26.44-40.02l-.18-43.64h0ZM647.15,423.09v-68.08c0-3.62-1.81-7.79-5.98-7.79l-6.52-.91c-10.32-1.27-12.5,1.63-13.77,18.11-.36,5.43-.36,12.68-.36,21.55s.36,16.11.36,21.73c0,18.47,2.72,20.46,8.15,21,5.43.72,12.13,1.63,12.13,1.63,2.72.18,5.98-2.17,5.98-7.24h0ZM196.48,405.71c0,25.53,1.63,35.85-26.44,40.02-28.24,4.35-27.34,3.8-41.1,5.98v-97.41c0-7.24-20.28-14.67-9.6-16.3,4.53-.72,23.36-3.44,50.7-7.42,27.52-3.98,26.44,12.86,26.44,31.69v43.46h0ZM160.09,430.69c3.08-.36,5.61-1.27,7.43-2.35,1.81-1.27,3.26-3.26,4.35-6.52.9-3.08,1.63-7.42,1.99-12.86.36-5.43.36-12.67.36-21.73s-.18-16.12-.36-21.55c-.36-5.43-.91-9.6-1.99-12.31-1.09-2.72-2.35-4.53-4.35-5.25-1.81-.72-4.35-.72-7.43-.36-2.17.36-4.35.54-6.52.91v82.93c2.17-.36,4.35-.73,6.52-.91h0ZM421.73,381.8l6.52-29.7,9.78,42.19s-7.24-5.43-16.3-12.49h0ZM470.62,431.78c-8.87-38.75-21.73-77.5-30.6-116.06-11.95-.36-11.59-.54-23.54-.54-3.98,17.38-8.69,34.77-13.4,51.97-9.05-7.06-16.48-13.04-17.92-14.3-3.8-3.8-4.71,1.81-3.08,3.44.54.54,8.33,9.42,18.29,21-4.89,17.74-9.6,35.49-13.76,53.23,9.96-.18,14.67-.18,24.62,0l7.06-32.41c14.85,17.02,28.43,32.96,28.43,32.96,7.97.18,15.93.54,23.9.72h0ZM506.83,318.43l23.9,59.21,23.9-55.59s6.52,1.09,18.65,2.35v115.16c-7.97-.91-15.03-2.72-23-3.44,0-28.61.91-56.67.91-56.67l-16.29,45.27-9.6-.72-16.3-44.54v54.32c-7.97-.54-13.58-.9-21.55-1.27v-115.16c12.31.54,19.37,1.09,19.37,1.09h0ZM312.36,317.53l34.4,52.15v-53.59c8.87-.36,13.4-.54,22.27-.54v115.16c-5.79,0-12.68.36-12.68.36l-33.5-52.87v53.96c-8.87.36-14.12.91-23,1.45v-115.16c5.25-.36,12.49-.9,12.49-.9h0ZM208.98,325.86c10.32-1.09,14.67-1.63,24.99-2.53,3.62,13.04,14.3,42.55,14.3,42.55,3.62-13.76,10.68-31.32,14.3-45.09,10.5-.91,14.3-1.27,24.81-1.81-9.24,23.9-17.38,47.8-26.8,71.88v45.27c-9.6.73-14.3,1.63-23.72,2.54v-45.27c-9.05-22.45-18.83-45.27-27.88-67.54ZM208.98,325.86"/>
    <path class="st7" d="M105.41,466.72c97.05-13.22,195.37-19.92,294.77-19.92s197.73,6.7,294.77,19.92v-4.53c-97.05-13.22-195.37-19.92-294.77-19.92s-197.72,6.7-294.77,19.92v4.53Z"/>
    <path class="st3" d="M497.6,648.33v2.35h-3.98v11.23h-2.9v-11.23h-4.16v-2.35h11.05ZM508.28,648.33h4.16v13.58h-2.72v-11.23l-2.54,11.41h-2.72l-2.53-11.41v11.41h-2.72v-13.58h4.16l2.53,10.68,2.35-10.86Z"/>
    <path class="st7" d="M361.98,302.86c-86.37,1.45-171.83,7.61-256.57,18.47v4.53c86.55-11.04,174.18-17.38,262.73-18.47-2.17-1.63-4.35-3.08-6.16-4.53h0ZM438.21,302.86c-1.99,1.63-3.98,3.08-6.16,4.35,88.36,1.27,176,7.42,262.73,18.47v-4.53c-84.56-10.86-170.2-17.02-256.57-18.29Z"/>
    <path class="st1" d="M448.16,255.96c0,26.62-21.55,48.16-48.16,48.16s-48.16-21.55-48.16-48.16,21.55-48.16,48.16-48.16,48.16,21.55,48.16,48.16Z"/>
    <path class="st6" d="M426.07,215.4c8.33,7.24,13.58,17.93,13.58,29.88,0,21.91-17.74,39.65-39.65,39.65s-39.65-17.74-39.65-39.65c0-11.95,5.25-22.64,13.58-29.88-13.22,8.51-22.09,23.54-22.09,40.56,0,26.62,21.55,48.16,48.16,48.16s48.16-21.55,48.16-48.16c0-17.02-8.69-31.87-22.09-40.56Z"/>
    <path class="st3" d="M435.67,223.55c-2.72,1.09-5.98,2.17-6.34,1.81,3.26,7.06,3.98,15.03,2.71,19.2,1.81,1.81,5.07,5.43,7.43,8.51.9,5.8.72,12.31-.36,15.39,1.45-2.35,3.8-6.88,4.89-12.13,1.27-.72,2.54-1.45,3.98-1.99-.18-11.95-4.89-22.63-12.31-30.78h0ZM436.58,287.29c0-3.08-.18-8.33-.91-12.31-7.6,8.33-16.66,6.88-16.66,6.88,0,0-1.45,3.44-3.26,6.88-4.71,4.89-7.24,7.24-19.19,7.79,1.45.54,11.22.18,17.02.91l3.8,3.62c7.6-3.08,14.12-7.79,19.19-13.76h0ZM379,280.77s-1.81.18-4.53.36c-7.78-3.44-14.12-11.95-15.93-17.74,3.62,10.14,4.35,15.57,4.53,18.11-1.27,0-2.53-.18-3.8-.18,5.07,8.33,12.86,15.03,21.91,19.01,2.17-1.27,5.43-3.26,10.32-4.35-9.6-4.16-12.49-15.21-12.49-15.21h0ZM363.79,224.28c-7.24,8.33-11.77,19.19-11.95,30.96,2.35,0,4.35.18,5.43,4.53,1.45-4.35,5.79-15.39,10.14-17.02-1.45-3.26-1.27-8.69-1.09-12.13,4.16-6.52,11.77-12.68,11.77-12.68,0,0-7.97,5.25-12.13,8.87-.36-.54-1.27-1.45-2.17-2.53h0ZM400.18,207.8c-5.25,0-10.32.9-15.03,2.35-1.45,2.53-3.44,5.25-3.98,6.88,4.35-1.45,15.93,1.81,17.74,3.8,0-1.09,10.14-4.89,12.86-4.89,2.54,0,15.93,7.06,15.03,6.16-.91-.91-11.59-9.05-12.31-9.78-.36-.36,0-1.26.72-2.35-4.89-1.45-9.96-2.17-15.03-2.17Z"/>
    <path class="st7" d="M356.91,252.52c0,1.63,2.35-3.44,2.35-4.53,0-.91-1.81-8.33-1.99-14.12-2.53,4.89-4.35,10.32-5.07,16.11,2.17.54,4.71,1.63,4.71,2.53h0ZM380.81,291.09s-10.32-1.63-16.84-3.26c3.44,3.98,7.6,7.24,12.13,9.96,3.8-.54,8.87-2.54,8.33-3.08l-3.62-3.62h0ZM434.76,289.28c0-1.63-.36-7.97-.36-7.97,0,0-5.43,1.45-5.43,2.9s-7.79,12.67-8.51,15.39c5.43-2.54,10.32-5.98,14.3-10.32h0ZM441.46,231.34c-2.9-.54-6.7-1.63-6.7-1.63,0,2.35.91,3.98,0,4.89-.9.9,10.14,9.23,13.04,15.21-.91-6.88-3.08-13.04-6.34-18.47h0ZM400.18,207.8c-3.8,0-7.42.36-10.86,1.26l-2.9,5.07s5.25-.18,8.15-.18c2.17-2.17,7.42-4.16,11.77-5.61-1.99-.36-4.16-.54-6.16-.54Z"/>
    <path class="st3" d="M411.41,263.93c1.99-4.35,4.89-11.77,5.43-14.3,3.62-1.63,10.32-5.07,10.32-5.07,0,0-6.34,2.17-11.05,2.9-2.35-2.35-9.23-7.24-13.22-9.6-2.35-5.07-3.44-13.58-3.44-13.58,0,0,0,6.88-1.45,13.22-3.62,1.99-10.5,6.88-13.58,9.78-4.89-.36-13.4-2.9-13.4-2.9,0,0,10.32,6.88,13.4,9.78.54,1.81,1.45,4.16,2.17,6.16,1.45,3.62-1.99,12.67-4.16,16.66,2.53-2.72,8.15-7.42,11.59-8.33,3.26.18,7.97,0,11.23-.54,4.89,2.9,12.67,10.68,12.67,10.68,0,0-5.98-7.6-6.52-14.85h0ZM381.35,278.78c-.36,0,.18-.72,1.27-1.81-.54,1.09-1.09,1.81-1.27,1.81Z"/>
    <path class="st7" d="M400.18,253.61c.54-1.27.73-8.15.36-14.3h-.36c-1.63,0-14.3,8.87-14.3,10.5,0,1.09,2.72,9.05,4.53,13.4,4.35-4.16,9.05-8.51,9.78-9.6Z"/>
    <path class="st2" d="M438.57,269.91c.36-.36.54-.9.73-1.63-.91,1.63-1.45,2.35-.73,1.63Z"/>
    <path class="st5" d="M438.57,269.91c.36-.36.54-.9.73-1.63-.91,1.63-1.45,2.35-.73,1.63ZM438.57,269.91"/>
  </g>
</svg>