<?xml version="1.0" encoding="UTF-8"?>
<svg id="_图层_1" data-name="图层_1" xmlns="http://www.w3.org/2000/svg" xmlns:xlink="http://www.w3.org/1999/xlink" version="1.1" viewBox="0 0 800 800">
  <!-- Created by @FCLOGO 2024-12-5 GMT+8 15:27:32 . https://fclogo.top/ -->
<!-- FOR PERSONAL USE ONLY NOT FOR COMMERCIAL USE -->
  <defs>
    <style>
      .st0 {
        fill: none;
      }

      .st1 {
        fill: #76afe3;
      }

      .st2 {
        fill: #fddd04;
      }

      .st3 {
        fill: #ccc;
      }

      .st4 {
        fill: #fff;
      }

      .st5 {
        fill: #0c2950;
      }

      .st6 {
        clip-path: url(#clippath);
      }
    </style>
    <clipPath id="clippath">
      <path class="st0" d="M645.36,72.58c-81.9-9.04-164.19-13.55-246.46-13.5-81.54.04-163.09,4.54-244.26,13.5v217.34c0,119.33,17.21,202.2,54.16,260.79,49.3,78.16,102.94,135.94,179.35,181.63l11.85,7.09,11.85-7.09c76.42-45.68,130.05-103.47,179.35-181.63,36.95-58.58,54.16-141.45,54.16-260.78V72.58Z"/>
    </clipPath>
  </defs>
  <path class="st3" d="M348.22,774.3c-.79,0-1.38-.22-1.77-.65-.39-.44-.53-1.03-.41-1.79l.25-1.65c.12-.75.45-1.35.98-1.78.53-.44,1.19-.65,1.98-.65s1.33.2,1.72.6c.39.4.55.94.47,1.62h-1.24c.03-.36-.06-.64-.26-.84-.2-.2-.5-.3-.89-.3-.42,0-.76.12-1.03.35-.27.23-.43.56-.5.99l-.26,1.66c-.07.44,0,.77.19,1,.19.23.5.35.92.35.39,0,.72-.1.98-.3.26-.2.44-.48.52-.85h1.24c-.14.69-.47,1.23-.99,1.63-.52.4-1.16.6-1.92.6ZM352.8,774.19l1-6.29h1.19l-.19,1.19c.34-.87.97-1.3,1.91-1.3.67,0,1.17.21,1.49.62.32.42.43.99.31,1.71l-.07.42h-1.27l.06-.32c.07-.45.01-.8-.17-1.04-.18-.24-.48-.36-.88-.36s-.74.12-1.01.37c-.27.24-.43.59-.5,1.03l-.63,3.97h-1.24ZM361.91,774.3c-.77,0-1.35-.22-1.73-.67s-.52-1.04-.4-1.77l.25-1.65c.08-.49.26-.92.52-1.28s.6-.65,1.01-.85c.41-.2.87-.3,1.38-.3.77,0,1.35.22,1.73.67.39.45.52,1.04.39,1.77l-.17,1.12h-3.85l-.09.53c-.15.95.22,1.43,1.11,1.43.72,0,1.17-.25,1.37-.74h1.22c-.17.53-.5.96-1.01,1.28-.5.32-1.09.47-1.76.47ZM361.23,770.22l-.05.29h2.65s.05-.3.05-.3c.07-.47.01-.82-.17-1.07-.18-.25-.49-.37-.92-.37s-.8.13-1.06.38c-.26.25-.43.61-.51,1.08ZM368.33,774.3c-.63,0-1.1-.21-1.41-.64s-.4-1-.27-1.73l.27-1.77c.11-.73.39-1.31.84-1.74.44-.43.98-.64,1.61-.64.47,0,.83.12,1.09.35.26.24.39.56.38.96h.02l.17-1.2h1.24l-1,6.29h-1.22l.19-1.2h-.02c-.12.41-.35.73-.69.97s-.74.35-1.21.35ZM368.93,773.23c.39,0,.72-.12.98-.36.26-.24.43-.57.5-1.01l.25-1.65c.07-.43,0-.76-.18-1-.19-.24-.47-.36-.86-.36s-.72.12-.98.35c-.26.24-.42.57-.49,1.01l-.25,1.65c-.07.44-.01.78.17,1.01.18.23.47.35.88.35ZM376.35,774.19c-.57,0-.99-.16-1.26-.47-.27-.31-.36-.75-.27-1.32l.54-3.39h-1.74l.17-1.12h1.74l.27-1.72h1.24l-.27,1.72h2.47l-.18,1.12h-2.46l-.54,3.39c-.08.44.1.66.53.66h1.72l-.17,1.12h-1.77ZM382.5,774.3c-.77,0-1.35-.22-1.73-.67s-.52-1.04-.4-1.77l.25-1.65c.08-.49.26-.92.52-1.28s.6-.65,1.01-.85c.41-.2.87-.3,1.38-.3.77,0,1.35.22,1.73.67.39.45.52,1.04.39,1.77l-.17,1.12h-3.85l-.09.53c-.15.95.22,1.43,1.11,1.43.72,0,1.17-.25,1.37-.74h1.22c-.17.53-.5.96-1.01,1.28-.5.32-1.09.47-1.76.47ZM381.83,770.22l-.05.29h2.65s.05-.3.05-.3c.07-.47.01-.82-.17-1.07-.18-.25-.49-.37-.92-.37s-.8.13-1.06.38c-.26.25-.43.61-.51,1.08ZM388.92,774.3c-.63,0-1.1-.21-1.4-.64-.3-.42-.39-1-.28-1.73l.27-1.77c.11-.73.39-1.31.84-1.74.44-.43.98-.64,1.61-.64.47,0,.83.12,1.09.35.26.24.39.56.38.96h.02l.21-1.47.3-1.8h1.24l-1.33,8.35h-1.22l.19-1.2h-.02c-.12.41-.35.73-.69.97s-.74.35-1.21.35ZM389.53,773.23c.39,0,.72-.12.98-.36.26-.24.43-.57.5-1.01l.25-1.65c.08-.43.02-.76-.17-1-.19-.24-.48-.36-.87-.36s-.72.12-.98.35c-.26.24-.42.57-.49,1.01l-.25,1.65c-.08.44-.02.78.16,1.01s.48.35.88.35ZM401.02,774.3c-.47,0-.84-.12-1.1-.35-.26-.23-.39-.56-.38-.97h-.01l-.19,1.2h-1.22l1.33-8.35h1.24l-.29,1.8-.27,1.47h.05c.12-.41.35-.73.69-.97.34-.23.74-.35,1.21-.35.63,0,1.1.21,1.4.64.3.43.39,1.01.28,1.74l-.27,1.77c-.11.73-.39,1.31-.84,1.73-.45.42-.98.64-1.61.64ZM400.77,773.23c.4,0,.72-.12.98-.35.26-.23.42-.57.5-1.01l.25-1.65c.07-.43.01-.77-.17-1.01-.18-.24-.47-.35-.87-.35s-.72.12-.98.36-.43.57-.5,1l-.25,1.65c-.07.44-.01.77.17,1.01.18.24.47.36.87.36ZM405.47,776.25l.17-1.06h1.93c.64,0,1.01-.3,1.1-.9l.1-.67.21-1.19h-.03c-.12.42-.35.74-.68.97-.33.23-.73.34-1.2.34-.63,0-1.09-.2-1.4-.6s-.41-.94-.3-1.63l.58-3.6h1.24l-.56,3.48c-.06.41,0,.73.18.96s.47.34.85.34.72-.12.98-.37c.27-.24.43-.58.49-1.02l.54-3.4h1.24l-1.01,6.41c-.1.6-.37,1.08-.81,1.42-.44.35-1,.52-1.67.52h-1.95ZM417.79,770.09h3.22l.54-1.85h-5.47l-1.71,6.44h2.15l.59-2.1h3.03l.44-1.71h-3.03l.24-.78ZM424.23,772.92c-.59,0-1.02-.39-1.02-1.12,0-.88.63-1.76,1.61-1.76.49,0,.88.24,1.02.78l1.95-.83c-.29-1.17-1.27-1.9-2.64-1.9-2.78,0-4.15,2.15-4.15,3.9s1.27,2.83,3.07,2.83c1.37,0,2.34-.59,2.98-1.42l-1.51-1.17c-.39.44-.83.68-1.32.68ZM430.91,768.23h-2.15l-1.76,6.44h5.12l.49-1.85h-2.93l1.22-4.59ZM439.75,771.01c0-1.66-1.32-2.93-3.22-2.93-2.2,0-3.81,1.81-3.81,3.81,0,1.66,1.32,2.93,3.22,2.93,2.2,0,3.81-1.81,3.81-3.81ZM434.92,771.7c0-.83.59-1.71,1.51-1.71.78,0,1.17.54,1.17,1.22,0,.83-.59,1.71-1.51,1.71-.78,0-1.17-.54-1.17-1.22ZM443.21,772.23h1.07l-.2.68c-.15.05-.34.1-.59.1-.68,0-1.27-.39-1.27-1.22,0-1.02.73-1.9,1.95-1.9.59,0,1.12.24,1.51.59l1.37-1.37c-.44-.54-1.51-1.07-2.73-1.07-2.59,0-4.29,1.76-4.29,3.86s1.61,2.88,3.22,2.88c.93,0,1.85-.29,2.49-.68l.93-3.32h-3.12l-.34,1.46ZM450.78,768.08c-2.2,0-3.81,1.81-3.81,3.81,0,1.66,1.32,2.93,3.22,2.93,2.2,0,3.81-1.81,3.81-3.81,0-1.66-1.32-2.93-3.22-2.93ZM450.34,772.92c-.78,0-1.17-.54-1.17-1.22,0-.83.59-1.71,1.51-1.71.78,0,1.17.54,1.17,1.22,0,.83-.59,1.71-1.51,1.71ZM437.94,767.5c-.05.29.1.49.44.49s.54-.2.63-.49c.05-.24-.1-.49-.44-.49s-.59.24-.63.49ZM432.13,765.5c-.44,0-.73.24-.78.59s.1.59.54.59.73-.24.78-.59c.1-.34-.1-.59-.54-.59ZM433.01,767.3c-.1.54.15.88.83.88.63,0,1.07-.39,1.17-.88s-.15-.88-.83-.88c-.68,0-1.07.39-1.17.88ZM439.6,777.55l-2.44-1.81h-1.51l4.25,3.17,1.61-3.17h-.98l-.93,1.81ZM425.84,767.16l-2-1.46,23.13-2.78-2.15,4.25h1.02l2.68-5.32-26.99,3.22,2.78,2.1h1.51ZM338.72,785.79l.61-3.83h2.32l-.08.52h-1.76l-.18,1.14h1.63l-.08.52h-1.62l-.26,1.64h-.57ZM342.97,785.84c-.36,0-.62-.1-.8-.3-.17-.2-.23-.47-.18-.82l.27-1.7c.06-.34.2-.61.44-.82.24-.2.54-.3.89-.3s.62.1.8.3c.17.2.24.47.18.81l-.27,1.71c-.06.34-.2.62-.44.82-.24.2-.54.3-.9.3ZM343.05,785.33c.19,0,.35-.05.47-.16.12-.11.19-.26.23-.46l.27-1.7c.03-.2,0-.35-.08-.46-.08-.11-.22-.16-.41-.16s-.35.05-.46.16c-.12.1-.19.26-.22.46l-.27,1.7c-.03.2,0,.35.08.46s.22.16.41.16ZM345,785.79l.61-3.83h1.2c.24,0,.44.05.6.14.16.09.28.22.36.39s.09.37.05.59c-.04.26-.14.48-.3.67-.16.19-.37.32-.6.39l.54,1.64h-.62l-.48-1.57h-.54l-.25,1.57h-.57ZM345.89,783.71h.64c.19,0,.35-.06.48-.17.13-.11.21-.26.24-.45.03-.19,0-.35-.09-.46-.09-.11-.24-.17-.43-.17h-.64l-.2,1.25ZM349.54,785.79l.61-3.83h1.25c.37,0,.65.1.84.31.19.21.26.49.2.84-.04.23-.12.44-.25.61s-.29.31-.49.4c-.2.09-.42.14-.66.14h-.69l-.24,1.52h-.57ZM350.43,783.75h.69c.19,0,.36-.06.49-.18.14-.12.22-.27.25-.47s0-.35-.1-.47-.25-.18-.44-.18h-.69l-.21,1.29ZM352.75,785.79l.61-3.83h2.25l-.08.5h-1.7l-.17,1.09h1.51l-.08.5h-1.51l-.19,1.24h1.69l-.08.5h-2.25ZM355.84,785.79l.61-3.83h1.2c.24,0,.44.05.6.14.16.09.28.22.36.39s.09.37.05.59c-.04.26-.14.48-.3.67-.16.19-.37.32-.6.39l.54,1.64h-.62l-.48-1.57h-.54l-.25,1.57h-.57ZM356.74,783.71h.64c.19,0,.35-.06.48-.17.13-.11.21-.26.24-.45.03-.19,0-.35-.09-.46-.09-.11-.24-.17-.43-.17h-.64l-.2,1.25ZM360.13,785.84c-.39,0-.67-.1-.87-.29-.19-.19-.26-.45-.22-.78h.57c-.03.17.01.31.12.41.11.1.27.15.48.15.2,0,.37-.05.5-.15.13-.1.21-.23.24-.4.02-.15,0-.28-.06-.39-.06-.11-.16-.18-.29-.22l-.46-.14c-.27-.08-.46-.22-.59-.41-.13-.19-.17-.42-.13-.68.04-.21.11-.39.23-.55s.27-.28.46-.37.4-.13.64-.13c.35,0,.62.1.8.29.18.19.25.44.2.76h-.57c.03-.17,0-.3-.09-.4-.09-.1-.23-.14-.42-.14s-.34.04-.46.13c-.12.09-.19.21-.21.38-.02.15,0,.28.05.39s.16.18.29.22l.47.15c.26.08.46.22.58.41.12.19.17.42.12.69-.04.22-.12.41-.24.57-.13.16-.29.29-.49.38-.2.09-.42.13-.66.13ZM363.27,785.84c-.36,0-.62-.1-.8-.3-.17-.2-.23-.47-.18-.82l.27-1.7c.06-.34.2-.61.44-.82.24-.2.54-.3.89-.3s.62.1.8.3c.17.2.24.47.18.81l-.27,1.71c-.06.34-.2.62-.44.82-.24.2-.54.3-.9.3ZM363.34,785.33c.19,0,.35-.05.47-.16.12-.11.19-.26.23-.46l.27-1.7c.03-.2,0-.35-.08-.46-.08-.11-.22-.16-.41-.16s-.35.05-.46.16c-.12.1-.19.26-.22.46l-.27,1.7c-.03.2,0,.35.08.46s.22.16.41.16ZM365.28,785.79l.61-3.83h.71l.62,3.19c0-.1.02-.22.03-.36.01-.14.03-.29.04-.44.02-.15.04-.29.06-.41l.31-1.98h.52l-.61,3.83h-.71l-.61-3.19c0,.09-.02.21-.03.34s-.03.28-.04.42c-.02.15-.04.28-.06.41l-.31,2.01h-.53ZM368.23,785.79l1.59-3.83h.75l.37,3.83h-.56l-.07-.97h-1.09l-.39.97h-.59ZM369.39,784.34h.87l-.09-1.1c-.02-.2-.03-.37-.04-.51,0-.14-.01-.24-.01-.3-.02.06-.05.16-.1.3s-.11.31-.19.5l-.44,1.11ZM371.72,785.79l.61-3.83h.57l-.52,3.31h1.67l-.08.52h-2.25ZM376.68,785.84c-.37,0-.63-.1-.8-.3-.17-.2-.22-.47-.17-.82l.44-2.76h.57l-.44,2.76c-.03.2,0,.35.07.46.08.11.21.17.41.17s.35-.06.46-.17c.12-.11.19-.27.22-.46l.44-2.76h.57l-.44,2.76c-.06.35-.2.62-.43.82-.23.2-.53.3-.9.3ZM379.84,785.84c-.39,0-.67-.1-.87-.29-.19-.19-.26-.45-.22-.78h.57c-.03.17.01.31.12.41.11.1.27.15.48.15.2,0,.37-.05.5-.15.13-.1.21-.23.24-.4.02-.15,0-.28-.06-.39-.06-.11-.16-.18-.29-.22l-.46-.14c-.27-.08-.46-.22-.59-.41-.13-.19-.17-.42-.13-.68.04-.21.11-.39.23-.55s.27-.28.46-.37.4-.13.64-.13c.35,0,.62.1.8.29.18.19.25.44.2.76h-.57c.03-.17,0-.3-.09-.4-.09-.1-.23-.14-.42-.14s-.34.04-.46.13c-.12.09-.19.21-.21.38-.02.15,0,.28.05.39s.16.18.29.22l.47.15c.26.08.46.22.58.41.12.19.17.42.12.69-.04.22-.12.41-.24.57-.13.16-.29.29-.49.38-.2.09-.42.13-.66.13ZM381.91,785.79l.61-3.83h2.25l-.08.5h-1.7l-.17,1.09h1.51l-.08.5h-1.51l-.19,1.24h1.69l-.08.5h-2.25ZM386.94,785.84c-.36,0-.62-.1-.8-.3-.17-.2-.23-.47-.18-.82l.27-1.7c.06-.34.2-.61.44-.82.24-.2.54-.3.89-.3s.62.1.8.3c.17.2.24.47.18.81l-.27,1.71c-.06.34-.2.62-.44.82-.24.2-.54.3-.9.3ZM387.02,785.33c.19,0,.35-.05.47-.16.12-.11.19-.26.23-.46l.27-1.7c.03-.2,0-.35-.08-.46-.08-.11-.22-.16-.41-.16s-.35.05-.46.16c-.12.1-.19.26-.22.46l-.27,1.7c-.03.2,0,.35.08.46s.22.16.41.16ZM388.95,785.79l.61-3.83h.71l.62,3.19c0-.1.02-.22.03-.36.01-.14.03-.29.04-.44.02-.15.04-.29.06-.41l.31-1.98h.52l-.61,3.83h-.71l-.61-3.19c0,.09-.02.21-.03.34s-.03.28-.04.42c-.02.15-.04.28-.06.41l-.31,2.01h-.53ZM392.25,785.79l.61-3.83h.57l-.52,3.31h1.67l-.08.52h-2.25ZM396.12,785.79l.22-1.41-.75-2.42h.58l.45,1.45c.03.09.05.18.07.27.02.08.03.15.03.19.02-.04.05-.1.09-.19.04-.08.09-.17.14-.27l.9-1.45h.6l-1.53,2.42-.22,1.41h-.57ZM399.22,785.79l.61-3.83h.71l.62,3.19c0-.1.02-.22.03-.36.01-.14.03-.29.04-.44.02-.15.04-.29.06-.41l.31-1.98h.52l-.61,3.83h-.71l-.61-3.19c0,.09-.02.21-.03.34s-.03.28-.04.42c-.02.15-.04.28-.06.41l-.31,2.01h-.53ZM403.51,785.84c-.36,0-.62-.1-.8-.3-.18-.2-.23-.47-.18-.82l.27-1.7c.06-.34.2-.61.44-.82.24-.2.54-.3.89-.3s.62.1.8.3c.17.2.24.47.18.81l-.27,1.71c-.06.34-.2.62-.44.82-.24.2-.54.3-.89.3ZM403.58,785.33c.19,0,.35-.05.47-.16.12-.11.19-.26.23-.46l.27-1.7c.03-.2,0-.35-.08-.46-.08-.11-.22-.16-.41-.16s-.35.05-.46.16c-.12.1-.19.26-.22.46l-.27,1.7c-.03.2,0,.35.08.46.08.11.22.16.41.16ZM406.38,785.79l.52-3.31h-1.02l.08-.52h2.62l-.08.52h-1.03l-.52,3.31h-.57ZM409.52,785.79l.61-3.83h2.32l-.08.52h-1.76l-.18,1.14h1.63l-.08.52h-1.62l-.26,1.64h-.57ZM413.77,785.84c-.36,0-.62-.1-.8-.3-.18-.2-.23-.47-.18-.82l.27-1.7c.06-.34.2-.61.44-.82.24-.2.54-.3.89-.3s.62.1.8.3c.17.2.24.47.18.81l-.27,1.71c-.06.34-.2.62-.44.82-.24.2-.54.3-.89.3ZM413.85,785.33c.19,0,.35-.05.47-.16.12-.11.19-.26.23-.46l.27-1.7c.03-.2,0-.35-.08-.46-.08-.11-.22-.16-.41-.16s-.35.05-.46.16c-.12.1-.19.26-.22.46l-.27,1.7c-.03.2,0,.35.08.46.08.11.22.16.41.16ZM415.8,785.79l.61-3.83h1.2c.24,0,.44.05.6.14.16.09.28.22.36.39s.09.37.05.59c-.04.26-.14.48-.3.67-.16.19-.37.32-.6.39l.54,1.64h-.62l-.48-1.57h-.54l-.25,1.57h-.57ZM416.69,783.71h.64c.19,0,.35-.06.48-.17.13-.11.21-.26.24-.45.03-.19,0-.35-.09-.46-.09-.11-.24-.17-.43-.17h-.64l-.2,1.25ZM420.91,785.84c-.36,0-.63-.1-.81-.3-.18-.2-.24-.47-.19-.82l.27-1.7c.06-.35.21-.62.45-.82s.55-.3.91-.3.63.1.81.3c.18.2.24.47.19.82h-.57c.03-.2,0-.35-.09-.46-.09-.11-.23-.16-.42-.16s-.35.05-.47.16c-.12.1-.2.26-.23.45l-.27,1.71c-.03.2,0,.35.09.46.09.11.23.16.42.16s.35-.05.47-.16.2-.26.23-.46h.57c-.03.23-.11.43-.24.59s-.28.3-.47.39c-.19.09-.4.14-.64.14ZM424.03,785.84c-.36,0-.62-.1-.8-.3-.18-.2-.23-.47-.18-.82l.27-1.7c.06-.34.2-.61.44-.82.24-.2.54-.3.89-.3s.62.1.8.3c.17.2.24.47.18.81l-.27,1.71c-.06.34-.2.62-.44.82-.24.2-.54.3-.89.3ZM424.11,785.33c.19,0,.35-.05.47-.16.12-.11.19-.26.23-.46l.27-1.7c.03-.2,0-.35-.08-.46-.08-.11-.22-.16-.41-.16s-.35.05-.46.16c-.12.1-.19.26-.22.46l-.27,1.7c-.03.2,0,.35.08.46.08.11.22.16.41.16ZM425.97,785.79l.61-3.83h.69l.18,1.23c.02.12.04.23.05.33.01.1.02.18.03.24.02-.06.05-.14.09-.24.04-.11.09-.22.15-.34l.57-1.22h.71l-.61,3.83h-.54l.2-1.29c.02-.17.06-.35.1-.55.04-.2.09-.4.14-.61s.1-.4.14-.59c.05-.19.09-.35.13-.49l-.86,1.86h-.55l-.28-1.86c0,.14-.01.29-.02.47s-.02.37-.04.57c-.02.2-.04.41-.06.61-.02.2-.05.4-.08.57l-.2,1.29h-.54ZM429.11,785.79l.61-3.83h.69l.18,1.23c.02.12.04.23.05.33.01.1.02.18.03.24.02-.06.05-.14.09-.24.04-.11.09-.22.15-.34l.57-1.22h.71l-.61,3.83h-.54l.2-1.29c.02-.17.06-.35.1-.55.04-.2.09-.4.14-.61s.1-.4.14-.59c.05-.19.09-.35.13-.49l-.86,1.86h-.55l-.28-1.86c0,.14-.01.29-.02.47s-.02.37-.04.57c-.02.2-.04.41-.06.61-.02.2-.05.4-.08.57l-.2,1.29h-.54ZM432.41,785.79l.61-3.83h2.25l-.08.5h-1.7l-.17,1.09h1.51l-.08.5h-1.51l-.19,1.24h1.69l-.08.5h-2.25ZM435.51,785.79l.61-3.83h1.2c.24,0,.44.05.6.14.16.09.28.22.36.39s.09.37.05.59c-.04.26-.14.48-.3.67-.16.19-.37.32-.6.39l.54,1.64h-.62l-.48-1.57h-.54l-.25,1.57h-.57ZM436.4,783.71h.64c.19,0,.35-.06.48-.17.13-.11.21-.26.24-.45.03-.19,0-.35-.09-.46-.09-.11-.24-.17-.43-.17h-.64l-.2,1.25ZM439.8,785.84c-.36,0-.63-.1-.81-.3-.18-.2-.24-.47-.19-.82l.27-1.7c.06-.35.21-.62.45-.82s.55-.3.91-.3.63.1.81.3c.18.2.24.47.19.82h-.57c.03-.2,0-.35-.09-.46-.09-.11-.23-.16-.42-.16s-.35.05-.47.16c-.12.1-.2.26-.23.45l-.27,1.71c-.03.2,0,.35.09.46.09.11.23.16.42.16s.35-.05.47-.16.2-.26.23-.46h.57c-.03.23-.11.43-.24.59s-.28.3-.47.39c-.19.09-.4.14-.64.14ZM441.88,785.79l.08-.5h.78l.45-2.82h-.78l.08-.5h2.13l-.08.5h-.78l-.45,2.82h.78l-.08.5h-2.13ZM444.74,785.79l1.59-3.83h.75l.37,3.83h-.56l-.07-.97h-1.09l-.39.97h-.59ZM445.9,784.34h.87l-.09-1.1c-.02-.2-.03-.37-.04-.51,0-.14-.01-.24-.01-.3-.02.06-.05.16-.1.3s-.11.31-.19.5l-.44,1.11ZM448.24,785.79l.61-3.83h.57l-.52,3.31h1.67l-.08.52h-2.25ZM453.19,785.84c-.37,0-.63-.1-.8-.3-.17-.2-.22-.47-.17-.82l.44-2.76h.57l-.44,2.76c-.03.2,0,.35.07.46.08.11.21.17.41.17s.35-.06.46-.17c.12-.11.19-.27.22-.46l.44-2.76h.57l-.44,2.76c-.06.35-.2.62-.43.82-.23.2-.53.3-.9.3ZM456.36,785.84c-.39,0-.67-.1-.87-.29-.19-.19-.26-.45-.22-.78h.57c-.03.17.01.31.12.41.11.1.27.15.48.15.2,0,.37-.05.5-.15s.21-.23.24-.4c.02-.15,0-.28-.06-.39s-.16-.18-.29-.22l-.46-.14c-.27-.08-.46-.22-.59-.41-.13-.19-.17-.42-.13-.68.04-.21.11-.39.23-.55s.27-.28.46-.37c.19-.09.4-.13.64-.13.35,0,.62.1.8.29.18.19.25.44.2.76h-.57c.03-.17,0-.3-.09-.4-.09-.1-.23-.14-.42-.14s-.34.04-.46.13c-.12.09-.19.21-.21.38-.02.15,0,.28.05.39s.16.18.29.22l.47.15c.26.08.46.22.58.41.12.19.17.42.12.69-.04.22-.12.41-.24.57-.13.16-.29.29-.49.38-.2.09-.42.13-.66.13ZM458.42,785.79l.61-3.83h2.25l-.08.5h-1.7l-.17,1.09h1.51l-.08.5h-1.51l-.19,1.24h1.69l-.08.5h-2.25Z"/>
  <g id="g7691">
    <path id="path7697" class="st1" d="M625.79,696.87l-11.8-3.72c-67.99-21.4-143.55-32.26-214.81-32.26s-145.17,10.86-213.16,32.26l-11.8,3.72v-12.38l1.65-83.82v-6.65l6.35-2c69.76-22.04,143.85-38.16,216.97-38.16s148.85,16.12,218.62,38.16l6.34,2v6.65l1.65,83.82v12.38Z"/>
    <path id="path7699" class="st5" d="M616.71,684.5c-68.89-21.69-145.36-32.68-217.54-32.68s-147,10.99-215.89,32.68l1.65-83.82c68.88-21.75,142.05-37.74,214.24-37.74s147.01,15.99,215.88,37.74l1.65,83.82h0Z"/>
    <path id="path7701" class="st1" d="M596.8,665.2c-19.65,1.29-69.15-1.31-83.64-3.71l-3.52-30.99,81.3,11.96,5.86,22.74h0Z"/>
    <path id="path7703" class="st1" d="M203.2,665.2c19.65,1.29,69.15-1.31,83.64-3.71l3.52-30.99-81.3,11.96s-5.86,22.74-5.86,22.74Z"/>
    <path id="path7705" class="st1" d="M400,750l-4.66-2.78-11.85-7.09c-73.22-43.77-129.47-100.7-182.37-184.58-37.9-60.09-55.56-144.49-55.56-265.63V64.45l8.08-.9c81.14-8.96,163.66-13.52,245.25-13.56h1.14c81.98,0,164.86,4.56,246.32,13.56l8.08.9v225.47c0,121.13-17.66,205.53-55.56,265.63-52.9,83.88-109.15,140.81-182.37,184.58l-11.85,7.09-4.66,2.78Z"/>
    <path id="path7707" class="st5" d="M645.36,72.58c-81.9-9.04-164.19-13.55-246.46-13.5-81.54.04-163.09,4.54-244.26,13.5v217.34c0,119.33,17.21,202.2,54.16,260.79,49.3,78.16,102.94,135.94,179.35,181.63l11.85,7.09,11.85-7.09c76.42-45.68,130.05-103.47,179.35-181.63,36.95-58.58,54.16-141.45,54.16-260.78V72.58Z"/>
    <path id="path7709" class="st2" d="M399,133.04c-73.89.31-147.79,4.66-221.34,13.06v143.83c0,108.67,14.27,190.86,50.61,248.45,43.4,68.78,92.94,125.39,171.73,172.48,78.78-47.09,128.33-103.7,171.73-172.48,36.34-57.59,50.62-139.78,50.62-248.45v-143.83c-74.22-8.47-148.78-12.82-223.34-13.06"/>
    <path id="path7711" class="st5" d="M399.1,185.37c-66.34,1.13-131.02,5.37-197.14,12.72v88.83c0,45.85,4.75,145.45,37.21,195.81,37.99,58.92,90.53,107.68,160.82,147.84,70.3-40.16,122.83-88.92,160.82-147.84,32.47-50.36,37.22-149.96,37.22-195.81v-88.83c-66.72-7.41-132.01-11.65-198.95-12.72"/>
    <g id="g7713">
      <g class="st6">
        <g id="g7715">
          <path id="path7721" class="st5" d="M245.26,569.49l16.03-49.32,42.69-131.36-111.78-81.21-41.97-30.49h190.04l42.7-131.42,16.02-49.33,16.04,49.33,42.71,131.42h190.05l-41.96,30.49-111.78,81.21,42.69,131.36,16.03,49.31-41.96-30.47-111.8-81.17-111.78,81.17-41.97,30.47h0Z"/>
          <path id="path7723" class="st2" d="M470.21,455.93l-25.85-79.52-1.35-4.14,3.52-2.56,29.71-21.59,37.99-27.61h-88.02l-1.34-4.14-25.87-79.57-25.87,79.57-1.34,4.14h-88l67.69,49.18,3.52,2.55-1.34,4.14-25.85,79.55,67.67-49.16,3.52-2.56,3.52,2.56,67.7,49.16h0ZM595.91,293.96l-121.68,88.41,46.49,143-121.71-88.36-121.68,88.36,46.47-143-121.68-88.41h150.41l46.48-143.06,46.5,143.06h150.41Z"/>
          <path id="path7725" class="st2" d="M519.52,313.83l-198.77,47.6,13.39,17.76,185.3-60.78.07-4.57Z"/>
          <path id="path7727" class="st2" d="M522.7,315.71l-184.09,78.42-7.87,25.12,186.65-94.09,5.3-9.45Z"/>
          <path id="path7729" class="st1" d="M399.01,497.15c10.47,0,20.68-1.14,30.52-3.29l-.3-.22-5.27-3.82-1.95-1.42-3.94-2.86-2.95-2.14-3.07-2.22-1.45-1.06-4.69-3.41-4.66-3.38-1.61-1.16-.34-.24-.29-.2h-.01l-.29.2-.34.24-1.61,1.16-4.66,3.38-4.7,3.41-1.44,1.06-3.07,2.22-2.95,2.14-3.93,2.86-1.95,1.42-5.27,3.82-.29.22c9.83,2.15,20.04,3.29,30.52,3.29M399.01,504.58c-11.69,0-23.07-1.34-33.98-3.87h-.01s-.02,0-.02,0h0c-4.43-1.36-7.55-1.66-7.55-7.83,0-.64,0-1.22.03-1.76h0c.07-1.77.33-2.99,1.33-3.83l40.2-29.43h.01s40.2,29.43,40.2,29.43c1.01.85,1.27,2.06,1.34,3.83h0c.02.54.02,1.12.02,1.76,0,6.18-3.12,6.48-7.54,7.83h0s-.01,0-.02.01h-.02c-10.92,2.52-22.29,3.87-33.98,3.87"/>
          <path id="path7731" class="st1" d="M317.18,245.31c-8.48,6.16-16.06,13.09-22.76,20.6h.37s6.51,0,6.51,0h2.42s4.87.01,4.87.01h3.64s3.79-.01,3.79-.01h7.59s5.76-.01,5.76-.01h2.41s.35,0,.35,0h0s.12-.35.12-.35l.13-.39.61-1.89,1.79-5.48,1.8-5.51.55-1.7,1.18-3.61,1.13-3.46,1.5-4.63.74-2.3,2.02-6.19.12-.35c-9.22,4.05-18.15,9.12-26.63,15.28M312.81,239.3c9.46-6.87,19.45-12.47,29.77-16.85h0s.02-.01.02-.01h0c4.37-1.51,7.08-3.1,10.71,1.9.38.53.71,1,1.01,1.44,0,0,0,0,0,0,.98,1.47,1.48,2.61,1.17,3.88l-15.22,47.44h0s-49.82-.18-49.82-.18c-1.32-.09-2.25-.92-3.34-2.31,0,0,0,0,0,0-.33-.42-.67-.88-1.05-1.41-3.63-5-1.28-7.08,1.5-10.78h0s0-.01.01-.02h0c7.35-8.47,15.77-16.24,25.22-23.11"/>
          <path id="path7733" class="st1" d="M266.6,400.95c3.24,9.97,7.48,19.32,12.57,28.01l.11-.35,2.01-6.2.75-2.3,1.5-4.62,1.12-3.47,1.17-3.6.55-1.71,1.79-5.51,1.77-5.48.61-1.89.13-.39.11-.34h0s-.29-.23-.29-.23l-.34-.24-1.6-1.17-4.66-3.39-4.69-3.42-1.45-1.05-3.06-2.23-2.94-2.15-3.94-2.86-1.95-1.42-5.27-3.83-.3-.22c1,10.02,3.06,20.08,6.3,30.05M259.54,403.25c-3.61-11.12-5.85-22.35-6.83-33.51h0s0-.02,0-.03h0c-.08-4.63-.76-7.69,5.12-9.6.61-.2,1.16-.38,1.68-.52h0c1.7-.48,2.94-.61,4.05.08l40.42,29.14h0s-15.57,47.33-15.57,47.33c-.5,1.22-1.57,1.84-3.23,2.46h0c-.5.19-1.06.37-1.66.57-5.87,1.91-7.13-.97-9.78-4.76,0,0,0,0,0-.02,0,0,0,0,0-.01-5.78-9.6-10.57-20.01-14.18-31.12"/>
          <path id="path7735" class="st1" d="M480.84,245.31c-8.48-6.16-17.41-11.23-26.63-15.28l.12.35,2.02,6.19.74,2.3,1.5,4.63,1.13,3.46,1.18,3.61.55,1.7,1.79,5.51,1.79,5.48.61,1.89.14.39.11.34h0s.36.01.36.01h.41s1.99,0,1.99,0h5.76s5.8.01,5.8.01h5.58s3.65.01,3.65.01h7.28s6.51,0,6.51,0h.37c-6.69-7.52-14.28-14.45-22.76-20.6M485.2,239.3c9.46,6.87,17.87,14.64,25.22,23.1h0s.01.02.01.02h0c2.79,3.7,5.14,5.77,1.5,10.78-.38.52-.72.98-1.05,1.41h0c-1.1,1.39-2.02,2.22-3.34,2.32l-49.82.18h0l-15.22-47.44c-.32-1.28.19-2.42,1.17-3.89h0c.3-.45.64-.92,1.02-1.44,3.63-4.99,6.33-3.41,10.71-1.9h0s.01,0,.02,0c0,0,0,0,.01,0,10.32,4.38,20.31,9.98,29.76,16.85"/>
          <path id="path7737" class="st1" d="M531.41,400.95c3.24-9.97,5.3-20.03,6.31-30.05l-.3.22-5.26,3.83-1.96,1.42-3.94,2.86-2.94,2.15-3.06,2.23-1.45,1.05-4.69,3.41-4.65,3.39-1.61,1.17-.33.24-.29.22h0s.11.35.11.35l.12.39.61,1.89,1.77,5.48,1.79,5.51.56,1.7,1.16,3.61,1.12,3.46,1.51,4.63.75,2.3,2.01,6.19.12.35c5.08-8.69,9.32-18.04,12.56-28.01M538.48,403.25c-3.61,11.12-8.4,21.52-14.18,31.12,0,0,0,.01,0,.01h0s0,.02,0,.02c-2.65,3.79-3.91,6.67-9.78,4.76-.61-.2-1.16-.38-1.66-.57h0c-1.66-.61-2.73-1.24-3.23-2.46l-15.57-47.33h0s40.42-29.14,40.42-29.14c1.12-.7,2.36-.57,4.06-.09,0,0,0,0,0,0,.51.14,1.07.32,1.68.52,5.87,1.91,5.2,4.97,5.11,9.6h0s0,.02,0,.02h0c-.97,11.17-3.21,22.41-6.83,33.53"/>
          <path id="path7739" class="st5" d="M596.4,677.48c-128.27-41.68-266.44-41.68-394.71,0v-131.71c128.27-41.68,266.44-41.68,394.71,0v131.71Z"/>
        </g>
      </g>
    </g>
    <path id="path7741" class="st4" d="M225.79,81.21c.17.19.25.43.24.71v40.51c0,.33-.09.61-.3.85-.2.24-.45.36-.75.39-2.46.19-4.91.38-7.37.57-.29.03-.53-.07-.71-.28-.19-.21-.28-.48-.28-.8v-21.48c-1.28,3.57-2.57,7.14-3.85,10.71-.48,1.34-.96,2.67-1.43,3.97-.48,1.31-.9,2.47-1.26,3.5-.37,1.03-.67,1.88-.91,2.55-.24.67-.38,1.03-.41,1.08-.04.14-.08.29-.11.44-.11.29-.3.55-.58.78-.28.23-.56.35-.85.38-2.13.18-4.25.36-6.38.54-.29.03-.58-.05-.85-.23-.28-.18-.46-.41-.58-.69-.06-.14-.11-.28-.17-.41-.04-.04-.18-.37-.41-1.01-.23-.63-.54-1.43-.9-2.39-.37-.97-.78-2.06-1.24-3.29-.46-1.22-.92-2.47-1.4-3.73-1.13-2.96-2.4-6.31-3.79-10.06v21.48c0,.77-.35,1.19-1.05,1.25-2.44.23-4.87.45-7.31.68-.7.07-1.04-.29-1.04-1.06v-40.52c0-.45.16-.79.49-1.02.11-.13.28-.21.49-.23.02,0,.03,0,.06,0,2.53-.24,5.06-.48,7.59-.7.2-.02.4-.04.6-.06.29-.03.58.05.85.23.28.18.46.41.58.69,3.76,9.23,7.51,18.47,11.27,27.71,3.76-9.88,7.52-19.76,11.27-29.63.11-.29.3-.55.58-.78.27-.22.55-.35.85-.37.2-.02.4-.03.6-.04,2.55-.2,5.1-.4,7.64-.6.02,0,.04,0,.06,0,.06,0,.11,0,.16-.01.22.07.41.19.58.39"/>
    <path id="path7743" class="st4" d="M256.93,120.31c0,.77-.35,1.18-1.05,1.22-2.53.16-5.07.32-7.6.49-.7.04-1.05-.32-1.05-1.1v-40.51c0-.77.35-1.19,1.05-1.23,2.53-.17,5.07-.33,7.6-.49.7-.04,1.05.33,1.05,1.1v40.51h0Z"/>
    <path id="path7745" class="st4" d="M310.12,76.3c.2.22.3.49.3.81v40.51c0,.33-.11.61-.3.84-.2.23-.45.35-.74.36-2.43.09-4.85.19-7.27.29-.23.01-.44.02-.66.03-.3.02-.59-.07-.89-.24-.29-.17-.51-.39-.66-.67-4.06-8.15-8.12-16.29-12.18-24.42v24.79c0,.77-.34,1.17-1.05,1.21-2.53.12-5.07.25-7.6.38-.7.04-1.05-.33-1.05-1.11v-40.51c0-.77.35-1.18,1.05-1.22,2.61-.14,5.22-.27,7.82-.4.29-.01.59.06.89.23.29.17.51.39.66.67,4.08,8.15,8.15,16.3,12.23,24.47v-24.85c0-.33.1-.6.3-.84.2-.23.45-.35.75-.36,2.55-.1,5.11-.22,7.66-.32.29-.01.54.09.74.31"/>
    <path id="path7747" class="st4" d="M363.76,74.84c.2.22.3.49.3.82v40.51c0,.33-.11.6-.3.83-.2.23-.45.34-.74.35-2.43.04-4.86.08-7.28.13-.22,0-.44.01-.66.02-.29,0-.59-.08-.88-.26-.3-.18-.51-.41-.66-.69-4.06-8.25-8.13-16.48-12.18-24.7v24.79c0,.77-.35,1.17-1.05,1.19-2.54.07-5.07.13-7.61.21-.7.02-1.05-.36-1.05-1.13v-40.51c0-.77.34-1.17,1.05-1.19,2.61-.08,5.22-.15,7.83-.22.29-.01.59.07.88.25s.52.41.66.69c4.08,8.24,8.16,16.49,12.24,24.75v-24.85c0-.32.1-.6.3-.83.2-.23.45-.34.75-.35,2.55-.05,5.11-.09,7.66-.14.29,0,.54.1.74.33"/>
    <path id="path7749" class="st4" d="M414.5,74.59c.2.23.3.51.3.83v7.72c0,.32-.1.59-.3.79-.2.2-.45.3-.74.3-1.31-.01-2.61-.02-3.92-.02-3.82-.02-7.64-.03-11.47-.02-1.03,0-2.06,0-3.09,0-.19,0-.28.1-.28.3v6.67c0,.17.09.25.28.24,5.25-.01,10.51,0,15.77.02.29,0,.53.12.71.34s.28.5.28.82v6.12c0,.33-.09.6-.28.82-.18.23-.42.33-.71.33-5.26-.03-10.52-.03-15.77-.02-.19,0-.28.1-.28.31v6.61c0,.2.09.3.28.3.77,0,1.54,0,2.31,0,4.15,0,8.31,0,12.46.02,1.23,0,2.46.01,3.69.02.29,0,.54.12.74.34.2.23.3.5.3.83v7.64c0,.33-.1.6-.3.83-.2.22-.45.33-.74.33-1.05,0-2.1-.01-3.15-.02-6.98-.03-13.96-.03-20.95,0-1.1,0-2.21.01-3.31.02-.7,0-1.05-.38-1.05-1.16v-40.51c0-.32.1-.6.3-.83.2-.22.45-.34.75-.34,1.34,0,2.68-.02,4.02-.02,7.21-.03,14.41-.02,21.62.01.59,0,1.17.01,1.76.01.29,0,.54.12.74.34"/>
    <path id="path7751" class="st4" d="M461.43,92.65c.8.39,1.47.92,2.04,1.59.57.67,1.02,1.43,1.38,2.3.35.86.51,1.79.51,2.77v11.5c0,.98-.17,1.9-.51,2.77-.35.87-.81,1.62-1.38,2.26s-1.25,1.13-2.04,1.48c-.79.34-1.63.51-2.51.48-7.33-.18-14.66-.34-21.99-.45-.7-.01-1.05-.4-1.05-1.18v-7.4c0-.33.1-.6.3-.82.2-.22.45-.33.74-.33,6.25.1,12.5.23,18.75.38.29,0,.54-.09.74-.29.2-.2.3-.46.3-.79v-5.08c0-.33-.11-.6-.3-.84-.2-.23-.45-.34-.74-.35-4.45-.11-8.9-.2-13.34-.28-.89-.02-1.72-.22-2.51-.6-.79-.38-1.48-.9-2.07-1.57-.59-.66-1.04-1.42-1.38-2.28-.33-.86-.49-1.79-.49-2.77v-11.51c0-.98.17-1.9.49-2.78.33-.87.79-1.62,1.38-2.24.59-.62,1.28-1.12,2.07-1.49.79-.38,1.63-.56,2.51-.54,6.93.13,13.86.29,20.78.48.7.02,1.05.41,1.05,1.19v7.53c0,.32-.1.59-.3.79s-.45.29-.75.28c-5.86-.15-11.72-.3-17.58-.41-.29,0-.53.1-.71.32s-.28.49-.28.82v4.96c0,.32.1.6.28.83.18.23.42.34.71.35,4.46.09,8.93.19,13.39.3.89.02,1.72.24,2.51.62"/>
    <path id="path7753" class="st4" d="M508.75,87.17c-4.31-.2-8.63-.39-12.95-.57v22.03c4.32.18,8.63.36,12.95.57v-22.03ZM512.05,76.93c.88.04,1.71.28,2.51.71.79.42,1.47.97,2.04,1.63.57.66,1.03,1.43,1.38,2.33.35.9.53,1.84.53,2.82v28.51c0,.98-.18,1.9-.53,2.76-.35.86-.81,1.6-1.38,2.22-.56.62-1.25,1.1-2.04,1.43-.79.33-1.63.47-2.51.43-6.5-.32-13-.6-19.5-.86-.88-.03-1.71-.25-2.51-.65-.79-.39-1.48-.93-2.06-1.61s-1.05-1.45-1.38-2.35c-.33-.89-.49-1.83-.5-2.8v-28.51c0-.98.17-1.9.5-2.77.33-.86.79-1.6,1.38-2.21.59-.61,1.28-1.1,2.06-1.45.8-.35,1.63-.51,2.51-.48,6.5.27,13,.55,19.5.86"/>
    <path id="path7755" class="st4" d="M566.85,89.47c0,.33-.1.6-.29.81-.21.2-.45.3-.75.28-2.61-.19-5.22-.37-7.82-.55-.29-.02-.55.06-.75.25-.2.19-.3.45-.3.77v30.17c0,.33-.09.6-.27.81-.19.21-.43.3-.71.28-2.56-.17-5.11-.34-7.66-.5-.3-.02-.54-.14-.74-.38-.2-.23-.31-.52-.31-.85v-30.17c0-.33-.09-.6-.27-.81-.19-.22-.43-.33-.71-.35-2.61-.17-5.21-.33-7.82-.49-.29-.02-.54-.14-.74-.38-.2-.23-.3-.51-.3-.84v-8.08c0-.77.35-1.14,1.05-1.1,2.61.15,5.21.32,7.82.48.67.05,1.36.09,2.04.13,2.55.17,5.1.33,7.66.5.67.04,1.36.09,2.04.14,2.6.18,5.21.36,7.82.55.29.02.54.15.75.39.19.24.29.52.29.85v8.08h0Z"/>
    <path id="path7757" class="st4" d="M608.17,103.97v-10.77c-4.3-.39-8.61-.77-12.92-1.13v10.77c4.31.36,8.62.74,12.92,1.13M611.46,83.89c.88.08,1.71.35,2.5.81.79.46,1.47,1.03,2.04,1.72.56.69,1.03,1.48,1.37,2.39.35.91.53,1.86.53,2.84v34.52c0,.33-.11.59-.3.8-.2.2-.45.29-.75.27-2.54-.24-5.09-.48-7.64-.71-.29-.03-.54-.16-.74-.4-.2-.24-.3-.53-.3-.86v-10.96c0-.32-.09-.61-.27-.85-.19-.24-.42-.38-.71-.4-3.63-.32-7.26-.64-10.89-.95-.29-.03-.54.06-.75.27-.2.2-.3.47-.3.8v10.96c0,.77-.35,1.13-1.04,1.07-2.53-.22-5.06-.42-7.59-.62-.7-.06-1.05-.48-1.05-1.25v-34.52c0-.97.17-1.89.5-2.74.33-.85.79-1.57,1.38-2.15.59-.59,1.28-1.04,2.06-1.37.79-.32,1.63-.45,2.51-.37,6.48.54,12.98,1.11,19.46,1.7"/>
    <path id="path7759" class="st1" d="M596.8,665.2l-11.8-3.71c-59.94-18.87-122.18-28.44-185-28.44s-125.05,9.57-185,28.44l-11.8,3.71v-106.89l6.34-2c61.7-19.49,125.78-29.37,190.45-29.37s128.75,9.88,190.46,29.37l6.34,2v106.89Z"/>
    <path id="path7761" class="st5" d="M587.72,652.83c-60.83-19.16-123.98-28.86-187.72-28.86s-126.89,9.7-187.72,28.86v-87.87c60.82-19.21,123.98-28.95,187.72-28.95s126.9,9.74,187.72,28.95v87.87Z"/>
    <path id="path7763" class="st4" d="M274.78,587.08c1.21.32,2.25.9,3.12,1.73.87.83,1.58,1.85,2.11,3.07s.8,2.58.8,4.09v17.75c0,1.52-.27,3-.8,4.45-.54,1.47-1.24,2.78-2.11,3.96-.87,1.19-1.91,2.18-3.12,3-1.21.82-2.49,1.37-3.84,1.65-11.22,2.38-22.38,5.08-33.49,8.09-1.06.29-1.59-.16-1.59-1.36v-11.43c0-.51.15-.97.46-1.4s.68-.71,1.13-.83c9.46-2.56,18.97-4.9,28.51-7.01.45-.1.83-.34,1.13-.72.31-.38.46-.82.46-1.32v-7.84c0-.51-.15-.89-.46-1.17-.3-.28-.69-.37-1.13-.27-6.79,1.5-13.56,3.12-20.32,4.85-1.34.35-2.61.4-3.81.15-1.2-.25-2.24-.76-3.14-1.53-.89-.76-1.59-1.74-2.09-2.93-.5-1.19-.75-2.53-.75-4.05v-17.69c0-1.52.25-3.01.75-4.5.5-1.49,1.19-2.84,2.09-4.05.9-1.22,1.94-2.28,3.14-3.2,1.2-.91,2.47-1.54,3.81-1.88,10.52-2.7,21.09-5.12,31.7-7.26,1.07-.22,1.61.28,1.61,1.48v11.61c0,.49-.16.93-.47,1.31s-.69.61-1.14.7c-8.98,1.81-17.93,3.82-26.84,6.03-.45.11-.81.38-1.09.79-.28.42-.42.87-.42,1.37v7.61c0,.51.14.9.42,1.17.28.28.64.36,1.09.25,6.79-1.68,13.6-3.25,20.43-4.71,1.35-.28,2.63-.27,3.84.05"/>
    <path id="path7765" class="st4" d="M347.96,563.53c0,.5-.16.94-.47,1.31-.32.38-.7.57-1.16.61-4.04.36-8.09.75-12.13,1.19-.45.05-.85.25-1.15.6-.32.35-.47.77-.47,1.27v46.52c0,.5-.14.95-.43,1.32-.28.38-.65.59-1.11.64-3.95.45-7.9.93-11.85,1.46-.45.06-.84-.06-1.15-.36-.31-.3-.46-.71-.46-1.21v-46.52c0-.5-.14-.88-.43-1.16-.28-.27-.65-.39-1.11-.32-4.03.55-8.05,1.14-12.08,1.78-.45.07-.83-.03-1.14-.33-.32-.29-.46-.69-.46-1.19v-12.45c0-1.2.54-1.88,1.61-2.05,4.03-.64,8.05-1.23,12.08-1.78,1.05-.14,2.1-.29,3.15-.43,3.95-.52,7.9-1.01,11.85-1.45,1.05-.12,2.11-.24,3.16-.35,4.04-.44,8.09-.84,12.13-1.19.46-.04.84.1,1.16.42.31.31.47.73.47,1.23v12.45h0Z"/>
    <path id="path7767" class="st4" d="M405.12,578.37v-16.57c-6.72-.04-13.44.03-20.15.21v16.58c6.72-.18,13.43-.25,20.15-.22M410.26,547.03c1.38.02,2.68.34,3.91.96,1.23.62,2.28,1.44,3.17,2.43.88,1,1.59,2.18,2.14,3.55.54,1.37.82,2.8.82,4.32v53.19c0,.5-.17.93-.48,1.26-.32.34-.7.5-1.16.49-3.97-.1-7.94-.18-11.91-.21-.46,0-.85-.17-1.16-.53-.32-.34-.47-.77-.47-1.27v-16.9c0-.51-.14-.93-.43-1.27-.29-.35-.66-.53-1.11-.53-5.66-.02-11.32.04-16.98.18-.46.01-.85.2-1.16.55-.31.36-.47.78-.47,1.29v16.9c0,1.19-.54,1.8-1.63,1.84-3.94.12-7.89.27-11.83.46-1.09.05-1.63-.52-1.63-1.71v-53.19c0-1.52.25-2.96.76-4.34.51-1.38,1.23-2.58,2.15-3.6.91-1.02,1.99-1.85,3.22-2.5,1.22-.65,2.52-1,3.89-1.05,10.11-.35,20.23-.46,30.34-.33"/>
    <path id="path7769" class="st4" d="M481.11,567.38c-6.84-.87-13.7-1.63-20.57-2.27v16.01c6.87.64,13.73,1.4,20.57,2.27v-16.01ZM498.04,618.92c.23.47.26.84.09,1.1s-.48.35-.93.28c-4.51-.69-9.02-1.33-13.54-1.93-.45-.06-.91-.25-1.36-.6-.45-.34-.8-.75-1.02-1.22-3.02-6.36-6.03-12.71-9.04-19.02-.12-.27-.32-.41-.6-.45-3.39-.38-6.78-.73-10.17-1.05-.28-.03-.43.12-.43.43v17.56c0,1.2-.54,1.74-1.62,1.64-3.93-.36-7.87-.69-11.81-.97-1.08-.08-1.63-.71-1.63-1.91v-62.45c0-1.19.55-1.75,1.63-1.68,12.89.94,25.76,2.28,38.6,4.02,1.37.19,2.66.66,3.88,1.43,1.22.77,2.26,1.71,3.14,2.82.89,1.11,1.59,2.37,2.13,3.81.54,1.44.81,2.9.81,4.42v24.77c0,2.4-.64,4.46-1.91,6.18-1.28,1.73-2.91,2.8-4.9,3.21-.08.02-.17.04-.25.06-.39.07-.48.24-.25.53.02.07.05.14.08.2,3.03,6.25,6.06,12.52,9.09,18.81"/>
    <path id="path7771" class="st4" d="M561.7,594.8c1.19.88,2.23,1.95,3.1,3.19.86,1.24,1.55,2.58,2.08,4.05.53,1.47.8,2.96.8,4.47v17.75c0,1.52-.27,2.87-.8,4.08s-1.22,2.2-2.08,2.98c-.86.78-1.9,1.28-3.1,1.54-1.2.25-2.47.2-3.8-.14-11.14-2.85-22.34-5.4-33.57-7.63-1.07-.21-1.6-.91-1.6-2.11v-11.43c0-.5.15-.89.46-1.18.31-.28.69-.38,1.14-.29,9.57,1.9,19.12,4.03,28.62,6.39.45.1.83.04,1.14-.19.3-.24.45-.61.45-1.11v-7.84c0-.51-.15-.96-.45-1.39-.31-.43-.69-.7-1.14-.81-6.76-1.67-13.55-3.24-20.35-4.68-1.34-.29-2.63-.84-3.84-1.65-1.21-.82-2.26-1.82-3.16-3.01-.91-1.19-1.6-2.49-2.11-3.92-.51-1.42-.76-2.88-.76-4.4v-17.69c0-1.52.25-2.9.76-4.15.51-1.26,1.21-2.27,2.11-3.07.9-.8,1.95-1.37,3.16-1.72s2.49-.38,3.84-.09c10.6,2.26,21.15,4.79,31.65,7.6,1.06.28,1.59,1.02,1.59,2.22v11.61c0,.5-.16.87-.46,1.1-.3.23-.68.28-1.12.16-8.88-2.37-17.81-4.55-26.76-6.54-.45-.09-.81,0-1.1.28-.28.29-.43.67-.43,1.17v7.61c0,.51.15.96.43,1.37.28.4.64.66,1.1.76,6.82,1.51,13.62,3.14,20.41,4.87,1.33.34,2.6.96,3.8,1.84"/>
    <path id="path7773" class="st5" d="M243.33,164.98s.04,0,.06,0c5.51-.46,9.54-6.87,9.54-10.04,0-.85-.29-1.85-1.63-1.75-.97.08-2.06,1.08-2.99,2.75-1.66,3.01-3.32,6.03-4.98,9.05M228.67,174.52c-1.02.09-1.56.88-1.56,1.6,0,.61.45,1.29,1.74,1.18s2.4-.6,3.39-1.47c-1.37-.97-2.54-1.41-3.57-1.31M236.56,179.71c-.58-.45-1.03-1.02-1.54-1.5-1.79,1.57-3.84,2.51-5.81,2.69-3.86.35-5.61-2.07-5.61-4.49s1.86-5.22,5.43-5.55c2.44-.22,4.29.82,5.66,1.88.02-.04.04-.08.06-.11.06-.11.12-.22.18-.33.91-1.67,1.83-3.33,2.74-4.99-2.8-1.34-4.53-4.03-4.53-7.11,0-2.82,1.4-5.51,3.95-7.56.12-.09.24-.19.36-.29.08.12.14.24.22.37.4.69.8,1.37,1.2,2.06.06.09.11.19.17.28-.09.08-.18.15-.27.23-1.43,1.25-2.22,2.85-2.22,4.54,0,1.94,1.02,3.58,2.75,4.48,1.85-3.35,3.7-6.7,5.55-10.04,1.6-2.93,4.07-4.86,6.44-5.05,3.07-.24,5.29,2.07,5.29,5.49,0,1.6-.53,3.43-1.54,5.29-2.66,4.85-6.91,7.84-11.66,8.24-.61.05-1.19.06-1.88.02-1.05,1.91-2.09,3.81-3.13,5.72-.27.5-.56.96-.83,1.37.15.15.3.3.45.45.44.44.9.87,1.38,1.31,3.91,3.58,8.05,2.91,10.72,1.94,1.79-.64,2.43-1.16,3.37-2.18.09-.1.19-.2.29-.31.09.09.18.18.27.28.6.59,1.21,1.18,1.81,1.78.07.07.15.14.22.22-.06.09-.12.19-.19.28-.09.13-3.13,3.57-7.75,3.95-4.61.38-6.93.26-11.55-3.32"/>
    <path id="path7775" class="st5" d="M294.41,168.43c-1.78,3.93-10.89,11.19-18.98,11.73-6.38.43-10.83-2.67-10.83-8.64,0-7.02,5.7-13.17,12.77-13.76-.33-.82-.51-1.68-.51-2.53,0-4.1,2.96-7.39,6.9-7.63,3.91-.24,6.64,2.04,6.64,5.54,0,3.2-2.32,5.04-2.42,5.12-.1.08-.2.15-.3.23-.08-.08-.17-.17-.25-.24-.69-.69-1.37-1.37-2.06-2.05-.12-.12-.24-.24-.37-.36.16-.1.33-.2.48-.3.01,0,1.1-.76,1.1-2.35,0-1.68-1.28-2.37-2.46-2.29-1.56.09-3.24,1.45-3.24,4.19,0,2.36,1.81,3.35,2.18,3.52.12.06.25.12.37.18-.04.14-.09.27-.14.41-.38.69-.76,1.37-1.14,2.06-.06.1-.11.2-.17.3-.11-.03-.21-.06-.32-.08-.41-.11-.81-.25-1.28-.46-.76-.22-1.6-.31-2.46-.25-4.39.28-9.28,4.64-9.28,10.4,0,4.06,3.57,5.49,7.03,5.26,6.95-.46,13.21-6.12,14.4-8.62"/>
    <path id="path7777" class="st5" d="M291.75,176.06c-1.52.09-2.7-.43-3.32-1.46-.7-1.16-.56-2.77.35-4.43,2.45-4.39,4.9-8.77,7.35-13.14-.92.05-1.86.1-2.79.15-.24.01-.48.03-.72.04.13-.21.25-.43.37-.64.37-.64.74-1.27,1.11-1.91.04-.07.08-.14.12-.21.08,0,.15,0,.23-.01,1.08-.06,2.15-.12,3.23-.18,1.16-2.09,2.32-4.17,3.49-6.25l.12-.22c.08,0,.16-.01.24-.01,1.28-.07,2.56-.13,3.83-.2.24-.01.48-.03.71-.04-.12.22-.23.43-.35.64-1.09,1.94-2.17,3.88-3.26,5.81.82-.04,1.64-.08,2.46-.12.24-.02.48-.03.72-.04-.12.22-.25.43-.37.64-.37.63-.74,1.27-1.11,1.9-.04.07-.08.14-.12.2-.08,0-.15.01-.23.01-.96.05-1.93.1-2.89.15-2.7,4.85-5.4,9.71-8.1,14.57-.42.75-.47,1.18-.37,1.35.08.13.32.14.46.13,1.42-.08,5.27-2.67,8.16-6.16.08-.1.17-.21.26-.32.07-.08.13-.15.19-.23.09.03.19.07.28.1.55.2.56.82.59,1.32.01.24.02.5.08.63.04.08.08.16.12.24-.06.07-.12.14-.18.22-4.18,5.07-7.9,7.29-10.65,7.45"/>
    <path id="path7779" class="st5" d="M312.11,157.95c-.8.04-2.21.66-3.37,2.69-.64,1.15-1.29,2.3-1.94,3.45-1.03,1.74-2.05,3.47-3.08,5.2-.61,1.1-.65,2.38-.34,2.89.26.43,1.27.52,1.56.5.83-.04,1.92-.57,2.69-1.82-.22-.43-.33-.9-.33-1.36,0-1.57,1.24-2.91,2.79-3.03.96-1.68,1.91-3.36,2.88-5.04.72-1.27.77-2.26.39-2.91-.18-.31-.78-.6-1.18-.58h-.07M304.5,175.54c-1.89.1-3.44-.63-4.24-1.98-1-1.68-.7-4.1.82-6.81.55-.97,1.11-1.95,1.66-2.92.63-1.13,1.25-2.25,1.88-3.37,2.11-3.77,4.45-5.44,7.8-5.6,1.78-.09,3.29.69,4.14,2.12,1,1.68.86,3.97-.35,6.13-1.07,1.9-2.15,3.8-3.22,5.7,1.73-.3,5.12-2.48,6.57-4.12l.25-.3c.07-.08.13-.15.19-.23.09.03.18.07.28.1.53.2.7.69.83,1.07.05.14.1.28.17.41.04.08.08.15.12.23-.06.07-.12.14-.18.22-2.04,2.51-6.93,5.34-9.34,5.45-.22.01-.44.02-.65.03-1.81,2.29-4.31,3.73-6.72,3.86"/>
    <path id="path7781" class="st5" d="M320.41,174.62c-1.52.07-2.7-.46-3.32-1.5-.7-1.17-.57-2.79.35-4.43,2.57-4.56,5.13-9.12,7.7-13.67.04-.07.08-.14.12-.21.08,0,.15,0,.24-.01,1.28-.05,2.56-.1,3.83-.15.24,0,.47-.02.71-.02-.12.21-.23.42-.35.62-2.74,4.88-5.48,9.77-8.22,14.66-.42.74-.48,1.18-.38,1.34.08.14.33.15.46.14,1.51-.07,5.35-2.87,8.11-6.16.09-.1.17-.2.26-.31.07-.07.13-.15.2-.23.09.03.18.07.27.1.53.2.7.69.84,1.07.04.13.1.28.17.41.04.08.08.16.12.24-.06.07-.12.14-.18.22-4.18,5.01-8.18,7.76-10.92,7.88"/>
    <path id="path7783" class="st5" d="M331.09,174.2c-1.53.06-2.71-.49-3.33-1.53-.7-1.17-.56-2.78.35-4.42,4.13-7.31,8.26-14.6,12.39-21.88.04-.07.08-.14.12-.21.08,0,.15,0,.24-.01,1.28-.04,2.56-.08,3.84-.12.23,0,.47-.02.71-.02-.12.21-.24.42-.35.62-4.3,7.61-8.6,15.23-12.9,22.87-.43.74-.48,1.18-.38,1.34.08.13.32.15.46.14,1.46-.05,5.02-2.58,7.87-5.97.08-.1.17-.2.26-.31.07-.07.13-.15.2-.23.09.03.18.07.28.1.57.23.81.76,1.03,1.22.04.09.09.18.13.27.04.08.08.16.12.24-.06.07-.12.14-.18.22-4.18,4.98-8.1,7.58-10.85,7.68"/>
    <path id="path7785" class="st5" d="M345.37,163.63c.35.07.71.1,1.05.09,1.75-.05,3.29-1.13,4.44-3.12.22-.37.43-.74.64-1.11.68-1.21.91-2.25.59-2.78-.18-.31-.52-.36-.77-.36-.92.02-2.33.89-3.41,2.77-.85,1.5-1.69,3-2.54,4.51M344.58,173.75c-2.26.07-4.09-.79-5.01-2.35-.96-1.64-.8-3.82.44-5.97,1.34-2.34,2.68-4.68,4.02-7.02,1.76-3.08,4.37-4.75,7.55-4.83,1.69-.04,3.13.66,3.83,1.88.77,1.32.63,3.04-.42,4.85-.18.32-.37.65-.55.97-2.65,4.64-6.44,5.24-7.95,5.29-.79.02-1.54-.08-2.21-.28-.07.12-.13.23-.2.35-.75,1.34-.94,2.41-.54,3.08.33.57,1.11.86,2.17.83,2.34-.07,5.75-2.36,8.69-5.84.09-.1.18-.2.27-.3.06-.07.13-.14.19-.22.09.03.18.07.28.1.63.26,1.35.91,1.64,1.48.04.08.08.16.13.24-.06.07-.12.14-.18.21-2.33,2.75-6.99,7.38-12.15,7.54"/>
    <path id="path7787" class="st5" d="M286.74,146.85c-.25-.07-.5-.17-.71-.29-.06-.03-.12-.07-.18-.1-.09-.05-.18-.1-.27-.15.06-.1.12-.21.19-.32.24-.41.49-.82.74-1.23.06-.1.11-.19.17-.29.08.05.16.09.24.14.06.03.11.06.16.09.03.01.08.04.18.07.87.24,3.26.11,4.22-.71l1.17-1c-.25.46-.5.93-.76,1.4-1.17,2.15-3.52,2.84-5.14,2.39"/>
    <path id="path7789" class="st5" d="M325.78,153.55c.3-.46.61-.93.92-1.39.43-.65.85-1.3,1.28-1.95-.49-.36-.96-.72-1.44-1.08-.29-.22-.58-.44-.87-.66.35-.01.7-.02,1.05-.03.83-.02,1.65-.04,2.48-.06.45-.7.91-1.39,1.37-2.09.21-.33.42-.65.63-.97.03.4.07.8.09,1.2.04.6.09,1.2.13,1.8.75-.02,1.5-.04,2.25-.06.55-.01,1.1-.02,1.64-.03-.46.25-.92.51-1.38.76-.79.44-1.58.88-2.36,1.32.05.66.1,1.32.15,1.97.02.27.04.54.06.8-.23-.17-.45-.34-.67-.51-.51-.38-1.02-.77-1.54-1.15-.77.44-1.55.87-2.33,1.31-.49.28-.98.55-1.47.82"/>
    <path id="path7791" class="st5" d="M266.66,148.37c-.07-.34-.17-.66-.32-.95-.04-.08-.08-.16-.12-.24-.06-.12-.12-.24-.18-.36-.15.06-.29.12-.44.18-.57.23-1.14.46-1.71.69-.13.06-.26.1-.39.16.05.11.11.22.15.33.04.07.07.14.11.22.02.03.05.1.08.23.24,1.14.2,4.09-.99,5.14-.42.48-.84.97-1.26,1.45.59-.29,1.17-.57,1.75-.86,2.98-1.06,3.75-3.86,3.3-5.98"/>
    <path id="path7793" class="st5" d="M451.65,157.58c-.81-.02-2.07.51-2.99,2.07-1.78,3.06-3.57,6.12-5.35,9.19-.39.66-.53,1.19-.38,1.46.11.19.38.24.59.24,1.32.03,3.61-1.35,6.08-5.33.97-1.64,1.94-3.29,2.92-4.93.44-.88.53-1.64.23-2.13-.2-.36-.59-.56-1.1-.58h0M451.01,173.62c-1.73-.04-2.99-.84-3.44-2.18-.02-.06-.04-.13-.07-.19-.05.03-.1.07-.15.11-1.83,1.35-3.6,2.08-4.97,2.05-1.47-.03-2.61-.62-3.2-1.65-.67-1.17-.54-2.72.35-4.26,1.8-3.05,3.6-6.11,5.39-9.17,1.73-2.95,4.72-4.43,6.79-4.38,1.81.05,2.95,1.2,3.35,1.69.05.06.09.1.14.16.03-.06.07-.12.1-.18,1.78-3.01,3.55-6.01,5.33-9.02.04-.07.08-.14.12-.2.04.03.07.06.11.08,1.28.04,2.56.09,3.84.13.15.01.3.02.46.02l-.23.39c-4.33,7.33-8.66,14.68-12.98,22.04-.39.65-.53,1.18-.38,1.45.12.2.38.25.59.25,1.37.04,4.28-1.78,7.52-5.44.09-.09.17-.19.26-.29l.12-.14c.06.03.12.06.18.08.6.27.72.91,1.01,1.48.03.06.06.11.08.17-.04.04-.08.08-.12.12-4.15,4.7-7.49,6.95-10.2,6.87"/>
    <path id="path7795" class="st5" d="M469.68,174.23c-1.26-.05-2.26-.49-2.91-1.28-.4-.5-.65-1.12-.7-1.81,0-.09-.01-.19-.02-.29-.08.06-.15.13-.22.19-2.29,1.98-4.17,2.92-5.75,2.87-1.11-.03-1.97-.5-2.43-1.31-.67-1.19-.41-2.99.73-4.93,2.51-4.26,5.02-8.51,7.52-12.76.03-.04.06-.09.08-.13.06,0,.11,0,.16,0,1.27.04,2.55.09,3.83.14.15,0,.31.01.46.02-.08.13-.15.26-.23.39-2.49,4.25-4.99,8.52-7.48,12.78-.04.06-.08.13-.12.19-.41.67-.85,1.43-.71,1.84.02.09.09.17.22.23h.01c.96.03,3-1.28,5.55-3.51,2.27-3.88,4.55-7.75,6.82-11.63.03-.04.06-.09.08-.13.06,0,.11,0,.15,0,1.28.05,2.56.1,3.83.16.15,0,.31.01.46.02-.08.13-.15.26-.23.39-2.73,4.67-5.45,9.34-8.18,14.01-.39.66-.53,1.19-.38,1.45.08.15.29.24.59.25,1.36.05,3.76-1.81,6.95-5.38.09-.1.18-.19.26-.29.04-.05.09-.09.13-.14.06.03.12.05.17.08.61.28,1.3.95,1.58,1.52.03.06.06.11.08.17-.04.04-.08.08-.12.13-4.15,4.65-7.48,6.86-10.19,6.76"/>
    <path id="path7797" class="st5" d="M493.05,175.6c-2.33-.12-4.87-1.4-5.6-3.38-.93-2.52.59-6.69,5.65-10.86.5-.32,1.03-.36,1.4-.34.15,0,.95.07,1.13.53.08.19.03.38-.14.54-3,2.54-3.63,5.64-2.95,7.42.41,1.1,1.26,1.74,2.39,1.8,2.67.14,6.16-2.96,9.32-8.29,2.77-4.67,5.55-9.34,8.32-14.01.03-.04.05-.08.08-.13.05,0,.1,0,.15.01,1.28.08,2.56.15,3.83.23.11.01.2.02.31.02-.01.1-.03.2-.04.3-.82,5.35-1.65,10.7-2.47,16.06-.04.25-.08.49-.12.74.13-.21.25-.42.39-.63,2.52-4.21,5.04-8.41,7.56-12.61,2.58-4.27,5.41-4.74,6.86-4.64,2.49.17,4.29,2.04,4.72,3.7.02.07.04.14.06.2-.06.03-.12.06-.18.08-.85.41-1.7.82-2.54,1.22-.08.04-.17.09-.25.13-.04-.09-.08-.19-.12-.28-.41-.96-1.02-1.5-1.75-1.55-1.1-.08-2.41.97-3.52,2.8-4.22,7.04-8.45,14.09-12.67,21.16-.04.06-.08.13-.12.19-.04-.02-.08-.05-.12-.07-1.29-.08-2.58-.15-3.87-.23-.11,0-.21-.01-.31-.02.02-.1.03-.2.04-.3.81-5.31,1.63-10.61,2.44-15.92.03-.25.08-.5.11-.75-.12.22-.25.43-.38.64-.81,1.38-1.63,2.76-2.44,4.14-4.54,7.82-10.2,12.34-15.16,12.1"/>
    <path id="path7799" class="st5" d="M531.82,160.73c-.79-.06-2.02.53-3.13,2.35-.61,1-1.23,2-1.84,3-.97,1.62-1.94,3.24-2.91,4.86-.6,1.01-.76,1.91-.45,2.46.28.5.82.6,1.12.62.75.06,1.9-.32,2.69-1.52-.19-.55-.29-.96-.29-1.38,0-1.38,1.11-2.45,2.46-2.38.93-1.49,1.87-2.98,2.8-4.46.7-1.15.9-2.25.5-2.94-.19-.35-.54-.57-.96-.6M524.12,177.22c-1.84-.12-3.35-1-4.12-2.39-.97-1.75-.69-4.09.82-6.58.55-.91,1.11-1.82,1.66-2.73.62-1.05,1.25-2.1,1.88-3.15,2.08-3.47,4.38-4.85,7.67-4.62,1.73.12,3.19,1.04,4.01,2.53.97,1.75.83,3.97-.36,5.95-1.06,1.76-2.13,3.52-3.2,5.29-.06.09-.11.18-.16.27.11-.02.21-.03.32-.05,1.31-.21,2.95-.87,4.66-2.59.09-.09.17-.18.25-.27l.13-.14c.06.03.12.06.18.09.6.29,1.3,1,1.58,1.57.02.06.05.11.08.17-.04.04-.08.09-.11.13-2.07,2.31-5.61,3.67-7.93,3.51-.22-.01-.44-.03-.65-.04-1.9,2.1-4.37,3.22-6.71,3.07"/>
    <path id="path7801" class="st5" d="M544.59,178.51c-1.48-.11-2.61-.76-3.2-1.83-.67-1.21-.54-2.75.35-4.25,1.35-2.25,2.7-4.49,4.05-6.73.43-.73.13-1.43-.21-1.9-.06-.07-.12-.15-.17-.23-.04-.05-.08-.1-.12-.15-.04.04-.07.09-.11.14-2.71,3.48-4.19,5.35-6.03,7.35-.05.06-.1.11-.15.17-.07-.04-.13-.09-.2-.15-.38-.28-1.08-.86-1.5-1.5-.04-.06-.08-.12-.12-.18.04-.05.09-.1.13-.15,2.46-2.72,4.77-5.81,6.29-7.85.02-.03.04-.06.06-.08-.02-.03-.04-.06-.06-.09l-.15-.22c-1.52-2.08-1.13-4.39,1.03-6.18.07-.06.13-.1.2-.16.06.07.12.14.18.21.66.77,1.32,1.55,1.99,2.33.06.07.12.14.18.21-.06.06-.13.11-.19.17-.63.55-.69,1.16-.19,1.83.71.91,1.42,1.83,2.13,2.74,1.36,1.75,1.93,3.28.59,5.54-1.28,2.14-2.56,4.27-3.83,6.41-.39.64-.53,1.16-.38,1.43.09.17.29.26.59.28,1.35.1,3.75-1.67,6.94-5.11.08-.09.17-.18.25-.28.04-.04.09-.09.13-.13.06.03.12.06.18.09.6.3,1.29,1,1.57,1.58.03.06.05.12.08.17-.04.04-.08.08-.12.12-4.14,4.48-7.47,6.56-10.17,6.35"/>
    <path id="path7803" class="st5" d="M562.93,163.97c-.8-.07-2.07.38-2.97,1.88-1.78,2.96-3.57,5.91-5.34,8.87-.39.64-.53,1.16-.38,1.44.12.2.39.27.59.28,1.32.11,3.6-1.14,6.06-4.96.97-1.59,1.94-3.17,2.9-4.76.45-.85.53-1.6.24-2.12-.2-.36-.6-.59-1.1-.64M562.29,179.98c-1.71-.15-2.99-1.05-3.43-2.39-.02-.07-.04-.13-.06-.19-.06.03-.11.07-.16.11-1.83,1.24-3.58,1.86-4.96,1.75-1.47-.12-2.6-.77-3.2-1.84-.66-1.21-.54-2.76.35-4.25,1.79-2.95,3.58-5.9,5.38-8.85,1.74-2.85,4.73-4.15,6.78-3.97,1.27.1,2.49.8,3.35,1.9.04.06.09.11.13.17.03-.06.07-.11.11-.17,1.77-2.91,3.54-5.81,5.32-8.71.02-.04.05-.08.07-.13.05,0,.11,0,.15.02,1.27.12,2.54.23,3.82.35.15.02.31.03.47.04-.08.13-.16.25-.24.38-4.31,7.07-8.63,14.16-12.94,21.26-.39.64-.53,1.16-.38,1.43.11.2.38.27.59.29,1.34.12,3.74-1.63,6.93-5.03.09-.09.17-.19.25-.28.04-.04.08-.09.13-.14.06.03.12.07.18.09.6.32,1.29,1.02,1.57,1.6.03.06.06.11.08.17-.04.04-.08.08-.12.12-4.14,4.45-7.46,6.5-10.16,6.26"/>
    <path id="path7805" class="st5" d="M410.82,662.18c-.13.12-.2.27-.2.46v11.49c0,.19.07.34.2.46.13.12.29.18.48.18h11.38c.19,0,.35.07.48.19.13.13.19.29.19.48v4.68c0,.19-.07.35-.19.48-.13.13-.29.19-.48.19h-14.15c-.57,0-1.11-.1-1.62-.32s-.95-.51-1.33-.88c-.38-.38-.67-.82-.89-1.33-.22-.51-.32-1.05-.32-1.61v-16.53c0-.57.11-1.11.32-1.61.21-.51.51-.95.89-1.32.38-.36.82-.66,1.33-.88.51-.23,1.05-.34,1.62-.34h14.15c.19,0,.35.07.48.19.13.13.19.29.19.48v4.68c0,.19-.07.35-.19.48-.13.13-.29.2-.48.2h-11.38c-.19,0-.35.06-.48.18"/>
    <path id="path7807" class="st5" d="M395.41,656.17c.13.13.19.29.19.48v4.68c0,.19-.07.35-.19.48-.13.13-.29.2-.48.2h-11.88c-.12,0-.18.04-.18.14v4.22c0,.12.06.18.18.18h9.01c.18,0,.34.06.46.19.12.13.17.29.17.48v4.08c0,.19-.06.35-.17.48-.12.13-.28.19-.46.19h-9.01c-.12,0-.18.06-.18.18v7.98c0,.45-.22.67-.67.67h-4.9c-.45,0-.67-.22-.67-.67v-23.48c0-.19.06-.34.19-.48.13-.13.29-.19.48-.19h17.62c.19,0,.35.07.48.19"/>
  </g>
</svg>