<?xml version="1.0" encoding="UTF-8"?>
<svg data-name="图层_1" xmlns="http://www.w3.org/2000/svg" version="1.1" viewBox="0 0 800 800">
  <!-- Created by @FCLOGO 2024-12-16 GMT+8 17:12:03 . https://fclogo.top/ -->
<!-- FOR PERSONAL USE ONLY NOT FOR COMMERCIAL USE -->
  <path d="M348.2194,774.301c-.786,0-1.3752-.2173-1.7682-.6519-.393-.4352-.5284-1.03-.406-1.7856l.2518-1.6478c.122-.755.4501-1.3504.9841-1.785.5339-.4352,1.1939-.6525,1.9799-.6525.7553,0,1.3293.1987,1.7223.5954.3927.3967.551.9381.4747,1.6248h-1.2358c.0304-.3589-.0553-.637-.2573-.8357-.2024-.1981-.4979-.2974-.8869-.2974-.4197,0-.763.1167-1.03.3489-.2673.2328-.4349.5631-.5035.9903l-.2632,1.659c-.0686.4352-.0056.7686.1887,1.0015.1946.2328.5017.3489.9214.3489.389,0,.7152-.0987.9785-.2974.2632-.1981.4365-.4805.5206-.8469h1.2358c-.1372.6867-.4672,1.2306-.9897,1.631-.5228.4005-1.1616.6004-1.9169.6004ZM352.7967,774.1868l.9956-6.2943h1.1902l-.1946,1.1902c.3359-.8698.9729-1.3044,1.9113-1.3044.6712,0,1.1691.208,1.4932.624.3244.416.4293.9859.3148,1.7105l-.0686.4234h-1.2703l.0571-.3204c.0689-.4501.0115-.7953-.1714-1.0356-.1832-.2403-.4771-.3607-.8813-.3607-.4045,0-.7401.1223-1.007.3663-.2673.2446-.4349.588-.5035,1.03l-.6296,3.9711h-1.2358ZM361.9058,774.301c-.7705,0-1.3463-.2229-1.7279-.6693s-.515-1.0356-.4005-1.7682l.2518-1.6478c.0838-.488.2573-.9152.5206-1.2815s.6007-.6507,1.0129-.8524c.4119-.2024.8732-.3036,1.3845-.3036.7705,0,1.3485.2235,1.7338.6693.3852.4464.5169,1.0356.3949,1.7682l-.1717,1.1213h-3.845l-.0916.5265c-.1527.9536.2173,1.4305,1.1098,1.4305.7171,0,1.175-.2477,1.3734-.7438h1.2247c-.1679.5339-.5035.9599-1.007,1.2759-.5038.3166-1.0912.475-1.7626.475ZM361.2306,770.2157l-.0456.2862,2.6548-.0118.0459-.2856c.0686-.4656.0133-.822-.1661-1.0704-.1791-.2477-.4861-.3719-.9211-.3719-.4427,0-.7953.126-1.0586.3775-.2632.2521-.4331.6109-.5094,1.076ZM368.3258,774.301c-.6333,0-1.1027-.2117-1.4078-.6351s-.3967-1.0008-.2744-1.7335l.2744-1.7738c.1145-.7326.393-1.3119.8357-1.7397.4424-.4272.98-.6407,1.6133-.6407.4653,0,.8298.1186,1.093.3545.2632.2365.3908.5575.3834.9617h.023l.1717-1.202h1.2358l-.9956,6.2943h-1.2247l.1946-1.2014h-.023c-.122.4116-.3511.7339-.6867.9667s-.7401.3489-1.2129.3489ZM368.9324,773.2257c.389,0,.7152-.1186.9782-.3551.2632-.2359.4293-.5718.4979-1.007l.2518-1.6478c.0686-.4272.0096-.7612-.1773-1.0015-.1872-.2403-.475-.3601-.8642-.3601-.3967,0-.7249.118-.9841.3545-.2595.2365-.4234.5724-.492,1.007l-.2518,1.6478c-.0686.4427-.0133.7804.1658,1.0133.1794.2328.4712.3489.8757.3489ZM376.3477,774.1868c-.5721,0-.9937-.1565-1.2644-.4694-.271-.3123-.3607-.7512-.2691-1.3156l.538-3.3874h-1.7394l.1714-1.1219h1.7397l.2747-1.7161h1.2358l-.2747,1.7161h2.472l-.1832,1.1219h-2.4605l-.5377,3.3874c-.0764.4421.099.6637.5262.6637h1.7167l-.1717,1.1213h-1.7738ZM382.5042,774.301c-.7705,0-1.3463-.2229-1.7279-.6693s-.515-1.0356-.4005-1.7682l.2518-1.6478c.0838-.488.2573-.9152.5206-1.2815s.6007-.6507,1.0129-.8524c.4119-.2024.8732-.3036,1.3845-.3036.7705,0,1.3485.2235,1.7338.6693.3852.4464.5169,1.0356.3949,1.7682l-.1717,1.1213h-3.845l-.0916.5265c-.1527.9536.2173,1.4305,1.1098,1.4305.7171,0,1.175-.2477,1.3734-.7438h1.2247c-.1679.5339-.5035.9599-1.007,1.2759-.5038.3166-1.0912.475-1.7626.475ZM381.829,770.2157l-.0456.2862,2.6548-.0118.0459-.2856c.0686-.4656.0133-.822-.1661-1.0704-.1791-.2477-.4861-.3719-.9211-.3719-.4427,0-.7953.126-1.0586.3775-.2632.2521-.4331.6109-.5094,1.076ZM388.9243,774.301c-.6333,0-1.1008-.2117-1.4019-.6351-.3014-.4234-.3949-1.0008-.2803-1.7335l.2744-1.7738c.1145-.7326.393-1.3119.8357-1.7397.4424-.4272.98-.6407,1.6133-.6407.4653,0,.8298.1186,1.093.3545.2632.2365.3908.5575.3834.9617h.023l.2058-1.4652.2977-1.7962h1.2358l-1.3274,8.3537h-1.2247l.1946-1.2014h-.023c-.122.4116-.3511.7339-.6867.9667s-.7401.3489-1.2129.3489ZM389.5309,773.2257c.389,0,.7152-.1186.9782-.3551.2632-.2359.4293-.5718.4979-1.007l.2518-1.6478c.0761-.4272.0189-.7612-.1717-1.0015-.1909-.2403-.4805-.3601-.8698-.3601-.3967,0-.7249.118-.9841.3545-.2595.2365-.4234.5724-.492,1.007l-.2518,1.6478c-.0764.4427-.023.7804.1602,1.0133s.4768.3489.8813.3489ZM401.0175,774.301c-.4731,0-.8394-.1161-1.0986-.3489-.2595-.2328-.3852-.5551-.3775-.9667h-.0115l-.1946,1.2014h-1.2243l1.3274-8.3537h1.2358l-.2862,1.7962-.2744,1.4652h.0456c.122-.4123.353-.7345.6923-.9673.3396-.2322.7419-.3489,1.2076-.3489.633,0,1.1002.2136,1.4016.6407.3014.4278.3949,1.007.2806,1.7397l-.2747,1.7738c-.1145.7326-.3949,1.31-.8413,1.7335-.4461.4234-.9822.6351-1.6077.6351ZM400.7657,773.2257c.3967,0,.7227-.1161.9785-.3489.2555-.2328.4216-.5706.4976-1.0133l.2518-1.6478c.0689-.4346.0115-.7705-.1714-1.007-.1832-.2365-.4734-.3545-.8698-.3545-.3893,0-.7152.1198-.9785.3601s-.429.5743-.4979,1.0015l-.2518,1.6478c-.0686.4352-.0112.7711.1717,1.007.1832.2365.4731.3551.8698.3551ZM405.4694,776.2468l.1717-1.0642h1.934c.6407,0,1.007-.3017,1.0986-.9046l.1028-.6749.2061-1.1902h-.0345c-.122.4197-.3471.7438-.6752.9729-.3281.2285-.7286.3433-1.2014.3433-.6258,0-1.093-.2005-1.4019-.601s-.4104-.9443-.3033-1.631l.5836-3.6047h1.2358l-.5606,3.4793c-.0612.4116,0,.732.1832.9611s.4653.3433.8469.3433c.389,0,.7168-.1217.9841-.3663.267-.244.4309-.5836.492-1.0182l.538-3.3992h1.2358l-1.007,6.4086c-.0993.6029-.37,1.0778-.8124,1.4249-.4427.3471-.9996.5209-1.6707.5209h-1.9455ZM417.787,770.0853h3.221l.5368-1.8545h-5.4659l-1.7081,6.4419h2.1473l.5856-2.0985h3.0257l.4392-1.7081h-3.0257l.244-.7808ZM424.229,772.9158c-.5856,0-1.0249-.3904-1.0249-1.1225,0-.8784.6344-1.7569,1.6105-1.7569.488,0,.8784.244,1.0248.7808l1.9521-.8296c-.2928-1.1713-1.2689-1.9033-2.6353-1.9033-2.7817,0-4.1482,2.1473-4.1482,3.9042s1.2689,2.8305,3.0746,2.8305c1.3665,0,2.3425-.5856,2.9769-1.4153l-1.5129-1.1713c-.3904.4392-.8296.6832-1.3177.6832ZM430.9149,768.2308h-2.1473l-1.7569,6.4419h5.1242l.488-1.8545h-2.9281l1.2201-4.5874ZM439.7481,771.0125c0-1.6593-1.3177-2.9281-3.221-2.9281-2.1961,0-3.8066,1.8057-3.8066,3.8066,0,1.6593,1.3177,2.9281,3.221,2.9281,2.1961,0,3.8066-1.8057,3.8066-3.8066ZM434.9167,771.6957c0-.8296.5856-1.7081,1.5129-1.7081.7808,0,1.1713.5368,1.1713,1.2201,0,.8296-.5856,1.7081-1.5129,1.7081-.7808,0-1.1713-.5368-1.1713-1.2201ZM443.2131,772.2326h1.0737l-.1952.6832c-.1464.0488-.3416.0976-.5856.0976-.6832,0-1.2689-.3904-1.2689-1.2201,0-1.0249.732-1.9033,1.9521-1.9033.5856,0,1.1225.244,1.5129.5856l1.3665-1.3665c-.4392-.5368-1.5129-1.0737-2.7329-1.0737-2.5865,0-4.2946,1.7569-4.2946,3.8554,0,2.0497,1.6105,2.8793,3.221,2.8793.9272,0,1.8545-.2928,2.4889-.6832l.9272-3.3186h-3.1234l-.3416,1.4641ZM450.7775,768.0844c-2.1961,0-3.8066,1.8057-3.8066,3.8066,0,1.6593,1.3177,2.9281,3.221,2.9281,2.1961,0,3.8066-1.8057,3.8066-3.8066,0-1.6593-1.3177-2.9281-3.221-2.9281ZM450.3382,772.9158c-.7808,0-1.1713-.5368-1.1713-1.2201,0-.8296.5856-1.7081,1.5129-1.7081.7808,0,1.1713.5368,1.1713,1.2201,0,.8296-.5856,1.7081-1.5129,1.7081ZM437.9424,767.4987c-.0488.2928.0976.488.4392.488s.5368-.1952.6344-.488c.0488-.244-.0976-.488-.4392-.488s-.5856.244-.6344.488ZM432.1349,765.4978c-.4392,0-.732.244-.7808.5856s.0976.5856.5368.5856.732-.244.7808-.5856c.0976-.3416-.0976-.5856-.5368-.5856ZM433.0134,767.3035c-.0976.5368.1464.8784.8296.8784.6344,0,1.0737-.3904,1.1713-.8784s-.1464-.8784-.8296-.8784c-.6832,0-1.0737.3904-1.1713.8784ZM439.6017,777.552l-2.4401-1.8057h-1.5129l4.2458,3.1722,1.6105-3.1722h-.976l-.9272,1.8057ZM425.8394,767.1571l-2.0009-1.4641,23.1323-2.7817-2.1473,4.2458h1.0248l2.6841-5.3195-26.9877,3.221,2.7817,2.0985h1.5129ZM338.7186,785.7853l.6088-3.8315h2.32l-.084.5194h-1.7636l-.1837,1.1445h1.6272l-.084.5248h-1.6166l-.2573,1.6428h-.5668ZM342.97,785.8377c-.3568,0-.6228-.1005-.7978-.3019-.175-.201-.2345-.473-.1784-.8161l.2677-1.7006c.056-.3429.2029-.6148.4408-.8161.2379-.201.5355-.3019.8923-.3019s.6228.1.7979.2993c.1748.1993.2361.4707.1837.8136l-.2677,1.7057c-.0561.3431-.2039.6151-.4435.8161-.2398.2013-.5381.3019-.895.3019ZM343.0487,785.3339c.1925,0,.3483-.0524.4672-.1575.119-.1051.1942-.2571.2257-.4568l.2678-1.7006c.0315-.1993.0051-.3517-.0787-.4565-.084-.1051-.2223-.1575-.4148-.1575s-.3473.0524-.4645.1575c-.1173.1048-.1916.2571-.2231.4565l-.2677,1.7006c-.0315.1996-.0053.3517.0787.4568s.2204.1575.4094.1575ZM344.9961,785.7853l.6088-3.8315h1.202c.2379,0,.4391.0464.6036.139.1645.0928.2835.223.357.391s.091.3656.0524.5932c-.0384.2591-.14.4838-.3044.6746-.1645.1905-.3656.3209-.6036.391l.5354,1.6428h-.6194l-.4777-1.5748h-.5406l-.2466,1.5748h-.5668ZM345.8883,783.7068h.6352c.1889,0,.349-.0558.4803-.168.1313-.1119.2107-.2623.2388-.4514.0316-.1925,0-.3454-.0944-.4593-.0945-.1136-.2362-.1706-.4252-.1706h-.6352l-.1995,1.2493ZM349.545,785.7853l.6088-3.8315h1.2544c.3709,0,.6508.1048.8399.315.1889.2099.2553.4898.1993.8398-.0384.2344-.1216.4383-.2493.6114s-.2905.307-.4881.4015c-.1978.0945-.419.1418-.6639.1418h-.6928l-.2415,1.5221h-.5668ZM350.432,783.754h.6928c.1924,0,.3568-.0587.4934-.176.1364-.117.2204-.2737.2519-.4696s-.0017-.3525-.0997-.4699-.245-.1757-.441-.1757h-.6876l-.2099,1.2911ZM352.7466,785.7853l.6088-3.8315h2.2518l-.0787.5038h-1.6954l-.1731,1.0867h1.5115l-.0787.4986h-1.5115l-.1942,1.2387h1.6901l-.0787.5038h-2.2518ZM355.8434,785.7853l.6088-3.8315h1.202c.2379,0,.4391.0464.6036.139.1645.0928.2835.223.357.391s.091.3656.0524.5932c-.0384.2591-.14.4838-.3044.6746-.1645.1905-.3656.3209-.6036.391l.5354,1.6428h-.6194l-.4777-1.5748h-.5406l-.2466,1.5748h-.5668ZM356.7356,783.7068h.6352c.1889,0,.349-.0558.4803-.168.1313-.1119.2107-.2623.2388-.4514.0316-.1925,0-.3454-.0944-.4593-.0945-.1136-.2362-.1706-.4252-.1706h-.6352l-.1995,1.2493ZM360.1316,785.8377c-.385,0-.6736-.0951-.8661-.2859-.1924-.1908-.2641-.4505-.2151-.7794h.5668c-.028.1748.0105.3121.1155.4121.1051.0997.266.1495.483.1495.2029,0,.3701-.049.5012-.1469.1313-.098.2109-.2327.2389-.4044.0209-.1504.0007-.2788-.0604-.3856-.0614-.1068-.1583-.1811-.2913-.2233l-.4566-.1364c-.266-.0803-.4619-.217-.5879-.4095-.126-.1922-.1697-.4197-.1313-.6823.035-.2099.1121-.3935.2309-.551s.2729-.2799.4619-.3673.4024-.1313.6404-.1313c.3498,0,.6158.0954.7978.2859.182.1908.2485.4437.1995.7586h-.5668c.0279-.168-.0027-.3001-.092-.3964-.0891-.0963-.2301-.1444-.4225-.1444-.1889,0-.343.0447-.4619.1338-.119.0894-.1889.2144-.21.3753-.0245.1506-.007.2791.0525.3859s.1575.1811.2939.223l.4672.1469c.2624.0806.4558.2173.5801.4095.1242.1925.1653.4217.1233.6877-.035.217-.1155.4058-.2415.5667-.1259.1612-.2878.2862-.4855.3753-.1976.0894-.419.1338-.6639.1338ZM363.2651,785.8377c-.3568,0-.6228-.1005-.7978-.3019-.175-.201-.2345-.473-.1784-.8161l.2677-1.7006c.056-.3429.2029-.6148.4408-.8161.2379-.201.5355-.3019.8923-.3019s.6228.1.7979.2993c.1748.1993.2361.4707.1837.8136l-.2677,1.7057c-.0561.3431-.2039.6151-.4435.8161-.2398.2013-.5381.3019-.895.3019ZM363.3439,785.3339c.1925,0,.3483-.0524.4672-.1575.119-.1051.1942-.2571.2257-.4568l.2678-1.7006c.0315-.1993.0051-.3517-.0787-.4565-.084-.1051-.2223-.1575-.4148-.1575s-.3473.0524-.4645.1575c-.1173.1048-.1916.2571-.2231.4565l-.2677,1.7006c-.0315.1996-.0053.3517.0787.4568s.2204.1575.4094.1575ZM365.2754,785.7853l.6088-3.8315h.7086l.6194,3.186c.007-.098.0165-.217.0289-.3571.0121-.1398.0271-.2851.0446-.4354.0175-.1506.0367-.2888.0577-.4146l.315-1.9788h.525l-.609,3.8315h-.7085l-.6141-3.186c-.0071.0945-.0167.209-.0289.3437s-.0272.2757-.0446.4226c-.0177.1469-.0367.2833-.0578.4095l-.315,2.0102h-.5301ZM368.2252,785.7853l1.5851-3.8315h.7454l.3726,3.8315h-.5616l-.0735-.9711h-1.0865l-.3884.9711h-.5932ZM369.3852,784.3418h.8714l-.0893-1.1023c-.0175-.1959-.0298-.3654-.0367-.5089-.0071-.1435-.0105-.2432-.0105-.2993-.0175.0561-.0517.1558-.1024.2993s-.1146.3112-.1915.5038l-.441,1.1075ZM371.7208,785.7853l.6088-3.8315h.567l-.525,3.3118h1.6744l-.0787.5197h-2.2465ZM376.6785,785.8377c-.3673,0-.6342-.1005-.8003-.3019-.1663-.201-.2214-.475-.1654-.8213l.4357-2.7608h.567l-.4357,2.7554c-.0315.1962-.008.35.0708.4619.0787.1122.2144.168.4068.168.1925,0,.3473-.0558.4646-.168.1172-.1119.1915-.2657.2231-.4619l.4355-2.7554h.567l-.4357,2.7608c-.056.35-.2003.6245-.433.8241-.2328.1993-.5328.299-.9003.299ZM379.8435,785.8377c-.385,0-.6736-.0951-.8661-.2859-.1924-.1908-.2641-.4505-.2151-.7794h.5668c-.028.1748.0105.3121.1155.4121.1051.0997.266.1495.483.1495.2029,0,.3701-.049.5012-.1469.1313-.098.2109-.2327.2389-.4044.0209-.1504.0007-.2788-.0604-.3856-.0614-.1068-.1583-.1811-.2913-.2233l-.4566-.1364c-.266-.0803-.4619-.217-.5879-.4095-.126-.1922-.1697-.4197-.1313-.6823.035-.2099.1121-.3935.2309-.551s.2729-.2799.4619-.3673.4024-.1313.6404-.1313c.3498,0,.6158.0954.7978.2859.182.1908.2485.4437.1995.7586h-.5668c.0279-.168-.0027-.3001-.092-.3964-.0891-.0963-.2301-.1444-.4225-.1444-.1889,0-.343.0447-.4619.1338-.119.0894-.1889.2144-.21.3753-.0245.1506-.007.2791.0525.3859s.1575.1811.2939.223l.4672.1469c.2624.0806.4558.2173.5801.4095.1242.1925.1653.4217.1233.6877-.035.217-.1155.4058-.2415.5667-.1259.1612-.2878.2862-.4855.3753-.1976.0894-.419.1338-.6639.1338ZM381.9062,785.7853l.6088-3.8315h2.2518l-.0787.5038h-1.6954l-.1731,1.0867h1.5115l-.0787.4986h-1.5115l-.1942,1.2387h1.6901l-.0787.5038h-2.2518ZM386.9426,785.8377c-.3568,0-.6228-.1005-.7978-.3019-.175-.201-.2345-.473-.1784-.8161l.2677-1.7006c.056-.3429.2029-.6148.4408-.8161.2379-.201.5355-.3019.8923-.3019s.6228.1.7979.2993c.1748.1993.2361.4707.1837.8136l-.2677,1.7057c-.0561.3431-.2039.6151-.4435.8161-.2398.2013-.5381.3019-.895.3019ZM387.0213,785.3339c.1925,0,.3483-.0524.4672-.1575.119-.1051.1942-.2571.2257-.4568l.2678-1.7006c.0315-.1993.0051-.3517-.0787-.4565-.084-.1051-.2223-.1575-.4148-.1575s-.3473.0524-.4645.1575c-.1173.1048-.1916.2571-.2231.4565l-.2677,1.7006c-.0315.1996-.0053.3517.0787.4568s.2204.1575.4094.1575ZM388.9529,785.7853l.6088-3.8315h.7086l.6194,3.186c.007-.098.0165-.217.0289-.3571.0121-.1398.0271-.2851.0446-.4354.0175-.1506.0367-.2888.0577-.4146l.315-1.9788h.525l-.609,3.8315h-.7085l-.6141-3.186c-.0071.0945-.0167.209-.0289.3437s-.0272.2757-.0446.4226c-.0177.1469-.0367.2833-.0578.4095l-.315,2.0102h-.5301ZM392.249,785.7853l.6088-3.8315h.567l-.525,3.3118h1.6744l-.0787.5197h-2.2465ZM396.1174,785.7853l.2204-1.4119-.7506-2.4197h.5774l.4462,1.4486c.0279.0945.0498.1837.0656.2677.0157.084.0253.1469.0288.1888.0175-.0419.0464-.1048.0867-.1888.0402-.084.0883-.1731.1442-.2677l.8976-1.4486h.5984l-1.5275,2.4197-.2204,1.4119h-.5668ZM399.217,785.7853l.6088-3.8315h.7086l.6192,3.186c.0071-.098.0165-.217.029-.3571.012-.1398.0271-.2851.0444-.4354.0177-.1506.037-.2888.0578-.4146l.315-1.9788h.5248l-.6088,3.8315h-.7085l-.6141-3.186c-.0071.0945-.0167.209-.0289.3437s-.0272.2757-.0446.4226c-.0177.1469-.0367.2833-.0578.4095l-.315,2.0102h-.5301ZM403.5053,785.8377c-.3571,0-.6231-.1005-.7979-.3019-.1751-.201-.2344-.473-.1785-.8161l.2677-1.7006c.0561-.3429.203-.6148.4411-.8161.2378-.201.5354-.3019.8922-.3019.3571,0,.6228.1.7979.2993.1748.1993.2361.4707.1837.8136l-.2677,1.7057c-.0561.3431-.2039.6151-.4437.8161-.2395.2013-.5379.3019-.8947.3019ZM403.5839,785.3339c.1925,0,.3483-.0524.4673-.1575.1187-.1051.1942-.2571.2255-.4568l.2677-1.7006c.0316-.1993.0054-.3517-.0786-.4565-.084-.1051-.2224-.1575-.4146-.1575-.1925,0-.3474.0524-.4647.1575-.117.1048-.1914.2571-.223.4565l-.2677,1.7006c-.0316.1996-.0051.3517.0789.4568.0837.1051.2204.1575.4092.1575ZM406.3814,785.7853l.5248-3.3121h-1.0234l.084-.5194h2.6193l-.084.5194h-1.0289l-.5248,3.3121h-.567ZM409.5178,785.7853l.6088-3.8315h2.32l-.084.5194h-1.7636l-.1837,1.1445h1.6272l-.084.5248h-1.6166l-.2571,1.6428h-.567ZM413.7694,785.8377c-.3571,0-.6231-.1005-.7979-.3019-.1751-.201-.2344-.473-.1785-.8161l.2677-1.7006c.0561-.3429.203-.6148.4411-.8161.2378-.201.5354-.3019.8922-.3019.3571,0,.6228.1.7979.2993.1748.1993.2361.4707.1837.8136l-.2677,1.7057c-.0561.3431-.2039.6151-.4437.8161-.2395.2013-.5379.3019-.8947.3019ZM413.848,785.3339c.1925,0,.3483-.0524.4673-.1575.1187-.1051.1942-.2571.2255-.4568l.2677-1.7006c.0316-.1993.0054-.3517-.0786-.4565-.084-.1051-.2224-.1575-.4146-.1575-.1925,0-.3474.0524-.4647.1575-.117.1048-.1914.2571-.223.4565l-.2677,1.7006c-.0316.1996-.0051.3517.0789.4568.0837.1051.2204.1575.4092.1575ZM415.7952,785.7853l.6088-3.8315h1.202c.2381,0,.4391.0464.6037.139.1643.0928.2833.223.3568.391s.0911.3656.0527.5932c-.0387.2591-.1401.4838-.3044.6746-.1646.1905-.3659.3209-.6037.391l.5354,1.6428h-.6194l-.4776-1.5748h-.5408l-.2466,1.5748h-.567ZM416.6876,783.7068h.635c.1891,0,.3491-.0558.4804-.168.131-.1119.2107-.2623.2386-.4514.0316-.1925,0-.3454-.0945-.4593-.0943-.1136-.2361-.1706-.4252-.1706h-.635l-.1993,1.2493ZM420.905,785.8377c-.3602,0-.6308-.1005-.8107-.3019-.1803-.201-.2423-.473-.1865-.8161l.2677-1.7006c.0561-.3463.2056-.6194.4488-.8187s.545-.2993.9056-.2993c.3568,0,.6253.1008.8056.3019.1803.2013.2423.4733.1865.8161h-.567c.0313-.1993.0026-.3517-.0866-.4565-.0894-.1051-.2284-.1575-.4175-.1575-.1925,0-.3508.0524-.475.1575-.1242.1048-.2019.2554-.2335.4514l-.2677,1.7057c-.0316.1996-.0026.3517.0866.4568.0894.1051.2301.1575.4226.1575s.35-.0524.4724-.1575.1993-.2571.2309-.4568h.5667c-.0347.2275-.1145.4252-.2386.5932s-.2808.2976-.4699.3884c-.1888.0908-.4024.1364-.6404.1364ZM424.0335,785.8377c-.3571,0-.6231-.1005-.7979-.3019-.1751-.201-.2344-.473-.1785-.8161l.2677-1.7006c.0561-.3429.203-.6148.4411-.8161.2378-.201.5354-.3019.8922-.3019.3571,0,.6228.1.7979.2993.1748.1993.2361.4707.1837.8136l-.2677,1.7057c-.0561.3431-.2039.6151-.4437.8161-.2395.2013-.5379.3019-.8947.3019ZM424.1121,785.3339c.1925,0,.3483-.0524.4673-.1575.1187-.1051.1942-.2571.2255-.4568l.2677-1.7006c.0316-.1993.0054-.3517-.0786-.4565-.084-.1051-.2224-.1575-.4146-.1575-.1925,0-.3474.0524-.4647.1575-.117.1048-.1914.2571-.223.4565l-.2677,1.7006c-.0316.1996-.0051.3517.0789.4568.0837.1051.2204.1575.4092.1575ZM425.9653,785.7853l.6088-3.8315h.6874l.1837,1.2282c.0211.119.0367.2301.0473.3332.0105.1034.0194.1828.0262.2389.0177-.0561.0473-.1364.0894-.2415.0419-.1051.0908-.217.1469-.336l.5667-1.2228h.7088l-.6088,3.8315h-.5354l.2045-1.2911c.0245-.168.0578-.3525.1-.5539.0419-.201.0874-.4041.1364-.6088s.0963-.3998.1418-.5852c.0453-.1854.0874-.3483.1259-.4881l-.8554,1.8632h-.5513l-.2833-1.8632c-.0037.1364-.0105.2947-.0211.475s-.0236.3719-.0393.5747c-.0157.203-.035.4069-.0578.6114-.0228.2047-.0481.3964-.076.5749l-.2047,1.2911h-.5405ZM429.1145,785.7853l.6088-3.8315h.6874l.1837,1.2282c.0211.119.0367.2301.0473.3332.0105.1034.0194.1828.0262.2389.0177-.0561.0473-.1364.0894-.2415.0419-.1051.0908-.217.1469-.336l.5667-1.2228h.7088l-.6088,3.8315h-.5354l.2045-1.2911c.0245-.168.0578-.3525.1-.5539.0419-.201.0874-.4041.1364-.6088s.0963-.3998.1418-.5852c.0453-.1854.0874-.3483.1259-.4881l-.8554,1.8632h-.5513l-.2833-1.8632c-.0037.1364-.0105.2947-.0211.475s-.0236.3719-.0393.5747c-.0157.203-.035.4069-.0578.6114-.0228.2047-.0481.3964-.076.5749l-.2047,1.2911h-.5405ZM432.4107,785.7853l.6088-3.8315h2.2516l-.0786.5038h-1.6955l-.1731,1.0867h1.5115l-.0786.4986h-1.5118l-.1942,1.2387h1.6901l-.0786.5038h-2.2516ZM435.5073,785.7853l.6088-3.8315h1.202c.2381,0,.4391.0464.6037.139.1643.0928.2833.223.3568.391s.0911.3656.0527.5932c-.0387.2591-.1401.4838-.3044.6746-.1646.1905-.3659.3209-.6037.391l.5354,1.6428h-.6194l-.4776-1.5748h-.5408l-.2466,1.5748h-.567ZM436.3997,783.7068h.635c.1891,0,.3491-.0558.4804-.168.131-.1119.2107-.2623.2386-.4514.0316-.1925,0-.3454-.0945-.4593-.0943-.1136-.2361-.1706-.4252-.1706h-.635l-.1993,1.2493ZM439.8007,785.8377c-.3602,0-.6308-.1005-.8107-.3019-.1803-.201-.2423-.473-.1865-.8161l.2677-1.7006c.0561-.3463.2056-.6194.4488-.8187s.545-.2993.9056-.2993c.3568,0,.6253.1008.8056.3019.1803.2013.2423.4733.1865.8161h-.567c.0313-.1993.0026-.3517-.0866-.4565-.0894-.1051-.2284-.1575-.4175-.1575-.1925,0-.3508.0524-.475.1575-.1242.1048-.2019.2554-.2335.4514l-.2677,1.7057c-.0316.1996-.0026.3517.0866.4568.0894.1051.2301.1575.4226.1575s.35-.0524.4724-.1575.1993-.2571.2309-.4568h.5667c-.0347.2275-.1145.4252-.2386.5932s-.2808.2976-.4699.3884c-.1888.0908-.4024.1364-.6404.1364ZM441.8792,785.7853l.0789-.5038h.7768l.4459-2.824h-.7766l.0837-.5038h2.1258l-.084.5038h-.7766l-.4462,2.824h.7768l-.0789.5038h-2.1258ZM444.7399,785.7853l1.585-3.8315h.7452l.3728,3.8315h-.5616l-.0735-.9711h-1.0867l-.3884.9711h-.5929ZM445.8998,784.3418h.8714l-.0894-1.1023c-.0174-.1959-.0296-.3654-.0367-.5089-.0068-.1435-.0103-.2432-.0103-.2993-.0177.0561-.0518.1558-.1025.2993s-.1148.3112-.1916.5038l-.4408,1.1075ZM448.2354,785.7853l.6088-3.8315h.567l-.5248,3.3118h1.6741l-.0786.5197h-2.2465ZM453.1932,785.8377c-.3676,0-.6345-.1005-.8005-.3019-.1663-.201-.2213-.475-.1654-.8213l.4357-2.7608h.567l-.4357,2.7554c-.0316.1962-.008.35.0709.4619.0786.1122.2141.168.4066.168s.3474-.0558.4645-.168c.1173-.1119.1916-.2657.2233-.4619l.4357-2.7554h.5667l-.4357,2.7608c-.0558.35-.2002.6245-.4328.8241-.2329.1993-.5328.299-.9001.299ZM456.3581,785.8377c-.385,0-.6738-.0951-.866-.2859-.1925-.1908-.2643-.4505-.2153-.7794h.567c-.0282.1748.0105.3121.1153.4121.1051.0997.266.1495.483.1495.2028,0,.3699-.049.5012-.1469s.2107-.2327.2389-.4044c.0211-.1504.0009-.2788-.0604-.3856s-.1583-.1811-.2913-.2233l-.4568-.1364c-.266-.0803-.4619-.217-.5878-.4095-.1259-.1922-.1697-.4197-.1313-.6823.035-.2099.1119-.3935.2309-.551s.2731-.2799.4619-.3673c.1891-.0874.4024-.1313.6404-.1313.3497,0,.6157.0954.7979.2859.1817.1908.2483.4437.1993.7586h-.567c.0279-.168-.0026-.3001-.0917-.3964-.0894-.0963-.2301-.1444-.4226-.1444-.1891,0-.3429.0447-.4619.1338-.119.0894-.1891.2144-.2099.3753-.0245.1506-.0071.2791.0524.3859s.1575.1811.2939.223l.4673.1469c.2623.0806.4556.2173.5798.4095.1242.1925.1654.4217.1236.6877-.035.217-.1156.4058-.2415.5667-.1262.1612-.2879.2862-.4855.3753-.1979.0894-.4192.1338-.6641.1338ZM458.4209,785.7853l.6088-3.8315h2.2516l-.0786.5038h-1.6955l-.1731,1.0867h1.5115l-.0786.4986h-1.5118l-.1942,1.2387h1.6901l-.0786.5038h-2.2516Z" style="fill: #ccc;"/>
  <path d="M647.49,152.5084c-66.1052-66.1052-153.9968-102.5106-247.4857-102.5084-192.9937,0-350.0049,157.0068-350.0049,349.9951s157.0112,350.0049,350.0049,350.0049,349.9962-157.0112,349.9962-350.0049c0-93.4889-36.4053-181.3816-102.5106-247.4868ZM400.0043,732.3904c-183.2834,0-332.3953-149.1129-332.3953-332.3953S216.7209,67.6096,400.0043,67.6096c88.7851-.0011,172.2548,34.5717,235.0332,97.3513s97.3535,146.2492,97.3535,235.0343c0,183.2824-149.1086,332.3953-332.3867,332.3953ZM395.9438,80.6097h0c-176.3844,2.2331-317.6185,147.0856-315.3847,323.47,2.2347,176.3844,147.0856,317.6102,323.47,315.3846,176.3843-2.2338,317.6102-147.0856,315.3846-323.47-2.2338-176.3844-147.0856-317.6186-323.47-315.3847ZM403.9792,715.5218c-174.2089,2.2089-317.2769-137.2833-319.4857-311.4921-2.2047-174.2088,137.2832-317.2768,311.5004-319.4857,174.2089-2.2056,317.2769,137.2916,319.4857,311.5004,2.2006,174.2088-137.2916,317.2768-311.5004,319.4774ZM392.8022,191.0448c-5.1762,33.1247-60.6313,20.5216-69.5751,65.9493-.1417.6002-.3751.7585-1.0419.3918-18.4878-10.3525-30.349-19.4547-47.6449-26.3147-.2084-.1084-.2084-.3751-.1083-.4418,30.249-25.0394,75.2515-40.3931,113.9859-40.3015h0c1.2419.0084,2.4922.025,3.7175.0583.4751.025.4418.4335.6668.6585ZM411.4818,190.3863c40.0764,1.5837,77.7771,15.5454,107.9511,37.0006.4334.2751.6835.5918,0,.8752-13.3532,8.4188-26.4398,17.2959-39.6346,26.048-.4584.3918-.5418.1084-.6668-.3334-6.0015-28.4736-33.3998-35.9171-58.1558-45.9944-.4751-.2084-1.1086-.6252-1.492-.9836-3.9843-3.9343-10.8193-10.0107-8.4938-15.8455-.0167-.6085.1084-.7668.4918-.7668ZM518.9911,440.3801c16.8374,7.2101,39.5929,22.8389,39.9597,46.928.8252,28.7153-29.3987,48.0533-24.6059,75.3266,64.5906-55.8552,91.1554-138.3252,66.066-224.9378-24.756,24.8227,15.4204,66.4161-39.0845,89.6301-4.8095,1.417-9.4273,3.1007-13.7783,3.1174-12.1196.0584-29.3655-9.1855-29.2571,9.2106,0,.3334.3.5668.7001.7252ZM543.5554,441.7972c.7001-1.6088,2.9424-2.8424,4.8178-3.1758.6835-.1167,1.3337-.225,1.9838-.2084h0c.6335,0,1.2836.0916,1.9171.2667,8.4687,1.542,21.2802,6.5266,28.8903,15.9455.4918.6085.2667,1.1169-.4918,1.0503-12.228-.3668-25.9646-1.7171-35.4753-9.2106-1.3503-1.067-2.5922-2.1255-1.642-4.6678ZM548.4983,251.7845c18.2961,16.8458,38.4343,45.636,45.436,69.967.1417.3334-.2417.3167-.4918.2084-20.1716-1.067-29.6322-28.3318-47.0864-37.6675-.5417-.3668-.5584-.7335-.4334-1.2086,2.8923-10.0691,3.9093-20.4049,2.5756-31.2993ZM257.1027,245.0496c-7.16,14.8035-6.5432,26.6314-5.2596,40.6682.0167.2917-.2001.4167-.4418.5585-18.1052,11.4528-25.8237,42.2603-49.4462,40.1264-.4301-.0417-.6143-.1834-.4934-.4918,10.7876-31.4576,31.5009-59.4561,55.6409-80.8612ZM196.0804,342.5231c-24.4601,66.8412-.426,170.7497,74.608,225.638.0167-1.417.8419-4.3677,1.7004-6.3515.3167-.7668.2667-1.7504,0-2.684-2.7507-12.0862-9.9608-24.2725-16.8207-36.1337-23.6658-39.2845-10.5276-66.2244,27.6817-83.7036.4918-.1584.6001-.4334.3334-.9419-.5918-1.3003-1.1753-2.5839-1.7504-3.9009-.175-.3501,0-1.0502-.8752-.9252-8.5688,1.0669-18.2128,1.8254-26.9315,1.4337-13.1199-2.9257-25.6496-8.152-35.0844-22.047-16.8907-23.5807,6.2415-55.2968-21.6544-70.9338-.2309-.1334-.4484-.2251-.6577-.175h0c-.2084.0582-.3609.2833-.5493.725ZM218.6217,459.2931c9.0255-8.2687,19.0096-15.7955,29.2704-15.8955.6835-.0167,1.3503,0,2.0338.05.5668.0667,1.142.0667,1.5254.4418,2.3505,2.8007,1.8838,6.7183-2.509,9.7523-9.2772,5.9431-20.0315,6.2766-29.9373,6.7017-.3876.0167-1.0661-.4084-.3834-1.0503ZM519.5495,574.0959c-13.895-6.5599-26.5064-1.8422-41.7851,1.7004-17.2958,4.0176-41.5767,7.6519-61.1732-19.2964-.3334-.0917-.6335-.4251-.9836-.4418h0c-.125-.0167-.2667.0167-.3834.1084-7.6018,3.6093-19.5464,5.368-26.2647,1.592-.8085-.4001-1.2836-.1-1.6004.3668-12.0696,20.4383-40.7515,19.9548-61.1148,14.7619-15.1287-3.4092-29.9323-7.7269-42.1602,4.3844,63.6654,45.9111,161.8058,47.3448,235.4653-3.1757ZM401.3959,561.2178c.5084-.4418.9335-.5835,1.4921-.5584.175.0167.3668.0333.6001.05,2.2089.2584,3.4675,1.3837,4.8179,2.909.6501.8586.8835,1.8588.7751,2.9174-.3668,9.4356-1.9838,18.9796-5.1595,27.2399-.0667.3917-.3501.4751-.4918,0-3.6842-11.6279-9.9774-23.3973-2.0338-32.5579ZM423.2763,102.3933c14.8786,2.7757,43.2938,7.6385,58.1724,10.5267-2.8423,3.3224-.0167,9.5306-.2834,14.5276-7.9937-9.0513-30.5074-10.1074-41.2767-12.939-.9503,4.4427-1.9171,8.9338-2.4756,13.4874,6.2849,1.2778,17.5792,3.6567,23.8641,4.8762,1.9922.4501,5.6597.225,7.6102-.2167-2.7757,3.3342-6.6349,10.4192-11.7362,9.2106-5.9847-.7252-15.6454-3.0007-21.6469-4.0593-1.1086,4.7762-1.7421,9.644-2.7423,14.4202,6.1598,1.2753,21.4552,4.3177,27.6317,5.4847,5.9348,1.2753,12.3196-.0084,17.3209-3.5092-1.8254,5.3846-6.3682,8.8605-5.9681,14.8036-15.0537-2.834-43.1188-8.1353-58.1224-10.861,2.2255-2.0505,4.4427-3.3591,4.9346-6.4099,2.784-13.6617,5.4012-27.3491,7.8352-41.0649.6668-2.9982-1.2253-5.7789-3.1174-8.277ZM358.3606,118.8948c.1084-5.0521,4.6678-9.4823,1.6004-14.5277,14.3285-.1792,41.8018-1.6879,56.1386-1.7546-2.6173,2.599,2.7673,8.137,2.7924,13.705-5.268-3.205-17.1292-4.3627-23.5807-3.8926.3501,12.6772.8585,27.5158,1.8754,40.2439.05,3.7176,1.5087,3.9343,4.3845,6.5766-5.8431.1-15.6955.8669-21.9304.9336,1.6671-1.0503,3.7009-2.709,3.6176-5.318-.1917-13.7867-1.6171-27.6733-1.6004-41.5026-6.3099-.1917-18.4378,1.1278-23.2973,5.5364ZM122.6885,291.8525c6.5032-13.595,20.1924-38.8594,26.8082-52.4543,4.0507,3.2841,7.177,2.7007,11.8962,4.6011-4.5544,2.2756-8.2473,6.0348-10.5259,10.5275-2.9457,5.7181-10.1033,20.1549-12.9381,25.923,4.0518,2.0005,9.3239,3.9843,13.3766,6.0348,2.8907-5.7181,9.2806-18.5045,12.1154-24.2809.9453-1.8422,1.8071-3.876,1.9196-5.8765,2.6065,3.726,6.2732,8.9355,6.2482,12.0196-2.2789,5.2596-8.8488,17.3125-11.0727,22.6305,4.4402,2.0005,8.0011,4.6511,12.6097,6.2098,2.7791-5.9431,10.1575-20.33,12.9365-26.2647,2.3914-5.3263,3.1841-11.8945,2.3039-17.3792,3.1625,2.8924,4.7311,6.2599,7.8403,9.2106,1.1086,1.1003,2.6664,2.4006,4.221,2.4006-7.5443,13.7034-19.6473,38.1592-26.2072,51.9792-1.1628-3.0007-3.6909-5.8931-6.5783-7.3517-11.7662-5.8181-23.5923-11.5445-35.3602-17.4376-3.2741-1.6671-5.9847-1.9254-9.5931-.4918ZM105.8579,361.1027c1.2203-5.7764,3.4908-16.5957,4.8237-22.3221,2.0546,3.0007,3.465,5.8098,6.9617,6.4766,12.6614,2.7757,25.4428,5.8431,38.1567,8.3353,1.0562-6.7183,5.1053-19.8047,4.6069-26.7064-.1125-3.6592-.5245-8.8354-2.4139-11.8945h0c3.9985,2.0588,6.8033,5.4597,10.7468,7.6351,1.2211.7752,2.669.5419,4.056.4251-2.8315,13.1699-8.2412,37.1174-11.1294,50.2205-1.6103-2.9424-4.7295-5.3096-7.8377-5.9764-13.4933-3.0591-26.9682-6.0348-40.5148-8.8771-2.9982-.6669-4.902.8002-7.4559,2.684ZM484.0827,162.6462c-1.6171,3.4425-3.6842,5.6264-7.5101,7.0684,5.1012,2.609,13.8617,6.985,19.0129,9.594-2.1589-7.8853,3.1924-14.9619,6.2515-21.3218,2.9424,1.6088,10.836,5.293,12.7698,8.4938,2.5923,4.3843,3.2258,8.8854,3.7843,13.4282.25,4.1093.5834,7.2101-3.6592,8.6688,5.9598,2.4256,15.3287,7.4185,20.8717,10.0858-4.4011-9.0688-1.6837-21.4052-7.5602-30.3156,3.8259.1667,10.2441.8085,14.3118-1.7004,7.3518-4.3094,9.1439-11.1277,6.6349-20.1215-1.3837-4.7345-6.0348-7.4351-9.9858-9.3189-9.4356-4.6678-28.6069-13.9225-38.0509-18.5312,1.2336,3.0541,1.9505,5.9381.4918,8.8263-5.4346,11.7137-11.6111,23.3415-17.3625,35.1443ZM512.848,135.3397h0c5.0178,2.5089,12.3863,5.7847,16.9457,8.277,12.0946,6.2849,3.4925,19.4297-5.2596,14.4785-5.0012-1.6671-13.7534-6.6099-18.6295-8.6104,2.1005-4.8845,4.7844-9.2606,6.9433-14.1451ZM160.351,225.2614c3.8451-4.5094,10.2958-12.6531,13.9258-17.3375-.1075,3.8926,1.5012,6.86,4.386,9.0522,10.5468,8.2354,20.9726,16.5457,31.5777,24.7227,2.4981,2.0172,5.6472,1.8421,8.8804,1.417-3.7334,4.4594-9.9191,12.478-13.7608,17.0541-.3492-3.4508-1.5546-6.4682-4.221-8.4854-10.3825-8.177-20.8084-16.3873-31.2484-24.5143-2.719-2.1339-5.9698-2.434-9.5398-1.9088ZM194.8344,214.6172c-5.1071-9.8441-5.1529-17.6043-.821-26.0397,3.1083-7.3684,16.0664-19.0546,23.299-22.4221,2.1647-1.167,3.9843-2.9924,5.3738-4.9929,2.2839,4.3844,3.4767,9.2106,5.7581,13.545-9.9474.3834-23.7283,13.2198-24.3434,20.1715-.616,6.9517,1.8246,11.4778,5.3713,15.3538,3.5475,3.8759,6.079,7.6685,14.0351,8.0602,7.9544.3834,14.9528-7.6602,19.4622-12.7781,3.0507-3.8843,5.3013-7.8936,6.5765-12.553,3.5676,3.8343,7.2518,7.5185,10.7526,11.4028-4.1677,1.8338-6.9266,5.443-9.769,8.7188-5.1595,6.7682-16.454,17.7543-28.9962,18.5295-12.6255,0-20.8784-5.3846-26.699-16.9958ZM315.9254,115.7708c7.8936-5.9965,28.2985-7.4318,37.459-9.4298.1584,4.8295-.4584,9.5873-.0583,14.4168-6.8933-2.8315-21.8553-2.2905-28.4568,1.207-3.4342,1.7771-3.6092,7.0459-.5418,9.1564,3.6009,1.7763,6.735.4385,10.5275.4385,6.6516-.4435,22.2971-1.4212,27.3483,4.1135,5.618,6.2098,5.3346,16.0289-.4335,22.8055-4.8262,5.8264-21.947,10.4609-29.1737,11.5111-3.3925.6085-8.7188,1.0753-11.7195,2.959-2.2839-4.9929-4.7011-9.3606-6.86-14.4202,8.8188,2.6674,29.0154,2.6674,36.4505-3.9426,3.4425-3.5509,1.2336-10.8027-4.001-11.0193-7.6102-.6085-22.222,2.8173-29.9239-.3334-12.228-6.3765-10.0524-20.9117-.6168-27.4625ZM234.5773,152.3354c12.9815-7.6102,38.2626-20.2441,51.4158-27.6301,1.5087,4.9979,6.1599,6.91,9.0522,11.126-11.5778-.6585-29.7989,11.6778-39.9597,16.2873,1.8254,4.1593,4.3511,7.9519,6.4599,11.9529,5.5597-3.0007,17.5959-9.669,23.0806-12.7198,1.8254-.9418,3.4925-2.3422,4.7761-3.8926-.6501,4.3094,1.067,9.6024-1.8588,13.2699-5.0012,3.3258-16.8291,8.5604-21.9303,11.7278,2.2589,4.3344,4.6844,8.6604,7.0684,12.8864,6.5433-3.7259,21.2968-11.2444,27.5817-15.462,3.876-2.834,8.6271-7.0184,9.9608-11.6195,1.7004,5.2679-.9836,13.2782,3.2424,15.6788-13.5366,7.4352-38.801,20.5717-52.296,28.0652,1.317-3.2175,1.8254-6.7017.1583-9.594-6.4349-11.6612-12.9114-23.314-19.4047-34.9752-1.6087-2.9424-3.9593-4.2094-7.3468-5.1012ZM429.2525,638.7197h0,0s0,0,0,0ZM231.6122,577.1632c-2.579-11.9779-12.2614-22.2471-23.2982-27.2983-4.8679-1.8087-8.973-2.7173-12.8273-2.5756h0c-2.3139.0667-4.567.5251-6.8,1.3671-10.7101,3.9509-18.5695,10.861-21.7078,22.6971-4.4002,16.1956,13.3116,37.459,30.0406,40.4598,10.7401,1.8088,20.2491-2.0671,26.7507-9.0022,6.1223-6.0015,9.9291-14.9786,7.8419-25.6479ZM218.8408,584.7234c-3.7284,8.2853-10.6559,13.6366-19.2438,14.812-9.3298,1.2919-21.3885-11.0527-20.1207-21.2301,1.5195-9.3356,7.6085-13.1449,12.6106-15.7872,2.9632-1.442,5.9064-2.1422,8.7171-2.1255h0c4.6828.0166,8.9405,1.8921,12.1154,5.2095,5.8647,5.418,8.6296,12.0696,5.9214,19.1213ZM465.5529,687.1981c-.3334,1.2753.5251,2.3839,1.0336,3.5592-13.2782,1.5421-37.8174,5.5263-51.154,6.7933,2.7673-3.2175,2.7006-8.2853,2.3672-12.228-1.6171-12.603-4.1593-24.6727-5.593-37.2674-.3917-3.2758-2.4422-4.4761-5.2096-6.4182,5.8181-.7168,16.1705-1.9171,22.2554-2.9174-2.2255,2.5673-3.4507,4.5677-3.0173,7.9019,1.5504,12.7698,3.7592,26.2563,5.2679,39.0344,3.6092.0834,15.212-1.7921,19.188-2.4589,6.935-1.2086,13.3032-3.9092,17.7043-8.9438-.5585,4.5594-2.2422,8.4354-2.8424,12.9448ZM388.7344,644.321c-.5085-1.5587.175-3.4925.225-3.6675l-22.7055-2.2422h0c.4084.8419.1584,2.8924-.5418,3.8177l-23.8391,40.3514c-2.1255,3.4592-4.126,5.0345-7.085,7.3018,5.4346.8419,14.8369,3.5425,20.2966,4.5928-1.7587-3.826-1.6003-8.5604,1.242-12.2113,8.4187.7418,24.1558,1.8838,32.5245,2.9006,1.7004,3.976,3.8759,8.7521,0,12.3864,5.543-.0417,15.212-.2501,20.6133.1167-2.434-2.8923-4.8012-5.8014-5.8181-9.544-2.5339-7.4684-11.9529-35.2085-14.9119-43.8022ZM361.9779,672.828l14.0367-24.7226h0s9.7191,26.473,9.7191,26.473c-6.0765-.3501-17.6876-1.067-23.7557-1.7504ZM339.014,670.7943c.8419-8.0353-7.7186-11.7528-11.0693-13.545,8.8188,1.092,14.7535-3.6176,15.2286-11.8945.7502-5.8931-4.6177-12.3363-16.7707-16.279-8.7188-2.8423-25.5312-8.8938-34.3167-11.3527,1.717,3.1257,1.2753,6.7016.275,9.9857-3.8342,12.8365-8.7188,24.3809-12.5613,37.1757-.8585,3.1007-2.8007,4.9429-6.735,5.8598,12.178,3.8593,26.3147,9.0105,39.1929,12.9448,13.3365,4.3177,25.3145,1.1002,26.7565-12.8948ZM312.7993,674.3701c-5.9098-1.8755-13.7867-4.3344-19.3964-6.4683,1.3503-4.7761,3.4175-9.7607,4.7678-14.5785,5.5764,2.1755,14.8286,5.3096,19.7881,7.2267,10.861,3.7842,8.002,18.3461-5.1595,13.8201ZM322.3433,650.9477c-4.6428-.7502-17.6793-4.4011-22.0303-6.0348,1.2253-4.3677,2.4923-8.7688,3.8427-13.1031,4.6844,1.6504,18.0294,4.7011,22.5804,6.6016,6.3432,2.6257,2.2255,13.9951-4.3928,12.5364ZM190.2784,524.1505c-.4434-12.2446-7.2892-24.3892-17.27-31.2993-4.747-3.3341-9.449-4.6511-14.1993-4.7761h-.0003c-1.5823-.05-3.1771.0916-4.77.2667-10.7326,2.3005-20.7042,7.5934-25.2728,18.8045-6.0206,15.6371,5.8715,39.6846,21.8203,45.561,10.2558,3.6675,20.3999.9169,28.0134-4.7678,7.0717-4.8428,11.8679-12.9365,11.6786-23.7891ZM155.4104,540.0959c-9.4156-.3334-18.9554-12.3864-16.1731-23.9474,2.6456-9.4189,13.3315-13.945,19.1329-14.4202,5.9192-.0333,11.9313,1.4754,16.0081,7.5602,5.0687,6.3015,6.6066,15.1537,3.0157,20.455-5.1013,6.7016-13.3241,10.7026-21.9836,10.3525ZM129.6423,451.783c-7.4135,2.4756-16.7849,2.2089-21.8187,9.2606-1.3645-5.7347-3.2966-15.087-4.5502-20.8217,2.6823,2.0672,4.3994,3.2591,7.2368,2.2422,14.1367-3.4008,27.3533-6.0848,39.7463-9.594,3.2576-.6167,5.9889-2.8588,7.8942-5.5925,2.6316,13.4701,9.1013,38.184,11.952,51.537-4.3243-1.1252-8.3167,4.2094-13.1573,5.7514,4.6155-9.4856-1.3473-27.9985-3.8932-37.9425-4.8103.6668-9.4573,2.0671-14.1993,3.1257,1.437,6.2265,4.1527,18.2211,5.5928,24.5059.3071,1.9088,2.2895,5.2763,3.3436,6.86-4.0593-1.4254-9.2239-1.8755-12.3347-5.1096-1.9788-5.8181-4.051-18.2794-5.8122-24.2225ZM266.9299,612.0217c-.7418-.2417-1.0586.7002-1.442,1.1086-6.7349,10.0358-13.5782,19.9965-20.3299,29.9822-2.0755,3.1174-2.4256,6.2765-1.4753,10.0858-4.7762-3.3007-13.4391-9.0855-18.2111-12.3863,2.614-.2084,5.1054-.4752,6.5266-2.859,7.6501-11.3361,15.4937-22.5305,23.0372-33.9833-5.0762-3.7926-15.9539-9.5773-22.4413-8.9272,4.3203-6.7183,9.7882-5.1429,9.8799-10.4775h0c11.7862,7.9103,34.9585,22.6139,46.6946,30.6992-4.2593,1.7421-3.8176,8.8605-6.1348,13.3199-1.9504-6.0515-10.5775-13.5616-16.1039-16.5623ZM158.1511,427.277s-.0002.0003-.0004.0005c0-.0001,0-.0003,0-.0004h-.0002.0007ZM521.5165,668.1602c-.0667,1.3337,1.0336,2.1922,1.7587,3.2508-12.6864,4.2094-34.9001,12.228-47.7032,16.1706,2.0672-3.7176.6835-8.002-.4418-11.7862-4.1176-12.0196-8.9105-23.264-12.8781-35.3169-1.0502-3.1257-3.1924-4.0343-6.2932-5.368,5.5597-1.8922,15.012-5.8431,20.6633-7.3018-1.6671,2.9674-2.4923,5.1763-1.367,8.3353,4.101,12.1946,8.9272,25.0311,12.9781,37.2257,3.6675-.3668,14.0701-5.0012,17.7709-6.1932,6.5683-2.559,13.0199-5.6848,15.9539-11.7862.3834,4.5761-.7585,8.2437-.4418,12.7698ZM655.6159,246.9083h0s0,0,0,0h0ZM600.8527,250.8593c9.769-6.4932,19.0463-13.3199,28.8403-20.0215,4.0342-3.0007,6.9933-4.7345,7.1683-10.3525h0c3.1758,4.8262,9.2355,13.2699,12.3864,18.0878-4.0677-1.367-5.8181-.4668-8.8772,1.6003-10.5942,6.985-20.5216,14.5952-31.0825,21.6469-3.0507,2.0005-5.7513,4.2844-6.0848,9.3189-3.2174-4.8762-9.494-13.2115-12.6697-18.1461,3.9509,1.9005,7.5435-.3668,10.3192-2.1339ZM673.6536,315.8167c3.0674-4.0676,8.0186-7.21,9.2105-12.6614h0s5.1013,23.7891,5.1013,23.7891c-2.7339-2.6673-5.8181-1.5837-8.0686,1.1586-5.1763,5.3846-10.8943,10.8776-15.7872,16.5623,6.685,2.559,16.0372,6.91,23.9141,9.9608,1.7504.6668,3.4675-.3501,4.9261-2.4589l4.4928,21.5469c-3.0841-3.1924-27.715-13.3699-40.8432-20.5133-2.8757-1.2586-6.4183.2834-10.4192,1.0003-4.4928,1.1419-6.9267,3.1757-9.2106,6.6349-1.1586-5.768-3.2592-16.0538-4.5428-21.8219,4.101,3.4341,6.5933,2.809,11.9446,2.0338,2.584-.5835,6.8433-1.0919,8.5604-2.7007,7.1934-7.2684,14.5785-15.3537,20.7217-22.5305ZM641.5875,250.4175c4.6095-1.7754,11.1027.9086,14.0284-3.5091,6.0598,12.9865,18.071,37.0005,24.0725,50.0037-4.9429-.5334-7.0684,5.1679-11.4028,7.7852,1.6171-6.3849-3.2091-17.0375-6.0848-22.6972-11.3361,4.8179-20.58,9.7524-31.8077,14.8536-3.7759,1.6671-7.8269,5.1096-9.2106,9.1605-2.6006-5.2263-6.935-14.4785-9.5273-19.7381,2.4423.9335,6.2098,1.7004,8.5938.4918,12.5613-5.9514,22.9305-11.2277,35.4752-17.1041-2.3339-5.9514-8.5271-16.0872-14.1368-19.2463ZM558.0256,210.4495c-.05-10.6443,4.5261-17.7377,11.2444-23.8475,6.0014-5.0762,11.6861-7.4435,20.2798-7.0767,1.2253.0583,2.5423.175,3.8926.3334,12.0195,1.9171,21.9303,12.8781,27.1982,20.555,2.4339,3.2258,4.0176,5.8931,7.6102,8.1186-4.5261,2.2756-8.7521,4.1343-13.2115,6.4683-.6668-7.8269-8.3521-18.5712-16.9291-21.9886-9.594-2.6507-15.9955.1083-22.3137,7.7352-3.3842,4.3511-5.3347,6.9517-3.9509,14.912,2.1755,10.0024,17.3209,18.6878,26.2646,21.3718-3.7342,3.4925-7.5435,7.1767-11.1943,10.9109-.4668-3.8259-5.3846-6.6849-8.4854-8.9772-11.0193-6.9517-20.1799-20.1299-20.4049-28.5152ZM673.3202,431.8198c-5.2263,1.467-8.1603,7.5018-9.3189,11.7361-.0167-6.3015-4.8012-13.4616-12.278-13.2615h0c-2.4923.0667-5.318.9585-8.3354,2.959-4.2927,3.7759-5.8764,9.6857-7.2934,14.9703-1.9338,8.9272-6.735,27.2733-8.4938,36.2255,2.9674-2.3839,5.5264-2.6506,8.8772-1.9171,13.1031,2.8257,26.1563,5.7931,39.2095,8.6188,3.1591.6085,5.493,3.0841,7.2851,5.8598,1.9255-12.4197,9.644-37.6675,9.4356-50.3372-.2501-10.3859-9.8774-17.0125-19.088-14.8536ZM658.1415,453.375c-1.0169,4.6345-2.859,14.3868-3.9926,18.9713-4.4594-.9002-9.0939-1.9005-13.4949-2.9174,1.267-4.7845,2.4589-11.5778,3.7176-16.4373,1.267-5.5096,4.426-7.6352,7.4017-7.6352,3.8426.025,7.3934,3.5675,6.3682,8.0186ZM682.5808,455.2338c-1.242,5.8848-3.5092,16.7374-4.5928,22.5305-4.8595-.9836-9.894-2.1589-14.8036-3.1258,1.242-5.8931,3.1508-14.3868,4.7178-20.2799,1.4503-6.0347,4.7678-8.277,7.8936-8.1769,4.001.1417,7.6686,4.1593,6.785,9.0522ZM640.6039,576.238c-8.6521,10.1859-25.1227,29.1154-33.9999,39.1345-.1583-4.2427-1.6671-6.8267-4.6011-9.494-9.7856-8.102-19.1379-16.5374-28.7819-24.7643-2.5256-2.1422-5.6847-3.7759-9.0522-3.3008,3.7676-4.4928,9.2606-10.7192,13.3282-14.912.1251,3.3842,2.1755,6.3682,4.7762,8.5104,9.8357,8.2603,18.7545,15.8038,28.5569,24.1225,2.8923-3.1091,10.0524-11.2277,12.278-14.2117,4.4094-5.0513,7.8768-12.3364,8.0519-18.5295,2.709,3.7009,3.4758,6.6849,6.0348,11.3527.6669,1.4003,2.2339,1.5837,3.4092,2.0922ZM626.6756,487.0248h0s0,0,0,0ZM585.4989,614.2723c3.6342,3.7842,6.4183,8.2603,9.7524,12.2279-4.001.3084-7.3517,4.0676-10.0858,6.8016-8.302,8.4354-19.5131,15.1954-30.0323,15.2953-9.4022-.2418-16.2122-4.4844-21.6135-11.7862-5.4597-7.1934-7.6352-15.1703-5.6347-25.0477,2.5089-11.4611,14.5452-21.2468,23.1223-25.3395,3.9677-1.7504,9.4773-3.8426,12.228-7.4518h0c1.4753,4.5429,2.684,9.5941,4.2844,14.312-8.8105-1.5254-22.8306,6.2098-26.2147,16.7707-2.2755,8.1937,1.142,15.1953,6.6349,20.8801,4.9429,4.2593,9.469,6.0848,16.2289,4.5594,7.6602-2.0838,18.9796-13.9784,21.3301-21.2218ZM667.077,525.309c.4001,7.1184-3.0924,14.6119-7.0684,21.0468-3.7593,6.1431-8.9855,12.1028-15.1453,13.5283-7.1351,1.592-12.3696-.3668-17.5959-3.3342-6.8433-3.9843-12.5947-7.3184-19.5048-11.2944-3.7175-2.3006-7.285-3.8427-12.4613-1.5254,3.9009-6.4932,7.2517-13.3866,10.9693-19.6881.2417,4.9846,2.634,6.1265,5.3179,7.6685,7.7686,4.7345,13.895,8.052,21.6636,12.7198,3.1591,1.8254,7.8936,3.8259,12.0529,1.8754,5.7514-2.5422,10.0692-10.1024,10.2108-16.3539-.3668-4.6678-3.9176-8.1936-7.1934-10.0858-8.4771-4.7178-15.7704-8.9605-24.3309-13.4866-2.4089-1.2836-5.3013-1.1253-8.227.2751,3.8593-6.7017,7.2267-13.0114,10.9109-19.6297.1002,4.7344,4.6262,7.5934,7.7852,9.4938,8.2103,4.7845,14.6702,8.177,22.8055,13.1031,4.9846,3.3174,9.4606,8.3354,9.8107,15.6871ZM395.928,269.1721c2.2755-7.6519,3.1008-12.4947,6.2932-22.1053.6168,10.0358.7335,13.4949,3.1758,22.2137-3.0007-.0583-5.3013-.075-9.4689-.1083ZM394.2776,233.8552h0c.7169-.175.5751.4084,1.1586.8252.4501.3834.4334,1.7921.1584,2.7924-.2501,1.2086-.9836,1.2086-1.5504.9419-.6668-.3084-1.142-.9753-1.5254-1.5421-.3-.3334-.3167-.7668,0-1.317.2667-.9252,1.0336-1.4503,1.7588-1.7004ZM399.7623,228.5955c-.0833-.5417-.1334-1.3336,0-1.5837.1417-.2751.3918-.5418.6502-.6668.2333-.1334.4584-.1917.7252-.2084.2418-.0333.5251-.0167.7002,0,.4167.0167.6835.1584.9252.4251.175.2584.3918.4335.4418.7169.1918.7752.1918,1.7504,0,2.634-.1417.5085-.9335,1.0336-1.5754.6085-.5168-.3834-.8668-.6668-1.267-1.1586-.1917-.2251-.5085-.4168-.6002-.7669ZM411.3234,236.4891c.025.5585-.3501.6668-.5418.9836-.3834.4334-1.0002.35-1.492.125-1.0002-.5668-.5085-2.1589-.4918-3.2508,0-.2084.1251-.4167.2834-.5418.0917-.075.125-.0917.2084-.1083.2667-.0667.5085.0583.7752.1083.2584.0334.4001.2584.5417.4918.1584.3167.0751,1.1003.2334,1.5421.1167.3.4835.3834.4835.6501ZM401.571,192.1951c1.1253,7.7102,4.9512,14.4035,9.9691,20.3383,1.0002.7668,2.0172,1.5338,3.0174,2.3006,23.9808,11.1777,53.8714,17.0374,57.5056,44.1774.125,2.809-4.001,3.7759-5.7014,5.6514-.4418.4418-.6835.6001-.7585-.2668-2.2922-18.3961-10.3859-24.2725-21.6136-30.7491-14.9952-8.6688-31.3992-11.0944-41.3267-29.6155-.125-.2084-.5251-.2834-.6501,0-11.8112,27.7401-65.8243,25.0394-64.4239,65.0157,0,.5835-.4918.7252-1.0503.3918-5.5597-3.0757-7.2101-6.3682-5.9097-9.4773,11.4861-36.8173,42.3102-29.5071,67.2579-54.6132.4918-.5919.9002-1.1503,1.0586-1.9672.7502-3.7259,1.5087-7.9686,2.6256-11.186ZM197.515,333.646c28.5886,4.5928,34.6234-23.1973,56.8538-38.8761.175-.1417.3501-.2167.4918-.2167.1584-.0167.2418.075.3834.2167.7752,1.0336,1.5587,1.9838,2.4172,2.8423.3751.3168.3168.7502,0,.9419-15.187,17.4792-29.4696,33.9166-48.415,37.5424-.8735.1584-.6418.3751-.3843,1.0586,3.5617,6.7183,9.3648,12.3697,10.8018,21.3135,6.1765,30.9492,11.2119,58.2974,40.9482,63.8738,2.0005.3334,10.0524-.7919,12.453,2.634.2667.4001-.0167.7335-.4334.7668-37.5633,5.1096-51.4958-19.438-53.2437-37.6591-2.0697-21.6302-1.5804-44.9525-21.8728-54.4382ZM260.562,338.2888h0c.2584-.05.4501.0584.7168.1251.2667.0334.4168.3.5418.5418.1584.3.0917,1.0919.2334,1.5337.1.3084.4334.3834.4167.6668,0,.5418-.3834.6085-.6002.9252-.3834.4251-.9919.3668-1.467.1083-1.0002-.5834-.4418-2.1588-.3918-3.2341,0-.2251.1251-.4335.2834-.5418.0917-.0667.175-.1.2668-.1251ZM250.5762,332.9791c-.0667-.5418-.1251-1.3336,0-1.5837.1584-.2751.4001-.5418.6668-.6668.225-.1334.5085-.1918.7752-.2084.2417-.0333.4668-.0167.6501,0,.4167.0167.6835.1584.9252.4251.175.2584.3834.4335.4418.7169.1917.7751.1917,1.7504,0,2.634-.1417.5085-.8835,1.0336-1.5254.6085-.5084-.3834-.8669-.6668-1.267-1.1586-.1917-.2251-.5585-.4168-.6668-.7669ZM246.8086,343.1149c-.2501,1.217-.9836,1.1586-1.5504.8835-.6669-.3-1.2086-.9669-1.5754-1.5337-.3001-.3334-.3168-.7169,0-1.2586.2584-.9336,1.0336-1.5087,1.7504-1.7588.7252-.175.5668.4084,1.1419.8252.4751.3918.5085,1.8421.2334,2.8423ZM254.2104,352.5005c1.5587,9.5273,4.176,18.988,6.2932,27.7901-3.2258-.9503-5.9431,1.7754-6.96,5.3179-.2501-3.1257-3.4758-5.5764-7.5102-5.0345,3.4592-7.2851,7.0017-18.3711,8.177-28.0735ZM310.0156,533.9028c3.4508-7.2851,7.0017-18.3711,8.1769-28.0734,1.5421,9.5439,4.1677,19.0046,6.2932,27.8067-3.2258-.9586-5.9431,1.7254-6.96,5.2679-.2501-3.1425-3.4758-5.543-7.5101-5.0012ZM315.6669,487.5332c-.0917-.5417-.125-1.3336,0-1.592.1334-.2667.3834-.5251.6418-.6668.2334-.1251.5084-.175.7751-.2167h0c.2667-.0333.5251-.0167.7168,0,.4084.0417.6168.1583.8835.4418.1501.2667.4168.4251.4835.7002.2001.7751.175,1.7587,0,2.6339-.1334.5085-.9419,1.0336-1.592.6168-.5085-.3918-.8419-.6668-1.267-1.1586-.1917-.2333-.5585-.4084-.6418-.7585ZM325.5776,496.3104c-.9835-.6002-.4251-2.1589-.3751-3.2508-.0167-.2084.125-.4168.2667-.5419.0917-.075.1917-.0917.2834-.1083.2584-.05.4501.0333.7002.1083.2834.0334.4167.3001.5585.5419.1417.3167.0167,1.1085.1584,1.542.125.3168.5084.3918.4918.6502,0,.5668-.4584.6168-.6501.9335-.4001.4167-.9419.3668-1.4337.1251ZM277.3326,572.4454c6.8766-19.5297.4752-29.5405-13.9867-53.838-19.2463-27.215-12.3697-58.1224,22.0554-71.4256.2084-.0834.3834-.1334.5417-.175h0c.4918-.0667.7752.1083.8752.6001.5668,2.0005.9669,3.9259,1.0919,5.8764.05.5585-.3501.7751-.5418,1.1419-41.9351,19.138-24.4976,50.6456-22.147,56.2637,7.5269,16.4706,19.4047,29.157,18.0377,49.1202-.1917,1.5587.9502,1.9588,1.7004,1.9588,2.809.2501,5.4763-.9419,8.1103-2.2922.8252-.4417,3.3342-.8835,4.176-.8835,27.4483-.0833,63.7488,2.534,74.9432-9.2606.6168-.8752,1.1752-1.1003,2.1922-.7168,1.367.5418,2.7673,1.1586,4.101,2.0838.5668.5502,1.142.8835.7752,1.3754-27.3483,39.9597-75.0182-11.8612-101.9247,20.1716ZM310.2906,493.343h0c.7252-.175.5668.4001,1.1419.8253.4751.3834.4418,1.8421.1584,2.8423-.225,1.2086-.9669,1.1586-1.5254.8752-.6668-.3167-1.1586-.9669-1.5253-1.5254-.3001-.3334-.3334-.7418,0-1.267.2667-.9252,1.0336-1.5087,1.7504-1.7504ZM480.3984,497.6024c-.6668-.3001-1.142-.9586-1.5254-1.5253-.3-.3334-.3167-.7169,0-1.2587.2584-.9169.9753-1.5087,1.7004-1.7587.7169-.175.5751.4084,1.1336.8252.4751.3834.5168,1.8421.2334,2.8423-.2501,1.2086-.9836,1.1586-1.5421.8752ZM495.3104,492.5679c0-.2084.1166-.4335.275-.5419.0917-.0667.1917-.1083.2834-.1083h0c.2417-.05.5084.0417.7502.1083.2834.0334.3751.3002.5168.5419.1334.3167.0667,1.0919.2084,1.5254.125.3167.4334.4084.4334.6668,0,.5668-.4001.6168-.5918.9335-.4084.4167-1.0002.3668-1.492.1-.9836-.5751-.4251-2.1506-.3834-3.2258ZM480.7819,533.6361c3.4592-7.2767,7.0184-18.3628,8.177-28.0651h0c1.5587,9.5273,4.176,18.9796,6.2932,27.79-3.2258-.9503-5.9431,1.7671-6.96,5.3096-.2334-3.1174-3.4592-5.5764-7.5102-5.0345ZM486.2166,486.8665c-.0834-.5417-.1167-1.3837,0-1.6504.1417-.2584.3917-.5251.6501-.6502.2334-.1334.4584-.1917.7252-.225.2418-.0333.5251-.0167.7002,0,.4167.0334.6835.175.9419.4418.1584.2584.3751.4168.4251.7169.1917.7585.1917,1.7587,0,2.6339-.1417.5085-.9336,1.0336-1.5837.5919-.5085-.3668-.8585-.6668-1.2586-1.142-.1918-.225-.5085-.3668-.6002-.7168ZM525.7428,565.9689c-34.1332-18.7712-73.9095,25.7896-100.8161-11.9446-.6335-.7752-.6501-1.2087-.1083-1.9672.8085-1.2586,1.6504-2.2088,2.7924-3.0674,1.0502-.8085,3.9093-.5585,6.2932,2.0172,25.8813,30.1073,53.1962,2.2088,84.7705,8.277.6002.1084,1.6838-.1,1.6838-.8752.075-3.3174-.4168-6.0848.075-9.2606.2417-2.984,3.4341-9.769,4.7678-12.0696,12.8615-22.3887,37.1423-60.5397-12.178-80.7029-2.7506-.8752-2.7173-2.4339-2.0338-4.2593.7752-1.6171,1.5421-3.1591,2.3006-4.7762.0667-.1917.2667-.3668.4418-.3834.0667,0,.1-.0334.175,0,25.1395,10.1441,48.3117,30.8241,28.507,64.4739-8.9105,16.7374-24.6643,35.3502-16.6707,54.5382ZM543.8889,338.1387c.4667.3834.4834,1.7838.225,2.784-.2501,1.2086-.9836,1.1586-1.5421.8752-.6668-.2917-1.1586-.9586-1.5253-1.5253-.3001-.3334-.3168-.7169,0-1.2587.2584-.9335.9752-1.5087,1.7004-1.7587.7169-.175.5585.4584,1.142.8835ZM549.3735,331.2204c-.0834-.5418-.1168-1.3337,0-1.5754.1417-.2834.3917-.5418.6501-.6668.2334-.1417.5084-.2251.7751-.2834.2418-.0333.4752,0,.6502,0,.4167.0333.6835.175.9419.4418.1583.2584.3751.4918.4251.7668.1917.7752.1917,1.7588,0,2.634-.1417.5085-.9336.9836-1.5837.5418-.5085-.3668-.8585-.5918-1.2587-1.0836-.1917-.225-.5084-.425-.6001-.7751ZM558.4091,337.1552h0c.2667-.0583.5084.0334.7752.1.2584.0417.3667.3001.4918.5502.1584.3084.0833,1.1003.225,1.5421.1083.3167.4418.3834.4418.6501,0,.5584-.4084.6085-.6168.9252-.3834.4251-.9502.3668-1.417.1251-.9836-.6002-.4418-2.1589-.3918-3.2425,0-.2167.075-.4251.2334-.5501.0834-.0667.175-.0834.2584-.1ZM551.1323,414.7322c43.2605-15.3537,17.0875-55.6301,39.0345-81.4197.4001-.4084.3-1.0919-.5084-1.267-18.4545-4.1927-39.6346-28.2068-46.703-32.5079-.3501-.225-.3501-.4918-.3334-.8252.0917-1.592.4001-4.001.7752-4.4344.0833-.1084.175-.1918.275-.2334.0917-.0167.2333,0,.3167.0583,16.6707,13.0698,31.0158,36.8755,53.4546,34.5917.4918-.05.7919.6835.2335,1.1086-22.1971,16.0539-10.4109,45.4694-16.6707,66.1744-4.8595,18.5795-21.0884,27.3483-47.1031,25.6979-.1583,0-.425-.2417-.3834-.4334,1.4921-5.3513,9.5773-4.3011,17.6126-6.5099ZM543.0053,377.715c3.4592-7.2851,7.0183-18.3711,8.1769-28.0735,1.5587,9.5273,4.176,19.0046,6.3015,27.7901-3.2341-.9503-5.9514,1.7921-6.9683,5.3346-.225-3.1424-3.4758-5.593-7.5101-5.0512ZM383.2083,409.5226c.2251.3834.4001.8919.3834,1.3087-.0167.1417-.05.2501-.125.3918-.5418,1.1586-.8752,2.3339-1.142,3.6675-.0333.1917-.2084.3501-.3834.3834-.0667,0-.175-.0167-.225-.05-.9502-.5835-1.8254-1.142-2.684-1.7588-.8252-.5918-1.6004-1.2419-2.3506-1.8754-.0167,0-.0583.0167-.0583,0-.7668-.6335-1.467-1.3003-2.1922-1.9672-6.4349-5.9431-10.961-12.403-19.6298-14.1367-.0167-.0167-.0333,0-.05,0-3.876-.7752-8.5271-.5835-14.5786.9836-2.0172.2084-4.251.2084-6.5266.05-2.2839-.1584-4.6011-.4751-6.8099-.8752-1.067-.1917-2.1755-.4251-3.1758-.6668-.0167,0-.0333.0167-.05,0-1.0002-.2334-1.9338-.5085-2.7924-.7585-.0333-.0167-.05,0-.0667,0-1.7754-.5251-3.2091-1.0836-4.2094-1.592,4.5261.0834,9.5023.0333,13.8033-.1584s7.8769-.4751,9.594-.8252c.5835-.2834,1.2836-.5251,2.0422-.7752.7001-.225,1.5087-.4751,2.3505-.6501.0667-.0167.1584,0,.2251,0,.7502-.1584,1.5421-.2917,2.4006-.3834.1417-.0167.2501-.05.3918-.05,1.0336-.1083,2.1005-.1584,3.2258-.175h0c.9086,0,1.8588.05,2.809.1.9586.0917,1.9421.175,2.9424.3334.7585.125,1.492.2834,2.2672.4418.2417.0667.4918.1083.7502.175.4584.1084.9169.2418,1.367.3834.6001.1584,1.1752.3334,1.7587.5502.8585.2917,1.6838.6085,2.5256.9752.7335.3168,1.4753.6668,2.1922,1.0419.7168.3834,1.442.8252,2.1422,1.2587.5919.3668,1.1753.7585,1.7504,1.1586.2668.175.5251.3.7752.4918.4167.3168.8419.6501,1.2587.9836.0917.0667.175.1417.2667.225.0667.0583.1584.1083.225.1584.125.1083.2667.2334.3918.3334.5417.4752,1.0836,1.0169,1.6254,1.5254.7086.6668,1.3754,1.3503,2.0422,2.0922.05.05.1.1.175.1584.5918.6835,1.1503,1.4003,1.7504,2.1339.3334.4584.6835.9169,1.0336,1.3753.2834.4001.5418.7502.8252,1.1586.6168.9086,1.1753,1.8588,1.7587,2.859ZM321.7017,333.1542c3.2591-4.6678,6.835-8.8771,9.7523-13.9867.9836-1.9255.0334-2.8423-1.8087-3.7343-3.6509-1.8422-2.3173-2.8591-4.3344-3.8926-2.4589-2.0005-.6168-6.2682-.4918-10.7359.125-1.5837.1584-3.0174-.1251-4.6678-.3668-2.634-4.4177-5.793-5.5263-7.7185-4.6094-7.8602-6.6766-7.7352-7.9436-12.1279-2.7507-.6252-6.3182-2.5757-8.402-3.6592-9.7941-4.9178-8.6688-9.9357-21.2134-15.4204-1.2753-1.2336-3.0508-2.0588-4.5928-2.0755h0c-.9502-.0166-1.7921.2834-2.4256.9336-.9252,1.2086.1584,6.4683,1.1586,9.4189,7.4018,65.3992,11.8112,46.4029,13.9117,68.3666.8085,8.227,2.4256,14.2618,8.5104,17.7209.2834.1.4751.4001.8752.1,6.3516-5.6264,12.228-11.5945,19.3047-15.8372,1.2587-.7419,2.5006-1.6004,3.3508-2.684ZM307.9233,338.7305c-6.0848,7.3851-9.0522,4.6678-10.8526,0-1.1253-3.4592-2.3173-7.3684-.7585-11.3527.9669-2.1922.3834-3.9926-1.267-6.0848-2.2089-3.1008-4.0093-6.3849-5.7514-9.6523-.6168-1.2253-1.0169-2.2756-1.2586-3.8176-2.1922-13.5783-1.7921-33.8832-6.1431-41.335h0c12.8198,7.1767,20.9967,19.2296,27.2983,19.4047.9835,1.5253,2.3839,3.1007,3.5591,4.3344,9.4356,10.736,1.9505,14.7369,10.2441,28.507.9003,1.9255,1.3004,3.8009,0,4.9762-5.543,4.8262-10.4692,9.719-15.0703,15.0203ZM364.6788,403.8212c-.225-.9835-.6501-1.9171-1.2086-2.759-.3001-.4167-.6168-.7668-1.0002-1.1419-.3501-.3668-.7002-.7002-1.142-.9836-.4418-.2917-.9335-.5251-1.417-.7169-1.0252-.4001-2.0005-.5751-3.0174-.5417-.3918,0-.7919.0333-1.1586.1083h-.1084c-.3334.05-.6668.175-.9835.275-.3334.1084-.6835.175-1.0002.3168-.0167.0167-.0333.05-.05.05-.3334.175-.6668.3334-.9835.5668-.3835.2417-.7002.5918-1.0336.9252-.075.0583-.1583.0917-.2334.1583-.3083.3334-.5584.7002-.8168,1.1086-.2834.4168-.5668.8752-.7585,1.3671-1.0002,2.5089-.6001,5.2096.8085,7.2767.5751.8419,1.2837,1.5837,2.1422,2.1422.4335.2834.9252.5084,1.4337.7252.4918.1917,1.017.3501,1.5254.4334,1.0169.175,2.0338.1584,3.0174-.05,1.9505-.4251,3.7426-1.5837,4.8762-3.3008.025-.0167,0-.0334,0-.05.2834-.4418.5084-.8585.7252-1.367.5918-1.5087.7001-3.0924.3834-4.5428ZM353.9261,404.4131c-.9335.1084-1.7755-.5417-1.8588-1.4753-.1084-.9419.5918-1.7671,1.5254-1.8754h0c.9502-.0834,1.7671.5417,1.8588,1.492.1083.9335-.6002,1.7504-1.5254,1.8588ZM362.4699,419.4833c-1.1086.0167-2.2089-.0167-3.3342-.05-3.3008-.0917-6.5766-.3501-9.8774-.8835-.3501-.0333-.6501-.1167-.9836-.2584-.3167-.1417-.5918-.3334-.9252-.5585-1.0169-.6918-2.0922-1.4753-3.1757-2.3505-1.0919-.8835-2.1255-1.7921-3.1258-2.684-1.0336-.9169-1.9838-1.7587-2.809-2.5339-.8085-.7502-1.4503-1.4003-1.9088-1.8588-.4752-.4167-.8419-.7668-1.1586-1.1002-.3-.3168-.5585-.6335-.7751-.8752-.4001-.4918-.5752-.8252-.8002-1.1419-.125-.1584-.2501-.3-.3918-.4418-.4334-.4584-1.1419-.9503-2.7339-1.8088-.1917-.0834-.3168-.1584-.3334-.2751-.0167-.075-.0167-.125.05-.2167.0583-.0833.1083-.1917.2084-.275.175-.1417.3917-.2501.5668-.3334.1584-.0917.3168-.175.4918-.2167.175-.05.3501-.1.5418-.1167h0c.1917,0,.4001.0334.6002.0668.0333,0,.0834-.0167.1167,0,.3501.0333.7002.1584,1.0919.3167.4168.175.8586.3834,1.317.6669.4667.2834.9586.6001,1.492.9835l.15.1084c.4584.3501.9169.7001,1.4254,1.1003.5418.4251,1.0502.7919,1.6504,1.267,1.1003.8585,2.3173,1.8004,3.6092,2.7339.6502.4752,1.317.9086,2.0339,1.367.5501.3501,1.1086.7585,1.7087,1.1086.2417.1417.5084.275.7502.4167.6835.3917,1.4087.7585,2.1422,1.1086.7169.3501,1.4754.6668,2.2422.9836.2501.1.4751.2417.7252.3334.7668.2917,1.5754.5251,2.4006.7669.9836.2834,1.9838.5668,3.0174.7751,1.0502.1917,2.1255.3334,3.2425.4167,1.1252.1084,2.3005.175,3.5092.175.2334,0,.4084.0583.5501.1584.1334.0917.2418.2167.2751.4418.0333,1.8921-1.7004,2.559-3.5759,2.684ZM343.1152,351.6754c0-.0667.0417-.1334.0583-.175.0333-.0167.0667-.05.1167-.05h0c.1083,0,.2501.0333.3334,0,.3501.1251.6335.2668.8835.3834.2418.1417.4168.2834.5919.4418.6501.5585.9169,1.192,2.5839,1.9838.4001.1917.9252.4335,1.5254.6501.6085.2084,1.3337.4168,2.1922.6669,2.0672.6668,3.5425,1.0502,4.9262,1.5754.0333.0167.0333.05.075.05,1.367.5502,2.684,1.217,4.3094,2.3672.5668.3918,1.1586.8502,1.8254,1.3753.6501.5251,1.392,1.1169,2.1922,1.8005.3334.2667.6335.4418.7085.9335.0167.1584,0,.3168-.0583.4918v.05c-.05.175-.125.3334-.2084.5084-.2084.3668-.4918.6835-.7752.9336-.1.0667-.1917.125-.275.1583-.075.0167-.2167.0167-.3918,0-.5251-.1083-.9419-.175-1.367-.3334-.3834-.1417-.7169-.3168-1.0336-.4918-.3334-.175-.6168-.3334-.8752-.5417-.2667-.2167-.4751-.4418-.7168-.6668-.4918-.4584-1.0002-.9336-1.6505-1.4254-.3-.2418-.6335-.4752-1.0419-.7169-.4001-.2334-.8586-.4751-1.367-.7001-.5251-.2334-.9419-.2834-1.367-.175-.1417.05-.3.0834-.4335.175-.5668.225-1.0919-.0417-1.6504-.175-.4251-.0917-.9002-.2501-1.367-.4251-.025-.0167-.0416,0-.0583,0-3.4175-1.3503-7.6685-4.6844-7.6852-8.6688ZM458.96,353.1507c-2.1088.5668-4.251,1.2836-6.4099,2.1422-1.0836.4168-2.1339.8919-3.2424,1.367-5.4346,2.4006-10.9777,5.4014-16.4874,8.177-.5834.2418-.9669.1584-1.2169-.175-.0834-.125-.15-.2501-.2084-.4418-.1251-.5918-.1-1.1753-.05-1.7504.0334-.5668.1417-1.1419.1584-1.7587.05-.8419.5751-.8919.8752-1.317,1.0336-.4001,1.9088-.7502,2.634-1.0836,2.1589-1.0002,3.0341-1.7004,3.7676-2.3506.5085-.4418.9669-.8419,1.6004-1.3336.6501-.4752,1.5087-1.017,2.9091-1.6838.8419-.3834,1.6837-.7335,2.5089-1.1086.8419-.3501,1.6671-.7001,2.4756-.9836.6335-.3334,1.367-.5251,1.9838-.5417h0c1.4337-.0667,2.9423.1083,4.4344.4417,1.4753.3334,2.9507.8419,4.2094,1.5253.3917.2418.4918.7169.0583.8752ZM524.2507,262.2037c-.4167-1.9421-.8752-3.8759-1.0836-5.9764-.1251-1.0753-1.0336-1.9338-2.1922-2.0172-.175-.0167-.3668-.0417-.5418,0-.5501.05-1.1086.2917-1.6504.7502-12.8781,11.0693-25.2811,12.5447-39.3679,27.4233-12.103,12.6865,3.2758,24.2975-13.7034,35.3503,10.911,9.9941,22.0887,22.7305,34.5917,28.8403.3751.2084.7252.2418,1.0419,0,7.8352-5.2596,9.4856-13.6699,9.9774-26.8565,9.794-15.0536,5.443-39.6179,12.9281-57.5139ZM500.795,335.5048c-.4001.5251-.9419.8252-1.592.7668-8.1603-1.3503-13.8784-11.6278-20.8217-17.4376-.7085-.5585-1.0586-1.0836-.8252-1.6421,2.8257-6.2849,9.3106-12.5864,4.2761-18.9713.2501-18.2961,22.1053-21.2385,35.0918-34.7501-1.6004,15.7372-7.3351,26.1564-5.543,39.3512-6.6849,8.2103-4.4427,23.5223-10.5859,32.6829ZM397.1866,312.7493c.3334.5084.5835,1.1086.4418,1.8588-.3501,2.2089-1.4087,4.3344-2.2505,6.5766-.0333.1084-.1.1584-.175.2334-.0667.05-.125.1251-.2084.1584-.175.0667-.3834.05-.4918-.0583-1.0503-1.3337-2.1922-2.684-3.1425-4.051-.3167-.4168-.6501-.8752-.6501-1.4337.0417-.4418.0583-.8835.0583-1.2503,0-.3834-.0167-.7168-.0583-1.0502-.0834-.6168-.275-1.1586-.5418-1.5837-.0167-.0167,0-.05,0-.05-.5585-.8919-1.5253-1.417-3.0674-1.8254-1.267-.3668-2.3672-.9252-3.3008-1.5754-.0167-.0167-.0333,0-.05,0-1.3671-.9836-2.3506-2.3006-3.0174-3.8926,0-.0167-.05-.0417-.05-.0583-.6668-1.6254-.9669-3.5259-.9836-5.7514,5.3263,3.6176,11.3111,8.4521,17.1542,13.3116.125.1417.2084.2834.3334.4418ZM440.222,411.9232c.4335.3001.9086.5085,1.417.7169,3.0007,1.192,6.3516.4084,8.4938-1.7504.7169-.7252,1.3003-1.5837,1.7004-2.584.4084-1.0002.5835-2.0505.5668-3.0674-.0417-1.0169-.2667-1.9838-.6668-2.9091-.7919-1.8254-2.2672-3.3674-4.2844-4.1593-1.0002-.4084-2.0505-.6335-3.0674-.6168h0c-.4918.0167-1.0002.1251-1.4754.2334-.4584.0834-.8918.2084-1.317.3834-.1083.0334-.175.1251-.2834.1584-.05.0334-.1.0334-.1584.05-.3334.1751-.6835.3334-.9752.5585-.3918.2667-.7252.6001-1.0586.9335l-.2084.2084c-.225.2501-.4584.4918-.6668.7752-.1084.1417-.1751.2834-.2668.4334-.0333.0417-.0833.075-.1167.1083-.2167.3501-.3917.7002-.5501,1.1086-1.192,3.0007-.4001,6.2932,1.7587,8.4354.3668.35.7169.7001,1.1586.9835ZM441.1473,400.9039h0c.9335-.1,1.7587.5418,1.8671,1.4754.1.9503-.6002,1.8254-1.5337,1.9255-.9419.0917-1.7671-.5919-1.8755-1.5421-.0833-.9252.6168-1.7504,1.5421-1.8588ZM420.2589,297.7291s0,0,0-.0001h0s0,.0001,0,.0001ZM402.5046,310.2237c5.0845-5.2263,11.8361-8.6854,17.7542-12.4946-5.6347,10.444-8.4937,9.4605-11.8945,13.5449-.2501.2834-.5084.6335-.7751.9835-.2418.3501-.5085.7169-.7502,1.142-.2668.4167-.4584.7919-.5668,1.1586,0,.0167.0167.0333,0,.05-.0834.3501-.1417.7419-.1584,1.0503.1584,3.4091-.4001,4.7928.4918,5.9181.0583.0834.0917.175.1083.275.05.1084.05.2167.0667.3168.0167.2334-.0334.4584-.1168.6168-.6335-.4001-1.617-1.1586-2.4589-1.9088-.6501-.5835-1.192-1.1253-1.442-1.6004,0-.0167.0167-.0333,0-.05-.0667-.1584-.1-.3168-.1-.4418,0-.3501-.0333-.5751-.0583-.7752-.0834-.7835-.3084-.6668-.4918-1.5253-.0834-.4335-.1917-1.1169-.225-2.3089-.0167-.5835,0-1.317,0-2.2006-.0667-.5585-.0167-.8419.125-1.0836.05-.1084.1251-.225.2084-.3334.0917-.1083.175-.2084.2834-.3334ZM529.8521,411.0481c-4.0177-8.5104-2.6507-9.2856,10.4192-27.4067-6.91-3.6509-11.7195-7.8436-16.5123-11.1943-15.0287-11.7862-1.3837-21.7886-.1501-27.5734.8586-3.2841,2.1505-7.4268,2.4673-11.6195,1.6004-9.6606.7001-21.0468,5.6347-26.098,3.6342-3.5092,4.6844-22.7222,5.2596-24.2809,3.9843-12.5447,2.5256-14.2285,3.2508-22.1053.1167-1.0503.4918-1.8922,0-3.0508-2.7756-7.6519-6.1765-15.0536-10.0941-22.3887-.3501-.6335-.6085-1.242-1.1002-1.367-.075-.0167-.175,0-.2667,0-.0834.0167-.175.0167-.2751.0667-19.9298,5.6347-46.8447,28.6319-69.0167,48.7868-.6501.7418-1.5421.9002-2.2672.6501-14.7369-4.8428-31.8744-5.468-46.1528-5.8597-20.3716-1.8755-44.8608.6168-66.7745,7.7185-.9419.3334-1.6504-.5251-2.3506-1.367-17.3459-19.2963-41.7852-35.1002-68.1582-46.1028-.7335-.3501-1.3503-.6669-2.1922.1083-13.5366,12.4863-10.5609,49.4703,1.0586,69.5251,1.367,2.9091,1.6671,8.0103,1.7004,9.7524.8252,10.7859,2.9257,20.1049,5.7513,30.1573.7002,6.2432,3.0925,12.5947,6.685,17.9794.7001.8585.4001,1.6337-.1084,2.1922-4.5928,4.6011-8.7855,8.9521-13.3782,13.545-.3334.3167-.9669.5417-1.5837.6501-3.8093.4418-5.0012,1.6837-6.8017,6.0848-.2667.6335-.2333,1.0753.1,1.6004.6501,1.2086,5.0679,8.8605,8.7188,12.9282,3.5258,3.4925,2.2089,6.81-.7668,9.9857,5.6263,4.2094,15.6954,12.2613,16.2956,13.4866.6335,3.2424,6.3516,4.3344,2.9424,8.9855.9002.2084,1.442.5418,2.1422,1.1003.5084.5502.6168,1.0753.6668,1.6504.4584,5.0513,1.4087,9.6357,4.2094,14.4702,11.4028,19.3381,24.1808,16.354,39.3679,32.8413,9.0855,9.8774,18.0544,10.2692,24.2309,27.6901-.5668,6.6099-.9169,10.6609,1.8088,16.379,3.2258,6.985,11.1694,7.2518,21.3802,11.8945,1.367.5335,2.1255.9503,3.1257,1.9838,2.6673,2.6006,5.7347,4.2677,9.2106,5.9181,2.809,1.192,6.1348,1.192,8.7188-.1083,4.9095-2.809,5.9431-.7752,15.0203-7.3018,8.5604-2.5256,22.5388-13.0698,21.0468-31.0159.05-.5251.175-.8752.3334-1.3336.2667-.8252,1.0336-1.6504,1.7587-2.4506,3.4509-4.126,7.4019-7.7769,9.8191-12.7781.4918-1.2086.9169-2.3839,2.0172-3.2925,34.1749-27.8984,22.0887-15.6371,34.4417-25.1061,25.3312-19.2629,8.7021-41.7518,38.3677-54.3298ZM410.1731,540.8127c-.3917,1.0336-1.5504,2.3506-2.1422,2.8591-.3668.2834-.9336.3917-1.4254.5418-2.0672.5501-5.293.7919-5.8597.7084-.5085-.1083-1.0169-.3-1.4921-.6001-1.8004-1.0169-3.4841-2.1922-5.2596-3.2758-.3834-.3001-.4001-.7585.05-.8252,2.3923-.2335,4.9178-.4418,7.5852-.5085h0c2.6423-.0584,5.4513.0333,8.2103.3834.4167.0833.4501.4335.3334.7168ZM515.607,412.9068c-8.3853,9.1022-19.563,16.3123-30.5991,20.9468-1.4753.5251-3.0341,1.1753-3.8426,2.2422-2.909,3.2258-5.6847,6.0931-8.4854,9.2606,0,0,0,0-.0001,0-.7086.7919-1.392,1.5837-2.0922,2.4255-.3167.3834.3001.5251.4918.4418.8419-.2334,1.2419-.125,1.9088,0,.4418.2584.3917.7168.3917,1.1336.1,1.6171-1.192,1.7087-.8085,3.5092,2.2839-2.9257,4.4594-5.7681,6.785-8.4354.5502-.6835,1.267-1.492,2.3506-1.367l2.534.3334c.8585.0334,1.6837-.125,2.6256-.3917,2.2339-.8752,3.9009-1.9588,6.0348-3.4008.7001-.3334,1.2836-.4334,1.7587-.4334,1.3837.0167,1.8088,1.3087,1.6504,2.6256-1.4753,18.5962-10.1441,13.4783-29.9489,31.0909-5.1762,4.1343-3.4758,8.152-10.4608,14.0367-5.8514,5.468-11.3111,11.186-16.2956,18.2628-.8085,1.2086-1.4003-.0751-1.4753-.6168-.2418-1.4754-1.1169-3.1425-2.3506-4.4928-3.2758-3.6842,1.9504-3.2258-3.9426-12.0529-2.4423-3.5759-5.2679,1.0336-6.9684-4.7678-1.0502-3.7426-.05-1.9005-1.367-10.5859-.9836-6.4015-3.2424-18.4711-8.5104-42.7103-.225-1.0753-.05-2.0004.4918-3.0174,4.6345-8.3187,10.6859-17.1124,17.8793-24.1808,4.7512-4.1177,8.9438-5.5764,12.7698-5.8014,6.4016-.3751,11.7695,2.684,17.2125,2.3505.4584,0,.6835.1918.8251.5585.2418.4751-.0333,1.5253-.4918,2.0172-3.7759,4.7762-8.1937,9.0022-13.3699,12.1196-1.0669.6669-2.0505,1.142-3.2424,1.3754-3.0757.6668-6.4766.5084-9.7607.3334-3.6592-.2167-4.051,3.1924-7.8353,11.2277-1.1419,7.3268-2.4423,14.9953-4.9345,21.4886-.7169,8.4854.3501,15.5454,2.4256,21.3801,1.6254,4.6345,3.9093,8.5104,6.4016,11.7362.3668.4418-.3167,4.351,1.2086,7.7935.3168-5.4347,5.1763-8.5604-1.7504-18.3128-.9002-1.267-1.367-2.5089-1.7004-4.0009-.0417-.1584-.075-.2834-.1084-.4418,0,0,0,0,.0001,0-.8085-3.8093-1.8588-7.2433-2.3006-10.8609-.1917-1.2587-.2417-2.3672-.0667-3.6092,2.8423-22.2971,6.1181-23.0723,5.4346-30.6992-.0167-.3,0-.7252.6002-.6168,9.3689,1.7504,30.9075-5.4431,33.8748-20.33.1918-.7418.4585-1.2836,1.442-1.4254,5.193-.6668,10.9277-3.0674,14.912-7.4518.5084-.5334.4501-.8252-.3918-.6668-4.8011.8918-9.8774,1.6837-14.962,2.1339-13.3532-1.242-38.7177-3.4175-38.9261.6168-.075.7752.8752.7919.8252,1.3004-.0583.4584-.125.7502-.6168.8752-5.793,1.6004-12.578,11.7361-13.2615,13.8284-.6668,2.0171-1.5254,3.8759-2.7423,5.468-1.467,1.9838-3.5259,4.3344-4.326,6.0931-1.1837,5.2263-1.267,10.736.15,16.0122.4418,1.8421.3334,3.3842,0,5.0846-1.0336,5.2512-.5585,10.986.4418,16.4623,2.4756,16.1373,6.6683,19.438,10.5942,40.8349.2167,1.1253,1.6337,1.6004,2.3005,1.1086.0667-.0667.1583-.1417.2084-.2251.7001-1.1086,1.492-2.0005,2.5839-2.5839.1918-.0667.3668-.1167.5418-.1.5585.0333,1.0502.5084,1.2586,1.1003,2.7257,6.1431,6.1098,16.9458,5.0012,20.4383-4.0009,15.337-14.8036,17.8793-24.8393,16.5623-7.5269-.9835-7.5602-2.7506-7.6852-7.7852.0167-.5501.7752-.7585,1.3837-.9335,9.0939-2.8591,14.5619-7.8102,14.7953-17.2626.05-1.2836.2084-2.6339-.4418-3.7925-.3501-.6252-.9503-1.2086-1.9088-1.7004-7.16-3.3841-16.5123-3.6675-26.3147-1.9671-2.5089.3751-4.1426,1.0753-5.1096,2.0255-.4918.4835-.7919,1.0502-.9836,1.642-.5084,1.4587-.4167,3.9343,0,6.1931.175,1.3337.6335,2.509,1.317,3.6676,3.2842,5.1096,5.618,7.4018,9.319,9.9274,1.542.9336,3.2424,1.7421,5.2096,1.5504.5417-.075.8585.2917.7668.7502-.5918,7.5269-4.0176,8.0353-12.6614,6.9683-19.1547-3.8259-20.8467-16.304-10.4776-35.1418.2334-.6668.5502-1.0002.8252-1.0836.3001-.0917.5668.0667.8835.4335.2251.2501.5418,1.0336,1.2587,1.0336.125,0,.2834,0,.4418-.05.9086-.3334,2.9257-.175,3.8926-.5418,1.0669-.5417,1.7171-1.6003-1.317-5.8764-.2084-.2834-.3334-.5501,0-.9335,6.9517-7.4518,12.5114-60.2396,12.8782-65.941.05-6.3682-8.7355-9.9191-10.2442-8.7772-1.4086,1.4254,1.6838,6.1432,4.4344,8.9855.4751.3501.2167.8419,0,1.1586-2.3672,3.2758-4.8428,29.5905-7.9936,45.8944-.2667.6835-.6918,1.6421-1.1586,2.7841h0c-1.1753,2.8756-2.684,6.7765-3.1258,9.5439-.8252,6.2264-4.6511,4.8261-7.5101,2.4589.175,6.4182.6668,9.1772-2.9091,14.8036-.4751.8085-.9169.5251-1.2086,0-8.6521-16.6791-17.0041-12.7031-27.9484-30.4741-.9836-2.5756-2.8423-5.0345-6.4266-6.3682-13.4866-5.3096-23.1223-8.9605-22.8055-24.4559.0167-.275.1583-.5417.4418-.5417h0c.0834,0,.225.0584.3334.1084,6.5766,3.3008,15.5454,5.368,20.1215,7.2935,2.4006,1.1253,4.9846,2.7924,6.8433,3.0757.2815.0184.4578-.0271.5516-.1135l-1.6432-2.9034s-.0002-.0004-.0003-.0005h0s0,0,0,0c-15.0287-21.2135-24.0475-5.3013-32.3495-19.8464-3.5758-7.6102-6.9933-5.468-15.8372-14.6453-.4751-.5834.3668-1.0753.4918-1.5253,1.9588-7.1601-9.5273-12.5281-9.0355-22.3137.8585-14.4202,21.8386-11.5612,16.4873-28.9487-4.4927-10.8276-6.7016-22.7388-10.0858-34.425-.1584-.9752-.4001-1.8171-.7752-2.8007-2.4339-7.2851-4.9929-12.0363-6.2932-22.6304-1.9504-25.0894-15.0203-38.8094-7.5601-46.1279.4667-.4668,1.4003-1.5254,1.9088-3.2258.7169-1.9255.9336-2.4923,1.8588-4.4344.3167-.5668.8752-.7751,1.492-.6668,13.0365,3.1174,52.1543,34.7334,78.3356,58.1724.2917.2584.6668.225.4835-.1584-1.3253-3.5258-2.0172-7.2851-4.2594-10.4775-.5751-.7335-.125-1.5587.6002-1.9755,8.0353-4.4094,32.7162-10.8776,53.3963-9.1105,30.0906,3.2675,55.055,4.3677,42.5436,20.9968,6.0181-3.9093,11.8278-8.3604,17.4958-12.9282,14.0451-20.905,41.0516-36.6589,62.8235-44.5775.1167-.0333.225-.05.3334-.05h0c.3084.0165.5751.1916.7502.6,2.1755,4.3094,4.001,10.5776,4.7178,14.0284,2.7424,17.2626-7.3101,9.9525-8.4354,42.3353-2.2839,3.6176-3.1758,8.8772-5.1595,15.3538-1.6838,5.5597-3.1258,11.8528-3.0174,17.2042-1.4754,10.7526-9.6523,12.1113-5.7014,30.6991.3168,1.4921.7002,3.1758,1.6004,4.5095,3.8176,4.4594,8.7855,9.2105,14.2451,12.653.8168.4168,1.6254.7169.8752,1.8755-4.9678,8.8771-12.8614,12.4197-10.3024,24.3892.1583.5751-.3501,1.067-.5919,1.367ZM368.188,426.5518c1.4003,14.6702,13.4199,24.5643,6.0181,38.4427-.2667.5084-.5835.9252-.4918,1.7504.1584,1.8754-.225,3.5591-.9335,5.1595h0c-.2417.5585-.5585,1.1002-.8752,1.6504-.1251.1917-.2584.4001-.3834.5918-.3334.5501-.6669,1.1086-1.0336,1.6504-.0917.1083-.1417.2084-.2333.3334-.9086,1.2503-1.8922,2.4589-2.784,3.7176-.1251.1583-.2334.3334-.3334.4918-.4918.7252-.9669,1.4587-1.367,2.1922-.2167.3751-.3751.7252-.5502,1.1086-.175.3668-.3668.7502-.4918,1.142-.1584.4167-.6668.3334-.9252.2751-.125-.0333-.2834-.05-.3917-.1-.3668-.175-.6835-.6002-.8169-1.7004-.075-.4585-.0917-.8586-.125-1.267-.0167-.3834-.0167-.7502,0-1.1086.0333-.3834.05-.7335.125-1.0836.0167-.1417.0667-.2667.1-.3834.075-.2667.1417-.5085.2334-.7752.1167-.3668.3084-.7502.4835-1.1419.0917-.2084.1833-.4001.2667-.6085.2667-.5334.6168-1.2503.9335-1.8588.2417-.4752.5085-1.092.7668-1.6505.1417-.3.3-.6501.4418-.9835.175-.3834.3668-.8752.5418-1.317.3168-.7751.6335-1.6337.9503-2.5756.0167-.0917.0667-.175.1-.2667-.0935-.0618-.1854-.12-.2788-.1816h0c.0934.0616.1854.1198.2789.1816.7919-2.4756,1.5254-5.543,2.1922-9.544,1.317-7.9102,1.0586-15.8955-3.9426-26.9315-.9169-1.6087-.3668-4.3344,1.2587-5.6263.8252-.6168,1.1753-.8585,1.267.4167Z" style="fill: #0053a0; fill-rule: evenodd;"/>
</svg>