<?xml version="1.0" encoding="utf-8"?>
<!-- Created by @FCLOGO 2023-12-14 GMT+8 22:32:15 . https://fclogo.top/ -->
<!-- FOR PERSONAL USE ONLY NOT FOR COMMERCIAL USE -->
<svg version="1.1" xmlns="http://www.w3.org/2000/svg" xmlns:xlink="http://www.w3.org/1999/xlink" x="0px" y="0px"
	 viewBox="0 0 800 800" style="enable-background:new 0 0 800 800;" xml:space="preserve">
<style type="text/css">
	.st0{fill:#CCCCCC;}
	.st1{fill:#740000;}
	.st2{fill:#FFFFFF;}
</style>
<path class="st0" d="M348.22,774.3c-0.79,0-1.38-0.22-1.77-0.65c-0.39-0.44-0.53-1.03-0.41-1.79l0.25-1.65
	c0.12-0.75,0.45-1.35,0.98-1.78c0.53-0.44,1.19-0.65,1.98-0.65c0.76,0,1.33,0.2,1.72,0.6c0.39,0.4,0.55,0.94,0.47,1.62h-1.24
	c0.03-0.36-0.06-0.64-0.26-0.84c-0.2-0.2-0.5-0.3-0.89-0.3c-0.42,0-0.76,0.12-1.03,0.35c-0.27,0.23-0.43,0.56-0.5,0.99l-0.26,1.66
	c-0.07,0.44-0.01,0.77,0.19,1c0.19,0.23,0.5,0.35,0.92,0.35c0.39,0,0.72-0.1,0.98-0.3c0.26-0.2,0.44-0.48,0.52-0.85h1.24
	c-0.14,0.69-0.47,1.23-0.99,1.63C349.61,774.1,348.97,774.3,348.22,774.3z M352.8,774.19l1-6.29h1.19l-0.19,1.19
	c0.34-0.87,0.97-1.3,1.91-1.3c0.67,0,1.17,0.21,1.49,0.62c0.32,0.42,0.43,0.99,0.31,1.71l-0.07,0.42h-1.27l0.06-0.32
	c0.07-0.45,0.01-0.8-0.17-1.04c-0.18-0.24-0.48-0.36-0.88-0.36c-0.4,0-0.74,0.12-1.01,0.37c-0.27,0.24-0.43,0.59-0.5,1.03
	l-0.63,3.97H352.8z M361.91,774.3c-0.77,0-1.35-0.22-1.73-0.67c-0.38-0.45-0.51-1.04-0.4-1.77l0.25-1.65
	c0.08-0.49,0.26-0.92,0.52-1.28c0.26-0.37,0.6-0.65,1.01-0.85c0.41-0.2,0.87-0.3,1.38-0.3c0.77,0,1.35,0.22,1.73,0.67
	c0.39,0.45,0.52,1.04,0.39,1.77l-0.17,1.12h-3.85l-0.09,0.53c-0.15,0.95,0.22,1.43,1.11,1.43c0.72,0,1.17-0.25,1.37-0.74h1.22
	c-0.17,0.53-0.5,0.96-1.01,1.28C363.16,774.14,362.58,774.3,361.91,774.3z M361.23,770.22l-0.05,0.29l2.65-0.01l0.05-0.29
	c0.07-0.47,0.01-0.82-0.17-1.07c-0.18-0.25-0.49-0.37-0.92-0.37c-0.44,0-0.8,0.13-1.06,0.38
	C361.48,769.39,361.31,769.75,361.23,770.22z M368.33,774.3c-0.63,0-1.1-0.21-1.41-0.64c-0.31-0.42-0.4-1-0.27-1.73l0.27-1.77
	c0.11-0.73,0.39-1.31,0.84-1.74c0.44-0.43,0.98-0.64,1.61-0.64c0.47,0,0.83,0.12,1.09,0.35c0.26,0.24,0.39,0.56,0.38,0.96h0.02
	l0.17-1.2h1.24l-1,6.29h-1.22l0.19-1.2h-0.02c-0.12,0.41-0.35,0.73-0.69,0.97C369.2,774.18,368.8,774.3,368.33,774.3z
	 M368.93,773.23c0.39,0,0.72-0.12,0.98-0.36c0.26-0.24,0.43-0.57,0.5-1.01l0.25-1.65c0.07-0.43,0.01-0.76-0.18-1
	c-0.19-0.24-0.47-0.36-0.86-0.36c-0.4,0-0.72,0.12-0.98,0.35c-0.26,0.24-0.42,0.57-0.49,1.01l-0.25,1.65
	c-0.07,0.44-0.01,0.78,0.17,1.01C368.24,773.11,368.53,773.23,368.93,773.23z M376.35,774.19c-0.57,0-0.99-0.16-1.26-0.47
	c-0.27-0.31-0.36-0.75-0.27-1.32l0.54-3.39h-1.74l0.17-1.12h1.74l0.27-1.72h1.24l-0.27,1.72h2.47l-0.18,1.12h-2.46l-0.54,3.39
	c-0.08,0.44,0.1,0.66,0.53,0.66h1.72l-0.17,1.12H376.35z M382.5,774.3c-0.77,0-1.35-0.22-1.73-0.67c-0.38-0.45-0.52-1.04-0.4-1.77
	l0.25-1.65c0.08-0.49,0.26-0.92,0.52-1.28c0.26-0.37,0.6-0.65,1.01-0.85c0.41-0.2,0.87-0.3,1.38-0.3c0.77,0,1.35,0.22,1.73,0.67
	c0.39,0.45,0.52,1.04,0.39,1.77l-0.17,1.12h-3.85l-0.09,0.53c-0.15,0.95,0.22,1.43,1.11,1.43c0.72,0,1.17-0.25,1.37-0.74h1.22
	c-0.17,0.53-0.5,0.96-1.01,1.28C383.76,774.14,383.18,774.3,382.5,774.3z M381.83,770.22l-0.05,0.29l2.65-0.01l0.05-0.29
	c0.07-0.47,0.01-0.82-0.17-1.07c-0.18-0.25-0.49-0.37-0.92-0.37c-0.44,0-0.8,0.13-1.06,0.38
	C382.08,769.39,381.91,769.75,381.83,770.22z M388.92,774.3c-0.63,0-1.1-0.21-1.4-0.64c-0.3-0.42-0.39-1-0.28-1.73l0.27-1.77
	c0.11-0.73,0.39-1.31,0.84-1.74c0.44-0.43,0.98-0.64,1.61-0.64c0.47,0,0.83,0.12,1.09,0.35c0.26,0.24,0.39,0.56,0.38,0.96h0.02
	l0.21-1.47l0.3-1.8h1.24l-1.33,8.35h-1.22l0.19-1.2h-0.02c-0.12,0.41-0.35,0.73-0.69,0.97C389.8,774.18,389.4,774.3,388.92,774.3z
	 M389.53,773.23c0.39,0,0.72-0.12,0.98-0.36c0.26-0.24,0.43-0.57,0.5-1.01l0.25-1.65c0.08-0.43,0.02-0.76-0.17-1
	c-0.19-0.24-0.48-0.36-0.87-0.36c-0.4,0-0.72,0.12-0.98,0.35c-0.26,0.24-0.42,0.57-0.49,1.01l-0.25,1.65
	c-0.08,0.44-0.02,0.78,0.16,1.01C388.83,773.11,389.13,773.23,389.53,773.23z M401.02,774.3c-0.47,0-0.84-0.12-1.1-0.35
	c-0.26-0.23-0.39-0.56-0.38-0.97h-0.01l-0.19,1.2h-1.22l1.33-8.35h1.24l-0.29,1.8l-0.27,1.47h0.05c0.12-0.41,0.35-0.73,0.69-0.97
	c0.34-0.23,0.74-0.35,1.21-0.35c0.63,0,1.1,0.21,1.4,0.64c0.3,0.43,0.39,1.01,0.28,1.74l-0.27,1.77c-0.11,0.73-0.39,1.31-0.84,1.73
	C402.18,774.09,401.64,774.3,401.02,774.3z M400.77,773.23c0.4,0,0.72-0.12,0.98-0.35c0.26-0.23,0.42-0.57,0.5-1.01l0.25-1.65
	c0.07-0.43,0.01-0.77-0.17-1.01c-0.18-0.24-0.47-0.35-0.87-0.35c-0.39,0-0.72,0.12-0.98,0.36c-0.26,0.24-0.43,0.57-0.5,1l-0.25,1.65
	c-0.07,0.44-0.01,0.77,0.17,1.01C400.08,773.11,400.37,773.23,400.77,773.23z M405.47,776.25l0.17-1.06h1.93
	c0.64,0,1.01-0.3,1.1-0.9l0.1-0.67l0.21-1.19h-0.03c-0.12,0.42-0.35,0.74-0.68,0.97c-0.33,0.23-0.73,0.34-1.2,0.34
	c-0.63,0-1.09-0.2-1.4-0.6c-0.31-0.4-0.41-0.94-0.3-1.63l0.58-3.6h1.24l-0.56,3.48c-0.06,0.41,0,0.73,0.18,0.96
	c0.18,0.23,0.47,0.34,0.85,0.34c0.39,0,0.72-0.12,0.98-0.37c0.27-0.24,0.43-0.58,0.49-1.02l0.54-3.4h1.24l-1.01,6.41
	c-0.1,0.6-0.37,1.08-0.81,1.42c-0.44,0.35-1,0.52-1.67,0.52H405.47z M417.79,770.09h3.22l0.54-1.85h-5.47l-1.71,6.44h2.15l0.59-2.1
	h3.03l0.44-1.71h-3.03L417.79,770.09z M424.23,772.92c-0.59,0-1.02-0.39-1.02-1.12c0-0.88,0.63-1.76,1.61-1.76
	c0.49,0,0.88,0.24,1.02,0.78l1.95-0.83c-0.29-1.17-1.27-1.9-2.64-1.9c-2.78,0-4.15,2.15-4.15,3.9c0,1.76,1.27,2.83,3.07,2.83
	c1.37,0,2.34-0.59,2.98-1.42l-1.51-1.17C425.16,772.67,424.72,772.92,424.23,772.92z M430.91,768.23h-2.15l-1.76,6.44h5.12
	l0.49-1.85h-2.93L430.91,768.23z M439.75,771.01c0-1.66-1.32-2.93-3.22-2.93c-2.2,0-3.81,1.81-3.81,3.81c0,1.66,1.32,2.93,3.22,2.93
	C438.14,774.82,439.75,773.01,439.75,771.01z M434.92,771.7c0-0.83,0.59-1.71,1.51-1.71c0.78,0,1.17,0.54,1.17,1.22
	c0,0.83-0.59,1.71-1.51,1.71C435.31,772.92,434.92,772.38,434.92,771.7z M443.21,772.23h1.07l-0.2,0.68
	c-0.15,0.05-0.34,0.1-0.59,0.1c-0.68,0-1.27-0.39-1.27-1.22c0-1.02,0.73-1.9,1.95-1.9c0.59,0,1.12,0.24,1.51,0.59l1.37-1.37
	c-0.44-0.54-1.51-1.07-2.73-1.07c-2.59,0-4.29,1.76-4.29,3.86c0,2.05,1.61,2.88,3.22,2.88c0.93,0,1.85-0.29,2.49-0.68l0.93-3.32
	h-3.12L443.21,772.23z M450.78,768.08c-2.2,0-3.81,1.81-3.81,3.81c0,1.66,1.32,2.93,3.22,2.93c2.2,0,3.81-1.81,3.81-3.81
	C454,769.35,452.68,768.08,450.78,768.08z M450.34,772.92c-0.78,0-1.17-0.54-1.17-1.22c0-0.83,0.59-1.71,1.51-1.71
	c0.78,0,1.17,0.54,1.17,1.22C451.85,772.04,451.27,772.92,450.34,772.92z M437.94,767.5c-0.05,0.29,0.1,0.49,0.44,0.49
	s0.54-0.2,0.63-0.49c0.05-0.24-0.1-0.49-0.44-0.49C438.24,767.01,437.99,767.25,437.94,767.5z M432.13,765.5
	c-0.44,0-0.73,0.24-0.78,0.59c-0.05,0.34,0.1,0.59,0.54,0.59s0.73-0.24,0.78-0.59C432.77,765.74,432.57,765.5,432.13,765.5z
	 M433.01,767.3c-0.1,0.54,0.15,0.88,0.83,0.88c0.63,0,1.07-0.39,1.17-0.88s-0.15-0.88-0.83-0.88
	C433.5,766.43,433.11,766.82,433.01,767.3z M439.6,777.55l-2.44-1.81h-1.51l4.25,3.17l1.61-3.17h-0.98L439.6,777.55z M425.84,767.16
	l-2-1.46l23.13-2.78l-2.15,4.25h1.02l2.68-5.32l-26.99,3.22l2.78,2.1H425.84z M338.72,785.79l0.61-3.83h2.32l-0.08,0.52h-1.76
	l-0.18,1.14h1.63l-0.08,0.52h-1.62l-0.26,1.64H338.72z M342.97,785.84c-0.36,0-0.62-0.1-0.8-0.3c-0.17-0.2-0.23-0.47-0.18-0.82
	l0.27-1.7c0.06-0.34,0.2-0.61,0.44-0.82c0.24-0.2,0.54-0.3,0.89-0.3c0.36,0,0.62,0.1,0.8,0.3c0.17,0.2,0.24,0.47,0.18,0.81
	l-0.27,1.71c-0.06,0.34-0.2,0.62-0.44,0.82C343.63,785.74,343.33,785.84,342.97,785.84z M343.05,785.33c0.19,0,0.35-0.05,0.47-0.16
	c0.12-0.11,0.19-0.26,0.23-0.46l0.27-1.7c0.03-0.2,0.01-0.35-0.08-0.46c-0.08-0.11-0.22-0.16-0.41-0.16s-0.35,0.05-0.46,0.16
	c-0.12,0.1-0.19,0.26-0.22,0.46l-0.27,1.7c-0.03,0.2-0.01,0.35,0.08,0.46C342.72,785.28,342.86,785.33,343.05,785.33z M345,785.79
	l0.61-3.83h1.2c0.24,0,0.44,0.05,0.6,0.14c0.16,0.09,0.28,0.22,0.36,0.39c0.07,0.17,0.09,0.37,0.05,0.59
	c-0.04,0.26-0.14,0.48-0.3,0.67c-0.16,0.19-0.37,0.32-0.6,0.39l0.54,1.64h-0.62l-0.48-1.57h-0.54l-0.25,1.57H345z M345.89,783.71
	h0.64c0.19,0,0.35-0.06,0.48-0.17c0.13-0.11,0.21-0.26,0.24-0.45c0.03-0.19,0-0.35-0.09-0.46c-0.09-0.11-0.24-0.17-0.43-0.17h-0.64
	L345.89,783.71z M349.54,785.79l0.61-3.83h1.25c0.37,0,0.65,0.1,0.84,0.31c0.19,0.21,0.26,0.49,0.2,0.84
	c-0.04,0.23-0.12,0.44-0.25,0.61s-0.29,0.31-0.49,0.4c-0.2,0.09-0.42,0.14-0.66,0.14h-0.69l-0.24,1.52H349.54z M350.43,783.75h0.69
	c0.19,0,0.36-0.06,0.49-0.18c0.14-0.12,0.22-0.27,0.25-0.47c0.03-0.2,0-0.35-0.1-0.47c-0.1-0.12-0.25-0.18-0.44-0.18h-0.69
	L350.43,783.75z M352.75,785.79l0.61-3.83h2.25l-0.08,0.5h-1.7l-0.17,1.09h1.51l-0.08,0.5h-1.51l-0.19,1.24h1.69l-0.08,0.5H352.75z
	 M355.84,785.79l0.61-3.83h1.2c0.24,0,0.44,0.05,0.6,0.14c0.16,0.09,0.28,0.22,0.36,0.39c0.07,0.17,0.09,0.37,0.05,0.59
	c-0.04,0.26-0.14,0.48-0.3,0.67c-0.16,0.19-0.37,0.32-0.6,0.39l0.54,1.64h-0.62l-0.48-1.57h-0.54l-0.25,1.57H355.84z M356.74,783.71
	h0.64c0.19,0,0.35-0.06,0.48-0.17c0.13-0.11,0.21-0.26,0.24-0.45c0.03-0.19,0-0.35-0.09-0.46c-0.09-0.11-0.24-0.17-0.43-0.17h-0.64
	L356.74,783.71z M360.13,785.84c-0.39,0-0.67-0.1-0.87-0.29c-0.19-0.19-0.26-0.45-0.22-0.78h0.57c-0.03,0.17,0.01,0.31,0.12,0.41
	c0.11,0.1,0.27,0.15,0.48,0.15c0.2,0,0.37-0.05,0.5-0.15c0.13-0.1,0.21-0.23,0.24-0.4c0.02-0.15,0-0.28-0.06-0.39
	c-0.06-0.11-0.16-0.18-0.29-0.22l-0.46-0.14c-0.27-0.08-0.46-0.22-0.59-0.41c-0.13-0.19-0.17-0.42-0.13-0.68
	c0.04-0.21,0.11-0.39,0.23-0.55c0.12-0.16,0.27-0.28,0.46-0.37c0.19-0.09,0.4-0.13,0.64-0.13c0.35,0,0.62,0.1,0.8,0.29
	c0.18,0.19,0.25,0.44,0.2,0.76h-0.57c0.03-0.17,0-0.3-0.09-0.4c-0.09-0.1-0.23-0.14-0.42-0.14c-0.19,0-0.34,0.04-0.46,0.13
	c-0.12,0.09-0.19,0.21-0.21,0.38c-0.02,0.15-0.01,0.28,0.05,0.39c0.06,0.11,0.16,0.18,0.29,0.22l0.47,0.15
	c0.26,0.08,0.46,0.22,0.58,0.41c0.12,0.19,0.17,0.42,0.12,0.69c-0.04,0.22-0.12,0.41-0.24,0.57c-0.13,0.16-0.29,0.29-0.49,0.38
	C360.6,785.79,360.38,785.84,360.13,785.84z M363.27,785.84c-0.36,0-0.62-0.1-0.8-0.3c-0.17-0.2-0.23-0.47-0.18-0.82l0.27-1.7
	c0.06-0.34,0.2-0.61,0.44-0.82c0.24-0.2,0.54-0.3,0.89-0.3c0.36,0,0.62,0.1,0.8,0.3c0.17,0.2,0.24,0.47,0.18,0.81l-0.27,1.71
	c-0.06,0.34-0.2,0.62-0.44,0.82C363.92,785.74,363.62,785.84,363.27,785.84z M363.34,785.33c0.19,0,0.35-0.05,0.47-0.16
	c0.12-0.11,0.19-0.26,0.23-0.46l0.27-1.7c0.03-0.2,0.01-0.35-0.08-0.46c-0.08-0.11-0.22-0.16-0.41-0.16c-0.19,0-0.35,0.05-0.46,0.16
	c-0.12,0.1-0.19,0.26-0.22,0.46l-0.27,1.7c-0.03,0.2-0.01,0.35,0.08,0.46C363.02,785.28,363.15,785.33,363.34,785.33z
	 M365.28,785.79l0.61-3.83h0.71l0.62,3.19c0.01-0.1,0.02-0.22,0.03-0.36c0.01-0.14,0.03-0.29,0.04-0.44
	c0.02-0.15,0.04-0.29,0.06-0.41l0.31-1.98h0.52l-0.61,3.83h-0.71l-0.61-3.19c-0.01,0.09-0.02,0.21-0.03,0.34s-0.03,0.28-0.04,0.42
	c-0.02,0.15-0.04,0.28-0.06,0.41l-0.31,2.01H365.28z M368.23,785.79l1.59-3.83h0.75l0.37,3.83h-0.56l-0.07-0.97h-1.09l-0.39,0.97
	H368.23z M369.39,784.34h0.87l-0.09-1.1c-0.02-0.2-0.03-0.37-0.04-0.51c-0.01-0.14-0.01-0.24-0.01-0.3c-0.02,0.06-0.05,0.16-0.1,0.3
	c-0.05,0.14-0.11,0.31-0.19,0.5L369.39,784.34z M371.72,785.79l0.61-3.83h0.57l-0.52,3.31h1.67l-0.08,0.52H371.72z M376.68,785.84
	c-0.37,0-0.63-0.1-0.8-0.3c-0.17-0.2-0.22-0.48-0.17-0.82l0.44-2.76h0.57l-0.44,2.76c-0.03,0.2-0.01,0.35,0.07,0.46
	c0.08,0.11,0.21,0.17,0.41,0.17c0.19,0,0.35-0.06,0.46-0.17c0.12-0.11,0.19-0.27,0.22-0.46l0.44-2.76h0.57l-0.44,2.76
	c-0.06,0.35-0.2,0.62-0.43,0.82C377.35,785.74,377.05,785.84,376.68,785.84z M379.84,785.84c-0.39,0-0.67-0.1-0.87-0.29
	c-0.19-0.19-0.26-0.45-0.22-0.78h0.57c-0.03,0.17,0.01,0.31,0.12,0.41c0.11,0.1,0.27,0.15,0.48,0.15c0.2,0,0.37-0.05,0.5-0.15
	c0.13-0.1,0.21-0.23,0.24-0.4c0.02-0.15,0-0.28-0.06-0.39c-0.06-0.11-0.16-0.18-0.29-0.22l-0.46-0.14
	c-0.27-0.08-0.46-0.22-0.59-0.41c-0.13-0.19-0.17-0.42-0.13-0.68c0.04-0.21,0.11-0.39,0.23-0.55s0.27-0.28,0.46-0.37
	c0.19-0.09,0.4-0.13,0.64-0.13c0.35,0,0.62,0.1,0.8,0.29c0.18,0.19,0.25,0.44,0.2,0.76h-0.57c0.03-0.17,0-0.3-0.09-0.4
	c-0.09-0.1-0.23-0.14-0.42-0.14c-0.19,0-0.34,0.04-0.46,0.13c-0.12,0.09-0.19,0.21-0.21,0.38c-0.02,0.15-0.01,0.28,0.05,0.39
	c0.06,0.11,0.16,0.18,0.29,0.22l0.47,0.15c0.26,0.08,0.46,0.22,0.58,0.41c0.12,0.19,0.17,0.42,0.12,0.69
	c-0.04,0.22-0.12,0.41-0.24,0.57c-0.13,0.16-0.29,0.29-0.49,0.38C380.31,785.79,380.09,785.84,379.84,785.84z M381.91,785.79
	l0.61-3.83h2.25l-0.08,0.5h-1.7l-0.17,1.09h1.51l-0.08,0.5h-1.51l-0.19,1.24h1.69l-0.08,0.5H381.91z M386.94,785.84
	c-0.36,0-0.62-0.1-0.8-0.3c-0.17-0.2-0.23-0.47-0.18-0.82l0.27-1.7c0.06-0.34,0.2-0.61,0.44-0.82c0.24-0.2,0.54-0.3,0.89-0.3
	c0.36,0,0.62,0.1,0.8,0.3c0.17,0.2,0.24,0.47,0.18,0.81l-0.27,1.71c-0.06,0.34-0.2,0.62-0.44,0.82
	C387.6,785.74,387.3,785.84,386.94,785.84z M387.02,785.33c0.19,0,0.35-0.05,0.47-0.16c0.12-0.11,0.19-0.26,0.23-0.46l0.27-1.7
	c0.03-0.2,0.01-0.35-0.08-0.46c-0.08-0.11-0.22-0.16-0.41-0.16c-0.19,0-0.35,0.05-0.46,0.16c-0.12,0.1-0.19,0.26-0.22,0.46
	l-0.27,1.7c-0.03,0.2-0.01,0.35,0.08,0.46C386.7,785.28,386.83,785.33,387.02,785.33z M388.95,785.79l0.61-3.83h0.71l0.62,3.19
	c0.01-0.1,0.02-0.22,0.03-0.36c0.01-0.14,0.03-0.29,0.04-0.44c0.02-0.15,0.04-0.29,0.06-0.41l0.31-1.98h0.52l-0.61,3.83h-0.71
	l-0.61-3.19c-0.01,0.09-0.02,0.21-0.03,0.34c-0.01,0.13-0.03,0.28-0.04,0.42c-0.02,0.15-0.04,0.28-0.06,0.41l-0.31,2.01H388.95z
	 M392.25,785.79l0.61-3.83h0.57l-0.52,3.31h1.67l-0.08,0.52H392.25z M396.12,785.79l0.22-1.41l-0.75-2.42h0.58l0.45,1.45
	c0.03,0.09,0.05,0.18,0.07,0.27c0.02,0.08,0.03,0.15,0.03,0.19c0.02-0.04,0.05-0.1,0.09-0.19c0.04-0.08,0.09-0.17,0.14-0.27
	l0.9-1.45h0.6l-1.53,2.42l-0.22,1.41H396.12z M399.22,785.79l0.61-3.83h0.71l0.62,3.19c0.01-0.1,0.02-0.22,0.03-0.36
	c0.01-0.14,0.03-0.29,0.04-0.44c0.02-0.15,0.04-0.29,0.06-0.41l0.31-1.98h0.52l-0.61,3.83h-0.71l-0.61-3.19
	c-0.01,0.09-0.02,0.21-0.03,0.34c-0.01,0.13-0.03,0.28-0.04,0.42c-0.02,0.15-0.04,0.28-0.06,0.41l-0.31,2.01H399.22z M403.51,785.84
	c-0.36,0-0.62-0.1-0.8-0.3c-0.18-0.2-0.23-0.47-0.18-0.82l0.27-1.7c0.06-0.34,0.2-0.61,0.44-0.82c0.24-0.2,0.54-0.3,0.89-0.3
	c0.36,0,0.62,0.1,0.8,0.3c0.17,0.2,0.24,0.47,0.18,0.81l-0.27,1.71c-0.06,0.34-0.2,0.62-0.44,0.82
	C404.16,785.74,403.86,785.84,403.51,785.84z M403.58,785.33c0.19,0,0.35-0.05,0.47-0.16c0.12-0.11,0.19-0.26,0.23-0.46l0.27-1.7
	c0.03-0.2,0.01-0.35-0.08-0.46c-0.08-0.11-0.22-0.16-0.41-0.16c-0.19,0-0.35,0.05-0.46,0.16c-0.12,0.1-0.19,0.26-0.22,0.46
	l-0.27,1.7c-0.03,0.2-0.01,0.35,0.08,0.46C403.26,785.28,403.4,785.33,403.58,785.33z M406.38,785.79l0.52-3.31h-1.02l0.08-0.52
	h2.62l-0.08,0.52h-1.03l-0.52,3.31H406.38z M409.52,785.79l0.61-3.83h2.32l-0.08,0.52h-1.76l-0.18,1.14h1.63l-0.08,0.52h-1.62
	l-0.26,1.64H409.52z M413.77,785.84c-0.36,0-0.62-0.1-0.8-0.3c-0.18-0.2-0.23-0.47-0.18-0.82l0.27-1.7c0.06-0.34,0.2-0.61,0.44-0.82
	c0.24-0.2,0.54-0.3,0.89-0.3c0.36,0,0.62,0.1,0.8,0.3c0.17,0.2,0.24,0.47,0.18,0.81l-0.27,1.71c-0.06,0.34-0.2,0.62-0.44,0.82
	C414.42,785.74,414.13,785.84,413.77,785.84z M413.85,785.33c0.19,0,0.35-0.05,0.47-0.16c0.12-0.11,0.19-0.26,0.23-0.46l0.27-1.7
	c0.03-0.2,0.01-0.35-0.08-0.46c-0.08-0.11-0.22-0.16-0.41-0.16c-0.19,0-0.35,0.05-0.46,0.16c-0.12,0.1-0.19,0.26-0.22,0.46
	l-0.27,1.7c-0.03,0.2-0.01,0.35,0.08,0.46C413.52,785.28,413.66,785.33,413.85,785.33z M415.8,785.79l0.61-3.83h1.2
	c0.24,0,0.44,0.05,0.6,0.14c0.16,0.09,0.28,0.22,0.36,0.39c0.07,0.17,0.09,0.37,0.05,0.59c-0.04,0.26-0.14,0.48-0.3,0.67
	c-0.16,0.19-0.37,0.32-0.6,0.39l0.54,1.64h-0.62l-0.48-1.57h-0.54l-0.25,1.57H415.8z M416.69,783.71h0.64
	c0.19,0,0.35-0.06,0.48-0.17c0.13-0.11,0.21-0.26,0.24-0.45c0.03-0.19,0-0.35-0.09-0.46c-0.09-0.11-0.24-0.17-0.43-0.17h-0.64
	L416.69,783.71z M420.91,785.84c-0.36,0-0.63-0.1-0.81-0.3c-0.18-0.2-0.24-0.47-0.19-0.82l0.27-1.7c0.06-0.35,0.21-0.62,0.45-0.82
	s0.55-0.3,0.91-0.3c0.36,0,0.63,0.1,0.81,0.3c0.18,0.2,0.24,0.47,0.19,0.82h-0.57c0.03-0.2,0-0.35-0.09-0.46
	c-0.09-0.11-0.23-0.16-0.42-0.16c-0.19,0-0.35,0.05-0.48,0.16c-0.12,0.1-0.2,0.26-0.23,0.45l-0.27,1.71c-0.03,0.2,0,0.35,0.09,0.46
	c0.09,0.11,0.23,0.16,0.42,0.16c0.19,0,0.35-0.05,0.47-0.16c0.12-0.11,0.2-0.26,0.23-0.46h0.57c-0.03,0.23-0.11,0.43-0.24,0.59
	c-0.12,0.17-0.28,0.3-0.47,0.39C421.36,785.79,421.14,785.84,420.91,785.84z M424.03,785.84c-0.36,0-0.62-0.1-0.8-0.3
	c-0.18-0.2-0.23-0.47-0.18-0.82l0.27-1.7c0.06-0.34,0.2-0.61,0.44-0.82c0.24-0.2,0.54-0.3,0.89-0.3c0.36,0,0.62,0.1,0.8,0.3
	c0.17,0.2,0.24,0.47,0.18,0.81l-0.27,1.71c-0.06,0.34-0.2,0.62-0.44,0.82C424.69,785.74,424.39,785.84,424.03,785.84z
	 M424.11,785.33c0.19,0,0.35-0.05,0.47-0.16c0.12-0.11,0.19-0.26,0.23-0.46l0.27-1.7c0.03-0.2,0.01-0.35-0.08-0.46
	c-0.08-0.11-0.22-0.16-0.41-0.16c-0.19,0-0.35,0.05-0.46,0.16c-0.12,0.1-0.19,0.26-0.22,0.46l-0.27,1.7
	c-0.03,0.2-0.01,0.35,0.08,0.46C423.79,785.28,423.92,785.33,424.11,785.33z M425.97,785.79l0.61-3.83h0.69l0.18,1.23
	c0.02,0.12,0.04,0.23,0.05,0.33c0.01,0.1,0.02,0.18,0.03,0.24c0.02-0.06,0.05-0.14,0.09-0.24c0.04-0.11,0.09-0.22,0.15-0.34
	l0.57-1.22h0.71l-0.61,3.83h-0.54l0.2-1.29c0.02-0.17,0.06-0.35,0.1-0.55c0.04-0.2,0.09-0.4,0.14-0.61c0.05-0.2,0.1-0.4,0.14-0.59
	c0.05-0.19,0.09-0.35,0.13-0.49l-0.86,1.86h-0.55l-0.28-1.86c0,0.14-0.01,0.29-0.02,0.47c-0.01,0.18-0.02,0.37-0.04,0.57
	c-0.02,0.2-0.04,0.41-0.06,0.61c-0.02,0.2-0.05,0.4-0.08,0.57l-0.2,1.29H425.97z M429.11,785.79l0.61-3.83h0.69l0.18,1.23
	c0.02,0.12,0.04,0.23,0.05,0.33c0.01,0.1,0.02,0.18,0.03,0.24c0.02-0.06,0.05-0.14,0.09-0.24c0.04-0.11,0.09-0.22,0.15-0.34
	l0.57-1.22h0.71l-0.61,3.83h-0.54l0.2-1.29c0.02-0.17,0.06-0.35,0.1-0.55c0.04-0.2,0.09-0.4,0.14-0.61c0.05-0.2,0.1-0.4,0.14-0.59
	c0.05-0.19,0.09-0.35,0.13-0.49l-0.86,1.86h-0.55l-0.28-1.86c0,0.14-0.01,0.29-0.02,0.47c-0.01,0.18-0.02,0.37-0.04,0.57
	c-0.02,0.2-0.04,0.41-0.06,0.61c-0.02,0.2-0.05,0.4-0.08,0.57l-0.2,1.29H429.11z M432.41,785.79l0.61-3.83h2.25l-0.08,0.5h-1.7
	l-0.17,1.09h1.51l-0.08,0.5h-1.51l-0.19,1.24h1.69l-0.08,0.5H432.41z M435.51,785.79l0.61-3.83h1.2c0.24,0,0.44,0.05,0.6,0.14
	c0.16,0.09,0.28,0.22,0.36,0.39c0.07,0.17,0.09,0.37,0.05,0.59c-0.04,0.26-0.14,0.48-0.3,0.67c-0.16,0.19-0.37,0.32-0.6,0.39
	l0.54,1.64h-0.62l-0.48-1.57h-0.54l-0.25,1.57H435.51z M436.4,783.71h0.64c0.19,0,0.35-0.06,0.48-0.17
	c0.13-0.11,0.21-0.26,0.24-0.45c0.03-0.19,0-0.35-0.09-0.46c-0.09-0.11-0.24-0.17-0.43-0.17h-0.64L436.4,783.71z M439.8,785.84
	c-0.36,0-0.63-0.1-0.81-0.3c-0.18-0.2-0.24-0.47-0.19-0.82l0.27-1.7c0.06-0.35,0.21-0.62,0.45-0.82s0.55-0.3,0.91-0.3
	c0.36,0,0.63,0.1,0.81,0.3c0.18,0.2,0.24,0.47,0.19,0.82h-0.57c0.03-0.2,0-0.35-0.09-0.46c-0.09-0.11-0.23-0.16-0.42-0.16
	c-0.19,0-0.35,0.05-0.47,0.16c-0.12,0.1-0.2,0.26-0.23,0.45l-0.27,1.71c-0.03,0.2,0,0.35,0.09,0.46c0.09,0.11,0.23,0.16,0.42,0.16
	s0.35-0.05,0.47-0.16c0.12-0.11,0.2-0.26,0.23-0.46h0.57c-0.03,0.23-0.11,0.43-0.24,0.59c-0.12,0.17-0.28,0.3-0.47,0.39
	C440.25,785.79,440.04,785.84,439.8,785.84z M441.88,785.79l0.08-0.5h0.78l0.45-2.82h-0.78l0.08-0.5h2.13l-0.08,0.5h-0.78
	l-0.45,2.82h0.78l-0.08,0.5H441.88z M444.74,785.79l1.59-3.83h0.75l0.37,3.83h-0.56l-0.07-0.97h-1.09l-0.39,0.97H444.74z
	 M445.9,784.34h0.87l-0.09-1.1c-0.02-0.2-0.03-0.37-0.04-0.51c-0.01-0.14-0.01-0.24-0.01-0.3c-0.02,0.06-0.05,0.16-0.1,0.3
	c-0.05,0.14-0.11,0.31-0.19,0.5L445.9,784.34z M448.24,785.79l0.61-3.83h0.57l-0.52,3.31h1.67l-0.08,0.52H448.24z M453.19,785.84
	c-0.37,0-0.63-0.1-0.8-0.3c-0.17-0.2-0.22-0.48-0.17-0.82l0.44-2.76h0.57l-0.44,2.76c-0.03,0.2-0.01,0.35,0.07,0.46
	c0.08,0.11,0.21,0.17,0.41,0.17c0.19,0,0.35-0.06,0.46-0.17c0.12-0.11,0.19-0.27,0.22-0.46l0.44-2.76h0.57l-0.44,2.76
	c-0.06,0.35-0.2,0.62-0.43,0.82C453.86,785.74,453.56,785.84,453.19,785.84z M456.36,785.84c-0.39,0-0.67-0.1-0.87-0.29
	c-0.19-0.19-0.26-0.45-0.22-0.78h0.57c-0.03,0.17,0.01,0.31,0.12,0.41c0.11,0.1,0.27,0.15,0.48,0.15c0.2,0,0.37-0.05,0.5-0.15
	s0.21-0.23,0.24-0.4c0.02-0.15,0-0.28-0.06-0.39c-0.06-0.11-0.16-0.18-0.29-0.22l-0.46-0.14c-0.27-0.08-0.46-0.22-0.59-0.41
	c-0.13-0.19-0.17-0.42-0.13-0.68c0.04-0.21,0.11-0.39,0.23-0.55c0.12-0.16,0.27-0.28,0.46-0.37c0.19-0.09,0.4-0.13,0.64-0.13
	c0.35,0,0.62,0.1,0.8,0.29c0.18,0.19,0.25,0.44,0.2,0.76h-0.57c0.03-0.17,0-0.3-0.09-0.4c-0.09-0.1-0.23-0.14-0.42-0.14
	c-0.19,0-0.34,0.04-0.46,0.13c-0.12,0.09-0.19,0.21-0.21,0.38c-0.02,0.15-0.01,0.28,0.05,0.39c0.06,0.11,0.16,0.18,0.29,0.22
	l0.47,0.15c0.26,0.08,0.46,0.22,0.58,0.41c0.12,0.19,0.17,0.42,0.12,0.69c-0.04,0.22-0.12,0.41-0.24,0.57
	c-0.13,0.16-0.29,0.29-0.49,0.38C456.82,785.79,456.6,785.84,456.36,785.84z M458.42,785.79l0.61-3.83h2.25l-0.08,0.5h-1.7
	l-0.17,1.09h1.51l-0.08,0.5h-1.51l-0.19,1.24h1.69l-0.08,0.5H458.42z"/>
<g>
	<path class="st1" d="M704.36,327.18c2.24-1.12,6.91,3.55,6.91,3.55L750,295.36c0,0-11.88-13.86-15.84-17.82
		c-3.96-3.96-12.87-2.97-16.83-8.91c-3.96-5.94,0-10.89-2.97-20.79c-2.97-9.9-24.75-16.83-24.75-16.83s2.97-15.84,2.97-24.75
		s-10.89-6.93-10.89-6.93s-5.94-17.82-21.78-21.78c-15.84-3.96-32.18,9.41-32.18,9.41c-28.71-29.7,18.81-69.31,18.81-69.31
		L400,61.84l-246.53,55.8c0,0,47.52,39.6,18.81,69.31c0,0-16.34-13.37-32.18-9.41c-15.84,3.96-21.78,21.78-21.78,21.78
		s-10.89-1.98-10.89,6.93S110.4,231,110.4,231s-21.78,6.93-24.75,16.83s0.99,14.85-2.97,20.79c-3.96,5.94-12.87,4.95-16.83,8.91
		C61.88,281.5,50,295.36,50,295.36l38.73,35.37c0,0,4.67-4.67,6.91-3.55c2.24,1.12,0.37,10.46,0.37,10.46s8.22,5.6,9.15,8.78
		c0.93,3.17,1.68,11.02,3.92,15.31c2.24,4.29,8.78,10.27,14,10.64c2.05,0,1.96,5.04-1.31,5.6c-3.27,0.56-27.64,2.15-30.06,8.22
		c-2.43,6.07,17.83,10.55,19.89,11.11c2.05,0.56-4.2,7.28-5.7,10.08c-1.49,2.8-6.91,13.54-3.36,17.46
		c3.55,3.92,13.07-2.61,18.86-5.42c5.79-2.8-2.61,7.1-4.48,15.12c-1.87,8.03-3.55,21.1-3.36,30.81
		c0.19,9.71-12.14,20.73-12.14,20.73s15.31,4.85,27.08-3.55c0,0,10.46,55.08,16.06,70.77c5.6,15.68,26.52,69.46,100.09,93.74
		c0,0,11.2,16.81,24.27,24.27c13.07,7.47,32.49,14.94,51.16,22.03c18.67,7.1,57.51,26.89,79.92,44.81
		c22.41-17.93,61.25-37.72,79.92-44.81c18.67-7.1,38.09-14.56,51.16-22.03c13.07-7.47,24.27-24.27,24.27-24.27
		c73.57-24.27,94.48-78.05,100.09-93.74c5.6-15.68,16.06-70.77,16.06-70.77c11.76,8.4,27.08,3.55,27.08,3.55
		s-12.32-11.02-12.14-20.73c0.19-9.71-1.49-22.78-3.36-30.81c-1.87-8.03-10.27-17.93-4.48-15.12c5.79,2.8,15.31,9.34,18.86,5.42
		c3.55-3.92-1.87-14.66-3.36-17.46s-7.75-9.52-5.7-10.08c2.05-0.56,22.31-5.04,19.89-11.11c-2.43-6.07-26.8-7.66-30.06-8.22
		c-3.27-0.56-3.36-5.6-1.31-5.6c5.23-0.37,11.76-6.35,14-10.64c2.24-4.29,2.99-12.14,3.92-15.31c0.93-3.17,9.15-8.78,9.15-8.78
		S702.12,328.3,704.36,327.18z"/>
	<g>
		<path class="st2" d="M156.04,287.3c0,0.02,0.06,0.11,0.16,0.26c3.86,5.78,10.46,19.73,2.86,25.26c-0.47,0.34-0.91,0.3-1.31-0.11
			c-0.9-0.94-1.84-1.8-2.8-2.6c-0.84-0.69-1.31-1.06-1.4-1.09c-2.16-0.65-2.44-0.17-0.85,1.42c0.66,0.67,1.39,1.73,2.19,3.19
			c1.53,2.78-0.67,4.91-3.29,5.32c-0.41,0.06-0.68,0.44-0.62,0.85c0.02,0.1,0.05,0.2,0.11,0.28c2.26,3.59,3.69,7.43,4.29,11.5
			c0.99,6.67-4.51,12.69-9.88,16.29c-0.67,0.44-2.37,1.31-5.12,2.61c-3.89,1.84-7.89,3.4-12,4.69c-5.51,1.73-9.07,2.78-13.71-0.17
			c-5.92-3.76-3.37-12.39,0.32-16.65c1.65-1.9,4.43-1.1,6.59-0.9c2.73,0.25,5.19-0.42,7.4-2.01c3.27-2.36,6.71-5.54,7.85-9.5
			c1.46-5.05-0.91-11.04-4.25-14.9c-1.58-1.82-4.32-3.62-6.29-5.7c-4.75-5.01-9.26-10.71-13.81-15.38
			c-2.06-2.12-5.24-0.52-7.23,1.14c-7.34,6.11-6.22,19.43-5.97,27.73c0.01,0.48-0.22,0.73-0.71,0.74c-1.71,0.03-3.53,0.15-5.47,0.37
			c-3.87,0.45-5.74-0.5-8.24-3.3c-2.3-2.57-4.95-5.83-7.95-9.78c-1.54-2.03-2.04-4.25-1.52-6.68c0.61-2.82,1.28-5.56,2.01-8.24
			c0.19-0.72-0.17-1.48-0.86-1.77c-1.19-0.51-2.51-1-3.39-1.94c-1.97-2.11-2.23-6.85,1.39-7.54c3.19-0.62,6.76-1.01,9.43-2.62
			c3.1-1.87,6.43-5.33,7.32-8.97c0.57-2.34,1.01-4.7,1.33-7.1c0.59-4.47,1.07-7.33,1.45-8.58c1.61-5.24,3.67-8.83,8.79-10.85
			c3.2-1.26,6.76-2.04,10.69-2.34c0.64-0.05,0.99-0.47,1.05-1.27c0.19-2.58,0.29-5.16,0.31-7.74c0.02-1.7,0.36-3.33,0.53-5.03
			c0.21-2.16,1.81-2.43,3.43-2.91c0.19-0.06,0.31-0.23,0.31-0.42l0.08-8.24c0.01-0.45,0.37-0.8,0.82-0.8c0.03,0,0.05,0,0.08,0.01
			l2.91,0.33c0.35,0.04,0.67-0.22,0.7-0.57c0,0,0,0,0,0c0.13-1.37-0.62-2.43-0.58-3.63c0.02-0.71,0.14-1.4,0.34-2.08
			c2.38-7.93,7.59-15.31,15.34-18.79c6.14-2.75,13.15-2,19.31,0.21c8.08,2.89,16.01,6.16,24.16,8.87c1.24,0.41,2,1.12,2.3,2.15
			c0.85,2.91-3.67,1.82-5.02,1.92c-2.16,0.17-4.29,0.22-6.39,0.16c-0.46-0.01-0.85,0.35-0.86,0.81c0,0.01,0,0.03,0,0.04
			c0.07,3.74,2.48,8.32,4.14,11.64c1.47,2.92,1.82,5.71,2.66,8.59c0.05,0.15-0.04,0.31-0.19,0.35c-0.05,0.01-0.1,0.02-0.14,0.01
			c-5.54-1.3-9.86-4.18-12.96-8.65c-0.5-0.72-1.35-2.4-2.56-5.04c-1.3-2.84-2.92-5.48-4.88-7.9c-0.08-0.1-0.23-0.12-0.33-0.04
			c-0.02,0.02-0.04,0.03-0.05,0.06c-2.21,3.39-4.48,5.49-8.09,8.18c-4.97,3.71-12.33,8.81-13.96,14.83
			c-0.07,0.24,0.03,0.34,0.27,0.28c0.12-0.03,0.25-0.12,0.38-0.28c3.69-4.46,7.32-7.63,12.46-11.45c2.87-2.13,6.52-4.39,8.79-7.12
			c0.14-0.17,0.4-0.19,0.57-0.05c0.05,0.04,0.09,0.09,0.11,0.15c0.91,2.1,1.81,4.15,2.69,6.15c1.87,4.22,2.98,8.22,3.57,12.44
			c1.18,8.46-3.61,17.53-9.62,23.02c-1.76,1.61-4.07,3-6.2,4.37c-0.09,0.05-0.12,0.17-0.07,0.26c0.03,0.06,0.1,0.09,0.16,0.09
			c0.52,0.02,1.1-0.09,1.75-0.33c0.94-0.35,2.26-0.37,3.94-0.05c5.4,1.02,12.45,4.59,14.79,9.9c1.21,2.74-1.58,2.77-3.29,2.89
			c-0.38,0.02-0.66,0.35-0.64,0.72c0.01,0.09,0.03,0.18,0.07,0.26c0.8,1.63,2.75,5.31,2.23,7.11c-0.13,0.44-0.39,0.54-0.79,0.29
			c-1.66-1.03-12.44-7.84-13.16-3.61c-0.35,2.09,4.61,3.68,5.88,4.5c5.61,3.65,10.6,7.8,13.03,14.01c1.36,3.48,1.57,6.92,0.23,10.32
			c-0.11,0.29-0.44,0.43-0.73,0.31c-0.03-0.01-0.07-0.03-0.1-0.05c-1.45-0.93-2.87-1.84-4.25-2.73c-4.21-2.71-8.03-6.27-11.72-9.61
			C156.11,286.85,155.99,286.92,156.04,287.3z M153.99,224.77c-3.79,0.44-8.35,3.64-9.39,7.38c-0.12,0.42,0.13,0.85,0.54,0.96
			c0.03,0.01,0.07,0.02,0.11,0.02c6.65,0.88,5.61,4.55,2.71,9.04c-0.25,0.39-0.13,0.9,0.25,1.15c0.11,0.07,0.23,0.11,0.36,0.13
			l0.79,0.08c0.74,0.07,1.44-0.35,1.71-1.05c1.2-3.12,1.51-5.69,0.92-7.72c-0.39-1.34-2.07-2.26-3.09-3.04
			c-0.29-0.22-0.4-0.61-0.27-0.95c1-2.62,2.73-3.23,4.96-4.37c0.49-0.25,0.79-0.6,0.91-1.04c0.06-0.25-0.08-0.5-0.33-0.57
			C154.11,224.76,154.05,224.76,153.99,224.77z M141.58,239.9c0.55-0.02,0.96-0.77,0.94-1.69v0c-0.03-0.92-0.49-1.64-1.04-1.63
			c0,0,0,0,0,0c-0.55,0.02-0.96,0.77-0.94,1.69l0,0C140.57,239.19,141.04,239.92,141.58,239.9
			C141.58,239.9,141.58,239.9,141.58,239.9z M123.69,254.46c1.49-1.59,3.67-1.87,5.26-3.42c0.13-0.13,0.1-0.19-0.08-0.18
			c-5.16,0.22-10.33,0.24-15.49,0.07c-0.8-0.03-2.09,0.14-2.53,0.65c-1.26,1.51-2.76,2.71-4.5,3.62c-0.81,0.42-1.18,0.87-0.99,1.78
			c0.37,1.73,0.92,2.95-0.41,4.66c-1.76,2.28-3.71,4.17-4.33,7.08c-0.09,0.44,0.05,0.54,0.42,0.29c0.8-0.52,1.57-0.98,2.19-1.75
			c1.15-1.43,2.91-4.15,4.9-4.14c1.46,0.01,2.92,0.03,4.38,0.07c2.05,0.05,3.01,2.14,3.95,3.67c0.15,0.25,0.25,0.23,0.29-0.06
			c0.48-3.11,1.59-5.94,3.32-8.49C120.94,257.03,122.44,255.81,123.69,254.46z M124.56,264.91c1.86-2.95,4.11-5.49,6.74-7.61
			c0.54-0.43,0.46-0.63-0.23-0.58c-0.64,0.04-1.4,0.31-2.29,0.8c-3.68,2.04-6.61,5.29-6.66,9.61c-0.01,0.76,0.23,0.84,0.7,0.24
			C123.47,266.55,124.05,265.73,124.56,264.91z M127.79,279.32c-0.64-1.7,0.3-5.81-0.17-6.3c-0.25-0.26-0.48-0.24-0.69,0.06
			c-1.91,2.78-3.06,5.79-3.45,9.02c-0.26,2.15-0.53,3.53-1,5.31c-0.08,0.31,0.11,0.64,0.42,0.72c0.05,0.01,0.1,0.02,0.15,0.02
			c0.31,0,0.64-0.08,1-0.23c4.16-1.71,7.73-4.09,10.73-7.14c0.33-0.34,0.26-0.53-0.21-0.57l-6.32-0.55
			C128.01,279.64,127.86,279.52,127.79,279.32z M111.49,319.32c0.1-0.32,0.04-0.67-0.16-0.94c-2.54-3.48-3.6-7.39-3.17-11.73
			c0.05-0.48,0.45-0.85,0.93-0.85c7.35-0.07,16.78,4.84,20.57,11.13c0.96,1.6,1.62,3.31,1.97,5.13c0.41,2.14-1.27,4.1-3.03,5.5
			c-7.43,5.87-16.71,5.96-24.16,0.05c-0.17-0.13-0.25-0.35-0.21-0.57c0.38-1.85,4.77-5.13,6.29-6.39
			C111.02,320.24,111.35,319.8,111.49,319.32z M296.37,596.44c0,0,0.37-25.95-18.86-27.82c-19.23-1.87-24.27,14.94-21.66,24.09
			c0,0-19.39,3.14-40.33-17.37c-22.32-21.85-48.92-66.1-29.13-144.15c0,0,24.27,8.59,33.61-9.34c9.34-17.93-4.85-35.1-10.46-38.09
			c0,0,32.49-21.29,30.62-75.44c-1.87-54.15-19.79-69.46-19.79-69.46s58.63-10.08,59.75-75.06c0,0,17.93,7.84,35.48,1.49
			c17.55-6.35,41.45-22.5,44.63-20.54c0,0,3.73,12.14,17.18,10.64c13.44-1.49,27.45-13.07,19.05-34.17
			c-8.4-21.1-34.73-12.14-46.87-6.35c-12.14,5.79-45,19.98-45,19.98s8.4-21.1-14.56-29.13c-22.97-8.03-31.93,17.73-30.06,26.05
			c0,0-28.2-11.29-32.49,17.09c-4.29,28.38,24.83,27.26,24.83,27.26s2.8,11.02-5.6,19.61c-8.4,8.59-15.31,12.7-23.9,10.64
			c0,0-5.23-20.17-19.98-18.49c-14.75,1.68-24.09,20.35-14.19,37.35c0,0-26.33,7.66-19.98,31.56c6.35,23.9,25.95,20.54,35.66,14.38
			c0,0,10.08,16.62-15.5,15.68c0,0,0.37,13.82-12.14,18.3c0,0,11.02,5.04,1.49,14.38c0,0,17.93,1.68,14.38,16.81
			c0,0,19.98,4.11,2.43,17.37c0,0-20.54-25.02-37.53-4.48c-16.99,20.54,9.9,41.45,16.25,43.32c0,0-51.16,81.6-11.58,161.14
			c39.59,79.55,92.99,70.58,109.05,67.97c0,0-3.36,31,24.27,29.5c27.64-1.49,25.77-23.9,25.39-31.37c0,0,32.86-4.11,41.45,29.13
			c0,0-27.26,8.78-17.74,28.38c9.52,19.61,51.54,17.37,51.16-21.85C395.33,616.23,350.89,582.81,296.37,596.44z M272.96,115.28
			c7.15-5.2,19.62-2.91,21.96,4.68c3.41,11.06-7.7,21.05-12.18,8.96c8.22-6.3,2.73-14.62-5.32-11.62
			c-7.28,2.71-8.19,10.96-6.13,17.09c3.27,9.72,16.12,15.03,31.62,10.63c32.46-9.21,71.24-45.83,84.73-19.46
			c5.73,11.21-1.49,17.61-7.42,18.7c-7.28,1.33-16.18-13.16,3.64-17.44c-14.48-28.01-71.85,36.65-104.12,22.07
			C268.31,143.73,257.99,126.17,272.96,115.28z M190.87,203.14c2.8-7.98,11.48-10.64,16.25-7c4.76,3.64,3.17,10.41,0.47,11.34
			c-2.71,0.93-5.32-2.33-2.71-3.55c2.61-1.21,1.32-6.33-3.27-6.26c-4.57,0.07-8.68,2.8-8.68,9.34c0,6.54,4.2,11.76,12.42,13.63
			c8.22,1.87,30.25,1.49,37.72-9.06c0,0-2.33-0.93-4.39-3.55c0,0,10.46-4.9,16.62-18.49c0,0,0,5.46-1.4,8.54c0,0,10.78-7,7.7-26.89
			c-3.08-19.89-14.7-24.93-17.79-21.99c-3.08,2.94,7.84,7.28,5.04,12.6c-2.8,5.32-11.2,1.68-13.86-5.04
			c-2.66-6.72-1.26-17.51,9.8-16.53c11.06,0.98,17.9,13.58,20.71,19.61c2.81,6.02,7.72,28.29-9.93,48.18
			c-17.65,19.89-30.95,22.27-46.92,18.21C192.69,222.19,188.06,211.13,190.87,203.14z M193.04,315.81
			c5.25-4.48,0.07-11.48,0.07-11.48c11.13-2.87,6.93-10.57,6.93-10.57c18.28-7.35,17.16-22.2,13.93-32.28
			c-3.22-10.08-12.18-15.83-20.8-16.95c-8.61-1.12-11.97,4.27-11.97,4.27c15.19,3.71,11.27,9.94,8.89,12.25
			c-2.38,2.31-11,0.96-13.24-5.77c-2.24-6.72,0.75-20.35,15.12-19.61c14.38,0.75,29.69,23.34,31,33.46
			c1.31,10.12,2.05,20.5,4.85,21.81c2.8,1.31,5.04-1.49,5.04-1.49c3.92,21.66-4.29,25.21-8.03,28.76c-3.73,3.55-2.61,4.85-2.05,6.16
			c0.56,1.31,6.42,1.31,6.42,1.31c-9.36,16.46-22.87,33.61-22.87,33.61c6.55-13.11,9.61-18.32,11.34-24.02
			c3.83-12.56,1.33-16.81,1.33-16.81c-6.79,10.22-15.83,12.95-15.83,12.95c28.5-28.71,13.93-37.11,13.93-37.11
			C210.05,320.43,193.04,315.81,193.04,315.81z M172.1,364.06c0,0-11.62,1.96-0.14,15.97c0,0-12.52-6.84-9.02-19.44
			c3.5-12.6,12.52-11.85,17.14-9.19c4.62,2.66,4.76,10.69,2.52,13.64C180.36,367.98,174.62,369.94,172.1,364.06z M276.71,605.98
			c-8.82,5.18-28.71,8.1-42.99,2.59c-14.28-5.51-44.91-25.77-62.09-56.58c-17.18-30.81-19.23-76.93-10.46-107.37
			c0,0,1.81,4.48,3.55,6.91c0,0,5.8-37.23,17.75-49.92c11.95-12.7,23.66-14.03,29.54-3.67c5.88,10.36-5.04,21.85-13.58,17.23
			c-8.54-4.62-1.4-17.09,9.66-7.98c0,0,1.91-8.26-3.04-11.06c-4.94-2.8-19.51-0.84-27.77,23.11s-14.55,65.11-3.99,104.39
			c7.68,28.56,58.19,113.8,103.56,71.79c0,0-12.02-0.68-13.44-8.68c-1.4-7.84,3.15-11.13,7.84-11.97
			c4.69-0.84,13.44,2.87,14.91,10.36C287.64,592.61,285.54,600.8,276.71,605.98z M385.53,660.67c-2.38,11.2-13.16,23.39-26.33,17.23
			c-13.16-6.16-5.46-18.49-1.54-19.47c3.92-0.98,7.24,0.61,8.45,2.05c1.21,1.45-1.17,5.28-2.94,3.83c-1.77-1.45-7.8-1.63-7.7,2.85
			c0.09,4.48,6.86,9.99,12.7,8.73c5.84-1.26,12.98-5.56,12.14-17.27c-0.84-11.72-0.56-23.43-15.22-38.28c0,0-0.47,4.2-1.4,6.54
			c0,0-8.68-11.02-21.66-14.75c0,0,2.8-1.16,9.34-0.58c0,0-15.26-10.95-35.01-5.21c-19.75,5.74-22.41,16.95-22.13,19.19
			c0.28,2.24,3.22,5.74,5.04,3.36c1.82-2.38,6.16-10.64,10.36-8.4c4.2,2.24,1.68,15.68-6.16,17.23c-7.84,1.54-18.35,2.1-17.79-11.9
			c0.56-14,26.61-28.29,42.57-26.33c15.97,1.96,35.85,6.72,46.91,22.41C386.23,637.56,387.91,649.47,385.53,660.67z M115.52,405.79
			c-3.97,5.2-6.44,10.64-3.22,12.74c3.22,2.1,15.97-6.58,21.99-10.5s20.03-5.88,20.03-5.88c-13.72,5.18-24.23,18.91-28.15,26.75
			c-3.92,7.84-3.5,20.03-4.48,30.95s-4.48,13.55-4.48,13.55c9.66,0.39,12.32-17.75,14.84-29.94c2.52-12.18,5.79-13.77,5.79-13.77
			c-1.12,3.17-6.72,44.63,0,43.69c6.72-0.93,11.95-36.97,14.19-50.04c2.24-13.07,13.44-27.45,13.44-27.45
			c-23.89-3.92-20.73-42.76-20.73-42.76C138.82,373.58,121.22,398.32,115.52,405.79z M112.35,385.16c0.09,2.92,5.32,3.83,9.71,3.73
			c4.39-0.09,7.19-2.61,4.57-5.6c0,0,2.43-4.11-1.12-4.29C121.96,378.81,112.25,382.07,112.35,385.16z"/>
		<path class="st2" d="M643.6,287.12c-3.69,3.33-7.51,6.9-11.72,9.61c-1.38,0.89-2.8,1.8-4.25,2.73c-0.03,0.02-0.06,0.04-0.1,0.05
			c-0.29,0.11-0.61-0.03-0.73-0.31c-1.34-3.4-1.12-6.83,0.23-10.32c2.43-6.22,7.42-10.36,13.03-14.01c1.27-0.82,6.23-2.41,5.88-4.5
			c-0.72-4.23-11.5,2.58-13.16,3.61c-0.39,0.25-0.65,0.15-0.79-0.29c-0.52-1.79,1.42-5.48,2.23-7.11c0.04-0.08,0.06-0.17,0.07-0.26
			c0.02-0.38-0.26-0.7-0.64-0.72c-1.71-0.12-4.49-0.14-3.29-2.89c2.34-5.31,9.39-8.88,14.79-9.9c1.69-0.32,3-0.3,3.94,0.05
			c0.64,0.24,1.23,0.35,1.75,0.33c0.07,0,0.13-0.04,0.16-0.09c0.05-0.09,0.03-0.21-0.07-0.26c-2.13-1.37-4.44-2.77-6.2-4.37
			c-6.01-5.49-10.8-14.56-9.62-23.02c0.59-4.22,1.71-8.22,3.57-12.44c0.88-2,1.78-4.05,2.69-6.15c0.02-0.06,0.06-0.11,0.11-0.15
			c0.17-0.14,0.43-0.12,0.57,0.05c2.27,2.73,5.92,4.99,8.79,7.12c5.15,3.82,8.78,6.99,12.46,11.45c0.13,0.16,0.26,0.25,0.38,0.28
			c0.25,0.05,0.34-0.04,0.27-0.28c-1.64-6.02-8.99-11.12-13.96-14.83c-3.61-2.69-5.87-4.79-8.09-8.18
			c-0.01-0.02-0.03-0.04-0.05-0.06c-0.1-0.08-0.25-0.06-0.33,0.04c-1.95,2.43-3.58,5.06-4.88,7.9c-1.21,2.64-2.07,4.32-2.56,5.04
			c-3.09,4.47-7.41,7.35-12.96,8.65c-0.05,0.01-0.1,0.01-0.14-0.01c-0.15-0.05-0.23-0.2-0.19-0.35c0.84-2.88,1.19-5.67,2.66-8.59
			c1.66-3.32,4.07-7.89,4.14-11.64c0-0.01,0-0.03,0-0.04c-0.01-0.46-0.4-0.82-0.86-0.81c-2.1,0.06-4.23,0-6.39-0.16
			c-1.35-0.1-5.87,0.99-5.02-1.92c0.3-1.03,1.07-1.74,2.3-2.15c8.15-2.71,16.08-5.98,24.16-8.87c6.16-2.21,13.17-2.96,19.31-0.21
			c7.75,3.47,12.96,10.86,15.34,18.79c0.21,0.68,0.32,1.37,0.34,2.08c0.04,1.2-0.71,2.26-0.58,3.63c0,0,0,0,0,0
			c0.04,0.35,0.35,0.6,0.7,0.57l2.91-0.33c0.03,0,0.05,0,0.08-0.01c0.45-0.01,0.81,0.35,0.82,0.8l0.08,8.24
			c0,0.19,0.13,0.36,0.31,0.42c1.63,0.49,3.22,0.75,3.43,2.91c0.17,1.71,0.51,3.33,0.53,5.03c0.02,2.58,0.12,5.16,0.31,7.74
			c0.06,0.79,0.41,1.21,1.05,1.27c3.93,0.3,7.5,1.08,10.69,2.34c5.13,2.02,7.18,5.61,8.79,10.85c0.38,1.25,0.87,4.11,1.45,8.58
			c0.32,2.39,0.76,4.76,1.33,7.1c0.89,3.64,4.22,7.1,7.32,8.97c2.67,1.61,6.25,2.01,9.43,2.62c3.62,0.69,3.37,5.43,1.39,7.54
			c-0.87,0.94-2.2,1.42-3.39,1.94c-0.69,0.29-1.05,1.05-0.86,1.77c0.72,2.67,1.39,5.42,2.01,8.24c0.53,2.42,0.02,4.65-1.52,6.68
			c-3,3.95-5.65,7.21-7.95,9.78c-2.5,2.8-4.37,3.75-8.24,3.3c-1.94-0.22-3.76-0.35-5.47-0.37c-0.49-0.01-0.72-0.25-0.71-0.74
			c0.25-8.3,1.37-21.62-5.97-27.73c-1.99-1.66-5.17-3.26-7.23-1.14c-4.55,4.67-9.06,10.36-13.81,15.38
			c-1.97,2.08-4.72,3.88-6.29,5.7c-3.35,3.86-5.71,9.85-4.25,14.9c1.13,3.96,4.58,7.14,7.85,9.5c2.2,1.59,4.67,2.26,7.4,2.01
			c2.15-0.2,4.94-1,6.59,0.9c3.69,4.26,6.23,12.89,0.32,16.65c-4.65,2.95-8.2,1.9-13.71,0.17c-4.1-1.29-8.1-2.85-12-4.69
			c-2.75-1.3-4.45-2.17-5.12-2.61c-5.37-3.6-10.87-9.63-9.88-16.29c0.6-4.07,2.03-7.91,4.29-11.5c0.05-0.09,0.09-0.18,0.11-0.28
			c0.06-0.41-0.21-0.79-0.62-0.85c-2.62-0.4-4.82-2.54-3.29-5.32c0.8-1.46,1.53-2.52,2.19-3.19c1.59-1.6,1.31-2.07-0.85-1.42
			c-0.09,0.03-0.56,0.39-1.4,1.09c-0.97,0.79-1.9,1.66-2.8,2.6c-0.4,0.42-0.84,0.46-1.31,0.11c-7.6-5.53-1-19.47,2.86-25.26
			c0.11-0.16,0.16-0.24,0.16-0.26C644.01,286.92,643.89,286.85,643.6,287.12z M645.84,224.78c-0.25,0.06-0.4,0.32-0.33,0.57
			c0.12,0.44,0.42,0.79,0.91,1.04c2.24,1.14,3.97,1.76,4.96,4.37c0.13,0.34,0.02,0.73-0.27,0.95c-1.02,0.78-2.7,1.7-3.09,3.04
			c-0.59,2.03-0.29,4.61,0.92,7.72c0.27,0.69,0.97,1.12,1.71,1.05l0.79-0.08c0.13-0.01,0.25-0.06,0.36-0.13
			c0.39-0.25,0.5-0.76,0.25-1.15c-2.9-4.49-3.95-8.17,2.71-9.04c0.04,0,0.07-0.01,0.11-0.02c0.42-0.12,0.66-0.55,0.54-0.96
			c-1.04-3.74-5.6-6.93-9.39-7.38C645.95,224.76,645.89,224.76,645.84,224.78z M658.42,239.9c0.55,0.02,1.01-0.71,1.04-1.63v0
			c0.03-0.92-0.39-1.67-0.94-1.69c0,0,0,0,0,0c-0.55-0.02-1.01,0.71-1.04,1.63v0C657.45,239.13,657.87,239.89,658.42,239.9
			C658.42,239.9,658.42,239.9,658.42,239.9z M679.92,258.3c1.73,2.56,2.84,5.39,3.32,8.49c0.05,0.29,0.15,0.31,0.29,0.06
			c0.94-1.53,1.9-3.61,3.95-3.67c1.46-0.04,2.92-0.06,4.38-0.07c2-0.01,3.75,2.71,4.9,4.14c0.62,0.77,1.39,1.23,2.19,1.75
			c0.37,0.25,0.51,0.15,0.42-0.29c-0.62-2.9-2.57-4.79-4.33-7.08c-1.33-1.71-0.78-2.93-0.41-4.66c0.19-0.91-0.17-1.36-0.99-1.78
			c-1.74-0.9-3.24-2.11-4.5-3.62c-0.43-0.52-1.73-0.68-2.53-0.65c-5.16,0.17-10.33,0.15-15.49-0.07c-0.18-0.01-0.2,0.05-0.08,0.18
			c1.59,1.55,3.77,1.83,5.26,3.42C677.56,255.81,679.06,257.03,679.92,258.3z M677.18,267.37c0.47,0.6,0.71,0.52,0.7-0.24
			c-0.05-4.32-2.98-7.57-6.66-9.61c-0.89-0.49-1.65-0.76-2.29-0.8c-0.69-0.05-0.77,0.15-0.23,0.58c2.63,2.12,4.88,4.66,6.74,7.61
			C675.95,265.73,676.53,266.55,677.18,267.37z M671.77,279.65l-6.32,0.55c-0.47,0.04-0.54,0.23-0.21,0.57
			c3,3.04,6.57,5.42,10.73,7.14c0.36,0.15,0.69,0.23,1,0.23c0.05,0,0.1-0.01,0.15-0.02c0.31-0.08,0.5-0.4,0.42-0.72
			c-0.47-1.78-0.74-3.16-1-5.31c-0.39-3.23-1.54-6.24-3.45-9.02c-0.2-0.3-0.43-0.32-0.69-0.06c-0.47,0.49,0.47,4.6-0.17,6.3
			C672.14,279.52,671.99,279.64,671.77,279.65z M689.48,320.66c1.53,1.27,5.91,4.54,6.29,6.39c0.04,0.21-0.04,0.43-0.21,0.57
			c-7.45,5.9-16.73,5.82-24.16-0.05c-1.77-1.4-3.44-3.36-3.03-5.5c0.35-1.83,1.01-3.54,1.97-5.13c3.79-6.29,13.22-11.2,20.57-11.13
			c0.48,0,0.88,0.37,0.93,0.85c0.42,4.34-0.64,8.25-3.17,11.73c-0.2,0.27-0.25,0.62-0.16,0.94
			C688.65,319.8,688.98,320.24,689.48,320.66z M404.3,655.44c-0.37,39.21,41.64,41.45,51.16,21.85
			c9.52-19.61-17.74-28.38-17.74-28.38c8.59-33.24,41.45-29.13,41.45-29.13c-0.37,7.47-2.24,29.88,25.39,31.37
			c27.64,1.49,24.27-29.5,24.27-29.5c16.06,2.61,69.46,11.58,109.05-67.97c39.59-79.55-11.58-161.14-11.58-161.14
			c6.35-1.87,33.24-22.78,16.25-43.32c-16.99-20.54-37.53,4.48-37.53,4.48c-17.55-13.26,2.43-17.37,2.43-17.37
			c-3.55-15.12,14.38-16.81,14.38-16.81c-9.52-9.34,1.49-14.38,1.49-14.38c-12.51-4.48-12.14-18.3-12.14-18.3
			c-25.58,0.93-15.5-15.68-15.5-15.68c9.71,6.16,29.32,9.52,35.66-14.38s-19.98-31.56-19.98-31.56c9.9-16.99,0.56-35.66-14.19-37.35
			c-14.75-1.68-19.98,18.49-19.98,18.49c-8.59,2.05-15.5-2.05-23.9-10.64s-5.6-19.61-5.6-19.61s29.13,1.12,24.83-27.26
			c-4.29-28.38-32.49-17.09-32.49-17.09c1.87-8.31-7.1-34.07-30.06-26.05c-22.97,8.03-14.56,29.13-14.56,29.13
			s-32.86-14.19-45-19.98c-12.14-5.79-38.47-14.75-46.87,6.35c-8.4,21.1,5.6,32.68,19.05,34.17c13.44,1.49,17.18-10.64,17.18-10.64
			c3.17-1.96,27.08,14.19,44.63,20.54c17.55,6.35,35.48-1.49,35.48-1.49c1.12,64.98,59.75,75.06,59.75,75.06
			s-17.93,15.31-19.79,69.46c-1.87,54.15,30.62,75.44,30.62,75.44c-5.6,2.99-19.79,20.17-10.46,38.09
			c9.34,17.93,33.61,9.34,33.61,9.34c19.79,78.05-6.81,122.3-29.13,144.15c-20.94,20.5-40.33,17.37-40.33,17.37
			c2.61-9.15-2.43-25.96-21.66-24.09c-19.23,1.87-18.86,27.82-18.86,27.82C449.11,582.81,404.67,616.23,404.3,655.44z
			 M520.28,148.89c-32.27,14.59-89.65-50.08-104.12-22.07c19.82,4.27,10.92,18.77,3.64,17.44c-5.93-1.08-13.15-7.49-7.42-18.7
			c13.49-26.37,52.27,10.25,84.73,19.46c15.5,4.4,28.35-0.92,31.62-10.63c2.06-6.12,1.15-14.38-6.13-17.09
			c-8.05-2.99-13.54,5.32-5.32,11.62c-4.48,12.09-15.59,2.1-12.18-8.96c2.34-7.59,14.81-9.88,21.96-4.68
			C542.01,126.17,531.69,143.73,520.28,148.89z M591.35,226.25c-15.97,4.06-29.27,1.68-46.91-18.21
			c-17.65-19.89-12.74-42.15-9.93-48.18c2.81-6.02,9.65-18.63,20.71-19.61c11.06-0.98,12.46,9.8,9.8,16.53
			c-2.66,6.72-11.06,10.36-13.86,5.04c-2.8-5.32,8.12-9.66,5.04-12.6c-3.08-2.94-14.7,2.1-17.79,21.99s7.7,26.89,7.7,26.89
			c-1.4-3.08-1.4-8.54-1.4-8.54c6.16,13.58,16.62,18.49,16.62,18.49c-2.05,2.61-4.39,3.55-4.39,3.55
			c7.47,10.55,29.5,10.92,37.72,9.06c8.22-1.87,12.42-7.1,12.42-13.63c0-6.54-4.11-9.27-8.68-9.34c-4.59-0.07-5.88,5.04-3.27,6.26
			c2.61,1.21,0,4.48-2.71,3.55c-2.71-0.93-4.29-7.7,0.47-11.34c4.76-3.64,13.44-0.98,16.25,7
			C611.94,211.13,607.31,222.19,591.35,226.25z M582.88,294.31c0,0-14.56,8.4,13.93,37.11c0,0-9.03-2.73-15.83-12.95
			c0,0-2.5,4.24,1.33,16.81c1.74,5.7,4.79,10.91,11.34,24.02c0,0-13.51-17.16-22.87-33.61c0,0,5.86,0,6.42-1.31
			c0.56-1.31,1.68-2.61-2.05-6.16c-3.73-3.55-11.95-7.1-8.03-28.76c0,0,2.24,2.8,5.04,1.49s3.55-11.69,4.85-21.81
			s16.62-32.72,31-33.46c14.38-0.75,17.37,12.88,15.12,19.61s-10.86,8.08-13.24,5.77c-2.38-2.31-6.3-8.54,8.89-12.25
			c0,0-3.36-5.39-11.97-4.27c-8.61,1.12-17.58,6.86-20.8,16.95c-3.22,10.08-4.34,24.93,13.93,32.28c0,0-4.2,7.7,6.93,10.57
			c0,0-5.18,7,0.07,11.48C606.96,315.81,589.95,320.43,582.88,294.31z M617.4,365.03c-2.24-2.95-2.1-10.98,2.52-13.64
			c4.62-2.66,13.64-3.42,17.14,9.19c3.5,12.6-9.02,19.44-9.02,19.44c11.48-14-0.14-15.97-0.14-15.97
			C625.38,369.94,619.64,367.98,617.4,365.03z M513.83,585.12c1.47-7.49,10.22-11.2,14.91-10.36c4.69,0.84,9.24,4.13,7.84,11.97
			c-1.43,8-13.44,8.68-13.44,8.68c45.37,42.01,95.88-43.23,103.56-71.79c10.56-39.28,4.27-80.44-3.99-104.39
			s-22.83-25.91-27.77-23.11c-4.94,2.8-3.04,11.06-3.04,11.06c11.06-9.1,18.21,3.36,9.66,7.98c-8.54,4.62-19.47-6.86-13.58-17.23
			c5.88-10.36,17.59-9.03,29.54,3.67c11.95,12.7,17.75,49.92,17.75,49.92c1.74-2.43,3.55-6.91,3.55-6.91
			c8.78,30.44,6.72,76.56-10.46,107.37c-17.18,30.81-47.8,51.07-62.09,56.58c-14.28,5.51-34.17,2.59-42.99-2.59
			C514.46,600.8,512.36,592.61,513.83,585.12z M424.84,621.88c11.06-15.69,30.95-20.45,46.91-22.41
			c15.97-1.96,42.01,12.32,42.57,26.33c0.56,14-9.94,13.44-17.79,11.9c-7.84-1.54-10.36-14.98-6.16-17.23
			c4.2-2.24,8.54,6.02,10.36,8.4c1.82,2.38,4.76-1.12,5.04-3.36c0.28-2.24-2.38-13.44-22.13-19.19
			c-19.75-5.74-35.01,5.21-35.01,5.21c6.54-0.58,9.34,0.58,9.34,0.58c-12.98,3.73-21.66,14.75-21.66,14.75
			c-0.93-2.33-1.4-6.54-1.4-6.54c-14.66,14.84-14.38,26.56-15.22,38.28c-0.84,11.72,6.3,16.01,12.14,17.27
			c5.84,1.26,12.6-4.25,12.7-8.73c0.09-4.48-5.93-4.29-7.7-2.85c-1.77,1.45-4.15-2.38-2.94-3.83c1.21-1.45,4.53-3.03,8.45-2.05
			c3.92,0.98,11.62,13.3-1.54,19.47c-13.16,6.16-23.95-6.02-26.33-17.23C412.09,649.47,413.77,637.56,424.84,621.88z M655.26,353.13
			c0,0,3.16,38.84-20.73,42.76c0,0,11.2,14.38,13.44,27.45c2.24,13.07,7.47,49.11,14.19,50.04c6.72,0.93,1.12-40.52,0-43.69
			c0,0,3.27,1.59,5.79,13.77c2.52,12.18,5.18,30.33,14.84,29.94c0,0-3.5-2.63-4.48-13.55c-0.98-10.92-0.56-23.11-4.48-30.95
			s-14.42-21.57-28.15-26.75c0,0,14,1.96,20.03,5.88c6.02,3.92,18.77,12.6,21.99,10.5c3.22-2.1,0.74-7.55-3.22-12.74
			C678.78,398.32,661.18,373.58,655.26,353.13z M674.49,378.99c-3.55,0.19-1.12,4.29-1.12,4.29c-2.61,2.99,0.19,5.51,4.57,5.6
			c4.39,0.09,9.62-0.82,9.71-3.73C687.75,382.07,678.04,378.81,674.49,378.99z"/>
	</g>
	<g>
		<path class="st2" d="M552.56,367.14c-8.12-10.92-19.79-6.54-19.79-6.54c0.93-5.88-1.59-9.62-4.01-11.11
			c-2.43-1.49-7.94,1.87-7.75-0.09c0.75-5.7,1.49-12.51,0-12.79c-1.49-0.28-4.01,9.99-4.76,14.47c-0.75,4.48-0.75,5.42-2.05,5.51
			c-1.31,0.09-2.15-5.6-6.26-5.32c-4.11,0.28-4.2,9.24-5.32,9.24c-1.12,0-4.01-2.33-5.23-2.52c-1.21-0.19-3.08,2.24-5.42,6.35
			c-0.34,0.61-0.55,1.36-0.68,2.2c-1.91-6.3-6.42-9.11-6.42-9.11c3.36-3.55,3.64-11.11,1.12-17.74s-9.06-7.19-9.24-11.02
			c-0.19-3.83-0.37-19.79-2.43-19.98c-2.05-0.19-3.83,20.26-3.83,20.26c-13.91,3.55-12.53,17.88-12.53,17.88
			c-12.46-2.1-20.59,7.84-19.47,20.73c1.12,12.88,14.21,17.23,14.21,17.23c-1.12,41.03-10.78,39.77-24.79,40.05
			c-14,0.28-15.12-13.58-14-20.17c1.12-6.58,4.2-14.84,4.2-14.84c7.28,1.4,7.84-9.1,7.84-9.1c12.18-0.56,9.8-8.96,9.8-8.96
			c3.08-6.3,3.78-16.95,1.26-26.89s-10.5-6.77-10.5-6.77c-0.75-3.55-4.01-6.35-4.01-6.35c8.5-18.86-10.27-19.79-10.27-19.79
			s-1.87-5.6-3.55-7.56c-1.68-1.96-5.51-4.76-5.79-7.84c-0.28-3.08-0.47-8.5-0.65-11.58c-0.19-3.08-1.49-5.42-2.24-5.42
			s-2.05,2.33-2.24,5.42c-0.19,3.08-0.37,8.5-0.65,11.58c-0.28,3.08-4.11,5.88-5.79,7.84c-1.68,1.96-3.55,7.56-3.55,7.56
			s-18.77,0.93-10.27,19.79c0,0-3.27,2.8-4.01,6.35c0,0-7.98-3.17-10.5,6.77s-1.82,20.59,1.26,26.89c0,0-2.38,8.4,9.8,8.96
			c0,0,0.56,10.5,7.84,9.1c0,0,3.08,8.26,4.2,14.84c1.12,6.58,0,20.45-14,20.17c-14-0.28-23.67,0.98-24.79-40.05
			c0,0,13.09-4.34,14.21-17.23c1.12-12.88-7-22.83-19.47-20.73c0,0,1.38-14.33-12.53-17.88c0,0-1.77-20.45-3.83-20.26
			c-2.05,0.19-2.24,16.15-2.43,19.98c-0.19,3.83-6.72,4.39-9.24,11.02s-2.24,14.19,1.12,17.74c0,0-4.51,2.81-6.42,9.11
			c-0.12-0.84-0.33-1.59-0.68-2.2c-2.33-4.11-4.2-6.54-5.42-6.35c-1.21,0.19-4.11,2.52-5.23,2.52c-1.12,0-1.21-8.96-5.32-9.24
			c-4.11-0.28-4.95,5.42-6.26,5.32c-1.31-0.09-1.31-1.03-2.05-5.51c-0.75-4.48-3.27-14.75-4.76-14.47c-1.49,0.28-0.75,7.1,0,12.79
			c0.19,1.96-5.32-1.4-7.75,0.09c-2.43,1.49-4.95,5.23-4.01,11.11c0,0-11.67-4.39-19.79,6.54c-8.12,10.92-4.67,25.77-2.71,30.44
			c1.96,4.67,12.6,22.87,24.55-2.52c0,0,3.92,23.63,10.83,29.79c0,0-2.43,2.24-3.27,10.08c-0.84,7.84-1.12,44.53-1.12,44.53
			s39.31,34.73,124.27,34.73s124.27-34.73,124.27-34.73s-0.28-36.69-1.12-44.53s-3.27-10.08-3.27-10.08
			c6.91-6.16,10.83-29.79,10.83-29.79c11.95,25.39,22.59,7.19,24.55,2.52C557.22,392.9,560.68,378.06,552.56,367.14z M491.78,376.47
			c0.03-0.2,0.06-0.4,0.09-0.6c0.38,2.7,0.71,5.15,0.38,6.57c-0.84,3.64,0.65,6.44,2.61,7.38c1.96,0.93,0.42,3.64-1.4,5.18
			c-1.82,1.54-5.18-1.54-5.46,2.94c-0.28,4.48,11.16,12.98,11.16,12.98c-4.95,9.52-15.59,6.54-20.45,1.4
			c-4.85-5.14-2.8-22.87-2.8-22.87C478.24,389.92,489.54,389.82,491.78,376.47z M482.5,364.15c2.66,0,4.82,2.63,4.82,5.86
			c0,3.24-2.16,5.86-4.82,5.86c-2.66,0-4.82-2.63-4.82-5.86C477.68,366.77,479.84,364.15,482.5,364.15z M474.53,340.97
			c2.39,0,4.32,2.59,4.32,5.79c0,3.2-1.93,5.79-4.32,5.79c-2.39,0-4.32-2.59-4.32-5.79C470.21,343.56,472.14,340.97,474.53,340.97z
			 M468.72,367.32c0.75-4.67,4.48-1.49,4.48,0c0,1.49,0.37,6.16,1.33,9.34c0.96,3.17,6.7,5.79,6.7,5.79s-0.93,2.05-6.26,0
			C469.65,380.39,467.97,371.99,468.72,367.32z M450.23,364.15c0-3.09,2.05-5.6,4.57-5.6c2.53,0,4.57,2.51,4.57,5.6
			s-2.05,5.6-4.57,5.6C452.28,369.75,450.23,367.24,450.23,364.15z M418.78,379.83c-1.02,0-1.86-0.83-1.86-1.86
			c0-1.02,0.83-1.86,1.86-1.86c1.02,0,1.86,0.83,1.86,1.86C420.63,379,419.8,379.83,418.78,379.83z M381.22,379.83
			c-1.02,0-1.86-0.83-1.86-1.86c0-1.02,0.83-1.86,1.86-1.86c1.02,0,1.86,0.83,1.86,1.86C383.08,379,382.25,379.83,381.22,379.83z
			 M382.17,358.38c3.92,3.36,3.71,6.51,1.4,8.68c-2.31,2.17-12.95,7.49-12.95,7.49c0.98-7.42-0.91-9.45-3.64-10.92
			s-2.31-8.96,0.56-10.22c2.87-1.26,2.45-4.34,1.82-5.74c-0.63-1.4,0.77-3.71,2.1-2.73c1.33,0.98,4.76,3.92,6.09,3.43
			s1.4-10.08,1.4-10.08c2.87,0.35,7-1.05,7-2.38s-3.22-2.03-3.85-3.78c-0.63-1.75-0.07-9.87,0.84-12.18c0.91-2.31,3.5,0,5.25,1.54
			c1.75,1.54,3.99,2.87,4.9,1.75c0.91-1.12,0-8.4,0-8.4c3.01,1.96,4.34,1.19,3.99-1.89c-0.3-2.63,1.35-5.45,2.92-6.23
			c1.56,0.78,3.22,3.6,2.92,6.23c-0.35,3.08,0.98,3.85,3.99,1.89c0,0-0.91,7.28,0,8.4c0.91,1.12,3.15-0.21,4.9-1.75
			c1.75-1.54,4.34-3.85,5.25-1.54c0.91,2.31,1.47,10.43,0.84,12.18c-0.63,1.75-3.85,2.45-3.85,3.78s4.13,2.73,7,2.38
			c0,0,0.07,9.59,1.4,10.08s4.76-2.45,6.09-3.43c1.33-0.98,2.73,1.33,2.1,2.73c-0.63,1.4-1.05,4.48,1.82,5.74
			c2.87,1.26,3.29,8.75,0.56,10.22s-4.62,3.5-3.64,10.92c0,0-10.64-5.32-12.95-7.49c-2.31-2.17-2.52-5.32,1.4-8.68
			c0,0-3.22-3.01-5.81-5.32c-2.59-2.31-3.78-3.01-4.06-6.86c-0.28-3.85-5.39-9.31-5.39-9.31s-1.06-6.35-2.57-8.4
			c-1.51,2.05-2.57,8.4-2.57,8.4s-5.11,5.46-5.39,9.31c-0.28,3.85-1.47,4.55-4.06,6.86C385.39,355.37,382.17,358.38,382.17,358.38z
			 M345.19,358.55c2.53,0,4.57,2.51,4.57,5.6s-2.05,5.6-4.57,5.6c-2.53,0-4.57-2.51-4.57-5.6S342.67,358.55,345.19,358.55z
			 M331.28,367.32c0.75,4.67-0.93,13.07-6.26,15.12c-5.32,2.05-6.26,0-6.26,0s5.74-2.61,6.7-5.79c0.96-3.17,1.33-7.84,1.33-9.34
			C326.8,365.83,330.54,362.65,331.28,367.32z M325.47,340.97c2.39,0,4.32,2.59,4.32,5.79c0,3.2-1.93,5.79-4.32,5.79
			c-2.39,0-4.32-2.59-4.32-5.79C321.15,343.56,323.09,340.97,325.47,340.97z M317.5,364.15c2.66,0,4.82,2.63,4.82,5.86
			c0,3.24-2.16,5.86-4.82,5.86c-2.66,0-4.82-2.63-4.82-5.86C312.69,366.77,314.84,364.15,317.5,364.15z M305.14,389.82
			c1.96-0.93,3.45-3.73,2.61-7.38c-0.33-1.42,0-3.87,0.38-6.57c0.03,0.2,0.05,0.39,0.09,0.6c2.24,13.35,13.54,13.44,15.87,12.98
			c0,0,2.05,17.74-2.8,22.87c-4.85,5.13-15.5,8.12-20.45-1.4c0,0,11.44-8.5,11.16-12.98c-0.28-4.48-3.64-1.4-5.46-2.94
			C304.72,393.46,303.18,390.76,305.14,389.82z M276.48,397.85c-1.68-6.54-2.24-7.84-4.76-14.49c-2.52-6.65-7.56-7.49-7.56-7.49
			c0.93,2.58,0.65,15.16-3.27,20.63c-3.92,5.47-12.14,2.93-10.18-13.87c1.96-16.81,7.38-17.46,10.36-17.76
			c2.99-0.3,5.98,1.51,7.28,3.19c1.31,1.68,2.89,1.87,4.95,1.68c2.05-0.19,1.59-4.67,1.87-8.03c0.28-3.36-0.56-6.07,4.11-4.85
			c4.67,1.21,4.48,9.06,4.2,11.39c-0.28,2.33,0.47,3.83,2.24,3.92c1.77,0.09,2.43-2.52,2.99-3.64c0.56-1.12,1.17-3.22,3.55-3.66
			c2.38-0.44,3.64,5.34,3.78,8.28c0.14,2.94-2.38,4.9-5.04,2.72s-7.28-2.02-7.14,0c0.14,2.02-1.54,2.74-1.54,2.74
			c-4.34-1.96-10.22-2.74-10.22-2.74c3.08,2.16,4.48,13.25,6.3,19.83c1.82,6.58,8.4,22.27,8.4,22.27
			C281.8,413.72,278.16,404.39,276.48,397.85z M325.47,430.81c6.32-1.12,10.11-10.08,10.11-10.08c2.05,5.6,9.62,13.07,9.62,13.07
			C337.63,435.29,325.47,430.81,325.47,430.81z M372.64,435.76c-14.28,1.26-25.77-9.1-28.99-14c-3.22-4.9-7.28-38.39-7.28-38.39
			c-2.52,16.78-4.34,35.17-12.46,40.63c-8.12,5.46-24.79,5.04-34.17-8.26s4.06-21.57,4.06-21.57l-7.98-8.27
			c18.21,1.67,15.68-19.6,15.68-19.6c6.73,12.98-4.48,21.71-4.48,21.71c0.42,5.32,6.16,13.02,6.16,13.02s-3.78,5.32-6.02,4.34
			c-2.24-0.98-6.3-5.06-6.3-5.06c-2.24,27.43,27.17,24.81,33.05,17.66c5.88-7.14,7-22.97,7.54-29.69
			c0.54-6.72,4.64-12.41,4.64-12.41s4.76,4.85,5.74,11.4c0.98,6.55,1.68,20.2,4.34,28.18c2.66,7.98,10.5,13.86,22.41,15.12
			s20.73-6.44,23.53-16.95c2.8-10.5,2.94-29.69,2.94-29.69C404.85,419.79,386.93,434.5,372.64,435.76z M400,438
			c-2.89,0-5.98-1.4-5.98-1.4c2.33-2.99,5.98-11.58,5.98-11.58s3.64,8.59,5.98,11.58C405.98,436.6,402.89,438,400,438z
			 M454.81,433.8c0,0,7.56-7.47,9.62-13.07c0,0,3.78,8.96,10.11,10.08C474.53,430.81,462.37,435.29,454.81,433.8z M476.09,423.99
			c-8.12-5.46-9.94-23.85-12.46-40.63c0,0-4.06,33.49-7.28,38.39c-3.22,4.9-14.7,15.26-28.99,14
			c-14.28-1.26-32.21-15.97-22.41-51.82c0,0,0.14,19.19,2.94,29.69c2.8,10.5,11.62,18.21,23.53,16.95s19.75-7.14,22.41-15.12
			c2.66-7.98,3.36-21.63,4.34-28.18c0.98-6.55,5.74-11.4,5.74-11.4s4.1,5.69,4.64,12.41c0.54,6.72,1.66,22.55,7.54,29.69
			c5.88,7.14,35.29,9.77,33.05-17.66c0,0-4.06,4.08-6.3,5.06c-2.24,0.98-6.02-4.34-6.02-4.34s5.74-7.7,6.16-13.02
			c0,0-11.21-8.72-4.48-21.71c0,0-2.52,21.27,15.68,19.6l-7.98,8.27c0,0,13.44,8.26,4.06,21.57S484.21,429.46,476.09,423.99z
			 M539.11,396.51c-3.92-5.47-4.2-18.05-3.27-20.63c0,0-5.04,0.84-7.56,7.49c-2.52,6.65-3.08,7.96-4.76,14.49
			c-1.68,6.54-5.32,15.87-10.32,20.12c0,0,6.58-15.69,8.4-22.27c1.82-6.58,3.22-17.67,6.3-19.83c0,0-5.88,0.78-10.22,2.74
			c0,0-1.68-0.73-1.54-2.74c0.14-2.02-4.48-2.18-7.14,0s-5.18,0.22-5.04-2.72c0.14-2.94,1.4-8.72,3.78-8.28
			c2.38,0.44,2.99,2.54,3.55,3.66c0.56,1.12,1.21,3.73,2.99,3.64c1.77-0.09,2.52-1.59,2.24-3.92s-0.47-10.18,4.2-11.39
			c4.67-1.21,3.83,1.49,4.11,4.85c0.28,3.36-0.19,7.84,1.87,8.03c2.05,0.19,3.64,0,4.95-1.68c1.31-1.68,4.29-3.5,7.28-3.19
			c2.99,0.3,8.4,0.95,10.36,17.76C551.25,399.44,543.03,401.97,539.11,396.51z"/>
		<g>
			<g>
				<path class="st1" d="M400,472.8c-72.01,0-119.3-26.15-119.77-26.41c-0.71-0.4-0.97-1.31-0.57-2.02s1.31-0.97,2.02-0.57
					c0.46,0.26,47.13,26.03,118.31,26.03c71.24,0,117.85-25.77,118.31-26.03c0.71-0.4,1.62-0.15,2.02,0.57
					c0.4,0.71,0.15,1.62-0.57,2.02C519.3,446.65,472.01,472.8,400,472.8z"/>
			</g>
			<g>
				<path class="st1" d="M400,504.33c-82.13,0-120.18-26.58-120.56-26.85c-0.67-0.48-0.82-1.4-0.34-2.07
					c0.48-0.67,1.4-0.82,2.07-0.34c0.37,0.26,37.76,26.29,118.83,26.29s118.46-26.03,118.83-26.29c0.67-0.48,1.6-0.32,2.07,0.34
					s0.32,1.59-0.34,2.07C520.18,477.75,482.13,504.33,400,504.33z"/>
			</g>
			<g>
				<path class="st1" d="M400,450.69c-64.38,0-114.33-23.43-114.82-23.67c-0.74-0.35-1.05-1.24-0.7-1.98
					c0.35-0.74,1.24-1.05,1.98-0.7c0.49,0.23,49.86,23.38,113.55,23.38s113.05-23.15,113.55-23.38c0.74-0.35,1.63-0.04,1.98,0.7
					c0.35,0.74,0.04,1.63-0.7,1.98C514.33,427.25,464.38,450.69,400,450.69z"/>
			</g>
			<g>
				<path class="st1" d="M322.6,447.43v5.71c4.69,1.39,9.43,2.63,14.2,3.74v-6.07c-0.88-0.18-1.67-0.33-2.27-0.44
					C330.55,449.47,326.56,448.49,322.6,447.43z"/>
				<path class="st1" d="M346.67,452.66c-1-0.13-2.53-0.41-4.2-0.73v6.21c4.85,1.02,9.73,1.89,14.63,2.65v-6.58
					c-0.09-0.01-0.18-0.02-0.25-0.03C353.93,453.74,349.59,453.09,346.67,452.66z"/>
				<path class="st1" d="M416.84,456.24c-5.59,0.19-28.09,0.19-33.68,0v7.4c5.53,0.35,11.03,0.75,16.84,0.75
					c3.13,0,11.31-0.4,16.84-0.75V456.24z"/>
				<path class="st1" d="M367.09,455.23c-0.71-0.08-2.45-0.25-4.32-0.44v6.81c3.99,0.53,7.98,0.99,11.97,1.35
					c0.9,0.09,1.82,0.18,2.74,0.26v-7.24c-0.73-0.04-1.46-0.09-2.18-0.14C372.85,455.72,369.52,455.54,367.09,455.23z"/>
				<path class="st1" d="M306.52,447.71c3.43,1.3,6.9,2.52,10.4,3.66v-5.55c-3.49-1.02-6.96-2.12-10.4-3.32V447.71z"/>
				<path class="st1" d="M283.51,437.28c1.6,0.87,3.2,1.7,4.83,2.52v-4.78c-1.63-0.79-3.23-1.61-4.83-2.46V437.28z"/>
				<path class="st1" d="M294.01,442.51c2.26,1.03,4.54,2.01,6.84,2.95v-5.04c-2.3-0.89-4.58-1.82-6.84-2.8V442.51z"/>
				<path class="st1" d="M463.21,450.81v6.07c4.77-1.11,9.51-2.35,14.2-3.74v-5.71c-3.97,1.06-7.95,2.04-11.93,2.94
					C464.87,450.48,464.09,450.63,463.21,450.81z"/>
				<path class="st1" d="M443.15,454.18c-0.07,0.01-0.16,0.02-0.25,0.03v6.58c4.9-0.75,9.78-1.63,14.63-2.65v-6.21
					c-1.67,0.32-3.2,0.59-4.2,0.73C450.41,453.09,446.07,453.74,443.15,454.18z"/>
				<path class="st1" d="M424.69,455.84c-0.72,0.05-1.45,0.09-2.18,0.14v7.24c0.92-0.08,1.84-0.17,2.74-0.26
					c3.99-0.37,7.99-0.82,11.97-1.35v-6.81c-1.87,0.19-3.61,0.36-4.32,0.44C430.48,455.54,427.15,455.72,424.69,455.84z"/>
				<path class="st1" d="M483.08,451.37c3.5-1.13,6.96-2.36,10.4-3.66v-5.21c-3.44,1.2-6.91,2.3-10.4,3.32V451.37z"/>
				<path class="st1" d="M511.66,435.02v4.78c1.62-0.81,3.23-1.65,4.83-2.52v-4.72C514.9,433.41,513.29,434.23,511.66,435.02z"/>
				<path class="st1" d="M499.15,445.46c2.29-0.95,4.58-1.92,6.84-2.95v-4.89c-2.26,0.98-4.54,1.91-6.84,2.8V445.46z"/>
			</g>
			<g>
				<g>
					<g>
						<path class="st1" d="M286.77,463.62c-2.84,0-5.15-2.31-5.15-5.15c0-2.84,2.31-5.15,5.15-5.15s5.15,2.31,5.15,5.15
							C291.93,461.31,289.61,463.62,286.77,463.62z M286.77,454.8c-2.02,0-3.67,1.65-3.67,3.67c0,2.02,1.65,3.67,3.67,3.67
							s3.67-1.65,3.67-3.67C290.44,456.45,288.8,454.8,286.77,454.8z"/>
					</g>
					<g>
						<path class="st1" d="M293.48,478.72c-2.84,0-5.15-2.31-5.15-5.15c0-2.84,2.31-5.15,5.15-5.15c2.84,0,5.15,2.31,5.15,5.15
							C298.64,476.41,296.32,478.72,293.48,478.72z M293.48,469.9c-2.02,0-3.67,1.65-3.67,3.67c0,2.02,1.65,3.67,3.67,3.67
							s3.67-1.65,3.67-3.67C297.15,471.55,295.51,469.9,293.48,469.9z"/>
					</g>
					<g>
						<path class="st1" d="M307.31,473.17c-2.84,0-5.15-2.31-5.15-5.15c0-2.84,2.31-5.15,5.15-5.15c2.84,0,5.15,2.31,5.15,5.15
							C312.46,470.85,310.15,473.17,307.31,473.17z M307.31,464.34c-2.02,0-3.67,1.65-3.67,3.67c0,2.02,1.65,3.67,3.67,3.67
							s3.67-1.65,3.67-3.67C310.98,465.99,309.33,464.34,307.31,464.34z"/>
					</g>
					<g>
						<path class="st1" d="M337.03,493.29c-2.84,0-5.15-2.31-5.15-5.15c0-2.84,2.31-5.15,5.15-5.15c2.84,0,5.15,2.31,5.15,5.15
							C342.18,490.98,339.87,493.29,337.03,493.29z M337.03,484.46c-2.02,0-3.67,1.65-3.67,3.67c0,2.02,1.65,3.67,3.67,3.67
							s3.67-1.65,3.67-3.67C340.7,486.11,339.05,484.46,337.03,484.46z"/>
					</g>
					<g>
						<path class="st1" d="M372.87,482.94c-2.84,0-5.15-2.31-5.15-5.15c0-2.84,2.31-5.15,5.15-5.15c2.84,0,5.15,2.31,5.15,5.15
							C378.03,480.63,375.72,482.94,372.87,482.94z M372.87,474.11c-2.02,0-3.67,1.65-3.67,3.67c0,2.02,1.65,3.67,3.67,3.67
							s3.67-1.65,3.67-3.67C376.54,475.76,374.9,474.11,372.87,474.11z"/>
					</g>
					<g>
						<path class="st1" d="M373.26,498.23c-3.59,0-6.51-2.92-6.51-6.51c0-3.59,2.92-6.51,6.51-6.51s6.51,2.92,6.51,6.51
							C379.78,495.31,376.85,498.23,373.26,498.23z M373.26,486.69c-2.77,0-5.03,2.26-5.03,5.03c0,2.77,2.26,5.03,5.03,5.03
							c2.77,0,5.03-2.26,5.03-5.03C378.29,488.94,376.04,486.69,373.26,486.69z"/>
					</g>
					<g>
						<path class="st1" d="M324.45,484.71c-4.22,0-7.66-3.44-7.66-7.66c0-4.22,3.44-7.66,7.66-7.66s7.66,3.44,7.66,7.66
							C332.11,481.28,328.67,484.71,324.45,484.71z M324.45,471.37c-3.13,0-5.68,2.55-5.68,5.68c0,3.13,2.55,5.68,5.68,5.68
							s5.68-2.55,5.68-5.68C330.13,473.92,327.58,471.37,324.45,471.37z"/>
					</g>
					<g>
						<path class="st1" d="M353.91,487.13c-4.22,0-7.66-3.44-7.66-7.66c0-4.22,3.44-7.66,7.66-7.66c4.22,0,7.66,3.44,7.66,7.66
							C361.57,483.7,358.13,487.13,353.91,487.13z M353.91,473.79c-3.13,0-5.68,2.55-5.68,5.68s2.55,5.68,5.68,5.68
							c3.13,0,5.68-2.55,5.68-5.68S357.04,473.79,353.91,473.79z"/>
					</g>
				</g>
				<g>
					<g>
						<path class="st1" d="M508.07,458.47c0-2.84,2.31-5.15,5.15-5.15c2.84,0,5.15,2.31,5.15,5.15c0,2.84-2.31,5.15-5.15,5.15
							C510.39,463.62,508.07,461.31,508.07,458.47z M509.56,458.47c0,2.02,1.65,3.67,3.67,3.67c2.02,0,3.67-1.65,3.67-3.67
							c0-2.02-1.65-3.67-3.67-3.67C511.2,454.8,509.56,456.45,509.56,458.47z"/>
					</g>
					<g>
						<path class="st1" d="M501.36,473.57c0-2.84,2.31-5.15,5.15-5.15c2.84,0,5.15,2.31,5.15,5.15c0,2.84-2.31,5.15-5.15,5.15
							C503.68,478.72,501.36,476.41,501.36,473.57z M502.85,473.57c0,2.02,1.65,3.67,3.67,3.67s3.67-1.65,3.67-3.67
							c0-2.02-1.65-3.67-3.67-3.67S502.85,471.55,502.85,473.57z"/>
					</g>
					<g>
						<path class="st1" d="M487.54,468.01c0-2.84,2.31-5.15,5.15-5.15c2.84,0,5.15,2.31,5.15,5.15c0,2.84-2.31,5.15-5.15,5.15
							C489.85,473.17,487.54,470.85,487.54,468.01z M489.02,468.01c0,2.02,1.65,3.67,3.67,3.67s3.67-1.65,3.67-3.67
							c0-2.02-1.65-3.67-3.67-3.67S489.02,465.99,489.02,468.01z"/>
					</g>
					<g>
						<path class="st1" d="M457.82,488.13c0-2.84,2.31-5.15,5.15-5.15c2.84,0,5.15,2.31,5.15,5.15c0,2.84-2.31,5.15-5.15,5.15
							C460.13,493.29,457.82,490.98,457.82,488.13z M459.3,488.13c0,2.02,1.65,3.67,3.67,3.67s3.67-1.65,3.67-3.67
							c0-2.02-1.65-3.67-3.67-3.67S459.3,486.11,459.3,488.13z"/>
					</g>
					<g>
						<path class="st1" d="M421.97,477.78c0-2.84,2.31-5.15,5.15-5.15c2.84,0,5.15,2.31,5.15,5.15c0,2.84-2.31,5.15-5.15,5.15
							C424.28,482.94,421.97,480.63,421.97,477.78z M423.46,477.78c0,2.02,1.65,3.67,3.67,3.67s3.67-1.65,3.67-3.67
							c0-2.02-1.65-3.67-3.67-3.67S423.46,475.76,423.46,477.78z"/>
					</g>
					<g>
						<path class="st1" d="M420.22,491.72c0-3.59,2.92-6.51,6.51-6.51s6.51,2.92,6.51,6.51c0,3.59-2.92,6.51-6.51,6.51
							S420.22,495.31,420.22,491.72z M421.71,491.72c0,2.77,2.26,5.03,5.03,5.03c2.77,0,5.03-2.26,5.03-5.03
							c0-2.77-2.26-5.03-5.03-5.03C423.96,486.69,421.71,488.94,421.71,491.72z"/>
					</g>
					<g>
						<path class="st1" d="M467.89,477.05c0-4.22,3.44-7.66,7.66-7.66s7.66,3.44,7.66,7.66c0,4.22-3.44,7.66-7.66,7.66
							S467.89,481.28,467.89,477.05z M469.87,477.05c0,3.13,2.55,5.68,5.68,5.68s5.68-2.55,5.68-5.68c0-3.13-2.55-5.68-5.68-5.68
							S469.87,473.92,469.87,477.05z"/>
					</g>
					<g>
						<path class="st1" d="M438.43,479.47c0-4.22,3.44-7.66,7.66-7.66c4.22,0,7.66,3.44,7.66,7.66c0,4.22-3.44,7.66-7.66,7.66
							C441.87,487.13,438.43,483.7,438.43,479.47z M440.41,479.47c0,3.13,2.55,5.68,5.68,5.68c3.13,0,5.68-2.55,5.68-5.68
							s-2.55-5.68-5.68-5.68C442.96,473.79,440.41,476.34,440.41,479.47z"/>
					</g>
				</g>
				<path class="st1" d="M398.06,476.58c-6.38,0-11.55,5.17-11.55,11.55c0,6.38,5.17,11.55,11.55,11.55c0.13,0,0.26-0.02,0.39-0.02
					c-4.67-0.21-8.4-4.05-8.4-8.77c0-4.85,3.94-8.79,8.79-8.79c4.85,0,8.79,3.94,8.79,8.79c0,3-1.51,5.65-3.81,7.24
					c3.46-2,5.79-5.72,5.79-10C409.62,481.75,404.44,476.58,398.06,476.58z"/>
			</g>
		</g>
		<g>
			<polygon class="st2" points="400,234.37 406.21,253.48 426.3,253.48 410.05,265.29 416.26,284.41 400,272.59 383.74,284.41 
				389.95,265.29 373.7,253.48 393.79,253.48 			"/>
			<polygon class="st2" points="339.13,304.21 326.84,299.36 318.43,309.54 319.25,296.36 306.97,291.5 319.76,288.21 
				320.58,275.03 327.66,286.18 340.45,282.88 332.04,293.06 			"/>
			<polygon class="st2" points="288.33,335.95 278.16,330.98 270.29,339.12 271.88,327.91 261.71,322.94 272.86,320.99 
				274.44,309.78 279.75,319.78 290.89,317.82 283.02,325.96 			"/>
			<polygon class="st2" points="460.87,304.21 473.16,299.36 481.57,309.54 480.75,296.36 493.03,291.5 480.24,288.21 
				479.42,275.03 472.34,286.18 459.55,282.88 467.96,293.06 			"/>
			<polygon class="st2" points="511.67,335.95 521.84,330.98 529.71,339.12 528.12,327.91 538.29,322.94 527.14,320.99 
				525.56,309.78 520.25,319.78 509.11,317.82 516.98,325.96 			"/>
		</g>
	</g>
	<g>
		<path class="st2" d="M317.53,541.06c5.83,9.08,27.5,11.55,22.69,26.72c-3.31,10.5-16.44,10.58-25.08,7.5
			c-0.56-0.19-1.18-0.14-1.72,0.14l-1.32,0.7c-1.04,0.56-1.64,0.25-1.8-0.92l-1.56-10.69c-0.07-0.54,0.29-1.04,0.82-1.14l0.78-0.14
			c0.69-0.14,1.37,0.29,1.54,0.98c2,7.66,6.82,10.79,14.49,9.38c3.13-0.57,4.9-2.7,5.31-6.38c0.56-5.11-7.94-8.92-12.11-11.07
			c-20.99-10.75-7.28-29.19,12.21-23.13c1.62,0.5,2.57,0.24,4.13-0.08c0.7-0.15,1.11,0.14,1.22,0.86l1.34,9.1
			c0.13,0.85-0.23,1.33-1.08,1.44c-0.51,0.08-0.98-0.04-1.44-0.36c-0.35-0.24-0.64-0.68-0.88-1.32c-2.17-5.79-6.44-8.34-12.81-7.66
			c-2.86,0.32-4.54,1.76-5.05,4.31C317.08,539.92,317.18,540.51,317.53,541.06z"/>
		<path class="st2" d="M375.67,559.43c-0.28-0.33-0.76-0.38-1.08-0.11c-0.02,0.02-0.04,0.03-0.06,0.05l-10.32,10.34
			c-1.81,1.82-1.46,2.97,1.06,3.45l2.47,0.5c0.59,0.11,0.9,0.46,0.96,1.06c0.12,1.46-0.3,2.15-1.26,2.08
			c-5.72-0.52-11.31-0.56-16.76-0.12c-1.04,0.09-1.56-0.39-1.56-1.44v-0.62c0-0.37,0.26-0.69,0.62-0.78
			c8.68-1.7,15.38-10.2,21.83-17.6c0.41-0.48,0.43-0.97,0.04-1.48c-6.72-8.94-13.29-19.21-20.79-19.21
			c-0.53-0.01-0.82-0.27-0.88-0.78l-0.1-0.86c-0.06-0.56,0.35-1.06,0.91-1.11c0.03,0,0.07-0.01,0.1,0l24.68-0.12
			c0.82-0.01,1.23,0.4,1.22,1.24l-0.02,0.68c-0.01,0.76-0.4,1.14-1.16,1.16l-3.53,0.02c-0.83,0-1.49,0.67-1.49,1.5
			c0,0.33,0.11,0.65,0.31,0.91l7.5,9.7c0.39,0.5,1.11,0.6,1.61,0.22c0.06-0.05,0.12-0.1,0.17-0.16l8.54-9.78
			c0.64-0.73,0.55-1.34-0.28-1.84c-1.14-0.68-2.37-0.87-3.69-0.58c-0.58,0.13-1.16-0.22-1.29-0.79c-0.02-0.08-0.03-0.16-0.03-0.25
			v-0.7c0-0.85,0.43-1.28,1.28-1.28l17.16-0.02c0.72,0,1.04,0.36,0.98,1.08c-0.01,0.2-0.03,0.4-0.06,0.6
			c-0.04,0.42-0.33,0.77-0.74,0.88c-7.86,2.1-12.41,7.28-19.37,15.88c-0.39,0.48-0.39,0.96-0.02,1.46
			c5.21,6.78,12.93,19.67,21.63,21.27c0.5,0.09,0.83,0.56,0.75,1.06c-0.01,0.04-0.02,0.08-0.03,0.12l-0.16,0.52
			c-0.19,0.63-0.61,0.94-1.28,0.94l-22.73-0.02c-0.35,0-0.66-0.23-0.76-0.56l-0.16-0.66c-0.18-0.66,0.22-1.34,0.89-1.52
			c0.02,0,0.03-0.01,0.05-0.01l3.31-0.72c0.76-0.18,1.24-0.94,1.06-1.7c-0.05-0.21-0.15-0.41-0.28-0.57L375.67,559.43z"/>
		<path class="st2" d="M415.86,585.93c0.36-0.74,0.55-1.71,0.58-2.89c0.32-14.71,0.45-29.48,0.4-44.3c0-0.67-0.31-1.31-0.84-1.74
			c-1.26-0.98-2.72-1.46-4.37-1.44c-0.64,0.02-1.17-0.47-1.2-1.1c0-0.01,0-0.03,0-0.04l-0.02-0.64c-0.01-0.59,0.47-1.09,1.08-1.1
			c0.01,0,0.01,0,0.02,0l20.35,0.06c0.63,0,0.94,0.31,0.96,0.92l0.02,0.66c0.02,0.65-0.5,1.19-1.16,1.22c-0.01,0-0.01,0-0.02,0
			c-3.37,0.04-5.03,1.78-4.99,5.21c0.21,17.56,0.21,28.75-0.02,33.58c-0.54,11.17-11.59,21.21-23.34,15.98
			c-1.3-0.58-1.88-2.1-1.3-3.4c0.09-0.21,0.22-0.41,0.37-0.59l1.82-2.17c1.1-1.31,3.04-1.49,4.34-0.4c0.03,0.02,0.06,0.05,0.09,0.08
			l3.25,2.91c1.04,0.93,2.64,0.85,3.58-0.19C415.61,586.37,415.75,586.16,415.86,585.93z"/>
		<path class="st2" d="M468.89,553.21c0.28,0.38,0.82,0.46,1.2,0.18c0.09-0.06,0.16-0.14,0.22-0.24l9.06-14.45
			c0.48-0.75,0.25-1.75-0.5-2.23c-0.15-0.09-0.31-0.16-0.48-0.2l-3.27-0.82c-0.61-0.15-0.9-0.53-0.88-1.16l0.04-0.62
			c0.01-0.6,0.32-0.9,0.92-0.9l14.98-0.06c0.7,0,1.06,0.35,1.06,1.04l0.02,0.7c0,0.73-0.36,1.14-1.08,1.24
			c-2.39,0.28-4.41,0.94-5.87,3.15c-3.76,5.68-7.47,11.39-11.11,17.14c-2.45,3.91-2.02,7.8-2.15,12.21
			c-0.11,3.83,1.84,5.53,5.83,5.09c1.2-0.13,1.77,0.4,1.72,1.6l-0.02,0.54c-0.01,0.73-0.39,1.1-1.12,1.1l-22.11-0.02
			c-0.51,0-0.94-0.36-1.02-0.84l-0.12-0.6c-0.15-0.82,0.19-1.3,1.02-1.42l3.53-0.5c1.37-0.2,2.44-1.29,2.61-2.65
			c0.9-6.86,1-10.71-3.49-16.46c-4.08-5.24-8.06-10.54-11.93-15.88c-1.37-1.89-3.27-2.75-5.69-2.57c-0.67,0.04-0.99-0.27-0.98-0.94
			v-0.74c0.01-0.74,0.39-1.12,1.12-1.12l20.91-0.08c0.82,0,1.28,0.41,1.38,1.22l0.04,0.52c0.04,0.37-0.19,0.71-0.54,0.8l-3.39,0.86
			c-0.81,0.21-1.3,1.04-1.09,1.84c0.05,0.19,0.13,0.36,0.25,0.52L468.89,553.21z"/>
	</g>
</g>
</svg>
