<?xml version="1.0" encoding="utf-8"?>
<!-- Created by @FCLOGO 2022-06-04 00:10:12 . https://fclogo.top/ -->
<!-- FOR PERSONAL USE ONLY NOT FOR COMMERCIAL USE -->
<svg version="1.1" xmlns="http://www.w3.org/2000/svg" xmlns:xlink="http://www.w3.org/1999/xlink" x="0px" y="0px"
	 viewBox="0 0 800 800" enable-background="new 0 0 800 800" xml:space="preserve">
<g>
	<g>
		<path fill="#007BC7" d="M135.64,264.35c0.65,0,1.25,0.03,1.73,0.12l8.48,1.56l2.42,8.28l21.5,73.72l4.44,15.21l-13.67,3.28
			l-70.28,11.89l-22.55,3.85c0,0,10.66-56.99,11.36-68.77c-9.66-13.78-11.59-17.23-11.71-17.43L56.6,279.72
			c0,0,41.17-12.33,73.34-14.86C129.94,264.86,133.16,264.35,135.64,264.35 M135.64,260.16c-2.46,0-5.44,0.42-6.18,0.53
			c-32.22,2.57-72.37,14.5-74.06,15.01l-5.4,1.62l3.1,4.71L63.8,298.3c1.05,1.77,3.81,6.12,10.96,16.36
			c-1.32,13.99-11.08,66.28-11.19,66.82l-1.11,5.92l5.94-1.01l22.55-3.85l70.28-11.89l0.14-0.02l0.14-0.03l13.67-3.28l4.28-1.03
			l-1.23-4.23l-4.44-15.21l-21.5-73.72l-2.42-8.28l-0.72-2.48l-2.54-0.47l-8.48-1.56C137.43,260.22,136.61,260.16,135.64,260.16
			L135.64,260.16z"/>
		<path fill="#FFFFFF" d="M129.94,264.86c-32.17,2.54-73.34,14.86-73.34,14.86l10.75,16.35c0.12,0.19,2.05,3.64,11.71,17.43
			c-0.7,11.77-11.36,68.77-11.36,68.77l22.55-3.85l70.28-11.89l13.67-3.28l-4.44-15.21l-21.5-73.72l-2.42-8.28l-8.48-1.56
			C135.08,264.05,129.94,264.86,129.94,264.86z"/>
		<path fill="#007BC7" d="M79.42,288.37c0,0,40.21-12.94,55.42-10.14l21.5,73.72c-36.47,5.87-70.28,11.31-70.28,11.31
			s8.04-42.51,8.57-52.86C82.57,293.27,79.42,288.37,79.42,288.37z"/>
	</g>
	<g>
		<path fill="#007BC7" d="M664.36,264.35c2.48,0,5.7,0.5,5.7,0.5c32.17,2.54,73.34,14.86,73.34,14.86l-10.75,16.35
			c-0.12,0.19-2.05,3.64-11.71,17.43c0.7,11.77,11.36,68.77,11.36,68.77l-22.55-3.85l-70.28-11.89l-13.67-3.28l4.44-15.21
			l21.5-73.72l2.42-8.28l8.48-1.56C663.11,264.39,663.71,264.35,664.36,264.35 M664.36,260.16c-0.97,0-1.79,0.06-2.49,0.19
			l-8.48,1.56l-2.55,0.47l-0.72,2.48l-2.41,8.28l-21.5,73.72l-4.44,15.21l-1.23,4.23l4.28,1.03l13.67,3.28l0.14,0.03l0.14,0.02
			l70.28,11.89l22.55,3.85l5.94,1.01l-1.11-5.92c-0.1-0.55-9.87-52.83-11.19-66.82c7.15-10.24,9.91-14.6,10.97-16.36l10.71-16.28
			l3.1-4.71l-5.4-1.62c-1.7-0.51-41.85-12.45-74.06-15.01C669.8,260.58,666.82,260.16,664.36,260.16L664.36,260.16z"/>
		<path fill="#FFFFFF" d="M662.63,264.48l-8.48,1.56l-2.42,8.28l-21.5,73.72l-4.44,15.21l13.67,3.28l70.28,11.89l22.55,3.85
			c0,0-10.66-56.99-11.36-68.77c9.66-13.78,11.59-17.23,11.71-17.43l10.75-16.35c0,0-41.17-12.33-73.34-14.86
			C670.05,264.86,664.92,264.05,662.63,264.48z"/>
		<path fill="#007BC7" d="M720.58,288.37c0,0-40.21-12.94-55.42-10.14l-21.5,73.72c36.48,5.87,70.28,11.31,70.28,11.31
			s-8.04-42.51-8.57-52.86C717.43,293.27,720.58,288.37,720.58,288.37z"/>
	</g>
	<g>
		<path fill="#007BC7" d="M400.06,107.42l242.55,75.64c0,0,2.21,179.84,2.56,216.67s-3.38,77.39-21.8,114.92
			s-54.31,81.82-223.4,177.48C204.25,579.46,192.36,541.35,178.02,517.4c-14.34-23.95-24.33-77.37-23.43-122.91
			c0.9-45.54,4.2-211.37,4.2-211.37L400.06,107.42 M400.05,103.03l-1.25,0.39l-241.27,75.7l-2.88,0.9l-0.06,3.02l-4.2,211.37
			c-0.93,46.91,9.4,100.71,24.02,125.14c0.97,1.61,1.93,3.31,2.95,5.1c13.95,24.56,37.31,65.66,220.5,171.12l2.08,1.2l2.08-1.18
			c77.68-43.95,132.91-80.26,168.87-111c34.52-29.52,47.8-51.08,56.24-68.28c20.52-41.81,22.51-86.69,22.22-116.81
			c-0.35-36.42-2.54-214.89-2.56-216.69l-0.04-3.05l-2.91-0.91l-242.55-75.64L400.05,103.03L400.05,103.03z"/>
		<path fill="#FFFFFF" d="M400.06,107.42l242.55,75.64c0,0,2.21,179.84,2.56,216.67s-3.38,77.39-21.8,114.92
			s-54.31,81.82-223.4,177.48C204.25,579.46,192.36,541.35,178.02,517.4c-14.34-23.95-24.33-77.37-23.43-122.91
			c0.9-45.54,4.2-211.37,4.2-211.37L400.06,107.42z"/>
		<g>
			<g>
				<path fill="#007BC7" d="M403.03,178.87l0,4.2L403.03,178.87c52.17,0,105,2.78,105.53,2.81l3.97,0.21v3.98v36.44
					c15.12,1.17,69.63,5.6,113.91,11.71c-0.19-15.92-0.36-29.47-0.47-38.55l-223.6-69.73v53.14L403.03,178.87z"/>
				<path fill="#007BC7" d="M172.25,350.69l-0.88,44.14c-0.83,42.05,8.61,93.17,21.05,113.95c1.09,1.82,2.11,3.61,3.19,5.51
					c6.55,11.52,14.69,25.86,42.75,50.2c33.08,28.7,86.72,64.69,159.51,107.04V335.77C291.99,336.65,207.89,346.02,172.25,350.69z"
					/>
				<path fill="#6EB92B" d="M627.84,350.29c-35.26-5.02-115.63-14.58-216.29-14.58c-3.04,0-6.1,0.02-9.18,0.03v335.72
					c160.56-91.85,190.58-132.91,205.93-164.19c18.55-37.81,20.34-79.39,20.08-107.37C628.3,390.71,628.1,372.46,627.84,350.29z"/>
				<path fill="#6EB92B" d="M285.98,222.62v-32.68v-3.72l3.69-0.45c0.56-0.07,55.48-6.62,108.2-6.9V125.7l-222.54,69.83l-0.78,39.23
					C218.72,228.54,271.27,223.88,285.98,222.62z"/>
			</g>
		</g>
	</g>
	<g>
		<path fill="#FFFFFF" d="M367.07,431.79c0,0,0.17-16.85-8.04-25.64c-18.24-19.52-36.69-18.82-47.52-21.8
			c-10.84-2.97-14.95-13.87-41.17-15.39c-11.55-0.67-18.05,3.38-18.09,5.33c-0.09,3.64,18.44,4.28,18.53,18.27
			c0.04,6.23-43.8,12.24-43.8,68.71c0,39.51,24.3,61.89,24.3,61.89s-1.22,26.75,13.55,41.7c0.96-11.28,12.41-21.94,12.68-30.68
			c0.2-6.7-3.32-12.06-3.32-12.06s14.69-4.02,16.78-12.59c2.1-8.57,10.14-16.43,10.14-16.43c-29.49-0.58-27.39,7.81-45.28,15.39
			c0,0-10.2-6.06-10.14-20.11c0.06-14.05,11.83-29.54,33.22-39.6c0.99,11.45-2.74,11.16-0.52,17.16c0.85,2.31,6.83-1.16,7.58-1.51
			c0.75-0.35,7.02-2.62,17.75-18.77c2.45,0.61-2.41,14.32,3.26,14.92c6.64,0.7,11.98-15.12,12.76-18.71
			c26.25-2.39,44.46,13.81,51.92,15.12c2.97,0.52,10.84-4.37,10.84-7.95C382.49,445.46,367.07,431.79,367.07,431.79z M350.46,423.05
			c-2.35,0-4.25-1.91-4.25-4.25c0-2.35,1.9-4.25,4.25-4.25s4.25,1.91,4.25,4.25C354.72,421.14,352.81,423.05,350.46,423.05z"/>
		<path fill="#FFFFFF" d="M573.4,461.28c0-56.47-43.83-62.48-43.8-68.71c0.09-13.99,18.62-14.63,18.53-18.27
			c-0.05-1.95-6.54-6-18.09-5.33c-26.22,1.52-30.33,12.41-41.17,15.39c-10.84,2.97-29.28,2.27-47.52,21.8
			c-8.21,8.79-8.04,25.64-8.04,25.64s-15.41,13.67-15.41,17.25c0,3.58,7.87,8.48,10.84,7.95c7.46-1.32,25.67-17.51,51.92-15.12
			c0.79,3.58,6.12,19.41,12.76,18.71c5.67-0.6,0.82-14.31,3.26-14.92c10.72,16.14,17,18.42,17.75,18.77
			c0.75,0.35,6.72,3.83,7.58,1.51c2.21-6-1.52-5.71-0.52-17.16c21.39,10.05,33.16,25.55,33.22,39.6
			c0.06,14.05-10.14,20.11-10.14,20.11c-17.89-7.58-15.79-15.97-45.28-15.39c0,0,8.04,7.87,10.14,16.43
			c2.1,8.57,16.78,12.59,16.78,12.59s-3.52,5.36-3.32,12.06c0.26,8.74,11.71,19.41,12.68,30.68c14.77-14.95,13.55-41.7,13.55-41.7
			S573.4,500.79,573.4,461.28z M449.91,422.95c-2.3,0-4.16-1.86-4.16-4.16c0-2.3,1.86-4.16,4.16-4.16c2.3,0,4.16,1.86,4.16,4.16
			C454.07,421.09,452.21,422.95,449.91,422.95z"/>
	</g>
	<g>
		<path fill="#FFFFFF" d="M130.94,246.59c47.44-10.96,159.24-20.11,159.24-20.11v-36.54c0,0,56-6.76,109.69-6.88
			c53.69-0.12,108.47,2.8,108.47,2.8v40.33c0,0,127.16,9.44,166.44,21.1l-7.23,93.24l-19.58,8.63c0,0-104.23-18.65-248.1-17.6
			s-246.79,17.6-246.79,17.6l-15.27-8.22L130.94,246.59z"/>
		<path fill="#007BC7" d="M403.03,183.06c52.66,0,105.31,2.8,105.31,2.8v40.33c0,0,127.16,9.44,166.44,21.1l-7.23,93.24l-19.58,8.63
			c0,0-98.62-17.64-236.39-17.64c-3.88,0-7.77,0.01-11.72,0.04c-143.87,1.05-246.79,17.6-246.79,17.6l-15.27-8.22l-6.88-94.35
			c47.44-10.96,159.24-20.11,159.24-20.11v-36.54c0,0,56-6.76,109.69-6.88C400.92,183.06,401.98,183.06,403.03,183.06
			 M403.04,178.87v4.2V178.87l-3.18,0c-53.32,0.12-109.62,6.84-110.18,6.91l-3.69,0.45v3.72v32.68
			c-20.37,1.73-113.2,9.99-155.99,19.88l-3.5,0.81l0.26,3.58l6.88,94.35l0.17,2.3l2.03,1.09l15.27,8.22l1.25,0.67l1.4-0.23
			c1.03-0.17,104.29-16.51,246.15-17.55c3.92-0.03,7.79-0.04,11.65-0.04c135.8,0,234.69,17.4,235.68,17.58l1.26,0.23l1.17-0.52
			l19.58-8.63l2.3-1.01l0.19-2.5l7.23-93.24l0.26-3.38l-3.25-0.97c-35.85-10.64-141.41-19.25-163.44-20.96v-36.44v-3.98l-3.97-0.21
			C508.03,181.65,455.2,178.87,403.04,178.87L403.04,178.87z"/>
		<path fill="#007BC7" d="M142.71,254.75c0,0,134.57-21.34,257.16-21.45c123.8-0.11,262.26,20.98,262.26,20.98l-7.05,85.32
			c0,0-121.13-19.58-255.21-19.58S150.34,339.6,150.34,339.6L142.71,254.75z"/>
	</g>
	<path fill="#FFFFFF" d="M456.28,552.19c0,30.94-25.08,56.02-56.02,56.02c-30.94,0-56.02-25.08-56.02-56.02
		c0-30.94,25.08-56.02,56.02-56.02C431.19,496.17,456.28,521.25,456.28,552.19z"/>
	<g>
		
			<ellipse transform="matrix(1 -5.086683e-03 5.086683e-03 1 -2.8036 2.0431)" fill="#FFFFFF" cx="400.25" cy="552.19" rx="49.29" ry="49.29"/>
		<path fill="#007BC7" d="M400.25,504.3c26.41,0,47.89,21.48,47.89,47.89s-21.48,47.89-47.89,47.89
			c-26.41,0-47.89-21.48-47.89-47.89S373.85,504.3,400.25,504.3 M400.25,502.9c-27.22,0-49.29,22.07-49.29,49.29
			c0,27.22,22.07,49.29,49.29,49.29c27.22,0,49.29-22.07,49.29-49.29C449.55,524.97,427.48,502.9,400.25,502.9L400.25,502.9z"/>
	</g>
	<path fill="#007BC7" d="M440.81,556.71l-6.6-23.97l8.4-5.75c-5.8-9.73-14.86-17.3-25.68-21.19l-4.02,8.54l-24.71-1.98l-2.49-7.27
		c-10.82,3.34-20.04,10.29-26.26,19.46l3.86,3.31l-8.72,23.08l-3.59,0.25c-0.01,0.33-0.03,0.67-0.03,1c0,9.84,2.9,19,7.86,26.7
		l1.85-1.78l20.49,17.78l-1.39,2.15c6.24,2.85,13.17,4.46,20.48,4.46c3.19,0,6.3-0.31,9.32-0.89l-0.93-4.05l20.92-12.76l5.16,3.63
		c7.92-7.75,13.23-18.14,14.51-29.75L440.81,556.71z M387.9,513.59l24.48,2.21l6.69,11.88l-7.67,9.08l-25.37-1.32l-7.32-10.29
		L387.9,513.59z M355.85,551.53l8.84-23.38l12.85-2.24l7.44,10.45l-9.51,22.8l-11.87,3.24L355.85,551.53z M393.7,589.01l-11.33,5.06
		l-21.05-18.27l2.57-12.03l11.89-3.25l19.02,15.03L393.7,589.01z M428.96,582.51l-21.1,12.86l-12.77-6.38l1.08-13.12l20.94-12.61
		l12.85,5.77L428.96,582.51z M430.62,567.78l-12.91-5.79l-5.24-24.34l7.8-9.24l12.5,4.42l6.72,24.41L430.62,567.78z"/>
	<g>
		<path fill="#FFFFFF" d="M161.69,277.07l-0.5-3.43l17.36-2.55l0.5,3.43l-5.96,0.88l0.48,3.25l5.26-0.77l0.48,3.25l-5.26,0.77
			l0.5,3.43l6.14-0.9l0.32,2.16l2.81-0.41l-0.32-2.16l5.96-0.88l-0.5-3.43l-5.09,0.75l-0.48-3.25l5.09-0.75l-0.48-3.25l-5.96,0.88
			l-0.5-3.43l17.54-2.58l0.5,3.43l-7.37,1.08l0.48,3.25l6.49-0.95l0.48,3.25l-6.49,0.95l0.5,3.43l7.89-1.16l0.53,3.61l-15.96,2.34
			c5.21,2.92,11.47,4.52,18.8,4.79c-0.45,1.79-0.83,3.32-1.12,4.59c-8.27-1-15.25-3.35-20.92-7.06
			c-4.29,4.93-10.27,9.37-17.93,13.32c-0.31-0.45-0.7-1.12-1.2-2.04c-0.61-0.89-1.07-1.56-1.37-2.01
			c6.77-2.71,12.28-6.23,16.55-10.54l-15.96,2.34l-0.53-3.61l7.89-1.16l-0.5-3.43l-6.31,0.93l-0.48-3.25l6.31-0.93l-0.48-3.25
			L161.69,277.07z M187.45,312.17c-0.25-0.09-0.63-0.22-1.13-0.39c-0.76-0.26-2.07-0.68-3.95-1.26l9.46-8.76l-21.4,3.14l-0.56-3.79
			l14.03-2.06c-1.15-1.31-2.54-2.64-4.17-3.99l3.22-2.5c1.63,1.36,3.15,2.73,4.55,4.12l-3.07,2.29l13.33-1.96l0.61,4.15
			L187.45,312.17z"/>
		<path fill="#FFFFFF" d="M215.36,286.26c-1.26-1-3-2.33-5.25-3.99c-0.76-0.67-1.39-1.18-1.88-1.5l2.62-3.61
			c2.36,1.65,4.72,3.36,7.09,5.12L215.36,286.26z M216.04,308.24l-4.61-0.88c0.87-4.31,1.67-9.99,2.4-17.04
			c0.97,0.41,2.39,0.77,4.28,1.09C217.42,296.47,216.73,302.07,216.04,308.24z M215.61,274.09c-2.89-2.34-5.32-4.17-7.3-5.48
			l2.62-3.61c1.35,0.87,3.21,2.13,5.57,3.77c0.86,0.54,1.48,0.98,1.86,1.32L215.61,274.09z M220.28,297.94l-0.35-3.7l13.11-1.23
			c0.07-0.5,0.04-1.43-0.09-2.79l4.48-0.42l0.09,2.79l13.62-1.28l0.35,3.7l-12.76,1.2c1.77,2.82,6.27,4.39,13.49,4.71
			c-0.19,0.51-0.46,1.29-0.83,2.32c-0.39,0.78-0.63,1.37-0.71,1.75c-7.5-0.79-12.39-2.82-14.66-6.09c-1.5,3.75-6.14,6.8-13.92,9.16
			c-0.27-0.35-0.73-0.99-1.4-1.92c-0.42-0.71-0.76-1.24-1.02-1.59c8.02-2.25,12.3-4.83,12.84-7.75L220.28,297.94z M221.45,291.85
			l-2.26-24.07l8.62-0.81c0.21-1.51,0.42-2.96,0.63-4.36l4.86-0.08l-0.84,4l14.49-1.36l2.27,24.07l-4.14,0.39l-1.92-20.37
			l-19.49,1.83l1.92,20.37L221.45,291.85z M226.1,282.07l-0.31-3.33l6.55-0.62l-0.63-6.67l3.62-0.34l0.63,6.67l6.55-0.62l0.31,3.33
			l-6.55,0.62l0.26,2.78l1.21-1.98c2.67,1.24,4.85,2.28,6.56,3.12l-1.64,2.96c-1.23-0.75-2.88-1.66-4.95-2.71
			c-0.48-0.2-0.85-0.36-1.09-0.46l0.37,3.89l-3.62,0.34l-0.42-4.44c-1.45,1.88-3.24,3.73-5.39,5.55c-0.77-0.8-1.55-1.72-2.35-2.77
			c2.41-1.47,4.55-3.42,6.41-5.83L226.1,282.07z M228.82,277.71c-1.04-1.15-2.3-2.27-3.8-3.38l2.24-2.08
			c0.25,0.23,0.69,0.62,1.33,1.18c1,0.78,1.76,1.45,2.28,2.03L228.82,277.71z M238.99,276.75l-2.26-1.84
			c1.03-1.34,2.01-2.68,2.93-4.01l2.61,1.81c-0.31,0.4-0.83,1.08-1.55,2.01C239.98,275.54,239.4,276.22,238.99,276.75z"/>
		<path fill="#FFFFFF" d="M277.52,303.42l-4.95,0.41c-5.7-6.15-8.96-13.6-9.79-22.35c-0.44-9.15,1.54-17.22,5.95-24.2l4.8-0.39
			c-4.36,7.59-6.29,15.65-5.79,24.18C268.45,289.71,271.71,297.16,277.52,303.42z"/>
		<path fill="#FFFFFF" d="M287.48,264.91l-0.22-4.53l13.92-0.67l0.22,4.53l-4.58,0.22l0.49,10.19l4.23-0.2l0.22,4.53l-4.23,0.2
			l0.52,10.75l4.51-1.73c0.07,1.39,0.2,2.83,0.39,4.33c4.31-3.48,7.59-7.55,9.83-12.2l-9.69,0.47l-0.21-4.34l10.93-0.53l-0.34-7.17
			l-5.46,0.26c-0.1,0.38-0.25,0.96-0.45,1.72c-0.28,1.52-0.58,2.67-0.89,3.45c-1.32-0.44-2.69-0.82-4.12-1.13
			c1.54-4.74,2.49-9.45,2.85-14.13l4.25,0.17c-0.09,0.64-0.22,1.52-0.4,2.67c-0.18,1.27-0.31,2.22-0.39,2.85l4.4-0.21l-0.43-8.87
			l4.41-0.21l0.43,8.87l9.87-0.48l0.21,4.34l-9.87,0.48l0.34,7.17l11.28-0.55l0.21,4.34l-10.22,0.49c3.19,5.14,7.21,9.11,12.05,11.9
			c-0.11,0.26-0.32,0.71-0.64,1.35c-0.45,0.53-0.99,1.5-1.63,2.92c-4.62-3.05-8.15-6.67-10.59-10.84l0.73,15.09l-4.41,0.21
			l-0.73-15.1c-2.48,4.79-5.93,8.86-10.36,12.23c-0.26-0.49-0.83-1.22-1.7-2.19c-0.62-0.6-1.05-1.08-1.31-1.45l0.68-0.6
			c-1.16,0.43-3.01,1.15-5.55,2.16c-2.78,0.89-4.93,1.62-6.43,2.2l-1.28-4.67c0.93-0.3,2.32-0.74,4.18-1.34
			c0.58-0.15,0.98-0.3,1.21-0.44l-0.58-12.07l-4.4,0.21l-0.22-4.53l4.41-0.21l-0.49-10.19L287.48,264.91z"/>
		<path fill="#FFFFFF" d="M341.82,276.76c-2.05-1.96-4.32-3.91-6.84-5.86l2.93-3.44c2.51,1.82,4.85,3.65,7.01,5.48L341.82,276.76z
			 M340.88,299.1l-4.62-1.22c1.52-6.03,2.76-11.62,3.71-16.77c1.43,0.6,2.97,1.06,4.62,1.4
			C342.87,290.05,341.63,295.58,340.88,299.1z M342.8,264.36c-0.48-0.37-1.2-0.97-2.16-1.83c-0.84-0.85-2.4-2.2-4.68-4.03l2.93-3.62
			c1.32,1.1,3.66,2.99,7.01,5.67L342.8,264.36z M347.7,270.45c-0.12-0.12-0.24-0.31-0.37-0.56c-0.72-0.86-1.63-1.84-2.71-2.94
			c3.57-3.7,6.31-8.07,8.21-13.11l4.96,0.46c-0.68,1.26-1.25,2.46-1.69,3.6l20.67-0.43l0.09,4.12l-22.96,0.48
			c-0.23,0.38-0.63,0.95-1.2,1.71c-0.45,0.89-0.85,1.52-1.2,1.9l22.79-0.48c0.01,0.5,0.03,1.63,0.07,3.37
			c-0.05,3.25-0.05,5.88-0.01,7.88l3.71-0.08l0.09,4.12l-3.89,0.08l-0.03,7.13l3.18-0.07l0.09,4.12l-3.36,0.07
			c-0.03,4.25-2.34,6.42-6.93,6.52l-6.71,0.14c-0.38-1.24-0.76-2.55-1.14-3.91c0.59-0.01,1.59-0.03,3-0.06
			c1.42,0.09,2.54,0.14,3.36,0.12c2.48,0.07,3.81-0.83,4.01-2.71l-21.9,0.46l1-11.27l-3.71,0.08l-0.09-4.12l4.24-0.09l0.69-9.2
			C349.25,268.54,348.5,269.43,347.7,270.45z M369.8,287.8c0.09-1.38,0.1-3.75,0.03-7.13l-16.6,0.35l-0.73,7.14l10.42-0.22
			c-0.6-0.48-1.5-1.15-2.69-2.01c-1.08-0.85-1.92-1.52-2.52-2.01l2.42-2.68c0.36,0.24,0.96,0.67,1.8,1.28
			c1.43,0.97,2.63,1.82,3.59,2.55l-2.41,2.86L369.8,287.8z M354.22,269.75l-0.73,7.14l16.43-0.34c-0.08-3.75-0.07-6.12,0.03-7.13
			L354.22,269.75z M363.2,276.5c-1.68-1.47-3.42-2.8-5.21-4.02l2.42-2.68c0.84,0.61,1.97,1.4,3.41,2.37c0.72,0.61,1.32,1.1,1.8,1.46
			L363.2,276.5z"/>
		<path fill="#FFFFFF" d="M391.62,300.4l-4.95-0.09c5.44-6.44,8.25-14.17,8.42-23.18c-0.05-8.65-2.55-16.66-7.52-24.04l5.11,0.1
			c4.87,6.64,7.38,14.65,7.52,24.04C399.93,286.11,397.07,293.83,391.62,300.4z"/>
		<path fill="#FFFFFF" d="M414.82,273.1l0.27-17.25l33.07,0.52l-0.27,17.25l-13.8-0.22l-0.11,7.12l15.74,0.25l-0.07,4.5l-15.74-0.25
			l-0.13,7.87c3.3,0.18,9.37,0.33,18.22,0.48c-0.61,1.24-1.1,2.67-1.48,4.29c-9.08-0.14-15.27-0.31-18.57-0.48
			c-6.6-0.23-11.16-2.55-13.69-6.97c-1.1,2.48-3.09,5.39-5.98,8.72c-1.16-1.52-2.26-2.85-3.3-3.99c4.54-4.05,7.06-10.14,7.54-18.26
			l4.59,0.82c-0.28,2.62-0.61,4.93-1,6.92c1.93,4.66,4.84,7.33,8.72,8.01l0.3-19.12L414.82,273.1z M419.98,260.25l-0.13,8.44
			l23.17,0.37l0.13-8.44L419.98,260.25z"/>
		<path fill="#FFFFFF" d="M458.14,263.66l0.18-4.51l13.96,0.56l-0.18,4.51l-4.6-0.18l-0.42,10.51l4.06,0.16l-0.18,4.51l-4.07-0.16
			l-0.45,11.45c0.12,0,0.23,0.01,0.35,0.01c2.01-0.17,3.49-0.36,4.44-0.58c-0.07,1.63-0.13,3.26-0.19,4.88
			c-3.9,0.22-8.59,0.79-14.05,1.7l-0.51-4.91l5.51-0.53l0.49-12.2l-4.6-0.19l0.18-4.51l4.6,0.19l0.42-10.51L458.14,263.66z
			 M497,296.8c-4.65-4.82-7.87-10.03-9.64-15.62l-0.53,13.14c0.07,4.01-1.95,5.94-6.07,5.78c-1.3,0.07-2.95,0.07-4.95-0.01
			c-0.17-1.76-0.4-3.34-0.7-4.73c0.47,0.02,1.23,0.11,2.29,0.28c0.94,0.04,1.59,0.06,1.94,0.08c2.11,0.21,3.16-0.75,3.13-2.88
			l0.26-6.57c-0.98,0.71-2.49,1.72-4.54,3.02c-2.3,1.54-4,2.73-5.1,3.56l-1.76-4.77c4.95-2.81,8.82-5.1,11.6-6.87l0.5-12.39
			L473,268.38l0.17-4.32l10.43,0.42l0.32-8.07l4.42,0.17l-0.32,8.07l6.71,0.27c-0.45-0.52-1.18-1.36-2.2-2.53
			c-1.14-1.17-1.98-2.08-2.55-2.73l3.09-2.13c0.46,0.39,1.08,1.05,1.87,1.95c1.35,1.43,2.32,2.41,2.89,2.94l-3.11,2.51l5.3,0.21
			l-0.17,4.32l-12.02-0.48l-0.04,1.13c0.1,0.25,0.21,0.57,0.31,0.95c0.68,3.54,1.41,6.07,2.18,7.61c2.1-2.29,4.08-4.54,5.93-6.72
			l3.42,3.15c-3.32,3.38-5.9,5.85-7.73,7.4c1.86,3.59,4.44,6.95,7.74,10.09c-0.25,0.37-0.69,1.1-1.32,2.21
			C497.69,295.76,497.25,296.43,497,296.8z M477.07,281.52c-1.42-2.94-2.9-5.75-4.44-8.45l3.79-1.92c1.54,2.7,3.03,5.45,4.45,8.26
			L477.07,281.52z"/>
		<path fill="#FFFFFF" d="M508.4,303.36l1.33-24.42c-1.29,2.1-2.81,4.25-4.58,6.45c0-2.17-0.23-4.35-0.7-6.54
			c4.08-6.02,7.33-12.93,9.75-20.71l4.49,1.59c-1.24,3.38-2.6,6.68-4.06,9.92l-1.86,33.96L508.4,303.36z M515.11,293.39l0.22-4.01
			l3.69,0.2l1.58-29l24.04,1.32l-1.59,29l3.69,0.2l-0.22,4.01L515.11,293.39z M516.98,304.21l-2.06-4.13
			c3.83-1.32,7.51-3.23,11.05-5.71l2.44,3.58c-0.61,0.35-1.45,0.75-2.53,1.2C522.24,301.5,519.27,303.19,516.98,304.21z
			 M524.78,264.65l-0.21,3.81l15.09,0.83l0.21-3.81L524.78,264.65z M524.39,271.71l-0.21,3.82l15.09,0.82l0.21-3.81L524.39,271.71z
			 M524,278.96l-0.21,3.81l15.09,0.82l0.21-3.81L524,278.96z M523.61,286.01l-0.21,3.82l15.09,0.82l0.21-3.82L523.61,286.01z
			 M543.32,305.46c-4.39-3.43-7.9-5.85-10.52-7.27l2.47-3.31c1.36,0.84,3.23,2.09,5.6,3.75c2.16,1.27,3.81,2.25,4.94,2.95
			L543.32,305.46z"/>
		<path fill="#FFFFFF" d="M554.67,304.87c-1.18-1.36-2.38-2.47-3.59-3.32c3.53-3.26,7.12-7.28,10.78-12.05l3.97,2.97
			C561.67,297.71,557.95,301.85,554.67,304.87z M555.23,286.89l3.96-21.13c9.87,0.79,20.54,1.07,32.01,0.84l1.19,4.84
			c-11.81,0.08-21.55-0.13-29.22-0.62L561,282.6l11.15,0.89l0.73-9.24l4.87,0.39l-0.73,9.24l15.85,1.26l-0.38,4.71l-15.85-1.26
			l-1.02,12.82c-0.14,4.67-2.29,6.77-6.46,6.32c-1.17,0.03-3.21-0.06-6.11-0.3c-0.04-0.89-0.26-2.55-0.65-4.99
			c1.97,0.16,3.77,0.3,5.4,0.43c1.97,0.16,2.99-0.84,3.04-2.99l0.93-11.69L555.23,286.89z M589.18,307.43
			c-0.73-1.07-1.88-2.81-3.44-5.21c-2.5-3.87-4.32-6.67-5.47-8.41l3.87-2.35c1.26,1.75,3.1,4.42,5.5,8.03
			c1.78,2.55,3.04,4.35,3.78,5.42L589.18,307.43z"/>
		<path fill="#FFFFFF" d="M599.81,288.9l0.39-4.12l6.48,0.62c-0.09-0.26-0.24-0.59-0.44-0.99c-1.08-2.25-1.98-3.97-2.69-5.18
			l3.88-1.71c0.2,0.39,0.5,0.93,0.91,1.6c1.12,1.87,1.92,3.4,2.39,4.58l-3.7,1.73l6.31,0.6c0.55-0.83,0.75-1.13,0.62-0.89
			c1.8-2.85,3.13-5.06,3.99-6.61l3.87,2.07c-1.24,1.9-2.55,3.86-3.92,5.87l6.31,0.6l-0.39,4.12L599.81,288.9z M602.2,276.83
			l0.39-4.12l9.11,0.87c-0.15-0.9-0.5-2.19-1.04-3.88c-0.19-0.52-0.33-0.91-0.42-1.17l4.8-0.3c0.36,1.17,0.8,2.79,1.31,4.85
			c0.08,0.39,0.16,0.71,0.26,0.97l7.71,0.74l-0.4,4.12L602.2,276.83z M600.1,311.81l1.75-18.37l19.27,1.83l-1.73,18.18l-4.38-0.42
			l0.27-2.81l-10.51-1l-0.29,3L600.1,311.81z M605.86,297.79l-0.73,7.68l10.51,1l0.73-7.68L605.86,297.79z M623.54,314.42
			l4.02-42.17l15.59,1.49l-0.43,4.5l-5.38,11.97c3.17,3.83,4.5,7.8,3.99,11.92c-0.39,5.26-2.69,7.81-6.92,7.66
			c-0.83,0.05-2.3-0.03-4.4-0.23c-0.07-1.77-0.2-3.49-0.39-5.15c1.27,0.25,2.49,0.43,3.66,0.54c2.22,0.21,3.46-1.06,3.72-3.81
			c0.31-3.25-1.06-6.84-4.1-10.79l5.28-12.74l-6.84-0.65l-3.61,37.86L623.54,314.42z"/>
	</g>
	<g>
		<path fill="#007BC7" d="M308.91,209.87c0,3.91,1.18,7.21,3.5,9.8c2.3,2.57,5.29,3.87,8.9,3.87c1.69,0,3.33-0.33,4.87-0.99
			l0.27-0.12l2.22,3.49l6.4,0.03l-4.92-6.3l0.19-0.22c2.2-2.5,3.32-5.72,3.32-9.57c0-3.9-1.18-7.21-3.5-9.84
			c-2.29-2.59-5.27-3.91-8.86-3.91c-3.62,0-6.61,1.31-8.9,3.91C310.09,202.65,308.91,205.96,308.91,209.87z M316.1,203.64
			c1.26-1.67,3.01-2.52,5.21-2.52c2.21,0,3.96,0.85,5.18,2.52c1.25,1.61,1.88,3.71,1.88,6.22c0,2.49-0.63,4.57-1.88,6.19
			c-1.24,1.62-2.99,2.44-5.17,2.44c-2.2,0-3.96-0.82-5.24-2.44c-1.23-1.64-1.85-3.72-1.85-6.19
			C314.21,207.35,314.85,205.26,316.1,203.64z"/>
		<rect x="340.7" y="197.04" fill="#007BC7" width="5.36" height="24.86"/>
		<polygon fill="#007BC7" points="377.59,221.96 377.59,197.1 372.3,197.1 372.3,214.35 360.52,197.1 354.16,197.1 354.16,221.96 
			359.44,221.96 359.44,204.36 371.23,221.96 		"/>
		<path fill="#007BC7" d="M401.3,216.5l1.83,5.4h5.71l-9.27-24.86h-7.4l-9.23,24.86h5.67l1.86-5.4H401.3z M395.86,200.61l4.1,11.99
			h-8.17L395.86,200.61z"/>
		<path fill="#007BC7" d="M433.47,199.49c-2.35-2.62-5.43-3.95-9.13-3.95c-3.72,0-6.81,1.33-9.16,3.95c-2.39,2.66-3.6,6-3.6,9.95
			c0,3.95,1.21,7.29,3.6,9.9c2.37,2.6,5.45,3.91,9.16,3.91c3.69,0,6.76-1.32,9.13-3.91c2.38-2.61,3.59-5.95,3.59-9.9
			C437.07,205.49,435.86,202.14,433.47,199.49z M429.66,215.69c-1.28,1.63-3.06,2.46-5.31,2.46c-2.26,0-4.07-0.83-5.38-2.46
			c-1.26-1.65-1.9-3.76-1.9-6.26c0-2.54,0.65-4.66,1.93-6.29c1.29-1.68,3.1-2.54,5.35-2.54c2.27,0,4.06,0.86,5.32,2.55
			c1.28,1.63,1.93,3.74,1.93,6.29C431.6,211.95,430.94,214.05,429.66,215.69z"/>
		<polygon fill="#007BC7" points="466.5,208.12 456.56,208.12 456.56,201.14 466.58,201.14 466.58,196.99 451.79,196.99 
			451.79,222.2 456.56,222.2 456.56,212.23 466.5,212.23 		"/>
		<path fill="#007BC7" d="M472,209.43c0,3.89,1.2,7.21,3.58,9.87c2.37,2.62,5.57,3.95,9.51,3.95c2.09,0,4.24-0.44,6.58-1.35v-5.33
			c-2.46,1.12-4.59,1.69-6.34,1.69c-2.56,0-4.61-0.86-6.09-2.57c-1.42-1.68-2.14-3.79-2.14-6.27c0-2.47,0.72-4.58,2.14-6.3
			c1.5-1.76,3.49-2.61,6.1-2.61c1.74,0,3.87,0.57,6.34,1.69v-5.36c-2.37-0.87-4.58-1.31-6.58-1.31c-3.92,0-7.12,1.35-9.51,4.03
			C473.21,202.22,472,205.54,472,209.43z"/>
	</g>
</g>
<g>
</g>
<g>
</g>
<g>
</g>
<g>
</g>
<g>
</g>
<g>
</g>
<g>
</g>
<g>
</g>
<g>
</g>
<g>
</g>
<g>
</g>
</svg>
