<?xml version="1.0" encoding="utf-8"?>
<!-- Created by @FCLOGO 2024-10-16 GMT+8 9:58:39 . https://fclogo.top/ -->
<!-- FOR PERSONAL USE ONLY NOT FOR COMMERCIAL USE -->
<svg version="1.1" xmlns="http://www.w3.org/2000/svg" xmlns:xlink="http://www.w3.org/1999/xlink" x="0px" y="0px"
	 viewBox="0 0 800 800" style="enable-background:new 0 0 800 800;" xml:space="preserve">
<path style="fill:#CCCCCC;" d="M348.22,774.3c-0.79,0-1.38-0.22-1.77-0.65c-0.39-0.44-0.53-1.03-0.41-1.79l0.25-1.65
	c0.12-0.75,0.45-1.35,0.98-1.78c0.53-0.44,1.19-0.65,1.98-0.65c0.76,0,1.33,0.2,1.72,0.6c0.39,0.4,0.55,0.94,0.47,1.62h-1.24
	c0.03-0.36-0.06-0.64-0.26-0.84c-0.2-0.2-0.5-0.3-0.89-0.3c-0.42,0-0.76,0.12-1.03,0.35c-0.27,0.23-0.43,0.56-0.5,0.99l-0.26,1.66
	c-0.07,0.44-0.01,0.77,0.19,1c0.19,0.23,0.5,0.35,0.92,0.35c0.39,0,0.72-0.1,0.98-0.3c0.26-0.2,0.44-0.48,0.52-0.85h1.24
	c-0.14,0.69-0.47,1.23-0.99,1.63C349.61,774.1,348.97,774.3,348.22,774.3z M352.8,774.19l1-6.29h1.19l-0.19,1.19
	c0.34-0.87,0.97-1.3,1.91-1.3c0.67,0,1.17,0.21,1.49,0.62c0.32,0.42,0.43,0.99,0.31,1.71l-0.07,0.42h-1.27l0.06-0.32
	c0.07-0.45,0.01-0.8-0.17-1.04c-0.18-0.24-0.48-0.36-0.88-0.36c-0.4,0-0.74,0.12-1.01,0.37c-0.27,0.24-0.43,0.59-0.5,1.03
	l-0.63,3.97H352.8z M361.91,774.3c-0.77,0-1.35-0.22-1.73-0.67c-0.38-0.45-0.51-1.04-0.4-1.77l0.25-1.65
	c0.08-0.49,0.26-0.92,0.52-1.28c0.26-0.37,0.6-0.65,1.01-0.85c0.41-0.2,0.87-0.3,1.38-0.3c0.77,0,1.35,0.22,1.73,0.67
	c0.39,0.45,0.52,1.04,0.39,1.77l-0.17,1.12h-3.85l-0.09,0.53c-0.15,0.95,0.22,1.43,1.11,1.43c0.72,0,1.17-0.25,1.37-0.74h1.22
	c-0.17,0.53-0.5,0.96-1.01,1.28C363.16,774.14,362.58,774.3,361.91,774.3z M361.23,770.22l-0.05,0.29l2.65-0.01l0.05-0.29
	c0.07-0.47,0.01-0.82-0.17-1.07c-0.18-0.25-0.49-0.37-0.92-0.37c-0.44,0-0.8,0.13-1.06,0.38
	C361.48,769.39,361.31,769.75,361.23,770.22z M368.33,774.3c-0.63,0-1.1-0.21-1.41-0.64c-0.31-0.42-0.4-1-0.27-1.73l0.27-1.77
	c0.11-0.73,0.39-1.31,0.84-1.74c0.44-0.43,0.98-0.64,1.61-0.64c0.47,0,0.83,0.12,1.09,0.35c0.26,0.24,0.39,0.56,0.38,0.96h0.02
	l0.17-1.2h1.24l-1,6.29h-1.22l0.19-1.2h-0.02c-0.12,0.41-0.35,0.73-0.69,0.97C369.2,774.18,368.8,774.3,368.33,774.3z
	 M368.93,773.23c0.39,0,0.72-0.12,0.98-0.36c0.26-0.24,0.43-0.57,0.5-1.01l0.25-1.65c0.07-0.43,0.01-0.76-0.18-1
	c-0.19-0.24-0.47-0.36-0.86-0.36c-0.4,0-0.72,0.12-0.98,0.35c-0.26,0.24-0.42,0.57-0.49,1.01l-0.25,1.65
	c-0.07,0.44-0.01,0.78,0.17,1.01C368.24,773.11,368.53,773.23,368.93,773.23z M376.35,774.19c-0.57,0-0.99-0.16-1.26-0.47
	c-0.27-0.31-0.36-0.75-0.27-1.32l0.54-3.39h-1.74l0.17-1.12h1.74l0.27-1.72h1.24l-0.27,1.72h2.47l-0.18,1.12h-2.46l-0.54,3.39
	c-0.08,0.44,0.1,0.66,0.53,0.66h1.72l-0.17,1.12H376.35z M382.5,774.3c-0.77,0-1.35-0.22-1.73-0.67c-0.38-0.45-0.52-1.04-0.4-1.77
	l0.25-1.65c0.08-0.49,0.26-0.92,0.52-1.28c0.26-0.37,0.6-0.65,1.01-0.85c0.41-0.2,0.87-0.3,1.38-0.3c0.77,0,1.35,0.22,1.73,0.67
	c0.39,0.45,0.52,1.04,0.39,1.77l-0.17,1.12h-3.85l-0.09,0.53c-0.15,0.95,0.22,1.43,1.11,1.43c0.72,0,1.17-0.25,1.37-0.74h1.22
	c-0.17,0.53-0.5,0.96-1.01,1.28C383.76,774.14,383.18,774.3,382.5,774.3z M381.83,770.22l-0.05,0.29l2.65-0.01l0.05-0.29
	c0.07-0.47,0.01-0.82-0.17-1.07c-0.18-0.25-0.49-0.37-0.92-0.37c-0.44,0-0.8,0.13-1.06,0.38
	C382.08,769.39,381.91,769.75,381.83,770.22z M388.92,774.3c-0.63,0-1.1-0.21-1.4-0.64c-0.3-0.42-0.39-1-0.28-1.73l0.27-1.77
	c0.11-0.73,0.39-1.31,0.84-1.74c0.44-0.43,0.98-0.64,1.61-0.64c0.47,0,0.83,0.12,1.09,0.35c0.26,0.24,0.39,0.56,0.38,0.96h0.02
	l0.21-1.47l0.3-1.8h1.24l-1.33,8.35h-1.22l0.19-1.2h-0.02c-0.12,0.41-0.35,0.73-0.69,0.97C389.8,774.18,389.4,774.3,388.92,774.3z
	 M389.53,773.23c0.39,0,0.72-0.12,0.98-0.36c0.26-0.24,0.43-0.57,0.5-1.01l0.25-1.65c0.08-0.43,0.02-0.76-0.17-1
	c-0.19-0.24-0.48-0.36-0.87-0.36c-0.4,0-0.72,0.12-0.98,0.35c-0.26,0.24-0.42,0.57-0.49,1.01l-0.25,1.65
	c-0.08,0.44-0.02,0.78,0.16,1.01C388.83,773.11,389.13,773.23,389.53,773.23z M401.02,774.3c-0.47,0-0.84-0.12-1.1-0.35
	c-0.26-0.23-0.39-0.56-0.38-0.97h-0.01l-0.19,1.2h-1.22l1.33-8.35h1.24l-0.29,1.8l-0.27,1.47h0.05c0.12-0.41,0.35-0.73,0.69-0.97
	c0.34-0.23,0.74-0.35,1.21-0.35c0.63,0,1.1,0.21,1.4,0.64c0.3,0.43,0.39,1.01,0.28,1.74l-0.27,1.77c-0.11,0.73-0.39,1.31-0.84,1.73
	C402.18,774.09,401.64,774.3,401.02,774.3z M400.77,773.23c0.4,0,0.72-0.12,0.98-0.35c0.26-0.23,0.42-0.57,0.5-1.01l0.25-1.65
	c0.07-0.43,0.01-0.77-0.17-1.01c-0.18-0.24-0.47-0.35-0.87-0.35c-0.39,0-0.72,0.12-0.98,0.36c-0.26,0.24-0.43,0.57-0.5,1l-0.25,1.65
	c-0.07,0.44-0.01,0.77,0.17,1.01C400.08,773.11,400.37,773.23,400.77,773.23z M405.47,776.25l0.17-1.06h1.93
	c0.64,0,1.01-0.3,1.1-0.9l0.1-0.67l0.21-1.19h-0.03c-0.12,0.42-0.35,0.74-0.68,0.97c-0.33,0.23-0.73,0.34-1.2,0.34
	c-0.63,0-1.09-0.2-1.4-0.6c-0.31-0.4-0.41-0.94-0.3-1.63l0.58-3.6h1.24l-0.56,3.48c-0.06,0.41,0,0.73,0.18,0.96
	c0.18,0.23,0.47,0.34,0.85,0.34c0.39,0,0.72-0.12,0.98-0.37c0.27-0.24,0.43-0.58,0.49-1.02l0.54-3.4h1.24l-1.01,6.41
	c-0.1,0.6-0.37,1.08-0.81,1.42c-0.44,0.35-1,0.52-1.67,0.52H405.47z M417.79,770.09h3.22l0.54-1.85h-5.47l-1.71,6.44h2.15l0.59-2.1
	h3.03l0.44-1.71h-3.03L417.79,770.09z M424.23,772.92c-0.59,0-1.02-0.39-1.02-1.12c0-0.88,0.63-1.76,1.61-1.76
	c0.49,0,0.88,0.24,1.02,0.78l1.95-0.83c-0.29-1.17-1.27-1.9-2.64-1.9c-2.78,0-4.15,2.15-4.15,3.9c0,1.76,1.27,2.83,3.07,2.83
	c1.37,0,2.34-0.59,2.98-1.42l-1.51-1.17C425.16,772.67,424.72,772.92,424.23,772.92z M430.91,768.23h-2.15l-1.76,6.44h5.12
	l0.49-1.85h-2.93L430.91,768.23z M439.75,771.01c0-1.66-1.32-2.93-3.22-2.93c-2.2,0-3.81,1.81-3.81,3.81c0,1.66,1.32,2.93,3.22,2.93
	C438.14,774.82,439.75,773.01,439.75,771.01z M434.92,771.7c0-0.83,0.59-1.71,1.51-1.71c0.78,0,1.17,0.54,1.17,1.22
	c0,0.83-0.59,1.71-1.51,1.71C435.31,772.92,434.92,772.38,434.92,771.7z M443.21,772.23h1.07l-0.2,0.68
	c-0.15,0.05-0.34,0.1-0.59,0.1c-0.68,0-1.27-0.39-1.27-1.22c0-1.02,0.73-1.9,1.95-1.9c0.59,0,1.12,0.24,1.51,0.59l1.37-1.37
	c-0.44-0.54-1.51-1.07-2.73-1.07c-2.59,0-4.29,1.76-4.29,3.86c0,2.05,1.61,2.88,3.22,2.88c0.93,0,1.85-0.29,2.49-0.68l0.93-3.32
	h-3.12L443.21,772.23z M450.78,768.08c-2.2,0-3.81,1.81-3.81,3.81c0,1.66,1.32,2.93,3.22,2.93c2.2,0,3.81-1.81,3.81-3.81
	C454,769.35,452.68,768.08,450.78,768.08z M450.34,772.92c-0.78,0-1.17-0.54-1.17-1.22c0-0.83,0.59-1.71,1.51-1.71
	c0.78,0,1.17,0.54,1.17,1.22C451.85,772.04,451.27,772.92,450.34,772.92z M437.94,767.5c-0.05,0.29,0.1,0.49,0.44,0.49
	s0.54-0.2,0.63-0.49c0.05-0.24-0.1-0.49-0.44-0.49C438.24,767.01,437.99,767.25,437.94,767.5z M432.13,765.5
	c-0.44,0-0.73,0.24-0.78,0.59c-0.05,0.34,0.1,0.59,0.54,0.59s0.73-0.24,0.78-0.59C432.77,765.74,432.57,765.5,432.13,765.5z
	 M433.01,767.3c-0.1,0.54,0.15,0.88,0.83,0.88c0.63,0,1.07-0.39,1.17-0.88s-0.15-0.88-0.83-0.88
	C433.5,766.43,433.11,766.82,433.01,767.3z M439.6,777.55l-2.44-1.81h-1.51l4.25,3.17l1.61-3.17h-0.98L439.6,777.55z M425.84,767.16
	l-2-1.46l23.13-2.78l-2.15,4.25h1.02l2.68-5.32l-26.99,3.22l2.78,2.1H425.84z M338.72,785.79l0.61-3.83h2.32l-0.08,0.52h-1.76
	l-0.18,1.14h1.63l-0.08,0.52h-1.62l-0.26,1.64H338.72z M342.97,785.84c-0.36,0-0.62-0.1-0.8-0.3c-0.17-0.2-0.23-0.47-0.18-0.82
	l0.27-1.7c0.06-0.34,0.2-0.61,0.44-0.82c0.24-0.2,0.54-0.3,0.89-0.3c0.36,0,0.62,0.1,0.8,0.3c0.17,0.2,0.24,0.47,0.18,0.81
	l-0.27,1.71c-0.06,0.34-0.2,0.62-0.44,0.82C343.63,785.74,343.33,785.84,342.97,785.84z M343.05,785.33c0.19,0,0.35-0.05,0.47-0.16
	c0.12-0.11,0.19-0.26,0.23-0.46l0.27-1.7c0.03-0.2,0.01-0.35-0.08-0.46c-0.08-0.11-0.22-0.16-0.41-0.16s-0.35,0.05-0.46,0.16
	c-0.12,0.1-0.19,0.26-0.22,0.46l-0.27,1.7c-0.03,0.2-0.01,0.35,0.08,0.46C342.72,785.28,342.86,785.33,343.05,785.33z M345,785.79
	l0.61-3.83h1.2c0.24,0,0.44,0.05,0.6,0.14c0.16,0.09,0.28,0.22,0.36,0.39c0.07,0.17,0.09,0.37,0.05,0.59
	c-0.04,0.26-0.14,0.48-0.3,0.67c-0.16,0.19-0.37,0.32-0.6,0.39l0.54,1.64h-0.62l-0.48-1.57h-0.54l-0.25,1.57H345z M345.89,783.71
	h0.64c0.19,0,0.35-0.06,0.48-0.17c0.13-0.11,0.21-0.26,0.24-0.45c0.03-0.19,0-0.35-0.09-0.46c-0.09-0.11-0.24-0.17-0.43-0.17h-0.64
	L345.89,783.71z M349.54,785.79l0.61-3.83h1.25c0.37,0,0.65,0.1,0.84,0.31c0.19,0.21,0.26,0.49,0.2,0.84
	c-0.04,0.23-0.12,0.44-0.25,0.61s-0.29,0.31-0.49,0.4c-0.2,0.09-0.42,0.14-0.66,0.14h-0.69l-0.24,1.52H349.54z M350.43,783.75h0.69
	c0.19,0,0.36-0.06,0.49-0.18c0.14-0.12,0.22-0.27,0.25-0.47c0.03-0.2,0-0.35-0.1-0.47c-0.1-0.12-0.25-0.18-0.44-0.18h-0.69
	L350.43,783.75z M352.75,785.79l0.61-3.83h2.25l-0.08,0.5h-1.7l-0.17,1.09h1.51l-0.08,0.5h-1.51l-0.19,1.24h1.69l-0.08,0.5H352.75z
	 M355.84,785.79l0.61-3.83h1.2c0.24,0,0.44,0.05,0.6,0.14c0.16,0.09,0.28,0.22,0.36,0.39c0.07,0.17,0.09,0.37,0.05,0.59
	c-0.04,0.26-0.14,0.48-0.3,0.67c-0.16,0.19-0.37,0.32-0.6,0.39l0.54,1.64h-0.62l-0.48-1.57h-0.54l-0.25,1.57H355.84z M356.74,783.71
	h0.64c0.19,0,0.35-0.06,0.48-0.17c0.13-0.11,0.21-0.26,0.24-0.45c0.03-0.19,0-0.35-0.09-0.46c-0.09-0.11-0.24-0.17-0.43-0.17h-0.64
	L356.74,783.71z M360.13,785.84c-0.39,0-0.67-0.1-0.87-0.29c-0.19-0.19-0.26-0.45-0.22-0.78h0.57c-0.03,0.17,0.01,0.31,0.12,0.41
	c0.11,0.1,0.27,0.15,0.48,0.15c0.2,0,0.37-0.05,0.5-0.15c0.13-0.1,0.21-0.23,0.24-0.4c0.02-0.15,0-0.28-0.06-0.39
	c-0.06-0.11-0.16-0.18-0.29-0.22l-0.46-0.14c-0.27-0.08-0.46-0.22-0.59-0.41c-0.13-0.19-0.17-0.42-0.13-0.68
	c0.04-0.21,0.11-0.39,0.23-0.55c0.12-0.16,0.27-0.28,0.46-0.37c0.19-0.09,0.4-0.13,0.64-0.13c0.35,0,0.62,0.1,0.8,0.29
	c0.18,0.19,0.25,0.44,0.2,0.76h-0.57c0.03-0.17,0-0.3-0.09-0.4c-0.09-0.1-0.23-0.14-0.42-0.14c-0.19,0-0.34,0.04-0.46,0.13
	c-0.12,0.09-0.19,0.21-0.21,0.38c-0.02,0.15-0.01,0.28,0.05,0.39c0.06,0.11,0.16,0.18,0.29,0.22l0.47,0.15
	c0.26,0.08,0.46,0.22,0.58,0.41c0.12,0.19,0.17,0.42,0.12,0.69c-0.04,0.22-0.12,0.41-0.24,0.57c-0.13,0.16-0.29,0.29-0.49,0.38
	C360.6,785.79,360.38,785.84,360.13,785.84z M363.27,785.84c-0.36,0-0.62-0.1-0.8-0.3c-0.17-0.2-0.23-0.47-0.18-0.82l0.27-1.7
	c0.06-0.34,0.2-0.61,0.44-0.82c0.24-0.2,0.54-0.3,0.89-0.3c0.36,0,0.62,0.1,0.8,0.3c0.17,0.2,0.24,0.47,0.18,0.81l-0.27,1.71
	c-0.06,0.34-0.2,0.62-0.44,0.82C363.92,785.74,363.62,785.84,363.27,785.84z M363.34,785.33c0.19,0,0.35-0.05,0.47-0.16
	c0.12-0.11,0.19-0.26,0.23-0.46l0.27-1.7c0.03-0.2,0.01-0.35-0.08-0.46c-0.08-0.11-0.22-0.16-0.41-0.16c-0.19,0-0.35,0.05-0.46,0.16
	c-0.12,0.1-0.19,0.26-0.22,0.46l-0.27,1.7c-0.03,0.2-0.01,0.35,0.08,0.46C363.02,785.28,363.15,785.33,363.34,785.33z
	 M365.28,785.79l0.61-3.83h0.71l0.62,3.19c0.01-0.1,0.02-0.22,0.03-0.36c0.01-0.14,0.03-0.29,0.04-0.44
	c0.02-0.15,0.04-0.29,0.06-0.41l0.31-1.98h0.52l-0.61,3.83h-0.71l-0.61-3.19c-0.01,0.09-0.02,0.21-0.03,0.34s-0.03,0.28-0.04,0.42
	c-0.02,0.15-0.04,0.28-0.06,0.41l-0.31,2.01H365.28z M368.23,785.79l1.59-3.83h0.75l0.37,3.83h-0.56l-0.07-0.97h-1.09l-0.39,0.97
	H368.23z M369.39,784.34h0.87l-0.09-1.1c-0.02-0.2-0.03-0.37-0.04-0.51c-0.01-0.14-0.01-0.24-0.01-0.3c-0.02,0.06-0.05,0.16-0.1,0.3
	c-0.05,0.14-0.11,0.31-0.19,0.5L369.39,784.34z M371.72,785.79l0.61-3.83h0.57l-0.52,3.31h1.67l-0.08,0.52H371.72z M376.68,785.84
	c-0.37,0-0.63-0.1-0.8-0.3c-0.17-0.2-0.22-0.48-0.17-0.82l0.44-2.76h0.57l-0.44,2.76c-0.03,0.2-0.01,0.35,0.07,0.46
	c0.08,0.11,0.21,0.17,0.41,0.17c0.19,0,0.35-0.06,0.46-0.17c0.12-0.11,0.19-0.27,0.22-0.46l0.44-2.76h0.57l-0.44,2.76
	c-0.06,0.35-0.2,0.62-0.43,0.82C377.35,785.74,377.05,785.84,376.68,785.84z M379.84,785.84c-0.39,0-0.67-0.1-0.87-0.29
	c-0.19-0.19-0.26-0.45-0.22-0.78h0.57c-0.03,0.17,0.01,0.31,0.12,0.41c0.11,0.1,0.27,0.15,0.48,0.15c0.2,0,0.37-0.05,0.5-0.15
	c0.13-0.1,0.21-0.23,0.24-0.4c0.02-0.15,0-0.28-0.06-0.39c-0.06-0.11-0.16-0.18-0.29-0.22l-0.46-0.14
	c-0.27-0.08-0.46-0.22-0.59-0.41c-0.13-0.19-0.17-0.42-0.13-0.68c0.04-0.21,0.11-0.39,0.23-0.55s0.27-0.28,0.46-0.37
	c0.19-0.09,0.4-0.13,0.64-0.13c0.35,0,0.62,0.1,0.8,0.29c0.18,0.19,0.25,0.44,0.2,0.76h-0.57c0.03-0.17,0-0.3-0.09-0.4
	c-0.09-0.1-0.23-0.14-0.42-0.14c-0.19,0-0.34,0.04-0.46,0.13c-0.12,0.09-0.19,0.21-0.21,0.38c-0.02,0.15-0.01,0.28,0.05,0.39
	c0.06,0.11,0.16,0.18,0.29,0.22l0.47,0.15c0.26,0.08,0.46,0.22,0.58,0.41c0.12,0.19,0.17,0.42,0.12,0.69
	c-0.04,0.22-0.12,0.41-0.24,0.57c-0.13,0.16-0.29,0.29-0.49,0.38C380.31,785.79,380.09,785.84,379.84,785.84z M381.91,785.79
	l0.61-3.83h2.25l-0.08,0.5h-1.7l-0.17,1.09h1.51l-0.08,0.5h-1.51l-0.19,1.24h1.69l-0.08,0.5H381.91z M386.94,785.84
	c-0.36,0-0.62-0.1-0.8-0.3c-0.17-0.2-0.23-0.47-0.18-0.82l0.27-1.7c0.06-0.34,0.2-0.61,0.44-0.82c0.24-0.2,0.54-0.3,0.89-0.3
	c0.36,0,0.62,0.1,0.8,0.3c0.17,0.2,0.24,0.47,0.18,0.81l-0.27,1.71c-0.06,0.34-0.2,0.62-0.44,0.82
	C387.6,785.74,387.3,785.84,386.94,785.84z M387.02,785.33c0.19,0,0.35-0.05,0.47-0.16c0.12-0.11,0.19-0.26,0.23-0.46l0.27-1.7
	c0.03-0.2,0.01-0.35-0.08-0.46c-0.08-0.11-0.22-0.16-0.41-0.16c-0.19,0-0.35,0.05-0.46,0.16c-0.12,0.1-0.19,0.26-0.22,0.46
	l-0.27,1.7c-0.03,0.2-0.01,0.35,0.08,0.46C386.7,785.28,386.83,785.33,387.02,785.33z M388.95,785.79l0.61-3.83h0.71l0.62,3.19
	c0.01-0.1,0.02-0.22,0.03-0.36c0.01-0.14,0.03-0.29,0.04-0.44c0.02-0.15,0.04-0.29,0.06-0.41l0.31-1.98h0.52l-0.61,3.83h-0.71
	l-0.61-3.19c-0.01,0.09-0.02,0.21-0.03,0.34c-0.01,0.13-0.03,0.28-0.04,0.42c-0.02,0.15-0.04,0.28-0.06,0.41l-0.31,2.01H388.95z
	 M392.25,785.79l0.61-3.83h0.57l-0.52,3.31h1.67l-0.08,0.52H392.25z M396.12,785.79l0.22-1.41l-0.75-2.42h0.58l0.45,1.45
	c0.03,0.09,0.05,0.18,0.07,0.27c0.02,0.08,0.03,0.15,0.03,0.19c0.02-0.04,0.05-0.1,0.09-0.19c0.04-0.08,0.09-0.17,0.14-0.27
	l0.9-1.45h0.6l-1.53,2.42l-0.22,1.41H396.12z M399.22,785.79l0.61-3.83h0.71l0.62,3.19c0.01-0.1,0.02-0.22,0.03-0.36
	c0.01-0.14,0.03-0.29,0.04-0.44c0.02-0.15,0.04-0.29,0.06-0.41l0.31-1.98h0.52l-0.61,3.83h-0.71l-0.61-3.19
	c-0.01,0.09-0.02,0.21-0.03,0.34c-0.01,0.13-0.03,0.28-0.04,0.42c-0.02,0.15-0.04,0.28-0.06,0.41l-0.31,2.01H399.22z M403.51,785.84
	c-0.36,0-0.62-0.1-0.8-0.3c-0.18-0.2-0.23-0.47-0.18-0.82l0.27-1.7c0.06-0.34,0.2-0.61,0.44-0.82c0.24-0.2,0.54-0.3,0.89-0.3
	c0.36,0,0.62,0.1,0.8,0.3c0.17,0.2,0.24,0.47,0.18,0.81l-0.27,1.71c-0.06,0.34-0.2,0.62-0.44,0.82
	C404.16,785.74,403.86,785.84,403.51,785.84z M403.58,785.33c0.19,0,0.35-0.05,0.47-0.16c0.12-0.11,0.19-0.26,0.23-0.46l0.27-1.7
	c0.03-0.2,0.01-0.35-0.08-0.46c-0.08-0.11-0.22-0.16-0.41-0.16c-0.19,0-0.35,0.05-0.46,0.16c-0.12,0.1-0.19,0.26-0.22,0.46
	l-0.27,1.7c-0.03,0.2-0.01,0.35,0.08,0.46C403.26,785.28,403.4,785.33,403.58,785.33z M406.38,785.79l0.52-3.31h-1.02l0.08-0.52
	h2.62l-0.08,0.52h-1.03l-0.52,3.31H406.38z M409.52,785.79l0.61-3.83h2.32l-0.08,0.52h-1.76l-0.18,1.14h1.63l-0.08,0.52h-1.62
	l-0.26,1.64H409.52z M413.77,785.84c-0.36,0-0.62-0.1-0.8-0.3c-0.18-0.2-0.23-0.47-0.18-0.82l0.27-1.7c0.06-0.34,0.2-0.61,0.44-0.82
	c0.24-0.2,0.54-0.3,0.89-0.3c0.36,0,0.62,0.1,0.8,0.3c0.17,0.2,0.24,0.47,0.18,0.81l-0.27,1.71c-0.06,0.34-0.2,0.62-0.44,0.82
	C414.42,785.74,414.13,785.84,413.77,785.84z M413.85,785.33c0.19,0,0.35-0.05,0.47-0.16c0.12-0.11,0.19-0.26,0.23-0.46l0.27-1.7
	c0.03-0.2,0.01-0.35-0.08-0.46c-0.08-0.11-0.22-0.16-0.41-0.16c-0.19,0-0.35,0.05-0.46,0.16c-0.12,0.1-0.19,0.26-0.22,0.46
	l-0.27,1.7c-0.03,0.2-0.01,0.35,0.08,0.46C413.52,785.28,413.66,785.33,413.85,785.33z M415.8,785.79l0.61-3.83h1.2
	c0.24,0,0.44,0.05,0.6,0.14c0.16,0.09,0.28,0.22,0.36,0.39c0.07,0.17,0.09,0.37,0.05,0.59c-0.04,0.26-0.14,0.48-0.3,0.67
	c-0.16,0.19-0.37,0.32-0.6,0.39l0.54,1.64h-0.62l-0.48-1.57h-0.54l-0.25,1.57H415.8z M416.69,783.71h0.64
	c0.19,0,0.35-0.06,0.48-0.17c0.13-0.11,0.21-0.26,0.24-0.45c0.03-0.19,0-0.35-0.09-0.46c-0.09-0.11-0.24-0.17-0.43-0.17h-0.64
	L416.69,783.71z M420.91,785.84c-0.36,0-0.63-0.1-0.81-0.3c-0.18-0.2-0.24-0.47-0.19-0.82l0.27-1.7c0.06-0.35,0.21-0.62,0.45-0.82
	s0.55-0.3,0.91-0.3c0.36,0,0.63,0.1,0.81,0.3c0.18,0.2,0.24,0.47,0.19,0.82h-0.57c0.03-0.2,0-0.35-0.09-0.46
	c-0.09-0.11-0.23-0.16-0.42-0.16c-0.19,0-0.35,0.05-0.48,0.16c-0.12,0.1-0.2,0.26-0.23,0.45l-0.27,1.71c-0.03,0.2,0,0.35,0.09,0.46
	c0.09,0.11,0.23,0.16,0.42,0.16c0.19,0,0.35-0.05,0.47-0.16c0.12-0.11,0.2-0.26,0.23-0.46h0.57c-0.03,0.23-0.11,0.43-0.24,0.59
	c-0.12,0.17-0.28,0.3-0.47,0.39C421.36,785.79,421.14,785.84,420.91,785.84z M424.03,785.84c-0.36,0-0.62-0.1-0.8-0.3
	c-0.18-0.2-0.23-0.47-0.18-0.82l0.27-1.7c0.06-0.34,0.2-0.61,0.44-0.82c0.24-0.2,0.54-0.3,0.89-0.3c0.36,0,0.62,0.1,0.8,0.3
	c0.17,0.2,0.24,0.47,0.18,0.81l-0.27,1.71c-0.06,0.34-0.2,0.62-0.44,0.82C424.69,785.74,424.39,785.84,424.03,785.84z
	 M424.11,785.33c0.19,0,0.35-0.05,0.47-0.16c0.12-0.11,0.19-0.26,0.23-0.46l0.27-1.7c0.03-0.2,0.01-0.35-0.08-0.46
	c-0.08-0.11-0.22-0.16-0.41-0.16c-0.19,0-0.35,0.05-0.46,0.16c-0.12,0.1-0.19,0.26-0.22,0.46l-0.27,1.7
	c-0.03,0.2-0.01,0.35,0.08,0.46C423.79,785.28,423.92,785.33,424.11,785.33z M425.97,785.79l0.61-3.83h0.69l0.18,1.23
	c0.02,0.12,0.04,0.23,0.05,0.33c0.01,0.1,0.02,0.18,0.03,0.24c0.02-0.06,0.05-0.14,0.09-0.24c0.04-0.11,0.09-0.22,0.15-0.34
	l0.57-1.22h0.71l-0.61,3.83h-0.54l0.2-1.29c0.02-0.17,0.06-0.35,0.1-0.55c0.04-0.2,0.09-0.4,0.14-0.61c0.05-0.2,0.1-0.4,0.14-0.59
	c0.05-0.19,0.09-0.35,0.13-0.49l-0.86,1.86h-0.55l-0.28-1.86c0,0.14-0.01,0.29-0.02,0.47c-0.01,0.18-0.02,0.37-0.04,0.57
	c-0.02,0.2-0.04,0.41-0.06,0.61c-0.02,0.2-0.05,0.4-0.08,0.57l-0.2,1.29H425.97z M429.11,785.79l0.61-3.83h0.69l0.18,1.23
	c0.02,0.12,0.04,0.23,0.05,0.33c0.01,0.1,0.02,0.18,0.03,0.24c0.02-0.06,0.05-0.14,0.09-0.24c0.04-0.11,0.09-0.22,0.15-0.34
	l0.57-1.22h0.71l-0.61,3.83h-0.54l0.2-1.29c0.02-0.17,0.06-0.35,0.1-0.55c0.04-0.2,0.09-0.4,0.14-0.61c0.05-0.2,0.1-0.4,0.14-0.59
	c0.05-0.19,0.09-0.35,0.13-0.49l-0.86,1.86h-0.55l-0.28-1.86c0,0.14-0.01,0.29-0.02,0.47c-0.01,0.18-0.02,0.37-0.04,0.57
	c-0.02,0.2-0.04,0.41-0.06,0.61c-0.02,0.2-0.05,0.4-0.08,0.57l-0.2,1.29H429.11z M432.41,785.79l0.61-3.83h2.25l-0.08,0.5h-1.7
	l-0.17,1.09h1.51l-0.08,0.5h-1.51l-0.19,1.24h1.69l-0.08,0.5H432.41z M435.51,785.79l0.61-3.83h1.2c0.24,0,0.44,0.05,0.6,0.14
	c0.16,0.09,0.28,0.22,0.36,0.39c0.07,0.17,0.09,0.37,0.05,0.59c-0.04,0.26-0.14,0.48-0.3,0.67c-0.16,0.19-0.37,0.32-0.6,0.39
	l0.54,1.64h-0.62l-0.48-1.57h-0.54l-0.25,1.57H435.51z M436.4,783.71h0.64c0.19,0,0.35-0.06,0.48-0.17
	c0.13-0.11,0.21-0.26,0.24-0.45c0.03-0.19,0-0.35-0.09-0.46c-0.09-0.11-0.24-0.17-0.43-0.17h-0.64L436.4,783.71z M439.8,785.84
	c-0.36,0-0.63-0.1-0.81-0.3c-0.18-0.2-0.24-0.47-0.19-0.82l0.27-1.7c0.06-0.35,0.21-0.62,0.45-0.82s0.55-0.3,0.91-0.3
	c0.36,0,0.63,0.1,0.81,0.3c0.18,0.2,0.24,0.47,0.19,0.82h-0.57c0.03-0.2,0-0.35-0.09-0.46c-0.09-0.11-0.23-0.16-0.42-0.16
	c-0.19,0-0.35,0.05-0.47,0.16c-0.12,0.1-0.2,0.26-0.23,0.45l-0.27,1.71c-0.03,0.2,0,0.35,0.09,0.46c0.09,0.11,0.23,0.16,0.42,0.16
	s0.35-0.05,0.47-0.16c0.12-0.11,0.2-0.26,0.23-0.46h0.57c-0.03,0.23-0.11,0.43-0.24,0.59c-0.12,0.17-0.28,0.3-0.47,0.39
	C440.25,785.79,440.04,785.84,439.8,785.84z M441.88,785.79l0.08-0.5h0.78l0.45-2.82h-0.78l0.08-0.5h2.13l-0.08,0.5h-0.78
	l-0.45,2.82h0.78l-0.08,0.5H441.88z M444.74,785.79l1.59-3.83h0.75l0.37,3.83h-0.56l-0.07-0.97h-1.09l-0.39,0.97H444.74z
	 M445.9,784.34h0.87l-0.09-1.1c-0.02-0.2-0.03-0.37-0.04-0.51c-0.01-0.14-0.01-0.24-0.01-0.3c-0.02,0.06-0.05,0.16-0.1,0.3
	c-0.05,0.14-0.11,0.31-0.19,0.5L445.9,784.34z M448.24,785.79l0.61-3.83h0.57l-0.52,3.31h1.67l-0.08,0.52H448.24z M453.19,785.84
	c-0.37,0-0.63-0.1-0.8-0.3c-0.17-0.2-0.22-0.48-0.17-0.82l0.44-2.76h0.57l-0.44,2.76c-0.03,0.2-0.01,0.35,0.07,0.46
	c0.08,0.11,0.21,0.17,0.41,0.17c0.19,0,0.35-0.06,0.46-0.17c0.12-0.11,0.19-0.27,0.22-0.46l0.44-2.76h0.57l-0.44,2.76
	c-0.06,0.35-0.2,0.62-0.43,0.82C453.86,785.74,453.56,785.84,453.19,785.84z M456.36,785.84c-0.39,0-0.67-0.1-0.87-0.29
	c-0.19-0.19-0.26-0.45-0.22-0.78h0.57c-0.03,0.17,0.01,0.31,0.12,0.41c0.11,0.1,0.27,0.15,0.48,0.15c0.2,0,0.37-0.05,0.5-0.15
	s0.21-0.23,0.24-0.4c0.02-0.15,0-0.28-0.06-0.39c-0.06-0.11-0.16-0.18-0.29-0.22l-0.46-0.14c-0.27-0.08-0.46-0.22-0.59-0.41
	c-0.13-0.19-0.17-0.42-0.13-0.68c0.04-0.21,0.11-0.39,0.23-0.55c0.12-0.16,0.27-0.28,0.46-0.37c0.19-0.09,0.4-0.13,0.64-0.13
	c0.35,0,0.62,0.1,0.8,0.29c0.18,0.19,0.25,0.44,0.2,0.76h-0.57c0.03-0.17,0-0.3-0.09-0.4c-0.09-0.1-0.23-0.14-0.42-0.14
	c-0.19,0-0.34,0.04-0.46,0.13c-0.12,0.09-0.19,0.21-0.21,0.38c-0.02,0.15-0.01,0.28,0.05,0.39c0.06,0.11,0.16,0.18,0.29,0.22
	l0.47,0.15c0.26,0.08,0.46,0.22,0.58,0.41c0.12,0.19,0.17,0.42,0.12,0.69c-0.04,0.22-0.12,0.41-0.24,0.57
	c-0.13,0.16-0.29,0.29-0.49,0.38C456.82,785.79,456.6,785.84,456.36,785.84z M458.42,785.79l0.61-3.83h2.25l-0.08,0.5h-1.7
	l-0.17,1.09h1.51l-0.08,0.5h-1.51l-0.19,1.24h1.69l-0.08,0.5H458.42z"/>
<g>
	<path style="fill:#FFFFFF;" d="M658.2,638.14c-6.23-7.11-12.07-14.55-17.48-22.3l-1.62-2.22l19.99-24.62
		c4.2-4.08,5.59-10.26,3.54-15.75c-2.5-5.11-7.65-8.4-13.34-8.52h-55.34c16.21-30.19,29.4-61.9,39.39-94.68
		c17.45-55.35,26.26-113.05,26.09-171.09l1.53-237.94c0-5.44-4.41-9.85-9.85-9.85L400.57,50l-250.5,1.18
		c-5.44,0-9.85,4.41-9.85,9.85l1.08,237.7c-0.16,58.03,8.64,115.74,26.09,171.09c10.01,32.77,23.2,64.48,39.39,94.68h-56.03
		c-5.69,0.12-10.84,3.41-13.34,8.52c-2.1,5.41-0.76,11.56,3.4,15.61l20.14,25.01l-1.58,2.12c-5.4,7.8-11.25,15.28-17.53,22.4
		l-0.89,1.03c-3.88,4.73-4.74,11.26-2.22,16.84c3.16,5.39,9.37,8.21,15.51,7.04c8.57-0.49,40.81-0.44,53.52-0.39v29.54
		c-0.33,4.62,1.17,9.18,4.18,12.7c3.96,4.23,9.58,6.49,15.36,6.2h0.39c4.92,0,41.26,0,104.18,0c16.94,12.6,34.78,23.95,53.37,33.97
		c4.01,2.96,8.81,4.68,13.79,4.92h2.17c4.97-0.24,9.75-1.96,13.74-4.92c18.6-10.08,36.45-21.48,53.42-34.12
		c62.58,0,98.76,0,103.39,0c5.98,0.53,11.87-1.74,15.95-6.15c3.04-3.5,4.55-8.08,4.18-12.7v-29.54c12.7,0,44.95,0,53.57,0.39
		c6.12,1.15,12.31-1.67,15.46-7.04c2.55-5.57,1.69-12.11-2.22-16.84C658.55,638.76,658.39,638.44,658.2,638.14z"/>
	<g>
		<path style="fill:#2D3453;" d="M630.39,618.5c-2.17-2.92-2.17-6.92,0-9.85l21.17-26.24c6.25-7.43-2.9-8.03-2.9-8.03h-71.39
			c77.99-133.18,72.52-275.71,72.52-275.71l1.03-237.9L400.37,59.6l-250.5,1.18l1.03,237.9c0,0-5.46,142.33,72.52,275.71H151.4
			c0,0-9.16,0.59-2.86,8.03l21.12,26.24c2.2,2.91,2.2,6.93,0,9.85c-6.4,9.23-13.32,18.09-20.73,26.54c0,0-6.4,8.76,4.92,8.12
			s59.08-0.39,59.08-0.39c2.89,0.18,5.09,2.67,4.92,5.56v34.22c0,0-1.28,8.81,10.09,8.57c6.2,0,60.06,0,107.48,0
			c17.6,13.28,36.18,25.21,55.58,35.69c2.54,1.94,5.62,3.06,8.81,3.2h1.33c3.2-0.14,6.27-1.26,8.81-3.2
			c19.4-10.48,37.98-22.41,55.58-35.69c47.26,0,100.78,0,106.98,0c11.32,0,9.85-8.57,9.85-8.57v-34.22
			c-0.17-2.89,2.03-5.38,4.92-5.56c0,0,48.15-0.25,59.08,0.39c10.93,0.64,4.92-8.12,4.92-8.12
			C643.86,636.58,636.87,627.72,630.39,618.5z M241.44,602.74c2.66,3.89,5.46,7.78,8.27,11.62h-20.68L241.44,602.74z M550.97,614.36
			c2.76-3.74,5.46-7.53,8.07-11.32l12.06,11.32H550.97z"/>
		<path style="fill:#FFE66A;" d="M391.21,701.11h-32.1c10.44,7.1,21.6,13.09,33.28,17.87v-17.82L391.21,701.11z"/>
		<path style="fill:#FFE66A;" d="M392.39,614.36V394.49c0-8.76-7.48-7.73-7.48-7.73H184.63c-9.85,0-6.79,8.42-6.79,8.42
			c20.73,99.7,55.98,170.1,91.97,219.19H392.39z"/>
		<path style="fill:#FFE66A;" d="M417.99,374.99h204.66c1.38,0,3.74,0.49,3.94-0.84c5.32-40.67,5.76-201.61,5.76-201.61
			c0-5.44-4.41-9.85-9.85-9.85H417.99c-5.44,0-9.85,4.41-9.85,9.85v192.9C408.31,370.76,412.67,374.99,417.99,374.99z"/>
		<path style="fill:#FFFFFF;" d="M383.58,162.84H178.92c-5.44,0-9.85,4.41-9.85,9.85c0,0,0,12.46,0,31.31
			c8.42-6.07,17.76-10.74,27.67-13.83c24.62-4.09,49.58-8.42,74.29-12.95c8.1-2.02,16.67,0.06,22.94,5.56
			c13.79,12.7,28.85,12.95,45.15,6.3c3.81-1.94,8.2-2.36,12.31-1.18l-7.19,8.47l0.44,0.54c9.85,0,18.27-6.65,29.88-7.53
			c-6.89,10.83-16.49,17.08-24.86,24.08c-5.66,3.52-7.47,10.9-4.09,16.64c3.69,8.76,7.29,17.03,16.44,22.2
			c11.27,6.4,10.68,17.18-0.79,24.17c-4.18,2.49-8.19,5.25-12.01,8.27c-7.53,6.1-15.8,2.76-21.27-2.66
			c-5.99-6.23-15.01-8.5-23.24-5.86c-5.43,2.31-11.7-0.23-14.01-5.66c-0.12-0.28-0.22-0.56-0.32-0.84
			c-0.59,9.26-7.53,12.6-11.42,18.12c-3.15,4.48-2.46,6.4,2.9,6.74l8.81,0.39c14.03,0.54,20.38,10.14,15.61,23.58
			c-3.3,9.21-7.24,18.27-9.85,27.67c-2.02,7.43-6.01,9.85-12.65,7.24c-6.65-2.61-9.85-0.25-10.98,6.2
			c-1.82,9.31-9.55,7.19-15.66,7.63c-3.35,0.25-3.1-2.51-1.97-4.92c2.51-5.27,5.32-10.49,7.58-15.9c2.26-5.42,6.65-4.92,10.73-4.92
			c8.12,0.59,10.83-2.51,10.44-10.78c-0.84-17.33-0.39-17.13-16.79-14.77c-6.3,0.94-12.65,4.28-19.2,0.94
			c-1.33-0.69-2.31,0-3.1,1.38c-7.68,13.29-20.68,21.61-30.62,32.79c-7.42,7.31-16.25,13.03-25.95,16.84
			c-3.79,1.82-10.14,4.48-13.74,3.25c0,1.03,0,2.02,0.34,2.95c0.34,0.94,2.51,0.84,3.94,0.84h204.66c5.44,0,9.85-4.41,9.85-9.85
			v-192.6C393.3,167.18,388.94,162.87,383.58,162.84z"/>
		<path style="fill:#FFFFFF;" d="M459.1,614.36c3-0.79,4.68-2.86,5.32-7.14c3.59-23.88,6.89-47.85,11.67-71.49
			c2.76-13.74-1.03-26.14-3.2-40.47c-2.82,3.35-4.15,7.71-3.69,12.06c0.46,4.47-2.37,8.63-6.7,9.85
			c-9.85,4.09-15.07,2.17-24.62-7.63c-7.09-7.04-0.49-11.77,1.67-17.33c1.18-2.34,2.49-4.61,3.94-6.79
			c1.92-3.69,5.42-7.68,1.48-11.57c-3.62-2.88-8.4-3.85-12.85-2.61c-3.54,0.54-7.73,5.51-10.54,1.08
			c-2.81-4.43,1.77-7.93,3.89-11.47c1.61-2.47,3.54-4.71,5.76-6.65c2.9-2.66,3.89-4.92,0.49-7.98c-9.85-8.86-5.96-19.1-3.69-29.54
			c4.43,0.64,4.23,6.01,8.12,5.51c0.84-4.92,1.53-8.76,2.31-13.24v-0.39c0.44-2.61,1.82-4.92,4.38-2.9
			c4.68,4.09,6.89,2.66,9.55-1.72l0.3-0.34c1.43-2.36,3.74-3.94,6.3-0.94c1.23,1.43,1.87,3.3,4.23,0.69
			c4.53-4.92,7.88-2.76,10.39,2.41c1.28,2.61,2.46,5.91,6.4,3.25s6.84-7.83,10.49-5.76c4.92,2.61-1.58,8.22,0.34,12.51
			c0,0.3,0.34,0.54,0.39,0.64c4.92,1.08,8.81-4.09,14.77-3.1c-1.53,5.91-6.55,9.55-7.34,15.56c3.64,2.56,9.35-1.08,10.88,3.54
			s-2.81,6.79-5.71,9.4c-5.61,5.27-4.28,9.85,1.72,13.44c20.19,12.16,38.7,26.68,57.6,40.62c3.72,3.27,8.33,5.35,13.24,5.96
			c4.13,0.66,8.18,1.79,12.06,3.35c14-35.65,24.87-72.45,32.49-109.99c0,0,3.05-8.42-6.79-8.42H414.11c0,0-7.48-1.03-7.48,7.73
			v219.88L459.1,614.36z"/>
		<path style="fill:#FFFFFF;" d="M408.84,701.11h-2.22v17.82c11.68-4.79,22.84-10.77,33.28-17.87L408.84,701.11z"/>
		<g>
			<path style="fill:#D64488;" d="M317.02,430.28c1.87,7.73-2.71,12.6-9.45,16.94c4.92,1.58,6.25,7.09,11.77,6.5
				c-1.97-13.05,0-16.2,11.62-17.38c0,1.23,0.44,3.2,0,3.5c-2.61,1.53-5.86,2.86-3.45,6.45c1.62,3.11,5.45,4.32,8.57,2.7
				c0.46-0.24,0.89-0.54,1.28-0.88c3.89-4.33,3.99-21.91,0-26.14c-10.98-12.06-16.89-12.11-30.48,0
				C313.18,421.42,315.84,425.4,317.02,430.28z"/>
			<path style="fill:#D64488;" d="M367.14,499.21c-24.34,4.55-49.13,6.2-73.85,4.92c-16.15-1.13-32.25-3.3-50.17-5.17
				c4.92,10.59,9.85,18.51,22.06,18.07c3.64,0,7.34,0,7.09,5.61c-0.25,5.61-3.45,5.51-7.39,5.37c-2.9,0-5.86,0-8.81,0
				c-2.95,0-4.38,1.03-4.38,3.99c0,2.95,0,5.42,3.69,5.91c1.94,0.32,3.92,0.32,5.86,0c9.85-1.77,11.32,3.54,10.88,11.82
				c-0.79,14.77-0.79,30.03-1.23,45.05c0,5.51,2.22,8.91,7.83,9.01c6.4,0,5.81-4.92,5.81-9.11c0-16.35,0-32.69,0-49.23
				c0-5.91,1.67-8.12,7.73-7.93c11.42,0.39,22.89,0.59,34.46,0c7.68-0.39,9.31,2.71,9.21,9.85c-0.25,16.05,0.49,32.05,0.49,48.05
				c0,5.56,3,6.35,7.48,6.6c5.22,0.25,5.76-2.56,5.71-6.74c0-12.75,0-25.5-0.3-38.25c0-5.46-3.15-11.37-0.49-16.35
				c3.35-6.15,9.85-1.82,15.21-2.81c2.6-0.16,4.63-2.32,4.63-4.92c0-3.54-1.48-5.51-5.32-5.37c-3.84,0.15-6.55,0-9.85,0
				c-3.3,0-6.15,0.89-6.2-3.84s1.38-7.04,6.15-6.65c8.52,0.69,13.83-4.04,18.36-10.39c1.48-2.02,4.48-3.79,2.81-6.6
				C372.95,497.28,369.55,498.81,367.14,499.21z M292.65,527.91c-3.4,0-8.37,1.58-8.17-4.92s5.32-3.5,8.52-4.38
				c3.15,0.94,8.42-2.31,8.67,4.33S296.14,527.51,292.65,527.91z M325.73,527.91c-3.79-0.44-8.37,1.28-8.12-4.63
				c0.34-8.76,7.24-3.54,11.03-4.92s6.65-0.79,6.6,4.14C335.13,530.47,328.73,526.38,325.73,527.91z"/>
			<path style="fill:#D64488;" d="M268.97,417.23c1.23-0.44,1.87-1.79,1.44-3.02c-0.13-0.37-0.36-0.71-0.65-0.97
				c-0.98-0.89-3.69,0-4.28-1.18c-1.48-2.36,0.34-3.54,2.56-3.54c3.12-0.25,5.85,2.07,6.1,5.18c0,0.01,0,0.02,0,0.03
				c0.34,4.48,2.07,4.92,5.56,3.15c1.55-0.67,3.28-0.81,4.92-0.39c5.61,1.58,10.44,2.61,10.93-5.86c0.68-2.29,2.9-3.76,5.27-3.5
				c1.92,0.39,2.71,2.07,3.3,4.23c0.59,2.17-4.92,2.81-0.89,4.92c2.26,0.83,4.8,0.04,6.2-1.92c1.77-2.07,4.92-3.59,3.5-7.29
				c-0.96-4.23-4.46-7.42-8.76-7.98c-9.26-1.13-18.56-5.51-25.45,0.39c-7.33-1.08-14.71,1.56-19.69,7.04
				c-3.69,3.45-2.51,5.42-0.34,8.27C260.9,418.25,265.44,419.32,268.97,417.23z"/>
			<path style="fill:#D64488;" d="M304.17,437.86c4.18,6.3,7.43,2.66,9.26-1.18c2.05-3.27,1.06-7.59-2.21-9.64
				c-0.83-0.52-1.75-0.86-2.72-1c-7.58-2.61-15.75-2.17-23.34-5.51c-4.15-1.49-8.71,0.67-10.2,4.81c-0.01,0.04-0.03,0.07-0.04,0.11
				c-0.69,1.82-1.18,5.61,2.56,4.33c8.52-2.86,9.85,4.14,12.41,8.81c3.54,7.89,9.58,14.39,17.18,18.51
				c-2.56-7.24-6.35-11.23-6.45-16.44C300.62,438.01,303.08,436.24,304.17,437.86z"/>
			<path style="fill:#D64488;" d="M248.14,468.83c1.1-1.65,1.1-3.81,0-5.46c-1.23-1.82-4.58-0.3-4.92-3.2
				c3.79-2.9,7.43,0.59,11.42,0c14.43-2.41,14.77-2.07,19.05,11.47c1.62-2.26,2.95-4.38,4.53-6.25s2.46-0.64,3.3,0.39
				c0.84,1.03,1.03,2.26,0.74,2.46c-1.92,1.58-5.37,3.25-0.39,4.92c3.45,0.98,4.92-1.77,5.32-5.17c0.39-3.4-9.85-15.9-13.24-15.85
				c-9.85,0-20.09-5.22-30.23,1.38c-3.4,2.26-5.66,4.14-5.96,7.88c-0.1,3.7,2.06,7.1,5.46,8.57
				C244.79,470.6,246.86,470.95,248.14,468.83z"/>
			<path style="fill:#D64488;" d="M260.05,443.77c3.69,0.87,7.51-0.82,9.35-4.14c0.7-1,0.9-2.28,0.54-3.45
				c-0.82-0.92-1.97-1.51-3.2-1.62c-1.72-0.3-3.1,6.3-4.92,0.64c-1.13-3.5,1.72-5.27,5.22-4.92c3.5,0.34,4.04-2.22,4.18-4.92
				c0.3-4.53-2.9-3.25-5.27-3.25c-3.28-0.09-6.41-1.45-8.71-3.79c-2.31-2.02-4.92-2.41-6.84,0c-3.76,5.34-4.89,12.1-3.05,18.36
				C248.83,442.29,253.31,444.65,260.05,443.77z"/>
			<path style="fill:#D64488;" d="M345.47,447.76c11.27-2.17,12.16-8.07,7.34-16.79c3.54,2.56,5.66,5.86,9.85,4.43
				c2.46-1.02,4.14-3.31,4.38-5.96c0.54-2.9-0.34-6.06-3-6.5c-4.24-1.39-8.32-3.24-12.16-5.51c-7.24-2.86-10.19,0-9.26,7.93
				C343.55,433.28,346.85,439.83,345.47,447.76z"/>
			<path style="fill:#D64488;" d="M389.19,463.22c-3.38-7-9.45-12.33-16.84-14.77c-2.22-0.79-4.33,0.98-5.66,3
				c-1.3,1.95-1.3,4.5,0,6.45c0.71,1.51,2.46,2.24,4.04,1.67c8.52-1.92,9.85,0.74,8.62,9.45c-1.62,9.5-9.85,7.34-16.99,10.49
				c9.85,5.71,15.95,1.58,21.61-3.69C387.42,472.32,391.7,468.83,389.19,463.22z"/>
			<path style="fill:#D64488;" d="M233.27,430.87c-3.59-3.3-7.29-1.53-10.73,0.59c-6.3,3.99-9.85,18.36-5.91,24.62
				c0.54,0.74,1.36,1.22,2.26,1.33c2.17,0,2.22-1.82,2.36-3.5c0.44-3.99-0.94-8.62,3.84-11.67c3.54,1.67,0,8.76,4.92,6.74
				c3.89-2.32,6.82-5.98,8.22-10.29C239.38,435.69,235.58,432.99,233.27,430.87z"/>
			<path style="fill:#D64488;" d="M215.79,415.31c1.13,0.69,2.41,1.43,3.15-0.3c0.74-1.72-0.49-2.95-1.77-4.04
				c-4.92-4.38-13.83-1.62-17.82,5.51c-4.48,8.07-3.1,16.2,0.49,24.62c0.84-4.33,7.88-6.89,5.76-10.44
				C197.68,417.58,214.91,422.01,215.79,415.31z"/>
			<path style="fill:#D64488;" d="M268.62,468.83c0-4.09-1.62-6.01-5.76-5.96c-2.9,0-6.1-0.34-7.43,3.1
				c-1.33,3.45,1.38,6.1,4.04,7.88c3.2,2.86,7.53,4.13,11.77,3.45C270.01,474.59,269.13,471.75,268.62,468.83z"/>
			<path style="fill:#D64488;" d="M226.97,424.52c2.14,0.83,4.51,0.83,6.65,0c3.01-1.59,4.32-5.22,3-8.37
				c-1.08-4.22-4.6-7.37-8.91-7.98c-0.94,0-2.61,0-3.35,0.84C218.55,415.02,234.01,417.48,226.97,424.52z"/>
			<path style="fill:#D64488;" d="M381.27,416.44c2.7-3.82,3.01-8.83,0.79-12.95c-1.08-1.72-4.92-3.79-4.68-1.03
				c0.59,4.92-2.9,3.74-4.92,4.92c-3.74,1.87-3.3,4.92-2.51,7.88C376.24,408.47,378.85,409.06,381.27,416.44z"/>
			<path style="fill:#D64488;" d="M361.87,461.74c-4.23,0-4.53,3.84-4.92,6.99c-0.3,2.89,1.79,5.49,4.69,5.79
				c0.08,0.01,0.16,0.01,0.24,0.02c4.33,0,3.94-3.1,2.41-6.6C366.3,465.09,366.84,461.69,361.87,461.74z"/>
			<path style="fill:#D64488;" d="M282.41,483.2c-5.61,1.43-11.32-4.14-18.22,0.3C269.97,486.26,276.71,486.15,282.41,483.2z"/>
			<path style="fill:#D64488;" d="M223.33,424.52c0.74-1.38-0.89-2.31-2.22-2.12c-4.09,0.54-5.37,3.54-6.74,7.53
				C218.22,430.32,221.88,428.12,223.33,424.52z"/>
		</g>
		<path style="fill:#D64488;" d="M590.07,361.2c0.98-0.5,1.9-1.09,2.76-1.77C591.93,360.07,591.01,360.66,590.07,361.2z"/>
		<g>
			<path style="fill:#D64488;" d="M475.4,220.84c-17.67-1.97-33.6,10.76-35.57,28.43c-1.97,17.67,10.76,33.6,28.43,35.57l0,0
				c-8.77-1.47-14.68-9.77-13.21-18.54c1.36-8.08,8.57-13.86,16.76-13.41c8.81,0.99,16.76-5.34,17.75-14.15
				c0.99-8.81-5.34-16.76-14.15-17.75V220.84z M477.71,241.81c-3.07,0.03-5.59-2.44-5.61-5.51c-0.03-3.07,2.44-5.59,5.51-5.61
				c3.07-0.03,5.59,2.44,5.61,5.51c0,0.03,0,0.07,0,0.1C483.2,239.33,480.75,241.79,477.71,241.81z"/>
			<path style="fill:#D64488;" d="M502.82,323.25c-2.35-8.45,2.52-17.22,10.93-19.69c8.39-2.5,13.25-11.25,10.93-19.69
				c-2.29-8.45-11-13.44-19.45-11.14c-0.08,0.02-0.16,0.04-0.24,0.07c-16.94,5-26.7,22.69-21.91,39.68
				c4.59,16.9,22.01,26.88,38.91,22.29c0.16-0.04,0.32-0.09,0.48-0.13c-8.36,2.4-17.09-2.43-19.49-10.8
				C502.92,323.63,502.87,323.44,502.82,323.25z M514.15,279.82c3.4,0,6.15,2.76,6.15,6.15c0,3.4-2.76,6.15-6.15,6.15
				c-3.4,0-6.15-2.76-6.15-6.15C507.99,282.58,510.75,279.82,514.15,279.82L514.15,279.82z"/>
			<path style="fill:#D64488;" d="M570.52,356.72c-5.41-6.98-4.23-17.02,2.66-22.55c6.91-5.54,8.11-15.59,2.71-22.6
				c-5.31-6.89-15.2-8.18-22.09-2.87c-0.07,0.05-0.14,0.11-0.21,0.16c-13.8,11.07-16.18,31.15-5.37,45.15
				c9.96,12.91,28.15,16.04,41.85,7.19C583.32,364.61,575.11,362.72,570.52,356.72z M558.56,318.81c0-3.4,2.76-6.15,6.15-6.15
				c3.4,0,6.15,2.76,6.15,6.15c0,3.4-2.76,6.15-6.15,6.15C561.31,324.97,558.56,322.21,558.56,318.81
				C558.56,318.81,558.56,318.81,558.56,318.81L558.56,318.81z"/>
			<path style="fill:#D64488;" d="M631.08,278.64c-3.1,0-6.2,0.44-9.35,0.44c-60.73-0.35-109.7-49.84-109.4-110.58
				c0-1.87,0-3.69,0.3-5.56H485.1c0,1.82,0,3.69,0,5.56c-0.25,75.77,60.71,137.54,136.47,138.3c2.9,0,5.76,0,8.62-0.3
				C630.63,297.4,630.88,288.04,631.08,278.64z"/>
			<path style="fill:#D64488;" d="M622.66,162.84h-88.18c0,1.82-0.3,3.69-0.3,5.56c-0.35,48.63,38.76,88.34,87.39,88.72
				c3.29-0.02,6.58-0.22,9.85-0.59c0.79-44.61,0.89-83.7,0.89-83.7C632.39,167.42,628.08,162.95,622.66,162.84z"/>
			<path style="fill:#D64488;" d="M424.15,173.67c-8.47,15.54-2.87,35,12.55,43.67c-7.71-4.35-10.49-14.09-6.25-21.86
				c4.09-7.68,13.64-10.58,21.32-6.49c0.08,0.04,0.17,0.09,0.25,0.14c7.58,4.22,17.14,1.5,21.36-6.07c0.05-0.09,0.1-0.18,0.15-0.28
				c3.62-6.67,2.13-14.96-3.59-19.94H433.8C429.79,165.66,426.48,169.36,424.15,173.67z M461.91,170.33c3.06,0.29,5.3,3,5.02,6.06
				c-0.25,2.66-2.36,4.76-5.02,5.02c-3.06,0.29-5.77-1.96-6.06-5.02c-0.29-3.06,1.96-5.77,5.02-6.06
				C461.21,170.29,461.56,170.29,461.91,170.33z"/>
			<path style="fill:#D64488;" d="M627.09,369.92c0.89-8.52,1.62-20.58,2.22-34.46c-0.63,0.23-1.3,0.36-1.97,0.39
				c-3.4,0.03-6.18-2.69-6.22-6.09c-0.03-3.4,2.69-6.18,6.09-6.22c0.89-0.01,1.77,0.18,2.59,0.54c0-2.26,0-4.58,0.25-6.94
				c-7.02-1.93-14.46,1.18-18.02,7.53c-8.66,15.42-3.33,34.94,11.96,43.82C624.98,369.04,626.02,369.52,627.09,369.92z"/>
		</g>
		<rect x="167.05" y="76.04" style="fill:#FFFFFF;" width="465.3" height="71.93"/>
		<g>
			<path style="fill:#FFFFFF;" d="M572.73,582.07h66.91c-6.22,9.6-13.13,18.73-20.68,27.32c0,0-5.71,3.79,0,9.85
				c4.58,4.92,21.12,25.6,21.12,25.6h-57.9v-23.39c0,0-0.49-9.85-5.61-13.29c-4.31-3.31-8.37-6.93-12.16-10.83L572.73,582.07z"/>
			<rect x="227.51" y="625.24" style="fill:#FFFFFF;" width="345.22" height="65.28"/>
			<path style="fill:#FFFFFF;" d="M227.31,582.07h-66.86c6.2,9.61,13.12,18.74,20.68,27.32c0,0,5.66,3.79,0,9.85
				c-4.63,4.92-21.17,25.6-21.17,25.6h57.9v-23.39c0,0,0.49-9.85,5.61-13.29c4.32-3.32,8.4-6.94,12.21-10.83L227.31,582.07z"/>
		</g>
		<g>
			<path style="fill:#2D3453;" d="M211.81,86.88v18.31h-5.27V92.14h-4.28v38.75h3.99v6.06h-14.77v-6.06h3.99V92.14h-4.28v13.05
				h-5.56V86.88H211.81z"/>
			<path style="fill:#2D3453;" d="M232.63,136.95v-6.06h3.64V92.88h-3.64v-6.01h23.04v14.77h-6.15v-8.76h-6.25v15.21h4.92v6.25
				h-4.92v16.74h6.25v-9.5h6.01v15.36L232.63,136.95z"/>
			<path style="fill:#2D3453;" d="M289.99,118.83v-6.06h10.78v4.58c0.28,5.19-0.76,10.37-3,15.07c-1.46,3.26-4.7,5.37-8.27,5.37
				c-1.75,0.02-3.47-0.5-4.92-1.48c-1.63-1.16-2.93-2.72-3.79-4.53c-1.14-2.38-1.84-4.95-2.07-7.58c-0.4-3.99-0.58-8-0.54-12.01
				c-0.31-6.65,0.51-13.31,2.41-19.69c0.84-3.58,3.96-6.16,7.63-6.3c2.12,0.05,4.1,1.05,5.42,2.71v-1.87h6.06v16.25h-6.06
				c0-6.99-1.33-10.49-4.04-10.49c-0.97-0.05-1.86,0.5-2.26,1.38c-0.67,1.73-1.03,3.56-1.08,5.42c0,2.61-0.34,6.65-0.34,12.01
				s0,10.19,0.3,12.85c0.03,1.9,0.4,3.79,1.08,5.56c0.43,0.91,1.36,1.47,2.36,1.43c1.58,0,2.61-1.08,3.05-3.15
				c0.58-3.03,0.83-6.12,0.74-9.21L289.99,118.83z"/>
			<path style="fill:#2D3453;" d="M322.43,136.95v-6.06h3.74V92.88h-3.69v-6.01h23.09v14.77h-6.1v-8.76h-6.25v15.21h4.92v6.25h-4.92
				v16.74h6.25v-9.5h6.06v15.36L322.43,136.95z"/>
			<path style="fill:#2D3453;" d="M378.16,137.34l-8.37-44.31h-3.5v-6.15h14.03v6.01h-3.4c2.28,10.11,3.75,20.38,4.38,30.72l0,0
				c0.71-10.33,2.14-20.59,4.28-30.72h-3.4v-6.01h13.19v6.01h-3.59l-8.12,44.31L378.16,137.34z"/>
			<path style="fill:#2D3453;" d="M423.36,119.52l-1.28,11.37h3.2v6.06h-13.39v-6.06h3.15l5.51-38.01h-3.5v-6.01h18.56v6.01h-3.5
				l5.51,38.01h3.1v6.06h-13.39v-6.06h3.2l-0.98-11.37H423.36z M423.8,113.51h4.92l-2.12-22.35h-0.84L423.8,113.51z"/>
			<path style="fill:#2D3453;" d="M461.52,92.88v-6.01h14.18v6.01h-3.59v46.08c0,6.55-2.76,9.85-8.32,9.85
				c-1.15,0-2.29-0.14-3.4-0.44v-5.91l1.43,0.3c1.62,0,2.36-0.34,2.71-1.03c0.41-1.15,0.58-2.37,0.49-3.59V92.88H461.52z"/>
			<path style="fill:#2D3453;" d="M506.27,119.52l-1.28,11.37h3.35v6.06h-13.39v-6.06h3.15l5.32-38.01h-3.5v-6.01h18.56v6.01h-3.54
				l5.56,38.01h3.1v6.06h-13.39v-6.06h3.05l-1.23-11.37H506.27z M506.71,113.51h4.92l-2.17-22.35h-0.79L506.71,113.51z"/>
			<path style="fill:#2D3453;" d="M554.96,114.35v16.69h3.69v6.06h-15.02v-6.2h4.09V92.88h-4.23v-6.01h12.55
				c3.64-0.14,7.19,1.19,9.85,3.69c2.52,2.64,3.86,6.2,3.69,9.85c0.28,4.72-2.02,9.22-6.01,11.77l5.46,18.66h3.3v6.06h-8.52
				L557.57,114C556.71,114.2,555.84,114.31,554.96,114.35z M554.96,93.03v15.26c2.1,0.19,4.19-0.47,5.81-1.82
				c1.28-1.67,1.89-3.76,1.72-5.86c0.24-2.13-0.4-4.26-1.77-5.91c-1.63-1.3-3.68-1.95-5.76-1.82V93.03z"/>
			<path style="fill:#2D3453;" d="M615.57,112.18c0,17.07-3.87,25.6-11.62,25.6c-3.98-0.03-7.5-2.58-8.76-6.35
				c-2.23-6.16-3.2-12.71-2.86-19.25c-0.07-4.86,0.39-9.72,1.38-14.47c0.57-3.21,1.94-6.22,3.99-8.76c1.55-1.85,3.84-2.92,6.25-2.9
				c3.95,0.17,7.37,2.78,8.57,6.55C614.87,98.84,615.91,105.51,615.57,112.18z M600.11,112.18c-0.15,4.94,0.11,9.88,0.79,14.77
				c0.54,2.61,1.58,3.94,3.05,3.94c1.48,0,2.46-1.33,3.05-3.94c0.68-4.89,0.94-9.83,0.79-14.77c0.14-5.3-0.1-10.59-0.74-15.85
				c-0.54-2.71-1.53-4.04-3.1-4.04s-2.66,1.48-3.1,4.43c-0.63,5.21-0.87,10.46-0.74,15.71V112.18z"/>
		</g>
		<g>
			<path style="fill:#2D3453;" d="M258.38,678.66v-4.92h3.1v-31.56h-3.1v-4.92h12.36l1.62,8.81c0,1.23,0.44,2.9,0.64,4.92l0.74,7.73
				l0,0l0.84-6.79c0.34-2.71,0.69-4.92,0.98-6.84l1.28-7.93h12.46v4.92h-3.1v31.56h3.15v4.92h-12.06v-4.92h3.1v-21.07l0.44-11.23
				h-0.54l-1.87,14.23l-3.94,23.09h-1.77l-3.84-21.37l-2.12-16.15h-0.59l0.34,11.13v21.17h3.15v4.92L258.38,678.66z"/>
			<path style="fill:#2D3453;" d="M306.48,678.66v-4.92h3.2v-31.56h-3.2v-4.92h12.26v4.92h-3.2v31.56h3.2v4.92H306.48z"/>
			<path style="fill:#2D3453;" d="M341.63,678.66v-4.92h2.95V660.4l-6.74-18.22h-2.66v-4.92h11.27v4.92h-2.71l3.84,11.18l0,0
				l3.59-11.18h-2.66v-4.92h10.68v4.92h-2.71l-6.15,17.67v13.88h2.95v4.92H341.63z"/>
			<path style="fill:#2D3453;" d="M381.96,664.19l-0.98,9.45h2.66v4.92H372.5v-4.92h2.56l4.58-31.56h-2.9v-4.92h15.41v4.92h-2.9
				l4.63,31.56h2.61v4.92h-11.23v-4.92h2.66l-1.03-9.45H381.96z M382.35,659.26h4.23l-1.77-18.56h-0.69L382.35,659.26z"/>
			<path style="fill:#2D3453;" d="M413.51,678.66v-4.92l10.59-31.85h-4.92v9.11h-4.92v-13.79h16.2v4.92l-10.73,31.51h5.66v-8.81
				h4.92v13.83L413.51,678.66z"/>
			<path style="fill:#2D3453;" d="M456.74,664.19l-0.98,9.45h2.66v4.92h-11.13v-4.92h2.56l4.58-31.56h-2.9v-4.92h15.41v4.92h-2.9
				l4.58,31.56h2.61v4.92h-11.13v-4.92h2.66l-1.03-9.45H456.74z M457.14,659.26h4.23l-1.77-18.56h-0.49L457.14,659.26z"/>
			<path style="fill:#2D3453;" d="M488.2,678.66v-4.92h2.95v-31.56h-2.95v-4.92h11.23v4.92h-2.36v31.56h2.36v4.92H488.2z
				 M500.9,678.66v-4.92h2.51l-6.01-16.44l5.76-15.11h-2.56v-4.92h10.49v4.92h-2.66l-5.02,13.74l6.35,17.53h2.76v4.92L500.9,678.66z
				"/>
			<path style="fill:#2D3453;" d="M528.03,678.66v-4.92h3.15v-31.56h-3.15v-4.92h12.26v4.92h-3.2v31.56h3.2v4.92H528.03z"/>
		</g>
	</g>
</g>
</svg>
