<?xml version="1.0" encoding="UTF-8"?>
<svg data-name="图层_1" xmlns="http://www.w3.org/2000/svg" version="1.1" viewBox="0 0 800 800">
  <!-- Created by @FCLOGO 2025-1-21 GMT+8 21:56:15 . https://fclogo.top/ -->
<!-- FOR PERSONAL USE ONLY NOT FOR COMMERCIAL USE -->
  <path d="M348.2194,774.301c-.786,0-1.3752-.2173-1.7682-.6519-.393-.4352-.5284-1.03-.406-1.7856l.2518-1.6478c.122-.755.4501-1.3504.9841-1.785.5339-.4352,1.1939-.6525,1.9799-.6525.7553,0,1.3293.1987,1.7223.5954.3927.3967.551.9381.4747,1.6248h-1.2358c.0304-.3589-.0553-.637-.2573-.8357-.2024-.1981-.4979-.2974-.8869-.2974-.4197,0-.763.1167-1.03.3489-.2673.2328-.4349.5631-.5035.9903l-.2632,1.659c-.0686.4352-.0056.7686.1887,1.0015.1946.2328.5017.3489.9214.3489.389,0,.7152-.0987.9785-.2974.2632-.1981.4365-.4805.5206-.8469h1.2358c-.1372.6867-.4672,1.2306-.9897,1.631-.5228.4005-1.1616.6004-1.9169.6004ZM352.7967,774.1868l.9956-6.2943h1.1902l-.1946,1.1902c.3359-.8698.9729-1.3044,1.9113-1.3044.6712,0,1.1691.208,1.4932.624.3244.416.4293.9859.3148,1.7105l-.0686.4234h-1.2703l.0571-.3204c.0689-.4501.0115-.7953-.1714-1.0356-.1832-.2403-.4771-.3607-.8813-.3607-.4045,0-.7401.1223-1.007.3663-.2673.2446-.4349.588-.5035,1.03l-.6296,3.9711h-1.2358ZM361.9058,774.301c-.7705,0-1.3463-.2229-1.7279-.6693s-.515-1.0356-.4005-1.7682l.2518-1.6478c.0838-.488.2573-.9152.5206-1.2815s.6007-.6507,1.0129-.8524c.4119-.2024.8732-.3036,1.3845-.3036.7705,0,1.3485.2235,1.7338.6693.3852.4464.5169,1.0356.3949,1.7682l-.1717,1.1213h-3.845l-.0916.5265c-.1527.9536.2173,1.4305,1.1098,1.4305.7171,0,1.175-.2477,1.3734-.7438h1.2247c-.1679.5339-.5035.9599-1.007,1.2759-.5038.3166-1.0912.475-1.7626.475ZM361.2306,770.2157l-.0456.2862,2.6548-.0118.0459-.2856c.0686-.4656.0133-.822-.1661-1.0704-.1791-.2477-.4861-.3719-.9211-.3719-.4427,0-.7953.126-1.0586.3775-.2632.2521-.4331.6109-.5094,1.076ZM368.3258,774.301c-.6333,0-1.1027-.2117-1.4078-.6351s-.3967-1.0008-.2744-1.7335l.2744-1.7738c.1145-.7326.393-1.3119.8357-1.7397.4424-.4272.98-.6407,1.6133-.6407.4653,0,.8298.1186,1.093.3545.2632.2365.3908.5575.3834.9617h.023l.1717-1.202h1.2358l-.9956,6.2943h-1.2247l.1946-1.2014h-.023c-.122.4116-.3511.7339-.6867.9667s-.7401.3489-1.2129.3489ZM368.9324,773.2257c.389,0,.7152-.1186.9782-.3551.2632-.2359.4293-.5718.4979-1.007l.2518-1.6478c.0686-.4272.0096-.7612-.1773-1.0015-.1872-.2403-.475-.3601-.8642-.3601-.3967,0-.7249.118-.9841.3545-.2595.2365-.4234.5724-.492,1.007l-.2518,1.6478c-.0686.4427-.0133.7804.1658,1.0133.1794.2328.4712.3489.8757.3489ZM376.3477,774.1868c-.5721,0-.9937-.1565-1.2644-.4694-.271-.3123-.3607-.7512-.2691-1.3156l.538-3.3874h-1.7394l.1714-1.1219h1.7397l.2747-1.7161h1.2358l-.2747,1.7161h2.472l-.1832,1.1219h-2.4605l-.5377,3.3874c-.0764.4421.099.6637.5262.6637h1.7167l-.1717,1.1213h-1.7738ZM382.5042,774.301c-.7705,0-1.3463-.2229-1.7279-.6693s-.515-1.0356-.4005-1.7682l.2518-1.6478c.0838-.488.2573-.9152.5206-1.2815s.6007-.6507,1.0129-.8524c.4119-.2024.8732-.3036,1.3845-.3036.7705,0,1.3485.2235,1.7338.6693.3852.4464.5169,1.0356.3949,1.7682l-.1717,1.1213h-3.845l-.0916.5265c-.1527.9536.2173,1.4305,1.1098,1.4305.7171,0,1.175-.2477,1.3734-.7438h1.2247c-.1679.5339-.5035.9599-1.007,1.2759-.5038.3166-1.0912.475-1.7626.475ZM381.829,770.2157l-.0456.2862,2.6548-.0118.0459-.2856c.0686-.4656.0133-.822-.1661-1.0704-.1791-.2477-.4861-.3719-.9211-.3719-.4427,0-.7953.126-1.0586.3775-.2632.2521-.4331.6109-.5094,1.076ZM388.9243,774.301c-.6333,0-1.1008-.2117-1.4019-.6351-.3014-.4234-.3949-1.0008-.2803-1.7335l.2744-1.7738c.1145-.7326.393-1.3119.8357-1.7397.4424-.4272.98-.6407,1.6133-.6407.4653,0,.8298.1186,1.093.3545.2632.2365.3908.5575.3834.9617h.023l.2058-1.4652.2977-1.7962h1.2358l-1.3274,8.3537h-1.2247l.1946-1.2014h-.023c-.122.4116-.3511.7339-.6867.9667s-.7401.3489-1.2129.3489ZM389.5309,773.2257c.389,0,.7152-.1186.9782-.3551.2632-.2359.4293-.5718.4979-1.007l.2518-1.6478c.0761-.4272.0189-.7612-.1717-1.0015-.1909-.2403-.4805-.3601-.8698-.3601-.3967,0-.7249.118-.9841.3545-.2595.2365-.4234.5724-.492,1.007l-.2518,1.6478c-.0764.4427-.023.7804.1602,1.0133s.4768.3489.8813.3489ZM401.0175,774.301c-.4731,0-.8394-.1161-1.0986-.3489-.2595-.2328-.3852-.5551-.3775-.9667h-.0115l-.1946,1.2014h-1.2243l1.3274-8.3537h1.2358l-.2862,1.7962-.2744,1.4652h.0456c.122-.4123.353-.7345.6923-.9673.3396-.2322.7419-.3489,1.2076-.3489.633,0,1.1002.2136,1.4016.6407.3014.4278.3949,1.007.2806,1.7397l-.2747,1.7738c-.1145.7326-.3949,1.31-.8413,1.7335-.4461.4234-.9822.6351-1.6077.6351ZM400.7657,773.2257c.3967,0,.7227-.1161.9785-.3489.2555-.2328.4216-.5706.4976-1.0133l.2518-1.6478c.0689-.4346.0115-.7705-.1714-1.007-.1832-.2365-.4734-.3545-.8698-.3545-.3893,0-.7152.1198-.9785.3601s-.429.5743-.4979,1.0015l-.2518,1.6478c-.0686.4352-.0112.7711.1717,1.007.1832.2365.4731.3551.8698.3551ZM405.4694,776.2468l.1717-1.0642h1.934c.6407,0,1.007-.3017,1.0986-.9046l.1028-.6749.2061-1.1902h-.0345c-.122.4197-.3471.7438-.6752.9729-.3281.2285-.7286.3433-1.2014.3433-.6258,0-1.093-.2005-1.4019-.601s-.4104-.9443-.3033-1.631l.5836-3.6047h1.2358l-.5606,3.4793c-.0612.4116,0,.732.1832.9611s.4653.3433.8469.3433c.389,0,.7168-.1217.9841-.3663.267-.244.4309-.5836.492-1.0182l.538-3.3992h1.2358l-1.007,6.4086c-.0993.6029-.37,1.0778-.8124,1.4249-.4427.3471-.9996.5209-1.6707.5209h-1.9455ZM417.787,770.0853h3.221l.5368-1.8545h-5.4659l-1.7081,6.4419h2.1473l.5856-2.0985h3.0257l.4392-1.7081h-3.0257l.244-.7808ZM424.229,772.9158c-.5856,0-1.0249-.3904-1.0249-1.1225,0-.8784.6344-1.7569,1.6105-1.7569.488,0,.8784.244,1.0248.7808l1.9521-.8296c-.2928-1.1713-1.2689-1.9033-2.6353-1.9033-2.7817,0-4.1482,2.1473-4.1482,3.9042s1.2689,2.8305,3.0746,2.8305c1.3665,0,2.3425-.5856,2.9769-1.4153l-1.5129-1.1713c-.3904.4392-.8296.6832-1.3177.6832ZM430.9149,768.2308h-2.1473l-1.7569,6.4419h5.1242l.488-1.8545h-2.9281l1.2201-4.5874ZM439.7481,771.0125c0-1.6593-1.3177-2.9281-3.221-2.9281-2.1961,0-3.8066,1.8057-3.8066,3.8066,0,1.6593,1.3177,2.9281,3.221,2.9281,2.1961,0,3.8066-1.8057,3.8066-3.8066ZM434.9167,771.6957c0-.8296.5856-1.7081,1.5129-1.7081.7808,0,1.1713.5368,1.1713,1.2201,0,.8296-.5856,1.7081-1.5129,1.7081-.7808,0-1.1713-.5368-1.1713-1.2201ZM443.2131,772.2326h1.0737l-.1952.6832c-.1464.0488-.3416.0976-.5856.0976-.6832,0-1.2689-.3904-1.2689-1.2201,0-1.0249.732-1.9033,1.9521-1.9033.5856,0,1.1225.244,1.5129.5856l1.3665-1.3665c-.4392-.5368-1.5129-1.0737-2.7329-1.0737-2.5865,0-4.2946,1.7569-4.2946,3.8554,0,2.0497,1.6105,2.8793,3.221,2.8793.9272,0,1.8545-.2928,2.4889-.6832l.9272-3.3186h-3.1234l-.3416,1.4641ZM450.7775,768.0844c-2.1961,0-3.8066,1.8057-3.8066,3.8066,0,1.6593,1.3177,2.9281,3.221,2.9281,2.1961,0,3.8066-1.8057,3.8066-3.8066,0-1.6593-1.3177-2.9281-3.221-2.9281ZM450.3382,772.9158c-.7808,0-1.1713-.5368-1.1713-1.2201,0-.8296.5856-1.7081,1.5129-1.7081.7808,0,1.1713.5368,1.1713,1.2201,0,.8296-.5856,1.7081-1.5129,1.7081ZM437.9424,767.4987c-.0488.2928.0976.488.4392.488s.5368-.1952.6344-.488c.0488-.244-.0976-.488-.4392-.488s-.5856.244-.6344.488ZM432.1349,765.4978c-.4392,0-.732.244-.7808.5856s.0976.5856.5368.5856.732-.244.7808-.5856c.0976-.3416-.0976-.5856-.5368-.5856ZM433.0134,767.3035c-.0976.5368.1464.8784.8296.8784.6344,0,1.0737-.3904,1.1713-.8784s-.1464-.8784-.8296-.8784c-.6832,0-1.0737.3904-1.1713.8784ZM439.6017,777.552l-2.4401-1.8057h-1.5129l4.2458,3.1722,1.6105-3.1722h-.976l-.9272,1.8057ZM425.8394,767.1571l-2.0009-1.4641,23.1323-2.7817-2.1473,4.2458h1.0248l2.6841-5.3195-26.9877,3.221,2.7817,2.0985h1.5129ZM338.7186,785.7853l.6088-3.8315h2.32l-.084.5194h-1.7636l-.1837,1.1445h1.6272l-.084.5248h-1.6166l-.2573,1.6428h-.5668ZM342.97,785.8377c-.3568,0-.6228-.1005-.7978-.3019-.175-.201-.2345-.473-.1784-.8161l.2677-1.7006c.056-.3429.2029-.6148.4408-.8161.2379-.201.5355-.3019.8923-.3019s.6228.1.7979.2993c.1748.1993.2361.4707.1837.8136l-.2677,1.7057c-.0561.3431-.2039.6151-.4435.8161-.2398.2013-.5381.3019-.895.3019ZM343.0487,785.3339c.1925,0,.3483-.0524.4672-.1575.119-.1051.1942-.2571.2257-.4568l.2678-1.7006c.0315-.1993.0051-.3517-.0787-.4565-.084-.1051-.2223-.1575-.4148-.1575s-.3473.0524-.4645.1575c-.1173.1048-.1916.2571-.2231.4565l-.2677,1.7006c-.0315.1996-.0053.3517.0787.4568s.2204.1575.4094.1575ZM344.9961,785.7853l.6088-3.8315h1.202c.2379,0,.4391.0464.6036.139.1645.0928.2835.223.357.391s.091.3656.0524.5932c-.0384.2591-.14.4838-.3044.6746-.1645.1905-.3656.3209-.6036.391l.5354,1.6428h-.6194l-.4777-1.5748h-.5406l-.2466,1.5748h-.5668ZM345.8883,783.7068h.6352c.1889,0,.349-.0558.4803-.168.1313-.1119.2107-.2623.2388-.4514.0316-.1925,0-.3454-.0944-.4593-.0945-.1136-.2362-.1706-.4252-.1706h-.6352l-.1995,1.2493ZM349.545,785.7853l.6088-3.8315h1.2544c.3709,0,.6508.1048.8399.315.1889.2099.2553.4898.1993.8398-.0384.2344-.1216.4383-.2493.6114s-.2905.307-.4881.4015c-.1978.0945-.419.1418-.6639.1418h-.6928l-.2415,1.5221h-.5668ZM350.432,783.754h.6928c.1924,0,.3568-.0587.4934-.176.1364-.117.2204-.2737.2519-.4696s-.0017-.3525-.0997-.4699-.245-.1757-.441-.1757h-.6876l-.2099,1.2911ZM352.7466,785.7853l.6088-3.8315h2.2518l-.0787.5038h-1.6954l-.1731,1.0867h1.5115l-.0787.4986h-1.5115l-.1942,1.2387h1.6901l-.0787.5038h-2.2518ZM355.8434,785.7853l.6088-3.8315h1.202c.2379,0,.4391.0464.6036.139.1645.0928.2835.223.357.391s.091.3656.0524.5932c-.0384.2591-.14.4838-.3044.6746-.1645.1905-.3656.3209-.6036.391l.5354,1.6428h-.6194l-.4777-1.5748h-.5406l-.2466,1.5748h-.5668ZM356.7356,783.7068h.6352c.1889,0,.349-.0558.4803-.168.1313-.1119.2107-.2623.2388-.4514.0316-.1925,0-.3454-.0944-.4593-.0945-.1136-.2362-.1706-.4252-.1706h-.6352l-.1995,1.2493ZM360.1316,785.8377c-.385,0-.6736-.0951-.8661-.2859-.1924-.1908-.2641-.4505-.2151-.7794h.5668c-.028.1748.0105.3121.1155.4121.1051.0997.266.1495.483.1495.2029,0,.3701-.049.5012-.1469.1313-.098.2109-.2327.2389-.4044.0209-.1504.0007-.2788-.0604-.3856-.0614-.1068-.1583-.1811-.2913-.2233l-.4566-.1364c-.266-.0803-.4619-.217-.5879-.4095-.126-.1922-.1697-.4197-.1313-.6823.035-.2099.1121-.3935.2309-.551s.2729-.2799.4619-.3673.4024-.1313.6404-.1313c.3498,0,.6158.0954.7978.2859.182.1908.2485.4437.1995.7586h-.5668c.0279-.168-.0027-.3001-.092-.3964-.0891-.0963-.2301-.1444-.4225-.1444-.1889,0-.343.0447-.4619.1338-.119.0894-.1889.2144-.21.3753-.0245.1506-.007.2791.0525.3859s.1575.1811.2939.223l.4672.1469c.2624.0806.4558.2173.5801.4095.1242.1925.1653.4217.1233.6877-.035.217-.1155.4058-.2415.5667-.1259.1612-.2878.2862-.4855.3753-.1976.0894-.419.1338-.6639.1338ZM363.2651,785.8377c-.3568,0-.6228-.1005-.7978-.3019-.175-.201-.2345-.473-.1784-.8161l.2677-1.7006c.056-.3429.2029-.6148.4408-.8161.2379-.201.5355-.3019.8923-.3019s.6228.1.7979.2993c.1748.1993.2361.4707.1837.8136l-.2677,1.7057c-.0561.3431-.2039.6151-.4435.8161-.2398.2013-.5381.3019-.895.3019ZM363.3439,785.3339c.1925,0,.3483-.0524.4672-.1575.119-.1051.1942-.2571.2257-.4568l.2678-1.7006c.0315-.1993.0051-.3517-.0787-.4565-.084-.1051-.2223-.1575-.4148-.1575s-.3473.0524-.4645.1575c-.1173.1048-.1916.2571-.2231.4565l-.2677,1.7006c-.0315.1996-.0053.3517.0787.4568s.2204.1575.4094.1575ZM365.2754,785.7853l.6088-3.8315h.7086l.6194,3.186c.007-.098.0165-.217.0289-.3571.0121-.1398.0271-.2851.0446-.4354.0175-.1506.0367-.2888.0577-.4146l.315-1.9788h.525l-.609,3.8315h-.7085l-.6141-3.186c-.0071.0945-.0167.209-.0289.3437s-.0272.2757-.0446.4226c-.0177.1469-.0367.2833-.0578.4095l-.315,2.0102h-.5301ZM368.2252,785.7853l1.5851-3.8315h.7454l.3726,3.8315h-.5616l-.0735-.9711h-1.0865l-.3884.9711h-.5932ZM369.3852,784.3418h.8714l-.0893-1.1023c-.0175-.1959-.0298-.3654-.0367-.5089-.0071-.1435-.0105-.2432-.0105-.2993-.0175.0561-.0517.1558-.1024.2993s-.1146.3112-.1915.5038l-.441,1.1075ZM371.7208,785.7853l.6088-3.8315h.567l-.525,3.3118h1.6744l-.0787.5197h-2.2465ZM376.6785,785.8377c-.3673,0-.6342-.1005-.8003-.3019-.1663-.201-.2214-.475-.1654-.8213l.4357-2.7608h.567l-.4357,2.7554c-.0315.1962-.008.35.0708.4619.0787.1122.2144.168.4068.168.1925,0,.3473-.0558.4646-.168.1172-.1119.1915-.2657.2231-.4619l.4355-2.7554h.567l-.4357,2.7608c-.056.35-.2003.6245-.433.8241-.2328.1993-.5328.299-.9003.299ZM379.8435,785.8377c-.385,0-.6736-.0951-.8661-.2859-.1924-.1908-.2641-.4505-.2151-.7794h.5668c-.028.1748.0105.3121.1155.4121.1051.0997.266.1495.483.1495.2029,0,.3701-.049.5012-.1469.1313-.098.2109-.2327.2389-.4044.0209-.1504.0007-.2788-.0604-.3856-.0614-.1068-.1583-.1811-.2913-.2233l-.4566-.1364c-.266-.0803-.4619-.217-.5879-.4095-.126-.1922-.1697-.4197-.1313-.6823.035-.2099.1121-.3935.2309-.551s.2729-.2799.4619-.3673.4024-.1313.6404-.1313c.3498,0,.6158.0954.7978.2859.182.1908.2485.4437.1995.7586h-.5668c.0279-.168-.0027-.3001-.092-.3964-.0891-.0963-.2301-.1444-.4225-.1444-.1889,0-.343.0447-.4619.1338-.119.0894-.1889.2144-.21.3753-.0245.1506-.007.2791.0525.3859s.1575.1811.2939.223l.4672.1469c.2624.0806.4558.2173.5801.4095.1242.1925.1653.4217.1233.6877-.035.217-.1155.4058-.2415.5667-.1259.1612-.2878.2862-.4855.3753-.1976.0894-.419.1338-.6639.1338ZM381.9062,785.7853l.6088-3.8315h2.2518l-.0787.5038h-1.6954l-.1731,1.0867h1.5115l-.0787.4986h-1.5115l-.1942,1.2387h1.6901l-.0787.5038h-2.2518ZM386.9426,785.8377c-.3568,0-.6228-.1005-.7978-.3019-.175-.201-.2345-.473-.1784-.8161l.2677-1.7006c.056-.3429.2029-.6148.4408-.8161.2379-.201.5355-.3019.8923-.3019s.6228.1.7979.2993c.1748.1993.2361.4707.1837.8136l-.2677,1.7057c-.0561.3431-.2039.6151-.4435.8161-.2398.2013-.5381.3019-.895.3019ZM387.0213,785.3339c.1925,0,.3483-.0524.4672-.1575.119-.1051.1942-.2571.2257-.4568l.2678-1.7006c.0315-.1993.0051-.3517-.0787-.4565-.084-.1051-.2223-.1575-.4148-.1575s-.3473.0524-.4645.1575c-.1173.1048-.1916.2571-.2231.4565l-.2677,1.7006c-.0315.1996-.0053.3517.0787.4568s.2204.1575.4094.1575ZM388.9529,785.7853l.6088-3.8315h.7086l.6194,3.186c.007-.098.0165-.217.0289-.3571.0121-.1398.0271-.2851.0446-.4354.0175-.1506.0367-.2888.0577-.4146l.315-1.9788h.525l-.609,3.8315h-.7085l-.6141-3.186c-.0071.0945-.0167.209-.0289.3437s-.0272.2757-.0446.4226c-.0177.1469-.0367.2833-.0578.4095l-.315,2.0102h-.5301ZM392.249,785.7853l.6088-3.8315h.567l-.525,3.3118h1.6744l-.0787.5197h-2.2465ZM396.1174,785.7853l.2204-1.4119-.7506-2.4197h.5774l.4462,1.4486c.0279.0945.0498.1837.0656.2677.0157.084.0253.1469.0288.1888.0175-.0419.0464-.1048.0867-.1888.0402-.084.0883-.1731.1442-.2677l.8976-1.4486h.5984l-1.5275,2.4197-.2204,1.4119h-.5668ZM399.217,785.7853l.6088-3.8315h.7086l.6192,3.186c.0071-.098.0165-.217.029-.3571.012-.1398.0271-.2851.0444-.4354.0177-.1506.037-.2888.0578-.4146l.315-1.9788h.5248l-.6088,3.8315h-.7085l-.6141-3.186c-.0071.0945-.0167.209-.0289.3437s-.0272.2757-.0446.4226c-.0177.1469-.0367.2833-.0578.4095l-.315,2.0102h-.5301ZM403.5053,785.8377c-.3571,0-.6231-.1005-.7979-.3019-.1751-.201-.2344-.473-.1785-.8161l.2677-1.7006c.0561-.3429.203-.6148.4411-.8161.2378-.201.5354-.3019.8922-.3019.3571,0,.6228.1.7979.2993.1748.1993.2361.4707.1837.8136l-.2677,1.7057c-.0561.3431-.2039.6151-.4437.8161-.2395.2013-.5379.3019-.8947.3019ZM403.5839,785.3339c.1925,0,.3483-.0524.4673-.1575.1187-.1051.1942-.2571.2255-.4568l.2677-1.7006c.0316-.1993.0054-.3517-.0786-.4565-.084-.1051-.2224-.1575-.4146-.1575-.1925,0-.3474.0524-.4647.1575-.117.1048-.1914.2571-.223.4565l-.2677,1.7006c-.0316.1996-.0051.3517.0789.4568.0837.1051.2204.1575.4092.1575ZM406.3814,785.7853l.5248-3.3121h-1.0234l.084-.5194h2.6193l-.084.5194h-1.0289l-.5248,3.3121h-.567ZM409.5178,785.7853l.6088-3.8315h2.32l-.084.5194h-1.7636l-.1837,1.1445h1.6272l-.084.5248h-1.6166l-.2571,1.6428h-.567ZM413.7694,785.8377c-.3571,0-.6231-.1005-.7979-.3019-.1751-.201-.2344-.473-.1785-.8161l.2677-1.7006c.0561-.3429.203-.6148.4411-.8161.2378-.201.5354-.3019.8922-.3019.3571,0,.6228.1.7979.2993.1748.1993.2361.4707.1837.8136l-.2677,1.7057c-.0561.3431-.2039.6151-.4437.8161-.2395.2013-.5379.3019-.8947.3019ZM413.848,785.3339c.1925,0,.3483-.0524.4673-.1575.1187-.1051.1942-.2571.2255-.4568l.2677-1.7006c.0316-.1993.0054-.3517-.0786-.4565-.084-.1051-.2224-.1575-.4146-.1575-.1925,0-.3474.0524-.4647.1575-.117.1048-.1914.2571-.223.4565l-.2677,1.7006c-.0316.1996-.0051.3517.0789.4568.0837.1051.2204.1575.4092.1575ZM415.7952,785.7853l.6088-3.8315h1.202c.2381,0,.4391.0464.6037.139.1643.0928.2833.223.3568.391s.0911.3656.0527.5932c-.0387.2591-.1401.4838-.3044.6746-.1646.1905-.3659.3209-.6037.391l.5354,1.6428h-.6194l-.4776-1.5748h-.5408l-.2466,1.5748h-.567ZM416.6876,783.7068h.635c.1891,0,.3491-.0558.4804-.168.131-.1119.2107-.2623.2386-.4514.0316-.1925,0-.3454-.0945-.4593-.0943-.1136-.2361-.1706-.4252-.1706h-.635l-.1993,1.2493ZM420.905,785.8377c-.3602,0-.6308-.1005-.8107-.3019-.1803-.201-.2423-.473-.1865-.8161l.2677-1.7006c.0561-.3463.2056-.6194.4488-.8187s.545-.2993.9056-.2993c.3568,0,.6253.1008.8056.3019.1803.2013.2423.4733.1865.8161h-.567c.0313-.1993.0026-.3517-.0866-.4565-.0894-.1051-.2284-.1575-.4175-.1575-.1925,0-.3508.0524-.475.1575-.1242.1048-.2019.2554-.2335.4514l-.2677,1.7057c-.0316.1996-.0026.3517.0866.4568.0894.1051.2301.1575.4226.1575s.35-.0524.4724-.1575.1993-.2571.2309-.4568h.5667c-.0347.2275-.1145.4252-.2386.5932s-.2808.2976-.4699.3884c-.1888.0908-.4024.1364-.6404.1364ZM424.0335,785.8377c-.3571,0-.6231-.1005-.7979-.3019-.1751-.201-.2344-.473-.1785-.8161l.2677-1.7006c.0561-.3429.203-.6148.4411-.8161.2378-.201.5354-.3019.8922-.3019.3571,0,.6228.1.7979.2993.1748.1993.2361.4707.1837.8136l-.2677,1.7057c-.0561.3431-.2039.6151-.4437.8161-.2395.2013-.5379.3019-.8947.3019ZM424.1121,785.3339c.1925,0,.3483-.0524.4673-.1575.1187-.1051.1942-.2571.2255-.4568l.2677-1.7006c.0316-.1993.0054-.3517-.0786-.4565-.084-.1051-.2224-.1575-.4146-.1575-.1925,0-.3474.0524-.4647.1575-.117.1048-.1914.2571-.223.4565l-.2677,1.7006c-.0316.1996-.0051.3517.0789.4568.0837.1051.2204.1575.4092.1575ZM425.9653,785.7853l.6088-3.8315h.6874l.1837,1.2282c.0211.119.0367.2301.0473.3332.0105.1034.0194.1828.0262.2389.0177-.0561.0473-.1364.0894-.2415.0419-.1051.0908-.217.1469-.336l.5667-1.2228h.7088l-.6088,3.8315h-.5354l.2045-1.2911c.0245-.168.0578-.3525.1-.5539.0419-.201.0874-.4041.1364-.6088s.0963-.3998.1418-.5852c.0453-.1854.0874-.3483.1259-.4881l-.8554,1.8632h-.5513l-.2833-1.8632c-.0037.1364-.0105.2947-.0211.475s-.0236.3719-.0393.5747c-.0157.203-.035.4069-.0578.6114-.0228.2047-.0481.3964-.076.5749l-.2047,1.2911h-.5405ZM429.1145,785.7853l.6088-3.8315h.6874l.1837,1.2282c.0211.119.0367.2301.0473.3332.0105.1034.0194.1828.0262.2389.0177-.0561.0473-.1364.0894-.2415.0419-.1051.0908-.217.1469-.336l.5667-1.2228h.7088l-.6088,3.8315h-.5354l.2045-1.2911c.0245-.168.0578-.3525.1-.5539.0419-.201.0874-.4041.1364-.6088s.0963-.3998.1418-.5852c.0453-.1854.0874-.3483.1259-.4881l-.8554,1.8632h-.5513l-.2833-1.8632c-.0037.1364-.0105.2947-.0211.475s-.0236.3719-.0393.5747c-.0157.203-.035.4069-.0578.6114-.0228.2047-.0481.3964-.076.5749l-.2047,1.2911h-.5405ZM432.4107,785.7853l.6088-3.8315h2.2516l-.0786.5038h-1.6955l-.1731,1.0867h1.5115l-.0786.4986h-1.5118l-.1942,1.2387h1.6901l-.0786.5038h-2.2516ZM435.5073,785.7853l.6088-3.8315h1.202c.2381,0,.4391.0464.6037.139.1643.0928.2833.223.3568.391s.0911.3656.0527.5932c-.0387.2591-.1401.4838-.3044.6746-.1646.1905-.3659.3209-.6037.391l.5354,1.6428h-.6194l-.4776-1.5748h-.5408l-.2466,1.5748h-.567ZM436.3997,783.7068h.635c.1891,0,.3491-.0558.4804-.168.131-.1119.2107-.2623.2386-.4514.0316-.1925,0-.3454-.0945-.4593-.0943-.1136-.2361-.1706-.4252-.1706h-.635l-.1993,1.2493ZM439.8007,785.8377c-.3602,0-.6308-.1005-.8107-.3019-.1803-.201-.2423-.473-.1865-.8161l.2677-1.7006c.0561-.3463.2056-.6194.4488-.8187s.545-.2993.9056-.2993c.3568,0,.6253.1008.8056.3019.1803.2013.2423.4733.1865.8161h-.567c.0313-.1993.0026-.3517-.0866-.4565-.0894-.1051-.2284-.1575-.4175-.1575-.1925,0-.3508.0524-.475.1575-.1242.1048-.2019.2554-.2335.4514l-.2677,1.7057c-.0316.1996-.0026.3517.0866.4568.0894.1051.2301.1575.4226.1575s.35-.0524.4724-.1575.1993-.2571.2309-.4568h.5667c-.0347.2275-.1145.4252-.2386.5932s-.2808.2976-.4699.3884c-.1888.0908-.4024.1364-.6404.1364ZM441.8792,785.7853l.0789-.5038h.7768l.4459-2.824h-.7766l.0837-.5038h2.1258l-.084.5038h-.7766l-.4462,2.824h.7768l-.0789.5038h-2.1258ZM444.7399,785.7853l1.585-3.8315h.7452l.3728,3.8315h-.5616l-.0735-.9711h-1.0867l-.3884.9711h-.5929ZM445.8998,784.3418h.8714l-.0894-1.1023c-.0174-.1959-.0296-.3654-.0367-.5089-.0068-.1435-.0103-.2432-.0103-.2993-.0177.0561-.0518.1558-.1025.2993s-.1148.3112-.1916.5038l-.4408,1.1075ZM448.2354,785.7853l.6088-3.8315h.567l-.5248,3.3118h1.6741l-.0786.5197h-2.2465ZM453.1932,785.8377c-.3676,0-.6345-.1005-.8005-.3019-.1663-.201-.2213-.475-.1654-.8213l.4357-2.7608h.567l-.4357,2.7554c-.0316.1962-.008.35.0709.4619.0786.1122.2141.168.4066.168s.3474-.0558.4645-.168c.1173-.1119.1916-.2657.2233-.4619l.4357-2.7554h.5667l-.4357,2.7608c-.0558.35-.2002.6245-.4328.8241-.2329.1993-.5328.299-.9001.299ZM456.3581,785.8377c-.385,0-.6738-.0951-.866-.2859-.1925-.1908-.2643-.4505-.2153-.7794h.567c-.0282.1748.0105.3121.1153.4121.1051.0997.266.1495.483.1495.2028,0,.3699-.049.5012-.1469s.2107-.2327.2389-.4044c.0211-.1504.0009-.2788-.0604-.3856s-.1583-.1811-.2913-.2233l-.4568-.1364c-.266-.0803-.4619-.217-.5878-.4095-.1259-.1922-.1697-.4197-.1313-.6823.035-.2099.1119-.3935.2309-.551s.2731-.2799.4619-.3673c.1891-.0874.4024-.1313.6404-.1313.3497,0,.6157.0954.7979.2859.1817.1908.2483.4437.1993.7586h-.567c.0279-.168-.0026-.3001-.0917-.3964-.0894-.0963-.2301-.1444-.4226-.1444-.1891,0-.3429.0447-.4619.1338-.119.0894-.1891.2144-.2099.3753-.0245.1506-.0071.2791.0524.3859s.1575.1811.2939.223l.4673.1469c.2623.0806.4556.2173.5798.4095.1242.1925.1654.4217.1236.6877-.035.217-.1156.4058-.2415.5667-.1262.1612-.2879.2862-.4855.3753-.1979.0894-.4192.1338-.6641.1338ZM458.4209,785.7853l.6088-3.8315h2.2516l-.0786.5038h-1.6955l-.1731,1.0867h1.5115l-.0786.4986h-1.5118l-.1942,1.2387h1.6901l-.0786.5038h-2.2516Z" style="fill: #ccc;"/>
  <g>
    <path d="M108.1103,113.7953l-.9752.4982.0862,1.093c4.9603,61.9746,20.0509,160.2202,63.7918,276.3134,37.0078,98.2204,106.577,239.9221,227.8462,357.1969l1.1407,1.1033,1.1407-1.1033c121.2692-117.2704,190.8395-258.9718,227.8473-357.1946,43.7408-116.0955,58.8327-214.3411,63.7906-276.3157l.0862-1.093-.974-.4982c-80.4237-41.1394-184.0869-63.7953-291.8908-63.7953s-211.467,22.6559-291.8897,63.7953Z" style="fill: #0c419a;"/>
    <path d="M400,53.2814c106.864,0,209.5784,22.3597,289.4119,62.9531-5.0305,61.8224-20.1404,159.2427-63.4933,274.311-36.7714,97.5907-105.8105,238.2207-225.9186,354.8462-120.1102-116.6302-189.1472-257.2579-225.9165-354.8486-43.3538-115.0648-58.4638-212.4863-63.493-274.3087,79.8323-40.5933,182.5478-62.9531,289.4096-62.9531Z" style="fill: #fff;"/>
    <path d="M400,70.2541c-103.3125,0-198.0393,20.7876-270.9977,55.1084,3.1338,33.5344,8.6264,69.4104,16.8534,107.2206,71.181-30.3732,159.1269-48.3742,254.1443-48.3742s182.9632,18.0011,254.1454,48.3742c8.227-37.8103,13.7185-73.6863,16.8511-107.2206-72.9596-34.3208-167.6829-55.1084-270.9965-55.1084Z" style="fill: #0c419a;"/>
    <path d="M400,353.035c-6.4029,0-11.6254,5.2201-11.6254,11.6254,0,6.4017,5.2225,11.6242,11.6254,11.6242s11.6231-5.2225,11.6231-11.6242c0-6.4052-5.2213-11.6254-11.6231-11.6254Z" style="fill: #0c419a;"/>
    <polygon points="399.4495 236.5513 400.5493 236.5513 473.7155 276.4556 480.1763 276.4556 399.9988 232.725 319.819 276.4556 326.2833 276.4556 399.4495 236.5513" style="fill: #0c419a;"/>
    <path d="M547.2179,487.6048H252.7856c-4.9114,1.78-8.724,5.3689-11.6379,11.3099l1.3736,3.4416h314.9554l1.3734-3.4416c-2.9104-5.941-6.7242-9.53-11.6322-11.3099Z" style="fill: #0c419a;"/>
    <path d="M418.6016,364.6604c0,6.6888-3.5755,12.5548-8.8991,15.8329h124.9888l-44.7169-33.5865h-84.4306c7.5503,2.3688,13.0578,9.4368,13.0578,17.7535Z" style="fill: #0c419a;"/>
    <path d="M400,259.7714c-3.2019,0-5.8127,2.6105-5.8127,5.8127s2.6108,5.8115,5.8127,5.8115,5.8115-2.6108,5.8115-5.8115-2.6105-5.8127-5.8115-5.8127Z" style="fill: #0c419a;"/>
    <path d="M546.1077,524.2267c2.9262-5.4166,5.8048-10.8445,8.6106-16.286H245.2817c2.8081,5.4415,5.6844,10.8694,8.6106,16.286h292.2154Z" style="fill: #0c419a;"/>
    <path d="M400,721.1557c59.6-58.533,106.0286-123.8219,143.0771-191.3446h-286.153c37.0485,67.5228,83.4771,132.8116,143.0759,191.3446Z" style="fill: #0c419a;"/>
    <path d="M650.0774,250.4955c-69.282-29.8601-156.06-47.6727-250.0773-47.6727s-180.7953,17.8126-250.0741,47.6727c10.2383,43.2541,24.0202,88.8836,41.8897,136.3087,13.3575,35.4527,28.5423,71.1527,46.0529,106.4714,2.966-4.7741,6.8569-8.3268,11.597-10.3745v-97.4919l56.6113-42.5216v-65.297l93.922-51.2254,93.9208,51.2254v65.297l56.6171,42.5195v97.494c4.7378,2.0478,8.6287,5.6005,11.5959,10.3745,17.5094-35.3188,32.6943-71.0188,46.0541-106.4714,17.8681-47.4251,31.648-93.0526,41.8907-136.3087Z" style="fill: #0c419a;"/>
    <path d="M399.9988,238.868l-68.9166,37.5876h64.8429c-4.4007-1.6584-7.5505-5.9022-7.5505-10.8715,0-6.4029,5.2225-11.6254,11.6254-11.6254s11.6231,5.2225,11.6231,11.6254c0,4.9693-3.1487,9.2131-7.5483,10.8715h64.8418l-68.9178-37.5876Z" style="fill: #0c419a;"/>
    <path d="M325.3163,309.4328c0-8.1943,6.7365-15.0544,15.1109-15.0544,8.3133,0,15.1123,6.773,15.1123,15.0544v24.3789h9.4586v-24.3789c0-8.1943,6.7377-15.0544,15.1111-15.0544,8.313,0,15.1144,6.773,15.1144,15.0544v24.3789h9.5551v-24.3789c0-8.1943,6.7377-15.0544,15.1121-15.0544,8.311,0,15.1123,6.773,15.1123,15.0544v24.3789h9.4575v-24.3789c0-8.1943,6.7353-15.0544,15.1123-15.0544,8.313,0,15.11,6.773,15.11,15.0544v24.3789h13.6524v-51.7726h-176.674v51.7726h13.655v-24.3789Z" style="fill: #0c419a;"/>
    <path d="M544.95,482.018v-58.9303h-122.6119v58.9303h19.5867v-28.9872c0-9.2076,7.8047-16.9169,17.5027-16.9169,9.6297,0,17.5071,7.6138,17.5071,16.9169v28.9872h14.1929v-28.9872c0-9.3031,7.8772-16.9169,17.5048-16.9169,9.7004,0,17.505,7.7093,17.505,16.9169v28.9872h18.8126Z" style="fill: #0c419a;"/>
    <path d="M273.8626,453.0308c0-9.2076,7.8047-16.9169,17.505-16.9169,9.6276,0,17.5027,7.6138,17.5027,16.9169v28.9872h14.1962v-28.9872c0-9.2076,7.8035-16.9169,17.505-16.9169,9.6276,0,17.5036,7.6138,17.5036,16.9169v28.9872h19.5856v-58.9303h-122.6107v58.9303h18.8126v-28.9872Z" style="fill: #0c419a;"/>
    <path d="M544.95,393.7453h-140.7367c10.2883,1.9194,18.1248,10.7093,18.1248,21.1905v2.9013h122.6119v-24.0918Z" style="fill: #0c419a;"/>
    <rect x="311.6613" y="339.0602" width="176.674" height="2.5959" style="fill: #0c419a;"/>
    <path d="M381.3985,364.6604c0-8.3168,5.5063-15.3847,13.0566-17.7535h-84.4306l-44.7169,33.5865h124.9911c-5.3248-3.2782-8.9002-9.1441-8.9002-15.8329Z" style="fill: #0c419a;"/>
    <path d="M377.6607,414.9357c0-10.3813,7.7809-19.2608,18.1315-21.1905h-140.7422v24.0918h122.6107v-2.9013Z" style="fill: #0c419a;"/>
    <polygon points="544.95 388.1992 541.6832 385.7442 258.3179 385.7442 255.05 388.1992 255.05 388.4956 544.95 388.4956 544.95 388.1992" style="fill: #0c419a;"/>
    <path d="M416.8602,613.4428c-.0316-.218-.0477-.3838-.0477-.5221,0-1.5119.4315-3.1647,1.2646-4.9786.8513-1.816,2.4357-4.3063,4.7764-7.4846.656-.8808,1.6321-2.1884,2.9169-3.9067,6.6335-8.681,9.95-15.6981,9.95-21.0738,0-4.5969-1.3281-8.0225-4.0067-10.2927-2.6742-2.2702-6.7288-3.4097-12.1317-3.4097-5.7978,0-9.934,1.1532-12.4176,3.4779-2.4834,2.3246-3.732,6.286-3.732,11.8727v6.8513h13.6683v-10.8422c0-1.0986.1748-1.8706.5109-2.2951.354-.4291.9308-.6469,1.7797-.6469.7855,0,1.362.2339,1.7297.7037.3678.4654.5607,1.2214.5607,2.2384v4.6378c0,2.5994-2.5947,7.303-7.7886,14.102-1.2804,1.6619-2.2565,2.9581-2.9467,3.8775-3.0762,4.0727-5.1123,7.3188-6.1044,9.7139-1.0103,2.3927-1.5073,4.7854-1.5073,7.2077v9.8366h32.4809v-8.5857h-18.9079c0-.109-.0158-.2724-.0477-.4812Z" style="fill: #fff;"/>
    <path d="M468.6351,565.2524c-2.4836-2.3246-6.6333-3.4779-12.4176-3.4779-5.7548,0-9.8887,1.167-12.4039,3.5188-2.5017,2.3541-3.7503,6.3018-3.7503,11.8318v31.3665c0,5.5572,1.2485,9.5049,3.7343,11.8432,2.4813,2.3404,6.6333,3.5097,12.4199,3.5097s9.934-1.1693,12.4176-3.5097c2.4857-2.3383,3.7343-6.286,3.7343-11.8432v-31.3665c0-5.5867-1.2485-9.5481-3.7343-11.8727ZM458.524,611.958c0,1.0442-.1771,1.7888-.513,2.2428-.3543.4405-.9466.6583-1.7934.6583-.8513,0-1.4596-.2315-1.8434-.6855-.3701-.454-.563-1.1986-.563-2.2156v-38.8238c0-.9624.1929-1.6912.5949-2.1565.3859-.47.9943-.7039,1.8116-.7039.8469,0,1.4392.2067,1.7934.6221.3359.4245.513,1.167.513,2.2384v38.8238Z" style="fill: #fff;"/>
    <path d="M340.231,568.0447c-1.7958,1.1986-4.0239,1.7888-6.6821,1.7888h-.3373v7.21h7.6119v45.4662h13.7489v-59.4457h-10.8329c-.5449,2.1203-1.6981,3.7866-3.5085,4.9807Z" style="fill: #fff;"/>
    <path d="M381.6891,561.7745c-5.7853,0-9.9352,1.167-12.4197,3.5074-2.4836,2.3381-3.7333,6.286-3.7333,11.8432v14.1839c0,3.3279.9615,5.8887,2.8683,7.664,1.9069,1.7727,4.6469,2.6538,8.2201,2.6538,1.3792,0,2.6596-.1839,3.8456-.5495,1.1862-.3654,2.3723-.9103,3.5255-1.664v12.5448c0,1.0442-.1667,1.7955-.5107,2.2428-.345.4449-.9466.6583-1.7957.6583-.8501,0-1.4641-.2269-1.842-.6855-.3747-.4493-.5619-1.1986-.5619-2.2156v-7.2644h-13.7492v7.664c0,3.6048,1.4268,6.4108,4.278,8.4472,2.8356,2.0226,6.7946,3.0397,11.8751,3.0397,5.7197,0,9.8389-1.1693,12.3234-3.5097,2.4825-2.3383,3.7333-6.286,3.7333-11.8432v-31.3665c0-5.5844-1.2304-9.5504-3.7015-11.8727-2.479-2.3293-6.6026-3.4779-12.3553-3.4779ZM383.9955,588.571c0,1.0465-.1769,1.789-.5437,2.243-.354.4403-.9454.6607-1.7627.6607-.8501,0-1.4676-.2134-1.842-.6607-.3768-.4473-.5619-1.1965-.5619-2.243v-14.9124c0-1.0465.185-1.7958.5619-2.2428.3768-.4473.9919-.6607,1.842-.6607.8173,0,1.4087.2225,1.7627.6607.3668.4561.5437,1.1962.5437,2.2428v14.9124Z" style="fill: #fff;"/>
    <polygon points="536.8434 136.8017 521.4905 134.3695 524.1875 117.3424 540.5391 119.9313 542.4711 107.7338 510.2329 102.6274 498.7732 174.973 514.6596 177.4894 519.6085 146.2466 534.9637 148.6779 536.8434 136.8017" style="fill: #fff;"/>
    <polygon points="214.82 179.6164 209.9878 161.5881 225.6099 157.4022 222.2011 144.678 206.5793 148.8641 202.4954 133.6237 219.1979 129.147 215.8958 116.8212 184.9769 125.1061 203.9357 195.8569 236.1783 187.2179 232.8469 174.7868 214.82 179.6164" style="fill: #fff;"/>
    <rect x="425.6705" y="126.3357" width="73.2459" height="16.139" transform="translate(295.9608 586.1943) rotate(-85.9991)" style="fill: #fff;"/>
    <rect x="528.925" y="168.0526" width="13.51" height="12.5829" transform="translate(266.6006 669.2634) rotate(-79.496)" style="fill: #fff;"/>
    <rect x="600.3575" y="184.7425" width="13.511" height="12.5826" transform="translate(256.1819 722.0022) rotate(-74.0049)" style="fill: #fff;"/>
    <path d="M580.2505,169.9458c-1.0215,3.8161-2.0771,6.2881-3.1668,7.4346-1.0942,1.1453-2.581,1.4675-4.4472.967-1.9545-.5233-3.1213-1.6084-3.5208-3.2586-.395-1.6528.0046-4.6857,1.1985-9.1397l7.8388-29.2597c1.2076-4.5028,2.3678-7.3688,3.4892-8.5583,1.1237-1.1918,2.6673-1.5143,4.6037-.9966,1.9025.5107,3.0601,1.5573,3.4372,3.1496.3768,1.5938-.0523,4.655-1.2578,9.1578l-.4131,1.5391,15.067,4.0374.7332-2.7354c2.0475-7.647,2.018-13.3928-.0953-17.2235-2.1091-3.8468-6.7923-6.7332-14.0476-8.6775-7.9341-2.1273-13.9182-1.8344-17.9567.8922-4.0409,2.7251-7.3325,8.8807-9.9068,18.4911l-6.1021,22.7775c-2.5903,9.6595-2.8286,16.6842-.7106,21.061,2.0954,4.387,7.1077,7.6436,15.0079,9.7606,7.3235,1.9613,12.8602,1.8137,16.6082-.4631,3.748-2.26,6.6605-7.2725,8.7354-15.0158l1.0398-3.8819-15.0669-4.0365-1.067,3.9786Z" style="fill: #fff;"/>
    <polygon points="268.8626 106.4558 268.5618 155.3851 253.2872 109.2016 230.8266 113.163 243.545 185.2975 257.4018 182.8525 247.9388 129.1879 265.6855 181.3929 279.858 178.8946 279.6753 123.5919 289.1383 177.2567 303.7216 174.6857 291.0031 102.5523 268.8626 106.4558" style="fill: #fff;"/>
    <path d="M347.9789,116.8747c-.6311-7.193-2.8446-12.151-6.6119-14.8717-3.7763-2.7263-9.9486-3.724-18.5104-2.975l-17.3983,1.5222,6.3836,72.9677,15.0168-1.3134-2.488-28.4379,5.0625-.4426c7.0861-.6197,12.17-2.6912,15.2427-6.1997,3.0715-3.5118,4.3142-8.681,3.7184-15.5038l-.4154-4.7457ZM331.3331,130.2435c-1.0147,1.4494-2.9692,2.3018-5.8478,2.5527l-2.0589.1804-1.9989-22.8477,2.0601-.1804c2.8774-.2508,4.9489.2473,6.1997,1.4824,1.2497,1.2348,2.0364,3.5834,2.3372,7.0443l.3803,4.3403c.3064,3.4951-.0558,5.9773-1.0716,7.4281Z" style="fill: #fff;"/>
    <polygon points="429.2757 95.9462 413.1964 95.5264 411.2802 168.7482 445.8588 169.6529 446.1517 157.4464 427.6547 156.9628 429.2757 95.9462" style="fill: #fff;"/>
    <path d="M381.7276,94.3868c-8.1791,0-13.8658,1.8467-17.0248,5.5423-3.1782,3.6778-4.7673,10.4745-4.7673,20.3745v23.5969c0,10.0009,1.5891,16.8488,4.7673,20.5287,3.1589,3.6947,8.8456,5.5426,17.0248,5.5426,8.142,0,13.8105-1.866,17.0069-5.5949,3.1952-3.7115,4.782-10.5435,4.782-20.4763v-23.5969c0-9.9001-1.5868-16.6968-4.765-20.3745-3.1601-3.6957-8.8456-5.5423-17.0238-5.5423ZM387.4859,147.2727c0,4.6299-.4154,7.6798-1.2634,9.1204-.8489,1.4415-2.3472,2.1521-4.4949,2.1521-2.1861,0-3.6831-.7106-4.5151-2.117-.8299-1.4085-1.2441-4.4586-1.2441-9.1555v-30.2913c0-4.6288.4142-7.6787,1.2646-9.1362.8478-1.4585,2.346-2.1872,4.4946-2.1872,2.1828,0,3.6833.7127,4.5121,2.1191.8308,1.4076,1.2462,4.4756,1.2462,9.2043v30.2913Z" style="fill: #fff;"/>
    <path d="M277.7626,417.417c6.4029,0,11.6254-5.2213,11.6254-11.6231,0-6.4052-5.2225-11.6277-11.6254-11.6277s-11.6242,5.2225-11.6242,11.6277c0,6.4017,5.2225,11.6231,11.6242,11.6231ZM277.7626,399.9801c3.2021,0,5.8127,2.6108,5.8127,5.8139,0,3.2008-2.6105,5.8115-5.8127,5.8115s-5.8115-2.6108-5.8115-5.8115c0-3.2031,2.6108-5.8139,5.8115-5.8139Z" style="fill: #fff;"/>
    <path d="M313.6613,417.417c6.4029,0,11.6254-5.2213,11.6254-11.6231,0-6.4052-5.2225-11.6277-11.6254-11.6277s-11.6254,5.2225-11.6254,11.6277c0,6.4017,5.2225,11.6231,11.6254,11.6231ZM313.6613,399.9801c3.2019,0,5.8127,2.6108,5.8127,5.8139,0,3.2008-2.6108,5.8115-5.8127,5.8115s-5.8115-2.6108-5.8115-5.8115c0-3.2031,2.6105-5.8139,5.8115-5.8139Z" style="fill: #fff;"/>
    <path d="M349.5601,417.417c6.4029,0,11.6252-5.2213,11.6252-11.6231,0-6.4052-5.2222-11.6277-11.6252-11.6277s-11.6254,5.2225-11.6254,11.6277c0,6.4017,5.2225,11.6231,11.6254,11.6231ZM349.5601,399.9801c3.2008,0,5.8125,2.6108,5.8125,5.8139,0,3.2008-2.6117,5.8115-5.8125,5.8115s-5.8127-2.6108-5.8127-5.8115c0-3.2031,2.6117-5.8139,5.8127-5.8139Z" style="fill: #fff;"/>
    <path d="M522.2374,417.417c6.4017,0,11.6254-5.2213,11.6254-11.6231,0-6.4052-5.2237-11.6277-11.6254-11.6277s-11.6277,5.2225-11.6277,11.6277c0,6.4017,5.2236,11.6231,11.6277,11.6231ZM522.2374,399.9801c3.2007,0,5.8115,2.6108,5.8115,5.8139,0,3.2008-2.6108,5.8115-5.8115,5.8115-3.2031,0-5.8139-2.6108-5.8139-5.8115,0-3.2031,2.6107-5.8139,5.8139-5.8139Z" style="fill: #fff;"/>
    <path d="M400,358.8477c-3.2019,0-5.8127,2.6105-5.8127,5.8127s2.6108,5.8115,5.8127,5.8115,5.8115-2.6108,5.8115-5.8115-2.6105-5.8127-5.8115-5.8127Z" style="fill: #fff;"/>
    <path d="M474.6419,354.4108c-3.1464-.0058-3.8093,1.3336-3.7821,4.6209l.0046,3.4051,2.7423.0263c1.462.0123,2.7558.1123,3.3688-1.2374,1.4392-3.1736,9.3552-4.5004,15.6049-5.8013,3.555-.739,1.8955-.9749-.0432-.9784l-17.8953-.0351Z" style="fill: #fff;"/>
    <path d="M333.8269,375.011c4.2575,2.1238,10.649,2.9023,16.683,1.7195-3.4948-1.5696-10.9931-3.4209-10.9747-8.6445.0249-6.2407,12.0952-8.6527,18.6887-8.9421-6.9762-3.4074-18.9477-3.0259-25.2258,1.7934-5.219,4.0067-5.825,10.7537.8287,14.0737Z" style="fill: #fff;"/>
    <path d="M478.1016,373.3175l.0044,3.4063,2.7423.026c1.4619.0137,2.7558.1102,3.3688-1.236,1.4394-3.1747,9.3552-4.5028,15.6049-5.8013,3.555-.7402,1.8955-.9761-.0453-.9784l-17.8932-.0351c-3.1487-.0091-3.8093,1.3325-3.7819,4.6185Z" style="fill: #fff;"/>
    <path d="M300.1779,369.7125c6.2486,1.2985,14.1667,2.6266,15.6072,5.8013.6116,1.3462,1.9069,1.2497,3.3665,1.236l2.74-.026.0046-3.4063c.0307-3.2861-.6323-4.6276-3.7821-4.6185l-17.8909.0351c-1.9397.0023-3.598.2383-.0453.9784Z" style="fill: #fff;"/>
    <path d="M307.4174,355.4243c6.2506,1.3009,14.1678,2.6277,15.6093,5.8013.6118,1.3497,1.9057,1.2497,3.3644,1.2374l2.7421-.0263.0046-3.4051c.0307-3.2872-.6323-4.6267-3.7821-4.6209l-17.8918.0351c-1.9399.0035-3.5994.2394-.0465.9784Z" style="fill: #fff;"/>
    <path d="M467.0007,360.9373c-6.2769-4.8194-18.2496-5.2009-25.2258-1.7934,6.5924.2894,18.665,2.7014,18.6878,8.9421.0205,5.2236-7.4778,7.075-10.9738,8.6445,6.034,1.1828,12.4267.4043,16.683-1.7195,6.6561-3.32,6.0477-10.067.8287-14.0737Z" style="fill: #fff;"/>
    <path d="M486.3375,417.417c6.4041,0,11.6277-5.2213,11.6277-11.6231,0-6.4052-5.2236-11.6277-11.6277-11.6277s-11.6231,5.2225-11.6231,11.6277c0,6.4017,5.2213,11.6231,11.6231,11.6231ZM486.317,399.9801c3.201,0,5.8115,2.6108,5.8115,5.8139,0,3.2008-2.6105,5.8115-5.8115,5.8115-3.2031,0-5.8136-2.6108-5.8136-5.8115,0-3.2031,2.6105-5.8139,5.8136-5.8139Z" style="fill: #fff;"/>
    <path d="M450.4378,417.417c6.4038,0,11.6275-5.2213,11.6275-11.6231,0-6.4052-5.2236-11.6277-11.6275-11.6277s-11.6231,5.2225-11.6231,11.6277c0,6.4017,5.2213,11.6231,11.6231,11.6231ZM450.4378,400.2117c3.0759,0,5.5844,2.5085,5.5844,5.5823,0,3.0715-2.5085,5.5777-5.5844,5.5777-3.0715,0-5.5756-2.5062-5.5756-5.5777,0-3.0738,2.5041-5.5823,5.5756-5.5823Z" style="fill: #fff;"/>
  </g>
</svg>