<?xml version="1.0" encoding="UTF-8"?>
<svg data-name="图层_1" xmlns="http://www.w3.org/2000/svg" xmlns:xlink="http://www.w3.org/1999/xlink" version="1.1" viewBox="0 0 800 800">
  <!-- Created by @FCLOGO 2025-1-21 GMT+8 21:56:15 . https://fclogo.top/ -->
<!-- FOR PERSONAL USE ONLY NOT FOR COMMERCIAL USE -->
  <defs>
    <radialGradient id="_未命名的渐变_2" data-name="未命名的渐变 2" cx="218.9572" cy="186.7503" fx="218.9572" fy="186.7503" r="466.3079" gradientTransform="translate(-.3333 55.5196) scale(1.3333)" gradientUnits="userSpaceOnUse">
      <stop offset="0" stop-color="#5087ce"/>
      <stop offset=".1306" stop-color="#5087ce"/>
      <stop offset=".5168" stop-color="#1d4c90"/>
      <stop offset=".5655" stop-color="#1d4c90"/>
      <stop offset=".7696" stop-color="#07121f"/>
      <stop offset="1" stop-color="#07121f"/>
    </radialGradient>
  </defs>
  <path d="M348.2194,774.301c-.786,0-1.3752-.2173-1.7682-.6519-.393-.4352-.5284-1.03-.406-1.7856l.2518-1.6478c.122-.755.4501-1.3504.9841-1.785.5339-.4352,1.1939-.6525,1.9799-.6525.7553,0,1.3293.1987,1.7223.5954.3927.3967.551.9381.4747,1.6248h-1.2358c.0304-.3589-.0553-.637-.2573-.8357-.2024-.1981-.4979-.2974-.8869-.2974-.4197,0-.763.1167-1.03.3489-.2673.2328-.4349.5631-.5035.9903l-.2632,1.659c-.0686.4352-.0056.7686.1887,1.0015.1946.2328.5017.3489.9214.3489.389,0,.7152-.0987.9785-.2974.2632-.1981.4365-.4805.5206-.8469h1.2358c-.1372.6867-.4672,1.2306-.9897,1.631-.5228.4005-1.1616.6004-1.9169.6004ZM352.7967,774.1868l.9956-6.2943h1.1902l-.1946,1.1902c.3359-.8698.9729-1.3044,1.9113-1.3044.6712,0,1.1691.208,1.4932.624.3244.416.4293.9859.3148,1.7105l-.0686.4234h-1.2703l.0571-.3204c.0689-.4501.0115-.7953-.1714-1.0356-.1832-.2403-.4771-.3607-.8813-.3607-.4045,0-.7401.1223-1.007.3663-.2673.2446-.4349.588-.5035,1.03l-.6296,3.9711h-1.2358ZM361.9058,774.301c-.7705,0-1.3463-.2229-1.7279-.6693s-.515-1.0356-.4005-1.7682l.2518-1.6478c.0838-.488.2573-.9152.5206-1.2815s.6007-.6507,1.0129-.8524c.4119-.2024.8732-.3036,1.3845-.3036.7705,0,1.3485.2235,1.7338.6693.3852.4464.5169,1.0356.3949,1.7682l-.1717,1.1213h-3.845l-.0916.5265c-.1527.9536.2173,1.4305,1.1098,1.4305.7171,0,1.175-.2477,1.3734-.7438h1.2247c-.1679.5339-.5035.9599-1.007,1.2759-.5038.3166-1.0912.475-1.7626.475ZM361.2306,770.2157l-.0456.2862,2.6548-.0118.0459-.2856c.0686-.4656.0133-.822-.1661-1.0704-.1791-.2477-.4861-.3719-.9211-.3719-.4427,0-.7953.126-1.0586.3775-.2632.2521-.4331.6109-.5094,1.076ZM368.3258,774.301c-.6333,0-1.1027-.2117-1.4078-.6351s-.3967-1.0008-.2744-1.7335l.2744-1.7738c.1145-.7326.393-1.3119.8357-1.7397.4424-.4272.98-.6407,1.6133-.6407.4653,0,.8298.1186,1.093.3545.2632.2365.3908.5575.3834.9617h.023l.1717-1.202h1.2358l-.9956,6.2943h-1.2247l.1946-1.2014h-.023c-.122.4116-.3511.7339-.6867.9667s-.7401.3489-1.2129.3489ZM368.9324,773.2257c.389,0,.7152-.1186.9782-.3551.2632-.2359.4293-.5718.4979-1.007l.2518-1.6478c.0686-.4272.0096-.7612-.1773-1.0015-.1872-.2403-.475-.3601-.8642-.3601-.3967,0-.7249.118-.9841.3545-.2595.2365-.4234.5724-.492,1.007l-.2518,1.6478c-.0686.4427-.0133.7804.1658,1.0133.1794.2328.4712.3489.8757.3489ZM376.3477,774.1868c-.5721,0-.9937-.1565-1.2644-.4694-.271-.3123-.3607-.7512-.2691-1.3156l.538-3.3874h-1.7394l.1714-1.1219h1.7397l.2747-1.7161h1.2358l-.2747,1.7161h2.472l-.1832,1.1219h-2.4605l-.5377,3.3874c-.0764.4421.099.6637.5262.6637h1.7167l-.1717,1.1213h-1.7738ZM382.5042,774.301c-.7705,0-1.3463-.2229-1.7279-.6693s-.515-1.0356-.4005-1.7682l.2518-1.6478c.0838-.488.2573-.9152.5206-1.2815s.6007-.6507,1.0129-.8524c.4119-.2024.8732-.3036,1.3845-.3036.7705,0,1.3485.2235,1.7338.6693.3852.4464.5169,1.0356.3949,1.7682l-.1717,1.1213h-3.845l-.0916.5265c-.1527.9536.2173,1.4305,1.1098,1.4305.7171,0,1.175-.2477,1.3734-.7438h1.2247c-.1679.5339-.5035.9599-1.007,1.2759-.5038.3166-1.0912.475-1.7626.475ZM381.829,770.2157l-.0456.2862,2.6548-.0118.0459-.2856c.0686-.4656.0133-.822-.1661-1.0704-.1791-.2477-.4861-.3719-.9211-.3719-.4427,0-.7953.126-1.0586.3775-.2632.2521-.4331.6109-.5094,1.076ZM388.9243,774.301c-.6333,0-1.1008-.2117-1.4019-.6351-.3014-.4234-.3949-1.0008-.2803-1.7335l.2744-1.7738c.1145-.7326.393-1.3119.8357-1.7397.4424-.4272.98-.6407,1.6133-.6407.4653,0,.8298.1186,1.093.3545.2632.2365.3908.5575.3834.9617h.023l.2058-1.4652.2977-1.7962h1.2358l-1.3274,8.3537h-1.2247l.1946-1.2014h-.023c-.122.4116-.3511.7339-.6867.9667s-.7401.3489-1.2129.3489ZM389.5309,773.2257c.389,0,.7152-.1186.9782-.3551.2632-.2359.4293-.5718.4979-1.007l.2518-1.6478c.0761-.4272.0189-.7612-.1717-1.0015-.1909-.2403-.4805-.3601-.8698-.3601-.3967,0-.7249.118-.9841.3545-.2595.2365-.4234.5724-.492,1.007l-.2518,1.6478c-.0764.4427-.023.7804.1602,1.0133s.4768.3489.8813.3489ZM401.0175,774.301c-.4731,0-.8394-.1161-1.0986-.3489-.2595-.2328-.3852-.5551-.3775-.9667h-.0115l-.1946,1.2014h-1.2243l1.3274-8.3537h1.2358l-.2862,1.7962-.2744,1.4652h.0456c.122-.4123.353-.7345.6923-.9673.3396-.2322.7419-.3489,1.2076-.3489.633,0,1.1002.2136,1.4016.6407.3014.4278.3949,1.007.2806,1.7397l-.2747,1.7738c-.1145.7326-.3949,1.31-.8413,1.7335-.4461.4234-.9822.6351-1.6077.6351ZM400.7657,773.2257c.3967,0,.7227-.1161.9785-.3489.2555-.2328.4216-.5706.4976-1.0133l.2518-1.6478c.0689-.4346.0115-.7705-.1714-1.007-.1832-.2365-.4734-.3545-.8698-.3545-.3893,0-.7152.1198-.9785.3601s-.429.5743-.4979,1.0015l-.2518,1.6478c-.0686.4352-.0112.7711.1717,1.007.1832.2365.4731.3551.8698.3551ZM405.4694,776.2468l.1717-1.0642h1.934c.6407,0,1.007-.3017,1.0986-.9046l.1028-.6749.2061-1.1902h-.0345c-.122.4197-.3471.7438-.6752.9729-.3281.2285-.7286.3433-1.2014.3433-.6258,0-1.093-.2005-1.4019-.601s-.4104-.9443-.3033-1.631l.5836-3.6047h1.2358l-.5606,3.4793c-.0612.4116,0,.732.1832.9611s.4653.3433.8469.3433c.389,0,.7168-.1217.9841-.3663.267-.244.4309-.5836.492-1.0182l.538-3.3992h1.2358l-1.007,6.4086c-.0993.6029-.37,1.0778-.8124,1.4249-.4427.3471-.9996.5209-1.6707.5209h-1.9455ZM417.787,770.0853h3.221l.5368-1.8545h-5.4659l-1.7081,6.4419h2.1473l.5856-2.0985h3.0257l.4392-1.7081h-3.0257l.244-.7808ZM424.229,772.9158c-.5856,0-1.0249-.3904-1.0249-1.1225,0-.8784.6344-1.7569,1.6105-1.7569.488,0,.8784.244,1.0248.7808l1.9521-.8296c-.2928-1.1713-1.2689-1.9033-2.6353-1.9033-2.7817,0-4.1482,2.1473-4.1482,3.9042s1.2689,2.8305,3.0746,2.8305c1.3665,0,2.3425-.5856,2.9769-1.4153l-1.5129-1.1713c-.3904.4392-.8296.6832-1.3177.6832ZM430.9149,768.2308h-2.1473l-1.7569,6.4419h5.1242l.488-1.8545h-2.9281l1.2201-4.5874ZM439.7481,771.0125c0-1.6593-1.3177-2.9281-3.221-2.9281-2.1961,0-3.8066,1.8057-3.8066,3.8066,0,1.6593,1.3177,2.9281,3.221,2.9281,2.1961,0,3.8066-1.8057,3.8066-3.8066ZM434.9167,771.6957c0-.8296.5856-1.7081,1.5129-1.7081.7808,0,1.1713.5368,1.1713,1.2201,0,.8296-.5856,1.7081-1.5129,1.7081-.7808,0-1.1713-.5368-1.1713-1.2201ZM443.2131,772.2326h1.0737l-.1952.6832c-.1464.0488-.3416.0976-.5856.0976-.6832,0-1.2689-.3904-1.2689-1.2201,0-1.0249.732-1.9033,1.9521-1.9033.5856,0,1.1225.244,1.5129.5856l1.3665-1.3665c-.4392-.5368-1.5129-1.0737-2.7329-1.0737-2.5865,0-4.2946,1.7569-4.2946,3.8554,0,2.0497,1.6105,2.8793,3.221,2.8793.9272,0,1.8545-.2928,2.4889-.6832l.9272-3.3186h-3.1234l-.3416,1.4641ZM450.7775,768.0844c-2.1961,0-3.8066,1.8057-3.8066,3.8066,0,1.6593,1.3177,2.9281,3.221,2.9281,2.1961,0,3.8066-1.8057,3.8066-3.8066,0-1.6593-1.3177-2.9281-3.221-2.9281ZM450.3382,772.9158c-.7808,0-1.1713-.5368-1.1713-1.2201,0-.8296.5856-1.7081,1.5129-1.7081.7808,0,1.1713.5368,1.1713,1.2201,0,.8296-.5856,1.7081-1.5129,1.7081ZM437.9424,767.4987c-.0488.2928.0976.488.4392.488s.5368-.1952.6344-.488c.0488-.244-.0976-.488-.4392-.488s-.5856.244-.6344.488ZM432.1349,765.4978c-.4392,0-.732.244-.7808.5856s.0976.5856.5368.5856.732-.244.7808-.5856c.0976-.3416-.0976-.5856-.5368-.5856ZM433.0134,767.3035c-.0976.5368.1464.8784.8296.8784.6344,0,1.0737-.3904,1.1713-.8784s-.1464-.8784-.8296-.8784c-.6832,0-1.0737.3904-1.1713.8784ZM439.6017,777.552l-2.4401-1.8057h-1.5129l4.2458,3.1722,1.6105-3.1722h-.976l-.9272,1.8057ZM425.8394,767.1571l-2.0009-1.4641,23.1323-2.7817-2.1473,4.2458h1.0248l2.6841-5.3195-26.9877,3.221,2.7817,2.0985h1.5129ZM338.7186,785.7853l.6088-3.8315h2.32l-.084.5194h-1.7636l-.1837,1.1445h1.6272l-.084.5248h-1.6166l-.2573,1.6428h-.5668ZM342.97,785.8377c-.3568,0-.6228-.1005-.7978-.3019-.175-.201-.2345-.473-.1784-.8161l.2677-1.7006c.056-.3429.2029-.6148.4408-.8161.2379-.201.5355-.3019.8923-.3019s.6228.1.7979.2993c.1748.1993.2361.4707.1837.8136l-.2677,1.7057c-.0561.3431-.2039.6151-.4435.8161-.2398.2013-.5381.3019-.895.3019ZM343.0487,785.3339c.1925,0,.3483-.0524.4672-.1575.119-.1051.1942-.2571.2257-.4568l.2678-1.7006c.0315-.1993.0051-.3517-.0787-.4565-.084-.1051-.2223-.1575-.4148-.1575s-.3473.0524-.4645.1575c-.1173.1048-.1916.2571-.2231.4565l-.2677,1.7006c-.0315.1996-.0053.3517.0787.4568s.2204.1575.4094.1575ZM344.9961,785.7853l.6088-3.8315h1.202c.2379,0,.4391.0464.6036.139.1645.0928.2835.223.357.391s.091.3656.0524.5932c-.0384.2591-.14.4838-.3044.6746-.1645.1905-.3656.3209-.6036.391l.5354,1.6428h-.6194l-.4777-1.5748h-.5406l-.2466,1.5748h-.5668ZM345.8883,783.7068h.6352c.1889,0,.349-.0558.4803-.168.1313-.1119.2107-.2623.2388-.4514.0316-.1925,0-.3454-.0944-.4593-.0945-.1136-.2362-.1706-.4252-.1706h-.6352l-.1995,1.2493ZM349.545,785.7853l.6088-3.8315h1.2544c.3709,0,.6508.1048.8399.315.1889.2099.2553.4898.1993.8398-.0384.2344-.1216.4383-.2493.6114s-.2905.307-.4881.4015c-.1978.0945-.419.1418-.6639.1418h-.6928l-.2415,1.5221h-.5668ZM350.432,783.754h.6928c.1924,0,.3568-.0587.4934-.176.1364-.117.2204-.2737.2519-.4696s-.0017-.3525-.0997-.4699-.245-.1757-.441-.1757h-.6876l-.2099,1.2911ZM352.7466,785.7853l.6088-3.8315h2.2518l-.0787.5038h-1.6954l-.1731,1.0867h1.5115l-.0787.4986h-1.5115l-.1942,1.2387h1.6901l-.0787.5038h-2.2518ZM355.8434,785.7853l.6088-3.8315h1.202c.2379,0,.4391.0464.6036.139.1645.0928.2835.223.357.391s.091.3656.0524.5932c-.0384.2591-.14.4838-.3044.6746-.1645.1905-.3656.3209-.6036.391l.5354,1.6428h-.6194l-.4777-1.5748h-.5406l-.2466,1.5748h-.5668ZM356.7356,783.7068h.6352c.1889,0,.349-.0558.4803-.168.1313-.1119.2107-.2623.2388-.4514.0316-.1925,0-.3454-.0944-.4593-.0945-.1136-.2362-.1706-.4252-.1706h-.6352l-.1995,1.2493ZM360.1316,785.8377c-.385,0-.6736-.0951-.8661-.2859-.1924-.1908-.2641-.4505-.2151-.7794h.5668c-.028.1748.0105.3121.1155.4121.1051.0997.266.1495.483.1495.2029,0,.3701-.049.5012-.1469.1313-.098.2109-.2327.2389-.4044.0209-.1504.0007-.2788-.0604-.3856-.0614-.1068-.1583-.1811-.2913-.2233l-.4566-.1364c-.266-.0803-.4619-.217-.5879-.4095-.126-.1922-.1697-.4197-.1313-.6823.035-.2099.1121-.3935.2309-.551s.2729-.2799.4619-.3673.4024-.1313.6404-.1313c.3498,0,.6158.0954.7978.2859.182.1908.2485.4437.1995.7586h-.5668c.0279-.168-.0027-.3001-.092-.3964-.0891-.0963-.2301-.1444-.4225-.1444-.1889,0-.343.0447-.4619.1338-.119.0894-.1889.2144-.21.3753-.0245.1506-.007.2791.0525.3859s.1575.1811.2939.223l.4672.1469c.2624.0806.4558.2173.5801.4095.1242.1925.1653.4217.1233.6877-.035.217-.1155.4058-.2415.5667-.1259.1612-.2878.2862-.4855.3753-.1976.0894-.419.1338-.6639.1338ZM363.2651,785.8377c-.3568,0-.6228-.1005-.7978-.3019-.175-.201-.2345-.473-.1784-.8161l.2677-1.7006c.056-.3429.2029-.6148.4408-.8161.2379-.201.5355-.3019.8923-.3019s.6228.1.7979.2993c.1748.1993.2361.4707.1837.8136l-.2677,1.7057c-.0561.3431-.2039.6151-.4435.8161-.2398.2013-.5381.3019-.895.3019ZM363.3439,785.3339c.1925,0,.3483-.0524.4672-.1575.119-.1051.1942-.2571.2257-.4568l.2678-1.7006c.0315-.1993.0051-.3517-.0787-.4565-.084-.1051-.2223-.1575-.4148-.1575s-.3473.0524-.4645.1575c-.1173.1048-.1916.2571-.2231.4565l-.2677,1.7006c-.0315.1996-.0053.3517.0787.4568s.2204.1575.4094.1575ZM365.2754,785.7853l.6088-3.8315h.7086l.6194,3.186c.007-.098.0165-.217.0289-.3571.0121-.1398.0271-.2851.0446-.4354.0175-.1506.0367-.2888.0577-.4146l.315-1.9788h.525l-.609,3.8315h-.7085l-.6141-3.186c-.0071.0945-.0167.209-.0289.3437s-.0272.2757-.0446.4226c-.0177.1469-.0367.2833-.0578.4095l-.315,2.0102h-.5301ZM368.2252,785.7853l1.5851-3.8315h.7454l.3726,3.8315h-.5616l-.0735-.9711h-1.0865l-.3884.9711h-.5932ZM369.3852,784.3418h.8714l-.0893-1.1023c-.0175-.1959-.0298-.3654-.0367-.5089-.0071-.1435-.0105-.2432-.0105-.2993-.0175.0561-.0517.1558-.1024.2993s-.1146.3112-.1915.5038l-.441,1.1075ZM371.7208,785.7853l.6088-3.8315h.567l-.525,3.3118h1.6744l-.0787.5197h-2.2465ZM376.6785,785.8377c-.3673,0-.6342-.1005-.8003-.3019-.1663-.201-.2214-.475-.1654-.8213l.4357-2.7608h.567l-.4357,2.7554c-.0315.1962-.008.35.0708.4619.0787.1122.2144.168.4068.168.1925,0,.3473-.0558.4646-.168.1172-.1119.1915-.2657.2231-.4619l.4355-2.7554h.567l-.4357,2.7608c-.056.35-.2003.6245-.433.8241-.2328.1993-.5328.299-.9003.299ZM379.8435,785.8377c-.385,0-.6736-.0951-.8661-.2859-.1924-.1908-.2641-.4505-.2151-.7794h.5668c-.028.1748.0105.3121.1155.4121.1051.0997.266.1495.483.1495.2029,0,.3701-.049.5012-.1469.1313-.098.2109-.2327.2389-.4044.0209-.1504.0007-.2788-.0604-.3856-.0614-.1068-.1583-.1811-.2913-.2233l-.4566-.1364c-.266-.0803-.4619-.217-.5879-.4095-.126-.1922-.1697-.4197-.1313-.6823.035-.2099.1121-.3935.2309-.551s.2729-.2799.4619-.3673.4024-.1313.6404-.1313c.3498,0,.6158.0954.7978.2859.182.1908.2485.4437.1995.7586h-.5668c.0279-.168-.0027-.3001-.092-.3964-.0891-.0963-.2301-.1444-.4225-.1444-.1889,0-.343.0447-.4619.1338-.119.0894-.1889.2144-.21.3753-.0245.1506-.007.2791.0525.3859s.1575.1811.2939.223l.4672.1469c.2624.0806.4558.2173.5801.4095.1242.1925.1653.4217.1233.6877-.035.217-.1155.4058-.2415.5667-.1259.1612-.2878.2862-.4855.3753-.1976.0894-.419.1338-.6639.1338ZM381.9062,785.7853l.6088-3.8315h2.2518l-.0787.5038h-1.6954l-.1731,1.0867h1.5115l-.0787.4986h-1.5115l-.1942,1.2387h1.6901l-.0787.5038h-2.2518ZM386.9426,785.8377c-.3568,0-.6228-.1005-.7978-.3019-.175-.201-.2345-.473-.1784-.8161l.2677-1.7006c.056-.3429.2029-.6148.4408-.8161.2379-.201.5355-.3019.8923-.3019s.6228.1.7979.2993c.1748.1993.2361.4707.1837.8136l-.2677,1.7057c-.0561.3431-.2039.6151-.4435.8161-.2398.2013-.5381.3019-.895.3019ZM387.0213,785.3339c.1925,0,.3483-.0524.4672-.1575.119-.1051.1942-.2571.2257-.4568l.2678-1.7006c.0315-.1993.0051-.3517-.0787-.4565-.084-.1051-.2223-.1575-.4148-.1575s-.3473.0524-.4645.1575c-.1173.1048-.1916.2571-.2231.4565l-.2677,1.7006c-.0315.1996-.0053.3517.0787.4568s.2204.1575.4094.1575ZM388.9529,785.7853l.6088-3.8315h.7086l.6194,3.186c.007-.098.0165-.217.0289-.3571.0121-.1398.0271-.2851.0446-.4354.0175-.1506.0367-.2888.0577-.4146l.315-1.9788h.525l-.609,3.8315h-.7085l-.6141-3.186c-.0071.0945-.0167.209-.0289.3437s-.0272.2757-.0446.4226c-.0177.1469-.0367.2833-.0578.4095l-.315,2.0102h-.5301ZM392.249,785.7853l.6088-3.8315h.567l-.525,3.3118h1.6744l-.0787.5197h-2.2465ZM396.1174,785.7853l.2204-1.4119-.7506-2.4197h.5774l.4462,1.4486c.0279.0945.0498.1837.0656.2677.0157.084.0253.1469.0288.1888.0175-.0419.0464-.1048.0867-.1888.0402-.084.0883-.1731.1442-.2677l.8976-1.4486h.5984l-1.5275,2.4197-.2204,1.4119h-.5668ZM399.217,785.7853l.6088-3.8315h.7086l.6192,3.186c.0071-.098.0165-.217.029-.3571.012-.1398.0271-.2851.0444-.4354.0177-.1506.037-.2888.0578-.4146l.315-1.9788h.5248l-.6088,3.8315h-.7085l-.6141-3.186c-.0071.0945-.0167.209-.0289.3437s-.0272.2757-.0446.4226c-.0177.1469-.0367.2833-.0578.4095l-.315,2.0102h-.5301ZM403.5053,785.8377c-.3571,0-.6231-.1005-.7979-.3019-.1751-.201-.2344-.473-.1785-.8161l.2677-1.7006c.0561-.3429.203-.6148.4411-.8161.2378-.201.5354-.3019.8922-.3019.3571,0,.6228.1.7979.2993.1748.1993.2361.4707.1837.8136l-.2677,1.7057c-.0561.3431-.2039.6151-.4437.8161-.2395.2013-.5379.3019-.8947.3019ZM403.5839,785.3339c.1925,0,.3483-.0524.4673-.1575.1187-.1051.1942-.2571.2255-.4568l.2677-1.7006c.0316-.1993.0054-.3517-.0786-.4565-.084-.1051-.2224-.1575-.4146-.1575-.1925,0-.3474.0524-.4647.1575-.117.1048-.1914.2571-.223.4565l-.2677,1.7006c-.0316.1996-.0051.3517.0789.4568.0837.1051.2204.1575.4092.1575ZM406.3814,785.7853l.5248-3.3121h-1.0234l.084-.5194h2.6193l-.084.5194h-1.0289l-.5248,3.3121h-.567ZM409.5178,785.7853l.6088-3.8315h2.32l-.084.5194h-1.7636l-.1837,1.1445h1.6272l-.084.5248h-1.6166l-.2571,1.6428h-.567ZM413.7694,785.8377c-.3571,0-.6231-.1005-.7979-.3019-.1751-.201-.2344-.473-.1785-.8161l.2677-1.7006c.0561-.3429.203-.6148.4411-.8161.2378-.201.5354-.3019.8922-.3019.3571,0,.6228.1.7979.2993.1748.1993.2361.4707.1837.8136l-.2677,1.7057c-.0561.3431-.2039.6151-.4437.8161-.2395.2013-.5379.3019-.8947.3019ZM413.848,785.3339c.1925,0,.3483-.0524.4673-.1575.1187-.1051.1942-.2571.2255-.4568l.2677-1.7006c.0316-.1993.0054-.3517-.0786-.4565-.084-.1051-.2224-.1575-.4146-.1575-.1925,0-.3474.0524-.4647.1575-.117.1048-.1914.2571-.223.4565l-.2677,1.7006c-.0316.1996-.0051.3517.0789.4568.0837.1051.2204.1575.4092.1575ZM415.7952,785.7853l.6088-3.8315h1.202c.2381,0,.4391.0464.6037.139.1643.0928.2833.223.3568.391s.0911.3656.0527.5932c-.0387.2591-.1401.4838-.3044.6746-.1646.1905-.3659.3209-.6037.391l.5354,1.6428h-.6194l-.4776-1.5748h-.5408l-.2466,1.5748h-.567ZM416.6876,783.7068h.635c.1891,0,.3491-.0558.4804-.168.131-.1119.2107-.2623.2386-.4514.0316-.1925,0-.3454-.0945-.4593-.0943-.1136-.2361-.1706-.4252-.1706h-.635l-.1993,1.2493ZM420.905,785.8377c-.3602,0-.6308-.1005-.8107-.3019-.1803-.201-.2423-.473-.1865-.8161l.2677-1.7006c.0561-.3463.2056-.6194.4488-.8187s.545-.2993.9056-.2993c.3568,0,.6253.1008.8056.3019.1803.2013.2423.4733.1865.8161h-.567c.0313-.1993.0026-.3517-.0866-.4565-.0894-.1051-.2284-.1575-.4175-.1575-.1925,0-.3508.0524-.475.1575-.1242.1048-.2019.2554-.2335.4514l-.2677,1.7057c-.0316.1996-.0026.3517.0866.4568.0894.1051.2301.1575.4226.1575s.35-.0524.4724-.1575.1993-.2571.2309-.4568h.5667c-.0347.2275-.1145.4252-.2386.5932s-.2808.2976-.4699.3884c-.1888.0908-.4024.1364-.6404.1364ZM424.0335,785.8377c-.3571,0-.6231-.1005-.7979-.3019-.1751-.201-.2344-.473-.1785-.8161l.2677-1.7006c.0561-.3429.203-.6148.4411-.8161.2378-.201.5354-.3019.8922-.3019.3571,0,.6228.1.7979.2993.1748.1993.2361.4707.1837.8136l-.2677,1.7057c-.0561.3431-.2039.6151-.4437.8161-.2395.2013-.5379.3019-.8947.3019ZM424.1121,785.3339c.1925,0,.3483-.0524.4673-.1575.1187-.1051.1942-.2571.2255-.4568l.2677-1.7006c.0316-.1993.0054-.3517-.0786-.4565-.084-.1051-.2224-.1575-.4146-.1575-.1925,0-.3474.0524-.4647.1575-.117.1048-.1914.2571-.223.4565l-.2677,1.7006c-.0316.1996-.0051.3517.0789.4568.0837.1051.2204.1575.4092.1575ZM425.9653,785.7853l.6088-3.8315h.6874l.1837,1.2282c.0211.119.0367.2301.0473.3332.0105.1034.0194.1828.0262.2389.0177-.0561.0473-.1364.0894-.2415.0419-.1051.0908-.217.1469-.336l.5667-1.2228h.7088l-.6088,3.8315h-.5354l.2045-1.2911c.0245-.168.0578-.3525.1-.5539.0419-.201.0874-.4041.1364-.6088s.0963-.3998.1418-.5852c.0453-.1854.0874-.3483.1259-.4881l-.8554,1.8632h-.5513l-.2833-1.8632c-.0037.1364-.0105.2947-.0211.475s-.0236.3719-.0393.5747c-.0157.203-.035.4069-.0578.6114-.0228.2047-.0481.3964-.076.5749l-.2047,1.2911h-.5405ZM429.1145,785.7853l.6088-3.8315h.6874l.1837,1.2282c.0211.119.0367.2301.0473.3332.0105.1034.0194.1828.0262.2389.0177-.0561.0473-.1364.0894-.2415.0419-.1051.0908-.217.1469-.336l.5667-1.2228h.7088l-.6088,3.8315h-.5354l.2045-1.2911c.0245-.168.0578-.3525.1-.5539.0419-.201.0874-.4041.1364-.6088s.0963-.3998.1418-.5852c.0453-.1854.0874-.3483.1259-.4881l-.8554,1.8632h-.5513l-.2833-1.8632c-.0037.1364-.0105.2947-.0211.475s-.0236.3719-.0393.5747c-.0157.203-.035.4069-.0578.6114-.0228.2047-.0481.3964-.076.5749l-.2047,1.2911h-.5405ZM432.4107,785.7853l.6088-3.8315h2.2516l-.0786.5038h-1.6955l-.1731,1.0867h1.5115l-.0786.4986h-1.5118l-.1942,1.2387h1.6901l-.0786.5038h-2.2516ZM435.5073,785.7853l.6088-3.8315h1.202c.2381,0,.4391.0464.6037.139.1643.0928.2833.223.3568.391s.0911.3656.0527.5932c-.0387.2591-.1401.4838-.3044.6746-.1646.1905-.3659.3209-.6037.391l.5354,1.6428h-.6194l-.4776-1.5748h-.5408l-.2466,1.5748h-.567ZM436.3997,783.7068h.635c.1891,0,.3491-.0558.4804-.168.131-.1119.2107-.2623.2386-.4514.0316-.1925,0-.3454-.0945-.4593-.0943-.1136-.2361-.1706-.4252-.1706h-.635l-.1993,1.2493ZM439.8007,785.8377c-.3602,0-.6308-.1005-.8107-.3019-.1803-.201-.2423-.473-.1865-.8161l.2677-1.7006c.0561-.3463.2056-.6194.4488-.8187s.545-.2993.9056-.2993c.3568,0,.6253.1008.8056.3019.1803.2013.2423.4733.1865.8161h-.567c.0313-.1993.0026-.3517-.0866-.4565-.0894-.1051-.2284-.1575-.4175-.1575-.1925,0-.3508.0524-.475.1575-.1242.1048-.2019.2554-.2335.4514l-.2677,1.7057c-.0316.1996-.0026.3517.0866.4568.0894.1051.2301.1575.4226.1575s.35-.0524.4724-.1575.1993-.2571.2309-.4568h.5667c-.0347.2275-.1145.4252-.2386.5932s-.2808.2976-.4699.3884c-.1888.0908-.4024.1364-.6404.1364ZM441.8792,785.7853l.0789-.5038h.7768l.4459-2.824h-.7766l.0837-.5038h2.1258l-.084.5038h-.7766l-.4462,2.824h.7768l-.0789.5038h-2.1258ZM444.7399,785.7853l1.585-3.8315h.7452l.3728,3.8315h-.5616l-.0735-.9711h-1.0867l-.3884.9711h-.5929ZM445.8998,784.3418h.8714l-.0894-1.1023c-.0174-.1959-.0296-.3654-.0367-.5089-.0068-.1435-.0103-.2432-.0103-.2993-.0177.0561-.0518.1558-.1025.2993s-.1148.3112-.1916.5038l-.4408,1.1075ZM448.2354,785.7853l.6088-3.8315h.567l-.5248,3.3118h1.6741l-.0786.5197h-2.2465ZM453.1932,785.8377c-.3676,0-.6345-.1005-.8005-.3019-.1663-.201-.2213-.475-.1654-.8213l.4357-2.7608h.567l-.4357,2.7554c-.0316.1962-.008.35.0709.4619.0786.1122.2141.168.4066.168s.3474-.0558.4645-.168c.1173-.1119.1916-.2657.2233-.4619l.4357-2.7554h.5667l-.4357,2.7608c-.0558.35-.2002.6245-.4328.8241-.2329.1993-.5328.299-.9001.299ZM456.3581,785.8377c-.385,0-.6738-.0951-.866-.2859-.1925-.1908-.2643-.4505-.2153-.7794h.567c-.0282.1748.0105.3121.1153.4121.1051.0997.266.1495.483.1495.2028,0,.3699-.049.5012-.1469s.2107-.2327.2389-.4044c.0211-.1504.0009-.2788-.0604-.3856s-.1583-.1811-.2913-.2233l-.4568-.1364c-.266-.0803-.4619-.217-.5878-.4095-.1259-.1922-.1697-.4197-.1313-.6823.035-.2099.1119-.3935.2309-.551s.2731-.2799.4619-.3673c.1891-.0874.4024-.1313.6404-.1313.3497,0,.6157.0954.7979.2859.1817.1908.2483.4437.1993.7586h-.567c.0279-.168-.0026-.3001-.0917-.3964-.0894-.0963-.2301-.1444-.4226-.1444-.1891,0-.3429.0447-.4619.1338-.119.0894-.1891.2144-.2099.3753-.0245.1506-.0071.2791.0524.3859s.1575.1811.2939.223l.4673.1469c.2623.0806.4556.2173.5798.4095.1242.1925.1654.4217.1236.6877-.035.217-.1156.4058-.2415.5667-.1262.1612-.2879.2862-.4855.3753-.1979.0894-.4192.1338-.6641.1338ZM458.4209,785.7853l.6088-3.8315h2.2516l-.0786.5038h-1.6955l-.1731,1.0867h1.5115l-.0786.4986h-1.5118l-.1942,1.2387h1.6901l-.0786.5038h-2.2516Z" style="fill: #ccc;"/>
  <g id="g10">
    <path id="path26" d="M207.445,536.1212c-60.7234-129.6742-64.2921-270.053-58.494-328.4184,5.7976-58.3658,17.3933-105.9086,17.3933-105.9086,0,0,11.1339-6.635,25.3178-12.1754,24.7377-9.6632,116.5378-39.6192,208.338-39.6187h0c91.7997-.0005,183.5999,29.9556,208.3375,39.6187,14.1844,5.5404,25.3183,12.1754,25.3183,12.1754,0,0,11.5962,47.5428,17.3933,105.9086,5.7972,58.3654,2.2294,198.7442-58.4945,328.4184-79.8824,170.5875-192.5547,213.8788-192.5547,213.8788,0,0-112.6727-43.2914-192.5552-213.8788Z" style="fill: url(#_未命名的渐变_2);"/>
    <path id="path38" d="M341.8058,620.5584c2.6115,0,4.2789.4912,5.0991,1.4996.7969.9814,1.1841,2.7998,1.1841,5.5632v33.4996h-8.4469v-32.6374c-.5084-.1873-4.8423-1.7811-4.8423-1.7811v-6.1439h7.006M375.9103,619.9787c4.5203,0,7.9208.9432,10.1077,2.8044,2.208,1.8799,3.3278,5.1652,3.3278,9.7694v15.862c0,4.2985-1.1403,7.5876-3.3893,9.7769-2.2452,2.1874-5.4663,3.2975-9.5737,3.2975-4.1144,0-7.2269-1.0765-9.2503-3.1968-2.0197-2.1157-3.043-4.9705-3.043-8.4851v-.438h7.9455v.438c0,.59.0792,1.1781.2358,1.7503.1417.5229.5359,1.0681,1.1715,1.6198.6189.5378,1.4773.8099,2.5514.8099,1.8216,0,3.1591-.4977,3.9765-1.4828.8388-1.0103,1.2638-2.3478,1.2638-3.9779v-5.0907c-1.0425.5928-5.5138,3.1362-5.5138,3.1362h-.116c-8.7116,0-13.1289-4.661-13.1289-13.8535,0-4.6004,1.1175-7.9128,3.3217-9.8459,2.1884-1.92,5.5907-2.8939,10.1133-2.8939M375.8329,638.8958c.2144-.1258,5.2053-3.0635,5.6136-3.3049-.0233-2.8035-.4203-4.8307-1.1972-5.9966-.775-1.1613-2.1306-1.7252-4.1438-1.7252-3.4876,0-5.1834,1.6413-5.1834,5.0171,0,1.9405.3756,3.4559,1.1161,4.5063h0c.6911.9823,1.9736,1.4828,3.7947,1.5033M402.6112,624.1895c-.8817,1.2657-1.4838,2.6199-1.7904,4.0217-.3024,1.3766-.4553,3.0458-.4553,4.963v.439h8.1678v-.439c0-1.796.3215-3.195.9572-4.1549.5956-.9041,1.727-1.3617,3.3627-1.3617,1.6497,0,2.7895.384,3.386,1.1408.6207.7904.9348,1.5891.9348,2.3729,0,.8174-.302,1.8379-.8994,3.0309l-1.0839,1.7876-2.2201,3.1362c-.9842,1.3663-2.3356,2.9116-4.017,4.593l-5.9714,6.6397-1.6828,1.9088c-.9931,1.3086-1.4912,2.6712-1.4912,4.0617,0,1.7205.6543,2.9713,1.9447,3.7188,1.2126.7046,2.6917,1.0606,4.3945,1.0606h19.4177v-7.389h-14.7883c1.014-1.1743,5.6648-6.5661,5.6648-6.5661.0168-.0223,2.2257-2.6152,2.2257-2.6152l3.2984-3.9685c.946-1.2116,1.8547-2.8268,2.701-4.8008.8547-1.9955,1.2881-3.9555,1.2881-5.8223,0-3.099-1.1268-5.5194-3.3478-7.1961-2.1837-1.6469-5.3069-2.482-9.2801-2.482-5.361,0-8.9651,1.3197-10.7154,3.921M450.7584,620.2685c5.3228,0,9.0313,1.4884,11.0202,4.4234,1.9516,2.8818,2.9415,7.9445,2.9415,15.0502v2.2834c0,2.7364-.0932,5.073-.2796,6.9454-.1873,1.878-.5695,3.6712-1.1333,5.3293-.5779,1.6953-1.4036,3.0561-2.4531,4.045-1.0457.987-2.4214,1.7606-4.0906,2.2974-1.6506.5303-3.6712.8006-6.0069.8006-2.3319,0-4.3544-.2796-6.0097-.8295-1.6637-.5536-3.0375-1.3253-4.0832-2.2928-1.0532-.973-1.878-2.3356-2.4559-4.0487-.5657-1.6786-.9469-3.4811-1.1333-5.3573-.1845-1.8557-.2796-4.2099-.2796-7.0023v-2.1148c0-5.7375.4567-10.0341,1.3589-12.7761.5769-1.6963,1.4055-3.0328,2.4624-3.9704l.0086-.0086c2.1865-1.8407,5.5949-2.7746,10.1338-2.7746M450.8126,653.6635c2.3692,0,3.8847-.6291,4.5072-1.8724.6711-1.344,1.0308-4.0496,1.0681-8.0415v-6.1746c-.0373-3.5855-.4334-6.1215-1.1743-7.5354-.7046-1.3412-2.1623-1.9927-4.4569-1.9927s-3.7504.6431-4.4541,1.9656c-.7438,1.399-1.138,3.8679-1.1734,7.3359v6.3974c.0354,3.8847.412,6.5623,1.1212,7.9594v.0009c.6589,1.2992,2.193,1.9572,4.5622,1.9572Z" style="fill: #989c9d;"/>
    <path id="path40" d="M341.8058,622.1046c2.7359,0,3.6181.5816,3.9005.9283.3113.384.8365,1.494.8365,4.5883v31.9533h-5.3549v-32.1714s-3.5752-1.3141-4.8418-1.7792v-3.5193h5.4598Z" style="fill: #fff;"/>
    <path id="path42" d="M375.9103,621.5249c4.1428,0,7.2059.8192,9.1058,2.4354,1.8473,1.5723,2.7835,4.4634,2.7835,8.5923v15.862c0,3.866-.9828,6.7814-2.9214,8.6687-1.9475,1.8976-4.8055,2.8594-8.4954,2.8594-3.675,0-6.4114-.9143-8.1319-2.7187-1.5183-1.591-2.3408-3.7281-2.5332-6.3088h4.9201c.0485.3504.0475.7065.1417,1.0504.2218.8202.7773,1.6226,1.6497,2.3794.9078.7876,2.1073,1.1883,3.5645,1.1883,2.3035,0,4.0417-.686,5.1662-2.0411,1.0751-1.2955,1.6203-2.9657,1.6203-4.9658v-7.7497s-6.7702,3.852-7.4384,4.2314c-7.7097-.0913-11.3203-3.9928-11.3203-12.2896,0-4.1344.9404-7.0572,2.7947-8.6836h0c1.899-1.6655,4.9588-2.5099,9.0942-2.5099M369.3759,632.8862c0,2.2639.4707,4.0804,1.398,5.3964.9903,1.4073,2.6861,2.1325,5.0413,2.1595l.4306.0048,6.7557-3.9769-.0086-.8919c-.0265-3.1726-.5033-5.4104-1.4567-6.841-1.069-1.6012-2.8962-2.413-5.4304-2.413-4.3395,0-6.7296,2.33-6.7296,6.5623h-.0003Z" style="fill: #fff;"/>
    <path id="path44" d="M402.3307,628.543c.2628-1.2042.7848-2.3701,1.5499-3.4708l.0149-.0196c1.4446-2.1483,4.6172-3.2378,9.4311-3.2378,3.6302,0,6.4403.7307,8.35,2.1716,1.837,1.3859,2.7308,3.3366,2.7308,5.9603,0,1.6581-.3905,3.4121-1.1622,5.2137-.7941,1.8519-1.6338,3.3515-2.4978,4.4578l-3.2705,3.9322c.0112-.0149-2.2275,2.618-2.2275,2.618.0196-.0242-5.6424,6.5409-5.6424,6.5409l-2.2042,2.5575h16.6151v4.2966h-17.8705c-1.4279,0-2.6451-.2871-3.619-.8528-.5042-.2908-1.1739-.8565-1.1739-2.3813,0-1.0401.3947-2.0859,1.1664-3.1101.1156-.1314,1.6217-1.8379,1.6217-1.8379l5.9603-6.6285c1.6842-1.6814,3.0906-3.2891,4.1223-4.7235l2.2601-3.1912,1.1436-1.8873.028-.0559c.7158-1.4306,1.0644-2.6488,1.0644-3.7234,0-1.1399-.4259-2.2583-1.2657-3.3282-.9078-1.1492-2.4549-1.7308-4.6023-1.7308-2.7252,0-4.0347,1.1175-4.6545,2.0551-.6552.9926-1.0336,2.3114-1.1557,3.8996h-5.0851c.0485-1.3216.1556-2.5351.3728-3.524h0Z" style="fill: #fff;"/>
    <path id="path46" d="M450.7584,621.8147c4.7785,0,8.0554,1.2601,9.7405,3.7449,1.7503,2.5836,2.6758,7.4878,2.6758,14.1825v2.2834c0,2.6879-.0913,4.9733-.2731,6.7916-.1752,1.7615-.5322,3.4392-1.0588,4.9844-.4958,1.453-1.1846,2.6041-2.0495,3.4186-.877.8286-2.056,1.4847-3.5044,1.9507-1.4959.4819-3.3581.7251-5.5325.7251-2.1641,0-4.0235-.2516-5.5231-.7493-1.4521-.4837-2.6367-1.1436-3.5193-1.961-.8612-.795-1.5472-1.9414-2.0402-3.4065-.5294-1.5704-.8864-3.2574-1.0597-5.0171-.1808-1.8063-.2731-4.1102-.2731-6.8494v-2.1148c0-5.5735.4306-9.7088,1.2806-12.2924.4837-1.4195,1.1622-2.5295,2.0122-3.2882,1.9013-1.5938,4.9695-2.4027,9.1245-2.4027M444.937,629.2867c-.8733,1.6422-1.3151,4.2752-1.3542,8.0461v6.4132c.0382,4.1978.4595,7.0265,1.2881,8.6594h0c.9432,1.8612,2.9424,2.8054,5.9416,2.8054,3.003,0,4.9844-.918,5.8894-2.728.7894-1.5779,1.1921-4.4299,1.2312-8.7191v-6.1886c-.0401-3.9033-.4828-6.5978-1.3514-8.254-.9823-1.8706-2.9424-2.8203-5.8251-2.8203-2.879,0-4.8362.9376-5.8195,2.7858Z" style="fill: #fff;"/>
    <path id="path48" d="M198.1388,106.0041c.9828-.3831,99.4819-38.354,201.8595-38.354h.0019c102.379,0,200.8786,37.9709,201.8609,38.354,6.8597,2.6763,12.9718,5.6583,17.1603,7.842,3.2863,14.8508,11.078,52.7756,15.4324,96.5609,1.1837,11.8958,1.933,26.6828,1.933,43.6996,0,69.4755-12.4788,176.1232-58.8085,274.948-39.5195,84.2993-87.2584,135.5128-120.346,163.6281-26.1721,22.2408-47.5059,33.9106-57.232,38.6406-9.7266-4.73-31.06-16.3998-57.232-38.6406-33.0871-28.1153-80.8256-79.3288-120.3456-163.6281h0c-46.3303-98.8248-58.8086-205.4725-58.8086-274.948,0-17.0168.7489-31.8038,1.9321-43.6996,4.3544-43.7853,12.1456-81.7101,15.4319-96.5609,4.1885-2.1837,10.3011-5.1657,17.1608-7.842M200.8072,112.8461c-5.0916,1.9871-9.7638,4.1605-13.395,5.9663-3.5039,16.2586-10.5285,51.8068-14.5581,92.3216-1.2401,12.4676-1.8957,27.3268-1.8957,42.9726,0,44.4601,5.6629,159.9494,58.1133,271.8313,38.9612,83.1054,85.9196,133.5043,118.4522,161.1489,22.8098,19.3832,41.692,30.4817,52.4764,36.0197,10.7839-5.5381,29.6666-16.6365,52.4769-36.0197,32.5321-27.6446,79.4901-78.0436,118.4522-161.1489,52.4503-111.8819,58.1133-227.3712,58.1133-271.8313,0-15.6458-.6561-30.505-1.8957-42.9726-4.0301-40.5149-11.0547-76.063-14.5581-92.3216-3.6311-1.8063-8.3034-3.9793-13.3931-5.9654-.973-.3784-98.5088-37.853-199.1972-37.8526-100.6627,0-198.1734,37.4565-199.1911,37.8516Z" style="fill: #989c9d;"/>
    <path id="path50" d="M399.9983,69.1963c101.9951,0,200.3212,37.8661,201.3017,38.2482,6.5502,2.5556,12.407,5.3978,16.3672,7.4422,3.2658,14.8387,10.9484,52.4391,15.2488,95.6732,1.2582,12.655,1.9237,27.7131,1.9237,43.5467,0,44.8483-5.7161,161.3549-58.6613,274.2928-39.4039,84.0486-86.976,135.0887-119.9471,163.1052-25.2074,21.4215-45.805,32.9637-56.231,38.0935-10.4265-5.1298-31.0232-16.672-56.231-38.0935-32.9706-28.0165-80.5437-79.0567-119.9467-163.1052-52.9461-112.9379-58.6622-229.4445-58.6622-274.2928,0-15.8336.6655-30.8918,1.9246-43.5467,4.2994-43.234,11.9825-80.8345,15.2483-95.6732,3.9597-2.0444,9.8174-4.8866,16.3672-7.4422.9861-.384,99.3085-38.2482,201.298-38.2482M200.2475,111.4047c-4.3549,1.7-8.904,3.7257-13.5241,6.0236l-.6659.3309-.1566.7274c-3.736,17.3351-10.598,52.4023-14.5856,92.4945-1.2447,12.5189-1.9032,27.4312-1.9032,43.1255,0,44.5636,5.6769,160.3236,58.2596,272.4875,39.0786,83.357,86.2015,133.9265,118.8511,161.6708,22.4081,19.0412,41.0657,30.2058,52.7709,36.2173l.7065.3626.7065-.3626c11.7048-6.0115,30.3629-17.1762,52.7705-36.2173,32.6496-27.7443,79.7725-78.3138,118.852-161.6708,52.5827-112.1638,58.2587-227.9239,58.2587-272.4875,0-15.6943-.658-30.6066-1.9032-43.1259-3.9872-40.0917-10.8487-75.159-14.5852-92.4941l-.1566-.727-.6664-.3313c-4.6154-2.2965-9.1636-4.3218-13.518-6.0213-.9786-.3807-98.7726-37.9593-199.7601-37.9588h0c-100.8827,0-198.7736,37.5771-199.7508,37.9565h0Z" style="fill: #fff;"/>
    <path id="path62" d="M409.6508,517.8424l.0009,75.0984h-19.3263v-75.0984l.2773-.0168h18.7704l.2777.0168M409.6508,485.0036v-85.6307l.0121-.2106h58.7405l4.6387-19.3263h-63.3913v-40.9548l.0121-.2069c-6.3312-.2721-12.8348-.3695-19.3417-.2139l.0038.1785v41.198l-.2297-.0009h-9.5625v19.3263h4.1233c4.3805,0,5.6042,1.0956,5.669,5.3465v80.8489h19.3375l-.0121-.3542M356.0532,491.7039v-23.4338l.0019-.3775c-4.0729-.7195-8.0718-1.576-11.9629-2.5882-2.5206-.6552-4.9756-1.3635-7.3648-2.1241l-.0005.2582v21.7915c0,5.3134-2.1255,6.7301-5.991,6.6975h-3.2863v19.3263h181.6678l-6.9566-19.3263h-146.1047l-.0029-.2237M390.3208,307.1949c6.5381-.1393,13.0282-.0574,19.3427.185l-.0131-.1939v-64.9543h76.5337l5.1531-19.3263h-110.5463v19.3263h4.3152c4.188.0005,5.2188,2.125,5.2188,5.5404v59.2517l-.0038.171M416.379,286.2962h88.3582l4.3805-19.3263h-92.6744l-.22.0005v19.3259h.1556M416.4126,463.9568c16.5918-.96,31.3391-2.9154,41.4264-4.4961,34.5294-5.4113,58.2372-11.7257,58.2372-11.7257l-6.7385-17.028c-6.3722,1.5947-26.926,6.5139-54.3116,10.8049-9.9689,1.563-23.5847,3.3329-38.567,4.2547l-.2358.0205v18.1669l.1892.0029M356.0494,286.2963h27.4591l.2456.0009v-19.3263l-.165-.0009h-56.1392v19.3263h3.0449c4.058.0163,6.2324,3.784,6.2324,6.635v136.8149l.2116.1128c4.4942,1.9917,9.5057,3.7076,15.0316,5.1447,1.3477.3504,2.714.6785,4.0962.9851l-.0131-.2833v-149.1841l-.0038-.2251M383.7406,446.0853c-11.5664-.5788-23.0074-2.0141-33.4236-4.7216-22.3633-5.8149-49.0214-19.6004-49.0214-52.2518v.0009c0-22.9375,13.1564-36.5645,28.7369-44.6582l.1235-.0508v-20.0025l-.2186.0839c-32.3122,13.1918-46.8088,37.0781-46.8088,64.6267v.0009-.0009.0009c0,31.6952,19.1879,58.5411,62.6172,69.8325,11.9764,3.1139,25.0103,4.7048,38.0035,5.3078l.0048-.2824v-17.6841l-.0135-.2013M362.6244,315.9471v18.3594l.1855-.0391c32.4776-5.2375,70.7789-.9148,92.2163,2.4452,27.3855,4.2915,47.9393,9.2111,54.3116,10.8058l6.7385-17.0285s-23.7078-6.3135-58.2372-11.7252c-20.3991-3.1968-59.8631-7.9273-95.0748-2.8571l-.1398.0396Z" style="fill: #989c9d;"/>
    <path id="path64" d="M354.5354,493.4738h146.5381c.5862,1.6273,4.7272,13.1294,5.8447,16.2348h-177.922v-16.2348h1.7401c1.5788.0131,3.8847-.1566,5.5231-1.7811,1.3738-1.3635,2.0136-3.4168,2.0136-6.4626v-19.5938l.001-.3579c1.7792.5368,3.5939,1.0457,5.429,1.5229,3.427.891,7.0423,1.6879,10.7891,2.3794l.0149.3942v23.6015l.028.2973h.0005Z" style="fill: #fff;"/>
    <path id="path66" d="M391.8711,305.3812v-57.609c0-1.7527,0-7.0857-6.7646-7.0866h-2.769v-16.2339h106.9879c-.7829,2.9382-3.8455,14.4207-4.3302,16.2339h-76.8897v64.8569l-.0038.2349c-5.5623-.1883-10.9964-.2405-16.2348-.1575l.0038-.2386h.0005Z" style="fill: #fff;"/>
    <path id="path68" d="M407.852,519.3719h-15.7022l-.2787.0401v71.9826h16.2344v-72.0069l-.2535-.0158Z" style="fill: #fff;"/>
    <path id="path70" d="M408.1055,483.545v-85.9345l.1883.0057h58.8906c.4492-1.8692,3.2043-13.3465,3.8968-16.2344h-62.7529l-.2228-.0154v-41.1174l-.0048-.0909c-5.6024-.2148-11.029-.2759-16.2176-.1836l-.0121.0974v41.2945l-.1631.0154h-9.6287v16.2344h2.577c5.2501,0,7.1383,1.7974,7.2148,6.8927v79.299l.1887.0029h16.0568l-.0112-.2656v-.0002Z" style="fill: #fff;"/>
    <path id="path72" d="M417.7687,284.7505v-16.2498l.1715.0149h89.2427c-.6496,2.8622-3.2509,14.3373-3.6805,16.2339h-85.4634l-.2703.0009Z" style="fill: #fff;"/>
    <path id="path74" d="M354.5074,285.0562v148.8132l.0117.1762c-.7302-.1743-1.4498-.3532-2.159-.5387-5.0553-1.3141-9.714-2.8809-13.9081-4.6769l-.1789-.0661v-135.8325c0-3.9191-2.9717-8.1617-7.7716-8.1817h-1.5052v-16.2339h52.9788l.233.0009v16.2502l-.2134-.0178h-27.4913l.0038.3066.0004.0005Z" style="fill: #fff;"/>
    <path id="path76" d="M417.7687,462.1179v-14.8648l.1892-.0345c14.4882-.9441,27.6139-2.6591,37.3078-4.1782,25.912-4.0617,45.928-8.7386,53.1316-10.5076.7652,1.933,4.6256,11.6912,5.5958,14.1406-5.9174,1.4959-27.4153,6.718-56.3937,11.2588-10.2914,1.6133-24.3043,3.4308-39.8196,4.3879l-.0112-.2022h0Z" style="fill: #fff;"/>
    <path id="path78" d="M382.2079,447.8319v14.5926l.0107.1995c-12.4056-.6524-24.7456-2.2275-36.0836-5.1755-39.6332-10.3044-61.4601-34.5733-61.4601-68.3356v-.0009c0-28.3613,15.4021-50.0233,43.8226-62.3362l.1123-.0391v16.7172l-.1543.0741c-15.6369,8.3556-28.7062,22.3051-28.7062,45.5851,0,33.6394,27.2877,47.7949,50.179,53.7468,10.0872,2.6227,21.1177,4.0617,32.2917,4.6918l-.0121.2805h0Z" style="fill: #fff;"/>
    <path id="path80" d="M364.1706,317.2835v15.2031l.1398-.0173c32.3131-4.8446,69.8059-.5998,90.9553,2.7154,25.912,4.0608,45.928,8.7377,53.1316,10.5076.7652-1.9335,4.6256-11.6917,5.5958-14.1406-5.9174-1.4959-27.4153-6.7184-56.3937-11.2597-21.5529-3.3781-59.4176-7.6509-93.2425-3.0435l-.1864.035Z" style="fill: #fff;"/>
    <path id="path92" d="M236.3833,130.6061c-12.2183,2.5314-24.5545,5.3852-36.6661,8.4837l-1.1627.2978v43.7331c0,6.2995,1.4661,10.3025,4.4811,12.2379,2.8688,1.8449,7.5512,1.9754,14.3153.3966,6.505-1.5164,13.12-2.9731,19.6595-4.3278l1.2321-.2549v-13.223l-1.8594.3854c-6.2855,1.302-12.6624,2.7024-18.9535,4.1624-3.043.7069-3.9816.3118-4.1973.1743-.1813-.116-.7671-.6743-.7675-3.0505v-6.8056c5.3107-1.2736,10.6926-2.5188,16.0326-3.6843l1.124-.2456,1.0271-13.4518-2.0281.4404c-5.3796,1.1697-10.7965,2.4251-16.1556,3.7048v-10.3874c8.1216-1.947,16.3686-3.7984,24.5457-5.4924l1.2321-.2554v-13.223l-1.8594.3854M298.5881,120.223l-11.695,1.5672-.3383.789s-12.2598,27.7975-14.4584,32.7824c-2.4368-4.7263-14.8536-28.8041-14.8536-28.8041l-1.1203.2134-12.0342,2.2681.0102,1.2801v59.6576l13.9915-2.6348.0107-1.2843v-28.1069c2.9792,5.7972,7.2991,14.2026,7.2991,14.2026,2.2462,4.3409,5.0953,4.8679,7.0908,4.5469,2.7047-.4348,4.935-2.4932,6.629-6.1168.0126-.028,4.1647-9.6585,7.1435-16.5671v28.7728l14.0553-1.8845.0107-1.3542v-59.5607l-1.741.2335M331.3811,116.734c-7.2716.6235-14.6346,1.357-21.8847,2.1781l-1.3719.1556v60.893l14.0777-1.4973.0107-1.391v-17.0974c2.1152-.1957,9.433-.8733,9.433-.8733,6.3102-.5406,11.276-2.7439,14.7576-6.5488,3.5053-3.8283,5.2827-9.2163,5.2827-16.014v-.0009c0-6.8559-1.8016-12.0538-5.3545-15.4496l-.0009-.0005c-3.5915-3.4308-8.6212-4.895-14.9496-4.3535M331.0926,129.9281c2.063-.1775,3.5664.1957,4.5963,1.1408,1.2508,1.1482,1.8855,3.2453,1.8855,6.2329v.0009c0,2.9997-.5751,5.1671-1.7089,6.4407-1.1324,1.2713-2.7807,1.9843-5.039,2.1791,0,0-5.6876.5289-8.6137.8011v-15.9701c2.0812-.1934,8.8798-.8253,8.8798-.8253M377.5025,113.6248c-8.1631.2321-14.2725,2.8655-18.1581,7.8266-3.7714,4.8171-5.6835,11.9783-5.6835,21.285v4.2202c0,10.3105,1.8435,17.5266,5.6359,22.0614,3.7798,4.5282,9.9484,6.7035,18.3324,6.4654,8.3588-.233,14.5316-2.7383,18.3463-7.4478,3.8399-4.7342,5.7063-11.9625,5.7054-22.0963v-4.3833c0-9.2652-1.9628-16.3355-5.834-21.0147-3.99-4.8181-10.1618-7.1453-18.3445-6.9165M373.0404,161.5399c-1.2163-.5685-2.1259-1.254-2.7047-2.0369-1.1874-1.4726-2.5547-4.8861-2.5547-13.0883v-3.0034c0-5.1312.5755-9.138,1.7103-11.9079,1.2475-3.0589,3.935-4.6037,8.2167-4.7244,4.1918-.117,6.828,1.2564,8.0573,4.1973,1.1841,2.858,1.7857,6.8275,1.7853,11.7933v3.0034c.0005,3.9508-.3546,7.2306-1.0546,9.7485-.3812,1.5103-.905,2.6987-1.5667,3.5668-.6478.85-1.5928,1.5984-2.81,2.2238-1.2098.6217-2.7364.9618-4.538,1.0131-1.7909.0503-3.3189-.2134-4.5408-.7852M406.8564,115.376v41.7228c0,6.1043,1.6003,10.6455,4.758,13.498,3.1018,2.8086,7.9306,4.2826,14.7585,4.5044,5.5819.1827,11.2308.4264,16.7922.7251l1.6282.0876v-13.1615l-1.4633-.0782c-5.5893-.3006-11.2607-.5452-16.8556-.7284-2.9797-.0969-4.099-.7116-4.5007-1.0686-.6478-.5746-.9898-1.8156-.9898-3.5897v-43.2429l-14.1378-.2414.0102,1.5728M449.3155,116.9339v59.2345l14.0996.9889.0112-1.6571v-59.2354l-14.121-.9898.0102,1.659M491.1444,122.1239c-2.194,1.9036-3.2602,5.1583-3.2593,9.9507v47.3974l14.066,1.6692.0121-1.7396v-21.6955c5.9845.7647,12.037,1.5993,18.0271,2.5025l1.6413.2479,1.0317-13.0343-1.4213-.2167c-6.3834-.9693-12.86-1.8654-19.2788-2.6828v-6.6802c0-2.3547.5331-3.1717.8509-3.4489.2582-.2255,1.1324-.7139,3.6349-.3803,6.5651.877,13.2104,1.8487,19.7541,2.8883l1.7885.2838v-13.196l-1.3039-.2064c-8.2484-1.3109-16.6487-2.5118-24.9716-3.5692-4.8428-.6142-8.3984.027-10.5719,1.9102M524.5172,170.8485c-1.2349,1.0392-1.809,3.0416-1.809,6.3014-.0009,3.1106.5303,5.2533,1.6226,6.5502,1.0895,1.295,3.0943,2.1669,6.128,2.6651,3.1856.5243,5.2305.2675,6.4347-.8071,1.1837-1.0574,1.7354-3.0598,1.7354-6.3009,0-3.1064-.5163-5.237-1.577-6.5139v-.0005c-1.0765-1.2927-3.0691-2.1632-6.0917-2.66-3.1586-.5187-5.2053-.2754-6.443.7657M552.6419,130.1425c-8.021,2.2513-12.0976,10.721-12.0976,25.1682v4.8707c-.0038,17.9498,7.6174,28.6158,22.649,31.7026,6.9678,1.4423,12.4704.4231,16.3532-3.0291,3.8651-3.4364,5.8251-9.1226,5.8251-16.8998v-1.2345l-12.9979-2.9517-.1594,1.7485c-.3868,3.9751-1.1893,6.773-2.3822,8.315-.974,1.2592-2.9834,1.583-5.9752.9642-3.2527-.6729-5.5604-2.1012-7.0535-4.3665-1.4931-2.3207-2.2536-6.491-2.2536-12.3805v-5.0324c0-2.1805.0503-3.9028.151-5.1186.2386-4.5855,1.1203-6.4878,1.8174-7.2847,1.4036-1.6031,3.5864-2.0719,6.6733-1.4334,2.729.5653,4.7356,1.6781,5.964,3.3077,1.303,1.7303,2.2313,4.1601,2.7606,7.2213l.1752,1.0159,13.0362,2.9564.0102-1.9339c-.0009-6.7571-2.0076-12.462-5.9677-16.9562-3.9555-4.4867-9.1198-7.4151-15.3513-8.7051-4.2901-.8882-8.0517-.8696-11.1768.0559M587.8936,183.393c-1.261.9707-1.8491,2.954-1.8491,6.2427,0,3.0892.5145,5.2505,1.5732,6.6066,1.055,1.3524,3.0142,2.3673,5.9901,3.1027,3.2173.7959,5.2063.6948,6.4486-.3276,1.207-.9912,1.7708-2.9755,1.7708-6.2436,0-3.0845-.5005-5.2328-1.5285-6.567-1.0383-1.3486-2.9843-2.3608-5.95-3.0948-3.1437-.7773-5.1951-.6878-6.4552.281Z" style="fill: #989c9d;"/>
    <path id="path94" d="M193.9168,228.608v-6.2818l.0056-.2069c45.846-13.0198,124.8719-31.368,206.0778-31.1663h0c81.211-.2018,160.2425,18.1487,206.0867,31.1691l-.0038.3323v6.0884l-.0096.3901c-46.6084-13.3875-125.0453-31.6104-206.0899-31.409-81.0088-.2013-159.4335,18.0173-206.0419,31.4044l-.0252-.3201h.0003Z" style="fill: #989c9d;"/>
    <path id="path96" d="M195.4891,226.8781c46.9202-13.3549,124.4404-31.0996,204.4911-30.9006,80.0968-.199,157.6417,17.5536,204.5605,30.909l-.0038-3.3362-.0029-.2815c-47.2178-13.381-124.6006-30.9687-204.5375-30.7701-79.9151-.1985-157.2801,17.3817-204.5018,30.7618l-.0056,3.6176h0Z" style="fill: #fff;"/>
    <path id="path98" d="M236.6964,189.9133c-6.5773,1.3626-13.1433,2.8082-19.6973,4.3362-6.2408,1.4563-10.6129,1.426-13.1284-.192-2.5141-1.6138-3.77-5.2538-3.77-10.9368v-42.5332c12.1526-3.1087,24.3555-5.9318,36.5957-8.4674v10.0644c-8.6128,1.7848-17.2065,3.7108-25.7778,5.779v13.5558c5.9994-1.4479,12.0105-2.8259,18.0308-4.134-.261,3.4112-.5215,6.8228-.782,10.235-5.7589,1.2573-11.509,2.5784-17.2489,3.9639v8.0373c.0009,2.2727.4926,3.722,1.4805,4.3521.9865.631,2.7788.6338,5.3801.0298,6.2939-1.4609,12.6009-2.8464,18.9172-4.1549v10.0649M287.8093,146.5245c-3.3655,7.7796-6.7292,15.5815-10.09,23.4039-1.4726,3.1498-3.2975,4.8954-5.4747,5.2454-2.1791.3509-4.0012-.8887-5.4691-3.7262-3.4093-6.6514-6.8163-13.2808-10.221-19.8879-.0005,11.4993-.0005,22.9985,0,34.4978-3.6391.6589-7.2758,1.3449-10.9098,2.0546v-57.7931c3.5817-.6999,7.1654-1.3757,10.7536-2.0262,5.2631,10.1646,10.5318,20.3828,15.807,30.6532,5.2491-11.9662,10.5034-23.8793,15.7628-35.7401,3.6027-.507,7.2078-.9907,10.8147-1.4493v57.7936c-3.66.4651-7.3182.9558-10.9736,1.4717v-34.4973M345.2632,122.2053c3.2504,3.1064,4.8768,7.8937,4.8768,14.3321s-1.6264,11.4214-4.8768,14.9715c-3.2504,3.5515-7.8341,5.5455-13.7496,6.0521-3.6172.3104-7.2325.645-10.8468,1.0047v18.5066c-3.6666.3644-7.3327.754-10.996,1.1692v-57.7936c7.2744-.8239,14.5558-1.5485,21.8428-2.1735,5.9155-.5066,10.4992.8267,13.7496,3.9308M339.1207,137.3022c0-6.3825-2.7215-9.3826-8.1608-8.9152-3.4326.2964-6.8634.6151-10.2932.9567v19.0756c3.4298-.3411,6.8606-.6594,10.2932-.9567,2.6385-.2279,4.6601-1.1194,6.0609-2.6921,1.3985-1.5709,2.0998-4.0599,2.0998-7.4683M400.1353,141.5554v4.3833c.0005,9.6888-1.7876,16.7176-5.361,21.1233-3.5729,4.4108-9.3039,6.6555-17.1892,6.8755-7.8858.2242-13.5851-1.6991-17.1026-5.9118-3.5184-4.2076-5.2752-11.2196-5.2757-21.0697v-4.2202c0-8.9819,1.7844-15.7712,5.3549-20.3315,3.5696-4.5585,9.2303-7.0144,16.9842-7.2343,7.7525-.2172,13.4574,1.9461,17.11,6.3564,3.6521,4.414,5.4793,11.1031,5.4793,20.0291M389.0965,145.7724c.0005-1.0015.0005-2.0024,0-3.0034.0005-5.1937-.6352-9.3258-1.9046-12.3898-1.4824-3.5459-4.6578-5.2822-9.5276-5.1466-4.922.1393-8.1239,2.0556-9.604,5.6839-1.2168,2.9717-1.8254,7.1374-1.8254,12.4942v3.0034c0,6.9818.9516,11.6474,2.8576,14.0073.7396,1.001,1.837,1.8379,3.2928,2.5183,1.4549.6804,3.2015.9879,5.2398.9302,2.0369-.0574,3.7714-.4488,5.2007-1.1827,1.4288-.7344,2.5398-1.6203,3.3338-2.6623.7936-1.042,1.4018-2.4055,1.8258-4.0902.7405-2.6623,1.1114-6.0502,1.111-10.1623M443.2482,174.2819c-5.607-.301-11.215-.5429-16.8248-.7265-6.3508-.206-10.9419-1.5434-13.7734-4.1065-2.8315-2.5589-4.2481-6.6681-4.2481-12.3507v-41.7228c3.6796.0378,7.3592.1007,11.037.1887v41.7228c0,2.2727.5014,3.852,1.508,4.7449,1.0038.8933,2.8305,1.3719,5.4765,1.4586,5.6089.1836,11.2187.4255,16.8248.727v10.0644M461.8811,175.4996c-3.6722-.2833-7.3452-.5406-11.0202-.7731v-57.7931c3.674.2321,7.348.4898,11.0202.7726v57.7936M526.4458,135.3739c-6.5884-1.0471-13.1862-2.0113-19.7924-2.8935-2.3151-.3085-3.9331-.0555-4.854.747-.9227.8039-1.3831,2.3422-1.3831,4.6144v8.0354c6.8718.8635,13.738,1.8156,20.5939,2.8566-.2628,3.3152-.5257,6.6304-.7885,9.9456-6.594-.9945-13.1965-1.9074-19.8054-2.7373v23.4589c-3.6591-.4595-7.321-.8947-10.9848-1.303v-46.024c-.0009-4.2738.9078-7.2054,2.7262-8.7824,1.8174-1.5742,4.9416-2.1054,9.364-1.5444,8.3201,1.0569,16.6291,2.2434,24.9241,3.5617.0009,3.3548,0,6.7101,0,10.0649M535.8639,173.7311c.8127.9786,1.2191,2.8203,1.2191,5.5255,0,2.7066-.4064,4.4215-1.2191,5.1475-.8137.7265-2.5304.8668-5.1541.4348-2.6236-.4311-4.3572-1.1375-5.1969-2.1353s-1.2601-2.8487-1.2592-5.5544c0-2.7057.4194-4.4112,1.2592-5.1186.8397-.7065,2.5733-.8537,5.1969-.4227s4.3395,1.145,5.1541,2.1231M573.7533,169.6671c3.3599.741,6.718,1.5033,10.0723,2.2876,0,7.3616-1.768,12.5981-5.3069,15.7441-3.5407,3.1488-8.541,4.01-15.013,2.6698-14.2562-2.927-21.4178-12.7948-21.415-30.1876v-4.8707c-.0009-13.6839,3.6684-21.6303,10.9913-23.6854,2.8734-.8514,6.3508-.8677,10.4237-.0247,5.9491,1.2312,10.7807,3.9895,14.505,8.2125,3.7216,4.2253,5.5809,9.5513,5.5809,15.9347-3.3804-.7899-6.7646-1.5565-10.1525-2.3021-.5723-3.3175-1.5891-5.9491-3.0496-7.8877-1.4595-1.9386-3.7542-3.2434-6.8839-3.8912-3.6563-.7559-6.3731-.1025-8.1496,1.9283-1.2554,1.4325-1.988,4.1577-2.1977,8.1766-.1044,1.2778-.1547,3.0272-.1547,5.2454v5.0324c0,6.2236.836,10.6311,2.509,13.2319,1.7224,2.6129,4.4029,4.2784,8.0312,5.0292,3.6284.7512,6.1308.2521,7.5121-1.5318,1.3803-1.7844,2.2797-4.8185,2.6973-9.1114M599.0744,187.1494c.8053,1.0443,1.207,2.9186,1.207,5.6238,0,2.7066-.4017,4.3893-1.207,5.0497-.8034.6613-2.5015.6627-5.0963.0205-2.5957-.6412-4.3106-1.4866-5.141-2.5523-.8314-1.0648-1.2452-2.9494-1.2452-5.656s.4138-4.3777,1.2452-5.0175c.8304-.6394,2.5453-.6468,5.141-.0048,2.5947.6426,4.2929,1.4936,5.0963,2.537v-.0003Z" style="fill: #fff;"/>
  </g>
</svg>