<?xml version="1.0" encoding="UTF-8"?>
<svg id="_图层_1" data-name="图层_1" xmlns="http://www.w3.org/2000/svg" version="1.1" viewBox="0 0 800 800">
  <!-- Created by @FCLOGO 2024-11-29 GMT+8 10:38:02 . https://fclogo.top/ -->
<!-- FOR PERSONAL USE ONLY NOT FOR COMMERCIAL USE -->
  <defs>
    <style>
      .st0 {
        fill: #cda34b;
      }

      .st1 {
        fill: #ccc;
      }

      .st2 {
        fill: #fff;
      }

      .st3 {
        fill: #0c1634;
      }

      .st4 {
        fill: #022b7a;
      }
    </style>
  </defs>
  <path class="st1" d="M348.22,774.3c-.79,0-1.38-.22-1.77-.65-.39-.44-.53-1.03-.41-1.79l.25-1.65c.12-.75.45-1.35.98-1.78.53-.44,1.19-.65,1.98-.65s1.33.2,1.72.6c.39.4.55.94.47,1.62h-1.24c.03-.36-.06-.64-.26-.84-.2-.2-.5-.3-.89-.3-.42,0-.76.12-1.03.35-.27.23-.43.56-.5.99l-.26,1.66c-.07.44,0,.77.19,1,.19.23.5.35.92.35.39,0,.72-.1.98-.3.26-.2.44-.48.52-.85h1.24c-.14.69-.47,1.23-.99,1.63-.52.4-1.16.6-1.92.6ZM352.8,774.19l1-6.29h1.19l-.19,1.19c.34-.87.97-1.3,1.91-1.3.67,0,1.17.21,1.49.62.32.42.43.99.31,1.71l-.07.42h-1.27l.06-.32c.07-.45.01-.8-.17-1.04-.18-.24-.48-.36-.88-.36s-.74.12-1.01.37c-.27.24-.43.59-.5,1.03l-.63,3.97h-1.24ZM361.91,774.3c-.77,0-1.35-.22-1.73-.67s-.52-1.04-.4-1.77l.25-1.65c.08-.49.26-.92.52-1.28s.6-.65,1.01-.85c.41-.2.87-.3,1.38-.3.77,0,1.35.22,1.73.67.39.45.52,1.04.39,1.77l-.17,1.12h-3.85l-.09.53c-.15.95.22,1.43,1.11,1.43.72,0,1.17-.25,1.37-.74h1.22c-.17.53-.5.96-1.01,1.28-.5.32-1.09.47-1.76.47ZM361.23,770.22l-.05.29h2.65s.05-.3.05-.3c.07-.47.01-.82-.17-1.07-.18-.25-.49-.37-.92-.37s-.8.13-1.06.38c-.26.25-.43.61-.51,1.08ZM368.33,774.3c-.63,0-1.1-.21-1.41-.64s-.4-1-.27-1.73l.27-1.77c.11-.73.39-1.31.84-1.74.44-.43.98-.64,1.61-.64.47,0,.83.12,1.09.35.26.24.39.56.38.96h.02l.17-1.2h1.24l-1,6.29h-1.22l.19-1.2h-.02c-.12.41-.35.73-.69.97s-.74.35-1.21.35ZM368.93,773.23c.39,0,.72-.12.98-.36.26-.24.43-.57.5-1.01l.25-1.65c.07-.43,0-.76-.18-1-.19-.24-.47-.36-.86-.36s-.72.12-.98.35c-.26.24-.42.57-.49,1.01l-.25,1.65c-.07.44-.01.78.17,1.01.18.23.47.35.88.35ZM376.35,774.19c-.57,0-.99-.16-1.26-.47-.27-.31-.36-.75-.27-1.32l.54-3.39h-1.74l.17-1.12h1.74l.27-1.72h1.24l-.27,1.72h2.47l-.18,1.12h-2.46l-.54,3.39c-.08.44.1.66.53.66h1.72l-.17,1.12h-1.77ZM382.5,774.3c-.77,0-1.35-.22-1.73-.67s-.52-1.04-.4-1.77l.25-1.65c.08-.49.26-.92.52-1.28s.6-.65,1.01-.85c.41-.2.87-.3,1.38-.3.77,0,1.35.22,1.73.67.39.45.52,1.04.39,1.77l-.17,1.12h-3.85l-.09.53c-.15.95.22,1.43,1.11,1.43.72,0,1.17-.25,1.37-.74h1.22c-.17.53-.5.96-1.01,1.28-.5.32-1.09.47-1.76.47ZM381.83,770.22l-.05.29h2.65s.05-.3.05-.3c.07-.47.01-.82-.17-1.07-.18-.25-.49-.37-.92-.37s-.8.13-1.06.38c-.26.25-.43.61-.51,1.08ZM388.92,774.3c-.63,0-1.1-.21-1.4-.64-.3-.42-.39-1-.28-1.73l.27-1.77c.11-.73.39-1.31.84-1.74.44-.43.98-.64,1.61-.64.47,0,.83.12,1.09.35.26.24.39.56.38.96h.02l.21-1.47.3-1.8h1.24l-1.33,8.35h-1.22l.19-1.2h-.02c-.12.41-.35.73-.69.97s-.74.35-1.21.35ZM389.53,773.23c.39,0,.72-.12.98-.36.26-.24.43-.57.5-1.01l.25-1.65c.08-.43.02-.76-.17-1-.19-.24-.48-.36-.87-.36s-.72.12-.98.35c-.26.24-.42.57-.49,1.01l-.25,1.65c-.08.44-.02.78.16,1.01s.48.35.88.35ZM401.02,774.3c-.47,0-.84-.12-1.1-.35-.26-.23-.39-.56-.38-.97h-.01l-.19,1.2h-1.22l1.33-8.35h1.24l-.29,1.8-.27,1.47h.05c.12-.41.35-.73.69-.97.34-.23.74-.35,1.21-.35.63,0,1.1.21,1.4.64.3.43.39,1.01.28,1.74l-.27,1.77c-.11.73-.39,1.31-.84,1.73-.45.42-.98.64-1.61.64ZM400.77,773.23c.4,0,.72-.12.98-.35.26-.23.42-.57.5-1.01l.25-1.65c.07-.43.01-.77-.17-1.01-.18-.24-.47-.35-.87-.35s-.72.12-.98.36-.43.57-.5,1l-.25,1.65c-.07.44-.01.77.17,1.01.18.24.47.36.87.36ZM405.47,776.25l.17-1.06h1.93c.64,0,1.01-.3,1.1-.9l.1-.67.21-1.19h-.03c-.12.42-.35.74-.68.97-.33.23-.73.34-1.2.34-.63,0-1.09-.2-1.4-.6s-.41-.94-.3-1.63l.58-3.6h1.24l-.56,3.48c-.06.41,0,.73.18.96s.47.34.85.34.72-.12.98-.37c.27-.24.43-.58.49-1.02l.54-3.4h1.24l-1.01,6.41c-.1.6-.37,1.08-.81,1.42-.44.35-1,.52-1.67.52h-1.95ZM417.79,770.09h3.22l.54-1.85h-5.47l-1.71,6.44h2.15l.59-2.1h3.03l.44-1.71h-3.03l.24-.78ZM424.23,772.92c-.59,0-1.02-.39-1.02-1.12,0-.88.63-1.76,1.61-1.76.49,0,.88.24,1.02.78l1.95-.83c-.29-1.17-1.27-1.9-2.64-1.9-2.78,0-4.15,2.15-4.15,3.9s1.27,2.83,3.07,2.83c1.37,0,2.34-.59,2.98-1.42l-1.51-1.17c-.39.44-.83.68-1.32.68ZM430.91,768.23h-2.15l-1.76,6.44h5.12l.49-1.85h-2.93l1.22-4.59ZM439.75,771.01c0-1.66-1.32-2.93-3.22-2.93-2.2,0-3.81,1.81-3.81,3.81,0,1.66,1.32,2.93,3.22,2.93,2.2,0,3.81-1.81,3.81-3.81ZM434.92,771.7c0-.83.59-1.71,1.51-1.71.78,0,1.17.54,1.17,1.22,0,.83-.59,1.71-1.51,1.71-.78,0-1.17-.54-1.17-1.22ZM443.21,772.23h1.07l-.2.68c-.15.05-.34.1-.59.1-.68,0-1.27-.39-1.27-1.22,0-1.02.73-1.9,1.95-1.9.59,0,1.12.24,1.51.59l1.37-1.37c-.44-.54-1.51-1.07-2.73-1.07-2.59,0-4.29,1.76-4.29,3.86s1.61,2.88,3.22,2.88c.93,0,1.85-.29,2.49-.68l.93-3.32h-3.12l-.34,1.46ZM450.78,768.08c-2.2,0-3.81,1.81-3.81,3.81,0,1.66,1.32,2.93,3.22,2.93,2.2,0,3.81-1.81,3.81-3.81,0-1.66-1.32-2.93-3.22-2.93ZM450.34,772.92c-.78,0-1.17-.54-1.17-1.22,0-.83.59-1.71,1.51-1.71.78,0,1.17.54,1.17,1.22,0,.83-.59,1.71-1.51,1.71ZM437.94,767.5c-.05.29.1.49.44.49s.54-.2.63-.49c.05-.24-.1-.49-.44-.49s-.59.24-.63.49ZM432.13,765.5c-.44,0-.73.24-.78.59s.1.59.54.59.73-.24.78-.59c.1-.34-.1-.59-.54-.59ZM433.01,767.3c-.1.54.15.88.83.88.63,0,1.07-.39,1.17-.88s-.15-.88-.83-.88c-.68,0-1.07.39-1.17.88ZM439.6,777.55l-2.44-1.81h-1.51l4.25,3.17,1.61-3.17h-.98l-.93,1.81ZM425.84,767.16l-2-1.46,23.13-2.78-2.15,4.25h1.02l2.68-5.32-26.99,3.22,2.78,2.1h1.51ZM338.72,785.79l.61-3.83h2.32l-.08.52h-1.76l-.18,1.14h1.63l-.08.52h-1.62l-.26,1.64h-.57ZM342.97,785.84c-.36,0-.62-.1-.8-.3-.17-.2-.23-.47-.18-.82l.27-1.7c.06-.34.2-.61.44-.82.24-.2.54-.3.89-.3s.62.1.8.3c.17.2.24.47.18.81l-.27,1.71c-.06.34-.2.62-.44.82-.24.2-.54.3-.9.3ZM343.05,785.33c.19,0,.35-.05.47-.16.12-.11.19-.26.23-.46l.27-1.7c.03-.2,0-.35-.08-.46-.08-.11-.22-.16-.41-.16s-.35.05-.46.16c-.12.1-.19.26-.22.46l-.27,1.7c-.03.2,0,.35.08.46s.22.16.41.16ZM345,785.79l.61-3.83h1.2c.24,0,.44.05.6.14.16.09.28.22.36.39s.09.37.05.59c-.04.26-.14.48-.3.67-.16.19-.37.32-.6.39l.54,1.64h-.62l-.48-1.57h-.54l-.25,1.57h-.57ZM345.89,783.71h.64c.19,0,.35-.06.48-.17.13-.11.21-.26.24-.45.03-.19,0-.35-.09-.46-.09-.11-.24-.17-.43-.17h-.64l-.2,1.25ZM349.54,785.79l.61-3.83h1.25c.37,0,.65.1.84.31.19.21.26.49.2.84-.04.23-.12.44-.25.61s-.29.31-.49.4c-.2.09-.42.14-.66.14h-.69l-.24,1.52h-.57ZM350.43,783.75h.69c.19,0,.36-.06.49-.18.14-.12.22-.27.25-.47s0-.35-.1-.47-.25-.18-.44-.18h-.69l-.21,1.29ZM352.75,785.79l.61-3.83h2.25l-.08.5h-1.7l-.17,1.09h1.51l-.08.5h-1.51l-.19,1.24h1.69l-.08.5h-2.25ZM355.84,785.79l.61-3.83h1.2c.24,0,.44.05.6.14.16.09.28.22.36.39s.09.37.05.59c-.04.26-.14.48-.3.67-.16.19-.37.32-.6.39l.54,1.64h-.62l-.48-1.57h-.54l-.25,1.57h-.57ZM356.74,783.71h.64c.19,0,.35-.06.48-.17.13-.11.21-.26.24-.45.03-.19,0-.35-.09-.46-.09-.11-.24-.17-.43-.17h-.64l-.2,1.25ZM360.13,785.84c-.39,0-.67-.1-.87-.29-.19-.19-.26-.45-.22-.78h.57c-.03.17.01.31.12.41.11.1.27.15.48.15.2,0,.37-.05.5-.15.13-.1.21-.23.24-.4.02-.15,0-.28-.06-.39-.06-.11-.16-.18-.29-.22l-.46-.14c-.27-.08-.46-.22-.59-.41-.13-.19-.17-.42-.13-.68.04-.21.11-.39.23-.55s.27-.28.46-.37.4-.13.64-.13c.35,0,.62.1.8.29.18.19.25.44.2.76h-.57c.03-.17,0-.3-.09-.4-.09-.1-.23-.14-.42-.14s-.34.04-.46.13c-.12.09-.19.21-.21.38-.02.15,0,.28.05.39s.16.18.29.22l.47.15c.26.08.46.22.58.41.12.19.17.42.12.69-.04.22-.12.41-.24.57-.13.16-.29.29-.49.38-.2.09-.42.13-.66.13ZM363.27,785.84c-.36,0-.62-.1-.8-.3-.17-.2-.23-.47-.18-.82l.27-1.7c.06-.34.2-.61.44-.82.24-.2.54-.3.89-.3s.62.1.8.3c.17.2.24.47.18.81l-.27,1.71c-.06.34-.2.62-.44.82-.24.2-.54.3-.9.3ZM363.34,785.33c.19,0,.35-.05.47-.16.12-.11.19-.26.23-.46l.27-1.7c.03-.2,0-.35-.08-.46-.08-.11-.22-.16-.41-.16s-.35.05-.46.16c-.12.1-.19.26-.22.46l-.27,1.7c-.03.2,0,.35.08.46s.22.16.41.16ZM365.28,785.79l.61-3.83h.71l.62,3.19c0-.1.02-.22.03-.36.01-.14.03-.29.04-.44.02-.15.04-.29.06-.41l.31-1.98h.52l-.61,3.83h-.71l-.61-3.19c0,.09-.02.21-.03.34s-.03.28-.04.42c-.02.15-.04.28-.06.41l-.31,2.01h-.53ZM368.23,785.79l1.59-3.83h.75l.37,3.83h-.56l-.07-.97h-1.09l-.39.97h-.59ZM369.39,784.34h.87l-.09-1.1c-.02-.2-.03-.37-.04-.51,0-.14-.01-.24-.01-.3-.02.06-.05.16-.1.3s-.11.31-.19.5l-.44,1.11ZM371.72,785.79l.61-3.83h.57l-.52,3.31h1.67l-.08.52h-2.25ZM376.68,785.84c-.37,0-.63-.1-.8-.3-.17-.2-.22-.47-.17-.82l.44-2.76h.57l-.44,2.76c-.03.2,0,.35.07.46.08.11.21.17.41.17s.35-.06.46-.17c.12-.11.19-.27.22-.46l.44-2.76h.57l-.44,2.76c-.06.35-.2.62-.43.82-.23.2-.53.3-.9.3ZM379.84,785.84c-.39,0-.67-.1-.87-.29-.19-.19-.26-.45-.22-.78h.57c-.03.17.01.31.12.41.11.1.27.15.48.15.2,0,.37-.05.5-.15.13-.1.21-.23.24-.4.02-.15,0-.28-.06-.39-.06-.11-.16-.18-.29-.22l-.46-.14c-.27-.08-.46-.22-.59-.41-.13-.19-.17-.42-.13-.68.04-.21.11-.39.23-.55s.27-.28.46-.37.4-.13.64-.13c.35,0,.62.1.8.29.18.19.25.44.2.76h-.57c.03-.17,0-.3-.09-.4-.09-.1-.23-.14-.42-.14s-.34.04-.46.13c-.12.09-.19.21-.21.38-.02.15,0,.28.05.39s.16.18.29.22l.47.15c.26.08.46.22.58.41.12.19.17.42.12.69-.04.22-.12.41-.24.57-.13.16-.29.29-.49.38-.2.09-.42.13-.66.13ZM381.91,785.79l.61-3.83h2.25l-.08.5h-1.7l-.17,1.09h1.51l-.08.5h-1.51l-.19,1.24h1.69l-.08.5h-2.25ZM386.94,785.84c-.36,0-.62-.1-.8-.3-.17-.2-.23-.47-.18-.82l.27-1.7c.06-.34.2-.61.44-.82.24-.2.54-.3.89-.3s.62.1.8.3c.17.2.24.47.18.81l-.27,1.71c-.06.34-.2.62-.44.82-.24.2-.54.3-.9.3ZM387.02,785.33c.19,0,.35-.05.47-.16.12-.11.19-.26.23-.46l.27-1.7c.03-.2,0-.35-.08-.46-.08-.11-.22-.16-.41-.16s-.35.05-.46.16c-.12.1-.19.26-.22.46l-.27,1.7c-.03.2,0,.35.08.46s.22.16.41.16ZM388.95,785.79l.61-3.83h.71l.62,3.19c0-.1.02-.22.03-.36.01-.14.03-.29.04-.44.02-.15.04-.29.06-.41l.31-1.98h.52l-.61,3.83h-.71l-.61-3.19c0,.09-.02.21-.03.34s-.03.28-.04.42c-.02.15-.04.28-.06.41l-.31,2.01h-.53ZM392.25,785.79l.61-3.83h.57l-.52,3.31h1.67l-.08.52h-2.25ZM396.12,785.79l.22-1.41-.75-2.42h.58l.45,1.45c.03.09.05.18.07.27.02.08.03.15.03.19.02-.04.05-.1.09-.19.04-.08.09-.17.14-.27l.9-1.45h.6l-1.53,2.42-.22,1.41h-.57ZM399.22,785.79l.61-3.83h.71l.62,3.19c0-.1.02-.22.03-.36.01-.14.03-.29.04-.44.02-.15.04-.29.06-.41l.31-1.98h.52l-.61,3.83h-.71l-.61-3.19c0,.09-.02.21-.03.34s-.03.28-.04.42c-.02.15-.04.28-.06.41l-.31,2.01h-.53ZM403.51,785.84c-.36,0-.62-.1-.8-.3-.18-.2-.23-.47-.18-.82l.27-1.7c.06-.34.2-.61.44-.82.24-.2.54-.3.89-.3s.62.1.8.3c.17.2.24.47.18.81l-.27,1.71c-.06.34-.2.62-.44.82-.24.2-.54.3-.89.3ZM403.58,785.33c.19,0,.35-.05.47-.16.12-.11.19-.26.23-.46l.27-1.7c.03-.2,0-.35-.08-.46-.08-.11-.22-.16-.41-.16s-.35.05-.46.16c-.12.1-.19.26-.22.46l-.27,1.7c-.03.2,0,.35.08.46.08.11.22.16.41.16ZM406.38,785.79l.52-3.31h-1.02l.08-.52h2.62l-.08.52h-1.03l-.52,3.31h-.57ZM409.52,785.79l.61-3.83h2.32l-.08.52h-1.76l-.18,1.14h1.63l-.08.52h-1.62l-.26,1.64h-.57ZM413.77,785.84c-.36,0-.62-.1-.8-.3-.18-.2-.23-.47-.18-.82l.27-1.7c.06-.34.2-.61.44-.82.24-.2.54-.3.89-.3s.62.1.8.3c.17.2.24.47.18.81l-.27,1.71c-.06.34-.2.62-.44.82-.24.2-.54.3-.89.3ZM413.85,785.33c.19,0,.35-.05.47-.16.12-.11.19-.26.23-.46l.27-1.7c.03-.2,0-.35-.08-.46-.08-.11-.22-.16-.41-.16s-.35.05-.46.16c-.12.1-.19.26-.22.46l-.27,1.7c-.03.2,0,.35.08.46.08.11.22.16.41.16ZM415.8,785.79l.61-3.83h1.2c.24,0,.44.05.6.14.16.09.28.22.36.39s.09.37.05.59c-.04.26-.14.48-.3.67-.16.19-.37.32-.6.39l.54,1.64h-.62l-.48-1.57h-.54l-.25,1.57h-.57ZM416.69,783.71h.64c.19,0,.35-.06.48-.17.13-.11.21-.26.24-.45.03-.19,0-.35-.09-.46-.09-.11-.24-.17-.43-.17h-.64l-.2,1.25ZM420.91,785.84c-.36,0-.63-.1-.81-.3-.18-.2-.24-.47-.19-.82l.27-1.7c.06-.35.21-.62.45-.82s.55-.3.91-.3.63.1.81.3c.18.2.24.47.19.82h-.57c.03-.2,0-.35-.09-.46-.09-.11-.23-.16-.42-.16s-.35.05-.47.16c-.12.1-.2.26-.23.45l-.27,1.71c-.03.2,0,.35.09.46.09.11.23.16.42.16s.35-.05.47-.16.2-.26.23-.46h.57c-.03.23-.11.43-.24.59s-.28.3-.47.39c-.19.09-.4.14-.64.14ZM424.03,785.84c-.36,0-.62-.1-.8-.3-.18-.2-.23-.47-.18-.82l.27-1.7c.06-.34.2-.61.44-.82.24-.2.54-.3.89-.3s.62.1.8.3c.17.2.24.47.18.81l-.27,1.71c-.06.34-.2.62-.44.82-.24.2-.54.3-.89.3ZM424.11,785.33c.19,0,.35-.05.47-.16.12-.11.19-.26.23-.46l.27-1.7c.03-.2,0-.35-.08-.46-.08-.11-.22-.16-.41-.16s-.35.05-.46.16c-.12.1-.19.26-.22.46l-.27,1.7c-.03.2,0,.35.08.46.08.11.22.16.41.16ZM425.97,785.79l.61-3.83h.69l.18,1.23c.02.12.04.23.05.33.01.1.02.18.03.24.02-.06.05-.14.09-.24.04-.11.09-.22.15-.34l.57-1.22h.71l-.61,3.83h-.54l.2-1.29c.02-.17.06-.35.1-.55.04-.2.09-.4.14-.61s.1-.4.14-.59c.05-.19.09-.35.13-.49l-.86,1.86h-.55l-.28-1.86c0,.14-.01.29-.02.47s-.02.37-.04.57c-.02.2-.04.41-.06.61-.02.2-.05.4-.08.57l-.2,1.29h-.54ZM429.11,785.79l.61-3.83h.69l.18,1.23c.02.12.04.23.05.33.01.1.02.18.03.24.02-.06.05-.14.09-.24.04-.11.09-.22.15-.34l.57-1.22h.71l-.61,3.83h-.54l.2-1.29c.02-.17.06-.35.1-.55.04-.2.09-.4.14-.61s.1-.4.14-.59c.05-.19.09-.35.13-.49l-.86,1.86h-.55l-.28-1.86c0,.14-.01.29-.02.47s-.02.37-.04.57c-.02.2-.04.41-.06.61-.02.2-.05.4-.08.57l-.2,1.29h-.54ZM432.41,785.79l.61-3.83h2.25l-.08.5h-1.7l-.17,1.09h1.51l-.08.5h-1.51l-.19,1.24h1.69l-.08.5h-2.25ZM435.51,785.79l.61-3.83h1.2c.24,0,.44.05.6.14.16.09.28.22.36.39s.09.37.05.59c-.04.26-.14.48-.3.67-.16.19-.37.32-.6.39l.54,1.64h-.62l-.48-1.57h-.54l-.25,1.57h-.57ZM436.4,783.71h.64c.19,0,.35-.06.48-.17.13-.11.21-.26.24-.45.03-.19,0-.35-.09-.46-.09-.11-.24-.17-.43-.17h-.64l-.2,1.25ZM439.8,785.84c-.36,0-.63-.1-.81-.3-.18-.2-.24-.47-.19-.82l.27-1.7c.06-.35.21-.62.45-.82s.55-.3.91-.3.63.1.81.3c.18.2.24.47.19.82h-.57c.03-.2,0-.35-.09-.46-.09-.11-.23-.16-.42-.16s-.35.05-.47.16c-.12.1-.2.26-.23.45l-.27,1.71c-.03.2,0,.35.09.46.09.11.23.16.42.16s.35-.05.47-.16.2-.26.23-.46h.57c-.03.23-.11.43-.24.59s-.28.3-.47.39c-.19.09-.4.14-.64.14ZM441.88,785.79l.08-.5h.78l.45-2.82h-.78l.08-.5h2.13l-.08.5h-.78l-.45,2.82h.78l-.08.5h-2.13ZM444.74,785.79l1.59-3.83h.75l.37,3.83h-.56l-.07-.97h-1.09l-.39.97h-.59ZM445.9,784.34h.87l-.09-1.1c-.02-.2-.03-.37-.04-.51,0-.14-.01-.24-.01-.3-.02.06-.05.16-.1.3s-.11.31-.19.5l-.44,1.11ZM448.24,785.79l.61-3.83h.57l-.52,3.31h1.67l-.08.52h-2.25ZM453.19,785.84c-.37,0-.63-.1-.8-.3-.17-.2-.22-.47-.17-.82l.44-2.76h.57l-.44,2.76c-.03.2,0,.35.07.46.08.11.21.17.41.17s.35-.06.46-.17c.12-.11.19-.27.22-.46l.44-2.76h.57l-.44,2.76c-.06.35-.2.62-.43.82-.23.2-.53.3-.9.3ZM456.36,785.84c-.39,0-.67-.1-.87-.29-.19-.19-.26-.45-.22-.78h.57c-.03.17.01.31.12.41.11.1.27.15.48.15.2,0,.37-.05.5-.15s.21-.23.24-.4c.02-.15,0-.28-.06-.39s-.16-.18-.29-.22l-.46-.14c-.27-.08-.46-.22-.59-.41-.13-.19-.17-.42-.13-.68.04-.21.11-.39.23-.55s.27-.28.46-.37c.19-.09.4-.13.64-.13.35,0,.62.1.8.29.18.19.25.44.2.76h-.57c.03-.17,0-.3-.09-.4-.09-.1-.23-.14-.42-.14s-.34.04-.46.13c-.12.09-.19.21-.21.38-.02.15,0,.28.05.39s.16.18.29.22l.47.15c.26.08.46.22.58.41.12.19.17.42.12.69-.04.22-.12.41-.24.57-.13.16-.29.29-.49.38-.2.09-.42.13-.66.13ZM458.42,785.79l.61-3.83h2.25l-.08.5h-1.7l-.17,1.09h1.51l-.08.5h-1.51l-.19,1.24h1.69l-.08.5h-2.25Z"/>
  <g>
    <g>
      <path class="st3" d="M400,142.21c-109.96,0-203.98,30.12-203.98,30.12v368.74c0,70.52,33.05,92.55,71.25,113.85,38.2,21.3,132.73,74.92,132.73,74.92,0,0,94.53-53.62,132.73-74.92,38.2-21.3,71.25-43.34,71.25-113.85V172.32s-94.02-30.12-203.98-30.12Z"/>
      <circle class="st3" cx="400" cy="170.25" r="120.25"/>
      <path class="st4" d="M400,723.12c-16.16-9.16-95.85-54.33-129.88-73.31-39.97-22.29-68.25-43.14-68.25-108.75V176.66c19.12-5.62,103.12-28.61,198.14-28.61s179.02,22.99,198.14,28.61v364.4c0,65.61-28.29,86.46-68.25,108.75-34.03,18.98-113.72,64.14-129.88,73.31Z"/>
      <path class="st0" d="M588.39,184v357.06c0,27.19-5.06,45.88-14.1,60.16-5.86,9.23-13.38,16.63-22.26,23.25-7.58,5.69-16.12,10.81-25.51,16.07-.45.25-.92.53-1.38.78-9.95,5.53-23.78,13.32-38.77,21.77-14.57,8.22-30.24,17.08-44.56,25.18-16.32,9.23-30.83,17.45-39.86,22.55-.68.39-1.32.76-1.95,1.11-10.44-5.9-30.2-17.12-51.72-29.27-8.82-5-17.96-10.17-26.84-15.17-9.43-5.32-18.56-10.46-26.82-15.09-7.48-4.21-14.22-7.98-19.77-11.08-5.98-3.33-11.63-6.58-16.9-9.95-9.93-6.33-18.56-13.03-25.59-21.21-5.88-6.82-10.65-14.68-14.12-24.26-4.3-11.9-6.64-26.41-6.64-44.83V184c27.42-7.58,103.49-26.21,188.39-26.21s161.01,18.62,188.39,26.21Z"/>
      <path class="st4" d="M400,284.66c-63.09,0-114.41-51.32-114.41-114.41s51.32-114.41,114.41-114.41,114.41,51.32,114.41,114.41-51.32,114.41-114.41,114.41Z"/>
      <path class="st0" d="M400,69.47c-55.57,0-100.78,45.21-100.78,100.78s45.21,100.78,100.78,100.78,100.78-45.21,100.78-100.78-45.21-100.78-100.78-100.78ZM492.77,164.15c-10.03-8.09-21.95-12.92-30.26-15.55-3.04-16.45-9.72-29.12-12.99-34.59l8.29-16.5c19.92,15.86,33.19,39.7,34.95,66.64ZM451.44,92.84l-8.99,17.89c-9.73-.26-24.1.76-32.29,1.45-12-10.28-24.85-17.81-32.7-21.97l9.77-12.04c4.18-.58,8.43-.9,12.77-.9,19.01,0,36.7,5.74,51.44,15.57ZM339.13,113.48c10.85-8.32,25.1-15.05,31.66-17.95,6.36,3.22,19.38,10.35,31.76,20.43-5.22,13.8-6.53,28.85-6.85,34.85-10.39,3.43-27.3,9.76-44.81,19.39l-18.46-15.44c.78-19.71,4.44-34.09,6.71-41.28ZM400,263.24c-51.27,0-92.99-41.71-92.99-92.99,0-24.46,9.51-46.73,25.01-63.35l.47,1.79c-2.39,6.88-7.25,23.65-7.93,47.9l-13.26,17.57,7.99,13.22h26.44l4.27-7.71c19.45-11.32,39.18-18.53,49.88-22,8.57,8.11,14.72,12.59,14.72,12.59h30.02l14.55-14.51c9.1,2.81,23.72,8.64,33.7,19.05-2.38,49.17-43.12,88.45-92.87,88.45Z"/>
      <path class="st4" d="M400,700.74c-29.77-16.87-91.3-51.7-120.4-67.93-36.13-20.15-58.27-35.36-58.27-91.74V191.47c32.27-8.48,101.69-23.95,178.66-23.95s146.45,15.46,178.66,23.94v349.6c0,56.39-22.14,71.6-58.26,91.74-29.1,16.23-90.63,51.06-120.4,67.93Z"/>
    </g>
    <g>
      <path class="st0" d="M530.24,558.24c-23.14-29.76-34.7-56.2-26.99-81.54,7.71-25.34,21.48-26.45,36.36-24.25,0,0,.92,8.82.18,27.09,0,0,31.22-26.08,32.33-70.15,1.09-44.07-44.81-46.64-47.01-46.27,0,0-26.82-42.61-81.54-43.35-54.72-.74-139.2,23.14-213.38,121.93,0,0,13.22-5.14,29.74-9.54,0,0-47.56,77.41-41.67,153.73,3.47,9.58,8.24,17.45,14.12,24.26,2.69-42.41,16.81-123.56,83.02-165.51,0,0-27.89,1.48-54.7,29.35.35-1.67,12.35-55.4,73.81-77.45,0,0-19.22-2.51-56.57,14.68,0,0,45.36-58.38,117.02-73.46,71.65-15.05,98.58,3.31,115.46,25.71,0,0-32.03,9.37-40.58,8.28,0,0,4.69,14.04-13.22,20.93-17.9,6.87-63.89,22.22-82.08,43.33,0,0,20.66-6.97,37.74-6.43,0,0-50.4,36.09-57.02,78.5,0,0,39.12-46.54,73.83-50.4,0,0-71.63,67.11-63.91,166.83,0,0,16.9-100.8,82.26-134.22-.62,1.27-25.9,52.44-12.83,106.85,0,0,4.4-75.66,49.58-100.64,0,0,.64,76.55,67.89,127.94,8.88-6.62,16.4-14.02,22.26-23.25-15.23-12.64-32.85-28.59-44.05-42.98ZM483.95,431.62c-7.71-4.13-17.9-9.64-31.66-12.4-13.77-2.75-31.41-2.75-31.41-2.75,4.97-2.77,20.12-8.55,34.43-10.48,14.33-1.93,25.08-7.98,30.3-13.77,5.24-5.78,10.48-12.66,16.53-16.51,6.06-3.88,38.36-9.95,50.69,14.31,12.31,24.26-5.51,64.46-5.51,64.46-1.66-28.37-16.81-39.94-42.98-42.98-26.17-3.02-56.46,5.24-56.46,5.24,33.32.82,42.96.27,63.08,5.78,20.1,5.51,21.75,17.9,21.75,17.9-24.25.29-41.05-4.67-48.76-8.8Z"/>
      <path class="st0" d="M334.94,481.2s-34.96,57.21-40.31,171.2c-7.48-4.21-14.22-7.98-19.77-11.08-5.98-3.33-11.63-6.58-16.9-9.95,7.32-41.87,26.56-105.34,76.98-150.16Z"/>
      <path class="st0" d="M348.28,682.66c-8.82-5-17.96-10.17-26.84-15.17-.64-22.34,1.77-57,16.81-95.38,0,0,.58,64.65,10.03,110.55Z"/>
      <path class="st0" d="M526.52,640.54c-.45.25-.92.53-1.38.78-9.95,5.53-23.78,13.32-38.77,21.77-10.54-23.76-19.18-59.98-14.25-111.92,0,0,4.5,36.81,54.41,89.37Z"/>
      <path class="st0" d="M435.3,359.91s-.41,5.51,0,7.71c0,0-5.92-7.99-21.9-7.71-15.98.28-42.14,7.16-63.9,24.79,0,0,22.31-9.37,42.97-10.74,0,0,1.38,9.37,11.02,12.67,0,0-4.68,1.93-15.98-3.31,0,0,12.67,15.7,30.85,12.4,18.18-3.31,24.52-8.26,33.88-12.95,9.37-4.68,12.81-7.44,12.81-7.44,0,0-19.56-1.65-29.75-15.43ZM420.88,385.8c-11.06.28-13.96-4.13-13.61-11.57s6.13-8.54,9.43-7.99c3.31.55,7.76,6.89,1.95,7.99-5.81,1.1-6.59,6.34,0,6.61,6.59.28,8.68-1.75,11.27-8.77,0,0,2.02,13.45-9.04,13.73Z"/>
      <path class="st0" d="M515.41,380.01s-14.05,2.57-14.05,7.35,5.51,6.61,6.61,2.94,7.44-10.28,7.44-10.28Z"/>
      <g>
        <path class="st0" d="M412.14,629.34c-10.51-28.39-12.14-47.11-12.14-47.11-2.28,16.03-3.36,31.88-3.64,47.11h15.78Z"/>
        <path class="st0" d="M397.18,665.98c1.03,16.67,2.81,31.9,4.77,44.84,9.04-5.1,23.54-13.32,39.86-22.55-4.93-7.64-9.27-15.1-13.11-22.29h-31.52Z"/>
      </g>
      <g>
        <path class="st0" d="M373.12,652.97h8.24v4.46h-15.53v-3.23l7.86-8.18c.86-.9,1.46-1.66,1.8-2.3.34-.64.51-1.29.51-1.96,0-.8-.23-1.45-.7-1.93s-1.12-.73-1.96-.73-1.6.25-2.22.74c-.62.5-1.15,1.24-1.59,2.23l-3.72-2.55c.59-1.37,1.53-2.52,2.82-3.43s2.9-1.37,4.85-1.37c1.52,0,2.84.28,3.96.84,1.11.56,1.97,1.36,2.56,2.39.59,1.03.89,2.21.89,3.55,0,1.2-.29,2.36-.87,3.46-.58,1.11-1.44,2.25-2.56,3.43l-4.35,4.58Z"/>
        <path class="st0" d="M385.77,654.9c-1.44-1.95-2.16-4.82-2.16-8.59s.72-6.67,2.16-8.64c1.44-1.96,3.5-2.95,6.19-2.95s4.75.98,6.19,2.95c1.44,1.96,2.16,4.84,2.16,8.64s-.72,6.64-2.16,8.59c-1.44,1.95-3.5,2.93-6.19,2.93s-4.75-.98-6.19-2.93ZM394.52,651.58c.6-1.19.9-2.95.9-5.28s-.3-4.14-.89-5.33-1.45-1.79-2.57-1.79-1.98.6-2.57,1.79-.89,2.97-.89,5.33.3,4.08.9,5.28,1.45,1.79,2.56,1.79,1.96-.6,2.56-1.79Z"/>
        <path class="st0" d="M412.67,657.43h-4.78v-16.96l-4.98,2.57v-4.98l5.78-2.95h3.97v22.31Z"/>
        <path class="st0" d="M421.38,657c-1.27-.55-2.26-1.31-2.96-2.27-.71-.96-1.06-2.06-1.06-3.3,0-1.37.4-2.57,1.2-3.59s1.78-1.75,2.95-2.19v-.09c-.91-.4-1.7-1.04-2.36-1.93-.66-.89-.99-1.9-.99-3.05s.32-2.13.96-3.02c.64-.89,1.53-1.58,2.69-2.09s2.47-.76,3.96-.76,2.81.25,3.96.76c1.15.51,2.05,1.2,2.69,2.09.64.89.96,1.89.96,3.02,0,1.2-.34,2.23-1,3.09-.67.86-1.47,1.49-2.4,1.89v.09c1.16.44,2.15,1.17,2.97,2.19s1.23,2.22,1.23,3.59c0,1.24-.35,2.35-1.04,3.32-.7.97-1.68,1.73-2.96,2.27-1.28.54-2.74.82-4.4.82s-3.12-.28-4.39-.83ZM428.31,652.74c.63-.51.94-1.21.94-2.09s-.31-1.58-.94-2.1c-.63-.52-1.48-.79-2.55-.79s-1.89.26-2.53.79c-.64.53-.96,1.23-.96,2.1s.31,1.57.94,2.09c.63.52,1.48.77,2.55.77s1.92-.26,2.55-.77ZM427.77,642.91c.5-.41.74-.97.74-1.67s-.25-1.24-.74-1.65-1.16-.61-2-.61-1.51.2-2,.61-.74.96-.74,1.65.25,1.26.74,1.67c.5.41,1.16.62,2,.62s1.51-.2,2-.62Z"/>
      </g>
    </g>
    <g>
      <g>
        <polygon class="st2" points="264.92 213.57 276.89 211.79 277.68 226.62 290.93 224.84 288.16 202.3 252.17 208.03 250.59 231.17 263.04 228.99 264.92 213.57"/>
        <polygon class="st2" points="274.71 232.75 275.11 223.65 265.22 225.43 264.43 234.53 250.59 236.71 250.19 244.62 276.3 240.47 276.3 255.3 270.76 271.12 264.82 258.07 249.6 260.44 257.11 278.24 281.64 274.09 291.13 252.53 290.93 230.77 274.71 232.75"/>
        <path class="st2" d="M294.49,209.22l17.8-1.66v5.27l-17.8,1.92v33.03l12.66-8.5v-18.23l20.29-2.17v18.06l12.66,6.72v-33.03l-15.74,1.11v-5.31l10.48-.98,5.93-7.71s-22.15.79-46.28,3.96v7.52Z"/>
        <polygon class="st2" points="324.35 221.87 312.29 222.76 312.29 244.22 294.49 259.25 294.49 272.31 318.62 253.32 340.77 267.36 340.77 254.7 324.35 244.42 324.35 221.87"/>
        <path class="st2" d="M369.69,223.61h12.61v-20.25c11.61-.08,24.18.09,34.72.31v19.94h12.61v-19.64c7.14.19,11.71.36,11.71.36l5.83-7.17c-4.97-.38-10.99-.65-17.54-.84v-3.56h-12.61v3.3c-11.78-.16-24.16-.14-34.72-.06v-3.24h-12.61v3.37c-8.66.12-14.29.24-14.29.24v7.96c3.91-.36,8.82-.6,14.29-.76v20.04Z"/>
        <polygon class="st2" points="365.24 206.55 355.4 206.55 355.4 225.53 365.24 220.34 365.24 206.55"/>
        <polygon class="st2" points="411.72 219.29 411.72 205.5 401.39 205.5 401.39 224.48 411.72 219.29"/>
        <polygon class="st2" points="386.21 219.25 396.98 224.48 396.98 205.5 386.21 205.5 386.21 219.25"/>
        <polygon class="st2" points="432.78 220.2 442.58 225.43 442.58 206.44 432.78 206.44 432.78 220.2"/>
        <path class="st2" d="M543.88,220.74l-16.09-1.57-3.21,8.36c-3.58-.52-7.41-1.07-11.41-1.63v-14.92c11.51,1.44,22.62,3.12,30.85,4.96l6.38-6.77s-16.86-2.86-37.23-5.7v-4.98l-17.21-2.08v4.79c-14.31-1.76-28.57-3.15-38.71-3.3v7.6s17.98,1.3,38.71,3.5v14.63c-13.69-1.69-27.67-3.13-38.71-3.63v8.16s2.06.12,5.64.36v11.64l-20.31,3.06v-12.24c-40.14-1.64-63.17-1.01-73.58-.47v-2.35l-13.6.59v19.04l13.6-5.09v-4.93c19.77-.5,61.11.2,61.11.2v7.13l-27.94,4.2-7.51-9.87-14.54.73,8.26,11.21-32.98,4.96v9.79l123.21-19.04v-3.31c28.28,2.83,54.96,7.25,54.96,7.25v17.31c-13.47-2.37-54.96-7.12-54.96-7.12v-10.88l-16.02,2.97v14.44c49.84,3.56,86.18,11.27,86.18,11.27v-32.83c-22.64-5.3-56.73-8.63-70.16-9.81v-6.66c19.27,1.65,47.91,4.66,70.16,9.4v-7.86s-2.97-.5-7.94-1.28l3.05-9.25Z"/>
        <path class="st2" d="M483.76,248.62v7.86s29.67,2.77,44.5,5.54v-7.75s-20.57-3.28-44.5-5.65Z"/>
      </g>
      <g>
        <path class="st2" d="M317.54,277.53s-15.62,2.31-15.62,2.31c-.14.02-.25.15-.25.29v24.97c0,.16.13.3.3.3h.04s15.61-2.31,15.61-2.31c.15-.02.25-.15.25-.29v-24.97c0-.16-.13-.29-.33-.29ZM311.81,299.79c0,.31-.22.56-.53.61l-2.85.4c-.37.05-.7-.23-.7-.61v-17.16c0-.31.22-.56.53-.61l2.85-.4c.37-.05.7.23.7.61v17.16Z"/>
        <path class="st2" d="M337.8,275.53s-15.35,1.79-15.35,1.79c-.22.03-.38.21-.38.43v24.71c0,.24.19.43.43.43h.05s15.34-1.79,15.34-1.79c.22-.03.38-.21.38-.43v-24.71c0-.24-.19-.43-.47-.43ZM332.21,297.33c0,.39-.29.71-.68.74l-2.59.23c-.44.04-.81-.3-.81-.74v-16.89c0-.39.31-.72.7-.74l2.59-.17c.43-.03.79.31.79.74v16.82Z"/>
        <path class="st2" d="M283.21,308.04s-.08-.03-.08-.08v-25.41s.03-.07.07-.08c0,0,16-2.66,16-2.66.05,0,.09.03.09.08v6.98s-.03.07-.07.08c0,0-5.59.92-5.59.92-.05,0-.09-.03-.09-.08v-3.02c0-.39-.32-.71-.71-.71-.04,0-.08,0-.12,0l-3.24.55c-.34.06-.59.35-.59.7v6.8c0,.19.07.37.21.5.13.13.31.21.5.21.04,0,.08,0,.12,0,0,0,7.59-1.28,7.59-1.28.05,0,.09.03.09.08v2.99s-.03.07-.07.08l-7.85,1.33c-.34.06-.59.35-.59.7v10.33s-.03.07-.07.08l-5.6.92Z"/>
        <path class="st2" d="M346.22,300.89s-.01,0-.01-.01v-22.01c0-.35-.29-.64-.64-.64h-.05s-5.59.46-5.59.46v-3.27s18.55-1.53,18.55-1.53v3.27s-5.93.5-5.93.5c-.33.03-.59.31-.59.64v21.67l-5.74.92Z"/>
        <path class="st2" d="M376,282.87v-7c0-1.31-1.07-2.38-2.37-2.38l-13.6.4c-.13,0-.23.11-.23.23v25.11c0,.13.11.23.23.23l12.99-.38c1.67-.05,2.98-1.4,2.98-3.07v-7.26c0-.46-.2-.9-.55-1.2l-1.73-1.48,1.36-1.17c.59-.51.93-1.25.93-2.03ZM369.94,294.45c0,.39-.31.72-.71.73l-2.61.1c-.42.02-.76-.32-.76-.73v-5.93c0-.41.33-.73.73-.73h2.61c.41,0,.73.33.73.73v5.83ZM369.94,283.5c0,.41-.33.74-.74.74h-2.6c-.41,0-.74-.33-.74-.74v-5.84c0-.41.34-.75.75-.74l2.6.03c.41,0,.73.34.73.74v5.81Z"/>
        <path class="st2" d="M515.4,293.74c.33-.29.53-.71.53-1.15v-7.65c0-1.38-.99-2.54-2.35-2.77l-13.48-2.21s-.04,0-.05,0c-.18,0-.32.14-.32.32v24.92c0,.16.11.29.27.32l13.53,2.21c.11.02.23.03.34.03.55,0,1.06-.21,1.45-.6.4-.39.61-.91.61-1.47v-7.96c0-.32-.14-.63-.39-.84l-1.06-.9c-.21-.18-.33-.44-.33-.72s.12-.54.33-.72l.92-.8ZM509.87,302.89c0,.38-.33.68-.71.63l-2.8-.32c-.32-.04-.56-.31-.56-.63v-6.13c0-.38.34-.68.72-.63l2.8.36c.32.04.56.31.56.63v6.1ZM509.87,291.53c0,.35-.29.64-.64.64l-2.65-.32c-.45-.05-.79-.44-.79-.89v-5.81c0-.42.4-.72.8-.62l2.8.76c.28.08.47.33.47.62v5.63Z"/>
        <path class="st2" d="M393.25,272.86l-12.71.18c-.99.01-1.8.84-1.8,1.83v23.84s.02.04.04.04h5.81s.04-.02.04-.04v-6.4c0-.57.46-1.03,1.03-1.03h2.52c.57,0,1.03.46,1.03,1.03v6.17s.02.04.04.04h5.81s.04-.02.04-.04v-23.78c0-1.02-.83-1.84-1.85-1.83ZM388.89,286.4c0,.55-.44.99-.99.99h-1.96c-.55,0-.99-.44-.99-.99v-9c0-.55.44-.99.99-.99h1.96c.55,0,.99.44.99.99v9Z"/>
        <path class="st2" d="M398.76,298.08l.02-24.99c0-.26.21-.47.47-.47l4.97.02c.26,0,.46.21.46.47l-.02,21.55c0,.34.27.61.61.61h2.96c.59,0,1.07-.48,1.07-1.07v-2.28c0-.26.21-.47.47-.47l4.97.02c.26,0,.47.21.46.47l-.02,6.16c0,.26-.21.46-.47.46h-15.51c-.26,0-.47-.21-.47-.47Z"/>
        <path class="st2" d="M416.98,298.53l.02-25.19c0-.2.17-.37.37-.37l5.17.02c.2,0,.37.17.37.37l-.02,21.65c0,.34.27.61.61.61h3.06c.54,0,.98-.44.98-.98v-2.48c0-.2.17-.37.37-.37l5.17.02c.2,0,.37.17.37.37l-.02,6.35c0,.2-.17.37-.37.37h-15.7c-.2,0-.37-.16-.37-.37Z"/>
        <path class="st2" d="M462.46,301.38c-.14-.01-.25-.13-.25-.27v-25.21c0-.15.12-.27.27-.27l5.37.69c.14.02.24.14.24.27v20.75c0,.45.34.84.79.9l2.84.37s.08,0,.12,0c.5,0,.9-.41.9-.9v-2.02c0-.15.12-.27.27-.27h5.34c.15,0,.27.12.27.27v6.7c0,.15-.12.27-.27.27l-15.89-1.27Z"/>
        <path class="st2" d="M442.92,299.63c-.08,0-.14-.07-.14-.15v-25.18c0-.08.07-.15.15-.15l15.92,1.26c.08,0,.14.07.14.15v6.55c0,.08-.07.15-.15.15l-5.45-.19c-.08,0-.14-.07-.14-.15v-3.03c0-.41-.32-.75-.73-.78,0,0-3.15-.2-3.15-.2-.48,0-.83.35-.83.78v17.38c0,.41.3.74.71.78l3.16.29h.06c.43,0,.78-.35.78-.78v-2.77c0-.08.07-.15.15-.15l5.46.28c.08,0,.14.07.14.15v7.19c0,.05-.03.09-.04.11-.03.03-.07.04-.1.04l-15.92-1.56Z"/>
        <path class="st2" d="M494.04,304.71c-.08,0-.17,0-.25-.01l-11.87-1.38c-1.1-.13-1.93-1.06-1.93-2.17v-23.27c0-.18.15-.33.33-.33l5.13.6c.17.02.29.16.29.33v20.99c0,.5.37.91.87.95l2.79.25s.06,0,.09,0c.53,0,.96-.43.96-.96v-20.62c0-.18.15-.33.33-.33l5.13.6c.17.02.29.16.29.33v22.86c0,.58-.23,1.12-.64,1.53-.41.41-.95.63-1.52.63h0Z"/>
      </g>
    </g>
    <g>
      <polygon class="st3" points="184.34 212.32 178.23 177.79 178.01 217.09 184.34 234.17 184.34 212.32"/>
      <polygon class="st3" points="184.34 283.32 184.34 263.46 173.32 220.66 177.59 262.72 184.34 283.32"/>
      <polygon class="st3" points="184.34 341.02 184.34 319.97 169.8 266.81 176.67 320.09 184.34 341.02"/>
      <polygon class="st3" points="174.33 388.31 184.34 418.71 184.34 389.75 170.23 325.85 174.33 388.31"/>
      <polygon class="st3" points="184.34 498.78 184.34 468.19 165.84 389.96 173.07 464.8 184.34 498.78"/>
      <path class="st3" d="M178.62,553.95c2.36,4.56,4.85,8.69,7.22,12.25-.99-7.71-1.5-16.07-1.5-25.14v-5.8c-12.17-37.39-19.47-75.58-19.47-75.58,0,0,3.21,40.7,4.38,56.2,1.17,15.52.88,21.67,9.37,38.07Z"/>
      <path class="st3" d="M184.77,602.83c5.8,4.99,11.35,8.32,16.34,10.54-4.11-6.91-7.56-14.63-10.26-23.37-14.9-13.52-25.69-52.15-25.69-52.15,0,0,2.63,50.34,19.61,64.99Z"/>
      <path class="st3" d="M229.11,644.33c-5.96-4.62-11.51-9.66-16.55-15.33v-.02c-25.9-10.89-38.15-23.58-39.14-24.62,15.62,23.08,27.61,31.26,46.62,37.39,3.15,1.01,6.19,1.87,9.07,2.57Z"/>
      <path class="st3" d="M272.11,671.03c-3.84-2.18-7.4-4.15-10.54-5.92-4.25-2.4-8.43-4.77-12.5-7.26l-.12-.04-59.06-19.55s39.22,21.36,47.71,24.6c3.6,1.38,18.52,4.75,34.51,8.18Z"/>
      <path class="st3" d="M293.92,683.28c-26.6-4.13-56.24-10.05-58.25-10.44,2.2.82,37.78,14.06,51.12,16.07,5.3.8,13.11,1.48,20.68,2.04-4.63-2.61-9.13-5.18-13.55-7.67Z"/>
      <path class="st3" d="M338.87,708.64c-3.93-2.2-7.95-4.48-11.98-6.74-20.86-.82-38.64-1.87-38.64-1.87,0,0,21.17,8,35.23,8.59,4.56.19,10.05.16,15.38.02Z"/>
      <path class="st3" d="M359.94,720.57c-17.97-1.05-37.23-2.4-37.23-2.4,0,0,21.07,7.03,25.96,7.22,2.26.1,11.16.14,20.08.16-2.78-1.58-5.73-3.25-8.8-4.99Z"/>
      <polygon class="st3" points="621.77 177.79 615.66 212.32 615.66 234.17 621.99 217.09 621.77 177.79"/>
      <polygon class="st3" points="626.68 220.66 615.66 263.46 615.66 283.32 622.41 262.72 626.68 220.66"/>
      <polygon class="st3" points="630.2 266.81 615.66 319.97 615.66 341.02 623.33 320.09 630.2 266.81"/>
      <polygon class="st3" points="629.77 325.85 615.66 389.75 615.66 418.71 625.67 388.31 629.77 325.85"/>
      <polygon class="st3" points="634.16 389.96 615.66 468.19 615.66 498.78 626.93 464.8 634.16 389.96"/>
      <path class="st3" d="M630.75,515.88c1.17-15.5,4.38-56.2,4.38-56.2,0,0-7.3,38.19-19.47,75.58v5.8c0,9.07-.51,17.43-1.5,25.14,2.38-3.56,4.87-7.69,7.22-12.25,8.49-16.4,8.2-22.55,9.37-38.07Z"/>
      <path class="st3" d="M609.15,590c-2.71,8.74-6.15,16.46-10.26,23.37,4.99-2.22,10.54-5.55,16.34-10.54,16.98-14.64,19.61-64.99,19.61-64.99,0,0-10.79,38.64-25.69,52.15Z"/>
      <path class="st3" d="M587.44,628.99v.02c-5.04,5.67-10.59,10.71-16.55,15.33,2.88-.7,5.92-1.56,9.07-2.57,19.01-6.13,31-14.31,46.62-37.39-.99,1.03-13.24,13.73-39.14,24.62Z"/>
      <path class="st3" d="M550.92,657.85c-4.07,2.49-8.26,4.87-12.5,7.26-3.14,1.77-6.7,3.74-10.54,5.92,15.99-3.43,30.91-6.8,34.51-8.18,8.49-3.23,47.71-24.6,47.71-24.6l-59.06,19.55-.12.04Z"/>
      <path class="st3" d="M492.52,690.95c7.58-.56,15.38-1.25,20.68-2.04,13.34-2.01,48.92-15.25,51.12-16.07-2.01.39-31.65,6.31-58.25,10.44-4.42,2.49-8.92,5.06-13.55,7.67Z"/>
      <path class="st3" d="M461.13,708.64c5.34.14,10.83.18,15.38-.02,14.06-.58,35.23-8.59,35.23-8.59,0,0-17.78,1.05-38.64,1.87-4.03,2.26-8.04,4.54-11.98,6.74Z"/>
      <path class="st3" d="M431.26,725.56c8.92-.02,17.82-.06,20.08-.16,4.89-.19,25.96-7.22,25.96-7.22,0,0-19.26,1.34-37.23,2.4-3.08,1.73-6.02,3.41-8.8,4.99Z"/>
      <path class="st3" d="M405.76,739.99l-5.76,3.27-5.76-3.27c-.12-.08-1.79-1.01-4.69-2.67l-28.06-.6,34.22,7.61,4.3,5.67,4.3-5.67,34.22-7.61-28.06.6c-2.9,1.66-4.58,2.59-4.69,2.67Z"/>
    </g>
  </g>
</svg>