<?xml version="1.0" encoding="UTF-8"?>
<svg data-name="图层_1" xmlns="http://www.w3.org/2000/svg" version="1.1" viewBox="0 0 800 800">
  <!-- Created by @FCLOGO 2025-1-9 GMT+8 10:42:11 . https://fclogo.top/ -->
<!-- FOR PERSONAL USE ONLY NOT FOR COMMERCIAL USE -->
  <path d="M348.2194,774.301c-.786,0-1.3752-.2173-1.7682-.6519-.393-.4352-.5284-1.03-.406-1.7856l.2518-1.6478c.122-.755.4501-1.3504.9841-1.785.5339-.4352,1.1939-.6525,1.9799-.6525.7553,0,1.3293.1987,1.7223.5954.3927.3967.551.9381.4747,1.6248h-1.2358c.0304-.3589-.0553-.637-.2573-.8357-.2024-.1981-.4979-.2974-.8869-.2974-.4197,0-.763.1167-1.03.3489-.2673.2328-.4349.5631-.5035.9903l-.2632,1.659c-.0686.4352-.0056.7686.1887,1.0015.1946.2328.5017.3489.9214.3489.389,0,.7152-.0987.9785-.2974.2632-.1981.4365-.4805.5206-.8469h1.2358c-.1372.6867-.4672,1.2306-.9897,1.631-.5228.4005-1.1616.6004-1.9169.6004ZM352.7967,774.1868l.9956-6.2943h1.1902l-.1946,1.1902c.3359-.8698.9729-1.3044,1.9113-1.3044.6712,0,1.1691.208,1.4932.624.3244.416.4293.9859.3148,1.7105l-.0686.4234h-1.2703l.0571-.3204c.0689-.4501.0115-.7953-.1714-1.0356-.1832-.2403-.4771-.3607-.8813-.3607-.4045,0-.7401.1223-1.007.3663-.2673.2446-.4349.588-.5035,1.03l-.6296,3.9711h-1.2358ZM361.9058,774.301c-.7705,0-1.3463-.2229-1.7279-.6693s-.515-1.0356-.4005-1.7682l.2518-1.6478c.0838-.488.2573-.9152.5206-1.2815s.6007-.6507,1.0129-.8524c.4119-.2024.8732-.3036,1.3845-.3036.7705,0,1.3485.2235,1.7338.6693.3852.4464.5169,1.0356.3949,1.7682l-.1717,1.1213h-3.845l-.0916.5265c-.1527.9536.2173,1.4305,1.1098,1.4305.7171,0,1.175-.2477,1.3734-.7438h1.2247c-.1679.5339-.5035.9599-1.007,1.2759-.5038.3166-1.0912.475-1.7626.475ZM361.2306,770.2157l-.0456.2862,2.6548-.0118.0459-.2856c.0686-.4656.0133-.822-.1661-1.0704-.1791-.2477-.4861-.3719-.9211-.3719-.4427,0-.7953.126-1.0586.3775-.2632.2521-.4331.6109-.5094,1.076ZM368.3258,774.301c-.6333,0-1.1027-.2117-1.4078-.6351s-.3967-1.0008-.2744-1.7335l.2744-1.7738c.1145-.7326.393-1.3119.8357-1.7397.4424-.4272.98-.6407,1.6133-.6407.4653,0,.8298.1186,1.093.3545.2632.2365.3908.5575.3834.9617h.023l.1717-1.202h1.2358l-.9956,6.2943h-1.2247l.1946-1.2014h-.023c-.122.4116-.3511.7339-.6867.9667s-.7401.3489-1.2129.3489ZM368.9324,773.2257c.389,0,.7152-.1186.9782-.3551.2632-.2359.4293-.5718.4979-1.007l.2518-1.6478c.0686-.4272.0096-.7612-.1773-1.0015-.1872-.2403-.475-.3601-.8642-.3601-.3967,0-.7249.118-.9841.3545-.2595.2365-.4234.5724-.492,1.007l-.2518,1.6478c-.0686.4427-.0133.7804.1658,1.0133.1794.2328.4712.3489.8757.3489ZM376.3477,774.1868c-.5721,0-.9937-.1565-1.2644-.4694-.271-.3123-.3607-.7512-.2691-1.3156l.538-3.3874h-1.7394l.1714-1.1219h1.7397l.2747-1.7161h1.2358l-.2747,1.7161h2.472l-.1832,1.1219h-2.4605l-.5377,3.3874c-.0764.4421.099.6637.5262.6637h1.7167l-.1717,1.1213h-1.7738ZM382.5042,774.301c-.7705,0-1.3463-.2229-1.7279-.6693s-.515-1.0356-.4005-1.7682l.2518-1.6478c.0838-.488.2573-.9152.5206-1.2815s.6007-.6507,1.0129-.8524c.4119-.2024.8732-.3036,1.3845-.3036.7705,0,1.3485.2235,1.7338.6693.3852.4464.5169,1.0356.3949,1.7682l-.1717,1.1213h-3.845l-.0916.5265c-.1527.9536.2173,1.4305,1.1098,1.4305.7171,0,1.175-.2477,1.3734-.7438h1.2247c-.1679.5339-.5035.9599-1.007,1.2759-.5038.3166-1.0912.475-1.7626.475ZM381.829,770.2157l-.0456.2862,2.6548-.0118.0459-.2856c.0686-.4656.0133-.822-.1661-1.0704-.1791-.2477-.4861-.3719-.9211-.3719-.4427,0-.7953.126-1.0586.3775-.2632.2521-.4331.6109-.5094,1.076ZM388.9243,774.301c-.6333,0-1.1008-.2117-1.4019-.6351-.3014-.4234-.3949-1.0008-.2803-1.7335l.2744-1.7738c.1145-.7326.393-1.3119.8357-1.7397.4424-.4272.98-.6407,1.6133-.6407.4653,0,.8298.1186,1.093.3545.2632.2365.3908.5575.3834.9617h.023l.2058-1.4652.2977-1.7962h1.2358l-1.3274,8.3537h-1.2247l.1946-1.2014h-.023c-.122.4116-.3511.7339-.6867.9667s-.7401.3489-1.2129.3489ZM389.5309,773.2257c.389,0,.7152-.1186.9782-.3551.2632-.2359.4293-.5718.4979-1.007l.2518-1.6478c.0761-.4272.0189-.7612-.1717-1.0015-.1909-.2403-.4805-.3601-.8698-.3601-.3967,0-.7249.118-.9841.3545-.2595.2365-.4234.5724-.492,1.007l-.2518,1.6478c-.0764.4427-.023.7804.1602,1.0133s.4768.3489.8813.3489ZM401.0175,774.301c-.4731,0-.8394-.1161-1.0986-.3489-.2595-.2328-.3852-.5551-.3775-.9667h-.0115l-.1946,1.2014h-1.2243l1.3274-8.3537h1.2358l-.2862,1.7962-.2744,1.4652h.0456c.122-.4123.353-.7345.6923-.9673.3396-.2322.7419-.3489,1.2076-.3489.633,0,1.1002.2136,1.4016.6407.3014.4278.3949,1.007.2806,1.7397l-.2747,1.7738c-.1145.7326-.3949,1.31-.8413,1.7335-.4461.4234-.9822.6351-1.6077.6351ZM400.7657,773.2257c.3967,0,.7227-.1161.9785-.3489.2555-.2328.4216-.5706.4976-1.0133l.2518-1.6478c.0689-.4346.0115-.7705-.1714-1.007-.1832-.2365-.4734-.3545-.8698-.3545-.3893,0-.7152.1198-.9785.3601s-.429.5743-.4979,1.0015l-.2518,1.6478c-.0686.4352-.0112.7711.1717,1.007.1832.2365.4731.3551.8698.3551ZM405.4694,776.2468l.1717-1.0642h1.934c.6407,0,1.007-.3017,1.0986-.9046l.1028-.6749.2061-1.1902h-.0345c-.122.4197-.3471.7438-.6752.9729-.3281.2285-.7286.3433-1.2014.3433-.6258,0-1.093-.2005-1.4019-.601s-.4104-.9443-.3033-1.631l.5836-3.6047h1.2358l-.5606,3.4793c-.0612.4116,0,.732.1832.9611s.4653.3433.8469.3433c.389,0,.7168-.1217.9841-.3663.267-.244.4309-.5836.492-1.0182l.538-3.3992h1.2358l-1.007,6.4086c-.0993.6029-.37,1.0778-.8124,1.4249-.4427.3471-.9996.5209-1.6707.5209h-1.9455ZM417.787,770.0853h3.221l.5368-1.8545h-5.4659l-1.7081,6.4419h2.1473l.5856-2.0985h3.0257l.4392-1.7081h-3.0257l.244-.7808ZM424.229,772.9158c-.5856,0-1.0249-.3904-1.0249-1.1225,0-.8784.6344-1.7569,1.6105-1.7569.488,0,.8784.244,1.0248.7808l1.9521-.8296c-.2928-1.1713-1.2689-1.9033-2.6353-1.9033-2.7817,0-4.1482,2.1473-4.1482,3.9042s1.2689,2.8305,3.0746,2.8305c1.3665,0,2.3425-.5856,2.9769-1.4153l-1.5129-1.1713c-.3904.4392-.8296.6832-1.3177.6832ZM430.9149,768.2308h-2.1473l-1.7569,6.4419h5.1242l.488-1.8545h-2.9281l1.2201-4.5874ZM439.7481,771.0125c0-1.6593-1.3177-2.9281-3.221-2.9281-2.1961,0-3.8066,1.8057-3.8066,3.8066,0,1.6593,1.3177,2.9281,3.221,2.9281,2.1961,0,3.8066-1.8057,3.8066-3.8066ZM434.9167,771.6957c0-.8296.5856-1.7081,1.5129-1.7081.7808,0,1.1713.5368,1.1713,1.2201,0,.8296-.5856,1.7081-1.5129,1.7081-.7808,0-1.1713-.5368-1.1713-1.2201ZM443.2131,772.2326h1.0737l-.1952.6832c-.1464.0488-.3416.0976-.5856.0976-.6832,0-1.2689-.3904-1.2689-1.2201,0-1.0249.732-1.9033,1.9521-1.9033.5856,0,1.1225.244,1.5129.5856l1.3665-1.3665c-.4392-.5368-1.5129-1.0737-2.7329-1.0737-2.5865,0-4.2946,1.7569-4.2946,3.8554,0,2.0497,1.6105,2.8793,3.221,2.8793.9272,0,1.8545-.2928,2.4889-.6832l.9272-3.3186h-3.1234l-.3416,1.4641ZM450.7775,768.0844c-2.1961,0-3.8066,1.8057-3.8066,3.8066,0,1.6593,1.3177,2.9281,3.221,2.9281,2.1961,0,3.8066-1.8057,3.8066-3.8066,0-1.6593-1.3177-2.9281-3.221-2.9281ZM450.3382,772.9158c-.7808,0-1.1713-.5368-1.1713-1.2201,0-.8296.5856-1.7081,1.5129-1.7081.7808,0,1.1713.5368,1.1713,1.2201,0,.8296-.5856,1.7081-1.5129,1.7081ZM437.9424,767.4987c-.0488.2928.0976.488.4392.488s.5368-.1952.6344-.488c.0488-.244-.0976-.488-.4392-.488s-.5856.244-.6344.488ZM432.1349,765.4978c-.4392,0-.732.244-.7808.5856s.0976.5856.5368.5856.732-.244.7808-.5856c.0976-.3416-.0976-.5856-.5368-.5856ZM433.0134,767.3035c-.0976.5368.1464.8784.8296.8784.6344,0,1.0737-.3904,1.1713-.8784s-.1464-.8784-.8296-.8784c-.6832,0-1.0737.3904-1.1713.8784ZM439.6017,777.552l-2.4401-1.8057h-1.5129l4.2458,3.1722,1.6105-3.1722h-.976l-.9272,1.8057ZM425.8394,767.1571l-2.0009-1.4641,23.1323-2.7817-2.1473,4.2458h1.0248l2.6841-5.3195-26.9877,3.221,2.7817,2.0985h1.5129ZM338.7186,785.7853l.6088-3.8315h2.32l-.084.5194h-1.7636l-.1837,1.1445h1.6272l-.084.5248h-1.6166l-.2573,1.6428h-.5668ZM342.97,785.8377c-.3568,0-.6228-.1005-.7978-.3019-.175-.201-.2345-.473-.1784-.8161l.2677-1.7006c.056-.3429.2029-.6148.4408-.8161.2379-.201.5355-.3019.8923-.3019s.6228.1.7979.2993c.1748.1993.2361.4707.1837.8136l-.2677,1.7057c-.0561.3431-.2039.6151-.4435.8161-.2398.2013-.5381.3019-.895.3019ZM343.0487,785.3339c.1925,0,.3483-.0524.4672-.1575.119-.1051.1942-.2571.2257-.4568l.2678-1.7006c.0315-.1993.0051-.3517-.0787-.4565-.084-.1051-.2223-.1575-.4148-.1575s-.3473.0524-.4645.1575c-.1173.1048-.1916.2571-.2231.4565l-.2677,1.7006c-.0315.1996-.0053.3517.0787.4568s.2204.1575.4094.1575ZM344.9961,785.7853l.6088-3.8315h1.202c.2379,0,.4391.0464.6036.139.1645.0928.2835.223.357.391s.091.3656.0524.5932c-.0384.2591-.14.4838-.3044.6746-.1645.1905-.3656.3209-.6036.391l.5354,1.6428h-.6194l-.4777-1.5748h-.5406l-.2466,1.5748h-.5668ZM345.8883,783.7068h.6352c.1889,0,.349-.0558.4803-.168.1313-.1119.2107-.2623.2388-.4514.0316-.1925,0-.3454-.0944-.4593-.0945-.1136-.2362-.1706-.4252-.1706h-.6352l-.1995,1.2493ZM349.545,785.7853l.6088-3.8315h1.2544c.3709,0,.6508.1048.8399.315.1889.2099.2553.4898.1993.8398-.0384.2344-.1216.4383-.2493.6114s-.2905.307-.4881.4015c-.1978.0945-.419.1418-.6639.1418h-.6928l-.2415,1.5221h-.5668ZM350.432,783.754h.6928c.1924,0,.3568-.0587.4934-.176.1364-.117.2204-.2737.2519-.4696s-.0017-.3525-.0997-.4699-.245-.1757-.441-.1757h-.6876l-.2099,1.2911ZM352.7466,785.7853l.6088-3.8315h2.2518l-.0787.5038h-1.6954l-.1731,1.0867h1.5115l-.0787.4986h-1.5115l-.1942,1.2387h1.6901l-.0787.5038h-2.2518ZM355.8434,785.7853l.6088-3.8315h1.202c.2379,0,.4391.0464.6036.139.1645.0928.2835.223.357.391s.091.3656.0524.5932c-.0384.2591-.14.4838-.3044.6746-.1645.1905-.3656.3209-.6036.391l.5354,1.6428h-.6194l-.4777-1.5748h-.5406l-.2466,1.5748h-.5668ZM356.7356,783.7068h.6352c.1889,0,.349-.0558.4803-.168.1313-.1119.2107-.2623.2388-.4514.0316-.1925,0-.3454-.0944-.4593-.0945-.1136-.2362-.1706-.4252-.1706h-.6352l-.1995,1.2493ZM360.1316,785.8377c-.385,0-.6736-.0951-.8661-.2859-.1924-.1908-.2641-.4505-.2151-.7794h.5668c-.028.1748.0105.3121.1155.4121.1051.0997.266.1495.483.1495.2029,0,.3701-.049.5012-.1469.1313-.098.2109-.2327.2389-.4044.0209-.1504.0007-.2788-.0604-.3856-.0614-.1068-.1583-.1811-.2913-.2233l-.4566-.1364c-.266-.0803-.4619-.217-.5879-.4095-.126-.1922-.1697-.4197-.1313-.6823.035-.2099.1121-.3935.2309-.551s.2729-.2799.4619-.3673.4024-.1313.6404-.1313c.3498,0,.6158.0954.7978.2859.182.1908.2485.4437.1995.7586h-.5668c.0279-.168-.0027-.3001-.092-.3964-.0891-.0963-.2301-.1444-.4225-.1444-.1889,0-.343.0447-.4619.1338-.119.0894-.1889.2144-.21.3753-.0245.1506-.007.2791.0525.3859s.1575.1811.2939.223l.4672.1469c.2624.0806.4558.2173.5801.4095.1242.1925.1653.4217.1233.6877-.035.217-.1155.4058-.2415.5667-.1259.1612-.2878.2862-.4855.3753-.1976.0894-.419.1338-.6639.1338ZM363.2651,785.8377c-.3568,0-.6228-.1005-.7978-.3019-.175-.201-.2345-.473-.1784-.8161l.2677-1.7006c.056-.3429.2029-.6148.4408-.8161.2379-.201.5355-.3019.8923-.3019s.6228.1.7979.2993c.1748.1993.2361.4707.1837.8136l-.2677,1.7057c-.0561.3431-.2039.6151-.4435.8161-.2398.2013-.5381.3019-.895.3019ZM363.3439,785.3339c.1925,0,.3483-.0524.4672-.1575.119-.1051.1942-.2571.2257-.4568l.2678-1.7006c.0315-.1993.0051-.3517-.0787-.4565-.084-.1051-.2223-.1575-.4148-.1575s-.3473.0524-.4645.1575c-.1173.1048-.1916.2571-.2231.4565l-.2677,1.7006c-.0315.1996-.0053.3517.0787.4568s.2204.1575.4094.1575ZM365.2754,785.7853l.6088-3.8315h.7086l.6194,3.186c.007-.098.0165-.217.0289-.3571.0121-.1398.0271-.2851.0446-.4354.0175-.1506.0367-.2888.0577-.4146l.315-1.9788h.525l-.609,3.8315h-.7085l-.6141-3.186c-.0071.0945-.0167.209-.0289.3437s-.0272.2757-.0446.4226c-.0177.1469-.0367.2833-.0578.4095l-.315,2.0102h-.5301ZM368.2252,785.7853l1.5851-3.8315h.7454l.3726,3.8315h-.5616l-.0735-.9711h-1.0865l-.3884.9711h-.5932ZM369.3852,784.3418h.8714l-.0893-1.1023c-.0175-.1959-.0298-.3654-.0367-.5089-.0071-.1435-.0105-.2432-.0105-.2993-.0175.0561-.0517.1558-.1024.2993s-.1146.3112-.1915.5038l-.441,1.1075ZM371.7208,785.7853l.6088-3.8315h.567l-.525,3.3118h1.6744l-.0787.5197h-2.2465ZM376.6785,785.8377c-.3673,0-.6342-.1005-.8003-.3019-.1663-.201-.2214-.475-.1654-.8213l.4357-2.7608h.567l-.4357,2.7554c-.0315.1962-.008.35.0708.4619.0787.1122.2144.168.4068.168.1925,0,.3473-.0558.4646-.168.1172-.1119.1915-.2657.2231-.4619l.4355-2.7554h.567l-.4357,2.7608c-.056.35-.2003.6245-.433.8241-.2328.1993-.5328.299-.9003.299ZM379.8435,785.8377c-.385,0-.6736-.0951-.8661-.2859-.1924-.1908-.2641-.4505-.2151-.7794h.5668c-.028.1748.0105.3121.1155.4121.1051.0997.266.1495.483.1495.2029,0,.3701-.049.5012-.1469.1313-.098.2109-.2327.2389-.4044.0209-.1504.0007-.2788-.0604-.3856-.0614-.1068-.1583-.1811-.2913-.2233l-.4566-.1364c-.266-.0803-.4619-.217-.5879-.4095-.126-.1922-.1697-.4197-.1313-.6823.035-.2099.1121-.3935.2309-.551s.2729-.2799.4619-.3673.4024-.1313.6404-.1313c.3498,0,.6158.0954.7978.2859.182.1908.2485.4437.1995.7586h-.5668c.0279-.168-.0027-.3001-.092-.3964-.0891-.0963-.2301-.1444-.4225-.1444-.1889,0-.343.0447-.4619.1338-.119.0894-.1889.2144-.21.3753-.0245.1506-.007.2791.0525.3859s.1575.1811.2939.223l.4672.1469c.2624.0806.4558.2173.5801.4095.1242.1925.1653.4217.1233.6877-.035.217-.1155.4058-.2415.5667-.1259.1612-.2878.2862-.4855.3753-.1976.0894-.419.1338-.6639.1338ZM381.9062,785.7853l.6088-3.8315h2.2518l-.0787.5038h-1.6954l-.1731,1.0867h1.5115l-.0787.4986h-1.5115l-.1942,1.2387h1.6901l-.0787.5038h-2.2518ZM386.9426,785.8377c-.3568,0-.6228-.1005-.7978-.3019-.175-.201-.2345-.473-.1784-.8161l.2677-1.7006c.056-.3429.2029-.6148.4408-.8161.2379-.201.5355-.3019.8923-.3019s.6228.1.7979.2993c.1748.1993.2361.4707.1837.8136l-.2677,1.7057c-.0561.3431-.2039.6151-.4435.8161-.2398.2013-.5381.3019-.895.3019ZM387.0213,785.3339c.1925,0,.3483-.0524.4672-.1575.119-.1051.1942-.2571.2257-.4568l.2678-1.7006c.0315-.1993.0051-.3517-.0787-.4565-.084-.1051-.2223-.1575-.4148-.1575s-.3473.0524-.4645.1575c-.1173.1048-.1916.2571-.2231.4565l-.2677,1.7006c-.0315.1996-.0053.3517.0787.4568s.2204.1575.4094.1575ZM388.9529,785.7853l.6088-3.8315h.7086l.6194,3.186c.007-.098.0165-.217.0289-.3571.0121-.1398.0271-.2851.0446-.4354.0175-.1506.0367-.2888.0577-.4146l.315-1.9788h.525l-.609,3.8315h-.7085l-.6141-3.186c-.0071.0945-.0167.209-.0289.3437s-.0272.2757-.0446.4226c-.0177.1469-.0367.2833-.0578.4095l-.315,2.0102h-.5301ZM392.249,785.7853l.6088-3.8315h.567l-.525,3.3118h1.6744l-.0787.5197h-2.2465ZM396.1174,785.7853l.2204-1.4119-.7506-2.4197h.5774l.4462,1.4486c.0279.0945.0498.1837.0656.2677.0157.084.0253.1469.0288.1888.0175-.0419.0464-.1048.0867-.1888.0402-.084.0883-.1731.1442-.2677l.8976-1.4486h.5984l-1.5275,2.4197-.2204,1.4119h-.5668ZM399.217,785.7853l.6088-3.8315h.7086l.6192,3.186c.0071-.098.0165-.217.029-.3571.012-.1398.0271-.2851.0444-.4354.0177-.1506.037-.2888.0578-.4146l.315-1.9788h.5248l-.6088,3.8315h-.7085l-.6141-3.186c-.0071.0945-.0167.209-.0289.3437s-.0272.2757-.0446.4226c-.0177.1469-.0367.2833-.0578.4095l-.315,2.0102h-.5301ZM403.5053,785.8377c-.3571,0-.6231-.1005-.7979-.3019-.1751-.201-.2344-.473-.1785-.8161l.2677-1.7006c.0561-.3429.203-.6148.4411-.8161.2378-.201.5354-.3019.8922-.3019.3571,0,.6228.1.7979.2993.1748.1993.2361.4707.1837.8136l-.2677,1.7057c-.0561.3431-.2039.6151-.4437.8161-.2395.2013-.5379.3019-.8947.3019ZM403.5839,785.3339c.1925,0,.3483-.0524.4673-.1575.1187-.1051.1942-.2571.2255-.4568l.2677-1.7006c.0316-.1993.0054-.3517-.0786-.4565-.084-.1051-.2224-.1575-.4146-.1575-.1925,0-.3474.0524-.4647.1575-.117.1048-.1914.2571-.223.4565l-.2677,1.7006c-.0316.1996-.0051.3517.0789.4568.0837.1051.2204.1575.4092.1575ZM406.3814,785.7853l.5248-3.3121h-1.0234l.084-.5194h2.6193l-.084.5194h-1.0289l-.5248,3.3121h-.567ZM409.5178,785.7853l.6088-3.8315h2.32l-.084.5194h-1.7636l-.1837,1.1445h1.6272l-.084.5248h-1.6166l-.2571,1.6428h-.567ZM413.7694,785.8377c-.3571,0-.6231-.1005-.7979-.3019-.1751-.201-.2344-.473-.1785-.8161l.2677-1.7006c.0561-.3429.203-.6148.4411-.8161.2378-.201.5354-.3019.8922-.3019.3571,0,.6228.1.7979.2993.1748.1993.2361.4707.1837.8136l-.2677,1.7057c-.0561.3431-.2039.6151-.4437.8161-.2395.2013-.5379.3019-.8947.3019ZM413.848,785.3339c.1925,0,.3483-.0524.4673-.1575.1187-.1051.1942-.2571.2255-.4568l.2677-1.7006c.0316-.1993.0054-.3517-.0786-.4565-.084-.1051-.2224-.1575-.4146-.1575-.1925,0-.3474.0524-.4647.1575-.117.1048-.1914.2571-.223.4565l-.2677,1.7006c-.0316.1996-.0051.3517.0789.4568.0837.1051.2204.1575.4092.1575ZM415.7952,785.7853l.6088-3.8315h1.202c.2381,0,.4391.0464.6037.139.1643.0928.2833.223.3568.391s.0911.3656.0527.5932c-.0387.2591-.1401.4838-.3044.6746-.1646.1905-.3659.3209-.6037.391l.5354,1.6428h-.6194l-.4776-1.5748h-.5408l-.2466,1.5748h-.567ZM416.6876,783.7068h.635c.1891,0,.3491-.0558.4804-.168.131-.1119.2107-.2623.2386-.4514.0316-.1925,0-.3454-.0945-.4593-.0943-.1136-.2361-.1706-.4252-.1706h-.635l-.1993,1.2493ZM420.905,785.8377c-.3602,0-.6308-.1005-.8107-.3019-.1803-.201-.2423-.473-.1865-.8161l.2677-1.7006c.0561-.3463.2056-.6194.4488-.8187s.545-.2993.9056-.2993c.3568,0,.6253.1008.8056.3019.1803.2013.2423.4733.1865.8161h-.567c.0313-.1993.0026-.3517-.0866-.4565-.0894-.1051-.2284-.1575-.4175-.1575-.1925,0-.3508.0524-.475.1575-.1242.1048-.2019.2554-.2335.4514l-.2677,1.7057c-.0316.1996-.0026.3517.0866.4568.0894.1051.2301.1575.4226.1575s.35-.0524.4724-.1575.1993-.2571.2309-.4568h.5667c-.0347.2275-.1145.4252-.2386.5932s-.2808.2976-.4699.3884c-.1888.0908-.4024.1364-.6404.1364ZM424.0335,785.8377c-.3571,0-.6231-.1005-.7979-.3019-.1751-.201-.2344-.473-.1785-.8161l.2677-1.7006c.0561-.3429.203-.6148.4411-.8161.2378-.201.5354-.3019.8922-.3019.3571,0,.6228.1.7979.2993.1748.1993.2361.4707.1837.8136l-.2677,1.7057c-.0561.3431-.2039.6151-.4437.8161-.2395.2013-.5379.3019-.8947.3019ZM424.1121,785.3339c.1925,0,.3483-.0524.4673-.1575.1187-.1051.1942-.2571.2255-.4568l.2677-1.7006c.0316-.1993.0054-.3517-.0786-.4565-.084-.1051-.2224-.1575-.4146-.1575-.1925,0-.3474.0524-.4647.1575-.117.1048-.1914.2571-.223.4565l-.2677,1.7006c-.0316.1996-.0051.3517.0789.4568.0837.1051.2204.1575.4092.1575ZM425.9653,785.7853l.6088-3.8315h.6874l.1837,1.2282c.0211.119.0367.2301.0473.3332.0105.1034.0194.1828.0262.2389.0177-.0561.0473-.1364.0894-.2415.0419-.1051.0908-.217.1469-.336l.5667-1.2228h.7088l-.6088,3.8315h-.5354l.2045-1.2911c.0245-.168.0578-.3525.1-.5539.0419-.201.0874-.4041.1364-.6088s.0963-.3998.1418-.5852c.0453-.1854.0874-.3483.1259-.4881l-.8554,1.8632h-.5513l-.2833-1.8632c-.0037.1364-.0105.2947-.0211.475s-.0236.3719-.0393.5747c-.0157.203-.035.4069-.0578.6114-.0228.2047-.0481.3964-.076.5749l-.2047,1.2911h-.5405ZM429.1145,785.7853l.6088-3.8315h.6874l.1837,1.2282c.0211.119.0367.2301.0473.3332.0105.1034.0194.1828.0262.2389.0177-.0561.0473-.1364.0894-.2415.0419-.1051.0908-.217.1469-.336l.5667-1.2228h.7088l-.6088,3.8315h-.5354l.2045-1.2911c.0245-.168.0578-.3525.1-.5539.0419-.201.0874-.4041.1364-.6088s.0963-.3998.1418-.5852c.0453-.1854.0874-.3483.1259-.4881l-.8554,1.8632h-.5513l-.2833-1.8632c-.0037.1364-.0105.2947-.0211.475s-.0236.3719-.0393.5747c-.0157.203-.035.4069-.0578.6114-.0228.2047-.0481.3964-.076.5749l-.2047,1.2911h-.5405ZM432.4107,785.7853l.6088-3.8315h2.2516l-.0786.5038h-1.6955l-.1731,1.0867h1.5115l-.0786.4986h-1.5118l-.1942,1.2387h1.6901l-.0786.5038h-2.2516ZM435.5073,785.7853l.6088-3.8315h1.202c.2381,0,.4391.0464.6037.139.1643.0928.2833.223.3568.391s.0911.3656.0527.5932c-.0387.2591-.1401.4838-.3044.6746-.1646.1905-.3659.3209-.6037.391l.5354,1.6428h-.6194l-.4776-1.5748h-.5408l-.2466,1.5748h-.567ZM436.3997,783.7068h.635c.1891,0,.3491-.0558.4804-.168.131-.1119.2107-.2623.2386-.4514.0316-.1925,0-.3454-.0945-.4593-.0943-.1136-.2361-.1706-.4252-.1706h-.635l-.1993,1.2493ZM439.8007,785.8377c-.3602,0-.6308-.1005-.8107-.3019-.1803-.201-.2423-.473-.1865-.8161l.2677-1.7006c.0561-.3463.2056-.6194.4488-.8187s.545-.2993.9056-.2993c.3568,0,.6253.1008.8056.3019.1803.2013.2423.4733.1865.8161h-.567c.0313-.1993.0026-.3517-.0866-.4565-.0894-.1051-.2284-.1575-.4175-.1575-.1925,0-.3508.0524-.475.1575-.1242.1048-.2019.2554-.2335.4514l-.2677,1.7057c-.0316.1996-.0026.3517.0866.4568.0894.1051.2301.1575.4226.1575s.35-.0524.4724-.1575.1993-.2571.2309-.4568h.5667c-.0347.2275-.1145.4252-.2386.5932s-.2808.2976-.4699.3884c-.1888.0908-.4024.1364-.6404.1364ZM441.8792,785.7853l.0789-.5038h.7768l.4459-2.824h-.7766l.0837-.5038h2.1258l-.084.5038h-.7766l-.4462,2.824h.7768l-.0789.5038h-2.1258ZM444.7399,785.7853l1.585-3.8315h.7452l.3728,3.8315h-.5616l-.0735-.9711h-1.0867l-.3884.9711h-.5929ZM445.8998,784.3418h.8714l-.0894-1.1023c-.0174-.1959-.0296-.3654-.0367-.5089-.0068-.1435-.0103-.2432-.0103-.2993-.0177.0561-.0518.1558-.1025.2993s-.1148.3112-.1916.5038l-.4408,1.1075ZM448.2354,785.7853l.6088-3.8315h.567l-.5248,3.3118h1.6741l-.0786.5197h-2.2465ZM453.1932,785.8377c-.3676,0-.6345-.1005-.8005-.3019-.1663-.201-.2213-.475-.1654-.8213l.4357-2.7608h.567l-.4357,2.7554c-.0316.1962-.008.35.0709.4619.0786.1122.2141.168.4066.168s.3474-.0558.4645-.168c.1173-.1119.1916-.2657.2233-.4619l.4357-2.7554h.5667l-.4357,2.7608c-.0558.35-.2002.6245-.4328.8241-.2329.1993-.5328.299-.9001.299ZM456.3581,785.8377c-.385,0-.6738-.0951-.866-.2859-.1925-.1908-.2643-.4505-.2153-.7794h.567c-.0282.1748.0105.3121.1153.4121.1051.0997.266.1495.483.1495.2028,0,.3699-.049.5012-.1469s.2107-.2327.2389-.4044c.0211-.1504.0009-.2788-.0604-.3856s-.1583-.1811-.2913-.2233l-.4568-.1364c-.266-.0803-.4619-.217-.5878-.4095-.1259-.1922-.1697-.4197-.1313-.6823.035-.2099.1119-.3935.2309-.551s.2731-.2799.4619-.3673c.1891-.0874.4024-.1313.6404-.1313.3497,0,.6157.0954.7979.2859.1817.1908.2483.4437.1993.7586h-.567c.0279-.168-.0026-.3001-.0917-.3964-.0894-.0963-.2301-.1444-.4226-.1444-.1891,0-.3429.0447-.4619.1338-.119.0894-.1891.2144-.2099.3753-.0245.1506-.0071.2791.0524.3859s.1575.1811.2939.223l.4673.1469c.2623.0806.4556.2173.5798.4095.1242.1925.1654.4217.1236.6877-.035.217-.1156.4058-.2415.5667-.1262.1612-.2879.2862-.4855.3753-.1979.0894-.4192.1338-.6641.1338ZM458.4209,785.7853l.6088-3.8315h2.2516l-.0786.5038h-1.6955l-.1731,1.0867h1.5115l-.0786.4986h-1.5118l-.1942,1.2387h1.6901l-.0786.5038h-2.2516Z" style="fill: #ccc;"/>
  <g id="g10">
    <g id="g4234">
      <path id="path16" d="M400.5118,50c205.6689,85.7773,325.0277,264.4772,305.3879,499.071-64.4888,134.8788-184.9254,200.0273-305.7843,200.92-119.4872.8831-239.3917-63.378-306.0537-200.92C71.8478,279.4487,232.7929,115.2713,400.5118,50" style="fill: #231f20; fill-rule: evenodd;"/>
      <path id="path18" d="M400.4674,53.8152c-88.1336,34.5791-166.8115,93.5017-221.5161,171.125-67.272,95.4599-90.8044,207.7883-81.42,323.18,58.0748,119.3482,167.3412,199.3338,302.5571,198.3344,134.1233-.9926,244.9301-78.7481,302.3398-198.3258,9.2273-111.632-12.941-222.1467-76.3149-315.6965-55.4108-81.7942-135.1677-140.6365-225.6458-178.6172" style="fill: #3c78ad; fill-rule: evenodd;"/>
      <path id="path20" d="M401.6415,72.2654c84.457,36.83,158.8138,92.6658,210.8122,169.4248,60.3751,89.1234,81.9372,194.9375,73.8284,301.3505l-.0531.6803-.3013.6112c-55.1922,112.1339-159.5533,184.6868-285.9616,185.6205-127.3738.9429-230.1792-73.8001-285.9228-185.6538l-.3111-.6198-.0516-.6939c-8.2366-109.9319,14.6757-217.603,78.7597-308.5377,51.2527-72.729,124.3947-128.45,206.4405-162.2105l1.3864-.5717,1.3741.6001" style="fill: #231f20; fill-rule: evenodd;"/>
      <path id="path22" d="M400.2279,75.5065c-81.4211,33.5037-154.0261,88.7913-204.8973,160.9783-63.8202,90.5594-86.3176,196.8748-78.124,306.2362,55.0767,110.5133,156.5525,184.6287,282.7337,183.6955,125.2157-.9242,228.2854-72.8573,282.8147-183.6449,8.0619-105.7956-13.1336-210.391-73.2296-299.0996-51.6749-76.2788-125.5244-131.6343-209.2974-168.1654" style="fill: #df242c; fill-rule: evenodd;"/>
    </g>
    <g id="g4216">
      <path id="path28" d="M478.5391,235.8105c18.3349-4.3782,37.9463-3.5102,53.7071,7.996,36.3549,26.5412,42.4748,96.5403,29.2536,136.2199-4.0643,12.2026-12.1101,27.6277-23.993,33.6815-3.9951,2.0323-8.3791,2.1484-12.6693,1.1014-4.0433-.9828-7.0359-3.4967-9.0236-7.1218-2.5433-4.6376-2.3408-11.6939-2.5951-16.9055-.5284-10.8037-4.2853-21.3085-9.7088-30.5947-7.4471-12.7545-18.4386-20.6517-33.7327-19.4873-8.0409.6137-17.1176,4.7487-23.3127,9.843-6.5458,5.3895-11.32,14.451-12.7866,22.9704,7.5507,5.0117,12.7089,11.9593,12.152,21.6987-.2827,5.0388-2.4556,9.1109-5.6594,12.5841,7.8187,8.5528,21.5312,14.9263,32.1499,17.3735,5.7705,1.3298,12.3422.868,18.1645.1148,3.7013-.4754,8.2964-1.9681,11.7212.0642,4.042,2.4028,4.1075,7.8502,3.9272,11.9853-.3778,8.7256-5.2976,21.958-9.8545,29.3773-8.1458,13.2558-20.2003,23.6446-34.8883,28.9649-4.8766,1.7619-8.9866,3.1929-13.9175,3.609-5.3557,14.8436-14.6595,28.4896-27.4893,37.814-5.6483,4.1042-12.1829,7.6811-18.7991,9.8962l-1.3111.442-1.4938-.5075c-7.4471-2.8954-14.4546-6.7427-20.7065-11.7359-11.6039-9.2665-20.1238-21.995-25.1535-35.9089-4.9322-.4161-9.0409-1.8471-13.92-3.6115-14.6854-5.3179-26.74-15.7067-34.8858-28.9625-4.5569-7.4193-9.4767-20.6517-9.8545-29.3773-.1815-4.135-.1148-9.5825,3.9272-11.9853,3.4248-2.0323,8.0199-.5396,11.7224-.0642,5.8211.7532,12.3928,1.215,18.1633-.1148,10.6187-2.4472,24.3313-8.8207,32.1499-17.3735-3.2038-3.4732-5.3766-7.5453-5.6606-12.5829-.5556-9.7406,4.6013-16.6882,12.152-21.6999-1.4655-8.5194-6.2396-17.581-12.7854-22.9704-6.1952-5.0944-15.2731-9.2294-23.3127-9.843-15.2941-1.1643-26.2856,6.7328-33.7327,19.4873-5.4236,9.2862-9.1804,19.7911-9.7088,30.5923-.2543,5.2141-.0519,12.2705-2.5951,16.9093-1.9877,3.6239-4.9803,6.1377-9.0212,7.1205-4.2927,1.047-8.6767.931-12.6731-1.1038-11.8829-6.0513-19.9275-21.4765-23.9918-33.679-13.2212-39.6797-7.1026-109.6787,29.2536-136.2199,15.7595-11.5062,35.3722-12.3742,53.7071-7.996,2.1988-29.5316,9.61-57.8076,24.0695-83.8561,11.5582-20.827,27.1572-37.5165,43.7736-53.9713,3.4606-3.4263,6.8767-6.8613,10.5767-10.0246,3.8334,3.2695,7.4248,6.7822,11.0274,10.3061,17.1398,16.7574,33.1685,34.3605,44.6711,55.7074,13.7509,25.5102,20.8275,53.1059,22.9671,81.8387" style="fill: #231f20; fill-rule: evenodd;"/>
      <path id="path30" d="M325.2488,241.0864c1.7284-31.8393,9.3113-60.8808,23.8806-87.1318,13.1916-23.7619,31.5944-41.8651,50.7441-60.5807,19.8078,18.8503,38.9414,38.2017,52.0688,62.5538,13.8681,25.7325,21.1164,54.1134,22.8016,85.1588,18.6336-5.4524,39.0784-5.6228,55.0689,6.0513,32.9005,24.0175,41.5019,90.3815,27.7733,131.5861-3.6865,11.0679-11.173,25.8164-21.951,31.3059-3.1038,1.5804-6.5162,1.578-9.8224.7717-2.8445-.6927-4.9161-2.4237-6.3828-5.0968-1.8827-3.435-1.7778-8.7059-2.0902-15.1251-.6778-13.8102-6.1557-25.43-10.2693-32.4739-7.7359-13.2484-19.7485-22.8791-37.6068-21.5184-8.8532.6741-18.7398,5.1104-25.6202,10.7703-8.2335,6.7773-13.6484,18.2452-14.6052,28.2562,7.8989,4.5672,12.9805,10.5024,12.4743,19.3651-.305,5.4031-3.4235,9.3023-7.1446,12.468,7.5804,10.5123,23.593,18.6946,36.8266,21.7432,5.268,1.2137,11.5311,1.2298,19.6164.1877,7.6779-.9877,11.494-3.5337,11.0014,7.7786-.379,8.7355-5.6927,21.6073-9.2471,27.3944-7.6594,12.4594-18.9694,22.2432-32.7771,27.245-5.1791,1.8718-9.5261,3.4917-15.5015,3.4868-5.231,16.0709-14.7793,29.6502-26.9289,38.4783-5.4951,3.9943-11.7817,7.3465-17.6843,9.3245-6.9298-2.6954-13.594-6.2945-19.6263-11.1136-11.0792-8.8466-19.8361-21.6147-24.7412-36.6892-5.9754.0049-10.3224-1.615-15.5015-3.4868-13.8089-5.0018-25.1177-14.7856-32.7771-27.245-3.5544-5.7871-8.8681-18.6589-9.2471-27.3944-.4926-11.3123,3.3235-8.7664,11.0014-7.7786,8.0853,1.0421,14.3484,1.026,19.6164-.1877,13.2336-3.0485,29.2462-11.2309,36.8266-21.7431-3.7211-3.1658-6.8408-7.065-7.1446-12.468-.5074-8.8627,4.5754-14.7979,12.4743-19.3651-.9568-10.011-6.3717-21.4789-14.6052-28.2562-6.8804-5.6599-16.7669-10.0962-25.6214-10.7703-17.8571-1.3606-29.8696,8.27-37.6056,21.5184-4.1137,7.044-9.5928,18.6638-10.2693,32.4739-.3136,6.4192-.2074,11.6902-2.0902,15.1251-1.4667,2.6731-3.5383,4.4042-6.3841,5.0968-3.305.8063-6.7174.8087-9.8224-.7717-10.7767-5.4895-18.2633-20.238-21.951-31.3059-13.7274-41.2045-5.126-107.5686,27.7733-131.5861,15.9916-11.6741,36.4364-11.5037,55.0701-6.0513" style="fill: #517299; fill-rule: evenodd;"/>
      <path id="path32" d="M381.2276,406.0034c-4.4026-2.4138-7.4816-5.6599-7.8162-11.5766-.3741-6.5661,4.0593-12.0964,9.9644-14.1472.3889-17.1784-4.4791-33.2777-18.2398-44.6037-9.1211-7.5033-21.7621-12.2952-33.5314-13.1941-34.7302-2.6472-53.1231,24.0693-61.2912,53.9998-1.4543,5.3401-2.5766,10.7839-3.7927,16.1796-3.2667-5.55-6.7742-10.9963-9.2026-16.9834-13.7879-33.9259-8.3162-94.5993,20.4448-115.5955,13.8928-10.1431,33.2438-9.6751,48.7107-3.6535,34.2562,13.341,65.4122,56.2716,73.4,91.5607,7.989-35.2891,39.1439-78.2222,73.4-91.5632,15.4669-6.0204,34.8179-6.4896,48.7119,3.6535,31.198,22.7754,34.9932,92.2348,16.5262,123.6037l-5.2853,8.9751-2.2939-10.1579c-7.2853-32.2603-25.7424-62.8452-62.7887-60.0214-11.7693.8989-24.4115,5.6908-33.5314,13.1953-13.762,11.3247-18.6287,27.424-18.2398,44.6024,5.9038,2.0509,10.3384,7.5811,9.9631,14.1472-.3346,5.9167-3.4137,9.1627-7.8162,11.5778,7.3729,23.1927,36.6834,36.7534,59.2751,38.5549,6.9013.5519,5.089,8.6565,2.6753,12.5841-5.9803,9.7319-14.7521,17.4439-25.5436,21.3517-5.068,1.8348-15.4138,4.1301-20.1374.3963-16.8842-13.3595-28.9375-35.1989-34.9154-55.6876-5.9754,20.4887-18.0299,42.3306-34.9179,55.6901-4.7211,3.7337-13.8027.9334-18.8719-.9001-9.5273-3.4016-20.5732-12.636-26.5535-22.3679-2.4136-3.9276-4.4791-10.5123,2.426-11.0642,13.7632-1.0952,30.0252-6.5625,42.2995-15.9116,4.1742-3.1831,8.91-5.3006,9.8841-10.6345.8012-4.3807,5.7396-7.7663,7.0878-12.01h0ZM407.5342,447.2808c6.1087,13.2323,12.5286,21.3493,22.4485,31.6788l1.4642,1.5261-.3827,2.0792c-2.8186,15.3227-11.6558,30.5169-25.1659,38.7364l-5.7865,3.5201-.2457.1506-.242-.1482-5.7877-3.5201c-13.5089-8.2194-22.3461-23.4137-25.1659-38.7376l-.3815-2.0792,1.4642-1.5249c9.9187-10.3295,16.3398-18.4465,22.4473-31.6788l7.473-16.1845.1951-.4247.1938.4235c2.4889,5.3932,4.9803,10.7864,7.4717,16.1833h0ZM458.9487,255.2398c-21.8757,15.4647-40.4229,37.5943-51.4071,62.0698l-7.4705,16.6413-.2099.4692-.2087-.4643-7.4705-16.6413c-10.9841-24.4755-29.5314-46.6039-51.4071-62.0698l-1.7741-1.2544.0309-2.1731c.7445-51.8242,16.8064-95.5229,54.0269-132.0071l6.5939-6.4625.2111-.2062.2074.2025,6.5939,6.4612c37.2204,36.4843,53.2824,80.1842,54.0281,132.0084l.0296,2.1731-1.7741,1.2532" style="fill: #231f20; fill-rule: evenodd;"/>
      <path id="path34" d="M387.3684,383.5984c2.9396-50.7365-36.7537-63.8033-55.4516-65.2294-22.5708-1.7224-54.7133,8.2602-67.1258,63.223-17.1188-29.0761-14.3249-96.4736,15.404-118.1784,12.6693-9.2504,30.582-8.6676,44.7822-3.1399,33.3549,12.9891,63.5023,55.3617,70.9642,89.0197l.0049,72.645c-4.2729,14.6979-14.6472,38.7648-33.5475,53.7158-3.7396,2.9571-26.1893,1.1618-39.6068-20.6702-1.9186-3.1226-2.3025-6.1686-.5087-6.313,29.3659-2.3385,58.3603-20.5097,63.8171-44.8975-3.6963-1.5903-8.231-3.5881-8.5705-9.5801-.3728-6.5304,5.5482-10.1888,9.8384-10.595" style="fill: #fff; fill-rule: evenodd;"/>
      <path id="path36" d="M412.3787,383.596c-2.9396-50.7365,36.7537-63.8033,55.4516-65.2306,22.5708-1.7212,54.7133,8.2614,67.1271,63.2242,17.1176-29.0761,14.3249-96.4736-15.4052-118.1784-12.6693-9.2504-30.582-8.6676-44.7823-3.1399-33.3549,12.9891-63.5011,55.3629-70.9642,89.0197l-.0049,72.645c4.2742,14.6979,14.6484,38.7648,33.5487,53.7158,3.7384,2.9571,26.1881,1.1631,39.6056-20.6702,1.9185-3.1226,2.3025-6.1686.5086-6.313-29.3659-2.3385-58.3603-20.5097-63.8172-44.8975,3.6963-1.5903,8.2322-3.5881,8.5717-9.5801.3716-6.5304-5.5495-10.1888-9.8397-10.595" style="fill: #fff; fill-rule: evenodd;"/>
      <path id="path38" d="M395.9463,315.6243V122.7561c-31.0042,30.3898-51.9453,70.3707-52.7898,129.1204,23.8831,16.8834,42.2205,40.1995,52.7898,63.7478" style="fill: #fff; fill-rule: evenodd;"/>
      <path id="path40" d="M403.7773,315.6193V122.7511c31.0042,30.391,51.9466,70.3707,52.7898,129.1204-23.8831,16.8834-42.2205,40.1995-52.7898,63.7478" style="fill: #fff; fill-rule: evenodd;"/>
      <path id="path42" d="M395.9463,449.0131l.0358,68.7668c-11.7977-7.1786-20.4744-20.8541-23.2547-35.9608,7.4804-7.7885,15.5139-16.1129,23.2189-32.8061" style="fill: #fff; fill-rule: evenodd;"/>
      <path id="path44" d="M403.7884,449.0106l-.0346,68.7668c11.7977-7.1786,20.4744-20.8541,23.2535-35.9608-7.4792-7.7885-15.5126-16.1129-23.2189-32.8061" style="fill: #fff; fill-rule: evenodd;"/>
    </g>
    <g id="g4227">
      <path id="path24" d="M316.3808,520.3123c43.823,0,79.3631,35.5422,79.3631,79.3705s-35.5401,79.3702-79.3631,79.3702-79.3631-35.5432-79.3631-79.3702,35.5401-79.3705,79.3631-79.3705" style="fill: #fff; fill-rule: evenodd;"/>
      <path id="path26" d="M313.5225,518.0304c44.5934,0,80.7557,36.1657,80.7557,80.7583s-36.1623,80.7641-80.7557,80.7641-80.752-36.1657-80.752-80.7641,36.1623-80.7583,80.752-80.7583h0ZM349.1774,616.1783l15.3534,8.8985c6.4532-5.0277,15.1731-12.5718,18.7818-19.6022.6432-10.1962-1.1877-20.5381-4.5569-30.2058-5.7705-4.9339-14.1151-9.8591-22.3954-11.6272l-14.5398,16.8376,7.3569,35.699h0ZM363.106,627.5215l-15.2336-8.9368-29.8672,17.5303c-1.0889,6.6143-2.505,13.2791-5.2112,19.8303,5.0347,4.9205,12.4434,8.0487,20.0003,9.1026,10.057-2.9069,19.3979-8.2137,26.9572-15.4676,2.9568-7.7363,3.0346-15.6322,3.3544-22.0588ZM309.9693,655.5142c2.7112-5.9855,4.2914-12.6058,5.1952-19.6819l-24.8992-22.2765-25.0288.7223c-4.3396,7.1242-7.7174,15.8585-9.1335,24.2533,7.2927,10.9757,17.7559,18.885,29.7733,23.6614,7.5384-.615,16.5546-3.232,24.093-6.6785h0ZM339.6994,578.6099l14.6657-16.9883c-1.5099-9.3517-7.5335-18.2823-13.1928-24.0125-8.194-3.3572-17.083-5.1462-26.2264-5.1462-1.6309,0-3.2433.0556-4.847.1667-8.9804,4.4968-14.883,12.8249-18.4448,21.9555l13.4694,21.1344,34.5759,2.8904ZM302.6161,577.1666l-13.699-21.6123c-6.3174-2.9472-15.5805-4.1548-23.1103-2.5484-9.6594,9.8221-16.3497,22.5605-18.5299,36.8275,3.5976,8.0453,9.8903,16.224,17.0102,21.6419l25.6436-.6581,12.6854-33.6506ZM349.2342,529.5267l-8.1298,4.9981c-8.1026-3.1608-16.9213-4.8907-26.1585-4.8907-1.563,0-3.1087.0482-4.6458.1482l-6.9495-8.2466c3.3309-.4358,6.7223-.6593,10.1718-.6593,12.8731,0,25.0128,3.1176,35.7117,8.6503ZM381.3557,574.1279l3.4988-6.6946c4.2235,9.5937,6.5791,20.2035,6.5791,31.3553,0,3.898-.2951,7.7194-.8469,11.4605l-4.4507-4.6252c.6654-10.637-1.242-21.4135-4.7803-31.4961ZM260.2043,541.9935c1.1259,3.4794,2.1988,6.2056,2.7112,9.9394-9.3779,9.9011-15.9077,22.4827-18.262,36.4509l-8.6323,2.4422c1.9494-19.1898,10.8693-36.3262,24.1831-48.8325ZM359.5541,653.5835l7.3902,1.8955c-9.4285,8.8899-21.0646,15.4599-34.0055,18.7815l2.3284-6.9968c9.1224-2.8972,17.4065-7.6499,24.2868-13.6802ZM284.3392,671.0406l-1.4309-7.0137c-11.5879-4.988-21.6041-12.8318-28.7622-23.3385l-5.9779.4988c8.6557,13.3155,21.272,23.8202,36.171,29.8534" style="fill: #231f20; fill-rule: evenodd;"/>
      <path id="path46" d="M272.9899,471.9514h0c7.668,9.8554,5.8803,24.1903-3.9741,31.8591l-66.4999,51.7514,20.0633,25.7856c7.668,9.8554,5.8803,24.1891-3.9741,31.8591h0c-9.8545,7.6687-24.1881,5.8797-31.8561-3.9745l-33.9887-43.7135c-7.6679-9.8554-5.8797-24.1903,3.9746-31.8591l84.399-65.6826c9.8545-7.6687,24.1881-5.8809,31.8561,3.9745" style="fill: #fff; fill-rule: evenodd;"/>
      <path id="path48" d="M532.2499,483.8206c17.4707-16.1759,40.1797-23.0346,61.8196-20.7332,41.0402,5.5549,22.8078,50.0524-.9803,45.1593-10.252-2.3682-21.7633.4346-30.4116,8.4417-13.4867,12.4878-14.8904,32.9135-3.1359,45.61,11.7558,12.6989,32.2265,12.8705,45.7131.3828,7.4631-6.9106,11.2175-16.2561,11.0953-25.3756-.3642-8.0416,1.5407-20.5455,17.7089-24.7472,11.4138-2.967,25.9103,5.3734,27.5634,19.8812,1.6889,22.8494-7.5483,46.0804-25.9399,63.1094-31.6351,29.2909-80.4471,28.029-109.0056-2.8201-28.5573-30.8478-26.0622-79.6162,5.5729-108.9083" style="fill: #fff; fill-rule: evenodd;"/>
      <path id="path50" d="M465.3574,577.2642c-3.3939-2.662-7.6853-5.8315-12.6484-5.9772-4.5223-.1334-8.4508,2.8596-10.0792,7.081-2.2334,5.7908.5728,11.0395,4.9668,13.4089,13.6817,7.3699,28.5906,6.2908,39.2834,10.1221,15.3904,5.5129,25.6967,12.9002,30.003,28.518,4.5038,16.3586,3.0914,32.7883-7.9792,46.2086-9.9101,12.0156-25.4893,21.0681-39.7735,22.7976-20.204,2.4439-37.6525-2.4009-48.5601-12.6011-11.2792-11.4804-7.3853-24.6946-1.2173-31.5588,4.705-5.2321,13.6261-7.768,21.1535-5.9463,9.3779,2.2736,11.7274,9.6674,23.5053,8.4134,6.0013-.6401,9.4508-4.2434,9.8656-10.1058.5086-7.1705-4.6779-10.9376-9.0606-12.3649-12.3953-4.0375-21.7263-1.0001-33.6771-6.092-21.8251-9.3035-29.5598-30.186-26.9239-47.9769,4.442-29.9984,30.0042-43.4171,44.9983-44.5049,12.4953-.9075,31.2178,4.4548,36.8315,10.9407,11.7879,8.1503,8.9347,21.2789,4.0099,27.4709-3.9396,4.9549-16.3015,9.1541-24.698,2.1669" style="fill: #fff; fill-rule: evenodd;"/>
    </g>
  </g>
</svg>