<?xml version="1.0" encoding="UTF-8"?>
<svg data-name="图层_1" xmlns="http://www.w3.org/2000/svg" version="1.1" viewBox="0 0 800 800">
  <!-- Created by @FCLOGO 2025-1-9 GMT+8 10:42:11 . https://fclogo.top/ -->
<!-- FOR PERSONAL USE ONLY NOT FOR COMMERCIAL USE -->
  <path d="M348.2194,774.301c-.786,0-1.3752-.2173-1.7682-.6519-.393-.4352-.5284-1.03-.406-1.7856l.2518-1.6478c.122-.755.4501-1.3504.9841-1.785.5339-.4352,1.1939-.6525,1.9799-.6525.7553,0,1.3293.1987,1.7223.5954.3927.3967.551.9381.4747,1.6248h-1.2358c.0304-.3589-.0553-.637-.2573-.8357-.2024-.1981-.4979-.2974-.8869-.2974-.4197,0-.763.1167-1.03.3489-.2673.2328-.4349.5631-.5035.9903l-.2632,1.659c-.0686.4352-.0056.7686.1887,1.0015.1946.2328.5017.3489.9214.3489.389,0,.7152-.0987.9785-.2974.2632-.1981.4365-.4805.5206-.8469h1.2358c-.1372.6867-.4672,1.2306-.9897,1.631-.5228.4005-1.1616.6004-1.9169.6004ZM352.7967,774.1868l.9956-6.2943h1.1902l-.1946,1.1902c.3359-.8698.9729-1.3044,1.9113-1.3044.6712,0,1.1691.208,1.4932.624.3244.416.4293.9859.3148,1.7105l-.0686.4234h-1.2703l.0571-.3204c.0689-.4501.0115-.7953-.1714-1.0356-.1832-.2403-.4771-.3607-.8813-.3607-.4045,0-.7401.1223-1.007.3663-.2673.2446-.4349.588-.5035,1.03l-.6296,3.9711h-1.2358ZM361.9058,774.301c-.7705,0-1.3463-.2229-1.7279-.6693s-.515-1.0356-.4005-1.7682l.2518-1.6478c.0838-.488.2573-.9152.5206-1.2815s.6007-.6507,1.0129-.8524c.4119-.2024.8732-.3036,1.3845-.3036.7705,0,1.3485.2235,1.7338.6693.3852.4464.5169,1.0356.3949,1.7682l-.1717,1.1213h-3.845l-.0916.5265c-.1527.9536.2173,1.4305,1.1098,1.4305.7171,0,1.175-.2477,1.3734-.7438h1.2247c-.1679.5339-.5035.9599-1.007,1.2759-.5038.3166-1.0912.475-1.7626.475ZM361.2306,770.2157l-.0456.2862,2.6548-.0118.0459-.2856c.0686-.4656.0133-.822-.1661-1.0704-.1791-.2477-.4861-.3719-.9211-.3719-.4427,0-.7953.126-1.0586.3775-.2632.2521-.4331.6109-.5094,1.076ZM368.3258,774.301c-.6333,0-1.1027-.2117-1.4078-.6351s-.3967-1.0008-.2744-1.7335l.2744-1.7738c.1145-.7326.393-1.3119.8357-1.7397.4424-.4272.98-.6407,1.6133-.6407.4653,0,.8298.1186,1.093.3545.2632.2365.3908.5575.3834.9617h.023l.1717-1.202h1.2358l-.9956,6.2943h-1.2247l.1946-1.2014h-.023c-.122.4116-.3511.7339-.6867.9667s-.7401.3489-1.2129.3489ZM368.9324,773.2257c.389,0,.7152-.1186.9782-.3551.2632-.2359.4293-.5718.4979-1.007l.2518-1.6478c.0686-.4272.0096-.7612-.1773-1.0015-.1872-.2403-.475-.3601-.8642-.3601-.3967,0-.7249.118-.9841.3545-.2595.2365-.4234.5724-.492,1.007l-.2518,1.6478c-.0686.4427-.0133.7804.1658,1.0133.1794.2328.4712.3489.8757.3489ZM376.3477,774.1868c-.5721,0-.9937-.1565-1.2644-.4694-.271-.3123-.3607-.7512-.2691-1.3156l.538-3.3874h-1.7394l.1714-1.1219h1.7397l.2747-1.7161h1.2358l-.2747,1.7161h2.472l-.1832,1.1219h-2.4605l-.5377,3.3874c-.0764.4421.099.6637.5262.6637h1.7167l-.1717,1.1213h-1.7738ZM382.5042,774.301c-.7705,0-1.3463-.2229-1.7279-.6693s-.515-1.0356-.4005-1.7682l.2518-1.6478c.0838-.488.2573-.9152.5206-1.2815s.6007-.6507,1.0129-.8524c.4119-.2024.8732-.3036,1.3845-.3036.7705,0,1.3485.2235,1.7338.6693.3852.4464.5169,1.0356.3949,1.7682l-.1717,1.1213h-3.845l-.0916.5265c-.1527.9536.2173,1.4305,1.1098,1.4305.7171,0,1.175-.2477,1.3734-.7438h1.2247c-.1679.5339-.5035.9599-1.007,1.2759-.5038.3166-1.0912.475-1.7626.475ZM381.829,770.2157l-.0456.2862,2.6548-.0118.0459-.2856c.0686-.4656.0133-.822-.1661-1.0704-.1791-.2477-.4861-.3719-.9211-.3719-.4427,0-.7953.126-1.0586.3775-.2632.2521-.4331.6109-.5094,1.076ZM388.9243,774.301c-.6333,0-1.1008-.2117-1.4019-.6351-.3014-.4234-.3949-1.0008-.2803-1.7335l.2744-1.7738c.1145-.7326.393-1.3119.8357-1.7397.4424-.4272.98-.6407,1.6133-.6407.4653,0,.8298.1186,1.093.3545.2632.2365.3908.5575.3834.9617h.023l.2058-1.4652.2977-1.7962h1.2358l-1.3274,8.3537h-1.2247l.1946-1.2014h-.023c-.122.4116-.3511.7339-.6867.9667s-.7401.3489-1.2129.3489ZM389.5309,773.2257c.389,0,.7152-.1186.9782-.3551.2632-.2359.4293-.5718.4979-1.007l.2518-1.6478c.0761-.4272.0189-.7612-.1717-1.0015-.1909-.2403-.4805-.3601-.8698-.3601-.3967,0-.7249.118-.9841.3545-.2595.2365-.4234.5724-.492,1.007l-.2518,1.6478c-.0764.4427-.023.7804.1602,1.0133s.4768.3489.8813.3489ZM401.0175,774.301c-.4731,0-.8394-.1161-1.0986-.3489-.2595-.2328-.3852-.5551-.3775-.9667h-.0115l-.1946,1.2014h-1.2243l1.3274-8.3537h1.2358l-.2862,1.7962-.2744,1.4652h.0456c.122-.4123.353-.7345.6923-.9673.3396-.2322.7419-.3489,1.2076-.3489.633,0,1.1002.2136,1.4016.6407.3014.4278.3949,1.007.2806,1.7397l-.2747,1.7738c-.1145.7326-.3949,1.31-.8413,1.7335-.4461.4234-.9822.6351-1.6077.6351ZM400.7657,773.2257c.3967,0,.7227-.1161.9785-.3489.2555-.2328.4216-.5706.4976-1.0133l.2518-1.6478c.0689-.4346.0115-.7705-.1714-1.007-.1832-.2365-.4734-.3545-.8698-.3545-.3893,0-.7152.1198-.9785.3601s-.429.5743-.4979,1.0015l-.2518,1.6478c-.0686.4352-.0112.7711.1717,1.007.1832.2365.4731.3551.8698.3551ZM405.4694,776.2468l.1717-1.0642h1.934c.6407,0,1.007-.3017,1.0986-.9046l.1028-.6749.2061-1.1902h-.0345c-.122.4197-.3471.7438-.6752.9729-.3281.2285-.7286.3433-1.2014.3433-.6258,0-1.093-.2005-1.4019-.601s-.4104-.9443-.3033-1.631l.5836-3.6047h1.2358l-.5606,3.4793c-.0612.4116,0,.732.1832.9611s.4653.3433.8469.3433c.389,0,.7168-.1217.9841-.3663.267-.244.4309-.5836.492-1.0182l.538-3.3992h1.2358l-1.007,6.4086c-.0993.6029-.37,1.0778-.8124,1.4249-.4427.3471-.9996.5209-1.6707.5209h-1.9455ZM417.787,770.0853h3.221l.5368-1.8545h-5.4659l-1.7081,6.4419h2.1473l.5856-2.0985h3.0257l.4392-1.7081h-3.0257l.244-.7808ZM424.229,772.9158c-.5856,0-1.0249-.3904-1.0249-1.1225,0-.8784.6344-1.7569,1.6105-1.7569.488,0,.8784.244,1.0248.7808l1.9521-.8296c-.2928-1.1713-1.2689-1.9033-2.6353-1.9033-2.7817,0-4.1482,2.1473-4.1482,3.9042s1.2689,2.8305,3.0746,2.8305c1.3665,0,2.3425-.5856,2.9769-1.4153l-1.5129-1.1713c-.3904.4392-.8296.6832-1.3177.6832ZM430.9149,768.2308h-2.1473l-1.7569,6.4419h5.1242l.488-1.8545h-2.9281l1.2201-4.5874ZM439.7481,771.0125c0-1.6593-1.3177-2.9281-3.221-2.9281-2.1961,0-3.8066,1.8057-3.8066,3.8066,0,1.6593,1.3177,2.9281,3.221,2.9281,2.1961,0,3.8066-1.8057,3.8066-3.8066ZM434.9167,771.6957c0-.8296.5856-1.7081,1.5129-1.7081.7808,0,1.1713.5368,1.1713,1.2201,0,.8296-.5856,1.7081-1.5129,1.7081-.7808,0-1.1713-.5368-1.1713-1.2201ZM443.2131,772.2326h1.0737l-.1952.6832c-.1464.0488-.3416.0976-.5856.0976-.6832,0-1.2689-.3904-1.2689-1.2201,0-1.0249.732-1.9033,1.9521-1.9033.5856,0,1.1225.244,1.5129.5856l1.3665-1.3665c-.4392-.5368-1.5129-1.0737-2.7329-1.0737-2.5865,0-4.2946,1.7569-4.2946,3.8554,0,2.0497,1.6105,2.8793,3.221,2.8793.9272,0,1.8545-.2928,2.4889-.6832l.9272-3.3186h-3.1234l-.3416,1.4641ZM450.7775,768.0844c-2.1961,0-3.8066,1.8057-3.8066,3.8066,0,1.6593,1.3177,2.9281,3.221,2.9281,2.1961,0,3.8066-1.8057,3.8066-3.8066,0-1.6593-1.3177-2.9281-3.221-2.9281ZM450.3382,772.9158c-.7808,0-1.1713-.5368-1.1713-1.2201,0-.8296.5856-1.7081,1.5129-1.7081.7808,0,1.1713.5368,1.1713,1.2201,0,.8296-.5856,1.7081-1.5129,1.7081ZM437.9424,767.4987c-.0488.2928.0976.488.4392.488s.5368-.1952.6344-.488c.0488-.244-.0976-.488-.4392-.488s-.5856.244-.6344.488ZM432.1349,765.4978c-.4392,0-.732.244-.7808.5856s.0976.5856.5368.5856.732-.244.7808-.5856c.0976-.3416-.0976-.5856-.5368-.5856ZM433.0134,767.3035c-.0976.5368.1464.8784.8296.8784.6344,0,1.0737-.3904,1.1713-.8784s-.1464-.8784-.8296-.8784c-.6832,0-1.0737.3904-1.1713.8784ZM439.6017,777.552l-2.4401-1.8057h-1.5129l4.2458,3.1722,1.6105-3.1722h-.976l-.9272,1.8057ZM425.8394,767.1571l-2.0009-1.4641,23.1323-2.7817-2.1473,4.2458h1.0248l2.6841-5.3195-26.9877,3.221,2.7817,2.0985h1.5129ZM338.7186,785.7853l.6088-3.8315h2.32l-.084.5194h-1.7636l-.1837,1.1445h1.6272l-.084.5248h-1.6166l-.2573,1.6428h-.5668ZM342.97,785.8377c-.3568,0-.6228-.1005-.7978-.3019-.175-.201-.2345-.473-.1784-.8161l.2677-1.7006c.056-.3429.2029-.6148.4408-.8161.2379-.201.5355-.3019.8923-.3019s.6228.1.7979.2993c.1748.1993.2361.4707.1837.8136l-.2677,1.7057c-.0561.3431-.2039.6151-.4435.8161-.2398.2013-.5381.3019-.895.3019ZM343.0487,785.3339c.1925,0,.3483-.0524.4672-.1575.119-.1051.1942-.2571.2257-.4568l.2678-1.7006c.0315-.1993.0051-.3517-.0787-.4565-.084-.1051-.2223-.1575-.4148-.1575s-.3473.0524-.4645.1575c-.1173.1048-.1916.2571-.2231.4565l-.2677,1.7006c-.0315.1996-.0053.3517.0787.4568s.2204.1575.4094.1575ZM344.9961,785.7853l.6088-3.8315h1.202c.2379,0,.4391.0464.6036.139.1645.0928.2835.223.357.391s.091.3656.0524.5932c-.0384.2591-.14.4838-.3044.6746-.1645.1905-.3656.3209-.6036.391l.5354,1.6428h-.6194l-.4777-1.5748h-.5406l-.2466,1.5748h-.5668ZM345.8883,783.7068h.6352c.1889,0,.349-.0558.4803-.168.1313-.1119.2107-.2623.2388-.4514.0316-.1925,0-.3454-.0944-.4593-.0945-.1136-.2362-.1706-.4252-.1706h-.6352l-.1995,1.2493ZM349.545,785.7853l.6088-3.8315h1.2544c.3709,0,.6508.1048.8399.315.1889.2099.2553.4898.1993.8398-.0384.2344-.1216.4383-.2493.6114s-.2905.307-.4881.4015c-.1978.0945-.419.1418-.6639.1418h-.6928l-.2415,1.5221h-.5668ZM350.432,783.754h.6928c.1924,0,.3568-.0587.4934-.176.1364-.117.2204-.2737.2519-.4696s-.0017-.3525-.0997-.4699-.245-.1757-.441-.1757h-.6876l-.2099,1.2911ZM352.7466,785.7853l.6088-3.8315h2.2518l-.0787.5038h-1.6954l-.1731,1.0867h1.5115l-.0787.4986h-1.5115l-.1942,1.2387h1.6901l-.0787.5038h-2.2518ZM355.8434,785.7853l.6088-3.8315h1.202c.2379,0,.4391.0464.6036.139.1645.0928.2835.223.357.391s.091.3656.0524.5932c-.0384.2591-.14.4838-.3044.6746-.1645.1905-.3656.3209-.6036.391l.5354,1.6428h-.6194l-.4777-1.5748h-.5406l-.2466,1.5748h-.5668ZM356.7356,783.7068h.6352c.1889,0,.349-.0558.4803-.168.1313-.1119.2107-.2623.2388-.4514.0316-.1925,0-.3454-.0944-.4593-.0945-.1136-.2362-.1706-.4252-.1706h-.6352l-.1995,1.2493ZM360.1316,785.8377c-.385,0-.6736-.0951-.8661-.2859-.1924-.1908-.2641-.4505-.2151-.7794h.5668c-.028.1748.0105.3121.1155.4121.1051.0997.266.1495.483.1495.2029,0,.3701-.049.5012-.1469.1313-.098.2109-.2327.2389-.4044.0209-.1504.0007-.2788-.0604-.3856-.0614-.1068-.1583-.1811-.2913-.2233l-.4566-.1364c-.266-.0803-.4619-.217-.5879-.4095-.126-.1922-.1697-.4197-.1313-.6823.035-.2099.1121-.3935.2309-.551s.2729-.2799.4619-.3673.4024-.1313.6404-.1313c.3498,0,.6158.0954.7978.2859.182.1908.2485.4437.1995.7586h-.5668c.0279-.168-.0027-.3001-.092-.3964-.0891-.0963-.2301-.1444-.4225-.1444-.1889,0-.343.0447-.4619.1338-.119.0894-.1889.2144-.21.3753-.0245.1506-.007.2791.0525.3859s.1575.1811.2939.223l.4672.1469c.2624.0806.4558.2173.5801.4095.1242.1925.1653.4217.1233.6877-.035.217-.1155.4058-.2415.5667-.1259.1612-.2878.2862-.4855.3753-.1976.0894-.419.1338-.6639.1338ZM363.2651,785.8377c-.3568,0-.6228-.1005-.7978-.3019-.175-.201-.2345-.473-.1784-.8161l.2677-1.7006c.056-.3429.2029-.6148.4408-.8161.2379-.201.5355-.3019.8923-.3019s.6228.1.7979.2993c.1748.1993.2361.4707.1837.8136l-.2677,1.7057c-.0561.3431-.2039.6151-.4435.8161-.2398.2013-.5381.3019-.895.3019ZM363.3439,785.3339c.1925,0,.3483-.0524.4672-.1575.119-.1051.1942-.2571.2257-.4568l.2678-1.7006c.0315-.1993.0051-.3517-.0787-.4565-.084-.1051-.2223-.1575-.4148-.1575s-.3473.0524-.4645.1575c-.1173.1048-.1916.2571-.2231.4565l-.2677,1.7006c-.0315.1996-.0053.3517.0787.4568s.2204.1575.4094.1575ZM365.2754,785.7853l.6088-3.8315h.7086l.6194,3.186c.007-.098.0165-.217.0289-.3571.0121-.1398.0271-.2851.0446-.4354.0175-.1506.0367-.2888.0577-.4146l.315-1.9788h.525l-.609,3.8315h-.7085l-.6141-3.186c-.0071.0945-.0167.209-.0289.3437s-.0272.2757-.0446.4226c-.0177.1469-.0367.2833-.0578.4095l-.315,2.0102h-.5301ZM368.2252,785.7853l1.5851-3.8315h.7454l.3726,3.8315h-.5616l-.0735-.9711h-1.0865l-.3884.9711h-.5932ZM369.3852,784.3418h.8714l-.0893-1.1023c-.0175-.1959-.0298-.3654-.0367-.5089-.0071-.1435-.0105-.2432-.0105-.2993-.0175.0561-.0517.1558-.1024.2993s-.1146.3112-.1915.5038l-.441,1.1075ZM371.7208,785.7853l.6088-3.8315h.567l-.525,3.3118h1.6744l-.0787.5197h-2.2465ZM376.6785,785.8377c-.3673,0-.6342-.1005-.8003-.3019-.1663-.201-.2214-.475-.1654-.8213l.4357-2.7608h.567l-.4357,2.7554c-.0315.1962-.008.35.0708.4619.0787.1122.2144.168.4068.168.1925,0,.3473-.0558.4646-.168.1172-.1119.1915-.2657.2231-.4619l.4355-2.7554h.567l-.4357,2.7608c-.056.35-.2003.6245-.433.8241-.2328.1993-.5328.299-.9003.299ZM379.8435,785.8377c-.385,0-.6736-.0951-.8661-.2859-.1924-.1908-.2641-.4505-.2151-.7794h.5668c-.028.1748.0105.3121.1155.4121.1051.0997.266.1495.483.1495.2029,0,.3701-.049.5012-.1469.1313-.098.2109-.2327.2389-.4044.0209-.1504.0007-.2788-.0604-.3856-.0614-.1068-.1583-.1811-.2913-.2233l-.4566-.1364c-.266-.0803-.4619-.217-.5879-.4095-.126-.1922-.1697-.4197-.1313-.6823.035-.2099.1121-.3935.2309-.551s.2729-.2799.4619-.3673.4024-.1313.6404-.1313c.3498,0,.6158.0954.7978.2859.182.1908.2485.4437.1995.7586h-.5668c.0279-.168-.0027-.3001-.092-.3964-.0891-.0963-.2301-.1444-.4225-.1444-.1889,0-.343.0447-.4619.1338-.119.0894-.1889.2144-.21.3753-.0245.1506-.007.2791.0525.3859s.1575.1811.2939.223l.4672.1469c.2624.0806.4558.2173.5801.4095.1242.1925.1653.4217.1233.6877-.035.217-.1155.4058-.2415.5667-.1259.1612-.2878.2862-.4855.3753-.1976.0894-.419.1338-.6639.1338ZM381.9062,785.7853l.6088-3.8315h2.2518l-.0787.5038h-1.6954l-.1731,1.0867h1.5115l-.0787.4986h-1.5115l-.1942,1.2387h1.6901l-.0787.5038h-2.2518ZM386.9426,785.8377c-.3568,0-.6228-.1005-.7978-.3019-.175-.201-.2345-.473-.1784-.8161l.2677-1.7006c.056-.3429.2029-.6148.4408-.8161.2379-.201.5355-.3019.8923-.3019s.6228.1.7979.2993c.1748.1993.2361.4707.1837.8136l-.2677,1.7057c-.0561.3431-.2039.6151-.4435.8161-.2398.2013-.5381.3019-.895.3019ZM387.0213,785.3339c.1925,0,.3483-.0524.4672-.1575.119-.1051.1942-.2571.2257-.4568l.2678-1.7006c.0315-.1993.0051-.3517-.0787-.4565-.084-.1051-.2223-.1575-.4148-.1575s-.3473.0524-.4645.1575c-.1173.1048-.1916.2571-.2231.4565l-.2677,1.7006c-.0315.1996-.0053.3517.0787.4568s.2204.1575.4094.1575ZM388.9529,785.7853l.6088-3.8315h.7086l.6194,3.186c.007-.098.0165-.217.0289-.3571.0121-.1398.0271-.2851.0446-.4354.0175-.1506.0367-.2888.0577-.4146l.315-1.9788h.525l-.609,3.8315h-.7085l-.6141-3.186c-.0071.0945-.0167.209-.0289.3437s-.0272.2757-.0446.4226c-.0177.1469-.0367.2833-.0578.4095l-.315,2.0102h-.5301ZM392.249,785.7853l.6088-3.8315h.567l-.525,3.3118h1.6744l-.0787.5197h-2.2465ZM396.1174,785.7853l.2204-1.4119-.7506-2.4197h.5774l.4462,1.4486c.0279.0945.0498.1837.0656.2677.0157.084.0253.1469.0288.1888.0175-.0419.0464-.1048.0867-.1888.0402-.084.0883-.1731.1442-.2677l.8976-1.4486h.5984l-1.5275,2.4197-.2204,1.4119h-.5668ZM399.217,785.7853l.6088-3.8315h.7086l.6192,3.186c.0071-.098.0165-.217.029-.3571.012-.1398.0271-.2851.0444-.4354.0177-.1506.037-.2888.0578-.4146l.315-1.9788h.5248l-.6088,3.8315h-.7085l-.6141-3.186c-.0071.0945-.0167.209-.0289.3437s-.0272.2757-.0446.4226c-.0177.1469-.0367.2833-.0578.4095l-.315,2.0102h-.5301ZM403.5053,785.8377c-.3571,0-.6231-.1005-.7979-.3019-.1751-.201-.2344-.473-.1785-.8161l.2677-1.7006c.0561-.3429.203-.6148.4411-.8161.2378-.201.5354-.3019.8922-.3019.3571,0,.6228.1.7979.2993.1748.1993.2361.4707.1837.8136l-.2677,1.7057c-.0561.3431-.2039.6151-.4437.8161-.2395.2013-.5379.3019-.8947.3019ZM403.5839,785.3339c.1925,0,.3483-.0524.4673-.1575.1187-.1051.1942-.2571.2255-.4568l.2677-1.7006c.0316-.1993.0054-.3517-.0786-.4565-.084-.1051-.2224-.1575-.4146-.1575-.1925,0-.3474.0524-.4647.1575-.117.1048-.1914.2571-.223.4565l-.2677,1.7006c-.0316.1996-.0051.3517.0789.4568.0837.1051.2204.1575.4092.1575ZM406.3814,785.7853l.5248-3.3121h-1.0234l.084-.5194h2.6193l-.084.5194h-1.0289l-.5248,3.3121h-.567ZM409.5178,785.7853l.6088-3.8315h2.32l-.084.5194h-1.7636l-.1837,1.1445h1.6272l-.084.5248h-1.6166l-.2571,1.6428h-.567ZM413.7694,785.8377c-.3571,0-.6231-.1005-.7979-.3019-.1751-.201-.2344-.473-.1785-.8161l.2677-1.7006c.0561-.3429.203-.6148.4411-.8161.2378-.201.5354-.3019.8922-.3019.3571,0,.6228.1.7979.2993.1748.1993.2361.4707.1837.8136l-.2677,1.7057c-.0561.3431-.2039.6151-.4437.8161-.2395.2013-.5379.3019-.8947.3019ZM413.848,785.3339c.1925,0,.3483-.0524.4673-.1575.1187-.1051.1942-.2571.2255-.4568l.2677-1.7006c.0316-.1993.0054-.3517-.0786-.4565-.084-.1051-.2224-.1575-.4146-.1575-.1925,0-.3474.0524-.4647.1575-.117.1048-.1914.2571-.223.4565l-.2677,1.7006c-.0316.1996-.0051.3517.0789.4568.0837.1051.2204.1575.4092.1575ZM415.7952,785.7853l.6088-3.8315h1.202c.2381,0,.4391.0464.6037.139.1643.0928.2833.223.3568.391s.0911.3656.0527.5932c-.0387.2591-.1401.4838-.3044.6746-.1646.1905-.3659.3209-.6037.391l.5354,1.6428h-.6194l-.4776-1.5748h-.5408l-.2466,1.5748h-.567ZM416.6876,783.7068h.635c.1891,0,.3491-.0558.4804-.168.131-.1119.2107-.2623.2386-.4514.0316-.1925,0-.3454-.0945-.4593-.0943-.1136-.2361-.1706-.4252-.1706h-.635l-.1993,1.2493ZM420.905,785.8377c-.3602,0-.6308-.1005-.8107-.3019-.1803-.201-.2423-.473-.1865-.8161l.2677-1.7006c.0561-.3463.2056-.6194.4488-.8187s.545-.2993.9056-.2993c.3568,0,.6253.1008.8056.3019.1803.2013.2423.4733.1865.8161h-.567c.0313-.1993.0026-.3517-.0866-.4565-.0894-.1051-.2284-.1575-.4175-.1575-.1925,0-.3508.0524-.475.1575-.1242.1048-.2019.2554-.2335.4514l-.2677,1.7057c-.0316.1996-.0026.3517.0866.4568.0894.1051.2301.1575.4226.1575s.35-.0524.4724-.1575.1993-.2571.2309-.4568h.5667c-.0347.2275-.1145.4252-.2386.5932s-.2808.2976-.4699.3884c-.1888.0908-.4024.1364-.6404.1364ZM424.0335,785.8377c-.3571,0-.6231-.1005-.7979-.3019-.1751-.201-.2344-.473-.1785-.8161l.2677-1.7006c.0561-.3429.203-.6148.4411-.8161.2378-.201.5354-.3019.8922-.3019.3571,0,.6228.1.7979.2993.1748.1993.2361.4707.1837.8136l-.2677,1.7057c-.0561.3431-.2039.6151-.4437.8161-.2395.2013-.5379.3019-.8947.3019ZM424.1121,785.3339c.1925,0,.3483-.0524.4673-.1575.1187-.1051.1942-.2571.2255-.4568l.2677-1.7006c.0316-.1993.0054-.3517-.0786-.4565-.084-.1051-.2224-.1575-.4146-.1575-.1925,0-.3474.0524-.4647.1575-.117.1048-.1914.2571-.223.4565l-.2677,1.7006c-.0316.1996-.0051.3517.0789.4568.0837.1051.2204.1575.4092.1575ZM425.9653,785.7853l.6088-3.8315h.6874l.1837,1.2282c.0211.119.0367.2301.0473.3332.0105.1034.0194.1828.0262.2389.0177-.0561.0473-.1364.0894-.2415.0419-.1051.0908-.217.1469-.336l.5667-1.2228h.7088l-.6088,3.8315h-.5354l.2045-1.2911c.0245-.168.0578-.3525.1-.5539.0419-.201.0874-.4041.1364-.6088s.0963-.3998.1418-.5852c.0453-.1854.0874-.3483.1259-.4881l-.8554,1.8632h-.5513l-.2833-1.8632c-.0037.1364-.0105.2947-.0211.475s-.0236.3719-.0393.5747c-.0157.203-.035.4069-.0578.6114-.0228.2047-.0481.3964-.076.5749l-.2047,1.2911h-.5405ZM429.1145,785.7853l.6088-3.8315h.6874l.1837,1.2282c.0211.119.0367.2301.0473.3332.0105.1034.0194.1828.0262.2389.0177-.0561.0473-.1364.0894-.2415.0419-.1051.0908-.217.1469-.336l.5667-1.2228h.7088l-.6088,3.8315h-.5354l.2045-1.2911c.0245-.168.0578-.3525.1-.5539.0419-.201.0874-.4041.1364-.6088s.0963-.3998.1418-.5852c.0453-.1854.0874-.3483.1259-.4881l-.8554,1.8632h-.5513l-.2833-1.8632c-.0037.1364-.0105.2947-.0211.475s-.0236.3719-.0393.5747c-.0157.203-.035.4069-.0578.6114-.0228.2047-.0481.3964-.076.5749l-.2047,1.2911h-.5405ZM432.4107,785.7853l.6088-3.8315h2.2516l-.0786.5038h-1.6955l-.1731,1.0867h1.5115l-.0786.4986h-1.5118l-.1942,1.2387h1.6901l-.0786.5038h-2.2516ZM435.5073,785.7853l.6088-3.8315h1.202c.2381,0,.4391.0464.6037.139.1643.0928.2833.223.3568.391s.0911.3656.0527.5932c-.0387.2591-.1401.4838-.3044.6746-.1646.1905-.3659.3209-.6037.391l.5354,1.6428h-.6194l-.4776-1.5748h-.5408l-.2466,1.5748h-.567ZM436.3997,783.7068h.635c.1891,0,.3491-.0558.4804-.168.131-.1119.2107-.2623.2386-.4514.0316-.1925,0-.3454-.0945-.4593-.0943-.1136-.2361-.1706-.4252-.1706h-.635l-.1993,1.2493ZM439.8007,785.8377c-.3602,0-.6308-.1005-.8107-.3019-.1803-.201-.2423-.473-.1865-.8161l.2677-1.7006c.0561-.3463.2056-.6194.4488-.8187s.545-.2993.9056-.2993c.3568,0,.6253.1008.8056.3019.1803.2013.2423.4733.1865.8161h-.567c.0313-.1993.0026-.3517-.0866-.4565-.0894-.1051-.2284-.1575-.4175-.1575-.1925,0-.3508.0524-.475.1575-.1242.1048-.2019.2554-.2335.4514l-.2677,1.7057c-.0316.1996-.0026.3517.0866.4568.0894.1051.2301.1575.4226.1575s.35-.0524.4724-.1575.1993-.2571.2309-.4568h.5667c-.0347.2275-.1145.4252-.2386.5932s-.2808.2976-.4699.3884c-.1888.0908-.4024.1364-.6404.1364ZM441.8792,785.7853l.0789-.5038h.7768l.4459-2.824h-.7766l.0837-.5038h2.1258l-.084.5038h-.7766l-.4462,2.824h.7768l-.0789.5038h-2.1258ZM444.7399,785.7853l1.585-3.8315h.7452l.3728,3.8315h-.5616l-.0735-.9711h-1.0867l-.3884.9711h-.5929ZM445.8998,784.3418h.8714l-.0894-1.1023c-.0174-.1959-.0296-.3654-.0367-.5089-.0068-.1435-.0103-.2432-.0103-.2993-.0177.0561-.0518.1558-.1025.2993s-.1148.3112-.1916.5038l-.4408,1.1075ZM448.2354,785.7853l.6088-3.8315h.567l-.5248,3.3118h1.6741l-.0786.5197h-2.2465ZM453.1932,785.8377c-.3676,0-.6345-.1005-.8005-.3019-.1663-.201-.2213-.475-.1654-.8213l.4357-2.7608h.567l-.4357,2.7554c-.0316.1962-.008.35.0709.4619.0786.1122.2141.168.4066.168s.3474-.0558.4645-.168c.1173-.1119.1916-.2657.2233-.4619l.4357-2.7554h.5667l-.4357,2.7608c-.0558.35-.2002.6245-.4328.8241-.2329.1993-.5328.299-.9001.299ZM456.3581,785.8377c-.385,0-.6738-.0951-.866-.2859-.1925-.1908-.2643-.4505-.2153-.7794h.567c-.0282.1748.0105.3121.1153.4121.1051.0997.266.1495.483.1495.2028,0,.3699-.049.5012-.1469s.2107-.2327.2389-.4044c.0211-.1504.0009-.2788-.0604-.3856s-.1583-.1811-.2913-.2233l-.4568-.1364c-.266-.0803-.4619-.217-.5878-.4095-.1259-.1922-.1697-.4197-.1313-.6823.035-.2099.1119-.3935.2309-.551s.2731-.2799.4619-.3673c.1891-.0874.4024-.1313.6404-.1313.3497,0,.6157.0954.7979.2859.1817.1908.2483.4437.1993.7586h-.567c.0279-.168-.0026-.3001-.0917-.3964-.0894-.0963-.2301-.1444-.4226-.1444-.1891,0-.3429.0447-.4619.1338-.119.0894-.1891.2144-.2099.3753-.0245.1506-.0071.2791.0524.3859s.1575.1811.2939.223l.4673.1469c.2623.0806.4556.2173.5798.4095.1242.1925.1654.4217.1236.6877-.035.217-.1156.4058-.2415.5667-.1262.1612-.2879.2862-.4855.3753-.1979.0894-.4192.1338-.6641.1338ZM458.4209,785.7853l.6088-3.8315h2.2516l-.0786.5038h-1.6955l-.1731,1.0867h1.5115l-.0786.4986h-1.5118l-.1942,1.2387h1.6901l-.0786.5038h-2.2516Z" style="fill: #ccc;"/>
  <g id="g10">
    <g id="g4341">
      <path id="path4339" d="M129.6276,209.158v5.1266c0,127.4566,29.7792,246.3973,93.5286,351.0955,43.5777,71.5706,104.5988,140.7878,176.6403,184.4999l.2099.12.2481-.1495c72.018-43.7135,133.0218-112.917,176.5897-184.4703,63.7481-104.697,93.5279-223.6389,93.5279-351.0955v-5.1266H129.6276Z" style="fill: #e94625; fill-rule: evenodd;"/>
      <path id="path4279" d="M663.4959,209.158v5.1266c0,123.2783-28.1971,241.8696-92.5254,347.5173-42.3543,69.5605-101.2731,136.8597-170.9727,180.1348-69.6725-43.2317-128.5937-110.5398-170.969-180.1349-64.3283-105.6502-92.5241-224.239-92.5241-347.5173v-5.1266h526.9913Z" style="fill: #fff; fill-rule: evenodd;"/>
      <path id="path16" d="M194.9604,209.158v5.1266c0,112.493,25.2751,220.6669,83.9951,317.1086,31.076,51.036,72.5735,101.6756,121.0485,139.3425,48.4737-37.6657,89.9614-88.3004,121.0411-139.3425,58.7213-96.4416,83.9951-204.6168,83.9951-317.1086v-5.1266H194.9604" style="fill: #e94625; fill-rule: evenodd;"/>
      <path id="path4297" d="M670.3724,50H129.6299l-.002,164.2846h540.7444V50Z" style="fill: #525e98; fill-rule: evenodd;"/>
    </g>
    <g id="g4233">
      <path id="path18" d="M145.395,257.5579l7.8689-.2753-.718-20.5828,35.6432-1.2434-.3025-8.6394-43.5112,1.5175,1.0194,29.2234" style="fill: #231f20;"/>
      <path id="path20" d="M146.1395,272.14l43.4792-2.2793-.4531-8.6332-43.4784,2.2793.4523,8.6332" style="fill: #231f20;"/>
      <path id="path22" d="M149.4491,309.0149l7.8456-.6865-1.7956-20.5174,35.5294-3.1078-.753-8.6122-43.3745,3.7955,2.5481,29.1283" style="fill: #231f20;"/>
      <path id="path24" d="M154.8991,343.3908l7.7989-1.0952-2.8665-20.3951,35.3177-4.9636-1.2024-8.5615-43.1157,6.0612,4.068,28.9542" style="fill: #231f20;"/>
      <path id="path26" d="M162.5931,378.5211l7.5341-1.6002-4.7676-22.4324,11.0352-2.3447,4.1936,19.7296,7.5341-1.6027-4.1936-19.7284,8.9489-1.9039,4.5627,21.4706,7.5354-1.6002-6.3367-29.8173-42.5864,9.053,6.5404,30.7767" style="fill: #231f20;"/>
      <path id="path28" d="M200.7193,432.7673c4.8503-1.5249,8.5588-3.4634,11.1031-5.7945,2.4542-2.3151,4.0985-4.7438,4.9256-7.2997.8407-2.5003,1.2024-4.8833,1.0728-7.1379-.2382-2.2731-.574-4.0943-.9999-5.4871-.4086-1.3347-1.1296-2.9744-2.1789-4.9167-1.1468-1.9126-2.7801-3.6967-4.8985-5.3735-2.111-1.6496-4.838-2.7497-8.1625-3.2881-3.4393-.5976-7.6057-.158-12.4808,1.2878-4.8195,1.5187-8.4551,3.4634-10.8845,5.8575-2.5023,2.32-4.1775,4.766-5.0046,7.3133-.8283,2.5793-1.1678,4.9661-1.0283,7.1873.0481.5668.1049,1.0989.1531,1.6027.0259.4988.0667.9828.1395,1.4582.1457.8964.316,1.6582.5049,2.2768.4271,1.3928,1.216,3.0757,2.3838,5.0636,1.1345,1.9496,2.7455,3.7288,4.854,5.3266,2.111,1.6582,4.8627,2.7423,8.2403,3.2745,3.322.5359,7.4144.0889,12.261-1.3508h0ZM198.1923,424.4996c-2.8517.8729-5.3281,1.2816-7.4354,1.2285-2.1048-.1395-3.859-.5865-5.2701-1.3285-1.4283-.768-2.5381-1.6965-3.327-2.788-.8543-1.1039-1.4567-2.2398-1.8135-3.4103-.3284-1.0754-.4506-2.304-.3494-3.6684.0222-1.4137.4148-2.8312,1.1703-4.2586.7543-1.4137,1.9666-2.7361,3.6455-3.9894,1.695-1.3026,3.9627-2.3855,6.8144-3.2572,2.9393-.8989,5.4651-1.2816,7.5687-1.1421,2.1221.0914,3.8751.5075,5.2799,1.2606,1.4086.7655,2.5344,1.7212,3.364,2.8732.7493,1.1039,1.2864,2.2064,1.616,3.2807.3568,1.1718.5407,2.4336.5456,3.7968-.0617,1.352-.4716,2.7448-1.2073,4.1771-.7456,1.4002-1.9592,2.7546-3.6541,4.0548-1.69,1.2137-4.0096,2.2731-6.9477,3.1708" style="fill: #231f20;"/>
      <path id="path30" d="M194.5579,478.5705l7.349-2.8213-7.3786-19.2283,33.2956-12.7843-3.0961-8.0702-40.647,15.6081,10.4772,27.296" style="fill: #231f20;"/>
      <path id="path32" d="M247.3239,488.757l-3.9924-8.969-20.6185.2161h0l13.7967-15.5414-4.1368-9.29-18.9495,24.0758-15.0152,6.6873,3.5146,7.896,14.9065-6.6379,30.4945,1.5632" style="fill: #231f20;"/>
      <path id="path34" d="M230.9718,551.0512l38.4422-20.4445-5.8713-11.0409-33.7869,9.6432-.0506-.0988,26.8095-22.767-5.9132-11.1211-38.4422,20.442,3.7825,7.1157,32.1142-17.0799.0519.1-28.5885,23.7104,3.9689,7.4639,35.7485-10.2408.037.0704-32.1142,17.0787,3.8121,7.1688" style="fill: #231f20;"/>
      <path id="path36" d="M280.3554,572.3563c7.5366-5.0994,9.1081-11.2199,4.7145-18.3591l-10.3006-15.8662-36.5164,23.719,4.7071,7.2503,13.1659-8.5541,5.4071,8.3282c1.5308,2.3583,3.248,3.9437,5.1478,4.7697,1.8172.9433,3.6109,1.3681,5.3898,1.2853,1.8332-.0704,3.4591-.3889,4.8676-.9322,1.4308-.5433,2.5702-1.0903,3.4171-1.6409ZM276.021,564.8652c-.4148.2692-.9518.5927-1.6258.9853-.6605.3198-1.4184.5223-2.2727.6186-.8185.0617-1.6801-.1383-2.5986-.5655-.9172-.4309-1.8196-1.3384-2.7171-2.7213l-4.3726-6.7317,10.7339-6.9712,3.7319,5.7501c2.8369,4.2931,2.548,7.5059-.879,9.6358" style="fill: #231f20;"/>
      <path id="path38" d="M267.0697,604.7331l35.6646-24.9772-4.959-7.0811-35.6646,24.9772,4.959,7.0811" style="fill: #231f20;"/>
      <path id="path40" d="M291.5831,641.5661l6.6416.5717.7975-6.3057c2.1406-.0173,4.4553-.5038,6.9317-1.4533,2.4949-.947,5.1417-2.5151,7.9464-4.708,3.9825-3.1609,6.7502-6.3008,8.2884-9.3888,1.4616-3.0411,2.1295-5.8983,1.9851-8.5813-.1111-2.6337-.6284-4.9883-1.5567-7.049-1.0382-2.0348-2.0048-3.6153-2.8998-4.7623-.858-1.0989-2.1221-2.3719-3.7948-3.8091-1.7554-1.3755-3.922-2.4534-6.5009-3.2621-2.5616-.7828-5.4997-.8322-8.797-.1432-3.4245.6742-7.1576,2.5781-11.1895,5.6773-3.9566,3.1448-6.6527,6.2637-8.0699,9.3604-1.4999,3.0695-2.1851,5.9551-2.0443,8.6295.1481,2.7053.6876,5.0537,1.6147,7.0774.2481.5136.4913.989.7148,1.4422.1975.4482.416.8927.6555,1.3113.4568.7841.8888,1.4335,1.2864,1.9447.8037,1.0285,1.9419,2.1768,3.4158,3.4535,1.4727,1.2458,3.2825,2.2953,5.4219,3.1498h0l-.8469,6.8453h0ZM308.5796,622.8589c-3.1875,2.4398-6.0194,3.856-8.5155,4.2561h0l.6654-6.1279h0l-6.5811-.426-.6851,5.8094c-1.6258-.7705-2.8924-1.7669-3.801-2.9954-.6913-.8853-1.2456-1.9891-1.6419-3.3004-.4839-1.3273-.6271-2.7917-.4308-4.3968.1951-1.5879.8543-3.256,1.9715-5.029,1.116-1.8212,2.8455-3.6474,5.196-5.4834,2.4221-1.8916,4.6429-3.1547,6.6564-3.7782,2.0135-.6742,3.7998-.9174,5.3812-.7149,1.5888.2087,2.9813.6976,4.1689,1.4767,1.0938.7618,1.9937,1.5977,2.685,2.483.753.9643,1.3777,2.0768,1.8703,3.3473.4259,1.2866.5432,2.7337.3691,4.3339-.1938,1.573-.8419,3.2745-1.9579,5.0945-1.1431,1.741-2.9295,3.5597-5.3503,5.4513" style="fill: #231f20;"/>
      <path id="path42" d="M338.2026,664.3991l20.7013-19.3075-6.0194-6.4555-20.9654,19.5551c-3.9738,3.8175-7.8958,3.6733-11.7783-.4312-1.3937-1.4943-2.0542-3.2416-1.9641-5.2346.0037-1.9968,1.1049-4.0326,3.3047-6.1369l20.663-19.2724-5.9774-6.4107-21.1,19.6802c-3.2011,2.9843-5.0639,6.161-5.5676,9.5188-.1642,2.8496.3049,5.4117,1.4049,7.7175,1.1444,2.251,2.39,4.0891,3.7208,5.5167,7.4736,8.1955,15.3324,8.6045,23.5776,1.2603" style="fill: #231f20;"/>
      <path id="path44" d="M361.5938,705.2669l5.154-5.726-17.0398-15.3443,7.5489-8.386,14.9868,13.4966,5.154-5.7247-14.9868-13.497,6.1219-6.7987,16.3089,14.6865,5.1552-5.726-22.6493-20.3956-29.1329,32.3603,23.3789,21.0548" style="fill: #231f20;"/>
      <path id="path46" d="M457.3376,673.112c-1.332-1.4802-2.6616-2.5171-3.9899-3.1017-1.3431-.6004-2.6678-.8773-3.9862-.8325-2.6566.148-5.2898.97-7.9094,2.4575l-9.2056,4.7787c-.8333.4793-1.8098.815-2.9208.9988-1.1308.2716-2.2591-.1957-3.3912-1.4083-.7024-.7823-1.0975-1.568-1.1728-2.373-.158-.7963-.0889-1.5665.2-2.3025.6247-1.5424,1.5752-2.889,2.8542-4.0394,1.3876-1.2516,2.6579-2.1082,3.7973-2.5499,1.1444-.3608,2.1777-.437,3.1035-.2373.8753.11,1.6443.3729,2.2875.7722.5975.4385,1.0925.8512,1.4765,1.216l6.1589-5.5476c-.8888-1.051-2.0703-2.0137-3.5442-2.8649-1.4641-.858-3.1109-1.4012-4.9454-1.6403-1.8937-.3083-3.9393-.1133-6.1009.5966-2.1727.7601-4.4442,2.18-6.8169,4.2612-2.4863,2.2389-4.1862,4.3698-5.1009,6.3897-.9246,2.0841-1.3518,4.0467-1.2666,5.876.1012,1.7455.5049,3.3415,1.2098,4.7734.7135,1.4257,1.4876,2.6055,2.3209,3.5306,1.5752,1.7503,3.1554,2.9132,4.7466,3.5065,1.5135.6516,3.0319.8889,4.5652.7032,1.495-.2016,2.9764-.6242,4.4639-1.2694,1.5234-.6497,3.027-1.3809,4.5096-2.1835l4.0566-2.1858c1.9986-1.1335,3.7418-1.8723,5.2429-2.2457,1.4777-.351,2.7887.0758,3.9257,1.281.7592.8407,1.2012,1.6954,1.3345,2.5539.0901.899-.0358,1.7744-.3802,2.6151-.7728,1.785-1.9665,3.3756-3.601,4.7942-1.3962,1.2573-2.6776,2.0566-3.864,2.4024-1.1876.4317-2.2554.5913-3.2146.461-.9284-.1977-1.7493-.5213-2.4529-.9733-.6876-.4147-1.253-.8459-1.6888-1.2694l-6.1601,5.5476c.8901,1.049,2.0789,2.0049,3.5442,2.8629,1.4234.9493,3.1159,1.5733,5.0898,1.8776,1.9555.2527,4.1109-.0294,6.4799-.8547,2.39-.8064,4.9812-2.4313,7.7637-4.8853.7358-.6617,1.6715-1.6934,2.7962-3.0747,1.1123-1.3944,2.0431-3.0642,2.8183-5.0142.7629-1.9774.9814-4.1063.6703-6.3728-.3457-2.2711-1.5838-4.6133-3.7035-7.0298" style="fill: #231f20;"/>
      <path id="path48" d="M474.7131,631.9662c-6.7712-6.0785-13.0881-6.1242-18.952-.1321l-12.898,13.8354,31.8426,29.6989,5.8935-6.3226-11.4808-10.7079,6.77-7.2621c1.9172-2.0566,3.0393-4.1045,3.3813-6.149.4753-1.9912.4543-3.8347-.0556-5.5398-.5135-1.7644-1.216-3.2646-2.0826-4.5006-.8728-1.2569-1.6801-2.2311-2.4184-2.9201ZM468.4937,637.9867c.3629.3371.8061.7791,1.3481,1.3397.4691.5618.8506,1.2495,1.1518,2.0558.2568.7779.274,1.6632.079,2.6596-.1938.993-.858,2.0888-1.9801,3.2941l-5.4762,5.8707-9.3575-8.729,4.6738-5.0142c3.4788-3.7894,6.6663-4.287,9.5612-1.4767" style="fill: #231f20;"/>
      <path id="path50" d="M513.7726,596.6111c-4.0306-3.0979-7.7452-5.0253-11.1142-5.7736-3.3023-.6816-6.2367-.6383-8.8032.1506-2.5295.7445-4.6886,1.8163-6.4614,3.2164-1.7246,1.499-3.0245,2.8189-3.9195,3.9659-.8604,1.0989-1.7888,2.6337-2.7764,4.6055-.9098,2.0361-1.4345,4.3981-1.5925,7.0947-.1395,2.6756.5222,5.5402,1.9888,8.5739,1.4826,3.1609,4.2331,6.323,8.2143,9.4851,4.0084,3.0806,7.686,4.9426,11.0401,5.5599,3.3356.7198,6.2996.689,8.86-.0951,2.5863-.7989,4.7355-1.8916,6.4762-3.2794.437-.3642.8407-.7161,1.2234-1.0433.3938-.3087.7679-.6211,1.1148-.952.6493-.6334,1.1777-1.2113,1.5752-1.72.8975-1.1471,1.8221-2.7608,2.7813-4.8562.9456-2.0484,1.4789-4.3882,1.5789-7.0317.1457-2.6806-.5456-5.5587-2.0468-8.6282-1.4666-3.0337-4.18-6.1292-8.139-9.2728ZM508.4519,603.4231c2.3517,1.8373,4.1047,3.6313,5.2713,5.3883,1.0937,1.8039,1.7332,3.4967,1.9357,5.0784.1889,1.6125.0642,3.0535-.379,4.324-.4123,1.3347-.9987,2.4781-1.7518,3.4436-.6913.8853-1.6283,1.6903-2.8023,2.3904-1.1703.7902-2.5579,1.2853-4.1615,1.4829-1.5888.1951-3.3665-.0407-5.3577-.6976-2.0369-.6421-4.2269-1.8792-6.5762-3.7165-2.4208-1.8916-4.1837-3.7412-5.2762-5.5451-1.1419-1.7903-1.8073-3.4646-1.9949-5.0488-.1827-1.5915-.0445-3.0621.4247-4.403.4728-1.2471,1.0678-2.32,1.7591-3.2053.753-.9655,1.6826-1.841,2.7949-2.6263,1.1444-.7235,2.5196-1.189,4.1146-1.4064,1.5752-.1914,3.3801.0259,5.417.668,1.9641.6877,4.1615,1.9817,6.5823,3.8733" style="fill: #231f20;"/>
      <path id="path52" d="M560.4748,567.5594c-4.3689,1.6582-8.2723-3.2918-12.877-5.3142-3.0467-1.3384-7.4391-1.4422-9.255,1.9558.9394-4.224.737-8.7196-4.2356-12.0213-2.9974-1.9904-6.2626-2.646-9.6525-2.1608-3.4356.542-6.2823,2.4768-8.5538,5.8242l-11.445,17.6294,36.5633,23.7486,4.7084-7.2491-14.2844-9.2765,3.4961-5.3871c3.2442-6.4885,7.0724-5.6143,10.9907-3.5893,3.048,1.5743,5.7824,4.587,9.0772,3.8906l5.4676-8.0504h0ZM529.1741,559.2213c1.49.9693,2.3986,2.2077,2.7097,3.7116.3543,1.6286-.0753,3.3881-1.2987,5.2698l-5.4515,8.3949-9.6636-6.2786,5.8404-8.995c1.2086-1.7854,2.5443-2.7855,4.022-2.9831,1.4703-.1296,2.7468.1691,3.8417.8804" style="fill: #231f20;"/>
      <path id="path54" d="M549.9556,514.5207l-6.7366-3.735-16.2904,29.3938,6.7379,3.735,6.033-10.8865,31.3414,17.3762,4.1911-7.559-31.3426-17.3762,6.0663-10.9483" style="fill: #231f20;"/>
      <path id="path56" d="M589.4657,515.7208l-39.1335-19.09-3.7887,7.7701,39.1347,19.09,3.7874-7.7701" style="fill: #231f20;"/>
      <path id="path58" d="M608.2707,473.9329l-40.0779-17.0157-3.1479,7.417,27.9157,11.8508-.0445.1037-34.3375,3.2807-3.5418,8.3492,40.0767,17.0145,3.1479-7.4182-28.5749-12.1311.0432-.1037,35.1671-3.4017,3.3739-7.9454" style="fill: #231f20;"/>
      <path id="path60" d="M625.8401,427.2975l-22.2036-7.6466-5.6231,16.3378,6.9477,2.3929,3.106-9.0258c1.8962,1.1026,3.2788,2.2756,4.1627,3.5301.9444,1.2656,1.5481,2.5238,1.8122,3.7474.2617,1.1594.3543,2.1966.2703,3.1189-.1235.9532-.2617,1.6632-.4284,2.1521-.4889,1.4125-1.1814,2.6818-2.0912,3.8029-.8814,1.2248-2.0493,2.1916-3.5072,2.888-.7296.3247-1.5382.5914-2.4344.7964-.8345.1939-1.7715.3087-2.8085.3383-2.027.0803-4.4429-.3543-7.2452-1.3187-5.2269-1.8656-8.6427-4.3351-10.2266-7.4355-1.4987-2.9115-1.7295-5.8797-.6987-8.8702.5012-1.4545,1.1962-2.6361,2.1011-3.5535.9172-.8952,1.8764-1.5669,2.8838-2.0126,1.0049-.4346,1.9295-.6927,2.7764-.7655.8827-.0827,1.5258-.0531,1.9382.0877l2.8122-8.1726c-1.4851-.4037-3.1591-.5729-5.0269-.4902-1.8098.1667-3.6516.6989-5.5306,1.5916-1.874.852-3.6208,2.1966-5.2417,4.0437-1.6172,1.8397-2.9369,4.2511-3.9701,7.2515-2.0962,6.5823-1.5653,12.1533,1.595,16.728,3.2183,4.629,7.7477,7.9306,13.6017,9.9025,7.2539,2.4126,13.2745,2.4349,18.057.0605,4.7874-2.1904,8.0168-5.7414,9.7056-10.6433.5728-1.7842.879-3.4202.9098-4.9068.0284-1.4212-.1012-2.7189-.3926-3.8659-.3284-1.1829-.7185-2.2262-1.1765-3.1313-.4481-.9038-.9086-1.7039-1.3987-2.3966h0l5.4416.9335,1.8826-5.4686" style="fill: #231f20;"/>
      <path id="path62" d="M630.4916,349.3002l-1.7925,8.4455c5.0824,2.2385,7.1206,5.7847,6.1256,10.6569-.7913,3.5313-2.8159,5.7686-6.0898,6.7169-3.1319.9779-6.6601,1.0446-10.5858.2111-3.0541-.6507-5.4725-1.5261-7.2539-2.63-1.7888-1.0631-3.127-2.204-3.9936-3.4313-.8679-1.3125-1.411-2.5954-1.6048-3.8252-.1556-1.2125-.1197-2.3114.0901-3.2992.3753-1.7595.9382-3.151,1.7073-4.1857.7024-1.0187,1.511-1.7558,2.4307-2.2015.9296-.4334,1.8233-.7396,2.6899-.9285.9246-.0803,1.7357-.1049,2.4332-.0704l1.7937-8.4467c-3.4233-.5729-7.0317.1605-10.8204,2.1879-3.901,2.0731-6.549,6.0699-7.9378,12.0163-1.1419,5.371-.2099,10.1778,2.8072,14.4166,3.0134,4.3425,8.2575,7.3379,15.7053,9.0036,7.3662,1.5249,13.2931.9569,17.7792-1.7089,4.48-2.5621,7.3206-6.5885,8.5242-12.0583,1.0357-5.0624.4-9.3728-1.9147-12.9152-2.1838-3.4906-5.5491-6.1403-10.0932-7.9541" style="fill: #231f20;"/>
      <path id="path64" d="M651.3756,314.686l-7.7761-1.231-3.222,20.342-35.2239-5.5822-1.353,8.5393,43.0024,6.812,4.5726-28.8802" style="fill: #231f20;"/>
      <path id="path66" d="M639.7072,272.7548l-28.1959-2.4658-.7679,8.7925,28.5576,2.4979c5.496.4013,8.0119,3.4128,7.56,9.0456-.1765,2.0348-1.0333,3.6943-2.5752,4.9611-1.4851,1.3335-3.7343,1.8768-6.7687,1.6496l-28.1477-2.462-.7641,8.7332,28.7415,2.5139c4.3603.3815,7.9674-.3593,10.7981-2.2299,2.227-1.7854,3.8171-3.8486,4.796-6.2094.9061-2.3558,1.4382-4.5129,1.6086-6.4576,1.0888-11.0384-3.8664-17.154-14.8424-18.369" style="fill: #231f20;"/>
      <path id="path68" d="M644.4229,225.7317c-2.2307-.1197-4.3072.2222-6.2268,1.026-1.9307.8828-3.4578,2.5694-4.5652,5.0401-.2259-.4828-.521-1.0298-.8938-1.6397-.3555-.5495-.8407-1.1112-1.4481-1.6804-.637-.5778-1.4999-1.0643-2.59-1.4446-1.0382-.3605-2.3061-.5668-3.7998-.6186-1.1629-.042-2.4023.0976-3.6986.4174-1.2752.3383-2.4912.9643-3.6455,1.8842-1.2148.9001-2.2184,2.1484-3.0048,3.7721-.7358,1.6632-1.1431,3.7634-1.232,6.3082l-.7012,20.0889,43.5123,1.5199.6098-17.5108c.1457-4.1128-.116-7.0861-.7802-8.911-.3296-.9915-.7259-1.8249-1.1876-2.5077-.4111-.6544-.9148-1.2681-1.5135-1.8459-2.3036-2.3966-5.2528-3.6918-8.8353-3.898h0ZM625.6388,234.7378c1.6962.0976,2.9171.7272,3.6467,1.9052.7271,1.1582,1.0616,2.6188.9999,4.3759l-.3518,10.1148-9.5081-.3334.3457-9.8815c.0691-1.9891.437-3.535,1.111-4.6438.7271-1.089,1.9801-1.6002,3.7566-1.5372h0ZM643.1403,234.3464c4.2812.2198,6.3255,2.5164,6.1354,6.8799l-.3703,10.5692-11.629-.4062.3852-11.0038c.0568-1.6471.4901-3.0769,1.3011-4.2931.853-1.1952,2.2468-1.7829,4.1775-1.7459" style="fill: #231f20;"/>
      <path id="path70" d="M609.1892,396.5245c2.8554,0,5.1713,2.3163,5.1713,5.1722s-2.3159,5.1722-5.1713,5.1722-5.1725-2.3163-5.1725-5.1722,2.3159-5.1722,5.1725-5.1722" style="fill: #231f20; fill-rule: evenodd;"/>
      <path id="path72" d="M186.8127,378.1247c2.8554,0,5.1713,2.3163,5.1713,5.1722s-2.3159,5.1722-5.1713,5.1722-5.1713-2.3163-5.1713-5.1722,2.3147-5.1722,5.1713-5.1722" style="fill: #231f20; fill-rule: evenodd;"/>
    </g>
    <g id="g4300">
      <path id="path4295" d="M181.3908,192.9177V64.7771h23.5073v108.6814l22.4789-.0815v19.4604l-45.9862.0803h0Z" style="fill: #fff; fill-rule: evenodd;"/>
      <path id="path4293" d="M255.3889,192.8375v-22.0793h22.1925v22.0793h-22.1925Z" style="fill: #fff; fill-rule: evenodd;"/>
      <path id="path4291" d="M326.7377,63.7293c-20.9778,0-31.4681,12.4103-31.4681,37.2307v55.03c0,11.6323,1.956,19.9654,6.973,27.4417,4.5491,6.7823,12.8158,11.4501,23.7004,11.4501,11.3265,0,19.3074-3.1367,23.9454-9.382,5.1194-6.8898,7.6905-16.7268,7.6905-29.5098v-55.03c0-12.0089-2.6325-21.2273-7.8988-27.6886-5.8799-7.1762-13.9342-9.5421-22.9423-9.5421ZM326.5063,83.4713c5.154.0679,7.922,2.4326,7.922,10.5781v67.8151c0,8.8579-1.9014,13.7112-7.922,13.7112-5.7713,0-8.341-4.6626-8.3348-13.0958l.0675-68.4306c.7185-7.4713,3.112-10.6472,8.2673-10.5781h0Z" style="fill: #fff; fill-rule: evenodd;"/>
      <path id="path4287" d="M431.5737,120.0062c-3.8121-5.5489-8.1501-14.9228-7.8131-24.9562.337-10.0333,2.2986-17.5639,7.4033-23.6264,5.1047-6.0649,13.0215-9.5407,23.5097-9.5407,9.0094,0,17.0632,2.3645,22.9431,9.542,4.6676,5.7254,7.2625,13.6251,7.7934,23.7079h-23.0468v-2.93c0-8.1467-3.5072-10.3259-7.9217-10.5779-4.4158-.2507-8.4958,2.5559-8.6365,10.0222-.0839,4.5351-.3382,6.6181,2.9899,10.8112,8.8291,11.1236,23.4283,20.7038,31.3031,32.8695,3.8825,5.9958,6.2947,12.3435,6.3367,24.3573.0469,12.7929-2.7591,17.0824-7.8724,23.9684-4.6355,6.2403-13.356,9.3814-24.6837,9.3814-10.8845,0-19.152-4.6685-23.7011-11.4496-5.5997-8.3479-6.97-17.8677-6.97-27.7121h22.9073l-.0074,6.7601c-.0062,8.4319,2.564,13.0967,8.3353,13.0967,6.0207,0,7.8971-4.119,7.9205-10.7569.0259-7.5244-1.8826-12.646-4.7454-16.2366-8.4995-10.6643-18.6964-16.0341-26.0442-26.7305h0Z" style="fill: #fff; fill-rule: evenodd;"/>
      <path id="path4285" d="M556.3034,155.9909v-55.0303c0-24.8204,10.4883-37.2306,31.4661-37.2306,9.0081,0,17.0632,2.3645,22.9431,9.5407,5.2663,6.4613,7.8971,15.681,7.8971,27.6899v.4519h-23.1505v-7.3639c0-8.1454-2.7677-10.5087-7.923-10.5766-5.154-.0692-7.5465,3.1053-8.2662,10.5766l-.0666,68.4307c-.0074,8.4331,2.5628,13.0967,8.3353,13.0967,6.0207,0,7.9205-4.8537,7.9205-13.7116v-3.5585h23.1209c-.2963,11.662-2.8554,20.7285-7.66,27.1947-4.638,6.2452-12.619,9.3814-23.9455,9.3814-10.8845,0-19.1532-4.6685-23.7011-11.4508-5.017-7.4762-6.97-15.8081-6.97-27.4404h0Z" style="fill: #fff; fill-rule: evenodd;"/>
      <path id="path4283" d="M384.1912,192.7152v-21.9608h22.1938v21.9608h-22.1938Z" style="fill: #fff; fill-rule: evenodd;"/>
      <path id="path74" d="M511.3962,192.7152v-21.9608h22.1913v21.9608h-22.1913" style="fill: #fff; fill-rule: evenodd;"/>
    </g>
    <g id="g4328">
      <path id="path4277" d="M400.0057,228.9012c-12.1549,19.1357-29.397,53.5042-30.5599,87.5813-1.5036,44.1438,15.4534,98.6221,23.548,142.0448h14.1584c7.1132-39.4987,25.5146-100.4224,23.369-142.7807-1.511-29.8667-16.9163-67.4664-30.5155-86.8454Z" style="fill: #fff; fill-rule: evenodd;"/>
      <path id="path4275" d="M349.6001,467.3593h100.8114v16.1909h-100.8114v-16.1909h0Z" style="fill: #fff; fill-rule: evenodd;"/>
      <path id="path4273" d="M299.5215,428.352c-2.0888-20.852,9.3871-33.2807,25.0171-33.4856,16.6398-.2173,40.7198,22.0929,47.0985,63.661h11.408c-4.7824-29.1678-15.788-105.9292-71.0144-107.4529-18.9298-.5235-42.3827,14.3524-42.3086,37.1676.0543,17.0861,10.9129,30.5421,29.7995,40.1099h0Z" style="fill: #fff; fill-rule: evenodd;"/>
      <path id="path4271" d="M500.4789,428.352c2.0887-20.852-9.3884-33.2807-25.0183-33.4856-16.6385-.2173-40.7186,22.0929-47.0972,63.661h-11.4092c4.7837-29.1678,15.788-105.9292,71.0144-107.4529,18.931-.5235,42.3839,14.3524,42.3099,37.1676-.0556,17.0861-10.9142,30.5421-29.7995,40.1099h0Z" style="fill: #fff; fill-rule: evenodd;"/>
      <path id="path4269" d="M392.9123,493.3921c-6.1441,15.2698-9.892,35.155-8.4797,50.9804,1.6505,18.4628,6.8169,33.0053,15.5732,48.0294,9.2501-15.1019,15.3263-33.7919,15.9497-52.0904.5-14.6895-3.2838-34.0363-8.7983-46.9194h-14.2448Z" style="fill: #fff; fill-rule: evenodd;"/>
      <path id="path4267" d="M380.3773,493.3921c-2.9282,18.4122-16.2052,64.0314-46.8849,63.8079-11.35-.0827-23.4036-8.3739-22.7974-20.9532.295-6.0822,5.6515-14.6784,14.7485-13.3004,7.0021,1.0606,9.4562,5.9044,9.4908,9.6876.0235,2.2669-.9839,4.3796-1.0234,6.3304-.0568,2.7275,1.4999,4.6981,5.5404,4.6722,8.4489-.0556,12.3178-6.4872,14.5646-9.353,6.5477-8.3504,13.0511-24.5179,15.8546-40.8915h10.5068Z" style="fill: #fff; fill-rule: evenodd;"/>
      <path id="path4265" d="M419.6725,493.3921c2.9282,18.4122,16.2064,64.0314,46.8849,63.8079,11.35-.0827,23.4048-8.3739,22.7974-20.9532-.2938-6.0822-5.6515-14.6784-14.7473-13.3004-7.0033,1.0606-9.4562,5.9044-9.4933,9.6876-.0222,2.2669.9851,4.3796,1.0259,6.3304.0568,2.7275-1.5012,4.6981-5.5417,4.6722-8.4489-.0556-12.3166-6.4872-14.5646-9.353-6.5477-8.3504-13.0499-24.5179-15.8546-40.8915h-10.5068Z" style="fill: #fff; fill-rule: evenodd;"/>
    </g>
  </g>
</svg>