<?xml version="1.0" encoding="UTF-8"?>
<svg data-name="图层_1" xmlns="http://www.w3.org/2000/svg" version="1.1" viewBox="0 0 800 800">
  <!-- Created by @FCLOGO 2025-1-9 GMT+8 10:42:11 . https://fclogo.top/ -->
<!-- FOR PERSONAL USE ONLY NOT FOR COMMERCIAL USE -->
  <path d="M348.2194,774.301c-.786,0-1.3752-.2173-1.7682-.6519-.393-.4352-.5284-1.03-.406-1.7856l.2518-1.6478c.122-.755.4501-1.3504.9841-1.785.5339-.4352,1.1939-.6525,1.9799-.6525.7553,0,1.3293.1987,1.7223.5954.3927.3967.551.9381.4747,1.6248h-1.2358c.0304-.3589-.0553-.637-.2573-.8357-.2024-.1981-.4979-.2974-.8869-.2974-.4197,0-.763.1167-1.03.3489-.2673.2328-.4349.5631-.5035.9903l-.2632,1.659c-.0686.4352-.0056.7686.1887,1.0015.1946.2328.5017.3489.9214.3489.389,0,.7152-.0987.9785-.2974.2632-.1981.4365-.4805.5206-.8469h1.2358c-.1372.6867-.4672,1.2306-.9897,1.631-.5228.4005-1.1616.6004-1.9169.6004ZM352.7967,774.1868l.9956-6.2943h1.1902l-.1946,1.1902c.3359-.8698.9729-1.3044,1.9113-1.3044.6712,0,1.1691.208,1.4932.624.3244.416.4293.9859.3148,1.7105l-.0686.4234h-1.2703l.0571-.3204c.0689-.4501.0115-.7953-.1714-1.0356-.1832-.2403-.4771-.3607-.8813-.3607-.4045,0-.7401.1223-1.007.3663-.2673.2446-.4349.588-.5035,1.03l-.6296,3.9711h-1.2358ZM361.9058,774.301c-.7705,0-1.3463-.2229-1.7279-.6693s-.515-1.0356-.4005-1.7682l.2518-1.6478c.0838-.488.2573-.9152.5206-1.2815s.6007-.6507,1.0129-.8524c.4119-.2024.8732-.3036,1.3845-.3036.7705,0,1.3485.2235,1.7338.6693.3852.4464.5169,1.0356.3949,1.7682l-.1717,1.1213h-3.845l-.0916.5265c-.1527.9536.2173,1.4305,1.1098,1.4305.7171,0,1.175-.2477,1.3734-.7438h1.2247c-.1679.5339-.5035.9599-1.007,1.2759-.5038.3166-1.0912.475-1.7626.475ZM361.2306,770.2157l-.0456.2862,2.6548-.0118.0459-.2856c.0686-.4656.0133-.822-.1661-1.0704-.1791-.2477-.4861-.3719-.9211-.3719-.4427,0-.7953.126-1.0586.3775-.2632.2521-.4331.6109-.5094,1.076ZM368.3258,774.301c-.6333,0-1.1027-.2117-1.4078-.6351s-.3967-1.0008-.2744-1.7335l.2744-1.7738c.1145-.7326.393-1.3119.8357-1.7397.4424-.4272.98-.6407,1.6133-.6407.4653,0,.8298.1186,1.093.3545.2632.2365.3908.5575.3834.9617h.023l.1717-1.202h1.2358l-.9956,6.2943h-1.2247l.1946-1.2014h-.023c-.122.4116-.3511.7339-.6867.9667s-.7401.3489-1.2129.3489ZM368.9324,773.2257c.389,0,.7152-.1186.9782-.3551.2632-.2359.4293-.5718.4979-1.007l.2518-1.6478c.0686-.4272.0096-.7612-.1773-1.0015-.1872-.2403-.475-.3601-.8642-.3601-.3967,0-.7249.118-.9841.3545-.2595.2365-.4234.5724-.492,1.007l-.2518,1.6478c-.0686.4427-.0133.7804.1658,1.0133.1794.2328.4712.3489.8757.3489ZM376.3477,774.1868c-.5721,0-.9937-.1565-1.2644-.4694-.271-.3123-.3607-.7512-.2691-1.3156l.538-3.3874h-1.7394l.1714-1.1219h1.7397l.2747-1.7161h1.2358l-.2747,1.7161h2.472l-.1832,1.1219h-2.4605l-.5377,3.3874c-.0764.4421.099.6637.5262.6637h1.7167l-.1717,1.1213h-1.7738ZM382.5042,774.301c-.7705,0-1.3463-.2229-1.7279-.6693s-.515-1.0356-.4005-1.7682l.2518-1.6478c.0838-.488.2573-.9152.5206-1.2815s.6007-.6507,1.0129-.8524c.4119-.2024.8732-.3036,1.3845-.3036.7705,0,1.3485.2235,1.7338.6693.3852.4464.5169,1.0356.3949,1.7682l-.1717,1.1213h-3.845l-.0916.5265c-.1527.9536.2173,1.4305,1.1098,1.4305.7171,0,1.175-.2477,1.3734-.7438h1.2247c-.1679.5339-.5035.9599-1.007,1.2759-.5038.3166-1.0912.475-1.7626.475ZM381.829,770.2157l-.0456.2862,2.6548-.0118.0459-.2856c.0686-.4656.0133-.822-.1661-1.0704-.1791-.2477-.4861-.3719-.9211-.3719-.4427,0-.7953.126-1.0586.3775-.2632.2521-.4331.6109-.5094,1.076ZM388.9243,774.301c-.6333,0-1.1008-.2117-1.4019-.6351-.3014-.4234-.3949-1.0008-.2803-1.7335l.2744-1.7738c.1145-.7326.393-1.3119.8357-1.7397.4424-.4272.98-.6407,1.6133-.6407.4653,0,.8298.1186,1.093.3545.2632.2365.3908.5575.3834.9617h.023l.2058-1.4652.2977-1.7962h1.2358l-1.3274,8.3537h-1.2247l.1946-1.2014h-.023c-.122.4116-.3511.7339-.6867.9667s-.7401.3489-1.2129.3489ZM389.5309,773.2257c.389,0,.7152-.1186.9782-.3551.2632-.2359.4293-.5718.4979-1.007l.2518-1.6478c.0761-.4272.0189-.7612-.1717-1.0015-.1909-.2403-.4805-.3601-.8698-.3601-.3967,0-.7249.118-.9841.3545-.2595.2365-.4234.5724-.492,1.007l-.2518,1.6478c-.0764.4427-.023.7804.1602,1.0133s.4768.3489.8813.3489ZM401.0175,774.301c-.4731,0-.8394-.1161-1.0986-.3489-.2595-.2328-.3852-.5551-.3775-.9667h-.0115l-.1946,1.2014h-1.2243l1.3274-8.3537h1.2358l-.2862,1.7962-.2744,1.4652h.0456c.122-.4123.353-.7345.6923-.9673.3396-.2322.7419-.3489,1.2076-.3489.633,0,1.1002.2136,1.4016.6407.3014.4278.3949,1.007.2806,1.7397l-.2747,1.7738c-.1145.7326-.3949,1.31-.8413,1.7335-.4461.4234-.9822.6351-1.6077.6351ZM400.7657,773.2257c.3967,0,.7227-.1161.9785-.3489.2555-.2328.4216-.5706.4976-1.0133l.2518-1.6478c.0689-.4346.0115-.7705-.1714-1.007-.1832-.2365-.4734-.3545-.8698-.3545-.3893,0-.7152.1198-.9785.3601s-.429.5743-.4979,1.0015l-.2518,1.6478c-.0686.4352-.0112.7711.1717,1.007.1832.2365.4731.3551.8698.3551ZM405.4694,776.2468l.1717-1.0642h1.934c.6407,0,1.007-.3017,1.0986-.9046l.1028-.6749.2061-1.1902h-.0345c-.122.4197-.3471.7438-.6752.9729-.3281.2285-.7286.3433-1.2014.3433-.6258,0-1.093-.2005-1.4019-.601s-.4104-.9443-.3033-1.631l.5836-3.6047h1.2358l-.5606,3.4793c-.0612.4116,0,.732.1832.9611s.4653.3433.8469.3433c.389,0,.7168-.1217.9841-.3663.267-.244.4309-.5836.492-1.0182l.538-3.3992h1.2358l-1.007,6.4086c-.0993.6029-.37,1.0778-.8124,1.4249-.4427.3471-.9996.5209-1.6707.5209h-1.9455ZM417.787,770.0853h3.221l.5368-1.8545h-5.4659l-1.7081,6.4419h2.1473l.5856-2.0985h3.0257l.4392-1.7081h-3.0257l.244-.7808ZM424.229,772.9158c-.5856,0-1.0249-.3904-1.0249-1.1225,0-.8784.6344-1.7569,1.6105-1.7569.488,0,.8784.244,1.0248.7808l1.9521-.8296c-.2928-1.1713-1.2689-1.9033-2.6353-1.9033-2.7817,0-4.1482,2.1473-4.1482,3.9042s1.2689,2.8305,3.0746,2.8305c1.3665,0,2.3425-.5856,2.9769-1.4153l-1.5129-1.1713c-.3904.4392-.8296.6832-1.3177.6832ZM430.9149,768.2308h-2.1473l-1.7569,6.4419h5.1242l.488-1.8545h-2.9281l1.2201-4.5874ZM439.7481,771.0125c0-1.6593-1.3177-2.9281-3.221-2.9281-2.1961,0-3.8066,1.8057-3.8066,3.8066,0,1.6593,1.3177,2.9281,3.221,2.9281,2.1961,0,3.8066-1.8057,3.8066-3.8066ZM434.9167,771.6957c0-.8296.5856-1.7081,1.5129-1.7081.7808,0,1.1713.5368,1.1713,1.2201,0,.8296-.5856,1.7081-1.5129,1.7081-.7808,0-1.1713-.5368-1.1713-1.2201ZM443.2131,772.2326h1.0737l-.1952.6832c-.1464.0488-.3416.0976-.5856.0976-.6832,0-1.2689-.3904-1.2689-1.2201,0-1.0249.732-1.9033,1.9521-1.9033.5856,0,1.1225.244,1.5129.5856l1.3665-1.3665c-.4392-.5368-1.5129-1.0737-2.7329-1.0737-2.5865,0-4.2946,1.7569-4.2946,3.8554,0,2.0497,1.6105,2.8793,3.221,2.8793.9272,0,1.8545-.2928,2.4889-.6832l.9272-3.3186h-3.1234l-.3416,1.4641ZM450.7775,768.0844c-2.1961,0-3.8066,1.8057-3.8066,3.8066,0,1.6593,1.3177,2.9281,3.221,2.9281,2.1961,0,3.8066-1.8057,3.8066-3.8066,0-1.6593-1.3177-2.9281-3.221-2.9281ZM450.3382,772.9158c-.7808,0-1.1713-.5368-1.1713-1.2201,0-.8296.5856-1.7081,1.5129-1.7081.7808,0,1.1713.5368,1.1713,1.2201,0,.8296-.5856,1.7081-1.5129,1.7081ZM437.9424,767.4987c-.0488.2928.0976.488.4392.488s.5368-.1952.6344-.488c.0488-.244-.0976-.488-.4392-.488s-.5856.244-.6344.488ZM432.1349,765.4978c-.4392,0-.732.244-.7808.5856s.0976.5856.5368.5856.732-.244.7808-.5856c.0976-.3416-.0976-.5856-.5368-.5856ZM433.0134,767.3035c-.0976.5368.1464.8784.8296.8784.6344,0,1.0737-.3904,1.1713-.8784s-.1464-.8784-.8296-.8784c-.6832,0-1.0737.3904-1.1713.8784ZM439.6017,777.552l-2.4401-1.8057h-1.5129l4.2458,3.1722,1.6105-3.1722h-.976l-.9272,1.8057ZM425.8394,767.1571l-2.0009-1.4641,23.1323-2.7817-2.1473,4.2458h1.0248l2.6841-5.3195-26.9877,3.221,2.7817,2.0985h1.5129ZM338.7186,785.7853l.6088-3.8315h2.32l-.084.5194h-1.7636l-.1837,1.1445h1.6272l-.084.5248h-1.6166l-.2573,1.6428h-.5668ZM342.97,785.8377c-.3568,0-.6228-.1005-.7978-.3019-.175-.201-.2345-.473-.1784-.8161l.2677-1.7006c.056-.3429.2029-.6148.4408-.8161.2379-.201.5355-.3019.8923-.3019s.6228.1.7979.2993c.1748.1993.2361.4707.1837.8136l-.2677,1.7057c-.0561.3431-.2039.6151-.4435.8161-.2398.2013-.5381.3019-.895.3019ZM343.0487,785.3339c.1925,0,.3483-.0524.4672-.1575.119-.1051.1942-.2571.2257-.4568l.2678-1.7006c.0315-.1993.0051-.3517-.0787-.4565-.084-.1051-.2223-.1575-.4148-.1575s-.3473.0524-.4645.1575c-.1173.1048-.1916.2571-.2231.4565l-.2677,1.7006c-.0315.1996-.0053.3517.0787.4568s.2204.1575.4094.1575ZM344.9961,785.7853l.6088-3.8315h1.202c.2379,0,.4391.0464.6036.139.1645.0928.2835.223.357.391s.091.3656.0524.5932c-.0384.2591-.14.4838-.3044.6746-.1645.1905-.3656.3209-.6036.391l.5354,1.6428h-.6194l-.4777-1.5748h-.5406l-.2466,1.5748h-.5668ZM345.8883,783.7068h.6352c.1889,0,.349-.0558.4803-.168.1313-.1119.2107-.2623.2388-.4514.0316-.1925,0-.3454-.0944-.4593-.0945-.1136-.2362-.1706-.4252-.1706h-.6352l-.1995,1.2493ZM349.545,785.7853l.6088-3.8315h1.2544c.3709,0,.6508.1048.8399.315.1889.2099.2553.4898.1993.8398-.0384.2344-.1216.4383-.2493.6114s-.2905.307-.4881.4015c-.1978.0945-.419.1418-.6639.1418h-.6928l-.2415,1.5221h-.5668ZM350.432,783.754h.6928c.1924,0,.3568-.0587.4934-.176.1364-.117.2204-.2737.2519-.4696s-.0017-.3525-.0997-.4699-.245-.1757-.441-.1757h-.6876l-.2099,1.2911ZM352.7466,785.7853l.6088-3.8315h2.2518l-.0787.5038h-1.6954l-.1731,1.0867h1.5115l-.0787.4986h-1.5115l-.1942,1.2387h1.6901l-.0787.5038h-2.2518ZM355.8434,785.7853l.6088-3.8315h1.202c.2379,0,.4391.0464.6036.139.1645.0928.2835.223.357.391s.091.3656.0524.5932c-.0384.2591-.14.4838-.3044.6746-.1645.1905-.3656.3209-.6036.391l.5354,1.6428h-.6194l-.4777-1.5748h-.5406l-.2466,1.5748h-.5668ZM356.7356,783.7068h.6352c.1889,0,.349-.0558.4803-.168.1313-.1119.2107-.2623.2388-.4514.0316-.1925,0-.3454-.0944-.4593-.0945-.1136-.2362-.1706-.4252-.1706h-.6352l-.1995,1.2493ZM360.1316,785.8377c-.385,0-.6736-.0951-.8661-.2859-.1924-.1908-.2641-.4505-.2151-.7794h.5668c-.028.1748.0105.3121.1155.4121.1051.0997.266.1495.483.1495.2029,0,.3701-.049.5012-.1469.1313-.098.2109-.2327.2389-.4044.0209-.1504.0007-.2788-.0604-.3856-.0614-.1068-.1583-.1811-.2913-.2233l-.4566-.1364c-.266-.0803-.4619-.217-.5879-.4095-.126-.1922-.1697-.4197-.1313-.6823.035-.2099.1121-.3935.2309-.551s.2729-.2799.4619-.3673.4024-.1313.6404-.1313c.3498,0,.6158.0954.7978.2859.182.1908.2485.4437.1995.7586h-.5668c.0279-.168-.0027-.3001-.092-.3964-.0891-.0963-.2301-.1444-.4225-.1444-.1889,0-.343.0447-.4619.1338-.119.0894-.1889.2144-.21.3753-.0245.1506-.007.2791.0525.3859s.1575.1811.2939.223l.4672.1469c.2624.0806.4558.2173.5801.4095.1242.1925.1653.4217.1233.6877-.035.217-.1155.4058-.2415.5667-.1259.1612-.2878.2862-.4855.3753-.1976.0894-.419.1338-.6639.1338ZM363.2651,785.8377c-.3568,0-.6228-.1005-.7978-.3019-.175-.201-.2345-.473-.1784-.8161l.2677-1.7006c.056-.3429.2029-.6148.4408-.8161.2379-.201.5355-.3019.8923-.3019s.6228.1.7979.2993c.1748.1993.2361.4707.1837.8136l-.2677,1.7057c-.0561.3431-.2039.6151-.4435.8161-.2398.2013-.5381.3019-.895.3019ZM363.3439,785.3339c.1925,0,.3483-.0524.4672-.1575.119-.1051.1942-.2571.2257-.4568l.2678-1.7006c.0315-.1993.0051-.3517-.0787-.4565-.084-.1051-.2223-.1575-.4148-.1575s-.3473.0524-.4645.1575c-.1173.1048-.1916.2571-.2231.4565l-.2677,1.7006c-.0315.1996-.0053.3517.0787.4568s.2204.1575.4094.1575ZM365.2754,785.7853l.6088-3.8315h.7086l.6194,3.186c.007-.098.0165-.217.0289-.3571.0121-.1398.0271-.2851.0446-.4354.0175-.1506.0367-.2888.0577-.4146l.315-1.9788h.525l-.609,3.8315h-.7085l-.6141-3.186c-.0071.0945-.0167.209-.0289.3437s-.0272.2757-.0446.4226c-.0177.1469-.0367.2833-.0578.4095l-.315,2.0102h-.5301ZM368.2252,785.7853l1.5851-3.8315h.7454l.3726,3.8315h-.5616l-.0735-.9711h-1.0865l-.3884.9711h-.5932ZM369.3852,784.3418h.8714l-.0893-1.1023c-.0175-.1959-.0298-.3654-.0367-.5089-.0071-.1435-.0105-.2432-.0105-.2993-.0175.0561-.0517.1558-.1024.2993s-.1146.3112-.1915.5038l-.441,1.1075ZM371.7208,785.7853l.6088-3.8315h.567l-.525,3.3118h1.6744l-.0787.5197h-2.2465ZM376.6785,785.8377c-.3673,0-.6342-.1005-.8003-.3019-.1663-.201-.2214-.475-.1654-.8213l.4357-2.7608h.567l-.4357,2.7554c-.0315.1962-.008.35.0708.4619.0787.1122.2144.168.4068.168.1925,0,.3473-.0558.4646-.168.1172-.1119.1915-.2657.2231-.4619l.4355-2.7554h.567l-.4357,2.7608c-.056.35-.2003.6245-.433.8241-.2328.1993-.5328.299-.9003.299ZM379.8435,785.8377c-.385,0-.6736-.0951-.8661-.2859-.1924-.1908-.2641-.4505-.2151-.7794h.5668c-.028.1748.0105.3121.1155.4121.1051.0997.266.1495.483.1495.2029,0,.3701-.049.5012-.1469.1313-.098.2109-.2327.2389-.4044.0209-.1504.0007-.2788-.0604-.3856-.0614-.1068-.1583-.1811-.2913-.2233l-.4566-.1364c-.266-.0803-.4619-.217-.5879-.4095-.126-.1922-.1697-.4197-.1313-.6823.035-.2099.1121-.3935.2309-.551s.2729-.2799.4619-.3673.4024-.1313.6404-.1313c.3498,0,.6158.0954.7978.2859.182.1908.2485.4437.1995.7586h-.5668c.0279-.168-.0027-.3001-.092-.3964-.0891-.0963-.2301-.1444-.4225-.1444-.1889,0-.343.0447-.4619.1338-.119.0894-.1889.2144-.21.3753-.0245.1506-.007.2791.0525.3859s.1575.1811.2939.223l.4672.1469c.2624.0806.4558.2173.5801.4095.1242.1925.1653.4217.1233.6877-.035.217-.1155.4058-.2415.5667-.1259.1612-.2878.2862-.4855.3753-.1976.0894-.419.1338-.6639.1338ZM381.9062,785.7853l.6088-3.8315h2.2518l-.0787.5038h-1.6954l-.1731,1.0867h1.5115l-.0787.4986h-1.5115l-.1942,1.2387h1.6901l-.0787.5038h-2.2518ZM386.9426,785.8377c-.3568,0-.6228-.1005-.7978-.3019-.175-.201-.2345-.473-.1784-.8161l.2677-1.7006c.056-.3429.2029-.6148.4408-.8161.2379-.201.5355-.3019.8923-.3019s.6228.1.7979.2993c.1748.1993.2361.4707.1837.8136l-.2677,1.7057c-.0561.3431-.2039.6151-.4435.8161-.2398.2013-.5381.3019-.895.3019ZM387.0213,785.3339c.1925,0,.3483-.0524.4672-.1575.119-.1051.1942-.2571.2257-.4568l.2678-1.7006c.0315-.1993.0051-.3517-.0787-.4565-.084-.1051-.2223-.1575-.4148-.1575s-.3473.0524-.4645.1575c-.1173.1048-.1916.2571-.2231.4565l-.2677,1.7006c-.0315.1996-.0053.3517.0787.4568s.2204.1575.4094.1575ZM388.9529,785.7853l.6088-3.8315h.7086l.6194,3.186c.007-.098.0165-.217.0289-.3571.0121-.1398.0271-.2851.0446-.4354.0175-.1506.0367-.2888.0577-.4146l.315-1.9788h.525l-.609,3.8315h-.7085l-.6141-3.186c-.0071.0945-.0167.209-.0289.3437s-.0272.2757-.0446.4226c-.0177.1469-.0367.2833-.0578.4095l-.315,2.0102h-.5301ZM392.249,785.7853l.6088-3.8315h.567l-.525,3.3118h1.6744l-.0787.5197h-2.2465ZM396.1174,785.7853l.2204-1.4119-.7506-2.4197h.5774l.4462,1.4486c.0279.0945.0498.1837.0656.2677.0157.084.0253.1469.0288.1888.0175-.0419.0464-.1048.0867-.1888.0402-.084.0883-.1731.1442-.2677l.8976-1.4486h.5984l-1.5275,2.4197-.2204,1.4119h-.5668ZM399.217,785.7853l.6088-3.8315h.7086l.6192,3.186c.0071-.098.0165-.217.029-.3571.012-.1398.0271-.2851.0444-.4354.0177-.1506.037-.2888.0578-.4146l.315-1.9788h.5248l-.6088,3.8315h-.7085l-.6141-3.186c-.0071.0945-.0167.209-.0289.3437s-.0272.2757-.0446.4226c-.0177.1469-.0367.2833-.0578.4095l-.315,2.0102h-.5301ZM403.5053,785.8377c-.3571,0-.6231-.1005-.7979-.3019-.1751-.201-.2344-.473-.1785-.8161l.2677-1.7006c.0561-.3429.203-.6148.4411-.8161.2378-.201.5354-.3019.8922-.3019.3571,0,.6228.1.7979.2993.1748.1993.2361.4707.1837.8136l-.2677,1.7057c-.0561.3431-.2039.6151-.4437.8161-.2395.2013-.5379.3019-.8947.3019ZM403.5839,785.3339c.1925,0,.3483-.0524.4673-.1575.1187-.1051.1942-.2571.2255-.4568l.2677-1.7006c.0316-.1993.0054-.3517-.0786-.4565-.084-.1051-.2224-.1575-.4146-.1575-.1925,0-.3474.0524-.4647.1575-.117.1048-.1914.2571-.223.4565l-.2677,1.7006c-.0316.1996-.0051.3517.0789.4568.0837.1051.2204.1575.4092.1575ZM406.3814,785.7853l.5248-3.3121h-1.0234l.084-.5194h2.6193l-.084.5194h-1.0289l-.5248,3.3121h-.567ZM409.5178,785.7853l.6088-3.8315h2.32l-.084.5194h-1.7636l-.1837,1.1445h1.6272l-.084.5248h-1.6166l-.2571,1.6428h-.567ZM413.7694,785.8377c-.3571,0-.6231-.1005-.7979-.3019-.1751-.201-.2344-.473-.1785-.8161l.2677-1.7006c.0561-.3429.203-.6148.4411-.8161.2378-.201.5354-.3019.8922-.3019.3571,0,.6228.1.7979.2993.1748.1993.2361.4707.1837.8136l-.2677,1.7057c-.0561.3431-.2039.6151-.4437.8161-.2395.2013-.5379.3019-.8947.3019ZM413.848,785.3339c.1925,0,.3483-.0524.4673-.1575.1187-.1051.1942-.2571.2255-.4568l.2677-1.7006c.0316-.1993.0054-.3517-.0786-.4565-.084-.1051-.2224-.1575-.4146-.1575-.1925,0-.3474.0524-.4647.1575-.117.1048-.1914.2571-.223.4565l-.2677,1.7006c-.0316.1996-.0051.3517.0789.4568.0837.1051.2204.1575.4092.1575ZM415.7952,785.7853l.6088-3.8315h1.202c.2381,0,.4391.0464.6037.139.1643.0928.2833.223.3568.391s.0911.3656.0527.5932c-.0387.2591-.1401.4838-.3044.6746-.1646.1905-.3659.3209-.6037.391l.5354,1.6428h-.6194l-.4776-1.5748h-.5408l-.2466,1.5748h-.567ZM416.6876,783.7068h.635c.1891,0,.3491-.0558.4804-.168.131-.1119.2107-.2623.2386-.4514.0316-.1925,0-.3454-.0945-.4593-.0943-.1136-.2361-.1706-.4252-.1706h-.635l-.1993,1.2493ZM420.905,785.8377c-.3602,0-.6308-.1005-.8107-.3019-.1803-.201-.2423-.473-.1865-.8161l.2677-1.7006c.0561-.3463.2056-.6194.4488-.8187s.545-.2993.9056-.2993c.3568,0,.6253.1008.8056.3019.1803.2013.2423.4733.1865.8161h-.567c.0313-.1993.0026-.3517-.0866-.4565-.0894-.1051-.2284-.1575-.4175-.1575-.1925,0-.3508.0524-.475.1575-.1242.1048-.2019.2554-.2335.4514l-.2677,1.7057c-.0316.1996-.0026.3517.0866.4568.0894.1051.2301.1575.4226.1575s.35-.0524.4724-.1575.1993-.2571.2309-.4568h.5667c-.0347.2275-.1145.4252-.2386.5932s-.2808.2976-.4699.3884c-.1888.0908-.4024.1364-.6404.1364ZM424.0335,785.8377c-.3571,0-.6231-.1005-.7979-.3019-.1751-.201-.2344-.473-.1785-.8161l.2677-1.7006c.0561-.3429.203-.6148.4411-.8161.2378-.201.5354-.3019.8922-.3019.3571,0,.6228.1.7979.2993.1748.1993.2361.4707.1837.8136l-.2677,1.7057c-.0561.3431-.2039.6151-.4437.8161-.2395.2013-.5379.3019-.8947.3019ZM424.1121,785.3339c.1925,0,.3483-.0524.4673-.1575.1187-.1051.1942-.2571.2255-.4568l.2677-1.7006c.0316-.1993.0054-.3517-.0786-.4565-.084-.1051-.2224-.1575-.4146-.1575-.1925,0-.3474.0524-.4647.1575-.117.1048-.1914.2571-.223.4565l-.2677,1.7006c-.0316.1996-.0051.3517.0789.4568.0837.1051.2204.1575.4092.1575ZM425.9653,785.7853l.6088-3.8315h.6874l.1837,1.2282c.0211.119.0367.2301.0473.3332.0105.1034.0194.1828.0262.2389.0177-.0561.0473-.1364.0894-.2415.0419-.1051.0908-.217.1469-.336l.5667-1.2228h.7088l-.6088,3.8315h-.5354l.2045-1.2911c.0245-.168.0578-.3525.1-.5539.0419-.201.0874-.4041.1364-.6088s.0963-.3998.1418-.5852c.0453-.1854.0874-.3483.1259-.4881l-.8554,1.8632h-.5513l-.2833-1.8632c-.0037.1364-.0105.2947-.0211.475s-.0236.3719-.0393.5747c-.0157.203-.035.4069-.0578.6114-.0228.2047-.0481.3964-.076.5749l-.2047,1.2911h-.5405ZM429.1145,785.7853l.6088-3.8315h.6874l.1837,1.2282c.0211.119.0367.2301.0473.3332.0105.1034.0194.1828.0262.2389.0177-.0561.0473-.1364.0894-.2415.0419-.1051.0908-.217.1469-.336l.5667-1.2228h.7088l-.6088,3.8315h-.5354l.2045-1.2911c.0245-.168.0578-.3525.1-.5539.0419-.201.0874-.4041.1364-.6088s.0963-.3998.1418-.5852c.0453-.1854.0874-.3483.1259-.4881l-.8554,1.8632h-.5513l-.2833-1.8632c-.0037.1364-.0105.2947-.0211.475s-.0236.3719-.0393.5747c-.0157.203-.035.4069-.0578.6114-.0228.2047-.0481.3964-.076.5749l-.2047,1.2911h-.5405ZM432.4107,785.7853l.6088-3.8315h2.2516l-.0786.5038h-1.6955l-.1731,1.0867h1.5115l-.0786.4986h-1.5118l-.1942,1.2387h1.6901l-.0786.5038h-2.2516ZM435.5073,785.7853l.6088-3.8315h1.202c.2381,0,.4391.0464.6037.139.1643.0928.2833.223.3568.391s.0911.3656.0527.5932c-.0387.2591-.1401.4838-.3044.6746-.1646.1905-.3659.3209-.6037.391l.5354,1.6428h-.6194l-.4776-1.5748h-.5408l-.2466,1.5748h-.567ZM436.3997,783.7068h.635c.1891,0,.3491-.0558.4804-.168.131-.1119.2107-.2623.2386-.4514.0316-.1925,0-.3454-.0945-.4593-.0943-.1136-.2361-.1706-.4252-.1706h-.635l-.1993,1.2493ZM439.8007,785.8377c-.3602,0-.6308-.1005-.8107-.3019-.1803-.201-.2423-.473-.1865-.8161l.2677-1.7006c.0561-.3463.2056-.6194.4488-.8187s.545-.2993.9056-.2993c.3568,0,.6253.1008.8056.3019.1803.2013.2423.4733.1865.8161h-.567c.0313-.1993.0026-.3517-.0866-.4565-.0894-.1051-.2284-.1575-.4175-.1575-.1925,0-.3508.0524-.475.1575-.1242.1048-.2019.2554-.2335.4514l-.2677,1.7057c-.0316.1996-.0026.3517.0866.4568.0894.1051.2301.1575.4226.1575s.35-.0524.4724-.1575.1993-.2571.2309-.4568h.5667c-.0347.2275-.1145.4252-.2386.5932s-.2808.2976-.4699.3884c-.1888.0908-.4024.1364-.6404.1364ZM441.8792,785.7853l.0789-.5038h.7768l.4459-2.824h-.7766l.0837-.5038h2.1258l-.084.5038h-.7766l-.4462,2.824h.7768l-.0789.5038h-2.1258ZM444.7399,785.7853l1.585-3.8315h.7452l.3728,3.8315h-.5616l-.0735-.9711h-1.0867l-.3884.9711h-.5929ZM445.8998,784.3418h.8714l-.0894-1.1023c-.0174-.1959-.0296-.3654-.0367-.5089-.0068-.1435-.0103-.2432-.0103-.2993-.0177.0561-.0518.1558-.1025.2993s-.1148.3112-.1916.5038l-.4408,1.1075ZM448.2354,785.7853l.6088-3.8315h.567l-.5248,3.3118h1.6741l-.0786.5197h-2.2465ZM453.1932,785.8377c-.3676,0-.6345-.1005-.8005-.3019-.1663-.201-.2213-.475-.1654-.8213l.4357-2.7608h.567l-.4357,2.7554c-.0316.1962-.008.35.0709.4619.0786.1122.2141.168.4066.168s.3474-.0558.4645-.168c.1173-.1119.1916-.2657.2233-.4619l.4357-2.7554h.5667l-.4357,2.7608c-.0558.35-.2002.6245-.4328.8241-.2329.1993-.5328.299-.9001.299ZM456.3581,785.8377c-.385,0-.6738-.0951-.866-.2859-.1925-.1908-.2643-.4505-.2153-.7794h.567c-.0282.1748.0105.3121.1153.4121.1051.0997.266.1495.483.1495.2028,0,.3699-.049.5012-.1469s.2107-.2327.2389-.4044c.0211-.1504.0009-.2788-.0604-.3856s-.1583-.1811-.2913-.2233l-.4568-.1364c-.266-.0803-.4619-.217-.5878-.4095-.1259-.1922-.1697-.4197-.1313-.6823.035-.2099.1119-.3935.2309-.551s.2731-.2799.4619-.3673c.1891-.0874.4024-.1313.6404-.1313.3497,0,.6157.0954.7979.2859.1817.1908.2483.4437.1993.7586h-.567c.0279-.168-.0026-.3001-.0917-.3964-.0894-.0963-.2301-.1444-.4226-.1444-.1891,0-.3429.0447-.4619.1338-.119.0894-.1891.2144-.2099.3753-.0245.1506-.0071.2791.0524.3859s.1575.1811.2939.223l.4673.1469c.2623.0806.4556.2173.5798.4095.1242.1925.1654.4217.1236.6877-.035.217-.1156.4058-.2415.5667-.1262.1612-.2879.2862-.4855.3753-.1979.0894-.4192.1338-.6641.1338ZM458.4209,785.7853l.6088-3.8315h2.2516l-.0786.5038h-1.6955l-.1731,1.0867h1.5115l-.0786.4986h-1.5118l-.1942,1.2387h1.6901l-.0786.5038h-2.2516Z" style="fill: #ccc;"/>
  <g>
    <path d="M397.675,734.7059s-137.7493-73.3911-211.1404-204.3656c-73.3914-130.9751-88.0694-230.3354-88.0694-259.6915s-1.1293-37.2602-1.1293-37.2602l601.807,1.1287s7.9035,107.2639-39.5183,205.4955c-47.4218,98.231-117.4255,219.0439-261.9496,294.6931Z" style="fill: #e6231b;"/>
    <path d="M377.8265,626.6899s11.4917-17.6595,10.735-83.1006c-.6923-59.9013-13.7649-91.108-27.3563-119.1108-11.4256-23.5475-18.3501-35.6655-18.0036-64.7505.3993-33.5838,27.1555-56.3125,41.203-69.2498,13.159-12.1214,15.5604-19.3918,15.5604-19.3918h.0441s2.4014,7.2704,15.5616,19.3918c14.0475,12.9373,40.8037,35.666,41.203,69.2498.3465,29.0851-6.5781,41.203-18.0036,64.7505-13.5914,28.0028-26.6639,59.2095-27.3563,119.1108-.7568,65.4411,10.735,83.1006,10.735,83.1006l-22.1617,49.1709-22.1606-49.1709Z" style="fill: #fff;"/>
    <path d="M390.8561,549.7199c0-2.0033-.0122-4.0554-.0366-6.1573-.6912-59.8276-13.4416-90.9351-27.5832-120.0695l-2.1675-4.4506c-9.6811-19.8305-15.6214-31.9995-15.6214-57.2944,0-.6552.0046-1.3203.0122-1.994.3674-30.9328,24.1012-52.6373,38.2822-65.6054l2.1925-2.0097c7.824-7.2071,11.9212-12.7458,14.0527-16.233,2.1316,3.4872,6.2287,9.0259,14.0533,16.233.0006,0,2.1931,2.0097,2.1931,2.0097,14.181,12.9681,37.9148,34.6725,38.2822,65.6054.0075.6738.0122,1.3388.0122,1.994,0,25.2949-5.9403,37.4639-15.6214,57.2944l-2.1687,4.4506c-14.1404,29.1344-26.8908,60.2419-27.582,120.0695-.0244,2.102-.0366,4.154-.0366,6.1573,0,52.7104,8.1299,72.4353,10.5057,77.0739-.8061,1.7909-16.3276,36.2278-19.6378,43.5713-3.3091-7.3435-18.8306-41.7816-19.6367-43.5713,2.3759-4.6386,10.5057-24.3635,10.5057-77.0739ZM397.8259,270.361c-.0232.0691-2.5407,7.0249-14.9517,18.4569l-2.1797,1.9981c-14.7213,13.462-39.3598,35.9928-39.751,68.8854-.3296,27.7346,5.8416,40.3772,16.0665,61.3231l2.1635,4.4401c13.9082,28.6562,26.4498,59.2554,27.1299,118.1515.7341,63.5336-10.2667,81.6794-10.3781,81.8546-.4057.6418-.4695,1.4555-.1573,2.1478l22.1606,49.1709c.365.809,1.1711,1.3295,2.0584,1.3295.8879,0,1.6934-.5206,2.0584-1.3295l22.1617-49.1709c.3122-.6923.2484-1.506-.1573-2.1478-.1114-.1753-11.1122-18.3211-10.3781-81.8546.6801-58.8961,13.2217-89.4953,27.1294-118.1515l2.1629-4.4401c10.226-20.9459,16.3973-33.5884,16.0676-61.3231-.3911-32.8926-25.0297-55.4234-39.751-68.8854l-2.1809-1.9981c-12.411-11.432-14.9285-18.3878-14.9528-18.4569-.3151-.9076-1.1984-1.5164-2.16-1.5164s-1.8449.6088-2.1612,1.5164" style="fill: #231815;"/>
    <rect x="99.5943" y="59.5082" width="601.8067" height="177.2679" style="fill: #1a9bd3;"/>
    <path d="M689.4044,224.3558H110.5864s.0023-139.2323.0023-151.7739h578.8227c0,12.5149-.007,151.7739-.007,151.7739ZM689.4113,264.7393c-.4811,63.0037-12.5282,145.405-98.2136,278.279-70.4407,109.233-168.912,169.0837-191.1938,181.6955-22.2842-12.6118-120.7601-72.4626-191.2019-181.6955-85.6842-132.8739-97.7305-215.2752-98.2133-278.3567l-.0023-19.982h578.818l.007,20.0597M699.5729,52.2584H90.2649v212.4809c.5049,66.0777,12.9547,152.0498,101.4574,289.2919,82.5319,127.9846,198.7236,188.7901,203.6292,191.3151l4.6525,2.395,4.6508-2.395c4.9067-2.5273,121.0909-63.3304,203.6251-191.3151,88.5035-137.2421,100.9499-223.2153,101.4548-289.2147V52.2584h-10.1616" style="fill: #a59458;"/>
    <path d="M699.5729,54.5164h7.9035v210.3001c-.5026,65.6599-12.906,151.2368-101.0944,287.9908-82.1912,127.4519-197.8769,188.0159-202.7616,190.5311,0,0-2.3666,1.2187-3.6166,1.8623-1.2506-.6424-3.6189-1.8623-3.6189-1.8623-4.8823-2.5128-120.5419-63.0252-202.765-190.5311-88.1907-136.7593-100.5953-222.3733-101.097-288.0854V54.5164h607.05ZM699.5729,50H90.2649c-1.2471,0-2.2581,1.0112-2.2581,2.2584v212.4809c.5072,66.3778,13.0009,152.7863,101.8178,290.5158,82.8702,128.5093,199.5663,189.5631,204.4938,192.0991l4.6519,2.395c.6482.3343,1.4183.3343,2.0677,0l4.6508-2.395c4.9276-2.5384,121.6509-63.6438,204.488-192.0991,88.8151-137.7243,101.3091-224.0963,101.8163-290.4207V52.2584c0-1.2471-1.0115-2.2584-2.2587-2.2584h-10.1616" style="fill: #231815;"/>
    <path d="M687.1475,246.9376c.0012,3.5528.0052,17.7576.0052,17.7866-.4782,62.7165-12.4795,144.6796-97.8526,277.0701-69.6555,108.016-167.8006,168.0229-189.2961,180.3108-21.4972-12.2868-119.6458-72.2908-189.3042-180.3108-85.3712-132.3888-97.3721-214.3931-97.8529-277.1508,0,0-.0012-14.1531-.0023-17.7059h574.303ZM110.5864,242.4215c-.5986,0-1.1731.2379-1.5965.6616-.4236.4231-.6616.9976-.6616,1.5965l.002,19.982c.4852,63.4233,12.5767,146.2216,98.574,279.5807,71.3118,110.5828,172.4392,171.3737,191.9865,182.4366.6906.3917,1.535.3917,2.2256,0,19.5473-11.0634,120.6707-71.8584,191.979-182.4366,86.0005-133.3632,98.09-216.1202,98.574-279.4849,0-.007-.007-20.0789-.007-20.0789,0-1.246-1.0109-2.2569-2.2581-2.2569H110.5864" style="fill: #231815;"/>
    <path d="M687.1527,74.8402c0,4.3168-.0064,142.9404-.0064,147.2575H112.8444c0-4.3171.0023-142.9407.0023-147.2575h574.3059ZM110.5887,70.3238c-1.2471,0-2.2584,1.0112-2.2584,2.2581l-.002,151.7739c0,.5989.2379,1.1734.6616,1.5965.4234.4236.9979.6616,1.5965.6616h578.818c1.2471,0,2.2581-1.0109,2.2581-2.2581l.007-151.7739c0-.5986-.2385-1.1731-.6616-1.5965-.4236-.4234-.9982-.6616-1.5965-.6616H110.5887" style="fill: #231815;"/>
    <path d="M281.6551,528.6156c4.5869,5.1052,13.7144,7.7341,19.2165,1.6429,6.4922-7.1845,2.5094-18.0036-4.8493-29.4315-6.7922-10.5499-6.3645-25.3738-1.9894-31.6809,4.5011-6.4922,19.7371-9.0038,35.3173,2.4217,15.8053,11.591,38.4354,31.8573,38.7818,85.5287.2362,36.5255-10.3734,49.623-24.0658,49.3381-8.3098-.1718-13.3291-9.5198-13.3291-9.5198,0,0-7.2727,5.1934-6.5804,13.8467.6923,8.658,8.6533,16.8482,23.5458,16.6213,11.4256-.1724,25.2172-6.6843,30.4697-34.799,2.3045-11.2468,3.8859-27.3278,3.6369-48.915-.5977-51.6008-10.6955-81.0874-25.8526-105.9935-18.9873-31.2027-46.3436-43.6688-78.5444-43.6688-21.8147,0-44.443,13.5159-46.0528,40.8588-1.3824,23.5458,12.2305,37.1807,31.5109,53.3232,14.8902,12.4644,30.2962,25.1887,31.855,29.0856,1.5373,3.8412-2.3242,5.696-4.8469,4.5005-3.2905-1.5564-3.9451-7.6122-7.2727-7.9627-3.2882-.3465-4.9444,2.0904-5.1934,4.5005-.2606,2.5123,1.1287,6.8363,4.2428,10.3032Z" style="fill: #fff;"/>
    <path d="M295.6829,522.8001c1.6772-1.5768,2.1037-3.9561,1.1386-6.3651-1.5977-3.9938-12.3953-13.1613-29.8824-27.7863l-2.6185-2.1913c-18.8242-15.7595-32.0448-28.6759-30.7071-51.4598,1.5669-26.6117,23.8023-38.7331,43.7988-38.7331,34.1171,0,59.1782,13.9297,76.6148,42.5847,12.2549,20.1352,24.8701,48.3393,25.5236,104.8456.2217,19.144-1.0208,35.8929-3.5899,48.4357-4.0519,21.6841-13.5687,32.7719-28.2923,32.9936-13.8664.2118-20.6691-7.1514-21.261-14.5425-.0261-.3337-.0383-.6616-.0383-.9825,0-4.2904,2.2592-7.4689,3.9329-9.2453,2.2656,3.1135,6.9599,8.1989,13.7179,8.3394,5.6936.1178,10.6148-1.8275,14.6261-5.7824,7.9389-7.8252,11.8898-23.2446,11.7442-45.8288-.3772-58.4945-27.936-78.7046-39.7046-87.3347-8.9017-6.5287-18.9298-9.4484-27.5118-8.0121-4.9253.8252-8.8309,3.0003-10.9961,6.1242-4.9224,7.0957-5.3338,22.8819,1.9459,34.1902,8.2883,12.87,9.8993,21.3527,5.0721,26.6947-1.6696,1.8484-3.8076,2.7844-6.3535,2.781-3.3671-.0046-7.0998-1.7387-9.5076-4.4192-2.6225-2.9196-3.695-6.3697-3.695-8.178,0-.137.0064-.2646.0186-.383.0905-.8763.4573-1.6539.9802-2.077.4358-.3528,1.0011-.4875,1.7311-.4103.6111.0638,1.4421,1.5437,2.1107,2.7322,1.0516,1.8698,2.2436,3.9904,4.4326,5.0257,2.2273,1.0556,5.0112.6384,6.7702-1.0156ZM229.1061,434.733c-1.459,24.8382,13.1132,39.1103,32.3146,55.1867l2.6208,2.1931c12.1765,10.1842,27.3313,22.8599,28.5883,26,.3946.9883.0679,1.2947-.04,1.3974-.4033.3778-1.2019.4805-1.7445.2234-.8896-.4196-1.6714-1.8112-2.4275-3.1576-1.1781-2.0938-2.6446-4.7018-5.5752-5.0106-1.9284-.2025-3.6741.2791-5.0489,1.3951-1.4555,1.1798-2.4136,3.0462-2.6277,5.1191-.3656,3.5319,1.6122,8.485,4.8086,12.0454h.0012c3.2725,3.6433,8.2012,5.9101,12.8602,5.9165,3.8261.0046,7.1833-1.4717,9.7119-4.2689,8.4195-9.3184,1.3916-22.8215-4.6264-32.1684-6.5432-10.1628-5.5741-24.0646-2.0323-29.171,1.4444-2.084,4.3716-3.63,8.0318-4.2434,7.3865-1.2367,16.1686,1.3876,24.0942,7.1996,18.5422,13.5972,37.5393,34.1769,37.8591,83.7216.1358,21.019-3.4599,35.7438-10.3978,42.5836-3.1106,3.0665-6.9332,4.5748-11.3629,4.4819-6.8659-.141-11.3437-8.2517-11.389-8.3347-.3087-.5687-.8467-.9802-1.4775-1.1258s-1.2953-.0151-1.8217.3604c-.3395.2426-8.3045,6.0505-7.5188,15.8651.7347,9.1849,9.1309,18.9542,25.8306,18.6995,11.8069-.1776,27.0574-6.6796,32.6553-36.6427,2.6266-12.8149,3.8998-29.8946,3.6752-49.3561-.5304-45.8155-8.3614-77.8579-26.1822-107.1414-18.0698-29.695-45.1446-44.7523-80.4729-44.7523-22.0474,0-46.5687,13.4509-48.3062,42.9846" style="fill: #231815;"/>
    <path d="M397.729,333.4135v325.4803c0,1.2471,1.0109,2.2581,2.2581,2.2581s2.2581-1.0109,2.2581-2.2581v-325.4803c0-1.2471-1.0109-2.2581-2.2581-2.2581s-2.2581,1.0109-2.2581,2.2581Z" style="fill: #231815;"/>
    <path d="M518.3202,528.6156c-4.5869,5.1052-13.7144,7.7341-19.2165,1.6429-6.4922-7.1845-2.5094-18.0036,4.8493-29.4315,6.7922-10.5499,6.3645-25.3738,1.9894-31.6809-4.5011-6.4922-19.7371-9.0038-35.3173,2.4217-15.8053,11.591-38.4354,31.8573-38.7818,85.5287-.2362,36.5255,10.3734,49.623,24.0658,49.3381,8.3098-.1718,13.3291-9.5198,13.3291-9.5198,0,0,7.2727,5.1934,6.5804,13.8467-.6923,8.658-8.6533,16.8482-23.5458,16.6213-11.4256-.1724-25.2172-6.6843-30.4697-34.799-2.3045-11.2468-3.8859-27.3278-3.6369-48.915.5977-51.6008,10.6955-81.0874,25.8526-105.9935,18.9873-31.2027,46.3412-43.6688,78.5444-43.6688,21.8147,0,44.443,13.5159,46.0528,40.8588,1.3824,23.5458-12.2305,37.1807-31.5109,53.3232-14.8902,12.4644-30.2962,25.1887-31.855,29.0856-1.5373,3.8412,2.3242,5.696,4.8469,4.5005,3.2905-1.5564,3.9451-7.6122,7.271-7.9627,3.2899-.3465,4.9462,2.0904,5.1951,4.5005.2582,2.5123-1.1287,6.8363-4.2428,10.3032Z" style="fill: #fff;"/>
    <path d="M452.3069,625.1242c-14.7236-.2217-24.2405-11.3095-28.2848-32.9553-2.5778-12.581-3.8192-29.33-3.5975-48.474.6535-56.5063,13.2687-84.7105,25.5236-104.8456,17.4366-28.655,42.4977-42.5847,76.6148-42.5847,19.9965,0,42.2319,12.1214,43.7988,38.7331,1.3377,22.7838-11.8829,35.7003-30.7071,51.4598l-2.6185,2.1913c-17.4871,14.6249-28.2848,23.7924-29.8824,27.7863-.9651,2.409-.5385,4.7883,1.1386,6.3651,1.759,1.6539,4.5428,2.0712,6.7713,1.0156,2.1879-1.0353,3.3799-3.1558,4.4314-5.0268.6685-1.1885,1.4984-2.6672,2.1095-2.731.7301-.0772,1.2965.0575,1.7323.4103.5229.4242.8896,1.2007.9802,2.077.0122.1161.0174.2437.0174.3795,0,1.8083-1.0713,5.263-3.6944,8.1815-2.4072,2.6806-6.1399,4.4146-9.507,4.4192-2.5459.0035-4.6839-.9326-6.3535-2.781-4.8272-5.342-3.2162-13.8247,5.0721-26.6947,7.2797-11.3072,6.8682-27.0945,1.9459-34.1902-2.1652-3.1239-6.0709-5.299-10.9961-6.1242-8.5819-1.4363-18.6101,1.4833-27.5118,8.0109-11.7685,8.6313-39.3273,28.8413-39.7046,87.3359-.1457,22.5842,3.8052,38.0036,11.7442,45.8288,4.0113,3.955,8.9325,5.9002,14.6273,5.7824,6.7568-.1404,11.4511-5.2265,13.7167-8.3394,1.6737,1.7764,3.9329,4.9549,3.9329,9.2453,0,.3209-.0122.6488-.0395.9825-.5908,7.3911-7.3934,14.7544-21.2599,14.5425ZM442.089,436.5007c-17.8208,29.2835-25.6507,61.326-26.1811,107.1414-.2246,19.4614,1.0487,36.5412,3.6828,49.3944,5.5903,29.9248,20.8409,36.4268,32.6477,36.6044,16.6996.2548,25.0959-9.5145,25.8306-18.6995.7858-9.8146-7.1793-15.6225-7.5188-15.8651-.5275-.3755-1.1908-.506-1.8217-.3604s-1.1688.5571-1.4775,1.1258c-.0453.083-4.5231,8.1937-11.3879,8.3347-4.4308.0929-8.2535-1.4154-11.3641-4.4819-6.9379-6.8398-10.5336-21.5645-10.3978-42.5836.3198-49.5447,19.3169-70.1244,37.8591-83.7216,7.9256-5.812,16.7078-8.4363,24.0942-7.1996,3.6602.6134,6.5873,2.1594,8.0318,4.2434,3.5418,5.1063,4.5109,19.0082-2.0323,29.171-6.018,9.3468-13.0459,22.85-4.6264,32.1684,2.5285,2.7972,5.8857,4.2736,9.7119,4.2689,4.6589-.0064,9.5877-2.2732,12.8602-5.9165h.0012c3.1941-3.5569,5.1713-8.5088,4.8086-12.043-.2141-2.0753-1.1723-3.9405-2.6277-5.1214-1.3748-1.116-3.1216-1.5977-5.05-1.3951-2.9307.3099-4.396,2.9156-5.5741,5.0106-.7562,1.3452-1.5379,2.7368-2.4264,3.1576-.5438.2571-1.3435.1544-1.7456-.2234-.1068-.1016-.4347-.4091-.04-1.3974,1.257-3.1402,16.4118-15.8158,28.5883-26l2.6208-2.1931c19.2014-16.0764,33.7736-30.3485,32.3146-55.1867-1.7375-29.5337-26.2589-42.9846-48.3062-42.9846-35.3283,0-62.4031,15.0573-80.474,44.7523" style="fill: #231815;"/>
    <path d="M369.5092,531.4714h60.9581c7.0654,0,12.8015,5.7362,12.8015,12.8015v11.0988c0,7.0654-5.7362,12.8015-12.8015,12.8015h-60.9592c-7.0654,0-12.8015-5.7362-12.8015-12.8015v-11.0977c0-7.066,5.7367-12.8027,12.8027-12.8027Z" style="fill: #fff;"/>
    <path d="M358.9646,555.3718v-11.0988c0-5.8132,4.7303-10.5435,10.5446-10.5435h60.9581c5.8132,0,10.5435,4.7303,10.5435,10.5435v11.0988c0,5.8143-4.7303,10.5435-10.5435,10.5435h-60.9581c-5.8143,0-10.5446-4.7291-10.5446-10.5435ZM369.5092,529.2133c-8.3051,0-15.0608,6.7556-15.0608,15.0596v11.0988c0,8.304,6.7556,15.0602,15.0608,15.0602h60.9581c8.304,0,15.0596-6.7562,15.0596-15.0602v-11.0988c0-8.304-6.7556-15.0596-15.0596-15.0596h-60.9581" style="fill: #231815;"/>
    <path d="M361.3666,559.1805c-10.562,0-19.2038-4.212-19.2038-9.359s8.6417-9.359,19.2038-9.359h77.2422c10.5615,0,19.2038,4.212,19.2038,9.359s-8.6423,9.359-19.2038,9.359h-77.2422Z" style="fill: #fff;"/>
    <path d="M344.4209,549.8215c0-3.352,7.2466-7.1009,16.9457-7.1009h77.2422c9.6991,0,16.9457,3.7489,16.9457,7.1009s-7.2466,7.1009-16.9457,7.1009h-77.2422c-9.6991,0-16.9457-3.7489-16.9457-7.1009ZM361.3666,538.2038c-12.0343,0-21.4618,5.1034-21.4618,11.6177s9.4275,11.6171,21.4618,11.6171h77.2422c12.0343,0,21.4618-5.1029,21.4618-11.6171s-9.4275-11.6177-21.4618-11.6177h-77.2422" style="fill: #231815;"/>
    <path d="M171.2342,94.1714h-10.8319c-1.4137,0-2.5604,1.1467-2.5604,2.5604v103.8768c0,1.4131,1.1467,2.5598,2.5604,2.5598h64.4296c1.4137,0,2.5604-1.1467,2.5604-2.5598v-18.3478c0-1.4137-1.1467-2.5604-2.5604-2.5604h-40.1346v-82.9686c0-1.4137-1.1467-2.5604-2.5604-2.5604h-10.9027Z" style="fill: #fff;"/>
    <path d="M160.1,200.6086v-103.8768c0-.1666.1358-.3021.3024-.3021h21.7346c.1666,0,.3024.1355.3024.3021v82.9686c0,1.2471,1.0109,2.2581,2.2581,2.2581h40.1346c.1666,0,.3024.1358.3024.3024v18.3478c0,.1666-.1358.3018-.3024.3018h-64.4296c-.1666,0-.3024-.1352-.3024-.3018ZM171.2342,91.9133h-10.8319c-2.6573,0-4.8185,2.1612-4.8185,4.8185v103.8768c0,2.6573,2.1612,4.8185,4.8185,4.8185h64.4296c2.6573,0,4.8185-2.1612,4.8185-4.8185v-18.3478c0-2.6573-2.1612-4.8185-4.8185-4.8185h-37.8765v-80.7105c0-2.6573-2.1612-4.8185-4.8185-4.8185h-10.9027" style="fill: #231815;"/>
    <path d="M300.1277,173.9841c-4.5608-5.859-6.874-14.2338-6.874-24.8904,0-10.8928,2.33-19.4748,6.9257-25.5073,4.4953-5.9002,10.5684-8.7691,18.5648-8.7691,8.0417,0,14.1357,2.8689,18.631,8.7691,4.598,6.036,6.9303,14.6174,6.9303,25.5073,0,10.6491-2.3254,19.0215-6.91,24.8864-4.4958,5.7476-10.5963,8.5431-18.6513,8.5431s-14.1433-2.7931-18.6165-8.539ZM280.5258,107.1418c-9.3747,10.4022-14.1276,24.5646-14.1276,42.0929,0,17.2144,4.7587,31.1116,14.1467,41.3057,9.4403,10.2521,22.2929,15.4508,38.1992,15.4508,15.9992,0,28.8878-5.1986,38.3077-15.4531,9.3625-10.197,14.109-24.0936,14.109-41.3034,0-17.5243-4.7402-31.6852-14.0905-42.0897-9.424-10.4817-22.3184-15.7963-38.3263-15.7963-15.9144,0-28.7729,5.3138-38.2183,15.7931" style="fill: #fff;"/>
    <path d="M318.7441,93.607c15.3399,0,27.6696,5.0631,36.6474,15.0474,8.965,9.9768,13.5113,23.6294,13.5113,40.5803,0,16.6265-4.5469,30.009-13.5148,39.7759-8.9731,9.7693-21.3028,14.7224-36.6439,14.7224-15.2494,0-27.5425-4.9531-36.5377-14.7224-8.9922-9.7635-13.5502-23.1448-13.5502-39.7759,0-16.9532,4.5579-30.607,13.5467-40.5812,8.9998-9.9843,21.293-15.0466,36.5412-15.0466ZM278.8486,105.63h0c-9.76,10.8302-14.7091,25.5007-14.7091,43.6047,0,17.7999,4.9607,32.2119,14.7445,42.8349,9.8854,10.7361,23.2963,16.1802,39.8601,16.1802,16.6573,0,30.1065-5.4453,39.9704-16.1837,9.7571-10.6282,14.705-25.0384,14.705-42.8314,0-18.1-4.9357-32.7681-14.6696-43.5992-9.8709-10.979-23.3305-16.545-40.0058-16.545-16.5812,0-30.0037,5.5651-39.8955,16.5395" style="fill: #231815;"/>
    <path d="M295.5117,149.0937h0c0-10.3879,2.1745-18.5091,6.4637-24.1389,4.0403-5.3016,9.5244-7.8795,16.7687-7.8795,7.2884,0,12.7952,2.5778,16.8348,7.8795,4.2916,5.6344,6.4684,13.755,6.4684,24.1389,0,10.132-2.1635,18.0367-6.4318,23.4959-4.0391,5.1644-9.5575,7.6755-16.8714,7.6755s-12.8178-2.5088-16.8348-7.6679c-4.2451-5.4545-6.3976-13.3616-6.3976-23.5034ZM298.3832,122.2179c-4.9026,6.4338-7.3876,15.4763-7.3876,26.8757,0,11.1708,2.4728,20.0116,7.3499,26.2774,4.9299,6.3326,11.602,9.4101,20.3987,9.4101s15.4774-3.0787,20.4294-9.4101c4.9038-6.2728,7.3899-15.1136,7.3899-26.2774,0-11.3948-2.4873-20.4375-7.3917-26.8757-4.952-6.5-11.6339-9.659-20.4277-9.659-8.7491,0-15.409,3.159-20.3609,9.659" style="fill: #231815;"/>
    <path d="M413.875,100.7906c-7.8722,6.3929-11.8626,15.1324-11.8626,25.9768,0,9.7969,3.1164,17.159,9.2609,21.8817,5.9026,4.5602,17.0269,8.6214,34.0063,12.4121,10.6845,2.3753,14.9308,4.2289,16.6114,5.3657,2.1049,1.387,3.0729,3.4553,3.0729,6.5276,0,3.056-1.4485,5.3158-4.5591,7.1108-3.4791,2.0045-8.5135,3.0224-14.9639,3.0224-6.1266,0-10.9027-1.3168-14.1955-3.9132-3.1918-2.5134-4.8405-6.0639-5.0431-10.8534-.0575-1.3707-1.1868-2.4525-2.5581-2.4525h-20.8885c-.6993,0-1.3684.2855-1.8513.7916-.484.5066-.7388,1.1879-.7068,1.8867.549,11.902,4.858,21.2413,12.8079,27.7613,7.831,6.4249,18.7436,9.6828,32.4353,9.6828,13.5995,0,24.5997-3.0583,32.6942-9.0897,8.3289-6.209,12.5508-14.7091,12.5508-25.2659,0-10.4349-2.8657-18.1963-8.5187-23.0699-5.4545-4.746-15.7369-8.7671-31.425-12.2868-10.1465-2.2563-16.7994-4.2033-19.7789-5.7865-3.1483-1.6519-3.511-3.6288-3.511-4.9732,0-3.5537,1.1978-6.2243,3.6596-8.1638,2.6144-2.0584,6.4098-3.1027,11.2811-3.1027,5.7383,0,10.4048,1.2933,13.8711,3.8427,3.3357,2.4522,5.1121,5.6841,5.4296,9.8807.1016,1.3353,1.2152,2.366,2.5535,2.366h21.1705c.7132,0,1.394-.2977,1.8791-.82.484-.524.7289-1.2251.6738-1.9363-.849-11.0385-5.23-19.9489-13.0192-26.482-7.7161-6.4736-17.7953-9.7551-29.9561-9.7551-12.935,0-23.4054,3.1767-31.1203,9.442Z" style="fill: #fff;"/>
    <path d="M444.9953,93.607c11.6165,0,21.2071,3.1039,28.5053,9.2267,7.307,6.1286,11.4174,14.515,12.2183,24.925-.1358.289-.217.3253-.3012.3253h-21.1705c-.1579,0-.2902-.1225-.3018-.2788-.365-4.824-2.5001-8.7032-6.3436-11.5292-3.8638-2.8416-8.9801-4.2814-15.2088-4.2814-5.3895,0-9.6556,1.2062-12.6779,3.5867-3.0003,2.3628-4.5208,5.7061-4.5208,9.9379,0,2.9838,1.5878,5.3289,4.7193,6.973,3.1953,1.6969,9.8511,3.6596,20.3377,5.9908,15.3103,3.4344,25.2659,7.2907,30.4338,11.786,5.1406,4.4314,7.7428,11.6182,7.7428,21.3667,0,9.8047-3.9178,17.6961-11.6426,23.4553-7.6964,5.7348-18.2422,8.6423-31.3443,8.6423-13.1555,0-23.5853-3.085-31.0031-9.1704-7.4335-6.0975-11.4662-14.8844-11.9844-26.119.1416-.2826.2194-.3169.3024-.3169h20.8885c.1619,0,.2954.1271.3018.289.2327,5.4899,2.1635,9.5888,5.9026,12.5328,3.699,2.9173,8.9458,4.3972,15.5924,4.3972,6.8497,0,12.2636-1.1183,16.0914-3.3247,3.8284-2.2093,5.6896-5.1742,5.6896-9.0665,0-3.8482-1.3371-6.6007-4.0884-8.4131-2.6573-1.7984-8.5065-3.7159-17.3641-5.6844-16.6462-3.717-27.4799-7.6401-33.1155-11.9955-5.5636-4.2759-8.3829-11.035-8.3829-20.0943,0-10.1309,3.7101-18.2805,11.0269-24.2236,7.3029-5.9301,17.2939-8.9368,29.6973-8.9368ZM412.4515,99.0375h0c-8.4253,6.843-12.6971,16.1721-12.6971,27.73,0,10.5356,3.4129,18.5001,10.143,23.6726,6.1672,4.7639,17.5817,8.9609,34.8907,12.8253,10.8853,2.4194,14.5942,4.1912,15.8373,5.0315,1.0405.686,2.0805,1.7619,2.0805,4.6577,0,2.2262-1.0254,3.7675-3.4303,5.1545-3.1315,1.8048-7.7869,2.72-13.8345,2.72-5.6072,0-9.9126-1.1531-12.7975-3.428-2.6806-2.1101-4.0089-5.0257-4.1854-9.1756-.1079-2.5871-2.2227-4.6148-4.8139-4.6148h-20.8885c-1.311,0-2.5813.5438-3.4855,1.4909-.903.9448-1.3882,2.2395-1.3284,3.5493.5798,12.5677,5.1667,22.4606,13.6314,29.4037,8.2454,6.7649,19.6402,10.1953,33.8676,10.1953,14.0957,0,25.5503-3.2087,34.0434-9.5378,8.9313-6.6581,13.4602-15.7676,13.4602-27.0765,0-11.1221-3.1309-19.4591-9.3033-24.7802-5.7389-4.9938-16.341-9.1762-32.4051-12.7795-12.3901-2.7554-17.2869-4.5539-19.213-5.5773-2.3126-1.2141-2.3126-2.362-2.3126-2.9794,0-2.8558.8902-4.8855,2.7989-6.3897,2.2058-1.7375,5.5317-2.6187,9.8836-2.6187,5.245,0,9.4617,1.1459,12.5334,3.4039,2.8117,2.0674,4.2463,4.683,4.5156,8.2323.1898,2.4975,2.2999,4.4532,4.8051,4.4532h21.1705c1.3365,0,2.6243-.5623,3.5342-1.5425.9117-.9854,1.3736-2.3141,1.2698-3.6462-.8972-11.6658-5.5468-21.0988-13.8189-28.0376-8.1334-6.8233-18.6995-10.2832-31.4076-10.2832-13.4666,0-24.4163,3.3465-32.5438,9.9469" style="fill: #231815;"/>
    <path d="M533.818,107.1847c-8.9632,10.3946-13.5084,24.5425-13.5084,42.05,0,17.1935,4.5504,31.0762,13.527,41.2639,9.0572,10.2806,21.4055,15.4925,36.7019,15.4925,13.0563,0,23.9956-3.7809,32.5125-11.2364,8.5355-7.4729,13.5647-17.6601,14.9493-30.2806.0795-.7237-.152-1.4456-.6384-1.9882-.4852-.5414-1.1787-.8513-1.9064-.8513h-21.7352c-1.3023,0-2.3974.9773-2.5436,2.2703-.643,5.6414-2.7392,9.9649-6.4098,13.2153-3.6764,3.2551-8.2709,4.8382-14.0475,4.8382-7.318,0-12.8567-2.7299-16.9329-8.3469-4.2068-5.7923-6.339-14.0411-6.339-24.5179,0-10.7698,2.149-19.238,6.386-25.1687,4.1064-5.7493,9.6294-8.5434,16.8859-8.5434,5.7499,0,10.5133,1.4578,14.1601,4.3333,3.612,2.8483,5.6727,6.6091,6.3012,11.4981.1642,1.2767,1.2518,2.2343,2.5395,2.2343h21.7352c.7341,0,1.4323-.3157,1.9186-.8659.4863-.549.7121-1.2825.6215-2.0103-1.4886-11.983-6.5966-21.6301-15.1844-28.6736-8.5332-6.9994-19.3918-10.549-32.2728-10.549-15.3045,0-27.6592,5.328-36.7205,15.8361Z" style="fill: #fff;"/>
    <path d="M570.5385,93.607c12.3454,0,22.7223,3.3772,30.8406,10.036,8.1246,6.6645,12.9617,15.8172,14.3766,27.2062-.1317.3024-.2141.3395-.3.3395h-21.7352c-.1509,0-.2803-.1132-.3-.2635-.708-5.5042-3.0444-9.7513-7.1427-12.9832-4.0542-3.1976-9.2888-4.8185-15.5581-4.8185-8.0382,0-14.1636,3.1039-18.7238,9.4893-4.5161,6.3213-6.8067,15.2317-6.8067,26.4808,0,10.963,2.2784,19.6599,6.7702,25.8445,4.5307,6.2432,10.6682,9.2783,18.7604,9.2783,6.3512,0,11.4366-1.7683,15.5448-5.4058,4.1064-3.6369,6.4469-8.4287,7.1561-14.6499.018-.1532.1468-.2681.3-.2681h21.7352c.282.1648.3099.2495.3.3354-1.3214,12.0407-6.097,21.7392-14.192,28.8274-8.0933,7.0853-18.5323,10.6775-31.0251,10.6775-14.6197,0-26.3981-4.9549-35.0074-14.7277-8.6028-9.7618-12.9635-23.1431-12.9635-39.7707,0-16.9509,4.3606-30.6023,12.9606-40.5756,8.6121-9.9878,20.3917-15.0521,35.0103-15.0521ZM532.1077,105.7104h0c-9.3271,10.8159-14.0562,25.4597-14.0562,43.5243,0,17.7599,4.7413,32.1452,14.0905,42.7565,9.5047,10.7884,22.4229,16.2586,38.3965,16.2586,13.6198,0,25.0587-3.9683,33.9999-11.7964,8.9731-7.856,14.2582-18.5329,15.7067-31.7337.1491-1.3591-.2884-2.7223-1.2019-3.7408-.9117-1.0179-2.2203-1.6023-3.5876-1.6023h-21.7352c-2.4536,0-4.5109,1.8368-4.7877,4.2736-.5768,5.0622-2.4293,8.9162-5.6629,11.7796-3.2452,2.8738-7.3505,4.2707-12.5503,4.2707-6.6344,0-11.4343-2.3561-15.106-7.4155-3.9201-5.3982-5.9078-13.2002-5.9078-23.1912,0-10.2887,2.0068-18.3147,5.9652-23.8557,3.7025-5.1844,8.4845-7.598,15.0486-7.598,5.23,0,9.5232,1.2944,12.7621,3.8482,3.1245,2.4644,4.9096,5.7392,5.4598,10.0128.3076,2.3974,2.3631,4.2045,4.779,4.2045h21.7352c1.3806,0,2.6956-.5931,3.6108-1.6284.9129-1.0324,1.3411-2.4119,1.1699-3.7843-1.5623-12.5767-6.9431-22.7177-15.9922-30.1404-8.9481-7.3403-20.2884-11.0617-33.7057-11.0617-15.991,0-28.9208,5.5915-38.4307,16.6198" style="fill: #231815;"/>
    <path d="M261.9552,189.4122c0,6.1585-4.9914,11.1499-11.1493,11.1499s-11.1499-4.9914-11.1499-11.1499,4.9914-11.1499,11.1499-11.1499,11.1493,4.992,11.1493,11.1499Z" style="fill: #fff;"/>
    <path d="M241.914,189.4122c0-4.9032,3.988-8.8918,8.8918-8.8918s8.8913,3.9886,8.8913,8.8918-3.988,8.8918-8.8913,8.8918-8.8918-3.9886-8.8918-8.8918ZM237.3978,189.4122c0,7.3934,6.0146,13.408,13.408,13.408s13.408-6.0146,13.408-13.408-6.0151-13.408-13.408-13.408-13.408,6.0151-13.408,13.408" style="fill: #231815;"/>
    <path d="M395.1001,189.4122c0,6.1585-4.9914,11.1499-11.1499,11.1499s-11.1493-4.9914-11.1493-11.1499,4.9914-11.1499,11.1493-11.1499,11.1499,4.992,11.1499,11.1499Z" style="fill: #fff;"/>
    <path d="M375.0589,189.4122c0-4.9032,3.988-8.8918,8.8913-8.8918s8.8918,3.9886,8.8918,8.8918-3.988,8.8918-8.8918,8.8918-8.8913-3.9886-8.8913-8.8918ZM370.5422,189.4122c0,7.3934,6.0151,13.408,13.408,13.408s13.408-6.0146,13.408-13.408-6.0146-13.408-13.408-13.408-13.408,6.0151-13.408,13.408" style="fill: #231815;"/>
    <circle cx="508.1331" cy="189.4122" r="11.1499" style="fill: #fff;"/>
    <path d="M499.2412,189.4122c0-4.9032,3.9886-8.8918,8.8918-8.8918s8.8918,3.9886,8.8918,8.8918-3.9886,8.8918-8.8918,8.8918-8.8918-3.9886-8.8918-8.8918ZM494.7251,189.4122c0,7.3934,6.0151,13.408,13.408,13.408s13.408-6.0146,13.408-13.408-6.0146-13.408-13.408-13.408-13.408,6.0151-13.408,13.408" style="fill: #231815;"/>
    <circle cx="631.0346" cy="189.4122" r="11.1499" style="fill: #fff;"/>
    <path d="M622.1427,189.4122c0-4.9032,3.9886-8.8918,8.8918-8.8918s8.8913,3.9886,8.8913,8.8918-3.988,8.8918-8.8913,8.8918-8.8918-3.9886-8.8918-8.8918ZM617.6266,189.4122c0,7.3934,6.0146,13.408,13.408,13.408s13.408-6.0146,13.408-13.408-6.0151-13.408-13.408-13.408-13.408,6.0151-13.408,13.408" style="fill: #231815;"/>
  </g>
</svg>