<?xml version="1.0" encoding="utf-8"?>
<!-- Created by @FCLOGO 2023-11-2 GMT+8 9:00:20 . https://fclogo.top/ -->
<!-- FOR PERSONAL USE ONLY NOT FOR COMMERCIAL USE -->
<svg version="1.1" xmlns="http://www.w3.org/2000/svg" xmlns:xlink="http://www.w3.org/1999/xlink" x="0px" y="0px"
	 viewBox="0 0 800 800" style="enable-background:new 0 0 800 800;" xml:space="preserve">
<style type="text/css">
	.st0{fill:#020202;}
	.st1{fill:#E60317;}
	.st2{fill:#FFFFFF;}
	.st3{fill:#F5AB00;}
	.st4{fill:#FACA66;}
	.st5{fill:#FDE3E6;}
	.st6{fill:#FFFFF2;}
	.st7{fill:#F6AB00;}
	.st8{fill:#E40213;}
	.st9{fill-rule:evenodd;clip-rule:evenodd;fill:#FFFFFF;}
	.st10{fill:#E60012;}
</style>
<g>
	<g>
		<path class="st0" d="M746.9,278.5l-51.3-10.5c8.8-32.5,14.9-89.9,14.9-89.9l-76.3-58.4c-44.3,22.4-78.1,3.1-97-3.1
			c-18.9-6.1-64.8-22.4-137.2-22.4s-118.3,16.2-137.2,22.4c-18.9,6.1-52.6,25.4-97,3.1L89.5,178c0,0,6.1,57.5,14.9,89.9l-51.3,10.5
			L50,536c0,0,84.7-21.1,159.7-24.6c0,0,67.8,115.4,190.3,194.4c122.5-79,190.3-194.4,190.3-194.4C665.3,514.9,750,536,750,536
			L746.9,278.5z"/>
		<path class="st1" d="M400,698.7c-117.9-77.3-184.5-189.2-185.2-190.3l-1.8-3.1l-3.6,0.2c-61.9,2.9-131,17.8-153.4,23L59,283.3
			l52.8-10.8l-1.6-6.1c-7.4-27.2-12.9-73.1-14.4-85.7l70.8-54.1c13.6,6.3,27.6,9.5,41.6,9.5c19.7,0,36.1-6.2,48-10.8
			c3.1-1.2,6-2.3,8.5-3.1l2.8-0.9c20.9-6.9,64.5-21.2,132.6-21.2c68.1,0,111.7,14.3,132.6,21.2l2.8,0.9c2.5,0.8,5.4,1.9,8.6,3.1
			c11.9,4.5,28.2,10.8,48,10.8c14,0,28-3.2,41.6-9.5l70.8,54.1c-1.5,12.6-7,58.5-14.4,85.7l-1.6,6.1l52.8,10.8l2.9,245.2
			c-22.4-5.2-91.5-20.1-153.4-23l-3.6-0.2l-1.8,3.1c-0.2,0.3-17.2,29-48.8,67C507.7,609.8,461,658.8,400,698.7z"/>
		<path class="st2" d="M400,670c-104.3-73.1-164.1-172.6-164.7-173.7l-9.1-15.4l-17.9,0.8c-45.9,2.1-94.8,10.5-128.2,17.2l2.3-196.3
			l58.8-12.1l-8.2-30.5c-4.6-17-9-44.8-12.1-68.9l49.3-37.7c12.4,4.2,25.1,6.3,37.8,6.3c24.1,0,43.6-7.4,56.4-12.3
			c2.8-1.1,5.5-2.1,7.4-2.7l2.8-0.9c19.8-6.5,60.9-20,125.2-20c64.3,0,105.4,13.5,125.2,20l2.8,0.9c2,0.7,4.7,1.7,7.5,2.7
			c12.9,4.9,32.3,12.3,56.4,12.3c12.7,0,25.4-2.1,37.8-6.3l49.3,37.7c-3.1,24.1-7.5,51.9-12.1,68.9l-8.2,30.5l58.8,12.1l2.3,196.3
			c-33.3-6.7-82.3-15.1-128.2-17.2l-17.9-0.8l-9.1,15.5c-0.1,0.2-16.6,27.8-46.6,63.8C492.7,590.6,452.3,633.4,400,670z"/>
		<path class="st3" d="M400,657.9c-98.7-71.1-155.7-165.6-156.2-166.6l-12.1-20.5l-23.9,1.1c-41.3,1.9-85,8.8-117.7,15l2.1-176.1
			l61.3-12.6l-11-40.6c-3.6-13.2-7.6-35.6-11.1-61.9l40.7-31.1c11.8,3.4,23.9,5.2,35.9,5.2c25.9,0,46.4-7.8,60-13c2.7-1,5.3-2,7-2.6
			l2.8-0.9c19.3-6.3,59.4-19.5,122.1-19.5c62.8,0,102.8,13.2,122.1,19.5l2.8,0.9c1.8,0.6,4.5,1.6,7,2.6c13.6,5.2,34,13,60,13
			c12,0,24.1-1.7,35.9-5.2l40.7,31.1c-3.5,26.3-7.5,48.7-11.1,61.9l-11,40.6l61.3,12.6l2.1,176.1c-32.7-6.2-76.4-13.1-117.7-15
			l-23.9-1.1l-12.1,20.6c-0.1,0.2-16.4,27.5-45.7,62.5C487,582,449.1,622.5,400,657.9z"/>
	</g>
	<path class="st4" d="M710.2,465.4c-0.7-2.2-2-5.8-4-10.7L489,370.2L683.3,406c-1.4-2.6-2.8-5.2-4.3-7.8l-190.4-41.9l167.3,4.2
		c-1.8-2.7-3.6-5.4-5.5-8.1l-162.5-9.6l142-18.6c-2-2.7-4.1-5.3-6.3-8l-145.6,14.1l125.2-38.6c-2.2-2.6-4.5-5.1-6.8-7.7l-112.6,30.5
		l95-49.5c-2.6-2.8-5.3-5.5-8.1-8.3l-103.1,53.8l86.4-70c-2.7-2.6-5.4-5.1-8.2-7.7l-89.9,73l76.4-85.1c-2.8-2.4-5.6-4.9-8.4-7.3
		L458.9,284l44.4-87.8c-2.7-2.1-5.4-4.3-8.1-6.4L440.9,285l34.6-109.9c-2.7-2-5.4-3.9-8.2-5.9l-38.1,102.6l19-115.7
		c-2.7-1.8-5.4-3.6-8.2-5.4l-23.3,108.2l4.6-120c-2.6-1.6-5.3-3.3-8-4.9l-13.2,148.5c0,0-0.1,0-0.1,0c0,0-0.1,0-0.1,0L386.6,134
		c-2.7,1.6-5.4,3.2-8,4.9l4.6,120l-23.3-108.2c-2.8,1.8-5.5,3.6-8.2,5.4l19,115.7l-38.1-102.6c-2.8,1.9-5.5,3.9-8.2,5.9L359.1,285
		l-54.2-95.2c-2.7,2.1-5.5,4.2-8.1,6.4l44.4,87.8l-65.2-70.7c-2.8,2.4-5.7,4.8-8.4,7.3l76.4,85.1l-89.9-73c-2.8,2.6-5.5,5.1-8.2,7.7
		l86.4,70l-103.1-53.8c-2.8,2.8-5.5,5.5-8.1,8.3l95,49.5l-112.6-30.5c-2.3,2.6-4.6,5.1-6.8,7.7l125.2,38.6L176.4,316
		c-2.1,2.7-4.2,5.4-6.3,8l142,18.6l-162.5,9.6c-1.9,2.8-3.7,5.5-5.5,8.1l167.3-4.2L121,398.1c-1.5,2.7-2.9,5.3-4.3,7.8L311,370.2
		L93.7,454.7c-1.9,4.9-3.2,8.6-4,10.7L325,380.5l-137.6,87.2h16.6L326.2,396l-79.1,71.7h15.8l77.1-65.1l-48.4,65.1H306l47.3-59.3
		c0.2,0.2,0.4,0.3,0.6,0.5l-25.7,58.7h13.5l24.2-50.5c0,0,0,0,0,0l-9.8,50.5h13l8.4-36.5l-0.1,36.5h10.7l0.8-30l1.3,3.6l4.6,26.4
		h5.2V441v-15.3c0,0,0,0,0,0V441v26.6h5.2l4.6-26.4l1.3-3.6l0.8,30h10.7l-0.1-36.5l8.4,36.5h13l-9.8-50.5c0,0,0,0,0,0l24.2,50.5
		h13.5l-25.7-58.8c0.2-0.2,0.4-0.3,0.6-0.5l47.3,59.3h14.5l-48.4-65.1l77.1,65.1h15.8L473.8,396l122.1,71.7h16.6L475,380.5
		L710.2,465.4z"/>
	<g>
		<g>
			<path class="st2" d="M687.4,325c-85-17.1-216.6-19.7-287.4-19.7s-202.4,2.6-287.4,19.7l-1-4.8C197,302.9,329,300.3,400,300.3
				s203,2.6,288.4,19.8L687.4,325z"/>
		</g>
		<g>
			<path class="st2" d="M687.4,472.8c-85-17.1-216.6-19.7-287.4-19.7s-202.4,2.6-287.4,19.7l-1-4.8C197,450.8,329,448.2,400,448.2
				s203,2.6,288.4,19.8L687.4,472.8z"/>
		</g>
	</g>
	<g>
		<g>
			<path class="st2" d="M446.5,289.9c11.5-3.2,24.4-4.4,34.7,2.7c0.1,0.1,0.1,0.2,0.1,0.4c-0.1,0.1-0.2,0.1-0.3,0.1
				c-11.7-3.9-26.3-5.3-37.7,0.6c-0.7,0.4-1,1.2-0.6,1.9c0,0.1,0.1,0.1,0.1,0.2c9.6,12.9-11,27.8-17.7,10.6
				c-0.1-0.3-0.1-0.6,0.1-0.9c0.9-1.2,1.4-2.6,1.4-4.1c0-0.3-0.2-0.5-0.4-0.5c-2.3-0.5-4.4-1.2-6.4-2.3c-1.3-0.7-1.2-1.3,0.1-1.9
				c4-1.8,8.9-0.1,13.1-2c0.6-0.3,2.1-1.1,4.3-2.6c9-5.8,20.6-9.7,31.3-6.7c0,0,0,0,0,0v0.3c0,0.2-0.1,0.2-0.2,0.2
				c-5-0.5-18.2-0.1-22.1,3.6C445.9,289.9,446,290,446.5,289.9z M433,300.1c1.1,2.6,1.4,7.6-2.4,8.4c-0.3,0.1-0.4,0.3-0.4,0.6
				c0,0.1,0.1,0.2,0.2,0.3c5.5,4.1,10.4-1,11.3-6.3c0.5-3-1-5.6-2.2-8.3c-0.1-0.2-0.2-0.2-0.4-0.1l-7.7,3.8
				c-0.2,0.1-0.3,0.4-0.2,0.6c0,0.1,0.1,0.2,0.2,0.2l1.3,0.5C432.8,299.8,433,300,433,300.1z"/>
			<path class="st5" d="M478.7,295.4c3.9,1.8,8.4,4.1,13.5,6.9c1.7,0.9,3.5,1.4,5.3,1.7c1.1,0.2,1.1,0.4,0,0.6c-5.1,1-8.8-1-13.8-4
				c-9-5.2-18-7.9-28.6-6.1c-0.1,0-0.1,0-0.1-0.1l-0.1-0.2c0-0.2,0-0.4,0.3-0.4C463.4,291.3,471.2,291.9,478.7,295.4z"/>
			<path class="st6" d="M406.6,299.2c4.1,2.8,6.3,6.3,6.4,10.5c0,0.3-0.1,0.4-0.4,0.2c-4-3.9-8.4-7.3-13.2-10.3
				c0-0.1,0.1-0.2,0.1-0.2c0.1-0.2,0.2-0.3,0.4-0.3C402.6,298.5,404.8,298.5,406.6,299.2z"/>
			<path class="st5" d="M487.3,309.6c0.2,0.1,0.4,0.2,0.5,0.3c0.1,0.1,0.1,0.2,0,0.2c0,0-0.1,0.1-0.2,0.1c-5.6-1.1-8.8-2.3-15.2-5.1
				c-4.9-2.1-10.2-3.1-15.7-3c-0.1,0-0.2,0-0.2-0.1v0c0-0.1,0-0.2,0.1-0.2C468.9,300,477.1,305.4,487.3,309.6z"/>
			<path class="st5" d="M510.8,324.5l-2.3-1.3c-0.4-0.2-0.3-0.3,0.1-0.3c6.5,0.5,12.9,4.3,17.6,8.7c0.1,0.1,0.1,0.2,0,0.2
				c0,0.1-0.1,0.1-0.2,0l-10.3-4.9c-0.2-0.1-0.5,0-0.6,0.2c-0.1,0.1-0.1,0.2,0,0.3l0.5,1.4c0.1,0.2,0,0.4-0.2,0.4
				c-0.1,0-0.1,0-0.2,0c-4.7-1.1-7.7-2-9.1-2.9c-5.8-3.7-11.7-7.3-17.6-10.8c-6.9-4.1-13.5-6.5-19.8-7.2c-0.1,0-0.2-0.1-0.2-0.2
				l0-0.3c0-0.3,0.3-0.5,0.5-0.5c5.5-0.2,10.3,0.9,14.4,3.2c8.5,4.8,17,10.7,26.1,14.3c0.4,0.1,0.8,0.2,1.1,0.1
				C511.1,324.8,511.1,324.7,510.8,324.5z"/>
			<path class="st5" d="M544.2,319.3c2.8-0.4,5.2-1.1,7.9-2c0.1-0.1,0.3,0,0.4,0.2c0,0.1,0,0.3-0.1,0.3c-7.4,5-17.8,3.6-25.5-0.1
				c-0.1,0-0.1-0.1-0.1-0.2c0-0.1,0.1-0.1,0.2-0.1C532.4,318.7,538.8,320.1,544.2,319.3z"/>
			<path class="st5" d="M489.7,328.8c-4.1-2.9-8.7-5.8-13.8-8.9c-0.1,0-0.1-0.1,0-0.2c0,0,0.1-0.1,0.1,0
				c10.9,1.9,21.9,7.7,26.6,18.3c0.3,0.6,0.1,0.7-0.4,0.3C498,335.3,493,331.1,489.7,328.8z"/>
			<path class="st5" d="M486.3,351.5c0,0.1,0.1,0.2,0.1,0.3c0,0,0,0.1,0,0.1c-0.1,0-0.2,0-0.3,0c-0.1,0-0.1,0-0.2-0.1
				c-4.1-9.6-9.5-20.9-16.3-28.9c-0.1-0.1-0.1-0.3,0-0.4c0.1-0.1,0.3-0.1,0.4,0C479.2,329.2,484.2,340.8,486.3,351.5z"/>
			<path class="st5" d="M434.4,337.6c-0.6-4.9-10.5-6.8-14.5-7.6c-8.6-1.6-17.1-3.2-25.7-4.6c-1.8-0.3-3.3-1-4.6-2
				c-0.1-0.1-0.2-0.3-0.1-0.4c0.1-0.1,0.2-0.1,0.3-0.1c10.6,1.3,20.9,3,31.1,5c6.2,1.2,16.3,4.2,15.8,11.6c-0.2,3.5-1.3,6.7-5.3,6.8
				c-3.1,0-5-4-1.8-5.3c1.8-0.7,3.2-1.6,4.3-2.5C434.4,338.2,434.5,337.9,434.4,337.6z"/>
			<path class="st5" d="M474.6,346.4l-6.3-11.7c-0.1-0.1,0-0.2,0-0.2c0.1-0.1,0.2,0,0.2,0c7.4,6.6,11.5,17.3,13,26.8
				c0,0.2-0.1,0.4-0.3,0.4c-0.1,0-0.2,0-0.3-0.1c-5-3.9-6.6-10.1-10.4-15c-3.7-4.8-9.4-10.8-15.6-12.4c-0.3-0.1-0.6,0.1-0.6,0.4
				c0,0,0,0,0,0c-0.8,5.4-2.5,17.6-6.7,19.1c-0.4,0.1-0.5,0-0.3-0.3c2.4-6.6,4.1-13.4,5.3-20.3c0-0.3,0.2-0.5,0.5-0.6
				c7.1-2.2,17.3,9.1,21.2,14c0.1,0.1,0.2,0.1,0.3,0.1C474.6,346.7,474.6,346.5,474.6,346.4z"/>
			<path class="st2" d="M257.7,420.3c-12.6-4.7-21.3-12.9-26.2-24.5c-5.6-13.4-4.7-30.7-0.9-44.7c1.6-6.1,7-16,13.4-17.7
				c0.3-0.1,0.3,0,0.1,0.2c-4.5,5.2-7.7,11.1-9.6,17.7c-7.2,26.2-4.8,56,23.3,68.6c0.1,0,0.1,0.1,0.1,0.2v0
				C257.9,420.3,257.8,420.3,257.7,420.3z"/>
			<path class="st5" d="M437.1,356.2c5.6-3.9,7.7-8.4,9.5-14.9c0.1-0.4,0.2-0.4,0.3,0c1.4,8.2-1.7,13.3-9.5,15.5
				c-0.2,0-0.3-0.1-0.4-0.2C436.9,356.4,437,356.3,437.1,356.2z"/>
			<path class="st5" d="M369.1,345c0-0.5,0.3-0.6,0.8-0.5c7.2,4.8,14.7,7,22.6,6.7c10.4-0.4,21.6-2.9,33.5-7.5
				c0.2-0.1,0.3,0,0.4,0.2c0,0.1,0,0.3-0.1,0.4C411.4,352.8,381.7,361.4,369.1,345z"/>
			<path class="st5" d="M475.1,407.5c-3.1-13-9.4-25-19-36.1c-0.1-0.1-0.1-0.2,0-0.3l0.2-0.2c0.1-0.1,0.2-0.1,0.3,0
				c21.3,18.2,34.2,54,11.2,76.4c-6.4,6.3-14.1,11.1-23.1,14.4c-0.1,0-0.2,0-0.2-0.1l0,0c0-0.1,0-0.2,0.1-0.2
				c9.5-5.2,17.5-12.2,24-20.8C475.8,430.8,478,419.7,475.1,407.5z"/>
			<path class="st5" d="M440.7,401.1c0,0.1-0.1,0.1-0.2,0.1l0,0c-0.1,0-0.1-0.1-0.1-0.2c0.8-10.4,3.8-20.8,11.7-28.4
				c0.1-0.1,0.2-0.1,0.3,0c0.1,0.1,0.1,0.2,0,0.3C447.5,382,442.7,390.9,440.7,401.1z"/>
			<path class="st5" d="M515.3,491.4l-4.2,3.8l-1.8,0.8c-0.4,0.2-0.4,0.1-0.2-0.2c29.1-37.1,20.8-81.2-0.3-119.3
				c0-0.1,0-0.2,0.1-0.2c0.1,0,0.2,0,0.2,0c20.6,23.4,25,61.1,18.5,90.2C525.6,475.7,521.5,484,515.3,491.4z"/>
			<path class="st5" d="M304.6,415.4l-3,4.4l-7.3,6.2c-0.4,0.4-0.4,0.6,0.2,0.6l4.3,0.1c0.1,0,0.1,0,0.1,0v0.4
				c0,0.1-0.1,0.2-0.2,0.2l-18.9,5.2c-0.2,0.1-0.3,0.2-0.2,0.4c0,0.1,0.1,0.2,0.2,0.2c7.9,3,15.4,6.8,22.4,11.5
				c0.1,0.1,0.2,0.3,0.1,0.4c-0.1,0.1-0.2,0.1-0.3,0.1c-12.1-5.2-24.3-9.8-36.5-13.9c-1.6-0.5-3.2-1-4.7-1.3c-0.2,0-0.4,0.1-0.4,0.3
				c0,0.1,0,0.2,0.1,0.3l12.8,16.4c0.1,0.1,0.1,0.2,0,0.3l0,0c-0.1,0.1-0.2,0.1-0.3,0c-9.2-8.5-17.8-17.6-25.8-27.3
				c-0.5-0.6-0.9-1.5-1.2-2.7c-0.1-0.4,0-0.4,0.3-0.2c7.9,7.2,20.1,14.1,31,12.8c10.5-1.2,20-8.7,24.8-17.8c0.9-1.8,1.4-4,1.3-6.5
				c-0.3-10.6-15.1-11-19.5-3.6c-1.1,1.9-2.4,8.1,1.2,8.6c3.1,0.4,8.4-1.3,7.8-5.3c-0.2-1.5-1.2-2.4-2.9-2.9
				c-0.2-0.1-0.3-0.3-0.3-0.5c0-0.2,0.2-0.3,0.3-0.3c8-1.1,6.9,9.2,1.1,11.3c-4.6,1.6-10.7,1.3-12.2-4.5c-0.5-1.9-0.1-4.1,1.2-6.4
				c4-7.3,10-9.9,17.8-7.9c5,1.3,7.5,6.4,8.2,11.2C306.5,408.5,306.1,411.9,304.6,415.4z"/>
			<path class="st5" d="M521.9,416.3l0.2-2.7c0-0.2,0.1-0.3,0.3-0.3c0.1,0,0.3,0.1,0.3,0.2c2.3,6.7,2.1,15.2,2.2,22.2
				c0.1,5.9-0.2,10.9-0.9,15c-3.4,19.6-15.8,39.3-33.3,49.3c-1.7,1-1.8,0.8-0.3-0.4c14.4-11.9,27.8-30.6,30.8-49.5
				c1.9-11.7,0.8-23.4-3.3-34.9c-2.2-6.2-8.6-14.7-15.8-12c-4.7,1.7-7.3,5-8,9.9c-1,7.3,0.8,14.5,9.8,14c5.4-0.3,6.6-5.9,4.8-10.1
				c-1.4-3.4-4.8-2.4-7.4-1.1c-0.9,0.5-1.2,0.2-0.9-0.8l0.6-1.6c0.3-0.9,1-1.6,1.9-1.9c6.9-2.6,10.4,5.7,10,11.2
				c-0.2,2.7-1.2,4.8-2.9,6.3c-2,1.7-4.4,2.5-7.3,2.2c-10.6-1.1-15.3-10.5-12.6-20.2c2.4-8.9,14.9-15.9,23.1-8.1
				c3.9,3.7,6.6,8.2,8.2,13.4c0,0.1,0.2,0.2,0.3,0.2C521.9,416.5,521.9,416.4,521.9,416.3z"/>
			<path class="st7" d="M353.4,449.2l0.8,18.4c-2.4-1.7-4.3-3.7-5.6-5.9c0.5,0,0.6-0.1,0.5-0.4c-1.7-2.6-3.3-5.3-4.7-8.4
				C350.6,453.5,353.6,452.3,353.4,449.2z"/>
			<path class="st5" d="M359.7,478.4c-12.2,0.7-24-3.6-30.9-14.1c-0.1-0.1,0-0.3,0.1-0.4c0.1-0.1,0.2-0.1,0.3,0
				c8.8,7.7,19,12.4,30.5,14.3c0.1,0,0.1,0,0.1,0.1C359.8,478.3,359.8,478.4,359.7,478.4L359.7,478.4z"/>
			<path class="st2" d="M519.5,471.6c-11.8,23.5-24.4,43.7-37.1,65.3c0,0.1-0.1,0.1-0.2,0.1c-0.1,0-0.1-0.1-0.1-0.2
				c3.1-10.3,7.2-20.1,12.2-29.6c0.3-0.6,1.2-1.8,2.8-3.6c3.3-3.8,6.3-7.8,9.1-11.9c4.5-6.6,8.8-13.4,12.8-20.3
				c0.1-0.1,0.1-0.1,0.3-0.1h0C519.5,471.3,519.5,471.4,519.5,471.6z"/>
			<path class="st5" d="M401.5,506.2c23.2,10.4,50.5,4.8,73.9-1.8c0.1,0,0.2,0,0.2,0.1v0c0,0.1,0,0.2-0.1,0.2
				c-16.9,7.5-34.5,10.7-52.8,9.5c-5.9-0.4-18-2.6-21.5-7.7C400.9,506.1,401,506,401.5,506.2z"/>
			<path class="st2" d="M479.7,535.8c1.6-10.5,6.7-20.5,13.3-28.9c0-0.1,0.1-0.1,0.2,0l0.2,0.1c0.1,0.1,0.2,0.2,0.1,0.4
				c-5.2,9.2-9.6,18.7-13.3,28.6C479.6,537.1,479.5,537.1,479.7,535.8z"/>
			
				<ellipse transform="matrix(0.9882 -0.153 0.153 0.9882 -74.1171 69.4293)" class="st5" cx="414.1" cy="516.3" rx="6.6" ry="0.6"/>
			<path class="st5" d="M440.4,518.9c0,0.1-0.1,0.2-0.2,0.2c0,0,0,0,0,0l-0.1,0c-19.1,2.4-34.5,4-34.6,3.6c0,0,0,0,0,0l0-0.3
				c0-0.4,15.4-2.7,34.4-5.1l0.1,0c0.1,0,0.2,0.1,0.2,0.2c0,0,0,0,0,0L440.4,518.9z"/>
		</g>
		<g>
			<path class="st8" d="M510.6,244.2c-0.4,6.2-3.4,9.8-9.2,10.8c-2.9,0.5-4.7,0.9-5.4,1.1c-5.4,2.2-9.3,6.1-11.7,11.9
				c-0.4,1.1,0.1,2.3,1.2,2.8c0.1,0,0.2,0.1,0.3,0.1c4.1,0.9,10.6,0.4,11.2-5.1c0-0.3-0.1-0.6-0.3-0.8c-0.6-0.6-1.4-0.8-2.2-0.8
				c-0.3,0-0.4,0.2-0.3,0.5l0.8,1.9c0.1,0.3,0,0.7-0.2,1c-1.8,1.6-4,2.2-6.4,1.9c-1.1-0.2-1.7-0.8-1.6-2c0.1-3.1,7-7,9.4-8.4
				c6.9-3.9,13.4-0.4,20.9-1c11.5-1.6,22.5-4.7,33-9.3l5.4-2.2c0.4-0.2,0.8,0,1,0.4c0,0.1,0.1,0.2,0.1,0.3l0.1,7.1
				c0,0.8-0.5,1.5-1.3,1.7l-28,7c-7,1.6-11.9,3.2-15,4.6c-6.3,3.1-13.1,6.9-19.7,8.5c-3,0.7-6,1.3-9,1.6c-4.3,0.4-7.3,1.6-10.6,3.9
				c-0.1,0-0.1,0.1,0,0.2c0,0,0.1,0.1,0.1,0.1c5.2,0.5,10,0.9,14.4,1.4c2.9,0.3,5.3,0.9,7.3,1.8l8.7,5.3l9.9,7l4.7,3l4.6,2.6
				l4.5,3.2l7.8,6.5c6.4,5.1,15.8,4,23.3,2.5c0.4-0.1,0.4,0.1,0.3,0.4l-2.6,4.6c-5.6,4.4-11.7,5.8-18.3,4.4
				c-13.6-3-21.8-18.1-35.9-18.1c-0.2,0-0.3,0.1-0.3,0.3c0,0.1,0.1,0.2,0.1,0.3c4.7,3,9.4,6.1,13.9,9.4c7,5.1,13.3,11.7,19.9,17.9
				l12,9.4c6.6,3.9,12.1,8.7,16.6,14.4l3.3,5.2c0.1,0.1,0.1,0.3-0.1,0.4c-0.1,0.1-0.2,0.1-0.3,0l-9.7-6.2
				c-7.4-4.6-14.1-9.4-20.1-14.6c-4-3.3-8.1-5.9-12.2-7.9c-3.1-1.3-9.7-3-11.2,1.3c-0.3,2.8,0.2,4.9,1.5,6.2l1.3,3
				c0.1,0.2,0,0.3-0.2,0.4c-0.1,0.1-0.2,0-0.3-0.1l-2.5-2.2c-0.1,0-0.1-0.1-0.1-0.1l-0.2,0.2c-0.1,0.1-0.1,0.2,0,0.3l11,12.6
				l7.4,8.9l10.5,14.4l1,3.4c0.2,0.6-0.2,1.3-0.8,1.5c-0.1,0-0.1,0-0.2,0c-0.9,0.1-1.9-0.2-2.8-0.8c-3.9-2.6-7.1-5.3-9.8-8.1
				c-4.6-4.6-8.4-8.9-11.2-13.1l-6.1-8.7c-2.1-2.6-10-12.8-13.7-11.8c-3.6,1-3.3,9.6-2.7,12.8l0.9,2.6c3.3,5.7,7.5,10.5,12.6,14.6
				c3.4,3.9,6.9,7.3,10.4,10.2c3.6,3,9.7,2,15.4,1.5c2.1-0.2,3.7,1.8,2.4,3.9c-3.9,2.3-8.2,3.7-12.7,4.3c-0.2,0-0.3,0.2-0.3,0.4
				c0,0.1,0.1,0.2,0.2,0.3c10.4,5.8,21.6,9,33.5,9.6c0.4,0,0.8,0.4,0.7,0.8c0,0.1,0,0.2-0.1,0.3c-1.1,1.9-2.9,3.8-5.3,5.6
				c-5.9,3.8-12.4,4.2-19.5,1.4c-0.4-0.1-0.6,0-0.6,0.4c-0.1,1.3,0.1,2.6,0.6,4c1.8,7.1,4.4,13.6,7.6,19.5
				c3.1,6.2,6.6,11.7,10.3,16.4l4.5,5.8l-0.8,0.3l-7.7-6.6c-2.2-2.4-4.2-4.8-5.9-7.1c-4.7-6.3-8.4,2.8-9.3,6.2l-1.2,6l-0.6,5.7
				c-1.1,13.2-1.5,26.1-1,38.6c0,0.2-0.1,0.3-0.3,0.3c-0.1,0-0.3-0.1-0.3-0.2c-2.9-7.9-3.6-16-2.1-24.3c0-0.2-0.1-0.3-0.2-0.3
				c-0.1,0-0.2,0-0.3,0.1c-4.1,8.4-3.6,16.8,0.8,25c1.7,3.2,1.3,6.2-1.1,9c-0.6,0.7-1.6,0.8-2.3,0.2c-0.1,0-0.1-0.1-0.2-0.2
				c-4-4.5-6.5-12.8-8.1-18.6c6.2-7.4,10.3-15.7,12.4-24.9c6.5-29.1,2-66.8-18.5-90.2c-0.1-0.1-0.2-0.1-0.3,0
				c-0.1,0.1-0.1,0.1,0,0.2c21.1,38.1,29.4,82.2,0.3,119.3c-0.2,0.3-0.2,0.4,0.2,0.2l1.8-0.8c-6,10.3-11.8,20.5-17.5,30.8
				c-4,7.2-8.7,13.3-14.2,18.1c-2,1.8-9.9,5.6-12.2,2.7c-0.6-0.8-0.7-1.7-0.4-2.7c2.1-6.9,6.2-13.1,8.1-20.5
				c0.1-0.3-0.1-0.5-0.4-0.6c-0.1,0-0.3,0-0.4,0.1c-6.7,4.3-13.8,8.3-21.1,12.1c-4,2.1-8.2,3.6-12.3,4.7c-0.2,0-0.4-0.1-0.4-0.3
				c0-0.1,0-0.3,0.2-0.4c16.2-9.2,31.8-19.1,46.7-29.7c0,0,0,0,0-0.1l-0.1-0.2c-0.1-0.1-0.1-0.1-0.3-0.1
				c-18,10.2-35.6,21.1-52.8,32.6c-2.2,1.5-4.5,2.6-6.9,3.2c-0.2,0.1-0.4,0-0.5-0.3c-0.1-0.2,0-0.4,0.2-0.5
				c8.6-5.7,17.1-11.5,25.4-17.4c3.2-2.3,6.3-5.1,9.4-7.6c0.1-0.1,0.1-0.3,0-0.4c-0.1-0.1-0.2-0.1-0.3-0.1
				c-11.1,6.1-20.5,13.5-30.4,21.3c-3.6,2.8-7.4,5.2-11.4,7.3c-0.7,0.4-1.5,0.6-2.3,0.6c-0.4-0.1-0.8-0.3-1.1-0.6
				c3-2.3,5.9-4.7,8.6-7.3c5.2-4.9,8.3-7.6,11.4-12.5c0.6-0.9,0.3-1.3-0.7-1.2c-9.4,0.8-19,1.2-28.9,1c-3.4-0.1-6.6-0.5-9.7-1.4
				c-0.3-0.1-0.4-0.3-0.3-0.6c0-0.1,0.1-0.2,0.2-0.3c2.5-1.6,4.4-3.7,5.8-6.3c0.1-0.2,0-0.5-0.2-0.6c-0.1,0-0.1-0.1-0.2-0.1
				c-7.1-0.5-12-3.9-14.9-10.2c-0.1-0.3,0-0.7,0.3-0.9c0.1,0,0.1,0,0.2-0.1c2.3-0.2,8.5-1.1,9.9-3.1c0.6-0.9,0.4-2.2-0.6-2.9
				c-0.1-0.1-0.2-0.1-0.4-0.2c-2.8-1.1-5.3-2.8-7.4-5c-0.3-0.3-0.3-0.8,0-1c0.1-0.1,0.2-0.1,0.3-0.2c8.1-2.1,15.4-7.1,14.4-16.6
				c-0.8-7.3-4-11.5-10.9-14.1c-5.6-2.1-11-1.7-16.3,1.3c-5,2.9-7.4,6.8-6.7,12.6c1.6,13,24.9,6.2,21.7-2.5
				c-1.1-2.9-3.5-4.7-7.4-5.3c-0.8-0.1-1.5,0.4-1.8,1.1l-0.2,0.5c-0.2,0.6,0.1,1.2,0.7,1.4c2.3,0.8,4.7,1.6,5.1,4.3
				c0.3,2-0.4,3.5-2.2,4.5c-4.5,2.4-8.4,2.1-11.8-0.9c-3.2-2.8-2.7-7.3,0-10.4c2.3-2.6,5.5-4.4,9.5-5.1c5-1,9.4,0.6,13.2,4.6
				c3.6,3.8,6.4,11.6,1.8,15.7c-4.2,3.8-8.8,5.3-14,7.2c-1.5,0.6-2.7,1.4-3.8,2.4c-8.7,8.7-15.9,16.6-21.4,23.7
				c-1,1.2-1.7,3-2.2,5.1c-0.6,2.8,0.8,3.5,2.9,4.5c3.6,1.6,7.4,3,11.1,4.4c0.3,0.1,0.5,0.4,0.4,0.7c0,0.1-0.1,0.2-0.1,0.2l-9.9,9.7
				c-0.3,0.3-0.7,0.4-1.1,0.2c-4-1.8-7.4-4.2-10.3-7.3c-4.6-4.9-12.8-7.6-17.1-0.7c-2.6,4.2-5.4,8.4-8.3,12.6
				c-0.3,0.5-1,0.6-1.5,0.3l-4.9-3c-0.2-0.1-0.2-0.4-0.1-0.5c0,0,0.1-0.1,0.1-0.1c5.1-3.8,7.3-8.6,7.9-15c0.8-8.4,2-15.4-2.1-22.9
				c-0.2-0.4-0.2-0.9,0.1-1.3c2.3-3.3,5-6.2,8.2-8.6c0.3-0.2,0.7-0.3,1.1-0.3c2.1,0.2,3.6,1.4,4.5,3.4c0.1,0.3,0.1,0.6-0.1,0.9
				c-1.1,1.7-1.9,3.6-2.4,5.6c-0.1,0.5,0.2,1,0.7,1.1c0.2,0,0.4,0,0.6-0.1c2.1-0.9,4.3-1,6.5-0.1c0.3,0.1,0.6,0.1,0.9,0.1
				c4.3-1.1,11.1-3.6,12.6-8.3c0.8-2.3,2.4-9.4-0.6-10.6c-9.5-4-32.2-15.6-32.1-27.8c0-0.5,0.4-0.8,0.9-0.8c0.1,0,0.3,0,0.4,0.1
				l2.7,1.5l17,9.9c0.4,0.2,0.5,0.1,0.2-0.2c-3.5-6-6.4-12.3-8.6-18.8l-1.2-5.2c-1.1-5.6-0.4-13.5,4-17.5c0.3-0.3,0.5-0.2,0.5,0.2
				l0.4,6.8c-0.1,3.4,0.5,7.2,1.8,11.2l1.9,4.8c1.5,3,3,5.8,4.7,8.4c0.2,0.3,0,0.4-0.5,0.4c-4.9-6.3-8.3-13.4-10.2-21.2
				c0-0.1-0.1-0.1-0.1-0.1l0,0c-0.1,0-0.1,0.1-0.1,0.1c2.3,12.6,9.8,32.5,24.6,34.9c0.5,0.1,0.6,0,0.2-0.4l-8.8-7.4l-0.8-18.4
				c-0.1-1.1-0.2-1.7-0.4-1.8c-0.3-8.1,0.4-15.7,2-23c0-0.1,0.1-0.2,0.2-0.3c0.1-0.1,0.2-0.1,0.3-0.1c0.2-0.1,0.4,0,0.4,0.2
				c0,0,0,0.1,0,0.1c-0.7,8.2-0.7,16.4,0.1,24.5l0.3,2.8c1.2,8.3,3.4,17.5,10.4,21.9c1,0.6,1.1,0.4,0.6-0.5
				c-1.9-3.2-3.6-6.6-5.1-10.2c-1.4-3.2-0.7-5.5,0.3-8.7c1.6-5,2.8-8.7,3.6-10.9c0-0.1,0.2-0.2,0.4-0.2c0.1,0,0.2,0.1,0.2,0.2
				c0.9,4.2,3.2,7.5,6.7,9.8c0.2,0.1,0.5,0.1,0.6-0.1c0.1-0.1,0.1-0.3,0-0.5c-4.6-8.7-8.7-17.5-12.2-26.3c-1.3-3.2-2.2-6.6-3-9.9
				c-1.8-6.8-5.1-12.8-10.1-17.9c-0.2-0.2-0.3-0.5-0.1-0.8c1.1-2.4,2.4-4.8,3.8-7.1c0,0,0-0.1,0-0.1c0-0.1-0.1-0.1-0.1-0.2
				c0,0-0.1-0.1-0.1,0c0,0,0,0,0,0l-6,5.1c-0.3,0.2-0.6,0.3-0.9,0.1l-3.4-1.9c-0.6-0.3-0.8-1-0.5-1.6l2-4.5c0-0.1,0-0.2-0.1-0.3
				c-0.1,0-0.2,0-0.3,0.1l-4.3,4.5c-0.2,0.2-0.5,0.4-0.9,0.3c-4.6-0.5-8.7,0.8-12.3,3.6c-0.2,0.2-0.6,0.2-0.8-0.1
				c-0.1-0.1-0.1-0.1-0.1-0.2l-1.7-7.3c0-0.1-0.1-0.2-0.2-0.2s-0.2,0.1-0.2,0.2l0,0l-0.9,10.2c0,0.1-0.1,0.3-0.2,0.4
				c-5.7,5.2-11.3,10.8-16.6,17c1.4-3.5,1.9-6.9,1.4-10.1c-0.8-4.8-3.3-9.9-8.2-11.2c-7.8-2-13.8,0.6-17.8,7.9
				c-1.3,2.3-1.7,4.4-1.2,6.4c1.5,5.9,7.6,6.1,12.2,4.5c5.8-2,6.8-12.3-1.1-11.3c-0.2,0-0.4,0.2-0.3,0.4c0,0.2,0.1,0.3,0.3,0.3
				c1.7,0.5,2.6,1.4,2.9,2.9c0.7,4.1-4.6,5.7-7.8,5.3c-3.6-0.5-2.3-6.7-1.2-8.6c4.5-7.4,19.3-7,19.5,3.6c0.1,2.6-0.4,4.8-1.3,6.5
				c-4.8,9.1-14.3,16.5-24.8,17.8c-10.9,1.3-23.1-5.6-31-12.8c-0.3-0.3-0.4-0.2-0.3,0.2c0.3,1.2,0.7,2.1,1.2,2.7
				c8,9.7,16.6,18.8,25.8,27.3c0.1,0.1,0.2,0.1,0.3,0l0,0c0.1-0.1,0.1-0.2,0-0.3l-12.8-16.4c-0.1-0.2-0.1-0.4,0.1-0.5
				c0.1-0.1,0.2-0.1,0.3-0.1c1.6,0.4,3.1,0.8,4.7,1.3c12.2,4.1,24.4,8.7,36.5,13.9c0.2,0.1,0.3,0,0.4-0.2c0-0.1,0-0.3-0.1-0.3
				c-7-4.7-14.5-8.6-22.4-11.5c-0.2-0.1-0.3-0.3-0.2-0.4c0-0.1,0.1-0.2,0.2-0.2l18.9-5.2c0.1,0,0.2-0.1,0.2-0.2v-0.4c0,0,0,0-0.1,0
				l-4.3-0.1c-0.6,0-0.6-0.2-0.2-0.6l7.3-6.2c3.4-0.3,6,0.5,7.9,2.4c0.4,0.4,0.4,1.1,0,1.5c-0.1,0.1-0.2,0.1-0.3,0.2
				c-6.8,3.2-13.8,5.9-20.9,8.1c-0.4,0.1-0.4,0.3,0,0.5l9.8,4.9l11.9,7l4.4,4l2.6,4.9c0.1,1.8-0.8,2.6-2.8,2.5l-4.9-2.2l-8.8-5.4
				l-10.1-5l-19.9-7.7c-0.5-0.2-0.6-0.1-0.3,0.3c4.2,5.3,9.2,10.1,14.9,14.2l4.3,4.4c2.4,2.9,4.1,6,5.2,9.2c0.4,1.7,0.3,3.6-0.2,5.7
				c0,0.1-0.1,0.2-0.2,0.5c-0.2,0.3-0.7,0.4-1,0.2c-0.1,0-0.1-0.1-0.2-0.1c-4.7-5.7-9.8-10.8-15.2-15.1l-0.9-0.5l-6.3-5l-16-12.1
				c-3.7-2.3-6.8-5.3-9.4-9l-9.4-14.9l-6.4-12.1c-1.8-5.7-2.8-11-3.2-15.8l-0.6-10.3c-0.3-5.4,0.1-10.9,1.1-16.4l2.5-12.9l3.2-14.8
				l2.5-8.6l6.2-12.4l4.8-6.4l9.9-9.5l9.7-6.5l13.1-6.4l8.2-2.7c0.1-0.1,0.3,0,0.4,0.1c0.1,0.1,0,0.3-0.1,0.4l-5.7,3.3
				c-5,2.8-9.8,6.2-14.6,10.3c-4.5,3.8-11.8,11.4-11.9,17.6c0,0.6,0.1,0.6,0.4,0.1c2.7-4.6,4.7-7.8,6-9.5c6.1-8,14.2-12.9,24.3-14.8
				l14.4-2.3l17.9-1.6l6-0.4l15.2-0.3c0.3,0,0.3,0.1,0.1,0.3c-0.1,0.1-0.1,0.1-0.2,0.2c-0.1,0.1-0.2,0.1-0.3,0.2l-11.7,1.4l-3.5,0.8
				c-4.6,2.7-10.1,4-16.5,4.1l-9.4,0.2c-5.4-0.4-11.5-1-16.6,0.8c-4,1.4-7.7,3.6-10.9,6.6c-0.1,0.1-0.1,0.2,0,0.3c0,0,0,0,0,0
				l0.2,0.2c0,0,0.1,0,0.1,0c7.9-5.7,17.1-8.2,26.8-6c0.2,0,0.3,0.2,0.3,0.4v0.3c0,0,0,0-0.1,0c-3.6-0.4-7.2-0.1-10.7,1
				c-0.2,0.1-0.3,0.3-0.3,0.5c0,0.1,0.2,0.2,0.3,0.3c3.5,0.5,7,1.1,10.6,1.7c7.9,1.4,15.6,4.4,23.5,6.5c6,1.6,11.6,0.9,16.8-2.3
				c0.3-0.2,0.5-0.2,0.6-0.1c0.1,0.1,0.1,0.4,0,0.8l-4.7,5.9c-4.4,2.8-9.4,3.2-15,1.2c-6.4-2.3-13.9-5.6-19.6-6.7
				c-7.3-1.4-14.8-0.8-22.6,1.8c-4.2,1.4-7.5,3-9.9,4.7c-0.1,0.1-0.2,0.3-0.1,0.4c0.1,0.1,0.2,0.1,0.3,0.1c9.7-3.5,22-8,34.4-3.7
				c0,0,2.3,1.1,7,3.2c3.4,1.6,7.7,3,12.7,4.4c2.4,0.6,4.7,2.2,7,4.7c0.3,0.3,0.2,0.4-0.2,0.3c-6.6-1.8-14.6-3.6-23.9-5.5
				c-11.6-2.4-24.3-3-35.3,1.1c0,0,0,0,0,0.1l0.1,0.2c0.1,0.2,0.2,0.2,0.3,0.2c10.2-2.4,21.3-2.6,33.5-0.6
				c6.3,1.1,29.6,5.7,32.7,11.4c0.1,0.3,0,0.6-0.2,0.7c-0.1,0.1-0.3,0.1-0.4,0.1c-9.5-2.4-18.9-4.4-28.2-5.9
				c-5.4-0.9-12.8-0.9-22.2-0.2c-3.4,0.2-6.9,0.6-10.5,1.1c-6.4,1-11,0.5-16.8-1.1c-3.7-1-6.4-0.3-8.4,2.7c-0.1,0.1,0,0.3,0.1,0.4
				c0.1,0.1,0.2,0.1,0.3,0c6.3-4.1,13.2-0.3,19,0.6c7.9,1.2,14.8,2.9,20.7,5.3c4.9,1.7,15,5.7,16.4,11.1c0.3,1.1-0.1,1.5-1.2,1.1
				c-13.3-4.7-26.9-6.6-40.7-5.9c-1.7,0.1-3.6,0.7-5.8,1.8c-5.8,1.3-10.9,4.7-15.3,10.3c-2.9,3.6-4.9,8.1-6.1,13.5
				c-1.2,4.5-1.7,9.4-1.6,14.6c-0.2,3.6,0.1,7.2,0.8,10.8c0.7,4.9,2.1,9.7,4.4,14.3c1.4,3.4,3.6,6.5,6.7,9.2c1.3,1.1,2.6,1.7,4,1.8
				c5.3,0.3,10.7-4.2,14.3-7.9c4.6-4.8,8.9-10.7,13-17.7l5.4-8.7c1.4-0.1,2.9,0.8,4.5,2.7c0.3,0.4,0.5,0.3,0.5-0.2
				c0-0.3-0.1-0.6-0.3-0.9c-1.1-1.4-1.9-2.9-2.6-4.5c-0.1-0.4-0.1-0.7,0.1-1l4.2-5.4c0.2-0.3,0.5-0.3,0.7-0.1l9.4,8.9
				c0.5,0.5,0.6,0.4,0.4-0.2l-5.3-13.1c1.2-1.7,3.1-3.3,5.6-4.9c0.6-0.4,1.1-0.5,1.5-0.4c0.3,0.1,0.6,0.4,0.9,1
				c1.7,4,3.5,8,5.5,11.8c0,0.1,0.1,0.1,0.2,0c0,0,0.1-0.1,0.1-0.1c-1-4.2-2.1-8.5-3.3-12.7c-0.4-1.5,0-2.6,1.1-3.1
				c11.7-5.2,24.3-7.6,38-7.1c0.2,0,0.3,0.1,0.3,0.3l1.8,13.2c0,0.2,0.2,0.3,0.4,0.3c0.1,0,0.2-0.1,0.3-0.2l3.4-11.9
				c0.2-0.6,0.5-0.8,1.1-0.7c1.9,0.2,3,1,3.3,2.3c0.4,1.8,0.7,6,0.8,12.4c0,0.1,0.1,0.2,0.2,0.2h0c0.1,0,0.2-0.1,0.2-0.3l1.1-11.2
				c0.1-0.6,0.6-1,1.1-0.9c0.1,0,0.2,0,0.4,0.1c6.4,3.2,12,7.5,16.8,12.9c16.7,18.9,27.3,43.7,33.6,67.8l2.1,6.2l1.5,4.6
				c0.3,0.8,0.2,1.7-0.2,2.5l-5.4,11.5c0,0.1,0,0.1,0.1,0.2c0,0,0.1,0,0.1,0c2.7-2.5,5.3-5,7.9-7.4c0.2-0.2,0.5-0.2,0.8,0.1l3.2,4.7
				l2.6,3c0.2,0.2,0.3,0.5,0.4,0.8l1.4,13.1c0,0.1,0,0.1,0.1,0.1l0.2,0c0.1,0,0.1,0,0.1-0.1c0.2-3.6,0.6-7.2,1.1-10.7
				c0-0.2,0.2-0.4,0.5-0.3c0,0,0,0,0,0l6.8,1.7c0.3,0.1,0.5,0.2,0.6,0.5c0.7,1.9,1.4,3.9,1.8,5.9c0,0,0,0.1,0.1,0c0,0,0,0,0,0
				l0.2-0.1c0.1,0,0.1-0.1,0.1-0.1l-0.6-6c0-0.4,0.1-0.6,0.5-0.6c4.1-0.7,7.8-2.4,11-5c0.4-0.3,0.4-0.5-0.2-0.4
				c-2.8,0.4-5.4,0-7.6-1.3l11.4-4.6c3.4-2,6.8-4.5,10.1-7.5c2.4-2.2,4.3-4.7,5.7-7.6c1.9-3.4,3.2-6.9,3.7-10.3
				c0-0.2-0.1-0.5-0.4-0.5c-0.1,0-0.1,0-0.2,0l-10.2,3.3l-0.8-0.1c-0.2,0-0.3-0.2-0.3-0.3c0-0.1,0.1-0.2,0.2-0.3
				c5.4-2.9,9.8-6.9,13.1-12c0.1-0.1,0.1-0.2,0-0.3l-0.2-0.2c-0.1-0.1-0.1-0.1-0.2,0c-5,5.5-10.7,10.2-17.1,14
				c-3.6,2.1-7.3,3.5-11,4.1c-0.1,0-0.2-0.3-0.3-0.6c3.9-1.8,7.4-4,10.5-6.6l2.1-1.8c3.9-3.1,7.2-6.9,9.7-11.4l1.2-3
				c1.2-3.1,1.7-6.1,1.3-8.9c0-0.3-0.2-0.6-0.5-0.8c-4.5-3.5-7.4-8-8.5-13.7c-0.1-0.3-0.4-0.5-0.7-0.5c-0.1,0-0.2,0.1-0.2,0.1
				c-8.2,6.4-13.1,14.7-15,25c-0.1,0.4-0.4,0.7-0.8,0.6c-0.1,0-0.2-0.1-0.3-0.2c-5-4.4-2.4-15.5-0.4-20.7c2.9-7.5,5.4-13.2,4.7-20
				c-0.1-0.9-0.6-1.8-1.6-2.6c-12.7-10.9-24.9-8.1-39.8-5.3c-3.7,0.7-6.7,0.9-8.9,0.7c-10-1-20.5-6.6-26.8-14.2
				c-0.2-0.3-0.3-0.6-0.1-0.9l0.4-1c0.2-0.5,0.5-0.5,0.8-0.1l0.5,0.7c12.6,16.5,42.3,7.8,57-0.7c0.1-0.1,0.2-0.3,0.1-0.4
				c-0.1-0.1-0.2-0.2-0.4-0.1c-11.9,4.6-23,7.1-33.5,7.5c-7.8,0.3-15.3-1.9-22.6-6.7c-0.8-0.6-1.1-1.3-0.7-1.9
				c0.6-0.9,1.1-1.7,1.6-2.4c0.2-0.2,0.5-0.3,0.7-0.1c0,0,0,0,0,0c2.4,2.5,5.3,4.2,8.6,5.3c13,4.1,23.5,1,31.6-9.3
				c0.1-0.2,0.1-0.4-0.1-0.6c-0.1-0.1-0.3-0.1-0.4-0.1c-6.7,2.2-12.2,2.6-19.8,1.8c-10.3-1-20.6-2.1-30.8-3.3
				c-1.1-0.1-2-0.3-2.7-0.4c-0.4-0.1-0.5-0.3-0.2-0.6c2.3-2.4,5.1-3.3,8.3-2.8c8.9,1.6,17.1,2.2,24.6,2c2.8-0.1,5.8-0.9,9-2.5
				c0.4-0.2,0.6-0.8,0.4-1.2c-0.1-0.2-0.3-0.4-0.6-0.5c-4.2-1.2-24.2-5.7-20.3-13.1c1-1.9,3.4-2.3,4.7-0.6c0.2,0.4,0.8,0.5,1.1,0.2
				c0.4-0.2,0.5-0.8,0.2-1.1c-0.9-1.7-2-2.5-3.5-2.5c-5.7,0.2-4.9,5.4-6.3,8.6c-1.2,2.8-3.2,4.5-6,5.1c-2.9,0.7-4.6-0.8-6.3-2.8
				c-4.6-5.2-7-10.9-7.4-17.2l1.1-5.1c1.2-1.8,3.2-2.6,5.7-2.2c2.9,0.4,6.3,1.3,10.3,2.7c9.4,3.4,16.7-7,26.4-0.5
				c4.8,3,9.2,6.4,13.2,10.3c0.2,0.2,0.4,0.2,0.4-0.2c-0.1-4.1-2.3-7.6-6.4-10.5c4.4-2.5,6.3-0.3,10,0.9c0.1,0,0.2,0,0.3-0.1
				c0-0.1,0-0.2-0.1-0.2l-4-3.1c-0.2-0.1-0.2-0.4-0.1-0.6c0.1-0.1,0.1-0.1,0.2-0.1l7.6-2.1c0.3-0.1,0.5-0.3,0.6-0.6
				c4.3-11.8,20.4-12.5,30.7-12.9c0.3,0,0.6-0.1,0.8-0.3c1.1-0.9,1.7-1.9,1.7-3.3c0.1-8.2,4.4-12.7,12.9-13.6l9.6-1.7
				c12.5-3.9,22.8-10.3,32.7-18c0.4-0.3,0.8-0.3,1.2,0C510.9,243.8,510.9,244,510.6,244.2z M446.3,289.5c3.8-3.7,17.1-4.1,22.1-3.6
				c0.2,0,0.2-0.1,0.2-0.2v-0.3c0,0,0,0,0,0c-10.8-2.9-22.3,0.9-31.3,6.7c-2.2,1.4-3.7,2.3-4.3,2.6c-4.2,1.9-9.1,0.3-13.1,2
				c-1.3,0.6-1.3,1.2-0.1,1.9c2,1,4.1,1.8,6.4,2.3c0.3,0.1,0.4,0.3,0.4,0.5c0,1.5-0.4,2.9-1.4,4.1c-0.2,0.3-0.3,0.6-0.1,0.9
				c6.7,17.2,27.2,2.3,17.7-10.6c-0.5-0.6-0.3-1.5,0.3-2c0.1,0,0.1-0.1,0.2-0.1c11.5-5.9,26-4.5,37.7-0.6c0.1,0,0.3,0,0.3-0.1
				c0-0.1,0-0.2-0.1-0.3c-10.3-7.1-23.3-6-34.7-2.7C446,290,445.9,289.9,446.3,289.5z M478.7,295.4c-7.5-3.4-15.3-4-23.4-1.7
				c-0.2,0.1-0.3,0.2-0.3,0.4l0.1,0.2c0,0.1,0.1,0.1,0.1,0.1c10.6-1.8,19.6,0.9,28.6,6.1c5,2.9,8.7,4.9,13.8,4c1.1-0.2,1-0.4,0-0.6
				c-1.8-0.3-3.7-0.7-5.3-1.7C487.1,299.5,482.6,297.1,478.7,295.4z M487.3,309.6c-10.2-4.2-18.4-9.7-30.5-7.8
				c-0.1,0-0.1,0.1-0.1,0.2v0c0,0.1,0.1,0.1,0.2,0.1c5.5-0.1,10.7,0.9,15.7,3c6.4,2.7,9.6,3.9,15.2,5.1c0.1,0,0.2,0,0.2-0.1
				c0-0.1,0-0.1-0.1-0.2C487.7,309.8,487.5,309.7,487.3,309.6z M510.8,324.9c-0.4,0.1-0.7,0.1-1.1-0.1c-9.1-3.6-17.6-9.5-26.1-14.3
				c-4.1-2.3-8.9-3.4-14.4-3.2c-0.3,0-0.5,0.2-0.5,0.5l0,0.3c0,0.1,0,0.2,0.2,0.2c6.3,0.7,12.9,3.1,19.8,7.2
				c5.9,3.5,11.8,7.1,17.6,10.8c1.4,0.9,4.4,1.8,9.1,2.9c0.2,0,0.4-0.1,0.4-0.3c0-0.1,0-0.1,0-0.2l-0.5-1.4c-0.1-0.2,0-0.4,0.2-0.5
				c0.1,0,0.2,0,0.3,0l10.3,4.9c0.1,0,0.2,0,0.2-0.1c0-0.1,0-0.1,0-0.2c-4.8-4.4-11.1-8.1-17.6-8.7c-0.4,0-0.4,0.1-0.1,0.3l2.3,1.3
				C511.1,324.7,511.1,324.8,510.8,324.9z M552.1,317.3c-2.7,1-5.1,1.6-7.9,2c-5.4,0.8-11.8-0.7-17.3-1.9c-0.1,0-0.2,0-0.2,0.1
				c0,0.1,0,0.1,0.1,0.2c7.7,3.7,18.1,5.2,25.5,0.1c0.1-0.1,0.2-0.3,0.1-0.4C552.4,317.3,552.2,317.2,552.1,317.3z M489.7,328.8
				c3.3,2.3,8.3,6.5,12.6,9.5c0.5,0.4,0.6,0.3,0.4-0.3c-4.7-10.6-15.7-16.4-26.6-18.3c-0.1,0-0.1,0-0.1,0.1c0,0,0,0.1,0,0.1
				C481,323,485.6,325.9,489.7,328.8z M486.3,351.5c-2.1-10.7-7.1-22.4-16.2-29c-0.1-0.1-0.3-0.1-0.4,0c-0.1,0.1-0.1,0.3,0,0.4
				c6.8,7.9,12.2,19.2,16.3,28.9c0,0.1,0.1,0.1,0.2,0.1c0.1,0,0.2,0,0.3,0c0.1,0,0.1,0,0-0.1C486.4,351.7,486.4,351.6,486.3,351.5z
				 M434.1,338.5c-1.1,1-2.5,1.8-4.3,2.5c-3.3,1.3-1.4,5.3,1.8,5.3c4-0.1,5.1-3.3,5.3-6.8c0.5-7.5-9.6-10.4-15.8-11.6
				c-10.2-2-20.6-3.7-31.1-5c-0.2,0-0.3,0.1-0.4,0.3c0,0.1,0,0.2,0.1,0.3c1.2,1,2.8,1.7,4.6,2c8.6,1.4,17.2,3,25.7,4.6
				c3.9,0.8,13.9,2.7,14.5,7.6C434.5,337.9,434.4,338.2,434.1,338.5z M474.2,346.7c-3.9-4.9-14.1-16.2-21.2-14
				c-0.3,0.1-0.5,0.3-0.5,0.6c-1.1,6.9-2.9,13.7-5.3,20.3c-0.1,0.4,0,0.5,0.3,0.3c4.2-1.5,5.9-13.7,6.7-19.1c0-0.3,0.3-0.5,0.6-0.4
				c0,0,0,0,0,0c6.2,1.6,11.9,7.5,15.6,12.4c3.8,4.9,5.4,11.1,10.4,15c0.2,0.1,0.4,0.1,0.5-0.1c0.1-0.1,0.1-0.2,0.1-0.3
				c-1.4-9.5-5.6-20.2-13-26.8c-0.1-0.1-0.2-0.1-0.2,0c-0.1,0.1-0.1,0.2,0,0.2l6.3,11.7c0.1,0.1,0,0.2-0.1,0.3
				C474.4,346.8,474.3,346.7,474.2,346.7z M257.9,420.2L257.9,420.2c0-0.1,0-0.2-0.1-0.2c-28.1-12.6-30.4-42.5-23.3-68.6
				c1.8-6.7,5-12.6,9.6-17.7c0.2-0.2,0.1-0.3-0.1-0.2c-6.5,1.7-11.8,11.6-13.4,17.7c-3.8,14-4.6,31.4,0.9,44.7
				c4.9,11.6,13.6,19.8,26.2,24.5C257.8,420.3,257.9,420.3,257.9,420.2z M446.6,341.3c-1.8,6.5-3.8,11.1-9.5,14.9
				c-0.1,0.1-0.2,0.3-0.1,0.4c0.1,0.1,0.2,0.2,0.3,0.1c7.8-2.1,10.9-7.3,9.5-15.5C446.8,340.9,446.7,340.9,446.6,341.3z
				 M475.1,407.5c2.9,12.2,0.7,23.2-6.7,33c-6.5,8.7-14.5,15.6-24,20.8c-0.1,0.1-0.1,0.1-0.1,0.2l0,0c0,0.1,0.1,0.1,0.2,0.1
				c9-3.3,16.7-8.1,23.1-14.4c23-22.5,10.1-58.3-11.2-76.4c-0.1-0.1-0.2-0.1-0.3,0l-0.2,0.2c-0.1,0.1-0.1,0.2,0,0.3
				C465.7,382.5,472,394.6,475.1,407.5z M440.7,401.1c2-10.1,6.8-19.1,11.7-28.1c0.1-0.1,0-0.2-0.1-0.3c-0.1,0-0.2,0-0.3,0
				c-7.8,7.5-10.9,17.9-11.7,28.4c0,0.1,0,0.1,0.1,0.2l0,0C440.6,401.2,440.7,401.2,440.7,401.1z M521.9,416.3
				c0,0.2-0.1,0.3-0.3,0.3c-0.1,0-0.2-0.1-0.3-0.2c-1.5-5.2-4.3-9.7-8.2-13.4c-8.2-7.8-20.7-0.7-23.1,8.1c-2.6,9.6,2,19.1,12.6,20.2
				c2.9,0.3,5.3-0.4,7.3-2.2c1.7-1.5,2.7-3.6,2.9-6.3c0.4-5.4-3.1-13.8-10-11.2c-0.9,0.3-1.6,1-1.9,1.9l-0.6,1.6
				c-0.4,1-0.1,1.2,0.9,0.8c2.6-1.3,6-2.4,7.4,1.1c1.8,4.2,0.6,9.8-4.8,10.1c-9.1,0.5-10.8-6.7-9.8-14c0.7-4.9,3.4-8.2,8-9.9
				c7.1-2.6,13.6,5.9,15.8,12c4.1,11.5,5.2,23.2,3.3,34.9c-3,18.8-16.5,37.6-30.8,49.5c-1.5,1.2-1.4,1.4,0.3,0.4
				c17.5-10,29.9-29.6,33.3-49.3c0.7-4.1,1-9.1,0.9-15c-0.1-7,0-15.6-2.2-22.2c0-0.2-0.2-0.3-0.4-0.2c-0.1,0-0.2,0.2-0.2,0.3
				L521.9,416.3z M359.7,478.4c0.1,0,0.1,0,0.1-0.1c0-0.1,0-0.1-0.1-0.1c-11.5-1.8-21.7-6.6-30.5-14.3c-0.1-0.1-0.3-0.1-0.4,0
				c-0.1,0.1-0.1,0.2,0,0.3C335.7,474.7,347.5,479.1,359.7,478.4z M519.4,471.3c-0.1-0.1-0.2,0-0.3,0.1c-4,6.9-8.3,13.7-12.8,20.3
				c-2.8,4.1-5.9,8.1-9.1,11.9c-1.6,1.8-2.5,3-2.8,3.6c-5,9.5-9.1,19.4-12.2,29.6c0,0.1,0,0.2,0.1,0.2c0.1,0,0.1,0,0.2-0.1
				c12.7-21.6,25.3-41.8,37.1-65.3C519.5,471.4,519.5,471.3,519.4,471.3L519.4,471.3z M475.4,504.4c-23.4,6.6-50.7,12.2-73.9,1.8
				c-0.5-0.2-0.6-0.1-0.3,0.3c3.5,5.1,15.6,7.3,21.5,7.7c18.3,1.2,35.9-1.9,52.8-9.5c0.1,0,0.1-0.1,0.1-0.2v0
				C475.5,504.4,475.5,504.4,475.4,504.4z M493,506.8c-6.6,8.4-11.7,18.5-13.3,28.9c-0.2,1.3-0.1,1.4,0.4,0.1
				c3.7-9.9,8.1-19.4,13.3-28.6c0.1-0.1,0-0.3-0.1-0.4l-0.2-0.1C493.1,506.8,493,506.8,493,506.8z M420.6,515.3
				c-0.1-0.3-3-0.2-6.6,0.4c0,0,0,0,0,0c-3.6,0.6-6.5,1.3-6.4,1.6c0.1,0.3,3,0.2,6.6-0.4c0,0,0,0,0,0
				C417.8,516.4,420.7,515.7,420.6,515.3L420.6,515.3z M440.4,518.9l-0.2-1.3c0-0.1-0.1-0.2-0.2-0.2c0,0,0,0,0,0l-0.1,0
				c-19,2.4-34.4,4.7-34.4,5.1l0,0.3c0,0.4,15.4-1.2,34.4-3.6c0.1,0,0.1,0,0.2,0l0.1,0C440.4,519.1,440.4,519,440.4,518.9
				C440.4,518.9,440.4,518.9,440.4,518.9z"/>
			<path class="st8" d="M432.7,299.8l-1.3-0.5c-0.2-0.1-0.3-0.4-0.2-0.6c0-0.1,0.1-0.2,0.2-0.2l7.7-3.8c0.2-0.1,0.3,0,0.4,0.1
				c1.2,2.7,2.8,5.3,2.2,8.3c-1,5.3-5.9,10.4-11.3,6.3c-0.2-0.2-0.3-0.5-0.1-0.7c0.1-0.1,0.2-0.2,0.3-0.2c3.8-0.7,3.5-5.7,2.4-8.4
				C433,300,432.8,299.8,432.7,299.8z"/>
			<path class="st8" d="M310.2,518.6c1.5-3.2,4.2-7.6,6.4-9.1c4.2-2.8,9.5,1.8,5,5.3c-3.3,2.5-7,3.9-11.1,4.2
				C310.1,519.1,310,518.9,310.2,518.6z"/>
			<path class="st8" d="M368.1,543.3l5.4-8.8c0.2-0.4,0.8-0.5,1.1-0.3c0.1,0,0.1,0.1,0.2,0.1l6,6.1c0.2,0.2,0.2,0.6,0,0.8
				c0,0-0.1,0.1-0.1,0.1c-3.8,2.1-7.9,3-12.2,2.7C368,544,367.8,543.7,368.1,543.3z"/>
			<path class="st8" d="M323,551.2l-4.4,2.6c-0.2,0.1-0.3,0.1-0.5,0l-1.4-0.8c-0.1-0.1-0.2-0.2-0.2-0.4l-0.2-2.3
				c0-0.3,0.2-0.5,0.4-0.5c0,0,0.1,0,0.1,0l6,0.5c0.3,0,0.5,0.3,0.5,0.5C323.3,550.9,323.2,551.1,323,551.2z"/>
			<path class="st8" d="M325.5,558.9c-0.9-1.9-1.2-2.9,0.5-4.6c2.1-2,4.5-3.3,7.3-3.7c0.4-0.1,0.8,0.2,0.8,0.6c0,0,0,0.1,0,0.1
				c-0.2,6,0.3,11.9,1.5,17.7c0.1,0.4-0.1,0.5-0.4,0.3C330.9,567.2,327.7,563.7,325.5,558.9z"/>
		</g>
	</g>
	<g>
		<g>
			<path class="st2" d="M124.8,402.3c5.3-5.9,8-10.3,8-14c0-2.5-1-4.1-3-4.1c-1.4,0-2.6,1.1-3.5,2.5l-1.6-2c1.5-2.1,3.1-3.4,5.4-3.4
				c3.3,0,5.4,2.7,5.4,6.8c0,4.4-2.7,8.9-6.5,13.4c0.9-0.1,2-0.2,2.9-0.2h4.5v3h-11.5V402.3z"/>
			<path class="st2" d="M138.7,393c0-7.8,2.3-11.6,5.8-11.6c3.5,0,5.8,3.8,5.8,11.6c0,7.8-2.3,11.8-5.8,11.8
				C141,404.7,138.7,400.8,138.7,393z M147.6,393c0-6.5-1.3-8.8-3.1-8.8c-1.8,0-3.1,2.4-3.1,8.8c0,6.5,1.3,9,3.1,9
				C146.3,402,147.6,399.5,147.6,393z"/>
		</g>
		<g>
			<path class="st2" d="M651.2,401.8h3.9v-15.7h-3.2v-2.2c1.7-0.4,2.9-0.9,3.9-1.7h2.1v19.7h3.5v2.9h-10.2V401.8z"/>
			<path class="st2" d="M663.5,402.1l1.4-2.3c1,1.3,2.4,2.5,4.2,2.5c2,0,3.4-1.4,3.4-3.7c0-2.5-1.3-4.1-5.3-4.1v-2.6
				c3.5,0,4.7-1.7,4.7-4c0-2-1-3.2-2.7-3.3c-1.4,0-2.5,0.9-3.6,2.1l-1.5-2.2c1.4-1.6,3-2.7,5.1-2.7c3.2,0,5.4,2.1,5.4,5.8
				c0,2.6-1.2,4.4-3.1,5.3v0.2c2.1,0.6,3.7,2.6,3.7,5.6c0,4.1-2.7,6.5-6,6.5C666.5,405.1,664.7,403.7,663.5,402.1z"/>
		</g>
	</g>
	<g>
		<path class="st9" d="M432.8,568.1c-5-18.8-24.1-30.1-42.8-25.3c-18.7,4.8-29.7,23.9-24.8,42.7c5,18.8,24.1,30.1,42.8,25.3
			C426.7,606,437.8,586.9,432.8,568.1z"/>
		<path class="st8" d="M429.8,568.2l1.7-3.7c-0.8-2.2-1.8-4.3-3.3-6.6c-2-2.9-2.6-3.9-4.4-5.4l-4.1,0l-2.2-0.1l-15.4-5.8l-2.4-2
			l-3-2.8c-2.4,0-4.5,0.4-7,1.1c-3.3,1-3.1,0.9-5.3,1.9l-2.5,4.4l-1.2,3.3l-10.4,12.5l-2.5,1.5l-2.9,1.8c-0.6,2.1-0.9,4.3-1,6.8
			c0,3.3-0.4,4.2-0.2,6.6l3.1,2.3l2.8,2.3l0.1-0.1l9.6,14.6l-0.3-0.1l0.5,3.1l0.4,2.8c2,1.3,3.9,2.4,6.3,3.4
			c3.2,1.4,4.8,1.1,7.1,1.9l2.1-0.8l2.6-1.1l-0.1-0.1l18.1-5.3h1.6l3.4,0.2c1.7-1.5,3.1-3,4.6-5.1c2-2.8,2.5-3.7,3.7-5.7l-0.9-3.5
			l-0.6-3.3l0,0l0.8-15.6L429.8,568.2z M397.6,550.3l4.3-2.8l14.2,5.3l1.4,5.3l1.5,5.9l0,0l-11.1,9.6l-6-2.4l-6.4-2.5l-2.8-15.3
			L397.6,550.3z M386.6,553.1l5.3,0.4l2.9,15.9l-3.8,4.7l-4.3,5.2l-13-4.3l-1.4-5l-1.3-4.7l10.5-12.6L386.6,553.1z M383,601.2
			l-2.4-0.5l-10.4-15.8l1.6-4.1l1.9-4.8l13.4,4.4l3.3,5.2l3.5,5.6l-5.7,11.2L383,601.2z M393.3,606l-4.3-3.3l5.8-11.3l6.3-1.6
			l6.4-1.6l11.1,5.7l-2,5.1l-2,4.9l-17.6,5.2L393.3,606z M423.3,590.1l-4,3l-11.4-5.8l0.3-6.4l0.4-6.6l11.2-9.7l3.9,3.2l4,3.3
			l-0.8,16.4L423.3,590.1z"/>
	</g>
	<g>
		<g>
			<path class="st10" d="M376.5,177L376.5,177l1.2-9.6c0.2-1.3-0.1-2.3-0.8-3.2c-0.6-0.8-1.5-1.2-2.5-1.3l-0.1,0h-0.1h-35.9
				c-0.7,0-1.3,0.2-1.8,0.4H336h-6.9h-0.2l-0.2,0c-0.7,0.1-1.3,0.4-1.8,0.8c-0.5-1-1.5-1.7-2.7-1.9l-0.2,0h-0.2h-8.4h-0.2l-0.2,0
				c-1.1,0.1-2,0.7-2.6,1.5c-0.4-0.2-0.9-0.4-1.3-0.5l-0.2,0h-0.2h-6.7h-0.2l-0.2,0c-1.5,0.2-2.9,1.5-2.9,3.7v0.6v0l0,0l0.4,20.7
				l0,0l0,0c0.1,1.7,0.7,3.4,1.8,5c0.3,0.5,0.7,0.9,1,1.2h-0.4H303l-0.4,0.1c-0.6,0.1-2,0.7-2.6,2.7l-0.1,0.4v0.4v7.2v0.4l0.1,0.4
				c0.4,1.6,1.3,2.3,2,2.7l0.6,0.3h0.7h2.3l-2.4,16.8h-0.2l-0.2,0c-1.7,0.3-2.9,1.7-2.9,3.5v7.2v0.4l0.1,0.4c0.6,1.9,2,2.5,2.6,2.7
				l0.4,0.1h0.4h6.4h0l0,0c3.8-0.1,6.6-2.1,7.6-5.6l0.1-0.2l0-0.2l0-0.3c0.3,1.1,0.9,2.1,1.6,3.1c1.4,1.9,3.1,3,5,3.2l0.1,0h0.1
				h10.9h0.3l0.3-0.1c1.1-0.2,2-0.8,2.6-1.6h9.7c0.3,0.8,1.1,1.8,3.1,2.2l0.3,0h0.3h9h0.2l0.2,0c1.5-0.2,2.6-1,3.2-2.2h9.2h0.4
				l0.4-0.1c1.7-0.4,2.8-1.9,2.8-3.6v-7.2c0-1.7-1.1-3.1-2.8-3.5c0.2-0.2,0.4-0.3,0.6-0.5c1.7-1.7,2.7-3.8,2.8-6l0-0.1v-0.1v-25.8
				v-0.2l0-0.2c-0.1-0.7-0.3-1.3-0.7-1.8c0.4-0.5,0.6-1.1,0.7-1.7l0-0.2v-0.2v-7.2v-0.2l0-0.2c-0.1-0.9-0.6-1.8-1.3-2.3
				C376.5,177.3,376.5,177.1,376.5,177L376.5,177z M334.6,223.1c0.1,0.8,0.4,1.5,0.8,2c-0.2,0.2-0.4,0.5-0.5,0.7h-0.9V209h0.7v13.8
				v0.2L334.6,223.1z"/>
			<path class="st2" d="M325.1,197.5h10c0.3,0.1,0.5,0.3,0.6,0.6v7.2c-0.1,0.4-0.3,0.6-0.6,0.7h-3.4c-0.4,0.1-0.6,0.3-0.7,0.7v20.8
				c0,0.7,0.2,1.1,0.7,1.2h4c0.3,0,0.5,0.1,0.6,0.4v7.2c-0.1,0.4-0.4,0.6-0.9,0.7h-10.9c-1-0.1-2-0.8-2.9-2
				c-0.9-1.2-1.4-2.5-1.4-3.9v-24.6c-0.1-0.4-0.4-0.6-0.9-0.7h-15.9c-0.2-0.1-0.3-0.3-0.4-0.7v-7.2c0.1-0.3,0.3-0.5,0.4-0.6h10.5
				c0.4-0.1,0.6-0.3,0.7-0.7v-31c0.1-0.3,0.3-0.5,0.7-0.6h8.4c0.3,0.1,0.5,0.3,0.6,0.6v31.1C324.3,197.3,324.6,197.5,325.1,197.5z
				 M309.8,237.2h-6.4c-0.2-0.1-0.3-0.3-0.4-0.6v-7.2c0-0.3,0.1-0.6,0.4-0.6h1c1,0,1.6-0.8,1.8-2.4l2.5-18c0-0.4,0.1-0.7,0.4-0.7
				h8.5c0.5,0.1,0.7,0.6,0.6,1.3l-3.7,24.7C314,236,312.4,237.2,309.8,237.2z M311.2,167l0.4,16.9c0.4,0.6,0.9,1.1,1.3,1.6v7.2
				c-0.1,0.3-0.3,0.6-0.7,0.6h-4.5c-0.9,0-1.8-0.6-2.6-1.7c-0.8-1.1-1.2-2.2-1.3-3.4l-0.4-20.7V167c0-0.4,0.1-0.7,0.4-0.7h6.7
				C310.9,166.3,311.1,166.5,311.2,167z M337.1,167l-2.4,23.4c-0.3,1.1-0.9,2-2,2.7c-1.1,0.7-2.1,1-3,1h-3c-0.3,0-0.6-0.2-0.6-0.7
				v-7.8c0.4-0.5,0.8-1.1,1.2-1.6l1.2-16.9c0-0.4,0.2-0.7,0.6-0.7h6.9h0.6C337.1,166.2,337.2,166.4,337.1,167z M360.9,224v2.5
				c0.1,0.3,0.5,0.5,1.2,0.4h11.5c0.4,0,0.6,0.2,0.6,0.6v7.2c0,0.4-0.2,0.6-0.6,0.7h-10.8c-0.6-0.1-0.9,0-1,0.4v1.2
				c-0.1,0.3-0.4,0.5-0.9,0.6h-9c-0.6-0.1-0.8-0.3-0.9-0.4V236c-0.1-0.3-0.3-0.4-0.6-0.4h-12.6c-0.3-0.1-0.4-0.3-0.4-0.7v-7.3
				c0-0.3,0.2-0.4,0.6-0.4h11.7c0.5,0,0.9-0.1,1-0.4V224c-0.1-0.4-0.4-0.6-0.9-0.6h-11.7c-0.3,0.1-0.6-0.1-0.6-0.6v-31.1
				c0-0.4,0.2-0.6,0.6-0.7h12.1c0.3,0,0.4-0.2,0.4-0.6v-1.8c0-0.3-0.1-0.5-0.4-0.6h-12.1c-0.3,0-0.4-0.2-0.4-0.6v-6.9
				c0-0.5,0.3-0.8,0.9-0.9h11.7c0.3,0,0.4-0.1,0.4-0.4v-1.9c0-0.3,0.2-0.5,0.6-0.6h9.6c0.4,0.1,0.6,0.3,0.7,0.6v1.9
				c0,0.3,0.2,0.4,0.6,0.4h12c0.3,0.1,0.5,0.3,0.6,0.6v7.2c-0.1,0.3-0.3,0.6-0.6,0.6h-12c-0.3,0.1-0.6,0.3-0.6,0.6v1.8
				c0,0.3,0.2,0.6,0.6,0.6h12c0.3,0.1,0.5,0.3,0.6,0.7v25.8c-0.1,1.5-0.8,2.9-2,4.1c-1.2,1.2-2.5,1.9-3.9,1.9h-6.9
				C361.4,223.4,361,223.6,360.9,224z M338.3,165.8h35.9c0.5,0.1,0.7,0.4,0.6,1.2l-1.2,9.6c-0.1,0.3-0.3,0.6-0.6,0.6h-7.8
				c-0.4-0.1-0.7-0.6-0.8-1.5c-0.1-0.9-0.6-1.4-1.6-1.5h-13.9c-0.6,0.1-1,0.7-1.2,1.5c-0.2,0.9-0.6,1.4-1.2,1.5h-8.4
				c-0.4-0.1-0.6-0.4-0.4-1v-9.9C337.7,165.9,337.9,165.8,338.3,165.8z M350.7,201.9v-1.9c0-0.3-0.1-0.4-0.4-0.4h-3.7
				c-0.3,0-0.6,0.1-0.6,0.4v1.9c0,0.3,0.2,0.6,0.6,0.6h3.7C350.5,202.4,350.7,202.2,350.7,201.9z M350.7,213.8V212
				c0-0.3-0.1-0.5-0.4-0.6h-3.7c-0.3,0.1-0.6,0.3-0.6,0.6v1.8c0,0.3,0.2,0.6,0.6,0.6h3.7C350.5,214.4,350.7,214.2,350.7,213.8z
				 M365.2,199.5h-3.6c-0.5,0-0.7,0.1-0.7,0.4v1.9c0,0.3,0.2,0.6,0.7,0.6h3.6c0.3,0,0.5-0.2,0.6-0.6v-1.9
				C365.8,199.6,365.6,199.5,365.2,199.5z M365.2,211.4h-3.6c-0.5,0.1-0.7,0.3-0.7,0.6v1.8c0,0.3,0.2,0.6,0.7,0.6h3.6
				c0.3,0,0.5-0.2,0.6-0.6V212C365.8,211.6,365.6,211.4,365.2,211.4z"/>
		</g>
		<g>
			<path class="st10" d="M499,168.1c-0.3-1.7-1.7-2.9-3.5-2.9h-15.5c-0.5-1-1.4-1.7-2.6-1.9l-0.2,0h-0.2h-9.7h-0.2l-0.2,0
				c-1.7,0.2-2.9,1.5-3.1,3.1l0,0.2v0.2v8h-1.2h-0.2l-0.2,0c-0.1,0-0.1,0-0.2,0v-5c0-1.8-1.2-3.2-2.9-3.5l-0.2,0h-0.2h-8.6
				c-0.3-1.6-1.5-2.7-3.1-3l-0.2,0h-0.2h-9H437l-0.2,0c-1.6,0.2-2.8,1.4-3.1,3h-8.6h-0.2l-0.2,0c-1.7,0.3-2.9,1.7-2.9,3.5v7.2
				c0,1.2,0.4,2.2,1.1,2.8c-0.6,0.6-1.1,1.5-1.1,2.7v6.6c0,1.4,0.8,2.6,1.9,3.2c-0.1,0.2-0.1,0.4-0.1,0.6l0,0.2v0.2V236v0.2l0,0.2
				c0.2,1.9,1.7,3.2,3.5,3.2h8.2c1.8,0,3.2-1.1,3.6-2.8l0.1-0.4V236v-7.8h1.1c-0.3,0.5-0.5,1.2-0.5,1.8v6c0,2,1.5,3.6,3.4,3.6h7.9
				l0.1,0c5.5,0,7.8-3.5,8.8-6.8c0.5,2.1,1.4,3.7,2.8,4.8c2,1.7,4.9,2.5,8.9,2.5c0.1,0,0.3,0,0.4,0l23.5,0h0.2l0.2,0
				c1.7-0.2,2.9-1.5,3.1-3.1l0-0.2v-0.2v-6v-0.2l0-0.2c-0.1-0.6-0.3-1.2-0.7-1.7c0.3-0.5,0.6-1,0.7-1.7l0-0.2v-0.2v-6v-0.2l0-0.2
				c-0.1-0.8-0.5-1.5-1-2c0.5-0.5,0.9-1.2,1-2l0-0.2v-0.2v-5.2V210l0-0.2c-0.1-0.8-0.5-1.5-1-2c0.5-0.5,0.9-1.2,1-2l0-0.2v-0.2v-5.4
				v-0.2l0-0.2c-0.3-1.7-1.7-2.9-3.5-2.9h-0.4c2-1.6,3.1-4,3.3-7.2l0-0.1v-0.1v-10.8c0-0.5-0.1-0.9-0.2-1.3c0.4-0.5,0.7-1.2,0.8-2.1
				l0-0.1v-0.1v-6v-0.2L499,168.1z"/>
			<path class="st2" d="M459.4,182.6v6.6c-0.1,0.3-0.3,0.6-0.6,0.6h-33.7c-0.3,0-0.4-0.2-0.4-0.6v-6.6c0-0.4,0.1-0.7,0.4-0.7h2.8
				c0.7,0.1,1.2-0.2,1.5-0.7l-0.6-2.7c-0.1-0.3-0.4-0.5-0.9-0.6h-2.8c-0.3,0-0.4-0.2-0.4-0.7v-7.2c0-0.3,0.1-0.5,0.4-0.6h10.3
				c0.7,0.1,1.1,0,1.2-0.4v-1.9c0-0.3,0.2-0.5,0.6-0.6h9c0.3,0.1,0.5,0.3,0.6,0.6v1.6c0.1,0.4,0.3,0.6,0.7,0.7h10.8
				c0.3,0.1,0.4,0.3,0.4,0.6v7.2c0,0.5-0.1,0.7-0.4,0.7H457c-0.3,0.1-0.5,0.3-0.6,0.6l-1.2,2.4v0.6c0.1,0.3,0.3,0.4,0.7,0.4h2.8
				C459.1,181.9,459.3,182.1,459.4,182.6z M451,236.6H443c-0.3,0-0.4-0.2-0.4-0.6v-6c0-0.3,0.1-0.6,0.4-0.6h4.3
				c0.3-0.1,0.5-0.3,0.6-0.7V226c-0.1-0.4-0.3-0.6-0.6-0.7h-10.8c-0.3,0.1-0.6,0.3-0.6,0.7v10c-0.1,0.4-0.3,0.6-0.7,0.6H427
				c-0.3,0-0.6-0.2-0.6-0.6v-42.7c0-0.3,0.2-0.5,0.6-0.6h10.8H457c0.3,0.1,0.5,0.3,0.6,0.6v35.3C457.3,234,455.1,236.7,451,236.6z
				 M436.6,205.3h10.8c0.3,0,0.5-0.1,0.6-0.4v-3.1c-0.1-0.3-0.3-0.5-0.6-0.6h-10.8c-0.3,0.1-0.6,0.3-0.6,0.6v3.1
				C436.1,205.2,436.3,205.3,436.6,205.3z M436.6,217.4h10.8c0.3,0,0.5-0.2,0.6-0.6v-3.1c-0.1-0.3-0.3-0.5-0.6-0.6h-10.8
				c-0.3,0.1-0.6,0.3-0.6,0.6v3.1C436.1,217.2,436.3,217.4,436.6,217.4z M440.2,181.8h2.8c0.6,0,1-0.1,1.3-0.4l1.8-2.4v-0.6
				c0-0.3-0.2-0.5-0.6-0.6h-7.2c-0.5,0.1-0.7,0.3-0.6,0.6l1.2,3C439.2,181.8,439.6,181.9,440.2,181.8z M467.1,166.2h9.7
				c0.3,0.1,0.4,0.3,0.4,0.6v0.7c0.1,0.3,0.3,0.6,0.7,0.6h17.4c0.3,0,0.5,0.1,0.6,0.4v6c-0.1,0.5-0.3,0.7-0.6,0.7h-17.4
				c-0.4,0.1-0.6,0.3-0.7,0.6v1c0.1,0.5,0.3,0.7,0.7,0.7H495c0.3,0.1,0.4,0.3,0.4,0.6v10.8c-0.3,4.3-2.7,6.5-7.2,6.6H473
				c-0.6,0-0.9,0.2-1,0.6v2.4c0.1,0.5,0.4,0.7,1,0.7h22.5c0.3,0,0.5,0.1,0.6,0.4v5.4c-0.1,0.3-0.3,0.6-0.6,0.6h-22.9
				c-0.3,0.1-0.6,0.3-0.6,0.6v2.1c-0.1,0.5,0.1,0.8,0.6,1h22.9c0.3,0.1,0.5,0.3,0.6,0.6v5.2c-0.1,0.3-0.3,0.6-0.6,0.6h-22.9
				c-0.4,0.3-0.6,0.7-0.6,1.3v1.3c-0.1,0.6,0.1,0.9,0.6,1h22.9c0.3,0.1,0.5,0.3,0.6,0.6v6c-0.1,0.3-0.3,0.5-0.6,0.6h-22.9
				c-0.3,0-0.6,0.2-0.6,0.6v1.8c0,0.3,0.2,0.5,0.6,0.6h22.9c0.3,0,0.5,0.2,0.6,0.6v6c-0.1,0.3-0.3,0.5-0.6,0.6h-23.5
				c-3.4,0-5.9-0.6-7.4-1.8c-1.5-1.3-2.3-3.8-2.2-7.6v-12.3v-26.4c0-0.3,0.2-0.5,0.7-0.6h22.2c0.3,0,0.5-0.2,0.6-0.6v-2.4
				c-0.1-0.3-0.3-0.5-0.6-0.6h-22.9c-0.3-0.1-0.6-0.3-0.6-0.7v-5.8c0-0.3,0.2-0.5,0.6-0.6h3.7c0.3,0,0.4-0.2,0.4-0.7v-10.2
				C466.6,166.5,466.8,166.3,467.1,166.2z"/>
		</g>
	</g>
</g>
</svg>
