<?xml version="1.0" encoding="UTF-8"?>
<svg data-name="图层_1" xmlns="http://www.w3.org/2000/svg" version="1.1" viewBox="0 0 800 800">
  <!-- Created by @FCLOGO 2025-3-11 GMT+8 14:45:57 . https://fclogo.top/ -->
<!-- FOR PERSONAL USE ONLY NOT FOR COMMERCIAL USE -->
<!-- Created by @FCLOGO 2025-3-11 GMT+8 14:45:57 . https://fclogo.top/ -->
<!-- FOR PERSONAL USE ONLY NOT FOR COMMERCIAL USE -->
  <path d="M659.2141,474.5702c-.0046-.666-.0092-1.2643-.0092-1.7921V71.4094l-28.7484-5.6373c-3.2842-.644-82.1403-15.7721-230.4692-15.7721s-227.1981,15.1602-230.4825,15.8054l-28.7349,5.6461v404.6496c0,17.0099,0,68.7737,35.2253,125.0632,40.0535,64.0051,111.7775,112.9185,213.1795,145.3817l10.7891,3.454,10.801-3.4166c55.5079-17.5585,102.7001-40.6018,140.2655-68.4901,32.123-23.8481,57.6196-51.4914,75.7812-82.162,32.8633-55.4987,32.5167-105.0711,32.4026-121.3611ZM400.0286,712.6428c-218.7375-70.0272-223.6605-198.759-223.6605-236.5417V100.7358s77.0423-15.1376,223.6193-15.1376,223.6193,15.107,223.6193,15.107v372.073c0,23.2603,7.1381,166.8838-223.5781,239.8647ZM200.1208,445.0873c.1846,11.6302-4.5229,15.1378-4.5229,15.1378,0,0,.7385-4.0614.6462-7.7535-.0924-3.6922-3.153-26.8602-3.1383-35.0752.0923-51.9666,21.6912-74.95,21.7834-86.3956.0424-5.2618-4.6151-9.5071-4.7075-25.6602-.1308-22.8925,14.9531-24.2756,15.0454-42.0901.0737-14.2156-13.9378-20.0297-13.7531-45.3208.0909-12.4609,3.4944-21.3007,3.4944-21.3007,0,0,28.3501-4.9441,41.3956-2.8519-3.5075,7.2612-5.4537,16.4302-5.5382,24.4911-.2461,23.5065,15.3839,27.1986,15.3839,43.9362,0,16.8299-16.8915,25.3218-16.4915,40.6133.3494,13.3577,7.3535,23.3834,7.3535,23.3834-54.7664,52.7358-57.0198,114.5446-56.9509,118.8862ZM603.8538,452.4716c-.0923,3.6921.6462,7.7535.6462,7.7535,0,0-4.7075-3.5075-4.5229-15.1378.0689-4.3416-2.1846-66.1504-56.951-118.8862,0,0,7.0041-10.0258,7.3535-23.3834.4-15.2916-16.4915-23.7834-16.4915-40.6133,0-16.7376,15.6299-20.4297,15.3839-43.9362-.0844-8.061-2.0307-17.2299-5.5383-24.4911,13.0456-2.0922,41.3957,2.8519,41.3957,2.8519,0,0,3.4034,8.8398,3.4944,21.3007.1846,25.2911-13.8268,31.1052-13.7532,45.3208.0923,17.8145,15.1763,19.1977,15.0455,42.0901-.0923,16.153-4.7499,20.3983-4.7075,25.6602.0923,11.4456,21.6912,34.429,21.7835,86.3956.0146,8.215-3.046,31.383-3.1383,35.0752ZM401.5873,276.3575c-57.9232,0-127.0993,30.0077-165.4684,90.6414-17.5562,27.7437-29.4755,59.9755-29.4755,102.0871,0,55.1356,21.2254,97.611,47.0129,127.0089,46.1515,52.6127,103.3034,66.7042,148.3002,66.7042,55.3535,0,79.8667-24.6398,91.0414-47.5052,6.8879-14.0938,9.138-26.8684,9.138-34.7059,0-25.3528-12.8301-41.3517-12.8301-41.3517,0,0,14.0176-8.2462,14.1223-17.353.0923-8.0303-11.5536-13.2305-11.4456-27.814.0308-4.1537,3.0152-6.4304,3.0768-6.892.0615-.4615-.8923-1.1537-1.5692-1.1845-.6769-.0308-5.169,2.6921-9.5073,2.5998-4.3382-.0922-5.4151-2.0922-5.4151-3.692s1.8153-4.246,1.7845-4.7382c-.0308-.4924.623-2.5383-4.3382-2.0768-3.8848.3614-8.0458,3.7835-7.9688,9.0918.123,8.4919,15.465,23.8213,15.465,23.8213,0,0-19.0341,9.8693-26.0491,10.2693-.8152.0465-3.3758-1.6938-8.215-3.2614-12.7259-4.1223-22.6852-2.6726-49.2469-22.7065-34.1027-25.7218-25.7338-52.7973-25.7338-52.7973,0,0-9.7226,7.3842-11.4456,32.4906-5.0459-25.6807,13.7839-43.9362,13.7839-43.9362,0,0,11.8148,8.6149,30.1523,8.2457,8.4938-.171,17.5684-2.8461,18.8298-2.8306,1.2615.0153,2.6152.8153,2.4614,1.8461-.1538,1.0307.8693,3.0151-13.8531,2.9844-3.2176-.0067-7.5926-.0656-9.6534-.1538-2.0131-.0862-1.9999,2.6461,0,3.569,1.9999.923,12.6559,6.5553,15.6299,8.1227,2.9741,1.5673,22.4913.7076,22.7065,1.1077,1.387,2.5757-8.3688,1.723-8.1842,4.7382.1846,3.0151,5.046,4.5535,16.5839,4.9535,11.5378.4,21.9547-3.1697,22.0604-8.0303.123-5.6613-9.1254-3.5106-7.692-5.7844.3233-.5128,6.3074-4.9229.3692-10.2148-.123,3.446-1.9999,5.1997-6.4304,5.0612-.6068-.0189-5.9997-6.0458-11.9687-10.5994-6.454-4.9238-16.4299-9.4765-16.4915-11.3533-.0615-1.8768,1.7845-4.4614,3.9383-4.4614s11.1995,8.9841,11.1995,8.9841c0,0,18.5221,3.0768,30.3984,3.0153.3692,3.6613-8.6765,7.938-8.6765,7.938,0,0,10.8917,4.2152,17.8452-5.2305,18.2761,4.369,23.1373-10.0303,23.1373-16.3069s-4.3382-9.4149-9.8763-9.4149-8.6765,2.9537-33.2291,4.5229c-.1515-4.7248,2.3076-3.6614,1.9999-13.8147-.1823-6.0157-3.5242-12.3773-5.6613-15.5684-4.5536-6.7997-20.4297-9.8458-46.2746-30.8907-25.8448-21.0451-32.5829-37.1981-36.2443-37.2905-1.907-.048-3.2614,1.8461-3.2614,2.9537s6.3382,19.1375,12.984,27.5063c2.8518,3.5912,9.5877,12.2812,16.7991,18.276,9.5939,7.9752,19.8298,12.7377,19.6298,13.8454-.2313,1.2807-.6313,1.6887-1.5999,1.723-2.1692.0769-6.0172-4.634-10.8303-7.3842-2.5845-1.4769-9.6666-1.8996-21.2604-9.9688-11.8917-8.2764-16.9684-16.8145-17.9991-16.7375-1.0308.0768-1.1818,2.2768-1.2307,3.9382-.2461,8.3688,8.985,20.6146,8.3688,20.3066-1.2307-.6153-17.7222-7.1996-22.8297-7.9073-1.5848-.2195-2.4367,1.7594-.7999,3.9691,6.1535,8.3073,8.9841,15.5684,7.3842,15.2607-1.1288-.217-6.0304-12.7993-21.0451-13.0455-5.7835-.0948-9.768,1.9979-9.7225,2.9537.0615,1.2922,3.7216,3.8216,5.7842,5.5381,2.0627,1.7166,15.1377,14.1839,15.1377,14.1839l-8.3073,3.2306,2.1229,7.015s7.5381.9231,7.1997,3.4152-3.0922,3.2075-7.8919,3.1614c-2.4003-.0231-28.7524,15.7607-29.56,25.1526-.2333,2.7129,2.7476,2.8954,4.4997,1.4999,5.2151-4.1536,13.1533-8.7227,15.9684-8.6765,1.6931.0278,4.8306.4922,1.1076,2.7691-2.0768,1.2701-23.9064,14.953-28.4115,25.0518-7.3425,16.4592-2.6675,20.5459-1.4023,20.5459,3.2306,0,5.4459-11.0764,18.3376-10.584.246,6.1534-1.5443,4.7999-1.4769,18.3374.123,24.7373,9.5297,34.9495,10.6456,35.0752,4.369.4922.123-13.5994,4.8921-13.4762,1.7335.0447,2.8115,5.7792,4.9843,10.7994,5.3536,12.3687,16.6082,35.9313,35.1059,37.6288,4.8613.4462,3.0698-4.3676,5.1382-9.061,2.2736-5.1589,9.3226-10.4764,16.4299-10.1072,13.0587.6784,31.1061,18.1837,30.183,40.4288-.923,22.245-18.8913,43.8439-45.9668,43.2285-15.8542-.3603-60.3122-4.7312-98.0258-34.4598-26.6933-21.0416-49.5764-43.6135-53.7203-109.4713-.8845-14.0563,2.342-29.5683,5.9074-43.1978,17.2719-66.0248,81.1871-120.7511,157.8996-119.6246,39.6302.582,67.9478,12.6935,91.5646,28.3678,82.7034,54.8895,79.4661,167.0798,76.0576,187.4365-27.5677,16.6145-20.6758,43.0747-20.6758,43.0747l2.5845-2.7076s-2.4614,30.5215,9.2303,53.2896c-1.1692-35.1367,6.3997-47.5052,10.5841-54.8895,4.1843-7.3842,24.8602-41.1055,24.8602-93.2875,0-40.3671-12.7726-74.7209-29.5369-101.6562-42.8197-68.7988-114.7019-91.5645-163.9301-91.5645ZM439.1854,395.3361c5.2612,2.9536,8.1227,1.1076,12.3686,3.7843,3.4152,1.7538,6.1843,7.0151,4.7998,11.8149-4.6767-3.3845-9.0004-2.5632-11.6302-3.6922-6.3689-3.8767-5.5382-11.907-5.5382-11.907ZM302.3106,164.2261c-10.6637.2808-15.9814.5844-24.6553.911v-56.186c8.674-.3265,13.9998-.6302,24.7003-.911v19.4845c4.5645-.1183,9.1288-.2323,13.6935-.3423v-19.4891c10.701-.2612,16.0825-.4994,24.7587-.7147v56.1861c-8.6762.2152-14.1866.4534-24.8507.7147v-21.5098c-4.5488.1091-9.0977.2224-13.6464.3397v21.5169ZM369.4337,162.8635c.8377-3.0158,1.7174-5.2843,2.5552-8.2997,6.2149-.0429,12.6238-.0107,18.8392-.0296.6829,3.2371,1.2083,5.2869,2.0212,8.2446,8.8879-.0225,18.14-.054,27.0284-.0273-7.1703-18.7459-14.3406-37.4769-21.5107-56.1926-11.1398.0146-22.2792.068-33.4178.16-6.7315,18.7822-12.5049,37.3555-19.2358,56.1677,8.2255-.1035,15.4938.0383,23.7203-.0229ZM381.4037,120.9193c1.7883,7.0392,3.2422,11.9273,5.0305,18.9683-3.6633.014-6.7669-.0685-10.4302-.0461,1.8749-7.0595,3.5248-11.8651,5.3997-18.9222ZM423.7708,162.7739v-56.1861c10.0383.0383,18.2993.3356,28.3371.4399,5.1228,10.7995,13.6454,28.2778,13.6454,28.2778l.915.0045s-.035-16.8556.0234-28.1745c6.7692.2068,14.3317.6421,21.1682.9011v55.4301c-10.0368-.1787-16.7145.1125-26.7525,0-4.8974-10.6387-14.8761-32.3325-14.8761-32.3325h-.6769c-.0585,11.4221.151,20.1995.0923,31.6215-6.7895-.056-15.0862.0442-21.8759.0183ZM492.0063,164.1971c6.7462-9.4513,13.4918-18.8873,20.2374-28.3079-6.3131-9.2976-12.6266-18.5818-18.9401-27.8527,8.7066.1719,19.6954.7219,28.4008.945,2.7095,5.3691,3.8133,7.4252,6.5227,12.7994,2.769-5.3229,3.5999-6.7382,6.2151-12.1225,8.243.2424,18.5264.7272,26.7679,1.0153-6.4263,8.9214-13.139,17.0694-19.5664,26.0186,6.6867,9.7874,13.6807,20.0687,20.3664,29.8862-8.7027-.3059-19.6636-.7299-28.3679-.9846-3.0842-5.75-4.1152-7.5481-7.1996-13.2916-3.1996,5.5729-3.8768,6.9119-7.0765,12.4917-8.2441-.2063-19.1145-.4365-27.3597-.597ZM591.7622,168.5187c-8.2708-.3468-16.5424-.6707-24.8148-.9716v-56.1861c8.2726.301,16.5441.6247,24.8148.9716v56.1861ZM244.3647,151.3793c-.0615-4.7997-8.1779-3.264-16.2454-5.0459-8.994-1.9865-17.9521-6.3349-17.9683-16.553-.0105-6.6461,4.3074-19.2913,30.8292-20.122,26.5218-.8307,27.0756,15.4454,27.0756,15.4454l-23.2603,1.1076s-.4154-3.6306-5.2306-3.6921c-2.57-.0328-4.6151.7384-4.6151,2.8307,0,3.5947,10.1583,3.2263,19.599,5.6612,8.1747,2.1084,15.8145,7.2612,15.8145,15.753,0,8.9534-9.2302,21.5374-34.429,21.5374-26.6448,0-27.9985-16.4299-27.9985-16.4299l24.9217-1.1691s.5539,4.1229,5.969,4.6767c2.1434.2192,5.5666-1.7839,5.5382-3.9998ZM272.1965,207.8349v25.2946c3.1313-.1882,6.263-.37,9.395-.5446v-32.6801c2.0933-.1167,4.1866-.2305,6.28-.3416-.0001,10.8935-.0001,21.7867,0,32.6801,3.1168-.1651,6.2343-.3234,9.3516-.4751v-25.2947c2.1402-.1041,4.2808-.2051,6.4214-.303v34.5259c-2.1406.098-4.2812.1991-6.4214.303v-2.631c-10.4844.5103-20.9659,1.0958-31.4442,1.7565.0001-10.6317.0001-21.2632,0-31.8949,2.1392-.1348,4.2783-.2666,6.4176-.3952ZM352.3336,204.1152v-6.1852c-13.968.3287-27.9336.7906-41.8949,1.3858v6.1851c4.0176-.1712,8.0358-.3315,12.0542-.4808-.0001,1.3233-.0001,2.6464,0,3.9696-3.5219.1309-7.0437.2701-10.5652.4178v30.5102c2.0787-.0872,4.1576-.1714,6.2365-.2527v-2.2156c8.6416-.338,17.2847-.6249,25.9287-.8607v2.2618c2.0485-.0559,4.0969-.1089,6.1455-.1591.0001-10.1855.0001-20.371,0-30.5564-3.6781.0899-7.3561.1892-11.0341.2979v-3.9696c4.3762-.1292,8.7526-.2452,13.1292-.3481ZM328.7302,204.7974c1.3965-.0479,2.7929-.0945,4.1896-.1396v3.9696c-1.3967.0452-2.793.0919-4.1896.1396v-3.9696ZM318.1642,215.4323c1.4272-.056,2.8548-.1104,4.2821-.1633-.0311,1.54-.1625,2.7982-.3955,3.7767-.2324.9776-.644,1.8858-1.2335,2.7233-.5899.8387-1.4741,1.7567-2.6531,2.7566v-9.0933ZM344.093,230.3574c-8.644.2357-17.2871.5227-25.9287.8607v-5.1694c1.3343,1.1633,2.6686,2.3276,4.0028,3.4933,2.2964-1.9005,3.9254-3.9351,4.8875-6.1082.9612-2.1719,1.5047-4.9675,1.6291-8.3878,1.4121-.0484,2.824-.0956,4.2361-.1412v5.5388c-.0001,2.3392.5123,3.9691,1.536,4.8898,1.0247.9219,2.7474,1.3442,5.1677,1.2731,1.4898-.0437,2.9797-.0858,4.4695-.1264v3.8772ZM344.093,214.5715v6.0005c-.7761.0211-1.552.0428-2.3279.0648-1.0553.03-1.7463-.1115-2.0718-.4249-.3256-.3132-.489-.9778-.4888-1.9938v-3.5078c1.6293-.0482,3.259-.0944,4.8885-.1388ZM366.0698,197.5114c0,1.2308,0,2.4617,0,3.6925,2.7782-.048,5.5568-.0907,8.3351-.1282v-4.5697c2.2194-.0299,4.4392-.0565,6.6588-.0797v4.5697c2.8252-.0294,5.6502-.0536,8.4753-.0721,0-1.2155,0-2.4308,0-3.6463,2.2198-.0147,4.4398-.0259,6.6595-.0338h0c-.0001,2.985-.0001,5.9699,0,8.9548-6.1317.0218-12.2632.0692-18.3945.1423s-12.2623.1719-18.393.2964v-9.001c2.2195-.045,4.439-.0867,6.6586-.125ZM357.083,209.455c5.603-.1196,11.2062-.2178,16.8096-.2948-.1555-.5514-.3421-1.1491-.5589-1.7924,2.5767-.2515,5.1533-.4982,7.73-.7406.2639.8127.5279,1.6255.7918,2.4383,5.5259-.0557,11.0519-.0906,16.5783-.1045h0v10.0623c-2.1887.0056-4.3776.0145-6.5662.0264,2.1887-.0119,4.3776-.0209,6.5662-.0264-2.1886.0056-4.3776.0145-6.5662.0264,0-1.6001,0-3.2,0-4.8002-9.3914.0519-18.7824.1641-28.1727.3363v4.8002c-2.204.0404-4.408.0842-6.612.1313v-10.0624ZM364.5794,221.955c2.9392-.0527,5.8785-.091,8.8179-.132,5.7997-.0808,11.5995-.1473,17.3996-.1821v-5.0771h0c-8.7395.0527-17.4788.1572-26.2174.3141v5.0771ZM373.3973,221.823c5.7997-.0808,11.5995-.1473,17.3995-.1821-5.8.0349-11.5999.1013-17.3995.1821ZM359.1317,239.0918c3.7866-1.9545,7.1078-3.767,9.9645-5.4427.3726,1.8558.7452,3.7114,1.1178,5.5674,1.8932.1558,3.6155.2082,5.1686.1575-.3842.0125-.7791.0186-1.184.0185.0027,0,.0059.0002.0087.0002.4019,0,.7938-.0062,1.1753-.0186.0016,0,.0031-.0002.0047-.0002.3751-.0049.7259-.0256,1.0653-.0536.0865-.0071.1718-.0151.256-.0237,1.5782-.1619,2.7553-.583,3.5172-1.273.4807-.436.8415-1.0129,1.0822-1.7309.2407-.7179.3612-1.5769.3613-2.5769v-4.9387c1.5678-.0159,3.1356-.0302,4.7034-.0427-.7762,1.2523-1.5522,2.5052-2.3284,3.7586,1.8.7527,3.9272,1.6976,6.3799,2.8361,2.4526,1.1389,4.5322,2.153,6.2402,3.0399h0c.947-1.6955,1.8939-3.3905,2.8408-5.0848h0c-.745-.3217-1.4901-.6429-2.2353-.9638.3214.1384.6426.277.9638.4155-.3212-.1385-.6425-.2772-.9637-.4155-.2561-.1068-.5268-.2198-.812-.3389-.8557-.3575-1.8424-.7707-2.9601-1.2388.11.0461.2097.0878.3171.1328-.1074-.045-.207-.0867-.317-.1328-.7449-.3115-1.5291-.6364-2.3519-.9739-.8229-.3376-1.6844-.688-2.5845-1.0508,3.0425-.0214,6.0851-.0365,9.1276-.0452v-5.2623c-13.3035.0384-26.6065.1974-39.9079.4772-.0001,1.7542-.0001,3.5081,0,5.2622,2.6852-.0565,5.3705-.108,8.0558-.1547-2.4833,1.551-5.7126,3.2573-9.6854,5.1282.9933,1.6555,1.9868,3.3116,2.9801,4.9685ZM376.4541,239.3201c.0856-.0071.1701-.0149.2534-.0234-.0833.0085-.1678.0164-.2534.0234ZM375.1498,228.853c-.9556.0126-1.9113.0276-2.8669.0414h0c.9556-.0137,1.9113-.0289,2.8669-.0414.0001.8616.0001,1.7233,0,2.5848.0004.8927-.1159,1.4941-.3491,1.8047-.2334.3109-.6907.4708-1.3737.4804-.9943.0138-2.266-.1064-3.8183-.359.7139-.4421,1.428-.8839,2.142-1.3253-.8226-1.0342-1.6453-2.0677-2.468-3.101,1.9557-.0306,3.9114-.0591,5.8672-.0848ZM429.9141,238.5557c1.5831.0184,2.7628.0031,3.539-.0478,1.3978-.0735,2.4682-.235,3.2133-.4852.7449-.2506,1.2814-.6732,1.6066-1.2678.3253-.5954.5361-1.4456.6289-2.5523.0612-.6448.1695-1.643.3257-2.9947,1.3041,2.1139,2.3591,3.9623,3.166,5.5457,1.5523-1.0498,3.1042-2.0978,4.6564-3.1444-1.2416-2.1475-2.9172-4.7953-5.0289-7.9401-1.5212.897-3.0422,1.7954-4.5634,2.6954.4196.6526.8386,1.3052,1.258,1.9581-1.5059-.3469-3.0116-.6921-4.5173-1.0359.5121-.4084,1.0243-.8167,1.5366-1.2249-.9935-1.2445-1.94-2.3817-2.8406-3.4085,4.2529.0558,8.5059.1243,12.7586.205v-4.8467c-10.104-.1916-20.2089-.3137-30.3143-.3658v4.8466h0c3.9787.0206,7.9573.0557,11.9358.098.4763.0051.9526.0063,1.4288.0117-.5276.4095-1.0552.8192-1.5828,1.2289.5888.6521,1.3115,1.5378,2.1656,2.6549.8538,1.1173,1.5751,2.1116,2.1647,2.9803.8073-.6361,1.6146-1.2717,2.4219-1.9069-.0629.5839-.1011,1.1063-.1163,1.5677-.0163.461-.0402.8152-.07,1.0604-.0308.4003-.1559.6749-.3726.826-.2169.1511-.5439.2394-.9777.2642-1.1179.0475-1.9873.0676-2.6083.0602-.838-.0094-1.475-.0474-1.9091-.1138-.4653-.0667-.7917-.1853-.9777-.3569-.1865-.1707-.2793-.4876-.2795-.9492v-6.0466c-1.7849-.0184-3.57-.0345-5.355-.0485v1.754c-1.6301-.4745-3.2603-.9468-4.8903-1.4175-.7765,2.3958-1.9089,4.9907-3.3989,7.7841,0-6.016,0-12.0317,0-18.0476,1.3035-1.933,2.3753-3.7431,3.2126-5.431v7.3851c9.4535.0522,18.9067.1656,28.3591.3398v-12.3242c-3.725-.0687-7.45-.128-11.1752-.1777v-1.6154c3.8803.0518,7.7606.1138,11.6409.1863,0-1.6157,0-3.2311,0-4.8467-3.8801-.0723-7.7605-.1346-11.6409-.1863v-3.0927c-2.0492-.0274-4.0981-.0519-6.1472-.0735v3.0927c-3.6631-.0386-7.3264-.0681-10.9897-.0884v4.8467c3.6631.0203,7.3265.0499,10.9897.0884v1.6155c-3.6789-.0389-7.3578-.0683-11.0367-.0887v4.7083c-1.5986-1.0244-3.1975-2.0471-4.7963-3.0679-.9939,1.9669-2.4063,4.1929-4.2374,6.683-1.833,2.4899-3.5391,4.5367-5.1229,6.1377.6674,2.1535,1.3351,4.3072,2.0024,6.4612h0s0,0,0,0c.481-.4619.9776-.9539,1.4898-1.4766.5122-.5226,1.04-1.076,1.5836-1.6602v15.3707c1.956.0028,3.912.0081,5.868.0161,0-1.3693,0-2.7387,0-4.108,1.6145.7913,3.2289,1.5843,4.8433,2.379,1.2415-2.3923,2.39-5.2145,3.4459-8.4687v5.1695c0,1.7234.403,2.9178,1.2101,3.5871.8073.6681,2.1268,1.0565,3.9586,1.1677.8073.0693,1.9863.1129,3.5388.1312ZM436.6203,210.3043c.8533.0127,1.7067.0258,2.5601.0395v3.277c-.8531-.0137-1.7068-.0268-2.5601-.0396v-3.2769ZM428.9826,210.204c.9625.011,1.9252.0226,2.8878.0348v3.277c-.9625-.0121-1.9251-.0237-2.8878-.0347v-3.2771ZM421.486,210.1316c.9313.0074,1.8625.0154,2.7937.024.0001,1.0924.0001,2.1846,0,3.277-.9312-.0086-1.8624-.0167-2.7937-.024v-3.277ZM411.3568,205.3432c-1.3145,1.6068-2.6177,3.0984-3.9117,4.4951.0812-.0877.1616-.166.2429-.2545-.0815.0887-.1619.167-.2433.2548-.6432.6942-1.2848,1.3721-1.923,2.0145-.003.003-.006.0065-.009.0095h0c-1.1179-1.8471-2.2358-3.6933-3.3537-5.5386,1.6458-1.6321,3.3223-3.4861,5.0306-5.5605,1.7068-2.0745,3.0577-3.9404,4.0511-5.5986,1.6765,1.1593,3.353,2.3208,5.0295,3.4841-1.3044,2.0546-2.9419,4.2856-4.9133,6.6943ZM483.6885,218.0628c-.0001-1.0001-.0001-2.0002,0-3.0004-8.5797-.3116-17.1609-.5728-25.7429-.7838v3.0005c-2.1418-.0527-4.2838-.1021-6.4257-.1484v-8.493c12.8975.2791,25.7924.6719,38.6841,1.1783v8.4931c-2.1718-.0853-4.3437-.1675-6.5156-.2463ZM481.0823,200.2449c3.5374.1243,7.0745.257,10.6113.3984v5.7234c-3.5369-.1415-7.0741-.2742-10.6113-.3984,0,.7386,0,1.4771,0,2.2156-2.0947-.0737-4.1892-.1442-6.2841-.2117v-2.2156c-2.6381-.0852-5.2763-.1654-7.9147-.2411v2.2156c-2.0949-.0601-4.1899-.117-6.285-.171v-2.2156c-3.5381-.0914-7.0765-.1741-10.6149-.2481v-5.7234c3.5386.0741,7.0768.1569,10.6149.2481v-3.4156c2.0951.0541,4.1901.1111,6.285.171v3.4155c2.6383.0756,5.2765.1559,7.9147.241v-3.4155c2.0949.0676,4.1893.1381,6.2841.2117,0,1.1385,0,2.277,0,3.4155ZM467.6756,239.5109v-11.4007c-4.3762,3.9655-9.4354,7.247-15.1782,9.8592-1.0554-2.1467-2.1106-4.2926-3.166-6.4375,3.0731-1.0136,5.7811-2.0742,8.1245-3.187,2.3436-1.1122,4.4777-2.3797,6.4022-3.8043-4.2678-.1163-8.5357-.2203-12.8039-.3118-.0001-1.877-.0001-3.754,0-5.6312,5.5408.1188,11.0814.2586,16.6213.4193v-3.0466c2.1259.0616,4.2517.1263,6.3776.1942v3.0468c5.5083.1758,11.0159.3725,16.5232.5896v5.6311c-4.3282-.1708-8.6566-.3288-12.9857-.4739,1.9237,1.4805,4.0726,2.832,6.4471,4.0568,2.3737,1.2256,5.127,2.4683,8.2606,3.7328-.9618,2.1461-1.9235,4.2928-2.8853,6.4402-3.2573-1.7584-6.1201-3.4927-8.5873-5.2103-2.4674-1.7167-4.7249-3.5767-6.7727-5.5808v11.3085c-2.1259-.0677-4.2517-.1326-6.3776-.1943ZM504.5375,209.0871c-2.1403-1.882-4.7925-4.0316-7.9575-6.443,1.2256-1.5483,2.4511-3.0956,3.6766-4.6419,1.5502,1.1456,4.1417,3.1829,7.771,6.1245-1.1635,1.6526-2.3268,3.3061-3.4901,4.9604ZM539.2852,226.1879v-5.2618c-1.0693-.066-2.1387-.1312-3.2079-.1957.1865-4.6657.3093-8.1056.3712-10.3174-7.1923-.4346-14.3861-.8338-21.5815-1.1976.434-.6704.868-1.3406,1.3021-2.0108,7.2732.3719,14.5448.7802,21.8148,1.2245v-5.7234c-6.2311-.3809-12.4639-.7352-18.6975-1.0629.4349-.9001.7446-1.5761.9304-2.028-2.0623-.3555-4.1247-.7079-6.1871-1.0574-1.8921,3.8133-4.4511,7.5952-7.6772,11.3522,1.3183,1.477,2.637,2.9552,3.9553,4.4348-.1863,1.6526-.3725,3.3053-.5585,4.9581-1.0234-.0493-2.047-.0979-3.0706-.1458,0,1.754,0,3.5078,0,5.2618.8216.0385,1.6434.0774,2.4651.1167-.3719,3.3671-.7441,6.7343-1.116,10.1015,6.8861.3266,13.7714.6857,20.6547,1.0771-.4031,1.0547-1.1624,1.5495-2.2791,1.487-1.7682-.0983-4.0636-.4247-6.8849-.9732.388,1.8512.7758,3.7026,1.1636,5.5541,2.8531.4594,5.4721.7584,7.8604.894,2.233.1271,3.8304-.303,4.791-1.2918.9604-.9896,1.5344-2.7558,1.7206-5.2985,1.2091.0722,2.4182.1455,3.6271.2198v-5.4004c-1.0697-.0656-2.1394-.1305-3.2089-.1948.093-1.5792.1859-3.1584.279-4.7375,1.1782.0708,2.3562.1426,3.5341.2152ZM514.6338,229.5599c.171-1.5762.3414-3.1523.5123-4.7285,1.3956.0709,2.7913.1429,4.1869.2162-.574.6469-1.148,1.2938-1.722,1.9411.8378.6279,2.0475,1.5994,3.6292,2.9144-2.202-.1176-4.4041-.2321-6.6064-.3431ZM515.7507,219.6003c.1704-1.6069.3408-3.2138.5113-4.8206,1.3494.0691,2.6986.1395,4.0477.2109-.5737.6312-1.1475,1.2624-1.7213,1.894.992.6683,2.2482,1.6871,3.7675,3.0621-2.2015-.1188-4.4034-.2344-6.6053-.3465ZM529.3796,230.3534c-1.5038-.086-3.0075-.1704-4.5112-.2534.5887-.6445,1.1778-1.2888,1.767-1.9327-.8365-.7237-2.0168-1.6972-3.535-2.9183,2.2172.1205,4.4344.2441,6.6514.3714-.0623,1.135-.1863,2.7127-.3721,4.733ZM530.077,220.3772c-1.5812-.091-3.1623-.1802-4.7434-.2676.6202-.6735,1.2403-1.3467,1.86-2.0197-.6519-.621-1.799-1.593-3.4418-2.9142,2.1862.1195,4.3724.2421,6.5582.368-.0777,1.6112-.1553,3.2222-.233,4.8334ZM500.1173,222.2751c1.9851.61,3.9705,1.2227,5.9556,1.8383-.559,2.1591-1.2409,4.8975-2.0469,8.2141-.8074,3.3175-1.4592,6.0569-1.9547,8.2201-2.1096-.6482-4.2188-1.2933-6.3284-1.9354.4335-1.3364,1.2247-4.1182,2.3734-8.3463,1.1476-4.2273,1.8151-6.8915,2.001-7.9908ZM507.143,214.8859c-1.2095,1.6971-2.4195,3.3951-3.6294,5.0941-3.9083-3.4694-6.6711-5.7852-8.283-6.9607,1.1788-1.5818,2.3576-3.1625,3.5365-4.7426,1.2414.9152,2.6998,2.0265,4.3741,3.3318,1.6754,1.3067,3.0089,2.3995,4.0018,3.2773ZM373.0624,692.1113h7.715v4.1512h-14.5912v-3.1135l5.9819-6.7595c.9872-1.1224,1.6769-1.9912,2.0685-2.6083.3913-.6171.5869-1.244.5869-1.8793,0-.6361-.1774-1.1595-.5311-1.5712-.3542-.4109-.8481-.6171-1.4818-.6171-1.416,0-2.4411,1.0287-3.0746,3.0854l-3.6897-2.1594c.5217-1.7203,1.4255-3.0389,2.7115-3.955,1.2856-.9161,2.7854-1.3741,4.5002-1.3741,1.3978,0,2.5947.2801,3.5919.8415.9968.5609,1.7469,1.3224,2.2501,2.2857.5032.9633.7549,2.0338.7549,3.2117s-.2794,2.2673-.8386,3.2679c-.5588,1.0005-1.5559,2.2856-2.9909,3.8561l-2.963,3.338ZM390.616,675.3378c-2.3854,0-4.2341.9078-5.5474,2.7209-1.3148,1.8138-1.9714,4.4602-1.9714,7.9381s.6566,6.119,1.9714,7.9237c1.3134,1.8048,3.162,2.7065,5.5474,2.7065s4.225-.9069,5.5216-2.7209c1.2952-1.8132,1.9427-4.4496,1.9427-7.9093,0-3.4779-.6475-6.1243-1.9427-7.9381-1.2966-1.8131-3.1361-2.7209-5.5216-2.7209ZM392.4328,690.6945c-.3912,1.0378-.9963,1.5568-1.8168,1.5568-.8386,0-1.4573-.5136-1.8577-1.5424-.4019-1.028-.6021-2.5991-.6021-4.7121,0-2.1502.2002-3.7305.6021-4.7402.4003-1.0096,1.0191-1.5149,1.8577-1.5149.8205,0,1.4255.5189,1.8168,1.5568.3913,1.0378.5869,2.6044.5869,4.6983s-.1956,3.6606-.5869,4.6977ZM407.8914,675.7031h3.7451v20.5594h-4.8354v-15.4266l-5.3108,2.9453v-4.4883l6.4012-3.5898ZM417.8139,675.7031h14.1718v3.0009l-6.8205,17.5585h-5.1713l6.653-16.3808h-8.833v-4.1786ZM446.1992,317.9858l19.3179,15.8709c1.2532,1.0295.7682,3.0506-.8157,3.3994l-48.3941,10.6547c-14.7584-12.2676-22.9177-22.7336-27.8459-29.067-2.606-3.3491-4.3496-5.5903-6.0522-6.7373,5.3237-.5513,10.6973-.8291,16.1138-.8291.7598,0,1.5195.0054,2.2822.0166,16.1082.2367,31.0785,2.4335,45.394,6.6918ZM375.3511,313.0015c-1.1973,1.1616-1.9316,2.7188-1.9316,4.1538,0,2.1196,6.8081,20.7754,13.6348,29.3721l.5068.6401c.4034.5094.8679,1.0953,1.3772,1.7321l-8.2469-1.9298c-.7314-.8161-1.3666-1.551-1.9003-2.1699-2.0039-2.3242-2.9185-3.3848-4.6343-3.3848l-.1255.0005-.1113.0083c-2.031.1511-3.0149,1.5744-3.5037,3.1415l-36.1299-8.4545c-1.3102-.3066-1.7003-1.9824-.6602-2.8361l17.9288-14.7155c7.7646-2.4749,15.7095-4.342,23.7961-5.5578ZM274.7955,533.0965l60.149,20.1083,37.475,57.5079c-19.9913-2.6384-51.6843-10.3174-79.8004-32.4812-5.8666-4.6244-11.5238-9.3309-16.8205-14.5566l-3.5947-28.4529c-.1827-1.4468,1.2085-2.5878,2.5916-2.1255ZM546.2317,484.9717c-1.7892,1.4362-4.4263.9788-5.6285-.9754l-33.303-54.1335c3.2697-4.0961,4.6666-9.2411,4.6666-13.2045,0-5.34-2.6857-9.4075-7.0533-11.2783l1.9705-36.455c.0665-1.2304,1.3989-1.966,2.4756-1.3666l22.7451,12.6596c14.8335,21.6805,23.1079,44.8667,27.7145,63.8211,1.8245,7.5068,3.2004,14.8235,4.2313,21.8057-6.0386,8.9736-13.5328,15.6866-17.819,19.127ZM290.6352,371.2441l3.7269,51.1367-34.0825,58.0312c-1.3133,2.2361-4.368,2.6641-6.2451.8748l-14.1195-13.4589c-.268-13.4503,2.9841-27.8642,5.9366-39.1501,4.5096-17.238,12.2822-33.7493,22.7384-48.6828l19.4496-10.1946c1.1326-.5938,2.5026.1683,2.5956,1.4437ZM496.0485,544.2587l41.655-14.0681-4.3426,41.9275s-12.4586,23.9392-34.1691,36.4529c3.774-9.7722,5.944-19.7985,5.944-27.9831,0-16.468-5.1476-29.0832-9.0873-36.3292ZM400.6891,225.9766l.4212,1.3591,1.2065,3.8946-1.6225-.7006-.0052-.0023v-4.5509ZM401.434,210.9186l1.5121,2.4973.316.5222c-.6287.8007-1.2382,1.5378-1.8282,2.2142v-5.2337ZM417.8209,196.0735c-1.6246-1.1271-3.2493-2.2527-4.874-3.3762l-2.634-1.8215-1.6458,2.7472c-.9104,1.5196-2.187,3.2807-3.7943,5.2343-1.6392,1.9906-3.2632,3.7864-4.8263,5.3364l-.8478.8408v-10.8015s-3.0106.0107-3.0106.0107c-2.2229.0078-4.4458.0191-6.6688.0338l-2.9804.0197.0002,2.9805v.6678c-.825.0065-1.6503.0135-2.4753.0211v-4.5718l-1.9354.0202c10.9659-18.868,32.4716-28.9016,54.1033-26.7135-4.6028,9.7427-6.7467,18.5891-7.6855,26.3743-.4493-.005-.8986-.0114-1.3478-.0161l-3.0317-.032v3.0949c-2.1151-.0194-4.2307-.0358-6.3458-.0491ZM367.6506,274.7884c9.3948-22.3279,4.5911-20.631,3.908-32.4807.9186.0504,1.8137.085,2.6488.085.4253,0,.8403-.0065,1.2444-.0193,3.0357-.0435,5.2564-.7392,6.788-2.1263,1.1666-1.0582,1.9168-2.501,2.2426-4.3057,1.4028.6093,2.9695,1.3154,4.6788,2.1087,2.3811,1.1057,4.4406,2.1088,6.1208,2.9812l2.5826,1.3409,1.419-2.5405,2.8404-5.0841,1.6212-2.9006-.7319-.316,1.0361-.9948v11.1412l2.9957.0044c1.9534.0028,3.9067.0081,5.8602.016l3.012.0123v-2.3047c.1729.085.3457.17.5185.2551l2.6349,1.2972.9533-1.837c.15.1572.3094.3058.4778.4455.7913.6548,1.7793,1.1312,2.9783,1.4437-6.5379,14.9663-21.6273,31.6659-55.8294,33.7786Z" style="fill: #171819;"/>
</svg>