<?xml version="1.0" encoding="UTF-8"?>
<svg data-name="图层_1" xmlns="http://www.w3.org/2000/svg" version="1.1" viewBox="0 0 800 800">
  <!-- Created by @FCLOGO 2025-1-9 GMT+8 10:42:11 . https://fclogo.top/ -->
<!-- FOR PERSONAL USE ONLY NOT FOR COMMERCIAL USE -->
  <path d="M348.2194,774.301c-.786,0-1.3752-.2173-1.7682-.6519-.393-.4352-.5284-1.03-.406-1.7856l.2518-1.6478c.122-.755.4501-1.3504.9841-1.785.5339-.4352,1.1939-.6525,1.9799-.6525.7553,0,1.3293.1987,1.7223.5954.3927.3967.551.9381.4747,1.6248h-1.2358c.0304-.3589-.0553-.637-.2573-.8357-.2024-.1981-.4979-.2974-.8869-.2974-.4197,0-.763.1167-1.03.3489-.2673.2328-.4349.5631-.5035.9903l-.2632,1.659c-.0686.4352-.0056.7686.1887,1.0015.1946.2328.5017.3489.9214.3489.389,0,.7152-.0987.9785-.2974.2632-.1981.4365-.4805.5206-.8469h1.2358c-.1372.6867-.4672,1.2306-.9897,1.631-.5228.4005-1.1616.6004-1.9169.6004ZM352.7967,774.1868l.9956-6.2943h1.1902l-.1946,1.1902c.3359-.8698.9729-1.3044,1.9113-1.3044.6712,0,1.1691.208,1.4932.624.3244.416.4293.9859.3148,1.7105l-.0686.4234h-1.2703l.0571-.3204c.0689-.4501.0115-.7953-.1714-1.0356-.1832-.2403-.4771-.3607-.8813-.3607-.4045,0-.7401.1223-1.007.3663-.2673.2446-.4349.588-.5035,1.03l-.6296,3.9711h-1.2358ZM361.9058,774.301c-.7705,0-1.3463-.2229-1.7279-.6693s-.515-1.0356-.4005-1.7682l.2518-1.6478c.0838-.488.2573-.9152.5206-1.2815s.6007-.6507,1.0129-.8524c.4119-.2024.8732-.3036,1.3845-.3036.7705,0,1.3485.2235,1.7338.6693.3852.4464.5169,1.0356.3949,1.7682l-.1717,1.1213h-3.845l-.0916.5265c-.1527.9536.2173,1.4305,1.1098,1.4305.7171,0,1.175-.2477,1.3734-.7438h1.2247c-.1679.5339-.5035.9599-1.007,1.2759-.5038.3166-1.0912.475-1.7626.475ZM361.2306,770.2157l-.0456.2862,2.6548-.0118.0459-.2856c.0686-.4656.0133-.822-.1661-1.0704-.1791-.2477-.4861-.3719-.9211-.3719-.4427,0-.7953.126-1.0586.3775-.2632.2521-.4331.6109-.5094,1.076ZM368.3258,774.301c-.6333,0-1.1027-.2117-1.4078-.6351s-.3967-1.0008-.2744-1.7335l.2744-1.7738c.1145-.7326.393-1.3119.8357-1.7397.4424-.4272.98-.6407,1.6133-.6407.4653,0,.8298.1186,1.093.3545.2632.2365.3908.5575.3834.9617h.023l.1717-1.202h1.2358l-.9956,6.2943h-1.2247l.1946-1.2014h-.023c-.122.4116-.3511.7339-.6867.9667s-.7401.3489-1.2129.3489ZM368.9324,773.2257c.389,0,.7152-.1186.9782-.3551.2632-.2359.4293-.5718.4979-1.007l.2518-1.6478c.0686-.4272.0096-.7612-.1773-1.0015-.1872-.2403-.475-.3601-.8642-.3601-.3967,0-.7249.118-.9841.3545-.2595.2365-.4234.5724-.492,1.007l-.2518,1.6478c-.0686.4427-.0133.7804.1658,1.0133.1794.2328.4712.3489.8757.3489ZM376.3477,774.1868c-.5721,0-.9937-.1565-1.2644-.4694-.271-.3123-.3607-.7512-.2691-1.3156l.538-3.3874h-1.7394l.1714-1.1219h1.7397l.2747-1.7161h1.2358l-.2747,1.7161h2.472l-.1832,1.1219h-2.4605l-.5377,3.3874c-.0764.4421.099.6637.5262.6637h1.7167l-.1717,1.1213h-1.7738ZM382.5042,774.301c-.7705,0-1.3463-.2229-1.7279-.6693s-.515-1.0356-.4005-1.7682l.2518-1.6478c.0838-.488.2573-.9152.5206-1.2815s.6007-.6507,1.0129-.8524c.4119-.2024.8732-.3036,1.3845-.3036.7705,0,1.3485.2235,1.7338.6693.3852.4464.5169,1.0356.3949,1.7682l-.1717,1.1213h-3.845l-.0916.5265c-.1527.9536.2173,1.4305,1.1098,1.4305.7171,0,1.175-.2477,1.3734-.7438h1.2247c-.1679.5339-.5035.9599-1.007,1.2759-.5038.3166-1.0912.475-1.7626.475ZM381.829,770.2157l-.0456.2862,2.6548-.0118.0459-.2856c.0686-.4656.0133-.822-.1661-1.0704-.1791-.2477-.4861-.3719-.9211-.3719-.4427,0-.7953.126-1.0586.3775-.2632.2521-.4331.6109-.5094,1.076ZM388.9243,774.301c-.6333,0-1.1008-.2117-1.4019-.6351-.3014-.4234-.3949-1.0008-.2803-1.7335l.2744-1.7738c.1145-.7326.393-1.3119.8357-1.7397.4424-.4272.98-.6407,1.6133-.6407.4653,0,.8298.1186,1.093.3545.2632.2365.3908.5575.3834.9617h.023l.2058-1.4652.2977-1.7962h1.2358l-1.3274,8.3537h-1.2247l.1946-1.2014h-.023c-.122.4116-.3511.7339-.6867.9667s-.7401.3489-1.2129.3489ZM389.5309,773.2257c.389,0,.7152-.1186.9782-.3551.2632-.2359.4293-.5718.4979-1.007l.2518-1.6478c.0761-.4272.0189-.7612-.1717-1.0015-.1909-.2403-.4805-.3601-.8698-.3601-.3967,0-.7249.118-.9841.3545-.2595.2365-.4234.5724-.492,1.007l-.2518,1.6478c-.0764.4427-.023.7804.1602,1.0133s.4768.3489.8813.3489ZM401.0175,774.301c-.4731,0-.8394-.1161-1.0986-.3489-.2595-.2328-.3852-.5551-.3775-.9667h-.0115l-.1946,1.2014h-1.2243l1.3274-8.3537h1.2358l-.2862,1.7962-.2744,1.4652h.0456c.122-.4123.353-.7345.6923-.9673.3396-.2322.7419-.3489,1.2076-.3489.633,0,1.1002.2136,1.4016.6407.3014.4278.3949,1.007.2806,1.7397l-.2747,1.7738c-.1145.7326-.3949,1.31-.8413,1.7335-.4461.4234-.9822.6351-1.6077.6351ZM400.7657,773.2257c.3967,0,.7227-.1161.9785-.3489.2555-.2328.4216-.5706.4976-1.0133l.2518-1.6478c.0689-.4346.0115-.7705-.1714-1.007-.1832-.2365-.4734-.3545-.8698-.3545-.3893,0-.7152.1198-.9785.3601s-.429.5743-.4979,1.0015l-.2518,1.6478c-.0686.4352-.0112.7711.1717,1.007.1832.2365.4731.3551.8698.3551ZM405.4694,776.2468l.1717-1.0642h1.934c.6407,0,1.007-.3017,1.0986-.9046l.1028-.6749.2061-1.1902h-.0345c-.122.4197-.3471.7438-.6752.9729-.3281.2285-.7286.3433-1.2014.3433-.6258,0-1.093-.2005-1.4019-.601s-.4104-.9443-.3033-1.631l.5836-3.6047h1.2358l-.5606,3.4793c-.0612.4116,0,.732.1832.9611s.4653.3433.8469.3433c.389,0,.7168-.1217.9841-.3663.267-.244.4309-.5836.492-1.0182l.538-3.3992h1.2358l-1.007,6.4086c-.0993.6029-.37,1.0778-.8124,1.4249-.4427.3471-.9996.5209-1.6707.5209h-1.9455ZM417.787,770.0853h3.221l.5368-1.8545h-5.4659l-1.7081,6.4419h2.1473l.5856-2.0985h3.0257l.4392-1.7081h-3.0257l.244-.7808ZM424.229,772.9158c-.5856,0-1.0249-.3904-1.0249-1.1225,0-.8784.6344-1.7569,1.6105-1.7569.488,0,.8784.244,1.0248.7808l1.9521-.8296c-.2928-1.1713-1.2689-1.9033-2.6353-1.9033-2.7817,0-4.1482,2.1473-4.1482,3.9042s1.2689,2.8305,3.0746,2.8305c1.3665,0,2.3425-.5856,2.9769-1.4153l-1.5129-1.1713c-.3904.4392-.8296.6832-1.3177.6832ZM430.9149,768.2308h-2.1473l-1.7569,6.4419h5.1242l.488-1.8545h-2.9281l1.2201-4.5874ZM439.7481,771.0125c0-1.6593-1.3177-2.9281-3.221-2.9281-2.1961,0-3.8066,1.8057-3.8066,3.8066,0,1.6593,1.3177,2.9281,3.221,2.9281,2.1961,0,3.8066-1.8057,3.8066-3.8066ZM434.9167,771.6957c0-.8296.5856-1.7081,1.5129-1.7081.7808,0,1.1713.5368,1.1713,1.2201,0,.8296-.5856,1.7081-1.5129,1.7081-.7808,0-1.1713-.5368-1.1713-1.2201ZM443.2131,772.2326h1.0737l-.1952.6832c-.1464.0488-.3416.0976-.5856.0976-.6832,0-1.2689-.3904-1.2689-1.2201,0-1.0249.732-1.9033,1.9521-1.9033.5856,0,1.1225.244,1.5129.5856l1.3665-1.3665c-.4392-.5368-1.5129-1.0737-2.7329-1.0737-2.5865,0-4.2946,1.7569-4.2946,3.8554,0,2.0497,1.6105,2.8793,3.221,2.8793.9272,0,1.8545-.2928,2.4889-.6832l.9272-3.3186h-3.1234l-.3416,1.4641ZM450.7775,768.0844c-2.1961,0-3.8066,1.8057-3.8066,3.8066,0,1.6593,1.3177,2.9281,3.221,2.9281,2.1961,0,3.8066-1.8057,3.8066-3.8066,0-1.6593-1.3177-2.9281-3.221-2.9281ZM450.3382,772.9158c-.7808,0-1.1713-.5368-1.1713-1.2201,0-.8296.5856-1.7081,1.5129-1.7081.7808,0,1.1713.5368,1.1713,1.2201,0,.8296-.5856,1.7081-1.5129,1.7081ZM437.9424,767.4987c-.0488.2928.0976.488.4392.488s.5368-.1952.6344-.488c.0488-.244-.0976-.488-.4392-.488s-.5856.244-.6344.488ZM432.1349,765.4978c-.4392,0-.732.244-.7808.5856s.0976.5856.5368.5856.732-.244.7808-.5856c.0976-.3416-.0976-.5856-.5368-.5856ZM433.0134,767.3035c-.0976.5368.1464.8784.8296.8784.6344,0,1.0737-.3904,1.1713-.8784s-.1464-.8784-.8296-.8784c-.6832,0-1.0737.3904-1.1713.8784ZM439.6017,777.552l-2.4401-1.8057h-1.5129l4.2458,3.1722,1.6105-3.1722h-.976l-.9272,1.8057ZM425.8394,767.1571l-2.0009-1.4641,23.1323-2.7817-2.1473,4.2458h1.0248l2.6841-5.3195-26.9877,3.221,2.7817,2.0985h1.5129ZM338.7186,785.7853l.6088-3.8315h2.32l-.084.5194h-1.7636l-.1837,1.1445h1.6272l-.084.5248h-1.6166l-.2573,1.6428h-.5668ZM342.97,785.8377c-.3568,0-.6228-.1005-.7978-.3019-.175-.201-.2345-.473-.1784-.8161l.2677-1.7006c.056-.3429.2029-.6148.4408-.8161.2379-.201.5355-.3019.8923-.3019s.6228.1.7979.2993c.1748.1993.2361.4707.1837.8136l-.2677,1.7057c-.0561.3431-.2039.6151-.4435.8161-.2398.2013-.5381.3019-.895.3019ZM343.0487,785.3339c.1925,0,.3483-.0524.4672-.1575.119-.1051.1942-.2571.2257-.4568l.2678-1.7006c.0315-.1993.0051-.3517-.0787-.4565-.084-.1051-.2223-.1575-.4148-.1575s-.3473.0524-.4645.1575c-.1173.1048-.1916.2571-.2231.4565l-.2677,1.7006c-.0315.1996-.0053.3517.0787.4568s.2204.1575.4094.1575ZM344.9961,785.7853l.6088-3.8315h1.202c.2379,0,.4391.0464.6036.139.1645.0928.2835.223.357.391s.091.3656.0524.5932c-.0384.2591-.14.4838-.3044.6746-.1645.1905-.3656.3209-.6036.391l.5354,1.6428h-.6194l-.4777-1.5748h-.5406l-.2466,1.5748h-.5668ZM345.8883,783.7068h.6352c.1889,0,.349-.0558.4803-.168.1313-.1119.2107-.2623.2388-.4514.0316-.1925,0-.3454-.0944-.4593-.0945-.1136-.2362-.1706-.4252-.1706h-.6352l-.1995,1.2493ZM349.545,785.7853l.6088-3.8315h1.2544c.3709,0,.6508.1048.8399.315.1889.2099.2553.4898.1993.8398-.0384.2344-.1216.4383-.2493.6114s-.2905.307-.4881.4015c-.1978.0945-.419.1418-.6639.1418h-.6928l-.2415,1.5221h-.5668ZM350.432,783.754h.6928c.1924,0,.3568-.0587.4934-.176.1364-.117.2204-.2737.2519-.4696s-.0017-.3525-.0997-.4699-.245-.1757-.441-.1757h-.6876l-.2099,1.2911ZM352.7466,785.7853l.6088-3.8315h2.2518l-.0787.5038h-1.6954l-.1731,1.0867h1.5115l-.0787.4986h-1.5115l-.1942,1.2387h1.6901l-.0787.5038h-2.2518ZM355.8434,785.7853l.6088-3.8315h1.202c.2379,0,.4391.0464.6036.139.1645.0928.2835.223.357.391s.091.3656.0524.5932c-.0384.2591-.14.4838-.3044.6746-.1645.1905-.3656.3209-.6036.391l.5354,1.6428h-.6194l-.4777-1.5748h-.5406l-.2466,1.5748h-.5668ZM356.7356,783.7068h.6352c.1889,0,.349-.0558.4803-.168.1313-.1119.2107-.2623.2388-.4514.0316-.1925,0-.3454-.0944-.4593-.0945-.1136-.2362-.1706-.4252-.1706h-.6352l-.1995,1.2493ZM360.1316,785.8377c-.385,0-.6736-.0951-.8661-.2859-.1924-.1908-.2641-.4505-.2151-.7794h.5668c-.028.1748.0105.3121.1155.4121.1051.0997.266.1495.483.1495.2029,0,.3701-.049.5012-.1469.1313-.098.2109-.2327.2389-.4044.0209-.1504.0007-.2788-.0604-.3856-.0614-.1068-.1583-.1811-.2913-.2233l-.4566-.1364c-.266-.0803-.4619-.217-.5879-.4095-.126-.1922-.1697-.4197-.1313-.6823.035-.2099.1121-.3935.2309-.551s.2729-.2799.4619-.3673.4024-.1313.6404-.1313c.3498,0,.6158.0954.7978.2859.182.1908.2485.4437.1995.7586h-.5668c.0279-.168-.0027-.3001-.092-.3964-.0891-.0963-.2301-.1444-.4225-.1444-.1889,0-.343.0447-.4619.1338-.119.0894-.1889.2144-.21.3753-.0245.1506-.007.2791.0525.3859s.1575.1811.2939.223l.4672.1469c.2624.0806.4558.2173.5801.4095.1242.1925.1653.4217.1233.6877-.035.217-.1155.4058-.2415.5667-.1259.1612-.2878.2862-.4855.3753-.1976.0894-.419.1338-.6639.1338ZM363.2651,785.8377c-.3568,0-.6228-.1005-.7978-.3019-.175-.201-.2345-.473-.1784-.8161l.2677-1.7006c.056-.3429.2029-.6148.4408-.8161.2379-.201.5355-.3019.8923-.3019s.6228.1.7979.2993c.1748.1993.2361.4707.1837.8136l-.2677,1.7057c-.0561.3431-.2039.6151-.4435.8161-.2398.2013-.5381.3019-.895.3019ZM363.3439,785.3339c.1925,0,.3483-.0524.4672-.1575.119-.1051.1942-.2571.2257-.4568l.2678-1.7006c.0315-.1993.0051-.3517-.0787-.4565-.084-.1051-.2223-.1575-.4148-.1575s-.3473.0524-.4645.1575c-.1173.1048-.1916.2571-.2231.4565l-.2677,1.7006c-.0315.1996-.0053.3517.0787.4568s.2204.1575.4094.1575ZM365.2754,785.7853l.6088-3.8315h.7086l.6194,3.186c.007-.098.0165-.217.0289-.3571.0121-.1398.0271-.2851.0446-.4354.0175-.1506.0367-.2888.0577-.4146l.315-1.9788h.525l-.609,3.8315h-.7085l-.6141-3.186c-.0071.0945-.0167.209-.0289.3437s-.0272.2757-.0446.4226c-.0177.1469-.0367.2833-.0578.4095l-.315,2.0102h-.5301ZM368.2252,785.7853l1.5851-3.8315h.7454l.3726,3.8315h-.5616l-.0735-.9711h-1.0865l-.3884.9711h-.5932ZM369.3852,784.3418h.8714l-.0893-1.1023c-.0175-.1959-.0298-.3654-.0367-.5089-.0071-.1435-.0105-.2432-.0105-.2993-.0175.0561-.0517.1558-.1024.2993s-.1146.3112-.1915.5038l-.441,1.1075ZM371.7208,785.7853l.6088-3.8315h.567l-.525,3.3118h1.6744l-.0787.5197h-2.2465ZM376.6785,785.8377c-.3673,0-.6342-.1005-.8003-.3019-.1663-.201-.2214-.475-.1654-.8213l.4357-2.7608h.567l-.4357,2.7554c-.0315.1962-.008.35.0708.4619.0787.1122.2144.168.4068.168.1925,0,.3473-.0558.4646-.168.1172-.1119.1915-.2657.2231-.4619l.4355-2.7554h.567l-.4357,2.7608c-.056.35-.2003.6245-.433.8241-.2328.1993-.5328.299-.9003.299ZM379.8435,785.8377c-.385,0-.6736-.0951-.8661-.2859-.1924-.1908-.2641-.4505-.2151-.7794h.5668c-.028.1748.0105.3121.1155.4121.1051.0997.266.1495.483.1495.2029,0,.3701-.049.5012-.1469.1313-.098.2109-.2327.2389-.4044.0209-.1504.0007-.2788-.0604-.3856-.0614-.1068-.1583-.1811-.2913-.2233l-.4566-.1364c-.266-.0803-.4619-.217-.5879-.4095-.126-.1922-.1697-.4197-.1313-.6823.035-.2099.1121-.3935.2309-.551s.2729-.2799.4619-.3673.4024-.1313.6404-.1313c.3498,0,.6158.0954.7978.2859.182.1908.2485.4437.1995.7586h-.5668c.0279-.168-.0027-.3001-.092-.3964-.0891-.0963-.2301-.1444-.4225-.1444-.1889,0-.343.0447-.4619.1338-.119.0894-.1889.2144-.21.3753-.0245.1506-.007.2791.0525.3859s.1575.1811.2939.223l.4672.1469c.2624.0806.4558.2173.5801.4095.1242.1925.1653.4217.1233.6877-.035.217-.1155.4058-.2415.5667-.1259.1612-.2878.2862-.4855.3753-.1976.0894-.419.1338-.6639.1338ZM381.9062,785.7853l.6088-3.8315h2.2518l-.0787.5038h-1.6954l-.1731,1.0867h1.5115l-.0787.4986h-1.5115l-.1942,1.2387h1.6901l-.0787.5038h-2.2518ZM386.9426,785.8377c-.3568,0-.6228-.1005-.7978-.3019-.175-.201-.2345-.473-.1784-.8161l.2677-1.7006c.056-.3429.2029-.6148.4408-.8161.2379-.201.5355-.3019.8923-.3019s.6228.1.7979.2993c.1748.1993.2361.4707.1837.8136l-.2677,1.7057c-.0561.3431-.2039.6151-.4435.8161-.2398.2013-.5381.3019-.895.3019ZM387.0213,785.3339c.1925,0,.3483-.0524.4672-.1575.119-.1051.1942-.2571.2257-.4568l.2678-1.7006c.0315-.1993.0051-.3517-.0787-.4565-.084-.1051-.2223-.1575-.4148-.1575s-.3473.0524-.4645.1575c-.1173.1048-.1916.2571-.2231.4565l-.2677,1.7006c-.0315.1996-.0053.3517.0787.4568s.2204.1575.4094.1575ZM388.9529,785.7853l.6088-3.8315h.7086l.6194,3.186c.007-.098.0165-.217.0289-.3571.0121-.1398.0271-.2851.0446-.4354.0175-.1506.0367-.2888.0577-.4146l.315-1.9788h.525l-.609,3.8315h-.7085l-.6141-3.186c-.0071.0945-.0167.209-.0289.3437s-.0272.2757-.0446.4226c-.0177.1469-.0367.2833-.0578.4095l-.315,2.0102h-.5301ZM392.249,785.7853l.6088-3.8315h.567l-.525,3.3118h1.6744l-.0787.5197h-2.2465ZM396.1174,785.7853l.2204-1.4119-.7506-2.4197h.5774l.4462,1.4486c.0279.0945.0498.1837.0656.2677.0157.084.0253.1469.0288.1888.0175-.0419.0464-.1048.0867-.1888.0402-.084.0883-.1731.1442-.2677l.8976-1.4486h.5984l-1.5275,2.4197-.2204,1.4119h-.5668ZM399.217,785.7853l.6088-3.8315h.7086l.6192,3.186c.0071-.098.0165-.217.029-.3571.012-.1398.0271-.2851.0444-.4354.0177-.1506.037-.2888.0578-.4146l.315-1.9788h.5248l-.6088,3.8315h-.7085l-.6141-3.186c-.0071.0945-.0167.209-.0289.3437s-.0272.2757-.0446.4226c-.0177.1469-.0367.2833-.0578.4095l-.315,2.0102h-.5301ZM403.5053,785.8377c-.3571,0-.6231-.1005-.7979-.3019-.1751-.201-.2344-.473-.1785-.8161l.2677-1.7006c.0561-.3429.203-.6148.4411-.8161.2378-.201.5354-.3019.8922-.3019.3571,0,.6228.1.7979.2993.1748.1993.2361.4707.1837.8136l-.2677,1.7057c-.0561.3431-.2039.6151-.4437.8161-.2395.2013-.5379.3019-.8947.3019ZM403.5839,785.3339c.1925,0,.3483-.0524.4673-.1575.1187-.1051.1942-.2571.2255-.4568l.2677-1.7006c.0316-.1993.0054-.3517-.0786-.4565-.084-.1051-.2224-.1575-.4146-.1575-.1925,0-.3474.0524-.4647.1575-.117.1048-.1914.2571-.223.4565l-.2677,1.7006c-.0316.1996-.0051.3517.0789.4568.0837.1051.2204.1575.4092.1575ZM406.3814,785.7853l.5248-3.3121h-1.0234l.084-.5194h2.6193l-.084.5194h-1.0289l-.5248,3.3121h-.567ZM409.5178,785.7853l.6088-3.8315h2.32l-.084.5194h-1.7636l-.1837,1.1445h1.6272l-.084.5248h-1.6166l-.2571,1.6428h-.567ZM413.7694,785.8377c-.3571,0-.6231-.1005-.7979-.3019-.1751-.201-.2344-.473-.1785-.8161l.2677-1.7006c.0561-.3429.203-.6148.4411-.8161.2378-.201.5354-.3019.8922-.3019.3571,0,.6228.1.7979.2993.1748.1993.2361.4707.1837.8136l-.2677,1.7057c-.0561.3431-.2039.6151-.4437.8161-.2395.2013-.5379.3019-.8947.3019ZM413.848,785.3339c.1925,0,.3483-.0524.4673-.1575.1187-.1051.1942-.2571.2255-.4568l.2677-1.7006c.0316-.1993.0054-.3517-.0786-.4565-.084-.1051-.2224-.1575-.4146-.1575-.1925,0-.3474.0524-.4647.1575-.117.1048-.1914.2571-.223.4565l-.2677,1.7006c-.0316.1996-.0051.3517.0789.4568.0837.1051.2204.1575.4092.1575ZM415.7952,785.7853l.6088-3.8315h1.202c.2381,0,.4391.0464.6037.139.1643.0928.2833.223.3568.391s.0911.3656.0527.5932c-.0387.2591-.1401.4838-.3044.6746-.1646.1905-.3659.3209-.6037.391l.5354,1.6428h-.6194l-.4776-1.5748h-.5408l-.2466,1.5748h-.567ZM416.6876,783.7068h.635c.1891,0,.3491-.0558.4804-.168.131-.1119.2107-.2623.2386-.4514.0316-.1925,0-.3454-.0945-.4593-.0943-.1136-.2361-.1706-.4252-.1706h-.635l-.1993,1.2493ZM420.905,785.8377c-.3602,0-.6308-.1005-.8107-.3019-.1803-.201-.2423-.473-.1865-.8161l.2677-1.7006c.0561-.3463.2056-.6194.4488-.8187s.545-.2993.9056-.2993c.3568,0,.6253.1008.8056.3019.1803.2013.2423.4733.1865.8161h-.567c.0313-.1993.0026-.3517-.0866-.4565-.0894-.1051-.2284-.1575-.4175-.1575-.1925,0-.3508.0524-.475.1575-.1242.1048-.2019.2554-.2335.4514l-.2677,1.7057c-.0316.1996-.0026.3517.0866.4568.0894.1051.2301.1575.4226.1575s.35-.0524.4724-.1575.1993-.2571.2309-.4568h.5667c-.0347.2275-.1145.4252-.2386.5932s-.2808.2976-.4699.3884c-.1888.0908-.4024.1364-.6404.1364ZM424.0335,785.8377c-.3571,0-.6231-.1005-.7979-.3019-.1751-.201-.2344-.473-.1785-.8161l.2677-1.7006c.0561-.3429.203-.6148.4411-.8161.2378-.201.5354-.3019.8922-.3019.3571,0,.6228.1.7979.2993.1748.1993.2361.4707.1837.8136l-.2677,1.7057c-.0561.3431-.2039.6151-.4437.8161-.2395.2013-.5379.3019-.8947.3019ZM424.1121,785.3339c.1925,0,.3483-.0524.4673-.1575.1187-.1051.1942-.2571.2255-.4568l.2677-1.7006c.0316-.1993.0054-.3517-.0786-.4565-.084-.1051-.2224-.1575-.4146-.1575-.1925,0-.3474.0524-.4647.1575-.117.1048-.1914.2571-.223.4565l-.2677,1.7006c-.0316.1996-.0051.3517.0789.4568.0837.1051.2204.1575.4092.1575ZM425.9653,785.7853l.6088-3.8315h.6874l.1837,1.2282c.0211.119.0367.2301.0473.3332.0105.1034.0194.1828.0262.2389.0177-.0561.0473-.1364.0894-.2415.0419-.1051.0908-.217.1469-.336l.5667-1.2228h.7088l-.6088,3.8315h-.5354l.2045-1.2911c.0245-.168.0578-.3525.1-.5539.0419-.201.0874-.4041.1364-.6088s.0963-.3998.1418-.5852c.0453-.1854.0874-.3483.1259-.4881l-.8554,1.8632h-.5513l-.2833-1.8632c-.0037.1364-.0105.2947-.0211.475s-.0236.3719-.0393.5747c-.0157.203-.035.4069-.0578.6114-.0228.2047-.0481.3964-.076.5749l-.2047,1.2911h-.5405ZM429.1145,785.7853l.6088-3.8315h.6874l.1837,1.2282c.0211.119.0367.2301.0473.3332.0105.1034.0194.1828.0262.2389.0177-.0561.0473-.1364.0894-.2415.0419-.1051.0908-.217.1469-.336l.5667-1.2228h.7088l-.6088,3.8315h-.5354l.2045-1.2911c.0245-.168.0578-.3525.1-.5539.0419-.201.0874-.4041.1364-.6088s.0963-.3998.1418-.5852c.0453-.1854.0874-.3483.1259-.4881l-.8554,1.8632h-.5513l-.2833-1.8632c-.0037.1364-.0105.2947-.0211.475s-.0236.3719-.0393.5747c-.0157.203-.035.4069-.0578.6114-.0228.2047-.0481.3964-.076.5749l-.2047,1.2911h-.5405ZM432.4107,785.7853l.6088-3.8315h2.2516l-.0786.5038h-1.6955l-.1731,1.0867h1.5115l-.0786.4986h-1.5118l-.1942,1.2387h1.6901l-.0786.5038h-2.2516ZM435.5073,785.7853l.6088-3.8315h1.202c.2381,0,.4391.0464.6037.139.1643.0928.2833.223.3568.391s.0911.3656.0527.5932c-.0387.2591-.1401.4838-.3044.6746-.1646.1905-.3659.3209-.6037.391l.5354,1.6428h-.6194l-.4776-1.5748h-.5408l-.2466,1.5748h-.567ZM436.3997,783.7068h.635c.1891,0,.3491-.0558.4804-.168.131-.1119.2107-.2623.2386-.4514.0316-.1925,0-.3454-.0945-.4593-.0943-.1136-.2361-.1706-.4252-.1706h-.635l-.1993,1.2493ZM439.8007,785.8377c-.3602,0-.6308-.1005-.8107-.3019-.1803-.201-.2423-.473-.1865-.8161l.2677-1.7006c.0561-.3463.2056-.6194.4488-.8187s.545-.2993.9056-.2993c.3568,0,.6253.1008.8056.3019.1803.2013.2423.4733.1865.8161h-.567c.0313-.1993.0026-.3517-.0866-.4565-.0894-.1051-.2284-.1575-.4175-.1575-.1925,0-.3508.0524-.475.1575-.1242.1048-.2019.2554-.2335.4514l-.2677,1.7057c-.0316.1996-.0026.3517.0866.4568.0894.1051.2301.1575.4226.1575s.35-.0524.4724-.1575.1993-.2571.2309-.4568h.5667c-.0347.2275-.1145.4252-.2386.5932s-.2808.2976-.4699.3884c-.1888.0908-.4024.1364-.6404.1364ZM441.8792,785.7853l.0789-.5038h.7768l.4459-2.824h-.7766l.0837-.5038h2.1258l-.084.5038h-.7766l-.4462,2.824h.7768l-.0789.5038h-2.1258ZM444.7399,785.7853l1.585-3.8315h.7452l.3728,3.8315h-.5616l-.0735-.9711h-1.0867l-.3884.9711h-.5929ZM445.8998,784.3418h.8714l-.0894-1.1023c-.0174-.1959-.0296-.3654-.0367-.5089-.0068-.1435-.0103-.2432-.0103-.2993-.0177.0561-.0518.1558-.1025.2993s-.1148.3112-.1916.5038l-.4408,1.1075ZM448.2354,785.7853l.6088-3.8315h.567l-.5248,3.3118h1.6741l-.0786.5197h-2.2465ZM453.1932,785.8377c-.3676,0-.6345-.1005-.8005-.3019-.1663-.201-.2213-.475-.1654-.8213l.4357-2.7608h.567l-.4357,2.7554c-.0316.1962-.008.35.0709.4619.0786.1122.2141.168.4066.168s.3474-.0558.4645-.168c.1173-.1119.1916-.2657.2233-.4619l.4357-2.7554h.5667l-.4357,2.7608c-.0558.35-.2002.6245-.4328.8241-.2329.1993-.5328.299-.9001.299ZM456.3581,785.8377c-.385,0-.6738-.0951-.866-.2859-.1925-.1908-.2643-.4505-.2153-.7794h.567c-.0282.1748.0105.3121.1153.4121.1051.0997.266.1495.483.1495.2028,0,.3699-.049.5012-.1469s.2107-.2327.2389-.4044c.0211-.1504.0009-.2788-.0604-.3856s-.1583-.1811-.2913-.2233l-.4568-.1364c-.266-.0803-.4619-.217-.5878-.4095-.1259-.1922-.1697-.4197-.1313-.6823.035-.2099.1119-.3935.2309-.551s.2731-.2799.4619-.3673c.1891-.0874.4024-.1313.6404-.1313.3497,0,.6157.0954.7979.2859.1817.1908.2483.4437.1993.7586h-.567c.0279-.168-.0026-.3001-.0917-.3964-.0894-.0963-.2301-.1444-.4226-.1444-.1891,0-.3429.0447-.4619.1338-.119.0894-.1891.2144-.2099.3753-.0245.1506-.0071.2791.0524.3859s.1575.1811.2939.223l.4673.1469c.2623.0806.4556.2173.5798.4095.1242.1925.1654.4217.1236.6877-.035.217-.1156.4058-.2415.5667-.1262.1612-.2879.2862-.4855.3753-.1979.0894-.4192.1338-.6641.1338ZM458.4209,785.7853l.6088-3.8315h2.2516l-.0786.5038h-1.6955l-.1731,1.0867h1.5115l-.0786.4986h-1.5118l-.1942,1.2387h1.6901l-.0786.5038h-2.2516Z" style="fill: #ccc;"/>
  <g id="layer1">
    <path id="path2175" d="M399.8855,50c-97.9692.031-191.8806,39.307-260.7015,109.0326l-24.7512,25.0743,25.4569,24.1301c-47.1282,58.8572-73.4252,132.116-73.4255,208.2256,0,88.4467,35.1491,173.3054,97.6905,235.8468,62.5414,62.5414,147.4001,97.6906,235.8468,97.6905,88.4467,0,173.3023-35.1491,235.8437-97.6905,62.5414-62.5414,97.6906-147.4001,97.6905-235.8468-.0002-76.1094-26.294-149.3681-73.4224-208.2256l25.4413-24.1427-24.7355-25.0617c-68.849-69.7541-162.8083-109.0326-260.8176-109.0326h-.1161ZM399.8952,119.053h.107c67.6978,0,132.8613,23.2244,185.256,65.0162l-22.2701,21.1347,24.8422,25.0649c49.1099,49.5404,76.6489,116.4371,76.65,186.1939,0,70.1584-27.8527,137.4059-77.4624,187.0157-49.6097,49.6097-116.8572,77.4655-187.0157,77.4655-70.1584,0-137.4059-27.8558-187.0157-77.4655-49.6098-49.6097-77.4655-116.8572-77.4655-187.0157.0011-69.7629,27.5451-136.665,76.6625-186.2064l24.8641-25.0774-22.2889-21.1252c52.364-41.7615,117.4827-64.9764,185.1368-65.0005h-.0003Z" style="fill: #fff;"/>
    <path id="path2177" d="M399.8932,74.0882c-91.5372.0289-179.2619,36.7176-243.5645,101.8655l-7.4832,7.5812,24.0804,22.824c-52.8235,57.0891-82.3707,132.0667-82.3711,210.1054,0,82.0663,32.6047,160.7822,90.6344,218.8119s136.7456,90.6344,218.8119,90.6344c82.0663,0,160.7823-32.6047,218.8119-90.6344,58.0296-58.0297,90.6344-136.7456,90.6344-218.8119-.0002-78.0338-29.5433-153.0074-82.3611-210.0954l24.0655-22.8381-7.4782-7.577c-64.3289-65.1745-152.0977-101.8655-243.6724-101.8655h-.1079ZM399.8964,94.9652h.1044c82.438,0,161.5162,31.7257,221.1423,88.2609l-23.7153,22.5053,7.5106,7.577c53.5759,54.0455,83.6314,127.0553,83.6316,203.1558,0,76.5373-30.4005,149.9287-84.5205,204.0488-54.12,54.12-127.5115,84.5205-204.0488,84.5205-76.5373,0-149.9287-30.4005-204.0488-84.5205-54.1202-54.1201-84.5207-127.5115-84.5207-204.0488.0003-76.1072,30.0608-149.1224,83.645-203.1691l7.5172-7.582-23.7302-22.492c59.5993-56.5074,138.6333-88.2291,221.0327-88.2559h.0004Z"/>
    <path id="path2169" d="M399.8965,84.5267c-88.7504.0279-173.7937,35.5955-236.1385,98.76l23.9062,22.6588c-55.5196,55.9988-86.6705,131.6624-86.6708,210.5187,0,79.3018,31.5025,155.3556,87.5773,211.4304,56.0748,56.0749,132.1287,87.5774,211.4305,87.5773,79.3018,0,155.3556-31.5025,211.4305-87.5773,56.0748-56.0748,87.5773-132.1286,87.5773-211.4304-.0003-78.8493-31.1456-154.5069-86.6567-210.5046l23.8921-22.6729c-62.3704-63.1903-147.4564-98.76-236.2432-98.76h-.1047Z" style="fill: #fff;"/>
    <g id="g1003-1-8">
      <path id="path935-4-4" d="M396.7709,92.5732c0,1.8093,1.4667,3.276,3.276,3.276s3.276-1.4667,3.276-3.276-1.4667-3.276-3.276-3.276-3.276,1.4667-3.276,3.276Z"/>
      <path id="path935-7-4-38" d="M404.0625,98.3593c0,1.8093,1.4667,3.276,3.276,3.276s3.276-1.4667,3.276-3.276-1.4667-3.276-3.276-3.276-3.276,1.4667-3.276,3.276Z"/>
      <path id="path935-7-8-8-2" d="M389.4789,98.3593c0,1.8093,1.4667,3.276,3.276,3.276s3.276-1.4667,3.276-3.276-1.4667-3.276-3.276-3.276-3.276,1.4667-3.276,3.276Z"/>
    </g>
    <path id="path970-4-9" d="M400.0467,103.5116c1.1861,5.386,1.6916,12.367,3.6584,19.4373,1.6168,5.8119,3.2794,6.7215,5.8887,10.8897-2.6036-.773-4.9951-2.0124-6.9794-4.1479-.6123,2.379-1.5924,3.2866-2.5678,4.2134-.9753-.9268-1.9555-1.8344-2.5678-4.2134-1.9842,2.1354-4.3758,3.3749-6.9794,4.1479,2.6093-4.1682,4.2719-5.0778,5.8887-10.8897,1.9669-7.0703,2.4724-14.0513,3.6584-19.4373Z"/>
    <g id="g1003-1-1-7">
      <path id="path935-4-1-0" d="M495.7443,107.4384c-.4926,1.741.5194,3.5516,2.2604,4.0442s3.5516-.5194,4.0442-2.2604-.5194-3.5516-2.2604-4.0442-3.5516.5194-4.0442,2.2604Z"/>
      <path id="path935-7-4-3-9" d="M501.1853,114.9911c-.4926,1.741.5194,3.5516,2.2604,4.0442s3.5516-.5194,4.0442-2.2604-.5194-3.5516-2.2604-4.0442-3.5516.5194-4.0442,2.2604Z"/>
      <path id="path935-7-8-8-0-5" d="M487.1525,111.0207c-.4926,1.741.5194,3.5516,2.2604,4.0442s3.5516-.5194,4.0442-2.2604-.5194-3.5516-2.2604-4.0442-3.5516.5194-4.0442,2.2604Z"/>
    </g>
    <path id="path970-4-7-0" d="M495.9184,118.8554c-.3251,5.5055-1.7393,12.3604-1.7717,19.6992-.0267,6.0326,1.3256,7.3604,2.7015,12.0816-2.2947-1.4526-4.2586-3.2963-5.5864-5.8913-1.2369,2.1225-2.4271,2.7289-3.6179,3.3551-.6862-1.1573-1.3822-2.2975-1.3237-4.7534-2.4906,1.5146-5.1293,2.0561-7.845,2.091,3.6456-3.3004,5.493-3.7229,8.631-8.8752,3.8175-6.2678,6.2045-12.8474,8.8121-17.7071h0Z"/>
    <g id="g1003-1-2-1">
      <path id="path935-4-2-4" d="M580.5785,146.3319c-1.1027,1.4345-.8337,3.4912.6007,4.5939s3.4912.8337,4.5939-.6007.8337-3.4912-.6007-4.5939-3.4912-.8337-4.5939.6007Z"/>
      <path id="path935-7-4-5-1" d="M582.8331,155.3632c-1.1027,1.4345-.8337,3.4912.6007,4.5939s3.4912.8337,4.5939-.6007.8337-3.4912-.6007-4.5939-3.4912-.8337-4.5939.6007Z"/>
      <path id="path935-7-8-8-9-3" d="M571.2708,146.4751c-1.1027,1.4345-.8337,3.4912.6007,4.5939s3.4912.8337,4.5939-.6007.8337-3.4912-.6007-4.5939-3.4912-.8337-4.5939.6007Z"/>
    </g>
    <path id="path970-4-8-8" d="M576.5093,157.0005c-2.3422,4.993-6.196,10.8358-8.9456,17.64-2.2603,5.5932-1.4965,7.3276-1.9681,12.2225-1.5931-2.1995-2.7338-4.6398-3.0055-7.5421-1.9354,1.513-3.2656,1.6352-4.6037,1.7755-.2085-1.3292-.4324-2.6461.5321-4.9055-2.8746.4838-5.5261.0096-8.0613-.9651,4.609-1.7144,6.4816-1.4222,11.3055-5.0447,5.8684-4.4068,10.5238-9.6334,14.7467-13.1807h0Z"/>
    <path id="path117-2" d="M674.9443,416.4642c0,151.847-123.0963,274.9434-274.9433,274.9434h0c-151.8471,0-274.9434-123.0963-274.9434-274.9433h0c0-151.8471,123.0964-274.9434,274.9434-274.9434s274.9434,123.0963,274.9434,274.9433" style="fill: #fff;"/>
    <path id="path117-2-0" d="M253.4877,183.8095c-17.7209,11.1598-34.1087,24.3077-48.8447,39.188v.0017c-50.9839,51.4827-79.5849,121.0094-79.5851,193.465,0,72.9194,28.9669,142.8526,80.5287,194.4144,51.5618,51.5618,121.495,80.5286,194.4144,80.5287,72.9194,0,142.8526-28.9669,194.4144-80.5287,51.5618-51.5618,80.5287-121.495,80.5287-194.4144-.0001-72.4341-28.584-141.9421-79.5411-193.421l-195.3564,179.36-146.559-134.5586v-84.035Z"/>
    <path id="path117-2-9" d="M236.9959,252.703c-43.5638,43.3622-68.0549,102.295-68.0553,163.7612.0002,127.6109,103.4493,231.0597,231.0602,231.0596h.0002c127.6106-.0002,231.0594-103.449,231.0596-231.0596,0-61.4447-24.4736-120.359-68.0104-163.718l-163.0035,149.657-163.0508-149.7002Z" style="fill: #d51010;"/>
    <path id="path2189" d="M250.9764,338.3272c-9.4061.0753-16.816,2.5862-21.7368,7.7961-4.4863,4.7499-6.2915,10.3889-6.2981,18.9483-.008,12.4244,3.6973,27.5882,11.2385,46.677,8.0492,20.3745,18.858,46.0515,36.231,75.5144,17.9164,30.3844,27.2504,45.9896,29.9113,59.094,1.1243,5.537.6814,12.011-.3577,14.1772-1.0475,2.1837-3.4024,4.4295-6.9189,6.1952-2.518,1.2643-2.2634,1.2042-4.9786,1.2042-3.6651,0-5.1859-.7308-9.1679-4.5728-3.5701-3.4445-7.1137-8.715-10.875-16.408-2.8678-5.8656-3.7795-8.0589-9.7547-23.4024-7.456-19.1462-17.9725-38.85-29.3561-54.9917-2.7883-3.9537-4.2556-6.0466-5.7462-7.509s-3.0437-2.0835-4.918-2.6814c-9.3678-2.9885-21.959-3.7466-34.9613-2.2432-1.1001.1272-2.1447.273-2.9735.4108-.4144.0689-.7705.1328-1.0789.2008-.1542.034-.2947.0679-.4481.1129-.1535.045-.2576.0257-.6938.2979-.9533.595-1.0509,1.5424-1.0507,1.9511.0002.4087.0649.6392.1286.8689.1275.4595.3038.8696.5369,1.3801.4664,1.021,1.1748,2.3694,2.1511,4.103,10.6282,18.8739,19.4444,39.8278,26.3261,62.5978,5.6745,18.7753,10.4279,32.0394,15.5797,43.4238,9.9654,22.0216,24.9448,41.7936,39.427,51.6066,7.8734,5.335,17.5982,9.0263,27.5652,10.4924,8.3692,1.2312,19.0908.6168,27.615-1.5594,12.2488-3.127,24.3393-10.3561,31.6923-19.0769,19.5761-23.2176,22.1603-56.9766,4.401-97.6935-9.4454-21.6556-20.2242-44.5194-37.0626-63.1282-10.9753-12.1293-20.5514-22.4589-27.1071-30.7263-3.2779-4.1337-5.7945-7.757-7.3455-10.7431-1.5509-2.9861-2.0438-5.2756-1.7884-6.6625.5336-2.8974,1.4798-4.6878,3.5511-6.7405,2.3921-2.3705,4.2525-3.1061,8.0044-3.0922,6.6044.0246,12.8354,4.2866,21.0936,15.466,5.5611,7.5283,10.0059,14.5026,13.9399,21.8721.5622,1.0532,1.1068,2.0334,1.5494,2.7852.2213.3759.417.6905.5892.9536.0861.1315.1639.2489.2606.3768.0967.1278-.0257.1995.6747.6365.6206.3873.9022.3394,1.1411.3577.2389.0182.4226.012.6116,0,.378-.0241.763-.079,1.2075-.1535.889-.1491,1.991-.3856,3.2184-.6838,2.4547-.5964,5.3846-1.4309,7.7795-2.2648,8.3118-2.8943,14.8123-6.8,20.2562-12.2361,1.9734-1.9706,3.7517-4.1274,5.0466-6.0409.6475-.9567,1.1757-1.8442,1.5561-2.6881s.8173-1.5455.4764-2.9171c-.1481-.5957-.3137-.8389-.5237-1.2233-.21-.3844-.4664-.8156-.7718-1.2988-.6109-.9664-1.4113-2.1436-2.3179-3.425-1.8132-2.5629-4.0438-5.5199-5.9687-7.8384-18.8177-22.6672-41.2079-38.3644-69.4644-48.7119-15.1671-5.5542-27.874-8.5056-38.1888-8.7704-.6447-.0166-1.28-.0224-1.9071-.0174h0Z" style="fill: #fff;"/>
    <path id="path2183" d="M495.0414,366.1356c-5.7105-.0233-11.7984.6434-18.3301,1.9694-16.5206,3.3537-32.1636,13.5943-43.9665,28.6192l-2.4814,3.1586c-.4754.6048-.5869,1.4193-.2913,2.1295l2.1171,5.0782c7.1443,17.1533,17.415,47.4368,27.527,81.2233,12.3641,41.3115,19.1222,84.5395,21.0405,134.7088l.2548,6.6309c.0261.6836.3798,1.3129.9502,1.6905l1.3926.922c2.4604,1.6283,6.12,2.7868,9.4227,3.1437,3.7855.409,6.8662.1178,10.9149-1.0042,4.2162-1.1684,8.9877-3.4319,12.5689-5.9687l2.2988-1.6283c.571-.4041.9065-1.0633.8972-1.7628l-.088-6.6807c-.2523-19.4409-3.1971-52.7736-6.6774-75.6813-.2115-1.3919-.3929-2.6716-.5087-3.5909-.0145-.113-.0183-.1589-.0306-.2606.0708-.0482.1079-.073.1851-.1253.7125-.4842,1.6807-1.1394,2.732-1.8474,5.3763-3.6204,10.5918-7.853,15.2685-12.3904.9108-.8837,1.721-1.6284,2.4125-2.2516.2471.3334.4041.5365.7336.991,1.3479,1.8586,3.388,4.7308,6.1985,8.7355,5.6211,8.0094,14.3318,20.5487,26.8556,38.6435,3.9753,5.7437,7.6468,11.0262,10.3605,14.9117,1.3569,1.9427,2.473,3.5371,3.2715,4.6674.3993.5651.7204,1.0123.9536,1.3361.1166.1619.2103.2938.288.3984.0776.1045.0115.0636.2855.3544.4776.5059,1.5409.9999,2.4158.9029s1.4355-.4549,2.0075-.8565c1.1442-.8031,2.4259-2.0476,4.5072-4.1337,5.3405-5.3528,10.169-12.1242,14.0519-19.6637l1.6432-3.1901c.3381-.6565.3111-1.4414-.0714-2.0731l-1.7818-2.9387c-3.3001-5.4475-16.6994-25.3763-22.4024-33.343-9.0719-12.6732-16.1222-21.9076-24.917-32.6367l-3.6225-4.4225,1.5552-4.6674c3.9265-11.7599,5.3362-20.5644,5.3263-33.2732-.0081-9.5382-.5284-14.5832-2.3586-22.8123-4.1443-18.6349-14.6594-38.814-25.7925-48.8945-10.3592-9.3798-22.5069-14.0559-37.1066-14.1175h-.0101ZM484.9357,406.6033c.3111-.005.7066.0021,1.2449.0075,3.1283.0312,5.3669,1.1329,9.0957,4.8616,7.1892,7.1888,13.3195,20.732,15.8777,35.8642.9366,5.5402,1.2948,16.6476.7436,20.8214-1.2471,9.443-5.0623,17.2966-9.987,21.4197-.2454.2055-.2383.1617-.4423.3071-.0696-.2238-.0537-.1751-.1287-.4199-.376-1.2291-.8714-2.859-1.3959-4.5952-6.2657-20.7392-14.938-44.194-22.6082-61.1272-1.4362-3.1707-1.9894-4.5997-2.0175-5.2915-.0281-.6917.3269-1.5129,1.537-3.9578,1.6715-3.3771,3.9543-5.9785,5.9662-7.1612,1.0062-.5915,1.1814-.7136,2.1146-.7287h0Z" style="fill: #fff;"/>
    <path id="rect246-6" d="M302.3332,312.6908l48.8447,44.8454v-211.6457c-16.6642,3.007-33.0149,7.547-48.8439,13.5623l-.0008,153.238Z"/>
    <path id="rect246-5" d="M400.0226,141.521v260.8597l.024.0224,48.8215-44.8238v-211.6805c-16.1189-2.9113-32.4658-4.3764-48.8455-4.3777h0Z"/>
    <path id="rect246-1" d="M497.7129,159.4693v153.2646l48.8455-44.8462v-84.05c-15.4332-9.723-31.7957-17.886-48.8455-24.3684Z"/>
    <g id="g1003-1-1">
      <path id="path935-4-1" d="M304.3491,107.4384c.4926,1.741-.5194,3.5516-2.2604,4.0442s-3.5516-.5194-4.0442-2.2604.5194-3.5516,2.2604-4.0442,3.5516.5194,4.0442,2.2604Z"/>
      <path id="path935-7-4-3" d="M298.9082,114.9911c.4926,1.741-.5194,3.5516-2.2604,4.0442s-3.5516-.5194-4.0442-2.2604.5194-3.5516,2.2604-4.0442,3.5516.5194,4.0442,2.2604Z"/>
      <path id="path935-7-8-8-0" d="M312.941,111.0207c.4926,1.741-.5194,3.5516-2.2604,4.0442s-3.5516-.5194-4.0442-2.2604.5194-3.5516,2.2604-4.0442,3.5516.5194,4.0442,2.2604Z"/>
    </g>
    <path id="path970-4-7" d="M304.175,118.8554c.3251,5.5055,1.7393,12.3604,1.7716,19.6992.0267,6.0326-1.3256,7.3604-2.7015,12.0816,2.2947-1.4526,4.2586-3.2963,5.5864-5.8913,1.2369,2.1225,2.4271,2.7289,3.6179,3.3551.6862-1.1573,1.3822-2.2975,1.3237-4.7534,2.4906,1.5146,5.1294,2.0561,7.845,2.091-3.6456-3.3004-5.493-3.7229-8.631-8.8752-3.8175-6.2678-6.2045-12.8474-8.8122-17.7071h0Z"/>
    <g id="g1003-1-2">
      <path id="path935-4-2" d="M219.515,146.3319c1.1027,1.4345.8337,3.4912-.6007,4.5939s-3.4912.8337-4.5939-.6007-.8337-3.4912.6007-4.5939,3.4912-.8337,4.5939.6007Z"/>
      <path id="path935-7-4-5" d="M217.2603,155.3632c1.1027,1.4345.8337,3.4912-.6007,4.5939s-3.4912.8337-4.5939-.6007-.8337-3.4912.6007-4.5939,3.4912-.8337,4.5939.6007Z"/>
      <path id="path935-7-8-8-9" d="M228.8226,146.4751c1.1027,1.4345.8337,3.4912-.6007,4.5939s-3.4912.8337-4.5939-.6007-.8337-3.4912.6007-4.5939,3.4912-.8337,4.5939.6007Z"/>
    </g>
    <path id="path970-4-8" d="M223.5841,157.0005c2.3422,4.993,6.1959,10.8358,8.9456,17.64,2.2602,5.5932,1.4965,7.3276,1.968,12.2225,1.593-2.1995,2.7338-4.6398,3.0055-7.5421,1.9354,1.513,3.2655,1.6352,4.6037,1.7755.2085-1.3292.4324-2.6461-.5321-4.9055,2.8745.4838,5.5261.0096,8.0614-.9651-4.6091-1.7144-6.4816-1.4222-11.3055-5.0447-5.8685-4.4068-10.5238-9.6334-14.7466-13.1807Z"/>
  </g>
</svg>