<?xml version="1.0" encoding="utf-8"?>
<!-- Created by @FCLOGO 2024-9-25 GMT+8 16:07:21 . https://fclogo.top/ -->
<!-- FOR PERSONAL USE ONLY NOT FOR COMMERCIAL USE -->
<!-- Created by @FCLOGO 2024-9-25 GMT+8 16:07:21 . https://fclogo.top/ -->
<!-- FOR PERSONAL USE ONLY NOT FOR COMMERCIAL USE -->
<svg version="1.1" xmlns="http://www.w3.org/2000/svg" xmlns:xlink="http://www.w3.org/1999/xlink" x="0px" y="0px"
	 viewBox="0 0 800 800" style="enable-background:new 0 0 800 800;" xml:space="preserve">
<path style="fill:#CCCCCC;" d="M348.22,774.3c-0.79,0-1.38-0.22-1.77-0.65c-0.39-0.44-0.53-1.03-0.41-1.79l0.25-1.65
	c0.12-0.75,0.45-1.35,0.98-1.78c0.53-0.44,1.19-0.65,1.98-0.65c0.76,0,1.33,0.2,1.72,0.6c0.39,0.4,0.55,0.94,0.47,1.62h-1.24
	c0.03-0.36-0.06-0.64-0.26-0.84c-0.2-0.2-0.5-0.3-0.89-0.3c-0.42,0-0.76,0.12-1.03,0.35c-0.27,0.23-0.43,0.56-0.5,0.99l-0.26,1.66
	c-0.07,0.44-0.01,0.77,0.19,1c0.19,0.23,0.5,0.35,0.92,0.35c0.39,0,0.72-0.1,0.98-0.3c0.26-0.2,0.44-0.48,0.52-0.85h1.24
	c-0.14,0.69-0.47,1.23-0.99,1.63C349.61,774.1,348.97,774.3,348.22,774.3z M352.8,774.19l1-6.29h1.19l-0.19,1.19
	c0.34-0.87,0.97-1.3,1.91-1.3c0.67,0,1.17,0.21,1.49,0.62c0.32,0.42,0.43,0.99,0.31,1.71l-0.07,0.42h-1.27l0.06-0.32
	c0.07-0.45,0.01-0.8-0.17-1.04c-0.18-0.24-0.48-0.36-0.88-0.36c-0.4,0-0.74,0.12-1.01,0.37c-0.27,0.24-0.43,0.59-0.5,1.03
	l-0.63,3.97H352.8z M361.91,774.3c-0.77,0-1.35-0.22-1.73-0.67c-0.38-0.45-0.51-1.04-0.4-1.77l0.25-1.65
	c0.08-0.49,0.26-0.92,0.52-1.28c0.26-0.37,0.6-0.65,1.01-0.85c0.41-0.2,0.87-0.3,1.38-0.3c0.77,0,1.35,0.22,1.73,0.67
	c0.39,0.45,0.52,1.04,0.39,1.77l-0.17,1.12h-3.85l-0.09,0.53c-0.15,0.95,0.22,1.43,1.11,1.43c0.72,0,1.17-0.25,1.37-0.74h1.22
	c-0.17,0.53-0.5,0.96-1.01,1.28C363.16,774.14,362.58,774.3,361.91,774.3z M361.23,770.22l-0.05,0.29l2.65-0.01l0.05-0.29
	c0.07-0.47,0.01-0.82-0.17-1.07c-0.18-0.25-0.49-0.37-0.92-0.37c-0.44,0-0.8,0.13-1.06,0.38
	C361.48,769.39,361.31,769.75,361.23,770.22z M368.33,774.3c-0.63,0-1.1-0.21-1.41-0.64c-0.31-0.42-0.4-1-0.27-1.73l0.27-1.77
	c0.11-0.73,0.39-1.31,0.84-1.74c0.44-0.43,0.98-0.64,1.61-0.64c0.47,0,0.83,0.12,1.09,0.35c0.26,0.24,0.39,0.56,0.38,0.96h0.02
	l0.17-1.2h1.24l-1,6.29h-1.22l0.19-1.2h-0.02c-0.12,0.41-0.35,0.73-0.69,0.97C369.2,774.18,368.8,774.3,368.33,774.3z
	 M368.93,773.23c0.39,0,0.72-0.12,0.98-0.36c0.26-0.24,0.43-0.57,0.5-1.01l0.25-1.65c0.07-0.43,0.01-0.76-0.18-1
	c-0.19-0.24-0.47-0.36-0.86-0.36c-0.4,0-0.72,0.12-0.98,0.35c-0.26,0.24-0.42,0.57-0.49,1.01l-0.25,1.65
	c-0.07,0.44-0.01,0.78,0.17,1.01C368.24,773.11,368.53,773.23,368.93,773.23z M376.35,774.19c-0.57,0-0.99-0.16-1.26-0.47
	c-0.27-0.31-0.36-0.75-0.27-1.32l0.54-3.39h-1.74l0.17-1.12h1.74l0.27-1.72h1.24l-0.27,1.72h2.47l-0.18,1.12h-2.46l-0.54,3.39
	c-0.08,0.44,0.1,0.66,0.53,0.66h1.72l-0.17,1.12H376.35z M382.5,774.3c-0.77,0-1.35-0.22-1.73-0.67c-0.38-0.45-0.52-1.04-0.4-1.77
	l0.25-1.65c0.08-0.49,0.26-0.92,0.52-1.28c0.26-0.37,0.6-0.65,1.01-0.85c0.41-0.2,0.87-0.3,1.38-0.3c0.77,0,1.35,0.22,1.73,0.67
	c0.39,0.45,0.52,1.04,0.39,1.77l-0.17,1.12h-3.85l-0.09,0.53c-0.15,0.95,0.22,1.43,1.11,1.43c0.72,0,1.17-0.25,1.37-0.74h1.22
	c-0.17,0.53-0.5,0.96-1.01,1.28C383.76,774.14,383.18,774.3,382.5,774.3z M381.83,770.22l-0.05,0.29l2.65-0.01l0.05-0.29
	c0.07-0.47,0.01-0.82-0.17-1.07c-0.18-0.25-0.49-0.37-0.92-0.37c-0.44,0-0.8,0.13-1.06,0.38
	C382.08,769.39,381.91,769.75,381.83,770.22z M388.92,774.3c-0.63,0-1.1-0.21-1.4-0.64c-0.3-0.42-0.39-1-0.28-1.73l0.27-1.77
	c0.11-0.73,0.39-1.31,0.84-1.74c0.44-0.43,0.98-0.64,1.61-0.64c0.47,0,0.83,0.12,1.09,0.35c0.26,0.24,0.39,0.56,0.38,0.96h0.02
	l0.21-1.47l0.3-1.8h1.24l-1.33,8.35h-1.22l0.19-1.2h-0.02c-0.12,0.41-0.35,0.73-0.69,0.97C389.8,774.18,389.4,774.3,388.92,774.3z
	 M389.53,773.23c0.39,0,0.72-0.12,0.98-0.36c0.26-0.24,0.43-0.57,0.5-1.01l0.25-1.65c0.08-0.43,0.02-0.76-0.17-1
	c-0.19-0.24-0.48-0.36-0.87-0.36c-0.4,0-0.72,0.12-0.98,0.35c-0.26,0.24-0.42,0.57-0.49,1.01l-0.25,1.65
	c-0.08,0.44-0.02,0.78,0.16,1.01C388.83,773.11,389.13,773.23,389.53,773.23z M401.02,774.3c-0.47,0-0.84-0.12-1.1-0.35
	c-0.26-0.23-0.39-0.56-0.38-0.97h-0.01l-0.19,1.2h-1.22l1.33-8.35h1.24l-0.29,1.8l-0.27,1.47h0.05c0.12-0.41,0.35-0.73,0.69-0.97
	c0.34-0.23,0.74-0.35,1.21-0.35c0.63,0,1.1,0.21,1.4,0.64c0.3,0.43,0.39,1.01,0.28,1.74l-0.27,1.77c-0.11,0.73-0.39,1.31-0.84,1.73
	C402.18,774.09,401.64,774.3,401.02,774.3z M400.77,773.23c0.4,0,0.72-0.12,0.98-0.35c0.26-0.23,0.42-0.57,0.5-1.01l0.25-1.65
	c0.07-0.43,0.01-0.77-0.17-1.01c-0.18-0.24-0.47-0.35-0.87-0.35c-0.39,0-0.72,0.12-0.98,0.36c-0.26,0.24-0.43,0.57-0.5,1l-0.25,1.65
	c-0.07,0.44-0.01,0.77,0.17,1.01C400.08,773.11,400.37,773.23,400.77,773.23z M405.47,776.25l0.17-1.06h1.93
	c0.64,0,1.01-0.3,1.1-0.9l0.1-0.67l0.21-1.19h-0.03c-0.12,0.42-0.35,0.74-0.68,0.97c-0.33,0.23-0.73,0.34-1.2,0.34
	c-0.63,0-1.09-0.2-1.4-0.6c-0.31-0.4-0.41-0.94-0.3-1.63l0.58-3.6h1.24l-0.56,3.48c-0.06,0.41,0,0.73,0.18,0.96
	c0.18,0.23,0.47,0.34,0.85,0.34c0.39,0,0.72-0.12,0.98-0.37c0.27-0.24,0.43-0.58,0.49-1.02l0.54-3.4h1.24l-1.01,6.41
	c-0.1,0.6-0.37,1.08-0.81,1.42c-0.44,0.35-1,0.52-1.67,0.52H405.47z M417.79,770.09h3.22l0.54-1.85h-5.47l-1.71,6.44h2.15l0.59-2.1
	h3.03l0.44-1.71h-3.03L417.79,770.09z M424.23,772.92c-0.59,0-1.02-0.39-1.02-1.12c0-0.88,0.63-1.76,1.61-1.76
	c0.49,0,0.88,0.24,1.02,0.78l1.95-0.83c-0.29-1.17-1.27-1.9-2.64-1.9c-2.78,0-4.15,2.15-4.15,3.9c0,1.76,1.27,2.83,3.07,2.83
	c1.37,0,2.34-0.59,2.98-1.42l-1.51-1.17C425.16,772.67,424.72,772.92,424.23,772.92z M430.91,768.23h-2.15l-1.76,6.44h5.12
	l0.49-1.85h-2.93L430.91,768.23z M439.75,771.01c0-1.66-1.32-2.93-3.22-2.93c-2.2,0-3.81,1.81-3.81,3.81c0,1.66,1.32,2.93,3.22,2.93
	C438.14,774.82,439.75,773.01,439.75,771.01z M434.92,771.7c0-0.83,0.59-1.71,1.51-1.71c0.78,0,1.17,0.54,1.17,1.22
	c0,0.83-0.59,1.71-1.51,1.71C435.31,772.92,434.92,772.38,434.92,771.7z M443.21,772.23h1.07l-0.2,0.68
	c-0.15,0.05-0.34,0.1-0.59,0.1c-0.68,0-1.27-0.39-1.27-1.22c0-1.02,0.73-1.9,1.95-1.9c0.59,0,1.12,0.24,1.51,0.59l1.37-1.37
	c-0.44-0.54-1.51-1.07-2.73-1.07c-2.59,0-4.29,1.76-4.29,3.86c0,2.05,1.61,2.88,3.22,2.88c0.93,0,1.85-0.29,2.49-0.68l0.93-3.32
	h-3.12L443.21,772.23z M450.78,768.08c-2.2,0-3.81,1.81-3.81,3.81c0,1.66,1.32,2.93,3.22,2.93c2.2,0,3.81-1.81,3.81-3.81
	C454,769.35,452.68,768.08,450.78,768.08z M450.34,772.92c-0.78,0-1.17-0.54-1.17-1.22c0-0.83,0.59-1.71,1.51-1.71
	c0.78,0,1.17,0.54,1.17,1.22C451.85,772.04,451.27,772.92,450.34,772.92z M437.94,767.5c-0.05,0.29,0.1,0.49,0.44,0.49
	s0.54-0.2,0.63-0.49c0.05-0.24-0.1-0.49-0.44-0.49C438.24,767.01,437.99,767.25,437.94,767.5z M432.13,765.5
	c-0.44,0-0.73,0.24-0.78,0.59c-0.05,0.34,0.1,0.59,0.54,0.59s0.73-0.24,0.78-0.59C432.77,765.74,432.57,765.5,432.13,765.5z
	 M433.01,767.3c-0.1,0.54,0.15,0.88,0.83,0.88c0.63,0,1.07-0.39,1.17-0.88s-0.15-0.88-0.83-0.88
	C433.5,766.43,433.11,766.82,433.01,767.3z M439.6,777.55l-2.44-1.81h-1.51l4.25,3.17l1.61-3.17h-0.98L439.6,777.55z M425.84,767.16
	l-2-1.46l23.13-2.78l-2.15,4.25h1.02l2.68-5.32l-26.99,3.22l2.78,2.1H425.84z M338.72,785.79l0.61-3.83h2.32l-0.08,0.52h-1.76
	l-0.18,1.14h1.63l-0.08,0.52h-1.62l-0.26,1.64H338.72z M342.97,785.84c-0.36,0-0.62-0.1-0.8-0.3c-0.17-0.2-0.23-0.47-0.18-0.82
	l0.27-1.7c0.06-0.34,0.2-0.61,0.44-0.82c0.24-0.2,0.54-0.3,0.89-0.3c0.36,0,0.62,0.1,0.8,0.3c0.17,0.2,0.24,0.47,0.18,0.81
	l-0.27,1.71c-0.06,0.34-0.2,0.62-0.44,0.82C343.63,785.74,343.33,785.84,342.97,785.84z M343.05,785.33c0.19,0,0.35-0.05,0.47-0.16
	c0.12-0.11,0.19-0.26,0.23-0.46l0.27-1.7c0.03-0.2,0.01-0.35-0.08-0.46c-0.08-0.11-0.22-0.16-0.41-0.16s-0.35,0.05-0.46,0.16
	c-0.12,0.1-0.19,0.26-0.22,0.46l-0.27,1.7c-0.03,0.2-0.01,0.35,0.08,0.46C342.72,785.28,342.86,785.33,343.05,785.33z M345,785.79
	l0.61-3.83h1.2c0.24,0,0.44,0.05,0.6,0.14c0.16,0.09,0.28,0.22,0.36,0.39c0.07,0.17,0.09,0.37,0.05,0.59
	c-0.04,0.26-0.14,0.48-0.3,0.67c-0.16,0.19-0.37,0.32-0.6,0.39l0.54,1.64h-0.62l-0.48-1.57h-0.54l-0.25,1.57H345z M345.89,783.71
	h0.64c0.19,0,0.35-0.06,0.48-0.17c0.13-0.11,0.21-0.26,0.24-0.45c0.03-0.19,0-0.35-0.09-0.46c-0.09-0.11-0.24-0.17-0.43-0.17h-0.64
	L345.89,783.71z M349.54,785.79l0.61-3.83h1.25c0.37,0,0.65,0.1,0.84,0.31c0.19,0.21,0.26,0.49,0.2,0.84
	c-0.04,0.23-0.12,0.44-0.25,0.61s-0.29,0.31-0.49,0.4c-0.2,0.09-0.42,0.14-0.66,0.14h-0.69l-0.24,1.52H349.54z M350.43,783.75h0.69
	c0.19,0,0.36-0.06,0.49-0.18c0.14-0.12,0.22-0.27,0.25-0.47c0.03-0.2,0-0.35-0.1-0.47c-0.1-0.12-0.25-0.18-0.44-0.18h-0.69
	L350.43,783.75z M352.75,785.79l0.61-3.83h2.25l-0.08,0.5h-1.7l-0.17,1.09h1.51l-0.08,0.5h-1.51l-0.19,1.24h1.69l-0.08,0.5H352.75z
	 M355.84,785.79l0.61-3.83h1.2c0.24,0,0.44,0.05,0.6,0.14c0.16,0.09,0.28,0.22,0.36,0.39c0.07,0.17,0.09,0.37,0.05,0.59
	c-0.04,0.26-0.14,0.48-0.3,0.67c-0.16,0.19-0.37,0.32-0.6,0.39l0.54,1.64h-0.62l-0.48-1.57h-0.54l-0.25,1.57H355.84z M356.74,783.71
	h0.64c0.19,0,0.35-0.06,0.48-0.17c0.13-0.11,0.21-0.26,0.24-0.45c0.03-0.19,0-0.35-0.09-0.46c-0.09-0.11-0.24-0.17-0.43-0.17h-0.64
	L356.74,783.71z M360.13,785.84c-0.39,0-0.67-0.1-0.87-0.29c-0.19-0.19-0.26-0.45-0.22-0.78h0.57c-0.03,0.17,0.01,0.31,0.12,0.41
	c0.11,0.1,0.27,0.15,0.48,0.15c0.2,0,0.37-0.05,0.5-0.15c0.13-0.1,0.21-0.23,0.24-0.4c0.02-0.15,0-0.28-0.06-0.39
	c-0.06-0.11-0.16-0.18-0.29-0.22l-0.46-0.14c-0.27-0.08-0.46-0.22-0.59-0.41c-0.13-0.19-0.17-0.42-0.13-0.68
	c0.04-0.21,0.11-0.39,0.23-0.55c0.12-0.16,0.27-0.28,0.46-0.37c0.19-0.09,0.4-0.13,0.64-0.13c0.35,0,0.62,0.1,0.8,0.29
	c0.18,0.19,0.25,0.44,0.2,0.76h-0.57c0.03-0.17,0-0.3-0.09-0.4c-0.09-0.1-0.23-0.14-0.42-0.14c-0.19,0-0.34,0.04-0.46,0.13
	c-0.12,0.09-0.19,0.21-0.21,0.38c-0.02,0.15-0.01,0.28,0.05,0.39c0.06,0.11,0.16,0.18,0.29,0.22l0.47,0.15
	c0.26,0.08,0.46,0.22,0.58,0.41c0.12,0.19,0.17,0.42,0.12,0.69c-0.04,0.22-0.12,0.41-0.24,0.57c-0.13,0.16-0.29,0.29-0.49,0.38
	C360.6,785.79,360.38,785.84,360.13,785.84z M363.27,785.84c-0.36,0-0.62-0.1-0.8-0.3c-0.17-0.2-0.23-0.47-0.18-0.82l0.27-1.7
	c0.06-0.34,0.2-0.61,0.44-0.82c0.24-0.2,0.54-0.3,0.89-0.3c0.36,0,0.62,0.1,0.8,0.3c0.17,0.2,0.24,0.47,0.18,0.81l-0.27,1.71
	c-0.06,0.34-0.2,0.62-0.44,0.82C363.92,785.74,363.62,785.84,363.27,785.84z M363.34,785.33c0.19,0,0.35-0.05,0.47-0.16
	c0.12-0.11,0.19-0.26,0.23-0.46l0.27-1.7c0.03-0.2,0.01-0.35-0.08-0.46c-0.08-0.11-0.22-0.16-0.41-0.16c-0.19,0-0.35,0.05-0.46,0.16
	c-0.12,0.1-0.19,0.26-0.22,0.46l-0.27,1.7c-0.03,0.2-0.01,0.35,0.08,0.46C363.02,785.28,363.15,785.33,363.34,785.33z
	 M365.28,785.79l0.61-3.83h0.71l0.62,3.19c0.01-0.1,0.02-0.22,0.03-0.36c0.01-0.14,0.03-0.29,0.04-0.44
	c0.02-0.15,0.04-0.29,0.06-0.41l0.31-1.98h0.52l-0.61,3.83h-0.71l-0.61-3.19c-0.01,0.09-0.02,0.21-0.03,0.34s-0.03,0.28-0.04,0.42
	c-0.02,0.15-0.04,0.28-0.06,0.41l-0.31,2.01H365.28z M368.23,785.79l1.59-3.83h0.75l0.37,3.83h-0.56l-0.07-0.97h-1.09l-0.39,0.97
	H368.23z M369.39,784.34h0.87l-0.09-1.1c-0.02-0.2-0.03-0.37-0.04-0.51c-0.01-0.14-0.01-0.24-0.01-0.3c-0.02,0.06-0.05,0.16-0.1,0.3
	c-0.05,0.14-0.11,0.31-0.19,0.5L369.39,784.34z M371.72,785.79l0.61-3.83h0.57l-0.52,3.31h1.67l-0.08,0.52H371.72z M376.68,785.84
	c-0.37,0-0.63-0.1-0.8-0.3c-0.17-0.2-0.22-0.48-0.17-0.82l0.44-2.76h0.57l-0.44,2.76c-0.03,0.2-0.01,0.35,0.07,0.46
	c0.08,0.11,0.21,0.17,0.41,0.17c0.19,0,0.35-0.06,0.46-0.17c0.12-0.11,0.19-0.27,0.22-0.46l0.44-2.76h0.57l-0.44,2.76
	c-0.06,0.35-0.2,0.62-0.43,0.82C377.35,785.74,377.05,785.84,376.68,785.84z M379.84,785.84c-0.39,0-0.67-0.1-0.87-0.29
	c-0.19-0.19-0.26-0.45-0.22-0.78h0.57c-0.03,0.17,0.01,0.31,0.12,0.41c0.11,0.1,0.27,0.15,0.48,0.15c0.2,0,0.37-0.05,0.5-0.15
	c0.13-0.1,0.21-0.23,0.24-0.4c0.02-0.15,0-0.28-0.06-0.39c-0.06-0.11-0.16-0.18-0.29-0.22l-0.46-0.14
	c-0.27-0.08-0.46-0.22-0.59-0.41c-0.13-0.19-0.17-0.42-0.13-0.68c0.04-0.21,0.11-0.39,0.23-0.55s0.27-0.28,0.46-0.37
	c0.19-0.09,0.4-0.13,0.64-0.13c0.35,0,0.62,0.1,0.8,0.29c0.18,0.19,0.25,0.44,0.2,0.76h-0.57c0.03-0.17,0-0.3-0.09-0.4
	c-0.09-0.1-0.23-0.14-0.42-0.14c-0.19,0-0.34,0.04-0.46,0.13c-0.12,0.09-0.19,0.21-0.21,0.38c-0.02,0.15-0.01,0.28,0.05,0.39
	c0.06,0.11,0.16,0.18,0.29,0.22l0.47,0.15c0.26,0.08,0.46,0.22,0.58,0.41c0.12,0.19,0.17,0.42,0.12,0.69
	c-0.04,0.22-0.12,0.41-0.24,0.57c-0.13,0.16-0.29,0.29-0.49,0.38C380.31,785.79,380.09,785.84,379.84,785.84z M381.91,785.79
	l0.61-3.83h2.25l-0.08,0.5h-1.7l-0.17,1.09h1.51l-0.08,0.5h-1.51l-0.19,1.24h1.69l-0.08,0.5H381.91z M386.94,785.84
	c-0.36,0-0.62-0.1-0.8-0.3c-0.17-0.2-0.23-0.47-0.18-0.82l0.27-1.7c0.06-0.34,0.2-0.61,0.44-0.82c0.24-0.2,0.54-0.3,0.89-0.3
	c0.36,0,0.62,0.1,0.8,0.3c0.17,0.2,0.24,0.47,0.18,0.81l-0.27,1.71c-0.06,0.34-0.2,0.62-0.44,0.82
	C387.6,785.74,387.3,785.84,386.94,785.84z M387.02,785.33c0.19,0,0.35-0.05,0.47-0.16c0.12-0.11,0.19-0.26,0.23-0.46l0.27-1.7
	c0.03-0.2,0.01-0.35-0.08-0.46c-0.08-0.11-0.22-0.16-0.41-0.16c-0.19,0-0.35,0.05-0.46,0.16c-0.12,0.1-0.19,0.26-0.22,0.46
	l-0.27,1.7c-0.03,0.2-0.01,0.35,0.08,0.46C386.7,785.28,386.83,785.33,387.02,785.33z M388.95,785.79l0.61-3.83h0.71l0.62,3.19
	c0.01-0.1,0.02-0.22,0.03-0.36c0.01-0.14,0.03-0.29,0.04-0.44c0.02-0.15,0.04-0.29,0.06-0.41l0.31-1.98h0.52l-0.61,3.83h-0.71
	l-0.61-3.19c-0.01,0.09-0.02,0.21-0.03,0.34c-0.01,0.13-0.03,0.28-0.04,0.42c-0.02,0.15-0.04,0.28-0.06,0.41l-0.31,2.01H388.95z
	 M392.25,785.79l0.61-3.83h0.57l-0.52,3.31h1.67l-0.08,0.52H392.25z M396.12,785.79l0.22-1.41l-0.75-2.42h0.58l0.45,1.45
	c0.03,0.09,0.05,0.18,0.07,0.27c0.02,0.08,0.03,0.15,0.03,0.19c0.02-0.04,0.05-0.1,0.09-0.19c0.04-0.08,0.09-0.17,0.14-0.27
	l0.9-1.45h0.6l-1.53,2.42l-0.22,1.41H396.12z M399.22,785.79l0.61-3.83h0.71l0.62,3.19c0.01-0.1,0.02-0.22,0.03-0.36
	c0.01-0.14,0.03-0.29,0.04-0.44c0.02-0.15,0.04-0.29,0.06-0.41l0.31-1.98h0.52l-0.61,3.83h-0.71l-0.61-3.19
	c-0.01,0.09-0.02,0.21-0.03,0.34c-0.01,0.13-0.03,0.28-0.04,0.42c-0.02,0.15-0.04,0.28-0.06,0.41l-0.31,2.01H399.22z M403.51,785.84
	c-0.36,0-0.62-0.1-0.8-0.3c-0.18-0.2-0.23-0.47-0.18-0.82l0.27-1.7c0.06-0.34,0.2-0.61,0.44-0.82c0.24-0.2,0.54-0.3,0.89-0.3
	c0.36,0,0.62,0.1,0.8,0.3c0.17,0.2,0.24,0.47,0.18,0.81l-0.27,1.71c-0.06,0.34-0.2,0.62-0.44,0.82
	C404.16,785.74,403.86,785.84,403.51,785.84z M403.58,785.33c0.19,0,0.35-0.05,0.47-0.16c0.12-0.11,0.19-0.26,0.23-0.46l0.27-1.7
	c0.03-0.2,0.01-0.35-0.08-0.46c-0.08-0.11-0.22-0.16-0.41-0.16c-0.19,0-0.35,0.05-0.46,0.16c-0.12,0.1-0.19,0.26-0.22,0.46
	l-0.27,1.7c-0.03,0.2-0.01,0.35,0.08,0.46C403.26,785.28,403.4,785.33,403.58,785.33z M406.38,785.79l0.52-3.31h-1.02l0.08-0.52
	h2.62l-0.08,0.52h-1.03l-0.52,3.31H406.38z M409.52,785.79l0.61-3.83h2.32l-0.08,0.52h-1.76l-0.18,1.14h1.63l-0.08,0.52h-1.62
	l-0.26,1.64H409.52z M413.77,785.84c-0.36,0-0.62-0.1-0.8-0.3c-0.18-0.2-0.23-0.47-0.18-0.82l0.27-1.7c0.06-0.34,0.2-0.61,0.44-0.82
	c0.24-0.2,0.54-0.3,0.89-0.3c0.36,0,0.62,0.1,0.8,0.3c0.17,0.2,0.24,0.47,0.18,0.81l-0.27,1.71c-0.06,0.34-0.2,0.62-0.44,0.82
	C414.42,785.74,414.13,785.84,413.77,785.84z M413.85,785.33c0.19,0,0.35-0.05,0.47-0.16c0.12-0.11,0.19-0.26,0.23-0.46l0.27-1.7
	c0.03-0.2,0.01-0.35-0.08-0.46c-0.08-0.11-0.22-0.16-0.41-0.16c-0.19,0-0.35,0.05-0.46,0.16c-0.12,0.1-0.19,0.26-0.22,0.46
	l-0.27,1.7c-0.03,0.2-0.01,0.35,0.08,0.46C413.52,785.28,413.66,785.33,413.85,785.33z M415.8,785.79l0.61-3.83h1.2
	c0.24,0,0.44,0.05,0.6,0.14c0.16,0.09,0.28,0.22,0.36,0.39c0.07,0.17,0.09,0.37,0.05,0.59c-0.04,0.26-0.14,0.48-0.3,0.67
	c-0.16,0.19-0.37,0.32-0.6,0.39l0.54,1.64h-0.62l-0.48-1.57h-0.54l-0.25,1.57H415.8z M416.69,783.71h0.64
	c0.19,0,0.35-0.06,0.48-0.17c0.13-0.11,0.21-0.26,0.24-0.45c0.03-0.19,0-0.35-0.09-0.46c-0.09-0.11-0.24-0.17-0.43-0.17h-0.64
	L416.69,783.71z M420.91,785.84c-0.36,0-0.63-0.1-0.81-0.3c-0.18-0.2-0.24-0.47-0.19-0.82l0.27-1.7c0.06-0.35,0.21-0.62,0.45-0.82
	s0.55-0.3,0.91-0.3c0.36,0,0.63,0.1,0.81,0.3c0.18,0.2,0.24,0.47,0.19,0.82h-0.57c0.03-0.2,0-0.35-0.09-0.46
	c-0.09-0.11-0.23-0.16-0.42-0.16c-0.19,0-0.35,0.05-0.48,0.16c-0.12,0.1-0.2,0.26-0.23,0.45l-0.27,1.71c-0.03,0.2,0,0.35,0.09,0.46
	c0.09,0.11,0.23,0.16,0.42,0.16c0.19,0,0.35-0.05,0.47-0.16c0.12-0.11,0.2-0.26,0.23-0.46h0.57c-0.03,0.23-0.11,0.43-0.24,0.59
	c-0.12,0.17-0.28,0.3-0.47,0.39C421.36,785.79,421.14,785.84,420.91,785.84z M424.03,785.84c-0.36,0-0.62-0.1-0.8-0.3
	c-0.18-0.2-0.23-0.47-0.18-0.82l0.27-1.7c0.06-0.34,0.2-0.61,0.44-0.82c0.24-0.2,0.54-0.3,0.89-0.3c0.36,0,0.62,0.1,0.8,0.3
	c0.17,0.2,0.24,0.47,0.18,0.81l-0.27,1.71c-0.06,0.34-0.2,0.62-0.44,0.82C424.69,785.74,424.39,785.84,424.03,785.84z
	 M424.11,785.33c0.19,0,0.35-0.05,0.47-0.16c0.12-0.11,0.19-0.26,0.23-0.46l0.27-1.7c0.03-0.2,0.01-0.35-0.08-0.46
	c-0.08-0.11-0.22-0.16-0.41-0.16c-0.19,0-0.35,0.05-0.46,0.16c-0.12,0.1-0.19,0.26-0.22,0.46l-0.27,1.7
	c-0.03,0.2-0.01,0.35,0.08,0.46C423.79,785.28,423.92,785.33,424.11,785.33z M425.97,785.79l0.61-3.83h0.69l0.18,1.23
	c0.02,0.12,0.04,0.23,0.05,0.33c0.01,0.1,0.02,0.18,0.03,0.24c0.02-0.06,0.05-0.14,0.09-0.24c0.04-0.11,0.09-0.22,0.15-0.34
	l0.57-1.22h0.71l-0.61,3.83h-0.54l0.2-1.29c0.02-0.17,0.06-0.35,0.1-0.55c0.04-0.2,0.09-0.4,0.14-0.61c0.05-0.2,0.1-0.4,0.14-0.59
	c0.05-0.19,0.09-0.35,0.13-0.49l-0.86,1.86h-0.55l-0.28-1.86c0,0.14-0.01,0.29-0.02,0.47c-0.01,0.18-0.02,0.37-0.04,0.57
	c-0.02,0.2-0.04,0.41-0.06,0.61c-0.02,0.2-0.05,0.4-0.08,0.57l-0.2,1.29H425.97z M429.11,785.79l0.61-3.83h0.69l0.18,1.23
	c0.02,0.12,0.04,0.23,0.05,0.33c0.01,0.1,0.02,0.18,0.03,0.24c0.02-0.06,0.05-0.14,0.09-0.24c0.04-0.11,0.09-0.22,0.15-0.34
	l0.57-1.22h0.71l-0.61,3.83h-0.54l0.2-1.29c0.02-0.17,0.06-0.35,0.1-0.55c0.04-0.2,0.09-0.4,0.14-0.61c0.05-0.2,0.1-0.4,0.14-0.59
	c0.05-0.19,0.09-0.35,0.13-0.49l-0.86,1.86h-0.55l-0.28-1.86c0,0.14-0.01,0.29-0.02,0.47c-0.01,0.18-0.02,0.37-0.04,0.57
	c-0.02,0.2-0.04,0.41-0.06,0.61c-0.02,0.2-0.05,0.4-0.08,0.57l-0.2,1.29H429.11z M432.41,785.79l0.61-3.83h2.25l-0.08,0.5h-1.7
	l-0.17,1.09h1.51l-0.08,0.5h-1.51l-0.19,1.24h1.69l-0.08,0.5H432.41z M435.51,785.79l0.61-3.83h1.2c0.24,0,0.44,0.05,0.6,0.14
	c0.16,0.09,0.28,0.22,0.36,0.39c0.07,0.17,0.09,0.37,0.05,0.59c-0.04,0.26-0.14,0.48-0.3,0.67c-0.16,0.19-0.37,0.32-0.6,0.39
	l0.54,1.64h-0.62l-0.48-1.57h-0.54l-0.25,1.57H435.51z M436.4,783.71h0.64c0.19,0,0.35-0.06,0.48-0.17
	c0.13-0.11,0.21-0.26,0.24-0.45c0.03-0.19,0-0.35-0.09-0.46c-0.09-0.11-0.24-0.17-0.43-0.17h-0.64L436.4,783.71z M439.8,785.84
	c-0.36,0-0.63-0.1-0.81-0.3c-0.18-0.2-0.24-0.47-0.19-0.82l0.27-1.7c0.06-0.35,0.21-0.62,0.45-0.82s0.55-0.3,0.91-0.3
	c0.36,0,0.63,0.1,0.81,0.3c0.18,0.2,0.24,0.47,0.19,0.82h-0.57c0.03-0.2,0-0.35-0.09-0.46c-0.09-0.11-0.23-0.16-0.42-0.16
	c-0.19,0-0.35,0.05-0.47,0.16c-0.12,0.1-0.2,0.26-0.23,0.45l-0.27,1.71c-0.03,0.2,0,0.35,0.09,0.46c0.09,0.11,0.23,0.16,0.42,0.16
	s0.35-0.05,0.47-0.16c0.12-0.11,0.2-0.26,0.23-0.46h0.57c-0.03,0.23-0.11,0.43-0.24,0.59c-0.12,0.17-0.28,0.3-0.47,0.39
	C440.25,785.79,440.04,785.84,439.8,785.84z M441.88,785.79l0.08-0.5h0.78l0.45-2.82h-0.78l0.08-0.5h2.13l-0.08,0.5h-0.78
	l-0.45,2.82h0.78l-0.08,0.5H441.88z M444.74,785.79l1.59-3.83h0.75l0.37,3.83h-0.56l-0.07-0.97h-1.09l-0.39,0.97H444.74z
	 M445.9,784.34h0.87l-0.09-1.1c-0.02-0.2-0.03-0.37-0.04-0.51c-0.01-0.14-0.01-0.24-0.01-0.3c-0.02,0.06-0.05,0.16-0.1,0.3
	c-0.05,0.14-0.11,0.31-0.19,0.5L445.9,784.34z M448.24,785.79l0.61-3.83h0.57l-0.52,3.31h1.67l-0.08,0.52H448.24z M453.19,785.84
	c-0.37,0-0.63-0.1-0.8-0.3c-0.17-0.2-0.22-0.48-0.17-0.82l0.44-2.76h0.57l-0.44,2.76c-0.03,0.2-0.01,0.35,0.07,0.46
	c0.08,0.11,0.21,0.17,0.41,0.17c0.19,0,0.35-0.06,0.46-0.17c0.12-0.11,0.19-0.27,0.22-0.46l0.44-2.76h0.57l-0.44,2.76
	c-0.06,0.35-0.2,0.62-0.43,0.82C453.86,785.74,453.56,785.84,453.19,785.84z M456.36,785.84c-0.39,0-0.67-0.1-0.87-0.29
	c-0.19-0.19-0.26-0.45-0.22-0.78h0.57c-0.03,0.17,0.01,0.31,0.12,0.41c0.11,0.1,0.27,0.15,0.48,0.15c0.2,0,0.37-0.05,0.5-0.15
	s0.21-0.23,0.24-0.4c0.02-0.15,0-0.28-0.06-0.39c-0.06-0.11-0.16-0.18-0.29-0.22l-0.46-0.14c-0.27-0.08-0.46-0.22-0.59-0.41
	c-0.13-0.19-0.17-0.42-0.13-0.68c0.04-0.21,0.11-0.39,0.23-0.55c0.12-0.16,0.27-0.28,0.46-0.37c0.19-0.09,0.4-0.13,0.64-0.13
	c0.35,0,0.62,0.1,0.8,0.29c0.18,0.19,0.25,0.44,0.2,0.76h-0.57c0.03-0.17,0-0.3-0.09-0.4c-0.09-0.1-0.23-0.14-0.42-0.14
	c-0.19,0-0.34,0.04-0.46,0.13c-0.12,0.09-0.19,0.21-0.21,0.38c-0.02,0.15-0.01,0.28,0.05,0.39c0.06,0.11,0.16,0.18,0.29,0.22
	l0.47,0.15c0.26,0.08,0.46,0.22,0.58,0.41c0.12,0.19,0.17,0.42,0.12,0.69c-0.04,0.22-0.12,0.41-0.24,0.57
	c-0.13,0.16-0.29,0.29-0.49,0.38C456.82,785.79,456.6,785.84,456.36,785.84z M458.42,785.79l0.61-3.83h2.25l-0.08,0.5h-1.7
	l-0.17,1.09h1.51l-0.08,0.5h-1.51l-0.19,1.24h1.69l-0.08,0.5H458.42z"/>
<g>
	<path style="fill:#FFFFFF;" d="M607.78,236l0.23,61.24v8.11l5.05-6.34c5.8-8.23,10.07-17.43,12.61-27.18
		c3.97,12.19,6.85,24.7,8.61,37.4l0,0c0,0,0,0.35,0,0.51c0.27,1.88,0.51,3.92,0.74,5.76v0.94l0,0c1.11,10.18,1.6,20.42,1.45,30.66
		l0,0v0.55c0,2.04,0,3.92-0.2,6.23c-0.02,0.22-0.02,0.44,0,0.67l0,0c-0.5,10.64-1.71,21.24-3.6,31.72l0,0l-0.23,1.21l-0.7,3.6
		c0,0.7-0.27,1.45-0.43,2.15l0,0c-2.53,11.83-5.94,23.45-10.18,34.77l0,0c-0.47,1.29-1.02,2.62-1.53,3.92l-0.78,2v0.35l0,0
		c-3.05,7.48-6.54,15.08-10.57,22.75l-0.31,0.63v103.89c0,0.55,5.99,54.47-30.31,98.29c-27.69,33.36-72.17,52.39-132.24,56.55h-0.27
		c-0.9,0-22.48,3.92-45.19,25.81l0,0c-22.71-22.05-44.29-25.65-45.19-25.81h-0.27c-60.07-4.15-104.55-23.18-132.24-56.55
		c-36.3-43.82-30.39-97.9-30.31-98.29V457.6l-0.31-0.63c-3.92-7.83-7.52-15.27-10.57-22.75l0,0v-0.35l-0.78-2
		c-0.51-1.29-1.06-2.62-1.53-3.92l0,0c-4.25-11.32-7.65-22.95-10.18-34.77l0,0c0-0.7-0.27-1.45-0.43-2.15
		c-0.16-0.7-0.51-2.39-0.7-3.6l-0.23-1.21l0,0c-1.9-10.48-3.1-21.08-3.6-31.72l0,0c0.02-0.22,0.02-0.44,0-0.67c0-2.11,0-4.19,0-6.23
		v-0.55l0,0c-0.15-10.24,0.34-20.48,1.45-30.66l0,0v-0.94c0.23-1.96,0.47-3.92,0.74-5.76c0,0,0-0.35,0-0.51l0,0
		c1.76-12.7,4.64-25.21,8.61-37.4c2.54,9.74,6.81,18.95,12.61,27.18l5.05,6.34v-8.07l0.23-61.24c0-35.24-23.5-68.57-33.25-80.67
		h189.84l-31.09-25.41h61.95L400,68.37l20.13,61.56h62.11l-30.9,25.49h189.84C631.39,167.44,607.78,200.76,607.78,236z"/>
	<path d="M653.51,149.5H467.08l30.94-25.49h-73.77L400,50l-24.24,74.13H302.1l30.94,25.49H146.49l4.27,4.86
		c0.35,0.39,35.79,40.41,35.79,81.49c0,0,0,33.72-0.23,50.91c-4.05-8.08-6.96-16.69-8.65-25.57l-1.68-8.85l-3.72,8.22
		c-7.58,19.04-12.23,39.12-13.78,59.56c-4.28,47.92,5.37,96.06,27.8,138.62v101.81c-0.43,3.92-5.68,57.33,31.6,102.36
		c28.66,34.66,74.4,54.39,136.12,58.74c1.53,0.27,22.63,4.5,43.98,26.2L400,750l0,0l2.04-2.04c21.34-21.69,42.45-25.92,43.98-26.2
		c61.64-4.27,107.45-24,136.12-58.74c37.28-45.03,32.03-98.52,31.6-102.36V458.86c22.42-42.55,32.08-90.67,27.8-138.58
		c-1.55-20.44-6.2-40.52-13.78-59.56l-3.72-8.22l-1.68,8.85c-1.69,8.88-4.6,17.49-8.65,25.57c0-17.39-0.23-50.91-0.23-50.91
		c0-41.08,35.44-81.1,35.79-81.49L653.51,149.5z M607.78,236l0.23,61.24v8.11l5.05-6.34c5.8-8.23,10.07-17.43,12.61-27.18
		c3.97,12.19,6.85,24.7,8.61,37.4l0,0c0,0,0,0.35,0,0.51c0.27,1.88,0.51,3.92,0.74,5.76v0.94l0,0c1.11,10.18,1.6,20.42,1.45,30.66
		l0,0v0.55c0,2.04,0,3.92-0.2,6.23c-0.02,0.22-0.02,0.44,0,0.67l0,0c-0.5,10.64-1.71,21.24-3.6,31.72l0,0l-0.23,1.21l-0.7,3.6
		c0,0.7-0.27,1.45-0.43,2.15l0,0c-2.53,11.83-5.94,23.45-10.18,34.77l0,0c-0.47,1.29-1.02,2.62-1.53,3.92l-0.78,2v0.35l0,0
		c-3.05,7.48-6.54,15.08-10.57,22.75l-0.31,0.63v103.89c0,0.55,5.99,54.47-30.31,98.29c-27.69,33.36-72.17,52.39-132.24,56.55h-0.27
		c-0.9,0-22.48,3.92-45.19,25.81l0,0c-22.71-22.05-44.29-25.65-45.19-25.81h-0.27c-60.07-4.15-104.55-23.18-132.24-56.55
		c-36.3-43.82-30.39-97.9-30.31-98.29V457.6l-0.31-0.63c-3.92-7.83-7.52-15.27-10.57-22.75l0,0v-0.35l-0.78-2
		c-0.51-1.29-1.06-2.62-1.53-3.92l0,0c-4.25-11.32-7.65-22.95-10.18-34.77l0,0c0-0.7-0.27-1.45-0.43-2.15
		c-0.16-0.7-0.51-2.39-0.7-3.6l-0.23-1.21l0,0c-1.9-10.48-3.1-21.08-3.6-31.72l0,0c0.02-0.22,0.02-0.44,0-0.67c0-2.11,0-4.19,0-6.23
		v-0.55l0,0c-0.15-10.24,0.34-20.48,1.45-30.66l0,0v-0.94c0.23-1.96,0.47-3.92,0.74-5.76c0,0,0-0.35,0-0.51l0,0
		c1.76-12.7,4.64-25.21,8.61-37.4c2.54,9.74,6.81,18.95,12.61,27.18l5.05,6.34v-8.07l0.23-61.24c0-35.24-23.5-68.57-33.25-80.67
		h189.84l-31.09-25.41h61.95L400,68.37l20.13,61.56h62.11l-30.9,25.49h189.84C631.39,167.44,607.78,200.76,607.78,236z"/>
	<path style="fill:#164194;" d="M360.37,419.31h23.97c7.66-37.9,9.6-76.73,5.76-115.2l-54.31,39.43L360.37,419.31z"/>
	<path style="fill:#164194;" d="M209.34,318.16c21.46,14.84,48.75,24.43,70.05,30.5l12.96-17.9l2.47-61.17l-18.44,6.23
		c19.16-26.1,46.1-45.46,76.95-55.29l-11.75,15.43l46.68,13.74l0,0L400,222.89l11.75,26.82l0,0l46.64-13.74l-11.75-15.43
		c30.85,9.83,57.79,29.19,76.95,55.29l-18.44-6.23l2.51,61.17l12.92,17.9c21.3-6.07,48.6-15.66,70.05-30.5v-76.48
		c-0.08-24.48,6.4-48.53,18.76-69.66H424.36l11.75,39.79L400,185.06l-36.14,26.75l11.75-39.79H190.58
		c12.36,21.13,18.84,45.18,18.76,69.66V318.16z"/>
	<path style="fill:#164194;" d="M415.66,419.31h23.89l24.59-75.77l-54.16-39.43C406.11,342.57,408.03,381.4,415.66,419.31z"/>
	<g>
		<path style="fill:#164194;" d="M590.66,557.14v-71.86l-8.46,10.18c-29.56-2.62-61.64-36.22-61.95-36.57l-2.74,4.19
			c1.37,1.41,28.9,31.99,60.81,36.93c-6.6,7.62-13.68,14.81-21.18,21.54c-19.39-11.22-35.4-27.45-46.36-46.99l-3.49,4.5
			c10.73,19.26,26.66,35.11,45.97,45.74c-7.01,6-14.34,11.61-21.97,16.8l-34.77-50.44l-3.52,3.92l33.99,49.34
			c-6.77,4.39-13.76,8.43-20.95,12.1c-9.48-35.24-22.95-51.34-23.5-52.08l-3.92,3.17l0.31,0.35c0,0,13.31,17.43,22.48,50.91
			c-7.3,3.55-14.79,6.7-22.44,9.44c1.26-18.72-1.82-37.49-9.01-54.82l-3.92,2.43c6.41,17.22,9.18,35.58,8.15,53.92
			c-9.33,3.13-18.85,5.67-28.51,7.6c21.18-43.51,8.11-72.01,7.52-73.27l-4.66,2.23l0,0c0,0.27,13.31,28.55-10.14,72.37h-0.35
			c0-0.31,0.27-0.59,0,0v0.27c-16.88,31.68,12.41,58.74,12.41,58.74L400,689.89l-50.01-52.04c0,0,29.29-26.86,12.41-58.74v-0.27
			c-0.31-0.59-0.2-0.31,0,0h-0.35c-23.5-43.82-10.26-72.09-10.14-72.37l0,0l-4.66-2.23c-0.59,1.25-13.67,29.76,7.52,73.27
			c-9.65-1.93-19.17-4.47-28.51-7.6c-1.03-18.34,1.74-36.7,8.15-53.92l-3.92-2.43c-7.19,17.34-10.27,36.1-9.01,54.82
			c-7.64-2.74-15.13-5.89-22.44-9.44c9.16-33.48,22.36-50.91,22.48-50.91l0.31-0.35l-3.92-3.17c-0.59,0.74-14.06,16.99-23.5,52.08
			c-7.19-3.67-14.18-7.71-20.95-12.1l33.99-49.34l-3.52-3.92l-34.77,50.44c-7.63-5.19-14.96-10.8-21.97-16.8
			c19.13-10.68,34.89-26.49,45.5-45.66l-3.49-4.5c-10.96,19.54-26.97,35.77-46.36,46.99c-7.51-6.72-14.58-13.92-21.18-21.54
			c31.91-4.93,59.44-35.52,60.81-36.93l-2.74-4.19c-0.31,0.35-32.38,33.95-61.95,36.57l-8.46-10.18v72.13
			c0,0.51-5.52,50.67,27.96,91.16c25.3,30.58,65.98,48.05,120.88,51.92h0.23c15.4,2.83,29.76,9.74,41.59,20.01
			c11.81-10.31,26.17-17.26,41.59-20.13h0.23c54.82-3.92,95.59-21.34,120.88-51.92c33.48-40.49,28.04-90.65,27.96-91.16
			L590.66,557.14z"/>
		<g>
			<g>
				<path style="fill:#164194;" d="M234.01,362.72c10.29,3.46,20.92,5.79,31.72,6.93l0.94-5.13c-14.76-1.45-65.32-9.55-100.99-55.29
					c0,0,0,0.35,0,0.51c-0.27,1.88-0.51,3.92-0.74,5.76v0.94C183.23,337.96,207.14,353.98,234.01,362.72z"/>
				<path style="fill:#164194;" d="M263.85,388.88l0.98-5.13c-13.47,0-63.71,0-101.5-36.65v0.51c0,2.04,0,3.92,0,6.23
					c0.02,0.22,0.02,0.44,0,0.67C197.9,388.37,249.55,389.04,263.85,388.88z"/>
				<path style="fill:#164194;" d="M265.8,410.34l-0.7-5.13c-10.3,1.57-59.17,8.18-97.9-18.99l0.23,1.17c0,1.21,0.47,2.39,0.7,3.6
					c0.23,1.21,0.31,1.45,0.43,2.19C204.48,418.29,254.64,412.1,265.8,410.34z"/>
				<path style="fill:#164194;" d="M269.88,430.07l-1.57-5.05c-28.92,9.81-60.1,10.84-89.59,2.94c0.47,1.29,0.98,2.62,1.49,3.92
					l0.78,2v0.35C225.08,446.36,268.04,430.78,269.88,430.07z"/>
				<path style="fill:#164194;" d="M273.52,442.33c-0.39,0.23-36.3,23.26-77.49,21.07l3.17,5.36c40.88,0.63,75.42-21.07,77.03-22.05
					L273.52,442.33z"/>
			</g>
			<g>
				<path style="fill:#164194;" d="M534.27,369.65c10.79-1.14,21.43-3.47,31.72-6.93c26.92-8.72,50.89-24.74,69.23-46.29v-0.94
					c-0.23-1.96-0.47-3.92-0.74-5.76c0,0,0-0.35,0-0.51c-35.67,45.74-86.15,53.84-100.99,55.29L534.27,369.65z"/>
				<path style="fill:#164194;" d="M535.18,383.75l0.98,5.13c14.29,0,65.94-0.63,100.29-34.38c-0.02-0.22-0.02-0.44,0-0.67
					c0-2.11,0-4.19,0.2-6.23v-0.51C598.89,383.79,548.8,383.83,535.18,383.75z"/>
				<path style="fill:#164194;" d="M534.9,405.21l-0.7,5.13c11.16,1.76,61.32,7.83,97.27-17.15c0-0.74,0.27-1.45,0.43-2.19l0.7-3.6
					l0.23-1.17C594.07,413.39,545.2,406.77,534.9,405.21z"/>
				<path style="fill:#164194;" d="M531.69,425.02l-1.57,5.05c1.84,0.7,44.8,16.29,88.77,4.15v-0.35l0.78-2
					c0.51-1.29,1.02-2.62,1.49-3.92C591.71,435.83,560.57,434.81,531.69,425.02z"/>
				<path style="fill:#164194;" d="M526.48,442.33l-2.7,4.39c1.61,0.98,36.14,22.67,77.03,22.05l3.17-5.36
					C562.78,465.59,526.87,442.57,526.48,442.33z"/>
			</g>
		</g>
	</g>
	<g>
		<path style="fill:#E84E0F;" d="M276.38,275.83l18.44-6.23l-2.47,61.17l-12.96,17.9c10.61,3.05,19.58,5.21,25.88,6.7
			c19.58,4.78,22.4,16.13,22.2,22.67c0.02,1.65-0.22,3.28-0.7,4.86c0,73.97,45.58,81.72,45.58,81.72
			c4.82-14.85,8.74-29.98,11.75-45.31h-23.89l-24.59-75.77l54.23-39.43c-1.29-14.05-3.73-27.98-7.32-41.63l5.72-12.77l0,0
			l-46.64-13.74l11.75-15.43C322.5,230.36,295.55,249.72,276.38,275.83z"/>
		<path style="fill:#E84E0F;" d="M464.22,343.53l-24.59,75.77h-23.97c3,15.32,6.93,30.45,11.75,45.31c0,0,45.58-7.83,45.58-81.72
			c-0.49-1.57-0.73-3.21-0.7-4.86c-0.2-6.54,2.55-17.9,22.2-22.67c6.15-1.49,15.27-3.64,25.88-6.7l-12.92-17.9l-2.51-61.17
			l18.44,6.23c-19.16-26.1-46.1-45.46-76.95-55.29l11.75,15.43l-46.44,13.74l0,0l5.56,12.77c-3.59,13.65-6.04,27.57-7.32,41.63
			L464.22,343.53z"/>
	</g>
	<g>
		<polygon style="fill:#E84E0F;" points="422.95,167.36 457.29,139.63 414.14,139.63 400,96.64 385.86,139.63 342.71,139.63 
			377.05,167.36 363.86,211.8 400,185.06 436.14,211.8 		"/>
		<path style="fill:#E84E0F;" d="M600.14,556.75v-84.5c-2.9,4.53-6.06,8.89-9.48,13.04v72.13c0,0.51,5.52,50.67-27.96,91.16
			c-25.3,30.58-65.98,48.05-120.88,51.92h-0.23c-15.42,2.88-29.78,9.84-41.59,20.17c-11.81-10.31-26.17-17.26-41.59-20.13h-0.23
			c-54.82-3.92-95.59-21.34-120.88-51.92c-33.48-40.49-28.04-90.65-27.96-91.16v-72.17c-3.42-4.15-6.58-8.51-9.48-13.04v84.5
			c-0.55,4.74-5.09,55.41,30.03,97.9c26.98,32.7,69.86,51.34,127.42,55.45l0,0c14.88,3,28.61,10.13,39.63,20.56l3.05,2.78l3.05-2.78
			c11.02-10.43,24.75-17.56,39.63-20.56l0,0c57.56-3.92,100.44-22.75,127.42-55.45C605.35,612.12,600.69,561.45,600.14,556.75z"/>
		<path style="fill:#E84E0F;" d="M431.01,172.02h178.41c-12.36,21.13-18.84,45.18-18.76,69.66v76.48c3.28-2.22,6.44-4.62,9.48-7.17
			v-69.31c-0.15-25.48,7.48-50.39,21.85-71.43l6.07-7.83H442.37L431.01,172.02z"/>
		<path style="fill:#E84E0F;" d="M357.63,162.58H171.94l6.07,7.83c14.37,21.03,22,45.95,21.85,71.43v69.31
			c3.03,2.55,6.2,4.94,9.48,7.17v-76.63c0.08-24.48-6.4-48.53-18.76-69.66h178.41L357.63,162.58z"/>
	</g>
	<g>
		<g>
			<path style="fill:#E84E0F;" d="M289.02,674.54v-12.37l7.13,12.37h3.64v-17.39h-3.41v12.14l-6.93-12.14h-3.92v17.39H289.02z"/>
			<path style="fill:#E84E0F;" d="M329.51,657.15v17.39h-3.92v-17.39H329.51z"/>
			<path style="fill:#E84E0F;" d="M360.14,657.15v17.39h-3.6v-17.39H360.14z"/>
			<path style="fill:#E84E0F;" d="M406.38,658.56c-1.52-1.17-3.41-1.76-5.33-1.68c-2.33-0.11-4.58,0.83-6.15,2.55
				c-1.63,1.87-2.47,4.3-2.35,6.77c-0.13,2.42,0.7,4.8,2.31,6.62c1.45,1.59,3.53,2.46,5.68,2.39c1.24,0.04,2.46-0.27,3.52-0.9
				c0.74-0.46,1.39-1.04,1.92-1.72l0.35,2.15h2.39v-9.52h-7.24v2.9h3.92c-0.15,1.07-0.66,2.05-1.45,2.78
				c-0.82,0.72-1.89,1.1-2.98,1.06c-1.25-0.01-2.44-0.5-3.33-1.37c-1.12-1.23-1.66-2.89-1.49-4.54c-0.12-1.7,0.36-3.4,1.37-4.78
				c0.85-1.03,2.12-1.6,3.45-1.57c0.69-0.02,1.37,0.12,2,0.39c1.04,0.44,1.8,1.36,2.04,2.47h3.56
				C408.37,661,407.59,659.58,406.38,658.56z"/>
			<path style="fill:#E84E0F;" d="M445.5,667.96h-4.42l2.23-6.85L445.5,667.96z M438.88,674.54l1.21-3.56h6.42l1.1,3.56h3.92
				l-6.15-17.39h-3.92l-6.23,17.39L438.88,674.54z"/>
			<path style="fill:#E84E0F;" d="M471.31,657.15h14.1v3.05h-5.21v14.33h-3.64v-14.33h-5.25L471.31,657.15z"/>
			<path style="fill:#E84E0F;" d="M514.07,667.96h-4.42l2.23-6.85L514.07,667.96z M507.45,674.54l1.21-3.56h6.42l1.1,3.56h3.92
				l-6.15-17.39h-4.11l-6.23,17.39H507.45z"/>
		</g>
		<g>
			<path style="fill:#E84E0F;" d="M271.4,589.8h0.59l6.93,30.27h-14.06L271.4,589.8z M266.55,650.73v-3.33
				c-1.35,0.07-2.7-0.2-3.92-0.78c-1.35-0.83-2.14-2.33-2.08-3.92c0.11-2.46,0.43-4.91,0.94-7.32c0.31-1.57,0.98-4.97,2.08-10.14
				h16.29l1.84,7.83c0.39,1.72,0.7,3.21,0.94,4.46c0.32,1.53,0.5,3.09,0.55,4.66c0,2.23-0.35,3.64-1.1,4.19
				c-1.44,0.74-3.04,1.12-4.66,1.1v3.25h23.5v-3.33c-1.64,0-2.9-0.98-3.92-3.21c-1.6-4.89-2.91-9.87-3.92-14.92l-16.05-68.61h-2.04
				l-15.98,71.62c-0.76,3.72-1.74,7.4-2.94,11c-1.06,2.62-2.47,3.92-4.23,4.27v3.17H266.55z"/>
			<path style="fill:#E84E0F;" d="M306.02,650.73v-2.47c1.38,0.09,2.75-0.27,3.92-1.02c1.49-1.54,2.19-3.67,1.92-5.8v-46.99
				c0.25-2.08-0.41-4.16-1.8-5.72c-1.16-0.77-2.53-1.16-3.92-1.14v-2.47h22.2v2.47c-1.87-0.13-3.72,0.45-5.17,1.64
				c-1.14,2.23-1.59,4.75-1.29,7.24v46.01c-0.17,1.51,0.22,3.03,1.1,4.27c1.26,0.85,2.79,1.23,4.31,1.06
				c3.61,0.07,7.1-1.34,9.63-3.92c3.44-4.38,5.74-9.55,6.7-15.04h1.57l-2.55,21.97L306.02,650.73z"/>
			<path style="fill:#E84E0F;" d="M409.12,650.73v-1.72c-1.25,0.09-2.49-0.24-3.52-0.94c-0.94-1.07-1.37-2.5-1.17-3.92v-32.58
				c-0.15-1.47,0.4-2.92,1.49-3.92c0.98-0.54,2.09-0.79,3.21-0.74v-1.72h-17.46v1.72c1.09-0.02,2.17,0.24,3.13,0.74
				c1.05,1.02,1.59,2.46,1.45,3.92v32.93c0.13,1.47-0.44,2.92-1.53,3.92c-0.94,0.48-2,0.71-3.05,0.67v1.64H409.12z"/>
			<path style="fill:#E84E0F;" d="M494.84,650.73h-37.08v-2.35c2.81,0.39,5.39-1.58,5.78-4.38c0.1-0.69,0.05-1.4-0.14-2.08v-44.37
				c0.25-2-0.43-4.01-1.84-5.44c-1.17-0.74-2.53-1.12-3.92-1.1v-2.31h36.57v18.56h-1.57c-0.21-4.36-1.64-8.58-4.11-12.18
				c-2.84-2.38-6.53-3.5-10.22-3.09c-1.3-0.18-2.63,0.12-3.72,0.86c-0.63,1.05-0.91,2.27-0.78,3.49v21.3
				c2.79,0.44,5.6-0.65,7.36-2.86c1.67-3.36,2.67-7.02,2.94-10.77h1.61v31.05h-1.61c-0.08-3.86-1.03-7.65-2.78-11.08
				c-1.77-2.32-4.62-3.53-7.52-3.21v22.12c-0.16,1.39,0.22,2.79,1.06,3.92c1.22,0.88,2.74,1.26,4.23,1.06
				c3.63,0.15,7.18-1.06,9.95-3.41c3.31-3.63,5.65-8.03,6.81-12.8h1.76L494.84,650.73z"/>
			<path style="fill:#E84E0F;" d="M363.74,602.14c-0.1-1.08,0.14-2.16,0.7-3.09c0.72-0.64,1.67-0.95,2.62-0.86
				c2.14-0.16,4.12,1.17,4.78,3.21c0.88,2.51,1.29,5.17,1.21,7.83c0.28,3.05-0.37,6.11-1.88,8.77c-1.96,1.94-4.71,2.87-7.44,2.51
				L363.74,602.14z M368.16,650.93c4.46,0.26,8.86-1.21,12.26-4.11c6.16-6.07,6.24-15.99,0.17-22.15c-0.06-0.06-0.11-0.11-0.17-0.17
				c-1.69-1.4-3.67-2.4-5.8-2.94v-0.74c2.31-0.69,4.35-2.05,5.87-3.92c4.47-5.79,3.39-14.1-2.39-18.56
				c-0.48-0.37-0.99-0.71-1.52-1.01c-2.8-1.21-5.84-1.79-8.89-1.68h-18.6v2.08c1.25,0,2.48,0.33,3.56,0.94
				c1.29,1.26,1.92,3.06,1.68,4.86v39.51c0.24,1.82-0.43,3.64-1.8,4.86c-1.04,0.62-2.24,0.93-3.45,0.9v2.08L368.16,650.93z
				 M363.74,622.97c2.51-0.26,5.03,0.31,7.17,1.64c2.51,1.88,3.92,5.76,3.92,11.55c0.16,3.08-0.44,6.16-1.72,8.97
				c-1.18,2.14-3.52,3.38-5.95,3.17c-1.22,0.1-2.35-0.62-2.78-1.76c-0.37-1.01-0.53-2.09-0.47-3.17L363.74,622.97z"/>
			<path style="fill:#E84E0F;" d="M428.82,601.94c-0.08-0.96,0.19-1.92,0.74-2.7c0.91-0.67,2.05-0.96,3.17-0.82
				c2.86-0.05,5.38,1.88,6.07,4.66c0.71,2.44,1.02,4.98,0.94,7.52c0,5.17-0.82,8.46-2.51,9.87c-2.48,1.66-5.44,2.46-8.42,2.27
				L428.82,601.94z M434.11,650.89v-2.08c-1.59,0.12-3.15-0.5-4.23-1.68c-0.88-1.8-1.25-3.8-1.06-5.8v-15.98h1.61l12.41,25.53h12.22
				v-1.96c-0.48-0.05-0.94-0.19-1.37-0.39c-0.45-0.32-0.82-0.75-1.06-1.25l-12.02-23.26c2.25-0.65,4.28-1.93,5.83-3.68
				c2.51-2.89,3.79-6.64,3.56-10.46c0.45-5.25-2.41-10.23-7.17-12.49c-3.08-1.25-6.39-1.84-9.71-1.72H413.9v2.08
				c1.42,0,2.79,0.47,3.92,1.33c1.12,1.84,1.59,4.01,1.33,6.15v36.1c0.22,2.04-0.17,4.1-1.14,5.91c-1.06,1.01-2.46,1.57-3.92,1.57
				v1.92L434.11,650.89z"/>
			<path style="fill:#E84E0F;" d="M549.35,572.73c-6.58,0.94-7.83,4.19-19.58,30.9l13.2,34.03c3.92,9.87,5.01,10.1,7.01,10.34v2.98
				h-24.63v-2.98c3.92-0.35,5.8-0.63,5.8-3.92c-0.25-2.14-0.77-4.25-1.53-6.27l-7.32-19.58l-2.78,6.11
				c-5.99,13.35-6.81,16.13-6.81,18.4c0,4.19,3.37,4.7,5.87,5.05v2.98h-18.13v-2.98c2.47-0.63,4.93-1.21,7.56-6.74l12.69-26.59
				l-14.37-34.97c-1.53-3.92-2.74-6.74-5.8-6.97v-3.02h25.1v3.02c-4.27,0.47-5.72,0.47-5.72,3.92c0,1.55,0.36,3.08,1.06,4.46
				l7.05,18.01c8.26-18.99,8.26-18.99,8.26-22.24s-2.04-3.92-5.21-4.19v-3.02h18.13L549.35,572.73z"/>
		</g>
	</g>
</g>
</svg>
