<?xml version="1.0" encoding="UTF-8"?>
<svg data-name="图层_1" xmlns="http://www.w3.org/2000/svg" version="1.1" viewBox="0 0 800 800">
  <!-- Created by @FCLOGO 2024-12-20 GMT+8 13:21:27 . https://fclogo.top/ -->
<!-- FOR PERSONAL USE ONLY NOT FOR COMMERCIAL USE -->
  <path d="M348.2194,774.301c-.786,0-1.3752-.2173-1.7682-.6519-.393-.4352-.5284-1.03-.406-1.7856l.2518-1.6478c.122-.755.4501-1.3504.9841-1.785.5339-.4352,1.1939-.6525,1.9799-.6525.7553,0,1.3293.1987,1.7223.5954.3927.3967.551.9381.4747,1.6248h-1.2358c.0304-.3589-.0553-.637-.2573-.8357-.2024-.1981-.4979-.2974-.8869-.2974-.4197,0-.763.1167-1.03.3489-.2673.2328-.4349.5631-.5035.9903l-.2632,1.659c-.0686.4352-.0056.7686.1887,1.0015.1946.2328.5017.3489.9214.3489.389,0,.7152-.0987.9785-.2974.2632-.1981.4365-.4805.5206-.8469h1.2358c-.1372.6867-.4672,1.2306-.9897,1.631-.5228.4005-1.1616.6004-1.9169.6004ZM352.7967,774.1868l.9956-6.2943h1.1902l-.1946,1.1902c.3359-.8698.9729-1.3044,1.9113-1.3044.6712,0,1.1691.208,1.4932.624.3244.416.4293.9859.3148,1.7105l-.0686.4234h-1.2703l.0571-.3204c.0689-.4501.0115-.7953-.1714-1.0356-.1832-.2403-.4771-.3607-.8813-.3607-.4045,0-.7401.1223-1.007.3663-.2673.2446-.4349.588-.5035,1.03l-.6296,3.9711h-1.2358ZM361.9058,774.301c-.7705,0-1.3463-.2229-1.7279-.6693s-.515-1.0356-.4005-1.7682l.2518-1.6478c.0838-.488.2573-.9152.5206-1.2815s.6007-.6507,1.0129-.8524c.4119-.2024.8732-.3036,1.3845-.3036.7705,0,1.3485.2235,1.7338.6693.3852.4464.5169,1.0356.3949,1.7682l-.1717,1.1213h-3.845l-.0916.5265c-.1527.9536.2173,1.4305,1.1098,1.4305.7171,0,1.175-.2477,1.3734-.7438h1.2247c-.1679.5339-.5035.9599-1.007,1.2759-.5038.3166-1.0912.475-1.7626.475ZM361.2306,770.2157l-.0456.2862,2.6548-.0118.0459-.2856c.0686-.4656.0133-.822-.1661-1.0704-.1791-.2477-.4861-.3719-.9211-.3719-.4427,0-.7953.126-1.0586.3775-.2632.2521-.4331.6109-.5094,1.076ZM368.3258,774.301c-.6333,0-1.1027-.2117-1.4078-.6351s-.3967-1.0008-.2744-1.7335l.2744-1.7738c.1145-.7326.393-1.3119.8357-1.7397.4424-.4272.98-.6407,1.6133-.6407.4653,0,.8298.1186,1.093.3545.2632.2365.3908.5575.3834.9617h.023l.1717-1.202h1.2358l-.9956,6.2943h-1.2247l.1946-1.2014h-.023c-.122.4116-.3511.7339-.6867.9667s-.7401.3489-1.2129.3489ZM368.9324,773.2257c.389,0,.7152-.1186.9782-.3551.2632-.2359.4293-.5718.4979-1.007l.2518-1.6478c.0686-.4272.0096-.7612-.1773-1.0015-.1872-.2403-.475-.3601-.8642-.3601-.3967,0-.7249.118-.9841.3545-.2595.2365-.4234.5724-.492,1.007l-.2518,1.6478c-.0686.4427-.0133.7804.1658,1.0133.1794.2328.4712.3489.8757.3489ZM376.3477,774.1868c-.5721,0-.9937-.1565-1.2644-.4694-.271-.3123-.3607-.7512-.2691-1.3156l.538-3.3874h-1.7394l.1714-1.1219h1.7397l.2747-1.7161h1.2358l-.2747,1.7161h2.472l-.1832,1.1219h-2.4605l-.5377,3.3874c-.0764.4421.099.6637.5262.6637h1.7167l-.1717,1.1213h-1.7738ZM382.5042,774.301c-.7705,0-1.3463-.2229-1.7279-.6693s-.515-1.0356-.4005-1.7682l.2518-1.6478c.0838-.488.2573-.9152.5206-1.2815s.6007-.6507,1.0129-.8524c.4119-.2024.8732-.3036,1.3845-.3036.7705,0,1.3485.2235,1.7338.6693.3852.4464.5169,1.0356.3949,1.7682l-.1717,1.1213h-3.845l-.0916.5265c-.1527.9536.2173,1.4305,1.1098,1.4305.7171,0,1.175-.2477,1.3734-.7438h1.2247c-.1679.5339-.5035.9599-1.007,1.2759-.5038.3166-1.0912.475-1.7626.475ZM381.829,770.2157l-.0456.2862,2.6548-.0118.0459-.2856c.0686-.4656.0133-.822-.1661-1.0704-.1791-.2477-.4861-.3719-.9211-.3719-.4427,0-.7953.126-1.0586.3775-.2632.2521-.4331.6109-.5094,1.076ZM388.9243,774.301c-.6333,0-1.1008-.2117-1.4019-.6351-.3014-.4234-.3949-1.0008-.2803-1.7335l.2744-1.7738c.1145-.7326.393-1.3119.8357-1.7397.4424-.4272.98-.6407,1.6133-.6407.4653,0,.8298.1186,1.093.3545.2632.2365.3908.5575.3834.9617h.023l.2058-1.4652.2977-1.7962h1.2358l-1.3274,8.3537h-1.2247l.1946-1.2014h-.023c-.122.4116-.3511.7339-.6867.9667s-.7401.3489-1.2129.3489ZM389.5309,773.2257c.389,0,.7152-.1186.9782-.3551.2632-.2359.4293-.5718.4979-1.007l.2518-1.6478c.0761-.4272.0189-.7612-.1717-1.0015-.1909-.2403-.4805-.3601-.8698-.3601-.3967,0-.7249.118-.9841.3545-.2595.2365-.4234.5724-.492,1.007l-.2518,1.6478c-.0764.4427-.023.7804.1602,1.0133s.4768.3489.8813.3489ZM401.0175,774.301c-.4731,0-.8394-.1161-1.0986-.3489-.2595-.2328-.3852-.5551-.3775-.9667h-.0115l-.1946,1.2014h-1.2243l1.3274-8.3537h1.2358l-.2862,1.7962-.2744,1.4652h.0456c.122-.4123.353-.7345.6923-.9673.3396-.2322.7419-.3489,1.2076-.3489.633,0,1.1002.2136,1.4016.6407.3014.4278.3949,1.007.2806,1.7397l-.2747,1.7738c-.1145.7326-.3949,1.31-.8413,1.7335-.4461.4234-.9822.6351-1.6077.6351ZM400.7657,773.2257c.3967,0,.7227-.1161.9785-.3489.2555-.2328.4216-.5706.4976-1.0133l.2518-1.6478c.0689-.4346.0115-.7705-.1714-1.007-.1832-.2365-.4734-.3545-.8698-.3545-.3893,0-.7152.1198-.9785.3601s-.429.5743-.4979,1.0015l-.2518,1.6478c-.0686.4352-.0112.7711.1717,1.007.1832.2365.4731.3551.8698.3551ZM405.4694,776.2468l.1717-1.0642h1.934c.6407,0,1.007-.3017,1.0986-.9046l.1028-.6749.2061-1.1902h-.0345c-.122.4197-.3471.7438-.6752.9729-.3281.2285-.7286.3433-1.2014.3433-.6258,0-1.093-.2005-1.4019-.601s-.4104-.9443-.3033-1.631l.5836-3.6047h1.2358l-.5606,3.4793c-.0612.4116,0,.732.1832.9611s.4653.3433.8469.3433c.389,0,.7168-.1217.9841-.3663.267-.244.4309-.5836.492-1.0182l.538-3.3992h1.2358l-1.007,6.4086c-.0993.6029-.37,1.0778-.8124,1.4249-.4427.3471-.9996.5209-1.6707.5209h-1.9455ZM417.787,770.0853h3.221l.5368-1.8545h-5.4659l-1.7081,6.4419h2.1473l.5856-2.0985h3.0257l.4392-1.7081h-3.0257l.244-.7808ZM424.229,772.9158c-.5856,0-1.0249-.3904-1.0249-1.1225,0-.8784.6344-1.7569,1.6105-1.7569.488,0,.8784.244,1.0248.7808l1.9521-.8296c-.2928-1.1713-1.2689-1.9033-2.6353-1.9033-2.7817,0-4.1482,2.1473-4.1482,3.9042s1.2689,2.8305,3.0746,2.8305c1.3665,0,2.3425-.5856,2.9769-1.4153l-1.5129-1.1713c-.3904.4392-.8296.6832-1.3177.6832ZM430.9149,768.2308h-2.1473l-1.7569,6.4419h5.1242l.488-1.8545h-2.9281l1.2201-4.5874ZM439.7481,771.0125c0-1.6593-1.3177-2.9281-3.221-2.9281-2.1961,0-3.8066,1.8057-3.8066,3.8066,0,1.6593,1.3177,2.9281,3.221,2.9281,2.1961,0,3.8066-1.8057,3.8066-3.8066ZM434.9167,771.6957c0-.8296.5856-1.7081,1.5129-1.7081.7808,0,1.1713.5368,1.1713,1.2201,0,.8296-.5856,1.7081-1.5129,1.7081-.7808,0-1.1713-.5368-1.1713-1.2201ZM443.2131,772.2326h1.0737l-.1952.6832c-.1464.0488-.3416.0976-.5856.0976-.6832,0-1.2689-.3904-1.2689-1.2201,0-1.0249.732-1.9033,1.9521-1.9033.5856,0,1.1225.244,1.5129.5856l1.3665-1.3665c-.4392-.5368-1.5129-1.0737-2.7329-1.0737-2.5865,0-4.2946,1.7569-4.2946,3.8554,0,2.0497,1.6105,2.8793,3.221,2.8793.9272,0,1.8545-.2928,2.4889-.6832l.9272-3.3186h-3.1234l-.3416,1.4641ZM450.7775,768.0844c-2.1961,0-3.8066,1.8057-3.8066,3.8066,0,1.6593,1.3177,2.9281,3.221,2.9281,2.1961,0,3.8066-1.8057,3.8066-3.8066,0-1.6593-1.3177-2.9281-3.221-2.9281ZM450.3382,772.9158c-.7808,0-1.1713-.5368-1.1713-1.2201,0-.8296.5856-1.7081,1.5129-1.7081.7808,0,1.1713.5368,1.1713,1.2201,0,.8296-.5856,1.7081-1.5129,1.7081ZM437.9424,767.4987c-.0488.2928.0976.488.4392.488s.5368-.1952.6344-.488c.0488-.244-.0976-.488-.4392-.488s-.5856.244-.6344.488ZM432.1349,765.4978c-.4392,0-.732.244-.7808.5856s.0976.5856.5368.5856.732-.244.7808-.5856c.0976-.3416-.0976-.5856-.5368-.5856ZM433.0134,767.3035c-.0976.5368.1464.8784.8296.8784.6344,0,1.0737-.3904,1.1713-.8784s-.1464-.8784-.8296-.8784c-.6832,0-1.0737.3904-1.1713.8784ZM439.6017,777.552l-2.4401-1.8057h-1.5129l4.2458,3.1722,1.6105-3.1722h-.976l-.9272,1.8057ZM425.8394,767.1571l-2.0009-1.4641,23.1323-2.7817-2.1473,4.2458h1.0248l2.6841-5.3195-26.9877,3.221,2.7817,2.0985h1.5129ZM338.7186,785.7853l.6088-3.8315h2.32l-.084.5194h-1.7636l-.1837,1.1445h1.6272l-.084.5248h-1.6166l-.2573,1.6428h-.5668ZM342.97,785.8377c-.3568,0-.6228-.1005-.7978-.3019-.175-.201-.2345-.473-.1784-.8161l.2677-1.7006c.056-.3429.2029-.6148.4408-.8161.2379-.201.5355-.3019.8923-.3019s.6228.1.7979.2993c.1748.1993.2361.4707.1837.8136l-.2677,1.7057c-.0561.3431-.2039.6151-.4435.8161-.2398.2013-.5381.3019-.895.3019ZM343.0487,785.3339c.1925,0,.3483-.0524.4672-.1575.119-.1051.1942-.2571.2257-.4568l.2678-1.7006c.0315-.1993.0051-.3517-.0787-.4565-.084-.1051-.2223-.1575-.4148-.1575s-.3473.0524-.4645.1575c-.1173.1048-.1916.2571-.2231.4565l-.2677,1.7006c-.0315.1996-.0053.3517.0787.4568s.2204.1575.4094.1575ZM344.9961,785.7853l.6088-3.8315h1.202c.2379,0,.4391.0464.6036.139.1645.0928.2835.223.357.391s.091.3656.0524.5932c-.0384.2591-.14.4838-.3044.6746-.1645.1905-.3656.3209-.6036.391l.5354,1.6428h-.6194l-.4777-1.5748h-.5406l-.2466,1.5748h-.5668ZM345.8883,783.7068h.6352c.1889,0,.349-.0558.4803-.168.1313-.1119.2107-.2623.2388-.4514.0316-.1925,0-.3454-.0944-.4593-.0945-.1136-.2362-.1706-.4252-.1706h-.6352l-.1995,1.2493ZM349.545,785.7853l.6088-3.8315h1.2544c.3709,0,.6508.1048.8399.315.1889.2099.2553.4898.1993.8398-.0384.2344-.1216.4383-.2493.6114s-.2905.307-.4881.4015c-.1978.0945-.419.1418-.6639.1418h-.6928l-.2415,1.5221h-.5668ZM350.432,783.754h.6928c.1924,0,.3568-.0587.4934-.176.1364-.117.2204-.2737.2519-.4696s-.0017-.3525-.0997-.4699-.245-.1757-.441-.1757h-.6876l-.2099,1.2911ZM352.7466,785.7853l.6088-3.8315h2.2518l-.0787.5038h-1.6954l-.1731,1.0867h1.5115l-.0787.4986h-1.5115l-.1942,1.2387h1.6901l-.0787.5038h-2.2518ZM355.8434,785.7853l.6088-3.8315h1.202c.2379,0,.4391.0464.6036.139.1645.0928.2835.223.357.391s.091.3656.0524.5932c-.0384.2591-.14.4838-.3044.6746-.1645.1905-.3656.3209-.6036.391l.5354,1.6428h-.6194l-.4777-1.5748h-.5406l-.2466,1.5748h-.5668ZM356.7356,783.7068h.6352c.1889,0,.349-.0558.4803-.168.1313-.1119.2107-.2623.2388-.4514.0316-.1925,0-.3454-.0944-.4593-.0945-.1136-.2362-.1706-.4252-.1706h-.6352l-.1995,1.2493ZM360.1316,785.8377c-.385,0-.6736-.0951-.8661-.2859-.1924-.1908-.2641-.4505-.2151-.7794h.5668c-.028.1748.0105.3121.1155.4121.1051.0997.266.1495.483.1495.2029,0,.3701-.049.5012-.1469.1313-.098.2109-.2327.2389-.4044.0209-.1504.0007-.2788-.0604-.3856-.0614-.1068-.1583-.1811-.2913-.2233l-.4566-.1364c-.266-.0803-.4619-.217-.5879-.4095-.126-.1922-.1697-.4197-.1313-.6823.035-.2099.1121-.3935.2309-.551s.2729-.2799.4619-.3673.4024-.1313.6404-.1313c.3498,0,.6158.0954.7978.2859.182.1908.2485.4437.1995.7586h-.5668c.0279-.168-.0027-.3001-.092-.3964-.0891-.0963-.2301-.1444-.4225-.1444-.1889,0-.343.0447-.4619.1338-.119.0894-.1889.2144-.21.3753-.0245.1506-.007.2791.0525.3859s.1575.1811.2939.223l.4672.1469c.2624.0806.4558.2173.5801.4095.1242.1925.1653.4217.1233.6877-.035.217-.1155.4058-.2415.5667-.1259.1612-.2878.2862-.4855.3753-.1976.0894-.419.1338-.6639.1338ZM363.2651,785.8377c-.3568,0-.6228-.1005-.7978-.3019-.175-.201-.2345-.473-.1784-.8161l.2677-1.7006c.056-.3429.2029-.6148.4408-.8161.2379-.201.5355-.3019.8923-.3019s.6228.1.7979.2993c.1748.1993.2361.4707.1837.8136l-.2677,1.7057c-.0561.3431-.2039.6151-.4435.8161-.2398.2013-.5381.3019-.895.3019ZM363.3439,785.3339c.1925,0,.3483-.0524.4672-.1575.119-.1051.1942-.2571.2257-.4568l.2678-1.7006c.0315-.1993.0051-.3517-.0787-.4565-.084-.1051-.2223-.1575-.4148-.1575s-.3473.0524-.4645.1575c-.1173.1048-.1916.2571-.2231.4565l-.2677,1.7006c-.0315.1996-.0053.3517.0787.4568s.2204.1575.4094.1575ZM365.2754,785.7853l.6088-3.8315h.7086l.6194,3.186c.007-.098.0165-.217.0289-.3571.0121-.1398.0271-.2851.0446-.4354.0175-.1506.0367-.2888.0577-.4146l.315-1.9788h.525l-.609,3.8315h-.7085l-.6141-3.186c-.0071.0945-.0167.209-.0289.3437s-.0272.2757-.0446.4226c-.0177.1469-.0367.2833-.0578.4095l-.315,2.0102h-.5301ZM368.2252,785.7853l1.5851-3.8315h.7454l.3726,3.8315h-.5616l-.0735-.9711h-1.0865l-.3884.9711h-.5932ZM369.3852,784.3418h.8714l-.0893-1.1023c-.0175-.1959-.0298-.3654-.0367-.5089-.0071-.1435-.0105-.2432-.0105-.2993-.0175.0561-.0517.1558-.1024.2993s-.1146.3112-.1915.5038l-.441,1.1075ZM371.7208,785.7853l.6088-3.8315h.567l-.525,3.3118h1.6744l-.0787.5197h-2.2465ZM376.6785,785.8377c-.3673,0-.6342-.1005-.8003-.3019-.1663-.201-.2214-.475-.1654-.8213l.4357-2.7608h.567l-.4357,2.7554c-.0315.1962-.008.35.0708.4619.0787.1122.2144.168.4068.168.1925,0,.3473-.0558.4646-.168.1172-.1119.1915-.2657.2231-.4619l.4355-2.7554h.567l-.4357,2.7608c-.056.35-.2003.6245-.433.8241-.2328.1993-.5328.299-.9003.299ZM379.8435,785.8377c-.385,0-.6736-.0951-.8661-.2859-.1924-.1908-.2641-.4505-.2151-.7794h.5668c-.028.1748.0105.3121.1155.4121.1051.0997.266.1495.483.1495.2029,0,.3701-.049.5012-.1469.1313-.098.2109-.2327.2389-.4044.0209-.1504.0007-.2788-.0604-.3856-.0614-.1068-.1583-.1811-.2913-.2233l-.4566-.1364c-.266-.0803-.4619-.217-.5879-.4095-.126-.1922-.1697-.4197-.1313-.6823.035-.2099.1121-.3935.2309-.551s.2729-.2799.4619-.3673.4024-.1313.6404-.1313c.3498,0,.6158.0954.7978.2859.182.1908.2485.4437.1995.7586h-.5668c.0279-.168-.0027-.3001-.092-.3964-.0891-.0963-.2301-.1444-.4225-.1444-.1889,0-.343.0447-.4619.1338-.119.0894-.1889.2144-.21.3753-.0245.1506-.007.2791.0525.3859s.1575.1811.2939.223l.4672.1469c.2624.0806.4558.2173.5801.4095.1242.1925.1653.4217.1233.6877-.035.217-.1155.4058-.2415.5667-.1259.1612-.2878.2862-.4855.3753-.1976.0894-.419.1338-.6639.1338ZM381.9062,785.7853l.6088-3.8315h2.2518l-.0787.5038h-1.6954l-.1731,1.0867h1.5115l-.0787.4986h-1.5115l-.1942,1.2387h1.6901l-.0787.5038h-2.2518ZM386.9426,785.8377c-.3568,0-.6228-.1005-.7978-.3019-.175-.201-.2345-.473-.1784-.8161l.2677-1.7006c.056-.3429.2029-.6148.4408-.8161.2379-.201.5355-.3019.8923-.3019s.6228.1.7979.2993c.1748.1993.2361.4707.1837.8136l-.2677,1.7057c-.0561.3431-.2039.6151-.4435.8161-.2398.2013-.5381.3019-.895.3019ZM387.0213,785.3339c.1925,0,.3483-.0524.4672-.1575.119-.1051.1942-.2571.2257-.4568l.2678-1.7006c.0315-.1993.0051-.3517-.0787-.4565-.084-.1051-.2223-.1575-.4148-.1575s-.3473.0524-.4645.1575c-.1173.1048-.1916.2571-.2231.4565l-.2677,1.7006c-.0315.1996-.0053.3517.0787.4568s.2204.1575.4094.1575ZM388.9529,785.7853l.6088-3.8315h.7086l.6194,3.186c.007-.098.0165-.217.0289-.3571.0121-.1398.0271-.2851.0446-.4354.0175-.1506.0367-.2888.0577-.4146l.315-1.9788h.525l-.609,3.8315h-.7085l-.6141-3.186c-.0071.0945-.0167.209-.0289.3437s-.0272.2757-.0446.4226c-.0177.1469-.0367.2833-.0578.4095l-.315,2.0102h-.5301ZM392.249,785.7853l.6088-3.8315h.567l-.525,3.3118h1.6744l-.0787.5197h-2.2465ZM396.1174,785.7853l.2204-1.4119-.7506-2.4197h.5774l.4462,1.4486c.0279.0945.0498.1837.0656.2677.0157.084.0253.1469.0288.1888.0175-.0419.0464-.1048.0867-.1888.0402-.084.0883-.1731.1442-.2677l.8976-1.4486h.5984l-1.5275,2.4197-.2204,1.4119h-.5668ZM399.217,785.7853l.6088-3.8315h.7086l.6192,3.186c.0071-.098.0165-.217.029-.3571.012-.1398.0271-.2851.0444-.4354.0177-.1506.037-.2888.0578-.4146l.315-1.9788h.5248l-.6088,3.8315h-.7085l-.6141-3.186c-.0071.0945-.0167.209-.0289.3437s-.0272.2757-.0446.4226c-.0177.1469-.0367.2833-.0578.4095l-.315,2.0102h-.5301ZM403.5053,785.8377c-.3571,0-.6231-.1005-.7979-.3019-.1751-.201-.2344-.473-.1785-.8161l.2677-1.7006c.0561-.3429.203-.6148.4411-.8161.2378-.201.5354-.3019.8922-.3019.3571,0,.6228.1.7979.2993.1748.1993.2361.4707.1837.8136l-.2677,1.7057c-.0561.3431-.2039.6151-.4437.8161-.2395.2013-.5379.3019-.8947.3019ZM403.5839,785.3339c.1925,0,.3483-.0524.4673-.1575.1187-.1051.1942-.2571.2255-.4568l.2677-1.7006c.0316-.1993.0054-.3517-.0786-.4565-.084-.1051-.2224-.1575-.4146-.1575-.1925,0-.3474.0524-.4647.1575-.117.1048-.1914.2571-.223.4565l-.2677,1.7006c-.0316.1996-.0051.3517.0789.4568.0837.1051.2204.1575.4092.1575ZM406.3814,785.7853l.5248-3.3121h-1.0234l.084-.5194h2.6193l-.084.5194h-1.0289l-.5248,3.3121h-.567ZM409.5178,785.7853l.6088-3.8315h2.32l-.084.5194h-1.7636l-.1837,1.1445h1.6272l-.084.5248h-1.6166l-.2571,1.6428h-.567ZM413.7694,785.8377c-.3571,0-.6231-.1005-.7979-.3019-.1751-.201-.2344-.473-.1785-.8161l.2677-1.7006c.0561-.3429.203-.6148.4411-.8161.2378-.201.5354-.3019.8922-.3019.3571,0,.6228.1.7979.2993.1748.1993.2361.4707.1837.8136l-.2677,1.7057c-.0561.3431-.2039.6151-.4437.8161-.2395.2013-.5379.3019-.8947.3019ZM413.848,785.3339c.1925,0,.3483-.0524.4673-.1575.1187-.1051.1942-.2571.2255-.4568l.2677-1.7006c.0316-.1993.0054-.3517-.0786-.4565-.084-.1051-.2224-.1575-.4146-.1575-.1925,0-.3474.0524-.4647.1575-.117.1048-.1914.2571-.223.4565l-.2677,1.7006c-.0316.1996-.0051.3517.0789.4568.0837.1051.2204.1575.4092.1575ZM415.7952,785.7853l.6088-3.8315h1.202c.2381,0,.4391.0464.6037.139.1643.0928.2833.223.3568.391s.0911.3656.0527.5932c-.0387.2591-.1401.4838-.3044.6746-.1646.1905-.3659.3209-.6037.391l.5354,1.6428h-.6194l-.4776-1.5748h-.5408l-.2466,1.5748h-.567ZM416.6876,783.7068h.635c.1891,0,.3491-.0558.4804-.168.131-.1119.2107-.2623.2386-.4514.0316-.1925,0-.3454-.0945-.4593-.0943-.1136-.2361-.1706-.4252-.1706h-.635l-.1993,1.2493ZM420.905,785.8377c-.3602,0-.6308-.1005-.8107-.3019-.1803-.201-.2423-.473-.1865-.8161l.2677-1.7006c.0561-.3463.2056-.6194.4488-.8187s.545-.2993.9056-.2993c.3568,0,.6253.1008.8056.3019.1803.2013.2423.4733.1865.8161h-.567c.0313-.1993.0026-.3517-.0866-.4565-.0894-.1051-.2284-.1575-.4175-.1575-.1925,0-.3508.0524-.475.1575-.1242.1048-.2019.2554-.2335.4514l-.2677,1.7057c-.0316.1996-.0026.3517.0866.4568.0894.1051.2301.1575.4226.1575s.35-.0524.4724-.1575.1993-.2571.2309-.4568h.5667c-.0347.2275-.1145.4252-.2386.5932s-.2808.2976-.4699.3884c-.1888.0908-.4024.1364-.6404.1364ZM424.0335,785.8377c-.3571,0-.6231-.1005-.7979-.3019-.1751-.201-.2344-.473-.1785-.8161l.2677-1.7006c.0561-.3429.203-.6148.4411-.8161.2378-.201.5354-.3019.8922-.3019.3571,0,.6228.1.7979.2993.1748.1993.2361.4707.1837.8136l-.2677,1.7057c-.0561.3431-.2039.6151-.4437.8161-.2395.2013-.5379.3019-.8947.3019ZM424.1121,785.3339c.1925,0,.3483-.0524.4673-.1575.1187-.1051.1942-.2571.2255-.4568l.2677-1.7006c.0316-.1993.0054-.3517-.0786-.4565-.084-.1051-.2224-.1575-.4146-.1575-.1925,0-.3474.0524-.4647.1575-.117.1048-.1914.2571-.223.4565l-.2677,1.7006c-.0316.1996-.0051.3517.0789.4568.0837.1051.2204.1575.4092.1575ZM425.9653,785.7853l.6088-3.8315h.6874l.1837,1.2282c.0211.119.0367.2301.0473.3332.0105.1034.0194.1828.0262.2389.0177-.0561.0473-.1364.0894-.2415.0419-.1051.0908-.217.1469-.336l.5667-1.2228h.7088l-.6088,3.8315h-.5354l.2045-1.2911c.0245-.168.0578-.3525.1-.5539.0419-.201.0874-.4041.1364-.6088s.0963-.3998.1418-.5852c.0453-.1854.0874-.3483.1259-.4881l-.8554,1.8632h-.5513l-.2833-1.8632c-.0037.1364-.0105.2947-.0211.475s-.0236.3719-.0393.5747c-.0157.203-.035.4069-.0578.6114-.0228.2047-.0481.3964-.076.5749l-.2047,1.2911h-.5405ZM429.1145,785.7853l.6088-3.8315h.6874l.1837,1.2282c.0211.119.0367.2301.0473.3332.0105.1034.0194.1828.0262.2389.0177-.0561.0473-.1364.0894-.2415.0419-.1051.0908-.217.1469-.336l.5667-1.2228h.7088l-.6088,3.8315h-.5354l.2045-1.2911c.0245-.168.0578-.3525.1-.5539.0419-.201.0874-.4041.1364-.6088s.0963-.3998.1418-.5852c.0453-.1854.0874-.3483.1259-.4881l-.8554,1.8632h-.5513l-.2833-1.8632c-.0037.1364-.0105.2947-.0211.475s-.0236.3719-.0393.5747c-.0157.203-.035.4069-.0578.6114-.0228.2047-.0481.3964-.076.5749l-.2047,1.2911h-.5405ZM432.4107,785.7853l.6088-3.8315h2.2516l-.0786.5038h-1.6955l-.1731,1.0867h1.5115l-.0786.4986h-1.5118l-.1942,1.2387h1.6901l-.0786.5038h-2.2516ZM435.5073,785.7853l.6088-3.8315h1.202c.2381,0,.4391.0464.6037.139.1643.0928.2833.223.3568.391s.0911.3656.0527.5932c-.0387.2591-.1401.4838-.3044.6746-.1646.1905-.3659.3209-.6037.391l.5354,1.6428h-.6194l-.4776-1.5748h-.5408l-.2466,1.5748h-.567ZM436.3997,783.7068h.635c.1891,0,.3491-.0558.4804-.168.131-.1119.2107-.2623.2386-.4514.0316-.1925,0-.3454-.0945-.4593-.0943-.1136-.2361-.1706-.4252-.1706h-.635l-.1993,1.2493ZM439.8007,785.8377c-.3602,0-.6308-.1005-.8107-.3019-.1803-.201-.2423-.473-.1865-.8161l.2677-1.7006c.0561-.3463.2056-.6194.4488-.8187s.545-.2993.9056-.2993c.3568,0,.6253.1008.8056.3019.1803.2013.2423.4733.1865.8161h-.567c.0313-.1993.0026-.3517-.0866-.4565-.0894-.1051-.2284-.1575-.4175-.1575-.1925,0-.3508.0524-.475.1575-.1242.1048-.2019.2554-.2335.4514l-.2677,1.7057c-.0316.1996-.0026.3517.0866.4568.0894.1051.2301.1575.4226.1575s.35-.0524.4724-.1575.1993-.2571.2309-.4568h.5667c-.0347.2275-.1145.4252-.2386.5932s-.2808.2976-.4699.3884c-.1888.0908-.4024.1364-.6404.1364ZM441.8792,785.7853l.0789-.5038h.7768l.4459-2.824h-.7766l.0837-.5038h2.1258l-.084.5038h-.7766l-.4462,2.824h.7768l-.0789.5038h-2.1258ZM444.7399,785.7853l1.585-3.8315h.7452l.3728,3.8315h-.5616l-.0735-.9711h-1.0867l-.3884.9711h-.5929ZM445.8998,784.3418h.8714l-.0894-1.1023c-.0174-.1959-.0296-.3654-.0367-.5089-.0068-.1435-.0103-.2432-.0103-.2993-.0177.0561-.0518.1558-.1025.2993s-.1148.3112-.1916.5038l-.4408,1.1075ZM448.2354,785.7853l.6088-3.8315h.567l-.5248,3.3118h1.6741l-.0786.5197h-2.2465ZM453.1932,785.8377c-.3676,0-.6345-.1005-.8005-.3019-.1663-.201-.2213-.475-.1654-.8213l.4357-2.7608h.567l-.4357,2.7554c-.0316.1962-.008.35.0709.4619.0786.1122.2141.168.4066.168s.3474-.0558.4645-.168c.1173-.1119.1916-.2657.2233-.4619l.4357-2.7554h.5667l-.4357,2.7608c-.0558.35-.2002.6245-.4328.8241-.2329.1993-.5328.299-.9001.299ZM456.3581,785.8377c-.385,0-.6738-.0951-.866-.2859-.1925-.1908-.2643-.4505-.2153-.7794h.567c-.0282.1748.0105.3121.1153.4121.1051.0997.266.1495.483.1495.2028,0,.3699-.049.5012-.1469s.2107-.2327.2389-.4044c.0211-.1504.0009-.2788-.0604-.3856s-.1583-.1811-.2913-.2233l-.4568-.1364c-.266-.0803-.4619-.217-.5878-.4095-.1259-.1922-.1697-.4197-.1313-.6823.035-.2099.1119-.3935.2309-.551s.2731-.2799.4619-.3673c.1891-.0874.4024-.1313.6404-.1313.3497,0,.6157.0954.7979.2859.1817.1908.2483.4437.1993.7586h-.567c.0279-.168-.0026-.3001-.0917-.3964-.0894-.0963-.2301-.1444-.4226-.1444-.1891,0-.3429.0447-.4619.1338-.119.0894-.1891.2144-.2099.3753-.0245.1506-.0071.2791.0524.3859s.1575.1811.2939.223l.4673.1469c.2623.0806.4556.2173.5798.4095.1242.1925.1654.4217.1236.6877-.035.217-.1156.4058-.2415.5667-.1262.1612-.2879.2862-.4855.3753-.1979.0894-.4192.1338-.6641.1338ZM458.4209,785.7853l.6088-3.8315h2.2516l-.0786.5038h-1.6955l-.1731,1.0867h1.5115l-.0786.4986h-1.5118l-.1942,1.2387h1.6901l-.0786.5038h-2.2516Z" style="fill: #ccc;"/>
  <g>
    <g>
      <path d="M732.8028,253.3579l-1.3388,9.0533c-3.7076,26.2035-8.3807,52.08-15.2295,77.6688-10.9554,40.9347-26.6418,80.4456-46.4607,117.8954-61.3297,115.9464-131.1899,207.6062-244.5668,276.6535l-25.1923,15.371-25.1916-15.371c-113.3768-69.0666-183.2449-160.72-244.5881-276.6612-19.8098-37.4421-35.5053-76.9691-46.4723-117.8955-6.852-25.5965-11.5263-51.4736-15.2365-77.6687l-1.3144-9.0688c-3.687-23.388-4.247-47.5144-4.4568-71.1438-.2723-31.9277.5677-63.8941,2.4421-95.7445l2.1003-36.4464h665.383l2.1113,36.3768c1.9181,31.8807,2.7227,63.8632,2.4524,95.7986-.1995,23.6526-.7531,47.7944-4.4414,71.1824Z" style="fill-rule: evenodd;"/>
      <path d="M718.526,251.1784l-1.3582,9.1621c-3.6625,25.8688-8.1039,50.6877-14.8819,76.0049-10.6915,39.9074-25.9595,78.353-45.2827,114.8772-60.9177,115.1553-129.0433,203.9057-239.3164,271.0799l-17.6792,10.7881-17.6786-10.7816c-110.2814-67.1935-178.4147-155.931-239.3299-271.1018-19.32-36.5165-34.6035-74.9544-45.2982-114.8702-6.7741-25.3165-11.2386-50.1431-14.8863-76.0042l-1.3305-9.1776c-3.5229-22.2603-4.0983-46.5656-4.285-69.0982-.2568-31.4218.5677-63.4197,2.4106-94.7951l1.3144-22.8358h638.1361l1.3324,22.8042c1.8731,31.36,2.6906,63.428,2.4138,94.8267-.1867,22.5326-.766,46.8533-4.2805,69.1214Z" style="fill: #fff; fill-rule: evenodd;"/>
    </g>
    <g>
      <path d="M326.3754,597.2101l11.2161-3.0253v44.8258c0,1.4547.1242,2.5554.3733,3.3214.233.7595.8786,1.8087,1.913,3.1411h-11.9544c.9488-1.1458,1.5944-2.1821,1.9446-3.0575.3501-.8818.513-1.9761.513-3.3214v-35.1384c0-1.5191-.0618-2.6005-.179-3.2377-.1242-.6565-.4197-1.268-.8709-1.8667-.4589-.6115-1.4463-1.1586-2.9635-1.6414h.0077Z"/>
      <path d="M355.738,645.3894c1.9439-.5536,3.5151-1.1007,4.6975-1.68,1.1902-.5857,2.4189-1.3839,3.7025-2.4138,7.5439-6.3145,11.3088-14.3798,11.3088-24.228,0-5.7609-.9488-10.3568-2.8624-13.8004-1.9053-3.418-4.4955-5.1301-7.7621-5.1301-2.6056,0-4.6744,1.1136-6.2224,3.3343-1.5397,2.2271-2.3179,5.2524-2.3179,9.0758,0,8.5802,3.508,12.8671,10.5235,12.8671,1.0267,0,1.7656-.0515,2.2246-.1416.4512-.1094,1.2519-.3926,2.4035-.8689-2.1859,3.2892-5.2582,4.9306-9.2091,4.9306s-7.1944-1.3517-9.7066-4.0616c-2.5277-2.7099-3.7881-6.1793-3.7881-10.3825,0-4.937,1.6182-9.1209,4.8301-12.5453,3.2204-3.4051,7.2021-5.1172,11.9467-5.1172,5.2891,0,9.5354,1.9246,12.7326,5.7866,3.1888,3.875,4.7909,8.9922,4.7909,15.371,0,8.5674-2.8624,15.9568-8.5789,22.1618-4.8688,5.2396-9.7923,7.8529-14.7853,7.8529-.9649,0-1.6568-.0708-2.0456-.1802-.3972-.1223-1.0267-.3991-1.8744-.8239l-.0077-.0064Z"/>
      <path d="M400.7627,605.1595c-.607,1.6929-1.0968,3.9586-1.4625,6.7908-.3656,2.8257-.5523,5.7287-.5523,8.7089,0,2.7357.179,5.4906.5523,8.2584.3656,2.7613.8786,5.2331,1.5558,7.4345.6688,2.182,1.9285,4.0101,3.7565,5.4713,1.8357,1.4547,3.9122,2.182,6.2224,2.182s4.3165-.7209,6.1832-2.1434c1.8589-1.4354,3.1811-3.3664,3.9824-5.7931,1.2751-3.9522,1.9207-9.0888,1.9207-15.4161,0-3.1604-.1474-6.0248-.4512-8.5738-.3109-2.5682-.8246-4.937-1.5628-7.1641-.7235-2.2207-2.0302-4.0809-3.8891-5.5678-1.8667-1.4869-3.92-2.2336-6.1832-2.2336s-4.3094.7273-6.1368,2.1885c-1.8358,1.4612-3.1424,3.4051-3.9354,5.8382v.0193ZM391.1803,620.6593c0-3.2892.4203-6.6106,1.2757-9.9899.8477-3.3728,1.9754-6.2115,3.3677-8.5223,3.4063-5.4133,8.4232-8.1168,15.0498-8.1168s11.8147,2.7035,15.0112,8.1168c3.1888,5.4134,4.7832,11.5862,4.7832,18.5186s-1.6098,13.1439-4.8379,18.4736c-3.2274,5.3297-8.2133,7.988-14.9642,7.988s-11.6512-2.7163-15.0498-8.1232c-1.4-2.3108-2.52-5.1172-3.3677-8.3871-.8561-3.2956-1.2758-6.6041-1.2758-9.9513l.0078-.0064Z"/>
      <path d="M466.6026,596.1287c-2.0611.5343-3.6632,1.0878-4.7915,1.6414-1.1277.5536-2.3565,1.3775-3.6863,2.4717-7.4899,6.3917-11.2309,14.5021-11.2309,24.3053,0,5.7352.972,10.3246,2.9088,13.7683,1.9368,3.4308,4.5109,5.1558,7.7151,5.1558,2.5438,0,4.5971-1.1328,6.1761-3.3922,1.5789-2.2529,2.3642-5.2459,2.3642-8.9664,0-8.5995-3.5621-12.9186-10.6947-12.9186-1.1509,0-2.6288.2703-4.4408.8175,2.3018-3.1605,5.3818-4.7439,9.2085-4.7439s7.1171,1.3389,9.6757,4.0101c2.5509,2.6777,3.8267,6.1149,3.8267,10.3246,0,4.9692-1.6098,9.1853-4.8379,12.6161-3.2274,3.4437-7.2021,5.1559-11.9544,5.1559-5.2885,0-9.5277-1.9246-12.7242-5.7931-3.1888-3.8556-4.7909-9.0179-4.7909-15.4483,0-8.5802,2.8541-16.0018,8.5783-22.2713,4.7445-5.0979,9.668-7.6598,14.7859-7.6598.9643,0,1.6021.0322,1.913.0837.2954.0708.9648.3347,2.007.8304l-.0077.0129Z"/>
    </g>
    <g>
      <path d="M580.3476,236.0796c.5278,0,4.2161,2.0141,6.3531,3.1109,19.5871,10.1656,57.7508,32.3242,81.0455,32.3242,16.9931,0,18.9949-5.9579,37.1273-26.4365h-6.6943c-7.0997-.0309-21.8464-4.2386-26.8864-5.8723-8.6188-2.7768-17.0961-6.5642-25.6055-9.8155-2.5296-.9565-5.3039-2.2477-7.8915-3.1502-10.1894-3.5467-20.2823-7.2568-30.3172-10.8035-.8497-.2955-19.7803-6.4085-19.7803-12.4365,0-.0779.2446-4.9074,2.7743-4.9074.5343,0,23.9513,7.6218,35.9366,11.2309,4.1839,1.252,8.5481,2.2709,12.8092,3.2042,3.36.7466,7.0547,1.1979,10.4726,1.6337,1.4676.1867,4.1968.5832,4.731.5832,0,0,8.1168.6842,13.6138,0,3.2441-.4042,9.063-1.8197,10.0929-2.2246,2.7807-1.1509,5.6966-2.7221,8.2842-5.5768,5.5485-6.1909,7.4924-13.7277,9.5521-20.0197.7467-2.3179,1.6543-4.4877,2.2722-6.9375-6.9646,1.5397-7.7306,2.0997-12.9894,2.0997l-6.2823-.2098c-31.1025-3.36-62.4754-8.1045-93.2368-20.9923-.3733-.1635-1.0106-.5053-1.2101-.887,3.051-4.993,7.28-5.8716,10.9876-5.8716l26.674,2.7762h8.3035c7.6018,0,25.3931-4.4253,28.5665-14.3733.0772-.2645,1.3968-3.7951,1.8666-6.4632,1.635-6.7123,0-10.0491,0-10.0491-2.3301-1.6407-4.8726-1.9754-7.0354-1.9754-3.5467,0-9.4749,1.9214-13.0216,1.9214l-10.7687-.4281c-30.5232-2.6442-61.04-12.4597-91.5633-14.9411,0,0-15.8744-1.1509-25.4098-.6379-7.4203.428-20.1677,1.9446-20.1677,12.9115,0,17.6085,16.2168,9.1228,16.2168,27.852,0,6.2379-7.327,32.348-7.7551,33.5768-1.0962,3.0723-2.7144,7.3502-4.4723,10.4379-2.9866,5.2576-7.8786,11.612-12.4442,16.6288-3.2274,3.5467-14.6456,13.6267-19.6077,13.6267-16.1158,0-30.6835-22.9755-30.9397-36.4-5.515-2.2246-11.068-4.1459-16.4736-6.2849l-17.4688,24.3291-18.76-23.473c-4.1221,1.9285-8.3923,3.8498-12.4288,5.7944-4.1846,13.8288-15.1747,37.3095-32.4104,37.3095-14.3811,0-26.2421-18.2772-34.4317-31.3207-1.8666-2.9866-3.2667-6.5333-4.2547-9.7923-2.4267-8.0035-3.6245-17.1347-4.8302-25.1691-.2645-1.9207-.56-5.2112-.56-5.7474,0-13.6814,16.2168-16.6449,16.2168-29.5558,0-8.8589-11.5888-10.9901-17.5937-12.0323-1.7032-.2954-4.845-.7776-5.3818-.7776,0,0-10.407-1.0814-20.2224,0-.5285.0541-5.6155.6456-8.1509.9874-14.887,2.0302-30.8232,5.367-45.6793,8.7502-13.393,3.0723-27.7895,5.5459-41.1754,6.9067l-6.4007.2098c-.5291,0-15.3691-1.4933-15.8982-1.4933-2.6133,0-4.6197-.2253-7.4589,1.5481,0,0-1.0576,3.4224,0,10.5389.7705,4.5811,3.7726,10.0877,7.5059,12.7867,8.4541,6.0589,17.9354,7.5677,26.6309,7.5677l32.0134-2.7768c3.4926,0,8.1902.4667,8.9754,6.0358-1.4464.8091-2.9011,1.5474-4.2077,1.9986-24.8112,8.6414-56.9102,14.4281-87.0568,18.8533-8.9207,1.3144-24.6239-1.019-24.6239-1.019,11.993,26.6238,20.3621,34.9537,39.5733,34.9537s53.4407-12.3046,69.9607-16.8702c1.0189,2.5045,2.2947,4.8456,3.1502,7.1165-36.5944,14.0077-73.5158,36.8358-109.8224,39.6358l-7.56.2723c13.1915,18.2547,23.2245,26.4056,37.6603,26.4056,21.9018,0,82.7319-35.428,87.8266-35.428,2.6133,0,2.3334,3.5782,3.2042,5.0014-2.9558,2.7144-5.7242,5.3509-8.7109,7.9642-8.9137,7.7937-17.8421,15.7965-26.2498,23.0456-7.047,6.1059-15.3228,12.9811-22.4084,18.76-3.0954,2.52-6.16,4.9936-9.1776,7.4126-4.9074,3.9509-10.0253,7.8632-15.1509,11.5186-5.0947,3.6245-10.1502,8.3144-15.3537,10.9509-3.0645,1.5712-7.2645,1.96-10.4997,2.0379,3.8653,7.4435,15.4702,17.228,26.1179,20.0821.8007.2105,3.6709.8638,5.5298.7389,12.9264-.8632,26.2344-9.0765,38.08-17.772,7.2877-5.3593,14.5986-12.5221,21.5677-18.6589,5.3354-4.6976,13.0821-12.3432,18.9467-18.099,4.6976-4.5965,9.4112-9.1158,14.0386-13.0898,1.7656,4.3397,5.8414,9.092,9.3102,13.1208-.4358.4435-.8632.887-1.299,1.3305-30.6912,31.2898-61.3123,55.2997-92.1432,79.3951-6.2688,4.908-12.8021,9.2554-19.2498,14.0231,6.7664,9.1003,27.2379,15.0659,38.5228,15.0659,41.4014,0,90.1993-74.9158,103.087-74.9158,3.5776,0,4.7832,1.6568,8.6414,5.0246-2.1081,2.4814-4.0603,4.8611-5.9038,7.179-13.5797,17.2357-49.7151,54.0864-77.0309,77.7312-8.828,7.6302-17.8968,15.68-26.7242,22.8274-2.1859,1.7656-4.2779,3.5859-6.0203,5.367,9.7768,8.5088,19.9347,14.56,29.3298,16.1621,2.1312.3424,8.501,2.0842,15.9993,1.2287,7.0541-.8084,11.8533-2.9944,14.5755-4.0056,9.3102-3.4997,26.9579-16.9944,38.1656-28.8941,11.6042-12.32,22.8197-26.3354,32.4491-38.64,7.84-10.0021,15.3916-21.6147,26.732-29.299.9101-.6147,4.052-2.4659,5.3824-2.4659,3.4141,0,3.6239,5.8961,3.6239,7.4666,0,24.5467-44.092,72.7614-63.3888,81.1537h48.2771l11.7909,27.4786c4.5502-7.9018,8.1045-16.0688,11.3319-23.5432,6.6189-15.2365,12.5691-31.0723,28.5523-45.6091.3501,1.0035.3501,2.0533.6688,3.1116,1.1438,10.5312,1.0189,16.1853,0,26.4442-4.1607,30.5122-16.7376,71.5558-37.6443,103.1642,18.0288-8.0029,40.9656-23.9706,53.8765-44.4884,5.4681-8.6723,8.6568-18.1067,9.5438-26.647.0772-.8246.7229-6.6112.7229-6.6112,0-.8787.4982-1.9362,1.5712-2.0456.5369-.0541,1.2603.2723,1.4232.7782.8793,2.6912,1.2294,5.5684,1.9214,8.3221,1.5403,6.1052,4.0365,13.3312,7.1867,19.4442,4.0835,7.9256,9.8078,16.5902,16.8779,23.847,4.3474,4.4568,9.9867,9.294,14.1011,12.3901,8.1902,6.1362,17.5235,9.9944,25.9158,13.5095-6.207-10.1032-11.0603-21.2021-16.287-31.0176-3.1501-5.9502-6.2379-12.32-8.96-18.4021-1.5165-3.4147-3.3523-6.7592-4.3397-10.228-2.6133-9.0997-4.908-18.3474-6.8294-27.3074-.8786-4.1846-4.2772-20.5571-5.0239-30.007,0,0-.8477-5.1797-.4982-9.5046.2491-3.0562,1.2835-4.2232,1.5165-4.5341,11.0217,14.0463,17.275,29.8667,23.6526,44.1151,3.4688,7.7628,7.233,16.0694,11.7909,24.181l11.3712-29.0421,48.0589-.6997c-28.8786-22.0968-61.4596-52.9354-61.4596-81.348,0-2.8309-.0238-7.5832,4.8063-7.5832.5369,0,1.5789-.0309,2.061.4512,10.5937,10.3523,18.0526,21.2568,26.7242,31.873,24.4147,29.8512,59.1733,71.6182,90.4188,71.6182,11.7342,0,30.8708-5.4835,40.5517-17.8344-39.1227-34.0827-82.1958-70.0083-115.6792-111.6112,2.9635-3.1888,6.7515-6.5102,9.7144-6.5102,4.2393,0,13.0982,10.1579,15.5557,12.6933,17.9046,18.5424,39.2496,42.7081,59.0942,52.873,5.4713,2.8,10.6851,5.499,16.0211,7.0547,1.4483.428,8.0009,2.007,11.155,2.2947,4.8019.4429,8.2713.0772,8.2713.0772,8.0009,0,27.9227-6.7586,31.714-16.652-20.0827-10.6245-57.4354-38.9431-84.1159-62.6576-2.8064-2.4968-21.0232-18.1845-26.6772-26.2582-1.0505-1.5011-1.6645-2.7298-1.6645-3.5698,0-3.36,6.3621-9.8463,9.0765-12.3824,2.9158,2.1158,6.0248,4.5115,8.6703,6.8526,3.1218,2.7768,9.5779,9.092,9.5779,9.092,13.1761,11.9467,45.9972,50.4238,74.48,50.4238,9.4428,0,26.3393-7.428,31.7849-19.3593-8.9729-3.2589-18.3062-8.7186-26.7127-14.4274-7.029-4.7838-14.3347-10.555-21.6791-16.6449-11.2129-9.2863-53.0519-42.3032-58.4202-47.4519-1.4676-1.3845-2.446-2.139-2.446-3.5003,0-.5362.1738-1.3685.4635-1.9754.4506-.8554,3.212-4.2077,3.9071-4.2077l-.0193.0547Z" style="fill: #1d1d1b;"/>
      <path d="M305.8253,451.1782c-2.1705,3.4997-4.3011,6.9376-6.3859,9.9558-2.8779,4.1917-15.9754,26.5762-25.6821,26.5762-6.6189,0-27.028-12.3818-31.9045-12.3818-6.113,0-13.2765,11.9699-14.56,15.4309-1.4155,3.8189-3.4765,11.0288-3.4765,15.2989,0,2.7769.4358,5.2808,3.5467,7.8941,3.9123-10.414,10.2197-17.92,19.1797-17.92,4.348,0,8.3066,1.5635,12.9733,3.8814,1.4933.7466,2.0772,3.259,2.0772,4.2232,0,6.7516-7.8947,15.8744-7.8947,28.3811,0,.5291.4281,4.1846.7859,6.1291l.3811.2723c4.0288-1.7424,9.4576-4.2779,13.0274-8.3614,4.2393-4.8295,6.3621-11.0596,9.7459-16.2323,1.7888-2.7453,4.3397-4.433,6.7895-4.433.5291,0,3.3214.5832,4.9782,1.1902,8.8589,3.2512,13.5874,9.0765,13.5874,16.3095,0,2.5902-.5986,5.4134-2.1074,8.2835,7.2646-2.7453,18.9698-14.8246,18.9698-21.9488,0-7.9256-22.6253-12.5923-22.6253-16.5432,0-.5368,7.9797-11.861,12.0632-17.8659,4.052-5.9733,8.9986-12.732,15.4618-18.1762l-4.3165-9.9867h-14.6218l.0077.0231Z" style="fill: #1d1d1b;"/>
      <path d="M407.4093,482.0162c-1.2526-3.1495-2.3958-6.6028-3.36-9.885-1.2442,6.0042-3.2358,12.8562-6.6499,18.8295-1.7347,3.0414-3.9901,7.3502-6.3936,10.228-.6141.7235-1.9986,2.3102-1.9986,2.8463,0,.5369,1.8512,4.0604,2.4884,5.7944,2.7769,7.6302,4.3558,15.4315,8.7579,23.0617.5832,1.0106,3.7958,5.1719,5.4056,5.1719.5291,0,1.3459-1.0891,1.7424-1.7578,5.5768-9.2864,7.6379-19.04,10.4688-27.9846.4821-1.5165,1.6568-4.0829,1.6568-4.6197s-2.8933-4.1923-4.2316-6.3544c-3.1186-5.0638-5.8639-10.1971-7.8863-15.3459v.0154Z" style="fill: #1d1d1b;"/>
      <path d="M559.645,475.3316c-4.8063,0-25.4568,12.3824-31.694,12.3824-.5369,0-1.4.1404-1.9916-.0702-12.0085-4.6428-22.5944-24.8807-31.7874-38.7333h-14.6224l-3.6709,9.6912c3.4372,3.6792,6.5018,7.28,9.3333,10.9277,2.2632,2.9326,4.6119,6.1831,6.6106,9.1698,4.1614,6.1684,12.4371,18.0835,12.4371,18.6126,0,3.6323-22.8358,8.7579-22.8358,16.2245s11.5656,18.9853,19.1803,22.1586c-1.1361-2.2555-2.3179-5.9109-2.3179-8.3923,0-7.4119,5.452-13.0197,14.4429-16.4112,1.4702-.5362,3.9122-.9797,4.4491-.9797,3.4379,0,6.0435,2.9397,8.2835,6.7741,1.3846,2.3494,3.0878,4.5425,3.9123,6.8133,2.4267,6.4561,11.0056,13.3235,17.5158,15.4238.8007-2.1158.6997-4.5502.6997-6.2849,0-11.4176-7.6842-23.2941-7.6842-28.4898,0-1.0421.1242-3.5074,2.2786-4.4407,5.4442-2.3179,7.8786-3.6716,12.7635-3.6716,9.2889,0,14.6315,7.7544,19.1823,17.92,2.4074-1.5635,3.5531-5.3355,3.5531-7.6765,0-5.3354-2.4717-13.6035-5.0014-18.5109-2.0018-3.8421-8.0717-12.4371-13.0364-12.4371Z" style="fill: #1d1d1b;"/>
      <path d="M348.0351,124.2476c2.9558,0,5.8176,1.5326,7.3109,5.6933.2105.5838.5838,1.3537.5838,1.8828,0,.7699-.6147,1.9754-1.4077,2.1621-1.6568.3733-3.5081.3186-4.9158.7776-3.4688,1.1747-5.9965,2.287-9.2477,2.287-.5369,0-3.7256-.428-5.5221-.5992.6456,2.2323,6.1362,5.087,7.793,5.087,0,0,4.3866.8786,7.9726-.0933.513-.1403.7775.2877.2253,1.0112-2.5509,2.8695-4.4413,3.7797-6.7355,3.7797-.5368,0-5.7403-1.2758-8.6021-1.8976.4197,6.2533,12.6856,9.5895,16.8232,9.5818,5.9263-.0154,10.8267-5.3354,16.0063-5.3354,4.6982,0,5.5459,3.228,5.5459,7.0393,0,6.0274-4.9003,14.8786-6.9845,20.3467-1.4625,3.8421-3.033,7.8941-4.7214,11.8533l20.3235-9.1467,17.5312,22.1973,16.2477-23.0533,23.948,9.3649c-1.6021-3.6947-7.6533-13.8133-7.6533-18.5347,0-2.6442,1.4541-7.793,2.7066-10.2512,1.6021.6926,4.2933,1.6028,5.9418,1.7116,1.6105.1088,2.108-.5059,2.668-.9411-5.6309-6.0435-9.1003-12.9115-9.6056-18.807-.2414-2.9635-.56-3.3368-.233-6.3312.0772-.8786.7151-2.6365.8007-3.2512,2.8856-7.2877,9.9403-11.0133,13.5179-14.3572,0,0-9.3803.3965-11.8301.1474-3.5312-.233-6.9375-.9797-10.0021-2.0765-2.9088-1.0112-6.0821-2.4112-8.9368-4.5965-8.3762-6.4323-16.9088-10.4302-24.8112-11.3326-2.1306-.2407-4.2695-.6141-6.4084-.7698-3.4147-.2414-4.9158-.2098-5.4526-.2098-.5362,0-2.8856.2098-4.1685.2646-5.0168.2098-11.2238,5.0786-16.0771,10.36-1.073,1.1509-2.2316.7229-3.5621.6842-3.5152.0309-10.2429.428-10.2429.428-9.715.7229-18.0294,6.6653-18.0294,15.6877,0,2.8309.6772,4.713,1.9993,7.5754,5.8021-4.2856,9.7376-8.3221,17.2119-8.3221l-.0077-.0161ZM369.0821,113.1493c-.1326,4.6197,4.052,6.6106,7.0155,6.6106s5.3901-1.2906,6.7664-5.32c2.5747.0624,6.0203-.0077,8.6259-1.0807.5207.6611.7151,1.4386.7151,2.3411,0,6.1909-9.7922,7.0463-12.0554,7.0463-2.5587,0-11.8456-.8786-11.8456-6.9376,0-.5368.2259-1.7579.7705-2.6681l.0077.0084Z" style="fill: #1d1d1b;"/>
      <path d="M460.1594,267.074c-.0695.2568-.0772.3888-.0772.9179,0,2.1853,4.76,14.233,5.1874,15.1972,1.447,3.2982,3.1656,6.6968,4.8147,10.0414.3887.8091.7852,1.6098,1.1663,2.3958,1.5249-.6379,3.1347-1.4625,4.7754-2.3881h.0161c3.8884-2.1853,7.9642-4.9389,11.5733-7.2954l-18.6589-24.0253c-3.0646,1.9362-6.0435,3.64-8.7971,5.1642v-.0077Z" style="fill: #1d1d1b;"/>
      <g>
        <path d="M570.1582,251.8137c2.0533,1.1979,4.8598.9179,7.2929,1.1824-2.5039,6.1291-14.7338,14.6765-20.1491,14.6765-9.5046,0-22.8667-8.6098-31.36-13.8751l-12.7165,14.8316c8.0807,8.0505,34.0197,33.2814,38.4141,37.3417-4.8997,6.1832-16.3256,7.8008-22.5165,7.8008-12.1958,0-23.7221-8.0344-35.1712-20.5488-1.299-1.4154-2.5979-2.8933-3.8968-4.4253l-16.9551,10.165c8.0189,15.3382,25.9544,32.3635,41.4084,46.2933-9.6751,6.8603-15.2056,9.4891-24.2197,9.4891-11.3635,0-19.1803-5.0709-31.3214-17.9586-1.7888-1.9214-5.7088-5.7326-5.7088-6.2611,0-.9648,1.0653-3.0877,1.2056-3.8659.8555-4.2386,1.1432-8.7418,1.5712-13.2141l.1867-20.2224.2568-28.4976c20.5018-9.1081,45.9354-32.2238,57.4618-53.3481.9333-1.7032,2.1389-3.6323,3.2048-5.4989,5.9733-10.3207,9.9397-21.2098,12.88-31.8267.1088-.3733,5.6232-24.1424,5.6541-31.3207v-20.8133s33.2106,5.1172,35.3025,5.3116c2.0791.3038,6.1536,0,6.1536,0,2.5039,0,6.2823.8246,8.4451,2.6294-.1996,1.5474-.7145,3.3284-.7145,4.8218.1094,8.9368-11.5734,12.6077-17.3343,12.6h-2.8966s-2.697,19.2112-2.491,19.3354c7.2735,2.5824,15.5126,5.2505,23.1338,6.5024l5.9991.7312c2.3495.2176,4.6796.1165,7.1062.6063-7.7177,13.4091-13.2791,19.5691-24.2087,19.5691-6.16,0-10.7108-1.5789-17.4565-4.0674-1.2288,3.5698-2.5039,7.4042-3.5776,10.9586,12.9946,6.72,26.6406,13.0898,40.1256,14.0856-9.4878,10.4919-15.4934,15.0891-24.64,15.0891-7.7389,0-15.2365-4.5502-23.2323-9.3958l-5.0477,9.6912c9.5902,7.4042,19.4526,15.2674,29.8248,21.4042l-.0129.0232Z" style="fill: #fff;"/>
        <path d="M587.9173,216.945c-19.8832-3.1888-39.9409-15.9832-59.4707-26.9579-1.4,4.068-3.5775,9.0456-5.6154,13.1523,9.2555,5.0477,33.6624,24.407,45.8788,24.407,6.5655,0,12.4294-3.0259,19.2074-10.6014Z" style="fill: #1d1d1b;"/>
        <path d="M517.7081,212.725c6.2456,5.7944,13.113,10.9277,19.7712,15.6646l4.5579-9.7382-20.4014-13.3074-3.92,7.381h-.0077Z" style="fill: #1d1d1b;"/>
        <path d="M503.6212,232.3515c12.0715,10.3214,38.2281,32.5424,53.4645,32.5424,4.2933,0,12.8665-5.88,15.8918-9.7537-1.7959-.28-3.8814-.5832-5.3747-1.6253-17.6883-12.2189-34.3016-23.8702-51.5136-38.3523-3.8891,5.732-7.7003,11.7207-12.468,17.1888Z" style="fill: #1d1d1b;"/>
        <path d="M582.2078,133.7503l.3669-2.847c-.9269-.8632-2.5812-.8864-3.109-.9018-1.9568-.0393-3.5724.3341-7.0096,0l-32.9016-4.8849v17.0098l26.2718,2.3803c6.0055,0,15.1522-1.0267,16.3816-10.7642v.0077Z" style="fill: #1d1d1b;"/>
        <path d="M553.1258,188.5485l-20.8443-9.4421c-.9101,2.8393-1.7656,5.6077-2.8315,8.4547l20.4168,11.5888,3.259-10.6014Z" style="fill: #1d1d1b;"/>
        <path d="M560.7895,146.9044l-21.7003-1.9368-1.7347,11.8765,21.3038,8.5558,2.1312-18.4955Z" style="fill: #1d1d1b;"/>
        <path d="M594.103,176.392c-.9269-.28-3.7655-.0386-7.3444-.4898-16.6198-2.2168-33.4513-9.5979-49.7924-16.4267l-3.8891,17.0021c9.2554,4.0526,29.6594,14.9958,41.0718,14.9958,8.5674,0,13.3241-4.0288,19.954-15.0891v.0077Z" style="fill: #1d1d1b;"/>
        <path d="M471.3903,260.7261c4.8224,4.7915,14.2491,20.0049,26.0864,32.4955h.0083c9.3333,9.847,20.1677,17.9824,31.4218,17.9824,5.3902,0,14.9803-1.4701,19.1024-5.0168-4.4645-4.2-37.6056-33.7944-57.9368-59.8653-5.9501,5.6547-13.3074,10.0568-18.6821,14.3965v.0077Z" style="fill: #1d1d1b;"/>
        <path d="M467.0358,293.2215c-2.5973-5.0786-4.7986-10.1888-6.6499-15.3067l-.3186,15.3067-.4126,20.2224c-.4274,4.48-.7467,8.9755-1.5706,13.4323-.2105,1.2751-.988,3.3284-.988,3.8575,0,.7235,12.1256,12.5144,12.421,12.732,1.0421.8014,2.0533,1.8126,3.2042,2.6448,3.4687,2.4807,8.1825,4.9544,11.7838,5.5684,1.8667.3193,5.2499.506,5.779.506,6.9607,0,12.654-2.0224,19.9495-7.3579-3.0175-2.8624-5.7165-5.5537-8.6484-8.1432-16.0456-14.2021-27.0049-28.7389-34.5411-43.4624h-.0083Z" style="fill: #1d1d1b;"/>
        <path d="M492.0961,244.5067l18.6744,21.4512,12.273-14.4119-21.2485-17.1733-9.6989,10.1341Z" style="fill: #1d1d1b;"/>
      </g>
      <g>
        <path d="M343.5771,334.0043c-4.1067,4.9627-9.652,10.9123-14.8014,14.2414-8.7263,5.6547-11.581,6.4947-19.2653,6.4947-8.353,0-14.8477-2.287-24.2197-9.4968,15.4309-13.9298,33.3586-30.9481,41.4085-46.2856l-9.5741-5.7403-7.3811-4.4253c-1.2449,1.5242-2.5045,2.9867-3.7726,4.4098h-.0077c-11.2,12.4835-23.0842,20.5571-35.1867,20.5571-6.3776,0-17.6632-1.6645-22.6253-7.5838,4.3783-4.301,8.96-8.5867,13.6106-12.9579h.0084c8.2983-7.7853,16.8077-15.8119,24.7951-24.6007l-12.5067-14.8323c-8.812,5.273-22.073,13.8758-31.4611,13.8758-5.6,0-17.7025-8.5481-20.2611-14.6772,2.4267-.2639,5.1179-.233,7.3032-1.1895,4.2393-1.8982,7.7698-5.3277,11.5115-7.9649,6.1362-4.3242,12.1642-8.8042,18.3088-13.2218l-4.9389-9.9011c-7.8632,4.845-15.2288,9.3951-23.341,9.3951-9.4737,0-14.5059-4.5965-24.6477-15.0807,4.1684-.7389,8.8976-1.0814,13.2997-2.4968,3.1733-1.0112,6.4793-2.1621,9.5979-3.4147,4.8842-1.9754,17.2203-7.5285,17.2203-8.4618,0-.5368-2.3417-7.1249-3.1733-10.5003,0,0,.1867-.1712-.3424-.1712-1.3614,0-8.7502,4.0526-17.5003,4.0526-10.7018,0-15.4077-5.4681-24.2119-19.5691,2.4267-.4899,4.6435-.5368,6.9923-.7467l6.3235-.5986c7.4042-1.4161,15.7888-3.7571,23.1853-6.7747-1.1902-5.9579-2.0379-12.6154-2.5663-18.8997-.195-.1867-.5445-.1558-2.6835-.1558-5.2582-.2176-14.6379-2.2947-16.8315-9.8933-.2955-1.0659-.5362-2.1544-.645-3.2203-.1094-1.0653-.56-3.0021-.56-3.5306,0-2.8779,7.5516-3.4147,8.4541-3.4147h5.7242l33.7172-5.32h1.5789v20.339c.0309,3.8653,1.5474,11.1845,2.0842,14.3109,2.0842,11.6589,5.3046,24.3059,10.1579,36.0421,4.2933,10.3523,10.5229,21.8793,18.3397,32.2077,9.8702,13.0203,25.3944,26.779,37.9011,33.748,3.7102,2.0533,7.4666,4.4253,11.2547,6.3853v48.2849c.2723,4.052.7235,7.0618,1.2365,10.4456.3193,2.139,1.447,6.2064,1.447,6.7355s-2.0302,2.473-2.9635,3.5853l.0078.0155Z" style="fill: #fff;"/>
        <path d="M340.3496,313.4439l-.4203-20.2224-.3186-15.3067c-1.7894,5.1256-3.9824,10.2281-6.6189,15.3067-7.6534,14.7621-19.0014,29.2912-34.8211,43.4701-3.1193,2.8-6.0358,5.7088-8.6259,8.3531,7.3579,5.0947,12.9347,7.1403,20.0589,7.1403,6.2456,0,11.7214-2.0456,18.3088-6.7979,2.8856-2.0765,7.7003-6.4632,10.2589-9.0302,1.7032-1.7032,4.7291-5.0863,4.7291-5.6232s-.9179-3.6555-1.2288-5.3509c-.8322-4.48-1.0344-7.0779-1.3305-11.939h.0083Z" style="fill: #1d1d1b;"/>
        <path d="M283.6963,215.1627c-10.1418,9.0997-20.8829,16.0302-31.1811,23.7608-6.8056,5.1256-13.9453,10.508-21.1706,15.0189-1.3382.8246-2.948.9179-4.527,1.1979,3.0336,3.8659,11.5965,9.7537,15.8898,9.7537,15.5011,0,43.2372-23.3179,53.4646-32.7523-5.0169-5.7088-9.1699-11.9621-12.4758-16.9712v-.0077Z" style="fill: #1d1d1b;"/>
        <path d="M262.7967,228.3819l19.4989-15.6491-3.92-7.3888-20.6189,13.5256,4.5193,9.5123h.5207Z" style="fill: #1d1d1b;"/>
        <path d="M241.3687,165.2042l21.0624-8.3614c-.6302-3.9123-1.2674-7.9565-1.5165-11.8688l-22.0659,2.061,2.5284,18.1691h-.0084Z" style="fill: #1d1d1b;"/>
        <path d="M249.9244,199.1499l20.6267-11.7993-2.8309-8.2443-21.0547,9.4421,3.2589,10.6014Z" style="fill: #1d1d1b;"/>
        <path d="M271.5469,189.9871c-19.4835,11.0526-39.7993,23.6056-59.2589,26.9579,6.8751,7.5214,12.0786,10.6014,18.7755,10.6014,13.0435,0,36.9677-19.7011,46.0912-24.3993l-5.6154-13.16h.0077Z" style="fill: #1d1d1b;"/>
        <path d="M266.9285,176.2131c0-.5362-.9102-3.4688-1.3691-5.0941-1.0112-3.6555-1.8358-7.7312-2.7459-11.6435-10.1263,4.6435-20.1986,8.1592-30.1775,11.5733-6.16,2.108-13.2611,4.3403-19.3979,4.8533-4.4568.3502-5.9811.2176-7.56.4898,6.9691,10.8267,11.7291,15.0891,19.9502,15.0891,5.5453,0,12.0477-2.1158,17.5389-4.3558,1.2758-.5053,2.5046-1.1741,3.6246-1.5706,5.5453-2.0302,20.1284-8.6414,20.1284-9.3333l.0084-.0084Z" style="fill: #1d1d1b;"/>
        <path d="M260.3649,125.1295l-32.8147,4.8842h-6.7979c-.5362,0-2.8463.179-3.3207.8947-.1403,1.1277.1867,2.6674.5446,4.0597,2.3018,9.0224,10.5698,9.5593,16.092,9.5593l26.2968-2.3803v-17.0176Z" style="fill: #1d1d1b;"/>
        <path d="M328.8233,260.515c-6.4014-3.6632-13.028-8.579-19.1102-14.1867-12.8723,15.5944-28.3425,31.9277-43.8512,46.8842h-.0155c-4.6435,4.4723-9.2786,8.8203-13.8597,12.981,3.4688,3.5467,14.1397,5.0168,18.993,5.0168,11.1067,0,21.6533-7.7312,31.3523-17.9824,8.7579-9.2555,16.8154-20.5565,23.9558-30.0765.6688-.9102,1.633-1.8976,2.5277-2.6288l.0077-.0077Z" style="fill: #1d1d1b;"/>
        <path d="M330.7756,291.5067c3.3677-6.9923,9.1467-19.5768,9.1467-23.52,0-.5368-.0386-.941-.2645-1.1046-2.7846-1.5551-5.7635-3.2589-8.6176-4.9776l-18.8688,24.0253,10.033,6.16,1.6723,1.0267.1635.101,4.5186,2.7768c.1558-.3109.7782-1.5789,1.3691-2.7845h.0077c.2414-.4976.513-1.0498.793-1.6253.0083-.0232.0238-.047.0315-.0702l.0155-.0077Z" style="fill: #1d1d1b;"/>
        <path d="M307.6907,244.5067l-9.6989-10.1341-21.0316,17.1733,12.0561,14.4119c6.1909-6.8365,13.5874-14.607,18.6744-21.4512Z" style="fill: #1d1d1b;"/>
      </g>
      <path d="M443.8428,293.2228v16.7846c-.1635,8.913-2.8393,18.0056-3.0568,18.8379-.6919,2.5663-1.8667,5.2807-2.6442,7.9018-4.0288,13.3389-19.7242,32.1923-34.2688,37.4737-1.2835.4589-3.3446,1.4464-3.8737,1.4464-2.9635,0-13.1831-6.4239-14.5754-7.3573-1.7109-1.1438-3.5312-2.6526-5.1333-4.0603-3.0954-2.753-6.8442-6.7664-9.1389-9.8386-8.913-11.8147-12.7165-23.8547-14.2646-35.9648-.3733-2.9629-.8863-6.5488-.9565-9.6597v-70.9565h87.9123v55.4008-.0077Z" style="fill: #fff;"/>
      <path d="M413.0267,293.2209c-1.8126,2.8232-4.527,5.1488-8.5088,6.1137-1.066.2639-2.9403.3418-3.4694.3263h-14.7776v-37.9558h13.2842c.5291-.0154,1.7502.0238,2.5825.1017,11.6357,1.252,14.2021,11.4877,14.2021,18.9853,0,3.5235-.7621,8.4624-3.3053,12.4288h-.0077ZM433.6141,276.1254c-.0155-.5368-.6997-4.7754-1.2288-6.8835-.4821-1.8976-1.2597-4.0442-2.1389-5.9965-4.5888-10.1656-16.2085-14.5755-23.8702-14.56h-37.6127v95.7832h17.5467v-31.7874h20.066c.5369.0154,4.7607-.4982,7.0779-1.2758.8561-.2645,2.9326-1.0267,4.1614-1.6337,7.1713-3.3439,12.0709-10.5306,14.1944-16.5586.4821-1.3768.8168-2.6835,1.0035-3.873.3579-2.2947.5677-3.3214.7074-5.3593.1558-2.3334.2028-4.8533.1011-7.8632l-.0077.0077Z" style="fill: #1d1d1b;"/>
    </g>
  </g>
</svg>