<?xml version="1.0" encoding="UTF-8"?>
<svg data-name="图层_1" xmlns="http://www.w3.org/2000/svg" version="1.1" viewBox="0 0 800 800">
  <!-- Created by @FCLOGO 2025-1-9 GMT+8 10:42:11 . https://fclogo.top/ -->
<!-- FOR PERSONAL USE ONLY NOT FOR COMMERCIAL USE -->
  <path d="M348.2194,774.301c-.786,0-1.3752-.2173-1.7682-.6519-.393-.4352-.5284-1.03-.406-1.7856l.2518-1.6478c.122-.755.4501-1.3504.9841-1.785.5339-.4352,1.1939-.6525,1.9799-.6525.7553,0,1.3293.1987,1.7223.5954.3927.3967.551.9381.4747,1.6248h-1.2358c.0304-.3589-.0553-.637-.2573-.8357-.2024-.1981-.4979-.2974-.8869-.2974-.4197,0-.763.1167-1.03.3489-.2673.2328-.4349.5631-.5035.9903l-.2632,1.659c-.0686.4352-.0056.7686.1887,1.0015.1946.2328.5017.3489.9214.3489.389,0,.7152-.0987.9785-.2974.2632-.1981.4365-.4805.5206-.8469h1.2358c-.1372.6867-.4672,1.2306-.9897,1.631-.5228.4005-1.1616.6004-1.9169.6004ZM352.7967,774.1868l.9956-6.2943h1.1902l-.1946,1.1902c.3359-.8698.9729-1.3044,1.9113-1.3044.6712,0,1.1691.208,1.4932.624.3244.416.4293.9859.3148,1.7105l-.0686.4234h-1.2703l.0571-.3204c.0689-.4501.0115-.7953-.1714-1.0356-.1832-.2403-.4771-.3607-.8813-.3607-.4045,0-.7401.1223-1.007.3663-.2673.2446-.4349.588-.5035,1.03l-.6296,3.9711h-1.2358ZM361.9058,774.301c-.7705,0-1.3463-.2229-1.7279-.6693s-.515-1.0356-.4005-1.7682l.2518-1.6478c.0838-.488.2573-.9152.5206-1.2815s.6007-.6507,1.0129-.8524c.4119-.2024.8732-.3036,1.3845-.3036.7705,0,1.3485.2235,1.7338.6693.3852.4464.5169,1.0356.3949,1.7682l-.1717,1.1213h-3.845l-.0916.5265c-.1527.9536.2173,1.4305,1.1098,1.4305.7171,0,1.175-.2477,1.3734-.7438h1.2247c-.1679.5339-.5035.9599-1.007,1.2759-.5038.3166-1.0912.475-1.7626.475ZM361.2306,770.2157l-.0456.2862,2.6548-.0118.0459-.2856c.0686-.4656.0133-.822-.1661-1.0704-.1791-.2477-.4861-.3719-.9211-.3719-.4427,0-.7953.126-1.0586.3775-.2632.2521-.4331.6109-.5094,1.076ZM368.3258,774.301c-.6333,0-1.1027-.2117-1.4078-.6351s-.3967-1.0008-.2744-1.7335l.2744-1.7738c.1145-.7326.393-1.3119.8357-1.7397.4424-.4272.98-.6407,1.6133-.6407.4653,0,.8298.1186,1.093.3545.2632.2365.3908.5575.3834.9617h.023l.1717-1.202h1.2358l-.9956,6.2943h-1.2247l.1946-1.2014h-.023c-.122.4116-.3511.7339-.6867.9667s-.7401.3489-1.2129.3489ZM368.9324,773.2257c.389,0,.7152-.1186.9782-.3551.2632-.2359.4293-.5718.4979-1.007l.2518-1.6478c.0686-.4272.0096-.7612-.1773-1.0015-.1872-.2403-.475-.3601-.8642-.3601-.3967,0-.7249.118-.9841.3545-.2595.2365-.4234.5724-.492,1.007l-.2518,1.6478c-.0686.4427-.0133.7804.1658,1.0133.1794.2328.4712.3489.8757.3489ZM376.3477,774.1868c-.5721,0-.9937-.1565-1.2644-.4694-.271-.3123-.3607-.7512-.2691-1.3156l.538-3.3874h-1.7394l.1714-1.1219h1.7397l.2747-1.7161h1.2358l-.2747,1.7161h2.472l-.1832,1.1219h-2.4605l-.5377,3.3874c-.0764.4421.099.6637.5262.6637h1.7167l-.1717,1.1213h-1.7738ZM382.5042,774.301c-.7705,0-1.3463-.2229-1.7279-.6693s-.515-1.0356-.4005-1.7682l.2518-1.6478c.0838-.488.2573-.9152.5206-1.2815s.6007-.6507,1.0129-.8524c.4119-.2024.8732-.3036,1.3845-.3036.7705,0,1.3485.2235,1.7338.6693.3852.4464.5169,1.0356.3949,1.7682l-.1717,1.1213h-3.845l-.0916.5265c-.1527.9536.2173,1.4305,1.1098,1.4305.7171,0,1.175-.2477,1.3734-.7438h1.2247c-.1679.5339-.5035.9599-1.007,1.2759-.5038.3166-1.0912.475-1.7626.475ZM381.829,770.2157l-.0456.2862,2.6548-.0118.0459-.2856c.0686-.4656.0133-.822-.1661-1.0704-.1791-.2477-.4861-.3719-.9211-.3719-.4427,0-.7953.126-1.0586.3775-.2632.2521-.4331.6109-.5094,1.076ZM388.9243,774.301c-.6333,0-1.1008-.2117-1.4019-.6351-.3014-.4234-.3949-1.0008-.2803-1.7335l.2744-1.7738c.1145-.7326.393-1.3119.8357-1.7397.4424-.4272.98-.6407,1.6133-.6407.4653,0,.8298.1186,1.093.3545.2632.2365.3908.5575.3834.9617h.023l.2058-1.4652.2977-1.7962h1.2358l-1.3274,8.3537h-1.2247l.1946-1.2014h-.023c-.122.4116-.3511.7339-.6867.9667s-.7401.3489-1.2129.3489ZM389.5309,773.2257c.389,0,.7152-.1186.9782-.3551.2632-.2359.4293-.5718.4979-1.007l.2518-1.6478c.0761-.4272.0189-.7612-.1717-1.0015-.1909-.2403-.4805-.3601-.8698-.3601-.3967,0-.7249.118-.9841.3545-.2595.2365-.4234.5724-.492,1.007l-.2518,1.6478c-.0764.4427-.023.7804.1602,1.0133s.4768.3489.8813.3489ZM401.0175,774.301c-.4731,0-.8394-.1161-1.0986-.3489-.2595-.2328-.3852-.5551-.3775-.9667h-.0115l-.1946,1.2014h-1.2243l1.3274-8.3537h1.2358l-.2862,1.7962-.2744,1.4652h.0456c.122-.4123.353-.7345.6923-.9673.3396-.2322.7419-.3489,1.2076-.3489.633,0,1.1002.2136,1.4016.6407.3014.4278.3949,1.007.2806,1.7397l-.2747,1.7738c-.1145.7326-.3949,1.31-.8413,1.7335-.4461.4234-.9822.6351-1.6077.6351ZM400.7657,773.2257c.3967,0,.7227-.1161.9785-.3489.2555-.2328.4216-.5706.4976-1.0133l.2518-1.6478c.0689-.4346.0115-.7705-.1714-1.007-.1832-.2365-.4734-.3545-.8698-.3545-.3893,0-.7152.1198-.9785.3601s-.429.5743-.4979,1.0015l-.2518,1.6478c-.0686.4352-.0112.7711.1717,1.007.1832.2365.4731.3551.8698.3551ZM405.4694,776.2468l.1717-1.0642h1.934c.6407,0,1.007-.3017,1.0986-.9046l.1028-.6749.2061-1.1902h-.0345c-.122.4197-.3471.7438-.6752.9729-.3281.2285-.7286.3433-1.2014.3433-.6258,0-1.093-.2005-1.4019-.601s-.4104-.9443-.3033-1.631l.5836-3.6047h1.2358l-.5606,3.4793c-.0612.4116,0,.732.1832.9611s.4653.3433.8469.3433c.389,0,.7168-.1217.9841-.3663.267-.244.4309-.5836.492-1.0182l.538-3.3992h1.2358l-1.007,6.4086c-.0993.6029-.37,1.0778-.8124,1.4249-.4427.3471-.9996.5209-1.6707.5209h-1.9455ZM417.787,770.0853h3.221l.5368-1.8545h-5.4659l-1.7081,6.4419h2.1473l.5856-2.0985h3.0257l.4392-1.7081h-3.0257l.244-.7808ZM424.229,772.9158c-.5856,0-1.0249-.3904-1.0249-1.1225,0-.8784.6344-1.7569,1.6105-1.7569.488,0,.8784.244,1.0248.7808l1.9521-.8296c-.2928-1.1713-1.2689-1.9033-2.6353-1.9033-2.7817,0-4.1482,2.1473-4.1482,3.9042s1.2689,2.8305,3.0746,2.8305c1.3665,0,2.3425-.5856,2.9769-1.4153l-1.5129-1.1713c-.3904.4392-.8296.6832-1.3177.6832ZM430.9149,768.2308h-2.1473l-1.7569,6.4419h5.1242l.488-1.8545h-2.9281l1.2201-4.5874ZM439.7481,771.0125c0-1.6593-1.3177-2.9281-3.221-2.9281-2.1961,0-3.8066,1.8057-3.8066,3.8066,0,1.6593,1.3177,2.9281,3.221,2.9281,2.1961,0,3.8066-1.8057,3.8066-3.8066ZM434.9167,771.6957c0-.8296.5856-1.7081,1.5129-1.7081.7808,0,1.1713.5368,1.1713,1.2201,0,.8296-.5856,1.7081-1.5129,1.7081-.7808,0-1.1713-.5368-1.1713-1.2201ZM443.2131,772.2326h1.0737l-.1952.6832c-.1464.0488-.3416.0976-.5856.0976-.6832,0-1.2689-.3904-1.2689-1.2201,0-1.0249.732-1.9033,1.9521-1.9033.5856,0,1.1225.244,1.5129.5856l1.3665-1.3665c-.4392-.5368-1.5129-1.0737-2.7329-1.0737-2.5865,0-4.2946,1.7569-4.2946,3.8554,0,2.0497,1.6105,2.8793,3.221,2.8793.9272,0,1.8545-.2928,2.4889-.6832l.9272-3.3186h-3.1234l-.3416,1.4641ZM450.7775,768.0844c-2.1961,0-3.8066,1.8057-3.8066,3.8066,0,1.6593,1.3177,2.9281,3.221,2.9281,2.1961,0,3.8066-1.8057,3.8066-3.8066,0-1.6593-1.3177-2.9281-3.221-2.9281ZM450.3382,772.9158c-.7808,0-1.1713-.5368-1.1713-1.2201,0-.8296.5856-1.7081,1.5129-1.7081.7808,0,1.1713.5368,1.1713,1.2201,0,.8296-.5856,1.7081-1.5129,1.7081ZM437.9424,767.4987c-.0488.2928.0976.488.4392.488s.5368-.1952.6344-.488c.0488-.244-.0976-.488-.4392-.488s-.5856.244-.6344.488ZM432.1349,765.4978c-.4392,0-.732.244-.7808.5856s.0976.5856.5368.5856.732-.244.7808-.5856c.0976-.3416-.0976-.5856-.5368-.5856ZM433.0134,767.3035c-.0976.5368.1464.8784.8296.8784.6344,0,1.0737-.3904,1.1713-.8784s-.1464-.8784-.8296-.8784c-.6832,0-1.0737.3904-1.1713.8784ZM439.6017,777.552l-2.4401-1.8057h-1.5129l4.2458,3.1722,1.6105-3.1722h-.976l-.9272,1.8057ZM425.8394,767.1571l-2.0009-1.4641,23.1323-2.7817-2.1473,4.2458h1.0248l2.6841-5.3195-26.9877,3.221,2.7817,2.0985h1.5129ZM338.7186,785.7853l.6088-3.8315h2.32l-.084.5194h-1.7636l-.1837,1.1445h1.6272l-.084.5248h-1.6166l-.2573,1.6428h-.5668ZM342.97,785.8377c-.3568,0-.6228-.1005-.7978-.3019-.175-.201-.2345-.473-.1784-.8161l.2677-1.7006c.056-.3429.2029-.6148.4408-.8161.2379-.201.5355-.3019.8923-.3019s.6228.1.7979.2993c.1748.1993.2361.4707.1837.8136l-.2677,1.7057c-.0561.3431-.2039.6151-.4435.8161-.2398.2013-.5381.3019-.895.3019ZM343.0487,785.3339c.1925,0,.3483-.0524.4672-.1575.119-.1051.1942-.2571.2257-.4568l.2678-1.7006c.0315-.1993.0051-.3517-.0787-.4565-.084-.1051-.2223-.1575-.4148-.1575s-.3473.0524-.4645.1575c-.1173.1048-.1916.2571-.2231.4565l-.2677,1.7006c-.0315.1996-.0053.3517.0787.4568s.2204.1575.4094.1575ZM344.9961,785.7853l.6088-3.8315h1.202c.2379,0,.4391.0464.6036.139.1645.0928.2835.223.357.391s.091.3656.0524.5932c-.0384.2591-.14.4838-.3044.6746-.1645.1905-.3656.3209-.6036.391l.5354,1.6428h-.6194l-.4777-1.5748h-.5406l-.2466,1.5748h-.5668ZM345.8883,783.7068h.6352c.1889,0,.349-.0558.4803-.168.1313-.1119.2107-.2623.2388-.4514.0316-.1925,0-.3454-.0944-.4593-.0945-.1136-.2362-.1706-.4252-.1706h-.6352l-.1995,1.2493ZM349.545,785.7853l.6088-3.8315h1.2544c.3709,0,.6508.1048.8399.315.1889.2099.2553.4898.1993.8398-.0384.2344-.1216.4383-.2493.6114s-.2905.307-.4881.4015c-.1978.0945-.419.1418-.6639.1418h-.6928l-.2415,1.5221h-.5668ZM350.432,783.754h.6928c.1924,0,.3568-.0587.4934-.176.1364-.117.2204-.2737.2519-.4696s-.0017-.3525-.0997-.4699-.245-.1757-.441-.1757h-.6876l-.2099,1.2911ZM352.7466,785.7853l.6088-3.8315h2.2518l-.0787.5038h-1.6954l-.1731,1.0867h1.5115l-.0787.4986h-1.5115l-.1942,1.2387h1.6901l-.0787.5038h-2.2518ZM355.8434,785.7853l.6088-3.8315h1.202c.2379,0,.4391.0464.6036.139.1645.0928.2835.223.357.391s.091.3656.0524.5932c-.0384.2591-.14.4838-.3044.6746-.1645.1905-.3656.3209-.6036.391l.5354,1.6428h-.6194l-.4777-1.5748h-.5406l-.2466,1.5748h-.5668ZM356.7356,783.7068h.6352c.1889,0,.349-.0558.4803-.168.1313-.1119.2107-.2623.2388-.4514.0316-.1925,0-.3454-.0944-.4593-.0945-.1136-.2362-.1706-.4252-.1706h-.6352l-.1995,1.2493ZM360.1316,785.8377c-.385,0-.6736-.0951-.8661-.2859-.1924-.1908-.2641-.4505-.2151-.7794h.5668c-.028.1748.0105.3121.1155.4121.1051.0997.266.1495.483.1495.2029,0,.3701-.049.5012-.1469.1313-.098.2109-.2327.2389-.4044.0209-.1504.0007-.2788-.0604-.3856-.0614-.1068-.1583-.1811-.2913-.2233l-.4566-.1364c-.266-.0803-.4619-.217-.5879-.4095-.126-.1922-.1697-.4197-.1313-.6823.035-.2099.1121-.3935.2309-.551s.2729-.2799.4619-.3673.4024-.1313.6404-.1313c.3498,0,.6158.0954.7978.2859.182.1908.2485.4437.1995.7586h-.5668c.0279-.168-.0027-.3001-.092-.3964-.0891-.0963-.2301-.1444-.4225-.1444-.1889,0-.343.0447-.4619.1338-.119.0894-.1889.2144-.21.3753-.0245.1506-.007.2791.0525.3859s.1575.1811.2939.223l.4672.1469c.2624.0806.4558.2173.5801.4095.1242.1925.1653.4217.1233.6877-.035.217-.1155.4058-.2415.5667-.1259.1612-.2878.2862-.4855.3753-.1976.0894-.419.1338-.6639.1338ZM363.2651,785.8377c-.3568,0-.6228-.1005-.7978-.3019-.175-.201-.2345-.473-.1784-.8161l.2677-1.7006c.056-.3429.2029-.6148.4408-.8161.2379-.201.5355-.3019.8923-.3019s.6228.1.7979.2993c.1748.1993.2361.4707.1837.8136l-.2677,1.7057c-.0561.3431-.2039.6151-.4435.8161-.2398.2013-.5381.3019-.895.3019ZM363.3439,785.3339c.1925,0,.3483-.0524.4672-.1575.119-.1051.1942-.2571.2257-.4568l.2678-1.7006c.0315-.1993.0051-.3517-.0787-.4565-.084-.1051-.2223-.1575-.4148-.1575s-.3473.0524-.4645.1575c-.1173.1048-.1916.2571-.2231.4565l-.2677,1.7006c-.0315.1996-.0053.3517.0787.4568s.2204.1575.4094.1575ZM365.2754,785.7853l.6088-3.8315h.7086l.6194,3.186c.007-.098.0165-.217.0289-.3571.0121-.1398.0271-.2851.0446-.4354.0175-.1506.0367-.2888.0577-.4146l.315-1.9788h.525l-.609,3.8315h-.7085l-.6141-3.186c-.0071.0945-.0167.209-.0289.3437s-.0272.2757-.0446.4226c-.0177.1469-.0367.2833-.0578.4095l-.315,2.0102h-.5301ZM368.2252,785.7853l1.5851-3.8315h.7454l.3726,3.8315h-.5616l-.0735-.9711h-1.0865l-.3884.9711h-.5932ZM369.3852,784.3418h.8714l-.0893-1.1023c-.0175-.1959-.0298-.3654-.0367-.5089-.0071-.1435-.0105-.2432-.0105-.2993-.0175.0561-.0517.1558-.1024.2993s-.1146.3112-.1915.5038l-.441,1.1075ZM371.7208,785.7853l.6088-3.8315h.567l-.525,3.3118h1.6744l-.0787.5197h-2.2465ZM376.6785,785.8377c-.3673,0-.6342-.1005-.8003-.3019-.1663-.201-.2214-.475-.1654-.8213l.4357-2.7608h.567l-.4357,2.7554c-.0315.1962-.008.35.0708.4619.0787.1122.2144.168.4068.168.1925,0,.3473-.0558.4646-.168.1172-.1119.1915-.2657.2231-.4619l.4355-2.7554h.567l-.4357,2.7608c-.056.35-.2003.6245-.433.8241-.2328.1993-.5328.299-.9003.299ZM379.8435,785.8377c-.385,0-.6736-.0951-.8661-.2859-.1924-.1908-.2641-.4505-.2151-.7794h.5668c-.028.1748.0105.3121.1155.4121.1051.0997.266.1495.483.1495.2029,0,.3701-.049.5012-.1469.1313-.098.2109-.2327.2389-.4044.0209-.1504.0007-.2788-.0604-.3856-.0614-.1068-.1583-.1811-.2913-.2233l-.4566-.1364c-.266-.0803-.4619-.217-.5879-.4095-.126-.1922-.1697-.4197-.1313-.6823.035-.2099.1121-.3935.2309-.551s.2729-.2799.4619-.3673.4024-.1313.6404-.1313c.3498,0,.6158.0954.7978.2859.182.1908.2485.4437.1995.7586h-.5668c.0279-.168-.0027-.3001-.092-.3964-.0891-.0963-.2301-.1444-.4225-.1444-.1889,0-.343.0447-.4619.1338-.119.0894-.1889.2144-.21.3753-.0245.1506-.007.2791.0525.3859s.1575.1811.2939.223l.4672.1469c.2624.0806.4558.2173.5801.4095.1242.1925.1653.4217.1233.6877-.035.217-.1155.4058-.2415.5667-.1259.1612-.2878.2862-.4855.3753-.1976.0894-.419.1338-.6639.1338ZM381.9062,785.7853l.6088-3.8315h2.2518l-.0787.5038h-1.6954l-.1731,1.0867h1.5115l-.0787.4986h-1.5115l-.1942,1.2387h1.6901l-.0787.5038h-2.2518ZM386.9426,785.8377c-.3568,0-.6228-.1005-.7978-.3019-.175-.201-.2345-.473-.1784-.8161l.2677-1.7006c.056-.3429.2029-.6148.4408-.8161.2379-.201.5355-.3019.8923-.3019s.6228.1.7979.2993c.1748.1993.2361.4707.1837.8136l-.2677,1.7057c-.0561.3431-.2039.6151-.4435.8161-.2398.2013-.5381.3019-.895.3019ZM387.0213,785.3339c.1925,0,.3483-.0524.4672-.1575.119-.1051.1942-.2571.2257-.4568l.2678-1.7006c.0315-.1993.0051-.3517-.0787-.4565-.084-.1051-.2223-.1575-.4148-.1575s-.3473.0524-.4645.1575c-.1173.1048-.1916.2571-.2231.4565l-.2677,1.7006c-.0315.1996-.0053.3517.0787.4568s.2204.1575.4094.1575ZM388.9529,785.7853l.6088-3.8315h.7086l.6194,3.186c.007-.098.0165-.217.0289-.3571.0121-.1398.0271-.2851.0446-.4354.0175-.1506.0367-.2888.0577-.4146l.315-1.9788h.525l-.609,3.8315h-.7085l-.6141-3.186c-.0071.0945-.0167.209-.0289.3437s-.0272.2757-.0446.4226c-.0177.1469-.0367.2833-.0578.4095l-.315,2.0102h-.5301ZM392.249,785.7853l.6088-3.8315h.567l-.525,3.3118h1.6744l-.0787.5197h-2.2465ZM396.1174,785.7853l.2204-1.4119-.7506-2.4197h.5774l.4462,1.4486c.0279.0945.0498.1837.0656.2677.0157.084.0253.1469.0288.1888.0175-.0419.0464-.1048.0867-.1888.0402-.084.0883-.1731.1442-.2677l.8976-1.4486h.5984l-1.5275,2.4197-.2204,1.4119h-.5668ZM399.217,785.7853l.6088-3.8315h.7086l.6192,3.186c.0071-.098.0165-.217.029-.3571.012-.1398.0271-.2851.0444-.4354.0177-.1506.037-.2888.0578-.4146l.315-1.9788h.5248l-.6088,3.8315h-.7085l-.6141-3.186c-.0071.0945-.0167.209-.0289.3437s-.0272.2757-.0446.4226c-.0177.1469-.0367.2833-.0578.4095l-.315,2.0102h-.5301ZM403.5053,785.8377c-.3571,0-.6231-.1005-.7979-.3019-.1751-.201-.2344-.473-.1785-.8161l.2677-1.7006c.0561-.3429.203-.6148.4411-.8161.2378-.201.5354-.3019.8922-.3019.3571,0,.6228.1.7979.2993.1748.1993.2361.4707.1837.8136l-.2677,1.7057c-.0561.3431-.2039.6151-.4437.8161-.2395.2013-.5379.3019-.8947.3019ZM403.5839,785.3339c.1925,0,.3483-.0524.4673-.1575.1187-.1051.1942-.2571.2255-.4568l.2677-1.7006c.0316-.1993.0054-.3517-.0786-.4565-.084-.1051-.2224-.1575-.4146-.1575-.1925,0-.3474.0524-.4647.1575-.117.1048-.1914.2571-.223.4565l-.2677,1.7006c-.0316.1996-.0051.3517.0789.4568.0837.1051.2204.1575.4092.1575ZM406.3814,785.7853l.5248-3.3121h-1.0234l.084-.5194h2.6193l-.084.5194h-1.0289l-.5248,3.3121h-.567ZM409.5178,785.7853l.6088-3.8315h2.32l-.084.5194h-1.7636l-.1837,1.1445h1.6272l-.084.5248h-1.6166l-.2571,1.6428h-.567ZM413.7694,785.8377c-.3571,0-.6231-.1005-.7979-.3019-.1751-.201-.2344-.473-.1785-.8161l.2677-1.7006c.0561-.3429.203-.6148.4411-.8161.2378-.201.5354-.3019.8922-.3019.3571,0,.6228.1.7979.2993.1748.1993.2361.4707.1837.8136l-.2677,1.7057c-.0561.3431-.2039.6151-.4437.8161-.2395.2013-.5379.3019-.8947.3019ZM413.848,785.3339c.1925,0,.3483-.0524.4673-.1575.1187-.1051.1942-.2571.2255-.4568l.2677-1.7006c.0316-.1993.0054-.3517-.0786-.4565-.084-.1051-.2224-.1575-.4146-.1575-.1925,0-.3474.0524-.4647.1575-.117.1048-.1914.2571-.223.4565l-.2677,1.7006c-.0316.1996-.0051.3517.0789.4568.0837.1051.2204.1575.4092.1575ZM415.7952,785.7853l.6088-3.8315h1.202c.2381,0,.4391.0464.6037.139.1643.0928.2833.223.3568.391s.0911.3656.0527.5932c-.0387.2591-.1401.4838-.3044.6746-.1646.1905-.3659.3209-.6037.391l.5354,1.6428h-.6194l-.4776-1.5748h-.5408l-.2466,1.5748h-.567ZM416.6876,783.7068h.635c.1891,0,.3491-.0558.4804-.168.131-.1119.2107-.2623.2386-.4514.0316-.1925,0-.3454-.0945-.4593-.0943-.1136-.2361-.1706-.4252-.1706h-.635l-.1993,1.2493ZM420.905,785.8377c-.3602,0-.6308-.1005-.8107-.3019-.1803-.201-.2423-.473-.1865-.8161l.2677-1.7006c.0561-.3463.2056-.6194.4488-.8187s.545-.2993.9056-.2993c.3568,0,.6253.1008.8056.3019.1803.2013.2423.4733.1865.8161h-.567c.0313-.1993.0026-.3517-.0866-.4565-.0894-.1051-.2284-.1575-.4175-.1575-.1925,0-.3508.0524-.475.1575-.1242.1048-.2019.2554-.2335.4514l-.2677,1.7057c-.0316.1996-.0026.3517.0866.4568.0894.1051.2301.1575.4226.1575s.35-.0524.4724-.1575.1993-.2571.2309-.4568h.5667c-.0347.2275-.1145.4252-.2386.5932s-.2808.2976-.4699.3884c-.1888.0908-.4024.1364-.6404.1364ZM424.0335,785.8377c-.3571,0-.6231-.1005-.7979-.3019-.1751-.201-.2344-.473-.1785-.8161l.2677-1.7006c.0561-.3429.203-.6148.4411-.8161.2378-.201.5354-.3019.8922-.3019.3571,0,.6228.1.7979.2993.1748.1993.2361.4707.1837.8136l-.2677,1.7057c-.0561.3431-.2039.6151-.4437.8161-.2395.2013-.5379.3019-.8947.3019ZM424.1121,785.3339c.1925,0,.3483-.0524.4673-.1575.1187-.1051.1942-.2571.2255-.4568l.2677-1.7006c.0316-.1993.0054-.3517-.0786-.4565-.084-.1051-.2224-.1575-.4146-.1575-.1925,0-.3474.0524-.4647.1575-.117.1048-.1914.2571-.223.4565l-.2677,1.7006c-.0316.1996-.0051.3517.0789.4568.0837.1051.2204.1575.4092.1575ZM425.9653,785.7853l.6088-3.8315h.6874l.1837,1.2282c.0211.119.0367.2301.0473.3332.0105.1034.0194.1828.0262.2389.0177-.0561.0473-.1364.0894-.2415.0419-.1051.0908-.217.1469-.336l.5667-1.2228h.7088l-.6088,3.8315h-.5354l.2045-1.2911c.0245-.168.0578-.3525.1-.5539.0419-.201.0874-.4041.1364-.6088s.0963-.3998.1418-.5852c.0453-.1854.0874-.3483.1259-.4881l-.8554,1.8632h-.5513l-.2833-1.8632c-.0037.1364-.0105.2947-.0211.475s-.0236.3719-.0393.5747c-.0157.203-.035.4069-.0578.6114-.0228.2047-.0481.3964-.076.5749l-.2047,1.2911h-.5405ZM429.1145,785.7853l.6088-3.8315h.6874l.1837,1.2282c.0211.119.0367.2301.0473.3332.0105.1034.0194.1828.0262.2389.0177-.0561.0473-.1364.0894-.2415.0419-.1051.0908-.217.1469-.336l.5667-1.2228h.7088l-.6088,3.8315h-.5354l.2045-1.2911c.0245-.168.0578-.3525.1-.5539.0419-.201.0874-.4041.1364-.6088s.0963-.3998.1418-.5852c.0453-.1854.0874-.3483.1259-.4881l-.8554,1.8632h-.5513l-.2833-1.8632c-.0037.1364-.0105.2947-.0211.475s-.0236.3719-.0393.5747c-.0157.203-.035.4069-.0578.6114-.0228.2047-.0481.3964-.076.5749l-.2047,1.2911h-.5405ZM432.4107,785.7853l.6088-3.8315h2.2516l-.0786.5038h-1.6955l-.1731,1.0867h1.5115l-.0786.4986h-1.5118l-.1942,1.2387h1.6901l-.0786.5038h-2.2516ZM435.5073,785.7853l.6088-3.8315h1.202c.2381,0,.4391.0464.6037.139.1643.0928.2833.223.3568.391s.0911.3656.0527.5932c-.0387.2591-.1401.4838-.3044.6746-.1646.1905-.3659.3209-.6037.391l.5354,1.6428h-.6194l-.4776-1.5748h-.5408l-.2466,1.5748h-.567ZM436.3997,783.7068h.635c.1891,0,.3491-.0558.4804-.168.131-.1119.2107-.2623.2386-.4514.0316-.1925,0-.3454-.0945-.4593-.0943-.1136-.2361-.1706-.4252-.1706h-.635l-.1993,1.2493ZM439.8007,785.8377c-.3602,0-.6308-.1005-.8107-.3019-.1803-.201-.2423-.473-.1865-.8161l.2677-1.7006c.0561-.3463.2056-.6194.4488-.8187s.545-.2993.9056-.2993c.3568,0,.6253.1008.8056.3019.1803.2013.2423.4733.1865.8161h-.567c.0313-.1993.0026-.3517-.0866-.4565-.0894-.1051-.2284-.1575-.4175-.1575-.1925,0-.3508.0524-.475.1575-.1242.1048-.2019.2554-.2335.4514l-.2677,1.7057c-.0316.1996-.0026.3517.0866.4568.0894.1051.2301.1575.4226.1575s.35-.0524.4724-.1575.1993-.2571.2309-.4568h.5667c-.0347.2275-.1145.4252-.2386.5932s-.2808.2976-.4699.3884c-.1888.0908-.4024.1364-.6404.1364ZM441.8792,785.7853l.0789-.5038h.7768l.4459-2.824h-.7766l.0837-.5038h2.1258l-.084.5038h-.7766l-.4462,2.824h.7768l-.0789.5038h-2.1258ZM444.7399,785.7853l1.585-3.8315h.7452l.3728,3.8315h-.5616l-.0735-.9711h-1.0867l-.3884.9711h-.5929ZM445.8998,784.3418h.8714l-.0894-1.1023c-.0174-.1959-.0296-.3654-.0367-.5089-.0068-.1435-.0103-.2432-.0103-.2993-.0177.0561-.0518.1558-.1025.2993s-.1148.3112-.1916.5038l-.4408,1.1075ZM448.2354,785.7853l.6088-3.8315h.567l-.5248,3.3118h1.6741l-.0786.5197h-2.2465ZM453.1932,785.8377c-.3676,0-.6345-.1005-.8005-.3019-.1663-.201-.2213-.475-.1654-.8213l.4357-2.7608h.567l-.4357,2.7554c-.0316.1962-.008.35.0709.4619.0786.1122.2141.168.4066.168s.3474-.0558.4645-.168c.1173-.1119.1916-.2657.2233-.4619l.4357-2.7554h.5667l-.4357,2.7608c-.0558.35-.2002.6245-.4328.8241-.2329.1993-.5328.299-.9001.299ZM456.3581,785.8377c-.385,0-.6738-.0951-.866-.2859-.1925-.1908-.2643-.4505-.2153-.7794h.567c-.0282.1748.0105.3121.1153.4121.1051.0997.266.1495.483.1495.2028,0,.3699-.049.5012-.1469s.2107-.2327.2389-.4044c.0211-.1504.0009-.2788-.0604-.3856s-.1583-.1811-.2913-.2233l-.4568-.1364c-.266-.0803-.4619-.217-.5878-.4095-.1259-.1922-.1697-.4197-.1313-.6823.035-.2099.1119-.3935.2309-.551s.2731-.2799.4619-.3673c.1891-.0874.4024-.1313.6404-.1313.3497,0,.6157.0954.7979.2859.1817.1908.2483.4437.1993.7586h-.567c.0279-.168-.0026-.3001-.0917-.3964-.0894-.0963-.2301-.1444-.4226-.1444-.1891,0-.3429.0447-.4619.1338-.119.0894-.1891.2144-.2099.3753-.0245.1506-.0071.2791.0524.3859s.1575.1811.2939.223l.4673.1469c.2623.0806.4556.2173.5798.4095.1242.1925.1654.4217.1236.6877-.035.217-.1156.4058-.2415.5667-.1262.1612-.2879.2862-.4855.3753-.1979.0894-.4192.1338-.6641.1338ZM458.4209,785.7853l.6088-3.8315h2.2516l-.0786.5038h-1.6955l-.1731,1.0867h1.5115l-.0786.4986h-1.5118l-.1942,1.2387h1.6901l-.0786.5038h-2.2516Z" style="fill: #ccc;"/>
  <g>
    <path id="path236" d="M750,400c0,193.2981-156.7019,350-350,350S50,593.2981,50,400,206.7019,50,400,50s350,156.7019,350,350" style="fill: #ee2223;"/>
    <path id="path240" d="M744.5439,400c0,190.2846-154.2587,344.5433-344.5433,344.5433S55.4573,590.2846,55.4573,400,209.716,55.4567,400.0007,55.4567s344.5433,154.2587,344.5433,344.5433" style="fill: #fff;"/>
    <g id="g4744">
      <path id="path244" d="M400.0039,681.7038c155.3345,0,281.7005-126.3725,281.7005-281.7005,0-40.0698-8.4313-78.2084-23.5766-112.7502l-4.9966,2.184c14.8536,33.8743,23.1164,71.2676,23.1164,110.5662,0,152.321-123.9228,276.2438-276.2438,276.2438S123.7536,552.3242,123.7536,400.0032c0-39.2986,8.2628-76.6919,23.1165-110.5662l-4.9966-2.184c-15.1517,34.5418-23.5766,72.6804-23.5766,112.7502,0,155.328,126.3725,281.7005,281.707,281.7005" style="fill: #ee2223;"/>
      <path id="path248" d="M698.3234,269.6983c17.5042,39.9207,27.2446,83.9891,27.2446,130.2998,0,179.5203-146.0477,325.568-325.5615,325.568S74.432,579.5183,74.432,399.998c0-46.3107,9.7404-90.379,27.2446-130.2998l-4.9966-2.184c-17.7959,40.5947-27.7048,85.4019-27.7048,132.4837,0,182.5273,148.4974,331.0247,331.0312,331.0247s331.0182-148.4974,331.0182-331.0247c0-47.0819-9.9024-91.889-27.7048-132.4837l-4.9966,2.184h0Z" style="fill: #ee2223;"/>
    </g>
    <path id="path252" d="M662.7272,400c0,145.0951-117.6301,262.7252-262.7252,262.7252s-262.7252-117.6301-262.7252-262.7252S254.9004,137.2748,400.002,137.2748s262.7252,117.6237,262.7252,262.7252" style="fill: #ee2223;"/>
    <g id="g4715">
      <path id="path256" d="M152.0532,273.3307c-1.186-1.2508-2.4626-2.5469-3.8301-3.8819-1.3739-1.335-2.845-2.696-4.4133-4.0828l.5509-.9202c3.0653.9851,5.8715,1.0239,8.4184.1037,2.5534-.9138,4.6077-2.683,6.1696-5.3076,1.4128-2.3849,1.9053-4.6661,1.4711-6.8565-.4342-2.1904-1.7109-3.9143-3.843-5.1845-1.5424-.9138-3.1431-1.2443-4.8022-.9851-1.6526.2527-4.4911,1.5942-8.5091,4.018-6.1113,3.7069-10.706,5.7419-13.7843,6.1177-3.0718.3824-6.1696-.3565-9.2868-2.2099-4.2383-2.521-6.7787-6.0594-7.6212-10.6348-.849-4.5688.2009-9.3256,3.1366-14.2704,1.2832-2.1645,2.7413-4.005,4.3679-5.515,1.6331-1.5165,3.4931-2.7607,5.5928-3.7329,1.0952,1.2961,2.171,2.5145,3.2403,3.668,1.0628,1.1536,2.1062,2.2294,3.1237,3.2339l-.4407.7453c-2.508-.5314-4.8605-.3111-7.0639.6546-2.2034.9656-3.9597,2.5534-5.2817,4.7762-1.2184,2.0544-1.6396,4.0504-1.2572,5.9752.3759,1.9312,1.4906,3.4412,3.344,4.5365,1.5489.9267,3.1496,1.2378,4.8022.9527,1.6526-.2916,4.2707-1.5618,7.861-3.8041.8036-.4796,1.9248-1.1989,3.357-2.171,4.0569-2.6441,6.9149-4.1735,8.5674-4.5753,2.0414-.4861,4.0115-.5768,5.9103-.2657,1.9053.3176,3.8106,1.0369,5.7159,2.171,4.7179,2.7996,7.5629,6.6556,8.535,11.5485.9786,4.8994-.1231,10.0126-3.2922,15.3461-1.6655,2.8061-3.3764,5.0679-5.1456,6.7982-1.7627,1.7303-3.6292,2.9811-5.5928,3.7523" style="fill: #ee2223;"/>
      <path id="path260" d="M184.2938,229.2772c-2.9422-2.845-6.1048-5.7742-9.4941-8.7942-3.3829-3.02-7.1352-6.2409-11.2504-9.6691-1.4063-1.173-3.6162-2.9811-6.6362-5.4243-3.0135-2.4497-6.4158-5.1845-10.2135-8.2174l-1.0758,1.2961c-1.5942,1.9183-3.0653,3.7977-4.4133,5.6511-1.3415,1.8535-2.5599,3.668-3.6551,5.4502-.2009-.2009-.6092-.5962-1.2184-1.1925-.6092-.5962-1.1147-1.0563-1.51-1.3933-.4018-.337-1.0304-.7842-1.8794-1.3545-.337-.2463-.6092-.4342-.8036-.5638,2.9681-3.2533,5.5928-6.176,7.874-8.7748,2.2812-2.5922,4.4004-5.0743,6.3705-7.4398,1.9831-2.3784,4.0569-4.9318,6.2149-7.6666,2.1645-2.7348,4.5559-5.8326,7.1805-9.2997.3435.3564.7194.7453,1.1276,1.1471.4083.4148.823.7907,1.2443,1.1406.4407.3694.9073.7323,1.4063,1.0952s1.0434.7388,1.6331,1.1277c-1.5813,1.4257-3.1626,2.9682-4.7309,4.6142-1.5683,1.6461-3.1496,3.4218-4.7373,5.3336l-1.0304,1.2313c1.5035,1.4322,3.1626,2.9422,4.9771,4.5235,1.8211,1.5878,4.5624,3.9078,8.2304,6.9602,6.4806,5.3984,11.5485,9.5266,15.2101,12.378s6.9602,5.3077,9.9089,7.362c-.9462.9073-1.8211,1.7757-2.6182,2.6117-.7906.836-1.5229,1.6526-2.184,2.4432-.661.7971-1.3156,1.6396-1.9636,2.5339-.6481.8943-1.2961,1.86-1.9636,2.8904" style="fill: #ee2223;"/>
      <path id="path264" d="M199.778,209.7329c1.0239-1.16,1.8146-1.9831,2.3719-2.4756.3564-.3111.7582-.6221,1.2054-.9397.4407-.3176.9915-.6805,1.6461-1.1017-.6934-1.7951-1.4841-3.8041-2.3654-6.04-.8814-2.2293-2.2618-5.5993-4.1346-10.1098.7971-.7712,1.685-1.5942,2.6571-2.4821.9656-.8814,2.4367-2.184,4.4068-3.9143,1.9507-1.7044,3.4283-2.9811,4.4328-3.8236s1.9377-1.6137,2.8126-2.3007c3.9078,2.2942,6.9084,4.0634,8.9886,5.2946,2.0803,1.2378,4.0374,2.4108,5.865,3.5385.7388-.8036,1.5229-1.6007,2.3395-2.3914.823-.7907,1.7239-1.6267,2.7219-2.4951.998-.8749,1.9442-1.6655,2.8515-2.3849.9008-.7128,1.7822-1.3674,2.6311-1.9637-9.7274-4.6077-19.1179-9.2155-28.1519-13.8297-9.034-4.6207-17.7505-9.2284-26.1494-13.8426-.2916.3564-.6027.7064-.9462,1.0564-.3435.3499-.7064.6934-1.0823,1.0239-.3953.3435-.8101.6805-1.2313.998-.4212.324-.8749.6416-1.3674.9721,4.005,10.1098,7.6796,19.9409,11.0236,29.4869,3.344,9.546,6.4029,18.8911,9.1701,28.0417.0842-.0713.1814-.175.3046-.3176M193.0187,173.9791c-1.1082-3.1367-2.1127-6.2409-2.9941-9.2997,2.9293,1.3803,5.8585,2.845,8.7942,4.4068,2.9357,1.5683,5.865,3.2144,8.7878,4.9447-1.4841,1.4063-2.5858,2.4302-3.3051,3.0718-.7129.6481-1.3933,1.2508-2.0285,1.8081-1.1989,1.0434-2.9941,2.5534-5.3919,4.5105-.0842.0713-.1426.1167-.1814.1555-1.3415-3.2598-2.5663-6.4548-3.681-9.5978" style="fill: #ee2223;"/>
      <path id="path268" d="M243.1464,172.7414c1.5878-1.0174,2.8385-1.7952,3.7588-2.3201.9462-.5379,2.7737-1.5359,5.4826-2.9941s4.9253-2.683,6.6556-3.668c9.6691-5.515,15.7415-11.7688,18.1976-18.7485,2.4562-6.9861,1.2961-14.6722-3.4995-23.0711-2.2682-3.9791-5.0031-7.1805-8.2045-9.6043-3.2014-2.4238-6.6362-3.9143-10.3107-4.4717-2.9357-.4342-5.9687-.2074-9.1053.661-3.1301.8749-7.0574,2.6571-11.7818,5.353-1.7044.9721-4.1346,2.4238-7.2907,4.355-3.1625,1.9377-5.4891,3.3246-6.9796,4.18-.9915.5638-1.9442,1.0758-2.8645,1.5359-.9138.4536-1.847.8879-2.7996,1.3026,1.6266,2.2423,3.357,4.8151,5.191,7.7185,1.8275,2.9098,4.2319,6.9667,7.2129,12.1901l2.184,3.8236,3.5708,6.2603c2.6376,4.6336,4.6337,8.2822,5.9881,10.9588,1.3545,2.6765,2.4821,5.1197,3.3894,7.3167.2657-.1814.6675-.4407,1.2054-.7777M246.8533,155.8982c-1.4128-2.4173-3.4542-5.9687-6.1242-10.6477-2.5145-4.4068-4.7762-8.4313-6.7982-12.067-2.0155-3.6421-3.8689-7.051-5.5539-10.2265.4472-.2851,1.0563-.661,1.8275-1.1341,1.4711-.9008,2.4302-1.4776,2.8645-1.7239,6.5714-3.7523,12.1771-4.9253,16.8108-3.5254,4.6337,1.3998,8.9239,5.5539,12.8641,12.4623,3.9208,6.863,5.3012,12.9094,4.1606,18.1393-1.1406,5.2299-4.8021,9.6043-10.9847,13.1298-.7129.4083-1.497.8166-2.3589,1.2119-.8554.4018-1.7627.7777-2.7154,1.1406-1.2508-2.0868-2.5858-4.3355-3.9921-6.7593" style="fill: #ee2223;"/>
      <path id="path272" d="M296.871,144.5888c-.6221-2.8061-1.4646-5.9752-2.5339-9.5071s-2.9422-9.1831-5.6187-16.9599l-1.348-3.9014c-1.996-5.8132-3.6292-10.3366-4.8929-13.5704-1.2572-3.2339-2.4951-6.0983-3.7005-8.5998,2.4173-.7129,4.9059-1.4777,7.4592-2.3007,2.5534-.8165,5.2104-1.7044,7.9647-2.6505,2.7802-.9592,5.3141-1.8601,7.5953-2.709,2.2747-.8424,4.4198-1.6719,6.4158-2.482.162.9008.3046,1.6007.4277,2.0868.1231.4925.2592.9397.3953,1.3415.1361.4018.3046.8166.4925,1.2378.1944.4278.512,1.0564.9462,1.8924-3.8689,1.0369-7.2129,1.9636-10.0255,2.7736-2.8191.8102-5.2558,1.5554-7.3102,2.2358.2203.9591.4925,1.9766.8166,3.0394.3305,1.0628.8425,2.6247,1.5489,4.6791l1.2702,3.6875,1.8405,5.2104c1.5813-.6027,4.2772-1.6461,8.0878-3.1172,3.8041-1.4775,6.6815-2.5988,8.6257-3.357.1491.8359.2916,1.4906.4148,1.9766.1296.4859.2657.9591.4277,1.4192.2333.6869.6805,1.7044,1.3415,3.0459.0583.0973.0972.1685.1102.2204-4.7309,1.3091-8.3341,2.3266-10.7967,3.0524-2.4691.7323-4.6142,1.4128-6.4353,2.0414l3.182,9.2414c1.1276,3.2792,1.9442,5.5669,2.4497,6.8694.499,1.2962.9526,2.372,1.3609,3.2339,2.2941-.8684,4.8281-1.8859,7.5953-3.033,2.7672-1.1536,5.7743-2.4561,9.0405-3.8949.0907.5249.1944,1.0369.324,1.5424.1296.499.2851,1.011.4601,1.5294.1815.5249.4601,1.2054.8425,2.0414.3759.8295.5962,1.348.6675,1.5489-5.1521,1.5813-9.1053,2.8126-11.8596,3.6939-2.7543.8879-4.9771,1.6201-6.6621,2.1969-2.2877.7906-4.3031,1.5294-6.0594,2.2099-1.7498.6805-3.3699,1.3609-4.8605,2.0349" style="fill: #ee2223;"/>
      <path id="path276" d="M359.7397,126.8111c1.8729-.2073,3.3375-.3435,4.4004-.4083,1.0823-.0649,3.1626-.1491,6.2409-.2527,3.0718-.1101,5.6058-.2204,7.5888-.337,11.1143-.6546,19.3253-3.5644,24.6329-8.7359,5.2947-5.1651,7.6666-12.5725,7.0898-22.2221-.2657-4.5688-1.2961-8.6517-3.0913-12.2485-1.7887-3.5902-4.2124-6.4547-7.2583-8.5868-2.4367-1.685-5.2558-2.832-8.4508-3.4413-3.195-.6027-7.5046-.7451-12.9353-.4276-1.9636.1166-4.7827.337-8.4702.6675-3.6875.3305-6.3899.5508-8.1073.6481-1.1341.0711-2.2164.1039-3.2403.1101-1.024,0-2.0544-.0262-3.0913-.0776.4601,2.7348.8684,5.8067,1.2248,9.222.3499,3.4154.7064,8.1202,1.0628,14.1278l.2592,4.3874.4212,7.2c.3111,5.3206.4796,9.4812.5055,12.4817.0259,2.9941-.0454,5.6835-.2074,8.0555.3176-.0454.7906-.0973,1.4257-.162M370.53,113.3639c-.1944-2.7931-.4472-6.8825-.7647-12.2614-.2981-5.0678-.5379-9.6755-.7323-13.8296-.1944-4.1606-.3435-8.036-.4472-11.6328.5314-.0514,1.2443-.1232,2.1386-.2073,1.7238-.1491,2.832-.2397,3.3375-.2722,7.5499-.4471,13.0974.9916,16.6293,4.3032,3.532,3.3116,5.5345,8.9368,6.0011,16.8756.4666,7.887-.9721,13.9205-4.3161,18.1005-3.344,4.18-8.5674,6.4742-15.6702,6.8954-.823.0454-1.7044.0649-2.6506.0389-.9462-.0259-1.9247-.0842-2.9422-.1879-.2009-2.4173-.3953-5.029-.5833-7.8221" style="fill: #ee2223;"/>
      <path id="path280" d="M420.4555,125.3776c.6805-2.7932,1.3221-6.0075,1.9183-9.6497.6027-3.6421,1.4128-9.5395,2.4367-17.6987l.5185-4.0958c.7647-6.0982,1.2961-10.8745,1.5878-14.3351.2981-3.4608.4536-6.5779.4731-9.358,2.4886.4276,5.0549.8424,7.712,1.2312,2.6506.3889,5.4243.7648,8.3212,1.1341,2.9163.3629,5.5798.674,8.0036.9202,2.4173.2463,4.7049.4471,6.8565.6027-.2527.8815-.4342,1.5683-.5379,2.0609-.1102.4926-.188.9526-.2398,1.374-.0518.4212-.0842.8684-.1037,1.335-.0129.4666-.0066,1.1665.0195,2.1061-3.9337-.7712-7.3426-1.4127-10.2265-1.9312-2.8839-.5119-5.3984-.9202-7.5435-1.2183-.2268.9591-.4277,1.9895-.6027,3.0913-.1815,1.1018-.4018,2.7284-.674,4.8864l-.4925,3.8689-.6481,5.4891c1.685.1555,4.5689.4083,8.6387.7648,4.0699.3499,7.1417.6157,9.2219.7905-.2398.8166-.4018,1.4712-.499,1.9572-.1037.4926-.188.9786-.2463,1.4582-.0907.7258-.1361,1.834-.1426,3.331.0129.1103.0129.1945.0066.2463-4.8281-.9138-8.5091-1.5878-11.0365-2.022-2.5404-.4276-4.7633-.7646-6.6751-1.0045l-1.2249,9.7016c-.4277,3.4347-.7064,5.852-.8295,7.2389s-.188,2.5534-.2009,3.506c2.4367.2268,5.1586.4342,8.1527.6221,2.9876.1879,6.2668.3499,9.8247.4925-.1426.512-.2722,1.0239-.3824,1.5294-.1037.5055-.1944,1.0304-.2657,1.5813-.0649.5509-.1167,1.2831-.1426,2.1969s-.0583,1.4711-.0842,1.6785c-5.3206-.849-9.4164-1.4841-12.2743-1.9053s-5.178-.7453-6.9473-.9656c-2.3979-.3046-4.5365-.5314-6.4094-.6934s-3.6292-.2657-5.2623-.3176" style="fill: #ee2223;"/>
      <path id="path284" d="M487.2048,138.324c1.0628.3435,2.0673.6934,3.007,1.0628.9591.3824,1.9312.8101,2.9163,1.2767.9851.4731,1.9896.9915,3.02,1.5619.8425-2.7478,1.6785-5.3336,2.508-7.7444.836-2.4108,1.685-4.7115,2.5469-6.9148l4.0374-10.22c1.173,5.4502,2.2099,10.719,3.1172,15.8063.9073,5.0938,1.685,10.032,2.3201,14.8148,1.3156.3564,2.5404.7194,3.681,1.0823,1.1341.3694,2.2099.7518,3.2274,1.1536,1.0369.4083,2.0997.8749,3.195,1.3869,1.0952.512,2.2164,1.0823,3.3764,1.6979l-6.9407-32.2347c4.4457.6481,8.1267.2657,11.0624-1.1406,2.9292-1.3998,5.0743-3.8301,6.4418-7.2777,1.7303-4.3874,1.5165-8.2433-.6351-11.5744-2.1516-3.331-6.2927-6.2019-12.4234-8.6258-2.7283-1.0757-5.6058-2.158-8.6387-3.2338-3.0329-1.0694-4.6855-1.6656-4.9512-1.7693-.6157-.2462-1.2572-.5249-1.9247-.8554-.674-.3241-1.3415-.6804-2.009-1.0694-1.1017,3.7264-2.4043,7.7121-3.9014,11.9698-1.497,4.2513-3.2986,9.047-5.4178,14.3935-2.2358,5.6706-4.2319,10.4792-5.9752,14.4324s-3.4671,7.6212-5.1651,10.9976c1.2832.3435,2.4626.6869,3.5255,1.0239M510.5417,103.7238c.5833-1.4711,1.1925-2.9747,1.8405-4.4976s1.335-3.0394,2.0479-4.5559c.2009.0776.4731.175.8425.2917.3629.1166.6286.2073.8036.2721,3.5449,1.3998,5.8391,3.1755,6.8889,5.3271,1.0369,2.1515.9202,4.854-.3629,8.1008-1.5229,3.8689-3.5773,6.3186-6.1501,7.3555-2.5728,1.0304-5.9168.7323-10.0515-.9008l-.3111-.1231,4.4522-11.2698h0Z" style="fill: #ee2223;"/>
      <path id="path288" d="M528.9058,156.6007c1.7498-2.2812,3.6356-4.9642,5.6446-8.0555,2.0155-3.0913,5.1391-8.1656,9.3645-15.2166l2.1256-3.5384c3.1561-5.2752,5.5669-9.4358,7.2389-12.4817,1.6591-3.0459,3.0589-5.8391,4.1995-8.3665,2.0997,1.3934,4.2902,2.7997,6.5584,4.2319,2.2682,1.4257,4.6531,2.8839,7.1611,4.3874,2.521,1.51,4.841,2.871,6.9537,4.0699s4.1217,2.3071,6.0335,3.3181c-.5897.6999-1.0304,1.2572-1.3285,1.6655-.2916.4148-.5508.8036-.7712,1.1665s-.4277.7518-.6286,1.1795c-.2074.4148-.4861,1.0628-.8425,1.9312-3.2792-2.2876-6.1372-4.2513-8.5739-5.8844-2.4302-1.6331-4.5688-3.02-6.4158-4.1606-.5897.7907-1.186,1.6526-1.7951,2.5858-.6027.9332-1.4711,2.333-2.5858,4.1994l-2.0025,3.344-2.8061,4.7633c1.4776.823,4.005,2.2164,7.5953,4.18,3.5773,1.9637,6.2798,3.4412,8.1202,4.4457-.5444.6481-.9656,1.1795-1.2508,1.5878-.2916.4083-.5638.823-.8101,1.2378-.3759.6222-.8684,1.6201-1.4776,2.9876-.0324.1037-.0583.1814-.0908.2268-4.0439-2.7802-7.1482-4.88-9.2868-6.2992-2.1451-1.4193-4.0439-2.6247-5.703-3.6162l-5.029,8.3924c-1.7757,2.9682-3.007,5.0679-3.681,6.2862-.6675,1.2249-1.1989,2.2617-1.5942,3.1302,2.1451,1.1924,4.5429,2.4821,7.2065,3.856,2.6635,1.3739,5.5993,2.845,8.8007,4.4133-.3499.4083-.6675.823-.9721,1.2443-.2981.4148-.5897.8619-.8749,1.335-.2852.4796-.6286,1.1277-1.0239,1.9572-.3953.823-.6416,1.3285-.7518,1.5035-4.5235-2.9228-8.0101-5.1586-10.4598-6.6945-2.4497-1.5359-4.4392-2.7672-5.9751-3.6875-2.0738-1.2378-3.9337-2.3136-5.5863-3.2144-1.6461-.9008-3.2079-1.7044-4.6855-2.4108" style="fill: #ee2223;"/>
      <path id="path292" d="M563.6829,178.8863c2.4367-2.6312,4.9966-5.528,7.6536-8.6905,2.6635-3.1561,6.04-7.3555,10.1357-12.5919,3.9661-5.0743,7.2259-9.371,9.7858-12.8965,2.5663-3.5254,4.7762-6.7269,6.6492-9.6043.8101.8554,1.6461,1.6914,2.5145,2.4951.8684.8101,1.7757,1.5813,2.7154,2.3136.9397.7388,1.8988,1.4257,2.8839,2.0673.9851.6351,1.9766,1.2378,2.9811,1.8016-2.3849,2.5404-4.9772,5.4891-7.7833,8.8396s-6.1631,7.5305-10.0774,12.5401c-4.2513,5.4437-7.5888,9.8247-9.9932,13.1363s-4.5365,6.3964-6.3964,9.2414c-.9332-.9202-1.8275-1.7692-2.6895-2.5339-.8684-.7712-1.7044-1.4776-2.521-2.1127-.8555-.674-1.7627-1.3285-2.7154-1.9831-.9591-.6481-2.0025-1.3221-3.1431-2.0219" style="fill: #ee2223;"/>
      <path id="path296" d="M582.7949,191.8133c3.5708-2.2942,6.6297-4.2642,9.1831-5.9039s4.355-2.8256,5.4178-3.5579l32.0986-21.6713c.2657.4731.5638.9397.9008,1.3998.3435.4666.7323.9397,1.173,1.4387.4342.4925.8749.9397,1.3156,1.348.4407.4083.8879.7842,1.3415,1.1212-2.8969,6.4936-5.6511,13.0066-8.2693,19.5521-2.6117,6.5454-5.1262,13.1298-7.55,19.7595,6.6167-1.6072,13.3177-3.357,20.0965-5.2558,6.7852-1.8988,13.6482-3.9597,20.6019-6.1825.3046.5055.6351,1.011.998,1.5035s.7712.9915,1.2378,1.51c.4536.512.9138.9851,1.3674,1.4128.4602.4212.9138.8036,1.3739,1.1471l-25.8902,29.3379c-2.8839,3.2468-5.1067,5.8391-6.6751,7.7703-1.5748,1.9377-2.9292,3.7005-4.0763,5.2882-.7841-1.0758-1.5165-2.0608-2.2034-2.9617-.6869-.8943-1.3739-1.7303-2.0609-2.4951-.6869-.7712-1.4387-1.5553-2.2423-2.346-.8101-.7906-1.6655-1.5748-2.5728-2.3654.1231-.1426.3111-.3499.5768-.6157,4.0958-3.9856,6.6038-6.4871,7.5111-7.5046l17.5755-19.2021c-6.3769,1.6072-12.8771,3.3246-19.5132,5.1586-6.6297,1.834-13.5121,3.8106-20.6538,5.9168-.0778-.1814-.1814-.3629-.3046-.5508-.1296-.188-.3629-.4731-.6999-.8425-.2916-.337-.5249-.5768-.6869-.7129-.1685-.1361-.3305-.2592-.5055-.3565,2.845-6.7593,5.4956-13.2659,7.9582-19.5132,2.4626-6.2473,4.7438-12.2549,6.8371-18.0291l-13.8815,9.7728-.5249.3629c-7.2,5.1132-12.1512,8.8526-14.8342,11.218-.2916-.5573-.5962-1.0628-.9138-1.5294-.3111-.4666-.6286-.8814-.9462-1.2313-.3499-.3953-.7323-.7647-1.1406-1.1147-.4148-.3435-.8814-.6999-1.4193-1.0758" style="fill: #ee2223;"/>
      <path id="path300" d="M631.832,245.8528c1.672-.4212,3.4282-.9073,5.2558-1.4517,1.834-.5444,3.7393-1.16,5.7224-1.8535l.5314.9267c-2.3525,2.1904-3.7523,4.6272-4.1994,7.2972-.4536,2.6765.0907,5.3336,1.6266,7.9777,1.3869,2.3979,3.1367,3.9402,5.2623,4.6272,2.1191.6934,4.2513.4148,6.3964-.823,1.5554-.9008,2.6182-2.1386,3.208-3.7069.5833-1.5748.7971-4.7049.6416-9.3904-.2463-7.1417.2139-12.1512,1.3869-15.0156,1.173-2.8645,3.3311-5.2104,6.4677-7.0315,4.2642-2.4691,8.5998-2.9552,13.0002-1.4646,4.4004,1.497,8.0425,4.7308,10.9264,9.708,1.2572,2.1775,2.1516,4.3485,2.6765,6.5066s.7064,4.3939.5314,6.701c-1.6591.324-3.2533.6675-4.7827,1.0369s-2.9811.7518-4.3485,1.1536l-.4342-.7518c1.685-1.9312,2.6441-4.0893,2.8774-6.4871.2268-2.3914-.2981-4.7049-1.5942-6.9343-1.1989-2.0738-2.7348-3.4153-4.6012-4.0245-1.8664-.6092-3.7329-.3694-5.5928.7064-1.5554.9008-2.6182,2.1451-3.169,3.7329-.5574,1.5878-.7323,4.4911-.5184,8.7165.0259.9332.1101,2.2617.2527,3.9856.3305,4.8346.2657,8.0749-.1814,9.7145-.5703,2.022-1.4581,3.7782-2.6571,5.2882-1.2054,1.5035-2.7607,2.8191-4.679,3.9273-4.7503,2.7478-9.5006,3.357-14.2509,1.8146-4.7503-1.5359-8.684-4.9901-11.7883-10.3626-1.6331-2.8191-2.7737-5.4243-3.4218-7.8092-.6481-2.3784-.8295-4.6207-.5444-6.7139" style="fill: #ee2223;"/>
    </g>
    <g id="g4729">
      <path id="path376" d="M239.2282,350.0103c1.2313-3.5967,2.4238-7.4139,3.5903-11.4448,1.1665-4.031,2.2553-8.2628,3.2857-12.6696h2.7413c1.834,6.7852,5.4178,12.041,10.7514,15.7674,5.3271,3.7329,11.8985,5.5928,19.7076,5.5928,7.0639,0,12.715-1.6072,16.9663-4.8346,4.2448-3.2274,6.364-7.524,6.364-12.8965,0-3.8689-1.3609-7.2129-4.0828-10.0385-2.7219-2.8191-9.3516-6.6038-19.8956-11.3606-16.1303-7.2778-26.6289-13.551-31.4765-18.8198-4.8475-5.2688-7.2713-11.8531-7.2713-19.7465,0-10.6088,4.4846-19.2151,13.4603-25.8124,8.9757-6.5973,20.8353-9.896,35.5917-9.896,6.4547,0,12.4234.6805,17.8931,2.0349,5.4761,1.3545,10.6607,3.4282,15.5535,6.202-1.4322,3.4023-2.7348,6.7139-3.8949,9.9348-1.16,3.2274-2.184,6.3381-3.0718,9.3256h-2.2488c-2.1127-5.2299-5.6706-9.3386-10.6736-12.3327-5.0095-2.9876-10.8097-4.4846-17.407-4.4846-6.1307,0-11.0689,1.4128-14.8147,4.2383-3.7393,2.8191-5.6122,6.5454-5.6122,11.1726,0,3.8754,1.3933,7.1935,4.18,9.9478s8.9822,6.2085,18.5735,10.3561c2.1062,1.0239,5.1716,2.3136,9.1896,3.8754,11.1597,4.6207,18.2754,8.2628,21.3407,10.9134,3.7458,3.2662,6.5195,6.8306,8.3276,10.706,1.8016,3.8819,2.7024,8.2304,2.7024,13.0585,0,11.8985-4.7633,21.438-14.2833,28.6056-9.5201,7.1741-22.2351,10.7643-38.1515,10.7643-8.3665,0-15.6054-.6675-21.7296-1.9896-6.1177-1.3285-11.3217-3.3829-15.6054-6.1696" style="fill: #fff;"/>
      <path id="path380" d="M483.0436,357.6328c2.3136-.1491,4.4976-.2268,6.5519-.2268,2.0997,0,4.2708.0778,6.4936.2268,2.2293.1555,4.5429.3824,6.9473.6805-.3824-6.3834-.6675-12.4169-.8555-18.1004-.1944-5.6835-.2852-11.1532-.2852-16.4219v-24.5681c6.3899,10.3561,12.4234,20.44,18.1069,30.2581,5.6835,9.8182,10.9717,19.429,15.884,28.8324,2.7932-.2981,5.4373-.5249,7.9258-.6805,2.4951-.1491,4.867-.2268,7.1222-.2268,2.3201,0,4.7374.0778,7.2583.2268,2.5275.1555,5.1262.3824,7.7962.6805l-38.184-61.255c9.1377-2.3071,16.0007-6.1177,20.602-11.4383,4.6012-5.3206,6.8954-12.1253,6.8954-20.4011,0-10.5246-3.3505-18.3597-10.058-23.5053-6.7075-5.1391-16.8821-7.7184-30.5368-7.7184-6.0853,0-12.4688.1167-19.1438.3435-6.6815.2268-10.3431.3435-10.9912.3435-1.3609,0-2.8061-.0583-4.342-.175-1.5359-.1102-3.1042-.2852-4.6985-.512.6805,8.6387,1.1925,17.9903,1.5359,28.0482.337,10.0515.512,21.5028.512,34.3344,0,13.6094-.175,25.2356-.512,34.8723-.3435,9.6497-.8555,18.6642-1.5359,27.0632,2.696-.2981,5.1975-.5249,7.5111-.6805M501.0792,263.8191c0-3.8949.0259-7.874.0907-11.9374.0583-4.0569.2139-8.1332.4601-12.2225.5249,0,1.2184-.0324,2.0997-.1037.8814-.0583,1.5229-.0972,1.9118-.0972,8.8007,0,15.236,1.9831,19.3123,5.9492,4.0763,3.9597,6.1113,10.2265,6.1113,18.8003,0,10.2005-2.3266,17.6338-6.9926,22.3129-4.6596,4.679-12.1123,7.012-22.3517,7.012h-.6416v-29.7137h0Z" style="fill: #fff;"/>
      <path id="path384" d="M400,455.4542c-3.9532-19.254-12.4169-35.2547-23.4664-47.8012,8.6322-6.9473,16.5127-14.6333,23.4664-22.8572,6.9473,8.2239,14.8342,15.91,23.4664,22.8572-11.0495,12.5465-19.5132,28.5472-23.4664,47.8012M372.1592,307.2743c0-26.8623,12.4623-48.6372,27.8408-48.6372s27.8408,21.775,27.8408,48.6372c0,22.0407-10.5764,44.7877-27.8408,64.4111-17.2709-19.6234-27.8408-42.3704-27.8408-64.4111M599.3186,341.8161c-1.0823-1.2378-2.6571-3.0265-3.6356-2.9487-.3435.0195-.4925.2852-.4925.687,0,.4083.3629.9397.7193,1.3545,1.497,1.7627,2.9681,3.668,4.3161,5.8196,3.3505,5.3465,5.6835,11.892,5.6835,19.1827,0,13.9722-7.7833,27.128-22.274,38.8644-15.074,12.2031-37.4063,21.3602-66.1349,21.3602-27.2576,0-54.0032-8.2758-76.9771-21.5481,15.2749-11.7494,34.5029-19.8178,56.0705-19.8178,11.6003,0,23.4146,1.348,33.6345,6.1372,4.8475,2.2747,6.364,3.5255,7.9518,3.5255.4018,0,.6805-.2657.6805-.6286,0-1.3609-2.2812-3.6097-4.9966-5.6252-8.7878-6.513-25.0023-13.1816-40.9123-13.1816-20.913,0-43.2777,8.3406-61.106,24.2376-9.6367-6.3769-18.4633-13.6288-26.2077-21.4963,17.2839-22.8831,27.5427-49.1297,27.5427-74.3265,0-31.8847-14.8536-57.7296-33.1809-57.7296s-33.1809,25.8448-33.1809,57.7296c0,25.1967,10.2588,51.4433,27.5427,74.3265-7.7444,7.8675-16.571,15.1193-26.2077,21.4963-17.8282-15.897-40.1994-24.2376-61.106-24.2376-15.91,0-32.1245,6.6686-40.9123,13.1816-2.7154,2.0155-4.9966,4.2642-4.9966,5.6252,0,.3629.2787.6286.6805.6286,1.5878,0,3.1042-1.2508,7.9518-3.5255,10.22-4.7892,22.0342-6.1372,33.6345-6.1372,21.5611,0,40.7956,8.0684,56.0705,19.8178-22.9739,13.2723-49.7195,21.5481-76.9771,21.5481-28.7287,0-51.0675-9.1636-66.1349-21.3602-14.4972-11.7365-22.274-24.8922-22.274-38.8644,0-7.2907,2.333-13.8362,5.6835-19.1827,1.348-2.1581,2.8126-4.0569,4.3161-5.8196.3564-.4148.7193-.9462.7193-1.3609,0-.3953-.1491-.661-.4925-.6805-.9851-.0778-2.5534,1.7109-3.6356,2.9487-6.7399,7.7314-11.5874,20.4594-11.5874,33.641,0,39.7717,41.8131,68.4032,88.8626,68.4032,33.7123,0,65.4609-12.0086,91.3576-30.6988.7647.7582,1.5359,1.5165,2.2747,2.2941,17.0506,17.906,25.6828,36.3629,28.4111,55.4548,2.7283-19.092,11.3541-37.5488,28.4111-55.4548.7388-.7777,1.51-1.5359,2.2747-2.2941,25.8967,18.6902,57.6453,30.6988,91.3576,30.6988,47.0495,0,88.869-28.6315,88.869-68.4032,0-13.1816-4.854-25.9096-11.5939-33.641" style="fill: #fff;"/>
    </g>
    <g id="g4703">
      <path id="path304" d="M311.1446,701.3479c.7064.1361,1.2508.2527,1.6396.3564.3953.1037,1.1536.324,2.2747.6545,1.1147.3305,2.0414.5962,2.7737.7906,4.0828,1.0758,7.3879.9851,9.9089-.2527,2.521-1.2443,4.2513-3.6421,5.1845-7.2.4407-1.685.5508-3.2857.3305-4.7957-.2203-1.51-.7518-2.8256-1.6007-3.9597-.6805-.8943-1.5619-1.6396-2.6441-2.2358-1.0758-.5962-2.6182-1.16-4.6077-1.685-.7194-.1879-1.7627-.4407-3.1302-.7647-1.3674-.3176-2.3654-.5638-3.0005-.7323-.4148-.1102-.8101-.2203-1.1795-.337-.3694-.1167-.7388-.2463-1.1082-.3759-.1555,1.0369-.3759,2.1969-.6545,3.4736-.2722,1.2832-.7064,3.0265-1.2896,5.2428l-.4213,1.6202-.6999,2.6571c-.5185,1.9572-.9462,3.4736-1.2896,4.5624-.3435,1.0823-.6869,2.0414-1.0239,2.8774.1231.0259.2981.0583.5379.1037M316.5883,697.7835c.2592-1.0369.6545-2.5469,1.1795-4.53.4861-1.8664.9462-3.5708,1.3674-5.0938.4213-1.5294.823-2.9487,1.2119-4.2643.2009.0389.4666.1037.7971.1815.6351.1426,1.0499.2398,1.2313.2916,2.7737.7258,4.5948,1.8988,5.4761,3.5125.8814,1.6202.9332,3.8884.1685,6.8176-.7647,2.9098-2.0025,4.9253-3.7004,6.0464-1.6914,1.1212-3.8495,1.335-6.4547.6481-.2981-.0778-.6157-.175-.9527-.2981-.337-.1166-.6869-.2592-1.0369-.4148.2139-.9008.4536-1.8664.7129-2.8968" style="fill: #ee2223;"/>
      <path id="path308" d="M334.8281,707.2751c.324-1.0499.6481-2.2553.9656-3.6292.3176-1.3739.7777-3.6032,1.3739-6.6815l.2916-1.5294c.4407-2.2877.7582-4.0828.9591-5.3854.2009-1.3026.337-2.4821.4148-3.5319.9332.2203,1.8924.4407,2.8904.6481.998.2139,2.0349.4212,3.1237.6286,1.0952.2139,2.0997.4018,3.007.5573s1.7692.2916,2.5793.4083c-.1101.324-.188.5833-.2398.7647-.0518.1815-.0907.3564-.1231.512-.0259.1555-.0518.324-.0713.499s-.039.4342-.0583.7906c-1.4776-.3953-2.7607-.7193-3.8495-.9915-1.0887-.2657-2.0349-.4796-2.845-.6481-.1102.3564-.2139.7453-.3111,1.16-.0908.4148-.2203,1.0304-.3759,1.8405l-.2787,1.4517-.3824,2.0608c.6416.1037,1.7368.2787,3.2792.5184,1.5424.2463,2.7089.4342,3.4995.5573-.1101.2916-.1879.5314-.2398.7064-.0454.1815-.0908.3629-.1231.5379-.0518.2657-.0972.674-.1296,1.2313v.0908c-1.8275-.4666-3.2144-.8101-4.1735-1.0369-.9591-.2203-1.8016-.4083-2.5275-.5444l-.6999,3.6356c-.2527,1.3091-.4212,2.2229-.499,2.7478-.0842.5249-.1361.9721-.1685,1.335.9267.1491,1.9572.2916,3.0978.4342,1.1341.1426,2.3784.2851,3.7329.4212-.0649.1944-.1231.3888-.175.5833-.0518.1944-.0972.3953-.1361.6027-.0454.2139-.0842.4925-.1231.8425-.039.3564-.0649.5703-.0778.6481-1.996-.4536-3.532-.7906-4.6012-1.0239-1.0758-.2333-1.9442-.4083-2.6117-.5379-.9008-.175-1.7044-.3175-2.4108-.4212-.7064-.1102-1.3674-.1944-1.9831-.2527" style="fill: #ee2223;"/>
      <path id="path312" d="M352.3673,710.3216c.4083.0259.8101.0713,1.1989.1166.4018.0583.8036.1296,1.2249.2139.4148.0842.8555.1879,1.3221.3046.0778-1.4581.1361-2.5274.175-3.2209.0388-.687.0778-1.16.1167-1.4063l.6092-4.5105c.1102.013.2722.0454.499.0842.2203.0389.3888.0713.512.0842,2.832.3824,5.0031.149,6.5325-.7194,1.5229-.8619,2.4303-2.3719,2.7219-4.5364.2592-1.8923-.1102-3.357-1.1017-4.3874s-2.6895-1.7109-5.0808-2.0349c-.7194-.1037-1.6396-.2074-2.7672-.324-1.1276-.1102-1.8988-.2009-2.3201-.2592-.3435-.0454-.6934-.1037-1.0434-.1685-.3499-.0648-.7064-.1426-1.0693-.2268-.0842,1.4322-.2074,3.007-.3888,4.7244-.175,1.7174-.4083,3.6616-.6999,5.8131-.3176,2.3265-.6157,4.3031-.8943,5.9233-.2787,1.6266-.5638,3.1172-.8619,4.4781.4666.0066.9008.0259,1.3156.0518M357.9277,695.1115c.0778-.5703.1685-1.1341.2722-1.6914.1102-.5573.2333-1.1147.3694-1.6785.0195.0066.0518.0066.0907,0,.3888.0195.6805.0454.8684.0713,1.1536.1555,1.9701.6027,2.4497,1.3285.4731.7323.6221,1.7562.4407,3.0848-.2203,1.6072-.7323,2.7219-1.5424,3.344-.8101.6157-2.022.8101-3.6356.5897l.687-5.0484h0Z" style="fill: #ee2223;"/>
      <path id="path316" d="M370.758,691.5705c.3888.0648.7971.1166,1.2378.1685.4407.0518.9008.0907,1.3933.1231.4796.0324.9267.0518,1.335.0583.4148.0129.8101.0066,1.1925-.0066-.2657,1.6072-.499,3.3181-.6934,5.1391-.1944,1.8275-.3629,3.8365-.512,6.0335-.1231,1.7757-.1555,3.0394-.1102,3.7847.0454.7518.1555,1.4128.3435,1.9896.2722.8749.7906,1.5748,1.5619,2.0997.7712.5184,1.7238.8166,2.8709.8943,1.1017.0713,2.0803-.0583,2.9422-.4018.8619-.3435,1.5683-.8684,2.1127-1.5878.4407-.5962.7777-1.3869,1.011-2.3784.2333-.9851.4212-2.6117.5768-4.8799.1231-1.8988.2139-3.6745.2722-5.3271.0518-1.659.0713-3.2079.0518-4.6661.2333.0583.4731.1037.7259.1361.2527.0389.5184.0649.8036.0842.2981.0195.5768.0259.8295.0259.2592,0,.4925-.013.7064-.0389-.188,1.3998-.3499,2.6571-.4731,3.7782-.1167,1.1147-.2074,2.0868-.2657,2.9098-.0324.4796-.0713,1.2313-.1231,2.2488-.0454,1.011-.0842,1.7887-.1231,2.3201-.1361,2.022-.3888,3.5773-.7518,4.6725-.3629,1.0952-.9138,2.0025-1.6331,2.7219-.8425.849-1.8859,1.4581-3.1237,1.8211-1.2378.3694-2.6765.4925-4.3226.3888-1.8081-.1231-3.3505-.4796-4.6272-1.0693-1.2832-.5962-2.2228-1.3804-2.8191-2.3589-.4472-.7194-.7323-1.6331-.8684-2.7413-.1296-1.1082-.1167-2.8515.0454-5.2234l.1814-2.7089c.1296-1.9377.2074-3.4995.2463-4.692.0259-1.1924.0324-2.3006.0066-3.3181" style="fill: #ee2223;"/>
      <path id="path320" d="M393.5505,713.9449c.1296-1.3544.2333-2.8191.3046-4.3939.0778-1.5683.1296-3.6162.162-6.1436.0259-2.4497.0259-4.5041-.013-6.1566-.0388-1.659-.1037-3.1366-.2074-4.4392.4407.0583.8878.1037,1.335.1426.4472.0324.9008.0518,1.3545.0583.4472.0066.8943-.0066,1.3415-.0324.4407-.0195.8814-.0583,1.3091-.1037-.1296,1.3156-.2333,2.8061-.3111,4.4652-.0713,1.659-.1231,3.7005-.1491,6.1177-.0324,2.6311-.0324,4.7244.0066,6.2797.0324,1.5553.0972,2.9811.1944,4.2707-.4925-.0649-.9591-.1102-1.3998-.1426-.4342-.0389-.849-.0583-1.2378-.0583-.4148-.0066-.8425,0-1.2767.0259-.4407.0259-.9073.0583-1.4128.1102" style="fill: #ee2223;"/>
      <path id="path324" d="M403.0893,712.9975c.1685-.6351.3305-1.3091.4796-2.0155.1555-.7129.2981-1.4581.4277-2.2423l.4083-.013c.3111,1.1795.8684,2.0868,1.672,2.7154.8036.6351,1.7822.9332,2.9357.8943,1.0369-.0324,1.86-.3435,2.4691-.9267.6092-.5897.9008-1.3545.8684-2.3006-.0195-.6805-.2398-1.2637-.6546-1.7433-.4148-.4796-1.4063-1.1211-2.9746-1.9183-2.4302-1.2054-4.018-2.2682-4.7633-3.1755-.7518-.9138-1.1406-2.0608-1.1859-3.4412-.0583-1.8729.5573-3.4153,1.8535-4.6207,1.2896-1.2054,3.0264-1.8405,5.2104-1.9053.9591-.0324,1.847.0583,2.6635.2657.8166.2139,1.5942.5509,2.333,1.0239-.1944.6027-.3694,1.1924-.5249,1.7692-.1555.5703-.2981,1.1211-.4148,1.6461l-.337.0129c-.337-.9073-.8814-1.6137-1.6331-2.1192-.7518-.499-1.6137-.7388-2.5922-.7064-.9008.0259-1.6202.2981-2.1516.8101-.5379.5184-.7971,1.186-.7647,2.0025.0195.687.2398,1.2637.6675,1.7368.4212.4666,1.348,1.0499,2.7737,1.7433.3176.162.7777.3759,1.3804.6416,1.6785.7647,2.7478,1.3674,3.2144,1.8146.5768.5638,1.0045,1.1795,1.2896,1.8535.2852.6805.4472,1.4387.4731,2.2812.0649,2.0932-.5897,3.7977-1.9636,5.1197-1.3674,1.3156-3.2339,2.009-5.5863,2.0803-1.2378.0389-2.3136-.0518-3.2274-.2592-.9138-.2139-1.6979-.5573-2.346-1.0239" style="fill: #ee2223;"/>
      <path id="path328" d="M434.1232,712.1718c-.0908-1.8275-.2139-3.668-.3694-5.528s-.3435-3.7329-.5573-5.6122c-.1296-1.1535-.2722-2.2034-.4148-3.1625-.1491-.9591-.3111-1.8535-.4925-2.683-.5574.3176-1.1017.6481-1.6331.998-.5379.35-1.0563.7064-1.5683,1.0628l-1.6461-1.5878c1.4387-.6545,2.8579-1.3933,4.2448-2.2099,1.3804-.8166,2.7478-1.7109,4.0958-2.683l.6221.2463c.013.8619.0778,1.9507.1944,3.2727.1167,1.322.3694,3.7004.7647,7.1417.324,2.845.5897,5.0225.7971,6.526.2074,1.51.3953,2.7413.5768,3.694-.4212-.0066-.8295-.0066-1.2119.0066-.3888.0195-.7582.0454-1.1082.0842-.3629.0389-.7258.0972-1.1017.1685-.3759.0713-.7712.162-1.1925.2657" style="fill: #ee2223;"/>
      <path id="path332" d="M454.3084,706.0632c-.7647,1.7627-2.022,2.7996-3.7652,3.0977-.4407.0778-.8749.0842-1.2961.0324-.4212-.0583-.8425-.1879-1.2767-.3953l.5379,1.6785c.3629.0518.7518.0713,1.1665.0648.4212-.0066.849-.0518,1.2961-.1296,2.9681-.512,5.178-2.022,6.6297-4.5429,1.4581-2.521,1.8729-5.5928,1.2508-9.2155-.4861-2.7996-1.4711-4.8475-2.9681-6.1436s-3.3958-1.7433-5.6835-1.3545c-2.1516.3694-3.8041,1.2897-4.9706,2.7543-1.173,1.4646-1.5813,3.1431-1.2572,5.0355.3176,1.8405,1.0887,3.2144,2.3136,4.1217,1.2313.9073,2.7283,1.2119,4.4846.9073.9073-.1555,1.6915-.4601,2.359-.9073.6675-.4536,1.2313-1.0563,1.7044-1.8211.4148,2.7802.2398,5.0549-.5249,6.8176M453.9909,698.4419c-.3176.8101-.9591,1.2961-1.9377,1.4646-.9462.162-1.6979-.0908-2.2553-.7647-.5638-.674-.9786-1.834-1.2637-3.4801-.2852-1.6461-.2722-2.8709.0259-3.694.3046-.8166.9332-1.3026,1.8729-1.4646.9202-.162,1.6785.1102,2.2812.8101.5962.7064,1.0369,1.8405,1.3091,3.4023.2852,1.6785.2722,2.9163-.0324,3.7264" style="fill: #ee2223;"/>
      <path id="path336" d="M464.9983,702.0225c.4342,1.3609,1.024,2.3201,1.7562,2.8774.7323.5573,1.6137.7129,2.6441.4796,1.0304-.2398,1.7368-.8036,2.1321-1.6914.3888-.8878.4277-2.0284.1102-3.4088-.3435-1.4517-.8814-2.4756-1.6202-3.0653-.7453-.5897-1.685-.7517-2.832-.486-.3305.0778-.5703.1361-.7129.175-.1491.0389-.2722.0778-.3824.1166l-.3499-1.4711c.175-.0259.3111-.0389.3953-.0518.0842-.0195.162-.0259.2463-.0389,1.1471-.2657,1.9247-.7906,2.32-1.5813.3953-.7842.4277-1.8729.1102-3.2533-.2787-1.2119-.7064-2.0803-1.2702-2.6117-.5703-.5249-1.2572-.6934-2.0803-.5055-.7712.1815-1.3156.6675-1.6331,1.4646-.3176.7971-.3629,1.7757-.1231,2.9357l.1101.0648c-.7258-.3564-1.8081-.9008-3.2403-1.6461.4536-1.1471,1.1276-2.0803,2.0219-2.7932.8878-.7129,2.0155-1.2248,3.3699-1.5424,1.9118-.4407,3.4931-.3629,4.7568.2333,1.2508.6027,2.0608,1.672,2.4173,3.2014.2527,1.0888.1426,2.0479-.324,2.8839-.4666.8295-1.3804,1.685-2.7413,2.5404l.0454.2074c1.7498-.1491,3.1172.0649,4.0893.6416.9721.5768,1.6202,1.5359,1.9312,2.8839.4407,1.8923.0972,3.5773-1.0174,5.0484-1.1212,1.4711-2.8256,2.4756-5.1262,3.007-1.2184.2787-2.359.3759-3.4412.2852-1.0758-.0907-2.0608-.3694-2.9682-.836.2916-.7971.5508-1.5165.7777-2.171.2268-.661.4342-1.2832.6286-1.8923" style="fill: #ee2223;"/>
      <path id="path340" d="M486.8451,701.8404c-.4083-1.7822-.8425-3.5773-1.3091-5.3854-.4731-1.8016-.9721-3.6162-1.51-5.4308-.3305-1.1147-.6481-2.1257-.9527-3.0459-.3111-.9202-.6286-1.7692-.9462-2.5599-.4925.4018-.9721.8295-1.4387,1.2637s-.9202.8749-1.3609,1.3156l-1.8924-1.2767c1.3026-.9008,2.5728-1.8664,3.7977-2.9098,1.2248-1.0369,2.4173-2.1516,3.5773-3.344l.6546.1361c.162.849.4148,1.9118.7582,3.1885.337,1.2832.998,3.5838,1.9701,6.9148.8036,2.7413,1.4387,4.841,1.9053,6.2927.4601,1.4452.8619,2.6247,1.2054,3.5319-.4212.0649-.823.1361-1.1989.2203-.3759.0778-.7323.1685-1.0823.2722-.3435.1037-.6934.2203-1.0499.3564-.3564.1296-.7323.2852-1.1276.4601" style="fill: #ee2223;"/>
    </g>
    <g id="g4734">
      <path id="path344" d="M330.1594,558.6357c0,38.508,31.3274,69.8419,69.8419,69.8419s69.8419-31.3339,69.8419-69.8419-31.3339-69.8419-69.8419-69.8419-69.8419,31.3339-69.8419,69.8419" style="fill: #fff;"/>
      <path id="path348" d="M465.8666,545.2759c-3.5838-17.6986-14.1473-32.8893-28.6833-42.5843-1.6007-.2009-3.2533-.2333-4.9901-.0195-5.8002,4.4911-11.1791,11.0041-14.9768,17.2515,3.4282,6.6232,6.9861,16.6358,8.7294,27.1409,9.4099,2.8061,19.7724,7.9129,26.7197,13.8686,4.4911-2.8645,9.3451-8.1915,13.2011-15.6572" style="fill: #ee2223;"/>
      <path id="path352" d="M377.763,608.9832c7.9971-1.8923,15.5017-5.7094,21.101-9.8052v-33.2587l-24.0497-16.6941c-9.5654,2.858-20.3233,8.2434-26.9724,14.3222-1.6785,7.7055-2.2293,16.3118-.1167,24.0432,8.0489,9.5136,17.1089,16.9209,30.0378,21.3926" style="fill: #ee2223;"/>
      <path id="path356" d="M347.3325,560.9351c6.9473-5.9557,17.3163-11.0625,26.7262-13.8686,1.7368-10.4986,5.2947-20.5177,8.7294-27.1409-3.8041-6.2538-9.1831-12.7604-14.9833-17.2515-1.7368-.2139-3.3829-.1814-4.9901.0195-14.5361,9.6886-25.0995,24.8857-28.6833,42.5843,3.856,7.4657,8.71,12.7928,13.2011,15.6572" style="fill: #ee2223;"/>
      <path id="path360" d="M452.5859,590.7331c-7.8221,8.885-16.7265,15.8322-29.0462,20.2002-1.996,4.9901-4.53,9.5654-7.5888,12.9807,18.0745-4.4198,33.304-16.1692,42.351-31.9107-2.1645-.3111-4.0828-.7323-5.7159-1.2702" style="fill: #ee2223;"/>
      <path id="path364" d="M376.4597,610.9319c-12.3197-4.368-21.2176-11.3152-29.0462-20.2002-1.6331.5379-3.5514.9591-5.7159,1.2702,9.047,15.7415,24.27,27.4909,42.351,31.9107-3.0589-3.4153-5.5928-7.9906-7.5888-12.9807" style="fill: #ee2223;"/>
      <path id="path368" d="M370.1268,501.5938c5.7289,4.6466,10.8227,10.9588,14.4778,16.9469,4.7697-.3759,9.9478-.5833,15.398-.5833,5.4373,0,10.6218.2074,15.385.5833,3.6551-5.9881,8.7553-12.3002,14.4842-16.9469-.0518-1.2702-.4731-2.5404-1.3933-3.8106-8.6516-4.0698-18.3013-6.351-28.4759-6.351-10.1811,0-19.8308,2.2877-28.4889,6.351-.9138,1.2702-1.335,2.5404-1.3868,3.8106" style="fill: #ee2223;"/>
      <path id="path372" d="M425.1864,549.2252l-24.0497,16.6941v33.2587c5.5928,4.0958,13.1039,7.9129,21.0945,9.8052,12.9354-4.4716,22.0018-11.879,30.0442-21.3991,2.1127-7.7249,1.5619-16.3377-.1231-24.0367-6.6427-6.0788-17.4005-11.4642-26.966-14.3222" style="fill: #ee2223;"/>
    </g>
  </g>
</svg>