<?xml version="1.0" encoding="utf-8"?>
<!-- Created by @FCLOGO 2022-05-30 16:57:04 . https://fclogo.top/ -->
<!-- FOR PERSONAL USE ONLY NOT FOR COMMERCIAL USE -->
<svg version="1.1" xmlns="http://www.w3.org/2000/svg" xmlns:xlink="http://www.w3.org/1999/xlink" x="0px" y="0px"
	 viewBox="0 0 800 800" enable-background="new 0 0 800 800" xml:space="preserve">
<g>
	<g>
		<circle cx="400" cy="400" r="350"/>
		<linearGradient id="SVGID_1_" gradientUnits="userSpaceOnUse" x1="636.9641" y1="636.9641" x2="161.7883" y2="161.7883">
			<stop  offset="0" style="stop-color:#C19263"/>
			<stop  offset="1" style="stop-color:#E2D393"/>
		</linearGradient>
		<path fill="url(#SVGID_1_)" d="M400,736c-89.75,0-174.13-34.95-237.59-98.41S64,489.75,64,400s34.95-174.13,98.41-237.59
			S310.25,64,400,64s174.13,34.95,237.59,98.41S736,310.25,736,400s-34.95,174.13-98.41,237.59S489.75,736,400,736z"/>
		<path d="M400,729c-87.88,0-170.5-34.22-232.64-96.36C105.22,570.5,71,487.88,71,400c0-87.88,34.22-170.5,96.36-232.64
			S312.12,71,400,71c87.88,0,170.5,34.22,232.64,96.36C694.78,229.5,729,312.12,729,400c0,87.88-34.22,170.5-96.36,232.64
			C570.5,694.78,487.88,729,400,729z"/>
	</g>
	<g>
		
			<linearGradient id="SVGID_00000095322832684481242520000003877070638701026437_" gradientUnits="userSpaceOnUse" x1="248.7219" y1="258.4463" x2="134.4808" y2="254.5269">
			<stop  offset="0" style="stop-color:#C19263"/>
			<stop  offset="1" style="stop-color:#E2D393"/>
		</linearGradient>
		<path fill="url(#SVGID_00000095322832684481242520000003877070638701026437_)" d="M137.22,273.02l-12.99-8.56l8.57-13l12.99,8.57
			L137.22,273.02z M161.29,269.98l-12.4-8.18l-8.57,13l12.4,8.18L161.29,269.98z M185.36,285.57l-20.46-13.49l-8.57,13l20.46,13.49
			L185.36,285.57z M201.89,237.47l-8.78,13.32l-30.5-20.11l7.35-11.43l-9.78-6.45l-23.73,36.01l10.17,6.71l7.56-11.75l30.36,20.01
			l-8.42,12.78l10.17,6.71l25.38-39.36L201.89,237.47z"/>
		
			<linearGradient id="SVGID_00000142136621043883762760000015259946616073269665_" gradientUnits="userSpaceOnUse" x1="278.8666" y1="183.5407" x2="207.0753" y2="169.3398">
			<stop  offset="0" style="stop-color:#C19263"/>
			<stop  offset="1" style="stop-color:#E2D393"/>
		</linearGradient>
		<path fill="url(#SVGID_00000142136621043883762760000015259946616073269665_)" d="M286.03,185.44l-0.08-0.12l0.01-0.01
			l-26.63-38.83l-10.45,7.19l0.06,0.09l-3.24,2.22c-0.82-1.19-1.58-2.3-2.24-3.27l14.8-10.15l-6.61-9.63l-52.67,36.13l6.61,9.63
			l14.95-10.26c0.7,1.02,1.46,2.12,2.25,3.26l-13.22,9.07l0.01,0.01l-0.81,0.56l26.63,38.83l1.57-1.08l0,0L286.03,185.44z
			 M230.56,161.57l2.84-1.95c0.65,0.97,1.41,2.07,2.23,3.28l-2.83,1.94C232.01,163.68,231.25,162.58,230.56,161.57z M233.28,187.07
			c1.35,2.19-0.87,5.44-0.87,5.44l5.35,7.62c0,0,4.18-2.76,6.5-4.48c2.32-1.72,3.83-8.51,1.97-11.22c-0.68-0.99-3.52-5.13-6.83-9.97
			l2.8-1.92c2.84,4.15,5.39,7.83,6.46,9.28c3,4.08,9.39,4.59,11.79,2.98c2.4-1.61,6.26-4.19,6.26-4.19l-5.73-8.6
			c0,0-3.49,1.16-4.48-0.29c-0.32-0.46-2.02-2.95-4.19-6.11l3.24-2.22l13.43,19.58l-29.73,20.39l-13.43-19.58l3.59-2.46
			C231.38,184.21,232.9,186.45,233.28,187.07z"/>
		
			<linearGradient id="SVGID_00000062165033382581315140000000502336464150009984_" gradientUnits="userSpaceOnUse" x1="378.4321" y1="162.6884" x2="310.5542" y2="110.0152">
			<stop  offset="0" style="stop-color:#C19263"/>
			<stop  offset="1" style="stop-color:#E2D393"/>
		</linearGradient>
		<path fill="url(#SVGID_00000062165033382581315140000000502336464150009984_)" d="M376.59,137.29l-24.34,4.29l-0.53-3.01
			l22.45-3.96l-1.35-7.66l-22.44,3.96l-0.4-2.28l21.58-3.8l-1.53-8.68l-0.08,0.02L366.8,98.4l-7.69,1.36l-20.71,3.65l-6.06,1.07l0,0
			l-11.84,2.09l0,0l-1.47,0.26l-10.1,1.78l1.7,9.64l0.04-0.01l2.96,16.8l0.11-0.02l0,0l21.74-3.83l0.4,2.28l-22.45,3.96l1.35,7.66
			l22.45-3.96l0.53,3.01l-24.41,4.3l1.63,9.27l63.23-11.14L376.59,137.29z M355.84,118.65l-1.08-6.11l-6.41,1.13l1.08,6.11
			l-2.68,0.47l-1.43-8.13l11.61-2.04l1.43,8.12L355.84,118.65z M334.05,114.12l1.43,8.13l-2.43,0.43l-1.06-6.02l-6.41,1.13
			l1.06,6.02l-3.01,0.53l-1.43-8.12L334.05,114.12z M347.54,165.66l-13.15,2.3l-2.01-11.38l13.15-2.31L347.54,165.66z
			 M363.63,162.83l-13.48,2.36l-2.01-11.38l13.48-2.36L363.63,162.83z M380.65,159.82l-14.58,2.56L364.07,151l14.58-2.56
			L380.65,159.82z M332.2,168.36l-14.41,2.53l-2.01-11.38l14.41-2.53L332.2,168.36z"/>
		
			<linearGradient id="SVGID_00000154419152847632675600000004286387574906962593_" gradientUnits="userSpaceOnUse" x1="476.9827" y1="160.8843" x2="430.3269" y2="105.7303">
			<stop  offset="0" style="stop-color:#C19263"/>
			<stop  offset="1" style="stop-color:#E2D393"/>
		</linearGradient>
		<path fill="url(#SVGID_00000154419152847632675600000004286387574906962593_)" d="M482.43,132.04L482.43,132.04
			c0,0-3.56,21.63-4.59,27.1c-1.03,5.46-5.09,10.39-12.43,9.21c-7.34-1.18-13.02-2.1-13.02-2.1l1.99-10.93c0,0,2.92,0.46,5.61,0.86
			c2.7,0.4,4.62-1.5,5.13-4.55c0.24-1.41,1.05-6.21,1.86-10.96l-41.36-7.01l0.18-1.05l3.32-19.59l12.59,2.14l-1.64,9.67l22.64,3.84
			l1.98-11.72l-40.57-6.88l2-11.79l40.57,6.88v0l1.21,0.21l11.73,1.99l-2,11.79h0l-1.98,11.72l6.77,1.15L482.43,132.04z
			 M459.72,143.02l-39.58-6.28l-1.82,11.47l39.58,6.28L459.72,143.02z"/>
		
			<linearGradient id="SVGID_00000038371746350281169030000007307259779323093684_" gradientUnits="userSpaceOnUse" x1="558.9398" y1="210.8436" x2="545.2796" y2="142.5558">
			<stop  offset="0" style="stop-color:#C19263"/>
			<stop  offset="1" style="stop-color:#E2D393"/>
		</linearGradient>
		<path fill="url(#SVGID_00000038371746350281169030000007307259779323093684_)" d="M570.77,195.7l0.18-0.26
			c2.28-3.41,4.05-6.04,4.05-6.04l0,0v0l-32.84-22.02l0,0l-0.48-0.32l-10.53-7.06l-0.05,0.08h0l-3.33,4.98l-0.84,1.25l0,0
			l-1.11,1.66l0,0l-3.08,4.59l-2.61,3.9l-2.24,3.34l0,0l-5.3,7.91l11.06,7.29l5.24-7.82l21.41,14.34l0,0
			c-0.53,0.79-2.98,1.04-4.74-0.12c-1.76-1.16-3.4-2.24-3.4-2.24l-4,6.15c0,0,6.72,4.57,10.27,6.95c3.48,2.34,9.78,1.82,13.31-3.08
			l0.01,0.01l0.16-0.24c0.02-0.02,0.03-0.04,0.05-0.07c0.74-1.1,1.75-2.61,2.89-4.31l0.24-0.36l0,0
			C566.89,201.49,568.98,198.37,570.77,195.7L570.77,195.7z M532.22,182.18l1.23-1.83l21.41,14.34c-0.42,0.63-0.84,1.25-1.23,1.83
			L532.22,182.18z M558.22,189.67l-21.41-14.34l1.11-1.66l21.4,14.35C558.97,188.56,558.6,189.11,558.22,189.67z M569.64,163.08
			l-1.09,1.62l15.48,10.37l-3.12,4.64l-15.47-10.37l-0.92,1.37l18.98,12.72l-4.23,6.32l-18.98-12.72l-0.01,0.02l-2.78-1.89
			l-28.58-19.15l4.24-6.32l19.29,12.93l0.91-1.37l-16-10.72l3.11-4.65l16,10.72l1.09-1.63l-18.28-12.26l4.32-6.45l18.28,12.26
			l1-1.49l12.03,8.18l-0.95,1.41l18.33,12.29l-4.32,6.45L569.64,163.08z"/>
		
			<linearGradient id="SVGID_00000084503945061269162040000015855193399841620864_" gradientUnits="userSpaceOnUse" x1="621.7669" y1="291.4564" x2="636.4166" y2="223.7768">
			<stop  offset="0" style="stop-color:#C19263"/>
			<stop  offset="1" style="stop-color:#E2D393"/>
		</linearGradient>
		<path fill="url(#SVGID_00000084503945061269162040000015855193399841620864_)" d="M657.06,270.79l9.96-6.46l-22.44-34.61
			c1.43-0.87,2.46-1.51,2.46-1.51l-7.64-11.8c0,0-1.76,1.21-3.11,2.02c-1.62,0.97-5.07,0.73-5.73,0.03
			c-1.31-1.38-2.22-2.45-2.22-2.45l-11.41,7c0,0,2.37,3.33,4.43,5.79l-13.37,8.67l-3.97-6.12l-10.03,6.5l10.55,16.27l1,1.55h0
			l4.94,7.61l-11,7.14l7.26,11.25l11.03-7.15l11.01,16.98l10.03-6.5l-11.01-16.98l6.06-3.93l9.17,14.15l8.93-5.79l-9.18-14.15
			l4.36-2.83L657.06,270.79z M620.51,256.8l-4.94-7.62l6.06-3.93l4.94,7.62L620.51,256.8z M635.5,247.08l-9.71-14.97
			c3.12,1.26,4.68,1.91,7.37,1.82l6.69,10.33L635.5,247.08z"/>
	</g>
	<g>
		
			<linearGradient id="SVGID_00000030486545200451080230000016330042532874355856_" gradientUnits="userSpaceOnUse" x1="155.8503" y1="355.467" x2="105.6329" y2="355.467">
			<stop  offset="0" style="stop-color:#C19263"/>
			<stop  offset="1" style="stop-color:#E2D393"/>
		</linearGradient>
		<polygon fill="url(#SVGID_00000030486545200451080230000016330042532874355856_)" points="129.61,331.59 135.54,349.83 
			154.72,349.83 139.2,361.1 145.13,379.35 129.61,368.07 114.09,379.35 120.02,361.1 104.5,349.83 123.68,349.83 		"/>
		
			<linearGradient id="SVGID_00000112592420311128151660000009573696328852673926_" gradientUnits="userSpaceOnUse" x1="155.8503" y1="355.467" x2="105.6329" y2="355.467" gradientTransform="matrix(-1 0 0 1 800 0)">
			<stop  offset="0" style="stop-color:#E2D393"/>
			<stop  offset="1" style="stop-color:#C19263"/>
		</linearGradient>
		<polygon fill="url(#SVGID_00000112592420311128151660000009573696328852673926_)" points="670.39,331.59 664.46,349.83 
			645.28,349.83 660.8,361.1 654.87,379.35 670.39,368.07 685.91,379.35 679.98,361.1 695.5,349.83 676.32,349.83 		"/>
	</g>
	<g>
		<path fill="#E2D393" d="M378.43,365.45l0.92-8.02c4.78-41.84,0.12-76.27-14.27-105.33c-0.44-0.86-0.89-1.69-1.34-2.5
			c3.2-2.31,9.41-6.74,14.74-10.26c-0.93-2.31-1.92-4.74-2.98-7.26c-3.53,2.04-11.98,6.92-16.96,9.79
			c-5.64-6.75-13.2-10.9-26.44-13.12c9.08-12.36,33-33.71,78.21-42.32l-1.68-8.84c-52.42,9.99-78.55,37-86.49,49.94
			c-7.76-0.67-17.03-0.92-28.29-0.84L288.3,212l-8.42,3.18l6.74,17.86c0.62,1.64,2.19,2.71,3.94,2.69l0.24,0
			c52.99-0.68,58.9,6.17,66.24,20.44c16.31,32.94,16.44,67.27,14.16,92.44c-42.87-30.04-131.57-62.66-154.3-69.63l-2.64,8.6
			c23.59,7.23,119.15,42.4,157.82,72.88L378.43,365.45z"/>
		<g>
			<path fill="#E2D393" d="M352.4,437.65c0.36-2.38,0.63-5.37,0.77-9.11c-6.54-1.76-13.03-3.69-19.47-5.78
				c-49.74-16.14-100.32-46.15-142.72-81.08l-1.86,11.06c43.28,35.65,90.99,62.09,141.8,78.58
				C338.03,433.63,345.19,435.73,352.4,437.65z"/>
			<path fill="#E2D393" d="M228.23,474.95c6.71,3.93,14.72,7.29,24.29,9.6c0.38,15.05,4.91,53.96,36.58,92.43
				c3.39-0.63,6.87-1.32,10.45-2.09c-30.62-36.94-37.13-73.67-37.94-88.56c4.76,0.73,15.34,1.28,15.34,1.28
				c19.87,14.8,43.67,31.2,71,40.1c-0.12,5.73-0.18,18.12,0.38,33.08c2.76-1.02,5.51-2.09,8.27-3.2
				c-0.3-13.33-0.14-24.25-0.04-29.39c5.91-1.95,19.01-6.85,33.34-15.81c-4.95-0.95-9.24-2.46-12.28-3.52
				c-12.05,6.49-22.16,9.82-25.67,10.9c-29.28-8.2-72.01-41.46-72.01-41.46c-49.26,0.31-65.68-24.48-74.69-42.97
				c-0.98-2.02-3.21-3.1-5.41-2.66l-15.28,3.07l1.66,8.09l11.64-2c4.21,9.75,10.42,18.53,22.1,27.54
				c-1.12,6.23-2.36,18.02,0.17,33.3c3.07,18.51,10.59,36.46,22.36,53.36l11.9,1.2C227.78,524.85,226.66,488.28,228.23,474.95z"/>
			<path fill="#E2D393" d="M352.32,608.7c0.26,1.8,0.53,3.59,0.82,5.35l7.88-1.47c-0.12-0.71-0.23-1.44-0.34-2.16
				C357.88,609.9,355.1,609.32,352.32,608.7z"/>
			<path fill="#E2D393" d="M300.51,589.57c5.85,5.88,12.4,11.69,19.75,17.33l10.17-2.13c-1.73-1.36-3.42-2.73-5.07-4.1
				C316.85,597.51,308.55,593.81,300.51,589.57z"/>
		</g>
	</g>
	
		<linearGradient id="SVGID_00000042729892979049639500000006230709385495285163_" gradientUnits="userSpaceOnUse" x1="244.3568" y1="245.7342" x2="561.1246" y2="559.6991">
		<stop  offset="0" style="stop-color:#C19263"/>
		<stop  offset="1" style="stop-color:#E2D393"/>
	</linearGradient>
	<path fill="url(#SVGID_00000042729892979049639500000006230709385495285163_)" d="M557.68,242.31C515.57,200.2,459.57,177,400,177
		c-59.57,0-115.57,23.2-157.69,65.32C200.2,284.43,177,340.43,177,400c0,59.57,23.2,115.57,65.31,157.68
		C284.43,599.8,340.43,623,400,623s115.57-23.2,157.69-65.32C599.8,515.57,623,459.57,623,400S599.8,284.43,557.68,242.31z
		 M551.32,551.32C510.9,591.74,457.16,614,400,614s-110.9-22.26-151.32-62.68C208.26,510.9,186,457.16,186,400
		s22.26-110.9,62.68-151.32C289.1,208.26,342.84,186,400,186s110.9,22.26,151.32,62.68C591.74,289.1,614,342.84,614,400
		S591.74,510.9,551.32,551.32z"/>
	<g>
		<path fill="#E2D393" d="M551.32,248.68c-37.99-37.99-87.74-59.93-141.05-62.43l0.03,0.18c-20.45,3.9-36.54,10.4-48.87,17.49
			l0.14,0.27c9.93,19.35,18.62,41.99,21.98,51.04c-6.03-5.51-16.48-14.14-17.01-14.58l-0.43,0.63l11.95,10.2l1.21,7.7l-3.03,2.05
			c-6.52-18.71-26.98-27.05-26.98-27.05s11.74,5.43,14.62,41.41c-8.63,8.09-36.49,22.92-36.77,23.08l-2.82,1.5l3.17,0.38
			c3.26,0.39,6.44,0.58,9.47,0.58c17.78,0,27.19-6.56,31.15-10.36c-3.26,11.1-21.83,14.25-22.04,14.28l-5.99,0.97l5.98,1
			c0.33,0.06,8.12,1.35,12.31,1.35c0.17,0,0.33,0,0.49-0.01c2.22-0.06,3.84-0.83,4.91-1.6c0.31,10.56-7.71,20.6-12.14,26.15
			c-0.6,0.75-1.14,1.42-1.57,1.99c-4.07,5.35-4.17,13.41-2.87,16.02c0.81,1.61,0.89,3.4,1.02,5.86c0.03,0.58,0.06,1.2,0.1,1.85
			c0.27,4.25,2.94,8.22,4.08,9.74c1.09,1.45,1.73,5.92,1.91,13.28c0.09,3.91,0.25,10.44-1.32,12.3c-1.45,1.72-1.31,5.52-1.02,13.84
			c0.13,3.61,0.29,8.11,0.34,13.47c0.2,19.58-2.81,23.27-3.16,23.63c-1.03,1.07-3.52,3.29-5.51,5.07c-0.84,0.75-1.59,1.42-2.14,1.92
			c-1.4,1.28-1.46,3.35-1.51,4.87c-0.01,0.49-0.03,1.14-0.11,1.39c-1.64,1.27-1.72,7.53-0.09,10.78c0.36,0.71,0.78,1.49,1.23,2.31
			c1.61,2.94,3.61,6.59,3.49,9.34c-0.02,0.36-0.04,0.78-0.06,1.24c-0.35,6.59-0.43,13.15,2.61,14.66c2.83,1.41,5.27,4.73,5.27,5.76
			c0,0.19-0.01,0.41-0.02,0.64c-0.05,0.9-0.1,2.03,0.3,3.04c0.36,0.92,1.24,2.03,3.33,2.14c1.06,0.05,2.93,0.07,5.09,0.1
			c4.56,0.05,10.8,0.11,12.87,0.55c0.79,0.17,2.06,0.61,3.65,1.17c4.52,1.58,11.34,3.97,19.12,4.34c0.13,0.01,0.26,0.01,0.39,0.01
			c11.16,0,31.07-23.1,37.05-31.52c5.62-7.9,1.93-17.19-0.76-23.98c-0.41-1.03-0.79-2-1.11-2.88c-2.03-5.66-0.27-8.98,2.65-14.49
			l0.62-1.17c3.37-6.4,7.21-8.59,9.81-9.69c0.81-0.34,1.86-0.76,3.08-1.24c3.4-1.35,8.06-3.2,11.31-4.95
			c1.82-0.98,3.09-2.24,3.96-3.43c0.78,25.09-5.27,48.02-17.99,68.21c-11.5,18.24-28.54,34.45-50.66,48.16
			c-41.2,25.54-89.28,36.15-114.63,40.23C315.4,601.23,356.72,614,400,614c57.16,0,110.9-22.26,151.32-62.68
			C591.74,510.9,614,457.16,614,400S591.74,289.1,551.32,248.68z"/>
		<path d="M551.32,248.68c-37.99-37.99-87.74-59.93-141.05-62.43l0.03,0.18c-19.31,3.68-34.73,9.68-46.78,16.31
			c-0.69,0.63-1.06,0.99-1.06,0.99c12.86,25.05,23.5,55.2,23.5,55.2c-4.21-4.43-6.84-6.48-6.84-6.48l1.25,7.21l-4.66,3.16
			c-4.16-15.3-20.73-25.27-22.53-26.1c10.61,11.47,11.72,39.3,11.72,39.3c-8.42,8.2-37.33,23.56-37.33,23.56
			c3.35,0.4,6.47,0.58,9.35,0.58c24.26,0,32.63-12.55,32.63-12.55c-0.25,14.71-23.36,18.46-23.36,18.46s7.99,1.34,12.15,1.34
			c0.16,0,0.31,0,0.46-0.01c3.99-0.11,5.76-2.77,5.76-2.77c1.77,13.19-9.87,25.83-13.74,30.93c-3.88,5.1-3.88,12.75-2.77,14.96
			c1.11,2.22,1,4.66,1.22,8.09c0.22,3.44,2.22,6.98,3.88,9.2c1.66,2.22,2,9.2,2.11,13.86c0.11,4.66,0.22,10.86-1.55,12.97
			c-1.77,2.11-0.61,10.03-0.44,26.66c0.17,16.63-1.94,22.78-3.44,24.33c-1.5,1.55-5.82,5.32-7.7,7.04s-0.67,5.71-1.66,6.29
			c-1,0.58-1.5,6.24,0.17,9.56c1.66,3.33,4.99,8.31,4.82,12.14c-0.17,3.82-1,13.47,2,14.96c2.99,1.5,5.82,5.1,5.82,6.65
			s-0.67,4.66,2.66,4.82s14.96,0,18.12,0.67c3.16,0.67,12.14,4.99,22.61,5.49c0.11,0.01,0.23,0.01,0.34,0.01
			c10.56,0,30.15-22.55,36.24-31.1c6.15-8.65,0.33-19.45-2-25.94c-2.33-6.48,0-10.14,3.33-16.46c3.33-6.32,7.15-8.81,10.31-10.14
			c3.16-1.33,9.98-3.82,14.3-6.15c4.32-2.33,5.27-6.43,5.27-6.43c6.34,109.55-114.41,150.1-182.9,161.3
			C316.34,601.53,357.21,614,400,614c57.16,0,110.9-22.26,151.32-62.68C591.74,510.9,614,457.16,614,400S591.74,289.1,551.32,248.68
			z"/>
		
			<linearGradient id="SVGID_00000154411290448550030930000002057202760967427497_" gradientUnits="userSpaceOnUse" x1="283.6415" y1="376.3092" x2="685.0153" y2="535.4418">
			<stop  offset="0.2928" style="stop-color:#E2D393"/>
			<stop  offset="1" style="stop-color:#C19263"/>
		</linearGradient>
		<path fill="url(#SVGID_00000154411290448550030930000002057202760967427497_)" d="M487.54,417c0,0,6.16,29.26-15.56,77.37
			c-21.73,48.11-19.73,82.91-19.73,82.91s9.75-6.21,15.74-7.54c0,0-24.83,21.5-26.82,25.49c0,0-10.2-43.9,16.18-90.01
			C483.73,459.12,487.54,417,487.54,417z M300.06,583.71c77.81,23.61,116.06-15.96,116.06-15.96
			c-39.24,15.63-68.17,10.64-68.17,10.64c82.14-27.27,96.1-66.51,96.1-66.51C395.83,566.42,300.06,583.71,300.06,583.71z
			 M417.78,347.94c-3.99-3.66-13.97,9.64-13.97,9.64C411.12,356.92,421.77,351.6,417.78,347.94z M474.31,260.98
			c6.15,7.81,6.98,13.14,6.98,13.14c-22.45-10.64-36.58-10.14-36.58-10.14c-0.5,17.29-13.3,26.1-13.3,26.1
			c9.98-47.39-28.76-66.18-28.76-66.18c0,5.99-1.05,34.58-0.83,44.34c0.22,9.75,5.99,13.08,5.99,13.08
			c-0.78-13.08,2.33-36.91,2.33-36.91c15.3,22.28,12.08,39.13,9.87,43.34c-2.99-3.1-14.52-4.1-16.85-2.55
			c-15.08,11.97-23.5,32.26-23.5,32.26c0-9.2,7.76-22.95,7.76-22.95c-20.73,7.32-21.06,36.14-21.06,36.14
			c-4.1-2.22-7.54,2.44-10.09,6.43c-2.55,3.99-1.88,7.09-0.44,8.65c1.44,1.55,2,4.1,2.55,9.09c0.55,4.99,2.77,5.43,9.2,4.1
			c6.43-1.33,6.54-7.09,6.54-12.08s0.44-6.32,1.33-6.21c0.89,0.11,1.33,1.22,1.77,9.53c0.44,8.31,2.58,8.59,14.47,8.42
			c11.89-0.17,16.02-22.39,16.02-28.71c7.69-9.31,24.83-4.88,24.83-4.88c-23.94,4.21-20.4,16.96-20.4,16.96
			c3.16-1.5,22.78-1.66,22.78-1.66c-17.13,22.78-28.43,25.44-33.09,26.27s-4.66,4.66-1.81,5.32c15.81,3.49,32.07-17.96,32.07-17.96
			c-9.81,28.6-35.69,22.72-35.69,22.72l-14.85,54.76c1.11-10.64,6.82-56.86,7.15-61.85c0.33-4.99-6.65-6.15-11.47-6.32
			s-12.64,2.83-15.13,7.98c0.5,13.97-5.49,72.83-5.49,72.83c3.33,0.17,9.81,1.66,9.81,1.66c-4.16,1-15.63,5.99-18.62,7.81
			s-3.33,10.81-0.17,14.02c9.53,9.09,8.87,19.95,8.87,19.95c-4.21-1.77-5.54-3.55-5.54-3.55c-0.89,7.98,3.77,10.42,11.2,10.42
			s13.3,1.77,19.29,3.1c5.99,1.33,11.75-4.77,13.74-10.31c2-5.54,9.64-22.5,11.97-27.93c2.33-5.43,5.32-5.76,9.75-3.88
			c4.43,1.88,4.77,6.43,4.77,6.43c-2.22-0.67-4.43-0.55-6.54,1.77c-2.11,2.33-13.97,16.63-16.07,23.94
			c-2.11,7.32-8.98,11.75-11.42,12.53c-2.44,0.78-8.65,0.61-11.53-0.72c-2.88-1.33-7.15-0.78-10.86-0.94
			c-3.71-0.17-3.49,1.72-3.49,1.72c14.96,0.83,21.45,6.15,33.09,5.99c11.64-0.17,36.25-37.91,36.25-37.91
			c-8.48-12.14-8.4-34.33-8.4-34.33s-2.13-0.19-4.35-0.42c-2.22-0.22-5.99,5.76-7.98,11.97c-2.66-3.55,2.44-15.63,2.44-15.63
			c47.22-1.33,70.5-51.88,72.83-70.17c-3.33-16.96-32.92-43.9-32.92-43.9c127.03,42.57,29.93,211.5,29.93,211.5
			c94.77-78.81,76.48-143.99,76.48-143.99c-7.65,14.3-10.64,16.81-10.64,16.81c1-54.02-44.56-112.25-44.56-112.25
			c95.44,34.92,92.78,137.67,92.78,137.67C625.61,291.08,514.54,260.04,474.31,260.98z M378.54,457.68
			c5.99-3.33,13.63-1.33,14.63,4.32s-6.98,22.61-25.61,9.98C367.56,471.98,372.55,461.01,378.54,457.68z M367.34,479.52
			c0,0,19.73,7.76,27.71-4.43C394.52,484.78,377.7,489.73,367.34,479.52z"/>
	</g>
	
		<linearGradient id="SVGID_00000049900870610031211200000015842196228898292871_" gradientUnits="userSpaceOnUse" x1="380.3509" y1="210.9896" x2="564.5011" y2="275.5124">
		<stop  offset="0" style="stop-color:#E2D393"/>
		<stop  offset="1" style="stop-color:#C19263"/>
	</linearGradient>
	<path fill="url(#SVGID_00000049900870610031211200000015842196228898292871_)" d="M564.2,276.45
		c-22.17-41.24-62.07-62.52-108.63-68.28c-46.56-5.76-74.71,18.4-74.71,18.4l14.3,23.28l-4.99-17.29c0,0,9.37-5.97,26.51-10.31
		l6.64,16.18l-1.38-17.4c7.05-1.49,15.2-2.63,24.35-3.03l1.08,24.2l6.96-24.34c3.44,0.02,6.99,0.14,10.67,0.4
		c4.21,0.3,8.46,1.01,12.7,2.05l-3.84,23.67l12.69-21.03c6.71,2.34,13.34,5.38,19.73,8.83l-6.49,15.63l11.28-12.95
		c5.24,3.05,10.28,6.33,15.04,9.66l-4.14,9.94l7.63-7.45c4.62,3.36,8.93,6.73,12.82,9.94l-2.72,4.39l5.43-2.12
		C556.84,268.67,564.2,276.45,564.2,276.45z"/>
	
		<linearGradient id="SVGID_00000106105949768492771870000010114507895023442069_" gradientUnits="userSpaceOnUse" x1="399.7149" y1="468.8823" x2="399.7149" y2="698.9357">
		<stop  offset="0.5285" style="stop-color:#E2D393"/>
		<stop  offset="1" style="stop-color:#C19263"/>
	</linearGradient>
	<path fill="url(#SVGID_00000106105949768492771870000010114507895023442069_)" d="M156.57,467.29c1.31-0.3,2.05-0.06,2.24,0.73
		l1.01,4.36c0.19,0.81-0.35,1.37-1.62,1.66l-29.43,6.81c-1.88,0.35-3.62,0.51-5.23,0.48c-3.51-0.02-6.12-1.09-7.81-3.21
		c-0.47-0.49-0.93-1.26-1.4-2.29l-1.98-8.55c-0.11-1.23,0.04-2.41,0.45-3.54c0.29-1.24,1.37-2.53,3.24-3.88
		c1.9-1.18,4.12-2.16,6.66-2.91l6.77-1.57c1.26-0.29,1.99-0.03,2.18,0.78l0.93,4.03c0.19,0.81-0.35,1.37-1.62,1.66l-5.57,1.29
		c-2.74,1.03-4,2.43-3.77,4.18l1.02,4.4c0.58,1.75,2.44,2.47,5.56,2.15L156.57,467.29z M158.77,475.5c1.28-0.4,2.04-0.22,2.29,0.55
		l1.2,3.83c0.25,0.8-0.24,1.39-1.48,1.78l-38.56,12.1c-1.24,0.39-1.98,0.19-2.23-0.61l-1.19-3.79c-0.25-0.8,0.24-1.39,1.48-1.78
		L158.77,475.5z M165.27,492.59c1.37-0.21,2.21,0.06,2.52,0.81l2.22,5.33c0.32,0.77-0.05,1.56-1.13,2.37l-33.35,24.87
		c-1.11,0.82-1.82,0.86-2.13,0.12l-1.78-4.28c-0.32-0.77,0.05-1.56,1.12-2.37l3.2-2.46c0.84-0.68,1.14-1.33,0.88-1.95l-4-9.61
		c-0.26-0.62-1.09-0.81-2.5-0.59c-1.07,0.14-2.12,0.32-3.15,0.54c-1.49,0.26-2.39,0-2.71-0.77l-1.94-4.67
		c-0.32-0.77,0.18-1.25,1.51-1.44C137.74,496.49,151.49,494.52,165.27,492.59z M157.78,501.14c1.22-0.9,1.19-1.25-0.08-1.05
		l-14.03,2.3c-1.4,0.25-1.96,0.7-1.7,1.34l2.46,5.9c0.26,0.62,0.87,0.57,1.85-0.13L157.78,501.14z M173.06,510.28
		c1.18-0.64,1.96-0.61,2.35,0.1l2.42,4.44c0.4,0.73,0.16,1.64-0.73,2.73c-6.22,7.59-12.45,15.29-18.69,23.11
		c-0.46,0.51-0.39,0.78,0.23,0.83c0.33-0.12,0.91-0.41,1.75-0.86l22.58-12.33c1.14-0.62,1.91-0.57,2.31,0.17l1.9,3.49
		c0.4,0.73,0.03,1.41-1.11,2.04l-35.47,19.36c-1.14,0.62-1.91,0.57-2.31-0.17l-2.46-4.51c-0.4-0.73-0.16-1.64,0.73-2.73l18.48-23.23
		c0.99-1.18,0.93-1.46-0.17-0.86l-24.24,13.23c-1.14,0.62-1.91,0.57-2.31-0.17l-1.78-3.27c-0.4-0.73-0.03-1.41,1.11-2.04
		L173.06,510.28z M188.03,536.73c2.32,0.58,4.11,1.6,5.36,3.07l6.97,9.82c0.54,1.06,0.88,2.18,1.03,3.37
		c0.38,3.9-1.8,7.38-6.54,10.43c-1.06,0.75-1.83,0.79-2.31,0.11l-2.35-3.31c-0.48-0.68-0.23-1.45,0.77-2.29
		c1.35-1.54,1.64-2.92,0.88-4.16l-5.37-7.57c-2.02-1.5-4.37-1.34-7.06,0.49l-11.02,7.82c-2.4,1.7-3.26,3.83-2.56,6.38l5.37,7.57
		c1.88,1.91,4.03,1.79,6.43-0.36c1.2-0.85,1.6-1.56,1.2-2.13l-3.31-4.67c-0.48-0.68-0.2-1.4,0.87-2.15l3.71-2.63
		c1.06-0.75,1.83-0.79,2.32-0.1l6.92,9.75c0.48,0.68,0.2,1.4-0.86,2.15l-8.9,6.31c-3.53,2.36-6.94,3.42-10.25,3.17
		c-2.59-0.66-4.65-2.02-6.16-4.09l-5.95-8.39c-2.73-5.34-0.48-10.71,6.74-16.1l13.99-9.92
		C180.78,537.29,184.16,536.43,188.03,536.73z M203.44,558.28c0.63-1.3,1.21-1.66,1.73-1.09l3.6,3.9c0.57,0.61,0.55,1.55-0.07,2.8
		l-5.16,10.69c-0.5,1.18-0.08,1.51,1.27,0.99l10.36-4.11c1.54-0.63,2.6-0.63,3.16-0.02l3.6,3.9c0.57,0.61,0.19,1.16-1.15,1.63
		l-17.9,6.48c-1.33,0.47-2.31,1.33-2.92,2.58l-8.46,18.7c-0.61,1.32-1.18,1.68-1.73,1.09l-4.17-4.51c-0.57-0.61-0.54-1.53,0.1-2.77
		l5.33-10.51c0.6-1.2,0.25-1.58-1.05-1.14c-3.72,1.39-7.42,2.82-11.09,4.27c-1.3,0.51-2.23,0.46-2.79-0.15l-3.63-3.93
		c-0.57-0.61-0.2-1.18,1.09-1.69l19.06-7.14c1.23-0.45,2.17-1.35,2.83-2.68L203.44,558.28z M222.21,578.15
		c0.92-0.98,1.67-1.2,2.26-0.65l2.94,2.73c0.61,0.57,0.48,1.33-0.41,2.28l-27.54,29.58c-0.89,0.95-1.63,1.14-2.25,0.57l-2.91-2.71
		c-0.61-0.57-0.48-1.33,0.41-2.28L222.21,578.15z M243.71,595.37c0.75-1.12,1.46-1.45,2.13-1l16.38,10.99
		c3.31,3.32,3.2,8.46-0.33,15.42c-0.17,0.41-0.39,0.81-0.66,1.21l-9.63,14.36c-1.02,1.41-2.17,2.73-3.46,3.96
		c-1.44,1.5-3.02,2.4-4.74,2.71c-1.86,0.48-3.84,0.25-5.94-0.68l-16.38-10.99c-0.7-0.47-0.68-1.24,0.05-2.32L243.71,595.37z
		 M254.56,619.94c2.26-3.52,2.49-6.29,0.7-8.33l-8.85-5.94c-0.58-0.39-1.17-0.13-1.78,0.77l-13.05,19.45
		c-0.61,0.9-0.62,1.55-0.04,1.94l8.54,5.73c2.32,1.09,4.79,0.07,7.39-3.06L254.56,619.94z M276.46,616.57
		c0.91-1.04,1.72-1.38,2.44-1.02l5.14,2.62c0.74,0.38,0.97,1.22,0.68,2.53l-9.29,40.56c-0.31,1.35-0.83,1.84-1.55,1.47l-4.13-2.11
		c-0.74-0.38-0.97-1.22-0.68-2.53l0.84-3.95c0.2-1.07,0-1.75-0.59-2.05l-9.27-4.73c-0.6-0.3-1.36,0.09-2.28,1.17
		c-0.72,0.8-1.41,1.62-2.05,2.45c-0.97,1.16-1.82,1.55-2.57,1.17l-4.51-2.3c-0.74-0.38-0.67-1.07,0.22-2.08
		C258.01,637.38,267.21,626.97,276.46,616.57z M276.3,627.93c0.35-1.48,0.1-1.73-0.75-0.74l-9.19,10.85c-0.9,1.1-1.05,1.8-0.42,2.12
		l5.7,2.91c0.6,0.3,1.03-0.13,1.32-1.3L276.3,627.93z M293.82,624.7c0.49-1.25,1.09-1.74,1.8-1.46l17.82,6.93
		c1.01,0.58,1.86,1.31,2.54,2.17c1.12,1.83,1.28,3.96,0.47,6.39l-3.56,9.14c-0.88,1.98-1.94,3.43-3.17,4.34
		c-1.11,0.59-1.46,1.39-1.05,2.38c0.4,1.74,0.23,3.65-0.5,5.73l-4.48,11.5c-0.47,1.21-1.07,1.67-1.81,1.39l-3.82-1.49
		c-0.73-0.29-0.87-1.03-0.39-2.25l3.49-8.96c0.82-2.1,0.6-3.83-0.64-5.2l-9.18-3.57c-0.61-0.24-1.12,0.15-1.51,1.16l-4.57,11.75
		c-0.47,1.21-1.07,1.67-1.81,1.39l-3.86-1.5c-0.74-0.29-0.87-1.03-0.4-2.24L293.82,624.7z M307.73,637.01l-9.26-3.6
		c-0.61-0.24-1.11,0.15-1.51,1.16l-2.66,6.84c-0.39,1.01-0.28,1.63,0.33,1.87l9.37,3.64c0.94,0.27,1.9-0.35,2.89-1.88
		c1.05-2.33,1.64-4.19,1.79-5.58C308.7,638.32,308.39,637.5,307.73,637.01z M319.31,634.57c0.34-1.3,0.9-1.85,1.69-1.64l4,1.06
		c0.81,0.21,1.05,0.95,0.72,2.2l-4.16,15.77c-0.3,1.13,0.12,1.15,1.24,0.06c4.25-4.43,8.6-8.86,13.05-13.29
		c0.98-0.99,1.88-1.39,2.69-1.17l5.05,1.33c0.81,0.21,0.68,0.85-0.38,1.92c-4.42,4.43-8.81,8.88-13.15,13.33
		c-0.87,0.89-1.18,1.86-0.94,2.91l5.47,23.21c0.36,1.48,0.15,2.12-0.63,1.91l-6.18-1.63c-0.81-0.21-1.36-1.03-1.65-2.45l-4.74-21.88
		c-0.29-1.29-0.59-1.36-0.89-0.23l-5.08,19.29c-0.33,1.26-0.9,1.78-1.71,1.57l-3.96-1.04c-0.81-0.21-1.05-0.95-0.72-2.21
		L319.31,634.57z M363.76,644.83c0.08-1.34,0.52-1.99,1.33-1.94l4.47,0.26c0.83,0.05,1.21,0.72,1.14,2.02l-0.78,13.43
		c-0.06,1.08,0.25,1.64,0.95,1.68l11.52,0.67c0.69,0.04,1.07-0.48,1.14-1.56l0.78-13.43c0.08-1.3,0.53-1.92,1.37-1.87l4.3,0.25
		c0.83,0.05,1.21,0.72,1.14,2.02l-2.36,40.34c-0.08,1.3-0.53,1.92-1.36,1.87l-4.3-0.25c-0.83-0.05-1.21-0.72-1.14-2.02l0.88-15.11
		c0.06-1.08-0.25-1.64-0.95-1.68l-11.52-0.67c-0.7-0.04-1.08,0.48-1.14,1.56l-0.88,15.11c-0.08,1.3-0.53,1.92-1.37,1.87l-4.42-0.26
		c-0.83-0.05-1.22-0.72-1.14-2.02L363.76,644.83z M395.73,646.84c1.42-1.21,3.05-1.97,4.9-2.27h12.59c2.42,0.39,4.59,2.19,6.5,5.39
		c1.03,2.6,1.58,5.57,1.63,8.9v16.89c-0.05,1.39-0.27,3.12-0.65,5.2c-0.82,3.86-2.66,6.26-5.52,7.21c-0.71,0.39-1.62,0.63-2.74,0.71
		H399.2c-3.7-0.56-5.87-3.36-6.5-8.38c-0.16-1.17-0.29-2.36-0.37-3.57v-20.01C392.47,652.92,393.6,649.57,395.73,646.84z
		 M402.96,653.92c-2.21-0.04-3.64,1.73-4.29,5.33v15.85c0.33,2.6,1.47,4.07,3.43,4.42h9.03c1.85-0.17,2.96-1.73,3.31-4.68v-15.46
		c-0.16-3.03-1.2-4.85-3.11-5.46H402.96z M422.35,645.34c-0.09-1.34,0.26-2.04,1.03-2.09l19.48-1.29c1.19,0.09,2.29,0.39,3.29,0.89
		c1.83,1.18,2.89,3.04,3.19,5.58l0.65,9.79c0.03,2.17-0.32,3.93-1.06,5.28c-0.77,1.01-0.75,1.87,0.05,2.6
		c1.12,1.4,1.79,3.2,2.01,5.4l0.81,12.32c0.09,1.3-0.28,1.97-1.08,2.03l-4.18,0.28c-0.81,0.05-1.25-0.57-1.33-1.86l-0.63-9.6
		c-0.15-2.25-1.1-3.73-2.84-4.43l-10.04,0.66c-0.67,0.04-0.97,0.61-0.9,1.69l0.83,12.58c0.09,1.3-0.28,1.97-1.08,2.03l-4.22,0.28
		c-0.8,0.05-1.25-0.57-1.33-1.87L422.35,645.34z M440.52,650.59l-10.12,0.67c-0.67,0.04-0.97,0.61-0.9,1.69l0.48,7.33
		c0.07,1.08,0.44,1.6,1.11,1.56l10.24-0.68c0.98-0.15,1.61-1.13,1.86-2.92c-0.04-2.56-0.28-4.5-0.75-5.81
		C441.98,651.36,441.34,650.75,440.52,650.59z M451.27,642.2c1.24-2.3,3.19-3.83,5.86-4.6l11.67-2.18c4.28,0.48,7.03,3.62,8.23,9.44
		c0.24,1.28-0.05,1.99-0.88,2.15l-4.48,0.84c-0.82,0.15-1.3-0.11-1.42-0.79c-0.22-1.33-1.03-2.19-2.44-2.59l-8.84,1.65
		c-1.58,0.95-1.99,2.67-1.25,5.12c0.12,2.14,0.98,3.34,2.59,3.61l12.62-2.36c1.12-0.08,2.3,0.19,3.55,0.79
		c1.97,1.31,3.34,3.54,4.1,6.7l1.69,9.07c0.46,5.68-1.15,8.96-4.84,9.83l-13.68,2.56c-1.39,0.13-2.56-0.03-3.49-0.47
		c-3.36-1.44-5.36-4.81-6.01-10.11c-0.24-1.28,0.05-1.99,0.87-2.15l4.31-0.81c0.82-0.15,1.29,0.09,1.41,0.73
		c0.22,1.77,0.98,2.81,2.29,3.14l10.15-1.9c1.65-0.75,2.12-2.31,1.42-4.69c-0.03-2.28-1.05-3.5-3.07-3.66l-11.46,2.14
		c-1.29,0.07-2.46-0.13-3.51-0.6c-1.2-0.35-2.38-1.58-3.54-3.7c-1.41-3.13-2.27-7.06-2.59-11.81
		C450.27,645.58,450.51,643.79,451.27,642.2z M475.35,634.17c-0.39-1.28-0.2-2.04,0.57-2.28l21.67-6.62c0.8-0.24,1.39,0.25,1.77,1.5
		l1.59,5.22c0.38,1.24,0.17,1.99-0.63,2.23l-15.23,4.65c-0.67,0.2-0.84,0.82-0.52,1.86l1.44,4.72c0.32,1.04,0.81,1.45,1.47,1.25
		l13.87-4.24c0.8-0.24,1.39,0.26,1.77,1.5l1.46,4.79c0.38,1.24,0.17,1.99-0.63,2.23l-13.87,4.24c-0.67,0.2-0.84,0.82-0.52,1.86
		l1.46,4.78c0.32,1.04,0.81,1.45,1.48,1.25l15.95-4.88c0.8-0.24,1.39,0.25,1.77,1.5l1.67,5.47c0.38,1.24,0.17,1.99-0.63,2.23
		l-22.35,6.83c-0.8,0.24-1.39-0.25-1.77-1.5L475.35,634.17z M531.09,609.66c-0.68-1.16-0.67-1.94,0.02-2.35l3.86-2.27
		c0.72-0.42,1.41-0.08,2.07,1.04l15.32,26.04c0.89,1.69,1.57,3.3,2.02,4.84c1.04,3.36,0.8,6.16-0.73,8.42
		c-0.33,0.6-0.92,1.27-1.77,2.02l-7.57,4.45c-1.15,0.47-2.31,0.68-3.51,0.63c-1.27,0.1-2.83-0.55-4.67-1.93
		c-1.7-1.46-3.29-3.29-4.78-5.48l-3.53-5.99c-0.66-1.12-0.63-1.89,0.09-2.32l3.57-2.1c0.72-0.42,1.41-0.07,2.07,1.05l2.9,4.93
		c1.81,2.3,3.51,3.08,5.11,2.34l3.89-2.29c1.5-1.08,1.62-3.07,0.38-5.95L531.09,609.66z M538.16,606.06
		c-0.8-1.08-0.89-1.85-0.25-2.32l3.51-2.61c0.66-0.49,1.37-0.21,2.15,0.83l16.05,21.58c2.41,2.69,4.59,3.5,6.54,2.43l4.66-3.46
		c1.66-1.24,1.74-3.32,0.24-6.25l-16.63-22.36c-0.78-1.04-0.84-1.81-0.18-2.29l3.51-2.61c0.66-0.49,1.37-0.21,2.15,0.83l17.06,22.94
		c0.92,1.37,1.75,2.9,2.51,4.61c1.73,4.06,1.86,7.25,0.4,9.58c-0.45,0.71-0.97,1.37-1.55,1.96l-8.36,6.22
		c-4.68,2.02-9.63-0.07-14.86-6.28L538.16,606.06z M560.4,589.86c-0.91-0.99-1.07-1.75-0.49-2.29l3.63-3.33
		c0.6-0.55,1.53-0.52,2.79,0.09c8.79,4.28,17.69,8.56,26.7,12.81c0.6,0.33,0.85,0.2,0.73-0.41c-0.19-0.29-0.61-0.79-1.25-1.49
		l-17.38-18.97c-0.88-0.96-1.02-1.71-0.42-2.26l2.85-2.61c0.6-0.55,1.34-0.35,2.22,0.61l27.3,29.8c0.88,0.96,1.02,1.71,0.42,2.26
		l-3.69,3.38c-0.6,0.55-1.53,0.52-2.79-0.09l-26.76-12.58c-1.37-0.69-1.63-0.57-0.78,0.36l18.65,20.36
		c0.88,0.96,1.02,1.71,0.42,2.26l-2.67,2.45c-0.6,0.55-1.34,0.35-2.22-0.61L560.4,589.86z M581.31,570.73
		c-0.97-0.93-1.18-1.68-0.62-2.27l2.76-2.91c0.58-0.61,1.33-0.46,2.28,0.43l29.3,27.84c0.94,0.9,1.12,1.65,0.55,2.25l-2.73,2.88
		c-0.58,0.61-1.33,0.46-2.28-0.43L581.31,570.73z M589.72,561.59c-0.07-1.86,0.35-3.58,1.27-5.18l7.85-9.5
		c1.82-1.58,4.58-2.04,8.29-1.4c2.69,0.91,5.36,2.42,8.02,4.55l13.28,10.97c1.05,0.94,2.28,2.23,3.68,3.87
		c2.52,3.12,3.26,6.07,2.23,8.85c-0.14,0.79-0.52,1.63-1.15,2.53l-8.26,10c-2.75,2.43-6.3,2.25-10.64-0.54
		c-1.02-0.64-2.03-1.32-3.04-2.04l-15.73-13C592.47,568,590.54,564.97,589.72,561.59z M599.8,560.73c-1.41,1.64-0.91,3.87,1.51,6.7
		l12.46,10.3c2.25,1.44,4.12,1.53,5.61,0.28l5.63-6.82c1.02-1.51,0.48-3.36-1.61-5.54l-12.15-10.04c-2.48-1.84-4.56-2.24-6.23-1.2
		L599.8,560.73z M605.77,541.67c-1.16-0.77-1.51-1.49-1.07-2.14l11.04-16.52c0.82-0.9,1.74-1.6,2.77-2.09
		c2.1-0.73,4.29-0.42,6.56,0.94l8.44,5.63c1.8,1.33,3.03,2.72,3.67,4.18c0.35,1.25,1.07,1.78,2.17,1.59
		c1.84-0.02,3.74,0.57,5.68,1.77l10.61,7.09c1.12,0.75,1.45,1.46,0.99,2.14l-2.36,3.54c-0.46,0.68-1.24,0.65-2.36-0.1l-8.27-5.52
		c-1.93-1.29-3.74-1.46-5.4-0.5l-5.69,8.52c-0.38,0.57-0.1,1.16,0.83,1.78l10.84,7.24c1.12,0.75,1.45,1.46,0.99,2.14l-2.39,3.58
		c-0.46,0.68-1.24,0.65-2.36-0.1L605.77,541.67z M621.35,530.31l-5.73,8.58c-0.38,0.57-0.1,1.16,0.83,1.78l6.31,4.21
		c0.93,0.62,1.59,0.65,1.97,0.08l5.8-8.69c0.49-0.89,0.07-2-1.24-3.34c-2.12-1.58-3.86-2.6-5.23-3.05
		C622.9,529.61,622,529.75,621.35,530.31z M630.01,502.62c-1.25-0.5-1.72-1.12-1.42-1.87l8.65-21.66c0.31-0.78,1.07-0.93,2.27-0.44
		l5.07,2.02c1.21,0.48,1.66,1.11,1.35,1.89l-6.26,15.68c-0.26,0.65,0.12,1.17,1.12,1.57l5.79,2.31c1.01,0.4,1.64,0.28,1.9-0.37
		l5.21-13.05c0.31-0.78,1.07-0.92,2.28-0.44l4.59,1.83c1.21,0.48,1.65,1.11,1.34,1.89l-5.21,13.05c-0.26,0.65,0.12,1.17,1.12,1.57
		l12.13,4.84c1.21,0.48,1.66,1.11,1.35,1.89l-1.52,3.81c-0.31,0.78-1.07,0.92-2.27,0.44L630.01,502.62z M641.14,474
		c-0.18-1-0.19-2.24-0.02-3.72l3.23-12.2c0.91-2.07,2.11-3.48,3.61-4.24c4.38-1.47,8.81-1.37,13.3,0.27
		c1.26,0.33,1.78,0.9,1.56,1.71l-1.13,4.29c-0.21,0.81-0.95,1.04-2.2,0.71c-3.34-1.08-5.66-0.53-6.96,1.67l-2.14,8.08
		c-0.45,2.22,1.1,4.04,4.67,5.47l13.5,3.57c2.85,0.75,5.03,0.05,6.54-2.12l2.35-8.89c-0.16-2.29-1.82-3.88-4.99-4.78
		c-1.58-0.45-2.27-1.08-2.06-1.88l1.04-3.92c0.21-0.81,0.95-1.05,2.2-0.71c4.55,0.94,8.32,2.78,11.32,5.5
		c0.94,1,1.53,2.01,1.75,3.02c0.43,1.41,0.51,2.89,0.24,4.43l-3.17,11.96c-0.51,1.25-1.11,2.24-1.8,2.98
		c-2.3,2.42-6.02,3.13-11.19,2.14l-17.9-4.73c-3.59-0.98-6.76-2.54-9.51-4.68C642.11,476.84,641.36,475.53,641.14,474z"/>
</g>
<g>
</g>
<g>
</g>
<g>
</g>
<g>
</g>
<g>
</g>
<g>
</g>
<g>
</g>
<g>
</g>
<g>
</g>
<g>
</g>
<g>
</g>
</svg>
