<?xml version="1.0" encoding="utf-8"?>
<!-- Created by @FCLOGO 2025-2-8 GMT+8 16:02:47 . https://fclogo.top/ -->
<!-- FOR PERSONAL USE ONLY NOT FOR COMMERCIAL USE -->
<svg version="1.1" xmlns="http://www.w3.org/2000/svg" xmlns:xlink="http://www.w3.org/1999/xlink" x="0px" y="0px"
	 viewBox="0 0 800 800" style="enable-background:new 0 0 800 800;" xml:space="preserve">
<path style="fill:#004B7A;" d="M400,190.5841H146.3957v416.9742L400,750l253.6043-142.4418V190.5841H400z M616.2059,580.9208
	L400.0002,702.3575l-216.206-121.4368V227.9825h432.4117V580.9208z M561.8444,327.6103l-46.0375,25.986v-51.0754h62.4136v-34.7211
	h-97.1348v105.398l-29.4972,16.6512V267.7997H304.4098l26.4104,34.7211h17.7922v145.4558l-92.0177,51.9422V267.7997h-34.7211
	v295.0195l34.7211-19.5955l92.0177-51.9422v138.4809l34.7211,19.6934V471.6801l33.5398-18.9307l34.7152-19.6015l29.4972-16.6512
	v196.9987l34.7212-19.7757V396.9012l46.0375-25.9881V327.6103z M416.8733,409.4445l-33.5398,18.9366V302.5208h33.5398V409.4445z
	 M355.2957,101.8073v5.207h-21.3058v-5.207c0-6.3223,4.7788-11.4661,10.6531-11.4661
	C350.5168,90.3412,355.2957,95.485,355.2957,101.8073z M466.1256,101.8073v5.207h-21.3058v-5.207
	c0-6.3223,4.7788-11.4661,10.653-11.4661C461.3468,90.3412,466.1256,95.485,466.1256,101.8073z M146.3957,50v120.2721h507.2086V50
	H146.3957z M306.9319,127.1497H159.4357V93.1224h147.4963V127.1497z M365.9809,135.3088c0,2.9507-2.3919,5.3426-5.3426,5.3426
	c-2.9507,0-5.3426-2.3919-5.3426-5.3426v-17.6093h-21.3058v17.6093c0,2.9507-2.3919,5.3426-5.3426,5.3426
	s-5.3426-2.3919-5.3426-5.3426v-33.5015c0-12.2145,9.5722-22.1514,21.3383-22.1514c11.7658,0,21.338,9.9368,21.338,22.1514V135.3088
	z M418.9156,90.3058h-15.874c-5.767,0-10.4586,4.6916-10.4586,10.4586v6.2151h20.2774c2.9507,0,5.3426,2.3919,5.3426,5.3426
	c0,2.9507-2.3919,5.3426-5.3426,5.3426H392.583v17.2673c0,2.9507-2.3919,5.3426-5.3426,5.3426
	c-2.9507,0-5.3426-2.3919-5.3426-5.3426v-34.1676c0-11.6586,9.4849-21.1438,21.1438-21.1438h15.874
	c2.9507,0,5.3426,2.3919,5.3426,5.3426C424.2582,87.9139,421.8663,90.3058,418.9156,90.3058z M476.8109,135.3088
	c0,2.9507-2.3919,5.3426-5.3426,5.3426c-2.9507,0-5.3426-2.3919-5.3426-5.3426v-17.6093h-21.3058v17.6093
	c0,2.9507-2.3919,5.3426-5.3426,5.3426c-2.9507,0-5.3426-2.3919-5.3426-5.3426v-33.5015c0-12.2145,9.5722-22.1514,21.3383-22.1514
	c11.7658,0,21.338,9.9368,21.338,22.1514V135.3088z M640.5643,127.1497H493.0681V93.1224h147.4962V127.1497z"/>
<g>
</g>
<g>
</g>
<g>
</g>
<g>
</g>
<g>
</g>
<g>
</g>
<g>
</g>
<g>
</g>
<g>
</g>
<g>
</g>
<g>
</g>
<g>
</g>
<g>
</g>
<g>
</g>
<g>
</g>
</svg>
