<?xml version="1.0" encoding="utf-8"?>
<!-- Generator: Adobe Illustrator 26.0.3, SVG Export Plug-In . SVG Version: 6.00 Build 0)  -->
<svg version="1.1" id="图层_1" xmlns="http://www.w3.org/2000/svg" xmlns:xlink="http://www.w3.org/1999/xlink" x="0px" y="0px"
	 viewBox="0 0 800 800" style="enable-background:new 0 0 800 800;" xml:space="preserve">
<path style="fill:#171819;" d="M203.7371,607.4177l16.0787-13.1476l-11.6559,17.2632L203.7371,607.4177z M198.4759,573.9133
	c0.8656-0.642,1.6431-1.3627,2.3311-2.1608c0.6875-0.7977,0.9225-1.687,0.7048-2.668c-0.1598-0.4778-0.4237-0.9517-0.7916-1.4218
	c-0.3684-0.4697-0.7588-0.9129-1.1727-1.3287c-0.2751-0.2881-0.5185-0.5571-0.7302-0.8069l-0.1362-0.1605
	c-0.3389,0.2874-0.8029,0.6808-1.3916,1.1801c-0.5887,0.4993-1.1676,0.9749-1.7353,1.4256
	c-0.7855,0.6661-1.2756,1.0817-1.4718,1.2482l-20.4718,17.3606c-0.0179,0.0151-0.0446,0.0378-0.0803,0.0681
	c-0.0178,0.0151-0.0285,0.0395-0.0308,0.0721l-0.0268,0.0226l-0.0267,0.0227c0.1513,0.1785,0.3026,0.3569,0.4538,0.5353
	c0.2572,0.3032,0.505,0.6144,0.7448,0.9325c0.0303,0.0356,0.053,0.0624,0.0681,0.0803c0.2362,0.3517,0.4683,0.6609,0.6953,0.9285
	c1.1358,1.1224,2.2645,1.4227,3.3861,0.9009c1.1217-0.5218,2.1964-1.2798,3.2241-2.274c0.1963-0.1664,0.3921-0.3325,0.5888-0.4993
	l15.1197-12.8219C197.958,574.3524,198.2083,574.1403,198.4759,573.9133z M488.3578,148.9759
	c0.9201,0.4125,1.758,0.4716,2.5146,0.1756c0.5921-0.2554,1.0742-0.6522,1.4455-1.1886c0.3714-0.5365,0.6538-1.0683,0.8473-1.5952
	l5.0424-13.7352c0.4515-1.2298,0.9329-2.4733,1.4444-3.7308c1.1614-2.6885,2.1172-5.4274,2.8672-8.2171
	c0.2794-1.1682,0.1315-2.157-0.4435-2.9661c-0.3402-0.4986-0.8177-0.8608-1.4325-1.0866c-0.3513-0.129-0.7338-0.2071-1.1474-0.2344
	c-1.4384-0.1543-2.5719,0.863-3.3997,3.0503c-0.3686,0.9362-0.7112,1.8695-1.0279,2.7998
	c-0.0163,0.0444-0.0321,0.0878-0.0483,0.1317c-0.1774,0.4831-0.3549,0.9667-0.5321,1.4493l-5.9615,16.2385
	c-0.1693,0.4612-0.3346,0.9113-0.4958,1.3505c-0.3527,0.8928-0.683,1.7925-0.9916,2.7009
	C486.2099,146.5802,486.6496,148.1993,488.3578,148.9759z M604.6324,606.0299l-10.2711-10.4197
	c-0.9196-0.9328-1.8389-1.8988-2.7579-2.8978c-1.936-2.1973-4.0054-4.23-6.2084-6.0984c-0.9374-0.751-1.8946-1.0391-2.8717-0.8641
	c-0.5961,0.095-1.1273,0.3723-1.5938,0.8321c-0.2665,0.2628-0.5003,0.5753-0.7014,0.9377
	c-0.7532,1.2351-0.3166,2.6943,1.3084,4.3761c0.6894,0.7327,1.3872,1.4406,2.0936,2.1239c0.0333,0.0337,0.0657,0.0666,0.0985,0.1
	c0.3613,0.3665,0.7229,0.7333,1.0839,1.0994l12.1429,12.3187c0.3448,0.3498,0.6815,0.6913,1.0099,1.0246
	c0.657,0.6997,1.3298,1.3824,2.0197,2.0488c1.8726,1.7998,3.5245,2.0929,4.9556,0.8792c0.7656-0.6561,1.1765-1.3888,1.2314-2.1993
	c0.0216-0.6446-0.1316-1.2498-0.4584-1.8145S605.0266,606.4297,604.6324,606.0299z M611.9468,565.8999
	c0,0-2.6161-2.1227-3.7875-2.9483c-2.1664-1.5795-4.084-1.2783-5.7515,0.9045c-0.1327,0.1671-1.0571,1.5609-1.376,1.9205
	c0.682,0.438,10.5396,8.3972,10.743,8.5582c0.1294-0.2036,1.2853-1.6181,1.418-1.7852
	C615.0338,570.2321,614.6189,568.0159,611.9468,565.8999z M728.5905,400c0,181.4902-147.1149,328.6171-328.5905,328.6171
	S71.4095,581.4902,71.4095,400S218.5246,71.383,400,71.383S728.5905,218.5099,728.5905,400z M517.2726,166.4222
	c0.4624,1.7951,1.2598,3.2798,2.3922,4.4539c1.1323,1.1741,2.2843,2.0793,3.4559,2.7157c0.1438,0.0782,0.298,0.1619,0.4624,0.2513
	c1.1304,0.614,2.4688,1.1147,4.0152,1.5022c1.5464,0.3875,3.1635,0.3748,4.8525-0.0396c2.7053-0.7666,5.0307-2.6713,6.9761-5.7142
	c1.2285-1.9681,2.3586-3.9756,3.3914-6.0242c0.4593-0.8945,0.9237-1.7743,1.3925-2.6377l13.5977-25.0375
	c0.0893-0.1645,0.1081-0.334,0.0565-0.5084c-0.052-0.174-0.1597-0.3063-0.3241-0.3957l-6.4437-3.5001
	c-0.1644-0.0893-0.334-0.1076-0.5082-0.0565c-0.1744,0.0517-0.3063,0.1597-0.3956,0.3242l-16.6454,30.6494
	c-0.123,0.2266-0.2409,0.4681-0.3543,0.7259c-0.0226,0.0417-0.0503,0.0925-0.0837,0.1541c-0.439,0.9063-0.9573,1.7627-1.5551,2.5694
	c-0.5981,0.8072-1.3428,1.2472-2.235,1.3217c-0.5547-0.0078-1.1245-0.1716-1.7103-0.4898
	c-0.5858-0.3182-1.0436-0.7126-1.3727-1.1849c-0.3463-0.5875-0.4427-1.2188-0.2889-1.8939
	c0.1538-0.6752,0.4149-1.3519,0.7833-2.0303c0.1113-0.205,0.2286-0.4209,0.3516-0.6474l17.4993-32.2221
	c0.0893-0.1644,0.1082-0.3338,0.0565-0.5084c-0.0519-0.1739-0.1597-0.3063-0.3241-0.3956l-6.6594-3.6173
	c-0.1644-0.0893-0.3393-0.1104-0.5237-0.0649c-0.1848,0.0461-0.3218,0.1514-0.4111,0.3158l-17.5998,32.4071
	C517.2414,160.4024,516.6255,163.595,517.2726,166.4222z M482.0416,154.8801c1.1448,0.8183,2.4305,1.4903,3.8577,2.0143
	c1.7708,0.6745,3.6077,0.9819,5.5113,0.9207c1.9037-0.0611,3.6867-0.6587,5.3489-1.7928c1.0513-0.7596,1.9291-1.6404,2.6325-2.6405
	c0.7034-0.9995,1.2957-2.0529,1.7769-3.1602c0.481-1.1067,0.919-2.198,1.314-3.274l4.5467-12.3848
	c0.3628-0.9881,0.7675-2.0226,1.2147-3.1049c0.8915-2.0891,1.6902-4.2815,2.3959-6.5771c0.7055-2.2952,0.9802-4.5367,0.8241-6.7245
	c-0.1561-2.1878-1.066-4.1721-2.7289-5.9543c-1.7813-1.7995-4.0461-3.0796-6.7944-3.84c-2.7485-0.7599-5.4125-0.5791-7.9919,0.5421
	c-1.2388,0.5918-2.2854,1.3724-3.1397,2.3422c-0.8546,0.9701-1.5748,2.0327-2.1607,3.1874c-0.5861,1.1554-1.0927,2.3149-1.52,3.4788
	l-8.3316,22.6944C476.7293,146.8505,477.8109,151.6077,482.0416,154.8801z M433.5484,142.9596
	c-0.0306,0.1852,0.0097,0.3519,0.121,0.5001c0.1113,0.1489,0.263,0.2392,0.4554,0.271l7.7902,1.2889
	c0.1924,0.0318,0.3652-0.0048,0.5184-0.1099c0.1531-0.1044,0.2451-0.2493,0.2757-0.4344l3.0801-18.6262
	c0.0074-0.0448,0.1246-0.7467,0.1553-0.9319c0.0266-0.161-0.0441,0.26-0.0108,0.0584c0.0334-0.2015,0.063-0.3807,0.089-0.5375
	c0.7694,0.1273,1.9133,0.3051,3.4318,0.5333c1.5424,0.2326,2.7225,0.4159,3.54,0.5511c-0.1223,0.7391-0.2547,1.465-0.3972,2.1777
	c-0.2279,1.2277-0.3497,1.9708-0.5356,3.2435c-0.0078,0.0467-0.0032,0.0942,0.0132,0.1444
	c-0.1516,1.0656-0.3113,2.106-0.4793,3.1214l-1.8898,11.4234c-0.0306,0.1852,0.0158,0.3528,0.1392,0.5032
	c0.1232,0.1507,0.2811,0.2421,0.4734,0.2739l7.7903,1.2889c0.1923,0.0318,0.3651-0.0049,0.5183-0.1099
	c0.1532-0.1045,0.2451-0.2493,0.2757-0.4345l7.8852-47.6665c0.0305-0.1846-0.0099-0.3513-0.1211-0.5001
	c-0.1114-0.1482-0.263-0.2391-0.4554-0.271l-7.7901-1.2888c-0.1924-0.0318-0.3713,0.0044-0.5365,0.1068
	c-0.1652,0.1031-0.2632,0.2469-0.2938,0.4316l-3.0711,18.559c-0.0333,0.2015-0.0566,0.4168-0.0695,0.6443
	c-0.0258,0.1568-0.0464,0.2804-0.0611,0.3695c-0.3606-0.0596-0.9086-0.1446-1.6437-0.2547
	c-0.7353-0.1095-1.5055-0.2318-2.311-0.3651c-0.8055-0.1333-1.4976-0.2421-2.0765-0.3263c-0.579-0.0838-0.9165-0.1343-1.0126-0.1503
	c0.0074-0.0448,0.0129-0.0784,0.0167-0.1008l3.2323-19.5331c0.0305-0.1847-0.0099-0.3513-0.1211-0.5002
	c-0.1113-0.1482-0.2631-0.239-0.4554-0.271l-7.7903-1.2888c-0.0721-0.012-0.1342-0.0098-0.186,0.0047
	c-0.0519,0.0151-0.0919,0.0328-0.1197,0.0513c-0.024-0.0039-0.055-0.0031-0.0931,0.0025c-0.038,0.0061-0.0847,0.0274-0.1405,0.0656
	l-0.0893,0.0919l-0.0114,0.0692c-0.0279,0.0191-0.0577,0.0497-0.0894,0.092c-0.0318,0.0427-0.0532,0.0979-0.0647,0.167
	L433.5484,142.9596z M392.3513,140.697c-0.0046,0.1877,0.0618,0.3473,0.199,0.4787c0.1372,0.132,0.2993,0.2003,0.4864,0.2049
	l22.2033,0.5392c0.1871,0.0046,0.3466-0.056,0.4782-0.1815c0.1318-0.1249,0.1999-0.2811,0.2044-0.4688l0.167-6.8749
	c0.0045-0.1871-0.056-0.3466-0.1815-0.4782c-0.1255-0.1312-0.2818-0.1999-0.4688-0.2044l-13.0836-0.3177l6.2823-14.4478
	c0.8918-2.0368,1.7953-4.0745,2.7105-6.1113c1.8765-4.0485,3.6496-8.1709,5.3191-12.3654c0.1248-0.3246,0.2025-0.6321,0.233-0.9245
	c0.0304-0.2917,0.0502-0.6246,0.0593-0.9988l0.1355-5.5771c0.0045-0.1871-0.056-0.3466-0.1815-0.4783
	c-0.1255-0.1312-0.2817-0.1999-0.4688-0.2043l-21.5369-0.5231c-0.1871-0.0046-0.3465,0.0565-0.4782,0.1815
	c-0.1318,0.1255-0.1999,0.2817-0.2044,0.4688l-0.1678,6.91c-0.0046,0.1876,0.0558,0.3471,0.1813,0.4782
	c0.1255,0.1318,0.2818,0.1999,0.4689,0.2044l12.4171,0.3016l-14.5702,33.4446c-0.0005,0.0234-0.0012,0.0473-0.0017,0.0701
	L392.3513,140.697z M343.7115,97.3933c-0.0048,0.0486-0.0022,0.1068,0.0078,0.1762l6.9791,47.8073
	c0.027,0.1857,0.1141,0.3325,0.2611,0.4406c0.147,0.1085,0.314,0.1492,0.5008,0.1219l6.7261-0.9818
	c0.1869-0.0273,0.3352-0.1139,0.4451-0.26c0.1099-0.1455,0.1512-0.3111,0.1242-0.4968l-4.4094-30.205l12.387,29.2179
	c0.0471,0.1587,0.1406,0.2691,0.2809,0.3313c0.1404,0.0629,0.2805,0.0832,0.4206,0.0628l7.7773-1.1352
	c0.1868-0.0273,0.3351-0.1139,0.445-0.2599c0.1099-0.1455,0.1514-0.3111,0.1242-0.4968l-6.979-47.8074
	c-0.027-0.1851-0.114-0.332-0.2611-0.4406c-0.1469-0.1079-0.3139-0.1492-0.5008-0.1219l-6.7261,0.9817
	c-0.1869,0.0274-0.3352,0.1146-0.4451,0.2601c-0.1099,0.146-0.1512,0.3117-0.1242,0.4968l3.487,23.8863l-9.713-23.1549
	c-0.067-0.132-0.1656-0.2358-0.2959-0.3114c-0.1302-0.0749-0.2772-0.1014-0.4407-0.0774l-9.4937,1.3857
	c-0.07,0.0102-0.1266,0.0309-0.17,0.0602c-0.0433,0.03-0.075,0.0589-0.095,0.0848c-0.0233,0.0034-0.0516,0.0134-0.085,0.0301
	c-0.0333,0.0173-0.07,0.0516-0.1099,0.1047l-0.0548,0.1144l-0.0249,0.0745C343.7289,97.3081,343.7164,97.3453,343.7115,97.3933z
	 M298.152,109.278c-0.0084,0.0527-0.0024,0.112,0.0187,0.1796l14.5162,46.5606c0.0563,0.181,0.1661,0.3137,0.3289,0.3983
	c0.1631,0.0853,0.3352,0.0996,0.5162,0.0432l20.0262-6.242c0.1811-0.0564,0.3145-0.166,0.4003-0.3288
	c0.086-0.1622,0.1008-0.3338,0.0444-0.5147l-2.0663-6.6273c-0.0562-0.1804-0.1658-0.3132-0.329-0.3983
	c-0.1629-0.0847-0.3351-0.0996-0.5162-0.0432l-11.9138,3.7135c-0.0453,0.0141-0.0941,0.017-0.1463,0.0085
	c-0.5551-1.7802-1.3027-4.2183-2.2431-7.3141c-0.8152-2.6149-1.2735-4.0883-1.6312-5.2357l0.0339-0.0106
	c0.0905-0.0283,0.1584-0.0494,0.2037-0.0635l9.1985-2.8671c0.1584-0.0494,0.2849-0.1614,0.3793-0.3361
	c0.0945-0.1747,0.1178-0.3392,0.0695-0.4937l-2.0328-6.5201c-0.055-0.1765-0.1693-0.3042-0.343-0.3834
	c-0.1734-0.0784-0.3396-0.0937-0.498-0.0444l-7.6031,2.3698c-0.0453,0.0141-0.1358,0.0423-0.2716,0.0846
	c-0.233,0.0491-0.5024,0.1203-0.808,0.2156c-0.3055,0.0952-0.5338,0.1791-0.6855,0.25c-0.0413-0.1324-0.1052-0.3176-0.1924-0.5574
	c-0.087-0.2391-0.1794-0.476-0.278-0.7122c-0.1189-0.3018-0.1886-0.4858-0.2093-0.552l-2.9879-9.58
	c-0.021-0.0676-0.0309-0.1388-0.0293-0.2135c0.3395-0.1057,0.7468-0.2326,1.222-0.3809c0.4752-0.1481,0.9277-0.2891,1.3577-0.4232
	c0.543-0.1692,0.8825-0.275,1.0182-0.3174l8.4178-2.6238c0.181-0.0565,0.3144-0.166,0.4002-0.3288
	c0.086-0.1622,0.1008-0.3338,0.0443-0.5147l-2.0767-6.6612c-0.0562-0.1802-0.1659-0.313-0.329-0.3982
	c-0.1629-0.0846-0.3352-0.0996-0.5162-0.0431l-20.0262,6.2419c-0.0679,0.0212-0.1208,0.0507-0.1591,0.0867
	c-0.0383,0.0367-0.065,0.0703-0.0808,0.0994c-0.0227,0.007-0.0492,0.0215-0.0797,0.0433c-0.0302,0.0224-0.0612,0.0625-0.0924,0.1216
	l-0.0151,0.1902C298.1726,109.1849,298.1606,109.2258,298.152,109.278z M241.5765,135.7352l26.7469,40.9677
	c0.2783,0.3337,0.5741,0.4194,0.8873,0.2574l8.9876-4.6482c0.3131-0.1619,0.414-0.4529,0.3027-0.8728l-6.9509-18.7523
	l11.0751,16.2362c0.2784,0.3335,0.5492,0.4223,0.8832,0.2496l8.8707-4.4354c0.3131-0.162,0.3648-0.5708,0.2534-0.9908
	l-17.3918-45.422c-0.0756-0.146-0.1983-0.2556-0.3676-0.3272c-0.2008-0.0812-0.3852-0.0794-0.5522,0.007l-5.856,3.0286
	c-0.1671,0.0864-0.2757,0.2089-0.3259,0.3676c-0.05,0.1592-0.0426,0.3271,0.0233,0.5054l11.4061,29.4908l-17.0072-26.5959
	c-0.1057-0.1577-0.2328-0.2638-0.382-0.3198c-0.1491-0.0555-0.2997-0.0441-0.4516,0.0345l-6.723,3.477
	c-0.133,0.0687-0.2246,0.1825-0.275,0.3412c-0.0501,0.1592-0.0417,0.3266,0.026,0.5039l11.8638,29.4253l-17.6179-25.982
	c-0.1214-0.1562-0.3987-0.636-0.569-0.684c-0.1684-0.0475-0.4631,0.0359-0.6301,0.1223l-5.9556,3.0801l-0.1253,0.0648l0.0163,0.0314
	c-0.1353,0.0965-0.2177,0.2187-0.2471,0.3665C241.4407,135.4214,241.469,135.5785,241.5765,135.7352z M121.8785,407.7346
	l15.6616-11.3788h-19.3587l-5.9822-18.4113l-5.9821,18.4113H86.8582l15.6615,11.3788l-5.9822,18.4112l15.6616-11.3788
	l15.6615,11.3788L121.8785,407.7346z M183.5038,597.651c1.6568-0.9756,3.1899-2.0611,4.5994-3.2563l14.7985-12.5495
	c1.3504-1.0839,2.6495-2.2545,3.8986-3.5131c1.2486-1.2582,2.2265-2.6548,2.9336-4.1899c0.7067-1.5347,0.9157-3.2684,0.627-5.2011
	c-0.3015-1.5844-0.8878-3.0272-1.76-4.327c-0.8722-1.2999-1.8254-2.5234-2.8595-3.6706l-6.1268-7.2253
	c-0.0454-0.0535-0.0926-0.0901-0.1403-0.1111c-0.048-0.0205-0.089-0.0318-0.1215-0.035c-0.0151-0.0177-0.0385-0.0363-0.0701-0.0554
	c-0.0321-0.0189-0.0804-0.0316-0.1464-0.0369l-0.1255,0.0145l-0.0536,0.0453c-0.0329-0.0027-0.0748,0.0022-0.1255,0.0146
	c-0.0513,0.0128-0.103,0.0413-0.1566,0.0867l-36.8491,31.249c-0.1431,0.1214-0.2219,0.2726-0.2364,0.4536
	c-0.015,0.1813,0.0381,0.3433,0.1591,0.486l4.9015,5.7803c0.3177,0.3746,0.6336,0.7662,0.9491,1.1734
	c0.3177,0.3747,0.6429,0.7582,0.9757,1.1508c0.6051,0.7136,1.2295,1.3956,1.8729,2.046c0.6435,0.6504,1.3504,1.2317,2.122,1.7428
	c1.9572,1.2232,3.8547,1.7609,5.6923,1.6133C180.0992,599.1887,181.8469,598.6268,183.5038,597.651z M205.8043,630.695
	l26.8979-40.9777c0.0933-0.1361,0.1242-0.2839,0.0915-0.4424c-0.033-0.1578-0.1015-0.2863-0.2063-0.3842l-7.6866-7.1639
	l-0.105-0.0978l-0.05,0.0013c-0.1033-0.0642-0.2221-0.0942-0.3552-0.0912c-0.0159,0.0172-0.0409,0.0267-0.0739,0.0271
	c-0.0334,0.0009-0.0707,0.006-0.112,0.0156c-0.0413,0.0094-0.0945,0.0318-0.1597,0.067l-38.6771,29.9995
	c-0.1937,0.1392-0.2942,0.3182-0.3,0.5358c0.0097,0.2009,0.0845,0.3665,0.2244,0.4969l4.8838,4.555
	c0.0978,0.0912,0.2234,0.1442,0.3766,0.1592c0.1528,0.0154,0.3017-0.0225,0.4454-0.1122c0.6688-0.5591,1.2599-1.0172,1.9131-1.5267
	c0.121-0.098,0.2353-0.1887,0.3417-0.2709c1.4579-1.1498,2.9069-2.3231,4.3472-3.5195l6.3784,5.9382l-5.0282,6.7869
	c-0.0937,0.1365-0.1202,0.2885-0.0784,0.4545c0.0414,0.1665,0.1146,0.2987,0.2195,0.3965l5.6666,5.2812
	c0.1574,0.1467,0.3274,0.2094,0.5101,0.1877C205.4838,630.9887,205.6629,630.883,205.8043,630.695z M244.5815,637.0809
	c0.6629-1.2802,1.0438-2.6491,1.1426-4.1068c0.0482-1.1473-0.1853-2.2237-0.7005-3.2292c0.0133-0.0185,0.0014-0.0421-0.0365-0.0694
	c0.0323-0.0049,0.0748-0.0038,0.1264,0.0045c0.4267,0.048,0.8645,0.0607,1.3132,0.038c2.5681-0.2832,4.9794-1.8895,7.235-4.8201
	c1.4675-1.7969,2.7381-3.7205,3.8128-5.7723c2.2909-4.9804,0.9237-9.4251-4.1015-13.3341
	c-2.1361-1.5968-4.2806-3.1419-6.4335-4.6354c-0.1329-0.0957-0.2562-0.1846-0.3701-0.2666
	c-0.9109-0.6564-1.8314-1.3195-2.7612-1.9896c-0.057-0.041-0.1116-0.0651-0.1629-0.074c-0.0516-0.0084-0.0941-0.0095-0.1264-0.0047
	c-0.019-0.0137-0.0461-0.0259-0.0814-0.037c-0.0356-0.0106-0.0857-0.0112-0.1509-0.0007l-0.1185,0.0444l-0.041,0.0569
	c-0.0327,0.0053-0.0721,0.0201-0.1185,0.0444c-0.0467,0.0247-0.09,0.0649-0.131,0.1218l-28.2429,39.2005
	c-0.1097,0.1523-0.1498,0.3181-0.1204,0.4971c0.0293,0.1797,0.1198,0.3241,0.2715,0.4335l6.1774,4.4508
	c0.1329,0.0957,0.2938,0.1324,0.4828,0.1101c0.1887-0.0219,0.3379-0.1091,0.4477-0.2613l10.4398-14.4902
	c0.1363-0.1893,0.2967-0.3917,0.4797-0.6058l0.0205-0.0284c0.3114-0.3523,0.5876-0.7156,0.8283-1.0898l0.3132,0.2256
	c0.1708,0.1231,0.3511,0.253,0.5409,0.3897c0.6346,0.3996,1.2119,0.8588,1.7318,1.3776c0.9494,1.203,1.0589,2.5217,0.3285,3.9557
	c-0.7309,1.4346-1.6082,2.7623-2.6329,3.9845l-0.049,0.008c-0.3609,0.4608-0.678,0.8809-0.9514,1.2605
	c-0.4239,0.5883-0.871,1.1888-1.3412,1.8015c-0.872,1.1302-1.7048,2.2961-2.4982,3.4976c-0.7936,1.2013-1.4069,2.4828-1.839,3.8429
	c-0.0639,0.3287,0.018,0.5751,0.2458,0.7392l6.2627,4.5124c0.1709,0.123,0.377,0.157,0.6196,0.1004
	c0.2043-0.0835,0.3394-0.2311,0.4056-0.443c0.306-1.1049,0.7613-2.1472,1.3649-3.1248c0.6032-0.9774,1.2499-1.9249,1.9388-2.8412
	c0.2104-0.252,0.4182-0.5203,0.6232-0.805l1.2307-1.7081c0.8066-1.1197,1.6203-2.2491,2.4407-3.3878
	C243.1897,639.553,243.9181,638.3618,244.5815,637.0809z M291.4835,628.4348l-6.0486-3.3638
	c-0.2222-0.1235-0.4957-0.1087-0.7031,0.0382l-17.0579,12.079l8.891-16.3171c0.156-0.2861,0.0504-0.6443-0.2357-0.8002
	l-6.5762-3.5833c-0.2861-0.1559-0.6445-0.0504-0.8003,0.2357l-23.1887,42.5567c-0.1559,0.2861-0.0504,0.6444,0.2357,0.8004
	l6.5763,3.5833c0.2861,0.1559,0.6444,0.0503,0.8002-0.2357l7.5766-13.9048l2.168-0.5906l-2.415,18.6076
	c-0.0214,0.1646,0.0593,0.3256,0.2037,0.4071l7.3289,4.1345c0.2517,0.1419,0.5669-0.0159,0.6041-0.3022l3.7378-28.7988
	l18.9639-13.4286C291.9413,629.2706,291.9087,628.6712,291.4835,628.4348z M335.6174,644.6255
	c-0.0868-0.1615-0.2208-0.2715-0.4029-0.3287l-7.3703-2.3129c-0.182-0.0571-0.3606-0.0451-0.5355,0.0341
	c-0.175,0.08-0.2905,0.2092-0.3466,0.3878l-5.6573,18.0292c-0.0611,0.1944-0.1142,0.4037-0.159,0.6262
	c-0.0475,0.1512-0.0849,0.2706-0.1119,0.3565c-0.3412-0.1071-0.8603-0.2642-1.5576-0.4711c-0.6974-0.2064-1.4269-0.43-2.1889-0.6691
	c-0.7621-0.2391-1.4178-0.439-1.9671-0.5995c-0.5495-0.16-0.8694-0.2551-0.9604-0.2836c0.0135-0.0432,0.0237-0.0756,0.0304-0.0972
	l5.9522-18.9687c0.0561-0.1786,0.0407-0.3489-0.0458-0.5109c-0.0868-0.1615-0.2209-0.2716-0.4029-0.3287l-7.3704-2.3129
	c-0.0682-0.0214-0.1288-0.0275-0.1811-0.0201c-0.0525,0.0081-0.0938,0.0203-0.1234,0.0348c-0.0227-0.0071-0.0529-0.0104-0.0905-0.01
	c-0.0378,0.001-0.0862,0.0159-0.1458,0.0463l-0.0997,0.079l-0.0211,0.067c-0.0297,0.0151-0.063,0.0415-0.0997,0.079
	c-0.037,0.038-0.0657,0.0897-0.0867,0.1567l-14.4661,46.0979c-0.0562,0.1791-0.0409,0.3493,0.0458,0.5108
	c0.0866,0.162,0.2209,0.2717,0.4029,0.3287l7.3704,2.313c0.182,0.0571,0.3548,0.0439,0.5184-0.0396
	c0.1635-0.0829,0.2733-0.214,0.3296-0.393l5.6365-17.9603c0.0136-0.0432,0.0474-0.1506,0.1017-0.324
	c0.0473-0.1506,0.1017-0.324,0.1626-0.5184c0.0611-0.1945,0.1153-0.3672,0.1627-0.5184c0.7279,0.2285,1.8118,0.5568,3.2517,0.985
	c1.4625,0.4358,2.5807,0.7742,3.3541,1.017c-0.2236,0.7126-0.4553,1.4111-0.6949,2.0952c-0.3955,1.1808-0.6064,1.8515-0.9687,3.0856
	c-0.0143,0.0452-0.0167,0.0929-0.0079,0.1446c-0.2994,1.0339-0.6032,2.0416-0.9114,3.0237l-3.4668,11.0474
	c-0.0562,0.1791-0.0352,0.3511,0.0629,0.5162c0.098,0.1656,0.238,0.2769,0.42,0.334l7.3704,2.313
	c0.182,0.057,0.3548,0.0438,0.5184-0.0397c0.1635-0.0828,0.2733-0.2139,0.3295-0.393l14.466-46.0979
	C335.7193,644.9578,335.704,644.7874,335.6174,644.6255z M364.0057,655.4263c-0.5637-2.1197-1.8296-3.8981-3.7974-5.3369
	c-2.0872-1.4335-4.5519-2.2661-7.394-2.4975c-2.8423-0.2308-5.4252,0.4462-7.7487,2.0312
	c-1.1059,0.8136-1.9874,1.7767-2.6447,2.8893c-0.6574,1.1133-1.1656,2.2919-1.5245,3.536c-0.359,1.2448-0.6393,2.4787-0.8406,3.702
	l-3.9273,23.8536c-0.8602,6.5203,1.0946,10.9902,5.864,13.4111c1.278,0.5891,2.6669,1.0081,4.1672,1.2551
	c1.8658,0.3303,3.7277,0.2878,5.5863-0.1292c1.8584-0.4171,3.4977-1.3384,4.9177-2.764c0.8903-0.9434,1.5872-1.973,2.0907-3.0873
	c0.5034-1.1136,0.8876-2.2595,1.1526-3.4373c0.2649-1.1772,0.4904-2.3314,0.6767-3.4623l2.1432-13.0173
	c0.171-1.0386,0.3745-2.1306,0.6107-3.2776c0.4839-2.2192,0.8572-4.5224,1.1198-6.9097
	C364.72,659.7991,364.5695,657.5459,364.0057,655.4263z M397.0972,661.4427c-0.729-5.4332-4.2621-8.4568-10.599-9.0708
	c-2.659-0.2063-5.2974-0.3643-7.9153-0.4743c-0.1635-0.0098-0.3152-0.0189-0.4554-0.0273c-1.1207-0.0672-2.2531-0.135-3.3972-0.2035
	c-0.0701-0.0043-0.1291,0.0045-0.1773,0.0245c-0.048,0.0204-0.0844,0.0424-0.1093,0.0637
	c-0.0233-0.0013-0.0529,0.0027-0.0886,0.0123c-0.0357,0.0101-0.0782,0.0363-0.1278,0.0802l-0.0764,0.1009l-0.0042,0.07
	c-0.0248,0.022-0.0502,0.0555-0.0764,0.1009c-0.0261,0.046-0.0413,0.103-0.0454,0.173l-2.889,48.2278
	c-0.0113,0.1874,0.0435,0.3489,0.1643,0.4844c0.1208,0.1361,0.2745,0.2097,0.4613,0.2209l7.6001,0.4553
	c0.1634,0.0098,0.3191-0.0453,0.4668-0.1653c0.1478-0.1194,0.2273-0.2728,0.2385-0.4603l1.0679-17.8271
	c0.0139-0.2329,0.041-0.4897,0.0812-0.7684l0.0021-0.035c0.0746-0.4641,0.1136-0.9188,0.1169-1.3638l0.3852,0.023
	c0.2102,0.0126,0.432,0.0259,0.6654,0.0399c0.75-0.002,1.4834,0.0771,2.2002,0.2372c1.4458,0.5084,2.2438,1.5638,2.3938,3.1663
	c0.15,1.603,0.1192,3.1941-0.0927,4.7748l-0.0371,0.0329c-0.0583,0.5824-0.1014,1.107-0.1294,1.574
	c-0.0434,0.7238-0.0998,1.4703-0.1693,2.2394c-0.132,1.4216-0.2118,2.8521-0.2395,4.2915
	c-0.0276,1.4395,0.1398,2.8502,0.5023,4.2305c0.1218,0.3119,0.3229,0.4763,0.6031,0.493l7.7052,0.4617
	c0.2101,0.0126,0.4024-0.069,0.5772-0.2466c0.1279-0.1798,0.1631-0.3768,0.1057-0.5912c-0.3326-1.0972-0.5056-2.2213-0.5187-3.3702
	c-0.0132-1.1484,0.0262-2.2949,0.118-3.4376c0.043-0.3254,0.075-0.6633,0.0959-1.0135l0.1259-2.1014
	c0.0826-1.3777,0.1658-2.7669,0.2497-4.1679c0.0811-1.3536,0.0593-2.7498-0.0656-4.1867c-0.1248-1.4363-0.5354-2.7966-1.2318-4.0809
	c-0.5731-0.9951-1.3463-1.7796-2.3195-2.3534c0.0013-0.0228-0.0212-0.0364-0.068-0.0392c0.0247-0.0214,0.0612-0.0432,0.1093-0.0638
	c0.3862-0.1877,0.7629-0.4112,1.1299-0.6704c2.0181-1.6131,3.196-4.2602,3.5338-7.943
	C397.2426,666.056,397.287,663.7512,397.0972,661.4427z M400.272,628.7816c130.5432,0,236.3692-105.7795,236.3692-236.2654
	c0-97.7115-59.3437-181.565-143.9688-217.5259c0.0001,0.0001,0.0003,0.0001,0.0004,0.0002
	c-0.0003-0.0001-0.0006-0.0003-0.0009-0.0004c-12.3833-5.2622-25.3072-9.4991-38.6666-12.6033
	c-0.0395-0.0092-0.0786-0.0196-0.118-0.0288c-1.8161-0.421-3.6413-0.8182-5.4732-1.1971c-0.1014-0.021-0.2017-0.0451-0.3032-0.066
	c-1.774-0.3645-3.5569-0.7044-5.3452-1.0289c-0.1607-0.0292-0.3197-0.0632-0.4806-0.0921c-1.7228-0.309-3.4544-0.5925-5.1899-0.8639
	c-0.229-0.0358-0.4557-0.0782-0.6849-0.1134c-1.6516-0.2533-3.3116-0.4805-4.9742-0.6994c-0.3169-0.0418-0.631-0.0922-0.9483-0.1326
	c-1.6029-0.2044-3.214-0.3822-4.8268-0.5544c-0.3797-0.0405-0.7563-0.091-1.1365-0.1298c-1.5418-0.157-3.0914-0.2868-4.6418-0.4142
	c-0.4559-0.0374-0.9086-0.0864-1.3653-0.1212c-1.4868-0.1134-2.9812-0.1991-4.4756-0.285
	c-0.5243-0.0302-1.0452-0.0727-1.5705-0.0995c-1.5123-0.0768-3.032-0.1255-4.5516-0.1738c-0.511-0.0163-1.0187-0.0452-1.5305-0.0581
	c-2.0328-0.0516-4.072-0.0778-6.1173-0.0778c-130.543,0-236.369,105.7797-236.369,236.2655c0,1.8166,0.028,3.6265,0.0688,5.4333
	c0.0111,0.4885,0.0248,0.9764,0.0388,1.4642c0.0438,1.5261,0.101,3.0488,0.1736,4.5676c0.0146,0.3049,0.0247,0.6109,0.0404,0.9154
	c0.0916,1.7743,0.2058,3.5424,0.3364,5.3061c0.0335,0.4529,0.0719,0.9042,0.108,1.3563c0.1134,1.4203,0.2392,2.8371,0.3776,4.2502
	c0.0423,0.432,0.0816,0.8648,0.1262,1.2961c0.1799,1.7387,0.3772,3.4721,0.5946,5.1993c0.0468,0.372,0.0996,0.742,0.1481,1.1134
	c0.185,1.4154,0.3828,2.8269,0.5928,4.2343c0.0731,0.49,0.1456,0.98,0.2217,1.469c0.266,1.709,0.5446,3.4136,0.847,5.1102
	c0.0354,0.1986,0.0752,0.3957,0.1111,0.5941c0.2758,1.5244,0.5686,3.043,0.8735,4.5571c0.1041,0.5168,0.2102,1.0327,0.3176,1.5482
	c0.293,1.4057,0.5976,2.8071,0.9155,4.2036c0.0712,0.3128,0.1375,0.6273,0.2099,0.9396c0.3789,1.6337,0.7787,3.2592,1.1913,4.8796
	c0.1318,0.5178,0.2683,1.0338,0.4035,1.5503c0.3237,1.2361,0.6574,2.468,1.0006,3.696c0.1335,0.4778,0.2634,0.9571,0.3999,1.4336
	c0.4495,1.5702,0.9148,3.1335,1.3958,4.6902c0.1545,0.5002,0.3159,0.9974,0.4737,1.4962c0.3654,1.1547,0.7388,2.3056,1.1214,3.4525
	c0.1877,0.5628,0.3744,1.1259,0.5662,1.6869c0.5167,1.511,1.0444,3.0171,1.5907,4.5142c0.162,0.444,0.3321,0.8838,0.4967,1.3265
	c0.424,1.1403,0.8554,2.2768,1.2964,3.4087c0.238,0.6109,0.478,1.2206,0.7209,1.829c0.4471,1.1198,0.9038,2.2346,1.3676,3.3459
	c0.2601,0.6234,0.5202,1.2467,0.7855,1.8673c0.5275,1.2339,1.0652,2.4622,1.6129,3.6852c0.2878,0.6428,0.5806,1.2826,0.874,1.9223
	c0.4239,0.9241,0.8547,1.8444,1.2902,2.7621c0.2892,0.6095,0.5746,1.221,0.8688,1.8276c0.6449,1.3294,1.303,2.6511,1.972,3.9665
	c0.3392,0.6671,0.6863,1.3293,1.0316,1.9927c0.4212,0.8089,0.8464,1.6151,1.2766,2.4185c0.3684,0.6882,0.7363,1.3766,1.1114,2.0606
	c0.6053,1.1039,1.2203,2.2018,1.8427,3.2949c0.4769,0.8378,0.9623,1.6696,1.449,2.5009c0.42,0.7171,0.8416,1.4331,1.2689,2.1454
	c0.4422,0.7372,0.887,1.4724,1.3369,2.2043c0.4256,0.6921,0.8582,1.3793,1.2907,2.0667c0.759,1.2065,1.5286,2.4052,2.3087,3.5969
	c0.4099,0.6261,0.8188,1.2529,1.2345,1.8748c0.5152,0.771,1.0361,1.5375,1.56,2.3021c0.3774,0.5506,0.759,1.098,1.141,1.6453
	c0.9992,1.4318,2.0142,2.8512,3.044,4.2596c0.2983,0.4078,0.5928,0.8187,0.8936,1.2246c0.5991,0.8085,1.2069,1.6098,1.816,2.4103
	c0.3422,0.4496,0.6861,0.8978,1.0314,1.3447c2.0684,2.6782,4.1933,5.3096,6.3724,7.8948c0.2954,0.3503,0.5904,0.7008,0.8878,1.0494
	c0.7106,0.8331,1.4248,1.6627,2.1467,2.4858c0.1707,0.1946,0.3442,0.3867,0.5154,0.5806c1.4635,1.6578,2.9503,3.2942,4.4592,4.9101
	c0.1942,0.208,0.3868,0.4174,0.5818,0.6246c0.7932,0.8435,1.5929,1.6805,2.3984,2.5122c0.1949,0.2012,0.3917,0.4006,0.5873,0.6011
	c2.5487,2.6134,5.1567,5.168,7.8234,7.6614c0.1797,0.168,0.3601,0.3353,0.5404,0.5027c2.7226,2.5301,5.5046,4.9963,8.3445,7.3972
	c0.1314,0.1111,0.2627,0.2225,0.3945,0.3334c2.9563,2.4883,5.9735,4.9055,9.0508,7.2488c0.0192,0.0146,0.0382,0.0294,0.0574,0.0441
	c4.1803,3.1813,8.4698,6.225,12.8618,9.1276c0.0388,0.0258,0.0778,0.0512,0.1167,0.0768c3.2633,2.1538,6.5828,4.2281,9.9566,6.2218
	c0.0488,0.0288,0.0975,0.0577,0.1462,0.0864C315.4782,616.8633,356.4796,628.7816,400.272,628.7816z M430.6269,689.663
	c-0.009-2.9052-0.5453-5.5319-1.6087-7.8784c-0.7561-1.5693-1.6758-2.9463-2.759-4.1314c-1.0832-1.1844-2.0835-2.1703-3.0006-2.9557
	c-0.793-0.6755-1.5962-1.3276-2.4098-1.9561c-1.082-0.7978-2.1208-1.6523-3.1161-2.5616c-0.9954-0.9088-1.857-1.9263-2.585-3.0526
	c-0.5775-0.9705-0.9533-2.0893-1.1277-3.3561c-0.1742-1.2663-0.0211-2.3595,0.4593-3.2813
	c0.5273-0.9241,1.4364-1.3687,2.7278-1.3337c1.2913,0.0356,2.128,0.5677,2.51,1.5982c0.3819,1.0305,0.5883,2.3416,0.6194,3.9334
	c0.0045,0.0701,0.0089,0.1401,0.0134,0.2101c0.0133,0.2101,0.0267,0.4202,0.04,0.6302c0.0119,0.1874,0.0862,0.3409,0.2227,0.4605
	c0.1365,0.1202,0.2982,0.1744,0.485,0.1625l7.1783-0.4567c0.1634-0.0104,0.3107-0.09,0.4418-0.239
	c0.1312-0.1489,0.1916-0.3052,0.1812-0.4686c-0.101-1.5873-0.2968-3.1921-0.5876-4.8143c-0.2906-1.6216-0.8252-3.1169-1.6037-4.4861
	c-0.7786-1.3684-1.9226-2.4969-3.4323-3.3853c-2.4016-1.2764-5.0555-1.7294-7.9617-1.3569
	c-2.9061,0.3729-5.3087,1.4749-7.2079,3.3062c-1.9265,2.1389-2.9586,4.706-3.0961,7.7031c-0.1375,2.9971,0.3525,5.7258,1.4701,8.186
	c0.7592,1.6165,1.6934,3.0389,2.8029,4.2692c1.1096,1.2303,2.196,2.2809,3.2592,3.1503c0.7171,0.5872,1.4459,1.1737,2.1862,1.7595
	l0.0372,0.0328c1.2545,0.928,2.4371,1.9251,3.5479,2.9911c1.1109,1.0667,1.98,2.2947,2.6075,3.684
	c0.4463,1.1201,0.6701,2.3363,0.6716,3.6487c0.0014,1.313-0.3235,2.3762-0.9748,3.191c-0.7198,0.8427-1.8059,1.0876-3.2581,0.7346
	c-1.1006-0.3519-1.7813-1.1049-2.0423-2.2608c-0.261-1.1553-0.3842-2.354-0.3695-3.5977c-0.0033-0.4218-0.0169-0.8193-0.0407-1.1928
	c-0.0118-0.1867-0.0861-0.3402-0.2227-0.4604c-0.1365-0.1197-0.2982-0.1744-0.485-0.1626l-7.1783,0.4565
	c-0.1868,0.0119-0.3402,0.0867-0.4605,0.2227c-0.1202,0.1365-0.1744,0.2982-0.1625,0.4849l0.176,2.7662
	c0.0772,1.2139,0.3293,2.5984,0.7564,4.1533c0.4271,1.5549,1.182,3.0134,2.2646,4.3737c1.0827,1.3609,2.6057,2.3657,4.5689,3.0142
	c1.6244,0.4821,3.3355,0.6667,5.1329,0.5525c1.7275-0.1099,3.4003-0.5274,5.0184-1.2509c1.6181-0.7235,2.9677-1.8002,4.0486-3.2284
	C429.8817,695.1721,430.6359,692.5688,430.6269,689.663z M465.1646,694.7295l-1.2-6.7714
	c-0.0326-0.1843-0.1235-0.3285-0.2726-0.4328c-0.149-0.1036-0.3159-0.14-0.5001-0.1074l-12.1265,2.1487
	c-0.0461,0.0082-0.0941,0.0048-0.1443-0.01c-0.3223-1.819-0.7515-4.3086-1.2878-7.4686c-0.4734-2.6717-0.7337-4.1404-0.941-5.3105
	l0.0345-0.0061c0.0921-0.0163,0.1612-0.0286,0.2072-0.0367l9.3627-1.659c0.1612-0.0286,0.299-0.1226,0.4132-0.2821
	c0.1143-0.1595,0.1574-0.3181,0.1295-0.4755l-1.1782-6.6491c-0.0319-0.18-0.1279-0.3196-0.288-0.4189
	c-0.16-0.0987-0.3208-0.1347-0.4821-0.1061l-7.7389,1.3713c-0.046,0.0082-0.1381,0.0245-0.2764,0.049
	c-0.2341,0.0189-0.5069,0.0551-0.8178,0.1101c-0.3109,0.0551-0.5449,0.1088-0.7023,0.1593
	c-0.0239-0.1351-0.0634-0.3247-0.1189-0.5707c-0.0554-0.2455-0.2416-1.1954-0.3096-1.4452
	c-0.0802-0.3184-0.1264-0.5121-0.1386-0.5812l-1.6163-9.1208c-0.0122-0.0691-0.0129-0.1403-0.0022-0.2134
	c0.3455-0.0612,0.7601-0.1346,1.2438-0.2204c0.4837-0.0857,0.9443-0.1674,1.3818-0.2449c0.5529-0.0979,0.8983-0.1592,1.0366-0.1837
	l8.5679-1.5181c0.1843-0.0327,0.3286-0.1235,0.4327-0.2726c0.1044-0.1486,0.1402-0.3152,0.1074-0.5001l-1.206-6.806
	c-0.0327-0.1843-0.1236-0.3286-0.2727-0.4327c-0.149-0.1038-0.3158-0.1401-0.5-0.1075l-20.3836,3.6119
	c-0.0691,0.0123-0.1245,0.0345-0.1666,0.0652c-0.0419,0.0312-0.0723,0.0609-0.0915,0.0874
	c-0.0229,0.0042-0.0507,0.015-0.0833,0.0327c-0.0324,0.0181-0.0677,0.0535-0.1055,0.1077l-0.0385,0.185
	c-0.019,0.0272-0.0358,0.0657-0.0507,0.1159c-0.0148,0.0507-0.0162,0.1098-0.004,0.1788l8.4303,47.5733
	c0.0327,0.1848,0.1237,0.329,0.2727,0.4327c0.1491,0.1042,0.3158,0.14,0.5001,0.1074l20.3835-3.6119
	c0.1843-0.0327,0.3286-0.1235,0.4327-0.2726C465.1616,695.0811,465.1974,694.9144,465.1646,694.7295z M504.7251,673.175
	c-0.3625-1.4353-0.8021-2.843-1.3188-4.2233l-11.7554-32.9843c-0.0629-0.1763-0.182-0.3015-0.3574-0.3755
	c-0.1752-0.0735-0.3513-0.0797-0.5275-0.0169l-7.1389,2.5442c-0.1762,0.0627-0.3032,0.1769-0.3813,0.3408
	c-0.078,0.1643-0.0855,0.3347-0.0227,0.5109l11.8025,33.1166l0.212,0.595c0.1414,0.3965,0.2788,0.7821,0.4123,1.1567
	c0.1808,0.5073,0.3097,1.0257,0.3872,1.5568c0.0775,0.5311,0.0289,1.0388-0.1461,1.5233c-0.528,1.3057-2.116,2.1453-4.7645,2.5175
	c-0.214,0.0266-0.3856,0.1375-0.5148,0.3324c-0.1071,0.1872-0.1253,0.3799-0.0547,0.5782l2.3087,6.4778l0.0802,0.1204l0.0118,0.0331
	c0.0615,0.1029,0.1478,0.1708,0.2595,0.2055c0.06,0.0289,0.1007,0.0387,0.1228,0.0308c0.0078,0.022,0.0324,0.0388,0.0731,0.0484
	c0.0409,0.0103,0.0985,0.0152,0.1723,0.0131c0.8783-0.1137,2.0222-0.4227,3.4323-0.9252c1.1237-0.4005,2.2775-0.9606,3.4612-1.6804
	c1.1836-0.7198,2.2039-1.6546,3.0607-2.8041c0.8569-1.1491,1.3826-2.5656,1.577-4.2496
	C505.218,676.0909,505.0877,674.6102,504.7251,673.175z M537.1005,657.814c-0.8816-2.146-1.8527-4.235-2.9139-6.2687
	c-0.4586-0.8948-0.9022-1.7853-1.3298-2.6697l-12.4016-25.6497c-0.0815-0.1685-0.2081-0.2827-0.38-0.3424
	c-0.1714-0.0593-0.3419-0.0491-0.5104,0.0323l-6.6017,3.1918c-0.1685,0.0814-0.2823,0.2087-0.3424,0.3799
	c-0.0599,0.1718-0.0491,0.342,0.0324,0.5105l15.1813,31.3988c0.1122,0.2322,0.2396,0.4688,0.3829,0.7112
	c0.0206,0.0427,0.0457,0.0948,0.0764,0.158c0.4799,0.8851,0.873,1.8058,1.1794,2.7619c0.3066,0.9566,0.2296,1.8182-0.2305,2.5862
	c-0.33,0.446-0.7954,0.8134-1.3956,1.1035c-0.6002,0.2901-1.1876,0.432-1.7631,0.4238c-0.6793-0.0613-1.2482-0.3514-1.7067-0.8701
	c-0.4587-0.5187-0.856-1.1256-1.1921-1.8206c-0.1015-0.21-0.2084-0.4312-0.3207-0.6633l-15.9602-33.0098
	c-0.0814-0.1685-0.208-0.2827-0.3799-0.3425c-0.1716-0.0593-0.3419-0.049-0.5104,0.0324l-6.8229,3.2987
	c-0.1684,0.0815-0.2876,0.2112-0.3582,0.3876c-0.0703,0.1769-0.0648,0.3495,0.0167,0.518l16.0518,33.1994
	c1.7933,3.6017,4.0269,5.9644,6.7006,7.0881c1.7277,0.6716,3.3986,0.89,5.0128,0.6553c1.6142-0.2349,3.0214-0.6424,4.2219-1.2228
	c0.1473-0.0712,0.3053-0.1476,0.4737-0.229c1.1583-0.5601,2.3458-1.355,3.5625-2.3849c1.2168-1.03,2.15-2.3509,2.7988-3.9644
	C538.6273,664.1688,538.4369,661.1691,537.1005,657.814z M574.2917,646.343l-26.2724-40.5469
	c-0.1017-0.157-0.2419-0.2544-0.4204-0.2919c-0.1782-0.0372-0.3468-0.0053-0.5046,0.097l-5.6851,3.6839
	c-0.158,0.1024-0.2559,0.2432-0.2949,0.421c-0.0386,0.1783-0.007,0.3461,0.0947,0.5031l13.1266,20.2587l-18.463-17.0098
	c-0.1158-0.0921-0.2484-0.1455-0.3981-0.1602c-0.1492-0.014-0.2935,0.0229-0.4316,0.1125l-8.0243,5.1997
	c-0.0591,0.0384-0.1019,0.0806-0.129,0.1254c-0.0267,0.0452-0.0433,0.0844-0.0507,0.1164
	c-0.0197,0.0128-0.0412,0.0337-0.0645,0.0627c-0.0229,0.0295-0.0419,0.0759-0.056,0.1407l-0.002,0.1268l0.0085,0.0781
	c-0.007,0.0325-0.0027,0.0714,0.0129,0.1171c0.0159,0.0461,0.0424,0.0979,0.0806,0.1569l26.2723,40.5469
	c0.1021,0.1576,0.2422,0.2549,0.4204,0.2919c0.1786,0.0377,0.3468,0.0053,0.5046-0.097l5.6851-3.6839
	c0.158-0.1024,0.2562-0.2427,0.2949-0.421c0.0389-0.1778,0.0074-0.3455-0.0947-0.5029l-16.5991-25.6179l23.4159,21.4096
	c0.1088,0.1246,0.2398,0.1861,0.3928,0.1844c0.1534-0.0012,0.2889-0.0408,0.4073-0.1176l6.5734-4.2595
	c0.1578-0.1024,0.2562-0.2427,0.2947-0.421C574.4252,646.6682,574.3938,646.5005,574.2917,646.343z M591.8904,633.2795
	c0.0289-0.1878-0.0155-0.3547-0.1332-0.5009l-30.3071-37.6268c-0.1174-0.1458-0.2711-0.2247-0.4611-0.2368
	c-0.1896-0.0116-0.3488,0.0331-0.4763,0.1358l-5.9296,4.7761c-0.0547,0.044-0.0925,0.0902-0.1146,0.1373
	c-0.0218,0.0475-0.034,0.0882-0.038,0.1207c-0.0182,0.0146-0.0373,0.0375-0.0573,0.0687c-0.0195,0.0316-0.0335,0.0795-0.0406,0.1454
	l0.0114,0.1259l0.044,0.0547c-0.0035,0.0329,0.0003,0.0748,0.0114,0.126c0.0115,0.0516,0.0387,0.104,0.0826,0.1587l30.3071,37.6267
	c0.1177,0.1462,0.267,0.2289,0.4474,0.2478c0.181,0.0195,0.3443-0.0294,0.49-0.1468l5.9296-4.776
	C591.7836,633.6132,591.8618,633.4678,591.8904,633.2795z M614.8974,606.8975c-0.2386-1.2748-0.6606-2.4444-1.265-3.5073
	c-0.604-1.0626-1.304-2.0476-2.1002-2.9551c-0.7956-0.9072-1.5958-1.769-2.4004-2.5851l-9.2612-9.3953
	c-0.739-0.7496-1.5019-1.5568-2.29-2.423c-1.5091-1.6974-3.1512-3.355-4.9264-4.9726c-1.7747-1.6171-3.6847-2.8217-5.7299-3.6139
	c-2.0453-0.7921-4.228-0.8156-6.5493-0.0718c-2.3874,0.8434-4.511,2.3458-6.3711,4.5071c-1.8597,2.1617-2.8326,4.6482-2.9189,7.4595
	c0.0067,1.3729,0.2664,2.6525,0.7788,3.8388c0.5129,1.1868,1.1666,2.2913,1.9611,3.3138c0.7949,1.0229,1.6275,1.9759,2.4978,2.8588
	l16.9706,17.2162c4.7645,4.5336,9.5283,5.5846,14.2927,3.1542c1.2283-0.6863,2.3846-1.5624,3.4673-2.6298
	c1.3652-1.3139,2.4268-2.8441,3.1837-4.592C614.9938,610.7521,615.2139,608.8846,614.8974,606.8975z M643.5911,578.9379
	c-0.0742-0.2083-0.2159-0.3506-0.4247-0.427c-1.0919-0.3595-2.114-0.8653-3.0651-1.5162c-0.9506-0.6506-1.8692-1.3431-2.7549-2.0765
	c-0.2426-0.2225-0.5017-0.4433-0.7772-0.6622l-1.6533-1.3134c-1.0837-0.8609-2.1768-1.7291-3.2789-2.6047
	c-1.0649-0.8459-2.2239-1.6321-3.4753-2.3574c-1.251-0.725-2.6036-1.1721-4.0577-1.3414c-1.1459-0.1038-2.2336,0.0776-3.2633,0.5441
	c-0.018-0.0142-0.0421-0.0035-0.0712,0.0331c-0.0033-0.0326-0.0003-0.075,0.0103-0.1262c0.0674-0.4244,0.1-0.8616,0.0979-1.3114
	c-0.1665-2.5817-1.6641-5.0708-4.4942-7.4683c-1.7313-1.5546-3.5984-2.9183-5.6028-4.0923
	c-4.8796-2.532-9.3896-1.3801-13.5302,3.4559c-1.6951,2.0587-3.3389,4.1285-4.9316,6.209
	c-0.1017,0.1282-0.1964,0.2473-0.2836,0.3572c-0.6982,0.8792-1.4038,1.7675-2.1166,2.6649
	c-0.0437,0.055-0.0704,0.1085-0.0815,0.1593c-0.0107,0.0512-0.0138,0.0936-0.0104,0.1262
	c-0.0146,0.0182-0.0281,0.0449-0.0407,0.0796c-0.0123,0.0352-0.0151,0.0851-0.0075,0.1509l0.0391,0.1206l0.055,0.0438
	c0.0038,0.0329,0.0168,0.0732,0.0391,0.1207c0.0226,0.0479,0.0608,0.0931,0.1159,0.1368l37.9422,30.1404
	c0.1475,0.1171,0.3115,0.1652,0.4921,0.1444c0.181-0.0204,0.3298-0.1039,0.4461-0.2505l4.7352-5.9618
	c0.1018-0.1281,0.1458-0.2874,0.1321-0.4775c-0.0133-0.1899-0.0936-0.3433-0.2411-0.4604l-14.0251-11.1413
	c-0.1832-0.1455-0.3785-0.3155-0.5844-0.509l-0.0275-0.0219c-0.3383-0.3285-0.6892-0.6221-1.0527-0.8812l0.2399-0.3021
	c0.131-0.1649,0.2692-0.3389,0.4146-0.522c0.4288-0.6153,0.9146-1.1703,1.4574-1.6653c1.2472-0.8911,2.5717-0.9368,3.9735-0.1368
	c1.4024,0.8004,2.691,1.7419,3.8674,2.8258l0.0057,0.0493c0.4447,0.3831,0.8507,0.7206,1.2181,1.0125
	c0.5695,0.4523,1.15,0.9285,1.7417,1.4283c1.0914,0.9268,2.2202,1.816,3.3863,2.6675c1.1661,0.8517,2.4205,1.527,3.7618,2.025
	c0.3261,0.0798,0.5765,0.0098,0.751-0.21l4.8006-6.0441C643.5933,579.3877,643.6367,579.1832,643.5911,578.9379z M694.1146,426.1458
	l-5.9822-18.4113l15.6615-11.3788h-19.3588l-5.9821-18.4112l-5.9822,18.4112H653.112l15.6616,11.3788l-5.9822,18.4113
	l15.6616-11.3788L694.1146,426.1458z M248.7632,616.8575c1.4935-2.2487,1.1556-4.123-1.0151-5.6215
	c-0.1663-0.1196-1.549-0.9378-1.9077-1.2284c-0.4123,0.7038-7.9624,10.9886-8.1152,11.2006c0.202,0.114,1.6102,1.1595,1.7765,1.2792
	c2.3063,1.6608,4.4618,1.0993,6.4679-1.6857C245.9696,620.8017,247.9835,618.0715,248.7632,616.8575z M749.9719,400
	c0,193.2996-156.6877,350-349.9719,350S50.0281,593.2996,50.0281,400S206.7158,50,400,50S749.9719,206.7004,749.9719,400z
	 M737.1923,400c0-186.2412-150.9662-337.2195-337.1923-337.2195S62.8077,213.7588,62.8077,400S213.7739,737.2196,400,737.2196
	S737.1923,586.2413,737.1923,400z M400.7636,467.4261c-0.8109-4.6042-5.8477-8.8337-11.0289-9.0934
	c-1.8886-0.0947-3.6979,0.6852-5.4684,1.6742c-6.628,3.7028-12.6867,16.3348-12.6867,16.3348
	C386.6933,487.61,401.8704,473.7085,400.7636,467.4261z M609.3929,302.5397c-9.1964-21.3264-21.5561-40.9677-36.4983-58.3287
	c-1.6936-1.4549-3.5051-2.9619-5.4321-4.4987l-5.2281,1.7591l2.7649-4.301c-4.334-3.3908-8.8306-7.9711-13.9781-11.5204
	l-11.029,9.0013l7.7264-11.3208c-5.3159-4.2972-11.9086-8.6517-17.7415-11.5358l-14.5003,17.2653l10.2608-19.7231
	c-7.1196-3.6445-15.8412-7.1743-23.3174-9.6465l-15.1149,22.7184l9.4315-24.6537c-4.7243-1.0986-12.4074-2.9723-17.1424-3.5945
	c-4.1242-0.3952-7.2885-0.9313-11.1212-0.9523l-9.0934,28.2942l0.9216-28.3864c-10.4665-0.1364-21.5537,0.6808-29.3694,2.7956
	l2.3962,22.0271l-7.7725-20.491c-4.8263,1.1586-9.1044,2.5735-12.8065,4.0409c10.7454,7.3569,38.4886,30.9152,29.1809,73.1614
	c0,0,14.3161-9.2163,14.3012-30.0659c0,0,15.6348-0.5561,40.4756,11.275c0,0-0.9184-5.9265-7.7234-14.6108
	C517.3173,240.5833,577.5731,254.1073,609.3929,302.5397z M384.4637,659.8187c-0.2214-0.0133-1.9602,0.0244-2.4569-0.0312
	c0.0353,0.8015-0.8394,13.3077-0.8547,13.564c0.2507-0.0101,2.1454,0.1285,2.3669,0.1418c3.0728,0.1841,4.7102-1.4061,4.9119-4.7727
	c0,0,0.241-3.3248,0.2426-4.743C388.7215,661.325,387.3181,659.9381,384.4637,659.8187z M401.8696,479.3236
	c-11.6588,14.876-30.29,4.2926-30.29,4.2926C377.8148,494.7066,402.7912,491.5269,401.8696,479.3236z M353.0905,655.9581
	c-0.3693-0.0608-0.7597-0.0658-1.1711-0.015c-1.4419,0.1182-2.3644,1.3301-2.7674,3.6337c-0.1865,0.9887-0.348,1.9695-0.4845,2.9427
	c-0.0076,0.0468-0.0151,0.0923-0.0228,0.1386c-0.0836,0.5077-0.1673,1.0161-0.2508,1.5233l-2.8101,17.0679
	c-0.0797,0.4847-0.1577,0.9579-0.2337,1.4195c-0.179,0.943-0.3347,1.8888-0.4673,2.8389c-0.3526,2.5733,0.3829,4.0812,2.2066,4.5236
	c0.9811,0.2327,1.8152,0.1337,2.5029-0.299c0.5337-0.3621,0.9328-0.8422,1.1969-1.4387c0.2642-0.5966,0.4418-1.1719,0.5331-1.7258
	l2.3769-14.4368c0.2128-1.2925,0.4525-2.6042,0.7191-3.9354c0.6365-2.8584,1.0616-5.728,1.2751-8.6087
	c0.0554-1.1999-0.2753-2.1433-0.9919-2.8303C354.2736,656.3309,353.7366,656.0646,353.0905,655.9581z M627.0831,411.737
	c-9.765,116.6624-107.574,208.3063-226.8111,208.3062c-29.4954,0-57.6801-5.6085-83.5462-15.8152
	c77.4293,12.3275,109.0449-24.1472,109.0449-24.1472c-48.6624,20.8906-78.6795,13.6403-78.6795,13.6403
	c85.3767-23.9011,107.9262-68.9384,109.9537-75.5742c-39.6309,49.5645-128.0923,73.3365-155.0511,79.6101
	c-25.7853-12.3619-48.8923-29.4141-68.1855-50.0771c-0.0342-0.0367-0.0684-0.0735-0.1026-0.1102
	c-1.3291-1.4254-2.6395-2.8683-3.932-4.3277c-0.0528-0.0598-0.1061-0.1192-0.1589-0.179c-1.3158-1.4887-2.6133-2.9941-3.8901-4.5173
	h197.3755c20.5847-17.4832,37.4731-38.4008,47.0037-62.871H447.522c-0.4665,4.1807-1.8388,8.4805-4.6869,12.4747
	c-6.0047,12.4248-29.0642,32.6394-40.7198,32.6394c-0.1214,0-4.2412,0.1339-4.3624,0.1229
	c-8.2333-0.6759-18.4308-4.8167-21.9142-5.5605c-3.4832-0.7438-10.7085-0.3461-14.429-0.3687
	c-3.6787-0.0223-4.3116,0.3997-4.3009-1.3211c0.0106-1.7208-5.3148-9.247-6.4822-10.4759
	c-1.2903-1.0445-3.6328-1.5517-3.5944-4.3777c0.0617-4.5468-0.0055-11.0222,0.1382-13.8706
	c0.153-3.0418-2.2159-6.2998-4.2403-9.2624H188.3315c-0.0005-0.0013-0.001-0.0027-0.0015-0.004
	c-0.5412-1.3772-1.0647-2.7632-1.5797-4.1533c-0.2086-0.5632-0.414-1.1281-0.6182-1.6934c-0.3903-1.08-0.7715-2.1643-1.1459-3.2518
	c-0.2374-0.6903-0.4727-1.3814-0.7037-2.0747c-0.3674-1.1018-0.7264-2.2074-1.0772-3.3166
	c-0.2224-0.7039-0.4414-1.4093-0.6571-2.1162c-0.2627-0.8598-0.5172-1.7231-0.77-2.5872c-0.3535-1.2097-0.6971-2.4237-1.0308-3.6416
	c-0.1911-0.6966-0.3818-1.3932-0.5665-2.0924c-0.2398-0.9094-0.4751-1.8206-0.7038-2.7344
	c-0.121-0.4827-0.2364-0.9676-0.3544-1.4516c-0.4411-1.8125-0.8622-3.6328-1.2596-5.462c-0.0678-0.3117-0.1371-0.6227-0.2036-0.9348
	c-0.2395-1.1252-0.4726-2.2529-0.6954-3.3842c-0.0008-0.0038-0.0014-0.0076-0.0022-0.0113
	c-0.4724-2.3998-0.9064-4.8135-1.303-7.2397c-0.0096-0.0585-0.0195-0.1169-0.0291-0.1755
	c-0.5992-3.6842-1.1106-7.3979-1.5314-11.139c0-0.0001,0-0.0002,0-0.0003h181.1327c0.0186-16.2659,0.7801-22.1348,1.1096-26.8811
	c0.4506-10.4686,2.0627-26.1675,0.2458-28.6322c-1.123-1.5233-2.3689-4.4458-3.2095-7.3577H175.6866
	c0.6314-3.8392,1.3588-7.646,2.1797-11.4178c0.0014-0.0067,0.0029-0.0133,0.0043-0.02c0.8192-3.7622,1.7316-7.4897,2.7343-11.1798
	c0.0044-0.0164,0.0088-0.0327,0.0133-0.049c1.0028-3.6871,2.0961-7.3369,3.2772-10.9469c0.0041-0.0126,0.0081-0.0251,0.0122-0.0377
	c2.7671-8.4525,6.0161-16.6869,9.7154-24.6711c0.0003-0.0007,0.0006-0.0013,0.0009-0.002h175.1863
	c0.6414-1.8032,1.2231-3.6491,1.7237-5.5298c0,0,8.4483-28.3096,14.1011-30.0454l-0.2765-1.5668c0,0-10.746-13.7015-13.4738-25.7291
	H236.8594c0.0001-0.0001,0.0002-0.0002,0.0002-0.0002c1.2788-1.3181,2.5734-2.6205,3.8836-3.9075
	c0.0082-0.008,0.0164-0.0159,0.0245-0.0239c1.3017-1.2783,2.6188-2.541,3.9508-3.788c0.0175-0.0164,0.0352-0.0325,0.0526-0.049
	c1.3233-1.238,2.6614-2.4604,4.0139-3.6668c0.0266-0.0237,0.0535-0.0472,0.08-0.071c1.3443-1.1979,2.7029-2.3803,4.0755-3.5466
	c0.0359-0.0304,0.0719-0.0606,0.1078-0.091c1.3645-1.1579,2.7428-2.3001,4.1346-3.4261c0.0455-0.0369,0.0913-0.0734,0.1369-0.1101
	c1.3843-1.1181,2.7818-2.2205,4.1925-3.3065c0.0539-0.0415,0.108-0.0827,0.162-0.1241c1.404-1.0789,2.8208-2.1419,4.2504-3.1884
	c0.0627-0.0459,0.1256-0.0916,0.1884-0.1374c1.4238-1.0401,2.8601-2.0643,4.3088-3.0719c0.0692-0.0482,0.1387-0.0961,0.2081-0.1442
	c1.4446-1.0023,2.9012-1.9886,4.3698-2.9581c0.0754-0.0498,0.151-0.0993,0.2265-0.149c1.4647-0.9644,2.9411-1.9124,4.429-2.8436
	c0.082-0.0513,0.1642-0.1025,0.2464-0.1537c1.4838-0.926,2.979-1.8353,4.4854-2.7277c0.0887-0.0526,0.1777-0.105,0.2665-0.1575
	c1.5039-0.8882,3.019-1.7596,4.5449-2.614c0.0921-0.0516,0.1842-0.1031,0.2764-0.1545c1.5243-0.8506,3.0593-1.6842,4.6048-2.5006
	c0.0974-0.0514,0.1948-0.1028,0.2923-0.1541c1.5448-0.8131,3.1002-1.6089,4.6657-2.3872c0.099-0.0492,0.198-0.0985,0.2971-0.1476
	c1.5657-0.7757,3.1418-1.5335,4.7277-2.2739c0.1022-0.0477,0.2044-0.0956,0.3066-0.1431c1.5869-0.7379,3.1839-1.458,4.7904-2.1602
	c0.1023-0.0447,0.2045-0.0897,0.3069-0.1342c1.6099-0.7009,3.2297-1.3834,4.8588-2.0479c0.1007-0.0411,0.2012-0.0824,0.302-0.1234
	c1.6338-0.6637,3.2773-1.3086,4.9297-1.9352c0.0979-0.0371,0.1956-0.0746,0.2935-0.1116c1.6579-0.626,3.3252-1.2328,5.0013-1.821
	c0.0946-0.0332,0.189-0.0669,0.2837-0.0999c1.6815-0.5875,3.3724-1.1556,5.0717-1.7045c0.0913-0.0295,0.1823-0.0594,0.2736-0.0888
	c1.7058-0.5487,3.4207-1.0773,5.1439-1.5866c0.0859-0.0254,0.1716-0.0513,0.2576-0.0766c1.7313-0.5094,3.4713-0.9983,5.2195-1.4674
	c0.0791-0.0213,0.158-0.0431,0.2372-0.0642c1.758-0.4697,3.5245-0.9185,5.299-1.3468c0.0702-0.017,0.1401-0.0344,0.2103-0.0513
	c1.7841-0.4289,3.5766-0.8364,5.3768-1.2231c0.0626-0.0135,0.1251-0.0274,0.1877-0.0408c1.8092-0.387,3.6265-0.7521,5.4512-1.0957
	c0.0548-0.0103,0.1095-0.0212,0.1643-0.0315c1.837-0.3446,3.6819-0.6668,5.5342-0.967c0.042-0.0068,0.0838-0.0141,0.1258-0.0209
	c1.8634-0.3009,3.7344-0.579,5.6127-0.8344c0.0332-0.0045,0.0663-0.0094,0.0995-0.0139c1.8894-0.256,3.7861-0.4888,5.6899-0.6983
	c0.0221-0.0024,0.044-0.0051,0.066-0.0076c1.9182-0.2104,3.8435-0.3971,5.7758-0.5596c0.007-0.0006,0.0139-0.0013,0.0208-0.0018
	c5.8307-0.4899,11.724-0.7602,17.6716-0.8024c0.0005-0.0002,0.0009-0.0003,0.0014-0.0004c0.5494-0.0039,1.0956-0.0208,1.6459-0.0208
	c36.5346,0,71.0508,8.6174,101.6476,23.9079c-11.4452-3.5694-23.3999-5.9581-35.1056-6.4717
	c-53.2092-2.3348-79.6909,20.0303-79.6909,20.0303l14.7462,27.1883l-5.96-19.0165c0,0,5.0274-4.0943,14.4202-8.1386
	c0.3615,1.3188,0.5883,2.8898,0.4489,4.6365c-1.0445,13.0872-1.2903,38.5551,0.1843,44.3
	c-0.0614,7.3731,5.5298,12.9644,5.5298,12.9644c-1.2289-6.0213-1.1646-14.4051-0.983-21.8121
	c0.3071-12.5343,2.9492-20.3989,2.9492-20.3989c14.6848,23.041,13.5663,45.64,11.1211,50.3214
	c-3.3084-3.447-17.4521-3.6897-20.0303-1.9662c-13.3022,12.2885-25.6522,36.3432-25.6522,36.3432
	c-1.3825-8.817,7.3424-27.0654,7.3424-27.0654c-23.1024,17.3882-19.846,40.6749-19.846,40.6749
	c-4.5366-2.4685-7.8043-0.8272-12.0581,4.9153c-4.6082,6.2211-2.6267,6.4054-1.5668,9.032
	c1.0907,3.1336,3.3275,6.7083,4.1627,12.2271c0.8603,5.6833,1.3518,5.284,8.2334,4.8539c4.516-3.3485,6.1442-5.6216,7.9363-10.8727
	c1.28-3.7505,0.2953-7.9282,1.28-7.8058c2.0891,4.9155,0.3602,5.1377,2.0613,10.3614c2.6083,8.0099,6.0798,5.798,15.7263,5.798
	c17.0502-3.0876,14.6539-16.9582,17.4189-27.8335c6.8201-16.8659,33.3633-8.2947,33.3633-8.2947
	c-30.5984,1.5361-26.9276,18.1263-26.9276,18.1263c4.8083-2.781,25.0229-1.3525,25.0229-1.3525
	c-18.9542,25.3298-31.1487,28.9414-36.374,29.3081c-3.5022,0.2458-5.837,6.0214-3.2565,6.3286
	c7.9826,1.6142,18.9816-3.6327,25.9594-9.0013c7.4969-5.768,10.691-11.7508,10.691-11.7508
	c-4.7003,29.2926-39.7533,26.282-39.7533,26.282l-16.0057,59.8449c1.2283-11.8309,6.9467-61.7925,7.3117-67.341
	c0.3651-5.5486-7.6892-7.5881-13.0258-7.5881c-2.9493,0-13.2812,1.923-16.0365,7.6496c0.5533,15.5336-5.6698,81.3616-5.6698,81.3616
	c3.5475-0.6808,8.6344,0.0995,10.7158,1.0557c0.4949,0.2274,0.0068,1.3825-0.53,1.4746
	c-8.9091,1.5284-17.9402,6.1881-20.3682,9.7463c-2.1859,3.2036-4.562,7.0506-0.046,13.502
	c9.9536,11.6588,11.1057,24.4387,11.1057,24.4387c-4.6584-1.9681-7.4961-7.0352-7.4961-7.0352
	c-1.1674,13.2102,4.0058,11.4898,12.2271,11.4898c8.2213,0,11.3054,2.6728,18.3098,4.4238
	c6.6279,1.4789,15.8945-4.283,18.089-11.1518c2.213-6.1602,8.7458-25.1635,12.1407-30.7827
	c4.0092-6.6358,6.3593-9.0781,12.1195-5.4838c4.5209,2.821,7.5575,8.3408,7.5575,8.3408c-2.4565-0.7451-8.7403,1.1685-11.075,3.748
	c-2.3347,2.5907-15.4332,19.9508-17.757,28.0793c-2.0276,5.4684-6.9955,10.7559-9.8307,10.8138
	c-3.0106,0.0615-9.4622-1.1059-13.7631-1.7203c-3.4779-0.4969-7.0468-0.1909-11.1519-0.3687
	c-4.105-0.1892-4.8232,1.2903-4.8232,1.2903c15.6678-0.2458,22.2704,6.6293,35.1502,6.4515
	c17.1681-1.659,41.5453-41.1511,41.5453-41.1511c-14.7001-26.0363-9.2931-37.9254-9.2931-37.9254s-1.3518-1.152-3.9323-0.9677
	c-2.4565-0.2446-7.9361,6.6889-10.138,13.5942c-2.0891-13.2408,3.8094-18.2792,3.8094-18.2792
	c52.2489-1.4789,77.049-59.5992,80.6126-76.5573c-3.6845-18.8582-36.8005-48.6471-36.8005-48.6471
	c55.528,14.4084,74.3375,64.0309,72.0071,110.7654c-3.1131,62.4275-38.283,121.8579-38.283,121.8579
	c104.8627-87.6312,82.8585-158.6218,82.8585-158.6218c-8.4648,15.9005-11.3352,20.9731-11.3352,20.9731
	c3.4408-59.2305-49.7433-127.0957-49.7433-127.0957c105.6039,38.8286,103.0754,152.533,103.0754,152.533
	C625.7035,419.5115,626.4437,415.5859,627.0831,411.737z M410.9756,348.6609c2.3837,1.5022,19.6873-4.1742,16.1139-9.9087
	c-0.7673-1.2314-3.8213-0.8549-5.4969,0.9349C419.565,341.8531,418.6895,343.4696,410.9756,348.6609z M385.8449,234.1444
	c2.1526,2.0555,3.5979,3.6098,3.5979,3.6098s1.2289-1.4746,2.3809-1.7511c0,0,0.1187-0.6587-0.0006-1.8586H385.8449z
	 M476.73,418.2107h1.2378c-0.0729-0.7838-0.1497-1.5689-0.2368-2.3578C477.7311,415.8529,477.4849,416.8696,476.73,418.2107z
	 M488.0427,495.3517c21.2898-38.3401,16.2209-81.8414,16.2209-81.8414s-9.6772,56.7728-38.6166,111.3338
	c-23.7782,39.5001-11.4283,87.6169-11.4283,87.6169c2.642-6.39,28.5707-29.6768,28.5707-29.6768
	c-7.9412,3.8215-17.3267,9.2164-17.3267,9.2164S463.0049,551.4487,488.0427,495.3517z"/>
<g>
</g>
<g>
</g>
<g>
</g>
<g>
</g>
<g>
</g>
<g>
</g>
<g>
</g>
<g>
</g>
<g>
</g>
<g>
</g>
<g>
</g>
<g>
</g>
<g>
</g>
<g>
</g>
<g>
</g>
</svg>
