<?xml version="1.0" encoding="utf-8"?>
<!-- Generator: Adobe Illustrator 25.4.1, SVG Export Plug-In . SVG Version: 6.00 Build 0)  -->
<svg version="1.1" id="图层_1" xmlns="http://www.w3.org/2000/svg" xmlns:xlink="http://www.w3.org/1999/xlink" x="0px" y="0px"
	 viewBox="0 0 800 800" style="enable-background:new 0 0 800 800;" xml:space="preserve">
<g>
	<path style="fill:#115199;" d="M628.91,93.69c0,0-100.97-43.69-228.91-43.69S171.09,93.69,171.09,93.69h-57.28
		c0,0,0,129.13,0,285.44s58.25,247.57,131.07,301.94C317.7,735.44,392.01,750,400,750s82.3-14.56,155.12-68.93
		c72.82-54.37,131.07-145.63,131.07-301.94s0-285.44,0-285.44H628.91z M680.35,379.13c0,133.47-43.31,233.49-128.72,297.26
		c-37.83,28.25-75.46,44.98-100.37,54.05c-28.68,10.44-48.27,13.73-51.25,13.73c-7.23,0-80.03-14.31-151.63-67.77
		c-85.41-63.77-128.72-163.79-128.72-297.26V99.53h52.65l1.11-0.48c1-0.43,101.44-43.21,226.59-43.21
		c125.15,0,225.59,42.78,226.59,43.21l1.11,0.48l52.65,0V379.13z"/>
	<path style="fill:#115199;" d="M159.44,398.32c0,10.32,0.38,20.86,1.21,31.52c0.23,2.9,0.5,5.82,0.79,8.76
		c7.93,78.19,40.84,161.74,125.31,218.35c2.86,1.93,5.78,3.81,8.76,5.66c27.84,17.33,60.93,31.84,100.11,42.52
		c0.19,0.06,0.38,0.1,0.57,0.16c2.48,0.67,5.14,0.67,7.62,0c0.19-0.06,0.38-0.1,0.57-0.16c188.81-51.47,236.18-191.95,236.18-306.82
		c0-115.76,0-195.9,0-195.9H159.44C159.44,202.42,159.44,282.56,159.44,398.32z M546.16,619.32c1.56-1.5,3.1-3.01,4.61-4.54
		C549.26,616.31,547.72,617.82,546.16,619.32z M552.18,613.37c1.91-1.95,3.79-3.93,5.63-5.94
		C555.97,609.44,554.09,611.41,552.18,613.37z M404.38,345.87l77.76-134.69h50.57L404.38,433.46V345.87z M404.38,521.05
		l178.91-309.87h48.51v3.56L404.38,608.65V521.05z M404.5,696.03l227.3-393.7v96c0,65.53-15.91,125.23-46.03,172.65
		c-1.47,2.31-2.98,4.59-4.52,6.84c1.54-2.26,3.05-4.53,4.52-6.84c-1.47,2.32-2.99,4.6-4.53,6.86c-0.43,0.63-0.87,1.26-1.31,1.89
		c-1.22,1.76-2.46,3.5-3.72,5.22c-0.39,0.54-0.78,1.09-1.18,1.62c-1.63,2.19-3.28,4.36-4.98,6.5c-0.27,0.34-0.54,0.67-0.81,1
		c-1.46,1.82-2.94,3.62-4.45,5.4c-0.49,0.58-0.98,1.15-1.47,1.72c-1.52,1.77-3.06,3.51-4.63,5.24c-0.29,0.32-0.57,0.65-0.87,0.96
		c-1.86,2.03-3.76,4.03-5.7,6.01c-0.42,0.43-0.86,0.86-1.29,1.29c-1.56,1.58-3.15,3.14-4.76,4.68c-0.51,0.49-1.03,0.99-1.54,1.48
		c-4.04,3.82-8.22,7.52-12.54,11.12c-0.53,0.44-1.07,0.88-1.61,1.32c-1.75,1.44-3.53,2.86-5.33,4.26c-0.49,0.38-0.97,0.77-1.47,1.15
		c-2.25,1.73-4.54,3.44-6.86,5.12c-0.27,0.2-0.55,0.39-0.82,0.58c-2.05,1.47-4.13,2.92-6.23,4.34c-0.61,0.42-1.23,0.83-1.85,1.24
		c-2.05,1.37-4.13,2.72-6.23,4.05c-0.37,0.23-0.72,0.47-1.09,0.7c-2.47,1.55-4.98,3.06-7.52,4.55c-0.52,0.31-1.05,0.6-1.57,0.91
		c-2.06,1.2-4.15,2.37-6.26,3.53c-0.66,0.36-1.32,0.73-1.99,1.09c-2.6,1.4-5.21,2.79-7.88,4.13c2.66-1.34,5.27-2.73,7.86-4.13
		c-23.6,12.75-49.89,23.19-78.81,31.25C404.42,696.05,404.46,696.04,404.5,696.03z M558.8,606.33c1.52-1.68,3.02-3.37,4.49-5.08
		C561.82,602.96,560.32,604.65,558.8,606.33z M564.84,599.43c1.47-1.73,2.91-3.49,4.33-5.26
		C567.75,595.94,566.31,597.69,564.84,599.43z M570.08,593.04c1.68-2.12,3.33-4.28,4.94-6.45
		C573.41,588.77,571.77,590.92,570.08,593.04z M576.26,584.9c1.24-1.7,2.46-3.42,3.67-5.15C578.72,581.48,577.5,583.19,576.26,584.9
		z M544.51,620.89c-4.02,3.79-8.16,7.47-12.44,11.03C536.35,628.36,540.49,624.68,544.51,620.89z M530.34,633.35
		c-1.7,1.4-3.43,2.78-5.18,4.14C526.91,636.12,528.63,634.74,530.34,633.35z M523.58,638.73c-2.23,1.72-4.49,3.41-6.79,5.07
		C519.08,642.13,521.34,640.44,523.58,638.73z M515.83,644.47c-2,1.43-4.03,2.85-6.09,4.24
		C511.8,647.32,513.83,645.91,515.83,644.47z M507.81,650.01c-2.01,1.34-4.05,2.67-6.11,3.97
		C503.77,652.68,505.8,651.35,507.81,650.01z M500.51,654.74c-2.46,1.54-4.95,3.05-7.47,4.53
		C495.56,657.79,498.06,656.28,500.51,654.74z M491.41,660.21c-2.04,1.18-4.11,2.35-6.2,3.5
		C487.3,662.56,489.36,661.39,491.41,660.21z M286.75,646.33c-29.55-20.67-53.78-45.85-72.52-75.35
		c-23.82-37.5-38.76-82.7-43.95-132.37h116.48V646.33z M395.62,696.06c-37.93-10.57-71.35-25.22-100.11-43.85V438.6h100.11V696.06z
		 M168.2,211.18h227.42v55.57c-23.34,7.07-45.41,1.46-57.52-3.33c-14.04-5.49-45.46-10.89-70.3-3.62
		c-15.33,4.44-52.64-4.31-57.68-4.31c-4.47,0-11.91-3.62-13.15-4.23c-0.09-0.04-0.19,0.01-0.2,0.1l-0.67,3.96
		c-0.03,0.09-0.12,0.15-0.2,0.12c-0.64-0.22-1.3-0.32-1.96-0.32c-1.5,0-2.98,0.54-4.12,1.59l-2.85,2.6
		c-1.56,1.42-2.28,3.55-1.88,5.61l0.04,0.23c0,0.06-0.03,0.12-0.07,0.15l-3.2,2.04c-1.74,1.12-1.97,3.58-0.47,4.99l3.91,3.66
		c0.45,0.44,1.97,1.15,3.12,1.56c0.63,0.22,1.3,0.2,1.93-0.04c2.38-0.96,9.17-3.72,9.21-3.72l45.53,19.63c0.03,0,0.04,0,0.06,0.01
		h17.04c0.01,0,0.04,0,0.06,0.01l25.44,12.73c0.09,0.04,0.1,0.18,0.01,0.25c-10.66,8.55-7.07,20.54,7.53,9.09
		c0.06-0.04,0.07-0.13,0.04-0.19c-2.99-6,3.78-7.23,24.93-15.77c0.06-0.01,0.09-0.06,0.1-0.1c0.07-0.61,0.61-4.64,0.72-5.3
		c0-0.06-0.03-0.1-0.09-0.13l-6.48-3.58c-0.09-0.04-0.1-0.18-0.01-0.25l12.57-9.58c0.03-0.03,0.06-0.06,0.06-0.1l1.26-7.72
		c0.01-0.09,0.1-0.15,0.19-0.12c2.76,0.92,40.49,13.31,67.09,3.74v153.41H169.46c-0.83-10.34-1.26-20.85-1.26-31.52V211.18z
		 M302.22,294.61c0.15,0.01,0.18,0.2,0.06,0.28l-7.61,4.06c-0.03,0.01-0.04,0.01-0.07,0.01h-7.23c-0.03,0-0.07-0.01-0.1-0.03
		l-12.73-12.12c-0.07-0.06-0.06-0.18,0.01-0.23c8.92-6.16,17.27-7.52,19.5-7.78c0.16-0.01,0.2,0.19,0.07,0.28
		C279.9,288.56,290.88,293.32,302.22,294.61z"/>
	<path style="fill:#115199;" d="M264.03,113.75c1.67,0.42,0.99,0.13,5.58,1.25c4.47,0.97,7.83,1.8,9.08,2.5
		c1.11,0.83,2.11,1.26,2.53,2.8c0.42,1.53,0.15,2.92-1.39,4.46c-1.54,1.41-6.42,0.71-9.23,0.44c-2.76-0.28-5.85-1.26-9.06-2.22
		c-3.08-0.97-4.04-2.51-4.04-2.51v9.63c0,0,6.01,1.94,8.51,2.65c2.51,0.54,8.38,1.25,13.14,0.26c4.89-0.98,8.23-3.22,10.32-5.61
		c1.95-2.22,2.93-5.73,2.79-9.08c-0.13-3.2-1.55-6.27-4.47-8.36c-2.95-1.95-5.45-2.38-8.66-3.08c-3.09-0.83-4.9-0.97-8.12-1.8
		c-3.35-0.97-4.04-2.8-3.9-4.05c0.11-1.4,2.64-5.44,11.57-3.64c8.8,1.68,12.43,4.73,12.43,4.73v-9.2c0,0-8.52-3.08-14.1-3.48
		c-5.73-0.41-15.22,1.56-18.43,5.75c-3.49,4.47-3.06,8.38-1.79,11.59C257.9,110,262.51,113.19,264.03,113.75z"/>
	<polygon style="fill:#115199;" points="308.18,132.96 308.16,114.96 323.8,114.93 323.81,132.94 334.02,132.93 333.96,90.77 
		323.36,90.78 323.39,107.53 308.43,107.56 308.42,90.8 297.39,90.82 297.44,132.98 	"/>
	<polygon style="fill:#115199;" points="370.37,132.89 370.37,125.9 350.96,125.93 350.96,115.17 370.35,115.16 370.33,108.46 
		351.08,108.48 351.05,98.57 370.63,98.55 370.6,90.71 339.6,90.76 339.65,132.93 	"/>
	<polygon style="fill:#115199;" points="386.05,132.87 386.03,106.9 402.11,132.86 414.27,132.84 414.22,90.67 405.41,90.68 
		405.45,118.88 387.4,90.71 377.63,90.71 377.68,132.89 	"/>
	<polygon style="fill:#115199;" points="430.27,132.82 430.25,114.81 445.89,114.79 445.91,132.8 456.11,132.8 456.05,90.64 
		445.44,90.65 445.46,107.39 430.39,107.42 430.37,90.66 419.46,90.67 419.52,132.84 	"/>
	<path style="fill:#115199;" d="M481.32,133.19c17.46-0.45,17.04-11.74,17.04-11.74l-0.06-30.86L488,90.59l0.02,27.5
		c0,0,0.86,7.25-6.98,7.54c-7.95,0.29-8.1-7.67-8.1-7.67l-0.03-27.35l-11.04,0.02l0.04,31.26
		C461.91,121.89,462.21,133.63,481.32,133.19z"/>
	<polygon style="fill:#115199;" points="506.3,132.87 530.98,90.67 520.23,90.69 495.85,132.89 	"/>
	<polygon style="fill:#115199;" points="519.68,113.31 519.69,120.98 532.95,120.98 532.95,132.84 544.14,132.82 544.08,90.66 
		533.06,90.67 533.1,113.29 	"/>
	<polygon style="fill:#115199;" points="176.19,169.24 192.77,169.24 192.77,162.52 176.19,162.52 176.19,153.12 195.4,153.12 
		195.4,146.41 168.17,146.41 168.17,186.12 176.19,186.12 	"/>
	<path style="fill:#115199;" d="M219.69,186.8c5.83,0,10.49-1.81,13.98-5.43c3.49-3.62,5.23-8.64,5.23-15.05
		c0-6.47-1.76-11.51-5.27-15.14c-3.51-3.63-8.19-5.44-14.05-5.44c-3.23,0-6.09,0.52-8.56,1.57c-1.86,0.78-3.57,1.97-5.13,3.58
		c-1.56,1.61-2.79,3.42-3.7,5.44c-1.21,2.75-1.81,6.14-1.81,10.19c0,6.32,1.74,11.28,5.23,14.89
		C209.09,184.99,213.79,186.8,219.69,186.8z M211.68,155.98c2.02-2.27,4.69-3.4,7.99-3.4c3.3,0,5.96,1.12,7.95,3.36
		c2,2.24,2.99,5.63,2.99,10.19c0,4.61-1.02,8.06-3.07,10.36c-2.05,2.3-4.67,3.45-7.87,3.45c-3.2,0-5.83-1.16-7.91-3.48
		c-2.08-2.32-3.12-5.73-3.12-10.23C208.64,161.67,209.65,158.25,211.68,155.98z"/>
	<path style="fill:#115199;" d="M262.85,186.8c5.83,0,10.49-1.81,13.98-5.43c3.49-3.62,5.23-8.64,5.23-15.05
		c0-6.47-1.76-11.51-5.27-15.14c-3.51-3.63-8.19-5.44-14.05-5.44c-3.23,0-6.09,0.52-8.56,1.57c-1.86,0.78-3.57,1.97-5.13,3.58
		c-1.56,1.61-2.79,3.42-3.7,5.44c-1.21,2.75-1.81,6.14-1.81,10.19c0,6.32,1.74,11.28,5.23,14.89
		C252.25,184.99,256.94,186.8,262.85,186.8z M254.83,155.98c2.02-2.27,4.69-3.4,7.99-3.4c3.3,0,5.96,1.12,7.95,3.36
		c2,2.24,2.99,5.63,2.99,10.19c0,4.61-1.02,8.06-3.07,10.36c-2.05,2.3-4.67,3.45-7.87,3.45c-3.2,0-5.83-1.16-7.91-3.48
		c-2.08-2.32-3.12-5.73-3.12-10.23C251.8,161.67,252.81,158.25,254.83,155.98z"/>
	<polygon style="fill:#115199;" points="305.27,186.12 305.27,153.12 317.03,153.12 317.03,146.41 285.47,146.41 285.47,153.12 
		297.25,153.12 297.25,186.12 	"/>
	<path style="fill:#115199;" d="M322.23,186.12h13.52c5.11-0.04,8.33-0.13,9.67-0.27c2.13-0.23,3.92-0.86,5.38-1.88
		c1.45-1.02,2.6-2.38,3.44-4.09c0.84-1.71,1.26-3.46,1.26-5.27c0-2.29-0.65-4.29-1.95-5.99c-1.3-1.7-3.16-2.9-5.58-3.6
		c1.72-0.78,3.07-1.94,4.08-3.49c1-1.55,1.5-3.26,1.5-5.12c0-1.72-0.41-3.26-1.22-4.65c-0.81-1.38-1.83-2.49-3.05-3.32
		c-1.22-0.83-2.6-1.38-4.14-1.64s-3.89-0.39-7.03-0.39h-15.87V186.12z M330.25,153.02h4.61c3.77,0,6.06,0.05,6.85,0.14
		c1.34,0.16,2.34,0.63,3.02,1.4c0.68,0.77,1.02,1.77,1.02,2.99c0,1.28-0.39,2.32-1.18,3.1c-0.79,0.79-1.86,1.26-3.24,1.42
		c-0.76,0.09-2.7,0.14-5.82,0.14h-5.26V153.02z M330.25,168.81h6.47c3.65,0,6.02,0.19,7.11,0.57c1.09,0.38,1.93,0.98,2.51,1.82
		c0.58,0.83,0.87,1.84,0.87,3.03c0,1.41-0.37,2.53-1.12,3.37c-0.75,0.84-1.72,1.37-2.91,1.58c-0.78,0.16-2.61,0.24-5.5,0.24h-7.42
		V168.81z"/>
	<path style="fill:#115199;" d="M366.73,186.12l3.28-9.02h15.87l3.47,9.02h8.72l-15.9-39.71h-8.48l-15.47,39.71H366.73z
		 M377.84,155.67l5.47,14.74h-10.84L377.84,155.67z"/>
	<polygon style="fill:#115199;" points="402.55,146.73 402.55,186.12 430.5,186.12 430.5,179.43 410.56,179.43 410.56,146.73 	"/>
	<polygon style="fill:#115199;" points="436.43,146.73 436.43,186.12 464.39,186.12 464.39,179.43 444.45,179.43 444.45,146.73 	"/>
	<path style="fill:#115199;" d="M501.29,152.58c2.13,0,3.94,0.6,5.43,1.79c1.49,1.19,2.47,2.82,2.94,4.88l7.94-1.9
		c-0.9-3.18-2.26-5.62-4.06-7.31c-3.03-2.87-6.98-4.31-11.84-4.31c-5.56,0-10.05,1.83-13.46,5.49s-5.12,8.79-5.12,15.4
		c0,6.25,1.7,11.17,5.09,14.78c3.4,3.6,7.73,5.4,13,5.4c4.26,0,7.78-1.05,10.55-3.16c2.77-2.1,4.75-5.32,5.95-9.66l-7.77-2.47
		c-0.67,2.91-1.77,5.04-3.3,6.39c-1.54,1.35-3.37,2.03-5.5,2.03c-2.89,0-5.24-1.07-7.04-3.2c-1.81-2.13-2.71-5.71-2.71-10.73
		c0-4.73,0.92-8.15,2.75-10.27C495.95,153.64,498.34,152.58,501.29,152.58z"/>
	<polygon style="fill:#115199;" points="524.8,146.73 524.8,186.12 552.76,186.12 552.76,179.43 532.82,179.43 532.82,146.73 	"/>
	<path style="fill:#115199;" d="M561.45,182.07c1.14,1.4,2.69,2.54,4.65,3.41c1.96,0.88,4.84,1.31,8.63,1.31
		c3.14,0,5.69-0.4,7.64-1.21c1.95-0.8,3.51-1.88,4.67-3.24c1.16-1.35,1.96-3.02,2.4-4.98c0.43-1.97,0.65-5.34,0.65-10.1v-20.86
		h-8.02v21.97c0,3.14-0.12,5.39-0.35,6.75c-0.23,1.35-0.93,2.5-2.09,3.43c-1.16,0.93-2.87,1.4-5.15,1.4c-2.24,0-4-0.49-5.3-1.48
		c-1.29-0.98-2.11-2.29-2.45-3.91c-0.2-1.01-0.3-3.22-0.3-6.64v-21.51h-8.02v21.18c0,4.44,0.26,7.8,0.79,10.08
		C559.56,179.2,560.31,180.67,561.45,182.07z"/>
	<path style="fill:#115199;" d="M625.61,148.44c-1.22-0.83-2.6-1.38-4.14-1.64s-3.89-0.39-7.03-0.39h-15.87v39.71h13.52
		c5.11-0.04,8.33-0.13,9.67-0.27c2.13-0.23,3.92-0.86,5.38-1.88c1.45-1.02,2.6-2.38,3.44-4.09c0.84-1.71,1.26-3.46,1.26-5.27
		c0-2.29-0.65-4.29-1.95-5.99c-1.3-1.7-3.16-2.9-5.58-3.6c1.72-0.78,3.07-1.94,4.08-3.49c1-1.55,1.5-3.26,1.5-5.12
		c0-1.72-0.41-3.26-1.22-4.65S626.83,149.27,625.61,148.44z M606.58,153.02h4.61c3.77,0,6.06,0.05,6.85,0.14
		c1.34,0.16,2.34,0.63,3.02,1.4c0.68,0.77,1.02,1.77,1.02,2.99c0,1.28-0.39,2.32-1.18,3.1c-0.79,0.79-1.86,1.26-3.24,1.42
		c-0.76,0.09-2.7,0.14-5.82,0.14h-5.26V153.02z M622.42,177.6c-0.75,0.84-1.72,1.37-2.91,1.58c-0.78,0.16-2.61,0.24-5.5,0.24h-7.42
		v-10.62h6.47c3.65,0,6.02,0.19,7.11,0.57c1.09,0.38,1.93,0.98,2.51,1.82s0.87,1.84,0.87,3.03
		C623.54,175.64,623.17,176.76,622.42,177.6z"/>
	<polygon style="fill:#115199;" points="274.89,390.06 274.87,364.64 298.55,364.61 298.55,354.93 274.86,354.98 274.85,338.22 
		302.16,338.18 302.15,328.5 260.31,328.57 260.36,390.08 	"/>
	<path style="fill:#115199;" d="M320.9,386.82c15.98,8.35,33.43,1.68,38.06-3.51l-0.01-13.14c0,0-5.52,9.39-17.76,9.7
		c-12.24,0.16-22.85-9.36-22.25-20.33c0.59-10.97,4.17-20.36,20.73-22.83c10.59,0.27,18.22,6.91,18.22,6.91l-0.01-11.41
		c0,0-7.62-6.34-24.04-4.58c-16.41,1.76-23.27,9.27-27.89,21.98C301.47,362.3,305.07,378.32,320.9,386.82z"/>
	<path style="fill:#115199;" d="M227.78,366.83c9.82,1.9,8.98,2.94,10.3,4.15c0.48,2,0.01,1.57,0.01,3.13
		c-1.62,4.43-7.09,4.7-7.09,4.7s-3.69,0-9.18-0.41c-5.48-0.43-18.91-6.58-18.91-6.58l0.01,13.37c8.34,3.89,16.08,4.5,16.08,4.5
		s3.6,0.17,12.39,0.16c8.79-0.01,16.44-5.76,16.44-5.76c8.74-8.05,7.93-15.91,4.9-22.33c-3.04-7.64-22.31-10.39-28.09-11.34
		c-5.77-0.94-6.34-3.73-6.34-5.47c1.14-4.17,7.19-5.13,7.19-5.13s5.58-0.01,9.46-0.01c7.19,1.12,17.77,6.58,17.77,6.58l-0.01-13.1
		c-8.22-4.17-17.68-4.42-17.68-4.42s-3.97,0.01-11.54,0.02c-16.07,1.41-19.28,9.58-21.16,13.14c-0.66,4.7-0.94,8-0.18,10.08
		C205.73,363.03,217.94,364.92,227.78,366.83z"/>
</g>
<g>
</g>
<g>
</g>
<g>
</g>
<g>
</g>
<g>
</g>
<g>
</g>
<g>
</g>
<g>
</g>
<g>
</g>
<g>
</g>
<g>
</g>
</svg>
