<?xml version="1.0" encoding="utf-8"?>
<!-- Created by @FCLOGO 2022-06-02 16:20:10 . https://fclogo.top/ -->
<!-- FOR PERSONAL USE ONLY NOT FOR COMMERCIAL USE -->
<svg version="1.1" xmlns="http://www.w3.org/2000/svg" xmlns:xlink="http://www.w3.org/1999/xlink" x="0px" y="0px"
	 viewBox="0 0 800 800" enable-background="new 0 0 800 800" xml:space="preserve">
<g>
	<path fill="#000468" d="M618.34,464.23c-3.61,1.43-6.69,2.75-8.54,3.75c0,0,0.69,6.82,1.81,15.84
		C614.15,477.41,616.39,470.87,618.34,464.23z"/>
	<path fill="#000468" d="M553.8,553.8c-35.5,35.5-81.1,57.19-130.32,62.44l140.65-110l-2.42-21.21c-3.14-1.14-6.29-2.19-9.42-3.12
		l2.32,20.35L407.42,617.36l0,0l-7.42,5.8L245.39,502.25l2.32-20.35c-3.13,0.93-6.28,1.98-9.41,3.12l-2.42,21.21l140.65,110
		c-49.22-5.25-94.83-26.94-130.32-62.44c-16.25-16.25-29.6-34.63-39.82-54.49c-3.2,1.66-6.16,3.27-8.81,4.74
		c10.67,20.71,24.61,39.87,41.56,56.82c40.76,40.76,94.27,64.14,151.54,66.43l9.33,7.29l9.33-7.29
		c57.27-2.29,110.78-25.67,151.54-66.43c16.95-16.95,30.88-36.11,41.55-56.82c-2.65-1.47-5.61-3.08-8.81-4.74
		C583.39,519.17,570.05,537.55,553.8,553.8z"/>
	<path fill="#000468" d="M291.52,525.63v-84.68c-10.67,2.49-20.66,5.23-30.01,8.09l-5.55,48.78L291.52,525.63z"/>
	<path fill="#000468" d="M508.48,525.63l35.56-27.81l-5.57-48.79c-9.35-2.85-19.33-5.59-29.99-8.08V525.63z"/>
	<path fill="#000468" d="M400,50C206.7,50,50,206.7,50,400s156.7,350,350,350s350-156.7,350-350S593.3,50,400,50z M637.59,637.59
		C574.13,701.05,489.75,736,400,736s-174.13-34.95-237.59-98.41S64,489.75,64,400s34.95-174.13,98.41-237.59S310.25,64,400,64
		s174.13,34.95,237.59,98.41S736,310.25,736,400S701.05,574.13,637.59,637.59z"/>
	<path fill="#000468" d="M185.5,436.27c-1.98-11.87-3-23.99-3-36.27c0-58.1,22.62-112.72,63.7-153.8
		c41.08-41.08,95.7-63.7,153.8-63.7c5.8,0,11.55,0.24,17.27,0.68l0-10.04c-5.72-0.43-11.48-0.64-17.27-0.64
		c-60.77,0-117.9,23.66-160.87,66.63S172.5,339.23,172.5,400c0,13.95,1.26,27.7,3.7,41.14C179.38,439.44,182.48,437.82,185.5,436.27
		z"/>
	<path fill="#000468" d="M553.8,246.2c41.08,41.08,63.7,95.7,63.7,153.8c0,12.28-1.02,24.4-3,36.27c3.02,1.55,6.12,3.17,9.3,4.87
		c2.44-13.44,3.7-27.19,3.7-41.14c0-60.77-23.66-117.9-66.63-160.87c-34.73-34.73-78.71-56.84-126.38-64.04l21.07,14.55
		C492.39,199.3,526.16,218.57,553.8,246.2z"/>
	<path fill="#000468" d="M188.39,483.83c1.12-9.03,1.81-15.84,1.81-15.84c-1.85-1.01-4.93-2.33-8.54-3.75
		C183.61,470.87,185.85,477.41,188.39,483.83z"/>
	<polygon fill="#000468" points="305.74,392.89 306.5,398.55 308.67,398.15 307.3,392.61 	"/>
	
		<rect x="452.43" y="397.59" transform="matrix(0.1122 -0.9937 0.9937 0.1122 15.1015 815.4906)" fill="#000468" width="23.03" height="3.41"/>
	<path fill="#000468" d="M576.54,403.48l16.13,2.76c-7.71-3.49-20.45-8.78-37.56-14.27c-2.54-0.81-5.16-1.63-7.89-2.45
		C515.49,380,464.2,368.66,400,368.66S284.51,380,252.78,389.52c-2.73,0.82-5.35,1.64-7.89,2.45
		c-17.11,5.49-29.85,10.78-37.56,14.27l16.13-2.76l-19.01,7.82l19.01-2.06l-17.42,6.48l19.64-1.38L208,421.19l17.67-1.53
		l-15.82,6.68h0l17.38-1.58l-15.38,7.13l17.38-2.25l-15.65,7.06l17.42-2.41l-13.85,6.65l16.29-1.33l-11.2,6.1l15.63-2l-17.28,7.32
		l18.39-3.21l-13.09,7.09c0,0,16.33-5.98,25.1-8.84c39.45-12.86,87.41-23.32,149-23.32s109.55,10.47,149,23.32
		c8.77,2.86,25.1,8.84,25.1,8.84l-13.09-7.09l18.39,3.21l-17.28-7.32l15.63,2l-11.2-6.1l16.29,1.33L569,434.29l17.42,2.41
		l-15.65-7.06l17.38,2.25l-15.38-7.13l17.38,1.58h0l-15.82-6.68l17.67,1.53l-17.67-6.85l19.64,1.38l-17.42-6.48l19.01,2.06
		L576.54,403.48z M267.36,429.78c-0.31,0.54-0.76,0.89-1.36,1.06l-6.66,1.83l-1.3-4.71c0.02-0.01,0.07-0.02,0.13-0.03
		c0.06-0.02,0.12-0.02,0.18-0.01c0.08-0.02,0.34-0.01,0.81,0.04c0.47,0.04,1.08-0.03,1.82-0.24l1.83-0.5l-6.49-23.59
		c-0.2-0.75-0.44-1.31-0.7-1.69c-0.27-0.38-0.42-0.61-0.47-0.67l-0.07-0.26l5.16-1.42l0.07,0.26c0,0.08-0.02,0.36-0.06,0.82
		c-0.03,0.46,0.06,1.07,0.26,1.82l7.05,25.64C267.75,428.69,267.67,429.24,267.36,429.78z M273.65,428.6l-0.08-0.3
		c0.01-0.05,0.03-0.32,0.06-0.8c0.03-0.48-0.06-1.08-0.26-1.8l-6.9-25c-0.21-0.75-0.44-1.31-0.71-1.7
		c-0.27-0.38-0.42-0.61-0.47-0.68l-0.08-0.3l5.16-1.42l0.08,0.3c0,0.08-0.02,0.36-0.06,0.82c-0.03,0.47,0.06,1.07,0.26,1.82l6.9,25
		c0.2,0.73,0.44,1.29,0.7,1.68c0.27,0.39,0.43,0.62,0.46,0.66l0.08,0.3L273.65,428.6z M294.23,423.32l-11.37-20.17l4.5,18.86
		c0.17,0.73,0.39,1.29,0.64,1.68c0.25,0.39,0.39,0.62,0.41,0.7c0.05,0.1,0.08,0.19,0.11,0.29l-5.24,1.25
		c-0.02-0.1-0.04-0.21-0.04-0.31c0.01-0.08,0.04-0.35,0.08-0.82c0.05-0.46-0.01-1.06-0.19-1.79l-6.03-25.27
		c-0.17-0.73-0.39-1.29-0.64-1.7c-0.26-0.4-0.4-0.63-0.44-0.67c-0.05-0.09-0.08-0.19-0.11-0.29l6.3-1.5l11.54,20.48l-4.58-19.2
		c-0.17-0.73-0.39-1.29-0.64-1.7c-0.26-0.4-0.4-0.63-0.44-0.67l-0.07-0.3l5.21-1.24l0.07,0.3c-0.01,0.06-0.04,0.32-0.09,0.8
		c-0.04,0.48,0.02,1.08,0.19,1.8l6.03,25.27c0.17,0.73,0.39,1.29,0.64,1.68c0.25,0.39,0.4,0.62,0.44,0.69l0.07,0.3L294.23,423.32z
		 M313,419.4l-0.06-0.31c0.02-0.05,0.06-0.31,0.14-0.77c0.07-0.46,0.04-1.07-0.1-1.83l-3.25-14.11l-2.71,0.5l1.92,14.35
		c0.14,0.74,0.32,1.32,0.55,1.73c0.23,0.42,0.35,0.65,0.36,0.7c0.05,0.1,0.08,0.2,0.09,0.3l-5.3,0.97c0.02-0.03,0.02-0.14-0.02-0.31
		c0.02-0.05,0.05-0.23,0.1-0.51c0.06-0.29,0.06-0.68,0.02-1.2l-3.42-26.65c-0.14-0.76-0.33-1.35-0.56-1.75
		c-0.23-0.4-0.37-0.64-0.41-0.71c-0.04-0.1-0.08-0.2-0.09-0.3l10.95-2c0.02,0.1,0.03,0.21,0.02,0.31c0.01,0.08-0.02,0.34-0.09,0.79
		c-0.08,0.45-0.06,1.04,0.05,1.78l6.28,26.32c0.16,0.44,0.31,0.78,0.46,1.02c0.15,0.24,0.23,0.38,0.24,0.43
		c0.04,0.1,0.08,0.2,0.1,0.3L313,419.4z M333.63,416.05l-9.22-21.23l2.53,19.22c0.1,0.74,0.25,1.32,0.46,1.74
		c0.21,0.42,0.32,0.66,0.33,0.74c0.04,0.1,0.06,0.2,0.08,0.3l-5.34,0.7c-0.01-0.1-0.01-0.21,0-0.31c0.02-0.08,0.07-0.35,0.17-0.8
		c0.1-0.46,0.1-1.05,0-1.8l-3.39-25.75c-0.1-0.74-0.25-1.33-0.47-1.76c-0.21-0.43-0.33-0.67-0.37-0.72c-0.04-0.1-0.07-0.2-0.08-0.3
		l6.42-0.84l9.37,21.57l-2.57-19.57c-0.1-0.74-0.25-1.33-0.46-1.76c-0.21-0.43-0.34-0.67-0.37-0.72l-0.04-0.31l5.3-0.7l0.04,0.31
		c-0.02,0.05-0.08,0.32-0.17,0.79c-0.09,0.47-0.09,1.07,0,1.82l3.38,25.76c0.1,0.75,0.25,1.32,0.47,1.74
		c0.21,0.41,0.33,0.66,0.37,0.73l0.04,0.31L333.63,416.05z M360.06,412.93c0-0.03-0.01-0.06-0.03-0.12
		c-0.02-0.05-0.03-0.11-0.03-0.19c0-0.05,0-0.26,0.02-0.62c0.02-0.36-0.06-0.86-0.23-1.5l-1.46-4.57l-0.82,4.75
		c-0.09,0.63-0.1,1.12-0.04,1.48c0.06,0.36,0.09,0.57,0.1,0.62l-0.06,0.31l-5.15,0.33l0.06-0.32c0.05-0.05,0.15-0.25,0.31-0.58
		c0.16-0.33,0.3-0.8,0.42-1.41l2.49-13.8c-0.68-2.16-1.39-4.32-2.11-6.49c-0.72-2.17-1.39-4.33-1.99-6.5l-0.14-0.34
		c-0.19-0.58-0.39-1.04-0.59-1.36c-0.2-0.32-0.33-0.51-0.39-0.56l-0.1-0.3l5.15-0.33l0.1,0.3c0,0.05,0,0.27-0.02,0.64
		c-0.02,0.38,0.06,0.88,0.23,1.52l1.42,4.53l0.86-4.75c0.09-0.63,0.1-1.12,0.04-1.48c-0.06-0.36-0.09-0.57-0.1-0.62l0.06-0.31
		l5.18-0.33l-0.06,0.31c-0.02,0.05-0.13,0.27-0.31,0.64c-0.18,0.37-0.36,0.89-0.52,1.55l-2.43,13.6l4.15,13.18
		c0.25,0.63,0.49,1.12,0.72,1.47c0.23,0.35,0.36,0.55,0.39,0.6l0.1,0.31L360.06,412.93z M370.15,411.87l-0.02-0.31
		c0.02-0.05,0.1-0.31,0.23-0.77c0.13-0.46,0.18-1.06,0.14-1.81l-1.3-25.9c-0.04-0.77-0.15-1.38-0.32-1.81
		c-0.18-0.43-0.28-0.68-0.31-0.76l-0.02-0.31l5.34-0.27l0.02,0.31c-0.02,0.08-0.1,0.34-0.23,0.79c-0.13,0.45-0.18,1.06-0.14,1.83
		l1.3,25.9c0.04,0.75,0.15,1.35,0.32,1.79c0.18,0.44,0.28,0.69,0.31,0.74l0.02,0.31L370.15,411.87z M391.49,411.13L384.69,389
		l0.37,19.38c0.01,0.75,0.1,1.34,0.27,1.78c0.16,0.44,0.25,0.69,0.25,0.77c0.03,0.1,0.04,0.21,0.04,0.31l-5.39,0.1
		c0-0.1,0.01-0.21,0.03-0.31c0.02-0.08,0.11-0.34,0.26-0.78c0.15-0.44,0.21-1.04,0.2-1.79l-0.5-25.97c-0.01-0.75-0.1-1.35-0.27-1.8
		c-0.16-0.45-0.26-0.7-0.29-0.75c-0.03-0.1-0.04-0.21-0.04-0.31l6.47-0.13l6.91,22.48l-0.38-19.73c-0.01-0.75-0.1-1.35-0.27-1.8
		c-0.16-0.45-0.26-0.7-0.29-0.75l-0.01-0.31l5.35-0.1l0.01,0.31c-0.03,0.05-0.11,0.31-0.26,0.76c-0.14,0.46-0.21,1.05-0.2,1.8
		l0.5,25.97c0.01,0.75,0.1,1.34,0.27,1.78c0.16,0.44,0.26,0.69,0.29,0.77l0.01,0.31L391.49,411.13z M407.85,383.68l-0.27,23.03
		l3.41,0.04l0.15-12.99c-0.58,0.05-1.05,0.13-1.39,0.26c-0.34,0.13-0.54,0.2-0.6,0.22l-0.3,0l0.06-4.85l4.38,0.05
		c0.62,0.01,1.15,0.23,1.58,0.68c0.43,0.45,0.65,0.98,0.64,1.6l-0.2,17.18c-0.01,0.62-0.23,1.15-0.68,1.58
		c-0.44,0.44-0.98,0.65-1.6,0.64L402.69,411c0-0.1,0.02-0.21,0.04-0.31c0-0.08,0.08-0.33,0.24-0.77c0.16-0.44,0.24-1.05,0.25-1.82
		l0.29-25.55c0.01-0.9,0.34-1.67,0.98-2.3c0.64-0.62,1.41-0.93,2.32-0.92l6.59,0.08c0.62,0.01,1.15,0.23,1.58,0.68
		c0.44,0.44,0.65,0.98,0.64,1.6l-0.02,1.94c-0.01,0.78,0.07,1.38,0.23,1.83c0.16,0.44,0.24,0.7,0.24,0.78
		c0.03,0.1,0.04,0.21,0.03,0.31l-5.42-0.06c0-0.1,0.02-0.21,0.04-0.31c0-0.05,0.08-0.29,0.24-0.72c0.16-0.42,0.25-1,0.29-1.72
		L407.85,383.68z M435.61,380.62c-0.03,0.05-0.11,0.14-0.23,0.26c-0.12,0.12-0.27,0.28-0.44,0.48c-0.17,0.2-0.35,0.44-0.53,0.74
		c-0.19,0.3-0.35,0.64-0.48,1.02l-6.81,24.08l3.33,0.22c0.77,0.05,1.38,0.01,1.83-0.11c0.45-0.13,0.71-0.19,0.79-0.18
		c0.03,0,0.06,0,0.1-0.02c0.04-0.01,0.07-0.01,0.1-0.01l0.08,0l-0.32,4.84l-12.69-0.82c0-0.05,0.05-0.15,0.14-0.3
		c0.05-0.05,0.27-0.25,0.64-0.6c0.37-0.35,0.72-0.97,1.03-1.86l6.81-24.11l-3.33-0.22c-0.78-0.05-1.39-0.01-1.83,0.11
		c-0.45,0.13-0.71,0.2-0.79,0.22l-0.27-0.02l0.31-4.84l12.73,0.82L435.61,380.62z M454.4,382.46c0,0.05-0.11,0.29-0.32,0.71
		c-0.21,0.42-0.35,1.02-0.43,1.79l-2.46,25.82c-0.07,0.77-0.05,1.39,0.08,1.84c0.12,0.45,0.18,0.72,0.18,0.8
		c0.02,0.08,0.02,0.17,0.01,0.27l-5.4-0.51c0.01-0.1,0.03-0.19,0.06-0.27c0.01-0.08,0.12-0.33,0.33-0.75
		c0.21-0.42,0.35-1.02,0.43-1.79l1.37-14.4l-3.4-0.32l-1.37,14.4c-0.07,0.77-0.05,1.39,0.06,1.84c0.11,0.45,0.18,0.72,0.2,0.8
		l-0.03,0.27l-5.36-0.51c0.01-0.1,0.03-0.19,0.06-0.27c0.01-0.08,0.11-0.33,0.32-0.75c0.21-0.42,0.35-1.02,0.43-1.79l2.46-25.82
		c0.08-0.77,0.05-1.38-0.08-1.84c-0.13-0.45-0.19-0.71-0.18-0.76c-0.02-0.1-0.02-0.21-0.01-0.31l5.37,0.51l-0.03,0.31
		c-0.03,0.05-0.15,0.28-0.34,0.71c-0.2,0.42-0.33,1.02-0.41,1.78l-0.68,7.11l3.4,0.32l0.68-7.11c0.07-0.77,0.05-1.38-0.07-1.83
		c-0.12-0.45-0.18-0.7-0.17-0.76c-0.02-0.11-0.02-0.21-0.01-0.31l5.38,0.51C454.46,382.25,454.43,382.36,454.4,382.46z
		 M468.44,413.5c-0.07,0.62-0.35,1.12-0.84,1.5c-0.49,0.39-1.04,0.55-1.65,0.48l-7.55-0.85c-0.62-0.07-1.12-0.35-1.51-0.83
		c-0.39-0.49-0.55-1.04-0.48-1.65l3.06-27.05c0.07-0.62,0.35-1.12,0.83-1.5c0.48-0.39,1.04-0.55,1.65-0.48l7.55,0.85
		c0.59,0.07,1.08,0.33,1.45,0.79c0.38,0.46,0.56,0.99,0.55,1.58L468.44,413.5z M490.54,387.27c-0.04,0.07-0.17,0.31-0.39,0.72
		c-0.22,0.41-0.4,0.99-0.53,1.76l-4,24.17l-0.34,2.03c-0.1,0.61-0.4,1.1-0.91,1.46c-0.5,0.36-1.06,0.49-1.68,0.39l-7.5-1.24
		c-0.61-0.1-1.1-0.41-1.46-0.91c-0.36-0.5-0.49-1.06-0.39-1.68l4.33-26.2c0.13-0.76,0.15-1.38,0.07-1.83
		c-0.08-0.46-0.13-0.73-0.14-0.81l0.05-0.31l5.28,0.87c-0.02,0.1-0.05,0.2-0.09,0.3c-0.01,0.08-0.13,0.32-0.36,0.73
		c-0.22,0.41-0.4,1-0.53,1.76l-3.99,24.14l3.36,0.56l3.99-24.14c0.12-0.76,0.15-1.37,0.07-1.83c-0.08-0.46-0.13-0.73-0.14-0.81
		l0.05-0.31l5.28,0.87L490.54,387.27z M508.72,400.94c0.75,0.16,1.36,0.21,1.82,0.14c0.46-0.07,0.73-0.09,0.8-0.07
		c0.06-0.01,0.12-0.02,0.18,0c0.06,0.01,0.11,0.02,0.13,0.03c-0.42,1.73-0.78,3.48-1.1,5.24l-0.3-0.06c-0.07-0.04-0.3-0.18-0.7-0.42
		c-0.39-0.24-0.97-0.44-1.72-0.6l-1.54-0.32l-2.96,14.16c-0.15,0.74-0.2,1.34-0.14,1.81c0.06,0.47,0.1,0.74,0.11,0.79l-0.06,0.3
		l-5.24-1.09c0.02-0.1,0.06-0.2,0.1-0.3c0.01-0.05,0.14-0.28,0.38-0.69c0.24-0.41,0.45-0.98,0.6-1.72l5.31-25.39
		c0.16-0.76,0.21-1.37,0.14-1.83c-0.06-0.46-0.09-0.73-0.07-0.81c0-0.11,0-0.21,0.02-0.31c2.05,0.45,4.1,0.89,6.17,1.31
		c2.06,0.42,4.12,0.84,6.17,1.27l-0.99,4.74l-0.3-0.06c-0.05-0.03-0.27-0.17-0.67-0.42c-0.4-0.24-0.98-0.44-1.73-0.6l-4.78-1
		l-1.17,5.58L508.72,400.94z M519.25,425.29c-0.03,0.14-0.11,0.2-0.26,0.17l-4.36-0.79c-0.14-0.03-0.2-0.11-0.18-0.25l0.78-4.33
		c0.03-0.14,0.11-0.2,0.26-0.18l4.36,0.79c0.15,0.03,0.21,0.11,0.18,0.26L519.25,425.29z M538.74,419.83
		c-0.04,0.04-0.19,0.26-0.45,0.66c-0.27,0.4-0.5,0.96-0.69,1.68l-1.53,5.77c-0.16,0.6-0.51,1.06-1.05,1.37
		c-0.54,0.31-1.11,0.39-1.71,0.23l-10.04-2.66l0.08-0.3c0.04-0.04,0.19-0.26,0.45-0.66c0.27-0.4,0.5-0.96,0.69-1.68l6.65-25.11
		c0.19-0.72,0.27-1.32,0.23-1.78c-0.04-0.46-0.06-0.74-0.07-0.82l0.08-0.3l10.04,2.66c0.6,0.16,1.06,0.51,1.37,1.05
		c0.31,0.54,0.39,1.11,0.23,1.7l-1.28,4.84c-0.2,0.75-0.28,1.35-0.24,1.82c0.04,0.46,0.06,0.74,0.07,0.82l-0.07,0.26l-5.21-1.38
		c0.03-0.1,0.06-0.19,0.11-0.25c0.02-0.07,0.17-0.3,0.44-0.68c0.28-0.38,0.51-0.95,0.71-1.7l0.75-2.81l-3.34-0.88l-5.9,22.26
		l3.34,0.88l0.99-3.75c0.19-0.73,0.27-1.33,0.23-1.81c-0.04-0.48-0.05-0.74-0.04-0.79c0.01-0.11,0.02-0.21,0.05-0.31l5.19,1.37
		L538.74,419.83z M544.35,433.02c-0.04,0.14-0.14,0.18-0.28,0.14l-4.22-1.38c-0.14-0.05-0.18-0.14-0.14-0.27l1.36-4.18
		c0.05-0.14,0.14-0.18,0.28-0.14l4.22,1.37c0.14,0.05,0.19,0.14,0.14,0.28L544.35,433.02z"/>
	<path fill="#000468" d="M386.3,678.38c-0.07,4.38-0.13,8.76-0.19,13.16l6.99,0.09c0.05-4.39,0.12-8.77,0.19-13.13
		c0.07-4.35,0.14-8.75,0.19-13.18l-6.99-0.09C386.44,669.62,386.37,674.01,386.3,678.38z"/>
	<path fill="#000468" d="M627.69,172.31C566.87,111.49,486.01,78,400,78c-86.01,0-166.87,33.49-227.69,94.31S78,313.99,78,400
		c0,86.01,33.49,166.87,94.31,227.69C233.13,688.51,313.99,722,400,722c86.01,0,166.87-33.49,227.69-94.31
		C688.51,566.87,722,486.01,722,400C722,313.99,688.51,233.13,627.69,172.31z M528.88,127.58c1.28-0.44,2.54-0.36,3.77,0.24
		l8.96,4.38c0.84,0.41,1.42,1.06,1.72,1.95c0.31,0.89,0.25,1.75-0.16,2.6l-1.29,2.63c-0.52,1.06-0.81,1.94-0.87,2.65
		c-0.07,0.71-0.12,1.12-0.17,1.22c-0.03,0.16-0.09,0.31-0.15,0.45l-7.38-3.61c0.07-0.14,0.16-0.27,0.26-0.39
		c0.03-0.07,0.3-0.34,0.79-0.82c0.49-0.48,1-1.2,1.52-2.16l-4.64-2.27l-15.32,31.3l4.64,2.27l8.64-17.65
		c-0.83-0.32-1.52-0.51-2.07-0.56c-0.55-0.05-0.87-0.08-0.96-0.08l-0.41-0.2l3.22-6.59l5.95,2.91c0.84,0.41,1.42,1.06,1.72,1.95
		c0.3,0.89,0.25,1.75-0.16,2.6l-11.42,23.35c-0.41,0.84-1.06,1.42-1.95,1.72c-0.89,0.31-1.76,0.25-2.6-0.16l-14.07-6.88
		c0.07-0.14,0.15-0.27,0.26-0.4c0.05-0.1,0.33-0.4,0.83-0.9c0.5-0.5,1.01-1.27,1.53-2.32l16.99-34.73
		C526.66,128.85,527.6,128.02,528.88,127.58z M489.09,112.93c0.01-0.72,0.01-1.13,0-1.22c0.01-0.16,0.05-0.31,0.1-0.46l9.22,3.3
		l-2.3,35.51l10.06-28.12c0.38-1.07,0.58-1.96,0.59-2.68c0.01-0.72,0.01-1.13,0-1.22l0.16-0.44l7.62,2.73l-0.16,0.44
		c-0.07,0.06-0.32,0.37-0.77,0.94c-0.45,0.57-0.87,1.38-1.25,2.45l-13.25,37.01c-0.38,1.07-0.57,1.95-0.58,2.66
		c0,0.71-0.01,1.12-0.01,1.24l-0.16,0.44l-9.31-3.33l2.26-34.96l-9.89,27.62c-0.38,1.07-0.58,1.95-0.58,2.66
		c0,0.71-0.02,1.11-0.06,1.22c-0.02,0.16-0.06,0.32-0.11,0.46l-7.68-2.75c0.05-0.15,0.12-0.29,0.21-0.42
		c0.08-0.1,0.34-0.42,0.78-0.97c0.44-0.55,0.86-1.35,1.24-2.42l13.25-37.01C488.89,114.54,489.08,113.65,489.09,112.93z
		 M446.45,150.21c0.05-0.06,0.28-0.4,0.66-1.02c0.38-0.61,0.71-1.47,0.97-2.58l9.01-38.26c0.26-1.1,0.35-2,0.28-2.71
		c-0.08-0.7-0.12-1.11-0.13-1.24l0.11-0.45l18.56,4.37l-1.68,7.14l-0.46-0.11c-0.1-0.07-0.46-0.29-1.05-0.67
		c-0.59-0.38-1.46-0.71-2.6-0.98l-7.14-1.68l-1.98,8.4l2.34,0.55c1.14,0.27,2.06,0.37,2.76,0.29c0.7-0.08,1.1-0.13,1.18-0.14
		l0.46,0.11l-1.86,7.88l-0.45-0.11c-0.07-0.06-0.4-0.27-0.99-0.66c-0.6-0.38-1.46-0.7-2.6-0.97l-2.34-0.55l-4.5,19.13l7.14,1.68
		c1.14,0.27,2.06,0.37,2.76,0.29c0.7-0.08,1.11-0.12,1.24-0.13l0.46,0.11l-1.68,7.14l-18.56-4.37L446.45,150.21z M418.21,146.75
		c0.02-0.12,0.19-0.49,0.53-1.12c0.34-0.63,0.58-1.52,0.73-2.69l4.93-38.94c0.15-1.16,0.14-2.09-0.03-2.78
		c-0.17-0.69-0.25-1.08-0.24-1.15c-0.02-0.16-0.02-0.32,0-0.47l8.09,1.02l-0.06,0.46c-0.05,0.07-0.23,0.42-0.55,1.05
		c-0.32,0.63-0.55,1.52-0.7,2.68l-1.36,10.73l5.12,0.65l1.36-10.73c0.15-1.16,0.14-2.08-0.02-2.77c-0.16-0.69-0.23-1.07-0.22-1.15
		c-0.02-0.16-0.02-0.32,0-0.47l8.11,1.03c-0.02,0.16-0.06,0.31-0.12,0.46c-0.01,0.08-0.18,0.43-0.52,1.06
		c-0.34,0.63-0.58,1.52-0.73,2.69l-4.93,38.94c-0.15,1.17-0.14,2.09,0.03,2.78c0.17,0.69,0.24,1.1,0.23,1.21
		c0.03,0.12,0.03,0.26,0.01,0.41l-8.15-1.03c0.02-0.15,0.06-0.29,0.11-0.4c0.02-0.12,0.19-0.49,0.53-1.12
		c0.34-0.63,0.58-1.52,0.72-2.69l2.75-21.71l-5.12-0.65l-2.75,21.71c-0.15,1.17-0.15,2.09,0,2.78c0.15,0.69,0.23,1.1,0.26,1.22
		l-0.05,0.41l-8.09-1.02C418.13,147,418.16,146.86,418.21,146.75z M389.92,146.27c0.04-0.07,0.19-0.45,0.44-1.13
		c0.25-0.68,0.39-1.59,0.41-2.72l0.86-39.3c0.03-1.13-0.07-2.03-0.29-2.7c-0.22-0.67-0.35-1.06-0.39-1.18l0.01-0.47l15.71,0.35
		c0.94,0.02,1.74,0.37,2.39,1.05c0.65,0.68,0.97,1.49,0.95,2.43l-0.17,7.57c-0.03,1.17,0.07,2.09,0.29,2.77
		c0.22,0.67,0.35,1.06,0.38,1.18l-0.01,0.41l-8.15-0.18c0-0.16,0.03-0.29,0.07-0.41c0-0.12,0.14-0.51,0.41-1.16
		c0.27-0.66,0.41-1.58,0.44-2.75l0.1-4.4l-5.22-0.11l-0.77,34.84l5.22,0.11l0.13-5.86c0.02-1.13-0.08-2.05-0.31-2.74
		c-0.23-0.69-0.34-1.07-0.34-1.15c-0.03-0.16-0.05-0.31-0.05-0.47l8.12,0.18l-0.01,0.47c-0.04,0.08-0.18,0.46-0.44,1.13
		c-0.25,0.68-0.39,1.59-0.41,2.72l-0.2,9.03c-0.02,0.94-0.37,1.73-1.05,2.38c-0.68,0.65-1.49,0.97-2.43,0.95l-15.71-0.35
		L389.92,146.27z M359.66,101.42l13.09,33.09l-2.91-29.72c-0.11-1.13-0.32-2.02-0.61-2.68c-0.3-0.66-0.47-1.03-0.52-1.1l-0.05-0.47
		l8.06-0.79l0.05,0.47c-0.03,0.08-0.13,0.48-0.3,1.18c-0.16,0.7-0.2,1.62-0.09,2.75l3.83,39.12c0.11,1.13,0.32,2.01,0.61,2.65
		c0.3,0.64,0.47,1.01,0.52,1.13l0.05,0.47l-9.84,0.96l-12.89-32.58l2.86,29.2c0.11,1.13,0.32,2.01,0.61,2.65
		c0.3,0.64,0.46,1.02,0.47,1.13c0.05,0.15,0.09,0.31,0.1,0.46l-8.12,0.8c-0.02-0.15-0.01-0.31,0.01-0.47
		c0.03-0.12,0.13-0.52,0.29-1.21c0.17-0.69,0.2-1.59,0.09-2.72l-3.83-39.12c-0.11-1.13-0.32-2.02-0.62-2.68
		c-0.3-0.66-0.48-1.03-0.52-1.1c-0.05-0.15-0.09-0.3-0.1-0.46L359.66,101.42z M334.25,105.8c0.03,0.15,0.05,0.31,0.05,0.47
		c0.03,0.12-0.01,0.51-0.1,1.2c-0.09,0.68-0.03,1.58,0.18,2.69l10.97,39.45c0.27,0.66,0.52,1.17,0.76,1.52
		c0.24,0.35,0.36,0.56,0.38,0.64c0.07,0.15,0.13,0.3,0.16,0.45l-7.91,1.75l-0.1-0.46c0.02-0.08,0.08-0.48,0.16-1.18
		c0.09-0.7,0-1.62-0.25-2.77l-5.71-21.15l-4.07,0.9l3.7,21.59c0.25,1.11,0.56,1.97,0.93,2.59c0.38,0.62,0.57,0.97,0.59,1.04
		c0.07,0.15,0.13,0.3,0.16,0.45l-7.96,1.76c0.03-0.05,0.02-0.2-0.04-0.47c0.02-0.08,0.06-0.34,0.13-0.78
		c0.06-0.43,0.05-1.04-0.04-1.82l-6.67-40.11c-0.25-1.14-0.57-2.02-0.94-2.62c-0.37-0.6-0.59-0.95-0.65-1.06
		c-0.07-0.14-0.13-0.29-0.16-0.44L334.25,105.8z M292.01,117.7c0.05,0.15,0.08,0.3,0.09,0.46c0.04,0.11,0.05,0.52,0.03,1.22
		c-0.02,0.7,0.16,1.61,0.53,2.72l11.6,35.16l4.9-1.62l-11.6-35.16c-0.37-1.11-0.77-1.95-1.2-2.5c-0.43-0.56-0.68-0.89-0.76-0.99
		l-0.15-0.44l7.69-2.54l0.15,0.44c0,0.13-0.01,0.54-0.02,1.24c-0.01,0.71,0.16,1.62,0.53,2.73l11.61,35.21l0.97,2.95
		c0.29,0.89,0.23,1.76-0.19,2.59c-0.42,0.84-1.08,1.41-1.97,1.7l-10.92,3.6c-0.89,0.29-1.76,0.23-2.6-0.19
		c-0.84-0.42-1.4-1.08-1.7-1.97l-12.59-38.17c-0.37-1.11-0.77-1.95-1.2-2.51c-0.43-0.56-0.69-0.89-0.76-0.99l-0.15-0.44
		L292.01,117.7z M256.67,133.73c0.33-0.88,0.92-1.52,1.78-1.91l10.5-4.78c0.82-0.37,1.66-0.41,2.5-0.11
		c0.85,0.3,1.49,0.85,1.94,1.63l17.13,37.65c0.39,0.85,0.42,1.72,0.08,2.6c-0.34,0.88-0.94,1.52-1.8,1.91l-0.43,0.2
		c0.51,0.46,0.94,0.8,1.28,1.03c0.34,0.23,0.55,0.38,0.62,0.43c0.14,0.11,0.24,0.24,0.3,0.38l-6.42,2.92l-1.77-2.03l-4.07,1.85
		c-0.86,0.39-1.72,0.42-2.61,0.09c-0.88-0.33-1.52-0.92-1.9-1.77l-17.05-37.49C256.36,135.48,256.33,134.61,256.67,133.73z
		 M190.02,582.89c-1.25,1.4-3.15-0.56-3.15-0.56c-14.73-18.37-70.07-75.77-70.07-183.35c0-117.45,62.86-174.84,71.67-187.14
		c0,0,1.59-1.91,2.52-1c1.03,1-0.47,2.52-0.47,2.52s-67.45,66.35-67.34,185.62c0.11,115.55,65.9,181.14,65.9,181.14
		S190.95,581.86,190.02,582.89z M371.17,660.93l-1.01,8.02l-13.48,19.65l6.82,0.86c1.05,0.13,1.9,0.13,2.56-0.01
		c0.66-0.14,1.03-0.2,1.1-0.19c0.15-0.02,0.3-0.02,0.44,0l-0.85,6.77l-13.76-1.73c-0.87-0.11-1.57-0.51-2.1-1.2
		c-0.54-0.69-0.75-1.46-0.64-2.33l0.37-2.92l13.47-19.62l0.65-5.13l-4.76-0.6l-0.64,5.09l-6.77-0.85l0.05-0.43
		c0.04-0.07,0.21-0.39,0.51-0.96c0.29-0.57,0.5-1.37,0.63-2.42l0.52-4.12c0.11-0.86,0.51-1.57,1.2-2.1
		c0.69-0.54,1.47-0.75,2.33-0.64l10.62,1.34c0.87,0.11,1.57,0.5,2.11,1.2C371.06,659.28,371.28,660.06,371.17,660.93z
		 M399.23,694.65c-0.01,0.87-0.33,1.62-0.96,2.23c-0.63,0.61-1.38,0.91-2.25,0.9l-12.92-0.16c-0.88-0.01-1.62-0.33-2.23-0.96
		c-0.61-0.62-0.91-1.38-0.9-2.25l0.4-32.21c0.01-0.87,0.33-1.61,0.96-2.23c0.63-0.61,1.38-0.91,2.26-0.9l12.92,0.16
		c0.88,0.01,1.62,0.33,2.23,0.96c0.61,0.62,0.91,1.37,0.9,2.24L399.23,694.65z M412.65,697.81c-0.01-0.15,0-0.29,0.03-0.44
		c0.03-0.08,0.14-0.44,0.31-1.09c0.18-0.65,0.24-1.5,0.17-2.55l-1.74-28.28c-0.71,0.12-1.27,0.27-1.69,0.46
		c-0.42,0.19-0.66,0.29-0.73,0.29c-0.07,0.04-0.16,0.07-0.26,0.07l-0.11,0.01l-0.42-6.81l5.83-0.36c0.87-0.05,1.63,0.21,2.26,0.79
		c0.64,0.58,0.98,1.3,1.04,2.18l1.93,31.28c0.06,1.05,0.23,1.89,0.51,2.51c0.28,0.62,0.42,0.97,0.42,1.04
		c0.05,0.15,0.07,0.29,0.08,0.43L412.65,697.81z M449.03,692.92c-0.48,0.54-1.08,0.87-1.8,0.99l-10.66,1.79
		c-0.86,0.14-1.65-0.04-2.36-0.55c-0.71-0.51-1.14-1.19-1.28-2.06l-0.69-4.09c-0.21-1.03-0.47-1.83-0.79-2.39
		c-0.32-0.56-0.48-0.89-0.5-0.99c-0.05-0.1-0.09-0.22-0.12-0.37l6.73-1.13l0.85,5.06l4.79-0.8l-2.01-11.98l-2.8,0.47
		c-0.29,0.05-0.57,0.2-0.84,0.45c-0.27,0.25-0.48,0.4-0.61,0.46l-0.43,0.07l-1.22-7.25c0.03-0.01,0.1-0.02,0.19-0.03
		c0.09-0.01,0.17-0.01,0.25,0.01c0.18,0,0.43,0.07,0.75,0.18c0.31,0.11,0.61,0.14,0.9,0.1l1.51-0.25l0.8-3.17l-0.84-4.99l-4.74,0.79
		l0.85,5.06l-6.73,1.13l-0.07-0.43c0.02-0.08,0.1-0.43,0.21-1.06c0.12-0.63,0.09-1.46-0.09-2.5l-0.69-4.09
		c-0.14-0.86,0.04-1.65,0.54-2.36c0.51-0.71,1.19-1.14,2.06-1.29l10.55-1.77c0.82-0.14,1.58,0.02,2.27,0.47
		c0.68,0.46,1.13,1.1,1.34,1.91l1.4,8.35c0.09,0.5,0.12,0.91,0.1,1.23c-0.02,0.32-0.09,0.69-0.2,1.12l-0.89,3.58
		c1.02,0.35,1.67,0.83,1.96,1.44c0.29,0.61,0.53,1.5,0.72,2.65l2.41,14.38C449.78,691.76,449.51,692.38,449.03,692.92z M400,637.5
		c-91.87,0-171.55-52.17-211.05-128.49c-3,1.79-4.73,2.88-4.73,2.88c0.54-2.89,1.07-6.01,1.57-9.21
		c-6.53-13.59-11.79-27.9-15.66-42.77c-8.82-3.18-16.95-5.88-16.95-5.88c4.73-2.77,9.34-5.39,13.82-7.87
		c-2.94-14.93-4.5-30.36-4.5-46.15c0-131.17,106.33-237.5,237.5-237.5S637.5,268.83,637.5,400c0,15.79-1.56,31.22-4.5,46.15
		c4.48,2.48,9.08,5.1,13.82,7.87c0,0-8.12,2.71-16.95,5.88c-3.87,14.87-9.13,29.18-15.66,42.77c0.5,3.19,1.02,6.31,1.57,9.21
		c0,0-1.72-1.09-4.73-2.88C571.55,585.33,491.87,637.5,400,637.5z M613.13,582.33c0,0-1.9,1.96-3.15,0.56
		c-0.93-1.03,0.95-2.76,0.95-2.76s65.79-65.6,65.9-181.14c0.11-119.27-67.34-185.62-67.34-185.62s-1.5-1.52-0.47-2.52
		c0.94-0.91,2.52,1,2.52,1c8.81,12.3,71.67,69.69,71.67,187.14C683.21,506.57,627.86,563.96,613.13,582.33z"/>
	<polygon fill="#000468" points="331.01,122.08 328.63,113.78 326.28,114.3 327.74,122.81 	"/>
	
		<rect x="271.03" y="133.85" transform="matrix(0.9103 -0.4141 0.4141 0.9103 -38.0772 126.8768)" fill="#000468" width="5.22" height="34.85"/>
	<path fill="#000468" d="M251.38,460.35v-8.11c-7.15,2.35-13.88,4.74-20.24,7.1L251.38,460.35z"/>
	<path fill="#000468" d="M548.62,460.35l20.24-1.01c-6.36-2.36-13.09-4.75-20.24-7.1V460.35z"/>
	<path fill="#000468" d="M192.24,500.14c12.94-7.33,35.07-18.82,56.07-24.66l0.52-9.24l-31.58-1.57l-11.4-31.71
		c-11.29,5.32-24.1,11.82-38.19,19.7c9.16,3.23,20.65,7.48,25.41,10.06l3.51,1.91l-0.4,3.97
		C196.09,469.43,194.5,484.93,192.24,500.14z"/>
	<path fill="#000468" d="M603.42,464.62l3.51-1.91c4.76-2.58,16.25-6.83,25.41-10.06c-14.09-7.88-26.9-14.38-38.19-19.7l-11.4,31.71
		l-31.58,1.57l0.52,9.24c21,5.84,43.13,17.33,56.07,24.66c-2.26-15.21-3.85-30.71-3.93-31.54L603.42,464.62z"/>
	<path fill="#000468" d="M416.76,309.74c-0.61-0.29-1.22-0.56-1.85-0.82c-0.14-0.06-0.28-0.11-0.43-0.17
		c-0.51-0.2-1.02-0.4-1.54-0.58c-0.16-0.06-0.33-0.11-0.49-0.17c-0.51-0.17-1.03-0.34-1.56-0.49c-0.08-0.02-0.15-0.05-0.23-0.07
		l0,0.01c-3.4-0.97-6.99-1.5-10.7-1.5c-2.54,0-5.02,0.25-7.42,0.71l0,0c-0.02,0-0.05,0.01-0.07,0.02c-2.11,0.41-4.17,0.99-6.15,1.73
		c-0.16,0.06-0.31,0.12-0.47,0.19c-0.48,0.19-0.95,0.38-1.42,0.58c-0.21,0.09-0.42,0.19-0.64,0.29c-0.41,0.19-0.81,0.37-1.21,0.57
		c-0.23,0.12-0.46,0.23-0.69,0.35c-0.37,0.2-0.74,0.4-1.11,0.6c-0.23,0.13-0.46,0.26-0.69,0.4c-0.36,0.21-0.72,0.44-1.07,0.66
		c-0.22,0.14-0.44,0.28-0.65,0.42c-0.38,0.25-0.75,0.52-1.12,0.78c-0.18,0.13-0.36,0.25-0.53,0.38c-0.54,0.4-1.07,0.81-1.58,1.24
		c-0.05,0.04-0.1,0.08-0.14,0.13c-0.47,0.39-0.93,0.79-1.38,1.2c-0.16,0.14-0.31,0.3-0.47,0.44c-0.33,0.32-0.67,0.64-0.99,0.96
		c-0.17,0.17-0.33,0.35-0.5,0.52c-0.3,0.32-0.6,0.64-0.89,0.97c-0.16,0.18-0.32,0.36-0.47,0.55c-0.29,0.34-0.58,0.69-0.86,1.04
		c-0.14,0.17-0.28,0.35-0.41,0.53c-0.3,0.39-0.59,0.78-0.87,1.18c-0.11,0.15-0.21,0.3-0.32,0.45c-0.34,0.49-0.66,0.98-0.97,1.48
		c-0.04,0.07-0.09,0.13-0.13,0.2c-3.66,5.94-5.78,12.94-5.78,20.43c0,0.06,0,0.12,0,0.18l-0.01,0c0,0.23,0.02,0.47,0.02,0.7
		c0.01,0.45,0.02,0.9,0.05,1.35c0.02,0.29,0.04,0.58,0.07,0.87c0.03,0.42,0.07,0.85,0.12,1.27c0.03,0.29,0.07,0.58,0.11,0.87
		c0.06,0.41,0.12,0.83,0.18,1.24c0.05,0.28,0.1,0.57,0.15,0.85c0.08,0.41,0.16,0.82,0.26,1.23c0.06,0.27,0.12,0.54,0.19,0.81
		c0.1,0.43,0.22,0.85,0.34,1.27c0.07,0.24,0.13,0.49,0.21,0.73c0.14,0.48,0.3,0.94,0.46,1.41c0.06,0.18,0.12,0.36,0.18,0.54
		c0.23,0.64,0.48,1.28,0.75,1.91c0.04,0.08,0.08,0.17,0.11,0.25c0.23,0.54,0.48,1.07,0.73,1.6c0.1,0.2,0.21,0.4,0.31,0.6
		c0.19,0.37,0.38,0.73,0.58,1.1c3.75-0.23,7.56-0.43,11.42-0.59l1.64-11.86l-9.58-8.65l-5.02,1.52c0.14-6.34,1.93-12.28,4.96-17.39
		l7.67,0.91l9.51-1l5.23-8.31l0.67-8.31c2.48-0.54,5.05-0.84,7.69-0.84c3.52,0,6.92,0.52,10.14,1.47l-1.22,7.01l6.23,9.98
		l11.96,1.66l5.13,0.16c2.13,4.42,3.36,9.36,3.49,14.56l-3.48-1.42l-9.79,8.65v11.85c3.96,0.16,7.87,0.36,11.72,0.6
		c0.11-0.19,0.22-0.38,0.32-0.58c0.08-0.16,0.17-0.32,0.25-0.48c0.19-0.38,0.38-0.76,0.56-1.14c0.08-0.17,0.16-0.35,0.23-0.52
		c0.17-0.38,0.34-0.76,0.5-1.15c0.08-0.19,0.15-0.37,0.22-0.56c0.15-0.38,0.3-0.76,0.44-1.15c0.07-0.2,0.14-0.41,0.21-0.62
		c0.13-0.37,0.26-0.75,0.37-1.13c0.07-0.24,0.14-0.48,0.2-0.72c0.1-0.35,0.21-0.71,0.3-1.07c0.09-0.35,0.17-0.71,0.25-1.07
		c0.08-0.34,0.15-0.67,0.22-1.01c0.1-0.53,0.2-1.06,0.28-1.59c0.03-0.19,0.05-0.37,0.07-0.56c0.06-0.45,0.12-0.9,0.17-1.35
		c0.02-0.21,0.03-0.42,0.05-0.64c0.04-0.43,0.08-0.86,0.1-1.3c0.01-0.23,0.02-0.46,0.02-0.69c0.01-0.34,0.03-0.67,0.04-1.01l-0.01,0
		c0-0.14,0.01-0.28,0.01-0.43c0-6.22-1.46-12.1-4.05-17.32c-0.01-0.02-0.03-0.05-0.04-0.07c-0.29-0.59-0.6-1.17-0.92-1.74
		c-0.06-0.1-0.12-0.2-0.18-0.31c-0.28-0.49-0.58-0.98-0.88-1.46c-0.08-0.13-0.17-0.26-0.25-0.39c-0.3-0.45-0.6-0.9-0.91-1.34
		c-0.09-0.13-0.18-0.26-0.28-0.39c-0.33-0.46-0.68-0.9-1.03-1.34c-0.08-0.1-0.15-0.2-0.23-0.29c-0.87-1.06-1.79-2.08-2.76-3.05
		c-0.14-0.14-0.28-0.27-0.42-0.4c-0.35-0.33-0.69-0.66-1.05-0.98c-0.19-0.17-0.38-0.33-0.57-0.49c-0.32-0.28-0.65-0.55-0.98-0.82
		c-0.21-0.17-0.42-0.33-0.63-0.5c-0.33-0.25-0.66-0.5-1-0.74c-0.22-0.16-0.43-0.31-0.65-0.47c-0.35-0.25-0.72-0.48-1.08-0.72
		c-0.21-0.13-0.41-0.27-0.62-0.4c-0.43-0.27-0.88-0.52-1.32-0.77c-0.14-0.08-0.29-0.17-0.43-0.25c-0.61-0.33-1.23-0.65-1.86-0.95
		C416.8,309.76,416.78,309.75,416.76,309.74z"/>
	<polygon fill="#000468" points="408.89,333.64 391.61,333.64 386.38,348.41 399.77,358.92 413.6,348.61 	"/>
	<path fill="#000468" d="M391.54,302.78l1.42-103.41l-22.29,15.66c-3.55,59.41,0,70.06-28.82,82.03
		c-45.39,16-72.18,46.56-75.4,82.39c0.63-0.16,1.24-0.33,1.88-0.49c1.3-13.86,6.07-30.18,19.49-42.28
		c31.54-28.44,83.9-32.51,100.36-33.07C389.28,303.29,390.4,303.01,391.54,302.78z"/>
	<path fill="#000468" d="M403.08,302.07c0.95-0.09,1.83-0.13,2.61-0.13l-2.22-109.96l-6.98,4.91l-1.44,105.35
		c1.62-0.18,3.26-0.29,4.92-0.29C401.02,301.95,402.05,302,403.08,302.07z"/>
	<path fill="#000468" d="M461.67,200.29L456.9,197c0.45,14.89,1.37,46.95,1.53,63.69c0.19,18.71,9.11,31,22.53,41.7
		c-13.41-10.7-17.13-33.03-17.29-38.24C462.67,231.55,461.67,200.29,461.67,200.29z"/>
	<path fill="#000468" d="M437.59,193.06c0.01,0.36,0.67,36.19,0.67,59c0,36.88,19.71,49.17,38.77,61.05
		c11.95,7.45,24.31,15.16,31.06,28.76c4.44,8.95,6.14,19.66,5.11,32.71c6.39,1.39,12.48,2.84,18.25,4.32
		c1.95-23.34-2.89-39.77-27.46-54.91c-34.15-21.03-48.82-39.95-49.05-63.27c-0.18-17.75-1.2-52.8-1.61-66.19l-33.55-23.17v9.08
		l17.81,11.69L437.59,193.06z"/>
	<path fill="#000468" d="M271.85,378.06c19.29-4.83,41.92-9.21,67.49-12.06c0.27-25.62,14.94-42.2,30.85-52.05
		c2.52-2.42,5.33-4.54,8.38-6.29c-21.65,1.75-62.42,8.17-88.42,31.62C277.53,350.65,273.16,366.04,271.85,378.06z"/>
	<path fill="#000468" d="M438.31,325.49c12.07,6.74,24.8,19.08,20.26,40.29c18.63,2,35.72,4.82,51.13,8.05
		c2.49-34.66-15.59-45.95-34.52-57.75c-19.87-12.39-40.42-25.2-40.42-64.02c0-20.73-0.54-52.24-0.65-58.02l-14.34-9.41v122.15
		C427.74,310.92,434.24,317.48,438.31,325.49z"/>
	<path fill="#000468" d="M460.26,563.34V527.8c2.5-2.37,3.88-4.9,3.88-7.49c0-2.58-1.38-4.96-3.88-7.09v-80.83
		c-11.45-1.41-23.49-2.47-36.17-3.06v39.79c0,0,0,0,0,0c-1.51-4.59-4.43-8.74-8.72-12.4l-1.33-1.13c-0.73-0.62-1.78-0.69-2.58-0.17
		l-1.46,0.95c-0.7,0.46-15.13,10.27-8.42,35.06c0.11,0.13,0.21,0.28,0.32,0.41c-0.23-0.29-0.46-0.6-0.7-0.88
		c-6.04-6.89-15.01-9.12-21.29-9.8c0.01,0,0.03,0,0.04,0c-0.49-0.58-1-1.14-1.54-1.68c0.16,0.16,0.33,0.32,0.48,0.48
		c-0.1-4.68,1.16-10.03,4.51-16.13c0.27-0.5,0.87-0.73,1.41-0.55c2.65,0.89,10.27,4.05,15.18,11.86c0.24-2.2,0.67-4.18,1.22-5.96
		c-6.85-8.09-15.8-10.44-16.24-10.55l-1.68-0.43c-0.96-0.24-1.97,0.18-2.46,1.04l-0.86,1.5c-1.78,3.09-3.11,6.12-4.04,9.09v-40.53
		c-12.68,0.6-24.73,1.65-36.17,3.06v80.83c-2.5,2.14-3.88,4.51-3.88,7.09c0,2.59,1.38,5.12,3.88,7.49v35.54l36.17,28.29v-50.47
		c7.47,1.12,15.61,1.76,24.09,1.76s16.62-0.63,24.09-1.76v50.47L460.26,563.34z M441.97,477.3l2.4,0.21l0.33,2.39
		c1.5,11.39-0.29,20.1-5.35,25.86c-0.42,0.48-0.86,0.93-1.31,1.35c0.45-0.42,0.88-0.87,1.3-1.35c5.05-5.77,6.85-14.47,5.35-25.86
		l-0.33-2.39L441.97,477.3c0,0-0.55-0.04-1.49-0.04c-2.36,0-6.88,0.3-11.6,2.2c4.72-1.9,9.24-2.21,11.6-2.21
		C441.42,477.25,441.97,477.3,441.97,477.3z M375.52,480.89c-0.22,0-0.44-0.01-0.64-0.01c-1.48,0-2.39,0.08-2.48,0.08l-2.41,0.21
		l-0.31,2.39c-1.38,10.62,0.64,19.1,6,25.2c1.76,2.01,3.78,3.6,5.9,4.89c0,0,0,0,0,0c-0.63,0.99-1.85,1.5-3.03,1.13
		c-32.49-10.16-17.64-40.48-17.64-40.48C367.44,475.45,372.15,477.83,375.52,480.89z M362.13,471.5c0.55,0.11,1.1,0.22,1.64,0.34
		C363.23,471.72,362.68,471.61,362.13,471.5z M364.84,472.11c0.64,0.17,1.28,0.35,1.89,0.54
		C366.12,472.46,365.49,472.28,364.84,472.11z M367.83,473.03c0.41,0.15,0.82,0.3,1.23,0.46
		C368.65,473.33,368.25,473.17,367.83,473.03z M370.07,473.9c0.58,0.25,1.14,0.52,1.68,0.8
		C371.21,474.42,370.65,474.15,370.07,473.9z M372.71,475.22c0.34,0.19,0.67,0.39,1,0.59C373.38,475.61,373.05,475.41,372.71,475.22
		z M425.28,477.96c-0.05,1.18-0.17,2.35-0.37,3.5c1.31-0.81,2.64-1.46,3.96-1.99c-1.39,0.56-2.8,1.26-4.17,2.14
		c0.07-0.04,0.14-0.1,0.21-0.14C425.1,480.31,425.23,479.14,425.28,477.96z M424.87,472.16c0.03,0.14,0.05,0.29,0.08,0.44
		C424.92,472.45,424.9,472.3,424.87,472.16z M425.12,473.76c0.02,0.14,0.04,0.27,0.05,0.41
		C425.16,474.03,425.14,473.9,425.12,473.76z M420.6,484.9c0.39-0.4,0.8-0.77,1.2-1.13C421.39,484.13,420.99,484.5,420.6,484.9z
		 M427.08,501.46c0,14.47-11.66,16.04-16.67,16.04c-0.29,0-0.57,0-0.87-0.01c-7.37-0.2-9.65-4.65-10.36-7.29
		c-1.24-4.66,0.55-10,4.08-12.16c6.95-4.25,12.09-7.91,14.66-11.55C421.87,490.21,427.08,496.31,427.08,501.46z M402.5,518.82
		C402.5,518.82,402.5,518.82,402.5,518.82c-0.18,0-0.37,0-0.57,0c-0.3,0-0.63-0.01-0.98-0.01c0.35,0.01,0.68,0.01,0.98,0.01
		C402.13,518.82,402.32,518.82,402.5,518.82z M418.18,519.39c0,0-0.01,0-0.01,0C418.18,519.4,418.18,519.39,418.18,519.39z
		 M416.97,519.74c-0.03,0.01-0.06,0.02-0.09,0.02C416.91,519.75,416.94,519.75,416.97,519.74z M415.66,520.03
		c-0.04,0.01-0.08,0.02-0.12,0.02C415.59,520.04,415.62,520.03,415.66,520.03z M414.24,520.25c-0.03,0-0.05,0.01-0.08,0.01
		C414.19,520.26,414.21,520.26,414.24,520.25z M407.54,520.33c-0.06-0.01-0.12-0.02-0.18-0.03
		C407.43,520.31,407.48,520.32,407.54,520.33z M405.66,519.99c-0.01,0-0.01,0-0.02,0C405.65,519.99,405.66,519.99,405.66,519.99z
		 M399.52,516.65c-0.03-0.03-0.06-0.06-0.09-0.09C399.46,516.59,399.49,516.62,399.52,516.65z M401.4,518.17
		c-0.01-0.01-0.03-0.02-0.04-0.03C401.37,518.15,401.38,518.16,401.4,518.17z M400.41,517.45c-0.03-0.02-0.05-0.04-0.08-0.07
		C400.36,517.41,400.39,517.43,400.41,517.45z M399.61,518.76c-0.38-0.02-0.78-0.05-1.19-0.08
		C398.83,518.71,399.23,518.74,399.61,518.76z M400.76,518.8c-0.34-0.01-0.69-0.02-1.07-0.04
		C400.07,518.78,400.42,518.79,400.76,518.8z M383.25,518.61c-0.23,0.28-0.61,0.41-0.98,0.32l-1.83-0.48
		c-0.19-0.05-0.36-0.11-0.55-0.16c0.19,0.05,0.36,0.11,0.55,0.15l1.83,0.47C382.64,519.02,383.02,518.89,383.25,518.61z
		 M382.94,514.44c0.1,0.05,0.2,0.11,0.31,0.16C383.15,514.55,383.04,514.5,382.94,514.44z M366.64,512.51
		c1.13,0.76,2.34,1.48,3.63,2.14c-0.02-0.01-0.05-0.02-0.07-0.04c-1.55,1.06-2.41,2.17-2.41,3.25c0,4.43,16.85,8.2,32.22,8.2
		s32.22-3.77,32.22-8.2c0-1.64-1.97-3.34-5.35-4.84c0.1-0.15,0.19-0.3,0.29-0.45c0,0,0,0,0,0c1.23-0.26,2.48-0.62,3.72-1.08
		c4.57,1.85,7.33,4.27,7.33,7.25c0,7.6-25.49,11.86-38.2,11.86s-38.2-4.26-38.2-11.86c0-2.42,1.83-4.48,4.97-6.16
		C366.72,512.57,366.68,512.54,366.64,512.51z M364.99,511.32c0.07,0.05,0.13,0.1,0.2,0.16
		C365.12,511.42,365.05,511.37,364.99,511.32z M377.99,517.75c-0.32-0.1-0.62-0.2-0.93-0.3
		C377.37,517.55,377.68,517.65,377.99,517.75z M375.48,516.91c-0.26-0.09-0.52-0.19-0.77-0.28
		C374.96,516.72,375.22,516.81,375.48,516.91z M372.66,515.79c-0.05-0.02-0.11-0.04-0.16-0.07
		C372.55,515.75,372.6,515.77,372.66,515.79z M384.61,515.28c0.4,0.19,0.8,0.36,1.21,0.53
		C385.41,515.64,385.01,515.46,384.61,515.28z M386.62,516.12c0.27,0.1,0.54,0.2,0.81,0.3C387.17,516.33,386.9,516.23,386.62,516.12
		z M388.22,516.7c0.45,0.15,0.9,0.29,1.35,0.42C389.12,516.99,388.67,516.85,388.22,516.7z M390.36,517.33
		c0.27,0.07,0.54,0.14,0.81,0.21C390.9,517.47,390.63,517.4,390.36,517.33z M391.92,517.72c0.44,0.1,0.88,0.19,1.32,0.27
		C392.8,517.91,392.36,517.82,391.92,517.72z M393.9,518.11c0.29,0.05,0.58,0.1,0.86,0.14C394.47,518.21,394.19,518.16,393.9,518.11
		z M395.36,518.35c0.43,0.06,0.86,0.12,1.27,0.16C396.22,518.46,395.8,518.41,395.36,518.35z M397.05,518.55
		c0.33,0.03,0.65,0.07,0.96,0.09C397.71,518.62,397.38,518.59,397.05,518.55z M428.84,509.04
		C428.84,509.04,428.84,509.04,428.84,509.04c0.88-2.52,1.24-5.15,1.24-7.57c0-5.18-3.84-10.55-7.39-14.42
		c7.56-7.69,19.03-6.75,19.03-6.75C444.26,499.57,436.45,506.61,428.84,509.04z M428.09,510.87c0.01-0.01,0.01-0.02,0.02-0.04
		C428.1,510.84,428.1,510.85,428.09,510.87z M422.12,483.5c0.32-0.27,0.64-0.53,0.96-0.77C422.76,482.97,422.44,483.23,422.12,483.5
		z M423.41,482.49c0.35-0.26,0.71-0.51,1.07-0.74C424.12,481.98,423.76,482.23,423.41,482.49z M424.6,470.93
		c-0.02-0.1-0.04-0.19-0.07-0.29C424.56,470.74,424.58,470.84,424.6,470.93z M401.09,495.89c0.2-0.14,0.4-0.29,0.61-0.41
		c0.65-0.4,1.29-0.8,1.92-1.19c-0.32-0.53-0.67-1.04-1.02-1.54c0.36,0.5,0.7,1.01,1.02,1.53c1-0.63,1.98-1.25,2.91-1.88
		c-6.18-19.83,2.19-29.11,5.03-31.58c0.49-0.42,1.22-0.41,1.69,0.02c8.19,7.47,8.6,15.97,6.44,23.2c-1.7-1.59-2.92-2.54-2.92-2.54
		c-0.22,4.21-6.95,9-15.08,13.97c-6.24,3.82-7.98,14.09-3.05,20.21l0,0c-9.9-0.74-29.41-5.5-25.99-31.74
		C372.66,483.95,392.83,482.21,401.09,495.89z M377.47,480.96c0.12,0.01,0.25,0.02,0.37,0.02
		C377.71,480.97,377.59,480.96,377.47,480.96z M376.38,480.91c0.08,0,0.17,0.01,0.25,0.01
		C376.54,480.91,376.46,480.91,376.38,480.91z M376.54,477.81c0.56,0.45,1.09,0.93,1.6,1.42
		C377.63,478.73,377.1,478.26,376.54,477.81z M374.52,476.32C374.52,476.32,374.53,476.31,374.52,476.32
		c0.57,0.38,1.12,0.78,1.65,1.2C375.65,477.1,375.1,476.7,374.52,476.32z M374.74,474.73C374.74,474.73,374.74,474.73,374.74,474.73
		C374.74,474.73,374.74,474.73,374.74,474.73z M358.21,472.99l0.99-2.02l0,0L358.21,472.99c-0.29,0.61-7.3,15.21-1.21,28.45
		c0.37,0.81,0.79,1.58,1.24,2.34c-0.45-0.76-0.88-1.53-1.25-2.34C350.91,488.2,357.91,473.61,358.21,472.99z M400,537.92
		c-36.69,0-59.14-10.3-59.14-18.35c0-4.1,7.19-8.78,20.06-12.07c-0.02-0.02-0.03-0.04-0.05-0.06c0.84,0.97,1.76,1.89,2.75,2.76
		c-0.03-0.02-0.06-0.05-0.09-0.07c-9.19,2.4-15.59,5.61-15.59,9.21c0,7.65,38.57,13.44,52.06,13.44s52.06-5.79,52.06-13.44
		c0-3.83-7.25-7.22-17.39-9.66c-0.03,0.02-0.07,0.04-0.1,0.06c1.18-0.71,2.32-1.54,3.39-2.54c-0.01,0.01-0.02,0.02-0.03,0.03
		c13.59,3.3,21.21,8.13,21.21,12.35C459.14,527.85,436.69,537.92,400,537.92z M358.68,504.51c0.1,0.16,0.21,0.31,0.32,0.47
		C358.89,504.82,358.78,504.67,358.68,504.51z M359.73,506.02c0.07,0.09,0.14,0.17,0.2,0.26
		C359.86,506.19,359.79,506.11,359.73,506.02z M432.67,510.75c0.07-0.03,0.13-0.06,0.2-0.1
		C432.81,510.68,432.74,510.71,432.67,510.75z"/>
</g>
<g>
</g>
<g>
</g>
<g>
</g>
<g>
</g>
<g>
</g>
<g>
</g>
<g>
</g>
<g>
</g>
<g>
</g>
<g>
</g>
<g>
</g>
</svg>
