<?xml version="1.0" encoding="utf-8"?>
<!-- Created by @FCLOGO 2024-10-12 GMT+8 21:40:10 . https://fclogo.top/ -->
<!-- FOR PERSONAL USE ONLY NOT FOR COMMERCIAL USE -->
<svg version="1.1" xmlns="http://www.w3.org/2000/svg" xmlns:xlink="http://www.w3.org/1999/xlink" x="0px" y="0px"
	 viewBox="0 0 800 800" style="enable-background:new 0 0 800 800;" xml:space="preserve">
<path style="fill:#CCCCCC;" d="M348.22,774.3c-0.79,0-1.38-0.22-1.77-0.65c-0.39-0.44-0.53-1.03-0.41-1.79l0.25-1.65
	c0.12-0.75,0.45-1.35,0.98-1.78c0.53-0.44,1.19-0.65,1.98-0.65c0.76,0,1.33,0.2,1.72,0.6c0.39,0.4,0.55,0.94,0.47,1.62h-1.24
	c0.03-0.36-0.06-0.64-0.26-0.84c-0.2-0.2-0.5-0.3-0.89-0.3c-0.42,0-0.76,0.12-1.03,0.35c-0.27,0.23-0.43,0.56-0.5,0.99l-0.26,1.66
	c-0.07,0.44-0.01,0.77,0.19,1c0.19,0.23,0.5,0.35,0.92,0.35c0.39,0,0.72-0.1,0.98-0.3c0.26-0.2,0.44-0.48,0.52-0.85h1.24
	c-0.14,0.69-0.47,1.23-0.99,1.63C349.61,774.1,348.97,774.3,348.22,774.3z M352.8,774.19l1-6.29h1.19l-0.19,1.19
	c0.34-0.87,0.97-1.3,1.91-1.3c0.67,0,1.17,0.21,1.49,0.62c0.32,0.42,0.43,0.99,0.31,1.71l-0.07,0.42h-1.27l0.06-0.32
	c0.07-0.45,0.01-0.8-0.17-1.04c-0.18-0.24-0.48-0.36-0.88-0.36c-0.4,0-0.74,0.12-1.01,0.37c-0.27,0.24-0.43,0.59-0.5,1.03
	l-0.63,3.97H352.8z M361.91,774.3c-0.77,0-1.35-0.22-1.73-0.67c-0.38-0.45-0.51-1.04-0.4-1.77l0.25-1.65
	c0.08-0.49,0.26-0.92,0.52-1.28c0.26-0.37,0.6-0.65,1.01-0.85c0.41-0.2,0.87-0.3,1.38-0.3c0.77,0,1.35,0.22,1.73,0.67
	c0.39,0.45,0.52,1.04,0.39,1.77l-0.17,1.12h-3.85l-0.09,0.53c-0.15,0.95,0.22,1.43,1.11,1.43c0.72,0,1.17-0.25,1.37-0.74h1.22
	c-0.17,0.53-0.5,0.96-1.01,1.28C363.16,774.14,362.58,774.3,361.91,774.3z M361.23,770.22l-0.05,0.29l2.65-0.01l0.05-0.29
	c0.07-0.47,0.01-0.82-0.17-1.07c-0.18-0.25-0.49-0.37-0.92-0.37c-0.44,0-0.8,0.13-1.06,0.38
	C361.48,769.39,361.31,769.75,361.23,770.22z M368.33,774.3c-0.63,0-1.1-0.21-1.41-0.64c-0.31-0.42-0.4-1-0.27-1.73l0.27-1.77
	c0.11-0.73,0.39-1.31,0.84-1.74c0.44-0.43,0.98-0.64,1.61-0.64c0.47,0,0.83,0.12,1.09,0.35c0.26,0.24,0.39,0.56,0.38,0.96h0.02
	l0.17-1.2h1.24l-1,6.29h-1.22l0.19-1.2h-0.02c-0.12,0.41-0.35,0.73-0.69,0.97C369.2,774.18,368.8,774.3,368.33,774.3z
	 M368.93,773.23c0.39,0,0.72-0.12,0.98-0.36c0.26-0.24,0.43-0.57,0.5-1.01l0.25-1.65c0.07-0.43,0.01-0.76-0.18-1
	c-0.19-0.24-0.47-0.36-0.86-0.36c-0.4,0-0.72,0.12-0.98,0.35c-0.26,0.24-0.42,0.57-0.49,1.01l-0.25,1.65
	c-0.07,0.44-0.01,0.78,0.17,1.01C368.24,773.11,368.53,773.23,368.93,773.23z M376.35,774.19c-0.57,0-0.99-0.16-1.26-0.47
	c-0.27-0.31-0.36-0.75-0.27-1.32l0.54-3.39h-1.74l0.17-1.12h1.74l0.27-1.72h1.24l-0.27,1.72h2.47l-0.18,1.12h-2.46l-0.54,3.39
	c-0.08,0.44,0.1,0.66,0.53,0.66h1.72l-0.17,1.12H376.35z M382.5,774.3c-0.77,0-1.35-0.22-1.73-0.67c-0.38-0.45-0.52-1.04-0.4-1.77
	l0.25-1.65c0.08-0.49,0.26-0.92,0.52-1.28c0.26-0.37,0.6-0.65,1.01-0.85c0.41-0.2,0.87-0.3,1.38-0.3c0.77,0,1.35,0.22,1.73,0.67
	c0.39,0.45,0.52,1.04,0.39,1.77l-0.17,1.12h-3.85l-0.09,0.53c-0.15,0.95,0.22,1.43,1.11,1.43c0.72,0,1.17-0.25,1.37-0.74h1.22
	c-0.17,0.53-0.5,0.96-1.01,1.28C383.76,774.14,383.18,774.3,382.5,774.3z M381.83,770.22l-0.05,0.29l2.65-0.01l0.05-0.29
	c0.07-0.47,0.01-0.82-0.17-1.07c-0.18-0.25-0.49-0.37-0.92-0.37c-0.44,0-0.8,0.13-1.06,0.38
	C382.08,769.39,381.91,769.75,381.83,770.22z M388.92,774.3c-0.63,0-1.1-0.21-1.4-0.64c-0.3-0.42-0.39-1-0.28-1.73l0.27-1.77
	c0.11-0.73,0.39-1.31,0.84-1.74c0.44-0.43,0.98-0.64,1.61-0.64c0.47,0,0.83,0.12,1.09,0.35c0.26,0.24,0.39,0.56,0.38,0.96h0.02
	l0.21-1.47l0.3-1.8h1.24l-1.33,8.35h-1.22l0.19-1.2h-0.02c-0.12,0.41-0.35,0.73-0.69,0.97C389.8,774.18,389.4,774.3,388.92,774.3z
	 M389.53,773.23c0.39,0,0.72-0.12,0.98-0.36c0.26-0.24,0.43-0.57,0.5-1.01l0.25-1.65c0.08-0.43,0.02-0.76-0.17-1
	c-0.19-0.24-0.48-0.36-0.87-0.36c-0.4,0-0.72,0.12-0.98,0.35c-0.26,0.24-0.42,0.57-0.49,1.01l-0.25,1.65
	c-0.08,0.44-0.02,0.78,0.16,1.01C388.83,773.11,389.13,773.23,389.53,773.23z M401.02,774.3c-0.47,0-0.84-0.12-1.1-0.35
	c-0.26-0.23-0.39-0.56-0.38-0.97h-0.01l-0.19,1.2h-1.22l1.33-8.35h1.24l-0.29,1.8l-0.27,1.47h0.05c0.12-0.41,0.35-0.73,0.69-0.97
	c0.34-0.23,0.74-0.35,1.21-0.35c0.63,0,1.1,0.21,1.4,0.64c0.3,0.43,0.39,1.01,0.28,1.74l-0.27,1.77c-0.11,0.73-0.39,1.31-0.84,1.73
	C402.18,774.09,401.64,774.3,401.02,774.3z M400.77,773.23c0.4,0,0.72-0.12,0.98-0.35c0.26-0.23,0.42-0.57,0.5-1.01l0.25-1.65
	c0.07-0.43,0.01-0.77-0.17-1.01c-0.18-0.24-0.47-0.35-0.87-0.35c-0.39,0-0.72,0.12-0.98,0.36c-0.26,0.24-0.43,0.57-0.5,1l-0.25,1.65
	c-0.07,0.44-0.01,0.77,0.17,1.01C400.08,773.11,400.37,773.23,400.77,773.23z M405.47,776.25l0.17-1.06h1.93
	c0.64,0,1.01-0.3,1.1-0.9l0.1-0.67l0.21-1.19h-0.03c-0.12,0.42-0.35,0.74-0.68,0.97c-0.33,0.23-0.73,0.34-1.2,0.34
	c-0.63,0-1.09-0.2-1.4-0.6c-0.31-0.4-0.41-0.94-0.3-1.63l0.58-3.6h1.24l-0.56,3.48c-0.06,0.41,0,0.73,0.18,0.96
	c0.18,0.23,0.47,0.34,0.85,0.34c0.39,0,0.72-0.12,0.98-0.37c0.27-0.24,0.43-0.58,0.49-1.02l0.54-3.4h1.24l-1.01,6.41
	c-0.1,0.6-0.37,1.08-0.81,1.42c-0.44,0.35-1,0.52-1.67,0.52H405.47z M417.79,770.09h3.22l0.54-1.85h-5.47l-1.71,6.44h2.15l0.59-2.1
	h3.03l0.44-1.71h-3.03L417.79,770.09z M424.23,772.92c-0.59,0-1.02-0.39-1.02-1.12c0-0.88,0.63-1.76,1.61-1.76
	c0.49,0,0.88,0.24,1.02,0.78l1.95-0.83c-0.29-1.17-1.27-1.9-2.64-1.9c-2.78,0-4.15,2.15-4.15,3.9c0,1.76,1.27,2.83,3.07,2.83
	c1.37,0,2.34-0.59,2.98-1.42l-1.51-1.17C425.16,772.67,424.72,772.92,424.23,772.92z M430.91,768.23h-2.15l-1.76,6.44h5.12
	l0.49-1.85h-2.93L430.91,768.23z M439.75,771.01c0-1.66-1.32-2.93-3.22-2.93c-2.2,0-3.81,1.81-3.81,3.81c0,1.66,1.32,2.93,3.22,2.93
	C438.14,774.82,439.75,773.01,439.75,771.01z M434.92,771.7c0-0.83,0.59-1.71,1.51-1.71c0.78,0,1.17,0.54,1.17,1.22
	c0,0.83-0.59,1.71-1.51,1.71C435.31,772.92,434.92,772.38,434.92,771.7z M443.21,772.23h1.07l-0.2,0.68
	c-0.15,0.05-0.34,0.1-0.59,0.1c-0.68,0-1.27-0.39-1.27-1.22c0-1.02,0.73-1.9,1.95-1.9c0.59,0,1.12,0.24,1.51,0.59l1.37-1.37
	c-0.44-0.54-1.51-1.07-2.73-1.07c-2.59,0-4.29,1.76-4.29,3.86c0,2.05,1.61,2.88,3.22,2.88c0.93,0,1.85-0.29,2.49-0.68l0.93-3.32
	h-3.12L443.21,772.23z M450.78,768.08c-2.2,0-3.81,1.81-3.81,3.81c0,1.66,1.32,2.93,3.22,2.93c2.2,0,3.81-1.81,3.81-3.81
	C454,769.35,452.68,768.08,450.78,768.08z M450.34,772.92c-0.78,0-1.17-0.54-1.17-1.22c0-0.83,0.59-1.71,1.51-1.71
	c0.78,0,1.17,0.54,1.17,1.22C451.85,772.04,451.27,772.92,450.34,772.92z M437.94,767.5c-0.05,0.29,0.1,0.49,0.44,0.49
	s0.54-0.2,0.63-0.49c0.05-0.24-0.1-0.49-0.44-0.49C438.24,767.01,437.99,767.25,437.94,767.5z M432.13,765.5
	c-0.44,0-0.73,0.24-0.78,0.59c-0.05,0.34,0.1,0.59,0.54,0.59s0.73-0.24,0.78-0.59C432.77,765.74,432.57,765.5,432.13,765.5z
	 M433.01,767.3c-0.1,0.54,0.15,0.88,0.83,0.88c0.63,0,1.07-0.39,1.17-0.88s-0.15-0.88-0.83-0.88
	C433.5,766.43,433.11,766.82,433.01,767.3z M439.6,777.55l-2.44-1.81h-1.51l4.25,3.17l1.61-3.17h-0.98L439.6,777.55z M425.84,767.16
	l-2-1.46l23.13-2.78l-2.15,4.25h1.02l2.68-5.32l-26.99,3.22l2.78,2.1H425.84z M338.72,785.79l0.61-3.83h2.32l-0.08,0.52h-1.76
	l-0.18,1.14h1.63l-0.08,0.52h-1.62l-0.26,1.64H338.72z M342.97,785.84c-0.36,0-0.62-0.1-0.8-0.3c-0.17-0.2-0.23-0.47-0.18-0.82
	l0.27-1.7c0.06-0.34,0.2-0.61,0.44-0.82c0.24-0.2,0.54-0.3,0.89-0.3c0.36,0,0.62,0.1,0.8,0.3c0.17,0.2,0.24,0.47,0.18,0.81
	l-0.27,1.71c-0.06,0.34-0.2,0.62-0.44,0.82C343.63,785.74,343.33,785.84,342.97,785.84z M343.05,785.33c0.19,0,0.35-0.05,0.47-0.16
	c0.12-0.11,0.19-0.26,0.23-0.46l0.27-1.7c0.03-0.2,0.01-0.35-0.08-0.46c-0.08-0.11-0.22-0.16-0.41-0.16s-0.35,0.05-0.46,0.16
	c-0.12,0.1-0.19,0.26-0.22,0.46l-0.27,1.7c-0.03,0.2-0.01,0.35,0.08,0.46C342.72,785.28,342.86,785.33,343.05,785.33z M345,785.79
	l0.61-3.83h1.2c0.24,0,0.44,0.05,0.6,0.14c0.16,0.09,0.28,0.22,0.36,0.39c0.07,0.17,0.09,0.37,0.05,0.59
	c-0.04,0.26-0.14,0.48-0.3,0.67c-0.16,0.19-0.37,0.32-0.6,0.39l0.54,1.64h-0.62l-0.48-1.57h-0.54l-0.25,1.57H345z M345.89,783.71
	h0.64c0.19,0,0.35-0.06,0.48-0.17c0.13-0.11,0.21-0.26,0.24-0.45c0.03-0.19,0-0.35-0.09-0.46c-0.09-0.11-0.24-0.17-0.43-0.17h-0.64
	L345.89,783.71z M349.54,785.79l0.61-3.83h1.25c0.37,0,0.65,0.1,0.84,0.31c0.19,0.21,0.26,0.49,0.2,0.84
	c-0.04,0.23-0.12,0.44-0.25,0.61s-0.29,0.31-0.49,0.4c-0.2,0.09-0.42,0.14-0.66,0.14h-0.69l-0.24,1.52H349.54z M350.43,783.75h0.69
	c0.19,0,0.36-0.06,0.49-0.18c0.14-0.12,0.22-0.27,0.25-0.47c0.03-0.2,0-0.35-0.1-0.47c-0.1-0.12-0.25-0.18-0.44-0.18h-0.69
	L350.43,783.75z M352.75,785.79l0.61-3.83h2.25l-0.08,0.5h-1.7l-0.17,1.09h1.51l-0.08,0.5h-1.51l-0.19,1.24h1.69l-0.08,0.5H352.75z
	 M355.84,785.79l0.61-3.83h1.2c0.24,0,0.44,0.05,0.6,0.14c0.16,0.09,0.28,0.22,0.36,0.39c0.07,0.17,0.09,0.37,0.05,0.59
	c-0.04,0.26-0.14,0.48-0.3,0.67c-0.16,0.19-0.37,0.32-0.6,0.39l0.54,1.64h-0.62l-0.48-1.57h-0.54l-0.25,1.57H355.84z M356.74,783.71
	h0.64c0.19,0,0.35-0.06,0.48-0.17c0.13-0.11,0.21-0.26,0.24-0.45c0.03-0.19,0-0.35-0.09-0.46c-0.09-0.11-0.24-0.17-0.43-0.17h-0.64
	L356.74,783.71z M360.13,785.84c-0.39,0-0.67-0.1-0.87-0.29c-0.19-0.19-0.26-0.45-0.22-0.78h0.57c-0.03,0.17,0.01,0.31,0.12,0.41
	c0.11,0.1,0.27,0.15,0.48,0.15c0.2,0,0.37-0.05,0.5-0.15c0.13-0.1,0.21-0.23,0.24-0.4c0.02-0.15,0-0.28-0.06-0.39
	c-0.06-0.11-0.16-0.18-0.29-0.22l-0.46-0.14c-0.27-0.08-0.46-0.22-0.59-0.41c-0.13-0.19-0.17-0.42-0.13-0.68
	c0.04-0.21,0.11-0.39,0.23-0.55c0.12-0.16,0.27-0.28,0.46-0.37c0.19-0.09,0.4-0.13,0.64-0.13c0.35,0,0.62,0.1,0.8,0.29
	c0.18,0.19,0.25,0.44,0.2,0.76h-0.57c0.03-0.17,0-0.3-0.09-0.4c-0.09-0.1-0.23-0.14-0.42-0.14c-0.19,0-0.34,0.04-0.46,0.13
	c-0.12,0.09-0.19,0.21-0.21,0.38c-0.02,0.15-0.01,0.28,0.05,0.39c0.06,0.11,0.16,0.18,0.29,0.22l0.47,0.15
	c0.26,0.08,0.46,0.22,0.58,0.41c0.12,0.19,0.17,0.42,0.12,0.69c-0.04,0.22-0.12,0.41-0.24,0.57c-0.13,0.16-0.29,0.29-0.49,0.38
	C360.6,785.79,360.38,785.84,360.13,785.84z M363.27,785.84c-0.36,0-0.62-0.1-0.8-0.3c-0.17-0.2-0.23-0.47-0.18-0.82l0.27-1.7
	c0.06-0.34,0.2-0.61,0.44-0.82c0.24-0.2,0.54-0.3,0.89-0.3c0.36,0,0.62,0.1,0.8,0.3c0.17,0.2,0.24,0.47,0.18,0.81l-0.27,1.71
	c-0.06,0.34-0.2,0.62-0.44,0.82C363.92,785.74,363.62,785.84,363.27,785.84z M363.34,785.33c0.19,0,0.35-0.05,0.47-0.16
	c0.12-0.11,0.19-0.26,0.23-0.46l0.27-1.7c0.03-0.2,0.01-0.35-0.08-0.46c-0.08-0.11-0.22-0.16-0.41-0.16c-0.19,0-0.35,0.05-0.46,0.16
	c-0.12,0.1-0.19,0.26-0.22,0.46l-0.27,1.7c-0.03,0.2-0.01,0.35,0.08,0.46C363.02,785.28,363.15,785.33,363.34,785.33z
	 M365.28,785.79l0.61-3.83h0.71l0.62,3.19c0.01-0.1,0.02-0.22,0.03-0.36c0.01-0.14,0.03-0.29,0.04-0.44
	c0.02-0.15,0.04-0.29,0.06-0.41l0.31-1.98h0.52l-0.61,3.83h-0.71l-0.61-3.19c-0.01,0.09-0.02,0.21-0.03,0.34s-0.03,0.28-0.04,0.42
	c-0.02,0.15-0.04,0.28-0.06,0.41l-0.31,2.01H365.28z M368.23,785.79l1.59-3.83h0.75l0.37,3.83h-0.56l-0.07-0.97h-1.09l-0.39,0.97
	H368.23z M369.39,784.34h0.87l-0.09-1.1c-0.02-0.2-0.03-0.37-0.04-0.51c-0.01-0.14-0.01-0.24-0.01-0.3c-0.02,0.06-0.05,0.16-0.1,0.3
	c-0.05,0.14-0.11,0.31-0.19,0.5L369.39,784.34z M371.72,785.79l0.61-3.83h0.57l-0.52,3.31h1.67l-0.08,0.52H371.72z M376.68,785.84
	c-0.37,0-0.63-0.1-0.8-0.3c-0.17-0.2-0.22-0.48-0.17-0.82l0.44-2.76h0.57l-0.44,2.76c-0.03,0.2-0.01,0.35,0.07,0.46
	c0.08,0.11,0.21,0.17,0.41,0.17c0.19,0,0.35-0.06,0.46-0.17c0.12-0.11,0.19-0.27,0.22-0.46l0.44-2.76h0.57l-0.44,2.76
	c-0.06,0.35-0.2,0.62-0.43,0.82C377.35,785.74,377.05,785.84,376.68,785.84z M379.84,785.84c-0.39,0-0.67-0.1-0.87-0.29
	c-0.19-0.19-0.26-0.45-0.22-0.78h0.57c-0.03,0.17,0.01,0.31,0.12,0.41c0.11,0.1,0.27,0.15,0.48,0.15c0.2,0,0.37-0.05,0.5-0.15
	c0.13-0.1,0.21-0.23,0.24-0.4c0.02-0.15,0-0.28-0.06-0.39c-0.06-0.11-0.16-0.18-0.29-0.22l-0.46-0.14
	c-0.27-0.08-0.46-0.22-0.59-0.41c-0.13-0.19-0.17-0.42-0.13-0.68c0.04-0.21,0.11-0.39,0.23-0.55s0.27-0.28,0.46-0.37
	c0.19-0.09,0.4-0.13,0.64-0.13c0.35,0,0.62,0.1,0.8,0.29c0.18,0.19,0.25,0.44,0.2,0.76h-0.57c0.03-0.17,0-0.3-0.09-0.4
	c-0.09-0.1-0.23-0.14-0.42-0.14c-0.19,0-0.34,0.04-0.46,0.13c-0.12,0.09-0.19,0.21-0.21,0.38c-0.02,0.15-0.01,0.28,0.05,0.39
	c0.06,0.11,0.16,0.18,0.29,0.22l0.47,0.15c0.26,0.08,0.46,0.22,0.58,0.41c0.12,0.19,0.17,0.42,0.12,0.69
	c-0.04,0.22-0.12,0.41-0.24,0.57c-0.13,0.16-0.29,0.29-0.49,0.38C380.31,785.79,380.09,785.84,379.84,785.84z M381.91,785.79
	l0.61-3.83h2.25l-0.08,0.5h-1.7l-0.17,1.09h1.51l-0.08,0.5h-1.51l-0.19,1.24h1.69l-0.08,0.5H381.91z M386.94,785.84
	c-0.36,0-0.62-0.1-0.8-0.3c-0.17-0.2-0.23-0.47-0.18-0.82l0.27-1.7c0.06-0.34,0.2-0.61,0.44-0.82c0.24-0.2,0.54-0.3,0.89-0.3
	c0.36,0,0.62,0.1,0.8,0.3c0.17,0.2,0.24,0.47,0.18,0.81l-0.27,1.71c-0.06,0.34-0.2,0.62-0.44,0.82
	C387.6,785.74,387.3,785.84,386.94,785.84z M387.02,785.33c0.19,0,0.35-0.05,0.47-0.16c0.12-0.11,0.19-0.26,0.23-0.46l0.27-1.7
	c0.03-0.2,0.01-0.35-0.08-0.46c-0.08-0.11-0.22-0.16-0.41-0.16c-0.19,0-0.35,0.05-0.46,0.16c-0.12,0.1-0.19,0.26-0.22,0.46
	l-0.27,1.7c-0.03,0.2-0.01,0.35,0.08,0.46C386.7,785.28,386.83,785.33,387.02,785.33z M388.95,785.79l0.61-3.83h0.71l0.62,3.19
	c0.01-0.1,0.02-0.22,0.03-0.36c0.01-0.14,0.03-0.29,0.04-0.44c0.02-0.15,0.04-0.29,0.06-0.41l0.31-1.98h0.52l-0.61,3.83h-0.71
	l-0.61-3.19c-0.01,0.09-0.02,0.21-0.03,0.34c-0.01,0.13-0.03,0.28-0.04,0.42c-0.02,0.15-0.04,0.28-0.06,0.41l-0.31,2.01H388.95z
	 M392.25,785.79l0.61-3.83h0.57l-0.52,3.31h1.67l-0.08,0.52H392.25z M396.12,785.79l0.22-1.41l-0.75-2.42h0.58l0.45,1.45
	c0.03,0.09,0.05,0.18,0.07,0.27c0.02,0.08,0.03,0.15,0.03,0.19c0.02-0.04,0.05-0.1,0.09-0.19c0.04-0.08,0.09-0.17,0.14-0.27
	l0.9-1.45h0.6l-1.53,2.42l-0.22,1.41H396.12z M399.22,785.79l0.61-3.83h0.71l0.62,3.19c0.01-0.1,0.02-0.22,0.03-0.36
	c0.01-0.14,0.03-0.29,0.04-0.44c0.02-0.15,0.04-0.29,0.06-0.41l0.31-1.98h0.52l-0.61,3.83h-0.71l-0.61-3.19
	c-0.01,0.09-0.02,0.21-0.03,0.34c-0.01,0.13-0.03,0.28-0.04,0.42c-0.02,0.15-0.04,0.28-0.06,0.41l-0.31,2.01H399.22z M403.51,785.84
	c-0.36,0-0.62-0.1-0.8-0.3c-0.18-0.2-0.23-0.47-0.18-0.82l0.27-1.7c0.06-0.34,0.2-0.61,0.44-0.82c0.24-0.2,0.54-0.3,0.89-0.3
	c0.36,0,0.62,0.1,0.8,0.3c0.17,0.2,0.24,0.47,0.18,0.81l-0.27,1.71c-0.06,0.34-0.2,0.62-0.44,0.82
	C404.16,785.74,403.86,785.84,403.51,785.84z M403.58,785.33c0.19,0,0.35-0.05,0.47-0.16c0.12-0.11,0.19-0.26,0.23-0.46l0.27-1.7
	c0.03-0.2,0.01-0.35-0.08-0.46c-0.08-0.11-0.22-0.16-0.41-0.16c-0.19,0-0.35,0.05-0.46,0.16c-0.12,0.1-0.19,0.26-0.22,0.46
	l-0.27,1.7c-0.03,0.2-0.01,0.35,0.08,0.46C403.26,785.28,403.4,785.33,403.58,785.33z M406.38,785.79l0.52-3.31h-1.02l0.08-0.52
	h2.62l-0.08,0.52h-1.03l-0.52,3.31H406.38z M409.52,785.79l0.61-3.83h2.32l-0.08,0.52h-1.76l-0.18,1.14h1.63l-0.08,0.52h-1.62
	l-0.26,1.64H409.52z M413.77,785.84c-0.36,0-0.62-0.1-0.8-0.3c-0.18-0.2-0.23-0.47-0.18-0.82l0.27-1.7c0.06-0.34,0.2-0.61,0.44-0.82
	c0.24-0.2,0.54-0.3,0.89-0.3c0.36,0,0.62,0.1,0.8,0.3c0.17,0.2,0.24,0.47,0.18,0.81l-0.27,1.71c-0.06,0.34-0.2,0.62-0.44,0.82
	C414.42,785.74,414.13,785.84,413.77,785.84z M413.85,785.33c0.19,0,0.35-0.05,0.47-0.16c0.12-0.11,0.19-0.26,0.23-0.46l0.27-1.7
	c0.03-0.2,0.01-0.35-0.08-0.46c-0.08-0.11-0.22-0.16-0.41-0.16c-0.19,0-0.35,0.05-0.46,0.16c-0.12,0.1-0.19,0.26-0.22,0.46
	l-0.27,1.7c-0.03,0.2-0.01,0.35,0.08,0.46C413.52,785.28,413.66,785.33,413.85,785.33z M415.8,785.79l0.61-3.83h1.2
	c0.24,0,0.44,0.05,0.6,0.14c0.16,0.09,0.28,0.22,0.36,0.39c0.07,0.17,0.09,0.37,0.05,0.59c-0.04,0.26-0.14,0.48-0.3,0.67
	c-0.16,0.19-0.37,0.32-0.6,0.39l0.54,1.64h-0.62l-0.48-1.57h-0.54l-0.25,1.57H415.8z M416.69,783.71h0.64
	c0.19,0,0.35-0.06,0.48-0.17c0.13-0.11,0.21-0.26,0.24-0.45c0.03-0.19,0-0.35-0.09-0.46c-0.09-0.11-0.24-0.17-0.43-0.17h-0.64
	L416.69,783.71z M420.91,785.84c-0.36,0-0.63-0.1-0.81-0.3c-0.18-0.2-0.24-0.47-0.19-0.82l0.27-1.7c0.06-0.35,0.21-0.62,0.45-0.82
	s0.55-0.3,0.91-0.3c0.36,0,0.63,0.1,0.81,0.3c0.18,0.2,0.24,0.47,0.19,0.82h-0.57c0.03-0.2,0-0.35-0.09-0.46
	c-0.09-0.11-0.23-0.16-0.42-0.16c-0.19,0-0.35,0.05-0.48,0.16c-0.12,0.1-0.2,0.26-0.23,0.45l-0.27,1.71c-0.03,0.2,0,0.35,0.09,0.46
	c0.09,0.11,0.23,0.16,0.42,0.16c0.19,0,0.35-0.05,0.47-0.16c0.12-0.11,0.2-0.26,0.23-0.46h0.57c-0.03,0.23-0.11,0.43-0.24,0.59
	c-0.12,0.17-0.28,0.3-0.47,0.39C421.36,785.79,421.14,785.84,420.91,785.84z M424.03,785.84c-0.36,0-0.62-0.1-0.8-0.3
	c-0.18-0.2-0.23-0.47-0.18-0.82l0.27-1.7c0.06-0.34,0.2-0.61,0.44-0.82c0.24-0.2,0.54-0.3,0.89-0.3c0.36,0,0.62,0.1,0.8,0.3
	c0.17,0.2,0.24,0.47,0.18,0.81l-0.27,1.71c-0.06,0.34-0.2,0.62-0.44,0.82C424.69,785.74,424.39,785.84,424.03,785.84z
	 M424.11,785.33c0.19,0,0.35-0.05,0.47-0.16c0.12-0.11,0.19-0.26,0.23-0.46l0.27-1.7c0.03-0.2,0.01-0.35-0.08-0.46
	c-0.08-0.11-0.22-0.16-0.41-0.16c-0.19,0-0.35,0.05-0.46,0.16c-0.12,0.1-0.19,0.26-0.22,0.46l-0.27,1.7
	c-0.03,0.2-0.01,0.35,0.08,0.46C423.79,785.28,423.92,785.33,424.11,785.33z M425.97,785.79l0.61-3.83h0.69l0.18,1.23
	c0.02,0.12,0.04,0.23,0.05,0.33c0.01,0.1,0.02,0.18,0.03,0.24c0.02-0.06,0.05-0.14,0.09-0.24c0.04-0.11,0.09-0.22,0.15-0.34
	l0.57-1.22h0.71l-0.61,3.83h-0.54l0.2-1.29c0.02-0.17,0.06-0.35,0.1-0.55c0.04-0.2,0.09-0.4,0.14-0.61c0.05-0.2,0.1-0.4,0.14-0.59
	c0.05-0.19,0.09-0.35,0.13-0.49l-0.86,1.86h-0.55l-0.28-1.86c0,0.14-0.01,0.29-0.02,0.47c-0.01,0.18-0.02,0.37-0.04,0.57
	c-0.02,0.2-0.04,0.41-0.06,0.61c-0.02,0.2-0.05,0.4-0.08,0.57l-0.2,1.29H425.97z M429.11,785.79l0.61-3.83h0.69l0.18,1.23
	c0.02,0.12,0.04,0.23,0.05,0.33c0.01,0.1,0.02,0.18,0.03,0.24c0.02-0.06,0.05-0.14,0.09-0.24c0.04-0.11,0.09-0.22,0.15-0.34
	l0.57-1.22h0.71l-0.61,3.83h-0.54l0.2-1.29c0.02-0.17,0.06-0.35,0.1-0.55c0.04-0.2,0.09-0.4,0.14-0.61c0.05-0.2,0.1-0.4,0.14-0.59
	c0.05-0.19,0.09-0.35,0.13-0.49l-0.86,1.86h-0.55l-0.28-1.86c0,0.14-0.01,0.29-0.02,0.47c-0.01,0.18-0.02,0.37-0.04,0.57
	c-0.02,0.2-0.04,0.41-0.06,0.61c-0.02,0.2-0.05,0.4-0.08,0.57l-0.2,1.29H429.11z M432.41,785.79l0.61-3.83h2.25l-0.08,0.5h-1.7
	l-0.17,1.09h1.51l-0.08,0.5h-1.51l-0.19,1.24h1.69l-0.08,0.5H432.41z M435.51,785.79l0.61-3.83h1.2c0.24,0,0.44,0.05,0.6,0.14
	c0.16,0.09,0.28,0.22,0.36,0.39c0.07,0.17,0.09,0.37,0.05,0.59c-0.04,0.26-0.14,0.48-0.3,0.67c-0.16,0.19-0.37,0.32-0.6,0.39
	l0.54,1.64h-0.62l-0.48-1.57h-0.54l-0.25,1.57H435.51z M436.4,783.71h0.64c0.19,0,0.35-0.06,0.48-0.17
	c0.13-0.11,0.21-0.26,0.24-0.45c0.03-0.19,0-0.35-0.09-0.46c-0.09-0.11-0.24-0.17-0.43-0.17h-0.64L436.4,783.71z M439.8,785.84
	c-0.36,0-0.63-0.1-0.81-0.3c-0.18-0.2-0.24-0.47-0.19-0.82l0.27-1.7c0.06-0.35,0.21-0.62,0.45-0.82s0.55-0.3,0.91-0.3
	c0.36,0,0.63,0.1,0.81,0.3c0.18,0.2,0.24,0.47,0.19,0.82h-0.57c0.03-0.2,0-0.35-0.09-0.46c-0.09-0.11-0.23-0.16-0.42-0.16
	c-0.19,0-0.35,0.05-0.47,0.16c-0.12,0.1-0.2,0.26-0.23,0.45l-0.27,1.71c-0.03,0.2,0,0.35,0.09,0.46c0.09,0.11,0.23,0.16,0.42,0.16
	s0.35-0.05,0.47-0.16c0.12-0.11,0.2-0.26,0.23-0.46h0.57c-0.03,0.23-0.11,0.43-0.24,0.59c-0.12,0.17-0.28,0.3-0.47,0.39
	C440.25,785.79,440.04,785.84,439.8,785.84z M441.88,785.79l0.08-0.5h0.78l0.45-2.82h-0.78l0.08-0.5h2.13l-0.08,0.5h-0.78
	l-0.45,2.82h0.78l-0.08,0.5H441.88z M444.74,785.79l1.59-3.83h0.75l0.37,3.83h-0.56l-0.07-0.97h-1.09l-0.39,0.97H444.74z
	 M445.9,784.34h0.87l-0.09-1.1c-0.02-0.2-0.03-0.37-0.04-0.51c-0.01-0.14-0.01-0.24-0.01-0.3c-0.02,0.06-0.05,0.16-0.1,0.3
	c-0.05,0.14-0.11,0.31-0.19,0.5L445.9,784.34z M448.24,785.79l0.61-3.83h0.57l-0.52,3.31h1.67l-0.08,0.52H448.24z M453.19,785.84
	c-0.37,0-0.63-0.1-0.8-0.3c-0.17-0.2-0.22-0.48-0.17-0.82l0.44-2.76h0.57l-0.44,2.76c-0.03,0.2-0.01,0.35,0.07,0.46
	c0.08,0.11,0.21,0.17,0.41,0.17c0.19,0,0.35-0.06,0.46-0.17c0.12-0.11,0.19-0.27,0.22-0.46l0.44-2.76h0.57l-0.44,2.76
	c-0.06,0.35-0.2,0.62-0.43,0.82C453.86,785.74,453.56,785.84,453.19,785.84z M456.36,785.84c-0.39,0-0.67-0.1-0.87-0.29
	c-0.19-0.19-0.26-0.45-0.22-0.78h0.57c-0.03,0.17,0.01,0.31,0.12,0.41c0.11,0.1,0.27,0.15,0.48,0.15c0.2,0,0.37-0.05,0.5-0.15
	s0.21-0.23,0.24-0.4c0.02-0.15,0-0.28-0.06-0.39c-0.06-0.11-0.16-0.18-0.29-0.22l-0.46-0.14c-0.27-0.08-0.46-0.22-0.59-0.41
	c-0.13-0.19-0.17-0.42-0.13-0.68c0.04-0.21,0.11-0.39,0.23-0.55c0.12-0.16,0.27-0.28,0.46-0.37c0.19-0.09,0.4-0.13,0.64-0.13
	c0.35,0,0.62,0.1,0.8,0.29c0.18,0.19,0.25,0.44,0.2,0.76h-0.57c0.03-0.17,0-0.3-0.09-0.4c-0.09-0.1-0.23-0.14-0.42-0.14
	c-0.19,0-0.34,0.04-0.46,0.13c-0.12,0.09-0.19,0.21-0.21,0.38c-0.02,0.15-0.01,0.28,0.05,0.39c0.06,0.11,0.16,0.18,0.29,0.22
	l0.47,0.15c0.26,0.08,0.46,0.22,0.58,0.41c0.12,0.19,0.17,0.42,0.12,0.69c-0.04,0.22-0.12,0.41-0.24,0.57
	c-0.13,0.16-0.29,0.29-0.49,0.38C456.82,785.79,456.6,785.84,456.36,785.84z M458.42,785.79l0.61-3.83h2.25l-0.08,0.5h-1.7
	l-0.17,1.09h1.51l-0.08,0.5h-1.51l-0.19,1.24h1.69l-0.08,0.5H458.42z"/>
<path style="fill:#3B4395;" d="M734.19,195.42c-49.08,0-88.17-22.9-133.41-49.43C547.51,114.81,487.4,79.48,400,79.48
	c-87.4,0-147.64,35.33-200.78,66.51c-45.24,26.53-84.33,49.43-133.41,49.43H50l0.43,15.85c0.04,0.34,1.07,35.33,2.9,90.05
	c1.68,50.43,11.62,100.25,29.43,147.47c17.11,45.51,41.54,87.92,72.32,125.55c30.25,37.07,66.56,68.75,107.4,93.68
	c41.34,25.28,86.92,42.88,134.52,51.95l2.86,0.56l3.12-0.47c47.61-9.06,93.18-26.66,134.52-51.95
	c40.84-24.96,77.15-56.67,107.4-93.77c30.78-37.64,55.21-80.04,72.32-125.55c17.81-47.22,27.75-97.03,29.43-147.47
	c1.84-54.72,2.9-89.71,2.9-90.05l0.43-15.85H734.19z M717.49,300.55c-3,93.34-36.43,183.13-95.18,255.72
	c-28.19,34.56-62.04,64.1-100.09,87.36c-37.65,22.95-79.07,39.04-122.35,47.5c-43.27-8.47-84.7-24.55-122.35-47.5
	c-38.07-23.33-71.91-52.94-100.09-87.57c-58.75-72.59-92.18-162.38-95.18-255.72c-1.2-34.82-2.05-61.56-2.52-76.55
	c50.37-3.8,91.38-27.68,134.1-52.84c52.42-30.76,106.8-62.54,186.04-62.54s133.63,31.78,186.04,62.54
	c42.93,25.16,83.73,49.04,134.1,53.06C719.54,238.99,718.69,265.73,717.49,300.55z M187.26,257.32l-27.17,19.74l10.38,31.95
	l-27.21-19.74l-27.13,19.69l10.34-31.91l-27.13-19.74h33.53l10.38-32l10.38,32H187.26z M666.87,257.32h33.53l-27.13,19.74
	l10.34,31.95l-27.17-19.74l-27.17,19.74l10.38-31.95l-27.17-19.74h33.58l10.42-32L666.87,257.32z M365.1,284.49l-44.04,1.03
	l3.97,4.27c1,8.2,8.45,14.03,16.65,13.04c3.42-0.42,6.6-2,8.98-4.49c0.3-0.3,0.56-0.68,0.85-1.03l9.4-4.7
	c0.85-0.43,0.85-1.15,0-1.62l-2.05-1.15l6.92-3.25C368.22,285.38,368,284.4,365.1,284.49z M339.98,300.55c-4.86,0-8.8-3.94-8.8-8.8
	c-0.04-0.53-0.04-1.05,0-1.58h2.44c-0.17,0.54-0.26,1.1-0.26,1.67c0,3.21,2.6,5.81,5.81,5.81c3.21,0,5.81-2.6,5.81-5.81
	c-0.02-0.67-0.15-1.34-0.38-1.97h3.76c0.21,0.61,0.36,1.24,0.43,1.88C348.78,296.61,344.84,300.55,339.98,300.55z M348.01,552.81
	L348.01,552.81c0,2.14,1.88,3.33,5.64,3.33c2.86,0,4.27-0.85,4.27-2.39s-1.24-1.79-3.84-2.09l-3.42-0.34
	c-4.96-0.51-7.35-2.18-7.35-5.47c0-3.29,3.5-6.45,9.36-6.45c5.85,0,9.7,2.52,9.7,6.32l0,0h-4.87c-0.21-1.92-1.79-2.9-4.74-2.9
	c-2.95,0-4.27,0.85-4.27,2.22s1.24,1.67,3.93,1.92l3.59,0.38c4.91,0.56,7.26,2.31,7.26,5.72c0,4.27-3.5,6.62-10.34,6.62
	s-10.04-2.56-10.04-6.84v-0.43L348.01,552.81z M378.21,540.12h17.09v3.97h-12.39v3.25h11.02v3.97h-11.02v4.27h12.69v3.97h-17.09
	L378.21,540.12z M410.77,540.12h5.94l9.74,13.71v-13.71h4.66v19.44h-5.9l-9.83-13.84v13.84h-4.61L410.77,540.12z M463.05,541.4
	c4.72,3.04,6.08,9.34,3.03,14.06c-0.78,1.21-1.82,2.25-3.03,3.03c-2.35,1.07-4.94,1.52-7.52,1.28h-8.67v-19.44h8.54
	C458.01,540.01,460.64,540.38,463.05,541.4z M451.86,555.58h3.76c4.53,0,6.84-2.09,6.84-5.81c0-3.72-2.31-5.68-6.84-5.68h-3.76
	V555.58z M486.89,540.12h4.66l8.84,19.44h-5.38l-1.79-4.27h-8.54l-1.75,4.27h-5.25L486.89,540.12z M491.46,551.48l-2.61-5.98
	l-2.52,5.98H491.46z M514.1,540.12h4.87v19.44h-4.87V540.12z M523.2,521.84c2.05-0.6,2.9-2.39,4.83-8.24l6.84-20.33l-4.27,0.85
	l-1.03-3.59c-1.79-6.41-4.61-8.71-7.39-9.48v34.69c-0.13,2.05,0.03,4.1,0.47,6.11H523.2z M523.76,515.64v-31.87
	c2.03,1.91,3.43,4.4,4.02,7.13l0.98,3.59l0.43,1.54l2.9-0.56l-5.72,17.56c-0.6,2.17-1.48,4.25-2.61,6.19
	C523.76,518.46,523.76,517.26,523.76,515.64z M326.01,509.45c-1.41-5.3-2.82-6.79-5.25-7.22v11.83c-0.13,1.35,0.02,2.72,0.43,4.02
	c0.78,0.28,1.61,0.38,2.44,0.3c4.13,0.04,7.94-2.26,9.83-5.94h-6.62L326.01,509.45z M323.53,516.62h-1.07c0-0.51,0-1.32,0-2.56
	v-8.84c0.83,1.47,1.45,3.05,1.84,4.7l0.81,2.99l0.34,1.28h4.27C328.1,515.85,325.85,516.74,323.53,516.62z M582.28,177.09
	c-51.61-30.25-104.96-61.52-182.41-61.52s-130.81,31.27-182.41,61.52c-41.86,24.56-81.47,47.89-130.34,53.23l2.26,69.76
	c2.95,91.77,35.82,180.05,93.6,251.4c27.68,33.94,60.9,62.95,98.25,85.82c36.53,22.31,76.68,38.05,118.63,46.52
	c41.95-8.47,82.1-24.22,118.63-46.52c37.35-22.87,70.57-51.88,98.25-85.82c57.76-71.36,90.63-159.64,93.6-251.4l2.26-69.76
	C663.75,224.98,624.15,201.65,582.28,177.09z M584.8,191.87c2.22-1.62,4.49-3.12,6.49-4.61c7.73,4.53,15.42,8.8,23.11,13.07
	c-5.94,7.65-12.35,15.21-19.35,22.68c-33.11,35.2-71.09,50.11-83.9,41.01c-9.23-6.45,0.09-24.52,20.29-38.32
	C554.09,210.2,569.08,202.51,584.8,191.87z M531.45,153.72c-12.91,4.92-24.47,12.83-33.75,23.07c-48.4,52.97-84.8,60.41-89.07,55.54
	c-7.95-9.23,14.91-44.68,71.77-67.8c13.33-5.47,27.98-10.12,43.23-14.65C526.24,151.16,528.88,152.4,531.45,153.72z M93.62,299.95
	c0,0-1.71-51.26-2.18-65.96c47.85-6.28,86.98-29.09,128.16-53.27c51.26-29.9,103.94-60.96,180.28-60.96
	c10.25,0.02,20.49,0.62,30.67,1.79c-176.47,52.67-266.31,194.63-317.62,290.66C101.43,375.84,94.94,338.08,93.62,299.95z
	 M275.05,628.25c-8.86-5.67-17.4-11.68-25.63-18.03c32.22-13.06,66.74-19.52,101.5-19.01C323.87,599.07,296.66,609.45,275.05,628.25
	z M342.12,662.68c-15.55-6-30.66-13.07-45.24-21.15c18.11-25.03,47.46-39.94,103.17-56.52c-68.99-5.64-122.9,0-162.93,15.29
	c-18.44-15.49-35.42-32.65-50.71-51.26c-29.65-36.48-52.78-77.82-68.35-122.18c39.43-36.74,87.62-42.51,100.09-33.15
	c19.91,14.91-8.29,34.18,25.29,57.07c9.96,6.79,20.98,10.18,32.17,11.38c-2.85,2.28-5.6,4.7-8.16,7.33
	c-5.75,6.09-9.56,13.74-10.94,22l-4.27-11.32c-0.81-2.26-0.73-2.86-0.68-2.99c0.04-0.13,0.51-0.38,2.56-0.38h1.71v-13.07h-45.2
	v13.03l1.28,0.26l3.25,0.64c1.88,0.38,2.52,1.07,4.78,7.35l27.85,76.55l2.09,5.81l5.68-2.52c11.63-5.23,20.81-14.73,25.63-26.53
	c4.02-9.82,6.54-20.19,7.48-30.76c0.81-8.26,2.72-16.38,5.68-24.14v33.41c0,3.89,0,3.89-2.22,4.27l-1.37,0.3v12.82h51.26
	c0,0,2.39-8.54,3.37-11.92c0.97,1.36,2.04,2.64,3.2,3.84c5.94,5.71,13.93,8.79,22.17,8.54c1.24,0,2.61,0,4.27,0
	c2.61,0,5.9-0.34,9.91-0.34h30.97v-12.82h-1.5c-0.77,0-1.88-0.3-2.05-0.6c-0.17-0.3-0.38-0.73,0.43-3.12l1.54-4.96
	c5.55,1.58,8.54,5.13,8.54,8.12c-0.81,0.31-1.66,0.48-2.52,0.51h-1.54v12.82H547v-12.82h-1.5c-0.77,0-1.84-0.3-2.05-0.6
	c-0.21-0.3-0.38-0.73,0.43-3.12l1.54-4.96c5.55,1.58,8.54,5.13,8.54,8.12c-0.79,0.3-1.63,0.48-2.48,0.51h-1.58v12.82h17.34
	c-22.49,29.9-41.86,42.46-101.63,53.83C412,598.3,365.65,621.03,342.12,662.68z M397.14,513.33l12.22-37.42c0-0.34,0-0.34,0-0.34
	c-0.03-0.17-0.14-0.31-0.3-0.38l-1.75-0.81v-9.06h32.21v9.14l-1.67,0.73c-0.21,0.1-0.32,0.33-0.26,0.56v0.43l12.05,39.56
	c0.49,1.87,1.17,3.68,2.01,5.43c0.09-1.49,0.09-2.99,0-4.49v-35.76c0-3.67-0.3-5.77-3.8-6.54v-9.06h32.42v9.06
	c-3.8,0.43-4.27,2.26-4.27,6.54v31.4c-0.12,1.92,0.03,3.85,0.47,5.72c0.59,0.19,1.22,0.26,1.84,0.21c5.47,0,10.25-5.08,14.01-15.17
	l1.41-3.84l3.72,1.41v-19.82c-2.78,0.94-5.64,3.08-7.43,9.48l-0.98,3.59l-9.78-1.92l0.68-3.93l4.27-22.73h51.26l3.03,16.49
	l1.88-5.77c0-0.34,0-0.34,0-0.34c-0.03-0.17-0.14-0.31-0.3-0.38l-1.75-0.81v-9.06h32.21v9.14l-1.67,0.73
	c-0.19,0.12-0.29,0.34-0.26,0.56v0.43l12.05,39.56c2.22,6.75,3.55,6.71,6.02,7.22v9.48h-35.16v-9.48c1.88-0.21,4.27-0.51,4.27-1.97
	c0-4.23-4.06-8.97-11.58-10.47l-2.05,6.45c-1.71,5.34,0.56,5.6,3.12,5.98v9.48H420.46v-9.31c1.67-0.21,4.06-0.51,4.06-1.97
	c0-4.23-4.06-8.97-11.58-10.47l-2.05,6.45c-1.71,5.34,0.56,5.6,3.12,5.98v9.48h-29.22c-4.06,0-7.39,0.34-10,0.34
	c-1.71,0-3.12,0-4.27,0c-7.78,0.24-15.33-2.67-20.93-8.07c-2.02-2.05-3.72-4.4-5.04-6.96l-4.27,14.52h-48.1v-9.48
	c3.25-0.73,3.8-0.73,3.8-6.11v-35.76c0.07-1.69-0.03-3.37-0.3-5.04c-4.6,9.92-7.49,20.55-8.54,31.44
	c-0.89,10.41-3.37,20.63-7.35,30.29c-4.67,11.42-13.56,20.6-24.82,25.63l-3.93,1.75l-1.5-4.27l-27.81-76.55
	c-2.26-6.32-3.16-7.99-6.11-8.54l-3.25-0.64v-9.83h41.95v9.61c-4.7,0.04-4.96,1.45-3.5,5.72l7.26,19.95c0-1.15,0-2.35,0-3.5
	c0.13-9.9,4.03-19.39,10.89-26.53c12.34-12.72,28.28-21.35,45.67-24.73l4.87-1.07v10.08l-2.48,1.03c-5.19,2.14-9.86,5.36-13.71,9.44
	h38.45l0.68,3.16l2.48,11.36c4.86-10.01,15.2-16.17,26.32-15.68c8.13,0,16.14,1.93,23.37,5.64l2.22,1.15v43.19
	C396.92,513.96,397.02,513.64,397.14,513.33z M478.18,487.87c0,0-0.3,1.62-0.47,2.73v-9.57c0.04-4.24,0.51-4.52,2.56-4.78
	C479.24,481.86,478.18,487.87,478.18,487.87z M479.07,493.85l9.65,1.88l1.58,0.3l0.43-1.54l1.03-3.59c0.55-2.73,1.94-5.23,3.97-7.13
	v14.61l-2.99-1.15l-0.6,1.67l-1.45,3.8c-3.46,9.36-7.65,14.05-12.35,14.05h-0.43c0-0.81,0-2.18,0-4.27V493.6L479.07,493.85z
	 M613.47,548.83c-27.37,33.56-60.21,62.26-97.14,84.88c-35.78,21.84-75.08,37.31-116.15,45.71c4.06-32.89,40.16-68.44,74.76-79.89
	c28.79-9.48,71.43-25.97,93.98-41.35c34.3-23.37,56.13-38.83,76.3-54.25C635.68,519.62,625.07,534.62,613.47,548.83z M682.55,424.95
	c-36.86,14.8-68.38,40.4-90.44,73.43c-3.68,5.43-7.09,10.49-10.31,15.23l-11.31-37.1l0.64-0.26l1.03-0.47v-12.05H446.01V476
	l1.37,0.26c2.09,0.47,2.44,1.11,2.44,4.83v30.12l-2.95-8.97l-6.45-21.36l-1.37-4.53l0.64-0.26l1.03-0.47v-12.05H405v11.92l1.03,0.51
	l0.68,0.3c-1.11,3.46-5.72,17.47-8.89,27.13v-33.53l-0.94-0.51l-2.18-1.11c-7.48-3.86-15.77-5.86-24.18-5.85
	c-5.88-0.14-11.69,1.33-16.79,4.27c-3.4,2.13-6.31,4.95-8.54,8.29l-2.52-11.53h-35.33c2.13-1.8,4.5-3.27,6.96-4.56
	c12.39-3.08,23.56-7.51,31.95-11.46c21.36-9.91,38.45-26.1,38.45-44.73c0-31.06-39.56-56.18-56.3-68.35
	c4.88-0.59,9.58-2.24,13.76-4.83c-15.52-7.43-26.04-22.43-27.72-39.56c0-0.47,0-0.94,0-1.41c0-11.19,8.24-16.02,28.79-16.02
	c19.22,0,53.57,4.27,66.13,4.7l-11.49,6.37c26.57,2.78,71.34,26.1,88.43,31.06c-6.24,1.45-22.38,4.27-32.3,5.17
	c63.18,55.79,163.44,79.03,243.93,49.6C694.07,388.25,688.93,406.81,682.55,424.95z M296.79,325.2c-14.7-2.31-32.12-1.24-36.44,9.36
	c-11.19-28.58,16.15-46.22,47.85-48.27c3.84,0.09,0.47,10.38,7.95,23.2c4.11,7.33,9.99,13.53,17.09,18.03
	C323.11,329.17,311.49,327.51,296.79,325.2z M706.13,300.29v0.38c-51.95,39.9-127.3,49.64-203.47,19.48
	c8.36-2.4,16.47-5.59,24.22-9.53c-32-5.6-75.19-23.92-102.83-30.76c6.1-3.31,11.83-7.26,17.09-11.79
	c-14.91,1.24-78.6-6.15-109.66-1.88c-11.11,1.45-21.15,6.11-26.1,12.82c-39.86,4.14-65.87,33.15-44.13,61.52
	c2.69-11.15,17.6-13.46,39.99-5.77c14.48,4.96,59.21,26.91,59.21,53.83c0,15.12-20.25,27.47-31.87,34.18
	c-21.57,12.43-67.75,28.37-82.32,13.16c-13.37-13.97,17.69-28.49,2.65-46.65c-24.18-29.09-101.07-3.03-133.11,31.61
	c97.61-193.31,299.85-258.32,331.08-265.93c17.22-4.21,34.06-9.83,50.37-16.79c5.27,1.99,10.44,4.13,15.51,6.41
	c-115.04,43.87-124.4,83.05-120.85,92.4c5.08,13.76,41.52,9.31,72.62-15.81c31.1-25.12,66.26-49.43,87.62-47.59
	c-40.24,28.96-70.27,83.09-46.99,97.06c18.24,10.94,68.48-0.85,129.7-59.85c23.05,11.79,47.87,19.74,73.48,23.54L706.13,300.29z
	 M337.54,493.34l-1.28-3.42l-0.51-1.32v20.04c0.81-1.62,1.71-3.5,2.61-5.64l2.35-5.47h-0.09c0.02-1.69,0.15-3.37,0.38-5.04
	L337.54,493.34z M338.87,497.19h-0.04l-1.45,3.46v-5.47h0.47l1.07-0.3C338.91,495.56,338.91,496.37,338.87,497.19z M326.05,480.78
	l0.21-0.73c-1.4-0.33-2.83-0.49-4.27-0.47h-1.24c-0.09,0.95-0.09,1.91,0,2.86l0.04,5.55C323.23,487.62,324.64,486.08,326.05,480.78z
	 M322.46,481.29c0.5-0.04,1-0.04,1.5,0c-0.3,1.28-0.79,2.5-1.45,3.63h-0.04V481.29z M375.99,478.73h-0.26
	c-2.28,0.04-4.45,1-6.02,2.65c-3.85,4.82-5.72,10.94-5.21,17.09c0,12.65,5.13,18.45,7.22,19.52c0.29-1.61,0.4-3.24,0.34-4.87v-8.54
	c0.1-1.66-0.05-3.33-0.43-4.96c-0.25-0.16-0.52-0.26-0.81-0.3l-3.2-0.68v-9.65h18.45C384.28,482.53,380.56,478.73,375.99,478.73z
	 M369.97,501.12c0.07,1.19,0.07,2.39,0,3.59v9.65c-2.68-4.21-4.08-9.11-4.02-14.1l0.98,0.21L369.97,501.12z M383.42,487.36h-15.55
	c0.63-1.72,1.6-3.29,2.86-4.61c1.23-1.34,2.96-2.11,4.78-2.14h0.26c3.33,0,6.07,2.48,7.77,6.75H383.42z M315.12,449.94
	c-16.54,3.18-31.7,11.38-43.4,23.5c-6.19,6.39-9.7,14.9-9.83,23.79c0,3.66,0.61,7.3,1.79,10.77l6.54,17.98
	c1.89,5.1,1.24,10.79-1.75,15.34l-21.36-59.21c-0.73-1.93-1.18-3.96-1.32-6.02c0-2.73,1.58-4.27,4.61-4.27v-2.44h-33.96v2.44
	c5.38,1.07,6.88,4.96,9.06,11.06l27.85,76.55c10.25-4.59,18.36-12.94,22.64-23.32c3.82-9.31,6.23-19.15,7.13-29.18
	c1.17-11.62,4.35-22.96,9.4-33.49c4.69-9.63,12.72-17.22,22.6-21.36L315.12,449.94z M555.11,503.81l-5.81-21.36l-5.55,17.09
	C547.85,499.91,551.78,501.39,555.11,503.81z M523.5,525.85c4.87-1.03,6.19-4.91,8.2-11.02l12.22-37.42
	c0.29-0.81,0.45-1.66,0.47-2.52c-0.01-1.34-0.86-2.53-2.14-2.95v-2.44h24.22v2.44c-1.16,0.4-1.99,1.43-2.14,2.65
	c0.01,0.96,0.17,1.91,0.47,2.82l12.09,39.64c1.71,5.64,2.82,8.54,6.24,8.8v2.43h-27.08v-2.48c2.36,0.03,4.29-1.86,4.32-4.22
	c0-0.23-0.01-0.46-0.05-0.69c0-7.18-7.05-14.14-18.41-14.91l-3.08,9.7c-0.68,1.93-1.09,3.94-1.2,5.98c-0.36,2,0.96,3.91,2.96,4.27
	c0.43,0.08,0.88,0.08,1.31,0v2.35h-45.45v-2.48c4.53-0.34,5-3.42,5-10.21v-39.09h-1.03c-7.22,0-11.92,4.27-14.31,12.82l-2.22-0.43
	l3.5-19.39h44.43l3.55,19.39l-2.22,0.43c-2.39-8.54-7.09-12.82-14.31-12.82h-1.03v38.96c0,7.05,0.56,9.95,4.91,10.21L523.5,525.85z
	 M341.99,504.62c-5.25,12.09-9.65,17.81-18.37,17.81c-5.72,0-6.92-2.14-6.92-8.54v-15.98h2.01c6.58,0,9.27,2.99,11.28,10.34h1.54
	v-26.66h-1.67c-2.01,7.31-4.7,10.3-11.28,10.3h-1.97v-9.61c0-5.04,0.64-6.96,5.47-6.96c8.35-0.33,15.82,5.17,17.98,13.24l2.05-0.56
	l-4.06-18.5h-41.44v2.44c3.67,0.73,3.8,3.29,3.8,9.1v35.76c0,5.81,0,8.54-3.8,9.06v2.44h41.05l6.45-23.03L341.99,504.62z
	 M423.84,503.81l-5.81-21.36l-5.55,17.09C416.58,499.91,420.5,501.39,423.84,503.81z M392.23,525.85c4.83-1.03,6.19-4.91,8.2-11.02
	l12.22-37.42c0.29-0.81,0.45-1.66,0.47-2.52c-0.01-1.34-0.86-2.53-2.14-2.95v-2.44h24.14v2.44c-1.17,0.38-2.01,1.42-2.14,2.65
	c0.01,0.96,0.17,1.91,0.47,2.82l12.05,39.64c1.75,5.64,2.86,8.54,6.28,8.8c3.67-0.68,3.8-3.25,3.8-9.06v-35.76
	c0-5.81,0-8.54-3.8-9.1v-2.44h24.39v2.44c-3.89,0.9-4.27,3.46-4.27,9.1v31.4c0,6.45,0,10,6.37,10c7.38,0,13.3-5.94,17.77-17.81
	l1.84,0.68l-5.77,22.98h-67.41v-2.48c2.36,0.03,4.29-1.86,4.32-4.22c0-0.23-0.01-0.46-0.05-0.69c0-7.18-7.05-14.14-18.41-14.91
	l-3.12,9.7c-0.66,1.93-1.06,3.94-1.2,5.98c-0.33,2.03,1.04,3.94,3.06,4.27c0.4,0.07,0.81,0.07,1.21,0v2.35h-25.16
	c-6.84,0-11.62,0.56-14.31,0.56c-16.28,0-26.02-11.62-26.02-29.39v-1.79c0-17.73,9.74-29.35,26.02-29.35
	c7.43,0.01,14.76,1.8,21.36,5.21v15.38h-2.14c-2.26-9.4-7.99-14.1-14.18-14.1h-0.26c-8.03,0-15.25,7.86-15.25,23.75
	c0,15.89,7.48,23.75,11.71,23.75c3.2,0,3.93-3.2,3.93-9.1v-8.54c0-5.68-0.34-8.33-4.27-9.18v-2.39h20.63L392.23,525.85z"/>
</svg>
