<?xml version="1.0" encoding="utf-8"?>
<!-- Created by @FCLOGO 2025-2-6 GMT+8 9:50:13 . https://fclogo.top/ -->
<!-- FOR PERSONAL USE ONLY NOT FOR COMMERCIAL USE -->
<svg version="1.1" xmlns="http://www.w3.org/2000/svg" xmlns:xlink="http://www.w3.org/1999/xlink" x="0px" y="0px"
	 viewBox="0 0 800 800" style="enable-background:new 0 0 800 800;" xml:space="preserve">
<path style="fill:#213A8F;" d="M400.0017,70.7294l219.5841,109.8456l13.8354-13.8906L400.0017,50L166.5244,166.6843l13.8376,13.8906
	L400.0017,70.7294z M641.4868,261.9975l-18.5911,37.1316v87.4047c0,177.6982-113.1559,303.7875-222.8983,343.697
	c-109.7368-39.9095-222.948-166.1585-222.948-343.697v-87.4047l-18.3257-37.1316v124.5363
	c-0.1277,43.7675,6.7442,87.2718,20.3556,128.8686c12.3772,37.6524,30.3908,73.2119,53.4268,105.4614
	c21.1596,29.6516,46.497,56.0882,75.2251,78.4855c13.3879,10.4478,27.5512,19.8597,42.3663,28.1542
	c16.0708,8.8812,32.8493,16.4031,50.1673,22.4965c17.318-6.1021,34.0966-13.6283,50.1674-22.4965
	c14.802-8.3203,28.9654-17.7323,42.3693-28.1542c28.7108-22.3973,54.0297-48.8339,75.1712-78.4855
	c23.0359-32.2538,41.0487-67.809,53.4255-105.4614c13.5721-41.6055,20.4251-85.1054,20.3043-128.8686L641.4868,261.9975z
	 M370.294,403.3123L139.9178,172.9348l172.7824,345.5661L370.294,403.3123z M400.0017,693.1005l260.0805-520.1657L511.4487,321.5169
	L437.132,470.1503V321.5169L325.685,544.4671l37.1303,74.3167l37.1864-74.3167V693.1005z M497.5055,262.3181v19.5007h-4.0091
	v-19.5007H497.5055z M314.1959,274.4459l-8.5481-12.1278h-3.2056v19.5007h4.007v-11.5935l8.5481,11.8071h3.2047v-19.7144h-4.006
	V274.4459z M347.8018,281.8189h-4.2723l-1.4457-4.3275h-6.7321l-1.4414,4.3275h-4.2205l7.1076-19.5007h3.8969L347.8018,281.8189z
	 M341.0697,274.3393l-2.352-6.9992l-2.2958,6.9992H341.0697z M403.631,281.8189h-4.2206l-1.4413-4.3275h-6.7321l-1.4414,4.3275
	h-4.2767l7.1076-19.5007h3.9012L403.631,281.8189z M396.8989,274.3393l-2.2958-6.9992l-2.3519,6.9992H396.8989z M456.0424,281.8189
	h-4.2205l-1.4413-4.3275h-6.7839l-1.3896,4.3275h-4.2766l7.1076-19.5007h3.9012L456.0424,281.8189z M449.3146,274.3393
	l-2.0844-6.9992l-2.3519,6.9992H449.3146z M374.0356,271.8281h-4.0091v6.4111c-0.7638,0.0902-1.532,0.0902-2.2958,0
	c-1.7305,0-3.3877-0.6866-4.6089-1.9091c-1.2213-1.2222-1.9118-2.8802-1.9118-4.6089c0-1.7288,0.6905-3.3864,1.9118-4.6089
	c1.2213-1.2221,2.8784-1.9091,4.6089-1.9091c2.1232-0.0509,4.2162,0.5053,6.0373,1.6028v-3.5262
	c-1.8815-0.911-3.9487-1.3684-6.0373-1.3357c-1.3249,0-2.6411,0.2615-3.8667,0.7686c-1.2256,0.5075-2.3347,1.2515-3.2755,2.1893
	c-0.9365,0.9373-1.6787,2.0507-2.1879,3.2759c-0.5092,1.2251-0.7682,2.5379-0.7682,3.864s0.2589,2.6393,0.7682,3.8641
	c0.5092,1.2252,1.2515,2.3385,2.1879,3.2763c0.9408,0.9373,2.0499,1.6813,3.2755,2.1888c1.2256,0.5075,2.5418,0.7686,3.8667,0.7686
	c2.1577-0.0117,4.2982-0.4286,6.3049-1.229V271.8281z M424.574,271.3474c-1.4413-0.6413-2.244-0.9084-3.8451-1.5497
	c-1.601-0.6408-2.5634-1.3356-2.5634-2.2971c0-0.9619,1.1738-1.9769,3.4178-1.9769c1.8298,0.079,3.6379,0.4579,5.3425,1.122v-3.5262
	c-1.8125-0.7448-3.7544-1.1263-5.718-1.122c-4.1644,0-7.319,2.0835-7.319,5.3426c0,3.259,3.0985,4.7017,4.7556,5.343l3.6854,1.4422
	c1.2299,0.5877,1.8729,1.3356,1.8729,2.1375c0,0.8014-1.1781,1.9765-3.5257,1.9765c-2.3088-0.0414-4.5744-0.608-6.6243-1.6562
	v3.6867c2.0801,1.0663,4.3889,1.6161,6.7278,1.6028c4.4881,0,7.5866-2.0304,7.5866-5.6096
	c-0.0388-1.1125-0.4272-2.1841-1.1091-3.0653C426.5807,272.3162,425.64,271.6693,424.574,271.3474z M482.2244,262.3181h-5.0232
	l-6.4128,8.1744v-8.1744h-4.0608v19.5007h4.0608v-6.251l1.3378-1.5492l6.197,7.8537h5.3425l-8.7604-10.6855L482.2244,262.3181z
	 M464.3799,242.8174h33.1255v-8.2279h-23.1352v-12.4484h9.8307c1.0443,0.1105,2.093-0.158,2.9561-0.7561
	c0.8631-0.5981,1.4802-1.4863,1.7435-2.503l1.8168-4.9688h-16.347v-11.647h23.1352v-8.2275h-33.1255V242.8174z M295.8707,224.3316
	h12.4484c1.009,0.1135,2.0257-0.1359,2.8676-0.7039c0.8419-0.5679,1.4543-1.4168,1.7271-2.3951l1.7098-4.8083h-16.0281
	L295.8707,224.3316z M381.087,194.0388l-17.7927,48.7786h10.6851l2.9388-8.7621h8.0139c1.0443,0.1105,2.093-0.1579,2.9561-0.7561
	c0.8631-0.5981,1.4845-1.4862,1.7477-2.5029l1.8168-4.9689h-11.915l6.3567-19.1801l12.0229,36.1701h10.6851l-17.7927-48.7786
	H381.087z M279.5755,195.9086c0.6477,1.3788,0.9839,2.884,0.9839,4.4078c0,1.5234-0.3362,3.0286-0.9839,4.4074
	c-2.0304,5.9838-8.9758,26.7136-8.9758,26.7136l-12.769-37.3987h-10.6855l17.7914,48.7786h11.3264l17.791-48.7786h-15.4934
	c0.3422,0.6033,0.6456,1.2278,0.9079,1.8699H279.5755z M348.4405,194.0388c0.3064,0.6059,0.5739,1.2303,0.8027,1.8699
	c0.6473,1.3788,0.9839,2.884,0.9839,4.4078c0,1.5234-0.3366,3.0286-0.9839,4.4074l-8.9762,26.7136l-12.7695-37.3987h-10.6851
	l17.7409,48.7786h11.4835l17.7927-48.7786H348.4405z M455.7231,242.8174h-9.4034c-3.1503,0-4.4881-1.6563-6.2488-3.9003
	l-8.6051-10.6851h-4.4838v14.799h-10.0464v-39.4292c0.1295-2.4231-0.4876-4.8277-1.765-6.8918
	c-1.0141-1.9769-1.4413-2.6713-1.4413-2.6713h18.5953c13.1967,0,19.7131,7.8002,19.7131,16.9896
	c0.1208,3.3156-0.7941,6.5867-2.6108,9.3616c-1.8168,2.7753-4.4536,4.9179-7.5392,6.1323L455.7231,242.8174z M442.3149,211.0283
	c-0.0647-1.2704-0.3884-2.5146-0.9537-3.6548c-0.5653-1.1401-1.3594-2.1521-2.3303-2.9733
	c-0.971-0.8212-2.1017-1.4345-3.3186-1.8017c-1.2213-0.3668-2.4987-0.4799-3.7631-0.3323h-4.8635v17.5242h5.718
	c1.2083,0.1049,2.421-0.0449,3.5689-0.4393c1.1436-0.3949,2.1923-1.0254,3.0812-1.8513c0.8847-0.826,1.5881-1.8285,2.0628-2.9436
	c0.4747-1.1147,0.7077-2.3166,0.6905-3.5279H442.3149z M534.7955,194.0388l1.4974,2.6713c1.1738,1.7318,1.7909,3.7834,1.7607,5.8768
	v21.7983l-21.3702-30.3464h-8.0656v48.7786h10.0421v-29.5985l21.3702,29.5985h7.9621v-48.7786H534.7955z"/>
<g>
</g>
<g>
</g>
<g>
</g>
<g>
</g>
<g>
</g>
<g>
</g>
<g>
</g>
<g>
</g>
<g>
</g>
<g>
</g>
<g>
</g>
<g>
</g>
<g>
</g>
<g>
</g>
<g>
</g>
</svg>
