<?xml version="1.0" encoding="UTF-8"?>
<svg data-name="图层_1" xmlns="http://www.w3.org/2000/svg" version="1.1" viewBox="0 0 800 800">
  <!-- Created by @FCLOGO 2025-7-12 GMT+8 21:26:50 . https://fclogo.top/ -->
<!-- FOR PERSONAL USE ONLY NOT FOR COMMERCIAL USE -->
  <g id="g1417">
    <g id="g1423">
      <path id="path1425" d="M640.4096,496.6559c0,132.7746-107.6351,240.4097-240.4097,240.4097s-240.4097-107.6351-240.4097-240.4097,107.6351-240.4097,240.4097-240.4097,240.4097,107.6351,240.4097,240.4097" style="fill: #fff;"/>
    </g>
    <g id="g1427">
      <path id="path1429" d="M551.1348,449.8393c-3.9365-11.9502-14.059-21.5103-24.6033-23.0568-7.8731-.9841-14.4808-.9841-22.9163-.9841-3.093,0-10.4037,0-10.4037-.5624l3.5148,5.6236c4.4989,7.3107,10.8255,8.0137,18.6985,8.8572,4.9207.5624,5.3424,1.4059,3.2336,6.0454-3.093,6.3266-1.4059,15.6055,3.7959,19.4015.703-4.2177.9841-7.8731,1.8277-11.5284,1.8277-7.0295,9.5602-10.5443,14.762-6.6078,6.3266,4.9207,5.9048,9.8413,4.6395,17.9956-1.9683,14.3402-15.6055,24.8845-30.0864,26.1498-15.7461,1.4059-25.3063,0-40.2089-6.3266-4.6395-1.9683-11.669-4.6395-18.1362-3.5148-4.2359.5509-8.1554,2.5355-11.1066,5.6236-3.2336,3.3742-3.5148,8.1542-2.8118,12.6531.9841,9.4196,9.279,19.6827,12.6531,22.4945,4.2177,3.6553,8.8572,8.1542,10.4037,13.4967.9841,3.3742-.5624,8.576-3.5148,11.5284-4.2177-6.6077-9.1384-11.2472-9.1384-11.2472-6.0454-5.6236-9.279-8.8572-15.1838-13.2155-8.7166-6.7483-14.3402-11.5284-12.7937-22.4945.5624-5.3424.5624-10.6849.703-16.0273v-7.3107c.1406-.8435.9841-2.39,1.6871-2.5306,3.7959-.703,12.9343,13.0749,12.9343,13.0749,4.0771-1.5465,5.3424-19.6827,5.0613-22.4945-.714-4.8912-1.1365-9.8206-1.2653-14.762,1.9683,6.7483,3.5148,8.8572,10.8255,12.372.9841.5624,7.7325.5624,8.1542-1.1247,0,0-4.4989-3.5148-8.8572-12.2314-4.7801-9.5602-4.2177-13.0749-5.6236-20.8074-.9051-6.0962-1.0938-12.2773-.5624-18.4174,6.3266.1406,13.3561,11.5284,13.3561,11.5284,1.9683-9.1384-2.8118-18.8391-5.3424-25.3063-3.5226-5.8113-8.1-10.9133-13.4967-15.0432,7.0295-1.2653,16.0273,5.0613,16.0273,5.0613-.9841-4.2177-2.6712-6.8889-3.093-8.2948-1.4059-4.7801-3.7959-7.3107-6.4672-12.0908-.8435-1.5465-3.7959-6.3266-9.279-11.669-5.2018-5.2018-10.6849-8.576-15.6055-9.9819-7.4475-1.2325-15.047-1.2325-22.4945,0-5.0167.8016-9.893,2.3166-14.4808,4.4989-1.7813,1.1899-2.8395,3.2004-2.8118,5.3424v1.6871c-2.9887-.3567-6.0091-.3567-8.9978,0-3.9365.2812-10.2631,3.6554-11.2472,3.9365-4.6395,1.4059-1.4059,7.0295.4218,6.3266,0,0-2.6712.4218-1.6871,4.2177,2.6712,9.7007,1.4059,8.7166,1.4059,11.2472,0,5.6236,22.0727.703,24.1816-.2812,2.1089-1.1247,1.5465-4.4989,3.6554-3.6554,0,0,2.39.4218.2812,2.8118-4.6395,5.3424-.8435,8.2948,0,11.2472-.5624-.703-4.2177,9.1384-3.6554,9.4196-1.4059.703-3.6554.8435-6.3266,1.4059-11.2472.8435-13.2155-6.186-18.5579-4.4989-2.8118.9841-2.1089,5.0613-1.9683,8.1542.2812,3.5148-.8435,2.5306-3.2336,7.8731-.8435,1.8277,12.7937.5624,13.4967.1406,0,.5624,0,5.3424-2.8118,7.1701-3.093,2.1089-3.6554.9841-7.1701,1.8277-6.7483,1.4059-8.4354,4.2177-13.2155-.2812-3.5148-3.3742-6.6078-7.4513-10.5443-10.2631-3.5148-2.5306-7.7325-5.0613-11.9502-5.483-14.3402-1.4059-26.2904-6.4672-30.3675-14.9026-1.4059-3.2336.8435-13.4967-1.2653-17.2926-3.3742-6.0454-8.4354-8.4354-15.465-8.576,0,0,2.39,1.8277,2.8118,3.5148.2812,1.6871-1.1247,3.2336-1.5465,4.9207-1.4059,2.8118-1.9683,3.2336-4.7801,3.7959,1.4059,1.8277,1.8277,3.2336,1.8277,6.186-.2812,3.3742-1.1247,3.9365-1.8277,5.9048-.9841,2.8118-1.4059,6.0454-1.4059,9.279-.1406,1.4059-.5624,6.4672,1.4059,10.1225,1.4059,2.1089,2.39,3.6554,8.8572,4.4989,6.3266.8435,11.2472,6.186,10.5443,13.9185-.2812,2.1089,0,8.0137,1.4059,8.4354.5624.2812.7029-3.3742,2.2494-3.7959,1.2653-.4218,2.5306,2.6712,2.8118,3.3742,1.4059,2.8118,2.6712,5.483,4.6395,7.7325.7029.703,1.5465,2.2494,2.5306,2.5306,2.2494.8435.9841-4.6395,2.2494-4.4989l8.0137,1.2653c.8435.1406,2.1089.8435,2.2494,1.4059.0859,1.086-.0091,2.1787-.2812,3.2336-.8435,3.5148-3.3742,6.186-8.9978,10.2631-4.5169,2.661-9.3298,4.7843-14.3402,6.3266,0,0,1.2653,2.39,4.2177,4.0771,3.2336,1.6871,7.3107,3.2336,8.1542,3.6554,0,.703-1.8277.5624-4.6395,2.39-9.4196,6.186-11.2472,15.0432-18.5579,23.0568-3.4295,3.7048-7.143,7.1363-11.1067,10.2631-3.9313,3.2059-9.0641,4.5404-14.059,3.6554-8.2948-1.4059-15.465-11.8096-26.8528-11.8096-2.1089,0-9.279,1.4059-10.5443,5.6236-.7029,1.8277,8.7166-2.1089,6.8889,3.093-2.2494,6.3266-1.8277,8.9978-1.8277,8.9978,0,0,3.3742-2.5306,4.7801-.2812.8435,1.4059-5.6236,2.5306.5624,11.669,0,0-1.4059-7.0295,9.8413-5.0613,2.8118,3.5148,6.0454,5.6236,8.8572,6.0454,2.1089.2812,5.483-1.4059,7.0295-1.9683,3.093-.9841,5.0613-1.8277,10.2631.703,4.7801,2.2494,5.2019,2.8118,9.4196,6.186,1.2653.9841,3.7959,2.6712,5.3424,3.2336.5624-1.9683,1.8277-4.2177,1.4059-6.0454-.2812-1.9683-2.1089-3.6553-3.5148-5.9048,3.7959-5.3424,8.4354-.4218,13.2155-.703.9841-5.2018-.8435-11.2472,3.9365-15.465,1.6871-1.4059,3.6554-2.39,5.9048-3.3742-.8435,5.2018-1.6871,10.2631.7029,14.4808,5.0613-2.5306,13.2155-7.0295,17.855-9.8413,4.7801-2.8118,18.2768-15.465,22.0727-17.855,1.4059,8.4354,8.8572,12.7937,14.4808,18.6985,7.0295,7.3107,14.3402,14.3402,20.6668,22.0727,3.3742,4.3583,5.0613,10.1225,7.3107,15.465.2812.5624-1.4059,2.8118-2.6712,2.9524-11.8096,3.2336-20.245,5.3424-31.7735,8.7166-4.3844,1.1743-8.6273,2.8243-12.6531,4.9207-6.6078,6.4672-5.9048,14.762-3.6554,23.7598,2.39,9.8413,4.2177,17.9956,5.6236,21.2292,1.2653,3.2336-6.186,4.7801-11.2472,6.186-2.2494.4218-9.8413,0-13.6373-2.2494-8.8572-5.2018-9.1384-7.4513-17.5738-9.9819-2.2494-.703-7.3107-1.6871-10.9661,0-4.4989,1.8277-7.4513,6.3266-6.0454,5.7642,1.8699-.8029,3.9671-.9028,5.9048-.2812,1.6871.5624,3.7959.4218,1.1247,3.5148-1.9683,2.39-2.8118,8.2948-1.9683,7.5919,1.9683-1.2653,7.3107-2.6712,4.4989-.1406-4.2177,3.6554.4218,14.762.8435,11.9502.4218-2.39-.7029-6.0454,7.0295-4.7801,1.2653.2812.2812-1.4059,2.1089-.5624,1.9683.9841,1.8277,4.4989,9.7008,5.6236,7.8731,1.1247,4.9207-4.2177,11.5284-3.3742,7.0295.8435,9.8413,1.6871,18.2768,2.8118,11.5284,1.4059,14.9026,1.5465,17.152-1.4059,2.8118-3.6554,6.4672-11.9502,5.0613-13.0749-4.4989-3.2336-3.6554-10.1225-1.5465-14.3402,2.8118-5.6236,4.2177-4.7801,9.8413-7.0295,9.9819-4.4989,14.059-14.4808,24.8845-15.1838,1.1247,0,2.5306,1.1247,3.3742,1.9683l4.3583,4.2177c13.0749,17.0114,28.6805,20.948,30.9299,21.7915,9.0557,2.8584,18.838,2.3593,27.5557-1.4059l9.9819-2.8118c3.5148-.703,5.2018.8435,5.6236,4.2177,1.8277,10.6849,1.8277,16.4491-2.6712,19.9638-3.9365,3.093-9.9819,1.9683-14.059,7.1701-2.8118,3.3742-3.3742,8.4354-3.9365,12.6531,0,.2812,4.2177-3.7959,6.0454-3.2336.4218,0-1.5465,2.8118,1.2653,8.9978.8435,1.8277,2.1089-4.9207,9.7007-5.2018,2.1089,0-.8435,2.2494,3.9365,8.2948,1.2653,1.4059-.1406-5.9048,10.1225-5.6236,7.0295.1406,9.8413-3.9365,10.2631-7.8731.2812-3.7959-1.4059-9.8413-2.1089-15.0432-.5624-4.3583,1.4059-8.2948,3.6554-12.372,3.6554-6.3266,4.7801-13.3561,4.4989-20.6668,0-2.2494,1.1247-4.7801,2.6712-6.6078,3.6554-4.2177,4.6395-10.5443,1.9683-16.0273-2.1089-4.2177-6.0454-6.0454-12.2314-5.3424-5.479.5103-10.5809,3.0112-14.3402,7.0295-2.8118,3.2336-6.186,6.3266-10.1225,4.2177-3.3897-1.7427-5.9267-4.787-7.0295-8.4354-1.6871-6.186-1.4059-9.5602-1.9683-13.2155,4.9207-5.2018,7.7325-9.279,7.7325-9.279,3.6553-6.6077,3.3742-16.3085-.2812-23.338-3.9365-7.4513-10.5443-11.8096-16.1679-17.855-9.9819-11.1066-2.8118-19.6827,5.3424-19.2609,5.6236.2812,10.1225,3.5148,13.2155,8.4354,3.2336,4.6395,5.483,8.0137,10.4037,10.5443,6.0454,3.093,16.0273,2.5306,20.6668,9.279.2812-.8435.5624-1.8277.5624-2.8118.0446-4.4746-2.0436-8.7032-5.6236-11.3878-1.9683-1.5465-4.2177-2.8118-6.4672-3.9365,1.6871.8435,5.3424.703,7.3107.8435l7.8731.1406c5.0613-.1406,10.2631-.9841,15.0432-2.6712,19.2609-6.6078,32.3358-27.8369,25.8686-47.8008" style="fill: #e4032c;"/>
    </g>
    <g id="g1431">
      <path id="path1433" d="M550.01,209.0078s-1.4059-36.5535-40.3495-44.5672c0,0-51.7373-31.4923-109.9418-20.8074-58.0639-10.6849-109.8012,20.8074-109.8012,20.8074-38.9436,8.1543-40.3495,44.5672-40.3495,44.5672l41.0524,52.2997c33.4606-25.8686,110.6447-28.3993,110.9259-28.3993,10.5443.5624,76.7624,4.6395,107.4111,28.3993l41.0524-52.2997Z" style="fill: #e4032c;"/>
    </g>
    <g id="g1435">
      <path id="path1437" d="M560.5543,172.0325c-.5624,5.6236-3.9365,13.7779-8.7166,23.0568-10.8617,20.6734-23.8171,40.1771-38.6624,58.2045l-2.6712-1.4059c-2.8118-1.6871-5.9048-3.3742-8.9978-4.7801h1.6871c6.5995-.0724,11.8907-5.4811,11.8183-12.0806-.0724-6.5995-5.4811-11.8907-12.0806-11.8183-6.5995.0724-11.8907,5.4811-11.8183,12.0806.0365,3.3283,1.4596,6.4906,3.9264,8.7253-7.0295-3.3742-14.4808-6.3266-22.0727-8.8572,6.5994-.0815,11.8832-5.4974,11.8017-12.0969-.0359-2.9105-1.1329-5.7079-3.0851-7.867l.4218-.2812c8.9978-7.5919,34.1635-31.6329,43.1613-56.2362,2.39-6.4672,3.6554-12.7937,3.2336-18.9797,5.9048-1.5465,13.3561-2.8118,17.2926-.703,7.0295,3.5148,16.8709,13.3561,14.762,33.0388M465.6557,232.9082c-8.0137-2.5306-16.1679-4.4989-24.4627-6.0454,6.5999-.3882,11.6355-6.0532,11.2472-12.6531-.3882-6.5999-6.0532-11.6355-12.6531-11.2472h0c-6.5947-.2622-12.1533,4.8713-12.4155,11.466-.1965,4.9417,2.6714,9.4939,7.2136,11.4502-9.8413-1.5465-19.6827-2.5306-29.9458-2.6712,5.6236-8.7166,9.8413-32.7576,9.8413-61.1569,0-22.3539-2.5306-42.1771-6.4672-53.7056,25.0251,23.6192,85.7602,25.0251,85.7602,25.0251,6.6077,4.0771,8.7166,10.9661,8.1542,18.9797-1.6871,22.3539-24.1816,53.7056-28.1181,58.9074h-.9841c-6.5998-.0281-11.9729,5.2993-12.001,11.8991-.0165,3.8631,1.8355,7.4958,4.9715,9.7518M395.0793,223.2075c-10.1225.2812-20.245,1.1247-30.0864,2.6712,6.0588-2.6172,8.8487-9.6505,6.2315-15.7093-1.9373-4.4847-6.4092-7.3387-11.2927-7.2069-6.5999-.3106-12.202,4.7879-12.5126,11.3878-.3106,6.5999,4.7879,12.202,11.3878,12.5126-8.4354,1.6871-16.8709,3.6554-24.8845,6.0454,3.093-2.1089,5.0613-5.6236,5.0613-9.8413,0-6.4672-5.483-11.9502-12.0908-11.9502h-.5624c-3.7959-5.0613-26.5716-36.5535-28.1181-58.7668-.7029-8.0137,1.4059-14.9026,8.0137-18.9797,0,0,60.1727-1.4059,85.479-24.7439-4.6348,17.4174-6.7651,35.4062-6.3266,53.4244,0,28.3993,4.0771,52.4403,9.8413,61.1569h-.1406ZM326.8929,235.1577c-7.7325,2.6712-15.1838,5.6236-22.4945,9.1384,5.0477-4.252,5.6927-11.7909,1.4407-16.8386-2.3098-2.7421-5.7288-4.3022-9.3137-4.25-6.5999.5435-11.5096,6.3344-10.9661,12.9343.5435,6.5999,6.3344,11.5096,12.9343,10.9661-3.996,1.9958-7.9342,4.1055-11.8096,6.3266-5.6236-5.6236-26.431-35.1476-38.5218-58.3451-4.1468-7.1573-7.0914-14.9463-8.7166-23.0568-2.1089-19.6827,7.8731-29.524,14.762-33.0388,3.9365-1.9683,11.3878-.8435,17.2926.703-.4218,6.0454.9841,12.5126,3.2336,18.8391,9.1384,24.7439,34.4447,48.6443,43.5831,56.2362-4.5811,4.751-4.4434,12.3162.3076,16.8973,2.2207,2.1413,5.1835,3.3409,8.2685,3.3477v.1406ZM558.586,125.2159c-13.3561-3.2336-25.3063.2812-32.4764,3.3742-1.6562-3.9272-4.0414-7.505-7.0295-10.5443-29.1022-29.8052-91.3838-24.4627-112.1912-21.7915,5.3938-3.8033,6.6832-11.2591,2.8799-16.6529-1.1689-1.6578-2.7406-2.9907-4.567-3.8733v-8.4354h6.7483v-10.6849h-6.7483v-6.6078h-10.5443v6.7484h-6.7483v10.5443h6.7483v8.576c-5.8977,2.9625-8.2771,10.1451-5.3146,16.0427.9042,1.8,2.2487,3.3423,3.9087,4.4835-20.8074-2.6712-83.089-8.0137-112.1912,21.7915-2.9881,3.0392-5.3733,6.6171-7.0295,10.5443-7.3107-3.093-19.2609-6.6078-32.617-3.3742-21.6509,5.483-41.4742,26.1498-17.152,61.2975,24.3221,35.1476,57.6421,69.5923,57.6421,69.5923l8.576,16.5897c67.2956-37.0714,148.785-37.5476,216.5093-1.2653l10.5443-15.1838c21.0257-21.9385,40.4756-45.3347,58.2045-70.0141,24.3222-35.1476,4.4989-55.8144-17.152-61.1569" style="fill: #cb9804;"/>
    </g>
    <g id="g1439">
      <path id="path1441" d="M397.0475,353.3942s-4.6395-1.1247-6.8889,1.9683v.8435s0,4.2177,2.6712,4.7801c2.39.703,4.4989-.1406,5.2018-2.6712.9841-3.9365-.9841-4.9207-.9841-4.9207" style="fill: #fff;"/>
    </g>
    <g id="g1443">
      <path id="path1445" d="M364.5711,366.0474s2.2494-.2812,3.5148.9841c1.2653,1.2653,3.2336.8435,3.2336-.5624s-1.8277-2.39-3.3742-2.2494c-1.2627.3102-2.4245.9396-3.3742,1.8277" style="fill: #9c182f;"/>
    </g>
    <g id="g1447">
      <path id="path1449" d="M388.3309,549.7991c-3.2336-8.576-3.9365-11.1066-7.3107-15.465-6.3266-7.7325-13.7779-14.762-20.6668-22.0727-5.6236-5.9048-13.0749-10.4037-14.4808-18.5579,0,0,2.39-3.2336,2.39-.5624,0,2.8118,4.6395,8.1542,7.8731,11.669l26.5716,27.5557c4.8449,5.915,8.4328,12.7558,10.5443,20.1044,2.39,6.7483,5.3424,21.2292,6.6078,24.4627,1.6871,4.4989,12.6531,16.4491,16.8709,19.9638,5.2018,4.2177,7.0295,5.2018,11.669,7.5919,6.4672,3.2336,11.669,3.2336,16.8709,4.7801,5.3424,1.4059,26.2904-3.9365,28.9616-5.0613,2.5306-.9841,6.4672-.5624,9.279,3.9365,2.8118,4.4989,3.3742,24.7439-6.3266,26.1498-9.8413,1.2653-14.059,3.3742-14.059,3.3742,4.2177-5.3424,10.2631-4.2177,14.1996-7.3107,4.4989-3.5148,4.4989-9.279,2.8118-19.8233-.5624-3.5148-2.2494-5.0613-5.6236-4.2177-3.4172.7748-6.7953,1.7131-10.1225,2.8118-8.7206,3.7528-18.4984,4.2517-27.5557,1.4059-2.2494-.9841-17.7144-4.9207-30.9299-21.7915l-4.2177-4.2177c-.9841-.9841-2.39-2.1089-3.5148-1.9683l-1.6871-4.9207-1.6871-10.8255c-1.4059-8.7166-12.6531-13.0749-12.6531-13.0749,0,0,2.5306-.4218,3.9365-.9841,1.9683-.7029,2.2495-2.9524,2.2495-2.9524" style="fill: #9c182f;"/>
    </g>
    <g id="g1451">
      <path id="path1453" d="M325.487,438.7326c-1.9683.5624-18.9797-6.7483-31.4923-22.3539-5.2018-6.4672-14.059-.2812-14.3402-13.7779-.703-18.5579-2.1089-24.6033-5.0613-24.041,1.4059,1.6871,1.8277,3.2336,1.9683,6.0454-.4218,3.3742-1.2653,4.0771-1.9683,5.9048-.9116,3.0576-1.385,6.229-1.4059,9.4196,0,1.4059-.5624,6.4672,1.4059,9.9819,1.4059,2.1089,2.39,3.7959,8.9978,4.6395,6.186.8435,11.2472,6.186,10.4037,13.7779-.2812,2.1089,0,8.0137,1.4059,8.576.703.2812.8435-3.5148,2.2494-3.9365,1.2653-.2812,2.5306,2.8118,2.8118,3.5148,1.4059,2.8118,2.6712,5.3424,4.6395,7.5919.703.8435,1.6871,2.2494,2.5306,2.6712,2.2494.703.9841-4.6395,2.2494-4.4989l8.1542,1.1247,1.4059.703.703.703v1.2653c0,.8435,8.8572-1.2653,11.669-14.3402,0,0-4.7801,6.6077-6.3266,7.0295" style="fill: #9c182f;"/>
    </g>
    <g id="g1455">
      <path id="path1457" d="M391.0022,391.6348c-.3885-.797-.8597-1.551-1.4059-2.2494-1.6871-2.2494-5.3424-5.6236-13.3561-2.6712-6.2027,2.3019-12.7875,3.3993-19.4015,3.2336-6.6078-.2812-11.5284-5.6236-9.8413-1.8277,1.6871,3.7959,11.8096,8.1542,20.8074,6.3266,8.8572-1.6871,11.3878,0,17.5738,5.0613.6477.5466,1.3552,1.0182,2.1089,1.4059,0,0,4.4989-3.9365,3.5148-9.279" style="fill: #9c182f;"/>
    </g>
    <g id="g1459">
      <path id="path1461" d="M401.5465,584.3844c-.8435-.9841-2.2494-1.9683-3.3742-1.9683-10.6849.5624-14.9026,10.4037-25.0251,15.0432-5.6236,2.39-7.0295,1.5465-9.8413,7.0295-1.9683,4.2177-2.8118,11.2472,1.6871,14.4808,1.4059,1.1247-2.2494,9.279-5.0613,13.0749-2.2494,2.8118-5.6236,2.8118-17.2926,1.4059-8.4354-1.2653-11.1066-1.9683-18.2768-2.8118-6.4672-.9841-3.6554,4.4989-11.5284,3.2336-7.8731-1.1247-7.5919-4.4989-9.5602-5.6236,0,0,4.2177,3.3742,10.2631,1.6871,5.9048-1.6871,7.5919-5.2018,14.4808-3.2336,6.7483,1.9683,18.6985,4.2177,23.338,1.6871,4.6395-2.5306,6.186-7.5919,6.186-10.4037s-2.8118-14.4808.5624-17.9956c3.3742-3.6554,12.372-5.3424,16.4491-7.7325,4.3583-2.5306,10.6849-9.7007,15.1838-12.9343,4.4989-3.2336,5.2018-11.669,5.2018-11.669l6.6077,16.7303Z" style="fill: #9c182f;"/>
    </g>
    <g id="g1463">
      <path id="path1465" d="M345.8726,493.5629c-3.7959,2.39-17.2926,14.9026-22.0727,17.855-4.6395,2.8118-12.6531,7.1701-17.855,9.8413-2.5306-4.2177-1.4059-9.279-.703-14.4808-2.119.8375-4.1074,1.9737-5.9048,3.3742-4.7801,4.0771-2.8118,10.1225-3.9365,15.465-4.6395.2812-9.4196-4.6395-13.2155.703,1.4059,2.1089,3.2336,3.9365,3.5148,5.9048.4218,1.8277-.8435,3.9365-1.4059,6.0454-1.5465-.703-4.2177-2.2494-5.3424-3.2336-4.2177-3.3742-4.6395-3.9365-9.4196-6.186-5.2018-2.5306-7.1701-1.6871-10.2631-.703-1.5465.4218-4.9207,2.2494-7.0295,1.8277-2.8118-.4218-6.0454-2.5306-8.9978-6.0454,0,0,4.3583,2.8118,7.3107,2.39,9.8665-.8437,19.5421-3.2151,28.6805-7.0295,10.6849-4.9207,18.6985-14.762,26.9934-17.9956,2.8118-.9841,3.093,4.2177,4.0771,7.7325,1.4059,5.0613,4.7801,3.9365,14.059-2.1089l21.5103-13.3561Z" style="fill: #9c182f;"/>
    </g>
    <g id="g1467">
      <path id="path1469" d="M524.8442,437.0456s-8.1542-2.5306-14.6214-3.2336c-6.3266-.8435-16.8709-8.7166-16.8709-8.7166,1.9683,3.3742,4.2177,9.279,9.8413,11.8096,7.1701,3.3742,15.7461,1.9683,16.7303,4.6395.1406.703.4218-1.1247,1.2653-1.8277,1.4059-1.4059,3.6554-2.6712,3.6554-2.6712" style="fill: #9c182f;"/>
    </g>
    <g id="g1471">
      <path id="path1473" d="M506.5674,517.6039s-1.4059-8.4354-11.1066-13.3561c-9.7007-5.0613-12.2314-9.8413-15.465-9.279,0,0,5.9048-.2812,10.4037,2.1089,4.6395,2.39,12.5126,5.6236,15.1838,11.2472,2.8118,5.6236.9841,9.279.9841,9.279" style="fill: #9c182f;"/>
    </g>
    <g id="g1475">
      <path id="path1477" d="M424.4626,486.9552s-4.9207-6.6078-8.1542-2.8118c-3.2336,3.9365-12.6531,18.2768-23.338,18.2768,0,0,3.9365-12.6531,0-13.4967-3.9365-.8435-26.7122,6.7483-28.1181,24.8845,0,0-15.7461-10.6849-17.2926-15.465l-1.6871-4.6395s.4218-13.2155,13.0749-18.1362c3.5148-.4218,5.3424,12.372-2.39,23.9004,0,0,22.9163-2.39,31.0705-24.7439,0,0,11.669,3.9365,9.4196,18.9797,0,0,17.4332-2.2494,20.6668-25.8686l7.5919,7.1701s-.5624.9841-.703,1.8277v8.1542l-.1406,1.9683" style="fill: #9c182f;"/>
    </g>
    <g id="g1479">
      <path id="path1481" d="M425.0251,316.4189s-4.9207,7.7325-6.3266,9.5602c-1.2018,1.7438-2.7894,3.1871-4.6395,4.2177-2.9524,1.5465-5.0613-.703-6.7483-3.093-1.1247-1.5465-4.3583-8.4354-5.2018-9.8413v26.1498c0,.5624.2812.8435.8435.9841l15.465,3.2336h.1406l15.465,3.2336c.5624.1406.8435,0,1.1247-.5624l8.8572-19.9638,1.6871-4.0771c-1.4059,1.1247-7.0295,6.0454-8.8572,7.0295-2.39,1.4059-5.2018,2.8118-7.3107.1406-1.2576-1.6593-2.1228-3.582-2.5306-5.6236l-1.9683-11.3878" style="fill: #9c182f;"/>
    </g>
    <g id="g1483">
      <path id="path1485" d="M400,691.9361c-107.8503.0157-195.293-87.4014-195.3087-195.2517-.0157-107.8503,87.4014-195.293,195.2517-195.3087h.057c107.8503.0157,195.2674,87.4584,195.2517,195.3087-.0157,107.828-87.4237,195.2359-195.2517,195.2517M400,243.4525c-139.7443.1546-253.0343,113.3189-253.3441,253.0629,0,139.7469,113.7377,253.4846,253.3441,253.4846,139.7469,0,253.3441-113.7377,253.3441-253.3441s-113.7377-253.2035-253.3441-253.2035" style="fill: #e4032c;"/>
    </g>
    <g id="g1487">
      <path id="path1489" d="M249.568,331.181c-6.0454-7.5919-5.2018-18.2768,2.8118-24.6033,5.0613-4.0771,9.4196-4.6395,13.7779-4.2177l-.2812,7.1701c-3.2423-.4433-6.5282.4161-9.1384,2.39-4.4989,3.5148-4.7801,9.8413-1.2653,14.3402,3.6554,4.6395,9.8413,5.9048,14.3402,2.2494,3.093-2.39,3.9365-5.0613,4.4989-8.4354l6.7483.703c-.2074,5.3182-2.8521,10.2447-7.1701,13.3561-7.2866,5.9308-18.0014,4.8318-23.9323-2.4548-.133-.1634-.263-.3294-.3899-.4976" style="fill: #fff;"/>
    </g>
    <g id="g1491">
      <path id="path1493" d="M286.8246,306.5777l-8.7166-17.152,6.6078-3.3742,8.576,16.8709c2.5306,5.0613,6.3266,6.3266,10.2631,4.2177,4.2177-2.1089,5.3424-5.6236,2.8118-10.5443l-8.7166-17.152,6.6078-3.3742,8.576,16.8709c4.6395,9.1384,1.8277,16.3085-6.186,20.3856-8.0137,4.2177-15.3244,2.1089-19.8233-6.7483" style="fill: #fff;"/>
    </g>
    <g id="g1495">
      <path id="path1497" d="M322.2532,269.3212l7.0295-2.1089,7.7325,25.8687,16.0273-4.6395,1.9683,6.4672-23.338,6.7483-9.4196-32.3358Z" style="fill: #fff;"/>
    </g>
    <g id="g1499">
      <path id="path1501" d="M365.4146,266.0875l-10.1225,1.4059-1.1247-7.0295,27.6963-3.6554.9841,6.7483-10.2631,1.4059,3.6554,26.7122-7.4513.9841-3.3742-26.5716Z" style="fill: #fff;"/>
    </g>
    <g id="g1503">
      <path id="path1505" d="M397.7505,275.3666l1.1247-19.2609,7.3107.4218-.9841,18.9797c-.4218,5.6236,2.2494,8.4354,6.6078,8.8572,4.4989.1406,7.4513-2.39,7.7325-7.7325l1.1247-19.2609,7.3107.4218-.703,18.9797c-.703,10.1225-6.7483,14.9026-15.7461,14.3402-9.1384-.2812-14.3402-5.9048-13.7779-15.7461" style="fill: #fff;"/>
    </g>
    <g id="g1507">
      <path id="path1509" d="M457.642,280.4278c3.5148.8435,6.0454-.4218,6.7483-3.2336.703-3.2336-1.1247-5.3424-4.4989-6.3266l-7.0295-1.8277-2.5306,9.4196,7.3107,1.9683ZM447.2383,260.7452l14.9026,3.9365c4.2177,1.1247,7.0295,3.093,8.7166,5.6236,1.4059,2.39,1.6871,5.2018.8435,8.2948-.8887,4.6638-4.822,8.1344-9.5602,8.4354l4.9207,13.7779-8.4354-2.2494-4.2177-12.2314-5.6236-1.4059-2.8118,10.4037-7.0295-1.8277,8.2948-32.7576Z" style="fill: #fff;"/>
    </g>
    <g id="g1511">
      <path id="path1513" d="M500.9439,300.251l.703-11.8096-8.7166,7.8731,8.0137,3.9365ZM502.6309,279.0218l6.186,2.9524-1.9683,36.8347-7.0295-3.3742.703-8.1542-12.9343-6.186-6.0454,5.483-6.7483-3.3742,27.8369-24.1816Z" style="fill: #fff;"/>
    </g>
    <g id="g1515">
      <path id="path1517" d="M535.6697,298.0016l5.9048,4.4989-16.1679,21.5103,13.4967,10.1225-4.0771,5.3424-19.4015-14.4808,20.245-26.9934Z" style="fill: #fff;"/>
    </g>
    <g id="g1519">
      <path id="path1521" d="M193.3318,439.295l.1406-5.9048h6.186l.2812,10.1225-1.4059,4.7801-32.3358-8.7166,1.9683-7.0295,25.1657,6.7483Z" style="fill: #fff;"/>
    </g>
    <g id="g1523">
      <path id="path1525" d="M182.647,477.8169c3.093.2812,5.483-1.4059,5.9048-5.2018.2812-3.6554-1.5465-6.0454-4.3583-6.186h-.4218c-2.5306-.2812-4.9207,1.5465-5.3424,5.2018-.2812,3.3742,1.4059,5.9048,4.2177,6.186M174.071,476.6921c-1.3717-2.0693-1.9231-4.5756-1.5465-7.0295.703-7.0295,5.2018-11.2472,11.9502-10.4037,6.7483.703,10.9661,6.3266,10.1225,13.7779-.4218,4.4989-1.8277,7.0295-4.6395,9.1384-2.5306,2.1089-6.3266,3.2336-12.7937,2.5306-10.8255-1.2653-17.5738-7.0295-16.4491-16.4491.5624-4.7801,2.5306-7.8731,5.0613-10.4037l5.0613,4.4989c-2.0429,1.7538-3.3484,4.2141-3.6554,6.8889-.4218,4.7801,4.2177,6.7483,7.0295,7.4513" style="fill: #fff;"/>
    </g>
    <g id="g1527">
      <path id="path1529" d="M164.9327,498.0618l9.7007,10.4037c3.6554,3.9365,5.6236,5.6236,8.2948,5.3424,2.8118-.1406,4.2177-2.1089,4.0771-4.7801-.1406-2.5306-1.6871-4.2177-4.9207-6.4672l3.7959-5.3424c4.6395,2.9524,7.3107,6.0454,7.5919,11.9502.4218,6.8889-3.2336,11.669-9.4196,11.9502h-.1406c-5.6236.4218-8.4354-2.2494-13.3561-7.8731l-4.4989-5.2018.8435,14.4808-6.3266.4218-1.4059-24.6033,5.7642-.2812Z" style="fill: #fff;"/>
    </g>
    <g id="g1531">
      <path id="path1533" d="M167.7444,537.2866l5.7642,3.7959c-1.8277,2.8118-2.8118,5.483-1.9683,8.7166.703,2.6712,2.8118,4.2177,5.0613,3.6554,2.8118-.703,3.6554-3.3742,2.8118-7.4513l-.8435-2.8118,4.2177-2.2494,9.7007,5.7642-3.093-12.6531,6.0454-1.4059,5.3424,21.6509-5.3424,1.4059-9.8413-6.3266c.2812,4.6395-.9841,9.4196-7.0295,10.8255-6.0454,1.5465-11.669-1.8277-13.3561-8.9978-1.4059-5.7642,0-10.4037,2.5306-13.9185" style="fill: #fff;"/>
    </g>
    <g id="g1535">
      <path id="path1537" d="M277.5456,664.2398l6.0454,3.9365-14.4808,22.2133,13.9185,9.1384-3.6554,5.6236-19.9638-13.0749,18.1362-27.8369Z" style="fill: #fff;"/>
    </g>
    <g id="g1539">
      <path id="path1541" d="M307.2102,682.376l23.0568,9.8413-2.6712,6.0454-16.3085-7.0295-2.6712,6.186,14.3402,6.186-2.5306,5.9048-14.3402-6.186-2.8118,6.4672,16.5897,7.0295-2.5306,6.0454-23.1974-9.9819,13.0749-30.5081Z" style="fill: #fff;"/>
    </g>
    <g id="g1543">
      <path id="path1545" d="M363.7276,717.9453c1.4059-5.6236-1.9683-11.2472-7.7325-12.5126-5.6236-1.1247-10.5443,2.6712-11.8096,8.1542-1.3782,5.418,1.8966,10.9274,7.3146,12.3056.0921.0234.1845.0456.2773.0664,5.2932,1.2343,10.5848-2.056,11.8192-7.3492.0513-.2199.095-.4415.131-.6644M336.7342,712.3217v-.1406c1.9683-9.279,10.8255-15.3244,20.8074-13.2155,9.2787,1.98,15.1955,11.1069,13.2155,20.3856-1.98,9.2787-11.1069,15.1955-20.3856,13.2155-9.1872-1.5527-15.3763-10.2591-13.8236-19.4463.0532-.3148.1153-.628.1863-.9393" style="fill: #fff;"/>
    </g>
    <g id="g1547">
      <path id="path1549" d="M386.0815,704.0269h6.7483l15.6055,20.3856v-20.5262h7.0295l.2812,33.1794h-6.186l-16.1679-21.0886v21.0886l-7.0295.1406-.2812-33.1794Z" style="fill: #fff;"/>
    </g>
    <g id="g1551">
      <path id="path1553" d="M428.6804,702.3398l24.6033-4.9207,1.2653,6.4672-17.4332,3.3742,1.2653,6.6078,15.3244-2.9524,1.2653,6.3266-15.465,2.9524,1.4059,7.0295,17.7144-3.6554,1.4059,6.4672-25.0251,4.6395-6.3266-32.3358Z" style="fill: #fff;"/>
    </g>
    <g id="g1555">
      <path id="path1557" d="M472.9663,721.179l2.1089-6.3266c3.7959,1.1247,7.1701,1.4059,10.6849,0,2.8118-.9841,4.2177-2.8118,3.3742-4.4989-.703-1.8277-2.1089-2.5306-7.7325-1.8277-7.0295.9841-11.5284.8435-14.059-5.2018v-.1406c-2.1089-5.6236.9841-11.1066,7.3107-13.4967,4.4989-1.8277,8.8572-1.8277,12.9343-.5624l-1.4059,6.4672c-3.0201-.9498-6.2589-.9498-9.279,0-2.6712,1.1247-3.5148,2.8118-2.9524,4.2177v.2812c.8435,2.1089,2.39,2.2494,8.2948,1.4059,6.8889-.703,11.2472.1406,13.3561,5.6236,2.39,6.186-.9841,11.5284-7.5919,14.059-4.8439,1.8493-10.1993,1.8493-15.0432,0" style="fill: #fff;"/>
    </g>
    <g id="g1559">
      <path id="path1561" d="M523.4384,686.8749l-9.4196-6.7483,1.9683,11.3878,7.4513-4.6395ZM506.5676,674.2217l5.6236-3.3742,29.9458,20.6668-6.6078,4.2177-6.4672-4.7801-11.9502,7.4513,1.4059,7.8731-6.3266,3.9365-5.6236-35.9912Z" style="fill: #fff;"/>
    </g>
    <g id="g1563">
      <path id="path1565" d="M607.2302,551.908v5.9048h-6.186l-.4218-9.8413,1.2653-4.9207,32.3358,8.4354-1.8277,7.0295-25.1657-6.6078Z" style="fill: #fff;"/>
    </g>
    <g id="g1567">
      <path id="path1569" d="M617.7745,513.2456c-2.9524-.2812-5.3424,1.6871-5.6236,5.3424-.4218,3.5148,1.4059,5.7642,4.2177,6.0454h.1406c2.9524.2812,5.2018-1.6871,5.6236-5.2018.2812-3.6554-1.5465-5.9048-4.3583-6.186M626.4911,514.2298c1.1247,1.9683,1.8277,4.2177,1.4059,7.0295-.5624,7.0295-5.0613,11.2472-11.669,10.6849h-.1406c-6.6078-.703-11.1066-6.3266-10.2631-13.7779.4218-4.4989,1.8277-7.0295,4.4989-9.1384,2.6712-2.2494,6.3266-3.3742,12.9343-2.8118,10.6849,1.4059,17.5738,7.0295,16.5897,16.5897-.3329,3.9771-2.1377,7.6869-5.0613,10.4037l-5.0613-4.3583c2.1089-2.2494,3.2336-4.2177,3.5148-7.0295.5624-4.9207-4.0771-6.8889-6.7483-7.4513" style="fill: #fff;"/>
    </g>
    <g id="g1571">
      <path id="path1573" d="M635.0671,492.86l-9.8413-10.4037c-3.6554-3.7959-5.6236-5.3424-8.4354-5.2018-2.6712.2812-4.0771,2.2494-3.7959,4.7801,0,2.5306,1.6871,4.2177,4.7801,6.4672l-3.6554,5.3424c-4.7801-2.8118-7.3107-5.9048-7.7325-11.8096-.5624-6.8889,3.2336-11.669,9.4196-12.0908,5.6236-.4218,8.4354,2.2494,13.4967,7.7325l4.3583,5.3424-.9841-14.4808,6.3266-.4218,1.6871,24.3222-5.6236.4218Z" style="fill: #fff;"/>
    </g>
    <g id="g1575">
      <path id="path1577" d="M631.8336,453.7758l-5.7642-3.7959c1.8277-2.8118,2.8118-5.483,1.9683-8.7166-.703-2.6712-2.8118-4.2177-5.0613-3.6554-2.9524.703-3.7959,3.5148-2.8118,7.5919l.703,2.8118-4.2177,2.2494-9.5602-5.7642,2.9524,12.6531-6.0454,1.4059-5.3424-21.7915,5.483-1.2653,9.7007,6.3266c-.2812-4.6395.9841-9.4196,7.0295-10.8255,6.0454-1.5465,11.669,1.8277,13.3561,8.9978,1.5465,5.6236.1406,10.2631-2.39,13.7779" style="fill: #fff;"/>
    </g>
  </g>
</svg>