<svg version="1.1" xmlns="http://www.w3.org/2000/svg" xmlns:xlink="http://www.w3.org/1999/xlink" x="0px" y="0px"
	 viewBox="0 0 800 800" style="enable-background:new 0 0 800 800;" xml:space="preserve">
<style type="text/css">
	.st0{fill:#FF0200;}
	.st1{fill:#FFFFFF;}
	.st2{fill:#C0A062;}
</style>
<g>
	<g>
		<path class="st0" d="M648.6,159.7c-23.7-34.9-119.8-59.8-193.1-69.1c0-3.1,0-7,0-11.3c0-10.2-8.3-18.5-18.5-18.5
			c-7.3,0-13.6,4.3-16.6,10.4c0-0.3,0-0.6,0-0.9c0-11.3-9.1-20.4-20.4-20.4c-11.3,0-20.4,9.1-20.4,20.4c0,0.3,0,0.6,0,0.9
			c-3-6.2-9.3-10.4-16.6-10.4c-10.2,0-18.5,8.3-18.5,18.5c0,4.3,0,8.2,0,11.3c-73.3,9.4-169.4,34.2-193.1,69.1
			c-1.8,2.7-2.6,5.9-2.5,9.1l23,385.3c0.9,15.4,8.6,29.7,20.9,39l206.7,156.2l0,0.7l0.4-0.3l0.4,0.3l0-0.7l206.7-156.2
			c12.3-9.3,20-23.6,20.9-39l23-385.3C651.2,165.6,650.4,162.4,648.6,159.7z"/>
		<path class="st1" d="M597.2,221.2c-10.8-17.2-35.6-10.7-35.6-10.7c-2.3-15.1-15.5-22.5-15.5-22.5c1.6,24.8-1.9,41.1-1.9,41.1
			c-11.3-15.9-27.9-27.2-27.9-27.2c-3.9,8.9-3.8,22.3-20.6,35.7c-19.6,15.6-54.7,10.9-54.7,10.9c-6.6,14-24.4,24.4-41,24.4
			c-16.6,0-34.4-10.5-41-24.4c0,0-35.1,4.8-54.7-10.9c-16.8-13.4-16.7-26.8-20.6-35.7c0,0-16.7,11.3-27.9,27.2
			c0,0-3.5-16.3-1.9-41.1c0,0-13.2,7.4-15.5,22.5c0,0-24.7-6.4-35.6,10.7c-1.4,2.2-2,4.8-1.9,7.4l12,313.3c0.3,7.7,3.2,15,8.3,20.8
			c21.9,25.2,88.2,91.7,178.8,91.7s156.9-66.5,178.8-91.7c5-5.8,8-13.2,8.3-20.8l12-313.3C599.3,226,598.6,223.4,597.2,221.2z"/>
		<g>
			<ellipse class="st1" cx="348.5" cy="175.5" rx="13.5" ry="8.7"/>
			<g>
				<path class="st1" d="M392,156.2v-44.9c0-4.2-3.4-7.5-7.5-7.5h-32.2c-4,0-6.5,4.4-4.5,7.8c6.1,10.2,18.5,28.8,37.9,47.3
					C388.1,161.1,392,159.4,392,156.2z"/>
				<path class="st1" d="M353.8,231.5c0-6.6,1.9-23.4,21.4-27.7c1.8-0.4,3.2-2,3.2-3.9c0-5-1.4-13.4-16.7-11
					c-22.5,3.6-38.9,27.4-10.2,43.9C352.6,233.4,353.8,232.6,353.8,231.5z"/>
				<path class="st1" d="M300.2,137.2c0.2-1.4,1.8-2,2.9-1.2c4.4,3.5,14.3,10.6,24.6,8.1c16.6-4.1,35.8-8,41.3,19.5
					c0.3,1.4-1.1,2.6-2.4,2.1c-5.6-1.9-18-5.7-25.2-4.2c-9.6,2-20.1,8.1-27.9,8.1C305.8,169.7,296.4,166.7,300.2,137.2z"/>
				<path class="st1" d="M175.3,219.7c-0.7,1,0.4,2.2,1.5,1.6c6.2-3.7,17.9-11.7,27.6-24.2c14-17.9-4.9-38.7-23.9-35.8
					c-18.9,2.9-23.1,12.1-23.7,21.7c-0.6,9.6,7.6,12.5,15.3,12.4c7.3-0.1,17.6-4.9,18.2-19.3c0-1,1.3-1.4,1.9-0.6
					c1.9,2.4,4.3,7.1,1.4,14.2C188.7,201.5,186.3,204.7,175.3,219.7z"/>
				<path class="st1" d="M408,156.2v-44.9c0-4.2,3.4-7.5,7.5-7.5h32.2c4,0,6.5,4.4,4.5,7.8c-6.1,10.2-18.5,28.8-37.9,47.3
					C411.9,161.1,408,159.4,408,156.2z"/>
				<path class="st1" d="M400,174c-12.4,0-19.1,13.4-19.1,13.4c12.5,6.1,19.1,18.9,19.1,18.9s6.6-12.8,19.1-18.9
					C419.1,187.4,412.4,174,400,174z"/>
				<path class="st1" d="M426.3,219.7c-2.6-0.9-6.6-1.7-13.6,6c-7,7.8-12.7,7.7-12.7,7.7s-5.7,0.1-12.7-7.7c-7-7.8-11.1-6.9-13.6-6
					c-5.1,1.9-4.9,15.4,1.2,24.4c6.1,9,14.8,14.8,25.2,14.8c10.3,0,19.1-5.8,25.2-14.8C431.3,235.2,431.4,221.6,426.3,219.7z"/>
				<path class="st1" d="M446.2,231.5c0-6.6-1.9-23.4-21.4-27.7c-1.8-0.4-3.2-2-3.2-3.9c0-5,1.4-13.4,16.7-11
					c22.5,3.6,38.9,27.4,10.2,43.9C447.4,233.4,446.2,232.6,446.2,231.5z"/>
				<ellipse class="st1" cx="451.5" cy="175.5" rx="13.5" ry="8.7"/>
				<path class="st1" d="M499.8,137.2c-0.2-1.4-1.8-2-2.9-1.2c-4.4,3.5-14.3,10.6-24.6,8.1c-16.6-4.1-35.8-8-41.3,19.5
					c-0.3,1.4,1.1,2.6,2.4,2.1c5.6-1.9,18-5.7,25.2-4.2c9.6,2,20.1,8.1,27.9,8.1C494.2,169.7,503.6,166.7,499.8,137.2z"/>
				<path class="st1" d="M624.7,219.7c0.7,1-0.4,2.2-1.5,1.6c-6.2-3.7-17.9-11.7-27.6-24.2c-14-17.9,4.9-38.7,23.9-35.8
					c18.9,2.9,23.1,12.1,23.7,21.7c0.6,9.6-7.6,12.5-15.3,12.4c-7.3-0.1-17.6-4.9-18.2-19.3c0-1-1.3-1.4-1.9-0.6
					c-1.9,2.4-4.3,7.1-1.4,14.2C611.3,201.5,613.7,204.7,624.7,219.7z"/>
				<path class="st1" d="M307.8,96.3L267,165.1c-1.7,2.8-4.7,4.6-8,4.6h-30.5c-5.5,0-14.4-1.9-15-17c-0.6-15.2,10.5-20.3,20.5-20.8
					c10-0.5,15,3.6,16,9.6c1,6-1.4,10.5-8.1,11.9c-1,0.2-1.8,0.4-2.5,0.6c-1.4,0.4-0.9,2.6,0.5,2.6h14.8c1.7,0,3.3-0.9,4.2-2.4
					l30.3-54.2C295.4,98.6,301.6,97.4,307.8,96.3z"/>
				<path class="st1" d="M586.5,152.6c-0.6,15.2-9.5,17-15,17h-30.5c-3.3,0-6.3-1.7-8-4.6l-40.9-68.8c6.2,1.1,12.4,2.3,18.6,3.6
					l30.3,54.2c0.8,1.5,2.4,2.4,4.2,2.4h14.8c1.5,0,2-2.2,0.5-2.6c-0.7-0.2-1.5-0.4-2.5-0.6c-6.7-1.4-9.1-6-8-11.9
					c1-6,6-10.1,16-9.6C576,132.3,587.1,137.5,586.5,152.6z"/>
			</g>
		</g>
		<circle class="st1" cx="363" cy="79.3" r="8.1"/>
		<circle class="st1" cx="437" cy="79.3" r="8.1"/>
		<circle class="st1" cx="400" cy="74.8" r="10.5"/>
		<g>
			<circle class="st1" cx="400.9" cy="692.9" r="23.1"/>
			<circle class="st1" cx="348.9" cy="678.3" r="16.6"/>
			<circle class="st1" cx="451.1" cy="678.3" r="16.6"/>
		</g>
	</g>
	<path class="st2" d="M400,367.1l9.9,19.4l33.2,65.3l30.4-53.6l58.8,111.3c0.1,0.2,0.2,0.3,0.2,0.4c0,0.2-0.3,0.8-0.5,0.9
		c0,0-0.2,0-0.4,0h-263c-0.2,0-0.4,0-0.4,0c-0.2-0.1-0.5-0.6-0.5-0.9c0,0,0-0.2,0.2-0.4l58.8-111.3l30.4,53.6l33.2-65.3L400,367.1
		 M400,280.3l-45,88.5l-29.7-52.4l-92.4,174.9c-14.2,26.8,5.3,59.1,35.6,59.1h263c30.3,0,49.8-32.3,35.6-59.1l-92.4-174.9L445,368.7
		L400,280.3L400,280.3z"/>
	<g>
		<circle cx="400" cy="541.5" r="105"/>
		<circle class="st1" cx="400" cy="541.5" r="98.9"/>
	</g>
	<g>
		<path d="M340.4,488.6v32.8l-19.8,27.2L308.3,536c1-16.7,6.4-32.2,15.2-45.4L340.4,488.6z"/>
		<path d="M383.3,617.2l-16.6,10h0c-14.4-5.6-27.1-14.8-37-26.4l0.8-19.6l32.6,10.8L383.3,617.2z"/>
		<path d="M491.7,536l-12.3,12.5l-19.8-27.2v-32.8l16.9,2.1C485.3,503.8,490.7,519.3,491.7,536z"/>
		<path d="M470.3,600.8c-9.8,11.6-22.5,20.8-37,26.4h0l-16.6-10l20.1-25.3l32.6-10.8L470.3,600.8z"/>
		<path d="M431.6,468.5l-31.6,9.3l-31.6-9.3l8.5-15.9c7.4-1.9,15.1-2.9,23.1-2.9s15.7,1,23.1,2.9L431.6,468.5z"/>
	</g>
	<polygon points="400,504.9 366,530.1 379.2,570.1 420.8,570.1 434,530.1 	"/>
	<g>
		<g>
			<path d="M207.5,285.8h20.7l0,6.9h-1c-0.3-2.5-1.3-4.2-2.8-5c-0.9-0.5-2.1-0.7-3.9-0.8V305c0,1.3,0.2,2.1,0.7,2.5s1.4,0.6,2.8,0.6
				v0.9h-12.2v-0.9c1.3,0,2.2-0.2,2.7-0.6s0.7-1.3,0.7-2.5v-18.1c-1.7,0-3,0.3-3.9,0.8c-1.6,0.9-2.6,2.6-2.8,5h-1L207.5,285.8z"/>
			<path d="M230.8,308.2c0.8-0.1,1.5-0.4,2-1.1c0.3-0.4,0.8-1.4,1.4-2.9l7.6-18.8h1l7.7,18.1c0.9,2,1.5,3.3,1.9,3.9
				c0.4,0.6,1,0.9,1.8,0.8v0.9h-11.1v-0.9c1.1,0,1.9-0.1,2.2-0.3c0.4-0.1,0.5-0.5,0.5-1.1c0-0.3-0.1-0.7-0.3-1.2
				c-0.1-0.3-0.3-0.7-0.5-1.2l-0.9-2.1h-7.7c-0.5,1.4-0.8,2.3-1,2.7c-0.3,0.9-0.5,1.5-0.5,1.9c0,0.5,0.3,0.9,1,1.1
				c0.4,0.1,1,0.2,1.8,0.2v0.9h-7V308.2z M243.7,300.9l-3.3-8h-0.3l-3.1,8H243.7z"/>
			<path d="M261.2,308.2c1,0,1.7-0.1,2.1-0.4c0.7-0.4,1-1,1-2.1v-16.6c0-1-0.3-1.7-1-2c-0.4-0.2-1.1-0.3-2.1-0.4v-0.9h12v0.9
				c-1.1,0-1.8,0.2-2.2,0.4c-0.7,0.3-1,1-1,2.1v16.6c0,1,0.3,1.6,0.8,1.9s1.3,0.5,2.4,0.5v0.9h-12V308.2z"/>
			<path d="M283.7,301h1c0.5,2.6,1.4,4.4,2.6,5.6c1.2,1.2,2.6,1.7,4.2,1.7c1.5,0,2.6-0.4,3.3-1.2c0.6-0.8,1-1.6,1-2.5
				c0-1-0.3-1.9-1-2.5c-0.4-0.4-1.3-1-2.7-1.7l-2.2-1.1c-2.2-1.1-3.7-2.2-4.6-3.3c-0.9-1.1-1.3-2.4-1.3-4c0-1.7,0.6-3.2,1.8-4.7
				c1.2-1.5,3-2.2,5.4-2.2c1.2,0,2.4,0.2,3.6,0.6c1.2,0.4,1.8,0.6,2,0.6c0.4,0,0.6-0.1,0.8-0.3c0.1-0.2,0.3-0.5,0.3-0.9h1v7.5h-1
				c-0.4-1.7-1.2-3.2-2.4-4.5c-1.1-1.3-2.5-1.9-4.1-1.9c-1.1,0-2,0.3-2.7,0.9c-0.7,0.6-1,1.4-1,2.3c0,1.1,0.3,1.9,0.9,2.4
				c0.6,0.5,2,1.4,4.1,2.4l2.5,1.3c1.1,0.6,2,1.2,2.7,1.9c1.3,1.3,1.9,2.9,1.9,4.7c0,1.7-0.7,3.4-2,4.9c-1.3,1.5-3.5,2.3-6.5,2.3
				c-0.7,0-1.4-0.1-2.1-0.2c-0.7-0.1-1.4-0.3-2.1-0.6l-0.7-0.3c-0.2,0-0.3-0.1-0.4-0.1c-0.1,0-0.3,0-0.4,0c-0.4,0-0.6,0.1-0.7,0.3
				c-0.1,0.2-0.2,0.5-0.3,0.9h-1V301z"/>
			<path d="M303.8,308.2c0.9,0,1.6-0.2,1.9-0.4c0.6-0.4,1-1,1-2v-16.6c0-1-0.3-1.6-0.9-2c-0.3-0.2-1-0.3-2-0.4v-0.9h11.6v0.9
				c-1,0.1-1.7,0.2-2.1,0.4c-0.6,0.4-1,1-1,2v7.1h8.2v-7.1c0-1-0.3-1.7-0.9-2c-0.4-0.2-1.1-0.4-2.1-0.4v-0.9h11.7v0.9
				c-1,0.1-1.7,0.2-2.1,0.4c-0.6,0.3-0.9,1-0.9,2v16.6c0,1,0.3,1.7,1,2c0.4,0.2,1,0.3,2,0.4v0.9h-11.7v-0.9c1,0,1.7-0.2,2.1-0.4
				c0.6-0.4,1-1,1-2v-7.9h-8.2v7.9c0,1,0.3,1.7,1,2.1c0.4,0.2,1.1,0.3,2,0.4v0.9h-11.6V308.2z"/>
			<path d="M329.4,308.2c0.8-0.1,1.5-0.4,2-1.1c0.3-0.4,0.8-1.4,1.4-2.9l7.6-18.8h1l7.7,18.1c0.9,2,1.5,3.3,1.9,3.9
				c0.4,0.6,1,0.9,1.8,0.8v0.9h-11.1v-0.9c1.1,0,1.9-0.1,2.2-0.3c0.4-0.1,0.5-0.5,0.5-1.1c0-0.3-0.1-0.7-0.3-1.2
				c-0.1-0.3-0.3-0.7-0.5-1.2l-0.9-2.1h-7.7c-0.5,1.4-0.8,2.3-1,2.7c-0.3,0.9-0.5,1.5-0.5,1.9c0,0.5,0.3,0.9,1,1.1
				c0.4,0.1,1,0.2,1.8,0.2v0.9h-7V308.2z M342.3,300.9l-3.3-8h-0.3l-3.1,8H342.3z"/>
			<path d="M354,308.2c1.3,0,2.1-0.3,2.5-0.7c0.4-0.5,0.6-1.1,0.6-2v-16.3c-1.1-1.2-1.7-1.9-1.9-2.1s-0.6-0.3-1-0.4v-0.9h7.3
				l11.8,14.4h0.2v-10.1c0-1.2-0.2-2-0.6-2.5c-0.4-0.5-1.3-0.8-2.5-0.9v-0.9h7.4v0.9c-1.1,0.2-1.8,0.4-2.2,0.7c-0.4,0.3-0.5,1-0.5,2
				v20.3h-1l-15.1-18.4h-0.2v13.5c0,1.1,0.1,1.8,0.4,2.2c0.5,0.7,1.4,1.1,2.8,1.1v0.9H354V308.2z"/>
		</g>
		<g>
			<path d="M425.2,288.8c2.3-2.4,5.2-3.6,8.8-3.6c1.4,0,2.9,0.3,4.3,0.8c1.4,0.5,2.3,0.8,2.7,0.8c0.4,0,0.7-0.1,0.9-0.4
				c0.2-0.3,0.4-0.7,0.6-1.2h1v8.1h-0.9c-0.8-1.8-1.7-3.1-2.5-4.2c-1.6-1.9-3.5-2.8-5.5-2.8c-2.2,0-3.9,1-4.9,2.9
				c-1,1.9-1.5,4.7-1.5,8.2c0,2.9,0.5,5.5,1.4,7.7c1,2.3,2.8,3.4,5.5,3.4c1.5,0,2.5-0.3,3-0.9c0.3-0.3,0.4-0.9,0.4-1.6v-3.6
				c0-1-0.3-1.7-1-2.1c-0.4-0.2-1.3-0.3-2.5-0.3v-0.9h11.9v0.9c-1.2,0-2,0.3-2.4,0.7c-0.4,0.4-0.6,1.2-0.6,2.4v4.4
				c-0.8,0.5-2,0.9-3.7,1.4c-1.7,0.5-3.6,0.7-5.7,0.7c-3.8,0-6.9-1.2-9.2-3.6c-2.1-2.3-3.2-5.1-3.2-8.5
				C421.9,294.1,423,291.2,425.2,288.8z"/>
			<path d="M448,309v-0.9c1,0,1.7-0.2,2.1-0.4c0.6-0.4,1-1,1-2V289c0-1-0.3-1.7-1-2c-0.4-0.2-1.1-0.3-2.1-0.4v-0.9h19.9v7h-0.8
				c-0.4-2.2-1.2-3.8-2.2-4.6c-1.1-0.8-3-1.2-5.7-1.2c-1.1,0-1.7,0.1-2,0.3s-0.4,0.7-0.4,1.3v8c2,0,3.3-0.3,4-1.1
				c0.7-0.7,1.2-2.1,1.6-4h0.9V303h-0.9c-0.2-2-0.8-3.4-1.5-4.2c-0.8-0.8-2.1-1.2-4.1-1.2v8.4c0,0.7,0.2,1.2,0.6,1.5
				s1.2,0.4,2.3,0.4c2.2,0,4-0.4,5.4-1.3s2.6-2.5,3.7-4.8h1l-1.4,7.2H448z"/>
			<path d="M471.4,308.1c1.3,0,2.1-0.3,2.5-0.7c0.4-0.5,0.6-1.1,0.6-2V289c-1.1-1.2-1.7-1.9-2-2.1s-0.6-0.3-1-0.4v-0.9h7.3
				l11.9,14.4h0.2v-10.2c0-1.2-0.2-2-0.6-2.5s-1.3-0.8-2.6-0.9v-0.9h7.4v0.9c-1.1,0.2-1.8,0.4-2.2,0.7c-0.4,0.3-0.5,1-0.5,2v20.4h-1
				l-15.2-18.5H476v13.6c0,1.1,0.1,1.8,0.4,2.3c0.5,0.7,1.4,1.1,2.8,1.2v0.9h-7.8V308.1z"/>
			<path d="M497,309v-0.9c1,0,1.7-0.2,2.1-0.4c0.6-0.4,1-1,1-2V289c0-1-0.3-1.7-1-2c-0.4-0.2-1.1-0.3-2.1-0.4v-0.9h19.9v7H516
				c-0.4-2.2-1.2-3.8-2.2-4.6s-3-1.2-5.7-1.2c-1.1,0-1.7,0.1-2,0.3s-0.4,0.7-0.4,1.3v8c2,0,3.3-0.3,4-1.1c0.7-0.7,1.2-2.1,1.6-4h0.9
				V303h-0.9c-0.2-2-0.8-3.4-1.5-4.2c-0.8-0.8-2.1-1.2-4.1-1.2v8.4c0,0.7,0.2,1.2,0.6,1.5s1.2,0.4,2.3,0.4c2.2,0,4-0.4,5.4-1.3
				c1.4-0.9,2.6-2.5,3.7-4.8h1l-1.4,7.2H497z"/>
			<path d="M520.3,308.1c1.2-0.1,2-0.3,2.4-0.7c0.4-0.4,0.6-1.2,0.6-2.5v-15.3c0-1.3-0.3-2.2-0.8-2.6c-0.3-0.3-1.1-0.5-2.3-0.6v-0.9
				h11.1c2.3,0,4.2,0.2,5.6,0.7c2.8,1,4.2,2.7,4.2,5.3c0,1.9-0.7,3.4-2.2,4.4c-1.1,0.8-2.3,1.3-3.5,1.6l7.3,9.8
				c0.2,0.3,0.4,0.4,0.6,0.5c0.2,0.1,0.5,0.1,0.8,0.2v0.8H537l-8.1-10.8h0v6.8c0,1.2,0.2,2,0.6,2.5c0.4,0.4,1.2,0.7,2.4,0.7v0.9
				h-11.7V308.1z M533.8,296.1c1-0.6,1.5-2,1.5-4.2c0-1.3-0.2-2.4-0.6-3.2c-0.6-1.3-1.8-2-3.5-2c-0.9,0-1.5,0.1-1.8,0.3
				c-0.3,0.2-0.4,0.6-0.4,1.1v8.8C531.2,297.1,532.8,296.8,533.8,296.1z"/>
			<path d="M545,308.1c0.8-0.1,1.5-0.4,2-1.1c0.3-0.4,0.8-1.4,1.4-2.9l7.7-18.9h1l7.7,18.2c0.9,2,1.5,3.4,1.9,3.9
				c0.4,0.6,1,0.9,1.8,0.9v0.9h-11.2v-0.9c1.1,0,1.9-0.1,2.2-0.3c0.4-0.1,0.5-0.5,0.5-1.1c0-0.3-0.1-0.7-0.3-1.2
				c-0.1-0.3-0.3-0.7-0.5-1.2l-0.9-2.1h-7.8c-0.5,1.4-0.8,2.3-1,2.7c-0.3,0.9-0.5,1.5-0.5,1.9c0,0.5,0.3,0.9,1,1.1
				c0.4,0.1,1,0.2,1.8,0.2v0.9H545V308.1z M558,300.9l-3.3-8h-0.3l-3.1,8H558z"/>
			<path d="M570.6,308.1c0.9,0,1.6-0.2,2-0.4c0.7-0.4,1-1,1-2.1V289c0-1-0.3-1.7-1-2c-0.4-0.2-1.1-0.3-2.1-0.4v-0.9h12.1v0.9
				c-1.4,0-2.3,0.2-2.8,0.6c-0.5,0.3-0.7,1.2-0.7,2.6V306c0,0.8,0.2,1.3,0.6,1.5s1.2,0.4,2.3,0.4c2.1,0,3.8-0.5,5.2-1.4
				c1.4-0.9,2.6-2.7,3.7-5.4h1l-1.4,7.8h-20V308.1z"/>
		</g>
	</g>
</g>
</svg>
