<svg version="1.1" xmlns="http://www.w3.org/2000/svg" xmlns:xlink="http://www.w3.org/1999/xlink" x="0px" y="0px"
	 viewBox="0 0 800 800" enable-background="new 0 0 800 800" xml:space="preserve">
<path fill="#052490" d="M386.1,478.6c0,1.1-0.9,1.9-1.9,1.9h-4.8c-1.1,0-1.9-0.9-1.9-1.9v-8.7c0-1.1,0.9-1.9,1.9-1.9h4.8
	c1.1,0,1.9,0.9,1.9,1.9V478.6z M412.4,501.2h4.8c1.1,0,1.9-0.9,1.9-1.9v-8.6c0-1.1-0.9-1.9-1.9-1.9h-4.8c-1.1,0-1.9,0.9-1.9,1.9v8.6
	C410.4,500.4,411.3,501.2,412.4,501.2z M412.4,480.3h4.8c1.1,0,1.9-0.9,1.9-1.9v-8.6c0-1.1-0.9-1.9-1.9-1.9h-4.8
	c-1.1,0-1.9,0.9-1.9,1.9v8.6C410.4,479.5,411.3,480.3,412.4,480.3z M750,400c0,193.3-156.7,350-350,350S50,593.3,50,400
	S206.7,50,400,50S750,206.7,750,400z M249.4,228c0,60.4,49,109.4,109.4,109.4c60.4,0,109.4-49,109.4-109.4s-49-109.4-109.4-109.4
	C298.4,118.6,249.4,167.6,249.4,228z M454.9,484.8c3.2,0,5.7-2.6,5.7-5.7v-12c0-4.2-3.4-7.6-7.6-7.6H435v8.6h15.2
	c1.1,0,1.9,0.9,1.9,1.9v8.7c0,1.1-0.9,1.9-1.9,1.9h-7.6v4.3v4.3h7.6c1.1,0,1.9,0.9,1.9,1.9v8.7c0,1.1-0.9,1.9-1.9,1.9H435v8.6H453
	c4.2,0,7.6-3.4,7.6-7.6v-12C460.7,487.3,458.1,484.8,454.9,484.8z M421.9,484.6c3.2,0,5.7-2.6,5.7-5.7V467c0-4.2-3.4-7.6-7.6-7.6
	h-10.5c-4.2,0-7.6,3.4-7.6,7.6v11.9c0,3.2,2.6,5.7,5.7,5.7c-3.2,0-5.7,2.6-5.7,5.7v11.9c0,4.2,3.4,7.6,7.6,7.6H420
	c4.2,0,7.6-3.4,7.6-7.6v-11.9C427.6,487.2,425,484.6,421.9,484.6z M386.1,489v10.3c0,1.1-0.9,1.9-1.9,1.9h-14.3v8.6H387
	c4.2,0,7.6-3.4,7.6-7.6V467c0-4.2-3.4-7.6-7.6-7.6h-10.5c-4.2,0-7.6,3.4-7.6,7.6v14.4c0,4.2,3.4,7.6,7.6,7.6H386.1z M74.7,470.9
	l160.7-169.3c-14.2-26.2-16.6-54.8-16.7-69.4L67.2,391.7c-0.1,2.7-0.1,5.5-0.1,8.3C67.1,424.3,69.7,448.1,74.7,470.9z M101,546.4
	L287.4,350c-9.3-4.6-18.2-10.5-26.8-17.5c-7.8-6.3-14.1-13.5-19.3-21L77.8,483.8C83.4,505.7,91.2,526.6,101,546.4z M732.9,400
	c0-183.8-149-332.9-332.9-332.9c-27,0-53.3,3.2-78.5,9.3c8.9-1,17.8-1.5,27-1.5c136,0,246.3,110.3,246.3,246.3
	S484.5,567.6,348.5,567.6c-49.2,0-95-14.4-133.5-39.3l160.9-169.5c-27.8,6.9-53.8,5.3-77.6-4L106.4,556.9
	c9.6,17.9,20.8,34.9,33.4,50.7l0,0c61,76.4,154.9,125.3,260.2,125.3C583.8,732.9,732.9,583.8,732.9,400z M353.5,469.9v39.9h8.6V468
	v-1c0-4.2-3.4-7.6-7.6-7.6h-1h-6.7v8.6h4.8C352.7,468,353.5,468.8,353.5,469.9z M358.8,128.2c-55.2,0-99.9,44.7-99.9,99.9
	s44.7,99.9,99.9,99.9s99.9-44.7,99.9-99.9S413.9,128.2,358.8,128.2 M358.8,126.2c27.2,0,52.7,10.6,72,29.8s29.8,44.8,29.8,72
	s-10.6,52.7-29.8,72c-19.2,19.2-44.8,29.8-72,29.8s-52.7-10.6-72-29.8c-19.2-19.2-29.8-44.8-29.8-72s10.6-52.7,29.8-72
	C306,136.8,331.6,126.2,358.8,126.2L358.8,126.2z M414.5,287.3c-6.1,5.8-19.4,11-40.9,15.3c0,0,26.1-1.9,38.1-8.4
	c12.5-6.9,9.6-16.1,9.5-26.4C421.2,267.7,419.5,282.5,414.5,287.3z M456.7,228c0,54.1-43.9,98-98,98c-54.1,0-98-43.9-98-98
	s43.9-98,98-98C412.9,130.1,456.7,173.9,456.7,228z M387.3,179.1c4.4,1.6,13.7,4.7,20.6,9.7c6.9,5,8,4.7,12.8,3.4
	c4.7-1.4,10.4-4.5,10.5-6.2c0.1-1.7-2.2-17.3-4.7-20.9c-2.5-3.6-13.8-11.7-20.9-16.7c-7.1-5-11-3.1-13.6-2c-2.6,1.1-13.3,4-13.3,4
	C378.1,159.7,382.9,177.5,387.3,179.1z M381.5,180.8c-7.3,0.2-15.3,14.9-15.3,14.9s12.7-11.7,14.5-11.9c1.9-0.2,4.3-1,19.9,6.3
	C400.6,190.1,388.8,180.7,381.5,180.8z M350.6,136.3c13.1-0.1,28,1.7,28,1.7C368.2,132.5,350.6,136.3,350.6,136.3z M280.3,180.6
	c2.8-1.4,18.7-8.1,18.7-8.1c8.1-12.5,27.2-22.3,27.2-22.3c-14.5,10.6-25.6,21.8-25.3,25c0.3,3.2,4.3,18.3,6.5,21.8
	c2.2,3.5,22.8,6.2,31.3,6.6c8.5,0.5,14.1-1.7,14.1-1.7c3.6-4.3,24.7-24,24.7-24v-7.9l4.1,5.5c-3.2-3.8-5.6-24.9-5.6-24.9
	c-22-5-29.5-8.6-29.5-8.6V137C297.7,144.9,280.3,180.6,280.3,180.6z M294.4,180c-3.4-0.6-11.6,4.6-11.6,4.6c5.5-1.9,9.7-1.7,11-1.7
	c1.3,0,7.2,14.5,7.2,14.5C299.9,188.4,297.8,180.6,294.4,180z M304.3,281.6c0,0-15.6-24.7-19-35.6c-3.4-11-3.8-11-12-11.8
	C273.3,234.2,280.3,263.3,304.3,281.6z M354.6,267.3c8.5-12.2,12.5-23.2,12.2-25.8c-0.3-2.5-4-7.9-6.8-12.5s-6.2-15.7-9.6-19.7
	c-3.4-4-29.1-4.9-33.1-5.1c-9.3-0.4-11.4,0.9-12.7,3.3c-1.3,2.4-10.3,17.7-12.2,20.7c-1.9,3-4.6,3.8-3.8,15.3
	c0.8,11.5,10.4,26.7,19.5,35.1s12.2,6.5,24.4,5.7C344.6,283.6,346.1,279.5,354.6,267.3z M424.1,254.6c-1.5-3-11.8-19.1-19.2-16.4
	c-7.4,2.7-27.6,4.6-31.2,4.9c-4,0.3-19,28.5-20.9,32.5c-1.9,4-5.3,9.9-1.1,13.1c4.2,3.2,14.3,16.2,14.3,16.2s7.6,1.9,26.6-2.3
	c19-4.2,27.8-12.4,28.9-19C422.6,277,425.6,257.6,424.1,254.6z M451.1,237.1c0.5-3.8,0.5-22.1-1.3-24.8
	c-1.7-2.7-15.5-22.3-18.7-22.1c-3.2,0.2-13.6,6.9-14.2,9.3c-0.5,1.9-0.5,12.8-1.6,17.4c-1.1,4.6-3.3,10.9-2.1,16.3
	c1.3,5.4,11.7,17.9,13.8,20.6c2.1,2.7,6-1.1,9.6-4.6C440.3,245.6,450.6,240.9,451.1,237.1z M261.9,581.9c5.4,4.2,6.3,12,2.1,17.4
	l-32.8,42c-4.2,5.4-12,6.3-17.4,2.1l-23.2-18.2l48-61.5L261.9,581.9z M223.2,631.4l29.3-37.5c1-1.2,0.8-3-0.5-4l-9-7
	c-1.2-1-3-0.8-4,0.5l-29.3,37.5c-1,1.2-0.8,3,0.5,4l9,7C220.4,632.9,222.2,632.6,223.2,631.4z M284.9,597.9l15.9,6.3
	c6.4,2.5,9.5,9.7,7,16l-24,61.1l-11.5-4.5l12-30.5l-15.9-6.3l-12,30.5l-11.5-4.5l24-61.1C271.4,598.5,278.5,595.4,284.9,597.9z
	 M294.9,619.2c0.8-2-0.2-4.2-2.1-4.9l-8.9-3.5c-2-0.8-4.2,0.2-4.9,2.1l-6.1,15.5l15.9,6.3L294.9,619.2z M320.3,675.1l8.6-62.2
	l-12.2-1.7l-9,65c-0.9,6.8,3.8,13,10.5,13.9l22.6,3.5l1.7-12.2l-19.8-3.1C321.2,678.1,320.1,676.6,320.3,675.1z M372.2,617.2h-12.4
	v78h12.4V617.2z M457.4,604.4l13.4,43.3l-29.7-38.2l-11.8,3.7l23,74.5l11.8-3.7l-13.4-43.3l29.7,38.2l11.8-3.7l-23-74.5L457.4,604.4
	z M604.6,553.2c3.7-4.4,10.3-5,14.7-1.3l21.8,18.4l-8,9.5l-21.5-18.1c-2-1.7-5-1.4-6.7,0.6l-8,9.5l25.1,21.2l-8,9.5L554.5,552
	l19-22.5c4.4-5.2,12.2-5.9,17.4-1.5l12.4,10.4C607.8,542.1,608.3,548.7,604.6,553.2z M587.6,563.7l6.1-7.3c2.7-3.2,2.3-8-0.9-10.7
	l-6.9-5.8c-1.6-1.4-4-1.2-5.4,0.5l-8.6,10.2L587.6,563.7z M394.3,617.3l17-1.7c6.8-0.7,12.9,4.2,13.6,11l6.7,65.3l-12.3,1.3
	l-3.3-32.6l-17,1.7l3.3,32.6l-12.3,1.3l-6.7-65.3C382.6,624.1,387.5,618,394.3,617.3z M413,631.7c-0.2-2.1-2.1-3.6-4.2-3.4l-9.5,1
	c-2.1,0.2-3.6,2.1-3.4,4.2l1.7,16.6l17-1.7L413,631.7z M539.4,562.3c5.4-4.2,13.1-3.3,17.4,2l18.3,23.1c4.2,5.4,3.3,13.1-2,17.4
	l-13.4,10.6l14.7,18.7l-9.7,7.7l-48.4-61.2L539.4,562.3z M562.9,592.1L549.4,575c-1.3-1.6-3.7-1.9-5.3-0.6l-7.5,5.9
	c-1.6,1.3-1.9,3.7-0.6,5.3l13.6,17.2c1.3,1.6,3.7,1.9,5.3,0.6l7.5-5.9C564,596.2,564.3,593.8,562.9,592.1z M590.7,504.9l7.6-15.3
	c3-6.1,10.5-8.6,16.6-5.6l47.7,23.7c6.1,3,8.6,10.5,5.6,16.6l-7.6,15.3c-3,6.1-10.5,8.6-16.6,5.6l-47.7-23.7
	C590.2,518.4,587.7,511,590.7,504.9z M653.7,517l-40.9-20.3c-1.9-0.9-4.2-0.2-5.1,1.7l-4.2,8.5c-0.9,1.9-0.2,4.2,1.7,5.1l40.9,20.3
	c1.9,0.9,4.2,0.2,5.1-1.7l4.2-8.5C656.4,520.2,655.6,518,653.7,517z"/>
<g>
</g>
<g>
</g>
<g>
</g>
<g>
</g>
<g>
</g>
<g>
</g>
<g>
</g>
<g>
</g>
<g>
</g>
<g>
</g>
<g>
</g>
</svg>
