<?xml version="1.0" encoding="utf-8"?>
<!-- Created by @FCLOGO 2024-10-1 GMT+8 22:29:06 . https://fclogo.top/ -->
<!-- FOR PERSONAL USE ONLY NOT FOR COMMERCIAL USE -->
<svg version="1.1" xmlns="http://www.w3.org/2000/svg" xmlns:xlink="http://www.w3.org/1999/xlink" x="0px" y="0px"
	 viewBox="0 0 800 800" style="enable-background:new 0 0 800 800;" xml:space="preserve">
<path style="fill:#CCCCCC;" d="M348.22,774.3c-0.79,0-1.38-0.22-1.77-0.65c-0.39-0.44-0.53-1.03-0.41-1.79l0.25-1.65
	c0.12-0.75,0.45-1.35,0.98-1.78c0.53-0.44,1.19-0.65,1.98-0.65c0.76,0,1.33,0.2,1.72,0.6c0.39,0.4,0.55,0.94,0.47,1.62h-1.24
	c0.03-0.36-0.06-0.64-0.26-0.84c-0.2-0.2-0.5-0.3-0.89-0.3c-0.42,0-0.76,0.12-1.03,0.35c-0.27,0.23-0.43,0.56-0.5,0.99l-0.26,1.66
	c-0.07,0.44-0.01,0.77,0.19,1c0.19,0.23,0.5,0.35,0.92,0.35c0.39,0,0.72-0.1,0.98-0.3c0.26-0.2,0.44-0.48,0.52-0.85h1.24
	c-0.14,0.69-0.47,1.23-0.99,1.63C349.61,774.1,348.97,774.3,348.22,774.3z M352.8,774.19l1-6.29h1.19l-0.19,1.19
	c0.34-0.87,0.97-1.3,1.91-1.3c0.67,0,1.17,0.21,1.49,0.62c0.32,0.42,0.43,0.99,0.31,1.71l-0.07,0.42h-1.27l0.06-0.32
	c0.07-0.45,0.01-0.8-0.17-1.04c-0.18-0.24-0.48-0.36-0.88-0.36c-0.4,0-0.74,0.12-1.01,0.37c-0.27,0.24-0.43,0.59-0.5,1.03
	l-0.63,3.97H352.8z M361.91,774.3c-0.77,0-1.35-0.22-1.73-0.67c-0.38-0.45-0.51-1.04-0.4-1.77l0.25-1.65
	c0.08-0.49,0.26-0.92,0.52-1.28c0.26-0.37,0.6-0.65,1.01-0.85c0.41-0.2,0.87-0.3,1.38-0.3c0.77,0,1.35,0.22,1.73,0.67
	c0.39,0.45,0.52,1.04,0.39,1.77l-0.17,1.12h-3.85l-0.09,0.53c-0.15,0.95,0.22,1.43,1.11,1.43c0.72,0,1.17-0.25,1.37-0.74h1.22
	c-0.17,0.53-0.5,0.96-1.01,1.28C363.16,774.14,362.58,774.3,361.91,774.3z M361.23,770.22l-0.05,0.29l2.65-0.01l0.05-0.29
	c0.07-0.47,0.01-0.82-0.17-1.07c-0.18-0.25-0.49-0.37-0.92-0.37c-0.44,0-0.8,0.13-1.06,0.38
	C361.48,769.39,361.31,769.75,361.23,770.22z M368.33,774.3c-0.63,0-1.1-0.21-1.41-0.64c-0.31-0.42-0.4-1-0.27-1.73l0.27-1.77
	c0.11-0.73,0.39-1.31,0.84-1.74c0.44-0.43,0.98-0.64,1.61-0.64c0.47,0,0.83,0.12,1.09,0.35c0.26,0.24,0.39,0.56,0.38,0.96h0.02
	l0.17-1.2h1.24l-1,6.29h-1.22l0.19-1.2h-0.02c-0.12,0.41-0.35,0.73-0.69,0.97C369.2,774.18,368.8,774.3,368.33,774.3z
	 M368.93,773.23c0.39,0,0.72-0.12,0.98-0.36c0.26-0.24,0.43-0.57,0.5-1.01l0.25-1.65c0.07-0.43,0.01-0.76-0.18-1
	c-0.19-0.24-0.47-0.36-0.86-0.36c-0.4,0-0.72,0.12-0.98,0.35c-0.26,0.24-0.42,0.57-0.49,1.01l-0.25,1.65
	c-0.07,0.44-0.01,0.78,0.17,1.01C368.24,773.11,368.53,773.23,368.93,773.23z M376.35,774.19c-0.57,0-0.99-0.16-1.26-0.47
	c-0.27-0.31-0.36-0.75-0.27-1.32l0.54-3.39h-1.74l0.17-1.12h1.74l0.27-1.72h1.24l-0.27,1.72h2.47l-0.18,1.12h-2.46l-0.54,3.39
	c-0.08,0.44,0.1,0.66,0.53,0.66h1.72l-0.17,1.12H376.35z M382.5,774.3c-0.77,0-1.35-0.22-1.73-0.67c-0.38-0.45-0.52-1.04-0.4-1.77
	l0.25-1.65c0.08-0.49,0.26-0.92,0.52-1.28c0.26-0.37,0.6-0.65,1.01-0.85c0.41-0.2,0.87-0.3,1.38-0.3c0.77,0,1.35,0.22,1.73,0.67
	c0.39,0.45,0.52,1.04,0.39,1.77l-0.17,1.12h-3.85l-0.09,0.53c-0.15,0.95,0.22,1.43,1.11,1.43c0.72,0,1.17-0.25,1.37-0.74h1.22
	c-0.17,0.53-0.5,0.96-1.01,1.28C383.76,774.14,383.18,774.3,382.5,774.3z M381.83,770.22l-0.05,0.29l2.65-0.01l0.05-0.29
	c0.07-0.47,0.01-0.82-0.17-1.07c-0.18-0.25-0.49-0.37-0.92-0.37c-0.44,0-0.8,0.13-1.06,0.38
	C382.08,769.39,381.91,769.75,381.83,770.22z M388.92,774.3c-0.63,0-1.1-0.21-1.4-0.64c-0.3-0.42-0.39-1-0.28-1.73l0.27-1.77
	c0.11-0.73,0.39-1.31,0.84-1.74c0.44-0.43,0.98-0.64,1.61-0.64c0.47,0,0.83,0.12,1.09,0.35c0.26,0.24,0.39,0.56,0.38,0.96h0.02
	l0.21-1.47l0.3-1.8h1.24l-1.33,8.35h-1.22l0.19-1.2h-0.02c-0.12,0.41-0.35,0.73-0.69,0.97C389.8,774.18,389.4,774.3,388.92,774.3z
	 M389.53,773.23c0.39,0,0.72-0.12,0.98-0.36c0.26-0.24,0.43-0.57,0.5-1.01l0.25-1.65c0.08-0.43,0.02-0.76-0.17-1
	c-0.19-0.24-0.48-0.36-0.87-0.36c-0.4,0-0.72,0.12-0.98,0.35c-0.26,0.24-0.42,0.57-0.49,1.01l-0.25,1.65
	c-0.08,0.44-0.02,0.78,0.16,1.01C388.83,773.11,389.13,773.23,389.53,773.23z M401.02,774.3c-0.47,0-0.84-0.12-1.1-0.35
	c-0.26-0.23-0.39-0.56-0.38-0.97h-0.01l-0.19,1.2h-1.22l1.33-8.35h1.24l-0.29,1.8l-0.27,1.47h0.05c0.12-0.41,0.35-0.73,0.69-0.97
	c0.34-0.23,0.74-0.35,1.21-0.35c0.63,0,1.1,0.21,1.4,0.64c0.3,0.43,0.39,1.01,0.28,1.74l-0.27,1.77c-0.11,0.73-0.39,1.31-0.84,1.73
	C402.18,774.09,401.64,774.3,401.02,774.3z M400.77,773.23c0.4,0,0.72-0.12,0.98-0.35c0.26-0.23,0.42-0.57,0.5-1.01l0.25-1.65
	c0.07-0.43,0.01-0.77-0.17-1.01c-0.18-0.24-0.47-0.35-0.87-0.35c-0.39,0-0.72,0.12-0.98,0.36c-0.26,0.24-0.43,0.57-0.5,1l-0.25,1.65
	c-0.07,0.44-0.01,0.77,0.17,1.01C400.08,773.11,400.37,773.23,400.77,773.23z M405.47,776.25l0.17-1.06h1.93
	c0.64,0,1.01-0.3,1.1-0.9l0.1-0.67l0.21-1.19h-0.03c-0.12,0.42-0.35,0.74-0.68,0.97c-0.33,0.23-0.73,0.34-1.2,0.34
	c-0.63,0-1.09-0.2-1.4-0.6c-0.31-0.4-0.41-0.94-0.3-1.63l0.58-3.6h1.24l-0.56,3.48c-0.06,0.41,0,0.73,0.18,0.96
	c0.18,0.23,0.47,0.34,0.85,0.34c0.39,0,0.72-0.12,0.98-0.37c0.27-0.24,0.43-0.58,0.49-1.02l0.54-3.4h1.24l-1.01,6.41
	c-0.1,0.6-0.37,1.08-0.81,1.42c-0.44,0.35-1,0.52-1.67,0.52H405.47z M417.79,770.09h3.22l0.54-1.85h-5.47l-1.71,6.44h2.15l0.59-2.1
	h3.03l0.44-1.71h-3.03L417.79,770.09z M424.23,772.92c-0.59,0-1.02-0.39-1.02-1.12c0-0.88,0.63-1.76,1.61-1.76
	c0.49,0,0.88,0.24,1.02,0.78l1.95-0.83c-0.29-1.17-1.27-1.9-2.64-1.9c-2.78,0-4.15,2.15-4.15,3.9c0,1.76,1.27,2.83,3.07,2.83
	c1.37,0,2.34-0.59,2.98-1.42l-1.51-1.17C425.16,772.67,424.72,772.92,424.23,772.92z M430.91,768.23h-2.15l-1.76,6.44h5.12
	l0.49-1.85h-2.93L430.91,768.23z M439.75,771.01c0-1.66-1.32-2.93-3.22-2.93c-2.2,0-3.81,1.81-3.81,3.81c0,1.66,1.32,2.93,3.22,2.93
	C438.14,774.82,439.75,773.01,439.75,771.01z M434.92,771.7c0-0.83,0.59-1.71,1.51-1.71c0.78,0,1.17,0.54,1.17,1.22
	c0,0.83-0.59,1.71-1.51,1.71C435.31,772.92,434.92,772.38,434.92,771.7z M443.21,772.23h1.07l-0.2,0.68
	c-0.15,0.05-0.34,0.1-0.59,0.1c-0.68,0-1.27-0.39-1.27-1.22c0-1.02,0.73-1.9,1.95-1.9c0.59,0,1.12,0.24,1.51,0.59l1.37-1.37
	c-0.44-0.54-1.51-1.07-2.73-1.07c-2.59,0-4.29,1.76-4.29,3.86c0,2.05,1.61,2.88,3.22,2.88c0.93,0,1.85-0.29,2.49-0.68l0.93-3.32
	h-3.12L443.21,772.23z M450.78,768.08c-2.2,0-3.81,1.81-3.81,3.81c0,1.66,1.32,2.93,3.22,2.93c2.2,0,3.81-1.81,3.81-3.81
	C454,769.35,452.68,768.08,450.78,768.08z M450.34,772.92c-0.78,0-1.17-0.54-1.17-1.22c0-0.83,0.59-1.71,1.51-1.71
	c0.78,0,1.17,0.54,1.17,1.22C451.85,772.04,451.27,772.92,450.34,772.92z M437.94,767.5c-0.05,0.29,0.1,0.49,0.44,0.49
	s0.54-0.2,0.63-0.49c0.05-0.24-0.1-0.49-0.44-0.49C438.24,767.01,437.99,767.25,437.94,767.5z M432.13,765.5
	c-0.44,0-0.73,0.24-0.78,0.59c-0.05,0.34,0.1,0.59,0.54,0.59s0.73-0.24,0.78-0.59C432.77,765.74,432.57,765.5,432.13,765.5z
	 M433.01,767.3c-0.1,0.54,0.15,0.88,0.83,0.88c0.63,0,1.07-0.39,1.17-0.88s-0.15-0.88-0.83-0.88
	C433.5,766.43,433.11,766.82,433.01,767.3z M439.6,777.55l-2.44-1.81h-1.51l4.25,3.17l1.61-3.17h-0.98L439.6,777.55z M425.84,767.16
	l-2-1.46l23.13-2.78l-2.15,4.25h1.02l2.68-5.32l-26.99,3.22l2.78,2.1H425.84z M338.72,785.79l0.61-3.83h2.32l-0.08,0.52h-1.76
	l-0.18,1.14h1.63l-0.08,0.52h-1.62l-0.26,1.64H338.72z M342.97,785.84c-0.36,0-0.62-0.1-0.8-0.3c-0.17-0.2-0.23-0.47-0.18-0.82
	l0.27-1.7c0.06-0.34,0.2-0.61,0.44-0.82c0.24-0.2,0.54-0.3,0.89-0.3c0.36,0,0.62,0.1,0.8,0.3c0.17,0.2,0.24,0.47,0.18,0.81
	l-0.27,1.71c-0.06,0.34-0.2,0.62-0.44,0.82C343.63,785.74,343.33,785.84,342.97,785.84z M343.05,785.33c0.19,0,0.35-0.05,0.47-0.16
	c0.12-0.11,0.19-0.26,0.23-0.46l0.27-1.7c0.03-0.2,0.01-0.35-0.08-0.46c-0.08-0.11-0.22-0.16-0.41-0.16s-0.35,0.05-0.46,0.16
	c-0.12,0.1-0.19,0.26-0.22,0.46l-0.27,1.7c-0.03,0.2-0.01,0.35,0.08,0.46C342.72,785.28,342.86,785.33,343.05,785.33z M345,785.79
	l0.61-3.83h1.2c0.24,0,0.44,0.05,0.6,0.14c0.16,0.09,0.28,0.22,0.36,0.39c0.07,0.17,0.09,0.37,0.05,0.59
	c-0.04,0.26-0.14,0.48-0.3,0.67c-0.16,0.19-0.37,0.32-0.6,0.39l0.54,1.64h-0.62l-0.48-1.57h-0.54l-0.25,1.57H345z M345.89,783.71
	h0.64c0.19,0,0.35-0.06,0.48-0.17c0.13-0.11,0.21-0.26,0.24-0.45c0.03-0.19,0-0.35-0.09-0.46c-0.09-0.11-0.24-0.17-0.43-0.17h-0.64
	L345.89,783.71z M349.54,785.79l0.61-3.83h1.25c0.37,0,0.65,0.1,0.84,0.31c0.19,0.21,0.26,0.49,0.2,0.84
	c-0.04,0.23-0.12,0.44-0.25,0.61s-0.29,0.31-0.49,0.4c-0.2,0.09-0.42,0.14-0.66,0.14h-0.69l-0.24,1.52H349.54z M350.43,783.75h0.69
	c0.19,0,0.36-0.06,0.49-0.18c0.14-0.12,0.22-0.27,0.25-0.47c0.03-0.2,0-0.35-0.1-0.47c-0.1-0.12-0.25-0.18-0.44-0.18h-0.69
	L350.43,783.75z M352.75,785.79l0.61-3.83h2.25l-0.08,0.5h-1.7l-0.17,1.09h1.51l-0.08,0.5h-1.51l-0.19,1.24h1.69l-0.08,0.5H352.75z
	 M355.84,785.79l0.61-3.83h1.2c0.24,0,0.44,0.05,0.6,0.14c0.16,0.09,0.28,0.22,0.36,0.39c0.07,0.17,0.09,0.37,0.05,0.59
	c-0.04,0.26-0.14,0.48-0.3,0.67c-0.16,0.19-0.37,0.32-0.6,0.39l0.54,1.64h-0.62l-0.48-1.57h-0.54l-0.25,1.57H355.84z M356.74,783.71
	h0.64c0.19,0,0.35-0.06,0.48-0.17c0.13-0.11,0.21-0.26,0.24-0.45c0.03-0.19,0-0.35-0.09-0.46c-0.09-0.11-0.24-0.17-0.43-0.17h-0.64
	L356.74,783.71z M360.13,785.84c-0.39,0-0.67-0.1-0.87-0.29c-0.19-0.19-0.26-0.45-0.22-0.78h0.57c-0.03,0.17,0.01,0.31,0.12,0.41
	c0.11,0.1,0.27,0.15,0.48,0.15c0.2,0,0.37-0.05,0.5-0.15c0.13-0.1,0.21-0.23,0.24-0.4c0.02-0.15,0-0.28-0.06-0.39
	c-0.06-0.11-0.16-0.18-0.29-0.22l-0.46-0.14c-0.27-0.08-0.46-0.22-0.59-0.41c-0.13-0.19-0.17-0.42-0.13-0.68
	c0.04-0.21,0.11-0.39,0.23-0.55c0.12-0.16,0.27-0.28,0.46-0.37c0.19-0.09,0.4-0.13,0.64-0.13c0.35,0,0.62,0.1,0.8,0.29
	c0.18,0.19,0.25,0.44,0.2,0.76h-0.57c0.03-0.17,0-0.3-0.09-0.4c-0.09-0.1-0.23-0.14-0.42-0.14c-0.19,0-0.34,0.04-0.46,0.13
	c-0.12,0.09-0.19,0.21-0.21,0.38c-0.02,0.15-0.01,0.28,0.05,0.39c0.06,0.11,0.16,0.18,0.29,0.22l0.47,0.15
	c0.26,0.08,0.46,0.22,0.58,0.41c0.12,0.19,0.17,0.42,0.12,0.69c-0.04,0.22-0.12,0.41-0.24,0.57c-0.13,0.16-0.29,0.29-0.49,0.38
	C360.6,785.79,360.38,785.84,360.13,785.84z M363.27,785.84c-0.36,0-0.62-0.1-0.8-0.3c-0.17-0.2-0.23-0.47-0.18-0.82l0.27-1.7
	c0.06-0.34,0.2-0.61,0.44-0.82c0.24-0.2,0.54-0.3,0.89-0.3c0.36,0,0.62,0.1,0.8,0.3c0.17,0.2,0.24,0.47,0.18,0.81l-0.27,1.71
	c-0.06,0.34-0.2,0.62-0.44,0.82C363.92,785.74,363.62,785.84,363.27,785.84z M363.34,785.33c0.19,0,0.35-0.05,0.47-0.16
	c0.12-0.11,0.19-0.26,0.23-0.46l0.27-1.7c0.03-0.2,0.01-0.35-0.08-0.46c-0.08-0.11-0.22-0.16-0.41-0.16c-0.19,0-0.35,0.05-0.46,0.16
	c-0.12,0.1-0.19,0.26-0.22,0.46l-0.27,1.7c-0.03,0.2-0.01,0.35,0.08,0.46C363.02,785.28,363.15,785.33,363.34,785.33z
	 M365.28,785.79l0.61-3.83h0.71l0.62,3.19c0.01-0.1,0.02-0.22,0.03-0.36c0.01-0.14,0.03-0.29,0.04-0.44
	c0.02-0.15,0.04-0.29,0.06-0.41l0.31-1.98h0.52l-0.61,3.83h-0.71l-0.61-3.19c-0.01,0.09-0.02,0.21-0.03,0.34s-0.03,0.28-0.04,0.42
	c-0.02,0.15-0.04,0.28-0.06,0.41l-0.31,2.01H365.28z M368.23,785.79l1.59-3.83h0.75l0.37,3.83h-0.56l-0.07-0.97h-1.09l-0.39,0.97
	H368.23z M369.39,784.34h0.87l-0.09-1.1c-0.02-0.2-0.03-0.37-0.04-0.51c-0.01-0.14-0.01-0.24-0.01-0.3c-0.02,0.06-0.05,0.16-0.1,0.3
	c-0.05,0.14-0.11,0.31-0.19,0.5L369.39,784.34z M371.72,785.79l0.61-3.83h0.57l-0.52,3.31h1.67l-0.08,0.52H371.72z M376.68,785.84
	c-0.37,0-0.63-0.1-0.8-0.3c-0.17-0.2-0.22-0.48-0.17-0.82l0.44-2.76h0.57l-0.44,2.76c-0.03,0.2-0.01,0.35,0.07,0.46
	c0.08,0.11,0.21,0.17,0.41,0.17c0.19,0,0.35-0.06,0.46-0.17c0.12-0.11,0.19-0.27,0.22-0.46l0.44-2.76h0.57l-0.44,2.76
	c-0.06,0.35-0.2,0.62-0.43,0.82C377.35,785.74,377.05,785.84,376.68,785.84z M379.84,785.84c-0.39,0-0.67-0.1-0.87-0.29
	c-0.19-0.19-0.26-0.45-0.22-0.78h0.57c-0.03,0.17,0.01,0.31,0.12,0.41c0.11,0.1,0.27,0.15,0.48,0.15c0.2,0,0.37-0.05,0.5-0.15
	c0.13-0.1,0.21-0.23,0.24-0.4c0.02-0.15,0-0.28-0.06-0.39c-0.06-0.11-0.16-0.18-0.29-0.22l-0.46-0.14
	c-0.27-0.08-0.46-0.22-0.59-0.41c-0.13-0.19-0.17-0.42-0.13-0.68c0.04-0.21,0.11-0.39,0.23-0.55s0.27-0.28,0.46-0.37
	c0.19-0.09,0.4-0.13,0.64-0.13c0.35,0,0.62,0.1,0.8,0.29c0.18,0.19,0.25,0.44,0.2,0.76h-0.57c0.03-0.17,0-0.3-0.09-0.4
	c-0.09-0.1-0.23-0.14-0.42-0.14c-0.19,0-0.34,0.04-0.46,0.13c-0.12,0.09-0.19,0.21-0.21,0.38c-0.02,0.15-0.01,0.28,0.05,0.39
	c0.06,0.11,0.16,0.18,0.29,0.22l0.47,0.15c0.26,0.08,0.46,0.22,0.58,0.41c0.12,0.19,0.17,0.42,0.12,0.69
	c-0.04,0.22-0.12,0.41-0.24,0.57c-0.13,0.16-0.29,0.29-0.49,0.38C380.31,785.79,380.09,785.84,379.84,785.84z M381.91,785.79
	l0.61-3.83h2.25l-0.08,0.5h-1.7l-0.17,1.09h1.51l-0.08,0.5h-1.51l-0.19,1.24h1.69l-0.08,0.5H381.91z M386.94,785.84
	c-0.36,0-0.62-0.1-0.8-0.3c-0.17-0.2-0.23-0.47-0.18-0.82l0.27-1.7c0.06-0.34,0.2-0.61,0.44-0.82c0.24-0.2,0.54-0.3,0.89-0.3
	c0.36,0,0.62,0.1,0.8,0.3c0.17,0.2,0.24,0.47,0.18,0.81l-0.27,1.71c-0.06,0.34-0.2,0.62-0.44,0.82
	C387.6,785.74,387.3,785.84,386.94,785.84z M387.02,785.33c0.19,0,0.35-0.05,0.47-0.16c0.12-0.11,0.19-0.26,0.23-0.46l0.27-1.7
	c0.03-0.2,0.01-0.35-0.08-0.46c-0.08-0.11-0.22-0.16-0.41-0.16c-0.19,0-0.35,0.05-0.46,0.16c-0.12,0.1-0.19,0.26-0.22,0.46
	l-0.27,1.7c-0.03,0.2-0.01,0.35,0.08,0.46C386.7,785.28,386.83,785.33,387.02,785.33z M388.95,785.79l0.61-3.83h0.71l0.62,3.19
	c0.01-0.1,0.02-0.22,0.03-0.36c0.01-0.14,0.03-0.29,0.04-0.44c0.02-0.15,0.04-0.29,0.06-0.41l0.31-1.98h0.52l-0.61,3.83h-0.71
	l-0.61-3.19c-0.01,0.09-0.02,0.21-0.03,0.34c-0.01,0.13-0.03,0.28-0.04,0.42c-0.02,0.15-0.04,0.28-0.06,0.41l-0.31,2.01H388.95z
	 M392.25,785.79l0.61-3.83h0.57l-0.52,3.31h1.67l-0.08,0.52H392.25z M396.12,785.79l0.22-1.41l-0.75-2.42h0.58l0.45,1.45
	c0.03,0.09,0.05,0.18,0.07,0.27c0.02,0.08,0.03,0.15,0.03,0.19c0.02-0.04,0.05-0.1,0.09-0.19c0.04-0.08,0.09-0.17,0.14-0.27
	l0.9-1.45h0.6l-1.53,2.42l-0.22,1.41H396.12z M399.22,785.79l0.61-3.83h0.71l0.62,3.19c0.01-0.1,0.02-0.22,0.03-0.36
	c0.01-0.14,0.03-0.29,0.04-0.44c0.02-0.15,0.04-0.29,0.06-0.41l0.31-1.98h0.52l-0.61,3.83h-0.71l-0.61-3.19
	c-0.01,0.09-0.02,0.21-0.03,0.34c-0.01,0.13-0.03,0.28-0.04,0.42c-0.02,0.15-0.04,0.28-0.06,0.41l-0.31,2.01H399.22z M403.51,785.84
	c-0.36,0-0.62-0.1-0.8-0.3c-0.18-0.2-0.23-0.47-0.18-0.82l0.27-1.7c0.06-0.34,0.2-0.61,0.44-0.82c0.24-0.2,0.54-0.3,0.89-0.3
	c0.36,0,0.62,0.1,0.8,0.3c0.17,0.2,0.24,0.47,0.18,0.81l-0.27,1.71c-0.06,0.34-0.2,0.62-0.44,0.82
	C404.16,785.74,403.86,785.84,403.51,785.84z M403.58,785.33c0.19,0,0.35-0.05,0.47-0.16c0.12-0.11,0.19-0.26,0.23-0.46l0.27-1.7
	c0.03-0.2,0.01-0.35-0.08-0.46c-0.08-0.11-0.22-0.16-0.41-0.16c-0.19,0-0.35,0.05-0.46,0.16c-0.12,0.1-0.19,0.26-0.22,0.46
	l-0.27,1.7c-0.03,0.2-0.01,0.35,0.08,0.46C403.26,785.28,403.4,785.33,403.58,785.33z M406.38,785.79l0.52-3.31h-1.02l0.08-0.52
	h2.62l-0.08,0.52h-1.03l-0.52,3.31H406.38z M409.52,785.79l0.61-3.83h2.32l-0.08,0.52h-1.76l-0.18,1.14h1.63l-0.08,0.52h-1.62
	l-0.26,1.64H409.52z M413.77,785.84c-0.36,0-0.62-0.1-0.8-0.3c-0.18-0.2-0.23-0.47-0.18-0.82l0.27-1.7c0.06-0.34,0.2-0.61,0.44-0.82
	c0.24-0.2,0.54-0.3,0.89-0.3c0.36,0,0.62,0.1,0.8,0.3c0.17,0.2,0.24,0.47,0.18,0.81l-0.27,1.71c-0.06,0.34-0.2,0.62-0.44,0.82
	C414.42,785.74,414.13,785.84,413.77,785.84z M413.85,785.33c0.19,0,0.35-0.05,0.47-0.16c0.12-0.11,0.19-0.26,0.23-0.46l0.27-1.7
	c0.03-0.2,0.01-0.35-0.08-0.46c-0.08-0.11-0.22-0.16-0.41-0.16c-0.19,0-0.35,0.05-0.46,0.16c-0.12,0.1-0.19,0.26-0.22,0.46
	l-0.27,1.7c-0.03,0.2-0.01,0.35,0.08,0.46C413.52,785.28,413.66,785.33,413.85,785.33z M415.8,785.79l0.61-3.83h1.2
	c0.24,0,0.44,0.05,0.6,0.14c0.16,0.09,0.28,0.22,0.36,0.39c0.07,0.17,0.09,0.37,0.05,0.59c-0.04,0.26-0.14,0.48-0.3,0.67
	c-0.16,0.19-0.37,0.32-0.6,0.39l0.54,1.64h-0.62l-0.48-1.57h-0.54l-0.25,1.57H415.8z M416.69,783.71h0.64
	c0.19,0,0.35-0.06,0.48-0.17c0.13-0.11,0.21-0.26,0.24-0.45c0.03-0.19,0-0.35-0.09-0.46c-0.09-0.11-0.24-0.17-0.43-0.17h-0.64
	L416.69,783.71z M420.91,785.84c-0.36,0-0.63-0.1-0.81-0.3c-0.18-0.2-0.24-0.47-0.19-0.82l0.27-1.7c0.06-0.35,0.21-0.62,0.45-0.82
	s0.55-0.3,0.91-0.3c0.36,0,0.63,0.1,0.81,0.3c0.18,0.2,0.24,0.47,0.19,0.82h-0.57c0.03-0.2,0-0.35-0.09-0.46
	c-0.09-0.11-0.23-0.16-0.42-0.16c-0.19,0-0.35,0.05-0.48,0.16c-0.12,0.1-0.2,0.26-0.23,0.45l-0.27,1.71c-0.03,0.2,0,0.35,0.09,0.46
	c0.09,0.11,0.23,0.16,0.42,0.16c0.19,0,0.35-0.05,0.47-0.16c0.12-0.11,0.2-0.26,0.23-0.46h0.57c-0.03,0.23-0.11,0.43-0.24,0.59
	c-0.12,0.17-0.28,0.3-0.47,0.39C421.36,785.79,421.14,785.84,420.91,785.84z M424.03,785.84c-0.36,0-0.62-0.1-0.8-0.3
	c-0.18-0.2-0.23-0.47-0.18-0.82l0.27-1.7c0.06-0.34,0.2-0.61,0.44-0.82c0.24-0.2,0.54-0.3,0.89-0.3c0.36,0,0.62,0.1,0.8,0.3
	c0.17,0.2,0.24,0.47,0.18,0.81l-0.27,1.71c-0.06,0.34-0.2,0.62-0.44,0.82C424.69,785.74,424.39,785.84,424.03,785.84z
	 M424.11,785.33c0.19,0,0.35-0.05,0.47-0.16c0.12-0.11,0.19-0.26,0.23-0.46l0.27-1.7c0.03-0.2,0.01-0.35-0.08-0.46
	c-0.08-0.11-0.22-0.16-0.41-0.16c-0.19,0-0.35,0.05-0.46,0.16c-0.12,0.1-0.19,0.26-0.22,0.46l-0.27,1.7
	c-0.03,0.2-0.01,0.35,0.08,0.46C423.79,785.28,423.92,785.33,424.11,785.33z M425.97,785.79l0.61-3.83h0.69l0.18,1.23
	c0.02,0.12,0.04,0.23,0.05,0.33c0.01,0.1,0.02,0.18,0.03,0.24c0.02-0.06,0.05-0.14,0.09-0.24c0.04-0.11,0.09-0.22,0.15-0.34
	l0.57-1.22h0.71l-0.61,3.83h-0.54l0.2-1.29c0.02-0.17,0.06-0.35,0.1-0.55c0.04-0.2,0.09-0.4,0.14-0.61c0.05-0.2,0.1-0.4,0.14-0.59
	c0.05-0.19,0.09-0.35,0.13-0.49l-0.86,1.86h-0.55l-0.28-1.86c0,0.14-0.01,0.29-0.02,0.47c-0.01,0.18-0.02,0.37-0.04,0.57
	c-0.02,0.2-0.04,0.41-0.06,0.61c-0.02,0.2-0.05,0.4-0.08,0.57l-0.2,1.29H425.97z M429.11,785.79l0.61-3.83h0.69l0.18,1.23
	c0.02,0.12,0.04,0.23,0.05,0.33c0.01,0.1,0.02,0.18,0.03,0.24c0.02-0.06,0.05-0.14,0.09-0.24c0.04-0.11,0.09-0.22,0.15-0.34
	l0.57-1.22h0.71l-0.61,3.83h-0.54l0.2-1.29c0.02-0.17,0.06-0.35,0.1-0.55c0.04-0.2,0.09-0.4,0.14-0.61c0.05-0.2,0.1-0.4,0.14-0.59
	c0.05-0.19,0.09-0.35,0.13-0.49l-0.86,1.86h-0.55l-0.28-1.86c0,0.14-0.01,0.29-0.02,0.47c-0.01,0.18-0.02,0.37-0.04,0.57
	c-0.02,0.2-0.04,0.41-0.06,0.61c-0.02,0.2-0.05,0.4-0.08,0.57l-0.2,1.29H429.11z M432.41,785.79l0.61-3.83h2.25l-0.08,0.5h-1.7
	l-0.17,1.09h1.51l-0.08,0.5h-1.51l-0.19,1.24h1.69l-0.08,0.5H432.41z M435.51,785.79l0.61-3.83h1.2c0.24,0,0.44,0.05,0.6,0.14
	c0.16,0.09,0.28,0.22,0.36,0.39c0.07,0.17,0.09,0.37,0.05,0.59c-0.04,0.26-0.14,0.48-0.3,0.67c-0.16,0.19-0.37,0.32-0.6,0.39
	l0.54,1.64h-0.62l-0.48-1.57h-0.54l-0.25,1.57H435.51z M436.4,783.71h0.64c0.19,0,0.35-0.06,0.48-0.17
	c0.13-0.11,0.21-0.26,0.24-0.45c0.03-0.19,0-0.35-0.09-0.46c-0.09-0.11-0.24-0.17-0.43-0.17h-0.64L436.4,783.71z M439.8,785.84
	c-0.36,0-0.63-0.1-0.81-0.3c-0.18-0.2-0.24-0.47-0.19-0.82l0.27-1.7c0.06-0.35,0.21-0.62,0.45-0.82s0.55-0.3,0.91-0.3
	c0.36,0,0.63,0.1,0.81,0.3c0.18,0.2,0.24,0.47,0.19,0.82h-0.57c0.03-0.2,0-0.35-0.09-0.46c-0.09-0.11-0.23-0.16-0.42-0.16
	c-0.19,0-0.35,0.05-0.47,0.16c-0.12,0.1-0.2,0.26-0.23,0.45l-0.27,1.71c-0.03,0.2,0,0.35,0.09,0.46c0.09,0.11,0.23,0.16,0.42,0.16
	s0.35-0.05,0.47-0.16c0.12-0.11,0.2-0.26,0.23-0.46h0.57c-0.03,0.23-0.11,0.43-0.24,0.59c-0.12,0.17-0.28,0.3-0.47,0.39
	C440.25,785.79,440.04,785.84,439.8,785.84z M441.88,785.79l0.08-0.5h0.78l0.45-2.82h-0.78l0.08-0.5h2.13l-0.08,0.5h-0.78
	l-0.45,2.82h0.78l-0.08,0.5H441.88z M444.74,785.79l1.59-3.83h0.75l0.37,3.83h-0.56l-0.07-0.97h-1.09l-0.39,0.97H444.74z
	 M445.9,784.34h0.87l-0.09-1.1c-0.02-0.2-0.03-0.37-0.04-0.51c-0.01-0.14-0.01-0.24-0.01-0.3c-0.02,0.06-0.05,0.16-0.1,0.3
	c-0.05,0.14-0.11,0.31-0.19,0.5L445.9,784.34z M448.24,785.79l0.61-3.83h0.57l-0.52,3.31h1.67l-0.08,0.52H448.24z M453.19,785.84
	c-0.37,0-0.63-0.1-0.8-0.3c-0.17-0.2-0.22-0.48-0.17-0.82l0.44-2.76h0.57l-0.44,2.76c-0.03,0.2-0.01,0.35,0.07,0.46
	c0.08,0.11,0.21,0.17,0.41,0.17c0.19,0,0.35-0.06,0.46-0.17c0.12-0.11,0.19-0.27,0.22-0.46l0.44-2.76h0.57l-0.44,2.76
	c-0.06,0.35-0.2,0.62-0.43,0.82C453.86,785.74,453.56,785.84,453.19,785.84z M456.36,785.84c-0.39,0-0.67-0.1-0.87-0.29
	c-0.19-0.19-0.26-0.45-0.22-0.78h0.57c-0.03,0.17,0.01,0.31,0.12,0.41c0.11,0.1,0.27,0.15,0.48,0.15c0.2,0,0.37-0.05,0.5-0.15
	s0.21-0.23,0.24-0.4c0.02-0.15,0-0.28-0.06-0.39c-0.06-0.11-0.16-0.18-0.29-0.22l-0.46-0.14c-0.27-0.08-0.46-0.22-0.59-0.41
	c-0.13-0.19-0.17-0.42-0.13-0.68c0.04-0.21,0.11-0.39,0.23-0.55c0.12-0.16,0.27-0.28,0.46-0.37c0.19-0.09,0.4-0.13,0.64-0.13
	c0.35,0,0.62,0.1,0.8,0.29c0.18,0.19,0.25,0.44,0.2,0.76h-0.57c0.03-0.17,0-0.3-0.09-0.4c-0.09-0.1-0.23-0.14-0.42-0.14
	c-0.19,0-0.34,0.04-0.46,0.13c-0.12,0.09-0.19,0.21-0.21,0.38c-0.02,0.15-0.01,0.28,0.05,0.39c0.06,0.11,0.16,0.18,0.29,0.22
	l0.47,0.15c0.26,0.08,0.46,0.22,0.58,0.41c0.12,0.19,0.17,0.42,0.12,0.69c-0.04,0.22-0.12,0.41-0.24,0.57
	c-0.13,0.16-0.29,0.29-0.49,0.38C456.82,785.79,456.6,785.84,456.36,785.84z M458.42,785.79l0.61-3.83h2.25l-0.08,0.5h-1.7
	l-0.17,1.09h1.51l-0.08,0.5h-1.51l-0.19,1.24h1.69l-0.08,0.5H458.42z"/>
<g>
	<path style="fill:#002649;" d="M673.02,203.76h-61.9L491.01,86.47l-32.07,34.71L400,60.81l-60.54,58.37l-30.46-32.71L190.8,203.76
		h-63.82c-8.94,0-16.19,7.26-16.19,16.22v49.73c0,3.14,0.04,13.95,0.04,17.07v183.78c0,4.87,2.18,9.48,5.94,12.56
		c2.92,2.39,6.54,3.66,10.25,3.66c1.07,0,2.15-0.11,3.22-0.32c18.51-3.76,37.47-7.19,56.54-10.22
		c10.6,52.6,31.03,100.43,60.83,142.37c0,0.01,0.01,0.01,0.01,0.02c1.18,1.66,2.18,3.05,3.14,4.36c1.12,1.53,2.24,3.04,3.31,4.46
		c1.73,2.29,3.65,4.76,5.86,7.54l0.33,0.42c0.29,0.37,0.59,0.74,0.88,1.11c1.88,2.34,3.79,4.66,5.69,6.9
		c0.37,0.44,0.75,0.88,1.12,1.32l0.42,0.49c1.79,2.09,3.46,4,5.11,5.85c0.65,0.73,1.3,1.45,1.96,2.18c1.5,1.65,3.07,3.35,4.68,5.06
		c0.84,0.89,1.68,1.78,2.52,2.67c1.72,1.79,3.43,3.54,5.08,5.19c1.08,1.08,2.17,2.15,3.26,3.22c0.9,0.88,1.81,1.75,2.72,2.62
		c2.01,1.92,4.12,3.89,6.26,5.85l0.43,0.39c0.45,0.41,0.89,0.81,1.34,1.22c4.41,3.97,9,7.91,13.66,11.71l0.3,0.24l0.15,0.12
		c3.15,2.55,6.37,5.08,9.57,7.51c0.02,0.01,0.04,0.03,0.06,0.04c17.81,13.49,37.09,25.52,57.32,35.75
		c5.81,2.94,11.38,4.37,17.01,4.37c5.64,0,11.19-1.43,16.97-4.36c20.52-10.42,39.94-22.51,57.72-35.95
		c1.81-1.37,3.66-2.79,5.49-4.24l0.11-0.09l0.08-0.06c1.74-1.37,3.52-2.8,5.26-4.22l0.23-0.19c1.74-1.42,3.49-2.89,5.2-4.34
		l0.12-0.1c15.94-13.59,30.81-28.71,44.18-44.93l0.12-0.14c0.01-0.01,0.03-0.04,0.04-0.05c1.41-1.72,2.83-3.48,4.23-5.23l0.18-0.23
		l0.09-0.12c1.36-1.72,2.72-3.48,4.05-5.21l0.12-0.16l0.17-0.22c1.35-1.77,2.69-3.58,4-5.36l0.07-0.1l0.12-0.16
		c1.4-1.92,2.78-3.84,4.09-5.7c0-0.01,0.01-0.01,0.01-0.02c5.46-7.77,10.68-15.83,15.52-23.94c21.44-35.92,36.57-75.49,45.1-117.84
		c19.13,3.04,38.13,6.48,56.69,10.25c1.07,0.22,2.15,0.32,3.22,0.32c3.7,0,7.33-1.27,10.25-3.66c3.76-3.08,5.94-7.69,5.94-12.56
		V286.78c0-3.03,0.04-13.92,0.04-17.07v-49.73C689.21,211.02,681.96,203.76,673.02,203.76z"/>
	<path style="fill:#C8A86F;" d="M673.02,192.95h-57.51L498.54,78.73c-2.02-1.97-4.72-3.07-7.53-3.07c-0.09,0-0.18,0-0.28,0
		c-2.91,0.07-5.67,1.32-7.64,3.46l-24.37,26.37l-51.01-52.25C405.6,51.09,402.8,50,400,50c-2.69,0-5.39,1-7.48,3.02l-52.65,50.76
		l-22.99-24.69c-1.99-2.14-4.76-3.38-7.68-3.43c-0.07,0-0.14,0-0.21,0c-2.84,0-5.57,1.12-7.59,3.13L186.36,192.95h-59.38
		c-14.88,0-26.98,12.13-26.98,27.03v49.73c0,1.58,0.01,5.09,0.02,8.59c0.01,3.47,0.02,6.93,0.02,8.48v183.78
		c0,8.14,3.61,15.77,9.9,20.93c4.8,3.94,10.87,6.1,17.08,6.1c1.8,0,3.6-0.18,5.36-0.54c15.05-3.06,30.48-5.91,46-8.5
		c11.41,50.09,31.72,95.9,60.43,136.31c0.01,0.02,0.02,0.03,0.03,0.05c1.19,1.68,2.22,3.1,3.22,4.46c1.15,1.57,2.3,3.12,3.41,4.59
		c1.79,2.36,3.76,4.9,6.03,7.75l0.33,0.41c0.31,0.38,0.61,0.77,0.92,1.16c1.94,2.41,3.91,4.8,5.85,7.1
		c0.37,0.44,0.76,0.89,1.14,1.34l0.45,0.52c1.83,2.14,3.55,4.11,5.25,6.02c0.66,0.74,1.34,1.49,2.01,2.23
		c1.55,1.71,3.17,3.46,4.82,5.22c0.86,0.91,1.72,1.83,2.6,2.74c1.77,1.84,3.53,3.64,5.24,5.35c1.11,1.11,2.23,2.21,3.36,3.31
		c0.94,0.91,1.87,1.81,2.8,2.7c2.06,1.97,4.23,4,6.44,6.02l0.43,0.39c0.48,0.44,0.94,0.86,1.4,1.27c4.53,4.08,9.27,8.14,14.07,12.05
		l0.32,0.26l0.17,0.14c3.22,2.61,6.53,5.21,9.82,7.71l0.06,0.04c18.32,13.88,38.16,26.25,58.96,36.78
		c7.36,3.72,14.51,5.53,21.88,5.53c7.37,0,14.52-1.81,21.84-5.53c21.09-10.7,41.05-23.14,59.34-36.97c1.86-1.4,3.76-2.87,5.66-4.36
		l0.14-0.11l0.06-0.04c1.81-1.42,3.63-2.89,5.41-4.35l0.24-0.19c1.79-1.47,3.59-2.97,5.36-4.48l0.11-0.09
		c16.44-14.01,31.75-29.59,45.53-46.3l0.13-0.16l0,0c0.01-0.01,0.02-0.03,0.03-0.04l0,0c1.46-1.78,2.93-3.59,4.35-5.39l0.19-0.25
		l0.08-0.09c1.42-1.8,2.82-3.6,4.18-5.38l0.13-0.17l0.15-0.2c1.39-1.83,2.77-3.68,4.12-5.53l0.07-0.09l0.11-0.15
		c1.47-2.01,2.88-3.97,4.21-5.87c0.01-0.02,0.02-0.03,0.03-0.05c5.61-7.99,10.98-16.27,15.95-24.61
		c20.31-34.03,35.17-71.35,44.23-111.07c15.57,2.6,31.05,5.45,46.15,8.52c1.76,0.36,3.57,0.54,5.36,0.54
		c6.21,0,12.27-2.17,17.08-6.1c6.29-5.16,9.9-12.78,9.9-20.93V286.78c0-1.49,0.01-4.91,0.02-8.36c0.01-3.54,0.02-7.11,0.02-8.71
		v-49.73C700,205.08,687.9,192.95,673.02,192.95z M689.21,269.71c0,3.14-0.04,14.04-0.04,17.07v183.78c0,4.87-2.18,9.48-5.94,12.56
		c-2.92,2.39-6.54,3.66-10.25,3.66c-1.07,0-2.15-0.11-3.22-0.32c-18.55-3.77-37.56-7.2-56.69-10.25
		c-8.52,42.35-23.66,81.93-45.1,117.84c-4.84,8.11-10.06,16.16-15.52,23.94c0,0.01-0.01,0.01-0.01,0.02
		c-1.31,1.86-2.68,3.78-4.09,5.7l-0.12,0.16l-0.07,0.1c-1.31,1.78-2.65,3.59-4,5.36l-0.17,0.22l-0.12,0.16
		c-1.32,1.74-2.69,3.49-4.05,5.21l-0.09,0.12l-0.18,0.23c-1.39,1.76-2.81,3.52-4.23,5.23c0,0.01-0.03,0.04-0.04,0.05l-0.12,0.14
		c-13.38,16.23-28.24,31.35-44.18,44.93l-0.12,0.1c-1.71,1.45-3.46,2.92-5.2,4.34l-0.23,0.19c-1.74,1.43-3.52,2.85-5.26,4.22
		l-0.08,0.06l-0.11,0.09c-1.84,1.44-3.68,2.87-5.49,4.24c-17.77,13.44-37.19,25.54-57.72,35.95c-5.78,2.93-11.33,4.36-16.97,4.36
		c-5.63,0-11.2-1.43-17.01-4.37c-20.23-10.23-39.51-22.26-57.32-35.75c-0.02-0.01-0.04-0.03-0.06-0.04
		c-3.2-2.43-6.42-4.95-9.57-7.51l-0.15-0.12l-0.3-0.24c-4.66-3.8-9.26-7.74-13.66-11.71c-0.45-0.4-0.89-0.81-1.34-1.22l-0.43-0.39
		c-2.15-1.96-4.26-3.93-6.26-5.85c-0.91-0.87-1.81-1.74-2.72-2.62c-1.09-1.07-2.19-2.14-3.26-3.22c-1.65-1.65-3.36-3.4-5.08-5.19
		c-0.85-0.88-1.69-1.78-2.52-2.67c-1.61-1.71-3.18-3.41-4.68-5.06c-0.66-0.72-1.31-1.45-1.96-2.18c-1.65-1.85-3.32-3.76-5.11-5.85
		l-0.42-0.49c-0.38-0.44-0.75-0.88-1.12-1.32c-1.89-2.24-3.81-4.56-5.69-6.9c-0.3-0.37-0.59-0.74-0.88-1.11l-0.33-0.42
		c-2.21-2.78-4.13-5.24-5.86-7.54c-1.08-1.42-2.2-2.93-3.31-4.46c-0.96-1.32-1.96-2.7-3.14-4.36c0,0-0.01-0.01-0.01-0.02
		c-29.8-41.94-50.23-89.76-60.83-142.37c-19.08,3.04-38.03,6.46-56.54,10.22c-1.07,0.22-2.15,0.32-3.22,0.32
		c-3.7,0-7.33-1.27-10.25-3.66c-3.76-3.08-5.94-7.69-5.94-12.56V286.78c0-3.12-0.04-13.93-0.04-17.07v-49.73
		c0-8.96,7.25-16.22,16.19-16.22h63.82L308.99,86.47l30.46,32.71L400,60.81l58.94,60.37l32.07-34.71l120.11,117.29h61.9
		c8.94,0,16.19,7.26,16.19,16.22V269.71z"/>
	<g>
		<g>
			<g>
				<path style="fill:none;" d="M294.89,368.28c0.39-0.02,0.78-0.03,1.17-0.05c0.01-2.7,0.02-5.41,0.03-8.11
					C295.69,362.84,295.29,365.56,294.89,368.28z"/>
			</g>
		</g>
	</g>
	<g>
		<g>
			<g>
				<path style="fill:none;" d="M253.07,370.55c0.42-0.03,0.84-0.06,1.26-0.08c-0.41-2.76-0.82-5.51-1.22-8.27
					C253.1,364.99,253.08,367.77,253.07,370.55z"/>
			</g>
		</g>
	</g>
	<g>
		<g>
			<g>
				<g>
					<g>
						<g>
							<g>
								<g>
									<path style="fill:#FFFFFF;" d="M399.45,580.67c0,0,8.52,5.42,1.7,18.75l-9.13,15.64c0,0-5.72,11.46-1.39,20.76
										c0,0,2.01,3.41,3.24,4.03c0,0,1.86,0.31,0.32-3.09c0,0-5.11-10.23,3.88-23.24c0,0,9.11-13.02,8.98-16.73
										c0,0,0.45-3.57,0.14-5.58c0,0,8.21,2.47,6.83,15.81c0,0-0.32,7.12-8.82,18.13c0,0-3.16,5.2,0,9.28c0,0,2,2.17,1.55-0.77
										c0,0,0.61-6.36,5.87-13.32c0,0,6.66-8.84,5.26-17.36c0,0,9.12,9.6,4.48,27.58c0,0-4.96,19.83-27.23,16.43
										c0,0-22.12-3.11-18.26-32.53c0,0,2.04-10.88,13.37-18.78C390.24,595.67,398.68,587.5,399.45,580.67z"/>
								</g>
							</g>
						</g>
					</g>
				</g>
				<g>
					<g>
						<g>
							<g>
								<g>
									<path style="fill:#FFFFFF;" d="M373.94,611.5c0,0-6.96,17.04,7.72,31.76c0,0-15.46-0.92-16.07-19.67
										C365.59,623.59,366.2,614.6,373.94,611.5z"/>
								</g>
							</g>
						</g>
					</g>
				</g>
				<g>
					<g>
						<g>
							<g>
								<g>
									<path style="fill:#FFFFFF;" d="M426.07,611.5c0,0,6.95,17.04-7.74,31.76c0,0,15.46-0.92,16.08-19.67
										C434.42,623.59,433.79,614.6,426.07,611.5z"/>
								</g>
							</g>
						</g>
					</g>
				</g>
				<g>
					<g>
						<g>
							<g>
								<g>
									<path style="fill:#FFFFFF;" d="M386.14,552.47c0,0,1.4-1.71,5.1-1.71c0,0,3.1-0.14,2.64,2.49l-2.16,16.11
										c0,0-9.42-1.4-14.84-11c0,0,0.15-1.57,2.32-1.41c0,0,5.42-3.86-0.92-7.43c0,0-3.25-2.17-7.43,2.63l-17.78,21.69l6.65,0.16
										l10.35-12.39c0,0,2.17-1.08,2.17,0.93l-24.43,29.6l7.11-0.16l20.87-23.86c0,0,1.55-1.1,1.23,0.62l-28.45,34.69l7.26,0.16
										l26.14-30.68c0,0,2.17-1.08,1.86,0.93l-31.7,37.96l7.11,0.31l30.61-36.26c0,0,2.17-0.76,1.55,1.25l-36.18,43.54l7.12,0.3
										l35.73-42.6c0,0,2.15-1.55,4.01,0l35.6,42.6l6.94-0.15l-36.19-44.16c0,0-0.3-1.39,1.55-0.78l31.09,36.58l6.81-0.32
										l-31.86-38.73c0,0-0.15-1.7,1.55-1.24l26.91,31.14l6.65,0.14l-28.61-34.69c0,0-0.62-2.48,2.17-1.24l20.72,24.48l6.8-0.47
										l-24.28-28.97c0,0-0.3-1.86,1.71-1.24l10.67,12.23h6.34l-19.02-22.77c0,0-5.12-4.64-9.13,1.09c0,0-1.4,2.94,2.32,4.65
										c0,0,2.63,0.15,1.54,2.63c0,0-2.78,5.42-11.29,9.61c0,0-2.64,1.39-3.57-1.86L403.02,550c0,0,0.46-1.4,1.54-1.86l2.32-1.55
										l-6.96-0.32l-3.25,2.02c0,0-1.54,1.25-2.48-1.7c0,0-5.26-1.71-7.42,1.23C386.77,547.82,385.68,550.62,386.14,552.47z"/>
								</g>
							</g>
						</g>
					</g>
				</g>
			</g>
		</g>
		<g>
			<g>
				<g>
					<g>
						<g>
							<path style="fill:#FFFFFF;" d="M418.79,674.62l-7.47,8.62h10.69v4.58h-17.99v-4.19l10.09-11.67
								c1.31-1.53,1.81-2.66,1.81-4.22c0-2.41-1.17-3.87-3.29-3.87c-2.12,0-3.33,1.42-3.33,3.87v1.03h-5.66v-1.03
								c0-4.65,3.19-8.48,8.99-8.48c5.81,0,8.96,3.83,8.96,8.48C421.59,670.62,420.92,672.18,418.79,674.62z"/>
						</g>
					</g>
				</g>
				<g>
					<g>
						<g>
							<path style="fill:#FFFFFF;" d="M432.11,687.82v-22.63l-6.02,2.73v-5.04l6.83-3.12h4.85v28.06H432.11z"/>
						</g>
					</g>
				</g>
			</g>
			<g>
				<g>
					<g>
						<g>
							<path style="fill:#FFFFFF;" d="M377.38,674.62l-7.47,8.62h10.69v4.58h-17.99v-4.19l10.09-11.67
								c1.31-1.52,1.81-2.66,1.81-4.22c0-2.41-1.17-3.87-3.29-3.87c-2.12,0-3.33,1.42-3.33,3.87v1.03h-5.66v-1.03
								c0-4.65,3.19-8.48,8.99-8.48c5.81,0,8.96,3.83,8.96,8.48C380.18,670.62,379.51,672.18,377.38,674.62z"/>
						</g>
					</g>
				</g>
				<g>
					<g>
						<g>
							<path style="fill:#FFFFFF;" d="M398.13,685.66c-1.52,1.77-3.79,2.66-6.73,2.66c-2.94,0-5.2-0.89-6.73-2.66
								c-2.02-2.31-2.94-5.82-2.94-11.88c0-6.03,0.92-9.54,2.94-11.85c1.52-1.77,3.79-2.66,6.73-2.66c2.94,0,5.2,0.89,6.73,2.66
								c1.98,2.31,2.94,5.82,2.94,11.85C401.07,679.84,400.11,683.35,398.13,685.66z M388.6,682.32c0.67,0.96,1.56,1.38,2.8,1.38
								c1.2,0,2.09-0.42,2.8-1.38c0.92-1.35,1.2-3.79,1.2-8.55c0-4.72-0.28-7.17-1.2-8.51c-0.71-0.96-1.59-1.38-2.8-1.38
								c-1.24,0-2.12,0.42-2.8,1.38c-0.92,1.35-1.2,3.79-1.2,8.51C387.4,678.53,387.68,680.97,388.6,682.32z"/>
						</g>
					</g>
				</g>
			</g>
		</g>
	</g>
	<g>
		<polygon style="fill:#C8A86F;" points="567.44,184.34 558.19,179.65 557.88,179.49 557.64,179.25 539.14,160.66 538.93,160.46 
			538.79,160.2 535.59,154.55 513.53,137.4 513.31,137.23 513.13,136.99 504.19,125.09 492.84,114.46 490.25,116.89 487.42,121.16 
			487.15,121.57 486.73,121.83 482.13,124.58 476.71,133.14 476.43,133.57 475.99,133.84 465.57,140.01 460.52,144.74 
			459.43,145.76 458.1,145.1 452.24,142.21 451.92,142.05 451.66,141.79 441.2,131.26 435.01,125.73 424.47,119.55 424.08,119.33 
			423.82,118.97 409.86,100.03 399.73,90.54 383.14,110.76 383.02,110.92 382.86,111.05 366.41,124.78 366.1,125.04 365.71,125.17 
			360.62,126.85 350.31,138.16 343.1,149.44 341.45,152.02 339.57,149.6 328.89,135.78 318.27,129.56 317.93,129.36 317.68,129.05 
			306.17,114.89 280.81,145.09 280.16,145.86 279.16,145.86 270.99,145.86 253.36,165.72 253.26,165.84 253.13,165.95 231.37,184.1 
			214.88,204.66 236.05,194.43 258.45,178.96 273.85,160.61 274.14,160.26 274.54,160.06 283.39,155.62 304.72,135.63 306.2,134.25 
			307.67,135.63 317.52,144.86 325.73,148.59 326.52,148.95 326.84,149.76 330.49,158.91 331.23,160.75 329.46,161.64 
			316.78,168.03 310.33,181.24 310.23,181.45 310.08,181.64 300.94,193.17 315.05,189.12 324.87,174.51 325.18,174.06 325.67,173.8 
			347.1,162.62 355.93,149.36 356.1,149.1 356.34,148.9 367.31,139.75 367.37,139.7 367.43,139.65 380.04,130.63 397.93,111.17 
			399.21,109.78 400.76,110.86 409.21,116.77 409.5,116.97 409.71,117.26 419.59,130.75 432.76,141.29 433.03,141.51 433.23,141.81 
			437.85,149 454.6,159.9 454.83,160.05 455.02,160.26 465.64,172.05 472.85,175.48 473.29,175.7 473.61,176.08 483.74,188.77 
			496.91,193.79 491.33,184.87 491.29,184.8 491.25,184.73 484.07,170.98 480.3,166.95 473.86,162.33 473.44,162.02 473.2,161.56 
			470.85,157.01 470.1,155.56 471.3,154.44 478.3,147.88 478.53,147.66 478.82,147.52 484.71,144.65 487.21,139.71 487.38,139.37 
			487.66,139.11 491.37,135.63 492.74,134.35 494.2,135.53 500.45,140.59 500.75,140.83 500.95,141.16 505.48,148.73 517.52,156.42 
			526.07,161.89 526.5,162.17 526.77,162.62 531.16,170.12 549.77,184.89 550.01,185.08 550.19,185.33 555.08,192.25 570.24,198.3 
			570.27,198.31 570.29,198.32 585.12,204.68 578.96,196.62 		"/>
	</g>
	<g>
		<g>
			<rect x="126.98" y="219.98" style="fill:#C8A86F;" width="546.04" height="49.73"/>
		</g>
	</g>
	<g>
		<g>
			<path style="fill:#002649;" d="M174.65,232.69c6,0,9.44,3.3,9.61,8.72H178c-0.09-2.31-1.14-3.68-3.35-3.68
				c-2.3,0-3.5,1.22-3.5,7.09c0,5.69,1.05,7.15,3.64,7.15c2.18,0,3.44-1.49,3.52-3.85h-3.58v-4.17h9.5v12.64h-4.49l-0.55-2.54
				c-0.79,1.81-2.86,2.95-5.42,2.95c-6.06,0-8.94-4.64-8.94-12.17C164.84,237.39,167.58,232.69,174.65,232.69z"/>
		</g>
		<g>
			<path style="fill:#002649;" d="M205.8,256.59h-6.32V233.1h6.32V256.59z"/>
		</g>
		<g>
			<path style="fill:#002649;" d="M231.18,256.59l-3.99-10.62v10.62h-6.06V233.1h5.86l6.5,17.25l6.5-17.25h5.83v23.49h-6.06v-10.62
				l-3.99,10.62H231.18z"/>
		</g>
		<g>
			<path style="fill:#002649;" d="M263.32,235.52c1.66-1.9,4.11-2.83,7.25-2.83c6,0,9.44,3.3,9.61,8.72h-6.26
				c-0.09-2.31-1.14-3.68-3.35-3.68c-1.14,0-1.92,0.38-2.53,1.25c-0.73,1.05-0.96,2.66-0.96,5.84c0,3.24,0.23,4.82,0.96,5.9
				c0.61,0.88,1.4,1.25,2.53,1.25c2.21,0,3.29-1.4,3.35-3.68h6.26c-0.17,5.43-3.61,8.7-9.61,8.7c-3.15,0-5.59-0.93-7.25-2.83
				c-1.92-2.19-2.56-5.31-2.56-9.34C260.75,240.86,261.4,237.71,263.32,235.52z"/>
		</g>
		<g>
			<path style="fill:#002649;" d="M306.41,247.08h-5.04v9.51h-6.32V233.1h6.32v8.93h5.04v-8.93h6.32v23.49h-6.32V247.08z"/>
		</g>
		<g>
			<path style="fill:#002649;" d="M328.09,233.1h15.26v5.02h-8.94v3.91h7.75v5.05h-7.75v4.52h9.12v4.99h-15.44V233.1z"/>
		</g>
		<g>
			<path style="fill:#002649;" d="M375.08,254.17c-1.66,1.9-4.14,2.83-7.28,2.83c-3.15,0-5.59-0.93-7.25-2.83
				c-1.92-2.19-2.56-5.31-2.56-9.34c0-3.97,0.64-7.12,2.56-9.31c1.66-1.9,4.11-2.83,7.25-2.83c3.15,0,5.62,0.93,7.28,2.83
				c1.89,2.19,2.53,5.34,2.53,9.31C377.62,248.86,376.97,251.98,375.08,254.17z M370.36,238.99c-0.61-0.88-1.43-1.25-2.56-1.25
				c-1.14,0-1.92,0.38-2.53,1.25c-0.73,1.05-0.96,2.68-0.96,5.84c0,3.21,0.23,4.82,0.96,5.9c0.61,0.88,1.4,1.25,2.53,1.25
				c1.14,0,1.95-0.38,2.56-1.25c0.7-1.08,0.93-2.69,0.93-5.9C371.29,241.68,371.06,240.04,370.36,238.99z"/>
		</g>
		<g>
			<path style="fill:#002649;" d="M398.66,243.75v12.84h-6.09V233.1h6.09l5.83,12.87V233.1h6.09v23.49h-6.09L398.66,243.75z"/>
		</g>
		<g>
			<path style="fill:#002649;" d="M451.66,257c-5.71,0-8.83-2.98-8.83-7.12v-0.47h6.29v0.53c0,1.37,0.84,2.3,2.53,2.3
				c1.69,0,2.53-0.93,2.53-2.3c0-1.37-0.79-2.19-3.03-2.63l-1.78-0.38c-4.02-0.79-6.76-2.95-6.76-7.24c0-4.03,3.15-7,8.48-7
				c5.51,0,8.48,3.09,8.48,6.71v0.41h-6.29v-0.41c0-1.2-0.79-1.93-2.18-1.93c-1.43,0-2.18,0.73-2.18,1.93
				c0,1.31,0.87,2.04,3.12,2.51l1.78,0.32c4.25,0.88,6.67,3.24,6.67,7.41C460.49,253.88,457.55,257,451.66,257z"/>
		</g>
		<g>
			<path style="fill:#002649;" d="M487.41,233.1l7.4,23.49h-6.35l-0.96-3.76h-6.55l-0.96,3.76h-6.32l7.4-23.49H487.41z
				 M484.24,239.93l-2.1,8.17h4.17L484.24,239.93z"/>
		</g>
		<g>
			<path style="fill:#002649;" d="M515.04,243.75v12.84h-6.09V233.1h6.09l5.83,12.87V233.1h6.09v23.49h-6.09L515.04,243.75z"/>
		</g>
		<g>
			<path style="fill:#002649;" d="M551.72,232.69c6,0,9.44,3.3,9.61,8.72h-6.26c-0.09-2.31-1.14-3.68-3.35-3.68
				c-2.3,0-3.5,1.22-3.5,7.09c0,5.69,1.05,7.15,3.64,7.15c2.18,0,3.44-1.49,3.53-3.85h-3.58v-4.17h9.5v12.64h-4.49l-0.55-2.54
				c-0.79,1.81-2.86,2.95-5.42,2.95c-6.06,0-8.94-4.64-8.94-12.17C541.9,237.39,544.64,232.69,551.72,232.69z"/>
		</g>
		<g>
			<path style="fill:#002649;" d="M586.59,256.59l-3.99-10.62v10.62h-6.06V233.1h5.86l6.5,17.25l6.5-17.25h5.83v23.49h-6.06v-10.62
				l-3.99,10.62H586.59z"/>
		</g>
		<g>
			<path style="fill:#002649;" d="M616.46,247.81V233.1h6.29v15.09c0,2.66,1.11,3.79,3.06,3.79c1.95,0,3.06-1.14,3.06-3.79V233.1
				h6.29v14.71c0,5.69-2.97,9.19-9.35,9.19C619.43,257,616.46,253.5,616.46,247.81z"/>
		</g>
	</g>
	<g>
		<g>
			<g>
				<path style="fill:#C8A86F;" d="M227.82,471.73h24.81v8.65h-15.26v7.56h14.81v7.97h-14.81v16.75h-9.54V471.73z"/>
			</g>
			<g>
				<path style="fill:#C8A86F;" d="M255.44,480.28c0-6.96,5.68-9.47,12.63-9.47s12.63,2.5,12.63,9.47v23.81
					c0,6.97-5.68,9.47-12.63,9.47s-12.63-2.5-12.63-9.47V480.28z M264.89,502.59c0,1.78,1.41,2.73,3.18,2.73s3.18-0.96,3.18-2.73
					v-20.8c0-1.78-1.41-2.73-3.18-2.73s-3.18,0.96-3.18,2.73V502.59z"/>
			</g>
			<g>
				<path style="fill:#C8A86F;" d="M283.89,480.28c0-6.96,5.68-9.47,12.63-9.47c6.95,0,12.63,2.5,12.63,9.47v23.81
					c0,6.97-5.68,9.47-12.63,9.47c-6.95,0-12.63-2.5-12.63-9.47V480.28z M293.34,502.59c0,1.78,1.41,2.73,3.18,2.73
					s3.18-0.96,3.18-2.73v-20.8c0-1.78-1.41-2.73-3.18-2.73s-3.18,0.96-3.18,2.73V502.59z"/>
			</g>
			<g>
				<path style="fill:#C8A86F;" d="M335.78,471.73v8.42h-7.41v32.5h-10v-32.5h-7.4v-8.42H335.78z"/>
			</g>
			<g>
				<path style="fill:#C8A86F;" d="M348.14,510.83v1.82h-9.54v-40.92h15.72c5.95,0,8.95,1.09,9.09,7.28v5.6
					c0,2.96-2.68,5.83-6.13,5.96c3.54,0.23,6.59,3.28,6.59,6.46v8.33c0,5.64-2.23,8.28-9.09,6.83L348.14,510.83z M351.36,479.92
					h-3.23v7.28h3.23c1.95-0.05,2.73-0.96,2.73-3.19v-0.91C354.09,481.15,353.54,479.92,351.36,479.92z M348.14,502.68l2.77,0.55
					c2.32,0.5,3.63,0.27,3.63-1.96v-4.05c0-1.96-1.73-2.28-3.18-2.28h-3.23V502.68z"/>
			</g>
			<g>
				<path style="fill:#C8A86F;" d="M375.99,512.65h-9.54l5.68-40.92h16.36l5.68,40.92h-9.54l-0.91-6.87h-6.86L375.99,512.65z
					 M377.9,497.58h4.77l-2.36-18.71L377.9,497.58z"/>
			</g>
			<g>
				<path style="fill:#C8A86F;" d="M421.47,504v8.65h-24.81v-40.92h10V504H421.47z"/>
			</g>
			<g>
				<path style="fill:#C8A86F;" d="M448.87,504v8.65h-24.81v-40.92h9.99V504H448.87z"/>
			</g>
		</g>
		<g>
			<g>
				<path style="fill:#C8A86F;" d="M485.59,497.95v6.14c0,6.97-5.68,9.47-12.63,9.47c-6.95,0-12.86-2.5-12.86-9.47v-23.81
					c0-6.96,5.68-9.47,12.63-9.47c6.95,0,12.63,2.5,12.63,9.47v4.69h-9.54v-3.19c0-1.78-1.32-2.73-3.09-2.73s-3.09,0.96-3.09,2.73
					v20.8c0,1.78,1.32,2.73,3.09,2.73s3.09-0.96,3.09-2.73v-4.64H485.59z"/>
			</g>
			<g>
				<path style="fill:#C8A86F;" d="M513.67,504v8.65h-24.81v-40.92h9.99V504H513.67z"/>
			</g>
			<g>
				<path style="fill:#C8A86F;" d="M541.52,471.73v32.36c0,6.97-5.68,9.47-12.63,9.47c-6.95,0-12.63-2.5-12.63-9.47v-32.36h9.59
					v30.86c0,1.78,1.27,2.73,3.04,2.73c1.77,0,3.04-0.96,3.04-2.73v-30.86H541.52z"/>
			</g>
			<g>
				<path style="fill:#C8A86F;" d="M554.25,510.83v1.82h-9.54v-40.92h15.72c5.95,0,8.95,1.09,9.09,7.28v5.6
					c0,2.96-2.68,5.83-6.13,5.96c3.54,0.23,6.59,3.28,6.59,6.46v8.33c0,5.64-2.23,8.28-9.09,6.83L554.25,510.83z M557.47,479.92
					h-3.23v7.28h3.23c1.95-0.05,2.73-0.96,2.73-3.19v-0.91C560.2,481.15,559.65,479.92,557.47,479.92z M554.25,502.68l2.77,0.55
					c2.32,0.5,3.63,0.27,3.63-1.96v-4.05c0-1.96-1.73-2.28-3.18-2.28h-3.23V502.68z"/>
			</g>
		</g>
	</g>
	<g>
		<g>
			<g>
				<path style="fill:#FFFFFF;" d="M127.02,287.45c25.62,0,51.24,0,76.86,0c-0.02,7.95-0.03,11.93-0.06,19.88
					c0.28,48.9-31.73,71.59-76.8,76.18c0-10.39,0-20.78,0-31.18c22.58-1.6,47.64-8.4,47.69-35.2c-15.9,0.46-31.79,0.96-47.69,1.49
					C127.02,308.23,127.02,297.84,127.02,287.45z"/>
			</g>
			<g>
				<path style="fill:#FFFFFF;" d="M216.21,287.45c10.76,0,21.51,0,32.27,0c-0.09,28.71-0.18,57.42-0.27,86.13
					c-10.75,0.62-21.51,1.31-32.25,2.08C216.03,346.26,216.12,316.85,216.21,287.45z"/>
			</g>
			<g>
				<path style="fill:#FFFFFF;" d="M551.39,379.18c40.62,2.63,81.13,6.16,121.6,10.6c0,11.69,0,23.38,0,35.07
					c-14.8-2.24-29.63-4.3-44.48-6.18c0.03,14.76,0.06,29.53,0.09,44.29c-10.73-1.83-21.5-3.52-32.28-5.06
					c-0.04-14.34-0.08-28.67-0.12-43.01c-14.88-1.61-29.79-3.03-44.7-4.28C551.45,400.14,551.42,389.66,551.39,379.18z"/>
			</g>
			<g>
				<g>
					<path style="fill:#FFFFFF;" d="M492.78,287.45c10.52,0,21.03,0,31.55,0c0.04,11.75,0.05,17.62,0.09,29.37
						c5.97,0.1,8.95,0.15,14.92,0.26c0.03,10.11,0.06,20.22,0.1,30.33c-5.97-0.22-8.95-0.33-14.92-0.53
						c0.03,11.54,0.05,17.32,0.09,28.86c-10.53-0.53-21.06-0.99-31.59-1.37C492.93,345.39,492.86,316.42,492.78,287.45z"/>
				</g>
				<g>
					<path style="fill:#FFFFFF;" d="M399.57,344.3c19.64-5.64,27.33-27.61,27.11-46.06c0-4.32-0.01-6.47-0.01-10.79
						c10.42,0,20.84,0,31.26,0c0.01,4.34,0.01,6.51,0.02,10.86c-0.69,19.17,8.29,38.58,27.22,45.27
						c0.02,10.17,0.05,20.34,0.07,30.51c-17.15-4.3-32.72-14.81-42.72-29.39c-9.1,15.65-25.99,25.08-42.95,29.59
						C399.57,362.3,399.57,356.3,399.57,344.3z"/>
				</g>
			</g>
			<g>
				<path style="fill:#FFFFFF;" d="M335.36,329.42c8.21-0.1,12.32-0.15,20.53-0.22c0.02-13.92,0.04-27.84,0.06-41.76
					c10.52,0,21.03,0,31.55,0c-0.01,34.27-0.03,68.53-0.04,102.8c-10.55,0.06-21.1,0.2-31.65,0.43c0.02-11.61,0.03-23.22,0.05-34.83
					c-8.22,0.12-12.33,0.19-20.54,0.36C335.33,345.49,335.34,340.13,335.36,329.42z"/>
			</g>
			<g>
				<path style="fill:#FFFFFF;" d="M343.72,390.97c-16.34-1.72-32.78-8.49-42.78-21.97c-9.14,14.37-25.47,22.07-41.42,25.96
					c0.04-11.86,0.06-17.79,0.09-29.66c17.47-3.73,26.65-17.15,26.22-34.99c0-1.16,0.01-1.74,0.01-2.9
					c-10.45,0.22-15.67,0.34-26.11,0.61c0.04-11.72,0.06-17.58,0.09-29.31c10.38-0.07,15.58-0.11,25.96-0.17
					c0.01-4.44,0.02-6.66,0.03-11.1c10.32,0,20.65,0,30.98,0c-0.01,4.38-0.02,6.57-0.03,10.95c10.27-0.04,15.41-0.06,25.68-0.09
					c-0.02,11.29-0.03,16.94-0.05,28.23c-10.45,0.11-15.68,0.18-26.12,0.34c0,1.15,0,1.72-0.01,2.86
					c-1.15,17.47,10.42,30.68,27.51,32.68C343.75,373.84,343.74,379.55,343.72,390.97z"/>
			</g>
			<g>
				<path style="fill:#FFFFFF;" d="M127.02,392.7c40.31-4.55,80.68-8.17,121.16-10.88c-0.07,22.89-0.15,45.77-0.22,68.66
					c-10.62,1.16-21.23,2.46-31.81,3.89c0.01-1.86,0.01-2.79,0.01-4.65c-29.94,5.61-59.61,12.1-89.14,19.56
					C127.02,443.75,127.02,418.23,127.02,392.7z M158.63,433.16c19.16-3.66,38.34-7.02,57.6-10.09c0.01-4.87,0.02-7.3,0.04-12.16
					c-19.24,1.97-38.43,4.17-57.62,6.61C158.65,423.78,158.64,426.91,158.63,433.16z"/>
			</g>
			<g>
				<path style="fill:#FFFFFF;" d="M387.43,442.17c-41.3,0.59-82.41,2.8-123.54,6.65c0.05-16.6,0.1-33.2,0.16-49.8
					c11.16-0.77,22.34-1.44,33.52-2.01c-0.02,8.42-0.03,12.63-0.06,21.06c29.97-1.72,59.92-2.75,89.93-3.09
					C387.44,425.86,387.43,431.3,387.43,442.17z"/>
			</g>
			<g>
				<path style="fill:#FFFFFF;" d="M429.68,382.48c23.47,0.38,46.93,1.05,70.38,2.03c16.34,1.45,28.13,17.23,28.24,32.93
					c0.11,15.37-12.13,29.71-28.08,29.15c-23.49-1.6-46.96-2.71-70.49-3.33c-16.49,0.33-27.93-16.1-27.96-30.65
					C401.75,398.11,413.03,381.49,429.68,382.48z M489.96,420.39c4.03,0.22,6.75-0.97,6.74-5.03c-0.01-4.57-2.75-5.74-6.77-5.94
					c-16.71-0.78-33.42-1.39-50.15-1.82c-3.45-0.08-6.19,0.87-6.18,5.36c0,3.99,2.74,5.37,6.2,5.46
					C456.53,418.88,473.24,419.54,489.96,420.39z"/>
			</g>
			<g>
				<path style="fill:#FFFFFF;" d="M551.1,287.45c40.63,0,81.26,0,121.89,0c0,28.06,0,56.12,0,84.17
					c-40.5-3.65-81.04-6.56-121.65-8.72C551.26,337.75,551.18,312.6,551.1,287.45z M582.07,334.61c20.06,0.78,40.11,1.66,60.16,2.63
					c-0.01-7.09-0.02-10.64-0.03-17.73c-20.06-0.63-40.12-1.19-60.18-1.7C582.04,324.54,582.05,327.9,582.07,334.61z"/>
			</g>
		</g>
	</g>
	<g>
		<path style="fill:#B81C22;" d="M260.79,533.53v75.66c2.01,2.83,4.07,5.65,6.18,8.45c15.25,20.16,32.23,38.26,50.87,54.37V533.53
			C298.83,533.53,279.81,533.53,260.79,533.53z"/>
		<path style="fill:#B81C22;" d="M482.15,533.27v138.52c21.4-18.48,40.46-39.48,57.06-63.11v-75.41
			C520.19,533.27,501.17,533.27,482.15,533.27z"/>
	</g>
</g>
</svg>
