<?xml version="1.0" encoding="utf-8"?>
<!-- Created by @FCLOGO 2024-10-12 GMT+8 15:33:23 . https://fclogo.top/ -->
<!-- FOR PERSONAL USE ONLY NOT FOR COMMERCIAL USE -->
<svg version="1.1" xmlns="http://www.w3.org/2000/svg" xmlns:xlink="http://www.w3.org/1999/xlink" x="0px" y="0px"
	 viewBox="0 0 800 800" style="enable-background:new 0 0 800 800;" xml:space="preserve">
<path style="fill:#CCCCCC;" d="M348.22,774.3c-0.79,0-1.38-0.22-1.77-0.65c-0.39-0.44-0.53-1.03-0.41-1.79l0.25-1.65
	c0.12-0.75,0.45-1.35,0.98-1.78c0.53-0.44,1.19-0.65,1.98-0.65c0.76,0,1.33,0.2,1.72,0.6c0.39,0.4,0.55,0.94,0.47,1.62h-1.24
	c0.03-0.36-0.06-0.64-0.26-0.84c-0.2-0.2-0.5-0.3-0.89-0.3c-0.42,0-0.76,0.12-1.03,0.35c-0.27,0.23-0.43,0.56-0.5,0.99l-0.26,1.66
	c-0.07,0.44-0.01,0.77,0.19,1c0.19,0.23,0.5,0.35,0.92,0.35c0.39,0,0.72-0.1,0.98-0.3c0.26-0.2,0.44-0.48,0.52-0.85h1.24
	c-0.14,0.69-0.47,1.23-0.99,1.63C349.61,774.1,348.97,774.3,348.22,774.3z M352.8,774.19l1-6.29h1.19l-0.19,1.19
	c0.34-0.87,0.97-1.3,1.91-1.3c0.67,0,1.17,0.21,1.49,0.62c0.32,0.42,0.43,0.99,0.31,1.71l-0.07,0.42h-1.27l0.06-0.32
	c0.07-0.45,0.01-0.8-0.17-1.04c-0.18-0.24-0.48-0.36-0.88-0.36c-0.4,0-0.74,0.12-1.01,0.37c-0.27,0.24-0.43,0.59-0.5,1.03
	l-0.63,3.97H352.8z M361.91,774.3c-0.77,0-1.35-0.22-1.73-0.67c-0.38-0.45-0.51-1.04-0.4-1.77l0.25-1.65
	c0.08-0.49,0.26-0.92,0.52-1.28c0.26-0.37,0.6-0.65,1.01-0.85c0.41-0.2,0.87-0.3,1.38-0.3c0.77,0,1.35,0.22,1.73,0.67
	c0.39,0.45,0.52,1.04,0.39,1.77l-0.17,1.12h-3.85l-0.09,0.53c-0.15,0.95,0.22,1.43,1.11,1.43c0.72,0,1.17-0.25,1.37-0.74h1.22
	c-0.17,0.53-0.5,0.96-1.01,1.28C363.16,774.14,362.58,774.3,361.91,774.3z M361.23,770.22l-0.05,0.29l2.65-0.01l0.05-0.29
	c0.07-0.47,0.01-0.82-0.17-1.07c-0.18-0.25-0.49-0.37-0.92-0.37c-0.44,0-0.8,0.13-1.06,0.38
	C361.48,769.39,361.31,769.75,361.23,770.22z M368.33,774.3c-0.63,0-1.1-0.21-1.41-0.64c-0.31-0.42-0.4-1-0.27-1.73l0.27-1.77
	c0.11-0.73,0.39-1.31,0.84-1.74c0.44-0.43,0.98-0.64,1.61-0.64c0.47,0,0.83,0.12,1.09,0.35c0.26,0.24,0.39,0.56,0.38,0.96h0.02
	l0.17-1.2h1.24l-1,6.29h-1.22l0.19-1.2h-0.02c-0.12,0.41-0.35,0.73-0.69,0.97C369.2,774.18,368.8,774.3,368.33,774.3z
	 M368.93,773.23c0.39,0,0.72-0.12,0.98-0.36c0.26-0.24,0.43-0.57,0.5-1.01l0.25-1.65c0.07-0.43,0.01-0.76-0.18-1
	c-0.19-0.24-0.47-0.36-0.86-0.36c-0.4,0-0.72,0.12-0.98,0.35c-0.26,0.24-0.42,0.57-0.49,1.01l-0.25,1.65
	c-0.07,0.44-0.01,0.78,0.17,1.01C368.24,773.11,368.53,773.23,368.93,773.23z M376.35,774.19c-0.57,0-0.99-0.16-1.26-0.47
	c-0.27-0.31-0.36-0.75-0.27-1.32l0.54-3.39h-1.74l0.17-1.12h1.74l0.27-1.72h1.24l-0.27,1.72h2.47l-0.18,1.12h-2.46l-0.54,3.39
	c-0.08,0.44,0.1,0.66,0.53,0.66h1.72l-0.17,1.12H376.35z M382.5,774.3c-0.77,0-1.35-0.22-1.73-0.67c-0.38-0.45-0.52-1.04-0.4-1.77
	l0.25-1.65c0.08-0.49,0.26-0.92,0.52-1.28c0.26-0.37,0.6-0.65,1.01-0.85c0.41-0.2,0.87-0.3,1.38-0.3c0.77,0,1.35,0.22,1.73,0.67
	c0.39,0.45,0.52,1.04,0.39,1.77l-0.17,1.12h-3.85l-0.09,0.53c-0.15,0.95,0.22,1.43,1.11,1.43c0.72,0,1.17-0.25,1.37-0.74h1.22
	c-0.17,0.53-0.5,0.96-1.01,1.28C383.76,774.14,383.18,774.3,382.5,774.3z M381.83,770.22l-0.05,0.29l2.65-0.01l0.05-0.29
	c0.07-0.47,0.01-0.82-0.17-1.07c-0.18-0.25-0.49-0.37-0.92-0.37c-0.44,0-0.8,0.13-1.06,0.38
	C382.08,769.39,381.91,769.75,381.83,770.22z M388.92,774.3c-0.63,0-1.1-0.21-1.4-0.64c-0.3-0.42-0.39-1-0.28-1.73l0.27-1.77
	c0.11-0.73,0.39-1.31,0.84-1.74c0.44-0.43,0.98-0.64,1.61-0.64c0.47,0,0.83,0.12,1.09,0.35c0.26,0.24,0.39,0.56,0.38,0.96h0.02
	l0.21-1.47l0.3-1.8h1.24l-1.33,8.35h-1.22l0.19-1.2h-0.02c-0.12,0.41-0.35,0.73-0.69,0.97C389.8,774.18,389.4,774.3,388.92,774.3z
	 M389.53,773.23c0.39,0,0.72-0.12,0.98-0.36c0.26-0.24,0.43-0.57,0.5-1.01l0.25-1.65c0.08-0.43,0.02-0.76-0.17-1
	c-0.19-0.24-0.48-0.36-0.87-0.36c-0.4,0-0.72,0.12-0.98,0.35c-0.26,0.24-0.42,0.57-0.49,1.01l-0.25,1.65
	c-0.08,0.44-0.02,0.78,0.16,1.01C388.83,773.11,389.13,773.23,389.53,773.23z M401.02,774.3c-0.47,0-0.84-0.12-1.1-0.35
	c-0.26-0.23-0.39-0.56-0.38-0.97h-0.01l-0.19,1.2h-1.22l1.33-8.35h1.24l-0.29,1.8l-0.27,1.47h0.05c0.12-0.41,0.35-0.73,0.69-0.97
	c0.34-0.23,0.74-0.35,1.21-0.35c0.63,0,1.1,0.21,1.4,0.64c0.3,0.43,0.39,1.01,0.28,1.74l-0.27,1.77c-0.11,0.73-0.39,1.31-0.84,1.73
	C402.18,774.09,401.64,774.3,401.02,774.3z M400.77,773.23c0.4,0,0.72-0.12,0.98-0.35c0.26-0.23,0.42-0.57,0.5-1.01l0.25-1.65
	c0.07-0.43,0.01-0.77-0.17-1.01c-0.18-0.24-0.47-0.35-0.87-0.35c-0.39,0-0.72,0.12-0.98,0.36c-0.26,0.24-0.43,0.57-0.5,1l-0.25,1.65
	c-0.07,0.44-0.01,0.77,0.17,1.01C400.08,773.11,400.37,773.23,400.77,773.23z M405.47,776.25l0.17-1.06h1.93
	c0.64,0,1.01-0.3,1.1-0.9l0.1-0.67l0.21-1.19h-0.03c-0.12,0.42-0.35,0.74-0.68,0.97c-0.33,0.23-0.73,0.34-1.2,0.34
	c-0.63,0-1.09-0.2-1.4-0.6c-0.31-0.4-0.41-0.94-0.3-1.63l0.58-3.6h1.24l-0.56,3.48c-0.06,0.41,0,0.73,0.18,0.96
	c0.18,0.23,0.47,0.34,0.85,0.34c0.39,0,0.72-0.12,0.98-0.37c0.27-0.24,0.43-0.58,0.49-1.02l0.54-3.4h1.24l-1.01,6.41
	c-0.1,0.6-0.37,1.08-0.81,1.42c-0.44,0.35-1,0.52-1.67,0.52H405.47z M417.79,770.09h3.22l0.54-1.85h-5.47l-1.71,6.44h2.15l0.59-2.1
	h3.03l0.44-1.71h-3.03L417.79,770.09z M424.23,772.92c-0.59,0-1.02-0.39-1.02-1.12c0-0.88,0.63-1.76,1.61-1.76
	c0.49,0,0.88,0.24,1.02,0.78l1.95-0.83c-0.29-1.17-1.27-1.9-2.64-1.9c-2.78,0-4.15,2.15-4.15,3.9c0,1.76,1.27,2.83,3.07,2.83
	c1.37,0,2.34-0.59,2.98-1.42l-1.51-1.17C425.16,772.67,424.72,772.92,424.23,772.92z M430.91,768.23h-2.15l-1.76,6.44h5.12
	l0.49-1.85h-2.93L430.91,768.23z M439.75,771.01c0-1.66-1.32-2.93-3.22-2.93c-2.2,0-3.81,1.81-3.81,3.81c0,1.66,1.32,2.93,3.22,2.93
	C438.14,774.82,439.75,773.01,439.75,771.01z M434.92,771.7c0-0.83,0.59-1.71,1.51-1.71c0.78,0,1.17,0.54,1.17,1.22
	c0,0.83-0.59,1.71-1.51,1.71C435.31,772.92,434.92,772.38,434.92,771.7z M443.21,772.23h1.07l-0.2,0.68
	c-0.15,0.05-0.34,0.1-0.59,0.1c-0.68,0-1.27-0.39-1.27-1.22c0-1.02,0.73-1.9,1.95-1.9c0.59,0,1.12,0.24,1.51,0.59l1.37-1.37
	c-0.44-0.54-1.51-1.07-2.73-1.07c-2.59,0-4.29,1.76-4.29,3.86c0,2.05,1.61,2.88,3.22,2.88c0.93,0,1.85-0.29,2.49-0.68l0.93-3.32
	h-3.12L443.21,772.23z M450.78,768.08c-2.2,0-3.81,1.81-3.81,3.81c0,1.66,1.32,2.93,3.22,2.93c2.2,0,3.81-1.81,3.81-3.81
	C454,769.35,452.68,768.08,450.78,768.08z M450.34,772.92c-0.78,0-1.17-0.54-1.17-1.22c0-0.83,0.59-1.71,1.51-1.71
	c0.78,0,1.17,0.54,1.17,1.22C451.85,772.04,451.27,772.92,450.34,772.92z M437.94,767.5c-0.05,0.29,0.1,0.49,0.44,0.49
	s0.54-0.2,0.63-0.49c0.05-0.24-0.1-0.49-0.44-0.49C438.24,767.01,437.99,767.25,437.94,767.5z M432.13,765.5
	c-0.44,0-0.73,0.24-0.78,0.59c-0.05,0.34,0.1,0.59,0.54,0.59s0.73-0.24,0.78-0.59C432.77,765.74,432.57,765.5,432.13,765.5z
	 M433.01,767.3c-0.1,0.54,0.15,0.88,0.83,0.88c0.63,0,1.07-0.39,1.17-0.88s-0.15-0.88-0.83-0.88
	C433.5,766.43,433.11,766.82,433.01,767.3z M439.6,777.55l-2.44-1.81h-1.51l4.25,3.17l1.61-3.17h-0.98L439.6,777.55z M425.84,767.16
	l-2-1.46l23.13-2.78l-2.15,4.25h1.02l2.68-5.32l-26.99,3.22l2.78,2.1H425.84z M338.72,785.79l0.61-3.83h2.32l-0.08,0.52h-1.76
	l-0.18,1.14h1.63l-0.08,0.52h-1.62l-0.26,1.64H338.72z M342.97,785.84c-0.36,0-0.62-0.1-0.8-0.3c-0.17-0.2-0.23-0.47-0.18-0.82
	l0.27-1.7c0.06-0.34,0.2-0.61,0.44-0.82c0.24-0.2,0.54-0.3,0.89-0.3c0.36,0,0.62,0.1,0.8,0.3c0.17,0.2,0.24,0.47,0.18,0.81
	l-0.27,1.71c-0.06,0.34-0.2,0.62-0.44,0.82C343.63,785.74,343.33,785.84,342.97,785.84z M343.05,785.33c0.19,0,0.35-0.05,0.47-0.16
	c0.12-0.11,0.19-0.26,0.23-0.46l0.27-1.7c0.03-0.2,0.01-0.35-0.08-0.46c-0.08-0.11-0.22-0.16-0.41-0.16s-0.35,0.05-0.46,0.16
	c-0.12,0.1-0.19,0.26-0.22,0.46l-0.27,1.7c-0.03,0.2-0.01,0.35,0.08,0.46C342.72,785.28,342.86,785.33,343.05,785.33z M345,785.79
	l0.61-3.83h1.2c0.24,0,0.44,0.05,0.6,0.14c0.16,0.09,0.28,0.22,0.36,0.39c0.07,0.17,0.09,0.37,0.05,0.59
	c-0.04,0.26-0.14,0.48-0.3,0.67c-0.16,0.19-0.37,0.32-0.6,0.39l0.54,1.64h-0.62l-0.48-1.57h-0.54l-0.25,1.57H345z M345.89,783.71
	h0.64c0.19,0,0.35-0.06,0.48-0.17c0.13-0.11,0.21-0.26,0.24-0.45c0.03-0.19,0-0.35-0.09-0.46c-0.09-0.11-0.24-0.17-0.43-0.17h-0.64
	L345.89,783.71z M349.54,785.79l0.61-3.83h1.25c0.37,0,0.65,0.1,0.84,0.31c0.19,0.21,0.26,0.49,0.2,0.84
	c-0.04,0.23-0.12,0.44-0.25,0.61s-0.29,0.31-0.49,0.4c-0.2,0.09-0.42,0.14-0.66,0.14h-0.69l-0.24,1.52H349.54z M350.43,783.75h0.69
	c0.19,0,0.36-0.06,0.49-0.18c0.14-0.12,0.22-0.27,0.25-0.47c0.03-0.2,0-0.35-0.1-0.47c-0.1-0.12-0.25-0.18-0.44-0.18h-0.69
	L350.43,783.75z M352.75,785.79l0.61-3.83h2.25l-0.08,0.5h-1.7l-0.17,1.09h1.51l-0.08,0.5h-1.51l-0.19,1.24h1.69l-0.08,0.5H352.75z
	 M355.84,785.79l0.61-3.83h1.2c0.24,0,0.44,0.05,0.6,0.14c0.16,0.09,0.28,0.22,0.36,0.39c0.07,0.17,0.09,0.37,0.05,0.59
	c-0.04,0.26-0.14,0.48-0.3,0.67c-0.16,0.19-0.37,0.32-0.6,0.39l0.54,1.64h-0.62l-0.48-1.57h-0.54l-0.25,1.57H355.84z M356.74,783.71
	h0.64c0.19,0,0.35-0.06,0.48-0.17c0.13-0.11,0.21-0.26,0.24-0.45c0.03-0.19,0-0.35-0.09-0.46c-0.09-0.11-0.24-0.17-0.43-0.17h-0.64
	L356.74,783.71z M360.13,785.84c-0.39,0-0.67-0.1-0.87-0.29c-0.19-0.19-0.26-0.45-0.22-0.78h0.57c-0.03,0.17,0.01,0.31,0.12,0.41
	c0.11,0.1,0.27,0.15,0.48,0.15c0.2,0,0.37-0.05,0.5-0.15c0.13-0.1,0.21-0.23,0.24-0.4c0.02-0.15,0-0.28-0.06-0.39
	c-0.06-0.11-0.16-0.18-0.29-0.22l-0.46-0.14c-0.27-0.08-0.46-0.22-0.59-0.41c-0.13-0.19-0.17-0.42-0.13-0.68
	c0.04-0.21,0.11-0.39,0.23-0.55c0.12-0.16,0.27-0.28,0.46-0.37c0.19-0.09,0.4-0.13,0.64-0.13c0.35,0,0.62,0.1,0.8,0.29
	c0.18,0.19,0.25,0.44,0.2,0.76h-0.57c0.03-0.17,0-0.3-0.09-0.4c-0.09-0.1-0.23-0.14-0.42-0.14c-0.19,0-0.34,0.04-0.46,0.13
	c-0.12,0.09-0.19,0.21-0.21,0.38c-0.02,0.15-0.01,0.28,0.05,0.39c0.06,0.11,0.16,0.18,0.29,0.22l0.47,0.15
	c0.26,0.08,0.46,0.22,0.58,0.41c0.12,0.19,0.17,0.42,0.12,0.69c-0.04,0.22-0.12,0.41-0.24,0.57c-0.13,0.16-0.29,0.29-0.49,0.38
	C360.6,785.79,360.38,785.84,360.13,785.84z M363.27,785.84c-0.36,0-0.62-0.1-0.8-0.3c-0.17-0.2-0.23-0.47-0.18-0.82l0.27-1.7
	c0.06-0.34,0.2-0.61,0.44-0.82c0.24-0.2,0.54-0.3,0.89-0.3c0.36,0,0.62,0.1,0.8,0.3c0.17,0.2,0.24,0.47,0.18,0.81l-0.27,1.71
	c-0.06,0.34-0.2,0.62-0.44,0.82C363.92,785.74,363.62,785.84,363.27,785.84z M363.34,785.33c0.19,0,0.35-0.05,0.47-0.16
	c0.12-0.11,0.19-0.26,0.23-0.46l0.27-1.7c0.03-0.2,0.01-0.35-0.08-0.46c-0.08-0.11-0.22-0.16-0.41-0.16c-0.19,0-0.35,0.05-0.46,0.16
	c-0.12,0.1-0.19,0.26-0.22,0.46l-0.27,1.7c-0.03,0.2-0.01,0.35,0.08,0.46C363.02,785.28,363.15,785.33,363.34,785.33z
	 M365.28,785.79l0.61-3.83h0.71l0.62,3.19c0.01-0.1,0.02-0.22,0.03-0.36c0.01-0.14,0.03-0.29,0.04-0.44
	c0.02-0.15,0.04-0.29,0.06-0.41l0.31-1.98h0.52l-0.61,3.83h-0.71l-0.61-3.19c-0.01,0.09-0.02,0.21-0.03,0.34s-0.03,0.28-0.04,0.42
	c-0.02,0.15-0.04,0.28-0.06,0.41l-0.31,2.01H365.28z M368.23,785.79l1.59-3.83h0.75l0.37,3.83h-0.56l-0.07-0.97h-1.09l-0.39,0.97
	H368.23z M369.39,784.34h0.87l-0.09-1.1c-0.02-0.2-0.03-0.37-0.04-0.51c-0.01-0.14-0.01-0.24-0.01-0.3c-0.02,0.06-0.05,0.16-0.1,0.3
	c-0.05,0.14-0.11,0.31-0.19,0.5L369.39,784.34z M371.72,785.79l0.61-3.83h0.57l-0.52,3.31h1.67l-0.08,0.52H371.72z M376.68,785.84
	c-0.37,0-0.63-0.1-0.8-0.3c-0.17-0.2-0.22-0.48-0.17-0.82l0.44-2.76h0.57l-0.44,2.76c-0.03,0.2-0.01,0.35,0.07,0.46
	c0.08,0.11,0.21,0.17,0.41,0.17c0.19,0,0.35-0.06,0.46-0.17c0.12-0.11,0.19-0.27,0.22-0.46l0.44-2.76h0.57l-0.44,2.76
	c-0.06,0.35-0.2,0.62-0.43,0.82C377.35,785.74,377.05,785.84,376.68,785.84z M379.84,785.84c-0.39,0-0.67-0.1-0.87-0.29
	c-0.19-0.19-0.26-0.45-0.22-0.78h0.57c-0.03,0.17,0.01,0.31,0.12,0.41c0.11,0.1,0.27,0.15,0.48,0.15c0.2,0,0.37-0.05,0.5-0.15
	c0.13-0.1,0.21-0.23,0.24-0.4c0.02-0.15,0-0.28-0.06-0.39c-0.06-0.11-0.16-0.18-0.29-0.22l-0.46-0.14
	c-0.27-0.08-0.46-0.22-0.59-0.41c-0.13-0.19-0.17-0.42-0.13-0.68c0.04-0.21,0.11-0.39,0.23-0.55s0.27-0.28,0.46-0.37
	c0.19-0.09,0.4-0.13,0.64-0.13c0.35,0,0.62,0.1,0.8,0.29c0.18,0.19,0.25,0.44,0.2,0.76h-0.57c0.03-0.17,0-0.3-0.09-0.4
	c-0.09-0.1-0.23-0.14-0.42-0.14c-0.19,0-0.34,0.04-0.46,0.13c-0.12,0.09-0.19,0.21-0.21,0.38c-0.02,0.15-0.01,0.28,0.05,0.39
	c0.06,0.11,0.16,0.18,0.29,0.22l0.47,0.15c0.26,0.08,0.46,0.22,0.58,0.41c0.12,0.19,0.17,0.42,0.12,0.69
	c-0.04,0.22-0.12,0.41-0.24,0.57c-0.13,0.16-0.29,0.29-0.49,0.38C380.31,785.79,380.09,785.84,379.84,785.84z M381.91,785.79
	l0.61-3.83h2.25l-0.08,0.5h-1.7l-0.17,1.09h1.51l-0.08,0.5h-1.51l-0.19,1.24h1.69l-0.08,0.5H381.91z M386.94,785.84
	c-0.36,0-0.62-0.1-0.8-0.3c-0.17-0.2-0.23-0.47-0.18-0.82l0.27-1.7c0.06-0.34,0.2-0.61,0.44-0.82c0.24-0.2,0.54-0.3,0.89-0.3
	c0.36,0,0.62,0.1,0.8,0.3c0.17,0.2,0.24,0.47,0.18,0.81l-0.27,1.71c-0.06,0.34-0.2,0.62-0.44,0.82
	C387.6,785.74,387.3,785.84,386.94,785.84z M387.02,785.33c0.19,0,0.35-0.05,0.47-0.16c0.12-0.11,0.19-0.26,0.23-0.46l0.27-1.7
	c0.03-0.2,0.01-0.35-0.08-0.46c-0.08-0.11-0.22-0.16-0.41-0.16c-0.19,0-0.35,0.05-0.46,0.16c-0.12,0.1-0.19,0.26-0.22,0.46
	l-0.27,1.7c-0.03,0.2-0.01,0.35,0.08,0.46C386.7,785.28,386.83,785.33,387.02,785.33z M388.95,785.79l0.61-3.83h0.71l0.62,3.19
	c0.01-0.1,0.02-0.22,0.03-0.36c0.01-0.14,0.03-0.29,0.04-0.44c0.02-0.15,0.04-0.29,0.06-0.41l0.31-1.98h0.52l-0.61,3.83h-0.71
	l-0.61-3.19c-0.01,0.09-0.02,0.21-0.03,0.34c-0.01,0.13-0.03,0.28-0.04,0.42c-0.02,0.15-0.04,0.28-0.06,0.41l-0.31,2.01H388.95z
	 M392.25,785.79l0.61-3.83h0.57l-0.52,3.31h1.67l-0.08,0.52H392.25z M396.12,785.79l0.22-1.41l-0.75-2.42h0.58l0.45,1.45
	c0.03,0.09,0.05,0.18,0.07,0.27c0.02,0.08,0.03,0.15,0.03,0.19c0.02-0.04,0.05-0.1,0.09-0.19c0.04-0.08,0.09-0.17,0.14-0.27
	l0.9-1.45h0.6l-1.53,2.42l-0.22,1.41H396.12z M399.22,785.79l0.61-3.83h0.71l0.62,3.19c0.01-0.1,0.02-0.22,0.03-0.36
	c0.01-0.14,0.03-0.29,0.04-0.44c0.02-0.15,0.04-0.29,0.06-0.41l0.31-1.98h0.52l-0.61,3.83h-0.71l-0.61-3.19
	c-0.01,0.09-0.02,0.21-0.03,0.34c-0.01,0.13-0.03,0.28-0.04,0.42c-0.02,0.15-0.04,0.28-0.06,0.41l-0.31,2.01H399.22z M403.51,785.84
	c-0.36,0-0.62-0.1-0.8-0.3c-0.18-0.2-0.23-0.47-0.18-0.82l0.27-1.7c0.06-0.34,0.2-0.61,0.44-0.82c0.24-0.2,0.54-0.3,0.89-0.3
	c0.36,0,0.62,0.1,0.8,0.3c0.17,0.2,0.24,0.47,0.18,0.81l-0.27,1.71c-0.06,0.34-0.2,0.62-0.44,0.82
	C404.16,785.74,403.86,785.84,403.51,785.84z M403.58,785.33c0.19,0,0.35-0.05,0.47-0.16c0.12-0.11,0.19-0.26,0.23-0.46l0.27-1.7
	c0.03-0.2,0.01-0.35-0.08-0.46c-0.08-0.11-0.22-0.16-0.41-0.16c-0.19,0-0.35,0.05-0.46,0.16c-0.12,0.1-0.19,0.26-0.22,0.46
	l-0.27,1.7c-0.03,0.2-0.01,0.35,0.08,0.46C403.26,785.28,403.4,785.33,403.58,785.33z M406.38,785.79l0.52-3.31h-1.02l0.08-0.52
	h2.62l-0.08,0.52h-1.03l-0.52,3.31H406.38z M409.52,785.79l0.61-3.83h2.32l-0.08,0.52h-1.76l-0.18,1.14h1.63l-0.08,0.52h-1.62
	l-0.26,1.64H409.52z M413.77,785.84c-0.36,0-0.62-0.1-0.8-0.3c-0.18-0.2-0.23-0.47-0.18-0.82l0.27-1.7c0.06-0.34,0.2-0.61,0.44-0.82
	c0.24-0.2,0.54-0.3,0.89-0.3c0.36,0,0.62,0.1,0.8,0.3c0.17,0.2,0.24,0.47,0.18,0.81l-0.27,1.71c-0.06,0.34-0.2,0.62-0.44,0.82
	C414.42,785.74,414.13,785.84,413.77,785.84z M413.85,785.33c0.19,0,0.35-0.05,0.47-0.16c0.12-0.11,0.19-0.26,0.23-0.46l0.27-1.7
	c0.03-0.2,0.01-0.35-0.08-0.46c-0.08-0.11-0.22-0.16-0.41-0.16c-0.19,0-0.35,0.05-0.46,0.16c-0.12,0.1-0.19,0.26-0.22,0.46
	l-0.27,1.7c-0.03,0.2-0.01,0.35,0.08,0.46C413.52,785.28,413.66,785.33,413.85,785.33z M415.8,785.79l0.61-3.83h1.2
	c0.24,0,0.44,0.05,0.6,0.14c0.16,0.09,0.28,0.22,0.36,0.39c0.07,0.17,0.09,0.37,0.05,0.59c-0.04,0.26-0.14,0.48-0.3,0.67
	c-0.16,0.19-0.37,0.32-0.6,0.39l0.54,1.64h-0.62l-0.48-1.57h-0.54l-0.25,1.57H415.8z M416.69,783.71h0.64
	c0.19,0,0.35-0.06,0.48-0.17c0.13-0.11,0.21-0.26,0.24-0.45c0.03-0.19,0-0.35-0.09-0.46c-0.09-0.11-0.24-0.17-0.43-0.17h-0.64
	L416.69,783.71z M420.91,785.84c-0.36,0-0.63-0.1-0.81-0.3c-0.18-0.2-0.24-0.47-0.19-0.82l0.27-1.7c0.06-0.35,0.21-0.62,0.45-0.82
	s0.55-0.3,0.91-0.3c0.36,0,0.63,0.1,0.81,0.3c0.18,0.2,0.24,0.47,0.19,0.82h-0.57c0.03-0.2,0-0.35-0.09-0.46
	c-0.09-0.11-0.23-0.16-0.42-0.16c-0.19,0-0.35,0.05-0.48,0.16c-0.12,0.1-0.2,0.26-0.23,0.45l-0.27,1.71c-0.03,0.2,0,0.35,0.09,0.46
	c0.09,0.11,0.23,0.16,0.42,0.16c0.19,0,0.35-0.05,0.47-0.16c0.12-0.11,0.2-0.26,0.23-0.46h0.57c-0.03,0.23-0.11,0.43-0.24,0.59
	c-0.12,0.17-0.28,0.3-0.47,0.39C421.36,785.79,421.14,785.84,420.91,785.84z M424.03,785.84c-0.36,0-0.62-0.1-0.8-0.3
	c-0.18-0.2-0.23-0.47-0.18-0.82l0.27-1.7c0.06-0.34,0.2-0.61,0.44-0.82c0.24-0.2,0.54-0.3,0.89-0.3c0.36,0,0.62,0.1,0.8,0.3
	c0.17,0.2,0.24,0.47,0.18,0.81l-0.27,1.71c-0.06,0.34-0.2,0.62-0.44,0.82C424.69,785.74,424.39,785.84,424.03,785.84z
	 M424.11,785.33c0.19,0,0.35-0.05,0.47-0.16c0.12-0.11,0.19-0.26,0.23-0.46l0.27-1.7c0.03-0.2,0.01-0.35-0.08-0.46
	c-0.08-0.11-0.22-0.16-0.41-0.16c-0.19,0-0.35,0.05-0.46,0.16c-0.12,0.1-0.19,0.26-0.22,0.46l-0.27,1.7
	c-0.03,0.2-0.01,0.35,0.08,0.46C423.79,785.28,423.92,785.33,424.11,785.33z M425.97,785.79l0.61-3.83h0.69l0.18,1.23
	c0.02,0.12,0.04,0.23,0.05,0.33c0.01,0.1,0.02,0.18,0.03,0.24c0.02-0.06,0.05-0.14,0.09-0.24c0.04-0.11,0.09-0.22,0.15-0.34
	l0.57-1.22h0.71l-0.61,3.83h-0.54l0.2-1.29c0.02-0.17,0.06-0.35,0.1-0.55c0.04-0.2,0.09-0.4,0.14-0.61c0.05-0.2,0.1-0.4,0.14-0.59
	c0.05-0.19,0.09-0.35,0.13-0.49l-0.86,1.86h-0.55l-0.28-1.86c0,0.14-0.01,0.29-0.02,0.47c-0.01,0.18-0.02,0.37-0.04,0.57
	c-0.02,0.2-0.04,0.41-0.06,0.61c-0.02,0.2-0.05,0.4-0.08,0.57l-0.2,1.29H425.97z M429.11,785.79l0.61-3.83h0.69l0.18,1.23
	c0.02,0.12,0.04,0.23,0.05,0.33c0.01,0.1,0.02,0.18,0.03,0.24c0.02-0.06,0.05-0.14,0.09-0.24c0.04-0.11,0.09-0.22,0.15-0.34
	l0.57-1.22h0.71l-0.61,3.83h-0.54l0.2-1.29c0.02-0.17,0.06-0.35,0.1-0.55c0.04-0.2,0.09-0.4,0.14-0.61c0.05-0.2,0.1-0.4,0.14-0.59
	c0.05-0.19,0.09-0.35,0.13-0.49l-0.86,1.86h-0.55l-0.28-1.86c0,0.14-0.01,0.29-0.02,0.47c-0.01,0.18-0.02,0.37-0.04,0.57
	c-0.02,0.2-0.04,0.41-0.06,0.61c-0.02,0.2-0.05,0.4-0.08,0.57l-0.2,1.29H429.11z M432.41,785.79l0.61-3.83h2.25l-0.08,0.5h-1.7
	l-0.17,1.09h1.51l-0.08,0.5h-1.51l-0.19,1.24h1.69l-0.08,0.5H432.41z M435.51,785.79l0.61-3.83h1.2c0.24,0,0.44,0.05,0.6,0.14
	c0.16,0.09,0.28,0.22,0.36,0.39c0.07,0.17,0.09,0.37,0.05,0.59c-0.04,0.26-0.14,0.48-0.3,0.67c-0.16,0.19-0.37,0.32-0.6,0.39
	l0.54,1.64h-0.62l-0.48-1.57h-0.54l-0.25,1.57H435.51z M436.4,783.71h0.64c0.19,0,0.35-0.06,0.48-0.17
	c0.13-0.11,0.21-0.26,0.24-0.45c0.03-0.19,0-0.35-0.09-0.46c-0.09-0.11-0.24-0.17-0.43-0.17h-0.64L436.4,783.71z M439.8,785.84
	c-0.36,0-0.63-0.1-0.81-0.3c-0.18-0.2-0.24-0.47-0.19-0.82l0.27-1.7c0.06-0.35,0.21-0.62,0.45-0.82s0.55-0.3,0.91-0.3
	c0.36,0,0.63,0.1,0.81,0.3c0.18,0.2,0.24,0.47,0.19,0.82h-0.57c0.03-0.2,0-0.35-0.09-0.46c-0.09-0.11-0.23-0.16-0.42-0.16
	c-0.19,0-0.35,0.05-0.47,0.16c-0.12,0.1-0.2,0.26-0.23,0.45l-0.27,1.71c-0.03,0.2,0,0.35,0.09,0.46c0.09,0.11,0.23,0.16,0.42,0.16
	s0.35-0.05,0.47-0.16c0.12-0.11,0.2-0.26,0.23-0.46h0.57c-0.03,0.23-0.11,0.43-0.24,0.59c-0.12,0.17-0.28,0.3-0.47,0.39
	C440.25,785.79,440.04,785.84,439.8,785.84z M441.88,785.79l0.08-0.5h0.78l0.45-2.82h-0.78l0.08-0.5h2.13l-0.08,0.5h-0.78
	l-0.45,2.82h0.78l-0.08,0.5H441.88z M444.74,785.79l1.59-3.83h0.75l0.37,3.83h-0.56l-0.07-0.97h-1.09l-0.39,0.97H444.74z
	 M445.9,784.34h0.87l-0.09-1.1c-0.02-0.2-0.03-0.37-0.04-0.51c-0.01-0.14-0.01-0.24-0.01-0.3c-0.02,0.06-0.05,0.16-0.1,0.3
	c-0.05,0.14-0.11,0.31-0.19,0.5L445.9,784.34z M448.24,785.79l0.61-3.83h0.57l-0.52,3.31h1.67l-0.08,0.52H448.24z M453.19,785.84
	c-0.37,0-0.63-0.1-0.8-0.3c-0.17-0.2-0.22-0.48-0.17-0.82l0.44-2.76h0.57l-0.44,2.76c-0.03,0.2-0.01,0.35,0.07,0.46
	c0.08,0.11,0.21,0.17,0.41,0.17c0.19,0,0.35-0.06,0.46-0.17c0.12-0.11,0.19-0.27,0.22-0.46l0.44-2.76h0.57l-0.44,2.76
	c-0.06,0.35-0.2,0.62-0.43,0.82C453.86,785.74,453.56,785.84,453.19,785.84z M456.36,785.84c-0.39,0-0.67-0.1-0.87-0.29
	c-0.19-0.19-0.26-0.45-0.22-0.78h0.57c-0.03,0.17,0.01,0.31,0.12,0.41c0.11,0.1,0.27,0.15,0.48,0.15c0.2,0,0.37-0.05,0.5-0.15
	s0.21-0.23,0.24-0.4c0.02-0.15,0-0.28-0.06-0.39c-0.06-0.11-0.16-0.18-0.29-0.22l-0.46-0.14c-0.27-0.08-0.46-0.22-0.59-0.41
	c-0.13-0.19-0.17-0.42-0.13-0.68c0.04-0.21,0.11-0.39,0.23-0.55c0.12-0.16,0.27-0.28,0.46-0.37c0.19-0.09,0.4-0.13,0.64-0.13
	c0.35,0,0.62,0.1,0.8,0.29c0.18,0.19,0.25,0.44,0.2,0.76h-0.57c0.03-0.17,0-0.3-0.09-0.4c-0.09-0.1-0.23-0.14-0.42-0.14
	c-0.19,0-0.34,0.04-0.46,0.13c-0.12,0.09-0.19,0.21-0.21,0.38c-0.02,0.15-0.01,0.28,0.05,0.39c0.06,0.11,0.16,0.18,0.29,0.22
	l0.47,0.15c0.26,0.08,0.46,0.22,0.58,0.41c0.12,0.19,0.17,0.42,0.12,0.69c-0.04,0.22-0.12,0.41-0.24,0.57
	c-0.13,0.16-0.29,0.29-0.49,0.38C456.82,785.79,456.6,785.84,456.36,785.84z M458.42,785.79l0.61-3.83h2.25l-0.08,0.5h-1.7
	l-0.17,1.09h1.51l-0.08,0.5h-1.51l-0.19,1.24h1.69l-0.08,0.5H458.42z"/>
<path style="fill:#214835;" d="M657.54,364.22c-0.69-1.26-1.55-2.69-2.58-4.36c-7.63,23.11-34.23,103.56-41,126.49
	c-0.46,1.55-3.15,11.58-3.15,11.58c-5.91,21.67-15.65,57.86-28.5,84.63c-10.03,20.93-17.03,34.23-37.44,55.16h-9.23
	c24.2-23.74,31.42-37.16,41.92-59.29c16.69-34.46,30.28-89.56,30.28-89.56c4.64-16.74,37.9-117.43,43.58-134.58
	c-1.43-2.47-3.21-5.22-5.1-8.26c-0.23-0.34-0.46-0.63-0.57-0.97l-31.14,97.13V297.76c13.25,19.5,23.16,34.63,30.28,45.87
	c0.34,0.52,0.69,0.97,0.86,1.43l4.47-13.82l0.23-0.75c-16.05-20.47-28.04-41.4-35.84-61.64v-2.47c-6.31-17.14-9.81-34.06-9.81-49.83
	c0-3.78,0.23-7.57,0.46-11.01c1.78-16.34,7.22-29.13,16.11-38.07c9.46-9.35,22.48-14.22,38.53-14.22c9.98,0,19.04,2.87,26.66,7.11
	c-0.29-0.46-0.63-0.75-0.97-1.2c-0.23-0.23-0.46-0.57-0.69-0.8c-9.46-9.86-39.34-17.14-66.06,3.9L527.49,92.2
	c0,0-54.93,31.59-63.19,36.35c-6.25-7.8-62.5-78.56-62.5-78.56s-56.31,70.76-62.56,78.56c-8.31-4.76-63.19-36.35-63.19-36.35
	l-91.34,69.95c-26.66-21.04-56.71-13.76-66.05-3.9c-0.23,0.23-0.46,0.57-0.69,0.8c-0.34,0.46-0.63,0.75-0.98,1.2
	c7.68-4.13,16.69-7.11,26.66-7.11c16.05,0,29.07,4.87,38.53,14.22l-0.34,0.11c8.89,8.94,14.33,21.73,16.11,38.07
	c0.34,3.56,0.46,7.22,0.46,11.01c0,15.77-3.44,32.68-9.81,49.83v2.47c-7.8,20.36-19.78,41.17-35.84,61.64l0.23,0.75l4.47,13.82
	c0,0,0.69-1.03,0.86-1.43c7.17-11.24,16.92-26.38,30.28-45.99V442.2l-31.14-97.13c-0.23,0.34-0.46,0.63-0.69,0.97
	c-2.01,3.04-3.67,5.79-5.1,8.26c5.68,17.14,38.93,117.72,43.64,134.58c0,0,13.53,55.1,30.22,89.56
	c10.61,22.13,17.83,35.55,42.03,59.29h-8.83c-20.47-20.93-27.47-34.23-37.5-55.16c-12.9-26.78-22.59-62.96-28.5-84.63
	c0,0-2.7-10.03-3.1-11.58c-6.94-22.94-33.37-103.38-41.06-126.49c-1.03,1.66-1.89,3.1-2.58,4.36c-1.09,1.89-1.89,3.33-2.47,4.3
	c-10.89,20.93-12.9,39.97,15.83,79.36c12.1,16.8,22.36,30.79,30.5,42.14c4.47,50.57,22.08,100.92,57.45,147.71h-53.9v71.22h129.42
	C365.16,737.9,401.8,750,401.8,750s36.58-12.1,78.9-41.06h129.24v-71.22h-53.67c35.44-46.79,52.98-97.13,57.45-147.71
	c8.09-11.24,18.35-25.34,30.45-42.14c28.73-39.51,26.72-58.43,15.83-79.36C659.54,367.55,658.63,366.11,657.54,364.22z
	 M194.52,171.27c14.85-11.41,76.43-58.66,82.57-63.3c7.17,4.13,65.31,37.61,65.31,37.61s50.69-63.65,59.29-74.43
	c8.54,10.78,59.29,74.43,59.29,74.43s58.72-33.83,65.42-37.73c5.68,4.36,67.72,51.95,82.63,63.42c-1.78,2.01-3.55,4.13-5.22,6.36
	l-76.89-58.77l-64.28,36.98L401.8,79.19l-60.89,76.66l-64.28-36.98l-76.89,58.77C198.08,175.4,196.3,173.28,194.52,171.27z
	 M462.47,303.15c4.87,0,6.77-2.92,9.23-13.36c0.75-3.67,1.43-7.45,3.21-17.03c1.43-8.66,0.92-6.02,1.55-9.12h3.44v35.84h-0.11
	c-6.19,5.79-11.87,8.54-18.46,8.54c-18.86,0-25.11-22.94-25.11-58.94c0-36.07,7.11-62.96,25.92-62.96c5.22,0,10.67,2.06,16.34,6.31
	v33.72h-3.67c-2.35-11.93-2.01-10.78-2.98-15.48l-0.69-2.75c-3.44-14.56-4.64-17.03-9.12-17.03c-4.47,0-5.22,4.01-7.34,13.36
	c-1.78,9.12-1.78,24.77-1.78,46.5C452.89,289.91,452.89,303.15,462.47,303.15z M404.61,242.37c2.87,0,3.9-0.52,4.87-2.98
	c0.57-1.43,1.43-4.7,1.78-7.68l0.34-3.21l0.57-3.15l0.46-3.21c0,0,0.29-1.66,0.52-3.1h2.47v50.92h-2.58
	c-1.55-11.87-2.01-15.54-3.21-19.44c-1.2-3.33-1.89-3.9-5.1-3.9h-3.1v54.93h6.88v4.01h-27.35v-4.01h4.64V192.32h-4.64v-4.01h45.58
	v37.96h-3.9c-0.34-2.12-0.57-3.78-0.69-4.47l-0.52-3.56l-0.46-4.01l-0.57-3.78c-0.52-2.98-1.78-8.89-2.41-11.52
	c-1.61-5.79-2.58-6.71-6.82-6.71h-9.75v50.17H404.61z M426.86,512.39l-0.69,5.1c-3.67,4.36-8.43,7.91-13.88,10.03l-5.05-0.97
	l5.16-13.47L426.86,512.39z M420.09,490.02l3.67-13.88l4.64,2.18c3.1,4.7,4.87,10.26,5.22,16.28l-2.41,4.53L420.09,490.02z
	 M387.58,513.07l5.1,13.47l-4.99,0.97c-5.45-2.12-10.26-5.68-13.93-10.03l-0.63-5.1L387.58,513.07z M368.78,499.14l-2.47-4.53
	c0.34-6.02,2.12-11.58,5.28-16.28l4.64-2.18l3.67,13.88L368.78,499.14z M388.5,492.26l11.53-8.43l11.58,8.43l-4.41,13.82H392.8
	L388.5,492.26z M400.03,475.69l-12.1-7.8l3.44-3.78c2.81-0.69,5.68-1.2,8.66-1.2c3.04,0,5.79,0.52,8.72,1.2l3.44,3.78L400.03,475.69
	z M318.37,192.43v-4.01h46.73v37.96h-3.44c-0.34-2.35-0.57-4.01-0.69-4.47l-0.52-3.44l-0.57-3.67l-0.69-3.78
	c-1.32-8.09-2.87-14.22-4.19-16.34c-1.03-1.78-2.24-2.35-5.28-2.35h-10.55v50.4h3.67c4.24,0,5.45-3.9,7.68-23.8h2.58v50.97h-2.58
	c-2.35-20.3-3.21-22.94-7.8-22.94h-3.56v54.59h10.55c5.05,0,6.25-1.78,8.14-11.18c0.8-4.01,1.78-10.03,2.58-15.6
	c0.4-2.92,0.63-4.24,1.09-8.66l0.34-1.78l0.23-1.89h3.44v43.35l-0.34-0.11h-46.85v-4.01h4.59V192.43H318.37z M235,566.11
	c-18.46-35.95-23.22-90.42-23.22-145.87V178.38l78.73-40.25l24.6,17.14v263.36c1.72-1.09,3.27-2.41,4.7-4.01
	c15.83-17.83-3.33-37.61,11.24-61.87c14.28-23.51,46.04-34.58,47.99-35.21c-9.63,7.8-16.11,28.15-8.6,48.11
	c7.11,18.46-0.63,43.18-6.02,53.61c-1.09,2.24-2.52,4.47-4.07,6.48c2.98,11.75,11.64,27.01,13.53,27.92
	c4.01,1.89,5.28-3.33,9.06-4.01c3.21-0.69,5.33,2.12,5.85,2.98c-0.97-1.32-4.99-2.01-5.85-1.43c-2.81,1.66-4.01,4.87-8.14,4.87
	c-4.82,0-13.36-17.66-17.49-27.12c-5.79,5.79-13.76,9.8-23.68,9.12c-10.03-0.8-15.25,3.04-18.52,6.88v109.12
	c9-6.08,25.06-14.68,44.95-14.68c31.36,0,60.09,15.94,97.59,15.94c15.42,0,24.89-2.7,30.45-5.1v-100.8
	c-3.1-4.36-7.57-12.5-21.73-11.35c-9.92,0.69-17.95-3.33-23.74-9.12c-4.07,9.46-12.67,27.12-17.43,27.12
	c-4.13,0-5.33-3.21-8.14-4.87c-0.86-0.57-4.87,0.11-5.91,1.43c0.57-0.86,2.7-3.67,5.91-2.98c3.78,0.69,4.99,5.91,9,4.01
	c1.89-0.92,10.61-16.17,13.59-27.92c-1.55-2.01-2.98-4.24-4.13-6.48c-5.33-10.44-13.13-35.15-6.02-53.61
	c7.51-19.95,1.09-40.31-8.54-48.11c1.95,0.63,33.72,11.7,47.94,35.21c14.56,24.25-4.53,44.04,11.24,61.87
	c2.24,2.58,4.99,4.47,7.97,5.85V155.28l24.6-17.14l78.78,40.25v241.86c0,55.45-4.82,109.92-23.28,145.87
	c-10.32,20.01-18.18,42.89-46.73,71.62H488.1v-14.56c-9.23,5.16-25.46,12.5-43.41,12.5c-24.77,0-77.06-15.14-97.19-15.14
	c-12.27,0-24.6,4.19-32.4,7.57v9.63h-33.31C253.24,609,245.38,586.12,235,566.11z M401.8,735.67c-0.34,0-23.28-6.77-55.85-26.72
	h12.84c23.11,13.13,39.39,18.69,42.77,19.84c3.38-1.15,19.72-6.71,42.83-19.84h13.13C425.03,728.9,402.09,735.55,401.8,735.67z
	 M603.35,644.21v58.08h-403.5v-58.08H603.35z M358.44,605.62c-19.91,0-35.93,8.57-44.94,14.68v-26.25
	c7.79-3.34,20.14-7.57,32.37-7.57c20.14,0,72.42,15.24,97.23,15.24c17.91,0,34.15-7.34,43.39-12.57v27.26
	c-5.56,2.45-15.02,5.12-30.48,5.12C418.51,621.53,389.81,605.62,358.44,605.62z M358.44,572.25c-19.91,0-35.93,8.45-44.94,14.68
	v-26.25c7.79-3.34,20.14-7.56,32.37-7.56c20.14,0,72.42,15.24,97.23,15.24c17.91,0,34.15-7.34,43.39-12.57v27.26
	c-5.56,2.45-15.02,5.12-30.48,5.12C418.51,588.15,389.81,572.25,358.44,572.25z M689.29,168.41h-0.22c0.45,1.56,0.78,3.45,1,5.23
	c-0.11-0.11-0.22-0.22-0.33-0.33l-2.34-2c0,0-11.9-9.46-29.26-9.57c-6.79,0-38.83-1.45-38.83,55.96c0,57.4,39.94,79.77,39.94,79.77
	l-8.68,26.92c-27.7-36.27-42.72-73.31-42.72-106.24c0-21.47,5.23-37.6,15.35-47.73c8.57-8.45,20.25-12.68,35.04-12.68
	C670.38,157.73,680.84,162.4,689.29,168.41z M660.92,205.46c0,0,22.14-3,26.03-10.35c1.67-3,4.45-12.01,3.34-21.36
	c0.22,0.11,0.45,0.45,0.45,0.45v-0.11C705.09,187.66,695.3,223.26,660.92,205.46z M109.8,173.42c-0.11,0.11-0.22,0.22-0.33,0.33
	c0.22-1.78,0.56-3.56,1-5.23c8.45-5.9,19.02-10.68,31.04-10.68c14.8,0,26.48,4.23,35.04,12.68c10.23,10.12,15.35,26.37,15.35,47.73
	c0,32.82-15.02,69.98-42.72,106.24l-8.68-26.92c0,0,39.94-24.47,39.94-79.77c0-55.29-31.93-55.96-38.83-55.96
	c-17.24,0.11-29.26,9.57-29.26,9.57l-2.34,2H109.8z M139.06,205.57c-34.26,17.69-44.17-17.91-29.81-31.37
	c0.22-0.11,0.33-0.33,0.45-0.45c-1.11,9.34,1.67,18.36,3.34,21.36v0.11C116.81,202.56,139.06,205.57,139.06,205.57z M488.73,450.23
	c-0.17-0.23-0.4-0.52-0.63-0.8v-28.96c17.6,8.09,44.72-3.1,49.31-16.97c2.47,10.78,0.46,23.8-22.65,30.05
	c0,0,24.77,14.33,40.48-9.69c11.35-17.14,9.92-32.4,9.75-33.94c1.03,1.83,10.78,20.53,5.28,36.58
	c-5.79,17.03-22.71,26.15-49.6,23.51c0,0,0.63,13.02,22.53,13.02l0.11-0.11c21.16,0,39.16-21.27,40.54-22.94
	c-0.52,2.24-9.75,37.73-42.66,37.73C507.31,477.7,491.71,454.53,488.73,450.23z M315.11,418.64v26.32c-1.66,1.95-2.81,3.9-3.84,5.28
	c-2.98,4.3-18.58,27.47-52.52,27.47c-32.86,0-42.14-35.49-42.66-37.73c1.38,1.66,19.38,22.94,40.54,22.94l0.11,0.11
	c21.96,0,22.59-13.02,22.59-13.02c-26.89,2.64-43.81-6.48-49.6-23.51c-5.79-16.91,5.33-36.7,5.33-36.7s-2.35,15.94,9.69,34.06
	c15.65,24.03,40.48,9.69,40.48,9.69c-23.11-6.25-25.11-19.27-22.71-30.05C267.4,418.29,297.85,429.99,315.11,418.64z M221.38,695.95
	h-18.8v-1.67h1.89v-43.83h-1.89v-1.67h18.8v15.35h-1.45c0-1-0.33-1.67-0.33-1.78l-0.22-1.34l-0.22-1.56l-0.22-1.56
	c-0.56-3.23-1.22-5.79-1.78-6.56c-0.45-0.56-0.89-0.78-2.11-0.78h-4.23v20.25h1.45c1.78,0,2.22-1.67,3.12-9.79h1v20.58h-1
	c-0.89-8.23-1.34-9.34-3.12-9.34h-1.45v22.03h4.23c2,0,2.56-0.67,3.23-4.45c0.45-1.67,0.67-4.01,0.89-6.34
	c0.22-1.22,0.33-1.78,0.56-3.45v-0.78l0.22-0.67h1.45V695.95z M221.38,696.07v-0.11h0.11L221.38,696.07z M234.95,695.95h-10.12
	v-1.78h2v-43.83h-2v-1.67h10.12v1.67h-1.89v20.25h6.01v-20.25h-1.89v-1.67h10.12v1.67h-2v43.83h2v1.78h-10.12v-1.78h1.89v-21.92
	h-6.01v21.92h1.89V695.95z M260.43,695.95h-10.23v-1.78h1.89v-43.83h-1.89v-1.67h10.23v1.67h-1.89v43.83h1.89V695.95z
	 M269.44,695.95h-6.12v-1.78h1.78v-43.83h-1.78v-1.67h8.9l4.9,31.71l5.23-31.71h8.79v1.67h-1.78v43.83h1.78v1.78H279.9v-1.78h3
	v-42.72l-7.23,44.5h-2l-7.45-44.05v42.27h3.23V695.95z M312.83,696.07v-0.11h0.11L312.83,696.07z M312.83,695.95h-18.69v-1.67h1.89
	v-43.83h-1.89v-1.67h18.69v15.35h-1.34c-0.22-1-0.33-1.67-0.44-1.78l-0.22-1.34l-0.22-1.56l-0.33-1.56c-0.56-3.23-1-5.79-1.67-6.56
	c-0.44-0.56-0.78-0.78-2.11-0.78h-4.23v20.25h1.56c1.67,0,2.11-1.67,3.11-9.79h1v20.58h-1c-1-8.23-1.45-9.34-3.11-9.34h-1.56v22.03
	h4.23c2,0,2.56-0.67,3.23-4.45c0.33-1.67,0.67-4.01,1-6.34c0-1.22,0.22-1.78,0.56-3.45v-0.78l0.22-0.67h1.34V695.95z M336.74,695.84
	h-11.01v-1.67h1.89v-43.83h-1.89v-1.67h18.24v15.35h-1.56c0-0.89-0.22-1.56-0.33-1.78l-0.22-1.45l-0.33-1.56l-0.22-1.56
	c-0.22-1.34-0.67-3.67-0.89-4.78c-0.56-2.23-0.89-2.56-2.78-2.56h-3.89v20.25h1.22c1.22,0,1.56-0.33,1.89-1.22
	c0.33-0.67,0.56-2,0.67-3.11l0.22-1.45l0.22-1.33l0.22-1.22c0,0,0-0.56,0-1.34h1v20.58h-0.67c-0.56-4.78-0.78-6.34-1.33-7.9
	c-0.45-1.34-0.67-1.56-2-1.56h-1.22v22.14h2.78V695.84z M356.66,696.96c3.45,0,6.45-3.11,8.23-8.57c1.56-4.45,2.45-10.12,2.45-15.91
	c0-14.46-4.45-24.81-10.68-24.81c-6.23,0-10.68,10.57-10.68,24.47C345.98,686.94,350.32,696.96,356.66,696.96z M353.32,664.25
	c0.11-3.34,0.33-6.79,0.56-8.45l0.22-0.11c0.45-4.45,1.34-6.34,2.89-6.34c1.89,0,2.78,2.45,3.23,8.9c0,3.23,0,7.12,0,13.35
	c0,3.23,0,6.45,0,9.34c0,3.78-0.22,7.79-0.56,9.57c-0.44,3.12-1.45,4.9-2.89,4.9c-1.45,0-2.34-1.78-2.89-5.12
	c-0.33-2.56-0.56-8.01-0.56-14.35C353.32,670.7,353.32,667.36,353.32,664.25z M380.35,696.96c3.45,0,6.56-3.11,8.34-8.57
	c1.45-4.45,2.34-10.12,2.34-15.91c0-14.46-4.34-24.81-10.68-24.81c-6.01,0-10.57,10.57-10.57,24.47
	C369.79,686.94,374.01,696.96,380.35,696.96z M377.02,664.25c0.11-3.34,0.45-6.79,0.45-8.45l0.11-0.11
	c0.44-4.45,1.33-6.34,2.89-6.34c1.78,0,2.67,2.45,3.11,8.9c0.22,3.23,0.22,7.12,0.22,13.35c0,3.23,0,6.45,0,9.34
	c0,3.78-0.22,7.79-0.56,9.57c-0.45,3.12-1.45,4.9-2.89,4.9c-1.34,0-2.23-1.78-2.78-5.12c-0.33-2.56-0.56-8.01-0.56-14.35
	C377.02,670.7,377.02,667.36,377.02,664.25z M394.37,663.8h-1.56v-15.24h19.02v15.24v0.11h-1.45c-0.44-3.89-0.56-5.01-0.67-6.23
	c-0.78-6.34-1.33-7.34-3.12-7.34h-1v43.83h2.11v1.67h-10.68v-1.67h2.11v-43.83h-0.89c-1.67,0-2.11,0.56-2.78,4
	c-0.33,1.22-0.45,2.56-0.78,5.56l-0.33,2.34v0.56v0.45V663.8z M431.42,694.06c3-2.23,4.67-5.79,4.67-11.12
	c0-3.89-1.11-7.12-3.12-9.12c-1.45-1.45-2.78-2.11-5.9-2.67c5.01-1,7.57-4.78,7.57-11.12c0-7.56-3.34-11.35-10.12-11.35h-0.11
	h-10.46v1.67h1.89v43.83h-1.89v1.67h8.23C427.52,695.84,429.3,695.51,431.42,694.06z M422.3,650.45h1.89c3,0,4.01,2.22,4.01,9.79
	s-1.33,10.35-4.78,10.35l0.11,0.11h-1.22V650.45z M422.3,672.15h1.11c4.56,0,6.12,2.78,6.12,11.12s-1.22,10.9-5.23,10.9h-2V672.15z
	 M443.43,694.17h-3.34h-0.11l2.67-16.46h6.45l2.56,16.46h-2.78v1.67h11.57v-1.67h-1.78l-7.9-45.61h-4.23l-7.45,45.61h-2.11v1.67
	h6.45V694.17z M445.99,657.91l2.89,18.24h-5.9L445.99,657.91z M479.25,695.95h-17.69v-1.67h1.89v-43.83h-1.89v-1.67h11.01v1.67
	h-2.67v43.83h3.12c1.67,0,2.22-0.56,2.78-2.56c0.33-1.34,0.56-2.89,1.11-6.34c0-0.56,0.22-1.22,0.22-1.78l0.56-4.67
	c0,0,0-1,0.22-1.67h1.34V695.95z M499.5,695.95h-17.8v-1.67h1.89v-43.83h-1.89v-1.67h11.01v1.67h-2.67v43.83h3.23
	c1.56,0,2.11-0.56,2.67-2.56c0.33-1.34,0.56-2.89,1.11-6.34c0-0.56,0.22-1.22,0.22-1.78l0.56-4.67c0,0,0-1,0.22-1.67h1.45V695.95z
	 M510.74,673.15c0-14.46,5.01-25.36,12.24-25.36c2,0,4.12,0.89,6.34,2.67v13.35h-1.45c-0.89-4.67-0.78-4.23-1.22-6.12l-0.33-1.11
	c-1.34-5.9-1.78-6.9-3.56-6.9c-1.78,0-2.89,1.56-3.56,5.34c-0.67,3.78-1.11,10.01-1.11,18.8c0,15.8,1.22,21.14,4.89,21.14
	c1.89,0,2.67-1.11,3.56-5.34c0.45-1.45,0.67-2.89,1.34-6.9c0.67-3.45,0.45-2.34,0.67-3.67h1.34v14.35h0.11
	c-2.34,2.34-4.56,3.45-7.23,3.45C515.41,696.84,510.74,687.61,510.74,673.15z M550.57,695.95h-17.69v-1.67h1.78v-43.83h-1.78v-1.67
	h11.01v1.67h-2.78v43.83h3.34c1.56,0,2.23-0.56,2.67-2.56c0.33-1.34,0.56-2.89,1.11-6.34c0-0.56,0.22-1.22,0.33-1.78l0.56-4.67
	c0,0,0-1,0-1.67h1.45V695.95z M554.35,650.34h-1.78v-1.67h10.9v1.67h-2.67v32.6c0,3.89,0,6.45,0.56,8.23c0.56,2,1.78,3.34,3.11,3.34
	c1.56,0,2.89-1.22,3.78-3.45c0.89-2.34,1.34-5.12,1.34-11.24v-29.48h-2.89v-1.67h5.56v1.67h-1.67v30.04h0.11
	c0,12.01-2.23,16.46-8.01,16.46c-2.89,0-4.89-1.11-6.34-3.67c-1.56-2.45-2-5.9-2-12.13V650.34z M592.28,694.06
	c3-2.23,4.56-5.79,4.56-11.12c0-3.89-1-7.12-3-9.12c-1.45-1.45-2.89-2.11-5.9-2.67c5.01-1,7.57-4.78,7.57-11.12
	c0-7.56-3.45-11.35-10.12-11.35h-0.11h-10.46v1.67h1.89v43.83h-1.89v1.67h8.23C588.28,695.84,590.17,695.51,592.28,694.06z
	 M583.27,650.45h1.89c3,0,4.01,2.22,4.01,9.79s-1.34,10.35-4.78,10.35l0.11,0.11h-1.22V650.45z M583.16,672.15h1.11
	c4.56,0,6.12,2.78,6.12,11.12s-1.22,10.9-5.23,10.9h-2V672.15z"/>
</svg>
