<?xml version="1.0" encoding="utf-8"?>
<!-- Created by @FCLOGO 2024-9-25 GMT+8 16:07:21 . https://fclogo.top/ -->
<!-- FOR PERSONAL USE ONLY NOT FOR COMMERCIAL USE -->
<!-- Created by @FCLOGO 2024-9-25 GMT+8 16:07:21 . https://fclogo.top/ -->
<!-- FOR PERSONAL USE ONLY NOT FOR COMMERCIAL USE -->
<svg version="1.1" xmlns="http://www.w3.org/2000/svg" xmlns:xlink="http://www.w3.org/1999/xlink" x="0px" y="0px"
	 viewBox="0 0 800 800" style="enable-background:new 0 0 800 800;" xml:space="preserve">
<path style="fill:#CCCCCC;" d="M348.22,774.3c-0.79,0-1.38-0.22-1.77-0.65c-0.39-0.44-0.53-1.03-0.41-1.79l0.25-1.65
	c0.12-0.75,0.45-1.35,0.98-1.78c0.53-0.44,1.19-0.65,1.98-0.65c0.76,0,1.33,0.2,1.72,0.6c0.39,0.4,0.55,0.94,0.47,1.62h-1.24
	c0.03-0.36-0.06-0.64-0.26-0.84c-0.2-0.2-0.5-0.3-0.89-0.3c-0.42,0-0.76,0.12-1.03,0.35c-0.27,0.23-0.43,0.56-0.5,0.99l-0.26,1.66
	c-0.07,0.44-0.01,0.77,0.19,1c0.19,0.23,0.5,0.35,0.92,0.35c0.39,0,0.72-0.1,0.98-0.3c0.26-0.2,0.44-0.48,0.52-0.85h1.24
	c-0.14,0.69-0.47,1.23-0.99,1.63C349.61,774.1,348.97,774.3,348.22,774.3z M352.8,774.19l1-6.29h1.19l-0.19,1.19
	c0.34-0.87,0.97-1.3,1.91-1.3c0.67,0,1.17,0.21,1.49,0.62c0.32,0.42,0.43,0.99,0.31,1.71l-0.07,0.42h-1.27l0.06-0.32
	c0.07-0.45,0.01-0.8-0.17-1.04c-0.18-0.24-0.48-0.36-0.88-0.36c-0.4,0-0.74,0.12-1.01,0.37c-0.27,0.24-0.43,0.59-0.5,1.03
	l-0.63,3.97H352.8z M361.91,774.3c-0.77,0-1.35-0.22-1.73-0.67c-0.38-0.45-0.51-1.04-0.4-1.77l0.25-1.65
	c0.08-0.49,0.26-0.92,0.52-1.28c0.26-0.37,0.6-0.65,1.01-0.85c0.41-0.2,0.87-0.3,1.38-0.3c0.77,0,1.35,0.22,1.73,0.67
	c0.39,0.45,0.52,1.04,0.39,1.77l-0.17,1.12h-3.85l-0.09,0.53c-0.15,0.95,0.22,1.43,1.11,1.43c0.72,0,1.17-0.25,1.37-0.74h1.22
	c-0.17,0.53-0.5,0.96-1.01,1.28C363.16,774.14,362.58,774.3,361.91,774.3z M361.23,770.22l-0.05,0.29l2.65-0.01l0.05-0.29
	c0.07-0.47,0.01-0.82-0.17-1.07c-0.18-0.25-0.49-0.37-0.92-0.37c-0.44,0-0.8,0.13-1.06,0.38
	C361.48,769.39,361.31,769.75,361.23,770.22z M368.33,774.3c-0.63,0-1.1-0.21-1.41-0.64c-0.31-0.42-0.4-1-0.27-1.73l0.27-1.77
	c0.11-0.73,0.39-1.31,0.84-1.74c0.44-0.43,0.98-0.64,1.61-0.64c0.47,0,0.83,0.12,1.09,0.35c0.26,0.24,0.39,0.56,0.38,0.96h0.02
	l0.17-1.2h1.24l-1,6.29h-1.22l0.19-1.2h-0.02c-0.12,0.41-0.35,0.73-0.69,0.97C369.2,774.18,368.8,774.3,368.33,774.3z
	 M368.93,773.23c0.39,0,0.72-0.12,0.98-0.36c0.26-0.24,0.43-0.57,0.5-1.01l0.25-1.65c0.07-0.43,0.01-0.76-0.18-1
	c-0.19-0.24-0.47-0.36-0.86-0.36c-0.4,0-0.72,0.12-0.98,0.35c-0.26,0.24-0.42,0.57-0.49,1.01l-0.25,1.65
	c-0.07,0.44-0.01,0.78,0.17,1.01C368.24,773.11,368.53,773.23,368.93,773.23z M376.35,774.19c-0.57,0-0.99-0.16-1.26-0.47
	c-0.27-0.31-0.36-0.75-0.27-1.32l0.54-3.39h-1.74l0.17-1.12h1.74l0.27-1.72h1.24l-0.27,1.72h2.47l-0.18,1.12h-2.46l-0.54,3.39
	c-0.08,0.44,0.1,0.66,0.53,0.66h1.72l-0.17,1.12H376.35z M382.5,774.3c-0.77,0-1.35-0.22-1.73-0.67c-0.38-0.45-0.52-1.04-0.4-1.77
	l0.25-1.65c0.08-0.49,0.26-0.92,0.52-1.28c0.26-0.37,0.6-0.65,1.01-0.85c0.41-0.2,0.87-0.3,1.38-0.3c0.77,0,1.35,0.22,1.73,0.67
	c0.39,0.45,0.52,1.04,0.39,1.77l-0.17,1.12h-3.85l-0.09,0.53c-0.15,0.95,0.22,1.43,1.11,1.43c0.72,0,1.17-0.25,1.37-0.74h1.22
	c-0.17,0.53-0.5,0.96-1.01,1.28C383.76,774.14,383.18,774.3,382.5,774.3z M381.83,770.22l-0.05,0.29l2.65-0.01l0.05-0.29
	c0.07-0.47,0.01-0.82-0.17-1.07c-0.18-0.25-0.49-0.37-0.92-0.37c-0.44,0-0.8,0.13-1.06,0.38
	C382.08,769.39,381.91,769.75,381.83,770.22z M388.92,774.3c-0.63,0-1.1-0.21-1.4-0.64c-0.3-0.42-0.39-1-0.28-1.73l0.27-1.77
	c0.11-0.73,0.39-1.31,0.84-1.74c0.44-0.43,0.98-0.64,1.61-0.64c0.47,0,0.83,0.12,1.09,0.35c0.26,0.24,0.39,0.56,0.38,0.96h0.02
	l0.21-1.47l0.3-1.8h1.24l-1.33,8.35h-1.22l0.19-1.2h-0.02c-0.12,0.41-0.35,0.73-0.69,0.97C389.8,774.18,389.4,774.3,388.92,774.3z
	 M389.53,773.23c0.39,0,0.72-0.12,0.98-0.36c0.26-0.24,0.43-0.57,0.5-1.01l0.25-1.65c0.08-0.43,0.02-0.76-0.17-1
	c-0.19-0.24-0.48-0.36-0.87-0.36c-0.4,0-0.72,0.12-0.98,0.35c-0.26,0.24-0.42,0.57-0.49,1.01l-0.25,1.65
	c-0.08,0.44-0.02,0.78,0.16,1.01C388.83,773.11,389.13,773.23,389.53,773.23z M401.02,774.3c-0.47,0-0.84-0.12-1.1-0.35
	c-0.26-0.23-0.39-0.56-0.38-0.97h-0.01l-0.19,1.2h-1.22l1.33-8.35h1.24l-0.29,1.8l-0.27,1.47h0.05c0.12-0.41,0.35-0.73,0.69-0.97
	c0.34-0.23,0.74-0.35,1.21-0.35c0.63,0,1.1,0.21,1.4,0.64c0.3,0.43,0.39,1.01,0.28,1.74l-0.27,1.77c-0.11,0.73-0.39,1.31-0.84,1.73
	C402.18,774.09,401.64,774.3,401.02,774.3z M400.77,773.23c0.4,0,0.72-0.12,0.98-0.35c0.26-0.23,0.42-0.57,0.5-1.01l0.25-1.65
	c0.07-0.43,0.01-0.77-0.17-1.01c-0.18-0.24-0.47-0.35-0.87-0.35c-0.39,0-0.72,0.12-0.98,0.36c-0.26,0.24-0.43,0.57-0.5,1l-0.25,1.65
	c-0.07,0.44-0.01,0.77,0.17,1.01C400.08,773.11,400.37,773.23,400.77,773.23z M405.47,776.25l0.17-1.06h1.93
	c0.64,0,1.01-0.3,1.1-0.9l0.1-0.67l0.21-1.19h-0.03c-0.12,0.42-0.35,0.74-0.68,0.97c-0.33,0.23-0.73,0.34-1.2,0.34
	c-0.63,0-1.09-0.2-1.4-0.6c-0.31-0.4-0.41-0.94-0.3-1.63l0.58-3.6h1.24l-0.56,3.48c-0.06,0.41,0,0.73,0.18,0.96
	c0.18,0.23,0.47,0.34,0.85,0.34c0.39,0,0.72-0.12,0.98-0.37c0.27-0.24,0.43-0.58,0.49-1.02l0.54-3.4h1.24l-1.01,6.41
	c-0.1,0.6-0.37,1.08-0.81,1.42c-0.44,0.35-1,0.52-1.67,0.52H405.47z M417.79,770.09h3.22l0.54-1.85h-5.47l-1.71,6.44h2.15l0.59-2.1
	h3.03l0.44-1.71h-3.03L417.79,770.09z M424.23,772.92c-0.59,0-1.02-0.39-1.02-1.12c0-0.88,0.63-1.76,1.61-1.76
	c0.49,0,0.88,0.24,1.02,0.78l1.95-0.83c-0.29-1.17-1.27-1.9-2.64-1.9c-2.78,0-4.15,2.15-4.15,3.9c0,1.76,1.27,2.83,3.07,2.83
	c1.37,0,2.34-0.59,2.98-1.42l-1.51-1.17C425.16,772.67,424.72,772.92,424.23,772.92z M430.91,768.23h-2.15l-1.76,6.44h5.12
	l0.49-1.85h-2.93L430.91,768.23z M439.75,771.01c0-1.66-1.32-2.93-3.22-2.93c-2.2,0-3.81,1.81-3.81,3.81c0,1.66,1.32,2.93,3.22,2.93
	C438.14,774.82,439.75,773.01,439.75,771.01z M434.92,771.7c0-0.83,0.59-1.71,1.51-1.71c0.78,0,1.17,0.54,1.17,1.22
	c0,0.83-0.59,1.71-1.51,1.71C435.31,772.92,434.92,772.38,434.92,771.7z M443.21,772.23h1.07l-0.2,0.68
	c-0.15,0.05-0.34,0.1-0.59,0.1c-0.68,0-1.27-0.39-1.27-1.22c0-1.02,0.73-1.9,1.95-1.9c0.59,0,1.12,0.24,1.51,0.59l1.37-1.37
	c-0.44-0.54-1.51-1.07-2.73-1.07c-2.59,0-4.29,1.76-4.29,3.86c0,2.05,1.61,2.88,3.22,2.88c0.93,0,1.85-0.29,2.49-0.68l0.93-3.32
	h-3.12L443.21,772.23z M450.78,768.08c-2.2,0-3.81,1.81-3.81,3.81c0,1.66,1.32,2.93,3.22,2.93c2.2,0,3.81-1.81,3.81-3.81
	C454,769.35,452.68,768.08,450.78,768.08z M450.34,772.92c-0.78,0-1.17-0.54-1.17-1.22c0-0.83,0.59-1.71,1.51-1.71
	c0.78,0,1.17,0.54,1.17,1.22C451.85,772.04,451.27,772.92,450.34,772.92z M437.94,767.5c-0.05,0.29,0.1,0.49,0.44,0.49
	s0.54-0.2,0.63-0.49c0.05-0.24-0.1-0.49-0.44-0.49C438.24,767.01,437.99,767.25,437.94,767.5z M432.13,765.5
	c-0.44,0-0.73,0.24-0.78,0.59c-0.05,0.34,0.1,0.59,0.54,0.59s0.73-0.24,0.78-0.59C432.77,765.74,432.57,765.5,432.13,765.5z
	 M433.01,767.3c-0.1,0.54,0.15,0.88,0.83,0.88c0.63,0,1.07-0.39,1.17-0.88s-0.15-0.88-0.83-0.88
	C433.5,766.43,433.11,766.82,433.01,767.3z M439.6,777.55l-2.44-1.81h-1.51l4.25,3.17l1.61-3.17h-0.98L439.6,777.55z M425.84,767.16
	l-2-1.46l23.13-2.78l-2.15,4.25h1.02l2.68-5.32l-26.99,3.22l2.78,2.1H425.84z M338.72,785.79l0.61-3.83h2.32l-0.08,0.52h-1.76
	l-0.18,1.14h1.63l-0.08,0.52h-1.62l-0.26,1.64H338.72z M342.97,785.84c-0.36,0-0.62-0.1-0.8-0.3c-0.17-0.2-0.23-0.47-0.18-0.82
	l0.27-1.7c0.06-0.34,0.2-0.61,0.44-0.82c0.24-0.2,0.54-0.3,0.89-0.3c0.36,0,0.62,0.1,0.8,0.3c0.17,0.2,0.24,0.47,0.18,0.81
	l-0.27,1.71c-0.06,0.34-0.2,0.62-0.44,0.82C343.63,785.74,343.33,785.84,342.97,785.84z M343.05,785.33c0.19,0,0.35-0.05,0.47-0.16
	c0.12-0.11,0.19-0.26,0.23-0.46l0.27-1.7c0.03-0.2,0.01-0.35-0.08-0.46c-0.08-0.11-0.22-0.16-0.41-0.16s-0.35,0.05-0.46,0.16
	c-0.12,0.1-0.19,0.26-0.22,0.46l-0.27,1.7c-0.03,0.2-0.01,0.35,0.08,0.46C342.72,785.28,342.86,785.33,343.05,785.33z M345,785.79
	l0.61-3.83h1.2c0.24,0,0.44,0.05,0.6,0.14c0.16,0.09,0.28,0.22,0.36,0.39c0.07,0.17,0.09,0.37,0.05,0.59
	c-0.04,0.26-0.14,0.48-0.3,0.67c-0.16,0.19-0.37,0.32-0.6,0.39l0.54,1.64h-0.62l-0.48-1.57h-0.54l-0.25,1.57H345z M345.89,783.71
	h0.64c0.19,0,0.35-0.06,0.48-0.17c0.13-0.11,0.21-0.26,0.24-0.45c0.03-0.19,0-0.35-0.09-0.46c-0.09-0.11-0.24-0.17-0.43-0.17h-0.64
	L345.89,783.71z M349.54,785.79l0.61-3.83h1.25c0.37,0,0.65,0.1,0.84,0.31c0.19,0.21,0.26,0.49,0.2,0.84
	c-0.04,0.23-0.12,0.44-0.25,0.61s-0.29,0.31-0.49,0.4c-0.2,0.09-0.42,0.14-0.66,0.14h-0.69l-0.24,1.52H349.54z M350.43,783.75h0.69
	c0.19,0,0.36-0.06,0.49-0.18c0.14-0.12,0.22-0.27,0.25-0.47c0.03-0.2,0-0.35-0.1-0.47c-0.1-0.12-0.25-0.18-0.44-0.18h-0.69
	L350.43,783.75z M352.75,785.79l0.61-3.83h2.25l-0.08,0.5h-1.7l-0.17,1.09h1.51l-0.08,0.5h-1.51l-0.19,1.24h1.69l-0.08,0.5H352.75z
	 M355.84,785.79l0.61-3.83h1.2c0.24,0,0.44,0.05,0.6,0.14c0.16,0.09,0.28,0.22,0.36,0.39c0.07,0.17,0.09,0.37,0.05,0.59
	c-0.04,0.26-0.14,0.48-0.3,0.67c-0.16,0.19-0.37,0.32-0.6,0.39l0.54,1.64h-0.62l-0.48-1.57h-0.54l-0.25,1.57H355.84z M356.74,783.71
	h0.64c0.19,0,0.35-0.06,0.48-0.17c0.13-0.11,0.21-0.26,0.24-0.45c0.03-0.19,0-0.35-0.09-0.46c-0.09-0.11-0.24-0.17-0.43-0.17h-0.64
	L356.74,783.71z M360.13,785.84c-0.39,0-0.67-0.1-0.87-0.29c-0.19-0.19-0.26-0.45-0.22-0.78h0.57c-0.03,0.17,0.01,0.31,0.12,0.41
	c0.11,0.1,0.27,0.15,0.48,0.15c0.2,0,0.37-0.05,0.5-0.15c0.13-0.1,0.21-0.23,0.24-0.4c0.02-0.15,0-0.28-0.06-0.39
	c-0.06-0.11-0.16-0.18-0.29-0.22l-0.46-0.14c-0.27-0.08-0.46-0.22-0.59-0.41c-0.13-0.19-0.17-0.42-0.13-0.68
	c0.04-0.21,0.11-0.39,0.23-0.55c0.12-0.16,0.27-0.28,0.46-0.37c0.19-0.09,0.4-0.13,0.64-0.13c0.35,0,0.62,0.1,0.8,0.29
	c0.18,0.19,0.25,0.44,0.2,0.76h-0.57c0.03-0.17,0-0.3-0.09-0.4c-0.09-0.1-0.23-0.14-0.42-0.14c-0.19,0-0.34,0.04-0.46,0.13
	c-0.12,0.09-0.19,0.21-0.21,0.38c-0.02,0.15-0.01,0.28,0.05,0.39c0.06,0.11,0.16,0.18,0.29,0.22l0.47,0.15
	c0.26,0.08,0.46,0.22,0.58,0.41c0.12,0.19,0.17,0.42,0.12,0.69c-0.04,0.22-0.12,0.41-0.24,0.57c-0.13,0.16-0.29,0.29-0.49,0.38
	C360.6,785.79,360.38,785.84,360.13,785.84z M363.27,785.84c-0.36,0-0.62-0.1-0.8-0.3c-0.17-0.2-0.23-0.47-0.18-0.82l0.27-1.7
	c0.06-0.34,0.2-0.61,0.44-0.82c0.24-0.2,0.54-0.3,0.89-0.3c0.36,0,0.62,0.1,0.8,0.3c0.17,0.2,0.24,0.47,0.18,0.81l-0.27,1.71
	c-0.06,0.34-0.2,0.62-0.44,0.82C363.92,785.74,363.62,785.84,363.27,785.84z M363.34,785.33c0.19,0,0.35-0.05,0.47-0.16
	c0.12-0.11,0.19-0.26,0.23-0.46l0.27-1.7c0.03-0.2,0.01-0.35-0.08-0.46c-0.08-0.11-0.22-0.16-0.41-0.16c-0.19,0-0.35,0.05-0.46,0.16
	c-0.12,0.1-0.19,0.26-0.22,0.46l-0.27,1.7c-0.03,0.2-0.01,0.35,0.08,0.46C363.02,785.28,363.15,785.33,363.34,785.33z
	 M365.28,785.79l0.61-3.83h0.71l0.62,3.19c0.01-0.1,0.02-0.22,0.03-0.36c0.01-0.14,0.03-0.29,0.04-0.44
	c0.02-0.15,0.04-0.29,0.06-0.41l0.31-1.98h0.52l-0.61,3.83h-0.71l-0.61-3.19c-0.01,0.09-0.02,0.21-0.03,0.34s-0.03,0.28-0.04,0.42
	c-0.02,0.15-0.04,0.28-0.06,0.41l-0.31,2.01H365.28z M368.23,785.79l1.59-3.83h0.75l0.37,3.83h-0.56l-0.07-0.97h-1.09l-0.39,0.97
	H368.23z M369.39,784.34h0.87l-0.09-1.1c-0.02-0.2-0.03-0.37-0.04-0.51c-0.01-0.14-0.01-0.24-0.01-0.3c-0.02,0.06-0.05,0.16-0.1,0.3
	c-0.05,0.14-0.11,0.31-0.19,0.5L369.39,784.34z M371.72,785.79l0.61-3.83h0.57l-0.52,3.31h1.67l-0.08,0.52H371.72z M376.68,785.84
	c-0.37,0-0.63-0.1-0.8-0.3c-0.17-0.2-0.22-0.48-0.17-0.82l0.44-2.76h0.57l-0.44,2.76c-0.03,0.2-0.01,0.35,0.07,0.46
	c0.08,0.11,0.21,0.17,0.41,0.17c0.19,0,0.35-0.06,0.46-0.17c0.12-0.11,0.19-0.27,0.22-0.46l0.44-2.76h0.57l-0.44,2.76
	c-0.06,0.35-0.2,0.62-0.43,0.82C377.35,785.74,377.05,785.84,376.68,785.84z M379.84,785.84c-0.39,0-0.67-0.1-0.87-0.29
	c-0.19-0.19-0.26-0.45-0.22-0.78h0.57c-0.03,0.17,0.01,0.31,0.12,0.41c0.11,0.1,0.27,0.15,0.48,0.15c0.2,0,0.37-0.05,0.5-0.15
	c0.13-0.1,0.21-0.23,0.24-0.4c0.02-0.15,0-0.28-0.06-0.39c-0.06-0.11-0.16-0.18-0.29-0.22l-0.46-0.14
	c-0.27-0.08-0.46-0.22-0.59-0.41c-0.13-0.19-0.17-0.42-0.13-0.68c0.04-0.21,0.11-0.39,0.23-0.55s0.27-0.28,0.46-0.37
	c0.19-0.09,0.4-0.13,0.64-0.13c0.35,0,0.62,0.1,0.8,0.29c0.18,0.19,0.25,0.44,0.2,0.76h-0.57c0.03-0.17,0-0.3-0.09-0.4
	c-0.09-0.1-0.23-0.14-0.42-0.14c-0.19,0-0.34,0.04-0.46,0.13c-0.12,0.09-0.19,0.21-0.21,0.38c-0.02,0.15-0.01,0.28,0.05,0.39
	c0.06,0.11,0.16,0.18,0.29,0.22l0.47,0.15c0.26,0.08,0.46,0.22,0.58,0.41c0.12,0.19,0.17,0.42,0.12,0.69
	c-0.04,0.22-0.12,0.41-0.24,0.57c-0.13,0.16-0.29,0.29-0.49,0.38C380.31,785.79,380.09,785.84,379.84,785.84z M381.91,785.79
	l0.61-3.83h2.25l-0.08,0.5h-1.7l-0.17,1.09h1.51l-0.08,0.5h-1.51l-0.19,1.24h1.69l-0.08,0.5H381.91z M386.94,785.84
	c-0.36,0-0.62-0.1-0.8-0.3c-0.17-0.2-0.23-0.47-0.18-0.82l0.27-1.7c0.06-0.34,0.2-0.61,0.44-0.82c0.24-0.2,0.54-0.3,0.89-0.3
	c0.36,0,0.62,0.1,0.8,0.3c0.17,0.2,0.24,0.47,0.18,0.81l-0.27,1.71c-0.06,0.34-0.2,0.62-0.44,0.82
	C387.6,785.74,387.3,785.84,386.94,785.84z M387.02,785.33c0.19,0,0.35-0.05,0.47-0.16c0.12-0.11,0.19-0.26,0.23-0.46l0.27-1.7
	c0.03-0.2,0.01-0.35-0.08-0.46c-0.08-0.11-0.22-0.16-0.41-0.16c-0.19,0-0.35,0.05-0.46,0.16c-0.12,0.1-0.19,0.26-0.22,0.46
	l-0.27,1.7c-0.03,0.2-0.01,0.35,0.08,0.46C386.7,785.28,386.83,785.33,387.02,785.33z M388.95,785.79l0.61-3.83h0.71l0.62,3.19
	c0.01-0.1,0.02-0.22,0.03-0.36c0.01-0.14,0.03-0.29,0.04-0.44c0.02-0.15,0.04-0.29,0.06-0.41l0.31-1.98h0.52l-0.61,3.83h-0.71
	l-0.61-3.19c-0.01,0.09-0.02,0.21-0.03,0.34c-0.01,0.13-0.03,0.28-0.04,0.42c-0.02,0.15-0.04,0.28-0.06,0.41l-0.31,2.01H388.95z
	 M392.25,785.79l0.61-3.83h0.57l-0.52,3.31h1.67l-0.08,0.52H392.25z M396.12,785.79l0.22-1.41l-0.75-2.42h0.58l0.45,1.45
	c0.03,0.09,0.05,0.18,0.07,0.27c0.02,0.08,0.03,0.15,0.03,0.19c0.02-0.04,0.05-0.1,0.09-0.19c0.04-0.08,0.09-0.17,0.14-0.27
	l0.9-1.45h0.6l-1.53,2.42l-0.22,1.41H396.12z M399.22,785.79l0.61-3.83h0.71l0.62,3.19c0.01-0.1,0.02-0.22,0.03-0.36
	c0.01-0.14,0.03-0.29,0.04-0.44c0.02-0.15,0.04-0.29,0.06-0.41l0.31-1.98h0.52l-0.61,3.83h-0.71l-0.61-3.19
	c-0.01,0.09-0.02,0.21-0.03,0.34c-0.01,0.13-0.03,0.28-0.04,0.42c-0.02,0.15-0.04,0.28-0.06,0.41l-0.31,2.01H399.22z M403.51,785.84
	c-0.36,0-0.62-0.1-0.8-0.3c-0.18-0.2-0.23-0.47-0.18-0.82l0.27-1.7c0.06-0.34,0.2-0.61,0.44-0.82c0.24-0.2,0.54-0.3,0.89-0.3
	c0.36,0,0.62,0.1,0.8,0.3c0.17,0.2,0.24,0.47,0.18,0.81l-0.27,1.71c-0.06,0.34-0.2,0.62-0.44,0.82
	C404.16,785.74,403.86,785.84,403.51,785.84z M403.58,785.33c0.19,0,0.35-0.05,0.47-0.16c0.12-0.11,0.19-0.26,0.23-0.46l0.27-1.7
	c0.03-0.2,0.01-0.35-0.08-0.46c-0.08-0.11-0.22-0.16-0.41-0.16c-0.19,0-0.35,0.05-0.46,0.16c-0.12,0.1-0.19,0.26-0.22,0.46
	l-0.27,1.7c-0.03,0.2-0.01,0.35,0.08,0.46C403.26,785.28,403.4,785.33,403.58,785.33z M406.38,785.79l0.52-3.31h-1.02l0.08-0.52
	h2.62l-0.08,0.52h-1.03l-0.52,3.31H406.38z M409.52,785.79l0.61-3.83h2.32l-0.08,0.52h-1.76l-0.18,1.14h1.63l-0.08,0.52h-1.62
	l-0.26,1.64H409.52z M413.77,785.84c-0.36,0-0.62-0.1-0.8-0.3c-0.18-0.2-0.23-0.47-0.18-0.82l0.27-1.7c0.06-0.34,0.2-0.61,0.44-0.82
	c0.24-0.2,0.54-0.3,0.89-0.3c0.36,0,0.62,0.1,0.8,0.3c0.17,0.2,0.24,0.47,0.18,0.81l-0.27,1.71c-0.06,0.34-0.2,0.62-0.44,0.82
	C414.42,785.74,414.13,785.84,413.77,785.84z M413.85,785.33c0.19,0,0.35-0.05,0.47-0.16c0.12-0.11,0.19-0.26,0.23-0.46l0.27-1.7
	c0.03-0.2,0.01-0.35-0.08-0.46c-0.08-0.11-0.22-0.16-0.41-0.16c-0.19,0-0.35,0.05-0.46,0.16c-0.12,0.1-0.19,0.26-0.22,0.46
	l-0.27,1.7c-0.03,0.2-0.01,0.35,0.08,0.46C413.52,785.28,413.66,785.33,413.85,785.33z M415.8,785.79l0.61-3.83h1.2
	c0.24,0,0.44,0.05,0.6,0.14c0.16,0.09,0.28,0.22,0.36,0.39c0.07,0.17,0.09,0.37,0.05,0.59c-0.04,0.26-0.14,0.48-0.3,0.67
	c-0.16,0.19-0.37,0.32-0.6,0.39l0.54,1.64h-0.62l-0.48-1.57h-0.54l-0.25,1.57H415.8z M416.69,783.71h0.64
	c0.19,0,0.35-0.06,0.48-0.17c0.13-0.11,0.21-0.26,0.24-0.45c0.03-0.19,0-0.35-0.09-0.46c-0.09-0.11-0.24-0.17-0.43-0.17h-0.64
	L416.69,783.71z M420.91,785.84c-0.36,0-0.63-0.1-0.81-0.3c-0.18-0.2-0.24-0.47-0.19-0.82l0.27-1.7c0.06-0.35,0.21-0.62,0.45-0.82
	s0.55-0.3,0.91-0.3c0.36,0,0.63,0.1,0.81,0.3c0.18,0.2,0.24,0.47,0.19,0.82h-0.57c0.03-0.2,0-0.35-0.09-0.46
	c-0.09-0.11-0.23-0.16-0.42-0.16c-0.19,0-0.35,0.05-0.48,0.16c-0.12,0.1-0.2,0.26-0.23,0.45l-0.27,1.71c-0.03,0.2,0,0.35,0.09,0.46
	c0.09,0.11,0.23,0.16,0.42,0.16c0.19,0,0.35-0.05,0.47-0.16c0.12-0.11,0.2-0.26,0.23-0.46h0.57c-0.03,0.23-0.11,0.43-0.24,0.59
	c-0.12,0.17-0.28,0.3-0.47,0.39C421.36,785.79,421.14,785.84,420.91,785.84z M424.03,785.84c-0.36,0-0.62-0.1-0.8-0.3
	c-0.18-0.2-0.23-0.47-0.18-0.82l0.27-1.7c0.06-0.34,0.2-0.61,0.44-0.82c0.24-0.2,0.54-0.3,0.89-0.3c0.36,0,0.62,0.1,0.8,0.3
	c0.17,0.2,0.24,0.47,0.18,0.81l-0.27,1.71c-0.06,0.34-0.2,0.62-0.44,0.82C424.69,785.74,424.39,785.84,424.03,785.84z
	 M424.11,785.33c0.19,0,0.35-0.05,0.47-0.16c0.12-0.11,0.19-0.26,0.23-0.46l0.27-1.7c0.03-0.2,0.01-0.35-0.08-0.46
	c-0.08-0.11-0.22-0.16-0.41-0.16c-0.19,0-0.35,0.05-0.46,0.16c-0.12,0.1-0.19,0.26-0.22,0.46l-0.27,1.7
	c-0.03,0.2-0.01,0.35,0.08,0.46C423.79,785.28,423.92,785.33,424.11,785.33z M425.97,785.79l0.61-3.83h0.69l0.18,1.23
	c0.02,0.12,0.04,0.23,0.05,0.33c0.01,0.1,0.02,0.18,0.03,0.24c0.02-0.06,0.05-0.14,0.09-0.24c0.04-0.11,0.09-0.22,0.15-0.34
	l0.57-1.22h0.71l-0.61,3.83h-0.54l0.2-1.29c0.02-0.17,0.06-0.35,0.1-0.55c0.04-0.2,0.09-0.4,0.14-0.61c0.05-0.2,0.1-0.4,0.14-0.59
	c0.05-0.19,0.09-0.35,0.13-0.49l-0.86,1.86h-0.55l-0.28-1.86c0,0.14-0.01,0.29-0.02,0.47c-0.01,0.18-0.02,0.37-0.04,0.57
	c-0.02,0.2-0.04,0.41-0.06,0.61c-0.02,0.2-0.05,0.4-0.08,0.57l-0.2,1.29H425.97z M429.11,785.79l0.61-3.83h0.69l0.18,1.23
	c0.02,0.12,0.04,0.23,0.05,0.33c0.01,0.1,0.02,0.18,0.03,0.24c0.02-0.06,0.05-0.14,0.09-0.24c0.04-0.11,0.09-0.22,0.15-0.34
	l0.57-1.22h0.71l-0.61,3.83h-0.54l0.2-1.29c0.02-0.17,0.06-0.35,0.1-0.55c0.04-0.2,0.09-0.4,0.14-0.61c0.05-0.2,0.1-0.4,0.14-0.59
	c0.05-0.19,0.09-0.35,0.13-0.49l-0.86,1.86h-0.55l-0.28-1.86c0,0.14-0.01,0.29-0.02,0.47c-0.01,0.18-0.02,0.37-0.04,0.57
	c-0.02,0.2-0.04,0.41-0.06,0.61c-0.02,0.2-0.05,0.4-0.08,0.57l-0.2,1.29H429.11z M432.41,785.79l0.61-3.83h2.25l-0.08,0.5h-1.7
	l-0.17,1.09h1.51l-0.08,0.5h-1.51l-0.19,1.24h1.69l-0.08,0.5H432.41z M435.51,785.79l0.61-3.83h1.2c0.24,0,0.44,0.05,0.6,0.14
	c0.16,0.09,0.28,0.22,0.36,0.39c0.07,0.17,0.09,0.37,0.05,0.59c-0.04,0.26-0.14,0.48-0.3,0.67c-0.16,0.19-0.37,0.32-0.6,0.39
	l0.54,1.64h-0.62l-0.48-1.57h-0.54l-0.25,1.57H435.51z M436.4,783.71h0.64c0.19,0,0.35-0.06,0.48-0.17
	c0.13-0.11,0.21-0.26,0.24-0.45c0.03-0.19,0-0.35-0.09-0.46c-0.09-0.11-0.24-0.17-0.43-0.17h-0.64L436.4,783.71z M439.8,785.84
	c-0.36,0-0.63-0.1-0.81-0.3c-0.18-0.2-0.24-0.47-0.19-0.82l0.27-1.7c0.06-0.35,0.21-0.62,0.45-0.82s0.55-0.3,0.91-0.3
	c0.36,0,0.63,0.1,0.81,0.3c0.18,0.2,0.24,0.47,0.19,0.82h-0.57c0.03-0.2,0-0.35-0.09-0.46c-0.09-0.11-0.23-0.16-0.42-0.16
	c-0.19,0-0.35,0.05-0.47,0.16c-0.12,0.1-0.2,0.26-0.23,0.45l-0.27,1.71c-0.03,0.2,0,0.35,0.09,0.46c0.09,0.11,0.23,0.16,0.42,0.16
	s0.35-0.05,0.47-0.16c0.12-0.11,0.2-0.26,0.23-0.46h0.57c-0.03,0.23-0.11,0.43-0.24,0.59c-0.12,0.17-0.28,0.3-0.47,0.39
	C440.25,785.79,440.04,785.84,439.8,785.84z M441.88,785.79l0.08-0.5h0.78l0.45-2.82h-0.78l0.08-0.5h2.13l-0.08,0.5h-0.78
	l-0.45,2.82h0.78l-0.08,0.5H441.88z M444.74,785.79l1.59-3.83h0.75l0.37,3.83h-0.56l-0.07-0.97h-1.09l-0.39,0.97H444.74z
	 M445.9,784.34h0.87l-0.09-1.1c-0.02-0.2-0.03-0.37-0.04-0.51c-0.01-0.14-0.01-0.24-0.01-0.3c-0.02,0.06-0.05,0.16-0.1,0.3
	c-0.05,0.14-0.11,0.31-0.19,0.5L445.9,784.34z M448.24,785.79l0.61-3.83h0.57l-0.52,3.31h1.67l-0.08,0.52H448.24z M453.19,785.84
	c-0.37,0-0.63-0.1-0.8-0.3c-0.17-0.2-0.22-0.48-0.17-0.82l0.44-2.76h0.57l-0.44,2.76c-0.03,0.2-0.01,0.35,0.07,0.46
	c0.08,0.11,0.21,0.17,0.41,0.17c0.19,0,0.35-0.06,0.46-0.17c0.12-0.11,0.19-0.27,0.22-0.46l0.44-2.76h0.57l-0.44,2.76
	c-0.06,0.35-0.2,0.62-0.43,0.82C453.86,785.74,453.56,785.84,453.19,785.84z M456.36,785.84c-0.39,0-0.67-0.1-0.87-0.29
	c-0.19-0.19-0.26-0.45-0.22-0.78h0.57c-0.03,0.17,0.01,0.31,0.12,0.41c0.11,0.1,0.27,0.15,0.48,0.15c0.2,0,0.37-0.05,0.5-0.15
	s0.21-0.23,0.24-0.4c0.02-0.15,0-0.28-0.06-0.39c-0.06-0.11-0.16-0.18-0.29-0.22l-0.46-0.14c-0.27-0.08-0.46-0.22-0.59-0.41
	c-0.13-0.19-0.17-0.42-0.13-0.68c0.04-0.21,0.11-0.39,0.23-0.55c0.12-0.16,0.27-0.28,0.46-0.37c0.19-0.09,0.4-0.13,0.64-0.13
	c0.35,0,0.62,0.1,0.8,0.29c0.18,0.19,0.25,0.44,0.2,0.76h-0.57c0.03-0.17,0-0.3-0.09-0.4c-0.09-0.1-0.23-0.14-0.42-0.14
	c-0.19,0-0.34,0.04-0.46,0.13c-0.12,0.09-0.19,0.21-0.21,0.38c-0.02,0.15-0.01,0.28,0.05,0.39c0.06,0.11,0.16,0.18,0.29,0.22
	l0.47,0.15c0.26,0.08,0.46,0.22,0.58,0.41c0.12,0.19,0.17,0.42,0.12,0.69c-0.04,0.22-0.12,0.41-0.24,0.57
	c-0.13,0.16-0.29,0.29-0.49,0.38C456.82,785.79,456.6,785.84,456.36,785.84z M458.42,785.79l0.61-3.83h2.25l-0.08,0.5h-1.7
	l-0.17,1.09h1.51l-0.08,0.5h-1.51l-0.19,1.24h1.69l-0.08,0.5H458.42z"/>
<g>
	<path style="fill:#1B1B1B;" d="M400,50L152.81,95.18l0.49,28.3c3.61,204.39,23.91,419.5,224.23,605.45L400.21,750l22.47-21.28
		C623.04,539.37,642.96,334.4,646.7,123.48l0.49-28.01L400,50z M630.1,123.07c-3.66,207.47-23.17,408.74-218.85,593.57L400,727.29
		l-11.05-10.52c-195.6-181.55-215.44-392.84-218.97-593.7l-0.41-14.01L400,66.8l230.35,42.27L630.1,123.07z"/>
	<path style="fill:#1B1B1B;" d="M177.29,115.27v7.52c1.81,100.35,7.8,207.39,39.39,310.12c32.86,107.08,90.9,198.06,177.16,278.12
		l6.08,5.67l6.08-5.75c87.49-82.23,145.98-174.08,178.22-280.01c30.68-100.18,36.56-207.22,38.36-308.06v-7.52L400,74.52
		L177.29,115.27z M395.89,187.85c1.83,0.04,3.32,1.49,3.41,3.33c0.03,0.25,0.03,0.51,0,0.76c-0.21,1.94-1.95,3.34-3.89,3.13
		c-1.94-0.21-3.34-1.95-3.13-3.89C392.37,189.26,393.98,187.78,395.89,187.85z M392.36,161.64h0.99v6.12v1.48l-0.94-1.11
		c-1.37-1.33-3.28-1.95-5.18-1.68l-4.11,0.29v7.76h5.13l1.11-0.37h0.94v5.67v2.22l-1.07-1.97c-0.58-1.03-2.09-1.03-3.45-1.03h-3.2
		v9.61c0,1.68,0.21,3.53,1.64,4.11v1.23h-8.95v-1.23c1.77-0.66,1.77-3.37,1.77-5.34v-19.14c0-2.09,0.04-4.68-1.81-5.38v-1.23h15.65
		H392.36z M346.89,118.55c3.9-5.4,9.84-8.96,16.43-9.86c6.13-1.17,12.48,0.16,17.62,3.7c4.84,3.29,8.13,8.41,9.12,14.17
		c0.03,0.17,0.05,0.34,0.08,0.51c1.82,12.78-7.06,24.62-19.84,26.44c-0.32,0.07-0.64,0.14-0.96,0.19
		c-12.44,2.24-24.33-6.03-26.56-18.47C341.81,129.34,343.29,123.32,346.89,118.55z M287.58,122.09c7.76-1.59,15.79,0.91,21.28,6.61
		l1.07-9.36l0.41-0.7h2.83l24.93-4.39c0.87-0.1,1.71-0.38,2.46-0.82l1.52-0.99l-0.99,9.41l-0.41,2.38l-1.19-2.01
		c-0.94-1.19-2.3-1.68-5.05-1.19l-4.89,0.86c0.25,1.4,4.97,28.18,4.97,28.18c0.74,3.29,1.36,5.42,4.11,6.45v1.64l-12.32,2.14
		l-0.53-1.56c1.93-1.15,1.64-4.07,1.23-6.53c-0.08-0.33-0.33-1.77-0.33-1.77l-4.81-27.19l-4.76,0.86c-2.55,0.3-4.88,1.57-6.53,3.53
		l-1.27,1.52c2.73,3.02,4.55,6.75,5.26,10.76c0.04,0.25,0.08,0.51,0.11,0.76c1.69,12.8-7.32,24.54-20.12,26.23
		c-0.32,0.07-0.64,0.14-0.96,0.19c-12.44,2.24-24.33-6.03-26.56-18.47c-0.95-5.89,0.53-11.91,4.11-16.68
		C275.07,126.58,281,123.02,287.58,122.09z M197.29,139.3l11.99-2.14l0.53,1.6c-2.26,1.27-1.6,4.85-1.11,7.43v0.82l1.77,9.9
		l5.87-11.54l0.66-1.36c0.94-1.89,2.14-4.23,1.56-5.5c-0.35-0.59-0.96-0.99-1.64-1.07v-1.64l10.1-2.22h0.86l7.76-1.36
		c1.96-0.63,4.11-0.19,5.67,1.15l12.32,13.72c1.15-3.04,5.26-11.95,5.26-11.95c0.46-0.93,0.66-1.97,0.58-3
		c0.02-0.21,0.02-0.41,0-0.62c-0.45-0.75-1.2-1.27-2.05-1.44v-1.64l10.97-1.93l1.36-0.25c0,0-11.87,26.53-11.79,26.95
		c0.08,0.41,1.73,9.65,1.73,9.65c0.66,3.74,0.9,5.26,3.78,6.9v1.6l-11.95,2.18l-0.62-1.52c1.81-1.4,1.64-3.86,1.19-6.24
		c-0.04-0.33-0.37-2.05-0.37-2.05s-1.6-8.67-1.6-9.08l-13.23-14.75c-1.66-2.35-3.98-4.16-6.65-5.22l-0.94-0.33l-11.09,20.87
		l15.16,13.97c2.33,2.12,5.16,3.63,8.21,4.4v1.64l-5.87,1.03c-2.85,0.67-5.84,0.07-8.22-1.64l-16.43-15.65l1.81,11.67v0.82
		c0.45,2.59,1.03,6.24,3.57,6.69v1.68l-11.99,2.09l-0.57-1.56c2.26-1.31,1.6-4.93,1.11-7.52v-0.82l-4.11-23.62v-0.82
		c-0.41-2.55-0.99-6.16-3.57-6.65V139.3z M393.88,653.31h0.62l2.34,0.33c1.07,0.06,2.14,0.06,3.2,0c1.05,0.06,2.11,0.06,3.16,0
		l2.18-0.29h0.7c5.86-1.05,11.33-3.65,15.85-7.52l6.82,7.52c-16.75,14.81-42.03,14.4-58.29-0.94l7.35-6.94
		C382.36,649.48,387.92,652.2,393.88,653.31z M380.49,639.8v-39.72c4.43-4.41,10.22-7.19,16.43-7.89v55.49
		C390.71,646.99,384.92,644.21,380.49,639.8z M402.96,647.68v-55.49c6.19,0.67,11.98,3.4,16.43,7.76v39.97
		C414.94,644.28,409.15,647.01,402.96,647.68z M425.34,641.03v-18.44l18.57,0.16c-0.6,9.84-4.54,19.19-11.17,26.49
		C430.64,646.86,426.99,642.88,425.34,641.03z M425.34,616.71v-10.76l-0.21-6.9l8.21-8.01c6.25,7.18,10.01,16.18,10.72,25.67H425.34
		z M421.93,594.08c-4.51-3.86-9.97-6.46-15.81-7.52c-0.25,0.02-0.49,0.02-0.74,0l-2.18-0.29c-2.12-0.22-4.25-0.22-6.37,0
		c-0.82,0.08-1.64,0.21-2.46,0.37h-0.53c-6.03,1.11-11.64,3.85-16.22,7.93l-7.27-7.31c16.61-15.21,42.02-15.4,58.86-0.45
		L421.93,594.08z M374.62,599.95l0.16,16.96h-18.61c0.68-9.26,4.26-18.07,10.23-25.18L374.62,599.95z M374.62,622.59v17.79
		l-1.19,1.11l-7.06,6.65c-6.11-7.19-9.75-16.14-10.39-25.55H374.62z M186.52,128.19L186.52,128.19c-0.04-1.81-0.08-3.6-0.11-5.41
		C186.44,124.59,186.49,126.39,186.52,128.19z M400,704.65v-34.67c27.64-0.79,49.41-23.84,48.62-51.48
		c-0.76-26.53-22.09-47.86-48.62-48.62v0v-4.31c-0.46,0-0.89,0.05-1.36,0.04c-27.73-0.53-39.43-9.53-49-18.44
		c-0.37,10.34-3.79,20.34-9.82,28.75c-1.09-14.7-6.48-28.75-15.49-40.42c-7.11-8.71-40.79-29.45-48.63-38.28
		c-11.99-10.56-24.65-26.82-24.65-50.23l0.45-8.21c1.78-15.44,10.51-29.23,23.7-37.46c-14.47-5.69-24.66-18.86-26.53-34.3
		c-7.6,2.08-14.63,5.88-20.54,11.09c-0.73-4.36-0.84-8.8-0.33-13.19l1.03-5.05c-5.46,2.13-10.37,5.46-14.38,9.73
		c-1.83-6.18-2.55-12.63-2.14-19.06c0.86-8.14,3.68-15.95,8.21-22.76c-1.06-6.18-1.06-12.5,0-18.69c2.37-14.94,12.9-27.3,27.27-32
		c5.1-1.7,10.48-2.41,15.85-2.09c-3.34-6.33-5.08-13.38-5.05-20.54c-0.03-5.22,0.79-10.41,2.42-15.36
		c9.67-23.91,35.37-37.16,60.46-31.18c-5.54,4.88-9.46,11.35-11.21,18.52c3.44-3.14,7.21-5.9,11.25-8.21
		c17.79-8.7,38.41-9.55,56.85-2.34c7.76,3.55,15,8.07,21.61,13.4V83.56l213.59,39.23C609.85,338.92,587.51,527.41,400,704.65z"/>
	<path style="fill:#1B1B1B;" d="M410.6,146.98c3.34,1.88,6.98,3.16,10.76,3.78c9.32,1.64,17.95-2.96,19.22-10.23
		c1.27-6.2-4.56-10.23-9.74-13.76c-4.11-2.88-8.21-5.59-7.52-8.95c0.82-4.56,6.74-3.78,7.97-3.57c3.28,0.66,6.21,2.5,8.21,5.18
		l0.99,1.48l1.6-9.08l-0.49-0.25c-2.81-1.46-5.83-2.47-8.95-3c-7.31-1.27-16.43,0-17.87,8.42c-1.31,7.35,4.56,11.34,9.78,14.87
		c4.11,2.92,8.21,5.46,7.39,9.36c-0.82,3.9-5.59,4.76-8.91,4.11c-4.67-0.92-8.89-3.43-11.91-7.11l-1.44-1.73l0.58,10.47H410.6z"/>
	<path style="fill:#1B1B1B;" d="M436.23,151.17v1.56l11.09,1.97l0.53-1.52c-1.07-0.62-1.27-1.11-1.4-1.44
		c-0.04-0.24-0.04-0.49,0-0.74c0.35-1.17,0.88-2.28,1.56-3.29l3.94-7.8l14.25,2.51l1.81,9.41c0.3,1.05,0.44,2.15,0.41,3.24
		c0,0.74-0.7,0.86-1.97,1.19v1.6l12.32,2.18h0.74l10.84,1.93l0.49-1.52c-2.46-2.05-2.18-4.11-1.64-7.15c0,0,3.24-18.32,3.86-21.73
		l15.12,28.1c1.51,3.86,4.35,7.04,8.01,9l0.9,0.49l6.12-34.91c0.62-3.37,0.99-5.38,4.11-6.49v-1.52l-10.64-1.89l-0.62,1.44
		c2.46,2.01,2.18,4.11,1.6,7.11c0,0-3.12,17.87-3.74,21.28l-16.22-30.03l-0.62-1.31l-0.58-1.48v-0.37l-0.45-0.29l-8.67-1.56
		l-0.57,1.6c2.05,1.85,1.93,4.11,1.36,7.31l-4.11,24.15c-0.57,3.37-0.94,5.38-4.11,6.53c-2.38-2.11-3.85-5.05-4.11-8.21v-0.94
		l-7.23-33.68h-0.49l-9.53-1.68l-0.49,1.52c0.5,0.2,0.89,0.6,1.07,1.11c0.25,0.9-0.53,2.22-1.27,3.41l-14.7,23.7l-0.49,0.78
		C440.99,147.68,439.47,150.18,436.23,151.17z M462.43,122.83c0.37,2.66,2.16,11.74,2.5,13.4l-9.65-1.74
		C456.11,133.09,461,125.13,462.43,122.83z"/>
	<path style="fill:#1B1B1B;" d="M545.08,173.06c4.79,0.7,9.63,0.95,14.46,0.74h1.11v-1.03l0.16-2.22l2.51-14.25l0.9-3.04l-0.66-0.49
		l-9.28-1.64l-0.53,1.52c2.01,1.23,1.81,3.49,1.27,6.57c0,0-1.27,7.02-1.44,8.21c-2.63,0.23-5.28,0.13-7.89-0.29
		c-8.97-1.36-15.15-9.73-13.79-18.7c0.03-0.22,0.07-0.43,0.11-0.64c1.24-8.21,8.9-13.86,17.11-12.62c0.49,0.07,0.97,0.17,1.45,0.29
		c3.72,0.39,7.16,2.18,9.61,5.01l0.99,1.6l0.53-1.81l1.31-7.56h-0.53c-3.05-1.23-6.22-2.15-9.45-2.75
		c-15.36-2.71-27.23,4.11-29.53,17.29C521.21,160.45,529.67,170.35,545.08,173.06z"/>
	<path style="fill:#1B1B1B;" d="M560.69,174.7l11.13,1.97l0.53-1.52c-1.15-0.66-1.56-1.27-1.4-2.22c0.33-1.16,0.84-2.25,1.52-3.25
		l4.4-7.52l14.25,2.51l1.93,9.32c0.3,1.05,0.46,2.15,0.45,3.24c0,0.74-0.7,0.86-2.01,1.19v1.6l12.32,2.18l0.62-1.48
		c-2.29-2.16-3.68-5.11-3.86-8.26l-0.21-0.94l-7.31-33.68h-0.45l-9.57-1.68l-0.49,1.52c0.5,0.17,0.9,0.56,1.07,1.07
		c0.29,0.94-0.53,2.26-1.23,3.41l-14.75,23.7l-0.45,0.82c-1.77,2.92-3.29,5.46-6.49,6.41V174.7z M587.3,144.84
		c0.53,2.67,2.34,11.87,2.67,13.43l-9.82-1.73C581.02,155.15,585.91,147.18,587.3,144.84z"/>
	<path style="fill:#1B1B1B;" d="M419.88,195.08c2.54,0.06,5.07-0.45,7.39-1.48l3.16-7.23l-1.6,0.82c-2.92,1.71-6.23,2.65-9.61,2.75
		c-6.55-0.19-11.71-5.66-11.52-12.21c0-0.13,0.01-0.27,0.02-0.4c-0.41-5.7,3.88-10.66,9.58-11.07c0.32-0.02,0.65-0.03,0.97-0.02
		c3.01,0.05,5.94,0.95,8.46,2.59l0.86,0.58v-6.94h-0.45c-2.86-0.74-5.8-1.14-8.75-1.19c-9.06-0.43-16.76,6.56-17.2,15.63
		c-0.02,0.4-0.02,0.81-0.01,1.22C401.19,188.59,408.38,195.08,419.88,195.08z"/>
	<path style="fill:#1B1B1B;" d="M439.39,191.17c-0.09-1.83-1.58-3.29-3.41-3.33c-1.9-0.07-3.5,1.42-3.57,3.32c0,0,0,0,0,0
		c0,1.93,1.56,3.49,3.49,3.49C437.83,194.67,439.39,193.1,439.39,191.17z"/>
	<path style="fill:#1B1B1B;" d="M281.7,436.47c-0.97,2.13-1.78,4.32-2.42,6.57c-0.6,2.98-0.9,6-0.9,9.04
		c-0.15,7.51,2.06,14.89,6.33,21.07c0.53,0.78,1.11,1.48,1.68,2.22c14.29,11.38,34.83,16.47,47.15,18.65
		c26.66,4.6,51.55,14.25,62.76,40.05c1.23,0.15,2.46,0.16,3.7,0.25v-43.74c-9.85,2.61-22.27,2.97-32.94-0.62
		c-5.83-1.7-11-5.14-14.83-9.86c0.79,5.14,2.17,10.17,4.11,14.99c-28.14-9.41-42.31-23.21-44.94-41.08
		c-5.06,7.04-12.27,12.26-20.54,14.87c-9.53-9.61-9.16-25.47-9.16-29.25C281.7,438.53,281.7,437.5,281.7,436.47z"/>
	<path style="fill:#1B1B1B;" d="M294.07,160.82c0.55-0.08,1.1-0.19,1.64-0.33c7.79-2.03,12.47-9.99,10.44-17.79
		c-1.6-8.38-8.3-16.31-18.03-14.62c-0.54,0.08-1.07,0.18-1.59,0.32c-7.96,2.03-12.76,10.13-10.73,18.09
		C277.23,154.7,284.66,162.5,294.07,160.82z"/>
	<path style="fill:#1B1B1B;" d="M348.41,361.72c-0.03,1.38,0.11,2.76,0.41,4.11c9.83-5.04,17.93-12.91,23.25-22.59
		c-2.46,0.74-5.13,1.64-8.21,2.79l-7.56,2.88C351.43,351.31,348.37,356.29,348.41,361.72z"/>
	<path style="fill:#1B1B1B;" d="M387.27,262.52c-12.24,1.3-23.32,7.85-30.35,17.95c-3.79,6.17-4.58,13.72-2.14,20.54
		c6.45,13.76,20.29,8.21,24.4,4.11l0.29-0.29c4.11-3.37,8.91-10.76,14.09-22.47c-15.24-2.88-24.69-2.96-26.82-3.41
		C372.5,272.25,379.46,266.68,387.27,262.52z"/>
	<path style="fill:#1B1B1B;" d="M385.09,375.44c5.8-0.17,10.8,1.65,14.91,4.09v-39.5c-3.83,14.98-9.22,27.44-14.87,35.41H385.09z"/>
	<path style="fill:#1B1B1B;" d="M351.54,133.17c1.11,9.01,9.31,15.41,18.32,14.3c0.55-0.08,1.09-0.19,1.62-0.33
		c7.79-2.06,12.43-10.04,10.37-17.82c-1.56-8.34-8.26-16.31-17.99-14.58c-0.54,0.08-1.07,0.18-1.59,0.32
		c-7.96,2.03-12.76,10.13-10.73,18.09C351.53,133.15,351.53,133.16,351.54,133.17z"/>
	<path style="fill:#1B1B1B;" d="M358.02,518.71l-2.05-2.63l3.29,0.53c8.03,1.37,15.72,4.26,22.67,8.5
		c-6.9-10.02-20.87-21.19-49.29-26.12c-16.43-2.83-46.04-10.56-59.81-30.48c-4.88-7.01-7.45-15.37-7.35-23.91
		c0.03-3.43,0.37-6.86,1.03-10.23c9.57-32.24,36.97-31.55,36.97-31.5h4.11l-3.61,2.22c-11.05,7.74-17.51,20.48-17.21,33.97
		c0.03,2.27,0.19,4.53,0.49,6.78c4.11-8.21,8.75-16.43,13.47-19.72l2.05-1.36v8.95c0.07,5.59-0.31,11.19-1.15,16.72
		c6.1-6.85,11.05-14.65,14.66-23.08c-0.48,5.61-0.63,11.25-0.45,16.88c0,16.14,5.83,26.66,24.19,34.05
		c-1.29-5.2-1.89-10.54-1.77-15.9c0.02-5.19,0.79-10.35,2.26-15.32c3.08,15.98,6.94,25.38,20.54,29.94
		c10.06,3.4,20.94,3.54,31.09,0.41c-10.23-4.34-18.35-12.53-22.59-22.8c-1.76-5.2-2.62-10.66-2.55-16.14
		c0.32-5.24,1.18-10.43,2.59-15.49c0.5,12.37,5.24,24.19,13.43,33.48c12.32,13.23,27.85,15.98,43.13,7.72
		c7.99-4.14,14.1-11.18,17.09-19.67c-8.13,0.78-40.34,0.78-47.36-27.15c-1.04-4.18-1.57-8.47-1.56-12.77
		c-0.03-6.84,1.37-13.61,4.11-19.88c-1.73-1.77-8.67-7.6-19.47-1.19c-14.09,8.21-20.21,3-20.54,2.79l-0.94-0.86l0.82-0.94
		c0,0,4.35-5.05,14.54-19.1c10.88-14.87,17.62-38.41,20.21-69.83c-2.41,5.13-5.87,9.71-10.15,13.43l-0.33,0.25
		c-5.19,4.61-11.44,7.86-18.2,9.45l13.88,1.89c-5.58,2.52-10.74,5.87-15.32,9.94c4.57-1.85,9.49-2.68,14.42-2.42
		c2.4,0.51,4.01,2.78,3.7,5.22c0,10.56-17.33,36.06-36.72,39.6h-0.66l-0.45-0.45c-4.94-4.81-7.7-11.43-7.64-18.32
		c0.07-6.34,2.21-12.48,6.08-17.5c6.48-8.04,10.09-18.02,10.27-28.34v-0.7c-5.46-2.7-9.54-7.57-11.21-13.43
		c-0.8-2.5-1.2-5.1-1.19-7.72c0.12-5.9,2.03-11.63,5.46-16.43c13.35-19.26,36.68-25.14,69.17-17.87
		c-9.98-13.31-23.08-23.97-38.16-31.01c-18.32-8.21-49.78-5.5-62.93,10.72c-9.12,11.92-13.09,26.99-11.01,41.86
		c-7.19-8.03-11.22-18.39-11.34-29.16c0-3.07,0.26-6.13,0.78-9.16c1.26-9.78,6.38-18.65,14.21-24.64
		c-20,2.75-35.53,18.4-39.47,30.03c-1.45,4.31-2.17,8.84-2.14,13.39c-0.16,11.4,4.53,22.33,12.9,30.07
		c-9.37-3.7-15.03-5.67-27.6-1.77c-11.48,3.76-20.17,13.22-22.96,24.97c12.73-6.37,29.9-7.8,41.07-3c8.4,3.3,15.27,9.63,19.22,17.74
		c-4.68-2.59-27.97-17.66-52.37-1.15c-8.73,6.64-14.6,16.34-16.43,27.15c4.97-3.29,16.43-10.15,25.1-9.45h2.67l-1.85,1.93
		c-4.05,4.25-7.01,9.43-8.63,15.07c17.42-6.28,35.37,0.33,40.34,11.25l0.49,1.11l-1.07,0.58c-6.6,2.89-14.16,2.62-20.54-0.74
		c2.75,11.42,11.58,26.74,44.2,27.4c-2.75,2.09-37.62,9.61-41.73,43.99c-0.31,2.51-0.46,5.03-0.45,7.56
		c0,31.38,24.65,48.39,36.97,56.85l7.15,4.76c13.27,8.71,29.41,19.47,36.97,36.15c0-0.62,0-1.23,0-1.81
		c-0.31-6.98-2.62-13.72-6.65-19.43c-2.39-3.4-5.07-6.59-8.01-9.53c4.68,3.2,9,6.89,12.9,11.01c12.12,12.98,24.64,27.07,55.49,27.4
		c13.58-0.55,26.54-5.89,36.56-15.07C414.79,540.39,379.46,545.86,358.02,518.71z"/>
	<path style="fill:#1B1B1B;" d="M557.85,267.25c-1.56-9.44-2.37-18.98-2.42-28.55c0-2.38,0-4.11,0-5.96
		c-5.28,8.98-8.26,19.12-8.67,29.53c-2.01-10.68-8.95-40.34-30.93-55.94c-11.3-8.47-24.78-13.57-38.86-14.7
		c15.69,5.42,45.18,20.13,48.88,55.08l0.25,2.38l-2.14-1.11c-6.16-3.25-13.92-13.84-17.83-21.81c1.36,18.2,17.46,40.79,34.38,52.74
		c16.06,11.38,23.78,24.65,23.78,41.49c-0.01,3.39-0.3,6.77-0.86,10.1c-3.86,23.54-22.1,42.88-53.6,50.15
		c13.21-7.73,22.04-21.2,23.86-36.39c-4.92,6.51-11.29,11.78-18.61,15.4l-4.11,1.52l2.46-3.49c0,0,15.69-22.51,16.43-45.8v-1.4
		c-0.51-13.8-4.77-27.21-12.32-38.77c-0.29,9.57-2.67,33.56-19.47,46.13l-3.86,2.88l1.89-4.4c4.6-11.37,7.01-23.51,7.11-35.78
		c0.43-9.17-1.84-18.27-6.53-26.16c-10.35-15.24-25.51-22.26-50.56-23.45c-18.77-0.9-27.68-9.94-31.09-14.75
		c-0.27,1.78-0.41,3.58-0.41,5.38c0.08,13.55,7.46,26,19.31,32.57c11.17,7.06,26.99,20.54,27.48,27.81
		c-1.11-1.6-31.34-35.69-76.11-10.27c26.21-1.11,60.3,10.93,67.16,29.04c2.12,5.23,3.28,10.79,3.45,16.43
		c0.2,6.44-2.39,12.65-7.11,17.05c3.77,5.06,5.82,11.19,5.87,17.5c-0.08,6.46-1.94,12.77-5.38,18.24l-0.62,0.9l-0.99-0.45
		c-16.43-7.8-29.98-29.49-28.75-38.12c0.09-2.05,1.59-3.76,3.61-4.11c4.93-0.25,9.85,0.57,14.42,2.42c-4.54-3.92-9.6-7.2-15.03-9.73
		c4.68-0.49,8.67-1.4,13.6-2.09c-6.76-1.6-13.03-4.85-18.24-9.45l-0.29-0.25c-4.29-3.72-7.76-8.3-10.19-13.43
		c2.63,31.34,9.36,54.88,20.21,69.83c5.46,7.48,9.65,13.02,12.94,17.05l0.41,0.53l-0.58,2.01c-1.36,5.01-2.75,8.21-14.25,12.08
		c-8.75,2.02-15.02,9.71-15.24,18.69c8.21-0.29,25.92,2.83,36.68,14.99c5.72,6.49,8.77,14.89,8.54,23.54
		c-0.03,4.15-0.56,8.29-1.56,12.32c-4.6,19.8-23.58,31.55-41.07,33.72c11.83,8.01,26.59,10.39,40.34,6.49
		c20.54-5.34,28.75-24.28,31.55-32.16c3.57-10.64,4.48-31.96-0.86-42.47c11.62,5.83,16.84,20.09,18.4,39.64
		c0,2.14,0.25,4.31,0.25,6.45c-0.06,10.48-1.6,20.89-4.6,30.93c8.91-5.42,27.64-23.17,30.44-46.05c0.32-2.59,0.49-5.2,0.49-7.8
		c0-16.96-7.31-31.59-22.59-45.43l-3.61-3.08l4.68,0.99c12.44,2.1,24.22,7.1,34.38,14.58c-5.96-15.53-26.74-26.45-32.53-28.38
		c17.58-1.31,62.11-21.28,65.72-62.97c0.29-3.61,0.45-6.94,0.45-10.02c0.35-13.27-3.37-26.33-10.68-37.42
		C561.37,278.7,559.04,273.12,557.85,267.25z"/>
</g>
</svg>
