<?xml version="1.0" encoding="UTF-8"?>
<svg data-name="图层_1" xmlns="http://www.w3.org/2000/svg" version="1.1" viewBox="0 0 800 800">
  <!-- Created by @FCLOGO 2024-12-20 GMT+8 13:21:27 . https://fclogo.top/ -->
<!-- FOR PERSONAL USE ONLY NOT FOR COMMERCIAL USE -->
  <path d="M348.2194,774.301c-.786,0-1.3752-.2173-1.7682-.6519-.393-.4352-.5284-1.03-.406-1.7856l.2518-1.6478c.122-.755.4501-1.3504.9841-1.785.5339-.4352,1.1939-.6525,1.9799-.6525.7553,0,1.3293.1987,1.7223.5954.3927.3967.551.9381.4747,1.6248h-1.2358c.0304-.3589-.0553-.637-.2573-.8357-.2024-.1981-.4979-.2974-.8869-.2974-.4197,0-.763.1167-1.03.3489-.2673.2328-.4349.5631-.5035.9903l-.2632,1.659c-.0686.4352-.0056.7686.1887,1.0015.1946.2328.5017.3489.9214.3489.389,0,.7152-.0987.9785-.2974.2632-.1981.4365-.4805.5206-.8469h1.2358c-.1372.6867-.4672,1.2306-.9897,1.631-.5228.4005-1.1616.6004-1.9169.6004ZM352.7967,774.1868l.9956-6.2943h1.1902l-.1946,1.1902c.3359-.8698.9729-1.3044,1.9113-1.3044.6712,0,1.1691.208,1.4932.624.3244.416.4293.9859.3148,1.7105l-.0686.4234h-1.2703l.0571-.3204c.0689-.4501.0115-.7953-.1714-1.0356-.1832-.2403-.4771-.3607-.8813-.3607-.4045,0-.7401.1223-1.007.3663-.2673.2446-.4349.588-.5035,1.03l-.6296,3.9711h-1.2358ZM361.9058,774.301c-.7705,0-1.3463-.2229-1.7279-.6693s-.515-1.0356-.4005-1.7682l.2518-1.6478c.0838-.488.2573-.9152.5206-1.2815s.6007-.6507,1.0129-.8524c.4119-.2024.8732-.3036,1.3845-.3036.7705,0,1.3485.2235,1.7338.6693.3852.4464.5169,1.0356.3949,1.7682l-.1717,1.1213h-3.845l-.0916.5265c-.1527.9536.2173,1.4305,1.1098,1.4305.7171,0,1.175-.2477,1.3734-.7438h1.2247c-.1679.5339-.5035.9599-1.007,1.2759-.5038.3166-1.0912.475-1.7626.475ZM361.2306,770.2157l-.0456.2862,2.6548-.0118.0459-.2856c.0686-.4656.0133-.822-.1661-1.0704-.1791-.2477-.4861-.3719-.9211-.3719-.4427,0-.7953.126-1.0586.3775-.2632.2521-.4331.6109-.5094,1.076ZM368.3258,774.301c-.6333,0-1.1027-.2117-1.4078-.6351s-.3967-1.0008-.2744-1.7335l.2744-1.7738c.1145-.7326.393-1.3119.8357-1.7397.4424-.4272.98-.6407,1.6133-.6407.4653,0,.8298.1186,1.093.3545.2632.2365.3908.5575.3834.9617h.023l.1717-1.202h1.2358l-.9956,6.2943h-1.2247l.1946-1.2014h-.023c-.122.4116-.3511.7339-.6867.9667s-.7401.3489-1.2129.3489ZM368.9324,773.2257c.389,0,.7152-.1186.9782-.3551.2632-.2359.4293-.5718.4979-1.007l.2518-1.6478c.0686-.4272.0096-.7612-.1773-1.0015-.1872-.2403-.475-.3601-.8642-.3601-.3967,0-.7249.118-.9841.3545-.2595.2365-.4234.5724-.492,1.007l-.2518,1.6478c-.0686.4427-.0133.7804.1658,1.0133.1794.2328.4712.3489.8757.3489ZM376.3477,774.1868c-.5721,0-.9937-.1565-1.2644-.4694-.271-.3123-.3607-.7512-.2691-1.3156l.538-3.3874h-1.7394l.1714-1.1219h1.7397l.2747-1.7161h1.2358l-.2747,1.7161h2.472l-.1832,1.1219h-2.4605l-.5377,3.3874c-.0764.4421.099.6637.5262.6637h1.7167l-.1717,1.1213h-1.7738ZM382.5042,774.301c-.7705,0-1.3463-.2229-1.7279-.6693s-.515-1.0356-.4005-1.7682l.2518-1.6478c.0838-.488.2573-.9152.5206-1.2815s.6007-.6507,1.0129-.8524c.4119-.2024.8732-.3036,1.3845-.3036.7705,0,1.3485.2235,1.7338.6693.3852.4464.5169,1.0356.3949,1.7682l-.1717,1.1213h-3.845l-.0916.5265c-.1527.9536.2173,1.4305,1.1098,1.4305.7171,0,1.175-.2477,1.3734-.7438h1.2247c-.1679.5339-.5035.9599-1.007,1.2759-.5038.3166-1.0912.475-1.7626.475ZM381.829,770.2157l-.0456.2862,2.6548-.0118.0459-.2856c.0686-.4656.0133-.822-.1661-1.0704-.1791-.2477-.4861-.3719-.9211-.3719-.4427,0-.7953.126-1.0586.3775-.2632.2521-.4331.6109-.5094,1.076ZM388.9243,774.301c-.6333,0-1.1008-.2117-1.4019-.6351-.3014-.4234-.3949-1.0008-.2803-1.7335l.2744-1.7738c.1145-.7326.393-1.3119.8357-1.7397.4424-.4272.98-.6407,1.6133-.6407.4653,0,.8298.1186,1.093.3545.2632.2365.3908.5575.3834.9617h.023l.2058-1.4652.2977-1.7962h1.2358l-1.3274,8.3537h-1.2247l.1946-1.2014h-.023c-.122.4116-.3511.7339-.6867.9667s-.7401.3489-1.2129.3489ZM389.5309,773.2257c.389,0,.7152-.1186.9782-.3551.2632-.2359.4293-.5718.4979-1.007l.2518-1.6478c.0761-.4272.0189-.7612-.1717-1.0015-.1909-.2403-.4805-.3601-.8698-.3601-.3967,0-.7249.118-.9841.3545-.2595.2365-.4234.5724-.492,1.007l-.2518,1.6478c-.0764.4427-.023.7804.1602,1.0133s.4768.3489.8813.3489ZM401.0175,774.301c-.4731,0-.8394-.1161-1.0986-.3489-.2595-.2328-.3852-.5551-.3775-.9667h-.0115l-.1946,1.2014h-1.2243l1.3274-8.3537h1.2358l-.2862,1.7962-.2744,1.4652h.0456c.122-.4123.353-.7345.6923-.9673.3396-.2322.7419-.3489,1.2076-.3489.633,0,1.1002.2136,1.4016.6407.3014.4278.3949,1.007.2806,1.7397l-.2747,1.7738c-.1145.7326-.3949,1.31-.8413,1.7335-.4461.4234-.9822.6351-1.6077.6351ZM400.7657,773.2257c.3967,0,.7227-.1161.9785-.3489.2555-.2328.4216-.5706.4976-1.0133l.2518-1.6478c.0689-.4346.0115-.7705-.1714-1.007-.1832-.2365-.4734-.3545-.8698-.3545-.3893,0-.7152.1198-.9785.3601s-.429.5743-.4979,1.0015l-.2518,1.6478c-.0686.4352-.0112.7711.1717,1.007.1832.2365.4731.3551.8698.3551ZM405.4694,776.2468l.1717-1.0642h1.934c.6407,0,1.007-.3017,1.0986-.9046l.1028-.6749.2061-1.1902h-.0345c-.122.4197-.3471.7438-.6752.9729-.3281.2285-.7286.3433-1.2014.3433-.6258,0-1.093-.2005-1.4019-.601s-.4104-.9443-.3033-1.631l.5836-3.6047h1.2358l-.5606,3.4793c-.0612.4116,0,.732.1832.9611s.4653.3433.8469.3433c.389,0,.7168-.1217.9841-.3663.267-.244.4309-.5836.492-1.0182l.538-3.3992h1.2358l-1.007,6.4086c-.0993.6029-.37,1.0778-.8124,1.4249-.4427.3471-.9996.5209-1.6707.5209h-1.9455ZM417.787,770.0853h3.221l.5368-1.8545h-5.4659l-1.7081,6.4419h2.1473l.5856-2.0985h3.0257l.4392-1.7081h-3.0257l.244-.7808ZM424.229,772.9158c-.5856,0-1.0249-.3904-1.0249-1.1225,0-.8784.6344-1.7569,1.6105-1.7569.488,0,.8784.244,1.0248.7808l1.9521-.8296c-.2928-1.1713-1.2689-1.9033-2.6353-1.9033-2.7817,0-4.1482,2.1473-4.1482,3.9042s1.2689,2.8305,3.0746,2.8305c1.3665,0,2.3425-.5856,2.9769-1.4153l-1.5129-1.1713c-.3904.4392-.8296.6832-1.3177.6832ZM430.9149,768.2308h-2.1473l-1.7569,6.4419h5.1242l.488-1.8545h-2.9281l1.2201-4.5874ZM439.7481,771.0125c0-1.6593-1.3177-2.9281-3.221-2.9281-2.1961,0-3.8066,1.8057-3.8066,3.8066,0,1.6593,1.3177,2.9281,3.221,2.9281,2.1961,0,3.8066-1.8057,3.8066-3.8066ZM434.9167,771.6957c0-.8296.5856-1.7081,1.5129-1.7081.7808,0,1.1713.5368,1.1713,1.2201,0,.8296-.5856,1.7081-1.5129,1.7081-.7808,0-1.1713-.5368-1.1713-1.2201ZM443.2131,772.2326h1.0737l-.1952.6832c-.1464.0488-.3416.0976-.5856.0976-.6832,0-1.2689-.3904-1.2689-1.2201,0-1.0249.732-1.9033,1.9521-1.9033.5856,0,1.1225.244,1.5129.5856l1.3665-1.3665c-.4392-.5368-1.5129-1.0737-2.7329-1.0737-2.5865,0-4.2946,1.7569-4.2946,3.8554,0,2.0497,1.6105,2.8793,3.221,2.8793.9272,0,1.8545-.2928,2.4889-.6832l.9272-3.3186h-3.1234l-.3416,1.4641ZM450.7775,768.0844c-2.1961,0-3.8066,1.8057-3.8066,3.8066,0,1.6593,1.3177,2.9281,3.221,2.9281,2.1961,0,3.8066-1.8057,3.8066-3.8066,0-1.6593-1.3177-2.9281-3.221-2.9281ZM450.3382,772.9158c-.7808,0-1.1713-.5368-1.1713-1.2201,0-.8296.5856-1.7081,1.5129-1.7081.7808,0,1.1713.5368,1.1713,1.2201,0,.8296-.5856,1.7081-1.5129,1.7081ZM437.9424,767.4987c-.0488.2928.0976.488.4392.488s.5368-.1952.6344-.488c.0488-.244-.0976-.488-.4392-.488s-.5856.244-.6344.488ZM432.1349,765.4978c-.4392,0-.732.244-.7808.5856s.0976.5856.5368.5856.732-.244.7808-.5856c.0976-.3416-.0976-.5856-.5368-.5856ZM433.0134,767.3035c-.0976.5368.1464.8784.8296.8784.6344,0,1.0737-.3904,1.1713-.8784s-.1464-.8784-.8296-.8784c-.6832,0-1.0737.3904-1.1713.8784ZM439.6017,777.552l-2.4401-1.8057h-1.5129l4.2458,3.1722,1.6105-3.1722h-.976l-.9272,1.8057ZM425.8394,767.1571l-2.0009-1.4641,23.1323-2.7817-2.1473,4.2458h1.0248l2.6841-5.3195-26.9877,3.221,2.7817,2.0985h1.5129ZM338.7186,785.7853l.6088-3.8315h2.32l-.084.5194h-1.7636l-.1837,1.1445h1.6272l-.084.5248h-1.6166l-.2573,1.6428h-.5668ZM342.97,785.8377c-.3568,0-.6228-.1005-.7978-.3019-.175-.201-.2345-.473-.1784-.8161l.2677-1.7006c.056-.3429.2029-.6148.4408-.8161.2379-.201.5355-.3019.8923-.3019s.6228.1.7979.2993c.1748.1993.2361.4707.1837.8136l-.2677,1.7057c-.0561.3431-.2039.6151-.4435.8161-.2398.2013-.5381.3019-.895.3019ZM343.0487,785.3339c.1925,0,.3483-.0524.4672-.1575.119-.1051.1942-.2571.2257-.4568l.2678-1.7006c.0315-.1993.0051-.3517-.0787-.4565-.084-.1051-.2223-.1575-.4148-.1575s-.3473.0524-.4645.1575c-.1173.1048-.1916.2571-.2231.4565l-.2677,1.7006c-.0315.1996-.0053.3517.0787.4568s.2204.1575.4094.1575ZM344.9961,785.7853l.6088-3.8315h1.202c.2379,0,.4391.0464.6036.139.1645.0928.2835.223.357.391s.091.3656.0524.5932c-.0384.2591-.14.4838-.3044.6746-.1645.1905-.3656.3209-.6036.391l.5354,1.6428h-.6194l-.4777-1.5748h-.5406l-.2466,1.5748h-.5668ZM345.8883,783.7068h.6352c.1889,0,.349-.0558.4803-.168.1313-.1119.2107-.2623.2388-.4514.0316-.1925,0-.3454-.0944-.4593-.0945-.1136-.2362-.1706-.4252-.1706h-.6352l-.1995,1.2493ZM349.545,785.7853l.6088-3.8315h1.2544c.3709,0,.6508.1048.8399.315.1889.2099.2553.4898.1993.8398-.0384.2344-.1216.4383-.2493.6114s-.2905.307-.4881.4015c-.1978.0945-.419.1418-.6639.1418h-.6928l-.2415,1.5221h-.5668ZM350.432,783.754h.6928c.1924,0,.3568-.0587.4934-.176.1364-.117.2204-.2737.2519-.4696s-.0017-.3525-.0997-.4699-.245-.1757-.441-.1757h-.6876l-.2099,1.2911ZM352.7466,785.7853l.6088-3.8315h2.2518l-.0787.5038h-1.6954l-.1731,1.0867h1.5115l-.0787.4986h-1.5115l-.1942,1.2387h1.6901l-.0787.5038h-2.2518ZM355.8434,785.7853l.6088-3.8315h1.202c.2379,0,.4391.0464.6036.139.1645.0928.2835.223.357.391s.091.3656.0524.5932c-.0384.2591-.14.4838-.3044.6746-.1645.1905-.3656.3209-.6036.391l.5354,1.6428h-.6194l-.4777-1.5748h-.5406l-.2466,1.5748h-.5668ZM356.7356,783.7068h.6352c.1889,0,.349-.0558.4803-.168.1313-.1119.2107-.2623.2388-.4514.0316-.1925,0-.3454-.0944-.4593-.0945-.1136-.2362-.1706-.4252-.1706h-.6352l-.1995,1.2493ZM360.1316,785.8377c-.385,0-.6736-.0951-.8661-.2859-.1924-.1908-.2641-.4505-.2151-.7794h.5668c-.028.1748.0105.3121.1155.4121.1051.0997.266.1495.483.1495.2029,0,.3701-.049.5012-.1469.1313-.098.2109-.2327.2389-.4044.0209-.1504.0007-.2788-.0604-.3856-.0614-.1068-.1583-.1811-.2913-.2233l-.4566-.1364c-.266-.0803-.4619-.217-.5879-.4095-.126-.1922-.1697-.4197-.1313-.6823.035-.2099.1121-.3935.2309-.551s.2729-.2799.4619-.3673.4024-.1313.6404-.1313c.3498,0,.6158.0954.7978.2859.182.1908.2485.4437.1995.7586h-.5668c.0279-.168-.0027-.3001-.092-.3964-.0891-.0963-.2301-.1444-.4225-.1444-.1889,0-.343.0447-.4619.1338-.119.0894-.1889.2144-.21.3753-.0245.1506-.007.2791.0525.3859s.1575.1811.2939.223l.4672.1469c.2624.0806.4558.2173.5801.4095.1242.1925.1653.4217.1233.6877-.035.217-.1155.4058-.2415.5667-.1259.1612-.2878.2862-.4855.3753-.1976.0894-.419.1338-.6639.1338ZM363.2651,785.8377c-.3568,0-.6228-.1005-.7978-.3019-.175-.201-.2345-.473-.1784-.8161l.2677-1.7006c.056-.3429.2029-.6148.4408-.8161.2379-.201.5355-.3019.8923-.3019s.6228.1.7979.2993c.1748.1993.2361.4707.1837.8136l-.2677,1.7057c-.0561.3431-.2039.6151-.4435.8161-.2398.2013-.5381.3019-.895.3019ZM363.3439,785.3339c.1925,0,.3483-.0524.4672-.1575.119-.1051.1942-.2571.2257-.4568l.2678-1.7006c.0315-.1993.0051-.3517-.0787-.4565-.084-.1051-.2223-.1575-.4148-.1575s-.3473.0524-.4645.1575c-.1173.1048-.1916.2571-.2231.4565l-.2677,1.7006c-.0315.1996-.0053.3517.0787.4568s.2204.1575.4094.1575ZM365.2754,785.7853l.6088-3.8315h.7086l.6194,3.186c.007-.098.0165-.217.0289-.3571.0121-.1398.0271-.2851.0446-.4354.0175-.1506.0367-.2888.0577-.4146l.315-1.9788h.525l-.609,3.8315h-.7085l-.6141-3.186c-.0071.0945-.0167.209-.0289.3437s-.0272.2757-.0446.4226c-.0177.1469-.0367.2833-.0578.4095l-.315,2.0102h-.5301ZM368.2252,785.7853l1.5851-3.8315h.7454l.3726,3.8315h-.5616l-.0735-.9711h-1.0865l-.3884.9711h-.5932ZM369.3852,784.3418h.8714l-.0893-1.1023c-.0175-.1959-.0298-.3654-.0367-.5089-.0071-.1435-.0105-.2432-.0105-.2993-.0175.0561-.0517.1558-.1024.2993s-.1146.3112-.1915.5038l-.441,1.1075ZM371.7208,785.7853l.6088-3.8315h.567l-.525,3.3118h1.6744l-.0787.5197h-2.2465ZM376.6785,785.8377c-.3673,0-.6342-.1005-.8003-.3019-.1663-.201-.2214-.475-.1654-.8213l.4357-2.7608h.567l-.4357,2.7554c-.0315.1962-.008.35.0708.4619.0787.1122.2144.168.4068.168.1925,0,.3473-.0558.4646-.168.1172-.1119.1915-.2657.2231-.4619l.4355-2.7554h.567l-.4357,2.7608c-.056.35-.2003.6245-.433.8241-.2328.1993-.5328.299-.9003.299ZM379.8435,785.8377c-.385,0-.6736-.0951-.8661-.2859-.1924-.1908-.2641-.4505-.2151-.7794h.5668c-.028.1748.0105.3121.1155.4121.1051.0997.266.1495.483.1495.2029,0,.3701-.049.5012-.1469.1313-.098.2109-.2327.2389-.4044.0209-.1504.0007-.2788-.0604-.3856-.0614-.1068-.1583-.1811-.2913-.2233l-.4566-.1364c-.266-.0803-.4619-.217-.5879-.4095-.126-.1922-.1697-.4197-.1313-.6823.035-.2099.1121-.3935.2309-.551s.2729-.2799.4619-.3673.4024-.1313.6404-.1313c.3498,0,.6158.0954.7978.2859.182.1908.2485.4437.1995.7586h-.5668c.0279-.168-.0027-.3001-.092-.3964-.0891-.0963-.2301-.1444-.4225-.1444-.1889,0-.343.0447-.4619.1338-.119.0894-.1889.2144-.21.3753-.0245.1506-.007.2791.0525.3859s.1575.1811.2939.223l.4672.1469c.2624.0806.4558.2173.5801.4095.1242.1925.1653.4217.1233.6877-.035.217-.1155.4058-.2415.5667-.1259.1612-.2878.2862-.4855.3753-.1976.0894-.419.1338-.6639.1338ZM381.9062,785.7853l.6088-3.8315h2.2518l-.0787.5038h-1.6954l-.1731,1.0867h1.5115l-.0787.4986h-1.5115l-.1942,1.2387h1.6901l-.0787.5038h-2.2518ZM386.9426,785.8377c-.3568,0-.6228-.1005-.7978-.3019-.175-.201-.2345-.473-.1784-.8161l.2677-1.7006c.056-.3429.2029-.6148.4408-.8161.2379-.201.5355-.3019.8923-.3019s.6228.1.7979.2993c.1748.1993.2361.4707.1837.8136l-.2677,1.7057c-.0561.3431-.2039.6151-.4435.8161-.2398.2013-.5381.3019-.895.3019ZM387.0213,785.3339c.1925,0,.3483-.0524.4672-.1575.119-.1051.1942-.2571.2257-.4568l.2678-1.7006c.0315-.1993.0051-.3517-.0787-.4565-.084-.1051-.2223-.1575-.4148-.1575s-.3473.0524-.4645.1575c-.1173.1048-.1916.2571-.2231.4565l-.2677,1.7006c-.0315.1996-.0053.3517.0787.4568s.2204.1575.4094.1575ZM388.9529,785.7853l.6088-3.8315h.7086l.6194,3.186c.007-.098.0165-.217.0289-.3571.0121-.1398.0271-.2851.0446-.4354.0175-.1506.0367-.2888.0577-.4146l.315-1.9788h.525l-.609,3.8315h-.7085l-.6141-3.186c-.0071.0945-.0167.209-.0289.3437s-.0272.2757-.0446.4226c-.0177.1469-.0367.2833-.0578.4095l-.315,2.0102h-.5301ZM392.249,785.7853l.6088-3.8315h.567l-.525,3.3118h1.6744l-.0787.5197h-2.2465ZM396.1174,785.7853l.2204-1.4119-.7506-2.4197h.5774l.4462,1.4486c.0279.0945.0498.1837.0656.2677.0157.084.0253.1469.0288.1888.0175-.0419.0464-.1048.0867-.1888.0402-.084.0883-.1731.1442-.2677l.8976-1.4486h.5984l-1.5275,2.4197-.2204,1.4119h-.5668ZM399.217,785.7853l.6088-3.8315h.7086l.6192,3.186c.0071-.098.0165-.217.029-.3571.012-.1398.0271-.2851.0444-.4354.0177-.1506.037-.2888.0578-.4146l.315-1.9788h.5248l-.6088,3.8315h-.7085l-.6141-3.186c-.0071.0945-.0167.209-.0289.3437s-.0272.2757-.0446.4226c-.0177.1469-.0367.2833-.0578.4095l-.315,2.0102h-.5301ZM403.5053,785.8377c-.3571,0-.6231-.1005-.7979-.3019-.1751-.201-.2344-.473-.1785-.8161l.2677-1.7006c.0561-.3429.203-.6148.4411-.8161.2378-.201.5354-.3019.8922-.3019.3571,0,.6228.1.7979.2993.1748.1993.2361.4707.1837.8136l-.2677,1.7057c-.0561.3431-.2039.6151-.4437.8161-.2395.2013-.5379.3019-.8947.3019ZM403.5839,785.3339c.1925,0,.3483-.0524.4673-.1575.1187-.1051.1942-.2571.2255-.4568l.2677-1.7006c.0316-.1993.0054-.3517-.0786-.4565-.084-.1051-.2224-.1575-.4146-.1575-.1925,0-.3474.0524-.4647.1575-.117.1048-.1914.2571-.223.4565l-.2677,1.7006c-.0316.1996-.0051.3517.0789.4568.0837.1051.2204.1575.4092.1575ZM406.3814,785.7853l.5248-3.3121h-1.0234l.084-.5194h2.6193l-.084.5194h-1.0289l-.5248,3.3121h-.567ZM409.5178,785.7853l.6088-3.8315h2.32l-.084.5194h-1.7636l-.1837,1.1445h1.6272l-.084.5248h-1.6166l-.2571,1.6428h-.567ZM413.7694,785.8377c-.3571,0-.6231-.1005-.7979-.3019-.1751-.201-.2344-.473-.1785-.8161l.2677-1.7006c.0561-.3429.203-.6148.4411-.8161.2378-.201.5354-.3019.8922-.3019.3571,0,.6228.1.7979.2993.1748.1993.2361.4707.1837.8136l-.2677,1.7057c-.0561.3431-.2039.6151-.4437.8161-.2395.2013-.5379.3019-.8947.3019ZM413.848,785.3339c.1925,0,.3483-.0524.4673-.1575.1187-.1051.1942-.2571.2255-.4568l.2677-1.7006c.0316-.1993.0054-.3517-.0786-.4565-.084-.1051-.2224-.1575-.4146-.1575-.1925,0-.3474.0524-.4647.1575-.117.1048-.1914.2571-.223.4565l-.2677,1.7006c-.0316.1996-.0051.3517.0789.4568.0837.1051.2204.1575.4092.1575ZM415.7952,785.7853l.6088-3.8315h1.202c.2381,0,.4391.0464.6037.139.1643.0928.2833.223.3568.391s.0911.3656.0527.5932c-.0387.2591-.1401.4838-.3044.6746-.1646.1905-.3659.3209-.6037.391l.5354,1.6428h-.6194l-.4776-1.5748h-.5408l-.2466,1.5748h-.567ZM416.6876,783.7068h.635c.1891,0,.3491-.0558.4804-.168.131-.1119.2107-.2623.2386-.4514.0316-.1925,0-.3454-.0945-.4593-.0943-.1136-.2361-.1706-.4252-.1706h-.635l-.1993,1.2493ZM420.905,785.8377c-.3602,0-.6308-.1005-.8107-.3019-.1803-.201-.2423-.473-.1865-.8161l.2677-1.7006c.0561-.3463.2056-.6194.4488-.8187s.545-.2993.9056-.2993c.3568,0,.6253.1008.8056.3019.1803.2013.2423.4733.1865.8161h-.567c.0313-.1993.0026-.3517-.0866-.4565-.0894-.1051-.2284-.1575-.4175-.1575-.1925,0-.3508.0524-.475.1575-.1242.1048-.2019.2554-.2335.4514l-.2677,1.7057c-.0316.1996-.0026.3517.0866.4568.0894.1051.2301.1575.4226.1575s.35-.0524.4724-.1575.1993-.2571.2309-.4568h.5667c-.0347.2275-.1145.4252-.2386.5932s-.2808.2976-.4699.3884c-.1888.0908-.4024.1364-.6404.1364ZM424.0335,785.8377c-.3571,0-.6231-.1005-.7979-.3019-.1751-.201-.2344-.473-.1785-.8161l.2677-1.7006c.0561-.3429.203-.6148.4411-.8161.2378-.201.5354-.3019.8922-.3019.3571,0,.6228.1.7979.2993.1748.1993.2361.4707.1837.8136l-.2677,1.7057c-.0561.3431-.2039.6151-.4437.8161-.2395.2013-.5379.3019-.8947.3019ZM424.1121,785.3339c.1925,0,.3483-.0524.4673-.1575.1187-.1051.1942-.2571.2255-.4568l.2677-1.7006c.0316-.1993.0054-.3517-.0786-.4565-.084-.1051-.2224-.1575-.4146-.1575-.1925,0-.3474.0524-.4647.1575-.117.1048-.1914.2571-.223.4565l-.2677,1.7006c-.0316.1996-.0051.3517.0789.4568.0837.1051.2204.1575.4092.1575ZM425.9653,785.7853l.6088-3.8315h.6874l.1837,1.2282c.0211.119.0367.2301.0473.3332.0105.1034.0194.1828.0262.2389.0177-.0561.0473-.1364.0894-.2415.0419-.1051.0908-.217.1469-.336l.5667-1.2228h.7088l-.6088,3.8315h-.5354l.2045-1.2911c.0245-.168.0578-.3525.1-.5539.0419-.201.0874-.4041.1364-.6088s.0963-.3998.1418-.5852c.0453-.1854.0874-.3483.1259-.4881l-.8554,1.8632h-.5513l-.2833-1.8632c-.0037.1364-.0105.2947-.0211.475s-.0236.3719-.0393.5747c-.0157.203-.035.4069-.0578.6114-.0228.2047-.0481.3964-.076.5749l-.2047,1.2911h-.5405ZM429.1145,785.7853l.6088-3.8315h.6874l.1837,1.2282c.0211.119.0367.2301.0473.3332.0105.1034.0194.1828.0262.2389.0177-.0561.0473-.1364.0894-.2415.0419-.1051.0908-.217.1469-.336l.5667-1.2228h.7088l-.6088,3.8315h-.5354l.2045-1.2911c.0245-.168.0578-.3525.1-.5539.0419-.201.0874-.4041.1364-.6088s.0963-.3998.1418-.5852c.0453-.1854.0874-.3483.1259-.4881l-.8554,1.8632h-.5513l-.2833-1.8632c-.0037.1364-.0105.2947-.0211.475s-.0236.3719-.0393.5747c-.0157.203-.035.4069-.0578.6114-.0228.2047-.0481.3964-.076.5749l-.2047,1.2911h-.5405ZM432.4107,785.7853l.6088-3.8315h2.2516l-.0786.5038h-1.6955l-.1731,1.0867h1.5115l-.0786.4986h-1.5118l-.1942,1.2387h1.6901l-.0786.5038h-2.2516ZM435.5073,785.7853l.6088-3.8315h1.202c.2381,0,.4391.0464.6037.139.1643.0928.2833.223.3568.391s.0911.3656.0527.5932c-.0387.2591-.1401.4838-.3044.6746-.1646.1905-.3659.3209-.6037.391l.5354,1.6428h-.6194l-.4776-1.5748h-.5408l-.2466,1.5748h-.567ZM436.3997,783.7068h.635c.1891,0,.3491-.0558.4804-.168.131-.1119.2107-.2623.2386-.4514.0316-.1925,0-.3454-.0945-.4593-.0943-.1136-.2361-.1706-.4252-.1706h-.635l-.1993,1.2493ZM439.8007,785.8377c-.3602,0-.6308-.1005-.8107-.3019-.1803-.201-.2423-.473-.1865-.8161l.2677-1.7006c.0561-.3463.2056-.6194.4488-.8187s.545-.2993.9056-.2993c.3568,0,.6253.1008.8056.3019.1803.2013.2423.4733.1865.8161h-.567c.0313-.1993.0026-.3517-.0866-.4565-.0894-.1051-.2284-.1575-.4175-.1575-.1925,0-.3508.0524-.475.1575-.1242.1048-.2019.2554-.2335.4514l-.2677,1.7057c-.0316.1996-.0026.3517.0866.4568.0894.1051.2301.1575.4226.1575s.35-.0524.4724-.1575.1993-.2571.2309-.4568h.5667c-.0347.2275-.1145.4252-.2386.5932s-.2808.2976-.4699.3884c-.1888.0908-.4024.1364-.6404.1364ZM441.8792,785.7853l.0789-.5038h.7768l.4459-2.824h-.7766l.0837-.5038h2.1258l-.084.5038h-.7766l-.4462,2.824h.7768l-.0789.5038h-2.1258ZM444.7399,785.7853l1.585-3.8315h.7452l.3728,3.8315h-.5616l-.0735-.9711h-1.0867l-.3884.9711h-.5929ZM445.8998,784.3418h.8714l-.0894-1.1023c-.0174-.1959-.0296-.3654-.0367-.5089-.0068-.1435-.0103-.2432-.0103-.2993-.0177.0561-.0518.1558-.1025.2993s-.1148.3112-.1916.5038l-.4408,1.1075ZM448.2354,785.7853l.6088-3.8315h.567l-.5248,3.3118h1.6741l-.0786.5197h-2.2465ZM453.1932,785.8377c-.3676,0-.6345-.1005-.8005-.3019-.1663-.201-.2213-.475-.1654-.8213l.4357-2.7608h.567l-.4357,2.7554c-.0316.1962-.008.35.0709.4619.0786.1122.2141.168.4066.168s.3474-.0558.4645-.168c.1173-.1119.1916-.2657.2233-.4619l.4357-2.7554h.5667l-.4357,2.7608c-.0558.35-.2002.6245-.4328.8241-.2329.1993-.5328.299-.9001.299ZM456.3581,785.8377c-.385,0-.6738-.0951-.866-.2859-.1925-.1908-.2643-.4505-.2153-.7794h.567c-.0282.1748.0105.3121.1153.4121.1051.0997.266.1495.483.1495.2028,0,.3699-.049.5012-.1469s.2107-.2327.2389-.4044c.0211-.1504.0009-.2788-.0604-.3856s-.1583-.1811-.2913-.2233l-.4568-.1364c-.266-.0803-.4619-.217-.5878-.4095-.1259-.1922-.1697-.4197-.1313-.6823.035-.2099.1119-.3935.2309-.551s.2731-.2799.4619-.3673c.1891-.0874.4024-.1313.6404-.1313.3497,0,.6157.0954.7979.2859.1817.1908.2483.4437.1993.7586h-.567c.0279-.168-.0026-.3001-.0917-.3964-.0894-.0963-.2301-.1444-.4226-.1444-.1891,0-.3429.0447-.4619.1338-.119.0894-.1891.2144-.2099.3753-.0245.1506-.0071.2791.0524.3859s.1575.1811.2939.223l.4673.1469c.2623.0806.4556.2173.5798.4095.1242.1925.1654.4217.1236.6877-.035.217-.1156.4058-.2415.5667-.1262.1612-.2879.2862-.4855.3753-.1979.0894-.4192.1338-.6641.1338ZM458.4209,785.7853l.6088-3.8315h2.2516l-.0786.5038h-1.6955l-.1731,1.0867h1.5115l-.0786.4986h-1.5118l-.1942,1.2387h1.6901l-.0786.5038h-2.2516Z" style="fill: #ccc;"/>
  <g>
    <polygon id="_94112392" points="399.9998 49.8983 750 400.101 399.9998 750.1017 50 399.898 399.9998 49.8983" style="fill: #0069b2; fill-rule: evenodd; stroke: #0069b2; stroke-miterlimit: 10; stroke-width: .1823px;"/>
    <polygon id="_46237464" points="400.0222 120.6944 679.216 400.0884 400.0222 679.2851 120.8306 399.8887 400.0222 120.6944" style="fill: #fccd03; fill-rule: evenodd; stroke: #fccd03; stroke-miterlimit: 10; stroke-width: .1505px;"/>
    <polygon id="_96077872" points="400.0791 190.4633 609.4588 400.0343 400.0791 609.4112 190.6985 399.8537 400.0791 190.4633" style="fill: #fff; fill-rule: evenodd;"/>
    <path id="_94013336" d="M379.4123,306.9843c.336,4.6699,1.1181,7.1195,3.6657,10.4617,2.5601-2.5601,3.1178-5.1198,3.1178-5.1198.4816,1.5078,1.3305,3.2093,2.7846,5.1198,2.7818-2.0118,3.4538-4.7969,3.4538-4.7969.4685,1.5209.8713,2.8863,2.3347,4.7969,2.7851-2.0118,3.2317-4.6825,3.2317-4.6825.4783,1.4289,1.0617,2.8705,2.4463,4.6825.7509-.5479,1.3305-1.1279,1.7771-1.6884" style="fill: #fff; fill-rule: evenodd; stroke: #e6040f; stroke-miterlimit: 10; stroke-width: .1505px;"/>
    <path id="_93854160" d="M288.9439,436.9607c.0798.6846.2123,1.3309.3808,1.9455.1106-.6683.3229-1.3305.6146-1.9325l-.9954-.0131h.9954c.7952-1.6184,2.2017-2.9493,4.0012-3.6526,1.0299,1.6632,2.6614,2.9843,4.55,3.6526.805.2917,1.6539.4597,2.5153.4821,1.0929.0443,2.1453-.133,3.1183-.4821,2.1793-.7821,3.9662-2.4458,4.9611-4.5939-.0093-.6239.3355-1.3277.9949-1.3398.6715-.0098,1.1279.5035,1.1405,1.1181-.0789,1.6095.3453,3.2508,1.1947,4.8155,1.6217,2.9974,4.7843,5.6681,8.8205,7.0751,2.8261.9945,5.6551,1.2068,8.1013.7733-2.4463-.6272-4.4231-2.5475-5.1739-5.0853,1.2516-.637,2.3604-1.5997,3.1878-2.7631.8139-1.1373,1.3715-2.4901,1.5521-3.9219.4247-3.5107-1.3879-6.7961-4.3596-8.4943.4657-.6767,1.1401-1.2866,1.9619-1.8219h.0182c1.7299-1.106,4.1347-1.7999,6.7709-1.7556,2.5279.0443,4.8062.7037,6.4825,1.743l2.2479.0061-2.2479.0065c1.7995,1.106,2.9083,2.6614,2.8733,4.3694.9263-1.0463,1.4737-2.6637,1.6212-4.3694h.0014v-.0126c.0093-.2198.0219-.4387.0219-.6589.0443-2.5256-.7065-4.816-2.2591-5.9346,7.5567-6.0447,21.2025-11.6116,29.63-11.7479,11.7133-.1904,27.3961,10.5849,32.1234,18.3316-7.7462-1.4322-14.1722-1.2642-19.46.0224-9.0459,2.2227-14.7345,7.7481-17.9097,14.238h-.0065c-2.2241,4.5626-3.2065,9.5816-3.241,14.2511-.035,4.2364.7028,8.1839,2.0113,11.2443-6.2921,1.3753-13.6803,1.176-18.8893.1685,2.2465-2.6936,2.5825-7.1097,1.1181-11.4128-.5035-1.4635-1.2194-2.9148-2.135-4.2896-1.6669-2.4934-3.7898-4.3596-6.0135-5.4903,1.5871,1.967,2.0025,4.6947,1.0831,7.1759-2.7468-.4914-5.7755.3803-7.8129,2.4934-.0313.035-.0663.0663-.1106.1106-2.3576,2.5382-2.8387,6.1945-1.5209,9.2899.6272.6015.6939,1.6539.0443,2.3128-.6365.6589-1.5302.5577-2.1541-.0443-3.5551-3.073-10.0721-2.94-15.5475.5796-2.5158,1.6221-4.4165,3.7137-5.579,5.915,1.9894-1.5428,4.7269-1.9227,7.1885-.9501-.5385,2.7375.2786,5.7787,2.3571,7.8451,2.4934,2.5023,6.2039,3.0856,9.366,1.799.4149-.4685,1.1531-.7476,1.6441-.301s.4788,1.1279.0663,1.5876c-.1451.1456-.2912.2917-.4237.4466-2.8299,3.2321-3.2191,8.9633-.7831,14.2385l5.3545.0126h-5.3545c.133.2786.2786.5577.4247.8395,1.3972,2.6488,3.3077,4.7269,5.3984,6.0797-1.2955-2.0244-1.4761-4.6284-.4685-6.9193.0443-.1106.098-.2249.1554-.3229.5922.168,1.2199.2786,1.8438.3103l1.0169.0126h-1.0169c.3355.0098.6715.0224,1.0169,0,1.8438-.0887,3.6881-.7476,5.1646-1.9899,2.7057-2.268,3.612-5.9117,2.604-9.1751,2.5158-.5385,6.0233.6365,8.8396,3.3521,2.5065,2.4267,3.8687,5.3989,3.8243,7.8129-.0219,1.1947-.4027,2.2591-1.1625,3.0417,1.5773-.1587,3.2853-1.1536,4.6382-2.5601.1545-.1545.2926-.3178.4349-.4816h.0117c1.4317-1.7332,2.0244-3.8243,1.6884-5.5445,7.2081.8489,18.354,5.8231,31.395,1.2073-.4116-3.3301-.7476-6.6729-.9469-9.9139-1.0299-16.2853,1.4854-30.0897,16.6175-28.0205-4.046,9.5681-3.6437,19.4474-.8045,28.0205,1.7897,5.4082,4.5397,10.2844,7.7588,14.2385v.0126c2.0879,2.5695,4.3913,4.7623,6.7391,6.4381-1.8564,2.7818-4.2047,5.4558-6.6631,7.7999-2.2904,2.1705-4.6601,4.0465-6.8054,5.4437-.1335-1.9105-1.0393-3.7893-2.4808-5.4437-2.1131-2.4015-5.3895-4.3339-9.1658-5.1515-2.9181-.6365-5.7447-.5035-8.127.2347,2.5065.3136,4.6956,1.9801,5.7573,4.4165-.2347.1554-.4597.3234-.6813.5003-1.9325,1.6007-3.2097,4.0684-3.2097,6.7079,0,3.5322,2.2143,6.5711,5.3671,7.9016.8582,0,1.6413.7033,1.6413,1.6221,0,.9254-.7257,1.4733-1.5871,1.4733-2.4682.1456-4.9271,1.4985-6.9071,3.6657-1.7775,1.9455-3.1747,4.5621-3.8785,7.5469-.6804,2.9148-.6015,5.7442.0891,8.1368.371-2.4943,2.0692-4.6611,4.5183-5.6779,1.5176,2.3347,4.2135,3.9569,7.1414,4.011,3.542.0574,6.615-2.0879,7.9903-5.2183-.0224-.6272.3141-1.3305.9725-1.3659.672-.0219,1.1279.4821,1.1503,1.1093-.1428,4.7049,4.0586,9.6791,10.227,11.7133,2.8513.9375,5.6681,1.1055,8.1172.6244-2.4617-.5801-4.4609-2.4682-5.2659-4.9966,2.4715-1.2959,4.3153-3.8561,4.6261-6.7611.3705-3.5201-1.5083-6.7615-4.515-8.4149.168-.2478.3579-.4821.5703-.707,1.6441-1.7645,4.6737-3.0165,8.1265-3.0165,3.5205,0,6.5935,1.2077,8.2255,3.0067l1.2861.0051-1.2861.0047c.7821.8619,1.2292,1.8695,1.2292,2.9307.6477-.7485,1.0934-1.7841,1.3407-2.9307h.0023c.1456-.6902.2221-1.407.2221-2.1317,0-2.5289-1.071-4.718-2.6488-5.8142,4.2261-3.2191,11.6816-6.8404,17.8057-13.4246,2.2246-2.4015,4.2803-5.1959,5.9346-8.5036-1.743-.8171-4.9177-2.8383-8.2693-5.747h-.0149c-4.165-3.6106-8.6184-8.5671-10.9508-14.2385-2.3478-5.6994-2.5601-12.1282,1.8317-18.6331,3.8808,7.9147,8.0817,14.0392,12.397,18.6331,12.8543,13.7158,26.5888,13.7821,34.95,7.0084,2.5247-2.0561,4.4483-4.4263,5.7437-7.0084,3.8019-7.5787,2.1705-17.0553-5.4871-26.0432.0569-.637.2562-1.4859.6053-2.4369,1.0929-3.0067,3.6307-7.0299,7.3187-8.4149,3.7889-1.4191,7.2553-3.1649,9.4351-5.8231v-.0131c1.3305-1.6315,2.1798-3.6209,2.303-6.1021.2347-4.5939-.8965-6.5044-2.4934-8.1359-.1899-.1904-.3799-.3803-.5829-.5707-.133.1904-.2786.3803-.4247.5707-1.2511,1.575-3.0067,3.1304-6.6155,4.2929-2.5471.8269-6.5487.2217-10.3157,1.8219-4.0362,1.708-5.4782,4.1916-8.8965,6.8852-.6939-4.9877,1.2609-9.4897,5.0727-12.9999.6809-.6272,1.4191-1.2199,2.2017-1.7775,8.2945-5.8674,25.9989-4.3022,30.7486-17.1915.9725-2.6133.9058-6.6374-1.5974-9.5205-1.1755-1.3435-2.8826-2.4491-5.2752-3.0287.3803,1.0267.602,2.0435.602,3.0287,0,2.7151-1.7771,5.1389-7.2744,6.4825-20.1535,4.9042-32.3708,7.889-38.8532,14.7737.4125-7.6893,7.6902-12.7526,11.9383-15.7813,3.5649-2.5475,9.1756-3.8337,15.1102-5.4749,9.0865-2.5153,18.9462-5.8455,23.3277-15.7719.9259-2.0785,1.1947-3.9443,1.0491-5.5981h-.0014c-.5049-5.2253-5.3769-8.1942-7.9226-8.7635-.1773,3.1967-1.5209,6.1115-5.0755,8.7729-4.2896,3.2191-11.8337,6.0802-24.4659,8.6305-10.1701,2.0435-18.0185,6.7485-24.1425,12.7302-.9156.8932-1.7864,1.8219-2.6264,2.7594-.4466-.8265-.6589-1.7547-.6463-2.7594.0667-6.2608,8.7729-15.4929,25.1818-21.3607,2.0337-.7252,4.1785-1.4065,6.4475-2.0216,20.958-5.6457,44.8186-18.1067,24.8365-33.4222.5572,7.6575-6.4381,14.644-19.0797,16.6208,4.1473-6.9389,9.6124-10.7627,12.3947-16.7855.9282-2.0025,1.5554-4.2364,1.7453-6.9197.1652-2.4491.0887-4.9075-.2375-7.3313h-.0009c-.6827-5.1926-2.4589-10.1631-5.2173-14.2417-3.9125-5.7792-9.7804-9.7804-17.2452-10.1355-11.5701-.5474-17.7268,4.5817-21.0467,10.1355-2.7057,4.5407-3.5331,9.3562-3.8785,11.5584-.1801,1.0962-.4466,1.9768-.896,2.6833v.0093c-1.2833,2.0244-4.0465,2.6833-10.2368,3.0959,2.1131,11.7922,11.0189,9.793,11.0189,9.793-.0098.469,0,.9156.0224,1.3403v.0126c.4718,8.6273,6.4059,11.5677,8.2152,11.7796,1.799-.2119,7.7308-3.1495,8.2049-11.7796h.0009v-.0126c.0219-.4335.0322-.8759.0224-1.3403,0,0,8.9059,1.9992,11.0189-9.793-6.1903-.4125-8.9535-1.0715-10.2368-3.1052h-.0056c-.4429-.714-.7107-1.5923-.8876-2.6833-.7728-4.9173,0-9.1093,9.5779-7.8927,6.6374.8395,8.4812,5.6905,8.6403,10.5854.0219.9282,0,1.8569-.0793,2.7631-.3584,4.648-1.7425,8.3356-3.8117,11.4786-6.3364,9.6343-19.124,14.0481-28.6794,24.6876.336-4.4483-2.3352-11.6783-10.0147-11.6783,1.3305,6.1147.1895,10.696-3.7767,15.4579-1.9581,2.3352-3.5331,4.7399-4.8193,7.1321v.0093c-4.2658,7.9861-5.2173,15.9404-5.32,21.3607v.0093c-.0345,2.0295.0443,3.6895.1115,4.8729.3705,6.2389,4.9961,14.7331,11.2569,23.5947v.0126c3.3516,4.7269,7.1633,9.5774,11.0413,14.2511h.0107c4.2233,5.0801,8.5218,9.9521,12.3839,14.2291v.0089c7.4802,8.2731,13.3574,14.3747,13.9403,15.6707,2.1103,4.6732.0761,7.826-3.5009,9.8378-5.8455,3.2947-12.1599-3.6213-13.9151-6.4377-2.2909-3.6661-6.5711-10.5985-11.8907-19.0708-2.7631-4.4128-5.8011-9.2414-8.9978-14.2511-2.9755-4.6475-6.0709-9.4668-9.1882-14.238-6.7391-10.3161-13.5921-20.4638-19.46-28.4802v-.0093c-1.5302-2.0813-2.9937-4.0241-4.3815-5.8016l6.0485-6.1143s5.8007,3.9573,11.3549-.6146c-1.7108-3.6218-2.5153-6.3051-2.7155-8.8303-.2469-3.0954.3897-5.9565,1.3085-9.9708,0,0,7.3411,1.2073,10.6265-4.0899-5.0279-6.8847-5.7437-11.6121-6.2347-17.7931,0,0,4.5276-.6053,7.2077-3.7548.7602-.8839,1.3655-1.9675,1.6884-3.2984-4.6825-3.3871-7.2203-7.1316-8.7061-10.9433-.7033-1.8088-1.1723-3.6209-1.5307-5.4208,0,0,5.8903-2.7155,6.4381-8.1713-.5609-.1993-1.1088-.4247-1.6221-.6589-6.9291-3.073-10.4617-8.6053-12.8856-13.3224,0,0,3.6092-7.1638,1.3846-11.7231-3.3427-2.2269-7.5661-1.4448-11.6909,1.2166-4.0017-2.1131-7.119-2.8831-14.1274-3.4435-14.2511,2.6735-25.4828,10.3507-25.0357,18.0306.2567,4.5719,1.7864,7.4993,4.9392,9.2419,3.5201,1.9581,9.0739,2.4365,17.2004,2.1005,2.6712-.1106,4.2364,2.4491,5.2309,5.1203.8269,2.2367.9282,3.8775.1111,6.1241h-36.7271c-2.6483-.8139-4.1916-3.0161-4.1127-5.7885.1115-4.0805,2.5825-5.3984,9.4547-4.4483.1363-1.1625.1237-2.2013-.0541-3.108-.4018-2.1355-1.666-3.577-3.8332-4.3465-6.1152-2.2022-11.2.2469-14.0168,4.3465-1.7551,2.5601-2.639,5.7573-2.3478,8.897.203,2.1481.9375,3.8906,2.0468,5.3447v.0093c2.2335,2.9055,5.9915,4.6293,10.0912,5.9911,1.3305.4471,11.4249.5829,18.5752.672.5707,9.5681,2.2722,7.0182,6.1059,7.5661v.0126c.3234.0443.6589.1111,1.0169.2123-.8969,4.9616-10.8421,5.4969-13.4017,5.6112-8.7859.6683-13.1768,4.7367-15.9623,8.4149-5.2845-2.3697-14.1493-8.2824-21.3705-14.2511h-.0154c-4.4287-3.6745-8.2591-7.3575-10.2335-10.2368,2.3665-.3038,4.6228-1.7733,6.4209-3.9923h.0075c1.7299-2.1672,3.0287-5.0279,3.542-8.1928.3458-2.1327.3015-4.1921-.0789-6.0583-.1461-.7159-.336-1.3972-.5796-2.0435-.0443.7037-.2123,1.3972-.469,2.0435-.6496,1.6665-1.9357,3.0861-3.6339,3.9354-1.6763-2.2367-4.4833-3.6568-7.4111-3.5107-3.5327.1899-6.4475,2.5508-7.6006,5.7694.0439.8587-.6244,1.6763-1.5428,1.7206-.9254.0569-1.5083-.637-1.5526-1.4989-.2567-2.3352-1.5965-4.6032-3.6881-6.4157-2.0687-1.8214-4.8851-3.1841-8.0696-3.7669-2.9526-.5353-5.7694-.301-8.1265.5166,2.1574.1993,4.1249,1.4061,5.3639,3.2503.2025.3043.3929.6277.5479.9632-2.2559,1.6319-3.7324,4.4137-3.6307,7.3407.0761,2.3483,1.1279,4.4394,2.7599,5.9379v.0093c.8171.7509,1.799,1.3529,2.8733,1.7551.6146-.0569,1.3403.2473,1.3972.9063.0537.6589-.4149,1.1503-1.0295,1.2068-4.5939.1017-9.2325,4.3377-11.0418,10.3609v.0126c-.0443.1423-.0887.301-.1363.4559-.7826,2.8831-.805,5.7125-.1899,8.127.4499-2.4808,2.2241-4.5813,4.7082-5.5225,1.4289,2.4047,4.0773,4.1127,6.9953,4.2709,3.5331.1778,6.6855-1.8662,8.1713-4.9392,2.2017,1.3183,3.9667,4.5813,4.179,8.4812.2693,5.2215-2.1672,9.5905-5.453,9.7585,1.2521.9506,3.1967,1.3972,5.1394,1.2866,2.5153-.1237,4.6513-1.3216,5.6681-2.9531,4.6158,4.7843,8.9311,10.6204,12.698,16.6432,1.8979,3.0291,3.6535,6.1021,5.2313,9.1089-1.8335,3.2965-5.5519,7.8638-9.7053,12.2519h-.0089c-5.9565,6.2795-12.7871,12.1819-16.2498,13.4685-.2697-4.6956-5.1329-9.2988-11.4571-10.7879-2.9181-.6911-5.7475-.602-8.1391.0919,2.506.3551,4.6606,2.0655,5.6775,4.5145-2.3347,1.5087-3.9541,4.2145-4.0115,7.1414-.0565,3.5327,2.0916,6.6061,5.2313,7.9903.8493.0131,1.6221.7387,1.6095,1.6539-.0224.9287-.7481,1.4677-1.6095,1.4448-2.2465.0891-4.4926,1.1723-6.3938,2.9722-2.0785,1.9549-3.7543,4.7619-4.5813,8.0477-.5483,2.1574-.6715,4.2709-.4377,6.1903ZM392.7916,293.5032h-3.9695c0-3.6218,3.6563-7.924,8.0029-7.924,4.3372,0,7.7121,4.3022,7.7121,7.924h-4.0997c0-2.2246-1.6767-3.9573-3.7576-3.9573-2.0664,0-3.7548,1.7999-3.7548,4.0367l-.1335-.0793ZM398.6912,323.0222c2.3161,1.7775,2.8611,4.6606,2.8611,4.6606h-17.5807c.4816-1.3529.9945-3.2191,2.9843-4.6606.0476-.035.0093,0,.0443,0,2.2148,1.7775,2.9848,4.6606,2.9848,4.6606.4592-1.4639,1.0738-3.2284,2.7403-4.6606.0443-.0443.0985-.0887.1554-.133.0443.0443.0789.0887.1232.1237v.0093c2.1359,1.9801,2.9848,4.6606,2.9848,4.6606.4788-1.5083.7826-3.2191,2.6581-4.6606,0-.0373.0271,0,.0443,0Z" style="fill: #e6040f; fill-rule: evenodd; stroke: #e6040f; stroke-miterlimit: 10; stroke-width: .1505px;"/>
  </g>
</svg>