<?xml version="1.0" encoding="UTF-8"?>
<svg id="_图层_1" data-name="图层_1" xmlns="http://www.w3.org/2000/svg" version="1.1" viewBox="0 0 800 800">
  <!-- Created by @FCLOGO 2024-12-5 GMT+8 15:27:32 . https://fclogo.top/ -->
<!-- FOR PERSONAL USE ONLY NOT FOR COMMERCIAL USE -->
  <defs>
    <style>
      .st0 {
        fill: #aa182c;
      }

      .st1 {
        fill: #ccc;
      }
    </style>
  </defs>
  <path class="st1" d="M348.22,774.3c-.79,0-1.38-.22-1.77-.65-.39-.44-.53-1.03-.41-1.79l.25-1.65c.12-.75.45-1.35.98-1.78.53-.44,1.19-.65,1.98-.65s1.33.2,1.72.6c.39.4.55.94.47,1.62h-1.24c.03-.36-.06-.64-.26-.84-.2-.2-.5-.3-.89-.3-.42,0-.76.12-1.03.35-.27.23-.43.56-.5.99l-.26,1.66c-.07.44,0,.77.19,1,.19.23.5.35.92.35.39,0,.72-.1.98-.3.26-.2.44-.48.52-.85h1.24c-.14.69-.47,1.23-.99,1.63-.52.4-1.16.6-1.92.6ZM352.8,774.19l1-6.29h1.19l-.19,1.19c.34-.87.97-1.3,1.91-1.3.67,0,1.17.21,1.49.62.32.42.43.99.31,1.71l-.07.42h-1.27l.06-.32c.07-.45.01-.8-.17-1.04-.18-.24-.48-.36-.88-.36s-.74.12-1.01.37c-.27.24-.43.59-.5,1.03l-.63,3.97h-1.24ZM361.91,774.3c-.77,0-1.35-.22-1.73-.67s-.52-1.04-.4-1.77l.25-1.65c.08-.49.26-.92.52-1.28s.6-.65,1.01-.85c.41-.2.87-.3,1.38-.3.77,0,1.35.22,1.73.67.39.45.52,1.04.39,1.77l-.17,1.12h-3.85l-.09.53c-.15.95.22,1.43,1.11,1.43.72,0,1.17-.25,1.37-.74h1.22c-.17.53-.5.96-1.01,1.28-.5.32-1.09.47-1.76.47ZM361.23,770.22l-.05.29h2.65s.05-.3.05-.3c.07-.47.01-.82-.17-1.07-.18-.25-.49-.37-.92-.37s-.8.13-1.06.38c-.26.25-.43.61-.51,1.08ZM368.33,774.3c-.63,0-1.1-.21-1.41-.64s-.4-1-.27-1.73l.27-1.77c.11-.73.39-1.31.84-1.74.44-.43.98-.64,1.61-.64.47,0,.83.12,1.09.35.26.24.39.56.38.96h.02l.17-1.2h1.24l-1,6.29h-1.22l.19-1.2h-.02c-.12.41-.35.73-.69.97s-.74.35-1.21.35ZM368.93,773.23c.39,0,.72-.12.98-.36.26-.24.43-.57.5-1.01l.25-1.65c.07-.43,0-.76-.18-1-.19-.24-.47-.36-.86-.36s-.72.12-.98.35c-.26.24-.42.57-.49,1.01l-.25,1.65c-.07.44-.01.78.17,1.01.18.23.47.35.88.35ZM376.35,774.19c-.57,0-.99-.16-1.26-.47-.27-.31-.36-.75-.27-1.32l.54-3.39h-1.74l.17-1.12h1.74l.27-1.72h1.24l-.27,1.72h2.47l-.18,1.12h-2.46l-.54,3.39c-.08.44.1.66.53.66h1.72l-.17,1.12h-1.77ZM382.5,774.3c-.77,0-1.35-.22-1.73-.67s-.52-1.04-.4-1.77l.25-1.65c.08-.49.26-.92.52-1.28s.6-.65,1.01-.85c.41-.2.87-.3,1.38-.3.77,0,1.35.22,1.73.67.39.45.52,1.04.39,1.77l-.17,1.12h-3.85l-.09.53c-.15.95.22,1.43,1.11,1.43.72,0,1.17-.25,1.37-.74h1.22c-.17.53-.5.96-1.01,1.28-.5.32-1.09.47-1.76.47ZM381.83,770.22l-.05.29h2.65s.05-.3.05-.3c.07-.47.01-.82-.17-1.07-.18-.25-.49-.37-.92-.37s-.8.13-1.06.38c-.26.25-.43.61-.51,1.08ZM388.92,774.3c-.63,0-1.1-.21-1.4-.64-.3-.42-.39-1-.28-1.73l.27-1.77c.11-.73.39-1.31.84-1.74.44-.43.98-.64,1.61-.64.47,0,.83.12,1.09.35.26.24.39.56.38.96h.02l.21-1.47.3-1.8h1.24l-1.33,8.35h-1.22l.19-1.2h-.02c-.12.41-.35.73-.69.97s-.74.35-1.21.35ZM389.53,773.23c.39,0,.72-.12.98-.36.26-.24.43-.57.5-1.01l.25-1.65c.08-.43.02-.76-.17-1-.19-.24-.48-.36-.87-.36s-.72.12-.98.35c-.26.24-.42.57-.49,1.01l-.25,1.65c-.08.44-.02.78.16,1.01s.48.35.88.35ZM401.02,774.3c-.47,0-.84-.12-1.1-.35-.26-.23-.39-.56-.38-.97h-.01l-.19,1.2h-1.22l1.33-8.35h1.24l-.29,1.8-.27,1.47h.05c.12-.41.35-.73.69-.97.34-.23.74-.35,1.21-.35.63,0,1.1.21,1.4.64.3.43.39,1.01.28,1.74l-.27,1.77c-.11.73-.39,1.31-.84,1.73-.45.42-.98.64-1.61.64ZM400.77,773.23c.4,0,.72-.12.98-.35.26-.23.42-.57.5-1.01l.25-1.65c.07-.43.01-.77-.17-1.01-.18-.24-.47-.35-.87-.35s-.72.12-.98.36-.43.57-.5,1l-.25,1.65c-.07.44-.01.77.17,1.01.18.24.47.36.87.36ZM405.47,776.25l.17-1.06h1.93c.64,0,1.01-.3,1.1-.9l.1-.67.21-1.19h-.03c-.12.42-.35.74-.68.97-.33.23-.73.34-1.2.34-.63,0-1.09-.2-1.4-.6s-.41-.94-.3-1.63l.58-3.6h1.24l-.56,3.48c-.06.41,0,.73.18.96s.47.34.85.34.72-.12.98-.37c.27-.24.43-.58.49-1.02l.54-3.4h1.24l-1.01,6.41c-.1.6-.37,1.08-.81,1.42-.44.35-1,.52-1.67.52h-1.95ZM417.79,770.09h3.22l.54-1.85h-5.47l-1.71,6.44h2.15l.59-2.1h3.03l.44-1.71h-3.03l.24-.78ZM424.23,772.92c-.59,0-1.02-.39-1.02-1.12,0-.88.63-1.76,1.61-1.76.49,0,.88.24,1.02.78l1.95-.83c-.29-1.17-1.27-1.9-2.64-1.9-2.78,0-4.15,2.15-4.15,3.9s1.27,2.83,3.07,2.83c1.37,0,2.34-.59,2.98-1.42l-1.51-1.17c-.39.44-.83.68-1.32.68ZM430.91,768.23h-2.15l-1.76,6.44h5.12l.49-1.85h-2.93l1.22-4.59ZM439.75,771.01c0-1.66-1.32-2.93-3.22-2.93-2.2,0-3.81,1.81-3.81,3.81,0,1.66,1.32,2.93,3.22,2.93,2.2,0,3.81-1.81,3.81-3.81ZM434.92,771.7c0-.83.59-1.71,1.51-1.71.78,0,1.17.54,1.17,1.22,0,.83-.59,1.71-1.51,1.71-.78,0-1.17-.54-1.17-1.22ZM443.21,772.23h1.07l-.2.68c-.15.05-.34.1-.59.1-.68,0-1.27-.39-1.27-1.22,0-1.02.73-1.9,1.95-1.9.59,0,1.12.24,1.51.59l1.37-1.37c-.44-.54-1.51-1.07-2.73-1.07-2.59,0-4.29,1.76-4.29,3.86s1.61,2.88,3.22,2.88c.93,0,1.85-.29,2.49-.68l.93-3.32h-3.12l-.34,1.46ZM450.78,768.08c-2.2,0-3.81,1.81-3.81,3.81,0,1.66,1.32,2.93,3.22,2.93,2.2,0,3.81-1.81,3.81-3.81,0-1.66-1.32-2.93-3.22-2.93ZM450.34,772.92c-.78,0-1.17-.54-1.17-1.22,0-.83.59-1.71,1.51-1.71.78,0,1.17.54,1.17,1.22,0,.83-.59,1.71-1.51,1.71ZM437.94,767.5c-.05.29.1.49.44.49s.54-.2.63-.49c.05-.24-.1-.49-.44-.49s-.59.24-.63.49ZM432.13,765.5c-.44,0-.73.24-.78.59s.1.59.54.59.73-.24.78-.59c.1-.34-.1-.59-.54-.59ZM433.01,767.3c-.1.54.15.88.83.88.63,0,1.07-.39,1.17-.88s-.15-.88-.83-.88c-.68,0-1.07.39-1.17.88ZM439.6,777.55l-2.44-1.81h-1.51l4.25,3.17,1.61-3.17h-.98l-.93,1.81ZM425.84,767.16l-2-1.46,23.13-2.78-2.15,4.25h1.02l2.68-5.32-26.99,3.22,2.78,2.1h1.51ZM338.72,785.79l.61-3.83h2.32l-.08.52h-1.76l-.18,1.14h1.63l-.08.52h-1.62l-.26,1.64h-.57ZM342.97,785.84c-.36,0-.62-.1-.8-.3-.17-.2-.23-.47-.18-.82l.27-1.7c.06-.34.2-.61.44-.82.24-.2.54-.3.89-.3s.62.1.8.3c.17.2.24.47.18.81l-.27,1.71c-.06.34-.2.62-.44.82-.24.2-.54.3-.9.3ZM343.05,785.33c.19,0,.35-.05.47-.16.12-.11.19-.26.23-.46l.27-1.7c.03-.2,0-.35-.08-.46-.08-.11-.22-.16-.41-.16s-.35.05-.46.16c-.12.1-.19.26-.22.46l-.27,1.7c-.03.2,0,.35.08.46s.22.16.41.16ZM345,785.79l.61-3.83h1.2c.24,0,.44.05.6.14.16.09.28.22.36.39s.09.37.05.59c-.04.26-.14.48-.3.67-.16.19-.37.32-.6.39l.54,1.64h-.62l-.48-1.57h-.54l-.25,1.57h-.57ZM345.89,783.71h.64c.19,0,.35-.06.48-.17.13-.11.21-.26.24-.45.03-.19,0-.35-.09-.46-.09-.11-.24-.17-.43-.17h-.64l-.2,1.25ZM349.54,785.79l.61-3.83h1.25c.37,0,.65.1.84.31.19.21.26.49.2.84-.04.23-.12.44-.25.61s-.29.31-.49.4c-.2.09-.42.14-.66.14h-.69l-.24,1.52h-.57ZM350.43,783.75h.69c.19,0,.36-.06.49-.18.14-.12.22-.27.25-.47s0-.35-.1-.47-.25-.18-.44-.18h-.69l-.21,1.29ZM352.75,785.79l.61-3.83h2.25l-.08.5h-1.7l-.17,1.09h1.51l-.08.5h-1.51l-.19,1.24h1.69l-.08.5h-2.25ZM355.84,785.79l.61-3.83h1.2c.24,0,.44.05.6.14.16.09.28.22.36.39s.09.37.05.59c-.04.26-.14.48-.3.67-.16.19-.37.32-.6.39l.54,1.64h-.62l-.48-1.57h-.54l-.25,1.57h-.57ZM356.74,783.71h.64c.19,0,.35-.06.48-.17.13-.11.21-.26.24-.45.03-.19,0-.35-.09-.46-.09-.11-.24-.17-.43-.17h-.64l-.2,1.25ZM360.13,785.84c-.39,0-.67-.1-.87-.29-.19-.19-.26-.45-.22-.78h.57c-.03.17.01.31.12.41.11.1.27.15.48.15.2,0,.37-.05.5-.15.13-.1.21-.23.24-.4.02-.15,0-.28-.06-.39-.06-.11-.16-.18-.29-.22l-.46-.14c-.27-.08-.46-.22-.59-.41-.13-.19-.17-.42-.13-.68.04-.21.11-.39.23-.55s.27-.28.46-.37.4-.13.64-.13c.35,0,.62.1.8.29.18.19.25.44.2.76h-.57c.03-.17,0-.3-.09-.4-.09-.1-.23-.14-.42-.14s-.34.04-.46.13c-.12.09-.19.21-.21.38-.02.15,0,.28.05.39s.16.18.29.22l.47.15c.26.08.46.22.58.41.12.19.17.42.12.69-.04.22-.12.41-.24.57-.13.16-.29.29-.49.38-.2.09-.42.13-.66.13ZM363.27,785.84c-.36,0-.62-.1-.8-.3-.17-.2-.23-.47-.18-.82l.27-1.7c.06-.34.2-.61.44-.82.24-.2.54-.3.89-.3s.62.1.8.3c.17.2.24.47.18.81l-.27,1.71c-.06.34-.2.62-.44.82-.24.2-.54.3-.9.3ZM363.34,785.33c.19,0,.35-.05.47-.16.12-.11.19-.26.23-.46l.27-1.7c.03-.2,0-.35-.08-.46-.08-.11-.22-.16-.41-.16s-.35.05-.46.16c-.12.1-.19.26-.22.46l-.27,1.7c-.03.2,0,.35.08.46s.22.16.41.16ZM365.28,785.79l.61-3.83h.71l.62,3.19c0-.1.02-.22.03-.36.01-.14.03-.29.04-.44.02-.15.04-.29.06-.41l.31-1.98h.52l-.61,3.83h-.71l-.61-3.19c0,.09-.02.21-.03.34s-.03.28-.04.42c-.02.15-.04.28-.06.41l-.31,2.01h-.53ZM368.23,785.79l1.59-3.83h.75l.37,3.83h-.56l-.07-.97h-1.09l-.39.97h-.59ZM369.39,784.34h.87l-.09-1.1c-.02-.2-.03-.37-.04-.51,0-.14-.01-.24-.01-.3-.02.06-.05.16-.1.3s-.11.31-.19.5l-.44,1.11ZM371.72,785.79l.61-3.83h.57l-.52,3.31h1.67l-.08.52h-2.25ZM376.68,785.84c-.37,0-.63-.1-.8-.3-.17-.2-.22-.47-.17-.82l.44-2.76h.57l-.44,2.76c-.03.2,0,.35.07.46.08.11.21.17.41.17s.35-.06.46-.17c.12-.11.19-.27.22-.46l.44-2.76h.57l-.44,2.76c-.06.35-.2.62-.43.82-.23.2-.53.3-.9.3ZM379.84,785.84c-.39,0-.67-.1-.87-.29-.19-.19-.26-.45-.22-.78h.57c-.03.17.01.31.12.41.11.1.27.15.48.15.2,0,.37-.05.5-.15.13-.1.21-.23.24-.4.02-.15,0-.28-.06-.39-.06-.11-.16-.18-.29-.22l-.46-.14c-.27-.08-.46-.22-.59-.41-.13-.19-.17-.42-.13-.68.04-.21.11-.39.23-.55s.27-.28.46-.37.4-.13.64-.13c.35,0,.62.1.8.29.18.19.25.44.2.76h-.57c.03-.17,0-.3-.09-.4-.09-.1-.23-.14-.42-.14s-.34.04-.46.13c-.12.09-.19.21-.21.38-.02.15,0,.28.05.39s.16.18.29.22l.47.15c.26.08.46.22.58.41.12.19.17.42.12.69-.04.22-.12.41-.24.57-.13.16-.29.29-.49.38-.2.09-.42.13-.66.13ZM381.91,785.79l.61-3.83h2.25l-.08.5h-1.7l-.17,1.09h1.51l-.08.5h-1.51l-.19,1.24h1.69l-.08.5h-2.25ZM386.94,785.84c-.36,0-.62-.1-.8-.3-.17-.2-.23-.47-.18-.82l.27-1.7c.06-.34.2-.61.44-.82.24-.2.54-.3.89-.3s.62.1.8.3c.17.2.24.47.18.81l-.27,1.71c-.06.34-.2.62-.44.82-.24.2-.54.3-.9.3ZM387.02,785.33c.19,0,.35-.05.47-.16.12-.11.19-.26.23-.46l.27-1.7c.03-.2,0-.35-.08-.46-.08-.11-.22-.16-.41-.16s-.35.05-.46.16c-.12.1-.19.26-.22.46l-.27,1.7c-.03.2,0,.35.08.46s.22.16.41.16ZM388.95,785.79l.61-3.83h.71l.62,3.19c0-.1.02-.22.03-.36.01-.14.03-.29.04-.44.02-.15.04-.29.06-.41l.31-1.98h.52l-.61,3.83h-.71l-.61-3.19c0,.09-.02.21-.03.34s-.03.28-.04.42c-.02.15-.04.28-.06.41l-.31,2.01h-.53ZM392.25,785.79l.61-3.83h.57l-.52,3.31h1.67l-.08.52h-2.25ZM396.12,785.79l.22-1.41-.75-2.42h.58l.45,1.45c.03.09.05.18.07.27.02.08.03.15.03.19.02-.04.05-.1.09-.19.04-.08.09-.17.14-.27l.9-1.45h.6l-1.53,2.42-.22,1.41h-.57ZM399.22,785.79l.61-3.83h.71l.62,3.19c0-.1.02-.22.03-.36.01-.14.03-.29.04-.44.02-.15.04-.29.06-.41l.31-1.98h.52l-.61,3.83h-.71l-.61-3.19c0,.09-.02.21-.03.34s-.03.28-.04.42c-.02.15-.04.28-.06.41l-.31,2.01h-.53ZM403.51,785.84c-.36,0-.62-.1-.8-.3-.18-.2-.23-.47-.18-.82l.27-1.7c.06-.34.2-.61.44-.82.24-.2.54-.3.89-.3s.62.1.8.3c.17.2.24.47.18.81l-.27,1.71c-.06.34-.2.62-.44.82-.24.2-.54.3-.89.3ZM403.58,785.33c.19,0,.35-.05.47-.16.12-.11.19-.26.23-.46l.27-1.7c.03-.2,0-.35-.08-.46-.08-.11-.22-.16-.41-.16s-.35.05-.46.16c-.12.1-.19.26-.22.46l-.27,1.7c-.03.2,0,.35.08.46.08.11.22.16.41.16ZM406.38,785.79l.52-3.31h-1.02l.08-.52h2.62l-.08.52h-1.03l-.52,3.31h-.57ZM409.52,785.79l.61-3.83h2.32l-.08.52h-1.76l-.18,1.14h1.63l-.08.52h-1.62l-.26,1.64h-.57ZM413.77,785.84c-.36,0-.62-.1-.8-.3-.18-.2-.23-.47-.18-.82l.27-1.7c.06-.34.2-.61.44-.82.24-.2.54-.3.89-.3s.62.1.8.3c.17.2.24.47.18.81l-.27,1.71c-.06.34-.2.62-.44.82-.24.2-.54.3-.89.3ZM413.85,785.33c.19,0,.35-.05.47-.16.12-.11.19-.26.23-.46l.27-1.7c.03-.2,0-.35-.08-.46-.08-.11-.22-.16-.41-.16s-.35.05-.46.16c-.12.1-.19.26-.22.46l-.27,1.7c-.03.2,0,.35.08.46.08.11.22.16.41.16ZM415.8,785.79l.61-3.83h1.2c.24,0,.44.05.6.14.16.09.28.22.36.39s.09.37.05.59c-.04.26-.14.48-.3.67-.16.19-.37.32-.6.39l.54,1.64h-.62l-.48-1.57h-.54l-.25,1.57h-.57ZM416.69,783.71h.64c.19,0,.35-.06.48-.17.13-.11.21-.26.24-.45.03-.19,0-.35-.09-.46-.09-.11-.24-.17-.43-.17h-.64l-.2,1.25ZM420.91,785.84c-.36,0-.63-.1-.81-.3-.18-.2-.24-.47-.19-.82l.27-1.7c.06-.35.21-.62.45-.82s.55-.3.91-.3.63.1.81.3c.18.2.24.47.19.82h-.57c.03-.2,0-.35-.09-.46-.09-.11-.23-.16-.42-.16s-.35.05-.47.16c-.12.1-.2.26-.23.45l-.27,1.71c-.03.2,0,.35.09.46.09.11.23.16.42.16s.35-.05.47-.16.2-.26.23-.46h.57c-.03.23-.11.43-.24.59s-.28.3-.47.39c-.19.09-.4.14-.64.14ZM424.03,785.84c-.36,0-.62-.1-.8-.3-.18-.2-.23-.47-.18-.82l.27-1.7c.06-.34.2-.61.44-.82.24-.2.54-.3.89-.3s.62.1.8.3c.17.2.24.47.18.81l-.27,1.71c-.06.34-.2.62-.44.82-.24.2-.54.3-.89.3ZM424.11,785.33c.19,0,.35-.05.47-.16.12-.11.19-.26.23-.46l.27-1.7c.03-.2,0-.35-.08-.46-.08-.11-.22-.16-.41-.16s-.35.05-.46.16c-.12.1-.19.26-.22.46l-.27,1.7c-.03.2,0,.35.08.46.08.11.22.16.41.16ZM425.97,785.79l.61-3.83h.69l.18,1.23c.02.12.04.23.05.33.01.1.02.18.03.24.02-.06.05-.14.09-.24.04-.11.09-.22.15-.34l.57-1.22h.71l-.61,3.83h-.54l.2-1.29c.02-.17.06-.35.1-.55.04-.2.09-.4.14-.61s.1-.4.14-.59c.05-.19.09-.35.13-.49l-.86,1.86h-.55l-.28-1.86c0,.14-.01.29-.02.47s-.02.37-.04.57c-.02.2-.04.41-.06.61-.02.2-.05.4-.08.57l-.2,1.29h-.54ZM429.11,785.79l.61-3.83h.69l.18,1.23c.02.12.04.23.05.33.01.1.02.18.03.24.02-.06.05-.14.09-.24.04-.11.09-.22.15-.34l.57-1.22h.71l-.61,3.83h-.54l.2-1.29c.02-.17.06-.35.1-.55.04-.2.09-.4.14-.61s.1-.4.14-.59c.05-.19.09-.35.13-.49l-.86,1.86h-.55l-.28-1.86c0,.14-.01.29-.02.47s-.02.37-.04.57c-.02.2-.04.41-.06.61-.02.2-.05.4-.08.57l-.2,1.29h-.54ZM432.41,785.79l.61-3.83h2.25l-.08.5h-1.7l-.17,1.09h1.51l-.08.5h-1.51l-.19,1.24h1.69l-.08.5h-2.25ZM435.51,785.79l.61-3.83h1.2c.24,0,.44.05.6.14.16.09.28.22.36.39s.09.37.05.59c-.04.26-.14.48-.3.67-.16.19-.37.32-.6.39l.54,1.64h-.62l-.48-1.57h-.54l-.25,1.57h-.57ZM436.4,783.71h.64c.19,0,.35-.06.48-.17.13-.11.21-.26.24-.45.03-.19,0-.35-.09-.46-.09-.11-.24-.17-.43-.17h-.64l-.2,1.25ZM439.8,785.84c-.36,0-.63-.1-.81-.3-.18-.2-.24-.47-.19-.82l.27-1.7c.06-.35.21-.62.45-.82s.55-.3.91-.3.63.1.81.3c.18.2.24.47.19.82h-.57c.03-.2,0-.35-.09-.46-.09-.11-.23-.16-.42-.16s-.35.05-.47.16c-.12.1-.2.26-.23.45l-.27,1.71c-.03.2,0,.35.09.46.09.11.23.16.42.16s.35-.05.47-.16.2-.26.23-.46h.57c-.03.23-.11.43-.24.59s-.28.3-.47.39c-.19.09-.4.14-.64.14ZM441.88,785.79l.08-.5h.78l.45-2.82h-.78l.08-.5h2.13l-.08.5h-.78l-.45,2.82h.78l-.08.5h-2.13ZM444.74,785.79l1.59-3.83h.75l.37,3.83h-.56l-.07-.97h-1.09l-.39.97h-.59ZM445.9,784.34h.87l-.09-1.1c-.02-.2-.03-.37-.04-.51,0-.14-.01-.24-.01-.3-.02.06-.05.16-.1.3s-.11.31-.19.5l-.44,1.11ZM448.24,785.79l.61-3.83h.57l-.52,3.31h1.67l-.08.52h-2.25ZM453.19,785.84c-.37,0-.63-.1-.8-.3-.17-.2-.22-.47-.17-.82l.44-2.76h.57l-.44,2.76c-.03.2,0,.35.07.46.08.11.21.17.41.17s.35-.06.46-.17c.12-.11.19-.27.22-.46l.44-2.76h.57l-.44,2.76c-.06.35-.2.62-.43.82-.23.2-.53.3-.9.3ZM456.36,785.84c-.39,0-.67-.1-.87-.29-.19-.19-.26-.45-.22-.78h.57c-.03.17.01.31.12.41.11.1.27.15.48.15.2,0,.37-.05.5-.15s.21-.23.24-.4c.02-.15,0-.28-.06-.39s-.16-.18-.29-.22l-.46-.14c-.27-.08-.46-.22-.59-.41-.13-.19-.17-.42-.13-.68.04-.21.11-.39.23-.55s.27-.28.46-.37c.19-.09.4-.13.64-.13.35,0,.62.1.8.29.18.19.25.44.2.76h-.57c.03-.17,0-.3-.09-.4-.09-.1-.23-.14-.42-.14s-.34.04-.46.13c-.12.09-.19.21-.21.38-.02.15,0,.28.05.39s.16.18.29.22l.47.15c.26.08.46.22.58.41.12.19.17.42.12.69-.04.22-.12.41-.24.57-.13.16-.29.29-.49.38-.2.09-.42.13-.66.13ZM458.42,785.79l.61-3.83h2.25l-.08.5h-1.7l-.17,1.09h1.51l-.08.5h-1.51l-.19,1.24h1.69l-.08.5h-2.25Z"/>
  <path class="st0" d="M702.31,447.55v-21.86s-13.4-2.98-35.65-7.06l9.05-33.16s-22.43-7.32-64.75-15.01v-162.87s-41.69-7.4-101.84-12.53l10.97-34.94-38.46-27.97-8.23-25.1-13.43,9.67,5.12-15.75h-26.57l-38.53-28-38.54,28h-26.56l5.06,15.75-13.37-9.67-8.18,25.1-38.5,27.97,10.99,34.94c-60.21,5.13-101.82,12.53-101.82,12.53v162.83c-42.3,7.69-64.82,15.01-64.82,15.01l9.16,33.16c-22.33,4.12-35.72,7.06-35.72,7.06v21.86l-47.68,50.83,47.68,33.77v27.09s37.64-7.21,91.69-14.61c9.17,126.94,210.62,182.43,210.62,182.43,0,0,201.44-55.49,210.61-182.39,54.07,7.4,91.72,14.61,91.72,14.61v-27.09l47.68-33.77-47.69-50.83ZM288.16,357.44c-17.01,1.42-32.78,3.06-47.35,5.03l23.19-30.08c8.11-.73,16.1-1.47,24.14-2.26l.02,27.3ZM252.97,323.69l-19.5,27.63v-76.11c36.52-4.76,98.61-11.2,166.52-11.2s130.03,6.46,166.5,11.21v76.11l-19.43-27.63c-29.76-3.45-69.65-7.06-113.63-8.38v37.83c-10.83-.23-22-.39-33.45-.39s-22.67.16-33.48.39v-37.85c-44.01,1.32-83.89,4.93-113.52,8.38M511.79,330.13c8,.79,16.06,1.53,24.13,2.26l23.17,30.08c-14.53-1.97-30.31-3.61-47.3-5.03v-27.3ZM413.77,252.51l29-21.19c87.99,3.3,157.71,14.96,157.71,14.96v122.27c-6.77-1.17-14.08-2.43-21.72-3.47v-99.91c-30.02-4.12-93.75-11.83-164.99-12.65M199.46,216.31s43.43-7.36,105.14-12.04l-12.48-40.04,35.04-25.47,4.93-14.83,27.69,19.98-10.6-32.55h15.59l35.22-25.49,35.2,25.52h15.58l-10.53,32.52,27.67-19.99,4.87,14.83,35.12,25.48-12.53,40.01c61.71,4.68,105.14,12.09,105.14,12.09v20.13s-71.65-12.19-161.41-15.32l-39.1,28.49-39.15-28.49c-89.7,3.13-161.36,15.32-161.36,15.32l-.02-20.15ZM199.46,246.33s69.66-11.72,157.72-14.99l28.96,21.19c-71.23.82-135.03,8.54-164.86,12.65v99.89c-7.73,1.04-15.01,2.3-21.8,3.47l-.02-122.21ZM399.99,363.13c162.03,0,263.08,29.46,263.08,29.46l-12.9,46.8,12.9,57.4s-101.06-29.44-263.08-29.44-263.01,29.45-263.01,29.45l12.86-57.4-12.86-46.8s100.96-29.47,263.01-29.47M610.96,496.09c21.78,4.18,38.47,7.95,49.58,10.96l-49.58,19.69v-30.65ZM464.59,529.81h27.85v6.95h-27.9c-6.48,0-11.83-4.19-11.83-9.41v-11.12c0-5.3,5.35-9.47,11.83-9.47h27.9v8.92l-3.03-1.94h-24.82c-1.85,0-3.31,1.02-3.31,2.5v11.15c0,1.3,1.47,2.46,3.31,2.46M502.33,604.03v27.37c-11.75,8.3-24.05,15.79-36.82,22.41l-22.08-18.29c20.6-8.61,40.32-19.17,58.9-31.54M455.86,658.73c-18.14,8.93-36.79,16.76-55.87,23.44-19.09-6.6-37.73-14.42-55.82-23.4l22.34-18.54v-162.07c10.9-.24,22-.33,33.48-.33s22.62.09,33.45.33v162.03l22.42,18.54ZM233.48,509.5v-20.54c16.64-2.41,34.78-4.54,54.69-6.27v97.26s-49.89-35.05-54.69-70.47M288.17,597.5v26.95c-28.46-21.81-51.55-49.28-54.33-82.04,7.95,12.49,24.27,33.27,54.33,55.08M340.82,518.41v6.76h-22.96v9.15l2.83,2.47h-13.94l2.74-2.47v-25.16l-2.74-2.4h41.21v8.92l-2.97-1.94h-27.05v4.68h22.88ZM297.64,603.98c18.6,12.35,38.33,22.89,58.93,31.48l-22.08,18.29c-12.79-6.61-25.1-14.09-36.86-22.39v-27.37ZM511.79,597.49c30.08-21.81,46.39-42.6,54.39-55.08-2.86,32.75-25.86,60.22-54.39,82.04v-26.95ZM511.79,579.94v-97.25c19.96,1.77,38.1,3.86,54.69,6.27v20.54c-4.76,35.42-54.69,70.47-54.69,70.47M189.03,526.74l-49.64-19.69c11.18-2.98,27.85-6.78,49.64-10.96v30.65ZM108.08,546.71v-19.82l-42.43-30.09,42.43-45.04v-17.57s10.38-2.3,27.97-5.54l3.04,11.03-16.14,72.02,58.81,23.4c-44.15,6.18-73.68,11.61-73.68,11.61M600.5,535.64c0,123.1-200.51,180.6-200.51,180.6,0,0-200.51-57.5-200.51-180.61v-41.32c6.82-1.28,14.08-2.56,21.8-3.63v44.95c0,94.34,147.04,147.47,178.7,157.73,31.6-10.23,178.8-63.39,178.8-157.73v-44.95c7.65,1.07,14.95,2.35,21.72,3.63v41.33ZM691.93,526.9v19.82s-29.56-5.43-73.64-11.61l58.77-23.39-16.17-72.03,3.03-11.03c17.55,3.23,28.01,5.54,28.01,5.54v17.57l42.34,45.04-42.34,30.1ZM339.9,154.05l-24.59,17.69,10,30.95,29.54-1.52,9.56-29.43-24.51-17.69ZM415.15,156.92l9.39-28.83-24.54-17.71-24.61,17.71,9.34,28.83h30.42ZM474.61,202.68l10.07-30.93-24.59-17.71-24.6,17.71,9.58,29.42,29.55,1.51ZM424.54,207.27l-9.39-28.82h-30.42l-9.35,28.82,24.62,17.8,24.54-17.8ZM382.33,439.09h29.14c7.26-.09,13.11-5.99,13.14-13.25v-26.56c-.03-7.26-5.88-13.16-13.14-13.25h-29.14c-7.31.02-13.25,5.93-13.3,13.25v26.59c.06,7.31,5.99,13.22,13.3,13.25M380,399.21c0-1.46,1.18-2.65,2.65-2.65.03,0,.07,0,.1,0h28.19c1.53-.06,2.81,1.12,2.88,2.65v26.73c-.05,1.55-1.33,2.78-2.88,2.76h-28.21c-1.52,0-2.75-1.24-2.75-2.76h0s.03-26.73.03-26.73ZM585.3,452.7l29.14,4.95c7.33,1.25,13.25-3.78,13.25-11.04v-26.31c0-7.28-5.95-14.21-13.25-15.4l-29.14-4.89c-7.26-1.31-13.25,3.53-13.25,10.91v26.16c.23,7.65,5.73,14.12,13.25,15.59M583.03,412.56c-.06-1.18.85-2.19,2.03-2.26.21-.01.42,0,.62.06l28.26,4.79c1.55.32,2.68,1.65,2.74,3.22v26.54c.08,1.25-.87,2.33-2.12,2.41-.21.01-.42,0-.62-.05l-28.26-4.89c-1.5-.36-2.58-1.67-2.65-3.21v-26.62ZM244,448.57l29.14-3.43c7.21-.82,13.16-7.4,13.16-14.6v-26.36c0-7.2-5.95-12.36-13.16-11.59l-29.14,3.33c-7.3.82-13.25,7.34-13.25,14.61v26.3c0,7.35,5.97,12.5,13.25,11.77M241.74,409.2c.01-1.55,1.16-2.86,2.69-3.07l28.26-3.22c1.29-.17,2.47.74,2.63,2.03.02.14.02.29.02.43v26.49c-.01,1.54-1.13,2.85-2.65,3.09l-28.26,3.28c-1.33.16-2.53-.79-2.68-2.12-.02-.16-.02-.32,0-.47v-26.42ZM188.29,415.18v37.66l-4.35,5.16,19.68-3.6-4.45-3.59v-37.71l18.07-3.02,4.28,3.57v-14.8l-55.53,9.93v14.63l4.33-5.02,17.98-3.21ZM529.6,403.45v37.78l-4.34,3.83,19.55,2.14-4.27-4.79v-37.71l17.96,1.94,4.32,4.87v-14.76l-55.54-5.98v14.72l4.31-3.94,18.01,1.91ZM433.81,439.46l19.7.65-4.47-4.63v-33.59l30.69,39.51,18.31,1.22-4.27-4.38v-44.11l4.27-4.11-19.57-1.44,4.37,4.64v34.01l-30.6-39.83-18.44-.65,4.31,4.61v43.87l-4.31,4.21ZM295.56,443.27l19.6-1.51-4.36-4.04v-11.62l31-1.65c1.38-.14,2.62.87,2.75,2.26.01.11.01.23.01.34v8.7l-4.33,4.59,19.52-.65-4.27-4.19v-8.36c.05-4.01-2.5-7.6-6.3-8.88,3.72-1.71,6.16-5.38,6.3-9.48v-8.7c.05-6.8-5.42-12.35-12.22-12.4-.34,0-.68,0-1.02.04l-46.72,2.87,4.35,4.05v44.04l-4.33,4.6ZM310.8,399.68l31-1.72c1.4-.12,2.64.92,2.76,2.33,0,.11.01.21,0,.32v10.49c-.03,1.56-1.21,2.87-2.76,3.05l-31,1.68v-16.14Z"/>
</svg>