<!-- Created by @FCLOGO 2022-02-19 11:20:55 . https://fclogo.top/ -->
<!-- FOR PERSONAL USE ONLY NOT FOR COMMERCIAL USE -->
<svg version="1.1" xmlns="http://www.w3.org/2000/svg" xmlns:xlink="http://www.w3.org/1999/xlink" x="0px" y="0px"
	 viewBox="0 0 800 800" enable-background="new 0 0 800 800" xml:space="preserve">
<path fill="#027CC5" d="M166.8,675.8c-1-2.2,19.2-0.4,26.9,0.1c20.3,1.1,50.5,18.5,50.5,18.5c2.2,5.4,0.7,10.9,0.7,10.9
	s-32.8-11.1-47.6-10.9C182.4,694.6,168.1,679.7,166.8,675.8z"/>
<path fill="#027CC5" d="M85.1,669.6c0,0,30.1-31.9,77.7-34.7c-18.2,45.6,0,66.8,33.5,71.3c33.5,4.5,45,11.2,45,11.2
	s-5.9,5.3-13.9,5.1c-19-0.9-66.1-14.9-124.5,15.4c0,0,7.3-26.6,43.3-52.7C135,666.8,85.1,669.6,85.1,669.6z"/>
<path fill="#027CC5" d="M633.6,675.8c1-2.2-19.2-0.4-26.9,0.1c-20.3,1.1-50.5,18.5-50.5,18.5c-2.2,5.4-0.7,10.9-0.7,10.9
	s32.8-11.1,47.6-10.9C618,694.6,632.3,679.7,633.6,675.8z"/>
<path fill="#027CC5" d="M715.3,669.6c0,0-30.1-31.9-77.7-34.7c18.2,45.6,0,66.8-33.5,71.3c-33.5,4.5-45,11.2-45,11.2
	s5.9,5.3,13.9,5.1c19-0.9,66.1-14.9,124.5,15.4c0,0-7.3-26.6-43.3-52.7C665.5,666.8,715.3,669.6,715.3,669.6z"/>
<path fill="#F3AE00" d="M482.4,75.1c-9.4-16.1-9.2,20.2-9.2,20.2c-5.5-1.1-5.1,11.9-5.1,11.9s-12.2,2.1-14.1-6.2
	c11.3-7.6-4.7-10.3-4.7-10.3c1.3-1.5,1.9-6.8,1.9-6.8s0.9,2.8,4.9,2.7c4.1-0.1,4.7-2.9,4.7-4.9c-0.1-2-2.9-8.2-9.4-3
	c0.5-1.4-0.4-7.8-0.4-7.8s3.5-0.4,4-3.6c0.8-4.7-3-5.6-4.6-5.9c-1.5-0.3-9.2,1.1-3.4,8.9c-3.2,4.6-3.9,7.6-3.9,7.6
	c-5.6-6.9-9.2-1.3-9.2-1.3s-3.1,8.2,7.9,6.1c0,0-0.2,1.3-0.7,6.4c-12.9-4.6-12.2,6.6-7.2,7.2c4.9,0.6-15.6,14.7-23.1,0.4
	c1.8-2,1.8-2,2.2-3.6c0.4-1.6-1.4-3.1-1.4-3.1c4.8,2.4,7.5-1.8,7.5-1.8s0.5-4.2-1.7-5.3c4.4,0,8.7-4.7,8.7-4.7s-1.5-3.6-8.2-4.9
	c1.4-1.8,1.3-4.4,1.3-4.4s-3.5-1.5-9.4,0.9c2.7-8.2,0.5-12.1,0.5-12.1s-2.4-0.6-5.9,2.3c-2.6-0.4-0.6-8.4-4.5-9.7v0c0,0,0,0,0,0
	c0,0,0,0,0,0v0c-3.9,1.3-2,9.3-4.5,9.7c-3.5-2.8-5.9-2.3-5.9-2.3s-2.2,3.9,0.5,12.1c-5.9-2.4-9.4-0.9-9.4-0.9s-0.1,2.5,1.3,4.4
	c-6.6,1.3-8.2,4.9-8.2,4.9s4.4,4.7,8.7,4.7c-2.2,1.1-1.7,5.3-1.7,5.3s2.7,4.2,7.5,1.8c0,0-1.9,1.5-1.4,3.1c0.4,1.6,0.4,1.6,2.2,3.6
	c-7.5,14.3-28,0.2-23.1-0.4c4.9-0.6,5.7-11.8-7.2-7.2c-0.5-5.1-0.7-6.4-0.7-6.4c10.9,2.1,7.9-6.1,7.9-6.1s-3.6-5.6-9.2,1.3
	c0,0-0.7-2.9-3.9-7.6c5.8-7.8-1.9-9.2-3.4-8.9c-1.5,0.3-5.3,1.1-4.6,5.9c0.5,3.2,4,3.6,4,3.6s-0.9,6.4-0.4,7.8c-6.5-5.1-9.3,1-9.4,3
	c-0.1,2,0.6,4.8,4.7,4.9c4.1,0.1,4.9-2.7,4.9-2.7s0.6,5.4,1.9,6.8c0,0-16,2.8-4.7,10.3c-1.8,8.3-14.1,6.2-14.1,6.2s0.4-13-5.1-11.9
	c0,0,0.2-36.3-9.2-20.2c0,0-8.7-11.1-19.4-4c16.2,7.2,33,44,33,44s18.9,0.7,24.5-20.1c20.4,26.7,42.3,4.5,42.5-2.8
	c0.4-5.5-7-4.8-7-4.8s1.7-2.3,1.5-14.2c5.1,1.1,7.1,0.9,7.2,0.9c0.1,0,2.1,0.2,7.2-0.9c-0.2,11.9,1.5,14.2,1.5,14.2s-7.4-0.7-7,4.8
	c0.2,7.3,22.1,29.5,42.5,2.8c5.6,20.8,24.5,20.1,24.5,20.1s16.8-36.9,33-44C491.2,63.9,482.4,75.1,482.4,75.1z"/>
<path fill="#F3AE00" d="M399.9,127c23.2,0,44.3,8.9,60.2,23.4c4.6-0.3,8-1.1,9.6-2.6l-3.3-25.5c0,0-13.9,0.6-24.5-15
	c-21.3,16.6-41.3-2.8-41.8-3.3v0c0,0,0,0,0,0c0,0,0,0,0,0v0c-0.5,0.5-20.5,19.9-41.8,3.3c-10.6,15.6-24.5,15-24.5,15l-3.3,25.5
	c1.5,1.4,4.8,2.2,9.1,2.6C355.6,135.9,376.7,127,399.9,127z"/>
<polygon fill="#027CC5" points="617.6,454 400.1,356.9 400.1,356.9 400.1,356.9 400,356.9 400,356.9 182.6,454 182.6,464.7 
	400.1,367.6 617.6,464.7 "/>
<path fill="#027CC5" d="M686.1,226.3c0.8-18.1-15.7-15.5-15.7-15.5s-2.5-6-11-6.2c-8.5-0.2-28.5,14-27.9,45.5
	c1,28.5,11.3,47.2,10.6,61c-0.7,13.8-13.5,16.6-21.7-2.6c2.1-35.1-9.9-43.8-9.9-43.8s-1.2-7.7,1.2-10.1c2.5-2.4,3.7,5.8,3.7,5.8
	s5-4.9,4.9-15.2c0-10.3-8.8-13-8.6-21c0.3-9.4,8.8-10,8.8-10s-1-5.6-3.1-7.4c2-5.9,11.1-11.5,11.1-11.5s-2.7-2.4-6.8-2.5
	c1.1-11.6,11.8-7.1,11.8-7.1l0.1-17.9c0,0-7.1-6.4-9.1-11.1c13.3-1.4,15.9-5.1,15.9-5.1s-7.7-1.7-8.2-6.8c5.3,0.1,9.9-4.9,9.9-4.9
	s-1-0.4-10.1-6.1c12.2-5.6,8.2-18.6,8.2-18.6s-2.2,5-8.4,4.9c2.4-3.2-1.7-10.6-1.7-10.6s-3.7,5.7-6.8,6.6
	c-16.9-12.9-10.7-22.5-18.6-21.9c-8.7,0-4.7,8.9-12.1,8.4l0-8c0,0-8.5,11.1-16.5,10.7c-16.7,0.2-15.8,17.8-15.8,17.8s-4.7,0-14.6,0
	c-24-1.2-15.7,19.9-12.3,19.7c-0.1-3.4,14-7.2,16.7,3c3,12-12.9,10.8-12.9,10.8s0,8.7-3.5,11.1c-3.5,2.4-18.3-15.6-47.6-20
	c0,0-5.5-17.2-18-12.9c8.9,6.6,6,10.4,6,10.4c-8.7-1.6-8.9,5.2-8.9,5.2s7.5-2.2,8.9-1.2c1.5,0.9,0.2,2.7,0.2,2.7l-5.7,2.8l2.5,2.5
	c0,0,7.9-2,9.3,0.9c1.4,2.9-2.5,3.6-2.5,3.6l-5.5,0.6l3,4.2l15.9,0.4c0,0-1.6,8,8.4,11.8c-4.6,6.6-0.4,15.2-0.4,15.2
	s4.6-14.4,9.9-7.6c4.1,9.9,12.9,12.5,12.9,12.5v3.8c0,0,5.1,1.3,5.3,2.7c0.2,1.4-7.2,4-7.2,4s13.4,1.7,8.4,2.1
	c-8.3,2.8-9.9,9.5-9.9,9.5h11v7.1c-15.7-2.8-23.1,10.2-23.7,6.7C493,224,490,232.6,490,232.6s9.6,0.6,6.1,7.2c-10,7-4.2,9.5-4.2,9.5
	s0.5-6.5,5.6-3.2c0.2,7.3,3.5,8.5,3.5,8.5s2.3-8.1,6.8-7.6c-0.5,11.8,5.3,12.9,5.3,12.9s-1.4-9.9,4.9-11c6.3-1.1,5.3,3.8,5.3,3.8
	s2.9,0.4,9.5,0.8c2.3,10,10.3,10.9,10.3,10.9s-3.2-16.7,9.1-9c2.1,1.6-1.1,17.8,14.6,18.6c-2.2,5.6-46.9-7.8-51.6,16.9
	c-2.2,12.1,5.8,20.4,6,31.3c0.1,10.9-4.7,6-5.8,11.8c-7.9,0.3-29.5,7.9-39.2,11.5l-76.2-34v0l0,0l0,0v0l-76.1,34
	c-9.7-3.5-31.4-11.2-39.2-11.5c-1.1-5.8-6-0.9-5.8-11.8c0.1-10.9,8.2-19.2,6-31.3c-4.7-24.7-49.3-11.3-51.6-16.9
	c15.7-0.8,12.4-17,14.6-18.6c12.3-7.7,9.1,9,9.1,9s8-0.9,10.2-10.9c6.6-0.4,9.5-0.8,9.5-0.8s-1-4.9,5.3-3.8c6.3,1.1,4.9,11,4.9,11
	s5.8-1.1,5.3-12.9c4.5-0.5,6.8,7.6,6.8,7.6s3.3-1.3,3.5-8.5c5.1-3.2,5.6,3.2,5.6,3.2s5.8-2.5-4.2-9.5c-3.6-6.6,6.1-7.2,6.1-7.2
	s-3-8.6-16.1,2.1c-0.6,3.5-8-9.5-23.7-6.7v-7.1h11c0,0-1.5-6.7-9.9-9.5c-5.1-0.4,8.4-2.1,8.4-2.1s-7.5-2.6-7.2-4
	c0.2-1.4,5.3-2.7,5.3-2.7v-3.8c0,0,8.9-2.7,12.9-12.5c5.3-6.8,9.9,7.6,9.9,7.6s4.2-8.6-0.4-15.2c10-3.8,8.4-11.8,8.4-11.8l15.9-0.4
	l3-4.2l-5.5-0.6c0,0-3.9-0.7-2.5-3.6c1.4-2.9,9.3-0.9,9.3-0.9l2.5-2.5l-5.7-2.8c0,0-1.3-1.7,0.2-2.7c1.5-0.9,8.9,1.2,8.9,1.2
	s-0.3-6.9-8.9-5.2c0,0-2.8-3.8,6-10.4c-12.5-4.2-18,12.9-18,12.9c-29.3,4.4-44.1,22.4-47.6,20c-3.5-2.4-3.5-11.1-3.5-11.1
	s-15.9,1.1-12.9-10.8c2.8-10.3,16.8-6.5,16.7-3c3.3,0.2,11.7-21-12.3-19.7c-9.9,0-14.6,0-14.6,0s0.9-17.6-15.8-17.8
	c-8,0.4-16.5-10.7-16.5-10.7l0,8c-7.4,0.5-3.3-8.4-12.1-8.4c-7.9-0.6-1.7,9-18.6,21.9c-3.1-0.9-6.8-6.6-6.8-6.6s-4.1,7.4-1.7,10.6
	c-6.2,0.1-8.4-4.9-8.4-4.9s-4.1,13,8.2,18.6c-9,5.6-10.1,6.1-10.1,6.1s4.6,5,9.9,4.9c-0.5,5.1-8.2,6.8-8.2,6.8s2.7,3.7,15.9,5.1
	c-2.1,4.8-9.1,11.1-9.1,11.1l0.1,17.9c0,0,10.7-4.5,11.8,7.1c-4.1,0-6.8,2.5-6.8,2.5s9.1,5.5,11.1,11.5c-2.1,1.8-3.1,7.4-3.1,7.4
	s8.5,0.6,8.8,10c0.2,7.9-8.6,10.7-8.6,21c0,10.3,4.9,15.2,4.9,15.2s1.2-8.2,3.7-5.8c2.5,2.4,1.2,10.1,1.2,10.1s-11.9,8.7-9.9,43.8
	c-8.2,19.2-21,16.4-21.7,2.6c-0.7-13.8,9.7-32.5,10.6-61c0.6-31.5-19.4-45.7-27.9-45.5c-8.5,0.2-11,6.2-11,6.2s-16.4-2.6-15.7,15.5
	c0.6,8.9,4.4,8.1,2.1,15.4c4.2-3.6,4.8-6.1,4.8-6.1c11.5,13.2,2.5,13.6,2,19.5c-0.2,9.1,13.4,11.6,13.4,11.6s-12.8-19.6,8.1-16.5
	c-0.1-2.2-2.7-3.4-2.7-3.4c-4.4-4.5,3.5-13.1-0.3-19.5c-12.1-14.5,0.7-13.6,0.7-13.6c19.1-0.1,17,31,17,38.5
	c-0.1,7.5-10.9,48.3-10.6,58.7c0.3,10.4,6.3,20.9,17.2,21c17.9,0,20.3-15.4,22.5-21.6c2.2-6.3,12.6,19.6-7.3,34.8
	c2.5,7.2,1.5,9.4,1.5,9.4s-3.4,0.8-11.6-1.2c-1.6,7.4,35.4,39.4,35.4,39.4c3.3-0.5,4.7,1.3,5.2,2.8l-28.9,12.9v10.6l217.5-97.1
	l217.5,97.1v-10.6l-29-12.9c0.6-1.5,1.9-3.2,5.2-2.8c0,0,37-32,35.4-39.4c-8.2,2-11.6,1.2-11.6,1.2s-0.9-2.2,1.5-9.4
	c-19.9-15.3-9.5-41.1-7.3-34.8c2.2,6.3,4.6,21.7,22.5,21.6c10.9-0.1,16.9-10.6,17.2-21c0.3-10.4-10.5-51.2-10.6-58.7
	c-0.1-7.5-2.1-38.5,17-38.5c0,0,12.8-0.9,0.7,13.6c-3.8,6.4,4.2,15-0.3,19.5c0,0-2.6,1.2-2.7,3.4c20.9-3.1,8.1,16.5,8.1,16.5
	s13.6-2.6,13.4-11.6c-0.4-5.9-9.5-6.3,2-19.5c0,0,0.6,2.5,4.8,6.1C681.7,234.4,685.4,235.3,686.1,226.3z M237.3,384.2
	c-18.4-11.4-26.2-36-26.2-36s16.2-8.6,20-21c3.8-12.3,8.8-18,14.1-18.2c1.7,0,5.5,2.5,12.2,9.9c-4.3,7.5-4.1,8.7-4.2,15.2
	c1.2,18,14.9,7.7,17.8,7.7c0.9,0,2.4-0.7,2.7,7.9c18.1-4.8,24.3,2.7,26.2,6.6L237.3,384.2z M562.9,384.2l-62.6-27.9
	c1.9-3.9,8-11.5,26.2-6.6c0.3-8.5,1.7-7.9,2.7-7.9c2.9,0,16.6,10.3,17.8-7.7c0-6.5,0.1-7.7-4.2-15.2c6.6-7.4,10.5-9.8,12.2-9.9
	c5.3,0.2,10.3,5.9,14.1,18.2c3.8,12.3,20,21,20,21S581.2,372.8,562.9,384.2z"/>
<polygon fill="#027CC5" points="617.6,431.7 400.1,334.6 400.1,334.6 400.1,334.6 400,334.6 400,334.6 182.6,431.7 182.6,442.3 
	400.1,345.2 617.6,442.3 "/>
<path fill="#F3AE00" d="M731.1,473.4c-20,15.6-28.2,16.6-31.1,16.1c2.1-7.6,3.6-15.8,4.5-24.6c3.9,1.1,27.1,6.1,23.1-26.4
	c-9.4,12.2-19.7,16.4-22.4,17.4c0.3-6.4,0.3-13.2-0.1-20.2c5.6-0.9,25.3-5.7,15.5-30.8c-4.1,9.5-11.7,15.7-16.4,18.9
	c-0.5-4.8-1.2-9.8-2-15c4.9-7.2,17.5-20.7,9.5-31.6c-4.3,6.4-9,14.1-11.8,18.8c-0.7-3.2-1.5-6.6-2.4-10c1.7-3.7,6-16.1-0.6-35.8
	c-2.1,2.6-3.6,11.9-4.4,17.8c-1.6-5.3-3.5-10.8-5.4-16.5c2.8-20.4-10.9-31.3-10.9-31.3s-0.9,2.7-0.9,11.2
	c-16.9-15.9-25-12.7-25-12.7s24.8,20.2,34.5,31c2.7,8.1,5,15.9,7.1,23.4c-0.5-0.4-7.8-6.4-15.7-11.3c2,13.3,14.4,21.8,19,24.5
	c1,4.4,2,8.7,2.8,12.9c-0.4,0.7-0.7,1.2-0.7,1.2s-12.3-10.3-22-21.1c5.9,27.5,23,32.8,25,33.4c0.6,4.4,1.1,8.6,1.4,12.8
	c-0.7,0.4-1.2,0.7-1.2,0.7s-11.3-15.1-18.7-21.2c-2.4,21.2,17.4,34,20.9,36.1c0.1,3.1,0,6.1-0.1,9.1l-0.1-0.2c0,0-12.4-10.6-23.7-23
	c3.6,21.4,17.6,32.7,23,36.4c-0.8,8.3-2.2,16.1-4,23.2c-2.6-6.5-10.3-24.3-18-35.3c-5.7,25.4,15.2,43.9,15.2,43.9v1.1
	c-2.4,6.9-5.2,13.2-8.3,19c-1.4-7.2-7-33.2-15.6-42.3c-5.5,29.1,9.7,46.7,11.7,48.9c-4.9,7.8-10.4,14.4-16.1,20.1
	c-1-4.1-2.9-15.7-2.9-43.3c-19.4,7.8-6.9,41.4-3.6,49.3c-5.7,5-11.4,9.1-16.9,12.6c-0.5-5.5-1.9-24.3-2.9-49.4
	c-17.8,9.5-2.5,52.4-2.5,52.4l-0.8,0.8c-14.9,8.6-26.5,12.3-26.9,15c-0.2,0.2,1.7-0.2,5.2-1.2l-3.7,9.3c0,0,38,36.8,43.3,8.9
	c-13.8,8.1-35-19.2-35-19.2s7.5-3.4,14.1-6.7c6.1,6.8,29.8,30.2,44.2,2.5c-19.8,2-29.6-5.2-33.1-8.8c5.7-3.6,11.6-8,17.5-13.2
	c6.9,4.8,33.8,21.8,40.7-1.2c-11.4,1.9-28.4-3.3-34.1-5.2c5.7-6,11.3-12.9,16.2-20.9c8.7,5.7,37.9,22.5,34-12.5
	c-8.3,4.3-24.3,5.5-30.2,5.8c2.5-4.7,4.8-9.8,6.8-15.1C702,502.4,731,503.9,731.1,473.4z"/>
<path fill="#F3AE00" d="M68.9,473.4C88.8,489,97,490,99.9,489.5c-2.1-7.6-3.6-15.8-4.5-24.6c-3.9,1.1-27.1,6.1-23.1-26.4
	c9.4,12.2,19.7,16.4,22.4,17.4c-0.3-6.4-0.3-13.2,0.1-20.2c-5.6-0.9-25.3-5.7-15.5-30.8c4.1,9.5,11.7,15.7,16.4,18.9
	c0.5-4.8,1.2-9.8,2-15c-4.9-7.2-17.5-20.7-9.5-31.6c4.3,6.4,9,14.1,11.8,18.8c0.7-3.2,1.5-6.6,2.4-10c-1.7-3.7-6-16.1,0.6-35.8
	c2.1,2.6,3.6,11.9,4.4,17.8c1.6-5.3,3.5-10.8,5.4-16.5c-2.8-20.4,10.9-31.3,10.9-31.3s0.9,2.7,0.9,11.2c16.9-15.9,25-12.7,25-12.7
	s-24.8,20.2-34.5,31c-2.7,8.1-5,15.9-7.1,23.4c0.5-0.4,7.8-6.4,15.7-11.3c-2,13.3-14.4,21.8-19,24.5c-1,4.4-2,8.7-2.8,12.9
	c0.4,0.7,0.7,1.2,0.7,1.2s12.3-10.3,22-21.1c-5.9,27.5-23,32.8-25,33.4c-0.6,4.4-1.1,8.6-1.4,12.8c0.7,0.4,1.2,0.7,1.2,0.7
	s11.3-15.1,18.7-21.2c2.4,21.2-17.4,34-20.9,36.1c-0.1,3.1,0,6.1,0.1,9.1l0.1-0.2c0,0,12.4-10.6,23.7-23
	c-3.6,21.4-17.6,32.7-23,36.4c0.8,8.3,2.2,16.1,4,23.2c2.6-6.5,10.3-24.3,18-35.3c5.7,25.4-15.2,43.9-15.2,43.9v1.1
	c2.4,6.9,5.2,13.2,8.3,19c1.4-7.2,7-33.2,15.6-42.3c5.5,29.1-9.7,46.7-11.7,48.9c4.9,7.8,10.4,14.4,16.1,20.1
	c1-4.1,2.9-15.7,2.9-43.3c19.4,7.8,6.9,41.4,3.6,49.3c5.7,5,11.4,9.1,16.9,12.6c0.5-5.5,1.9-24.3,2.9-49.4
	c17.8,9.5,2.5,52.4,2.5,52.4l0.8,0.8c14.9,8.6,26.5,12.3,26.9,15c0.2,0.2-1.7-0.2-5.2-1.2l3.7,9.3c0,0-38,36.8-43.2,8.9
	c13.8,8.1,34.9-19.6,34.9-19.6s-7.4-3-13.9-6.4c-6.1,6.8-29.8,30.2-44.2,2.5c19.8,2,29.6-5.2,33.1-8.8c-5.7-3.6-11.6-8-17.5-13.2
	c-6.9,4.8-33.8,21.8-40.7-1.2c11.4,1.9,28.4-3.3,34.1-5.2c-5.7-6-11.3-12.9-16.2-20.9c-8.7,5.7-37.9,22.5-34-12.5
	c8.3,4.3,24.3,5.5,30.2,5.8c-2.5-4.7-4.8-9.8-6.8-15.1C98,502.4,69,503.9,68.9,473.4z"/>
<polygon fill="#027CC5" points="616.8,475.9 400.1,379.2 400.1,379.2 400.1,379.2 400,379.2 400,379.2 183.3,475.9 183.3,587.3 
	400,680.9 400,681 400.1,680.9 400.1,681 400.1,680.9 616.8,587.3 "/>
<path fill="#027CC5" d="M632.5,663.7l-15.7-64l-216.8,92.4l-216.8-92.4l-15.7,64l26.6,0C227.3,663.6,362.8,750,400,750l0,0
	c0,0,0,0,0,0c0,0,0,0,0,0l0,0c37.3,0,172.7-86.4,205.8-86.3L632.5,663.7z"/>
<g>
	<path fill="#027CC5" d="M399.9,121c-52.8,0-95.6,42.8-95.6,95.6c0,52.8,42.8,95.6,95.6,95.6c52.8,0,95.6-42.8,95.6-95.6
		C495.5,163.8,452.7,121,399.9,121z M348.6,283.2l5.6,4C352.2,286,350.4,284.6,348.6,283.2z M467.6,266.6l0-16l-36.5,8.6l-19.6,31.1
		l16.7,5.6c-8.8,3.2-18.3,5-28.3,5c-9.6,0-18.7-1.7-27.3-4.6l16.2-5.6L368.7,259l-35.8-8.3l0.2,17.1c-10.9-14.2-17.4-31.9-17.4-51.2
		c0-0.5,0.1-1,0.1-1.6l9.5,13.2l24.5-28.3l-2.3-36.7l-16.6,5.2c10.5-15,25.7-26.4,43.4-32l-9.1,12.8l34.7,14l34-14l-9.7-13.1
		c18.1,5.5,33.5,16.9,44.2,31.9l-15.2-4.9l-2.9,37.4l23.7,28.1l9.9-13.6c0,0.5,0.1,1.1,0.1,1.6C484.2,235.3,477.9,252.6,467.6,266.6
		z"/>
	<polygon fill="#027CC5" points="364.3,204.7 378.2,245.7 421.9,245.7 435.7,204.4 400,178 	"/>
</g>
<path fill="#FFFFFF" d="M325.9,588.4c-15.5-0.2-35.9-40.1-42.5-48.9c5.7-0.1,22-10.7,22.2-28.5c0.1-10.7-9-33.2-30.9-33.2
	c-33.2-1.2-63.4,0.7-63.4,0.7v8l6.1,0.2c8.9,0.3,8.9,7.9,8.9,7.9l0,82.8c0.2,9.5-9,9.1-9,9.1l-5.9,0v7.8h53.4l0-7.8h-9.1
	c0,0-8.4,0.2-8.4-10.6c0.1-10.9,0-30.6,0-30.6l12.8-0.3c2.3,0,31.2,49.2,41.4,49.4H330v-6L325.9,588.4z M261.7,537.2H247v-52.3h16.2
	c0,0,20.2,0.1,20.2,26.7S261.7,537.2,261.7,537.2z"/>
<path fill="#FFFFFF" d="M499.4,477.3h89.4V504h-6.3l0-7.7c0-8.5-7-8.6-7-8.6h-38.1v41.3c0,0,19,0.1,30.1,0
	c11.1-0.1,10.6-9.4,10.6-9.4l0-2.6l5.7,0v34.7h-7.2c0,0,0.8-11.6-5.9-11.6c-6.8,0-33.3,0-33.3,0v36.2c0,0-1.1,8.9,7.5,8.7h7.1v7.5
	h-52.5v-7.2l5.6,0.1c0,0,8.9,0.9,8.9-8.5c0-9.3-0.1-81.4-0.1-81.4s0.6-10.8-8.4-10.9l-6,0V477.3z"/>
<path fill="#FFFFFF" d="M476.7,504.9l6.1,0v-9.1l-49.3,0.1l0,9h8.4c5.3,0,8.7,5.7,7.4,8.7c-1.4,3-13.2,28-13.2,28l-41.2-34.5
	c0,0,28.9-19.2,28.9-39.9c-0.2-6.6-4.2-26.6-32.3-26.6c-28.1,0-38.2,24.1-38.2,36.6c0.2,21.9,13.3,34.5,13.3,34.5
	s-31.3,13.7-31.5,40.3c-0.2,26.6,24.1,42.3,45.2,42.2c24.5,0,50.6-26.9,50.6-26.9l38.6,32.6c0,0,3.2-4.9,8.1-12.4
	c4.9-7.5,1.2-13.4,1.2-13.4l-33.4-26C452.8,538.7,463.8,504.7,476.7,504.9z M386.9,451.2c12.2,0,18.3,9.8,17.8,19.9
	c-0.5,10.2-8.1,26.2-17.8,30.4c-11.9-7.2-15.5-19.3-15.4-28.7C371.6,463.4,374.8,451.2,386.9,451.2z M390.1,576.8
	c-20.9,0-33-18.6-33.5-30.1c-0.1-5.8,0.7-17.5,16.6-26.4c6.1,5.4,47.9,40.8,47.9,40.8S410.9,576.8,390.1,576.8z"/>
<g>
	<path fill="#FFFFFF" stroke="#FFFFFF" stroke-width="0.1" d="M201.4,637.7l-1.5-0.4c-0.3-0.1-0.5-0.1-0.6,0
		c-0.1,0.1-0.2,0.2-0.3,0.4l-1,2.5c-0.2,0.5-0.4,0.9-0.5,1.1c-0.1,0.2-0.3,0.3-0.4,0.4c-0.2,0.1-0.6,0.2-1.3,0.2
		c-0.7,0-1.5-0.1-2.3-0.3c-0.8-0.2-1.7-0.4-2.5-0.8c-2.5-1-4.2-2.5-5.1-4.4c-0.9-1.9-1-3.9-0.1-6.1c0.9-2.3,2.5-3.8,4.7-4.5
		c2.2-0.8,4.6-0.6,7.2,0.4c2,0.8,3.6,1.9,4.6,3.2l-0.9,2.8l-0.4-0.1c0-2.6-1.1-4.4-3.2-5.3c-2.1-0.9-4.1-0.9-5.8-0.2
		c-1.7,0.7-3,2.2-3.9,4.3c-0.7,1.8-0.8,3.7-0.1,5.6c0.7,1.9,1.9,3.2,3.8,3.9c2.3,0.9,3.7,0.6,4.4-1l1-2.5c0.1-0.2,0.1-0.4,0-0.6
		c-0.1-0.1-0.2-0.3-0.5-0.4l-2.1-1.1l0.2-0.4c1.1,0.5,2.1,1,2.9,1.3c1.5,0.6,2.9,1.1,4.1,1.6L201.4,637.7z"/>
	<path fill="#FFFFFF" stroke="#FFFFFF" stroke-width="0.1" d="M211.7,632.2l-0.1,0.4l-1.5-0.4c-0.3-0.1-0.5-0.1-0.7,0.1
		c-0.2,0.1-0.4,0.4-0.5,0.8l-3.3,8.1c-0.6,1.5-0.7,2.6-0.4,3.5c0.3,0.9,1.2,1.6,2.6,2.2c1.9,0.8,3.3,0.8,4.3,0.2
		c1-0.6,1.9-2,2.9-4.2l2.6-6.3c0.2-0.6,0.1-1.1-0.5-1.5l-1.2-0.8l0.1-0.4c0.3,0.2,1.1,0.5,2.3,1c1.2,0.5,2,0.8,2.4,0.9l-0.1,0.4
		l-1.4-0.2c-0.4-0.1-0.7,0.2-0.9,0.8l-2.8,6.9c-0.9,2.1-1.9,3.5-3.1,4.1c-1.2,0.6-2.7,0.6-4.6-0.2c-1.9-0.8-3.1-1.7-3.8-2.9
		c-0.7-1.2-0.7-2.5-0.1-4l3.5-8.5c0.1-0.4,0.2-0.6,0.2-0.8c0-0.2-0.1-0.3-0.3-0.5l-1.5-0.8l0.1-0.4c1,0.5,2,0.9,3,1.3
		C210.1,631.6,211.1,632,211.7,632.2z"/>
	<path fill="#FFFFFF" stroke="#FFFFFF" stroke-width="0.1" d="M223.2,646l-4,4.5c-0.1,0.1-0.2,0.2-0.2,0.3c-0.1,0.1,0,0.2,0,0.3
		c0.1,0.1,0.2,0.2,0.5,0.4l1.5,0.8l-0.1,0.4c-0.3-0.1-1.2-0.5-2.8-1.2c-1.6-0.6-2.5-1-2.8-1.1l0.1-0.4l1.5,0.5c0.5,0.2,1,0,1.4-0.4
		l10.7-11.7l0.7,0.3l-0.5,15.7c0,0.3,0,0.5,0.1,0.6c0.1,0.1,0.2,0.3,0.4,0.5l1.1,0.9l-0.1,0.3c-0.8-0.4-1.7-0.8-3-1.3
		c-1.2-0.5-2.2-0.9-3-1.1l0.1-0.3l1.6,0.4c0.3,0.1,0.5,0.1,0.7,0.1c0.1,0,0.2-0.1,0.3-0.2c0-0.1,0.1-0.3,0.1-0.5l0.2-5.8L223.2,646z
		 M227.7,647.3l0.3-6.7l-4.4,5.1L227.7,647.3z"/>
	<path fill="#FFFFFF" stroke="#FFFFFF" stroke-width="0.1" d="M234.8,656.5c-0.2,0.4-0.2,0.7-0.2,0.8c0,0.2,0.2,0.3,0.5,0.5l2,1.1
		l-0.1,0.4c-0.9-0.4-1.9-0.8-2.9-1.3c-0.8-0.3-1.8-0.7-3-1.1l0.1-0.4l1.3,0.3c0.6,0.1,0.9,0.1,1.1,0.1c0.2-0.1,0.4-0.3,0.5-0.6
		l4-9.9c0.3-0.7,0.4-1.3,0.4-1.7c0-0.4-0.2-0.7-0.6-1l-1.3-0.8l0.2-0.4l2.7,1.1c0.3,0.1,0.5,0.3,0.6,0.4c0.1,0.1,0.2,0.4,0.3,0.7
		l5.7,15.4l4-10.3c0.2-0.4,0.2-0.7,0.1-0.9c-0.1-0.2-0.3-0.3-0.5-0.5l-1.9-1l0.1-0.4c0.4,0.2,1.2,0.6,2.4,1.1
		c1.2,0.5,2.1,0.8,2.5,0.9l-0.1,0.4l-1-0.3c-0.3-0.1-0.5,0-0.6,0.1c-0.1,0.1-0.3,0.4-0.4,0.9l-5.1,13.1l-0.5-0.2l-6.3-16.7
		L234.8,656.5z"/>
	<path fill="#FFFFFF" stroke="#FFFFFF" stroke-width="0.1" d="M268,665l-1.5-0.4c-0.3-0.1-0.5-0.1-0.6,0c-0.1,0.1-0.2,0.2-0.3,0.4
		l-1,2.5c-0.2,0.5-0.4,0.9-0.5,1.1c-0.1,0.2-0.2,0.3-0.4,0.4c-0.2,0.1-0.6,0.2-1.3,0.2c-0.7,0-1.5-0.1-2.3-0.3
		c-0.8-0.2-1.7-0.5-2.5-0.8c-2.5-1-4.2-2.5-5.1-4.4c-0.9-1.9-1-3.9-0.1-6.1c0.9-2.3,2.5-3.8,4.7-4.5c2.2-0.8,4.6-0.6,7.2,0.4
		c2,0.8,3.6,1.9,4.6,3.2l-0.9,2.8l-0.3-0.1c0-2.6-1.1-4.4-3.2-5.3c-2.1-0.9-4.1-0.9-5.8-0.2c-1.7,0.8-3,2.2-3.9,4.3
		c-0.7,1.8-0.8,3.7-0.1,5.6c0.7,1.9,2,3.2,3.8,3.9c2.3,0.9,3.7,0.6,4.4-1l1-2.5c0.1-0.2,0.1-0.4,0-0.6c-0.1-0.1-0.2-0.3-0.5-0.4
		l-2.1-1.1l0.2-0.4c1.1,0.5,2.1,1,2.9,1.3c1.5,0.6,2.9,1.1,4.1,1.5L268,665z"/>
	<path fill="#FFFFFF" stroke="#FFFFFF" stroke-width="0.1" d="M281.5,672.7l-1.8,4c-2.1-0.9-3.8-1.7-5.2-2.2
		c-3.2-1.3-5.8-2.3-7.8-3.1l0.1-0.2l15.6-9.4l-6.3-2.4c-0.6-0.2-1.1-0.3-1.5-0.4c-0.4,0-0.7,0.1-1.2,0.3c-0.4,0.2-1.1,0.6-1.9,1.1
		l-0.2-0.1l3-3.6l0.4,0.2c-0.2,0.2-0.2,0.4-0.3,0.5c-0.1,0.3,0,0.5,0.3,0.7c0.3,0.2,1,0.5,2,0.9l8.2,3.2l-0.2,0.5l-15.3,9.1l4.3,1.8
		c1.6,0.7,2.9,1.1,3.6,1.2c0.8,0.1,1.4,0,2-0.4c0.6-0.4,1.1-1.1,1.6-1.9L281.5,672.7z"/>
	<path fill="#FFFFFF" stroke="#FFFFFF" stroke-width="0.1" d="M298.9,669.4c0.1-0.3,0.2-0.5,0.2-0.7c0-0.2-0.1-0.3-0.3-0.4l-1.2-0.6
		l0.1-0.4c0.6,0.3,1.8,0.8,3.8,1.7c0.6,0.2,1.2,0.5,1.8,0.6l-0.1,0.4l-1.7-0.4c-0.2-0.1-0.4,0-0.5,0c-0.1,0.1-0.2,0.3-0.3,0.6
		l-4.6,11.4c-0.1,0.3-0.2,0.6-0.2,0.7c0,0.2,0.1,0.3,0.4,0.5l1.6,1l-0.1,0.4c-0.7-0.4-1.9-0.9-3.4-1.5c-0.9-0.4-1.7-0.7-2.6-0.9
		l0.1-0.4l1.5,0.4c0.2,0,0.4,0,0.5-0.1c0.1-0.1,0.3-0.4,0.4-0.7l2.1-5.3l-8.2-3.3l-2.1,5.3c-0.2,0.4-0.2,0.7-0.2,0.8
		c0,0.2,0.1,0.3,0.3,0.4l1.3,0.8l-0.1,0.4c-0.8-0.4-1.6-0.8-2.5-1.1c-1.6-0.6-2.7-1.1-3.5-1.3l0.1-0.4l1.9,0.4
		c0.3,0.1,0.5,0,0.6-0.1c0.1-0.1,0.3-0.3,0.4-0.6l4.6-11.4c0.1-0.3,0.2-0.5,0.1-0.7c0-0.2-0.1-0.3-0.3-0.4l-1.2-0.6l0.1-0.4
		c0.6,0.3,1.8,0.9,3.9,1.7c0.7,0.3,1.3,0.5,1.8,0.6l-0.1,0.4l-1.8-0.5c-0.2-0.1-0.4,0-0.5,0c-0.1,0.1-0.2,0.3-0.3,0.6l-2.2,5.4
		l8.2,3.3L298.9,669.4z"/>
	<path fill="#FFFFFF" stroke="#FFFFFF" stroke-width="0.1" d="M306.9,688.2c-2.3-1-3.9-2.4-4.8-4.4c-0.9-2-0.9-4,0-6.1
		c0.8-2.1,2.3-3.5,4.4-4.4c2.1-0.9,4.3-0.8,6.8,0.2c2.1,0.9,3.6,2.3,4.5,4.3c0.9,2,0.9,4,0,6.1c-0.9,2.2-2.4,3.7-4.4,4.5
		C311.4,689.2,309.2,689.1,306.9,688.2z M304.1,678.6c-0.7,1.8-0.8,3.6-0.3,5.4c0.5,1.8,1.6,3,3.2,3.7c1.9,0.8,3.6,0.8,5.1,0
		c1.5-0.8,2.7-2.3,3.6-4.5c0.9-2.1,1-4,0.5-5.8c-0.5-1.7-1.7-3-3.4-3.7c-1.2-0.5-2.5-0.6-3.6-0.3c-1.2,0.3-2.2,0.9-3.1,1.9
		C305.2,676.4,304.6,677.5,304.1,678.6z"/>
	<path fill="#FFFFFF" stroke="#FFFFFF" stroke-width="0.1" d="M328.4,679.8l-0.1,0.4l-1.5-0.4c-0.3-0.1-0.5-0.1-0.7,0.1
		c-0.2,0.1-0.4,0.4-0.5,0.8l-3.3,8.1c-0.6,1.5-0.7,2.6-0.4,3.5c0.3,0.9,1.2,1.6,2.6,2.2c1.9,0.8,3.3,0.8,4.3,0.2
		c1-0.6,1.9-2,2.9-4.2l2.6-6.3c0.2-0.6,0.1-1.1-0.5-1.5l-1.2-0.8l0.1-0.4c0.3,0.2,1.1,0.5,2.3,1c1.2,0.5,2,0.8,2.4,0.9l-0.1,0.4
		l-1.4-0.2c-0.4-0.1-0.7,0.2-0.9,0.8l-2.8,6.9c-0.9,2.1-1.9,3.5-3.1,4.1c-1.2,0.6-2.7,0.6-4.6-0.2c-1.9-0.8-3.1-1.7-3.8-2.9
		c-0.7-1.2-0.7-2.5-0.1-4l3.5-8.5c0.1-0.4,0.2-0.6,0.2-0.8c0-0.2-0.1-0.3-0.3-0.5l-1.5-0.8l0.1-0.4c1,0.5,2,0.9,3,1.3
		C326.8,679.3,327.8,679.6,328.4,679.8z"/>
	<path fill="#FFFFFF" stroke="#FFFFFF" stroke-width="0.1" d="M344.1,702.6l1.3,0.4c0.5,0.1,0.8,0.2,1,0.1c0.2-0.1,0.4-0.3,0.6-0.8
		l4.3-10.7c0.2-0.5,0.3-0.8,0.2-1.1c0-0.2-0.3-0.5-0.9-0.9l-0.9-0.6l0.1-0.4c0.7,0.3,1.1,0.5,1.4,0.6l3.8,1.3
		c0.3,0.1,0.6,0.2,0.9,0.3c1.6,0.7,2.7,1.4,3.2,2.3c0.6,0.9,0.6,1.9,0.1,3.1c-0.4,0.9-0.9,1.5-1.5,1.9c-0.7,0.3-1.5,0.6-2.6,0.6
		l0.7,5.5c0.2,1.4,0.5,2.4,0.8,2.8c0.3,0.4,0.9,0.9,1.6,1.3l-0.1,0.4c-0.6-0.3-1.4-0.6-2.3-1c-0.8-0.3-1.3-0.5-1.6-0.6l-0.9-7.9
		c-0.1-0.6-0.3-1-0.9-1.2l-1.3-0.5l-2.2,5.4c-0.1,0.4-0.2,0.7-0.1,0.9c0.1,0.2,0.3,0.5,0.6,0.7l1,0.7l-0.1,0.4
		c-1.1-0.5-2.1-1-3.1-1.4c-1.2-0.5-2.3-0.9-3.2-1.2L344.1,702.6z M351.4,696.9c3,1.4,4.9,1,5.8-1c0.4-0.9,0.4-1.9-0.1-2.7
		c-0.5-0.9-1.3-1.5-2.4-2c-0.2-0.1-0.5-0.2-0.8-0.3L351.4,696.9z"/>
	<path fill="#FFFFFF" stroke="#FFFFFF" stroke-width="0.1" d="M370,709.1c1.8-0.9,2.9-1.8,3.2-2.6c0.2-0.4,0-0.9-0.6-1.3l0.1-0.3
		l4.5,1.5l-0.1,0.3c-0.8,0-1.6,0.1-2.5,0.5c-0.9,0.4-2.4,1.2-4.5,2.4c0.5,2.2,1.3,3.4,2.2,3.8c0.5,0.2,1.1,0.2,1.9,0
		c0.1,0,0.2,0,0.2,0c0.1,0,0.1,0.1,0.1,0.3c-0.1,0.2-0.3,0.4-0.5,0.6c-0.3,0.3-0.6,0.4-1.1,0.4c-0.5,0-1,0-1.4-0.2
		c-0.7-0.3-1.2-0.7-1.6-1.3c-0.4-0.6-0.8-1.5-1.3-2.7c-1.1,0.5-2.2,0.8-3.2,0.9c-1,0.1-2-0.1-3-0.5c-1.3-0.5-2.2-1.3-2.6-2.4
		c-0.4-1.1-0.4-2.2,0-3.3c0.8-2,2.8-2.8,6.1-2.6c-0.4-1.1-0.6-1.9-0.6-2.4c0-0.5,0.1-1,0.2-1.3c0.3-0.7,0.8-1.2,1.6-1.4
		c0.8-0.2,1.6-0.2,2.5,0.2c0.9,0.4,1.5,0.9,1.9,1.5c0.3,0.7,0.4,1.4,0.1,2.1c-0.5,1.3-1.7,2-3.4,1.9L370,709.1z M366.1,703.1
		c-1-0.1-1.9,0.1-2.6,0.6c-0.8,0.4-1.3,1-1.6,1.7c-0.4,1-0.3,1.9,0.2,2.7c0.5,0.9,1.3,1.5,2.3,1.9c1.4,0.6,2.7,0.5,4.1-0.2
		L366.1,703.1z M367.9,702.6c1.1-0.1,1.9-0.7,2.3-1.7c0.3-0.7,0.3-1.3,0.2-1.8c-0.2-0.5-0.5-0.9-1-1.1c-0.4-0.2-0.9-0.2-1.3,0
		c-0.4,0.1-0.7,0.4-0.8,0.8c-0.1,0.4-0.2,0.8-0.1,1.2C367.3,700.5,367.5,701.4,367.9,702.6z"/>
	<path fill="#FFFFFF" stroke="#FFFFFF" stroke-width="0.1" d="M381.1,718.1c-1-0.5-2.1-0.9-3.1-1.4c-1.4-0.6-2.5-1-3.2-1.2l0.1-0.4
		l1.5,0.4c0.3,0.1,0.5,0.1,0.6,0c0.1-0.1,0.3-0.3,0.4-0.6l4.7-11.4c0.1-0.3,0.2-0.6,0.2-0.8c0-0.2-0.1-0.4-0.4-0.5l-1.3-0.7l0.2-0.4
		c0.7,0.3,3.5,1.5,8.5,3.5c1.3,0.5,2.3,0.9,3,1.2c-0.2,0.4-0.5,1-0.8,1.8c-0.2,0.6-0.4,1.1-0.6,1.5l-0.3-0.1c0.1-1.3,0.1-2.1,0-2.5
		c-0.1-0.4-0.4-0.7-0.9-0.9l-4.9-2c-0.3-0.1-0.5-0.1-0.6,0c-0.1,0.1-0.3,0.3-0.4,0.7l-2.1,5.1l4.7,1.9c0.3,0.1,0.5,0.1,0.6,0.1
		c0.1,0,0.3-0.2,0.5-0.5l1-1.5l0.4,0.1c-0.3,0.5-0.6,1.4-1.1,2.5c-0.3,0.8-0.6,1.7-1,2.6l-0.3-0.1l0.2-1.8c0-0.3,0-0.6-0.1-0.7
		c-0.1-0.1-0.4-0.3-0.9-0.5l-4.2-1.7l-2.4,5.8c-0.2,0.4-0.2,0.7-0.1,0.8c0.1,0.1,0.3,0.3,0.6,0.4l1.4,0.8L381.1,718.1z"/>
</g>
<g>
	<path fill="#FFFFFF" stroke="#FFFFFF" stroke-width="0.1" d="M421.4,718.1c-1.2,0.4-2.3,0.8-3.4,1.3c-1.5,0.6-2.6,1.1-3.3,1.5
		l-0.2-0.4l1.5-0.8c0.3-0.1,0.4-0.3,0.5-0.4c0-0.2,0-0.4-0.1-0.7l-4.8-11.6c-0.1-0.3-0.3-0.6-0.4-0.7c-0.1-0.1-0.3-0.2-0.6-0.1
		l-1.5,0.5l-0.2-0.4c0.7-0.3,3.8-1.5,9.2-3.8c1.4-0.6,2.5-1.1,3.2-1.4c0.1,0.4,0.4,1,0.7,1.8c0.3,0.6,0.5,1.1,0.6,1.5l-0.3,0.1
		c-0.8-1-1.4-1.6-1.8-1.8c-0.4-0.2-0.8-0.2-1.3,0l-5.3,2.2c-0.3,0.1-0.4,0.3-0.5,0.5c0,0.2,0,0.4,0.2,0.8l2.1,5.1l5.1-2.1
		c0.3-0.1,0.5-0.2,0.5-0.4c0.1-0.1,0.1-0.4,0-0.7l-0.3-1.8l0.4-0.2c0.2,0.6,0.5,1.4,1,2.6c0.3,0.8,0.7,1.7,1.1,2.5l-0.3,0.1
		l-1.2-1.4c-0.2-0.3-0.4-0.4-0.6-0.4c-0.2,0-0.5,0.1-1,0.3l-4.5,1.9l2.4,5.9c0.2,0.4,0.3,0.6,0.5,0.6c0.2,0,0.4,0,0.8-0.2l1.6-0.5
		L421.4,718.1z"/>
	<path fill="#FFFFFF" stroke="#FFFFFF" stroke-width="0.1" d="M437.5,711.7c-2.5,1-4.8,1.2-7,0.4c-2.1-0.8-3.7-2.2-4.5-4.3
		c-0.9-2.1-0.8-4.2,0.1-6.3c1-2.1,2.8-3.8,5.5-4.9c2.3-0.9,4.5-1,6.6-0.3c2.2,0.8,3.7,2.2,4.6,4.3c0.9,2.3,0.9,4.4-0.1,6.4
		C441.8,709.2,440,710.7,437.5,711.7z M428.3,707.1c0.8,1.8,2,3.2,3.7,4.1c1.7,0.9,3.5,1,5.2,0.2c2.1-0.9,3.4-2.1,4-3.8
		c0.6-1.7,0.4-3.6-0.5-5.9c-0.9-2.1-2.2-3.6-3.9-4.4c-1.7-0.8-3.5-0.9-5.4-0.1c-1.3,0.6-2.4,1.4-3,2.4c-0.7,1.1-1,2.3-0.9,3.6
		C427.5,704.6,427.8,705.9,428.3,707.1z"/>
	<path fill="#FFFFFF" stroke="#FFFFFF" stroke-width="0.1" d="M456.7,703.8c-2.5,1-4.8,1.2-7,0.4c-2.1-0.8-3.7-2.2-4.5-4.4
		c-0.9-2.1-0.8-4.2,0.1-6.3c1-2.1,2.8-3.8,5.5-4.9c2.3-0.9,4.5-1,6.6-0.3c2.2,0.8,3.7,2.2,4.6,4.3c0.9,2.3,0.9,4.4-0.1,6.4
		C460.9,701.2,459.2,702.7,456.7,703.8z M447.4,699.1c0.8,1.8,2,3.2,3.7,4.1c1.7,0.9,3.5,1,5.2,0.2c2.1-0.9,3.4-2.1,4-3.8
		c0.6-1.6,0.4-3.6-0.5-5.9c-0.9-2.1-2.2-3.6-3.9-4.4c-1.7-0.8-3.5-0.9-5.4-0.1c-1.3,0.6-2.3,1.4-3,2.5c-0.7,1.1-1,2.3-1,3.6
		C446.7,696.6,446.9,697.9,447.4,699.1z"/>
	<path fill="#FFFFFF" stroke="#FFFFFF" stroke-width="0.1" d="M461,684.1c-0.1-0.5,0-0.7,0.1-0.8c0.1,0,0.3,0.1,0.7,0.3
		c0.3,0.2,0.5,0.3,0.6,0.3c0.2,0,0.4-0.1,0.8-0.2l9.5-4c0.6-0.2,1-0.4,1.1-0.6c0.1-0.2,0.2-0.4,0.2-0.9c0-0.3,0.1-0.4,0.2-0.5
		c0.2-0.1,0.4,0,0.5,0.3l1.5,3.7c0.1,0.2,0.1,0.4,0,0.4c-0.2,0.1-0.4-0.1-0.7-0.5c-0.5-0.7-0.9-1.1-1.3-1.3c-0.4-0.2-1-0.1-1.9,0.3
		l-3.1,1.3l4.9,11.9c0.2,0.4,0.3,0.7,0.5,0.8c0.2,0.1,0.4,0.1,0.8,0l2.1-0.4l0.2,0.4c-0.9,0.3-2.2,0.8-3.9,1.5
		c-2.2,0.9-3.4,1.5-3.8,1.7l-0.2-0.4l1.6-1c0.4-0.3,0.7-0.6,0.8-0.8c0.1-0.2,0-0.6-0.1-0.9l-4.9-11.8l-3,1.3
		c-0.5,0.2-0.9,0.5-1.2,0.9c-0.2,0.4-0.5,1.2-0.8,2.3c-0.1,0.5-0.3,0.8-0.4,0.9c-0.1,0-0.2,0-0.2-0.2c-0.1-0.2-0.1-0.4-0.2-0.8
		L461,684.1z"/>
	<path fill="#FFFFFF" stroke="#FFFFFF" stroke-width="0.1" d="M475.7,679.1l-0.2-0.4l1.4-0.7c3-1.4,4.8-2.3,5.3-2.5
		c1.8-0.8,3.4-1,4.6-0.9c1.2,0.2,2,0.8,2.5,1.9c0.5,1.2,0,2.5-1.5,4c2.8-0.4,4.6,0.4,5.4,2.4c0.3,0.8,0.4,1.7,0.1,2.7
		c-0.3,0.9-0.8,1.8-1.7,2.5c-0.8,0.8-1.9,1.4-3.1,1.9l-5.1,2.1l-1.7,0.7l-0.1-0.4l1.4-0.9c0.3-0.2,0.5-0.4,0.5-0.6
		c0.1-0.2,0-0.5-0.2-1l-4.6-11.2c-0.1-0.2-0.2-0.4-0.4-0.5c-0.1-0.1-0.5,0-1.1,0.2L475.7,679.1z M482.8,682.8c0.3-0.1,1-0.3,1.9-0.7
		c1.2-0.5,2-1.2,2.4-2c0.5-0.9,0.5-1.8,0.1-2.8c-0.4-0.8-1-1.4-1.8-1.5c-0.9-0.2-1.9,0-3.2,0.5c-0.6,0.3-1.2,0.6-1.8,1L482.8,682.8z
		 M483.1,683.5l2.1,5.2c0.5,1.2,1.7,1.4,3.6,0.6c1.1-0.4,1.8-1.2,2.3-2.2c0.5-1,0.6-2,0.2-2.9c-0.5-1.2-1.3-2-2.3-2.2
		c-1.1-0.2-2.4,0-4.1,0.7C484.4,682.9,483.8,683.2,483.1,683.5z"/>
	<path fill="#FFFFFF" stroke="#FFFFFF" stroke-width="0.1" d="M499.1,678l0.3,6.2c0,0.2,0,0.3,0.1,0.4c0,0.1,0.1,0.2,0.3,0.2
		c0.1,0,0.3,0,0.7-0.1l1.8-0.6l0.1,0.4c-0.3,0.1-1.3,0.5-3,1.2c-1.7,0.7-2.7,1.1-3,1.3l-0.1-0.4l1.5-0.8c0.5-0.3,0.8-0.7,0.8-1.3
		l-0.3-16.2l0.7-0.3l11.1,11.5c0.2,0.2,0.4,0.3,0.5,0.4c0.1,0.1,0.4,0.1,0.6,0l1.5-0.2l0.1,0.3c-0.9,0.3-1.9,0.7-3.2,1.3
		c-1.3,0.5-2.4,1-3.2,1.4l-0.1-0.3l1.5-0.9c0.3-0.2,0.5-0.3,0.6-0.4c0.1-0.1,0.1-0.2,0.1-0.4c0-0.1-0.1-0.2-0.3-0.4l-4.1-4.3
		L499.1,678z M503.5,675.6l-4.8-5l0.3,6.8L503.5,675.6z"/>
	<path fill="#FFFFFF" stroke="#FFFFFF" stroke-width="0.1" d="M517.6,676.8c0.1,0.2,0.2,0.3,0.3,0.4c0.1,0.1,0.3,0,0.6-0.1l2.3-0.9
		c1.4-0.6,2.4-1.1,2.8-1.4c0.4-0.3,0.8-0.9,1.1-1.6c0.3-0.7,0.5-1.6,0.5-2.6l0.4-0.2l0.9,4.1c-1.4,0.5-3.6,1.4-6.6,2.7
		c-3.4,1.4-5.5,2.3-6.6,2.8l-0.1-0.3l2.1-1.2c0.4-0.2,0.6-0.5,0.4-0.7l-5-12.1c-0.1-0.3-0.3-0.4-0.4-0.5c-0.1,0-0.3,0-0.6,0l-2,0.5
		l-0.1-0.4c0.9-0.3,2.6-1,5.1-2c1-0.4,1.8-0.8,2.2-1l0.1,0.4l-2,1.2c-0.2,0.1-0.4,0.3-0.4,0.4c-0.1,0.1,0,0.3,0.1,0.6L517.6,676.8z"
		/>
	<path fill="#FFFFFF" stroke="#FFFFFF" stroke-width="0.1" d="M531.7,670.9c0.1,0.2,0.2,0.3,0.3,0.4c0.1,0.1,0.3,0,0.6-0.1l2.3-0.9
		c1.4-0.6,2.3-1.1,2.8-1.4c0.4-0.3,0.8-0.9,1.1-1.6c0.3-0.7,0.5-1.6,0.5-2.6l0.4-0.2l0.9,4.1c-1.4,0.5-3.6,1.4-6.6,2.7
		c-3.4,1.4-5.5,2.3-6.6,2.9l-0.1-0.3l2.1-1.2c0.4-0.2,0.6-0.5,0.4-0.7l-5-12.1c-0.1-0.3-0.2-0.5-0.4-0.5c-0.1,0-0.3,0-0.5,0l-2,0.5
		l-0.2-0.4c0.9-0.3,2.6-1,5.1-2c1-0.4,1.8-0.8,2.2-1l0.1,0.4l-2,1.2c-0.2,0.1-0.4,0.2-0.4,0.4c-0.1,0.1,0,0.3,0.1,0.6L531.7,670.9z"
		/>
	<path fill="#FFFFFF" stroke="#FFFFFF" stroke-width="0.1" d="M566.7,653.8c0.2,1,0.4,2.1,0.5,3.3c-0.9,0.8-2.3,1.6-4.3,2.5
		c-2.6,1.1-4.9,1.3-6.9,0.5c-2.1-0.7-3.5-2.1-4.4-4.3c-0.6-1.3-0.7-2.8-0.5-4.3c0.2-1.5,0.8-2.9,1.7-4.1c0.9-1.2,2.1-2.1,3.5-2.7
		c1.4-0.6,2.5-1,3.3-1.2c0.8-0.2,1.5-0.2,2.4-0.1c0.4,0.7,0.8,1.4,1.1,2.2l-0.5,0.2c-0.7-0.8-1.5-1.2-2.5-1.4c-1-0.1-2,0-3.1,0.5
		c-1.7,0.7-2.9,2-3.4,3.8c-0.6,1.8-0.4,3.8,0.4,5.9c0.9,2.3,2.2,3.8,3.6,4.5c1.5,0.7,3.2,0.7,5.2-0.1c2.3-1,3.5-2.7,3.7-5.1
		L566.7,653.8z"/>
	<path fill="#FFFFFF" stroke="#FFFFFF" stroke-width="0.1" d="M573.6,653.5c0.1,0.2,0.2,0.3,0.3,0.4c0.1,0.1,0.3,0,0.6-0.1l2.3-0.9
		c1.4-0.6,2.4-1.1,2.8-1.4c0.4-0.3,0.8-0.9,1.1-1.6c0.3-0.7,0.5-1.6,0.5-2.6l0.4-0.2l0.9,4.1c-1.4,0.5-3.6,1.4-6.6,2.7
		c-3.4,1.4-5.5,2.3-6.6,2.8l-0.1-0.3l2.1-1.2c0.4-0.2,0.6-0.5,0.4-0.7l-5-12.1c-0.1-0.3-0.3-0.5-0.4-0.5c-0.1,0-0.3,0-0.5,0l-2,0.5
		l-0.1-0.4c0.9-0.3,2.6-1,5.1-2c1.1-0.4,1.8-0.8,2.2-1l0.2,0.4l-2,1.2c-0.2,0.1-0.4,0.3-0.4,0.4c-0.1,0.1,0,0.3,0.1,0.6L573.6,653.5
		z"/>
	<path fill="#FFFFFF" stroke="#FFFFFF" stroke-width="0.1" d="M584,633.4l0.1,0.4l-1.5,0.8c-0.3,0.1-0.4,0.3-0.5,0.6
		c0,0.2,0,0.5,0.2,0.9l3.4,8.2c0.6,1.5,1.4,2.4,2.3,2.8c0.9,0.4,2.1,0.3,3.6-0.4c2-0.8,3.2-1.8,3.5-3c0.3-1.2,0-2.9-0.9-5.1
		l-2.7-6.4c-0.3-0.6-0.7-0.8-1.5-0.7l-1.6,0.4l-0.2-0.4c0.4-0.1,1.3-0.4,2.5-1c1.3-0.5,2.1-0.9,2.5-1.1l0.2,0.4l-1.3,0.9
		c-0.3,0.2-0.4,0.6-0.1,1.3l2.9,7c0.9,2.2,1.1,3.9,0.7,5.2c-0.4,1.3-1.7,2.4-3.7,3.3c-2,0.8-3.7,1.1-5.1,0.7c-1.4-0.3-2.4-1.3-3-2.7
		l-3.6-8.6c-0.2-0.4-0.3-0.6-0.5-0.7c-0.1-0.1-0.3-0.2-0.6-0.1l-1.8,0.5l-0.1-0.4c1.1-0.4,2.2-0.8,3.3-1.3
		C582.3,634.2,583.4,633.7,584,633.4z"/>
	<path fill="#FFFFFF" stroke="#FFFFFF" stroke-width="0.1" d="M594.8,629.5l-0.2-0.4l1.4-0.7c3-1.4,4.8-2.3,5.3-2.5
		c1.8-0.8,3.4-1,4.6-0.9c1.2,0.2,2,0.8,2.5,1.9c0.5,1.2,0,2.5-1.5,4c2.8-0.4,4.6,0.4,5.4,2.4c0.3,0.8,0.4,1.7,0.1,2.7
		c-0.3,0.9-0.8,1.8-1.7,2.5c-0.8,0.8-1.9,1.4-3.1,1.9l-5.1,2.1l-1.7,0.7l-0.2-0.4l1.4-0.9c0.3-0.2,0.5-0.4,0.5-0.6
		c0.1-0.2,0-0.5-0.2-1l-4.6-11.2c-0.1-0.2-0.2-0.4-0.4-0.5c-0.1-0.1-0.5,0-1.1,0.2L594.8,629.5z M601.9,633.3
		c0.3-0.1,0.9-0.3,1.9-0.7c1.2-0.5,2-1.2,2.4-2c0.4-0.9,0.5-1.8,0-2.8c-0.3-0.8-1-1.4-1.8-1.6c-0.9-0.2-1.9,0-3.2,0.5
		c-0.6,0.3-1.2,0.6-1.8,1L601.9,633.3z M602.2,634l2.1,5.2c0.5,1.2,1.7,1.4,3.6,0.6c1-0.4,1.8-1.2,2.3-2.2c0.5-1,0.6-2,0.2-2.8
		c-0.5-1.2-1.3-2-2.4-2.2c-1.1-0.2-2.4,0-4.1,0.7C603.5,633.4,602.9,633.7,602.2,634z"/>
</g>
<g>
	<path fill="#FFFFFF" stroke="#FFFFFF" stroke-width="0.1" d="M347.7,612.9c-0.5-2.2-1.7-3.3-3.6-3.3c-0.9,0-1.6,0.3-2.2,0.8
		c-0.6,0.5-0.9,1.1-0.9,1.9c0,0.6,0.2,1.1,0.7,1.5c0.5,0.5,1.5,1.1,3,1.9c1.6,0.8,2.7,1.6,3.4,2.2c0.7,0.6,1.1,1.6,1.1,2.8
		c0,1.4-0.5,2.6-1.5,3.4c-1,0.9-2.3,1.3-4.1,1.3c-1.6,0-3.1-0.4-4.4-1.2l0.3-3.8h0.4c0.1,1.3,0.6,2.3,1.5,3.1
		c0.8,0.8,1.8,1.2,2.8,1.2c1,0,1.8-0.3,2.5-0.9c0.7-0.6,1-1.3,1-2.1c0-0.7-0.3-1.4-0.8-1.9c-0.5-0.5-1.4-1.1-2.7-1.8
		c-1.7-0.9-2.9-1.7-3.6-2.5c-0.7-0.7-1-1.6-1-2.6c0-1.2,0.5-2.2,1.4-3c0.9-0.8,2.1-1.2,3.6-1.2c1.5,0,2.7,0.4,3.6,1.1l-0.1,2.9
		H347.7z"/>
	<path fill="#FFFFFF" stroke="#FFFFFF" stroke-width="0.1" d="M353.7,623.6v-13.1c0-0.3,0-0.5-0.1-0.6c-0.1-0.1-0.3-0.2-0.5-0.2
		l-2.2-0.2v-0.4c0.2,0.1,1.9,0.1,5.2,0.1c1,0,1.8,0,2.3-0.1v0.4l-2.2,0.2c-0.2,0-0.4,0.1-0.5,0.2c-0.1,0.1-0.1,0.3-0.1,0.6v13.1
		c0,0.3,0,0.5,0.1,0.6c0.1,0.1,0.2,0.1,0.5,0.2l2.2,0.1v0.6c-0.7-0.1-1.9-0.1-3.8-0.1c-1.9,0-3.1,0-3.8,0.1v-0.6l2.2-0.1
		c0.2,0,0.4-0.1,0.5-0.2C353.6,624.1,353.7,623.9,353.7,623.6z"/>
	<path fill="#FFFFFF" stroke="#FFFFFF" stroke-width="0.1" d="M362.7,623.3c0,0.4,0,0.7,0.1,0.8c0.1,0.1,0.3,0.2,0.6,0.3l2.3,0.2
		v0.4c-1-0.1-2.1-0.1-3.2-0.1c-0.8,0-1.9,0-3.2,0.1v-0.4l1.4-0.2c0.6-0.1,0.9-0.2,1.1-0.4c0.2-0.1,0.2-0.4,0.2-0.8v-11.1
		c0-0.8-0.1-1.4-0.2-1.8c-0.2-0.4-0.5-0.6-0.9-0.7l-1.5-0.2v-0.4h3c0.3,0,0.6,0,0.7,0.1c0.1,0.1,0.3,0.3,0.6,0.5l11.2,12.5
		l-0.2-11.4c0-0.5-0.1-0.8-0.2-0.9c-0.1-0.1-0.4-0.2-0.7-0.3l-2.1-0.3v-0.4c0.5,0.1,1.4,0.1,2.7,0.1c1.3,0,2.2,0,2.7-0.1v0.4l-1,0.1
		c-0.3,0-0.5,0.1-0.5,0.3c-0.1,0.2-0.1,0.5-0.1,1l0.2,14.4H375l-12.3-13.4V623.3z"/>
	<path fill="#FFFFFF" stroke="#FFFFFF" stroke-width="0.1" d="M393.1,621.5c-0.2,1-0.4,2.1-0.8,3.3c-1.1,0.4-2.6,0.6-4.6,0.6
		c-2.6,0-4.7-0.7-6.2-2.2c-1.5-1.5-2.3-3.4-2.3-5.8c0-1.5,0.4-2.9,1.1-4.2c0.7-1.3,1.7-2.4,2.9-3.2c1.2-0.8,2.6-1.2,4-1.2
		c1.5,0,2.5,0.1,3.3,0.2c0.7,0.1,1.4,0.4,2.1,0.8c0.1,0.8,0.1,1.6,0.1,2.5h-0.5c-0.3-1-0.9-1.7-1.7-2.2c-0.8-0.5-1.7-0.8-2.8-0.8
		c-1.7,0-3.2,0.7-4.3,2.2c-1.1,1.5-1.7,3.4-1.7,5.7c0,2.5,0.5,4.4,1.5,5.7c1,1.3,2.5,1.9,4.5,1.9c2.3,0,4-1.1,5.1-3.3H393.1z"/>
	<path fill="#FFFFFF" stroke="#FFFFFF" stroke-width="0.1" d="M409.7,620.9c-0.4,1.6-0.6,2.9-0.6,4.2c-2.1-0.1-4.5-0.1-7.3-0.1
		c-2.8,0-5.2,0-7.3,0.1v-0.4l1.8-0.1c0.3,0,0.5-0.1,0.6-0.2c0.1-0.1,0.2-0.3,0.2-0.7v-12.7c0-0.4,0-0.7-0.1-0.9
		c-0.1-0.2-0.3-0.3-0.5-0.3l-1.8-0.2v-0.5c1.3,0.1,3.6,0.1,6.7,0.1c3.1,0,5.4,0,6.7-0.1c-0.1,0.5-0.1,1.2-0.1,1.9c0,0.6,0,1.1,0,1.6
		h-0.3c-0.4-0.9-0.6-1.6-0.8-2c-0.2-0.4-0.4-0.7-0.5-0.8c-0.2-0.1-0.4-0.2-0.7-0.2h-5.8c-0.3,0-0.5,0.1-0.6,0.2
		c-0.1,0.2-0.2,0.4-0.2,0.8v5.8h5.6c0.3,0,0.5,0,0.6-0.1c0.1-0.1,0.2-0.3,0.3-0.6l0.3-1.8h0.5c-0.1,1-0.1,2-0.1,3c0,1,0,2,0.1,3
		h-0.3l-0.5-2c-0.1-0.4-0.3-0.6-0.5-0.8c-0.2-0.1-0.5-0.2-1-0.2h-5v6.3c0,0.4,0.1,0.6,0.2,0.8c0.1,0.1,0.4,0.2,0.8,0.2h5.5
		c0.5,0,0.9-0.1,1.3-0.2c0.3-0.2,0.7-0.5,1-1c0.4-0.5,0.8-1.3,1.2-2.3H409.7z"/>
	<path fill="#FFFFFF" stroke="#FFFFFF" stroke-width="0.1" d="M427.1,625.1c-1.2-0.1-2.9-0.1-5.1-0.1c-2.1,0-3.8,0-5,0.1
		c0.3-0.7,0.7-1.3,1.2-1.9c0.5-0.6,1.3-1.4,2.3-2.5c1.5-1.6,2.7-2.9,3.4-4c0.7-1.1,1.1-2.2,1.1-3.4c0-0.9-0.3-1.7-0.9-2.3
		c-0.6-0.6-1.3-0.9-2.1-0.9c-0.8,0-1.6,0.3-2.3,0.9c-0.7,0.6-1.1,1.4-1.4,2.5l-0.6-0.1c0.3-1.4,0.8-2.6,1.7-3.3
		c0.8-0.8,1.9-1.2,3.1-1.2c1.2,0,2.2,0.4,3.1,1.2c0.8,0.8,1.3,1.8,1.3,2.9c0,1.2-0.4,2.2-1.2,3.2c-0.8,1-2,2.3-3.6,3.8
		c-0.8,0.8-1.9,2-3.2,3.6h5.8c0.6,0,1.1-0.1,1.3-0.3c0.3-0.2,0.5-0.7,0.8-1.5h0.5L427.1,625.1z"/>
	<path fill="#FFFFFF" stroke="#FFFFFF" stroke-width="0.1" d="M434,608.9c1.4,0,2.6,0.8,3.6,2.4c1,1.6,1.5,3.5,1.5,5.9
		c0,2.3-0.5,4.3-1.5,5.9c-1,1.6-2.2,2.4-3.6,2.4c-1.3,0-2.5-0.8-3.5-2.3c-1-1.6-1.5-3.5-1.5-5.9c0-2.3,0.5-4.3,1.5-5.9
		C431.4,609.7,432.6,608.9,434,608.9z M434,624.8c1.2,0,2.1-0.6,2.5-1.9c0.5-1.2,0.7-3.2,0.7-5.8c0-2.6-0.2-4.5-0.7-5.8
		c-0.5-1.3-1.3-1.9-2.5-1.9c-1.2,0-2.1,0.6-2.6,1.9c-0.5,1.3-0.7,3.2-0.7,5.8C430.8,622.3,431.8,624.8,434,624.8z"/>
	<path fill="#FFFFFF" stroke="#FFFFFF" stroke-width="0.1" d="M448.6,625.1c-0.9-0.1-1.8-0.1-2.9-0.1c-1.1,0-2,0-2.9,0.1v-0.4
		l1.3-0.2c0.6-0.1,0.9-0.4,0.9-1v-12.5l-3,2l-0.3-0.5c1.1-0.8,2.5-1.9,4.1-3.5h0.8v14.6c0,0.6,0.3,0.9,0.9,1l1.1,0.2V625.1z"/>
	<path fill="#FFFFFF" stroke="#FFFFFF" stroke-width="0.1" d="M460.3,625.1c-0.9-0.1-1.8-0.1-2.9-0.1c-1.1,0-2,0-2.9,0.1v-0.4
		l1.3-0.2c0.6-0.1,0.9-0.4,0.9-1v-12.5l-3,2l-0.4-0.5c1.1-0.8,2.5-1.9,4.1-3.5h0.8v14.6c0,0.6,0.3,0.9,0.9,1l1.1,0.2V625.1z"/>
</g>
</svg>
