<?xml version="1.0" encoding="iso-8859-1"?>
<!-- Created by @FCLOGO 2024-10-16 GMT+8 9:58:39 . https://fclogo.top/ -->
<!-- FOR PERSONAL USE ONLY NOT FOR COMMERCIAL USE -->
<svg version="1.1" id="&#x56FE;&#x5C42;_1" xmlns="http://www.w3.org/2000/svg" xmlns:xlink="http://www.w3.org/1999/xlink" x="0px"
	 y="0px" viewBox="0 0 800 800" style="enable-background:new 0 0 800 800;" xml:space="preserve">
<path style="fill:#CCCCCC;" d="M348.219,774.301c-0.786,0-1.375-0.217-1.768-0.652c-0.393-0.435-0.528-1.03-0.406-1.786l0.252-1.648
	c0.122-0.755,0.45-1.35,0.984-1.785c0.534-0.435,1.194-0.653,1.98-0.653c0.755,0,1.329,0.199,1.722,0.595
	c0.393,0.397,0.551,0.938,0.475,1.625h-1.236c0.03-0.359-0.055-0.637-0.257-0.836c-0.202-0.198-0.498-0.297-0.887-0.297
	c-0.42,0-0.763,0.117-1.03,0.349c-0.267,0.233-0.435,0.563-0.504,0.99l-0.263,1.659c-0.069,0.435-0.006,0.769,0.189,1.001
	c0.195,0.233,0.502,0.349,0.921,0.349c0.389,0,0.715-0.099,0.978-0.297c0.263-0.198,0.436-0.481,0.521-0.847h1.236
	c-0.137,0.687-0.467,1.231-0.99,1.631C349.614,774.101,348.975,774.301,348.219,774.301z M352.797,774.187l0.996-6.294h1.19
	l-0.195,1.19c0.336-0.87,0.973-1.304,1.911-1.304c0.671,0,1.169,0.208,1.493,0.624c0.324,0.416,0.429,0.986,0.315,1.71l-0.069,0.423
	h-1.27l0.057-0.32c0.069-0.45,0.011-0.795-0.171-1.036c-0.183-0.24-0.477-0.361-0.881-0.361c-0.405,0-0.74,0.122-1.007,0.366
	c-0.267,0.245-0.435,0.588-0.504,1.03l-0.63,3.971H352.797z M361.906,774.301c-0.77,0-1.346-0.223-1.728-0.669
	c-0.382-0.446-0.515-1.036-0.4-1.768l0.252-1.648c0.084-0.488,0.257-0.915,0.521-1.281c0.263-0.366,0.601-0.651,1.013-0.852
	c0.412-0.202,0.873-0.304,1.385-0.304c0.771,0,1.349,0.224,1.734,0.669c0.385,0.446,0.517,1.036,0.395,1.768l-0.172,1.121h-3.845
	l-0.092,0.526c-0.153,0.954,0.217,1.43,1.11,1.43c0.717,0,1.175-0.248,1.373-0.744h1.225c-0.168,0.534-0.504,0.96-1.007,1.276
	C363.165,774.143,362.577,774.301,361.906,774.301z M361.231,770.216l-0.046,0.286l2.655-0.012l0.046-0.286
	c0.069-0.466,0.013-0.822-0.166-1.07c-0.179-0.248-0.486-0.372-0.921-0.372c-0.443,0-0.795,0.126-1.059,0.378
	C361.477,769.392,361.307,769.751,361.231,770.216z M368.326,774.301c-0.633,0-1.103-0.212-1.408-0.635
	c-0.305-0.423-0.397-1.001-0.274-1.733l0.274-1.774c0.115-0.733,0.393-1.312,0.836-1.74c0.442-0.427,0.98-0.641,1.613-0.641
	c0.465,0,0.83,0.119,1.093,0.354c0.263,0.237,0.391,0.558,0.383,0.962h0.023l0.172-1.202h1.236l-0.996,6.294h-1.225l0.195-1.201
	h-0.023c-0.122,0.412-0.351,0.734-0.687,0.967C369.203,774.185,368.799,774.301,368.326,774.301z M368.932,773.226
	c0.389,0,0.715-0.119,0.978-0.355c0.263-0.236,0.429-0.572,0.498-1.007l0.252-1.648c0.069-0.427,0.01-0.761-0.177-1.001
	c-0.187-0.24-0.475-0.36-0.864-0.36c-0.397,0-0.725,0.118-0.984,0.355c-0.26,0.237-0.423,0.572-0.492,1.007l-0.252,1.648
	c-0.069,0.443-0.013,0.78,0.166,1.013C368.236,773.11,368.528,773.226,368.932,773.226z M376.348,774.187
	c-0.572,0-0.994-0.156-1.264-0.469c-0.271-0.312-0.361-0.751-0.269-1.316l0.538-3.387h-1.739l0.171-1.122h1.74l0.275-1.716h1.236
	l-0.275,1.716h2.472l-0.183,1.122h-2.46l-0.538,3.387c-0.076,0.442,0.099,0.664,0.526,0.664h1.717l-0.172,1.121H376.348z
	 M382.504,774.301c-0.77,0-1.346-0.223-1.728-0.669c-0.382-0.446-0.515-1.036-0.4-1.768l0.252-1.648
	c0.084-0.488,0.257-0.915,0.521-1.281c0.263-0.366,0.601-0.651,1.013-0.852c0.412-0.202,0.873-0.304,1.385-0.304
	c0.771,0,1.349,0.224,1.734,0.669c0.385,0.446,0.517,1.036,0.395,1.768l-0.172,1.121h-3.845l-0.092,0.526
	c-0.153,0.954,0.217,1.43,1.11,1.43c0.717,0,1.175-0.248,1.373-0.744h1.225c-0.168,0.534-0.504,0.96-1.007,1.276
	C383.763,774.143,383.176,774.301,382.504,774.301z M381.829,770.216l-0.046,0.286l2.655-0.012l0.046-0.286
	c0.069-0.466,0.013-0.822-0.166-1.07c-0.179-0.248-0.486-0.372-0.921-0.372c-0.443,0-0.795,0.126-1.059,0.378
	C382.075,769.392,381.905,769.751,381.829,770.216z M388.924,774.301c-0.633,0-1.101-0.212-1.402-0.635
	c-0.301-0.423-0.395-1.001-0.28-1.733l0.274-1.774c0.115-0.733,0.393-1.312,0.836-1.74c0.442-0.427,0.98-0.641,1.613-0.641
	c0.465,0,0.83,0.119,1.093,0.354c0.263,0.237,0.391,0.558,0.383,0.962h0.023l0.206-1.465l0.298-1.796h1.236l-1.327,8.354h-1.225
	l0.195-1.201h-0.023c-0.122,0.412-0.351,0.734-0.687,0.967C389.802,774.185,389.397,774.301,388.924,774.301z M389.531,773.226
	c0.389,0,0.715-0.119,0.978-0.355c0.263-0.236,0.429-0.572,0.498-1.007l0.252-1.648c0.076-0.427,0.019-0.761-0.172-1.001
	c-0.191-0.24-0.481-0.36-0.87-0.36c-0.397,0-0.725,0.118-0.984,0.355c-0.26,0.237-0.423,0.572-0.492,1.007l-0.252,1.648
	c-0.076,0.443-0.023,0.78,0.16,1.013C388.833,773.11,389.126,773.226,389.531,773.226z M401.017,774.301
	c-0.473,0-0.839-0.116-1.099-0.349c-0.26-0.233-0.385-0.555-0.377-0.967h-0.011l-0.195,1.201h-1.224l1.327-8.354h1.236l-0.286,1.796
	l-0.274,1.465h0.046c0.122-0.412,0.353-0.734,0.692-0.967c0.34-0.232,0.742-0.349,1.208-0.349c0.633,0,1.1,0.214,1.402,0.641
	c0.301,0.428,0.395,1.007,0.281,1.74l-0.275,1.774c-0.115,0.733-0.395,1.31-0.841,1.733
	C402.179,774.089,401.643,774.301,401.017,774.301z M400.766,773.226c0.397,0,0.723-0.116,0.978-0.349
	c0.255-0.233,0.422-0.571,0.498-1.013l0.252-1.648c0.069-0.435,0.011-0.771-0.171-1.007c-0.183-0.237-0.473-0.355-0.87-0.355
	c-0.389,0-0.715,0.12-0.978,0.36c-0.263,0.24-0.429,0.574-0.498,1.001l-0.252,1.648c-0.069,0.435-0.011,0.771,0.172,1.007
	C400.079,773.107,400.369,773.226,400.766,773.226z M405.469,776.247l0.172-1.064h1.934c0.641,0,1.007-0.302,1.099-0.905
	l0.103-0.675l0.206-1.19h-0.034c-0.122,0.42-0.347,0.744-0.675,0.973c-0.328,0.228-0.729,0.343-1.201,0.343
	c-0.626,0-1.093-0.201-1.402-0.601c-0.309-0.4-0.41-0.944-0.303-1.631l0.584-3.605h1.236l-0.561,3.479
	c-0.061,0.412,0,0.732,0.183,0.961c0.183,0.229,0.465,0.343,0.847,0.343c0.389,0,0.717-0.122,0.984-0.366
	c0.267-0.244,0.431-0.584,0.492-1.018l0.538-3.399h1.236l-1.007,6.409c-0.099,0.603-0.37,1.078-0.812,1.425
	c-0.443,0.347-1,0.521-1.671,0.521H405.469z M417.787,770.085h3.221l0.537-1.854h-5.466l-1.708,6.442h2.147l0.586-2.099h3.026
	l0.439-1.708h-3.026L417.787,770.085z M424.229,772.916c-0.586,0-1.025-0.39-1.025-1.122c0-0.878,0.634-1.757,1.61-1.757
	c0.488,0,0.878,0.244,1.025,0.781l1.952-0.83c-0.293-1.171-1.269-1.903-2.635-1.903c-2.782,0-4.148,2.147-4.148,3.904
	c0,1.757,1.269,2.831,3.075,2.831c1.366,0,2.343-0.586,2.977-1.415l-1.513-1.171C425.156,772.672,424.717,772.916,424.229,772.916z
	 M430.915,768.231h-2.147l-1.757,6.442h5.124l0.488-1.854h-2.928L430.915,768.231z M439.748,771.013
	c0-1.659-1.318-2.928-3.221-2.928c-2.196,0-3.807,1.806-3.807,3.807c0,1.659,1.318,2.928,3.221,2.928
	C438.138,774.819,439.748,773.013,439.748,771.013z M434.917,771.696c0-0.83,0.586-1.708,1.513-1.708
	c0.781,0,1.171,0.537,1.171,1.22c0,0.83-0.586,1.708-1.513,1.708C435.307,772.916,434.917,772.379,434.917,771.696z
	 M443.213,772.233h1.074l-0.195,0.683c-0.146,0.049-0.342,0.098-0.586,0.098c-0.683,0-1.269-0.39-1.269-1.22
	c0-1.025,0.732-1.903,1.952-1.903c0.586,0,1.122,0.244,1.513,0.586l1.366-1.367c-0.439-0.537-1.513-1.074-2.733-1.074
	c-2.587,0-4.295,1.757-4.295,3.855c0,2.05,1.61,2.879,3.221,2.879c0.927,0,1.854-0.293,2.489-0.683l0.927-3.319h-3.123
	L443.213,772.233z M450.777,768.084c-2.196,0-3.807,1.806-3.807,3.807c0,1.659,1.318,2.928,3.221,2.928
	c2.196,0,3.807-1.806,3.807-3.807C453.998,769.353,452.681,768.084,450.777,768.084z M450.338,772.916
	c-0.781,0-1.171-0.537-1.171-1.22c0-0.83,0.586-1.708,1.513-1.708c0.781,0,1.171,0.537,1.171,1.22
	C451.851,772.037,451.265,772.916,450.338,772.916z M437.942,767.499c-0.049,0.293,0.098,0.488,0.439,0.488s0.537-0.195,0.634-0.488
	c0.049-0.244-0.098-0.488-0.439-0.488C438.235,767.011,437.991,767.255,437.942,767.499z M432.135,765.498
	c-0.439,0-0.732,0.244-0.781,0.586c-0.049,0.342,0.098,0.586,0.537,0.586s0.732-0.244,0.781-0.586
	C432.769,765.742,432.574,765.498,432.135,765.498z M433.013,767.304c-0.098,0.537,0.146,0.878,0.83,0.878
	c0.634,0,1.074-0.39,1.171-0.878s-0.146-0.878-0.83-0.878C433.501,766.425,433.111,766.815,433.013,767.304z M439.602,777.552
	l-2.44-1.806h-1.513l4.246,3.172l1.61-3.172h-0.976L439.602,777.552z M425.839,767.157l-2.001-1.464l23.132-2.782l-2.147,4.246
	h1.025l2.684-5.319l-26.988,3.221l2.782,2.099H425.839z M338.719,785.785l0.609-3.832h2.32l-0.084,0.519H339.8l-0.184,1.144h1.627
	l-0.084,0.525h-1.617l-0.257,1.643H338.719z M342.97,785.838c-0.357,0-0.623-0.101-0.798-0.302
	c-0.175-0.201-0.234-0.473-0.178-0.816l0.268-1.701c0.056-0.343,0.203-0.615,0.441-0.816c0.238-0.201,0.536-0.302,0.892-0.302
	c0.357,0,0.623,0.1,0.798,0.299c0.175,0.199,0.236,0.471,0.184,0.814l-0.268,1.706c-0.056,0.343-0.204,0.615-0.444,0.816
	C343.625,785.737,343.327,785.838,342.97,785.838z M343.049,785.334c0.193,0,0.348-0.052,0.467-0.157
	c0.119-0.105,0.194-0.257,0.226-0.457l0.268-1.701c0.031-0.199,0.005-0.352-0.079-0.456c-0.084-0.105-0.222-0.157-0.415-0.157
	s-0.347,0.052-0.464,0.157c-0.117,0.105-0.192,0.257-0.223,0.456l-0.268,1.701c-0.031,0.2-0.005,0.352,0.079,0.457
	C342.723,785.281,342.86,785.334,343.049,785.334z M344.996,785.785l0.609-3.832h1.202c0.238,0,0.439,0.046,0.604,0.139
	c0.164,0.093,0.283,0.223,0.357,0.391c0.073,0.168,0.091,0.366,0.052,0.593c-0.038,0.259-0.14,0.484-0.304,0.675
	c-0.164,0.19-0.366,0.321-0.604,0.391l0.535,1.643h-0.619l-0.478-1.575h-0.541l-0.247,1.575H344.996z M345.888,783.707h0.635
	c0.189,0,0.349-0.056,0.48-0.168c0.131-0.112,0.211-0.262,0.239-0.451c0.032-0.193,0-0.345-0.094-0.459
	c-0.095-0.114-0.236-0.171-0.425-0.171h-0.635L345.888,783.707z M349.545,785.785l0.609-3.832h1.254c0.371,0,0.651,0.105,0.84,0.315
	c0.189,0.21,0.255,0.49,0.199,0.84c-0.038,0.234-0.122,0.438-0.249,0.611s-0.29,0.307-0.488,0.402
	c-0.198,0.095-0.419,0.142-0.664,0.142h-0.693l-0.241,1.522H349.545z M350.432,783.754h0.693c0.192,0,0.357-0.059,0.493-0.176
	c0.136-0.117,0.22-0.274,0.252-0.47c0.031-0.196-0.002-0.353-0.1-0.47c-0.098-0.117-0.245-0.176-0.441-0.176h-0.688L350.432,783.754
	z M352.747,785.785l0.609-3.832h2.252l-0.079,0.504h-1.695l-0.173,1.087h1.512l-0.079,0.499h-1.512l-0.194,1.239h1.69l-0.079,0.504
	H352.747z M355.843,785.785l0.609-3.832h1.202c0.238,0,0.439,0.046,0.604,0.139c0.164,0.093,0.284,0.223,0.357,0.391
	c0.073,0.168,0.091,0.366,0.052,0.593c-0.038,0.259-0.14,0.484-0.304,0.675c-0.164,0.19-0.366,0.321-0.604,0.391l0.535,1.643h-0.619
	l-0.478-1.575h-0.541l-0.247,1.575H355.843z M356.736,783.707h0.635c0.189,0,0.349-0.056,0.48-0.168
	c0.131-0.112,0.211-0.262,0.239-0.451c0.032-0.193,0-0.345-0.094-0.459c-0.095-0.114-0.236-0.171-0.425-0.171h-0.635
	L356.736,783.707z M360.132,785.838c-0.385,0-0.674-0.095-0.866-0.286c-0.192-0.191-0.264-0.451-0.215-0.779h0.567
	c-0.028,0.175,0.011,0.312,0.115,0.412c0.105,0.1,0.266,0.15,0.483,0.15c0.203,0,0.37-0.049,0.501-0.147
	c0.131-0.098,0.211-0.233,0.239-0.404c0.021-0.15,0.001-0.279-0.06-0.386c-0.061-0.107-0.158-0.181-0.291-0.223l-0.457-0.136
	c-0.266-0.08-0.462-0.217-0.588-0.409c-0.126-0.192-0.17-0.42-0.131-0.682c0.035-0.21,0.112-0.394,0.231-0.551
	c0.119-0.157,0.273-0.28,0.462-0.367c0.189-0.087,0.402-0.131,0.64-0.131c0.35,0,0.616,0.095,0.798,0.286
	c0.182,0.191,0.248,0.444,0.199,0.759h-0.567c0.028-0.168-0.003-0.3-0.092-0.396c-0.089-0.096-0.23-0.144-0.422-0.144
	c-0.189,0-0.343,0.045-0.462,0.134c-0.119,0.089-0.189,0.214-0.21,0.375c-0.025,0.151-0.007,0.279,0.053,0.386
	c0.06,0.107,0.158,0.181,0.294,0.223l0.467,0.147c0.262,0.081,0.456,0.217,0.58,0.409c0.124,0.193,0.165,0.422,0.123,0.688
	c-0.035,0.217-0.115,0.406-0.241,0.567c-0.126,0.161-0.288,0.286-0.486,0.375C360.598,785.793,360.376,785.838,360.132,785.838z
	 M363.265,785.838c-0.357,0-0.623-0.101-0.798-0.302c-0.175-0.201-0.234-0.473-0.178-0.816l0.268-1.701
	c0.056-0.343,0.203-0.615,0.441-0.816c0.238-0.201,0.535-0.302,0.892-0.302c0.357,0,0.623,0.1,0.798,0.299
	c0.175,0.199,0.236,0.471,0.184,0.814l-0.268,1.706c-0.056,0.343-0.204,0.615-0.444,0.816
	C363.92,785.737,363.622,785.838,363.265,785.838z M363.344,785.334c0.192,0,0.348-0.052,0.467-0.157
	c0.119-0.105,0.194-0.257,0.226-0.457l0.268-1.701c0.031-0.199,0.005-0.352-0.079-0.456c-0.084-0.105-0.222-0.157-0.415-0.157
	c-0.192,0-0.347,0.052-0.464,0.157c-0.117,0.105-0.192,0.257-0.223,0.456l-0.268,1.701c-0.031,0.2-0.005,0.352,0.079,0.457
	C363.019,785.281,363.155,785.334,363.344,785.334z M365.275,785.785l0.609-3.832h0.709l0.619,3.186
	c0.007-0.098,0.017-0.217,0.029-0.357c0.012-0.14,0.027-0.285,0.045-0.435c0.018-0.151,0.037-0.289,0.058-0.415l0.315-1.979h0.525
	l-0.609,3.832h-0.708l-0.614-3.186c-0.007,0.095-0.017,0.209-0.029,0.344s-0.027,0.276-0.045,0.423
	c-0.018,0.147-0.037,0.283-0.058,0.409l-0.315,2.01H365.275z M368.225,785.785l1.585-3.832h0.745l0.373,3.832h-0.562l-0.073-0.971
	h-1.087l-0.388,0.971H368.225z M369.385,784.342h0.871l-0.089-1.102c-0.017-0.196-0.03-0.365-0.037-0.509
	c-0.007-0.144-0.011-0.243-0.011-0.299c-0.017,0.056-0.052,0.156-0.102,0.299c-0.051,0.143-0.115,0.311-0.191,0.504L369.385,784.342
	z M371.721,785.785l0.609-3.832h0.567l-0.525,3.312h1.674l-0.079,0.52H371.721z M376.678,785.838c-0.367,0-0.634-0.101-0.8-0.302
	c-0.166-0.201-0.221-0.475-0.165-0.821l0.436-2.761h0.567l-0.436,2.755c-0.031,0.196-0.008,0.35,0.071,0.462
	c0.079,0.112,0.214,0.168,0.407,0.168c0.192,0,0.347-0.056,0.465-0.168c0.117-0.112,0.192-0.266,0.223-0.462l0.436-2.755h0.567
	l-0.436,2.761c-0.056,0.35-0.2,0.625-0.433,0.824C377.346,785.738,377.046,785.838,376.678,785.838z M379.843,785.838
	c-0.385,0-0.674-0.095-0.866-0.286c-0.192-0.191-0.264-0.451-0.215-0.779h0.567c-0.028,0.175,0.011,0.312,0.115,0.412
	c0.105,0.1,0.266,0.15,0.483,0.15c0.203,0,0.37-0.049,0.501-0.147c0.131-0.098,0.211-0.233,0.239-0.404
	c0.021-0.15,0.001-0.279-0.06-0.386c-0.061-0.107-0.158-0.181-0.291-0.223l-0.457-0.136c-0.266-0.08-0.462-0.217-0.588-0.409
	c-0.126-0.192-0.17-0.42-0.131-0.682c0.035-0.21,0.112-0.394,0.231-0.551s0.273-0.28,0.462-0.367
	c0.189-0.087,0.402-0.131,0.64-0.131c0.35,0,0.616,0.095,0.798,0.286c0.182,0.191,0.248,0.444,0.199,0.759h-0.567
	c0.028-0.168-0.003-0.3-0.092-0.396c-0.089-0.096-0.23-0.144-0.422-0.144c-0.189,0-0.343,0.045-0.462,0.134
	c-0.119,0.089-0.189,0.214-0.21,0.375c-0.024,0.151-0.007,0.279,0.053,0.386c0.06,0.107,0.157,0.181,0.294,0.223l0.467,0.147
	c0.262,0.081,0.456,0.217,0.58,0.409c0.124,0.193,0.165,0.422,0.123,0.688c-0.035,0.217-0.115,0.406-0.241,0.567
	c-0.126,0.161-0.288,0.286-0.486,0.375C380.31,785.793,380.088,785.838,379.843,785.838z M381.906,785.785l0.609-3.832h2.252
	l-0.079,0.504h-1.695l-0.173,1.087h1.512l-0.079,0.499h-1.512l-0.194,1.239h1.69l-0.079,0.504H381.906z M386.943,785.838
	c-0.357,0-0.623-0.101-0.798-0.302c-0.175-0.201-0.234-0.473-0.178-0.816l0.268-1.701c0.056-0.343,0.203-0.615,0.441-0.816
	c0.238-0.201,0.536-0.302,0.892-0.302c0.357,0,0.623,0.1,0.798,0.299c0.175,0.199,0.236,0.471,0.184,0.814l-0.268,1.706
	c-0.056,0.343-0.204,0.615-0.444,0.816C387.598,785.737,387.299,785.838,386.943,785.838z M387.021,785.334
	c0.193,0,0.348-0.052,0.467-0.157c0.119-0.105,0.194-0.257,0.226-0.457l0.268-1.701c0.031-0.199,0.005-0.352-0.079-0.456
	c-0.084-0.105-0.222-0.157-0.415-0.157c-0.193,0-0.347,0.052-0.464,0.157c-0.117,0.105-0.192,0.257-0.223,0.456l-0.268,1.701
	c-0.031,0.2-0.005,0.352,0.079,0.457C386.696,785.281,386.832,785.334,387.021,785.334z M388.953,785.785l0.609-3.832h0.709
	l0.619,3.186c0.007-0.098,0.017-0.217,0.029-0.357c0.012-0.14,0.027-0.285,0.045-0.435c0.018-0.151,0.037-0.289,0.058-0.415
	l0.315-1.979h0.525l-0.609,3.832h-0.708l-0.614-3.186c-0.007,0.095-0.017,0.209-0.029,0.344c-0.012,0.135-0.027,0.276-0.045,0.423
	c-0.018,0.147-0.037,0.283-0.058,0.409l-0.315,2.01H388.953z M392.249,785.785l0.609-3.832h0.567l-0.525,3.312h1.674l-0.079,0.52
	H392.249z M396.117,785.785l0.22-1.412l-0.751-2.42h0.577l0.446,1.449c0.028,0.095,0.05,0.184,0.066,0.268
	c0.016,0.084,0.025,0.147,0.029,0.189c0.017-0.042,0.046-0.105,0.087-0.189c0.04-0.084,0.088-0.173,0.144-0.268l0.898-1.449h0.598
	l-1.527,2.42l-0.22,1.412H396.117z M399.217,785.785l0.609-3.832h0.709l0.619,3.186c0.007-0.098,0.017-0.217,0.029-0.357
	c0.012-0.14,0.027-0.285,0.044-0.435c0.018-0.151,0.037-0.289,0.058-0.415l0.315-1.979h0.525l-0.609,3.832h-0.708l-0.614-3.186
	c-0.007,0.095-0.017,0.209-0.029,0.344c-0.012,0.135-0.027,0.276-0.045,0.423c-0.018,0.147-0.037,0.283-0.058,0.409l-0.315,2.01
	H399.217z M403.505,785.838c-0.357,0-0.623-0.101-0.798-0.302c-0.175-0.201-0.234-0.473-0.179-0.816l0.268-1.701
	c0.056-0.343,0.203-0.615,0.441-0.816c0.238-0.201,0.535-0.302,0.892-0.302c0.357,0,0.623,0.1,0.798,0.299
	c0.175,0.199,0.236,0.471,0.184,0.814l-0.268,1.706c-0.056,0.343-0.204,0.615-0.444,0.816
	C404.16,785.737,403.862,785.838,403.505,785.838z M403.584,785.334c0.193,0,0.348-0.052,0.467-0.157
	c0.119-0.105,0.194-0.257,0.226-0.457l0.268-1.701c0.032-0.199,0.005-0.352-0.079-0.456c-0.084-0.105-0.222-0.157-0.415-0.157
	c-0.193,0-0.347,0.052-0.465,0.157c-0.117,0.105-0.191,0.257-0.223,0.456l-0.268,1.701c-0.032,0.2-0.005,0.352,0.079,0.457
	C403.258,785.281,403.395,785.334,403.584,785.334z M406.381,785.785l0.525-3.312h-1.023l0.084-0.519h2.619l-0.084,0.519h-1.029
	l-0.525,3.312H406.381z M409.518,785.785l0.609-3.832h2.32l-0.084,0.519h-1.764l-0.184,1.144h1.627l-0.084,0.525h-1.617
	l-0.257,1.643H409.518z M413.769,785.838c-0.357,0-0.623-0.101-0.798-0.302c-0.175-0.201-0.234-0.473-0.179-0.816l0.268-1.701
	c0.056-0.343,0.203-0.615,0.441-0.816c0.238-0.201,0.535-0.302,0.892-0.302c0.357,0,0.623,0.1,0.798,0.299
	c0.175,0.199,0.236,0.471,0.184,0.814l-0.268,1.706c-0.056,0.343-0.204,0.615-0.444,0.816
	C414.425,785.737,414.126,785.838,413.769,785.838z M413.848,785.334c0.193,0,0.348-0.052,0.467-0.157
	c0.119-0.105,0.194-0.257,0.226-0.457l0.268-1.701c0.032-0.199,0.005-0.352-0.079-0.456c-0.084-0.105-0.222-0.157-0.415-0.157
	c-0.193,0-0.347,0.052-0.465,0.157c-0.117,0.105-0.191,0.257-0.223,0.456l-0.268,1.701c-0.032,0.2-0.005,0.352,0.079,0.457
	C413.522,785.281,413.659,785.334,413.848,785.334z M415.795,785.785l0.609-3.832h1.202c0.238,0,0.439,0.046,0.604,0.139
	c0.164,0.093,0.283,0.223,0.357,0.391c0.073,0.168,0.091,0.366,0.053,0.593c-0.039,0.259-0.14,0.484-0.304,0.675
	c-0.165,0.19-0.366,0.321-0.604,0.391l0.535,1.643h-0.619l-0.478-1.575h-0.541l-0.247,1.575H415.795z M416.688,783.707h0.635
	c0.189,0,0.349-0.056,0.48-0.168c0.131-0.112,0.211-0.262,0.239-0.451c0.032-0.193,0-0.345-0.095-0.459
	c-0.094-0.114-0.236-0.171-0.425-0.171h-0.635L416.688,783.707z M420.905,785.838c-0.36,0-0.631-0.101-0.811-0.302
	c-0.18-0.201-0.242-0.473-0.187-0.816l0.268-1.701c0.056-0.346,0.206-0.619,0.449-0.819s0.545-0.299,0.906-0.299
	c0.357,0,0.625,0.101,0.806,0.302c0.18,0.201,0.242,0.473,0.186,0.816h-0.567c0.031-0.199,0.003-0.352-0.087-0.456
	c-0.089-0.105-0.228-0.157-0.417-0.157c-0.193,0-0.351,0.052-0.475,0.157c-0.124,0.105-0.202,0.255-0.233,0.451l-0.268,1.706
	c-0.032,0.2-0.003,0.352,0.087,0.457c0.089,0.105,0.23,0.157,0.423,0.157c0.192,0,0.35-0.052,0.472-0.157
	c0.122-0.105,0.199-0.257,0.231-0.457h0.567c-0.035,0.228-0.114,0.425-0.239,0.593c-0.124,0.168-0.281,0.298-0.47,0.388
	C421.357,785.792,421.143,785.838,420.905,785.838z M424.033,785.838c-0.357,0-0.623-0.101-0.798-0.302
	c-0.175-0.201-0.234-0.473-0.179-0.816l0.268-1.701c0.056-0.343,0.203-0.615,0.441-0.816c0.238-0.201,0.535-0.302,0.892-0.302
	c0.357,0,0.623,0.1,0.798,0.299c0.175,0.199,0.236,0.471,0.184,0.814l-0.268,1.706c-0.056,0.343-0.204,0.615-0.444,0.816
	C424.689,785.737,424.39,785.838,424.033,785.838z M424.112,785.334c0.193,0,0.348-0.052,0.467-0.157
	c0.119-0.105,0.194-0.257,0.226-0.457l0.268-1.701c0.032-0.199,0.005-0.352-0.079-0.456c-0.084-0.105-0.222-0.157-0.415-0.157
	c-0.192,0-0.347,0.052-0.465,0.157c-0.117,0.105-0.191,0.257-0.223,0.456l-0.268,1.701c-0.032,0.2-0.005,0.352,0.079,0.457
	C423.787,785.281,423.923,785.334,424.112,785.334z M425.965,785.785l0.609-3.832h0.687l0.184,1.228
	c0.021,0.119,0.037,0.23,0.047,0.333c0.011,0.103,0.019,0.183,0.026,0.239c0.018-0.056,0.047-0.136,0.089-0.241
	c0.042-0.105,0.091-0.217,0.147-0.336l0.567-1.223h0.709l-0.609,3.832h-0.535l0.204-1.291c0.024-0.168,0.058-0.353,0.1-0.554
	c0.042-0.201,0.087-0.404,0.136-0.609c0.049-0.205,0.096-0.4,0.142-0.585c0.045-0.185,0.087-0.348,0.126-0.488l-0.855,1.863h-0.551
	l-0.283-1.863c-0.004,0.136-0.011,0.295-0.021,0.475c-0.011,0.18-0.024,0.372-0.039,0.575c-0.016,0.203-0.035,0.407-0.058,0.611
	c-0.023,0.205-0.048,0.396-0.076,0.575l-0.205,1.291H425.965z M429.115,785.785l0.609-3.832h0.687l0.184,1.228
	c0.021,0.119,0.037,0.23,0.047,0.333c0.011,0.103,0.019,0.183,0.026,0.239c0.018-0.056,0.047-0.136,0.089-0.241
	c0.042-0.105,0.091-0.217,0.147-0.336l0.567-1.223h0.709l-0.609,3.832h-0.535l0.204-1.291c0.025-0.168,0.058-0.353,0.1-0.554
	c0.042-0.201,0.087-0.404,0.136-0.609c0.049-0.205,0.096-0.4,0.142-0.585c0.045-0.185,0.087-0.348,0.126-0.488l-0.855,1.863h-0.551
	l-0.283-1.863c-0.004,0.136-0.011,0.295-0.021,0.475c-0.011,0.18-0.024,0.372-0.039,0.575c-0.016,0.203-0.035,0.407-0.058,0.611
	c-0.023,0.205-0.048,0.396-0.076,0.575l-0.205,1.291H429.115z M432.411,785.785l0.609-3.832h2.252l-0.079,0.504h-1.695l-0.173,1.087
	h1.512l-0.079,0.499h-1.512l-0.194,1.239h1.69l-0.079,0.504H432.411z M435.507,785.785l0.609-3.832h1.202
	c0.238,0,0.439,0.046,0.604,0.139c0.164,0.093,0.283,0.223,0.357,0.391c0.073,0.168,0.091,0.366,0.053,0.593
	c-0.039,0.259-0.14,0.484-0.304,0.675c-0.165,0.19-0.366,0.321-0.604,0.391l0.535,1.643h-0.619l-0.478-1.575h-0.541l-0.247,1.575
	H435.507z M436.4,783.707h0.635c0.189,0,0.349-0.056,0.48-0.168c0.131-0.112,0.211-0.262,0.239-0.451
	c0.032-0.193,0-0.345-0.095-0.459c-0.094-0.114-0.236-0.171-0.425-0.171h-0.635L436.4,783.707z M439.801,785.838
	c-0.36,0-0.631-0.101-0.811-0.302c-0.18-0.201-0.242-0.473-0.187-0.816l0.268-1.701c0.056-0.346,0.206-0.619,0.449-0.819
	s0.545-0.299,0.906-0.299c0.357,0,0.625,0.101,0.806,0.302c0.18,0.201,0.242,0.473,0.187,0.816h-0.567
	c0.031-0.199,0.003-0.352-0.087-0.456c-0.089-0.105-0.228-0.157-0.417-0.157c-0.193,0-0.351,0.052-0.475,0.157
	c-0.124,0.105-0.202,0.255-0.234,0.451l-0.268,1.706c-0.032,0.2-0.003,0.352,0.087,0.457c0.089,0.105,0.23,0.157,0.423,0.157
	s0.35-0.052,0.472-0.157c0.122-0.105,0.199-0.257,0.231-0.457h0.567c-0.035,0.228-0.114,0.425-0.239,0.593
	c-0.124,0.168-0.281,0.298-0.47,0.388C440.252,785.792,440.039,785.838,439.801,785.838z M441.879,785.785l0.079-0.504h0.777
	l0.446-2.824h-0.777l0.084-0.504h2.126l-0.084,0.504h-0.777l-0.446,2.824h0.777l-0.079,0.504H441.879z M444.74,785.785l1.585-3.832
	h0.745l0.373,3.832h-0.562l-0.073-0.971h-1.087l-0.388,0.971H444.74z M445.9,784.342h0.871l-0.089-1.102
	c-0.017-0.196-0.03-0.365-0.037-0.509c-0.007-0.144-0.01-0.243-0.01-0.299c-0.018,0.056-0.052,0.156-0.103,0.299
	c-0.051,0.143-0.115,0.311-0.192,0.504L445.9,784.342z M448.235,785.785l0.609-3.832h0.567l-0.525,3.312h1.674l-0.079,0.52H448.235z
	 M453.193,785.838c-0.368,0-0.634-0.101-0.8-0.302c-0.166-0.201-0.221-0.475-0.165-0.821l0.436-2.761h0.567l-0.436,2.755
	c-0.032,0.196-0.008,0.35,0.071,0.462c0.079,0.112,0.214,0.168,0.407,0.168c0.192,0,0.347-0.056,0.464-0.168
	c0.117-0.112,0.192-0.266,0.223-0.462l0.436-2.755h0.567l-0.436,2.761c-0.056,0.35-0.2,0.625-0.433,0.824
	C453.86,785.738,453.561,785.838,453.193,785.838z M456.358,785.838c-0.385,0-0.674-0.095-0.866-0.286
	c-0.193-0.191-0.264-0.451-0.215-0.779h0.567c-0.028,0.175,0.011,0.312,0.115,0.412c0.105,0.1,0.266,0.15,0.483,0.15
	c0.203,0,0.37-0.049,0.501-0.147s0.211-0.233,0.239-0.404c0.021-0.15,0.001-0.279-0.06-0.386c-0.061-0.107-0.158-0.181-0.291-0.223
	l-0.457-0.136c-0.266-0.08-0.462-0.217-0.588-0.409c-0.126-0.192-0.17-0.42-0.131-0.682c0.035-0.21,0.112-0.394,0.231-0.551
	c0.119-0.157,0.273-0.28,0.462-0.367c0.189-0.087,0.402-0.131,0.64-0.131c0.35,0,0.616,0.095,0.798,0.286
	c0.182,0.191,0.248,0.444,0.199,0.759h-0.567c0.028-0.168-0.003-0.3-0.092-0.396c-0.089-0.096-0.23-0.144-0.423-0.144
	c-0.189,0-0.343,0.045-0.462,0.134c-0.119,0.089-0.189,0.214-0.21,0.375c-0.025,0.151-0.007,0.279,0.052,0.386
	c0.06,0.107,0.157,0.181,0.294,0.223l0.467,0.147c0.262,0.081,0.456,0.217,0.58,0.409c0.124,0.193,0.165,0.422,0.124,0.688
	c-0.035,0.217-0.116,0.406-0.241,0.567c-0.126,0.161-0.288,0.286-0.486,0.375C456.824,785.793,456.603,785.838,456.358,785.838z
	 M458.421,785.785l0.609-3.832h2.252l-0.079,0.504h-1.695l-0.173,1.087h1.512l-0.079,0.499h-1.512l-0.194,1.239h1.69l-0.079,0.504
	H458.421z"/>
<g>
	<path style="fill:#FFFFFF;" d="M724.551,616.396c-28.472-13.581-56.757-27.067-85.604-37.464v-16.718
		c-6.135-2.154-12.363-4.027-18.732-5.76c20.943-58.208,31.469-119.651,31.095-181.511c0-80.266-16.624-156.785-48.047-221.362
		l-5.058-10.349c-0.567-0.475-1.219-0.841-1.92-1.077l-9.366,8.008c-16.835,15.174-38.549,23.813-61.206,24.351
		c-48.094,0-93.331-43.598-115.294-111.032l-2.248-6.837l0,0c-0.572-4.203-4.443-7.146-8.646-6.573
		c-3.419,0.466-6.108,3.154-6.573,6.573l0,0l-2.482,6.697c-22.384,67.856-66.451,110.002-114.966,110.002
		c-22.524-0.544-44.113-9.113-60.878-24.164l-9.366-7.961c-0.6,0.153-1.17,0.406-1.686,0.749l-5.198,10.63
		c-31.984,64.859-48.749,141.565-48.749,222.205c0,99.512,25.616,193.218,72.117,263.837c0.796,1.218,1.592,2.388,2.435,3.559
		c-22.329-1.607-44.361-6.061-65.561-13.253v16.578c-28.367-9.613-56.22-20.679-83.45-33.155l0,0
		c13.581,18.732,27.114,37.791,40.788,56.195c-13.065,7.633-26.178,14.892-39.29,22.15c41.444,18.17,82.56,35.824,124.707,43.832
		v-14.049c25.806,4.379,52.165,4.379,77.971,0c5.854-1.077,11.707-2.388,17.514-3.84c30.477,21.387,66.73,33.014,103.961,33.342
		c67.903,0,131.403-39.664,178.794-111.641c1.077-1.639,2.06-3.325,3.091-4.917c5.526,0.656,11.052,1.499,16.531,2.529v16.999
		c42.568,10.49,83.825,30.064,125.549,49.967c-14.611-21.307-29.128-42.568-43.786-63.547c14.564-7.774,29.222-15.22,43.832-22.619
		L724.551,616.396z"/>
	<g>
		<path style="fill:#26436C;" d="M645.128,377.192c0,97.405-24.96,189.144-70.244,258.264
			c-46.267,70.478-108.223,109.3-174.439,109.3s-128.219-38.821-174.486-109.3c-45.378-69.12-70.244-160.859-70.244-258.264
			c0-78.954,16.343-154.162,47.298-217.522l4.823-10.396c0.502-0.349,1.055-0.617,1.639-0.796l9.366,7.82
			c16.291,14.707,37.3,23.11,59.239,23.696c47.344,0,90.334-41.257,112.39-107.708l2.201-6.697l0,0
			c0.654-4.112,4.518-6.915,8.631-6.261c3.222,0.513,5.749,3.039,6.261,6.261l0,0l2.201,6.743
			c21.401,65.983,65.561,108.644,112.39,108.644c22.323-0.405,43.747-8.871,60.316-23.836l9.366-7.82
			c0.686,0.193,1.324,0.528,1.873,0.983l4.964,10.162c30.673,63.22,46.829,138.147,46.829,216.726"/>
		<g>
			<path style="fill:#FFF9CD;" d="M168.312,325.164c-1.639,17.046-2.529,34.466-2.529,52.215
				c0,197.292,104.991,357.261,234.521,357.261s234.521-159.969,234.521-357.261c0-17.748-0.937-35.169-2.576-52.215H168.312z"/>
			<g>
				<path style="fill:#78ABDA;" d="M358.392,325.164v403.763c27.725,7.713,57.041,7.616,84.714-0.281V325.164H358.392z"/>
				<path style="fill:#78ABDA;" d="M570.201,623.42V325.164h-84.668v384.937C517.846,690.855,546.693,661.024,570.201,623.42z"/>
				<path style="fill:#78ABDA;" d="M230.08,325.164v297.975c23.415,37.744,52.355,67.668,84.668,86.962V325.164H230.08z"/>
			</g>
		</g>
	</g>
	<g>
		<path style="fill:#26436C;" d="M555.216,500.587c0,85.348-69.189,154.537-154.537,154.537s-154.537-69.189-154.537-154.537
			S315.331,346.05,400.679,346.05S555.216,415.239,555.216,500.587"/>
		<path style="fill:#FFFFFF;" d="M528.523,500.587c0.026,70.555-57.149,127.771-127.704,127.797s-127.771-57.149-127.797-127.704
			c-0.026-70.555,57.149-127.771,127.704-127.797c0.016,0,0.031,0,0.047,0C471.309,372.883,528.497,430.051,528.523,500.587"/>
	</g>
	<g>
		<path style="fill:#9D9D9C;" d="M513.397,513.933h0.281l-1.499-0.702c1.069-0.506,1.989-1.28,2.669-2.248
			c1.307-1.793,1.997-3.962,1.967-6.182c0.014-1.523-0.322-3.03-0.983-4.402c-0.544-1.124-1.366-2.091-2.388-2.81
			c0.143-10.821-1.26-21.607-4.168-32.031c-5.653-22.502-18.494-42.544-36.574-57.085c-12.968-10.065-29.586-14.181-45.752-11.333
			c-3.521-1.6-7.171-2.901-10.911-3.887c-28.206-7.553-58.221,2.122-76.706,24.726c-11.175,4.965-20.86,12.762-28.098,22.619
			c-2.78-2.204-6.512-2.791-9.834-1.545c-2.829,1.611-4.579,4.612-4.589,7.867c-0.095,0.809-0.095,1.626,0,2.435
			c-2.829,0.217-5.345,1.882-6.65,4.402c-0.825,1.423-1.261,3.038-1.264,4.683c-0.079,2.445,1.2,4.734,3.325,5.947l0,0l1.124,0.843
			c-1.161,0.278-2.228,0.86-3.091,1.686c-2.138,2.038-3.341,4.867-3.325,7.82c-0.002,0.789,0.092,1.575,0.281,2.341
			c0.334,1.201,0.943,2.307,1.78,3.231c-2.168,10.578-2.845,21.406-2.014,32.172c1.132,23.168,9.797,45.333,24.679,63.126
			c10.757,12.405,26.247,19.699,42.662,20.09c3.158,2.224,6.477,4.212,9.928,5.947c26.199,12.878,57.513,9.214,80.031-9.366
			c17.654-3.888,33.026-14.659,42.708-29.924c4.282-7.014,7.22-14.763,8.663-22.853l1.92,0.515
			c3.526,2.316,8.057,2.443,11.707,0.328c2.478-2.109,3.684-5.354,3.184-8.57c-0.097-0.804-0.302-1.592-0.609-2.341
			c2.746-0.774,4.893-2.92,5.666-5.666C519.041,519.914,517.212,515.55,513.397,513.933z M419.13,446.546
			c0.715-1.046,1.514-2.033,2.388-2.95c0.281,0.89,0.515,1.826,0.702,2.716L419.13,446.546z M368.554,548.493l3.044,0.421
			c-0.895,0.867-1.866,1.651-2.903,2.341C368.601,550.367,368.601,549.43,368.554,548.493z"/>
		<path style="fill:#FFF9CD;" d="M356.706,554.862h1.592c2.424-0.165,4.801-0.752,7.024-1.733c0-1.733-0.375-3.465-0.468-5.198
			c-2.922-0.536-5.813-1.224-8.663-2.06c0,0.421,0,0.843,0,1.264c0,1.545,0,3.091,0.281,4.683c0,0.702,0,1.405,0,2.061
			C356.472,554.534,356.659,554.628,356.706,554.862z"/>
		<path style="fill:#FFF9CD;" d="M340.222,547.229L340.222,547.229c0-1.733,0-3.465,0-5.198v-1.499c0-0.515,0-1.03,0-1.499
			c-2.529-1.826-4.683-3.746-7.212-5.76c0,1.077-0.328,2.201-0.468,3.325c1.923,3.759,4.281,7.28,7.024,10.49L340.222,547.229z"/>
		<path style="fill:#FFF9CD;" d="M357.315,493.75c0.328-0.515,0.702-0.983,1.077-1.499c-0.75-0.2-1.485-0.451-2.201-0.749
			l-2.763-1.218c1.013,1.525,2.107,2.994,3.278,4.402L357.315,493.75z"/>
		<path style="fill:#FFF9CD;" d="M344.109,541.048c0,2.295-0.281,4.683-0.281,6.931c0,0.843,0,1.686,0,2.482
			c2.728,2.026,5.857,3.447,9.179,4.168c-0.321-2.563-0.477-5.144-0.468-7.727c0-0.656,0-1.311,0-1.967
			C349.619,543.891,346.798,542.59,344.109,541.048z"/>
		<path style="fill:#FFF9CD;" d="M359.422,497.356c1.582-0.03,3.154-0.25,4.683-0.656c1.641-0.487,3.215-1.18,4.683-2.06
			c-2.368-0.184-4.717-0.56-7.024-1.124c-0.562,0.796-1.171,1.545-1.733,2.388C359.469,496.747,359.75,496.887,359.422,497.356z"/>
		<path style="fill:#FFF9CD;" d="M383.446,592.092c1.264,0.281,2.529,0.562,3.793,0.749h0.328c6.203,1.012,12.529,1.012,18.732,0
			c-6.751-1.189-13.403-2.88-19.902-5.058c-2.145,1.232-4.366,2.327-6.65,3.278l2.341,0.656L383.446,592.092z"/>
		<path style="fill:#FFF9CD;" d="M416.32,594.199c-13.758,4.521-28.661,4.107-42.146-1.171c-4.384,1.371-8.908,2.251-13.487,2.622
			c1.639,0.983,3.325,1.92,5.058,2.763c22.577,11.063,49.335,9.279,70.244-4.683C429.468,594.592,422.874,594.749,416.32,594.199z"
			/>
		<path style="fill:#FFF9CD;" d="M366.213,538.191l-2.295-0.983c-7.728,0.65-15.509-0.225-22.9-2.576
			c0.937,0.702,1.826,1.499,2.857,2.154c9.386,5.145,19.8,8.137,30.486,8.757c0.246-0.374,0.465-0.765,0.656-1.171l-0.796-0.515
			C371.364,542.248,368.68,540.35,366.213,538.191z"/>
		<path style="fill:#FFF9CD;" d="M345.233,486.21l-3.465,0.937c2.554,4.567,6.814,7.936,11.848,9.366
			c-2.332-2.814-4.372-5.858-6.088-9.085L345.233,486.21z"/>
		<path style="fill:#FFF9CD;" d="M483.708,538.05c-1.385,6.604-3.854,12.934-7.305,18.732c-4.683,8.71-25.194,35.871-78.252,22.15
			h-0.281l0,0c-1.171,1.077-2.341,2.06-3.559,3.044c-1.218,0.983-2.435,1.826-3.653,2.716
			c63.126,19.481,88.976-16.905,93.425-24.585c4.053-6.668,6.817-14.039,8.148-21.729l-4.308-0.702
			C486.509,537.673,485.098,537.799,483.708,538.05z"/>
		<path style="fill:#FFF9CD;" d="M381.104,548.4c-0.902-0.703-1.84-1.359-2.81-1.967c-0.742,1.38-1.62,2.682-2.622,3.887
			c-4.344,4.841-10.414,7.784-16.905,8.195c-8.144,0.281-15.971-3.168-21.261-9.366c-5.613-6.608-9.791-14.31-12.269-22.619
			c-3.849-2.703-7.369-5.846-10.49-9.366c1.936,14.213,7.789,27.606,16.905,38.681c7.359,7.979,17.982,12.125,28.8,11.239
			c8.159-0.506,15.778-4.249,21.167-10.396c1.591-1.836,2.944-3.866,4.027-6.041c-1.358-0.702-2.763-1.358-4.074-2.154
			L381.104,548.4z"/>
		<path style="fill:#FFF9CD;" d="M406.907,568.349c-1.127,1.773-2.379,3.463-3.746,5.058l-1.171,1.545l-0.749,0.796l0,0
			c49.03,11.942,67.622-12.831,72.211-20.886c3.026-5.127,5.252-10.686,6.603-16.484c-3.488,0.797-6.868,2.008-10.068,3.606
			c-0.656,2.014-1.358,4.027-2.154,6.041c-3.564,7.68-9.598,13.945-17.14,17.795l-1.03,0.468c-0.937,0.468-1.873,0.983-2.903,1.405
			l-2.014,0.702c-0.749,0.281-1.499,0.609-2.295,0.843s-1.78,0.421-2.669,0.656l-2.154,0.515c-1.037,0.209-2.085,0.365-3.138,0.468
			c-0.656,0-1.311,0.234-2.06,0.281c-0.749,0.047-2.435,0-3.7,0s-1.264,0-1.967,0s-2.81,0-4.262-0.234c-0.609,0-1.218,0-1.826,0
			c-1.639,0-3.325-0.468-5.058-0.796l-1.499-0.234c-1.977-0.395-3.931-0.895-5.854-1.499L406.907,568.349z"/>
		<path style="fill:#FFF9CD;" d="M360.453,570.971c-11.959,0.95-23.688-3.663-31.797-12.503
			c-10.78-13.201-17.224-29.408-18.451-46.408c-3.554-5.073-6.303-10.665-8.148-16.578l0,0c-0.234,2.622-0.375,5.292-0.375,7.961
			c0,0.515,0,1.03,0,1.545c0,2.014,0,4.074,0,6.135v0.328c0.328,4.519,0.969,9.01,1.92,13.44
			c2.967,15.186,9.861,29.33,19.996,41.023c1.444,1.674,3.009,3.239,4.683,4.683c7.326,5.937,16.38,9.338,25.803,9.694
			c1.7,0.094,3.404,0.094,5.104,0c11.704-0.781,22.604-6.231,30.252-15.126c2.455-2.853,4.547-5.999,6.228-9.366
			c-2.529-0.89-5.011-1.873-7.399-2.95c-1.267,2.439-2.84,4.705-4.683,6.743C377.665,566.271,369.357,570.358,360.453,570.971z"/>
		<path style="fill:#FFF9CD;" d="M399.227,572.564c2.167-2.493,4.11-5.173,5.807-8.008l0.375-0.656
			c0.967-1.684,1.842-3.419,2.622-5.198c-2.86-0.553-5.69-1.257-8.476-2.107c-1.823,3.903-4.188,7.529-7.024,10.771
			c-17.31,19.975-47.536,22.136-67.511,4.826c-1.389-1.204-2.708-2.487-3.95-3.843c-13.631-15.863-21.648-35.78-22.806-56.664
			c-0.187-2.435-0.281-4.87-0.281-7.305c0.019-6.287,0.631-12.559,1.826-18.732c0,0,0-0.421,0-0.609
			c-2.364-0.592-4.657-1.44-6.837-2.529h-0.421c-1.465,7.134-2.202,14.399-2.201,21.682c0,2.716,0,5.479,0.281,8.242
			c1.112,22.337,9.462,43.705,23.789,60.878c11.476,13.232,28.579,20.191,46.033,18.732
			C375.465,591.004,389.432,583.987,399.227,572.564z"/>
		<path style="fill:#FFF9CD;" d="M464.273,546.901c0.281-0.796,0.609-1.592,0.89-2.341l-2.014,1.03l-7.68,3.934
			c-2.716,1.311-6.275,2.857-10.209,4.355c-5.783,3.386-12.359,5.179-19.06,5.198c-4.314,0.736-8.702,0.941-13.065,0.609
			c-0.478-0.12-0.963-0.214-1.452-0.281c-0.833,1.954-1.771,3.861-2.81,5.713C444.371,575.28,461.136,555.003,464.273,546.901z"/>
		<path style="fill:#FFF9CD;" d="M376.937,449.918c-1.949-0.117-3.904-0.117-5.854,0l1.311,0.562l4.683-0.375L376.937,449.918z"/>
		<path style="fill:#FFF9CD;" d="M304.585,452.634c1.311-3.106,2.877-6.098,4.683-8.944c-1.771-1.356-4.068-1.823-6.228-1.264
			c-1.622,1.018-2.638,2.77-2.716,4.683c-0.221,1.164,0.088,2.365,0.843,3.278C302.258,451.206,303.4,451.956,304.585,452.634z"/>
		<path style="fill:#FFF9CD;" d="M339.52,476.048c-0.26,2.273-0.101,4.574,0.468,6.79c0.081,0.306,0.191,0.604,0.328,0.89
			l0.89-0.234c0,0-0.328-0.234-0.375-0.421l-0.656-2.014C339.732,479.426,339.511,477.741,339.52,476.048z"/>
		<path style="fill:#FFF9CD;" d="M294.002,479.045h0.515c1.494,0.793,3.062,1.436,4.683,1.92c-0.185-3.736-0.044-7.481,0.421-11.192
			l-3.231-1.171c-1.299-0.544-2.799-0.248-3.793,0.749c-1.723,1.711-2.448,4.186-1.92,6.556
			C290.96,477.579,292.317,478.86,294.002,479.045z"/>
		<path style="fill:#FFF9CD;" d="M294.189,461.203L294.189,461.203c1.936,1.565,4.005,2.959,6.181,4.168
			c0.684-3.177,1.575-6.306,2.669-9.366c-1.383-0.725-2.7-1.571-3.934-2.529c-2.115-1.089-4.713-0.258-5.803,1.858
			c-0.034,0.067-0.067,0.134-0.098,0.203C292.55,457.129,292.129,459.939,294.189,461.203z"/>
		<path style="fill:#FFF9CD;" d="M434.865,446.359c0,0,0-0.328,0-0.515c-0.562-2.729-1.298-5.419-2.201-8.055l-1.545,0.281
			c-2.343,0.655-4.56,1.7-6.556,3.091c0.562,1.639,1.03,3.325,1.452,5.011c2.903,0,5.901,0,8.944,0.281L434.865,446.359z"/>
		<path style="fill:#FFF9CD;" d="M410.888,507.284c-1.122,1.999-2.374,3.923-3.746,5.76c2.423,0.99,4.931,1.758,7.493,2.295
			c5.084-5.611,9.341-11.918,12.644-18.732c0.843-1.639,1.639-3.372,2.341-5.104c0.328-0.749,0.562-1.499,0.843-2.201
			c-2.716-0.68-5.492-1.088-8.289-1.218l0,0c-2.673,6.431-6.287,12.428-10.724,17.795
			C411.325,506.369,411.136,506.842,410.888,507.284z"/>
		<path style="fill:#FFF9CD;" d="M459.45,451.088c-2.633-3.297-5.634-6.282-8.944-8.898l0,0c0.531,2.71,0.922,5.445,1.171,8.195
			c2.857,1.311,5.573,2.716,8.195,4.215C459.59,453.336,459.544,452.212,459.45,451.088z"/>
		<path style="fill:#FFF9CD;" d="M450.271,502.413c-1.801-2.068-3.775-3.98-5.9-5.713l-0.421,1.03
			c-0.796,1.92-1.686,3.84-2.622,5.713c-0.937,1.873-1.78,3.512-2.763,5.198l0,0c-0.843,1.499-1.733,2.95-2.669,4.402
			c4.048-1.479,7.991-3.231,11.801-5.245C448.586,506.113,449.428,504.286,450.271,502.413z"/>
		<path style="fill:#FFF9CD;" d="M445.916,439.521c-2.948-1.327-6.134-2.043-9.366-2.107c0.967,3.066,1.718,6.195,2.248,9.366
			c3.051,0.405,6.059,1.079,8.991,2.014C447.336,445.671,446.71,442.576,445.916,439.521z"/>
		<path style="fill:#FFF9CD;" d="M441.28,494.593c-2.172-1.488-4.477-2.773-6.884-3.84h-0.468c-0.328,0.843-0.562,1.686-0.937,2.529
			c-3.446,8.284-8.188,15.966-14.049,22.759c3.825,0.159,7.653-0.203,11.38-1.077c4.046-5.797,7.483-11.995,10.256-18.498
			C440.859,495.763,441.046,495.155,441.28,494.593z"/>
		<path style="fill:#FFF9CD;" d="M400.913,406.6c-0.656,0-1.311,0-1.967,0h-4.261c-1.264,0-2.482,0-3.7,0.281h-0.515
			c-4.942,0.528-9.792,1.709-14.423,3.512c7.057-0.173,14.117,0.187,21.12,1.077c1.877-1.69,3.864-3.255,5.947-4.683L400.913,406.6z
			"/>
		<path style="fill:#FFF9CD;" d="M407.844,403.791c4.033-2.215,8.307-3.959,12.738-5.198c-1.826-0.656-3.653-1.218-5.526-1.733
			c-24.232-6.462-50.073,0.439-67.856,18.123c6.086-2.002,12.364-3.368,18.732-4.074
			C378.613,403.632,393.471,401.109,407.844,403.791z"/>
		<path style="fill:#FFF9CD;" d="M416.273,459.471c9.43-1.301,19.032-0.469,28.098,2.435l0,0c1.967,0.796,3.793,1.686,5.573,2.576
			l1.03,0.562c1.733,0.89,3.325,1.826,4.683,2.81l0.749,0.515c1.499,0.983,2.903,1.967,4.262,2.997l0.281,0.234
			c1.452,1.124,2.81,2.295,4.121,3.465l0.375,0.328c2.785,2.543,5.368,5.299,7.727,8.242c-0.412-2.602-0.959-5.181-1.639-7.727
			c-1.105-3.986-2.546-7.871-4.308-11.614c-5.807-4.579-12.182-8.388-18.966-11.333c-10.216-3.19-21.013-4.07-31.61-2.576
			C415.725,453.328,415.596,456.462,416.273,459.471z"/>
		<path style="fill:#FFF9CD;" d="M364.433,450.714c-4.055,0.874-7.924,2.459-11.426,4.683l0,0c3.353,2.284,6.97,4.155,10.771,5.573
			l2.435,1.03c3.438,1.294,7.055,2.052,10.724,2.248c-0.362-2.638-0.535-5.298-0.515-7.961c0-0.328,0-0.656,0-0.983
			c-1.862-0.335-3.684-0.869-5.432-1.592C368.32,452.727,366.213,451.603,364.433,450.714z"/>
		<path style="fill:#FFF9CD;" d="M376.421,487.147c0.996-1.75,1.707-3.647,2.107-5.62c-4.453,0.05-8.893-0.486-13.206-1.592
			l-2.857-0.796l-1.873-0.656l-0.89-0.328c-5.78-2.267-11.169-5.428-15.969-9.366c-0.115,0.337-0.209,0.681-0.281,1.03
			c-0.331,1.903-0.519,3.829-0.562,5.76c-0.033,1.583,0.172,3.161,0.609,4.683c0,0,0,0.609,0.375,1.124
			c4.324,2.728,8.866,5.094,13.581,7.071c5.028,2.024,10.409,3.027,15.828,2.95C374.509,490.129,375.564,488.697,376.421,487.147z"
			/>
		<path style="fill:#FFF9CD;" d="M456.031,503.584c2.903-1.499,5.854-2.95,8.898-4.215c-6.475-9.572-15.606-17.043-26.271-21.495
			l-1.686-0.515l-2.81-0.843h-0.281c-4.435-1.015-8.994-1.377-13.534-1.077c-0.499-0.025-0.999-0.025-1.499,0
			c0.101,3.048-0.008,6.099-0.328,9.132c5.913-0.243,11.817,0.68,17.374,2.716C443.931,490.842,450.88,496.465,456.031,503.584z"/>
		<path style="fill:#FFF9CD;" d="M379.231,477.36c-0.003-1.725-0.239-3.442-0.702-5.104c-0.375-1.405-0.702-2.81-0.983-4.215
			c-4.382-0.119-8.709-1.007-12.784-2.622l-2.388-1.03c-4.342-1.601-8.428-3.825-12.129-6.603c-2.01,2.104-3.685,4.505-4.964,7.118
			c6.026,5.437,13.244,9.383,21.073,11.52c4.193,1.062,8.507,1.566,12.831,1.499C379.184,477.922,379.231,477.547,379.231,477.36z"
			/>
		<path style="fill:#FFF9CD;" d="M474.435,495.904c0-1.639,0-3.325,0-5.011c-7.525-11.478-18.349-20.409-31.048-25.616
			c-8.518-2.67-17.522-3.421-26.365-2.201c0.745,2.89,1.262,5.833,1.545,8.804c7.24-0.714,14.548,0.182,21.401,2.622
			c11.48,4.847,21.26,12.997,28.098,23.415C470.08,497.215,472.375,496.513,474.435,495.904z"/>
		<path style="fill:#FFF9CD;" d="M304.866,492.485c7.05,30.224,37.267,49.011,67.491,41.961s49.011-37.267,41.961-67.491
			c-0.349-1.496-0.759-2.978-1.23-4.44c-3.177-12.268,4.194-24.789,16.462-27.965c0.178-0.046,0.357-0.09,0.537-0.132
			c7.875-1.945,16.206-0.224,22.665,4.683c11.228,9.097,19.211,21.582,22.759,35.59c1.718,6.272,2.599,12.744,2.622,19.247
			c0,0.281,0,0.562,0,0.843c2.761-0.576,5.564-0.921,8.382-1.03c-0.023-0.327-0.023-0.656,0-0.983c0.047-0.842,0.047-1.686,0-2.529
			c0-1.218,0-2.435-0.328-3.606c-0.032-0.784-0.11-1.566-0.234-2.341c-0.15-1.353-0.369-2.697-0.656-4.027l-0.281-1.873
			c-0.421-1.967-0.89-3.934-1.405-5.854c-4.19-16.151-13.387-30.561-26.271-41.163c-2.008-1.573-4.212-2.88-6.556-3.887
			c-7.572-3.146-15.977-3.673-23.883-1.499c-13.292,3.398-22.634,15.315-22.759,29.034c-0.036,2.15,0.136,4.299,0.515,6.416
			c0.187,1.061,0.421,2.139,0.702,3.231c3.379,12.282,1.692,25.405-4.683,36.433c-1.139,1.94-2.407,3.801-3.793,5.573
			c-6.285,8.227-15.107,14.153-25.101,16.859c-12.269,3.334-25.361,1.649-36.386-4.683c-3.9-2.215-7.463-4.974-10.583-8.195
			l-0.281-0.281c-1.702-1.701-3.268-3.533-4.683-5.479c-3.229-4.548-5.652-9.617-7.165-14.985l0,0
			c-0.438-1.634-0.782-3.291-1.03-4.964v-1.171c-0.204-1.694-0.313-3.398-0.328-5.104v-0.281c-0.023-0.343-0.023-0.687,0-1.03
			c0-0.983,0-1.967,0-2.903s0-1.124,0-1.639c0-0.515,0-1.873,0.375-2.857l0.281-1.686c0-0.983,0.421-2.014,0.702-3.044
			c0.281-1.03,0-1.03,0.375-1.592c0.375-1.405,0.796-2.857,1.264-4.355c0.02-0.108,0.02-0.22,0-0.328
			c3.184-9.366,17.702-40.18,72.445-37.089c1.903-2.705,4.034-5.243,6.369-7.586c-65.561-6.743-83.871,33.998-86.868,42.427
			C302.081,468.195,301.589,480.705,304.866,492.485z"/>
		<path style="fill:#FFF9CD;" d="M425.733,422.71c11.556-3.263,23.97-1.036,33.67,6.041c13.493,11.077,23.132,26.143,27.536,43.036
			c1.988,7.284,3.058,14.788,3.184,22.338c0.827-0.045,1.655-0.045,2.482,0l5.76,0.515v-0.421c0-1.405,0-2.81,0-4.215v-2.107
			c0-1.405,0-2.763-0.421-4.168c-0.421-1.405,0-1.358,0-2.06c-0.234-1.452-0.468-2.95-0.749-4.683c0-0.562-0.234-1.124-0.328-1.686
			c-0.421-2.061-0.89-4.074-1.452-6.088c-5.046-19.473-16.349-36.749-32.172-49.171c-3.565-2.62-7.515-4.674-11.707-6.088
			c-23.146-7.928-48.337,4.409-56.265,27.555c-1.42,4.146-2.217,8.479-2.365,12.859c0,1.452,0,2.903,0,4.355
			c0.179,2.996,0.682,5.963,1.499,8.851c0.891,3.295,1.302,6.702,1.218,10.115c-0.13,4.555-1.149,9.041-2.997,13.206
			c-0.468,1.077-1.03,2.107-1.592,3.138c-4.805,8.446-12.804,14.605-22.197,17.093c-3.458,0.972-7.038,1.445-10.63,1.405
			c-5.879-0.125-11.63-1.736-16.718-4.683c-7.972-4.509-13.795-12.036-16.156-20.886c-0.717-2.61-1.095-5.301-1.124-8.008
			c0.019-4.511,0.458-9.01,1.311-13.44c0.265-1.442,0.673-2.854,1.218-4.215c-0.026-0.108-0.026-0.22,0-0.328
			c0.261-0.755,0.574-1.49,0.937-2.201c0-0.421,0.421-0.843,0.656-1.264l0.749-1.452c6.462-11.099,21.729-24.96,51.934-22.197
			c1.174-2.973,2.6-5.84,4.261-8.57c-50.435-2.061-63.828,25.85-66.732,34.607c-3.511,9.241-4.164,19.324-1.873,28.94
			c4.353,15.675,16.93,27.713,32.781,31.376c1.405,0.328,2.81,0.562,4.215,0.749c24.203,3.208,46.424-13.812,49.632-38.015
			c0.779-5.879,0.368-11.854-1.21-17.571c-1.59-5.694-1.767-11.69-0.515-17.467C404.396,435.711,413.669,426.043,425.733,422.71z"/>
		<path style="fill:#FFF9CD;" d="M383.212,438.07l-0.421,1.264c-1.793,5.538-2.725,11.319-2.763,17.14
			c0.005,5.001,0.682,9.978,2.014,14.798c0.556,1.982,0.839,4.03,0.843,6.088c-0.08,10.689-7.253,20.023-17.561,22.853
			c-12.461,3.457-25.365-3.841-28.823-16.302c-0.008-0.029-0.016-0.059-0.024-0.088c-0.864-3.918-0.864-7.977,0-11.895
			c1.358-8.944,13.534-27.442,40.976-25.662c0.521-2.725,1.209-5.415,2.061-8.055l0,0c-36.761-2.95-49.265,20.137-50.716,28.66
			c-0.775,3.92-1.213,7.9-1.311,11.895c-0.033,2.689,0.314,5.369,1.03,7.961c2.097,7.927,7.295,14.678,14.423,18.732
			c7.502,4.195,16.369,5.224,24.632,2.857c8.445-2.283,15.628-7.847,19.949-15.454c0.515-0.897,0.984-1.819,1.405-2.763
			c2.965-6.575,3.544-13.977,1.639-20.933c-6.997-25.543,8.038-51.921,33.581-58.918c8.69-2.38,17.874-2.264,26.501,0.335
			c5.159,1.553,10.009,3.993,14.33,7.212c16.344,12.854,28.009,30.723,33.202,50.857c2.393,8.617,3.622,17.516,3.653,26.459
			c2.469,0.109,4.918,0.486,7.305,1.124h0.515c-0.02-10.047-1.374-20.047-4.027-29.737c-5.472-21.746-17.864-41.123-35.309-55.212
			c-13.87-10.7-31.998-14.176-48.843-9.366C403.559,406.961,389.261,420.472,383.212,438.07z"/>
		<path style="fill:#FFF9CD;" d="M507.544,529.293L507.544,529.293c-3.35-1.553-6.92-2.579-10.583-3.044l-3.419-0.468l-2.669-0.328
			c-10.49-1.499-26.505,4.683-34.701,9.647c-1.686,0.937-4.683,2.529-8.429,4.261c-10.088,4.935-21.228,7.33-32.453,6.978
			c-1.545,0-3.044-0.421-4.683-0.702c-1.639-0.281-2.716-0.562-4.074-0.89h-0.281c-8.757-2.173-17.011-6.021-24.304-11.333
			c-2.261,1-4.593,1.83-6.978,2.482c-1.499,0.421-3.138,0.656-4.683,0.983c1.452,1.03,3.98,2.669,5.947,3.981
			c2.468,1.436,4.859,2.999,7.165,4.683c9.287,5.401,19.554,8.902,30.205,10.302c14.517,1.358,31.516-5.526,40.32-9.787l7.586-3.887
			c9.366-4.683,17.28-9.085,26.786-7.727c3.585,0.4,7.127,1.121,10.583,2.154c3.746,1.733,6.603,1.967,8.289,0.749
			c1.425-1.325,2.078-3.283,1.733-5.198C508.852,531.054,508.363,530.024,507.544,529.293z"/>
		<path style="fill:#FFF9CD;" d="M508.433,499.744c-2.915-0.711-5.898-1.103-8.898-1.171l-7.446-0.656
			c-13.346-1.873-27.161,4.683-39.103,11.286c-10.864,5.9-22.572,11.52-35.965,10.256c-4.091-0.596-8.088-1.713-11.895-3.325
			c-2.155,2.638-4.537,5.083-7.118,7.305c5.895,2.938,12.217,4.93,18.732,5.9c12.644,1.171,24.164-4.215,35.871-10.349
			c7.833-4.593,16.309-7.986,25.147-10.068c2.917-0.568,5.879-0.865,8.851-0.89c5.062-0.131,10.122,0.325,15.079,1.358l6.603,1.03
			c1.381,0.269,2.787-0.323,3.559-1.499c1.361-2.024,1.591-4.604,0.609-6.837c-0.64-1.407-2.061-2.292-3.606-2.248L508.433,499.744z
			"/>
		<path style="fill:#FFF9CD;" d="M512.227,517.165h-0.234c-7.823-3.876-16.466-5.803-25.194-5.62
			c-11.707,0-20.464,4.308-32.406,10.583c-11.941,6.275-24.258,11.988-37.979,10.724c-7.528-1.044-14.817-3.389-21.542-6.931
			c-2.83,2.126-5.856,3.976-9.038,5.526c8.871,6.028,19.047,9.864,29.69,11.192c12.55,1.171,28.098-4.683,38.681-10.818
			c7.446-4.261,24.773-11.801,37.042-10.068l2.622,0.328c5.122,0.413,10.14,1.679,14.845,3.746c2.228,0.674,4.58-0.586,5.254-2.814
			c0.032-0.107,0.06-0.215,0.084-0.324C514.615,521.051,514.615,518.195,512.227,517.165z"/>
	</g>
	<g>
		<path style="fill:#ECA935;" d="M400.351,450.48c-27.337,0-49.499,22.161-49.499,49.499c0,27.337,22.161,49.499,49.499,49.499
			c27.337,0,49.499-22.161,49.499-49.499v0C449.824,472.651,427.678,450.505,400.351,450.48"/>
		<path style="fill:#FDDD3A;" d="M419.364,520.677l-4.215,19.153c-4.738,1.752-9.747,2.656-14.798,2.669
			c-4.79-0.023-9.541-0.862-14.049-2.482l-4.355-19.2l-19.575-1.78c-2.496-4.885-3.992-10.218-4.402-15.688l15.5-11.239
			l-6.135-18.732c4.505-5.534,10.314-9.863,16.905-12.597l15.641,11.38l15.922-11.567c6.593,2.601,12.435,6.801,16.999,12.222l0,0
			l-6.228,19.2l16.203,11.754c-0.464,5.294-1.91,10.454-4.261,15.22L419.364,520.677z"/>
		<polygon style="fill:#ECA935;" points="389.815,515.76 383.586,496.56 399.93,484.665 416.273,496.56 410.045,515.76 		"/>
	</g>
	<g>
		<g>
			<path style="fill:#D0AE39;" d="M633.421,638.921c-37.462-13.501-77.693-17.476-117.073-11.567
				c-39.711,6.743-78.346,24.351-117.073,42.615c-38.728,18.263-77.503,36.199-117.073,43.458
				c-39.241,6.535-79.494,3.122-117.073-9.928V633.91c37.571,13.089,77.83,16.519,117.073,9.975
				c39.711-7.259,78.299-25.194,117.073-43.504c38.775-18.31,77.503-35.824,117.073-42.568c39.375-5.948,79.612-1.988,117.073,11.52
				V638.921z"/>
			<path style="fill:#D0AE39;" d="M708.91,621.126c-23.742-11.192-47.251-22.244-71.321-30.814v54.884
				c-10.326-3.696-20.847-6.823-31.516-9.366v14.751c34.841,8.476,68.652,24.258,102.79,40.273
				c-11.942-17.186-23.836-34.326-35.871-51.231c11.942-6.275,23.93-12.269,35.918-18.217V621.126z"/>
			<path style="fill:#D0AE39;" d="M159.789,706.73v-54.837c-24.428-8.995-48.375-19.249-71.743-30.72l0,0
				c11.458,16.983,22.946,33.858,34.466,50.622c-11.426,6.509-22.9,12.738-34.373,18.732
				c35.637,16.765,70.946,32.781,107.286,40.788v-14.751c-12.077-2.651-23.978-6.045-35.637-10.162"/>
		</g>
		<g>
			<path d="M279.953,687.858c-0.234,7.352,0,7.727,4.168,7.305v2.669l-17.374,3.559v-2.669c3.606-1.124,4.074-1.686,4.308-9.085
				l0.656-22.431c0-7.352,0-7.727-4.074-7.352v-2.669l17.374-3.559v2.669c-3.7,1.171-4.168,1.733-4.402,9.085l-0.281,10.63
				c4.215-6.416,7.774-12.176,11.145-18.029c0.843-1.358,1.452-2.857,0-2.763h-2.154v-2.669l14.939-3.044v2.622
				c-3.298,0.849-6.136,2.949-7.914,5.854c-3.091,4.168-5.994,8.195-8.429,11.988c3.278,5.76,6.743,11.286,10.068,16.297
				c2.857,4.261,3.84,4.683,6.135,4.683v2.669l-12.784,2.622c-2.014-3.887-6.978-12.831-10.864-19.387l0,0L279.953,687.858z"/>
			<path d="M333.713,679.616l1.967-0.983c2.435-1.218,2.576-1.92,1.733-3.98l-2.388-5.901l-10.864,3.934l-1.967,7.071
				c-0.843,3.184-0.843,3.84,2.201,3.044l1.92-0.468v2.576l-15.454,5.526v-2.576c3.372-1.686,4.402-2.295,6.556-8.663l13.253-39.009
				l4.683-2.576l4.683,10.864c2.857,6.837,5.713,13.627,8.242,19.481c2.107,4.964,3.278,4.683,6.556,4.121v2.576l-20.792,7.493
				L333.713,679.616z M325.284,668.33l8.476-3.091l-4.168-11.145l0,0L325.284,668.33z"/>
			<path d="M393.327,630.164c-0.339-4.591-4.336-8.038-8.927-7.698c-0.977,0.072-1.934,0.316-2.827,0.721
				c-7.024,2.06-12.878,10.771-12.878,22.103c0,10.256,4.402,18.732,13.534,15.781c1.639-0.468,2.716-1.311,2.716-4.449V650.3
				c0-4.683-0.281-4.683-7.212-3.278v-2.997l22.103-6.603v2.997c-3.372,1.592-3.653,1.873-3.653,6.509v4.683
				c-0.069,1.974,0.056,3.951,0.375,5.9c-4.697,2.925-9.708,5.313-14.939,7.118c-15.828,4.683-25.194-1.03-25.194-14.517
				c0-15.126,12.035-26.552,26.131-30.767c4.118-1.187,8.362-1.879,12.644-2.061c0,2.201,0.515,5.526,1.03,11.707L393.327,630.164z"
				/>
			<path d="M423.251,642.808l1.967-1.03c2.482-1.264,2.622-1.967,1.733-4.027l-2.388-5.807l-10.818,4.215l-2.014,7.118
				c-0.843,3.184-0.843,3.84,2.201,2.997l1.92-0.562v2.576l-15.407,5.994v-2.576c3.372-1.78,4.355-2.435,6.509-8.804l13.253-39.384
				l4.683-2.716l4.683,10.771c2.857,6.743,5.666,13.44,8.195,19.247c2.107,4.683,3.325,4.683,6.556,3.934v2.576l-21.073,8.102
				V642.808z M414.868,631.756l8.429-3.325l-4.168-11.005l0,0L414.868,631.756z"/>
			<path d="M456.406,590.452l-2.107,1.124c-2.435,1.264-2.622,1.826-1.826,4.215l6.275,19.762l0,0l8.663-31.563l4.683-1.826
				l10.068,24.258l0,0c2.341-8.663,4.683-18.732,5.713-23.134s0.656-4.683-2.201-3.981l-2.482,0.702v-2.576l15.781-6.182v2.576
				c-3.699,1.967-4.308,2.388-6.556,9.132c-0.328,0.983-5.385,18.17-10.724,38.494l-5.058,2.014l-9.741-23.04l0,0l-8.851,30.345
				l-5.104,1.967l-10.958-30.392c-1.78-4.683-2.997-4.683-6.041-3.793v-2.576l20.652-8.102L456.406,590.452z"/>
			<path d="M517.893,612.181l2.014-0.468c2.435-0.562,2.576-1.218,1.686-3.512l-2.341-6.509l-10.864,1.077l-2.014,6.228
				c-0.843,2.997-0.843,3.653,2.201,3.419h1.92v2.576l-15.407,2.763v-2.576c3.372-1.077,4.355-1.499,6.556-7.446l13.206-35.59
				l4.683-1.405l4.683,12.082c2.857,7.586,5.666,15.079,8.195,21.588c2.107,5.526,3.325,5.76,6.556,5.854v2.576l-20.792,2.06
				L517.893,612.181z M509.511,598.694l8.476-0.89l-4.168-12.176l0,0L509.511,598.694z"/>
		</g>
	</g>
	<g>
		<path style="fill:#FFFFFF;" d="M426.061,219.704L426.061,219.704c-2.576-4.683-11.38-4.683-20.09,0
			c-8.71,4.683-13.44,11.801-10.818,16.484c2.622,4.683,11.426,4.683,20.09,0c5.055-2.354,9.048-6.513,11.192-11.661
			c0.613-1.704,0.495-3.585-0.328-5.198 M414.541,234.877c-1.504,0.809-3.07,1.498-4.683,2.061l-3.138-2.482l-6.743,3.184
			c-1.1-0.262-2.096-0.849-2.857-1.686l4.121-4.449l-3.84-2.201c1.287-1.92,2.867-3.627,4.683-5.058l5.994-0.749l3.98-4.683
			c2.089-0.778,4.283-1.236,6.509-1.358v4.683l6.79-0.843c0.068,0.419,0.068,0.846,0,1.264c-0.008,0.65-0.102,1.295-0.281,1.92
			l-6.322,3.84l0.421,3.934c-1.457,1.166-3.026,2.185-4.683,3.044"/>
		<path style="fill:#ECA935;" d="M271.055,215.864c2.95,2.154,1.967,6.322-2.154,9.366c-3.634,2.995-8.673,3.615-12.925,1.592
			c-2.95-2.154-2.014-6.369,2.154-9.366c3.648-2.968,8.68-3.57,12.925-1.545"/>
		<path style="fill:#FFFFFF;" d="M542.01,253.187c-1.921-2.089-4.716-3.148-7.539-2.857c-1.961-0.011-3.919,0.146-5.854,0.468
			c-1.9,0.277-3.757,0.797-5.526,1.545l-1.499,5.76c1.371-0.703,2.816-1.253,4.308-1.639c1.431-0.31,2.891-0.467,4.355-0.468
			c1.14-0.122,2.265,0.335,2.997,1.218c0.574,0.961,0.694,2.127,0.328,3.184l-0.749,2.81c-0.39-0.654-0.981-1.163-1.686-1.452
			c-0.964-0.397-2.001-0.589-3.044-0.562c-3.544-0.144-7.005,1.099-9.647,3.465c-2.845,3.018-4.805,6.76-5.666,10.818
			c-1.249,3.353-1.249,7.043,0,10.396c1.169,2.473,3.733,3.978,6.462,3.793c1.466,0.027,2.929-0.13,4.355-0.468
			c1.134-0.263,2.203-0.757,3.138-1.452l0.515,1.592l8.898-2.997l6.697-25.101c1.038-2.669,0.706-5.677-0.89-8.055 M527.446,283.018
			c-0.495,0.409-1.069,0.712-1.686,0.89c-0.689,0.256-1.419,0.383-2.154,0.375c-1.311,0-2.061-0.515-2.248-1.592
			c-0.057-2.436,0.324-4.863,1.124-7.165c0.534-2.388,1.468-4.668,2.763-6.743c0.747-1.201,2.051-1.942,3.465-1.967
			c0.651-0.058,1.301,0.126,1.826,0.515c0.438,0.376,0.694,0.921,0.702,1.499L527.446,283.018z M593.007,254.218
			c-1.354-2.804-4.363-4.412-7.446-3.98c-4.319-0.067-8.454,1.744-11.333,4.964c-3.583,4.236-6.075,9.284-7.259,14.704
			c-1.724,4.731-1.985,9.87-0.749,14.751c1.336,3.186,4.625,5.098,8.055,4.683c3.159,0.168,6.29-0.668,8.944-2.388
			c2.399-1.864,4.058-4.519,4.683-7.493h-7.024c-0.213,1.132-0.731,2.185-1.499,3.044c-0.649,0.598-1.506,0.917-2.388,0.89
			c-1.452,0-2.154-0.749-2.201-2.295c0.379-3.688,1.133-7.328,2.248-10.864h14.049l1.171-4.308
			c1.385-3.835,1.565-8.002,0.515-11.941 M584.438,264.707h-6.135c0.562-2.457,1.394-4.844,2.482-7.118
			c0.589-1.042,1.707-1.673,2.903-1.639c1.358,0,2.014,0.609,2.061,1.873C585.559,260.158,585.119,262.466,584.438,264.707
			 M314.373,257.777c2.639-1.442,5.61-2.169,8.617-2.107c1.153-0.122,2.293,0.334,3.044,1.218c0.578,0.962,0.681,2.136,0.281,3.184
			l-0.749,2.81c-0.362-0.676-0.963-1.194-1.686-1.452c-0.964-0.397-2.001-0.589-3.044-0.562c-3.45-0.086-6.802,1.154-9.366,3.465
			c-2.78,3.142-4.614,7.006-5.292,11.145c-1.275,3.348-1.275,7.048,0,10.396c1.142,2.475,3.696,3.986,6.416,3.793
			c1.466,0.03,2.929-0.128,4.355-0.468c1.185-0.266,2.302-0.776,3.278-1.499l0.515,1.592l8.898-2.997l6.697-25.101
			c1.835-3.853,0.199-8.464-3.654-10.298c-1.486-0.708-3.159-0.922-4.775-0.613c-1.961-0.013-3.92,0.144-5.854,0.468
			c-1.9,0.277-3.757,0.797-5.526,1.545L314.373,257.777z M320.601,283.018c-0.495,0.409-1.069,0.712-1.686,0.89
			c-0.689,0.256-1.419,0.383-2.154,0.375c-1.058,0.17-2.057-0.538-2.248-1.592c-0.031-2.438,0.365-4.863,1.171-7.165
			c0.523-2.384,1.441-4.663,2.716-6.743c0.768-1.202,2.086-1.94,3.512-1.967c0.651-0.058,1.301,0.126,1.826,0.515
			c0.443,0.368,0.685,0.924,0.656,1.499L320.601,283.018z M382.931,252.532c-1.85-1.701-4.336-2.535-6.837-2.295
			c-1.608-0.001-3.199,0.317-4.683,0.937c-1.488,0.529-2.868,1.322-4.074,2.341c-0.431-1.065-1.206-1.955-2.201-2.529
			c-1.375-0.582-2.865-0.838-4.355-0.749c-1.579-0.019-3.153,0.17-4.683,0.562c-1.395,0.363-2.734,0.914-3.98,1.639v-1.733h-8.008
			l-10.349,38.541l10.537-2.997l7.914-29.268c0.448-0.19,0.921-0.316,1.405-0.375h1.499c0.897-0.12,1.801,0.153,2.482,0.749
			c0.409,0.81,0.409,1.766,0,2.576l-7.867,29.362c-7.806,1.999-15.716,3.562-23.696,4.683c-9.278,1.581-18.718,1.99-28.098,1.218
			c-6.509-0.983-8.523-4.683-7.493-9.881c1.975-6.563,5.274-12.651,9.694-17.889c9.928-13.065,5.058-18.732-4.683-18.732
			c-9.147,0.285-18.184,2.089-26.74,5.339c1.877-3.144,3.266-6.555,4.121-10.115l2.107-0.515
			c22.946-5.901,42.146-21.354,42.474-34.56c0.328-9.038-8.148-14.611-20.933-15.36c2.625,3.227,3.945,7.321,3.7,11.473
			c-0.421,11.988-11.52,25.054-26.88,33.202c-0.24-3.891-2.218-7.468-5.385-9.741c-9.834-7.118-30.486-4.308-51.512,5.76
			c12.55-2.95,23.415-2.529,29.783,2.107c13.159,9.272,2.342,32.687-24.304,51.887c-6.3,4.563-12.991,8.559-19.996,11.941
			c15.002-3.878,29.12-10.603,41.584-19.809c9.607-6.666,17.869-15.087,24.351-24.82c8.148-1.639,16.39-2.903,19.575-1.03
			c5.011,2.95-5.339,14.845-16.859,28.706c-5.079,5.216-8.697,11.676-10.49,18.732c-0.468,5.058,2.903,8.102,11.426,7.82
			c13.321-0.948,26.514-3.223,39.383-6.79c15.735-3.934,33.624-11.707,49.686-16.297l6.884-26.224
			c0.159-0.567,0.268-1.147,0.328-1.733c0.048-0.483,0.048-0.969,0-1.452l2.06-0.515h1.733c0.818-0.079,1.618,0.276,2.107,0.937
			c0.362,0.755,0.362,1.633,0,2.388l-7.867,29.409l10.63-2.997l7.399-26.833c0.92-2.262,0.582-4.842-0.89-6.79 M405.315,250.518
			c-1.961-0.011-3.919,0.146-5.854,0.468c-1.885,0.278-3.727,0.797-5.479,1.545l-1.592,5.76c1.371-0.703,2.816-1.253,4.308-1.639
			c1.431-0.31,2.891-0.467,4.355-0.468c1.14-0.122,2.265,0.335,2.997,1.218c0.574,0.961,0.694,2.127,0.328,3.184l-0.749,2.81
			c-0.39-0.654-0.981-1.163-1.686-1.452c-0.964-0.397-2.001-0.589-3.044-0.562c-3.544-0.144-7.005,1.099-9.647,3.465
			c-2.845,3.018-4.805,6.76-5.666,10.818c-1.224,3.357-1.224,7.039,0,10.396c1.169,2.473,3.733,3.978,6.462,3.793
			c1.466,0.027,2.929-0.13,4.355-0.468c1.134-0.263,2.203-0.757,3.138-1.452l0.562,1.592l8.898-2.997l6.884-25.288
			c1.038-2.669,0.706-5.677-0.89-8.055c-1.921-2.089-4.716-3.148-7.54-2.857 M398.431,283.111c-0.495,0.409-1.069,0.712-1.686,0.89
			c-0.689,0.256-1.419,0.383-2.154,0.375c-1.311,0-2.06-0.515-2.248-1.592c-0.057-2.44,0.34-4.87,1.171-7.165
			c0.468-2.349,1.34-4.598,2.576-6.65c0.747-1.201,2.051-1.942,3.465-1.967c0.665-0.052,1.328,0.13,1.873,0.515
			c0.426,0.381,0.665,0.928,0.656,1.499L398.431,283.111z M432.008,255.763h6.088l1.311-4.964h-6.041l3.138-11.707h-9.975
			l-3.138,11.707h-3.746l-1.311,4.683h3.746l-6.556,24.445c-0.937,2.282-0.729,4.875,0.562,6.978
			c1.753,1.701,4.176,2.526,6.603,2.248l6.416-2.997l0.609-2.201c-1.39,0.182-2.8-0.133-3.98-0.89c-0.562-0.609-0.609-1.78,0-3.559
			L432.008,255.763z M512.227,252.625c-1.85-1.701-4.336-2.535-6.837-2.295c-1.608-0.006-3.201,0.312-4.683,0.937
			c-1.488,0.529-2.868,1.322-4.074,2.341c-0.431-1.065-1.206-1.955-2.201-2.529c-1.375-0.582-2.865-0.838-4.355-0.749
			c-1.578-0.011-3.152,0.178-4.683,0.562c-1.377,0.371-2.7,0.922-3.934,1.639v-1.733h-8.101l-10.302,38.541l10.49-2.997
			l7.961-29.268c0.448-0.19,0.921-0.316,1.405-0.375h1.499c0.897-0.12,1.801,0.153,2.482,0.749c0.381,0.816,0.381,1.759,0,2.576
			l-7.914,29.409l10.537-2.997l7.024-25.943c0-0.562,0.234-1.124,0.328-1.733c0.048-0.483,0.048-0.969,0-1.452l2.061-0.515h1.733
			c0.817-0.07,1.612,0.283,2.107,0.937c0.337,0.761,0.337,1.628,0,2.388l-7.867,29.409l10.583-2.997l7.493-26.927
			c0.921-2.262,0.582-4.842-0.89-6.79 M567.907,259.275l2.154-8.008c-0.46-0.243-0.948-0.432-1.452-0.562
			c-0.575-0.071-1.157-0.071-1.733,0c-1.405-0.002-2.805,0.171-4.168,0.515c-1.307,0.365-2.543,0.951-3.653,1.733v-1.779h-8.055
			l-10.302,38.541l10.583-2.997l7.305-27.302c0.64-0.383,1.363-0.608,2.107-0.656c0.92-0.071,1.843-0.071,2.763,0
			c0.793-0.097,1.595-0.097,2.388,0c0.732,0.169,1.452,0.388,2.154,0.656 M464.461,253.515c-1.93-2.076-4.718-3.133-7.54-2.857
			c-1.977-0.011-3.95,0.146-5.9,0.468c-1.884,0.284-3.725,0.803-5.479,1.545l-1.545,5.76c2.639-1.442,5.61-2.169,8.617-2.107
			c1.153-0.122,2.293,0.334,3.044,1.218c0.534,0.976,0.636,2.13,0.281,3.184l-0.749,2.81c-0.362-0.676-0.963-1.194-1.686-1.452
			c-0.964-0.397-2.001-0.589-3.044-0.562c-3.45-0.086-6.802,1.154-9.366,3.465c-2.861,3.007-4.824,6.754-5.666,10.818
			c-1.245,3.354-1.245,7.043,0,10.396c1.169,2.473,3.733,3.978,6.462,3.793c1.466,0.027,2.929-0.13,4.355-0.468
			c1.149-0.264,2.232-0.757,3.184-1.452l0.515,1.592l8.804-2.997l6.65-25.428c0.991-2.675,0.661-5.661-0.89-8.055 M449.756,283.018
			c-0.495,0.409-1.069,0.712-1.686,0.89c-0.689,0.256-1.419,0.383-2.154,0.375c-1.058,0.17-2.057-0.538-2.248-1.592
			c0.225-4.915,1.553-9.717,3.887-14.049c0.753-1.195,2.054-1.933,3.465-1.967c0.667-0.065,1.334,0.118,1.873,0.515
			c0.426,0.381,0.665,0.928,0.656,1.499L449.756,283.018z"/>
		<path style="fill:#26436C;" d="M411.824,218.534L411.824,218.534l-4.027,4.683l-5.901,0.702c-1.844,1.418-3.429,3.145-4.683,5.104
			l0,0l3.793,2.248l-4.215,4.964l0,0c0.757,0.86,1.751,1.479,2.857,1.78l6.79-3.231l3.091,2.482l0,0
			c1.619-0.565,3.186-1.27,4.683-2.107c1.666-0.825,3.236-1.83,4.683-2.997l0,0c0,0-0.375-3.793-0.421-3.934
			c6.322-3.84,6.322-3.84,6.322-3.887c0.222-0.616,0.333-1.266,0.328-1.92c0.071-0.403,0.071-0.815,0-1.218l0,0l-6.556,0.937
			l0.234-4.683l0,0c-2.257-0.011-4.502,0.337-6.65,1.03"/>
		<polygon style="fill:#FFFFFF;" points="404.894,230.335 408.64,232.536 415.149,229.07 415.383,224.668 409.062,225.464 		"/>
		<path style="fill:#FFFFFF;" d="M394.779,300.017h-5.011c0.027-0.363-0.132-0.716-0.421-0.937
			c-0.386-0.257-0.849-0.373-1.311-0.328c-0.52-0.029-1.038,0.084-1.499,0.328c-0.26,0.131-0.449,0.372-0.515,0.656
			c-0.125,0.167-0.125,0.395,0,0.562c0.486,0.346,1.048,0.571,1.639,0.656l1.92,0.468c1.347,0.182,2.589,0.828,3.512,1.826
			c0.565,0.787,0.721,1.795,0.421,2.716c-0.216,0.838-0.634,1.609-1.218,2.248c-0.53,0.646-1.163,1.2-1.873,1.639
			c-0.786,0.412-1.62,0.726-2.482,0.937c-0.983,0.225-1.989,0.335-2.997,0.328c-1.03,0.011-2.056-0.131-3.044-0.421
			c-0.788-0.186-1.514-0.573-2.107-1.124c-0.473-0.494-0.797-1.11-0.937-1.779c-0.121-0.571-0.121-1.162,0-1.733h5.104
			c-0.023,0.426,0.15,0.84,0.468,1.124c0.513,0.288,1.099,0.418,1.686,0.375c0.566,0.039,1.132-0.075,1.639-0.328
			c0.249-0.166,0.432-0.415,0.515-0.702c0.125-0.234,0.125-0.515,0-0.749c-0.485-0.307-1.026-0.514-1.592-0.609l-1.733-0.421
			c-0.862-0.19-1.696-0.489-2.482-0.89c-0.657-0.289-1.189-0.804-1.499-1.452c-0.262-0.71-0.262-1.491,0-2.201
			c0.199-0.834,0.601-1.607,1.171-2.248c0.556-0.643,1.222-1.182,1.967-1.592c0.759-0.378,1.561-0.661,2.388-0.843
			c0.842-0.069,1.687-0.069,2.529,0c0.898-0.012,1.794,0.082,2.669,0.281c0.648,0.14,1.267,0.394,1.826,0.749
			c0.385,0.288,0.705,0.655,0.937,1.077c0.194,0.381,0.321,0.793,0.375,1.218c0.05,0.467,0.05,0.938,0,1.405"/>
		<path style="fill:#FFFFFF;" d="M403.629,305.636h-3.372l3.091-5.432L403.629,305.636z M397.307,310.694l1.124-1.967h5.292v1.967
			h5.479l-1.733-15.032h-5.385l-9.787,15.032H397.307z"/>
		<polygon style="fill:#FFFFFF;" points="409.904,310.694 413.932,295.662 418.849,295.662 422.267,303.716 424.422,295.662 
			429.479,295.662 425.452,310.694 420.394,310.694 417.116,302.827 415.009,310.694 		"/>
		<path style="fill:#FFFFFF;" d="M431.071,295.662h5.245l-2.435,9.366c-0.128,0.46-0.128,0.945,0,1.405
			c0.09,0.338,0.332,0.615,0.656,0.749c0.407,0.202,0.858,0.298,1.311,0.281c0.699,0.027,1.388-0.17,1.967-0.562
			c0.601-0.465,1.016-1.129,1.171-1.873l2.482-9.366h5.198l-2.341,8.804c-0.248,0.887-0.577,1.749-0.983,2.576
			c-0.373,0.636-0.83,1.218-1.358,1.733c-0.584,0.501-1.229,0.926-1.92,1.264c-0.746,0.397-1.553,0.666-2.388,0.796
			c-0.924,0.191-1.866,0.285-2.81,0.281c-0.96,0.016-1.918-0.078-2.857-0.281c-0.696-0.154-1.36-0.423-1.967-0.796
			c-0.472-0.337-0.871-0.768-1.171-1.264c-0.319-0.606-0.48-1.282-0.468-1.967c0.049-0.81,0.19-1.611,0.421-2.388L431.071,295.662z"
			/>
		<polygon style="fill:#FFFFFF;" points="444.277,310.694 448.305,295.662 453.409,295.662 452.098,300.626 458.186,295.662 
			464.414,295.662 457.015,301.328 460.995,310.694 454.673,310.694 452.426,304.7 450.646,306.011 449.428,310.694 		"/>
		<polygon style="fill:#FFFFFF;" points="462.306,310.694 466.334,295.662 471.626,295.662 467.598,310.694 		"/>
	</g>
</g>
</svg>
