<?xml version="1.0" encoding="UTF-8"?>
<svg id="_图层_1" data-name="图层_1" xmlns="http://www.w3.org/2000/svg" version="1.1" viewBox="0 0 800 800">
  <!-- Created by @FCLOGO 2024-11-29 GMT+8 10:38:02 . https://fclogo.top/ -->
<!-- FOR PERSONAL USE ONLY NOT FOR COMMERCIAL USE -->
<!-- Created by @FCLOGO 2024-11-29 GMT+8 10:38:02 . https://fclogo.top/ -->
<!-- FOR PERSONAL USE ONLY NOT FOR COMMERCIAL USE -->
  <defs>
    <style>
      .st0 {
        fill: #ccc;
      }

      .st1 {
        fill: #193d17;
      }
    </style>
  </defs>
  <path class="st0" d="M348.22,774.3c-.79,0-1.38-.22-1.77-.65-.39-.44-.53-1.03-.41-1.79l.25-1.65c.12-.75.45-1.35.98-1.78.53-.44,1.19-.65,1.98-.65s1.33.2,1.72.6c.39.4.55.94.47,1.62h-1.24c.03-.36-.06-.64-.26-.84-.2-.2-.5-.3-.89-.3-.42,0-.76.12-1.03.35-.27.23-.43.56-.5.99l-.26,1.66c-.07.44,0,.77.19,1,.19.23.5.35.92.35.39,0,.72-.1.98-.3.26-.2.44-.48.52-.85h1.24c-.14.69-.47,1.23-.99,1.63-.52.4-1.16.6-1.92.6ZM352.8,774.19l1-6.29h1.19l-.19,1.19c.34-.87.97-1.3,1.91-1.3.67,0,1.17.21,1.49.62.32.42.43.99.31,1.71l-.07.42h-1.27l.06-.32c.07-.45.01-.8-.17-1.04-.18-.24-.48-.36-.88-.36s-.74.12-1.01.37c-.27.24-.43.59-.5,1.03l-.63,3.97h-1.24ZM361.91,774.3c-.77,0-1.35-.22-1.73-.67s-.52-1.04-.4-1.77l.25-1.65c.08-.49.26-.92.52-1.28s.6-.65,1.01-.85c.41-.2.87-.3,1.38-.3.77,0,1.35.22,1.73.67.39.45.52,1.04.39,1.77l-.17,1.12h-3.85l-.09.53c-.15.95.22,1.43,1.11,1.43.72,0,1.17-.25,1.37-.74h1.22c-.17.53-.5.96-1.01,1.28-.5.32-1.09.47-1.76.47ZM361.23,770.22l-.05.29h2.65s.05-.3.05-.3c.07-.47.01-.82-.17-1.07-.18-.25-.49-.37-.92-.37s-.8.13-1.06.38c-.26.25-.43.61-.51,1.08ZM368.33,774.3c-.63,0-1.1-.21-1.41-.64s-.4-1-.27-1.73l.27-1.77c.11-.73.39-1.31.84-1.74.44-.43.98-.64,1.61-.64.47,0,.83.12,1.09.35.26.24.39.56.38.96h.02l.17-1.2h1.24l-1,6.29h-1.22l.19-1.2h-.02c-.12.41-.35.73-.69.97s-.74.35-1.21.35ZM368.93,773.23c.39,0,.72-.12.98-.36.26-.24.43-.57.5-1.01l.25-1.65c.07-.43,0-.76-.18-1-.19-.24-.47-.36-.86-.36s-.72.12-.98.35c-.26.24-.42.57-.49,1.01l-.25,1.65c-.07.44-.01.78.17,1.01.18.23.47.35.88.35ZM376.35,774.19c-.57,0-.99-.16-1.26-.47-.27-.31-.36-.75-.27-1.32l.54-3.39h-1.74l.17-1.12h1.74l.27-1.72h1.24l-.27,1.72h2.47l-.18,1.12h-2.46l-.54,3.39c-.08.44.1.66.53.66h1.72l-.17,1.12h-1.77ZM382.5,774.3c-.77,0-1.35-.22-1.73-.67s-.52-1.04-.4-1.77l.25-1.65c.08-.49.26-.92.52-1.28s.6-.65,1.01-.85c.41-.2.87-.3,1.38-.3.77,0,1.35.22,1.73.67.39.45.52,1.04.39,1.77l-.17,1.12h-3.85l-.09.53c-.15.95.22,1.43,1.11,1.43.72,0,1.17-.25,1.37-.74h1.22c-.17.53-.5.96-1.01,1.28-.5.32-1.09.47-1.76.47ZM381.83,770.22l-.05.29h2.65s.05-.3.05-.3c.07-.47.01-.82-.17-1.07-.18-.25-.49-.37-.92-.37s-.8.13-1.06.38c-.26.25-.43.61-.51,1.08ZM388.92,774.3c-.63,0-1.1-.21-1.4-.64-.3-.42-.39-1-.28-1.73l.27-1.77c.11-.73.39-1.31.84-1.74.44-.43.98-.64,1.61-.64.47,0,.83.12,1.09.35.26.24.39.56.38.96h.02l.21-1.47.3-1.8h1.24l-1.33,8.35h-1.22l.19-1.2h-.02c-.12.41-.35.73-.69.97s-.74.35-1.21.35ZM389.53,773.23c.39,0,.72-.12.98-.36.26-.24.43-.57.5-1.01l.25-1.65c.08-.43.02-.76-.17-1-.19-.24-.48-.36-.87-.36s-.72.12-.98.35c-.26.24-.42.57-.49,1.01l-.25,1.65c-.08.44-.02.78.16,1.01s.48.35.88.35ZM401.02,774.3c-.47,0-.84-.12-1.1-.35-.26-.23-.39-.56-.38-.97h-.01l-.19,1.2h-1.22l1.33-8.35h1.24l-.29,1.8-.27,1.47h.05c.12-.41.35-.73.69-.97.34-.23.74-.35,1.21-.35.63,0,1.1.21,1.4.64.3.43.39,1.01.28,1.74l-.27,1.77c-.11.73-.39,1.31-.84,1.73-.45.42-.98.64-1.61.64ZM400.77,773.23c.4,0,.72-.12.98-.35.26-.23.42-.57.5-1.01l.25-1.65c.07-.43.01-.77-.17-1.01-.18-.24-.47-.35-.87-.35s-.72.12-.98.36-.43.57-.5,1l-.25,1.65c-.07.44-.01.77.17,1.01.18.24.47.36.87.36ZM405.47,776.25l.17-1.06h1.93c.64,0,1.01-.3,1.1-.9l.1-.67.21-1.19h-.03c-.12.42-.35.74-.68.97-.33.23-.73.34-1.2.34-.63,0-1.09-.2-1.4-.6s-.41-.94-.3-1.63l.58-3.6h1.24l-.56,3.48c-.06.41,0,.73.18.96s.47.34.85.34.72-.12.98-.37c.27-.24.43-.58.49-1.02l.54-3.4h1.24l-1.01,6.41c-.1.6-.37,1.08-.81,1.42-.44.35-1,.52-1.67.52h-1.95ZM417.79,770.09h3.22l.54-1.85h-5.47l-1.71,6.44h2.15l.59-2.1h3.03l.44-1.71h-3.03l.24-.78ZM424.23,772.92c-.59,0-1.02-.39-1.02-1.12,0-.88.63-1.76,1.61-1.76.49,0,.88.24,1.02.78l1.95-.83c-.29-1.17-1.27-1.9-2.64-1.9-2.78,0-4.15,2.15-4.15,3.9s1.27,2.83,3.07,2.83c1.37,0,2.34-.59,2.98-1.42l-1.51-1.17c-.39.44-.83.68-1.32.68ZM430.91,768.23h-2.15l-1.76,6.44h5.12l.49-1.85h-2.93l1.22-4.59ZM439.75,771.01c0-1.66-1.32-2.93-3.22-2.93-2.2,0-3.81,1.81-3.81,3.81,0,1.66,1.32,2.93,3.22,2.93,2.2,0,3.81-1.81,3.81-3.81ZM434.92,771.7c0-.83.59-1.71,1.51-1.71.78,0,1.17.54,1.17,1.22,0,.83-.59,1.71-1.51,1.71-.78,0-1.17-.54-1.17-1.22ZM443.21,772.23h1.07l-.2.68c-.15.05-.34.1-.59.1-.68,0-1.27-.39-1.27-1.22,0-1.02.73-1.9,1.95-1.9.59,0,1.12.24,1.51.59l1.37-1.37c-.44-.54-1.51-1.07-2.73-1.07-2.59,0-4.29,1.76-4.29,3.86s1.61,2.88,3.22,2.88c.93,0,1.85-.29,2.49-.68l.93-3.32h-3.12l-.34,1.46ZM450.78,768.08c-2.2,0-3.81,1.81-3.81,3.81,0,1.66,1.32,2.93,3.22,2.93,2.2,0,3.81-1.81,3.81-3.81,0-1.66-1.32-2.93-3.22-2.93ZM450.34,772.92c-.78,0-1.17-.54-1.17-1.22,0-.83.59-1.71,1.51-1.71.78,0,1.17.54,1.17,1.22,0,.83-.59,1.71-1.51,1.71ZM437.94,767.5c-.05.29.1.49.44.49s.54-.2.63-.49c.05-.24-.1-.49-.44-.49s-.59.24-.63.49ZM432.13,765.5c-.44,0-.73.24-.78.59s.1.59.54.59.73-.24.78-.59c.1-.34-.1-.59-.54-.59ZM433.01,767.3c-.1.54.15.88.83.88.63,0,1.07-.39,1.17-.88s-.15-.88-.83-.88c-.68,0-1.07.39-1.17.88ZM439.6,777.55l-2.44-1.81h-1.51l4.25,3.17,1.61-3.17h-.98l-.93,1.81ZM425.84,767.16l-2-1.46,23.13-2.78-2.15,4.25h1.02l2.68-5.32-26.99,3.22,2.78,2.1h1.51ZM338.72,785.79l.61-3.83h2.32l-.08.52h-1.76l-.18,1.14h1.63l-.08.52h-1.62l-.26,1.64h-.57ZM342.97,785.84c-.36,0-.62-.1-.8-.3-.17-.2-.23-.47-.18-.82l.27-1.7c.06-.34.2-.61.44-.82.24-.2.54-.3.89-.3s.62.1.8.3c.17.2.24.47.18.81l-.27,1.71c-.06.34-.2.62-.44.82-.24.2-.54.3-.9.3ZM343.05,785.33c.19,0,.35-.05.47-.16.12-.11.19-.26.23-.46l.27-1.7c.03-.2,0-.35-.08-.46-.08-.11-.22-.16-.41-.16s-.35.05-.46.16c-.12.1-.19.26-.22.46l-.27,1.7c-.03.2,0,.35.08.46s.22.16.41.16ZM345,785.79l.61-3.83h1.2c.24,0,.44.05.6.14.16.09.28.22.36.39s.09.37.05.59c-.04.26-.14.48-.3.67-.16.19-.37.32-.6.39l.54,1.64h-.62l-.48-1.57h-.54l-.25,1.57h-.57ZM345.89,783.71h.64c.19,0,.35-.06.48-.17.13-.11.21-.26.24-.45.03-.19,0-.35-.09-.46-.09-.11-.24-.17-.43-.17h-.64l-.2,1.25ZM349.54,785.79l.61-3.83h1.25c.37,0,.65.1.84.31.19.21.26.49.2.84-.04.23-.12.44-.25.61s-.29.31-.49.4c-.2.09-.42.14-.66.14h-.69l-.24,1.52h-.57ZM350.43,783.75h.69c.19,0,.36-.06.49-.18.14-.12.22-.27.25-.47s0-.35-.1-.47-.25-.18-.44-.18h-.69l-.21,1.29ZM352.75,785.79l.61-3.83h2.25l-.08.5h-1.7l-.17,1.09h1.51l-.08.5h-1.51l-.19,1.24h1.69l-.08.5h-2.25ZM355.84,785.79l.61-3.83h1.2c.24,0,.44.05.6.14.16.09.28.22.36.39s.09.37.05.59c-.04.26-.14.48-.3.67-.16.19-.37.32-.6.39l.54,1.64h-.62l-.48-1.57h-.54l-.25,1.57h-.57ZM356.74,783.71h.64c.19,0,.35-.06.48-.17.13-.11.21-.26.24-.45.03-.19,0-.35-.09-.46-.09-.11-.24-.17-.43-.17h-.64l-.2,1.25ZM360.13,785.84c-.39,0-.67-.1-.87-.29-.19-.19-.26-.45-.22-.78h.57c-.03.17.01.31.12.41.11.1.27.15.48.15.2,0,.37-.05.5-.15.13-.1.21-.23.24-.4.02-.15,0-.28-.06-.39-.06-.11-.16-.18-.29-.22l-.46-.14c-.27-.08-.46-.22-.59-.41-.13-.19-.17-.42-.13-.68.04-.21.11-.39.23-.55s.27-.28.46-.37.4-.13.64-.13c.35,0,.62.1.8.29.18.19.25.44.2.76h-.57c.03-.17,0-.3-.09-.4-.09-.1-.23-.14-.42-.14s-.34.04-.46.13c-.12.09-.19.21-.21.38-.02.15,0,.28.05.39s.16.18.29.22l.47.15c.26.08.46.22.58.41.12.19.17.42.12.69-.04.22-.12.41-.24.57-.13.16-.29.29-.49.38-.2.09-.42.13-.66.13ZM363.27,785.84c-.36,0-.62-.1-.8-.3-.17-.2-.23-.47-.18-.82l.27-1.7c.06-.34.2-.61.44-.82.24-.2.54-.3.89-.3s.62.1.8.3c.17.2.24.47.18.81l-.27,1.71c-.06.34-.2.62-.44.82-.24.2-.54.3-.9.3ZM363.34,785.33c.19,0,.35-.05.47-.16.12-.11.19-.26.23-.46l.27-1.7c.03-.2,0-.35-.08-.46-.08-.11-.22-.16-.41-.16s-.35.05-.46.16c-.12.1-.19.26-.22.46l-.27,1.7c-.03.2,0,.35.08.46s.22.16.41.16ZM365.28,785.79l.61-3.83h.71l.62,3.19c0-.1.02-.22.03-.36.01-.14.03-.29.04-.44.02-.15.04-.29.06-.41l.31-1.98h.52l-.61,3.83h-.71l-.61-3.19c0,.09-.02.21-.03.34s-.03.28-.04.42c-.02.15-.04.28-.06.41l-.31,2.01h-.53ZM368.23,785.79l1.59-3.83h.75l.37,3.83h-.56l-.07-.97h-1.09l-.39.97h-.59ZM369.39,784.34h.87l-.09-1.1c-.02-.2-.03-.37-.04-.51,0-.14-.01-.24-.01-.3-.02.06-.05.16-.1.3s-.11.31-.19.5l-.44,1.11ZM371.72,785.79l.61-3.83h.57l-.52,3.31h1.67l-.08.52h-2.25ZM376.68,785.84c-.37,0-.63-.1-.8-.3-.17-.2-.22-.47-.17-.82l.44-2.76h.57l-.44,2.76c-.03.2,0,.35.07.46.08.11.21.17.41.17s.35-.06.46-.17c.12-.11.19-.27.22-.46l.44-2.76h.57l-.44,2.76c-.06.35-.2.62-.43.82-.23.2-.53.3-.9.3ZM379.84,785.84c-.39,0-.67-.1-.87-.29-.19-.19-.26-.45-.22-.78h.57c-.03.17.01.31.12.41.11.1.27.15.48.15.2,0,.37-.05.5-.15.13-.1.21-.23.24-.4.02-.15,0-.28-.06-.39-.06-.11-.16-.18-.29-.22l-.46-.14c-.27-.08-.46-.22-.59-.41-.13-.19-.17-.42-.13-.68.04-.21.11-.39.23-.55s.27-.28.46-.37.4-.13.64-.13c.35,0,.62.1.8.29.18.19.25.44.2.76h-.57c.03-.17,0-.3-.09-.4-.09-.1-.23-.14-.42-.14s-.34.04-.46.13c-.12.09-.19.21-.21.38-.02.15,0,.28.05.39s.16.18.29.22l.47.15c.26.08.46.22.58.41.12.19.17.42.12.69-.04.22-.12.41-.24.57-.13.16-.29.29-.49.38-.2.09-.42.13-.66.13ZM381.91,785.79l.61-3.83h2.25l-.08.5h-1.7l-.17,1.09h1.51l-.08.5h-1.51l-.19,1.24h1.69l-.08.5h-2.25ZM386.94,785.84c-.36,0-.62-.1-.8-.3-.17-.2-.23-.47-.18-.82l.27-1.7c.06-.34.2-.61.44-.82.24-.2.54-.3.89-.3s.62.1.8.3c.17.2.24.47.18.81l-.27,1.71c-.06.34-.2.62-.44.82-.24.2-.54.3-.9.3ZM387.02,785.33c.19,0,.35-.05.47-.16.12-.11.19-.26.23-.46l.27-1.7c.03-.2,0-.35-.08-.46-.08-.11-.22-.16-.41-.16s-.35.05-.46.16c-.12.1-.19.26-.22.46l-.27,1.7c-.03.2,0,.35.08.46s.22.16.41.16ZM388.95,785.79l.61-3.83h.71l.62,3.19c0-.1.02-.22.03-.36.01-.14.03-.29.04-.44.02-.15.04-.29.06-.41l.31-1.98h.52l-.61,3.83h-.71l-.61-3.19c0,.09-.02.21-.03.34s-.03.28-.04.42c-.02.15-.04.28-.06.41l-.31,2.01h-.53ZM392.25,785.79l.61-3.83h.57l-.52,3.31h1.67l-.08.52h-2.25ZM396.12,785.79l.22-1.41-.75-2.42h.58l.45,1.45c.03.09.05.18.07.27.02.08.03.15.03.19.02-.04.05-.1.09-.19.04-.08.09-.17.14-.27l.9-1.45h.6l-1.53,2.42-.22,1.41h-.57ZM399.22,785.79l.61-3.83h.71l.62,3.19c0-.1.02-.22.03-.36.01-.14.03-.29.04-.44.02-.15.04-.29.06-.41l.31-1.98h.52l-.61,3.83h-.71l-.61-3.19c0,.09-.02.21-.03.34s-.03.28-.04.42c-.02.15-.04.28-.06.41l-.31,2.01h-.53ZM403.51,785.84c-.36,0-.62-.1-.8-.3-.18-.2-.23-.47-.18-.82l.27-1.7c.06-.34.2-.61.44-.82.24-.2.54-.3.89-.3s.62.1.8.3c.17.2.24.47.18.81l-.27,1.71c-.06.34-.2.62-.44.82-.24.2-.54.3-.89.3ZM403.58,785.33c.19,0,.35-.05.47-.16.12-.11.19-.26.23-.46l.27-1.7c.03-.2,0-.35-.08-.46-.08-.11-.22-.16-.41-.16s-.35.05-.46.16c-.12.1-.19.26-.22.46l-.27,1.7c-.03.2,0,.35.08.46.08.11.22.16.41.16ZM406.38,785.79l.52-3.31h-1.02l.08-.52h2.62l-.08.52h-1.03l-.52,3.31h-.57ZM409.52,785.79l.61-3.83h2.32l-.08.52h-1.76l-.18,1.14h1.63l-.08.52h-1.62l-.26,1.64h-.57ZM413.77,785.84c-.36,0-.62-.1-.8-.3-.18-.2-.23-.47-.18-.82l.27-1.7c.06-.34.2-.61.44-.82.24-.2.54-.3.89-.3s.62.1.8.3c.17.2.24.47.18.81l-.27,1.71c-.06.34-.2.62-.44.82-.24.2-.54.3-.89.3ZM413.85,785.33c.19,0,.35-.05.47-.16.12-.11.19-.26.23-.46l.27-1.7c.03-.2,0-.35-.08-.46-.08-.11-.22-.16-.41-.16s-.35.05-.46.16c-.12.1-.19.26-.22.46l-.27,1.7c-.03.2,0,.35.08.46.08.11.22.16.41.16ZM415.8,785.79l.61-3.83h1.2c.24,0,.44.05.6.14.16.09.28.22.36.39s.09.37.05.59c-.04.26-.14.48-.3.67-.16.19-.37.32-.6.39l.54,1.64h-.62l-.48-1.57h-.54l-.25,1.57h-.57ZM416.69,783.71h.64c.19,0,.35-.06.48-.17.13-.11.21-.26.24-.45.03-.19,0-.35-.09-.46-.09-.11-.24-.17-.43-.17h-.64l-.2,1.25ZM420.91,785.84c-.36,0-.63-.1-.81-.3-.18-.2-.24-.47-.19-.82l.27-1.7c.06-.35.21-.62.45-.82s.55-.3.91-.3.63.1.81.3c.18.2.24.47.19.82h-.57c.03-.2,0-.35-.09-.46-.09-.11-.23-.16-.42-.16s-.35.05-.47.16c-.12.1-.2.26-.23.45l-.27,1.71c-.03.2,0,.35.09.46.09.11.23.16.42.16s.35-.05.47-.16.2-.26.23-.46h.57c-.03.23-.11.43-.24.59s-.28.3-.47.39c-.19.09-.4.14-.64.14ZM424.03,785.84c-.36,0-.62-.1-.8-.3-.18-.2-.23-.47-.18-.82l.27-1.7c.06-.34.2-.61.44-.82.24-.2.54-.3.89-.3s.62.1.8.3c.17.2.24.47.18.81l-.27,1.71c-.06.34-.2.62-.44.82-.24.2-.54.3-.89.3ZM424.11,785.33c.19,0,.35-.05.47-.16.12-.11.19-.26.23-.46l.27-1.7c.03-.2,0-.35-.08-.46-.08-.11-.22-.16-.41-.16s-.35.05-.46.16c-.12.1-.19.26-.22.46l-.27,1.7c-.03.2,0,.35.08.46.08.11.22.16.41.16ZM425.97,785.79l.61-3.83h.69l.18,1.23c.02.12.04.23.05.33.01.1.02.18.03.24.02-.06.05-.14.09-.24.04-.11.09-.22.15-.34l.57-1.22h.71l-.61,3.83h-.54l.2-1.29c.02-.17.06-.35.1-.55.04-.2.09-.4.14-.61s.1-.4.14-.59c.05-.19.09-.35.13-.49l-.86,1.86h-.55l-.28-1.86c0,.14-.01.29-.02.47s-.02.37-.04.57c-.02.2-.04.41-.06.61-.02.2-.05.4-.08.57l-.2,1.29h-.54ZM429.11,785.79l.61-3.83h.69l.18,1.23c.02.12.04.23.05.33.01.1.02.18.03.24.02-.06.05-.14.09-.24.04-.11.09-.22.15-.34l.57-1.22h.71l-.61,3.83h-.54l.2-1.29c.02-.17.06-.35.1-.55.04-.2.09-.4.14-.61s.1-.4.14-.59c.05-.19.09-.35.13-.49l-.86,1.86h-.55l-.28-1.86c0,.14-.01.29-.02.47s-.02.37-.04.57c-.02.2-.04.41-.06.61-.02.2-.05.4-.08.57l-.2,1.29h-.54ZM432.41,785.79l.61-3.83h2.25l-.08.5h-1.7l-.17,1.09h1.51l-.08.5h-1.51l-.19,1.24h1.69l-.08.5h-2.25ZM435.51,785.79l.61-3.83h1.2c.24,0,.44.05.6.14.16.09.28.22.36.39s.09.37.05.59c-.04.26-.14.48-.3.67-.16.19-.37.32-.6.39l.54,1.64h-.62l-.48-1.57h-.54l-.25,1.57h-.57ZM436.4,783.71h.64c.19,0,.35-.06.48-.17.13-.11.21-.26.24-.45.03-.19,0-.35-.09-.46-.09-.11-.24-.17-.43-.17h-.64l-.2,1.25ZM439.8,785.84c-.36,0-.63-.1-.81-.3-.18-.2-.24-.47-.19-.82l.27-1.7c.06-.35.21-.62.45-.82s.55-.3.91-.3.63.1.81.3c.18.2.24.47.19.82h-.57c.03-.2,0-.35-.09-.46-.09-.11-.23-.16-.42-.16s-.35.05-.47.16c-.12.1-.2.26-.23.45l-.27,1.71c-.03.2,0,.35.09.46.09.11.23.16.42.16s.35-.05.47-.16.2-.26.23-.46h.57c-.03.23-.11.43-.24.59s-.28.3-.47.39c-.19.09-.4.14-.64.14ZM441.88,785.79l.08-.5h.78l.45-2.82h-.78l.08-.5h2.13l-.08.5h-.78l-.45,2.82h.78l-.08.5h-2.13ZM444.74,785.79l1.59-3.83h.75l.37,3.83h-.56l-.07-.97h-1.09l-.39.97h-.59ZM445.9,784.34h.87l-.09-1.1c-.02-.2-.03-.37-.04-.51,0-.14-.01-.24-.01-.3-.02.06-.05.16-.1.3s-.11.31-.19.5l-.44,1.11ZM448.24,785.79l.61-3.83h.57l-.52,3.31h1.67l-.08.52h-2.25ZM453.19,785.84c-.37,0-.63-.1-.8-.3-.17-.2-.22-.47-.17-.82l.44-2.76h.57l-.44,2.76c-.03.2,0,.35.07.46.08.11.21.17.41.17s.35-.06.46-.17c.12-.11.19-.27.22-.46l.44-2.76h.57l-.44,2.76c-.06.35-.2.62-.43.82-.23.2-.53.3-.9.3ZM456.36,785.84c-.39,0-.67-.1-.87-.29-.19-.19-.26-.45-.22-.78h.57c-.03.17.01.31.12.41.11.1.27.15.48.15.2,0,.37-.05.5-.15s.21-.23.24-.4c.02-.15,0-.28-.06-.39s-.16-.18-.29-.22l-.46-.14c-.27-.08-.46-.22-.59-.41-.13-.19-.17-.42-.13-.68.04-.21.11-.39.23-.55s.27-.28.46-.37c.19-.09.4-.13.64-.13.35,0,.62.1.8.29.18.19.25.44.2.76h-.57c.03-.17,0-.3-.09-.4-.09-.1-.23-.14-.42-.14s-.34.04-.46.13c-.12.09-.19.21-.21.38-.02.15,0,.28.05.39s.16.18.29.22l.47.15c.26.08.46.22.58.41.12.19.17.42.12.69-.04.22-.12.41-.24.57-.13.16-.29.29-.49.38-.2.09-.42.13-.66.13ZM458.42,785.79l.61-3.83h2.25l-.08.5h-1.7l-.17,1.09h1.51l-.08.5h-1.51l-.19,1.24h1.69l-.08.5h-2.25Z"/>
  <path class="st1" d="M535.57,321.65c-1.69-47.06-26.87-78.58-29.98-82.31,0,0,0,0,0,0-.1-.13-.18-.22-.24-.28,0,0,0,0,0,0-.05-.05-.08-.09-.08-.09,7.09,24.91,4.95,39.77,4.95,39.77-32.68-73.44-111.88-94.19-111.88-94.19,0,0-76.73,30.71-108.86,98.04,0,0-3.08-10.57,1.76-41.37h-.01s0,.02-.01.04-.03.05-.05.08c0,.01-.01.01-.01.01-.05.07-.12.18-.21.32-.05.07-.11.17-.17.26-.05.08-.1.15-.16.25-.08.13-.18.28-.28.44-.06.09-.1.16-.16.26-.12.19-.25.39-.38.61-.05.09-.1.17-.16.26-.15.25-.32.52-.49.8-.05.08-.09.15-.14.23-.19.31-.39.65-.6,1-.04.06-.07.12-.11.18-.23.38-.46.79-.71,1.21-.02.04-.05.08-.07.12-6.91,11.92-21.32,40.25-24.64,74.04,0,0,0,0,0,0-8.76-1.76-19.36-2.14-28.88,3.64-9.84,5.97-16.52,17.51-19.85,34.29-5.91,29.78,10.47,61.8,28.88,76.81,7.62,6.22,15.48,9.64,22.98,10.14-.05.65-.08,1.31-.09,1.98,0,.06,0,.12,0,.17,0,.64,0,1.28.04,1.93,0,.08.01.17.02.25.04.64.1,1.28.18,1.93,0,.07.02.15.03.22.09.67.21,1.34.36,2.01,0,0,5.73-5.5,18.27-3.08,0,0-16.73,5.28-20.03,21.78l19.37,16.07s-10.11,1.76-20.23-6.59c.42.89,17.92,36.7,43.99,16.28,0,0-2.65,50.39,39.82,69.09,0,0-5.27-12.76-3.08-27.29,0,0,15.19,34.22,53.69,56.77,42.3-22.67,53.69-56.77,53.69-56.77,3.46,15.62-3.08,27.29-3.08,27.29,33.44-11.67,39.82-69.09,39.82-69.09,26.96,23.47,43.6-15.33,43.99-16.28-10.11,8.35-20.23,6.59-20.23,6.59l20.85-15.73c-5.45-15.68-19.82-22.4-19.82-22.4,12.54-2.42,18.67,3.74,18.67,3.74.23-3.26.3-6.18.27-8.8,7.95-.12,16.35-3.57,24.48-10.21,18.41-15.01,34.79-47.03,28.88-76.81-3.33-16.78-10.01-28.32-19.85-34.29-10.08-6.12-21.4-5.33-30.44-3.31ZM271.35,429s0,0,0,.01c-.02.03-.04.07-.07.12,0,0,0,.01,0,.02-.03.05-.06.11-.1.19,0,.01-.01.02-.02.04-.04.07-.08.15-.13.24,0,.02-.02.04-.03.05-.05.09-.1.19-.16.3-.01.02-.02.04-.03.06-.06.12-.12.24-.19.37,0,.02-.02.04-.03.06-.07.14-.14.28-.22.44-.01.02-.02.04-.03.06-.08.16-.16.32-.24.5-.01.02-.02.05-.03.07-.09.18-.17.37-.26.58,0,.02-.01.03-.02.05-.1.21-.19.43-.29.67,0,0,0,.01,0,.02-.62,1.45-1.31,3.24-1.92,5.27,0,0,0,0,0,0-7.92-.17-15.18-4.95-19.37-8.36-16.8-13.69-31.13-43.21-26.03-68.89,2.87-14.44,8.27-24.16,16.08-28.9,7.58-4.6,16.61-4.01,24.07-2.4-.04.87-.08,1.74-.1,2.62-12.04,10.36-5.58,12.09.71,18.26-1.6-1.32-14.56-11.39-27.23-1.18l5.28,3.96s-11.44.56-13.31,11.22c-1.87,10.67,4.95,25.75,12.1,32.9,0,0-5.94-1.21-9.68-4.51,0,0,12.96,33.01,40.7,36.07.2.03.4.05.61.07,0,0,0,.01-.02.04ZM502.38,390s-7.7,15.07-27.5,11.88c0,0-3.66,7.34,11.03,20.54h-11.55s14.69,10.07,9.24,22.44c-5.45,12.38-15.68,15.51-27.23,17l7.43,8.91h-8.58s4.74,15.35,3.03,19.31c-1.71,3.96-4.35,2.81-13.26-5.28,0,0,.16,17.16-5.78,22.61,0,0-.33-10.89-2.97-16.17,0,0-7.92,10.23-10.56,16.17,0,0-1.49-2.15-2.15-5.94,0,0-7.76,7.59-9.57,17.16,0,0-11.32-15.46-13.99-15.46s-13.99,15.46-13.99,15.46c-1.82-9.57-9.57-17.16-9.57-17.16-.66,3.8-2.15,5.94-2.15,5.94-2.64-5.94-10.56-16.17-10.56-16.17-2.64,5.28-2.97,16.17-2.97,16.17-5.94-5.45-5.78-22.61-5.78-22.61-8.91,8.09-11.55,9.24-13.26,5.28-1.71-3.96,3.03-19.31,3.03-19.31h-8.58l7.43-8.91c-11.55-1.49-21.78-4.62-27.23-17-5.45-12.38,9.24-22.44,9.24-22.44h-11.55c14.69-13.2,11.03-20.54,11.03-20.54-19.8,3.19-27.5-11.88-27.5-11.88,2.86.44,8.8,0,8.8,0-3.74-3.74-16.94-19.14-9.24-38.94,7.7-19.8,47.75-15.84,67.55-12.32,19.8,3.52,23.54,12.32,35.31,12.32s15.51-8.8,35.31-12.32c19.8-3.52,59.85-7.48,67.55,12.32,7.7,19.8-5.5,35.2-9.24,38.94,0,0,5.94.44,8.8,0ZM577.85,360.84c5.1,25.69-9.23,55.2-26.03,68.89-4.27,3.48-11.72,8.36-19.81,8.36-.78-6.71-2.19-9.74-2.19-9.74,26.33-7.11,36.78-35.55,36.78-35.55-3.74,3.3-9.68,4.51-9.68,4.51,7.15-7.15,13.97-22.22,12.1-32.9-1.87-10.66-13.31-11.22-13.31-11.22l7.05-4.12c-11.34-7.16-20.71-3.93-25.56-1.11-.29.17-.56.33-.82.5,4.15-3.58,5.62-6.14,5.73-8.53.12-2.62-3.05-4.86-6.61-6.66h0c.05-1.09.09-2.18.12-3.26,7.81-1.94,17.85-3.13,26.15,1.91,7.8,4.74,13.21,14.46,16.08,28.9ZM400,50c-193.3,0-350,156.7-350,350s156.7,350,350,350,350-156.7,350-350S593.3,50,400,50ZM640.06,640.06c-64.12,64.12-149.38,99.44-240.06,99.44s-175.94-35.31-240.06-99.44c-64.12-64.12-99.44-149.38-99.44-240.06s35.31-175.94,99.44-240.06,149.38-99.44,240.06-99.44,175.94,35.31,240.06,99.44c64.12,64.12,99.44,149.38,99.44,240.06s-35.31,175.94-99.44,240.06ZM400,151.5c-66.38,0-128.78,25.85-175.72,72.78-46.94,46.93-72.78,109.34-72.78,175.72s25.85,128.78,72.78,175.72c46.94,46.94,109.34,72.78,175.72,72.78s128.78-25.85,175.72-72.78,72.78-109.34,72.78-175.72-25.85-128.78-72.78-175.72c-46.94-46.94-109.34-72.78-175.72-72.78ZM570.77,570.77c-45.61,45.61-106.26,70.73-170.77,70.73s-125.15-25.12-170.77-70.73c-45.61-45.61-70.73-106.26-70.73-170.77s25.12-125.15,70.73-170.77c45.61-45.61,106.26-70.73,170.77-70.73s125.15,25.12,170.77,70.73c45.61,45.61,70.73,106.26,70.73,170.77s-25.12,125.15-70.73,170.77ZM378.66,382.71l-60.95-24.86s.88,43.79,42.91,38.06c0,0-9.68,14.64-38.94-4.78,0,0,17.11,23.24,40.29,11.19,0,0-1.24,5.78-15.02,11.96,0,0,25.77-.55,31.71-31.57ZM347.35,390.52c-15.29-5.61-17.1-20.46-17.1-20.46l41.25,16.01s-8.87,10.07-24.15,4.46ZM452.99,414.29c-13.78-6.19-15.02-11.96-15.02-11.96,23.19,12.05,40.29-11.19,40.29-11.19-29.26,19.42-38.94,4.78-38.94,4.78,42.02,5.72,42.91-38.06,42.91-38.06l-60.95,24.86c5.94,31.02,31.71,31.57,31.71,31.57ZM452.58,390.52c-15.29,5.61-24.15-4.46-24.15-4.46l41.25-16.01s-1.82,14.85-17.1,20.46ZM402.35,475.34s34.27,1.43,38.45,5.45c0,0-19.46-2.97-40.84-2.97s-40.84,2.97-40.84,2.97c4.18-4.02,38.45-5.45,38.45-5.45v-25.08l-21.12-30.86,23.51,10.07,23.51-10.07-21.12,30.86v25.08ZM372.17,484.42h54.9l-13.42,10.07v-5.06l-9.57,6.71,1.21-5.5-5.83,7.81-8.91-8.91,1.43,7.59-19.8-12.71ZM206.01,642.84l18.78,13.92-6.54,7.34-29.54-21.89,5.69-7.68c6.76.06,13.54.4,20.29-.02,5.39-.34,14.78-1,16.02-7.65.61-3.28-1.59-5.97-4.42-7.33-4-1.93-7.99.5-10.63,3.52l-6.93-7.86.07-.09c4.81-4.13,10.65-7,17.09-5.46,10.71,2.56,20.41,14.68,14.06,25.48-5.71,9.71-16.88,8.71-26.56,8.32l-7.37-.59ZM318.82,658.68l29.72,8.32-3.84,9.45-20.73-5.8-3.58,10.24c2.31-1.32,4.98-1.96,7.64-1.77,10.72.77,17.78,10.42,14.41,20.8-4.11,12.68-17.08,14.28-27.86,8.94-6.72-3.33-10.21-9.33-9.88-16.82l10.69,1.35c.18.77.13,1.56.27,2.34,1.45,7.99,13.98,9.04,15.73.49,1.55-7.6-7.97-12.28-13.37-7.15l-8.55-4.06,9.35-26.33ZM274.17,652.22c.91-8.53-2.04-15.04-9.96-18.95-8.07-3.99-15.79-.86-21.81,5.09-10.69,10.58-17.78,32.33-.46,40.38,15.87,7.37,30.73-12.5,32.23-26.52ZM250.46,670.55c-3.97,2.19-8.88-.61-8.93-5.17-.05-4.97,5.85-14.75,8.77-18.85,2.56-3.59,6.24-8.15,11.11-5.44,5.01,2.79,2.91,8.39,1.04,12.48-2.12,4.63-7.58,14.54-12,16.98ZM304.63,652.83l-15.76,37.72,12.54,5.24-3.46,8.29-36.76-15.36,3.46-8.29,13.71,5.73,10.83-25.92c-5.07.73-10.19,1.52-15.33,1.46l3.84-9.19c2.12.06,4.24.3,6.37.28,4.45-.03,9.1-.65,12.87-3.17l7.7,3.22ZM373.6,690.66c-1.33,6.76-1.74,19.77,7.41,21.04,5.04.7,9.12-2.6,9.15-7.74l-9.05-.54.54-9.05,19.81,1.19-1.55,25.8-5.21-.31-1.15-5.52c-.2-.2-1.16.98-1.31,1.12-4.2,3.68-8.98,4.89-14.5,4.07-15.84-2.36-18.73-20.78-14.9-33.72,3.55-12,13.52-18.38,25.97-14.99,7.75,2.11,12.46,8.98,13.05,16.8l-10.83.9c-.34-4.14-1.95-8.24-6.45-9.12-6.82-1.33-9.84,4.35-10.97,10.08ZM529.69,639.65l20.99,43.44-10.11,4.88-8.68-17.97-13.58,6.56,8.68,17.97-10,4.84-21.07-43.59,10-4.84,8.24,17.05,13.58-6.56-8.17-16.89.08-.23,9.8-4.74.23.08ZM547.48,627.04c-21.13,14.72,3.09,52.87,24.26,43.31,12.73-5.75,15.23-17.76,9.67-29.8-6.16-13.37-20.1-23.15-33.93-13.51ZM569.26,661.24c-7.91,3.9-15.1-8.26-17.64-14.12-1.97-4.55-2.89-10,1.98-13.06,5.9-3.71,11.33,2.27,14.38,6.82,3.6,5.37,9.64,16.24,1.29,20.36ZM446.14,703.1c.18,6.85-1.01,11.76-7.33,15.2-5.68,3.08-16.34,3.94-22.3,1.34-6.8-2.97-8.38-8.84-9.07-15.7-1.01-9.98-1.12-20.21-2.07-30.21l.15-.4,11.99-.82.2.38,2.16,31.68c.34,5.72,4.19,7.78,9.53,7.13,4.5-.55,7.34-2.92,7.03-7.7l-2.22-32.25.15-.4,9.56-.65,2.23,32.41ZM616.42,614.38c4.27,5.36,6.29,9.99,3.31,16.55-2.67,5.88-10.67,12.99-16.99,14.51-7.21,1.73-12.02-2.01-16.7-7.06-6.83-7.36-13.08-15.44-19.86-22.86l-.12-.41,9.07-7.88.39.18,20.82,23.98c3.72,4.36,8.03,3.68,11.91-.06,3.26-3.15,4.09-6.76.97-10.38l-21.21-24.39-.12-.41,7.23-6.28,21.31,24.52ZM507.42,693.19l2.77,8.87-37.23,11.62-2.45-7.85,13.92-36.83-21.65,6.76-2.69-8.6.11-.21,34.79-10.86,2.52,8.06-14.13,36.54,24.03-7.5ZM458.85,667.55l8.31,47.52-11.17,1.95-8.34-47.69,11-1.92.2.14ZM348.86,127.83c3.91-1.13,7.82-2.78,9.9-6.43,4.23-7.43-.87-16.49-9.55-16.17l2.8-2.11c4.63-3.93,3.6-11.42-.97-14.93-3.56-2.74-7.52-2.6-11.8-1.89-6.81,1.14-13.66,3.09-20.47,4.29l8.73,41.71,21.35-4.46ZM349.54,114.95c.25,2.58-1.64,4.96-4.2,5.5l-9.54,2-2.11-10.07c2.55-.44,5.1-1.2,7.65-1.61,3.6-.58,7.77-.33,8.2,4.18ZM337.29,94.36c.85-.14,1.95-.32,2.79-.43,4.89-.58,6.67,6.32,2.73,8.47-.4.22-1.47.72-1.85.8l-8.81,1.85-1.93-9.2c2.36-.42,4.7-1.08,7.07-1.49ZM595.65,207.96c3.13,2.6,6.7,4.9,10.89,4.56,8.52-.68,13.14-10.01,7.99-16.99l3.32,1.12c5.85,1.62,11.46-3.45,11.8-9.2.26-4.49-2.08-7.68-5.08-10.81-4.77-4.99-10.24-9.55-15.07-14.51l-29.56,30.69,15.71,15.13ZM611.59,174.55c1.68,1.72,3.54,3.28,5.21,5.01.6.62,1.36,1.43,1.92,2.07,3.23,3.71-1.47,9.07-5.47,7.03-.4-.21-1.42-.81-1.7-1.08l-6.49-6.25,6.52-6.77ZM605.51,192.14c2.5,2.65,4.64,6.24,1.16,9.13-2,1.66-5.02,1.44-6.91-.38l-7.02-6.76,7.13-7.41c1.8,1.86,3.86,3.54,5.64,5.42ZM238.81,172.56c16.65-7.73,11.7-27.15-.54-36.42-7.79-5.9-16.01-6.47-23.57.26-16.14,14.35,6.71,44.24,24.11,36.16ZM220.64,142.04c7.41-6.57,18.14,8.49,19.48,14.75,1.39,6.48-4.96,10.35-10.48,7-5.28-3.2-15.54-15.95-9-21.75ZM273.97,153.43c17.46-5.66,14.9-25.54,3.88-36.21-7.02-6.8-15.11-8.36-23.43-2.6-17.76,12.29,1.3,44.73,19.55,38.81ZM259.62,120.93c8.15-5.63,16.98,10.62,17.55,17,.59,6.6-6.17,9.68-11.25,5.68-4.85-3.82-13.5-17.71-6.3-22.68ZM375.03,114.58l13.91-1.14,3.4,8.5,10.91-.9-17-41.21-.45-.12-11.29,1-10.41,43.54,8.97-.74,1.97-8.94ZM380.13,91.39l5.77,14.42-9.12.75,3.34-15.17ZM200,199.91l-26.95-33.62,23.88-19.14,5.39,6.72-15.65,12.55,6.04,7.54,12.4-9.94,4.88,6.09-.03.31-12.23,9.8,10.5,13.1-8.23,6.6ZM282.88,111.77l-2.93-8,29.18-10.68.28.13,2.78,7.59-.13.28-9.73,3.56,11.72,32.01-9.52,3.49-11.72-32.01-9.93,3.64ZM434.75,123.44l-27-1.42,2.24-42.55,10.12.53-1.8,34.19,16.87.89-.44,8.36ZM465.11,130.38l-26.45-5.62,8.86-41.68,9.92,2.11-7.12,33.49,16.53,3.51-1.74,8.19ZM520.48,152.63l22.55-36.15,8.6,5.37-18.12,29.05,14.34,8.94-4.43,7.11-22.94-14.31ZM556.31,156.38l17.14-22.11,8.62,6.68-17.31,22.34c-3.93,4.7-.86,9.45,4.1,11.55,3.49,1.48,5.48-.14,7.73-2.75l17.13-22.12,6.83,5.29-16,20.67c-5.43,7.4-11.23,10.55-19.84,5.98-10.27-5.46-16.76-15.08-8.4-25.52ZM489.28,122.75c3.2-16.52,19.63-28.63,34.47-16.07,6.12,5.18,6.18,12.64,3.52,19.69l-9.69-4.1c1.8-3.76,2.63-8.29-1.43-10.88-7.41-4.72-12.93,5.56-15.36,11.06-1.77,4-3.3,9.25.71,12.44,4.47,3.55,9.05,1.48,11.92-2.8l8.48,4.92c-4.07,6.44-10.93,9.68-18.42,7.75-10.26-2.64-16.21-11.64-14.2-22.02ZM138.96,380.62s-5.94,20.24-33,12.54c0,0,2.64,3.08,7.7,5.06,5.06,1.98,14.74,3.96,17.6,19.58,0,0-17.38,5.06-31.24-25.3,0,0-1.32,12.98,3.3,19.14,4.62,6.16,14.74,16.72,17.82,21.34s5.06,11.44,5.28,18.26c0,0-6.16-12.98-11.44-15.18s-11.66-5.5-14.74-14.96c0,0,2.75,2.09,6.05,4.18,0,0-6.93-8.8-10.01-18.7-3.08-9.9-.22-18.59-.22-18.59,0,0-3.74-3.08-7.15-2.97-3.41.11-9.02.66-15.84-5.17-6.82-5.83-9.35-14.85-9.35-14.85,0,0,14.08-6.6,31.02,18.48,0,0-1.76-7.7-3.96-15.18s4.4-20.68,11.22-26.62c0,0,4.4,8.58,4.18,14.74-.22,6.16-5.94,18.92-5.94,18.92,0,0,6.82-9.46,12.76-10.12,5.94-.66,17.6.88,17.6.88,0,0-2.86,8.14-7.92,10.12s-16.5,2.64-16.5,2.64c0,0,9.68.88,10.34,5.5,0,0,15.84-10.12,22.44-3.74ZM736.29,365s-2.53,9.02-9.35,14.85c-6.82,5.83-12.43,5.28-15.84,5.17-3.41-.11-7.15,2.97-7.15,2.97,0,0,2.86,8.69-.22,18.59-3.08,9.9-10.01,18.7-10.01,18.7,3.3-2.09,6.05-4.18,6.05-4.18-3.08,9.46-9.46,12.76-14.74,14.96s-11.44,15.18-11.44,15.18c.22-6.82,2.2-13.64,5.28-18.26s13.2-15.18,17.82-21.34c4.62-6.16,3.3-19.14,3.3-19.14-13.86,30.36-31.24,25.3-31.24,25.3,2.86-15.62,12.54-17.6,17.6-19.58,5.06-1.98,7.7-5.06,7.7-5.06-27.06,7.7-33-12.54-33-12.54,6.6-6.38,22.44,3.74,22.44,3.74.66-4.62,10.34-5.5,10.34-5.5,0,0-11.44-.66-16.5-2.64s-7.92-10.12-7.92-10.12c0,0,11.66-1.54,17.6-.88,5.94.66,12.76,10.12,12.76,10.12,0,0-5.72-12.76-5.94-18.92-.22-6.16,4.18-14.74,4.18-14.74,6.82,5.94,13.42,19.14,11.22,26.62-2.2,7.48-3.96,15.18-3.96,15.18,16.94-25.08,31.02-18.48,31.02-18.48Z"/>
</svg>