<?xml version="1.0" encoding="UTF-8"?>
<svg data-name="图层_1" xmlns="http://www.w3.org/2000/svg" version="1.1" viewBox="0 0 800 800">
  <!-- Created by @FCLOGO 2025-7-2 GMT+8 22:43:45 . https://fclogo.top/ -->
<!-- FOR PERSONAL USE ONLY NOT FOR COMMERCIAL USE -->
  <path d="M631.4283,269.7878l-26.2741-16.6666c.2842-11.9894-8.4369-39.5595-32.0723-39.5595-21.5312,0-32.2539,19.6525-32.5692,31.9686,0,0,12.2418-8.4321,22.5333-8.4321,9.4551,0,15.1041,5.4566,15.1041,13.488,0,9.0575-5.1667,12.7108-28.5043,12.7108-22.6342,0-26.2975-6.0279-26.2975-10.908,0-2.7096,1.6564-5.4258,3.5342-8.1371,1.9579-2.5243,3.9437-4.647,5.6794-6.5044l3.5204-3.7833c1.0539-1.1339,1.0127-2.9016-.0908-3.9847l-2.3415-2.2961-52.2266-51.7989c-1.8685-1.8527-4.8406-1.9922-6.8738-.322l-.7953.6519c-.1559.1291-15.9072,12.8801-35.0139,12.8801-.3743,0-.7463-.0133-1.1184-.0247-7.9166-.2933-27.5866-3.735-27.5866-20.3177,0-4.2668,1.4601-16.865,11.194-16.865,6.6743,0,13.1155,5.068,13.1155,14.8929,0,3.8764-1.8764,10.8047-1.8764,10.8047,0,0,30.5641-10.236,30.5641-38.5386,0-31.1874-40.6523-49.878-59.9167-87.1494-1.3063-2.5294-4.9244-2.5294-6.2316,0-19.2622,37.2713-59.9167,55.9619-59.9167,87.1494,0,28.3026,30.5639,38.5386,30.5639,38.5386,0,0-1.8762-6.9283-1.8762-10.8047,0-9.8249,6.443-14.8929,13.1155-14.8929,9.7339,0,11.194,12.5982,11.194,16.865,0,16.5827-19.6696,20.0244-27.5856,20.3177-.3725.0114-.7445.0247-1.1182.0247-19.1067,0-34.8568-12.7509-35.0151-12.8801l-.7832-.6436c-2.0345-1.6701-5.0079-1.5339-6.882.314l-.7237.7145-53.8351,53.3935c-1.1002,1.0917-1.1366,2.8607-.0803,3.995l3.4955,3.7579c1.7369,1.857,3.7212,3.9802,5.6788,6.504,1.8807,2.7114,3.5363,5.4285,3.5363,8.1393,0,4.8801-3.6636,10.908-26.2978,10.908-23.3364,0-28.5031-3.6533-28.5031-12.7108,0-8.0314,5.6478-13.488,15.1028-13.488,10.2922,0,22.5334,8.4321,22.5334,8.4321-.3143-12.3161-11.038-31.9686-32.5692-31.9686-23.6354,0-32.3562,27.5701-32.0723,39.5595l-26.2743,16.6666c-2.1267,1.3454-2.1267,4.4104,0,5.7593l26.2743,16.6302c-.2839,12.0449,8.4369,39.603,32.0723,39.603,21.5312,0,32.255-19.6557,32.5692-31.9813,0,0-12.2412,8.433-22.5334,8.433-9.455,0-15.1028-5.4566-15.1028-13.4884,0-9.0323,5.1667-12.7394,28.5031-12.7394,22.6342,0,26.2978,6.0804,26.2978,10.9366,0,3.7975-.9072,6.7425-2.9262,10.7545-4.9199,9.897-9.934,21.5705-9.934,41.2829,0,39.415,29.2089,61.706,56.544,69.4253,8.7882,2.4797,17.1849,3.1119,25.3054,3.7232,5.2008.3914,10.1891.7694,15.0984,1.5802,5.2555,1.0578,13.4488,4.5191,13.4488,13.6279,0,14.834-17.2768,34.8294-17.2768,34.8294l39.0909,278.3598c.6517,4.6348,7.3428,4.6348,7.9945,0l39.0919-278.3598s-17.2762-19.9954-17.2762-34.8294c0-9.1049,8.1862-12.5667,13.4421-13.6279,4.9105-.809,9.901-1.1888,15.1059-1.5802,8.1193-.6113,16.516-1.2435,25.304-3.7232,27.3365-7.7193,56.5446-30.0103,56.5446-69.4253,0-19.7493-5.0317-31.4294-9.9631-41.3374-1.9981-3.984-2.8982-6.9207-2.8982-10.7,0-4.8561,3.6633-10.9366,26.2975-10.9366,23.3376,0,28.5043,3.7071,28.5043,12.7394,0,8.0318-5.649,13.4884-15.1041,13.4884-10.2915,0-22.5333-8.433-22.5333-8.433.3153,12.3256,11.038,31.9813,32.5692,31.9813,23.6354,0,32.3566-27.5581,32.0723-39.603l26.2741-16.6302c2.127-1.3489,2.127-4.4139,0-5.7593ZM529.951,344.9782c0,36.7732-27.5073,56.4879-51.9875,63.4019-26.1452,7.3825-50.0049-2.7119-77.9636,25.4882-27.957-28.2002-51.8171-18.1058-77.9624-25.4882-24.4807-6.914-51.9875-26.6287-51.9875-63.4019,0-37.461,19.2179-43.2925,19.2179-70.9942,0-23.5327-12.2262-35.0304-18.5107-41.8567l51.5068-51.0847s17.2657,14.3098,38.9967,14.3098c20.4217,0,38.7391-14.0838,38.7391-14.0838,0,0,18.3181,14.0838,38.7403,14.0838,21.7309,0,38.9973-14.3098,38.9973-14.3098l51.5068,51.0847c-6.2853,6.8263-18.5121,18.324-18.5121,41.8567,0,27.7017,19.2187,33.5333,19.2187,70.9942ZM376.9154,205.0979h0c-4.9238,1.2578-10.1996,2.0763-15.6545,2.0763-11.8258,0-22.4216-3.4561-30.5146-7.2558v23.4599h46.1691v-18.2803ZM376.9154,223.3782h0v35.7442h46.1693v-35.7442h-46.1693ZM469.295,199.8975h0c-8.0967,3.8093-18.7093,7.2767-30.5546,7.2767-5.4552,0-10.7322-.8185-15.6557-2.0763v18.2803h46.2103v-23.4807ZM503.6364,223.3782h-34.3414v35.7442h31.1325c2.4984-11.7919,7.6961-20.3132,12.5664-26.4639-2.5801-2.5586-5.8292-5.7797-9.3575-9.2803ZM423.0847,276.8958h46.2103v-17.7734h-46.2103v17.7734ZM330.7462,276.8958h46.1691v-17.7734h-46.1691v17.7734ZM296.3648,223.3782c-3.5282,3.5006-6.7764,6.7218-9.3569,9.2803,4.8685,6.1506,10.0668,14.672,12.564,26.4639h31.1743v-35.7442h-34.3815ZM410.6147,368.1157c-9.0107,7.2359-18.5728,10.8693-27.9207,10.6384-2.3691-1.8311-4.3742-4.0187-6.0157-6.4615,2.0306-.0259,3.7521-.5071,5.1553-1.4766,1.1641-.8019,2.4908-2.2209,3.0524-4.6216,6.7326,2.3233,12.5438.0788,16.3028-6.4081,2.246-.3019,4.9667-.2013,6.9191,1.4727,1.5911,1.3874,2.4594,3.7409,2.5067,6.8567ZM422.0648,373.8332c-5.0283,6.5535-13.1098,10.7887-22.164,10.7887-3.8985,0-7.603-.7804-10.9614-2.214,8.4044-1.152,16.7952-5.0874,24.7211-11.5595,2.3106-1.056,4.5324-1.1215,6.084-.1571,1.05.6384,1.8342,1.7121,2.3203,3.1419ZM379.5721,367.4782c-1.158.7965-2.9791.971-5.1469.5637-1.3349-3.1032-2.0763-6.4972-2.0763-10.0965,0-8.7186,4.3466-16.4606,11.0755-21.3373-3.5739,8.0853-4.3769,17.3241-2.2241,26.9032-.0348,1.8933-.5942,3.2402-1.6283,3.9669ZM510.0148,311.6053h-220.0272c-4.3294,8.6998-8.1161,17.6196-8.1161,33.3729,0,36.9083,33.2014,49.1523,43.378,52.0261,7.0408,1.988,14.1847,2.5255,21.748,3.0942,16.0009,1.2032,33.8673,2.5509,53.0026,17.8728,19.1365-15.3219,37.003-16.6696,53.0026-17.8728,7.5633-.5687,14.7072-1.1062,21.748-3.0942,10.1765-2.8738,43.3796-15.1179,43.3796-52.0261,0-15.7533-3.786-24.6731-8.1155-33.3729ZM399.9008,388.6494c-17.4284,0-31.5666-13.7392-31.5666-30.7041,0-16.9334,14.1382-30.682,31.5666-30.682,17.4719,0,31.6108,13.7486,31.6108,30.682,0,16.9649-14.1389,30.7041-31.6108,30.7041ZM426.6508,364.4946c-.4961,1.8646-1.2044,3.6592-2.0928,5.3768-.7388-1.0935-1.652-1.9881-2.7119-2.6401-2.0983-1.2534-4.6387-1.5688-7.3158-.9393-.4558-4.2666-2.228-6.7498-3.8263-8.1155-2.4424-2.1012-5.9098-2.8865-9.9709-2.3745-1.4336-1.7147-2.158-3.2937-2.158-4.7329,0-.15.0089-.2993.0249-.4465.1983-1.8399,1.6283-3.7265,4.4491-5.7923,12.0505,2.7906,20.111,9.5371,23.6017,19.6645ZM384.9738,361.9437c-2.0246-9.7003-.7237-18.9639,3.6857-26.7676.7755-1.3367,2.0096-2.369,3.5231-2.7989,1.9948-.5666,4.0363-.9249,6.1891-1.0406-.6321,1.2314-1.0581,2.6368-1.0581,4.1835,0,2.9554,1.2771,5.3101,2.3458,6.8369-2.3128,1.8629-4.727,4.4469-5.0956,7.8306-.0322.2942-.0475.5908-.0475.8878,0,2.3251.9944,4.699,2.9565,7.1055-3.0107,4.8471-7.1941,6.1048-12.4991,3.7629ZM427.4611,356.6507c-4.5076-7.4239-11.7729-12.5945-21.586-15.2528-1.5079-.41-2.9301-1.183-3.6582-2.5542-.4884-.9001-.8886-2.0526-.8886-3.3236,0-.7474.1842-1.4348.4773-2.0697.6103-1.3522,2.1304-1.9027,3.5866-1.6161,12.1724,2.3861,21.4442,12.5135,22.0688,24.8164ZM308.8252,286.3542h0v6.9801h2.2307c1.1653,0,2.2318-1.3014,2.2318-3.4907,0-2.5581-1.0665-3.4895-2.2318-3.4895h-2.2307ZM306.4154,284.2448h4.9436c3.7965,0,4.3379,3.6466,4.3379,5.5988,0,2.3431-.392,3.7359-1.674,4.5467.8791.8466,1.5478,1.336,1.5478,3.2966l.0066,6.8489h-2.4115v-6.7354c0-1.5466-.727-2.3878-2.3431-2.3541h-1.9975v9.0895h-2.4098v-20.2911ZM321.2301,297.3848h0l1.6701-9.5303,1.6712,9.5303h-3.3414ZM325.8253,304.5359h2.4109l-3.5568-20.2911h-3.555l-3.5591,20.2911h2.4127l.883-5.0406h4.0814l.883,5.0406ZM339.6314,297.5017v2.8766c0,2.5322-2.0537,4.582-4.5832,4.582s-4.5825-2.0498-4.5825-4.582v-11.977c0-2.53,2.0531-4.5809,4.5825-4.5809s4.5832,2.051,4.5832,4.5809v2.8776h-2.4136v-3.0259c0-1.2-.9724-2.1712-2.1696-2.1712s-2.1683.9712-2.1683,2.1712v12.2356c0,1.1989.9713,2.1711,2.1683,2.1711s2.1696-.9722,2.1696-2.1711v-2.9869h2.4136ZM344.9965,284.2448v20.2911h-2.4125v-20.2911h2.4125ZM358.6212,284.2448v20.2911h-2.4126l-5.1837-14.4248v14.4248h-2.4126v-20.2911h2.714l4.8824,13.5843v-13.5843h2.4126ZM371.16,293.8815v6.4968c0,2.5322-2.1722,4.582-4.7017,4.582s-4.5835-2.0498-4.5835-4.582v-11.977c0-2.53,2.1733-4.5809,4.7032-4.5809,2.5315,0,4.7009,2.051,4.7009,4.5809v2.4593h-2.5294v-2.6077c0-1.2-.9722-2.1712-2.1715-2.1712s-2.2898.9712-2.2898,2.1712v12.2356c0,1.1989.9725,2.1711,2.1701,2.1711,1.1966,0,2.2913-.9722,2.2913-2.1711v-4.5973h-2.4752v-2.0098h4.8856ZM388.9433,297.5017v2.8766c0,2.5322-2.051,4.582-4.5815,4.582s-4.5819-2.0498-4.5819-4.582v-11.977c0-2.53,2.051-4.5809,4.5819-4.5809s4.5815,2.051,4.5815,4.5809v2.8776h-2.4097v-3.0259c0-1.2-.9722-2.1712-2.1718-2.1712-1.1988,0-2.1721.9712-2.1721,2.1712v12.2356c0,1.1989.9734,2.1711,2.1721,2.1711,1.1996,0,2.1718-.9722,2.1718-2.1711v-2.9869h2.4097ZM399.854,302.4271v2.1088h-7.8385v-20.2911h2.4142v18.1823h5.4242ZM404.6768,284.2448v16.2437c0,1.1989.9722,2.1711,2.1721,2.1711,1.1961,0,2.1667-.9722,2.1667-2.1711v-16.2437h2.4131v16.1335c0,2.5322-2.052,4.582-4.5798,4.582-2.5309,0-4.584-2.0498-4.584-4.582v-16.1335h2.4119ZM414.9227,284.2448h4.9429c3.7977,0,4.3427,3.6466,4.3427,5.5988,0,2.3431-.3912,3.7359-1.6728,4.5467,1.2816.8108,1.6728,2.2036,1.6728,4.5461,0,1.9528-.545,5.5994-4.3427,5.5994h-4.9429v-20.2911ZM419.5658,302.4271h0c1.1636,0,2.2292-.9331,2.2292-3.4907,0-2.1887-1.0656-3.4901-2.2292-3.4901h-2.2311v6.9807h2.2311ZM417.3347,286.3542v6.9801h2.2311c1.1636,0,2.2292-1.3014,2.2292-3.4907,0-2.5581-1.0656-3.4895-2.2292-3.4895h-2.2311ZM440.6694,284.2448v2.1094h-5.4269v6.9801h3.8418v2.1121h-3.8418v9.0895h-2.4113v-20.2911h7.8382ZM451.0928,284.2448v2.1094h-5.4236v6.9801h3.8434v2.1121h-3.8434v6.9807h5.4236v2.1088h-7.8349v-20.2911h7.8349ZM456.2767,286.3542h0v6.9801h2.2312c1.1673,0,2.2311-1.3014,2.2311-3.4907,0-2.5581-1.0638-3.4895-2.2311-3.4895h-2.2312ZM453.867,284.2448h4.9485c3.7977,0,4.3351,3.6466,4.3351,5.5988,0,2.3431-.3929,3.7359-1.6728,4.5467.8806.8466,1.5476,1.336,1.5476,3.2966l.0056,6.8489h-2.4115v-6.7354c0-1.5466-.7313-2.3878-2.3413-2.3541h-2.0014v9.0895h-2.4098v-20.2911ZM468.6382,286.3542h0v6.9801h2.2334c1.1601,0,2.2289-1.3014,2.2289-3.4907,0-2.5581-1.0688-3.4895-2.2289-3.4895h-2.2334ZM466.2249,284.2448h4.9447c3.7953,0,4.3406,3.6466,4.3406,5.5988,0,2.3431-.3915,3.7359-1.6746,4.5467.8754.8466,1.5456,1.336,1.5456,3.2966l.0109,6.8489h-2.4152v-6.7354c0-1.5466-.7254-2.3878-2.343-2.3541h-1.9958v9.0895h-2.4132v-20.2911ZM481.1141,300.4886h0c0,1.1989.9716,2.1711,2.17,2.1711,1.2005,0,2.1727-.9722,2.1727-2.1711v-12.2356c0-1.2-.9722-2.1712-2.1727-2.1712-1.1984,0-2.17.9712-2.17,2.1712v12.2356ZM478.7059,288.4013c0-2.53,2.0526-4.5809,4.5782-4.5809,2.5332,0,4.5819,2.051,4.5819,4.5809v11.977c0,2.5322-2.0487,4.582-4.5819,4.582-2.5256,0-4.5782-2.0498-4.5782-4.582v-11.977ZM499.2595,302.4271v2.1088h-7.8328v-20.2911h2.4077v18.1823h5.4252Z"/>
</svg>