<!-- Created by @FCLOGO 2021-12-27 17:16:54 . https://fclogo.top/ -->
<!-- FOR PERSONAL USE ONLY NOT FOR COMMERCIAL USE -->
<svg version="1.1" xmlns="http://www.w3.org/2000/svg" xmlns:xlink="http://www.w3.org/1999/xlink" x="0px" y="0px"
	 viewBox="0 0 800 800" enable-background="new 0 0 800 800" xml:space="preserve">
<g>
	<g>
		<path fill="#FFFFFF" d="M400,50H158.6c0,0,0,259.52,0,454.78C158.6,713.64,400,750,400,750s241.4-36.36,241.4-245.22
			c0-195.26,0-454.78,0-454.78H400z"/>
		<path fill="#EB1C24" d="M641.4,50H400H158.6c0,0,0,40.09,0,100.61H641.4C641.4,90.09,641.4,50,641.4,50z"/>
		<path fill="#EB1C24" d="M158.6,504.78C158.6,713.64,400,750,400,750s241.4-36.36,241.4-245.22c0-115.03,0-252.36,0-345.79H158.6
			C158.6,252.42,158.6,389.75,158.6,504.78z"/>
		<path fill="#FFD201" d="M400.02,730.88c-12.27-2.27-62.7-12.91-112.17-42C214.59,645.8,177.44,571.3,177.44,492.22V169.45h445.11
			v322.77c0,79.44-37.46,154.12-111.35,197.22C461.81,718.24,412.2,728.65,400.02,730.88z"/>
		<path fill="#EB1C24" d="M400.02,724.49c-15.08-2.88-62.22-13.52-108.99-41.02c-34.64-20.37-61.67-48.1-80.34-82.42
			c-17.64-32.42-26.97-70.06-26.97-108.83V175.73h432.55v316.49c0,38.94-9.4,76.71-27.2,109.22c-18.83,34.41-46.1,62.19-81.04,82.57
			C461.33,711.26,414.88,721.68,400.02,724.49z"/>
		<path fill="#FFFFFF" d="M158.6,150.61c0,2.75,0,5.54,0,8.37H641.4c0-2.83,0-5.62,0-8.37H158.6z"/>
		<rect x="190" y="182.01" fill="#FFFFFF" width="419.99" height="329.05"/>
	</g>
	<g>
		<path d="M492.82,214.66l-0.25-1.31h-1.32H308.75h-1.32l-0.25,1.31c-18.06,102.19-1.78,164.73,23.71,191.99
			c24.4,26.09,59.44,33.84,69.11,33.36c9.67,0.47,44.7-7.27,69.11-33.36C494.6,379.39,510.87,316.85,492.82,214.66z"/>
		<path fill="#EB1C24" d="M400.88,437.93c-0.28,0-0.54-0.01-0.78-0.02l-0.1,0l-0.1,0c-0.24,0.01-0.5,0.02-0.78,0.02
			c-11.31,0-43.8-8.24-66.69-32.72c-13.49-14.42-23.05-37.52-27.65-66.79c-5.4-34.36-3.92-75.74,4.39-122.99h181.66
			c8.31,47.24,9.79,88.62,4.39,122.99c-4.6,29.27-14.16,52.37-27.65,66.79C444.69,429.7,412.2,437.93,400.88,437.93
			C400.88,437.93,400.88,437.93,400.88,437.93z"/>
	</g>
	<g>
		<g>
			<g>
				<path fill="#231815" d="M431.25,253.68c0,0,7.34-0.66,11.37-0.28c0,0-2.35,9.68-8.18,11.56
					C434.45,264.96,435.2,258.19,431.25,253.68z"/>
				<g>
					<g>
						<g>
							<path fill="#231815" d="M375.96,263.58c0,0,2.93,5.87,6.16,6.02c0,0-4.7-3.08-2.64-13.35c0,0,1.95,3.61,2.93,4.4
								c2.35,1.91,3.4,1.13,2.65-1.34c-0.52-1.69-3.38-1.59-2.65-15.97c0,0,6.31,0.59,8.95,2.64c1.39,1.09,2.05,3.23,15.84,1.47
								c1.77-0.23,13.06-1.03,15.7-0.15s13.06,7.19,11.88,15.84c-0.51,3.81,0.74,4.7-5.28,17.9c-0.48,1.04,3.37-0.15,2.2,4.99
								c-0.43,1.86,0.59,5.28-4.7,7.33c-1.56,0.61-6.45,1.17-8.8,5.28c-0.63,1.1-3.23,3.96-5.57,4.11
								c-2.35,0.15-10.12,0.73-15.4-2.49C395.67,299.3,372.74,280.3,375.96,263.58z"/>
							<path fill="#F6DEBD" d="M383.45,244.75c0,0,5.57-0.49,11.93,4.89c0,0-1.08,3.72,3.91,4.01c1.17,0.07,7.43,1.57,7.24-2.84
								c-0.05-0.96-0.98-2.83-0.98-2.83s8.71-1.57,15.65,7.14c0,0,1.47-2.25-2.05-7.92c0,0,10.85,2.64,14.28,11.15
								c0.56,1.38,2.84,6.94-3.91,19.27c-0.77,1.4,0.29,12.91,0.29,12.91s-3.33,2.64-7.53,3.71c-0.99,0.25-2.15,0.59-3.42,2.05
								c-1.27,1.47-4.6,5.28-5.97,5.57s-11.25,0.39-14.96-2.44c-0.88-0.68-19.85-16.82-21.12-32.57c0,0,2.93,4.4,6.45,4.01
								c0,0,1.86,0.3-1.76-4.01c-1.29-1.54-2.35-4.1-1.56-8.21c0,0,8.02,9.97,5.67-0.78C385.08,255.46,382.57,256.59,383.45,244.75z
								"/>
							<g>
								<g>
									<path fill="#231815" d="M383.31,245.62l-0.51,0.11l-0.18,7.6l0.88-0.25c0.33-0.1,0.58-0.1,0.73-0.01
										c0.35,0.21,0.54,1.02,0.7,1.73c0.17,0.75,0.35,1.53,0.77,2.13c1.27,1.82,2.63,2.2,3.55,2.21c1.28,0,2.24-0.71,2.67-1.32
										c2.81-3.97,0.5-6.69-1.36-8.88C387.12,244.86,383.46,245.59,383.31,245.62z"/>
									<path fill="#BE8A3B" d="M383.45,246.27c0,0,3.38-0.73,6.6,3.08c1.89,2.24,3.81,4.55,1.32,8.07
										c-0.72,1.01-3.08,2.05-5.14-0.88c-1.01-1.45-0.44-4.84-2.93-4.11L383.45,246.27z"/>
								</g>
								<g>
									<g>
										<g>
											<path fill="#231815" d="M384.91,262.26c0,0,0.59,0.88,5.14,1.61c1.24,0.2,3.23,1.91,2.35,5.28
												c-0.21,0.8-1.47,2.05-3.67,0.88c-0.65-0.35-1.17-3.08,1.32-3.81c0,0-2.34-1.17-2.64,2.2c-0.29,3.38,2.64,3.24,2.64,3.24
												s-0.15,10.4,2.05,11.72c0.8,0.48,1.03,1.18,1.17,2.2c0.15,1.03,1.47,7.04,12.62,8.8c1.6,0.25,7.48,1.03,8.65-3.81
												l1.61,0.15c0,0-2.05,6.75-6.16,6.6c-1.17-0.04-8.36-1.03-13.35-3.81c-0.91-0.51-1.76-0.29,1.76,1.47
												c3.52,1.76,7.92,3.96,12.03,3.52c1.46-0.16,6.75-2.2,7.34-7.33c0.16-1.44-5.28-1.28-6.16-1.38
												c-0.88-0.09-9.98-1.85-15.26-7.43c-1.74-1.83-4.84-4.52-4.99-10.69c0,0,2.05-0.7,2.05-5.59c0-2.64-2.94-3.23-4.4-3.38
												c-1.47-0.15-3.81,0.29-3.52-0.88L384.91,262.26z"/>
											<path fill="#CF0916" d="M395.77,288.37c0,0,12.91-1.61,14.52,5.28C410.29,293.65,402.08,295.85,395.77,288.37z"/>
										</g>
										<g>
											<g>
												<path fill="#231815" d="M396.3,272.24c-2.37,0.5-4.21,2.52-5.64,6.18c-0.3,0.76-0.41,2.46-0.54,4.27
													c-0.09,1.36-0.19,2.76-0.36,3.29c-0.53,1.73-2.12,5-3.11,5.13c-1.52,0.21-6.77-0.23-10.31-14.39l-1.37-4.18l0.38,4.34
													c0.02,0.34,0.66,8.35,5.98,14.67c0.61,0.72,2.55,2.05,3.94,1.93c3.38-0.28,5.59-2.37,6.22-5.89l0.11-0.75
													c0.29-2.04,1.05-7.47,2.76-10.33c0.69-1.14,1.57-1.91,2.22-1.91c0.39,0,1.43,0.35,2.19,1.17
													c0.55,0.59,0.79,1.26,0.73,2.01c-0.09,1.09-0.41,1.45-0.76,1.68c-0.55,0.37-1.3,1.97-1.21,3.42
													c0.07,1.11,0.6,1.95,1.55,2.43l0.32,0.22c1.1,0.8,4.44,3.22,12.57,5.05c1.59,0.36,13.9,1.39,17.32-0.69
													c0.57-0.35,2.62-2.27,2.62-4.31c0-0.06,0-0.12-0.01-0.18c-0.08-1.25-0.91-2.24-2.47-2.94c-0.67-0.3-1.56-0.36-2.18-0.36
													c0.34-0.78,1.39-2.07,4.7-2.01c0.25,0,0.96,0.23,1.57,0.9c0.45,0.49,0.97,1.37,0.88,2.78l-0.28,1.06
													c-0.49,1.62-1.31,4.33-1.09,7.23c0.1,1.37,0.79,3.73,4.16,4.07c1.19,0.12,6.32-1.42,8-4.04l3.3-4.09l-3.97,3.38
													c-0.05,0.03-4.61,2.67-7.08,2.67c-0.95,0-1.67-0.28-2.14-0.83c-0.56-0.67-0.75-1.75-0.53-3.04l0.5-1.97
													c0.59-2.02,1.33-4.52,0.5-8.05c-0.16-0.69-1.01-1.44-2.16-1.92c-0.87-0.36-3.15-1.06-5.43,0.34l-0.55,0.25
													c-0.52,0.2-1.22,0.48-2.31,1.23c-0.8,0.55-2.32,0.9-2.62,0.75c-0.51-0.26-1.83-1.19-2.56-2.19
													c-0.82-1.13-1.81-3.01-5.49-2.8l-0.7-0.11c-1,0.05-1.17,0.24-2.02,0.81c-0.76,0.5-1.46,0.82-3.16,0.82
													c-0.04,0-4.54,0.13-5.53,0.4c-0.31-0.11-1.41-1.24-1.83-2.33C400.87,273.84,398.39,271.79,396.3,272.24z"/>
												<path fill="#BE8A3B" d="M375.87,276.83c0,0,0.59,8.12,5.87,14.38c0.57,0.67,2.35,1.86,3.52,1.76
													c1.17-0.1,4.89-0.58,5.77-5.48c0.18-1.01,0.88-7.82,2.93-11.25c0.63-1.05,1.66-2.15,2.64-2.15s3.61,1.27,3.42,3.71
													c-0.09,1.07-0.39,1.66-0.98,2.05c-0.59,0.39-2.05,3.81,0.29,4.99c0.56,0.28,3.42,3.13,12.78,5.23
													c1.49,0.34,13.73,1.33,16.96-0.63c0.84-0.51,4.79-4.5,0.2-6.55c-1-0.44-2.64-0.29-2.64-0.29s0.2-3.13,5.38-3.03
													c0.81,0.02,3.13,1.17,2.94,4.21c-0.05,0.79-1.66,4.4-1.37,8.22c0.11,1.49,0.88,3.33,3.72,3.62
													c0.98,0.1,5.96-1.37,7.53-3.81c0,0-4.69,2.74-7.33,2.74c-2.64,0-3.59-1.97-3.16-4.46s2.09-5.23,1.01-9.82
													c-0.27-1.15-3.81-3.13-6.84-1.27c-0.53,0.33-1.27,0.39-2.84,1.47c-0.8,0.55-2.54,1.07-3.13,0.78
													c-0.58-0.29-1.95-1.27-2.74-2.35c-0.78-1.08-1.76-2.45-5.18-2.25c-1.37,0.08-1.47,0-2.35,0.59s-1.66,0.59-3.42,0.59
													c-0.69,0-5.08,0.2-5.48,0.39c-0.39,0.2-1.86-1.37-2.35-2.64c-0.49-1.27-2.74-3.23-4.6-2.84
													c-1.86,0.39-3.72,1.86-5.28,5.87c-0.5,1.28-0.49,6.26-0.88,7.53s-2.05,5.28-3.52,5.48
													C385.26,291.8,379.58,291.7,375.87,276.83z"/>
											</g>
											<g>
												<g>
													<path fill="#231815" d="M401.49,276.2c0,0-0.88-7.04,0-9.83c0.49-1.56,1.91-7.48,7.33-8.95
														c0.99-0.27,3.52,0.88,3.52,0.88l-0.59-1.91c0,0-0.29-10.12-4.84-10.12v-5.28c0,0,5.13,3.37,6.16,7.48
														c0.43,1.72,0.15,9.83,0.15,9.83s2.93,3.96,2.05,11.74c0,0,1.91-6.5,4.26-8.22c0,0,2.2-2.05,2.93-2.79
														c0.73-0.73,1.47-2.93,1.47-4.11s2.2-6.16,9.54-9.09c0,0-1.47,5.72-1.91,6.16s-4.11-0.58-4.99,1.18
														c-0.88,1.76-1.76,3.23-1.91,4.25c-0.15,1.03-1.91,3.23-2.64,3.52c0,0,4.84-1.03,6.01,2.35
														c0.78,2.24,2.5,6.39-0.59,12.03c-1.42,2.59-2.2,4.35-4.65,5.62c-2.04,1.06-2.69-2.84-2.69-2.84l-5.28-2.64l-4.55,1.61
														l-5.87,0.15L401.49,276.2z"/>
													<g>
														<path fill="#FFFFFF" d="M402.52,275.46c0,0-1.32-1.17-0.59-6.75c0.2-1.48,1.47-9.1,7.63-9.68
															c1.31-0.12,4.99,0.29,5.43,7.34c0.07,1.17-0.22,8.14-2.86,10.05c-0.84,0.61-0.81,1.39-4.33,0.95
															C406.48,277.2,402.52,275.46,402.52,275.46z"/>
														<path fill="#FFFFFF" d="M416.6,276.05l-3.23-0.44c0,0,3.96-10.12,6.46-11.88c1.18-0.83,5.43-3.23,7.92,1.03
															c0.67,1.13,1.03,6.01,0.15,8.07c-0.88,2.05-1.62,4.69-4.7,7.48c-0.85,0.77-2.05-0.15-2.2-0.73
															C420.85,278.98,418.51,277.37,416.6,276.05z"/>
														<g>
															<g>
																<path fill="#231815" d="M402.52,273.12c0,0,0.44-7.48,3.96-9.24c1.17-0.58,4.55-0.15,4.55,4.11
																	c0,1.47-0.29,7.48-3.23,9.39C406.49,278.22,402.52,273.12,402.52,273.12z"/>
																<path fill="#231815" d="M416.6,276.05c0,0-0.15-4.84,1.18-6.9c0.51-0.79,2.05-3.08,3.37-3.08s3.67,1.17,2.94,6.89
																	c-0.2,1.52-1.03,4.99-3.67,5.43C417.78,278.84,416.6,276.05,416.6,276.05z"/>
															</g>
															<g>
																<g>
																	<path fill="#A6CAD8" d="M402.66,274.58c0,0-0.15-6.01,2.49-9.1c0.88-1.03,2.94-1.61,4.84,0.59
																		c0.56,0.64,0.44,5.88-0.58,8.36c-0.45,1.09-0.88,2.05-2.05,2.93C406.18,278.25,402.66,274.58,402.66,274.58z"/>
																	<path fill="#A6CAD8" d="M417.33,272.68c0,0,0.15-2.64,1.91-4.99c0.56-0.75,3.37-1.32,3.96,1.03
																		c0.24,0.96,1.17,6.46-1.76,9.1C420.56,278.6,417.33,272.68,417.33,272.68z"/>
																</g>
																<g>
																	<path fill="#231815" d="M406.77,265.78c1.47-0.06,2.79,2.49,2.49,4.55c-0.19,1.31-1.61,6.89-2.49,7.33
																		c-0.88,0.44-1.61,0.44-2.93,0.29s-0.88-2.51-0.73-4.26C403.25,271.96,403.4,265.93,406.77,265.78z"/>
																	<path fill="#231815" d="M420.71,268.71c1.18,0,1.61,1.32,1.61,2.94c0,1.61,0.15,5.43-1.91,6.75
																		c-0.45,0.28-2.93-1.17-3.23-1.62c-0.29-0.44,0-2.49,0.29-3.37C417.78,272.53,418.36,268.71,420.71,268.71z"/>
																	<g>
																		<path fill="#FFFFFF" d="M403.69,277.51c0,0-0.44-1.47-0.29-2.34c0.15-0.88,0.58-2.17,1.02-3.21
																			c0.44-1.04,2.06-1.74,1.91,0S406.18,277.81,403.69,277.51z"/>
																		<path fill="#FFFFFF" d="M420.12,273.41c0,0,0.15,3.23-0.58,3.67c-0.73,0.44-1.76-0.44-1.47-1.47
																			C418.36,274.58,418.07,273.26,420.12,273.41z"/>
																		<polygon fill="#FFFFFF" points="405.89,267.83 407.21,268.27 407.21,269.01 405.6,269.15 																		"/>
																		<polygon fill="#FFFFFF" points="419.39,270.03 420.71,270.18 420.41,271.36 419.24,271.36 																		"/>
																	</g>
																</g>
															</g>
														</g>
													</g>
												</g>
												<path fill="none" stroke="#231815" stroke-width="0.5" stroke-miterlimit="22.9256" d="M415.45,270.2
													c0,0-1.49,5.26-2.52,6"/>
												<polyline fill="none" stroke="#231815" stroke-width="0.5" stroke-miterlimit="22.9256" points="412.93,276.2 
													415.43,276.05 415.45,270.2 												"/>
											</g>
											<g>
												<path fill="#231815" d="M404.57,285.14c0,0-1.76-1.91,0.15-3.52c0.65-0.55,2.79-1.61,4.11,0.29c0,0,0.29-2.79,1.03-4.3
													l0.88,0.15c0,0-1.18,3.28-1.03,4.3c0.15,1.03,1.02,1.47,1.02,1.47l-0.15,1.76h-1.62c0,0,0.3-2.64-2.34-2.64
													c-1.91,0-1.17,2.2-1.17,2.2L404.57,285.14z"/>
												<path fill="#231815" d="M418.65,287.05c0,0-0.88,0.15-0.73-1.62c0.15-1.76,2.35-1.76,2.35-1.76l0.6-3.62l0.56,0.15
													l-0.28,3.47c0,0,3.08,0,3.08,2.05c0,1.03-0.15,2.05-1.91,2.49c0,0,2.64-2.93-0.73-2.93
													C421.59,285.29,418.65,285.29,418.65,287.05z"/>
											</g>
											<path fill="#231815" d="M402.32,277.48c0.04,1.05-0.26,1.87-0.46,1.96c-0.38,0.18-1.57-0.36-2.1-0.84l-0.58,0.81
												c0.31,0.28,1.92,1.67,3.17,1.09c1.12-0.52,1.07-2.18,1.04-2.72L402.32,277.48z"/>
											<path fill="#231815" d="M423.64,280.92l0.19,3.31l4.33-1.83l-1.08-0.74c0,0-1.35,0.54-2.18,0.87
												c-0.04-0.74-0.11-1.94-0.11-1.94L423.64,280.92z"/>
										</g>
									</g>
									<path fill="#231815" d="M382.76,272.43c0,0-1.95-0.68-1.86,0.98c0.1,1.66,1.17,2.93,2.44,2.64
										c1.27-0.29,1.96-1.17,1.86-2.93c-0.1-1.76-1.66-3.52-2.45-4.11c-0.78-0.59-0.78,1.56-0.78,1.56s1.88,0.33,2.21,1.39
										c0.33,1.06,0.72,2.82-0.94,2.82s-2.05-1.86-0.78-1.96L382.76,272.43z"/>
								</g>
							</g>
						</g>
						<g>
							<path fill="#FFFFFF" d="M432.25,254.83c0,0,7.43-0.98,9-0.59c0,0,0.78,4.3-6.45,10.17
								C434.79,264.41,435.77,259.32,432.25,254.83z"/>
							<g>
								<path fill="#231815" d="M433.5,257.44l-0.32,0.32l0.62,1.11c0.38,0.71,0.5,2.18,0.42,3.54l0.14,1.8l1.12-0.9
									c1.5-0.86,3.96-5.15,4.68-6.45l0.65-1.18l-1.32-0.28C436.27,254.72,433.61,257.34,433.5,257.44z"/>
								<path fill="#BE8740" d="M433.97,257.92l-0.24,0.23l0.24,0.23c0.71,0.72,0.95,3.2,0.68,4.05l-0.04,0.62l0.53-0.31
									c1.41-0.8,4.12-5.64,4.43-6.19l0.22-0.39l-0.44-0.1C436.48,255.45,434.07,257.82,433.97,257.92z"/>
								<path fill="#BE8740" d="M434.21,258.15c0,0,2.35-2.35,5.08-1.76c0,0-2.93,5.28-4.3,6.06
									C434.99,262.46,435.18,259.13,434.21,258.15z"/>
							</g>
						</g>
					</g>
					<g>
						<g>
							<g>
								<path fill="#BC8941" d="M403.25,240.49c-1.13-0.7-4.49-14.75-4.63-17.69c-0.14-2.95-0.14-4.21-1.83-4.35
									c-1.69-0.14-2.25,3.23-2.81,5.06s0.99,14.32,0.99,14.32c-2.11-0.56-3.09-1.97-5.06-3.51c-1.97-1.55-3.13-1.75-3.65-1.4
									c-2.11,1.4,2.81,7.08,4.21,7.58c6.32,2.25,5.34,4.35,5.34,8.15c0,3.79,3.09,3.65,5.62,3.51s3.79,0.42,3.51-0.98
									c-0.19-0.97,0.08-2.27,0.27-2.98c-0.73-2.01-1.48-5.44-1.94-7.71C403.27,240.48,403.25,240.49,403.25,240.49z"/>
								<path fill="#DA8C18" d="M414.07,237.97c2.25-1.69,8.85-0.7,8.85-0.7c-0.3-1.2-2.81-2.9-4.23-3.78
									c0.01,0.07,0.01,0.12,0.01,0.12c-7.93-0.69-15.29,6.72-15.43,6.87c0.46,2.27,1.22,5.7,1.94,7.71
									c0.08-0.32,0.15-0.53,0.15-0.53s1.12,0.14,1.12-0.98c0-8.43,0.84-5.62,0.84-5.62c4.35,2.66,5.48,6.88,5.48,6.88
									c5.89,1.67,7.87,5.76,7.87,5.76c0.14-6.18-5.62-9.83-5.62-9.83c5.81-1.14,9.36,3.04,10.61,4.62
									C424.77,238.1,414.07,237.97,414.07,237.97z"/>
								<path fill="#BC8941" d="M429.66,221.68c-3.93,4.91-5.06,13.2-5.06,13.2c-1.69-1.27-2.81-6.46-4.64-6.32
									c-1.66,0.13-1.35,4.2-1.28,4.93c1.42,0.88,3.93,2.57,4.23,3.78c0,0-6.6-0.98-8.85,0.7c0,0,10.7,0.13,11.59,10.52
									c0.14,0.18,0.26,0.33,0.35,0.43c1.26,1.54,3.93-0.84,3.93-0.84c-0.42-9.69,1.13-19.8,1.97-24.3
									C432.74,219.29,430.34,220.82,429.66,221.68z"/>
							</g>
							<path fill="#FFFFFF" stroke="#DA8C18" stroke-width="0.216" stroke-miterlimit="22.9256" d="M416.6,244.29
								c0,0,3.79-1.12,4.49,1.54C421.09,245.83,416.88,246.11,416.6,244.29z"/>
							<path fill="#FFFFFF" d="M416.6,237.82c0,0,3.09-1.4,2.95,0.42C419.55,238.24,418.14,239.23,416.6,237.82z"/>
						</g>
						<path fill="#231815" d="M432.23,220.28c-0.61-0.4-1.47-0.35-2.37,0.16c-3.31,1.88-4.85,8.91-5.41,12.4
							c-1.12-2.54-3.49-5.15-4.34-5.15c-0.89,0-1.84,0.94-1.84,2.69v3.35c-0.67-0.1-1.37-0.15-2.08-0.21l-0.95-0.07
							c-2.99-0.26-10.32,5.38-12.22,6.89c-1.14-3.74-2.16-9.49-2.95-13.95c-0.58-3.3-1.01-5.69-1.32-6.44
							c-0.47-1.14-1.05-1.71-1.76-1.75c-1.3-0.08-2.37,1.78-2.94,2.78c-0.62,1.08-0.82,3.36-0.82,5.89c0,3.7,0.43,7.88,0.63,9.68
							c-0.19-0.12-0.42-0.26-0.42-0.26c-1.32-0.77-2.95-1.73-3.74-2.81c-0.74-1.01-2.08-1.54-3.21-1.25
							c-0.92,0.24-1.53,0.97-1.66,2.01c-0.31,2.52,4.62,7.18,6.58,8.04c3.31,1.45,3.33,2.41,3.4,4.99l0.12,2.39
							c0.4,4.3,4.65,4.02,7.74,3.82l1.15-0.07c0.68-0.03,1.21-0.35,1.55-0.91c0.6-1.01,0.53-2.72,0.2-4.45
							c9.06-2.04,14.94,6.76,15,6.85l0.69,1.06l0.12-1.26c0.03-0.3,0.04-0.59,0.04-0.88c0-4.66-3.29-8.25-4.8-9.65
							c5.3-0.62,8.15,4.83,8.28,5.08l0.79,0.32l1.45,1.06l0.16-0.01c0.08-0.01,2.05-0.17,3.07-1.45c0.5-0.62,0.69-1.39,0.56-2.28
							c-0.26-1.8,0.42-9.38,2.01-22.53l0.1-0.81C433.24,221.87,432.97,220.78,432.23,220.28L432.23,220.28z M404.63,252.07
							L404.63,252.07c-0.19,0.31-0.45,0.47-0.84,0.49l-1.17,0.07c-3.68,0.24-6.51,0.18-6.81-3.02l-0.12-2.33
							c-0.06-2.64-0.1-4.1-3.92-5.78c-1.86-0.81-6.3-5.19-6.06-7.12c0.09-0.68,0.43-1.12,1.01-1.27c0.77-0.2,1.75,0.19,2.27,0.91
							c0.89,1.23,2.62,2.24,4.01,3.05l1.94,1.18l-0.1-0.89c-0.46-3.63-1.38-13.56-0.05-15.88c0.4-0.7,1.39-2.43,2.14-2.39
							c0.33,0.02,0.69,0.45,1,1.21c0.27,0.66,0.73,3.25,1.26,6.25c1.01,5.68,2.38,13.45,3.94,16.66
							C404.05,245.08,405.65,250.35,404.63,252.07L404.63,252.07z M415.51,243.44L415.51,243.44l-0.88,0.21l0.71,0.56
							c0.05,0.04,4.85,3.92,5.15,9.14c-1.95-2.37-7.31-7.71-14.84-6.17c-0.21-0.55-2.09-5.46-2.29-5.98
							c2.67-2.15,9.36-7.08,11.79-6.87l0.96,0.08c0.77,0.06,1.48,0.13,2.14,0.25c0,0,1.45,0.46,1.83,0.59
							c0.6,0.32,1.11,0.77,1.52,1.43c-0.01,0-0.01,0-0.01,0c-0.76-0.13-2.04-0.34-2.04-0.34s-4.32,0.15-5.27,1.36l-0.51,0.65
							l0.82,0.06c0.04,0,3.38,0.26,5.54,1.45c0.83,0.61,2.44,1.89,3.7,3.45c0.02,0.03,0.04,0.05,0.05,0.08
							c0.58,1.01,0.95,2.25,1.01,3.82c-0.01,0.14-0.01,0.26-0.02,0.38C423.49,245.64,420.32,242.26,415.51,243.44L415.51,243.44z
							 M415.88,237.67L415.88,237.67c0.94-0.35,2.31-0.4,3.61-0.33l-0.08,1.22C418.17,238.08,416.82,237.81,415.88,237.67
							L415.88,237.67z M432.17,223.45L432.17,223.45l-0.1,0.8c-0.54,4.45-2.06,17.08-2.06,21.6c0,0.49,0.02,0.89,0.06,1.17
							c0.02,0.14,0.03,0.27,0.03,0.4c0,0.47-0.13,0.87-0.4,1.2c-0.68,0.84-1.94,1.06-2.3,1.1c-0.2-0.15-1.18-0.87-1.62-1.19
							c0.02-0.29,0.04-0.59,0.04-0.87c0-0.14-0.02-0.26-0.03-0.4c0.01-0.15,0.01-0.3,0.01-0.46c0-1.18-0.24-2.68-1.18-3.93
							c-0.94-1.62-2.32-2.73-3.71-3.6c-0.08-0.05-0.16-0.09-0.25-0.14c-0.15-0.11-0.29-0.21-0.37-0.27
							c0.02-0.29,0.06-0.96,0.09-1.46c0.41,0.04,0.79,0.09,1.14,0.14c0.31,0.05,0.63,0.11,0.91,0.15l0.78,0.15l-0.29-0.73v-0.01
							c0,0,0,0,0-0.01l0,0c0-0.01-0.01-0.01-0.01-0.01c-0.05-0.15-0.12-0.3-0.2-0.47c-0.81-1.66-2.07-2.37-3.55-2.72
							c0-1.09,0-3.52,0-3.52c0-1.12,0.5-1.81,0.96-1.81c0.56,0.17,3.8,3.75,4.06,6.34l0.88,0.01c0.01-0.12,1.29-11.46,5.26-13.71
							c0.46-0.25,1.08-0.45,1.45-0.2c0.32,0.21,0.48,0.75,0.48,1.53C432.23,222.82,432.21,223.12,432.17,223.45z"/>
					</g>
				</g>
			</g>
			<g>
				<g>
					<path fill="#231815" d="M329.78,313.03c0,0,1.96-0.78,4.7,0.59c0,0,3.32-8.02,22.1-10.76l-0.19-1.96c0,0,18.19-3.13,24.64-1.18
						l0.39,0.59l4.11,0.39l25.43,4.3c0,0,13.3-2.34,23.47,9.98c0,0-0.59,2.93,1.76,5.28s8.22,11.74,12.71,7.43
						c1.39-1.33,5.28-4.5,10.95,0.98c0,0,10.76,0,8.8,6.85c-0.85,2.97-2.74,2.93-2.74,2.93s1.18,4.5-3.33,5.08
						c0,0,0.78,4.5-1.96,4.89s-7.04,1.76-9.39-2.35c0,0-6.26,2.35-7.83-6.26c0,0-12.71-1.96-18.38-7.04c0,0,0,1.76-3.52,0
						c-1.51-0.75-3.13-3.52-3.52-1.56c-0.39,1.96-3.72,13.89-11.93,18.39c-1.38,0.76-1.18,1.56-1.18,2.74
						c0,1.17-0.58,37.95-0.58,37.95s-7.24,3.52-10.37,6.65s-10.37,4.5-16.82-3.13c-2.49-2.94-4.11-10.56-4.5-12.91
						c0,0-2.35,0.2-3.91-1.17c-1.56-1.37-7.43-5.67-8.8-6.85c-1.37-1.17-8.8-3.13-8.8-6.45c0-3.33,3.71-3.72,5.86-4.11
						c2.15-0.39,3.33-0.39,2.74-2.93c-0.59-2.54-1.96-17.21,8.6-21.13c0,0,2.93-3.91-1.96-18.19c0,0-5.48,0.98-7.04,0.78l-0.78-1.76
						c0,0-11.93-0.78-12.91,0.78s-1.37,3.91,2.93,4.11c0,0,3.91,3.72-4.11,9c-0.95,0.62-2.74,0.98-2.74,0.98s-1.57-0.2-2.35,1.37
						c-0.78,1.56-4.3,1.18-5.48,0.39c-1.18-0.78-2.74-1.56-4.5-1.76s-2.54-1.37-2.35-2.94c0.19-1.56,0.39-2.93-1.76-4.1
						c-2.15-1.18-3.13-1.37-1.96-4.11c0.66-1.54,0.78-1.76-0.2-3.72C322.15,317.13,325.87,314.01,329.78,313.03z"/>
					<g>
						<g>
							<g>
								<path fill="#CF0916" d="M357.34,302.54c0,0,18.69-3.74,27.24-0.8c8.54,2.94,27.23,4.8,27.23,4.8s13.35-0.8,21.63,8.55
									l-9.34,16.82c0,0-6.14,1.6-6.14-6.94c0,0-0.8,5.87-1.6,8.01c-0.8,2.14-3.47,11.48-9.88,15.49c-1.83,1.14-2.94,0-6.14-1.07
									c-3.21-1.07-19.23-10.95-30.44-10.68c0,0,0.27-12.01-2.94-16.82c0,0,2.4-1.87,3.21-2.14c0,0-3.47,0.8-5.08,1.34
									c-1.6,0.53-5.61,0.8-5.61,0.8S357.34,309.75,357.34,302.54z"/>
								<g>
									<path fill="#F6DEBD" d="M432.9,317.76c0,0,6.94,10.15,11.21,11.75c1.58,0.59,1.87,1.87,6.67-2.14
										c1.2-0.99,9.08-0.8,8.55,5.61c-0.13,1.6,2.67,7.75-2.67,6.68c-1.31-0.26-3.47-3.74-2.93-7.21c0,0-1.34,1.34-1.34,2.41
										s1.07,2.94-0.53,3.74s-4.27-1.07-4.27-1.07s-1.87,2.67,5.61,2.14l0.27,1.87c0,0-4,0.26-2.67,3.2c0,0-5.6,3.2-6.67-5.88
										c0,0-17.36-3.2-18.69-7.47L432.9,317.76z"/>
									<path fill="#F6DEBD" d="M459.6,329.78c0,0,6.67,1.34,7.21,2.67c0.53,1.34,0.8,2.94-0.27,4.01
										c-1.07,1.07-3.47,1.34-5.07,0.27C459.87,335.65,459.87,335.39,459.6,329.78z"/>
									<path fill="#F6DEBD" d="M460.61,337.57c0,0,4.5,0.39,4.5,1.76s-1.76,3.72-2.74,3.72c-0.98,0-3.91,0.98-6.65-0.59
										c-1.22-0.7-1.76-1.76-0.98-2.74C454.74,339.72,460.81,342.45,460.61,337.57z"/>
									<path fill="#F6DEBD" d="M461.79,344.41c0,0,0.39,3.91-4.5,3.72c-4.89-0.2-5.28-1.17-5.87-3.52
										c-0.59-2.35,1.56-2.94,2.93-2.15C455.72,343.24,456.11,344.21,461.79,344.41z"/>
								</g>
							</g>
							<g>
								<path fill="#231815" d="M385.37,299.87c0,0,1.47-1.62,4.81-2.4l0.53-4.27l6.52,7.06c0,0,9.5,2.82,11.9,2.29
									c0,0,8.01,8.81-4.81,18.69l-0.8-7.48l-2.41,3.47l-0.53-5.07l-6.41,6.94C394.19,319.1,384.03,308.15,385.37,299.87z"/>
								<g>
									<g>
										<g>
											<path fill="#FFFFFF" d="M386.38,300.4c0,0,2.05-1.76,3.23-1.17c0,0-1.47,4.11,10.86,11.73l-5.87,5.87
												C394.6,316.83,386.09,306.27,386.38,300.4z"/>
											<path fill="#FFFFFF" d="M409.27,305.98c0,0,3.52,6.75-3.81,12.62l-0.59-6.16L409.27,305.98z"/>
											<g>
												<path fill="#CF0916" d="M387.26,300.4c0,0,2.64,9.1,10.27,13.5l-1.47,1.47C396.06,315.36,385.5,305.39,387.26,300.4z"/>
												<path fill="#CF0916" d="M404.98,314.52c0,0,3.41-1.21,4.58-4.73c0,0,0.59,3.81-4.4,5.87L404.98,314.52z"/>
											</g>
										</g>
										<path fill="#F6DDBD" d="M393.52,296.68c0.92,1.03,0.58,5.09,14.67,6.26c0,0,0.58,4.89-5.87,10.17v-2.34
											c0,0-6.06-3.13-11.15-9.59c-1.31-1.66-0.78-1.96-0.2-3.13C391.56,296.88,391.96,294.92,393.52,296.68z"/>
									</g>
									<g>
										<path fill="#FFE100" d="M359.29,305.09c0,0,5.87-2.35,22.1-2.54c1.77-0.02,1.37,1.56-0.39,1.56
											C379.24,304.12,365.16,303.53,359.29,305.09z"/>
										<path fill="#FFE100" d="M411.52,307.25c0,0,16.23,1.96,20.73,9.97l-0.59,1.37c0,0-5.87-9.78-20.15-9.78L411.52,307.25
											L411.52,307.25z"/>
									</g>
								</g>
							</g>
						</g>
						<path fill="#F6DEBD" d="M356.36,303.53c0,0,0.78,9.2,1.96,14.28c0,0-15.85-1.96-16.43,5.28c0,0,1.37-1.96,1.96-0.39
							c0.58,1.56,2.74,2.15,3.33,2.15s0.78,2.15,0,3.13s-2.54,3.91-4.11,4.5c-1.56,0.58-2.35,0.2-3.13-0.39
							c-0.78-0.59-1.56-1.56,1.37-3.52c0.73-0.49-0.39-1.37-1.76,0.2c-1.37,1.56-3.13,2.74-0.98,3.72c0.91,0.41,1.76,0.98,0.39,1.76
							s-2.34,1.76-5.28,0.39c-1.51-0.71-5.48-1.57-5.48-1.57s-0.59-2.54,0-3.52c0.59-0.98,0-1.76-1.37-2.35
							c-1.37-0.58-3.72-1.37-2.54-3.91c0.53-1.14,1.96-2.54,0.78-2.94c-1.17-0.39-2.35-2.35,0.2-4.3c0.83-0.65,6.84-4.11,8.6-1.18
							l-1.17,2.15c0,0,0.78,0,2.74-3.32C337.38,310.38,343.25,307.44,356.36,303.53z"/>
					</g>
				</g>
				<g>
					<path fill="#FFFFFF" d="M369.47,337.35c0,0,12.6,2.14,17.47,4.64c2.27,1.16,7.96,4.63,13.55,5.94c0.96,0.22,3.8,0.59,4.28,1.67
						l-3.21-0.48c0,0-4.87-1.78-6.66-2.5c-1.78-0.71-8.44-4.51-14.86-5.94c-1.43-0.32-6.77-2.02-10.58-2.73L369.47,337.35
						L369.47,337.35z"/>
					<g>
						<g>
							<g>
								<path fill="#FFFFFF" d="M369.07,338.35l5.67,1.76c0,0-6.65,5.87,0,20.93l-0.78,2.74c0,0-8.21,1.76-10.95,0.98
									c-2.74-0.78-2.93-4.3-2.93-5.09S356.75,344.8,369.07,338.35z"/>
								<path fill="#FFFFFF" d="M375.53,340.3c0,0,13.49,3.13,19.56,7.43c1.21,0.86,6.06,2.74,8.41,2.35l0.2,2.35l0.39,2.15
									l-10.17,3.33l-1.37-4.3l-0.78,0.2l1.17,4.11c0,0-3.91-3.72-13.69,3.72c-1.21,0.92-2.74,1.56-4.3-2.15
									C373.37,355.76,370.44,345.78,375.53,340.3z"/>
							</g>
							<g>
								<path fill="#D0121B" d="M361.05,362.41c0,0,10.37,0.78,13.3-0.78v0.78c0,0-0.98,0.98-13.1,1.37L361.05,362.41z"/>
								<path fill="#D0121B" d="M375.91,361.82c0,0,5.67-6.26,16.43-6.85l0.39,1.37c0,0-5.87-2.15-16.04,5.87L375.91,361.82z"/>
							</g>
						</g>
						<g>
							<path fill="#F1DEC3" d="M359.68,362.21l1.96,3.71l3.72,0.78c0,0,5.87,6.84,6.84,12.32c0,0-3.13,0.78-7.43-3.72
								c-1.15-1.2-10.95-6.65-11.73-7.24s-2.74-3.33,2.15-4.5C356.71,363.21,357.14,363.97,359.68,362.21z"/>
							<path fill="#F7DDBE" d="M366.53,366.12l8.22-1.17l0.59-3.72l2.15,2.54c0,0,0.39,0.98,1.96-0.2c1.56-1.17,7.82-7.43,13.89-4.3
								l0.58,1.96l-2.15,15.06c0,0-0.98-0.39-1.37,0.98c-0.39,1.37-3.13,4.5-4.5,5.67s-4.98,3.51-7.38,9.68
								C378.51,392.62,370.05,367.49,366.53,366.12z"/>
							<path fill="#BD9E6A" d="M382.17,396.44c1.45,1.14,3.91,3.32,8.8,1.37c1.62-0.65,10.17-8.41,14.08-7.63l-12.52-13.3
								c0,0-6.06,6.45-7.04,7.43C384.52,385.29,376.5,391.94,382.17,396.44z"/>
						</g>
					</g>
				</g>
			</g>
		</g>
		<g>
			<path fill="#FFFFFF" d="M434.21,371.48c0,11.38-9.66,20.61-21.57,20.61s-21.57-9.23-21.57-20.61s9.65-20.61,21.57-20.61
				C424.55,350.87,434.21,360.09,434.21,371.48z"/>
			<path fill="#231815" d="M432.62,371.47l1.39-1.63l-2.74-8.02l-2.25-1.01c-2.46-3.3-6.03-5.81-10.19-7l-2.23-2.55l-7.43,0.2
				l-3.35,3c-2.89,1.16-5.43,2.97-7.41,5.24l-4.11,0.76l-3.13,7.63l2.81,2.46c-0.01,0.32-0.05,0.64-0.05,0.97
				c0,3.91,1.29,7.53,3.47,10.52l0.62,4.05l7.63,4.69l1.93-1.61c1.8,0.53,3.72,0.82,5.7,0.82c1.86,0,3.66-0.27,5.36-0.74l2.07,1.33
				l8.22-6.06l0.14-2.37c2.23-3.01,3.56-6.68,3.56-10.64C432.62,371.49,432.62,371.48,432.62,371.47L432.62,371.47z M421.3,382.75
				L421.3,382.75l-0.01,0.02l-3.87-6.22l1.85-7.78l8.66-1.96l4.06,5.39c-0.13,3.31-1.2,6.4-2.99,9.02L421.3,382.75L421.3,382.75z
				 M427.87,360.29L427.87,360.29l-0.14,5.96l-8.71,1.97l-5.65-4.59l-0.06-6.41l5.79-2.71
				C422.58,355.59,425.62,357.62,427.87,360.29L427.87,360.29z M406.65,354.78L406.65,354.78l6.07,2.4l0.06,6.41l-6.58,4.5
				l-7.79-2.47v-4.99C400.52,358.02,403.36,355.97,406.65,354.78L406.65,354.78z M394.6,369.89L394.6,369.89l3.58-3.73l7.48,2.37
				l2.24,8.2l-3.91,5.38l-6.57-1.1c-1.83-2.76-2.9-6.02-2.9-9.52C394.52,370.96,394.55,370.42,394.6,369.89L394.6,369.89z
				 M407.89,388.63L407.89,388.63l-3.44-6.16l3.93-5.42l8.44-0.35l4.13,6.65l-2.99,5.44c-1.5,0.37-3.07,0.59-4.7,0.59
				C411.41,389.39,409.6,389.12,407.89,388.63z"/>
		</g>
	</g>
	<g>
		<g>
			<path fill="#43AF35" d="M303.4,183.54c-23.32,11.83-32.37,42.12-32.37,42.12C295.74,210.34,303.4,183.54,303.4,183.54z"/>
			<path fill="#43AF35" d="M287.85,219.85c-14.85,16.94-25.52,25.06-25.52,25.06c1.16-17.87,9.51-38.75,9.51-38.75
				c-26.45,27.38-18.33,59.17-18.33,59.17C280.66,243.52,287.85,219.85,287.85,219.85z"/>
			<path fill="#43AF35" d="M277.41,250.25c-16.47,16.71-28.31,28.77-28.31,28.77c-3.25-15.31-1.16-39.21-1.16-39.21
				c-19.49,45.71,0,66.6,0,66.6C254.44,293.64,277.41,250.25,277.41,250.25z"/>
			<path fill="#43AF35" d="M251.19,347.71c0,0,7.89-22.97,14.62-60.1l-17.64,34.57c0,0-11.14-11.14-15.55-47.57
				C232.62,274.62,221.49,318.93,251.19,347.71z"/>
			<path fill="#43AF35" d="M241.44,362.44c6.96,6.27,23.32,24.02,23.32,24.02s-2.09-12.18,0.35-26.45
				c2.44-14.27-0.46-43.16-0.46-43.16c-4.41,20.42-10.44,43.86-10.44,43.86c-14.39-9.75-28.77-41.77-28.77-41.77
				C227.52,341.56,234.48,356.18,241.44,362.44z"/>
			<path fill="#43AF35" d="M291.21,423.35c-5.92-15.31-20.88-66.48-20.88-66.48c-1.39,14.97,1.04,43.86,1.04,43.86
				c-21.23-9.75-39.33-33.76-39.33-33.76C246.32,416.39,291.21,423.35,291.21,423.35z"/>
			<path fill="#43AF35" d="M288.08,392.38c0,0,10.44,32.02,11.83,41.07c0,0-28.19-2.44-52.56-22.28c0,0,7.31,28.89,64.39,40.03
				C311.75,451.2,309.31,422.31,288.08,392.38z"/>
			<path fill="#43AF35" d="M528.97,225.65c0,0-9.05-30.28-32.37-42.12C496.6,183.54,504.26,210.34,528.97,225.65z"/>
			<path fill="#43AF35" d="M512.15,219.85c0,0,7.19,23.67,34.34,45.48c0,0,8.12-31.79-18.33-59.17c0,0,8.35,20.88,9.51,38.75
				C537.67,244.91,527,236.79,512.15,219.85z"/>
			<path fill="#43AF35" d="M522.59,250.25c0,0,22.97,43.39,29.47,56.15c0,0,19.49-20.88,0-66.6c0,0,2.09,23.9-1.16,39.21
				C550.9,279.02,539.07,266.96,522.59,250.25z"/>
			<path fill="#43AF35" d="M534.19,287.61c6.73,37.13,14.62,60.1,14.62,60.1c29.7-28.77,18.56-73.09,18.56-73.09
				c-4.41,36.43-15.55,47.57-15.55,47.57L534.19,287.61z"/>
			<path fill="#43AF35" d="M558.56,362.44c6.96-6.27,13.92-20.88,16.01-43.51c0,0-14.39,32.02-28.77,41.77
				c0,0-6.03-23.44-10.44-43.86c0,0-2.9,28.89-0.46,43.16c2.44,14.27,0.35,26.45,0.35,26.45S551.6,368.71,558.56,362.44z"/>
			<path fill="#43AF35" d="M528.62,400.73c0,0,2.44-28.89,1.04-43.86c0,0-14.97,51.16-20.88,66.48c0,0,44.9-6.96,59.17-56.39
				C567.96,366.97,549.86,390.98,528.62,400.73z"/>
			<path fill="#43AF35" d="M511.92,392.38c-21.23,29.93-23.67,58.82-23.67,58.82c57.08-11.14,64.39-40.03,64.39-40.03
				c-24.36,19.84-52.56,22.28-52.56,22.28C501.48,424.4,511.92,392.38,511.92,392.38z"/>
			<path fill="#43AF35" d="M433.6,462.68c-17.4,0.7-33.6,9.17-33.6,9.17s-16.2-8.47-33.6-9.17c-17.4-0.7-31.33-0.23-36.2-1.51
				c-4.87-1.28-28.89-9.28-62.3-9.98c0,0,15.66,16.36,56.15,30.86c9.67,3.46,49.19-0.93,49.19-0.93s-25.99,13.92-30.63,24.6
				l1.86,5.1c0,0,28.46-28.31,55.53-28.31s55.53,28.31,55.53,28.31l1.86-5.1c-4.64-10.67-30.63-24.6-30.63-24.6
				s39.52,4.39,49.19,0.93c40.49-14.5,56.15-30.86,56.15-30.86c-33.41,0.7-57.43,8.7-62.3,9.98
				C464.93,462.45,451.01,461.99,433.6,462.68z"/>
		</g>
		<g>
			<g>
				<path d="M232.62,459.78c0,0,36.43-19.26,69.15-28.31l6.03,39.91l-73.32,30.17l17.64-31.56L232.62,459.78z"/>
				<path fill="#FFD201" d="M253.55,469.56l-18.66-9.78c7.6-3.89,38.16-19.1,66.02-26.99l5.73,37.93l-69.79,28.71L253.55,469.56z"/>
			</g>
			<g>
				<polygon points="280.43,465.12 307.81,471.39 301.77,431.47 				"/>
				<polygon fill="#FFFFFF" points="282.1,464.43 301.16,434.4 306.54,470.02 				"/>
			</g>
			<g>
				<path d="M567.38,459.78c0,0-36.43-19.26-69.15-28.31l-6.03,39.91l73.32,30.17l-17.64-31.56L567.38,459.78z"/>
				<path fill="#FFD201" d="M546.45,469.56l18.66-9.78c-7.6-3.89-38.16-19.1-66.02-26.99l-5.73,37.93l69.79,28.71L546.45,469.56z"/>
			</g>
			<g>
				<polygon points="519.58,465.12 492.19,471.39 498.23,431.47 				"/>
				<polygon fill="#FFFFFF" points="517.9,464.43 498.84,434.4 493.46,470.02 				"/>
			</g>
			<g>
				<path d="M400,403.86c-63.89,0-119.58,19.49-119.58,19.49v41.77c0,0,37.27-20.19,119.58-20.19s119.58,20.19,119.58,20.19v-41.77
					C519.58,423.35,463.89,403.86,400,403.86z"/>
				<path fill="#FFD201" d="M281.47,424.1c6.65-2.22,59.39-19.19,118.53-19.19c59.15,0,111.88,16.97,118.53,19.19v39.33
					c-3.39-1.61-12.38-5.49-27.62-9.42c-17.95-4.62-48.29-10.13-90.91-10.13s-72.96,5.51-90.91,10.13
					c-15.24,3.92-24.23,7.81-27.62,9.42V424.1z"/>
			</g>
			<g>
				<path fill="#231815" d="M308.16,428.93l-0.39-2.23l-0.35,0.06l-5.02,0.93l0.41,2.21l0.33-0.05c0.37-0.05,0.68-0.05,0.9,0.03
					c0.2,0.07,0.24,0.16,0.26,0.23c0.09,0.46-0.14,2.02-1.7,6.85c0,0-0.06,0.18-0.11,0.33c-0.63-0.92-3.14-4.58-3.14-4.58
					l-0.13-0.18c-0.4-0.58-0.52-0.9-0.56-1.06c-0.05-0.26-0.01-0.46,0.11-0.62c0.12-0.16,0.35-0.27,0.66-0.33l0.18-0.03
					c-0.01,0,0.2-0.02,0.2-0.02l0.37-0.05l-0.09-0.34l-0.36-1.9l-8.44,1.57l0.41,2.19l0.3-0.02c0.35-0.02,0.66,0.06,0.95,0.24
					c0.22,0.13,0.62,0.5,1.33,1.46c0,0,5.21,7.11,5.29,7.22c0.03,0.13,0.6,3.19,0.6,3.19c0.28,1.5,0.13,1.95,0.06,2.07
					c-0.1,0.17-0.41,0.42-1.3,0.59l-0.33,0.06l0.39,2.23l8.57-1.59l-0.41-2.22l-0.33,0.05c-0.9,0.13-1.24,0-1.37-0.09
					c-0.08-0.06-0.37-0.37-0.65-1.9c0,0-0.66-3.57-0.69-3.7c0.85-2.47,1.59-4.93,2.18-7.31c0,0.01,0.12-0.45,0.12-0.45
					c0.39-1.46,0.65-2.04,0.8-2.28c0.18-0.29,0.39-0.46,0.64-0.51L308.16,428.93z"/>
				<path fill="#231815" d="M326.22,440.6c-0.28-0.29-0.57-0.76-0.85-1.38l-6.93-15.78l-0.25,0.03l-4.66,0.66l0.8,0.97l0.16,0.44
					l0.01,0.17l-0.02,0.35l-1.92,14.67c-0.12,0.86-0.27,1.47-0.44,1.8c-0.17,0.31-0.39,0.53-0.71,0.67l-0.23,0.11l0.31,2.23
					l5.34-0.75l-0.33-2.31l-0.4,0.05c-0.36,0.05-0.63,0-0.82-0.16c-0.2-0.17-0.33-0.46-0.39-0.84l-0.03-0.43l0.03-0.64
					c0,0,0.16-2.12,0.19-2.56c0.45-0.06,3.96-0.56,4.42-0.62c0.16,0.41,0.99,2.64,0.99,2.64c0,0,0.23,0.64,0.23,0.64
					c0,0,0.1,0.39,0.1,0.39c0.04,0.3,0,0.52-0.14,0.68c-0.15,0.17-0.43,0.3-0.84,0.38l-0.31,0.06l0.32,2.29l7.73-1.09l-0.32-2.27
					l-0.29-0.01C326.72,440.98,326.47,440.86,326.22,440.6L326.22,440.6z M315.44,435.36L315.44,435.36
					c0.08-0.62,0.53-4.2,0.73-5.82c0.64,1.51,2.03,4.83,2.27,5.4C317.84,435.02,316.03,435.27,315.44,435.36z"/>
				<path fill="#231815" d="M359.93,435.32c-0.29-0.29-0.57-0.76-0.85-1.38l-6.94-15.78l-0.25,0.03l-4.66,0.66l0.8,0.96l0.16,0.45
					l0.01,0.17l-0.02,0.34l-1.91,14.67c-0.12,0.86-0.27,1.47-0.45,1.8c-0.16,0.31-0.4,0.53-0.71,0.68l-0.23,0.11l0.31,2.23
					l5.34-0.75l-0.32-2.31l-0.4,0.06c-0.36,0.05-0.63-0.01-0.82-0.16c-0.2-0.17-0.33-0.46-0.39-0.85l-0.03-0.42l0.03-0.64
					c0,0,0.16-2.12,0.19-2.56c0.46-0.06,3.96-0.56,4.42-0.62c0.16,0.42,0.99,2.64,0.99,2.64c0,0.01,0.23,0.64,0.23,0.64l0.09,0.39
					c0.04,0.3,0,0.52-0.14,0.68c-0.15,0.18-0.43,0.31-0.84,0.38l-0.32,0.06l0.32,2.29l7.73-1.09l-0.32-2.27l-0.29,0
					C360.43,435.71,360.18,435.58,359.93,435.32L359.93,435.32z M349.15,430.08L349.15,430.08c0.08-0.62,0.53-4.2,0.73-5.82
					c0.63,1.5,2.03,4.83,2.27,5.4C351.55,429.74,349.74,430,349.15,430.08z"/>
				<path fill="#231815" d="M478.08,439.8c-0.19-0.37-0.33-0.91-0.42-1.6l-2.14-17.52l-0.25-0.04l-4.65-0.68l0.49,1.18l0.03,0.48
					l-0.04,0.17l-0.11,0.33l-6.03,13.9c-0.36,0.81-0.68,1.37-0.94,1.64c-0.24,0.26-0.53,0.41-0.87,0.46l-0.25,0.04l-0.34,2.28
					l5.34,0.79l0.35-2.37l-0.4-0.06c-0.36-0.05-0.6-0.18-0.74-0.39c-0.14-0.22-0.19-0.54-0.13-0.94l0.09-0.43l0.22-0.63
					c0,0,0.75-2.04,0.91-2.46c0.46,0.07,3.96,0.58,4.41,0.65c0.03,0.45,0.19,2.88,0.19,2.88c0,0,0.04,0.69,0.04,0.69l-0.02,0.41
					c-0.05,0.31-0.15,0.51-0.33,0.63c-0.19,0.13-0.5,0.18-0.91,0.14l-0.32-0.03l-0.35,2.35l7.73,1.14l0.34-2.32l-0.28-0.09
					C478.45,440.33,478.24,440.13,478.08,439.8L478.08,439.8z M469.23,431.57L469.23,431.57c0.25-0.59,1.7-3.99,2.36-5.53
					c0.18,1.66,0.57,5.33,0.63,5.97C471.63,431.92,469.83,431.66,469.23,431.57z"/>
				<path fill="#231815" d="M340.83,419.93l-0.26,0.03l-13.17,1.5l0.26,6.22l1.55-0.18l0.02-0.26c0.12-1.32,0.35-2.27,0.68-2.81
					c0.31-0.52,0.8-0.82,1.48-0.89c0,0,0.69-0.08,1.03-0.12c0.07,0.63,1.59,13.96,1.59,13.96l0.09,1.13l-0.05,0.48
					c-0.08,0.28-0.22,0.49-0.45,0.65c-0.24,0.17-0.58,0.28-0.99,0.33l-0.39,0.04l0.25,2.21l7.94-0.9l-0.25-2.21l-0.39,0.04
					c-0.41,0.05-0.77,0.01-1.04-0.1c-0.25-0.1-0.43-0.26-0.56-0.51c-0.01-0.02-0.16-0.47-0.16-0.47c0-0.01-0.16-1.13-0.16-1.13
					s-1.52-13.33-1.59-13.96c0.33-0.04,0.94-0.1,0.94-0.1c0.78-0.09,1.4,0.09,1.84,0.53c0.46,0.46,0.87,1.32,1.21,2.56l0.08,0.27
					l1.54-0.18L340.83,419.93z"/>
				<path fill="#231815" d="M446.42,416.47l-0.26-0.02l-13.23-0.79l-0.82,6.17l1.56,0.09l0.07-0.25c0.35-1.28,0.74-2.17,1.16-2.65
					c0.4-0.46,0.93-0.67,1.61-0.63c0,0,0.69,0.04,1.04,0.06c-0.04,0.63-0.84,14.02-0.84,14.02l-0.11,1.13l-0.13,0.47
					c-0.12,0.27-0.31,0.45-0.55,0.56c-0.27,0.13-0.62,0.18-1.04,0.15l-0.39-0.02l-0.13,2.21l7.98,0.48l0.13-2.22l-0.39-0.02
					c-0.42-0.02-0.76-0.11-1.01-0.28c-0.23-0.14-0.38-0.33-0.46-0.6c-0.01-0.02-0.08-0.5-0.08-0.5c0,0,0.04-1.14,0.04-1.14
					s0.8-13.39,0.84-14.02c0.33,0.02,0.94,0.06,0.94,0.06c0.78,0.05,1.36,0.33,1.72,0.84c0.37,0.53,0.63,1.45,0.75,2.73l0.03,0.27
					l1.54,0.09L446.42,416.47z"/>
				<path fill="#231815" d="M361.96,416.96l0.14,2.23l0.26,0.02c0.71,0.06,1.01,0.24,1.13,0.38c0.1,0.12,0.29,0.47,0.35,1.5
					l0.72,11.85c0.06,1.02-0.08,1.39-0.16,1.52c-0.1,0.16-0.37,0.37-1.07,0.51l-0.26,0.05l0.14,2.23l7.34-0.45l-0.13-2.23
					l-0.27-0.02c-0.7-0.06-1-0.24-1.12-0.39c-0.11-0.12-0.29-0.47-0.36-1.49l-0.72-11.85c-0.06-1.02,0.08-1.39,0.17-1.52
					c0.11-0.16,0.38-0.37,1.07-0.51l0.26-0.05l-0.14-2.23l-0.3,0.02L361.96,416.96z"/>
				<path fill="#231815" d="M383.66,415.25v2.23l0.26,0.04c0.7,0.1,0.98,0.3,1.1,0.45c0.1,0.12,0.26,0.48,0.26,1.49v11.88
					c0,1.02-0.17,1.39-0.26,1.52c-0.11,0.15-0.4,0.35-1.1,0.45l-0.26,0.04v2.23h7.75v-2.2l-0.29-0.01c-0.89-0.04-1.23-0.24-1.37-0.4
					c-0.11-0.14-0.3-0.57-0.3-1.98c0,0,0-4.5,0-5.07c0.39,0,1.23,0,1.23,0c0.56,0,0.99,0.18,1.3,0.56c0.32,0.39,0.52,0.96,0.58,1.7
					l0.02,0.29h1.75v-7.16h-1.76l-0.03,0.28c-0.08,0.73-0.26,1.26-0.56,1.56c-0.29,0.3-0.73,0.45-1.32,0.45c0,0-0.85,0-1.23,0
					c0-0.57,0-5.12,0-5.12c0-0.74,0.16-0.87,0.18-0.88c0.07-0.05,0.34-0.16,1.28-0.16c1.14,0,2.05,0.21,2.7,0.61
					c0.63,0.4,1.12,1.07,1.45,1.98l0.08,0.2h1.53v-5h-0.3H383.66z"/>
				<path fill="#231815" d="M411.45,417.39c-0.69-0.92-1.49-1.62-2.38-2.1c-0.89-0.47-1.86-0.72-2.89-0.72
					c-1.16,0-2.26,0.3-3.25,0.89c-0.99,0.59-1.85,1.45-2.57,2.56c-0.64,0.97-1.13,2.09-1.46,3.31c-0.32,1.21-0.49,2.54-0.49,3.93
					c0,1.42,0.16,2.74,0.48,3.93c0.32,1.2,0.8,2.28,1.42,3.2c0.75,1.08,1.6,1.91,2.53,2.45c0.93,0.55,1.96,0.83,3.05,0.83
					c1.23,0,2.37-0.32,3.38-0.96c1-0.63,1.9-1.59,2.66-2.84c0.56-0.89,0.99-1.96,1.29-3.16c0.3-1.2,0.45-2.49,0.45-3.84
					c0-1.5-0.19-2.89-0.56-4.15C412.74,419.47,412.18,418.35,411.45,417.39L411.45,417.39z M406.09,433.29L406.09,433.29
					c-1,0-1.77-0.7-2.33-2.14c-0.6-1.52-0.9-3.72-0.9-6.56c0-2.56,0.29-4.51,0.86-5.81c0.54-1.23,1.3-1.84,2.32-1.84
					c1,0,1.76,0.7,2.32,2.13c0.59,1.5,0.89,3.71,0.89,6.55c0,2.62-0.28,4.6-0.83,5.87C407.89,432.71,407.13,433.29,406.09,433.29z"
					/>
				<path fill="#231815" d="M428.03,417.68c-0.69-0.92-1.49-1.62-2.38-2.1c-0.89-0.47-1.86-0.72-2.89-0.72
					c-1.16,0-2.26,0.3-3.25,0.89c-0.99,0.58-1.85,1.45-2.57,2.56c-0.64,0.98-1.13,2.09-1.46,3.31c-0.32,1.22-0.49,2.54-0.49,3.93
					c0,1.42,0.16,2.74,0.48,3.94c0.32,1.2,0.8,2.28,1.42,3.2c0.75,1.09,1.6,1.91,2.52,2.46c0.93,0.55,1.96,0.82,3.06,0.82
					c1.23,0,2.37-0.32,3.38-0.96c1.01-0.63,1.9-1.59,2.66-2.84c0.56-0.89,0.99-1.96,1.29-3.17c0.3-1.2,0.45-2.49,0.45-3.83
					c0-1.5-0.19-2.89-0.56-4.15C429.32,419.77,428.76,418.64,428.03,417.68L428.03,417.68z M422.66,433.59L422.66,433.59
					c-1,0-1.76-0.7-2.33-2.14c-0.59-1.52-0.9-3.72-0.9-6.56c0-2.56,0.29-4.51,0.85-5.81c0.54-1.23,1.3-1.84,2.33-1.84
					c1,0,1.76,0.7,2.32,2.13c0.59,1.5,0.88,3.71,0.88,6.55c0,2.62-0.28,4.6-0.83,5.87C424.47,433,423.7,433.59,422.66,433.59z"/>
				<path fill="#231815" d="M458.28,428.74c0.95-0.33,1.78-0.77,2.39-1.43c0.76-0.83,1.2-1.87,1.31-3.11
					c0.15-1.64-0.26-2.94-1.21-3.89c-0.93-0.92-2.39-1.49-4.31-1.66l-7.63-0.69l-0.34-0.03l-0.21,2.32l0.29,0.06
					c0.77,0.18,1.08,0.41,1.19,0.58c0.1,0.14,0.25,0.54,0.16,1.59l-1.11,12.35c-0.09,1.05-0.32,1.41-0.44,1.53
					c-0.15,0.14-0.49,0.32-1.28,0.35l-0.3,0.01l-0.21,2.32l9.07,0.82c1.64,0.15,3.07-0.3,4.24-1.33c1.17-1.03,1.83-2.39,1.98-4.04
					c0.13-1.4-0.17-2.63-0.89-3.65C460.41,430.01,459.45,429.33,458.28,428.74L458.28,428.74z M456.59,426.71L456.59,426.71
					c-0.51,0.53-1.19,0.75-2.07,0.67c0,0-0.18-0.04-0.36-0.07c0.05-0.56,0.57-6.33,0.57-6.33l0.04-0.18c0,0.01,0.26-0.01,0.26-0.01
					c0.96,0.09,1.62,0.4,2.02,0.93c0.41,0.55,0.57,1.37,0.47,2.45C457.43,425.31,457.11,426.17,456.59,426.71L456.59,426.71z
					 M453.67,436.53L453.67,436.53c-0.13-0.28-0.26-0.9-0.13-2.28c0,0,0.37-4.07,0.42-4.65c0,0,0.02,0,0.02,0
					c1.19,0.11,2.01,0.5,2.54,1.21c0.53,0.71,0.74,1.75,0.62,3.08c-0.1,1.1-0.38,1.94-0.84,2.51c-0.44,0.53-0.98,0.77-1.66,0.7
					C453.98,437.05,453.77,436.74,453.67,436.53z"/>
				<path fill="#231815" d="M493.93,439.63c-0.82,1.43-1.59,2.39-2.28,2.88c-0.68,0.47-1.56,0.64-2.62,0.51
					c-0.79-0.1-1.31-0.33-1.51-0.67c-0.12-0.21-0.28-0.81-0.06-2.6l1.32-10.77c0.13-1.04,0.32-1.38,0.42-1.49
					c0.12-0.13,0.41-0.3,1.07-0.33l0.24-0.01l0.27-2.17l-0.28-0.04l-6.62-0.81l-0.27,2.18l0.24,0.07c0.65,0.19,0.89,0.42,0.98,0.58
					c0.07,0.14,0.18,0.52,0.05,1.54l-1.44,11.78c-0.13,1.02-0.32,1.36-0.43,1.48c-0.13,0.13-0.42,0.3-1.08,0.32l-0.24,0.01
					l-0.27,2.21l12.48,1.53l1.71-6.18l-1.57-0.19L493.93,439.63z"/>
				<path fill="#231815" d="M508.88,442.27c-0.82,1.42-1.59,2.39-2.28,2.87c-0.68,0.47-1.56,0.65-2.62,0.51
					c-0.79-0.1-1.31-0.33-1.5-0.67c-0.12-0.2-0.28-0.81-0.06-2.6l1.32-10.77c0.13-1.04,0.32-1.38,0.42-1.49
					c0.12-0.13,0.41-0.3,1.07-0.33l0.24-0.01l0.27-2.18l-0.28-0.03l-6.62-0.81l-0.27,2.18l0.24,0.07c0.65,0.19,0.89,0.42,0.98,0.59
					c0.08,0.13,0.18,0.52,0.06,1.54l-1.44,11.78c-0.13,1.02-0.32,1.36-0.43,1.48c-0.13,0.13-0.42,0.3-1.08,0.32l-0.25,0l-0.27,2.21
					l12.48,1.53l1.71-6.18l-1.57-0.19L508.88,442.27z"/>
			</g>
		</g>
	</g>
	<g>
		<g>
			<g>
				<path fill="#FFFFFF" d="M318.12,660.18l-0.21-10.59c5.26-1.67,13.13-4.87,16.52-12.62h11.76l-0.12,46.97h-13.98l-0.21-30.32
					C327.52,656.23,322.91,658.75,318.12,660.18z"/>
				<path fill="#FFFFFF" d="M374.81,644.72c3.39,0,6.44,2.48,6.88,7.94c-0.44,5.23-3.07,7.94-6.7,7.94c-4.21,0-6.54-3.45-6.54-8.68
					C368.46,646.45,371.42,644.72,374.81,644.72L374.81,644.72z M374.01,684.27L374.01,684.27c18.16,0,21.24-8.77,21.24-27.08
					c0-11.83-6.97-20.67-20.91-20.67c-13.07,0.95-18.36,6.3-19.01,16.04c1.09,8.55,5.27,15.7,15.75,16.1
					c5.64,0.21,10.51-4.23,10.51-4.23c0,8.68-2.84,12.49-6.14,12.49c-3.27,0-4.21-1.28-5.08-5.08l-13.34,1.69
					C358.29,681.35,365.28,684.27,374.01,684.27z"/>
				<path fill="#FFFFFF" d="M418.06,644.72c3.39,0,6.44,2.48,6.88,7.94c-0.44,5.23-3.07,7.94-6.7,7.94c-4.21,0-6.54-3.45-6.54-8.68
					C411.7,646.45,414.67,644.72,418.06,644.72L418.06,644.72z M417.26,684.27L417.26,684.27c18.16,0,21.24-8.77,21.24-27.08
					c0-11.83-6.97-20.67-20.91-20.67c-13.07,0.95-18.36,6.3-19.01,16.04c1.09,8.55,5.27,15.7,15.75,16.1
					c5.64,0.21,10.51-4.23,10.51-4.23c0,8.68-2.84,12.49-6.14,12.49c-3.27,0-4.21-1.28-5.08-5.08l-13.34,1.69
					C401.54,681.35,408.53,684.27,417.26,684.27z"/>
				<path fill="#FFFFFF" d="M462.61,676.48c-3.39,0-6.44-2.48-6.88-7.94c0.44-5.23,3.07-7.94,6.7-7.94c4.21,0,6.54,3.45,6.54,8.68
					C468.96,674.74,466,676.48,462.61,676.48L462.61,676.48z M463.41,636.93L463.41,636.93c-18.17,0-21.95,8.53-21.95,26.85
					c0,11.83,7.68,20.91,21.62,20.91c13.07-0.95,18.36-6.3,19.01-16.04c-1.09-8.55-5.27-15.7-15.75-16.1
					c-5.64-0.21-10.51,4.23-10.51,4.23c0-8.68,2.84-12.49,6.14-12.49c3.27,0,4.21,1.28,5.08,5.08l13.37-1.06
					C479.16,640.48,472.14,636.93,463.41,636.93z"/>
			</g>
			<g>
				<g>
					<path fill="#FFFFFF" d="M255.47,579.73v-21.89h-15.98v21.89h-9.47v8.09h9.47v20.71h0.23c0.18,2.11,1.11,6.31,5.68,6.31
						c6.12,0,23.27,0,23.27,0v-9.67h-13.21v-17.35h55.82v-8.09H255.47z"/>
					<path fill="#FFFFFF" d="M305.17,558.83h-18.15c-9.66,8.09-25.05,16.37-25.05,16.37h21.7
						C299.85,567.11,305.17,558.83,305.17,558.83z"/>
					<path fill="#FFFFFF" d="M283.47,594.13h-17.35l23.47,19.73h20.71v-9.27h-11.64C289.39,596.3,283.47,594.13,283.47,594.13z"/>
				</g>
				<path fill="#FFFFFF" d="M398.01,585.75v-6.12H363.3v-3.55h33.33v-5.72H363.3v-2.86h34.12v-5.72H363.3v-3.35h-15.19v3.35h-31.95
					v5.72h31.95v2.86h-30.77v5.72h30.77v3.55h-32.54v6.12h9.47l-3.95,2.86h-4.73v8.08h3.35v16.97h59.76h14.2V596.7h3.15v-8.08
					l-7.49-0.2l-1.19-2.66H398.01L398.01,585.75z M379.47,609.32L379.47,609.32h-46.35v-4.14h46.35V609.32L379.47,609.32z
					 M333.12,600.84L333.12,600.84v-4.14h46.35v4.14H333.12L333.12,600.84z M375.92,591.37L375.92,591.37l1.11,0.2h-40.88l0.12-0.2
					l7.87-5.62h22.51L375.92,591.37z"/>
				<g>
					<path fill="#FFFFFF" d="M482.86,565.93v-5.33h-79.88v5.33h22.68v42.01h-22.09v6.31h78.9v-6.31h-21.21v-42.01H482.86
						L482.86,565.93z M446.07,607.94L446.07,607.94h-6.01v-42.01h6.01V607.94z"/>
					<path fill="#FFFFFF" d="M404.56,574.61h11.64c0,0,4.73,8.88,5.72,26.83h-12.42C409.49,601.43,410.28,586.24,404.56,574.61z"/>
					<path fill="#FFFFFF" d="M480.69,574.61h-10.65c0,0-4.74,8.88-5.72,26.83h10.46C474.78,601.43,474.97,586.24,480.69,574.61z"/>
				</g>
				<g>
					<path fill="#FFFFFF" d="M522.64,604.16l-0.2,0.03c0,0,0,1.38,0,2.17c0,0.79,0,1.38-1.78,1.38c-1.78,0-5.13,0-5.13,0v6.12
						c0,0,11.44,0,14.2,0c2.76,0,5.92-0.2,5.92-3.94c0-1.74,0-3.52,0-4.93h0.2v-19.73h-13.22V604.16z"/>
					<path fill="#FFFFFF" d="M565.25,588.02c-0.79,0-2.17-1.77-3.16-2.36c-0.74-0.45-0.14-1.79,0.54-2.76h7.16v-5.13h-33.93v-2.86
						h32.74v-5.13h-32.74v-3.65h32.74v-4.93h-32.74v-3.94h-13.61v3.94H490.1v4.93h32.15v3.65H490.1v5.13h32.15v2.86h-33.53v5.13
						h7.49l-4.14,5.13h-3.94v6.31h9.47l5.72-5.72l4.53,6.31h12.43c0,0-4.14-6.9-4.54-7.69c-0.37-0.73-2.28-0.1,1.15-4.34h24.49
						c0.45,0.45,1.04,1.04,1.38,1.38c0.59,0.59,0,1.78-0.59,2.56c-0.59,0.79-4.74,8.48-4.74,8.48h11.84l3.94-5.72l5.13,4.73h11.63
						v-6.31C569.98,588.02,566.03,588.02,565.25,588.02z"/>
					<path fill="#FFFFFF" d="M518.5,598.67h-15.39c-3.35,2.17-9.47,9.07-9.47,9.07h-5.13v6.12h14.99
						c4.93-9.27,14.99-14.2,14.99-14.2V598.67z"/>
					<path fill="#FFFFFF" d="M554.79,598.67h-15.39v0.99c0,0,8.09,4.93,13.02,14.2h16.96v-6.12h-7.5
						C561.89,607.74,558.14,600.84,554.79,598.67z"/>
				</g>
			</g>
		</g>
		<g>
			<g>
				<path fill="#FFFFFF" d="M220.2,87.19l7.71,2.33c-0.52,2.16-1.33,3.97-2.45,5.42c-1.11,1.45-2.5,2.54-4.15,3.28
					c-1.65,0.74-3.75,1.11-6.3,1.11c-3.09,0-5.62-0.45-7.58-1.35c-1.96-0.9-3.66-2.48-5.08-4.74c-1.42-2.26-2.14-5.16-2.14-8.7
					c0-4.71,1.25-8.33,3.76-10.86s6.05-3.79,10.63-3.79c3.59,0,6.41,0.72,8.46,2.18c2.05,1.45,3.58,3.68,4.57,6.68l-7.77,1.73
					c-0.27-0.87-0.56-1.5-0.85-1.9c-0.49-0.67-1.09-1.19-1.81-1.55c-0.71-0.36-1.51-0.54-2.39-0.54c-1.99,0-3.52,0.8-4.58,2.41
					c-0.8,1.19-1.2,3.06-1.2,5.61c0,3.16,0.48,5.32,1.44,6.49c0.96,1.17,2.3,1.76,4.04,1.76c1.68,0,2.96-0.47,3.82-1.42
					C219.19,90.36,219.81,88.99,220.2,87.19z"/>
				<path fill="#FFFFFF" d="M230.23,70.37h8.8v9.96h9.61v-9.96h8.84v28.47h-8.84V87.32h-9.61v11.52h-8.8V70.37z"/>
				<path fill="#FFFFFF" d="M278.84,94.14h-9.99l-1.39,4.7h-8.98l10.7-28.47h9.6l10.7,28.47h-9.21L278.84,94.14z M277.02,87.98
					l-3.14-10.23l-3.11,10.23H277.02z"/>
				<path fill="#FFFFFF" d="M290.34,70.37h8.21l10.72,15.75V70.37h8.29v28.47h-8.29l-10.66-15.63v15.63h-8.27V70.37z"/>
				<path fill="#FFFFFF" d="M335.74,88.53v-5.92h13.59v12.14c-2.6,1.77-4.9,2.98-6.9,3.62c-2,0.64-4.37,0.96-7.12,0.96
					c-3.38,0-6.13-0.58-8.26-1.73c-2.13-1.15-3.78-2.87-4.95-5.15c-1.17-2.28-1.76-4.89-1.76-7.85c0-3.11,0.64-5.81,1.92-8.11
					c1.28-2.3,3.16-4.04,5.63-5.23c1.93-0.92,4.53-1.38,7.79-1.38c3.15,0,5.5,0.29,7.06,0.85s2.85,1.45,3.88,2.65
					c1.03,1.2,1.8,2.72,2.32,4.55l-8.49,1.51c-0.35-1.07-0.94-1.9-1.78-2.47s-1.9-0.85-3.19-0.85c-1.93,0-3.47,0.67-4.61,2.01
					c-1.15,1.34-1.72,3.46-1.72,6.36c0,3.08,0.58,5.28,1.74,6.6c1.16,1.32,2.77,1.98,4.85,1.98c0.98,0,1.92-0.14,2.82-0.43
					c0.89-0.29,1.92-0.77,3.07-1.46v-2.68H335.74z"/>
				<path fill="#FFFFFF" d="M371.53,87.19l7.71,2.33c-0.52,2.16-1.33,3.97-2.45,5.42s-2.5,2.54-4.15,3.28
					c-1.65,0.74-3.75,1.11-6.3,1.11c-3.09,0-5.62-0.45-7.58-1.35c-1.96-0.9-3.66-2.48-5.08-4.74c-1.42-2.26-2.14-5.16-2.14-8.7
					c0-4.71,1.25-8.33,3.76-10.86c2.51-2.53,6.05-3.79,10.63-3.79c3.59,0,6.41,0.72,8.46,2.18c2.05,1.45,3.58,3.68,4.57,6.68
					l-7.77,1.73c-0.27-0.87-0.56-1.5-0.85-1.9c-0.49-0.67-1.09-1.19-1.81-1.55c-0.71-0.36-1.51-0.54-2.39-0.54
					c-1.99,0-3.52,0.8-4.58,2.41c-0.8,1.19-1.2,3.06-1.2,5.61c0,3.16,0.48,5.32,1.44,6.49c0.96,1.17,2.3,1.76,4.04,1.76
					c1.68,0,2.96-0.47,3.82-1.42C370.51,90.36,371.14,88.99,371.53,87.19z"/>
				<path fill="#FFFFFF" d="M381.56,70.37h8.8v9.96h9.61v-9.96h8.84v28.47h-8.84V87.32h-9.61v11.52h-8.8V70.37z"/>
				<path fill="#FFFFFF" d="M431.19,70.37h8.78v16.96c0,1.68-0.26,3.27-0.79,4.76c-0.52,1.49-1.35,2.8-2.47,3.92
					c-1.12,1.12-2.3,1.9-3.53,2.36c-1.71,0.63-3.76,0.95-6.16,0.95c-1.39,0-2.9-0.1-4.53-0.29c-1.64-0.19-3.01-0.58-4.11-1.16
					c-1.1-0.58-2.11-1.39-3.02-2.46c-0.91-1.06-1.54-2.15-1.87-3.28c-0.54-1.81-0.82-3.42-0.82-4.81V70.37h8.78v17.37
					c0,1.55,0.43,2.76,1.29,3.64c0.86,0.87,2.05,1.31,3.58,1.31c1.51,0,2.7-0.43,3.56-1.29c0.86-0.86,1.29-2.08,1.29-3.66V70.37z"/>
				<path fill="#FFFFFF" d="M443.86,70.37h8.21l10.72,15.75V70.37h8.29v28.47h-8.29l-10.66-15.63v15.63h-8.27V70.37z"/>
				<path fill="#FFFFFF" d="M483.35,70.37h9.77l5.74,9.6l5.75-9.6h9.72l-11.07,16.55v11.92h-8.82V86.92L483.35,70.37z"/>
				<path fill="#FFFFFF" d="M528.93,94.14h-9.99l-1.39,4.7h-8.98l10.7-28.47h9.6l10.7,28.47h-9.21L528.93,94.14z M527.1,87.98
					l-3.14-10.23l-3.11,10.23H527.1z"/>
				<path fill="#FFFFFF" d="M535.63,70.37h26.74v7.03h-8.97v21.44h-8.8V77.4h-8.97V70.37z"/>
				<path fill="#FFFFFF" d="M579.17,94.14h-9.99l-1.39,4.7h-8.98l10.7-28.47h9.6l10.7,28.47h-9.21L579.17,94.14z M577.35,87.98
					l-3.14-10.23l-3.11,10.23H577.35z"/>
				<path fill="#FFFFFF" d="M590.97,70.37h8.82v28.47h-8.82V70.37z"/>
			</g>
			<g>
				<path fill="#FFFFFF" d="M231.39,105.54h21.75v6.12h-12.91v4.97h11.03v5.75h-11.03v11.63h-8.84V105.54z"/>
				<path fill="#FFFFFF" d="M254.78,119.79c0-4.65,1.29-8.27,3.88-10.86c2.59-2.59,6.2-3.88,10.82-3.88c4.74,0,8.39,1.27,10.95,3.82
					c2.56,2.54,3.85,6.11,3.85,10.69c0,3.33-0.56,6.06-1.68,8.19c-1.12,2.13-2.74,3.79-4.86,4.97c-2.12,1.18-4.75,1.78-7.91,1.78
					c-3.21,0-5.87-0.51-7.97-1.53c-2.1-1.02-3.81-2.64-5.12-4.86C255.44,125.89,254.78,123.12,254.78,119.79z M263.58,119.83
					c0,2.87,0.53,4.94,1.6,6.2c1.07,1.26,2.52,1.88,4.36,1.88c1.89,0,3.35-0.61,4.39-1.84c1.04-1.23,1.55-3.44,1.55-6.62
					c0-2.68-0.54-4.64-1.62-5.87c-1.08-1.24-2.55-1.86-4.4-1.86c-1.77,0-3.2,0.63-4.27,1.88
					C264.12,114.85,263.58,116.93,263.58,119.83z"/>
				<path fill="#FFFFFF" d="M285.93,119.79c0-4.65,1.3-8.27,3.88-10.86c2.59-2.59,6.2-3.88,10.82-3.88c4.74,0,8.39,1.27,10.95,3.82
					c2.56,2.54,3.85,6.11,3.85,10.69c0,3.33-0.56,6.06-1.68,8.19c-1.12,2.13-2.74,3.79-4.86,4.97c-2.12,1.18-4.75,1.78-7.91,1.78
					c-3.21,0-5.87-0.51-7.97-1.53c-2.1-1.02-3.81-2.64-5.12-4.86C286.58,125.89,285.93,123.12,285.93,119.79z M294.72,119.83
					c0,2.87,0.53,4.94,1.6,6.2c1.07,1.26,2.52,1.88,4.36,1.88c1.89,0,3.35-0.61,4.39-1.84c1.04-1.23,1.55-3.44,1.55-6.62
					c0-2.68-0.54-4.64-1.62-5.87c-1.08-1.24-2.55-1.86-4.4-1.86c-1.77,0-3.2,0.63-4.27,1.88
					C295.26,114.85,294.72,116.93,294.72,119.83z"/>
				<path fill="#FFFFFF" d="M315.15,105.54h26.74v7.03h-8.97v21.44h-8.8v-21.44h-8.97V105.54z"/>
				<path fill="#FFFFFF" d="M343.9,105.54h16.47c2.74,0,4.85,0.68,6.32,2.04c1.47,1.36,2.2,3.04,2.2,5.05
					c0,1.68-0.52,3.13-1.57,4.33c-0.7,0.8-1.72,1.44-3.07,1.9c2.05,0.49,3.55,1.34,4.51,2.53s1.45,2.7,1.45,4.51
					c0,1.48-0.34,2.8-1.03,3.98c-0.69,1.18-1.63,2.11-2.82,2.8c-0.74,0.43-1.85,0.74-3.34,0.93c-1.98,0.26-3.3,0.39-3.94,0.39H343.9
					V105.54z M352.78,116.7h3.83c1.37,0,2.33-0.24,2.86-0.71c0.54-0.47,0.81-1.16,0.81-2.05c0-0.83-0.27-1.48-0.81-1.94
					c-0.54-0.47-1.47-0.7-2.81-0.7h-3.88V116.7z M352.78,127.89h4.49c1.51,0,2.58-0.27,3.2-0.81c0.62-0.54,0.93-1.26,0.93-2.17
					c0-0.84-0.31-1.52-0.92-2.03c-0.62-0.51-1.69-0.77-3.23-0.77h-4.47V127.89z"/>
				<path fill="#FFFFFF" d="M389.65,129.31h-9.99l-1.39,4.7h-8.98l10.7-28.47h9.6l10.7,28.47h-9.21L389.65,129.31z M387.83,123.15
					l-3.14-10.23l-3.11,10.23H387.83z"/>
				<path fill="#FFFFFF" d="M401.1,105.54h8.8V127h13.73v7.01H401.1V105.54z"/>
				<path fill="#FFFFFF" d="M425.64,105.54h8.8V127h13.73v7.01h-22.53V105.54z"/>
				<path fill="#FFFFFF" d="M480.41,122.36l7.71,2.33c-0.52,2.16-1.33,3.97-2.45,5.42c-1.11,1.45-2.5,2.54-4.15,3.28
					c-1.65,0.74-3.75,1.11-6.3,1.11c-3.1,0-5.62-0.45-7.58-1.35c-1.96-0.9-3.65-2.48-5.08-4.75c-1.42-2.26-2.14-5.16-2.14-8.69
					c0-4.71,1.25-8.33,3.76-10.86c2.51-2.53,6.05-3.79,10.63-3.79c3.59,0,6.4,0.73,8.46,2.18c2.05,1.45,3.58,3.68,4.57,6.68
					l-7.77,1.73c-0.27-0.87-0.56-1.5-0.85-1.9c-0.49-0.67-1.09-1.19-1.81-1.55c-0.71-0.36-1.51-0.54-2.39-0.54
					c-1.99,0-3.52,0.8-4.58,2.41c-0.8,1.19-1.2,3.06-1.2,5.61c0,3.16,0.48,5.32,1.44,6.49c0.96,1.17,2.3,1.76,4.04,1.76
					c1.68,0,2.95-0.47,3.82-1.42C479.39,125.53,480.02,124.16,480.41,122.36z"/>
				<path fill="#FFFFFF" d="M490.4,105.54h8.8V127h13.73v7.01H490.4V105.54z"/>
				<path fill="#FFFFFF" d="M532.44,105.54h8.78v16.96c0,1.68-0.26,3.27-0.79,4.76c-0.52,1.5-1.35,2.8-2.47,3.92
					c-1.12,1.12-2.29,1.91-3.52,2.36c-1.71,0.63-3.76,0.95-6.16,0.95c-1.39,0-2.9-0.1-4.54-0.29c-1.64-0.2-3.01-0.58-4.11-1.16
					c-1.1-0.58-2.11-1.39-3.02-2.46c-0.91-1.06-1.54-2.15-1.87-3.28c-0.54-1.81-0.82-3.42-0.82-4.81v-16.96h8.78v17.37
					c0,1.55,0.43,2.77,1.29,3.64c0.86,0.87,2.06,1.31,3.58,1.31c1.51,0,2.7-0.43,3.56-1.29c0.86-0.86,1.29-2.08,1.29-3.66V105.54z"
					/>
				<path fill="#FFFFFF" d="M545.07,105.54h16.47c2.74,0,4.85,0.68,6.32,2.04c1.47,1.36,2.2,3.04,2.2,5.05
					c0,1.68-0.52,3.13-1.57,4.33c-0.7,0.8-1.72,1.44-3.07,1.9c2.05,0.49,3.55,1.34,4.52,2.53c0.96,1.2,1.45,2.7,1.45,4.51
					c0,1.48-0.34,2.8-1.03,3.98c-0.69,1.18-1.63,2.11-2.82,2.8c-0.74,0.43-1.85,0.74-3.34,0.93c-1.98,0.26-3.3,0.39-3.94,0.39
					h-15.19V105.54z M553.95,116.7h3.83c1.37,0,2.33-0.24,2.87-0.71c0.54-0.47,0.81-1.16,0.81-2.05c0-0.83-0.27-1.48-0.81-1.94
					c-0.54-0.47-1.47-0.7-2.81-0.7h-3.88V116.7z M553.95,127.89h4.49c1.51,0,2.58-0.27,3.2-0.81c0.62-0.54,0.93-1.26,0.93-2.17
					c0-0.84-0.31-1.52-0.92-2.03c-0.62-0.51-1.69-0.77-3.23-0.77h-4.47V127.89z"/>
			</g>
		</g>
	</g>
</g>
</svg>
