<?xml version="1.0" encoding="UTF-8"?>
<svg data-name="图层_1" xmlns="http://www.w3.org/2000/svg" version="1.1" viewBox="0 0 800 800">
  <!-- Created by @FCLOGO 2025-1-21 GMT+8 21:56:15 . https://fclogo.top/ -->
<!-- FOR PERSONAL USE ONLY NOT FOR COMMERCIAL USE -->
  <path d="M348.2194,774.301c-.786,0-1.3752-.2173-1.7682-.6519-.393-.4352-.5284-1.03-.406-1.7856l.2518-1.6478c.122-.755.4501-1.3504.9841-1.785.5339-.4352,1.1939-.6525,1.9799-.6525.7553,0,1.3293.1987,1.7223.5954.3927.3967.551.9381.4747,1.6248h-1.2358c.0304-.3589-.0553-.637-.2573-.8357-.2024-.1981-.4979-.2974-.8869-.2974-.4197,0-.763.1167-1.03.3489-.2673.2328-.4349.5631-.5035.9903l-.2632,1.659c-.0686.4352-.0056.7686.1887,1.0015.1946.2328.5017.3489.9214.3489.389,0,.7152-.0987.9785-.2974.2632-.1981.4365-.4805.5206-.8469h1.2358c-.1372.6867-.4672,1.2306-.9897,1.631-.5228.4005-1.1616.6004-1.9169.6004ZM352.7967,774.1868l.9956-6.2943h1.1902l-.1946,1.1902c.3359-.8698.9729-1.3044,1.9113-1.3044.6712,0,1.1691.208,1.4932.624.3244.416.4293.9859.3148,1.7105l-.0686.4234h-1.2703l.0571-.3204c.0689-.4501.0115-.7953-.1714-1.0356-.1832-.2403-.4771-.3607-.8813-.3607-.4045,0-.7401.1223-1.007.3663-.2673.2446-.4349.588-.5035,1.03l-.6296,3.9711h-1.2358ZM361.9058,774.301c-.7705,0-1.3463-.2229-1.7279-.6693s-.515-1.0356-.4005-1.7682l.2518-1.6478c.0838-.488.2573-.9152.5206-1.2815s.6007-.6507,1.0129-.8524c.4119-.2024.8732-.3036,1.3845-.3036.7705,0,1.3485.2235,1.7338.6693.3852.4464.5169,1.0356.3949,1.7682l-.1717,1.1213h-3.845l-.0916.5265c-.1527.9536.2173,1.4305,1.1098,1.4305.7171,0,1.175-.2477,1.3734-.7438h1.2247c-.1679.5339-.5035.9599-1.007,1.2759-.5038.3166-1.0912.475-1.7626.475ZM361.2306,770.2157l-.0456.2862,2.6548-.0118.0459-.2856c.0686-.4656.0133-.822-.1661-1.0704-.1791-.2477-.4861-.3719-.9211-.3719-.4427,0-.7953.126-1.0586.3775-.2632.2521-.4331.6109-.5094,1.076ZM368.3258,774.301c-.6333,0-1.1027-.2117-1.4078-.6351s-.3967-1.0008-.2744-1.7335l.2744-1.7738c.1145-.7326.393-1.3119.8357-1.7397.4424-.4272.98-.6407,1.6133-.6407.4653,0,.8298.1186,1.093.3545.2632.2365.3908.5575.3834.9617h.023l.1717-1.202h1.2358l-.9956,6.2943h-1.2247l.1946-1.2014h-.023c-.122.4116-.3511.7339-.6867.9667s-.7401.3489-1.2129.3489ZM368.9324,773.2257c.389,0,.7152-.1186.9782-.3551.2632-.2359.4293-.5718.4979-1.007l.2518-1.6478c.0686-.4272.0096-.7612-.1773-1.0015-.1872-.2403-.475-.3601-.8642-.3601-.3967,0-.7249.118-.9841.3545-.2595.2365-.4234.5724-.492,1.007l-.2518,1.6478c-.0686.4427-.0133.7804.1658,1.0133.1794.2328.4712.3489.8757.3489ZM376.3477,774.1868c-.5721,0-.9937-.1565-1.2644-.4694-.271-.3123-.3607-.7512-.2691-1.3156l.538-3.3874h-1.7394l.1714-1.1219h1.7397l.2747-1.7161h1.2358l-.2747,1.7161h2.472l-.1832,1.1219h-2.4605l-.5377,3.3874c-.0764.4421.099.6637.5262.6637h1.7167l-.1717,1.1213h-1.7738ZM382.5042,774.301c-.7705,0-1.3463-.2229-1.7279-.6693s-.515-1.0356-.4005-1.7682l.2518-1.6478c.0838-.488.2573-.9152.5206-1.2815s.6007-.6507,1.0129-.8524c.4119-.2024.8732-.3036,1.3845-.3036.7705,0,1.3485.2235,1.7338.6693.3852.4464.5169,1.0356.3949,1.7682l-.1717,1.1213h-3.845l-.0916.5265c-.1527.9536.2173,1.4305,1.1098,1.4305.7171,0,1.175-.2477,1.3734-.7438h1.2247c-.1679.5339-.5035.9599-1.007,1.2759-.5038.3166-1.0912.475-1.7626.475ZM381.829,770.2157l-.0456.2862,2.6548-.0118.0459-.2856c.0686-.4656.0133-.822-.1661-1.0704-.1791-.2477-.4861-.3719-.9211-.3719-.4427,0-.7953.126-1.0586.3775-.2632.2521-.4331.6109-.5094,1.076ZM388.9243,774.301c-.6333,0-1.1008-.2117-1.4019-.6351-.3014-.4234-.3949-1.0008-.2803-1.7335l.2744-1.7738c.1145-.7326.393-1.3119.8357-1.7397.4424-.4272.98-.6407,1.6133-.6407.4653,0,.8298.1186,1.093.3545.2632.2365.3908.5575.3834.9617h.023l.2058-1.4652.2977-1.7962h1.2358l-1.3274,8.3537h-1.2247l.1946-1.2014h-.023c-.122.4116-.3511.7339-.6867.9667s-.7401.3489-1.2129.3489ZM389.5309,773.2257c.389,0,.7152-.1186.9782-.3551.2632-.2359.4293-.5718.4979-1.007l.2518-1.6478c.0761-.4272.0189-.7612-.1717-1.0015-.1909-.2403-.4805-.3601-.8698-.3601-.3967,0-.7249.118-.9841.3545-.2595.2365-.4234.5724-.492,1.007l-.2518,1.6478c-.0764.4427-.023.7804.1602,1.0133s.4768.3489.8813.3489ZM401.0175,774.301c-.4731,0-.8394-.1161-1.0986-.3489-.2595-.2328-.3852-.5551-.3775-.9667h-.0115l-.1946,1.2014h-1.2243l1.3274-8.3537h1.2358l-.2862,1.7962-.2744,1.4652h.0456c.122-.4123.353-.7345.6923-.9673.3396-.2322.7419-.3489,1.2076-.3489.633,0,1.1002.2136,1.4016.6407.3014.4278.3949,1.007.2806,1.7397l-.2747,1.7738c-.1145.7326-.3949,1.31-.8413,1.7335-.4461.4234-.9822.6351-1.6077.6351ZM400.7657,773.2257c.3967,0,.7227-.1161.9785-.3489.2555-.2328.4216-.5706.4976-1.0133l.2518-1.6478c.0689-.4346.0115-.7705-.1714-1.007-.1832-.2365-.4734-.3545-.8698-.3545-.3893,0-.7152.1198-.9785.3601s-.429.5743-.4979,1.0015l-.2518,1.6478c-.0686.4352-.0112.7711.1717,1.007.1832.2365.4731.3551.8698.3551ZM405.4694,776.2468l.1717-1.0642h1.934c.6407,0,1.007-.3017,1.0986-.9046l.1028-.6749.2061-1.1902h-.0345c-.122.4197-.3471.7438-.6752.9729-.3281.2285-.7286.3433-1.2014.3433-.6258,0-1.093-.2005-1.4019-.601s-.4104-.9443-.3033-1.631l.5836-3.6047h1.2358l-.5606,3.4793c-.0612.4116,0,.732.1832.9611s.4653.3433.8469.3433c.389,0,.7168-.1217.9841-.3663.267-.244.4309-.5836.492-1.0182l.538-3.3992h1.2358l-1.007,6.4086c-.0993.6029-.37,1.0778-.8124,1.4249-.4427.3471-.9996.5209-1.6707.5209h-1.9455ZM417.787,770.0853h3.221l.5368-1.8545h-5.4659l-1.7081,6.4419h2.1473l.5856-2.0985h3.0257l.4392-1.7081h-3.0257l.244-.7808ZM424.229,772.9158c-.5856,0-1.0249-.3904-1.0249-1.1225,0-.8784.6344-1.7569,1.6105-1.7569.488,0,.8784.244,1.0248.7808l1.9521-.8296c-.2928-1.1713-1.2689-1.9033-2.6353-1.9033-2.7817,0-4.1482,2.1473-4.1482,3.9042s1.2689,2.8305,3.0746,2.8305c1.3665,0,2.3425-.5856,2.9769-1.4153l-1.5129-1.1713c-.3904.4392-.8296.6832-1.3177.6832ZM430.9149,768.2308h-2.1473l-1.7569,6.4419h5.1242l.488-1.8545h-2.9281l1.2201-4.5874ZM439.7481,771.0125c0-1.6593-1.3177-2.9281-3.221-2.9281-2.1961,0-3.8066,1.8057-3.8066,3.8066,0,1.6593,1.3177,2.9281,3.221,2.9281,2.1961,0,3.8066-1.8057,3.8066-3.8066ZM434.9167,771.6957c0-.8296.5856-1.7081,1.5129-1.7081.7808,0,1.1713.5368,1.1713,1.2201,0,.8296-.5856,1.7081-1.5129,1.7081-.7808,0-1.1713-.5368-1.1713-1.2201ZM443.2131,772.2326h1.0737l-.1952.6832c-.1464.0488-.3416.0976-.5856.0976-.6832,0-1.2689-.3904-1.2689-1.2201,0-1.0249.732-1.9033,1.9521-1.9033.5856,0,1.1225.244,1.5129.5856l1.3665-1.3665c-.4392-.5368-1.5129-1.0737-2.7329-1.0737-2.5865,0-4.2946,1.7569-4.2946,3.8554,0,2.0497,1.6105,2.8793,3.221,2.8793.9272,0,1.8545-.2928,2.4889-.6832l.9272-3.3186h-3.1234l-.3416,1.4641ZM450.7775,768.0844c-2.1961,0-3.8066,1.8057-3.8066,3.8066,0,1.6593,1.3177,2.9281,3.221,2.9281,2.1961,0,3.8066-1.8057,3.8066-3.8066,0-1.6593-1.3177-2.9281-3.221-2.9281ZM450.3382,772.9158c-.7808,0-1.1713-.5368-1.1713-1.2201,0-.8296.5856-1.7081,1.5129-1.7081.7808,0,1.1713.5368,1.1713,1.2201,0,.8296-.5856,1.7081-1.5129,1.7081ZM437.9424,767.4987c-.0488.2928.0976.488.4392.488s.5368-.1952.6344-.488c.0488-.244-.0976-.488-.4392-.488s-.5856.244-.6344.488ZM432.1349,765.4978c-.4392,0-.732.244-.7808.5856s.0976.5856.5368.5856.732-.244.7808-.5856c.0976-.3416-.0976-.5856-.5368-.5856ZM433.0134,767.3035c-.0976.5368.1464.8784.8296.8784.6344,0,1.0737-.3904,1.1713-.8784s-.1464-.8784-.8296-.8784c-.6832,0-1.0737.3904-1.1713.8784ZM439.6017,777.552l-2.4401-1.8057h-1.5129l4.2458,3.1722,1.6105-3.1722h-.976l-.9272,1.8057ZM425.8394,767.1571l-2.0009-1.4641,23.1323-2.7817-2.1473,4.2458h1.0248l2.6841-5.3195-26.9877,3.221,2.7817,2.0985h1.5129ZM338.7186,785.7853l.6088-3.8315h2.32l-.084.5194h-1.7636l-.1837,1.1445h1.6272l-.084.5248h-1.6166l-.2573,1.6428h-.5668ZM342.97,785.8377c-.3568,0-.6228-.1005-.7978-.3019-.175-.201-.2345-.473-.1784-.8161l.2677-1.7006c.056-.3429.2029-.6148.4408-.8161.2379-.201.5355-.3019.8923-.3019s.6228.1.7979.2993c.1748.1993.2361.4707.1837.8136l-.2677,1.7057c-.0561.3431-.2039.6151-.4435.8161-.2398.2013-.5381.3019-.895.3019ZM343.0487,785.3339c.1925,0,.3483-.0524.4672-.1575.119-.1051.1942-.2571.2257-.4568l.2678-1.7006c.0315-.1993.0051-.3517-.0787-.4565-.084-.1051-.2223-.1575-.4148-.1575s-.3473.0524-.4645.1575c-.1173.1048-.1916.2571-.2231.4565l-.2677,1.7006c-.0315.1996-.0053.3517.0787.4568s.2204.1575.4094.1575ZM344.9961,785.7853l.6088-3.8315h1.202c.2379,0,.4391.0464.6036.139.1645.0928.2835.223.357.391s.091.3656.0524.5932c-.0384.2591-.14.4838-.3044.6746-.1645.1905-.3656.3209-.6036.391l.5354,1.6428h-.6194l-.4777-1.5748h-.5406l-.2466,1.5748h-.5668ZM345.8883,783.7068h.6352c.1889,0,.349-.0558.4803-.168.1313-.1119.2107-.2623.2388-.4514.0316-.1925,0-.3454-.0944-.4593-.0945-.1136-.2362-.1706-.4252-.1706h-.6352l-.1995,1.2493ZM349.545,785.7853l.6088-3.8315h1.2544c.3709,0,.6508.1048.8399.315.1889.2099.2553.4898.1993.8398-.0384.2344-.1216.4383-.2493.6114s-.2905.307-.4881.4015c-.1978.0945-.419.1418-.6639.1418h-.6928l-.2415,1.5221h-.5668ZM350.432,783.754h.6928c.1924,0,.3568-.0587.4934-.176.1364-.117.2204-.2737.2519-.4696s-.0017-.3525-.0997-.4699-.245-.1757-.441-.1757h-.6876l-.2099,1.2911ZM352.7466,785.7853l.6088-3.8315h2.2518l-.0787.5038h-1.6954l-.1731,1.0867h1.5115l-.0787.4986h-1.5115l-.1942,1.2387h1.6901l-.0787.5038h-2.2518ZM355.8434,785.7853l.6088-3.8315h1.202c.2379,0,.4391.0464.6036.139.1645.0928.2835.223.357.391s.091.3656.0524.5932c-.0384.2591-.14.4838-.3044.6746-.1645.1905-.3656.3209-.6036.391l.5354,1.6428h-.6194l-.4777-1.5748h-.5406l-.2466,1.5748h-.5668ZM356.7356,783.7068h.6352c.1889,0,.349-.0558.4803-.168.1313-.1119.2107-.2623.2388-.4514.0316-.1925,0-.3454-.0944-.4593-.0945-.1136-.2362-.1706-.4252-.1706h-.6352l-.1995,1.2493ZM360.1316,785.8377c-.385,0-.6736-.0951-.8661-.2859-.1924-.1908-.2641-.4505-.2151-.7794h.5668c-.028.1748.0105.3121.1155.4121.1051.0997.266.1495.483.1495.2029,0,.3701-.049.5012-.1469.1313-.098.2109-.2327.2389-.4044.0209-.1504.0007-.2788-.0604-.3856-.0614-.1068-.1583-.1811-.2913-.2233l-.4566-.1364c-.266-.0803-.4619-.217-.5879-.4095-.126-.1922-.1697-.4197-.1313-.6823.035-.2099.1121-.3935.2309-.551s.2729-.2799.4619-.3673.4024-.1313.6404-.1313c.3498,0,.6158.0954.7978.2859.182.1908.2485.4437.1995.7586h-.5668c.0279-.168-.0027-.3001-.092-.3964-.0891-.0963-.2301-.1444-.4225-.1444-.1889,0-.343.0447-.4619.1338-.119.0894-.1889.2144-.21.3753-.0245.1506-.007.2791.0525.3859s.1575.1811.2939.223l.4672.1469c.2624.0806.4558.2173.5801.4095.1242.1925.1653.4217.1233.6877-.035.217-.1155.4058-.2415.5667-.1259.1612-.2878.2862-.4855.3753-.1976.0894-.419.1338-.6639.1338ZM363.2651,785.8377c-.3568,0-.6228-.1005-.7978-.3019-.175-.201-.2345-.473-.1784-.8161l.2677-1.7006c.056-.3429.2029-.6148.4408-.8161.2379-.201.5355-.3019.8923-.3019s.6228.1.7979.2993c.1748.1993.2361.4707.1837.8136l-.2677,1.7057c-.0561.3431-.2039.6151-.4435.8161-.2398.2013-.5381.3019-.895.3019ZM363.3439,785.3339c.1925,0,.3483-.0524.4672-.1575.119-.1051.1942-.2571.2257-.4568l.2678-1.7006c.0315-.1993.0051-.3517-.0787-.4565-.084-.1051-.2223-.1575-.4148-.1575s-.3473.0524-.4645.1575c-.1173.1048-.1916.2571-.2231.4565l-.2677,1.7006c-.0315.1996-.0053.3517.0787.4568s.2204.1575.4094.1575ZM365.2754,785.7853l.6088-3.8315h.7086l.6194,3.186c.007-.098.0165-.217.0289-.3571.0121-.1398.0271-.2851.0446-.4354.0175-.1506.0367-.2888.0577-.4146l.315-1.9788h.525l-.609,3.8315h-.7085l-.6141-3.186c-.0071.0945-.0167.209-.0289.3437s-.0272.2757-.0446.4226c-.0177.1469-.0367.2833-.0578.4095l-.315,2.0102h-.5301ZM368.2252,785.7853l1.5851-3.8315h.7454l.3726,3.8315h-.5616l-.0735-.9711h-1.0865l-.3884.9711h-.5932ZM369.3852,784.3418h.8714l-.0893-1.1023c-.0175-.1959-.0298-.3654-.0367-.5089-.0071-.1435-.0105-.2432-.0105-.2993-.0175.0561-.0517.1558-.1024.2993s-.1146.3112-.1915.5038l-.441,1.1075ZM371.7208,785.7853l.6088-3.8315h.567l-.525,3.3118h1.6744l-.0787.5197h-2.2465ZM376.6785,785.8377c-.3673,0-.6342-.1005-.8003-.3019-.1663-.201-.2214-.475-.1654-.8213l.4357-2.7608h.567l-.4357,2.7554c-.0315.1962-.008.35.0708.4619.0787.1122.2144.168.4068.168.1925,0,.3473-.0558.4646-.168.1172-.1119.1915-.2657.2231-.4619l.4355-2.7554h.567l-.4357,2.7608c-.056.35-.2003.6245-.433.8241-.2328.1993-.5328.299-.9003.299ZM379.8435,785.8377c-.385,0-.6736-.0951-.8661-.2859-.1924-.1908-.2641-.4505-.2151-.7794h.5668c-.028.1748.0105.3121.1155.4121.1051.0997.266.1495.483.1495.2029,0,.3701-.049.5012-.1469.1313-.098.2109-.2327.2389-.4044.0209-.1504.0007-.2788-.0604-.3856-.0614-.1068-.1583-.1811-.2913-.2233l-.4566-.1364c-.266-.0803-.4619-.217-.5879-.4095-.126-.1922-.1697-.4197-.1313-.6823.035-.2099.1121-.3935.2309-.551s.2729-.2799.4619-.3673.4024-.1313.6404-.1313c.3498,0,.6158.0954.7978.2859.182.1908.2485.4437.1995.7586h-.5668c.0279-.168-.0027-.3001-.092-.3964-.0891-.0963-.2301-.1444-.4225-.1444-.1889,0-.343.0447-.4619.1338-.119.0894-.1889.2144-.21.3753-.0245.1506-.007.2791.0525.3859s.1575.1811.2939.223l.4672.1469c.2624.0806.4558.2173.5801.4095.1242.1925.1653.4217.1233.6877-.035.217-.1155.4058-.2415.5667-.1259.1612-.2878.2862-.4855.3753-.1976.0894-.419.1338-.6639.1338ZM381.9062,785.7853l.6088-3.8315h2.2518l-.0787.5038h-1.6954l-.1731,1.0867h1.5115l-.0787.4986h-1.5115l-.1942,1.2387h1.6901l-.0787.5038h-2.2518ZM386.9426,785.8377c-.3568,0-.6228-.1005-.7978-.3019-.175-.201-.2345-.473-.1784-.8161l.2677-1.7006c.056-.3429.2029-.6148.4408-.8161.2379-.201.5355-.3019.8923-.3019s.6228.1.7979.2993c.1748.1993.2361.4707.1837.8136l-.2677,1.7057c-.0561.3431-.2039.6151-.4435.8161-.2398.2013-.5381.3019-.895.3019ZM387.0213,785.3339c.1925,0,.3483-.0524.4672-.1575.119-.1051.1942-.2571.2257-.4568l.2678-1.7006c.0315-.1993.0051-.3517-.0787-.4565-.084-.1051-.2223-.1575-.4148-.1575s-.3473.0524-.4645.1575c-.1173.1048-.1916.2571-.2231.4565l-.2677,1.7006c-.0315.1996-.0053.3517.0787.4568s.2204.1575.4094.1575ZM388.9529,785.7853l.6088-3.8315h.7086l.6194,3.186c.007-.098.0165-.217.0289-.3571.0121-.1398.0271-.2851.0446-.4354.0175-.1506.0367-.2888.0577-.4146l.315-1.9788h.525l-.609,3.8315h-.7085l-.6141-3.186c-.0071.0945-.0167.209-.0289.3437s-.0272.2757-.0446.4226c-.0177.1469-.0367.2833-.0578.4095l-.315,2.0102h-.5301ZM392.249,785.7853l.6088-3.8315h.567l-.525,3.3118h1.6744l-.0787.5197h-2.2465ZM396.1174,785.7853l.2204-1.4119-.7506-2.4197h.5774l.4462,1.4486c.0279.0945.0498.1837.0656.2677.0157.084.0253.1469.0288.1888.0175-.0419.0464-.1048.0867-.1888.0402-.084.0883-.1731.1442-.2677l.8976-1.4486h.5984l-1.5275,2.4197-.2204,1.4119h-.5668ZM399.217,785.7853l.6088-3.8315h.7086l.6192,3.186c.0071-.098.0165-.217.029-.3571.012-.1398.0271-.2851.0444-.4354.0177-.1506.037-.2888.0578-.4146l.315-1.9788h.5248l-.6088,3.8315h-.7085l-.6141-3.186c-.0071.0945-.0167.209-.0289.3437s-.0272.2757-.0446.4226c-.0177.1469-.0367.2833-.0578.4095l-.315,2.0102h-.5301ZM403.5053,785.8377c-.3571,0-.6231-.1005-.7979-.3019-.1751-.201-.2344-.473-.1785-.8161l.2677-1.7006c.0561-.3429.203-.6148.4411-.8161.2378-.201.5354-.3019.8922-.3019.3571,0,.6228.1.7979.2993.1748.1993.2361.4707.1837.8136l-.2677,1.7057c-.0561.3431-.2039.6151-.4437.8161-.2395.2013-.5379.3019-.8947.3019ZM403.5839,785.3339c.1925,0,.3483-.0524.4673-.1575.1187-.1051.1942-.2571.2255-.4568l.2677-1.7006c.0316-.1993.0054-.3517-.0786-.4565-.084-.1051-.2224-.1575-.4146-.1575-.1925,0-.3474.0524-.4647.1575-.117.1048-.1914.2571-.223.4565l-.2677,1.7006c-.0316.1996-.0051.3517.0789.4568.0837.1051.2204.1575.4092.1575ZM406.3814,785.7853l.5248-3.3121h-1.0234l.084-.5194h2.6193l-.084.5194h-1.0289l-.5248,3.3121h-.567ZM409.5178,785.7853l.6088-3.8315h2.32l-.084.5194h-1.7636l-.1837,1.1445h1.6272l-.084.5248h-1.6166l-.2571,1.6428h-.567ZM413.7694,785.8377c-.3571,0-.6231-.1005-.7979-.3019-.1751-.201-.2344-.473-.1785-.8161l.2677-1.7006c.0561-.3429.203-.6148.4411-.8161.2378-.201.5354-.3019.8922-.3019.3571,0,.6228.1.7979.2993.1748.1993.2361.4707.1837.8136l-.2677,1.7057c-.0561.3431-.2039.6151-.4437.8161-.2395.2013-.5379.3019-.8947.3019ZM413.848,785.3339c.1925,0,.3483-.0524.4673-.1575.1187-.1051.1942-.2571.2255-.4568l.2677-1.7006c.0316-.1993.0054-.3517-.0786-.4565-.084-.1051-.2224-.1575-.4146-.1575-.1925,0-.3474.0524-.4647.1575-.117.1048-.1914.2571-.223.4565l-.2677,1.7006c-.0316.1996-.0051.3517.0789.4568.0837.1051.2204.1575.4092.1575ZM415.7952,785.7853l.6088-3.8315h1.202c.2381,0,.4391.0464.6037.139.1643.0928.2833.223.3568.391s.0911.3656.0527.5932c-.0387.2591-.1401.4838-.3044.6746-.1646.1905-.3659.3209-.6037.391l.5354,1.6428h-.6194l-.4776-1.5748h-.5408l-.2466,1.5748h-.567ZM416.6876,783.7068h.635c.1891,0,.3491-.0558.4804-.168.131-.1119.2107-.2623.2386-.4514.0316-.1925,0-.3454-.0945-.4593-.0943-.1136-.2361-.1706-.4252-.1706h-.635l-.1993,1.2493ZM420.905,785.8377c-.3602,0-.6308-.1005-.8107-.3019-.1803-.201-.2423-.473-.1865-.8161l.2677-1.7006c.0561-.3463.2056-.6194.4488-.8187s.545-.2993.9056-.2993c.3568,0,.6253.1008.8056.3019.1803.2013.2423.4733.1865.8161h-.567c.0313-.1993.0026-.3517-.0866-.4565-.0894-.1051-.2284-.1575-.4175-.1575-.1925,0-.3508.0524-.475.1575-.1242.1048-.2019.2554-.2335.4514l-.2677,1.7057c-.0316.1996-.0026.3517.0866.4568.0894.1051.2301.1575.4226.1575s.35-.0524.4724-.1575.1993-.2571.2309-.4568h.5667c-.0347.2275-.1145.4252-.2386.5932s-.2808.2976-.4699.3884c-.1888.0908-.4024.1364-.6404.1364ZM424.0335,785.8377c-.3571,0-.6231-.1005-.7979-.3019-.1751-.201-.2344-.473-.1785-.8161l.2677-1.7006c.0561-.3429.203-.6148.4411-.8161.2378-.201.5354-.3019.8922-.3019.3571,0,.6228.1.7979.2993.1748.1993.2361.4707.1837.8136l-.2677,1.7057c-.0561.3431-.2039.6151-.4437.8161-.2395.2013-.5379.3019-.8947.3019ZM424.1121,785.3339c.1925,0,.3483-.0524.4673-.1575.1187-.1051.1942-.2571.2255-.4568l.2677-1.7006c.0316-.1993.0054-.3517-.0786-.4565-.084-.1051-.2224-.1575-.4146-.1575-.1925,0-.3474.0524-.4647.1575-.117.1048-.1914.2571-.223.4565l-.2677,1.7006c-.0316.1996-.0051.3517.0789.4568.0837.1051.2204.1575.4092.1575ZM425.9653,785.7853l.6088-3.8315h.6874l.1837,1.2282c.0211.119.0367.2301.0473.3332.0105.1034.0194.1828.0262.2389.0177-.0561.0473-.1364.0894-.2415.0419-.1051.0908-.217.1469-.336l.5667-1.2228h.7088l-.6088,3.8315h-.5354l.2045-1.2911c.0245-.168.0578-.3525.1-.5539.0419-.201.0874-.4041.1364-.6088s.0963-.3998.1418-.5852c.0453-.1854.0874-.3483.1259-.4881l-.8554,1.8632h-.5513l-.2833-1.8632c-.0037.1364-.0105.2947-.0211.475s-.0236.3719-.0393.5747c-.0157.203-.035.4069-.0578.6114-.0228.2047-.0481.3964-.076.5749l-.2047,1.2911h-.5405ZM429.1145,785.7853l.6088-3.8315h.6874l.1837,1.2282c.0211.119.0367.2301.0473.3332.0105.1034.0194.1828.0262.2389.0177-.0561.0473-.1364.0894-.2415.0419-.1051.0908-.217.1469-.336l.5667-1.2228h.7088l-.6088,3.8315h-.5354l.2045-1.2911c.0245-.168.0578-.3525.1-.5539.0419-.201.0874-.4041.1364-.6088s.0963-.3998.1418-.5852c.0453-.1854.0874-.3483.1259-.4881l-.8554,1.8632h-.5513l-.2833-1.8632c-.0037.1364-.0105.2947-.0211.475s-.0236.3719-.0393.5747c-.0157.203-.035.4069-.0578.6114-.0228.2047-.0481.3964-.076.5749l-.2047,1.2911h-.5405ZM432.4107,785.7853l.6088-3.8315h2.2516l-.0786.5038h-1.6955l-.1731,1.0867h1.5115l-.0786.4986h-1.5118l-.1942,1.2387h1.6901l-.0786.5038h-2.2516ZM435.5073,785.7853l.6088-3.8315h1.202c.2381,0,.4391.0464.6037.139.1643.0928.2833.223.3568.391s.0911.3656.0527.5932c-.0387.2591-.1401.4838-.3044.6746-.1646.1905-.3659.3209-.6037.391l.5354,1.6428h-.6194l-.4776-1.5748h-.5408l-.2466,1.5748h-.567ZM436.3997,783.7068h.635c.1891,0,.3491-.0558.4804-.168.131-.1119.2107-.2623.2386-.4514.0316-.1925,0-.3454-.0945-.4593-.0943-.1136-.2361-.1706-.4252-.1706h-.635l-.1993,1.2493ZM439.8007,785.8377c-.3602,0-.6308-.1005-.8107-.3019-.1803-.201-.2423-.473-.1865-.8161l.2677-1.7006c.0561-.3463.2056-.6194.4488-.8187s.545-.2993.9056-.2993c.3568,0,.6253.1008.8056.3019.1803.2013.2423.4733.1865.8161h-.567c.0313-.1993.0026-.3517-.0866-.4565-.0894-.1051-.2284-.1575-.4175-.1575-.1925,0-.3508.0524-.475.1575-.1242.1048-.2019.2554-.2335.4514l-.2677,1.7057c-.0316.1996-.0026.3517.0866.4568.0894.1051.2301.1575.4226.1575s.35-.0524.4724-.1575.1993-.2571.2309-.4568h.5667c-.0347.2275-.1145.4252-.2386.5932s-.2808.2976-.4699.3884c-.1888.0908-.4024.1364-.6404.1364ZM441.8792,785.7853l.0789-.5038h.7768l.4459-2.824h-.7766l.0837-.5038h2.1258l-.084.5038h-.7766l-.4462,2.824h.7768l-.0789.5038h-2.1258ZM444.7399,785.7853l1.585-3.8315h.7452l.3728,3.8315h-.5616l-.0735-.9711h-1.0867l-.3884.9711h-.5929ZM445.8998,784.3418h.8714l-.0894-1.1023c-.0174-.1959-.0296-.3654-.0367-.5089-.0068-.1435-.0103-.2432-.0103-.2993-.0177.0561-.0518.1558-.1025.2993s-.1148.3112-.1916.5038l-.4408,1.1075ZM448.2354,785.7853l.6088-3.8315h.567l-.5248,3.3118h1.6741l-.0786.5197h-2.2465ZM453.1932,785.8377c-.3676,0-.6345-.1005-.8005-.3019-.1663-.201-.2213-.475-.1654-.8213l.4357-2.7608h.567l-.4357,2.7554c-.0316.1962-.008.35.0709.4619.0786.1122.2141.168.4066.168s.3474-.0558.4645-.168c.1173-.1119.1916-.2657.2233-.4619l.4357-2.7554h.5667l-.4357,2.7608c-.0558.35-.2002.6245-.4328.8241-.2329.1993-.5328.299-.9001.299ZM456.3581,785.8377c-.385,0-.6738-.0951-.866-.2859-.1925-.1908-.2643-.4505-.2153-.7794h.567c-.0282.1748.0105.3121.1153.4121.1051.0997.266.1495.483.1495.2028,0,.3699-.049.5012-.1469s.2107-.2327.2389-.4044c.0211-.1504.0009-.2788-.0604-.3856s-.1583-.1811-.2913-.2233l-.4568-.1364c-.266-.0803-.4619-.217-.5878-.4095-.1259-.1922-.1697-.4197-.1313-.6823.035-.2099.1119-.3935.2309-.551s.2731-.2799.4619-.3673c.1891-.0874.4024-.1313.6404-.1313.3497,0,.6157.0954.7979.2859.1817.1908.2483.4437.1993.7586h-.567c.0279-.168-.0026-.3001-.0917-.3964-.0894-.0963-.2301-.1444-.4226-.1444-.1891,0-.3429.0447-.4619.1338-.119.0894-.1891.2144-.2099.3753-.0245.1506-.0071.2791.0524.3859s.1575.1811.2939.223l.4673.1469c.2623.0806.4556.2173.5798.4095.1242.1925.1654.4217.1236.6877-.035.217-.1156.4058-.2415.5667-.1262.1612-.2879.2862-.4855.3753-.1979.0894-.4192.1338-.6641.1338ZM458.4209,785.7853l.6088-3.8315h2.2516l-.0786.5038h-1.6955l-.1731,1.0867h1.5115l-.0786.4986h-1.5118l-.1942,1.2387h1.6901l-.0786.5038h-2.2516Z" style="fill: #ccc;"/>
  <g>
    <path d="M399.9201,749.979c-26.0646-20.1424-50.0407-42.85-71.5848-67.7792-24.5087-28.3494-46.6766-58.6611-66.3074-90.5919-34.4257-55.8367-61.7449-115.7804-83.4502-177.5953-21.8245-62.6069-37.7267-127.1131-47.5246-192.6987-5.6278-37.3553-9.1951-75.012-10.6599-112.7667-.4626-12.4331-.6588-24.8662-.7219-37.2852v-6.3427c48.681,6.8613,97.9157,8.9288,146.9962,6.1675,44.9595-2.3689,89.877-8.7046,133.2175-21.0605.1261-.035.2944-.035.4205,0,30.1996,8.8728,61.5416,14.3604,92.8065,17.7385,62.2985,6.6931,125.1718,5.6909,187.211-2.9576.2804,85.6368-10.0292,170.9653-30.6832,254.0721-15.5939,63.8544-37.2992,126.0198-64.8286,185.6972-23.079,50.1598-51.3302,97.7756-84.2632,142.0903-20.6681,27.6555-43.8031,53.3977-69.1318,76.8762-10.0572,9.3003-20.5629,18.0959-31.377,26.4571l-.1121-.028h0l-.0071.007Z" style="fill: #c89c66;"/>
    <g>
      <g>
        <path d="M373.9116,716.8148c-51.6386-47.8891-94.4325-107.6506-127.6248-169.6057-30.8794-57.8692-55.7736-118.7099-74.3321-181.6112-23.4084-78.7475-37.6006-159.969-42.2893-241.9964-.9391-16.2597-1.3106-32.6105-1.4788-48.9263,47.2443,5.9993,94.9371,7.5762,142.4757,4.7237,43.6069-2.5441,87.0876-8.7186,129.2087-20.4999.1261-.035.2944-.035.4205,0,19.1122,5.5647,38.5748,9.889,58.2406,12.9587,58.598,9.4264,118.4296,11.1505,177.5954,6.6441,11.9355-.9111,23.8429-2.1867,35.7363-3.7145-.4625,65.4804-7.1417,130.7856-19.9602,194.9974-12.5522,63.7633-31.1247,126.174-55.4372,186.433-23.4014,57.8692-52.0872,112.8648-87.5501,164.2722-23.107,33.7179-49.6692,64.9338-79.2521,93.1359-9.4825,8.9779-19.4065,17.5072-29.5689,25.6371-9.041-7.1557-17.8156-14.6337-26.1908-22.4272l.014-.028-.007.007ZM391.9304,231.3221c3.3921.3574,6.8193.4205,10.2114.2173,7.6393-.7569,15.0543-3.0978,21.7334-6.8824.3574-2.516.3084-5.0601-.1261-7.5552-2.9646,2.7123-6.3707,4.8919-10.0572,6.4899-8.7887,3.6514-17.7385,3.4061-25.1395-3.1608-11.0874-9.917-12.8045-27.9008-10.5057-41.7216,2.467-14.872,12.9377-24.9713,28.5176-22.8477,2.439.3364,10.5968,2.3479,11.1856,5.1022.5537,3.0066.806,6.0343.799,9.083l3.8547-.6658c1.1143-5.4106,2.1306-10.8141,2.8665-16.2597-8.9148-2.8034-18.3272-3.6514-27.6135-2.495-14.5286,1.3597-27.0108,10.9052-32.148,24.5718-3.2239,8.9499-4.121,18.5865-2.5791,27.9919,2.0815,14.823,13.8698,26.8706,29.0012,28.1531l.014-.014-.0141-.007ZM433.666,287.3901c4.149.7709,9.104-.4976,11.7532-3.9177,2.2707-2.9576,3.6234-7.0646,2.1726-10.6459-1.2335-3.0417-4.2261-4.5836-7.0295-5.9082,1.3877-.806,2.6702-1.8012,3.7986-2.9576,2.2497-2.1866,2.9646-5.5087,1.8503-8.4382-1.8783-4.3032-7.387-5.3825-11.6481-4.2542-4.1841,1.0793-7.1136,4.8289-7.1136,9.1461.0911,3.6514,2.3408,6.8964,5.7049,8.3121-4.0299,1.654-6.7211,5.5227-6.8473,9.889.014,4.3172,3.1118,8.0037,7.3449,8.7887h0l.014-.014h0ZM402.9898,135.8453c.9602.4976,2.0675.6027,3.1118.3084,2.3408-.6798,3.7215-3.0557,3.1608-5.4176-.6168-2.3478-3.0347-3.7636-5.3825-3.1608-2.3759.5887-3.8266,2.9786-3.2379,5.3685h0c.3364,1.2615,1.1915,2.3128,2.3479,2.9155v-.014h0ZM408.7718,287.4392c3.266.9111,6.7842.0631,9.2723-2.2497,5.0251-5.3685,4.955-13.4353,4.7798-20.3737-.1261-4.983-1.3386-11.2767-6.4899-13.3091-2.9576-1.1844-7.1907-1.1424-9.7769,1.0162-3.4552,2.8665-4.7167,6.6441-5.2634,10.9823-.82,6.9735-1.1073,21.5792,7.5271,23.92h-.035l-.014.014h0ZM454.0748,135.9365c.9742.4906,2.0955.5537,3.1188.1542,2.3408-.7569,3.6094-3.2519,2.8665-5.5718-.014-.0771-.035-.1262-.0771-.2032-.3714-1.1424-1.2055-2.0535-2.3128-2.5301-2.1726-.862-4.6606.028-5.782,2.0815-1.1073,2.1867-.2593,4.8429,1.9413,5.9572.0771.035.1542.0911.2313.1121,0,0,.014,0,.014,0ZM379.4974,136.7284c.7429,0,1.4788-.0771,2.2217-.1892,4.2752-1.1844,8.4873-2.5441,12.6363-4.0439l-1.0373-2.9576c-1.5559.4976-4.3172,1.4788-5.817.5677-.6027-.6938-.9531-1.5699-.9742-2.481-.5116-6.4969-.6658-13.0218-.4205-19.5397.1121-6.9875.4626-13.9749,1.0373-20.9344l-10.8421,3.1468c.5537,8.7186.5747,17.4722.5887,26.2188.1822,3.1188.014,6.2446-.4626,9.3283-.3084.9742-.9602,1.8222-1.8222,2.3759-3.1959,2.5301-7.387,4.2401-11.536,3.1328-6.5529-1.7451-7.1417-8.27-7.1697-13.9399,0-10.0222.1542-20.0093-.1121-30.0034-5.2564,1.4157-10.5828,2.5441-15.9654,3.3501v2.9576c1.1704,0,6.3427-.4976,6.4338,1.0793.5747,10.0992.1542,20.1564.6518,30.1996.0911,2.7754,1.1424,5.4456,2.9576,7.5411,3.266,3.4552,7.7164,4.4294,12.356,4.2401,5.3054-.3084,10.3936-2.2497,14.5426-5.5647.014,1.633.3084,5.768,2.7333,5.5227v-.007ZM423.8471,136.2308c7.9126,1.633,19.1122-.4976,23.1561-8.1439,1.654-2.9646,2.1166-6.4759,1.2685-9.7769-2.6352-8.0948-11.6341-10.2254-18.2011-14.4235-.7569-.5677-1.4157-1.2335-1.9624-1.9904-1.9273-3.2379-1.3877-8.0177,2.481-9.6367,3.252-1.2615,6.9524-.4135,9.3353,2.1306l.0771,5.3685,2.9576-.7429,1.605-9.9661c-1.3877-.5116-2.8384-.8831-4.3032-1.1144-6.6511-.9602-15.3486,0-19.5747,5.9082-2.8384,3.9458-3.266,9.8399-.1051,13.7577,4.1,5.1232,11.3257,6.3427,16.1476,10.5969,3.3501,3.5813,3.1608,9.1811-.3995,12.5382-.7849.7429-1.682,1.3106-2.6842,1.7311-5.5227,1.7451-10.0992-2.4249-12.9377-6.7282l-4.7658,7.1837c2.3899,1.6049,5.1022,2.7333,7.9266,3.315h-.035.014v-.007ZM476.6912,231.3081c11.0874,1.2055,22.273-1.1143,31.9588-6.6651.3715-2.516.3224-5.0742-.0911-7.5762-4.2752,3.8897-9.4124,6.6791-15.0052,8.1299-7.0926,1.9273-14.6828.1121-20.1634-4.7798-11.3047-10.4707-12.9587-27.7817-10.4567-42.1701,2.5721-14.7809,13.0498-24.4316,28.3984-22.3992,2.467.3224,10.6249,2.3408,11.1996,5.1022.5677,2.9786.82,6.0343.7849,9.083l3.9037-.6658c1.1144-5.4106,2.1166-10.8141,2.8525-16.2597-5.4877-1.7731-11.1996-2.7613-16.9676-2.9576-17.8577-1.2475-35.1056,6.7211-42.2472,23.6467-5.2003,12.4821-5.2914,26.5272-.2173,39.0724,4.4084,10.3165,15.0262,17.3671,26.0856,18.4464h-.035v-.007ZM226.0112,230.0185c15.5519-.6027,31.0476-.5537,46.6556,0l.6658-10.5198c-9.917,3.9948-21.0675,4.9059-31.6784,4.8779-1.4788-24.8802-.7709-49.8024-.4976-74.6826-8.6345,2.1726-17.318,4.1-26.0856,5.6138l.848,3.8266c2.7473-.0911,5.4736,0,8.1929,0,.9882,0,.862.2663,1.4788.848.1051.4135.1682.848.2032,1.2685.799,8.8377,1.1143,17.7245.9882,26.6113-.035,14.1782-.1892,28.2232-.7569,42.1561l-.014-.014v.014ZM342.1981,230.0185h.5677l.82-10.4146c-10.674,3.7145-22.3221,4.6116-33.5216,4.6256-.7569-11.3398-.8971-22.7356-.6798-34.1034,8.1439,0,16.2597.4135,24.4036,1.0653l.7079-7.387c-8.3331.862-16.7223,1.0793-25.1395,1.1424l.8831-28.0901c2.7754,0,5.5718.1892,8.3611.3574,3.7145.2593,9.4404.3995,12.8956,1.4788.3084.1051.5747.2803.7709.5256l.6798,9.7979,3.7145-.3224,2.3128-17.6474c-12.4471.5677-25.4689-.4626-37.6637.3224-6.0343.3995-11.8303,2.467-17.7385,3.7145l.82,4.0229c2.8244-.2313,5.6769-.2313,8.5013,0,.3224.0771.6518.1892.9602.3364.3574.4135.5747.9391.5887,1.4788,1.4788,22.9949.6798,46.1159,0,69.1458,15.9513-.5537,31.8676-.5256,47.7419.035v-.0771l.014-.007ZM583.732,230.0185h.4766l.82-10.4567c-10.6459,3.7986-22.3361,4.5976-33.5777,4.6747-.7219-11.3538-.8831-22.7496-.6658-34.1174,8.1159,0,16.2597.3995,24.2774,1.0653l.82-7.387c-8.3121.862-16.6872,1.0793-25.0203,1.1424,0-9.3353.4205-18.7267.848-28.0901,3.4202,0,6.8473.1542,10.2744.3995,3.7355.2803,7.9406.2803,11.522,1.5769.2032.4976.3364,1.0373.3995,1.5699.2593,2.8525.4205,5.7049.5116,8.5924l3.7215-.3364,2.3128-17.7385c-12.4471.6027-25.3708-.3995-37.5586.3574-6.0764.3995-11.9355,2.467-17.8647,3.7145l.82,3.9808c2.8665-.2032,5.754-.1822,8.6065.1121.7079,0,1.3106.5537,1.3737,1.2615.5677,7.6673.82,15.3907.848,23.093,0,15.0823-.2313,30.1716-.6938,45.2889v1.3106c15.9303-.4906,31.8536-.5677,47.7699.0771v-.0771h0l-.028-.028.007.014ZM369.286,286.9345h.5747v-1.633c-1.633.014-3.252-.1682-4.8429-.4976-.3855-.3574-.6168-.848-.6798-1.3597-.4486-10.9052,0-21.5301.1682-32.4073-.0771-.2803-.2313-.5256-.4626-.7219-3.9177,1.9904-7.9757,3.7005-12.1527,5.0741l.3084,2.6492c2.1306-1.0793,4.3172-2.0185,6.4478-3.0697.1542-.0631.2944-.1051.4486-.1542.2173,0,.4205.1121.6518.1822,0,9.4825.3714,19.0211-.4135,28.4545-.035.6798-.4976,1.2615-1.1424,1.4788-1.4998.2313-3.0417.3714-4.5695.3995l.1121,1.605c5.1863-.1121,10.3515-.1542,15.5519,0l-.014.014.014-.014ZM379.4833,287.6985l.8971-.1822c6.1114-1.5699,11.3047-5.5998,14.3254-11.1645,3.266-6.1815,4.4294-18.2011-1.4788-23.1561-3.7005-3.0207-8.9288-3.2379-12.8606-.5537-4.3663,3.3921-6.1395,9.1461-4.4294,14.4025,1.2825,4.3943,5.7049,7.0786,10.1974,6.2025,2.6702-.4205,4.4294-2.6702,6.4618-4.2121-.4906,9.3633-6.8473,15.4748-15.657,17.5212.4766.3995,1.9273,1.3456,2.5441,1.1424h0ZM426.6225,643.5339l.4486.1682.8621-.1822c-.7709-.5747-1.4508-1.2685-1.9904-2.0535,0,.0771-.1261,1.7311.2313,1.9624.0631.0911.2313.0631.4626.1051h-.014ZM382.2727,664.6786c.1121.1822.2593.3364.3574.5116.3224-.6518.5256-1.3737.5747-2.0955-.4976-2.8665-.3574-4.934-.6518-7.5552-.2663-.7219-.4626-1.4648-.6027-2.2217.3855-1.3597.848-2.6843,1.3737-3.9949.014-1.1915-.1121-2.3899-.3995-3.5603-.4976-.9882-.8831-2.0325-1.1564-3.1118.1051-2.0395.9111-5.0882.9602-7.0926-.2033-2.2637-.0631-4.5205.4486-6.7422.3084.0771,1.8503,1.2054,2.3759,1.4788.028,1.1844.4976,2.3268,1.3386,3.1608l.8761-.6027c-.2593-.2804-.4976-.5887-.7219-.8971-.1822-.2663-.2663-.5747-.2663-.8831-.028-1.4508-.5887-2.8525-1.5769-3.9178.7219-1.4017,1.2335-3.301,1.8993-4.5065.8831-1.633,2.0535-1.5559,1.9624-3.6865l1.8853-1.9414c.1822,2.453.6308,4.1771.9882,6.4969.0771.5116-.4766,2.2497-.3364,2.6492.3574,1.0022.5747,2.0535.6308,3.1188-.0911,1.2335-.5887,2.4179-.7569,3.5603.0911.8831.2173,1.7872.3995,2.6562-.3574,2.5441-.8971,5.0741-1.633,7.5412-.1542.7429.1542,2.4389,0,3.1118s-.8831,1.696-.848,2.2357c0,1.2475-.2313,2.3268-.2313,3.5463v.4205c.4205.9531,1.1564,2.0395.82,3.1188.1261.2663.3364,1.0793.4205.7849.6798-1.4367.5537-3.1328-.3574-4.4294.5256-1.0793.6938-2.2707.4976-3.4552.4766-.6658.806-1.4367,1.0022-2.2357.1261-1.0793.1682-2.1726.1121-3.252,1.5769.5677,2.8665,1.7311,3.5813,3.252l1.4788.1822.7079,2.7473c.3084-1.0793.3084-2.1937,0-3.273-1.4928-1.7591-3.1188-3.3921-4.8779-4.8709.2033-2.1306.5537-4.2261,1.0022-6.3076.2313-1.9273.3224-3.8406.2313-5.782.2663-.6658,1.0162-1.4788.9391-2.2217-.1682-1.4788.2173-5.0321,1.9273-5.4877.6168-1.8853.3714-2.6352,2.3408-3.6584.4976,1.4928,1.3737,2.8384,2.5301,3.9178.028,1.5278.4135,3.0066,1.1143,4.3383.1682,1.1844.1682,2.3619,0,3.5463-.4486,1.0513-1.3386,2.0955-1.8222,3.1188-.1261.2804-.1261.5887,0,.8761.4626,1.3597.6027,2.8034.4205,4.2121,1.1564,1.654.4626,4.086-.2803,5.782.4486,1.668.7219,3.3921.806,5.1092-.0771.3084,0,.6308.2033.8831.6938.8761,1.0162,1.9764.9111,3.0977-.3224,1.9554-.9111,3.8267-1.3386,5.782-.2593.1892-.7219.5116-.8831.6168-.3995,1.8362-.4976,3.7215-.3364,5.5998,0,.1051,0,.4625,0,.3364h1.0022c-.035-1.4788.028-2.9646.2313-4.4294.2803-.806.7849-1.5278,1.4788-2.0395l2.2497.7079c.1121.1261.3084.2663.3574.4205.3084,1.1915,1.2615,1.1915,1.9904,1.7241s.806,1.0793,1.1915,1.8783c.1682.3364.3995.3224.4906,0,.028-.4135,0-.848-.0911-1.2615-1.0162-.7709-1.8012-1.7872-2.3128-2.9576l-3.3641-2.0955c-.014-.5747.035-1.1424.1682-1.696.1121-.3364.9882-2.0185,1.0162-2.2217-.0631-1.6049-.3084-3.2239-.7569-4.7798.9111-.2313,1.8783-.1051,2.6842.3715,1.2615.9531,2.4249,1.9624,3.5323,3.0697,2.481.3364,2.5441,1.3456,3.4272,3.4552,1.1143.6518,2.3128,1.8783,3.2379,2.3409.5677.2663,1.2825.3574.806,0-.8761-.7079-1.6961-1.4788-2.495-2.2707l-.4205-.3855c-.4135-1.3386-1.1424-2.5441-2.0955-3.5463-1.0162-.3855-2.0185-.862-2.9576-1.4017-.6168-.4976-1.0793-1.1915-1.3106-1.9624-.1121-.1542-.2803-.2663-.4626-.3364-1.4367-.6798-2.8104-1.4928-4.0859-2.4389-.1682-.1261-.2803-.3084-.3364-.4976-.7569-2.2637,1.1844-4.2542.7569-5.782-.4976-1.2685-.6518-2.6492-.4205-3.9949.4486-1.8642,1.8012-4.5696,2.0675-6.2025.1892-2.6843-.035-5.3966-.6798-8.0177.3855-.9742.8761-1.8993,1.4788-2.7613.7709.2943,1.4508.799,1.9273,1.4788.3364,1.8503.9602,3.6374,1.8362,5.3054-.1121.7429-.1121,1.4928,0,2.2357.7429,2.1586,1.2685,4.3943,1.5909,6.6511l-1.3456,1.0022c-.3574.5116-.2313,1.4788-1.1073,2.5721-.1682,1.7732-.1261,3.5603.0911,5.3335,0,0,0,.1822,0,.1542l.7079-.2173c-.3084-1.4648-.2593-2.9786.1542-4.4294.3995-.7079.848-1.3737,1.3456-2.0185.4205-.4205.9602-.7219,1.5559-.862.3364,2.2217.5747,4.5696.8831,6.8613-.1121.5887-.1892,1.1844-.2173,1.7732.028,1.3877.3574,2.7473.9742,3.9949.4626,1.1704,2.0535,1.3456,3.0557,2.1937,1.2475,1.0793,2.3759,2.2707,3.3921,3.5813.1261.1121.2593.2804.3224.4486.3714,1.654.8831,3.2659,1.5699,4.8148l.5677.1682c.1121-.8831-.4626-3.1188-.4135-4.4294-.9882-1.3106-1.7241-2.7473-2.5721-4.135-.5747-.6168-1.2825-1.0933-2.0675-1.3737.8971-.2173,1.8222-.3574,2.7333-.3855,1.1564.4766,2.4179.6518,3.6514.5537,1.8503.848,3.7636,1.5909,5.74,2.2707.3364,1.696.5116,3.4272.5537,5.1793,0,.2943.3995,1.1424.4205.806.1051-1.696.1051-3.4061,0-5.1022,2.8104.3224,2.9576.6798,5.1863,2.2357l.6798-.2663c-.9602-.8831-2.2707-1.668-3.343-2.5791-2.7263-1.0653-4.7798-2.6492-7.5552-3.7145-3.1328-.9531-6.9384-1.3386-10.1203-2.0815v-.848l.1892-2.2357-1.2825-3.1118-.3714-6.6511-1.5559-3.1188-.6518-3.9949-2.3619-5.782-.2173-.8761c-.1892-.6168.014-1.2826.5116-1.696,1.3386,1.8222,2.5441,3.7215,3.6374,5.6909.5116,1.4367.8761,2.9295,1.0513,4.4294.0631.2663.2593.4976.4976.6168,1.4367.8761,2.6562,2.0535,3.5954,3.4552l4.983,1.7451c-.9111,1.1564-.2663,4.0088-.4766,5.7189.5256.9392.7079,2.0675,1.2055,3.0557.2803.5887.3855-.1892.2803-.848-.1542-.8971-.3855-1.8012-.7079-2.6562,0-.1682,0-.3084.1051-.4625.2944-1.4788.5116-2.6352.7569-4.0579.2173-.1542.5747-.6518.7079-.3995l.8621,1.7241c.6798-.0911,1.3737.014,1.9904.2943,2.0185,1.8853,4.6256,3.0207,7.387,3.1468-.2313.3715-.1822,1.0933-.3574,1.4788.4135,1.3597,1.0933,2.6352,2.0185,3.7215.2663.2173.4205.5537.4205.8971,0,.7569.1261,1.4998.3714,2.2217.6308.6518,1.5909.4976,1.9273,1.4788,2.1937-.0771,4.1841,1.3456,4.8008,3.4692l.6518-.5677c-.3855-.7709-.848-1.4788-1.3597-2.1586-.6518-.6658-1.3597-1.2615-2.1446-1.7591-.6798-.3364-1.4157-.5747-2.1726-.7079-.1892-.2032-.3364-.4486-.4205-.7079-.6308-2.3268-1.4648-4.5976-2.467-6.7842.9111-.1542,2.1306.1051,3.301-.1051.6027.1051,1.2055.2804,1.7731.5116,1.2825,1.1915,2.6212,3.1608,3.9949,4.4294,1.2475,1.0653,2.8104,1.654,4.4294,1.6821.7219,1.0022,4.4294,2.6212,5.782,3.4692.4976.4205.9602.9392,1.3386,1.4788.3084.3715.3714-.2032.1542-.6308-.2663-.4976-.5887-.9602-.9742-1.3737-1.2966-1.2826-2.9576-1.9904-4.1771-3.0977.4135-.4766.9602-.799,1.5699-.9742,2.3268.3084,4.6606.4625,6.9875.4486l.6658-.6798c-1.5909-.7219-3.3641-.9602-5.1022-.7079-.9531-.028-1.8643-.2943-2.6702-.7709-.2803-.1051-.6027-.1051-.8831,0-1.2825.3364-2.5581.7709-3.8126,1.2054-.2803-.2173-3.4552-3.1118-3.5183-3.315-.4205-1.0653-1.1143-2.0185-1.9904-2.7473-1.2685-.5256-2.6212-.8831-3.9949-1.0372-1.647.1051-3.273-.0631-4.8779-.4625-1.5278-.4625-2.9576-1.1844-4.2261-2.1586.4976-.1892,1.0162-.3084,1.5559-.3574,1.1844-.0911,2.3759.0911,3.4972.4976.5747-.2804,1.2055-.4486,1.8503-.4625,1.7872.1542,3.6234.1682,5.3335.3224,1.4367.2663,2.7754.806,3.9949,1.633.2803.1261.5887.1682.8831.0771,1.0022-.2173,1.9904-.5116,2.9576-.8831l-.2593-.7429c-1.0653.4976-2.2707.5677-3.3921.1542,0-1.0933.2593-2.1726.7079-3.1608,0-.2943-.1051-.6168-.1682-.9111-.5747,1.2685-1.3737,2.425-2.3479,3.4272-.5677-.5256-1.2615-.8971-2.0185-1.0653-3.1118-.1542-6.1044-.6168-8.8728-.6518-1.3386.1822-2.6562.2804-3.9949.2943-2.8525-.3224-3.0347-2.0815-4.8779-2.5791-.9391-.2663-2.7473-.1542-3.5463-.4976-.9882-.5116-1.8993-1.1844-2.7123-1.9764-.1682-.1542-.3855-.2593-.4626-.4625-.5116-2.6212-1.8853-4.9971-3.9037-6.7562.2803-.6798.9882-1.1074,1.7311-1.0372.82.5747,1.668,1.1704,2.467,1.8012.7849-.2313,1.605-.2804,2.4249-.1261,1.1424.4976,2.1937,1.1144,3.2099,1.8642.9882-.1261,1.9764-.0771,2.9576.1542,1.7591.5537,4.934,2.1306,6.6511,2.467,1.0022.2032,3.0417-.4766,4.0089-.3364,1.8362.4766,3.6094,1.1074,5.3194,1.9273,0,0,.4135.0911.4486.1121.8761-.2663,1.7872-.3224,2.6702-.1261.7219.2313,1.5909.9602,2.2217,1.1564,1.2966.1822,2.6352-.1682,3.6865-.9531,2.1937,1.2966,4.5345,2.3619,6.9594,3.1749,1.1704.2032,2.3619.2663,3.5603.1822l.848-.6798c-2.2638-.3224-4.4924-.8971-6.63-1.7311-1.2685-.5677-3.8407-2.5161-4.8919-2.8244-2.2217-.6027-5.4596.1892-7.5271-.1051-1.5699-.2173-3.4692-1.696-4.8919-2.1166-2.0395-.4205-4.149-.4976-6.2306-.2593-2.0395-.9882-3.9528-2.1726-5.768-3.5463-1.0373-.0631-2.0815-.1682-3.1118-.3364-1.5909-.4906-3.0417-1.3597-4.2121-2.5441-.3995-.3995-.4486-1.0162-.1121-1.4788-.3084-.2313-.6518-.4205-1.0022-.5887-2.4249-.9392-4.7938-2.0185-7.0646-3.252-.1542-.0911-.2803-.2313-.3574-.3995-.9531-1.633-2.1726-3.0557-3.6374-4.2401,0-.2943-.0911-3.0557-.1682-3.315-.4626-1.4788-1.9764-4.4294-2.2497-5.768-.1822-1.9273-.4766-3.8267-.8761-5.7049.3084-1.0372.5747-2.0955.7849-3.1608,0-1.3386-.1892-6.2936.4135-7.1136-.4135-.9882-.6938-2.0395-.848-3.1188,0-1.7872.4205-3.5603.5747-5.3195.1822-3.4202.1121-6.8473-.2033-10.2534,2.1166.3995,4.2752.5256,6.4338.4135.4976.5116,1.1564.848,1.8643.9392.7569-.1261,1.5278-.028,2.2217.2943,3.5323,1.6821,6.3707,4.5696,7.9757,8.1439.82,1.668,2.5441,5.1512,2.495,6.6791-.014.3364.1542.6658.4205.8761.6658.5747,1.9273,1.2685,2.0955,2.2217.3995,2.1937.5256,4.4294.3995,6.6651-.2173,1.1704-.5256,2.3268-.9531,3.4412-.7219.3574-1.4788.6168-2.2638.7849-1.3386.2943-4.107.5887-5.754.9111-.3855.0771-.7219.2804-.9742.5677-.2593.4135-.3714.8971-.3364,1.3877-.3995.6168-1.7451,1.3597-1.5909,2.2217.0911.6027-.014,1.2475-.2944,1.7872.028.2804.0771.5677.1261.848.2663.1121.5677.1892.8621.1892,2.6562-.1892,5.3335-.1892,8.0037,0,.6658-.3574,2.2848-1.8853,2.9576-2.3478.0911-1.0513.6168-2.0325,1.4788-2.6492,1.1564-.8761,2.3408-1.4788,3.5183-2.2357.2313-.2804.4626-.5677.6518-.8761.3714-1.1915,1.0513-2.2637,1.9624-3.1188.3364-.6938.4906-1.4508.4626-2.2217-.0771-.82-.5256-1.5699-1.2335-1.9904-.035-.2173-.035-.4486,0-.6658.6027-2.1726-1.1704-3.252-1.1424-4.8919s.5256-3.4272.5677-4.8779c.035-.3574.1892-.6798.4486-.9392,1.4998-.6168,2.9015-1.4788,4.135-2.5301.3364,1.4998.9111,2.9576,1.7241,4.2892,1.4928,1.8642,3.273,3.4692,5.2914,4.7658,1.1424.6938,1.9413.7569,2.7613,1.8503,3.0697.7709,6.6931,1.3456,9.6577,2.2217.6027.1682,2.516,1.2054,3.1188,1.2685s1.668-.1542,2.495-.1892c.1822.1051.3364.2173.4906.3574.6027.6308,1.1564,1.4788,1.7241,2.2497.6938,1.4157,1.2615,2.9155,1.668,4.4294.014,1.1844-.0631,2.3619-.2313,3.5323-.0771.3364-.2313.6518-.4766.8971-1.2685,1.1144-2.9576,1.6821-4.6606,1.5559-.5537.7429-1.2685,1.3386-2.1166,1.6821,0,.5537-.2944,2.0395.2033,2.3759,1.5699,1.0022,3.252,1.4788,4.8919,2.7123.2593.1892.5747.2593.8831.1822,1.3877-.3574,3.6374-.7849,4.8919-1.2685.6168-.2593,1.2055-.5887,1.7311-1.0162,0-.4766.3224-2.0535.3995-2.6562.848-.806,1.2966-1.9414,1.2966-3.1118-.3224-2.3899-1.0793-4.7167-2.1937-6.8613.1542-1.5909-.3364-3.1959-1.3456-4.4294.2593-1.1074.1822-2.2707-.2313-3.3431-1.0793-2.0185-3.3501-2.4389-5.4176-2.5441-1.4648-1.3737-3.1188-2.5301-4.8919-3.4552-.1682-.1261-.2944-.2663-.4205-.4205-.8621-1.4788-2.3128-4.107-2.9576-5.5647-.7429-1.9764-1.0793-4.1-1.0022-6.2025-.0911-2.1866,1.8643-4.7027,2.5581-6.6791,1.4788-4.1-.5747-8.0247-1.7731-11.9845-.0911-.2804-.1682-.5747-.2313-.8761l.9602-.1892c.8831.82,1.7241,1.696,2.495,2.6352.7849,1.4157,1.7311,2.7333,2.8384,3.9318l.4135,1.4788c.2803.1051,1.2966.6027,1.3106.9882.1051,1.4998.4135,3.0066.8971,4.4294.0771.1682.1822.3084.3084.4205.5677.5537,2.3479,1.9554,2.0395,2.8104.5887.3084,1.9554.8971,2.1446,1.654.7079,2.9576,4.0229,3.2659,5.5647,5.3335.4976.6658,1.1844,2.9576,1.7451,3.5813s1.4788.6658,2.2637,1.1424c1.2054,1.1144,2.0815,2.5581,2.5161,4.149.035.6938.035,1.3737,0,2.0675l1.8993,1.1564v1.0372l2.1726,1.1844.2804,1.7591h.6938c.1121-.1542.1892-.3224.2943-.4766.1822-.2663.2943-.5677.3715-.8761-.1822-.6658-.2663-2.6562.2663-3.1608l-.8831-3.4552c.5677-.2173.8971-.7849.82-1.3737-.5887-1.5769-1.3877-3.0697-2.3759-4.4294-.1822-.2663-.2593-.5887-.2032-.8971.3084-1.1144.1261-2.3409-.5116-3.315-2.0325-3.3431-4.4294-6.8193-6.6931-9.9801-.7849-1.1144-2.6702-1.4788-3.5463-2.2217-1.1424-.9882-2.2497-3.0557-3.3501-4.0088-.5747-.5256-1.3877-.848-1.9413-1.3877-.6658-2.2848-1.682-5.6488-4.0089-6.7983-1.5769-.799-3.2239-1.4928-4.8919-2.0675-.6027-.2173-3.5813-.3574-3.9949-.6168-2.6702-1.7241-5.3054-4.3172-8.0037-6.0764-1.4788-1.0162-3.1188-1.7872-4.8709-2.2357-3.8126-.8761-7.6673-1.4998-11.557-1.8783-3.7005-.3224-7.408-.2313-11.0874.2663-4.121-.7079-7.1136-.3364-11.0944-.6027-1.5699-.1822-3.343-.3574-4.6887-.6308-.5116-3.301-.8621-6.6301-1.0162-9.9521-.014-.5537.1822-1.0793.5537-1.4788l-.6658-1.7732c1.8853-2.8525-.0911-3.252.1261-5.5647.1542-1.4788,1.1564-2.9576,1.2685-4.4294.1892-2.5441-.5116-5.1232-.5677-7.5552,0-3.0697.5677-6.2586.4205-9.3283s-1.0933-6.6651-1.2475-9.3143c.035-2.6702.2313-5.3545.5677-8.0177.1682-1.0933.5256-2.1306,1.0793-3.0977,1.8012-1.7872,4.5345-3.8267,6.2306-5.782,1.7591-2.3478,3.273-4.8919,4.5345-7.5552.1822-.3574.8621-1.2966.7849-.9111-.4626,2.5721-.4906,5.1092,1.9624,6.644.2593-.2663.4766-.5256.6798-.82.1682-.82.5887-1.5699,1.2055-2.1446.2803.4766,1.0793.3715,1.4788.3715.1121-.806.4766-1.5769,1.0373-2.1866l2.0325,1.647.9742-.3855c.1261-1.4788.1682-2.9576.0911-4.4294-.014-.3574.1121-.6938.3714-.9531,1.2966-.6798,2.2217-1.9414,2.453-3.4061,1.1704.4135,2.1866,1.1564,2.9576,2.1306.6518,1.2335,1.1844,2.5161,1.5769,3.8406,1.0933,0,2.1937.0771,3.273.2313,1.5559.848,3.1959,1.4998,4.8779,2.0185,1.1143.0771,1.8503,0,2.467-.9531l-1.8643-2.5581.9742-.799c0-.2313,0-.4625.0771-.6938-.6027-.4625-1.0373-1.0933-1.2475-1.8222l2.1937-.8831.4976-1.1564c1.2685.5537,2.453,1.2615,3.5463,2.0955.9111-.806,1.9413-1.4928,3.0417-1.9904,1.3106,4.107,7.2328,4.135,10.751,3.6865.9882-1.8012,1.2055-3.9318.6168-5.9082-1.1143-2.5791-2.6562-5.0741-3.9458-7.5271-.1261-.3855-.3714-.7079-.7079-.9392-.9602-.3574-1.8503-.862-2.6562-1.4788-.8761-1.4788-1.5769-3.1608-2.3759-4.6607l-2.0535.7709c-.5677.1822-1.1143.1051-.7079-.3224.4976-.5537.8831-1.1844,1.1564-1.8642.7569.2173,2.9576,1.3597,3.5463,1.0793s2.3759-1.3386,3.1118-1.1564c1.4017.3574,3.1118.7079,4.5205.9531.1822-.8831.4486-1.7451.799-2.5721,1.1143-1.0793,2.9576-1.5909,2.9576-3.3921,2.8805.1822,5.754-.4625,8.27-1.8503.1051-.1682.1822-.3364.2173-.5116.2313-1.4017-.1051-2.8384-.9391-3.9949-2.0325-1.8993-4.1771-3.6865-6.3988-5.3335l.806-.2173c.7429.6798,1.668,1.1074,2.6562,1.2335,1.2055-.028,2.3759-.4135,3.3641-1.0933.806.6027,1.4928,1.4017,1.9554,2.3128-.5537,1.1074-.7569,2.3409-.6168,3.5603,1.0513,3.1608,4.4294,4.8709,7.2608,6.3427.9602-.3995,1.8362-.9742,2.5721-1.7241-.028.862.1682,1.7241.5677,2.481,1.5419,2.0325,3.5813,3.6234,5.9082,4.6116.4766-.4205.8761-.9111,1.1844-1.4788,1.3597-2.8034.2804-5.9993-.2804-8.8727-.0631-.4906-.028-.9882.1051-1.4788.82-.1121,1.654.014,2.4179.3855.862.7219,1.3456,1.8993,2.2217,2.6352,2.2707,1.8642,5.6909,1.3386,8.4242.799.3224-1.8362-.2173-3.7145-1.4788-5.0741-1.654-1.5419-3.2379-3.1608-4.7237-4.8779-.9111-.2663-1.8222-.5887-2.6843-1.0022-.862-.6938-1.6049-1.4928-2.2357-2.4179,4.086-.6168,5.754-4.2892,6.3427-8.0668-.3084-.1892-.6518-.3714-.9882-.4976-1.5699-.6658-3.3431-.6518-4.8919.0771-1.8642.8971-3.7916,1.654-5.768,2.2497l-1.696,1.647c-.848.4766-1.7311.848-2.6492,1.1143-.6168.0911-1.2475-.035-1.7872-.3574-1.4788-1.5769-2.9576-3.5463-5.3335-2.2357-.1542.82-.1542,1.682,0,2.516,0,.6308-.1051,1.2055-.4625.7079-.5537-.7849-1.3386-1.3737-2.2217-1.7241-2.2357-.6798-4.5205-1.2966-6.6511-2.1446-.82,0-2.9576.8971-3.5603.6308-.9391-.4626-1.9273-.7429-2.9576-.848,2.2638-2.6492,4.4294-3.5603,7.387-5.2283.5116.3714,1.1424.5677,1.7731.5537,1.3106-.3084,2.6562-.4205,4.0088-.3224.9531.8621,1.9764,1.5909,3.1118,2.2217,4.2121,1.633,8.5013-.3855,12.37-2.3128-1.4788-1.647-3.2379-3.9177-4.8148-5.3545-1.4157-1.0933-2.9015-2.1166-4.4294-3.0417.1822-.2313.2663-.6938.5747-.6658.8971.0771,1.7591.3714,2.5161.8761.2804.0911.5887.0911.8761,0,.5256-.2593,1.1564-.9602,1.7872-.6168,1.0793.6027,2.1166,1.2825,3.1118,2.0395.5537.2313,1.1564.3084,1.7311.1822.2032.6518.5887,1.6961,1.3737,1.8643.6938.1121,1.2826.5537,1.6049,1.1704.3364,1.4157.9111,2.7613,1.7241,3.9949.2804.1892.5887.3364.9392.4205.3855-.3364,1.0022-1.0653,1.4788-1.1424.3084-.1051.6658.014.848.2944.6168.6658,2.5721,2.8104,3.6094,2.5791,2.0325-.4626,3.2379-2.495,3.8897-4.4294.4205-1.2615-.5116-2.8665-.9882-3.9808h1.7451l.6518-2.3268c.6518-.028,1.3106.0631,1.9414.2663.799.4766,2.3478,1.1564,3.1118,1.647.3364.1892.6308.4906.82.82.6027,1.3106.7219,2.1726,2.2707,2.6562.3855.1822.6658.4906.799.8831.3855,1.3597.8761,2.6702,1.4788,3.9458.2593.3855.6518.6518,1.0933.7429.4976-.5256,1.0793-.9742,1.7241-1.3386.2663.1822.4976.3855.7079.6168.4906.5887,2.2637,2.6562,3.1118,2.481,2.1166-.4906,3.252-2.6492,3.8267-4.6887.4205-1.4788-.8831-3.5183-1.4788-4.8779.1051-.1542.2173-.5747.3364-.4486.9602.9602,2.3759,2.6072,3.9178,2.1866.0911-.8761.3224-1.7241.7079-2.495,1.1844.4976,2.481.6798,3.7636.5256.848-.1892,1.1844-1.2685,1.3456-1.9904.2663-1.647.1121-3.329-.4135-4.8919-.0771-.2663-.2593-.4976-.4906-.6308-2.0395-1.7241-4.5696-2.7333-7.2187-2.9576l.1822-1.1915c1.1564-.3574,3.5323-.9111,3.7495-2.3619.1261-1.7591-.5677-3.4692-1.8853-4.6256h-.5747c-2.1446-.2313-4.3032.1542-6.2446,1.0933-1.8783,1.1424-3.7145,2.3268-5.6769,3.273,0,.4766,0,1.5559-.5256,1.8362-.9882.6168-2.495,1.9273-3.1118,2.1586-.1261.0631-.2804.1051-.4205.1121-1.0513-.0911-2.0955-.2663-3.1188-.5537-1.7241-.848-3.5042-1.4648-5.3685-1.8783-.1121-.2663-.5537-.6658-.2804-.7709,1.3386-.5116,2.6212-1.1143,3.8757-1.7872,1.1844-.6518,1.1915-2.6072.6798-3.7145-1.3106-2.8034-1.647-3.5813-4.9059-3.273.848-.9882,2.8384-3.7215,2.425-5.0601,1.668-1.4788,4.6747.6027,6.6931.9111.6658.1121.862-.0911,1.3597-.5116.0771-.7429.2313-1.4648.5116-2.1586,1.6049-.1682,5.2003,0,6.1114-1.4788.4906-.799.6168-1.7591.3855-2.6562-.2943-1.0653-.6658-2.0955-1.1424-3.0978-.6938-.7849-1.668-1.2615-2.7123-1.3456-.3084-.0911-.2313-.3224,0-.4486.4486-.1892.862-.4766,1.1915-.806l.2173-.7079c-.4205-.5116-.7429-1.1424-.8761-1.8012.1682-.2173.3574-.4135.5887-.5677,1.4788-.7849,3.8267-1.647,4.6256-3.2239.6798-1.3386-.5747-2.7333-1.4788-3.6865-1.0793-.8761-2.2707-1.5769-3.5603-2.1166-1.4508.1261-2.8805.3995-4.2752.82.9392-1.5769.5887-3.6094-.806-4.7938-1.0022-.8971-2.1306-1.654-3.3431-2.2707-.9392-.3084-.7849-.3855-1.7732,0-3.7145,1.1564-7.0295,3.343-9.5456,6.2936-1.4788,1.9273-4.2121,6.2025-6.0133,7.5412-.2804.2593-.4976.5537-.6518.8831,0,.8831.1261,1.7731.1822,2.6702-.0771.3224-.2313.6308-.4625.8831-.862.806-1.633,1.7241-2.2707,2.7123-.862-.6938-1.4508-1.647-1.7241-2.7123.5747-1.8222,1.2335-3.9458.3364-5.782-1.5278-2.7754-3.7495-5.1022-6.4618-6.7422-.862,1.9624-2.0955,3.8266-2.8525,5.9082-.6308,1.6961-.6798,3.5813-1.1704,5.3054-.1121.4205-.6798,1.5909-.6798,1.1704-.4135-1.5909-.8971-3.1608-1.4788-4.7027-2.1166-2.8384-5.1863-3.1118-8.5434-3.3501-1.3737,2.4179-1.4157,5.3545-.1121,7.7934.6798,1.3737,2.1166,5.3054,2.6842,6.2025.3714.5747,2.3759,1.8362,2.6352,2.2217.848,1.633,1.5559,3.315,2.1306,5.0321.4766-.3224,1.9904-.8621,2.5301-.5677,1.4788.799,3.1118,1.8643,4.5065.3084l.9882,1.5699c-1.3106.5887-2.5581,1.3386-3.7215,2.1866-1.7872,1.7451-3.6514,3.7355-5.6138,5.3335-.1682.9742-.2804,1.9904-.3574,2.9576,0,.2593.0771,1.0162,0,.799l-.5677-.1682c.2173-.6027.2943-1.2685.1822-1.8993-.799-.5677-1.3877-1.3597-1.7241-2.2707-.0911-1.2685-.0911-2.5301,0-3.7986l-2.4249-.1892c-.7079-.7079-1.4788-1.3386-2.3268-1.8643-.8761-.3995-1.8993-.2803-2.6702.2944-.5677.7219-.2033,1.4788.1892,2.2638-.5887.3714-.6168,1.3106-1.1844,1.7311.2033.7429.3364,1.4928.3855,2.2638l-1.8993.9531c-.4906.3084-.6798.9531-.4205,1.4788.6518.6518,1.3386,1.2615,2.0395,1.8222.2313.2173.3574.5256.3084.8621-.9531,2.8104.0771,3.9528,2.4179,5.5718-1.5278-.1682-3.0557.1051-4.4294.7849-.4135.2313-.4135-.1121-.2944-.5747.2663-.8761.2663-1.8012,0-2.6702-1.3456-2.9015-3.4412-5.3685-6.0764-7.1557-.7849,1.8503-2.1306,4.0229-2.7123,5.817-.4906,1.5699-.7079,3.5954-1.1704,5.1793-.1051.3224-.3714.2663-.4205-.0771-.6027-3.0557-5.2914-4.4294-7.9126-4.8779-.2033.2033-.3855.4205-.5677.6658-.9531,1.2685-1.3456,2.8665-1.0933,4.4294.5256,2.2638,1.1844,4.4294,1.668,6.6651.7849.6518,1.4788,1.4017,2.0815,2.2217.5256,1.4017.8761,2.8665,1.0373,4.3663.82-.1682,1.6961-.1682,2.5301,0,1.9764,1.2615,3.4202,3.2099,4.0229,5.4736.1051.3574.2173.5116,0,.8831-1.3106,2.6352-2.3899,5.3825-3.2379,8.2069-.9391.1682-1.8012.5256-2.5791,1.0513-.3084.2173-.3855,0-.3224-.3715.3084-1.0162.4976-2.0535.5887-3.1188-.7709-.8971-1.3386-1.9554-1.654-3.0977-.0771-1.5699.2173-3.1188.2944-4.6887-1.0162,0-2.0325-.2033-2.9576-.6308-.9531-1.1564-2.2357-2.9576-3.9528-2.0955-.3995.1822-1.1424.6027-1.0653,1.1844.2593,1.9904.806,2.5721-.848,4.0089-.1261.2803-.1822.5887-.1261.8831.2173.5747.2663,1.1915.1121,1.7872-.6798.6518-1.4788,1.1564-2.3479,1.4788-.2593.3224-.4976,1.3106-.2173,1.668.6027.7569,1.3877,1.4788,1.9904,2.2217.1822.2663.2593.5887.2033.8971-1.3456,3.3921-.1892,5.2914,2.6212,7.3869l-.6027.806c-1.4157-.4486-2.9646-.2173-4.2121.6168-.9111.7429-.82,1.8642-.9602,2.9576-2.6702-.3995-4.4294,2.5161-5.4736,4.5205.2173-2.7613.6168-5.4947,1.2055-8.207-.6308-.8831-1.3386-1.7311-2.0675-2.5301-.0771-.2313-.1121-.4976-.1051-.7569,0-1.2826,0-2.5441-.0771-3.8126l-2.5721-.1822c-1.4788-.9742-2.5301-2.5301-4.5695-2.1586-.5747.1121-1.4788.5747-1.3737,1.2685.1121.7079.3224,1.4017.6308,2.0535-.3995.6168-.8761,1.1844-1.4017,1.6821l.5747,1.8993c-.7849.7219-1.6961,1.2826-2.7123,1.647-.1682.4906-.2593,1.2826.2173,1.633.9111.5677,1.7241,1.2966,2.3408,2.1726.014.5677-.1051,1.1144-.3364,1.647-.7079-.0771-1.3737-.3224-1.9554-.7569-1.0793-1.0372-2.1446-2.0535-3.252-3.0557-2.0815,1.3106-2.6492,1.1564-4.955.5256-.1892-3.0417.4766-6.0904,1.9413-8.7886-1.0513-2.5721.2173-5.9082,1.1564-8.3471.5887-.0631,1.1844.1121,1.647.4976.8621.9882,2.4249,2.6702,3.9177,1.696.4626-.2032.7429-.6658.7079-1.1704-.1261-.7429-.3364-1.4017-.4976-2.0955l1.2615-1.668-.4766-1.8503c.2663-.4906.6938-.848,1.2335-1.0022l.4626.1261c.1822.2033.3084.4486.3855.7079.0911,1.4788,0,2.9576,0,4.4294.9111.014,1.8222.1051,2.7263.2663.8761.4626,1.8362,1.5699,2.6702,2.0325.9882.4486,2.1586.2593,2.9576-.4906.4976-.7709-.0771-1.7731-.3855-2.481.2803-.7219.799-1.3386,1.4788-1.7241-.2033-.6658-.3574-1.3386-.4205-2.0325.1121-.1822.1822-.3855.3224-.4906.806-.4906,1.668-.8761,2.5721-1.1564,0-.7079-.2803-1.3877-.7849-1.8853-.6168-.4205-2.2217-1.4788-1.9904-2.2357s.7219-2.7263.0911-3.5603c-.9602-1.2335-2.1306-2.2707-3.4412-3.1188.1051-.1261.2593-.2803.3855-.4205s.3224-.4626.4906-.6798c-.4486-.5677-.799-1.1844-1.0793-1.8503.9391-.5256,1.8012-1.1704,2.6072-1.8993-.014-.2313-.014-.4626,0-.6938-1.0162-.6798-2.1306-1.2475-3.273-1.682-.3714-.1822-.3714-.3364-.4976-.7429.4766-1.7731-.5256-3.6094-2.2707-4.1771.5677-.5256,1.1915-.9742,1.8853-1.2966.4906.4205,1.1564.5747,1.7731.3855.9391-.4486,1.6961-1.1424,2.2217-2.0325.9391-.4135,1.8783-.7429,2.8665-.9742-.5116.8761-.9531,1.8012-1.2685,2.7613-.3714,1.2966-.5677,2.6492-.5677,3.9949.1261.7079,1.4788,2.3759,1.4788,2.6562v2.9576c.6168,0,1.9764,0,2.4249.4766.8831,1.2335,2.5301,1.668,3.9177,1.0653.0911-.7219-.035-1.4508-.3855-2.0955.2173-.4906.5887-.8971,1.0513-1.1844l-.3574-1.1915c.0771-.2663.1682-.5537.2313-.82.7079-.035,1.3456-.3995,1.7872-.9531v-.4486c-.0911-.2803-.2663-.5256-.4976-.7219-.6658-.4766-1.1704-1.1073-1.4788-1.8643.7569-.3574,1.605-.4486,2.4249-.2803l2.8034,2.1166c.4486-.5887,1.0022-1.0933,1.647-1.4788.2944-.1261,1.5769-.1822,1.7731-.2593.6027-.3084,2.1586-1.605,1.3597-2.3899-.5256-.3714-1.1073-.5747-1.633-.9111-.1542-.7079-.4626-1.3737-.9111-1.9413.3995,0,.799-.2663,1.1844-.1051.8621.3224,1.7731.7569,2.6562,1.0513,1.7591-.9602,3.0697,1.2055,4.4294,1.9904.3364.2033,1.1424.1682,1.3386-.3084.2663-.6518.6168-1.2615,1.0653-1.8012,1.0793.4135,2.2357.5747,3.3921.4766,2.495-.6798,2.3619-3.7496,2.2848-5.9082,0-.7849-.8621-1.2615-1.4017-1.647-3.343-2.467-7.387-2.0185-11.2486-1.7451,1.1424-1.3106,2.3619-2.5441,3.7005-3.6514,1.3737-1.0162,2.9646-1.7241,4.6606-2.0325l1.3597.9111c.6938-.2663,1.3737-.4906,1.9624.1542.5537.799,1.3456,1.3877,2.2638,1.682l1.1073-2.1166c.8761.4906,1.8783.6518,2.8525.4486.5887-.2173,1.0373-.7429,1.1424-1.3597.1682-1.5559.4766-3.0978.9602-4.5836-.3364-.3574-.7569-.6308-1.2055-.806-1.2475-.6027-2.6072-.9742-3.9808-1.0933-1.8993-.0911-3.7496,0-5.6138,0-.2313.4976-.6027.9531-1.0653,1.2685-.1542.028-.2803.0631-.4205.0771l-3.0697-.1542c.4205.6658.6518,1.4367.6658,2.2357-.2033.6798-.6027,1.2966-1.1564,1.7591-1.654.9391-3.329,1.8993-4.8779,2.9576-.2313-.1542-.8831-.2593-.6798-.4205.9111-.7709,1.7731-1.633,2.5441-2.5441.7079-1.1564.5116-2.6562-.4906-3.5954-.5537-.5747-1.8643-1.9273-2.7123-1.682-2.481.6938-4.6606,2.1726-6.2306,4.2121-1.0793,1.633-2.2848,3.1748-3.6094,4.6256-.3224.8761.2033,1.8853-.3855,2.6492-.8621,1.0653-1.6961,2.0535-2.5301,3.1188.2663.1682.5116.3574.7569.5537l-2.6562.6518c-.3995.1542-.82,0-.4766-.2944.7429-.3855,1.2966-1.0373,1.605-1.8012.2593-.806-.6027-1.3106-1.2055-1.4788l3.9458-2.3128c.1542-.7849.2173-1.5769.2173-2.3759-.0771-4.2401-2.9576-7.2187-5.4947-10.3515.4205-.2173.9111-.3574,1.4017-.3574.9111.1682,1.8012.4135,2.6562.7569.8621.0771,1.8503-.7079,2.6562-.2944,1.4017.7709,2.8805,1.3597,4.4294,1.7451.1542.028.2944.028.4486,0,.1822-.1542.3855-.2944.5747-.4205l.0911-1.8222c1.3386.1542,4.969.9111,5.5718-.7569.806-2.1937-.5747-4.3312-1.9904-5.782.2173-.0631.4205-.1261.6308-.2033.8621-.2663,1.7451-.3995,2.6492-.3995,1.7591.6027,3.5603,1.4788,5.3335,1.9413.3084.035.6168,0,.8971-.1121.1121-.1542.2593-.2944.3995-.4135l.1051-1.633c.2593-.1261.5256-.2033.806-.2173,1.3106.1121,4.92.799,5.6278-.7219.5116-1.1424.4486-2.453-.1682-3.5463-.4486-.8831-.9111-2.3619-1.8993-2.7263-2.5301-1.1424-5.2283-1.8222-8.0037-2.0185-3.5183,0-7.0786.4906-10.5828.6658l-2.1166-3.7916c-.9391-.1892-1.8853-.2313-2.8384-.1051-.3574,0-.3084-.2033-.0771-.4906,1.3597-1.3597,2.9436-2.467,4.6887-3.266.2944.4486.4626.9531.4906,1.4788-.3855.4976-.4906,1.1844-.2663,1.7731.6168.9602,1.5909,1.647,2.7263,1.8853,1.2966.1542,2.6212-.1682,3.7215-.8761.9742.2313,1.9624.4205,2.9576.5747.7219-.2803,1.4788-.5116,2.2357-.7079,1.5769.3364,2.9576,1.0373,4.4294,1.4788.5677.1051,1.1424-.028,1.5769-.3714,0-.7849.1682-1.5559.4766-2.2707,1.2335,0,4.7658-.3714,5.6488-1.2825.848.7709,2.0185,1.0513,3.1118.7569.7079.6798,2.4249,2.8384,3.6094,2.0395l.6027-1.6961c1.1074.4486,2.2848.6658,3.4692.6798.3855-.2803.6938-.6658.8971-1.0933.5256-1.4367.5256-3.0067,0-4.4294-2.0185-2.3619-4.983-2.8805-8.0387-2.7754.2663-.3855,1.0933-1.2825,1.5559-1.3456,1.2055-.1682,2.3899-.5116,3.4972-1.0513l-1.3386-1.9624c1.0022-.6518,1.8853-1.4648,2.6212-2.4249.035-.5116-.0911-1.0373-.3715-1.4788-.862-1.1915-2.0815-2.0675-3.5042-2.453-1.5419.3574-2.9786.9882-4.2892,1.8643l-.5256-.7849c-.5677-.1542-1.0933-.3224-1.633-.5677.1892-.9742.2173-1.9624.0911-2.9576-.2593-.6938-.8971-1.1704-1.647-1.1915-1.2055-.0771-2.4249.1051-3.5463.5537-1.0373.7219-1.0513,1.1915-1.4788,2.439-1.2475,3.266-.2593,6.63,0,9.917-1.1424-.0911-2.2848-.028-3.4202.1542l-.5256-.4486c.1822-.2593.3855-.4906.6027-.6938.6027-.4486,2.3128-1.8853,2.1726-2.7263-.1261-.9742-.6027-1.8643-1.3456-2.495-.1542-.1261-2.1446-1.4788-2.2217-1.4788-2.8384-.014-5.4947,1.3386-7.1837,3.6094-1.1704,1.6961-2.453,3.329-3.8407,4.8709.2663.6168.7709,1.647.1892,2.2357-.4766.4766-.8971,1.0022-1.2685,1.5699-3.6094-.3995-7.0155,2.1937-9.2092,4.8289.1051-.799.1051-1.605,0-2.4179.0631-.3224.2033-.6168.4205-.8761,1.0373-.8831,1.9273-1.9554,2.6212-3.1188.1261-.2803.1261-.5887,0-.8761-.6658-.5537-1.4508-.9111-2.2848-1.0653.6938-1.3106,1.0653-2.7754,1.0793-4.2752-.1051-1.1844-.6658-1.3877-1.8012-1.8222-1.5909-.4205-3.266-.4766-4.8779-.1261-1.0022.3574-1.1143.806-1.7872,1.7591-2.9576,4.135-2.9576,7.387-3.4412,12.3069-.6798,0-2.0325-.2173-2.2848-1.0022-.806-2.439-1.8503-4.4294-4.4294-5.3335-.1682-.2313-.7569-.6518-.4766-.7429,1.0162-.1892,1.9413-.7079,2.6352-1.4788.9602-2.9576,2.2217-2.2707,4.8429-3.4692.5537-.2593,1.3597-1.1844.9531-1.8362s-.7569-1.0933-1.1073-1.605c0-.3995.1542-.7709.4135-1.0653.848-.799,1.5909-1.6961,2.2497-2.6562.6308-1.4508.1892-3.1328-1.0933-4.0579-.8621-.6938-3.343-2.6702-4.5065-2.1866-2.1586.7709-4.121,1.9764-5.768,3.5813-2.6352,2.9576-3.8547,6.588-6.3427,9.4895-.4486-.4766-1.3597-1.3386-2.1166-1.1704-2.7473.5887-5.3054,1.8993-7.387,3.7986,0-.6308.0771-1.2685.2313-1.8853.806-1.4788,1.9904-3.1608,1.3386-4.9059-.9111-.1261-1.8012-.3995-2.6352-.799-.0911-.1682-.1682-.3574-.2033-.5256,0-1.2475.1892-3.3641-.6027-4.4294-1.8222-2.3408-5.5507-1.2055-7.8355-.2033-1.7731,3.343-2.1937,7.2328-1.2055,10.8772-.1682.1822-.3714.7569-.4906.5677-.7219-1.5419-1.5699-3.0347-2.516-4.4294-.3084-.4486-.7569-.7709-1.2685-.9531-2.3619-.6658-4.2542.5256-5.9993,1.9764-.0771,3.0417.7219,6.0343,2.2707,8.6415,1.7241,2.495,3.5042,4.955,5.1022,7.4851.8831.4205,1.8012.7849,2.7473,1.0653l-2.2638,7.2328-.7219-.6798s-.1542-.1542-.2663-.1542c-.1542-.028-.2803-.028-.4205,0-.6518.1121-1.3106.0771-1.9413-.1261-.6938-1.4017-1.4788-2.7754-2.3479-4.0859-1.8783-2.3619-5.2564-.7569-7.1417.806-.0771.6027-.1051,1.2335-.0771,1.8503.3574,4.4294,2.7123,8.1158,5.4456,11.55-2.4249,1.4788-4.8779,3.0978-7.2678,4.6256-.1892.1261-.6518.4205-.7219.6938-.0631,1.0022-.6027,1.9273-1.4788,2.453-.6798-1.5699-1.9624-2.7754-3.5603-3.3501-2.6352-.9111-4.3172-.4766-6.6651-.8761s-4.6116-1.4788-7.0646-1.7872c.5537-1.0162,1.2825-1.8993,2.1866-2.6212,1.9273-.3364,3.8547-.6518,5.796-.9531-.5116-1.3597-.5887-2.8384-.2033-4.2401.7079.4626,1.5559.6658,2.3899.5747.6027-.1542,1.6961-2.0325,1.9273-2.6212,1.5699.1682,3.1608.1682,4.7237,0,3.0697-1.1564,3.343-4.7938,3.2099-7.7164-.1682-.1892-.3364-.3714-.5537-.4976-1.8643-1.3106-4.0299-2.1306-6.3076-2.3619-.3714,0-.1261-.3364.2173-.4626,1.4788-.5116,3.8757-1.4017,4.3032-3.1118.4626-2.3268-.035-4.7167-1.3877-6.6651-.1822-.2944-.4766-.4976-.799-.5887-3.315-.3084-6.6441.3224-9.5946,1.8362-.6938-1.7731-2.0325-3.2239-3.7215-4.0439-.2803-.1542-.6168-.1542-.8971,0-1.1073.4766-2.1586,1.0933-3.1118,1.8503-.799-1.0022-2.0185-2.5721-3.5463-2.1586-.5256.1051-.9602.4766-1.1564.9742-.3995,1.5699-1.1844,2.4179-2.8384,2.2707-.2663.028-.5116.1822-.6658.3995-.2944.5677-.799,2.0955-1.5559,2.0955-.8971-.028-1.8012-.1822-2.6562-.4486-.1542-.028-.3084-.028-.4626,0-.5747,0-1.4788.848-1.2615,1.4788s.799,3.5603.3574,3.9318c-1.2335.6938-2.3268,1.633-3.2099,2.7263-.3224.5747-.3084-.1542-.3855-.82s-.1892-1.4017-.9531-1.7241-1.8853-.6798-2.1937-1.3877c-.5747-1.3106-1.1143-2.8244-1.7241-4.107-.5537.4626-2.0185,1.3597-2.7473,1.1143s-2.2357-.9111-3.1118-.5677c-.8621.2593-1.5278.9111-1.7591,1.7731-.1682,1.0022.7849,1.7311,1.3737,2.453-.3995.6798-.1682,1.5699-.4486,2.3128.4906.4205,1.3386,1.605,1.0793,2.3479-.4626.7849-.9531,1.5559-1.4788,2.2848-.2803.3224-1.7872,1.4788-2.2848,1.2615-1.654-.6938-3.9037-2.3899-5.782-1.7311-1.8012.806-3.0978,2.481-3.4202,4.4294,0,.1682-.1261.7219,0,.8831.6027.848,1.2966,1.605,2.0815,2.2707,3.7636,3.4061,6.9244,3.7145,11.55,5.2003.6658.2593,1.2825.6027,1.8503,1.0513-.6938.5677-1.3456,1.1844-1.9273,1.8643,1.4017,1.0162,2.3619,1.9554,1.8853,3.8407-.8761.5537-1.7731,1.0513-2.7123,1.4788-.9882,0-1.682-.9602-2.6702-.6798-.7079.4135-1.3106,1.1704-2.2217,1.0022-.806-.5256-1.5699-1.1844-2.2217-1.8993-.1261-.1051-.2803-.1822-.4486-.2173-.5747-.1822-1.5559,0-1.7591.6798-.9531,2.6702-1.0933,4.4294-4.4294,3.329,0-3.273-2.1937-2.467-3.3921-4.6747-.7219-1.7591-1.2615-3.5813-1.5769-5.4596-.9742.1682-1.9624.2313-2.9576.2313-.9882-.3574-2.6492-1.668-3.5603-1.9904-.7219-.2663-1.5419-.2033-2.2217.1682-.7079.2313-1.1424.9742-.9742,1.7241.2663.6168,1.5909,2.5441,1.3456,3.1188-.2593.5747-1.0653,1.4788-.5887,2.2217s1.1143,1.4788.8761,2.2217c-.6168.7429-1.3386,1.4017-2.0815,2.0185,0,.4205-.1542,1.2335.2663,1.5559,1.0793.806,2.2217,1.4788,3.3501,2.2357.2663.2173.4486.5116.5116.8621-.1121,2.0185.6027,3.9808,2.0185,5.4176-2.2217.7429-4.5065,1.2685-6.8333,1.5769-.848,1.3386-1.9414,2.481-3.2239,3.4061l-5.3335,1.8012c.2593.9111.9602,2.3619.3995,3.273s-1.5769,2.1866-1.4788,3.0978c0,.799.3714,1.5559,1.0022,2.0325.5537.3084,1.1914.3224,1.7731.0771.806-.6168,1.7241-1.1073,2.6562-1.4788.7219.2173,1.4648.3855,2.2217.4626,1.6961-.5747,2.1446-2.0815,3.9948-.5747l-3.4412,1.7872c-.2803,1.2335-.7429,2.4179-1.3597,3.5183-1.1143.9882-2.3128,1.8853-3.5603,2.7263,0,.0911.1682.7429.1822.7429.3855.6798.6168,1.4367.7079,2.2217-.3084,1.668-1.0933,3.7355.3714,5.0601.2663.2313.9882.5747,1.3386.2033.3364-.3714,1.1704-1.3597,1.6961-1.8783s1.3106,0,1.7241.1822l1.9904-1.9273,1.9554,1.2825c.5887.1542,1.1915-.1261,1.4788-.6798.3364-1.2475.5677-2.481.8761-3.7005,1.682-.8621,3.4202-1.605,3.9318-3.6234.2803.3995,2.9576,2.8384,3.273,3.1748.5677.2663,1.1915.3364,1.8012.2173.4626-.0771,1.4788-.4135,1.4788-.9742.1121-.7429.0911-1.4928-.1051-2.2217-.028-.3364.0911-.6798.3224-.9391.5116-.3084.9882-.6938,1.3877-1.1424-.0771-.5537-.3855-1.8503,0-2.2707.8761-.6168,1.8222-1.1073,2.8244-1.4788.2663-.3084.6658-.8621.4486-1.3386-.6518-.7849-1.4788-1.8012-2.0955-2.6562-.1892-.3084-.5747-1.2055-.2593-1.0793,3.3921,1.2825,6.6511,2.8805,9.7628,4.7798-.6938.6027-1.4508,1.1143-2.2638,1.5559-1.4928.1542-2.9646.4135-4.4294.7849-.6518.3084-1.1704.82-1.4788,1.4788-.1822.4766.0631,1.0162.5256,1.1915.3084.1192.3154.1261.028.014.6798.2803,1.4788.5747,2.1726.8621-.3364.6168-.4766,1.3386-.3855,2.0325.7709.2313,1.4928.5747,2.1586,1.0373-.4486.82-.82,1.6961-1.1143,2.5791.1051.2173.2173.4486.3574.6798,1.4017.1121,2.8104.0911,4.1981-.0911v.4626c-1.4367-.0771-2.8805-.028-4.3172.1682-.2803,0-.4486.2173-.5256.5747-.1682.8971-.3855,1.7872-.6798,2.6492-1.0793,1.7872-3.315,2.9576-3.1608,5.3194,0,.6658.3714,1.6961,1.2685,1.4788s1.8012-.4906,2.6702-.799c-.3084.806-.7849,1.5559-1.3597,2.1937-1.4508.1121-2.8384.6658-3.9949,1.5559-1.2825,1.3737-1.8853,3.1118-3.0557,4.4294-1.1915,1.2475-2.7473,2.0955-4.4294,2.467.028-1.2966-.0771-2.5791-.3364-3.8547-.82-.82-1.5909-1.7241-2.2848-2.6562-.4766-1.3597-.82-2.7613-1.0513-4.1841-1.0653-.2033-2.0675-.6518-2.9576-1.2825-1.5769-1.4788-3.4202-3.6584-5.796-3.1118.014.3364.0771.6938.1822,1.0162.4135.6658.7219,1.3737.9391,2.1306-.4485.1051-.848.3855-1.0793.7709.4976.6518.799,1.4367.848,2.2638l-1.7311.1682-.6308.5537c.0631.2944.2032.5677.4135.7849,1.0162,1.0373,2.0675,2.0535,3.0347,3.1188-.2173,2.8244.9882,4.2892,3.1118,6.0133-1.7241.0771-3.4202-.1892-5.0251-.7569-.2803-.1051-.6027-.1051-.8831,0-1.1424.6798-2.3408,1.2826-3.5603,1.7872-1.5699.1682-3.1468.1682-4.7167,0-.1121.2173-1.9624,2.6071-2.0185,2.6562-1.7311,1.4788-5.1653,2.9576-5.1232,5.4105l.4766.4625,2.9576-.5887.3224,1.0653.5887.3364,1.668-.4205.6308.2593-.2313,1.9904c.1892.2593.3855.4906.5887.7219,1.5419-.6658,3.0066-1.4998,4.3383-2.5161.2663-.1682.5677-.2313.8761-.2173,1.6049.6168,3.4061.4976,4.9059-.3364.1542.9531.035,1.8993-.2944,2.8034-.7709,1.3386-1.633,2.6071-2.5791,3.7986.4485,1.1074.82,2.2497,1.1424,3.4061,0,2.8034-.3855,5.5507,1.8993,7.5552.4906-1.1564.9532-2.2497,1.4788-3.3641.5116-.1051,1.0653.028,1.4788.3715.1261-.799.7079-2.2637,1.4788-2.5581.4626.5537,1.0022,1.0162,1.5909,1.4017l.4486-.1051c.2033-.1682.3574-.3855.4486-.6308.1822-1.4788.2313-2.9576.1892-4.4294.028-.2804.1261-.5677.2944-.799,1.1143-.7569,1.9554-1.8853,2.3128-3.1959.2803-2.2217.3224-4.4294.3855-6.6651,0-.4766.0911-.8831.3855-.4976.6938.9392,1.3386,1.9273,1.8783,2.9576,1.5419.2943,3.0347.799,4.4294,1.4788,1.1704,1.0162,2.2638,2.1306,3.266,3.315.1892-.0771,3.1468-.7429,3.315-.7219,2.9576.2943,5.1022,1.4788,7.5412-.7849-.806-.9742-1.8783-1.7241-3.0557-2.1586l.6798-1.647c-.82-.4976-1.5909-1.0793-2.3128-1.7311.7569-.6308,1.3877-1.3877,1.8853-2.2357-.1822-.2943-.4486-.5256-.7569-.6658-1.2966-.4135-2.6352-.6938-3.9949-.806-.3364-.0771-.6658-.2032-.9602-.4135-.5747-1.1915-1.4648-2.2217-2.5721-2.9576-1.5699-.6168-3.2239-1.0022-4.8919-1.1424-.6027,0-1.3106-.2032-.7429-.3855,2.0185-.6658,3.7005-2.0535,4.7798-3.8757.9882-.1542,1.8993-.5747,2.6352-1.2615,1.9554-1.8993,3.252-4.5205,6.2025-4.955.2173,0,.7429.1051.6518-.1051l.5256,2.0955c.3084.4906.9391.6798,1.4788.4766,1.0022-.7429,1.8853-1.647,2.6212-2.6562.2944-.3574.6938-.5887,1.1564-.6798-.0911,1.2966-.3084,2.5791-.6798,3.8407-.7849,1.0793-1.668,2.0955-2.6212,3.0417.6308.799,1.0513,1.7311,1.2335,2.7333,0,2.0185-.2944,3.9178,1.2685,5.4456h.6168c.7849-.4486.9882-1.654,1.2055-2.3899l1.647.3364.806-1.668.8761-.1892c.4205.5116,1.0022.8831,1.647,1.0653.3364-.1892.7849-.3995.7849-.862,0-.848,0-3.4552.4976-4.0439,2.481-1.5559,2.5791-3.1328,2.4249-5.9082,2.0815-.9111,4.3032-1.4928,6.574-1.6961,0,.5256.7079,2.0185,1.2615,2.1306.9531.1892,1.8853.3364,2.8665.5677l3.0557,3.3921c.2593-.0911.4976-.2033.7219-.3714,2.3759-1.9554,2.7123-.4976,4.8919-1.0022.8761-.1892,2.3619-1.2055,1.9624-2.3479-.2803-.8621-1.4788-1.2685-2.2497-1.5559l.2313-1.8643-.848-1.0162c.1261-.1051.2803-.2033.4205-.2944.3714-.2033.8971-.5747,1.3456-.4976,1.4788.2033,2.9576.5256,4.3383.8761l.5677-1.2335c4.3943.82,8.8377,1.3597,13.3091,1.5769,3.6514.2033,8.8728-.7709,11.9845-.0771,1.668.2803,3.1468,1.2475,4.0579,2.6562.1051.1051.2313.1682.3714.2033,3.7496,1.2615,4.969,6.7842,5.3545,10.3515-.4486.5537-.6658,1.2615-.5887,1.9624.2173,1.2615.8971,2.3759,1.8993,3.1468.9391-.5537,1.9904.2032,2.6072.9111,1.605,1.8222,1.8222,3.2379,2.9576,5.2564.2593.4625-.3084.4135-.6798,0s-.3084-.3084-.4906-.4486c-1.0373-.9602-2.1866-2.1306-3.1328-3.2099-.4766.4486-1.8993,1.3597-2.5791,1.2335-1.668-.2804-3.5813-.9392-4.8779.5537-.1051-1.633.0771-3.2659.5537-4.8289.0771-.3084.028-.6308-.1542-.8971-.5887-.6798-1.9273-1.6049-1.9273-2.6562v-4.0439l-2.8244-.1822c-.8621-.9742-1.9624-1.7241-3.2099-2.1446-.799-.1682-1.647.035-2.2638.5747-.7079.7709,0,2.0535.3574,2.9576l-1.4788,1.5909c.3574.6308.5677,1.3456.6027,2.0675l-2.7754,1.6049c-.1261.6308.1121,1.2685.6308,1.654.9882.5677,1.8222,1.3597,2.4179,2.3409-2.0395-.2663-4.107-.1892-6.1114.2173.014-1.633-.2033-3.2659-.6308-4.8289-.7079-1.9554-1.5699-3.7916-2.0815-5.782-.1051-.3574-.3364-.6658-.6518-.862-.9602-.4486-1.8222-1.0653-2.5721-1.8012-.848-1.3386-1.3597-2.8525-2.1166-4.2121-.6658.2803-2.0955.82-2.8104.4626-1.2055-.6308-2.7123-1.4788-3.9949-.5256-.2944.2313-.7079.7849-.6308,1.1844.3574,1.1143.9742,2.1306,1.8012,2.9576-.2593.4486-.6518,1.4788-.2663,2.0185s1.1704,1.3106,1.1564,1.7732c-.0911.7429-.4766,1.4017-1.0513,1.8642-.6027-.2943-1.2966-.2943-1.8993,0-.6938.3715-1.4508.6518-2.2217.799-1.7451-.2032-3.5323-.6658-5.2914-.9531,0,.5887-.2944,2.0325-.8761,2.3619-.8971.5116-2.516,1.1144-2.8244,2.1866-.1892.6027-.0771,1.2685.3084,1.7732.8621.7849,1.9904.5116,3.0978.3715-.7569,1.668-1.682,3.252-2.7613,4.7237l.5677-4.2261c-2.8665-.2943-5.754-.4205-8.6345-.3995-2.6562.2032-5.3054.862-7.9757.9742-.9602.9602-1.9904,1.8362-3.1118,2.6212-1.8222.5747-3.7005.9742-5.5998,1.1844.3574.7219,1.1844,1.8993.8761,2.7473-.6798.7569-1.1564,1.668-1.3737,2.6562.0771.799.5116,1.4998,1.2055,1.8993,1.647.9882,2.8665-.5677,4.4294-.7569.7569.1682,1.4928.3715,2.2217.6027.9391-.1261,1.8362-.4135,2.6702-.848l.8831.4625c-.2593.2663-.5537.4906-.8831.6308-1.1915.3574-2.6212.7569-3.8126,1.1564-.3224,1.3456-.7569,2.6562-1.2825,3.9458-1.668,2.6212-3.4552,4.8148-3.1608,8.1018.848-.4976,1.6961-1.0022,2.495-1.5769.0911,0,.8971-.1892.848.6518l.6308.6168c.4766-.6027,1.1704-1.0162,1.9413-1.1564l.2173,2.6702.4976.5747c.2944-.1261.5677-.3084.7849-.5256.9882-1.2615,2.3759-3.6514,3.9177-4.107.5677.4766.9602,1.1144,1.1424,1.8503-.1121,1.4788-.035,2.9646.2313,4.4294.3995.7079,1.2055,2.0325,2.1937,1.8783s1.3597-1.5559,1.8643-2.2497,1.682-.1051,2.3899,0c.2313-.9531.7569-1.7872,1.4788-2.425.8971.6308,1.8993,1.1424,2.9576,1.4788.4766-.3855.9602-.7429.9742-1.4788-.2313-1.2475.014-2.5301.6938-3.5954.3574,1.1915.3574,2.481,0,3.6865,1.1704.3715,2.3128.8761,3.3641,1.4788.8761.7219,2.0325,2.3409,2.9576,2.9576s2.6072,1.2335,3.4972.2804l-.6658-3.0977c.6168.0911,1.2475-.4976,1.633-.82l-.5116-1.696c.1051-.2313.2173-.4976.3364-.7429.9391.1121,1.8853-.028,2.7473-.4135l.1261-1.0793c2.4249,1.696,5.9993,3.7495,8.1439,5.5718,1.5559,1.5699,3.1748,3.0417,4.8919,4.4294.4205,1.0372.9602,2.0325,1.5909,2.9576.8971.9392,2.0325,1.633,3.266,2.0325-1.4788,1.1915-2.9576,2.495-4.4294,3.7495.4766.7849,1.5699,2.1166,1.3597,3.0977-.3714,1.668-.6658,3.6094.848,4.8008.3224.2593,1.2685.5256,1.4788.0911.4906-.8761,1.1844-1.5909,2.0185-2.1446.5256,0,1.0653.1261,1.633.1261.4205-.7429.9742-1.4017,1.647-1.9554.2593.035.4906.1261.7219.2313.7709.5677,1.7451.7219,2.6562.4766.9391.9742,2.1166,1.8783,3.0697,2.8104.5677.9392.6938,2.0675.3574,3.1118-.4135,1.7732-1.5909,3.7636-1.8853,5.3335-.4486,2.6492-.7079,5.3054-.7849,7.9757-.1121,2.1937,1.0933,4.4294,1.2615,6.2306.2173,2.2637-1.0653,3.8406-1.3877,5.768-.2944,1.654.5887,5.1512.4976,6.6511-.1051,1.2685-.9602,3.6514-.9602,4.8919,0,3.315.7849,6.3847-.1892,9.6367.5537.6658.8831,1.4928.9602,2.3478-.2173,1.9273-.2173,3.8547,0,5.782.014.2173.014.4486,0,.6658-.3084,0-.6027-.0911-.8971-.1261-3.4272-.4135-6.8473-1.0372-10.1974-1.8642-3.7636-1.2826-7.387-1.8503-10.6599-3.4412-4.7658-2.3478-8.3121-6.1535-12.8676-8.6835-2.8244-1.5699-5.9082-1.8783-8.8728-2.7123-.2944-.6168-.1892-1.654-.6027-2.7473.3714-.5887.5747-1.2685.5747-1.9624-.2593-1.5559-.799-3.0347-1.647-4.3663-.6938.4135-1.2825.9882-1.682,1.696-.5537,1.654-1.1704,3.273-1.8783,4.8779-.3574.7079-.8621,1.3456-1.4788,1.8362-1.5278.1121-3.0557.0631-4.5836-.1542-.7709-1.3597-1.3737-2.8244-1.7731-4.3383-.035-.1822-.1542-.3364-.2944-.4486-.9111-.7429-1.8993-1.3737-2.9576-1.8993-.5256,1.0022-.848,2.0955-.9391,3.2239.1542,1.5278.5887,3.0066,1.3106,4.3663-3.0557.1261-3.9037,2.467-5.754,4.5345.1051,1.9414-2.3128,2.8525-3.6514,3.7636-.2033.1892-.3855.4135-.4976.6658-.2803,1.2054-.7219,2.3899-1.2966,3.5042-1.8503,1.633-4.7027,2.9576-6.6791,4.4294-.6798.5677-1.0653,1.3877-1.0513,2.2637.7709,1.1915,1.3386,2.5161,1.668,3.9037l.7569.3224c1.1704.3574,2.3899.3574,3.5603,0,.2803.1822.5747.3364.8831.4766.9742-.4205,2.0395-.6518,3.1118-.6168.7429.2313,1.4508.5677,2.0955.9742,1.2055-.5677,2.6212-.5887,3.8547-.0911,1.633-.5537,3.2099-1.2685,4.7027-2.1306.1261-.0911.2944-.1121.4486-.0911,1.1073,0,2.1866-.3224,3.1118-.9531,1.3456-.2663,2.7333-.1261,3.9949.3855,3.5463,2.7123,5.2564,6.3427,8.3892,9.4264.4205.4135,1.9904,1.5559,2.2848,1.9554,1.0653,1.7451,2.4249,3.315,4.0089,4.6116.3364.2804,1.0022,1.9764,1.2966,2.2637,1.8222,1.8362,4.4294,3.9318,6.0623,5.754.2663.5677.4486,1.1564.5256,1.7732l-.2593.4486c-.0911.1892-1.9554,2.5581-2.1306,2.8104-3.6094,0-4.5976,2.1586-7.3099,2.7333-1.9624.2313-3.9037.6658-5.782,1.2826-1.7241.9531-3.1959,2.2637-4.3312,3.8406-1.1073,1.8642-2.0955,3.7916-2.9576,5.768-.1892.3855-.1892,1.9273-.4906,2.2217-1.8012,1.7732-2.0955,3.7636-3.4272,5.782.1892,2.6843.5887,5.3545,1.1844,7.9757.5537,1.2826.9742,2.6352,1.2475,4.0088.035.4906.3364.8971.7849,1.0933.9742.2663,1.9624.4625,2.9576.5747l.3574-.3574c.3714-.3995.6938-.848.9742-1.3106-.2944-1.2826.799-4.7798,1.0513-6.2306-.0911-.7219-.3855-1.4017-.848-1.9624.4135-1.5419.5537-3.1188.4205-4.7027-.1051-.862,0,0,.1682-.8761,0-.2943.7849-2.6843.9111-3.1188.3995-.7569.8831-1.4508,1.4788-2.0675,1.4928-1.3386,3.0697-2.5721,4.7167-3.7145.1051-.0771.1542-.2804.2944-.2943,1.8853-.028,3.7636-.1822,5.6488-.4135,2.3408-.6658,2.9576-.862,4.8919-1.4788,1.9904-.806,3.9318-1.8012,5.754-2.9576h.9742c.5887,2.2637,1.2475,5.2634,2.0185,7.3869.2173.6168,1.7872,2.495,1.633,3.1188-.3995,1.2475-.5887,2.5301-.5677,3.8267.1121,1.1915,1.9413,2.9576,2.8384,3.7495,0,2.2217.1261,6.2936,1.0653,8.235v.4486c0,.7219-.4906,3.329-1.1704,3.6374-1.2825.4486-2.6702.4976-3.9949.1822-.9111-.2593-4.0579,1.2826-2.9576,2.9576l-1.4788.9111c-.1121.2032-.1892.4486-.2173.6798,0,.862-.3224,1.696-.9111,2.3268.5887.4625,1.3106.7079,2.0535.7219,3.1748-.3364,4.2261.1892,7.1136.4135,1.0513-.028,2.0955-.2032,3.0978-.5677.3714-.1261.2803.1542.4906-.1892.2033-.3364.5677-.8831.848-1.3597,0-.2313-.1892-.6658,0-.8831.4486-.82,1.1073-1.4998,1.9273-1.9624l-.1051-3.3431c.9111-.7569,1.6961-1.654,2.3268-2.6702.1892-1.0372.3084-2.0675.3364-3.1188-.5537-1.8503-1.8362-4.149-2.1586-5.782-.3995-1.9764.5677-3.1328.6168-4.8709,0-2.6562-1.1143-5.1092-1.668-7.5552-.1261-.5887.1682-3.7355,0-4.0088-1.4788-2.1937-1.3877-3.7916.5747-5.5718.6027-.6027,1.3737-1.0162,2.2217-1.1915,1.9764-.2032,4.0439-.2313,6.0623-.3855-.7219,5.5858-.6798,12.5102-.9391,18.2641.5116,2.0395.8621,4.107,1.0162,6.2025-.014,1.2054-.2313,2.425-.6518,3.5603-.4486.9742-1.1915,1.3386-1.2685,2.2217-.1121,1.1915.035,2.4179.4766,3.5323.028.1542.028.3084,0,.4625-.1542,1.1704-.5537,2.2707-.6798,3.5323-.3574,1.4648-.806,2.9015-1.3597,4.2892-1.7731,1.3106-1.5559,2.1166-2.7123,3.5954-1.8783,2.0535-3.9528,3.9037-6.2025,5.5227-.9391.6518-1.9904,1.1074-3.1188,1.3456-3.3921.7219-6.9524,1.0513-10.2114,1.8362-2.3899.5677-4.5836,1.7872-7.1136,1.7872-.6308.6027-1.3877,1.0793-2.2217,1.3737-2.6492.3574-4.7938,2.0185-7.0926,2.5161-2.9155.4135-5.8731.5887-8.8097.5537-1.1143.9531-2.3479,1.7591-3.6514,2.425-1.5699-1.654-3.5463-2.8525-5.74-3.4552,0-.1121-1.4788-3.2239-1.8503-3.9178-.3224-.1542-1.0022-.799-.9602-.4486s.1822,1.1564.3084,1.654c.2173.848,1.3597,4.934,2.4249,4.8289,1.4788-.1892,2.3479,1.1074,2.8104,2.2497-3.7355,1.1564-7.3589,2.6352-10.8141,4.4294-.8971.5256-1.605,1.3386-2.0395,2.2848,0,.1542-.1542.5747-.2033.4205l.7849.5677c.6798-1.1564,1.647-2.0955,2.8104-2.7613,2.2848-1.0022,4.6747-1.7872,7.1136-2.3409,2.1446-.0771,4.2261-.806,5.9082-2.1446,1.0022.1121,2.0325-.028,2.9576-.4486.3714-.2173,1.3456-1.2054,1.7731-1.2685,1.7241-.1822,3.4412-.1822,5.1653,0-1.8503,1.2335-3.5813,2.6492-5.1653,4.1981-.9882,1.0793-1.8643,2.2497-2.7754,3.4061-.7849,1.0022-1.0373,2.3268-.6658,3.5323-1.0373,2.495-3.6514,5.2634-6.5529,5.1653-1.2335.848-2.2497,1.9764-2.9576,3.301,0,.1051-.1261.4906-.1822.3574l1.0373.5887c.4486-.9111,1.0793-1.7311,1.8783-2.3759,2.0955-.8831,4.135-1.8853,6.1114-3.0347.6658-.806,1.2055-1.696,1.647-2.6492.2663-1.5559.7709-3.0417,1.4788-4.4294,2.495-2.481,5.9082-4.92,8.5434-7.2608,1.1424-.6658,2.3408-1.2335,3.5603-1.696.7429-.1121,2.439.1542,3.0978,0s2.9576-1.3877,3.5603-1.4788c3.1118-.3574,4.4294-1.1564,7.1136-1.4788,1.0373,0,2.0675-.1051,3.0978-.3084.2663.1051,1.0022.2032.7709.3364-1.9624.9392-4.0579,1.9414-6.0764,2.6702-2.9576,1.0793-5.9082,2.0535-8.8728,3.0697-.9111.3084-1.6961.8971-2.2707,1.668-.2663.3855-1.0933,2.3619-1.5699,3.1118-.2803.6658-.3084,1.4157-.1051,2.1166-1.1073.8831-1.7591,2.2357-1.7731,3.6584-1.0162.5677-2.0675,1.0653-3.1468,1.4788-1.2615.0771-2.467.4766-3.5323,1.1564-.6168.6308-1.1143,1.3737-1.4788,2.1866-.014.7709-.1682,1.5278-.4626,2.2357-1.0933,1.1074-2.1306,2.3128-3.0697,3.5463-.3855.9882-.6518,2.0395-.7709,3.1118,0,.0911,0,.4135,0,.3224l.8761.1892c.3084-1.2475.7219-2.4389,1.2055-3.6234.7429-1.2054,1.8222-2.1866,3.1188-2.7754.1892-1.2475.7079-2.425,1.4788-3.4202.7569-.848,1.8362-1.3106,2.9576-1.3456.7429,2.453.9602,4.5065-.5537,6.6791.1051.3084-.1542.7569.1542,1.2966-.0631.3084-.1682.6027-.3224.8761-.1051.1261-.1892.5677-.2313.4135l.806.2804c.6027-1.8503,1.3456-3.7916,2.1166-5.5647-.1051-1.4928,0-2.9786.3224-4.4294.0911-.1822.2313-.3364.4135-.4486,1.0373-.5537,1.9413-1.2966,2.6702-2.1937,1.1073-2.5581,2.4249-4.4294,3.3501-6.6651,1.4998-.8971,3.1748-1.4928,4.9059-1.7591l1.1915-1.2826c.4906.3995.6658,1.4788,1.2825,2.3268-.3574.6798-.9882,2.2357-.6518,2.9576-.5677.5256-1.0653,1.1424-1.4788,1.7872-.2803.5677-.3855,1.668-.6798,2.2217-.5537.8761-1.2685,1.5909-2.1306,2.1586,0,.2804-.2663.8971,0,.82.4626-.0911.9111-.2032,1.3597-.3364,1.0022-.9111,1.8993-1.9414,2.7123-3.0347.3995-.6798.2313-.806.3364-1.647.4906-.2804,2.0675-1.3877,2.0395-1.9764v-5.4947c1.0653.3574,2.1937.3995,3.273.1261,2.4249-1.3456,5.0601-2.1166,7.5552-3.273,1.9624-1.1074,3.7636-2.495,5.3335-4.121.1822-.0771.5256-.4766.5747-.2663.035,1.2615-.1051,2.495-.4205,3.7145-1.1143,1.5419-2.3408,3.0207-3.6234,4.4294,0,1.0022,0,1.9624.1261,3.0697-.9531-.2804-1.9624-.2313-2.8805.1542-1.0373.5677-1.9904,1.2615-2.8384,2.0815,0,0-.4976,1.7591-.4976,1.7872.2663,1.0162.3855,2.0535.3574,3.1118-.1051,2.3619-2.6702,3.0977-4.5485,3.4552-.2803.0911-.4976.2804-.6518.5256-.6308.8831-.6798,1.9624-1.5699,2.6562-1.2335.9531-2.495,2.0185-3.6514,3.0557-.3714.3715-.6518.806-.806,1.3106l.4626.5677c.7079-1.4788,2.0675-1.8642,3.3641-2.7263,1.2615-1.0372,2.3479-2.2357,3.266-3.5813.2593-.2943.5677-.4976.9111-.6308.848-.1892,1.668-.4906,2.453-.862.3855-1.2615,1.3106-2.2848,2.5441-2.8034,0-1.0653-.1121-4.8148.7849-5.3825,1.0513-.7079,2.3128-1.0793,3.5813-1.0162.8621,2.6843-.4906,2.9576-.2803,4.5065.3224,2.453.3224,4.934,0,7.3869.7569.9602,1.8643,2.8384,1.3737,4.149s-.6938,2.5721-1.1704,3.7636l-2.9576.8831c-.2033.1822-.3714.4135-.4766.6658-.4205,1.3106-1.0022,1.4788-2.0535,2.3899-.2944,1.5699-.6658,3.1468-1.0933,4.7027-.028.1542-.028.2943,0,.4486,0,.1542.1051.6027,0,.4625l.9602-.1051c.1051-1.696.6027-3.3431,1.4788-4.7938,1.4017-1.4788,2.4249-1.3737,4.0439-2.3268.6798,1.1424,1.1844,2.3619,1.4788,3.6514,0,1.6049.2663,3.2239.799,4.7378-.1051.1822-.1822.3855-.2173.5887.1051.1051.2173.2313.2663.2313l.1261.028v.0911l-.0492.0355Z" style="fill: #002856;"/>
        <path d="M402.7866,463.6048c.82-1.0162,1.4928-2.1586,1.9764-3.3641.6658-2.2357,1.1915-4.4294,2.0535-6.6511.2803-.7429-.7219-3.1328-.9531-3.9949.2663-1.8503.6027-3.6865,1.0022-5.4947-2.8384-.9882-2.5721-1.8012-3.9037-4.2121-.4486-.4976-1.0513-.806-1.7241-.8831-.5537-.1121-1.0793.2313-1.1844.7849,0,.014,0,.028-.014.035-.1261.8831-.1682,1.7732-.0911,2.6562,0,.7849-1.0653,1.1564-1.4788,1.7732,0,.3715-.1822,2.2848-.1051,2.5301-.6027.4135-1.3386.6658-2.0675.6938-.6518.2663-1.0162.9742-.82,1.654.0911.3855.2173.7709.3995,1.1144-1.3877.2173-2.7333.6518-4.0089,1.2615-1.4157,1.0372-2.9155,1.9764-4.4294,2.8525-2.453-3.0557-5.4596-5.6138-8.8728-7.5412-3.6374-1.8642-9.097-3.9318-12.8956-5.4947-.5747-.2313-.8761-1.1564-1.0162-1.696.7219-1.1564.7569-2.6071.1051-3.7986-.6938-.9111-1.4367-1.8012-2.2217-2.6492-1.5909-1.3106-3.1959-2.6702-4.7027-4.0439,2.0675-.4976,2.9576-2.3478,3.5042-4.2261.5677-.2663,2.6842-1.5559,2.9576-1.6049.2173-.0771.4626-.1121.6938-.1542,1.9413,1.2054,4.3943,1.2826,6.3988.1892.4135-.2593.8761-.3855.6308,0-.3855.9392-1.0933,1.696-1.9764,2.1866-1.1073.5677-3.315,1.0933-4.5836,1.5699.1892.8761.2944,1.7591.3364,2.6562-.6308.7219-1.1424,1.5699-1.4788,2.467-.1051.8971.4135,1.7732,1.2685,2.0955.2944.0631.6027.028.8971-.0771,1.2055-.6658,2.1166-1.5769,3.5323-.862.7079.3855,1.647-.3855,2.2217-.7569.4135-.2173.9111-.1892,1.2825.0911.2944.6027.4906,1.2685.5887,1.9414-.5887.6168-1.1143,1.2826-1.605,1.9904-.3574.5537.2173,1.3456.6308,1.654.2593.1892.5677.2943.8761.3224,2.4249-.1822,2.2638-1.4788,5.3335-.7079.6168-.1542,1.2055-.3855,1.7731-.6938.2663-.1542.5887-.1892.8831-.1051.7079.1822,1.9624.862,2.6702,1.1424.2944.014.6027-.028.8831-.1261.848-.6658,1.5909-1.4648,2.2217-2.3478.2663-.1892.5677-.3084.8831-.3574,1.5559.014,3.0697-.3715,4.4294-1.1074,2.0955-1.4788,2.9576-4.0579,3.4202-6.3988h-3.9528l1.7591-3.2099c.2944.1051,1.9904,1.3877,2.4179,1.668s.4626,1.4788.3855,2.0395c.4906.2663,1.8993,1.6049,2.2848,1.7591-.1121.7079-.3364,1.3877-.6518,2.0395-.2663.5677.5537,1.3877,1.0162,1.5559,1.2685.2943,2.5441.4976,3.8407.6168,1.2055,1.4788,1.8993,2.9576,3.7005,3.6865,1.605.5116,3.301.7219,4.983.6168-.1261.862-.4486,1.668-.9111,2.3899-.7429,1.0022-2.0675,2.1306-2.8665,3.1188-.4135.6798-.6798,1.4367-.7709,2.2217-.028.4625.1051.9392.3855,1.2966l2.5581-1.0022c.8621.3574.82.5677,1.1073,1.3877l2.5581-.9111c.1121,4.5696,1.668,6.9244-2.2497,10.3516-.2033.1822-1.8012.6027-2.3128.9531-2.6072,1.9554-4.6396,4.5485-5.9082,7.5412l-1.1424-2.425h.0491v-.0069Z" style="fill: #002856;"/>
        <path d="M344.8123,338.6923c1.3877-.7709,2.6492-1.7731,3.7005-2.9576l.4626,1.0793c-.0911,1.0793-.848,1.9904-1.8783,2.3128-.7849.0911-1.5769-.0631-2.2707-.4205l-.014-.014h0Z" style="fill: #002856;"/>
        <path d="M339.0513,401.6286c-.2313-1.3456-.5116-2.7123-.8761-4.0229l4.3032-.9602c.2803,1.5559.9882,2.9786,2.0535,4.149-1.8643.0771-3.7005.4486-5.4456,1.0933,0-.0911-.035-.1892-.035-.2663v.014-.007Z" style="fill: #002856;"/>
        <path d="M493.1612,374.5898c.035-.9111,0-1.8362-.1051-2.7473,0-.3995.2663-.4976.4976-.1892.6168.8971,2.2357.3855,3.1118.2033.3574-.028.6938.1261.9111.4135.5256,1.0022,1.4017,1.8012,2.453,2.2357.2593.0911-.4625.1542-.7079.2173l-.848.3995c-.0911.4135-.2313.799-.4766,1.1564l-4.8429-1.682h0l.007-.007Z" style="fill: #002856;"/>
        <path d="M391.0474,382.6706c-.5887-.5537-1.4157-.799-2.2217-.6798-.1542.028-.3084.028-.4626,0-.82-.4135-1.5769-.9742-2.2217-1.654-.035-.8621.014-1.7241.2033-2.5441.5677,1.1564,1.682,1.9413,2.9576,2.0815,1.6961.1121,3.4061-.2663,4.8779-1.1143.4766-.2593.4135.2313.1542.6938-.9531,1.605-1.4017,3.4552-1.2825,5.3194,0,.5747,0,1.2825-.1822.7429-.3995-1.0793-1.0162-2.0395-1.8362-2.8384h.014v-.007Z" style="fill: #002856;"/>
        <path d="M413.047,352.1486c-.1542-.9391-.3574-1.8503-.5887-2.7613-5.9082-2.2848-10.4707-.848-16.1476,1.0162-.1051-.9882-.028-1.9904.2033-2.9576.3995-1.2055,1.5909-1.8853,2.3899-2.8104.0631-.8621.2313-1.6961.4976-2.516,0-.2033,3.5323-2.9576,4.3312-3.9949s-.9111-1.9764-1.4788-2.3759c.5256-1.2055,1.647-2.0815,2.9576-2.2707.3574-.1542.6658-.3714.9111-.6518.1121-.799.6027-1.4788,1.2966-1.8783,1.2966-.4486,2.6492-.7849,4.0089-1.0162.7709-.2944,1.2335-1.0653,1.1073-1.8783-1.0653-1.2966-.5677-2.4249.5537-3.4272-.6027,2.481-.2313,5.1022,1.0373,7.3099,1.4788,2.439,2.8805,4.6116,4.4294,7.0926.8831.82,1.9624,1.4367,3.1328,1.7731.7079.82,1.2615,1.7731,1.633,2.8034-.82.1051-1.5769.5256-2.0815,1.1844-.2313.3574-.6168,1.7872-.8971,2.1866-.6798.5256-1.4157.9882-2.1866,1.3737-.3574.1822-.5887.4976-.6518.8831,0,1.7311-2.4249,2.3408-3.7916,2.6842-.2313.0631-.4766.1261-.6798.2313l.014.014v-.014Z" style="fill: #002856;"/>
        <path d="M415.9485,389.3217c.2033-1.1704.3714-2.3128.4976-3.4552l1.2475.1892v2.453c1.4788.7709,3.4202,1.5699,3.1118,3.6094l-4.8429-2.8034h-.014v.007Z" style="fill: #002856;"/>
        <path d="M491.8926,363.9439l1.668-1.4788c0-.7569-.1051-1.4017-.1542-2.1306s.5887-1.1073,1.0793-1.2685c.82-.3995,1.7591-.5256,2.6562-.3855.7079.1121,1.4788,2.1586,1.5699,2.7473,1.3456.3364,2.7754.2593,4.086-.2313l-.6518,1.633c-.7709.1822-1.5699.1822-2.3409,0-.6027-.1121-2.6071,1.3106-3.1118,1.5909-.9392.4486-3.7986-.1822-4.8148-.4766h.014Z" style="fill: #002856;"/>
        <path d="M384.3262,360.8181c-.1051-.1822-.4135-.3714-.2803-.5116.7079-.8761.5256-1.1564.4906-2.2217s2.8034-1.9273,3.7215-2.495l.5747.9882c-1.5699,1.4367-3.0067,3.0207-4.2752,4.7167l-.2313-.4766h0Z" style="fill: #002856;"/>
        <path d="M391.1595,397.2133c.2803-.8831.3855-1.8222.2803-2.7333-.2173-.9111-.6308-3.343-.848-3.9949-.0631-.2033-.1542-.3995-.2803-.5677l-2.0675-1.0933-1.2475-3.1188-3.273.3574c.9602-1.3456,1.668-2.8525,2.1306-4.4294,1.0162,1.7872,2.9786,2.8244,5.0321,2.6352,1.0373,2.3128,1.9413,4.6747,2.7123,7.0786.5677,2.481.5256,5.0321,1.2615,7.7584-1.1073-.848-2.3619-1.4928-3.7005-1.8853h0v-.007Z" style="fill: #002856;"/>
        <path d="M375.5025,396.8138c-2.6072-.2944-5.1793-.7849-7.7093-1.4788.6168-.9111.3855-2.1586-.5256-2.7754-.8761.1892-1.7872.1892-2.6562,0-.2173-.4906-.5256-1.4788-1.1844-1.4788-.6027.1892-1.2475.1892-1.8503,0-.4135-.848-.6658-1.7731-.7219-2.7263-1.4788-.799-2.7123.6308-3.9949,1.4788-.6938.4486-2.9576-1.4788-4.8919-.5677-.4135.1892-.3364-.1682-.1682-.5747.5677-1.3597,2.9576-2.6072,4.2261-3.3641l-1.1704-2.6702c.4486-1.1915.5537-2.481.3224-3.7215-.2313-.7219-.7849-1.2966-1.4788-1.5769-.2033-.0631-.4486-.0631-.6518,0l-1.7311,1.9273c-.82-.1892-1.668-.1892-2.495,0-1.8993-1.6961-1.668-2.3899-2.0325-4.7798-.0771-.5537-1.0793-1.3456-1.4788-1.5699-1.633-.799-2.1166,1.4788-2.1866,2.5441-1.2055,0-1.8853-.3084-2.7123.7429-.4976-1.3106-.7569-2.7263-.7219-4.135-1.1073.014-2.2217-.1682-3.266-.5537-2.2217-1.1844-3.1608-3.5954-6.2306-2.6072-.5677.2033-.848.848-.6308,1.4017.014.0631.035.1051.0771.1682.3084.5747.5747,1.1844.806,1.7872.2313.6938-.7849,1.3877-1.3597,1.4788.4486.8761.7709,1.8222.9742,2.7754-.7569.5677-1.5909,1.0162-2.495,1.3386-.5677.3364-.4486,1.1424-.1121,1.5909s.1542.6027-.1051.3995c-3.4692-2.6842-7.45-4.6606-11.6902-5.796.5116-1.7872-.3995-3.0697-1.5769-4.3312,2.7754-.7709,5.6278-1.2685,8.5153-1.4788.5747-1.0162,1.2055-2.0185,1.8993-2.9576.2313-.2593.5256-.4135.8621-.4976,1.605-.4766,3.0697-1.0513,4.6747-1.4788-.3574-.9602-.6518-1.9554-.8761-2.9576,0-.3084.035-.6027.1542-.8971.7569-1.1143,1.1073-2.453.9882-3.7986,1.3386,0,1.654-.8971,2.2217-1.8993.3364-.6027,1.1564-.5677,1.7311-.5256.3364-.014.6658-.1542.9391-.3574l.8971-1.2055c.3084,2.2497.3995,4.5205.2663,6.7842.82.6308,1.9904,1.3456,2.3268,2.3479.3364,1.5769.5747,3.1959.7079,4.8008.806-.0631,1.605-.1822,2.4179-.3714.3224.014.6308.1121.8971.2803,1.2055,1.0793,2.516,1.7241,3.9808.7079s.5116-2.4179,0-3.6374c-.1892-.4976.6027-1.9554.9111-2.3479-.2033-.799-.4626-1.5909-.7709-2.3619.6798-.799,1.4788-1.5769,2.1306-2.3899.4205-.4976,0-1.4788-.4906-1.8012-.7219-.6518-1.5419-1.1915-2.4179-1.633-.2313-.0771.3995-.3224.5887-.5116,1.5909-.4486,3.301-.4486,4.8919,0,1.8643.7429,2.7754,1.8012,4.8779,2.3619,2.8805.5677,5.803.9531,8.7326,1.1564-1.1073,0-2.1586.4135-2.9576,1.1844-.2803.1051-.5887.1261-.8831.1051-.9882-.4135-2.0395-.6938-3.1188-.799-.3224.028-.6308.2033-.806.4906-.3224.6658-.4906,1.4017-.4906,2.1446-.1121.2803-.2033.4976-.4766.5747-3.0417.8761-4.7237,1.1143-4.7167,4.7237,0,1.4648.3995,2.8805,1.1424,4.135,3.1959-.5747,6.63-.5887,9.5946-2.0955.3995,1.605-1.7451,3.4202-2.9576,4.135-1.4788.8831-1.3737,3.1328-.9742,4.4294.6658,2.1866,1.8643,4.1841,3.4972,5.796,1.7591-.1542,3.4692-.5887,5.0741-1.3386,1.4928-.7429,2.8384-1.7451,3.9949-2.9576.7849.5747,1.5909,1.1143,2.439,1.5909.9882.5887.2663,3.7145.2803,4.8919.0771,2.7754,3.5954,4.4294,6.0483,4.7378.4906.3855.8621.8971,1.0933,1.4788.0911.4135-.3364.8761-.6168,1.1424.2033.6168.6308,1.1564,1.2055,1.4788l-2.3899,2.3408,3.5183,1.3456c-.035.8831.1261,1.7731.4906,2.5791-2.5441.0771-5.1022-.0631-7.6182-.3714l-.0631-.014.0561.014Z" style="fill: #002856;"/>
        <path d="M417.2381,437.4561h-.4486c-.3084-.4766-.5887-.9602-.82-1.4788l3.1188.2173-1.7872,1.2826-.0631-.028h0v.007Z" style="fill: #002856;"/>
        <path d="M445.6506,371.8425c-.6658-.7079-1.0653-.9391-1.1073-1.7731s1.2475-1.7731,1.7872-2.1446c.5537,1.2055,1.3597,2.516.2173,3.6514l-.5747.5887-.3224-.3224Z" style="fill: #002856;"/>
        <path d="M446.7299,437.3019c.9882-1.3106,2.6352-1.9624,4.2542-1.696l-.1682,1.3456-4.1.3574.014-.014v.007Z" style="fill: #002856;"/>
        <path d="M408.3724,420.1521c-4.9059-1.7451-8.9779-12.7414-10.4707-17.7385-2.3479-7.7304-3.7496-17.3811-1.7241-25.3147.2033-2.6842-.5677-5.3685-2.1866-7.5271-1.9273-1.8993-3.6584-3.9808-5.2003-6.1885-.6518-.7079-2.3268-.7569-3.2239-.7569.6798-1.7451,1.8503-3.252,3.3501-4.3663.7569.6938,1.682,1.1564,2.6842,1.3386-.2803,1.2335,1.0162,1.9624,1.9273,2.5301l.2803,1.9413c1.1844.5887,1.8853,1.4788,1.2475,2.8384-.1121.6027.0631,1.2335.4766,1.682.7079.1051,1.4367.1682,2.1586.1822.3364-.028.6658.1121.8621.3995.799,1.0653,1.2966,2.495,2.7123,2.9576,2.1166.4205,4.3172.2033,6.2936-.6308.2944-1.5699-.028-3.1959-.8761-4.5485-1.4017-1.8222-2.9576-3.5813-4.5695-5.2914-.6518-.4486-1.4017-.7219-2.1866-.799-.7429-.1121-1.654-1.4788-2.0395-2.0675.5747-.4626,1.3106-.6518,2.0395-.5537,1.4788.4486,2.495.9391,3.9949,1.2825,1.1073.2663,1.5559-1.1424,1.7872-1.8993.1051-.4135.4626-.7429.8831-.7849,1.4928-.035,2.9786-.2663,4.4294-.6518.7709-.5116,1.4367-1.1844,1.9554-1.9554l.5677,1.3737c-1.0373,1.1073-2.6702,2.2638-2.7333,3.7916-.1051,2.1866,4.2892,3.5603,5.9082,3.9177.9602.2033,4.0089-1.7241,4.8919-2.2707-.7079,1.7451-1.1424,3.5954-1.2966,5.4736-.1121,2.9576-.0771,5.9082.1682,8.8728-.8761-.799-1.8362-1.4788-2.8665-2.0535-.1542-.0771-.3855-.5887-.4135-.6518-.2944-1.1844-.7429-2.3479-1.1143-3.5042-2.6562,1.0653-2.6072.4976-5.1092-.2663-.8761-.014-1.6961.3574-2.2707,1.0162-.0911.1682-.1682.3364-.2173.5256.1261.6798.4766,1.2966.9602,1.7872.4766.4906-.1051,1.3106-.3224,1.7731s.7219,1.8643,1.2055,2.1586c-.848.6027-1.5419,1.3877-2.0675,2.2707-.0911.3084,0,.6658.2313.8831.7709.4766,1.605.806,2.481,1.0513.799.2663.8761,2.0185.848,2.7123-2.0325.5256-4.1.9111-6.1815,1.1424-.2313.014-.4626.0911-.6518.2033-.3855.9602-.9602,1.8222-1.682,2.5581-.5256.1682-3.4552,1.2475-3.7355,1.2615.3995.8971.5887,1.8783.5887,2.8525-1.0653,1.605-1.2615,3.1608.1542,4.5485.6168.6027,1.7731-.4205,2.2357-.7849s1.2615,0,1.682.4486c-.2173.8621-.0771,1.0933-.8761,1.7241-.9391.848-1.9273,1.605-2.9576,2.3408,1.5909,2.2497,1.5909,2.495,1.4788,5.2774,0,.7219,1.0022,1.7241,1.4788,2.0815.7709.5537,1.2615.1261,1.7311-.3714.4135-.4486.7849-.9531,1.0933-1.4788.5537-.028,1.0793.028,1.605.1682.7219-.3855,1.2685-1.0653,1.4788-1.8643,1.2055.4626,2.439.848,3.7005,1.1424,0,1.7451.3364,6.0904-.1682,7.3869-.8621,2.2357-1.8853,4.4294-2.7123,6.6511-.3574.7569-.9531,1.3737-1.682,1.7732-.014.014-.014.028-.014.035l-.028-.014.007-.021Z" style="fill: #002856;"/>
        <path d="M462.2327,420.2292c-.1051-.806-.4766-1.5559-1.0513-2.1306-.2663-.1542-.5677-.2173-.8761-.2032-.9531.3715-1.8503.8761-2.6702,1.4788-.6308.1892-1.2966.2032-1.9554.0771l3.301-3.4202.1542-1.7311c.5537.0911,1.0793.2804,1.5699.5747.6308.3995.6027,1.0653.6168,1.7451.4135.5537,1.0022.9531,1.654,1.1424.3364.1261.4486.7849.3714,1.0793-.1051.5677-.4976,1.4788-.6798,1.9904-.1051.3224-.3855-.3715-.4205-.6027h-.014,0Z" style="fill: #002856;"/>
        <path d="M466.9704,422.7172c-.9391,0-1.2335.2173-1.0513-.7079l.1121-.6027c.799.014,1.5559.3995,2.0535,1.0372-.3574.1822-.7429.2663-1.1143.2804v-.014.007Z" style="fill: #002856;"/>
        <path d="M495.3478,416.2974c-.3364-.7219-.4486-1.5419-.3364-2.3409,1.1564.806,1.1144.8971,1.4017,2.425l-.9392.1892c-.1051.014-.1051-.1892-.1261-.2804h0v.007Z" style="fill: #002856;"/>
        <path d="M383.5202,429.0248c.4976-1.0513,1.0933-2.0675,1.7451-3.0347.9391.806,1.9554,1.4928,3.0557,2.0325l-4.8008,1.0022h0Z" style="fill: #002856;"/>
        <path d="M446.6528,426.8943c.3995-.3715.8621-.6658,1.3597-.8831l1.2475.848-2.3268.5887-.2803-.5537h0Z" style="fill: #002856;"/>
      </g>
      <path d="M435.0117,285.624c-4.0089-.8621-5.4876-5.1793-5.0882-8.8728.4135-3.1188,2.3408-5.8451,5.1232-7.2818,2.8034,1.2335,6.2586,2.5301,8.1439,5.0741s1.1424,6.1535-.4135,8.4382c-1.8503,2.3479-4.8919,3.3921-7.7724,2.6492h0l.007-.007Z" style="fill: #002856;"/>
      <path d="M438.558,266.0422c-4.3383-1.9624-8.8728-4.5345-6.8753-10.0992.9742-2.1586,3.1748-3.4692,5.5507-3.315,2.516-.1121,4.8148,1.4017,5.6769,3.7636,1.2335,3.8126-.5116,7.9476-4.1,9.7348l-.2593-.1051v.014l.007.007Z" style="fill: #002856;"/>
      <path d="M384.3753,269.9459c-4.4294-1.3737-5.1092-7.387-4.4294-11.2907.3084-3.266,2.9436-5.817,6.2306-6.0623,3.0067.0771,5.5507,2.2217,6.1395,5.1653,1.0513,3.7636,1.2335,9.3353-2.5721,11.6481-1.633.9391-3.5813,1.1143-5.3545.5537l-.014-.014Z" style="fill: #002856;"/>
      <path d="M410.58,285.7291c-4.2121-1.2475-5.0601-8.3121-5.2283-12.0196-.2313-5.3966-.4766-11.1996.9882-16.4279.4906-2.5301,2.5721-4.4294,5.1232-4.7027,2.1306-.1121,4.107,1.0513,5.0321,2.9576,2.9576,5.9853,2.3759,17.8577,1.3456,24.4176-.3855,2.3408-1.682,5.2003-4.1771,5.9082-1.0373.2173-2.0955.1682-3.1118-.1542l.014.028.014-.007Z" style="fill: #002856;"/>
    </g>
    <path d="M634.2983,287.0887c-57.8762,2.1937-116.6214.5116-174.5607,0v-15.5939h177.8897c-.035.4486-.1121.8831-.2032,1.3386-1.0513,4.7167-1.8993,9.4895-3.0417,14.2062l-.0771.0631v-.014h-.007Z" style="fill: #e10e14;"/>
    <path d="M339.9834,287.1027h-174.3294l-3.273-15.5799h178.121v15.6079l-.5116-.028h-.007Z" style="fill: #e10e14;"/>
    <path d="M339.9834,266.2805h-178.6817l-2.9576-15.706h182.2139v15.706h-.5747,0Z" style="fill: #fce803;"/>
    <path d="M638.7557,266.1263c-.1261.0771-.2663.1121-.4135.1542-58.563,2.1586-119.8523,0-178.7097,0v-15.706h182.1368l-2.9576,15.5519h-.0631.007Z" style="fill: #fce803;"/>
  </g>
</svg>