<?xml version="1.0" encoding="UTF-8"?>
<svg data-name="图层_1" xmlns="http://www.w3.org/2000/svg" version="1.1" viewBox="0 0 800 800">
  <!-- Created by @FCLOGO 2025-1-9 GMT+8 10:42:11 . https://fclogo.top/ -->
<!-- FOR PERSONAL USE ONLY NOT FOR COMMERCIAL USE -->
  <path d="M348.2194,774.301c-.786,0-1.3752-.2173-1.7682-.6519-.393-.4352-.5284-1.03-.406-1.7856l.2518-1.6478c.122-.755.4501-1.3504.9841-1.785.5339-.4352,1.1939-.6525,1.9799-.6525.7553,0,1.3293.1987,1.7223.5954.3927.3967.551.9381.4747,1.6248h-1.2358c.0304-.3589-.0553-.637-.2573-.8357-.2024-.1981-.4979-.2974-.8869-.2974-.4197,0-.763.1167-1.03.3489-.2673.2328-.4349.5631-.5035.9903l-.2632,1.659c-.0686.4352-.0056.7686.1887,1.0015.1946.2328.5017.3489.9214.3489.389,0,.7152-.0987.9785-.2974.2632-.1981.4365-.4805.5206-.8469h1.2358c-.1372.6867-.4672,1.2306-.9897,1.631-.5228.4005-1.1616.6004-1.9169.6004ZM352.7967,774.1868l.9956-6.2943h1.1902l-.1946,1.1902c.3359-.8698.9729-1.3044,1.9113-1.3044.6712,0,1.1691.208,1.4932.624.3244.416.4293.9859.3148,1.7105l-.0686.4234h-1.2703l.0571-.3204c.0689-.4501.0115-.7953-.1714-1.0356-.1832-.2403-.4771-.3607-.8813-.3607-.4045,0-.7401.1223-1.007.3663-.2673.2446-.4349.588-.5035,1.03l-.6296,3.9711h-1.2358ZM361.9058,774.301c-.7705,0-1.3463-.2229-1.7279-.6693s-.515-1.0356-.4005-1.7682l.2518-1.6478c.0838-.488.2573-.9152.5206-1.2815s.6007-.6507,1.0129-.8524c.4119-.2024.8732-.3036,1.3845-.3036.7705,0,1.3485.2235,1.7338.6693.3852.4464.5169,1.0356.3949,1.7682l-.1717,1.1213h-3.845l-.0916.5265c-.1527.9536.2173,1.4305,1.1098,1.4305.7171,0,1.175-.2477,1.3734-.7438h1.2247c-.1679.5339-.5035.9599-1.007,1.2759-.5038.3166-1.0912.475-1.7626.475ZM361.2306,770.2157l-.0456.2862,2.6548-.0118.0459-.2856c.0686-.4656.0133-.822-.1661-1.0704-.1791-.2477-.4861-.3719-.9211-.3719-.4427,0-.7953.126-1.0586.3775-.2632.2521-.4331.6109-.5094,1.076ZM368.3258,774.301c-.6333,0-1.1027-.2117-1.4078-.6351s-.3967-1.0008-.2744-1.7335l.2744-1.7738c.1145-.7326.393-1.3119.8357-1.7397.4424-.4272.98-.6407,1.6133-.6407.4653,0,.8298.1186,1.093.3545.2632.2365.3908.5575.3834.9617h.023l.1717-1.202h1.2358l-.9956,6.2943h-1.2247l.1946-1.2014h-.023c-.122.4116-.3511.7339-.6867.9667s-.7401.3489-1.2129.3489ZM368.9324,773.2257c.389,0,.7152-.1186.9782-.3551.2632-.2359.4293-.5718.4979-1.007l.2518-1.6478c.0686-.4272.0096-.7612-.1773-1.0015-.1872-.2403-.475-.3601-.8642-.3601-.3967,0-.7249.118-.9841.3545-.2595.2365-.4234.5724-.492,1.007l-.2518,1.6478c-.0686.4427-.0133.7804.1658,1.0133.1794.2328.4712.3489.8757.3489ZM376.3477,774.1868c-.5721,0-.9937-.1565-1.2644-.4694-.271-.3123-.3607-.7512-.2691-1.3156l.538-3.3874h-1.7394l.1714-1.1219h1.7397l.2747-1.7161h1.2358l-.2747,1.7161h2.472l-.1832,1.1219h-2.4605l-.5377,3.3874c-.0764.4421.099.6637.5262.6637h1.7167l-.1717,1.1213h-1.7738ZM382.5042,774.301c-.7705,0-1.3463-.2229-1.7279-.6693s-.515-1.0356-.4005-1.7682l.2518-1.6478c.0838-.488.2573-.9152.5206-1.2815s.6007-.6507,1.0129-.8524c.4119-.2024.8732-.3036,1.3845-.3036.7705,0,1.3485.2235,1.7338.6693.3852.4464.5169,1.0356.3949,1.7682l-.1717,1.1213h-3.845l-.0916.5265c-.1527.9536.2173,1.4305,1.1098,1.4305.7171,0,1.175-.2477,1.3734-.7438h1.2247c-.1679.5339-.5035.9599-1.007,1.2759-.5038.3166-1.0912.475-1.7626.475ZM381.829,770.2157l-.0456.2862,2.6548-.0118.0459-.2856c.0686-.4656.0133-.822-.1661-1.0704-.1791-.2477-.4861-.3719-.9211-.3719-.4427,0-.7953.126-1.0586.3775-.2632.2521-.4331.6109-.5094,1.076ZM388.9243,774.301c-.6333,0-1.1008-.2117-1.4019-.6351-.3014-.4234-.3949-1.0008-.2803-1.7335l.2744-1.7738c.1145-.7326.393-1.3119.8357-1.7397.4424-.4272.98-.6407,1.6133-.6407.4653,0,.8298.1186,1.093.3545.2632.2365.3908.5575.3834.9617h.023l.2058-1.4652.2977-1.7962h1.2358l-1.3274,8.3537h-1.2247l.1946-1.2014h-.023c-.122.4116-.3511.7339-.6867.9667s-.7401.3489-1.2129.3489ZM389.5309,773.2257c.389,0,.7152-.1186.9782-.3551.2632-.2359.4293-.5718.4979-1.007l.2518-1.6478c.0761-.4272.0189-.7612-.1717-1.0015-.1909-.2403-.4805-.3601-.8698-.3601-.3967,0-.7249.118-.9841.3545-.2595.2365-.4234.5724-.492,1.007l-.2518,1.6478c-.0764.4427-.023.7804.1602,1.0133s.4768.3489.8813.3489ZM401.0175,774.301c-.4731,0-.8394-.1161-1.0986-.3489-.2595-.2328-.3852-.5551-.3775-.9667h-.0115l-.1946,1.2014h-1.2243l1.3274-8.3537h1.2358l-.2862,1.7962-.2744,1.4652h.0456c.122-.4123.353-.7345.6923-.9673.3396-.2322.7419-.3489,1.2076-.3489.633,0,1.1002.2136,1.4016.6407.3014.4278.3949,1.007.2806,1.7397l-.2747,1.7738c-.1145.7326-.3949,1.31-.8413,1.7335-.4461.4234-.9822.6351-1.6077.6351ZM400.7657,773.2257c.3967,0,.7227-.1161.9785-.3489.2555-.2328.4216-.5706.4976-1.0133l.2518-1.6478c.0689-.4346.0115-.7705-.1714-1.007-.1832-.2365-.4734-.3545-.8698-.3545-.3893,0-.7152.1198-.9785.3601s-.429.5743-.4979,1.0015l-.2518,1.6478c-.0686.4352-.0112.7711.1717,1.007.1832.2365.4731.3551.8698.3551ZM405.4694,776.2468l.1717-1.0642h1.934c.6407,0,1.007-.3017,1.0986-.9046l.1028-.6749.2061-1.1902h-.0345c-.122.4197-.3471.7438-.6752.9729-.3281.2285-.7286.3433-1.2014.3433-.6258,0-1.093-.2005-1.4019-.601s-.4104-.9443-.3033-1.631l.5836-3.6047h1.2358l-.5606,3.4793c-.0612.4116,0,.732.1832.9611s.4653.3433.8469.3433c.389,0,.7168-.1217.9841-.3663.267-.244.4309-.5836.492-1.0182l.538-3.3992h1.2358l-1.007,6.4086c-.0993.6029-.37,1.0778-.8124,1.4249-.4427.3471-.9996.5209-1.6707.5209h-1.9455ZM417.787,770.0853h3.221l.5368-1.8545h-5.4659l-1.7081,6.4419h2.1473l.5856-2.0985h3.0257l.4392-1.7081h-3.0257l.244-.7808ZM424.229,772.9158c-.5856,0-1.0249-.3904-1.0249-1.1225,0-.8784.6344-1.7569,1.6105-1.7569.488,0,.8784.244,1.0248.7808l1.9521-.8296c-.2928-1.1713-1.2689-1.9033-2.6353-1.9033-2.7817,0-4.1482,2.1473-4.1482,3.9042s1.2689,2.8305,3.0746,2.8305c1.3665,0,2.3425-.5856,2.9769-1.4153l-1.5129-1.1713c-.3904.4392-.8296.6832-1.3177.6832ZM430.9149,768.2308h-2.1473l-1.7569,6.4419h5.1242l.488-1.8545h-2.9281l1.2201-4.5874ZM439.7481,771.0125c0-1.6593-1.3177-2.9281-3.221-2.9281-2.1961,0-3.8066,1.8057-3.8066,3.8066,0,1.6593,1.3177,2.9281,3.221,2.9281,2.1961,0,3.8066-1.8057,3.8066-3.8066ZM434.9167,771.6957c0-.8296.5856-1.7081,1.5129-1.7081.7808,0,1.1713.5368,1.1713,1.2201,0,.8296-.5856,1.7081-1.5129,1.7081-.7808,0-1.1713-.5368-1.1713-1.2201ZM443.2131,772.2326h1.0737l-.1952.6832c-.1464.0488-.3416.0976-.5856.0976-.6832,0-1.2689-.3904-1.2689-1.2201,0-1.0249.732-1.9033,1.9521-1.9033.5856,0,1.1225.244,1.5129.5856l1.3665-1.3665c-.4392-.5368-1.5129-1.0737-2.7329-1.0737-2.5865,0-4.2946,1.7569-4.2946,3.8554,0,2.0497,1.6105,2.8793,3.221,2.8793.9272,0,1.8545-.2928,2.4889-.6832l.9272-3.3186h-3.1234l-.3416,1.4641ZM450.7775,768.0844c-2.1961,0-3.8066,1.8057-3.8066,3.8066,0,1.6593,1.3177,2.9281,3.221,2.9281,2.1961,0,3.8066-1.8057,3.8066-3.8066,0-1.6593-1.3177-2.9281-3.221-2.9281ZM450.3382,772.9158c-.7808,0-1.1713-.5368-1.1713-1.2201,0-.8296.5856-1.7081,1.5129-1.7081.7808,0,1.1713.5368,1.1713,1.2201,0,.8296-.5856,1.7081-1.5129,1.7081ZM437.9424,767.4987c-.0488.2928.0976.488.4392.488s.5368-.1952.6344-.488c.0488-.244-.0976-.488-.4392-.488s-.5856.244-.6344.488ZM432.1349,765.4978c-.4392,0-.732.244-.7808.5856s.0976.5856.5368.5856.732-.244.7808-.5856c.0976-.3416-.0976-.5856-.5368-.5856ZM433.0134,767.3035c-.0976.5368.1464.8784.8296.8784.6344,0,1.0737-.3904,1.1713-.8784s-.1464-.8784-.8296-.8784c-.6832,0-1.0737.3904-1.1713.8784ZM439.6017,777.552l-2.4401-1.8057h-1.5129l4.2458,3.1722,1.6105-3.1722h-.976l-.9272,1.8057ZM425.8394,767.1571l-2.0009-1.4641,23.1323-2.7817-2.1473,4.2458h1.0248l2.6841-5.3195-26.9877,3.221,2.7817,2.0985h1.5129ZM338.7186,785.7853l.6088-3.8315h2.32l-.084.5194h-1.7636l-.1837,1.1445h1.6272l-.084.5248h-1.6166l-.2573,1.6428h-.5668ZM342.97,785.8377c-.3568,0-.6228-.1005-.7978-.3019-.175-.201-.2345-.473-.1784-.8161l.2677-1.7006c.056-.3429.2029-.6148.4408-.8161.2379-.201.5355-.3019.8923-.3019s.6228.1.7979.2993c.1748.1993.2361.4707.1837.8136l-.2677,1.7057c-.0561.3431-.2039.6151-.4435.8161-.2398.2013-.5381.3019-.895.3019ZM343.0487,785.3339c.1925,0,.3483-.0524.4672-.1575.119-.1051.1942-.2571.2257-.4568l.2678-1.7006c.0315-.1993.0051-.3517-.0787-.4565-.084-.1051-.2223-.1575-.4148-.1575s-.3473.0524-.4645.1575c-.1173.1048-.1916.2571-.2231.4565l-.2677,1.7006c-.0315.1996-.0053.3517.0787.4568s.2204.1575.4094.1575ZM344.9961,785.7853l.6088-3.8315h1.202c.2379,0,.4391.0464.6036.139.1645.0928.2835.223.357.391s.091.3656.0524.5932c-.0384.2591-.14.4838-.3044.6746-.1645.1905-.3656.3209-.6036.391l.5354,1.6428h-.6194l-.4777-1.5748h-.5406l-.2466,1.5748h-.5668ZM345.8883,783.7068h.6352c.1889,0,.349-.0558.4803-.168.1313-.1119.2107-.2623.2388-.4514.0316-.1925,0-.3454-.0944-.4593-.0945-.1136-.2362-.1706-.4252-.1706h-.6352l-.1995,1.2493ZM349.545,785.7853l.6088-3.8315h1.2544c.3709,0,.6508.1048.8399.315.1889.2099.2553.4898.1993.8398-.0384.2344-.1216.4383-.2493.6114s-.2905.307-.4881.4015c-.1978.0945-.419.1418-.6639.1418h-.6928l-.2415,1.5221h-.5668ZM350.432,783.754h.6928c.1924,0,.3568-.0587.4934-.176.1364-.117.2204-.2737.2519-.4696s-.0017-.3525-.0997-.4699-.245-.1757-.441-.1757h-.6876l-.2099,1.2911ZM352.7466,785.7853l.6088-3.8315h2.2518l-.0787.5038h-1.6954l-.1731,1.0867h1.5115l-.0787.4986h-1.5115l-.1942,1.2387h1.6901l-.0787.5038h-2.2518ZM355.8434,785.7853l.6088-3.8315h1.202c.2379,0,.4391.0464.6036.139.1645.0928.2835.223.357.391s.091.3656.0524.5932c-.0384.2591-.14.4838-.3044.6746-.1645.1905-.3656.3209-.6036.391l.5354,1.6428h-.6194l-.4777-1.5748h-.5406l-.2466,1.5748h-.5668ZM356.7356,783.7068h.6352c.1889,0,.349-.0558.4803-.168.1313-.1119.2107-.2623.2388-.4514.0316-.1925,0-.3454-.0944-.4593-.0945-.1136-.2362-.1706-.4252-.1706h-.6352l-.1995,1.2493ZM360.1316,785.8377c-.385,0-.6736-.0951-.8661-.2859-.1924-.1908-.2641-.4505-.2151-.7794h.5668c-.028.1748.0105.3121.1155.4121.1051.0997.266.1495.483.1495.2029,0,.3701-.049.5012-.1469.1313-.098.2109-.2327.2389-.4044.0209-.1504.0007-.2788-.0604-.3856-.0614-.1068-.1583-.1811-.2913-.2233l-.4566-.1364c-.266-.0803-.4619-.217-.5879-.4095-.126-.1922-.1697-.4197-.1313-.6823.035-.2099.1121-.3935.2309-.551s.2729-.2799.4619-.3673.4024-.1313.6404-.1313c.3498,0,.6158.0954.7978.2859.182.1908.2485.4437.1995.7586h-.5668c.0279-.168-.0027-.3001-.092-.3964-.0891-.0963-.2301-.1444-.4225-.1444-.1889,0-.343.0447-.4619.1338-.119.0894-.1889.2144-.21.3753-.0245.1506-.007.2791.0525.3859s.1575.1811.2939.223l.4672.1469c.2624.0806.4558.2173.5801.4095.1242.1925.1653.4217.1233.6877-.035.217-.1155.4058-.2415.5667-.1259.1612-.2878.2862-.4855.3753-.1976.0894-.419.1338-.6639.1338ZM363.2651,785.8377c-.3568,0-.6228-.1005-.7978-.3019-.175-.201-.2345-.473-.1784-.8161l.2677-1.7006c.056-.3429.2029-.6148.4408-.8161.2379-.201.5355-.3019.8923-.3019s.6228.1.7979.2993c.1748.1993.2361.4707.1837.8136l-.2677,1.7057c-.0561.3431-.2039.6151-.4435.8161-.2398.2013-.5381.3019-.895.3019ZM363.3439,785.3339c.1925,0,.3483-.0524.4672-.1575.119-.1051.1942-.2571.2257-.4568l.2678-1.7006c.0315-.1993.0051-.3517-.0787-.4565-.084-.1051-.2223-.1575-.4148-.1575s-.3473.0524-.4645.1575c-.1173.1048-.1916.2571-.2231.4565l-.2677,1.7006c-.0315.1996-.0053.3517.0787.4568s.2204.1575.4094.1575ZM365.2754,785.7853l.6088-3.8315h.7086l.6194,3.186c.007-.098.0165-.217.0289-.3571.0121-.1398.0271-.2851.0446-.4354.0175-.1506.0367-.2888.0577-.4146l.315-1.9788h.525l-.609,3.8315h-.7085l-.6141-3.186c-.0071.0945-.0167.209-.0289.3437s-.0272.2757-.0446.4226c-.0177.1469-.0367.2833-.0578.4095l-.315,2.0102h-.5301ZM368.2252,785.7853l1.5851-3.8315h.7454l.3726,3.8315h-.5616l-.0735-.9711h-1.0865l-.3884.9711h-.5932ZM369.3852,784.3418h.8714l-.0893-1.1023c-.0175-.1959-.0298-.3654-.0367-.5089-.0071-.1435-.0105-.2432-.0105-.2993-.0175.0561-.0517.1558-.1024.2993s-.1146.3112-.1915.5038l-.441,1.1075ZM371.7208,785.7853l.6088-3.8315h.567l-.525,3.3118h1.6744l-.0787.5197h-2.2465ZM376.6785,785.8377c-.3673,0-.6342-.1005-.8003-.3019-.1663-.201-.2214-.475-.1654-.8213l.4357-2.7608h.567l-.4357,2.7554c-.0315.1962-.008.35.0708.4619.0787.1122.2144.168.4068.168.1925,0,.3473-.0558.4646-.168.1172-.1119.1915-.2657.2231-.4619l.4355-2.7554h.567l-.4357,2.7608c-.056.35-.2003.6245-.433.8241-.2328.1993-.5328.299-.9003.299ZM379.8435,785.8377c-.385,0-.6736-.0951-.8661-.2859-.1924-.1908-.2641-.4505-.2151-.7794h.5668c-.028.1748.0105.3121.1155.4121.1051.0997.266.1495.483.1495.2029,0,.3701-.049.5012-.1469.1313-.098.2109-.2327.2389-.4044.0209-.1504.0007-.2788-.0604-.3856-.0614-.1068-.1583-.1811-.2913-.2233l-.4566-.1364c-.266-.0803-.4619-.217-.5879-.4095-.126-.1922-.1697-.4197-.1313-.6823.035-.2099.1121-.3935.2309-.551s.2729-.2799.4619-.3673.4024-.1313.6404-.1313c.3498,0,.6158.0954.7978.2859.182.1908.2485.4437.1995.7586h-.5668c.0279-.168-.0027-.3001-.092-.3964-.0891-.0963-.2301-.1444-.4225-.1444-.1889,0-.343.0447-.4619.1338-.119.0894-.1889.2144-.21.3753-.0245.1506-.007.2791.0525.3859s.1575.1811.2939.223l.4672.1469c.2624.0806.4558.2173.5801.4095.1242.1925.1653.4217.1233.6877-.035.217-.1155.4058-.2415.5667-.1259.1612-.2878.2862-.4855.3753-.1976.0894-.419.1338-.6639.1338ZM381.9062,785.7853l.6088-3.8315h2.2518l-.0787.5038h-1.6954l-.1731,1.0867h1.5115l-.0787.4986h-1.5115l-.1942,1.2387h1.6901l-.0787.5038h-2.2518ZM386.9426,785.8377c-.3568,0-.6228-.1005-.7978-.3019-.175-.201-.2345-.473-.1784-.8161l.2677-1.7006c.056-.3429.2029-.6148.4408-.8161.2379-.201.5355-.3019.8923-.3019s.6228.1.7979.2993c.1748.1993.2361.4707.1837.8136l-.2677,1.7057c-.0561.3431-.2039.6151-.4435.8161-.2398.2013-.5381.3019-.895.3019ZM387.0213,785.3339c.1925,0,.3483-.0524.4672-.1575.119-.1051.1942-.2571.2257-.4568l.2678-1.7006c.0315-.1993.0051-.3517-.0787-.4565-.084-.1051-.2223-.1575-.4148-.1575s-.3473.0524-.4645.1575c-.1173.1048-.1916.2571-.2231.4565l-.2677,1.7006c-.0315.1996-.0053.3517.0787.4568s.2204.1575.4094.1575ZM388.9529,785.7853l.6088-3.8315h.7086l.6194,3.186c.007-.098.0165-.217.0289-.3571.0121-.1398.0271-.2851.0446-.4354.0175-.1506.0367-.2888.0577-.4146l.315-1.9788h.525l-.609,3.8315h-.7085l-.6141-3.186c-.0071.0945-.0167.209-.0289.3437s-.0272.2757-.0446.4226c-.0177.1469-.0367.2833-.0578.4095l-.315,2.0102h-.5301ZM392.249,785.7853l.6088-3.8315h.567l-.525,3.3118h1.6744l-.0787.5197h-2.2465ZM396.1174,785.7853l.2204-1.4119-.7506-2.4197h.5774l.4462,1.4486c.0279.0945.0498.1837.0656.2677.0157.084.0253.1469.0288.1888.0175-.0419.0464-.1048.0867-.1888.0402-.084.0883-.1731.1442-.2677l.8976-1.4486h.5984l-1.5275,2.4197-.2204,1.4119h-.5668ZM399.217,785.7853l.6088-3.8315h.7086l.6192,3.186c.0071-.098.0165-.217.029-.3571.012-.1398.0271-.2851.0444-.4354.0177-.1506.037-.2888.0578-.4146l.315-1.9788h.5248l-.6088,3.8315h-.7085l-.6141-3.186c-.0071.0945-.0167.209-.0289.3437s-.0272.2757-.0446.4226c-.0177.1469-.0367.2833-.0578.4095l-.315,2.0102h-.5301ZM403.5053,785.8377c-.3571,0-.6231-.1005-.7979-.3019-.1751-.201-.2344-.473-.1785-.8161l.2677-1.7006c.0561-.3429.203-.6148.4411-.8161.2378-.201.5354-.3019.8922-.3019.3571,0,.6228.1.7979.2993.1748.1993.2361.4707.1837.8136l-.2677,1.7057c-.0561.3431-.2039.6151-.4437.8161-.2395.2013-.5379.3019-.8947.3019ZM403.5839,785.3339c.1925,0,.3483-.0524.4673-.1575.1187-.1051.1942-.2571.2255-.4568l.2677-1.7006c.0316-.1993.0054-.3517-.0786-.4565-.084-.1051-.2224-.1575-.4146-.1575-.1925,0-.3474.0524-.4647.1575-.117.1048-.1914.2571-.223.4565l-.2677,1.7006c-.0316.1996-.0051.3517.0789.4568.0837.1051.2204.1575.4092.1575ZM406.3814,785.7853l.5248-3.3121h-1.0234l.084-.5194h2.6193l-.084.5194h-1.0289l-.5248,3.3121h-.567ZM409.5178,785.7853l.6088-3.8315h2.32l-.084.5194h-1.7636l-.1837,1.1445h1.6272l-.084.5248h-1.6166l-.2571,1.6428h-.567ZM413.7694,785.8377c-.3571,0-.6231-.1005-.7979-.3019-.1751-.201-.2344-.473-.1785-.8161l.2677-1.7006c.0561-.3429.203-.6148.4411-.8161.2378-.201.5354-.3019.8922-.3019.3571,0,.6228.1.7979.2993.1748.1993.2361.4707.1837.8136l-.2677,1.7057c-.0561.3431-.2039.6151-.4437.8161-.2395.2013-.5379.3019-.8947.3019ZM413.848,785.3339c.1925,0,.3483-.0524.4673-.1575.1187-.1051.1942-.2571.2255-.4568l.2677-1.7006c.0316-.1993.0054-.3517-.0786-.4565-.084-.1051-.2224-.1575-.4146-.1575-.1925,0-.3474.0524-.4647.1575-.117.1048-.1914.2571-.223.4565l-.2677,1.7006c-.0316.1996-.0051.3517.0789.4568.0837.1051.2204.1575.4092.1575ZM415.7952,785.7853l.6088-3.8315h1.202c.2381,0,.4391.0464.6037.139.1643.0928.2833.223.3568.391s.0911.3656.0527.5932c-.0387.2591-.1401.4838-.3044.6746-.1646.1905-.3659.3209-.6037.391l.5354,1.6428h-.6194l-.4776-1.5748h-.5408l-.2466,1.5748h-.567ZM416.6876,783.7068h.635c.1891,0,.3491-.0558.4804-.168.131-.1119.2107-.2623.2386-.4514.0316-.1925,0-.3454-.0945-.4593-.0943-.1136-.2361-.1706-.4252-.1706h-.635l-.1993,1.2493ZM420.905,785.8377c-.3602,0-.6308-.1005-.8107-.3019-.1803-.201-.2423-.473-.1865-.8161l.2677-1.7006c.0561-.3463.2056-.6194.4488-.8187s.545-.2993.9056-.2993c.3568,0,.6253.1008.8056.3019.1803.2013.2423.4733.1865.8161h-.567c.0313-.1993.0026-.3517-.0866-.4565-.0894-.1051-.2284-.1575-.4175-.1575-.1925,0-.3508.0524-.475.1575-.1242.1048-.2019.2554-.2335.4514l-.2677,1.7057c-.0316.1996-.0026.3517.0866.4568.0894.1051.2301.1575.4226.1575s.35-.0524.4724-.1575.1993-.2571.2309-.4568h.5667c-.0347.2275-.1145.4252-.2386.5932s-.2808.2976-.4699.3884c-.1888.0908-.4024.1364-.6404.1364ZM424.0335,785.8377c-.3571,0-.6231-.1005-.7979-.3019-.1751-.201-.2344-.473-.1785-.8161l.2677-1.7006c.0561-.3429.203-.6148.4411-.8161.2378-.201.5354-.3019.8922-.3019.3571,0,.6228.1.7979.2993.1748.1993.2361.4707.1837.8136l-.2677,1.7057c-.0561.3431-.2039.6151-.4437.8161-.2395.2013-.5379.3019-.8947.3019ZM424.1121,785.3339c.1925,0,.3483-.0524.4673-.1575.1187-.1051.1942-.2571.2255-.4568l.2677-1.7006c.0316-.1993.0054-.3517-.0786-.4565-.084-.1051-.2224-.1575-.4146-.1575-.1925,0-.3474.0524-.4647.1575-.117.1048-.1914.2571-.223.4565l-.2677,1.7006c-.0316.1996-.0051.3517.0789.4568.0837.1051.2204.1575.4092.1575ZM425.9653,785.7853l.6088-3.8315h.6874l.1837,1.2282c.0211.119.0367.2301.0473.3332.0105.1034.0194.1828.0262.2389.0177-.0561.0473-.1364.0894-.2415.0419-.1051.0908-.217.1469-.336l.5667-1.2228h.7088l-.6088,3.8315h-.5354l.2045-1.2911c.0245-.168.0578-.3525.1-.5539.0419-.201.0874-.4041.1364-.6088s.0963-.3998.1418-.5852c.0453-.1854.0874-.3483.1259-.4881l-.8554,1.8632h-.5513l-.2833-1.8632c-.0037.1364-.0105.2947-.0211.475s-.0236.3719-.0393.5747c-.0157.203-.035.4069-.0578.6114-.0228.2047-.0481.3964-.076.5749l-.2047,1.2911h-.5405ZM429.1145,785.7853l.6088-3.8315h.6874l.1837,1.2282c.0211.119.0367.2301.0473.3332.0105.1034.0194.1828.0262.2389.0177-.0561.0473-.1364.0894-.2415.0419-.1051.0908-.217.1469-.336l.5667-1.2228h.7088l-.6088,3.8315h-.5354l.2045-1.2911c.0245-.168.0578-.3525.1-.5539.0419-.201.0874-.4041.1364-.6088s.0963-.3998.1418-.5852c.0453-.1854.0874-.3483.1259-.4881l-.8554,1.8632h-.5513l-.2833-1.8632c-.0037.1364-.0105.2947-.0211.475s-.0236.3719-.0393.5747c-.0157.203-.035.4069-.0578.6114-.0228.2047-.0481.3964-.076.5749l-.2047,1.2911h-.5405ZM432.4107,785.7853l.6088-3.8315h2.2516l-.0786.5038h-1.6955l-.1731,1.0867h1.5115l-.0786.4986h-1.5118l-.1942,1.2387h1.6901l-.0786.5038h-2.2516ZM435.5073,785.7853l.6088-3.8315h1.202c.2381,0,.4391.0464.6037.139.1643.0928.2833.223.3568.391s.0911.3656.0527.5932c-.0387.2591-.1401.4838-.3044.6746-.1646.1905-.3659.3209-.6037.391l.5354,1.6428h-.6194l-.4776-1.5748h-.5408l-.2466,1.5748h-.567ZM436.3997,783.7068h.635c.1891,0,.3491-.0558.4804-.168.131-.1119.2107-.2623.2386-.4514.0316-.1925,0-.3454-.0945-.4593-.0943-.1136-.2361-.1706-.4252-.1706h-.635l-.1993,1.2493ZM439.8007,785.8377c-.3602,0-.6308-.1005-.8107-.3019-.1803-.201-.2423-.473-.1865-.8161l.2677-1.7006c.0561-.3463.2056-.6194.4488-.8187s.545-.2993.9056-.2993c.3568,0,.6253.1008.8056.3019.1803.2013.2423.4733.1865.8161h-.567c.0313-.1993.0026-.3517-.0866-.4565-.0894-.1051-.2284-.1575-.4175-.1575-.1925,0-.3508.0524-.475.1575-.1242.1048-.2019.2554-.2335.4514l-.2677,1.7057c-.0316.1996-.0026.3517.0866.4568.0894.1051.2301.1575.4226.1575s.35-.0524.4724-.1575.1993-.2571.2309-.4568h.5667c-.0347.2275-.1145.4252-.2386.5932s-.2808.2976-.4699.3884c-.1888.0908-.4024.1364-.6404.1364ZM441.8792,785.7853l.0789-.5038h.7768l.4459-2.824h-.7766l.0837-.5038h2.1258l-.084.5038h-.7766l-.4462,2.824h.7768l-.0789.5038h-2.1258ZM444.7399,785.7853l1.585-3.8315h.7452l.3728,3.8315h-.5616l-.0735-.9711h-1.0867l-.3884.9711h-.5929ZM445.8998,784.3418h.8714l-.0894-1.1023c-.0174-.1959-.0296-.3654-.0367-.5089-.0068-.1435-.0103-.2432-.0103-.2993-.0177.0561-.0518.1558-.1025.2993s-.1148.3112-.1916.5038l-.4408,1.1075ZM448.2354,785.7853l.6088-3.8315h.567l-.5248,3.3118h1.6741l-.0786.5197h-2.2465ZM453.1932,785.8377c-.3676,0-.6345-.1005-.8005-.3019-.1663-.201-.2213-.475-.1654-.8213l.4357-2.7608h.567l-.4357,2.7554c-.0316.1962-.008.35.0709.4619.0786.1122.2141.168.4066.168s.3474-.0558.4645-.168c.1173-.1119.1916-.2657.2233-.4619l.4357-2.7554h.5667l-.4357,2.7608c-.0558.35-.2002.6245-.4328.8241-.2329.1993-.5328.299-.9001.299ZM456.3581,785.8377c-.385,0-.6738-.0951-.866-.2859-.1925-.1908-.2643-.4505-.2153-.7794h.567c-.0282.1748.0105.3121.1153.4121.1051.0997.266.1495.483.1495.2028,0,.3699-.049.5012-.1469s.2107-.2327.2389-.4044c.0211-.1504.0009-.2788-.0604-.3856s-.1583-.1811-.2913-.2233l-.4568-.1364c-.266-.0803-.4619-.217-.5878-.4095-.1259-.1922-.1697-.4197-.1313-.6823.035-.2099.1119-.3935.2309-.551s.2731-.2799.4619-.3673c.1891-.0874.4024-.1313.6404-.1313.3497,0,.6157.0954.7979.2859.1817.1908.2483.4437.1993.7586h-.567c.0279-.168-.0026-.3001-.0917-.3964-.0894-.0963-.2301-.1444-.4226-.1444-.1891,0-.3429.0447-.4619.1338-.119.0894-.1891.2144-.2099.3753-.0245.1506-.0071.2791.0524.3859s.1575.1811.2939.223l.4673.1469c.2623.0806.4556.2173.5798.4095.1242.1925.1654.4217.1236.6877-.035.217-.1156.4058-.2415.5667-.1262.1612-.2879.2862-.4855.3753-.1979.0894-.4192.1338-.6641.1338ZM458.4209,785.7853l.6088-3.8315h2.2516l-.0786.5038h-1.6955l-.1731,1.0867h1.5115l-.0786.4986h-1.5118l-.1942,1.2387h1.6901l-.0786.5038h-2.2516Z" style="fill: #ccc;"/>
  <g>
    <path d="M750,400.0016c0,193.298-156.7004,349.9984-350,349.9984S50,593.2996,50,400.0016,206.702,50,400,50s350,156.7036,350,350.0016" style="fill: #38284f;"/>
    <path d="M740.5407,400c0,188.076-152.4647,340.5422-340.5407,340.5422S59.4578,588.076,59.4578,400,211.9256,59.4578,400,59.4578s340.5407,152.4662,340.5407,340.5422" style="fill: #fff;"/>
    <path d="M731.0798,400c0,182.8493-148.2304,331.0798-331.0798,331.0798S68.9187,582.8509,68.9187,400,217.1476,68.9202,400,68.9202s331.0798,148.2289,331.0798,331.0798" style="fill: #38284f;"/>
    <path d="M612.9151,399.9985c0,117.5891-95.3244,212.9182-212.9136,212.9182s-212.9198-95.3291-212.9198-212.9182,95.3291-212.9167,212.9198-212.9167,212.9136,95.3244,212.9136,212.9151" style="fill: #fff;"/>
    <path d="M216.4662,332.772v134.4731l21.3422,45.8267,44.6755,45.8267V241.1218l-44.6756,45.8236-21.3422,45.8251M316.5958,579.7709l66.0178,18.0118V202.236l-66.0178,18.0071v359.5278ZM416.7238,597.834l66.0178-17.7535V219.9382l-66.0178-17.7551v395.6509ZM582.868,469.2596v-138.502l-21.3422-45.0847-44.6756-45.0862v318.8453l44.6756-45.0862,21.3422-45.0862" style="fill: #695188;"/>
    <path d="M400.0032,196.622c-112.3269,0-203.3808,91.055-203.3808,203.3785s91.0539,203.3785,203.3808,203.3785,203.3762-91.0551,203.3762-203.3785-91.0562-203.3785-203.3762-203.3785ZM400.0032,206.0802c107.0944,0,193.918,86.8201,193.918,193.918s-86.8236,193.9226-193.918,193.9226-193.9226-86.8247-193.9226-193.9226,86.8224-193.918,193.9226-193.918h0Z" style="fill: #38284f;"/>
    <path d="M104.1427,385.5365h-7.28v-7.7187h16.4002v46.4878h-9.1202v-38.7691ZM149.0531,393.5196c0-4.8222-3.1578-8.4202-8.4187-8.4202-5.2656,0-8.4233,3.598-8.4233,8.4202s3.2464,8.596,8.5089,8.596c5.614,0,8.3331-3.5964,8.3331-8.596M142.036,408.6909c-.7918.3531-2.1031.5273-2.8964.5273-9.0347,0-16.3084-6.3156-16.3084-15.6987,0-10.262,8.0687-16.4018,17.8033-16.4018,9.6444,0,17.7131,5.9671,17.7131,16.2244,0,4.8253-2.2758,9.2976-6.4042,15.2647l-10.8749,15.6987h-9.9944l10.962-15.6147ZM633.2338,412.124l7.7015-3.9356c2.0129,4.4598,5.516,7.5273,10.8562,7.5273,5.5129,0,9.016-3.0676,9.016-8.8433s-4.5547-8.4902-9.8031-8.4902c-3.3289,0-5.5176.5289-7.1789,1.0516l-.7-1.3144,11.3789-14.0062h-17.5933v-7.7062h32.5593v.4402l-12.4274,15.4949c7.0016.7,13.1289,6.1304,13.1289,14.7078,0,9.1902-6.0356,16.5449-18.3805,16.5449-10.0675,0-16.282-6.2176-18.5578-11.4691M697.4067,384.1131h-22.2351v-7.7062h35.1898v.4402l-21.7109,45.9604h-9.6273l18.3835-38.6944ZM218.1213,177.0111l-12.7742,12.2142,29.9538,31.332-7.7918,7.4464-29.9538-31.3336-12.7711,12.2142-6.7371-7.0467,33.3371-31.8718,6.7371,7.0451ZM268.3471,184.6256c4.1222-2.52,6.7044-6.0464,7.7358-10.5778,1.1045-4.5764.3375-9.0238-2.2664-13.2782-2.6025-4.2591-6.2098-6.9751-10.822-8.1464-4.5515-1.2118-8.8636-.5242-12.9889,1.9958-4.116,2.52-6.6998,6.0433-7.7607,10.6851-.9956,4.5982-.2271,9.0502,2.38,13.3093,2.5978,4.2576,6.2067,6.9704,10.7147,8.1153,4.5733,1.1044,8.8869.4169,13.0076-2.1031M286.3573,176.1229c-1.8247,7.3391-6.0293,13.0651-12.7198,17.1531-6.692,4.088-13.706,5.222-21.1385,3.5436-7.4044-1.7889-13.1304-5.9936-17.1344-12.5471-4.0522-6.6236-5.1831-13.6391-3.3911-21.0436,1.8511-7.4464,6.0573-13.1724,12.7478-17.2604,6.6904-4.0911,13.7044-5.2189,21.1089-3.4347,7.4698,1.7453,13.1958,5.9516,17.248,12.5751,4.004,6.5536,5.1349,13.5691,3.2791,21.0155M330.938,110.578l9.0393,27.8849c2.296,7.0855,2.1964,13.4462-.3796,19.1115-2.5807,5.6669-7.0685,9.5387-13.622,11.6636-6.7107,2.1778-12.768,1.7267-18.2544-1.3285-5.4896-3.0489-9.38-8.1153-11.676-15.1993l-9.044-27.8833,10.248-3.3258,9.0409,27.8849c2.7393,8.4389,9.2742,12.404,16.5076,10.0582,6.8553-2.2229,9.6678-9.2182,6.9315-17.6571l-9.0393-27.8849,10.248-3.3242ZM394.3362,145.7476l1.0267,9.6911-37.9696,4.0242-5.6-52.78,10.7178-1.1355,4.5671,43.0936,27.258-2.8933ZM428.2893,148.6813c4.8067.5133,9.0004-.714,12.5844-3.6773,3.6602-2.9555,5.7602-6.9533,6.2907-11.9156.5273-4.9638-.6813-9.3162-3.6276-13.0558-2.8669-3.7349-6.7076-5.8178-11.5158-6.328-4.7989-.5133-8.9942.7109-12.6684,3.7442-3.5902,3.0442-5.6933,7.042-6.2207,12.0042-.5289,4.9653.6813,9.3178,3.5545,12.9718,2.9555,3.6602,6.8009,5.7431,11.6045,6.2564M447.7556,152.9093c-5.9173,4.7055-12.7415,6.6889-20.5411,5.8536-7.798-.8307-14.0482-4.2078-18.9233-10.0676-4.7864-5.9267-6.7667-12.7524-5.95-20.3933.8244-7.7187,4.2-13.9736,10.1267-18.76,6.0107-4.7756,12.8333-6.7527,20.6313-5.922,7.798.8338,14.0513,4.2078,18.8378,10.1376,4.8642,5.9344,6.8476,12.7587,6.0231,20.4804-.8182,7.6424-4.1953,13.8927-10.2044,18.6713M523.0056,128.1262l-9.8218,27.6127c-2.492,7.0155-6.4493,11.998-11.942,14.9209-5.4973,2.9198-11.4178,3.2527-17.9075.9442-6.6438-2.3629-11.1689-6.4104-13.6624-12.1738-2.4889-5.7602-2.4889-12.1489.0062-19.1629l9.8218-27.6111,10.1484,3.6089-9.8187,27.6111c-2.9727,8.3595-.21,15.4778,6.9533,18.0258,6.7931,2.4142,13.2798-1.4156,16.2524-9.7705l9.8218-27.6158,10.1485,3.6105ZM568.7996,157.758c1.7656,4.3618,1.8185,8.7764.2193,13.2875l-10.3133-3.8033c2.0284-4.6153.042-9.6756-4.5298-12.5176-4.3711-2.7207-8.8355-2.1358-10.8049,1.0236-1.5493,2.4889-.9909,4.8891,1.6613,7.3749l8.4778,7.9769c6.4587,6.2564,8.1138,13.3513,3.8064,20.2798-2.7222,4.3711-6.4711,6.7978-11.3555,7.3049-4.886.5071-9.9882-.8944-15.3689-4.242-4.9747-3.0924-8.5011-6.8709-10.6446-11.3789-2.0347-4.5267-1.9989-9.0813.1369-13.72l10.8298,4.0351c-1.9087,5.6202-.0513,10.1313,5.5316,13.6049,5.1131,3.178,9.5122,2.5573,11.564-.7404,1.6722-2.6895,1.1356-4.9824-2.1964-8.1729l-8.4218-7.7591c-6.8242-6.5738-8.1169-13.3467-3.808-20.2751,2.5527-4.1067,6.1507-6.4384,10.7924-7.0016,4.6822-.6347,9.6475.6798,14.896,3.948,4.5749,2.842,7.7622,6.4136,9.5278,10.7753M592.2014,231.0807l-6.7169,7.0576-29.2102-27.7916,36.5851-38.4502,29.0951,27.6842-6.7169,7.0591-21.2909-20.2596-8.2429,8.6644,19.6295,18.6775-6.608,6.9409-19.6311-18.6713-8.2974,8.7204,21.4045,20.3684ZM180.5531,529.4969l-9.5076,6.1071,12.1116,18.8456-7.1291,4.578-12.11-18.8378-15.0733,9.6849-5.0696-7.882,38.8375-24.962,18.6309,28.98-7.1307,4.5842-13.5598-21.098ZM190.9193,592.1905c2.87,3.0707,6.328,4.6449,10.3724,4.7258,4.0911.1369,7.7482-1.3067,10.9153-4.2684,3.1671-2.9711,4.8456-6.5209,5.0291-10.6587.2333-4.0849-1.1107-7.6393-3.9884-10.7069-2.87-3.0691-6.3264-4.6418-10.4642-4.732-4.0942-.0327-7.7529,1.4016-10.92,4.3711-3.1656,2.968-4.844,6.5178-5.0244,10.556-.1369,4.0911,1.2102,7.6424,4.0802,10.7131M201.3353,606.0333c-6.5738-.2644-12.1909-2.8373-16.8529-7.8135-4.662-4.9856-6.8569-10.7582-6.7371-17.3833.2178-6.6204,2.7922-12.2407,7.672-16.8047,4.9249-4.6153,10.7022-6.8118,17.3227-6.5987,6.6671.2707,12.2873,2.8436,16.9493,7.826,4.662,4.9762,6.86,10.7489,6.6407,17.374-.1711,6.6733-2.744,12.2873-7.672,16.9027-4.8798,4.5687-10.6556,6.7667-17.3227,6.4976M236.3198,631.5585c3.444,2.4095,7.1556,3.234,11.1222,2.4795,4.0289-.7109,7.3049-2.87,9.7938-6.4307,2.4858-3.5545,3.3911-7.3749,2.716-11.4567-.616-4.0476-2.6662-7.2458-6.1087-9.6553-3.4409-2.4018-7.1524-3.2324-11.2156-2.4656-4.0164.8104-7.2893,2.9773-9.7751,6.5271-2.4858,3.5545-3.3942,7.3796-2.7378,11.3665.7124,4.0289,2.7642,7.2287,6.2051,9.6351M249.3647,642.9482c-6.482,1.0982-12.5067-.2567-18.0973-4.1689-5.586-3.9044-8.9273-9.0969-10.178-15.6038-1.1558-6.524.2022-12.5487,4.0304-18.0242,3.8687-5.53,9.0611-8.8744,15.5804-10.0287,6.58-1.1138,12.6078.2442,18.1984,4.1487,5.5829,3.9075,8.9258,9.1062,10.08,15.6271,1.2133,6.5613-.1462,12.5844-4.0133,18.1176-3.8267,5.4756-9.0207,8.82-15.6022,9.9322M311.212,638.2489l-13.9362-6.4571-15.8371,34.1818-8.4996-3.9402,15.8402-34.1802-13.9315-6.4555,3.5607-7.6907,36.3642,16.856-3.5607,7.686ZM325.5184,641.9185l-2.9742,10.8951,11.2933,3.08c3.654.9987,6.594-.6222,7.5382-4.0771.8135-2.9929-.9784-5.8364-3.9667-6.6516l-11.8906-3.2464ZM317.5758,671.0151l11.956,3.2636c3.9853,1.0842,6.6951-.4573,7.616-3.8469.9271-3.388-.8182-6.1444-4.2716-7.0887l-12.2904-3.3538-3.01,11.0258ZM341.2016,661.3302c3.9091,1.6427,6.5582,6.5753,4.9467,12.488-2.0502,7.5056-8.1558,11.0491-17.724,8.4404l-21.9847-6.0044,12.1473-44.5076,21.9209,5.9842c7.9722,2.1747,11.8098,8.5089,9.7813,15.9444-.7078,2.5931-1.9351,4.4675-3.7847,5.7493-1.848,1.2787-3.5607,1.8091-5.2282,1.6427l-.0746.2629ZM384.3045,672.6438l-5.222-16.9867-8.1636,15.82,13.3855,1.1667ZM400.28,692.4367l-10.0847-.8773-3.1267-10.1656-20.3171-1.7718-4.9062,9.4609-10.0878-.8804,23.9167-44.2509,8.7173.7622,15.8885,47.7229ZM443.0982,680.5304l.6969,8.4435-33.0805,2.7362-3.8002-45.9869,9.3333-.7731,3.1033,37.5418,23.7471-1.9616ZM486.2975,670.8705l1.9787,8.2398-32.27,7.7482-10.7753-44.8576,9.1078-2.1887,8.7967,36.6256,23.1622-5.5673ZM539.7262,635.8502l8.9569-2.436c1.6224,5.6591,1.3378,10.8951-.9536,15.6847-2.2929,4.7787-5.9111,8.4622-11.0133,11.0398-6.09,3.0769-12.2469,3.5622-18.5111,1.5587-6.2595-2.0067-10.9309-6.0573-14.0047-12.1489-3.0442-6.02-3.5311-12.18-1.4311-18.41,2.0689-6.2938,6.1195-10.962,12.2065-14.0389,5.0431-2.5511,10.1173-3.3382,15.33-2.3427,5.18.9333,9.4733,3.626,12.9687,7.9551l-6.9611,6.3778c-4.9264-6.0838-11.3991-7.1322-17.3631-4.1222-3.7505,1.8978-6.2378,4.7724-7.4185,8.6909-1.218,3.8531-.8602,7.7684,1.092,11.6387,1.9584,3.8718,4.8953,6.4789,8.7531,7.8493,3.9169,1.3425,7.7047,1.0484,11.3929-.8135,6.0869-3.0769,8.9631-8.8511,6.9564-16.4827M589.2022,614.4193l5.0929,6.7667-26.5191,19.964-27.7418-36.8667,7.4822-5.6311,22.652,30.0969,19.0338-14.3298ZM597.4669,552.4476l18.5111,17.5156c4.7025,4.4567,7.2784,9.3551,7.6689,14.7513.3905,5.3962-1.4249,10.2247-5.5424,14.5755-4.2155,4.4536-9.0269,6.6313-14.4869,6.5893-5.46-.0467-10.5389-2.2929-15.2444-6.7418l-18.5064-17.5202,6.4338-6.804,18.5142,17.5202c5.6031,5.2982,12.2376,5.6062,16.7813.8011,4.312-4.5531,3.5467-11.06-2.058-16.366l-18.508-17.5156,6.4369-6.8056ZM638.9022,559.6436l6.7729-10.3864c2.2587-3.4596,1.6147-6.51-1.3253-8.4311-2.9431-1.9242-6.1071-1.106-8.0656,1.8978l-6.958,10.6758,9.576,6.244ZM613.6291,543.164l9.464,6.1709,6.3964-9.8124c2.0689-3.1702,1.4218-6.4711-1.5773-8.4296-2.5931-1.6955-5.8567-.8571-7.5491,1.7391l-6.734,10.332ZM636.922,534.1729c2.7564-3.2169,8.2724-4.228,13.4089-.8804,6.5178,4.2513,8.0189,11.1533,2.6025,19.4631l-12.4538,19.0976-38.6634-25.2124,12.4164-19.0384c4.5189-6.9238,11.7242-8.6396,18.1844-4.4271,2.2524,1.4669,3.6634,3.2091,4.3182,5.3667.6534,2.1467.63,3.9433-.0404,5.4818l.2272.1493Z" style="fill: #fff;"/>
    <path d="M400.0005,215.5516c-66.0443,0-150.8951,9.3582-150.8951,9.3582v268.6164c-.2707,73.9044,116.928,37.6693,150.8951,100.4049,33.9656-62.7356,150.9106-26.5004,150.8935-100.4049V224.9098s-77.9411-9.3582-150.8935-9.3582" style="fill: #dab072;"/>
    <path d="M540.884,341.7242h-281.7671v-107.7907c23.436-2.3489,88.5422-8.3689,140.8851-8.3689,57.3409,0,118.5224,5.9158,140.882,8.302v107.8575Z" style="fill: #695188;"/>
    <path d="M540.8825,493.5309c.0063,30.2976-22.596,37.0689-62.5395,46.424-25.5531,5.9858-53.76,12.6373-73.3336,31.2387l.0265-46.3836c-3.2995.6573-6.6905.7137-10.01.1664l-.028,46.2311c-19.5845-18.6122-47.8302-25.2622-73.4113-31.2511-39.9684-9.3489-62.58-16.1171-62.4711-46.4287v-141.7936h136.0023l-.0622,118.2269c3.3173-.5612,6.7086-.5206,10.0115.1198l.0622-118.3467h135.7534v141.7967Z" style="fill: #de003c;"/>
    <path d="M369.9316,455.7449c0-.798.5475-1.4467,1.2258-1.442.6767,0,1.2211.6409,1.2211,1.442v3.2527h-2.4469v-3.2527ZM368.905,458.9976h-2.45v-3.2527c0-.798.5475-1.4467,1.2242-1.442.6782,0,1.2258.6409,1.2258,1.442v3.2527ZM365.9308,426.8909c0-1.6084,1.3751-3.5264,3.0831-3.5233,1.7064,0,3.0209,1.9818,3.0209,3.5933l.0622,5.8644h-6.1662v-5.9344ZM365.4237,458.9976h-2.4422v-3.2527c0-.798.5444-1.4467,1.2211-1.442.6767,0,1.2211.6409,1.2211,1.442v3.2527ZM361.9502,458.9976h-2.4469v-3.2527c0-.798.5444-1.4467,1.2227-1.442.6767,0,1.2242.6409,1.2242,1.442v3.2527ZM352.5391,432.8253v-5.9344c0-1.6084,1.3751-3.5264,3.0831-3.5233,1.7096,0,3.0178,1.9818,3.0178,3.5933l.0669,5.8644h-6.1678ZM358.4735,458.9976h-2.4469v-3.2527c0-.798.5444-1.4467,1.2211-1.442.6782,0,1.2258.6409,1.2258,1.442v3.2527ZM354.9953,458.9976h-2.4454v-3.2527c0-.798.5444-1.4467,1.2211-1.442.6767,0,1.2242.6409,1.2242,1.442v3.2527ZM351.5186,458.9976h-2.4469v-3.2527c0-.798.5444-1.4467,1.2211-1.442.6782,0,1.2258.6409,1.2258,1.442v3.2527ZM348.0404,458.9976h-2.4454v-3.2527c0-.798.5444-1.4467,1.2211-1.442.6782,0,1.2242.6409,1.2242,1.442v3.2527ZM344.5637,458.9976h-2.4454v-3.2527c0-.798.5444-1.4467,1.2211-1.442.6767,0,1.2242.6409,1.2242,1.442v3.2527ZM341.0871,458.9976h-2.4469v-3.2527c0-.798.5444-1.4467,1.2211-1.442.6782,0,1.2258.6409,1.2258,1.442v3.2527ZM337.6088,458.9976h-2.4454v-3.2527c0-.798.5475-1.4467,1.2242-1.442.6782,0,1.2211.6409,1.2211,1.442v3.2527ZM334.1322,458.9976h-2.4469v-3.2527c0-.798.5475-1.4467,1.2258-1.442.6767,0,1.2211.6409,1.2211,1.442v3.2527ZM336.7891,436.8729h-4.2949v-14.0793h4.2933l.0015,14.0793ZM331.2357,402.3925c0-1.6116,1.3751-3.5311,3.0831-3.5264,1.708,0,3.0178,1.9818,3.0178,3.5933l.0653,5.8644h-6.1648l-.0014-5.9313ZM330.6555,458.9991h-2.4469v-3.2542c0-.798.5475-1.4467,1.2242-1.442.6782,0,1.2227.6409,1.2227,1.442v3.2542ZM327.1773,458.9991h-2.4454v-3.2542c0-.798.5475-1.4467,1.2242-1.442.6782,0,1.2211.6409,1.2211,1.442v3.2542ZM317.8003,408.3238v-5.9313c0-1.6116,1.3751-3.5311,3.0862-3.5264,1.7064,0,3.0178,1.9818,3.0178,3.5933l.0669,5.8644h-6.171ZM323.7006,458.9976h-2.4469v-3.2527c0-.798.5475-1.4467,1.2258-1.442.6767,0,1.2211.6409,1.2211,1.442v3.2527ZM317.8875,422.9507h4.2917v14.0778h-4.2933l.0016-14.0778ZM320.2224,458.9976h-2.4454v-3.2527c0-.798.5475-1.4467,1.2242-1.442.6782,0,1.2211.6409,1.2211,1.442v3.2527ZM316.7457,458.9976h-2.4454v-3.2527c0-.798.546-1.4467,1.2242-1.442.6767,0,1.2211.6409,1.2211,1.442v3.2527ZM313.2722,458.9976h-2.4469v-3.2527c0-.798.5444-1.4467,1.2227-1.442.6767,0,1.2242.6409,1.2242,1.442v3.2527ZM309.7939,458.9976h-2.4484v-3.2527c0-.798.5475-1.4467,1.2242-1.442.6782,0,1.2242.6409,1.2242,1.442v3.2527ZM306.3204,458.9976h-2.4484v-3.2527c0-.798.5444-1.4467,1.2211-1.442.6767,0,1.2289.6409,1.2289,1.442l-.0015,3.2527ZM297.2205,432.8253v-5.9344c0-1.6084,1.3751-3.5264,3.0831-3.5233,1.7064,0,3.0178,1.9818,3.0178,3.5933l.0669,5.8644h-6.1678ZM302.8438,458.9976h-2.45v-3.2527c0-.798.5444-1.4467,1.2211-1.442.6782,0,1.2289.6409,1.2289,1.442v3.2527ZM299.3671,458.9976h-2.45v-3.2527c0-.798.5444-1.4467,1.2211-1.442.6782,0,1.2289.6409,1.2289,1.442v3.2527ZM295.8889,458.9976h-2.4484v-3.2527c0-.798.5444-1.4467,1.2211-1.442.6767,0,1.2289.6409,1.2289,1.442l-.0015,3.2527ZM292.4122,458.9976h-2.45v-3.2527c0-.798.5444-1.4467,1.2211-1.442.6782,0,1.2289.6409,1.2289,1.442v3.2527ZM288.934,458.9976h-2.4484v-3.2527c0-.798.5444-1.4467,1.2211-1.442.6767,0,1.2289.6409,1.2289,1.442l-.0015,3.2527ZM285.4573,458.9976h-2.45v-3.2527c0-.798.5444-1.4467,1.2258-1.442.6767,0,1.2242.6409,1.2242,1.442v3.2527ZM283.8255,426.8909c0-1.6084,1.3751-3.5264,3.0831-3.5233,1.7111,0,3.0209,1.9818,3.0209,3.5933l.0669,5.8644h-6.1709v-5.9344ZM281.9807,458.9976h-2.45v-3.2527c0-.798.5444-1.4467,1.2211-1.442.6813,0,1.2289.6409,1.2289,1.442v3.2527ZM373.41,455.7449c0-.798.5475-1.4467,1.2242-1.442.6782,0,1.2211.6409,1.2211,1.442v3.2527h-2.4454v-3.2527ZM372.4783,490.7371c.8307-3.4067,2.3723-6.6236,4.4255-9.4842v-76.7107h-4.2125v9.4578h-4.2108v-9.4578h-4.2078v9.4578h-4.2078v-9.4578h-4.2125v9.4578h-4.2078v-9.4578h-4.2108v40.2422h-4.2108v-70.9069h-3.5078v11.8642h-3.5078v-11.8658h-3.5063v11.8658h-3.5109v-11.8658h-3.5078v11.8658h-3.5109v-11.8658h-3.5031v11.8658h-3.5109v-11.8658h-3.5078v70.9069h-4.2108v-40.2407h-4.2078v9.4811h-4.2125v-9.4811h-4.2108v9.4811h-4.2047v-9.4811h-4.2108v9.4811h-4.2125v-9.4811h-4.2108v94.7427h38.4703l-.0404-21.2442c0-2.8171,1.2646-6.244,3.2978-8.9507,2.2524-2.9867,5.0088-4.6356,7.7622-4.6356h.0015c6.1973,0,10.8594,8.2398,10.8594,13.5862v21.2442h33.4289c-.1976-2.8544.0295-5.7431.7311-8.5478" style="fill: #fff;"/>
    <path d="M445.5863,437.7378h-22.4156v-.924h22.4156v.924ZM521.8832,436.8138v.924h-22.4156v-.924M521.8832,435.8898h-22.4156l11.2062-29.7547,11.2093,29.7547Z" style="fill: #fff;"/>
    <path d="M512.133,404.6791c.0022.805-.6486,1.4593-1.4535,1.4615s-1.4594-.6486-1.4616-1.4536v-.008c.0022-.805.6566-1.4558,1.4616-1.4536.8018.0022,1.4514.6517,1.4535,1.4536M473.9846,368.0007c-.0009.8063-.6552,1.4592-1.4615,1.4583-.8063-.0009-1.4592-.6552-1.4583-1.4615s.6552-1.4592,1.4615-1.4583c.8063.0009,1.4592.6552,1.4583,1.4615h0" style="fill: #fff;"/>
    <path d="M487.8772,390.3913l-30.5511-.0669,15.1978-20.8678,15.3534,20.9347ZM485.8255,445.6307h-4.3244v-10.5467c0-1.5291.9022-2.7673,2.0145-2.7673h.294c1.1138,0,2.016,1.2382,2.016,2.7673v10.5467ZM479.5099,445.6307h-5.9391v-10.5467c0-1.5291,1.2382-2.7673,2.7673-2.7673h.406c1.5291,0,2.7673,1.2382,2.7673,2.7673l-.0015,10.5467ZM471.5828,445.6307h-5.9422v-10.5467c0-1.5291,1.2398-2.7673,2.7689-2.7673h.406c1.5291,0,2.7673,1.2382,2.7673,2.7673v10.5467ZM463.6494,445.6307h-4.382v-10.5467c0-1.5291.9147-2.7673,2.0424-2.7673h.3002c1.1294,0,2.0393,1.2382,2.0393,2.7673v10.5467ZM457.2764,430.3645v17.22l30.5604-.0031v-17.1531l-30.5604-.0638Z" style="fill: #fff;"/>
    <path d="M469.3972,361.962h2.5153l-.014,6.0402h1.2584l.014-6.0402h2.5153l.0062-1.512h-2.52l.0109-3.0178h-1.2584l-.0094,3.0178h-2.5169l-.0015,1.512ZM508.255,398.5658h1.9367l-.0094,4.6496h.9676l.0094-4.6496h1.9382v-1.1604h-1.9351l.0062-2.3224h-.9676l-.0062,2.3224h-1.9351l-.0047,1.1604Z" style="fill: #fff; fill-rule: evenodd;"/>
    <path d="M445.5848,435.8898h-22.4156l11.2016-29.7547,11.214,29.7547Z" style="fill: #fff;"/>
    <path d="M435.833,404.6791c.0022.805-.6486,1.4593-1.4536,1.4615-.805.0022-1.4593-.6486-1.4615-1.4536v-.008c.0022-.805.6566-1.4558,1.4615-1.4536.8019.0022,1.4514.6517,1.4536,1.4536" style="fill: #fff;"/>
    <path d="M431.955,398.5658h1.9367l-.0155,4.6496h.9722l.0093-4.6496h1.9351l.0031-1.1604h-1.9351l.0062-2.3224h-.9707l-.0031,2.3224h-1.9398l.0015,1.1604Z" style="fill: #fff; fill-rule: evenodd;"/>
    <path d="M485.8674,427.328h-4.3244v-6.6578l2.1653-6.6578,2.1591,6.6578v6.6578ZM479.5503,427.328h-5.9375v-6.6578l2.9711-6.6578,2.9665,6.6578v6.6578ZM471.6217,427.328h-5.9375v-6.6578l2.9711-6.6578,2.9665,6.6578v6.6578ZM463.6915,427.328h-4.3805v-6.6578l2.1933-6.6578,2.1871,6.6578v6.6578ZM457.3183,411.8347v17.6089l30.5604.0622v-17.6089l-30.5604-.0622ZM485.8674,408.7267h-4.3244v-6.6578l2.1653-6.6578,2.1591,6.6578v6.6578ZM479.5503,408.7267h-5.9375v-6.6578l2.9711-6.6578,2.9665,6.6578v6.6578ZM471.6217,408.7267h-5.9375v-6.6578l2.9711-6.6578,2.9665,6.6578v6.6578ZM463.6915,408.7267h-4.3805v-6.6578l2.1933-6.6578,2.1871,6.6578v6.6578ZM457.3183,393.2318v17.6089l30.5604.0638v-17.6089l-30.5604-.0638ZM457.3199,391.3169h30.5574v.9878h-30.5574M519.7988,470.7327h-4.3525v-2.1762c-.0454-1.2019.8921-2.213,2.094-2.2584,1.2019-.0454,2.213.8921,2.2584,2.094.0021.0548.0021.1096,0,.1644v2.1762ZM513.3588,470.7327h-4.3525v-2.1762c-.0557-1.2015.8731-2.2206,2.0746-2.2763,1.2015-.0557,2.2206.8731,2.2763,2.0746.0031.0672.0031.1345,0,.2017l.0016,2.1762ZM506.9172,470.7327h-4.3555v-2.1762c-.0036-1.2028.9686-2.1806,2.1714-2.1842s2.1806.9686,2.1842,2.1714v2.189ZM500.4725,470.7327h-4.3509v-2.1762c-.0557-1.2015.8731-2.2206,2.0746-2.2763,1.2015-.0557,2.2206.8731,2.2763,2.0746.0031.0672.0031.1345,0,.2017v2.1762ZM494.0294,470.7327h-4.3478v-2.1762c0-1.2015.9731-2.1761,2.1747-2.1778,1.1978,0,2.1731.9738,2.1731,2.1778v2.1762ZM487.5925,470.7327h-4.3555v-2.1762c-.0036-1.2028.9686-2.1806,2.1714-2.1842s2.1806.9686,2.1842,2.1714v2.189ZM481.5414,461.2547v-7.8027c0-1.5276.9053-2.7658,2.016-2.7658h.2971c1.1106,0,2.0129,1.2382,2.0129,2.7658v7.8027h-4.326ZM481.1479,470.7327h-4.3555v-2.1762c-.0036-1.2028.9686-2.1806,2.1714-2.1842s2.1806.9686,2.1842,2.1714v2.189ZM474.7048,470.7327h-4.3493v-2.1762c0-1.204.9754-2.1778,2.1731-2.1778,1.2021.0009,2.1762.9756,2.1762,2.1778v2.1762ZM468.2647,470.7327h-4.3525v-2.1762c-.0557-1.2015.8731-2.2206,2.0746-2.2763,1.2015-.0557,2.2206.8731,2.2763,2.0746.0031.0672.0031.1345,0,.2017l.0016,2.1762ZM463.6945,461.2547h-4.3835v-7.8027c0-1.5276.9131-2.7658,2.0409-2.7658h.3002c1.1294,0,2.0424,1.2382,2.0424,2.7658v7.8027ZM461.8232,470.7327h-4.3555v-2.1762c-.0036-1.2028.9686-2.1806,2.1714-2.1842s2.1806.9686,2.1842,2.1714v2.189ZM465.6841,453.452c0-1.5276,1.2382-2.7658,2.7658-2.7658h.4075c1.5291,0,2.7673,1.2382,2.7673,2.7658v7.8027h-5.9407v-7.8027ZM473.6127,453.452c0-1.5276,1.2382-2.7658,2.7673-2.7658h.406c1.5245,0,2.7642,1.2382,2.7642,2.7658v7.8027h-5.9375v-7.8027ZM455.3785,470.7327h-4.3478v-2.1762c-.0319-1.2006.9155-2.1998,2.1161-2.2317,1.2006-.0319,2.1997.9155,2.2316,2.1161.001.0385.001.077,0,.1155v2.1762ZM448.9385,470.7327h-4.3509v-2.1762c-.0557-1.2015.8731-2.2206,2.0746-2.2763,1.2015-.0557,2.2206.8731,2.2763,2.0746.0031.0672.0031.1345,0,.2017v2.1762ZM442.4985,470.7327h-4.3556v-2.1762c0-1.2028.975-2.1778,2.1778-2.1778s2.1778.975,2.1778,2.1778h0v2.1762ZM436.0538,470.7327h-4.3509v-2.1762c-.0557-1.2015.8731-2.2206,2.0746-2.2763,1.2015-.0557,2.2206.8731,2.2763,2.0746.0031.0672.0031.1345,0,.2017v2.1762ZM429.6138,470.7327h-4.3525v-2.1762c0-1.2019.9743-2.1762,2.1762-2.1762s2.1762.9743,2.1762,2.1762v2.1762ZM499.4692,438.6665l-.0234,22.5882h-11.5671v-12.7447h-30.5604l.0062,12.7447h-11.7398v-22.5882h-22.4156v43.8776c.3609.5709.728,1.1418,1.0422,1.7391,2.3613,4.3524,3.4269,9.3007,3.2527,14.1633h21.4044v-14.6533c0-4.1456,2.7969-7.9862,6.8771-8.7204,4.5897-.8677,9.0138,2.1496,9.8814,6.7393.0977.5168.147,1.0415.1472,1.5674v15.0671h13.9347v-15.0671c.0034-4.6675,3.79-8.4485,8.4575-8.4451,4.6627.0034,8.4417,3.7824,8.4451,8.4451v15.0671h25.2716v-59.7816l-22.4139.0016Z" style="fill: #fff;"/>
    <path d="M424.2127,484.2831c-.3173-.5973-.6813-1.1667-1.0422-1.7391-3.5638-5.6124-9.1964-9.9976-15.7205-11.8907-4.0278-1.1547-8.2632-1.3918-12.3947-.6938-3.2822.5476-6.4805,1.6287-9.3706,3.2947-3.4689,1.9911-6.4556,4.7616-8.7827,7.9987-2.0533,2.8607-3.5933,6.0776-4.4255,9.4889-.7,2.8-.924,5.6933-.7311,8.5416.308,4.536,1.6956,8.9802,4.0492,12.7976,3.8033,6.2689,10.1174,10.7893,17.0722,12.4678.714.1773,1.4342.308,2.1591.4278v-.3842c-.6844-.1431-1.3658-.2893-2.0363-.49-6.7698-1.9787-12.5222-6.7744-15.7547-12.8489-1.9988-3.6976-3.01-7.8416-3.066-11.97-.0692-4.1616.8684-8.2784,2.7331-11.9996,2.2992-4.6496,5.9422-8.5976,10.4456-11.1378,2.395-1.3807,4.9981-2.3641,7.7078-2.912,3.2807-.6782,6.6905-.7249,10.0115-.1276.5444.1042,1.0904.1913,1.6287.3236,6.5365,1.5758,12.4709,5.7976,16.0611,11.6869.1509.2411.2738.4978.4138.7467,2.1839,3.8405,3.3736,8.1658,3.4611,12.5829.0436,2.2618-.168,4.5313-.7156,6.748-1.6645,6.8507-6.272,12.9376-12.4335,16.4749,6.1849-3.4938,10.8889-9.4811,12.8847-16.352.6689-2.2198,1.0111-4.5391,1.0982-6.8709.1711-4.8627-.8913-9.8078-3.2542-14.1633" style="fill: #dab072;"/>
    <path d="M385.4405,533.2287c-.1274.0111-.2535.0345-.3765.07h-.084c.294.6113,1.1184-.1089.4605-.07M386.1623,533.2194c-.0967-.0013-.1925.0195-.28.0607.546.0996.5071-.0529.28-.0607M390.9534,533.0498c-.269.0032-.5365.0398-.7965.1089l-3.8143.112c.784,1.4918-.2707,2.002-.1245,2.4329.5802-.0809,1.0251.0062,1.288.1789-.0056-.0261-.0086-.0527-.0093-.0793-.0093-.2473.1073-.4978.3267-.5211.2334-.0233.4278.4511.4309.5102.0093.2489-.1555.6378-.4698.728-.0156-.0202-.0265-.0467-.0404-.07-.1073.3064-.5242.6378-1.3455.8804.8649,2.6756,1.6396,5.4242,1.2351,8.3222.8649,1.904-3.5529,4.4924-1.8014,5.0773.9847-2.0487.3594,1.8558,2.66.6409,2.5091.1898.8976-2.6538,2.9229-3.1733.4403-3.4533-1.2056-6.9689-.1509-10.2822,1.1589-1.5291,1.9367-4.8596-.3111-4.8658M405.7841,531.7556c-.2924.3967-.6564.6798-1.218.546l-.1757.0809c.2488.0964.4433.2598.5662.2473.1835-.0171.9754-.3344.9583-.7653-.0063-.1229-.0669-.056-.1306-.1089M421.4486,530.48c-.7498.6969,2.1964,2.3924-.6767,1.792-.812.9318.3002,3.0022-.3002,4.5578.3002,3.7287-1.3222,7.7902-4.5453,10.3289-.8711,1.6287,1.7687-1.0702.9038.8976,2.3458,1.1324,3.6089-1.5711,4.5189-2.912-.1431-3.8547,2.3131-7.2987,4.5982-10.4564-1.3642-.7031-.9303-3.1267-3.6011-2.2758,1.3487-1.1822,1.0453-1.5276-.8976-1.932M421.0488,529.4923c-1.3455.7638-3.9915,1.7282-.9676,1.1573-.154-.42,2.3955-1.1807.9676-1.1573M401.6526,529.1314c.378-.0358.9318.7109.9411.9582.0093.3033-.1664.5709-.4293.5973-.5709.0576-1.078-.5164-1.0951-1.0049-.0156-.3702.4869-.5444.5833-.5507M429.5749,528.9649c.1245-.014.3702.0233.4978.1369.07.1167.1323.294.1991.4107.0063.1198.2505.1664.3811.3376.0834.0993.1354.2211.1493.35.0093.3064-.4262.4729-.5507.4869-.1198.0093-.3733-.0311-.4356-.1493-.2614-.3438-.6549-.9847-.658-1.1091-.0063-.1198.1089-.4356.4169-.4636M430.8333,527.9134c.1245-.0093.434.3344.6269.5009,0,0,.0778.1167.0778.2411.0047.1198-.1182.3158-.238.3298-.3111.0264-.8835-.588-.8867-.6502-.0078-.1835.2924-.4076.42-.42M404.07,527.1869c.3671-.0342.5568.3033.5662.5507.0093.2427-.0467.3204-.2271.336-.126.014-.2598-.0996-.3826-.0871-.1198.0109-.9613.5849-1.0843.5942-.308.0311-.3718-.0824-.378-.266-.0093-.1835.2069-1.0018.5771-1.0376.1245-.0109.3733.0793.4978.07.1245-.014.3065-.1478.4309-.1602M405.6053,527.0392c.4293-.0436.9396.5771.9567.9489.0156.3656-.4698.5958-.5289.6036-.1213.0124-.3158-.0902-.4386-.0778-.1245.0109-.5444.2971-.6674.3111-.3671.0327-.3111-.28-.3111-.28-.0124-.308.098-.3842.518-.6689.2395-.2084.0436-.4324.1603-.63.056-.126.1867-.196.3111-.2069M409.7633,524.3558c.3065-.0296.3267.4573.3297.518.0311.8571-.7202.504-.8089,1.4389-.0848.0812-.1931.1335-.3095.1493-.4309.0373-.5071-.4511-.5102-.5133.0043-.1697.039-.3373.1026-.4947.1742-.2022.42-.35.5943-.5507.1213-.1338.2334-.3329.3516-.4698,0-.0576.126-.0638.2488-.0778M402.631,524.3169c.2007.0062.3345.0762.3407.2567.0063.1244-.1042.3873-.0965.5102.0031.1244.4511.5678.4527.6876.0032.1376-.0335.2732-.1058.3904-.1198.1338-.9053.6938-1.0266.7078-.2488.0233-.2488-.1602-.252-.2209-.0031-.1244.2334-.3298.35-.5289-.1867-.0451-.3858-.5087-.3967-.8151-.014-.308.0872-.9349.518-.9784.0722-.0096.1451-.0127.2178-.0093M413.033,522.8112c.3065-.0311.5009.1976.5071.378.014.3064-.4635.7202-.6471.7373-.1835.0202-.3173-.2676-.3173-.3313-.0063-.1136.1275-.6798.3967-.7731.0195-.0069.04-.0106.0607-.0109M415.5064,522.6914c.1229-.014.3733.28.4978.3267.0653.0576.2458.0373.3095.0311.0669.056.1245.1058.1291.2302.0031.1229-.4666.6036-.6377.9271-.0622.0062-.0653.0669-.1898.0793-.1229.0109-.3065-.1602-.3111-.2193-.0124-.308-.0933-.7342-.0996-.8587-.0031-.1229.0575-.4931.3017-.5164M407.6367,522.1003c.1245-.0093.1774.0404.1805.1602.0063.1244-.2131.518-.2069.6378.0031.1244.4511.8773.4573.9971.0031.1244-.1042.3811-.1603.5071-.1198.1369-.7047.9924-.8867,1.008-.308.0311-.3889-.5662-.3889-.5662-.0063-.1835.3422-.7187.3375-.8384-.0031-.1244-.1338-.2956-.14-.42-.0093-.2442.1306-1.4187.8073-1.4856M424.141,520.8154c.1245-.0124.3049.0964.3671.1509.1245.0498.1306.1664.2614.2769.0591-.0031.1089-.0109.2364.0436.0669.0529.0778.1136.0809.2364.0063.1244.0202.3064-.2271.3298s-.9583-.5289-.9722-.8369c0-.1244.0638-.0607.0638-.1198.0607-.0669.0669-.07.1913-.0809M409.2653,519.6612c.2442-.0233.3329.3967.3375.4573.0031.1198-.1338.0778-.1306.2007.0031.1198.196.2333.2007.3578.0093.2458-.1042.4962-.3516.5196-.3671.0327-.5071-.3842-.5164-.6316-.0063-.1835.0311-.8633.4605-.9038M387.2574,519.4511c.4729-.0467.3267.5273.7576.49.1245-.0124.49-.3111.6175-.3204.406-.0389.6471.742.6564.9878.0063.1804-.1369.5009-.2769.518-.3126.0311-.6129-.2442-.7108-.42l-.126.0093c-.4371.5336-.2846.7078-.7171.7513-.4138.0358-.6409-.8042-.6518-1.0516-.0031-.1198-.0156-.9209.4511-.9644M386.0892,517.4756c.1453-.006.2873.0441.3967.14.028.1804-.0031.434.1042.5476.1089.1727.3033.4044.3111.5289.0047.2442-.1742.2582-.3111.2722-.1306.0093-.1664-.0545-.2909-.0436-.126.0124-.434.3578-.5568.3702-.4076.0404-.434-.518-.7078-.7373-.2193-.1042-.5631-.1276-.8774-.2769l-.0156-.1835c.1555-.0778.3251-.1571.4511-.1711.3422-.0327.462.2038.6876.1835.3173-.0327.1477-.5662.6876-.6207.0436-.0031.084-.0093.1213-.0093M420.0205,516.9685c.0478,0,.0937.0178.1291.0498.2582.1556.4542.5102.6518.7342.0803.1014.129.2242.14.3531.0031.1213-.1136.2644-.1136.3889.0031.1182.1431.4122.1493.5958.0063.1835-.2225.7622-.4091.7778-.3671.0373-.6316-.6238-.6347-.7467-.0063-.1244.1431-.9256.1369-1.0485-.0156-.3671-.448-.2738-.4666-.8276-.0093-.1835.1229-.2473.2488-.2567.0622-.0078.1182-.0233.168-.0202M387.6774,516.0196c.3126-.0296.2302.5351.5071.5087.1198-.0156.3173-.2069.4356-.2178.2412-.0233.5087.07.518.3173.0031.0622-.0855.434-.2924.5771-.1369.014-.3173-.0327-.4511.0404-.1198.0731-.2395.1493-.3609.1602-.3935.0389-.7436-.364-.7576-.6689-.0093-.2458.0373-.6798.4013-.7156M390.3764,515.3429c.1275-.014.8742.2209.9987.2069.126-.014.2644-.0902.4262-.1711.0669.0576.1275.1104.1306.2333.0156.308-.6036.4309-.6674.4387-.1306.0093-.3469-.0233-.4776-.0109-.126.014-.5475.2971-.6689.308-.1353.0124-.532-.0731-.5382-.2613-.0156-.3064.5336-.7202.7965-.7436M390.0606,512.0389c.0762-.0062.1291.0467.196.0404.0156.0622.0669,0,.07.1198.0093.2442-.5662.4838-.6067.5476-.0529.0062-.1245.2007-.2412.2707-.2863.0902-.6564.07-.9535.2193-.1011.0109-.2412.2007-.3407.21-.1777.0874-.3659.1517-.56.1913-.1275.0124-.4605-.0233-.5849-.0109-.3407.0342-.3935.5911-.8774.6378-.4076.0404-.6782-.2442-.6906-.5507-.0156-.3671.6145-1.4109.9489-1.442.4356-.0436.4589.5709.4496.7544.142.0379.2906.0448.4356.0202.1509-.014.4278-.5336.8789-.5771.1275-.014.4744.14.6876.1198l1.1884-.5507ZM437.6528,511.0854c.5553-.0545.6377.6098.6487.8556.0031.1213-.3375.896-.3314,1.0189.0031.1198.14.35.21.4667.1306.1711.4978.3267.6284.5009.3204.2738.3267.4013.3391.7078.0156.3671-.1727.4947-.4605,1.0749-.1789.2022-.1633.5133-.3391.7778l-.1774.0202c-.0669-.0545-.2536-.224-.2598-.3469l-.0311-.6689c-.0234-.5491-.6036-1.1744-.6098-1.2973-.0031-.1198.2395-.2644.364-.3407-.0669-.0529-.1306-.1167-.1306-.1773-.0404-.98-.4076-.8198-.4309-1.498-.0031-.1244.0872-1.0469.5802-1.0936M389.0322,508.7614c.0093.1213-.0529.2489-.1198.4371-.6611.3111-.6409.6813-1.148.7311-.1245.0109-.2147-.0436-.3375-.0327-.2909.0311-.3702.5942-.8478.6378-.1306.0124-.3469-.1509-.4698-.14-.1275.0124-.2442.1493-.3671.1587-.3204.0342-.6487-.2458-.658-.6129-.0202-.5584.3111-.9551.8945-1.008.2831-.0311.1633.0467.6206.1867.1431.0467.3002-.0964.4464-.1089.1571.0467.3267.1524.4511.14.1275-.0156.3904-.2209.588-.238.1462-.0809.4433-.1711.5662-.1198l.3811-.0311ZM382.5409,507.9945c-.0669.0156-.1245.1867-.1711.6269-1.4809.5709.8711,1.876-1.1574,1.7267.3017,1.5602,1.4995,2.3987-.9676,2.0611-1.2678,1.7111,2.156-.6067.9987,1.3689,1.3533,1.5711-2.0829,5.5969.9769,4.7444.0872,1.1247-1.2305,3.388,1.3191,2.4111.6767-2.5838-3.22-3.0613-.868-5.6311-.9583-.8136-.2178-2.4827.3967-2.9991-.1089-.4309-.1462-.8353-.1603-.8587-.0731-.056-.2427-.0389-.336-.0933-.1104-.0498-.2271-.2862-.2302-.4076-.0234-.5538.4527-1.0873.6674-1.7842.0265-.0638-.0311-.2504.0295-.378.0327-.056.0622-.0902.0996-.1089-.2769-.0871-.4605-.7218-.5973-.6782M395.4926,504.8709c.2412-.0233.4138.1462.42.3298.0093.2489-.3858.9613-.5694.9784-.1275.0093-.1944-.0436-.2488-.1602l-.028-.7871c-.0093-.2489.3967-.3578.4262-.3609M385.3442,504.1336c.1213-.014.1011-.0156.1603.0404.2302.0996.14.3578.1976.5367.2395.224.7809-.2598.798.2302.0156.4278-1.288.8649-1.3253.868-.3306.0424-.633-.1912-.6754-.5219-.0011-.0085-.002-.0171-.0028-.0257-.0093-.2473.42-1.0842.8478-1.1278M394.3043,502.7787c.1805-.0156.4822.7467.4822.7467.0124.3049-.0685.6844-.322.7109-.094.0094-.1865-.0292-.2458-.1027-.0171-.1198.0234-.1867,0-.3111-.049-.148-.1249-.2856-.224-.406-.0156,0-.0202.0031-.0265-.1773-.0031-.1244.1757-.4433.336-.4604M385.671,500.4656c.2037-.0202.2676.2178.2676.2178.0063.1867-.0933.266-.0872.3889.0093.2442.504.1944.518.5009.0031.1213-.0467.1804-.1011.2489-.3002.0887-.8136.2691-1.1045.3562-.3126-.0902-.1291-.2909-.21-.4667-.0872-.1151-.1835-.1089-.2769-.1618-.1431.0171-.28-.406-.28-.406-.0063-.1835.0373-.5538.3765-.588.1245-.014.3173.2178.4418.2069.1229-.0093.3267-.2831.4558-.2956M382.7014,497.4339c-.1245.0078-.3469.2224-.3998.2893-.0872.1291-.084.3796-.1603.5102-.1073.1929-.3143.4604-.4076.7171.1109.0554.2338.0821.3577.0778.1291-.0109.21-.0747.2395-.0778.3002-.3998.5646-.854.9084-1.2584-.1711-.0436-.4106-.2691-.5382-.2598M391.4247,496.8443c.4169-.0389.504.6144.5071.7389.0063.1198-.084.3858-.0778.5102.0047.1198.1042.2333.1089.3578.0047.182-.2022.2629-.238.2691-.4076.0404-.5771-.6876-.5802-.7467-.0031-.1276.1136-.3889.1089-.5118-.0047-.1789-.056-.3531-.0467-.476.0373-.0669.0872-.1276.2178-.14M383.9362,493.5045c-.6347.0607-1.2242,1.0951-1.3175,1.5944-.0404.1913-.3049.3438-.4651.4184.1073.1136.3002.2131.4278.2022.1641-.0295.3219-.0868.4666-.1696.3702-.3469.8275-1.1247,1.2553-1.2289.0063,0,.7746-.1291.7622-.4356-.0047-.1244-.0156-.1244-.0716-.1804-.3609-.0311-.9271-.21-1.0578-.2007M396.2204,492.8076c.1245-.0109.5227.2598.7778.3578.2488.0996.5724.1244.8711.2224.1929.1027,1.5649.9536,1.5804,1.3844.0093.2442-.1991.2644-.2364.2707-.1245.0093-.4776-.2022-.7-.2442-.3484-.0856-.742.0778-1.0656-.0762-.42-.2069-.7809-.7233-.7373-1.0982-.154-.1058-.7108-.3671-.7202-.5476-.0031-.1229.0996-.2567.2302-.2691M397.1771,489.6965c.1306-.0124.1338-.0156.1913.0404.1603.0436.6906.49.6969.6767.0178.1683-.1043.3191-.2727.3369-.0024.0003-.0048.0005-.0073.0007-.2707.0264-.4356-.3298-.5289-.5071-.1929-.0436-.3765.0404-.5896.0607-.0529-.0576-.1338-.1167-.1369-.2411-.0093-.2427.6175-.3671.6471-.3671M394.2837,484.851c-.1949.0054-.3896.0189-.5833.0404-1.8589.4044-5.4227,1.1744-5.7664,2.4391,1.5743.0902,4.7911,3.738,1.7049,1.8884-.8073-1.12-5.8458-2.4656-2.7331-.2333,1.008,1.2211,5.9064,3.1111,1.6084,2.2758-1.9257-.5662-3.92-4.0647-5.6358-3.2402.6409,2.9836,3.9076,4.7491,7.1089,4.5049.2831,1.6955-3.0442.4978-3.3787,2.3022-.196.5756.0436,2.4873-1.7344,1.6769-.7653.9536,2.6351,2.0051.0965,2.0549-.7576,1.092.2676,2.4796-1.6925,2.1327,1.1325,1.862-3.01-.2364-1.2942,2.016,1.6209,1.1542-2.4096,3.78.2069,3.2511,1.2849-.742,1.0609-5.7867,1.638-2.4438,1.3923,1.4887-1.2911,2.6289,0,4.228-.1867.5289-.35.7918-.49.8867.2831-.0187.1711.1151.4356.2084l.0311.6704c.0156.1244-.1525.1462-.1462.2707.0063.1804.4605.1291.4729.4978.0093.182-.2722.7031-.266.826.0093.2442.4106.1369.4262.5678.0063.1244-.2831.7156-.2769.8384.0063.1835.1213.2862.1167.4091l.0234.3671c-.0529.0047-.0762.0716-.1991.0809-.1308.0119-.2618-.0222-.3702-.0964-.0202.126-.0404.2536-.0778.406,2.2369,1.7453-.6206,4.9264.5585,7.3858.9707,1.9444-2.2493.5242-.3204,2.5558,1.764-.1322,1.5867-2.1747,1.4171-3.2698,2.4033.5973.7856,5.2391,3.8189,3.8376.5755,1.1978-1.442,3.0878-.9489.868-.91.6502-3.8173-1.6427-2.1047.3873,1.4918,1.2709,1.5711,1.7811-.4666,2.0751-2.6538.3204-3.4347,1.7189-5.7447,2.7129-2.3723.4044-5.3324,1.7656-4.8953,4.4053-.0202,3.1873-.7902,6.3809-1.6754,9.4842.0342,1.8667.4138,4.7149,1.8558,4.0289,1.9912.3064,3.1298-4.116,1.876-5.9142.1026-3.0396.9364-6.5489,2.52-9.044,3.0334-2.1062,7.434-.2956,10.1438-2.6802,1.6784.2038,4.0973,1.4156,4.3851-1.3689,1.9382.4853-.4403,2.94,2.3925,3.2418,2.7689,1.4622,4.088-.4464,3.1111-2.7393-.0622-2.296,1.9786-1.946.9396.3967-1.0344,1.778,2.6165,4.3276,1.9786,3.1609-1.8511-1.736,1.0656-1.736,1.9103-1.9367-1.8324-1.7609.0965-2.1482,1.1433-.7264.8976-.4651,1.5198-1.1247,2.0922-1.7453.0199.0683.0304.1389.0311.21l.2488-.0264c.3609-.2847.9022-.5818,1.2086-.6113.1245-.014.2566.0436.378.0311-.3111-.0933-.8245-.3547-.9442-.3422-.0995.0184-.1969.0465-.2909.084.8275-.8167,1.7313-1.3876,3.3864-1.0204,1.7578.8167-3.0894,2.1358.3516,1.6053.8976-.8789,1.8014-5.5938,1.8651-2.73.1664-.2644.5865-.378.8167-.6876-.0031-.1244-.0031-.308-.0093-.4309-.0031-.1244.238-.2676.3577-.28.1867-.0156.6906.3033.7.5507.0156.3671-.8307.9442-.8275,1.008.0031.1198.2644.5227.2676.6471.0063.1198-.0498.07-.0467.126-.0607.07-.056.07-.1805.084-.2131.0202-.9038-.1929-1.0982-.5709-.77,1.4856,1.6255,1.4747.9178,2.3536.8447-.8556,1.1449-1.7158,2.534-1.1044,2.3645-.6253.8835-3.4253,2.6428-5.0058-1.1013-.1478-1.8465-2.9742-.7078-2.9244.5865-1.1371,2.3178,4.2747,2.2322.882,2.3194-.8851.2598,3.1158,2.5604,2.8887.2394.0775.4514.2229.6098.4184.0342-.098.0622-.1804.0607-.2209-.0031-.1198-.0778-.1167-.0809-.1773-.1898-.1664-.5568-.1929-.5709-.4993.1306-.2442.2676-.2784.4309-.2909.0575-.0031.1167-.0031.1805-.0109.8602-.0793.9956.2644,1.0173.882.0202.6144-.196,1.1278-.4169,1.7624l-.2536.0296c-.0202-.0311-.0436-.0467-.0669-.0778-.0265,1.0687-.21,2.1156,1.5649,1.806.0171-.0964.0575-.1835.1011-.28-.3204-.2178-.7451-.0607-.7622-.49-.0047-.308.4154-.4013.602-.4184.3065-.0327.574.1867.7576.1711.1245-.014.4822-.1104.6674-.1944.1198-.07.294-.2069.3469-.336,0-.0607-.0063-.2473.0529-.378,0,0,.1245-.1291.2473-.14.3111-.0311.6238.3033.63.4869l.0373.9178c-.1742.2038-.3531.3484-.4776.3609-.1198.0093-.4978-.084-.6175-.0731-.1245.0124-.1198.1369-.2395.2131.2566.28.8073.4169.8275.9053.0063.1229-.1633.3889-.1603.5102.0063.1244.2644.5242.2707.6471.0031.1244-.1603.574-.21.8867-.1213.0747-.238.1509-.3609.1618-.2442.0233-.3345-.4107-.3375-.4667-.0031-.1244.0638-.1913.0607-.3111-.1835.0156-.4869.1089-.6175-.0607-.0507-.0424-.0976-.0893-.14-.14-.1633.2644-.5134.1167-.9785-.9489-2.8295,1.4669-1.8823-2.6958-3.1998-3.4798-.8307-.7638-1.3984-2.0316-2.3831-.3469.3733.8556,1.442,3.7956,1.3346.9878,3.0707.2971.1477,5.4164,4.0787,4.6558.7544,1.7282,3.3631-.4138,4.3384,1.5944,2.0285-.9847,1.9647-.1198,1.8853,1.3549,1.204-3.794,1.078,2.1389,1.7251,3.2356.5242,2.9587-.1633,6.1662-.8182,9.1093-.0622,1.6178-4.0507,3.8142-.4698,3.9309,2.9525.1369,4.2311-2.73,4.1269-4.9964-.3189-3.7007.9722-7.4604,2.3645-10.9589-.28-2.59-2.2307-4.7211-.9691-7.4076-.0358-2.87,2.3831-4.8362.8214-7.4791,1.1542-3.5373.6906,1.3144,2.0626,2.0844-1.288,1.7422-1.456,3.8624-1.9725,5.8909-.9442,1.6224.8447,5.0322.1805,1.4887-.1509-1.5478,1.1978-3.0069,1.582-4.5889,1.3222,1.5416-1.7656,5.7478.3998,6.9222,1.6582-.9753.2738-2.4873,1.6255-4.102-.3733-2.352,1.54-4.9933-.2769-7.2847,1.2911-2.4422-1.5493-4.0849-1.358-6.4042-.9116-2.5496-4.0056-4.1176-5.4444-6.4213-2.6647-1.1713-5.4118-2.268-8.4483-1.3347-2.6662-1.4887-5.3433,1.5229-7.8229.2676-2.6491.0731-4.7413,2.1467-7.462,1.6256-2.8887,1.7578-6.2424-.9551-9.2929-.4713-2.1187.3142-6.0511.1867-4.5546-2.7502-1.9398-.1089-1.5758-2.0549-3.9713-1.6955-1.8853-.5258-1.1091-3.1267.0295-.8369,1.9522.2567,3.7909.2209,5.7664-.5507,1.3518.4667,5.8862.3842,2.3224-.3764-1.26-1.8464,4.9389,1.8651,2.8031-1.1153-2.3162-.6036-.7544-2.2229.518-.336.2225-3.1671-3.22-6.1133-5.096-7.7233-2.1031-1.1744,2.5293-.2069.5802-2.3224-1.6209-2.1653-3.8842-3.5638-6.7838-3.4876" style="fill: #fff;"/>
    <path d="M400.0023,447.3013c-26.1224,0-47.2998-21.1789-47.2998-47.2982s21.1773-47.3013,47.2998-47.3013,47.2967,21.1773,47.2967,47.3013-21.1773,47.2982-47.2967,47.2982M400.0023,348.1176c-28.6082,0-51.8855,23.2727-51.8855,51.8856s23.2773,51.8824,51.8855,51.8824,51.8855-23.2758,51.8855-51.8824-23.2773-51.8856-51.8855-51.8856" style="fill: #dab072;"/>
    <path d="M400.0023,352.7018c-26.1224,0-47.2998,21.1789-47.2998,47.2982s21.1773,47.3013,47.2998,47.3013,47.2967-21.1773,47.2967-47.3013-21.1773-47.2967-47.2967-47.2967" style="fill: #38284f;"/>
    <path d="M435.9932,397.1596c-1.1107,0-2.0487.6533-2.52,1.5867l-3.57-1.7889c-1.9056-.952-3.4969-4.1829-3.9713-5.6l-.5242-1.5789c1.1278-.378,1.9553-1.4124,1.9553-2.6662,0-1.5722-1.2745-2.8467-2.8467-2.8467s-2.8467,1.2745-2.8467,2.8467h0c0,.5911.2209,1.1044.5289,1.5587l-1.3953.9364c-3.9915,2.6864-11.2124,4.7024-15.9756,5.5736.8742-4.7491,2.8902-11.9529,5.5767-16.002l.9147-1.3751c.4511.3018.9644.518,1.5447.518,1.5722-.0003,2.8464-1.2751,2.8461-2.8473-.0003-1.5717-1.2744-2.8458-2.8461-2.8461-1.2585,0-2.2882.8276-2.6662,1.96l-1.5509-.518c-1.1215-.3842-4.5858-1.9398-5.6-3.9713l-1.7733-3.5436c.9178-.4744,1.5633-1.4062,1.5633-2.5107,0-1.5713-1.2738-2.8451-2.8451-2.8451s-2.8451,1.2738-2.8451,2.8451c0,1.1122.6533,2.0456,1.5789,2.5169l-1.7655,3.5373c-1.0173,2.0316-4.48,3.5871-5.6124,3.9744l-1.5198.5133c-.3776-1.1515-1.4497-1.9323-2.6616-1.9382-1.5711,0-2.8436,1.2756-2.8436,2.8467s1.2709,2.8467,2.8436,2.8467c.5802,0,1.0873-.2178,1.5384-.5133l.8929,1.3502c2.6865,4.0522,4.7055,11.2576,5.5798,16.002-4.7678-.8711-11.9933-2.8871-15.988-5.5736l-1.3907-.9333c.3033-.4542.5242-.9676.5242-1.5587.0519-1.5713-1.1798-2.8872-2.7511-2.9391s-2.8872,1.1798-2.9391,2.7511c-.0021.0626-.0021.1253,0,.188,0,1.2584.8244,2.2898,1.9553,2.6693l-.5273,1.5711c-.3842,1.1262-1.9413,4.5858-3.9667,5.6l-3.5716,1.7858c-.4713-.9302-1.4078-1.5851-2.52-1.5851-1.5722,0-2.8467,1.2745-2.8467,2.8467s1.2745,2.8467,2.8467,2.8467c1.1153,0,2.0533-.658,2.52-1.5882l3.57,1.7858c2.0269,1.0142,3.584,4.4753,3.9713,5.6093l.5289,1.5447c-1.1231.3811-1.9444,1.4124-1.9444,2.6631,0,1.5722,1.2745,2.8467,2.8467,2.8467s2.8467-1.2745,2.8467-2.8467c0-.5864-.2193-1.1013-.5227-1.5509l1.3735-.9209c3.9884-2.6833,11.2156-4.6993,15.9849-5.5704-.8742,4.7444-2.8964,11.9467-5.5798,16.002l-.9131,1.3782c-.4542-.3002-.9613-.518-1.5462-.518-1.5722,0-2.8467,1.2745-2.8467,2.8467s1.2745,2.8467,2.8467,2.8467c1.26,0,2.2929-.8276,2.6662-1.96l1.5556.518c1.12.3811,4.5827,1.9367,5.6,3.9667l1.7811,3.5653c-.9271.4713-1.5867,1.4093-1.5867,2.52,0,1.5722,1.2745,2.8467,2.8467,2.8467s2.8467-1.2745,2.8467-2.8467c0-1.1107-.6549-2.0533-1.5867-2.52l1.7858-3.5669c.9504-1.9087,4.1813-3.4938,5.6-3.9651l1.5556-.5196c.3733,1.1309,1.4031,1.9616,2.6616,1.9616,1.5722,0,2.8467-1.2745,2.8467-2.8467s-1.2745-2.8467-2.8467-2.8467c-.5802,0-1.0936.2178-1.5447.518l-.9147-1.3782c-2.6865-4.0522-4.7024-11.256-5.5767-16.002,4.7631.8711,11.984,2.8871,15.9756,5.5689l1.3953.9427c-.308.4527-.5289.9707-.5289,1.5571,0,1.5722,1.2745,2.8467,2.8467,2.8467s2.8467-1.2745,2.8467-2.8467c0-1.2569-.8276-2.2882-1.9553-2.6662l.5242-1.5773c.3842-1.1247,1.9398-4.5858,3.9713-5.6l3.5638-1.7858c.4713.9333,1.4125,1.5913,2.5262,1.5913,1.5722-.0005,2.8462-1.2754,2.8457-2.8476-.0005-1.5714-1.2743-2.8452-2.8457-2.8457" style="fill: #dab072;"/>
    <path d="M400.0023,371.622c1.8885,3.7847,7.5678,5.6778,7.5678,5.6778-4.0133,6.0433-6.6235,17.9698-6.6235,21.7544,3.7847,0,15.7547-2.5822,21.7576-6.6204,0,0,1.8931,5.6762,5.6778,7.5678-3.7847,1.8931-5.6778,7.5662-5.6778,7.5662-6.0044-4.0351-17.9729-6.622-21.7576-6.622,0,3.7847,2.6102,15.7158,6.6235,21.7591,0,0-5.6778,1.8884-7.5678,5.67-1.8916-3.78-7.5693-5.67-7.5693-5.67,4.0087-6.0433,6.622-17.9744,6.622-21.7591-3.7847,0-15.7655,2.5869-21.7684,6.622,0,0-1.8885-5.6731-5.6731-7.5662,3.7847-1.8916,5.6731-7.5678,5.6731-7.5678,6.0044,4.0336,17.9838,6.6204,21.7684,6.6204,0-3.7847-2.6102-15.7111-6.622-21.7544,0,0,5.6778-1.8931,7.5693-5.6778" style="fill: #de003c;"/>
    <path d="M450.8535,218.4325c-1.7578,2.8669-8.9367,8.1231-12.7478,9.618-.9878.3889,4.7258-.224,7.2816-.5507,3.3569-.4278,7.7187-2.506,7.6191-1.7733-.0094,3.3616,1.6147,8.9678,5.8458,11.5438l.4045.2489.4138-.2489c4.2311-2.8731,5.8302-7.9224,5.8536-11.5422-.1073-.7342,4.2544,1.344,7.6113,1.7718,2.5558.3267,8.2724.9411,7.2816.5507-3.808-1.4949-10.9822-6.7511-12.74-9.618h-16.8233ZM394.7492,289.7516c-.1167-5.152-1.4653-9.8716-3.8375-14.4107-6.2175-13.0713-25.1953-12.7602-21.0109,3.2278,1.5416,5.894,6.7775,9.3567,12.9982,9.9509-.4511-1.5509-2.9198-7.0404-.924-8.1153,3.1889.1198,7.532,6.7044,8.4824,9.3302,0,0,0,.0171,4.2918.0171M409.2734,289.7345c.952-2.6258,5.2936-9.2089,8.4824-9.3302,1.9958,1.0733-.476,6.5613-.924,8.1169,6.2207-.5942,11.4567-4.06,12.9982-9.9524,4.1844-15.988-14.7933-16.2991-21.0109-3.2262-2.3722,4.5376-3.7178,9.2556-3.8375,14.4091,4.2933,0,4.2933-.0156,4.2933-.0156M399.5201,243.9249c-6.0107,6.4773-10.0442,13.9689-8.302,22.7516.9567,4.8502,3.2822,9.338,4.9218,14.0062,1.0267,2.9307,1.2911,5.9904,1.1667,9.0689h5.1007c-.2442-3.1018.2893-6.1087,1.1667-9.0689,1.5665-4.6978,3.9418-9.1529,4.9265-14.0062,1.8418-9.0658-2.4827-15.9071-8.2802-22.7267l-.3531-.4496-.3469.4247ZM411.8572,299.578h-24.066c-1.4311,0-2.5993-1.1713-2.5993-2.604v-1.9724c0-1.4311,1.1667-2.6024,2.5978-2.6024h24.0676c1.4311,0,2.6009,1.1713,2.6009,2.6024v1.9724c0,1.4311-1.1682,2.604-2.6009,2.604M391.4188,302.224c-1.7578,2.8684-8.9367,8.12-12.7478,9.6149-.9878.3904,4.7242-.2224,7.28-.546,3.3584-.4278,7.7202-2.5076,7.6191-1.7733-.0093,3.3584,1.6131,8.9647,5.8473,11.5407l.4044.2473.4122-.2489c4.2311-2.8684,5.8302-7.9178,5.8504-11.5391-.1027-.7342,4.2591,1.3456,7.616,1.7733,2.5558.3236,8.2693.9364,7.28.546-3.8111-1.4933-10.9822-6.7464-12.7431-9.6133l-16.8186-.0016ZM343.3661,320.466l-.35-.4511-.35.4231c-5.9967,6.4649-10.0256,13.9393-8.3098,22.7002h17.2962c1.8122-9.0409-2.4998-15.8682-8.2864-22.6722M459.6143,320.466l-.3516-.4511-.35.4231c-5.9967,6.4649-10.024,13.9393-8.3098,22.7002h17.2978c1.8138-9.0409-2.5013-15.8682-8.2864-22.6722M278.9023,289.7516c-.1167-5.152-1.4653-9.8716-3.8375-14.4107-6.2175-13.0713-25.1953-12.7602-21.0109,3.2278,1.5431,5.894,6.7775,9.3567,12.9982,9.9509-.4511-1.5509-2.9198-7.0404-.924-8.1153,3.1889.1198,7.532,6.7044,8.4824,9.3302,0,0,0,.0171,4.2933.0171M293.4281,289.7345c.9504-2.6258,5.292-9.2089,8.4824-9.3302,1.9958,1.0733-.4776,6.5613-.924,8.1169,6.2191-.5942,11.4551-4.06,12.9967-9.9524,4.1844-15.988-14.7933-16.2991-21.0093-3.2262-2.3722,4.5376-3.7209,9.2556-3.8375,14.4091,4.2918,0,4.2918-.0156,4.2918-.0156M283.6732,243.9249c-6.0091,6.4773-10.0442,13.9689-8.3067,22.7516.9613,4.8502,3.2884,9.338,4.9265,14.0062,1.0267,2.9307,1.2911,5.9904,1.1667,9.0689h5.1007c-.2442-3.1018.2893-6.1087,1.1667-9.0689,1.5633-4.6978,3.9418-9.1529,4.9265-14.0062,1.8418-9.0658-2.4827-15.9071-8.2787-22.7267l-.3547-.4496-.3469.4247ZM296.0119,299.578h-24.0676c-1.4311,0-2.5978-1.1713-2.5978-2.604v-1.9724c0-1.4311,1.1667-2.6024,2.5978-2.6024h24.0676c1.4311,0,2.5993,1.1713,2.5993,2.6024v1.9724c0,1.4311-1.1667,2.604-2.5993,2.604M275.5719,302.224c-1.7578,2.8684-8.9398,8.12-12.7478,9.6149-.9909.3904,4.7258-.2224,7.2816-.546,3.3569-.4278,7.7187-2.5076,7.6191-1.7733-.0093,3.3584,1.6115,8.9647,5.8458,11.5407l.4044.2473.4138-.2489c4.2311-2.8684,5.8302-7.9178,5.8489-11.5391-.1027-.7342,4.2591,1.3456,7.616,1.7733,2.5558.3236,8.2693.9364,7.2816.546-3.8111-1.4933-10.9853-6.7464-12.7447-9.6133l-16.8187-.0016ZM511.5528,289.7516c-.1198-5.152-1.4638-9.8716-3.8376-14.4107-6.216-13.0713-25.1938-12.7602-21.0124,3.2278,1.5447,5.894,6.7807,9.3567,12.9998,9.9509-.4511-1.5509-2.9198-7.0404-.924-8.1153,3.1904.1198,7.532,6.7044,8.484,9.3302,0,0,0,.0171,4.2902.0171M526.0785,289.7345c.9504-2.6258,5.292-9.2089,8.4824-9.3302,1.9911,1.0733-.4807,6.5613-.924,8.1169,6.2207-.5942,11.4567-4.06,12.9982-9.9524,4.1844-15.988-14.7933-16.2991-21.0109-3.2262-2.3722,4.5376-3.7209,9.2556-3.8376,14.4091,4.2918,0,4.2918-.0156,4.2918-.0156M516.3237,243.9249c-6.0091,6.4773-10.0442,13.9689-8.3067,22.7516.9629,4.8502,3.2885,9.338,4.9264,14.0062,1.0282,2.9307,1.288,5.9904,1.1682,9.0689h5.0991c-.2442-3.1018.2909-6.1087,1.1667-9.0689,1.5633-4.6978,3.9418-9.1529,4.9264-14.0062,1.8433-9.0658-2.4827-15.9071-8.2787-22.7267l-.3531-.4496-.3485.4247ZM528.6623,299.578h-24.0675c-1.4311,0-2.5978-1.1713-2.5978-2.604v-1.9724c0-1.4311,1.1667-2.6024,2.5978-2.6024h24.0675c1.4311,0,2.5993,1.1713,2.5993,2.6024v1.9724c0,1.4311-1.1667,2.604-2.5978,2.604M508.2223,302.224c-1.7609,2.8684-8.9398,8.12-12.7478,9.6149-.9909.3904,4.7258-.2224,7.2816-.546,3.3584-.4278,7.7187-2.5076,7.6191-1.7733-.0094,3.3584,1.6116,8.9647,5.8473,11.5407l.4045.2473.4122-.2489c4.2311-2.8684,5.8302-7.9178,5.8489-11.5391-.1027-.7342,4.2591,1.3456,7.616,1.7733,2.5574.3236,8.2693.9364,7.2816.546-3.8111-1.4933-10.9854-6.7464-12.7431-9.6133l-16.8203-.0016ZM334.6068,218.4325c-1.7578,2.8669-8.9367,8.1231-12.7478,9.618-.9878.3889,4.7258-.224,7.28-.5507,3.3584-.4278,7.7202-2.506,7.6191-1.7733-.0093,3.3616,1.6131,8.9678,5.8473,11.5438l.4044.2489.4138-.2489c4.2311-2.8731,5.8287-7.9224,5.8489-11.5422-.1027-.7342,4.2591,1.344,7.616,1.7718,2.5558.3267,8.2724.9411,7.28.5507-3.8065-1.4949-10.9822-6.7511-12.74-9.618h-16.8217Z" style="fill: #dab072;"/>
  </g>
</svg>