<?xml version="1.0" encoding="utf-8"?>
<!-- Created by @FCLOGO 2024-10-25 GMT+8 11:25:41 . https://fclogo.top/ -->
<!-- FOR PERSONAL USE ONLY NOT FOR COMMERCIAL USE -->
<svg version="1.1" xmlns="http://www.w3.org/2000/svg" xmlns:xlink="http://www.w3.org/1999/xlink" x="0px" y="0px"
	 viewBox="0 0 800 800" style="enable-background:new 0 0 800 800;" xml:space="preserve">
<path style="fill:#CCCCCC;" d="M348.22,774.3c-0.79,0-1.38-0.22-1.77-0.65c-0.39-0.44-0.53-1.03-0.41-1.79l0.25-1.65
	c0.12-0.75,0.45-1.35,0.98-1.78c0.53-0.44,1.19-0.65,1.98-0.65c0.76,0,1.33,0.2,1.72,0.6c0.39,0.4,0.55,0.94,0.47,1.62h-1.24
	c0.03-0.36-0.06-0.64-0.26-0.84c-0.2-0.2-0.5-0.3-0.89-0.3c-0.42,0-0.76,0.12-1.03,0.35c-0.27,0.23-0.43,0.56-0.5,0.99l-0.26,1.66
	c-0.07,0.44-0.01,0.77,0.19,1c0.19,0.23,0.5,0.35,0.92,0.35c0.39,0,0.72-0.1,0.98-0.3c0.26-0.2,0.44-0.48,0.52-0.85h1.24
	c-0.14,0.69-0.47,1.23-0.99,1.63C349.61,774.1,348.97,774.3,348.22,774.3z M352.8,774.19l1-6.29h1.19l-0.19,1.19
	c0.34-0.87,0.97-1.3,1.91-1.3c0.67,0,1.17,0.21,1.49,0.62c0.32,0.42,0.43,0.99,0.31,1.71l-0.07,0.42h-1.27l0.06-0.32
	c0.07-0.45,0.01-0.8-0.17-1.04c-0.18-0.24-0.48-0.36-0.88-0.36c-0.4,0-0.74,0.12-1.01,0.37c-0.27,0.24-0.43,0.59-0.5,1.03
	l-0.63,3.97H352.8z M361.91,774.3c-0.77,0-1.35-0.22-1.73-0.67c-0.38-0.45-0.51-1.04-0.4-1.77l0.25-1.65
	c0.08-0.49,0.26-0.92,0.52-1.28c0.26-0.37,0.6-0.65,1.01-0.85c0.41-0.2,0.87-0.3,1.38-0.3c0.77,0,1.35,0.22,1.73,0.67
	c0.39,0.45,0.52,1.04,0.39,1.77l-0.17,1.12h-3.85l-0.09,0.53c-0.15,0.95,0.22,1.43,1.11,1.43c0.72,0,1.17-0.25,1.37-0.74h1.22
	c-0.17,0.53-0.5,0.96-1.01,1.28C363.16,774.14,362.58,774.3,361.91,774.3z M361.23,770.22l-0.05,0.29l2.65-0.01l0.05-0.29
	c0.07-0.47,0.01-0.82-0.17-1.07c-0.18-0.25-0.49-0.37-0.92-0.37c-0.44,0-0.8,0.13-1.06,0.38
	C361.48,769.39,361.31,769.75,361.23,770.22z M368.33,774.3c-0.63,0-1.1-0.21-1.41-0.64c-0.31-0.42-0.4-1-0.27-1.73l0.27-1.77
	c0.11-0.73,0.39-1.31,0.84-1.74c0.44-0.43,0.98-0.64,1.61-0.64c0.47,0,0.83,0.12,1.09,0.35c0.26,0.24,0.39,0.56,0.38,0.96h0.02
	l0.17-1.2h1.24l-1,6.29h-1.22l0.19-1.2h-0.02c-0.12,0.41-0.35,0.73-0.69,0.97C369.2,774.18,368.8,774.3,368.33,774.3z
	 M368.93,773.23c0.39,0,0.72-0.12,0.98-0.36c0.26-0.24,0.43-0.57,0.5-1.01l0.25-1.65c0.07-0.43,0.01-0.76-0.18-1
	c-0.19-0.24-0.47-0.36-0.86-0.36c-0.4,0-0.72,0.12-0.98,0.35c-0.26,0.24-0.42,0.57-0.49,1.01l-0.25,1.65
	c-0.07,0.44-0.01,0.78,0.17,1.01C368.24,773.11,368.53,773.23,368.93,773.23z M376.35,774.19c-0.57,0-0.99-0.16-1.26-0.47
	c-0.27-0.31-0.36-0.75-0.27-1.32l0.54-3.39h-1.74l0.17-1.12h1.74l0.27-1.72h1.24l-0.27,1.72h2.47l-0.18,1.12h-2.46l-0.54,3.39
	c-0.08,0.44,0.1,0.66,0.53,0.66h1.72l-0.17,1.12H376.35z M382.5,774.3c-0.77,0-1.35-0.22-1.73-0.67c-0.38-0.45-0.52-1.04-0.4-1.77
	l0.25-1.65c0.08-0.49,0.26-0.92,0.52-1.28c0.26-0.37,0.6-0.65,1.01-0.85c0.41-0.2,0.87-0.3,1.38-0.3c0.77,0,1.35,0.22,1.73,0.67
	c0.39,0.45,0.52,1.04,0.39,1.77l-0.17,1.12h-3.85l-0.09,0.53c-0.15,0.95,0.22,1.43,1.11,1.43c0.72,0,1.17-0.25,1.37-0.74h1.22
	c-0.17,0.53-0.5,0.96-1.01,1.28C383.76,774.14,383.18,774.3,382.5,774.3z M381.83,770.22l-0.05,0.29l2.65-0.01l0.05-0.29
	c0.07-0.47,0.01-0.82-0.17-1.07c-0.18-0.25-0.49-0.37-0.92-0.37c-0.44,0-0.8,0.13-1.06,0.38
	C382.08,769.39,381.91,769.75,381.83,770.22z M388.92,774.3c-0.63,0-1.1-0.21-1.4-0.64c-0.3-0.42-0.39-1-0.28-1.73l0.27-1.77
	c0.11-0.73,0.39-1.31,0.84-1.74c0.44-0.43,0.98-0.64,1.61-0.64c0.47,0,0.83,0.12,1.09,0.35c0.26,0.24,0.39,0.56,0.38,0.96h0.02
	l0.21-1.47l0.3-1.8h1.24l-1.33,8.35h-1.22l0.19-1.2h-0.02c-0.12,0.41-0.35,0.73-0.69,0.97C389.8,774.18,389.4,774.3,388.92,774.3z
	 M389.53,773.23c0.39,0,0.72-0.12,0.98-0.36c0.26-0.24,0.43-0.57,0.5-1.01l0.25-1.65c0.08-0.43,0.02-0.76-0.17-1
	c-0.19-0.24-0.48-0.36-0.87-0.36c-0.4,0-0.72,0.12-0.98,0.35c-0.26,0.24-0.42,0.57-0.49,1.01l-0.25,1.65
	c-0.08,0.44-0.02,0.78,0.16,1.01C388.83,773.11,389.13,773.23,389.53,773.23z M401.02,774.3c-0.47,0-0.84-0.12-1.1-0.35
	c-0.26-0.23-0.39-0.56-0.38-0.97h-0.01l-0.19,1.2h-1.22l1.33-8.35h1.24l-0.29,1.8l-0.27,1.47h0.05c0.12-0.41,0.35-0.73,0.69-0.97
	c0.34-0.23,0.74-0.35,1.21-0.35c0.63,0,1.1,0.21,1.4,0.64c0.3,0.43,0.39,1.01,0.28,1.74l-0.27,1.77c-0.11,0.73-0.39,1.31-0.84,1.73
	C402.18,774.09,401.64,774.3,401.02,774.3z M400.77,773.23c0.4,0,0.72-0.12,0.98-0.35c0.26-0.23,0.42-0.57,0.5-1.01l0.25-1.65
	c0.07-0.43,0.01-0.77-0.17-1.01c-0.18-0.24-0.47-0.35-0.87-0.35c-0.39,0-0.72,0.12-0.98,0.36c-0.26,0.24-0.43,0.57-0.5,1l-0.25,1.65
	c-0.07,0.44-0.01,0.77,0.17,1.01C400.08,773.11,400.37,773.23,400.77,773.23z M405.47,776.25l0.17-1.06h1.93
	c0.64,0,1.01-0.3,1.1-0.9l0.1-0.67l0.21-1.19h-0.03c-0.12,0.42-0.35,0.74-0.68,0.97c-0.33,0.23-0.73,0.34-1.2,0.34
	c-0.63,0-1.09-0.2-1.4-0.6c-0.31-0.4-0.41-0.94-0.3-1.63l0.58-3.6h1.24l-0.56,3.48c-0.06,0.41,0,0.73,0.18,0.96
	c0.18,0.23,0.47,0.34,0.85,0.34c0.39,0,0.72-0.12,0.98-0.37c0.27-0.24,0.43-0.58,0.49-1.02l0.54-3.4h1.24l-1.01,6.41
	c-0.1,0.6-0.37,1.08-0.81,1.42c-0.44,0.35-1,0.52-1.67,0.52H405.47z M417.79,770.09h3.22l0.54-1.85h-5.47l-1.71,6.44h2.15l0.59-2.1
	h3.03l0.44-1.71h-3.03L417.79,770.09z M424.23,772.92c-0.59,0-1.02-0.39-1.02-1.12c0-0.88,0.63-1.76,1.61-1.76
	c0.49,0,0.88,0.24,1.02,0.78l1.95-0.83c-0.29-1.17-1.27-1.9-2.64-1.9c-2.78,0-4.15,2.15-4.15,3.9c0,1.76,1.27,2.83,3.07,2.83
	c1.37,0,2.34-0.59,2.98-1.42l-1.51-1.17C425.16,772.67,424.72,772.92,424.23,772.92z M430.91,768.23h-2.15l-1.76,6.44h5.12
	l0.49-1.85h-2.93L430.91,768.23z M439.75,771.01c0-1.66-1.32-2.93-3.22-2.93c-2.2,0-3.81,1.81-3.81,3.81c0,1.66,1.32,2.93,3.22,2.93
	C438.14,774.82,439.75,773.01,439.75,771.01z M434.92,771.7c0-0.83,0.59-1.71,1.51-1.71c0.78,0,1.17,0.54,1.17,1.22
	c0,0.83-0.59,1.71-1.51,1.71C435.31,772.92,434.92,772.38,434.92,771.7z M443.21,772.23h1.07l-0.2,0.68
	c-0.15,0.05-0.34,0.1-0.59,0.1c-0.68,0-1.27-0.39-1.27-1.22c0-1.02,0.73-1.9,1.95-1.9c0.59,0,1.12,0.24,1.51,0.59l1.37-1.37
	c-0.44-0.54-1.51-1.07-2.73-1.07c-2.59,0-4.29,1.76-4.29,3.86c0,2.05,1.61,2.88,3.22,2.88c0.93,0,1.85-0.29,2.49-0.68l0.93-3.32
	h-3.12L443.21,772.23z M450.78,768.08c-2.2,0-3.81,1.81-3.81,3.81c0,1.66,1.32,2.93,3.22,2.93c2.2,0,3.81-1.81,3.81-3.81
	C454,769.35,452.68,768.08,450.78,768.08z M450.34,772.92c-0.78,0-1.17-0.54-1.17-1.22c0-0.83,0.59-1.71,1.51-1.71
	c0.78,0,1.17,0.54,1.17,1.22C451.85,772.04,451.27,772.92,450.34,772.92z M437.94,767.5c-0.05,0.29,0.1,0.49,0.44,0.49
	s0.54-0.2,0.63-0.49c0.05-0.24-0.1-0.49-0.44-0.49C438.24,767.01,437.99,767.25,437.94,767.5z M432.13,765.5
	c-0.44,0-0.73,0.24-0.78,0.59c-0.05,0.34,0.1,0.59,0.54,0.59s0.73-0.24,0.78-0.59C432.77,765.74,432.57,765.5,432.13,765.5z
	 M433.01,767.3c-0.1,0.54,0.15,0.88,0.83,0.88c0.63,0,1.07-0.39,1.17-0.88s-0.15-0.88-0.83-0.88
	C433.5,766.43,433.11,766.82,433.01,767.3z M439.6,777.55l-2.44-1.81h-1.51l4.25,3.17l1.61-3.17h-0.98L439.6,777.55z M425.84,767.16
	l-2-1.46l23.13-2.78l-2.15,4.25h1.02l2.68-5.32l-26.99,3.22l2.78,2.1H425.84z M338.72,785.79l0.61-3.83h2.32l-0.08,0.52h-1.76
	l-0.18,1.14h1.63l-0.08,0.52h-1.62l-0.26,1.64H338.72z M342.97,785.84c-0.36,0-0.62-0.1-0.8-0.3c-0.17-0.2-0.23-0.47-0.18-0.82
	l0.27-1.7c0.06-0.34,0.2-0.61,0.44-0.82c0.24-0.2,0.54-0.3,0.89-0.3c0.36,0,0.62,0.1,0.8,0.3c0.17,0.2,0.24,0.47,0.18,0.81
	l-0.27,1.71c-0.06,0.34-0.2,0.62-0.44,0.82C343.63,785.74,343.33,785.84,342.97,785.84z M343.05,785.33c0.19,0,0.35-0.05,0.47-0.16
	c0.12-0.11,0.19-0.26,0.23-0.46l0.27-1.7c0.03-0.2,0.01-0.35-0.08-0.46c-0.08-0.11-0.22-0.16-0.41-0.16s-0.35,0.05-0.46,0.16
	c-0.12,0.1-0.19,0.26-0.22,0.46l-0.27,1.7c-0.03,0.2-0.01,0.35,0.08,0.46C342.72,785.28,342.86,785.33,343.05,785.33z M345,785.79
	l0.61-3.83h1.2c0.24,0,0.44,0.05,0.6,0.14c0.16,0.09,0.28,0.22,0.36,0.39c0.07,0.17,0.09,0.37,0.05,0.59
	c-0.04,0.26-0.14,0.48-0.3,0.67c-0.16,0.19-0.37,0.32-0.6,0.39l0.54,1.64h-0.62l-0.48-1.57h-0.54l-0.25,1.57H345z M345.89,783.71
	h0.64c0.19,0,0.35-0.06,0.48-0.17c0.13-0.11,0.21-0.26,0.24-0.45c0.03-0.19,0-0.35-0.09-0.46c-0.09-0.11-0.24-0.17-0.43-0.17h-0.64
	L345.89,783.71z M349.54,785.79l0.61-3.83h1.25c0.37,0,0.65,0.1,0.84,0.31c0.19,0.21,0.26,0.49,0.2,0.84
	c-0.04,0.23-0.12,0.44-0.25,0.61s-0.29,0.31-0.49,0.4c-0.2,0.09-0.42,0.14-0.66,0.14h-0.69l-0.24,1.52H349.54z M350.43,783.75h0.69
	c0.19,0,0.36-0.06,0.49-0.18c0.14-0.12,0.22-0.27,0.25-0.47c0.03-0.2,0-0.35-0.1-0.47c-0.1-0.12-0.25-0.18-0.44-0.18h-0.69
	L350.43,783.75z M352.75,785.79l0.61-3.83h2.25l-0.08,0.5h-1.7l-0.17,1.09h1.51l-0.08,0.5h-1.51l-0.19,1.24h1.69l-0.08,0.5H352.75z
	 M355.84,785.79l0.61-3.83h1.2c0.24,0,0.44,0.05,0.6,0.14c0.16,0.09,0.28,0.22,0.36,0.39c0.07,0.17,0.09,0.37,0.05,0.59
	c-0.04,0.26-0.14,0.48-0.3,0.67c-0.16,0.19-0.37,0.32-0.6,0.39l0.54,1.64h-0.62l-0.48-1.57h-0.54l-0.25,1.57H355.84z M356.74,783.71
	h0.64c0.19,0,0.35-0.06,0.48-0.17c0.13-0.11,0.21-0.26,0.24-0.45c0.03-0.19,0-0.35-0.09-0.46c-0.09-0.11-0.24-0.17-0.43-0.17h-0.64
	L356.74,783.71z M360.13,785.84c-0.39,0-0.67-0.1-0.87-0.29c-0.19-0.19-0.26-0.45-0.22-0.78h0.57c-0.03,0.17,0.01,0.31,0.12,0.41
	c0.11,0.1,0.27,0.15,0.48,0.15c0.2,0,0.37-0.05,0.5-0.15c0.13-0.1,0.21-0.23,0.24-0.4c0.02-0.15,0-0.28-0.06-0.39
	c-0.06-0.11-0.16-0.18-0.29-0.22l-0.46-0.14c-0.27-0.08-0.46-0.22-0.59-0.41c-0.13-0.19-0.17-0.42-0.13-0.68
	c0.04-0.21,0.11-0.39,0.23-0.55c0.12-0.16,0.27-0.28,0.46-0.37c0.19-0.09,0.4-0.13,0.64-0.13c0.35,0,0.62,0.1,0.8,0.29
	c0.18,0.19,0.25,0.44,0.2,0.76h-0.57c0.03-0.17,0-0.3-0.09-0.4c-0.09-0.1-0.23-0.14-0.42-0.14c-0.19,0-0.34,0.04-0.46,0.13
	c-0.12,0.09-0.19,0.21-0.21,0.38c-0.02,0.15-0.01,0.28,0.05,0.39c0.06,0.11,0.16,0.18,0.29,0.22l0.47,0.15
	c0.26,0.08,0.46,0.22,0.58,0.41c0.12,0.19,0.17,0.42,0.12,0.69c-0.04,0.22-0.12,0.41-0.24,0.57c-0.13,0.16-0.29,0.29-0.49,0.38
	C360.6,785.79,360.38,785.84,360.13,785.84z M363.27,785.84c-0.36,0-0.62-0.1-0.8-0.3c-0.17-0.2-0.23-0.47-0.18-0.82l0.27-1.7
	c0.06-0.34,0.2-0.61,0.44-0.82c0.24-0.2,0.54-0.3,0.89-0.3c0.36,0,0.62,0.1,0.8,0.3c0.17,0.2,0.24,0.47,0.18,0.81l-0.27,1.71
	c-0.06,0.34-0.2,0.62-0.44,0.82C363.92,785.74,363.62,785.84,363.27,785.84z M363.34,785.33c0.19,0,0.35-0.05,0.47-0.16
	c0.12-0.11,0.19-0.26,0.23-0.46l0.27-1.7c0.03-0.2,0.01-0.35-0.08-0.46c-0.08-0.11-0.22-0.16-0.41-0.16c-0.19,0-0.35,0.05-0.46,0.16
	c-0.12,0.1-0.19,0.26-0.22,0.46l-0.27,1.7c-0.03,0.2-0.01,0.35,0.08,0.46C363.02,785.28,363.15,785.33,363.34,785.33z
	 M365.28,785.79l0.61-3.83h0.71l0.62,3.19c0.01-0.1,0.02-0.22,0.03-0.36c0.01-0.14,0.03-0.29,0.04-0.44
	c0.02-0.15,0.04-0.29,0.06-0.41l0.31-1.98h0.52l-0.61,3.83h-0.71l-0.61-3.19c-0.01,0.09-0.02,0.21-0.03,0.34s-0.03,0.28-0.04,0.42
	c-0.02,0.15-0.04,0.28-0.06,0.41l-0.31,2.01H365.28z M368.23,785.79l1.59-3.83h0.75l0.37,3.83h-0.56l-0.07-0.97h-1.09l-0.39,0.97
	H368.23z M369.39,784.34h0.87l-0.09-1.1c-0.02-0.2-0.03-0.37-0.04-0.51c-0.01-0.14-0.01-0.24-0.01-0.3c-0.02,0.06-0.05,0.16-0.1,0.3
	c-0.05,0.14-0.11,0.31-0.19,0.5L369.39,784.34z M371.72,785.79l0.61-3.83h0.57l-0.52,3.31h1.67l-0.08,0.52H371.72z M376.68,785.84
	c-0.37,0-0.63-0.1-0.8-0.3c-0.17-0.2-0.22-0.48-0.17-0.82l0.44-2.76h0.57l-0.44,2.76c-0.03,0.2-0.01,0.35,0.07,0.46
	c0.08,0.11,0.21,0.17,0.41,0.17c0.19,0,0.35-0.06,0.46-0.17c0.12-0.11,0.19-0.27,0.22-0.46l0.44-2.76h0.57l-0.44,2.76
	c-0.06,0.35-0.2,0.62-0.43,0.82C377.35,785.74,377.05,785.84,376.68,785.84z M379.84,785.84c-0.39,0-0.67-0.1-0.87-0.29
	c-0.19-0.19-0.26-0.45-0.22-0.78h0.57c-0.03,0.17,0.01,0.31,0.12,0.41c0.11,0.1,0.27,0.15,0.48,0.15c0.2,0,0.37-0.05,0.5-0.15
	c0.13-0.1,0.21-0.23,0.24-0.4c0.02-0.15,0-0.28-0.06-0.39c-0.06-0.11-0.16-0.18-0.29-0.22l-0.46-0.14
	c-0.27-0.08-0.46-0.22-0.59-0.41c-0.13-0.19-0.17-0.42-0.13-0.68c0.04-0.21,0.11-0.39,0.23-0.55s0.27-0.28,0.46-0.37
	c0.19-0.09,0.4-0.13,0.64-0.13c0.35,0,0.62,0.1,0.8,0.29c0.18,0.19,0.25,0.44,0.2,0.76h-0.57c0.03-0.17,0-0.3-0.09-0.4
	c-0.09-0.1-0.23-0.14-0.42-0.14c-0.19,0-0.34,0.04-0.46,0.13c-0.12,0.09-0.19,0.21-0.21,0.38c-0.02,0.15-0.01,0.28,0.05,0.39
	c0.06,0.11,0.16,0.18,0.29,0.22l0.47,0.15c0.26,0.08,0.46,0.22,0.58,0.41c0.12,0.19,0.17,0.42,0.12,0.69
	c-0.04,0.22-0.12,0.41-0.24,0.57c-0.13,0.16-0.29,0.29-0.49,0.38C380.31,785.79,380.09,785.84,379.84,785.84z M381.91,785.79
	l0.61-3.83h2.25l-0.08,0.5h-1.7l-0.17,1.09h1.51l-0.08,0.5h-1.51l-0.19,1.24h1.69l-0.08,0.5H381.91z M386.94,785.84
	c-0.36,0-0.62-0.1-0.8-0.3c-0.17-0.2-0.23-0.47-0.18-0.82l0.27-1.7c0.06-0.34,0.2-0.61,0.44-0.82c0.24-0.2,0.54-0.3,0.89-0.3
	c0.36,0,0.62,0.1,0.8,0.3c0.17,0.2,0.24,0.47,0.18,0.81l-0.27,1.71c-0.06,0.34-0.2,0.62-0.44,0.82
	C387.6,785.74,387.3,785.84,386.94,785.84z M387.02,785.33c0.19,0,0.35-0.05,0.47-0.16c0.12-0.11,0.19-0.26,0.23-0.46l0.27-1.7
	c0.03-0.2,0.01-0.35-0.08-0.46c-0.08-0.11-0.22-0.16-0.41-0.16c-0.19,0-0.35,0.05-0.46,0.16c-0.12,0.1-0.19,0.26-0.22,0.46
	l-0.27,1.7c-0.03,0.2-0.01,0.35,0.08,0.46C386.7,785.28,386.83,785.33,387.02,785.33z M388.95,785.79l0.61-3.83h0.71l0.62,3.19
	c0.01-0.1,0.02-0.22,0.03-0.36c0.01-0.14,0.03-0.29,0.04-0.44c0.02-0.15,0.04-0.29,0.06-0.41l0.31-1.98h0.52l-0.61,3.83h-0.71
	l-0.61-3.19c-0.01,0.09-0.02,0.21-0.03,0.34c-0.01,0.13-0.03,0.28-0.04,0.42c-0.02,0.15-0.04,0.28-0.06,0.41l-0.31,2.01H388.95z
	 M392.25,785.79l0.61-3.83h0.57l-0.52,3.31h1.67l-0.08,0.52H392.25z M396.12,785.79l0.22-1.41l-0.75-2.42h0.58l0.45,1.45
	c0.03,0.09,0.05,0.18,0.07,0.27c0.02,0.08,0.03,0.15,0.03,0.19c0.02-0.04,0.05-0.1,0.09-0.19c0.04-0.08,0.09-0.17,0.14-0.27
	l0.9-1.45h0.6l-1.53,2.42l-0.22,1.41H396.12z M399.22,785.79l0.61-3.83h0.71l0.62,3.19c0.01-0.1,0.02-0.22,0.03-0.36
	c0.01-0.14,0.03-0.29,0.04-0.44c0.02-0.15,0.04-0.29,0.06-0.41l0.31-1.98h0.52l-0.61,3.83h-0.71l-0.61-3.19
	c-0.01,0.09-0.02,0.21-0.03,0.34c-0.01,0.13-0.03,0.28-0.04,0.42c-0.02,0.15-0.04,0.28-0.06,0.41l-0.31,2.01H399.22z M403.51,785.84
	c-0.36,0-0.62-0.1-0.8-0.3c-0.18-0.2-0.23-0.47-0.18-0.82l0.27-1.7c0.06-0.34,0.2-0.61,0.44-0.82c0.24-0.2,0.54-0.3,0.89-0.3
	c0.36,0,0.62,0.1,0.8,0.3c0.17,0.2,0.24,0.47,0.18,0.81l-0.27,1.71c-0.06,0.34-0.2,0.62-0.44,0.82
	C404.16,785.74,403.86,785.84,403.51,785.84z M403.58,785.33c0.19,0,0.35-0.05,0.47-0.16c0.12-0.11,0.19-0.26,0.23-0.46l0.27-1.7
	c0.03-0.2,0.01-0.35-0.08-0.46c-0.08-0.11-0.22-0.16-0.41-0.16c-0.19,0-0.35,0.05-0.46,0.16c-0.12,0.1-0.19,0.26-0.22,0.46
	l-0.27,1.7c-0.03,0.2-0.01,0.35,0.08,0.46C403.26,785.28,403.4,785.33,403.58,785.33z M406.38,785.79l0.52-3.31h-1.02l0.08-0.52
	h2.62l-0.08,0.52h-1.03l-0.52,3.31H406.38z M409.52,785.79l0.61-3.83h2.32l-0.08,0.52h-1.76l-0.18,1.14h1.63l-0.08,0.52h-1.62
	l-0.26,1.64H409.52z M413.77,785.84c-0.36,0-0.62-0.1-0.8-0.3c-0.18-0.2-0.23-0.47-0.18-0.82l0.27-1.7c0.06-0.34,0.2-0.61,0.44-0.82
	c0.24-0.2,0.54-0.3,0.89-0.3c0.36,0,0.62,0.1,0.8,0.3c0.17,0.2,0.24,0.47,0.18,0.81l-0.27,1.71c-0.06,0.34-0.2,0.62-0.44,0.82
	C414.42,785.74,414.13,785.84,413.77,785.84z M413.85,785.33c0.19,0,0.35-0.05,0.47-0.16c0.12-0.11,0.19-0.26,0.23-0.46l0.27-1.7
	c0.03-0.2,0.01-0.35-0.08-0.46c-0.08-0.11-0.22-0.16-0.41-0.16c-0.19,0-0.35,0.05-0.46,0.16c-0.12,0.1-0.19,0.26-0.22,0.46
	l-0.27,1.7c-0.03,0.2-0.01,0.35,0.08,0.46C413.52,785.28,413.66,785.33,413.85,785.33z M415.8,785.79l0.61-3.83h1.2
	c0.24,0,0.44,0.05,0.6,0.14c0.16,0.09,0.28,0.22,0.36,0.39c0.07,0.17,0.09,0.37,0.05,0.59c-0.04,0.26-0.14,0.48-0.3,0.67
	c-0.16,0.19-0.37,0.32-0.6,0.39l0.54,1.64h-0.62l-0.48-1.57h-0.54l-0.25,1.57H415.8z M416.69,783.71h0.64
	c0.19,0,0.35-0.06,0.48-0.17c0.13-0.11,0.21-0.26,0.24-0.45c0.03-0.19,0-0.35-0.09-0.46c-0.09-0.11-0.24-0.17-0.43-0.17h-0.64
	L416.69,783.71z M420.91,785.84c-0.36,0-0.63-0.1-0.81-0.3c-0.18-0.2-0.24-0.47-0.19-0.82l0.27-1.7c0.06-0.35,0.21-0.62,0.45-0.82
	s0.55-0.3,0.91-0.3c0.36,0,0.63,0.1,0.81,0.3c0.18,0.2,0.24,0.47,0.19,0.82h-0.57c0.03-0.2,0-0.35-0.09-0.46
	c-0.09-0.11-0.23-0.16-0.42-0.16c-0.19,0-0.35,0.05-0.48,0.16c-0.12,0.1-0.2,0.26-0.23,0.45l-0.27,1.71c-0.03,0.2,0,0.35,0.09,0.46
	c0.09,0.11,0.23,0.16,0.42,0.16c0.19,0,0.35-0.05,0.47-0.16c0.12-0.11,0.2-0.26,0.23-0.46h0.57c-0.03,0.23-0.11,0.43-0.24,0.59
	c-0.12,0.17-0.28,0.3-0.47,0.39C421.36,785.79,421.14,785.84,420.91,785.84z M424.03,785.84c-0.36,0-0.62-0.1-0.8-0.3
	c-0.18-0.2-0.23-0.47-0.18-0.82l0.27-1.7c0.06-0.34,0.2-0.61,0.44-0.82c0.24-0.2,0.54-0.3,0.89-0.3c0.36,0,0.62,0.1,0.8,0.3
	c0.17,0.2,0.24,0.47,0.18,0.81l-0.27,1.71c-0.06,0.34-0.2,0.62-0.44,0.82C424.69,785.74,424.39,785.84,424.03,785.84z
	 M424.11,785.33c0.19,0,0.35-0.05,0.47-0.16c0.12-0.11,0.19-0.26,0.23-0.46l0.27-1.7c0.03-0.2,0.01-0.35-0.08-0.46
	c-0.08-0.11-0.22-0.16-0.41-0.16c-0.19,0-0.35,0.05-0.46,0.16c-0.12,0.1-0.19,0.26-0.22,0.46l-0.27,1.7
	c-0.03,0.2-0.01,0.35,0.08,0.46C423.79,785.28,423.92,785.33,424.11,785.33z M425.97,785.79l0.61-3.83h0.69l0.18,1.23
	c0.02,0.12,0.04,0.23,0.05,0.33c0.01,0.1,0.02,0.18,0.03,0.24c0.02-0.06,0.05-0.14,0.09-0.24c0.04-0.11,0.09-0.22,0.15-0.34
	l0.57-1.22h0.71l-0.61,3.83h-0.54l0.2-1.29c0.02-0.17,0.06-0.35,0.1-0.55c0.04-0.2,0.09-0.4,0.14-0.61c0.05-0.2,0.1-0.4,0.14-0.59
	c0.05-0.19,0.09-0.35,0.13-0.49l-0.86,1.86h-0.55l-0.28-1.86c0,0.14-0.01,0.29-0.02,0.47c-0.01,0.18-0.02,0.37-0.04,0.57
	c-0.02,0.2-0.04,0.41-0.06,0.61c-0.02,0.2-0.05,0.4-0.08,0.57l-0.2,1.29H425.97z M429.11,785.79l0.61-3.83h0.69l0.18,1.23
	c0.02,0.12,0.04,0.23,0.05,0.33c0.01,0.1,0.02,0.18,0.03,0.24c0.02-0.06,0.05-0.14,0.09-0.24c0.04-0.11,0.09-0.22,0.15-0.34
	l0.57-1.22h0.71l-0.61,3.83h-0.54l0.2-1.29c0.02-0.17,0.06-0.35,0.1-0.55c0.04-0.2,0.09-0.4,0.14-0.61c0.05-0.2,0.1-0.4,0.14-0.59
	c0.05-0.19,0.09-0.35,0.13-0.49l-0.86,1.86h-0.55l-0.28-1.86c0,0.14-0.01,0.29-0.02,0.47c-0.01,0.18-0.02,0.37-0.04,0.57
	c-0.02,0.2-0.04,0.41-0.06,0.61c-0.02,0.2-0.05,0.4-0.08,0.57l-0.2,1.29H429.11z M432.41,785.79l0.61-3.83h2.25l-0.08,0.5h-1.7
	l-0.17,1.09h1.51l-0.08,0.5h-1.51l-0.19,1.24h1.69l-0.08,0.5H432.41z M435.51,785.79l0.61-3.83h1.2c0.24,0,0.44,0.05,0.6,0.14
	c0.16,0.09,0.28,0.22,0.36,0.39c0.07,0.17,0.09,0.37,0.05,0.59c-0.04,0.26-0.14,0.48-0.3,0.67c-0.16,0.19-0.37,0.32-0.6,0.39
	l0.54,1.64h-0.62l-0.48-1.57h-0.54l-0.25,1.57H435.51z M436.4,783.71h0.64c0.19,0,0.35-0.06,0.48-0.17
	c0.13-0.11,0.21-0.26,0.24-0.45c0.03-0.19,0-0.35-0.09-0.46c-0.09-0.11-0.24-0.17-0.43-0.17h-0.64L436.4,783.71z M439.8,785.84
	c-0.36,0-0.63-0.1-0.81-0.3c-0.18-0.2-0.24-0.47-0.19-0.82l0.27-1.7c0.06-0.35,0.21-0.62,0.45-0.82s0.55-0.3,0.91-0.3
	c0.36,0,0.63,0.1,0.81,0.3c0.18,0.2,0.24,0.47,0.19,0.82h-0.57c0.03-0.2,0-0.35-0.09-0.46c-0.09-0.11-0.23-0.16-0.42-0.16
	c-0.19,0-0.35,0.05-0.47,0.16c-0.12,0.1-0.2,0.26-0.23,0.45l-0.27,1.71c-0.03,0.2,0,0.35,0.09,0.46c0.09,0.11,0.23,0.16,0.42,0.16
	s0.35-0.05,0.47-0.16c0.12-0.11,0.2-0.26,0.23-0.46h0.57c-0.03,0.23-0.11,0.43-0.24,0.59c-0.12,0.17-0.28,0.3-0.47,0.39
	C440.25,785.79,440.04,785.84,439.8,785.84z M441.88,785.79l0.08-0.5h0.78l0.45-2.82h-0.78l0.08-0.5h2.13l-0.08,0.5h-0.78
	l-0.45,2.82h0.78l-0.08,0.5H441.88z M444.74,785.79l1.59-3.83h0.75l0.37,3.83h-0.56l-0.07-0.97h-1.09l-0.39,0.97H444.74z
	 M445.9,784.34h0.87l-0.09-1.1c-0.02-0.2-0.03-0.37-0.04-0.51c-0.01-0.14-0.01-0.24-0.01-0.3c-0.02,0.06-0.05,0.16-0.1,0.3
	c-0.05,0.14-0.11,0.31-0.19,0.5L445.9,784.34z M448.24,785.79l0.61-3.83h0.57l-0.52,3.31h1.67l-0.08,0.52H448.24z M453.19,785.84
	c-0.37,0-0.63-0.1-0.8-0.3c-0.17-0.2-0.22-0.48-0.17-0.82l0.44-2.76h0.57l-0.44,2.76c-0.03,0.2-0.01,0.35,0.07,0.46
	c0.08,0.11,0.21,0.17,0.41,0.17c0.19,0,0.35-0.06,0.46-0.17c0.12-0.11,0.19-0.27,0.22-0.46l0.44-2.76h0.57l-0.44,2.76
	c-0.06,0.35-0.2,0.62-0.43,0.82C453.86,785.74,453.56,785.84,453.19,785.84z M456.36,785.84c-0.39,0-0.67-0.1-0.87-0.29
	c-0.19-0.19-0.26-0.45-0.22-0.78h0.57c-0.03,0.17,0.01,0.31,0.12,0.41c0.11,0.1,0.27,0.15,0.48,0.15c0.2,0,0.37-0.05,0.5-0.15
	s0.21-0.23,0.24-0.4c0.02-0.15,0-0.28-0.06-0.39c-0.06-0.11-0.16-0.18-0.29-0.22l-0.46-0.14c-0.27-0.08-0.46-0.22-0.59-0.41
	c-0.13-0.19-0.17-0.42-0.13-0.68c0.04-0.21,0.11-0.39,0.23-0.55c0.12-0.16,0.27-0.28,0.46-0.37c0.19-0.09,0.4-0.13,0.64-0.13
	c0.35,0,0.62,0.1,0.8,0.29c0.18,0.19,0.25,0.44,0.2,0.76h-0.57c0.03-0.17,0-0.3-0.09-0.4c-0.09-0.1-0.23-0.14-0.42-0.14
	c-0.19,0-0.34,0.04-0.46,0.13c-0.12,0.09-0.19,0.21-0.21,0.38c-0.02,0.15-0.01,0.28,0.05,0.39c0.06,0.11,0.16,0.18,0.29,0.22
	l0.47,0.15c0.26,0.08,0.46,0.22,0.58,0.41c0.12,0.19,0.17,0.42,0.12,0.69c-0.04,0.22-0.12,0.41-0.24,0.57
	c-0.13,0.16-0.29,0.29-0.49,0.38C456.82,785.79,456.6,785.84,456.36,785.84z M458.42,785.79l0.61-3.83h2.25l-0.08,0.5h-1.7
	l-0.17,1.09h1.51l-0.08,0.5h-1.51l-0.19,1.24h1.69l-0.08,0.5H458.42z"/>
<path style="fill:#26375F;" d="M702.16,219.09c-20.85-11.75-41.79-22.26-62.8-31.57c-6.28-43-21.23-76.72-44.61-100.48
	C564.61,56.39,528.98,50,504.46,50H296.03c-24.52,0-60.15,6.39-90.3,37.04c-23.47,23.75-38.37,57.39-44.62,100.38
	c-21.09,9.33-42.1,19.88-63.03,31.67l-9.07,5.11l3.83,12.77c12.26,40.49,24.52,80.97,36.78,121.33l3.58,12.01l8.56-4.73
	c5.32-2.97,10.65-5.85,15.98-8.64c-0.01,0.97-0.03,1.92-0.03,2.9c0,58.11,11.75,113.02,35.12,162.96
	c17.7,37.96,41.98,72.9,72.15,104.1c1.97-2.81,4.33-5.43,7.17-7.63c0,0,2.61-2.05,6.23-3.36c-29.28-30.08-52.79-63.76-69.82-100.39
	c-22.22-47.64-33.46-100-33.46-155.68c0-3.98,0.07-7.88,0.19-11.72c9.03-4.37,18.07-8.48,27.12-12.33
	c-0.5,7.35-0.77,15.13-0.77,23.4c0,145.43,81.59,232.58,140.14,276.4c27.61-4.38,57-6.8,83.88-6.8c11.93,0,25.38,0.49,39.2,1.9
	c57.91-45.27,133.73-131.31,133.73-271.49c0-8.23-0.27-15.98-0.77-23.31c9.16,3.9,18.3,8.06,27.44,12.49
	c0.12,3.76,0.19,7.57,0.19,11.47c0,55.68-11.24,108.05-33.46,155.68c-17.75,38.06-42.53,73.18-73.56,104.21
	c-6.02,6.02-12.03,11.64-17.98,16.89c6.59,1.61,13.04,3.53,19.21,5.8c3.65-3.39,7.31-6.9,10.96-10.55
	c32.44-32.44,58.36-69.1,77.01-109.07c23.24-49.93,35.12-104.72,35.12-162.96c0-0.89-0.02-1.76-0.03-2.65
	c5.18,2.71,10.35,5.51,15.52,8.39l8.56,4.73l3.58-12.01c6.13-20.18,12.26-40.49,18.39-60.66c6.13-20.17,12.26-40.49,18.39-60.66
	l3.83-12.77L702.16,219.09z M218.02,99.17c25.93-26.31,56.7-31.93,77.91-31.93h208.53c21.2,0,51.98,5.49,77.91,31.93
	c18.85,19.19,31.6,46.11,38.07,80.3c-11.01-4.49-22.04-8.64-33.08-12.45c-9.3-24.7-23.26-41.21-37.82-52.22v40.48
	c-5.23-1.44-10.47-2.81-15.71-4.1v-46.25c-11.84-6.09-23.1-9.16-31.54-10.71v50.1c-5.24-0.99-10.47-1.9-15.71-2.74V92.66h1.84
	c-0.53-0.01-0.82-0.01-0.82-0.01h-91.06h-83.65c0,0-0.29,0-0.83,0.01h1.72v48.91c-5.24,0.83-10.47,1.75-15.71,2.74V94.24
	c-8.46,1.55-19.71,4.64-31.54,10.73v46.18c-5.24,1.29-10.47,2.66-15.71,4.1v-40.39c-14.52,11-28.43,27.47-37.71,52.09
	c-11.08,3.82-22.14,7.98-33.19,12.48C186.36,145.23,199.08,118.36,218.02,99.17z M360.91,136.1c-5.24,0.38-10.47,0.84-15.71,1.37
	V92.66h15.71V136.1z M408.04,134.74c-2.64-0.04-5.28-0.07-7.92-0.07c-2.6,0-5.19,0.03-7.79,0.07V92.66h15.71V134.74z M455.16,137.49
	c-5.24-0.53-10.47-0.99-15.71-1.37V92.66h15.71V137.49z M527.19,495.35c-2.94,15.58-11.11,27.84-19.03,38.57
	c-18.26,24.78-43.55,43.17-78.29,51.72c-12.39,3.07-30.91,5.11-45.72,2.43c-7.66-1.4-14.81-2.55-21.71-4.73
	c-42.53-13.28-76.5-45.59-89.27-88.76c-3.19-10.48-3.96-24.91-3.96-37.94c-0.38-23.75,5.36-45.08,13.15-60.79
	c1.79-3.45,2.17-6.9,4.09-9.96c6.9-11.75,26.05-29.37,26.05-29.37l11.62-10.34c0,0,22.99-15.2,37.55-19.67
	c6.9-2.17,14.56-2.81,22.61-4.09c15.07-2.43,33.21-0.26,45.47,2.81c35.12,8.81,57.85,26.69,76.88,51.34
	c13.03,16.86,25.16,32.69,25.03,61.94c0,0.26,0,0.77,0,0.77s4.34,30.01-4.21,54.28C527.58,493.94,527.19,494.84,527.19,495.35z
	 M661.94,352.93c-6.53-3.64-13.05-7.12-19.58-10.48c0-0.01,0-0.03,0-0.04c-1.54-0.79-3.07-1.55-4.61-2.33
	c-0.2-0.1-0.4-0.2-0.61-0.31c-2.37-1.19-4.73-2.36-7.1-3.52c-0.6-0.3-1.21-0.59-1.81-0.88c-1.24-0.6-2.49-1.22-3.73-1.81
	c0,0.01,0,0.02,0,0.03c-9.36-4.46-18.72-8.66-28.08-12.57c0-0.01,0-0.01,0-0.02c-29.92-12.47-59.83-22.08-89.76-28.84
	c-0.05-0.01-0.09-0.02-0.14-0.03c-5.39-1.22-10.78-2.34-16.17-3.37c-0.13-0.03-0.27-0.05-0.4-0.08c-2.52-0.48-5.04-0.94-7.55-1.38
	c-0.2-0.04-0.41-0.07-0.61-0.11c-5.24-0.91-10.47-1.73-15.71-2.46c-0.39-0.05-0.78-0.11-1.17-0.16c-2.19-0.3-4.38-0.59-6.56-0.85
	c-0.48-0.06-0.96-0.12-1.44-0.18c-4.99-0.6-9.99-1.12-14.99-1.56c-0.76-0.07-1.52-0.13-2.28-0.19c-1.71-0.14-3.42-0.28-5.13-0.4
	c-0.87-0.06-1.74-0.13-2.61-0.19c-1.91-0.13-3.82-0.24-5.73-0.35c-1.18-0.07-2.37-0.12-3.55-0.18c-1.58-0.07-3.15-0.15-4.73-0.21
	c-1.23-0.05-2.45-0.08-3.68-0.12c-1.12-0.03-2.23-0.06-3.35-0.09c-1.35-0.03-2.71-0.06-4.06-0.08c-0.81-0.01-1.61-0.01-2.42-0.02
	c-1.41-0.01-2.83-0.04-4.24-0.04c-1.65,0-3.3,0.03-4.96,0.04c-0.43,0-0.85,0.01-1.28,0.01c-1.73,0.02-3.47,0.06-5.2,0.1
	c-0.49,0.01-0.98,0.02-1.46,0.04c-83.04,2.27-165.97,26.47-248.91,72.61c-12.26-40.49-24.52-80.97-36.78-121.33
	c19.23-10.82,38.49-20.57,57.77-29.29c0,0.04-0.01,0.08-0.01,0.12c6.08-2.75,12.16-5.4,18.25-7.94c0-0.04,0.01-0.07,0.01-0.11
	c10.2-4.26,20.41-8.21,30.62-11.88c-0.01,0.03-0.02,0.06-0.03,0.1c14.21-5.11,28.43-9.68,42.66-13.65v-0.06
	c5.24-1.46,10.47-2.83,15.71-4.14v0.05c10.51-2.63,21.02-4.95,31.54-6.96v-0.04c5.24-1,10.47-1.91,15.71-2.75v0.03
	c10.47-1.69,20.94-3.08,31.42-4.16v-0.02c5.24-0.54,10.47-0.99,15.71-1.38v0.02c10.47-0.77,20.94-1.24,31.42-1.39v-0.01
	c2.64-0.04,5.28-0.07,7.92-0.07c2.6,0,5.19,0.03,7.79,0.07v0.01c5.12,0.07,10.23,0.22,15.35,0.44c0.24,0.01,0.47,0.02,0.71,0.03
	c2.44,0.11,4.88,0.23,7.32,0.37c0.19,0.01,0.37,0.02,0.56,0.03c2.49,0.15,4.98,0.31,7.47,0.49v0c5.24,0.38,10.47,0.84,15.71,1.37v0
	c2.18,0.22,4.35,0.47,6.53,0.72c0.59,0.07,1.19,0.13,1.78,0.2c2.07,0.24,4.15,0.5,6.22,0.77c0.71,0.09,1.41,0.18,2.12,0.28
	c2.09,0.28,4.18,0.57,6.26,0.87c0.6,0.09,1.2,0.18,1.8,0.27c2.2,0.33,4.41,0.66,6.61,1.02c5.32,0.86,10.64,1.78,15.96,2.8
	c1.43,0.27,2.86,0.56,4.29,0.85c1.43,0.28,2.87,0.57,4.3,0.86c1.57,0.33,3.14,0.66,4.72,1c1.23,0.27,2.46,0.53,3.69,0.81
	c1.71,0.38,3.42,0.77,5.13,1.17c1.06,0.25,2.13,0.5,3.19,0.75c1.79,0.43,3.58,0.86,5.36,1.3c7.73,1.92,15.45,4.01,23.18,6.26
	c1.01,0.29,2.01,0.57,3.02,0.87c1.77,0.53,3.55,1.08,5.32,1.63c1.62,0.5,3.24,0.99,4.86,1.5c1.57,0.5,3.14,1.01,4.71,1.53
	c1.85,0.6,3.7,1.21,5.55,1.83c1.46,0.49,2.93,0.99,4.39,1.5c1.91,0.66,3.81,1.32,5.72,2c36.38,12.92,72.68,29.55,108.85,49.93
	C686.46,272.09,674.2,312.57,661.94,352.93z M624.76,247.96c2.55-5.75,4.98-11.62,7.54-17.37c2.43,1.15,4.85,2.17,7.28,3.32
	c-3.7,8.17-7.28,16.35-10.98,24.65c-14.69-6.64-29.89-12.64-45.08-18.9c-7.54-2.94-14.94-5.75-22.48-8.68v-0.13
	c5.49-15.33,11.23-30.4,17.11-45.6c2.43,0.89,4.85,1.79,7.28,2.68c-4.85,12.64-9.58,25.42-14.43,38.06
	c5.75,2.3,11.37,4.47,17.11,6.77C600.37,237.87,612.5,242.98,624.76,247.96z M476.75,216.93c-4.85-8.17-0.38-19.41,5.24-23.5
	c1.92,1.53,5.62,4.73,5.62,4.73l-1.02,1.02c0,0-2.43,3.32-3.32,5.36c-2.68,6.9,3.07,11.62,7.41,13.28
	c5.24,2.04,17.11,2.3,19.03-2.81c1.28-3.19-4.09-8.05-5.24-9.96c-3.45-5.62-1.79-13.15,3.07-16.22c2.67-1.92,5.99-2.05,5.99-2.05
	s6-0.64,13.03,3.58c-1.15,2.43-2.17,4.85-3.32,7.28c-2.17-1.4-10.73-6-12.52-1.02c-1.28,3.19,4.34,8.68,5.62,10.73
	c4.98,8.05-1.4,15.71-7.92,18.39C496.16,230.72,481.47,224.85,476.75,216.93z M549.16,209c1.4-7.28-7.54-8.43-12.26-9.71
	c0.76-2.29,1.4-4.72,2.17-7.14c6.26,1.02,14.43,3.96,17.24,8.68c3.32,5.75-0.64,13.67-2.17,18.52c-0.77,2.68-1.66,5.24-2.43,7.92
	c-8.43-2.68-16.73-5.24-25.16-7.92c0.77-2.55,1.53-4.98,2.3-7.54c6,1.79,11.88,3.58,17.88,5.36
	C547.5,214.49,548.39,211.68,549.16,209z M636.77,220.11c0.77-1.02,2.04-1.27,3.19-1.66c5.11,0.51,6,7.41,0.77,8.17
	C637.41,227.13,634.86,222.92,636.77,220.11z M486.2,229.57c5.36,0.13,6.26,7.02,1.28,8.05C482.49,238.63,480.7,231.87,486.2,229.57
	z M496.03,231.74c5.24-0.26,7.15,6.13,2.81,7.66C492.96,241.57,491.3,234.29,496.03,231.74z M448.65,157.28
	c2.55,0.26,4.98,0.38,7.54,0.64c-1.41,16.35-2.56,32.44-3.71,48.66c-2.55-0.13-5.11-0.38-7.66-0.51
	C446.1,189.85,447.37,173.63,448.65,157.28z M384.92,163.79c6.13-0.26,6.13,7.02,1.15,8.05
	C381.22,172.73,380.07,166.22,384.92,163.79z M433.46,205.56c0.64-16.22,1.15-32.44,1.79-48.79c-1.8-0.13-3.59-0.26-5.5-0.38
	c-0.77,0-1.4,0-2.17,0c-0.51,13.54-1.02,27.08-1.53,40.74c-8.56,0-13.54-0.51-25.8-0.13c-0.26-10.6-1.02-18.65-9.71-20.82
	c-12.64-3.19-22.99,11.11-16.35,21.84v0.13c-4.98,0-13.67,1.28-13.67,1.28l-22.35,2.43c0,0-10.6,2.17-13.15,0.13
	c-3.7-2.94-2.17-12.01-4.09-16.73c-1.15-1.02-5.87,0.64-7.66,0.77c0.51,3.32,3.58,15.84,2.3,18.26c-0.89,1.79-12.64,3.07-12.64,3.07
	l-31.03,6.9c0,0-9.58,3.19-11.62,2.3c-5.62-2.3-5.11-13.41-13.41-16.22c-7.15-2.43-12.01,3.45-16.6,5.24
	c-0.51,1.66,2.55,4.6,3.32,6.51c1.4,0.38,5.24-3.19,7.54-3.83c5.24-1.28,6.13,3.83,7.66,6.9c0.77,1.28,1.53,2.55,2.3,3.83
	c0.26,0.26,0.38,0.38,0.64,0.64c-13.92,3.83-27.46,8.05-40.49,13.15c-4.85,1.92-9.58,3.7-14.43,5.62
	c-5.11-12.52-10.34-25.03-15.45-37.55c-2.43,0.89-4.85,1.92-7.28,2.81c6.13,15.07,12.26,30.14,18.39,45.08
	c4.09-1.66,8.05-3.32,12.13-4.98c11.62-4.09,23.24-8.17,34.74-12.26c5.62-1.79,15.45-2.3,17.11-8.05c5.24,2.3,11.75,0,16.6-1.28
	c11.49-2.55,22.99-4.98,34.48-7.54c6.51-1.53,13.28-1.02,15.2-7.02c1.53,1.02,2.68,2.55,4.6,3.07c2.55,0.77,6.13-0.26,8.43-0.64
	c6.9-0.77,20.69-2.43,20.69-2.43l21.33-1.79l7.28-0.13l21.46-0.64l12.13-0.13C418.65,204.92,428.48,205.3,433.46,205.56z
	 M383.51,196.75c-3.7-2.04-4.47-9.2-0.77-12.01c1.15-0.89,3.07-1.53,5.11-1.15c5.11,1.15,4.6,7.66,4.73,13.67
	C389.64,197.39,385.68,197.9,383.51,196.75z M327.32,215.9c5.36-0.26,6.51,6.26,2.3,7.66C324.25,225.61,321.83,218.84,327.32,215.9z
	 M314.42,219.22c0.64-0.89,1.79-1.15,2.94-1.66c5.87-0.13,5.75,7.54,0.51,8.05C314.68,225.99,312.51,221.78,314.42,219.22z
	 M184.42,252.3c-6.51,2.94-12.9,5.87-19.41,8.81c-1.02-2.17-1.92-4.34-2.94-6.51c1.53-0.77,2.94-1.53,4.47-2.3
	c-4.34-1.53-7.28-8.94-3.96-13.67c2.8-3.7,6.76-4.08,11.36-6.13c0.26,0,0.38,0,0.64,0c0.51,2.3,1.15,4.6,1.66,6.9
	c-0.13,0-0.26,0-0.38,0c-2.68,1.4-6.77,1.53-7.02,5.24c2.94,7.66,8.81,0.89,12.77,1.15C182.5,247.96,183.53,250.13,184.42,252.3z
	 M393.22,236.59c0.51,11.88,1.02,23.75,1.53,35.63c-2.68,0.13-5.36,0.26-8.05,0.38c-0.26-4.98-0.38-9.96-0.64-14.94
	c-0.77,0-1.4,0-2.17,0c-3.7,0.13-7.28,0.38-10.98,0.51c0.13,4.98,0.38,9.96,0.51,14.94c-2.68,0.13-5.36,0.26-8.05,0.38
	c-0.51-11.88-1.02-23.75-1.53-35.63c2.68-0.13,5.36-0.26,8.05-0.38c0.26,4.6,0.38,9.07,0.64,13.67c4.34-0.13,8.81-0.38,13.15-0.51
	c-0.13-4.6-0.38-9.07-0.51-13.67C387.85,236.85,390.54,236.72,393.22,236.59z M350.31,238.89c-3.07,7.28-6.13,14.56-9.2,21.84
	c0.64,4.98,1.15,9.96,1.79,14.94c-2.68,0.38-5.36,0.64-8.05,1.02c-0.51-4.85-1.15-9.71-1.66-14.56c-4.6-6.51-9.07-12.9-13.67-19.41
	v-0.13c1.66-0.13,8.3-1.4,9.2-0.64c2.68,4.73,5.49,9.45,8.17,14.18c1.53-5.36,2.94-10.73,4.47-16.09c2.82-0.51,5.63-0.77,8.31-1.15
	C349.93,238.89,350.05,238.89,350.31,238.89z M419.14,236.97c-4.09,11.75-8.05,23.37-12.13,35.12c2.81,0.13,5.62,0.26,8.43,0.38
	c0.89-3.07,1.92-6,2.81-9.07c3.45,0.13,6.77,0.38,10.22,0.51c0.77,3.07,1.53,6.13,2.3,9.2c2.94,0.13,5.75,0.26,8.68,0.38
	c-3.19-12.12-6.38-24.13-9.58-36.01C426.29,237.35,422.72,237.1,419.14,236.97z M427.45,257.79c-2.55-0.13-5.11-0.26-7.66-0.38
	c1.4-4.73,2.81-9.58,4.21-14.3c1.15,4.73,2.3,9.45,3.45,14.18C427.45,257.41,427.45,257.66,427.45,257.79z M275.1,272.87
	c-4.09,1.15-8.17,2.17-12.26,3.32c1.15,4.6,2.3,9.2,3.45,13.79c-2.68,0.64-5.24,1.15-7.92,1.79c-2.94-11.49-5.75-22.99-8.68-34.48
	c6.62-1.93,13.52-3.71,20.29-5.37c0.26,0,0.51,0.13,0.77,0.13c0.51,2.04,1.02,4.21,1.53,6.26c-4.34,1.15-8.81,2.17-13.15,3.32
	c0,0.26,0,0.38,0,0.64c0.77,2.43,1.4,4.85,2.17,7.28c3.96-1.02,8.05-2.04,12.01-3.07C273.95,268.65,274.46,270.69,275.1,272.87z
	 M291.3,247.44c-1.4,12.39-2.81,24.78-4.22,37.04c2.68-0.51,5.49-1.02,8.17-1.53c0.26-3.07,0.51-6.26,0.77-9.32
	c3.45-0.64,6.77-1.28,10.22-1.92c1.4,2.68,2.81,5.49,4.22,8.17c0.26,0.26,7.28-0.89,8.17-1.28c0.13,0,0.26,0,0.38,0
	c-5.74-10.85-11.49-21.7-17.24-32.69C300.88,245.14,293.34,247.19,291.3,247.44z M296.16,267.5c0.38-4.98,0.64-9.96,1.02-14.94
	c2.3,4.47,4.47,8.94,6.77,13.41C301.39,266.47,298.71,266.99,296.16,267.5z M244.04,288.82c0.77,2.17,1.4,4.34,2.17,6.51
	c-5.11,1.66-10.34,3.45-15.45,5.11c-1.28,0.38-4.6,2.3-5.62,1.66c-3.83-11.11-7.66-22.09-11.49-33.21c2.43-0.88,4.86-1.78,7.28-2.67
	c0.13,0,0.38,0,0.51,0c3.07,9.07,6.26,18.14,9.32,27.2C235.23,291.89,239.57,290.35,244.04,288.82z M187.6,279.37
	c-3.07,1.53-6.13,3.07-9.2,4.6c1.79,12.13,3.58,24.14,5.36,36.27c0,0.13,0,0.26,0,0.38c2.55-1.15,4.98-2.3,7.54-3.45
	c-0.51-3.07-1.15-6.13-1.66-9.2c3.07-1.53,6.13-2.94,9.2-4.47c1.92,2.17,3.83,4.21,5.75,6.39c1.79,1.15,6-2.17,8.43-2.94
	c0-0.13,0.13-0.26,0.13-0.38c-6.01-6.38-12.01-12.76-18.01-19.28C193.35,285.12,190.29,280.27,187.6,279.37z M188.37,301.72h-0.13
	c-0.89-4.85-1.92-9.71-2.81-14.56c2.81,3.32,5.75,6.64,8.56,9.96c0.38,0.38,0.89,0.89,1.28,1.28
	C192.97,299.55,190.67,300.7,188.37,301.72z M501.39,246.68c-0.89,2.04-1.79,4.21-2.68,6.26c-9.32-5.75-22.35-0.89-19.67,12.13
	c1.4,7.02,7.92,9.45,16.22,8.56c0.13,1.53,0.77,5.36-0.13,6.39c-2.81,1.28-8.17,0.26-10.86-0.51c-8.56-2.3-16.35-8.81-13.41-21.2
	c1.4-6.13,4.85-10.98,10.22-13.28c1.92-0.39,3.84-0.91,5.75-1.42C493.34,243.48,497.17,245.01,501.39,246.68z M517.87,279.38
	c4.6,1.15,9.07,2.43,13.67,3.58c-0.51,2.17-1.15,4.34-1.66,6.51h-0.13c-5.24-1.4-10.47-2.81-15.71-4.21
	c-1.53-0.38-4.85-0.51-5.62-1.79c2.93-11.25,5.87-22.61,8.81-33.85c2.68,0.64,5.24,1.28,7.92,1.92
	C522.72,260.86,520.3,270.19,517.87,279.38z M572.66,267.12c2.43,0.89,4.98,1.92,7.41,2.81c-1.53,3.83-2.94,7.79-4.47,11.62
	c-3.45,8.81-6.64,21.97-20.82,17.5c-1.92-0.89-3.7-1.79-5.62-2.68c-11.62-8.31,0.89-27.09,3.7-36.79c2.55,0.89,4.98,1.79,7.54,2.68
	c-2.55,6.9-5.11,13.79-7.66,20.69c-1.28,4.21-0.13,8.17,2.94,9.58c4.09,1.66,6.64-0.89,8.17-3.32
	C567.94,282.82,568.58,273.63,572.66,267.12z M596.03,277.46c-4.98,10.6-9.83,21.2-14.81,31.8c5.87,2.55,10.47,6.13,17.88,7.41
	c6.39,1.02,12.52-4.34,11.11-10.98c-0.51-2.55-2.17-3.96-3.45-5.62c7.15,0.25,11.87-5.88,8.17-12.14
	C611.48,282.31,602.8,279.63,596.03,277.46z M600.63,309.13c-3.07,2.3-7.15-0.51-9.58-1.28c-0.13-0.13-0.26-0.38-0.38-0.51
	c1.4-2.94,2.81-5.87,4.21-8.81C598.2,299.94,606.63,304.53,600.63,309.13z M607.27,293.93c-2.17,3.19-7.28,0.38-9.71-0.51
	c1.15-2.55,2.17-4.98,3.32-7.54C604.2,286.14,610.2,289.59,607.27,293.93z M393.73,653.32c0.25,0.77,0.38,1.66,0.38,2.43
	c0,0.64-0.13,1.4-0.26,2.17c-0.25,0.77-0.51,1.53-0.89,2.17c-0.38,0.64-0.89,1.28-1.53,1.66c-0.64,0.51-1.28,0.77-2.17,0.77
	c-1.91,0.12-3.32-0.39-3.94-1.53c-0.76-1.28-1.15-2.94-1.02-5.11c0-0.77,0.12-1.53,0.38-2.3c0.12-0.76,0.51-1.4,0.89-2.04
	s0.89-1.15,1.53-1.53s1.28-0.64,2.17-0.64s1.53,0.13,2.17,0.51c0.51,0.25,1.02,0.76,1.4,1.4
	C393.22,651.79,393.47,652.55,393.73,653.32z M540.09,657.92c-52.62-33.84-160.79-26.31-224.9-12.26s-40.1-25.16-40.1-25.16
	c-14.18,16.73-14.69,34.23-14.69,34.23s-8.81,60.66,55.3,46.61s172.29-21.58,224.9,12.26l-11.49-35.12L540.09,657.92z M372.4,681.54
	h-8.81v-31.29h-3.83l4.72-7.28h7.92V681.54z M402.16,669.04c-0.38,2.43-1.15,4.6-2.17,6.64c-1.02,1.92-2.55,3.58-4.47,4.73
	c-1.92,1.28-4.34,1.79-7.41,1.92c-1.79,0-3.58-0.13-5.24-0.51c-1.66-0.38-3.07-1.02-4.47-1.92l0.51-8.68
	c0.89,1.79,2.17,2.94,3.58,3.58c1.66,0.74,3.07,1,4.6,1c1.53,0,2.68-0.26,3.7-0.89s1.79-1.4,2.3-2.43c0.51-1.02,0.89-2.04,1.02-3.32
	c0.13-1.15,0.13-2.43-0.13-3.58c-0.26,0.77-0.77,1.28-1.28,1.92c-0.64,0.51-1.28,1.02-2.04,1.28c-0.77,0.38-1.66,0.64-2.55,0.77
	c-0.89,0.13-1.79,0.13-2.68,0.13c-1.53-0.13-2.81-0.51-3.96-1.15c-1.15-0.64-2.04-1.4-2.81-2.43c-0.89-1.28-1.66-2.68-2.04-4.34
	c-0.38-1.66-0.64-3.32-0.64-4.98c0-1.79,0.13-3.58,0.64-5.24s1.02-3.07,1.53-4.09c0.89-1.53,2.17-2.81,3.58-3.7
	c1.53-0.89,3.19-1.53,5.24-1.79c3.32-0.38,6.26,0.13,8.68,1.4c2.55,1.28,4.34,3.58,5.62,6.9c0.51,1.4,0.89,3.19,1.15,5.11
	c0.26,2.04,0.38,4.09,0.38,6.26C402.8,664.18,402.54,666.61,402.16,669.04z M426.56,678.73c-2.3,2.3-5.62,3.45-9.96,3.7
	c-1.79,0-3.7-0.13-5.49-0.51s-3.32-1.02-4.73-1.92l0.51-8.68c1.15,1.66,2.43,2.94,3.83,3.58c1.4,0.77,2.94,1.02,4.34,1.02
	c1.4,0,2.55-0.38,3.7-1.15s1.79-2.04,2.04-3.7c0.26-1.92,0-3.58-0.89-4.73c-0.89-1.28-2.43-1.79-4.47-1.66
	c-2.04,0.13-3.96,1.02-5.62,2.55l-4.09-1.79l2.81-22.61h17.75v7.28h-10.98v0.14h0l-0.89,8.94c0.77-0.51,1.66-0.77,2.55-0.89
	c0.89-0.13,1.92-0.26,2.81-0.26c1.53,0,2.81,0.26,4.09,0.77c1.15,0.51,2.3,1.28,3.07,2.17c0.77,0.89,1.53,2.04,2.04,3.45
	c0.51,1.28,0.77,2.81,0.77,4.47C429.88,673.24,428.86,676.43,426.56,678.73z M454.14,675.41c-0.38,1.41-1.15,2.55-2.04,3.45
	c-1.15,1.28-2.68,2.17-4.47,2.55c-1.79,0.51-3.7,0.77-5.62,0.77s-3.83-0.26-5.62-0.77c-1.92-0.51-3.45-1.28-4.85-2.3l1.28-7.92
	c0.77,1.15,1.92,2.17,3.32,2.94c1.4,0.77,2.81,1.15,4.34,1.15c1.53,0,2.81-0.38,3.96-1.15c1.02-0.77,1.66-2.04,1.53-3.7
	c0-1.02-0.26-1.92-0.51-2.55c-0.38-0.64-0.77-1.15-1.4-1.53c-0.64-0.38-1.4-0.64-2.17-0.77c-0.89-0.13-1.79-0.26-2.94-0.26h-3.83
	v-6.39h2.04c0.89,0,1.79-0.13,2.81-0.26c1.02-0.13,1.92-0.38,2.68-0.77c0.77-0.38,1.53-0.89,2.04-1.66
	c0.51-0.64,0.89-1.66,0.89-2.68c0-1.4-0.38-2.55-1.28-3.19c-0.89-0.64-1.92-1.02-3.32-1.02c-0.64,0-1.4,0.13-2.04,0.26
	c-0.77,0.13-1.4,0.38-2.04,0.77c-0.64,0.38-1.28,0.64-1.79,1.15c-0.51,0.38-1.02,0.89-1.4,1.28l-1.53-8.17
	c1.65-0.9,3.44-1.66,5.36-2.05c1.92-0.38,3.83-0.64,5.87-0.64c0.89,0,1.92,0.13,2.94,0.38c1.02,0.26,1.92,0.51,2.81,1.02
	c0.89,0.51,1.66,1.02,2.43,1.79c0.77,0.77,1.28,1.66,1.66,2.68c0.51,1.28,0.77,2.55,0.77,3.96c0,1.4-0.13,2.68-0.51,3.96
	s-0.89,2.43-1.79,3.32c-0.77,1.02-1.79,1.79-3.07,2.3c1.02,0.26,1.92,0.77,2.68,1.4c0.77,0.64,1.4,1.4,1.92,2.17
	c0.51,0.89,0.89,1.79,1.15,2.81c0.26,1.02,0.38,2.04,0.38,3.07C454.78,672.47,454.52,674,454.14,675.41z M469.86,542.97
	c-2.43,0.26-4.98,0.51-7.41,0.77c-8.3,1.4-19.79-1.02-26.18-2.94c-2.68-0.77-5.24-1.53-7.92-2.3c-0.64-4.47-1.15-9.07-1.79-13.54
	c-2.04-10.98-3.96-21.83-6-32.69c8.55-9.58,16.98-19.03,25.54-28.48c3.06-3.95,7.28-7.15,9.96-11.49
	c14.04,2.17,28.09,4.34,42.27,6.64c5.24,8.68,7.28,20.82,7.28,34.61c0,2.81,0.26,6.38-0.38,8.68
	c-3.96,13.02-13.66,24.01-23.24,31.67C478.29,536.84,474.59,541.31,469.86,542.97z M524.38,423.69c0,0.13,0,0.38,0,0.51h-0.13
	c-2.3-2.69-4.6-5.37-6.9-8.05c0-1.27-0.13-2.42-0.13-3.7c-0.64-2.81-1.15-5.75-1.79-8.56c-2.56-7.92-6.39-15.07-10.73-21.07
	c-2.93-3.96-6.51-8.68-10.34-11.75c-1.66-1.41-3.19-2.69-4.85-4.09c-0.12-0.89-0.25-1.66-0.38-2.55
	C507.65,377.97,516.59,399.17,524.38,423.69z M519.27,502.75c0.39,2.8-7.79,16.85-9.46,19.66c-8.82,14.31-18.91,26.57-32.06,36.4
	c-4.34,3.32-9.32,8.04-14.81,9.96c3.71-5.75,7.54-12.9,8.56-21.07c13.16-6.64,32.95-26.82,37.55-41.76
	C512.5,504.79,516.59,504.67,519.27,502.75z M436.38,385.12c2.94-6.77,5.11-14.56,8.94-20.56c0.77-0.13,1.66-0.38,2.43-0.51
	c10.6,0,20.05,1.4,28.6,3.7c2.43,0.64,4.99,1.15,7.54,1.79c2.17,0.89,3.7,2.94,5.49,4.34c8.43,6.77,15.46,16.98,19.67,27.84
	c6,15.2,0.89,32.18-5.62,43.42c-1.66,2.81-3.19,5.75-4.85,8.56c-13.8-2.04-27.72-4.09-41.51-6.13
	c-3.95-11.49-11.49-21.45-17.62-31.16c-2.81-4.34-6.39-11.36-10.22-14.43C431.65,396.36,433.95,390.74,436.38,385.12z
	 M392.84,334.93c21.2,0.26,38.95,14.94,47.38,28.1c-5.11,12.01-10.09,23.88-15.2,35.89c-12.13,0-22.73,2.94-32.69,5.49
	c-6.9,1.79-14.31,2.81-20.31,5.49c-3.07-2.81-6.13-5.62-9.2-8.43c-4.98-3.83-10.09-7.28-15.2-10.98c-2.68-1.79-5.36-3.7-8.04-5.62
	c-1.66-3.7,3.83-15.83,5.11-18.9c6.38-14.56,11.11-23.89,27.84-28.1c4.73-0.77,9.32-1.66,14.05-2.43
	C388.63,335.31,390.8,335.06,392.84,334.93z M272.91,456.9C272.91,456.9,272.91,456.9,272.91,456.9c0-17.49,2.81-33.97,7.79-46.74
	c2.04-4.73,4.09-9.32,6.13-14.05c0.26-0.13,0.38-0.38,0.64-0.51c2.3,4.59,2.43,14.94,6.77,17.11c-1.91,5.11-4.98,9.7-6.64,15.45
	c-3.32,11.11-2.43,26.56-1.15,38.95c-3.7,4.86-9.19,10.6-9.96,18.14C274.21,482.46,272.8,463.16,272.91,456.9z M272.91,456.9
	c-1.4-0.13-2.42-0.13-3.7-0.26c1.28,0,2.43,0.13,3.7,0.13C272.91,456.81,272.91,456.86,272.91,456.9z M276.27,638.16
	c-2.3-4.62-2.04-10.74,0.33-15.28c0,0,1.26-2.25,3.35-5.35c0.72,0.73,1.43,1.48,2.16,2.21c8.22,8.22,16.43,15.71,24.46,22.51
	c-5.66,0.96-10.66,1.46-14.91,1.46c-3.82,0-8.35-0.4-11.59-1.93C278.82,640.58,277.55,639.37,276.27,638.16z M422.21,532.11
	c0.38,2.42,0.64,4.72,1.02,7.15c-0.51,1.92-6.26,6.14-7.92,7.54c-8.18,6.39-19.93,14.95-32.06,16.99c-5.49,0.9-17.75-4.34-21.71-6
	c-6.52-2.68-22.48-9.07-25.8-14.05c-0.64-1.66-1.15-3.2-1.66-4.73c-2.42-6.13-4.08-12.65-5.87-19.67
	c-1.4-5.62-3.58-14.68-1.66-21.07c1.15-2.43,9.58-6.64,12.13-8.3c9.32-6.25,18.65-12.51,27.97-18.77c2.56,1.28,4.99,3.45,7.92,4.84
	c9.96,4.47,20.05,9.07,30.01,13.54c3.58,1.41,7.28,2.69,10.86,4.09c1.28,1.28,3.06,16.73,3.83,20.05
	C420.55,519.59,421.06,525.85,422.21,532.11z M351.34,344c-4.73-0.13-8.69-1.28-14.05-1.28c1.79-1.79,4.85-2.68,7.15-3.83
	c9.84-5.11,20.69-8.69,33.08-11.37c4.08-0.64,8.04-1.15,12.13-1.66c1.66-0.12,3.19-0.25,4.85-0.38c6.77,0,13.28,0.64,19.29,1.03
	v0.13c-1.91,2.04-4.34,3.19-6,5.36c-3.7-0.26-8.94-1.15-13.28-1.79c-4.85-0.9-10.22,0.63-14.05,1.4
	C368.2,334.17,357.98,336.21,351.34,344z M395.26,584.23c0.38,0.38,0.64,0.77,1.02,1.15c-31.04-2.81-54.54-12.64-73.82-27.2
	c-3.57-2.69-7.66-5.62-10.47-9.2c6.64,0,14.81,0.64,19.54-1.79c2.56,0.89,7.79,5.62,10.6,7.41c7.92,4.6,16.73,8.17,26.18,11.11
	c3.2,1.03,10.73,3.96,14.69,3.07C385.3,572.86,391.17,582.19,395.26,584.23z M382.87,712.07c-0.92-0.41-10.47-4.58-25.09-12.95
	c10.31-1.36,20.76-2.43,31.15-3.21c0.37,0.16,0.61,0.27,0.73,0.31l10.6,4.47l10.51-4.47c0.31-0.12,1.56-0.65,3.59-1.6
	c3.98-0.1,7.93-0.16,11.82-0.16c8.09,0,15.88,0.22,23.38,0.65c-18.41,11.04-30.84,16.48-31.95,16.95l-10.6,4.47l-5.24,2.3
	l-1.51,0.64l-1.53-0.64l-5.24-2.3L382.87,712.07z M262.77,630.37c-3.27,5.72-5.13,11.78-6.16,16.4
	c-24.73-27.78-44.88-58.24-60.2-90.9c-12.91-27.6-22.23-56.7-27.94-87.07c5.43,19.16,12.34,37.75,20.74,55.69
	C207.17,563.02,231.91,598.6,262.77,630.37z M456.49,695.58c10.91,0.84,21.12,2.16,30.58,3.93c-38.19,29.35-69.28,42.96-70.99,43.72
	l-10.6,4.47l-5.23,2.3l-5.24-2.3l-10.6-4.47c-1.6-0.71-28.75-12.57-63.32-37.92c9.76-2.03,19.94-3.81,30.32-5.31
	c16.03,9.46,27.2,14.55,29.75,15.68l10.71,4.52l5.3,2.33l3.08,1.29l3.11-1.32l5.19-2.28l10.59-4.47
	C419.43,715.64,434.42,709.24,456.49,695.58z M611.26,524.49c8.39-18.02,15.29-36.65,20.72-55.82
	c-5.74,30.38-15.07,59.53-27.91,87.2c-16.11,34.69-37.81,66.82-64.59,95.81c-4.9-2.89-10.17-5.42-15.68-7.65
	c3.21-3.01,6.43-6.12,9.65-9.33C566.27,601.88,592.45,564.8,611.26,524.49z M323.87,493.44c-6.26-0.51-11.11-6.52-15.2-9.71
	c-4.08-3.32-15.45-12.77-17.11-17.5c-1.28-3.45-0.38-7.54-1.02-11.75c-2.55-15.71,3.84-33.21,9.71-42.15
	c2.04-3.07,6.64-4.86,9.83-6.9c8.68-5.5,17.37-10.99,26.05-16.48c3.32,0.64,6.39,4.22,9.07,5.89c7.53,5.11,17.75,11.75,23.24,18.9
	c-1.92,4.85-1.41,11.24-2.43,16.86c-0.89,7.54-1.66,14.94-2.55,22.48c-0.77,4.73-1.4,10.22-0.51,14.56
	C349.92,476.2,336.9,484.88,323.87,493.44z"/>
</svg>
