<?xml version="1.0" encoding="utf-8"?>
<!-- Created by @FCLOGO 2023-11-17 GMT+8 14:34:57 . https://fclogo.top/ -->
<!-- FOR PERSONAL USE ONLY NOT FOR COMMERCIAL USE -->
<svg version="1.1" xmlns="http://www.w3.org/2000/svg" xmlns:xlink="http://www.w3.org/1999/xlink" x="0px" y="0px"
	 viewBox="0 0 800 800" style="enable-background:new 0 0 800 800;" xml:space="preserve">
<style type="text/css">
	.st0{fill:#73497B;}
	.st1{fill:#FFFFFF;}
	.st2{fill:#7FB085;}
	.st3{fill:#B5D575;}
	.st4{fill:url(#SVGID_1_);}
	.st5{fill:#D9D9D9;}
	.st6{fill:#FFF000;}
	.st7{fill:#E50012;}
	.st8{fill:#030000;}
	.st9{fill:#95CEAB;}
	.st10{fill:#63958D;}
	.st11{fill:#F5AD54;}
</style>
<g>
	<g>
		<path class="st0" d="M625,50H400H175c0,0-0.5,422.4-0.5,487.7S223.4,750,400,750s225.5-147,225.5-212.3S625,50,625,50z"/>
		<path class="st1" d="M400,710.9c-86.1,0-134.5-39.8-160-73.1c-30.7-40.2-41.6-88.1-41.6-116.9c0-56.7,0.4-359.6,0.4-362.7l7.3,0
			c0,3.1-0.4,306-0.4,362.7c0,47.4,35.7,182.7,194.3,182.7c158.6,0,194.3-135.3,194.3-182.7c0-56.6-0.4-359.6-0.4-362.7l7.3,0
			c0,3.1,0.4,306,0.4,362.7c0,28.8-10.9,76.7-41.6,116.9C534.5,671.1,486.1,710.9,400,710.9z"/>
		<path class="st1" d="M400,685.8c-77.3,0-121-37.5-144-69c-27.6-37.8-37.4-81.9-37.4-108.3c0-50.9,0.4-347.3,0.4-350.3l7.3,0
			c0,3-0.4,299.5-0.4,350.3c0,25.3,9.4,67.6,36,104c22,30.1,63.9,66,138.1,66s116.1-35.9,138.1-66c26.6-36.3,36-78.7,36-104
			c0-50.9-0.4-347.3-0.4-350.3l7.3,0c0,3,0.4,299.5,0.4,350.3c0,26.4-9.8,70.5-37.4,108.3C521,648.3,477.3,685.8,400,685.8z"/>
		<g>
			<path class="st2" d="M555.5,158.2c0,0,0.3,291.8,0.3,336.9c0,45.1-33.8,160-155.8,160c-122,0-155.8-114.9-155.8-160
				c0-45.1,0.3-336.9,0.3-336.9H555.5z"/>
			<path class="st3" d="M374.1,158.2v495.1c8.2,1.2,16.8,1.9,25.9,1.9c9.2,0,17.8-0.7,26-1.9V158.2H374.1z"/>
			<path class="st3" d="M290.1,158.2v451c13.5,14.7,30.6,27.4,51.9,35.6V158.2H290.1z"/>
			<path class="st3" d="M515.8,602.5V158.2h-51.9v484.3C485.6,632.9,502.6,618.7,515.8,602.5z"/>
		</g>
		<path class="st1" d="M400,658.8c-67.8,0-106.3-35.2-126.7-64.7c-22.7-32.9-32.8-73.4-32.8-99c0-44.6,0.3-334,0.3-336.9l7.3,0
			c0,2.9-0.3,292.3-0.3,336.9c0,33,25.8,156.4,152.2,156.4c126.3,0,152.2-123.3,152.2-156.4c0-44.6-0.3-334-0.3-336.9l7.3,0
			c0,2.9,0.3,292.3,0.3,336.9c0,25.6-10.1,66.1-32.8,99C506.3,623.6,467.8,658.8,400,658.8z"/>
		<polygon class="st1" points="400,57.8 191.5,57.8 191.5,154.9 400,154.9 608.5,154.9 608.5,57.8 		"/>
	</g>
	<linearGradient id="SVGID_1_" gradientUnits="userSpaceOnUse" x1="398.4102" y1="280.585" x2="398.4102" y2="167.8505">
		<stop  offset="0" style="stop-color:#E50012"/>
		<stop  offset="9.043027e-02" style="stop-color:#E60711"/>
		<stop  offset="0.2263" style="stop-color:#E81C10"/>
		<stop  offset="0.3909" style="stop-color:#EC3E0D"/>
		<stop  offset="0.5777" style="stop-color:#F16D0A"/>
		<stop  offset="0.7834" style="stop-color:#F7A905"/>
		<stop  offset="1" style="stop-color:#FFF000"/>
	</linearGradient>
	<path class="st4" d="M289.2,221.1c0,0,15.8,2.6,32.1-8.1c0,0-8.4-8.8-12.1-12.4c0,0,65.8-10,92.1-32.7c0,0-7.7,13.9-68.9,35.8
		c0,0,14.3,3.1,32,3.3c0,0-47.6,21.4-52.6,21.4C307.9,228.3,289.2,221.1,289.2,221.1z M512.4,219.7c0,0-18.8,4.2-36.4-7.3
		c0,0,16.1-2.4,19.7-11.3c0,0-48.8-2-91.2-33.3c0,0,10,16.6,69.6,35.3c0,0-13.6,2.3-31.3,2.4c0,0,24.1,26.6,44,26.6
		C498.5,232.1,512.4,219.7,512.4,219.7z M393.7,213.3h-23.3c0,0,11.2-13.3,12-16.6h-8.6c0,0-3.5,3.8-7.7,5.8h-20.6
		c0,0,42.2-19.7,51.9-27.2C397.3,175.3,397.5,196.7,393.7,213.3z M394.8,180.5c0,0-9.7,6.3-13.9,8h8.6
		C389.6,188.5,392.6,185,394.8,180.5z M438.8,206.4h-15.9c-2.3-3-4.5-6.5-6.5-9.9h25.8c-3.1-1.1-12.1-6.6-12.1-6.6h-17.3
		c-2-3.9-3.2-6.8-3.2-6.8h9.7l-10.6-7.1h-6.8l4.9,37.3h38.2C442.4,211.2,438.8,206.4,438.8,206.4z M309.6,237.6l-0.5,26.3l12.1-3.7
		l0.4-23.2l37.1-24.3c0,0-44.9,21.2-47.5,21.2s-17.4-7.9-17.4-7.9C296.5,230.7,309.6,237.6,309.6,237.6z M379.4,222.3v35.1h-16.3
		v-12.8h-20.5v13.3l-13.9,1.6v-23.4l30.3-17.4h16.1L379.4,222.3z M363.1,240.9v-18.1l-20.5,12.1v6H363.1z M384.3,257.4h10V253
		l14.8,4.4h8.6v-38.6h-9v4.8l-13.2-4.8h-11.3V257.4z M427.3,218.8l-3.7,4.8v33.8l65.8,4.9v-25.9c-21.2,0-21.6-4-21.6-4h-2.7
		l-0.5,1.8c3.3,3.3,12.6,5.7,12.6,5.7v15.7h-39.1v-32.3h14.1l-3.3-4.4H427.3z M402.6,272.5c126.4,0,147.3,7.3,147.3,7.3
		c-25.2-16.8-136.7-20.6-148.4-20.6s-59.2,3.6-99.8,7.9c-47.1,4.9-54.8,13.5-54.8,13.5S296.4,272.5,402.6,272.5z"/>
	<g>
		<g>
			<path class="st1" d="M465,475.8c0,37.2-30.2,67.4-67.4,67.4c-37.2,0-67.4-30.2-67.4-67.4c0-37.2,30.2-67.4,67.4-67.4
				C434.8,408.4,465,438.5,465,475.8z"/>
			<path d="M441.2,423.7C441.2,423.7,441.2,423.7,441.2,423.7L441.2,423.7c-8.5-7.1-18.8-12.2-30.1-14.5l0,0c0,0-0.1,0-0.1,0
				c-4.4-0.9-8.9-1.4-13.5-1.4c-37.5,0-68,30.5-68,68c0,7.7,1.3,15.2,3.7,22.1c0,0.1,0,0.2,0.1,0.3l0,0
				c9.3,26.5,34.5,45.5,64.1,45.5c37.5,0,68-30.5,68-68C465.5,454.9,456.1,436.2,441.2,423.7z M462.2,464.1
				c-0.4-4.8-2.3-11.6-3.6-15.4c2.4,5.4,4.1,11.1,5,17.1C463.2,465.2,462.7,464.6,462.2,464.1z M455.7,442.9
				c-4.2-5.6-9.5-10.6-11.4-12.3c-0.2-1.2-0.8-2.6-1.4-3.8C448,431.4,452.3,436.8,455.7,442.9z M334.4,497.6
				c-2.5-11.8-2.3-22.2-2.2-25.4c2.9-3.6,7.4-8.1,8.7-9.4l17.1,12.8l1.4,25.8l-14.5,8.4c-3.1-2.4-8.1-8.7-10.4-11.7
				C334.5,498,334.4,497.8,334.4,497.6z M345.2,440.7c1-0.9,12.5-11.2,19.5-15.1l18.2,6.8l-0.4,27.6l-23.7,14.9l-17.4-13.1
				C341.6,454.2,344.4,443.8,345.2,440.7z M407.9,474.8L383.6,460l0.4-27.4l21.6-9.8c4.3,2.1,20.4,10.1,24.7,13.6
				c0.8,4.9,1.8,19.7,2.1,22.9L407.9,474.8z M426.3,531.6c-2.6,1.6-10.2,5.8-22.8,9.2c-7.4-0.8-15.2-4.9-17.2-6
				c-1-4-2.5-14-3.2-18.4l23.9-12.2l22.4,11.4C429.3,520.7,427.1,528.8,426.3,531.6z M430.5,435.2c-5-3.8-19.7-11.1-24.2-13.3
				l-1.3-11.2c1.6-0.3,4.3-0.7,5.9-0.5c11,2.2,21.1,7.2,29.4,14.2c0.4,0.6,2.1,3.4,2.8,5.7L430.5,435.2z M403.8,409.9l-3.4-0.9
				c1.9,0.1,3.8,0.3,5.7,0.5C405.1,409.6,404.3,409.8,403.8,409.9z M345.6,510.8l14.1-8.2l22.2,13.4c0.6,3.9,2.2,14.3,3.2,18.8
				c-4.5,2.2-11.5,2.3-14.8,2.1c-7.4-3.3-14.1-7.9-19.8-13.5C348.6,519.4,346.3,512.6,345.6,510.8z M404.9,541.5
				c11.8-3.3,19.1-7.3,21.8-8.9c1.3,0.1,4.1,0.2,6.2-0.1c-8.5,5.3-18.3,8.8-28.8,9.8C404.5,542.1,404.7,541.8,404.9,541.5z
				 M449.1,500.8c-3.5,3.4-15.9,11.8-18.9,13.8L407.2,503l0.7-26.9l25.1-15.7l18.3,13.5C451,477.7,450.2,495.3,449.1,500.8z
				 M368.8,415.4c-1,1.7-3.7,6.4-4.7,9.3c-6.7,3.7-17,12.9-19.3,14.9l-2.9-0.9C348.6,428.7,357.9,420.6,368.8,415.4z M330.7,475.8
				c0-0.5,0-1,0-1.6c0.1-0.2,0.2-0.3,0.3-0.5c-0.1,2.7,0,7.3,0.5,12.9C331,483.1,330.7,479.5,330.7,475.8z M457.4,505.5l-7.2-4.9
				c1.1-6.2,1.9-22.7,2-26.6c3.1-1.7,8.1-7,9.6-8.6c0.8,0.9,1.8,2.1,2.1,3c0.3,2.4,0.4,4.9,0.4,7.4
				C464.4,486.4,461.9,496.5,457.4,505.5z"/>
		</g>
		<g>
			<polygon class="st1" points="249.3,422.2 291.2,430.5 396.6,611.7 			"/>
			<polygon class="st1" points="549.4,422.5 504.6,431.8 396.2,614.2 			"/>
			<path class="st1" d="M362.6,557.6c0,0,11.3-8.2,34.9-8.2c16.6,0,28.7,5.5,28.7,5.5s-4.8,3.3-5.7,6c0,0-40.9-4-55.9,0.2
				L362.6,557.6z"/>
		</g>
		<polygon points="371.6,317 390.6,610.9 395.3,610.9 388.6,316.2 		"/>
		<polygon class="st5" points="375.5,320.5 390.9,610.3 394.9,610.3 385,320 		"/>
		<path d="M396.8,306.1c0,8.8-7.1,15.9-15.9,15.9c-8.8,0-15.9-7.1-15.9-15.9c0-8.8,7.1-15.9,15.9-15.9
			C389.6,290.2,396.8,297.3,396.8,306.1z"/>
		<path class="st5" d="M391.9,304.2c0,7-4.8,12.6-10.7,12.6c-5.9,0-10.7-5.7-10.7-12.6c0-7,4.8-12.6,10.7-12.6
			C387.1,291.6,391.9,297.2,391.9,304.2z"/>
		<path class="st6" d="M488.9,416.2c-22.9,0-31.1-25.2-62.5-25.2c-14.8,0-27.8,7.5-27.8,7.5l-5.1-74l-0.4-4.3l1.1-0.5
			c3.5-1.4,18.8-7.4,30.4-7.4c26.7,0,37.3,28.6,60.5,28.6c17,0,26.6-9.7,26.6-9.7s-12,32.3-15.5,38.9s-14.4,8.8-14.4,8.8
			c11.7,18.8,35.4,23.3,35.4,23.3S507.1,416.2,488.9,416.2z"/>
		<path class="st7" d="M428.3,347.5c-15.7,0-26.7,6.1-32.5,10.3l2.8,40.6c0,0,13-7.5,27.8-7.5c9.7,0,17.2,2.4,23.6,5.8V354
			C443.1,350.1,435.8,347.5,428.3,347.5z"/>
		<path class="st7" d="M481.9,378.9C481.9,378.9,481.9,378.9,481.9,378.9c0,0,10.8-2.2,14.4-8.8s15.5-38.9,15.5-38.9
			s-9.6,9.7-26.6,9.7c-14.3,0-23.8-10.8-35.2-19.1V354C461.8,360.8,472.6,371.3,481.9,378.9z"/>
		<path d="M393.5,319.9c0,0,14.6-9.3,31.2-9.3c27,0,38.7,25.6,60.4,25.6c23.9,0,44.1-31.4,44.1-31.4s-11.5,24.7-13.9,31.5
			c-7.5,21.6-10.7,40.1-24.3,45.2c0,0,5.9,7.4,18.8,12.5c11.2,4.4,21.1,4.5,21.1,4.5s-17.1,26-37.8,26c-29.7,0-37.5-29.2-66.5-29.2
			c-16.9,0-29.5,8.8-29.5,8.8l-3.8-81.7l5.3,76.2c0,0,13-7.5,27.8-7.5c31.4,0,39.6,25.2,62.5,25.2c18.3,0,28.5-14,28.5-14
			s-23.8-4.4-35.4-23.3c0,0,10.8-2.2,14.4-8.8s15.5-38.9,15.5-38.9s-9.6,9.7-26.6,9.7c-23.2,0-33.9-28.6-60.5-28.6
			C411.4,312.3,393.5,319.9,393.5,319.9z"/>
	</g>
	<g>
		<g>
			<polygon class="st7" points="190.8,82.2 260.6,66.8 400,70 400,82.2 			"/>
			<polygon class="st1" points="218.3,80.8 272.6,68.1 400,70.9 400,80.8 			"/>
			<path class="st8" d="M237.9,79.1l42.9-12.4c0,0,105.6-1.8,119.2,3.3v10.9C400,80.9,364.7,76.8,237.9,79.1z"/>
			<g>
				<path class="st1" d="M241.7,76.8l42.9-12.4c0,0,101.9-1.8,115.4,3.3v13.2C400,80.9,369.8,76.3,241.7,76.8z"/>
				<path class="st8" d="M400.4,81.3l-0.4-0.1c-0.3,0-28.5-4.1-139.5-4.1c-6,0-12.2,0-18.7,0l-2.6,0L284.6,64c0.2,0,17.2-0.3,38-0.3
					c30.9,0,69.5,0.6,77.5,3.7l0.2,0.1V81.3z M260.4,76.4c103.9,0,135.3,3.6,139.2,4.1V68c-8.4-2.9-46.4-3.5-77-3.5
					c-20.2,0-37,0.3-38,0.3l-40.3,11.7C249.9,76.4,255.2,76.4,260.4,76.4z"/>
			</g>
			<polygon class="st7" points="609.2,82.2 539.4,66.8 400,70 400,82.2 			"/>
			<polygon class="st1" points="581.7,80.8 527.3,68.1 400,70.9 400,80.8 			"/>
			<path class="st8" d="M562,79.1l-42.9-12.4c0,0-105.6-1.8-119.2,3.3v10.9C400,80.9,435.2,76.8,562,79.1z"/>
			<g>
				<path class="st1" d="M558.3,76.8l-42.9-12.4c0,0-101.9-1.8-115.4,3.3v13.2C400,80.9,430.1,76.3,558.3,76.8z"/>
				<path class="st8" d="M399.6,81.3V67.5l0.2-0.1c8-3,46.6-3.7,77.5-3.7c20.8,0,37.9,0.3,38,0.3l0.1,0l45.4,13.2l-2.6,0
					c-126.7-0.5-157.9,4-158.2,4.1L399.6,81.3z M400.4,68v12.5c4.1-0.5,38.4-4.4,155.3-4l-40.3-11.7c-1,0-17.7-0.3-38-0.3
					C446.8,64.4,408.8,65.1,400.4,68z"/>
			</g>
		</g>
		<g>
			<g>
				<polygon class="st7" points="245.5,102.4 262,108.8 262,139 245.5,145.5 				"/>
				<g>
					<polygon class="st7" points="241.1,107 231.2,102.4 231.2,145.7 241.3,141.4 234.2,142.5 234.2,105.4 					"/>
					<polygon class="st9" points="236,107.1 241.1,107 234.2,105.4 234.2,115.2 236,115.2 					"/>
					<rect x="234.2" y="115.2" class="st10" width="1.8" height="9"/>
					<rect x="234.2" y="124.2" class="st11" width="1.8" height="8.8"/>
					<polygon class="st7" points="241.3,141.4 236,141 236,132.9 234.2,132.9 234.2,142.5 					"/>
				</g>
				<g>
					<polygon class="st7" points="225.9,107.4 215.6,103.5 215.6,145.2 226.8,141.2 219.3,142.2 219.3,106.4 					"/>
					<polygon class="st9" points="221.6,108 225.9,107.4 219.3,106.4 219.3,115.9 221.6,115.9 					"/>
					<rect x="219.3" y="115.9" class="st10" width="2.3" height="8.6"/>
					<rect x="219.3" y="124.5" class="st11" width="2.3" height="8.5"/>
					<polygon class="st7" points="226.8,141.2 221.6,140.7 221.6,133 219.3,133 219.3,142.2 					"/>
				</g>
				<g>
					<polygon class="st9" points="207.2,108 211.5,107.9 204.9,106.4 204.9,115.9 207.2,115.9 					"/>
					<rect x="204.9" y="115.9" class="st10" width="2.3" height="8.6"/>
					<rect x="204.9" y="124.5" class="st11" width="2.3" height="8.5"/>
					<polygon class="st7" points="212.4,140.9 207.2,140.7 207.2,133 204.9,133 204.9,142.2 					"/>
				</g>
			</g>
			<g>
				<polygon class="st7" points="554.5,102.4 538,108.8 538,139 554.5,145.5 				"/>
				<g>
					<polygon class="st7" points="558.9,107 568.8,102.4 568.8,145.7 558.7,141.4 565.9,142.5 565.9,105.4 					"/>
					<polygon class="st9" points="564,107.1 558.9,107 565.9,105.4 565.9,115.2 564,115.2 					"/>
					<rect x="564" y="115.2" class="st10" width="1.8" height="9"/>
					<rect x="564" y="124.2" class="st11" width="1.8" height="8.8"/>
					<polygon class="st7" points="558.7,141.4 564,141 564,132.9 565.9,132.9 565.9,142.5 					"/>
				</g>
				<g>
					<polygon class="st7" points="574.1,107.4 584.4,103.5 584.4,145.2 573.2,141.2 580.7,142.2 580.7,106.4 					"/>
					<polygon class="st9" points="578.4,108 574.1,107.4 580.7,106.4 580.7,115.9 578.4,115.9 					"/>
					<rect x="578.4" y="115.9" class="st10" width="2.3" height="8.6"/>
					<rect x="578.4" y="124.5" class="st11" width="2.3" height="8.5"/>
					<polygon class="st7" points="573.2,141.2 578.4,140.7 578.4,133 580.7,133 580.7,142.2 					"/>
				</g>
				<g>
					<polygon class="st9" points="592.8,108 588.5,107.9 595.1,106.4 595.1,115.9 592.8,115.9 					"/>
					<rect x="592.8" y="115.9" class="st10" width="2.3" height="8.6"/>
					<rect x="592.8" y="124.5" class="st11" width="2.3" height="8.5"/>
					<polygon class="st7" points="587.6,140.9 592.8,140.7 592.8,133 595.1,133 595.1,142.2 					"/>
				</g>
			</g>
			<g>
				<path d="M275,123.1c0.1-0.4,0.3-0.6,0.7-0.6c0.2,0.1,0.4,0.2,0.4,0.4c0,0.1,0,0.3-0.2,0.6c-1.2,3.5-2.5,6.9-3.7,10.4
					c0,0.4-0.2,0.6-0.6,0.7c-0.1,0-0.3-0.2-0.7-0.5c-0.5-0.6-1.1-1.3-1.8-2c-0.2-0.1-0.3-0.3-0.4-0.5c-0.2-0.3-0.1-0.4,0.3-0.5
					c0.3-0.1,0.9,0.1,1.6,0.5c0.4,0.2,0.6,0.3,0.6,0.3c0.6-1.1,1.3-2.6,2-4.4C273.7,126,274.3,124.6,275,123.1z M269.3,120
					c0.1-0.1,0.3,0,0.7,0.1c0.8,0.2,1.6,0.5,2.3,0.9c0.3,0.1,0.5,0.3,0.7,0.5c0.2,0.4,0.3,0.9,0.3,1.4c0,0.1-0.1,0.2-0.2,0.4
					c-0.3,0.3-0.6,0.3-0.8-0.2c-1-1-1.9-1.7-2.8-2.3c-0.2-0.2-0.4-0.4-0.3-0.6C269.1,120.1,269.2,120.1,269.3,120z M271.6,113.8
					c0.3-0.1,0.6-0.1,0.7,0c1.1,0.5,2.1,1.1,2.9,1.6c0.3,0.4,0.4,0.9,0.4,1.5c-0.1,0.4-0.2,0.6-0.2,0.7c-0.1,0.1-0.3,0.1-0.4,0.1
					c-0.2,0-0.3-0.2-0.5-0.5c-0.9-1-1.7-1.8-2.6-2.6C271.4,114.3,271.4,114.1,271.6,113.8z M282.5,110.6c0.3-0.2,0.7-0.1,0.9,0.2
					c0.3,0.2,0.7,0.5,1.1,1c0.2,0.3,0.3,0.5,0.2,0.8c-0.1,0.4-0.3,1.1-0.5,2.2l-0.4,2.3c-0.1,0.3,0.1,0.4,0.5,0.4
					c0.7-0.1,1.5-0.2,2.3-0.3c1.2-0.1,2.2-0.2,2.9-0.4c0.2-0.1,0.4-0.2,0.7-0.3c0.2-0.2,0.5-0.2,0.9-0.1c0.4,0.3,0.7,0.7,0.9,1.1
					c0,0.1-0.2,0.4-0.6,0.6c-0.9,0.9-1.8,1.9-2.6,3.1c-0.3,0.5-0.7,0.6-1.1,0.3c-0.1-0.1-0.1-0.3,0-0.5c0.5-0.8,1-1.6,1.4-2.3
					c0.1-0.3,0-0.5-0.3-0.4c-1.2,0.1-2.7,0.3-4.7,0.6c-0.3,0.1-0.5,0.3-0.6,0.6c-0.3,1.6-0.7,3-1.2,4.4c-1.2,3.4-3.1,6.3-5.5,8.8
					c-0.8,0.8-2,1.8-3.7,3.1c-0.4,0.3-0.7,0.4-1,0.5c-0.4-0.1-0.5-0.3-0.4-0.7c0.1-0.1,0.2-0.3,0.4-0.4c3.6-2.8,6.2-5.8,7.7-8.9
					c1.1-2.3,1.9-4.5,2.2-6.6c0-0.3-0.1-0.4-0.4-0.4c-0.9,0.1-1.7,0.2-2.6,0.4c-0.3,0-0.5,0.2-0.5,0.6c-0.1,0.9-0.3,1.8-0.7,2.5
					c-0.2,0.4-0.5,0.4-0.8,0.2c-0.6-0.8-0.7-1.4-0.3-1.9c0.6-1,0.9-2.3,0.9-3.9c0-0.4,0-0.6,0.1-0.7c0.1-0.1,0.3-0.1,0.5-0.1
					c0.2,0.1,0.3,0.3,0.3,0.5l0,1.1c0,0.3,0.2,0.4,0.6,0.4l2.7-0.4c0.3,0,0.5-0.2,0.6-0.6c0.2-1.9,0.3-3.6,0.3-5
					c0-0.3-0.1-0.7-0.2-1C282.3,111,282.4,110.8,282.5,110.6z M283.6,121.2c0.2-0.2,0.4-0.2,0.7,0c0.3,0.3,0.6,0.6,0.9,0.8
					c0.3,0.3,0.4,0.7,0.1,1.1c0,0.1-0.1,0.2-0.1,0.3l-0.1,0.5c0,2.8,0,4.8,0.1,5.9c0,0.9,0.1,1.7,0.3,2.5c0,0.3,0.2,0.6,0.5,0.8
					c0.3,0.1,0.7,0.2,1.1,0.2c1.2,0.1,2.3,0.1,3.4-0.2c0.3-0.1,0.5-0.3,0.6-0.6c0.1-1,0.1-2.4,0.1-4.2c0.2-0.3,0.5-0.4,0.8-0.2
					c0.1,0.1,0.2,0.3,0.2,0.7c0.2,1.8,0.4,3.5,0.8,4.9c0.2,0.3,0,0.6-0.3,0.8c-0.2,0.1-0.6,0.2-1.1,0.3c-2.6,0.2-4.6,0.2-5.7,0
					c-1.1-0.2-1.7-0.8-2-1.8c-0.2-0.8-0.3-1.7-0.3-2.6c0-3.3,0-6-0.2-8.3C283.4,121.7,283.5,121.5,283.6,121.2z"/>
				<path d="M301.8,112.3c0.1-0.1,0.3-0.1,0.4,0c0.2,0.2,0.4,0.5,0.6,0.8c0.2,0.3,0.5,0.5,0.8,0.4c0.7-0.1,1.4-0.2,2.2-0.3
					c0.8-0.1,1.4-0.3,1.7-0.6c0.3-0.4,0.6-0.5,0.9-0.2c0.4,0.4,0.6,0.7,0.7,1c0.1,0.3,0,0.4-0.2,0.5c-0.5,0.4-0.8,0.8-1.1,1.1
					c-0.5,0.7-1,1.5-1.4,2.4c-0.1,0.3,0,0.6,0.2,0.8c0.4,0.3,0.7,0.7,1,1c0.4,0.6,0.7,1.3,0.8,2.2c0.3,1.9-0.2,3.9-1.6,6.1
					c-0.3,0.3-0.5,0.4-0.8,0.2c-0.1,0-0.2-0.1-0.3-0.2c-0.6-0.8-1.3-1.6-2-2.3c-0.6-0.4-0.6-0.7-0.2-1c0.1-0.1,0.4,0,0.7,0.3
					c0.4,0.3,0.8,0.6,1.1,0.8c0.3,0.2,0.5,0.3,0.6,0.3c0.4-0.4,0.7-0.9,0.8-1.6c0.3-1.4,0.2-2.6-0.1-3.5c-0.2-0.8-0.8-1.5-1.6-2.1
					c-0.2-0.3-0.3-0.5-0.2-0.8l1.4-2.9c0.1-0.3,0-0.4-0.4-0.4c-0.8,0.1-1.6,0.3-2.4,0.5c-0.3,0.1-0.5,0.3-0.5,0.6
					c-0.1,4.4-0.1,9.9-0.1,16.5c0,0.6,0,1.5,0.1,2.7c0.1,0.5,0,0.8-0.4,1c-0.1,0-0.3-0.2-0.7-0.5c-0.2-0.3-0.4-0.5-0.5-0.8
					c-0.1-0.1-0.1-0.4-0.1-0.8c0.1-0.6,0.1-1.5,0.1-2.8c0-7.7,0-13.6-0.1-17.6C301.7,112.6,301.7,112.4,301.8,112.3z M318.6,113.7
					c0.5-0.3,1,0,1.7,0.7c0.1,0.1,0.1,0.3,0.1,0.5c-0.1,0.1-0.3,0.3-0.4,0.5c-0.2,0.4-0.3,1.2-0.4,2.2c-0.1,2.5-0.2,4.9-0.2,7.4
					c0,2.2-0.2,4.1-0.5,5.7c0,0.1-0.1,0.3-0.3,0.4c-0.3,0-0.5-0.1-0.5-0.3l-0.2-0.3c-0.2-0.3-0.5-0.5-0.9-0.4
					c-1.5,0.2-3,0.4-4.6,0.6c-0.3,0.1-0.5,0.3-0.5,0.6c0,0.4-0.1,0.7-0.3,1c-0.3,0.1-0.5,0-0.8-0.4c0,0,0-0.1-0.1-0.2
					c-0.6-0.8-0.8-1.5-0.4-2.2c0.1-0.4,0.2-0.8,0.1-1.1c0-5.1-0.3-9.8-0.8-14c0-0.1,0-0.2,0-0.3c0.1-0.3,0.4-0.4,0.8-0.2
					c0.1,0.1,0.2,0.3,0.3,0.5l0.3,0.5c0.2,0.3,0.5,0.4,0.9,0.4c1.9-0.2,3.8-0.5,5.7-0.8C318,114.4,318.3,114.1,318.6,113.7z
					 M317.6,115.9c-0.3,0-0.7,0.1-1.1,0.1c-1.5,0.2-3,0.4-4.4,0.6c-0.3,0.1-0.5,0.3-0.5,0.6l0.2,4.5c0,0.3,0.2,0.4,0.5,0.4
					c1.1-0.1,2.2-0.4,3.3-0.6c0.3-0.1,0.5-0.1,0.6-0.1c0.7,0.3,1,0.6,1,1c-0.1,0.3-0.3,0.4-0.8,0.4c-1.2,0.1-2.5,0.3-4.1,0.6
					c-0.3,0.1-0.5,0.3-0.5,0.7l0.1,4.7c0,0.3,0.2,0.4,0.6,0.4c0.7-0.1,1.5-0.2,2.3-0.3c0.5,0,1.1-0.1,1.7-0.3
					c0.3-0.1,0.6-0.1,0.8-0.1c0.1,0.1,0.2-0.1,0.3-0.4c0.2-0.9,0.3-2.4,0.4-4.3c0.1-2.5,0.1-5.1,0.1-7.6
					C318.2,116,318,115.9,317.6,115.9z"/>
				<path d="M342.9,110.7c0.2-0.3,0.5-0.4,0.9-0.1c0.5,0.3,0.8,0.5,1.1,0.8c0.2,0.2,0.4,0.5,0.4,0.7c-0.1,0.4-0.1,0.7-0.2,1.1
					c0,0.9,0,2.3,0.3,4.3c0,0.3,0.2,0.4,0.6,0.3c2-0.4,3.4-0.7,4.4-1.1c0.4-0.3,0.9-0.3,1.4,0.2c0.7,0.5,0.8,0.8,0.3,1.1
					c-1.9,0.3-4,0.7-6.1,1.1c-0.3,0.1-0.4,0.3-0.4,0.7c0.4,2.3,0.8,4.4,1.4,6.1c0.1,0.3,0.2,0.3,0.4-0.1c1-2,1.6-3.8,1.6-5.4
					c-0.1-0.6,0.2-0.8,0.8-0.7c0.1,0.1,0.2,0.1,0.3,0.2c0.6,0.7,0.9,1.2,0.9,1.5c0,0-0.1,0.2-0.3,0.4c-0.2,0.3-0.4,0.6-0.6,1.1
					c-0.5,1.5-1.2,3-2.1,4.5c-0.2,0.3-0.2,0.6,0,0.9c0.9,1.8,2,3.2,3.2,4.2c0.1,0.1,0.2,0.2,0.3,0.2c0.3,0.1,0.5,0.1,0.5-0.3
					c0.1-1.2,0.2-2.5,0.1-3.8c0-0.1,0.1-0.3,0.3-0.4c0.3-0.1,0.4,0,0.5,0.4c0.2,2.3,0.4,4.4,0.9,6.2c0.1,0.3,0,0.5-0.5,0.7
					c-0.3,0-0.7-0.1-1.1-0.4c-2.2-1.2-3.9-3-5.3-5.5c-0.2-0.3-0.4-0.3-0.6,0.1c-0.5,0.7-1.1,1.5-1.7,2.2c-0.6,0.7-1.1,1.2-1.5,1.6
					c-0.1,0.2-0.3,0.2-0.6,0.2c-0.5-0.2-0.4-0.5,0.1-1c0.5-0.6,1.1-1.3,1.8-2.2l1.5-2.2c0.2-0.3,0.2-0.6,0.1-1
					c-0.8-2.5-1.4-5-1.7-7.5c-0.1-0.3-0.3-0.4-0.7-0.4c-1.1,0.2-2.3,0.4-3.4,0.7c-0.3,0.1-0.5,0.3-0.5,0.5c0,0.6,0,1.2,0,1.8
					c0,0.3,0.2,0.4,0.6,0.3c0.3-0.1,0.6-0.1,1-0.2c0.4,0,0.8-0.3,1.1-0.7c0.2-0.2,0.5-0.2,0.9,0.1c0.5,0.3,0.7,0.6,0.6,1
					c0,0.1-0.1,0.2-0.2,0.3c-0.3,0.3-0.5,0.7-0.6,1.1c-0.2,2.6-0.6,4.8-1.1,6.6c-0.2,0.7-0.5,1.3-0.8,1.9c-0.1,0.3-0.3,0.4-0.5,0.4
					c-0.2,0-0.4-0.2-0.6-0.6c-0.3-0.4-0.8-1-1.5-1.9c-0.2-0.2-0.3-0.4-0.1-0.6c0.3-0.3,0.7-0.2,1.1,0.1c0.3,0.2,0.6,0.4,0.9,0.6
					c0,0,0.1-0.2,0.3-0.5c0.1-0.2,0.2-0.5,0.2-1c0.4-1.8,0.7-3.5,0.9-5.1c0-0.3-0.2-0.4-0.6-0.3c-0.4,0.1-0.9,0.2-1.3,0.3
					c-0.3,0.1-0.5,0.3-0.5,0.7c-0.2,1.4-0.5,2.9-1.1,4.4c-0.9,2.3-2.6,4.4-5,6.3c-0.4,0.3-0.7,0.4-0.8,0.4c-0.3-0.1-0.4-0.2-0.4-0.5
					c0-0.1,0.2-0.4,0.6-0.8c1.4-1.3,2.5-2.7,3.4-4.3c0.6-1,1-2.2,1.4-3.7c0.1-0.3-0.1-0.4-0.4-0.2c-3,1.6-5.5,2.9-7.4,3.9
					c-0.2,0.2-0.5,0.3-0.7,0.3c-0.3,0-0.7-0.1-1.3-0.5c-0.6-0.4-0.5-0.7,0-0.9c1.2-0.4,2.8-0.9,4.6-1.8c0.3-0.1,0.5-0.4,0.5-0.7
					c0-1.7,0-3.3,0-5c0-0.3-0.2-0.4-0.6-0.3c-0.6,0.1-1.1,0.2-1.7,0.4c-0.6,0.1-1.2,0-1.8-0.4c-0.1-0.1-0.2-0.2-0.2-0.4
					c-0.1-0.2,0.1-0.4,0.4-0.5c1.1-0.3,2.3-0.5,3.5-0.7c0.3-0.1,0.5-0.3,0.5-0.5c0-3.4-0.1-6-0.3-7.9l-0.1-0.3
					c-0.1-0.4-0.1-0.6,0-0.7c0.5-0.2,1,0,1.7,0.8c0.4,0.4,0.5,0.8,0.3,1.1c-0.1,0.3-0.1,0.7-0.1,1.2c-0.1,2.1-0.1,4-0.1,5.5
					c0,0.3,0.2,0.4,0.6,0.3c0.4-0.1,0.8-0.2,1.1-0.3c0.4-0.1,0.8-0.2,1.1-0.2c0.2,0,0.3,0.1,0.5,0.3c0.5,0.3,0.6,0.5,0.4,0.9
					c-0.6,0.3-1.7,0.5-3.3,0.8c-0.3,0.1-0.5,0.3-0.4,0.6l0,4.7c0,0.3,0.2,0.4,0.6,0.2c0.9-0.4,1.8-0.8,2.6-1.2
					c0.3-0.1,0.5-0.3,0.5-0.6c0.3-1.9,0.3-4.1,0.1-6.7c0-0.5,0.3-0.7,0.8-0.5c0.3,0.4,0.5,0.8,0.6,1.2c0.1,0.3,0.3,0.4,0.7,0.3
					c1.2-0.3,2.4-0.5,3.6-0.7c0.3-0.1,0.4-0.3,0.4-0.6c-0.2-1.4-0.3-2.8-0.5-4.2c-0.1-0.8-0.3-1.5-0.6-2.2
					C342.8,111.1,342.8,110.9,342.9,110.7z M346.9,112.6c0.1-0.1,0.3-0.2,0.5-0.1c1.1,0.4,2,0.9,2.8,1.6c0.2,0.3,0.3,0.6,0.2,0.9
					c0,0.2,0,0.4,0,0.5c-0.2,0.6-0.5,0.6-0.9,0.2c-0.5-0.7-1.2-1.5-2.2-2.4C346.7,113.2,346.7,112.9,346.9,112.6z"/>
				<path d="M368.8,110.6c-0.1-0.4,0-0.6,0.4-0.6c0.2,0,0.4,0.2,0.7,0.6c0.5,0.5,0.9,1.1,1.3,1.6c0.3,0.3,0.5,0.7,0.4,1.1
					c-0.1,0.3-0.2,0.7-0.3,1.2c-0.1,0.3,0,0.4,0.4,0.4c3.6-0.4,6.7-0.8,9.2-1.1c0.3-0.1,0.6-0.1,0.9-0.2c0.5-0.1,1.1,0.2,1.6,1
					c0.3,0.5,0.1,0.7-0.4,0.8c-3.9,0.3-7.7,0.6-11.4,1c-0.3,0-0.4,0.2-0.4,0.5c-0.1,1-0.1,2-0.1,3c0,0.3,0.2,0.4,0.6,0.4l3.4-0.4
					c0.4,0,0.8-0.1,1.1-0.2c0.2-0.1,0.4-0.2,0.6-0.4c0.5-0.7,1.2-0.5,2,0.5c0.2,0.3,0.1,0.6-0.1,0.8c-0.2,0.3-0.4,0.7-0.5,1.1
					c-0.4,1.5-0.6,2.9-0.7,4.4c-0.1,0.7-0.2,1.5-0.4,2.2c-0.2,0.8-0.5,1.5-0.9,2.2c-0.4,0.5-0.8,0.4-1-0.1c-0.9-1.1-1.7-2-2.4-2.7
					c-0.4-0.4-0.5-0.7-0.3-1.1c0.1,0,0.1-0.1,0.2-0.1c0.4,0.1,0.8,0.3,1.3,0.7c0.3,0.3,0.7,0.5,1,0.7c0.3,0.2,0.6,0.1,0.7-0.2
					c0.4-1.6,0.8-3.7,1.2-6.2c0-0.3,0-0.4,0-0.4l-5,0.6c-0.3,0-0.5,0.2-0.5,0.6c0,4.2-0.1,8.2-0.2,12.1c0,0.5-0.1,0.8-0.1,1.1
					c-0.1,0.3-0.3,0.3-0.6,0.1c-0.5-0.6-0.8-1.1-0.9-1.6c-0.1-0.3,0-0.5,0.1-0.8c0.2-0.8,0.3-1.9,0.3-3.3c0-2.4,0-4.9,0-7.3
					c0-0.3-0.2-0.4-0.6-0.4c-1.3,0.1-2.6,0.3-3.9,0.5c-0.3,0.1-0.5,0.3-0.5,0.6c0,2.3,0,4.6,0,7c0,0.4,0,0.6,0,0.7
					c0,0.1-0.1,0.2-0.3,0.3c-0.3,0.1-0.5,0-0.8-0.5c-0.4-0.6-0.6-1-0.7-1.4c0-0.2,0-0.4,0.1-0.5c0.5-1.6,0.6-4,0.1-7.3
					c-0.1-0.4-0.1-0.8,0-1.1c0.1-0.1,0.2-0.2,0.2-0.3c0.4-0.1,0.7,0.1,0.8,0.7c0.2,0.4,0.5,0.5,0.9,0.5c1.3-0.1,2.7-0.3,4-0.5
					c0.3,0,0.5-0.2,0.5-0.5v-3c0-0.3-0.2-0.4-0.6-0.4c-3.9,0.3-7,0.6-9.2,0.9c-0.9,0.2-1.7,0-2.3-0.7c-0.4-0.3-0.4-0.5-0.1-0.7
					c0.2-0.1,0.6-0.1,1.2-0.1c3.1-0.2,7-0.5,11.7-1c0.3,0,0.4-0.1,0.2-0.2c-0.2-0.1-0.3-0.3-0.3-0.4c-0.3-0.9-0.8-2-1.4-3.3
					L368.8,110.6z"/>
				<path d="M405.8,111.7c0.2-0.4,0.5-0.5,0.9-0.4c0.6,0.5,1,0.8,1,1c0.1,0.3,0,0.5-0.4,0.7c-0.1,0.1-0.2,0.3-0.3,0.5
					c-0.3,1.2-0.6,2.4-0.8,3.6c0,0.3,0.1,0.5,0.4,0.7c0.5,0.4,0.7,0.8,0.6,1c0,0.1-0.1,0.1-0.3,0.2c-0.2,0-0.4,0.1-0.7,0.1
					c-1.5,0.1-3.1,0.3-4.6,0.6c-0.3,0.1-0.5,0.2-0.5,0.5v3.1c0,0.3,0.2,0.4,0.6,0.4c1.1-0.2,2.3-0.4,3.4-0.5c0.4,0,1-0.2,1.7-0.4
					c0.5-0.2,1,0.1,1.5,0.8c0.2,0.4,0,0.6-0.5,0.7c-1.3,0.1-3.4,0.5-6.2,0.9c-0.3,0.1-0.5,0.2-0.5,0.5v3.9c0,0.3,0.2,0.5,0.6,0.7
					c1.8,0.9,3.3,1.6,4.6,2.1c1.3,0.5,2.5,0.8,3.7,0.8c1.6,0,2.8,0,3.5,0.1c0.2-0.1,0.3,0.1,0.5,0.3c0.1,0.2,0,0.3-0.3,0.5
					c-0.1,0.1-0.3,0.2-0.6,0.2c-1.5,0.2-3.1,0.5-4.6,0.7l-0.6,0.1c-0.3,0-0.6,0-0.7-0.1c-2.5-1.5-5.5-3.2-9.2-5.2
					c-1.2-0.7-2.5-1.4-3.7-2.1c-0.3-0.2-0.6-0.1-0.8,0.3c-1,1.5-1.8,2.6-2.2,3.1c-1.5,1.8-2.8,3.1-3.9,3.9c-0.7,0.5-1,0.5-1.1,0
					c0-0.1,0.2-0.4,0.5-0.7c2.3-2.2,4.1-4.3,5.4-6.5c1.1-1.8,1.8-3.4,2-4.9c0.1-0.4,0.1-0.7,0.2-0.8c0.4-0.2,0.7,0,1.1,0.5
					c0.4,0.5,0.6,0.9,0.6,1.2c0,0.2-0.1,0.4-0.5,0.6c-0.3,0.4-0.6,0.9-0.9,1.5c-0.2,0.3,0,0.6,0.3,0.8c1.8,1,3.3,1.8,4.3,2.3
					c0.3,0.2,0.5,0.1,0.5-0.2v-8.3c0-0.3-0.2-0.4-0.6-0.4c-1.1,0.1-2.1,0.2-3.2,0.4c-0.3,0-0.5,0.2-0.5,0.5c0,0.2,0,0.3-0.1,0.5
					c-0.2,0.2-0.3,0.2-0.4,0.2c-0.2-0.1-0.4-0.3-0.6-0.5c-0.2-0.4-0.4-0.8-0.6-1.1c-0.1-0.3-0.1-0.5,0.1-0.8c0.4-1.5,0.4-3.6,0-6.3
					c0-0.6,0.2-0.8,0.7-0.7c0.2,0.1,0.3,0.3,0.4,0.7c0.2,0.3,0.4,0.5,0.8,0.4c2.5-0.3,5.7-0.7,9.5-1.3
					C405.3,112.1,405.5,112,405.8,111.7z M404.8,113.6c-3,0.3-6,0.7-9.1,1.1c-0.3,0.1-0.4,0.2-0.4,0.5l0,3.6c0,0.3,0.2,0.4,0.6,0.4
					l6.9-1c0.5-0.1,0.9-0.1,1.2-0.2c0.3,0,0.5-0.2,0.5-0.6c0.2-1.1,0.5-2.2,0.7-3.4C405.4,113.7,405.2,113.5,404.8,113.6z"/>
				<path d="M426,114.7c0.5-0.1,1,0.2,1.5,0.8c0.1,0.3-0.1,0.5-0.4,0.5c-0.4,0.1-0.8,0.2-1.1,0.2l-2.1,0.3c-0.3,0-0.5,0.2-0.5,0.6
					l-0.1,3.2c0,0.3,0.2,0.4,0.5,0.4c0.4,0,0.7-0.1,1.1-0.3c0.5-0.1,1,0.1,1.5,0.8c0.1,0.3,0,0.4-0.3,0.5c-0.4,0.1-1.2,0.2-2.4,0.4
					c-0.3,0-0.5,0.2-0.5,0.5c0,1.4-0.1,2.7-0.1,4.1c0,0.3,0.2,0.4,0.6,0.2c1-0.4,1.9-0.7,2.8-1.1c0.4-0.1,0.6-0.2,0.7-0.2
					c0.3,0.1,0.4,0.4,0.2,0.7c-1.8,0.9-4.1,2-7.1,3.3c-0.5,0.2-1.1,0.4-1.7,0.8c-0.4,0.3-0.9,0.2-1.4-0.2c-0.5-0.3-0.7-0.5-0.7-0.8
					c0.1-0.2,0.2-0.3,0.4-0.4l4.4-1.4c0.3-0.1,0.5-0.3,0.5-0.7c0-1.4,0-2.8,0-4.2c0-0.3-0.2-0.4-0.6-0.4c-1.3,0.3-2.2,0.2-2.8-0.3
					c-0.2-0.2-0.2-0.4-0.1-0.6c0.1-0.1,0.4-0.2,0.8-0.2c0.8-0.1,1.5-0.2,2.2-0.4c0.3,0,0.5-0.2,0.5-0.5l0-3.3c0-0.3-0.2-0.4-0.6-0.3
					c-0.4,0.1-0.7,0.1-1.1,0.2c-0.8,0.1-1.4,0.1-2-0.1c-0.5-0.3-0.7-0.6-0.7-0.9c0.1-0.2,0.4-0.2,0.9-0.2c1.2-0.1,3.3-0.4,6.3-1
					C425,114.9,425.5,114.8,426,114.7z M432.3,110.8c-0.1-0.3,0.1-0.5,0.4-0.6c0.2,0,0.4,0.2,0.7,0.5c0.2,0.2,0.3,0.4,0.5,0.5
					c0.2,0.2,0.3,0.4,0.4,0.5c0.2,0.3,0.2,0.6,0,0.8c-0.3,1-0.5,2.2-0.5,3.7c0,0.3,0.2,0.4,0.6,0.4l3.4-0.6c0.4-0.1,0.8-0.2,1.1-0.3
					c0.5-0.1,1,0.1,1.5,0.8c0.2,0.4,0.1,0.7-0.2,0.8c-2,0.3-4,0.6-6,0.8c-0.3,0.1-0.5,0.2-0.5,0.5v1.9c0,0.3,0.1,0.5,0.2,0.7l1,1.9
					c0.2,0.3,0.4,0.3,0.7,0c1.2-1.2,2-2.3,2.6-3.3c0.1-0.6,0.4-0.8,0.8-0.6c0.3,0.5,0.6,1.1,0.7,1.6c0,0.2-0.1,0.4-0.3,0.5
					c-1.1,0.7-2.1,1.6-3.2,2.7c-0.3,0.3-0.3,0.6-0.1,1c0.7,1.1,1.4,2.2,2.1,3.2c1,1.4,2.1,2.1,3.2,2.3c0.6,0.1,1.1,0.2,1.7,0.3
					c0.1,0,0.3,0.1,0.4,0.3c0.2,0.3,0.1,0.5-0.3,0.6c-0.2,0.1-0.4,0.1-0.7,0.1c-1.1,0-2.3,0.1-3.4,0.2c-0.3,0.1-0.6,0-0.8-0.3
					c-1.5-2.8-3-5.4-4.4-7.7c-0.2-0.3-0.3-0.3-0.3,0c0,3.1,0,6.3,0,9.5c0,0.8-0.2,1.5-0.5,2.2c-0.1,0.3-0.3,0.4-0.5,0.3
					c-0.2-0.1-0.5-0.3-0.9-0.6c-1.1-1-2.1-1.8-3.2-2.6c-0.3-0.2-0.3-0.5-0.1-0.8c0.2-0.2,0.5-0.1,0.9,0.2c0.7,0.4,1.4,0.8,2.1,1.1
					c0.3,0.1,0.5,0,0.5-0.3c0.2-1.8,0.3-4,0.3-6.8c0-0.3-0.2-0.3-0.6-0.1c-1.5,1-3.2,2.3-5.2,3.9c-0.2,0.1-0.4,0.3-0.5,0.5
					c-0.3,0.3-0.6,0.5-0.9,0.4c-0.3-0.1-0.6-0.1-0.9-0.2c-0.4-0.2-0.6-0.4-0.6-0.5c0-0.1,0.1-0.3,0.2-0.4c0.4-0.2,1.2-0.6,2.2-1.3
					c1.7-1.1,3.6-2.3,5.7-3.7c0.3-0.2,0.5-0.5,0.5-0.8l0.1-5.1c0-0.4-0.2-0.5-0.6-0.5c-1.6,0.2-2.9,0.4-4,0.6
					c-0.4,0-0.9-0.2-1.4-0.5c-0.3-0.1-0.4-0.3-0.4-0.5c0.1-0.3,0.2-0.4,0.4-0.4c1.1-0.1,3-0.3,5.5-0.7c0.3-0.1,0.5-0.2,0.5-0.5
					C432.6,114,432.5,112.1,432.3,110.8z M427.6,120.8c0.2,0,0.4,0,0.6,0.1c0.9,0.5,1.7,1,2.3,1.6c0.6,0.4,0.8,0.9,0.6,1.3
					c0,0.2-0.1,0.4-0.1,0.5c0,0.1-0.1,0.2-0.2,0.4c-0.2,0.1-0.3,0.1-0.4,0.1l-0.2-0.1c-0.5-0.7-1.1-1.4-1.7-2.1
					c-0.4-0.5-0.8-0.8-1.1-1c-0.2-0.1-0.2-0.3-0.1-0.6C427.5,120.9,427.5,120.9,427.6,120.8z M435.1,112.8c-0.2-0.4-0.1-0.6,0.3-0.6
					c0.2,0,0.5,0.1,0.9,0.3c0.7,0.3,1.4,0.8,2,1.3c0.3,0.3,0.3,0.9,0,1.6c-0.2,0.5-0.5,0.6-0.9,0.1c-0.3-0.7-0.8-1.4-1.5-2.1
					C435.4,113.1,435.1,112.9,435.1,112.8z"/>
				<path d="M455.4,110.8c0.2-0.2,0.5-0.1,0.7,0.1c0.2,0.4,0.4,0.7,0.6,1.1c0.4,0.4,0.4,0.8,0.1,1.2c-0.1,0.1-0.3,0.2-0.4,0.4
					c-0.8,1-1.7,2.1-2.5,3.3c-0.1,0.2-0.2,0.3-0.3,0.5c-0.1,3.2-0.1,6.4-0.1,9.8c-0.1,3.7-0.1,6.4-0.3,8.3c0,0.3,0,0.5-0.2,0.7
					c-0.1,0.1-0.2,0.1-0.3,0.1c-0.2,0-0.4-0.2-0.5-0.5c-0.6-0.9-0.7-1.8-0.3-2.7c0.3-3.6,0.4-8.2,0.3-13.7c0-0.3-0.2-0.3-0.5,0.1
					c-1,1.2-2.3,2.5-3.9,3.9c-0.5,0.5-0.9,0.7-1.3,0.5c-0.1-0.1-0.2-0.2-0.2-0.4c0.1-0.2,0.3-0.5,0.7-0.8c2.1-1.8,3.9-3.8,5.4-5.8
					c1.4-1.8,2.3-3.5,2.6-5.2C455.3,111,455.4,110.8,455.4,110.8z M467.4,111.8c0.3-0.2,0.6-0.2,0.7,0c0.6,0.5,0.9,0.9,0.9,1.2
					c0,0.1-0.1,0.2-0.2,0.3c-0.2,0.2-0.3,0.4-0.3,0.7c-0.2,1-0.3,2.5-0.4,4.4c-0.2,2.7-0.3,5.4-0.4,8.1c0,0.3,0.2,0.4,0.5,0.4
					c1.2-0.2,2.3-0.4,3.3-0.6c0.5-0.2,1,0,1.4,0.5c0.6,0.6,0.5,1-0.1,1.1c-3.8,0.4-7.6,0.8-11.4,1.2c-0.3,0-0.3,0.2,0,0.5
					c0.2,0.4,0.4,0.8,0.4,1.1c0.1,0.2,0,0.4-0.2,0.5c-0.2,0.1-0.4,0.2-0.6,0.4c-2,2-3.9,3.4-5.8,4.5c-0.3,0.1-0.5,0-0.7-0.2
					c-0.2-0.3-0.1-0.5,0.3-0.6c0.2,0,0.4-0.2,0.6-0.4c1.8-1.4,3.3-2.8,4.5-4.2c0.2-0.3,0.4-0.6,0.5-1c0.2-0.3,0-0.4-0.3-0.4
					c-2,0.2-3.3,0.4-3.9,0.5c-0.2,0.1-0.7,0-1.3-0.4c-0.5-0.3-0.6-0.5-0.3-0.8c0.1,0,0.2-0.1,0.4-0.1c0.7-0.1,1.8-0.2,3.1-0.3
					c0.3,0,0.5-0.2,0.5-0.6c0-6.4-0.1-11.1-0.2-14.3c-0.1-0.4,0.1-0.6,0.4-0.6c0.1,0,0.3,0.2,0.6,0.5c0,0,0.1,0.1,0.1,0.1
					c0.2,0.3,0.6,0.5,0.9,0.4c0.8-0.1,1.5-0.3,2.3-0.4c1.1-0.1,1.9-0.3,2.3-0.4c0.5-0.1,0.9-0.1,1.1-0.2
					C466.6,112.5,467,112.3,467.4,111.8z M466.3,114.2l-5.6,0.8c-0.3,0.1-0.5,0.3-0.5,0.6c0,0.4,0,0.8,0,1.3c0,0.3,0.2,0.4,0.6,0.4
					c1.4-0.1,2.6-0.3,3.4-0.7c0.5-0.2,0.9,0,1.4,0.6c0.3,0.4,0.2,0.7-0.4,0.8c-1.6,0.1-3.1,0.4-4.6,0.6c-0.3,0.1-0.5,0.3-0.5,0.6
					v1.2c0,0.3,0.2,0.4,0.6,0.4c1.4-0.1,2.5-0.3,3.4-0.7c0.3-0.1,0.6,0,0.9,0.2c0.5,0.3,0.6,0.6,0.5,0.9c-0.1,0.1-0.3,0.2-0.7,0.3
					c-1.8,0.2-3.3,0.4-4.3,0.6c-0.3,0.1-0.5,0.3-0.5,0.6v1.1c0,0.3,0.2,0.4,0.6,0.3c0.9-0.2,1.6-0.3,2.3-0.4
					c0.7-0.2,1.2-0.3,1.5-0.3c0.2,0,0.5,0,0.7,0.1c0.8,0.5,0.9,0.8,0.3,1.1c-2.1,0.3-3.7,0.5-4.9,0.8c-0.3,0.1-0.5,0.3-0.5,0.6v1.4
					c0,0.3,0.2,0.4,0.6,0.4c1.7-0.2,3.4-0.4,5.1-0.6c0.3,0,0.5-0.2,0.5-0.6c0.2-4,0.4-8,0.6-12C466.9,114.2,466.7,114.1,466.3,114.2
					z M465.2,129.4c0.3-0.1,0.6,0,0.9,0.3c1.6,1,2.7,1.8,3.4,2.4c0.7,0.5,0.9,1.1,0.8,1.6v0.5c0,0.3-0.1,0.5-0.2,0.7
					c-0.2,0.3-0.5,0.3-0.7,0c-1.1-1.5-2.4-3-4.1-4.4c-0.4-0.3-0.5-0.6-0.3-0.9C465.1,129.4,465.1,129.4,465.2,129.4z"/>
				<path d="M484.7,126c0.1-0.4,0.3-0.5,0.7-0.3c0.4,0.6,0.6,1.1,0.7,1.7c0,0.2-0.1,0.4-0.3,0.5c-0.4,0.4-1.2,1.2-2.3,2.3
					c-1.6,1.5-3.2,2.9-4.9,4.1c-0.2,0.2-0.5,0.2-0.7,0.1c-0.3-0.1-0.4-0.3-0.1-0.6c1.9-1.5,3.6-3,5-4.7
					C483.8,128,484.5,126.9,484.7,126z M495.3,111.5c0.3-0.3,0.6-0.3,0.9-0.2c0.4,0.3,0.7,0.7,0.9,1.1c0.2,0.6,0,0.9-0.7,0.9
					c-1.4,0.3-2.9,0.7-4.6,1.2c-2,0.6-4.1,1.1-6.2,1.7c-0.3,0.1-0.6,0.3-0.7,0.7c-0.5,1.1-0.9,2.9-1.3,5.4c-0.1,0.4,0,0.6,0.4,0.6
					l5.6-0.7c0.3,0,0.5-0.2,0.5-0.6c0-1.2,0-2.5-0.1-4.1c-0.1-0.1-0.1-0.3,0-0.5c0-0.3,0.2-0.4,0.6-0.3c0.1,0,0.2,0.1,0.4,0.3
					c0.2,0.3,0.5,0.5,0.8,0.8c0.2,0.3,0.3,0.6,0.2,0.8c-0.3,0.9-0.5,1.9-0.4,3c0,0.3,0.2,0.4,0.6,0.4c1.5-0.2,3-0.4,4.6-0.7
					c0.6-0.1,1-0.2,1.1-0.3c0.2-0.1,0.4-0.1,0.8,0l0.9,0.7c0.5,0.4,0.5,0.7-0.1,1c-2.1,0.1-4.6,0.4-7.5,0.8c-0.3,0-0.5,0.2-0.5,0.5
					l-0.1,10.2c0,0.7-0.2,1.3-0.6,1.8c-0.2,0.1-0.4,0.1-0.7-0.1c-1.2-0.9-2.5-1.9-3.9-2.7c-0.2-0.2-0.2-0.5,0.1-0.7
					c0.1-0.1,0.3,0,0.7,0.1c0.8,0.4,1.5,0.7,2.3,1c0.3,0.1,0.5,0,0.5-0.4c0.2-2.1,0.2-5.1,0.2-9.1c0-0.3-0.2-0.4-0.6-0.4
					c-1.5,0.2-3.1,0.3-4.6,0.5c-0.8,0-1.4,0.2-2,0.5c-0.3,0.3-0.6,0.3-0.9,0c-0.9-0.6-1-1.1-0.5-1.5c0.4-0.3,0.6-0.6,0.7-0.8
					c0.8-2.5,1.2-4.9,1.1-7.1c0-0.2,0-0.4,0.1-0.6c0.2-0.5,0.6-0.5,1.2,0.2c0.3,0.3,0.7,0.4,1,0.3c1.2-0.3,2.4-0.7,3.4-1.1
					c2.8-1,4.7-1.7,5.7-2.2C494.9,111.8,495.1,111.7,495.3,111.5z M494.1,126.1c0.1-0.5,0.5-0.5,1.1,0c1.7,1.3,3.4,2.7,5.3,4.4
					c0.3,0.4,0.5,1.1,0.4,2.1c-0.1,0.7-0.5,0.7-1.1,0.1c-1.5-2-3.3-3.9-5.2-5.7C494.2,126.5,494.1,126.2,494.1,126.1z"/>
				<path d="M520.1,114.6c0.5-0.2,1,0.1,1.6,0.8c0.2,0.4,0,0.6-0.6,0.7c-0.4,0-0.7,0.1-1.1,0.1c-0.3,0.1-0.3,0.3-0.1,0.6
					c0.1,0.2,0.1,0.4-0.2,0.7c-0.4,0.8-0.9,1.9-1.3,3.1c-0.1,0.3,0,0.4,0.4,0.4c0.7-0.1,1.5-0.3,2.3-0.5c0.4-0.1,0.9,0.1,1.4,0.7
					c0.4,0.5,0.4,0.8-0.1,0.9c-4.6,0.6-9.2,1.2-13.8,1.9c-0.2,0.1-0.6,0-1.1-0.4c-0.4-0.3-0.6-0.5-0.6-0.5c0.1-0.4,0.3-0.6,0.8-0.5
					c1.4-0.1,3.3-0.3,5.7-0.7c0.3-0.1,0.4-0.1,0.3-0.2c-0.2-0.1-0.2-0.3-0.2-0.6c-0.1-0.7-0.3-1.4-0.6-2.2c-0.3-0.7-0.4-1.3-0.3-1.6
					c0-0.1-0.1-0.1-0.5,0l-1,0.2c-0.7,0.1-1.2-0.1-1.7-0.5c-0.3-0.1-0.4-0.4-0.2-0.7c0.1-0.1,0.3-0.1,0.6-0.1c0.4,0,0.7,0,1.1-0.1
					c2.6-0.3,4.9-0.6,6.9-1C518.6,115,519.4,114.9,520.1,114.6z M518.9,124.3c0.2-0.2,0.4-0.2,0.7,0c0.7,0.5,0.9,1,0.6,1.4
					c-0.1,0.1-0.2,0.2-0.2,0.4c-0.2,1-0.4,2.1-0.5,3.4c0,0.3,0.1,0.5,0.4,0.8c0.5,0.3,0.5,0.6,0.1,0.9c-2.9,0.3-5,0.6-6.4,0.9
					c-0.3,0.1-0.4,0.3-0.5,0.7c0,0.4,0,0.8-0.1,1.2c-0.2,0.6-0.5,0.7-0.9,0.1c-0.2-0.4-0.5-0.8-0.8-1.4c-0.1-0.3,0-0.5,0.1-0.8
					c0.4-1.3,0.4-3.5,0-6.6c0-0.4,0.2-0.6,0.6-0.5c0.2,0.1,0.4,0.2,0.4,0.5l0.1,0.3c0.2,0.3,0.4,0.3,0.7,0.3
					c1.6-0.4,2.9-0.6,3.9-0.7C517.9,125.1,518.5,124.8,518.9,124.3z M518.4,126.7c0-0.3-0.1-0.4-0.5-0.4c-1.5,0.2-2.9,0.5-4.4,0.7
					c-0.3,0.1-0.5,0.3-0.5,0.6l0,2.6c0,0.3,0.2,0.4,0.6,0.4c1.3-0.2,2.6-0.4,3.9-0.6c0.3-0.1,0.5-0.3,0.5-0.6
					C518.2,128.5,518.3,127.6,518.4,126.7z M517.4,116.6c-1,0.1-2.3,0.3-3.8,0.5c-0.3,0-0.4,0.2-0.1,0.6c0.4,0.5,0.8,1.3,1.3,2.1
					c0.2,0.4,0,0.9-0.3,1.5c-0.2,0.3-0.1,0.4,0.3,0.4l1.8-0.2c0.3,0,0.5-0.2,0.6-0.6c0.4-1.6,0.6-2.8,0.8-3.9
					C517.9,116.7,517.8,116.6,517.4,116.6z M514.1,110.5c0.2-0.2,0.4-0.2,0.6-0.1c0.1,0,0.2,0.1,0.3,0.3c1,1.1,1.7,2,2,2.7
					c0.1,0.2,0,0.7-0.4,1.4c-0.1,0.1-0.2,0.2-0.3,0.2c-0.2,0-0.4-0.1-0.5-0.5c-0.4-1.2-0.8-2.3-1.4-3.3
					C514.1,110.9,514.1,110.7,514.1,110.5z M529.5,113.3c0.4-0.3,0.8-0.3,1.2,0.3c0.7,0.5,0.8,0.9,0.4,1.3c-0.5,0.3-0.8,0.6-1,1
					c-0.9,1.7-1.5,3.1-1.7,4.4c-0.1,0.2,0,0.4,0.1,0.5c1.7,1.5,2.7,3,2.8,4.5c0.1,0.9,0,1.8-0.2,2.6c-0.3,1.4-1.2,2.7-2.5,3.8
					c-0.3,0.2-0.6,0.2-0.9-0.2c-0.5-1.1-1.2-2.2-2-3.2c-0.2-0.2-0.4-0.5-0.4-0.8c-0.1-0.3,0.1-0.4,0.5-0.4c0.2,0.1,0.4,0.3,0.7,0.6
					l1.3,1.2c0.3,0.3,0.5,0.5,0.6,0.5l0.3-0.4c0.6-1.1,0.9-2.1,0.9-3.1c0.1-1.6-0.6-3.1-2.3-4.5c-0.5-0.4-0.7-0.8-0.4-1.3
					c0.4-1.4,0.9-2.8,1.4-4.2c0.1-0.3,0-0.4-0.4-0.4c-1.4,0.3-2.5,0.5-3,0.6c-0.3,0.1-0.5,0.3-0.5,0.7c-0.2,3.2-0.2,8.8-0.1,16.7
					c0.1,0.7,0.1,1.5,0.1,2.3c0,0.2-0.1,0.4-0.4,0.4c-0.2,0-0.4-0.2-0.7-0.6c-0.3-0.6-0.6-1.1-0.7-1.6c0.1-1.2,0.2-2.4,0.2-3.7
					c0-4.9,0-10.3-0.1-16.1c0-0.2,0-0.4,0.1-0.5c0.2-0.2,0.4-0.2,0.6,0.1c0.2,0.2,0.4,0.5,0.4,0.7c0.2,0.3,0.5,0.4,0.9,0.3l3.4-0.7
					c0.2,0,0.3-0.1,0.4-0.1C529,113.9,529.3,113.7,529.5,113.3z"/>
			</g>
		</g>
		<g>
			<path d="M214.6,85.9v4.9h-0.4c-0.1-0.9-0.3-1.7-0.7-2.2c-0.3-0.6-0.8-1-1.4-1.3c-0.6-0.3-1.2-0.5-1.8-0.5c-0.7,0-1.3,0.2-1.8,0.7
				c-0.5,0.4-0.7,0.9-0.7,1.5c0,0.4,0.1,0.8,0.4,1.2c0.4,0.5,1.4,1.2,3.1,2.1c1.3,0.7,2.2,1.2,2.7,1.6c0.5,0.4,0.8,0.8,1.1,1.3
				c0.3,0.5,0.4,1,0.4,1.6c0,1.1-0.4,2-1.2,2.8c-0.8,0.8-1.9,1.2-3.2,1.2c-0.4,0-0.8,0-1.2-0.1c-0.2,0-0.7-0.2-1.3-0.4
				c-0.7-0.2-1.1-0.3-1.3-0.3c-0.2,0-0.3,0.1-0.4,0.2c-0.1,0.1-0.2,0.3-0.2,0.6h-0.4v-4.8h0.4c0.2,1,0.4,1.8,0.7,2.3
				c0.3,0.5,0.8,0.9,1.4,1.2c0.6,0.3,1.3,0.5,2.1,0.5c0.9,0,1.5-0.2,2-0.7c0.5-0.5,0.8-1,0.8-1.6c0-0.3-0.1-0.7-0.3-1
				c-0.2-0.4-0.5-0.7-0.9-1c-0.3-0.2-1-0.6-2.2-1.3c-1.2-0.7-2.1-1.2-2.6-1.6c-0.5-0.4-0.9-0.8-1.2-1.3c-0.3-0.5-0.4-1-0.4-1.6
				c0-1,0.4-1.9,1.2-2.6c0.8-0.7,1.8-1.1,3-1.1c0.7,0,1.5,0.2,2.4,0.5c0.4,0.2,0.7,0.3,0.8,0.3c0.2,0,0.3-0.1,0.4-0.2
				c0.1-0.1,0.2-0.3,0.3-0.6H214.6z"/>
			<path d="M221.6,92.8h6.5v-4c0-0.7,0-1.2-0.1-1.4c-0.1-0.2-0.2-0.3-0.4-0.4c-0.3-0.2-0.6-0.2-0.9-0.2h-0.5v-0.4h6v0.4h-0.5
				c-0.3,0-0.6,0.1-0.9,0.2c-0.2,0.1-0.4,0.3-0.5,0.5c-0.1,0.2-0.1,0.7-0.1,1.4v9.1c0,0.7,0,1.2,0.1,1.4c0.1,0.2,0.2,0.3,0.4,0.4
				c0.3,0.2,0.6,0.2,1,0.2h0.5v0.4h-6v-0.4h0.5c0.6,0,1-0.2,1.3-0.5c0.2-0.2,0.3-0.8,0.3-1.6v-4.3h-6.5v4.3c0,0.7,0,1.2,0.1,1.4
				c0.1,0.2,0.2,0.3,0.4,0.4c0.3,0.2,0.6,0.2,0.9,0.2h0.5v0.4h-6v-0.4h0.5c0.6,0,1-0.2,1.3-0.5c0.2-0.2,0.2-0.8,0.2-1.6v-9.1
				c0-0.7,0-1.2-0.1-1.4c-0.1-0.2-0.2-0.3-0.4-0.4c-0.3-0.2-0.6-0.2-1-0.2h-0.5v-0.4h6v0.4h-0.5c-0.3,0-0.6,0.1-0.9,0.2
				c-0.2,0.1-0.4,0.3-0.4,0.5c-0.1,0.2-0.1,0.7-0.1,1.4V92.8z"/>
			<path d="M237.5,87v5.6h3.1c0.8,0,1.3-0.1,1.6-0.4c0.4-0.3,0.6-0.9,0.6-1.7h0.4v4.9h-0.4c-0.1-0.7-0.2-1.1-0.3-1.3
				c-0.1-0.2-0.3-0.4-0.6-0.6c-0.3-0.1-0.7-0.2-1.3-0.2h-3.1V98c0,0.6,0,1,0.1,1.1c0.1,0.1,0.2,0.2,0.3,0.3c0.1,0.1,0.4,0.1,0.8,0.1
				h2.4c0.8,0,1.4-0.1,1.7-0.2c0.4-0.1,0.7-0.3,1-0.7c0.4-0.4,0.9-1.1,1.3-1.9h0.4l-1.2,3.5h-10.8v-0.4h0.5c0.3,0,0.6-0.1,0.9-0.2
				c0.2-0.1,0.4-0.3,0.5-0.5c0.1-0.2,0.1-0.7,0.1-1.4v-9.1c0-0.9-0.1-1.4-0.3-1.6c-0.2-0.3-0.7-0.4-1.2-0.4h-0.5v-0.4h10.8l0.2,3.1
				h-0.4c-0.1-0.7-0.3-1.2-0.5-1.5c-0.2-0.3-0.4-0.5-0.8-0.6c-0.3-0.1-0.8-0.2-1.5-0.2H237.5z"/>
			<path d="M246.2,86.3h3.8l8.6,10.5v-8.1c0-0.9-0.1-1.4-0.3-1.6c-0.3-0.3-0.7-0.4-1.2-0.4h-0.5v-0.4h4.9v0.4H261
				c-0.6,0-1,0.2-1.3,0.5c-0.2,0.2-0.2,0.7-0.2,1.5v11.8h-0.4l-9.3-11.3v8.7c0,0.9,0.1,1.4,0.3,1.6c0.3,0.3,0.7,0.4,1.2,0.4h0.5v0.4
				H247v-0.4h0.5c0.6,0,1-0.2,1.3-0.5c0.2-0.2,0.2-0.7,0.2-1.5v-9.8c-0.4-0.5-0.7-0.8-0.9-0.9c-0.2-0.2-0.5-0.3-0.9-0.4
				c-0.2-0.1-0.5-0.1-0.9-0.1V86.3z"/>
			<path d="M277.5,86.3h4.9v0.4h-0.3c-0.2,0-0.4,0.1-0.8,0.2c-0.3,0.2-0.7,0.4-0.9,0.7c-0.3,0.3-0.6,0.8-1,1.5l-3.4,5.3v3.5
				c0,0.9,0.1,1.4,0.3,1.6c0.3,0.3,0.7,0.4,1.2,0.4h0.5v0.4h-6v-0.4h0.5c0.6,0,1-0.2,1.3-0.5c0.2-0.2,0.2-0.7,0.2-1.5v-3.3l-3.9-5.9
				c-0.5-0.7-0.8-1.1-0.9-1.3c-0.2-0.2-0.5-0.4-1-0.6c-0.1-0.1-0.3-0.1-0.6-0.1v-0.4h6v0.4h-0.3c-0.3,0-0.6,0.1-0.9,0.2
				c-0.3,0.2-0.4,0.4-0.4,0.7c0,0.2,0.2,0.7,0.6,1.3l2.9,4.5l2.8-4.3c0.4-0.6,0.6-1.1,0.6-1.5c0-0.2,0-0.4-0.1-0.5
				c-0.1-0.2-0.2-0.3-0.4-0.4c-0.2-0.1-0.5-0.1-0.8-0.1V86.3z"/>
			<path d="M290.6,95.6h-5.4l-1,2.2c-0.2,0.5-0.4,1-0.4,1.2c0,0.2,0.1,0.4,0.3,0.6c0.2,0.2,0.6,0.3,1.3,0.3v0.4H281v-0.4
				c0.6-0.1,1-0.2,1.1-0.4c0.4-0.3,0.7-1,1.2-2l4.9-11.6h0.4l4.9,11.7c0.4,0.9,0.8,1.5,1.1,1.8c0.3,0.3,0.8,0.4,1.3,0.5v0.4h-5.5
				v-0.4c0.6,0,0.9-0.1,1.1-0.3c0.2-0.2,0.3-0.4,0.3-0.6c0-0.3-0.1-0.8-0.4-1.4L290.6,95.6z M290.3,94.8l-2.4-5.7l-2.4,5.7H290.3z"
				/>
			<path d="M296.4,86.3h3.8l8.6,10.5v-8.1c0-0.9-0.1-1.4-0.3-1.6c-0.3-0.3-0.7-0.4-1.2-0.4h-0.5v-0.4h4.9v0.4h-0.5
				c-0.6,0-1,0.2-1.3,0.5c-0.2,0.2-0.2,0.7-0.2,1.5v11.8h-0.4l-9.3-11.3v8.7c0,0.9,0.1,1.4,0.3,1.6c0.3,0.3,0.7,0.4,1.2,0.4h0.5v0.4
				h-4.9v-0.4h0.5c0.6,0,1-0.2,1.3-0.5c0.2-0.2,0.2-0.7,0.2-1.5v-9.8c-0.4-0.5-0.7-0.8-0.9-0.9c-0.2-0.2-0.5-0.3-0.9-0.4
				c-0.2-0.1-0.5-0.1-0.9-0.1V86.3z"/>
			<path d="M325.6,85.9l0.4,4.4h-0.4c-0.4-1.1-0.8-1.9-1.4-2.5c-0.8-0.8-1.9-1.2-3.2-1.2c-1.8,0-3.2,0.7-4.1,2.1
				c-0.8,1.2-1.2,2.6-1.2,4.3c0,1.3,0.3,2.6,0.8,3.7c0.5,1.1,1.2,1.9,2,2.4c0.8,0.5,1.7,0.8,2.6,0.8c0.5,0,1-0.1,1.5-0.2
				c0.5-0.1,0.9-0.3,1.4-0.6v-4.1c0-0.7-0.1-1.2-0.2-1.4c-0.1-0.2-0.3-0.4-0.5-0.5c-0.2-0.1-0.6-0.2-1.2-0.2v-0.4h5.4V93h-0.3
				c-0.5,0-0.9,0.2-1.1,0.5c-0.1,0.3-0.2,0.8-0.2,1.5v4.3c-0.8,0.4-1.6,0.7-2.4,0.9c-0.8,0.2-1.6,0.3-2.6,0.3
				c-2.7,0-4.8-0.9-6.2-2.6c-1.1-1.3-1.6-2.8-1.6-4.5c0-1.2,0.3-2.4,0.9-3.6c0.7-1.3,1.7-2.4,2.9-3.1c1-0.6,2.2-0.9,3.6-0.9
				c0.5,0,1,0,1.4,0.1c0.4,0.1,1,0.3,1.8,0.5c0.4,0.1,0.6,0.2,0.8,0.2c0.1,0,0.2-0.1,0.3-0.2c0.1-0.1,0.2-0.4,0.2-0.7H325.6z"/>
			<path d="M344.3,86.6v-0.4h5v0.4h-0.5c-0.6,0-1,0.2-1.3,0.7c-0.1,0.2-0.2,0.7-0.2,1.5v5.7c0,1.4-0.1,2.5-0.4,3.3
				c-0.3,0.8-0.8,1.4-1.6,2c-0.8,0.6-1.9,0.8-3.3,0.8c-1.5,0-2.7-0.3-3.5-0.8c-0.8-0.5-1.4-1.2-1.7-2.1c-0.2-0.6-0.3-1.8-0.3-3.5
				v-5.5c0-0.9-0.1-1.4-0.4-1.7c-0.2-0.3-0.6-0.4-1.2-0.4h-0.5v-0.4h6.1v0.4h-0.5c-0.6,0-1,0.2-1.2,0.5c-0.2,0.2-0.3,0.8-0.3,1.6
				v6.1c0,0.5,0.1,1.2,0.2,1.9c0.1,0.7,0.3,1.3,0.5,1.6c0.3,0.4,0.6,0.7,1.1,1c0.5,0.3,1.1,0.4,1.8,0.4c0.9,0,1.7-0.2,2.5-0.6
				c0.7-0.4,1.2-0.9,1.5-1.5c0.3-0.6,0.4-1.7,0.4-3.2v-5.7c0-0.9-0.1-1.4-0.3-1.6c-0.3-0.3-0.7-0.5-1.2-0.5H344.3z"/>
			<path d="M364.3,100.3h-3.8l-4.8-6.6c-0.4,0-0.6,0-0.9,0c-0.1,0-0.2,0-0.3,0c-0.1,0-0.2,0-0.3,0v4.1c0,0.9,0.1,1.4,0.3,1.6
				c0.3,0.3,0.7,0.5,1.2,0.5h0.5v0.4h-6v-0.4h0.5c0.6,0,1-0.2,1.3-0.6c0.1-0.2,0.2-0.7,0.2-1.5v-9.1c0-0.9-0.1-1.4-0.3-1.6
				c-0.3-0.3-0.7-0.5-1.2-0.5h-0.5v-0.4h5.1c1.5,0,2.6,0.1,3.3,0.3c0.7,0.2,1.3,0.6,1.8,1.2c0.5,0.6,0.7,1.3,0.7,2.1
				c0,0.9-0.3,1.6-0.8,2.2c-0.6,0.6-1.4,1.1-2.6,1.3l2.9,4c0.7,0.9,1.2,1.5,1.7,1.8c0.5,0.3,1.1,0.5,1.9,0.6V100.3z M354.4,93.1
				c0.1,0,0.2,0,0.3,0c0.1,0,0.2,0,0.2,0c1.3,0,2.4-0.3,3-0.9c0.7-0.6,1-1.3,1-2.2c0-0.9-0.3-1.6-0.8-2.1c-0.5-0.5-1.3-0.8-2.2-0.8
				c-0.4,0-0.9,0.1-1.6,0.2V93.1z"/>
			<path d="M374.5,93.1c1,0.2,1.7,0.5,2.2,1c0.7,0.6,1,1.4,1,2.3c0,0.7-0.2,1.4-0.7,2c-0.4,0.6-1,1.1-1.8,1.4
				c-0.8,0.3-1.9,0.4-3.5,0.4H365v-0.4h0.5c0.6,0,1-0.2,1.3-0.6c0.2-0.2,0.2-0.8,0.2-1.5v-9.1c0-0.9-0.1-1.4-0.3-1.6
				c-0.3-0.3-0.7-0.5-1.2-0.5H365v-0.4h6.1c1.1,0,2,0.1,2.7,0.2c1,0.2,1.8,0.7,2.4,1.3c0.5,0.6,0.8,1.4,0.8,2.2
				c0,0.7-0.2,1.3-0.6,1.9C375.9,92.5,375.3,92.9,374.5,93.1z M369,92.6c0.3,0,0.5,0.1,0.9,0.1c0.3,0,0.7,0,1.1,0
				c1,0,1.8-0.1,2.3-0.3c0.5-0.2,0.9-0.6,1.2-1c0.3-0.4,0.4-0.9,0.4-1.5c0-0.8-0.3-1.5-1-2.1s-1.6-0.9-2.9-0.9
				c-0.7,0-1.3,0.1-1.9,0.2V92.6z M369,99.3c0.8,0.2,1.6,0.3,2.4,0.3c1.2,0,2.2-0.3,2.9-0.8c0.7-0.6,1-1.3,1-2.1
				c0-0.5-0.1-1.1-0.4-1.6c-0.3-0.5-0.8-0.9-1.5-1.2c-0.7-0.3-1.5-0.4-2.5-0.4c-0.4,0-0.8,0-1.1,0c-0.3,0-0.5,0-0.7,0.1V99.3z"/>
			<path d="M389,95.6h-5.4l-1,2.2c-0.2,0.5-0.4,1-0.4,1.2c0,0.2,0.1,0.4,0.3,0.6c0.2,0.2,0.6,0.3,1.3,0.3v0.4h-4.4v-0.4
				c0.6-0.1,1-0.2,1.1-0.4c0.4-0.3,0.7-1,1.2-2l4.9-11.6h0.4l4.9,11.7c0.4,0.9,0.8,1.5,1.1,1.8c0.3,0.3,0.8,0.4,1.3,0.5v0.4h-5.5
				v-0.4c0.6,0,0.9-0.1,1.1-0.3c0.2-0.2,0.3-0.4,0.3-0.6c0-0.3-0.1-0.8-0.4-1.4L389,95.6z M388.8,94.8l-2.4-5.7l-2.4,5.7H388.8z"/>
			<path d="M394.9,86.3h3.8l8.6,10.5v-8.1c0-0.9-0.1-1.4-0.3-1.6c-0.3-0.3-0.7-0.4-1.2-0.4h-0.5v-0.4h4.9v0.4h-0.5
				c-0.6,0-1,0.2-1.3,0.5c-0.2,0.2-0.2,0.7-0.2,1.5v11.8h-0.4l-9.3-11.3v8.7c0,0.9,0.1,1.4,0.3,1.6c0.3,0.3,0.7,0.4,1.2,0.4h0.5v0.4
				h-4.9v-0.4h0.5c0.6,0,1-0.2,1.3-0.5c0.2-0.2,0.2-0.7,0.2-1.5v-9.8c-0.4-0.5-0.7-0.8-0.9-0.9c-0.2-0.2-0.5-0.3-0.9-0.4
				c-0.2-0.1-0.5-0.1-0.9-0.1V86.3z"/>
			<path d="M421.2,87v5.5h2.6c0.6,0,1-0.1,1.3-0.4c0.3-0.3,0.5-0.8,0.5-1.5h0.4v4.8h-0.4c0-0.5-0.1-0.9-0.2-1.2
				c-0.1-0.3-0.3-0.4-0.6-0.6c-0.2-0.1-0.6-0.2-1.1-0.2h-2.6v4.4c0,0.7,0,1.2,0.1,1.4c0.1,0.2,0.2,0.3,0.4,0.4
				c0.3,0.2,0.6,0.2,1,0.2h0.5v0.4h-6v-0.4h0.5c0.6,0,1-0.2,1.3-0.5c0.2-0.2,0.2-0.8,0.2-1.6v-9.1c0-0.7,0-1.2-0.1-1.4
				c-0.1-0.2-0.2-0.3-0.4-0.4c-0.3-0.2-0.6-0.2-1-0.2h-0.5v-0.4h10.5l0.1,3.1h-0.4c-0.2-0.7-0.4-1.1-0.6-1.4
				c-0.2-0.3-0.5-0.5-0.9-0.7c-0.3-0.1-0.9-0.2-1.6-0.2H421.2z"/>
			<path d="M436.9,85.9c1.8,0,3.4,0.7,4.7,2.1c1.3,1.4,2,3.1,2,5.2c0,2.1-0.7,3.9-2,5.3c-1.3,1.4-3,2.1-4.9,2.1
				c-1.9,0-3.6-0.7-4.9-2.1c-1.3-1.4-2-3.2-2-5.3c0-2.2,0.8-4.1,2.3-5.5C433.5,86.6,435.1,85.9,436.9,85.9z M436.7,86.7
				c-1.3,0-2.3,0.5-3,1.4c-0.9,1.2-1.4,2.9-1.4,5.1c0,2.3,0.5,4.1,1.5,5.3c0.8,0.9,1.7,1.4,3,1.4c1.3,0,2.4-0.5,3.3-1.5
				c0.9-1,1.3-2.7,1.3-4.9c0-2.4-0.5-4.2-1.4-5.4C439.1,87.2,438,86.7,436.7,86.7z"/>
			<path d="M452.7,85.9c1.8,0,3.4,0.7,4.7,2.1c1.3,1.4,2,3.1,2,5.2c0,2.1-0.7,3.9-2,5.3c-1.3,1.4-3,2.1-4.9,2.1
				c-1.9,0-3.6-0.7-4.9-2.1c-1.3-1.4-2-3.2-2-5.3c0-2.2,0.8-4.1,2.3-5.5C449.3,86.6,450.9,85.9,452.7,85.9z M452.5,86.7
				c-1.3,0-2.3,0.5-3,1.4c-0.9,1.2-1.4,2.9-1.4,5.1c0,2.3,0.5,4.1,1.5,5.3c0.8,0.9,1.7,1.4,3,1.4c1.3,0,2.4-0.5,3.3-1.5
				c0.9-1,1.3-2.7,1.3-4.9c0-2.4-0.5-4.2-1.4-5.4C454.9,87.2,453.9,86.7,452.5,86.7z"/>
			<path d="M473.1,86.3l0.2,3.3h-0.4c-0.1-0.6-0.2-1-0.3-1.2c-0.2-0.4-0.5-0.7-0.9-0.9c-0.4-0.2-0.8-0.3-1.4-0.3h-2v10.7
				c0,0.9,0.1,1.4,0.3,1.6c0.3,0.3,0.7,0.4,1.2,0.4h0.5v0.4h-6v-0.4h0.5c0.6,0,1-0.2,1.3-0.5c0.2-0.2,0.2-0.7,0.2-1.5V87.1h-1.7
				c-0.7,0-1.1,0-1.4,0.1c-0.4,0.1-0.7,0.4-0.9,0.8s-0.4,0.9-0.5,1.5h-0.4l0.2-3.3H473.1z"/>
			<path d="M484.1,93.1c1,0.2,1.7,0.5,2.2,1c0.7,0.6,1,1.4,1,2.3c0,0.7-0.2,1.4-0.7,2c-0.4,0.6-1,1.1-1.8,1.4
				c-0.8,0.3-1.9,0.4-3.5,0.4h-6.6v-0.4h0.5c0.6,0,1-0.2,1.3-0.6c0.2-0.2,0.2-0.8,0.2-1.5v-9.1c0-0.9-0.1-1.4-0.3-1.6
				c-0.3-0.3-0.7-0.5-1.2-0.5h-0.5v-0.4h6.1c1.1,0,2,0.1,2.7,0.2c1,0.2,1.8,0.7,2.4,1.3c0.5,0.6,0.8,1.4,0.8,2.2
				c0,0.7-0.2,1.3-0.6,1.9C485.5,92.5,484.9,92.9,484.1,93.1z M478.6,92.6c0.3,0,0.5,0.1,0.9,0.1c0.3,0,0.7,0,1.1,0
				c1,0,1.8-0.1,2.3-0.3c0.5-0.2,0.9-0.6,1.2-1c0.3-0.4,0.4-0.9,0.4-1.5c0-0.8-0.3-1.5-1-2.1s-1.6-0.9-2.9-0.9
				c-0.7,0-1.3,0.1-1.9,0.2V92.6z M478.6,99.3c0.8,0.2,1.6,0.3,2.4,0.3c1.2,0,2.2-0.3,2.9-0.8c0.7-0.6,1-1.3,1-2.1
				c0-0.5-0.1-1.1-0.4-1.6c-0.3-0.5-0.8-0.9-1.5-1.2c-0.7-0.3-1.5-0.4-2.5-0.4c-0.4,0-0.8,0-1.1,0c-0.3,0-0.5,0-0.7,0.1V99.3z"/>
			<path d="M498.6,95.6h-5.4l-1,2.2c-0.2,0.5-0.4,1-0.4,1.2c0,0.2,0.1,0.4,0.3,0.6c0.2,0.2,0.6,0.3,1.3,0.3v0.4h-4.4v-0.4
				c0.6-0.1,1-0.2,1.1-0.4c0.4-0.3,0.7-1,1.2-2l4.9-11.6h0.4l4.9,11.7c0.4,0.9,0.8,1.5,1.1,1.8c0.3,0.3,0.8,0.4,1.3,0.5v0.4h-5.5
				v-0.4c0.6,0,0.9-0.1,1.1-0.3s0.3-0.4,0.3-0.6c0-0.3-0.1-0.8-0.4-1.4L498.6,95.6z M498.4,94.8l-2.4-5.7l-2.4,5.7H498.4z"/>
			<path d="M516.9,96.4l0.3,0.1l-1.2,3.8h-10.9v-0.4h0.5c0.6,0,1-0.2,1.3-0.6c0.1-0.2,0.2-0.7,0.2-1.5v-9.1c0-0.9-0.1-1.4-0.3-1.6
				c-0.3-0.3-0.7-0.5-1.2-0.5h-0.5v-0.4h6.4v0.4c-0.7,0-1.3,0.1-1.6,0.2c-0.3,0.1-0.5,0.3-0.6,0.5c-0.1,0.2-0.2,0.7-0.2,1.6v8.8
				c0,0.6,0.1,1,0.2,1.2c0.1,0.1,0.2,0.3,0.4,0.3c0.2,0.1,0.7,0.1,1.6,0.1h1c1.1,0,1.8-0.1,2.3-0.2c0.4-0.2,0.8-0.4,1.2-0.8
				C516.2,97.9,516.6,97.3,516.9,96.4z"/>
			<path d="M530.4,96.4l0.3,0.1l-1.2,3.8h-10.9v-0.4h0.5c0.6,0,1-0.2,1.3-0.6c0.1-0.2,0.2-0.7,0.2-1.5v-9.1c0-0.9-0.1-1.4-0.3-1.6
				c-0.3-0.3-0.7-0.5-1.2-0.5h-0.5v-0.4h6.4v0.4c-0.7,0-1.3,0.1-1.6,0.2c-0.3,0.1-0.5,0.3-0.6,0.5c-0.1,0.2-0.2,0.7-0.2,1.6v8.8
				c0,0.6,0.1,1,0.2,1.2c0.1,0.1,0.2,0.3,0.4,0.3c0.2,0.1,0.7,0.1,1.6,0.1h1c1.1,0,1.8-0.1,2.3-0.2c0.4-0.2,0.8-0.4,1.2-0.8
				C529.7,97.9,530,97.3,530.4,96.4z"/>
			<path d="M549.5,85.9l0.3,4.8h-0.3c-0.4-1.4-1-2.5-1.8-3.1c-0.8-0.6-1.7-0.9-2.9-0.9c-0.9,0-1.8,0.2-2.5,0.7
				c-0.8,0.5-1.3,1.2-1.8,2.3c-0.4,1-0.6,2.3-0.6,3.9c0,1.3,0.2,2.4,0.6,3.3c0.4,0.9,1,1.6,1.8,2.1c0.8,0.5,1.8,0.7,2.8,0.7
				c0.9,0,1.7-0.2,2.4-0.6c0.7-0.4,1.5-1.2,2.3-2.3l0.3,0.2c-0.7,1.3-1.5,2.2-2.5,2.7c-0.9,0.6-2.1,0.9-3.3,0.9
				c-2.3,0-4.1-0.9-5.4-2.6c-1-1.3-1.4-2.8-1.4-4.5c0-1.4,0.3-2.7,0.9-3.9c0.6-1.2,1.5-2.1,2.6-2.7c1.1-0.6,2.3-1,3.6-1
				c1,0,2,0.2,3,0.7c0.3,0.2,0.5,0.2,0.6,0.2c0.2,0,0.3-0.1,0.5-0.2c0.2-0.2,0.3-0.4,0.4-0.8H549.5z"/>
			<path d="M563.6,96.4l0.3,0.1l-1.2,3.8h-10.9v-0.4h0.5c0.6,0,1-0.2,1.3-0.6c0.1-0.2,0.2-0.7,0.2-1.5v-9.1c0-0.9-0.1-1.4-0.3-1.6
				c-0.3-0.3-0.7-0.5-1.2-0.5h-0.5v-0.4h6.4v0.4c-0.7,0-1.3,0.1-1.6,0.2c-0.3,0.1-0.5,0.3-0.6,0.5c-0.1,0.2-0.2,0.7-0.2,1.6v8.8
				c0,0.6,0.1,1,0.2,1.2c0.1,0.1,0.2,0.3,0.4,0.3c0.2,0.1,0.7,0.1,1.6,0.1h1c1.1,0,1.8-0.1,2.3-0.2c0.4-0.2,0.8-0.4,1.2-0.8
				C562.8,97.9,563.2,97.3,563.6,96.4z"/>
			<path d="M575,86.6v-0.4h5v0.4h-0.5c-0.6,0-1,0.2-1.3,0.7c-0.1,0.2-0.2,0.7-0.2,1.5v5.7c0,1.4-0.1,2.5-0.4,3.3
				c-0.3,0.8-0.8,1.4-1.6,2c-0.8,0.6-1.9,0.8-3.3,0.8c-1.5,0-2.7-0.3-3.5-0.8c-0.8-0.5-1.4-1.2-1.7-2.1c-0.2-0.6-0.3-1.8-0.3-3.5
				v-5.5c0-0.9-0.1-1.4-0.4-1.7c-0.2-0.3-0.6-0.4-1.2-0.4H565v-0.4h6.1v0.4h-0.5c-0.6,0-1,0.2-1.2,0.5c-0.2,0.2-0.3,0.8-0.3,1.6v6.1
				c0,0.5,0,1.2,0.1,1.9c0.1,0.7,0.3,1.3,0.5,1.6c0.3,0.4,0.6,0.7,1.1,1c0.5,0.3,1.1,0.4,1.8,0.4c0.9,0,1.7-0.2,2.5-0.6
				c0.7-0.4,1.2-0.9,1.5-1.5c0.3-0.6,0.4-1.7,0.4-3.2v-5.7c0-0.9-0.1-1.4-0.3-1.6c-0.3-0.3-0.7-0.5-1.2-0.5H575z"/>
			<path d="M590.5,93.1c1,0.2,1.7,0.5,2.2,1c0.7,0.6,1,1.4,1,2.3c0,0.7-0.2,1.4-0.7,2s-1,1.1-1.8,1.4c-0.8,0.3-1.9,0.4-3.5,0.4h-6.6
				v-0.4h0.5c0.6,0,1-0.2,1.3-0.6c0.2-0.2,0.2-0.8,0.2-1.5v-9.1c0-0.9-0.1-1.4-0.3-1.6c-0.3-0.3-0.7-0.5-1.2-0.5h-0.5v-0.4h6.1
				c1.1,0,2,0.1,2.7,0.2c1,0.2,1.8,0.7,2.4,1.3c0.5,0.6,0.8,1.4,0.8,2.2c0,0.7-0.2,1.3-0.6,1.9C592,92.5,591.3,92.9,590.5,93.1z
				 M585.1,92.6c0.3,0,0.5,0.1,0.9,0.1c0.3,0,0.7,0,1.1,0c1,0,1.8-0.1,2.3-0.3c0.5-0.2,0.9-0.6,1.2-1s0.4-0.9,0.4-1.5
				c0-0.8-0.3-1.5-1-2.1c-0.7-0.6-1.6-0.9-2.9-0.9c-0.7,0-1.3,0.1-1.9,0.2V92.6z M585.1,99.3c0.8,0.2,1.6,0.3,2.4,0.3
				c1.2,0,2.2-0.3,2.9-0.8c0.7-0.6,1-1.3,1-2.1c0-0.5-0.2-1.1-0.4-1.6c-0.3-0.5-0.8-0.9-1.5-1.2c-0.7-0.3-1.5-0.4-2.5-0.4
				c-0.4,0-0.8,0-1.1,0c-0.3,0-0.5,0-0.7,0.1V99.3z"/>
		</g>
	</g>
</g>
</svg>
