<?xml version="1.0" encoding="UTF-8"?>
<svg data-name="图层_1" xmlns="http://www.w3.org/2000/svg" version="1.1" viewBox="0 0 800 800">
  <!-- Created by @FCLOGO 2024-12-14 GMT+8 13:07:04 . https://fclogo.top/ -->
<!-- FOR PERSONAL USE ONLY NOT FOR COMMERCIAL USE -->
  <path d="M348.2194,774.301c-.786,0-1.3752-.2173-1.7682-.6519-.393-.4352-.5284-1.03-.406-1.7856l.2518-1.6478c.122-.755.4501-1.3504.9841-1.785.5339-.4352,1.1939-.6525,1.9799-.6525.7553,0,1.3293.1987,1.7223.5954.3927.3967.551.9381.4747,1.6248h-1.2358c.0304-.3589-.0553-.637-.2573-.8357-.2024-.1981-.4979-.2974-.8869-.2974-.4197,0-.763.1167-1.03.3489-.2673.2328-.4349.5631-.5035.9903l-.2632,1.659c-.0686.4352-.0056.7686.1887,1.0015.1946.2328.5017.3489.9214.3489.389,0,.7152-.0987.9785-.2974.2632-.1981.4365-.4805.5206-.8469h1.2358c-.1372.6867-.4672,1.2306-.9897,1.631-.5228.4005-1.1616.6004-1.9169.6004ZM352.7967,774.1868l.9956-6.2943h1.1902l-.1946,1.1902c.3359-.8698.9729-1.3044,1.9113-1.3044.6712,0,1.1691.208,1.4932.624.3244.416.4293.9859.3148,1.7105l-.0686.4234h-1.2703l.0571-.3204c.0689-.4501.0115-.7953-.1714-1.0356-.1832-.2403-.4771-.3607-.8813-.3607-.4045,0-.7401.1223-1.007.3663-.2673.2446-.4349.588-.5035,1.03l-.6296,3.9711h-1.2358ZM361.9058,774.301c-.7705,0-1.3463-.2229-1.7279-.6693s-.515-1.0356-.4005-1.7682l.2518-1.6478c.0838-.488.2573-.9152.5206-1.2815s.6007-.6507,1.0129-.8524c.4119-.2024.8732-.3036,1.3845-.3036.7705,0,1.3485.2235,1.7338.6693.3852.4464.5169,1.0356.3949,1.7682l-.1717,1.1213h-3.845l-.0916.5265c-.1527.9536.2173,1.4305,1.1098,1.4305.7171,0,1.175-.2477,1.3734-.7438h1.2247c-.1679.5339-.5035.9599-1.007,1.2759-.5038.3166-1.0912.475-1.7626.475ZM361.2306,770.2157l-.0456.2862,2.6548-.0118.0459-.2856c.0686-.4656.0133-.822-.1661-1.0704-.1791-.2477-.4861-.3719-.9211-.3719-.4427,0-.7953.126-1.0586.3775-.2632.2521-.4331.6109-.5094,1.076ZM368.3258,774.301c-.6333,0-1.1027-.2117-1.4078-.6351s-.3967-1.0008-.2744-1.7335l.2744-1.7738c.1145-.7326.393-1.3119.8357-1.7397.4424-.4272.98-.6407,1.6133-.6407.4653,0,.8298.1186,1.093.3545.2632.2365.3908.5575.3834.9617h.023l.1717-1.202h1.2358l-.9956,6.2943h-1.2247l.1946-1.2014h-.023c-.122.4116-.3511.7339-.6867.9667s-.7401.3489-1.2129.3489ZM368.9324,773.2257c.389,0,.7152-.1186.9782-.3551.2632-.2359.4293-.5718.4979-1.007l.2518-1.6478c.0686-.4272.0096-.7612-.1773-1.0015-.1872-.2403-.475-.3601-.8642-.3601-.3967,0-.7249.118-.9841.3545-.2595.2365-.4234.5724-.492,1.007l-.2518,1.6478c-.0686.4427-.0133.7804.1658,1.0133.1794.2328.4712.3489.8757.3489ZM376.3477,774.1868c-.5721,0-.9937-.1565-1.2644-.4694-.271-.3123-.3607-.7512-.2691-1.3156l.538-3.3874h-1.7394l.1714-1.1219h1.7397l.2747-1.7161h1.2358l-.2747,1.7161h2.472l-.1832,1.1219h-2.4605l-.5377,3.3874c-.0764.4421.099.6637.5262.6637h1.7167l-.1717,1.1213h-1.7738ZM382.5042,774.301c-.7705,0-1.3463-.2229-1.7279-.6693s-.515-1.0356-.4005-1.7682l.2518-1.6478c.0838-.488.2573-.9152.5206-1.2815s.6007-.6507,1.0129-.8524c.4119-.2024.8732-.3036,1.3845-.3036.7705,0,1.3485.2235,1.7338.6693.3852.4464.5169,1.0356.3949,1.7682l-.1717,1.1213h-3.845l-.0916.5265c-.1527.9536.2173,1.4305,1.1098,1.4305.7171,0,1.175-.2477,1.3734-.7438h1.2247c-.1679.5339-.5035.9599-1.007,1.2759-.5038.3166-1.0912.475-1.7626.475ZM381.829,770.2157l-.0456.2862,2.6548-.0118.0459-.2856c.0686-.4656.0133-.822-.1661-1.0704-.1791-.2477-.4861-.3719-.9211-.3719-.4427,0-.7953.126-1.0586.3775-.2632.2521-.4331.6109-.5094,1.076ZM388.9243,774.301c-.6333,0-1.1008-.2117-1.4019-.6351-.3014-.4234-.3949-1.0008-.2803-1.7335l.2744-1.7738c.1145-.7326.393-1.3119.8357-1.7397.4424-.4272.98-.6407,1.6133-.6407.4653,0,.8298.1186,1.093.3545.2632.2365.3908.5575.3834.9617h.023l.2058-1.4652.2977-1.7962h1.2358l-1.3274,8.3537h-1.2247l.1946-1.2014h-.023c-.122.4116-.3511.7339-.6867.9667s-.7401.3489-1.2129.3489ZM389.5309,773.2257c.389,0,.7152-.1186.9782-.3551.2632-.2359.4293-.5718.4979-1.007l.2518-1.6478c.0761-.4272.0189-.7612-.1717-1.0015-.1909-.2403-.4805-.3601-.8698-.3601-.3967,0-.7249.118-.9841.3545-.2595.2365-.4234.5724-.492,1.007l-.2518,1.6478c-.0764.4427-.023.7804.1602,1.0133s.4768.3489.8813.3489ZM401.0175,774.301c-.4731,0-.8394-.1161-1.0986-.3489-.2595-.2328-.3852-.5551-.3775-.9667h-.0115l-.1946,1.2014h-1.2243l1.3274-8.3537h1.2358l-.2862,1.7962-.2744,1.4652h.0456c.122-.4123.353-.7345.6923-.9673.3396-.2322.7419-.3489,1.2076-.3489.633,0,1.1002.2136,1.4016.6407.3014.4278.3949,1.007.2806,1.7397l-.2747,1.7738c-.1145.7326-.3949,1.31-.8413,1.7335-.4461.4234-.9822.6351-1.6077.6351ZM400.7657,773.2257c.3967,0,.7227-.1161.9785-.3489.2555-.2328.4216-.5706.4976-1.0133l.2518-1.6478c.0689-.4346.0115-.7705-.1714-1.007-.1832-.2365-.4734-.3545-.8698-.3545-.3893,0-.7152.1198-.9785.3601s-.429.5743-.4979,1.0015l-.2518,1.6478c-.0686.4352-.0112.7711.1717,1.007.1832.2365.4731.3551.8698.3551ZM405.4694,776.2468l.1717-1.0642h1.934c.6407,0,1.007-.3017,1.0986-.9046l.1028-.6749.2061-1.1902h-.0345c-.122.4197-.3471.7438-.6752.9729-.3281.2285-.7286.3433-1.2014.3433-.6258,0-1.093-.2005-1.4019-.601s-.4104-.9443-.3033-1.631l.5836-3.6047h1.2358l-.5606,3.4793c-.0612.4116,0,.732.1832.9611s.4653.3433.8469.3433c.389,0,.7168-.1217.9841-.3663.267-.244.4309-.5836.492-1.0182l.538-3.3992h1.2358l-1.007,6.4086c-.0993.6029-.37,1.0778-.8124,1.4249-.4427.3471-.9996.5209-1.6707.5209h-1.9455ZM417.787,770.0853h3.221l.5368-1.8545h-5.4659l-1.7081,6.4419h2.1473l.5856-2.0985h3.0257l.4392-1.7081h-3.0257l.244-.7808ZM424.229,772.9158c-.5856,0-1.0249-.3904-1.0249-1.1225,0-.8784.6344-1.7569,1.6105-1.7569.488,0,.8784.244,1.0248.7808l1.9521-.8296c-.2928-1.1713-1.2689-1.9033-2.6353-1.9033-2.7817,0-4.1482,2.1473-4.1482,3.9042s1.2689,2.8305,3.0746,2.8305c1.3665,0,2.3425-.5856,2.9769-1.4153l-1.5129-1.1713c-.3904.4392-.8296.6832-1.3177.6832ZM430.9149,768.2308h-2.1473l-1.7569,6.4419h5.1242l.488-1.8545h-2.9281l1.2201-4.5874ZM439.7481,771.0125c0-1.6593-1.3177-2.9281-3.221-2.9281-2.1961,0-3.8066,1.8057-3.8066,3.8066,0,1.6593,1.3177,2.9281,3.221,2.9281,2.1961,0,3.8066-1.8057,3.8066-3.8066ZM434.9167,771.6957c0-.8296.5856-1.7081,1.5129-1.7081.7808,0,1.1713.5368,1.1713,1.2201,0,.8296-.5856,1.7081-1.5129,1.7081-.7808,0-1.1713-.5368-1.1713-1.2201ZM443.2131,772.2326h1.0737l-.1952.6832c-.1464.0488-.3416.0976-.5856.0976-.6832,0-1.2689-.3904-1.2689-1.2201,0-1.0249.732-1.9033,1.9521-1.9033.5856,0,1.1225.244,1.5129.5856l1.3665-1.3665c-.4392-.5368-1.5129-1.0737-2.7329-1.0737-2.5865,0-4.2946,1.7569-4.2946,3.8554,0,2.0497,1.6105,2.8793,3.221,2.8793.9272,0,1.8545-.2928,2.4889-.6832l.9272-3.3186h-3.1234l-.3416,1.4641ZM450.7775,768.0844c-2.1961,0-3.8066,1.8057-3.8066,3.8066,0,1.6593,1.3177,2.9281,3.221,2.9281,2.1961,0,3.8066-1.8057,3.8066-3.8066,0-1.6593-1.3177-2.9281-3.221-2.9281ZM450.3382,772.9158c-.7808,0-1.1713-.5368-1.1713-1.2201,0-.8296.5856-1.7081,1.5129-1.7081.7808,0,1.1713.5368,1.1713,1.2201,0,.8296-.5856,1.7081-1.5129,1.7081ZM437.9424,767.4987c-.0488.2928.0976.488.4392.488s.5368-.1952.6344-.488c.0488-.244-.0976-.488-.4392-.488s-.5856.244-.6344.488ZM432.1349,765.4978c-.4392,0-.732.244-.7808.5856s.0976.5856.5368.5856.732-.244.7808-.5856c.0976-.3416-.0976-.5856-.5368-.5856ZM433.0134,767.3035c-.0976.5368.1464.8784.8296.8784.6344,0,1.0737-.3904,1.1713-.8784s-.1464-.8784-.8296-.8784c-.6832,0-1.0737.3904-1.1713.8784ZM439.6017,777.552l-2.4401-1.8057h-1.5129l4.2458,3.1722,1.6105-3.1722h-.976l-.9272,1.8057ZM425.8394,767.1571l-2.0009-1.4641,23.1323-2.7817-2.1473,4.2458h1.0248l2.6841-5.3195-26.9877,3.221,2.7817,2.0985h1.5129ZM338.7186,785.7853l.6088-3.8315h2.32l-.084.5194h-1.7636l-.1837,1.1445h1.6272l-.084.5248h-1.6166l-.2573,1.6428h-.5668ZM342.97,785.8377c-.3568,0-.6228-.1005-.7978-.3019-.175-.201-.2345-.473-.1784-.8161l.2677-1.7006c.056-.3429.2029-.6148.4408-.8161.2379-.201.5355-.3019.8923-.3019s.6228.1.7979.2993c.1748.1993.2361.4707.1837.8136l-.2677,1.7057c-.0561.3431-.2039.6151-.4435.8161-.2398.2013-.5381.3019-.895.3019ZM343.0487,785.3339c.1925,0,.3483-.0524.4672-.1575.119-.1051.1942-.2571.2257-.4568l.2678-1.7006c.0315-.1993.0051-.3517-.0787-.4565-.084-.1051-.2223-.1575-.4148-.1575s-.3473.0524-.4645.1575c-.1173.1048-.1916.2571-.2231.4565l-.2677,1.7006c-.0315.1996-.0053.3517.0787.4568s.2204.1575.4094.1575ZM344.9961,785.7853l.6088-3.8315h1.202c.2379,0,.4391.0464.6036.139.1645.0928.2835.223.357.391s.091.3656.0524.5932c-.0384.2591-.14.4838-.3044.6746-.1645.1905-.3656.3209-.6036.391l.5354,1.6428h-.6194l-.4777-1.5748h-.5406l-.2466,1.5748h-.5668ZM345.8883,783.7068h.6352c.1889,0,.349-.0558.4803-.168.1313-.1119.2107-.2623.2388-.4514.0316-.1925,0-.3454-.0944-.4593-.0945-.1136-.2362-.1706-.4252-.1706h-.6352l-.1995,1.2493ZM349.545,785.7853l.6088-3.8315h1.2544c.3709,0,.6508.1048.8399.315.1889.2099.2553.4898.1993.8398-.0384.2344-.1216.4383-.2493.6114s-.2905.307-.4881.4015c-.1978.0945-.419.1418-.6639.1418h-.6928l-.2415,1.5221h-.5668ZM350.432,783.754h.6928c.1924,0,.3568-.0587.4934-.176.1364-.117.2204-.2737.2519-.4696s-.0017-.3525-.0997-.4699-.245-.1757-.441-.1757h-.6876l-.2099,1.2911ZM352.7466,785.7853l.6088-3.8315h2.2518l-.0787.5038h-1.6954l-.1731,1.0867h1.5115l-.0787.4986h-1.5115l-.1942,1.2387h1.6901l-.0787.5038h-2.2518ZM355.8434,785.7853l.6088-3.8315h1.202c.2379,0,.4391.0464.6036.139.1645.0928.2835.223.357.391s.091.3656.0524.5932c-.0384.2591-.14.4838-.3044.6746-.1645.1905-.3656.3209-.6036.391l.5354,1.6428h-.6194l-.4777-1.5748h-.5406l-.2466,1.5748h-.5668ZM356.7356,783.7068h.6352c.1889,0,.349-.0558.4803-.168.1313-.1119.2107-.2623.2388-.4514.0316-.1925,0-.3454-.0944-.4593-.0945-.1136-.2362-.1706-.4252-.1706h-.6352l-.1995,1.2493ZM360.1316,785.8377c-.385,0-.6736-.0951-.8661-.2859-.1924-.1908-.2641-.4505-.2151-.7794h.5668c-.028.1748.0105.3121.1155.4121.1051.0997.266.1495.483.1495.2029,0,.3701-.049.5012-.1469.1313-.098.2109-.2327.2389-.4044.0209-.1504.0007-.2788-.0604-.3856-.0614-.1068-.1583-.1811-.2913-.2233l-.4566-.1364c-.266-.0803-.4619-.217-.5879-.4095-.126-.1922-.1697-.4197-.1313-.6823.035-.2099.1121-.3935.2309-.551s.2729-.2799.4619-.3673.4024-.1313.6404-.1313c.3498,0,.6158.0954.7978.2859.182.1908.2485.4437.1995.7586h-.5668c.0279-.168-.0027-.3001-.092-.3964-.0891-.0963-.2301-.1444-.4225-.1444-.1889,0-.343.0447-.4619.1338-.119.0894-.1889.2144-.21.3753-.0245.1506-.007.2791.0525.3859s.1575.1811.2939.223l.4672.1469c.2624.0806.4558.2173.5801.4095.1242.1925.1653.4217.1233.6877-.035.217-.1155.4058-.2415.5667-.1259.1612-.2878.2862-.4855.3753-.1976.0894-.419.1338-.6639.1338ZM363.2651,785.8377c-.3568,0-.6228-.1005-.7978-.3019-.175-.201-.2345-.473-.1784-.8161l.2677-1.7006c.056-.3429.2029-.6148.4408-.8161.2379-.201.5355-.3019.8923-.3019s.6228.1.7979.2993c.1748.1993.2361.4707.1837.8136l-.2677,1.7057c-.0561.3431-.2039.6151-.4435.8161-.2398.2013-.5381.3019-.895.3019ZM363.3439,785.3339c.1925,0,.3483-.0524.4672-.1575.119-.1051.1942-.2571.2257-.4568l.2678-1.7006c.0315-.1993.0051-.3517-.0787-.4565-.084-.1051-.2223-.1575-.4148-.1575s-.3473.0524-.4645.1575c-.1173.1048-.1916.2571-.2231.4565l-.2677,1.7006c-.0315.1996-.0053.3517.0787.4568s.2204.1575.4094.1575ZM365.2754,785.7853l.6088-3.8315h.7086l.6194,3.186c.007-.098.0165-.217.0289-.3571.0121-.1398.0271-.2851.0446-.4354.0175-.1506.0367-.2888.0577-.4146l.315-1.9788h.525l-.609,3.8315h-.7085l-.6141-3.186c-.0071.0945-.0167.209-.0289.3437s-.0272.2757-.0446.4226c-.0177.1469-.0367.2833-.0578.4095l-.315,2.0102h-.5301ZM368.2252,785.7853l1.5851-3.8315h.7454l.3726,3.8315h-.5616l-.0735-.9711h-1.0865l-.3884.9711h-.5932ZM369.3852,784.3418h.8714l-.0893-1.1023c-.0175-.1959-.0298-.3654-.0367-.5089-.0071-.1435-.0105-.2432-.0105-.2993-.0175.0561-.0517.1558-.1024.2993s-.1146.3112-.1915.5038l-.441,1.1075ZM371.7208,785.7853l.6088-3.8315h.567l-.525,3.3118h1.6744l-.0787.5197h-2.2465ZM376.6785,785.8377c-.3673,0-.6342-.1005-.8003-.3019-.1663-.201-.2214-.475-.1654-.8213l.4357-2.7608h.567l-.4357,2.7554c-.0315.1962-.008.35.0708.4619.0787.1122.2144.168.4068.168.1925,0,.3473-.0558.4646-.168.1172-.1119.1915-.2657.2231-.4619l.4355-2.7554h.567l-.4357,2.7608c-.056.35-.2003.6245-.433.8241-.2328.1993-.5328.299-.9003.299ZM379.8435,785.8377c-.385,0-.6736-.0951-.8661-.2859-.1924-.1908-.2641-.4505-.2151-.7794h.5668c-.028.1748.0105.3121.1155.4121.1051.0997.266.1495.483.1495.2029,0,.3701-.049.5012-.1469.1313-.098.2109-.2327.2389-.4044.0209-.1504.0007-.2788-.0604-.3856-.0614-.1068-.1583-.1811-.2913-.2233l-.4566-.1364c-.266-.0803-.4619-.217-.5879-.4095-.126-.1922-.1697-.4197-.1313-.6823.035-.2099.1121-.3935.2309-.551s.2729-.2799.4619-.3673.4024-.1313.6404-.1313c.3498,0,.6158.0954.7978.2859.182.1908.2485.4437.1995.7586h-.5668c.0279-.168-.0027-.3001-.092-.3964-.0891-.0963-.2301-.1444-.4225-.1444-.1889,0-.343.0447-.4619.1338-.119.0894-.1889.2144-.21.3753-.0245.1506-.007.2791.0525.3859s.1575.1811.2939.223l.4672.1469c.2624.0806.4558.2173.5801.4095.1242.1925.1653.4217.1233.6877-.035.217-.1155.4058-.2415.5667-.1259.1612-.2878.2862-.4855.3753-.1976.0894-.419.1338-.6639.1338ZM381.9062,785.7853l.6088-3.8315h2.2518l-.0787.5038h-1.6954l-.1731,1.0867h1.5115l-.0787.4986h-1.5115l-.1942,1.2387h1.6901l-.0787.5038h-2.2518ZM386.9426,785.8377c-.3568,0-.6228-.1005-.7978-.3019-.175-.201-.2345-.473-.1784-.8161l.2677-1.7006c.056-.3429.2029-.6148.4408-.8161.2379-.201.5355-.3019.8923-.3019s.6228.1.7979.2993c.1748.1993.2361.4707.1837.8136l-.2677,1.7057c-.0561.3431-.2039.6151-.4435.8161-.2398.2013-.5381.3019-.895.3019ZM387.0213,785.3339c.1925,0,.3483-.0524.4672-.1575.119-.1051.1942-.2571.2257-.4568l.2678-1.7006c.0315-.1993.0051-.3517-.0787-.4565-.084-.1051-.2223-.1575-.4148-.1575s-.3473.0524-.4645.1575c-.1173.1048-.1916.2571-.2231.4565l-.2677,1.7006c-.0315.1996-.0053.3517.0787.4568s.2204.1575.4094.1575ZM388.9529,785.7853l.6088-3.8315h.7086l.6194,3.186c.007-.098.0165-.217.0289-.3571.0121-.1398.0271-.2851.0446-.4354.0175-.1506.0367-.2888.0577-.4146l.315-1.9788h.525l-.609,3.8315h-.7085l-.6141-3.186c-.0071.0945-.0167.209-.0289.3437s-.0272.2757-.0446.4226c-.0177.1469-.0367.2833-.0578.4095l-.315,2.0102h-.5301ZM392.249,785.7853l.6088-3.8315h.567l-.525,3.3118h1.6744l-.0787.5197h-2.2465ZM396.1174,785.7853l.2204-1.4119-.7506-2.4197h.5774l.4462,1.4486c.0279.0945.0498.1837.0656.2677.0157.084.0253.1469.0288.1888.0175-.0419.0464-.1048.0867-.1888.0402-.084.0883-.1731.1442-.2677l.8976-1.4486h.5984l-1.5275,2.4197-.2204,1.4119h-.5668ZM399.217,785.7853l.6088-3.8315h.7086l.6192,3.186c.0071-.098.0165-.217.029-.3571.012-.1398.0271-.2851.0444-.4354.0177-.1506.037-.2888.0578-.4146l.315-1.9788h.5248l-.6088,3.8315h-.7085l-.6141-3.186c-.0071.0945-.0167.209-.0289.3437s-.0272.2757-.0446.4226c-.0177.1469-.0367.2833-.0578.4095l-.315,2.0102h-.5301ZM403.5053,785.8377c-.3571,0-.6231-.1005-.7979-.3019-.1751-.201-.2344-.473-.1785-.8161l.2677-1.7006c.0561-.3429.203-.6148.4411-.8161.2378-.201.5354-.3019.8922-.3019.3571,0,.6228.1.7979.2993.1748.1993.2361.4707.1837.8136l-.2677,1.7057c-.0561.3431-.2039.6151-.4437.8161-.2395.2013-.5379.3019-.8947.3019ZM403.5839,785.3339c.1925,0,.3483-.0524.4673-.1575.1187-.1051.1942-.2571.2255-.4568l.2677-1.7006c.0316-.1993.0054-.3517-.0786-.4565-.084-.1051-.2224-.1575-.4146-.1575-.1925,0-.3474.0524-.4647.1575-.117.1048-.1914.2571-.223.4565l-.2677,1.7006c-.0316.1996-.0051.3517.0789.4568.0837.1051.2204.1575.4092.1575ZM406.3814,785.7853l.5248-3.3121h-1.0234l.084-.5194h2.6193l-.084.5194h-1.0289l-.5248,3.3121h-.567ZM409.5178,785.7853l.6088-3.8315h2.32l-.084.5194h-1.7636l-.1837,1.1445h1.6272l-.084.5248h-1.6166l-.2571,1.6428h-.567ZM413.7694,785.8377c-.3571,0-.6231-.1005-.7979-.3019-.1751-.201-.2344-.473-.1785-.8161l.2677-1.7006c.0561-.3429.203-.6148.4411-.8161.2378-.201.5354-.3019.8922-.3019.3571,0,.6228.1.7979.2993.1748.1993.2361.4707.1837.8136l-.2677,1.7057c-.0561.3431-.2039.6151-.4437.8161-.2395.2013-.5379.3019-.8947.3019ZM413.848,785.3339c.1925,0,.3483-.0524.4673-.1575.1187-.1051.1942-.2571.2255-.4568l.2677-1.7006c.0316-.1993.0054-.3517-.0786-.4565-.084-.1051-.2224-.1575-.4146-.1575-.1925,0-.3474.0524-.4647.1575-.117.1048-.1914.2571-.223.4565l-.2677,1.7006c-.0316.1996-.0051.3517.0789.4568.0837.1051.2204.1575.4092.1575ZM415.7952,785.7853l.6088-3.8315h1.202c.2381,0,.4391.0464.6037.139.1643.0928.2833.223.3568.391s.0911.3656.0527.5932c-.0387.2591-.1401.4838-.3044.6746-.1646.1905-.3659.3209-.6037.391l.5354,1.6428h-.6194l-.4776-1.5748h-.5408l-.2466,1.5748h-.567ZM416.6876,783.7068h.635c.1891,0,.3491-.0558.4804-.168.131-.1119.2107-.2623.2386-.4514.0316-.1925,0-.3454-.0945-.4593-.0943-.1136-.2361-.1706-.4252-.1706h-.635l-.1993,1.2493ZM420.905,785.8377c-.3602,0-.6308-.1005-.8107-.3019-.1803-.201-.2423-.473-.1865-.8161l.2677-1.7006c.0561-.3463.2056-.6194.4488-.8187s.545-.2993.9056-.2993c.3568,0,.6253.1008.8056.3019.1803.2013.2423.4733.1865.8161h-.567c.0313-.1993.0026-.3517-.0866-.4565-.0894-.1051-.2284-.1575-.4175-.1575-.1925,0-.3508.0524-.475.1575-.1242.1048-.2019.2554-.2335.4514l-.2677,1.7057c-.0316.1996-.0026.3517.0866.4568.0894.1051.2301.1575.4226.1575s.35-.0524.4724-.1575.1993-.2571.2309-.4568h.5667c-.0347.2275-.1145.4252-.2386.5932s-.2808.2976-.4699.3884c-.1888.0908-.4024.1364-.6404.1364ZM424.0335,785.8377c-.3571,0-.6231-.1005-.7979-.3019-.1751-.201-.2344-.473-.1785-.8161l.2677-1.7006c.0561-.3429.203-.6148.4411-.8161.2378-.201.5354-.3019.8922-.3019.3571,0,.6228.1.7979.2993.1748.1993.2361.4707.1837.8136l-.2677,1.7057c-.0561.3431-.2039.6151-.4437.8161-.2395.2013-.5379.3019-.8947.3019ZM424.1121,785.3339c.1925,0,.3483-.0524.4673-.1575.1187-.1051.1942-.2571.2255-.4568l.2677-1.7006c.0316-.1993.0054-.3517-.0786-.4565-.084-.1051-.2224-.1575-.4146-.1575-.1925,0-.3474.0524-.4647.1575-.117.1048-.1914.2571-.223.4565l-.2677,1.7006c-.0316.1996-.0051.3517.0789.4568.0837.1051.2204.1575.4092.1575ZM425.9653,785.7853l.6088-3.8315h.6874l.1837,1.2282c.0211.119.0367.2301.0473.3332.0105.1034.0194.1828.0262.2389.0177-.0561.0473-.1364.0894-.2415.0419-.1051.0908-.217.1469-.336l.5667-1.2228h.7088l-.6088,3.8315h-.5354l.2045-1.2911c.0245-.168.0578-.3525.1-.5539.0419-.201.0874-.4041.1364-.6088s.0963-.3998.1418-.5852c.0453-.1854.0874-.3483.1259-.4881l-.8554,1.8632h-.5513l-.2833-1.8632c-.0037.1364-.0105.2947-.0211.475s-.0236.3719-.0393.5747c-.0157.203-.035.4069-.0578.6114-.0228.2047-.0481.3964-.076.5749l-.2047,1.2911h-.5405ZM429.1145,785.7853l.6088-3.8315h.6874l.1837,1.2282c.0211.119.0367.2301.0473.3332.0105.1034.0194.1828.0262.2389.0177-.0561.0473-.1364.0894-.2415.0419-.1051.0908-.217.1469-.336l.5667-1.2228h.7088l-.6088,3.8315h-.5354l.2045-1.2911c.0245-.168.0578-.3525.1-.5539.0419-.201.0874-.4041.1364-.6088s.0963-.3998.1418-.5852c.0453-.1854.0874-.3483.1259-.4881l-.8554,1.8632h-.5513l-.2833-1.8632c-.0037.1364-.0105.2947-.0211.475s-.0236.3719-.0393.5747c-.0157.203-.035.4069-.0578.6114-.0228.2047-.0481.3964-.076.5749l-.2047,1.2911h-.5405ZM432.4107,785.7853l.6088-3.8315h2.2516l-.0786.5038h-1.6955l-.1731,1.0867h1.5115l-.0786.4986h-1.5118l-.1942,1.2387h1.6901l-.0786.5038h-2.2516ZM435.5073,785.7853l.6088-3.8315h1.202c.2381,0,.4391.0464.6037.139.1643.0928.2833.223.3568.391s.0911.3656.0527.5932c-.0387.2591-.1401.4838-.3044.6746-.1646.1905-.3659.3209-.6037.391l.5354,1.6428h-.6194l-.4776-1.5748h-.5408l-.2466,1.5748h-.567ZM436.3997,783.7068h.635c.1891,0,.3491-.0558.4804-.168.131-.1119.2107-.2623.2386-.4514.0316-.1925,0-.3454-.0945-.4593-.0943-.1136-.2361-.1706-.4252-.1706h-.635l-.1993,1.2493ZM439.8007,785.8377c-.3602,0-.6308-.1005-.8107-.3019-.1803-.201-.2423-.473-.1865-.8161l.2677-1.7006c.0561-.3463.2056-.6194.4488-.8187s.545-.2993.9056-.2993c.3568,0,.6253.1008.8056.3019.1803.2013.2423.4733.1865.8161h-.567c.0313-.1993.0026-.3517-.0866-.4565-.0894-.1051-.2284-.1575-.4175-.1575-.1925,0-.3508.0524-.475.1575-.1242.1048-.2019.2554-.2335.4514l-.2677,1.7057c-.0316.1996-.0026.3517.0866.4568.0894.1051.2301.1575.4226.1575s.35-.0524.4724-.1575.1993-.2571.2309-.4568h.5667c-.0347.2275-.1145.4252-.2386.5932s-.2808.2976-.4699.3884c-.1888.0908-.4024.1364-.6404.1364ZM441.8792,785.7853l.0789-.5038h.7768l.4459-2.824h-.7766l.0837-.5038h2.1258l-.084.5038h-.7766l-.4462,2.824h.7768l-.0789.5038h-2.1258ZM444.7399,785.7853l1.585-3.8315h.7452l.3728,3.8315h-.5616l-.0735-.9711h-1.0867l-.3884.9711h-.5929ZM445.8998,784.3418h.8714l-.0894-1.1023c-.0174-.1959-.0296-.3654-.0367-.5089-.0068-.1435-.0103-.2432-.0103-.2993-.0177.0561-.0518.1558-.1025.2993s-.1148.3112-.1916.5038l-.4408,1.1075ZM448.2354,785.7853l.6088-3.8315h.567l-.5248,3.3118h1.6741l-.0786.5197h-2.2465ZM453.1932,785.8377c-.3676,0-.6345-.1005-.8005-.3019-.1663-.201-.2213-.475-.1654-.8213l.4357-2.7608h.567l-.4357,2.7554c-.0316.1962-.008.35.0709.4619.0786.1122.2141.168.4066.168s.3474-.0558.4645-.168c.1173-.1119.1916-.2657.2233-.4619l.4357-2.7554h.5667l-.4357,2.7608c-.0558.35-.2002.6245-.4328.8241-.2329.1993-.5328.299-.9001.299ZM456.3581,785.8377c-.385,0-.6738-.0951-.866-.2859-.1925-.1908-.2643-.4505-.2153-.7794h.567c-.0282.1748.0105.3121.1153.4121.1051.0997.266.1495.483.1495.2028,0,.3699-.049.5012-.1469s.2107-.2327.2389-.4044c.0211-.1504.0009-.2788-.0604-.3856s-.1583-.1811-.2913-.2233l-.4568-.1364c-.266-.0803-.4619-.217-.5878-.4095-.1259-.1922-.1697-.4197-.1313-.6823.035-.2099.1119-.3935.2309-.551s.2731-.2799.4619-.3673c.1891-.0874.4024-.1313.6404-.1313.3497,0,.6157.0954.7979.2859.1817.1908.2483.4437.1993.7586h-.567c.0279-.168-.0026-.3001-.0917-.3964-.0894-.0963-.2301-.1444-.4226-.1444-.1891,0-.3429.0447-.4619.1338-.119.0894-.1891.2144-.2099.3753-.0245.1506-.0071.2791.0524.3859s.1575.1811.2939.223l.4673.1469c.2623.0806.4556.2173.5798.4095.1242.1925.1654.4217.1236.6877-.035.217-.1156.4058-.2415.5667-.1262.1612-.2879.2862-.4855.3753-.1979.0894-.4192.1338-.6641.1338ZM458.4209,785.7853l.6088-3.8315h2.2516l-.0786.5038h-1.6955l-.1731,1.0867h1.5115l-.0786.4986h-1.5118l-.1942,1.2387h1.6901l-.0786.5038h-2.2516Z" style="fill: #ccc;"/>
  <g>
    <path id="path4822" d="M50.0065,400c0-193.3076,156.6925-350,349.9998-350s349.9872,156.6924,349.9872,350-156.6927,350-349.9872,350S50.0065,593.3069,50.0065,400Z" style="fill: #2e6abd;"/>
    <path id="path4867" d="M65.2616,399.6319c0-184.8064,149.8234-334.6302,334.6429-334.6302s334.6302,149.8237,334.6302,334.6302-149.8106,334.6429-334.6302,334.6429S65.2616,584.4515,65.2616,399.6319Z" style="fill: #fff;"/>
    <path id="path3794" d="M399.7324,78.5679c-177.3513,0-320.8406,143.8207-320.8406,321.1592s143.4893,320.8406,320.8406,320.8406,321.1592-143.4766,321.1592-320.8406S577.0836,78.5679,399.7324,78.5679ZM421.7165,99.2776l24.533,3.8233,7.328,21.9841c1.2745,3.9253,2.1538,7.9143,2.5489,11.7886l.3186.3186c1.3891-3.1479,5.085-8.8319,6.6908-11.1514l13.063-18.1608,23.5772,3.8233-36.3216,44.6054-4.4605,28.9935-21.6655-3.5047,4.7792-28.9935-20.3911-53.5265ZM379.6599,101.1892l36.6402,75.192-22.9399,2.5489-6.3722-15.6119-29.3122,3.5047-3.5047,16.5677-21.3469,2.5489,19.4352-81.5642,27.4005-3.1861ZM366.9155,118.7128c-.2676,4.4096-1.198,9.6348-1.9117,13.063l-3.8233,19.1166,19.1166-2.2303-8.2839-17.8422c-2.0901-4.5498-3.6704-9.1887-4.4605-12.1072h-.6372ZM519.2112,120.3059l48.7474,25.4888-7.6466,14.3375-29.9494-15.6119-6.6908,13.063,28.0377,14.6561-7.6466,14.3375-28.0377-14.6561-7.328,13.7002,30.9052,16.2491-7.328,14.3375-49.7032-26.126,36.6402-69.7757ZM279.2977,125.4036c6.5554-.8395,13.662.9367,18.4794,9.5583,7.2133,12.8719-.8284,20.1362-3.8233,22.9399l.3186.6372c6.1428-2.4342,16.6952-4.2821,23.8958,8.6025,10.3612,18.5049-9.4054,29.7582-16.5677,33.7727l-28.3563,15.9305-38.5519-69.1384,28.9935-16.2491c3.0013-1.6823,9.0565-5.2141,15.6119-6.0536ZM276.1115,143.5644c-.6927-.0308-1.4274.0768-2.2303.3186-1.0705.3224-2.1984.8634-3.5047,1.5931l-10.1955,5.735,7.6466,13.3816,9.8769-5.735c4.7537-2.6508,6.4104-6.1683,3.8233-10.8328-1.6775-2.9965-3.3383-4.368-5.4164-4.4605ZM601.7313,170.0091l24.533,26.7633c4.0528,4.3968,18.0716,19.2313,1.5931,34.4099-7.277,6.7036-15.5354,9.3289-24.8516,5.0978l-13.7002,36.6402-16.2491-17.8422,13.3816-29.9494-5.735-6.0536-22.3027,20.3911-14.6561-15.9305,57.9871-53.5265ZM292.9979,170.3277c-2.1299-.2867-4.5179.3377-7.328,1.9117l-10.1955,5.735,8.2839,14.9747,11.1514-6.0536c4.8429-2.7146,6.3722-7.5574,3.8233-12.1072-1.6568-2.9503-3.6051-4.1738-5.735-4.4605ZM604.9174,196.1351l-12.7444,11.7886,7.6466,8.2839c1.8734,2.0519,6.4359,7.0349,13.063.9558,3.339-3.0969,4.486-7.5192-.3186-12.7444l-7.6466-8.2839ZM399.7324,198.684c110.9146,0,201.0431,90.1285,201.0431,201.0431s-90.1285,200.7245-201.0431,200.7245-200.7245-89.7971-200.7245-200.7245,89.8099-201.0431,200.7245-201.0431ZM177.9796,204.7376c4.8579-.3691,9.4962.6627,13.3816,2.2303l-7.328,18.798c-3.7214-1.5803-11.3553-4.1037-16.5677,4.1419-3.1351,4.9703-4.7028,15.1149,12.7444,26.126,10.9857,6.933,23.3095,11.47,29.9494.9558,4.7409-7.5065-.3059-13.9806-3.8233-18.1608l14.3375-14.3375c11.4572,12.2219,13.3052,25.132,3.8233,40.1449-10.7308,16.9883-29.9621,27.1201-55.7568,10.8328-25.8074-16.3001-24.0232-39.2655-14.0189-55.1196,6.7705-10.7292,15.162-14.9967,23.2586-15.6119ZM669.9139,259.5386l8.2839,25.8074-30.5866,30.268c-3.7978,3.7851-8.6917,8.08-14.0189,11.7886l.3186.9558c3.2754-1.7587,8.6408-3.7851,15.6119-6.0536l36.6402-12.1072,6.3722,19.4352-75.192,24.2144-8.6025-25.8074,32.1796-31.861c4.6772-4.6517,10.2465-8.9211,12.7444-10.1955l-.3186-.6372c-3.8488,1.4656-7.0349,3.0332-11.47,4.4605l-41.1007,13.063-6.0536-19.1166,75.192-24.2144ZM125.7275,277.3808l15.2933,5.735-11.1514,31.2238,15.6119,5.735,10.8328-30.5866,15.2933,5.4164-10.8328,30.5866,28.0377,10.1955-7.328,20.3911-74.2362-26.7633,18.4794-51.9335ZM184.3518,463.1306l15.2933,28.9935-29.9494,28.9935c-1.6568,1.6185-6.2448,5.3144-9.8769,7.9653l.3186.6372c3.5939-1.2617,10.4759-2.9567,13.7002-3.5047l39.8263-7.0094,14.6561,28.3563-70.0943,36.3216-9.5583-18.4794,40.1449-21.0283c5.2125-2.7273,13.2797-6.283,16.2491-7.328l-.6372-1.2744c-3.0077.9431-12.6297,3.0969-18.4794,4.1419l-46.1985,8.6025-7.328-14.0189,36.6402-36.3216c3.5557-3.4792,8.577-7.6339,10.8328-9.5583l-.6372-.9558c-2.5616,1.5676-11.4955,6.9075-17.205,9.8769l-38.2332,20.0725-9.5583-17.8422,70.0943-36.6402ZM618.9363,463.7678l69.4571,37.9146-13.063,23.8958-44.9241-1.2744c-6.5888-.1657-13.5983-1.2744-16.2491-2.2303l-.3186.6372c3.7086,1.746,7.0604,2.8802,11.1514,5.0978l37.9146,20.7097-9.5583,17.8422-69.4571-37.596,13.063-23.8958,43.0124,1.2744c5.3527.1275,11.8013.6117,18.1608,1.9117l.3186-.9558c-3.5429-1.1597-8.526-3.5302-14.9747-7.0094l-34.0913-18.4794,9.5583-17.8422ZM574.6494,541.1901l10.8328,11.7886-24.533,22.9399,9.8769,10.5141,23.2586-21.3469,10.8328,11.7886-22.9399,21.6655,10.5141,11.47,25.4888-23.5772,11.1514,11.7886-41.1007,38.2332-53.8451-57.9871,40.4635-37.2774ZM237.2411,556.802l17.205,13.063-30.5866,39.5077c-5.0978,6.5634-6.5379,13.5218.6372,19.1166,7.7231,5.9899,14.21,2.4724,19.1166-3.8233l30.5866-39.1891,16.5677,12.7444-30.5866,39.1891c-12.1199,15.6119-28.4709,17.103-45.5613,3.8233-14.3629-11.1641-22.0095-26.7633-7.6466-45.2427l30.268-39.1891ZM259.2252,573.3698l10.8328,8.6025-19.4352,13.3816,8.6025-21.9841ZM520.4857,585.7956l37.2774,69.4571-19.1166,10.5141-15.9305-29.3122-22.9399,12.1072,15.6119,29.3122-19.1166,10.1955-37.2774-69.4571,19.1166-10.1955,14.0189,25.8074,22.9399-12.1072-13.7002-26.126,19.1166-10.1955ZM306.3795,604.9122l25.8074,7.9653,7.0094,42.6938c.9049,5.2889,1.6568,11.6611,1.5931,18.1608l.9558.3186c.4588-3.6959,1.9626-9.2652,4.1419-16.2491l11.47-36.9588,19.1166,6.0536-23.5772,75.192-25.8074-7.9653-7.6466-44.6054c-1.096-6.4997-1.0451-13.4581-.6372-16.2491l-.9558-.3186c-1.0196,3.989-1.4784,7.6721-2.8675,12.1072l-13.063,41.1007-19.1166-6.0536,23.5772-75.192ZM423.9467,620.8427c15.5022-.9198,24.772,8.2393,28.6749,17.205l-18.4794,8.2839c-1.5676-3.7341-5.1488-10.8328-14.6561-8.6025-5.7095,1.3509-13.6365,7.3153-8.9211,27.4005,2.9822,12.6297,8.2966,24.5202,20.3911,21.6655,8.6407-2.0136,9.4436-10.1573,9.8769-15.6119h20.3911c-.3951,16.7207-7.8888,27.1711-25.1702,31.2238-19.5499,4.6007-40.8076-1.5548-47.7916-31.2238-6.984-29.7072,10.4249-45.0897,28.6749-49.3846,2.4692-.5814,4.7948-.8244,7.0094-.9558Z" style="fill: #ed1248;"/>
    <path id="path5000" d="M399.4137,214.2959c-72.503,0-135.2819,41.5723-165.6774,102.2739l27.7191,47.4729,7.328-86.3434,41.1007,70.4129,7.0094-86.0248,41.4193,70.4129,7.328-86.0248,41.1007,70.4129,7.328-86.3434,41.1007,70.7315,6.3722-76.4665c-19.4098-6.8947-40.3488-10.5141-62.129-10.5141ZM455.1706,301.2765l-7.328,86.3434,41.1007,70.0943,7.0094-86.0248-40.7821-70.4129ZM447.8425,387.6199l-41.1007-70.4129-7.328,86.0248-41.1007-70.4129-7.328,86.0248-41.1007-70.0943-7.328,86.0248,41.1007,70.4129,7.0094-86.3434,41.4193,70.7315,7.328-86.0248,41.1007,70.0943,7.328-86.0248ZM392.0857,489.5753l-7.328,86.3434-41.1007-70.4129-5.735,68.5012c19.2696,6.78,39.9028,10.5141,61.4918,10.5141,70.8589,0,132.338-39.6734,163.4471-98.132l-25.4888-44.2868-7.328,86.3434-41.1007-70.4129-7.328,86.3434-41.1007-70.4129-7.328,86.3434-41.1007-70.7315ZM537.372,442.1023l7.0094-86.3434-40.7821-70.0943-7.328,86.0248,41.1007,70.4129ZM302.5562,434.7743l-41.1007-70.4129-7.0094,86.3434,40.7821,70.0943,7.328-86.0248ZM470.1452,228.3148l33.4541,57.0313,2.8675-36.9588c-11.2661-8.0035-23.3732-14.7198-36.3216-20.0725ZM550.1164,291.7182l-5.4164,64.3593,38.5519,65.9523c.9048-7.43,1.2744-14.9619,1.2744-22.6213,0-40.1322-12.7189-77.3586-34.4099-107.6903ZM214.9384,383.1594c-.4588,5.3144-.6372,10.8073-.6372,16.2491,0,40.3998,13.0758,77.8938,35.0471,108.3275l4.7792-57.3499-39.1891-67.2268ZM295.2282,521.1177l-2.5489,29.6308c9.2779,6.5506,19.2058,12.0944,29.6308,16.8863l-27.0819-46.5171Z" style="fill: #2e6abd;"/>
  </g>
</svg>