<?xml version="1.0" encoding="utf-8"?>
<!-- Created by @FCLOGO 2025-2-10 GMT+8 19:13:09 . https://fclogo.top/ -->
<!-- FOR PERSONAL USE ONLY NOT FOR COMMERCIAL USE -->
<svg version="1.1" xmlns="http://www.w3.org/2000/svg" xmlns:xlink="http://www.w3.org/1999/xlink" x="0px" y="0px"
	 viewBox="0 0 800 800" style="enable-background:new 0 0 800 800;" xml:space="preserve">
<g>
	<path style="fill:#E50012;" d="M695.5551,174.3378l-2.7498-15.1222l-14.1093,2.8341c-15.0858,1.7392-30.5972,2.6225-46.1019,2.6225
		c-106.8845,0-165.9279-49.1774-221.8299-103.9456L400.0377,50l-10.6628,10.6582
		C326.0177,122.884,257.8414,177.477,121.3908,162.052l-14.0136-2.2855l-2.9389,15.0494
		c-22.2565,142.5423-4.9239,259.2063,52.9836,356.6483c47.2652,80.5145,121.8338,148.2698,234.5391,213.1567L400.0377,750
		l7.9538-5.3063c112.4208-64.9529,186.9779-132.699,234.6415-213.209C700.504,433.428,717.8139,316.6047,695.5551,174.3378
		 M394.358,740.7555C282.2377,676.2009,208.1973,608.9624,161.3419,529.149c-57.3497-96.504-74.4911-212.1778-52.4213-353.5478
		l2.0761-10.6331l9.7727,1.5957c16.1261,1.8189,31.2916,2.6793,45.6353,2.677c108.9083-0.0045,169.4586-49.644,226.1732-105.3479
		l7.4598-7.4552l7.5235,7.5235C464.1779,119.4353,523.993,169.225,632.594,169.225c15.6799,0,31.3667-0.8923,46.8099-2.6816
		l9.7499-1.9532l1.9054,10.4784c22.0858,141.1696,4.9626,256.9959-52.3463,354.101
		c-47.2447,79.8043-121.2828,147.0359-233.1231,211.6589l-5.5544,3.7014L394.358,740.7555z"/>
	<path style="fill:#FFFFFF;" d="M638.7137,529.1691c57.3065-97.1027,74.4319-212.9313,52.3461-354.101l-1.9053-10.476
		l-9.7499,1.9509c-15.4432,1.7893-31.13,2.6816-46.81,2.6816c-108.6032,0-168.416-49.7898-225.0327-105.2614l-7.5258-7.5258
		l-7.4575,7.4552c-56.7146,55.7039-117.2672,105.3456-226.1732,105.3502c-14.346,0.0023-29.5092-0.8582-45.6353-2.6794
		l-9.7727-1.5935l-2.0761,10.6332c-22.0721,141.3676-4.9284,257.0437,52.4213,353.5455
		c46.8555,79.8156,120.8959,147.0518,233.0161,211.6064l5.6773,3.7743l5.5522-3.7015
		C517.4308,676.205,591.4689,608.9756,638.7137,529.1691"/>
	<polygon style="fill:#E50012;" points="398.3959,362.9151 385.8893,402.782 413.6388,402.782 402.3045,362.9151 	"/>
	<path style="fill:#E50012;" d="M678.3593,182.7836l-1.1724-6.4445l-5.8754,1.1837c-15.0494,1.7483-30.504,2.6339-45.9426,2.6339
		c-106.6296,0-165.2473-48.7745-220.6961-103.1012l-4.6394-4.6393l-4.6256,4.6234
		c-62.8632,61.7432-130.4955,115.9059-265.8443,100.5151c-0.0205-0.0023-2.3174-0.2982-4.4276-0.6944l-2.2377-0.4211l-1.1997,6.399
		c-21.3186,136.289-4.8715,247.6581,50.2769,340.4584c45.089,76.7994,116.4705,141.5612,224.5229,203.7347l3.5352,2.3538
		l3.4101-2.2764c107.7951-62.2485,179.1766-127.008,224.6434-203.8029l0.0023-0.0045
		C683.1625,429.9818,699.6073,318.6172,678.3593,182.7836 M419.5035,422.7154h-39.8669l-5.0832,16.4153h-6.6426h-23.8432
		l23.8432-65.0462l16.4152-44.7817h31.6581l16.0259,44.1465l23.8432,65.6814h-23.8432h-7.8195L419.5035,422.7154z
		 M175.8952,520.9815c-0.2299-0.3893-0.4484-0.7831-0.6783-1.1724V184.7298c23.4789-0.0546,44.7088-2.4198,64.1016-6.6972v68.2675
		c-15.9531,10.7082-25.4048,29.3248-25.4048,52.5146c0,23.4333,9.4517,41.9884,25.4048,52.6193v252.2587
		C213.9569,577.5049,192.9979,550.1151,175.8952,520.9815 M273.3212,332.8198c15.2452,0,19.1515-12.9005,20.7154-19.1538h9.3811
		h21.1069c-0.7398,13.3057-8.0084,26.9141-21.1069,35.1616c-7.6807,4.8374-17.3645,7.8331-28.9219,7.8331
		c-14.0136,0-25.9625-3.8585-35.1774-10.8471c-13.144-9.9707-20.7177-26.3199-20.7177-46.9988
		c0-20.679,7.5736-37.0305,20.7177-46.9989c9.2149-6.9909,21.1638-10.8494,35.1774-10.8494
		c11.6256,0.1594,21.2685,2.6293,28.9219,7.2527c11.1294,6.7223,18.0087,18.0406,20.3238,33.7889h-20.3238h-9.7727
		c-1.9531-8.6003-7.8149-16.8069-20.3238-16.8069c-15.2429,0-24.2324,12.509-24.2324,33.6136
		C249.0888,319.9194,258.0784,332.8198,273.3212,332.8198 M303.4178,660.2822V354.0497
		c16.4403-9.3105,25.7963-26.1879,25.7963-42.7283v-2.3447h-25.7963v-22.277h25.4048l-0.3893-2.7362
		c-2.0101-19.6068-10.6832-33.5202-25.0155-41.0825v-88.3636c23.8682-12.5909,44.8362-28.2777,64.4931-45.5101v251.7921
		l-30.488,83.0231h30.488v260.7998C344.5184,690.0645,323.07,675.3224,303.4178,660.2822 M432.0101,704.6495V443.8224h30.4857
		l-30.4857-83.7697V108.8638c19.5453,17.1756,40.3564,32.8578,64.0994,45.4555V417.243h-22.2793v72.6996
		c0,20.9066,7.4826,35.1274,22.2793,42.7215v127.8321C476.5551,675.4704,455.2364,690.1487,432.0101,704.6495 M496.1095,527.5398
		c-11.9171-6.9818-17.5876-19.3176-17.5876-37.5972v-68.0079h17.5876h12.8981v60.1929c0,11.3343,0,28.5303,19.5453,28.5303
		c19.1514,0,19.1514-17.196,19.1514-28.5303v-60.1929h12.8959h17.5898v68.0079c0,18.3251-5.6956,30.6792-17.5898,37.6519
		c-7.8901,4.6257-18.4845,6.9066-32.0474,6.9066C514.7806,534.5011,504.0655,532.2019,496.1095,527.5398 M624.1692,520.9838
		c-17.2188,29.0834-38.221,56.4301-63.5689,82.5815v-70.8512c14.7626-7.5827,22.2793-21.8172,22.2793-42.7715V417.243h-22.2793
		V178.0281c19.3677,4.257,40.5817,6.6267,64.1016,6.6722V520.055C624.522,520.3623,624.3513,520.6765,624.1692,520.9838"/>
</g>
<g>
</g>
<g>
</g>
<g>
</g>
<g>
</g>
<g>
</g>
<g>
</g>
<g>
</g>
<g>
</g>
<g>
</g>
<g>
</g>
<g>
</g>
<g>
</g>
<g>
</g>
<g>
</g>
<g>
</g>
</svg>
