<?xml version="1.0" encoding="UTF-8"?>
<svg data-name="图层_1" xmlns="http://www.w3.org/2000/svg" version="1.1" viewBox="0 0 800 800">
  <!-- Created by @FCLOGO 2025-7-12 GMT+8 21:26:50 . https://fclogo.top/ -->
<!-- FOR PERSONAL USE ONLY NOT FOR COMMERCIAL USE -->
  <path d="M242.2839,525.1543c4.6296-4.0123,9.105-8.0247,13.8889-11.8827,15.4321,17.4383,20.216,24.6913,14.9691,30.4012s-12.5-1.2346-28.858-18.5186ZM212.8087,448.7654l-4.0123-9.7222-43.2099,17.9012,4.0123,9.7222c6.7902,15.2778,15.2778,18.9815,31.0186,12.5,14.1975-5.8642,18.0555-16.358,12.1913-30.4012ZM470.6791,585.8024l-8.7963,5.5556,25.1543,39.6605,8.7963-5.5555c13.8889-9.2593,16.0494-18.3642,6.9445-32.7161-8.179-13.1173-19.2902-14.9692-32.0988-6.9445ZM750,242.5926c0,.3087,0,.463-.1544.7716-22.0679,74.3828-51.5432,173.7654-85.6481,236.2654-78.3951,143.2098-167.284,215.895-264.1975,215.895-97.0679,0-185.9568-72.6851-264.1975-215.895-34.105-62.3457-63.426-161.8828-85.6482-236.2654-.1543-.1544-.1543-.463-.1543-.7716,0-1.0803.7716-2.1605,1.8519-2.4692l118.8271-32.716c10.6481,111.574,130.7098,362.5,229.321,362.5s218.5185-250.7716,229.321-362.3457c19.9074,5.5555,118.8271,32.7161,118.8271,32.7161,1.0803.1543,1.8519,1.2346,1.8519,2.3148ZM694.2901,253.7037l-54.7839,162.037c-.3087.9259.1544,1.8519,1.0803,2.1605l8.3333,2.9321c.926.3087,1.8519-.1543,2.1605-1.0803l54.7839-162.1913c.3087-.9259-.1544-1.8519-1.0803-2.1605l-8.3333-2.7778c-.926-.3086-1.8519.1544-2.1605,1.0803ZM677.0062,247.8395l-54.6296,162.1913c-.3087.926.1544,1.8519,1.0803,2.1605l8.179,2.7778c.9259.3087,1.8519-.1544,2.1605-1.0803l54.7839-162.1913c.3087-.9259-.1543-1.8518-1.0803-2.1605l-8.3333-2.7778c-.9259-.3086-1.8519.1544-2.1605,1.0803ZM659.7222,242.1296l-54.7839,162.1913c-.3087.9259.1543,1.8518,1.0803,2.1605l8.4877,2.7778c.9259.3087,1.8519-.1543,2.1605-1.0802l54.6296-162.1913c.3087-.926-.1544-1.8519-1.0803-2.1605l-8.3333-2.7778c-.926-.3087-1.8519.1543-2.1605,1.0803ZM588.8889,400.6172l8.3333,2.7778c.9259.3087,1.8519-.1543,2.1605-1.0802l54.6296-162.1913c.3087-.926-.1544-1.8519-1.0803-2.1605l-8.3333-2.7778c-.926-.3087-1.8519.1543-2.1605,1.0802l-54.6296,162.1914c-.3087.9259.1543,1.8518,1.0803,2.1605ZM145.679,240.1235l54.7839,162.1913c.3087.9259,1.2346,1.3889,2.1605,1.0802l8.3333-2.7778c.9259-.3087,1.3889-1.2346,1.0803-2.1605l-54.7839-162.1914c-.3087-.9259-1.2346-1.3889-2.1605-1.0802l-8.3333,2.7778c-.926.3087-1.3889,1.2346-1.0803,2.1605ZM128.5494,245.8333l54.7839,162.3457c.3087.9259,1.2346,1.3889,2.1605,1.0802l8.3333-2.9321c.926-.3086,1.3889-1.2346,1.0803-2.1605l-54.7839-162.1913c-.3087-.9259-1.2346-1.3889-2.1605-1.0803l-8.3333,2.7778c-.926.3086-1.3889,1.2346-1.0803,2.1605ZM111.2654,251.6975l54.7839,162.1913c.3087.9259,1.2346,1.3889,2.1605,1.0803l8.3333-2.7778c.9259-.3087,1.3889-1.2346,1.0803-2.1605l-54.7839-162.1913c-.3087-.9259-1.2346-1.3889-2.1605-1.0803l-8.3333,2.7778c-.926.3087-1.3889,1.2346-1.0803,2.1605ZM94.1358,257.5617l54.6296,162.1913c.3087.926,1.2346,1.3889,2.1605,1.0803l8.3334-2.7778c.9259-.3087,1.3889-1.2346,1.0802-2.1605l-54.6296-162.1913c-.3087-.9259-1.2346-1.3889-2.1605-1.0803l-8.3333,2.7778c-.926.3087-1.3889,1.2346-1.0803,2.1605ZM142.1296,423.7654c.9259-.3086,1.3889-1.2345,1.0803-2.1605l-54.784-162.1913c-.3086-.926-1.2346-1.3889-2.1605-1.0803l-8.3333,2.7778c-.926.3087-1.3889,1.2346-1.0803,2.1605l54.7839,162.3456c.3087.926,1.2346,1.3889,2.1605,1.0803l8.3334-2.9321ZM208.7963,499.3827c24.2284-10.0308,32.8704-30.4012,22.9938-54.4753l-13.8889-33.642-78.3951,32.4074,13.8889,33.642c9.8765,23.7654,29.7839,32.7161,55.4012,22.0679ZM251.2346,559.1049c6.4814,5.0926,25.1543,11.2654,36.7284-2.7778,11.4198-14.3519,5.7099-29.6296-4.1667-40.8951-9.8765-11.2654-16.5123-18.9815-24.8456-28.3951-22.3766,18.2099-44.5988,36.7284-66.821,55.0927,4.1666,4.9383,8.642,9.7222,12.8086,14.6605,7.8704-6.4815,15.4321-13.2716,23.1482-19.9074,1.5432,2.0062,3.2407,4.0124,4.7839,6.0186-1.0803,12.3456-2.4691,24.6913-3.7037,37.037,5.5556,4.9382,12.963,12.1913,18.3642,17.2839,1.3889-16.6666,2.7778-25.9259,3.7037-38.1173ZM313.2716,591.9753l7.7161-12.6544,33.7963,20.5247,9.1049-15.1234-52.7778-31.9445-43.6728,72.5309,53.7037,32.5618,9.8765-16.2037-34.8766-21.142,8.3334-13.8889,30.5555,18.3642,8.7963-14.6605-30.5555-18.3642ZM435.4938,651.2345c-.3087-15.2778-12.8087-20.8334-25.1544-23.9197-12.5-3.2408-24.6913-4.1667-24.8456-10.6482-.1544-5.5555,5.7098-7.2531,10.4938-7.4073,6.7901-.1544,14.0432,2.1605,13.8889,9.8765l22.0679-.463c-.463-19.1359-17.7469-27.0062-34.5679-26.5432-15.895.3087-34.4136,8.0247-33.9506,26.5432.463,15.5864,13.2717,20.8333,25.463,23.9197,12.3456,3.0864,24.537,4.321,24.6913,11.7284.1543,6.3271-6.6358,8.7963-13.2716,8.9506-9.4136.1544-15.5864-2.7778-16.358-12.8086l-22.2222.4629c.6173,21.7593,18.0555,29.9382,37.5,29.4753,18.6729-.3086,36.7284-7.716,36.2654-29.1666ZM521.6049,581.0185c-14.0432-22.0679-35.6481-27.1605-57.5617-13.2716l-30.8642,19.4445,45.216,71.6049,30.8642-19.4445c21.9136-13.7346,27.1605-34.8765,12.3457-58.3333ZM605.4012,545.2161l-14.0432-12.6544-27.3148,30.2469-12.037-10.8025,23.9198-26.3889-12.6544-11.4197-23.9197,26.3889-10.9568-9.8765,26.5432-29.321-13.1173-11.8828-41.2037,45.8333,62.6544,56.4815,42.1296-46.6049ZM659.4136,445.9876l-77.4692-34.5679-8.4877,18.9814,47.6852,21.2963-.1543.1544-59.7223,5.5555-9.2592,20.679,77.6235,34.7222,8.4877-18.9814-48.3025-21.605.1544-.1543,60.1852-5.4012,9.2593-20.679ZM721.9135,261.2654l-8.3333-2.7778c-.926-.3087-1.8519.1543-2.1605,1.0802l-54.6296,162.1914c-.3087.9259.1543,1.8518,1.0803,2.1605l8.3333,2.7778c.926.3087,1.8519-.1543,2.1605-1.0803l54.6296-162.1913c.3087-.9259-.1543-1.8518-1.0803-2.1605ZM251.4458,416.5479c-43.77-80.0996-75.5386-174.3511-75.5386-224.1094,0-32.436,50.0928-52.4492,92.1152-63.5273,50.9492-13.4307,107.9907-18.436,131.9775-18.436s81.0283,5.0054,131.9775,18.436c42.0225,11.0781,92.1152,31.0913,92.1152,63.5273,0,49.7583-31.7686,144.0098-75.5381,224.1094-23.5225,43.0459-48.8701,79.2021-73.3037,104.5615-27.3623,28.3984-52.6797,42.7979-75.251,42.7979s-47.8887-14.3994-75.251-42.7979c-24.4331-25.3594-49.7812-61.5156-73.3032-104.5615ZM197.2222,198.9197c0,45.9877,29.9383,134.1049,71.2963,209.7222,22.0679,40.4321,45.8333,74.2284,68.5185,97.8395,23.4568,24.3828,45.2161,37.1914,62.963,37.1914s39.5062-12.963,62.8087-37.3457c22.6851-23.4568,46.4506-57.4074,68.5185-97.8395,41.2037-75.463,71.142-163.5802,71.142-209.5679,0-17.2839-29.4753-35.3395-78.858-48.3025-47.8395-12.6543-101.3889-17.2839-123.7654-17.2839s-75.9259,4.6296-123.7654,17.2839c-49.3828,12.963-78.858,31.0186-78.858,48.3025ZM316.6666,240.1234c-26.8519,8.9506-50.1544,25.6173-72.6852,42.1296-1.3889,1.3889-3.5494-.463-3.0864-2.1605.9259-8.0247,4.1666-15.2778,7.8704-22.2222,9.4136-20.2161,26.2346-35.8025,44.9074-47.3765,14.8148-9.105,31.0185-16.0494,47.5309-21.4506,1.8519-.3087,2.7778-2.1605,4.0123-3.3951,14.6605-16.0494,33.642-28.7037,55.0926-33.7963,5.8642-1.3889,11.8828-2.7778,17.9012-2.4692.7716,2.1605-1.2346,3.2408-2.6235,4.4753-7.0988,5.8642-14.1975,11.8827-18.8271,19.7531-.9259,1.6976-2.0062,3.3951-2.1605,5.4012,3.3951.3087,6.7901-.1543,10.1852-.1543,17.2839-.3087,34.8765,1.3889,51.5432,6.6358,27.0062,8.0247,51.5432,25.1543,67.1296,48.6111,4.321,6.4815,8.4876,13.2716,10.9568,20.8333,8.9506,25.463,9.1049,53.3951,3.5494,79.321-6.7902,31.6358-21.142,61.2654-40.4321,87.037-8.0247,10.4938-18.0556,19.2901-29.321,25.7716-18.9815,10.9568-42.284,14.0432-63.426,8.3333-14.6605-4.1667-29.1666-9.1049-44.2901-12.1913-15.4321-3.2407-31.7902-4.1667-47.0679.9259-1.6975.926-3.395-1.0802-2.3148-2.6234,3.3951-8.0247,8.179-15.4321,10.9568-23.6111,5.4012-14.6605,7.5617-30.4012,7.716-45.9876.3087-24.2284-3.7037-48.1482-7.8704-71.9136-1.5432-8.4877-1.0802-17.284-1.5432-25.926-.463-6.4814.3087-12.8087.3087-19.2901,0-4.6296,1.0803-9.2593,1.0803-14.0432-1.0803-1.8519-3.3951-1.2346-5.0926-.6173ZM375.1544,401.3889c21.2963-1.6975,42.4382,2.0062,63.1172,6.3272,12.037,1.6975,23.9197-3.0864,33.3334-10.4938,4.9382-4.0124,9.8765-8.0247,13.1172-13.5803,8.3333-12.963,12.4999-28.2408,13.5803-43.5186,1.6975-24.2284-3.2408-48.9197-13.7346-70.8333-6.1728-12.1913-15.7407-22.8395-27.1605-30.5555-13.1173-8.642-28.7037-13.5803-44.2902-15.2778-8.9506-1.2346-18.0556-.926-27.1605-.6173-6.1729,5.8642-6.4815,15.1235-6.3271,23.1481,4.0123,29.7839,9.1049,59.5679,8.642,89.6605-.1543,19.9074-2.9321,40.1234-10.3395,58.7963-.926,2.3148-2.1605,4.4753-2.7778,6.9445Z"/>
</svg>