<?xml version="1.0" encoding="iso-8859-1"?>
<!-- Created by @FCLOGO 2024-10-16 GMT+8 9:58:39 . https://fclogo.top/ -->
<!-- FOR PERSONAL USE ONLY NOT FOR COMMERCIAL USE -->
<svg version="1.1" id="&#x56FE;&#x5C42;_1" xmlns="http://www.w3.org/2000/svg" xmlns:xlink="http://www.w3.org/1999/xlink" x="0px"
	 y="0px" viewBox="0 0 800 800" style="enable-background:new 0 0 800 800;" xml:space="preserve">
<path style="fill:#CCCCCC;" d="M348.219,774.301c-0.786,0-1.375-0.217-1.768-0.652c-0.393-0.435-0.528-1.03-0.406-1.786l0.252-1.648
	c0.122-0.755,0.45-1.35,0.984-1.785c0.534-0.435,1.194-0.653,1.98-0.653c0.755,0,1.329,0.199,1.722,0.595
	c0.393,0.397,0.551,0.938,0.475,1.625h-1.236c0.03-0.359-0.055-0.637-0.257-0.836c-0.202-0.198-0.498-0.297-0.887-0.297
	c-0.42,0-0.763,0.117-1.03,0.349c-0.267,0.233-0.435,0.563-0.504,0.99l-0.263,1.659c-0.069,0.435-0.006,0.769,0.189,1.001
	c0.195,0.233,0.502,0.349,0.921,0.349c0.389,0,0.715-0.099,0.978-0.297c0.263-0.198,0.436-0.481,0.521-0.847h1.236
	c-0.137,0.687-0.467,1.231-0.99,1.631C349.614,774.101,348.975,774.301,348.219,774.301z M352.797,774.187l0.996-6.294h1.19
	l-0.195,1.19c0.336-0.87,0.973-1.304,1.911-1.304c0.671,0,1.169,0.208,1.493,0.624c0.324,0.416,0.429,0.986,0.315,1.71l-0.069,0.423
	h-1.27l0.057-0.32c0.069-0.45,0.011-0.795-0.171-1.036c-0.183-0.24-0.477-0.361-0.881-0.361c-0.405,0-0.74,0.122-1.007,0.366
	c-0.267,0.245-0.435,0.588-0.504,1.03l-0.63,3.971H352.797z M361.906,774.301c-0.77,0-1.346-0.223-1.728-0.669
	c-0.382-0.446-0.515-1.036-0.4-1.768l0.252-1.648c0.084-0.488,0.257-0.915,0.521-1.281c0.263-0.366,0.601-0.651,1.013-0.852
	c0.412-0.202,0.873-0.304,1.385-0.304c0.771,0,1.349,0.224,1.734,0.669c0.385,0.446,0.517,1.036,0.395,1.768l-0.172,1.121h-3.845
	l-0.092,0.526c-0.153,0.954,0.217,1.43,1.11,1.43c0.717,0,1.175-0.248,1.373-0.744h1.225c-0.168,0.534-0.504,0.96-1.007,1.276
	C363.165,774.143,362.577,774.301,361.906,774.301z M361.231,770.216l-0.046,0.286l2.655-0.012l0.046-0.286
	c0.069-0.466,0.013-0.822-0.166-1.07c-0.179-0.248-0.486-0.372-0.921-0.372c-0.443,0-0.795,0.126-1.059,0.378
	C361.477,769.392,361.307,769.751,361.231,770.216z M368.326,774.301c-0.633,0-1.103-0.212-1.408-0.635
	c-0.305-0.423-0.397-1.001-0.274-1.733l0.274-1.774c0.115-0.733,0.393-1.312,0.836-1.74c0.442-0.427,0.98-0.641,1.613-0.641
	c0.465,0,0.83,0.119,1.093,0.354c0.263,0.237,0.391,0.558,0.383,0.962h0.023l0.172-1.202h1.236l-0.996,6.294h-1.225l0.195-1.201
	h-0.023c-0.122,0.412-0.351,0.734-0.687,0.967C369.203,774.185,368.799,774.301,368.326,774.301z M368.932,773.226
	c0.389,0,0.715-0.119,0.978-0.355c0.263-0.236,0.429-0.572,0.498-1.007l0.252-1.648c0.069-0.427,0.01-0.761-0.177-1.001
	c-0.187-0.24-0.475-0.36-0.864-0.36c-0.397,0-0.725,0.118-0.984,0.355c-0.26,0.237-0.423,0.572-0.492,1.007l-0.252,1.648
	c-0.069,0.443-0.013,0.78,0.166,1.013C368.236,773.11,368.528,773.226,368.932,773.226z M376.348,774.187
	c-0.572,0-0.994-0.156-1.264-0.469c-0.271-0.312-0.361-0.751-0.269-1.316l0.538-3.387h-1.739l0.171-1.122h1.74l0.275-1.716h1.236
	l-0.275,1.716h2.472l-0.183,1.122h-2.46l-0.538,3.387c-0.076,0.442,0.099,0.664,0.526,0.664h1.717l-0.172,1.121H376.348z
	 M382.504,774.301c-0.77,0-1.346-0.223-1.728-0.669c-0.382-0.446-0.515-1.036-0.4-1.768l0.252-1.648
	c0.084-0.488,0.257-0.915,0.521-1.281c0.263-0.366,0.601-0.651,1.013-0.852c0.412-0.202,0.873-0.304,1.385-0.304
	c0.771,0,1.349,0.224,1.734,0.669c0.385,0.446,0.517,1.036,0.395,1.768l-0.172,1.121h-3.845l-0.092,0.526
	c-0.153,0.954,0.217,1.43,1.11,1.43c0.717,0,1.175-0.248,1.373-0.744h1.225c-0.168,0.534-0.504,0.96-1.007,1.276
	C383.763,774.143,383.176,774.301,382.504,774.301z M381.829,770.216l-0.046,0.286l2.655-0.012l0.046-0.286
	c0.069-0.466,0.013-0.822-0.166-1.07c-0.179-0.248-0.486-0.372-0.921-0.372c-0.443,0-0.795,0.126-1.059,0.378
	C382.075,769.392,381.905,769.751,381.829,770.216z M388.924,774.301c-0.633,0-1.101-0.212-1.402-0.635
	c-0.301-0.423-0.395-1.001-0.28-1.733l0.274-1.774c0.115-0.733,0.393-1.312,0.836-1.74c0.442-0.427,0.98-0.641,1.613-0.641
	c0.465,0,0.83,0.119,1.093,0.354c0.263,0.237,0.391,0.558,0.383,0.962h0.023l0.206-1.465l0.298-1.796h1.236l-1.327,8.354h-1.225
	l0.195-1.201h-0.023c-0.122,0.412-0.351,0.734-0.687,0.967C389.802,774.185,389.397,774.301,388.924,774.301z M389.531,773.226
	c0.389,0,0.715-0.119,0.978-0.355c0.263-0.236,0.429-0.572,0.498-1.007l0.252-1.648c0.076-0.427,0.019-0.761-0.172-1.001
	c-0.191-0.24-0.481-0.36-0.87-0.36c-0.397,0-0.725,0.118-0.984,0.355c-0.26,0.237-0.423,0.572-0.492,1.007l-0.252,1.648
	c-0.076,0.443-0.023,0.78,0.16,1.013C388.833,773.11,389.126,773.226,389.531,773.226z M401.017,774.301
	c-0.473,0-0.839-0.116-1.099-0.349c-0.26-0.233-0.385-0.555-0.377-0.967h-0.011l-0.195,1.201h-1.224l1.327-8.354h1.236l-0.286,1.796
	l-0.274,1.465h0.046c0.122-0.412,0.353-0.734,0.692-0.967c0.34-0.232,0.742-0.349,1.208-0.349c0.633,0,1.1,0.214,1.402,0.641
	c0.301,0.428,0.395,1.007,0.281,1.74l-0.275,1.774c-0.115,0.733-0.395,1.31-0.841,1.733
	C402.179,774.089,401.643,774.301,401.017,774.301z M400.766,773.226c0.397,0,0.723-0.116,0.978-0.349
	c0.255-0.233,0.422-0.571,0.498-1.013l0.252-1.648c0.069-0.435,0.011-0.771-0.171-1.007c-0.183-0.237-0.473-0.355-0.87-0.355
	c-0.389,0-0.715,0.12-0.978,0.36c-0.263,0.24-0.429,0.574-0.498,1.001l-0.252,1.648c-0.069,0.435-0.011,0.771,0.172,1.007
	C400.079,773.107,400.369,773.226,400.766,773.226z M405.469,776.247l0.172-1.064h1.934c0.641,0,1.007-0.302,1.099-0.905
	l0.103-0.675l0.206-1.19h-0.034c-0.122,0.42-0.347,0.744-0.675,0.973c-0.328,0.228-0.729,0.343-1.201,0.343
	c-0.626,0-1.093-0.201-1.402-0.601c-0.309-0.4-0.41-0.944-0.303-1.631l0.584-3.605h1.236l-0.561,3.479
	c-0.061,0.412,0,0.732,0.183,0.961c0.183,0.229,0.465,0.343,0.847,0.343c0.389,0,0.717-0.122,0.984-0.366
	c0.267-0.244,0.431-0.584,0.492-1.018l0.538-3.399h1.236l-1.007,6.409c-0.099,0.603-0.37,1.078-0.812,1.425
	c-0.443,0.347-1,0.521-1.671,0.521H405.469z M417.787,770.085h3.221l0.537-1.854h-5.466l-1.708,6.442h2.147l0.586-2.099h3.026
	l0.439-1.708h-3.026L417.787,770.085z M424.229,772.916c-0.586,0-1.025-0.39-1.025-1.122c0-0.878,0.634-1.757,1.61-1.757
	c0.488,0,0.878,0.244,1.025,0.781l1.952-0.83c-0.293-1.171-1.269-1.903-2.635-1.903c-2.782,0-4.148,2.147-4.148,3.904
	c0,1.757,1.269,2.831,3.075,2.831c1.366,0,2.343-0.586,2.977-1.415l-1.513-1.171C425.156,772.672,424.717,772.916,424.229,772.916z
	 M430.915,768.231h-2.147l-1.757,6.442h5.124l0.488-1.854h-2.928L430.915,768.231z M439.748,771.013
	c0-1.659-1.318-2.928-3.221-2.928c-2.196,0-3.807,1.806-3.807,3.807c0,1.659,1.318,2.928,3.221,2.928
	C438.138,774.819,439.748,773.013,439.748,771.013z M434.917,771.696c0-0.83,0.586-1.708,1.513-1.708
	c0.781,0,1.171,0.537,1.171,1.22c0,0.83-0.586,1.708-1.513,1.708C435.307,772.916,434.917,772.379,434.917,771.696z
	 M443.213,772.233h1.074l-0.195,0.683c-0.146,0.049-0.342,0.098-0.586,0.098c-0.683,0-1.269-0.39-1.269-1.22
	c0-1.025,0.732-1.903,1.952-1.903c0.586,0,1.122,0.244,1.513,0.586l1.366-1.367c-0.439-0.537-1.513-1.074-2.733-1.074
	c-2.587,0-4.295,1.757-4.295,3.855c0,2.05,1.61,2.879,3.221,2.879c0.927,0,1.854-0.293,2.489-0.683l0.927-3.319h-3.123
	L443.213,772.233z M450.777,768.084c-2.196,0-3.807,1.806-3.807,3.807c0,1.659,1.318,2.928,3.221,2.928
	c2.196,0,3.807-1.806,3.807-3.807C453.998,769.353,452.681,768.084,450.777,768.084z M450.338,772.916
	c-0.781,0-1.171-0.537-1.171-1.22c0-0.83,0.586-1.708,1.513-1.708c0.781,0,1.171,0.537,1.171,1.22
	C451.851,772.037,451.265,772.916,450.338,772.916z M437.942,767.499c-0.049,0.293,0.098,0.488,0.439,0.488s0.537-0.195,0.634-0.488
	c0.049-0.244-0.098-0.488-0.439-0.488C438.235,767.011,437.991,767.255,437.942,767.499z M432.135,765.498
	c-0.439,0-0.732,0.244-0.781,0.586c-0.049,0.342,0.098,0.586,0.537,0.586s0.732-0.244,0.781-0.586
	C432.769,765.742,432.574,765.498,432.135,765.498z M433.013,767.304c-0.098,0.537,0.146,0.878,0.83,0.878
	c0.634,0,1.074-0.39,1.171-0.878s-0.146-0.878-0.83-0.878C433.501,766.425,433.111,766.815,433.013,767.304z M439.602,777.552
	l-2.44-1.806h-1.513l4.246,3.172l1.61-3.172h-0.976L439.602,777.552z M425.839,767.157l-2.001-1.464l23.132-2.782l-2.147,4.246
	h1.025l2.684-5.319l-26.988,3.221l2.782,2.099H425.839z M338.719,785.785l0.609-3.832h2.32l-0.084,0.519H339.8l-0.184,1.144h1.627
	l-0.084,0.525h-1.617l-0.257,1.643H338.719z M342.97,785.838c-0.357,0-0.623-0.101-0.798-0.302
	c-0.175-0.201-0.234-0.473-0.178-0.816l0.268-1.701c0.056-0.343,0.203-0.615,0.441-0.816c0.238-0.201,0.536-0.302,0.892-0.302
	c0.357,0,0.623,0.1,0.798,0.299c0.175,0.199,0.236,0.471,0.184,0.814l-0.268,1.706c-0.056,0.343-0.204,0.615-0.444,0.816
	C343.625,785.737,343.327,785.838,342.97,785.838z M343.049,785.334c0.193,0,0.348-0.052,0.467-0.157
	c0.119-0.105,0.194-0.257,0.226-0.457l0.268-1.701c0.031-0.199,0.005-0.352-0.079-0.456c-0.084-0.105-0.222-0.157-0.415-0.157
	s-0.347,0.052-0.464,0.157c-0.117,0.105-0.192,0.257-0.223,0.456l-0.268,1.701c-0.031,0.2-0.005,0.352,0.079,0.457
	C342.723,785.281,342.86,785.334,343.049,785.334z M344.996,785.785l0.609-3.832h1.202c0.238,0,0.439,0.046,0.604,0.139
	c0.164,0.093,0.283,0.223,0.357,0.391c0.073,0.168,0.091,0.366,0.052,0.593c-0.038,0.259-0.14,0.484-0.304,0.675
	c-0.164,0.19-0.366,0.321-0.604,0.391l0.535,1.643h-0.619l-0.478-1.575h-0.541l-0.247,1.575H344.996z M345.888,783.707h0.635
	c0.189,0,0.349-0.056,0.48-0.168c0.131-0.112,0.211-0.262,0.239-0.451c0.032-0.193,0-0.345-0.094-0.459
	c-0.095-0.114-0.236-0.171-0.425-0.171h-0.635L345.888,783.707z M349.545,785.785l0.609-3.832h1.254c0.371,0,0.651,0.105,0.84,0.315
	c0.189,0.21,0.255,0.49,0.199,0.84c-0.038,0.234-0.122,0.438-0.249,0.611s-0.29,0.307-0.488,0.402
	c-0.198,0.095-0.419,0.142-0.664,0.142h-0.693l-0.241,1.522H349.545z M350.432,783.754h0.693c0.192,0,0.357-0.059,0.493-0.176
	c0.136-0.117,0.22-0.274,0.252-0.47c0.031-0.196-0.002-0.353-0.1-0.47c-0.098-0.117-0.245-0.176-0.441-0.176h-0.688L350.432,783.754
	z M352.747,785.785l0.609-3.832h2.252l-0.079,0.504h-1.695l-0.173,1.087h1.512l-0.079,0.499h-1.512l-0.194,1.239h1.69l-0.079,0.504
	H352.747z M355.843,785.785l0.609-3.832h1.202c0.238,0,0.439,0.046,0.604,0.139c0.164,0.093,0.284,0.223,0.357,0.391
	c0.073,0.168,0.091,0.366,0.052,0.593c-0.038,0.259-0.14,0.484-0.304,0.675c-0.164,0.19-0.366,0.321-0.604,0.391l0.535,1.643h-0.619
	l-0.478-1.575h-0.541l-0.247,1.575H355.843z M356.736,783.707h0.635c0.189,0,0.349-0.056,0.48-0.168
	c0.131-0.112,0.211-0.262,0.239-0.451c0.032-0.193,0-0.345-0.094-0.459c-0.095-0.114-0.236-0.171-0.425-0.171h-0.635
	L356.736,783.707z M360.132,785.838c-0.385,0-0.674-0.095-0.866-0.286c-0.192-0.191-0.264-0.451-0.215-0.779h0.567
	c-0.028,0.175,0.011,0.312,0.115,0.412c0.105,0.1,0.266,0.15,0.483,0.15c0.203,0,0.37-0.049,0.501-0.147
	c0.131-0.098,0.211-0.233,0.239-0.404c0.021-0.15,0.001-0.279-0.06-0.386c-0.061-0.107-0.158-0.181-0.291-0.223l-0.457-0.136
	c-0.266-0.08-0.462-0.217-0.588-0.409c-0.126-0.192-0.17-0.42-0.131-0.682c0.035-0.21,0.112-0.394,0.231-0.551
	c0.119-0.157,0.273-0.28,0.462-0.367c0.189-0.087,0.402-0.131,0.64-0.131c0.35,0,0.616,0.095,0.798,0.286
	c0.182,0.191,0.248,0.444,0.199,0.759h-0.567c0.028-0.168-0.003-0.3-0.092-0.396c-0.089-0.096-0.23-0.144-0.422-0.144
	c-0.189,0-0.343,0.045-0.462,0.134c-0.119,0.089-0.189,0.214-0.21,0.375c-0.025,0.151-0.007,0.279,0.053,0.386
	c0.06,0.107,0.158,0.181,0.294,0.223l0.467,0.147c0.262,0.081,0.456,0.217,0.58,0.409c0.124,0.193,0.165,0.422,0.123,0.688
	c-0.035,0.217-0.115,0.406-0.241,0.567c-0.126,0.161-0.288,0.286-0.486,0.375C360.598,785.793,360.376,785.838,360.132,785.838z
	 M363.265,785.838c-0.357,0-0.623-0.101-0.798-0.302c-0.175-0.201-0.234-0.473-0.178-0.816l0.268-1.701
	c0.056-0.343,0.203-0.615,0.441-0.816c0.238-0.201,0.535-0.302,0.892-0.302c0.357,0,0.623,0.1,0.798,0.299
	c0.175,0.199,0.236,0.471,0.184,0.814l-0.268,1.706c-0.056,0.343-0.204,0.615-0.444,0.816
	C363.92,785.737,363.622,785.838,363.265,785.838z M363.344,785.334c0.192,0,0.348-0.052,0.467-0.157
	c0.119-0.105,0.194-0.257,0.226-0.457l0.268-1.701c0.031-0.199,0.005-0.352-0.079-0.456c-0.084-0.105-0.222-0.157-0.415-0.157
	c-0.192,0-0.347,0.052-0.464,0.157c-0.117,0.105-0.192,0.257-0.223,0.456l-0.268,1.701c-0.031,0.2-0.005,0.352,0.079,0.457
	C363.019,785.281,363.155,785.334,363.344,785.334z M365.275,785.785l0.609-3.832h0.709l0.619,3.186
	c0.007-0.098,0.017-0.217,0.029-0.357c0.012-0.14,0.027-0.285,0.045-0.435c0.018-0.151,0.037-0.289,0.058-0.415l0.315-1.979h0.525
	l-0.609,3.832h-0.708l-0.614-3.186c-0.007,0.095-0.017,0.209-0.029,0.344s-0.027,0.276-0.045,0.423
	c-0.018,0.147-0.037,0.283-0.058,0.409l-0.315,2.01H365.275z M368.225,785.785l1.585-3.832h0.745l0.373,3.832h-0.562l-0.073-0.971
	h-1.087l-0.388,0.971H368.225z M369.385,784.342h0.871l-0.089-1.102c-0.017-0.196-0.03-0.365-0.037-0.509
	c-0.007-0.144-0.011-0.243-0.011-0.299c-0.017,0.056-0.052,0.156-0.102,0.299c-0.051,0.143-0.115,0.311-0.191,0.504L369.385,784.342
	z M371.721,785.785l0.609-3.832h0.567l-0.525,3.312h1.674l-0.079,0.52H371.721z M376.678,785.838c-0.367,0-0.634-0.101-0.8-0.302
	c-0.166-0.201-0.221-0.475-0.165-0.821l0.436-2.761h0.567l-0.436,2.755c-0.031,0.196-0.008,0.35,0.071,0.462
	c0.079,0.112,0.214,0.168,0.407,0.168c0.192,0,0.347-0.056,0.465-0.168c0.117-0.112,0.192-0.266,0.223-0.462l0.436-2.755h0.567
	l-0.436,2.761c-0.056,0.35-0.2,0.625-0.433,0.824C377.346,785.738,377.046,785.838,376.678,785.838z M379.843,785.838
	c-0.385,0-0.674-0.095-0.866-0.286c-0.192-0.191-0.264-0.451-0.215-0.779h0.567c-0.028,0.175,0.011,0.312,0.115,0.412
	c0.105,0.1,0.266,0.15,0.483,0.15c0.203,0,0.37-0.049,0.501-0.147c0.131-0.098,0.211-0.233,0.239-0.404
	c0.021-0.15,0.001-0.279-0.06-0.386c-0.061-0.107-0.158-0.181-0.291-0.223l-0.457-0.136c-0.266-0.08-0.462-0.217-0.588-0.409
	c-0.126-0.192-0.17-0.42-0.131-0.682c0.035-0.21,0.112-0.394,0.231-0.551s0.273-0.28,0.462-0.367
	c0.189-0.087,0.402-0.131,0.64-0.131c0.35,0,0.616,0.095,0.798,0.286c0.182,0.191,0.248,0.444,0.199,0.759h-0.567
	c0.028-0.168-0.003-0.3-0.092-0.396c-0.089-0.096-0.23-0.144-0.422-0.144c-0.189,0-0.343,0.045-0.462,0.134
	c-0.119,0.089-0.189,0.214-0.21,0.375c-0.024,0.151-0.007,0.279,0.053,0.386c0.06,0.107,0.157,0.181,0.294,0.223l0.467,0.147
	c0.262,0.081,0.456,0.217,0.58,0.409c0.124,0.193,0.165,0.422,0.123,0.688c-0.035,0.217-0.115,0.406-0.241,0.567
	c-0.126,0.161-0.288,0.286-0.486,0.375C380.31,785.793,380.088,785.838,379.843,785.838z M381.906,785.785l0.609-3.832h2.252
	l-0.079,0.504h-1.695l-0.173,1.087h1.512l-0.079,0.499h-1.512l-0.194,1.239h1.69l-0.079,0.504H381.906z M386.943,785.838
	c-0.357,0-0.623-0.101-0.798-0.302c-0.175-0.201-0.234-0.473-0.178-0.816l0.268-1.701c0.056-0.343,0.203-0.615,0.441-0.816
	c0.238-0.201,0.536-0.302,0.892-0.302c0.357,0,0.623,0.1,0.798,0.299c0.175,0.199,0.236,0.471,0.184,0.814l-0.268,1.706
	c-0.056,0.343-0.204,0.615-0.444,0.816C387.598,785.737,387.299,785.838,386.943,785.838z M387.021,785.334
	c0.193,0,0.348-0.052,0.467-0.157c0.119-0.105,0.194-0.257,0.226-0.457l0.268-1.701c0.031-0.199,0.005-0.352-0.079-0.456
	c-0.084-0.105-0.222-0.157-0.415-0.157c-0.193,0-0.347,0.052-0.464,0.157c-0.117,0.105-0.192,0.257-0.223,0.456l-0.268,1.701
	c-0.031,0.2-0.005,0.352,0.079,0.457C386.696,785.281,386.832,785.334,387.021,785.334z M388.953,785.785l0.609-3.832h0.709
	l0.619,3.186c0.007-0.098,0.017-0.217,0.029-0.357c0.012-0.14,0.027-0.285,0.045-0.435c0.018-0.151,0.037-0.289,0.058-0.415
	l0.315-1.979h0.525l-0.609,3.832h-0.708l-0.614-3.186c-0.007,0.095-0.017,0.209-0.029,0.344c-0.012,0.135-0.027,0.276-0.045,0.423
	c-0.018,0.147-0.037,0.283-0.058,0.409l-0.315,2.01H388.953z M392.249,785.785l0.609-3.832h0.567l-0.525,3.312h1.674l-0.079,0.52
	H392.249z M396.117,785.785l0.22-1.412l-0.751-2.42h0.577l0.446,1.449c0.028,0.095,0.05,0.184,0.066,0.268
	c0.016,0.084,0.025,0.147,0.029,0.189c0.017-0.042,0.046-0.105,0.087-0.189c0.04-0.084,0.088-0.173,0.144-0.268l0.898-1.449h0.598
	l-1.527,2.42l-0.22,1.412H396.117z M399.217,785.785l0.609-3.832h0.709l0.619,3.186c0.007-0.098,0.017-0.217,0.029-0.357
	c0.012-0.14,0.027-0.285,0.044-0.435c0.018-0.151,0.037-0.289,0.058-0.415l0.315-1.979h0.525l-0.609,3.832h-0.708l-0.614-3.186
	c-0.007,0.095-0.017,0.209-0.029,0.344c-0.012,0.135-0.027,0.276-0.045,0.423c-0.018,0.147-0.037,0.283-0.058,0.409l-0.315,2.01
	H399.217z M403.505,785.838c-0.357,0-0.623-0.101-0.798-0.302c-0.175-0.201-0.234-0.473-0.179-0.816l0.268-1.701
	c0.056-0.343,0.203-0.615,0.441-0.816c0.238-0.201,0.535-0.302,0.892-0.302c0.357,0,0.623,0.1,0.798,0.299
	c0.175,0.199,0.236,0.471,0.184,0.814l-0.268,1.706c-0.056,0.343-0.204,0.615-0.444,0.816
	C404.16,785.737,403.862,785.838,403.505,785.838z M403.584,785.334c0.193,0,0.348-0.052,0.467-0.157
	c0.119-0.105,0.194-0.257,0.226-0.457l0.268-1.701c0.032-0.199,0.005-0.352-0.079-0.456c-0.084-0.105-0.222-0.157-0.415-0.157
	c-0.193,0-0.347,0.052-0.465,0.157c-0.117,0.105-0.191,0.257-0.223,0.456l-0.268,1.701c-0.032,0.2-0.005,0.352,0.079,0.457
	C403.258,785.281,403.395,785.334,403.584,785.334z M406.381,785.785l0.525-3.312h-1.023l0.084-0.519h2.619l-0.084,0.519h-1.029
	l-0.525,3.312H406.381z M409.518,785.785l0.609-3.832h2.32l-0.084,0.519h-1.764l-0.184,1.144h1.627l-0.084,0.525h-1.617
	l-0.257,1.643H409.518z M413.769,785.838c-0.357,0-0.623-0.101-0.798-0.302c-0.175-0.201-0.234-0.473-0.179-0.816l0.268-1.701
	c0.056-0.343,0.203-0.615,0.441-0.816c0.238-0.201,0.535-0.302,0.892-0.302c0.357,0,0.623,0.1,0.798,0.299
	c0.175,0.199,0.236,0.471,0.184,0.814l-0.268,1.706c-0.056,0.343-0.204,0.615-0.444,0.816
	C414.425,785.737,414.126,785.838,413.769,785.838z M413.848,785.334c0.193,0,0.348-0.052,0.467-0.157
	c0.119-0.105,0.194-0.257,0.226-0.457l0.268-1.701c0.032-0.199,0.005-0.352-0.079-0.456c-0.084-0.105-0.222-0.157-0.415-0.157
	c-0.193,0-0.347,0.052-0.465,0.157c-0.117,0.105-0.191,0.257-0.223,0.456l-0.268,1.701c-0.032,0.2-0.005,0.352,0.079,0.457
	C413.522,785.281,413.659,785.334,413.848,785.334z M415.795,785.785l0.609-3.832h1.202c0.238,0,0.439,0.046,0.604,0.139
	c0.164,0.093,0.283,0.223,0.357,0.391c0.073,0.168,0.091,0.366,0.053,0.593c-0.039,0.259-0.14,0.484-0.304,0.675
	c-0.165,0.19-0.366,0.321-0.604,0.391l0.535,1.643h-0.619l-0.478-1.575h-0.541l-0.247,1.575H415.795z M416.688,783.707h0.635
	c0.189,0,0.349-0.056,0.48-0.168c0.131-0.112,0.211-0.262,0.239-0.451c0.032-0.193,0-0.345-0.095-0.459
	c-0.094-0.114-0.236-0.171-0.425-0.171h-0.635L416.688,783.707z M420.905,785.838c-0.36,0-0.631-0.101-0.811-0.302
	c-0.18-0.201-0.242-0.473-0.187-0.816l0.268-1.701c0.056-0.346,0.206-0.619,0.449-0.819s0.545-0.299,0.906-0.299
	c0.357,0,0.625,0.101,0.806,0.302c0.18,0.201,0.242,0.473,0.186,0.816h-0.567c0.031-0.199,0.003-0.352-0.087-0.456
	c-0.089-0.105-0.228-0.157-0.417-0.157c-0.193,0-0.351,0.052-0.475,0.157c-0.124,0.105-0.202,0.255-0.233,0.451l-0.268,1.706
	c-0.032,0.2-0.003,0.352,0.087,0.457c0.089,0.105,0.23,0.157,0.423,0.157c0.192,0,0.35-0.052,0.472-0.157
	c0.122-0.105,0.199-0.257,0.231-0.457h0.567c-0.035,0.228-0.114,0.425-0.239,0.593c-0.124,0.168-0.281,0.298-0.47,0.388
	C421.357,785.792,421.143,785.838,420.905,785.838z M424.033,785.838c-0.357,0-0.623-0.101-0.798-0.302
	c-0.175-0.201-0.234-0.473-0.179-0.816l0.268-1.701c0.056-0.343,0.203-0.615,0.441-0.816c0.238-0.201,0.535-0.302,0.892-0.302
	c0.357,0,0.623,0.1,0.798,0.299c0.175,0.199,0.236,0.471,0.184,0.814l-0.268,1.706c-0.056,0.343-0.204,0.615-0.444,0.816
	C424.689,785.737,424.39,785.838,424.033,785.838z M424.112,785.334c0.193,0,0.348-0.052,0.467-0.157
	c0.119-0.105,0.194-0.257,0.226-0.457l0.268-1.701c0.032-0.199,0.005-0.352-0.079-0.456c-0.084-0.105-0.222-0.157-0.415-0.157
	c-0.192,0-0.347,0.052-0.465,0.157c-0.117,0.105-0.191,0.257-0.223,0.456l-0.268,1.701c-0.032,0.2-0.005,0.352,0.079,0.457
	C423.787,785.281,423.923,785.334,424.112,785.334z M425.965,785.785l0.609-3.832h0.687l0.184,1.228
	c0.021,0.119,0.037,0.23,0.047,0.333c0.011,0.103,0.019,0.183,0.026,0.239c0.018-0.056,0.047-0.136,0.089-0.241
	c0.042-0.105,0.091-0.217,0.147-0.336l0.567-1.223h0.709l-0.609,3.832h-0.535l0.204-1.291c0.024-0.168,0.058-0.353,0.1-0.554
	c0.042-0.201,0.087-0.404,0.136-0.609c0.049-0.205,0.096-0.4,0.142-0.585c0.045-0.185,0.087-0.348,0.126-0.488l-0.855,1.863h-0.551
	l-0.283-1.863c-0.004,0.136-0.011,0.295-0.021,0.475c-0.011,0.18-0.024,0.372-0.039,0.575c-0.016,0.203-0.035,0.407-0.058,0.611
	c-0.023,0.205-0.048,0.396-0.076,0.575l-0.205,1.291H425.965z M429.115,785.785l0.609-3.832h0.687l0.184,1.228
	c0.021,0.119,0.037,0.23,0.047,0.333c0.011,0.103,0.019,0.183,0.026,0.239c0.018-0.056,0.047-0.136,0.089-0.241
	c0.042-0.105,0.091-0.217,0.147-0.336l0.567-1.223h0.709l-0.609,3.832h-0.535l0.204-1.291c0.025-0.168,0.058-0.353,0.1-0.554
	c0.042-0.201,0.087-0.404,0.136-0.609c0.049-0.205,0.096-0.4,0.142-0.585c0.045-0.185,0.087-0.348,0.126-0.488l-0.855,1.863h-0.551
	l-0.283-1.863c-0.004,0.136-0.011,0.295-0.021,0.475c-0.011,0.18-0.024,0.372-0.039,0.575c-0.016,0.203-0.035,0.407-0.058,0.611
	c-0.023,0.205-0.048,0.396-0.076,0.575l-0.205,1.291H429.115z M432.411,785.785l0.609-3.832h2.252l-0.079,0.504h-1.695l-0.173,1.087
	h1.512l-0.079,0.499h-1.512l-0.194,1.239h1.69l-0.079,0.504H432.411z M435.507,785.785l0.609-3.832h1.202
	c0.238,0,0.439,0.046,0.604,0.139c0.164,0.093,0.283,0.223,0.357,0.391c0.073,0.168,0.091,0.366,0.053,0.593
	c-0.039,0.259-0.14,0.484-0.304,0.675c-0.165,0.19-0.366,0.321-0.604,0.391l0.535,1.643h-0.619l-0.478-1.575h-0.541l-0.247,1.575
	H435.507z M436.4,783.707h0.635c0.189,0,0.349-0.056,0.48-0.168c0.131-0.112,0.211-0.262,0.239-0.451
	c0.032-0.193,0-0.345-0.095-0.459c-0.094-0.114-0.236-0.171-0.425-0.171h-0.635L436.4,783.707z M439.801,785.838
	c-0.36,0-0.631-0.101-0.811-0.302c-0.18-0.201-0.242-0.473-0.187-0.816l0.268-1.701c0.056-0.346,0.206-0.619,0.449-0.819
	s0.545-0.299,0.906-0.299c0.357,0,0.625,0.101,0.806,0.302c0.18,0.201,0.242,0.473,0.187,0.816h-0.567
	c0.031-0.199,0.003-0.352-0.087-0.456c-0.089-0.105-0.228-0.157-0.417-0.157c-0.193,0-0.351,0.052-0.475,0.157
	c-0.124,0.105-0.202,0.255-0.234,0.451l-0.268,1.706c-0.032,0.2-0.003,0.352,0.087,0.457c0.089,0.105,0.23,0.157,0.423,0.157
	s0.35-0.052,0.472-0.157c0.122-0.105,0.199-0.257,0.231-0.457h0.567c-0.035,0.228-0.114,0.425-0.239,0.593
	c-0.124,0.168-0.281,0.298-0.47,0.388C440.252,785.792,440.039,785.838,439.801,785.838z M441.879,785.785l0.079-0.504h0.777
	l0.446-2.824h-0.777l0.084-0.504h2.126l-0.084,0.504h-0.777l-0.446,2.824h0.777l-0.079,0.504H441.879z M444.74,785.785l1.585-3.832
	h0.745l0.373,3.832h-0.562l-0.073-0.971h-1.087l-0.388,0.971H444.74z M445.9,784.342h0.871l-0.089-1.102
	c-0.017-0.196-0.03-0.365-0.037-0.509c-0.007-0.144-0.01-0.243-0.01-0.299c-0.018,0.056-0.052,0.156-0.103,0.299
	c-0.051,0.143-0.115,0.311-0.192,0.504L445.9,784.342z M448.235,785.785l0.609-3.832h0.567l-0.525,3.312h1.674l-0.079,0.52H448.235z
	 M453.193,785.838c-0.368,0-0.634-0.101-0.8-0.302c-0.166-0.201-0.221-0.475-0.165-0.821l0.436-2.761h0.567l-0.436,2.755
	c-0.032,0.196-0.008,0.35,0.071,0.462c0.079,0.112,0.214,0.168,0.407,0.168c0.192,0,0.347-0.056,0.464-0.168
	c0.117-0.112,0.192-0.266,0.223-0.462l0.436-2.755h0.567l-0.436,2.761c-0.056,0.35-0.2,0.625-0.433,0.824
	C453.86,785.738,453.561,785.838,453.193,785.838z M456.358,785.838c-0.385,0-0.674-0.095-0.866-0.286
	c-0.193-0.191-0.264-0.451-0.215-0.779h0.567c-0.028,0.175,0.011,0.312,0.115,0.412c0.105,0.1,0.266,0.15,0.483,0.15
	c0.203,0,0.37-0.049,0.501-0.147s0.211-0.233,0.239-0.404c0.021-0.15,0.001-0.279-0.06-0.386c-0.061-0.107-0.158-0.181-0.291-0.223
	l-0.457-0.136c-0.266-0.08-0.462-0.217-0.588-0.409c-0.126-0.192-0.17-0.42-0.131-0.682c0.035-0.21,0.112-0.394,0.231-0.551
	c0.119-0.157,0.273-0.28,0.462-0.367c0.189-0.087,0.402-0.131,0.64-0.131c0.35,0,0.616,0.095,0.798,0.286
	c0.182,0.191,0.248,0.444,0.199,0.759h-0.567c0.028-0.168-0.003-0.3-0.092-0.396c-0.089-0.096-0.23-0.144-0.423-0.144
	c-0.189,0-0.343,0.045-0.462,0.134c-0.119,0.089-0.189,0.214-0.21,0.375c-0.025,0.151-0.007,0.279,0.052,0.386
	c0.06,0.107,0.157,0.181,0.294,0.223l0.467,0.147c0.262,0.081,0.456,0.217,0.58,0.409c0.124,0.193,0.165,0.422,0.124,0.688
	c-0.035,0.217-0.116,0.406-0.241,0.567c-0.126,0.161-0.288,0.286-0.486,0.375C456.824,785.793,456.603,785.838,456.358,785.838z
	 M458.421,785.785l0.609-3.832h2.252l-0.079,0.504h-1.695l-0.173,1.087h1.512l-0.079,0.499h-1.512l-0.194,1.239h1.69l-0.079,0.504
	H458.421z"/>
<path style="fill:#005CA4;" d="M400,50C206.7,50,50,206.7,50,400c0,193.3,156.7,350,350,350s350-156.7,350-350
	C749.797,206.785,593.215,50.203,400,50z M400,742.827C210.662,742.827,57.173,589.338,57.173,400
	C57.173,210.662,210.662,57.173,400,57.173S742.827,210.662,742.827,400C742.827,589.338,589.338,742.827,400,742.827z
	 M666.983,386.973c-1.2-46.493-15.118-91.769-40.243-130.907c-3.692-5.221-7.173-9.81-10.549-15.084
	c-1.095-1.457-2.275-2.848-3.534-4.167c0.052-0.369,0.474-0.686,0.897-1.002c4.272-1.688,8.122-2.637,12.342-3.903l1.266-0.949
	c13.027-5.749,24.947-11.551,33.808-22.679c1.92-1.604,2.448-4.336,1.266-6.54c-1.243-2.238-3.67-3.554-6.224-3.376
	c-4.102,0.042-8.182,0.627-12.131,1.741c-5.749,1.477-11.498,2.532-17.194,3.639c-10.549,1.635-20.675,2.479-31.646,3.639
	c-1.766,0.049-3.532-0.075-5.274-0.369c-0.738-0.106-0.897,0.58-1.951,0.475c-1.055-0.105-1.74-0.949-2.69-1.846
	c-65.405-64.261-159.443-90.031-248.471-68.091l-1.582,0.844c-12.647,2.64-25.01,6.49-36.92,11.498
	c-1.582,0.527-2.426,1.529-3.956,2.11c-9.141,3.381-17.966,7.564-26.371,12.5c-8.883,4.795-17.32,10.372-25.211,16.667
	c-8.989,5.651-17.321,12.285-24.842,19.778c-4.601,0.768-9.26,1.138-13.924,1.108c-7.404-0.168-14.758-1.266-21.888-3.27v0.475
	c-3.27-0.844-7.015-0.95-10.549-2.163c-4.589-1.688-8.966-2.268-13.238-3.956l-10.549-4.747l-1.846-0.264
	c-2.316-1.238-4.918-1.839-7.542-1.741c-6.434,0.686-6.329,8.228-4.747,13.502c-0.053,0.369,0.158,0.106,0.633,0.844
	c0.475,0.738,0.475,1.108,0.475,1.899c1.984,3.481,4.432,6.675,7.279,9.494c2.69,2.268,4.641,4.378,7.226,6.909
	c1.961,1.527,4.022,2.918,6.171,4.167c10.397,5.268,21.648,8.643,33.228,9.968c0.293,0.026,0.357,0.228,0.39,0.475
	c0.005-1.518,0.846-0.812,1.245-1.161c8.017-8.914,15.295-17.299,23.84-25.791c1.122-1.72,2.47-3.281,4.008-4.641
	c0.791-0.633,1.793,0,2.584,0c4.189-1.467,8.55-2.389,12.974-2.743c3.323,0.053,6.382-0.633,9.388-0.633
	c4.413,0.265,8.802,0.847,13.133,1.741c7.264,1.785,13.857,5.632,18.987,11.076c3.174,3.926,5.964,8.147,8.333,12.606
	c0.211,1.108,1.055,1.951,1.055,3.059c1.16,2.426,3.059,5.221,3.534,7.173c0.475,1.951,1.319,3.956,1.793,5.802
	c10.601,26.688,17.036,53.217,25.422,80.222l0,0.422c1.582,5.063,2.742,10.074,3.956,15.032c1.055,3.534,2.479,7.067,3.428,10.549
	c1.477,5.749,3.428,10.812,4.905,16.614c-4.852,11.023-11.709,21.097-17.616,31.646c-1.951,3.85-4.272,7.279-5.907,11.129
	c-0.637,1.217-1.397,2.365-2.268,3.428c-0.862,1.276-1.554,2.659-2.057,4.114c-2.954,4.852-5.749,9.704-8.228,14.557
	c-1.002,1.951-3.059,3.164-4.061,5.274c-2.025,4.088-4.408,7.988-7.12,11.656c-0.4-0.056-0.77-0.241-1.055-0.527
	c-5.643-18.935-9.863-37.658-15.137-56.909c-9.599-34.019-17.721-68.091-27.004-102.004c-3.394-9.288-7.539-18.284-12.394-26.899
	c-3.663-4.686-7.818-8.965-12.395-12.764c-2.14-2.24-4.704-4.032-7.542-5.274c-1.108-0.158-2.532-0.686-2.848-0.738
	c-0.316-0.053-0.633-0.897-1.002-0.897c-3.218-1.242-6.369-2.65-9.441-4.219c-0.654-0.654-2.323-0.045-2.477-0.627
	c0.022,0.167,0.055,0.333,0.156,0.469c-0.544,0.012-1.074,0.176-1.529,0.475c-7.862,9.767-14.918,20.156-21.097,31.065
	c-4.378,7.542-7.964,15.296-11.656,23.365c-8.622,19.5-14.702,40.026-18.091,61.076c-2.094,13.984-3.45,28.068-4.061,42.194
	c-0.474,6.695-0.368,13.418,0.316,20.095c1.213,10.179,2.215,19.568,3.903,29.43c0.791,5.011,1.688,9.546,2.901,14.504
	c3.113,12.774,7.042,25.334,11.762,37.606c5.411,13.795,11.828,27.175,19.198,40.031c8.884,15.024,19.199,29.154,30.802,42.194
	c6.804,7.595,13.397,13.66,20.675,20.517c8.849,8.136,18.3,15.594,28.27,22.31c12.865,8.555,26.392,16.068,40.454,22.468
	c1.299,0.94,2.696,1.735,4.167,2.373c10.68,4.355,21.577,8.158,32.648,11.392c5.063,1.002,9.81,2.426,15.085,3.85
	c7.279,1.688,14.24,2.584,21.097,3.903c1.107,0,2.162,0.58,3.375,0c0.316,0.053,0.686,0.474,1.055,0.474
	c23.319,2.718,46.887,2.488,70.148-0.686c1.108,0,2.585,0,3.692,0c7.25-0.951,14.411-2.485,21.414-4.589
	c20.75-4.74,40.825-12.057,59.757-21.783c32.566-16.012,61.226-38.966,83.966-67.247c7.868-9.726,15.159-19.906,21.835-30.485
	c0.322-1.012,0.822-1.959,1.477-2.796c10.846-18.454,19.434-38.145,25.58-58.65c1.951-7.015,3.586-13.871,5.274-21.097
	c1.055-5.063,1.741-9.968,2.743-15.242c0.949-6.54,1.424-13.502,1.951-20.201c0.738-8.386,0.738-16.561,1.108-25.053
	C667.3,392.88,666.983,389.926,666.983,386.973z M386.973,562.078c-7.279,7.173-13.608,13.027-21.097,19.515
	c-0.422-0.105-2.057-0.686-2.057-1.424c-0.619-1.271-1.342-2.488-2.163-3.639c-7.496-12.782-19.178-22.582-33.069-27.743
	c-1.424-0.633-3.217-0.791-4.641-1.424c-2.195-0.861-4.506-1.395-6.856-1.582c-5.623-1.392-11.403-2.048-17.194-1.951
	c-6.828-0.32-13.669-0.108-20.464,0.633c-4.258,0.482-8.473,1.293-12.606,2.426c-1.717,0.486-3.49,0.751-5.274,0.791
	c-13.502,4.167-26.951,7.595-40.454,11.393c-1.959,0.615-4.022,0.83-6.066,0.633c0,0,0-1.108,0-1.477
	c1.227-3.285,2.764-6.446,4.589-9.441c2.91-4.472,6.08-8.769,9.494-12.869c2.116-2.306,4.507-4.343,7.12-6.065
	c3.232-2.274,6.989-3.69,10.918-4.114c1.472,0.368,3.012,0.368,4.483,0c24.367-43.196,47.521-86.92,71.835-130.538
	c1.323-1.691,2.556-3.452,3.692-5.274c7.331-16.086,15.77-30.643,24.262-45.833l0.105-0.053
	c19.937-35.707,40.032-69.778,59.283-105.485c3.081-5.836,7.029-11.17,11.709-15.823c2.897-2.618,5.944-5.066,9.124-7.331
	c3.997-2.719,8.255-5.034,12.711-6.909c0.422-0.316,0.844-0.949,1.266-1.266c7.858-4.663,16.325-8.213,25.158-10.549
	c1.216-0.442,2.504-0.657,3.798-0.633c0.738,0.106,1.529-0.791,2.321-0.791c2.744-0.748,5.551-1.243,8.386-1.477
	c7.269-0.906,14.646-0.314,21.677,1.741h1.424c2.954,0.422,5.749,1.529,9.019,2.321c1.208,0.709,2.502,1.258,3.85,1.635
	c3.534,1.213,6.382,2.321,9.916,3.85c0.686,0.316,1.424,0.316,2.163,0.316c2.01,1.114,4.131,2.016,6.329,2.69
	c4.641,1.424,8.966,2.321,13.291,3.27c4.31,0.669,8.666,0.987,13.027,0.949h9.652c3.568-0.137,7.107-0.686,10.549-1.635
	c6.621,6.199,12.675,12.977,18.091,20.253c0.369,0.422,1.424,0.897,1.741,1.319c0.693,1.185,1.525,2.282,2.479,3.27h0.738
	c0.475,0.791,0.897,1.951,0.475,2.268c-6.308,1.912-12.826,3.046-19.409,3.376c-10.74,0.924-21.539,0.924-32.278,0
	c-1.477-0.369-2.69,0-4.114,0c-19.093-2.901-39.082-2.321-56.013,8.228l-3.745,2.848c-3.745,3.217-6.856,6.909-10.549,9.757
	c-14.963,21.335-28.023,43.943-39.029,67.563c-0.475,0.738-1.319,1.741-1.793,2.426c-5.485,10.549-10.654,21.097-16.456,31.646
	c-3.428,6.224-6.487,12.5-9.546,19.146c-1.067,2.762-2.3,5.456-3.692,8.069c-5.907,11.076-11.445,22.205-17.405,33.333
	c-17.036,33.386-33.966,66.087-51.371,99.42c-0.105,0.738-0.633,1.424-0.633,2.162c-1.749,2.89-3.282,5.904-4.589,9.019
	c0,0.738-0.316,1.529,0,1.846c0.316,0.316,1.477,0.316,1.793,0.316c0.741-0.21,1.526-0.21,2.268,0
	c3.163,0.473,6.298,1.125,9.388,1.951c2.697,1.058,5.338,2.255,7.911,3.586c9.599,6.118,20.148,10.443,27.11,19.937
	C387.5,560.97,386.973,561.656,386.973,562.078z M462.605,432.437c-1.342-2.409-3.132-4.54-5.274-6.276
	c-2.845-1.33-5.837-2.321-8.914-2.954c-3.622,0.17-7.189,0.954-10.549,2.321c-4.307,2.369-7.495,6.354-8.861,11.076
	c-0.828,3.987-1.129,8.065-0.897,12.131c0.546,4.333,2.667,8.313,5.96,11.181c9.124,6.804,21.836,8.122,27.11,19.884
	c0.58,0.844,1.635,1.371,2.268,2.532c5.327,10.549,3.112,21.466,1.371,31.646l-1.951,6.382c-2.042,4.468-4.459,8.756-7.226,12.816
	c-4.867,8.782-14.115,14.234-24.156,14.24c-3.376-0.105-6.329-0.105-9.23-0.474c-11.779-2.858-21.285-11.529-25.211-22.996
	c0.053-0.369-0.316-0.475-0.633-0.844c-0.758-2.213-1.202-4.521-1.319-6.856c0.369-5.274-0.686-11.445,2.479-15.823
	c0.699-0.413,1.516-0.58,2.321-0.475c5.485,0.316,11.392,0,16.667,0.316c0.369,0.106,1.002,0.528,1.002,0.897
	c-1.137,4.069-0.934,8.397,0.58,12.342c0.694,1.721,1.756,3.269,3.112,4.536c4.439,4.192,10.829,5.592,16.614,3.639
	c4.299-2.108,7.501-5.942,8.808-10.549c0.158-1.002,0.422-2.162,0.422-3.217c-0.028-1.126,0.133-2.249,0.475-3.323
	c-0.026-5.408-2.682-10.465-7.12-13.555c-5.539-3.152-11.244-6.004-17.089-8.544c-3.839-1.964-7.149-4.822-9.652-8.333l0.844-0.527
	c-4.061-6.302-6.306-13.602-6.487-21.097c-0.581-7.079,0.503-14.195,3.164-20.781c0-0.686,0-1.371,0-2.11
	c3.384-11.066,11.163-20.257,21.519-25.422c0.844-0.422,1.529-0.422,2.321-0.422c10.257-4.916,22.282-4.442,32.12,1.266
	c4.067,2.337,7.129,6.094,8.597,10.549c2.018,4.822,2.989,10.017,2.848,15.243c0.445,4.443-0.022,8.93-1.371,13.186
	c-4.386,1.235-9.056,0.994-13.291-0.686c-0.949-0.106,0-1.107,0-1.846C464.191,438.42,463.723,435.323,462.605,432.437z
	 M532.595,426.318c-4.694-1.355-9.756-0.199-13.396,3.059c-3.903,3.764-7.022,8.263-9.177,13.238
	c-3.854,9.366-6.992,19.01-9.388,28.85c-0.105,0.686-1.002,1.002-1.002,1.688l-2.742,12.711c-0.897,3.956-1.055,8.017-1.583,11.973
	c-0.492,3.688-0.616,7.416-0.369,11.129c0.902,4.818,2.826,9.386,5.643,13.397c4.891,3.783,11.435,4.649,17.141,2.268
	c0.422-0.369,0.949-1.371,1.371-1.74c2.956-2.276,5.461-5.084,7.384-8.281c1.609-3.542,2.864-7.234,3.745-11.023
	c0.569-0.637,1.426-0.936,2.268-0.791c2.352-0.185,4.715-0.185,7.068,0c1.688-0.158,5.538-1.161,5.274,1.055
	c-0.686,10.654-7.015,19.146-12.975,28.006c-4.592,8.142-12.654,13.737-21.888,15.19c-2.268,0.106-4.22,0.686-6.435,0.686
	c-1.978,0.044-3.956-0.097-5.907-0.422c-4.372-1.499-8.367-3.928-11.709-7.12c-2.388-3.274-4.388-6.814-5.96-10.549
	c-1.676-5.115-2.617-10.443-2.796-15.823c-0.309-7.059,0.133-14.131,1.319-21.097c0.633-7.7,4.219-14.926,5.274-23.048l0.37-0.106
	c0.105-0.738,0.949-1.055,0.949-1.74c0.949-4.325,2.584-8.228,3.903-12.448c0.053-0.738,0.316-1.846,0.316-2.584
	c1.635-3.903,2.848-7.437,4.114-11.34c0.528-1.055,1.002-2.11,1.53-3.112c0.072-0.879,0.305-1.737,0.686-2.532
	c3.323-4.8,5.011-9.758,8.597-14.452c6.329-8.491,13.819-17.51,25.474-18.565c1.264-0.404,2.55-0.738,3.85-1.002
	c0.369,0.053,0.685,0.58,1.055,0.58c10.412-1.162,20.054,5.628,22.468,15.823c1.319,8.914,3.956,17.774,1.319,26.371
	c-4.63,1.204-9.457,1.455-14.188,0.738c-0.58-0.053-0.58-0.844-0.58-1.213C544.942,436.238,540.22,428.624,532.595,426.318z
	 M635.865,444.937c-1.635,1.266-3.692,0.369-5.96,0.369s-4.378-0.633-6.962-0.633c-0.385-0.071-0.747-0.234-1.055-0.475
	c-0.158-7.437-1.529-16.93-9.757-18.724c-4.234-0.955-8.671-0.356-12.5,1.688l-4.958,3.797c-2.574,2.927-4.545,6.332-5.802,10.021
	c-3.059,6.873-5.718,13.917-7.964,21.097c-1.371,4.641-1.899,8.65-3.27,13.344c-0.264,0.686,0,1.108,0,1.846
	c-0.105,3.376-2.004,6.434-1.371,9.863c0,0.369-0.475,0.686-0.475,1.055c-0.264,4.43-0.264,8.861-0.264,13.291
	c0.156,1.49,0.156,2.993,0,4.483c-0.27,5.951,2.058,11.725,6.382,15.823c4.081,3.652,9.929,4.562,14.926,2.321
	c2.323-1.463,4.435-3.238,6.276-5.274c2.984-5.254,5.456-10.782,7.384-16.508c4.302-0.888,8.72-1.067,13.08-0.528
	c0.739,0.158,1.899-0.052,2.532,0.738c0.633,0.791,0,1.846,0,2.637c-1.376,5.244-3.285,10.334-5.696,15.19
	c-3.7,7.212-8.465,13.827-14.135,19.62c-10.159,8.918-25.289,9.141-35.707,0.527c-4.451-4.514-7.917-9.901-10.179-15.823
	c-1.901-8.994-2.681-18.188-2.321-27.373c-0.369-0.791-0.369-1.846-0.369-2.637c0.123-5.672,0.866-11.314,2.215-16.825l0.369,0.158
	c0.778-2.593,1.378-5.236,1.793-7.911c0.145-2.497,0.847-4.931,2.057-7.12c0.686-2.69,1.055-5.063,1.793-7.964l1.635-4.272
	l0.264-1.793c0.589-1.373,1.031-2.805,1.319-4.272c0.053-0.738,0.527-1.055,0.949-1.741c0.025-0.369,0.025-0.739,0-1.107
	c0.106-0.686,0.897-0.528,1.002-1.688c0.106-1.16,0.738-1.793,0.738-2.901c1.16-3.534,3.797-6.171,4.641-9.758
	c2.301-2.935,4.432-5.999,6.382-9.177c2.431-3.26,5.188-6.264,8.228-8.966c2.057-1.213,3.745-2.848,5.802-4.061
	c2.235-1.307,4.604-2.368,7.067-3.165c3.475-0.663,7.028-0.822,10.549-0.474c4.876,0.146,9.582,1.826,13.45,4.799
	c8.492,6.329,9.335,17.933,9.335,27.954c0.303,0.844,0.429,1.742,0.369,2.637C637.289,439.979,637.5,443.671,635.865,444.937z
	 M94.937,276.371l3.692-8.703l15.717,6.646l32.015-3.428l-4.378,10.232l-21.73,1.002l14.662,15.876l-4.167,9.863l-20.2-24.895
	L94.937,276.371z M106.171,312.131c12.289,3.112,13.555,10.549,12.289,15.823c-1.266,5.274-6.065,11.129-18.302,8.017
	c-12.236-3.112-13.608-10.865-12.342-15.823S93.935,308.966,106.171,312.131 M108.492,302.953
	c-20.517-5.274-26.951,9.388-28.376,15.19c-1.424,5.802-2.901,21.677,17.669,26.899s26.951-9.388,28.428-15.137
	S129.061,308.175,108.492,302.953 M73.312,360.127l0.949-9.388l44.989,4.43l-0.949,9.441l-18.249-1.846l16.561,18.987l-1.16,12.184
	l-16.667-20.2l-28.481,16.825l1.213-12.131l21.097-11.92l-4.061-4.852L73.312,360.127z M93.354,405.274
	c12.605-0.686,16.192,6.329,16.456,11.392c0.264,5.063-2.479,12.447-15.084,13.133s-16.192-6.276-16.456-11.34
	C78.006,413.397,80.696,406.013,93.354,405.274 M92.827,395.886c-21.097,1.16-22.89,17.036-22.574,22.996
	c0.316,5.96,3.797,21.572,25,20.359c21.203-1.213,22.89-17.036,22.574-23.049C117.511,410.179,113.977,394.673,92.827,395.886
	 M96.255,456.54l-19.778,4.272l-2.004-9.23l44.146-9.546l2.004,9.23l-16.719,3.639l3.692,17.194l16.719-3.586l2.004,9.23
	l-44.146,9.494l-2.004-9.23l19.778-4.219L96.255,456.54z M124.947,504.008L124.947,504.008l-14.768,11.551l-4.061-10.548
	L124.947,504.008z M97.996,505.38l5.907,15.823l-7.7,6.065l3.639,9.546l36.445-31.329l-3.85-10.179l-47.996,0.949l3.587,9.335
	L97.996,505.38z M125.897,583.333l-4.378-7.648l32.7-18.882l-0.053-0.105l-36.973,11.603l-4.589-8.017l28.586-26.055l-0.105-0.106
	l-32.7,18.882l-4.378-7.648l39.135-22.574l6.909,11.92l-26.793,24.895l0.053,0.105l34.916-10.812l6.804,11.814L125.897,583.333z
	 M172.046,585.707L172.046,585.707l-10.549,15.823l-7.278-8.914L172.046,585.707z M146.835,595.464l10.549,12.922l-5.274,8.175
	l6.435,7.964l25.211-40.928l-6.857-8.439l-45.253,15.823l6.276,7.753L146.835,595.464z M192.88,637.711
	c-1.582,2.004-3.587,6.487,2.795,11.709c3.428,2.848,7.911,5.274,10.97,1.477c2.268-2.743,0-5.591-2.743-9.494l-3.059-4.008
	c-4.536-5.907-8.966-11.656-2.637-19.357c3.217-3.903,10.918-9.019,22.257,0s7.806,18.196,4.325,22.521l-7.015-5.802
	c1.108-1.688,3.534-5.854-2.795-11.129c-2.795-2.268-6.962-3.956-9.546-0.791c-2.584,3.165-0.475,5.274,0.738,6.698l6.804,9.072
	c3.745,5.274,6.54,10.549,1.371,16.878c-8.597,10.549-20.042,2.637-23.101,0c-12.764-10.549-8.914-19.62-5.274-23.945
	L192.88,637.711z M232.7,657.068c6.435-10.865,14.24-9.916,18.565-7.279c4.325,2.637,8.966,8.966,2.532,19.831
	c-6.435,10.865-14.293,9.916-18.671,7.331C230.749,674.367,226.16,667.932,232.7,657.068 M224.525,652.215
	c-10.865,18.249,1.371,28.534,6.487,31.646c5.116,3.112,19.989,8.914,30.854-9.335c10.865-18.249-1.319-28.481-6.487-31.646
	c-5.169-3.165-19.937-8.914-30.854,9.283 M298.84,681.224c1.152-4.776-1.661-9.611-6.382-10.97
	c-4.219-1.688-11.498-1.371-16.245,10.549c-3.059,7.542-2.743,15.823,4.641,18.513c4.6,2.08,10.027,0.264,12.447-4.167l8.755,3.534
	c-4.695,8.759-15.414,12.324-24.42,8.122c-11.181-4.43-16.192-15.19-10.549-29.694s17.352-18.724,28.165-14.399
	c9.394,2.826,14.79,12.657,12.131,22.099L298.84,681.224z M341.983,693.143c0.382-4.89-3.107-9.234-7.964-9.916
	c-4.43-1.055-11.603,0.369-14.504,12.816c-1.899,7.911-0.422,15.823,7.331,17.616c4.873,1.353,9.969-1.263,11.709-6.013l9.177,2.162
	c-3.343,9.363-13.39,14.513-22.943,11.762c-11.709-2.743-18.249-12.658-14.662-27.848c3.587-15.19,14.346-21.097,25.686-18.46
	c9.733,1.365,16.567,10.29,15.348,20.042L341.983,693.143z M390.348,692.194l-23.892-2.268l-0.897,9.494l21.941,2.057l-0.738,7.964
	l-21.941-2.057l-1.055,11.656l24.947,2.321l-0.738,7.964l-34.177-3.165l4.167-44.989l33.122,3.059L390.348,692.194z
	 M396.941,684.388l22.785-1.16c6.951-1.171,13.536,3.515,14.706,10.467c0.09,0.533,0.146,1.071,0.167,1.611
	c0.599,4.721-2.037,9.258-6.435,11.076c3.797,1.477,5.907,2.743,6.329,11.181c0.316,6.593,0.422,8.228,2.479,8.861v1.213
	l-10.549,0.527c-0.939-2.934-1.437-5.991-1.477-9.072c-0.316-6.171-0.791-8.544-7.806-8.175l-9.757,0.527l0.897,17.616l-9.23,0.475
	L396.941,684.388z M418.038,703.217c4.905,0,7.173-2.057,6.962-6.487c0-2.426-1.371-5.854-6.909-5.591l-11.762,0.58l0.633,12.078
	L418.038,703.217z M476.793,684.072c0.31,2.463-0.666,4.912-2.584,6.487c-2.637-1.688-4.219-3.165-4.589-4.641
	c-0.51-1.981,0.683-4,2.663-4.51C474.265,680.898,476.284,682.091,476.793,684.072 M494.304,705.169
	c2.008-4.539,2.543-9.593,1.529-14.452l-7.542,1.951c0.531,2.592,0.405,5.276-0.369,7.806l-8.228-6.013
	c3.573-3.031,5.278-7.724,4.483-12.342c-1.528-5.622-7.325-8.94-12.946-7.412c-0.151,0.041-0.301,0.085-0.45,0.133
	c-5.785,0.686-9.919,5.932-9.233,11.717c0.057,0.477,0.146,0.95,0.267,1.416c1.095,3.366,3.359,6.228,6.382,8.07l-0.791,0.791
	c-4.531,3.507-6.508,9.396-5.011,14.926c2.045,7.019,9.393,11.052,16.413,9.007c0.102-0.03,0.205-0.061,0.306-0.093
	c4.745-0.954,8.833-3.943,11.181-8.175l3.956,2.954l10.549-2.743L494.304,705.169z M484.705,708.175
	c-1.306,2.309-3.434,4.042-5.96,4.852c-3.215,1.132-6.738-0.557-7.87-3.771c-0.034-0.096-0.065-0.193-0.094-0.29
	c-0.949-3.481,0.316-5.274,3.217-8.65L484.705,708.175z M551.846,657.911c-5.335-8.241-16.281-10.702-24.631-5.538
	c-10.549,5.274-14.926,16.561-7.859,30.643c7.068,14.082,18.407,17.352,29.114,11.973c9.118-3.991,13.537-14.403,10.074-23.734
	l-8.439,4.272c1.692,4.787-0.613,10.066-5.274,12.078c-7.12,3.586-13.291-1.53-16.93-8.808c-5.696-11.392-1.108-17.089,2.901-19.146
	c4.173-2.633,9.68-1.518,12.5,2.532L551.846,657.911z M595.148,645.57c6.857,9.757,3.903,18.038-5.274,24.578
	c-4.22,3.267-9.604,4.642-14.873,3.797c-3.825-1.085-7.102-3.571-9.177-6.962l-17.299-24.367l7.859-5.591l16.93,23.998
	c1.999,3.918,6.795,5.474,10.714,3.475c0.385-0.196,0.753-0.424,1.101-0.68c3.92-1.863,5.587-6.552,3.724-10.472
	c-0.323-0.68-0.742-1.31-1.245-1.87l-17.141-24.367l7.859-5.538L595.148,645.57z M615.348,637.869l16.403-15.295l5.591,5.96
	l-23.365,21.783l-30.802-33.07l6.909-6.435L615.348,637.869z M656.118,606.646l-6.013,7.279l-28.586-23.84l-8.755,10.549
	l-6.171-5.169l23.523-28.217l6.118,5.063l-8.703,10.549L656.118,606.646z M650.844,534.177l-5.274,8.175l25.264,15.823
	c3.901,1.765,5.633,6.359,3.868,10.26c-0.336,0.742-0.787,1.427-1.336,2.029c-2.163,3.763-6.967,5.06-10.73,2.897
	c-0.422-0.243-0.82-0.524-1.19-0.84l-24.947-15.454l-5.274,8.175l25.475,15.823c3.257,2.227,7.21,3.201,11.129,2.743
	c5.182-1.28,9.607-4.638,12.236-9.283c6.013-9.705,5.274-18.46-4.641-24.736L650.844,534.177z M653.745,528.586l9.019-21.097
	c2.002-6.759,9.104-10.615,15.863-8.613c0.507,0.15,1.005,0.332,1.489,0.544c4.421,1.595,7.315,5.851,7.173,10.549
	c2.954-2.795,5.011-4.114,12.764-0.791c6.065,2.637,7.542,3.27,9.072,1.741l1.108,0.475l-4.325,9.916
	c-3.057-0.437-6.028-1.345-8.808-2.69c-5.643-2.426-8.017-3.006-10.812,3.376l-3.797,9.019l16.245,6.962l-3.639,8.492
	L653.745,528.586z M680.116,518.038c1.899-4.536,1.319-7.437-2.795-9.177c-2.787-1.395-6.178-0.266-7.572,2.521
	c-0.195,0.389-0.344,0.8-0.444,1.224l-4.694,10.549l11.129,4.8L680.116,518.038z M686.234,459.177l-6.171,23.207l9.177,2.426
	l5.696-21.255l7.753,2.004l-5.696,21.308l11.34,3.006l6.382-24.156l7.806,2.057l-8.913,33.122L669.99,489.24l8.492-32.12
	L686.234,459.177z M698.682,409.388c-4.889,0.391-8.619,4.538-8.492,9.441c-0.264,4.483,2.215,11.392,14.979,12.289
	c8.122,0.527,15.823-2.162,16.192-10.127c0.504-5.002-2.875-9.568-7.806-10.549l0.686-9.441
	c9.753,1.844,16.414,10.924,15.243,20.781c-0.791,11.973-9.494,20.042-25.053,18.987c-15.559-1.055-23.207-10.549-22.416-22.416
	c-0.18-9.803,7.503-17.955,17.3-18.354L698.682,409.388z M720.464,382.648l-1.53-22.416l8.122-0.58l2.215,31.857l-45.095,3.059
	l-0.686-9.388L720.464,382.648z M702.848,317.563c11.603-2.426,18.091,3.534,20.411,14.662c1.353,5.173,0.493,10.676-2.373,15.19
	c-2.55,3.037-6.106,5.059-10.021,5.696l-29.325,6.171l-2.004-9.388l28.692-6.065c4.675-0.859,7.769-5.346,6.909-10.021
	c-0.859-4.675-5.346-7.769-10.021-6.909l-29.114,6.171l-2.004-9.441L702.848,317.563z M692.827,300.316l-4.219-11.287
	c-1.608-2.805-0.639-6.383,2.166-7.991c0.187-0.107,0.379-0.204,0.576-0.29c4.325-1.635,7.12,0,8.703,4.483l4.114,10.812
	L692.827,300.316z M714.61,301.846l-6.698-17.88c-3.217-8.65-5.274-10.549-8.861-11.92c-3.172-1.47-6.802-1.603-10.074-0.369
	c-4.739,1.273-7.974,5.645-7.806,10.549c-2.705-2.898-6.986-3.69-10.549-1.952c-4.378,1.688-9.863,6.751-5.96,17.141l7.7,20.57
	L714.61,301.846z M676.424,306.435l-3.745-10.127c-1.529-4.008-1.424-6.909,2.057-8.228c3.481-1.319,5.749,1.055,7.12,4.536
	l3.85,10.549L676.424,306.435z M233.017,153.956c2.848,4.8,10.127,11.551,24.314,3.112c3.428-2.004,14.715-10.127,7.806-21.783
	c-4.167-7.067-10.549-6.329-16.403-4.483l-10.865,3.323c-2.296,1.316-5.222,0.597-6.646-1.635c-2.057-3.534,0.949-6.857,4.061-8.703
	c7.068-4.167,10.179-0.422,11.392,1.16l7.911-4.483c-2.848-4.747-10.549-10.549-22.627-3.586
	c-12.078,6.962-10.549,16.456-7.859,21.097c5.274,8.544,11.973,6.329,19.146,4.061l4.747-1.477c4.694-1.477,8.07-2.373,9.916,0.633
	c2.426,4.167-1.319,7.595-5.274,9.863c-7.068,4.219-10.549,0.738-11.973-1.371L233.017,153.956z M267.985,99.525l-8.597,3.903
	l18.829,41.192l8.544-3.956L267.985,99.525z M316.825,115.032l-0.105,0.053l-26.899-24.367l-9.441,3.112l14.082,42.985l8.386-2.743
	l-10.021-30.643l0.105-0.053l27.584,24.895l8.966-2.901l-14.082-42.985l-8.386,2.743L316.825,115.032z M369.515,87.5
	c-2.55-9.513-12.313-15.173-21.835-12.658c-11.498,1.846-19.198,11.287-16.667,26.899c2.532,15.612,12.289,22.046,24.209,20.095
	c9.878-1.102,17.198-9.692,16.719-19.62l-9.335,1.53c0.225,5.056-3.514,9.417-8.544,9.968c-7.911,1.319-12.236-5.274-13.502-13.397
	c-2.057-12.658,4.008-16.667,8.492-17.405c4.703-1.295,9.601,1.293,11.181,5.907L369.515,87.5z M412.606,71.677l-33.281,0.475
	l0.58,45.2l34.335-0.475l-0.053-8.017l-25.105,0.369l-0.158-11.709l22.046-0.316l-0.105-8.017l-22.046,0.316l-0.105-9.494
	l23.998-0.316L412.606,71.677z M444.673,82.964h1.213c8.386,1.477,11.392-2.426,12.184-5.696l7.12,1.266l-8.017,44.04l-8.65-1.582
	l5.274-30.327l-10.549-1.899L444.673,82.964z M487.131,99.367c1.899-6.118,6.171-5.96,8.333-5.274
	c4.325,1.319,5.274,5.274,3.956,9.863c-0.607,3.62-4.033,6.062-7.653,5.456c-0.266-0.045-0.528-0.105-0.786-0.181
	c-3.165-1.002-5.854-3.376-3.85-9.81 M473.84,115.77c-1.452,6.841,2.802,13.597,9.599,15.243c7.7,2.426,17.194-0.527,22.416-17.036
	c1.846-6.013,6.593-22.046-8.175-26.371c-7.366-2.918-15.703,0.687-18.622,8.053c-0.32,0.808-0.566,1.643-0.735,2.495
	c-2.562,6.879,0.937,14.532,7.816,17.094c0.309,0.115,0.623,0.219,0.939,0.311c3.062,1.245,6.549,0.826,9.23-1.108l0,0
	c-2.795,8.914-7.226,10.549-10.549,9.652c-2.575-0.601-4.179-3.172-3.586-5.749l0,0L473.84,115.77z M528.217,118.302
	c-2.746-0.973-4.183-3.987-3.21-6.733c0.086-0.242,0.189-0.477,0.309-0.704c1.042-2.72,4.092-4.081,6.812-3.039
	c0.348,0.133,0.682,0.303,0.994,0.507c2.753,1.354,3.886,4.684,2.532,7.437C534.3,118.523,530.97,119.656,528.217,118.302
	L528.217,118.302 M536.762,136.761c2.319-4.071,1.674-9.184-1.582-12.553c3.739-0.213,7.013-2.581,8.386-6.065
	c2.584-5.591,0.369-12.658-8.07-16.508c-5.951-3.556-13.658-1.614-17.214,4.337c-0.182,0.305-0.352,0.618-0.507,0.937
	c-1.731,3.353-1.206,7.428,1.319,10.232c-4.87-0.108-9.265,2.907-10.918,7.489c-2.532,5.274-2.004,14.03,8.492,18.776
	c6.843,3.876,15.533,1.471,19.409-5.372c0.253-0.447,0.482-0.907,0.685-1.379 M528.323,133.228
	c-1.107,3.377-4.741,5.217-8.118,4.111s-5.217-4.741-4.111-8.118c0.145-0.442,0.337-0.866,0.573-1.267
	c1.023-3.251,4.487-5.057,7.738-4.035c0.294,0.093,0.582,0.207,0.859,0.343c3.25,1.364,4.779,5.104,3.415,8.354
	c-0.103,0.246-0.222,0.486-0.356,0.717 M560.918,150c-3.165,5.274-6.962,5.643-9.705,3.956c-3.331-2.249-4.209-6.774-1.959-10.105
	c0.103-0.152,0.211-0.3,0.324-0.443c1.49-3.354,5.417-4.866,8.771-3.376c3.354,1.49,4.866,5.417,3.376,8.771
	c-0.214,0.482-0.485,0.938-0.807,1.356 M577.637,138.08c1.512-2.895,1.816-6.27,0.844-9.388c-1.256-3.024-3.458-5.559-6.276-7.226
	c-13.186-8.122-21.941,4.008-26.371,11.234c-5.907,9.494-9.546,20.57,1.951,27.637c6.988,4.263,16.108,2.053,20.37-4.934
	c0.265-0.435,0.508-0.882,0.727-1.342c4.077-6.069,2.462-14.294-3.607-18.371c-0.268-0.18-0.543-0.351-0.824-0.511
	c-2.625-1.96-6.078-2.419-9.124-1.213l0,0c3.27-4.747,7.859-9.652,12.711-6.646c2.328,1.073,3.346,3.83,2.273,6.158
	c-0.035,0.076-0.072,0.15-0.111,0.224L577.637,138.08z"/>
</svg>
