<?xml version="1.0" encoding="UTF-8"?>
<svg data-name="图层_1" xmlns="http://www.w3.org/2000/svg" version="1.1" viewBox="0 0 800 800">
  <!-- Created by @FCLOGO 2025-7-2 GMT+8 22:43:45 . https://fclogo.top/ -->
<!-- FOR PERSONAL USE ONLY NOT FOR COMMERCIAL USE -->
  <path d="M650.5081,499.4934c0,138.3559-112.1522,250.5066-250.5081,250.5066s-250.5081-112.1507-250.5081-250.5066,112.1596-250.5067,250.5081-250.5067,250.5081,112.1543,250.5081,250.5067" style="fill: #c9980f;"/>
  <path d="M400,667.809h0c-92.9456,0-168.3141-75.3904-168.3141-168.3156s75.3686-168.3138,168.3141-168.3138,168.3151,75.3637,168.3151,168.3138-75.3889,168.3156-168.3151,168.3156M400,254.0357c-135.558,0-245.459,109.8974-245.459,245.4577s109.901,245.4595,245.459,245.4595,245.459-109.8922,245.459-245.4595-109.8922-245.4577-245.459-245.4577Z" style="fill: #fff;"/>
  <path d="M562.7039,499.4934c0,89.8558-72.8453,162.7057-162.7039,162.7057s-162.704-72.8499-162.704-162.7057,72.8486-162.7035,162.704-162.7035,162.7039,72.848,162.7039,162.7035"/>
  <path d="M282.8507,375.0935l20.292,251.1512c6.5543,5.0137,13.4872,9.5612,20.7869,13.5288l-32.8534-265.3646c4.2542-1.2927,7.165-3.9177,7.0581-6.8543-.1447-3.9996-5.8044-7.0402-12.642-6.7939-6.8386.2469-12.2648,3.6904-12.1201,7.6893.122,3.3593,4.1493,6.0133,9.4785,6.6435" style="fill: #bc501f;"/>
  <path d="M481.4615,390.8211h0c-4.1696,5.2385-10.3572,9.257-16.4368,13.1894-10.2269,6.6195-19.8853,12.871-19.8853,24.305,0,.7615.191,1.7047.5224,2.8069.7295,2.4318,2.2553,3.95,4.6654,4.9514l.4378.22c1.4905.6579,4.1377,2.4701,11.4853,2.4701,5.823,0,11.2974-.7276,16.4304-1.9828l-1.0019-13.374,3.7859-32.5861h-.0032ZM535.1862,431.1224h0c0-17.1827,3.8576-40.3263,3.8576-40.3263,0,0-25.2482,51.8971-76.7935,51.8971-9.1169,0-13.6134-3.9006-13.6134-3.9006,5.1179,12.1082,13.6833,32.3693,13.6833,68.7708,0,14.4656-2.7216,35.3957-2.84,36.2782l-1.581,11.6159c-1.0579,5.3355-3.7144,8.5625-3.7144,8.5625,0,0,4.5585,12.2731,17.883,12.2731,24.5459,0,45.936-24.1949,67.3266-24.1949,18.9356,0,31.7336,8.9417,31.7336,8.9417,0,0-35.9416-48.5657-35.9416-129.9176ZM292.8077,388.3944s18.6604,3.4539,31.6346,3.4539c63.4681,0,87.6635-30.5065,131.1456-30.5065,18.584,0,26.9999,6.311,26.9999,15.4289,0,23.1433-41.3774,25.246-41.3774,51.5448,0,9.8193,17.182,28.0532,17.182,79.248,0,14.3731-2.8045,35.7682-2.8045,35.7682,0,0-5.6111-11.2208-31.2097-11.2208-55.7528,0-79.5979,32.2592-102.3908,32.2592-4.9089,0-7.5797-1.5067-7.5797-1.5067,0,0,6.8789-16.0258,6.8789-58.8052,0-73.6386-28.4788-115.6638-28.4788-115.6638Z" style="fill: #2f8c31;"/>
  <path d="M292.8077,388.3944s22.0696,32.5962,27.3456,90.6469c3.981.3279,9.1955.6514,14.3097.6514,30.2453,0,64.0242-17.4387,64.0242-17.4387,1.9865-36.8689-8.1192-58.4504-16.7789-79.8401h-.0092c-15.6921,5.2566-33.7855,9.4345-57.2569,9.4345-12.9741,0-31.6346-3.4539-31.6346-3.4539" style="fill: #fff;"/>
  <path d="M340.6081,433.7409h0c-2.7032-9.2875-5.9121-17.4456-9.5377-24.8085,3.7582-.4937,11.0272-1.4479,11.0272-1.4479,0,0,14.0952-1.7633,14.4324-1.8076,1.1673.1146,12.1308,1.4793,12.1308,12.9966,0,8.5146-4.1258,11.3084-5.093,11.8452-6.9162.7679-14.3493,1.8187-22.9596,3.2223M377.8064,460.4621l4.079-1.8748c-4.1077-8.9463-8.8845-17.5264-14.1683-25.592,2.3486-2.1041,5.4305-6.3727,5.4305-14.3218,0-12.8872-10.7647-17.0758-16.4562-17.4923l-.2215-.0157-15.0226,1.8817-17.0882,2.2409,1.4271,2.8543c8.0393,15.3139,13.812,34.9841,17.6519,60.1384l4.4374-.6799c-1.6589-10.8594-3.761-20.5243-6.1646-29.4928,8.2019-1.3268,15.3422-2.3398,21.9717-3.085,5.277,7.9986,10.0351,16.5357,14.1239,25.439Z"/>
  <path d="M322.9,437.6092c0,13.7294,7.2866,20.1242,22.9324,20.1242,30.1247,0,43.0516-18.6014,43.5864-19.3962l-3.7142-2.5197c-.1192.1753-12.2343,17.4276-39.8722,17.4276-13.1003,0-18.4446-4.5311-18.4446-15.636,0-10.915,14.4113-19.1492,33.5227-19.1492,12.4465,0,21.2421,3.9662,21.33,4.004l1.8779-4.0758c-.3921-.1799-9.7197-4.4165-23.2079-4.4165-22.0258,0-38.0105,9.9402-38.0105,23.6375"/>
  <path d="M408.5479,634.2006h0c-9.5299,1.6436-16.8539.7231-22.2326-2.9422-4.5995-3.1275-7.6392-8.2722-9.0831-15.2532-4.6324-3.5183-9.2865-4.8053-13.8672-3.7638-4.8224,1.0893-9.5405,4.8151-13.7795,10.6458,9.2035,18.4744,28.232,31.202,50.2777,31.202,9.7633,0,18.9403-2.4929,26.9407-6.8761-8.0812-1.1882-14.0734-5.522-18.256-13.0125M387.294,575.2744h0c5.2891-5.4841,7.7218-10.5742,7.3468-15.5117-.38-4.9902-3.6468-10.2667-9.8214-15.9658-17.5529,4.877-31.6121,18.0268-37.7559,35.0165,12.3078-6.2837,25.7567-9.3573,40.2305-3.539ZM379.8115,610.9419h0c6.3231-4.4328,10.0375-9.1867,10.9842-14.1517.9112-4.7781-.669-10.1423-4.6435-15.9495-13.8521-5.9727-27.043-2.6948-41.3267,5.6704-.7573,3.6773-1.1582,7.484-1.1582,11.3864,0,6.7005,1.2348,13.1004,3.3865,19.0555,4.5672-5.4678,9.6471-8.9528,15.0707-10.1858,5.9088-1.3361,11.9833.1212,17.6869,4.1748ZM413.3577,631.7079h0c3.3149,5.9551,9.0024,11.243,21.5593,10.0707,12.8743-10.3,21.1405-26.1128,21.1405-43.8811,0-22.6614-13.4363-42.1344-32.7529-51.0265,19.1002,32.3595,15.7091,59.8246-9.9469,84.8369ZM382.9141,615.5226c7.5704-5.3084,12.1635-11.2321,13.3934-17.6811.2357-1.2436.355-2.5038.355-3.7794,0-4.8326-1.7901-9.9293-5.1563-15.1885,5.7956-6.1096,8.7845-12.0536,8.7845-18.074,0-.4891-.0189-.9764-.0549-1.4641-.4281-5.6315-3.2802-11.1711-8.787-16.9352,2.7522-.4163,5.5474-.701,8.4143-.701,5.1664,0,10.147.755,14.8996,2.0593,22.1326,33.0988,19.933,59.8855-6.1942,84.7763-8.4257,1.5946-14.8604.9701-19.0966-1.9112-3.2551-2.2201-5.373-5.9186-6.5579-11.1011Z" style="fill: #8a2302;"/>
  <path d="M191.1872,505.2354h0l.1482-9.1663c.0607-3.73-1.5052-5.78-5.342-5.8452-3.6776-.0605-5.3093,1.9398-5.3698,5.6703l-.1489,9.166,10.7124.1752ZM173.8385,513.3231l.3329-20.5191c.1091-6.822,4.9224-11.0613,10.6782-10.9694,4.4767.0767,7.8045,1.9403,9.4419,6.1816h.1068c1.1322-4.0888,5.1485-5.1956,8.9894-5.3981,2.4008-.1205,6.8774.0065,9.0342-1.4507l-.1373,8.3652c-2.4138.9701-6.0907.8058-9.1335,1.1836-4.0066.5206-5.792,2.0384-5.8604,6.2464l-.1355,8.3667,14.8701.2404-.1355,8.373-38.0512-.6196Z"/>
  <polygon points="177.037 460.4349 183.6005 432.7373 190.4464 434.3601 185.8127 453.9143 193.748 455.7936 198.0004 437.85 204.3277 439.3456 200.0738 457.2943 209.1501 459.4427 213.8838 439.4779 220.7284 441.0992 214.0665 469.2111 177.037 460.4349"/>
  <path d="M215.8786,414.7613h0l4.3471-8.8488-14.6479-1.8524-.0476.0988,10.3484,10.6024ZM195.2773,403.7545l3.7835-7.7037,40.4326,4.0079-3.8313,7.7937-8.8746-1.1502-6.2751,12.7706,6.2898,6.4157-3.7364,7.6052-27.7886-29.7392Z"/>
  <polygon points="215.5227 368.4995 220.7302 361.9492 245.0131 381.2548 256.5544 366.7356 262.0625 371.1134 245.3132 392.1827 215.5227 368.4995"/>
  <path d="M283.4059,326.2268h0l7.773-4.8604c3.1642-1.9777,4.0334-4.4076,1.9991-7.6591-1.9495-3.1202-4.5155-3.4027-7.6791-1.425l-7.772,4.8627,5.679,9.0818ZM267.1835,316.066l17.3994-10.8788c5.7842-3.6159,11.9607-1.8822,15.012,2.9972,2.374,3.7971,2.6182,7.6047-.0489,11.2838l.0572.0907c4.0444-1.2743,7.1581,1.4956,9.4185,4.6079,1.4064,1.9477,3.7351,5.772,6.1313,6.7882l-7.0958,4.4382c-2.1304-1.4989-3.9888-4.6707-5.9615-7.0216-2.6159-3.0786-4.8594-3.7499-8.4286-1.5178l-7.0957,4.4354,7.8831,12.6098-7.0939,4.4351-20.1771-32.268Z"/>
  <path d="M330.31,309.1644h0l9.3408-3.1603-9.0213-11.6897-.1003.0323-.2192,14.8177ZM323.5832,286.7938l8.1295-2.7505,25.6786,31.4849-8.2298,2.787-5.4429-7.1041-13.4794,4.5618-.1114,8.9824-8.0268,2.718,1.4821-40.6794Z"/>
  <path d="M389.6658,286.4133c-.8747-3.7199-4.7448-6.257-8.8858-5.8789-7.4845.6819-9.7156,7.3093-9.1113,13.9435.5765,6.3154,3.9709,12.43,11.4548,11.7477,5.0953-.4661,7.6422-4.2299,7.8244-9.2789l8.0678-.7341c.0121,9.5256-5.9639,16.171-15.2532,17.0175-11.7305,1.0712-19.4309-7.0564-20.4276-17.9929-1.0259-11.251,5.0767-20.6393,16.807-21.7105,8.3334-.7592,15.7851,3.4849,17.5918,12.1524l-8.068.7343Z"/>
  <rect x="399.919" y="289.2773" width="38.0552" height="8.3683" transform="translate(88.73 684.0928) rotate(-84.8011)"/>
  <polygon points="446.0377 277.6884 454.0395 279.9487 462.3886 308.8335 462.4907 308.8602 469.427 284.2903 476.9687 286.4212 466.6304 323.0461 458.5759 320.7724 450.2647 291.9496 450.1598 291.9227 443.2376 316.4414 435.6975 314.3124 446.0377 277.6884"/>
  <path d="M504.9007,338.0695c-4.4235,1.8272-8.4706,1.167-11.6625-.6635-10.2173-5.8538-11.8593-16.9295-6.3994-26.4575,5.6157-9.8026,16.0023-13.9884,26.2227-8.1309,6.7499,3.8679,10.748,11.6866,7.2403,19.6278l-6.9362-3.9745c1.26-4.1314-.3805-7.5885-3.8021-9.5501-6.5238-3.7365-12.1521.4086-15.4651,6.189-3.152,5.5035-3.8815,12.4568,2.6391,16.1931,4.7179,2.7037,8.9032,1.7231,11.9407-2.6162l-7.3056-4.1863,3.1008-5.4105,13.8728,7.9478-10.2289,17.8505-4.6249-2.6495,1.4082-4.1692Z"/>
  <path d="M570.8569,371.7374c2.5918-2.8103,2.5197-7.4373-.1114-10.6536-4.7652-5.816-11.5012-3.9477-16.657.2742-4.9071,4.0188-8.0656,10.2569-3.3019,16.0696,3.2414,3.9588,7.7873,3.9561,12.0684,1.2766l5.1336,6.2681c-7.8813,5.3531-16.7351,4.1307-22.6439-3.0841-7.465-9.1146-5.0522-20.0481,3.4433-27.0041,8.7411-7.1609,19.9347-7.3721,27.3998,1.7403,5.3005,6.4734,5.9662,15.0234-.1973,21.3813l-5.1336-6.2683Z"/>
  <polygon points="596.6914 387.6209 600.4388 395.103 572.7011 408.9912 581.0043 425.5763 574.7145 428.7266 562.6637 404.6574 596.6914 387.6209"/>
  <path d="M600.3145,466.9872c-9.9913,2.4434-16.3015-2.2677-18.7206-12.1524-2.4355-9.9449.9601-16.9196,11.004-19.3786l22.9846-5.6274,1.9908,8.1313-22.9861,5.627c-4.0393.9861-7.7725,2.9957-6.1623,9.5704,1.4189,5.8025,4.4134,7.0415,9.9021,5.6989l22.9861-5.6268,1.9893,8.1309-22.9879,5.6268Z"/>
  <path d="M610.4014,491.7957h0l.1368,8.4766c.0496,2.9306,1.4174,5.0953,4.6144,5.0411,3.6232-.0559,4.326-2.8387,4.2764-5.8246l-.1257-7.8345-8.9019.1414ZM594.2558,492.0588h0l.1451,8.9528c.0509,3.3047,1.1642,6.1701,5.1091,6.1031,3.8894-.0653,5.3962-2.5419,5.3356-6.1081l-.1447-9.1171-10.4451.1693ZM625.6694,483.1823l.29,17.9057c.1179,7.2499-2.147,12.1903-9.2381,12.3069-3.7287.0592-6.3709-1.7647-8.024-5.0411-1.2572,4.6574-4.7879,7.0578-9.5327,7.134-7.7261.1257-11.1363-6.3725-11.2482-13.2482l-.2991-18.4424,38.0521-.6149Z"/>
  <path d="M230.0955,628.6787c-3.9127,3.2154-2.933,7.516-.0912,10.9736,1.8622,2.2636,5.3629,5.183,8.3684,2.7124,3.1721-2.6023.086-7.4521-2.3125-12.7226-2.4335-5.3151-4.3653-11.1062,1.1539-15.642,6.0125-4.9376,13.5645-1.6214,17.9293,3.6869,5.0411,6.1368,6.9999,13.9824.2049,19.565l-5.1439-6.2625c3.3727-3.1171,2.2145-6.3709-.3218-9.4624-1.6916-2.0596-4.52-3.7365-6.9911-1.7027-2.2639,1.8572-1.4026,3.4947,2.7586,12.4266,1.2247,2.5803,5.2788,10.2825-1.393,15.7679-5.3952,4.4326-12.9152,3.5012-19.4794-4.4867-5.3466-6.5044-7.1413-15.2441.1758-21.1115l5.1419,6.258Z"/>
  <path d="M265.258,662.22h0l7.7379,6.1094,4.8927-13.9283-.0837-.0656-12.547,7.8844ZM280.3582,644.397l6.7338,5.3199-12.4263,38.6828-6.8164-5.3864,2.9944-8.4322-11.1659-8.8271-7.5954,4.8007-6.6501-5.2497,34.9258-20.908Z"/>
  <polygon points="305.3832 662.6194 312.9032 666.1713 316.3693 696.0368 316.4646 696.0812 327.3628 672.998 334.4482 676.3397 318.2046 710.7538 310.6365 707.181 307.1955 677.3858 307.1003 677.3429 296.2255 700.3817 289.1396 697.034 305.3832 662.6194"/>
  <polygon points="352.9263 688.7164 341.7986 686.2129 343.3433 679.348 373.7629 686.1968 372.2174 693.0566 361.0899 690.5532 354.2767 720.8179 346.1134 718.9771 352.9263 688.7164"/>
  <path d="M388.4675,710.4463h0l9.8547.3009-4.3698-14.1021-.1064-.0065-5.3786,13.8077ZM389.9765,687.1334l8.5774.2631,13.0646,38.4737-8.685-.2626-2.6177-8.5593-14.2242-.4379-3.2404,8.3823-8.4711-.2565,15.5964-37.6027Z"/>
  <polygon points="420.968 686.8865 429.1261 685.2699 449.6674 707.2304 449.771 707.2082 444.8098 682.1639 452.4963 680.6415 459.8911 717.9686 451.6841 719.5965 431.2029 697.6803 431.0998 697.703 436.0497 722.6927 428.3647 724.2155 420.968 686.8865"/>
  <path d="M484.5244,701.5984h0l6.7757-3.1233c4.4036-2.0273,7.368-6.6796,3.8433-14.3278-3.2146-6.9686-7.6852-10.3116-15.2375-6.8265l-5.4221,2.4988,10.0406,21.7789ZM463.9401,676.9319l14.9079-6.8711c8.9561-4.1317,18.2731-1.6168,23.5597,9.8577,4.619,10.0198,2.9224,19.839-7.6291,24.7048l-14.9112,6.8693-15.9273-34.5607Z"/>
  <polygon points="503.4618 656.9111 526.0439 639.5807 530.3268 645.1651 514.3852 657.3989 519.3495 663.8635 533.9805 652.638 537.9403 657.7983 523.3073 669.0257 528.9875 676.427 545.268 663.9351 549.5496 669.513 526.6301 687.1001 503.4618 656.9111"/>
  <path d="M552.6933,636.5784h0l5.8853-7.0286c2.3939-2.8603,2.4702-5.441-.4748-7.9015-2.8173-2.3606-5.3435-1.835-7.7387,1.0239l-5.8867,7.0306,8.215,6.8756ZM534.1238,631.9436l13.17-15.7299c4.3819-5.2334,10.7896-5.5011,15.203-1.8026,3.4322,2.8697,4.8451,6.4152,3.4485,10.7443l.0827.0653c3.4513-2.4605,7.2708-.7948,10.3827,1.4636,1.9418,1.4175,5.3422,4.3338,7.9335,4.5585l-5.3722,6.4156c-2.4877-.7613-5.2417-3.2062-7.8441-4.8275-3.4407-2.1198-5.7832-2.0656-8.4831,1.1674l-5.3722,6.4155,11.4009,9.5455-5.3722,6.4151-29.1774-24.4308Z"/>
  <path d="M289.5903,263.358l-.0031.0023c-1.6006.7507-2.8485,2.1285-3.425,3.7781-.5635,1.6083-.459,3.3309.2913,4.8464,1.5654,3.1587,5.3422,4.4374,8.5982,2.915,32.96-15.4291,68.2693-23.2534,104.9483-23.2534s71.9913,7.8243,104.9496,23.2534c3.2603,1.5224,7.0352.2404,8.5978-2.9183.7504-1.5256.8489-3.2459.2848-4.8514-.5779-1.6468-1.8252-3.0214-3.4224-3.7721-34.6786-16.2395-71.8247-24.4748-110.4097-24.4748s-75.7334,8.2353-110.4097,24.4748" style="fill: #010101;"/>
  <path d="M289.6311,232.0377c-1.3491.6486-2.3652,1.785-2.8613,3.2021-.2122.605-.318,1.2325-.318,1.857,0,.8303.1882,1.6603.5607,2.4294.6478,1.3481,1.7846,2.3649,3.1998,2.8608,1.4152.4952,2.938.4105,4.2884-.2412,32.4179-15.6208,64.9568-22.5876,105.4994-22.5876s73.0824,6.9668,105.4974,22.5876c1.3491.6517,2.8719.7364,4.2881.2435,1.4142-.4954,2.5497-1.5122,3.2024-2.8631.6486-1.3499.7361-2.8728.2409-4.2864-.4924-1.4139-1.5099-2.5507-2.8608-3.2021-34.0096-16.3911-68.0477-23.7003-110.368-23.7003s-76.3561,7.3092-110.369,23.7003" style="fill: #010101;"/>
  <path d="M510.0259,270.2422c.6162-1.2575-.0209-2.7369-1.2871-3.3286-33.0155-15.4651-69.8716-24.1022-108.7388-24.1022s-75.7246,8.6409-108.7444,24.1055c-1.2673.594-1.9025,2.0734-1.2821,3.3253.6196,1.2489,2.1525,1.6898,3.4147,1.0981,32.3748-15.1549,68.5055-23.6193,106.6117-23.6193s74.2401,8.4645,106.6158,23.6193c1.2632.5917,2.7933.1507,3.4101-1.0981" style="fill: #c9980f;"/>
  <path d="M336.4246,183.4876h0c8.5516-1.4737,15.2539-.9203,15.8836,1.5868.6656,2.6459-5.6731,6.5826-14.6768,9.3601,2.7674,3.9016,7.9025,9.6981,14.0393,9.6981,12.3082,0,15.3873-14.3628,15.3873-14.3628,0,0,5.4705,9.0615,14.5325,9.0615,8.3749,0,12.8224-6.4976,12.8224-10.7717v-4.0077c-9.9744-.7232-17.372-3.3362-17.372-6.4541,0-3.0356,6.9994-5.5913,16.5644-6.3971.4692-5.5857,1.5409-10.2834,2.9515-13.2372-3.9876-2.276-7.2867-8.4095-9.0921-16.527-4.4039-1.5482-9.7951-2.7619-15.9518-2.7619-11.7651,0-22.1465,6.419-28.7641,11.7583-3.6108,8.6185-5.9493,19.0531-6.9182,31.4035.1983.5478.4022,1.0758.594,1.6513M403.4433,157.9634h0c1.4111,2.9538,2.4814,7.6515,2.9516,13.2372,9.5657.8058,16.5638,3.3616,16.5638,6.3971,0,3.1179-7.3961,5.7309-17.3734,6.4541v4.0077c0,4.2741,4.4484,10.7717,12.8247,10.7717,9.0611,0,14.5322-9.0615,14.5322-9.0615,0,0,3.0791,14.3628,15.3872,14.3628,6.1368,0,11.2704-5.7965,14.0384-9.6981-9.005-2.7775-15.3412-6.7142-14.6754-9.3601.626-2.5071,7.33-3.0604,15.8829-1.5868.1928-.5755.3948-1.1035.5941-1.6513-.9686-12.3505-3.3084-22.785-6.919-31.4035-6.6158-5.3392-16.999-11.7583-28.7633-11.7583-6.1572,0-11.5454,1.2137-15.9509,2.7619-1.8063,8.1198-5.1049,14.251-9.093,16.527ZM527.8308,201.3956h0s2.1281-4.3116,7.7503-6.1664c-10.2539-18.7798-27.7549-30.2172-59.4964-31.6578l-4.8386.496c.3037,2.0134.5668,4.0624.7452,6.1942.161-.0089.3311-.0638.4841-.0245,2.5071.6295,3.061,7.3305,1.5868,15.8834,8.2324,2.7397,13.8788,6.3961,13.2514,8.9-.6801,2.7013-8.4193,3.1368-17.9279,1.2002.3422,5.6159,2.4799,16.2889,13.8216,16.2889,5.1369,0,11.9679-5.4734,11.9679-5.4734,0,0,3.252,15.0458,14.8762,15.0458,9.5737,0,11.4529-8.0355,11.4529-8.0355-6.0378-3.5636-9.0035-8.9167-9.4017-15.7271,0,0,4.2733-.6852,6.8376-.6852,6.8438,0,8.8905,3.7613,8.8905,3.7613ZM325.9378,186.1207c-8.2347,2.7397-13.8811,6.3961-13.2505,8.9.6793,2.7013,8.4185,3.1368,17.9242,1.2002-.3427,5.6159-2.4781,16.2889-13.8197,16.2889-5.1349,0-11.967-5.4734-11.967-5.4734,0,0-3.252,15.0458-14.8752,15.0458-9.5747,0-11.4559-8.0355-11.4559-8.0355,6.0398-3.5636,9.006-8.9167,9.4036-15.7271,0,0-4.2733-.6852-6.8391-.6852-6.8419,0-8.8899,3.7613-8.8899,3.7613,0,0-2.1272-4.3116-7.7503-6.1664,10.2556-18.7798,27.7557-30.2172,59.498-31.6578l4.8378.496c-.3037,2.0134-.5682,4.0624-.7452,6.1942-.1619-.0089-.3316-.0638-.4841-.0245-2.5073.6295-3.0607,7.3305-1.5868,15.8834Z" style="fill: #e31f13;"/>
  <path d="M400,218.1009c-39.6406,0-77.481,9.1118-114.8668,26.6228,0,7.5177.5288,16.0563,5.4123,19.4288,22.2292-10.3587,46.1756-17.6373,71.2882-21.3386,3.2926-.4841,6.6023-.92,9.9362-1.2812,4.52-.4911,9.0743-.8715,13.6633-1.1239,4.8212-.2681,9.6786-.4032,14.5668-.4032s9.7443.1351,14.5685.4032c4.8211.2659,9.607.6634,14.3555,1.1923,2.3745.2626,4.7378.5582,7.0919.8845,25.8996,3.5941,50.5746,11.0124,73.438,21.6669,4.8849-3.3725,5.4138-11.9111,5.4138-19.4288-37.3863-17.511-75.2262-26.6228-114.8678-26.6228" style="fill: #c9980f;"/>
  <path d="M303.9219,243.3287c-8.3732,3.1429-16.6888,6.7426-24.7185,10.7014-2.7793,1.3716-3.9213,4.7332-2.5515,7.514,1.3703,2.7782,4.7332,3.92,7.5127,2.5502,7.6994-3.7937,15.6725-7.2453,23.6995-10.2587,2.901-1.0879,4.3711-4.3237,3.2825-7.2246-1.0898-2.9012-4.3237-4.3691-7.2247-3.2822" style="fill: #e31f13;"/>
  <path d="M488.8555,246.611c-1.0898,2.901.3805,6.1335,3.2792,7.2246,8.0318,3.0134,16.0069,6.465,23.6998,10.2587,2.781,1.3699,6.1415.228,7.5147-2.5502,1.3699-2.7808.2274-6.1423-2.5502-7.514-8.0273-3.9565-16.3445-7.5563-24.7188-10.7014-2.902-1.0868-6.134.3843-7.2246,3.2822" style="fill: #e31f13;"/>
  <path d="M386.5443,223.4958c-3.099.0731-5.4148,2.6404-5.3407,5.7384.0739,3.0965,2.7803,5.5426,5.8775,5.4687l12.919-.3075,12.92.3075c3.098.0739,5.8026-2.3723,5.8755-5.4687.0731-3.0981-2.2408-5.6654-5.3388-5.7384l-13.4567-.3213-13.4558.3213Z" style="fill: #e31f13;"/>
  <path d="M357.9299,226.3576c-9.0994,1.3889-18.2242,3.2547-27.1229,5.5511-2.9992.7749-4.8045,3.8349-4.0311,6.8349.7741,2.9991,3.8328,4.8045,6.834,4.0295,8.5335-2.1992,17.2847-3.9911,26.0128-5.3226,3.0629-.4684,5.1669-3.3315,4.6996-6.3943-.4669-3.0629-3.3298-5.1663-6.3925-4.6986" style="fill: #338b34;"/>
  <path d="M435.6772,231.0561c-.467,3.0628,1.637,5.926,4.6999,6.3943,8.7248,1.3315,17.4756,3.1234,26.0141,5.3226,3.001.775,6.0602-1.0304,6.8326-4.0295.7759-3.0031-1.0304-6.0601-4.0327-6.8349-8.9001-2.2964-18.0249-4.1646-27.1211-5.5511-3.0628-.4678-5.9251,1.6356-6.3928,4.6986" style="fill: #338b34;"/>
  <path d="M290.9694,234.8177c-1.2557.605-1.7836,2.115-1.1776,3.3692.6038,1.2576,2.1132,1.7838,3.3694,1.179,32.8566-15.8323,65.8069-22.8919,106.8388-22.8919s73.9821,7.0596,106.8373,22.8919c1.2547.6047,2.7646.0785,3.3704-1.179.6051-1.2543.0794-2.7609-1.179-3.3692-33.5717-16.18-67.199-23.3926-109.0286-23.3926s-75.456,7.2126-109.0306,23.3926" style="fill: #c9980f;"/>
  <path d="M540.9967,194.3855h0c-9.7416,0-13.1659,7.01-13.1659,7.01,0,0-2.0467-3.7613-8.8905-3.7613-2.5644,0-6.8376.6852-6.8376.6852.3981,6.8104,3.3639,12.1635,9.4017,15.7271,0,0-1.8792,8.0355-11.4529,8.0355-11.6242,0-14.8762-15.0458-14.8762-15.0458,0,0-6.8311,5.4734-11.9679,5.4734-11.3417,0-13.4794-10.673-13.8216-16.2889,9.5085,1.9366,17.2477,1.5011,17.9279-1.2002.6274-2.5039-5.019-6.1603-13.2514-8.9,1.4742-8.553.9204-15.2539-1.5868-15.8834-.153-.0393-.3231.0156-.4841.0245-.9926-11.9412-3.9994-22.0046-8.7091-30.2279,4.589-.6658,11.2477-1.4276,17.7734-1.4276,38.146,0,60.7105,28.2851,62.1514,55.9106-.7087-.0791-1.441-.1313-2.2103-.1313M463.5753,183.4876h0c-8.5529-1.4737-15.2569-.9203-15.8829,1.5868-.6658,2.6459,5.6704,6.5826,14.6754,9.3601-2.7679,3.9016-7.9015,9.6981-14.0384,9.6981-12.3082,0-15.3872-14.3628-15.3872-14.3628,0,0-5.4711,9.0615-14.5322,9.0615-8.3763,0-12.8247-6.4976-12.8247-10.7717v-4.0077c9.9774-.7232,17.3734-3.3362,17.3734-6.4541,0-3.0356-6.9981-5.5913-16.5638-6.3971-.4702-5.5857-1.5405-10.2834-2.9516-13.2372,6.0796-3.4705,10.584-15.8668,10.584-30.6715,0-2.6898-.166-5.2873-.4448-7.7828,29.8081,1.8526,47.4174,21.9768,50.5869,62.3271-.1993.5478-.4014,1.0758-.5941,1.6513ZM393.6052,171.2006h0c-9.565.8058-16.5644,3.3616-16.5644,6.3971,0,3.1179,7.3975,5.7309,17.372,6.4541v4.0077c0,4.2741-4.4475,10.7717-12.8224,10.7717-9.062,0-14.5325-9.0615-14.5325-9.0615,0,0-3.0791,14.3628-15.3873,14.3628-6.1368,0-11.2719-5.7965-14.0393-9.6981,9.0037-2.7775,15.3424-6.7142,14.6768-9.3601-.6297-2.5071-7.332-3.0604-15.8836-1.5868-.1918-.5755-.3957-1.1035-.594-1.6513,3.1696-40.3536,20.7761-60.4778,50.5879-62.3271-.2797,2.4955-.4448,5.093-.4448,7.7828,0,14.8047,4.5052,27.201,10.583,30.6715-1.4106,2.9538-2.4823,7.6515-2.9515,13.2372ZM325.9378,186.1207h0c-8.2347,2.7397-13.8811,6.3961-13.2505,8.9.6793,2.7013,8.4185,3.1368,17.9242,1.2002-.3427,5.6159-2.4781,16.2889-13.8197,16.2889-5.1349,0-11.967-5.4734-11.967-5.4734,0,0-3.252,15.0458-14.8752,15.0458-9.5747,0-11.4559-8.0355-11.4559-8.0355,6.0398-3.5636,9.006-8.9167,9.4036-15.7271,0,0-4.2733-.6852-6.8391-.6852-6.8419,0-8.8899,3.7613-8.8899,3.7613,0,0-3.4231-7.01-13.1656-7.01-.7688,0-1.5019.0522-2.2098.1313,1.441-27.6256,24.0045-55.9106,62.15-55.9106,6.5251,0,13.1876.7618,17.7729,1.4276-4.7055,8.2233-7.7146,18.2867-8.7072,30.2279-.1619-.0089-.3316-.0638-.4841-.0245-2.5073.6295-3.0607,7.3305-1.5868,15.8834ZM550.4732,197.0368c-.8825-39.3966-33.8311-64.7833-59.339-64.7833-16.655,0-25.9727,1.5278-31.0055,2.901-10.5331-14.5552-27.263-22.1293-47.7982-22.9736-.516-2.1369-1.153-4.09-1.865-5.8954,2.7664-2.7114,4.4901-6.484,4.4901-10.6648,0-6.9334-4.7435-12.7086-11.1429-14.404v-10.4401h8.811v-7.6268h-8.811v-13.1498h-7.6273v13.1498h-8.8085v7.6268h8.8085v10.4401c-6.3994,1.6954-11.1409,7.4734-11.1409,14.404,0,4.1831,1.7239,7.9534,4.491,10.6681-.7106,1.8021-1.3496,3.7553-1.8645,5.8921-20.5357.8442-37.2666,8.4184-47.7997,22.9736-5.0328-1.3731-14.3495-2.901-31.0073-2.901-25.5075,0-58.4565,25.3868-59.3372,64.7833-4.6777,2.8877-6.7652,7.0956-6.7652,7.0956,8.8636-3.2491,14.1184,3.1475,20.6874,10.9413,5.7976,6.8761,9.5783,17.6948,17.6952,17.6948,23.6778,0,27.0961-14.9574,27.0961-14.9574,0,0,5.6408,2.9035,14.8769,2.9035,9.9135,0,14.0152-13.6783,14.0152-13.6783,0,0,7.522,7.5996,18.362,7.5996,6.7693,0,13.4386-11.7008,13.4386-11.7008,0,0,6.4971,5.8133,16.5877,5.8133,8.7155,0,14.4793-9.7466,14.4793-9.7466,0,0,5.7636,9.7466,14.4775,9.7466,10.0933,0,16.5885-5.8133,16.5885-5.8133,0,0,6.6703,11.7008,13.4396,11.7008,10.84,0,18.361-7.5996,18.361-7.5996,0,0,4.1027,13.6783,14.0144,13.6783,9.2379,0,14.8792-2.9035,14.8792-2.9035,0,0,3.4179,14.9574,27.0956,14.9574,8.117,0,11.8977-10.8186,17.6953-17.6948,6.5685-7.7937,11.8228-14.1904,20.6882-10.9413,0,0-2.0883-4.2107-6.766-7.0956Z" style="fill: #c9980f;"/>
  <path d="M406.5904,177.5977c0,3.6413-2.9496,6.5908-6.5904,6.5908s-6.5922-2.9495-6.5922-6.5908,2.9514-6.5941,6.5922-6.5941,6.5904,2.9533,6.5904,6.5941" style="fill: #010101;"/>
  <path d="M404.208,177.5977c0,2.3231-1.8844,4.208-4.208,4.208s-4.2081-1.8849-4.2081-4.208c0-2.3259,1.8834-4.208,4.2081-4.208s4.208,1.8821,4.208,4.208" style="fill: #e31f13;"/>
  <path d="M270.589,211.6116c0,3.6406-2.9504,6.5916-6.5917,6.5916s-6.5922-2.951-6.5922-6.5916,2.9524-6.5941,6.5922-6.5941,6.5917,2.9528,6.5917,6.5941" style="fill: #010101;"/>
  <path d="M268.2053,211.6116c0,2.3231-1.8839,4.2079-4.2081,4.2079s-4.2071-1.8848-4.2071-4.2079c0-2.3264,1.8834-4.2081,4.2071-4.2081s4.2081,1.8817,4.2081,4.2081" style="fill: #e31f13;"/>
  <path d="M529.4109,211.6116c0,3.6406,2.9515,6.5916,6.5923,6.5916s6.5907-2.951,6.5907-6.5916-2.9514-6.5941-6.5907-6.5941-6.5923,2.9528-6.5923,6.5941" style="fill: #010101;"/>
  <path d="M531.7952,211.6116c0,2.3231,1.8844,4.2079,4.2081,4.2079,2.3222,0,4.2066-1.8848,4.2066-4.2079,0-2.3264-1.8844-4.2081-4.2066-4.2081-2.3236,0-4.2081,1.8817-4.2081,4.2081" style="fill: #e31f13;"/>
  <path d="M339.0894,190.0456c0,3.6412-2.9504,6.594-6.5917,6.594s-6.5922-2.9528-6.5922-6.594,2.9514-6.5903,6.5922-6.5903,6.5917,2.9495,6.5917,6.5903" style="fill: #010101;"/>
  <path d="M336.7058,190.0456c0,2.3232-1.8849,4.2081-4.208,4.2081-2.3246,0-4.2081-1.8849-4.2081-4.2081s1.8834-4.208,4.2081-4.208c2.3231,0,4.208,1.8854,4.208,4.208" style="fill: #338b34;"/>
  <path d="M460.9106,190.0456c0,3.6412,2.9499,6.594,6.5907,6.594s6.5941-2.9528,6.5941-6.594-2.9528-6.5903-6.5941-6.5903-6.5907,2.9495-6.5907,6.5903" style="fill: #010101;"/>
  <path d="M463.2933,190.0456c0,2.3232,1.8845,4.2081,4.2081,4.2081,2.3256,0,4.2081-1.8849,4.2081-4.2081s-1.8825-4.208-4.2081-4.208c-2.3236,0-4.2081,1.8854-4.2081,4.208" style="fill: #338b34;"/>
  <path d="M463.2008,146.2742h0c0,3.6931,2.9931,6.6871,6.6866,6.6871s6.6879-2.994,6.6879-6.6871-2.9944-6.6846-6.6879-6.6846-6.6866,2.9921-6.6866,6.6846M468.0224,158.7638h0c0,3.6925,2.9944,6.6869,6.6861,6.6869s6.6847-2.9944,6.6847-6.6869-2.9912-6.6847-6.6847-6.6847-6.6861,2.9921-6.6861,6.6847ZM414.5602,107.4936h0c0,3.693,2.9944,6.6846,6.6866,6.6846s6.6847-2.9917,6.6847-6.6846-2.9912-6.6871-6.6847-6.6871-6.6866,2.9944-6.6866,6.6871ZM431.6489,113.1892h0c0,3.6927,2.9944,6.6871,6.6879,6.6871s6.6866-2.9944,6.6866-6.6871-2.9944-6.6846-6.6866-6.6846-6.6879,2.9917-6.6879,6.6846ZM444.1394,120.8601h0c0,3.6925,2.994,6.6841,6.6861,6.6841s6.6879-2.9917,6.6879-6.6841-2.9944-6.6874-6.6879-6.6874-6.6861,2.9944-6.6861,6.6874ZM452.9023,128.7472h0c0,3.6926,2.9944,6.6837,6.6879,6.6837s6.6864-2.9912,6.6864-6.6837-2.9944-6.6874-6.6864-6.6874-6.6879,2.9944-6.6879,6.6874ZM466.9267,127.4324h0c0,3.6927,2.9939,6.6871,6.6859,6.6871s6.6879-2.9944,6.6879-6.6871-2.9944-6.6852-6.6879-6.6852-6.6859,2.9912-6.6859,6.6852ZM481.3852,127.4324h0c0,3.6927,2.9944,6.6871,6.6861,6.6871,3.6939,0,6.6847-2.9944,6.6847-6.6871s-2.9907-6.6852-6.6847-6.6852c-3.6917,0-6.6861,2.9912-6.6861,6.6852ZM496.0638,129.6237h0c0,3.6932,2.9944,6.6843,6.6861,6.6843,3.6939,0,6.6884-2.9912,6.6884-6.6843s-2.9944-6.6869-6.6884-6.6869c-3.6917,0-6.6861,2.9934-6.6861,6.6869ZM511.1822,136.8531h0c0,3.693,2.9944,6.6874,6.6879,6.6874s6.6861-2.9944,6.6861-6.6874-2.9939-6.6847-6.6861-6.6847-6.6879,2.992-6.6879,6.6847ZM522.3568,145.6195h0c0,3.6932,2.9941,6.6843,6.6879,6.6843,3.6917,0,6.6861-2.9912,6.6861-6.6843s-2.9944-6.687-6.6861-6.687c-3.6938,0-6.6879,2.9944-6.6879,6.687ZM533.5311,155.0408h0c0,3.693,2.9945,6.6837,6.6879,6.6837s6.6864-2.9908,6.6864-6.6837-2.9944-6.6871-6.6864-6.6871-6.6879,2.9944-6.6879,6.6871ZM540.7609,167.9681h0c0,3.6925,2.994,6.6846,6.6874,6.6846s6.6866-2.9921,6.6866-6.6846-2.9944-6.687-6.6866-6.687-6.6874,2.9944-6.6874,6.687ZM546.4595,180.6768h0c0,3.6934,2.9944,6.6847,6.6864,6.6847s6.6847-2.9913,6.6847-6.6847-2.9912-6.6874-6.6847-6.6874-6.6864,2.9944-6.6864,6.6874ZM549.0891,192.5089h0c0,3.6931,2.9944,6.6837,6.6866,6.6837s6.6847-2.9907,6.6847-6.6837-2.9912-6.6871-6.6847-6.6871-6.6866,2.9944-6.6866,6.6871ZM330.1116,139.5896h0c-3.6925,0-6.6859,2.9921-6.6859,6.6846s2.9935,6.6871,6.6859,6.6871,6.6876-2.994,6.6876-6.6871-2.9944-6.6846-6.6876-6.6846ZM325.2915,152.0791h0c-3.693,0-6.6854,2.9921-6.6854,6.6847s2.9925,6.6869,6.6854,6.6869,6.6871-2.9944,6.6871-6.6869-2.9945-6.6847-6.6871-6.6847ZM378.7532,100.8065h0c-3.6934,0-6.6864,2.9944-6.6864,6.6871s2.993,6.6846,6.6864,6.6846,6.6869-2.9917,6.6869-6.6846-2.9944-6.6871-6.6869-6.6871ZM361.6622,106.5046h0c-3.6925,0-6.6856,2.9917-6.6856,6.6846s2.9931,6.6871,6.6856,6.6871,6.6869-2.9944,6.6869-6.6871-2.9939-6.6846-6.6869-6.6846ZM349.1726,114.1727h0c-3.6925,0-6.6851,2.9944-6.6851,6.6874s2.9926,6.6841,6.6851,6.6841,6.6874-2.9917,6.6874-6.6841-2.9944-6.6874-6.6874-6.6874ZM340.4098,122.0598h0c-3.6939,0-6.6864,2.9944-6.6864,6.6874s2.9925,6.6837,6.6864,6.6837,6.6869-2.9912,6.6869-6.6837-2.9944-6.6874-6.6869-6.6874ZM326.3859,120.7472h0c-3.693,0-6.6856,2.9912-6.6856,6.6852s2.9926,6.6871,6.6856,6.6871,6.6869-2.9944,6.6869-6.6871-2.9944-6.6852-6.6869-6.6852ZM311.9282,120.7472h0c-3.6925,0-6.6861,2.9912-6.6861,6.6852s2.9936,6.6871,6.6861,6.6871,6.6874-2.9944,6.6874-6.6871-2.9944-6.6852-6.6874-6.6852ZM297.2481,122.9368h0c-3.6925,0-6.6854,2.9934-6.6854,6.6869s2.993,6.6843,6.6854,6.6843,6.6871-2.9912,6.6871-6.6843-2.9936-6.6869-6.6871-6.6869ZM282.129,130.1684h0c-3.6925,0-6.6851,2.992-6.6851,6.6847s2.9926,6.6874,6.6851,6.6874,6.6874-2.9944,6.6874-6.6874-2.9944-6.6847-6.6874-6.6847ZM270.9548,138.9325h0c-3.693,0-6.6856,2.9944-6.6856,6.687s2.9926,6.6843,6.6856,6.6843,6.6869-2.9912,6.6869-6.6843-2.9944-6.687-6.6869-6.687ZM259.7809,148.3537h0c-3.6939,0-6.6864,2.9944-6.6864,6.6871s2.9925,6.6837,6.6864,6.6837,6.6869-2.9908,6.6869-6.6837-2.9944-6.6871-6.6869-6.6871ZM252.5507,161.2811h0c-3.693,0-6.6856,2.9944-6.6856,6.687s2.9926,6.6846,6.6856,6.6846,6.6869-2.9921,6.6869-6.6846-2.9944-6.687-6.6869-6.687ZM246.8541,173.9894h0c-3.6927,0-6.6851,2.9944-6.6851,6.6874s2.9925,6.6847,6.6851,6.6847,6.6874-2.9913,6.6874-6.6847-2.9944-6.6874-6.6874-6.6874ZM244.2239,185.8218h0c-3.693,0-6.6856,2.9944-6.6856,6.6871s2.9926,6.6837,6.6856,6.6837,6.6879-2.9907,6.6879-6.6837-2.9944-6.6871-6.6879-6.6871ZM400,104.5957h0c-3.6925,0-6.6851,2.9944-6.6851,6.6869s2.9926,6.6843,6.6851,6.6843,6.6879-2.9912,6.6879-6.6843-2.9944-6.6869-6.6879-6.6869ZM400,137.1462h0c-3.6925,0-6.6851,2.9944-6.6851,6.6869s2.9926,6.6844,6.6851,6.6844,6.6879-2.9914,6.6879-6.6844-2.9944-6.6869-6.6879-6.6869ZM406.6879,127.292c0,3.693-2.9944,6.6874-6.6879,6.6874s-6.6851-2.9944-6.6851-6.6874,2.9926-6.6838,6.6851-6.6838,6.6879,2.9912,6.6879,6.6838Z" style="fill: #010101;"/>
  <path d="M465.6794,146.2742h0c0,2.3255,1.8826,4.2081,4.2081,4.2081s4.208-1.8826,4.208-4.2081c0-2.3226-1.8826-4.208-4.208-4.208s-4.2081,1.8854-4.2081,4.208M470.5005,158.7638h0c0,2.3254,1.8825,4.208,4.2081,4.208,2.3234,0,4.2079-1.8826,4.2079-4.208,0-2.3232-1.8844-4.2081-4.2079-4.2081-2.3256,0-4.2081,1.8849-4.2081,4.2081ZM417.0401,107.4936h0c0,2.3231,1.8813,4.208,4.2068,4.208,2.3236,0,4.2081-1.8849,4.2081-4.208,0-2.3256-1.8845-4.208-4.2081-4.208-2.3254,0-4.2068,1.8824-4.2068,4.208ZM434.1288,113.1892h0c0,2.3261,1.8826,4.208,4.208,4.208s4.2081-1.8819,4.2081-4.208c0-2.3231-1.8825-4.2079-4.2081-4.2079s-4.208,1.8848-4.208,4.2079ZM446.6175,120.8601h0c0,2.3226,1.8825,4.208,4.2081,4.208s4.208-1.8854,4.208-4.208c0-2.3264-1.8813-4.208-4.208-4.208s-4.2081,1.8816-4.2081,4.208ZM455.3821,128.7472h0c0,2.3227,1.8812,4.2081,4.2081,4.2081,2.3254,0,4.2066-1.8854,4.2066-4.2081,0-2.3264-1.8812-4.208-4.2066-4.208-2.3269,0-4.2081,1.8816-4.2081,4.208ZM469.4046,127.4324h0c0,2.3255,1.8827,4.2072,4.2081,4.2072,2.3269,0,4.2081-1.8817,4.2081-4.2072,0-2.3242-1.8812-4.2081-4.2081-4.2081-2.3254,0-4.2081,1.8839-4.2081,4.2081ZM483.8633,127.4324h0c0,2.3255,1.8831,4.2072,4.2081,4.2072s4.2085-1.8817,4.2085-4.2072c0-2.3242-1.8844-4.2081-4.2085-4.2081s-4.2081,1.8839-4.2081,4.2081ZM498.5419,129.6237h0c0,2.3233,1.8831,4.2072,4.2081,4.2072s4.2085-1.8839,4.2085-4.2072c0-2.3259-1.8831-4.2079-4.2085-4.2079s-4.2081,1.882-4.2081,4.2079ZM513.662,136.8531h0c0,2.3254,1.8826,4.208,4.2081,4.208s4.2081-1.8826,4.2081-4.208c0-2.3227-1.8826-4.2076-4.2081-4.2076s-4.2081,1.8849-4.2081,4.2076ZM524.8367,145.6195h0c0,2.3231,1.8808,4.208,4.208,4.208,2.3251,0,4.2077-1.8849,4.2077-4.208,0-2.3259-1.8826-4.2081-4.2077-4.2081-2.3272,0-4.208,1.8822-4.208,4.2081ZM536.0115,155.0408h0c0,2.3231,1.8807,4.208,4.2076,4.208,2.3254,0,4.2081-1.8849,4.2081-4.208,0-2.3264-1.8826-4.208-4.2081-4.208-2.3269,0-4.2076,1.8816-4.2076,4.208ZM543.2407,167.9681h0c0,2.3231,1.8807,4.208,4.2076,4.208,2.3254,0,4.2085-1.8849,4.2085-4.208,0-2.3254-1.8831-4.2081-4.2085-4.2081-2.3269,0-4.2076,1.8827-4.2076,4.2081ZM548.9379,180.6768h0c0,2.3237,1.8826,4.2081,4.2081,4.2081,2.3236,0,4.2081-1.8844,4.2081-4.2081,0-2.3256-1.8845-4.2075-4.2081-4.2075-2.3254,0-4.2081,1.8819-4.2081,4.2075ZM551.5689,192.5089h0c0,2.3232,1.8813,4.2081,4.2068,4.2081,2.3236,0,4.2081-1.8849,4.2081-4.2081,0-2.3259-1.8844-4.208-4.2081-4.208-2.3254,0-4.2068,1.8821-4.2068,4.208ZM330.1116,142.0662h0c-2.3244,0-4.208,1.8854-4.208,4.208,0,2.3255,1.8836,4.2081,4.208,4.2081,2.3256,0,4.2077-1.8826,4.2077-4.2081,0-2.3226-1.8821-4.208-4.2077-4.208ZM325.2915,154.5557h0c-2.3244,0-4.208,1.8849-4.208,4.2081,0,2.3254,1.8836,4.208,4.208,4.208,2.3259,0,4.2081-1.8826,4.2081-4.208,0-2.3232-1.8821-4.2081-4.2081-4.2081ZM378.7532,103.2856h0c-2.3244,0-4.208,1.8824-4.208,4.208,0,2.3231,1.8836,4.208,4.208,4.208s4.2071-1.8849,4.2071-4.208c0-2.3256-1.8816-4.208-4.2071-4.208ZM361.6622,108.9813h0c-2.3246,0-4.2081,1.8848-4.2081,4.2079,0,2.3261,1.8835,4.208,4.2081,4.208,2.3264,0,4.2081-1.8819,4.2081-4.208,0-2.3231-1.8817-4.2079-4.2081-4.2079ZM349.1726,116.6521h0c-2.3246,0-4.2076,1.8816-4.2076,4.208,0,2.3226,1.883,4.208,4.2076,4.208,2.3264,0,4.2081-1.8854,4.2081-4.208,0-2.3264-1.8816-4.208-4.2081-4.208ZM340.4098,124.5392h0c-2.3244,0-4.208,1.8816-4.208,4.208,0,2.3227,1.8836,4.2081,4.208,4.2081s4.2071-1.8854,4.2071-4.2081c0-2.3264-1.8817-4.208-4.2071-4.208ZM326.3859,123.2243h0c-2.3246,0-4.208,1.8839-4.208,4.2081,0,2.3255,1.8834,4.2072,4.208,4.2072,2.3259,0,4.2076-1.8817,4.2076-4.2072,0-2.3242-1.8816-4.2081-4.2076-4.2081ZM311.9282,123.2243h0c-2.3246,0-4.208,1.8839-4.208,4.2081,0,2.3255,1.8834,4.2072,4.208,4.2072s4.2076-1.8817,4.2076-4.2072c0-2.3242-1.8821-4.2081-4.2076-4.2081ZM297.2481,125.4158h0c-2.3234,0-4.2071,1.882-4.2071,4.2079,0,2.3233,1.8836,4.2072,4.2071,4.2072,2.3264,0,4.2081-1.8839,4.2081-4.2072,0-2.3259-1.8816-4.2079-4.2081-4.2079ZM282.129,132.6455h0c-2.3246,0-4.2081,1.8849-4.2081,4.2076,0,2.3254,1.8834,4.208,4.2081,4.208,2.3264,0,4.208-1.8826,4.208-4.208,0-2.3227-1.8816-4.2076-4.208-4.2076ZM270.9548,141.4114h0c-2.3251,0-4.208,1.8822-4.208,4.2081,0,2.3231,1.8829,4.208,4.208,4.208s4.2081-1.8849,4.2081-4.208c0-2.3259-1.8821-4.2081-4.2081-4.2081ZM259.7809,150.8328h0c-2.3244,0-4.208,1.8816-4.208,4.208,0,2.3231,1.8836,4.208,4.208,4.208s4.2071-1.8849,4.2071-4.208c0-2.3264-1.882-4.208-4.2071-4.208ZM252.5507,163.76h0c-2.3241,0-4.2076,1.8827-4.2076,4.2081,0,2.3231,1.8834,4.208,4.2076,4.208,2.3259,0,4.2076-1.8849,4.2076-4.208,0-2.3254-1.8816-4.2081-4.2076-4.2081ZM246.8541,176.4693h0c-2.3246,0-4.2081,1.8819-4.2081,4.2075,0,2.3237,1.8834,4.2081,4.2081,4.2081s4.208-1.8844,4.208-4.2081c0-2.3256-1.8826-4.2075-4.208-4.2075ZM244.2239,188.3009h0c-2.324,0-4.2076,1.8821-4.2076,4.208,0,2.3232,1.8836,4.2081,4.2076,4.2081,2.3259,0,4.208-1.8849,4.208-4.2081,0-2.3259-1.8821-4.208-4.208-4.208ZM400,107.0746h0c-2.3246,0-4.2081,1.8821-4.2081,4.208,0,2.3232,1.8834,4.2081,4.2081,4.2081s4.208-1.8849,4.208-4.2081c0-2.3259-1.8831-4.208-4.208-4.208ZM400,139.6256h0c-2.3246,0-4.2081,1.8816-4.2081,4.2075,0,2.3232,1.8834,4.2081,4.2081,4.2081s4.208-1.8849,4.208-4.2081c0-2.3259-1.8831-4.2075-4.208-4.2075ZM404.208,127.292c0,2.3262-1.8831,4.2079-4.208,4.2079s-4.2081-1.8817-4.2081-4.2079c0-2.3228,1.8834-4.2077,4.2081-4.2077s4.208,1.8849,4.208,4.2077Z" style="fill: #fff;"/>
</svg>