<?xml version="1.0" encoding="UTF-8"?>
<svg data-name="图层_1" xmlns="http://www.w3.org/2000/svg" version="1.1" viewBox="0 0 800 800">
  <!-- Created by @FCLOGO 2025-1-9 GMT+8 10:42:11 . https://fclogo.top/ -->
<!-- FOR PERSONAL USE ONLY NOT FOR COMMERCIAL USE -->
  <path d="M348.2194,774.301c-.786,0-1.3752-.2173-1.7682-.6519-.393-.4352-.5284-1.03-.406-1.7856l.2518-1.6478c.122-.755.4501-1.3504.9841-1.785.5339-.4352,1.1939-.6525,1.9799-.6525.7553,0,1.3293.1987,1.7223.5954.3927.3967.551.9381.4747,1.6248h-1.2358c.0304-.3589-.0553-.637-.2573-.8357-.2024-.1981-.4979-.2974-.8869-.2974-.4197,0-.763.1167-1.03.3489-.2673.2328-.4349.5631-.5035.9903l-.2632,1.659c-.0686.4352-.0056.7686.1887,1.0015.1946.2328.5017.3489.9214.3489.389,0,.7152-.0987.9785-.2974.2632-.1981.4365-.4805.5206-.8469h1.2358c-.1372.6867-.4672,1.2306-.9897,1.631-.5228.4005-1.1616.6004-1.9169.6004ZM352.7967,774.1868l.9956-6.2943h1.1902l-.1946,1.1902c.3359-.8698.9729-1.3044,1.9113-1.3044.6712,0,1.1691.208,1.4932.624.3244.416.4293.9859.3148,1.7105l-.0686.4234h-1.2703l.0571-.3204c.0689-.4501.0115-.7953-.1714-1.0356-.1832-.2403-.4771-.3607-.8813-.3607-.4045,0-.7401.1223-1.007.3663-.2673.2446-.4349.588-.5035,1.03l-.6296,3.9711h-1.2358ZM361.9058,774.301c-.7705,0-1.3463-.2229-1.7279-.6693s-.515-1.0356-.4005-1.7682l.2518-1.6478c.0838-.488.2573-.9152.5206-1.2815s.6007-.6507,1.0129-.8524c.4119-.2024.8732-.3036,1.3845-.3036.7705,0,1.3485.2235,1.7338.6693.3852.4464.5169,1.0356.3949,1.7682l-.1717,1.1213h-3.845l-.0916.5265c-.1527.9536.2173,1.4305,1.1098,1.4305.7171,0,1.175-.2477,1.3734-.7438h1.2247c-.1679.5339-.5035.9599-1.007,1.2759-.5038.3166-1.0912.475-1.7626.475ZM361.2306,770.2157l-.0456.2862,2.6548-.0118.0459-.2856c.0686-.4656.0133-.822-.1661-1.0704-.1791-.2477-.4861-.3719-.9211-.3719-.4427,0-.7953.126-1.0586.3775-.2632.2521-.4331.6109-.5094,1.076ZM368.3258,774.301c-.6333,0-1.1027-.2117-1.4078-.6351s-.3967-1.0008-.2744-1.7335l.2744-1.7738c.1145-.7326.393-1.3119.8357-1.7397.4424-.4272.98-.6407,1.6133-.6407.4653,0,.8298.1186,1.093.3545.2632.2365.3908.5575.3834.9617h.023l.1717-1.202h1.2358l-.9956,6.2943h-1.2247l.1946-1.2014h-.023c-.122.4116-.3511.7339-.6867.9667s-.7401.3489-1.2129.3489ZM368.9324,773.2257c.389,0,.7152-.1186.9782-.3551.2632-.2359.4293-.5718.4979-1.007l.2518-1.6478c.0686-.4272.0096-.7612-.1773-1.0015-.1872-.2403-.475-.3601-.8642-.3601-.3967,0-.7249.118-.9841.3545-.2595.2365-.4234.5724-.492,1.007l-.2518,1.6478c-.0686.4427-.0133.7804.1658,1.0133.1794.2328.4712.3489.8757.3489ZM376.3477,774.1868c-.5721,0-.9937-.1565-1.2644-.4694-.271-.3123-.3607-.7512-.2691-1.3156l.538-3.3874h-1.7394l.1714-1.1219h1.7397l.2747-1.7161h1.2358l-.2747,1.7161h2.472l-.1832,1.1219h-2.4605l-.5377,3.3874c-.0764.4421.099.6637.5262.6637h1.7167l-.1717,1.1213h-1.7738ZM382.5042,774.301c-.7705,0-1.3463-.2229-1.7279-.6693s-.515-1.0356-.4005-1.7682l.2518-1.6478c.0838-.488.2573-.9152.5206-1.2815s.6007-.6507,1.0129-.8524c.4119-.2024.8732-.3036,1.3845-.3036.7705,0,1.3485.2235,1.7338.6693.3852.4464.5169,1.0356.3949,1.7682l-.1717,1.1213h-3.845l-.0916.5265c-.1527.9536.2173,1.4305,1.1098,1.4305.7171,0,1.175-.2477,1.3734-.7438h1.2247c-.1679.5339-.5035.9599-1.007,1.2759-.5038.3166-1.0912.475-1.7626.475ZM381.829,770.2157l-.0456.2862,2.6548-.0118.0459-.2856c.0686-.4656.0133-.822-.1661-1.0704-.1791-.2477-.4861-.3719-.9211-.3719-.4427,0-.7953.126-1.0586.3775-.2632.2521-.4331.6109-.5094,1.076ZM388.9243,774.301c-.6333,0-1.1008-.2117-1.4019-.6351-.3014-.4234-.3949-1.0008-.2803-1.7335l.2744-1.7738c.1145-.7326.393-1.3119.8357-1.7397.4424-.4272.98-.6407,1.6133-.6407.4653,0,.8298.1186,1.093.3545.2632.2365.3908.5575.3834.9617h.023l.2058-1.4652.2977-1.7962h1.2358l-1.3274,8.3537h-1.2247l.1946-1.2014h-.023c-.122.4116-.3511.7339-.6867.9667s-.7401.3489-1.2129.3489ZM389.5309,773.2257c.389,0,.7152-.1186.9782-.3551.2632-.2359.4293-.5718.4979-1.007l.2518-1.6478c.0761-.4272.0189-.7612-.1717-1.0015-.1909-.2403-.4805-.3601-.8698-.3601-.3967,0-.7249.118-.9841.3545-.2595.2365-.4234.5724-.492,1.007l-.2518,1.6478c-.0764.4427-.023.7804.1602,1.0133s.4768.3489.8813.3489ZM401.0175,774.301c-.4731,0-.8394-.1161-1.0986-.3489-.2595-.2328-.3852-.5551-.3775-.9667h-.0115l-.1946,1.2014h-1.2243l1.3274-8.3537h1.2358l-.2862,1.7962-.2744,1.4652h.0456c.122-.4123.353-.7345.6923-.9673.3396-.2322.7419-.3489,1.2076-.3489.633,0,1.1002.2136,1.4016.6407.3014.4278.3949,1.007.2806,1.7397l-.2747,1.7738c-.1145.7326-.3949,1.31-.8413,1.7335-.4461.4234-.9822.6351-1.6077.6351ZM400.7657,773.2257c.3967,0,.7227-.1161.9785-.3489.2555-.2328.4216-.5706.4976-1.0133l.2518-1.6478c.0689-.4346.0115-.7705-.1714-1.007-.1832-.2365-.4734-.3545-.8698-.3545-.3893,0-.7152.1198-.9785.3601s-.429.5743-.4979,1.0015l-.2518,1.6478c-.0686.4352-.0112.7711.1717,1.007.1832.2365.4731.3551.8698.3551ZM405.4694,776.2468l.1717-1.0642h1.934c.6407,0,1.007-.3017,1.0986-.9046l.1028-.6749.2061-1.1902h-.0345c-.122.4197-.3471.7438-.6752.9729-.3281.2285-.7286.3433-1.2014.3433-.6258,0-1.093-.2005-1.4019-.601s-.4104-.9443-.3033-1.631l.5836-3.6047h1.2358l-.5606,3.4793c-.0612.4116,0,.732.1832.9611s.4653.3433.8469.3433c.389,0,.7168-.1217.9841-.3663.267-.244.4309-.5836.492-1.0182l.538-3.3992h1.2358l-1.007,6.4086c-.0993.6029-.37,1.0778-.8124,1.4249-.4427.3471-.9996.5209-1.6707.5209h-1.9455ZM417.787,770.0853h3.221l.5368-1.8545h-5.4659l-1.7081,6.4419h2.1473l.5856-2.0985h3.0257l.4392-1.7081h-3.0257l.244-.7808ZM424.229,772.9158c-.5856,0-1.0249-.3904-1.0249-1.1225,0-.8784.6344-1.7569,1.6105-1.7569.488,0,.8784.244,1.0248.7808l1.9521-.8296c-.2928-1.1713-1.2689-1.9033-2.6353-1.9033-2.7817,0-4.1482,2.1473-4.1482,3.9042s1.2689,2.8305,3.0746,2.8305c1.3665,0,2.3425-.5856,2.9769-1.4153l-1.5129-1.1713c-.3904.4392-.8296.6832-1.3177.6832ZM430.9149,768.2308h-2.1473l-1.7569,6.4419h5.1242l.488-1.8545h-2.9281l1.2201-4.5874ZM439.7481,771.0125c0-1.6593-1.3177-2.9281-3.221-2.9281-2.1961,0-3.8066,1.8057-3.8066,3.8066,0,1.6593,1.3177,2.9281,3.221,2.9281,2.1961,0,3.8066-1.8057,3.8066-3.8066ZM434.9167,771.6957c0-.8296.5856-1.7081,1.5129-1.7081.7808,0,1.1713.5368,1.1713,1.2201,0,.8296-.5856,1.7081-1.5129,1.7081-.7808,0-1.1713-.5368-1.1713-1.2201ZM443.2131,772.2326h1.0737l-.1952.6832c-.1464.0488-.3416.0976-.5856.0976-.6832,0-1.2689-.3904-1.2689-1.2201,0-1.0249.732-1.9033,1.9521-1.9033.5856,0,1.1225.244,1.5129.5856l1.3665-1.3665c-.4392-.5368-1.5129-1.0737-2.7329-1.0737-2.5865,0-4.2946,1.7569-4.2946,3.8554,0,2.0497,1.6105,2.8793,3.221,2.8793.9272,0,1.8545-.2928,2.4889-.6832l.9272-3.3186h-3.1234l-.3416,1.4641ZM450.7775,768.0844c-2.1961,0-3.8066,1.8057-3.8066,3.8066,0,1.6593,1.3177,2.9281,3.221,2.9281,2.1961,0,3.8066-1.8057,3.8066-3.8066,0-1.6593-1.3177-2.9281-3.221-2.9281ZM450.3382,772.9158c-.7808,0-1.1713-.5368-1.1713-1.2201,0-.8296.5856-1.7081,1.5129-1.7081.7808,0,1.1713.5368,1.1713,1.2201,0,.8296-.5856,1.7081-1.5129,1.7081ZM437.9424,767.4987c-.0488.2928.0976.488.4392.488s.5368-.1952.6344-.488c.0488-.244-.0976-.488-.4392-.488s-.5856.244-.6344.488ZM432.1349,765.4978c-.4392,0-.732.244-.7808.5856s.0976.5856.5368.5856.732-.244.7808-.5856c.0976-.3416-.0976-.5856-.5368-.5856ZM433.0134,767.3035c-.0976.5368.1464.8784.8296.8784.6344,0,1.0737-.3904,1.1713-.8784s-.1464-.8784-.8296-.8784c-.6832,0-1.0737.3904-1.1713.8784ZM439.6017,777.552l-2.4401-1.8057h-1.5129l4.2458,3.1722,1.6105-3.1722h-.976l-.9272,1.8057ZM425.8394,767.1571l-2.0009-1.4641,23.1323-2.7817-2.1473,4.2458h1.0248l2.6841-5.3195-26.9877,3.221,2.7817,2.0985h1.5129ZM338.7186,785.7853l.6088-3.8315h2.32l-.084.5194h-1.7636l-.1837,1.1445h1.6272l-.084.5248h-1.6166l-.2573,1.6428h-.5668ZM342.97,785.8377c-.3568,0-.6228-.1005-.7978-.3019-.175-.201-.2345-.473-.1784-.8161l.2677-1.7006c.056-.3429.2029-.6148.4408-.8161.2379-.201.5355-.3019.8923-.3019s.6228.1.7979.2993c.1748.1993.2361.4707.1837.8136l-.2677,1.7057c-.0561.3431-.2039.6151-.4435.8161-.2398.2013-.5381.3019-.895.3019ZM343.0487,785.3339c.1925,0,.3483-.0524.4672-.1575.119-.1051.1942-.2571.2257-.4568l.2678-1.7006c.0315-.1993.0051-.3517-.0787-.4565-.084-.1051-.2223-.1575-.4148-.1575s-.3473.0524-.4645.1575c-.1173.1048-.1916.2571-.2231.4565l-.2677,1.7006c-.0315.1996-.0053.3517.0787.4568s.2204.1575.4094.1575ZM344.9961,785.7853l.6088-3.8315h1.202c.2379,0,.4391.0464.6036.139.1645.0928.2835.223.357.391s.091.3656.0524.5932c-.0384.2591-.14.4838-.3044.6746-.1645.1905-.3656.3209-.6036.391l.5354,1.6428h-.6194l-.4777-1.5748h-.5406l-.2466,1.5748h-.5668ZM345.8883,783.7068h.6352c.1889,0,.349-.0558.4803-.168.1313-.1119.2107-.2623.2388-.4514.0316-.1925,0-.3454-.0944-.4593-.0945-.1136-.2362-.1706-.4252-.1706h-.6352l-.1995,1.2493ZM349.545,785.7853l.6088-3.8315h1.2544c.3709,0,.6508.1048.8399.315.1889.2099.2553.4898.1993.8398-.0384.2344-.1216.4383-.2493.6114s-.2905.307-.4881.4015c-.1978.0945-.419.1418-.6639.1418h-.6928l-.2415,1.5221h-.5668ZM350.432,783.754h.6928c.1924,0,.3568-.0587.4934-.176.1364-.117.2204-.2737.2519-.4696s-.0017-.3525-.0997-.4699-.245-.1757-.441-.1757h-.6876l-.2099,1.2911ZM352.7466,785.7853l.6088-3.8315h2.2518l-.0787.5038h-1.6954l-.1731,1.0867h1.5115l-.0787.4986h-1.5115l-.1942,1.2387h1.6901l-.0787.5038h-2.2518ZM355.8434,785.7853l.6088-3.8315h1.202c.2379,0,.4391.0464.6036.139.1645.0928.2835.223.357.391s.091.3656.0524.5932c-.0384.2591-.14.4838-.3044.6746-.1645.1905-.3656.3209-.6036.391l.5354,1.6428h-.6194l-.4777-1.5748h-.5406l-.2466,1.5748h-.5668ZM356.7356,783.7068h.6352c.1889,0,.349-.0558.4803-.168.1313-.1119.2107-.2623.2388-.4514.0316-.1925,0-.3454-.0944-.4593-.0945-.1136-.2362-.1706-.4252-.1706h-.6352l-.1995,1.2493ZM360.1316,785.8377c-.385,0-.6736-.0951-.8661-.2859-.1924-.1908-.2641-.4505-.2151-.7794h.5668c-.028.1748.0105.3121.1155.4121.1051.0997.266.1495.483.1495.2029,0,.3701-.049.5012-.1469.1313-.098.2109-.2327.2389-.4044.0209-.1504.0007-.2788-.0604-.3856-.0614-.1068-.1583-.1811-.2913-.2233l-.4566-.1364c-.266-.0803-.4619-.217-.5879-.4095-.126-.1922-.1697-.4197-.1313-.6823.035-.2099.1121-.3935.2309-.551s.2729-.2799.4619-.3673.4024-.1313.6404-.1313c.3498,0,.6158.0954.7978.2859.182.1908.2485.4437.1995.7586h-.5668c.0279-.168-.0027-.3001-.092-.3964-.0891-.0963-.2301-.1444-.4225-.1444-.1889,0-.343.0447-.4619.1338-.119.0894-.1889.2144-.21.3753-.0245.1506-.007.2791.0525.3859s.1575.1811.2939.223l.4672.1469c.2624.0806.4558.2173.5801.4095.1242.1925.1653.4217.1233.6877-.035.217-.1155.4058-.2415.5667-.1259.1612-.2878.2862-.4855.3753-.1976.0894-.419.1338-.6639.1338ZM363.2651,785.8377c-.3568,0-.6228-.1005-.7978-.3019-.175-.201-.2345-.473-.1784-.8161l.2677-1.7006c.056-.3429.2029-.6148.4408-.8161.2379-.201.5355-.3019.8923-.3019s.6228.1.7979.2993c.1748.1993.2361.4707.1837.8136l-.2677,1.7057c-.0561.3431-.2039.6151-.4435.8161-.2398.2013-.5381.3019-.895.3019ZM363.3439,785.3339c.1925,0,.3483-.0524.4672-.1575.119-.1051.1942-.2571.2257-.4568l.2678-1.7006c.0315-.1993.0051-.3517-.0787-.4565-.084-.1051-.2223-.1575-.4148-.1575s-.3473.0524-.4645.1575c-.1173.1048-.1916.2571-.2231.4565l-.2677,1.7006c-.0315.1996-.0053.3517.0787.4568s.2204.1575.4094.1575ZM365.2754,785.7853l.6088-3.8315h.7086l.6194,3.186c.007-.098.0165-.217.0289-.3571.0121-.1398.0271-.2851.0446-.4354.0175-.1506.0367-.2888.0577-.4146l.315-1.9788h.525l-.609,3.8315h-.7085l-.6141-3.186c-.0071.0945-.0167.209-.0289.3437s-.0272.2757-.0446.4226c-.0177.1469-.0367.2833-.0578.4095l-.315,2.0102h-.5301ZM368.2252,785.7853l1.5851-3.8315h.7454l.3726,3.8315h-.5616l-.0735-.9711h-1.0865l-.3884.9711h-.5932ZM369.3852,784.3418h.8714l-.0893-1.1023c-.0175-.1959-.0298-.3654-.0367-.5089-.0071-.1435-.0105-.2432-.0105-.2993-.0175.0561-.0517.1558-.1024.2993s-.1146.3112-.1915.5038l-.441,1.1075ZM371.7208,785.7853l.6088-3.8315h.567l-.525,3.3118h1.6744l-.0787.5197h-2.2465ZM376.6785,785.8377c-.3673,0-.6342-.1005-.8003-.3019-.1663-.201-.2214-.475-.1654-.8213l.4357-2.7608h.567l-.4357,2.7554c-.0315.1962-.008.35.0708.4619.0787.1122.2144.168.4068.168.1925,0,.3473-.0558.4646-.168.1172-.1119.1915-.2657.2231-.4619l.4355-2.7554h.567l-.4357,2.7608c-.056.35-.2003.6245-.433.8241-.2328.1993-.5328.299-.9003.299ZM379.8435,785.8377c-.385,0-.6736-.0951-.8661-.2859-.1924-.1908-.2641-.4505-.2151-.7794h.5668c-.028.1748.0105.3121.1155.4121.1051.0997.266.1495.483.1495.2029,0,.3701-.049.5012-.1469.1313-.098.2109-.2327.2389-.4044.0209-.1504.0007-.2788-.0604-.3856-.0614-.1068-.1583-.1811-.2913-.2233l-.4566-.1364c-.266-.0803-.4619-.217-.5879-.4095-.126-.1922-.1697-.4197-.1313-.6823.035-.2099.1121-.3935.2309-.551s.2729-.2799.4619-.3673.4024-.1313.6404-.1313c.3498,0,.6158.0954.7978.2859.182.1908.2485.4437.1995.7586h-.5668c.0279-.168-.0027-.3001-.092-.3964-.0891-.0963-.2301-.1444-.4225-.1444-.1889,0-.343.0447-.4619.1338-.119.0894-.1889.2144-.21.3753-.0245.1506-.007.2791.0525.3859s.1575.1811.2939.223l.4672.1469c.2624.0806.4558.2173.5801.4095.1242.1925.1653.4217.1233.6877-.035.217-.1155.4058-.2415.5667-.1259.1612-.2878.2862-.4855.3753-.1976.0894-.419.1338-.6639.1338ZM381.9062,785.7853l.6088-3.8315h2.2518l-.0787.5038h-1.6954l-.1731,1.0867h1.5115l-.0787.4986h-1.5115l-.1942,1.2387h1.6901l-.0787.5038h-2.2518ZM386.9426,785.8377c-.3568,0-.6228-.1005-.7978-.3019-.175-.201-.2345-.473-.1784-.8161l.2677-1.7006c.056-.3429.2029-.6148.4408-.8161.2379-.201.5355-.3019.8923-.3019s.6228.1.7979.2993c.1748.1993.2361.4707.1837.8136l-.2677,1.7057c-.0561.3431-.2039.6151-.4435.8161-.2398.2013-.5381.3019-.895.3019ZM387.0213,785.3339c.1925,0,.3483-.0524.4672-.1575.119-.1051.1942-.2571.2257-.4568l.2678-1.7006c.0315-.1993.0051-.3517-.0787-.4565-.084-.1051-.2223-.1575-.4148-.1575s-.3473.0524-.4645.1575c-.1173.1048-.1916.2571-.2231.4565l-.2677,1.7006c-.0315.1996-.0053.3517.0787.4568s.2204.1575.4094.1575ZM388.9529,785.7853l.6088-3.8315h.7086l.6194,3.186c.007-.098.0165-.217.0289-.3571.0121-.1398.0271-.2851.0446-.4354.0175-.1506.0367-.2888.0577-.4146l.315-1.9788h.525l-.609,3.8315h-.7085l-.6141-3.186c-.0071.0945-.0167.209-.0289.3437s-.0272.2757-.0446.4226c-.0177.1469-.0367.2833-.0578.4095l-.315,2.0102h-.5301ZM392.249,785.7853l.6088-3.8315h.567l-.525,3.3118h1.6744l-.0787.5197h-2.2465ZM396.1174,785.7853l.2204-1.4119-.7506-2.4197h.5774l.4462,1.4486c.0279.0945.0498.1837.0656.2677.0157.084.0253.1469.0288.1888.0175-.0419.0464-.1048.0867-.1888.0402-.084.0883-.1731.1442-.2677l.8976-1.4486h.5984l-1.5275,2.4197-.2204,1.4119h-.5668ZM399.217,785.7853l.6088-3.8315h.7086l.6192,3.186c.0071-.098.0165-.217.029-.3571.012-.1398.0271-.2851.0444-.4354.0177-.1506.037-.2888.0578-.4146l.315-1.9788h.5248l-.6088,3.8315h-.7085l-.6141-3.186c-.0071.0945-.0167.209-.0289.3437s-.0272.2757-.0446.4226c-.0177.1469-.0367.2833-.0578.4095l-.315,2.0102h-.5301ZM403.5053,785.8377c-.3571,0-.6231-.1005-.7979-.3019-.1751-.201-.2344-.473-.1785-.8161l.2677-1.7006c.0561-.3429.203-.6148.4411-.8161.2378-.201.5354-.3019.8922-.3019.3571,0,.6228.1.7979.2993.1748.1993.2361.4707.1837.8136l-.2677,1.7057c-.0561.3431-.2039.6151-.4437.8161-.2395.2013-.5379.3019-.8947.3019ZM403.5839,785.3339c.1925,0,.3483-.0524.4673-.1575.1187-.1051.1942-.2571.2255-.4568l.2677-1.7006c.0316-.1993.0054-.3517-.0786-.4565-.084-.1051-.2224-.1575-.4146-.1575-.1925,0-.3474.0524-.4647.1575-.117.1048-.1914.2571-.223.4565l-.2677,1.7006c-.0316.1996-.0051.3517.0789.4568.0837.1051.2204.1575.4092.1575ZM406.3814,785.7853l.5248-3.3121h-1.0234l.084-.5194h2.6193l-.084.5194h-1.0289l-.5248,3.3121h-.567ZM409.5178,785.7853l.6088-3.8315h2.32l-.084.5194h-1.7636l-.1837,1.1445h1.6272l-.084.5248h-1.6166l-.2571,1.6428h-.567ZM413.7694,785.8377c-.3571,0-.6231-.1005-.7979-.3019-.1751-.201-.2344-.473-.1785-.8161l.2677-1.7006c.0561-.3429.203-.6148.4411-.8161.2378-.201.5354-.3019.8922-.3019.3571,0,.6228.1.7979.2993.1748.1993.2361.4707.1837.8136l-.2677,1.7057c-.0561.3431-.2039.6151-.4437.8161-.2395.2013-.5379.3019-.8947.3019ZM413.848,785.3339c.1925,0,.3483-.0524.4673-.1575.1187-.1051.1942-.2571.2255-.4568l.2677-1.7006c.0316-.1993.0054-.3517-.0786-.4565-.084-.1051-.2224-.1575-.4146-.1575-.1925,0-.3474.0524-.4647.1575-.117.1048-.1914.2571-.223.4565l-.2677,1.7006c-.0316.1996-.0051.3517.0789.4568.0837.1051.2204.1575.4092.1575ZM415.7952,785.7853l.6088-3.8315h1.202c.2381,0,.4391.0464.6037.139.1643.0928.2833.223.3568.391s.0911.3656.0527.5932c-.0387.2591-.1401.4838-.3044.6746-.1646.1905-.3659.3209-.6037.391l.5354,1.6428h-.6194l-.4776-1.5748h-.5408l-.2466,1.5748h-.567ZM416.6876,783.7068h.635c.1891,0,.3491-.0558.4804-.168.131-.1119.2107-.2623.2386-.4514.0316-.1925,0-.3454-.0945-.4593-.0943-.1136-.2361-.1706-.4252-.1706h-.635l-.1993,1.2493ZM420.905,785.8377c-.3602,0-.6308-.1005-.8107-.3019-.1803-.201-.2423-.473-.1865-.8161l.2677-1.7006c.0561-.3463.2056-.6194.4488-.8187s.545-.2993.9056-.2993c.3568,0,.6253.1008.8056.3019.1803.2013.2423.4733.1865.8161h-.567c.0313-.1993.0026-.3517-.0866-.4565-.0894-.1051-.2284-.1575-.4175-.1575-.1925,0-.3508.0524-.475.1575-.1242.1048-.2019.2554-.2335.4514l-.2677,1.7057c-.0316.1996-.0026.3517.0866.4568.0894.1051.2301.1575.4226.1575s.35-.0524.4724-.1575.1993-.2571.2309-.4568h.5667c-.0347.2275-.1145.4252-.2386.5932s-.2808.2976-.4699.3884c-.1888.0908-.4024.1364-.6404.1364ZM424.0335,785.8377c-.3571,0-.6231-.1005-.7979-.3019-.1751-.201-.2344-.473-.1785-.8161l.2677-1.7006c.0561-.3429.203-.6148.4411-.8161.2378-.201.5354-.3019.8922-.3019.3571,0,.6228.1.7979.2993.1748.1993.2361.4707.1837.8136l-.2677,1.7057c-.0561.3431-.2039.6151-.4437.8161-.2395.2013-.5379.3019-.8947.3019ZM424.1121,785.3339c.1925,0,.3483-.0524.4673-.1575.1187-.1051.1942-.2571.2255-.4568l.2677-1.7006c.0316-.1993.0054-.3517-.0786-.4565-.084-.1051-.2224-.1575-.4146-.1575-.1925,0-.3474.0524-.4647.1575-.117.1048-.1914.2571-.223.4565l-.2677,1.7006c-.0316.1996-.0051.3517.0789.4568.0837.1051.2204.1575.4092.1575ZM425.9653,785.7853l.6088-3.8315h.6874l.1837,1.2282c.0211.119.0367.2301.0473.3332.0105.1034.0194.1828.0262.2389.0177-.0561.0473-.1364.0894-.2415.0419-.1051.0908-.217.1469-.336l.5667-1.2228h.7088l-.6088,3.8315h-.5354l.2045-1.2911c.0245-.168.0578-.3525.1-.5539.0419-.201.0874-.4041.1364-.6088s.0963-.3998.1418-.5852c.0453-.1854.0874-.3483.1259-.4881l-.8554,1.8632h-.5513l-.2833-1.8632c-.0037.1364-.0105.2947-.0211.475s-.0236.3719-.0393.5747c-.0157.203-.035.4069-.0578.6114-.0228.2047-.0481.3964-.076.5749l-.2047,1.2911h-.5405ZM429.1145,785.7853l.6088-3.8315h.6874l.1837,1.2282c.0211.119.0367.2301.0473.3332.0105.1034.0194.1828.0262.2389.0177-.0561.0473-.1364.0894-.2415.0419-.1051.0908-.217.1469-.336l.5667-1.2228h.7088l-.6088,3.8315h-.5354l.2045-1.2911c.0245-.168.0578-.3525.1-.5539.0419-.201.0874-.4041.1364-.6088s.0963-.3998.1418-.5852c.0453-.1854.0874-.3483.1259-.4881l-.8554,1.8632h-.5513l-.2833-1.8632c-.0037.1364-.0105.2947-.0211.475s-.0236.3719-.0393.5747c-.0157.203-.035.4069-.0578.6114-.0228.2047-.0481.3964-.076.5749l-.2047,1.2911h-.5405ZM432.4107,785.7853l.6088-3.8315h2.2516l-.0786.5038h-1.6955l-.1731,1.0867h1.5115l-.0786.4986h-1.5118l-.1942,1.2387h1.6901l-.0786.5038h-2.2516ZM435.5073,785.7853l.6088-3.8315h1.202c.2381,0,.4391.0464.6037.139.1643.0928.2833.223.3568.391s.0911.3656.0527.5932c-.0387.2591-.1401.4838-.3044.6746-.1646.1905-.3659.3209-.6037.391l.5354,1.6428h-.6194l-.4776-1.5748h-.5408l-.2466,1.5748h-.567ZM436.3997,783.7068h.635c.1891,0,.3491-.0558.4804-.168.131-.1119.2107-.2623.2386-.4514.0316-.1925,0-.3454-.0945-.4593-.0943-.1136-.2361-.1706-.4252-.1706h-.635l-.1993,1.2493ZM439.8007,785.8377c-.3602,0-.6308-.1005-.8107-.3019-.1803-.201-.2423-.473-.1865-.8161l.2677-1.7006c.0561-.3463.2056-.6194.4488-.8187s.545-.2993.9056-.2993c.3568,0,.6253.1008.8056.3019.1803.2013.2423.4733.1865.8161h-.567c.0313-.1993.0026-.3517-.0866-.4565-.0894-.1051-.2284-.1575-.4175-.1575-.1925,0-.3508.0524-.475.1575-.1242.1048-.2019.2554-.2335.4514l-.2677,1.7057c-.0316.1996-.0026.3517.0866.4568.0894.1051.2301.1575.4226.1575s.35-.0524.4724-.1575.1993-.2571.2309-.4568h.5667c-.0347.2275-.1145.4252-.2386.5932s-.2808.2976-.4699.3884c-.1888.0908-.4024.1364-.6404.1364ZM441.8792,785.7853l.0789-.5038h.7768l.4459-2.824h-.7766l.0837-.5038h2.1258l-.084.5038h-.7766l-.4462,2.824h.7768l-.0789.5038h-2.1258ZM444.7399,785.7853l1.585-3.8315h.7452l.3728,3.8315h-.5616l-.0735-.9711h-1.0867l-.3884.9711h-.5929ZM445.8998,784.3418h.8714l-.0894-1.1023c-.0174-.1959-.0296-.3654-.0367-.5089-.0068-.1435-.0103-.2432-.0103-.2993-.0177.0561-.0518.1558-.1025.2993s-.1148.3112-.1916.5038l-.4408,1.1075ZM448.2354,785.7853l.6088-3.8315h.567l-.5248,3.3118h1.6741l-.0786.5197h-2.2465ZM453.1932,785.8377c-.3676,0-.6345-.1005-.8005-.3019-.1663-.201-.2213-.475-.1654-.8213l.4357-2.7608h.567l-.4357,2.7554c-.0316.1962-.008.35.0709.4619.0786.1122.2141.168.4066.168s.3474-.0558.4645-.168c.1173-.1119.1916-.2657.2233-.4619l.4357-2.7554h.5667l-.4357,2.7608c-.0558.35-.2002.6245-.4328.8241-.2329.1993-.5328.299-.9001.299ZM456.3581,785.8377c-.385,0-.6738-.0951-.866-.2859-.1925-.1908-.2643-.4505-.2153-.7794h.567c-.0282.1748.0105.3121.1153.4121.1051.0997.266.1495.483.1495.2028,0,.3699-.049.5012-.1469s.2107-.2327.2389-.4044c.0211-.1504.0009-.2788-.0604-.3856s-.1583-.1811-.2913-.2233l-.4568-.1364c-.266-.0803-.4619-.217-.5878-.4095-.1259-.1922-.1697-.4197-.1313-.6823.035-.2099.1119-.3935.2309-.551s.2731-.2799.4619-.3673c.1891-.0874.4024-.1313.6404-.1313.3497,0,.6157.0954.7979.2859.1817.1908.2483.4437.1993.7586h-.567c.0279-.168-.0026-.3001-.0917-.3964-.0894-.0963-.2301-.1444-.4226-.1444-.1891,0-.3429.0447-.4619.1338-.119.0894-.1891.2144-.2099.3753-.0245.1506-.0071.2791.0524.3859s.1575.1811.2939.223l.4673.1469c.2623.0806.4556.2173.5798.4095.1242.1925.1654.4217.1236.6877-.035.217-.1156.4058-.2415.5667-.1262.1612-.2879.2862-.4855.3753-.1979.0894-.4192.1338-.6641.1338ZM458.4209,785.7853l.6088-3.8315h2.2516l-.0786.5038h-1.6955l-.1731,1.0867h1.5115l-.0786.4986h-1.5118l-.1942,1.2387h1.6901l-.0786.5038h-2.2516Z" style="fill: #ccc;"/>
  <g id="g841">
    <g id="g2656">
      <path id="path865" d="M546.201,50c2.4542,2.5195,140.4884,144.3924,141.7363,145.6735.0695,1.9927.2336,7.4355.2336,15.7946,0,19.5495-.9011,54.7226-5.9953,97.1468-7.2214,60.1539-24.5949,147.6122-66.3423,222.664h0c-47.152,84.7653-103.5748,139.8344-142.6052,171.1046-38.4128,30.7756-67.8808,45.125-73.2284,47.6165-5.3454-2.4915-34.813-16.8409-73.2263-47.6165-39.0304-31.2702-95.4547-86.3393-142.6056-171.1046-41.7489-75.0518-59.1209-162.5102-66.3438-222.664-5.0947-42.4252-5.9948-77.5989-5.9948-97.1484,0-8.3586.1625-13.8002.2346-15.793,1.2468-1.281,139.2841-143.1539,141.7346-145.6735,37.6772,21.2316,90.8043,33.4032,146.2013,33.4032s108.5225-12.1717,146.2013-33.4032" style="fill: #ee2d21;"/>
      <path id="path2618" d="M254.388,62.9676L121.4128,199.6387l-.0981,10.8699c0,44.1759,5.1285,197.5306,71.1198,316.1645,46.1829,83.0229,101.3489,137.025,139.4943,167.7092,30.4486,24.4929,55.0445,38.4153,66.9943,44.5359l1.0766.5517,1.0787-.5517c11.9502-6.1206,36.5472-20.043,66.9943-44.5359,38.1449-30.6842,93.3104-84.6863,139.4928-167.7092,65.9924-118.634,71.1199-271.9876,71.1199-316.1624l-.0987-10.8969-.6613-.6556-133.5244-137.2338-1.5479.7818c-38.8053,19.5827-89.5379,30.3663-142.8534,30.3663s-104.0481-10.7836-142.8517-30.3663l-1.5494-.7818-1.2105,1.2431Z" style="fill: #fff;"/>
      <path id="path2614" d="M119.1225,196.1008l374.4367,483.2201,55.4201-56.0035,46.2104-65.4989,30.6954-56.8213L294.4195,73.2287l-40.6023-15.3343L119.1225,196.1008Z" style="fill: #ee2d21;"/>
    </g>
    <g id="g2651">
      <g id="g2632">
        <path id="path2620" d="M355.4391,506.4066l-99.7306,27.416-25.8432-13.2483,15.6206-11.4944,9.8934,12.9873,101.649-21.2232-1.5892,5.5626Z" style="fill: #ff4000;"/>
        <path id="path2622" d="M558.0789,448.396l86.3596-23.5625-85.1676,31.1118-1.192-7.5493Z" style="fill: #ff4000;"/>
        <path id="path2624" d="M432.543,337.423c-8.0905.0504-15.9258,1.0475-22.588,2.909-19.3121,5.3964-52.0026,17.3607-78.8596,26.5676-30.395,10.4195-51.7145,11.9644-62.1354,11.7715-5.345-.0992-9.6266-.1659-12.6388.1874-1.5061.1767-2.6965.3464-3.8481,1.1644-.5758.409-1.1652,1.1411-1.3079,2.0217-.1427.8806.1326,1.6667.4825,2.269,1.0449,1.7958,3.1846,3.9365,7.6044,5.9117s11.1794,3.8794,21.8722,5.3813c20.1379,2.8281,65.6741,4.1188,100.9311-9.4746-1.2297,1.1321-2.7434,2.355-4.6655,3.6148-7.4209,4.8639-20.5259,10.1237-43.1024,11.1016-45.6545,1.9774-57.9243.4111-62.8612.1994-1.3454-.0576-2.4652-.0608-3.6487.6839-.5917.3723-1.1912,1.1028-1.3438,1.932s.0718,1.553.3649,2.1294c.5861,1.1527,1.5173,2.0408,2.8691,3.1203s3.1452,2.283,5.4671,3.6527c5.0163,2.9589,15.095,6.305,27.8477,8.8825s28.0527,4.2816,42.9848,3.4772c18.0577-.9727,33.6185-6.2881,43.7683-10.5054-2.5667,1.7923-5.6543,3.6911-9.7179,5.6345-14.5635,6.966-26.8744,7.9272-32.2959,8.3222-1.5489.1124-2.892.3823-4.0634,1.0368-.5857.3272-1.1581.7715-1.5651,1.4694s-.5388,1.6628-.325,2.4584c.4277,1.5911,1.5919,2.5095,3.1781,3.4673s3.7552,1.8979,6.7192,2.8691c6.1596,2.0187,16.7034,3.3415,28.7349,1.8184,9.1564-1.1592,19.1426-4.0381,28.4857-9.6102-.8651,1.0428-1.705,2.0784-2.8452,3.218-5.8649,5.8623-11.1883,9.0486-15.0214,11.4445-1.9166,1.1979-3.4732,2.1546-4.6556,3.4214-.5912.6334-1.1056,1.3921-1.3418,2.3188-.2363.9267-.1271,1.952.2253,2.8372.9503,2.3874,3.2705,3.262,6.0074,3.9278s6.1493.8957,9.8774.5423c6.3217-.5993,13.4974-3.0756,19.3281-8.1786.0538,1.0196.1733,1.9889-.0758,3.2798-.7292,3.7785-3.0462,8.2539-10.8524,11.4445-17.3536,7.0924-49.8136,10.9501-49.8136,10.9501-2.1827.2565-2.4751,3.3073-.3808,3.9737,0,0,5.6699,1.4461,14.9038,2.7415-1.3468,1.147-2.7983,2.3795-4.3126,4.0335-3.081,3.3653-7.6371,4.1338-13.2908,6.1928-2.8183,1.0259-5.1905,1.9127-6.6414,3.9916-.7254,1.0395-1.0195,2.5244-.6639,3.8361.3555,1.3117,1.1608,2.4475,2.3068,3.6307,1.3224,1.3648,2.9517,2.1202,4.7453,2.4464s3.7519.2215,5.7342-.1256c3.9648-.6943,8.3897-2.3152,13.2091-3.9936,9.6241-3.3509,13.9744-4.6351,34.6007-2.8631,20.7695,1.7848,41.3919,3.2365,56.788-.0359,15.6163-3.3191,29.0905-14.752,38.6542-20.2253,6.6353-3.7974,10.6544-5.2917,14.9038-5.9416,4.2495-.65,8.9242-.4223,16.5328-.5224,8.0084-.1045,15.4211-2.8424,20.6639-6.7949,5.2429-3.9525,8.5856-9.4153,7.0541-14.8121-.5811-2.0456-2.1138-3.5635-3.9577-4.7114s-4.0823-1.9691-6.5078-2.4983c-4.851-1.0584-10.4582-.982-15.0434.9331-8.5506,3.5728-17.4108,10.9295-27.8716,13.3606-10.614,2.4666-14.401-.1583-20.8633-3.9318v-.002l-7.9427-3.0322s16.5621-19.8472,24.274-27.6248c3.3069-3.3338,6.2598-6.0996,8.2185-8.8286.9794-1.3645,1.7367-2.7486,2.0257-4.2887.2889-1.5401-.0082-3.2288-.9052-4.6536h.0021c-2.0239-3.2156-5.6105-4.3996-8.9463-4.6456s-6.642.3494-9.02.9869c-4.5728,1.2906-5.4575,4.2553-2.7257-.8063,3.1788-5.9312,5.044-14.9089,3.8721-24.7864-1.5209-12.7994-11.6243-23.9686-28.2724-32.6568-10.6429-5.5546-24.835-8.0992-38.3192-8.0152h0Z" style="fill: #1b0cd1;"/>
        <g id="g2630">
          <path id="path2626" d="M562.5623,453.182c-1.5421-5.4281-14.7024-8.3155-22.76-4.95-8.0544,3.3655-17.1175,10.8901-28.1936,13.4642-11.0788,2.5746-15.9126-.3957-22.3549-4.1575-6.4459-3.7623-21.466-5.5443-30.1261-4.3567,0,0-4.1154,6.1274-8.5434,12.2764,0,0,8.056-19.2066,17.3196-32.4726,9.2646-13.2665,19.1327-22.9684,23.1615-27.5227,4.0267-4.5543,7.452-15.2467,6.0424-27.1274-1.4117-11.8802-10.8757-22.5727-27.1892-31.0863-16.3135-8.5141-42.248-9.7461-59.4133-4.95-19.1327,5.3463-51.8573,17.3146-78.7464,26.5326-30.6134,10.4944-52.1628,12.0778-62.8364,11.8802-10.6747-.1981-17.1196-.1976-15.5091,2.5746,1.6127,2.7717,6.8485,7.326,27.9953,10.2963,21.1468,2.9698,71.698,4.3557,106.9433-12.0788,0,0-8.257,19.4043-53.9754,21.3845-45.7179,1.9802-58.4051.3968-63.0374.1981-4.6323-.1981-4.2298,2.3765,4.8333,7.7227,9.0636,5.3463,40.2801,13.6617,69.6833,12.0778,29.4054-1.5839,54.3784-15.4444,54.3784-15.4444,0,0-4.4303,7.3259-19.3342,14.4538-14.904,7.1288-27.5917,8.1194-33.0295,8.5157-5.4378.3947-7.0484,3.5636,4.4313,7.3255,11.4798,3.7623,41.4876,5.3457,63.843-13.4647,0,0-2.0661,5.6856-8.6606,12.2769-12.0838,12.0783-22.1539,13.266-20.3408,17.8208,1.8126,4.5537,23.3619,6.3364,34.8417-7.1283,0,0,4.9701,13.9845-11.6807,20.7901-17.9252,7.326-50.3497,11.0887-50.3497,11.0887,0,0,6.2434,1.9797,19.1327,3.3661,0,0-4.0278,2.7732-7.6529,6.7325-3.6253,3.9599-8.6611,4.7519-14.0984,6.732-5.4384,1.9797-8.257,3.9599-4.2292,8.1184,4.0288,4.158,11.8832,1.1877,21.5499-2.1788,9.6676-3.3661,14.7019-4.7519,35.4462-2.9698,20.7449,1.7826,41.286,3.1679,56.1906,0,14.9024-3.1674,28.1782-14.3411,38.0638-19.9986,13.4933-7.7221,17.319-6.5339,32.4245-6.7325,15.1044-.1971,28.1969-10.4944,25.7808-19.0085l-.0002-.0003Z" style="fill: #fff;"/>
          <path id="path2628" d="M459.8586,451.4557s8.0647-17.0861,19.3424-29.7583c11.2787-12.6726,11.1115-14.8488,19.3164-16.0365,4.5415-.6574,12.5769-2.2018,15.7079,2.7727,2.6187,4.158-2.3991,8.5287-9.062,15.2457-7.8545,7.9214-25.4953,28.5684-25.4953,28.5684,0,0-10.5447-2.1783-19.8093-.792h0Z" style="fill: #e2e2e2;"/>
        </g>
      </g>
      <g id="g2610">
        <path id="path2600" d="M257.4388,353.2812l-99.7306,27.416-16.2906-15.496,11.1253-14.304,5.96,17.4826,100.5252-20.6613-1.5893,5.5626Z" style="fill: #ff4000;"/>
        <path id="path2602" d="M460.0786,295.2706l127.9412-35.3626-126.7492,42.912-1.192-7.5493Z" style="fill: #ff4000;"/>
        <path id="path2585" d="M334.5427,184.2976c-8.0905.0504-15.9258,1.0475-22.588,2.909-19.3121,5.3964-52.0026,17.3607-78.8596,26.5676-30.395,10.4195-51.7145,11.9644-62.1354,11.7715-5.345-.0992-9.6266-.1659-12.6388.1874-1.5061.1767-2.6965.3464-3.8481,1.1644-.5758.409-1.1652,1.1411-1.3079,2.0217-.1427.8806.1326,1.6667.4825,2.269,1.0449,1.7958,3.1846,3.9365,7.6044,5.9117s11.1794,3.8794,21.8722,5.3813c20.1379,2.8281,65.6741,4.1188,100.9311-9.4746-1.2297,1.1321-2.7434,2.355-4.6655,3.6148-7.4209,4.8639-20.5259,10.1237-43.1024,11.1016-45.6545,1.9774-57.9243.4111-62.8612.1994-1.3454-.0576-2.4652-.0608-3.6487.6839-.5917.3723-1.1912,1.1028-1.3438,1.932s.0718,1.553.3649,2.1294c.5861,1.1527,1.5173,2.0408,2.8691,3.1203s3.1452,2.283,5.4671,3.6527c5.0163,2.9589,15.095,6.305,27.8477,8.8825s28.0527,4.2816,42.9848,3.4772c18.0577-.9727,33.6185-6.2881,43.7683-10.5054-2.5667,1.7923-5.6543,3.6911-9.7179,5.6345-14.5635,6.966-26.8744,7.9272-32.2959,8.3222-1.5489.1124-2.892.3823-4.0634,1.0368-.5857.3272-1.1581.7715-1.5651,1.4694s-.5388,1.6628-.325,2.4584c.4277,1.5911,1.5919,2.5095,3.1781,3.4673s3.7552,1.8979,6.7192,2.8691c6.1596,2.0187,16.7034,3.3415,28.7349,1.8184,9.1564-1.1592,19.1426-4.0381,28.4857-9.6102-.8651,1.0428-1.705,2.0784-2.8452,3.218-5.8649,5.8623-11.1883,9.0486-15.0214,11.4445-1.9166,1.1979-3.4732,2.1546-4.6556,3.4214-.5912.6334-1.1056,1.3921-1.3418,2.3188-.2363.9267-.1271,1.952.2253,2.8372.9503,2.3874,3.2705,3.262,6.0074,3.9278s6.1493.8957,9.8774.5423c6.3217-.5993,13.4974-3.0756,19.3281-8.1786.0538,1.0196.1733,1.9889-.0758,3.2798-.7292,3.7785-3.0462,8.2539-10.8524,11.4445-17.3536,7.0924-49.8136,10.9501-49.8136,10.9501-2.1827.2565-2.4751,3.3073-.3808,3.9737,0,0,5.6699,1.4461,14.9038,2.7415-1.3468,1.147-2.7983,2.3795-4.3126,4.0335-3.081,3.3653-7.6371,4.1338-13.2908,6.1928-2.8183,1.0259-5.1905,1.9127-6.6414,3.9916-.7254,1.0395-1.0195,2.5244-.6639,3.8361.3555,1.3117,1.1608,2.4475,2.3068,3.6307,1.3224,1.3648,2.9517,2.1202,4.7453,2.4464s3.7519.2215,5.7342-.1256c3.9648-.6943,8.3897-2.3152,13.2091-3.9936,9.6241-3.3509,13.9744-4.6351,34.6007-2.8631,20.7695,1.7848,41.3919,3.2365,56.788-.0359,15.6163-3.3191,29.0905-14.752,38.6542-20.2253,6.6353-3.7974,10.6544-5.2917,14.9038-5.9416,4.2495-.65,8.9242-.4223,16.5328-.5224,8.0084-.1045,15.4211-2.8424,20.6639-6.7949,5.2429-3.9525,8.5856-9.4153,7.0541-14.8121-.5811-2.0456-2.1138-3.5635-3.9577-4.7114s-4.0823-1.9691-6.5078-2.4983c-4.851-1.0584-10.4582-.982-15.0434.9331-8.5506,3.5728-17.4108,10.9295-27.8716,13.3606-10.614,2.4666-14.401-.1583-20.8633-3.9318v-.002l-7.9427-3.0322s16.5621-19.8472,24.274-27.6248c3.3069-3.3338,6.2598-6.0996,8.2185-8.8286.9794-1.3645,1.7367-2.7486,2.0257-4.2887.2889-1.5401-.0082-3.2288-.9052-4.6536h.0021c-2.0239-3.2156-5.6105-4.3996-8.9463-4.6456s-6.642.3494-9.02.9869c-4.5728,1.2906-5.4575,4.2553-2.7257-.8063,3.1788-5.9312,5.044-14.9089,3.8721-24.7864-1.5209-12.7994-11.6243-23.9686-28.2724-32.6568-10.6429-5.5546-24.835-8.0992-38.3192-8.0152h0Z" style="fill: #1b0cd1;"/>
        <g id="g2573">
          <path id="path845" d="M464.5621,300.0567c-1.5421-5.4281-14.7024-8.3155-22.76-4.95-8.0544,3.3655-17.1175,10.8901-28.1936,13.4642-11.0788,2.5746-15.9126-.3957-22.3549-4.1575-6.4459-3.7623-21.466-5.5443-30.1261-4.3567,0,0-4.1154,6.1274-8.5434,12.2764,0,0,8.056-19.2066,17.3196-32.4726,9.2646-13.2665,19.1327-22.9684,23.1615-27.5227,4.0267-4.5543,7.452-15.2467,6.0424-27.1274-1.4117-11.8802-10.8757-22.5727-27.1892-31.0863-16.3135-8.5141-42.248-9.7461-59.4133-4.95-19.1327,5.3463-51.8573,17.3146-78.7464,26.5326-30.6134,10.4944-52.1628,12.0778-62.8364,11.8802-10.6747-.1981-17.1196-.1976-15.5091,2.5746,1.6127,2.7717,6.8485,7.326,27.9953,10.2963,21.1468,2.9698,71.698,4.3557,106.9433-12.0788,0,0-8.257,19.4043-53.9754,21.3845-45.7179,1.9802-58.4051.3968-63.0374.1981-4.6323-.1981-4.2298,2.3765,4.8333,7.7227,9.0636,5.3463,40.2801,13.6617,69.6833,12.0778,29.4054-1.5839,54.3784-15.4444,54.3784-15.4444,0,0-4.4303,7.3259-19.3342,14.4538-14.904,7.1288-27.5917,8.1194-33.0295,8.5157-5.4378.3947-7.0484,3.5636,4.4313,7.3255,11.4798,3.7623,41.4876,5.3457,63.843-13.4647,0,0-2.0661,5.6856-8.6606,12.2769-12.0838,12.0783-22.1539,13.266-20.3408,17.8208,1.8126,4.5537,23.3619,6.3364,34.8417-7.1283,0,0,4.9701,13.9845-11.6807,20.7901-17.9252,7.326-50.3497,11.0887-50.3497,11.0887,0,0,6.2434,1.9797,19.1327,3.3661,0,0-4.0278,2.7732-7.6529,6.7325-3.6253,3.9599-8.6611,4.7519-14.0984,6.732-5.4384,1.9797-8.257,3.9599-4.2292,8.1184,4.0288,4.158,11.8832,1.1877,21.5499-2.1788,9.6676-3.3661,14.7019-4.7519,35.4462-2.9698,20.7449,1.7826,41.286,3.1679,56.1906,0,14.9024-3.1674,28.1782-14.3411,38.0638-19.9986,13.4933-7.7221,17.319-6.5339,32.4245-6.7325,15.1044-.1971,28.1969-10.4944,25.7808-19.0085l-.0002-.0003Z" style="fill: #fff;"/>
          <path id="path847" d="M361.8583,298.3303s8.0647-17.0861,19.3424-29.7583c11.2787-12.6726,11.1115-14.8488,19.3164-16.0365,4.5415-.6574,12.5769-2.2018,15.7079,2.7727,2.6187,4.158-2.3991,8.5287-9.062,15.2457-7.8545,7.9214-25.4953,28.5684-25.4953,28.5684,0,0-10.5447-2.1783-19.8093-.792h0Z" style="fill: #e2e2e2;"/>
        </g>
      </g>
    </g>
    <g id="g2551">
      <path id="path2373" d="M244.2318,176.1328v-65.3126h28.2891c7.2036,0,13.2154,1.0564,17.2408,4.522,9.5633,6.7718,7.3061,21.311-6.4381,31.2622l16.903,29.5287h-11.6171l-13.9891-24.0469-21.8365,10.1534v13.8932h-8.5522ZM252.784,149.1788c14.1042-.3743,41.1603-16.9638,32.5396-25.5168-2.6974-2.2859-8.7147-3.5675-13.7701-3.5675h-18.7695v29.0843Z" style="fill: #1b0cd1;"/>
      <path id="path2478" d="M337.9689,161.1461c-3.372,0-6.1241,2.7543-6.1241,6.1268s2.7521,6.1233,6.1241,6.1233,6.1259-2.7513,6.1259-6.1233-2.7545-6.1268-6.1259-6.1268Z" style="fill: #1b0cd1;"/>
      <path id="path2476" d="M526.0756,108.9979c-6.7776,0-12.5744,1.8582-16.6915,5.0953s-6.535,7.8631-6.535,13.259c0,5.2206,1.4478,9.1317,5.0922,12.1238,3.6445,2.9921,9.3803,4.5663,17.9776,6.4751,6.1926,1.3963,10.8225,2.8007,13.8322,4.7284,3.0097,1.9277,4.4483,4.2946,4.4483,7.9531,0,3.3353-1.4481,5.6102-4.0584,7.515-2.6103,1.9047-6.4168,3.0108-11.1033,3.0108-7.2789,0-13.1786-1.7529-20.0595-5.2482l-7.7594-3.9415v10.167c7.9102,5.9662,17.3593,6.9638,27.4986,6.9638,7.4384,0,13.5292-1.7852,17.7775-5.069,4.2483-3.2837,6.6133-8.0706,6.6133-13.8859,0-4.9407-1.5515-8.8034-5.1323-11.8079s-9.1118-5.1681-17.0866-7.0021h-.0013c-6.7537-1.5245-11.6024-2.9597-14.6815-4.8929s-4.4483-4.2752-4.4483-7.9893c0-3.0724,1.4122-5.6403,3.8792-7.4859s6.008-2.9483,10.2262-2.9483c10.5576.7847,15.7523,3.6745,24.8983,7.6455v-10.2216c-7.3352-3.2964-15.6801-4.4441-24.686-4.4441h-.0003Z" style="fill: #1b0cd1;"/>
      <path id="path2377" d="M401.8079,111.0499c-18.3922,0-32.3226,14.277-32.3226,33.1218s13.723,33.1218,31.8523,33.1218c8.6737,0,16.288-.3511,22.6109-5.7271v-9.5093c-4.628,3.6424-15.4226,8.0596-22.2341,8.0596-13.2847,0-23.6911-11.3575-23.6911-25.9451,0-14.8456,10.1696-25.9451,23.6911-25.9451,8.95,0,17.991,5.7778,22.2341,8.3992v-9.3046c-5.536-3.9621-16.5559-6.2334-22.1407-6.2714h0Z" style="fill: #1b0cd1;"/>
      <path id="path2544" d="M464.3483,161.1461c-3.372,0-6.1241,2.7543-6.1241,6.1268s2.7521,6.1233,6.1241,6.1233,6.1259-2.7513,6.1259-6.1233-2.7545-6.1268-6.1259-6.1268Z" style="fill: #1b0cd1;"/>
    </g>
  </g>
</svg>