<?xml version="1.0" encoding="UTF-8"?>
<svg data-name="图层_1" xmlns="http://www.w3.org/2000/svg" version="1.1" viewBox="0 0 800 800">
  <!-- Created by @FCLOGO 2025-1-9 GMT+8 10:42:11 . https://fclogo.top/ -->
<!-- FOR PERSONAL USE ONLY NOT FOR COMMERCIAL USE -->
  <path d="M348.2194,774.301c-.786,0-1.3752-.2173-1.7682-.6519-.393-.4352-.5284-1.03-.406-1.7856l.2518-1.6478c.122-.755.4501-1.3504.9841-1.785.5339-.4352,1.1939-.6525,1.9799-.6525.7553,0,1.3293.1987,1.7223.5954.3927.3967.551.9381.4747,1.6248h-1.2358c.0304-.3589-.0553-.637-.2573-.8357-.2024-.1981-.4979-.2974-.8869-.2974-.4197,0-.763.1167-1.03.3489-.2673.2328-.4349.5631-.5035.9903l-.2632,1.659c-.0686.4352-.0056.7686.1887,1.0015.1946.2328.5017.3489.9214.3489.389,0,.7152-.0987.9785-.2974.2632-.1981.4365-.4805.5206-.8469h1.2358c-.1372.6867-.4672,1.2306-.9897,1.631-.5228.4005-1.1616.6004-1.9169.6004ZM352.7967,774.1868l.9956-6.2943h1.1902l-.1946,1.1902c.3359-.8698.9729-1.3044,1.9113-1.3044.6712,0,1.1691.208,1.4932.624.3244.416.4293.9859.3148,1.7105l-.0686.4234h-1.2703l.0571-.3204c.0689-.4501.0115-.7953-.1714-1.0356-.1832-.2403-.4771-.3607-.8813-.3607-.4045,0-.7401.1223-1.007.3663-.2673.2446-.4349.588-.5035,1.03l-.6296,3.9711h-1.2358ZM361.9058,774.301c-.7705,0-1.3463-.2229-1.7279-.6693s-.515-1.0356-.4005-1.7682l.2518-1.6478c.0838-.488.2573-.9152.5206-1.2815s.6007-.6507,1.0129-.8524c.4119-.2024.8732-.3036,1.3845-.3036.7705,0,1.3485.2235,1.7338.6693.3852.4464.5169,1.0356.3949,1.7682l-.1717,1.1213h-3.845l-.0916.5265c-.1527.9536.2173,1.4305,1.1098,1.4305.7171,0,1.175-.2477,1.3734-.7438h1.2247c-.1679.5339-.5035.9599-1.007,1.2759-.5038.3166-1.0912.475-1.7626.475ZM361.2306,770.2157l-.0456.2862,2.6548-.0118.0459-.2856c.0686-.4656.0133-.822-.1661-1.0704-.1791-.2477-.4861-.3719-.9211-.3719-.4427,0-.7953.126-1.0586.3775-.2632.2521-.4331.6109-.5094,1.076ZM368.3258,774.301c-.6333,0-1.1027-.2117-1.4078-.6351s-.3967-1.0008-.2744-1.7335l.2744-1.7738c.1145-.7326.393-1.3119.8357-1.7397.4424-.4272.98-.6407,1.6133-.6407.4653,0,.8298.1186,1.093.3545.2632.2365.3908.5575.3834.9617h.023l.1717-1.202h1.2358l-.9956,6.2943h-1.2247l.1946-1.2014h-.023c-.122.4116-.3511.7339-.6867.9667s-.7401.3489-1.2129.3489ZM368.9324,773.2257c.389,0,.7152-.1186.9782-.3551.2632-.2359.4293-.5718.4979-1.007l.2518-1.6478c.0686-.4272.0096-.7612-.1773-1.0015-.1872-.2403-.475-.3601-.8642-.3601-.3967,0-.7249.118-.9841.3545-.2595.2365-.4234.5724-.492,1.007l-.2518,1.6478c-.0686.4427-.0133.7804.1658,1.0133.1794.2328.4712.3489.8757.3489ZM376.3477,774.1868c-.5721,0-.9937-.1565-1.2644-.4694-.271-.3123-.3607-.7512-.2691-1.3156l.538-3.3874h-1.7394l.1714-1.1219h1.7397l.2747-1.7161h1.2358l-.2747,1.7161h2.472l-.1832,1.1219h-2.4605l-.5377,3.3874c-.0764.4421.099.6637.5262.6637h1.7167l-.1717,1.1213h-1.7738ZM382.5042,774.301c-.7705,0-1.3463-.2229-1.7279-.6693s-.515-1.0356-.4005-1.7682l.2518-1.6478c.0838-.488.2573-.9152.5206-1.2815s.6007-.6507,1.0129-.8524c.4119-.2024.8732-.3036,1.3845-.3036.7705,0,1.3485.2235,1.7338.6693.3852.4464.5169,1.0356.3949,1.7682l-.1717,1.1213h-3.845l-.0916.5265c-.1527.9536.2173,1.4305,1.1098,1.4305.7171,0,1.175-.2477,1.3734-.7438h1.2247c-.1679.5339-.5035.9599-1.007,1.2759-.5038.3166-1.0912.475-1.7626.475ZM381.829,770.2157l-.0456.2862,2.6548-.0118.0459-.2856c.0686-.4656.0133-.822-.1661-1.0704-.1791-.2477-.4861-.3719-.9211-.3719-.4427,0-.7953.126-1.0586.3775-.2632.2521-.4331.6109-.5094,1.076ZM388.9243,774.301c-.6333,0-1.1008-.2117-1.4019-.6351-.3014-.4234-.3949-1.0008-.2803-1.7335l.2744-1.7738c.1145-.7326.393-1.3119.8357-1.7397.4424-.4272.98-.6407,1.6133-.6407.4653,0,.8298.1186,1.093.3545.2632.2365.3908.5575.3834.9617h.023l.2058-1.4652.2977-1.7962h1.2358l-1.3274,8.3537h-1.2247l.1946-1.2014h-.023c-.122.4116-.3511.7339-.6867.9667s-.7401.3489-1.2129.3489ZM389.5309,773.2257c.389,0,.7152-.1186.9782-.3551.2632-.2359.4293-.5718.4979-1.007l.2518-1.6478c.0761-.4272.0189-.7612-.1717-1.0015-.1909-.2403-.4805-.3601-.8698-.3601-.3967,0-.7249.118-.9841.3545-.2595.2365-.4234.5724-.492,1.007l-.2518,1.6478c-.0764.4427-.023.7804.1602,1.0133s.4768.3489.8813.3489ZM401.0175,774.301c-.4731,0-.8394-.1161-1.0986-.3489-.2595-.2328-.3852-.5551-.3775-.9667h-.0115l-.1946,1.2014h-1.2243l1.3274-8.3537h1.2358l-.2862,1.7962-.2744,1.4652h.0456c.122-.4123.353-.7345.6923-.9673.3396-.2322.7419-.3489,1.2076-.3489.633,0,1.1002.2136,1.4016.6407.3014.4278.3949,1.007.2806,1.7397l-.2747,1.7738c-.1145.7326-.3949,1.31-.8413,1.7335-.4461.4234-.9822.6351-1.6077.6351ZM400.7657,773.2257c.3967,0,.7227-.1161.9785-.3489.2555-.2328.4216-.5706.4976-1.0133l.2518-1.6478c.0689-.4346.0115-.7705-.1714-1.007-.1832-.2365-.4734-.3545-.8698-.3545-.3893,0-.7152.1198-.9785.3601s-.429.5743-.4979,1.0015l-.2518,1.6478c-.0686.4352-.0112.7711.1717,1.007.1832.2365.4731.3551.8698.3551ZM405.4694,776.2468l.1717-1.0642h1.934c.6407,0,1.007-.3017,1.0986-.9046l.1028-.6749.2061-1.1902h-.0345c-.122.4197-.3471.7438-.6752.9729-.3281.2285-.7286.3433-1.2014.3433-.6258,0-1.093-.2005-1.4019-.601s-.4104-.9443-.3033-1.631l.5836-3.6047h1.2358l-.5606,3.4793c-.0612.4116,0,.732.1832.9611s.4653.3433.8469.3433c.389,0,.7168-.1217.9841-.3663.267-.244.4309-.5836.492-1.0182l.538-3.3992h1.2358l-1.007,6.4086c-.0993.6029-.37,1.0778-.8124,1.4249-.4427.3471-.9996.5209-1.6707.5209h-1.9455ZM417.787,770.0853h3.221l.5368-1.8545h-5.4659l-1.7081,6.4419h2.1473l.5856-2.0985h3.0257l.4392-1.7081h-3.0257l.244-.7808ZM424.229,772.9158c-.5856,0-1.0249-.3904-1.0249-1.1225,0-.8784.6344-1.7569,1.6105-1.7569.488,0,.8784.244,1.0248.7808l1.9521-.8296c-.2928-1.1713-1.2689-1.9033-2.6353-1.9033-2.7817,0-4.1482,2.1473-4.1482,3.9042s1.2689,2.8305,3.0746,2.8305c1.3665,0,2.3425-.5856,2.9769-1.4153l-1.5129-1.1713c-.3904.4392-.8296.6832-1.3177.6832ZM430.9149,768.2308h-2.1473l-1.7569,6.4419h5.1242l.488-1.8545h-2.9281l1.2201-4.5874ZM439.7481,771.0125c0-1.6593-1.3177-2.9281-3.221-2.9281-2.1961,0-3.8066,1.8057-3.8066,3.8066,0,1.6593,1.3177,2.9281,3.221,2.9281,2.1961,0,3.8066-1.8057,3.8066-3.8066ZM434.9167,771.6957c0-.8296.5856-1.7081,1.5129-1.7081.7808,0,1.1713.5368,1.1713,1.2201,0,.8296-.5856,1.7081-1.5129,1.7081-.7808,0-1.1713-.5368-1.1713-1.2201ZM443.2131,772.2326h1.0737l-.1952.6832c-.1464.0488-.3416.0976-.5856.0976-.6832,0-1.2689-.3904-1.2689-1.2201,0-1.0249.732-1.9033,1.9521-1.9033.5856,0,1.1225.244,1.5129.5856l1.3665-1.3665c-.4392-.5368-1.5129-1.0737-2.7329-1.0737-2.5865,0-4.2946,1.7569-4.2946,3.8554,0,2.0497,1.6105,2.8793,3.221,2.8793.9272,0,1.8545-.2928,2.4889-.6832l.9272-3.3186h-3.1234l-.3416,1.4641ZM450.7775,768.0844c-2.1961,0-3.8066,1.8057-3.8066,3.8066,0,1.6593,1.3177,2.9281,3.221,2.9281,2.1961,0,3.8066-1.8057,3.8066-3.8066,0-1.6593-1.3177-2.9281-3.221-2.9281ZM450.3382,772.9158c-.7808,0-1.1713-.5368-1.1713-1.2201,0-.8296.5856-1.7081,1.5129-1.7081.7808,0,1.1713.5368,1.1713,1.2201,0,.8296-.5856,1.7081-1.5129,1.7081ZM437.9424,767.4987c-.0488.2928.0976.488.4392.488s.5368-.1952.6344-.488c.0488-.244-.0976-.488-.4392-.488s-.5856.244-.6344.488ZM432.1349,765.4978c-.4392,0-.732.244-.7808.5856s.0976.5856.5368.5856.732-.244.7808-.5856c.0976-.3416-.0976-.5856-.5368-.5856ZM433.0134,767.3035c-.0976.5368.1464.8784.8296.8784.6344,0,1.0737-.3904,1.1713-.8784s-.1464-.8784-.8296-.8784c-.6832,0-1.0737.3904-1.1713.8784ZM439.6017,777.552l-2.4401-1.8057h-1.5129l4.2458,3.1722,1.6105-3.1722h-.976l-.9272,1.8057ZM425.8394,767.1571l-2.0009-1.4641,23.1323-2.7817-2.1473,4.2458h1.0248l2.6841-5.3195-26.9877,3.221,2.7817,2.0985h1.5129ZM338.7186,785.7853l.6088-3.8315h2.32l-.084.5194h-1.7636l-.1837,1.1445h1.6272l-.084.5248h-1.6166l-.2573,1.6428h-.5668ZM342.97,785.8377c-.3568,0-.6228-.1005-.7978-.3019-.175-.201-.2345-.473-.1784-.8161l.2677-1.7006c.056-.3429.2029-.6148.4408-.8161.2379-.201.5355-.3019.8923-.3019s.6228.1.7979.2993c.1748.1993.2361.4707.1837.8136l-.2677,1.7057c-.0561.3431-.2039.6151-.4435.8161-.2398.2013-.5381.3019-.895.3019ZM343.0487,785.3339c.1925,0,.3483-.0524.4672-.1575.119-.1051.1942-.2571.2257-.4568l.2678-1.7006c.0315-.1993.0051-.3517-.0787-.4565-.084-.1051-.2223-.1575-.4148-.1575s-.3473.0524-.4645.1575c-.1173.1048-.1916.2571-.2231.4565l-.2677,1.7006c-.0315.1996-.0053.3517.0787.4568s.2204.1575.4094.1575ZM344.9961,785.7853l.6088-3.8315h1.202c.2379,0,.4391.0464.6036.139.1645.0928.2835.223.357.391s.091.3656.0524.5932c-.0384.2591-.14.4838-.3044.6746-.1645.1905-.3656.3209-.6036.391l.5354,1.6428h-.6194l-.4777-1.5748h-.5406l-.2466,1.5748h-.5668ZM345.8883,783.7068h.6352c.1889,0,.349-.0558.4803-.168.1313-.1119.2107-.2623.2388-.4514.0316-.1925,0-.3454-.0944-.4593-.0945-.1136-.2362-.1706-.4252-.1706h-.6352l-.1995,1.2493ZM349.545,785.7853l.6088-3.8315h1.2544c.3709,0,.6508.1048.8399.315.1889.2099.2553.4898.1993.8398-.0384.2344-.1216.4383-.2493.6114s-.2905.307-.4881.4015c-.1978.0945-.419.1418-.6639.1418h-.6928l-.2415,1.5221h-.5668ZM350.432,783.754h.6928c.1924,0,.3568-.0587.4934-.176.1364-.117.2204-.2737.2519-.4696s-.0017-.3525-.0997-.4699-.245-.1757-.441-.1757h-.6876l-.2099,1.2911ZM352.7466,785.7853l.6088-3.8315h2.2518l-.0787.5038h-1.6954l-.1731,1.0867h1.5115l-.0787.4986h-1.5115l-.1942,1.2387h1.6901l-.0787.5038h-2.2518ZM355.8434,785.7853l.6088-3.8315h1.202c.2379,0,.4391.0464.6036.139.1645.0928.2835.223.357.391s.091.3656.0524.5932c-.0384.2591-.14.4838-.3044.6746-.1645.1905-.3656.3209-.6036.391l.5354,1.6428h-.6194l-.4777-1.5748h-.5406l-.2466,1.5748h-.5668ZM356.7356,783.7068h.6352c.1889,0,.349-.0558.4803-.168.1313-.1119.2107-.2623.2388-.4514.0316-.1925,0-.3454-.0944-.4593-.0945-.1136-.2362-.1706-.4252-.1706h-.6352l-.1995,1.2493ZM360.1316,785.8377c-.385,0-.6736-.0951-.8661-.2859-.1924-.1908-.2641-.4505-.2151-.7794h.5668c-.028.1748.0105.3121.1155.4121.1051.0997.266.1495.483.1495.2029,0,.3701-.049.5012-.1469.1313-.098.2109-.2327.2389-.4044.0209-.1504.0007-.2788-.0604-.3856-.0614-.1068-.1583-.1811-.2913-.2233l-.4566-.1364c-.266-.0803-.4619-.217-.5879-.4095-.126-.1922-.1697-.4197-.1313-.6823.035-.2099.1121-.3935.2309-.551s.2729-.2799.4619-.3673.4024-.1313.6404-.1313c.3498,0,.6158.0954.7978.2859.182.1908.2485.4437.1995.7586h-.5668c.0279-.168-.0027-.3001-.092-.3964-.0891-.0963-.2301-.1444-.4225-.1444-.1889,0-.343.0447-.4619.1338-.119.0894-.1889.2144-.21.3753-.0245.1506-.007.2791.0525.3859s.1575.1811.2939.223l.4672.1469c.2624.0806.4558.2173.5801.4095.1242.1925.1653.4217.1233.6877-.035.217-.1155.4058-.2415.5667-.1259.1612-.2878.2862-.4855.3753-.1976.0894-.419.1338-.6639.1338ZM363.2651,785.8377c-.3568,0-.6228-.1005-.7978-.3019-.175-.201-.2345-.473-.1784-.8161l.2677-1.7006c.056-.3429.2029-.6148.4408-.8161.2379-.201.5355-.3019.8923-.3019s.6228.1.7979.2993c.1748.1993.2361.4707.1837.8136l-.2677,1.7057c-.0561.3431-.2039.6151-.4435.8161-.2398.2013-.5381.3019-.895.3019ZM363.3439,785.3339c.1925,0,.3483-.0524.4672-.1575.119-.1051.1942-.2571.2257-.4568l.2678-1.7006c.0315-.1993.0051-.3517-.0787-.4565-.084-.1051-.2223-.1575-.4148-.1575s-.3473.0524-.4645.1575c-.1173.1048-.1916.2571-.2231.4565l-.2677,1.7006c-.0315.1996-.0053.3517.0787.4568s.2204.1575.4094.1575ZM365.2754,785.7853l.6088-3.8315h.7086l.6194,3.186c.007-.098.0165-.217.0289-.3571.0121-.1398.0271-.2851.0446-.4354.0175-.1506.0367-.2888.0577-.4146l.315-1.9788h.525l-.609,3.8315h-.7085l-.6141-3.186c-.0071.0945-.0167.209-.0289.3437s-.0272.2757-.0446.4226c-.0177.1469-.0367.2833-.0578.4095l-.315,2.0102h-.5301ZM368.2252,785.7853l1.5851-3.8315h.7454l.3726,3.8315h-.5616l-.0735-.9711h-1.0865l-.3884.9711h-.5932ZM369.3852,784.3418h.8714l-.0893-1.1023c-.0175-.1959-.0298-.3654-.0367-.5089-.0071-.1435-.0105-.2432-.0105-.2993-.0175.0561-.0517.1558-.1024.2993s-.1146.3112-.1915.5038l-.441,1.1075ZM371.7208,785.7853l.6088-3.8315h.567l-.525,3.3118h1.6744l-.0787.5197h-2.2465ZM376.6785,785.8377c-.3673,0-.6342-.1005-.8003-.3019-.1663-.201-.2214-.475-.1654-.8213l.4357-2.7608h.567l-.4357,2.7554c-.0315.1962-.008.35.0708.4619.0787.1122.2144.168.4068.168.1925,0,.3473-.0558.4646-.168.1172-.1119.1915-.2657.2231-.4619l.4355-2.7554h.567l-.4357,2.7608c-.056.35-.2003.6245-.433.8241-.2328.1993-.5328.299-.9003.299ZM379.8435,785.8377c-.385,0-.6736-.0951-.8661-.2859-.1924-.1908-.2641-.4505-.2151-.7794h.5668c-.028.1748.0105.3121.1155.4121.1051.0997.266.1495.483.1495.2029,0,.3701-.049.5012-.1469.1313-.098.2109-.2327.2389-.4044.0209-.1504.0007-.2788-.0604-.3856-.0614-.1068-.1583-.1811-.2913-.2233l-.4566-.1364c-.266-.0803-.4619-.217-.5879-.4095-.126-.1922-.1697-.4197-.1313-.6823.035-.2099.1121-.3935.2309-.551s.2729-.2799.4619-.3673.4024-.1313.6404-.1313c.3498,0,.6158.0954.7978.2859.182.1908.2485.4437.1995.7586h-.5668c.0279-.168-.0027-.3001-.092-.3964-.0891-.0963-.2301-.1444-.4225-.1444-.1889,0-.343.0447-.4619.1338-.119.0894-.1889.2144-.21.3753-.0245.1506-.007.2791.0525.3859s.1575.1811.2939.223l.4672.1469c.2624.0806.4558.2173.5801.4095.1242.1925.1653.4217.1233.6877-.035.217-.1155.4058-.2415.5667-.1259.1612-.2878.2862-.4855.3753-.1976.0894-.419.1338-.6639.1338ZM381.9062,785.7853l.6088-3.8315h2.2518l-.0787.5038h-1.6954l-.1731,1.0867h1.5115l-.0787.4986h-1.5115l-.1942,1.2387h1.6901l-.0787.5038h-2.2518ZM386.9426,785.8377c-.3568,0-.6228-.1005-.7978-.3019-.175-.201-.2345-.473-.1784-.8161l.2677-1.7006c.056-.3429.2029-.6148.4408-.8161.2379-.201.5355-.3019.8923-.3019s.6228.1.7979.2993c.1748.1993.2361.4707.1837.8136l-.2677,1.7057c-.0561.3431-.2039.6151-.4435.8161-.2398.2013-.5381.3019-.895.3019ZM387.0213,785.3339c.1925,0,.3483-.0524.4672-.1575.119-.1051.1942-.2571.2257-.4568l.2678-1.7006c.0315-.1993.0051-.3517-.0787-.4565-.084-.1051-.2223-.1575-.4148-.1575s-.3473.0524-.4645.1575c-.1173.1048-.1916.2571-.2231.4565l-.2677,1.7006c-.0315.1996-.0053.3517.0787.4568s.2204.1575.4094.1575ZM388.9529,785.7853l.6088-3.8315h.7086l.6194,3.186c.007-.098.0165-.217.0289-.3571.0121-.1398.0271-.2851.0446-.4354.0175-.1506.0367-.2888.0577-.4146l.315-1.9788h.525l-.609,3.8315h-.7085l-.6141-3.186c-.0071.0945-.0167.209-.0289.3437s-.0272.2757-.0446.4226c-.0177.1469-.0367.2833-.0578.4095l-.315,2.0102h-.5301ZM392.249,785.7853l.6088-3.8315h.567l-.525,3.3118h1.6744l-.0787.5197h-2.2465ZM396.1174,785.7853l.2204-1.4119-.7506-2.4197h.5774l.4462,1.4486c.0279.0945.0498.1837.0656.2677.0157.084.0253.1469.0288.1888.0175-.0419.0464-.1048.0867-.1888.0402-.084.0883-.1731.1442-.2677l.8976-1.4486h.5984l-1.5275,2.4197-.2204,1.4119h-.5668ZM399.217,785.7853l.6088-3.8315h.7086l.6192,3.186c.0071-.098.0165-.217.029-.3571.012-.1398.0271-.2851.0444-.4354.0177-.1506.037-.2888.0578-.4146l.315-1.9788h.5248l-.6088,3.8315h-.7085l-.6141-3.186c-.0071.0945-.0167.209-.0289.3437s-.0272.2757-.0446.4226c-.0177.1469-.0367.2833-.0578.4095l-.315,2.0102h-.5301ZM403.5053,785.8377c-.3571,0-.6231-.1005-.7979-.3019-.1751-.201-.2344-.473-.1785-.8161l.2677-1.7006c.0561-.3429.203-.6148.4411-.8161.2378-.201.5354-.3019.8922-.3019.3571,0,.6228.1.7979.2993.1748.1993.2361.4707.1837.8136l-.2677,1.7057c-.0561.3431-.2039.6151-.4437.8161-.2395.2013-.5379.3019-.8947.3019ZM403.5839,785.3339c.1925,0,.3483-.0524.4673-.1575.1187-.1051.1942-.2571.2255-.4568l.2677-1.7006c.0316-.1993.0054-.3517-.0786-.4565-.084-.1051-.2224-.1575-.4146-.1575-.1925,0-.3474.0524-.4647.1575-.117.1048-.1914.2571-.223.4565l-.2677,1.7006c-.0316.1996-.0051.3517.0789.4568.0837.1051.2204.1575.4092.1575ZM406.3814,785.7853l.5248-3.3121h-1.0234l.084-.5194h2.6193l-.084.5194h-1.0289l-.5248,3.3121h-.567ZM409.5178,785.7853l.6088-3.8315h2.32l-.084.5194h-1.7636l-.1837,1.1445h1.6272l-.084.5248h-1.6166l-.2571,1.6428h-.567ZM413.7694,785.8377c-.3571,0-.6231-.1005-.7979-.3019-.1751-.201-.2344-.473-.1785-.8161l.2677-1.7006c.0561-.3429.203-.6148.4411-.8161.2378-.201.5354-.3019.8922-.3019.3571,0,.6228.1.7979.2993.1748.1993.2361.4707.1837.8136l-.2677,1.7057c-.0561.3431-.2039.6151-.4437.8161-.2395.2013-.5379.3019-.8947.3019ZM413.848,785.3339c.1925,0,.3483-.0524.4673-.1575.1187-.1051.1942-.2571.2255-.4568l.2677-1.7006c.0316-.1993.0054-.3517-.0786-.4565-.084-.1051-.2224-.1575-.4146-.1575-.1925,0-.3474.0524-.4647.1575-.117.1048-.1914.2571-.223.4565l-.2677,1.7006c-.0316.1996-.0051.3517.0789.4568.0837.1051.2204.1575.4092.1575ZM415.7952,785.7853l.6088-3.8315h1.202c.2381,0,.4391.0464.6037.139.1643.0928.2833.223.3568.391s.0911.3656.0527.5932c-.0387.2591-.1401.4838-.3044.6746-.1646.1905-.3659.3209-.6037.391l.5354,1.6428h-.6194l-.4776-1.5748h-.5408l-.2466,1.5748h-.567ZM416.6876,783.7068h.635c.1891,0,.3491-.0558.4804-.168.131-.1119.2107-.2623.2386-.4514.0316-.1925,0-.3454-.0945-.4593-.0943-.1136-.2361-.1706-.4252-.1706h-.635l-.1993,1.2493ZM420.905,785.8377c-.3602,0-.6308-.1005-.8107-.3019-.1803-.201-.2423-.473-.1865-.8161l.2677-1.7006c.0561-.3463.2056-.6194.4488-.8187s.545-.2993.9056-.2993c.3568,0,.6253.1008.8056.3019.1803.2013.2423.4733.1865.8161h-.567c.0313-.1993.0026-.3517-.0866-.4565-.0894-.1051-.2284-.1575-.4175-.1575-.1925,0-.3508.0524-.475.1575-.1242.1048-.2019.2554-.2335.4514l-.2677,1.7057c-.0316.1996-.0026.3517.0866.4568.0894.1051.2301.1575.4226.1575s.35-.0524.4724-.1575.1993-.2571.2309-.4568h.5667c-.0347.2275-.1145.4252-.2386.5932s-.2808.2976-.4699.3884c-.1888.0908-.4024.1364-.6404.1364ZM424.0335,785.8377c-.3571,0-.6231-.1005-.7979-.3019-.1751-.201-.2344-.473-.1785-.8161l.2677-1.7006c.0561-.3429.203-.6148.4411-.8161.2378-.201.5354-.3019.8922-.3019.3571,0,.6228.1.7979.2993.1748.1993.2361.4707.1837.8136l-.2677,1.7057c-.0561.3431-.2039.6151-.4437.8161-.2395.2013-.5379.3019-.8947.3019ZM424.1121,785.3339c.1925,0,.3483-.0524.4673-.1575.1187-.1051.1942-.2571.2255-.4568l.2677-1.7006c.0316-.1993.0054-.3517-.0786-.4565-.084-.1051-.2224-.1575-.4146-.1575-.1925,0-.3474.0524-.4647.1575-.117.1048-.1914.2571-.223.4565l-.2677,1.7006c-.0316.1996-.0051.3517.0789.4568.0837.1051.2204.1575.4092.1575ZM425.9653,785.7853l.6088-3.8315h.6874l.1837,1.2282c.0211.119.0367.2301.0473.3332.0105.1034.0194.1828.0262.2389.0177-.0561.0473-.1364.0894-.2415.0419-.1051.0908-.217.1469-.336l.5667-1.2228h.7088l-.6088,3.8315h-.5354l.2045-1.2911c.0245-.168.0578-.3525.1-.5539.0419-.201.0874-.4041.1364-.6088s.0963-.3998.1418-.5852c.0453-.1854.0874-.3483.1259-.4881l-.8554,1.8632h-.5513l-.2833-1.8632c-.0037.1364-.0105.2947-.0211.475s-.0236.3719-.0393.5747c-.0157.203-.035.4069-.0578.6114-.0228.2047-.0481.3964-.076.5749l-.2047,1.2911h-.5405ZM429.1145,785.7853l.6088-3.8315h.6874l.1837,1.2282c.0211.119.0367.2301.0473.3332.0105.1034.0194.1828.0262.2389.0177-.0561.0473-.1364.0894-.2415.0419-.1051.0908-.217.1469-.336l.5667-1.2228h.7088l-.6088,3.8315h-.5354l.2045-1.2911c.0245-.168.0578-.3525.1-.5539.0419-.201.0874-.4041.1364-.6088s.0963-.3998.1418-.5852c.0453-.1854.0874-.3483.1259-.4881l-.8554,1.8632h-.5513l-.2833-1.8632c-.0037.1364-.0105.2947-.0211.475s-.0236.3719-.0393.5747c-.0157.203-.035.4069-.0578.6114-.0228.2047-.0481.3964-.076.5749l-.2047,1.2911h-.5405ZM432.4107,785.7853l.6088-3.8315h2.2516l-.0786.5038h-1.6955l-.1731,1.0867h1.5115l-.0786.4986h-1.5118l-.1942,1.2387h1.6901l-.0786.5038h-2.2516ZM435.5073,785.7853l.6088-3.8315h1.202c.2381,0,.4391.0464.6037.139.1643.0928.2833.223.3568.391s.0911.3656.0527.5932c-.0387.2591-.1401.4838-.3044.6746-.1646.1905-.3659.3209-.6037.391l.5354,1.6428h-.6194l-.4776-1.5748h-.5408l-.2466,1.5748h-.567ZM436.3997,783.7068h.635c.1891,0,.3491-.0558.4804-.168.131-.1119.2107-.2623.2386-.4514.0316-.1925,0-.3454-.0945-.4593-.0943-.1136-.2361-.1706-.4252-.1706h-.635l-.1993,1.2493ZM439.8007,785.8377c-.3602,0-.6308-.1005-.8107-.3019-.1803-.201-.2423-.473-.1865-.8161l.2677-1.7006c.0561-.3463.2056-.6194.4488-.8187s.545-.2993.9056-.2993c.3568,0,.6253.1008.8056.3019.1803.2013.2423.4733.1865.8161h-.567c.0313-.1993.0026-.3517-.0866-.4565-.0894-.1051-.2284-.1575-.4175-.1575-.1925,0-.3508.0524-.475.1575-.1242.1048-.2019.2554-.2335.4514l-.2677,1.7057c-.0316.1996-.0026.3517.0866.4568.0894.1051.2301.1575.4226.1575s.35-.0524.4724-.1575.1993-.2571.2309-.4568h.5667c-.0347.2275-.1145.4252-.2386.5932s-.2808.2976-.4699.3884c-.1888.0908-.4024.1364-.6404.1364ZM441.8792,785.7853l.0789-.5038h.7768l.4459-2.824h-.7766l.0837-.5038h2.1258l-.084.5038h-.7766l-.4462,2.824h.7768l-.0789.5038h-2.1258ZM444.7399,785.7853l1.585-3.8315h.7452l.3728,3.8315h-.5616l-.0735-.9711h-1.0867l-.3884.9711h-.5929ZM445.8998,784.3418h.8714l-.0894-1.1023c-.0174-.1959-.0296-.3654-.0367-.5089-.0068-.1435-.0103-.2432-.0103-.2993-.0177.0561-.0518.1558-.1025.2993s-.1148.3112-.1916.5038l-.4408,1.1075ZM448.2354,785.7853l.6088-3.8315h.567l-.5248,3.3118h1.6741l-.0786.5197h-2.2465ZM453.1932,785.8377c-.3676,0-.6345-.1005-.8005-.3019-.1663-.201-.2213-.475-.1654-.8213l.4357-2.7608h.567l-.4357,2.7554c-.0316.1962-.008.35.0709.4619.0786.1122.2141.168.4066.168s.3474-.0558.4645-.168c.1173-.1119.1916-.2657.2233-.4619l.4357-2.7554h.5667l-.4357,2.7608c-.0558.35-.2002.6245-.4328.8241-.2329.1993-.5328.299-.9001.299ZM456.3581,785.8377c-.385,0-.6738-.0951-.866-.2859-.1925-.1908-.2643-.4505-.2153-.7794h.567c-.0282.1748.0105.3121.1153.4121.1051.0997.266.1495.483.1495.2028,0,.3699-.049.5012-.1469s.2107-.2327.2389-.4044c.0211-.1504.0009-.2788-.0604-.3856s-.1583-.1811-.2913-.2233l-.4568-.1364c-.266-.0803-.4619-.217-.5878-.4095-.1259-.1922-.1697-.4197-.1313-.6823.035-.2099.1119-.3935.2309-.551s.2731-.2799.4619-.3673c.1891-.0874.4024-.1313.6404-.1313.3497,0,.6157.0954.7979.2859.1817.1908.2483.4437.1993.7586h-.567c.0279-.168-.0026-.3001-.0917-.3964-.0894-.0963-.2301-.1444-.4226-.1444-.1891,0-.3429.0447-.4619.1338-.119.0894-.1891.2144-.2099.3753-.0245.1506-.0071.2791.0524.3859s.1575.1811.2939.223l.4673.1469c.2623.0806.4556.2173.5798.4095.1242.1925.1654.4217.1236.6877-.035.217-.1156.4058-.2415.5667-.1262.1612-.2879.2862-.4855.3753-.1979.0894-.4192.1338-.6641.1338ZM458.4209,785.7853l.6088-3.8315h2.2516l-.0786.5038h-1.6955l-.1731,1.0867h1.5115l-.0786.4986h-1.5118l-.1942,1.2387h1.6901l-.0786.5038h-2.2516Z" style="fill: #ccc;"/>
  <g id="g841">
    <g id="g1318">
      <path id="path853" d="M400,50c193.2669,0,349.9999,156.7334,349.9999,349.9995s-156.7331,350.0005-350,350.0005S50,593.2666,50,399.9995,206.7321,50,400,50" style="fill: #293c84; fill-rule: evenodd;"/>
      <path id="path857" d="M399.9995,70c182.2226,0,330.0005,147.777,330.0005,330s-147.7778,330-330.0005,330S70,582.2229,70,400,217.7768,70,399.9995,70" style="fill: #4f88ce; fill-rule: evenodd;"/>
      <path id="path865" d="M138.5567,182.6699c-38.7737,46.5897-65.3405,103.6939-74.7637,166.4082l7.2988,2.3633,443.9727,358.8906,7.2188,7c54.9667-21.2015,103.0443-56.2719,139.9395-100.9238l-2.0859-3.1074L138.5567,182.6699Z" style="fill: #293c84;"/>
      <path id="path861" d="M144.0059,191.7676c-36.1309,44.3614-60.9534,98.2861-70.1016,157.3867l444.1836,359.0625c52.8136-20.2549,99.1062-53.6776,134.8379-96.2695L144.0059,191.7676Z" style="fill: #ee2d35; fill-rule: evenodd;"/>
    </g>
    <path id="path873" d="M410.9356,165.2793c-27.6959-.0888-55.3703,6.6812-81.4395,23.1602-14.3908,9.0975-22.3846,19.3468-24.7207,31.7793-2.4871,13.2359.6642,26.858,10.4121,43.9102,8.2576,14.4435,17.1692,27.4938,25.9395,42.459,4.8152,8.2171,9.2293,15.7007,8.8828,25.0059-.1033,2.7667-1.1662,4.989-3.1387,5.8633-2.2339.9918-5.3596-.2018-6.8418-1.3496-5.8607-4.537-10.5706-10.3537-15.1758-16.2734.2058-1.2638.3164-2.5578.3164-3.8789,0-13.2673-10.7932-24.0605-24.0605-24.0605-3.6252,0-7.0623.81-10.1484,2.252l-152.0703-110.4199-2.2832,1.4473,141.1504,124.9941c-.4598,1.8548-.709,3.7921-.709,5.7871,0,13.2673,10.7932,24.0605,24.0605,24.0605,3.2397,0,6.3307-.6484,9.1543-1.8145,4.6836,2.3193,9.4145,4.9355,14.2168,8.7285,1.469,1.161,4.3991,4.2746,3.5957,6.8984-.6514,2.1275-1.4745,2.8181-4.1328,3.584-5.8212,1.6756-15.701-2.931-24.7812-5.334-21.5067-5.6905-41.0611-15.5348-55.1328-18.5254-13.7212-2.9156-29.6904-2.0592-38.4961.6133-9.1877,2.787-23.0227,10.5436-28.3809,26.7012-6.7958,20.4895-7.1754,43.3006-4.9375,65.1152,2.8792,28.0501,10.5923,54.0796,22.5254,76.3906,24.0101,44.8895,49.5521,69.6176,82.2656,93.1504,29.5091,21.228,77.604,38.1224,127.3535,38.2207,26.8974.0537,54.3103-5.5258,82.1113-16.459,12.1813-4.7899,21.4377-9.8076,34.2461-16.7188,2.9764-1.6068,1.9151-3.7879-1.0391-3.0078-53.898,14.2277-86.3492,12.2017-118.084,1.5391-39.5295-13.2845-72.0572-38.7167-87.0488-62.5605-19.9152-31.6739-29.9357-57.1921-30.7441-96.7012-.2675-13.0657,1.4171-32.8965,6.127-40.5078,4.1567-6.7157,6.7892-8.4774,24.9629-13.9824,14.6897-4.4474,32.2341-5.61,44.9199-16.7266.4062-.229,2.8913-2.6475,3.6309-3.6211,1.0708-1.2177,2.8735-4.0742,2.9688-4.4277,8.5008-14.5296,5.9992-29.9717,6.834-45.5762.9614-17.9953,5.0007-22.4338,9.2891-27.3594,5.2113-5.9843,15.5094-9.6705,28.0898-13.123,33.6779-9.2403,68.1211-7.1959,103.6621,4.498,26.7555,8.8026,59.7064,31.128,82.127,66.293,18.0015,28.2284,29.4329,64.2302,28.6113,119.9668-.0436,3.0575,2.3301,3.5625,3.1699.2852,3.6208-14.095,5.9119-26.9063,7.623-39.8828,3.9085-29.6173,2.7171-57.5623-3.8203-83.6582-12.0871-48.257-40.2156-90.2224-67.9336-113.7461-30.7248-26.0777-65.6122-45.8313-103.5938-56.0371-16.2915-4.3765-32.9157-6.8979-49.5332-6.9512Z" style="fill: #293c84; fill-rule: evenodd;"/>
    <g id="g2308">
      <path id="path881" d="M468.9975,320.0714c75.6449,0,136.9881,61.3429,136.9881,136.9855s-61.3432,136.9865-136.9881,136.9865-136.9851-61.3439-136.9851-136.9865,61.3432-136.9855,136.9851-136.9855" style="fill: #293c84; fill-rule: evenodd;"/>
      <path id="path885" d="M469.225,323.5371c73.7089,0,133.4838,59.7747,133.4838,133.4823s-59.7749,133.4853-133.4838,133.4853-133.4838-59.7747-133.4838-133.4853,59.7749-133.4823,133.4838-133.4823" style="fill: #fff; fill-rule: evenodd;"/>
      <g id="g1278">
        <path id="path889" d="M376.613,379.3584l-4.3694,42.2403-6.9204,7.6518v21.4813l-4.0047,4.7382v60.0806c10.3426,19.439,25.3463,31.0478,38.6005,39.3298h40.0553l6.5567-4.3714c-15.172-10.381-20.3903-30.6507-20.3934-56.8064h-37.1427v-39.2852l-2.5499-3.5002v-21.4904l-6.1899-7.8281-3.642-42.2403Z" style="fill: #293c84; fill-rule: evenodd;"/>
        <path id="path893" d="M410.6592,353.8227c-6.0197,0-11.0386,4.7665-11.0386,10.7873v95.0288c0,6.0207,5.0188,10.7873,11.0386,10.7873s10.7853-4.7665,10.7853-10.7873v-85.3337h42.2668c8.4157,0,18.0035,1.242,18.1868,12.0171.1864,10.7731-9.5949,12.6564-16.5842,12.6564h-27.3117c-4.5143,0-8.5291,3.0098-10.2858,7.2749-1.5034,4.264-.2482,9.0306,3.2611,11.7902l48.9917,36.9865c-.8936.1661-1.7982.3586-2.7222.5754-19.7683,4.6227-40.7047,22.4508-40.886,50.8636-.1844,28.4118,24.39,55.4033,52.6722,55.3273l39.262-.1064c6.2183,0,11.1399-5.2113,11.1399-11.2026,0-6.2527-5.2852-9.2788-11.5046-9.2788h-36.6007c-15.5903.3637-32.6881-12.9968-33.0529-33.2847-.3637-20.2869,14.8245-29.5474,24.4113-31.8907,7.8322-2.0251,17.3805.1833,20.0044.9908.9371,6.815,2.2328,16.6094,10.0295,27.1738,7.901,10.7012,19.6892,16.0452,34.6728,15.3421,14.3969-.6757,30.0247-8.6021,36.3808-20.3284,9.0793-16.7543,6.1991-28.4523,3.0008-36.6988-7.67-19.756-24.2978-23.6169-42.049-27.7138-9.4004-2.169-10.7377-7.4066-10.8613-12.0759-.0983-3.7241,1.9218-11.4012,10.841-11.4012,5.8577,0,9.915,4.9864,10.7711,8.7388,2.094,9.1572,11.4965,8.3234,14.9936,6.7795,5.5618-2.4567,6.3753-9.8745,4.1375-15.9023-2.7029-7.28-13.7617-21.2392-30.2659-21.2392-20.4967,0-32.5483,17.1352-32.0023,33.7517.7244,22.0831,14.5701,29.9365,36.1195,34.0749,6.1879,1.1884,15.798,4.6804,18.5698,12.8772,1.9137,5.6631,2.1234,13.3828-2.5783,19.2627-5.2579,6.5728-12.8621,8.3437-17.3815,8.6183-8.9597.541-14.7353-2.3777-18.2639-7.281-5.1343-7.1351-3.7302-16.187-7.7349-23.9076-2.8265-5.4473-7.0723-10.692-10.7954-13.5854-7.1088-5.5273-27.335-21.3415-40.7888-32.7559,21.1663-.4883,33.7711-16.5091,33.6202-34.0678-.2107-24.4294-23.0061-32.8632-44.3457-32.8632h-48.1032Z" style="fill: #293c84; fill-rule: evenodd;"/>
      </g>
    </g>
    <g id="g1259">
      <path id="path913" d="M219.4051,162.9849l7.4755,10.2463c1.2826-.7811,2.2419-1.4041,2.8802-1.8691,2.7353-1.9967,4.4555-3.8426,5.1586-5.5395.7041-1.6969.2421-3.6613-1.3869-5.8931-1.3231-1.8134-2.9268-2.5833-4.8132-2.3139-1.8854.2705-4.2894,1.4709-7.2091,3.6015-.7051.5146-1.4072,1.1042-2.1052,1.7678M256.1618,183.9627l-20.9566-8.0479c-1.0029.7061-2.4304,1.6574-4.2823,2.8549l11.2422,15.4069-6.7978,4.96-26.9115-36.8811c.3698-.2694,1.7425-1.3677,4.1172-3.2935,2.3757-1.9259,4.3188-3.4404,5.8283-4.5426,9.3649-6.8333,16.6936-6.6245,21.9829.6261,1.5926,2.1812,2.398,4.6419,2.4162,7.3803.0172,2.7393-.6859,5.1941-2.1102,7.3651l23.0244,8.6619-7.5526,5.5101Z" style="fill: #fff;"/>
      <path id="path917" d="M262.1306,142.991l3.1466,17.4482,9.6638-5.191-12.8104-12.2572ZM287.2804,166.1651l-7.3175-6.5749-13.782,7.4036,1.5794,9.6577-7.9345,4.262-5.8668-49.3815,3.1294-1.6807,38.0707,32.0822-7.8788,4.2315Z" style="fill: #fff;"/>
      <path id="path921" d="M310.3748,110.5235l-.8003,7.4411c-2.323-1.0668-5.3643-.9036-9.1238.4883-3.565,1.3201-5.9336,3.8984-7.1058,7.7328-1.1721,3.8355-.9097,8.0418.7862,12.62,1.6959,4.5791,4.0979,7.821,7.2081,9.7266,3.1092,1.9056,6.427,2.2055,9.9536.8996,4.0331-1.4943,6.656-4.105,7.8666-7.8321l5.809,4.8273c-1.8783,4.4393-5.808,7.7673-11.7882,9.9819-5.9823,2.2156-11.3567,1.9694-16.1263-.7396-4.7706-2.7079-8.4147-7.4634-10.9322-14.2621-2.3453-6.3317-2.4699-12.3069-.3748-17.9244,2.0961-5.6155,6.0076-9.4854,11.7356-11.6078,4.9104-1.8175,9.2069-2.2683,12.8925-1.3515" style="fill: #fff;"/>
      <path id="path925" d="M329.6891,150.3224l-11.6626-44.1409,7.8342-2.0697,11.6626,44.1409-7.8341,2.0697Z" style="fill: #fff;"/>
      <path id="path929" d="M372.7961,142.3979l-26.3645-25.1082,4.3826,27.9549-7.6974,1.2066-7.0764-45.1347,3.8487-.6038,25.5723,23.8762-4.2671-27.2164,7.6974-1.2065,7.1676,45.7203-3.2632.5115Z" style="fill: #fff;"/>
      <path id="path933" d="M414.2168,98.4962l-3.2905,6.5678c-.9695-.8358-2.4587-1.6584-4.4657-2.4679-2.009-.8084-3.7292-1.2015-5.1617-1.1782-4.488.0729-8.0044,1.6523-10.5523,4.7371-2.5479,3.0848-3.7788,7.1827-3.6967,12.2927.0791,4.8617,1.4143,8.7257,4.0068,11.5927,2.5915,2.867,6.0795,4.2651,10.4621,4.1931,2.8873-.0465,5.2528-.8743,7.0977-2.4831l-.1459-8.9749-6.3257.1034-.1115-6.9183,14.4273-.234.3313,20.4419c-1.9066,1.6098-4.3745,2.8812-7.4036,3.8132-3.0291.932-6.0491,1.4224-9.061,1.471-6.5435.1064-11.767-1.9543-15.6694-6.1818s-5.9103-9.8623-6.0248-16.9042c-.1135-7.0419,1.8803-12.7992,5.9853-17.271,4.103-4.4718,9.6871-6.7643,16.7503-6.8798,5.0057-.0811,9.2889,1.3464,12.8479,4.2803" style="fill: #fff;"/>
      <path id="path937" d="M474.9651,106.392l-4.569,5.9285c-1.4224-2.1244-4.102-3.5741-8.0348-4.3502-3.7302-.7355-7.0966.2249-10.0984,2.8832-3.0028,2.6583-4.9763,6.3824-5.9225,11.1722-.9442,4.7899-.5896,8.8088,1.0678,12.0587,1.6564,3.2489,4.3279,5.2376,8.0186,5.9661,4.2185.8328,7.819-.0234,10.7985-2.5701l2.4324,7.1514c-3.9207,2.8052-9.0104,3.5903-15.2672,2.3544-6.2578-1.2339-10.7133-4.2519-13.3646-9.0539-2.6533-4.801-3.2783-10.7579-1.8742-17.8717,1.3079-6.6245,4.3218-11.7852,9.0438-15.4798,4.72-3.6957,10.0771-4.9519,16.0695-3.7697,5.1364,1.0141,9.0367,2.8751,11.7001,5.5811" style="fill: #fff;"/>
      <path id="path941" d="M470.251,149.9989l14.5296-43.2817,7.6812,2.5783-12.238,36.4577,19.5576,6.5648-2.2896,6.8251-27.2408-9.1441Z" style="fill: #fff;"/>
      <path id="path945" d="M520.1532,119.1401l7.2587,3.6005-13.7516,27.7219c-1.0891,2.1964-1.3059,4.3158-.6494,6.3581.6575,2.0424,2.1579,3.645,4.5032,4.8081,2.6239,1.3018,5.0006,1.6401,7.1321,1.0151,2.1295-.624,3.7768-2.1092,4.9408-4.4545l13.6827-27.5821,7.2577,3.6005-13.9593,28.1413c-2.0859,4.2063-5.1302,6.8008-9.1329,7.7845-4.0007.9837-8.3569.308-13.0647-2.0282-4.7463-2.3544-7.8311-5.3339-9.2545-8.9395s-1.0597-7.5758,1.0911-11.9128l13.946-28.113Z" style="fill: #fff;"/>
      <path id="path949" d="M563.5378,150.2601l-6.1889,9.0194c.9797.774,2.0353,1.549,3.1669,2.324,4.3512,2.9866,7.6488,2.8437,9.8938-.4285,1.9867-2.8944,1.002-5.7006-2.9552-8.4156-1.0455-.7173-2.3514-1.55-3.9166-2.4993M553.7686,164.4958l-8.5342,12.4365c1.2714,1.0485,2.326,1.861,3.1659,2.4364,2.9805,2.0454,5.4899,3.0251,7.5282,2.9369s3.8629-1.3049,5.4737-3.6522c1.469-2.1417,1.9127-4.1293,1.3332-5.964-.5805-1.8347-2.4294-3.8214-5.5476-5.9609-.6514-.4478-1.7901-1.1914-3.4191-2.2328M546.2211,185.8485l-11.5117-7.899,25.8144-37.6187c5.2346,3.2398,8.8716,5.5588,10.9109,6.9578,3.9054,2.6796,6.3865,5.6104,7.4421,8.7915,1.0546,3.1811.5177,6.3216-1.6098,9.4216-2.0454,2.9815-5.2376,4.255-9.5767,3.8223,3.559,4.8364,3.5934,9.7985.1023,14.8872-2.3503,3.4263-5.5102,5.2579-9.4784,5.4959-3.9683.2371-7.9993-1.0485-12.0932-3.8588" style="fill: #fff;"/>
      <path id="path953" d="M574.9686,204.7572l7.2435-3.0331c.6838,3.8477,2.1214,6.8636,4.3157,9.0488,3.3695,3.3573,6.2295,3.8588,8.5747,1.5034,1.1002-1.1033,1.7506-2.5519,1.9532-4.3451.2016-1.7922-.3181-4.5457-1.5591-8.2607-1.242-3.7149-1.8925-6.4006-1.9552-8.061s.2259-3.2733.8611-4.8385c.6362-1.5662,1.6209-3.019,2.9562-4.3582,2.4922-2.5023,5.4757-3.6653,8.9506-3.489,3.4738.1772,6.6469,1.6949,9.5169,4.5548,3.7393,3.724,5.7877,7.1574,6.1464,10.301l-6.6702,3.2084c-.5805-3.4516-1.9887-6.2912-4.2255-8.52-1.3251-1.3201-2.6999-1.9928-4.1253-2.019-1.4254-.0273-2.6948.5187-3.8082,1.6382-1.8489,1.8539-1.7161,5.8282.3971,11.9209,1.1083,3.2145,1.6969,5.7441,1.7668,7.588s-.235,3.6065-.9148,5.2903c-.6808,1.6838-1.7465,3.254-3.1973,4.7108-2.6097,2.6208-5.7928,3.7474-9.5463,3.3796-3.7545-.3678-7.3691-2.2814-10.842-5.7411-3.018-3.0058-4.9641-6.4989-5.8384-10.4783" style="fill: #fff;"/>
      <path id="path957" d="M636.7418,219.3785l-30.2649,23.7263-4.9996-6.3774,30.2649-23.7253-8.9587-11.4295,5.6641-4.4413,23.3232,29.7501-5.6652,4.4413-9.3639-11.9443Z" style="fill: #fff;"/>
      <path id="path961" d="M653.9287,244.0322l-10.9433,6.4148c.6494,1.3525,1.1731,2.3696,1.5733,3.0514,1.7111,2.9217,3.3766,4.8172,4.9955,5.6874,1.6169.8692,3.6177.6058,6.0015-.7913,1.937-1.1346,2.864-2.6543,2.7839-4.5579-.0811-1.9036-1.0354-4.415-2.864-7.5333-.4407-.7527-.9563-1.5105-1.547-2.2713M629.3808,278.5072l10.1025-20.0468c-.6028-1.0688-1.4052-2.5844-2.4121-4.5467l-16.4535,9.6445-4.256-7.2587,39.3877-23.0881c.23.394,1.1863,1.8691,2.865,4.4251s2.9906,4.641,3.9368,6.2537c5.8627,10.0011,4.9226,17.271-2.8204,21.8105-2.3301,1.3656-4.8588,1.9208-7.586,1.6645-2.7262-.2563-5.0988-1.2005-7.1159-2.8356l-10.92,22.0426-4.728-8.0651Z" style="fill: #fff;"/>
      <path id="path965" d="M669.5395,288.5443l-17.6753,1.3768,4.1932,10.1369,13.4821-11.5137ZM643.9541,311.2363l7.279-6.6195-5.9812-14.4556-9.7681.6007-3.4435-8.3224,49.7211-.8743,1.3586,3.2834-35.7467,34.6534-3.4191-8.2657Z" style="fill: #fff;"/>
      <path id="path969" d="M649.0364,317.7941l7.7906.9806c-1.3241,3.6764-1.5804,7.0075-.7679,9.995,1.2481,4.5903,3.4769,6.4503,6.6843,5.577,1.5044-.4083,2.7891-1.3393,3.8588-2.793,1.0688-1.4538,1.9907-4.0999,2.7647-7.9385.776-3.8385,1.55-6.4938,2.323-7.9628.774-1.47,1.8266-2.7262,3.1588-3.7666s2.9096-1.8083,4.7341-2.3048c3.408-.927,6.575-.4478,9.4987,1.4376,2.9237,1.8844,4.9185,4.7817,5.9823,8.6912,1.3848,5.0917,1.4487,9.0894.1935,11.9928l-7.3813-.5431c1.2167-3.2804,1.4112-6.4442.5825-9.4915-.4903-1.8053-1.3484-3.0727-2.5701-3.8071-1.2218-.7324-2.5955-.8925-4.1182-.4782-2.5266.6868-4.3917,4.1982-5.5963,10.534-.6423,3.3391-1.392,5.8252-2.2511,7.4583-.8581,1.6331-2.0008,3.0098-3.4293,4.1313-1.4285,1.1195-3.1355,1.9502-5.1201,2.4902-3.5681.9705-6.889.3617-9.9596-1.8286-3.0717-2.1893-5.2518-5.65-6.5385-10.381-1.1184-4.109-1.0647-8.1077.1611-11.9928" style="fill: #fff;"/>
      <path id="path973" d="M694.455,350.7696l-10.8258,1.5672c.0963,1.2461.2441,2.5479.4397,3.9044.7558,5.2224,3.098,7.5495,7.0257,6.9811,3.4739-.5035,4.8678-3.1294,4.181-7.8797-.1824-1.2542-.4559-2.7789-.8206-4.5731M677.3692,353.2435l-14.9288,2.1619c.0912,1.6453.2097,2.9714.3556,3.9784.5187,3.5782,1.5004,6.0856,2.9481,7.5251,1.4467,1.4375,3.5782,1.9532,6.3956,1.546,2.5702-.3728,4.3329-1.394,5.2873-3.0646.9543-1.6716,1.161-4.3775.619-8.1198-.1134-.7811-.3384-2.1235-.6768-4.027M656.5563,362.1768l-2.0009-13.8174,45.1541-6.5384c1.1691,6.045,1.9309,10.2909,2.2845,12.7375.6788,4.6886.2067,8.4977-1.4142,11.4305-1.623,2.9318-4.2944,4.6683-8.0155,5.2072-3.5782.5177-6.6803-.9644-9.3042-4.4464-1.1407,5.8961-4.7646,9.2859-10.8704,10.1703-4.1131.5957-7.6022-.4853-10.4672-3.2388-2.866-2.7556-4.6541-6.59-5.3663-11.5045" style="fill: #fff;"/>
      <path id="path977" d="M682.3237,387.9102c-5.3389.0861-9.4582,1.0566-12.3576,2.9126-2.9005,1.8539-4.3218,4.5052-4.2651,7.9547.0648,4.0503,1.548,7.1169,4.4495,9.1998,2.9014,2.0829,7.0845,3.0808,12.547,2.9916,10.6991-.1733,15.9834-4.2083,15.8558-12.1012-.0588-3.6147-1.5531-6.3642-4.4819-8.2495s-6.8454-2.788-11.7477-2.708M682.187,379.4966c6.502-.1053,12.0304,1.5865,16.5862,5.0765,4.5548,3.4901,6.8809,8.215,6.9781,14.178.1064,6.5637-1.8479,11.6129-5.8637,15.1486-4.0149,3.5356-9.6993,5.3622-17.0532,5.4818-7.354.1196-13.2208-1.5986-17.6003-5.1525-4.3796-3.5559-6.6235-8.6669-6.7319-15.335-.0983-6.1291,1.9644-10.8632,6.1909-14.2044s10.0569-5.0725,17.4939-5.193" style="fill: #fff;"/>
      <path id="path981" d="M704.0071,429.5622l-1.2228,8.0104-30.5911-4.6693c-2.4243-.3698-4.5093.0679-6.2537,1.315-1.7466,1.2461-2.8153,3.1639-3.2115,5.7513-.4417,2.8964-.0416,5.264,1.2015,7.1037s3.1588,2.9562,5.7462,3.3523l30.4371,4.646-1.2218,8.0094-31.054-4.7402c-4.6419-.7081-8.0398-2.8194-10.1936-6.3328-2.1548-3.5123-2.8346-7.8666-2.0404-13.0626.7993-5.2376,2.6989-9.0822,5.7016-11.5349,3.0007-2.4527,6.894-3.3138,11.6798-2.5834l31.0227,4.7351Z" style="fill: #fff;"/>
      <path id="path985" d="M686.942,480.5763l-12.1357-3.6876c-.5542,1.395-.9462,2.4699-1.1762,3.2257-.9847,3.2398-1.2481,5.7492-.7892,7.5282.4579,1.778,2.009,3.0696,4.6531,3.873,2.1467.6524,3.8923.3039,5.2367-1.0465,1.3433-1.3504,2.5418-3.7545,3.5924-7.2131.2543-.8358.46-1.7293.619-2.6796M644.9597,485.9284l21.5817-6.1757c.3758-1.1681.9452-2.786,1.704-4.8567l-18.2487-5.5466,2.4466-8.0499,43.6831,13.2744c-.1318.4366-.5684,2.1396-1.3079,5.1069-.7385,2.9673-1.3798,5.346-1.9238,7.1351-3.3705,11.0912-9.3498,15.333-17.9366,12.7243-2.5854-.7861-4.7078-2.2683-6.3692-4.4444-1.6624-2.1771-2.5773-4.5609-2.7445-7.1534l-23.6038,6.9305,2.719-8.9445Z" style="fill: #fff;"/>
      <path id="path989" d="M665.7632,542.936l-4.4586-5.8384c1.1772-.5045,2.5692-1.4811,4.1769-2.9308s2.7151-2.8224,3.3229-4.1222c1.9026-4.0635,2.0261-7.9172.3708-11.5602-1.6554-3.642-4.797-6.5465-9.4268-8.7135-4.4029-2.0606-8.4602-2.557-12.1742-1.4842-3.713,1.0708-6.4989,3.5924-8.358,7.5626-1.2238,2.6158-1.5186,5.1049-.8804,7.4674l8.128,3.8062,2.6827-5.731,6.2649,2.9339-6.117,13.0677-18.5151-8.6669c-.6109-2.4202-.6707-5.1951-.1803-8.3265.4903-3.1304,1.3748-6.0612,2.6523-8.7885,2.7748-5.9275,6.9173-9.7174,12.4285-11.3698,5.5102-1.6523,11.4549-.9847,17.8343,2.0009,6.3783,2.9855,10.6769,7.3043,12.8955,12.9532,2.2187,5.6499,1.8296,11.6737-1.165,18.0713-2.1224,4.5345-5.2832,7.7572-9.4814,9.6688" style="fill: #fff;"/>
    </g>
    <g id="g1269">
      <path id="path993" d="M144.5689,484.2655l-11.5025,4.1151,6.1808,17.27-7.4117,2.6532-6.1798-17.27-22.4671,8.0388-3.1203-8.7185,49.1274-17.58,11.5795,32.3608-7.746,2.7718-8.4603-23.6412Z" style="fill: #fff;"/>
      <path id="path997" d="M142.9598,526.7396c-5.34,2.9531-8.9749,6.1433-10.9058,9.5706-1.9289,3.4283-1.9411,6.8676-.0335,10.3162,2.2409,4.0523,5.3835,6.349,9.4288,6.894,4.0452.544,8.8007-.6949,14.2652-3.717,10.7012-5.9184,13.8681-12.8256,9.5017-20.7205-1.9998-3.6157-4.9834-5.5881-8.9506-5.9174-3.9672-.3302-8.4025.8621-13.3058,3.5741M138.3057,518.3239c6.503-3.5964,12.9898-4.8577,19.4593-3.7818s11.3526,4.5953,14.6512,10.5593c3.6309,6.5647,4.3694,12.7101,2.2156,18.432s-6.9082,10.6171-14.2632,14.6846c-7.356,4.0685-14.1973,5.4838-20.524,4.2489-6.3277-1.236-11.3354-5.188-15.023-11.8581-3.3898-6.1301-3.8507-12.0151-1.3798-17.6539,2.4709-5.6408,7.4249-10.5168,14.864-14.6309" style="fill: #fff;"/>
      <path id="path1001" d="M169.1887,569.7835c-4.7412,3.8416-7.7622,7.6193-9.063,11.3323-1.3008,3.7119-.7112,7.0986,1.7709,10.1622,2.9146,3.5975,6.4108,5.3095,10.4884,5.1383,4.0787-.1722,8.5433-2.2227,13.395-6.1545,9.5017-7.6974,11.4124-15.0523,5.732-22.0618-2.6006-3.2104-5.883-4.6308-9.8472-4.262-3.9632.3698-8.1219,2.3189-12.4761,5.8455M163.1355,562.3121c5.7736-4.6784,11.9402-7.0541,18.4979-7.126,6.5577-.0719,11.9807,2.5398,16.2711,7.8341,4.723,5.8293,6.5253,11.7497,5.4058,17.7603-1.1205,6.0106-4.9459,11.6615-11.4762,16.9539-6.5314,5.2913-13.0201,7.8818-19.4644,7.7713-6.4462-.1115-12.0679-3.1263-16.8658-9.0488-4.41-5.4423-5.8921-11.156-4.4454-17.1413,1.4467-5.9843,5.4717-11.6524,12.077-17.0035" style="fill: #fff;"/>
      <path id="path1005" d="M224.6951,603.8097l-29.1991,32.8491-6.9204-6.1514,29.1981-32.8501-12.4052-11.0264,5.4656-6.1484,32.291,28.7015-5.4666,6.1484-12.9634-11.5227Z" style="fill: #fff;"/>
      <path id="path1009" d="M248.0612,620.9292l-6.8211,10.4773c1.1428.8571,2.3696,1.7121,3.6836,2.5671,5.0543,3.2905,8.8179,3.0362,11.2928-.7649,2.1893-3.3624.9857-6.5404-3.6106-9.5331-1.2137-.7902-2.7292-1.706-4.5447-2.7465M237.2962,637.4647l-9.4055,14.4465c1.4811,1.162,2.709,2.0616,3.6846,2.6958,3.4627,2.2551,6.3561,3.3036,8.6831,3.1466,2.326-.158,4.3765-1.5986,6.1514-4.3248,1.6189-2.4871,2.0717-4.7716,1.3575-6.8514s-2.8822-4.2985-6.503-6.6559c-.7568-.4924-2.0789-1.3119-3.9683-2.4567M229.2655,662.0714l-13.3717-8.7054,28.4494-43.6971c6.0704,3.5559,10.2899,6.1038,12.6585,7.6467,4.5366,2.9531,7.4522,6.2325,8.746,9.838,1.2937,3.6035.7679,7.208-1.5764,10.8085-2.2541,3.4617-5.8668,5.0066-10.8359,4.6328,4.2013,5.4271,4.3785,11.0953.5309,17.0055-2.5915,3.9804-6.1504,6.1605-10.6769,6.5425-4.5264.3819-9.1674-.9756-13.9238-4.0716" style="fill: #fff;"/>
      <path id="path1013" d="M286.7003,651.5531l-13.6351,14.9885,11.4286,5.1535,2.2065-20.142ZM283.1738,690.4786l.8743-11.2107-16.2995-7.3489-7.6599,8.1492-9.3832-4.2306,40.7027-39.6651,3.7018,1.6696-2.6178,56.8378-9.3184-4.2013Z" style="fill: #fff;"/>
      <path id="path1017" d="M300.6793,697.0239l14.166-50.2173,8.9121,2.5135-11.9321,42.2991,22.6931,6.4006-2.2338,7.9192-31.6052-8.9151Z" style="fill: #fff;"/>
      <path id="path1021" d="M342.2286,707.7879l7.126-51.6883,9.1735,1.2643-6.0025,43.5381,23.3566,3.2206-1.1235,8.1502-32.5301-4.4849Z" style="fill: #fff;"/>
    </g>
    <g id="g2301">
      <path id="path877" d="M409.959,168.6777c-27.2953.0766-53.9001,6.9883-78.6484,22.6328-11.1095,7.0227-20.6838,16.1604-23.1973,29.5371-2.8012,14.9004,2.7303,28.8361,10.0234,41.5938,8.2262,14.3888,17.5406,28.127,25.9219,42.4297,4.9611,8.4622,9.7236,16.6936,9.3457,26.8477-.1357,3.641-1.6531,7.2877-5.1543,8.8418-3.2449,1.4416-7.5817.3366-10.3008-1.7676-1.0992-.852-2.164-1.7448-3.1953-2.6758-4.064-3.6637-7.5821-7.847-10.9668-12.1309-1.8177,5.1164-5.3209,9.4381-9.8379,12.3008,4.3657,2.2672,8.5377,4.738,12.6367,7.9766,3.0008,2.3696,5.963,6.563,4.7402,10.5586-1.0759,3.5174-2.9938,4.8616-6.4434,5.8555-6.1129,1.7597-15.3689-1.844-21.2812-3.7344-1.7577-.5623-3.5235-1.109-5.3086-1.5801-10.4733-2.7718-20.5778-6.5421-30.6914-10.3848-4.3674-1.6594-8.7373-3.3337-13.1523-4.8594-3.6299-1.2532-7.3675-2.4458-11.125-3.2441-10.5726-2.245-26.3668-2.6249-36.8066.543-11.9807,3.6339-22.1491,12.4822-26.1406,24.5176-6.7107,20.2322-6.9391,42.6798-4.7812,63.7012,2.6735,26.0533,9.7558,51.9799,22.1387,75.1328,14.9126,27.8799,32.2502,51.253,56.0566,72.1406,8.0459,7.0601,16.513,13.6078,25.2012,19.8555,16.339,11.7548,35.9729,20.5361,55.1191,26.5508,22.5826,7.0926,46.5721,10.9827,70.252,11.0293,27.8466.0557,55.0255-6.0595,80.8652-16.2207,7.3499-2.8903,14.309-6.2386,21.2051-9.8047-16.0189,3.641-32.4262,6.2361-48.75,6.6758-16.5406.4437-32.2842-1.4313-48.2129-5.9102-3.0089-.8449-5.9957-1.7717-8.959-2.7695-19.0602-6.4037-37.459-15.8818-53.6582-27.8027-13.2623-9.76-26.3737-22.1541-35.1855-36.168-20.6689-32.8754-30.4583-59.1512-31.2637-98.4414-.2249-10.9261.9007-33.0935,6.6367-42.3652,1.0729-1.7324,2.209-3.4104,3.6172-4.8945,2.3311-2.4567,5.1-4.0365,8.1777-5.3809,4.7696-2.0829,10.091-3.6604,15.0703-5.1699,14.5803-4.414,31.7369-5.5763,43.666-16.0312l.2637-.2305s2.3006-2.0985,2.9004-2.8867l.1543-.1914c.7-.7943,1.9297-2.7773,1.9297-2.7773l.6562-1.1211c7.978-13.6391,5.5726-29.0231,6.375-44.043.3313-6.1879,1.0732-13.0646,3.3223-18.8867,1.474-3.8173,3.3705-6.5605,6.0156-9.623.2604-.2999.52-.5996.7793-.8984,6.6509-7.6366,20.2786-11.5684,29.7539-14.168,35.468-9.7327,70.861-6.8938,105.627,4.5449,15.6309,5.1424,30.6953,13.7836,43.6992,23.7969,15.793,12.161,29.512,27.0894,40.2305,43.8984,10.0488,15.7595,17.1401,32.5538,21.7871,50.6484,4.6541,18.1331,6.747,36.9595,7.2637,55.7207,1.6706-8.1411,3.025-16.3301,4.1191-24.6191,3.6329-27.5254,3.0174-55.378-3.75-82.3887-5.735-22.9007-15.3091-45.1052-27.7012-65.1895-10.5249-17.0623-23.8049-33.784-39.1309-46.793-29.8657-25.3462-64.321-45.1441-102.2812-55.3438-16.6239-4.4665-33.2498-6.8799-49.627-6.834Z" style="fill: #fff; fill-rule: evenodd;"/>
      <path id="path901" d="M171.9219,211.9082l107.0039,94.7344c1.8263-4.3347,4.8855-8.0271,8.7383-10.6328l-115.7422-84.1016Z" style="fill: #fff; fill-rule: evenodd;"/>
      <path id="path909" d="M301.1101,295.4396c-11.3121,0-20.5149,9.2028-20.5149,20.5149s9.2028,20.5148,20.5149,20.5148,20.515-9.2028,20.515-20.5148-9.2028-20.5149-20.5149-20.5149" style="fill: #fff;"/>
    </g>
  </g>
</svg>