<?xml version="1.0" encoding="UTF-8"?>
<svg data-name="图层_1" xmlns="http://www.w3.org/2000/svg" version="1.1" viewBox="0 0 800 800">
  <!-- Created by @FCLOGO 2024-12-20 GMT+8 13:21:27 . https://fclogo.top/ -->
<!-- FOR PERSONAL USE ONLY NOT FOR COMMERCIAL USE -->
  <path d="M348.2194,774.301c-.786,0-1.3752-.2173-1.7682-.6519-.393-.4352-.5284-1.03-.406-1.7856l.2518-1.6478c.122-.755.4501-1.3504.9841-1.785.5339-.4352,1.1939-.6525,1.9799-.6525.7553,0,1.3293.1987,1.7223.5954.3927.3967.551.9381.4747,1.6248h-1.2358c.0304-.3589-.0553-.637-.2573-.8357-.2024-.1981-.4979-.2974-.8869-.2974-.4197,0-.763.1167-1.03.3489-.2673.2328-.4349.5631-.5035.9903l-.2632,1.659c-.0686.4352-.0056.7686.1887,1.0015.1946.2328.5017.3489.9214.3489.389,0,.7152-.0987.9785-.2974.2632-.1981.4365-.4805.5206-.8469h1.2358c-.1372.6867-.4672,1.2306-.9897,1.631-.5228.4005-1.1616.6004-1.9169.6004ZM352.7967,774.1868l.9956-6.2943h1.1902l-.1946,1.1902c.3359-.8698.9729-1.3044,1.9113-1.3044.6712,0,1.1691.208,1.4932.624.3244.416.4293.9859.3148,1.7105l-.0686.4234h-1.2703l.0571-.3204c.0689-.4501.0115-.7953-.1714-1.0356-.1832-.2403-.4771-.3607-.8813-.3607-.4045,0-.7401.1223-1.007.3663-.2673.2446-.4349.588-.5035,1.03l-.6296,3.9711h-1.2358ZM361.9058,774.301c-.7705,0-1.3463-.2229-1.7279-.6693s-.515-1.0356-.4005-1.7682l.2518-1.6478c.0838-.488.2573-.9152.5206-1.2815s.6007-.6507,1.0129-.8524c.4119-.2024.8732-.3036,1.3845-.3036.7705,0,1.3485.2235,1.7338.6693.3852.4464.5169,1.0356.3949,1.7682l-.1717,1.1213h-3.845l-.0916.5265c-.1527.9536.2173,1.4305,1.1098,1.4305.7171,0,1.175-.2477,1.3734-.7438h1.2247c-.1679.5339-.5035.9599-1.007,1.2759-.5038.3166-1.0912.475-1.7626.475ZM361.2306,770.2157l-.0456.2862,2.6548-.0118.0459-.2856c.0686-.4656.0133-.822-.1661-1.0704-.1791-.2477-.4861-.3719-.9211-.3719-.4427,0-.7953.126-1.0586.3775-.2632.2521-.4331.6109-.5094,1.076ZM368.3258,774.301c-.6333,0-1.1027-.2117-1.4078-.6351s-.3967-1.0008-.2744-1.7335l.2744-1.7738c.1145-.7326.393-1.3119.8357-1.7397.4424-.4272.98-.6407,1.6133-.6407.4653,0,.8298.1186,1.093.3545.2632.2365.3908.5575.3834.9617h.023l.1717-1.202h1.2358l-.9956,6.2943h-1.2247l.1946-1.2014h-.023c-.122.4116-.3511.7339-.6867.9667s-.7401.3489-1.2129.3489ZM368.9324,773.2257c.389,0,.7152-.1186.9782-.3551.2632-.2359.4293-.5718.4979-1.007l.2518-1.6478c.0686-.4272.0096-.7612-.1773-1.0015-.1872-.2403-.475-.3601-.8642-.3601-.3967,0-.7249.118-.9841.3545-.2595.2365-.4234.5724-.492,1.007l-.2518,1.6478c-.0686.4427-.0133.7804.1658,1.0133.1794.2328.4712.3489.8757.3489ZM376.3477,774.1868c-.5721,0-.9937-.1565-1.2644-.4694-.271-.3123-.3607-.7512-.2691-1.3156l.538-3.3874h-1.7394l.1714-1.1219h1.7397l.2747-1.7161h1.2358l-.2747,1.7161h2.472l-.1832,1.1219h-2.4605l-.5377,3.3874c-.0764.4421.099.6637.5262.6637h1.7167l-.1717,1.1213h-1.7738ZM382.5042,774.301c-.7705,0-1.3463-.2229-1.7279-.6693s-.515-1.0356-.4005-1.7682l.2518-1.6478c.0838-.488.2573-.9152.5206-1.2815s.6007-.6507,1.0129-.8524c.4119-.2024.8732-.3036,1.3845-.3036.7705,0,1.3485.2235,1.7338.6693.3852.4464.5169,1.0356.3949,1.7682l-.1717,1.1213h-3.845l-.0916.5265c-.1527.9536.2173,1.4305,1.1098,1.4305.7171,0,1.175-.2477,1.3734-.7438h1.2247c-.1679.5339-.5035.9599-1.007,1.2759-.5038.3166-1.0912.475-1.7626.475ZM381.829,770.2157l-.0456.2862,2.6548-.0118.0459-.2856c.0686-.4656.0133-.822-.1661-1.0704-.1791-.2477-.4861-.3719-.9211-.3719-.4427,0-.7953.126-1.0586.3775-.2632.2521-.4331.6109-.5094,1.076ZM388.9243,774.301c-.6333,0-1.1008-.2117-1.4019-.6351-.3014-.4234-.3949-1.0008-.2803-1.7335l.2744-1.7738c.1145-.7326.393-1.3119.8357-1.7397.4424-.4272.98-.6407,1.6133-.6407.4653,0,.8298.1186,1.093.3545.2632.2365.3908.5575.3834.9617h.023l.2058-1.4652.2977-1.7962h1.2358l-1.3274,8.3537h-1.2247l.1946-1.2014h-.023c-.122.4116-.3511.7339-.6867.9667s-.7401.3489-1.2129.3489ZM389.5309,773.2257c.389,0,.7152-.1186.9782-.3551.2632-.2359.4293-.5718.4979-1.007l.2518-1.6478c.0761-.4272.0189-.7612-.1717-1.0015-.1909-.2403-.4805-.3601-.8698-.3601-.3967,0-.7249.118-.9841.3545-.2595.2365-.4234.5724-.492,1.007l-.2518,1.6478c-.0764.4427-.023.7804.1602,1.0133s.4768.3489.8813.3489ZM401.0175,774.301c-.4731,0-.8394-.1161-1.0986-.3489-.2595-.2328-.3852-.5551-.3775-.9667h-.0115l-.1946,1.2014h-1.2243l1.3274-8.3537h1.2358l-.2862,1.7962-.2744,1.4652h.0456c.122-.4123.353-.7345.6923-.9673.3396-.2322.7419-.3489,1.2076-.3489.633,0,1.1002.2136,1.4016.6407.3014.4278.3949,1.007.2806,1.7397l-.2747,1.7738c-.1145.7326-.3949,1.31-.8413,1.7335-.4461.4234-.9822.6351-1.6077.6351ZM400.7657,773.2257c.3967,0,.7227-.1161.9785-.3489.2555-.2328.4216-.5706.4976-1.0133l.2518-1.6478c.0689-.4346.0115-.7705-.1714-1.007-.1832-.2365-.4734-.3545-.8698-.3545-.3893,0-.7152.1198-.9785.3601s-.429.5743-.4979,1.0015l-.2518,1.6478c-.0686.4352-.0112.7711.1717,1.007.1832.2365.4731.3551.8698.3551ZM405.4694,776.2468l.1717-1.0642h1.934c.6407,0,1.007-.3017,1.0986-.9046l.1028-.6749.2061-1.1902h-.0345c-.122.4197-.3471.7438-.6752.9729-.3281.2285-.7286.3433-1.2014.3433-.6258,0-1.093-.2005-1.4019-.601s-.4104-.9443-.3033-1.631l.5836-3.6047h1.2358l-.5606,3.4793c-.0612.4116,0,.732.1832.9611s.4653.3433.8469.3433c.389,0,.7168-.1217.9841-.3663.267-.244.4309-.5836.492-1.0182l.538-3.3992h1.2358l-1.007,6.4086c-.0993.6029-.37,1.0778-.8124,1.4249-.4427.3471-.9996.5209-1.6707.5209h-1.9455ZM417.787,770.0853h3.221l.5368-1.8545h-5.4659l-1.7081,6.4419h2.1473l.5856-2.0985h3.0257l.4392-1.7081h-3.0257l.244-.7808ZM424.229,772.9158c-.5856,0-1.0249-.3904-1.0249-1.1225,0-.8784.6344-1.7569,1.6105-1.7569.488,0,.8784.244,1.0248.7808l1.9521-.8296c-.2928-1.1713-1.2689-1.9033-2.6353-1.9033-2.7817,0-4.1482,2.1473-4.1482,3.9042s1.2689,2.8305,3.0746,2.8305c1.3665,0,2.3425-.5856,2.9769-1.4153l-1.5129-1.1713c-.3904.4392-.8296.6832-1.3177.6832ZM430.9149,768.2308h-2.1473l-1.7569,6.4419h5.1242l.488-1.8545h-2.9281l1.2201-4.5874ZM439.7481,771.0125c0-1.6593-1.3177-2.9281-3.221-2.9281-2.1961,0-3.8066,1.8057-3.8066,3.8066,0,1.6593,1.3177,2.9281,3.221,2.9281,2.1961,0,3.8066-1.8057,3.8066-3.8066ZM434.9167,771.6957c0-.8296.5856-1.7081,1.5129-1.7081.7808,0,1.1713.5368,1.1713,1.2201,0,.8296-.5856,1.7081-1.5129,1.7081-.7808,0-1.1713-.5368-1.1713-1.2201ZM443.2131,772.2326h1.0737l-.1952.6832c-.1464.0488-.3416.0976-.5856.0976-.6832,0-1.2689-.3904-1.2689-1.2201,0-1.0249.732-1.9033,1.9521-1.9033.5856,0,1.1225.244,1.5129.5856l1.3665-1.3665c-.4392-.5368-1.5129-1.0737-2.7329-1.0737-2.5865,0-4.2946,1.7569-4.2946,3.8554,0,2.0497,1.6105,2.8793,3.221,2.8793.9272,0,1.8545-.2928,2.4889-.6832l.9272-3.3186h-3.1234l-.3416,1.4641ZM450.7775,768.0844c-2.1961,0-3.8066,1.8057-3.8066,3.8066,0,1.6593,1.3177,2.9281,3.221,2.9281,2.1961,0,3.8066-1.8057,3.8066-3.8066,0-1.6593-1.3177-2.9281-3.221-2.9281ZM450.3382,772.9158c-.7808,0-1.1713-.5368-1.1713-1.2201,0-.8296.5856-1.7081,1.5129-1.7081.7808,0,1.1713.5368,1.1713,1.2201,0,.8296-.5856,1.7081-1.5129,1.7081ZM437.9424,767.4987c-.0488.2928.0976.488.4392.488s.5368-.1952.6344-.488c.0488-.244-.0976-.488-.4392-.488s-.5856.244-.6344.488ZM432.1349,765.4978c-.4392,0-.732.244-.7808.5856s.0976.5856.5368.5856.732-.244.7808-.5856c.0976-.3416-.0976-.5856-.5368-.5856ZM433.0134,767.3035c-.0976.5368.1464.8784.8296.8784.6344,0,1.0737-.3904,1.1713-.8784s-.1464-.8784-.8296-.8784c-.6832,0-1.0737.3904-1.1713.8784ZM439.6017,777.552l-2.4401-1.8057h-1.5129l4.2458,3.1722,1.6105-3.1722h-.976l-.9272,1.8057ZM425.8394,767.1571l-2.0009-1.4641,23.1323-2.7817-2.1473,4.2458h1.0248l2.6841-5.3195-26.9877,3.221,2.7817,2.0985h1.5129ZM338.7186,785.7853l.6088-3.8315h2.32l-.084.5194h-1.7636l-.1837,1.1445h1.6272l-.084.5248h-1.6166l-.2573,1.6428h-.5668ZM342.97,785.8377c-.3568,0-.6228-.1005-.7978-.3019-.175-.201-.2345-.473-.1784-.8161l.2677-1.7006c.056-.3429.2029-.6148.4408-.8161.2379-.201.5355-.3019.8923-.3019s.6228.1.7979.2993c.1748.1993.2361.4707.1837.8136l-.2677,1.7057c-.0561.3431-.2039.6151-.4435.8161-.2398.2013-.5381.3019-.895.3019ZM343.0487,785.3339c.1925,0,.3483-.0524.4672-.1575.119-.1051.1942-.2571.2257-.4568l.2678-1.7006c.0315-.1993.0051-.3517-.0787-.4565-.084-.1051-.2223-.1575-.4148-.1575s-.3473.0524-.4645.1575c-.1173.1048-.1916.2571-.2231.4565l-.2677,1.7006c-.0315.1996-.0053.3517.0787.4568s.2204.1575.4094.1575ZM344.9961,785.7853l.6088-3.8315h1.202c.2379,0,.4391.0464.6036.139.1645.0928.2835.223.357.391s.091.3656.0524.5932c-.0384.2591-.14.4838-.3044.6746-.1645.1905-.3656.3209-.6036.391l.5354,1.6428h-.6194l-.4777-1.5748h-.5406l-.2466,1.5748h-.5668ZM345.8883,783.7068h.6352c.1889,0,.349-.0558.4803-.168.1313-.1119.2107-.2623.2388-.4514.0316-.1925,0-.3454-.0944-.4593-.0945-.1136-.2362-.1706-.4252-.1706h-.6352l-.1995,1.2493ZM349.545,785.7853l.6088-3.8315h1.2544c.3709,0,.6508.1048.8399.315.1889.2099.2553.4898.1993.8398-.0384.2344-.1216.4383-.2493.6114s-.2905.307-.4881.4015c-.1978.0945-.419.1418-.6639.1418h-.6928l-.2415,1.5221h-.5668ZM350.432,783.754h.6928c.1924,0,.3568-.0587.4934-.176.1364-.117.2204-.2737.2519-.4696s-.0017-.3525-.0997-.4699-.245-.1757-.441-.1757h-.6876l-.2099,1.2911ZM352.7466,785.7853l.6088-3.8315h2.2518l-.0787.5038h-1.6954l-.1731,1.0867h1.5115l-.0787.4986h-1.5115l-.1942,1.2387h1.6901l-.0787.5038h-2.2518ZM355.8434,785.7853l.6088-3.8315h1.202c.2379,0,.4391.0464.6036.139.1645.0928.2835.223.357.391s.091.3656.0524.5932c-.0384.2591-.14.4838-.3044.6746-.1645.1905-.3656.3209-.6036.391l.5354,1.6428h-.6194l-.4777-1.5748h-.5406l-.2466,1.5748h-.5668ZM356.7356,783.7068h.6352c.1889,0,.349-.0558.4803-.168.1313-.1119.2107-.2623.2388-.4514.0316-.1925,0-.3454-.0944-.4593-.0945-.1136-.2362-.1706-.4252-.1706h-.6352l-.1995,1.2493ZM360.1316,785.8377c-.385,0-.6736-.0951-.8661-.2859-.1924-.1908-.2641-.4505-.2151-.7794h.5668c-.028.1748.0105.3121.1155.4121.1051.0997.266.1495.483.1495.2029,0,.3701-.049.5012-.1469.1313-.098.2109-.2327.2389-.4044.0209-.1504.0007-.2788-.0604-.3856-.0614-.1068-.1583-.1811-.2913-.2233l-.4566-.1364c-.266-.0803-.4619-.217-.5879-.4095-.126-.1922-.1697-.4197-.1313-.6823.035-.2099.1121-.3935.2309-.551s.2729-.2799.4619-.3673.4024-.1313.6404-.1313c.3498,0,.6158.0954.7978.2859.182.1908.2485.4437.1995.7586h-.5668c.0279-.168-.0027-.3001-.092-.3964-.0891-.0963-.2301-.1444-.4225-.1444-.1889,0-.343.0447-.4619.1338-.119.0894-.1889.2144-.21.3753-.0245.1506-.007.2791.0525.3859s.1575.1811.2939.223l.4672.1469c.2624.0806.4558.2173.5801.4095.1242.1925.1653.4217.1233.6877-.035.217-.1155.4058-.2415.5667-.1259.1612-.2878.2862-.4855.3753-.1976.0894-.419.1338-.6639.1338ZM363.2651,785.8377c-.3568,0-.6228-.1005-.7978-.3019-.175-.201-.2345-.473-.1784-.8161l.2677-1.7006c.056-.3429.2029-.6148.4408-.8161.2379-.201.5355-.3019.8923-.3019s.6228.1.7979.2993c.1748.1993.2361.4707.1837.8136l-.2677,1.7057c-.0561.3431-.2039.6151-.4435.8161-.2398.2013-.5381.3019-.895.3019ZM363.3439,785.3339c.1925,0,.3483-.0524.4672-.1575.119-.1051.1942-.2571.2257-.4568l.2678-1.7006c.0315-.1993.0051-.3517-.0787-.4565-.084-.1051-.2223-.1575-.4148-.1575s-.3473.0524-.4645.1575c-.1173.1048-.1916.2571-.2231.4565l-.2677,1.7006c-.0315.1996-.0053.3517.0787.4568s.2204.1575.4094.1575ZM365.2754,785.7853l.6088-3.8315h.7086l.6194,3.186c.007-.098.0165-.217.0289-.3571.0121-.1398.0271-.2851.0446-.4354.0175-.1506.0367-.2888.0577-.4146l.315-1.9788h.525l-.609,3.8315h-.7085l-.6141-3.186c-.0071.0945-.0167.209-.0289.3437s-.0272.2757-.0446.4226c-.0177.1469-.0367.2833-.0578.4095l-.315,2.0102h-.5301ZM368.2252,785.7853l1.5851-3.8315h.7454l.3726,3.8315h-.5616l-.0735-.9711h-1.0865l-.3884.9711h-.5932ZM369.3852,784.3418h.8714l-.0893-1.1023c-.0175-.1959-.0298-.3654-.0367-.5089-.0071-.1435-.0105-.2432-.0105-.2993-.0175.0561-.0517.1558-.1024.2993s-.1146.3112-.1915.5038l-.441,1.1075ZM371.7208,785.7853l.6088-3.8315h.567l-.525,3.3118h1.6744l-.0787.5197h-2.2465ZM376.6785,785.8377c-.3673,0-.6342-.1005-.8003-.3019-.1663-.201-.2214-.475-.1654-.8213l.4357-2.7608h.567l-.4357,2.7554c-.0315.1962-.008.35.0708.4619.0787.1122.2144.168.4068.168.1925,0,.3473-.0558.4646-.168.1172-.1119.1915-.2657.2231-.4619l.4355-2.7554h.567l-.4357,2.7608c-.056.35-.2003.6245-.433.8241-.2328.1993-.5328.299-.9003.299ZM379.8435,785.8377c-.385,0-.6736-.0951-.8661-.2859-.1924-.1908-.2641-.4505-.2151-.7794h.5668c-.028.1748.0105.3121.1155.4121.1051.0997.266.1495.483.1495.2029,0,.3701-.049.5012-.1469.1313-.098.2109-.2327.2389-.4044.0209-.1504.0007-.2788-.0604-.3856-.0614-.1068-.1583-.1811-.2913-.2233l-.4566-.1364c-.266-.0803-.4619-.217-.5879-.4095-.126-.1922-.1697-.4197-.1313-.6823.035-.2099.1121-.3935.2309-.551s.2729-.2799.4619-.3673.4024-.1313.6404-.1313c.3498,0,.6158.0954.7978.2859.182.1908.2485.4437.1995.7586h-.5668c.0279-.168-.0027-.3001-.092-.3964-.0891-.0963-.2301-.1444-.4225-.1444-.1889,0-.343.0447-.4619.1338-.119.0894-.1889.2144-.21.3753-.0245.1506-.007.2791.0525.3859s.1575.1811.2939.223l.4672.1469c.2624.0806.4558.2173.5801.4095.1242.1925.1653.4217.1233.6877-.035.217-.1155.4058-.2415.5667-.1259.1612-.2878.2862-.4855.3753-.1976.0894-.419.1338-.6639.1338ZM381.9062,785.7853l.6088-3.8315h2.2518l-.0787.5038h-1.6954l-.1731,1.0867h1.5115l-.0787.4986h-1.5115l-.1942,1.2387h1.6901l-.0787.5038h-2.2518ZM386.9426,785.8377c-.3568,0-.6228-.1005-.7978-.3019-.175-.201-.2345-.473-.1784-.8161l.2677-1.7006c.056-.3429.2029-.6148.4408-.8161.2379-.201.5355-.3019.8923-.3019s.6228.1.7979.2993c.1748.1993.2361.4707.1837.8136l-.2677,1.7057c-.0561.3431-.2039.6151-.4435.8161-.2398.2013-.5381.3019-.895.3019ZM387.0213,785.3339c.1925,0,.3483-.0524.4672-.1575.119-.1051.1942-.2571.2257-.4568l.2678-1.7006c.0315-.1993.0051-.3517-.0787-.4565-.084-.1051-.2223-.1575-.4148-.1575s-.3473.0524-.4645.1575c-.1173.1048-.1916.2571-.2231.4565l-.2677,1.7006c-.0315.1996-.0053.3517.0787.4568s.2204.1575.4094.1575ZM388.9529,785.7853l.6088-3.8315h.7086l.6194,3.186c.007-.098.0165-.217.0289-.3571.0121-.1398.0271-.2851.0446-.4354.0175-.1506.0367-.2888.0577-.4146l.315-1.9788h.525l-.609,3.8315h-.7085l-.6141-3.186c-.0071.0945-.0167.209-.0289.3437s-.0272.2757-.0446.4226c-.0177.1469-.0367.2833-.0578.4095l-.315,2.0102h-.5301ZM392.249,785.7853l.6088-3.8315h.567l-.525,3.3118h1.6744l-.0787.5197h-2.2465ZM396.1174,785.7853l.2204-1.4119-.7506-2.4197h.5774l.4462,1.4486c.0279.0945.0498.1837.0656.2677.0157.084.0253.1469.0288.1888.0175-.0419.0464-.1048.0867-.1888.0402-.084.0883-.1731.1442-.2677l.8976-1.4486h.5984l-1.5275,2.4197-.2204,1.4119h-.5668ZM399.217,785.7853l.6088-3.8315h.7086l.6192,3.186c.0071-.098.0165-.217.029-.3571.012-.1398.0271-.2851.0444-.4354.0177-.1506.037-.2888.0578-.4146l.315-1.9788h.5248l-.6088,3.8315h-.7085l-.6141-3.186c-.0071.0945-.0167.209-.0289.3437s-.0272.2757-.0446.4226c-.0177.1469-.0367.2833-.0578.4095l-.315,2.0102h-.5301ZM403.5053,785.8377c-.3571,0-.6231-.1005-.7979-.3019-.1751-.201-.2344-.473-.1785-.8161l.2677-1.7006c.0561-.3429.203-.6148.4411-.8161.2378-.201.5354-.3019.8922-.3019.3571,0,.6228.1.7979.2993.1748.1993.2361.4707.1837.8136l-.2677,1.7057c-.0561.3431-.2039.6151-.4437.8161-.2395.2013-.5379.3019-.8947.3019ZM403.5839,785.3339c.1925,0,.3483-.0524.4673-.1575.1187-.1051.1942-.2571.2255-.4568l.2677-1.7006c.0316-.1993.0054-.3517-.0786-.4565-.084-.1051-.2224-.1575-.4146-.1575-.1925,0-.3474.0524-.4647.1575-.117.1048-.1914.2571-.223.4565l-.2677,1.7006c-.0316.1996-.0051.3517.0789.4568.0837.1051.2204.1575.4092.1575ZM406.3814,785.7853l.5248-3.3121h-1.0234l.084-.5194h2.6193l-.084.5194h-1.0289l-.5248,3.3121h-.567ZM409.5178,785.7853l.6088-3.8315h2.32l-.084.5194h-1.7636l-.1837,1.1445h1.6272l-.084.5248h-1.6166l-.2571,1.6428h-.567ZM413.7694,785.8377c-.3571,0-.6231-.1005-.7979-.3019-.1751-.201-.2344-.473-.1785-.8161l.2677-1.7006c.0561-.3429.203-.6148.4411-.8161.2378-.201.5354-.3019.8922-.3019.3571,0,.6228.1.7979.2993.1748.1993.2361.4707.1837.8136l-.2677,1.7057c-.0561.3431-.2039.6151-.4437.8161-.2395.2013-.5379.3019-.8947.3019ZM413.848,785.3339c.1925,0,.3483-.0524.4673-.1575.1187-.1051.1942-.2571.2255-.4568l.2677-1.7006c.0316-.1993.0054-.3517-.0786-.4565-.084-.1051-.2224-.1575-.4146-.1575-.1925,0-.3474.0524-.4647.1575-.117.1048-.1914.2571-.223.4565l-.2677,1.7006c-.0316.1996-.0051.3517.0789.4568.0837.1051.2204.1575.4092.1575ZM415.7952,785.7853l.6088-3.8315h1.202c.2381,0,.4391.0464.6037.139.1643.0928.2833.223.3568.391s.0911.3656.0527.5932c-.0387.2591-.1401.4838-.3044.6746-.1646.1905-.3659.3209-.6037.391l.5354,1.6428h-.6194l-.4776-1.5748h-.5408l-.2466,1.5748h-.567ZM416.6876,783.7068h.635c.1891,0,.3491-.0558.4804-.168.131-.1119.2107-.2623.2386-.4514.0316-.1925,0-.3454-.0945-.4593-.0943-.1136-.2361-.1706-.4252-.1706h-.635l-.1993,1.2493ZM420.905,785.8377c-.3602,0-.6308-.1005-.8107-.3019-.1803-.201-.2423-.473-.1865-.8161l.2677-1.7006c.0561-.3463.2056-.6194.4488-.8187s.545-.2993.9056-.2993c.3568,0,.6253.1008.8056.3019.1803.2013.2423.4733.1865.8161h-.567c.0313-.1993.0026-.3517-.0866-.4565-.0894-.1051-.2284-.1575-.4175-.1575-.1925,0-.3508.0524-.475.1575-.1242.1048-.2019.2554-.2335.4514l-.2677,1.7057c-.0316.1996-.0026.3517.0866.4568.0894.1051.2301.1575.4226.1575s.35-.0524.4724-.1575.1993-.2571.2309-.4568h.5667c-.0347.2275-.1145.4252-.2386.5932s-.2808.2976-.4699.3884c-.1888.0908-.4024.1364-.6404.1364ZM424.0335,785.8377c-.3571,0-.6231-.1005-.7979-.3019-.1751-.201-.2344-.473-.1785-.8161l.2677-1.7006c.0561-.3429.203-.6148.4411-.8161.2378-.201.5354-.3019.8922-.3019.3571,0,.6228.1.7979.2993.1748.1993.2361.4707.1837.8136l-.2677,1.7057c-.0561.3431-.2039.6151-.4437.8161-.2395.2013-.5379.3019-.8947.3019ZM424.1121,785.3339c.1925,0,.3483-.0524.4673-.1575.1187-.1051.1942-.2571.2255-.4568l.2677-1.7006c.0316-.1993.0054-.3517-.0786-.4565-.084-.1051-.2224-.1575-.4146-.1575-.1925,0-.3474.0524-.4647.1575-.117.1048-.1914.2571-.223.4565l-.2677,1.7006c-.0316.1996-.0051.3517.0789.4568.0837.1051.2204.1575.4092.1575ZM425.9653,785.7853l.6088-3.8315h.6874l.1837,1.2282c.0211.119.0367.2301.0473.3332.0105.1034.0194.1828.0262.2389.0177-.0561.0473-.1364.0894-.2415.0419-.1051.0908-.217.1469-.336l.5667-1.2228h.7088l-.6088,3.8315h-.5354l.2045-1.2911c.0245-.168.0578-.3525.1-.5539.0419-.201.0874-.4041.1364-.6088s.0963-.3998.1418-.5852c.0453-.1854.0874-.3483.1259-.4881l-.8554,1.8632h-.5513l-.2833-1.8632c-.0037.1364-.0105.2947-.0211.475s-.0236.3719-.0393.5747c-.0157.203-.035.4069-.0578.6114-.0228.2047-.0481.3964-.076.5749l-.2047,1.2911h-.5405ZM429.1145,785.7853l.6088-3.8315h.6874l.1837,1.2282c.0211.119.0367.2301.0473.3332.0105.1034.0194.1828.0262.2389.0177-.0561.0473-.1364.0894-.2415.0419-.1051.0908-.217.1469-.336l.5667-1.2228h.7088l-.6088,3.8315h-.5354l.2045-1.2911c.0245-.168.0578-.3525.1-.5539.0419-.201.0874-.4041.1364-.6088s.0963-.3998.1418-.5852c.0453-.1854.0874-.3483.1259-.4881l-.8554,1.8632h-.5513l-.2833-1.8632c-.0037.1364-.0105.2947-.0211.475s-.0236.3719-.0393.5747c-.0157.203-.035.4069-.0578.6114-.0228.2047-.0481.3964-.076.5749l-.2047,1.2911h-.5405ZM432.4107,785.7853l.6088-3.8315h2.2516l-.0786.5038h-1.6955l-.1731,1.0867h1.5115l-.0786.4986h-1.5118l-.1942,1.2387h1.6901l-.0786.5038h-2.2516ZM435.5073,785.7853l.6088-3.8315h1.202c.2381,0,.4391.0464.6037.139.1643.0928.2833.223.3568.391s.0911.3656.0527.5932c-.0387.2591-.1401.4838-.3044.6746-.1646.1905-.3659.3209-.6037.391l.5354,1.6428h-.6194l-.4776-1.5748h-.5408l-.2466,1.5748h-.567ZM436.3997,783.7068h.635c.1891,0,.3491-.0558.4804-.168.131-.1119.2107-.2623.2386-.4514.0316-.1925,0-.3454-.0945-.4593-.0943-.1136-.2361-.1706-.4252-.1706h-.635l-.1993,1.2493ZM439.8007,785.8377c-.3602,0-.6308-.1005-.8107-.3019-.1803-.201-.2423-.473-.1865-.8161l.2677-1.7006c.0561-.3463.2056-.6194.4488-.8187s.545-.2993.9056-.2993c.3568,0,.6253.1008.8056.3019.1803.2013.2423.4733.1865.8161h-.567c.0313-.1993.0026-.3517-.0866-.4565-.0894-.1051-.2284-.1575-.4175-.1575-.1925,0-.3508.0524-.475.1575-.1242.1048-.2019.2554-.2335.4514l-.2677,1.7057c-.0316.1996-.0026.3517.0866.4568.0894.1051.2301.1575.4226.1575s.35-.0524.4724-.1575.1993-.2571.2309-.4568h.5667c-.0347.2275-.1145.4252-.2386.5932s-.2808.2976-.4699.3884c-.1888.0908-.4024.1364-.6404.1364ZM441.8792,785.7853l.0789-.5038h.7768l.4459-2.824h-.7766l.0837-.5038h2.1258l-.084.5038h-.7766l-.4462,2.824h.7768l-.0789.5038h-2.1258ZM444.7399,785.7853l1.585-3.8315h.7452l.3728,3.8315h-.5616l-.0735-.9711h-1.0867l-.3884.9711h-.5929ZM445.8998,784.3418h.8714l-.0894-1.1023c-.0174-.1959-.0296-.3654-.0367-.5089-.0068-.1435-.0103-.2432-.0103-.2993-.0177.0561-.0518.1558-.1025.2993s-.1148.3112-.1916.5038l-.4408,1.1075ZM448.2354,785.7853l.6088-3.8315h.567l-.5248,3.3118h1.6741l-.0786.5197h-2.2465ZM453.1932,785.8377c-.3676,0-.6345-.1005-.8005-.3019-.1663-.201-.2213-.475-.1654-.8213l.4357-2.7608h.567l-.4357,2.7554c-.0316.1962-.008.35.0709.4619.0786.1122.2141.168.4066.168s.3474-.0558.4645-.168c.1173-.1119.1916-.2657.2233-.4619l.4357-2.7554h.5667l-.4357,2.7608c-.0558.35-.2002.6245-.4328.8241-.2329.1993-.5328.299-.9001.299ZM456.3581,785.8377c-.385,0-.6738-.0951-.866-.2859-.1925-.1908-.2643-.4505-.2153-.7794h.567c-.0282.1748.0105.3121.1153.4121.1051.0997.266.1495.483.1495.2028,0,.3699-.049.5012-.1469s.2107-.2327.2389-.4044c.0211-.1504.0009-.2788-.0604-.3856s-.1583-.1811-.2913-.2233l-.4568-.1364c-.266-.0803-.4619-.217-.5878-.4095-.1259-.1922-.1697-.4197-.1313-.6823.035-.2099.1119-.3935.2309-.551s.2731-.2799.4619-.3673c.1891-.0874.4024-.1313.6404-.1313.3497,0,.6157.0954.7979.2859.1817.1908.2483.4437.1993.7586h-.567c.0279-.168-.0026-.3001-.0917-.3964-.0894-.0963-.2301-.1444-.4226-.1444-.1891,0-.3429.0447-.4619.1338-.119.0894-.1891.2144-.2099.3753-.0245.1506-.0071.2791.0524.3859s.1575.1811.2939.223l.4673.1469c.2623.0806.4556.2173.5798.4095.1242.1925.1654.4217.1236.6877-.035.217-.1156.4058-.2415.5667-.1262.1612-.2879.2862-.4855.3753-.1979.0894-.4192.1338-.6641.1338ZM458.4209,785.7853l.6088-3.8315h2.2516l-.0786.5038h-1.6955l-.1731,1.0867h1.5115l-.0786.4986h-1.5118l-.1942,1.2387h1.6901l-.0786.5038h-2.2516Z" style="fill: #ccc;"/>
  <g>
    <path id="Path" d="M400,50c-112.9154,0-237.5064,33.3672-331.6207,86.5675,9.8597,339.3449,193.8889,519.0647,331.6207,613.4325,137.7438-94.3677,321.7603-274.0876,331.6207-613.4325-94.1143-53.2003-218.7149-86.5675-331.6207-86.5675Z" style="fill: #1456a2;"/>
    <path id="Path1" data-name="Path" d="M400,89.7831c-32.8628,0-67.111,3.1112-101.4221,8.8823,15.8515,192.151,97.5069,349.2294,243.1668,467.9162,90.2075-112.7163,140.218-248.8151,149.0525-406.7745-86.6363-43.9216-194.6372-70.0161-290.8032-70.0161l.006-.008Z" style="fill: #fff;"/>
    <path id="Shape" d="M400,76.0631c101.6622,0,215.0218,28.1945,304.9602,75.639-11.0347,239.0754-113.6154,429.585-304.9602,566.4719C208.6456,581.2871,106.0829,390.7775,95.0398,151.7021c89.936-47.4446,203.2907-75.639,304.9602-75.639M400,63.7201c-106.7288,0-224.7615,30.1002-317.6206,80.7647,9.4473,249.7565,116.2622,447.7609,317.6206,588.8237,201.3597-141.0628,308.1585-339.0793,317.6206-588.8237-92.8543-50.6646-210.9304-80.7647-317.6327-80.7647h.0121Z" style="fill: #fff;"/>
    <path id="Shape1" data-name="Shape" d="M365.5912,242.1751c1.5669.0394,3.125-.2467,4.5757-.84,1.5564-.8193,2.3346-2.3748,2.3346-4.6667v-38.1116c0-2.3126-.7315-3.8681-2.1945-4.6667-.8716-.49-2.4513-.7778-4.7314-.9256v-1.9989h24.3577c3.9535-.1052,7.8973.4413,11.6728,1.6177,5.852,2.0223,8.778,5.7141,8.778,11.0756.1151,3.0146-1.2145,5.9034-3.5797,7.7778-2.2216,1.8314-4.8681,3.0751-7.6963,3.6167v.7311c2.6908.4809,5.272,1.4454,7.6185,2.8467,4.2022,2.5926,6.3059,6.2223,6.3111,10.8889,0,4.3608-2.0155,7.8997-6.0466,10.6168s-9.3927,4.0626-16.0856,4.0371h-25.3148v-1.9992l.0003.0002ZM394.9129,212.4479c1.6653-1.5867,2.498-4.4075,2.498-8.4623.0837-2.6226-.4831-5.225-1.6497-7.5756-1.0817-2.0533-3.175-3.1112-6.2723-3.1112-1.6497,0-2.7859.2878-3.4318.8478s-.9572,1.5556-.9572,2.9633v17.6872c4.8714,0,8.1425-.7933,9.813-2.38v.0311-.0003ZM385.7147,239.9424c.6381,1.1356,1.8677,1.6956,3.6964,1.6956,3.7198,0,6.3137-1.0137,7.7819-3.0412s2.223-4.9104,2.2645-8.6489c0-5.5948-1.6549-9.3126-4.9648-11.1534-2.0025-1.1304-5.1438-1.6489-9.4239-1.5556v19.693c-.054,1.0467.1575,2.0901.6148,3.0333l.0311-.0233v.0004Z" style="fill: #1456a2;"/>
    <path id="Shape2" data-name="Shape" d="M423.5226,212.4129c3.2375-3.602,7.888-5.6106,12.7316-5.4989,4.8915-.1307,9.5829,1.9424,12.7775,5.6467,3.3303,3.7407,5.1159,8.6053,4.996,13.6114.1037,4.9799-1.6492,9.8203-4.9181,13.5801-3.2075,3.7333-7.9349,5.8126-12.8559,5.6545-4.8454.1223-9.5-1.8882-12.7316-5.4989-3.389-3.7585-5.1979-8.6781-5.0504-13.7358,0-5.486,1.6835-10.062,5.0504-13.7273v-.0311l.0006-.0008ZM430.9076,237.7217c.8923,3.4067,2.6744,5.11,5.3462,5.11,2.5421,0,4.21-1.2963,5.0038-3.8889.7937-2.5926,1.1906-6.8497,1.1906-12.7714,0-5.8645-.4228-10.106-1.2685-12.7244-.8456-2.6185-2.4746-3.9408-4.887-3.9667-2.6666,0-4.4487,1.706-5.3462,5.1177-.5914,2.2789-.8871,6.1445-.8871,11.5734s.2802,9.3333.8482,11.5812v-.0311.0002Z" style="fill: #1456a2;"/>
    <path id="Path2" data-name="Path" d="M487.0418,209.3232c2.4331,1.6177,3.6523,3.6919,3.6575,6.2223.0113,1.3281-.5199,2.6034-1.4707,3.5312-1.6707,1.6153-4.2085,1.9324-6.2256.7778-1.4163-.8141-2.1245-2.2996-2.1245-4.4567,0-.2333.0156-.5678.0467-1.0033v-1.4623c0-1.3844-.3191-2.3333-.9572-2.8467-.6491-.5059-1.4491-.7798-2.2723-.7778-2.4358,0-4.1711,1.3456-5.1905,4.0444-1.0807,2.9398-1.6084,6.0541-1.5564,9.1856,0,4.926.9727,9.056,2.9182,12.3901,1.9455,3.3341,4.5757,4.9985,7.8908,4.9933,1.8655.0587,3.7083-.4221,5.3072-1.3844,1.2081-.834,2.2972-1.8283,3.2373-2.9556l1.463,1.3456c-2.2132,3.2794-5.3451,5.8333-9.0036,7.3423-1.8576.7001-3.8279,1.0534-5.8131,1.0422-4.7374.1335-9.2848-1.8649-12.3889-5.4445-3.2175-3.6415-4.9357-8.3658-4.8093-13.2228-.1308-5.1384,1.6809-10.1374,5.0738-14.0001,3.4136-3.8733,7.9557-5.81,13.626-5.81,3.0316-.0708,6.0143.7721,8.5601,2.4189l.0311.07.0004.0006Z" style="fill: #1456a2;"/>
    <path id="Path3" data-name="Path" d="M495.2488,242.2958c1.1436-.0642,2.2428-.4647,3.1594-1.1511.6926-.6144,1.035-1.82,1.035-3.6167v-40.1102c0-1.5556-.2802-2.6523-.8482-3.2744-.5681-.6222-1.6809-1.0578-3.3463-1.2677v-1.9211h15.2372v22.1515c1.4263-1.7781,3.1446-3.3009,5.0815-4.5033,1.8287-1.083,3.9211-1.6402,6.0466-1.61,2.7464-.0976,5.4276.8503,7.5018,2.6523,1.9765,1.7423,2.9623,4.7289,2.9572,8.96v18.923c0,1.7681.2957,2.9348.8871,3.5.8961.6634,1.9405,1.0985,3.0427,1.2677v1.8823h-18.5054v-1.8823c1.0434-.1277,2.0357-.5244,2.8793-1.1511.5188-.4874.7782-1.5919.7782-3.3133v-19.0473c.0631-1.3668-.1187-2.7339-.537-4.0367-.5169-1.5524-2.0254-2.5533-3.6575-2.4267-1.5912.1002-3.0934.7681-4.2333,1.8823-1.4319,1.26-2.1555,2.1156-2.1555,2.5823v21.0701c0,1.7163.2594,2.8208.7782,3.3133.8466.6267,1.8414,1.0233,2.887,1.1511v1.8823h-18.9882v-1.9056l.0003-.0005Z" style="fill: #1456a2;"/>
    <path id="Path4" data-name="Path" d="M552.6008,207.887v26.7329c-.0756,1.1952.1213,2.392.5759,3.5.6641,1.3067,1.9844,1.96,3.9609,1.96,1.323-.0209,2.6099-.4352,3.6964-1.19.9425-.6422,1.8184-1.377,2.6147-2.1933v-22.3301c0-1.6411-.3346-2.7767-1.0038-3.4223-.6692-.6456-1.9455-1.0344-3.891-1.1122v-1.9444h15.6499v28.3501c0,1.6411.3113,2.7767.926,3.4223s1.821,1.0033,3.6185,1.1511v1.8123c-4.8714.4563-7.9505.8011-9.2372,1.0345-2.0565.4168-4.0861.9571-6.0777,1.6177v-5.1956c-1.4346,1.298-2.9993,2.4448-4.6692,3.4223-2.0581,1.1564-4.3781,1.7669-6.7391,1.7733-2.5572-.0067-5.0428-.8448-7.0815-2.3877-2.1867-1.61-3.2761-4.4877-3.2761-8.61v-19.9115c0-1.6644-.2646-2.7533-.7782-3.2667-.9144-.6774-1.985-1.1134-3.1127-1.2677v-1.9444h14.8244l-.0002-.0004Z" style="fill: #1456a2;"/>
    <path id="Path5" data-name="Path" d="M583.5458,242.2958c1.0494-.0465,2.0686-.3655,2.9572-.9256.8794-.6844,1.3073-1.9677,1.3073-3.8423v-23.1544c0-1.6411-.2879-2.7533-.8794-3.3444-.5914-.5911-1.7199-.9878-3.3851-1.19v-1.9444h14.9257v5.6545c1.0946-1.4902,2.3762-2.8338,3.8131-3.9977,2.1812-1.6831,4.8629-2.5893,7.6185-2.5744,3.1491,0,5.5977.7441,7.3462,2.2323,1.2068,1.1731,2.1511,2.5887,2.7703,4.1533h.5447c1.2191-1.5667,2.6549-2.9521,4.2645-4.1145,2.0491-1.4806,4.5142-2.2756,7.0426-2.2711,2.6793-.0309,5.2786.9116,7.315,2.6523,2.127,1.7681,3.1906,4.5629,3.1906,8.3845v19.8029c0,1.8252.2957,2.9919.8871,3.5.9285.6027,2.006.9366,3.1127.9645v1.8823h-18.6768v-1.8823c1.0759-.0699,2.1132-.4271,3.0039-1.0344.5681-.5133.8482-1.6567.8482-3.43v-19.0329c.0835-1.6409-.2344-3.2773-.926-4.7677-.5914-1.1278-1.7275-1.6956-3.424-1.6956-1.6127.1061-3.1375.7718-4.3112,1.8823-1.4863,1.2367-2.2334,2.0923-2.2334,2.5823v21.0701c0,1.7163.2594,2.8208.7782,3.3133.8466.6267,1.8414,1.0233,2.887,1.1511v1.8823h-18.4668v-1.8823c1.057-.062,2.078-.4058,2.9572-.9956.5914-.5133.8871-1.6723.8871-3.4689v-19.0715c.0731-1.6198-.2168-3.2353-.8482-4.7289-.5603-1.1563-1.7275-1.7344-3.5018-1.7344-1.7058.0408-3.3249.7603-4.4979,1.9989-1.3852,1.3067-2.0778,2.1312-2.0778,2.4656v21.0701c0,1.7189.2412,2.8233.7315,3.3133.84.6385,1.838,1.0365,2.887,1.1511v1.8823h-18.8482v-1.9056h.0009Z" style="fill: #1456a2;"/>
    <path id="Path6" data-name="Path" d="M431.4036,338.3653c4.1089,0,6.7418-.5548,7.8986-1.6644,1.1595-1.1278,1.7431-3.2667,1.7431-6.3933v-31.1574c.1022-1.4599-.1432-2.9232-.7159-4.27-.521-.8814-1.5113-1.3748-2.5291-1.26-1.0403.0811-2.0644.3062-3.0427.6689-.8664.2645-2.0492.6844-3.5485,1.26v-2.0533l20.4196-8.8045h1.4241v46.0832c0,2.9504.4747,4.9493,1.4241,5.9967.9494,1.0474,3.3722,1.5659,7.2683,1.5556v1.9289h-30.35v-1.9289l.0078.0389.0006-.0003Z" style="fill: #1456a2;"/>
    <path id="Shape3" data-name="Shape" d="M488.116,302.3875c.6794-1.681,1.0027-3.4846.9494-5.2967.1-2.496-.4581-4.9744-1.6186-7.1867-1.0843-1.8926-2.9545-2.8389-5.6108-2.8389-1.7533-.0556-3.4487.6307-4.6692,1.89-1.2174,1.2745-1.8732,2.9832-1.821,4.7445,0,3.0023,1.5149,5.8541,4.5446,8.5556,1.7766,1.578,3.7742,2.8882,5.9298,3.8889.9166-1.1581,1.6997-2.4156,2.3346-3.7489,0,0-.0389-.0078-.0389-.0078ZM474.7628,333.7006c1.2917,3.4015,3.5849,5.0997,6.8792,5.0947,1.8407.0142,3.6026-.745,4.8559-2.0924,1.3956-1.3948,2.0934-3.7281,2.0934-7,.0725-3.0496-1.0372-6.0092-3.0971-8.26-1.2917-1.4156-3.8469-3.3626-7.6651-5.8412-1.1692,1.6897-2.175,3.4867-3.0039,5.3667-.7799,2.1095-1.1548,4.3471-1.105,6.5956-.0302,2.089.3315,4.1651,1.0661,6.1212,0,0-.0233.0156-.0233.0155ZM468.3738,317.9819c2.0976-1.5919,4.4723-2.7812,7.0036-3.5077v-.7778c-.6278-.1556-1.8781-.9982-3.7509-2.5277-1.5551-1.2274-2.9488-2.6465-4.1478-4.2233-.9513-1.2503-1.6852-2.6518-2.1711-4.1456-.3517-1.3139-.527-2.6688-.5214-4.0289,0-3.92,1.6861-7.2516,5.0582-9.9945,3.3722-2.7429,7.7819-4.1119,13.2289-4.1067,5.0582,0,8.9311,1.146,11.6184,3.4379s4.044,4.9777,4.0699,8.0578c.0041,3.1752-1.5447,6.1521-4.1478,7.9723-1.9251,1.3928-4.0575,2.474-6.3189,3.2045v.5522c3.8442,2.7637,6.4771,5.0141,7.8986,6.7512,2.4049,2.8906,3.6941,6.5467,3.6341,10.3056,0,5.1852-1.7898,9.2271-5.3695,12.1257-3.5797,2.8985-8.1502,4.3479-13.7116,4.3479-4.0891.0119-8.0905-1.1841-11.5017-3.4379-3.5226-2.3177-5.2865-5.7271-5.2917-10.2278,0-4.1481,1.4734-7.4149,4.4202-9.8001v.0233l.0004-.0004Z" style="fill: #1456a2;"/>
    <path id="b" d="M524.0696,319.7307v-23.0229h-.5525l-15.8056,22.2673v.7778l16.3572-.0233.001.0011ZM504.5057,318.3384c.2386-.363.9649-1.4,2.1789-3.1112l8.4122-11.9623,10.8947-14.3428,3.2761-4.2233h6.4434v35.0002h5.0271v8.9989h-5.0504v11.5734h-11.6728v-11.5423h-20.1553v-9.1933c.1905-.4141.4143-.8121.6692-1.19l-.0233-.0078v.0006Z" style="fill: #1456a2;"/>
    <path d="M569.0388,302.3875c.6764-1.6818.9995-3.4848.9494-5.2967.1-2.496-.4581-4.9744-1.6186-7.1867-1.0817-1.89-2.9572-2.8389-5.6108-2.8389-1.7533-.0556-3.4487.6307-4.6692,1.89-1.2174,1.2745-1.8732,2.9832-1.821,4.7445,0,3.0023,1.5149,5.8541,4.5446,8.5556,1.7751,1.5762,3.7699,2.8862,5.922,3.8889.9185-1.1567,1.7017-2.4145,2.3345-3.7489,0,0-.0311-.0078-.0311-.0078ZM555.6857,333.7006c1.2917,3.4015,3.5823,5.0997,6.8714,5.0945,1.8432.0156,3.608-.7436,4.8637-2.0923,1.3956-1.3948,2.0934-3.7281,2.0934-7,.0746-3.0485-1.0323-6.008-3.0894-8.26-1.2917-1.4156-3.8469-3.3626-7.6651-5.8412-1.1722,1.6879-2.1782,3.485-3.0039,5.3667-.7799,2.1095-1.1548,4.3471-1.105,6.5956-.0338,2.0893.3278,4.1662,1.0661,6.1212,0,0-.0311.0156-.031.0156ZM549.3045,317.9819c2.0976-1.5919,4.4723-2.7812,7.0036-3.5077v-.7778c-.6278-.1556-1.8781-.9982-3.7509-2.5277-1.5553-1.2297-2.9512-2.6484-4.1555-4.2233-.9458-1.2538-1.6793-2.6543-2.1711-4.1456-.3453-1.315-.518-2.6693-.5136-4.0289,0-3.92,1.6861-7.2516,5.0582-9.9945,3.3722-2.7429,7.7819-4.1119,13.2289-4.1067,5.0582,0,8.9311,1.146,11.6184,3.4379s4.044,4.9777,4.0699,8.0578c.0041,3.1752-1.5447,6.1521-4.1478,7.9723-1.9267,1.3948-4.0619,2.4763-6.3267,3.2045v.5522c3.8494,2.7637,6.4849,5.0141,7.9064,6.7512,2.4018,2.8924,3.6907,6.5472,3.6341,10.3056,0,5.1852-1.7898,9.2271-5.3695,12.1257-3.5797,2.8985-8.1502,4.3479-13.7116,4.3479-4.0891.0119-8.0905-1.1841-11.5017-3.4379-3.5329-2.3177-5.2969-5.7271-5.2917-10.2278,0-4.1481,1.4734-7.4149,4.4202-9.8001v.0233l.0004-.0004Z" style="fill: #1456a2;"/>
    <path id="Path7" data-name="Path" d="M201.1748,182.2283h-83.1882v3.2823s.179,1.6411,2.5525,1.82,11.5328,2.1,15.5401,11.0368c4.0076,8.9368,68.2322,154.0008,68.2322,154.0008.9508.2581,1.9331.3812,2.9182.3656.8707.069,1.7424-.1203,2.5058-.5444l58.8619-147.2301s4.5057-8.9289,8.7079-13.7273c3.463-3.9667,6.5601-3.5,8.9336-4.0444,2.3735-.5444,2.9182-1.7423,2.9182-2.6523v-2.31h-51.361v1.8823c.1406,1.3439,1.1579,2.4306,2.4902,2.66,4.389.1867,16.1785.7078,18.2484,7.8633,2.0077,6.93-3.6419,18.7287-3.6419,18.7287l-33.7112,83.0434-40.0149-91.1175s-3.8287-9.3333-.5525-13.8528c3.2761-4.5189,10.3499-4.3245,13.813-4.1456,3.463.1789,5.6496-1.0889,6.2256-1.82.5759-.7311.5447-3.2823.5447-3.2823l-.0233.0389.0008.0048Z" style="fill: #fff;"/>
    <path id="a" d="M409.3535,463.7746h-84.7222s0,4.4645,3.6185,4.8223c1.751.1789,15.5244,1.9056,16.3415,8.5556.179,1.4311.537,120.2534.537,120.2534,0,0,.3035,19.0715-3.0427,22.1129-2.9416,2.6677-13.3689,5.4445-15.8599,6.1133-.3212.0934-.5468.3815-.5603.7155l-.1245,2.7223c0,.4296.3484.7778.7782.7778h139.7956l9.9453-53.8616c.0454-.2469-.0312-.5004-.2056-.6809s-.4253-.2658-.6737-.229l-4.4824.7c-.2929.0458-.5342.2539-.6225.5367-.9183,3.1967-7.1205,21.6772-19.6725,32.1929-12.2875,10.2901-19.8439,12.6073-27.486,13.8915-7.2761,1.2212-18.7227,1.96-24.9805.5289-4.5836-1.0422-9.7897-4.8067-11.4394-6.79-.8949-1.0655-.7159-13.6344-.7159-13.6344v-115.112s0-10.8889,3.7587-13.8915c3.7587-3.0023,11.6728-4.6667,15.7272-4.83s4.0622-4.1689,4.0622-4.1689v-.7233h.0233l.0009-.0013Z" style="fill: #fff;"/>
    <path d="M305.2943,360.0775v-9.1312c0-.4296-.3484-.7778-.7782-.7778h-13.7346v-34.9459c0-8.6256,5.1984-13.2228,9.8597-14.5601,2.4669-.7,6.5134-.1711,8.2721,1.0578,2.2022,1.5556,1.4086,3.1656.5292,4.7523-.8794,1.5867-4.0466,2.9477-4.3967,12.4444-.3502,9.4968,5.6341,11.9701,14.5601,12.1487s12.5059-6.5178,12.8559-10.8889c.3109-5.0948-.868-10.17-3.393-14.6072-.0175-.048-.0383-.0948-.0622-.14-.1012-.1789-.2257-.3345-.3268-.5056s-.2412-.3811-.3735-.5756c-5.8442-8.8901-18.7384-10.9356-26.6146-11.2545-1.5564-.0622-4.2567,0-4.4202,0-.5681,0-1.1361.0467-1.7043.0933-7.0036.5133-14.0073,2.8233-21.9765,7.6067-15.4942,9.3333-15.2685,29.1672-15.2685,29.1672l.1712,20.2229h-11.8752c-.4298,0-.7782.3482-.7782.7778v9.1312c0,.4296.3484.7778.7782.7778h11.8518v205.9821c10.2305,12.7968,21.0013,25.2931,32.31,37.4888v-243.4444h13.7346c.2133.0003.4174-.087.5645-.2414s.2244-.3624.2137-.5753l.0017-.0033Z" style="fill: #fff;"/>
  </g>
</svg>