<?xml version="1.0" encoding="UTF-8"?>
<svg id="_图层_1" data-name="图层_1" xmlns="http://www.w3.org/2000/svg" version="1.1" viewBox="0 0 800 800">
  <!-- Created by @FCLOGO 2024-12-5 GMT+8 15:27:32 . https://fclogo.top/ -->
<!-- FOR PERSONAL USE ONLY NOT FOR COMMERCIAL USE -->
  <defs>
    <style>
      .st0 {
        fill: #ccc;
      }

      .st1 {
        fill: #0a2240;
      }
    </style>
  </defs>
  <path class="st0" d="M348.22,774.3c-.79,0-1.38-.22-1.77-.65-.39-.44-.53-1.03-.41-1.79l.25-1.65c.12-.75.45-1.35.98-1.78.53-.44,1.19-.65,1.98-.65s1.33.2,1.72.6c.39.4.55.94.47,1.62h-1.24c.03-.36-.06-.64-.26-.84-.2-.2-.5-.3-.89-.3-.42,0-.76.12-1.03.35-.27.23-.43.56-.5.99l-.26,1.66c-.07.44,0,.77.19,1,.19.23.5.35.92.35.39,0,.72-.1.98-.3.26-.2.44-.48.52-.85h1.24c-.14.69-.47,1.23-.99,1.63-.52.4-1.16.6-1.92.6ZM352.8,774.19l1-6.29h1.19l-.19,1.19c.34-.87.97-1.3,1.91-1.3.67,0,1.17.21,1.49.62.32.42.43.99.31,1.71l-.07.42h-1.27l.06-.32c.07-.45.01-.8-.17-1.04-.18-.24-.48-.36-.88-.36s-.74.12-1.01.37c-.27.24-.43.59-.5,1.03l-.63,3.97h-1.24ZM361.91,774.3c-.77,0-1.35-.22-1.73-.67s-.52-1.04-.4-1.77l.25-1.65c.08-.49.26-.92.52-1.28s.6-.65,1.01-.85c.41-.2.87-.3,1.38-.3.77,0,1.35.22,1.73.67.39.45.52,1.04.39,1.77l-.17,1.12h-3.85l-.09.53c-.15.95.22,1.43,1.11,1.43.72,0,1.17-.25,1.37-.74h1.22c-.17.53-.5.96-1.01,1.28-.5.32-1.09.47-1.76.47ZM361.23,770.22l-.05.29h2.65s.05-.3.05-.3c.07-.47.01-.82-.17-1.07-.18-.25-.49-.37-.92-.37s-.8.13-1.06.38c-.26.25-.43.61-.51,1.08ZM368.33,774.3c-.63,0-1.1-.21-1.41-.64s-.4-1-.27-1.73l.27-1.77c.11-.73.39-1.31.84-1.74.44-.43.98-.64,1.61-.64.47,0,.83.12,1.09.35.26.24.39.56.38.96h.02l.17-1.2h1.24l-1,6.29h-1.22l.19-1.2h-.02c-.12.41-.35.73-.69.97s-.74.35-1.21.35ZM368.93,773.23c.39,0,.72-.12.98-.36.26-.24.43-.57.5-1.01l.25-1.65c.07-.43,0-.76-.18-1-.19-.24-.47-.36-.86-.36s-.72.12-.98.35c-.26.24-.42.57-.49,1.01l-.25,1.65c-.07.44-.01.78.17,1.01.18.23.47.35.88.35ZM376.35,774.19c-.57,0-.99-.16-1.26-.47-.27-.31-.36-.75-.27-1.32l.54-3.39h-1.74l.17-1.12h1.74l.27-1.72h1.24l-.27,1.72h2.47l-.18,1.12h-2.46l-.54,3.39c-.08.44.1.66.53.66h1.72l-.17,1.12h-1.77ZM382.5,774.3c-.77,0-1.35-.22-1.73-.67s-.52-1.04-.4-1.77l.25-1.65c.08-.49.26-.92.52-1.28s.6-.65,1.01-.85c.41-.2.87-.3,1.38-.3.77,0,1.35.22,1.73.67.39.45.52,1.04.39,1.77l-.17,1.12h-3.85l-.09.53c-.15.95.22,1.43,1.11,1.43.72,0,1.17-.25,1.37-.74h1.22c-.17.53-.5.96-1.01,1.28-.5.32-1.09.47-1.76.47ZM381.83,770.22l-.05.29h2.65s.05-.3.05-.3c.07-.47.01-.82-.17-1.07-.18-.25-.49-.37-.92-.37s-.8.13-1.06.38c-.26.25-.43.61-.51,1.08ZM388.92,774.3c-.63,0-1.1-.21-1.4-.64-.3-.42-.39-1-.28-1.73l.27-1.77c.11-.73.39-1.31.84-1.74.44-.43.98-.64,1.61-.64.47,0,.83.12,1.09.35.26.24.39.56.38.96h.02l.21-1.47.3-1.8h1.24l-1.33,8.35h-1.22l.19-1.2h-.02c-.12.41-.35.73-.69.97s-.74.35-1.21.35ZM389.53,773.23c.39,0,.72-.12.98-.36.26-.24.43-.57.5-1.01l.25-1.65c.08-.43.02-.76-.17-1-.19-.24-.48-.36-.87-.36s-.72.12-.98.35c-.26.24-.42.57-.49,1.01l-.25,1.65c-.08.44-.02.78.16,1.01s.48.35.88.35ZM401.02,774.3c-.47,0-.84-.12-1.1-.35-.26-.23-.39-.56-.38-.97h-.01l-.19,1.2h-1.22l1.33-8.35h1.24l-.29,1.8-.27,1.47h.05c.12-.41.35-.73.69-.97.34-.23.74-.35,1.21-.35.63,0,1.1.21,1.4.64.3.43.39,1.01.28,1.74l-.27,1.77c-.11.73-.39,1.31-.84,1.73-.45.42-.98.64-1.61.64ZM400.77,773.23c.4,0,.72-.12.98-.35.26-.23.42-.57.5-1.01l.25-1.65c.07-.43.01-.77-.17-1.01-.18-.24-.47-.35-.87-.35s-.72.12-.98.36-.43.57-.5,1l-.25,1.65c-.07.44-.01.77.17,1.01.18.24.47.36.87.36ZM405.47,776.25l.17-1.06h1.93c.64,0,1.01-.3,1.1-.9l.1-.67.21-1.19h-.03c-.12.42-.35.74-.68.97-.33.23-.73.34-1.2.34-.63,0-1.09-.2-1.4-.6s-.41-.94-.3-1.63l.58-3.6h1.24l-.56,3.48c-.06.41,0,.73.18.96s.47.34.85.34.72-.12.98-.37c.27-.24.43-.58.49-1.02l.54-3.4h1.24l-1.01,6.41c-.1.6-.37,1.08-.81,1.42-.44.35-1,.52-1.67.52h-1.95ZM417.79,770.09h3.22l.54-1.85h-5.47l-1.71,6.44h2.15l.59-2.1h3.03l.44-1.71h-3.03l.24-.78ZM424.23,772.92c-.59,0-1.02-.39-1.02-1.12,0-.88.63-1.76,1.61-1.76.49,0,.88.24,1.02.78l1.95-.83c-.29-1.17-1.27-1.9-2.64-1.9-2.78,0-4.15,2.15-4.15,3.9s1.27,2.83,3.07,2.83c1.37,0,2.34-.59,2.98-1.42l-1.51-1.17c-.39.44-.83.68-1.32.68ZM430.91,768.23h-2.15l-1.76,6.44h5.12l.49-1.85h-2.93l1.22-4.59ZM439.75,771.01c0-1.66-1.32-2.93-3.22-2.93-2.2,0-3.81,1.81-3.81,3.81,0,1.66,1.32,2.93,3.22,2.93,2.2,0,3.81-1.81,3.81-3.81ZM434.92,771.7c0-.83.59-1.71,1.51-1.71.78,0,1.17.54,1.17,1.22,0,.83-.59,1.71-1.51,1.71-.78,0-1.17-.54-1.17-1.22ZM443.21,772.23h1.07l-.2.68c-.15.05-.34.1-.59.1-.68,0-1.27-.39-1.27-1.22,0-1.02.73-1.9,1.95-1.9.59,0,1.12.24,1.51.59l1.37-1.37c-.44-.54-1.51-1.07-2.73-1.07-2.59,0-4.29,1.76-4.29,3.86s1.61,2.88,3.22,2.88c.93,0,1.85-.29,2.49-.68l.93-3.32h-3.12l-.34,1.46ZM450.78,768.08c-2.2,0-3.81,1.81-3.81,3.81,0,1.66,1.32,2.93,3.22,2.93,2.2,0,3.81-1.81,3.81-3.81,0-1.66-1.32-2.93-3.22-2.93ZM450.34,772.92c-.78,0-1.17-.54-1.17-1.22,0-.83.59-1.71,1.51-1.71.78,0,1.17.54,1.17,1.22,0,.83-.59,1.71-1.51,1.71ZM437.94,767.5c-.05.29.1.49.44.49s.54-.2.63-.49c.05-.24-.1-.49-.44-.49s-.59.24-.63.49ZM432.13,765.5c-.44,0-.73.24-.78.59s.1.59.54.59.73-.24.78-.59c.1-.34-.1-.59-.54-.59ZM433.01,767.3c-.1.54.15.88.83.88.63,0,1.07-.39,1.17-.88s-.15-.88-.83-.88c-.68,0-1.07.39-1.17.88ZM439.6,777.55l-2.44-1.81h-1.51l4.25,3.17,1.61-3.17h-.98l-.93,1.81ZM425.84,767.16l-2-1.46,23.13-2.78-2.15,4.25h1.02l2.68-5.32-26.99,3.22,2.78,2.1h1.51ZM338.72,785.79l.61-3.83h2.32l-.08.52h-1.76l-.18,1.14h1.63l-.08.52h-1.62l-.26,1.64h-.57ZM342.97,785.84c-.36,0-.62-.1-.8-.3-.17-.2-.23-.47-.18-.82l.27-1.7c.06-.34.2-.61.44-.82.24-.2.54-.3.89-.3s.62.1.8.3c.17.2.24.47.18.81l-.27,1.71c-.06.34-.2.62-.44.82-.24.2-.54.3-.9.3ZM343.05,785.33c.19,0,.35-.05.47-.16.12-.11.19-.26.23-.46l.27-1.7c.03-.2,0-.35-.08-.46-.08-.11-.22-.16-.41-.16s-.35.05-.46.16c-.12.1-.19.26-.22.46l-.27,1.7c-.03.2,0,.35.08.46s.22.16.41.16ZM345,785.79l.61-3.83h1.2c.24,0,.44.05.6.14.16.09.28.22.36.39s.09.37.05.59c-.04.26-.14.48-.3.67-.16.19-.37.32-.6.39l.54,1.64h-.62l-.48-1.57h-.54l-.25,1.57h-.57ZM345.89,783.71h.64c.19,0,.35-.06.48-.17.13-.11.21-.26.24-.45.03-.19,0-.35-.09-.46-.09-.11-.24-.17-.43-.17h-.64l-.2,1.25ZM349.54,785.79l.61-3.83h1.25c.37,0,.65.1.84.31.19.21.26.49.2.84-.04.23-.12.44-.25.61s-.29.31-.49.4c-.2.09-.42.14-.66.14h-.69l-.24,1.52h-.57ZM350.43,783.75h.69c.19,0,.36-.06.49-.18.14-.12.22-.27.25-.47s0-.35-.1-.47-.25-.18-.44-.18h-.69l-.21,1.29ZM352.75,785.79l.61-3.83h2.25l-.08.5h-1.7l-.17,1.09h1.51l-.08.5h-1.51l-.19,1.24h1.69l-.08.5h-2.25ZM355.84,785.79l.61-3.83h1.2c.24,0,.44.05.6.14.16.09.28.22.36.39s.09.37.05.59c-.04.26-.14.48-.3.67-.16.19-.37.32-.6.39l.54,1.64h-.62l-.48-1.57h-.54l-.25,1.57h-.57ZM356.74,783.71h.64c.19,0,.35-.06.48-.17.13-.11.21-.26.24-.45.03-.19,0-.35-.09-.46-.09-.11-.24-.17-.43-.17h-.64l-.2,1.25ZM360.13,785.84c-.39,0-.67-.1-.87-.29-.19-.19-.26-.45-.22-.78h.57c-.03.17.01.31.12.41.11.1.27.15.48.15.2,0,.37-.05.5-.15.13-.1.21-.23.24-.4.02-.15,0-.28-.06-.39-.06-.11-.16-.18-.29-.22l-.46-.14c-.27-.08-.46-.22-.59-.41-.13-.19-.17-.42-.13-.68.04-.21.11-.39.23-.55s.27-.28.46-.37.4-.13.64-.13c.35,0,.62.1.8.29.18.19.25.44.2.76h-.57c.03-.17,0-.3-.09-.4-.09-.1-.23-.14-.42-.14s-.34.04-.46.13c-.12.09-.19.21-.21.38-.02.15,0,.28.05.39s.16.18.29.22l.47.15c.26.08.46.22.58.41.12.19.17.42.12.69-.04.22-.12.41-.24.57-.13.16-.29.29-.49.38-.2.09-.42.13-.66.13ZM363.27,785.84c-.36,0-.62-.1-.8-.3-.17-.2-.23-.47-.18-.82l.27-1.7c.06-.34.2-.61.44-.82.24-.2.54-.3.89-.3s.62.1.8.3c.17.2.24.47.18.81l-.27,1.71c-.06.34-.2.62-.44.82-.24.2-.54.3-.9.3ZM363.34,785.33c.19,0,.35-.05.47-.16.12-.11.19-.26.23-.46l.27-1.7c.03-.2,0-.35-.08-.46-.08-.11-.22-.16-.41-.16s-.35.05-.46.16c-.12.1-.19.26-.22.46l-.27,1.7c-.03.2,0,.35.08.46s.22.16.41.16ZM365.28,785.79l.61-3.83h.71l.62,3.19c0-.1.02-.22.03-.36.01-.14.03-.29.04-.44.02-.15.04-.29.06-.41l.31-1.98h.52l-.61,3.83h-.71l-.61-3.19c0,.09-.02.21-.03.34s-.03.28-.04.42c-.02.15-.04.28-.06.41l-.31,2.01h-.53ZM368.23,785.79l1.59-3.83h.75l.37,3.83h-.56l-.07-.97h-1.09l-.39.97h-.59ZM369.39,784.34h.87l-.09-1.1c-.02-.2-.03-.37-.04-.51,0-.14-.01-.24-.01-.3-.02.06-.05.16-.1.3s-.11.31-.19.5l-.44,1.11ZM371.72,785.79l.61-3.83h.57l-.52,3.31h1.67l-.08.52h-2.25ZM376.68,785.84c-.37,0-.63-.1-.8-.3-.17-.2-.22-.47-.17-.82l.44-2.76h.57l-.44,2.76c-.03.2,0,.35.07.46.08.11.21.17.41.17s.35-.06.46-.17c.12-.11.19-.27.22-.46l.44-2.76h.57l-.44,2.76c-.06.35-.2.62-.43.82-.23.2-.53.3-.9.3ZM379.84,785.84c-.39,0-.67-.1-.87-.29-.19-.19-.26-.45-.22-.78h.57c-.03.17.01.31.12.41.11.1.27.15.48.15.2,0,.37-.05.5-.15.13-.1.21-.23.24-.4.02-.15,0-.28-.06-.39-.06-.11-.16-.18-.29-.22l-.46-.14c-.27-.08-.46-.22-.59-.41-.13-.19-.17-.42-.13-.68.04-.21.11-.39.23-.55s.27-.28.46-.37.4-.13.64-.13c.35,0,.62.1.8.29.18.19.25.44.2.76h-.57c.03-.17,0-.3-.09-.4-.09-.1-.23-.14-.42-.14s-.34.04-.46.13c-.12.09-.19.21-.21.38-.02.15,0,.28.05.39s.16.18.29.22l.47.15c.26.08.46.22.58.41.12.19.17.42.12.69-.04.22-.12.41-.24.57-.13.16-.29.29-.49.38-.2.09-.42.13-.66.13ZM381.91,785.79l.61-3.83h2.25l-.08.5h-1.7l-.17,1.09h1.51l-.08.5h-1.51l-.19,1.24h1.69l-.08.5h-2.25ZM386.94,785.84c-.36,0-.62-.1-.8-.3-.17-.2-.23-.47-.18-.82l.27-1.7c.06-.34.2-.61.44-.82.24-.2.54-.3.89-.3s.62.1.8.3c.17.2.24.47.18.81l-.27,1.71c-.06.34-.2.62-.44.82-.24.2-.54.3-.9.3ZM387.02,785.33c.19,0,.35-.05.47-.16.12-.11.19-.26.23-.46l.27-1.7c.03-.2,0-.35-.08-.46-.08-.11-.22-.16-.41-.16s-.35.05-.46.16c-.12.1-.19.26-.22.46l-.27,1.7c-.03.2,0,.35.08.46s.22.16.41.16ZM388.95,785.79l.61-3.83h.71l.62,3.19c0-.1.02-.22.03-.36.01-.14.03-.29.04-.44.02-.15.04-.29.06-.41l.31-1.98h.52l-.61,3.83h-.71l-.61-3.19c0,.09-.02.21-.03.34s-.03.28-.04.42c-.02.15-.04.28-.06.41l-.31,2.01h-.53ZM392.25,785.79l.61-3.83h.57l-.52,3.31h1.67l-.08.52h-2.25ZM396.12,785.79l.22-1.41-.75-2.42h.58l.45,1.45c.03.09.05.18.07.27.02.08.03.15.03.19.02-.04.05-.1.09-.19.04-.08.09-.17.14-.27l.9-1.45h.6l-1.53,2.42-.22,1.41h-.57ZM399.22,785.79l.61-3.83h.71l.62,3.19c0-.1.02-.22.03-.36.01-.14.03-.29.04-.44.02-.15.04-.29.06-.41l.31-1.98h.52l-.61,3.83h-.71l-.61-3.19c0,.09-.02.21-.03.34s-.03.28-.04.42c-.02.15-.04.28-.06.41l-.31,2.01h-.53ZM403.51,785.84c-.36,0-.62-.1-.8-.3-.18-.2-.23-.47-.18-.82l.27-1.7c.06-.34.2-.61.44-.82.24-.2.54-.3.89-.3s.62.1.8.3c.17.2.24.47.18.81l-.27,1.71c-.06.34-.2.62-.44.82-.24.2-.54.3-.89.3ZM403.58,785.33c.19,0,.35-.05.47-.16.12-.11.19-.26.23-.46l.27-1.7c.03-.2,0-.35-.08-.46-.08-.11-.22-.16-.41-.16s-.35.05-.46.16c-.12.1-.19.26-.22.46l-.27,1.7c-.03.2,0,.35.08.46.08.11.22.16.41.16ZM406.38,785.79l.52-3.31h-1.02l.08-.52h2.62l-.08.52h-1.03l-.52,3.31h-.57ZM409.52,785.79l.61-3.83h2.32l-.08.52h-1.76l-.18,1.14h1.63l-.08.52h-1.62l-.26,1.64h-.57ZM413.77,785.84c-.36,0-.62-.1-.8-.3-.18-.2-.23-.47-.18-.82l.27-1.7c.06-.34.2-.61.44-.82.24-.2.54-.3.89-.3s.62.1.8.3c.17.2.24.47.18.81l-.27,1.71c-.06.34-.2.62-.44.82-.24.2-.54.3-.89.3ZM413.85,785.33c.19,0,.35-.05.47-.16.12-.11.19-.26.23-.46l.27-1.7c.03-.2,0-.35-.08-.46-.08-.11-.22-.16-.41-.16s-.35.05-.46.16c-.12.1-.19.26-.22.46l-.27,1.7c-.03.2,0,.35.08.46.08.11.22.16.41.16ZM415.8,785.79l.61-3.83h1.2c.24,0,.44.05.6.14.16.09.28.22.36.39s.09.37.05.59c-.04.26-.14.48-.3.67-.16.19-.37.32-.6.39l.54,1.64h-.62l-.48-1.57h-.54l-.25,1.57h-.57ZM416.69,783.71h.64c.19,0,.35-.06.48-.17.13-.11.21-.26.24-.45.03-.19,0-.35-.09-.46-.09-.11-.24-.17-.43-.17h-.64l-.2,1.25ZM420.91,785.84c-.36,0-.63-.1-.81-.3-.18-.2-.24-.47-.19-.82l.27-1.7c.06-.35.21-.62.45-.82s.55-.3.91-.3.63.1.81.3c.18.2.24.47.19.82h-.57c.03-.2,0-.35-.09-.46-.09-.11-.23-.16-.42-.16s-.35.05-.47.16c-.12.1-.2.26-.23.45l-.27,1.71c-.03.2,0,.35.09.46.09.11.23.16.42.16s.35-.05.47-.16.2-.26.23-.46h.57c-.03.23-.11.43-.24.59s-.28.3-.47.39c-.19.09-.4.14-.64.14ZM424.03,785.84c-.36,0-.62-.1-.8-.3-.18-.2-.23-.47-.18-.82l.27-1.7c.06-.34.2-.61.44-.82.24-.2.54-.3.89-.3s.62.1.8.3c.17.2.24.47.18.81l-.27,1.71c-.06.34-.2.62-.44.82-.24.2-.54.3-.89.3ZM424.11,785.33c.19,0,.35-.05.47-.16.12-.11.19-.26.23-.46l.27-1.7c.03-.2,0-.35-.08-.46-.08-.11-.22-.16-.41-.16s-.35.05-.46.16c-.12.1-.19.26-.22.46l-.27,1.7c-.03.2,0,.35.08.46.08.11.22.16.41.16ZM425.97,785.79l.61-3.83h.69l.18,1.23c.02.12.04.23.05.33.01.1.02.18.03.24.02-.06.05-.14.09-.24.04-.11.09-.22.15-.34l.57-1.22h.71l-.61,3.83h-.54l.2-1.29c.02-.17.06-.35.1-.55.04-.2.09-.4.14-.61s.1-.4.14-.59c.05-.19.09-.35.13-.49l-.86,1.86h-.55l-.28-1.86c0,.14-.01.29-.02.47s-.02.37-.04.57c-.02.2-.04.41-.06.61-.02.2-.05.4-.08.57l-.2,1.29h-.54ZM429.11,785.79l.61-3.83h.69l.18,1.23c.02.12.04.23.05.33.01.1.02.18.03.24.02-.06.05-.14.09-.24.04-.11.09-.22.15-.34l.57-1.22h.71l-.61,3.83h-.54l.2-1.29c.02-.17.06-.35.1-.55.04-.2.09-.4.14-.61s.1-.4.14-.59c.05-.19.09-.35.13-.49l-.86,1.86h-.55l-.28-1.86c0,.14-.01.29-.02.47s-.02.37-.04.57c-.02.2-.04.41-.06.61-.02.2-.05.4-.08.57l-.2,1.29h-.54ZM432.41,785.79l.61-3.83h2.25l-.08.5h-1.7l-.17,1.09h1.51l-.08.5h-1.51l-.19,1.24h1.69l-.08.5h-2.25ZM435.51,785.79l.61-3.83h1.2c.24,0,.44.05.6.14.16.09.28.22.36.39s.09.37.05.59c-.04.26-.14.48-.3.67-.16.19-.37.32-.6.39l.54,1.64h-.62l-.48-1.57h-.54l-.25,1.57h-.57ZM436.4,783.71h.64c.19,0,.35-.06.48-.17.13-.11.21-.26.24-.45.03-.19,0-.35-.09-.46-.09-.11-.24-.17-.43-.17h-.64l-.2,1.25ZM439.8,785.84c-.36,0-.63-.1-.81-.3-.18-.2-.24-.47-.19-.82l.27-1.7c.06-.35.21-.62.45-.82s.55-.3.91-.3.63.1.81.3c.18.2.24.47.19.82h-.57c.03-.2,0-.35-.09-.46-.09-.11-.23-.16-.42-.16s-.35.05-.47.16c-.12.1-.2.26-.23.45l-.27,1.71c-.03.2,0,.35.09.46.09.11.23.16.42.16s.35-.05.47-.16.2-.26.23-.46h.57c-.03.23-.11.43-.24.59s-.28.3-.47.39c-.19.09-.4.14-.64.14ZM441.88,785.79l.08-.5h.78l.45-2.82h-.78l.08-.5h2.13l-.08.5h-.78l-.45,2.82h.78l-.08.5h-2.13ZM444.74,785.79l1.59-3.83h.75l.37,3.83h-.56l-.07-.97h-1.09l-.39.97h-.59ZM445.9,784.34h.87l-.09-1.1c-.02-.2-.03-.37-.04-.51,0-.14-.01-.24-.01-.3-.02.06-.05.16-.1.3s-.11.31-.19.5l-.44,1.11ZM448.24,785.79l.61-3.83h.57l-.52,3.31h1.67l-.08.52h-2.25ZM453.19,785.84c-.37,0-.63-.1-.8-.3-.17-.2-.22-.47-.17-.82l.44-2.76h.57l-.44,2.76c-.03.2,0,.35.07.46.08.11.21.17.41.17s.35-.06.46-.17c.12-.11.19-.27.22-.46l.44-2.76h.57l-.44,2.76c-.06.35-.2.62-.43.82-.23.2-.53.3-.9.3ZM456.36,785.84c-.39,0-.67-.1-.87-.29-.19-.19-.26-.45-.22-.78h.57c-.03.17.01.31.12.41.11.1.27.15.48.15.2,0,.37-.05.5-.15s.21-.23.24-.4c.02-.15,0-.28-.06-.39s-.16-.18-.29-.22l-.46-.14c-.27-.08-.46-.22-.59-.41-.13-.19-.17-.42-.13-.68.04-.21.11-.39.23-.55s.27-.28.46-.37c.19-.09.4-.13.64-.13.35,0,.62.1.8.29.18.19.25.44.2.76h-.57c.03-.17,0-.3-.09-.4-.09-.1-.23-.14-.42-.14s-.34.04-.46.13c-.12.09-.19.21-.21.38-.02.15,0,.28.05.39s.16.18.29.22l.47.15c.26.08.46.22.58.41.12.19.17.42.12.69-.04.22-.12.41-.24.57-.13.16-.29.29-.49.38-.2.09-.42.13-.66.13ZM458.42,785.79l.61-3.83h2.25l-.08.5h-1.7l-.17,1.09h1.51l-.08.5h-1.51l-.19,1.24h1.69l-.08.5h-2.25Z"/>
  <path class="st1" d="M647.48,152.43c-65.51-65.82-154.62-102.7-247.48-102.43-93.63,0-181.58,36.44-247.66,102.62-65.75,65.51-102.59,154.57-102.34,247.38,0,93.65,36.44,181.61,102.53,247.65,66.1,66.05,153.92,102.34,247.47,102.34,193.33-.03,350.03-156.77,350-350.1-.01-92.82-36.89-181.83-102.52-247.47ZM636.76,636.68c-62.65,63.01-147.91,98.31-236.76,98.05-89.44,0-173.5-34.76-236.67-97.87s-98.05-147.24-98.05-236.85c-.06-184.8,149.71-334.67,334.51-334.73h.22c184.91.08,334.75,150.05,334.66,334.96-.04,88.67-35.25,173.7-97.9,236.44ZM130.5,378.21c-7.88,0-13.64,5.32-13.64,12.71s5.55,12.03,12.25,12.03c3.25.12,6.35-1.35,8.32-3.94-.46,6.47-4.85,10.16-11.32,10.16-2.25-.07-4.45-.62-6.47-1.61l-1.85,6.22c1.85,1.15,5.32,1.85,8.32,1.85,12.25,0,18.71-7.63,18.71-20.34,0-11.53-6.46-17.09-14.32-17.09ZM130.35,396.48s-.05,0-.07,0h0c-3.47,0-6.24-2.31-6.24-5.78.14-3.45,3.04-6.13,6.49-5.99,3.25.13,5.86,2.74,5.99,5.99-.11,3.3-2.87,5.89-6.17,5.78ZM97.68,379.13h6.71v35.83h-7.62v-24.04h-8.56v-5.08c5.08,0,8.78-3,9.47-6.71ZM663.91,378.21c-7.88,0-13.63,5.32-13.63,12.49s5.54,12.01,12.25,12.01c3.69,0,6.89-1.61,8.32-3.69-.46,6.47-4.85,9.94-11.32,9.94-2.23,0-4.44-.48-6.48-1.39l-1.84,6.01c2.56,1.37,5.42,2.09,8.32,2.09,12.24,0,18.71-7.63,18.71-20.57.04-11.32-6.45-16.88-14.33-16.88ZM663.72,396.48h-.03c-3.14.17-5.83-2.23-6.01-5.38-.01-.21-.01-.43,0-.64,0-3.19,2.57-5.78,5.76-5.79.08,0,.17,0,.25,0,3.47,0,6.24,2.31,6.24,5.78.03,3.7-2.75,6.02-6.21,6.02ZM703.01,390.92c-3.38-.18-6.62,1.39-8.57,4.16.69-6.71,5.77-10.41,11.82-10.41,2.08.05,4.12.53,6.01,1.39l2.08-6.23c-2.36-1.18-4.98-1.74-7.62-1.62-11.82,0-19.88,8.09-19.88,21.03,0,10.64,6.71,16.42,14.56,16.42s13.87-5.32,13.87-12.71-5.07-12.01-12.26-12.01ZM701.39,409.18c-3.32.13-6.11-2.45-6.24-5.77,0-.08,0-.16,0-.24,0-3.69,2.78-6.01,6.24-6.01s6.23,2.31,6.23,6.01-2.77,6.01-6.23,6.01ZM314.02,642.39l-33.51,33.97-8.09-3.93,3.47-47.61,8.78,4.17-3.47,35.14,24.5-25.43,8.32,3.69ZM227.34,590.38l-12.94-11.82-30.28,32.6,6.48,6.01,11.55-12.71,3.24,3.24-5.09,18.48,7.17,6.47,5.32-19.65c5.32,2.55,11.32,1.39,15.76-3,5.28-5.74,5.03-13.6-1.2-19.62ZM221.76,604.02c-2.54,2.78-6.01,3-9.47-.23l-5.09-4.63,8.56-9.01,5.08,4.62c3.28,3,3.51,6.71.93,9.25ZM245.84,605.87l23.11,15.48-4.62,6.94-16.18-10.64-5.55,8.32,14.56,9.47-4.16,6.47-14.79-9.47-5.55,8.32,15.95,10.86-4.63,6.71-23.11-15.49,24.96-36.98ZM501.7,636.61l16.64,41.38-8.09,3.23-16.63-41.37,8.08-3.24ZM530.35,621.13c-10.4,6.01-15.25,19.18-8.08,31.66s21.03,14.56,31.43,8.78c10.64-6.23,15.49-19.41,8.32-31.9-7.42-12.48-21.26-14.55-31.67-8.55ZM549.53,654.17c-5.77,3.24-14.55,2.78-19.41-6.01-5.08-8.78-1.62-16.18,4.39-19.87,6.01-3.24,14.56-2.78,19.65,5.77,5.08,8.78,1.43,16.42-4.63,20.11ZM586.75,579.29l29.58,33.28-6.93,6.01-36.29-10.17,21.27,23.81-6.47,5.77-29.82-33.51,8.32-7.17,33.51,9.71-19.87-21.96,6.7-5.77ZM339.68,648.63c-11.82-2.78-24.5,3.23-27.73,17.33-3.7,14.1,4.85,25.2,16.64,27.97,11.82,2.95,24.49-3.23,27.73-17.11,3.7-14.09-4.85-25.42-16.64-28.19ZM347.81,674.52c-2.55,9.94-10.64,12.71-17.11,11.32-6.71-1.62-12.49-8.09-10.17-17.8,2.54-9.94,10.64-12.7,17.11-11.09,6.67,1.39,12.44,7.86,10.17,17.57ZM377.81,692.54l21.03,1.16-.46,8.55-29.82-2.08,2.78-44.61,8.77.7-2.3,36.28ZM487.13,651.63l-13.87,3.47,9.47,35.14-8.31,2.3-9.48-35.13-13.63,3.69-2.09-7.86,35.6-9.7,2.3,8.08ZM443.45,683.3c1.16,10.86-6.01,17.56-15.48,18.48s-17.57-4.19-18.49-15.02l-2.77-28.67,8.78-.69,2.3,27.73c.7,5.78,4.4,8.56,9.48,8.09,5.08-.46,8.08-3.93,7.4-9.71l-2.78-27.73,8.55-1.16,3,28.67ZM188.06,247.39l-33.98-28.66,6.93-8.32,34.67,4.85-22.65-18.96,5.54-6.71,34.21,28.67-6.02,7.16-37.2-4.85,24.04,20.11-5.54,6.71ZM259.94,179.91l-31.43-33.06,7.16-5.08,22.2,23.34-5.78-31.66,7.86-4.39,23.34,22.65-7.62-31.21,8.08-3.47,9.95,44.85-7.63,4.16-24.04-23.34,6.01,32.81-8.08,4.4ZM222.5,209.03l-28.43-34.21,21.5-17.79,5.31,6.24-15.02,12.24,6.7,8.09,13.41-11.32,4.84,6.01-13.4,11.1,6.71,8.08,14.79-12.25,5.32,6.24-21.72,17.57ZM559.24,194.46l-6.7-5.54,28.66-34.21,8.32,6.93-4.85,34.44,18.96-22.41,6.7,5.54-28.66,34.21-6.93-6.01,4.62-37.45-20.11,24.5ZM522.49,159.56l15.76,8.78-1.38,10.64,8.08,4.62,6.7-47.15-8.56-4.85-36.75,30.53,8.09,4.39,8.06-6.95ZM542.6,142.46l-2.95,17.57-10.65-5.78,13.6-11.79ZM500.77,160.25l-26.8-9.7,14.55-42.07,8.32,3-12.01,34.21,18.48,6.7-2.54,7.86ZM625.58,194.7l-34.66,27.97,10.16,12.48c7.88,9.94,20.34,12.25,31.21,3.47,11.1-9.01,11.32-21.72,3.47-31.43l-10.17-12.48ZM626.49,231.44h0c-7.4,6.02-14.55,3.94-19.41-1.61l-4.63-5.32,22.42-18.02,4.39,5.31c4.62,5.78,4.85,13.41-2.79,19.65ZM371.11,141.07l-1.61-44.37,10.86-.46,19.65,28.89-1.15-29.58,8.78-.24,1.62,44.38-9.25.46-21.26-30.74,1.15,31.2-8.78.46ZM332.05,148.93l-9.48-43.67,27.28-6.02,1.85,8.09-18.96,3.93,2.31,9.94,16.87-3.47,1.85,7.62-17.11,3.48,2.08,10.16,18.96-3.93,1.62,8.09-27.27,5.77ZM422.19,117.28c2.31-14.33,14.33-21.5,26.35-19.42,11.55,2.11,16.64,9.71,17.79,16.88l-8.55,1.61c-.46-3.93-3.47-9.25-10.64-10.4-6.47-1.15-14.56,2.31-16.41,12.71-1.39,9.94,4.38,16.18,11.55,17.57,8.32,1.17,12.25-3.93,13.18-6.71l-13.87-2.54,1.15-7.4,21.96,3.69-3.74,22.88-6.89-1.16.24-5.08c-2.31,2.54-7.4,4.85-13.64,3.71-12.02-1.62-20.8-12.25-18.49-26.35ZM544.92,279.86c.2-1.19.31-2.4.32-3.61.07-12.27-9.82-22.27-22.09-22.34-1.37,0-2.74.11-4.09.36-1.18-4.48-2.61-8.89-4.28-13.21,19.42-4.49,38.8,7.61,43.3,27.03,1.23,5.3,1.24,10.81.03,16.12-4.31-1.7-8.71-3.15-13.19-4.34ZM512.02,521.4c-2.53,2.31-5.15,4.55-7.88,6.72l-1.23.98c-.53.41-1.05.84-1.59,1.24-58.17,44.86-138.92,46.06-198.4,2.95l81.54-98.47c-1.97-2.95-4.05-5.29-6.16-6.52l-26.17-3.05-1.5,1.22v-.02s-30.54,25.13-30.54,25.13c0,.03,0,.05,0,.08l-54.16,44.59c-43.11-59.48-41.91-140.24,2.95-198.41.4-.53.83-1.05,1.24-1.58l.98-1.24c2.16-2.68,4.39-5.3,6.72-7.83-54.78,4.92-97.79,53.11-97.79,111.86s43,106.95,97.79,111.86l9.92.92s.74,10.99.84,11.94c6.06,53.64,53.68,95.41,111.58,95.41s106.95-43,111.86-97.78ZM197.14,399.02c0-47.46,28-87.42,66.07-99.38-27.84,19.24-46.73,56.52-46.73,99.38s18.89,80.18,46.73,99.46c-38.07-12-66.07-51.95-66.07-99.46ZM400.12,602.03c-47.46,0-87.42-27.99-99.38-66.07,19.24,27.85,56.52,46.73,99.38,46.73s80.14-18.88,99.34-46.73c-11.93,38.08-51.87,66.07-99.34,66.07ZM255.76,277.3c0,.79.04,1.57.13,2.35-4.51,1.16-8.95,2.58-13.3,4.25-.4-2.18-.61-4.39-.61-6.61.04-19.94,16.22-36.09,36.16-36.09l-.03-.04c2.28,0,4.55.22,6.78.65-1.65,4.35-3.05,8.79-4.2,13.3-.86-.11-1.72-.17-2.59-.17-12.33.02-22.33,10.01-22.34,22.34ZM525.51,287.54h-.12c-1.11-.12-2.23-.25-3.35-.33l-9.23-.87s-.88-9.63-.84-9.59c-4.92-54.78-53.11-97.79-111.86-97.79s-106.95,43-111.86,97.79c2.54-2.32,5.17-4.57,7.88-6.73l1.24-.98c.52-.41,1.04-.84,1.58-1.24,58.17-44.86,138.94-46.07,198.42-2.95l-16.82,20.5-19.86,24.06-63.77,77.8c14.61.07,27.16.13,33.64.13h.78l103.98-84.16c42.15,59.43,40.55,139.41-3.94,197.11-.4.53-.82,1.05-1.24,1.59l-.98,1.23c-2.17,2.68-4.4,5.3-6.72,7.83,54.77-4.92,97.78-53.11,97.78-111.86.03-57.67-41.39-105.13-94.7-111.52ZM400.12,215.42c-42.86,0-80.14,18.88-99.38,46.73,11.96-38.08,51.92-66.07,99.38-66.07s87.42,28,99.34,66.06c-19.2-27.84-56.49-46.72-99.34-46.72ZM537.03,498.48l-.03-.04c27.85-19.24,46.73-56.52,46.73-99.38s-18.26-78.88-45.3-98.39l.29-.23-.31-.31c37.42,12.49,64.7,52.02,64.7,98.92,0,47.47-28,87.42-66.08,99.42ZM255.37,517.94c-.24,1.3-.36,2.62-.36,3.94.02,12.34,10.02,22.33,22.35,22.34,1.23,0,2.47-.12,3.68-.33,1.3,4.83,2.89,9.58,4.78,14.21-19.49,4.25-38.74-8.11-42.98-27.6-1.19-5.45-1.1-11.1.26-16.5,4.02,1.53,8.11,2.84,12.27,3.94ZM544.84,525.92c.25-1.35.37-2.72.36-4.1,0-1.32-.13-2.64-.37-3.94,4.47-1.19,8.87-2.64,13.19-4.32.65,2.71.99,5.48,1,8.26h-.03c.02,19.93-16.12,36.11-36.05,36.13-2.81,0-5.6-.32-8.33-.97,1.69-4.31,3.14-8.71,4.33-13.19,12.09,2.21,23.69-5.79,25.9-17.88ZM301.21,359.06v16.16c0,4.04.7,11.45,9.85,11.45l9.9.06v-64.47c-10.88,2.24-22.19.9-32.26-3.8l4.58-22.65s18.3,6.98,40.74-6.1c20.42-11.82,70.71-37.32,122.92-17.42,7.58,2.82,14.74,6.65,21.29,11.38l-19.31,24c-9.08-8.88-22.26-15.28-39.45-16.64-32.01-2.54-54.75,10.13-68.85,18.44v77.47c29.53.19,66.96.41,79.96.41,16.01,0,27.25-5.69,34.24-14.92l43-22.35c-3.15,24.79-16.31,45.05-37.32,56.43-15.69,8.5-42.93,7.62-42.93,7.62h-1.24c6.56,8.61,12.44,17.72,17.59,27.24,10.07,18.14,17.26,42.13,35.14,42.99,15.05.74,33.16-17.13,33.16-17.13l12.68,11.31-44.54,44.17c-35.73-6.97-51.26-58.25-77.4-92.45-5.36-7.04-12.43-12.6-20.55-16.13h-31.81v9.2l-30.13,24.24c.42-4.69.59-9.39.53-14.09v-19.32h-10.3c-9.16,0-9.84,7.4-9.84,11.44v16.18h-16.17l.4-82.72h16.12ZM335.08,517.97l16.23-29.29c2.95,23.19,14.59,36.67,14.59,36.67l-8.94,10.9-21.88-18.28Z"/>
</svg>