<?xml version="1.0" encoding="UTF-8"?>
<svg data-name="图层_1" xmlns="http://www.w3.org/2000/svg" version="1.1" viewBox="0 0 800 800">
  <!-- Created by @FCLOGO 2024-12-20 GMT+8 13:21:27 . https://fclogo.top/ -->
<!-- FOR PERSONAL USE ONLY NOT FOR COMMERCIAL USE -->
  <path d="M348.2194,774.301c-.786,0-1.3752-.2173-1.7682-.6519-.393-.4352-.5284-1.03-.406-1.7856l.2518-1.6478c.122-.755.4501-1.3504.9841-1.785.5339-.4352,1.1939-.6525,1.9799-.6525.7553,0,1.3293.1987,1.7223.5954.3927.3967.551.9381.4747,1.6248h-1.2358c.0304-.3589-.0553-.637-.2573-.8357-.2024-.1981-.4979-.2974-.8869-.2974-.4197,0-.763.1167-1.03.3489-.2673.2328-.4349.5631-.5035.9903l-.2632,1.659c-.0686.4352-.0056.7686.1887,1.0015.1946.2328.5017.3489.9214.3489.389,0,.7152-.0987.9785-.2974.2632-.1981.4365-.4805.5206-.8469h1.2358c-.1372.6867-.4672,1.2306-.9897,1.631-.5228.4005-1.1616.6004-1.9169.6004ZM352.7967,774.1868l.9956-6.2943h1.1902l-.1946,1.1902c.3359-.8698.9729-1.3044,1.9113-1.3044.6712,0,1.1691.208,1.4932.624.3244.416.4293.9859.3148,1.7105l-.0686.4234h-1.2703l.0571-.3204c.0689-.4501.0115-.7953-.1714-1.0356-.1832-.2403-.4771-.3607-.8813-.3607-.4045,0-.7401.1223-1.007.3663-.2673.2446-.4349.588-.5035,1.03l-.6296,3.9711h-1.2358ZM361.9058,774.301c-.7705,0-1.3463-.2229-1.7279-.6693s-.515-1.0356-.4005-1.7682l.2518-1.6478c.0838-.488.2573-.9152.5206-1.2815s.6007-.6507,1.0129-.8524c.4119-.2024.8732-.3036,1.3845-.3036.7705,0,1.3485.2235,1.7338.6693.3852.4464.5169,1.0356.3949,1.7682l-.1717,1.1213h-3.845l-.0916.5265c-.1527.9536.2173,1.4305,1.1098,1.4305.7171,0,1.175-.2477,1.3734-.7438h1.2247c-.1679.5339-.5035.9599-1.007,1.2759-.5038.3166-1.0912.475-1.7626.475ZM361.2306,770.2157l-.0456.2862,2.6548-.0118.0459-.2856c.0686-.4656.0133-.822-.1661-1.0704-.1791-.2477-.4861-.3719-.9211-.3719-.4427,0-.7953.126-1.0586.3775-.2632.2521-.4331.6109-.5094,1.076ZM368.3258,774.301c-.6333,0-1.1027-.2117-1.4078-.6351s-.3967-1.0008-.2744-1.7335l.2744-1.7738c.1145-.7326.393-1.3119.8357-1.7397.4424-.4272.98-.6407,1.6133-.6407.4653,0,.8298.1186,1.093.3545.2632.2365.3908.5575.3834.9617h.023l.1717-1.202h1.2358l-.9956,6.2943h-1.2247l.1946-1.2014h-.023c-.122.4116-.3511.7339-.6867.9667s-.7401.3489-1.2129.3489ZM368.9324,773.2257c.389,0,.7152-.1186.9782-.3551.2632-.2359.4293-.5718.4979-1.007l.2518-1.6478c.0686-.4272.0096-.7612-.1773-1.0015-.1872-.2403-.475-.3601-.8642-.3601-.3967,0-.7249.118-.9841.3545-.2595.2365-.4234.5724-.492,1.007l-.2518,1.6478c-.0686.4427-.0133.7804.1658,1.0133.1794.2328.4712.3489.8757.3489ZM376.3477,774.1868c-.5721,0-.9937-.1565-1.2644-.4694-.271-.3123-.3607-.7512-.2691-1.3156l.538-3.3874h-1.7394l.1714-1.1219h1.7397l.2747-1.7161h1.2358l-.2747,1.7161h2.472l-.1832,1.1219h-2.4605l-.5377,3.3874c-.0764.4421.099.6637.5262.6637h1.7167l-.1717,1.1213h-1.7738ZM382.5042,774.301c-.7705,0-1.3463-.2229-1.7279-.6693s-.515-1.0356-.4005-1.7682l.2518-1.6478c.0838-.488.2573-.9152.5206-1.2815s.6007-.6507,1.0129-.8524c.4119-.2024.8732-.3036,1.3845-.3036.7705,0,1.3485.2235,1.7338.6693.3852.4464.5169,1.0356.3949,1.7682l-.1717,1.1213h-3.845l-.0916.5265c-.1527.9536.2173,1.4305,1.1098,1.4305.7171,0,1.175-.2477,1.3734-.7438h1.2247c-.1679.5339-.5035.9599-1.007,1.2759-.5038.3166-1.0912.475-1.7626.475ZM381.829,770.2157l-.0456.2862,2.6548-.0118.0459-.2856c.0686-.4656.0133-.822-.1661-1.0704-.1791-.2477-.4861-.3719-.9211-.3719-.4427,0-.7953.126-1.0586.3775-.2632.2521-.4331.6109-.5094,1.076ZM388.9243,774.301c-.6333,0-1.1008-.2117-1.4019-.6351-.3014-.4234-.3949-1.0008-.2803-1.7335l.2744-1.7738c.1145-.7326.393-1.3119.8357-1.7397.4424-.4272.98-.6407,1.6133-.6407.4653,0,.8298.1186,1.093.3545.2632.2365.3908.5575.3834.9617h.023l.2058-1.4652.2977-1.7962h1.2358l-1.3274,8.3537h-1.2247l.1946-1.2014h-.023c-.122.4116-.3511.7339-.6867.9667s-.7401.3489-1.2129.3489ZM389.5309,773.2257c.389,0,.7152-.1186.9782-.3551.2632-.2359.4293-.5718.4979-1.007l.2518-1.6478c.0761-.4272.0189-.7612-.1717-1.0015-.1909-.2403-.4805-.3601-.8698-.3601-.3967,0-.7249.118-.9841.3545-.2595.2365-.4234.5724-.492,1.007l-.2518,1.6478c-.0764.4427-.023.7804.1602,1.0133s.4768.3489.8813.3489ZM401.0175,774.301c-.4731,0-.8394-.1161-1.0986-.3489-.2595-.2328-.3852-.5551-.3775-.9667h-.0115l-.1946,1.2014h-1.2243l1.3274-8.3537h1.2358l-.2862,1.7962-.2744,1.4652h.0456c.122-.4123.353-.7345.6923-.9673.3396-.2322.7419-.3489,1.2076-.3489.633,0,1.1002.2136,1.4016.6407.3014.4278.3949,1.007.2806,1.7397l-.2747,1.7738c-.1145.7326-.3949,1.31-.8413,1.7335-.4461.4234-.9822.6351-1.6077.6351ZM400.7657,773.2257c.3967,0,.7227-.1161.9785-.3489.2555-.2328.4216-.5706.4976-1.0133l.2518-1.6478c.0689-.4346.0115-.7705-.1714-1.007-.1832-.2365-.4734-.3545-.8698-.3545-.3893,0-.7152.1198-.9785.3601s-.429.5743-.4979,1.0015l-.2518,1.6478c-.0686.4352-.0112.7711.1717,1.007.1832.2365.4731.3551.8698.3551ZM405.4694,776.2468l.1717-1.0642h1.934c.6407,0,1.007-.3017,1.0986-.9046l.1028-.6749.2061-1.1902h-.0345c-.122.4197-.3471.7438-.6752.9729-.3281.2285-.7286.3433-1.2014.3433-.6258,0-1.093-.2005-1.4019-.601s-.4104-.9443-.3033-1.631l.5836-3.6047h1.2358l-.5606,3.4793c-.0612.4116,0,.732.1832.9611s.4653.3433.8469.3433c.389,0,.7168-.1217.9841-.3663.267-.244.4309-.5836.492-1.0182l.538-3.3992h1.2358l-1.007,6.4086c-.0993.6029-.37,1.0778-.8124,1.4249-.4427.3471-.9996.5209-1.6707.5209h-1.9455ZM417.787,770.0853h3.221l.5368-1.8545h-5.4659l-1.7081,6.4419h2.1473l.5856-2.0985h3.0257l.4392-1.7081h-3.0257l.244-.7808ZM424.229,772.9158c-.5856,0-1.0249-.3904-1.0249-1.1225,0-.8784.6344-1.7569,1.6105-1.7569.488,0,.8784.244,1.0248.7808l1.9521-.8296c-.2928-1.1713-1.2689-1.9033-2.6353-1.9033-2.7817,0-4.1482,2.1473-4.1482,3.9042s1.2689,2.8305,3.0746,2.8305c1.3665,0,2.3425-.5856,2.9769-1.4153l-1.5129-1.1713c-.3904.4392-.8296.6832-1.3177.6832ZM430.9149,768.2308h-2.1473l-1.7569,6.4419h5.1242l.488-1.8545h-2.9281l1.2201-4.5874ZM439.7481,771.0125c0-1.6593-1.3177-2.9281-3.221-2.9281-2.1961,0-3.8066,1.8057-3.8066,3.8066,0,1.6593,1.3177,2.9281,3.221,2.9281,2.1961,0,3.8066-1.8057,3.8066-3.8066ZM434.9167,771.6957c0-.8296.5856-1.7081,1.5129-1.7081.7808,0,1.1713.5368,1.1713,1.2201,0,.8296-.5856,1.7081-1.5129,1.7081-.7808,0-1.1713-.5368-1.1713-1.2201ZM443.2131,772.2326h1.0737l-.1952.6832c-.1464.0488-.3416.0976-.5856.0976-.6832,0-1.2689-.3904-1.2689-1.2201,0-1.0249.732-1.9033,1.9521-1.9033.5856,0,1.1225.244,1.5129.5856l1.3665-1.3665c-.4392-.5368-1.5129-1.0737-2.7329-1.0737-2.5865,0-4.2946,1.7569-4.2946,3.8554,0,2.0497,1.6105,2.8793,3.221,2.8793.9272,0,1.8545-.2928,2.4889-.6832l.9272-3.3186h-3.1234l-.3416,1.4641ZM450.7775,768.0844c-2.1961,0-3.8066,1.8057-3.8066,3.8066,0,1.6593,1.3177,2.9281,3.221,2.9281,2.1961,0,3.8066-1.8057,3.8066-3.8066,0-1.6593-1.3177-2.9281-3.221-2.9281ZM450.3382,772.9158c-.7808,0-1.1713-.5368-1.1713-1.2201,0-.8296.5856-1.7081,1.5129-1.7081.7808,0,1.1713.5368,1.1713,1.2201,0,.8296-.5856,1.7081-1.5129,1.7081ZM437.9424,767.4987c-.0488.2928.0976.488.4392.488s.5368-.1952.6344-.488c.0488-.244-.0976-.488-.4392-.488s-.5856.244-.6344.488ZM432.1349,765.4978c-.4392,0-.732.244-.7808.5856s.0976.5856.5368.5856.732-.244.7808-.5856c.0976-.3416-.0976-.5856-.5368-.5856ZM433.0134,767.3035c-.0976.5368.1464.8784.8296.8784.6344,0,1.0737-.3904,1.1713-.8784s-.1464-.8784-.8296-.8784c-.6832,0-1.0737.3904-1.1713.8784ZM439.6017,777.552l-2.4401-1.8057h-1.5129l4.2458,3.1722,1.6105-3.1722h-.976l-.9272,1.8057ZM425.8394,767.1571l-2.0009-1.4641,23.1323-2.7817-2.1473,4.2458h1.0248l2.6841-5.3195-26.9877,3.221,2.7817,2.0985h1.5129ZM338.7186,785.7853l.6088-3.8315h2.32l-.084.5194h-1.7636l-.1837,1.1445h1.6272l-.084.5248h-1.6166l-.2573,1.6428h-.5668ZM342.97,785.8377c-.3568,0-.6228-.1005-.7978-.3019-.175-.201-.2345-.473-.1784-.8161l.2677-1.7006c.056-.3429.2029-.6148.4408-.8161.2379-.201.5355-.3019.8923-.3019s.6228.1.7979.2993c.1748.1993.2361.4707.1837.8136l-.2677,1.7057c-.0561.3431-.2039.6151-.4435.8161-.2398.2013-.5381.3019-.895.3019ZM343.0487,785.3339c.1925,0,.3483-.0524.4672-.1575.119-.1051.1942-.2571.2257-.4568l.2678-1.7006c.0315-.1993.0051-.3517-.0787-.4565-.084-.1051-.2223-.1575-.4148-.1575s-.3473.0524-.4645.1575c-.1173.1048-.1916.2571-.2231.4565l-.2677,1.7006c-.0315.1996-.0053.3517.0787.4568s.2204.1575.4094.1575ZM344.9961,785.7853l.6088-3.8315h1.202c.2379,0,.4391.0464.6036.139.1645.0928.2835.223.357.391s.091.3656.0524.5932c-.0384.2591-.14.4838-.3044.6746-.1645.1905-.3656.3209-.6036.391l.5354,1.6428h-.6194l-.4777-1.5748h-.5406l-.2466,1.5748h-.5668ZM345.8883,783.7068h.6352c.1889,0,.349-.0558.4803-.168.1313-.1119.2107-.2623.2388-.4514.0316-.1925,0-.3454-.0944-.4593-.0945-.1136-.2362-.1706-.4252-.1706h-.6352l-.1995,1.2493ZM349.545,785.7853l.6088-3.8315h1.2544c.3709,0,.6508.1048.8399.315.1889.2099.2553.4898.1993.8398-.0384.2344-.1216.4383-.2493.6114s-.2905.307-.4881.4015c-.1978.0945-.419.1418-.6639.1418h-.6928l-.2415,1.5221h-.5668ZM350.432,783.754h.6928c.1924,0,.3568-.0587.4934-.176.1364-.117.2204-.2737.2519-.4696s-.0017-.3525-.0997-.4699-.245-.1757-.441-.1757h-.6876l-.2099,1.2911ZM352.7466,785.7853l.6088-3.8315h2.2518l-.0787.5038h-1.6954l-.1731,1.0867h1.5115l-.0787.4986h-1.5115l-.1942,1.2387h1.6901l-.0787.5038h-2.2518ZM355.8434,785.7853l.6088-3.8315h1.202c.2379,0,.4391.0464.6036.139.1645.0928.2835.223.357.391s.091.3656.0524.5932c-.0384.2591-.14.4838-.3044.6746-.1645.1905-.3656.3209-.6036.391l.5354,1.6428h-.6194l-.4777-1.5748h-.5406l-.2466,1.5748h-.5668ZM356.7356,783.7068h.6352c.1889,0,.349-.0558.4803-.168.1313-.1119.2107-.2623.2388-.4514.0316-.1925,0-.3454-.0944-.4593-.0945-.1136-.2362-.1706-.4252-.1706h-.6352l-.1995,1.2493ZM360.1316,785.8377c-.385,0-.6736-.0951-.8661-.2859-.1924-.1908-.2641-.4505-.2151-.7794h.5668c-.028.1748.0105.3121.1155.4121.1051.0997.266.1495.483.1495.2029,0,.3701-.049.5012-.1469.1313-.098.2109-.2327.2389-.4044.0209-.1504.0007-.2788-.0604-.3856-.0614-.1068-.1583-.1811-.2913-.2233l-.4566-.1364c-.266-.0803-.4619-.217-.5879-.4095-.126-.1922-.1697-.4197-.1313-.6823.035-.2099.1121-.3935.2309-.551s.2729-.2799.4619-.3673.4024-.1313.6404-.1313c.3498,0,.6158.0954.7978.2859.182.1908.2485.4437.1995.7586h-.5668c.0279-.168-.0027-.3001-.092-.3964-.0891-.0963-.2301-.1444-.4225-.1444-.1889,0-.343.0447-.4619.1338-.119.0894-.1889.2144-.21.3753-.0245.1506-.007.2791.0525.3859s.1575.1811.2939.223l.4672.1469c.2624.0806.4558.2173.5801.4095.1242.1925.1653.4217.1233.6877-.035.217-.1155.4058-.2415.5667-.1259.1612-.2878.2862-.4855.3753-.1976.0894-.419.1338-.6639.1338ZM363.2651,785.8377c-.3568,0-.6228-.1005-.7978-.3019-.175-.201-.2345-.473-.1784-.8161l.2677-1.7006c.056-.3429.2029-.6148.4408-.8161.2379-.201.5355-.3019.8923-.3019s.6228.1.7979.2993c.1748.1993.2361.4707.1837.8136l-.2677,1.7057c-.0561.3431-.2039.6151-.4435.8161-.2398.2013-.5381.3019-.895.3019ZM363.3439,785.3339c.1925,0,.3483-.0524.4672-.1575.119-.1051.1942-.2571.2257-.4568l.2678-1.7006c.0315-.1993.0051-.3517-.0787-.4565-.084-.1051-.2223-.1575-.4148-.1575s-.3473.0524-.4645.1575c-.1173.1048-.1916.2571-.2231.4565l-.2677,1.7006c-.0315.1996-.0053.3517.0787.4568s.2204.1575.4094.1575ZM365.2754,785.7853l.6088-3.8315h.7086l.6194,3.186c.007-.098.0165-.217.0289-.3571.0121-.1398.0271-.2851.0446-.4354.0175-.1506.0367-.2888.0577-.4146l.315-1.9788h.525l-.609,3.8315h-.7085l-.6141-3.186c-.0071.0945-.0167.209-.0289.3437s-.0272.2757-.0446.4226c-.0177.1469-.0367.2833-.0578.4095l-.315,2.0102h-.5301ZM368.2252,785.7853l1.5851-3.8315h.7454l.3726,3.8315h-.5616l-.0735-.9711h-1.0865l-.3884.9711h-.5932ZM369.3852,784.3418h.8714l-.0893-1.1023c-.0175-.1959-.0298-.3654-.0367-.5089-.0071-.1435-.0105-.2432-.0105-.2993-.0175.0561-.0517.1558-.1024.2993s-.1146.3112-.1915.5038l-.441,1.1075ZM371.7208,785.7853l.6088-3.8315h.567l-.525,3.3118h1.6744l-.0787.5197h-2.2465ZM376.6785,785.8377c-.3673,0-.6342-.1005-.8003-.3019-.1663-.201-.2214-.475-.1654-.8213l.4357-2.7608h.567l-.4357,2.7554c-.0315.1962-.008.35.0708.4619.0787.1122.2144.168.4068.168.1925,0,.3473-.0558.4646-.168.1172-.1119.1915-.2657.2231-.4619l.4355-2.7554h.567l-.4357,2.7608c-.056.35-.2003.6245-.433.8241-.2328.1993-.5328.299-.9003.299ZM379.8435,785.8377c-.385,0-.6736-.0951-.8661-.2859-.1924-.1908-.2641-.4505-.2151-.7794h.5668c-.028.1748.0105.3121.1155.4121.1051.0997.266.1495.483.1495.2029,0,.3701-.049.5012-.1469.1313-.098.2109-.2327.2389-.4044.0209-.1504.0007-.2788-.0604-.3856-.0614-.1068-.1583-.1811-.2913-.2233l-.4566-.1364c-.266-.0803-.4619-.217-.5879-.4095-.126-.1922-.1697-.4197-.1313-.6823.035-.2099.1121-.3935.2309-.551s.2729-.2799.4619-.3673.4024-.1313.6404-.1313c.3498,0,.6158.0954.7978.2859.182.1908.2485.4437.1995.7586h-.5668c.0279-.168-.0027-.3001-.092-.3964-.0891-.0963-.2301-.1444-.4225-.1444-.1889,0-.343.0447-.4619.1338-.119.0894-.1889.2144-.21.3753-.0245.1506-.007.2791.0525.3859s.1575.1811.2939.223l.4672.1469c.2624.0806.4558.2173.5801.4095.1242.1925.1653.4217.1233.6877-.035.217-.1155.4058-.2415.5667-.1259.1612-.2878.2862-.4855.3753-.1976.0894-.419.1338-.6639.1338ZM381.9062,785.7853l.6088-3.8315h2.2518l-.0787.5038h-1.6954l-.1731,1.0867h1.5115l-.0787.4986h-1.5115l-.1942,1.2387h1.6901l-.0787.5038h-2.2518ZM386.9426,785.8377c-.3568,0-.6228-.1005-.7978-.3019-.175-.201-.2345-.473-.1784-.8161l.2677-1.7006c.056-.3429.2029-.6148.4408-.8161.2379-.201.5355-.3019.8923-.3019s.6228.1.7979.2993c.1748.1993.2361.4707.1837.8136l-.2677,1.7057c-.0561.3431-.2039.6151-.4435.8161-.2398.2013-.5381.3019-.895.3019ZM387.0213,785.3339c.1925,0,.3483-.0524.4672-.1575.119-.1051.1942-.2571.2257-.4568l.2678-1.7006c.0315-.1993.0051-.3517-.0787-.4565-.084-.1051-.2223-.1575-.4148-.1575s-.3473.0524-.4645.1575c-.1173.1048-.1916.2571-.2231.4565l-.2677,1.7006c-.0315.1996-.0053.3517.0787.4568s.2204.1575.4094.1575ZM388.9529,785.7853l.6088-3.8315h.7086l.6194,3.186c.007-.098.0165-.217.0289-.3571.0121-.1398.0271-.2851.0446-.4354.0175-.1506.0367-.2888.0577-.4146l.315-1.9788h.525l-.609,3.8315h-.7085l-.6141-3.186c-.0071.0945-.0167.209-.0289.3437s-.0272.2757-.0446.4226c-.0177.1469-.0367.2833-.0578.4095l-.315,2.0102h-.5301ZM392.249,785.7853l.6088-3.8315h.567l-.525,3.3118h1.6744l-.0787.5197h-2.2465ZM396.1174,785.7853l.2204-1.4119-.7506-2.4197h.5774l.4462,1.4486c.0279.0945.0498.1837.0656.2677.0157.084.0253.1469.0288.1888.0175-.0419.0464-.1048.0867-.1888.0402-.084.0883-.1731.1442-.2677l.8976-1.4486h.5984l-1.5275,2.4197-.2204,1.4119h-.5668ZM399.217,785.7853l.6088-3.8315h.7086l.6192,3.186c.0071-.098.0165-.217.029-.3571.012-.1398.0271-.2851.0444-.4354.0177-.1506.037-.2888.0578-.4146l.315-1.9788h.5248l-.6088,3.8315h-.7085l-.6141-3.186c-.0071.0945-.0167.209-.0289.3437s-.0272.2757-.0446.4226c-.0177.1469-.0367.2833-.0578.4095l-.315,2.0102h-.5301ZM403.5053,785.8377c-.3571,0-.6231-.1005-.7979-.3019-.1751-.201-.2344-.473-.1785-.8161l.2677-1.7006c.0561-.3429.203-.6148.4411-.8161.2378-.201.5354-.3019.8922-.3019.3571,0,.6228.1.7979.2993.1748.1993.2361.4707.1837.8136l-.2677,1.7057c-.0561.3431-.2039.6151-.4437.8161-.2395.2013-.5379.3019-.8947.3019ZM403.5839,785.3339c.1925,0,.3483-.0524.4673-.1575.1187-.1051.1942-.2571.2255-.4568l.2677-1.7006c.0316-.1993.0054-.3517-.0786-.4565-.084-.1051-.2224-.1575-.4146-.1575-.1925,0-.3474.0524-.4647.1575-.117.1048-.1914.2571-.223.4565l-.2677,1.7006c-.0316.1996-.0051.3517.0789.4568.0837.1051.2204.1575.4092.1575ZM406.3814,785.7853l.5248-3.3121h-1.0234l.084-.5194h2.6193l-.084.5194h-1.0289l-.5248,3.3121h-.567ZM409.5178,785.7853l.6088-3.8315h2.32l-.084.5194h-1.7636l-.1837,1.1445h1.6272l-.084.5248h-1.6166l-.2571,1.6428h-.567ZM413.7694,785.8377c-.3571,0-.6231-.1005-.7979-.3019-.1751-.201-.2344-.473-.1785-.8161l.2677-1.7006c.0561-.3429.203-.6148.4411-.8161.2378-.201.5354-.3019.8922-.3019.3571,0,.6228.1.7979.2993.1748.1993.2361.4707.1837.8136l-.2677,1.7057c-.0561.3431-.2039.6151-.4437.8161-.2395.2013-.5379.3019-.8947.3019ZM413.848,785.3339c.1925,0,.3483-.0524.4673-.1575.1187-.1051.1942-.2571.2255-.4568l.2677-1.7006c.0316-.1993.0054-.3517-.0786-.4565-.084-.1051-.2224-.1575-.4146-.1575-.1925,0-.3474.0524-.4647.1575-.117.1048-.1914.2571-.223.4565l-.2677,1.7006c-.0316.1996-.0051.3517.0789.4568.0837.1051.2204.1575.4092.1575ZM415.7952,785.7853l.6088-3.8315h1.202c.2381,0,.4391.0464.6037.139.1643.0928.2833.223.3568.391s.0911.3656.0527.5932c-.0387.2591-.1401.4838-.3044.6746-.1646.1905-.3659.3209-.6037.391l.5354,1.6428h-.6194l-.4776-1.5748h-.5408l-.2466,1.5748h-.567ZM416.6876,783.7068h.635c.1891,0,.3491-.0558.4804-.168.131-.1119.2107-.2623.2386-.4514.0316-.1925,0-.3454-.0945-.4593-.0943-.1136-.2361-.1706-.4252-.1706h-.635l-.1993,1.2493ZM420.905,785.8377c-.3602,0-.6308-.1005-.8107-.3019-.1803-.201-.2423-.473-.1865-.8161l.2677-1.7006c.0561-.3463.2056-.6194.4488-.8187s.545-.2993.9056-.2993c.3568,0,.6253.1008.8056.3019.1803.2013.2423.4733.1865.8161h-.567c.0313-.1993.0026-.3517-.0866-.4565-.0894-.1051-.2284-.1575-.4175-.1575-.1925,0-.3508.0524-.475.1575-.1242.1048-.2019.2554-.2335.4514l-.2677,1.7057c-.0316.1996-.0026.3517.0866.4568.0894.1051.2301.1575.4226.1575s.35-.0524.4724-.1575.1993-.2571.2309-.4568h.5667c-.0347.2275-.1145.4252-.2386.5932s-.2808.2976-.4699.3884c-.1888.0908-.4024.1364-.6404.1364ZM424.0335,785.8377c-.3571,0-.6231-.1005-.7979-.3019-.1751-.201-.2344-.473-.1785-.8161l.2677-1.7006c.0561-.3429.203-.6148.4411-.8161.2378-.201.5354-.3019.8922-.3019.3571,0,.6228.1.7979.2993.1748.1993.2361.4707.1837.8136l-.2677,1.7057c-.0561.3431-.2039.6151-.4437.8161-.2395.2013-.5379.3019-.8947.3019ZM424.1121,785.3339c.1925,0,.3483-.0524.4673-.1575.1187-.1051.1942-.2571.2255-.4568l.2677-1.7006c.0316-.1993.0054-.3517-.0786-.4565-.084-.1051-.2224-.1575-.4146-.1575-.1925,0-.3474.0524-.4647.1575-.117.1048-.1914.2571-.223.4565l-.2677,1.7006c-.0316.1996-.0051.3517.0789.4568.0837.1051.2204.1575.4092.1575ZM425.9653,785.7853l.6088-3.8315h.6874l.1837,1.2282c.0211.119.0367.2301.0473.3332.0105.1034.0194.1828.0262.2389.0177-.0561.0473-.1364.0894-.2415.0419-.1051.0908-.217.1469-.336l.5667-1.2228h.7088l-.6088,3.8315h-.5354l.2045-1.2911c.0245-.168.0578-.3525.1-.5539.0419-.201.0874-.4041.1364-.6088s.0963-.3998.1418-.5852c.0453-.1854.0874-.3483.1259-.4881l-.8554,1.8632h-.5513l-.2833-1.8632c-.0037.1364-.0105.2947-.0211.475s-.0236.3719-.0393.5747c-.0157.203-.035.4069-.0578.6114-.0228.2047-.0481.3964-.076.5749l-.2047,1.2911h-.5405ZM429.1145,785.7853l.6088-3.8315h.6874l.1837,1.2282c.0211.119.0367.2301.0473.3332.0105.1034.0194.1828.0262.2389.0177-.0561.0473-.1364.0894-.2415.0419-.1051.0908-.217.1469-.336l.5667-1.2228h.7088l-.6088,3.8315h-.5354l.2045-1.2911c.0245-.168.0578-.3525.1-.5539.0419-.201.0874-.4041.1364-.6088s.0963-.3998.1418-.5852c.0453-.1854.0874-.3483.1259-.4881l-.8554,1.8632h-.5513l-.2833-1.8632c-.0037.1364-.0105.2947-.0211.475s-.0236.3719-.0393.5747c-.0157.203-.035.4069-.0578.6114-.0228.2047-.0481.3964-.076.5749l-.2047,1.2911h-.5405ZM432.4107,785.7853l.6088-3.8315h2.2516l-.0786.5038h-1.6955l-.1731,1.0867h1.5115l-.0786.4986h-1.5118l-.1942,1.2387h1.6901l-.0786.5038h-2.2516ZM435.5073,785.7853l.6088-3.8315h1.202c.2381,0,.4391.0464.6037.139.1643.0928.2833.223.3568.391s.0911.3656.0527.5932c-.0387.2591-.1401.4838-.3044.6746-.1646.1905-.3659.3209-.6037.391l.5354,1.6428h-.6194l-.4776-1.5748h-.5408l-.2466,1.5748h-.567ZM436.3997,783.7068h.635c.1891,0,.3491-.0558.4804-.168.131-.1119.2107-.2623.2386-.4514.0316-.1925,0-.3454-.0945-.4593-.0943-.1136-.2361-.1706-.4252-.1706h-.635l-.1993,1.2493ZM439.8007,785.8377c-.3602,0-.6308-.1005-.8107-.3019-.1803-.201-.2423-.473-.1865-.8161l.2677-1.7006c.0561-.3463.2056-.6194.4488-.8187s.545-.2993.9056-.2993c.3568,0,.6253.1008.8056.3019.1803.2013.2423.4733.1865.8161h-.567c.0313-.1993.0026-.3517-.0866-.4565-.0894-.1051-.2284-.1575-.4175-.1575-.1925,0-.3508.0524-.475.1575-.1242.1048-.2019.2554-.2335.4514l-.2677,1.7057c-.0316.1996-.0026.3517.0866.4568.0894.1051.2301.1575.4226.1575s.35-.0524.4724-.1575.1993-.2571.2309-.4568h.5667c-.0347.2275-.1145.4252-.2386.5932s-.2808.2976-.4699.3884c-.1888.0908-.4024.1364-.6404.1364ZM441.8792,785.7853l.0789-.5038h.7768l.4459-2.824h-.7766l.0837-.5038h2.1258l-.084.5038h-.7766l-.4462,2.824h.7768l-.0789.5038h-2.1258ZM444.7399,785.7853l1.585-3.8315h.7452l.3728,3.8315h-.5616l-.0735-.9711h-1.0867l-.3884.9711h-.5929ZM445.8998,784.3418h.8714l-.0894-1.1023c-.0174-.1959-.0296-.3654-.0367-.5089-.0068-.1435-.0103-.2432-.0103-.2993-.0177.0561-.0518.1558-.1025.2993s-.1148.3112-.1916.5038l-.4408,1.1075ZM448.2354,785.7853l.6088-3.8315h.567l-.5248,3.3118h1.6741l-.0786.5197h-2.2465ZM453.1932,785.8377c-.3676,0-.6345-.1005-.8005-.3019-.1663-.201-.2213-.475-.1654-.8213l.4357-2.7608h.567l-.4357,2.7554c-.0316.1962-.008.35.0709.4619.0786.1122.2141.168.4066.168s.3474-.0558.4645-.168c.1173-.1119.1916-.2657.2233-.4619l.4357-2.7554h.5667l-.4357,2.7608c-.0558.35-.2002.6245-.4328.8241-.2329.1993-.5328.299-.9001.299ZM456.3581,785.8377c-.385,0-.6738-.0951-.866-.2859-.1925-.1908-.2643-.4505-.2153-.7794h.567c-.0282.1748.0105.3121.1153.4121.1051.0997.266.1495.483.1495.2028,0,.3699-.049.5012-.1469s.2107-.2327.2389-.4044c.0211-.1504.0009-.2788-.0604-.3856s-.1583-.1811-.2913-.2233l-.4568-.1364c-.266-.0803-.4619-.217-.5878-.4095-.1259-.1922-.1697-.4197-.1313-.6823.035-.2099.1119-.3935.2309-.551s.2731-.2799.4619-.3673c.1891-.0874.4024-.1313.6404-.1313.3497,0,.6157.0954.7979.2859.1817.1908.2483.4437.1993.7586h-.567c.0279-.168-.0026-.3001-.0917-.3964-.0894-.0963-.2301-.1444-.4226-.1444-.1891,0-.3429.0447-.4619.1338-.119.0894-.1891.2144-.2099.3753-.0245.1506-.0071.2791.0524.3859s.1575.1811.2939.223l.4673.1469c.2623.0806.4556.2173.5798.4095.1242.1925.1654.4217.1236.6877-.035.217-.1156.4058-.2415.5667-.1262.1612-.2879.2862-.4855.3753-.1979.0894-.4192.1338-.6641.1338ZM458.4209,785.7853l.6088-3.8315h2.2516l-.0786.5038h-1.6955l-.1731,1.0867h1.5115l-.0786.4986h-1.5118l-.1942,1.2387h1.6901l-.0786.5038h-2.2516Z" style="fill: #ccc;"/>
  <g>
    <path id="Path" d="M86.4985,50v12.5299c-.0388,6.8676-.0777,13.9141-.1087,21.1784-.101,27.4324-.2719,58.5193.5359,91.4032,1.3903,56.2637,4.9476,121.5089,20.8163,178.7151,19.7132,71.0564,48.676,133.6622,88.6069,191.484,48.0243,69.5563,113.9901,136.4742,196.0822,198.9183l7.5807,5.7711,7.5884-5.7711c82.074-62.4236,148.0362-129.3537,196.0701-198.9063,39.9309-57.8266,68.9166-120.4614,88.6141-191.484,16.7298-60.3465,19.9075-127.2778,20.8078-178.8117.3961-22.2284.3262-43.1581.2641-63.3963-.0622-17.2427-.1087-33.5296.132-48.8365l.2097-12.7869H86.503l-.0045-.0072Z" style="fill: #fff;"/>
    <path id="Path1" data-name="Path" d="M400.0058,734.2299c-87.0536-66.2192-149.1224-132.0088-193.3305-196.0581-44.7693-64.812-70.3226-128.0623-86.8593-187.6944-15.255-55.0194-18.9131-117.3416-20.3263-175.6617-1.0175-41.2223-.5282-78.9663-.4505-112.2473h601.9447c-.5282,33.2725.3262,70.9949-.3961,112.2159-1.0175,58.3322-5.103,120.6472-20.3577,175.6617-16.5355,59.6164-42.0816,122.8848-86.8437,187.7064-44.2648,64.0722-106.3239,129.8605-193.3788,196.0822l-.0018-.0048Z" style="fill: #d30029;"/>
    <path id="Path2" data-name="Path" d="M111.5163,75.1454c2.5632,159.4895-34.0124,398.6091,288.4932,643.9321,322.5031-245.2868,285.9346-484.4064,288.4932-643.8959H111.5163v-.0362Z" style="fill: #fff;"/>
    <path id="Shape" d="M522.1182,400.4787l8.2564-.9955c.1305,1.8079.8825,3.5147,2.1282,4.8299,1.1778,1.1238,2.7597,1.7223,4.3852,1.6593s3.1565-.7822,4.244-1.9938c1.2713-1.5186,1.9159-3.4659,1.802-5.4444.0994-1.8592-.5178-3.6856-1.7243-5.1022-1.0652-1.2123-2.6051-1.8996-4.2176-1.8823-1.3172.038-2.6233.2525-3.8835.6378l.9398-6.9611c2.3301.0622,4.0621-.4356,5.2815-1.5011,1.2133-1.0662,1.8811-2.6238,1.8174-4.2388.0948-1.3271-.3882-2.6304-1.3248-3.5741-.9365-.9438-2.2349-1.4357-3.5608-1.3492-1.4031-.0151-2.751.5472-3.7282,1.5555-1.1243,1.2127-1.7892,2.781-1.8796,4.4332l-7.8603-1.3377c.39-2.2951,1.2324-4.4896,2.4777-6.4555,1.1628-1.6622,2.7548-2.9768,4.6058-3.8033,2.0805-.9408,4.3427-1.4108,6.6253-1.3767,4.1993,0,7.5651,1.3377,10.0972,4.0132,1.983,1.9558,3.1018,4.625,3.1069,7.4122,0,3.9044-2.1359,7.0155-6.4078,9.3332,2.4113.4603,4.5807,1.7642,6.1205,3.6788,1.54,1.9599,2.3452,4.3982,2.2757,6.8911.057,3.786-1.4928,7.4183-4.2642,9.9943-5.7917,5.2697-14.5477,5.5466-20.6606.6533-2.6743-2.3124-4.3455-5.5758-4.6602-9.0999l.0078.0233h.0005ZM507.3604,383.3675c0-2.7533-.6447-4.8922-1.9029-6.4166-1.0331-1.3961-2.6535-2.2348-4.3883-2.2711-1.5131-.0125-2.9469.6766-3.8835,1.8667-1.0356,1.2548-1.5534,3.2951-1.5534,6.1211s.567,4.9388,1.701,6.3388c1.0212,1.2635,2.5528,2.004,4.1759,2.0191s3.1682-.6969,4.2125-1.9413c1.1185-1.2988,1.6933-3.2044,1.6933-5.7166h-.0546ZM488.0515,402.0343l8.2564-.91c.0692,1.3873.6184,2.7073,1.5534,3.7332.9173.838,2.1308,1.2747,3.3709,1.2133,1.8037-.0215,3.4817-.9285,4.4893-2.4267,1.2324-1.6229,2.022-4.9932,2.369-10.111-1.974,2.4074-4.9365,3.7818-8.0466,3.7332-3.4608.0193-6.7618-1.4577-9.0565-4.0522-2.5424-2.7067-3.8111-6.2274-3.8059-10.5622,0-4.5111,1.3385-8.1407,4.0156-10.8887,2.9068-2.8385,6.8643-4.3337,10.919-4.1256,4.0548.2082,7.8388,2.1009,10.4404,5.2222,2.8894,3.4948,4.3341,9.2424,4.3341,17.2427,0,8.1355-1.5068,14.0071-4.5204,17.6169-2.8645,3.5557-7.2221,5.5692-11.7827,5.4444-3.4641,0-6.2835-.9333-8.4273-2.7844-2.1437-1.8511-3.5263-4.6199-4.1321-8.3066l.0233-.0389v.0004ZM288.9039,398.7832c-.1195,1.997.5279,3.9642,1.8097,5.4988,1.1472,1.2733,2.7928,1.9807,4.5049,1.9367,1.6642.0392,3.2611-.6579,4.365-1.9056,1.1599-1.2652,1.7372-3.0929,1.732-5.4832.0875-1.843-.5448-3.6478-1.7631-5.0322-1.1393-1.2524-2.7671-1.9454-4.4583-1.8977-1.8195-.1293-3.5784.6838-4.6603,2.1544-.9975,1.352-1.5414,2.9857-1.5534,4.6666,0,0,.0233.0622.0234.0622ZM289.6806,379.7048c-.0851,1.466.4344,2.9027,1.4369,3.9744,1.0329.9824,2.4219,1.4994,3.8446,1.4311,1.4374.0685,2.8403-.4541,3.8835-1.4467,1.015-1.0743,1.5408-2.5214,1.4525-3.9977.0889-1.4227-.4346-2.8153-1.4381-3.8262s-2.3912-1.5432-3.8124-1.4626c-1.4387-.0589-2.8399.4686-3.8835,1.4623-1.0028,1.0378-1.5291,2.4467-1.4525,3.8888,0,0-.0311-.0233-.031-.0234ZM287.9174,388.2991c-3.856-1.3942-6.3938-5.0967-6.3068-9.201-.087-3.1215,1.1791-6.1278,3.4718-8.2443,2.3146-2.1622,5.6078-3.2433,9.8797-3.2433s7.5522,1.0811,9.8409,3.2433c2.3123,2.1058,3.594,5.1156,3.5107,8.2443.0273,1.959-.5358,3.8806-1.6155,5.5144-1.1144,1.645-2.686,2.9268-4.5204,3.6867,2.274.8437,4.238,2.3601,5.6311,4.3477,1.2959,1.9433,1.9705,4.2357,1.934,6.5722.1457,3.7448-1.2793,7.38-3.9301,10.0255-2.6201,2.5925-6.1049,3.8888-10.4545,3.8888-3.6333.1333-7.2007-.9961-10.0971-3.1967-3.2-2.5355-4.8-5.9915-4.8-10.3676-.0206-2.3344.6001-4.6295,1.7942-6.6343,1.3246-2.1267,3.3037-3.7645,5.6389-4.6666,0,0,.0233.0311.0232.0311ZM267.8554,412.3402h-8.5438v-32.2153c-3.1521,2.9407-6.9125,5.15-11.0136,6.4711v-7.7776c2.6316-.9629,5.0817-2.3645,7.2467-4.1455,2.4361-1.812,4.3037-4.2841,5.3826-7.1243h6.9049v44.7295s.0233.0622.0232.0623Z" style="fill: #d30029;"/>
    <path id="b" d="M557.0333,101.5822c-23.3556-9.7766-48.1087-9.2399-66.1915,1.2133-15.9538,9.2243-26.7336,26.164-26.8736,50.5551-.3177,5.2093-1.5481,10.322-3.635,15.1041l-.1398-.1867c-7.8991,13.0742-21.0722,26.1411-35.8372,25.0283-2.6408-13.1828-11.3321-31.1569-19.6818-42.6295,8.9865.4667,23.7358,9.9399,26.928,16.7612,7.3865-8.0343,17.8643-27.9997,15.4795-44.1538-14.6793,0-28.9483-3.4222-43.6276-9.7143,0,9.8932-17.2113,33.7396-29.1341,39.1295,5.9729,8.8666,10.9904,28.1324,10.7496,45.3908-8.839,7.2488-20.4892,8.5555-29.88,8.3999-7.1923-11.1921-16.8855-19.4441-17.017-33.491-.132-14.5755,14.2292-35.5367,29.6929-49.1237l-7.6817-9.5976c-9.6777,3.3444-17.95,8.921-25.2588,16.2471l-.3961-.56c-8.8234-12.8026-23.9928-35.7768-45.9967-41.0352-6.3068,2.1777-14.9593,15.4228-21.398,28.9797-23.7056,4.8532-42.5329,22.0425-50.362,36.5553-8.171-6.8366-14.0348-13.9998-14.4621-23.0297-1.1573-24.6554,30.9445-20.6111,46.6726-13.5328l.132-17.8884c-23.4027-9.7843-48.1172-9.2476-66.1987,1.2055-15.9453,9.2243-26.7192,26.164-26.8736,50.5466,0,16.6369-10.2525,30.0067-31.7676,37.0525,9.3594,4.1067,22.2525.9644,39.4651-4.1611-8.3884,11.791-18.5087,17.8884-39.5037,22.3997,13.1188,4.5266,33.4765,2.73,51.9309-3.29-4.7767,10.3987-20.5906,19.3668-50.2763,22.8354,25.919,8.6488,38.4392,5.8488,65.1427-2.0922,37.3518-11.1066,61.6089,19.3355,18.0272,29.9053-10.5787,2.5667-23.527-2.1855-36.5516-7.6299l-12.4273,15.1826c17.0484,8.8588,46.3153,15.7727,60.2102,15.5084,42.6717-.7778,60.2874-34.6025,49.6548-68.592-6.7729-21.6527-25.9106-34.3467-42.113-45.9967,14.2605-19.4441,65.5458-41.8523,83.7914,3.4844-8.1787,19.3512-11.8526,40.0166-11.0681,55.2221,1.4059,27.2224,29.3598,52.6551,11.5729,66.3363-4.3263,3.0567-15.5338,7.6144-24.0773,10.3443-37.0959-2.17-59.5427-21.2327-87.8767-22.5554-21.2351-1.0111-38.129.8555-49.0103,16.8384-15.4252,22.6725-1.4835,60.6036,32.4663,61.2722.3728-13.4785,3.6893-20.6727,6.1593-25.6197-10.4312,0-33.4451,1.7811-33.3981-13.2769,0-7.6688,6.5166-10.1499,13.9262-10.321,37.2046-.8322,69.8411,48.0267,113.7643,50.9751.2952-21.777,32.4507-47.3038,57.3909-29.9283,12.0312-17.6712,10.0351-33.071,2.4077-45.5695,12.9631-14.3426,18.7103-30.6826,18.9746-48.0037.0809-3.9318-.3711-7.8564-1.3437-11.6666,8.0312-1.1744,18.1901-3.78,23.6199-7.6688v157.1723c7.301-1.0189,9.3827-2.2633,16.1095-7.6532v-25.7826c7.3787-.9255,15.5338-1.2677,23.3013-7.7776v-121.002c13.7947-.6222,34.4311-7.7388,47.4486-22.384l.2175-.0622c-3.9224,14.2255-15.0365,27.1126-36.0315,31.6396,15.6038,5.0244,34.4698-1.1511,48.933-11.5499-3.7826,10.3987-19.1074,27.634-47.3013,31.111,25.9263,8.6488,36.4502-.4744,63.1537-8.4155,37.3591-11.1066,59.6272,17.3912,16.0467,27.9997-10.5787,2.5667-23.5269-2.1855-36.5673-7.6532l-12.4273,15.2055c17.0412,8.851,46.2996,15.7184,60.2258,15.4541,41.2814-.7778,59.1071-32.4325,50.5949-65.2706,36.7846,2.6444,66.3001,64.392,35.5343,80.592-12.4273,6.5411-23.1999,4.5732-35.5113,2.0767-27.185-5.5144-47.4413-18.0127-70.7583-19.1255-21.258-.9878-38.1134.8011-48.9874,16.7841-15.4722,22.6725-1.5534,60.6036,32.4193,61.2722.3806-13.4869,3.6893-20.6727,6.1671-25.6197-10.4389,0-33.4524,1.7733-33.3981-13.2842,0-7.6688,6.5166-10.1499,13.9262-10.3132,37.2046-.8322,69.8411,48.0267,113.7716,50.9751.2952-21.777,32.4507-47.3038,57.3909-29.9367,12.3259-18.1141,9.9108-33.8482,1.8174-46.5108,13.499-17.6627,21.818-35.8239,19.4646-51.0222-1.7632-25.6668-24.3573-33.5996-24.5601-55.0966-.1553-14.5755,14.1676-35.5439,29.7014-49.1237l-7.6894-9.5899c-9.5492,3.3682-18.3338,8.6057-25.8405,15.4071-8.8544-12.8569-23.9615-35.5125-45.8253-40.7625-6.3147,2.1855-14.9666,15.4312-21.4065,28.9797-23.6971,4.8611-42.4629,21.6297-50.292,36.1582-9.5224-7.9722-21.9882-24.5311-9.9341-36.1353,9.2739-8.9288,30.2915-5.3277,42.0816,0l.132-17.8884-.0078-.0311.0008.0046ZM571.7911,192.5811c-8.9477-14.1326-25.0416-23.8625-37.4532-31.5226,8.2487-11.2621,30.2915-24.9354,49.802-24.4768,27.961.6689,50.4079,33.6069,23.6899,53.4637-6.1438,4.5732-16.311,4.7832-36.0387,2.5355h0Z" style="fill: #d30029;"/>
    <path id="a" d="M400.0058,703.913c-112.9256-85.889-179.6565-170.979-219.6767-253.4453,103.9621-3.2277,172.1014-32.9853,219.6767-69.2678,56.7778,39.3239,132.1295,71.4848,219.6888,69.2219-40.0311,82.4434-106.7584,167.5635-219.6888,253.4694v.0217Z"/>
    <path d="M400.0058,688.7546c-102.3231-77.8077-159.9361-151.9103-197.7597-225.8439,76.8941-6.3388,145.9-27.6726,197.7597-65.7835,51.8766,38.1109,120.8813,59.4221,197.7718,65.7679-37.8647,73.8878-95.4415,148.0362-197.7718,225.856v.0036Z" style="fill: #ffdc00;"/>
    <path d="M361.1442,599.9884c3.4537-.4615,6.9775-.897,10.571-1.3067-10.571-20.4168,3.5806-37.7139,22.4541-38.1109-14.3535,13.7126-13.9419,28.6526-3.5263,36.2523,6.8195-.5522,8.3574-.7778,15.3636-1.0966-12.2487-18.3941,1.2583-34.4082,19.8761-36.5553-9.002,8.9832-13.6161,25.6668-2.5709,35.8782,6.3224-.1556,9.5457-.2178,15.7981-.1867-7.1846-18.9312,7.1301-30.7526,22.734-31.3126-8.5438,7.6376-15.0909,22.9754-5.0175,33.0324,4.8699,1.0033,9.9651.91,18.16,3.3367,5.3593,2.73,9.7166,6.9999,10.9826,10.3676-66.1758-8.0343-75.9853-6.0043-125.0089,2.1155-19.7977,10.3832-29.0955,13.1526-38.9823,3.8888-1.701-2.4422-.2563-8.8588,6.5554-10.2976-.0777-4.5033,3.1922-6.9999,6.8039-8.0966,9.3981-2.8622,14.2219,5.0632,25.8019,2.0922l.005-.0007ZM330.8527,542.799c3.6972-.5185,7.4667-1.0137,11.3089-1.4855-12.49-20.4868,1.4525-40.3425,21.6466-40.7781-14.1748,15.7498-12.5443,29.9367-1.4059,38.6709,7.301-.6378,14.7577-1.1589,22.2368-1.5556-14.8507-17.5541,2.532-37.7296,22.4311-40.1566-9.6079,10.321-15.7365,27.6569-3.8835,39.3938,6.765-.1789,13.5219-.2567,20.1948-.2178-10.0971-19.4441,7.6195-35.3966,24.3187-36.0423-9.1573,8.7732-15.8681,24.8883-5.0952,36.4539,7.1457.2722,14.1519.6767,20.9708,1.2289-6.3147-13.7198,2.5709-25.0983,19.7132-28.404-7.3709,8.1822-11.6118,19.6927-4.1632,29.9596,9.406,1.1355,20.5906,5.39,28.5597,7.1866,7.899,4.5577,10.2525,5.9732,16.5753,10.5387-73.6319-11.3322-153.7206-8.7655-193.5357-.56-21.1808,11.9154-31.1146,15.1041-41.6942,4.4567-1.8175-2.7999-.2719-10.1732,6.9904-11.8221-.1476-9.1855,7.7204-9.6366,15.4179-9.6366,6.2602,5.8099,12.4273,4.6666,19.4175,2.7377v.0311l-.0042.0006ZM305.7568,488.744c4.5825-.5911,12.233-2.9244,16.9869-3.4377-13.9805-25.8997,4.7534-52.2665,30.4002-49.7767-19.053,17.3912-20.2949,36.0182-6.47,45.6552,9.0565-.7,15.3165-1.8744,24.6144-2.3333-13.7247-22.0497,3.6893-50.6167,26.9594-47.7708-13.1345,11.9854-18.0658,34.5566-3.4097,47.5524,8.3884-.1944,16.7696-.2722,25.0718-.2333-9.5767-24.1111,8.2641-48.8751,33.7324-41.2609-13.1345,3.7799-23.2699,28.9724-9.8719,41.7509,8.8623.2956,17.5541.7778,25.9649,1.3533-5.6156-18.4327,4.9786-38.1109,28.6212-30.4496-10.936,7.2488-18.5631,20.8368-9.3205,32.1683,11.6507,1.26,25.5533,3.8888,35.4256,5.88,9.8331,4.5422,18.493,11.8454,22.3539,13.9998-91.3332-12.5069-179.0651-11.1687-239.4937,1.1744-26.2762,13.1526-40.3883,16.0769-53.5071,4.3244-2.2524-3.1111-.3418-11.231,8.6914-13.0585-.1786-10.111,9.5767-10.6399,19.1303-10.6399,7.767,6.4244,15.4336,7.2255,24.1401,5.0944l-.0233.0078h.0041Z"/>
  </g>
</svg>