<?xml version="1.0" encoding="utf-8"?>
<!-- Created by @FCLOGO 2025-2-9 GMT+8 21:00:28 . https://fclogo.top/ -->
<!-- FOR PERSONAL USE ONLY NOT FOR COMMERCIAL USE -->
<svg version="1.1" xmlns="http://www.w3.org/2000/svg" xmlns:xlink="http://www.w3.org/1999/xlink" x="0px" y="0px"
	 viewBox="0 0 800 800" style="enable-background:new 0 0 800 800;" xml:space="preserve">
<g>
	<path style="fill-rule:evenodd;clip-rule:evenodd;fill:#1A171B;" d="M273.6139,374.1869l-13.9527,6.5458v81.7728l13.9527-6.546
		c26.9319-12.6385,42.0476-33.6851,42.0476-60.6207C315.6614,368.4069,299.9661,361.8188,273.6139,374.1869z"/>
	<path style="fill-rule:evenodd;clip-rule:evenodd;fill:#1A171B;" d="M663.9229,393.3768
		c0.6361-86.488,22.0972-154.9932,82.7707-215.252c-4.6837-5.1967-8.8825-10.8572-12.5928-16.6827
		c-10.7659-16.9111-21.412-42.3956-21.412-62.7358c0-3.0429-0.021-6.2473,0.0914-9.4729c-0.6923-0.0105-1.3562-0.0176-1.9886-0.0176
		c-21.0256,0-48.6041-10.1261-67.0016-19.8238C633.8813,64.1671,623.8114,57.7124,615.0906,50
		c-19.8133,23.6645-50.4487,40.4981-77.7076,51.3131C494.6082,118.2806,445.9408,126.6499,400,126.6499
		c-45.9442,0-94.615-8.3693-137.383-25.3368C235.3583,90.4981,204.7264,73.6645,184.906,50
		c-8.7174,7.7124-18.7839,14.1671-28.6958,19.3919c-18.4009,9.6977-45.976,19.8238-67.005,19.8238
		c-0.6324,0-1.2929,0.0071-1.9818,0.0176c0.1089,3.2256,0.0879,6.43,0.0879,9.4729c0,20.3402-10.6428,45.8248-21.4121,62.7358
		c-3.7069,5.8255-7.9057,11.486-12.5928,16.6827c60.6769,60.2589,82.1346,128.764,82.767,215.252
		c0.2636,35.9796-2.8812,71.7307-3.6964,107.6507c-0.6957,30.8215,0.3478,63.2488,9.9681,92.7881
		c16.8304,51.6714,56.8999,81.583,105.2052,102.5488c37.4765,16.2682,75.0126,30.01,114.1931,41.4821
		c10.0384,2.9374,20.3895,5.6464,30.2699,9.0335c2.6564,0.9136,5.3723,1.9114,7.9865,3.1201
		c2.6106-1.2087,5.3303-2.2065,7.99-3.1201c9.8733-3.3871,20.2281-6.0961,30.2665-9.0335
		c39.1805-11.472,76.7202-25.2139,114.1931-41.4821c48.3054-20.9658,88.3748-50.8773,105.2016-102.5488
		c9.6273-29.5392,10.6638-61.9666,9.9681-92.7881C666.8112,465.1075,663.6595,429.3563,663.9229,393.3768z M635.9577,586.749
		c-14.7082,45.1606-50.6807,70.494-92.5912,88.6841c-36.3662,15.7867-73.4702,29.3705-111.5192,40.5123
		c-10.4461,3.0568-20.9589,5.8184-31.2607,9.3533l-0.587,0.2003l-0.5868-0.2003c-10.302-3.5349-20.8148-6.2964-31.2573-9.3533
		c-38.0525-11.1418-75.153-24.7256-111.5192-40.5123c-41.5065-18.0145-77.1839-43.0386-92.1589-87.384l477.6641-223.871
		c-0.6219,9.4903-0.9626,19.1633-1.0364,29.0295c-0.2599,36.1833,2.8917,72.1981,3.7034,108.3359
		C645.4409,529.6034,644.7171,559.8696,635.9577,586.749z M223.6184,506.1589V370.9087l49.219-23.0987
		c47.0828-22.0973,80.0265-22.8279,80.0265,29.4899c0,50.5752-33.9066,84.1198-80.0265,105.7639L223.6184,506.1589z
		 M399.4602,396.8913l-16.0327-36.4786l31.4646-14.7642l7.8388,34.8974l0.2355-0.1089l7.4806-42.0864l29.1702-13.6925
		L442.98,385.0293c-6.0294,22.5995-11.6968,42.4973-35.4419,53.6389c-7.9548,3.7352-13.9807,5.3584-19.8907,7.168v-17.8423
		c2.4105-0.4077,4.8207-1.0577,9.0406-3.0358c6.026-2.8319,9.5255-7.1257,9.5255-10.3792
		C406.2134,409.8776,401.6318,402.8679,399.4602,396.8913z M493.3935,378.6759v-29.8412c4.4587,0.0422,10.0734-1.4334,16.275-4.3427
		c10.657-5.0034,18.408-16.198,18.408-38.2848v-77.7039l36.0428-16.9145v88.5541c0,29.0647-11.8199,54.5703-48.4424,71.7554
		C507.7326,375.6298,499.5949,377.3162,493.3935,378.6759z M157.5555,359.8845c-5.2599-69.9285-26.5384-129.8183-74.2783-183.3132
		c0.6324-0.9522,1.2543-1.9115,1.8728-2.8743c11.2857-17.7297,21.4612-41.5942,24.2334-63.6458
		c20.0172-3.6472,41.0956-11.848,57.4656-20.474c5.3828-2.8355,10.6848-5.9275,15.8043-9.29
		c20.6636,18.429,46.5029,32.3008,71.548,42.2374c45.5544,18.067,96.857,26.9424,145.7982,26.9424
		c48.9451,0,100.2475-8.8754,145.7947-26.9424c25.0452-9.9366,50.895-23.8084,71.5551-42.2374
		c5.1229,3.3624,10.4144,6.4545,15.8043,9.29c16.3666,8.626,37.4484,16.8268,57.4586,20.474L157.5555,359.8845z"/>
</g>
<g>
</g>
<g>
</g>
<g>
</g>
<g>
</g>
<g>
</g>
<g>
</g>
<g>
</g>
<g>
</g>
<g>
</g>
<g>
</g>
<g>
</g>
<g>
</g>
<g>
</g>
<g>
</g>
<g>
</g>
</svg>
