<?xml version="1.0" encoding="UTF-8"?>
<svg data-name="图层_1" xmlns="http://www.w3.org/2000/svg" version="1.1" viewBox="0 0 800 800">
  <!-- Created by @FCLOGO 2024-12-14 GMT+8 13:07:04 . https://fclogo.top/ -->
<!-- FOR PERSONAL USE ONLY NOT FOR COMMERCIAL USE -->
  <path d="M348.2194,774.301c-.786,0-1.3752-.2173-1.7682-.6519-.393-.4352-.5284-1.03-.406-1.7856l.2518-1.6478c.122-.755.4501-1.3504.9841-1.785.5339-.4352,1.1939-.6525,1.9799-.6525.7553,0,1.3293.1987,1.7223.5954.3927.3967.551.9381.4747,1.6248h-1.2358c.0304-.3589-.0553-.637-.2573-.8357-.2024-.1981-.4979-.2974-.8869-.2974-.4197,0-.763.1167-1.03.3489-.2673.2328-.4349.5631-.5035.9903l-.2632,1.659c-.0686.4352-.0056.7686.1887,1.0015.1946.2328.5017.3489.9214.3489.389,0,.7152-.0987.9785-.2974.2632-.1981.4365-.4805.5206-.8469h1.2358c-.1372.6867-.4672,1.2306-.9897,1.631-.5228.4005-1.1616.6004-1.9169.6004ZM352.7967,774.1868l.9956-6.2943h1.1902l-.1946,1.1902c.3359-.8698.9729-1.3044,1.9113-1.3044.6712,0,1.1691.208,1.4932.624.3244.416.4293.9859.3148,1.7105l-.0686.4234h-1.2703l.0571-.3204c.0689-.4501.0115-.7953-.1714-1.0356-.1832-.2403-.4771-.3607-.8813-.3607-.4045,0-.7401.1223-1.007.3663-.2673.2446-.4349.588-.5035,1.03l-.6296,3.9711h-1.2358ZM361.9058,774.301c-.7705,0-1.3463-.2229-1.7279-.6693s-.515-1.0356-.4005-1.7682l.2518-1.6478c.0838-.488.2573-.9152.5206-1.2815s.6007-.6507,1.0129-.8524c.4119-.2024.8732-.3036,1.3845-.3036.7705,0,1.3485.2235,1.7338.6693.3852.4464.5169,1.0356.3949,1.7682l-.1717,1.1213h-3.845l-.0916.5265c-.1527.9536.2173,1.4305,1.1098,1.4305.7171,0,1.175-.2477,1.3734-.7438h1.2247c-.1679.5339-.5035.9599-1.007,1.2759-.5038.3166-1.0912.475-1.7626.475ZM361.2306,770.2157l-.0456.2862,2.6548-.0118.0459-.2856c.0686-.4656.0133-.822-.1661-1.0704-.1791-.2477-.4861-.3719-.9211-.3719-.4427,0-.7953.126-1.0586.3775-.2632.2521-.4331.6109-.5094,1.076ZM368.3258,774.301c-.6333,0-1.1027-.2117-1.4078-.6351s-.3967-1.0008-.2744-1.7335l.2744-1.7738c.1145-.7326.393-1.3119.8357-1.7397.4424-.4272.98-.6407,1.6133-.6407.4653,0,.8298.1186,1.093.3545.2632.2365.3908.5575.3834.9617h.023l.1717-1.202h1.2358l-.9956,6.2943h-1.2247l.1946-1.2014h-.023c-.122.4116-.3511.7339-.6867.9667s-.7401.3489-1.2129.3489ZM368.9324,773.2257c.389,0,.7152-.1186.9782-.3551.2632-.2359.4293-.5718.4979-1.007l.2518-1.6478c.0686-.4272.0096-.7612-.1773-1.0015-.1872-.2403-.475-.3601-.8642-.3601-.3967,0-.7249.118-.9841.3545-.2595.2365-.4234.5724-.492,1.007l-.2518,1.6478c-.0686.4427-.0133.7804.1658,1.0133.1794.2328.4712.3489.8757.3489ZM376.3477,774.1868c-.5721,0-.9937-.1565-1.2644-.4694-.271-.3123-.3607-.7512-.2691-1.3156l.538-3.3874h-1.7394l.1714-1.1219h1.7397l.2747-1.7161h1.2358l-.2747,1.7161h2.472l-.1832,1.1219h-2.4605l-.5377,3.3874c-.0764.4421.099.6637.5262.6637h1.7167l-.1717,1.1213h-1.7738ZM382.5042,774.301c-.7705,0-1.3463-.2229-1.7279-.6693s-.515-1.0356-.4005-1.7682l.2518-1.6478c.0838-.488.2573-.9152.5206-1.2815s.6007-.6507,1.0129-.8524c.4119-.2024.8732-.3036,1.3845-.3036.7705,0,1.3485.2235,1.7338.6693.3852.4464.5169,1.0356.3949,1.7682l-.1717,1.1213h-3.845l-.0916.5265c-.1527.9536.2173,1.4305,1.1098,1.4305.7171,0,1.175-.2477,1.3734-.7438h1.2247c-.1679.5339-.5035.9599-1.007,1.2759-.5038.3166-1.0912.475-1.7626.475ZM381.829,770.2157l-.0456.2862,2.6548-.0118.0459-.2856c.0686-.4656.0133-.822-.1661-1.0704-.1791-.2477-.4861-.3719-.9211-.3719-.4427,0-.7953.126-1.0586.3775-.2632.2521-.4331.6109-.5094,1.076ZM388.9243,774.301c-.6333,0-1.1008-.2117-1.4019-.6351-.3014-.4234-.3949-1.0008-.2803-1.7335l.2744-1.7738c.1145-.7326.393-1.3119.8357-1.7397.4424-.4272.98-.6407,1.6133-.6407.4653,0,.8298.1186,1.093.3545.2632.2365.3908.5575.3834.9617h.023l.2058-1.4652.2977-1.7962h1.2358l-1.3274,8.3537h-1.2247l.1946-1.2014h-.023c-.122.4116-.3511.7339-.6867.9667s-.7401.3489-1.2129.3489ZM389.5309,773.2257c.389,0,.7152-.1186.9782-.3551.2632-.2359.4293-.5718.4979-1.007l.2518-1.6478c.0761-.4272.0189-.7612-.1717-1.0015-.1909-.2403-.4805-.3601-.8698-.3601-.3967,0-.7249.118-.9841.3545-.2595.2365-.4234.5724-.492,1.007l-.2518,1.6478c-.0764.4427-.023.7804.1602,1.0133s.4768.3489.8813.3489ZM401.0175,774.301c-.4731,0-.8394-.1161-1.0986-.3489-.2595-.2328-.3852-.5551-.3775-.9667h-.0115l-.1946,1.2014h-1.2243l1.3274-8.3537h1.2358l-.2862,1.7962-.2744,1.4652h.0456c.122-.4123.353-.7345.6923-.9673.3396-.2322.7419-.3489,1.2076-.3489.633,0,1.1002.2136,1.4016.6407.3014.4278.3949,1.007.2806,1.7397l-.2747,1.7738c-.1145.7326-.3949,1.31-.8413,1.7335-.4461.4234-.9822.6351-1.6077.6351ZM400.7657,773.2257c.3967,0,.7227-.1161.9785-.3489.2555-.2328.4216-.5706.4976-1.0133l.2518-1.6478c.0689-.4346.0115-.7705-.1714-1.007-.1832-.2365-.4734-.3545-.8698-.3545-.3893,0-.7152.1198-.9785.3601s-.429.5743-.4979,1.0015l-.2518,1.6478c-.0686.4352-.0112.7711.1717,1.007.1832.2365.4731.3551.8698.3551ZM405.4694,776.2468l.1717-1.0642h1.934c.6407,0,1.007-.3017,1.0986-.9046l.1028-.6749.2061-1.1902h-.0345c-.122.4197-.3471.7438-.6752.9729-.3281.2285-.7286.3433-1.2014.3433-.6258,0-1.093-.2005-1.4019-.601s-.4104-.9443-.3033-1.631l.5836-3.6047h1.2358l-.5606,3.4793c-.0612.4116,0,.732.1832.9611s.4653.3433.8469.3433c.389,0,.7168-.1217.9841-.3663.267-.244.4309-.5836.492-1.0182l.538-3.3992h1.2358l-1.007,6.4086c-.0993.6029-.37,1.0778-.8124,1.4249-.4427.3471-.9996.5209-1.6707.5209h-1.9455ZM417.787,770.0853h3.221l.5368-1.8545h-5.4659l-1.7081,6.4419h2.1473l.5856-2.0985h3.0257l.4392-1.7081h-3.0257l.244-.7808ZM424.229,772.9158c-.5856,0-1.0249-.3904-1.0249-1.1225,0-.8784.6344-1.7569,1.6105-1.7569.488,0,.8784.244,1.0248.7808l1.9521-.8296c-.2928-1.1713-1.2689-1.9033-2.6353-1.9033-2.7817,0-4.1482,2.1473-4.1482,3.9042s1.2689,2.8305,3.0746,2.8305c1.3665,0,2.3425-.5856,2.9769-1.4153l-1.5129-1.1713c-.3904.4392-.8296.6832-1.3177.6832ZM430.9149,768.2308h-2.1473l-1.7569,6.4419h5.1242l.488-1.8545h-2.9281l1.2201-4.5874ZM439.7481,771.0125c0-1.6593-1.3177-2.9281-3.221-2.9281-2.1961,0-3.8066,1.8057-3.8066,3.8066,0,1.6593,1.3177,2.9281,3.221,2.9281,2.1961,0,3.8066-1.8057,3.8066-3.8066ZM434.9167,771.6957c0-.8296.5856-1.7081,1.5129-1.7081.7808,0,1.1713.5368,1.1713,1.2201,0,.8296-.5856,1.7081-1.5129,1.7081-.7808,0-1.1713-.5368-1.1713-1.2201ZM443.2131,772.2326h1.0737l-.1952.6832c-.1464.0488-.3416.0976-.5856.0976-.6832,0-1.2689-.3904-1.2689-1.2201,0-1.0249.732-1.9033,1.9521-1.9033.5856,0,1.1225.244,1.5129.5856l1.3665-1.3665c-.4392-.5368-1.5129-1.0737-2.7329-1.0737-2.5865,0-4.2946,1.7569-4.2946,3.8554,0,2.0497,1.6105,2.8793,3.221,2.8793.9272,0,1.8545-.2928,2.4889-.6832l.9272-3.3186h-3.1234l-.3416,1.4641ZM450.7775,768.0844c-2.1961,0-3.8066,1.8057-3.8066,3.8066,0,1.6593,1.3177,2.9281,3.221,2.9281,2.1961,0,3.8066-1.8057,3.8066-3.8066,0-1.6593-1.3177-2.9281-3.221-2.9281ZM450.3382,772.9158c-.7808,0-1.1713-.5368-1.1713-1.2201,0-.8296.5856-1.7081,1.5129-1.7081.7808,0,1.1713.5368,1.1713,1.2201,0,.8296-.5856,1.7081-1.5129,1.7081ZM437.9424,767.4987c-.0488.2928.0976.488.4392.488s.5368-.1952.6344-.488c.0488-.244-.0976-.488-.4392-.488s-.5856.244-.6344.488ZM432.1349,765.4978c-.4392,0-.732.244-.7808.5856s.0976.5856.5368.5856.732-.244.7808-.5856c.0976-.3416-.0976-.5856-.5368-.5856ZM433.0134,767.3035c-.0976.5368.1464.8784.8296.8784.6344,0,1.0737-.3904,1.1713-.8784s-.1464-.8784-.8296-.8784c-.6832,0-1.0737.3904-1.1713.8784ZM439.6017,777.552l-2.4401-1.8057h-1.5129l4.2458,3.1722,1.6105-3.1722h-.976l-.9272,1.8057ZM425.8394,767.1571l-2.0009-1.4641,23.1323-2.7817-2.1473,4.2458h1.0248l2.6841-5.3195-26.9877,3.221,2.7817,2.0985h1.5129ZM338.7186,785.7853l.6088-3.8315h2.32l-.084.5194h-1.7636l-.1837,1.1445h1.6272l-.084.5248h-1.6166l-.2573,1.6428h-.5668ZM342.97,785.8377c-.3568,0-.6228-.1005-.7978-.3019-.175-.201-.2345-.473-.1784-.8161l.2677-1.7006c.056-.3429.2029-.6148.4408-.8161.2379-.201.5355-.3019.8923-.3019s.6228.1.7979.2993c.1748.1993.2361.4707.1837.8136l-.2677,1.7057c-.0561.3431-.2039.6151-.4435.8161-.2398.2013-.5381.3019-.895.3019ZM343.0487,785.3339c.1925,0,.3483-.0524.4672-.1575.119-.1051.1942-.2571.2257-.4568l.2678-1.7006c.0315-.1993.0051-.3517-.0787-.4565-.084-.1051-.2223-.1575-.4148-.1575s-.3473.0524-.4645.1575c-.1173.1048-.1916.2571-.2231.4565l-.2677,1.7006c-.0315.1996-.0053.3517.0787.4568s.2204.1575.4094.1575ZM344.9961,785.7853l.6088-3.8315h1.202c.2379,0,.4391.0464.6036.139.1645.0928.2835.223.357.391s.091.3656.0524.5932c-.0384.2591-.14.4838-.3044.6746-.1645.1905-.3656.3209-.6036.391l.5354,1.6428h-.6194l-.4777-1.5748h-.5406l-.2466,1.5748h-.5668ZM345.8883,783.7068h.6352c.1889,0,.349-.0558.4803-.168.1313-.1119.2107-.2623.2388-.4514.0316-.1925,0-.3454-.0944-.4593-.0945-.1136-.2362-.1706-.4252-.1706h-.6352l-.1995,1.2493ZM349.545,785.7853l.6088-3.8315h1.2544c.3709,0,.6508.1048.8399.315.1889.2099.2553.4898.1993.8398-.0384.2344-.1216.4383-.2493.6114s-.2905.307-.4881.4015c-.1978.0945-.419.1418-.6639.1418h-.6928l-.2415,1.5221h-.5668ZM350.432,783.754h.6928c.1924,0,.3568-.0587.4934-.176.1364-.117.2204-.2737.2519-.4696s-.0017-.3525-.0997-.4699-.245-.1757-.441-.1757h-.6876l-.2099,1.2911ZM352.7466,785.7853l.6088-3.8315h2.2518l-.0787.5038h-1.6954l-.1731,1.0867h1.5115l-.0787.4986h-1.5115l-.1942,1.2387h1.6901l-.0787.5038h-2.2518ZM355.8434,785.7853l.6088-3.8315h1.202c.2379,0,.4391.0464.6036.139.1645.0928.2835.223.357.391s.091.3656.0524.5932c-.0384.2591-.14.4838-.3044.6746-.1645.1905-.3656.3209-.6036.391l.5354,1.6428h-.6194l-.4777-1.5748h-.5406l-.2466,1.5748h-.5668ZM356.7356,783.7068h.6352c.1889,0,.349-.0558.4803-.168.1313-.1119.2107-.2623.2388-.4514.0316-.1925,0-.3454-.0944-.4593-.0945-.1136-.2362-.1706-.4252-.1706h-.6352l-.1995,1.2493ZM360.1316,785.8377c-.385,0-.6736-.0951-.8661-.2859-.1924-.1908-.2641-.4505-.2151-.7794h.5668c-.028.1748.0105.3121.1155.4121.1051.0997.266.1495.483.1495.2029,0,.3701-.049.5012-.1469.1313-.098.2109-.2327.2389-.4044.0209-.1504.0007-.2788-.0604-.3856-.0614-.1068-.1583-.1811-.2913-.2233l-.4566-.1364c-.266-.0803-.4619-.217-.5879-.4095-.126-.1922-.1697-.4197-.1313-.6823.035-.2099.1121-.3935.2309-.551s.2729-.2799.4619-.3673.4024-.1313.6404-.1313c.3498,0,.6158.0954.7978.2859.182.1908.2485.4437.1995.7586h-.5668c.0279-.168-.0027-.3001-.092-.3964-.0891-.0963-.2301-.1444-.4225-.1444-.1889,0-.343.0447-.4619.1338-.119.0894-.1889.2144-.21.3753-.0245.1506-.007.2791.0525.3859s.1575.1811.2939.223l.4672.1469c.2624.0806.4558.2173.5801.4095.1242.1925.1653.4217.1233.6877-.035.217-.1155.4058-.2415.5667-.1259.1612-.2878.2862-.4855.3753-.1976.0894-.419.1338-.6639.1338ZM363.2651,785.8377c-.3568,0-.6228-.1005-.7978-.3019-.175-.201-.2345-.473-.1784-.8161l.2677-1.7006c.056-.3429.2029-.6148.4408-.8161.2379-.201.5355-.3019.8923-.3019s.6228.1.7979.2993c.1748.1993.2361.4707.1837.8136l-.2677,1.7057c-.0561.3431-.2039.6151-.4435.8161-.2398.2013-.5381.3019-.895.3019ZM363.3439,785.3339c.1925,0,.3483-.0524.4672-.1575.119-.1051.1942-.2571.2257-.4568l.2678-1.7006c.0315-.1993.0051-.3517-.0787-.4565-.084-.1051-.2223-.1575-.4148-.1575s-.3473.0524-.4645.1575c-.1173.1048-.1916.2571-.2231.4565l-.2677,1.7006c-.0315.1996-.0053.3517.0787.4568s.2204.1575.4094.1575ZM365.2754,785.7853l.6088-3.8315h.7086l.6194,3.186c.007-.098.0165-.217.0289-.3571.0121-.1398.0271-.2851.0446-.4354.0175-.1506.0367-.2888.0577-.4146l.315-1.9788h.525l-.609,3.8315h-.7085l-.6141-3.186c-.0071.0945-.0167.209-.0289.3437s-.0272.2757-.0446.4226c-.0177.1469-.0367.2833-.0578.4095l-.315,2.0102h-.5301ZM368.2252,785.7853l1.5851-3.8315h.7454l.3726,3.8315h-.5616l-.0735-.9711h-1.0865l-.3884.9711h-.5932ZM369.3852,784.3418h.8714l-.0893-1.1023c-.0175-.1959-.0298-.3654-.0367-.5089-.0071-.1435-.0105-.2432-.0105-.2993-.0175.0561-.0517.1558-.1024.2993s-.1146.3112-.1915.5038l-.441,1.1075ZM371.7208,785.7853l.6088-3.8315h.567l-.525,3.3118h1.6744l-.0787.5197h-2.2465ZM376.6785,785.8377c-.3673,0-.6342-.1005-.8003-.3019-.1663-.201-.2214-.475-.1654-.8213l.4357-2.7608h.567l-.4357,2.7554c-.0315.1962-.008.35.0708.4619.0787.1122.2144.168.4068.168.1925,0,.3473-.0558.4646-.168.1172-.1119.1915-.2657.2231-.4619l.4355-2.7554h.567l-.4357,2.7608c-.056.35-.2003.6245-.433.8241-.2328.1993-.5328.299-.9003.299ZM379.8435,785.8377c-.385,0-.6736-.0951-.8661-.2859-.1924-.1908-.2641-.4505-.2151-.7794h.5668c-.028.1748.0105.3121.1155.4121.1051.0997.266.1495.483.1495.2029,0,.3701-.049.5012-.1469.1313-.098.2109-.2327.2389-.4044.0209-.1504.0007-.2788-.0604-.3856-.0614-.1068-.1583-.1811-.2913-.2233l-.4566-.1364c-.266-.0803-.4619-.217-.5879-.4095-.126-.1922-.1697-.4197-.1313-.6823.035-.2099.1121-.3935.2309-.551s.2729-.2799.4619-.3673.4024-.1313.6404-.1313c.3498,0,.6158.0954.7978.2859.182.1908.2485.4437.1995.7586h-.5668c.0279-.168-.0027-.3001-.092-.3964-.0891-.0963-.2301-.1444-.4225-.1444-.1889,0-.343.0447-.4619.1338-.119.0894-.1889.2144-.21.3753-.0245.1506-.007.2791.0525.3859s.1575.1811.2939.223l.4672.1469c.2624.0806.4558.2173.5801.4095.1242.1925.1653.4217.1233.6877-.035.217-.1155.4058-.2415.5667-.1259.1612-.2878.2862-.4855.3753-.1976.0894-.419.1338-.6639.1338ZM381.9062,785.7853l.6088-3.8315h2.2518l-.0787.5038h-1.6954l-.1731,1.0867h1.5115l-.0787.4986h-1.5115l-.1942,1.2387h1.6901l-.0787.5038h-2.2518ZM386.9426,785.8377c-.3568,0-.6228-.1005-.7978-.3019-.175-.201-.2345-.473-.1784-.8161l.2677-1.7006c.056-.3429.2029-.6148.4408-.8161.2379-.201.5355-.3019.8923-.3019s.6228.1.7979.2993c.1748.1993.2361.4707.1837.8136l-.2677,1.7057c-.0561.3431-.2039.6151-.4435.8161-.2398.2013-.5381.3019-.895.3019ZM387.0213,785.3339c.1925,0,.3483-.0524.4672-.1575.119-.1051.1942-.2571.2257-.4568l.2678-1.7006c.0315-.1993.0051-.3517-.0787-.4565-.084-.1051-.2223-.1575-.4148-.1575s-.3473.0524-.4645.1575c-.1173.1048-.1916.2571-.2231.4565l-.2677,1.7006c-.0315.1996-.0053.3517.0787.4568s.2204.1575.4094.1575ZM388.9529,785.7853l.6088-3.8315h.7086l.6194,3.186c.007-.098.0165-.217.0289-.3571.0121-.1398.0271-.2851.0446-.4354.0175-.1506.0367-.2888.0577-.4146l.315-1.9788h.525l-.609,3.8315h-.7085l-.6141-3.186c-.0071.0945-.0167.209-.0289.3437s-.0272.2757-.0446.4226c-.0177.1469-.0367.2833-.0578.4095l-.315,2.0102h-.5301ZM392.249,785.7853l.6088-3.8315h.567l-.525,3.3118h1.6744l-.0787.5197h-2.2465ZM396.1174,785.7853l.2204-1.4119-.7506-2.4197h.5774l.4462,1.4486c.0279.0945.0498.1837.0656.2677.0157.084.0253.1469.0288.1888.0175-.0419.0464-.1048.0867-.1888.0402-.084.0883-.1731.1442-.2677l.8976-1.4486h.5984l-1.5275,2.4197-.2204,1.4119h-.5668ZM399.217,785.7853l.6088-3.8315h.7086l.6192,3.186c.0071-.098.0165-.217.029-.3571.012-.1398.0271-.2851.0444-.4354.0177-.1506.037-.2888.0578-.4146l.315-1.9788h.5248l-.6088,3.8315h-.7085l-.6141-3.186c-.0071.0945-.0167.209-.0289.3437s-.0272.2757-.0446.4226c-.0177.1469-.0367.2833-.0578.4095l-.315,2.0102h-.5301ZM403.5053,785.8377c-.3571,0-.6231-.1005-.7979-.3019-.1751-.201-.2344-.473-.1785-.8161l.2677-1.7006c.0561-.3429.203-.6148.4411-.8161.2378-.201.5354-.3019.8922-.3019.3571,0,.6228.1.7979.2993.1748.1993.2361.4707.1837.8136l-.2677,1.7057c-.0561.3431-.2039.6151-.4437.8161-.2395.2013-.5379.3019-.8947.3019ZM403.5839,785.3339c.1925,0,.3483-.0524.4673-.1575.1187-.1051.1942-.2571.2255-.4568l.2677-1.7006c.0316-.1993.0054-.3517-.0786-.4565-.084-.1051-.2224-.1575-.4146-.1575-.1925,0-.3474.0524-.4647.1575-.117.1048-.1914.2571-.223.4565l-.2677,1.7006c-.0316.1996-.0051.3517.0789.4568.0837.1051.2204.1575.4092.1575ZM406.3814,785.7853l.5248-3.3121h-1.0234l.084-.5194h2.6193l-.084.5194h-1.0289l-.5248,3.3121h-.567ZM409.5178,785.7853l.6088-3.8315h2.32l-.084.5194h-1.7636l-.1837,1.1445h1.6272l-.084.5248h-1.6166l-.2571,1.6428h-.567ZM413.7694,785.8377c-.3571,0-.6231-.1005-.7979-.3019-.1751-.201-.2344-.473-.1785-.8161l.2677-1.7006c.0561-.3429.203-.6148.4411-.8161.2378-.201.5354-.3019.8922-.3019.3571,0,.6228.1.7979.2993.1748.1993.2361.4707.1837.8136l-.2677,1.7057c-.0561.3431-.2039.6151-.4437.8161-.2395.2013-.5379.3019-.8947.3019ZM413.848,785.3339c.1925,0,.3483-.0524.4673-.1575.1187-.1051.1942-.2571.2255-.4568l.2677-1.7006c.0316-.1993.0054-.3517-.0786-.4565-.084-.1051-.2224-.1575-.4146-.1575-.1925,0-.3474.0524-.4647.1575-.117.1048-.1914.2571-.223.4565l-.2677,1.7006c-.0316.1996-.0051.3517.0789.4568.0837.1051.2204.1575.4092.1575ZM415.7952,785.7853l.6088-3.8315h1.202c.2381,0,.4391.0464.6037.139.1643.0928.2833.223.3568.391s.0911.3656.0527.5932c-.0387.2591-.1401.4838-.3044.6746-.1646.1905-.3659.3209-.6037.391l.5354,1.6428h-.6194l-.4776-1.5748h-.5408l-.2466,1.5748h-.567ZM416.6876,783.7068h.635c.1891,0,.3491-.0558.4804-.168.131-.1119.2107-.2623.2386-.4514.0316-.1925,0-.3454-.0945-.4593-.0943-.1136-.2361-.1706-.4252-.1706h-.635l-.1993,1.2493ZM420.905,785.8377c-.3602,0-.6308-.1005-.8107-.3019-.1803-.201-.2423-.473-.1865-.8161l.2677-1.7006c.0561-.3463.2056-.6194.4488-.8187s.545-.2993.9056-.2993c.3568,0,.6253.1008.8056.3019.1803.2013.2423.4733.1865.8161h-.567c.0313-.1993.0026-.3517-.0866-.4565-.0894-.1051-.2284-.1575-.4175-.1575-.1925,0-.3508.0524-.475.1575-.1242.1048-.2019.2554-.2335.4514l-.2677,1.7057c-.0316.1996-.0026.3517.0866.4568.0894.1051.2301.1575.4226.1575s.35-.0524.4724-.1575.1993-.2571.2309-.4568h.5667c-.0347.2275-.1145.4252-.2386.5932s-.2808.2976-.4699.3884c-.1888.0908-.4024.1364-.6404.1364ZM424.0335,785.8377c-.3571,0-.6231-.1005-.7979-.3019-.1751-.201-.2344-.473-.1785-.8161l.2677-1.7006c.0561-.3429.203-.6148.4411-.8161.2378-.201.5354-.3019.8922-.3019.3571,0,.6228.1.7979.2993.1748.1993.2361.4707.1837.8136l-.2677,1.7057c-.0561.3431-.2039.6151-.4437.8161-.2395.2013-.5379.3019-.8947.3019ZM424.1121,785.3339c.1925,0,.3483-.0524.4673-.1575.1187-.1051.1942-.2571.2255-.4568l.2677-1.7006c.0316-.1993.0054-.3517-.0786-.4565-.084-.1051-.2224-.1575-.4146-.1575-.1925,0-.3474.0524-.4647.1575-.117.1048-.1914.2571-.223.4565l-.2677,1.7006c-.0316.1996-.0051.3517.0789.4568.0837.1051.2204.1575.4092.1575ZM425.9653,785.7853l.6088-3.8315h.6874l.1837,1.2282c.0211.119.0367.2301.0473.3332.0105.1034.0194.1828.0262.2389.0177-.0561.0473-.1364.0894-.2415.0419-.1051.0908-.217.1469-.336l.5667-1.2228h.7088l-.6088,3.8315h-.5354l.2045-1.2911c.0245-.168.0578-.3525.1-.5539.0419-.201.0874-.4041.1364-.6088s.0963-.3998.1418-.5852c.0453-.1854.0874-.3483.1259-.4881l-.8554,1.8632h-.5513l-.2833-1.8632c-.0037.1364-.0105.2947-.0211.475s-.0236.3719-.0393.5747c-.0157.203-.035.4069-.0578.6114-.0228.2047-.0481.3964-.076.5749l-.2047,1.2911h-.5405ZM429.1145,785.7853l.6088-3.8315h.6874l.1837,1.2282c.0211.119.0367.2301.0473.3332.0105.1034.0194.1828.0262.2389.0177-.0561.0473-.1364.0894-.2415.0419-.1051.0908-.217.1469-.336l.5667-1.2228h.7088l-.6088,3.8315h-.5354l.2045-1.2911c.0245-.168.0578-.3525.1-.5539.0419-.201.0874-.4041.1364-.6088s.0963-.3998.1418-.5852c.0453-.1854.0874-.3483.1259-.4881l-.8554,1.8632h-.5513l-.2833-1.8632c-.0037.1364-.0105.2947-.0211.475s-.0236.3719-.0393.5747c-.0157.203-.035.4069-.0578.6114-.0228.2047-.0481.3964-.076.5749l-.2047,1.2911h-.5405ZM432.4107,785.7853l.6088-3.8315h2.2516l-.0786.5038h-1.6955l-.1731,1.0867h1.5115l-.0786.4986h-1.5118l-.1942,1.2387h1.6901l-.0786.5038h-2.2516ZM435.5073,785.7853l.6088-3.8315h1.202c.2381,0,.4391.0464.6037.139.1643.0928.2833.223.3568.391s.0911.3656.0527.5932c-.0387.2591-.1401.4838-.3044.6746-.1646.1905-.3659.3209-.6037.391l.5354,1.6428h-.6194l-.4776-1.5748h-.5408l-.2466,1.5748h-.567ZM436.3997,783.7068h.635c.1891,0,.3491-.0558.4804-.168.131-.1119.2107-.2623.2386-.4514.0316-.1925,0-.3454-.0945-.4593-.0943-.1136-.2361-.1706-.4252-.1706h-.635l-.1993,1.2493ZM439.8007,785.8377c-.3602,0-.6308-.1005-.8107-.3019-.1803-.201-.2423-.473-.1865-.8161l.2677-1.7006c.0561-.3463.2056-.6194.4488-.8187s.545-.2993.9056-.2993c.3568,0,.6253.1008.8056.3019.1803.2013.2423.4733.1865.8161h-.567c.0313-.1993.0026-.3517-.0866-.4565-.0894-.1051-.2284-.1575-.4175-.1575-.1925,0-.3508.0524-.475.1575-.1242.1048-.2019.2554-.2335.4514l-.2677,1.7057c-.0316.1996-.0026.3517.0866.4568.0894.1051.2301.1575.4226.1575s.35-.0524.4724-.1575.1993-.2571.2309-.4568h.5667c-.0347.2275-.1145.4252-.2386.5932s-.2808.2976-.4699.3884c-.1888.0908-.4024.1364-.6404.1364ZM441.8792,785.7853l.0789-.5038h.7768l.4459-2.824h-.7766l.0837-.5038h2.1258l-.084.5038h-.7766l-.4462,2.824h.7768l-.0789.5038h-2.1258ZM444.7399,785.7853l1.585-3.8315h.7452l.3728,3.8315h-.5616l-.0735-.9711h-1.0867l-.3884.9711h-.5929ZM445.8998,784.3418h.8714l-.0894-1.1023c-.0174-.1959-.0296-.3654-.0367-.5089-.0068-.1435-.0103-.2432-.0103-.2993-.0177.0561-.0518.1558-.1025.2993s-.1148.3112-.1916.5038l-.4408,1.1075ZM448.2354,785.7853l.6088-3.8315h.567l-.5248,3.3118h1.6741l-.0786.5197h-2.2465ZM453.1932,785.8377c-.3676,0-.6345-.1005-.8005-.3019-.1663-.201-.2213-.475-.1654-.8213l.4357-2.7608h.567l-.4357,2.7554c-.0316.1962-.008.35.0709.4619.0786.1122.2141.168.4066.168s.3474-.0558.4645-.168c.1173-.1119.1916-.2657.2233-.4619l.4357-2.7554h.5667l-.4357,2.7608c-.0558.35-.2002.6245-.4328.8241-.2329.1993-.5328.299-.9001.299ZM456.3581,785.8377c-.385,0-.6738-.0951-.866-.2859-.1925-.1908-.2643-.4505-.2153-.7794h.567c-.0282.1748.0105.3121.1153.4121.1051.0997.266.1495.483.1495.2028,0,.3699-.049.5012-.1469s.2107-.2327.2389-.4044c.0211-.1504.0009-.2788-.0604-.3856s-.1583-.1811-.2913-.2233l-.4568-.1364c-.266-.0803-.4619-.217-.5878-.4095-.1259-.1922-.1697-.4197-.1313-.6823.035-.2099.1119-.3935.2309-.551s.2731-.2799.4619-.3673c.1891-.0874.4024-.1313.6404-.1313.3497,0,.6157.0954.7979.2859.1817.1908.2483.4437.1993.7586h-.567c.0279-.168-.0026-.3001-.0917-.3964-.0894-.0963-.2301-.1444-.4226-.1444-.1891,0-.3429.0447-.4619.1338-.119.0894-.1891.2144-.2099.3753-.0245.1506-.0071.2791.0524.3859s.1575.1811.2939.223l.4673.1469c.2623.0806.4556.2173.5798.4095.1242.1925.1654.4217.1236.6877-.035.217-.1156.4058-.2415.5667-.1262.1612-.2879.2862-.4855.3753-.1979.0894-.4192.1338-.6641.1338ZM458.4209,785.7853l.6088-3.8315h2.2516l-.0786.5038h-1.6955l-.1731,1.0867h1.5115l-.0786.4986h-1.5118l-.1942,1.2387h1.6901l-.0786.5038h-2.2516Z" style="fill: #ccc;"/>
  <g>
    <path id="path49486" d="M399.9999,49.9923c-193.0039,0-349.9999,157.0115-349.9999,349.9999s156.996,350.0155,350,350.0155,350-157.0269,350-350.0154S592.9885,49.9923,400,49.9923" style="fill: #004170;"/>
    <path id="path49490" d="M399.5153,75.1144c-86.8016,0-168.4173,33.8008-229.7989,95.1823-61.3816,61.3816-95.1824,142.9973-95.1824,229.7989s33.8008,168.4019,95.1824,229.7989c61.3816,61.3816,142.9973,95.1825,229.7989,95.1825s168.4173-33.8008,229.7989-95.1824c61.3816-61.397,95.1823-142.9973,95.1823-229.7989s-33.8008-168.4173-95.1823-229.7989c-61.3815-61.3815-142.9972-95.1823-229.7988-95.1823M399.5153,87.9865c172.3839,0,312.1092,139.7407,312.1092,312.1092s-139.7253,312.1092-312.1092,312.1092S87.4061,572.4641,87.4061,400.0956,227.1468,87.9864,399.5152,87.9864" style="fill: #fff;"/>
    <path id="path49510" d="M305.932,175.2403l1.3736-34.3718,22.6419,25.9602c-8.1956,2.3923-16.2058,5.2013-24.0156,8.4116M310.7474,123.1656c-5.7106,1.8367-11.3595,3.8277-16.9158,6.0039l-6.0038,91.1386c5.4019-3.3029,10.9582-6.3743,16.6534-9.1988l.8643-21.2373c10.9891-4.8464,22.4412-8.8592,34.2638-11.9614l13.9987,16.067c6.1583-1.3273,12.4091-2.4077,18.7371-3.1795l-61.5977-67.6324ZM557.8109,179.4585c12.0386-2.8245,34.1557,19.1538,38.3847,34.0323,3.519-2.6855,11.3441-8.427,11.3441-8.427-9.3531-26.6085-46.5802-53.2323-64.2678-36.5635-10.4952,9.9087-4.5376,25.1731,4.6148,34.8194l8.8901,9.3531c9.0753,9.5537,16.993,19.0612,9.708,25.0651-7.7634,6.4206-29.4792-9.6617-42.5365-37.2735l-11.6836,8.8129c2.7936,7.2695,9.0907,17.7956,17.5486,26.7011,9.5846,10.0939,20.0335,16.6689,29.3866,18.5055,7.3467,1.4508,14.6779.355,19.5088-4.1364,12.0541-11.1743,7.6708-27.4728-11.2669-47.4137l-7.856-8.2573c-8.7203-9.1833-5.155-14.4155-1.7749-15.2181M204.7596,202.8135l21.901-24.031c4.9235-5.4019,13.3351-5.8032,18.7525-.8643,5.4019,4.9235,5.8032,13.3351.8643,18.7371l-21.901,24.0464-19.6168-17.8881ZM253.0839,246.8625l-18.2123-16.5917,22.5647-24.8489c10.2174-11.1898,10.2174-29.2168-.9878-39.4188-11.2052-10.2174-29.4483-8.8129-39.6503,2.3923l-33.5075,36.8567,58.3565,53.1706c3.6579-4.0129,7.501-7.8406,11.4367-11.5602M398.4488,124.0484h29.8805c7.3158,0,13.2734,5.9576,13.2734,13.2734s-5.9576,13.2733-13.2734,13.2733h-29.8805v-26.5467ZM398.4488,189.1342v-24.3242h20.3576l17.5641,27.766c6.9608,1.2656,13.7981,2.8553,20.4965,4.7846l-21.0522-33.5693c12.0695-3.2258,22.0245-13.8599,22.0245-26.4695,0-15.1563-14.3537-27.5036-29.5101-27.5036h-46.1326v79.9951c5.3556-.4167,10.7576-.6791,16.2367-.6791h.0154ZM487.4451,208.768l30.8837-74.2845c-5.0624-2.2688-10.202-4.3833-15.4033-6.3588l-30.8683,74.2382c5.2322,1.9293,10.3563,4.0746,15.3878,6.4051" style="fill: #fff;"/>
    <path id="path49522" d="M461.7195,397.7867c-27.9512-49.0342-44.4812-106.9277-45.7159-174.6373-5.3557-.4784-10.773-.7717-16.2522-.7717-5.5255,0-10.9737.2933-16.3756.7871-1.2348,67.6941-17.7647,125.5876-45.7159,174.6219h124.0597ZM465.8158,404.7583h-132.2552c-21.9164,36.3628-50.2227,67.7405-83.3135,94.4415,14.3074,21.7622,33.2143,40.2214,55.3623,53.9732-.818-4.7228-1.2656-9.5537-1.2656-14.4927,0-49.2657,42.7062-89.2093,95.3984-89.2093s95.3984,39.9436,95.3984,89.2093c0,4.939-.4476,9.7698-1.2656,14.4927,22.1171-13.7364,41.024-32.1647,55.3159-53.9114-33.1217-26.7166-61.4433-58.1096-83.3752-94.5032" style="fill: #e30613;"/>
    <path id="path49526" d="M424.9909,224.1943c86.7862,12.2701,153.5388,86.817,153.5388,176.9833,0,28.8773-6.8836,56.134-19.0457,80.2883-78.7758-59.0973-126.6371-142.3799-134.4931-257.2716M493.8735,553.173c.818-4.7228,1.2656-9.5537,1.2656-14.4927,0-49.2657-42.7063-89.2093-95.3984-89.2093s-95.3984,39.9436-95.3984,89.2093c0,4.939.4476,9.7698,1.281,14.4927-22.1634-13.7518-41.0702-32.211-55.3623-53.9732,33.0753-26.701,61.3816-58.0787,83.298-94.4415h132.2551c21.9319,36.3937,50.2536,67.7867,83.3752,94.5032-14.292,21.7468-33.1834,40.175-55.3159,53.9114M463.9004,568.0515c-19.9255,7.6709-41.5333,11.9153-64.1597,11.9153-22.611,0-44.2188-4.2444-64.1443-11.9153-7.2695-11.0354-11.483-24.0618-11.483-38.0451,0-39.6657,33.8625-71.8305,75.6273-71.8305s75.6427,32.1647,75.6427,71.8305c0,13.9833-4.2135,27.0098-11.483,38.0451M220.9516,401.1776c0-90.1817,66.7835-164.7286,153.5851-176.9833-7.856,114.8918-55.7327,198.1898-134.5239,257.2871-12.1621-24.1544-19.0612-51.4111-19.0612-80.3038M399.7406,222.3885c5.4946,0,10.8965.2778,16.2676.7717,1.2193,67.6941,17.7647,125.5876,45.7159,174.6219h-124.075c27.9667-49.0342,44.4966-106.9277,45.7313-174.6219,5.3865-.4784,10.8502-.7717,16.3602-.7717M399.7406,209.5164c-105.6776,0-191.6457,85.9836-191.6457,191.6612s85.9682,191.6457,191.6457,191.6457,191.6612-85.9682,191.6612-191.6457-85.9836-191.6612-191.6612-191.6612" style="fill: #fff;"/>
    <path id="path49542" d="M428.8649,517.0695c-9.2605,0-18.166,7.4547-23.321,21.0676-.0926.1853-.1543.4165-.1543.6485-.0159.8646.6791,1.5742,1.5434,1.5897.6173,0,1.1421-.3397,1.4199-.8487h0c0-.0353.015-.0441.015-.0794.015,0,.015-.0176.015-.0353,3.9511-8.5351,11.2978-12.5479,15.465-12.5479,2.346,0,4.2444,1.8984,4.2444,4.2444s-1.8984,4.2443-4.2444,4.2443c-.2161,0-.5557-.0265-.7563-.0618-.1852-.0265-.6329-.1385-.8643.3705-.1698.4165-.5248,2.454,1.2965,4.5377,1.065,1.2039,3.2566,2.2071,5.3402,2.2071,7.0071,0,12.6714-5.6797,12.6714-12.6714,0-7.0071-5.6643-12.6714-12.6714-12.6714M393.5347,538.1309c-5.1705-13.6129-14.076-21.0676-23.321-21.0676-7.0071,0-12.6714,5.6797-12.6714,12.6714s5.6643,12.6714,12.6714,12.6714c2.0836,0,4.2753-1.0032,5.3402-2.2071,1.8212-2.0836,1.4662-4.1209,1.281-4.5222-.2161-.525-.6636-.4165-.8489-.3856-.2007.0353-.5402.0618-.7562.0618-2.346,0-4.2444-1.8984-4.2444-4.2444,0-2.3305,1.8984-4.229,4.2444-4.229,4.1518,0,11.5139,3.9974,15.4496,12.548,0,.0176.015.0176.015.0353.015.0176.0309.0353.0309.0618.2624.5091.8026.8646,1.4045.8487.8798-.0176,1.5743-.7252,1.5589-1.5898,0-.2311-.0618-.4473-.1543-.6485M412.1885,511.1921c0-7.3004-9.5537-30.0966-12.4399-30.0966-.2161,0-.4476.1076-.7099.3238-3.4881,2.809-11.7454,22.9814-11.7454,29.7724,0,5.4482,11.0045,19.802,11.0045,27.6117h0c0,.8029.6482,1.4508,1.4508,1.4508.7871,0,1.4508-.6485,1.4508-1.4508,0-.0176-.0159-.0353-.0159-.0441.0459-7.8096,11.0045-22.1326,11.0045-27.5654M406.0998,551.3208c-2.0836-1.2811-3.6733-3.3184-4.2444-5.7569-.2624-.926-1.0958-1.6205-2.1145-1.6205-1.0032,0-1.8521.6943-2.1145,1.6205-.5711,2.4386-2.1608,4.4759-4.2444,5.7569-.3858.2311-.4167.4014-.2624.6943,1.2656,2.5158,3.4109,5.6335,6.0347,7.7479.3703.2929.5093.3088.5866.3088.0926,0,.2161-.0176.5866-.3088,2.6392-2.1145,4.7691-5.2322,6.0347-7.7479.1543-.2929.1235-.4632-.2624-.6943" style="fill: #ceab5d;"/>
    <path id="path49594" d="M360.4855,651.8821l-10.6804-2.346.9724-4.3215,10.665,2.4077-.957,4.2598ZM228.7381,566.0219c-2.454-9.1524-11.7299-18.1197-18.7371-18.1197-1.5743,0-2.9634.4473-4.1672,1.3427-1.4199,1.0495-2.2534,2.4541-2.5003,4.1518-.4012,2.6855.6791,6.0656,2.9016,9.0135l3.1949,4.2752c2.4695,3.3029,4.8618,6.7601,4.3524,9.492-.1852,1.0958-.8026,1.9756-1.8367,2.6393-.5557.3705-1.2039.54-1.9293.54-4.337,0-11.6682-7.717-15.2798-18.7987l-.0767-.2003-3.1486,2.9633-.0618.0618.015.0618c.7099,2.7781,2.593,7.2541,5.7569,11.4985,3.3338,4.445,7.1306,7.5319,10.6958,8.6739,1.1576.3705,2.2843.5559,3.3646.5559,1.5589,0,2.9479-.4014,3.9974-1.1576,1.7286-1.2811,2.7627-2.8862,3.0405-4.8.5402-3.5345-1.3428-8.211-5.5717-13.8598l-2.8245-3.7814c-2.2534-3.0097-2.1608-4.9698-1.6823-6.0811.4321-.9723,1.3273-1.6514,2.346-1.7749.1543-.0176.3242-.0176.4939-.0176,5.1396,0,12.4245,8.535,14.3229,15.1563l.0459.1544.1543-.0794c1.0649-.6176,2.2997-1.3272,3.0714-1.7595l.0926-.0618-.0303-.0886ZM519.1654,604.6659l-3.8431,1.9601-.6482,21.2528-17.5795-11.9614-3.8431,1.9756,13.0882,26.9634,3.9203-1.744-9.0907-19.1691.0768-.0441,17.4251,11.8071.6636-21.0213.0768-.0441,10.202,18.6444,3.7351-2.1145-14.1832-26.5049ZM569.9407,564.3797l28.8618,1.991.0459-.0618-16.9312-15.2335,2.8862-3.2103,22.2869,20.049-2.5929,3.2103-29.1551-1.991-.0618.0618,17.1473,15.4342-3.0251,3.0868-22.3487-20.1261,2.8866-3.2103ZM558.0548,576.1235l20.4657,22.0245-3.2257,2.8553-20.4039-21.9473,3.164-2.9325ZM540.3843,596.8362l2.2071,11.2361,7.6862-5.4637-9.8933-5.7724ZM567.4095,607.6709l-3.7659,2.9942-9.2759-5.6797-10.9119,7.7634,2.1145,10.8656-3.8431,2.454-6.328-32.2573,3.9048-2.7627,28.1056,16.6225ZM462.9234,632.9165l2.5466,8.4579,12.7795-3.8431c3.1022-.9415,4.3833-3.0714,3.5344-5.8649-.9723-3.2566-3.7042-3.3184-6.081-2.593l-12.7795,3.8431ZM474.4682,624.9371c4.5839-1.389,9.6926-.3705,11.4521,5.4791,1.883,6.2354-1.6978,9.4457-4.0592,10.3717l9.3685,10.0939-4.5376,1.6205-9.3068-10.2174-10.665,3.2103,3.5961,12.0541-4.1209,1.173-8.6431-28.692,16.9158-5.0933ZM447.23,632.4951l.6173,4.2753-20.0335,2.8707,1.1267,7.7943,10.0939-1.4508.6174,4.2753-10.0939,1.4508,1.2965,9.0598,20.7743-2.9788.602,4.2598-25.0342,3.5962-4.2598-29.6799,24.2933-3.4726ZM400.5309,650.6211l13.7364.2161-.1234,7.964c-.0926,5.3865-6.0656,8.89-13.582,8.7666-7.9794-.1385-16.2367-5.7415-16.067-15.928.1234-8.5506,7.0688-15.465,16.6689-15.3107,7.146.1076,10.8502,3.9203,12.5634,5.6335l-3.0405,3.0251c-1.4508-1.4662-3.7196-4.2444-9.1525-4.337-7.964-.1385-12.6405,4.9852-12.7332,11.2515-.1081,5.8804,4.445,11.2206,12.0386,11.3595,5.2013.0794,8.9518-2.2688,8.9827-4.8154l.0618-3.3493-9.4303-.1544.0771-4.3215ZM334.6472,628.2369l-1.4199,4.0746-9.9241-3.4572-8.5351,24.463-4.0746-1.4199,8.5197-24.4631-9.9241-3.4572,1.4199-4.0746,23.9383,8.3344ZM282.8179,606.0689l5.1859,28.4452.0767.0353,10.5878-20.157,3.8277,2.0064-13.937,26.5622-3.7814-1.7132-5.2322-28.7847-.0618-.0353-10.7731,20.4657-3.7042-2.1608,13.9987-26.6702,3.8128,2.0064ZM269.6602,597.6943l-16.7924,25.4664-3.6116-2.3615,16.7924-25.4664,3.6116,2.3615ZM243.93,585.0492l-10.3408,4.908,7.1769,6.0965,3.164-11.0045ZM240.056,614.2043l-3.8431-2.8862,3.2566-10.7113-10.202-8.6585-10.1403,4.8155-3.4418-3.1486,29.9423-14.1377,3.6579,3.1023-9.2296,31.6246Z" style="fill: #fff;"/>
  </g>
</svg>