<?xml version="1.0" encoding="UTF-8"?>
<svg data-name="图层_1" xmlns="http://www.w3.org/2000/svg" version="1.1" viewBox="0 0 800 800">
  <!-- Created by @FCLOGO 2025-1-9 GMT+8 10:42:11 . https://fclogo.top/ -->
<!-- FOR PERSONAL USE ONLY NOT FOR COMMERCIAL USE -->
  <path d="M348.2194,774.301c-.786,0-1.3752-.2173-1.7682-.6519-.393-.4352-.5284-1.03-.406-1.7856l.2518-1.6478c.122-.755.4501-1.3504.9841-1.785.5339-.4352,1.1939-.6525,1.9799-.6525.7553,0,1.3293.1987,1.7223.5954.3927.3967.551.9381.4747,1.6248h-1.2358c.0304-.3589-.0553-.637-.2573-.8357-.2024-.1981-.4979-.2974-.8869-.2974-.4197,0-.763.1167-1.03.3489-.2673.2328-.4349.5631-.5035.9903l-.2632,1.659c-.0686.4352-.0056.7686.1887,1.0015.1946.2328.5017.3489.9214.3489.389,0,.7152-.0987.9785-.2974.2632-.1981.4365-.4805.5206-.8469h1.2358c-.1372.6867-.4672,1.2306-.9897,1.631-.5228.4005-1.1616.6004-1.9169.6004ZM352.7967,774.1868l.9956-6.2943h1.1902l-.1946,1.1902c.3359-.8698.9729-1.3044,1.9113-1.3044.6712,0,1.1691.208,1.4932.624.3244.416.4293.9859.3148,1.7105l-.0686.4234h-1.2703l.0571-.3204c.0689-.4501.0115-.7953-.1714-1.0356-.1832-.2403-.4771-.3607-.8813-.3607-.4045,0-.7401.1223-1.007.3663-.2673.2446-.4349.588-.5035,1.03l-.6296,3.9711h-1.2358ZM361.9058,774.301c-.7705,0-1.3463-.2229-1.7279-.6693s-.515-1.0356-.4005-1.7682l.2518-1.6478c.0838-.488.2573-.9152.5206-1.2815s.6007-.6507,1.0129-.8524c.4119-.2024.8732-.3036,1.3845-.3036.7705,0,1.3485.2235,1.7338.6693.3852.4464.5169,1.0356.3949,1.7682l-.1717,1.1213h-3.845l-.0916.5265c-.1527.9536.2173,1.4305,1.1098,1.4305.7171,0,1.175-.2477,1.3734-.7438h1.2247c-.1679.5339-.5035.9599-1.007,1.2759-.5038.3166-1.0912.475-1.7626.475ZM361.2306,770.2157l-.0456.2862,2.6548-.0118.0459-.2856c.0686-.4656.0133-.822-.1661-1.0704-.1791-.2477-.4861-.3719-.9211-.3719-.4427,0-.7953.126-1.0586.3775-.2632.2521-.4331.6109-.5094,1.076ZM368.3258,774.301c-.6333,0-1.1027-.2117-1.4078-.6351s-.3967-1.0008-.2744-1.7335l.2744-1.7738c.1145-.7326.393-1.3119.8357-1.7397.4424-.4272.98-.6407,1.6133-.6407.4653,0,.8298.1186,1.093.3545.2632.2365.3908.5575.3834.9617h.023l.1717-1.202h1.2358l-.9956,6.2943h-1.2247l.1946-1.2014h-.023c-.122.4116-.3511.7339-.6867.9667s-.7401.3489-1.2129.3489ZM368.9324,773.2257c.389,0,.7152-.1186.9782-.3551.2632-.2359.4293-.5718.4979-1.007l.2518-1.6478c.0686-.4272.0096-.7612-.1773-1.0015-.1872-.2403-.475-.3601-.8642-.3601-.3967,0-.7249.118-.9841.3545-.2595.2365-.4234.5724-.492,1.007l-.2518,1.6478c-.0686.4427-.0133.7804.1658,1.0133.1794.2328.4712.3489.8757.3489ZM376.3477,774.1868c-.5721,0-.9937-.1565-1.2644-.4694-.271-.3123-.3607-.7512-.2691-1.3156l.538-3.3874h-1.7394l.1714-1.1219h1.7397l.2747-1.7161h1.2358l-.2747,1.7161h2.472l-.1832,1.1219h-2.4605l-.5377,3.3874c-.0764.4421.099.6637.5262.6637h1.7167l-.1717,1.1213h-1.7738ZM382.5042,774.301c-.7705,0-1.3463-.2229-1.7279-.6693s-.515-1.0356-.4005-1.7682l.2518-1.6478c.0838-.488.2573-.9152.5206-1.2815s.6007-.6507,1.0129-.8524c.4119-.2024.8732-.3036,1.3845-.3036.7705,0,1.3485.2235,1.7338.6693.3852.4464.5169,1.0356.3949,1.7682l-.1717,1.1213h-3.845l-.0916.5265c-.1527.9536.2173,1.4305,1.1098,1.4305.7171,0,1.175-.2477,1.3734-.7438h1.2247c-.1679.5339-.5035.9599-1.007,1.2759-.5038.3166-1.0912.475-1.7626.475ZM381.829,770.2157l-.0456.2862,2.6548-.0118.0459-.2856c.0686-.4656.0133-.822-.1661-1.0704-.1791-.2477-.4861-.3719-.9211-.3719-.4427,0-.7953.126-1.0586.3775-.2632.2521-.4331.6109-.5094,1.076ZM388.9243,774.301c-.6333,0-1.1008-.2117-1.4019-.6351-.3014-.4234-.3949-1.0008-.2803-1.7335l.2744-1.7738c.1145-.7326.393-1.3119.8357-1.7397.4424-.4272.98-.6407,1.6133-.6407.4653,0,.8298.1186,1.093.3545.2632.2365.3908.5575.3834.9617h.023l.2058-1.4652.2977-1.7962h1.2358l-1.3274,8.3537h-1.2247l.1946-1.2014h-.023c-.122.4116-.3511.7339-.6867.9667s-.7401.3489-1.2129.3489ZM389.5309,773.2257c.389,0,.7152-.1186.9782-.3551.2632-.2359.4293-.5718.4979-1.007l.2518-1.6478c.0761-.4272.0189-.7612-.1717-1.0015-.1909-.2403-.4805-.3601-.8698-.3601-.3967,0-.7249.118-.9841.3545-.2595.2365-.4234.5724-.492,1.007l-.2518,1.6478c-.0764.4427-.023.7804.1602,1.0133s.4768.3489.8813.3489ZM401.0175,774.301c-.4731,0-.8394-.1161-1.0986-.3489-.2595-.2328-.3852-.5551-.3775-.9667h-.0115l-.1946,1.2014h-1.2243l1.3274-8.3537h1.2358l-.2862,1.7962-.2744,1.4652h.0456c.122-.4123.353-.7345.6923-.9673.3396-.2322.7419-.3489,1.2076-.3489.633,0,1.1002.2136,1.4016.6407.3014.4278.3949,1.007.2806,1.7397l-.2747,1.7738c-.1145.7326-.3949,1.31-.8413,1.7335-.4461.4234-.9822.6351-1.6077.6351ZM400.7657,773.2257c.3967,0,.7227-.1161.9785-.3489.2555-.2328.4216-.5706.4976-1.0133l.2518-1.6478c.0689-.4346.0115-.7705-.1714-1.007-.1832-.2365-.4734-.3545-.8698-.3545-.3893,0-.7152.1198-.9785.3601s-.429.5743-.4979,1.0015l-.2518,1.6478c-.0686.4352-.0112.7711.1717,1.007.1832.2365.4731.3551.8698.3551ZM405.4694,776.2468l.1717-1.0642h1.934c.6407,0,1.007-.3017,1.0986-.9046l.1028-.6749.2061-1.1902h-.0345c-.122.4197-.3471.7438-.6752.9729-.3281.2285-.7286.3433-1.2014.3433-.6258,0-1.093-.2005-1.4019-.601s-.4104-.9443-.3033-1.631l.5836-3.6047h1.2358l-.5606,3.4793c-.0612.4116,0,.732.1832.9611s.4653.3433.8469.3433c.389,0,.7168-.1217.9841-.3663.267-.244.4309-.5836.492-1.0182l.538-3.3992h1.2358l-1.007,6.4086c-.0993.6029-.37,1.0778-.8124,1.4249-.4427.3471-.9996.5209-1.6707.5209h-1.9455ZM417.787,770.0853h3.221l.5368-1.8545h-5.4659l-1.7081,6.4419h2.1473l.5856-2.0985h3.0257l.4392-1.7081h-3.0257l.244-.7808ZM424.229,772.9158c-.5856,0-1.0249-.3904-1.0249-1.1225,0-.8784.6344-1.7569,1.6105-1.7569.488,0,.8784.244,1.0248.7808l1.9521-.8296c-.2928-1.1713-1.2689-1.9033-2.6353-1.9033-2.7817,0-4.1482,2.1473-4.1482,3.9042s1.2689,2.8305,3.0746,2.8305c1.3665,0,2.3425-.5856,2.9769-1.4153l-1.5129-1.1713c-.3904.4392-.8296.6832-1.3177.6832ZM430.9149,768.2308h-2.1473l-1.7569,6.4419h5.1242l.488-1.8545h-2.9281l1.2201-4.5874ZM439.7481,771.0125c0-1.6593-1.3177-2.9281-3.221-2.9281-2.1961,0-3.8066,1.8057-3.8066,3.8066,0,1.6593,1.3177,2.9281,3.221,2.9281,2.1961,0,3.8066-1.8057,3.8066-3.8066ZM434.9167,771.6957c0-.8296.5856-1.7081,1.5129-1.7081.7808,0,1.1713.5368,1.1713,1.2201,0,.8296-.5856,1.7081-1.5129,1.7081-.7808,0-1.1713-.5368-1.1713-1.2201ZM443.2131,772.2326h1.0737l-.1952.6832c-.1464.0488-.3416.0976-.5856.0976-.6832,0-1.2689-.3904-1.2689-1.2201,0-1.0249.732-1.9033,1.9521-1.9033.5856,0,1.1225.244,1.5129.5856l1.3665-1.3665c-.4392-.5368-1.5129-1.0737-2.7329-1.0737-2.5865,0-4.2946,1.7569-4.2946,3.8554,0,2.0497,1.6105,2.8793,3.221,2.8793.9272,0,1.8545-.2928,2.4889-.6832l.9272-3.3186h-3.1234l-.3416,1.4641ZM450.7775,768.0844c-2.1961,0-3.8066,1.8057-3.8066,3.8066,0,1.6593,1.3177,2.9281,3.221,2.9281,2.1961,0,3.8066-1.8057,3.8066-3.8066,0-1.6593-1.3177-2.9281-3.221-2.9281ZM450.3382,772.9158c-.7808,0-1.1713-.5368-1.1713-1.2201,0-.8296.5856-1.7081,1.5129-1.7081.7808,0,1.1713.5368,1.1713,1.2201,0,.8296-.5856,1.7081-1.5129,1.7081ZM437.9424,767.4987c-.0488.2928.0976.488.4392.488s.5368-.1952.6344-.488c.0488-.244-.0976-.488-.4392-.488s-.5856.244-.6344.488ZM432.1349,765.4978c-.4392,0-.732.244-.7808.5856s.0976.5856.5368.5856.732-.244.7808-.5856c.0976-.3416-.0976-.5856-.5368-.5856ZM433.0134,767.3035c-.0976.5368.1464.8784.8296.8784.6344,0,1.0737-.3904,1.1713-.8784s-.1464-.8784-.8296-.8784c-.6832,0-1.0737.3904-1.1713.8784ZM439.6017,777.552l-2.4401-1.8057h-1.5129l4.2458,3.1722,1.6105-3.1722h-.976l-.9272,1.8057ZM425.8394,767.1571l-2.0009-1.4641,23.1323-2.7817-2.1473,4.2458h1.0248l2.6841-5.3195-26.9877,3.221,2.7817,2.0985h1.5129ZM338.7186,785.7853l.6088-3.8315h2.32l-.084.5194h-1.7636l-.1837,1.1445h1.6272l-.084.5248h-1.6166l-.2573,1.6428h-.5668ZM342.97,785.8377c-.3568,0-.6228-.1005-.7978-.3019-.175-.201-.2345-.473-.1784-.8161l.2677-1.7006c.056-.3429.2029-.6148.4408-.8161.2379-.201.5355-.3019.8923-.3019s.6228.1.7979.2993c.1748.1993.2361.4707.1837.8136l-.2677,1.7057c-.0561.3431-.2039.6151-.4435.8161-.2398.2013-.5381.3019-.895.3019ZM343.0487,785.3339c.1925,0,.3483-.0524.4672-.1575.119-.1051.1942-.2571.2257-.4568l.2678-1.7006c.0315-.1993.0051-.3517-.0787-.4565-.084-.1051-.2223-.1575-.4148-.1575s-.3473.0524-.4645.1575c-.1173.1048-.1916.2571-.2231.4565l-.2677,1.7006c-.0315.1996-.0053.3517.0787.4568s.2204.1575.4094.1575ZM344.9961,785.7853l.6088-3.8315h1.202c.2379,0,.4391.0464.6036.139.1645.0928.2835.223.357.391s.091.3656.0524.5932c-.0384.2591-.14.4838-.3044.6746-.1645.1905-.3656.3209-.6036.391l.5354,1.6428h-.6194l-.4777-1.5748h-.5406l-.2466,1.5748h-.5668ZM345.8883,783.7068h.6352c.1889,0,.349-.0558.4803-.168.1313-.1119.2107-.2623.2388-.4514.0316-.1925,0-.3454-.0944-.4593-.0945-.1136-.2362-.1706-.4252-.1706h-.6352l-.1995,1.2493ZM349.545,785.7853l.6088-3.8315h1.2544c.3709,0,.6508.1048.8399.315.1889.2099.2553.4898.1993.8398-.0384.2344-.1216.4383-.2493.6114s-.2905.307-.4881.4015c-.1978.0945-.419.1418-.6639.1418h-.6928l-.2415,1.5221h-.5668ZM350.432,783.754h.6928c.1924,0,.3568-.0587.4934-.176.1364-.117.2204-.2737.2519-.4696s-.0017-.3525-.0997-.4699-.245-.1757-.441-.1757h-.6876l-.2099,1.2911ZM352.7466,785.7853l.6088-3.8315h2.2518l-.0787.5038h-1.6954l-.1731,1.0867h1.5115l-.0787.4986h-1.5115l-.1942,1.2387h1.6901l-.0787.5038h-2.2518ZM355.8434,785.7853l.6088-3.8315h1.202c.2379,0,.4391.0464.6036.139.1645.0928.2835.223.357.391s.091.3656.0524.5932c-.0384.2591-.14.4838-.3044.6746-.1645.1905-.3656.3209-.6036.391l.5354,1.6428h-.6194l-.4777-1.5748h-.5406l-.2466,1.5748h-.5668ZM356.7356,783.7068h.6352c.1889,0,.349-.0558.4803-.168.1313-.1119.2107-.2623.2388-.4514.0316-.1925,0-.3454-.0944-.4593-.0945-.1136-.2362-.1706-.4252-.1706h-.6352l-.1995,1.2493ZM360.1316,785.8377c-.385,0-.6736-.0951-.8661-.2859-.1924-.1908-.2641-.4505-.2151-.7794h.5668c-.028.1748.0105.3121.1155.4121.1051.0997.266.1495.483.1495.2029,0,.3701-.049.5012-.1469.1313-.098.2109-.2327.2389-.4044.0209-.1504.0007-.2788-.0604-.3856-.0614-.1068-.1583-.1811-.2913-.2233l-.4566-.1364c-.266-.0803-.4619-.217-.5879-.4095-.126-.1922-.1697-.4197-.1313-.6823.035-.2099.1121-.3935.2309-.551s.2729-.2799.4619-.3673.4024-.1313.6404-.1313c.3498,0,.6158.0954.7978.2859.182.1908.2485.4437.1995.7586h-.5668c.0279-.168-.0027-.3001-.092-.3964-.0891-.0963-.2301-.1444-.4225-.1444-.1889,0-.343.0447-.4619.1338-.119.0894-.1889.2144-.21.3753-.0245.1506-.007.2791.0525.3859s.1575.1811.2939.223l.4672.1469c.2624.0806.4558.2173.5801.4095.1242.1925.1653.4217.1233.6877-.035.217-.1155.4058-.2415.5667-.1259.1612-.2878.2862-.4855.3753-.1976.0894-.419.1338-.6639.1338ZM363.2651,785.8377c-.3568,0-.6228-.1005-.7978-.3019-.175-.201-.2345-.473-.1784-.8161l.2677-1.7006c.056-.3429.2029-.6148.4408-.8161.2379-.201.5355-.3019.8923-.3019s.6228.1.7979.2993c.1748.1993.2361.4707.1837.8136l-.2677,1.7057c-.0561.3431-.2039.6151-.4435.8161-.2398.2013-.5381.3019-.895.3019ZM363.3439,785.3339c.1925,0,.3483-.0524.4672-.1575.119-.1051.1942-.2571.2257-.4568l.2678-1.7006c.0315-.1993.0051-.3517-.0787-.4565-.084-.1051-.2223-.1575-.4148-.1575s-.3473.0524-.4645.1575c-.1173.1048-.1916.2571-.2231.4565l-.2677,1.7006c-.0315.1996-.0053.3517.0787.4568s.2204.1575.4094.1575ZM365.2754,785.7853l.6088-3.8315h.7086l.6194,3.186c.007-.098.0165-.217.0289-.3571.0121-.1398.0271-.2851.0446-.4354.0175-.1506.0367-.2888.0577-.4146l.315-1.9788h.525l-.609,3.8315h-.7085l-.6141-3.186c-.0071.0945-.0167.209-.0289.3437s-.0272.2757-.0446.4226c-.0177.1469-.0367.2833-.0578.4095l-.315,2.0102h-.5301ZM368.2252,785.7853l1.5851-3.8315h.7454l.3726,3.8315h-.5616l-.0735-.9711h-1.0865l-.3884.9711h-.5932ZM369.3852,784.3418h.8714l-.0893-1.1023c-.0175-.1959-.0298-.3654-.0367-.5089-.0071-.1435-.0105-.2432-.0105-.2993-.0175.0561-.0517.1558-.1024.2993s-.1146.3112-.1915.5038l-.441,1.1075ZM371.7208,785.7853l.6088-3.8315h.567l-.525,3.3118h1.6744l-.0787.5197h-2.2465ZM376.6785,785.8377c-.3673,0-.6342-.1005-.8003-.3019-.1663-.201-.2214-.475-.1654-.8213l.4357-2.7608h.567l-.4357,2.7554c-.0315.1962-.008.35.0708.4619.0787.1122.2144.168.4068.168.1925,0,.3473-.0558.4646-.168.1172-.1119.1915-.2657.2231-.4619l.4355-2.7554h.567l-.4357,2.7608c-.056.35-.2003.6245-.433.8241-.2328.1993-.5328.299-.9003.299ZM379.8435,785.8377c-.385,0-.6736-.0951-.8661-.2859-.1924-.1908-.2641-.4505-.2151-.7794h.5668c-.028.1748.0105.3121.1155.4121.1051.0997.266.1495.483.1495.2029,0,.3701-.049.5012-.1469.1313-.098.2109-.2327.2389-.4044.0209-.1504.0007-.2788-.0604-.3856-.0614-.1068-.1583-.1811-.2913-.2233l-.4566-.1364c-.266-.0803-.4619-.217-.5879-.4095-.126-.1922-.1697-.4197-.1313-.6823.035-.2099.1121-.3935.2309-.551s.2729-.2799.4619-.3673.4024-.1313.6404-.1313c.3498,0,.6158.0954.7978.2859.182.1908.2485.4437.1995.7586h-.5668c.0279-.168-.0027-.3001-.092-.3964-.0891-.0963-.2301-.1444-.4225-.1444-.1889,0-.343.0447-.4619.1338-.119.0894-.1889.2144-.21.3753-.0245.1506-.007.2791.0525.3859s.1575.1811.2939.223l.4672.1469c.2624.0806.4558.2173.5801.4095.1242.1925.1653.4217.1233.6877-.035.217-.1155.4058-.2415.5667-.1259.1612-.2878.2862-.4855.3753-.1976.0894-.419.1338-.6639.1338ZM381.9062,785.7853l.6088-3.8315h2.2518l-.0787.5038h-1.6954l-.1731,1.0867h1.5115l-.0787.4986h-1.5115l-.1942,1.2387h1.6901l-.0787.5038h-2.2518ZM386.9426,785.8377c-.3568,0-.6228-.1005-.7978-.3019-.175-.201-.2345-.473-.1784-.8161l.2677-1.7006c.056-.3429.2029-.6148.4408-.8161.2379-.201.5355-.3019.8923-.3019s.6228.1.7979.2993c.1748.1993.2361.4707.1837.8136l-.2677,1.7057c-.0561.3431-.2039.6151-.4435.8161-.2398.2013-.5381.3019-.895.3019ZM387.0213,785.3339c.1925,0,.3483-.0524.4672-.1575.119-.1051.1942-.2571.2257-.4568l.2678-1.7006c.0315-.1993.0051-.3517-.0787-.4565-.084-.1051-.2223-.1575-.4148-.1575s-.3473.0524-.4645.1575c-.1173.1048-.1916.2571-.2231.4565l-.2677,1.7006c-.0315.1996-.0053.3517.0787.4568s.2204.1575.4094.1575ZM388.9529,785.7853l.6088-3.8315h.7086l.6194,3.186c.007-.098.0165-.217.0289-.3571.0121-.1398.0271-.2851.0446-.4354.0175-.1506.0367-.2888.0577-.4146l.315-1.9788h.525l-.609,3.8315h-.7085l-.6141-3.186c-.0071.0945-.0167.209-.0289.3437s-.0272.2757-.0446.4226c-.0177.1469-.0367.2833-.0578.4095l-.315,2.0102h-.5301ZM392.249,785.7853l.6088-3.8315h.567l-.525,3.3118h1.6744l-.0787.5197h-2.2465ZM396.1174,785.7853l.2204-1.4119-.7506-2.4197h.5774l.4462,1.4486c.0279.0945.0498.1837.0656.2677.0157.084.0253.1469.0288.1888.0175-.0419.0464-.1048.0867-.1888.0402-.084.0883-.1731.1442-.2677l.8976-1.4486h.5984l-1.5275,2.4197-.2204,1.4119h-.5668ZM399.217,785.7853l.6088-3.8315h.7086l.6192,3.186c.0071-.098.0165-.217.029-.3571.012-.1398.0271-.2851.0444-.4354.0177-.1506.037-.2888.0578-.4146l.315-1.9788h.5248l-.6088,3.8315h-.7085l-.6141-3.186c-.0071.0945-.0167.209-.0289.3437s-.0272.2757-.0446.4226c-.0177.1469-.0367.2833-.0578.4095l-.315,2.0102h-.5301ZM403.5053,785.8377c-.3571,0-.6231-.1005-.7979-.3019-.1751-.201-.2344-.473-.1785-.8161l.2677-1.7006c.0561-.3429.203-.6148.4411-.8161.2378-.201.5354-.3019.8922-.3019.3571,0,.6228.1.7979.2993.1748.1993.2361.4707.1837.8136l-.2677,1.7057c-.0561.3431-.2039.6151-.4437.8161-.2395.2013-.5379.3019-.8947.3019ZM403.5839,785.3339c.1925,0,.3483-.0524.4673-.1575.1187-.1051.1942-.2571.2255-.4568l.2677-1.7006c.0316-.1993.0054-.3517-.0786-.4565-.084-.1051-.2224-.1575-.4146-.1575-.1925,0-.3474.0524-.4647.1575-.117.1048-.1914.2571-.223.4565l-.2677,1.7006c-.0316.1996-.0051.3517.0789.4568.0837.1051.2204.1575.4092.1575ZM406.3814,785.7853l.5248-3.3121h-1.0234l.084-.5194h2.6193l-.084.5194h-1.0289l-.5248,3.3121h-.567ZM409.5178,785.7853l.6088-3.8315h2.32l-.084.5194h-1.7636l-.1837,1.1445h1.6272l-.084.5248h-1.6166l-.2571,1.6428h-.567ZM413.7694,785.8377c-.3571,0-.6231-.1005-.7979-.3019-.1751-.201-.2344-.473-.1785-.8161l.2677-1.7006c.0561-.3429.203-.6148.4411-.8161.2378-.201.5354-.3019.8922-.3019.3571,0,.6228.1.7979.2993.1748.1993.2361.4707.1837.8136l-.2677,1.7057c-.0561.3431-.2039.6151-.4437.8161-.2395.2013-.5379.3019-.8947.3019ZM413.848,785.3339c.1925,0,.3483-.0524.4673-.1575.1187-.1051.1942-.2571.2255-.4568l.2677-1.7006c.0316-.1993.0054-.3517-.0786-.4565-.084-.1051-.2224-.1575-.4146-.1575-.1925,0-.3474.0524-.4647.1575-.117.1048-.1914.2571-.223.4565l-.2677,1.7006c-.0316.1996-.0051.3517.0789.4568.0837.1051.2204.1575.4092.1575ZM415.7952,785.7853l.6088-3.8315h1.202c.2381,0,.4391.0464.6037.139.1643.0928.2833.223.3568.391s.0911.3656.0527.5932c-.0387.2591-.1401.4838-.3044.6746-.1646.1905-.3659.3209-.6037.391l.5354,1.6428h-.6194l-.4776-1.5748h-.5408l-.2466,1.5748h-.567ZM416.6876,783.7068h.635c.1891,0,.3491-.0558.4804-.168.131-.1119.2107-.2623.2386-.4514.0316-.1925,0-.3454-.0945-.4593-.0943-.1136-.2361-.1706-.4252-.1706h-.635l-.1993,1.2493ZM420.905,785.8377c-.3602,0-.6308-.1005-.8107-.3019-.1803-.201-.2423-.473-.1865-.8161l.2677-1.7006c.0561-.3463.2056-.6194.4488-.8187s.545-.2993.9056-.2993c.3568,0,.6253.1008.8056.3019.1803.2013.2423.4733.1865.8161h-.567c.0313-.1993.0026-.3517-.0866-.4565-.0894-.1051-.2284-.1575-.4175-.1575-.1925,0-.3508.0524-.475.1575-.1242.1048-.2019.2554-.2335.4514l-.2677,1.7057c-.0316.1996-.0026.3517.0866.4568.0894.1051.2301.1575.4226.1575s.35-.0524.4724-.1575.1993-.2571.2309-.4568h.5667c-.0347.2275-.1145.4252-.2386.5932s-.2808.2976-.4699.3884c-.1888.0908-.4024.1364-.6404.1364ZM424.0335,785.8377c-.3571,0-.6231-.1005-.7979-.3019-.1751-.201-.2344-.473-.1785-.8161l.2677-1.7006c.0561-.3429.203-.6148.4411-.8161.2378-.201.5354-.3019.8922-.3019.3571,0,.6228.1.7979.2993.1748.1993.2361.4707.1837.8136l-.2677,1.7057c-.0561.3431-.2039.6151-.4437.8161-.2395.2013-.5379.3019-.8947.3019ZM424.1121,785.3339c.1925,0,.3483-.0524.4673-.1575.1187-.1051.1942-.2571.2255-.4568l.2677-1.7006c.0316-.1993.0054-.3517-.0786-.4565-.084-.1051-.2224-.1575-.4146-.1575-.1925,0-.3474.0524-.4647.1575-.117.1048-.1914.2571-.223.4565l-.2677,1.7006c-.0316.1996-.0051.3517.0789.4568.0837.1051.2204.1575.4092.1575ZM425.9653,785.7853l.6088-3.8315h.6874l.1837,1.2282c.0211.119.0367.2301.0473.3332.0105.1034.0194.1828.0262.2389.0177-.0561.0473-.1364.0894-.2415.0419-.1051.0908-.217.1469-.336l.5667-1.2228h.7088l-.6088,3.8315h-.5354l.2045-1.2911c.0245-.168.0578-.3525.1-.5539.0419-.201.0874-.4041.1364-.6088s.0963-.3998.1418-.5852c.0453-.1854.0874-.3483.1259-.4881l-.8554,1.8632h-.5513l-.2833-1.8632c-.0037.1364-.0105.2947-.0211.475s-.0236.3719-.0393.5747c-.0157.203-.035.4069-.0578.6114-.0228.2047-.0481.3964-.076.5749l-.2047,1.2911h-.5405ZM429.1145,785.7853l.6088-3.8315h.6874l.1837,1.2282c.0211.119.0367.2301.0473.3332.0105.1034.0194.1828.0262.2389.0177-.0561.0473-.1364.0894-.2415.0419-.1051.0908-.217.1469-.336l.5667-1.2228h.7088l-.6088,3.8315h-.5354l.2045-1.2911c.0245-.168.0578-.3525.1-.5539.0419-.201.0874-.4041.1364-.6088s.0963-.3998.1418-.5852c.0453-.1854.0874-.3483.1259-.4881l-.8554,1.8632h-.5513l-.2833-1.8632c-.0037.1364-.0105.2947-.0211.475s-.0236.3719-.0393.5747c-.0157.203-.035.4069-.0578.6114-.0228.2047-.0481.3964-.076.5749l-.2047,1.2911h-.5405ZM432.4107,785.7853l.6088-3.8315h2.2516l-.0786.5038h-1.6955l-.1731,1.0867h1.5115l-.0786.4986h-1.5118l-.1942,1.2387h1.6901l-.0786.5038h-2.2516ZM435.5073,785.7853l.6088-3.8315h1.202c.2381,0,.4391.0464.6037.139.1643.0928.2833.223.3568.391s.0911.3656.0527.5932c-.0387.2591-.1401.4838-.3044.6746-.1646.1905-.3659.3209-.6037.391l.5354,1.6428h-.6194l-.4776-1.5748h-.5408l-.2466,1.5748h-.567ZM436.3997,783.7068h.635c.1891,0,.3491-.0558.4804-.168.131-.1119.2107-.2623.2386-.4514.0316-.1925,0-.3454-.0945-.4593-.0943-.1136-.2361-.1706-.4252-.1706h-.635l-.1993,1.2493ZM439.8007,785.8377c-.3602,0-.6308-.1005-.8107-.3019-.1803-.201-.2423-.473-.1865-.8161l.2677-1.7006c.0561-.3463.2056-.6194.4488-.8187s.545-.2993.9056-.2993c.3568,0,.6253.1008.8056.3019.1803.2013.2423.4733.1865.8161h-.567c.0313-.1993.0026-.3517-.0866-.4565-.0894-.1051-.2284-.1575-.4175-.1575-.1925,0-.3508.0524-.475.1575-.1242.1048-.2019.2554-.2335.4514l-.2677,1.7057c-.0316.1996-.0026.3517.0866.4568.0894.1051.2301.1575.4226.1575s.35-.0524.4724-.1575.1993-.2571.2309-.4568h.5667c-.0347.2275-.1145.4252-.2386.5932s-.2808.2976-.4699.3884c-.1888.0908-.4024.1364-.6404.1364ZM441.8792,785.7853l.0789-.5038h.7768l.4459-2.824h-.7766l.0837-.5038h2.1258l-.084.5038h-.7766l-.4462,2.824h.7768l-.0789.5038h-2.1258ZM444.7399,785.7853l1.585-3.8315h.7452l.3728,3.8315h-.5616l-.0735-.9711h-1.0867l-.3884.9711h-.5929ZM445.8998,784.3418h.8714l-.0894-1.1023c-.0174-.1959-.0296-.3654-.0367-.5089-.0068-.1435-.0103-.2432-.0103-.2993-.0177.0561-.0518.1558-.1025.2993s-.1148.3112-.1916.5038l-.4408,1.1075ZM448.2354,785.7853l.6088-3.8315h.567l-.5248,3.3118h1.6741l-.0786.5197h-2.2465ZM453.1932,785.8377c-.3676,0-.6345-.1005-.8005-.3019-.1663-.201-.2213-.475-.1654-.8213l.4357-2.7608h.567l-.4357,2.7554c-.0316.1962-.008.35.0709.4619.0786.1122.2141.168.4066.168s.3474-.0558.4645-.168c.1173-.1119.1916-.2657.2233-.4619l.4357-2.7554h.5667l-.4357,2.7608c-.0558.35-.2002.6245-.4328.8241-.2329.1993-.5328.299-.9001.299ZM456.3581,785.8377c-.385,0-.6738-.0951-.866-.2859-.1925-.1908-.2643-.4505-.2153-.7794h.567c-.0282.1748.0105.3121.1153.4121.1051.0997.266.1495.483.1495.2028,0,.3699-.049.5012-.1469s.2107-.2327.2389-.4044c.0211-.1504.0009-.2788-.0604-.3856s-.1583-.1811-.2913-.2233l-.4568-.1364c-.266-.0803-.4619-.217-.5878-.4095-.1259-.1922-.1697-.4197-.1313-.6823.035-.2099.1119-.3935.2309-.551s.2731-.2799.4619-.3673c.1891-.0874.4024-.1313.6404-.1313.3497,0,.6157.0954.7979.2859.1817.1908.2483.4437.1993.7586h-.567c.0279-.168-.0026-.3001-.0917-.3964-.0894-.0963-.2301-.1444-.4226-.1444-.1891,0-.3429.0447-.4619.1338-.119.0894-.1891.2144-.2099.3753-.0245.1506-.0071.2791.0524.3859s.1575.1811.2939.223l.4673.1469c.2623.0806.4556.2173.5798.4095.1242.1925.1654.4217.1236.6877-.035.217-.1156.4058-.2415.5667-.1262.1612-.2879.2862-.4855.3753-.1979.0894-.4192.1338-.6641.1338ZM458.4209,785.7853l.6088-3.8315h2.2516l-.0786.5038h-1.6955l-.1731,1.0867h1.5115l-.0786.4986h-1.5118l-.1942,1.2387h1.6901l-.0786.5038h-2.2516Z" style="fill: #ccc;"/>
  <g>
    <path id="path1919" d="M599.155,556.579c34.1506-43.1645,54.5617-97.7225,54.5617-157.0225,0-128.3447-95.531-234.3909-219.3611-251.0267,0,216.4814,82.1777,333.8759,164.7994,408.049" style="fill: #1f53a9;"/>
    <path id="path1921" d="M750.3858,400c0,193.3074-156.8655,350-350.3858,350S49.6142,593.3074,49.6142,400,206.4909,50,400,50s350.3858,156.7041,350.3858,350" style="fill: #fff;"/>
    <path id="path1923" d="M750.3858,400c0,193.3074-156.8655,350-350.3858,350S49.6142,593.3074,49.6142,400,206.4909,50,400,50s350.3858,156.7041,350.3858,350Z" style="fill: none; stroke: #122657; stroke-width: .0469px;"/>
    <path id="path1925" d="M737.6703,400.4662c0,186.5188-151.3669,337.7193-338.0913,337.7193S61.4876,586.9851,61.4876,400.4662,212.8545,62.7469,399.579,62.7469s338.0913,151.2004,338.0913,337.7193" style="fill: #122657;"/>
    <path id="path1927" d="M133.7735,401.4556c0,146.6634,119.0374,265.5701,265.8624,265.5701s265.8624-118.9068,265.8624-265.5701-119.0262-265.5816-265.8624-265.5816S133.7735,254.7807,133.7735,401.4556" style="fill: #fff;"/>
    <path id="path1929" d="M400.0229,479.6086c101.9169,0,118.4461,81.1322,115.4064,149.9041,27.0019-13.5997,51.203-31.782,71.6821-53.5916-42.1533-43.6534-82.0527-91.0591-111.8094-155.6693h-150.5464c-29.7574,64.6102-69.6686,112.0159-111.8101,155.6693,20.4791,21.8096,44.6803,39.9919,71.6821,53.5916-3.0397-68.772,13.5006-149.9041,115.3952-149.9041" style="fill: #ed1c24;"/>
    <path id="path1931" d="M472.4561,413.9863c-29.4719-66.566-48.2432-151.2346-48.2432-267.9581-7.9346-.7391-16.0623-1.1144-24.19-1.1144-8.1166,0-16.2443.3753-24.1789,1.1144,0,116.7235-18.7713,201.3921-48.255,267.9581" style="fill: #ed1c24;"/>
    <path id="path1933" d="M198.8071,559.5354c-34.5376-43.6192-55.1759-98.7573-55.1759-158.6826,0-129.6752,96.5892-236.8357,221.8082-253.6534,0,218.7558-83.0886,337.3782-166.6323,412.3359" style="fill: #122657;"/>
    <path id="path1935" d="M400.0229,656.8031c28.7548,0,56.5988-4.7418,82.3938-13.4634,25.7839-68.4309,9.2665-157.4318-82.3938-157.4318s-108.1666,89.0009-82.3827,157.4318c25.795,8.7216,53.639,13.4634,82.3827,13.4634" style="fill: #122657;"/>
    <path id="path1937" d="M601.2609,559.5354c34.5265-43.6192,55.1647-98.7573,55.1647-158.6826,0-129.6752-96.5892-236.8357-221.8082-253.6534,0,218.7558,83.0886,337.3782,166.6434,412.3359" style="fill: #122657;"/>
    <path id="path1939" d="M428.8577,539.4543v49.1h-98.6729s3.9388,1.3077,6.8298,6.8227c2.6298,5.0033,4.2007,13.6452,10.5185,19.4216,6.2949,5.7764,9.1977,6.8227,21.2761,6.8227,1.1839,0,4.4738,3.4113,4.4738,7.2205h1.309c0-3.8094,3.2899-7.2205,4.4738-7.2205h45.3292c1.1839,0,4.4627,3.4113,4.4627,7.2205h1.3208c0-3.8094,3.2794-7.2205,4.4634-7.2205,24.4395,0,30.6218-15.7488,30.6218-33.3285,0-27.3131-13.6715-48.8385-36.4045-48.8385" style="fill: #fff;"/>
    <path id="path1941" d="M399.1009,538.1466c-1.844,0-3.3468.2615-4.7927,6.2996-1.548,6.4587-5.5209,8.4032-8.1507,8.4032h-2.1059v-9.4492c5.7828-8.4032,5.2589-16.2719-1.8329-24.152-7.0918,7.88-7.6268,15.7488-1.844,24.152v9.4492h-2.1059c-2.618,0-6.5908-1.9445-8.1395-8.4032-1.4459-6.0381-2.9598-6.2996-4.7927-6.2996-1.605,0-5.7258,1.1826-5.2019,4.594.535,3.4113,2.504,6.1063,4.075,5.3786.8539-.3866.6941-1.6943,1.127-2.2969.5009-.6937,1.5939-.5686,2.6868.5913,1.3208,1.4099,2.6638,6.0608,6.0447,9.5858,2.47,2.5698,4.6329,3.0475,6.3067,3.127v3.6955c0,2.8882-2.8917,3.6843-2.8917,3.6843l4.7357,5.242,4.7239-5.242s-2.8917-.7961-2.8917-3.6843v-3.6955c1.6849-.0796,3.8478-.5571,6.3067-3.127,3.392-3.525,4.7239-8.1757,6.0447-9.5858,1.0929-1.1599,2.1969-1.285,2.6979-.5913.4329.6026.2731,1.9103,1.1158,2.2969,1.5709.7277,3.5518-1.9672,4.075-5.3786.5239-3.4113-3.597-4.594-5.1908-4.594" style="fill: #fff;"/>
    <path id="path1943" d="M335.1936,682.1719l1.5598-8.733,15.8914,2.8542-7.1147,39.6622-10.3024-1.8421,5.5549-30.9405" style="fill: #fff;"/>
    <path id="path1945" d="M384.0975,692.872c.2619-3.6388-2.47-6.8-6.1128-7.05-3.688-.2615-6.8417,2.4789-7.1036,6.129-.2501,3.6388,2.4818,6.8,6.1246,7.05,3.688.2615,6.8298-2.422,7.0918-6.129ZM365.5652,718.616l10.4615-11.0641-.4329-.0227-.3759-.0342-1.3771-.1593c-1.127-.1251-3.5518-.8301-5.0088-1.5237-5.8286-2.6835-9.0615-7.9711-8.6176-14.2934.6378-9.0059,8.1395-14.7255,18.3044-14.009,9.7897.6937,16.3694,7.2433,15.7774,15.7033-.3418,4.6622-3.0509,10.3477-7.1946,15.0666l-9.7668,11.1663-11.7705-.8301" style="fill: #fff;"/>
    <path id="path1947" d="M401.605,689.0968l-.5239-8.8581,34.6405-2.0354-20.5931,41.5725-11.4975.6822,16.3923-32.4529" style="fill: #fff;"/>
    <path id="path1949" d="M450.338,695.9422c1.4229,7.6527,4.7468,11.7349,8.8677,10.973,4.1097-.7619,5.6577-5.6401,4.2007-13.4064-1.4459-7.7664-4.5759-11.7121-8.6856-10.9503-4.223.7846-5.8286,5.6286-4.3828,13.3837ZM473.6512,691.6666c2.3561,12.6673-2.8,22.4351-12.7724,24.2885-10.0627,1.8649-18.3961-5.3786-20.7751-18.1141-2.3561-12.6788,2.7778-22.5942,12.6814-24.4363,10.1767-1.8876,18.4642,5.3671,20.8661,18.2619" style="fill: #fff;"/>
    <path id="path1951" d="M135.2187,248.8338c1.992-3.4341,1.5369-5.7537-1.4459-7.4707-2.9258-1.7056-5.3159-.9097-7.2287,2.388l-1.753,3.0248,8.6968,5.0373,1.73-2.9791.0007-.0002ZM152.385,262.7519l-5.2589,9.0627-34.9017-20.2062,8.3667-14.4071c2.3679-4.0936,4.5078-5.9584,7.9686-6.9932,3.4608-1.0461,7.0008-.4889,10.6325,1.6147,7.5816,4.3892,9.3228,10.9275,4.9067,18.5461l-3.301,5.6741,11.5885,6.7089" style="fill: #fff;"/>
    <path id="path1953" d="M152.3739,212.4578l7.5246,11.3141,5.2937-6.9136-12.8176-4.4005h-.0007ZM164.4863,230.9472l3.8707,6.4247-6.7388,8.7785-22.585-36.7965,6.9438-9.0399,41.2765,12.4626-6.8076,8.8581-7.1606-2.1605-8.7996,11.4734" style="fill: #fff;"/>
    <path id="path1955" d="M183.0068,185.9748c2.8688-2.8313,3.2669-5.8675,1.07-8.0848-1.013-1.0348-2.8-1.6147-4.1667-1.3986-1.1839.182-2.561,1.0121-3.9388,2.3765l-1.3771,1.3532,7.0348,7.1183,1.3771-1.3645.0007-.0002ZM213.6515,186.9981l-9.2547,9.1423-18.0084-3.9912,10.8826,11.0072-7.4566,7.3684-28.3449-28.6663,11.5885-11.4507c3.2558-3.2066,6.1128-4.5143,9.5396-4.4234,3.153.1364,6.3748,1.5578,8.7197,3.9343,1.8898,1.9103,3.244,4.5825,3.6088,6.9363.3641,2.5129-.2161,4.594-1.8669,7.2774l20.5931,2.8655" style="fill: #fff;"/>
    <path id="path1957" d="M224.83,178.5495l-8.1395,6.6065-25.4539-31.2589,8.1277-6.6065" style="fill: #fff;"/>
    <path id="path1959" d="M232.4686,136.6471c-2.9258-.3069-5.2367.2047-7.1946,1.5237-2.14,1.4441-2.914,3.7637-1.7988,5.424.4099.614,1.07,1.0234,1.9128,1.103.9331.1478,2.0149.0115,3.0397-.2957.6149-.1478,1.8211-.5686,3.5858-1.1144,3.7109-1.1257,5.8509-1.3305,8.3216-.7277,2.6069.5913,4.4279,1.9558,6.1698,4.5371,1.3771,2.0582,2.5839,4.9918,2.823,6.9021.5579,4.8782-2.4248,10.1771-7.8206,13.8045-2.6409,1.7625-5.2019,2.7746-8.6745,3.4795-2.265.4889-3.21.5344-5.5549.5004l-.979-9.438c4.2348.5117,7.4107-.0569,9.9606-1.7739,2.5839-1.7283,3.3239-4.1049,1.9809-6.1063-.4551-.671-1.1728-1.1599-1.9239-1.3077-1.491-.2957-2.527-.1136-5.8856.9666-3.3128,1.0575-4.6447,1.3759-6.3518,1.5465-3.5289.432-6.5116-1.1939-8.9358-4.81-4.5308-6.7316-2.9939-14.3731,3.8019-18.9214,3.5178-2.3651,7.8998-3.9457,12.4535-4.412" style="fill: #fff;"/>
    <path id="path1961" d="M279.6536,112.245c-2.8348-.7846-5.2019-.671-7.3537.2957-2.3561,1.0575-3.5178,3.2181-2.6979,5.0373.3071.6822.8879,1.1939,1.696,1.4099.8991.3069,1.9809.3526,3.0509.2275.626-.0455,1.8898-.2615,3.7338-.4889,3.8478-.4889,5.9766-.3298,8.3216.6822,2.4589,1.0234,4.0298,2.6722,5.3048,5.515,1.013,2.2514,1.696,5.3557,1.6168,7.2774-.2849,4.9009-4.1097,9.6198-10.0516,12.2807-2.8917,1.2963-5.5896,1.8534-9.1407,1.9672-2.3109.1024-3.244-.0115-5.5667-.4435l.6489-9.472c4.0868,1.2281,7.3086,1.1939,10.1086-.0569,2.8459-1.2735,3.9728-3.491,2.9828-5.697-.33-.7277-.956-1.3417-1.662-1.6034-1.4229-.5459-2.4818-.5459-5.9648-.0342-3.4379.4777-4.8149.5571-6.5227.4435-3.5518-.1706-6.2156-2.2856-7.9915-6.2541-3.3239-7.4025-.5121-14.6685,6.9438-18.0117,3.8818-1.7283,8.4578-2.5471,13.0226-2.2402" style="fill: #fff;"/>
    <path id="path1963" d="M310.8896,103.4438l-.5808,13.5655,8.3556-2.4675-7.7748-11.0981ZM309.8085,125.5148l-.6489,7.4707-10.6207,3.1497,3.3809-43.0394,10.9396-3.2408,26.0569,34.3178-10.7235,3.1726-4.519-5.947-13.8654,4.1163" style="fill: #fff;"/>
    <path id="path1965" d="M352.9748,122.2401l-10.3136,1.899-7.3086-39.628,10.3136-1.899" style="fill: #fff;"/>
    <path id="path1967" d="M357.5848,80.2697l10.4727-.6937,20.8543,23.3219-1.639-24.6069,10.4615-.6937,2.675,40.2079-10.4615.6937-20.8543-23.3219,1.639,24.6069-10.4615.6937" style="fill: #fff;"/>
    <path id="path1969" d="M422.8129,119.4088l-10.4727-.6595,1.992-31.3727-8.4807-.5344.569-8.8467,27.639,1.7512-.569,8.8467-8.6856-.5459" style="fill: #fff;"/>
    <path id="path1971" d="M446.8661,105.8887l-.956,7.0727-13.4895-1.8307.9679-7.0727" style="fill: #fff;"/>
    <path id="path1973" d="M492.5712,109.823c-.3641,1.4668-.6941,2.604-.922,3.3204-.6031,2.0127-1.2861,3.6615-2.0038,5.0373-4.4057,8.4941-13.0226,12.258-22.79,9.8815-12.3854-3.0133-18.8401-13.5428-15.8344-25.8577,3.062-12.5309,13.6944-18.9099,26.4439-15.7944,5.3277,1.2963,9.1067,3.7637,11.7136,7.5504,1.4229,2.1151,2.083,3.7183,3.153,7.7322l-10.6436,1.6716c-.478-2.388-.831-3.4113-1.5939-4.594-1.1499-1.8876-2.8917-3.1384-5.1908-3.6955-5.9537-1.4556-11.4975,2.6722-13.2393,9.8245-1.7759,7.2547,1.3208,13.3723,7.5476,14.8847,2.1858.5344,4.223.3753,5.8627-.4435.6378-.3411,1.309-.8415,1.844-1.4328.7511-.8073,1.1728-1.4328,1.9128-3.0815l-8.3556-2.024,1.9239-7.8915" style="fill: #fff;"/>
    <path id="path1975" d="M513.3914,108.3219l-2.436,6.2541,10.9736,4.2641-3.21,8.2668-10.9854-4.2641-2.527,6.5156,11.5774,4.4916-3.21,8.2668-21.3553-8.2895,14.6053-37.5699,21.3553,8.3008-3.21,8.2553" style="fill: #fff;"/>
    <path id="path1977" d="M540.1203,130.4614c3.5629,1.8761,6.5797,1.3417,8.0478-1.4099.6719-1.285.6941-3.1497.0681-4.3892-.5239-1.0688-1.73-2.1378-3.4379-3.036l-1.7078-.9097-4.6788,8.8352,1.7078.9097h.0007ZM548.3508,159.9692l-11.5086-6.0835-1.605-18.3528-7.2398,13.6794-9.2776-4.9009,18.8623-35.6141,14.4115,7.6073c4.0409,2.1378,6.1469,4.4689,7.0807,7.7551.831,3.0475.4329,6.5498-1.127,9.4949-1.252,2.3765-3.392,4.4689-5.5327,5.5262-2.288,1.103-4.4627,1.1712-7.5246.398l3.4608,20.4906" style="fill: #fff;"/>
    <path id="path1979" d="M579.3366,132.0761l8.2875,6.2426-6.4088,22.0825,19.8531-11.9623,8.2986,6.2426-19.3751,35.8643-8.3785-6.2996,11.5656-20.3541-21.7541,12.69-3.3468-2.5244,6.5908-24.0952-16.7335,16.4652-8.3327-6.2654" style="fill: #fff;"/>
    <path id="path1981" d="M625.2578,187.6234l-12.3625,5.6513,5.9989,6.3108,6.3636-11.9623v.0002ZM605.0865,196.6748l-6.9556,2.8313-7.6386-8.0279,39.9223-16.5221,7.8547,8.2668-18.7713,38.7638-7.7067-8.1075,3.2558-6.7203-9.9606-10.484" style="fill: #fff;"/>
    <path id="path1983" d="M627.6139,233.6192l-6.3748-8.3122,32.0107-24.5273,6.3748,8.3235" style="fill: #fff;"/>
    <path id="path1985" d="M667.1492,218.6323l5.3847,8.9945-11.3036,29.1667,21.185-12.656,5.3847,8.9945-34.6286,20.6724-5.3847-8.9945,11.3155-29.1552-21.1962,12.6446-5.3847-8.9945" style="fill: #fff;"/>
  </g>
</svg>