<?xml version="1.0" encoding="UTF-8"?>
<svg id="_图层_1" data-name="图层_1" xmlns="http://www.w3.org/2000/svg" version="1.1" viewBox="0 0 800 800">
  <!-- Created by @FCLOGO 2024-12-5 GMT+8 15:27:32 . https://fclogo.top/ -->
<!-- FOR PERSONAL USE ONLY NOT FOR COMMERCIAL USE -->
  <defs>
    <style>
      .st0 {
        fill: #ccc;
      }

      .st1 {
        fill: #fff;
      }

      .st2 {
        fill: #006650;
      }

      .st3 {
        fill: #f8d07a;
      }

      .st4 {
        fill: #e9b430;
      }
    </style>
  </defs>
  <path class="st0" d="M348.22,774.3c-.79,0-1.38-.22-1.77-.65-.39-.44-.53-1.03-.41-1.79l.25-1.65c.12-.75.45-1.35.98-1.78.53-.44,1.19-.65,1.98-.65s1.33.2,1.72.6c.39.4.55.94.47,1.62h-1.24c.03-.36-.06-.64-.26-.84-.2-.2-.5-.3-.89-.3-.42,0-.76.12-1.03.35-.27.23-.43.56-.5.99l-.26,1.66c-.07.44,0,.77.19,1,.19.23.5.35.92.35.39,0,.72-.1.98-.3.26-.2.44-.48.52-.85h1.24c-.14.69-.47,1.23-.99,1.63-.52.4-1.16.6-1.92.6ZM352.8,774.19l1-6.29h1.19l-.19,1.19c.34-.87.97-1.3,1.91-1.3.67,0,1.17.21,1.49.62.32.42.43.99.31,1.71l-.07.42h-1.27l.06-.32c.07-.45.01-.8-.17-1.04-.18-.24-.48-.36-.88-.36s-.74.12-1.01.37c-.27.24-.43.59-.5,1.03l-.63,3.97h-1.24ZM361.91,774.3c-.77,0-1.35-.22-1.73-.67s-.52-1.04-.4-1.77l.25-1.65c.08-.49.26-.92.52-1.28s.6-.65,1.01-.85c.41-.2.87-.3,1.38-.3.77,0,1.35.22,1.73.67.39.45.52,1.04.39,1.77l-.17,1.12h-3.85l-.09.53c-.15.95.22,1.43,1.11,1.43.72,0,1.17-.25,1.37-.74h1.22c-.17.53-.5.96-1.01,1.28-.5.32-1.09.47-1.76.47ZM361.23,770.22l-.05.29h2.65s.05-.3.05-.3c.07-.47.01-.82-.17-1.07-.18-.25-.49-.37-.92-.37s-.8.13-1.06.38c-.26.25-.43.61-.51,1.08ZM368.33,774.3c-.63,0-1.1-.21-1.41-.64s-.4-1-.27-1.73l.27-1.77c.11-.73.39-1.31.84-1.74.44-.43.98-.64,1.61-.64.47,0,.83.12,1.09.35.26.24.39.56.38.96h.02l.17-1.2h1.24l-1,6.29h-1.22l.19-1.2h-.02c-.12.41-.35.73-.69.97s-.74.35-1.21.35ZM368.93,773.23c.39,0,.72-.12.98-.36.26-.24.43-.57.5-1.01l.25-1.65c.07-.43,0-.76-.18-1-.19-.24-.47-.36-.86-.36s-.72.12-.98.35c-.26.24-.42.57-.49,1.01l-.25,1.65c-.07.44-.01.78.17,1.01.18.23.47.35.88.35ZM376.35,774.19c-.57,0-.99-.16-1.26-.47-.27-.31-.36-.75-.27-1.32l.54-3.39h-1.74l.17-1.12h1.74l.27-1.72h1.24l-.27,1.72h2.47l-.18,1.12h-2.46l-.54,3.39c-.08.44.1.66.53.66h1.72l-.17,1.12h-1.77ZM382.5,774.3c-.77,0-1.35-.22-1.73-.67s-.52-1.04-.4-1.77l.25-1.65c.08-.49.26-.92.52-1.28s.6-.65,1.01-.85c.41-.2.87-.3,1.38-.3.77,0,1.35.22,1.73.67.39.45.52,1.04.39,1.77l-.17,1.12h-3.85l-.09.53c-.15.95.22,1.43,1.11,1.43.72,0,1.17-.25,1.37-.74h1.22c-.17.53-.5.96-1.01,1.28-.5.32-1.09.47-1.76.47ZM381.83,770.22l-.05.29h2.65s.05-.3.05-.3c.07-.47.01-.82-.17-1.07-.18-.25-.49-.37-.92-.37s-.8.13-1.06.38c-.26.25-.43.61-.51,1.08ZM388.92,774.3c-.63,0-1.1-.21-1.4-.64-.3-.42-.39-1-.28-1.73l.27-1.77c.11-.73.39-1.31.84-1.74.44-.43.98-.64,1.61-.64.47,0,.83.12,1.09.35.26.24.39.56.38.96h.02l.21-1.47.3-1.8h1.24l-1.33,8.35h-1.22l.19-1.2h-.02c-.12.41-.35.73-.69.97s-.74.35-1.21.35ZM389.53,773.23c.39,0,.72-.12.98-.36.26-.24.43-.57.5-1.01l.25-1.65c.08-.43.02-.76-.17-1-.19-.24-.48-.36-.87-.36s-.72.12-.98.35c-.26.24-.42.57-.49,1.01l-.25,1.65c-.08.44-.02.78.16,1.01s.48.35.88.35ZM401.02,774.3c-.47,0-.84-.12-1.1-.35-.26-.23-.39-.56-.38-.97h-.01l-.19,1.2h-1.22l1.33-8.35h1.24l-.29,1.8-.27,1.47h.05c.12-.41.35-.73.69-.97.34-.23.74-.35,1.21-.35.63,0,1.1.21,1.4.64.3.43.39,1.01.28,1.74l-.27,1.77c-.11.73-.39,1.31-.84,1.73-.45.42-.98.64-1.61.64ZM400.77,773.23c.4,0,.72-.12.98-.35.26-.23.42-.57.5-1.01l.25-1.65c.07-.43.01-.77-.17-1.01-.18-.24-.47-.35-.87-.35s-.72.12-.98.36-.43.57-.5,1l-.25,1.65c-.07.44-.01.77.17,1.01.18.24.47.36.87.36ZM405.47,776.25l.17-1.06h1.93c.64,0,1.01-.3,1.1-.9l.1-.67.21-1.19h-.03c-.12.42-.35.74-.68.97-.33.23-.73.34-1.2.34-.63,0-1.09-.2-1.4-.6s-.41-.94-.3-1.63l.58-3.6h1.24l-.56,3.48c-.06.41,0,.73.18.96s.47.34.85.34.72-.12.98-.37c.27-.24.43-.58.49-1.02l.54-3.4h1.24l-1.01,6.41c-.1.6-.37,1.08-.81,1.42-.44.35-1,.52-1.67.52h-1.95ZM417.79,770.09h3.22l.54-1.85h-5.47l-1.71,6.44h2.15l.59-2.1h3.03l.44-1.71h-3.03l.24-.78ZM424.23,772.92c-.59,0-1.02-.39-1.02-1.12,0-.88.63-1.76,1.61-1.76.49,0,.88.24,1.02.78l1.95-.83c-.29-1.17-1.27-1.9-2.64-1.9-2.78,0-4.15,2.15-4.15,3.9s1.27,2.83,3.07,2.83c1.37,0,2.34-.59,2.98-1.42l-1.51-1.17c-.39.44-.83.68-1.32.68ZM430.91,768.23h-2.15l-1.76,6.44h5.12l.49-1.85h-2.93l1.22-4.59ZM439.75,771.01c0-1.66-1.32-2.93-3.22-2.93-2.2,0-3.81,1.81-3.81,3.81,0,1.66,1.32,2.93,3.22,2.93,2.2,0,3.81-1.81,3.81-3.81ZM434.92,771.7c0-.83.59-1.71,1.51-1.71.78,0,1.17.54,1.17,1.22,0,.83-.59,1.71-1.51,1.71-.78,0-1.17-.54-1.17-1.22ZM443.21,772.23h1.07l-.2.68c-.15.05-.34.1-.59.1-.68,0-1.27-.39-1.27-1.22,0-1.02.73-1.9,1.95-1.9.59,0,1.12.24,1.51.59l1.37-1.37c-.44-.54-1.51-1.07-2.73-1.07-2.59,0-4.29,1.76-4.29,3.86s1.61,2.88,3.22,2.88c.93,0,1.85-.29,2.49-.68l.93-3.32h-3.12l-.34,1.46ZM450.78,768.08c-2.2,0-3.81,1.81-3.81,3.81,0,1.66,1.32,2.93,3.22,2.93,2.2,0,3.81-1.81,3.81-3.81,0-1.66-1.32-2.93-3.22-2.93ZM450.34,772.92c-.78,0-1.17-.54-1.17-1.22,0-.83.59-1.71,1.51-1.71.78,0,1.17.54,1.17,1.22,0,.83-.59,1.71-1.51,1.71ZM437.94,767.5c-.05.29.1.49.44.49s.54-.2.63-.49c.05-.24-.1-.49-.44-.49s-.59.24-.63.49ZM432.13,765.5c-.44,0-.73.24-.78.59s.1.59.54.59.73-.24.78-.59c.1-.34-.1-.59-.54-.59ZM433.01,767.3c-.1.54.15.88.83.88.63,0,1.07-.39,1.17-.88s-.15-.88-.83-.88c-.68,0-1.07.39-1.17.88ZM439.6,777.55l-2.44-1.81h-1.51l4.25,3.17,1.61-3.17h-.98l-.93,1.81ZM425.84,767.16l-2-1.46,23.13-2.78-2.15,4.25h1.02l2.68-5.32-26.99,3.22,2.78,2.1h1.51ZM338.72,785.79l.61-3.83h2.32l-.08.52h-1.76l-.18,1.14h1.63l-.08.52h-1.62l-.26,1.64h-.57ZM342.97,785.84c-.36,0-.62-.1-.8-.3-.17-.2-.23-.47-.18-.82l.27-1.7c.06-.34.2-.61.44-.82.24-.2.54-.3.89-.3s.62.1.8.3c.17.2.24.47.18.81l-.27,1.71c-.06.34-.2.62-.44.82-.24.2-.54.3-.9.3ZM343.05,785.33c.19,0,.35-.05.47-.16.12-.11.19-.26.23-.46l.27-1.7c.03-.2,0-.35-.08-.46-.08-.11-.22-.16-.41-.16s-.35.05-.46.16c-.12.1-.19.26-.22.46l-.27,1.7c-.03.2,0,.35.08.46s.22.16.41.16ZM345,785.79l.61-3.83h1.2c.24,0,.44.05.6.14.16.09.28.22.36.39s.09.37.05.59c-.04.26-.14.48-.3.67-.16.19-.37.32-.6.39l.54,1.64h-.62l-.48-1.57h-.54l-.25,1.57h-.57ZM345.89,783.71h.64c.19,0,.35-.06.48-.17.13-.11.21-.26.24-.45.03-.19,0-.35-.09-.46-.09-.11-.24-.17-.43-.17h-.64l-.2,1.25ZM349.54,785.79l.61-3.83h1.25c.37,0,.65.1.84.31.19.21.26.49.2.84-.04.23-.12.44-.25.61s-.29.31-.49.4c-.2.09-.42.14-.66.14h-.69l-.24,1.52h-.57ZM350.43,783.75h.69c.19,0,.36-.06.49-.18.14-.12.22-.27.25-.47s0-.35-.1-.47-.25-.18-.44-.18h-.69l-.21,1.29ZM352.75,785.79l.61-3.83h2.25l-.08.5h-1.7l-.17,1.09h1.51l-.08.5h-1.51l-.19,1.24h1.69l-.08.5h-2.25ZM355.84,785.79l.61-3.83h1.2c.24,0,.44.05.6.14.16.09.28.22.36.39s.09.37.05.59c-.04.26-.14.48-.3.67-.16.19-.37.32-.6.39l.54,1.64h-.62l-.48-1.57h-.54l-.25,1.57h-.57ZM356.74,783.71h.64c.19,0,.35-.06.48-.17.13-.11.21-.26.24-.45.03-.19,0-.35-.09-.46-.09-.11-.24-.17-.43-.17h-.64l-.2,1.25ZM360.13,785.84c-.39,0-.67-.1-.87-.29-.19-.19-.26-.45-.22-.78h.57c-.03.17.01.31.12.41.11.1.27.15.48.15.2,0,.37-.05.5-.15.13-.1.21-.23.24-.4.02-.15,0-.28-.06-.39-.06-.11-.16-.18-.29-.22l-.46-.14c-.27-.08-.46-.22-.59-.41-.13-.19-.17-.42-.13-.68.04-.21.11-.39.23-.55s.27-.28.46-.37.4-.13.64-.13c.35,0,.62.1.8.29.18.19.25.44.2.76h-.57c.03-.17,0-.3-.09-.4-.09-.1-.23-.14-.42-.14s-.34.04-.46.13c-.12.09-.19.21-.21.38-.02.15,0,.28.05.39s.16.18.29.22l.47.15c.26.08.46.22.58.41.12.19.17.42.12.69-.04.22-.12.41-.24.57-.13.16-.29.29-.49.38-.2.09-.42.13-.66.13ZM363.27,785.84c-.36,0-.62-.1-.8-.3-.17-.2-.23-.47-.18-.82l.27-1.7c.06-.34.2-.61.44-.82.24-.2.54-.3.89-.3s.62.1.8.3c.17.2.24.47.18.81l-.27,1.71c-.06.34-.2.62-.44.82-.24.2-.54.3-.9.3ZM363.34,785.33c.19,0,.35-.05.47-.16.12-.11.19-.26.23-.46l.27-1.7c.03-.2,0-.35-.08-.46-.08-.11-.22-.16-.41-.16s-.35.05-.46.16c-.12.1-.19.26-.22.46l-.27,1.7c-.03.2,0,.35.08.46s.22.16.41.16ZM365.28,785.79l.61-3.83h.71l.62,3.19c0-.1.02-.22.03-.36.01-.14.03-.29.04-.44.02-.15.04-.29.06-.41l.31-1.98h.52l-.61,3.83h-.71l-.61-3.19c0,.09-.02.21-.03.34s-.03.28-.04.42c-.02.15-.04.28-.06.41l-.31,2.01h-.53ZM368.23,785.79l1.59-3.83h.75l.37,3.83h-.56l-.07-.97h-1.09l-.39.97h-.59ZM369.39,784.34h.87l-.09-1.1c-.02-.2-.03-.37-.04-.51,0-.14-.01-.24-.01-.3-.02.06-.05.16-.1.3s-.11.31-.19.5l-.44,1.11ZM371.72,785.79l.61-3.83h.57l-.52,3.31h1.67l-.08.52h-2.25ZM376.68,785.84c-.37,0-.63-.1-.8-.3-.17-.2-.22-.47-.17-.82l.44-2.76h.57l-.44,2.76c-.03.2,0,.35.07.46.08.11.21.17.41.17s.35-.06.46-.17c.12-.11.19-.27.22-.46l.44-2.76h.57l-.44,2.76c-.06.35-.2.62-.43.82-.23.2-.53.3-.9.3ZM379.84,785.84c-.39,0-.67-.1-.87-.29-.19-.19-.26-.45-.22-.78h.57c-.03.17.01.31.12.41.11.1.27.15.48.15.2,0,.37-.05.5-.15.13-.1.21-.23.24-.4.02-.15,0-.28-.06-.39-.06-.11-.16-.18-.29-.22l-.46-.14c-.27-.08-.46-.22-.59-.41-.13-.19-.17-.42-.13-.68.04-.21.11-.39.23-.55s.27-.28.46-.37.4-.13.64-.13c.35,0,.62.1.8.29.18.19.25.44.2.76h-.57c.03-.17,0-.3-.09-.4-.09-.1-.23-.14-.42-.14s-.34.04-.46.13c-.12.09-.19.21-.21.38-.02.15,0,.28.05.39s.16.18.29.22l.47.15c.26.08.46.22.58.41.12.19.17.42.12.69-.04.22-.12.41-.24.57-.13.16-.29.29-.49.38-.2.09-.42.13-.66.13ZM381.91,785.79l.61-3.83h2.25l-.08.5h-1.7l-.17,1.09h1.51l-.08.5h-1.51l-.19,1.24h1.69l-.08.5h-2.25ZM386.94,785.84c-.36,0-.62-.1-.8-.3-.17-.2-.23-.47-.18-.82l.27-1.7c.06-.34.2-.61.44-.82.24-.2.54-.3.89-.3s.62.1.8.3c.17.2.24.47.18.81l-.27,1.71c-.06.34-.2.62-.44.82-.24.2-.54.3-.9.3ZM387.02,785.33c.19,0,.35-.05.47-.16.12-.11.19-.26.23-.46l.27-1.7c.03-.2,0-.35-.08-.46-.08-.11-.22-.16-.41-.16s-.35.05-.46.16c-.12.1-.19.26-.22.46l-.27,1.7c-.03.2,0,.35.08.46s.22.16.41.16ZM388.95,785.79l.61-3.83h.71l.62,3.19c0-.1.02-.22.03-.36.01-.14.03-.29.04-.44.02-.15.04-.29.06-.41l.31-1.98h.52l-.61,3.83h-.71l-.61-3.19c0,.09-.02.21-.03.34s-.03.28-.04.42c-.02.15-.04.28-.06.41l-.31,2.01h-.53ZM392.25,785.79l.61-3.83h.57l-.52,3.31h1.67l-.08.52h-2.25ZM396.12,785.79l.22-1.41-.75-2.42h.58l.45,1.45c.03.09.05.18.07.27.02.08.03.15.03.19.02-.04.05-.1.09-.19.04-.08.09-.17.14-.27l.9-1.45h.6l-1.53,2.42-.22,1.41h-.57ZM399.22,785.79l.61-3.83h.71l.62,3.19c0-.1.02-.22.03-.36.01-.14.03-.29.04-.44.02-.15.04-.29.06-.41l.31-1.98h.52l-.61,3.83h-.71l-.61-3.19c0,.09-.02.21-.03.34s-.03.28-.04.42c-.02.15-.04.28-.06.41l-.31,2.01h-.53ZM403.51,785.84c-.36,0-.62-.1-.8-.3-.18-.2-.23-.47-.18-.82l.27-1.7c.06-.34.2-.61.44-.82.24-.2.54-.3.89-.3s.62.1.8.3c.17.2.24.47.18.81l-.27,1.71c-.06.34-.2.62-.44.82-.24.2-.54.3-.89.3ZM403.58,785.33c.19,0,.35-.05.47-.16.12-.11.19-.26.23-.46l.27-1.7c.03-.2,0-.35-.08-.46-.08-.11-.22-.16-.41-.16s-.35.05-.46.16c-.12.1-.19.26-.22.46l-.27,1.7c-.03.2,0,.35.08.46.08.11.22.16.41.16ZM406.38,785.79l.52-3.31h-1.02l.08-.52h2.62l-.08.52h-1.03l-.52,3.31h-.57ZM409.52,785.79l.61-3.83h2.32l-.08.52h-1.76l-.18,1.14h1.63l-.08.52h-1.62l-.26,1.64h-.57ZM413.77,785.84c-.36,0-.62-.1-.8-.3-.18-.2-.23-.47-.18-.82l.27-1.7c.06-.34.2-.61.44-.82.24-.2.54-.3.89-.3s.62.1.8.3c.17.2.24.47.18.81l-.27,1.71c-.06.34-.2.62-.44.82-.24.2-.54.3-.89.3ZM413.85,785.33c.19,0,.35-.05.47-.16.12-.11.19-.26.23-.46l.27-1.7c.03-.2,0-.35-.08-.46-.08-.11-.22-.16-.41-.16s-.35.05-.46.16c-.12.1-.19.26-.22.46l-.27,1.7c-.03.2,0,.35.08.46.08.11.22.16.41.16ZM415.8,785.79l.61-3.83h1.2c.24,0,.44.05.6.14.16.09.28.22.36.39s.09.37.05.59c-.04.26-.14.48-.3.67-.16.19-.37.32-.6.39l.54,1.64h-.62l-.48-1.57h-.54l-.25,1.57h-.57ZM416.69,783.71h.64c.19,0,.35-.06.48-.17.13-.11.21-.26.24-.45.03-.19,0-.35-.09-.46-.09-.11-.24-.17-.43-.17h-.64l-.2,1.25ZM420.91,785.84c-.36,0-.63-.1-.81-.3-.18-.2-.24-.47-.19-.82l.27-1.7c.06-.35.21-.62.45-.82s.55-.3.91-.3.63.1.81.3c.18.2.24.47.19.82h-.57c.03-.2,0-.35-.09-.46-.09-.11-.23-.16-.42-.16s-.35.05-.47.16c-.12.1-.2.26-.23.45l-.27,1.71c-.03.2,0,.35.09.46.09.11.23.16.42.16s.35-.05.47-.16.2-.26.23-.46h.57c-.03.23-.11.43-.24.59s-.28.3-.47.39c-.19.09-.4.14-.64.14ZM424.03,785.84c-.36,0-.62-.1-.8-.3-.18-.2-.23-.47-.18-.82l.27-1.7c.06-.34.2-.61.44-.82.24-.2.54-.3.89-.3s.62.1.8.3c.17.2.24.47.18.81l-.27,1.71c-.06.34-.2.62-.44.82-.24.2-.54.3-.89.3ZM424.11,785.33c.19,0,.35-.05.47-.16.12-.11.19-.26.23-.46l.27-1.7c.03-.2,0-.35-.08-.46-.08-.11-.22-.16-.41-.16s-.35.05-.46.16c-.12.1-.19.26-.22.46l-.27,1.7c-.03.2,0,.35.08.46.08.11.22.16.41.16ZM425.97,785.79l.61-3.83h.69l.18,1.23c.02.12.04.23.05.33.01.1.02.18.03.24.02-.06.05-.14.09-.24.04-.11.09-.22.15-.34l.57-1.22h.71l-.61,3.83h-.54l.2-1.29c.02-.17.06-.35.1-.55.04-.2.09-.4.14-.61s.1-.4.14-.59c.05-.19.09-.35.13-.49l-.86,1.86h-.55l-.28-1.86c0,.14-.01.29-.02.47s-.02.37-.04.57c-.02.2-.04.41-.06.61-.02.2-.05.4-.08.57l-.2,1.29h-.54ZM429.11,785.79l.61-3.83h.69l.18,1.23c.02.12.04.23.05.33.01.1.02.18.03.24.02-.06.05-.14.09-.24.04-.11.09-.22.15-.34l.57-1.22h.71l-.61,3.83h-.54l.2-1.29c.02-.17.06-.35.1-.55.04-.2.09-.4.14-.61s.1-.4.14-.59c.05-.19.09-.35.13-.49l-.86,1.86h-.55l-.28-1.86c0,.14-.01.29-.02.47s-.02.37-.04.57c-.02.2-.04.41-.06.61-.02.2-.05.4-.08.57l-.2,1.29h-.54ZM432.41,785.79l.61-3.83h2.25l-.08.5h-1.7l-.17,1.09h1.51l-.08.5h-1.51l-.19,1.24h1.69l-.08.5h-2.25ZM435.51,785.79l.61-3.83h1.2c.24,0,.44.05.6.14.16.09.28.22.36.39s.09.37.05.59c-.04.26-.14.48-.3.67-.16.19-.37.32-.6.39l.54,1.64h-.62l-.48-1.57h-.54l-.25,1.57h-.57ZM436.4,783.71h.64c.19,0,.35-.06.48-.17.13-.11.21-.26.24-.45.03-.19,0-.35-.09-.46-.09-.11-.24-.17-.43-.17h-.64l-.2,1.25ZM439.8,785.84c-.36,0-.63-.1-.81-.3-.18-.2-.24-.47-.19-.82l.27-1.7c.06-.35.21-.62.45-.82s.55-.3.91-.3.63.1.81.3c.18.2.24.47.19.82h-.57c.03-.2,0-.35-.09-.46-.09-.11-.23-.16-.42-.16s-.35.05-.47.16c-.12.1-.2.26-.23.45l-.27,1.71c-.03.2,0,.35.09.46.09.11.23.16.42.16s.35-.05.47-.16.2-.26.23-.46h.57c-.03.23-.11.43-.24.59s-.28.3-.47.39c-.19.09-.4.14-.64.14ZM441.88,785.79l.08-.5h.78l.45-2.82h-.78l.08-.5h2.13l-.08.5h-.78l-.45,2.82h.78l-.08.5h-2.13ZM444.74,785.79l1.59-3.83h.75l.37,3.83h-.56l-.07-.97h-1.09l-.39.97h-.59ZM445.9,784.34h.87l-.09-1.1c-.02-.2-.03-.37-.04-.51,0-.14-.01-.24-.01-.3-.02.06-.05.16-.1.3s-.11.31-.19.5l-.44,1.11ZM448.24,785.79l.61-3.83h.57l-.52,3.31h1.67l-.08.52h-2.25ZM453.19,785.84c-.37,0-.63-.1-.8-.3-.17-.2-.22-.47-.17-.82l.44-2.76h.57l-.44,2.76c-.03.2,0,.35.07.46.08.11.21.17.41.17s.35-.06.46-.17c.12-.11.19-.27.22-.46l.44-2.76h.57l-.44,2.76c-.06.35-.2.62-.43.82-.23.2-.53.3-.9.3ZM456.36,785.84c-.39,0-.67-.1-.87-.29-.19-.19-.26-.45-.22-.78h.57c-.03.17.01.31.12.41.11.1.27.15.48.15.2,0,.37-.05.5-.15s.21-.23.24-.4c.02-.15,0-.28-.06-.39s-.16-.18-.29-.22l-.46-.14c-.27-.08-.46-.22-.59-.41-.13-.19-.17-.42-.13-.68.04-.21.11-.39.23-.55s.27-.28.46-.37c.19-.09.4-.13.64-.13.35,0,.62.1.8.29.18.19.25.44.2.76h-.57c.03-.17,0-.3-.09-.4-.09-.1-.23-.14-.42-.14s-.34.04-.46.13c-.12.09-.19.21-.21.38-.02.15,0,.28.05.39s.16.18.29.22l.47.15c.26.08.46.22.58.41.12.19.17.42.12.69-.04.22-.12.41-.24.57-.13.16-.29.29-.49.38-.2.09-.42.13-.66.13ZM458.42,785.79l.61-3.83h2.25l-.08.5h-1.7l-.17,1.09h1.51l-.08.5h-1.51l-.19,1.24h1.69l-.08.5h-2.25Z"/>
  <g>
    <g>
      <path d="M352.49,638.51c-69.69,0-135.26-27.15-184.53-76.44-49.29-49.3-76.42-114.84-76.42-184.55s27.13-135.24,76.42-184.5c49.27-49.29,114.84-76.44,184.53-76.44s135.22,27.15,184.53,76.44c49.26,49.26,76.4,114.81,76.4,184.5,0,143.9-117.06,260.98-260.94,260.98M592.81,197.7C493.91,66.75,294.02,33.38,108.13,71.72c10.19,69.55,10.23,100.92-26.49,186.3-64.84,150.79,7.1,340.97,133.22,482.77,55.14-43.62,82.29-59.35,174.6-70.22,162.98-19.23,291.73-176.64,351.47-356.78-65.35-25.91-92.1-41.9-148.12-116.09Z"/>
      <path class="st1" d="M381.55,77.77c89.11,20.74,160.29,63.63,205.9,124,55.92,74.06,84.03,91.35,144.93,115.85-30.65,89.97-76.66,169.53-133.39,230.27-62.56,67.04-135.31,107.12-210.31,115.99-91.39,10.78-120.5,26.58-172.85,67.6-62.58-71.55-108.5-151.15-132.74-230.7-12.63-41.35-18.93-81.68-18.93-120.04,0-42.94,7.92-83.42,23.68-120.07,24.52-56.99,32.91-90.56,32.91-126.61,0-17.36-2.02-35.45-5.05-56.87,93.03-18.38,184.85-18.27,265.85.58M106.76,65.12l-6.22,1.27.93,6.3c10.08,68.83,10.31,98.19-26.03,182.66-31.13,72.37-32.92,158.58-5.25,249.36,25.36,83.15,73.65,166.32,139.64,240.55l4.24,4.74,4.99-3.95c54.55-43.18,79.85-58.03,171.2-68.82,78.2-9.22,153.8-50.76,218.58-120.13,59.34-63.51,107.2-146.92,138.45-241.18l2.02-6.03-5.9-2.38c-63.9-25.33-89.26-39.77-145.21-113.87-47.54-62.92-121.39-107.55-213.59-128.98-84.7-19.7-180.79-19.57-277.85.44Z"/>
    </g>
    <g>
      <path class="st3" d="M352.49,102.66c-151.81,0-274.9,123.06-274.9,274.87s123.09,274.91,274.9,274.91c165.58,0,274.89-136.87,274.89-274.91,0-151.81-123.09-274.87-274.89-274.87"/>
      <path class="st4" d="M356.2,515.04c79.92,0,144.7-64.78,144.7-144.71s-64.78-144.65-144.7-144.65-144.68,64.76-144.68,144.65c0,79.94,64.8,144.71,144.68,144.71M366.86,582.75c-92.52-1.5-181.37-74.64-181.37-195.79,0-98.8,75.45-178.87,168.71-179.3-7.02-.28-13.81-.45-20.28-.45-103.14,0-186.74,83.62-186.74,186.73s86.14,203.74,218.21,203.74c103.12,0,245.72-89.17,245.72-251.81,0-38.09-5.46-68.92-19.54-101.99,19.54,37,31.55,79,31.55,123.83,0,148.88-114.61,269.58-255.97,269.58s-238.52-124.43-238.52-245.09,91.9-225.08,205.29-225.08c97.93,0,189.75,71.05,189.75,195.32,0,78.72-60.47,170.52-169.78,170.52-.96,0,.96,0,0,0-56.06-.69-124.36-37.64-148.03-100.76,14,48.06,52.83,82.43,95.01,99.09,16.6,6.53,33.73,10.39,50.05,11.22,4.24.21,8.47.06,12.72.06,135.91,0,195.87-117.17,195.87-193.24,0-108.42-87.07-198.13-222.97-198.13s-246.08,109.06-246.08,243.59c0,36.52,11.39,94.97,39.44,135.61-33.92-41.31-51.21-102.27-51.21-161.4,0-142.38,115.45-257.85,257.85-257.85,128.54,0,238.73,98.42,238.73,240.83s-108.55,230.8-204.32,230.8c-.48,0,.5,0,0,0-1.18,0-2.87-.02-4.08-.05"/>
      <path class="st4" d="M79.87,369.02c0-141.53,115.14-256.67,256.67-256.67,63.3,0,122.54,23.68,166.74,66.68,45.66,44.38,70.81,105.8,70.81,172.97s-23.43,124.62-65.89,167.99c-38.4,39.2-88.43,61.65-137.26,61.65l-4.05-.05c-87.39-1.4-180.26-70.1-180.26-194.63,0-97.82,75.19-177.73,167.57-178.14l.03-2.3-20.31-.46c-103.62,0-187.89,84.29-187.89,187.89,0,51.76,21.82,103.28,59.93,141.36,40.97,40.98,97.57,63.56,159.42,63.56,55.14,0,115.78-24.4,162.3-65.23,38.56-33.9,84.59-93.96,84.59-187.76,0-29.13-3.23-53.42-10.41-77.11,13.27,32.09,20.08,65.22,20.08,98.95,0,148.02-114.29,268.42-254.8,268.42s-237.37-126.12-237.37-243.93,91.57-223.93,204.14-223.93c93.71,0,188.57,66.72,188.57,194.17,0,40.89-15.87,82.45-43.6,114.02-22.16,25.26-61.85,55.35-125,55.35-53.3-.66-122.93-35.93-146.96-99.99l-2.19.72s.05.1.05.11c12.8,43.82,48.56,81.09,95.66,99.67,16.66,6.58,34.08,10.52,50.43,11.34l9.13.1,3.63-.03c134.41,0,197.05-115.99,197.05-194.39,0-115.48-94.27-199.3-224.15-199.3-136.35,0-247.25,109.81-247.25,244.76,0,32.43,8.55,77.1,26.9,114.03-22.98-37.82-36.31-88.19-36.31-139.83M77.54,369.02c0,62.3,19.24,122.93,51.47,162.13l1.86-1.39c-27.13-39.25-39.27-96.06-39.27-134.94,0-133.69,109.88-242.44,244.94-242.44s221.82,82.84,221.82,196.98c0,77.46-61.88,192.07-194.72,192.07l-3.64.03-8.99-.07c-16.12-.86-33.29-4.7-49.7-11.17-35.68-14.09-64.62-39.08-81.92-69.44,31.42,47.03,88.61,72.71,134.24,73.33v.03h.46v-.03c63.9-.05,104.07-30.55,126.53-56.12,28.09-32,44.21-74.09,44.21-115.53,0-128.98-96.04-196.5-190.91-196.5-113.85,0-206.45,101.5-206.45,226.26s96.29,246.25,239.68,246.25,257.12-121.44,257.12-270.75c0-42.69-10.64-84.54-31.68-124.38l-2.11,1.01c13.65,31.98,19.48,62.33,19.48,101.53,0,92.94-45.57,152.45-83.79,186.05-46.09,40.47-106.21,64.62-160.78,64.62-61.22,0-117.27-22.35-157.8-62.86-37.65-37.64-59.26-88.59-59.26-139.74,0-101.2,81.46-183.57,182.22-185.39-82.48,12.58-146.24,87.81-146.24,178.41,0,126.02,94.06,195.51,182.55,196.98l4.08.03c49.44,0,100.08-22.73,138.9-62.35,42.94-43.82,66.57-104.07,66.57-169.63s-25.4-129.81-71.51-174.65c-44.66-43.41-104.48-67.32-168.38-67.32-142.83,0-259,116.18-259,258.99Z"/>
      <path class="st4" d="M212.68,370.33c0-79.13,64.43-143.52,143.53-143.52s143.53,64.4,143.53,143.52-64.39,143.54-143.53,143.54c-79.1,0-143.53-64.38-143.53-143.54M210.35,370.33c0,80.45,65.44,145.86,145.85,145.86s145.86-65.41,145.86-145.86-65.43-145.83-145.86-145.83c-80.42,0-145.85,65.42-145.85,145.83Z"/>
      <path class="st1" d="M172.74,557.31c-48.04-48.01-74.48-111.86-74.48-179.78s26.44-131.72,74.48-179.73c47.99-48.03,111.84-74.48,179.75-74.48s131.74,26.45,179.75,74.48c48.02,48.01,74.47,111.83,74.47,179.73,0,140.21-114.03,254.23-254.22,254.23-67.91,0-131.75-26.45-179.75-74.46M163.19,188.26c-50.55,50.55-78.4,117.76-78.4,189.27s27.86,138.73,78.4,189.29c50.56,50.56,117.8,78.41,189.3,78.41,147.6,0,267.7-120.08,267.7-267.71,0-71.51-27.86-138.72-78.4-189.27-50.58-50.55-117.81-78.4-189.29-78.4-71.51,0-138.74,27.86-189.3,78.4Z"/>
      <path class="st2" d="M80.72,377.53c0-149.84,121.91-271.75,271.77-271.75s271.74,121.91,271.74,271.75-121.9,271.77-271.74,271.77S80.72,527.39,80.72,377.53M75.44,377.53c0,152.76,124.28,277.02,277.04,277.02s277.02-124.26,277.02-277.02S505.23,100.53,352.49,100.53c-152.77,0-277.04,124.24-277.04,277Z"/>
    </g>
    <rect class="st1" x="324.5" y="420.73" width="12.06" height="3.37"/>
    <g>
      <path class="st4" d="M396.2,383.65c7.82,0,14.14-6.33,14.14-14.14s-6.32-14.15-14.14-14.15-14.19,6.36-14.19,14.15c0,7.82,6.37,14.14,14.19,14.14"/>
      <path class="st4" d="M430.84,380.43c6.04,0,10.89-4.88,10.89-10.92s-4.85-10.93-10.89-10.93-10.91,4.9-10.91,10.93c0,6.04,4.87,10.92,10.91,10.92"/>
      <path class="st4" d="M461.53,378.05c4.72,0,8.53-3.83,8.53-8.51s-3.81-8.53-8.53-8.53-8.53,3.79-8.53,8.53c0,4.68,3.85,8.51,8.53,8.51"/>
      <path class="st4" d="M485.97,376.07c3.62,0,6.57-2.94,6.57-6.53s-2.95-6.57-6.57-6.57-6.55,2.94-6.55,6.57c0,3.59,2.93,6.53,6.55,6.53"/>
      <path class="st4" d="M505.8,374.09c2.52,0,4.58-2.05,4.58-4.55s-2.06-4.59-4.58-4.59-4.56,2.05-4.56,4.59,2.05,4.55,4.56,4.55"/>
      <path class="st4" d="M502.02,342.16c1.59,0,2.9-1.29,2.9-2.88s-1.31-2.91-2.9-2.91-2.83,1.32-2.83,2.91,1.27,2.88,2.83,2.88"/>
      <path class="st4" d="M493.32,314.35c1.6,0,2.89-1.31,2.89-2.88s-1.29-2.88-2.89-2.88-2.88,1.29-2.88,2.88c0,1.58,1.29,2.88,2.88,2.88"/>
      <path class="st4" d="M473.86,281.52c1.59,0,2.9-1.29,2.9-2.86s-1.31-2.88-2.9-2.88-2.88,1.29-2.88,2.88,1.31,2.86,2.88,2.86"/>
      <path class="st4" d="M447.41,254.94c1.56,0,2.87-1.29,2.87-2.87s-1.31-2.87-2.87-2.87-2.91,1.28-2.91,2.87,1.29,2.87,2.91,2.87"/>
      <path class="st4" d="M415.32,236.33c1.59,0,2.87-1.27,2.87-2.87s-1.27-2.89-2.87-2.89-2.89,1.29-2.89,2.89c0,1.59,1.29,2.87,2.89,2.87"/>
      <path class="st4" d="M387.49,227.67c1.56,0,2.85-1.29,2.85-2.85s-1.29-2.89-2.85-2.89-2.89,1.29-2.89,2.89c0,1.56,1.29,2.85,2.89,2.85"/>
      <path class="st4" d="M357.26,224.56c1.58,0,2.9-1.3,2.9-2.91s-1.32-2.88-2.9-2.88-2.89,1.32-2.89,2.88c0,1.6,1.3,2.91,2.89,2.91"/>
      <path class="st4" d="M484.81,341.39c2.68,0,4.87-2.17,4.87-4.82s-2.19-4.87-4.87-4.87-4.85,2.18-4.85,4.87,2.18,4.82,4.85,4.82"/>
      <path class="st4" d="M460.36,341.32c4.29,0,7.78-3.51,7.78-7.78s-3.48-7.76-7.78-7.76-7.75,3.46-7.75,7.76c0,4.27,3.45,7.78,7.75,7.78"/>
      <path class="st4" d="M430.56,339.36c4.6,0,8.33-3.73,8.33-8.33s-3.73-8.37-8.33-8.37-8.36,3.75-8.36,8.37,3.72,8.33,8.36,8.33"/>
      <path class="st4" d="M397.51,338.68c5.18,0,9.39-4.22,9.39-9.37s-4.21-9.41-9.39-9.41-9.41,4.23-9.41,9.41,4.23,9.37,9.41,9.37"/>
      <path class="st4" d="M357.29,340.81c6.04,0,10.89-4.87,10.89-10.88s-4.85-10.92-10.89-10.92-10.89,4.88-10.89,10.92,4.87,10.88,10.89,10.88"/>
      <path class="st4" d="M357.26,304.01c4.93,0,8.9-3.97,8.9-8.88s-3.97-8.9-8.9-8.9-8.88,3.98-8.88,8.9c0,4.92,4.01,8.88,8.88,8.88"/>
      <path class="st4" d="M395.79,304.47c4.55,0,8.24-3.69,8.24-8.24s-3.68-8.2-8.24-8.2-8.22,3.68-8.22,8.2,3.68,8.24,8.22,8.24"/>
      <path class="st4" d="M427.71,306.58c4.13,0,7.45-3.34,7.45-7.45s-3.33-7.49-7.45-7.49-7.51,3.35-7.51,7.49,3.37,7.45,7.51,7.45"/>
      <path class="st4" d="M457.51,309.49c3.3,0,6.01-2.69,6.01-6.01s-2.71-6-6.01-6-6.05,2.66-6.05,6,2.7,6.01,6.05,6.01"/>
      <path class="st4" d="M477.63,311.23c2.05,0,3.71-1.68,3.71-3.71s-1.67-3.73-3.71-3.73-3.7,1.67-3.7,3.73c0,2.03,1.65,3.71,3.7,3.71"/>
      <path class="st4" d="M357.26,272.62c4.04,0,7.32-3.27,7.32-7.3s-3.29-7.31-7.32-7.31-7.3,3.27-7.3,7.31c0,4.03,3.29,7.3,7.3,7.3"/>
      <path class="st4" d="M393.18,273.82c4.03,0,7.31-3.26,7.31-7.31s-3.28-7.29-7.31-7.29-7.29,3.25-7.29,7.29,3.23,7.31,7.29,7.31"/>
      <path class="st4" d="M423.25,274.96c3.08,0,5.58-2.49,5.58-5.56s-2.49-5.55-5.58-5.55-5.57,2.49-5.57,5.55c0,3.07,2.52,5.56,5.57,5.56"/>
      <path class="st4" d="M452.87,278.62c2.54,0,4.63-2.06,4.63-4.62s-2.1-4.66-4.63-4.66-4.66,2.08-4.66,4.66,2.06,4.62,4.66,4.62"/>
      <path class="st4" d="M357.26,245.08c2.95,0,5.38-2.39,5.38-5.33s-2.43-5.38-5.38-5.38-5.35,2.41-5.35,5.38,2.39,5.33,5.35,5.33"/>
      <path class="st4" d="M390.19,247.29c2.96,0,5.37-2.41,5.37-5.37s-2.41-5.34-5.37-5.34-5.36,2.39-5.36,5.34,2.41,5.37,5.36,5.37"/>
      <path class="st4" d="M419.68,253.46c2.33,0,4.22-1.89,4.22-4.19s-1.89-4.21-4.22-4.21-4.17,1.88-4.17,4.21,1.87,4.19,4.17,4.19"/>
      <path class="st4" d="M318.29,383.65c-7.78,0-14.13-6.33-14.13-14.14s6.34-14.15,14.13-14.15,14.17,6.36,14.17,14.15-6.32,14.14-14.17,14.14"/>
      <path class="st4" d="M283.63,380.43c-5.99,0-10.9-4.88-10.9-10.92s4.91-10.93,10.9-10.93,10.93,4.9,10.93,10.93c0,6.04-4.87,10.92-10.93,10.92"/>
      <path class="st4" d="M252.94,378.05c-4.68,0-8.5-3.83-8.5-8.51s3.82-8.53,8.5-8.53,8.53,3.79,8.53,8.53c0,4.68-3.8,8.51-8.53,8.51"/>
      <path class="st4" d="M228.5,376.07c-3.59,0-6.53-2.94-6.53-6.53s2.94-6.57,6.53-6.57,6.57,2.94,6.57,6.57c0,3.59-2.93,6.53-6.57,6.53"/>
      <path class="st4" d="M208.7,374.09c-2.54,0-4.58-2.05-4.58-4.55s2.05-4.59,4.58-4.59,4.58,2.05,4.58,4.59-2.06,4.55-4.58,4.55"/>
      <path class="st4" d="M212.44,342.16c-1.56,0-2.87-1.29-2.87-2.88s1.3-2.91,2.87-2.91,2.89,1.32,2.89,2.91-1.29,2.88-2.89,2.88"/>
      <path class="st4" d="M221.18,314.35c-1.59,0-2.88-1.31-2.88-2.88s1.29-2.88,2.88-2.88,2.87,1.29,2.87,2.88c0,1.58-1.27,2.88-2.87,2.88"/>
      <path class="st4" d="M240.61,281.52c-1.58,0-2.87-1.29-2.87-2.86s1.29-2.88,2.87-2.88,2.89,1.29,2.89,2.88-1.29,2.86-2.89,2.86"/>
      <path class="st4" d="M267.1,254.94c-1.56,0-2.87-1.29-2.87-2.87s1.31-2.87,2.87-2.87,2.89,1.28,2.89,2.87c0,1.58-1.29,2.87-2.89,2.87"/>
      <path class="st4" d="M299.19,236.33c-1.6,0-2.87-1.27-2.87-2.87s1.27-2.89,2.87-2.89,2.88,1.29,2.88,2.89c0,1.59-1.3,2.87-2.88,2.87"/>
      <path class="st4" d="M327.03,227.67c-1.59,0-2.89-1.29-2.89-2.85s1.31-2.89,2.89-2.89,2.87,1.29,2.87,2.89c0,1.56-1.27,2.85-2.87,2.85"/>
      <path class="st4" d="M229.69,341.39c-2.69,0-4.86-2.17-4.86-4.82s2.17-4.87,4.86-4.87,4.85,2.18,4.85,4.87-2.19,4.82-4.85,4.82"/>
      <path class="st4" d="M254.13,341.32c-4.3,0-7.78-3.51-7.78-7.78s3.48-7.76,7.78-7.76,7.77,3.46,7.77,7.76-3.5,7.78-7.77,7.78"/>
      <path class="st4" d="M283.95,339.36c-4.6,0-8.35-3.73-8.35-8.33s3.75-8.37,8.35-8.37,8.36,3.75,8.36,8.37-3.75,8.33-8.36,8.33"/>
      <path class="st4" d="M316.99,338.68c-5.19,0-9.39-4.22-9.39-9.37s4.21-9.41,9.39-9.41,9.39,4.23,9.39,9.41-4.21,9.37-9.39,9.37"/>
      <path class="st4" d="M318.7,304.47c-4.55,0-8.23-3.69-8.23-8.24s3.68-8.2,8.23-8.2,8.2,3.68,8.2,8.2c0,4.55-3.66,8.24-8.2,8.24"/>
      <path class="st4" d="M286.81,306.58c-4.11,0-7.48-3.34-7.48-7.45s3.37-7.49,7.48-7.49,7.45,3.35,7.45,7.49-3.33,7.45-7.45,7.45"/>
      <path class="st4" d="M257,309.49c-3.32,0-5.99-2.69-5.99-6.01s2.67-6,5.99-6,6.02,2.66,6.02,6-2.7,6.01-6.02,6.01"/>
      <path class="st4" d="M236.88,311.23c-2.06,0-3.72-1.68-3.72-3.71s1.66-3.73,3.72-3.73,3.71,1.67,3.71,3.73-1.65,3.71-3.71,3.71"/>
      <path class="st4" d="M321.35,273.82c-4.06,0-7.33-3.26-7.33-7.31s3.26-7.29,7.33-7.29,7.28,3.25,7.28,7.29c0,4.05-3.26,7.31-7.28,7.31"/>
      <path class="st4" d="M291.25,274.96c-3.09,0-5.57-2.49-5.57-5.56s2.48-5.55,5.57-5.55,5.56,2.49,5.56,5.55-2.49,5.56-5.56,5.56"/>
      <path class="st4" d="M261.66,278.62c-2.58,0-4.66-2.06-4.66-4.62s2.08-4.66,4.66-4.66,4.62,2.08,4.62,4.66c0,2.55-2.08,4.62-4.62,4.62"/>
      <path class="st4" d="M324.3,247.29c-2.96,0-5.35-2.41-5.35-5.37s2.39-5.34,5.35-5.34,5.37,2.39,5.37,5.34c0,2.96-2.42,5.37-5.37,5.37"/>
      <path class="st4" d="M294.81,253.46c-2.33,0-4.21-1.89-4.21-4.19s1.88-4.21,4.21-4.21,4.19,1.88,4.19,4.21-1.86,4.19-4.19,4.19"/>
      <path class="st4" d="M502.02,396.75c1.59,0,2.9,1.28,2.9,2.89s-1.31,2.89-2.9,2.89-2.83-1.29-2.83-2.89,1.27-2.89,2.83-2.89"/>
      <path class="st4" d="M493.32,424.56c1.6,0,2.89,1.28,2.89,2.92s-1.29,2.85-2.89,2.85-2.88-1.28-2.88-2.85c0-1.64,1.29-2.92,2.88-2.92"/>
      <path class="st4" d="M473.86,457.41c1.59,0,2.9,1.29,2.9,2.88s-1.31,2.87-2.9,2.87-2.88-1.29-2.88-2.87,1.31-2.88,2.88-2.88"/>
      <path class="st4" d="M447.41,483.95c1.56,0,2.87,1.29,2.87,2.89s-1.31,2.89-2.87,2.89-2.91-1.29-2.91-2.89,1.29-2.89,2.91-2.89"/>
      <path class="st4" d="M415.32,502.62c1.59,0,2.87,1.27,2.87,2.85s-1.27,2.87-2.87,2.87-2.89-1.27-2.89-2.87c0-1.59,1.29-2.85,2.89-2.85"/>
      <path class="st4" d="M387.49,511.23c1.56,0,2.85,1.3,2.85,2.88s-1.29,2.87-2.85,2.87-2.89-1.27-2.89-2.87c0-1.58,1.29-2.88,2.89-2.88"/>
      <path class="st4" d="M357.26,514.35c1.58,0,2.9,1.32,2.9,2.89s-1.32,2.89-2.9,2.89-2.89-1.29-2.89-2.89c0-1.56,1.3-2.89,2.89-2.89"/>
      <path class="st4" d="M484.81,397.53c2.68,0,4.87,2.18,4.87,4.85s-2.19,4.82-4.87,4.82-4.85-2.16-4.85-4.82,2.18-4.85,4.85-4.85"/>
      <path class="st4" d="M460.36,397.61c4.29,0,7.78,3.48,7.78,7.78s-3.48,7.75-7.78,7.75-7.75-3.46-7.75-7.75c0-4.3,3.45-7.78,7.75-7.78"/>
      <path class="st4" d="M430.56,399.57c4.6,0,8.33,3.73,8.33,8.35s-3.73,8.33-8.33,8.33-8.36-3.72-8.36-8.33,3.72-8.35,8.36-8.35"/>
      <path class="st4" d="M397.51,400.22c5.18,0,9.39,4.22,9.39,9.42s-4.21,9.38-9.39,9.38-9.41-4.2-9.41-9.38,4.23-9.42,9.41-9.42"/>
      <path class="st4" d="M357.29,398.12c6.04,0,10.89,4.87,10.89,10.87s-4.85,10.9-10.89,10.9-10.89-4.87-10.89-10.9,4.87-10.87,10.89-10.87"/>
      <path class="st4" d="M357.26,434.89c4.93,0,8.9,4.01,8.9,8.91s-3.97,8.91-8.9,8.91-8.88-4-8.88-8.91c0-4.91,4.01-8.91,8.88-8.91"/>
      <path class="st4" d="M395.79,434.44c4.55,0,8.24,3.68,8.24,8.22s-3.68,8.23-8.24,8.23-8.22-3.67-8.22-8.23,3.68-8.22,8.22-8.22"/>
      <path class="st4" d="M427.71,432.34c4.13,0,7.45,3.34,7.45,7.46s-3.33,7.48-7.45,7.48-7.51-3.34-7.51-7.48,3.37-7.46,7.51-7.46"/>
      <path class="st4" d="M457.51,429.41c3.3,0,6.01,2.71,6.01,6s-2.71,6.03-6.01,6.03-6.05-2.68-6.05-6.03,2.7-6,6.05-6"/>
      <path class="st4" d="M477.63,427.7c2.05,0,3.71,1.65,3.71,3.7s-1.67,3.72-3.71,3.72-3.7-1.66-3.7-3.72c0-2.05,1.65-3.7,3.7-3.7"/>
      <path class="st4" d="M357.26,466.29c4.04,0,7.32,3.29,7.32,7.33s-3.29,7.29-7.32,7.29-7.3-3.27-7.3-7.29c0-4.04,3.29-7.33,7.3-7.33"/>
      <path class="st4" d="M393.18,465.09c4.03,0,7.31,3.26,7.31,7.31s-3.28,7.29-7.31,7.29-7.29-3.27-7.29-7.29,3.23-7.31,7.29-7.31"/>
      <path class="st4" d="M423.25,463.95c3.08,0,5.58,2.49,5.58,5.58s-2.49,5.54-5.58,5.54-5.57-2.49-5.57-5.54c0-3.08,2.52-5.58,5.57-5.58"/>
      <path class="st4" d="M452.87,460.29c2.54,0,4.63,2.06,4.63,4.63s-2.1,4.66-4.63,4.66-4.66-2.1-4.66-4.66,2.06-4.63,4.66-4.63"/>
      <path class="st4" d="M357.26,493.83c2.95,0,5.38,2.41,5.38,5.33s-2.43,5.38-5.38,5.38-5.35-2.39-5.35-5.38,2.39-5.33,5.35-5.33"/>
      <path class="st4" d="M390.19,491.66c2.96,0,5.37,2.38,5.37,5.33s-2.41,5.35-5.37,5.35-5.36-2.39-5.36-5.35,2.41-5.33,5.36-5.33"/>
      <path class="st4" d="M419.68,485.45c2.33,0,4.22,1.86,4.22,4.19s-1.89,4.22-4.22,4.22-4.17-1.89-4.17-4.22,1.87-4.19,4.17-4.19"/>
      <path class="st4" d="M212.44,396.75c-1.56,0-2.87,1.28-2.87,2.89s1.3,2.89,2.87,2.89,2.89-1.29,2.89-2.89-1.29-2.89-2.89-2.89"/>
      <path class="st4" d="M221.18,424.56c-1.59,0-2.88,1.28-2.88,2.92s1.29,2.85,2.88,2.85,2.87-1.28,2.87-2.85c0-1.64-1.27-2.92-2.87-2.92"/>
      <path class="st4" d="M240.61,457.41c-1.58,0-2.87,1.29-2.87,2.88s1.29,2.87,2.87,2.87,2.89-1.29,2.89-2.87-1.29-2.88-2.89-2.88"/>
      <path class="st4" d="M267.1,483.95c-1.56,0-2.87,1.29-2.87,2.89s1.31,2.89,2.87,2.89,2.89-1.29,2.89-2.89c0-1.6-1.29-2.89-2.89-2.89"/>
      <path class="st4" d="M299.19,502.62c-1.6,0-2.87,1.27-2.87,2.85s1.27,2.87,2.87,2.87,2.88-1.27,2.88-2.87c0-1.59-1.3-2.85-2.88-2.85"/>
      <path class="st4" d="M327.03,511.23c-1.59,0-2.89,1.3-2.89,2.88s1.31,2.87,2.89,2.87,2.87-1.27,2.87-2.87c0-1.58-1.27-2.88-2.87-2.88"/>
      <path class="st4" d="M229.69,397.53c-2.69,0-4.86,2.18-4.86,4.85s2.17,4.82,4.86,4.82,4.85-2.16,4.85-4.82-2.19-4.85-4.85-4.85"/>
      <path class="st4" d="M254.13,397.61c-4.3,0-7.78,3.48-7.78,7.78s3.48,7.75,7.78,7.75,7.77-3.46,7.77-7.75-3.5-7.78-7.77-7.78"/>
      <path class="st4" d="M283.95,399.57c-4.6,0-8.35,3.73-8.35,8.35s3.75,8.33,8.35,8.33,8.36-3.72,8.36-8.33-3.75-8.35-8.36-8.35"/>
      <path class="st4" d="M316.99,400.22c-5.19,0-9.39,4.22-9.39,9.42s4.21,9.38,9.39,9.38,9.39-4.2,9.39-9.38-4.21-9.42-9.39-9.42"/>
      <path class="st4" d="M318.7,434.44c-4.55,0-8.23,3.68-8.23,8.22s3.68,8.23,8.23,8.23,8.2-3.67,8.2-8.23c0-4.54-3.66-8.22-8.2-8.22"/>
      <path class="st4" d="M286.81,432.34c-4.11,0-7.48,3.34-7.48,7.46s3.37,7.48,7.48,7.48,7.45-3.34,7.45-7.48-3.33-7.46-7.45-7.46"/>
      <path class="st4" d="M257,429.41c-3.32,0-5.99,2.71-5.99,6s2.67,6.03,5.99,6.03,6.02-2.68,6.02-6.03-2.7-6-6.02-6"/>
      <path class="st4" d="M236.88,427.7c-2.06,0-3.72,1.65-3.72,3.7s1.66,3.72,3.72,3.72,3.71-1.66,3.71-3.72-1.65-3.7-3.71-3.7"/>
      <path class="st4" d="M321.35,465.09c-4.06,0-7.33,3.26-7.33,7.31s3.26,7.29,7.33,7.29,7.28-3.27,7.28-7.29c0-4.05-3.26-7.31-7.28-7.31"/>
      <path class="st4" d="M291.25,463.95c-3.09,0-5.57,2.49-5.57,5.58s2.48,5.54,5.57,5.54,5.56-2.49,5.56-5.54-2.49-5.58-5.56-5.58"/>
      <path class="st4" d="M261.66,460.29c-2.58,0-4.66,2.06-4.66,4.63s2.08,4.66,4.66,4.66,4.62-2.1,4.62-4.66c0-2.57-2.08-4.63-4.62-4.63"/>
      <path class="st4" d="M324.3,491.66c-2.96,0-5.35,2.38-5.35,5.33s2.39,5.35,5.35,5.35,5.37-2.39,5.37-5.35c0-2.95-2.42-5.33-5.37-5.33"/>
      <path class="st4" d="M294.81,485.45c-2.33,0-4.21,1.86-4.21,4.19s1.88,4.22,4.21,4.22,4.19-1.89,4.19-4.22-1.86-4.19-4.19-4.19"/>
      <path class="st4" d="M357.26,386.01c9.09,0,16.49-7.4,16.49-16.5s-7.4-16.47-16.49-16.47-16.49,7.36-16.49,16.47,7.37,16.5,16.49,16.5"/>
      <path class="st4" d="M285.25,309.55v108.37c.33,11.75,6.37,17.19,18.98,17.19h41.43l.16-.85c9.03-42.33,17.46-78.97,22-98.67,2.28-10.01,3.68-16.06,3.95-17.51.46-2.71,3.05-4.82,6.16-5.02,3.48-.18,6.27,2.06,7.42,6.01,2.96,9.98,23.6,114.99,23.8,116.03l2.19-.41c-.84-4.34-20.88-106.16-23.84-116.24-1.73-5.89-6.16-7.81-9.71-7.58-4.14.23-7.57,3.1-8.23,6.83-.23,1.37-1.72,7.77-3.93,17.4-4.49,19.54-12.83,55.87-21.78,97.78h-39.61c-11.42,0-16.41-4.47-16.73-14.99v-108.35h-2.25"/>
      <rect class="st4" x="349.52" y="411.46" width="56.28" height="2.22"/>
    </g>
    <g>
      <path d="M113.19,415.63c-2.84-2.8-4.61-7-4.61-12.72v-55.58c0-9.79,1.15-12.61,4.11-16.19,3.84-4.57,8.4-6.37,17.21-8.3l40.17-9.38v20.2l-40.71,9.37c-2.03.58-1.29,2.23-1.39,5.17v49.77c.03,1.7-.12,4.05,1.73,4.41l20.93,4.52c4.07.83,6.49-.38,6.83-3.33v-29.09h17.97v33.51c0,6.88-2.41,11.65-6.37,15-4.79,4.08-10.64,5.08-14.25,4.55l-29.87-5.99c-4.25-.83-6.58-.89-11.75-5.92"/>
      <path d="M127.94,411.14h0M117.52,402.91v-55.58c0-8.05.72-8.9,2.03-10.47,1.87-2.26,4.01-3.46,12.28-5.31.08-.02,17.41-4.06,29.32-6.83v1.85c-9.56,2.18-34.04,7.82-34.04,7.82l-.28.07c-2.95.87-7.8,3.55-7.8,11.39v.77l.03,1.29v50.5c.02,9.88,6.22,12.21,8.88,12.74l20.79,4.49c6.24,1.25,10.23-.45,12.49-2.06,2.86-2.06,4.67-5.21,5.12-8.9l.09-.55v-20.71h.08v24.57c0,4.86-1.72,6.92-3.21,8.2-2.7,2.28-5.89,2.69-7.11,2.55-.66-.15-29.51-5.91-29.51-5.91-.03,0-1.15-.23-1.15-.23-2.8-.53-3.3-.63-6.08-3.34-1.59-1.55-1.93-4.31-1.93-6.35ZM168.07,304.77l-40.19,9.37c-10,2.2-16.52,4.67-22.03,11.26-4.75,5.68-6.19,10.81-6.19,21.93v55.58c0,9.86,3.95,15.84,7.28,19.09,6.15,6.06,10.21,7.2,15.25,8.15l.99.18,30.06,6.03h.2c5.61.86,14.14-.41,21.39-6.53,6.24-5.28,9.54-12.84,9.54-21.84v-42.43h-35.82v31.75c-3.3-.73-7.98-1.72-11.65-2.51v-44.36c8.28-1.86,42.13-9.67,42.13-9.67v-38.58l-10.96,2.57Z"/>
      <path d="M238.95,395.79l-12.63-63.85-11.29,61.31,23.92,2.54M180.38,434.29l28.03-111.46c2.47-7.73,10.1-17.76,19.62-17.65,7.15.09,12.56,4.05,14.88,11.8l29.18,126.56-22.63-1.52-5.61-26.04-34.03-4.25-7.99,27.33c-.23,0-21.46-4.78-21.46-4.78Z"/>
      <path d="M227.92,314.14c2.5.02,4.97.69,6.39,5.35.2.85,21.95,95.15,26.37,114.37-1.95-.15-2.28-.19-3.9-.28-1.58-7.36-5.56-25.66-5.56-25.66l-47.82-5.94s-5.45,18.58-7.81,26.57c-2.01-.43-2.21-.48-4.3-.97,3.78-14.98,25.5-101.41,25.66-102.14,1.77-5.39,6.8-11.37,10.98-11.29M199.87,320.15l-.05.27-30.35,120.59,8.95,2.02q22.17,4.99,23.42,4.99h6.68s5.43-18.63,7.74-26.45c6.97.87,14.12,1.75,20.18,2.52,1.57,7.2,5.71,26.45,5.71,26.45l41.34,2.71-31.97-138.54-.08-.3c-3.37-11.22-12.08-18.02-23.3-18.14-13.52-.18-24.46,11.89-28.27,23.88Z"/>
      <path d="M226.64,379.59c.48,2.44.82,4.21,1.19,6.05-1.14-.13-1.19-.13-2.27-.24.26-1.52.68-3.63,1.08-5.81M217.54,330.32l-13.07,70.8,45.55,4.84-14.92-75.75-17.56.11Z"/>
      <path d="M393.81,403.57l-15.53-76.43-17.24,76.43h32.77M401.89,444.12l-4.26-21.7h-40.17l-4.09,22.89h-20.54l26.7-132.84c2.31-7.76,11.32-11.8,18.45-11.8s16.09,4.05,18.55,11.8l24.83,130.56-19.48,1.09Z"/>
      <path d="M377.98,309.58c3.89,0,8.77,2.19,9.95,5.43.32,1.62,19.54,102.73,22.74,119.68-.74.05-.77.05-1.5.1-1.27-6.41-4.18-21.32-4.18-21.32h-55.03s-2.88,16.14-4.08,22.92h-2.15c3.6-17.97,24.11-120.12,24.41-121.42,1.04-3.15,6-5.38,9.84-5.38M350.95,309.88l-.1.4-28.91,143.99h38.91s2.89-16.14,4.11-22.94h25.32c1.28,6.47,4.37,22.17,4.37,22.17l37.4-2.08-26.83-141.15-.16-.51c-3.76-11.82-16.47-18.03-27.07-18.03s-23.42,6.22-27.04,18.15Z"/>
      <path d="M377.82,369.77c2.51,12.38,3.85,18.88,5.07,24.89h-10.66c1.37-6.09,2.8-12.51,5.59-24.89M352.33,401.62l-2.46,10.91h54.87l-17.73-87.19-17.48-.16-17.21,76.44Z"/>
      <path d="M277.33,421.18v-119.31h19.24v117.82c.11,2.48,1.83,3.96,4.79,4.08h29.76l-.06,21.85-31.58-1.19c-.98,0-2.09-.19-3.21-.35-12.57-1.04-18.94-9.64-18.94-22.9"/>
      <path d="M299.68,453.38l-.54-.05.54.05M287.63,310.79v109.36c.38,7.08,5.86,12.24,13.37,12.52l.19.03h20.97v3.65c-9.25-.36-22.42-.88-22.42-.88h-.18l-2.28-.28c-5.25-.42-10.99-2.38-10.99-14.03v-110.38c.66,0,.68,0,1.35,0ZM296.57,292.95h-28.17v128.22c0,18.27,10.41,30.44,27.15,31.8h-.03s.6.11.6.11c0,0,3.46.29,3.5.29.91.06,40.35,1.52,40.35,1.52l.14-40.07h-34.59v-121.87h-8.93Z"/>
      <polyline points="419.17 442.96 457.14 372.03 415.02 302.09 438.53 303.89 467.66 352.72 492.73 309.85 515.05 313.43 479.14 370.74 517.42 431.32 497.2 436.7 468.84 390.3 442.53 441.44 419.17 442.96"/>
      <path d="M465.02,376.22l2.39-4.46s-24.74-41.04-35.81-59.44c.64.05,1.12.1,1.64.12,4.02,6.71,34.47,57.84,34.47,57.84,0,0,24.88-42.53,29.64-50.67,1.19.22,1.54.27,2.97.48-9.18,14.67-31.74,50.68-31.74,50.68,0,0,25.83,40.86,34.81,55.05-1.01.23-1.14.28-2.05.53-5.35-8.77-33.16-54.28-33.16-54.28,0,0-27.45,53.29-31.3,60.8-.76.05-1.27.06-2.26.15,9.7-18.15,30.4-56.8,30.4-56.8M407.35,306.7s34.89,57.94,39.51,65.57c-4.19,7.88-43.15,80.61-43.15,80.61l44.42-2.82s13.73-26.75,21.39-41.52c8.28,13.56,23.52,38.48,23.52,38.48l38.44-10.17s-36.68-58.07-41.8-66.11c5.01-8.02,40.08-64.01,40.08-64.01l-41.67-6.67s-13.17,22.46-20.55,35.1c-8.35-14-23.7-39.82-23.7-39.82l-45.43-3.46,8.93,14.82Z"/>
      <polyline points="514.44 313.33 537.99 317.57 557.46 362.76 576.16 327.41 595.09 333.41 567.68 383.78 567.68 421.97 548.68 426.7 548.68 388.52 514.44 313.33"/>
      <path d="M557.61,388.52v-1.93s-19.04-41.89-27.97-61.43c.84.14,1.4.23,2.05.37,3.1,7.16,24.96,57.86,24.96,57.86,0,0,19.34-36.47,23.92-45.2.71.23.74.25,1.5.47-6.82,12.52-23.34,42.85-23.34,42.85.02,0,0,24.18,0,33.51-.52.11-.55.11-1.11.27,0-11.24,0-26.75,0-26.75M506.34,317.03s31.89,70.07,33.42,73.4v47.69l36.86-9.18v-42.89c2.01-3.72,31.5-57.9,31.5-57.9l-36.36-11.5s-8.49,16.05-13.46,25.45c-5.71-13.21-14-32.47-14-32.47l-45.02-8.13,7.08,15.51Z"/>
      <path class="st1" d="M129.01,405.79h0M112.08,402.91v-55.58c0-9.57,1.14-11.37,3.28-13.96,3.01-3.58,6.42-5.18,15.3-7.14.03,0,25.61-5.98,35.94-8.39v13.07c-4.72,1.09-37.98,8.73-37.98,8.73-3.73,1.09-4.18,3.97-4.18,5.92,0,.32.04.6.04.84l.03,1.67v50.32c0,1.78,0,6.48,4.5,7.41l20.87,4.52c3.42.66,6.13.28,8.12-1.15,1.15-.83,2.59-2.38,2.92-5.16l.05-.22v-25.82h10.99v30.03c0,5.38-1.68,9.43-5.15,12.34-3.8,3.22-8.6,4.22-11.51,3.75l-29.7-5.91s-1.1-.22-1.1-.22c-3.27-.6-4.92-.95-8.85-4.82-2.38-2.32-3.58-5.77-3.58-10.22ZM169.31,310.07l-40.2,9.37c-9.07,2.02-14.52,4.03-19.07,9.47-3.87,4.61-4.92,8.55-4.92,18.42v55.58c0,6.32,1.97,11.58,5.65,15.21,5.2,5.12,8.13,5.86,12.47,6.68l1.01.2,29.87,5.96c4.35.68,11.34-.36,17.21-5.31,5.03-4.26,7.62-10.19,7.62-17.66v-36.98h-24.96v32.25c-.02.1-.06.23-.06.23-.15.14-.94.35-2.62,0,.03,0-15.57-3.37-19.81-4.27-.03-.41-.03-.86-.03-.86v-50.14c0,.11-.03-2.06-.03-2.06v-.04c6.19-1.42,39.44-9.06,39.44-9.06l2.69-.6v-27.37l-4.25.99Z"/>
      <path class="st1" d="M211.81,323.71c1.89-6.01,8.41-15.12,16.19-15.01,5.86.05,9.72,3.18,11.59,9.29,0,.03,22.86,99.26,28.04,121.77-5-.32-12.16-.82-15.32-1.03-.92-4.16-5.58-25.89-5.58-25.89l-39.41-4.89s-6.49,22.12-7.94,27c-3.58-.77-10.71-2.38-14.77-3.27,1.65-6.52,27.19-107.97,27.19-107.97M205.09,321.8c-.06.18-28.07,111.66-28.07,111.66l-.87,3.46,3.48.77c21.57,4.87,21.68,4.87,22.21,4.87h2.59s6.57-22.41,7.89-26.98c4.54.56,24.82,3.09,28.66,3.56.85,3.96,5.63,26.2,5.63,26.2l29.94,1.97-30.25-131.12c-2.74-9.19-9.37-14.38-18.22-14.49-10.74-.11-19.87,10.25-22.99,20.09Z"/>
      <path class="st1" d="M226.46,350.51c3.27,16.67,7.05,35.76,8.14,41.32-4.88-.49-11.39-1.2-15.46-1.63.81-4.5,4.29-23.26,7.33-39.69M222.91,331.3l-12.01,65.03,32.36,3.42-13.5-68.47-6.85.02Z"/>
      <path class="st1" d="M377.98,304.15c5.89,0,13.22,3.22,15.2,9.26.11.61,22.64,119.05,24.01,126.4-4.05.22-9.18.48-12.44.68-.89-4.44-4.25-21.57-4.25-21.57h-45.97s-3.29,18.53-4.08,22.93h-13.38c1.56-7.81,25.71-127.94,25.79-128.46,1.81-5.78,9.07-9.23,15.12-9.23M356.19,311.45l-.06.16-27.54,137.2h27.71s3.28-18.53,4.09-22.92h34.39c.84,4.25,4.29,21.88,4.29,21.88l26.45-1.48-25.61-134.68-.07-.22c-2.95-9.32-13.23-14.22-21.86-14.22-8.71,0-18.96,4.9-21.8,14.28Z"/>
      <path class="st1" d="M378.08,343.76c3.8,18.58,10.3,50.53,11.49,56.33h-24.18c1.34-5.91,8.52-37.84,12.69-56.33M357.64,402.8l-.94,4.25h41.38l-16.38-80.62-6.83-.07-17.23,76.44Z"/>
      <path class="st1" d="M293.08,305.34v114.34c.23,4.46,3.42,7.35,8.16,7.54,0,0,20.94,0,26.38.02,0,3.96-.05,10.69-.05,14.75-5.66-.21-27.95-1.06-27.95-1.06-.13,0-1.81-.18-1.81-.18l-1.13-.14c-13.12-1.07-15.84-11.17-15.84-19.45v-115.83h12.25M296.57,298.37h-22.71v122.81c0,15.62,8.07,25.23,22.12,26.41-.1,0,.86.1.86.1l2.63.23c-.12,0,31.43,1.18,31.43,1.18l3.61.13.11-28.94h-33.27c-1.29-.05-1.31-.41-1.31-.76v-121.16h-3.48Z"/>
      <path class="st1" d="M460.21,373.68l.93-1.79s-33.8-56.06-39.66-65.79c6.11.44,12.86.96,15,1.14,1.72,2.91,31.19,52.33,31.19,52.33,0,0,24.69-42.18,26.86-45.9,2.76.43,9.49,1.5,14.76,2.34-4.72,7.59-34.26,54.72-34.26,54.72,0,0,32.5,51.46,36.92,58.42-4.61,1.24-10.27,2.74-13.16,3.5-2.44-4.03-30.22-49.48-30.22-49.48,0,0-26.6,51.62-28.27,54.89-2.33.18-9.17.61-15.12,1.01,5.04-9.41,35.02-65.39,35.02-65.39M412.04,303.89s39.13,65.02,41.07,68.23c-1.75,3.32-39.97,74.69-39.97,74.69l31.54-1.99s19.89-38.67,24.42-47.41c5.08,8.28,26.45,43.3,26.45,43.3l27.34-7.23s-37.45-59.28-39.65-62.75c2.18-3.48,37.54-59.95,37.54-59.95l-29.89-4.77s-18.68,31.98-23.29,39.87c-4.85-8.17-27.02-45.35-27.02-45.35l-32.06-2.41,3.51,5.76Z"/>
      <path class="st1" d="M552.17,388.52v-.78s-27.11-59.56-31.77-69.8c6.06,1.12,12.94,2.35,15.13,2.77,1.35,3.13,21.62,50.08,21.62,50.08,0,0,18.4-34.75,20.73-39.16,3.02.95,8.06,2.55,12.13,3.83-3.45,6.37-25.83,47.41-25.83,47.41v36.37c-2.85.73-7.77,1.95-12.01,3.01v-33.73M511.29,314.78s33.32,73.14,33.91,74.5v41.88l25.95-6.47v-40.01c.82-1.52,29.02-53.29,29.02-53.29l-25.7-8.17s-12.16,22.88-16.7,31.47c-4.18-9.67-17.35-40.22-17.35-40.22l-31.91-5.72,2.78,6.04Z"/>
      <path class="st2" d="M113.19,415.63c-2.84-2.8-4.61-7-4.61-12.72v-55.58c0-9.79,1.15-12.61,4.11-16.19,3.84-4.57,8.4-6.37,17.21-8.3l40.17-9.38v20.2l-40.71,9.37c-2.03.58-1.29,2.23-1.39,5.17v49.77c.03,1.7-.12,4.05,1.73,4.41l20.93,4.52c4.07.83,6.49-.38,6.83-3.33v-29.09h17.97v33.51c0,6.88-2.41,11.65-6.37,15-4.79,4.08-10.64,5.08-14.25,4.55l-29.87-5.99c-4.25-.83-6.58-.89-11.75-5.92"/>
      <path class="st2" d="M238.95,395.79l-12.63-63.85-11.29,61.31,23.92,2.54M180.38,434.29l28.03-111.46c2.47-7.73,10.1-17.76,19.62-17.65,7.15.09,12.56,4.05,14.88,11.8l29.18,126.56-22.63-1.52-5.61-26.04-34.03-4.25-7.99,27.33c-.23,0-21.46-4.78-21.46-4.78Z"/>
      <path class="st2" d="M393.81,403.57l-15.53-76.43-17.24,76.43h32.77M401.89,444.12l-4.26-21.7h-40.17l-4.09,22.89h-20.54l26.7-132.84c2.31-7.76,11.32-11.8,18.45-11.8s16.09,4.05,18.55,11.8l24.83,130.56-19.48,1.09Z"/>
      <path class="st2" d="M277.33,421.18v-119.31h19.24v117.82c.11,2.48,1.83,3.96,4.79,4.08l39.21.12v21.43l-41.09-.89c-.98,0-2.09-.19-3.21-.35-12.57-1.04-18.94-9.64-18.94-22.9"/>
      <polyline class="st2" points="419.17 442.96 457.14 372.03 415.02 302.09 438.53 303.89 467.66 352.72 492.73 309.85 515.05 313.43 479.14 370.74 517.42 431.32 497.2 436.7 468.84 390.3 442.53 441.44 419.17 442.96"/>
      <polyline class="st2" points="514.44 313.33 537.99 317.57 557.46 362.76 576.16 327.41 595.09 333.41 567.68 383.78 567.68 421.97 548.68 426.7 548.68 388.52 514.44 313.33"/>
    </g>
    <g>
      <polyline points="296.16 717.53 293.63 717.53 293.63 707.26 289.98 707.26 289.98 705.15 299.81 705.15 299.81 707.26 296.16 707.26 296.16 717.53"/>
      <polyline points="303.72 717.53 301.39 717.53 301.39 705.15 305.12 705.15 307.39 713.58 309.6 705.15 313.33 705.15 313.33 717.53 311.02 717.53 311.02 707.79 308.56 717.53 306.15 717.53 303.72 707.79 303.72 717.53"/>
    </g>
  </g>
</svg>