<?xml version="1.0" encoding="utf-8"?>
<!-- Created by @FCLOGO 2024-10-12 GMT+8 21:40:10 . https://fclogo.top/ -->
<!-- FOR PERSONAL USE ONLY NOT FOR COMMERCIAL USE -->
<svg version="1.1" xmlns="http://www.w3.org/2000/svg" xmlns:xlink="http://www.w3.org/1999/xlink" x="0px" y="0px"
	 viewBox="0 0 800 800" style="enable-background:new 0 0 800 800;" xml:space="preserve">
<path style="fill:#CCCCCC;" d="M348.22,774.3c-0.79,0-1.38-0.22-1.77-0.65c-0.39-0.44-0.53-1.03-0.41-1.79l0.25-1.65
	c0.12-0.75,0.45-1.35,0.98-1.78c0.53-0.44,1.19-0.65,1.98-0.65c0.76,0,1.33,0.2,1.72,0.6c0.39,0.4,0.55,0.94,0.47,1.62h-1.24
	c0.03-0.36-0.06-0.64-0.26-0.84c-0.2-0.2-0.5-0.3-0.89-0.3c-0.42,0-0.76,0.12-1.03,0.35c-0.27,0.23-0.43,0.56-0.5,0.99l-0.26,1.66
	c-0.07,0.44-0.01,0.77,0.19,1c0.19,0.23,0.5,0.35,0.92,0.35c0.39,0,0.72-0.1,0.98-0.3c0.26-0.2,0.44-0.48,0.52-0.85h1.24
	c-0.14,0.69-0.47,1.23-0.99,1.63C349.61,774.1,348.97,774.3,348.22,774.3z M352.8,774.19l1-6.29h1.19l-0.19,1.19
	c0.34-0.87,0.97-1.3,1.91-1.3c0.67,0,1.17,0.21,1.49,0.62c0.32,0.42,0.43,0.99,0.31,1.71l-0.07,0.42h-1.27l0.06-0.32
	c0.07-0.45,0.01-0.8-0.17-1.04c-0.18-0.24-0.48-0.36-0.88-0.36c-0.4,0-0.74,0.12-1.01,0.37c-0.27,0.24-0.43,0.59-0.5,1.03
	l-0.63,3.97H352.8z M361.91,774.3c-0.77,0-1.35-0.22-1.73-0.67c-0.38-0.45-0.51-1.04-0.4-1.77l0.25-1.65
	c0.08-0.49,0.26-0.92,0.52-1.28c0.26-0.37,0.6-0.65,1.01-0.85c0.41-0.2,0.87-0.3,1.38-0.3c0.77,0,1.35,0.22,1.73,0.67
	c0.39,0.45,0.52,1.04,0.39,1.77l-0.17,1.12h-3.85l-0.09,0.53c-0.15,0.95,0.22,1.43,1.11,1.43c0.72,0,1.17-0.25,1.37-0.74h1.22
	c-0.17,0.53-0.5,0.96-1.01,1.28C363.16,774.14,362.58,774.3,361.91,774.3z M361.23,770.22l-0.05,0.29l2.65-0.01l0.05-0.29
	c0.07-0.47,0.01-0.82-0.17-1.07c-0.18-0.25-0.49-0.37-0.92-0.37c-0.44,0-0.8,0.13-1.06,0.38
	C361.48,769.39,361.31,769.75,361.23,770.22z M368.33,774.3c-0.63,0-1.1-0.21-1.41-0.64c-0.31-0.42-0.4-1-0.27-1.73l0.27-1.77
	c0.11-0.73,0.39-1.31,0.84-1.74c0.44-0.43,0.98-0.64,1.61-0.64c0.47,0,0.83,0.12,1.09,0.35c0.26,0.24,0.39,0.56,0.38,0.96h0.02
	l0.17-1.2h1.24l-1,6.29h-1.22l0.19-1.2h-0.02c-0.12,0.41-0.35,0.73-0.69,0.97C369.2,774.18,368.8,774.3,368.33,774.3z
	 M368.93,773.23c0.39,0,0.72-0.12,0.98-0.36c0.26-0.24,0.43-0.57,0.5-1.01l0.25-1.65c0.07-0.43,0.01-0.76-0.18-1
	c-0.19-0.24-0.47-0.36-0.86-0.36c-0.4,0-0.72,0.12-0.98,0.35c-0.26,0.24-0.42,0.57-0.49,1.01l-0.25,1.65
	c-0.07,0.44-0.01,0.78,0.17,1.01C368.24,773.11,368.53,773.23,368.93,773.23z M376.35,774.19c-0.57,0-0.99-0.16-1.26-0.47
	c-0.27-0.31-0.36-0.75-0.27-1.32l0.54-3.39h-1.74l0.17-1.12h1.74l0.27-1.72h1.24l-0.27,1.72h2.47l-0.18,1.12h-2.46l-0.54,3.39
	c-0.08,0.44,0.1,0.66,0.53,0.66h1.72l-0.17,1.12H376.35z M382.5,774.3c-0.77,0-1.35-0.22-1.73-0.67c-0.38-0.45-0.52-1.04-0.4-1.77
	l0.25-1.65c0.08-0.49,0.26-0.92,0.52-1.28c0.26-0.37,0.6-0.65,1.01-0.85c0.41-0.2,0.87-0.3,1.38-0.3c0.77,0,1.35,0.22,1.73,0.67
	c0.39,0.45,0.52,1.04,0.39,1.77l-0.17,1.12h-3.85l-0.09,0.53c-0.15,0.95,0.22,1.43,1.11,1.43c0.72,0,1.17-0.25,1.37-0.74h1.22
	c-0.17,0.53-0.5,0.96-1.01,1.28C383.76,774.14,383.18,774.3,382.5,774.3z M381.83,770.22l-0.05,0.29l2.65-0.01l0.05-0.29
	c0.07-0.47,0.01-0.82-0.17-1.07c-0.18-0.25-0.49-0.37-0.92-0.37c-0.44,0-0.8,0.13-1.06,0.38
	C382.08,769.39,381.91,769.75,381.83,770.22z M388.92,774.3c-0.63,0-1.1-0.21-1.4-0.64c-0.3-0.42-0.39-1-0.28-1.73l0.27-1.77
	c0.11-0.73,0.39-1.31,0.84-1.74c0.44-0.43,0.98-0.64,1.61-0.64c0.47,0,0.83,0.12,1.09,0.35c0.26,0.24,0.39,0.56,0.38,0.96h0.02
	l0.21-1.47l0.3-1.8h1.24l-1.33,8.35h-1.22l0.19-1.2h-0.02c-0.12,0.41-0.35,0.73-0.69,0.97C389.8,774.18,389.4,774.3,388.92,774.3z
	 M389.53,773.23c0.39,0,0.72-0.12,0.98-0.36c0.26-0.24,0.43-0.57,0.5-1.01l0.25-1.65c0.08-0.43,0.02-0.76-0.17-1
	c-0.19-0.24-0.48-0.36-0.87-0.36c-0.4,0-0.72,0.12-0.98,0.35c-0.26,0.24-0.42,0.57-0.49,1.01l-0.25,1.65
	c-0.08,0.44-0.02,0.78,0.16,1.01C388.83,773.11,389.13,773.23,389.53,773.23z M401.02,774.3c-0.47,0-0.84-0.12-1.1-0.35
	c-0.26-0.23-0.39-0.56-0.38-0.97h-0.01l-0.19,1.2h-1.22l1.33-8.35h1.24l-0.29,1.8l-0.27,1.47h0.05c0.12-0.41,0.35-0.73,0.69-0.97
	c0.34-0.23,0.74-0.35,1.21-0.35c0.63,0,1.1,0.21,1.4,0.64c0.3,0.43,0.39,1.01,0.28,1.74l-0.27,1.77c-0.11,0.73-0.39,1.31-0.84,1.73
	C402.18,774.09,401.64,774.3,401.02,774.3z M400.77,773.23c0.4,0,0.72-0.12,0.98-0.35c0.26-0.23,0.42-0.57,0.5-1.01l0.25-1.65
	c0.07-0.43,0.01-0.77-0.17-1.01c-0.18-0.24-0.47-0.35-0.87-0.35c-0.39,0-0.72,0.12-0.98,0.36c-0.26,0.24-0.43,0.57-0.5,1l-0.25,1.65
	c-0.07,0.44-0.01,0.77,0.17,1.01C400.08,773.11,400.37,773.23,400.77,773.23z M405.47,776.25l0.17-1.06h1.93
	c0.64,0,1.01-0.3,1.1-0.9l0.1-0.67l0.21-1.19h-0.03c-0.12,0.42-0.35,0.74-0.68,0.97c-0.33,0.23-0.73,0.34-1.2,0.34
	c-0.63,0-1.09-0.2-1.4-0.6c-0.31-0.4-0.41-0.94-0.3-1.63l0.58-3.6h1.24l-0.56,3.48c-0.06,0.41,0,0.73,0.18,0.96
	c0.18,0.23,0.47,0.34,0.85,0.34c0.39,0,0.72-0.12,0.98-0.37c0.27-0.24,0.43-0.58,0.49-1.02l0.54-3.4h1.24l-1.01,6.41
	c-0.1,0.6-0.37,1.08-0.81,1.42c-0.44,0.35-1,0.52-1.67,0.52H405.47z M417.79,770.09h3.22l0.54-1.85h-5.47l-1.71,6.44h2.15l0.59-2.1
	h3.03l0.44-1.71h-3.03L417.79,770.09z M424.23,772.92c-0.59,0-1.02-0.39-1.02-1.12c0-0.88,0.63-1.76,1.61-1.76
	c0.49,0,0.88,0.24,1.02,0.78l1.95-0.83c-0.29-1.17-1.27-1.9-2.64-1.9c-2.78,0-4.15,2.15-4.15,3.9c0,1.76,1.27,2.83,3.07,2.83
	c1.37,0,2.34-0.59,2.98-1.42l-1.51-1.17C425.16,772.67,424.72,772.92,424.23,772.92z M430.91,768.23h-2.15l-1.76,6.44h5.12
	l0.49-1.85h-2.93L430.91,768.23z M439.75,771.01c0-1.66-1.32-2.93-3.22-2.93c-2.2,0-3.81,1.81-3.81,3.81c0,1.66,1.32,2.93,3.22,2.93
	C438.14,774.82,439.75,773.01,439.75,771.01z M434.92,771.7c0-0.83,0.59-1.71,1.51-1.71c0.78,0,1.17,0.54,1.17,1.22
	c0,0.83-0.59,1.71-1.51,1.71C435.31,772.92,434.92,772.38,434.92,771.7z M443.21,772.23h1.07l-0.2,0.68
	c-0.15,0.05-0.34,0.1-0.59,0.1c-0.68,0-1.27-0.39-1.27-1.22c0-1.02,0.73-1.9,1.95-1.9c0.59,0,1.12,0.24,1.51,0.59l1.37-1.37
	c-0.44-0.54-1.51-1.07-2.73-1.07c-2.59,0-4.29,1.76-4.29,3.86c0,2.05,1.61,2.88,3.22,2.88c0.93,0,1.85-0.29,2.49-0.68l0.93-3.32
	h-3.12L443.21,772.23z M450.78,768.08c-2.2,0-3.81,1.81-3.81,3.81c0,1.66,1.32,2.93,3.22,2.93c2.2,0,3.81-1.81,3.81-3.81
	C454,769.35,452.68,768.08,450.78,768.08z M450.34,772.92c-0.78,0-1.17-0.54-1.17-1.22c0-0.83,0.59-1.71,1.51-1.71
	c0.78,0,1.17,0.54,1.17,1.22C451.85,772.04,451.27,772.92,450.34,772.92z M437.94,767.5c-0.05,0.29,0.1,0.49,0.44,0.49
	s0.54-0.2,0.63-0.49c0.05-0.24-0.1-0.49-0.44-0.49C438.24,767.01,437.99,767.25,437.94,767.5z M432.13,765.5
	c-0.44,0-0.73,0.24-0.78,0.59c-0.05,0.34,0.1,0.59,0.54,0.59s0.73-0.24,0.78-0.59C432.77,765.74,432.57,765.5,432.13,765.5z
	 M433.01,767.3c-0.1,0.54,0.15,0.88,0.83,0.88c0.63,0,1.07-0.39,1.17-0.88s-0.15-0.88-0.83-0.88
	C433.5,766.43,433.11,766.82,433.01,767.3z M439.6,777.55l-2.44-1.81h-1.51l4.25,3.17l1.61-3.17h-0.98L439.6,777.55z M425.84,767.16
	l-2-1.46l23.13-2.78l-2.15,4.25h1.02l2.68-5.32l-26.99,3.22l2.78,2.1H425.84z M338.72,785.79l0.61-3.83h2.32l-0.08,0.52h-1.76
	l-0.18,1.14h1.63l-0.08,0.52h-1.62l-0.26,1.64H338.72z M342.97,785.84c-0.36,0-0.62-0.1-0.8-0.3c-0.17-0.2-0.23-0.47-0.18-0.82
	l0.27-1.7c0.06-0.34,0.2-0.61,0.44-0.82c0.24-0.2,0.54-0.3,0.89-0.3c0.36,0,0.62,0.1,0.8,0.3c0.17,0.2,0.24,0.47,0.18,0.81
	l-0.27,1.71c-0.06,0.34-0.2,0.62-0.44,0.82C343.63,785.74,343.33,785.84,342.97,785.84z M343.05,785.33c0.19,0,0.35-0.05,0.47-0.16
	c0.12-0.11,0.19-0.26,0.23-0.46l0.27-1.7c0.03-0.2,0.01-0.35-0.08-0.46c-0.08-0.11-0.22-0.16-0.41-0.16s-0.35,0.05-0.46,0.16
	c-0.12,0.1-0.19,0.26-0.22,0.46l-0.27,1.7c-0.03,0.2-0.01,0.35,0.08,0.46C342.72,785.28,342.86,785.33,343.05,785.33z M345,785.79
	l0.61-3.83h1.2c0.24,0,0.44,0.05,0.6,0.14c0.16,0.09,0.28,0.22,0.36,0.39c0.07,0.17,0.09,0.37,0.05,0.59
	c-0.04,0.26-0.14,0.48-0.3,0.67c-0.16,0.19-0.37,0.32-0.6,0.39l0.54,1.64h-0.62l-0.48-1.57h-0.54l-0.25,1.57H345z M345.89,783.71
	h0.64c0.19,0,0.35-0.06,0.48-0.17c0.13-0.11,0.21-0.26,0.24-0.45c0.03-0.19,0-0.35-0.09-0.46c-0.09-0.11-0.24-0.17-0.43-0.17h-0.64
	L345.89,783.71z M349.54,785.79l0.61-3.83h1.25c0.37,0,0.65,0.1,0.84,0.31c0.19,0.21,0.26,0.49,0.2,0.84
	c-0.04,0.23-0.12,0.44-0.25,0.61s-0.29,0.31-0.49,0.4c-0.2,0.09-0.42,0.14-0.66,0.14h-0.69l-0.24,1.52H349.54z M350.43,783.75h0.69
	c0.19,0,0.36-0.06,0.49-0.18c0.14-0.12,0.22-0.27,0.25-0.47c0.03-0.2,0-0.35-0.1-0.47c-0.1-0.12-0.25-0.18-0.44-0.18h-0.69
	L350.43,783.75z M352.75,785.79l0.61-3.83h2.25l-0.08,0.5h-1.7l-0.17,1.09h1.51l-0.08,0.5h-1.51l-0.19,1.24h1.69l-0.08,0.5H352.75z
	 M355.84,785.79l0.61-3.83h1.2c0.24,0,0.44,0.05,0.6,0.14c0.16,0.09,0.28,0.22,0.36,0.39c0.07,0.17,0.09,0.37,0.05,0.59
	c-0.04,0.26-0.14,0.48-0.3,0.67c-0.16,0.19-0.37,0.32-0.6,0.39l0.54,1.64h-0.62l-0.48-1.57h-0.54l-0.25,1.57H355.84z M356.74,783.71
	h0.64c0.19,0,0.35-0.06,0.48-0.17c0.13-0.11,0.21-0.26,0.24-0.45c0.03-0.19,0-0.35-0.09-0.46c-0.09-0.11-0.24-0.17-0.43-0.17h-0.64
	L356.74,783.71z M360.13,785.84c-0.39,0-0.67-0.1-0.87-0.29c-0.19-0.19-0.26-0.45-0.22-0.78h0.57c-0.03,0.17,0.01,0.31,0.12,0.41
	c0.11,0.1,0.27,0.15,0.48,0.15c0.2,0,0.37-0.05,0.5-0.15c0.13-0.1,0.21-0.23,0.24-0.4c0.02-0.15,0-0.28-0.06-0.39
	c-0.06-0.11-0.16-0.18-0.29-0.22l-0.46-0.14c-0.27-0.08-0.46-0.22-0.59-0.41c-0.13-0.19-0.17-0.42-0.13-0.68
	c0.04-0.21,0.11-0.39,0.23-0.55c0.12-0.16,0.27-0.28,0.46-0.37c0.19-0.09,0.4-0.13,0.64-0.13c0.35,0,0.62,0.1,0.8,0.29
	c0.18,0.19,0.25,0.44,0.2,0.76h-0.57c0.03-0.17,0-0.3-0.09-0.4c-0.09-0.1-0.23-0.14-0.42-0.14c-0.19,0-0.34,0.04-0.46,0.13
	c-0.12,0.09-0.19,0.21-0.21,0.38c-0.02,0.15-0.01,0.28,0.05,0.39c0.06,0.11,0.16,0.18,0.29,0.22l0.47,0.15
	c0.26,0.08,0.46,0.22,0.58,0.41c0.12,0.19,0.17,0.42,0.12,0.69c-0.04,0.22-0.12,0.41-0.24,0.57c-0.13,0.16-0.29,0.29-0.49,0.38
	C360.6,785.79,360.38,785.84,360.13,785.84z M363.27,785.84c-0.36,0-0.62-0.1-0.8-0.3c-0.17-0.2-0.23-0.47-0.18-0.82l0.27-1.7
	c0.06-0.34,0.2-0.61,0.44-0.82c0.24-0.2,0.54-0.3,0.89-0.3c0.36,0,0.62,0.1,0.8,0.3c0.17,0.2,0.24,0.47,0.18,0.81l-0.27,1.71
	c-0.06,0.34-0.2,0.62-0.44,0.82C363.92,785.74,363.62,785.84,363.27,785.84z M363.34,785.33c0.19,0,0.35-0.05,0.47-0.16
	c0.12-0.11,0.19-0.26,0.23-0.46l0.27-1.7c0.03-0.2,0.01-0.35-0.08-0.46c-0.08-0.11-0.22-0.16-0.41-0.16c-0.19,0-0.35,0.05-0.46,0.16
	c-0.12,0.1-0.19,0.26-0.22,0.46l-0.27,1.7c-0.03,0.2-0.01,0.35,0.08,0.46C363.02,785.28,363.15,785.33,363.34,785.33z
	 M365.28,785.79l0.61-3.83h0.71l0.62,3.19c0.01-0.1,0.02-0.22,0.03-0.36c0.01-0.14,0.03-0.29,0.04-0.44
	c0.02-0.15,0.04-0.29,0.06-0.41l0.31-1.98h0.52l-0.61,3.83h-0.71l-0.61-3.19c-0.01,0.09-0.02,0.21-0.03,0.34s-0.03,0.28-0.04,0.42
	c-0.02,0.15-0.04,0.28-0.06,0.41l-0.31,2.01H365.28z M368.23,785.79l1.59-3.83h0.75l0.37,3.83h-0.56l-0.07-0.97h-1.09l-0.39,0.97
	H368.23z M369.39,784.34h0.87l-0.09-1.1c-0.02-0.2-0.03-0.37-0.04-0.51c-0.01-0.14-0.01-0.24-0.01-0.3c-0.02,0.06-0.05,0.16-0.1,0.3
	c-0.05,0.14-0.11,0.31-0.19,0.5L369.39,784.34z M371.72,785.79l0.61-3.83h0.57l-0.52,3.31h1.67l-0.08,0.52H371.72z M376.68,785.84
	c-0.37,0-0.63-0.1-0.8-0.3c-0.17-0.2-0.22-0.48-0.17-0.82l0.44-2.76h0.57l-0.44,2.76c-0.03,0.2-0.01,0.35,0.07,0.46
	c0.08,0.11,0.21,0.17,0.41,0.17c0.19,0,0.35-0.06,0.46-0.17c0.12-0.11,0.19-0.27,0.22-0.46l0.44-2.76h0.57l-0.44,2.76
	c-0.06,0.35-0.2,0.62-0.43,0.82C377.35,785.74,377.05,785.84,376.68,785.84z M379.84,785.84c-0.39,0-0.67-0.1-0.87-0.29
	c-0.19-0.19-0.26-0.45-0.22-0.78h0.57c-0.03,0.17,0.01,0.31,0.12,0.41c0.11,0.1,0.27,0.15,0.48,0.15c0.2,0,0.37-0.05,0.5-0.15
	c0.13-0.1,0.21-0.23,0.24-0.4c0.02-0.15,0-0.28-0.06-0.39c-0.06-0.11-0.16-0.18-0.29-0.22l-0.46-0.14
	c-0.27-0.08-0.46-0.22-0.59-0.41c-0.13-0.19-0.17-0.42-0.13-0.68c0.04-0.21,0.11-0.39,0.23-0.55s0.27-0.28,0.46-0.37
	c0.19-0.09,0.4-0.13,0.64-0.13c0.35,0,0.62,0.1,0.8,0.29c0.18,0.19,0.25,0.44,0.2,0.76h-0.57c0.03-0.17,0-0.3-0.09-0.4
	c-0.09-0.1-0.23-0.14-0.42-0.14c-0.19,0-0.34,0.04-0.46,0.13c-0.12,0.09-0.19,0.21-0.21,0.38c-0.02,0.15-0.01,0.28,0.05,0.39
	c0.06,0.11,0.16,0.18,0.29,0.22l0.47,0.15c0.26,0.08,0.46,0.22,0.58,0.41c0.12,0.19,0.17,0.42,0.12,0.69
	c-0.04,0.22-0.12,0.41-0.24,0.57c-0.13,0.16-0.29,0.29-0.49,0.38C380.31,785.79,380.09,785.84,379.84,785.84z M381.91,785.79
	l0.61-3.83h2.25l-0.08,0.5h-1.7l-0.17,1.09h1.51l-0.08,0.5h-1.51l-0.19,1.24h1.69l-0.08,0.5H381.91z M386.94,785.84
	c-0.36,0-0.62-0.1-0.8-0.3c-0.17-0.2-0.23-0.47-0.18-0.82l0.27-1.7c0.06-0.34,0.2-0.61,0.44-0.82c0.24-0.2,0.54-0.3,0.89-0.3
	c0.36,0,0.62,0.1,0.8,0.3c0.17,0.2,0.24,0.47,0.18,0.81l-0.27,1.71c-0.06,0.34-0.2,0.62-0.44,0.82
	C387.6,785.74,387.3,785.84,386.94,785.84z M387.02,785.33c0.19,0,0.35-0.05,0.47-0.16c0.12-0.11,0.19-0.26,0.23-0.46l0.27-1.7
	c0.03-0.2,0.01-0.35-0.08-0.46c-0.08-0.11-0.22-0.16-0.41-0.16c-0.19,0-0.35,0.05-0.46,0.16c-0.12,0.1-0.19,0.26-0.22,0.46
	l-0.27,1.7c-0.03,0.2-0.01,0.35,0.08,0.46C386.7,785.28,386.83,785.33,387.02,785.33z M388.95,785.79l0.61-3.83h0.71l0.62,3.19
	c0.01-0.1,0.02-0.22,0.03-0.36c0.01-0.14,0.03-0.29,0.04-0.44c0.02-0.15,0.04-0.29,0.06-0.41l0.31-1.98h0.52l-0.61,3.83h-0.71
	l-0.61-3.19c-0.01,0.09-0.02,0.21-0.03,0.34c-0.01,0.13-0.03,0.28-0.04,0.42c-0.02,0.15-0.04,0.28-0.06,0.41l-0.31,2.01H388.95z
	 M392.25,785.79l0.61-3.83h0.57l-0.52,3.31h1.67l-0.08,0.52H392.25z M396.12,785.79l0.22-1.41l-0.75-2.42h0.58l0.45,1.45
	c0.03,0.09,0.05,0.18,0.07,0.27c0.02,0.08,0.03,0.15,0.03,0.19c0.02-0.04,0.05-0.1,0.09-0.19c0.04-0.08,0.09-0.17,0.14-0.27
	l0.9-1.45h0.6l-1.53,2.42l-0.22,1.41H396.12z M399.22,785.79l0.61-3.83h0.71l0.62,3.19c0.01-0.1,0.02-0.22,0.03-0.36
	c0.01-0.14,0.03-0.29,0.04-0.44c0.02-0.15,0.04-0.29,0.06-0.41l0.31-1.98h0.52l-0.61,3.83h-0.71l-0.61-3.19
	c-0.01,0.09-0.02,0.21-0.03,0.34c-0.01,0.13-0.03,0.28-0.04,0.42c-0.02,0.15-0.04,0.28-0.06,0.41l-0.31,2.01H399.22z M403.51,785.84
	c-0.36,0-0.62-0.1-0.8-0.3c-0.18-0.2-0.23-0.47-0.18-0.82l0.27-1.7c0.06-0.34,0.2-0.61,0.44-0.82c0.24-0.2,0.54-0.3,0.89-0.3
	c0.36,0,0.62,0.1,0.8,0.3c0.17,0.2,0.24,0.47,0.18,0.81l-0.27,1.71c-0.06,0.34-0.2,0.62-0.44,0.82
	C404.16,785.74,403.86,785.84,403.51,785.84z M403.58,785.33c0.19,0,0.35-0.05,0.47-0.16c0.12-0.11,0.19-0.26,0.23-0.46l0.27-1.7
	c0.03-0.2,0.01-0.35-0.08-0.46c-0.08-0.11-0.22-0.16-0.41-0.16c-0.19,0-0.35,0.05-0.46,0.16c-0.12,0.1-0.19,0.26-0.22,0.46
	l-0.27,1.7c-0.03,0.2-0.01,0.35,0.08,0.46C403.26,785.28,403.4,785.33,403.58,785.33z M406.38,785.79l0.52-3.31h-1.02l0.08-0.52
	h2.62l-0.08,0.52h-1.03l-0.52,3.31H406.38z M409.52,785.79l0.61-3.83h2.32l-0.08,0.52h-1.76l-0.18,1.14h1.63l-0.08,0.52h-1.62
	l-0.26,1.64H409.52z M413.77,785.84c-0.36,0-0.62-0.1-0.8-0.3c-0.18-0.2-0.23-0.47-0.18-0.82l0.27-1.7c0.06-0.34,0.2-0.61,0.44-0.82
	c0.24-0.2,0.54-0.3,0.89-0.3c0.36,0,0.62,0.1,0.8,0.3c0.17,0.2,0.24,0.47,0.18,0.81l-0.27,1.71c-0.06,0.34-0.2,0.62-0.44,0.82
	C414.42,785.74,414.13,785.84,413.77,785.84z M413.85,785.33c0.19,0,0.35-0.05,0.47-0.16c0.12-0.11,0.19-0.26,0.23-0.46l0.27-1.7
	c0.03-0.2,0.01-0.35-0.08-0.46c-0.08-0.11-0.22-0.16-0.41-0.16c-0.19,0-0.35,0.05-0.46,0.16c-0.12,0.1-0.19,0.26-0.22,0.46
	l-0.27,1.7c-0.03,0.2-0.01,0.35,0.08,0.46C413.52,785.28,413.66,785.33,413.85,785.33z M415.8,785.79l0.61-3.83h1.2
	c0.24,0,0.44,0.05,0.6,0.14c0.16,0.09,0.28,0.22,0.36,0.39c0.07,0.17,0.09,0.37,0.05,0.59c-0.04,0.26-0.14,0.48-0.3,0.67
	c-0.16,0.19-0.37,0.32-0.6,0.39l0.54,1.64h-0.62l-0.48-1.57h-0.54l-0.25,1.57H415.8z M416.69,783.71h0.64
	c0.19,0,0.35-0.06,0.48-0.17c0.13-0.11,0.21-0.26,0.24-0.45c0.03-0.19,0-0.35-0.09-0.46c-0.09-0.11-0.24-0.17-0.43-0.17h-0.64
	L416.69,783.71z M420.91,785.84c-0.36,0-0.63-0.1-0.81-0.3c-0.18-0.2-0.24-0.47-0.19-0.82l0.27-1.7c0.06-0.35,0.21-0.62,0.45-0.82
	s0.55-0.3,0.91-0.3c0.36,0,0.63,0.1,0.81,0.3c0.18,0.2,0.24,0.47,0.19,0.82h-0.57c0.03-0.2,0-0.35-0.09-0.46
	c-0.09-0.11-0.23-0.16-0.42-0.16c-0.19,0-0.35,0.05-0.48,0.16c-0.12,0.1-0.2,0.26-0.23,0.45l-0.27,1.71c-0.03,0.2,0,0.35,0.09,0.46
	c0.09,0.11,0.23,0.16,0.42,0.16c0.19,0,0.35-0.05,0.47-0.16c0.12-0.11,0.2-0.26,0.23-0.46h0.57c-0.03,0.23-0.11,0.43-0.24,0.59
	c-0.12,0.17-0.28,0.3-0.47,0.39C421.36,785.79,421.14,785.84,420.91,785.84z M424.03,785.84c-0.36,0-0.62-0.1-0.8-0.3
	c-0.18-0.2-0.23-0.47-0.18-0.82l0.27-1.7c0.06-0.34,0.2-0.61,0.44-0.82c0.24-0.2,0.54-0.3,0.89-0.3c0.36,0,0.62,0.1,0.8,0.3
	c0.17,0.2,0.24,0.47,0.18,0.81l-0.27,1.71c-0.06,0.34-0.2,0.62-0.44,0.82C424.69,785.74,424.39,785.84,424.03,785.84z
	 M424.11,785.33c0.19,0,0.35-0.05,0.47-0.16c0.12-0.11,0.19-0.26,0.23-0.46l0.27-1.7c0.03-0.2,0.01-0.35-0.08-0.46
	c-0.08-0.11-0.22-0.16-0.41-0.16c-0.19,0-0.35,0.05-0.46,0.16c-0.12,0.1-0.19,0.26-0.22,0.46l-0.27,1.7
	c-0.03,0.2-0.01,0.35,0.08,0.46C423.79,785.28,423.92,785.33,424.11,785.33z M425.97,785.79l0.61-3.83h0.69l0.18,1.23
	c0.02,0.12,0.04,0.23,0.05,0.33c0.01,0.1,0.02,0.18,0.03,0.24c0.02-0.06,0.05-0.14,0.09-0.24c0.04-0.11,0.09-0.22,0.15-0.34
	l0.57-1.22h0.71l-0.61,3.83h-0.54l0.2-1.29c0.02-0.17,0.06-0.35,0.1-0.55c0.04-0.2,0.09-0.4,0.14-0.61c0.05-0.2,0.1-0.4,0.14-0.59
	c0.05-0.19,0.09-0.35,0.13-0.49l-0.86,1.86h-0.55l-0.28-1.86c0,0.14-0.01,0.29-0.02,0.47c-0.01,0.18-0.02,0.37-0.04,0.57
	c-0.02,0.2-0.04,0.41-0.06,0.61c-0.02,0.2-0.05,0.4-0.08,0.57l-0.2,1.29H425.97z M429.11,785.79l0.61-3.83h0.69l0.18,1.23
	c0.02,0.12,0.04,0.23,0.05,0.33c0.01,0.1,0.02,0.18,0.03,0.24c0.02-0.06,0.05-0.14,0.09-0.24c0.04-0.11,0.09-0.22,0.15-0.34
	l0.57-1.22h0.71l-0.61,3.83h-0.54l0.2-1.29c0.02-0.17,0.06-0.35,0.1-0.55c0.04-0.2,0.09-0.4,0.14-0.61c0.05-0.2,0.1-0.4,0.14-0.59
	c0.05-0.19,0.09-0.35,0.13-0.49l-0.86,1.86h-0.55l-0.28-1.86c0,0.14-0.01,0.29-0.02,0.47c-0.01,0.18-0.02,0.37-0.04,0.57
	c-0.02,0.2-0.04,0.41-0.06,0.61c-0.02,0.2-0.05,0.4-0.08,0.57l-0.2,1.29H429.11z M432.41,785.79l0.61-3.83h2.25l-0.08,0.5h-1.7
	l-0.17,1.09h1.51l-0.08,0.5h-1.51l-0.19,1.24h1.69l-0.08,0.5H432.41z M435.51,785.79l0.61-3.83h1.2c0.24,0,0.44,0.05,0.6,0.14
	c0.16,0.09,0.28,0.22,0.36,0.39c0.07,0.17,0.09,0.37,0.05,0.59c-0.04,0.26-0.14,0.48-0.3,0.67c-0.16,0.19-0.37,0.32-0.6,0.39
	l0.54,1.64h-0.62l-0.48-1.57h-0.54l-0.25,1.57H435.51z M436.4,783.71h0.64c0.19,0,0.35-0.06,0.48-0.17
	c0.13-0.11,0.21-0.26,0.24-0.45c0.03-0.19,0-0.35-0.09-0.46c-0.09-0.11-0.24-0.17-0.43-0.17h-0.64L436.4,783.71z M439.8,785.84
	c-0.36,0-0.63-0.1-0.81-0.3c-0.18-0.2-0.24-0.47-0.19-0.82l0.27-1.7c0.06-0.35,0.21-0.62,0.45-0.82s0.55-0.3,0.91-0.3
	c0.36,0,0.63,0.1,0.81,0.3c0.18,0.2,0.24,0.47,0.19,0.82h-0.57c0.03-0.2,0-0.35-0.09-0.46c-0.09-0.11-0.23-0.16-0.42-0.16
	c-0.19,0-0.35,0.05-0.47,0.16c-0.12,0.1-0.2,0.26-0.23,0.45l-0.27,1.71c-0.03,0.2,0,0.35,0.09,0.46c0.09,0.11,0.23,0.16,0.42,0.16
	s0.35-0.05,0.47-0.16c0.12-0.11,0.2-0.26,0.23-0.46h0.57c-0.03,0.23-0.11,0.43-0.24,0.59c-0.12,0.17-0.28,0.3-0.47,0.39
	C440.25,785.79,440.04,785.84,439.8,785.84z M441.88,785.79l0.08-0.5h0.78l0.45-2.82h-0.78l0.08-0.5h2.13l-0.08,0.5h-0.78
	l-0.45,2.82h0.78l-0.08,0.5H441.88z M444.74,785.79l1.59-3.83h0.75l0.37,3.83h-0.56l-0.07-0.97h-1.09l-0.39,0.97H444.74z
	 M445.9,784.34h0.87l-0.09-1.1c-0.02-0.2-0.03-0.37-0.04-0.51c-0.01-0.14-0.01-0.24-0.01-0.3c-0.02,0.06-0.05,0.16-0.1,0.3
	c-0.05,0.14-0.11,0.31-0.19,0.5L445.9,784.34z M448.24,785.79l0.61-3.83h0.57l-0.52,3.31h1.67l-0.08,0.52H448.24z M453.19,785.84
	c-0.37,0-0.63-0.1-0.8-0.3c-0.17-0.2-0.22-0.48-0.17-0.82l0.44-2.76h0.57l-0.44,2.76c-0.03,0.2-0.01,0.35,0.07,0.46
	c0.08,0.11,0.21,0.17,0.41,0.17c0.19,0,0.35-0.06,0.46-0.17c0.12-0.11,0.19-0.27,0.22-0.46l0.44-2.76h0.57l-0.44,2.76
	c-0.06,0.35-0.2,0.62-0.43,0.82C453.86,785.74,453.56,785.84,453.19,785.84z M456.36,785.84c-0.39,0-0.67-0.1-0.87-0.29
	c-0.19-0.19-0.26-0.45-0.22-0.78h0.57c-0.03,0.17,0.01,0.31,0.12,0.41c0.11,0.1,0.27,0.15,0.48,0.15c0.2,0,0.37-0.05,0.5-0.15
	s0.21-0.23,0.24-0.4c0.02-0.15,0-0.28-0.06-0.39c-0.06-0.11-0.16-0.18-0.29-0.22l-0.46-0.14c-0.27-0.08-0.46-0.22-0.59-0.41
	c-0.13-0.19-0.17-0.42-0.13-0.68c0.04-0.21,0.11-0.39,0.23-0.55c0.12-0.16,0.27-0.28,0.46-0.37c0.19-0.09,0.4-0.13,0.64-0.13
	c0.35,0,0.62,0.1,0.8,0.29c0.18,0.19,0.25,0.44,0.2,0.76h-0.57c0.03-0.17,0-0.3-0.09-0.4c-0.09-0.1-0.23-0.14-0.42-0.14
	c-0.19,0-0.34,0.04-0.46,0.13c-0.12,0.09-0.19,0.21-0.21,0.38c-0.02,0.15-0.01,0.28,0.05,0.39c0.06,0.11,0.16,0.18,0.29,0.22
	l0.47,0.15c0.26,0.08,0.46,0.22,0.58,0.41c0.12,0.19,0.17,0.42,0.12,0.69c-0.04,0.22-0.12,0.41-0.24,0.57
	c-0.13,0.16-0.29,0.29-0.49,0.38C456.82,785.79,456.6,785.84,456.36,785.84z M458.42,785.79l0.61-3.83h2.25l-0.08,0.5h-1.7
	l-0.17,1.09h1.51l-0.08,0.5h-1.51l-0.19,1.24h1.69l-0.08,0.5H458.42z"/>
<path style="fill:#2A385F;" d="M493.13,286.78c0,22.96,10.57,34.91,19.86,45.44c6.68,7.61,12.65,14.38,14.69,25.26h-17.43v-12.96
	h-17.12v30.08h52.43v-8.58c0-22.7-10.48-34.6-19.73-45.08c-6.77-7.7-12.79-14.51-14.82-25.62h17.43v12.96h17.12v-30.08h-52.43
	V286.78z M610.32,295.32v-17.12h-45.35v96.4h45.35v-17.12h-28.23v-26.72h20.88v-17.12h-20.88v-18.32H610.32z M191.1,286.78
	c0,22.96,10.53,34.91,19.82,45.44c6.68,7.61,12.65,14.38,14.69,25.26h-17.39v-12.96H191.1v30.08h52.38v-8.58
	c0-22.7-10.49-34.6-19.73-45.08c-6.72-7.7-12.74-14.51-14.82-25.62h17.43v12.96h17.12v-30.08H191.1V286.78z M255.11,317.83h23.54
	v17.12h-23.54V317.83z M451.45,278.19h-17.08v96.4h45.3v-17.12h-28.23V278.19z M397.08,357.47h-5.75c-4.42,0-12.43,0-12.43-17.7
	v-61.58h-17.12v61.67c-0.39,7.94,1.53,15.82,5.53,22.7c5.27,8.02,14.44,12.61,24.02,12.03h22.87v-96.4h-17.12L397.08,357.47z
	 M294.53,278.19v96.4h17.12v-28.18c0-6.59,2.17-8.14,9.64-12.43c10.22-5.84,25.62-14.69,25.62-47.2v-8.58H294.53z M312.8,319.12
	l-1.15,0.66v-24.47h17.7C327.58,310.67,320.5,314.65,312.8,319.12 M404.25,405.47h-7.21c-0.51,3.67-2.26,7.06-4.95,9.6
	c-6.81,7.41-10.35,17.25-9.82,27.3v3.58h7.17v-3.58c0-0.88,0-1.73,0-2.57h7.57v6.15h7.17v-40.48L404.25,405.47z M397.08,432.64
	h-6.59c1.16-4.58,3.42-8.8,6.59-12.3V432.64z M369.34,405.47h7.21v3.8c0.62,6.2-1.63,12.34-6.11,16.68
	c4.45,4.34,6.69,10.45,6.11,16.63v3.58h-7.21v-3.58c0-9.51-3.32-11.41-7.12-13.58l-0.49-0.31v17.48h-7.21V405.7h7.21v11.81
	c-0.21,1.82,0.72,3.58,2.34,4.42c2.83-1.81,5.26-4.42,5.26-12.48V405.47z M252.28,405.47h7.21v40.48h-7.21V405.47z M237.37,405.47
	h7.21v40.48h-7.21v-17.48c-0.95,0.4-1.93,0.74-2.92,1.02c-3.5,1.11-4.69,1.46-4.69,5.35v11.1h-7.21v-40.48h7.21v18.05
	c0.84-0.35,1.69-0.64,2.57-0.88c3.58-1.11,5.04-1.59,5.04-6.06V405.47L237.37,405.47z M192.78,405.47h22.12v12.65h-7.21v-5.44h-7.34
	c1.01,4.11,3.17,7.84,6.24,10.75c5.27,4.89,8.29,11.74,8.32,18.94v3.58h-22.12V433.3h7.17v5.49h7.43
	c-0.98-4.07-3.14-7.76-6.19-10.62c-5.24-4.9-8.27-11.72-8.41-18.89V405.47z M310.37,405.47h7.17v40.48h-9.73
	c-4.02,0.25-7.87-1.67-10.09-5.04c-1.67-2.9-2.47-6.22-2.3-9.56v-25.88h7.17v25.93c0,7.43,3.27,7.43,5.22,7.43h2.43L310.37,405.47z
	 M344.92,410.74c-2.88-5.02-9.29-6.75-14.31-3.87c-1.61,0.92-2.94,2.26-3.87,3.87c-1.39,2.91-2.05,6.11-1.9,9.33v11.33
	c-0.17,3.34,0.63,6.66,2.3,9.56c2.21,3.37,6.06,5.29,10.09,5.04h9.6v-25.88c0.15-3.22-0.51-6.43-1.9-9.33 M339.66,438.83h-2.43
	c-1.95,0-5.22,0-5.22-7.43v-11.28c0-7.39,2.57-7.39,3.8-7.39s3.85,0,3.85,7.39V438.83z M280.55,428.13
	c-2.96,2.91-5.01,6.61-5.93,10.66h13.85v7.17h-21.32v-3.58c-0.01-7.1,2.83-13.9,7.87-18.89c3-2.94,5.08-6.69,5.97-10.79h-13.85
	v-7.21h21.32v3.8c0,7.16-2.85,14.02-7.92,19.07 M493.48,405.47h7.21v40.48h-7.21V405.47z M478.62,405.47h7.17v40.48h-7.17v-17.48
	c-0.95,0.39-1.93,0.73-2.92,1.02c-3.54,1.11-4.73,1.46-4.73,5.35v11.1h-7.17v-40.48h7.17v18.05c0.85-0.35,1.72-0.65,2.61-0.88
	c3.54-1.11,5.04-1.59,5.04-6.06L478.62,405.47L478.62,405.47z M434.07,405.47h22.12v12.65h-7.21v-5.44h-7.3
	c0.97,4.11,3.12,7.85,6.19,10.75c5.27,4.89,8.28,11.75,8.32,18.94v3.58h-22.12V433.3h7.21v5.49h7.3c-0.97-4.06-3.11-7.75-6.15-10.62
	c-5.31-4.94-8.34-11.86-8.36-19.11L434.07,405.47z M543.25,405.47h7.21v40.48h-7.21V405.47z M601.38,405.47h7.26v40.48h-9.6
	c-4.03,0.26-7.88-1.67-10.09-5.04c-1.71-2.87-2.56-6.17-2.43-9.51v-25.88h7.17v25.88c0,7.43,3.27,7.43,5.22,7.43h2.43L601.38,405.47
	z M571.57,428.13c-2.96,2.91-5.01,6.61-5.93,10.66h13.85v7.17h-21.32v-3.58c-0.01-7.1,2.83-13.9,7.87-18.89
	c2.99-2.95,5.06-6.7,5.97-10.79h-13.85v-7.21h21.32v3.8c0,7.16-2.85,14.02-7.92,19.07 M528.39,405.47h7.21v40.48h-7.21v-24.64
	c-1.95,1.95-2.98,4.64-2.83,7.39v1.15h-7.17v-1.15c0.14-2.78-0.89-5.49-2.83-7.48v24.73h-7.21v-40.48h7.39v0.53
	c-0.05,3.41,1.44,6.67,4.07,8.85c0.75,0.84,1.59,1.68,2.34,2.7c0.8-0.97,1.59-1.81,2.34-2.61c2.67-2.15,4.18-5.42,4.07-8.85
	L528.39,405.47z M351.2,446.51l-1.06,0.82l0-8.11l1.06-1.98V446.51z M430.57,355.35c0.16-0.08,0.32-0.16,0.49-0.24v1.38l-0.13-0.31
	L430.57,355.35z M296.01,377.91h18.74C308.51,378.15,302.26,378.13,296.01,377.91z M335.82,416.08c0.19,0.44,0.51,1.57,0.51,4.04
	v4.77l-0.71,0.31c-0.1,0.03-0.21,0.02-0.31,0.04v-5.13C335.32,417.67,335.63,416.53,335.82,416.08z M393.05,277.8
	c0.25-0.01,0.48-0.1,0.71-0.19v5.93l-0.71,0.27c-0.65,0.22-1.35,0.22-1.99,0l-1.33-0.49c-0.56-0.27-0.91-0.84-0.88-1.46l0.31-3.01
	c0.1-0.59,0.6-1.03,1.19-1.06H393.05z M420.84,235.94c-20.7-11.21-42.81-19.57-65.74-24.86c25.57-8.29,52.59-11.15,79.32-8.41
	C436.32,212.76,431.15,224.53,420.84,235.94z M431.68,195.29c-28-2.25-56.17,1.32-82.73,10.49c7.14-9.66,15.27-18.56,24.24-26.54
	c2.34-0.35,4.73-0.62,7.08-0.88c2.34-0.27,4.07,0,6.06,0c4.27-0.01,8.55,0.26,12.79,0.8C415.09,181.13,426.41,186.79,431.68,195.29z
	 M382.22,339.78v-8.4l8.29,22.77C386.62,354.09,382.22,353.2,382.22,339.78z M383.01,281.69v2.88c0.09,0.67,0.4,1.29,0.88,1.77
	l2.52,2.21c0.47,0.47,0.72,1.11,0.71,1.77l-0.27,4.78c-0.05,0.54,0.34,1.01,0.88,1.06c0.05,0,0.09,0.01,0.14,0h2.43
	c0.63-0.01,1.18-0.39,1.42-0.97l1.28-3.58c0-0.5,0.45-1.19,0.75-1.71v10.49l-0.26,0.03c-0.58,0-0.8,0.49-0.49,1.02l0.75,1.14v4.87
	l-0.57,1.82c-0.2,0.68-0.46,1.35-0.75,1.99v0.35c-0.27,0.59-0.27,1.27,0,1.86l1.33,2.57v26.71l-11.54-31.44v-36.42h-6.51
	c2.59-1.1,5.14-2.22,7.61-3.41l1.55,1.59c0.42,0.48,0.56,1.16,0.35,1.77l-1.9,4.82C383.09,280.31,382.98,281,383.01,281.69z
	 M489.81,300.45c0.62,0.62,1.21,1.29,1.81,1.95c0.15,0.63,0.33,1.24,0.5,1.86c-11.41,11.13-23.93,21.02-37.35,29.52v-58.89h-23.71
	v71.99c-1.18,0.57-2.35,1.17-3.54,1.72l-1.11-2.79c-0.27-0.61-0.27-1.3,0-1.9l3.01-4.95c0.33-0.59,0.47-1.27,0.4-1.95l0.53,0.18
	l-1.24-7.43c0-0.58,0-1.55,0-2.12l-0.58-7.79c-0.09-0.68-0.33-1.33-0.71-1.9l-4.42-5.88c-0.45-0.54-0.95-1.03-1.5-1.46l-4.38-3.07
	v-32.63h-21.75l1.31-2.39c0.35-0.57,0.9-0.98,1.55-1.15l5.4-0.97c0.68-0.15,1.39-0.15,2.08,0l13.63,3.67c0.57,0,0.93,0,0.84-0.75
	l-0.84-5.26c-0.11-0.69-0.11-1.39,0-2.08l1.19-5.4c0.19-0.67,0.52-1.29,0.97-1.81l3.89-3.85c0.5-0.5,1.08-0.91,1.73-1.19l5.26-2.34
	C453.62,265.46,472.75,281.94,489.81,300.45z M369.39,370.07c-17.82,4.5-36.06,7.13-54.42,7.83v-31.49c0-4.6,0.6-5.31,7.97-9.55
	c10.2-5.83,27.29-15.59,27.29-50.09v-3.3c2.76-0.72,5.51-1.53,8.23-2.4l0,58.62c-0.42,8.6,1.65,17.08,6.07,24.69
	C365.92,366.5,367.56,368.4,369.39,370.07z M489.81,377.91h46.74c0.93,2.65,1.85,5.3,2.68,7.96c-6.45,5.98-13.19,11.61-20.17,16.92
	v-0.64h-14.02v10.6c-0.34,0.23-0.68,0.46-1.02,0.69v-11.29h-13.85v19.79c-0.35,0.2-0.7,0.41-1.06,0.61v-20.4h-13.8v14.43
	c0,1.57-0.22,1.94-0.22,1.94c-0.11,0.11-0.42,0.25-0.8,0.39v-16.75h-13.8v34.93c-0.47,0.21-0.94,0.43-1.4,0.64
	c-1.03-6.16-3.97-11.92-8.48-16.28h8.91v-19.29h-28.76v6.91c0.02,7.86,3.22,15.43,8.77,20.91h-8.77v14.9l-11.28-31.18h0.58
	c0.65-0.17,1.27-0.42,1.86-0.75c0.49-0.36,0.83-0.9,0.93-1.5l0.49-3.72c0.02-0.69-0.11-1.37-0.4-1.99l-0.97-1.68
	c-0.24-0.63-0.24-1.32,0-1.95l0.31-0.8c0.23-0.64,0.67-1.18,1.24-1.55l2.12-1.28c0.57-0.39,1.04-0.9,1.37-1.5l2.39-4.91
	c0.29-0.55,0.89-0.87,1.5-0.8h0.93c0.57,0.09,0.96,0.62,0.88,1.19l-0.35,2.17c-0.11,0.69-0.11,1.39,0,2.08l0.31,2.79
	c0,0.58,0.49,0.71,0.93,0.31l4.42-4.11c0.48-0.5,0.8-1.13,0.93-1.81l0.62-4.42c0.13-0.69,0.41-1.34,0.84-1.9l1.81-2.3
	c0.38-0.48,0.38-1.16,0-1.64l-3.32-3.85c-0.43-0.53-0.71-1.18-0.8-1.86h44.9v-23.76h-28.23v-11.63
	c14.41-8.7,27.86-18.91,40.15-30.49c4.19,9.42,10.27,16.35,15.67,22.46c5.54,6.31,10.43,11.88,12.86,19.66h-9.88v-12.96h-23.76
	V377.91z M554.67,459.71c0.32-3.48,0.51-6.96,0.64-10.44h8.39c-0.64,1.19-1.24,2.4-1.91,3.58
	C559.53,455.16,557.36,457.28,554.67,459.71z M550.51,343.8v7.83c0.03,0.71,0.15,1.4,0.35,2.08l1.64,4.42
	c0.24,0.66,0.57,1.28,0.97,1.86l3.94,5.57c-2.69,3.56-5.57,6.96-8.54,10.29v-9.84c0-7.36-1.08-13.68-2.84-19.21l1.25-3.97
	c0.19-0.54,0.78-0.84,1.33-0.66l0.88,0.27C550.08,342.63,550.49,343.18,550.51,343.8z M508.17,191.13v-38.71
	c11.19,4.4,23,7.01,34.99,7.74h1.11c12.22,0.98,24.51,0.31,36.54-1.99v107.46h-2.61v0.09C561.6,235.29,537.5,209.61,508.17,191.13z
	 M561.66,377.91h3.88l5.36,11.28c0.3,0.64,0.49,1.33,0.58,2.04l1.11,8.58c0,0.58,0,1.5,0.31,2.08l0.06,0.26h-18.11V416h12.53
	c-0.92,1.89-2.15,3.62-3.67,5.12c-4.4,4.35-7.3,10.03-8.38,16.08c-0.18-6.5-0.7-12.99-1.55-19.43v-15.61h-2.73
	c-1.05-4.83-2.25-9.63-3.68-14.38c5.11-5.08,9.88-10.48,14.29-16.17V377.91z M570.61,434.97c-0.07,0.16-0.13,0.33-0.2,0.49h-0.1
	C570.39,435.3,570.52,435.15,570.61,434.97z M289.75,248.46l0.35,0l-0.31-3.98c12.93-9.98,27.09-18.28,42.12-24.69
	c-9.23,12.33-17.42,25.39-24.51,39.06l-12.87,1.95c-0.66,0.05-1.32-0.14-1.86-0.53l-3.58-3.23c-0.47-0.44-0.69-1.09-0.58-1.73
	l1.24-4.78C289.84,249.85,289.84,249.15,289.75,248.46z M239.63,452.64l-0.88-1.46l0.75-1.9h8.41v-28.22l0.49-1.91
	c0.15-0.7,0.25-1.41,0.31-2.12l0.27-5.07v37.32h13.85v-47.12h-13.33l0.1-1.99c0.05-0.69,0.26-1.35,0.62-1.95l4.42-6.77
	c0.35-0.59,0.53-1.26,0.53-1.95l-0.44-9.42c0-0.31,0-0.8,0-1.24c6.17,1.7,12.44,3.05,18.76,4.07l-0.75,3.98
	c-0.08,0.67,0.08,1.34,0.44,1.9l3.14,4.42c0.37,0.52,1,0.81,1.64,0.75h0.97c0,2.79,0.18,5.48,0.41,8.18h-15.5V416h12.54
	c-0.91,1.89-2.15,3.62-3.68,5.12c-5.64,5.58-8.87,13.32-8.86,21.25v6.9h23.91c2.11,7.37,4.47,14.67,7.28,21.81
	C275.47,468.85,256.61,462.57,239.63,452.64z M338.2,456.57c-0.49,0.48-0.76,1.13-0.75,1.81l0.31,3.14c0.03,0.7-0.16,1.4-0.53,1.99
	l-2.17,3.01c-0.37,0.49-0.27,1.18,0.22,1.55l1.64,1.24c0.54,0.47,0.94,1.08,1.15,1.77v0.27c-5.07,0.44-10.07,0.71-15,0.8l-1.95-2.08
	c-0.44-0.44-1.11-0.57-1.68-0.31l-0.97,0.49c-0.56,0.26-1.22,0.14-1.64-0.31c-0.42-0.52-0.63-1.19-0.58-1.86v-1.5
	c0.07-0.51-0.28-0.98-0.79-1.05c-0.03,0-0.07-0.01-0.1-0.01l0.09,0.04h-0.84c-0.68,0.03-1.34,0.24-1.9,0.62l-0.88,0.66
	c-0.58,0.38-1.22,0.63-1.9,0.75h-0.62c-0.66,0.02-1.3-0.2-1.81-0.62l-1.24-1.24c-0.49-0.42-1.16-0.55-1.77-0.35l-1.28,0.49
	c-0.63,0.25-1.17,0.67-1.59,1.19l-0.4,0.58c-3.88-9.97-6.97-20.2-9.42-30.59v-1.57h-0.35c-1-4.38-1.88-8.79-2.62-13.23
	c1.91-4.03,2.97-8.46,2.97-12.96v-7.12h-5.34c-0.46-5.87-0.73-11.76-0.68-17.65c6.59,0.57,13.27,0.93,20.44,0.93
	c24.11-0.24,48.04-3.69,71.21-10.15c3.81,1.71,7.93,2.68,12.15,2.68c0.49,0,0.98-0.02,1.47-0.04l-5.55,4.37
	c-0.55,0.44-0.96,1.02-1.19,1.68l-0.8,2.21c-0.22,0.54-0.8,0.84-1.37,0.71l-2.08-0.62c-0.63-0.22-1.17-0.66-1.5-1.24l-0.31-0.58
	c-0.29-0.59-0.29-1.27,0-1.86l2.12-3.41c0.25-0.3,0.21-0.75-0.1-1c-0.1-0.08-0.22-0.14-0.35-0.15c-0.66-0.13-1.34,0-1.9,0.35
	l-4.69,3.36c-0.49,0.44-0.8,1.03-0.88,1.68c0.02,0.68,0.21,1.35,0.53,1.95l0.75,1.24c0.34,0.59,0.5,1.27,0.49,1.95v3.19
	c-0.07,0.7-0.19,1.39-0.35,2.08l-1.33,4.91c-0.15,0.68-0.24,1.38-0.27,2.08v1.33h-6.24v7.3c0,0.36-0.02,0.66-0.03,0.99l-0.94,0.31
	v-8.37H351.2v15.27l-1.09,0.67c-0.12-2.84-0.74-5.65-1.88-8.26l-0.44-0.97c-1.84-3.2-4.8-5.49-8.37-6.45
	c-3.56-0.96-7.28-0.48-10.47,1.36c-2.11,1.21-3.87,2.97-5.21,5.31c-1.62,3.38-2.4,7.16-2.23,10.77l0,11.16
	c-0.07,1.32,0.04,2.62,0.22,3.92l-0.36,0.72c-0.14,0.28-0.33,0.65-0.53,1.01v-34.72h-13.79l-0.13,33.26
	c-0.64-0.24-1.03-1.07-1.03-4.02v-29.24h-13.8l0,29.03c-0.21,3.99,0.74,7.92,2.84,11.55c2.7,4.1,7.31,6.56,12.01,6.56
	c0.29,0,0.57-0.01,0.85-0.03h4.61l-0.41,1.02c-0.3,0.61-0.78,1.12-1.37,1.46c-0.64,0.29-1.33,0.46-2.04,0.49h-0.8
	c-0.68,0.03-1.33,0.27-1.86,0.71l-0.93,0.88c-0.42,0.49-0.57,1.15-0.4,1.77l0.84,2.65c0.22,0.61,0.77,1.04,1.42,1.11l2.65,0.31
	c0.7,0.04,1.39-0.08,2.04-0.35l7.21-3.23c0.65-0.25,1.34-0.37,2.04-0.35l4.11,0.35c0.49,0.05,0.92-0.3,0.97-0.79
	c0.01-0.06,0.01-0.12,0-0.19l-0.27-3.27c0-0.68,0.18-1.36,0.53-1.95l0.62-0.88c0.36-0.5,0.99-0.73,1.59-0.58l2.39,0.8
	c0.63,0.17,1.31,0.06,1.86-0.31l0.12-0.08c1.18,0.32,2.4,0.51,3.63,0.51c0.29,0,0.57-0.01,0.85-0.03h10.88
	c-0.12,0.27-0.21,0.55-0.22,0.84v2.48c-0.06,0.67-0.44,1.28-1.02,1.64l-3.05,1.64c-0.64,0.25-1.35,0.25-1.99,0l-0.84-0.35
	c-0.62-0.25-1.33-0.15-1.86,0.27L338.2,456.57z M520.52,410.73c1.61-1.18,3.1-2.4,4.66-3.6c-0.19,1.99-1.16,3.9-2.97,5.43
	l-0.28-0.26C521.37,411.84,520.92,411.3,520.52,410.73z M314.97,313.95v-15.32h10.5C323.75,307.11,319.93,310.79,314.97,313.95z
	 M293.25,533.15v84.06c-29.97-29.8-54.55-64.57-72.64-102.77v-55.88h2.61v0.04C239.81,489.03,263.92,514.69,293.25,533.15z
	 M302.98,488.07c8.56,17.25,19.75,33.05,33.18,46.85c-36.24-13.61-67.3-38.24-88.83-70.4c14.99,7,30.99,11.57,47.43,13.51
	l-0.71,1.06c-0.26,0.59-0.26,1.27,0,1.86l1.33,3.54c0.26,0.62,0.71,1.15,1.28,1.5l2.65,1.46c0.63,0.29,1.3,0.5,1.99,0.62H302.98z
	 M223.21,265.63h-2.61V158.08c12.04,2.3,24.33,2.97,36.54,1.99h1.11c12-0.73,23.81-3.34,34.99-7.74v38.71
	C263.92,209.52,239.81,235.2,223.21,265.63z M335.54,203.56c-7.78-1.84-15.7-3.1-23.67-3.76c6.17-3.31,12.52-6.27,19.02-8.85
	l0.22-0.18L335.54,203.56z M285.02,218.25c5.23-4.2,10.68-8.11,16.32-11.72c11.3,0.35,22.53,1.83,33.53,4.42
	c-16.33,6.39-31.77,14.87-45.92,25.22v-0.09l-0.62-8.18c-0.08-0.69-0.23-1.37-0.44-2.04L285.02,218.25z M400.71,564.08
	c12.32,0.01,24.61-1.12,36.72-3.36v114.72c-11.86,7.53-24.12,14.41-36.72,20.62c-12.6-6.2-24.86-13.08-36.72-20.62V560.76
	c12.11,2.25,24.4,3.37,36.72,3.36V564.08z M428,457.77l19.91,54.64l-5.66-0.97l-2.08-0.35l-13.49-2.12
	c-0.59-0.12-1.01-0.64-1.02-1.24v-3.23c0.03-0.7,0.23-1.38,0.58-1.99l2.26-3.89c0.29-0.61,0.42-1.28,0.4-1.95v-0.84
	c-0.11-0.62-0.58-1.11-1.19-1.24l-6.11-0.93c-0.69-0.11-1.39-0.11-2.08,0l-17.39,3.76l-1.99,0.66l-8.85,3.72
	c-0.66,0.28-1.28,0.64-1.86,1.06l-7.03,5.13c-0.54,0.41-0.91,1.01-1.02,1.68l-0.66,4.42c-0.14,0.69-0.39,1.35-0.75,1.95l-2.08,2.88
	c-0.41,0.52-1.02,0.82-1.68,0.84l-12.3-0.27c-0.7,0.02-1.4,0.11-2.08,0.27l-8.85,2.48c-0.63,0.24-1.19,0.65-1.59,1.19l-5.84,8.32
	c-0.38,0.51-0.83,0.97-1.33,1.37c-8.71-8.37-16.51-17.64-23.27-27.65l1.73-0.27c0.6-0.15,1.05-0.66,1.11-1.28v-3.54
	c0.05-0.65,0.42-1.25,0.97-1.59l1.02-0.58c0.56-0.31,0.9-0.91,0.88-1.55v-2.96c-0.04-0.69-0.18-1.38-0.4-2.03l-2.03-5.8
	c-0.2-0.68-0.3-1.38-0.31-2.08l0.27-4.42C355.14,478.6,389.74,471.39,428,457.77z M578.2,458.56h2.61v55.96
	c-18.1,38.17-42.68,72.91-72.64,102.68v-84.06C537.5,514.68,561.61,489,578.2,458.56z M646.73,109.5l-3.45-11.46l-0.88-2.65
	l-0.4-1.15l-0.35-0.97v-0.4v-0.4h-0.35c-0.64-0.66-1.61-0.89-2.48-0.58l-16.68,5.49c-21.23,7.47-43.51,11.55-66.01,12.08
	c-39.82,0-69.77-16.99-83.79-47.78l-4.69-10.22c-0.4-0.89-1.28-1.46-2.26-1.46H334.61c-0.98,0.02-1.87,0.58-2.3,1.46l-4.65,10.22
	c-14.02,30.97-43.8,47.78-83.79,47.78c-22.5-0.53-44.78-4.6-66.01-12.08l-16.68-6.64c-0.87-0.31-1.84-0.09-2.48,0.58h-0.35v0.4v0.4
	L158,93.09l-0.4,1.15l-0.88,2.65l-3.45,11.46c-16.95,59.77-25.52,121.6-25.48,183.73c0,85.56,15.75,209.44,90.87,313.76
	c44.65,62.05,104.99,111.12,174.84,142.19l-0.88,1.15l0.88,0.35l0.8,0.4h0.4h0.35h0.4h0.31h0.35h0.31h0.31h0.27h0.31h0.27h0.35h0.31
	h0.27h0.35c0.39,0.09,0.8,0.09,1.19,0h0.35h0.22h0.27h0.31h0.35h0.27h0.27h0.31h0.31h0.31h0.31h0.35h0.35h0.4h0.4l0.8-0.4l0.88-0.35
	c69.84-31.08,130.18-80.15,174.84-142.19c75.21-104.32,90.87-228.19,90.87-313.76C672.25,231.11,663.68,169.28,646.73,109.5z
	 M567.45,595.31c-42.59,59.17-100.13,105.97-166.74,135.6c-66.53-29.66-124-76.45-166.52-135.6
	c-63.26-87.86-87.11-197.4-87.11-302.08c-0.05-60.27,8.27-120.26,24.73-178.25c23.24,8.22,47.64,12.7,72.29,13.27
	c47.69,0,84.63-21.9,101.75-59.46h109.94c16.9,37.34,53.84,59.46,101.75,59.46c24.63-0.56,49.02-5.04,72.25-13.27
	c16.49,57.98,24.83,117.97,24.77,178.25C654.56,397.91,630.67,507.45,567.45,595.31z M546.7,466.53
	c-13.49,11.31-27.92,21.45-43.13,30.3l-4.16-4.42c-0.48-0.5-1.05-0.9-1.68-1.19l-6.28-2.83c-0.65-0.27-1.31-0.49-1.99-0.66
	l-5.75-1.33c-0.65-0.2-1.23-0.56-1.68-1.06l-9.2-11.19c-0.44-0.51-1.05-0.85-1.73-0.93h-2.17c-0.6-0.02-1.14,0.39-1.28,0.97
	l-1.5,7.39c-0.17,0.67-0.17,1.37,0,2.04l2.34,5.93c0.24,0.68,0.42,1.37,0.53,2.08l2.04,16.19c0.05,0.66-0.14,1.32-0.53,1.86
	l-2.92,3.32c-0.45,0.49-1.06,0.8-1.73,0.88l-6.46,0.71c-0.71,0.07-1.42,0.07-2.12,0l-1.46-0.27l-21.28-58.49
	c5.62-2.1,11.11-4.29,16.48-6.55h8.48v-3.77c0.32-0.14,0.65-0.29,0.97-0.43v4.2h13.8v-10.75c0.34-0.17,0.68-0.34,1.02-0.51v11.26
	h13.8V430.7c0.35-0.2,0.71-0.39,1.06-0.59v19.16h13.85v-27.41c0.34-0.21,0.69-0.42,1.02-0.63v28.04h13.85v-16.1h6.2v16.1h13.85
	v-47.12h-7.34c3.43-2.82,6.73-5.68,9.86-8.58c0.82,2.84,1.56,5.71,2.24,8.58h-3.74v47.12h8.27
	C547.98,455.03,547.49,460.79,546.7,466.53z M513.12,508.91l0.13-0.53l-0.53-0.62l-1.42-1.15l-2.65-3.76
	c-0.13-0.15-0.25-0.32-0.35-0.49c12.65-7.5,24.78-15.84,36.32-24.95l-0.27,1.11C535.17,489.83,524.69,500.04,513.12,508.91z
	 M341.12,219.04l19.78,54.06c-3.51,1.24-7.08,2.32-10.66,3.31v-1.53h-34.68l1.59-5c0.22-0.64,0.22-1.35,0-1.99l-3.05-6.33
	C321.8,246.61,330.85,232.38,341.12,219.04z M271.83,371.98c-0.13,0.67-0.13,1.36,0,2.03l0.13-0.13l0.58,1.81
	c-6.39-1.07-12.7-2.54-18.89-4.42l-0.53-4.11c-0.07-0.67,0.07-1.35,0.4-1.95l4.73-7.65c0.31-0.38,0.87-0.44,1.25-0.13
	c0.05,0.04,0.09,0.08,0.13,0.13l3.05,2.52c0.54,0.46,1.12,0.88,1.73,1.24l7.61,4.42c0.54,0.34,0.82,0.97,0.71,1.59L271.83,371.98z
	 M342.8,202.32l-5.13-14.11c7.44-2.69,15.05-4.89,22.77-6.62C353.97,187.97,348.06,194.91,342.8,202.32z M279.29,435.47
	c0.54-1.1,1.19-2.15,1.94-3.12l1.66-1.65c0.08-0.08,0.14-0.16,0.22-0.24c0.34,1.68,0.76,3.34,1.13,5.01H279.29z M347.62,216.52
	c22.58,4.79,44.43,12.52,64.99,23.01h-0.04l-1.37,0.4c-0.67,0.13-1.36,0.13-2.03,0l-9.47-1.55c-0.7-0.12-1.38-0.32-2.04-0.58
	l-12.34-5.4c-0.54-0.21-1.15,0.04-1.37,0.58l-0.4,0.93c-0.21,0.66-0.28,1.35-0.22,2.03v0.4c0.13,0.68,0.41,1.33,0.8,1.9l5.53,7.34
	c0.39,0.57,0.63,1.22,0.71,1.9v2.52c0.07,0.7,0.2,1.4,0.4,2.08l1.68,4.42c0.18,0.67,0.18,1.37,0,2.04
	c-8.01,4.74-16.4,8.81-25.08,12.17L347.62,216.52z M287.14,357.25l4.07-4.42v24.85c-1.84-0.1-3.69-0.13-5.53-0.26v-2.48
	C286.08,368.93,286.57,363.09,287.14,357.25z M425.84,450.78c-25.12,9.26-51.16,15.76-77.69,19.38l0.27-4.11
	c0.05-0.71,0.35-1.38,0.84-1.9l4.11-3.8c0.51-0.45,1.2-0.61,1.86-0.44l4.91,1.46c0.43,0.17,0.92-0.04,1.09-0.47
	c0.04-0.1,0.06-0.21,0.06-0.32l0.53-4.87c0.1-0.73,0.35-1.42,0.75-2.03l1.68-2.39c0.29-0.55,0.29-1.21,0.02-1.77h0.78v-13.47
	c0.63,1.45,0.97,3.47,0.97,6.57v6.9h13.85l0-0.22h12.88v-6.15h0.93v6.15h13.8v-32.08l1.37-0.26c0.6-0.17,1.07-0.64,1.24-1.24l1.15-5
	L425.84,450.78z M544.89,380.26c-0.26-0.78-0.56-1.56-0.83-2.34h2.95C546.29,378.69,545.62,379.5,544.89,380.26z M422.92,178.48
	c16.56,1.97,32.77,6.2,48.18,12.56v0.22l9.25,15c-13.06-4.83-26.6-8.21-40.39-10.09C436.68,188.36,430.6,182.04,422.92,178.48z
	 M363.99,163.43v-63.22h73.44v63.22C413.15,159.01,388.27,159.01,363.99,163.43z M441.81,203.47c17.09,2.59,33.72,7.58,49.42,14.82
	l2.92,14.29c0.13,0.69,0.36,1.36,0.66,1.99l12.12,26.1c0.28,0.64,0.43,1.33,0.44,2.04v9.42c-0.04,0.71-0.04,1.42,0,2.12l0.1,0.62
	h-17.67v11.9c0,1.13,0.05,2.21,0.1,3.29c-18.67-19.39-39.7-36.36-62.65-50.45c10.4-11.95,15.71-24.55,14.38-36.01L441.81,203.47z"/>
</svg>
