<?xml version="1.0" encoding="UTF-8"?>
<svg data-name="图层_1" xmlns="http://www.w3.org/2000/svg" version="1.1" viewBox="0 0 800 800">
  <!-- Created by @FCLOGO 2024-12-20 GMT+8 13:21:27 . https://fclogo.top/ -->
<!-- FOR PERSONAL USE ONLY NOT FOR COMMERCIAL USE -->
  <path d="M348.2194,774.301c-.786,0-1.3752-.2173-1.7682-.6519-.393-.4352-.5284-1.03-.406-1.7856l.2518-1.6478c.122-.755.4501-1.3504.9841-1.785.5339-.4352,1.1939-.6525,1.9799-.6525.7553,0,1.3293.1987,1.7223.5954.3927.3967.551.9381.4747,1.6248h-1.2358c.0304-.3589-.0553-.637-.2573-.8357-.2024-.1981-.4979-.2974-.8869-.2974-.4197,0-.763.1167-1.03.3489-.2673.2328-.4349.5631-.5035.9903l-.2632,1.659c-.0686.4352-.0056.7686.1887,1.0015.1946.2328.5017.3489.9214.3489.389,0,.7152-.0987.9785-.2974.2632-.1981.4365-.4805.5206-.8469h1.2358c-.1372.6867-.4672,1.2306-.9897,1.631-.5228.4005-1.1616.6004-1.9169.6004ZM352.7967,774.1868l.9956-6.2943h1.1902l-.1946,1.1902c.3359-.8698.9729-1.3044,1.9113-1.3044.6712,0,1.1691.208,1.4932.624.3244.416.4293.9859.3148,1.7105l-.0686.4234h-1.2703l.0571-.3204c.0689-.4501.0115-.7953-.1714-1.0356-.1832-.2403-.4771-.3607-.8813-.3607-.4045,0-.7401.1223-1.007.3663-.2673.2446-.4349.588-.5035,1.03l-.6296,3.9711h-1.2358ZM361.9058,774.301c-.7705,0-1.3463-.2229-1.7279-.6693s-.515-1.0356-.4005-1.7682l.2518-1.6478c.0838-.488.2573-.9152.5206-1.2815s.6007-.6507,1.0129-.8524c.4119-.2024.8732-.3036,1.3845-.3036.7705,0,1.3485.2235,1.7338.6693.3852.4464.5169,1.0356.3949,1.7682l-.1717,1.1213h-3.845l-.0916.5265c-.1527.9536.2173,1.4305,1.1098,1.4305.7171,0,1.175-.2477,1.3734-.7438h1.2247c-.1679.5339-.5035.9599-1.007,1.2759-.5038.3166-1.0912.475-1.7626.475ZM361.2306,770.2157l-.0456.2862,2.6548-.0118.0459-.2856c.0686-.4656.0133-.822-.1661-1.0704-.1791-.2477-.4861-.3719-.9211-.3719-.4427,0-.7953.126-1.0586.3775-.2632.2521-.4331.6109-.5094,1.076ZM368.3258,774.301c-.6333,0-1.1027-.2117-1.4078-.6351s-.3967-1.0008-.2744-1.7335l.2744-1.7738c.1145-.7326.393-1.3119.8357-1.7397.4424-.4272.98-.6407,1.6133-.6407.4653,0,.8298.1186,1.093.3545.2632.2365.3908.5575.3834.9617h.023l.1717-1.202h1.2358l-.9956,6.2943h-1.2247l.1946-1.2014h-.023c-.122.4116-.3511.7339-.6867.9667s-.7401.3489-1.2129.3489ZM368.9324,773.2257c.389,0,.7152-.1186.9782-.3551.2632-.2359.4293-.5718.4979-1.007l.2518-1.6478c.0686-.4272.0096-.7612-.1773-1.0015-.1872-.2403-.475-.3601-.8642-.3601-.3967,0-.7249.118-.9841.3545-.2595.2365-.4234.5724-.492,1.007l-.2518,1.6478c-.0686.4427-.0133.7804.1658,1.0133.1794.2328.4712.3489.8757.3489ZM376.3477,774.1868c-.5721,0-.9937-.1565-1.2644-.4694-.271-.3123-.3607-.7512-.2691-1.3156l.538-3.3874h-1.7394l.1714-1.1219h1.7397l.2747-1.7161h1.2358l-.2747,1.7161h2.472l-.1832,1.1219h-2.4605l-.5377,3.3874c-.0764.4421.099.6637.5262.6637h1.7167l-.1717,1.1213h-1.7738ZM382.5042,774.301c-.7705,0-1.3463-.2229-1.7279-.6693s-.515-1.0356-.4005-1.7682l.2518-1.6478c.0838-.488.2573-.9152.5206-1.2815s.6007-.6507,1.0129-.8524c.4119-.2024.8732-.3036,1.3845-.3036.7705,0,1.3485.2235,1.7338.6693.3852.4464.5169,1.0356.3949,1.7682l-.1717,1.1213h-3.845l-.0916.5265c-.1527.9536.2173,1.4305,1.1098,1.4305.7171,0,1.175-.2477,1.3734-.7438h1.2247c-.1679.5339-.5035.9599-1.007,1.2759-.5038.3166-1.0912.475-1.7626.475ZM381.829,770.2157l-.0456.2862,2.6548-.0118.0459-.2856c.0686-.4656.0133-.822-.1661-1.0704-.1791-.2477-.4861-.3719-.9211-.3719-.4427,0-.7953.126-1.0586.3775-.2632.2521-.4331.6109-.5094,1.076ZM388.9243,774.301c-.6333,0-1.1008-.2117-1.4019-.6351-.3014-.4234-.3949-1.0008-.2803-1.7335l.2744-1.7738c.1145-.7326.393-1.3119.8357-1.7397.4424-.4272.98-.6407,1.6133-.6407.4653,0,.8298.1186,1.093.3545.2632.2365.3908.5575.3834.9617h.023l.2058-1.4652.2977-1.7962h1.2358l-1.3274,8.3537h-1.2247l.1946-1.2014h-.023c-.122.4116-.3511.7339-.6867.9667s-.7401.3489-1.2129.3489ZM389.5309,773.2257c.389,0,.7152-.1186.9782-.3551.2632-.2359.4293-.5718.4979-1.007l.2518-1.6478c.0761-.4272.0189-.7612-.1717-1.0015-.1909-.2403-.4805-.3601-.8698-.3601-.3967,0-.7249.118-.9841.3545-.2595.2365-.4234.5724-.492,1.007l-.2518,1.6478c-.0764.4427-.023.7804.1602,1.0133s.4768.3489.8813.3489ZM401.0175,774.301c-.4731,0-.8394-.1161-1.0986-.3489-.2595-.2328-.3852-.5551-.3775-.9667h-.0115l-.1946,1.2014h-1.2243l1.3274-8.3537h1.2358l-.2862,1.7962-.2744,1.4652h.0456c.122-.4123.353-.7345.6923-.9673.3396-.2322.7419-.3489,1.2076-.3489.633,0,1.1002.2136,1.4016.6407.3014.4278.3949,1.007.2806,1.7397l-.2747,1.7738c-.1145.7326-.3949,1.31-.8413,1.7335-.4461.4234-.9822.6351-1.6077.6351ZM400.7657,773.2257c.3967,0,.7227-.1161.9785-.3489.2555-.2328.4216-.5706.4976-1.0133l.2518-1.6478c.0689-.4346.0115-.7705-.1714-1.007-.1832-.2365-.4734-.3545-.8698-.3545-.3893,0-.7152.1198-.9785.3601s-.429.5743-.4979,1.0015l-.2518,1.6478c-.0686.4352-.0112.7711.1717,1.007.1832.2365.4731.3551.8698.3551ZM405.4694,776.2468l.1717-1.0642h1.934c.6407,0,1.007-.3017,1.0986-.9046l.1028-.6749.2061-1.1902h-.0345c-.122.4197-.3471.7438-.6752.9729-.3281.2285-.7286.3433-1.2014.3433-.6258,0-1.093-.2005-1.4019-.601s-.4104-.9443-.3033-1.631l.5836-3.6047h1.2358l-.5606,3.4793c-.0612.4116,0,.732.1832.9611s.4653.3433.8469.3433c.389,0,.7168-.1217.9841-.3663.267-.244.4309-.5836.492-1.0182l.538-3.3992h1.2358l-1.007,6.4086c-.0993.6029-.37,1.0778-.8124,1.4249-.4427.3471-.9996.5209-1.6707.5209h-1.9455ZM417.787,770.0853h3.221l.5368-1.8545h-5.4659l-1.7081,6.4419h2.1473l.5856-2.0985h3.0257l.4392-1.7081h-3.0257l.244-.7808ZM424.229,772.9158c-.5856,0-1.0249-.3904-1.0249-1.1225,0-.8784.6344-1.7569,1.6105-1.7569.488,0,.8784.244,1.0248.7808l1.9521-.8296c-.2928-1.1713-1.2689-1.9033-2.6353-1.9033-2.7817,0-4.1482,2.1473-4.1482,3.9042s1.2689,2.8305,3.0746,2.8305c1.3665,0,2.3425-.5856,2.9769-1.4153l-1.5129-1.1713c-.3904.4392-.8296.6832-1.3177.6832ZM430.9149,768.2308h-2.1473l-1.7569,6.4419h5.1242l.488-1.8545h-2.9281l1.2201-4.5874ZM439.7481,771.0125c0-1.6593-1.3177-2.9281-3.221-2.9281-2.1961,0-3.8066,1.8057-3.8066,3.8066,0,1.6593,1.3177,2.9281,3.221,2.9281,2.1961,0,3.8066-1.8057,3.8066-3.8066ZM434.9167,771.6957c0-.8296.5856-1.7081,1.5129-1.7081.7808,0,1.1713.5368,1.1713,1.2201,0,.8296-.5856,1.7081-1.5129,1.7081-.7808,0-1.1713-.5368-1.1713-1.2201ZM443.2131,772.2326h1.0737l-.1952.6832c-.1464.0488-.3416.0976-.5856.0976-.6832,0-1.2689-.3904-1.2689-1.2201,0-1.0249.732-1.9033,1.9521-1.9033.5856,0,1.1225.244,1.5129.5856l1.3665-1.3665c-.4392-.5368-1.5129-1.0737-2.7329-1.0737-2.5865,0-4.2946,1.7569-4.2946,3.8554,0,2.0497,1.6105,2.8793,3.221,2.8793.9272,0,1.8545-.2928,2.4889-.6832l.9272-3.3186h-3.1234l-.3416,1.4641ZM450.7775,768.0844c-2.1961,0-3.8066,1.8057-3.8066,3.8066,0,1.6593,1.3177,2.9281,3.221,2.9281,2.1961,0,3.8066-1.8057,3.8066-3.8066,0-1.6593-1.3177-2.9281-3.221-2.9281ZM450.3382,772.9158c-.7808,0-1.1713-.5368-1.1713-1.2201,0-.8296.5856-1.7081,1.5129-1.7081.7808,0,1.1713.5368,1.1713,1.2201,0,.8296-.5856,1.7081-1.5129,1.7081ZM437.9424,767.4987c-.0488.2928.0976.488.4392.488s.5368-.1952.6344-.488c.0488-.244-.0976-.488-.4392-.488s-.5856.244-.6344.488ZM432.1349,765.4978c-.4392,0-.732.244-.7808.5856s.0976.5856.5368.5856.732-.244.7808-.5856c.0976-.3416-.0976-.5856-.5368-.5856ZM433.0134,767.3035c-.0976.5368.1464.8784.8296.8784.6344,0,1.0737-.3904,1.1713-.8784s-.1464-.8784-.8296-.8784c-.6832,0-1.0737.3904-1.1713.8784ZM439.6017,777.552l-2.4401-1.8057h-1.5129l4.2458,3.1722,1.6105-3.1722h-.976l-.9272,1.8057ZM425.8394,767.1571l-2.0009-1.4641,23.1323-2.7817-2.1473,4.2458h1.0248l2.6841-5.3195-26.9877,3.221,2.7817,2.0985h1.5129ZM338.7186,785.7853l.6088-3.8315h2.32l-.084.5194h-1.7636l-.1837,1.1445h1.6272l-.084.5248h-1.6166l-.2573,1.6428h-.5668ZM342.97,785.8377c-.3568,0-.6228-.1005-.7978-.3019-.175-.201-.2345-.473-.1784-.8161l.2677-1.7006c.056-.3429.2029-.6148.4408-.8161.2379-.201.5355-.3019.8923-.3019s.6228.1.7979.2993c.1748.1993.2361.4707.1837.8136l-.2677,1.7057c-.0561.3431-.2039.6151-.4435.8161-.2398.2013-.5381.3019-.895.3019ZM343.0487,785.3339c.1925,0,.3483-.0524.4672-.1575.119-.1051.1942-.2571.2257-.4568l.2678-1.7006c.0315-.1993.0051-.3517-.0787-.4565-.084-.1051-.2223-.1575-.4148-.1575s-.3473.0524-.4645.1575c-.1173.1048-.1916.2571-.2231.4565l-.2677,1.7006c-.0315.1996-.0053.3517.0787.4568s.2204.1575.4094.1575ZM344.9961,785.7853l.6088-3.8315h1.202c.2379,0,.4391.0464.6036.139.1645.0928.2835.223.357.391s.091.3656.0524.5932c-.0384.2591-.14.4838-.3044.6746-.1645.1905-.3656.3209-.6036.391l.5354,1.6428h-.6194l-.4777-1.5748h-.5406l-.2466,1.5748h-.5668ZM345.8883,783.7068h.6352c.1889,0,.349-.0558.4803-.168.1313-.1119.2107-.2623.2388-.4514.0316-.1925,0-.3454-.0944-.4593-.0945-.1136-.2362-.1706-.4252-.1706h-.6352l-.1995,1.2493ZM349.545,785.7853l.6088-3.8315h1.2544c.3709,0,.6508.1048.8399.315.1889.2099.2553.4898.1993.8398-.0384.2344-.1216.4383-.2493.6114s-.2905.307-.4881.4015c-.1978.0945-.419.1418-.6639.1418h-.6928l-.2415,1.5221h-.5668ZM350.432,783.754h.6928c.1924,0,.3568-.0587.4934-.176.1364-.117.2204-.2737.2519-.4696s-.0017-.3525-.0997-.4699-.245-.1757-.441-.1757h-.6876l-.2099,1.2911ZM352.7466,785.7853l.6088-3.8315h2.2518l-.0787.5038h-1.6954l-.1731,1.0867h1.5115l-.0787.4986h-1.5115l-.1942,1.2387h1.6901l-.0787.5038h-2.2518ZM355.8434,785.7853l.6088-3.8315h1.202c.2379,0,.4391.0464.6036.139.1645.0928.2835.223.357.391s.091.3656.0524.5932c-.0384.2591-.14.4838-.3044.6746-.1645.1905-.3656.3209-.6036.391l.5354,1.6428h-.6194l-.4777-1.5748h-.5406l-.2466,1.5748h-.5668ZM356.7356,783.7068h.6352c.1889,0,.349-.0558.4803-.168.1313-.1119.2107-.2623.2388-.4514.0316-.1925,0-.3454-.0944-.4593-.0945-.1136-.2362-.1706-.4252-.1706h-.6352l-.1995,1.2493ZM360.1316,785.8377c-.385,0-.6736-.0951-.8661-.2859-.1924-.1908-.2641-.4505-.2151-.7794h.5668c-.028.1748.0105.3121.1155.4121.1051.0997.266.1495.483.1495.2029,0,.3701-.049.5012-.1469.1313-.098.2109-.2327.2389-.4044.0209-.1504.0007-.2788-.0604-.3856-.0614-.1068-.1583-.1811-.2913-.2233l-.4566-.1364c-.266-.0803-.4619-.217-.5879-.4095-.126-.1922-.1697-.4197-.1313-.6823.035-.2099.1121-.3935.2309-.551s.2729-.2799.4619-.3673.4024-.1313.6404-.1313c.3498,0,.6158.0954.7978.2859.182.1908.2485.4437.1995.7586h-.5668c.0279-.168-.0027-.3001-.092-.3964-.0891-.0963-.2301-.1444-.4225-.1444-.1889,0-.343.0447-.4619.1338-.119.0894-.1889.2144-.21.3753-.0245.1506-.007.2791.0525.3859s.1575.1811.2939.223l.4672.1469c.2624.0806.4558.2173.5801.4095.1242.1925.1653.4217.1233.6877-.035.217-.1155.4058-.2415.5667-.1259.1612-.2878.2862-.4855.3753-.1976.0894-.419.1338-.6639.1338ZM363.2651,785.8377c-.3568,0-.6228-.1005-.7978-.3019-.175-.201-.2345-.473-.1784-.8161l.2677-1.7006c.056-.3429.2029-.6148.4408-.8161.2379-.201.5355-.3019.8923-.3019s.6228.1.7979.2993c.1748.1993.2361.4707.1837.8136l-.2677,1.7057c-.0561.3431-.2039.6151-.4435.8161-.2398.2013-.5381.3019-.895.3019ZM363.3439,785.3339c.1925,0,.3483-.0524.4672-.1575.119-.1051.1942-.2571.2257-.4568l.2678-1.7006c.0315-.1993.0051-.3517-.0787-.4565-.084-.1051-.2223-.1575-.4148-.1575s-.3473.0524-.4645.1575c-.1173.1048-.1916.2571-.2231.4565l-.2677,1.7006c-.0315.1996-.0053.3517.0787.4568s.2204.1575.4094.1575ZM365.2754,785.7853l.6088-3.8315h.7086l.6194,3.186c.007-.098.0165-.217.0289-.3571.0121-.1398.0271-.2851.0446-.4354.0175-.1506.0367-.2888.0577-.4146l.315-1.9788h.525l-.609,3.8315h-.7085l-.6141-3.186c-.0071.0945-.0167.209-.0289.3437s-.0272.2757-.0446.4226c-.0177.1469-.0367.2833-.0578.4095l-.315,2.0102h-.5301ZM368.2252,785.7853l1.5851-3.8315h.7454l.3726,3.8315h-.5616l-.0735-.9711h-1.0865l-.3884.9711h-.5932ZM369.3852,784.3418h.8714l-.0893-1.1023c-.0175-.1959-.0298-.3654-.0367-.5089-.0071-.1435-.0105-.2432-.0105-.2993-.0175.0561-.0517.1558-.1024.2993s-.1146.3112-.1915.5038l-.441,1.1075ZM371.7208,785.7853l.6088-3.8315h.567l-.525,3.3118h1.6744l-.0787.5197h-2.2465ZM376.6785,785.8377c-.3673,0-.6342-.1005-.8003-.3019-.1663-.201-.2214-.475-.1654-.8213l.4357-2.7608h.567l-.4357,2.7554c-.0315.1962-.008.35.0708.4619.0787.1122.2144.168.4068.168.1925,0,.3473-.0558.4646-.168.1172-.1119.1915-.2657.2231-.4619l.4355-2.7554h.567l-.4357,2.7608c-.056.35-.2003.6245-.433.8241-.2328.1993-.5328.299-.9003.299ZM379.8435,785.8377c-.385,0-.6736-.0951-.8661-.2859-.1924-.1908-.2641-.4505-.2151-.7794h.5668c-.028.1748.0105.3121.1155.4121.1051.0997.266.1495.483.1495.2029,0,.3701-.049.5012-.1469.1313-.098.2109-.2327.2389-.4044.0209-.1504.0007-.2788-.0604-.3856-.0614-.1068-.1583-.1811-.2913-.2233l-.4566-.1364c-.266-.0803-.4619-.217-.5879-.4095-.126-.1922-.1697-.4197-.1313-.6823.035-.2099.1121-.3935.2309-.551s.2729-.2799.4619-.3673.4024-.1313.6404-.1313c.3498,0,.6158.0954.7978.2859.182.1908.2485.4437.1995.7586h-.5668c.0279-.168-.0027-.3001-.092-.3964-.0891-.0963-.2301-.1444-.4225-.1444-.1889,0-.343.0447-.4619.1338-.119.0894-.1889.2144-.21.3753-.0245.1506-.007.2791.0525.3859s.1575.1811.2939.223l.4672.1469c.2624.0806.4558.2173.5801.4095.1242.1925.1653.4217.1233.6877-.035.217-.1155.4058-.2415.5667-.1259.1612-.2878.2862-.4855.3753-.1976.0894-.419.1338-.6639.1338ZM381.9062,785.7853l.6088-3.8315h2.2518l-.0787.5038h-1.6954l-.1731,1.0867h1.5115l-.0787.4986h-1.5115l-.1942,1.2387h1.6901l-.0787.5038h-2.2518ZM386.9426,785.8377c-.3568,0-.6228-.1005-.7978-.3019-.175-.201-.2345-.473-.1784-.8161l.2677-1.7006c.056-.3429.2029-.6148.4408-.8161.2379-.201.5355-.3019.8923-.3019s.6228.1.7979.2993c.1748.1993.2361.4707.1837.8136l-.2677,1.7057c-.0561.3431-.2039.6151-.4435.8161-.2398.2013-.5381.3019-.895.3019ZM387.0213,785.3339c.1925,0,.3483-.0524.4672-.1575.119-.1051.1942-.2571.2257-.4568l.2678-1.7006c.0315-.1993.0051-.3517-.0787-.4565-.084-.1051-.2223-.1575-.4148-.1575s-.3473.0524-.4645.1575c-.1173.1048-.1916.2571-.2231.4565l-.2677,1.7006c-.0315.1996-.0053.3517.0787.4568s.2204.1575.4094.1575ZM388.9529,785.7853l.6088-3.8315h.7086l.6194,3.186c.007-.098.0165-.217.0289-.3571.0121-.1398.0271-.2851.0446-.4354.0175-.1506.0367-.2888.0577-.4146l.315-1.9788h.525l-.609,3.8315h-.7085l-.6141-3.186c-.0071.0945-.0167.209-.0289.3437s-.0272.2757-.0446.4226c-.0177.1469-.0367.2833-.0578.4095l-.315,2.0102h-.5301ZM392.249,785.7853l.6088-3.8315h.567l-.525,3.3118h1.6744l-.0787.5197h-2.2465ZM396.1174,785.7853l.2204-1.4119-.7506-2.4197h.5774l.4462,1.4486c.0279.0945.0498.1837.0656.2677.0157.084.0253.1469.0288.1888.0175-.0419.0464-.1048.0867-.1888.0402-.084.0883-.1731.1442-.2677l.8976-1.4486h.5984l-1.5275,2.4197-.2204,1.4119h-.5668ZM399.217,785.7853l.6088-3.8315h.7086l.6192,3.186c.0071-.098.0165-.217.029-.3571.012-.1398.0271-.2851.0444-.4354.0177-.1506.037-.2888.0578-.4146l.315-1.9788h.5248l-.6088,3.8315h-.7085l-.6141-3.186c-.0071.0945-.0167.209-.0289.3437s-.0272.2757-.0446.4226c-.0177.1469-.0367.2833-.0578.4095l-.315,2.0102h-.5301ZM403.5053,785.8377c-.3571,0-.6231-.1005-.7979-.3019-.1751-.201-.2344-.473-.1785-.8161l.2677-1.7006c.0561-.3429.203-.6148.4411-.8161.2378-.201.5354-.3019.8922-.3019.3571,0,.6228.1.7979.2993.1748.1993.2361.4707.1837.8136l-.2677,1.7057c-.0561.3431-.2039.6151-.4437.8161-.2395.2013-.5379.3019-.8947.3019ZM403.5839,785.3339c.1925,0,.3483-.0524.4673-.1575.1187-.1051.1942-.2571.2255-.4568l.2677-1.7006c.0316-.1993.0054-.3517-.0786-.4565-.084-.1051-.2224-.1575-.4146-.1575-.1925,0-.3474.0524-.4647.1575-.117.1048-.1914.2571-.223.4565l-.2677,1.7006c-.0316.1996-.0051.3517.0789.4568.0837.1051.2204.1575.4092.1575ZM406.3814,785.7853l.5248-3.3121h-1.0234l.084-.5194h2.6193l-.084.5194h-1.0289l-.5248,3.3121h-.567ZM409.5178,785.7853l.6088-3.8315h2.32l-.084.5194h-1.7636l-.1837,1.1445h1.6272l-.084.5248h-1.6166l-.2571,1.6428h-.567ZM413.7694,785.8377c-.3571,0-.6231-.1005-.7979-.3019-.1751-.201-.2344-.473-.1785-.8161l.2677-1.7006c.0561-.3429.203-.6148.4411-.8161.2378-.201.5354-.3019.8922-.3019.3571,0,.6228.1.7979.2993.1748.1993.2361.4707.1837.8136l-.2677,1.7057c-.0561.3431-.2039.6151-.4437.8161-.2395.2013-.5379.3019-.8947.3019ZM413.848,785.3339c.1925,0,.3483-.0524.4673-.1575.1187-.1051.1942-.2571.2255-.4568l.2677-1.7006c.0316-.1993.0054-.3517-.0786-.4565-.084-.1051-.2224-.1575-.4146-.1575-.1925,0-.3474.0524-.4647.1575-.117.1048-.1914.2571-.223.4565l-.2677,1.7006c-.0316.1996-.0051.3517.0789.4568.0837.1051.2204.1575.4092.1575ZM415.7952,785.7853l.6088-3.8315h1.202c.2381,0,.4391.0464.6037.139.1643.0928.2833.223.3568.391s.0911.3656.0527.5932c-.0387.2591-.1401.4838-.3044.6746-.1646.1905-.3659.3209-.6037.391l.5354,1.6428h-.6194l-.4776-1.5748h-.5408l-.2466,1.5748h-.567ZM416.6876,783.7068h.635c.1891,0,.3491-.0558.4804-.168.131-.1119.2107-.2623.2386-.4514.0316-.1925,0-.3454-.0945-.4593-.0943-.1136-.2361-.1706-.4252-.1706h-.635l-.1993,1.2493ZM420.905,785.8377c-.3602,0-.6308-.1005-.8107-.3019-.1803-.201-.2423-.473-.1865-.8161l.2677-1.7006c.0561-.3463.2056-.6194.4488-.8187s.545-.2993.9056-.2993c.3568,0,.6253.1008.8056.3019.1803.2013.2423.4733.1865.8161h-.567c.0313-.1993.0026-.3517-.0866-.4565-.0894-.1051-.2284-.1575-.4175-.1575-.1925,0-.3508.0524-.475.1575-.1242.1048-.2019.2554-.2335.4514l-.2677,1.7057c-.0316.1996-.0026.3517.0866.4568.0894.1051.2301.1575.4226.1575s.35-.0524.4724-.1575.1993-.2571.2309-.4568h.5667c-.0347.2275-.1145.4252-.2386.5932s-.2808.2976-.4699.3884c-.1888.0908-.4024.1364-.6404.1364ZM424.0335,785.8377c-.3571,0-.6231-.1005-.7979-.3019-.1751-.201-.2344-.473-.1785-.8161l.2677-1.7006c.0561-.3429.203-.6148.4411-.8161.2378-.201.5354-.3019.8922-.3019.3571,0,.6228.1.7979.2993.1748.1993.2361.4707.1837.8136l-.2677,1.7057c-.0561.3431-.2039.6151-.4437.8161-.2395.2013-.5379.3019-.8947.3019ZM424.1121,785.3339c.1925,0,.3483-.0524.4673-.1575.1187-.1051.1942-.2571.2255-.4568l.2677-1.7006c.0316-.1993.0054-.3517-.0786-.4565-.084-.1051-.2224-.1575-.4146-.1575-.1925,0-.3474.0524-.4647.1575-.117.1048-.1914.2571-.223.4565l-.2677,1.7006c-.0316.1996-.0051.3517.0789.4568.0837.1051.2204.1575.4092.1575ZM425.9653,785.7853l.6088-3.8315h.6874l.1837,1.2282c.0211.119.0367.2301.0473.3332.0105.1034.0194.1828.0262.2389.0177-.0561.0473-.1364.0894-.2415.0419-.1051.0908-.217.1469-.336l.5667-1.2228h.7088l-.6088,3.8315h-.5354l.2045-1.2911c.0245-.168.0578-.3525.1-.5539.0419-.201.0874-.4041.1364-.6088s.0963-.3998.1418-.5852c.0453-.1854.0874-.3483.1259-.4881l-.8554,1.8632h-.5513l-.2833-1.8632c-.0037.1364-.0105.2947-.0211.475s-.0236.3719-.0393.5747c-.0157.203-.035.4069-.0578.6114-.0228.2047-.0481.3964-.076.5749l-.2047,1.2911h-.5405ZM429.1145,785.7853l.6088-3.8315h.6874l.1837,1.2282c.0211.119.0367.2301.0473.3332.0105.1034.0194.1828.0262.2389.0177-.0561.0473-.1364.0894-.2415.0419-.1051.0908-.217.1469-.336l.5667-1.2228h.7088l-.6088,3.8315h-.5354l.2045-1.2911c.0245-.168.0578-.3525.1-.5539.0419-.201.0874-.4041.1364-.6088s.0963-.3998.1418-.5852c.0453-.1854.0874-.3483.1259-.4881l-.8554,1.8632h-.5513l-.2833-1.8632c-.0037.1364-.0105.2947-.0211.475s-.0236.3719-.0393.5747c-.0157.203-.035.4069-.0578.6114-.0228.2047-.0481.3964-.076.5749l-.2047,1.2911h-.5405ZM432.4107,785.7853l.6088-3.8315h2.2516l-.0786.5038h-1.6955l-.1731,1.0867h1.5115l-.0786.4986h-1.5118l-.1942,1.2387h1.6901l-.0786.5038h-2.2516ZM435.5073,785.7853l.6088-3.8315h1.202c.2381,0,.4391.0464.6037.139.1643.0928.2833.223.3568.391s.0911.3656.0527.5932c-.0387.2591-.1401.4838-.3044.6746-.1646.1905-.3659.3209-.6037.391l.5354,1.6428h-.6194l-.4776-1.5748h-.5408l-.2466,1.5748h-.567ZM436.3997,783.7068h.635c.1891,0,.3491-.0558.4804-.168.131-.1119.2107-.2623.2386-.4514.0316-.1925,0-.3454-.0945-.4593-.0943-.1136-.2361-.1706-.4252-.1706h-.635l-.1993,1.2493ZM439.8007,785.8377c-.3602,0-.6308-.1005-.8107-.3019-.1803-.201-.2423-.473-.1865-.8161l.2677-1.7006c.0561-.3463.2056-.6194.4488-.8187s.545-.2993.9056-.2993c.3568,0,.6253.1008.8056.3019.1803.2013.2423.4733.1865.8161h-.567c.0313-.1993.0026-.3517-.0866-.4565-.0894-.1051-.2284-.1575-.4175-.1575-.1925,0-.3508.0524-.475.1575-.1242.1048-.2019.2554-.2335.4514l-.2677,1.7057c-.0316.1996-.0026.3517.0866.4568.0894.1051.2301.1575.4226.1575s.35-.0524.4724-.1575.1993-.2571.2309-.4568h.5667c-.0347.2275-.1145.4252-.2386.5932s-.2808.2976-.4699.3884c-.1888.0908-.4024.1364-.6404.1364ZM441.8792,785.7853l.0789-.5038h.7768l.4459-2.824h-.7766l.0837-.5038h2.1258l-.084.5038h-.7766l-.4462,2.824h.7768l-.0789.5038h-2.1258ZM444.7399,785.7853l1.585-3.8315h.7452l.3728,3.8315h-.5616l-.0735-.9711h-1.0867l-.3884.9711h-.5929ZM445.8998,784.3418h.8714l-.0894-1.1023c-.0174-.1959-.0296-.3654-.0367-.5089-.0068-.1435-.0103-.2432-.0103-.2993-.0177.0561-.0518.1558-.1025.2993s-.1148.3112-.1916.5038l-.4408,1.1075ZM448.2354,785.7853l.6088-3.8315h.567l-.5248,3.3118h1.6741l-.0786.5197h-2.2465ZM453.1932,785.8377c-.3676,0-.6345-.1005-.8005-.3019-.1663-.201-.2213-.475-.1654-.8213l.4357-2.7608h.567l-.4357,2.7554c-.0316.1962-.008.35.0709.4619.0786.1122.2141.168.4066.168s.3474-.0558.4645-.168c.1173-.1119.1916-.2657.2233-.4619l.4357-2.7554h.5667l-.4357,2.7608c-.0558.35-.2002.6245-.4328.8241-.2329.1993-.5328.299-.9001.299ZM456.3581,785.8377c-.385,0-.6738-.0951-.866-.2859-.1925-.1908-.2643-.4505-.2153-.7794h.567c-.0282.1748.0105.3121.1153.4121.1051.0997.266.1495.483.1495.2028,0,.3699-.049.5012-.1469s.2107-.2327.2389-.4044c.0211-.1504.0009-.2788-.0604-.3856s-.1583-.1811-.2913-.2233l-.4568-.1364c-.266-.0803-.4619-.217-.5878-.4095-.1259-.1922-.1697-.4197-.1313-.6823.035-.2099.1119-.3935.2309-.551s.2731-.2799.4619-.3673c.1891-.0874.4024-.1313.6404-.1313.3497,0,.6157.0954.7979.2859.1817.1908.2483.4437.1993.7586h-.567c.0279-.168-.0026-.3001-.0917-.3964-.0894-.0963-.2301-.1444-.4226-.1444-.1891,0-.3429.0447-.4619.1338-.119.0894-.1891.2144-.2099.3753-.0245.1506-.0071.2791.0524.3859s.1575.1811.2939.223l.4673.1469c.2623.0806.4556.2173.5798.4095.1242.1925.1654.4217.1236.6877-.035.217-.1156.4058-.2415.5667-.1262.1612-.2879.2862-.4855.3753-.1979.0894-.4192.1338-.6641.1338ZM458.4209,785.7853l.6088-3.8315h2.2516l-.0786.5038h-1.6955l-.1731,1.0867h1.5115l-.0786.4986h-1.5118l-.1942,1.2387h1.6901l-.0786.5038h-2.2516Z" style="fill: #ccc;"/>
  <g>
    <path id="Path" d="M400,750c193.3086,0,350-156.6793,350-350S593.2965,50,400,50,50,206.7035,50,400s156.7035,350,350,350Z" style="fill: #005397;"/>
    <path id="Shape" d="M72.1043,400c0,180.8052,147.0965,327.8896,327.8897,327.8896s327.9138-147.0724,327.9138-327.8896S580.8112,72.1104,400.0061,72.1104,72.1164,219.2069,72.1164,400h-.0121ZM81.7332,400c0-175.4948,142.7759-318.2707,318.2707-318.2707s318.2828,142.7759,318.2828,318.2707-142.7879,318.2707-318.2828,318.2707S81.7332,575.4948,81.7332,400Z" style="fill: #fff;"/>
    <polygon id="Path1" data-name="Path" points="183.4224 472.5103 183.3259 472.4862 171.9931 469.5535 205.4121 446.1517 200.5603 425.9362 151.5072 462.2759 151.3443 462.2397 105.1914 451.6431 109.8343 470.9172 152.2628 479.1966 152.4028 480.0052 114.2443 489.1776 118.5228 507.1483 214.5241 484.0362 210.2397 466.0776 183.4224 472.5103" style="fill: #fff;"/>
    <polygon id="Path2" data-name="Path" points="199.8724 421.4948 198.2431 403.1138 99.9028 411.8638 101.5429 430.269 199.8724 421.4948" style="fill: #fff;"/>
    <polygon id="Path3" data-name="Path" points="197.9052 398.7931 202.3103 353.0879 184.1948 351.2897 181.6241 378.6138 158.2828 376.2965 160.8872 350.1672 142.7814 348.369 140.1914 374.4862 119.6572 372.4707 122.4186 344.5793 104.46 341.9603 99.7072 389.0293 197.9052 398.7931" style="fill: #fff;"/>
    <polygon id="Path4" data-name="Path" points="193.7535 324.7621 119.4328 294.6741 112.51 311.7879 204.0362 348.8276 220.7276 307.769 203.831 300.9259 194.0914 324.9069 193.7535 324.7621" style="fill: #fff;"/>
    <polygon id="Path5" data-name="Path" points="234.0035 255.0879 218.181 277.8017 198.8345 264.5741 213.6672 242.8983 198.6535 232.6276 183.8086 254.2914 166.76 242.6207 182.5897 219.5328 168.09 208.5621 141.3186 247.5569 222.7552 303.3276 249.0293 265.3707 234.0035 255.0879" style="fill: #fff;"/>
    <path id="Shape1" data-name="Shape" d="M279.5638,238.1672l15.4386-12.7629-.4278-.5133c-3.0567.6222-5.0089-.8556-17.5772-15.5557-9.0144-10.5467-15.2286-16.5357-25.4257-10.6867l-.2567.1478-.5756-.6378.1633-.2411c5.3277-7.9411,3.8033-16.52-4.8144-26.9971-3.8889-4.7367-10.1967-10.5311-17.9671-11.27-5.0867-.4667-10.1111,1.2989-14.9028,5.2811l-24.5386,20.65,64.2214,75.9729,13.4328-11.7289-26.7714-31.8886,5.9267-4.8844c5.11-4.2077,9.2089-1.9289,19.9572,11.0677,7.0544,8.5244,10.8889,12.39,14.1171,14.047ZM234.4524,201.76l-4.8689,4.0289-16.6914-20.2228,4.7677-3.9511c5.4444-4.4567,10.5777-3.3677,16.1857,3.4144,7.8244,9.5277,2.4344,15.2129.5911,16.73h.0156l.0002.0006Z" style="fill: #fff;"/>
    <path id="Path6" data-name="Path" d="M331.919,213.0517c16.9328-7.5133,21-20.4943,12.5228-39.6671-7.9177-17.9429-20.09-18.2543-30.8314-18.5271-8.1433-.21-15.8357-.4044-19.5686-8.8667-1.6956-3.8033-2.0767-7-1.1356-9.4111.7348-1.8093,2.18-3.2376,3.9977-3.9511,2.7223-1.2133,4.9777-.9333,7.1011.8789,1.8433,1.4933,3.6323,4.27,5.6389,8.7111l16.2328-7.1867-.7778-1.8277c-3.2977-7.4511-7.6611-12.5457-12.9657-15.1357-5.9967-2.9323-13.1829-2.59-21.3428,1.0189-21,9.2477-16.8072,27.2228-12.4443,37.0614,8.4311,19.0714,20.6572,19.3128,31.4372,19.5071,8.0267.1478,15.6172.28,19.4443,8.9677,1.2523,2.8311,2.4577,6.93,1.1122,10.3989-.8157,2.0232-2.4314,3.6192-4.4644,4.41-2.9323,1.3067-5.6156,1.0267-7.9723-.8244-1.9444-1.5556-3.7333-4.1767-5.4444-8.0733l-1.26-2.8311-16.2714,7.14,2.4189,5.5377c6.9923,15.6872,18.2857,19.8329,34.5727,12.67v.0004Z" style="fill: #fff;"/>
    <polygon id="Path7" data-name="Path" points="385.4448 97.7243 384.1052 176 383.2724 176.1448 383.1879 175.819 365.181 99.9414 345.4965 102.9357 374.0397 199.1121 397.731 196.481 404.9121 97.1414 385.4448 97.7243" style="fill: #fff;"/>
    <polygon id="Path8" data-name="Path" points="445.138 202.5397 455.7586 162.2957 471.2552 166.4957 459.7896 206.6914 477.4104 212.3034 504.2759 116.9743 486.4379 111.5529 476.1914 148.0929 460.6707 143.9328 460.7552 143.5743 470.0965 107.4 452.1017 103.2 427.3121 198.5207 445.138 202.5397" style="fill: #fff;"/>
    <path id="Shape2" data-name="Shape" d="M551.3207,138.4414c-10.2123-5.9189-18.8614-5.8644-27.2228.1633-8.3611,6.0277-16.0529,18.0443-22.9986,30.0529-17.0486,29.4543-21.9257,46.5971-1.2367,58.59,22.6643,13.0972,35.63-5.0944,50.2214-30.2243,6.5177-11.2389,13.0043-23.0614,14.4972-33.25,1.6489-11.1067-2.5744-19.1414-13.2614-25.3328l.0009.0008ZM533.5177,187.4414c-11.5967,20.02-17.1114,28-22.6257,28-1.2926-.0369-2.5519-.4182-3.6477-1.1044-6.7589-3.9277-3.5-12.0323,10.4223-36.0572,13.9227-24.0257,19.3429-30.9086,26.0943-26.9886,1.599.8109,2.7883,2.2509,3.2823,3.9744,1.3845,5.1256-3.0567,14.0628-13.5257,32.1529v.0233l.0002-.0004Z" style="fill: #fff;"/>
    <polygon id="Path9" data-name="Path" points="604.9673 180.6707 591.5707 168.0043 523.7552 239.7121 556.631 270.4155 569.1586 257.1879 549.6552 239.169 549.9207 238.9035 604.9673 180.6707" style="fill: #fff;"/>
    <path id="Path10" data-name="Path" d="M659.9776,260.2776c2.0377-6.3623.6611-13.4171-4.0833-21-4.3011-6.8444-9.5977-11.0289-15.7428-12.4443-6.7433-1.5556-14.6071.3578-22.7029,5.4444-17.7257,11.1223-16.1772,23.2557-14.8171,33.9572,1.0578,8.3067,1.9677,15.4772-6.0667,20.5173-3.6789,2.3333-7.2723,3.2667-10.1111,2.6211-2.1256-.5148-3.9456-1.8819-5.0323-3.78-4.1377-6.6189,1.9367-11.5033,6.8677-14.6071l2.6523-1.6644-9.4656-15.0186-5.1023,3.2044c-14.5129,9.1233-16.9786,20.8986-7.5367,35.9957,9.8389,15.6414,23.263,17.8186,41.0586,6.6656,16.6057-10.43,15.1586-22.5171,13.8829-33.18-.9722-8.0889-1.89-15.7343,5.9656-20.65,3.5077-2.2323,6.5877-3.0644,9.1311-2.5044,1.8978.4614,3.523,1.6817,4.4956,3.3756,1.5944,2.5744,1.6333,4.8456.14,7.1711-1.2289,2.0611-3.71,4.2544-7.7777,6.8523l9.4188,15.0971,1.6877-1.0656c6.9144-4.3167,11.34-9.3644,13.1371-14.9872h.001Z" style="fill: #fff;"/>
    <polygon id="Path11" data-name="Path" points="668.619 314.6724 674.231 330.869 691.4534 324.9431 674.231 275.1103 657.0328 281.0241 662.5965 297.2328 662.2586 297.3535 586.4897 323.519 592.5121 340.9586 668.619 314.6724" style="fill: #fff;"/>
    <polygon id="Path12" data-name="Path" points="678.7086 362.1638 678.7448 362.5259 681.2552 390.031 699.4311 389.2465 695.1828 342.1293 596.869 351.0362 601.1173 397.5017 619.281 395.8603 616.6621 367.7638 617.0362 367.7397 639.9793 365.6397 640.0155 366.0017 642.4052 391.8293 660.4965 390.1759 658.1552 364.0224 678.7086 362.1638" style="fill: #fff;"/>
    <polygon id="Path13" data-name="Path" points="698.5379 429.4603 700.1431 411.1155 601.8052 402.4983 600.188 420.9155 698.5379 429.4603" style="fill: #fff;"/>
    <path id="Path14" data-name="Path" d="M191.5569,521.4621c-2.0103-3.4373-5.3172-5.923-9.1777-6.8989-1.2447-.3233-2.5252-.488-3.8111-.49-6.8604.0248-12.8474,4.6584-14.5914,11.2933-1.5564,5.9263.6276,12.2053,5.5258,15.8864s11.5367,4.0331,16.7964.8902c7.1581-4.2588,9.5116-13.5124,5.2577-20.6729v-.0078l.0003-.0003Z" style="fill: #fff;"/>
    <path id="Path15" data-name="Path" d="M629.8052,516.5862c-2.3325-1.4094-5.0058-2.1544-7.7311-2.1544-1.2614.0018-2.5178.1586-3.7411.4667-5.9096,1.4922-10.3411,6.3932-11.2326,12.4226-.8915,6.0296,1.9321,12.0032,7.157,15.1417,7.163,4.2713,16.4307,1.9613,20.7514-5.1723,2.0549-3.4345,2.6611-7.5447,1.6853-11.4261-.9759-3.8815-3.4538-7.2163-6.8886-9.2705v-.0078h-.0003Z" style="fill: #fff;"/>
    <path id="Path16" data-name="Path" d="M413.6259,182.8552c-.9862-.6498-2.1402-.9984-3.3211-1.0034-.5253-.003-1.0485.065-1.5556.2023-1.8726.5359-3.4248,1.8503-4.2623,3.6089-1.8356,3.71-.7156,8.4389,2.4967,10.5389,1.42.9553,3.1828,1.2529,4.8377.8167,1.8819-.5361,3.4463-1.8487,4.3011-3.6089,1.8744-3.7333.7467-8.47-2.4966-10.5544Z" style="fill: #fff;"/>
    <path id="Path17" data-name="Path" d="M363.1172,188.3466c-.9725-.6551-2.1175-1.007-3.29-1.0111-.5041-.0005-1.0061.0649-1.4933.1944-1.8847.5462-3.4535,1.8583-4.3244,3.6167-1.8356,3.7023-.7233,8.4311,2.4811,10.5544,1.4374.9577,3.2207,1.2417,4.8844.7778,1.859-.5429,3.3981-1.8528,4.2311-3.6011,1.8667-3.6944.7544-8.4233-2.489-10.5311Z" style="fill: #fff;"/>
    <polygon id="Path18" data-name="Path" points="200.9345 595.1552 200.3069 594.6 200.5121 594.3224 247.2552 532.9035 233.1345 519.0483 176.6397 601.9621 193.6448 618.6535 275.919 561.0724 261.8103 547.1931 200.9345 595.1552" style="fill: #fff;"/>
    <path id="Shape3" data-name="Shape" d="M298.319,572.7914c-20.4871-12.3429-33.1643.2022-50.7427,29.3614-7.1711,11.8844-14,24.3057-15.2443,34.65-1.2523,10.22,2.87,17.8114,12.9814,23.9086,10.6011,6.3777,19.6929,6.1833,28.6227-.5911,8.1977-6.2223,15.1429-17.1572,22.1273-28.7772,14.9957-24.9043,24.6871-45.0414,2.2556-58.5514v-.0003ZM292.9834,596.3886c-1.8744,5.6233-6.4867,13.7671-13.3157,25.0829-6.8289,11.3167-11.8923,19.2186-15.96,23.5273-2.6133,2.7377-4.8923,4.06-7.1477,4.06-1.2909-.0312-2.548-.4188-3.6323-1.12-1.5333-.8067-2.6607-2.216-3.1111-3.8889-1.2833-5.1489,3.3211-14,14.1243-31.99,14.35-23.8072,19.88-30.5828,26.5843-26.5614,3.57,2.1,4.3011,5.3667,2.4577,10.8889l.0005.0012Z" style="fill: #fff;"/>
    <polygon id="Path19" data-name="Path" points="358.8569 598.8121 342.5276 660.9069 341.6707 660.7379 341.6827 660.4362 342.7569 594.3707 322.6741 588.5535 295.6638 683.8862 312.9828 688.4362 330.3017 622.1535 331.1466 622.3224 330.0724 692.8897 350.4207 698.2121 375.3672 602.6983 358.8569 598.8121" style="fill: #fff;"/>
    <polygon id="Path20" data-name="Path" points="689.5586 474.2603 694.9655 453.9362 599.5603 428.6035 595.5897 445.0897 657.6121 461.6724 657.4311 462.5293 657.1293 462.5293 591.1 461.1776 585.1983 481.2362 680.4104 508.6207 685.0328 491.3259 618.8224 473.7414 618.9793 472.8966 689.5586 474.2603" style="fill: #fff;"/>
    <path id="Path21" data-name="Path" d="M396.681,618.5569l-2.0223.1167.6844,14,15.5086-.7778,3.3211,68.3272,18.4414-.9022-4.7444-97.7671-12.8329.6456c-1.0422,10.1733-7.4044,15.8273-18.3557,16.3571l-.0003.0006Z" style="fill: #fff;"/>
    <path id="Shape4" data-name="Shape" d="M479.4983,692.25c25.2157-5.95,22.5557-25.5428,15.0814-57.0971-4.5967-19.7014-9.2323-33.0171-18.1227-38.5314-4.8611-3.01-10.8889-3.6167-18.433-1.8355-9.5744,2.24-15.4628,7.1244-17.9972,14.9172-2.0767,6.4089-1.8512,14.7772.7078,25.6671,2.45,10.4844,5.8023,17.57,10.2277,21.653,4.0912,3.7723,9.0689,4.9,15.2286,3.4612,6.7744-1.5556,10.7411-5.4444,11.7833-11.3944l.0467-.2333.7778-.2255.0855.3811c3.8111,16.2328,4.3867,23.2327,2.2011,26.74-.9213,1.4087-2.3859,2.372-4.0444,2.66-2.1059.5636-4.3401-.2431-5.6-2.0223-1.1589-1.4544-2.0533-3.6167-2.7377-6.5877l-17.3286,4.0523c4.0444,15.6329,13.5028,21.84,28.1243,18.3943l-.0005.0012ZM475.446,639.3071c-.7306,1.3462-1.9819,2.3332-3.4612,2.73-.7206.2239-1.4699.3418-2.2244.35-1.9523,0-3.57-.9256-4.9933-2.8389-1.68-2.2477-3.1656-5.8411-5.1177-12.3828-3.4533-11.7523-2.8-17.4071,2.1777-18.9,6.2844-1.8512,9.7533,6.72,12.5928,16.2472,2.2556,7.4044,2.5823,11.97,1.0267,14.7929l-.0005.0015Z" style="fill: #fff;"/>
    <path id="Shape5" data-name="Shape" d="M505.4465,630.2276c9.0223,17.0172,17.3829,31.3672,28.4043,34.7357,5.3823,1.6489,11.3244.6689,18.1686-2.9867,21.28-11.3089,12.4443-32.2386-.2645-56.4043-11.06-20.7671-20.1214-35.4272-33.8173-35.4272-3.8889,0-8.0811,1.1667-12.8257,3.6867-21.2486,11.2856-12.4214,32.2386.3344,56.3971v-.0012ZM509.6077,588.9119c.4645-1.3862,1.4885-2.5146,2.8233-3.1111,3.1967-1.6411,5.88-.5522,9.2556,3.7644,3.4688,4.4411,7.7777,12.4443,14.1086,24.7643,6.2223,12.2029,10.1111,20.3229,11.6667,25.7129,1.5089,5.2577.8244,8.0577-2.3333,9.6833-.8288.4536-1.7543.7017-2.6989.7233-4.9156,0-9.6677-7.7777-20.5027-29.0186-9.9244-19.2657-13.7743-28.047-12.32-32.5186h.0007Z" style="fill: #fff;"/>
    <path id="a" d="M570.3776,535.8362c-2.6828-1.1947-5.5802-1.8323-8.5167-1.8745-5.5923,0-10.9356,2.5823-16.3728,7.84-17.3672,16.73-3.1111,34.4171,15.82,54.1329,13.3543,13.8443,25.3472,25.3327,36.89,25.5343h.3189c5.5144,0,10.8889-2.5744,16.3329-7.8711,17.2827-16.7143,3.0644-34.4086-15.82-54.1414-11.5423-11.9623-20.37-20.0828-28.6529-23.6214l.0006.0011ZM604.8176,603.7748c-.9842,1.0176-2.3262,1.6118-3.7411,1.6567-4.62,0-11.3789-6.44-26.3743-22.4772-14.7772-15.8357-20.9372-23.2086-20.7743-27.8914.0734-1.4549.7499-2.8135,1.8667-3.7489,2.6367-2.4577,5.5223-2.1467,9.9477,1.0655,4.5577,3.3211,10.8889,9.8233,20.3471,19.9428,19.25,20.5643,23.7143,26.7871,18.7286,31.4529l-.0005-.0005Z" style="fill: #fff;"/>
    <path d="M400,220.9569c-98.7229,0-179.0431,80.3214-179.0431,179.0552s80.3129,179.019,179.0431,179.019,179.0431-80.3057,179.0431-179.031-80.3129-179.0431-179.0431-179.0431ZM400,230.8891c49.2559-.0171,96.0617,21.484,128.1362,58.8628l-7.2877-.5756c-.6144-.0467-61.6229-4.8533-120.8466-4.8533s-120.2371,4.8067-120.8466,4.8533l-7.2877.5756c32.0757-37.3764,78.8779-58.8772,128.1362-58.8628h-.0039ZM230.8776,399.9994c-.0358-39.7479,13.994-78.2274,39.6043-108.6243l.07,9.5044c.3189,47.6543.5756,85.2986,18.4643,136.9466,11.2777,32.55,26.2271,56.7772,53.3243,86.3329,21,22.96,38.6086,34.6573,53.0214,43.0657l3.1577,1.8355c-92.5714-.77-167.6379-76.3-167.6379-169.0621l-.0041.0012ZM401.4724,569.0856l3.1889-1.8588c13.3314-7.7777,31.3986-19.7014,52.99-43.0343,26.6-28.7772,42.0627-53.7757,53.3629-86.38,17.8886-51.6371,18.13-89.2729,18.4571-136.8862l.0622-9.5277c25.5959,30.3981,39.614,68.8703,39.5729,108.6086,0,92.75-75.0557,168.2776-167.6379,169.0862l.0039-.0077Z" style="fill: #fff;"/>
    <path id="Path22" data-name="Path" d="M400,293.8655c-59.5471,0-120.12,4.8223-120.12,4.8223.3267,48.3157.3189,85.0814,17.9429,135.9569,11.5811,33.4443,27.0586,56.4972,51.3329,83.02,20.3072,22.1671,37.4114,33.4443,50.8357,41.2928,13.4171-7.8245,30.4186-19.2271,50.8357-41.2928,23.8543-25.7829,39.76-49.607,51.3329-83.02,17.6171-50.8743,17.6171-87.64,17.9586-135.9569,0,0-60.5729-4.8223-120.12-4.8223h.0012Z" style="fill: #e20031;"/>
    <polygon id="Path23" data-name="Path" points="400.0724 545.769 370.3104 523.1517 391.2621 485.1948 338.0379 499.1827 366.219 461.0931 317.7017 467.4655 352.0138 431.5966 301.0345 430.0517 339.1603 400.3621 289.8465 391.6362 335.0086 365.9896 290.6069 346.8121 290.2207 308.481 326.7655 306.1638 345.2672 356.2138 363.95 304.4379 381.8241 353.8362 400.1448 302.9534 418.4534 353.8362 436.3155 304.4379 454.9983 356.2138 473.5 306.1638 510.0569 308.481 509.4535 346.8121 465.2569 365.9896 510.4189 391.6362 461.1172 400.3621 499.231 430.0517 448.2638 431.5966 482.5638 467.4655 434.0465 461.0931 462.2276 499.1827 409.0035 485.1948 429.9672 523.1517 400.0724 545.769" style="fill: #fff;"/>
    <path id="Path24" data-name="Path" d="M458.6431,369.2965l-7.7777.0389c0,3.1967-1.1667,5.9033-2.6211,8.5556-3.7489,5.0011-9.2089,9.1233-14.1629,10.8423v-9.0456h-6.2223l.0622,12.1957c-3.2277,1.0111-6.4323,2.1311-9.7689,2.9711v7.28c13.6331-3.2382,26.1004-10.1924,36.0186-20.09-3.4767,30.5586-25.4172,53.5971-54.0943,53.7528-28.6614-.1556-50.3071-23.5586-54.0714-53.7286,9.8596,9.8343,22.2383,16.7614,35.7772,20.02v-7.2333l-10.1111-3.0644s-.1867-11.8689-.0467-12.1028h-6.1756v9.2244c-7.5677-3.3989-16.4029-10.6323-16.8772-19.8486h-7.7777c-1.61,28,11.2623,55.8914,37.2014,67.62,15.6028,7.5677,37.6528,5.1644,51.7928-4.2156,21.4827-14.7386,30.5357-37.6757,28.8557-63.1714l-.001-.0005Z" style="fill: #58585a;"/>
    <path id="Path25" data-name="Path" d="M400.0483,417.7172c15.3457.0055,30.3547-4.5005,43.1586-12.9573,2.0658-3.8941,3.7086-7.9982,4.9-12.2428-28.4079,21.344-67.4884,21.3983-95.9543.1322,1.2464,4.2857,2.9464,8.4261,5.0711,12.3514,12.7376,8.3071,27.6174,12.7255,42.8243,12.7171l.0003-.0006Z" style="fill: #58585a;"/>
    <path id="b" d="M400.0483,422.4483c-13.1841.0018-26.1547-3.3291-37.7071-9.6833,9.2089,11.7989,22.5557,18.9471,37.7071,19.0328,15.4772-.0856,28.9957-7.3423,38.1814-19.3128-11.6654,6.5321-24.8114,9.9625-38.1814,9.9633Z" style="fill: #58585a;"/>
    <path d="M400.0483,404.2724c4.2648-.022,8.5206-.394,12.7243-1.1122v-7.6767c-8.5631,1.0811-17.2284,1.0811-25.7914,0v7.6689c4.3163.7398,8.6874,1.1145,13.0671,1.1201Z" style="fill: #58585a;"/>
  </g>
</svg>