<?xml version="1.0" encoding="utf-8"?>
<!-- Created by @FCLOGO 2024-9-14 GMT+8 22:08:22 . https://fclogo.top/ -->
<!-- FOR PERSONAL USE ONLY NOT FOR COMMERCIAL USE -->
<!-- Created by @FCLOGO 2024-9-14 GMT+8 22:08:22 . https://fclogo.top/ -->
<!-- FOR PERSONAL USE ONLY NOT FOR COMMERCIAL USE -->
<svg version="1.1" xmlns="http://www.w3.org/2000/svg" xmlns:xlink="http://www.w3.org/1999/xlink" x="0px" y="0px"
	 viewBox="0 0 800 800" style="enable-background:new 0 0 800 800;" xml:space="preserve">
<path style="fill:#CCCCCC;" d="M348.22,774.3c-0.79,0-1.38-0.22-1.77-0.65c-0.39-0.44-0.53-1.03-0.41-1.79l0.25-1.65
	c0.12-0.75,0.45-1.35,0.98-1.78c0.53-0.44,1.19-0.65,1.98-0.65c0.76,0,1.33,0.2,1.72,0.6c0.39,0.4,0.55,0.94,0.47,1.62h-1.24
	c0.03-0.36-0.06-0.64-0.26-0.84c-0.2-0.2-0.5-0.3-0.89-0.3c-0.42,0-0.76,0.12-1.03,0.35c-0.27,0.23-0.43,0.56-0.5,0.99l-0.26,1.66
	c-0.07,0.44-0.01,0.77,0.19,1c0.19,0.23,0.5,0.35,0.92,0.35c0.39,0,0.72-0.1,0.98-0.3c0.26-0.2,0.44-0.48,0.52-0.85h1.24
	c-0.14,0.69-0.47,1.23-0.99,1.63C349.61,774.1,348.97,774.3,348.22,774.3z M352.8,774.19l1-6.29h1.19l-0.19,1.19
	c0.34-0.87,0.97-1.3,1.91-1.3c0.67,0,1.17,0.21,1.49,0.62c0.32,0.42,0.43,0.99,0.31,1.71l-0.07,0.42h-1.27l0.06-0.32
	c0.07-0.45,0.01-0.8-0.17-1.04c-0.18-0.24-0.48-0.36-0.88-0.36c-0.4,0-0.74,0.12-1.01,0.37c-0.27,0.24-0.43,0.59-0.5,1.03
	l-0.63,3.97H352.8z M361.91,774.3c-0.77,0-1.35-0.22-1.73-0.67c-0.38-0.45-0.51-1.04-0.4-1.77l0.25-1.65
	c0.08-0.49,0.26-0.92,0.52-1.28c0.26-0.37,0.6-0.65,1.01-0.85c0.41-0.2,0.87-0.3,1.38-0.3c0.77,0,1.35,0.22,1.73,0.67
	c0.39,0.45,0.52,1.04,0.39,1.77l-0.17,1.12h-3.85l-0.09,0.53c-0.15,0.95,0.22,1.43,1.11,1.43c0.72,0,1.17-0.25,1.37-0.74h1.22
	c-0.17,0.53-0.5,0.96-1.01,1.28C363.16,774.14,362.58,774.3,361.91,774.3z M361.23,770.22l-0.05,0.29l2.65-0.01l0.05-0.29
	c0.07-0.47,0.01-0.82-0.17-1.07c-0.18-0.25-0.49-0.37-0.92-0.37c-0.44,0-0.8,0.13-1.06,0.38
	C361.48,769.39,361.31,769.75,361.23,770.22z M368.33,774.3c-0.63,0-1.1-0.21-1.41-0.64c-0.31-0.42-0.4-1-0.27-1.73l0.27-1.77
	c0.11-0.73,0.39-1.31,0.84-1.74c0.44-0.43,0.98-0.64,1.61-0.64c0.47,0,0.83,0.12,1.09,0.35c0.26,0.24,0.39,0.56,0.38,0.96h0.02
	l0.17-1.2h1.24l-1,6.29h-1.22l0.19-1.2h-0.02c-0.12,0.41-0.35,0.73-0.69,0.97C369.2,774.18,368.8,774.3,368.33,774.3z
	 M368.93,773.23c0.39,0,0.72-0.12,0.98-0.36c0.26-0.24,0.43-0.57,0.5-1.01l0.25-1.65c0.07-0.43,0.01-0.76-0.18-1
	c-0.19-0.24-0.47-0.36-0.86-0.36c-0.4,0-0.72,0.12-0.98,0.35c-0.26,0.24-0.42,0.57-0.49,1.01l-0.25,1.65
	c-0.07,0.44-0.01,0.78,0.17,1.01C368.24,773.11,368.53,773.23,368.93,773.23z M376.35,774.19c-0.57,0-0.99-0.16-1.26-0.47
	c-0.27-0.31-0.36-0.75-0.27-1.32l0.54-3.39h-1.74l0.17-1.12h1.74l0.27-1.72h1.24l-0.27,1.72h2.47l-0.18,1.12h-2.46l-0.54,3.39
	c-0.08,0.44,0.1,0.66,0.53,0.66h1.72l-0.17,1.12H376.35z M382.5,774.3c-0.77,0-1.35-0.22-1.73-0.67c-0.38-0.45-0.52-1.04-0.4-1.77
	l0.25-1.65c0.08-0.49,0.26-0.92,0.52-1.28c0.26-0.37,0.6-0.65,1.01-0.85c0.41-0.2,0.87-0.3,1.38-0.3c0.77,0,1.35,0.22,1.73,0.67
	c0.39,0.45,0.52,1.04,0.39,1.77l-0.17,1.12h-3.85l-0.09,0.53c-0.15,0.95,0.22,1.43,1.11,1.43c0.72,0,1.17-0.25,1.37-0.74h1.22
	c-0.17,0.53-0.5,0.96-1.01,1.28C383.76,774.14,383.18,774.3,382.5,774.3z M381.83,770.22l-0.05,0.29l2.65-0.01l0.05-0.29
	c0.07-0.47,0.01-0.82-0.17-1.07c-0.18-0.25-0.49-0.37-0.92-0.37c-0.44,0-0.8,0.13-1.06,0.38
	C382.08,769.39,381.91,769.75,381.83,770.22z M388.92,774.3c-0.63,0-1.1-0.21-1.4-0.64c-0.3-0.42-0.39-1-0.28-1.73l0.27-1.77
	c0.11-0.73,0.39-1.31,0.84-1.74c0.44-0.43,0.98-0.64,1.61-0.64c0.47,0,0.83,0.12,1.09,0.35c0.26,0.24,0.39,0.56,0.38,0.96h0.02
	l0.21-1.47l0.3-1.8h1.24l-1.33,8.35h-1.22l0.19-1.2h-0.02c-0.12,0.41-0.35,0.73-0.69,0.97C389.8,774.18,389.4,774.3,388.92,774.3z
	 M389.53,773.23c0.39,0,0.72-0.12,0.98-0.36c0.26-0.24,0.43-0.57,0.5-1.01l0.25-1.65c0.08-0.43,0.02-0.76-0.17-1
	c-0.19-0.24-0.48-0.36-0.87-0.36c-0.4,0-0.72,0.12-0.98,0.35c-0.26,0.24-0.42,0.57-0.49,1.01l-0.25,1.65
	c-0.08,0.44-0.02,0.78,0.16,1.01C388.83,773.11,389.13,773.23,389.53,773.23z M401.02,774.3c-0.47,0-0.84-0.12-1.1-0.35
	c-0.26-0.23-0.39-0.56-0.38-0.97h-0.01l-0.19,1.2h-1.22l1.33-8.35h1.24l-0.29,1.8l-0.27,1.47h0.05c0.12-0.41,0.35-0.73,0.69-0.97
	c0.34-0.23,0.74-0.35,1.21-0.35c0.63,0,1.1,0.21,1.4,0.64c0.3,0.43,0.39,1.01,0.28,1.74l-0.27,1.77c-0.11,0.73-0.39,1.31-0.84,1.73
	C402.18,774.09,401.64,774.3,401.02,774.3z M400.77,773.23c0.4,0,0.72-0.12,0.98-0.35c0.26-0.23,0.42-0.57,0.5-1.01l0.25-1.65
	c0.07-0.43,0.01-0.77-0.17-1.01c-0.18-0.24-0.47-0.35-0.87-0.35c-0.39,0-0.72,0.12-0.98,0.36c-0.26,0.24-0.43,0.57-0.5,1l-0.25,1.65
	c-0.07,0.44-0.01,0.77,0.17,1.01C400.08,773.11,400.37,773.23,400.77,773.23z M405.47,776.25l0.17-1.06h1.93
	c0.64,0,1.01-0.3,1.1-0.9l0.1-0.67l0.21-1.19h-0.03c-0.12,0.42-0.35,0.74-0.68,0.97c-0.33,0.23-0.73,0.34-1.2,0.34
	c-0.63,0-1.09-0.2-1.4-0.6c-0.31-0.4-0.41-0.94-0.3-1.63l0.58-3.6h1.24l-0.56,3.48c-0.06,0.41,0,0.73,0.18,0.96
	c0.18,0.23,0.47,0.34,0.85,0.34c0.39,0,0.72-0.12,0.98-0.37c0.27-0.24,0.43-0.58,0.49-1.02l0.54-3.4h1.24l-1.01,6.41
	c-0.1,0.6-0.37,1.08-0.81,1.42c-0.44,0.35-1,0.52-1.67,0.52H405.47z M417.79,770.09h3.22l0.54-1.85h-5.47l-1.71,6.44h2.15l0.59-2.1
	h3.03l0.44-1.71h-3.03L417.79,770.09z M424.23,772.92c-0.59,0-1.02-0.39-1.02-1.12c0-0.88,0.63-1.76,1.61-1.76
	c0.49,0,0.88,0.24,1.02,0.78l1.95-0.83c-0.29-1.17-1.27-1.9-2.64-1.9c-2.78,0-4.15,2.15-4.15,3.9c0,1.76,1.27,2.83,3.07,2.83
	c1.37,0,2.34-0.59,2.98-1.42l-1.51-1.17C425.16,772.67,424.72,772.92,424.23,772.92z M430.91,768.23h-2.15l-1.76,6.44h5.12
	l0.49-1.85h-2.93L430.91,768.23z M439.75,771.01c0-1.66-1.32-2.93-3.22-2.93c-2.2,0-3.81,1.81-3.81,3.81c0,1.66,1.32,2.93,3.22,2.93
	C438.14,774.82,439.75,773.01,439.75,771.01z M434.92,771.7c0-0.83,0.59-1.71,1.51-1.71c0.78,0,1.17,0.54,1.17,1.22
	c0,0.83-0.59,1.71-1.51,1.71C435.31,772.92,434.92,772.38,434.92,771.7z M443.21,772.23h1.07l-0.2,0.68
	c-0.15,0.05-0.34,0.1-0.59,0.1c-0.68,0-1.27-0.39-1.27-1.22c0-1.02,0.73-1.9,1.95-1.9c0.59,0,1.12,0.24,1.51,0.59l1.37-1.37
	c-0.44-0.54-1.51-1.07-2.73-1.07c-2.59,0-4.29,1.76-4.29,3.86c0,2.05,1.61,2.88,3.22,2.88c0.93,0,1.85-0.29,2.49-0.68l0.93-3.32
	h-3.12L443.21,772.23z M450.78,768.08c-2.2,0-3.81,1.81-3.81,3.81c0,1.66,1.32,2.93,3.22,2.93c2.2,0,3.81-1.81,3.81-3.81
	C454,769.35,452.68,768.08,450.78,768.08z M450.34,772.92c-0.78,0-1.17-0.54-1.17-1.22c0-0.83,0.59-1.71,1.51-1.71
	c0.78,0,1.17,0.54,1.17,1.22C451.85,772.04,451.27,772.92,450.34,772.92z M437.94,767.5c-0.05,0.29,0.1,0.49,0.44,0.49
	s0.54-0.2,0.63-0.49c0.05-0.24-0.1-0.49-0.44-0.49C438.24,767.01,437.99,767.25,437.94,767.5z M432.13,765.5
	c-0.44,0-0.73,0.24-0.78,0.59c-0.05,0.34,0.1,0.59,0.54,0.59s0.73-0.24,0.78-0.59C432.77,765.74,432.57,765.5,432.13,765.5z
	 M433.01,767.3c-0.1,0.54,0.15,0.88,0.83,0.88c0.63,0,1.07-0.39,1.17-0.88s-0.15-0.88-0.83-0.88
	C433.5,766.43,433.11,766.82,433.01,767.3z M439.6,777.55l-2.44-1.81h-1.51l4.25,3.17l1.61-3.17h-0.98L439.6,777.55z M425.84,767.16
	l-2-1.46l23.13-2.78l-2.15,4.25h1.02l2.68-5.32l-26.99,3.22l2.78,2.1H425.84z M338.72,785.79l0.61-3.83h2.32l-0.08,0.52h-1.76
	l-0.18,1.14h1.63l-0.08,0.52h-1.62l-0.26,1.64H338.72z M342.97,785.84c-0.36,0-0.62-0.1-0.8-0.3c-0.17-0.2-0.23-0.47-0.18-0.82
	l0.27-1.7c0.06-0.34,0.2-0.61,0.44-0.82c0.24-0.2,0.54-0.3,0.89-0.3c0.36,0,0.62,0.1,0.8,0.3c0.17,0.2,0.24,0.47,0.18,0.81
	l-0.27,1.71c-0.06,0.34-0.2,0.62-0.44,0.82C343.63,785.74,343.33,785.84,342.97,785.84z M343.05,785.33c0.19,0,0.35-0.05,0.47-0.16
	c0.12-0.11,0.19-0.26,0.23-0.46l0.27-1.7c0.03-0.2,0.01-0.35-0.08-0.46c-0.08-0.11-0.22-0.16-0.41-0.16s-0.35,0.05-0.46,0.16
	c-0.12,0.1-0.19,0.26-0.22,0.46l-0.27,1.7c-0.03,0.2-0.01,0.35,0.08,0.46C342.72,785.28,342.86,785.33,343.05,785.33z M345,785.79
	l0.61-3.83h1.2c0.24,0,0.44,0.05,0.6,0.14c0.16,0.09,0.28,0.22,0.36,0.39c0.07,0.17,0.09,0.37,0.05,0.59
	c-0.04,0.26-0.14,0.48-0.3,0.67c-0.16,0.19-0.37,0.32-0.6,0.39l0.54,1.64h-0.62l-0.48-1.57h-0.54l-0.25,1.57H345z M345.89,783.71
	h0.64c0.19,0,0.35-0.06,0.48-0.17c0.13-0.11,0.21-0.26,0.24-0.45c0.03-0.19,0-0.35-0.09-0.46c-0.09-0.11-0.24-0.17-0.43-0.17h-0.64
	L345.89,783.71z M349.54,785.79l0.61-3.83h1.25c0.37,0,0.65,0.1,0.84,0.31c0.19,0.21,0.26,0.49,0.2,0.84
	c-0.04,0.23-0.12,0.44-0.25,0.61s-0.29,0.31-0.49,0.4c-0.2,0.09-0.42,0.14-0.66,0.14h-0.69l-0.24,1.52H349.54z M350.43,783.75h0.69
	c0.19,0,0.36-0.06,0.49-0.18c0.14-0.12,0.22-0.27,0.25-0.47c0.03-0.2,0-0.35-0.1-0.47c-0.1-0.12-0.25-0.18-0.44-0.18h-0.69
	L350.43,783.75z M352.75,785.79l0.61-3.83h2.25l-0.08,0.5h-1.7l-0.17,1.09h1.51l-0.08,0.5h-1.51l-0.19,1.24h1.69l-0.08,0.5H352.75z
	 M355.84,785.79l0.61-3.83h1.2c0.24,0,0.44,0.05,0.6,0.14c0.16,0.09,0.28,0.22,0.36,0.39c0.07,0.17,0.09,0.37,0.05,0.59
	c-0.04,0.26-0.14,0.48-0.3,0.67c-0.16,0.19-0.37,0.32-0.6,0.39l0.54,1.64h-0.62l-0.48-1.57h-0.54l-0.25,1.57H355.84z M356.74,783.71
	h0.64c0.19,0,0.35-0.06,0.48-0.17c0.13-0.11,0.21-0.26,0.24-0.45c0.03-0.19,0-0.35-0.09-0.46c-0.09-0.11-0.24-0.17-0.43-0.17h-0.64
	L356.74,783.71z M360.13,785.84c-0.39,0-0.67-0.1-0.87-0.29c-0.19-0.19-0.26-0.45-0.22-0.78h0.57c-0.03,0.17,0.01,0.31,0.12,0.41
	c0.11,0.1,0.27,0.15,0.48,0.15c0.2,0,0.37-0.05,0.5-0.15c0.13-0.1,0.21-0.23,0.24-0.4c0.02-0.15,0-0.28-0.06-0.39
	c-0.06-0.11-0.16-0.18-0.29-0.22l-0.46-0.14c-0.27-0.08-0.46-0.22-0.59-0.41c-0.13-0.19-0.17-0.42-0.13-0.68
	c0.04-0.21,0.11-0.39,0.23-0.55c0.12-0.16,0.27-0.28,0.46-0.37c0.19-0.09,0.4-0.13,0.64-0.13c0.35,0,0.62,0.1,0.8,0.29
	c0.18,0.19,0.25,0.44,0.2,0.76h-0.57c0.03-0.17,0-0.3-0.09-0.4c-0.09-0.1-0.23-0.14-0.42-0.14c-0.19,0-0.34,0.04-0.46,0.13
	c-0.12,0.09-0.19,0.21-0.21,0.38c-0.02,0.15-0.01,0.28,0.05,0.39c0.06,0.11,0.16,0.18,0.29,0.22l0.47,0.15
	c0.26,0.08,0.46,0.22,0.58,0.41c0.12,0.19,0.17,0.42,0.12,0.69c-0.04,0.22-0.12,0.41-0.24,0.57c-0.13,0.16-0.29,0.29-0.49,0.38
	C360.6,785.79,360.38,785.84,360.13,785.84z M363.27,785.84c-0.36,0-0.62-0.1-0.8-0.3c-0.17-0.2-0.23-0.47-0.18-0.82l0.27-1.7
	c0.06-0.34,0.2-0.61,0.44-0.82c0.24-0.2,0.54-0.3,0.89-0.3c0.36,0,0.62,0.1,0.8,0.3c0.17,0.2,0.24,0.47,0.18,0.81l-0.27,1.71
	c-0.06,0.34-0.2,0.62-0.44,0.82C363.92,785.74,363.62,785.84,363.27,785.84z M363.34,785.33c0.19,0,0.35-0.05,0.47-0.16
	c0.12-0.11,0.19-0.26,0.23-0.46l0.27-1.7c0.03-0.2,0.01-0.35-0.08-0.46c-0.08-0.11-0.22-0.16-0.41-0.16c-0.19,0-0.35,0.05-0.46,0.16
	c-0.12,0.1-0.19,0.26-0.22,0.46l-0.27,1.7c-0.03,0.2-0.01,0.35,0.08,0.46C363.02,785.28,363.15,785.33,363.34,785.33z
	 M365.28,785.79l0.61-3.83h0.71l0.62,3.19c0.01-0.1,0.02-0.22,0.03-0.36c0.01-0.14,0.03-0.29,0.04-0.44
	c0.02-0.15,0.04-0.29,0.06-0.41l0.31-1.98h0.52l-0.61,3.83h-0.71l-0.61-3.19c-0.01,0.09-0.02,0.21-0.03,0.34s-0.03,0.28-0.04,0.42
	c-0.02,0.15-0.04,0.28-0.06,0.41l-0.31,2.01H365.28z M368.23,785.79l1.59-3.83h0.75l0.37,3.83h-0.56l-0.07-0.97h-1.09l-0.39,0.97
	H368.23z M369.39,784.34h0.87l-0.09-1.1c-0.02-0.2-0.03-0.37-0.04-0.51c-0.01-0.14-0.01-0.24-0.01-0.3c-0.02,0.06-0.05,0.16-0.1,0.3
	c-0.05,0.14-0.11,0.31-0.19,0.5L369.39,784.34z M371.72,785.79l0.61-3.83h0.57l-0.52,3.31h1.67l-0.08,0.52H371.72z M376.68,785.84
	c-0.37,0-0.63-0.1-0.8-0.3c-0.17-0.2-0.22-0.48-0.17-0.82l0.44-2.76h0.57l-0.44,2.76c-0.03,0.2-0.01,0.35,0.07,0.46
	c0.08,0.11,0.21,0.17,0.41,0.17c0.19,0,0.35-0.06,0.46-0.17c0.12-0.11,0.19-0.27,0.22-0.46l0.44-2.76h0.57l-0.44,2.76
	c-0.06,0.35-0.2,0.62-0.43,0.82C377.35,785.74,377.05,785.84,376.68,785.84z M379.84,785.84c-0.39,0-0.67-0.1-0.87-0.29
	c-0.19-0.19-0.26-0.45-0.22-0.78h0.57c-0.03,0.17,0.01,0.31,0.12,0.41c0.11,0.1,0.27,0.15,0.48,0.15c0.2,0,0.37-0.05,0.5-0.15
	c0.13-0.1,0.21-0.23,0.24-0.4c0.02-0.15,0-0.28-0.06-0.39c-0.06-0.11-0.16-0.18-0.29-0.22l-0.46-0.14
	c-0.27-0.08-0.46-0.22-0.59-0.41c-0.13-0.19-0.17-0.42-0.13-0.68c0.04-0.21,0.11-0.39,0.23-0.55s0.27-0.28,0.46-0.37
	c0.19-0.09,0.4-0.13,0.64-0.13c0.35,0,0.62,0.1,0.8,0.29c0.18,0.19,0.25,0.44,0.2,0.76h-0.57c0.03-0.17,0-0.3-0.09-0.4
	c-0.09-0.1-0.23-0.14-0.42-0.14c-0.19,0-0.34,0.04-0.46,0.13c-0.12,0.09-0.19,0.21-0.21,0.38c-0.02,0.15-0.01,0.28,0.05,0.39
	c0.06,0.11,0.16,0.18,0.29,0.22l0.47,0.15c0.26,0.08,0.46,0.22,0.58,0.41c0.12,0.19,0.17,0.42,0.12,0.69
	c-0.04,0.22-0.12,0.41-0.24,0.57c-0.13,0.16-0.29,0.29-0.49,0.38C380.31,785.79,380.09,785.84,379.84,785.84z M381.91,785.79
	l0.61-3.83h2.25l-0.08,0.5h-1.7l-0.17,1.09h1.51l-0.08,0.5h-1.51l-0.19,1.24h1.69l-0.08,0.5H381.91z M386.94,785.84
	c-0.36,0-0.62-0.1-0.8-0.3c-0.17-0.2-0.23-0.47-0.18-0.82l0.27-1.7c0.06-0.34,0.2-0.61,0.44-0.82c0.24-0.2,0.54-0.3,0.89-0.3
	c0.36,0,0.62,0.1,0.8,0.3c0.17,0.2,0.24,0.47,0.18,0.81l-0.27,1.71c-0.06,0.34-0.2,0.62-0.44,0.82
	C387.6,785.74,387.3,785.84,386.94,785.84z M387.02,785.33c0.19,0,0.35-0.05,0.47-0.16c0.12-0.11,0.19-0.26,0.23-0.46l0.27-1.7
	c0.03-0.2,0.01-0.35-0.08-0.46c-0.08-0.11-0.22-0.16-0.41-0.16c-0.19,0-0.35,0.05-0.46,0.16c-0.12,0.1-0.19,0.26-0.22,0.46
	l-0.27,1.7c-0.03,0.2-0.01,0.35,0.08,0.46C386.7,785.28,386.83,785.33,387.02,785.33z M388.95,785.79l0.61-3.83h0.71l0.62,3.19
	c0.01-0.1,0.02-0.22,0.03-0.36c0.01-0.14,0.03-0.29,0.04-0.44c0.02-0.15,0.04-0.29,0.06-0.41l0.31-1.98h0.52l-0.61,3.83h-0.71
	l-0.61-3.19c-0.01,0.09-0.02,0.21-0.03,0.34c-0.01,0.13-0.03,0.28-0.04,0.42c-0.02,0.15-0.04,0.28-0.06,0.41l-0.31,2.01H388.95z
	 M392.25,785.79l0.61-3.83h0.57l-0.52,3.31h1.67l-0.08,0.52H392.25z M396.12,785.79l0.22-1.41l-0.75-2.42h0.58l0.45,1.45
	c0.03,0.09,0.05,0.18,0.07,0.27c0.02,0.08,0.03,0.15,0.03,0.19c0.02-0.04,0.05-0.1,0.09-0.19c0.04-0.08,0.09-0.17,0.14-0.27
	l0.9-1.45h0.6l-1.53,2.42l-0.22,1.41H396.12z M399.22,785.79l0.61-3.83h0.71l0.62,3.19c0.01-0.1,0.02-0.22,0.03-0.36
	c0.01-0.14,0.03-0.29,0.04-0.44c0.02-0.15,0.04-0.29,0.06-0.41l0.31-1.98h0.52l-0.61,3.83h-0.71l-0.61-3.19
	c-0.01,0.09-0.02,0.21-0.03,0.34c-0.01,0.13-0.03,0.28-0.04,0.42c-0.02,0.15-0.04,0.28-0.06,0.41l-0.31,2.01H399.22z M403.51,785.84
	c-0.36,0-0.62-0.1-0.8-0.3c-0.18-0.2-0.23-0.47-0.18-0.82l0.27-1.7c0.06-0.34,0.2-0.61,0.44-0.82c0.24-0.2,0.54-0.3,0.89-0.3
	c0.36,0,0.62,0.1,0.8,0.3c0.17,0.2,0.24,0.47,0.18,0.81l-0.27,1.71c-0.06,0.34-0.2,0.62-0.44,0.82
	C404.16,785.74,403.86,785.84,403.51,785.84z M403.58,785.33c0.19,0,0.35-0.05,0.47-0.16c0.12-0.11,0.19-0.26,0.23-0.46l0.27-1.7
	c0.03-0.2,0.01-0.35-0.08-0.46c-0.08-0.11-0.22-0.16-0.41-0.16c-0.19,0-0.35,0.05-0.46,0.16c-0.12,0.1-0.19,0.26-0.22,0.46
	l-0.27,1.7c-0.03,0.2-0.01,0.35,0.08,0.46C403.26,785.28,403.4,785.33,403.58,785.33z M406.38,785.79l0.52-3.31h-1.02l0.08-0.52
	h2.62l-0.08,0.52h-1.03l-0.52,3.31H406.38z M409.52,785.79l0.61-3.83h2.32l-0.08,0.52h-1.76l-0.18,1.14h1.63l-0.08,0.52h-1.62
	l-0.26,1.64H409.52z M413.77,785.84c-0.36,0-0.62-0.1-0.8-0.3c-0.18-0.2-0.23-0.47-0.18-0.82l0.27-1.7c0.06-0.34,0.2-0.61,0.44-0.82
	c0.24-0.2,0.54-0.3,0.89-0.3c0.36,0,0.62,0.1,0.8,0.3c0.17,0.2,0.24,0.47,0.18,0.81l-0.27,1.71c-0.06,0.34-0.2,0.62-0.44,0.82
	C414.42,785.74,414.13,785.84,413.77,785.84z M413.85,785.33c0.19,0,0.35-0.05,0.47-0.16c0.12-0.11,0.19-0.26,0.23-0.46l0.27-1.7
	c0.03-0.2,0.01-0.35-0.08-0.46c-0.08-0.11-0.22-0.16-0.41-0.16c-0.19,0-0.35,0.05-0.46,0.16c-0.12,0.1-0.19,0.26-0.22,0.46
	l-0.27,1.7c-0.03,0.2-0.01,0.35,0.08,0.46C413.52,785.28,413.66,785.33,413.85,785.33z M415.8,785.79l0.61-3.83h1.2
	c0.24,0,0.44,0.05,0.6,0.14c0.16,0.09,0.28,0.22,0.36,0.39c0.07,0.17,0.09,0.37,0.05,0.59c-0.04,0.26-0.14,0.48-0.3,0.67
	c-0.16,0.19-0.37,0.32-0.6,0.39l0.54,1.64h-0.62l-0.48-1.57h-0.54l-0.25,1.57H415.8z M416.69,783.71h0.64
	c0.19,0,0.35-0.06,0.48-0.17c0.13-0.11,0.21-0.26,0.24-0.45c0.03-0.19,0-0.35-0.09-0.46c-0.09-0.11-0.24-0.17-0.43-0.17h-0.64
	L416.69,783.71z M420.91,785.84c-0.36,0-0.63-0.1-0.81-0.3c-0.18-0.2-0.24-0.47-0.19-0.82l0.27-1.7c0.06-0.35,0.21-0.62,0.45-0.82
	s0.55-0.3,0.91-0.3c0.36,0,0.63,0.1,0.81,0.3c0.18,0.2,0.24,0.47,0.19,0.82h-0.57c0.03-0.2,0-0.35-0.09-0.46
	c-0.09-0.11-0.23-0.16-0.42-0.16c-0.19,0-0.35,0.05-0.48,0.16c-0.12,0.1-0.2,0.26-0.23,0.45l-0.27,1.71c-0.03,0.2,0,0.35,0.09,0.46
	c0.09,0.11,0.23,0.16,0.42,0.16c0.19,0,0.35-0.05,0.47-0.16c0.12-0.11,0.2-0.26,0.23-0.46h0.57c-0.03,0.23-0.11,0.43-0.24,0.59
	c-0.12,0.17-0.28,0.3-0.47,0.39C421.36,785.79,421.14,785.84,420.91,785.84z M424.03,785.84c-0.36,0-0.62-0.1-0.8-0.3
	c-0.18-0.2-0.23-0.47-0.18-0.82l0.27-1.7c0.06-0.34,0.2-0.61,0.44-0.82c0.24-0.2,0.54-0.3,0.89-0.3c0.36,0,0.62,0.1,0.8,0.3
	c0.17,0.2,0.24,0.47,0.18,0.81l-0.27,1.71c-0.06,0.34-0.2,0.62-0.44,0.82C424.69,785.74,424.39,785.84,424.03,785.84z
	 M424.11,785.33c0.19,0,0.35-0.05,0.47-0.16c0.12-0.11,0.19-0.26,0.23-0.46l0.27-1.7c0.03-0.2,0.01-0.35-0.08-0.46
	c-0.08-0.11-0.22-0.16-0.41-0.16c-0.19,0-0.35,0.05-0.46,0.16c-0.12,0.1-0.19,0.26-0.22,0.46l-0.27,1.7
	c-0.03,0.2-0.01,0.35,0.08,0.46C423.79,785.28,423.92,785.33,424.11,785.33z M425.97,785.79l0.61-3.83h0.69l0.18,1.23
	c0.02,0.12,0.04,0.23,0.05,0.33c0.01,0.1,0.02,0.18,0.03,0.24c0.02-0.06,0.05-0.14,0.09-0.24c0.04-0.11,0.09-0.22,0.15-0.34
	l0.57-1.22h0.71l-0.61,3.83h-0.54l0.2-1.29c0.02-0.17,0.06-0.35,0.1-0.55c0.04-0.2,0.09-0.4,0.14-0.61c0.05-0.2,0.1-0.4,0.14-0.59
	c0.05-0.19,0.09-0.35,0.13-0.49l-0.86,1.86h-0.55l-0.28-1.86c0,0.14-0.01,0.29-0.02,0.47c-0.01,0.18-0.02,0.37-0.04,0.57
	c-0.02,0.2-0.04,0.41-0.06,0.61c-0.02,0.2-0.05,0.4-0.08,0.57l-0.2,1.29H425.97z M429.11,785.79l0.61-3.83h0.69l0.18,1.23
	c0.02,0.12,0.04,0.23,0.05,0.33c0.01,0.1,0.02,0.18,0.03,0.24c0.02-0.06,0.05-0.14,0.09-0.24c0.04-0.11,0.09-0.22,0.15-0.34
	l0.57-1.22h0.71l-0.61,3.83h-0.54l0.2-1.29c0.02-0.17,0.06-0.35,0.1-0.55c0.04-0.2,0.09-0.4,0.14-0.61c0.05-0.2,0.1-0.4,0.14-0.59
	c0.05-0.19,0.09-0.35,0.13-0.49l-0.86,1.86h-0.55l-0.28-1.86c0,0.14-0.01,0.29-0.02,0.47c-0.01,0.18-0.02,0.37-0.04,0.57
	c-0.02,0.2-0.04,0.41-0.06,0.61c-0.02,0.2-0.05,0.4-0.08,0.57l-0.2,1.29H429.11z M432.41,785.79l0.61-3.83h2.25l-0.08,0.5h-1.7
	l-0.17,1.09h1.51l-0.08,0.5h-1.51l-0.19,1.24h1.69l-0.08,0.5H432.41z M435.51,785.79l0.61-3.83h1.2c0.24,0,0.44,0.05,0.6,0.14
	c0.16,0.09,0.28,0.22,0.36,0.39c0.07,0.17,0.09,0.37,0.05,0.59c-0.04,0.26-0.14,0.48-0.3,0.67c-0.16,0.19-0.37,0.32-0.6,0.39
	l0.54,1.64h-0.62l-0.48-1.57h-0.54l-0.25,1.57H435.51z M436.4,783.71h0.64c0.19,0,0.35-0.06,0.48-0.17
	c0.13-0.11,0.21-0.26,0.24-0.45c0.03-0.19,0-0.35-0.09-0.46c-0.09-0.11-0.24-0.17-0.43-0.17h-0.64L436.4,783.71z M439.8,785.84
	c-0.36,0-0.63-0.1-0.81-0.3c-0.18-0.2-0.24-0.47-0.19-0.82l0.27-1.7c0.06-0.35,0.21-0.62,0.45-0.82s0.55-0.3,0.91-0.3
	c0.36,0,0.63,0.1,0.81,0.3c0.18,0.2,0.24,0.47,0.19,0.82h-0.57c0.03-0.2,0-0.35-0.09-0.46c-0.09-0.11-0.23-0.16-0.42-0.16
	c-0.19,0-0.35,0.05-0.47,0.16c-0.12,0.1-0.2,0.26-0.23,0.45l-0.27,1.71c-0.03,0.2,0,0.35,0.09,0.46c0.09,0.11,0.23,0.16,0.42,0.16
	s0.35-0.05,0.47-0.16c0.12-0.11,0.2-0.26,0.23-0.46h0.57c-0.03,0.23-0.11,0.43-0.24,0.59c-0.12,0.17-0.28,0.3-0.47,0.39
	C440.25,785.79,440.04,785.84,439.8,785.84z M441.88,785.79l0.08-0.5h0.78l0.45-2.82h-0.78l0.08-0.5h2.13l-0.08,0.5h-0.78
	l-0.45,2.82h0.78l-0.08,0.5H441.88z M444.74,785.79l1.59-3.83h0.75l0.37,3.83h-0.56l-0.07-0.97h-1.09l-0.39,0.97H444.74z
	 M445.9,784.34h0.87l-0.09-1.1c-0.02-0.2-0.03-0.37-0.04-0.51c-0.01-0.14-0.01-0.24-0.01-0.3c-0.02,0.06-0.05,0.16-0.1,0.3
	c-0.05,0.14-0.11,0.31-0.19,0.5L445.9,784.34z M448.24,785.79l0.61-3.83h0.57l-0.52,3.31h1.67l-0.08,0.52H448.24z M453.19,785.84
	c-0.37,0-0.63-0.1-0.8-0.3c-0.17-0.2-0.22-0.48-0.17-0.82l0.44-2.76h0.57l-0.44,2.76c-0.03,0.2-0.01,0.35,0.07,0.46
	c0.08,0.11,0.21,0.17,0.41,0.17c0.19,0,0.35-0.06,0.46-0.17c0.12-0.11,0.19-0.27,0.22-0.46l0.44-2.76h0.57l-0.44,2.76
	c-0.06,0.35-0.2,0.62-0.43,0.82C453.86,785.74,453.56,785.84,453.19,785.84z M456.36,785.84c-0.39,0-0.67-0.1-0.87-0.29
	c-0.19-0.19-0.26-0.45-0.22-0.78h0.57c-0.03,0.17,0.01,0.31,0.12,0.41c0.11,0.1,0.27,0.15,0.48,0.15c0.2,0,0.37-0.05,0.5-0.15
	s0.21-0.23,0.24-0.4c0.02-0.15,0-0.28-0.06-0.39c-0.06-0.11-0.16-0.18-0.29-0.22l-0.46-0.14c-0.27-0.08-0.46-0.22-0.59-0.41
	c-0.13-0.19-0.17-0.42-0.13-0.68c0.04-0.21,0.11-0.39,0.23-0.55c0.12-0.16,0.27-0.28,0.46-0.37c0.19-0.09,0.4-0.13,0.64-0.13
	c0.35,0,0.62,0.1,0.8,0.29c0.18,0.19,0.25,0.44,0.2,0.76h-0.57c0.03-0.17,0-0.3-0.09-0.4c-0.09-0.1-0.23-0.14-0.42-0.14
	c-0.19,0-0.34,0.04-0.46,0.13c-0.12,0.09-0.19,0.21-0.21,0.38c-0.02,0.15-0.01,0.28,0.05,0.39c0.06,0.11,0.16,0.18,0.29,0.22
	l0.47,0.15c0.26,0.08,0.46,0.22,0.58,0.41c0.12,0.19,0.17,0.42,0.12,0.69c-0.04,0.22-0.12,0.41-0.24,0.57
	c-0.13,0.16-0.29,0.29-0.49,0.38C456.82,785.79,456.6,785.84,456.36,785.84z M458.42,785.79l0.61-3.83h2.25l-0.08,0.5h-1.7
	l-0.17,1.09h1.51l-0.08,0.5h-1.51l-0.19,1.24h1.69l-0.08,0.5H458.42z"/>
<g>
	<path d="M400,50c-136.82,0-245.24,29.19-279.9,41.96c0,0,0,261.47,0,338.09s60.81,175.73,94.86,209.79
		c31.22,31.22,81.19,76.59,162.22,106.14c14.72,5.37,30.9,5.37,45.63,0c81.04-29.55,131-74.92,162.22-106.14
		c34.05-34.05,94.86-133.17,94.86-209.79s0-338.09,0-338.09C645.24,79.19,536.82,50,400,50z"/>
	<path style="fill:#FEFEFE;" d="M400,728.5c-5.29,0-10.49-0.92-15.45-2.73c-74.28-27.09-121.53-68.28-154.39-101.14
		c-30.91-30.91-88.56-124.98-88.56-194.59V107.38C187.99,92.83,285.07,71.5,400,71.5c114.93,0,212.01,21.33,258.4,35.88v322.67
		c0,69.61-57.66,163.68-88.56,194.59c-32.86,32.86-80.1,74.05-154.39,101.14C410.49,727.59,405.29,728.5,400,728.5z"/>
	<path d="M400,713.46c-3.53,0-6.99-0.61-10.29-1.82C318.2,685.57,272.57,645.76,240.8,614c-28.56-28.56-84.16-119.38-84.16-183.95
		V118.56C212.18,102.54,302.02,86.54,400,86.54c97.98,0,187.82,16,243.35,32.02v311.48c0,64.57-55.59,155.38-84.16,183.95
		c-31.76,31.76-77.39,71.57-148.9,97.65C406.99,712.85,403.53,713.46,400,713.46z"/>
	<path style="fill:#FEDD02;" d="M400,708.08c-2.9,0-5.74-0.5-8.45-1.49c-70.52-25.72-115.57-65.02-146.95-96.4
		c-28.03-28.03-82.58-117.02-82.58-180.15V221.48h475.96v208.57c0,63.13-54.55,152.12-82.58,180.15
		c-31.37,31.37-76.42,70.68-146.95,96.4C405.74,707.58,402.9,708.08,400,708.08z"/>
	<g>
		<path d="M555.51,332.22c3.12-1.61,10.05-5.93,15.48-8.34c1.31-0.6,2.81-0.9,4.42-0.9c17.59-0.1,35.08-0.1,52.67,0
			c0.3,0,0.4,0.1,0.4,0.4v41.01c0,0.7-0.3,1.21-0.9,1.51L424.14,475.65c-0.5,0.3-1.21,0.2-1.61-0.2
			c-16.48-15.78-34.17-29.95-53.07-42.72c-0.3-0.2-0.3-0.6-0.2-0.8c0.1-0.1,0.1-0.1,0.2-0.2c49.45-26.43,98.8-52.77,148.16-79.41
			C530.18,345.59,542.85,338.85,555.51,332.22z"/>
		<path d="M326.74,364.69c0.1,0,0.4,0,1.11,0.1c16.79,0.5,33.37-1.51,49.55-5.93c3.22-0.9,6.23-2.11,9.15-3.72
			c12.97-7.14,24.22-17.19,35.18-28.24c0.4-0.4,0.9-0.6,1.41-0.6l117.4-2.21c0.1,0,0.2,0.1,0.2,0.2s0,0.1-0.1,0.2l-189.37,99.01
			c-0.2,0.1-0.5,0.2-0.8,0.1c-11.66-2.51-22.92-2.61-34.48,1.21c-0.2,0.1-0.3,0.3-0.3,0.6c0.1,0.1,0.2,0.3,0.3,0.3
			c2.81,0.4,5.73,1.11,8.64,2.11c14.47,4.72,27.34,11.86,38.8,21.51c9.85,8.34,17.19,19.8,22.72,31.36c0.1,0.3,0,0.6-0.3,0.7
			c0,0-0.1,0-0.2,0c-13.37,2.01-26.84,5.83-38.6,12.46c-13.67,7.64-25.13,16.79-34.88,28.95c-0.3,0.4-0.9,0.6-1.51,0.4
			c-9.35-3.82-18.39-8.14-27.24-12.87c-7.04-3.72-14.88-9.15-22.51-13.57c-0.1-0.1-0.2-0.3-0.1-0.4c0.1-0.1,0.2-0.2,0.3-0.1
			c15.48,3.22,35.28,1.81,47.94-8.24c5.43-4.32,6.63-9.75,3.52-16.38c-3.72-7.84-11.06-12.87-18.49-16.69
			c-11.46-5.93-25.63-7.44-38.7-7.04c-16.89,0.5-32.47,5.93-32.06,26.03c0,0.3-0.1,0.4-0.4,0.2c-2.71-1.31-5.03-2.71-7.14-4.12
			c-11.06-7.74-22.31-17.09-31.16-27.54c-3.62-4.32-8.34-8.95-10.05-14.37c-0.1-0.4,0-0.8,0.2-1.11
			c12.16-16.18,25.73-31.06,40.61-44.93c6.23-5.73,14.37-9.55,21.71-13.77c3.12-1.71,6.03-3.22,8.74-4.52
			c22.21-10.65,44.73-20.5,67.65-29.65c2.01-0.8,4.02-1.31,6.13-1.51c3.92-0.4,7.74-0.7,11.56-1.01
			c23.02-1.81,45.83-3.52,68.25-5.23c1.01-0.1,1.11,0.2,0.3,0.8c-6.23,4.82-12.36,9.65-18.59,14.37c-4.62,3.62-8.74,6.33-12.46,8.34
			c-13.07,7.04-27.14,11.66-42.12,13.77C325.74,363.98,325.64,364.28,326.74,364.69z M271.46,395.54c1.71-3.82,1.31-8.74,2.41-13.07
			c0.4-1.41,0.7-2.81,0.9-4.32c0-0.2-0.1-0.3-0.3-0.4c-0.1,0-0.2,0-0.2,0.1c-1.31,1.11-2.51,2.21-3.72,3.02
			c-12.77,8.54-25.63,17.19-38.8,25.93c-0.3,0.2-0.4,0.7-0.2,1.01c0.1,0.2,0.4,0.3,0.7,0.3c1.51-0.2,3.22-0.7,4.93-1.51
			c4.32-2.01,8.74-3.32,13.37-4.12C258.29,401.27,267.44,404.89,271.46,395.54z"/>
		<path d="M492.29,529.33c-12.77-18.9-31.86-34.07-53.67-42.01c-0.4-0.1-0.4-0.3,0-0.5l189.27-101.72c0.2-0.1,0.4,0,0.5,0.1
			c0,0,0,0.1,0,0.2c0,13.37,0,26.84,0,40.21c0,15.68-2.11,29.85-6.03,44.73c-0.2,0.9-0.7,1.51-1.31,1.81
			c-29.05,15.48-58.1,30.96-87.15,46.44c-2.11,1.11-7.24,3.82-15.18,7.94c-6.83,3.52-13.47,7.44-20.4,10.86
			c-0.3,0.1-0.5,0.1-0.6-0.2C496.71,535.86,494.9,533.25,492.29,529.33z"/>
	</g>
	<path d="M499.61,592.58c0,55.28-44.73,100.01-100.01,100.01s-100.01-44.73-100.01-100.01c0-55.28,44.73-100.01,100.01-100.01l0,0
		C454.88,492.57,499.61,537.4,499.61,592.58L499.61,592.58z M362.41,511.97c-13.27,6.13-24.32,14.98-33.27,26.54
		c-2.91,3.72,0.7,17.09,2.41,21.31c0.1,0.2,0.3,0.4,0.5,0.4c8.74-0.2,17.39,0.1,26.13,1.01c0.5,0,0.9-0.1,1.21-0.5
		c8.04-9.45,17.49-19.3,28.14-25.93c0.2-0.1,0.3-0.4,0.2-0.7c-2.71-7.14-4.02-14.57-4.12-22.21c0-0.2-0.1-0.4-0.4-0.4
		C377.28,510.26,368.03,509.36,362.41,511.97z M450.25,525.54c5.23,1.11,7.44,2.31,11.26,3.82c0.5,0.2,0.6,0.1,0.2-0.3
		c-0.5-0.6-1.31-1.31-2.31-2.21c-5.13-4.32-10.65-8.34-16.48-12.16c-0.2-0.1-0.5-0.1-0.7,0.2c-0.1,0.2-0.1,0.4,0.1,0.6
		c2.91,2.81,5.33,5.93,7.24,9.55C449.75,525.24,449.95,525.44,450.25,525.54z M476.39,551.88c-6.03-9.75-14.98-16.38-26.64-20
		c-0.3-0.1-0.5,0-0.7,0.2c-3.82,5.93-9.55,11.06-14.67,15.88c-0.2,0.2-0.3,0.4-0.1,0.7c5.13,11.96,8.04,24.32,8.74,37.29
		c0,0.3,0.2,0.5,0.4,0.7c8.95,4.82,17.29,10.55,25.03,17.09c0.5,0.4,1.31,0.4,1.81,0c5.73-4.72,10.65-10.15,14.98-16.18
		c0.4-0.5,0.6-1.11,0.6-1.71C486.04,573.99,482.52,561.83,476.39,551.88z M422.91,546.85c-9.15-3.82-18.59-6.33-28.34-7.74
		c-1.51-0.2-3.02,0.2-4.42,1.31c-5.63,4.32-10.65,8.64-14.98,12.77c-3.32,3.12-7.04,7.64-10.65,11.36
		c-1.31,1.31-1.41,2.71-1.11,4.42c2.01,10.96,5.03,22.01,8.95,32.97c0.1,0.3,0.3,0.5,0.6,0.5c12.46,3.82,24.53,8.24,37.49,10.45
		c0.3,0.1,0.6,0,0.8-0.2l24.73-24.02c0.5-0.5,0.7-1.11,0.7-1.81c-0.4-12.56-3.32-24.53-8.74-35.98
		C426.73,548.56,425.03,547.76,422.91,546.85z M315.26,597.91c0.6-12.36,3.42-24.42,9.85-35.08c0.1-0.2,0.2-0.5,0.1-0.7
		c-1.31-3.72-2.21-7.54-2.71-11.56c-0.1-1.01-0.4-1.01-0.9-0.2c-8.44,15.58-11.96,32.26-10.35,50.06c0,0.3,0.3,0.5,0.6,0.5
		c0.1,0,0.2,0,0.3-0.1l2.31-1.51C314.96,599.02,315.26,598.51,315.26,597.91z M472.77,610.48c-0.4,12.56-5.53,24.32-11.76,34.88
		c-0.2,0.3-0.1,0.5,0,0.8l3.72,5.63c0.1,0.2,0.4,0.3,0.6,0.1c0,0,0,0,0.1,0c3.62-3.32,5.83-6.63,8.74-11.26
		c8.85-13.77,13.57-28.95,14.17-45.63c0-0.5-0.1-0.5-0.4-0.2c-4.32,5.53-9.35,10.45-14.88,14.78
		C472.87,609.97,472.77,610.17,472.77,610.48z M349.04,657.11c-5.03-9.15-8.04-18.9-8.95-29.25c0-0.3-0.2-0.6-0.4-0.7
		c-8.14-6.43-15.38-13.67-21.71-21.81c-0.2-0.3-0.6-0.3-0.8-0.2l-4.32,2.51c-0.5,0.3-0.8,0.9-0.7,1.51
		c4.82,21.91,16.28,40.61,33.97,54.28c0.2,0.2,0.5,0.2,0.7,0l3.62-2.21c0.3-0.2,0.4-0.4,0.3-0.8
		C350.14,659.33,349.64,658.22,349.04,657.11z M418.59,649.68c-5.13-9.45-8.85-19.7-10.25-30.36c0-0.3-0.2-0.5-0.5-0.5
		c-12.66-2.61-25.03-6.03-37.29-10.35c-0.3-0.1-0.5-0.1-0.8,0.1c-7.74,4.93-14.88,10.55-21.51,16.89c-1.21,1.21-1.41,2.61-1.31,4.22
		c0.9,9.75,4.02,18.7,9.15,26.84c1.61,2.61,2.31,3.92,4.42,5.23c9.15,5.83,18.49,8.54,29.65,10.45c2.91,0.5,3.42-0.6,5.63-2.01
		c9.15-6.13,16.69-12.56,22.62-19.5C418.69,650.28,418.79,649.98,418.59,649.68z M453.37,650.48c-8.85,3.52-18.59,4.82-29.25,3.92
		c-0.3,0-0.5,0.1-0.7,0.3c-7.44,8.64-15.98,15.98-25.73,21.91c-0.3,0.2-0.4,0.4-0.2,0.7l2.11,3.52c0.2,0.3,0.5,0.4,0.8,0.4
		c23.02-0.5,43.02-8.44,59.81-23.82c0.3-0.2,0.3-0.6,0.1-1.01c-1.11-1.71-2.21-3.52-3.32-5.33
		C456.29,650.18,455.08,649.88,453.37,650.48z"/>
	<g>
		<path d="M331.3,262.49c0.43-8.51,3.17-15.3,11.99-17.37c8.05-1.89,16.18-1.98,24.4,0c6.85,1.63,10.79,6.02,11.9,13.33
			c0.68,4.81,0.77,9.29,0.17,13.5c-1.8,12.12-10.53,14.44-21.06,15.13c-7.45,0.43-18.24-0.34-23.2-6.53
			C331.64,275.73,330.96,268.68,331.3,262.49z M344.83,274.18c2.48,5.59,6.51,8.08,11.99,7.57c9.93-1.03,12.59-10.23,12.07-18.74
			c-0.6-9.63-6.59-16.34-17.04-13.93c-2.14,0.52-4.2,1.72-5.31,3.44C342.09,259.48,341.49,266.7,344.83,274.18z"/>
		<path d="M591.23,255c5.85-12.61,24.68-12.27,35.79-10.3c0.08,0,0.17,0.09,0.17,0.17l0.25,4.72c0,0.17-0.08,0.26-0.25,0.17
			c-9.75-2.23-20.35-1.2-25.95,8.15c-1.95,3.17-2.37,6.78-1.27,10.81c3.14,12.01,16.88,14.16,27.22,11.75c0.08,0,0.17,0,0.17,0.17
			v5.06c0,0.09-0.08,0.17-0.17,0.26c-11.7,2.23-32.9,1.8-37.23-12.78C588.26,267.52,588.68,260.66,591.23,255z"/>
		<path d="M302.7,267.63c-0.51,0-0.68,0.17-0.68,0.69v17.83c0,0.34-0.17,0.43-0.42,0.43h-9.67c-0.25,0-0.42-0.17-0.42-0.43v-41.4
			c0-0.34,0.17-0.43,0.51-0.43c7.8,0.09,19.68-0.69,28.83,1.71c11.62,3.09,10.18,17.4-0.68,20.06
			C314.32,267.37,308.55,267.97,302.7,267.63z M303.46,263.6c0.17-0.34,0.51-0.51,0.93-0.6c2.71-0.09,5.34-0.34,8.06-0.77
			c8.99-1.46,8.06-11.4-0.17-12.69c-3.22-0.51-6.53-0.77-9.75-0.69c-0.34,0-0.42,0.17-0.42,0.51v15.77c0,0.77,0.17,0.77,0.51,0.17
			L303.46,263.6z"/>
		<path d="M412.58,256.29l-9.42,29.86c-0.08,0.26-0.25,0.43-0.51,0.43h-9.65c-0.17,0-0.42-0.17-0.42-0.34l-11.88-41.35
			c-0.08-0.34,0-0.51,0.34-0.51h8.21c0.25,0,0.51,0.17,0.59,0.43l8.62,30.19c0,0.09,0.17,0.17,0.34,0.17c0.08,0,0.17-0.09,0.17-0.17
			l8.92-29.94c0.17-0.43,0.51-0.68,0.93-0.68h7.98c0.51,0,0.93,0.34,1.1,0.85l8.67,30.03c0.08,0.17,0.17,0.26,0.34,0.17
			c0.08,0,0.17-0.09,0.17-0.17c0.42-0.85,6.09-23.19,8.21-30.54c0.08-0.26,0.25-0.43,0.51-0.43l7.82,0.09
			c0.34,0,0.42,0.17,0.34,0.43l-11.21,41.44c-0.08,0.17-0.25,0.26-0.42,0.26h-9.89c-0.25,0-0.42-0.09-0.51-0.34l-8.93-29.87
			C412.91,256.02,412.66,255.95,412.58,256.29z"/>
		<path d="M459.08,250.7v11.11c0,0.17,0.17,0.34,0.34,0.34l18.74-0.08c0.17,0,0.34,0.17,0.34,0.34v0.08l-1.61,5.09
			c-0.08,0.17-0.17,0.25-0.34,0.25h-17.13c-0.17,0-0.34,0.17-0.34,0.34l0,0v11.62c0,0.17,0.17,0.34,0.34,0.34l0,0l22.22,0.08
			c0.17,0,0.34,0.17,0.34,0.34l0.08,5.26c0,0.17-0.17,0.34-0.34,0.34l0,0H448.9c-0.17,0-0.34-0.17-0.34-0.34l0,0v-41.13
			c0-0.17,0.17-0.34,0.34-0.34h32.48c0.17,0,0.34,0.17,0.34,0.34c0,0.08,0,0.08,0,0.08l-1.78,4.83c-0.08,0.17-0.17,0.25-0.34,0.25
			l-20.27,0.08C459.25,250.36,459.08,250.53,459.08,250.7z"/>
		<path d="M512.43,266.29l16.62,19.77c0.34,0.34,0.25,0.51-0.25,0.51h-11.62c-0.34,0-0.59-0.17-0.76-0.34l-17.22-19.86
			c-0.08-0.17-0.34-0.17-0.51,0c-0.08,0.09-0.08,0.17-0.08,0.26l0.08,19.6c0,0.34-0.17,0.43-0.42,0.43h-10.69
			c-0.34,0-0.42-0.17-0.42-0.43v-41.26c0-0.26,0.08-0.34,0.34-0.34c9.41-0.34,17.72-0.26,24.85,0.34
			c5.6,0.43,12.72,3.42,12.89,10.19c0.17,7.62-6.28,10.1-12.55,10.96C512.35,265.95,512.26,266.12,512.43,266.29z M512.86,255.76
			c0-7.28-8.57-7.28-13.82-6.93c-0.25,0-0.34,0.17-0.34,0.34v14.98c0,0.51,0.17,0.6,0.51,0.26l1.1-1.03
			c0.17-0.17,0.42-0.26,0.68-0.26C506.24,262.95,512.86,262.61,512.86,255.76z"/>
		<path d="M564.11,268.17l-0.08,17.98c0,0.17-0.17,0.34-0.34,0.34l0,0h-9.84c-0.17,0-0.34-0.17-0.34-0.34l0,0v-41.52
			c0-0.17,0.17-0.34,0.34-0.34l0,0h32.9c0.17,0,0.34,0.17,0.34,0.34v0.09l-1.78,4.97c-0.08,0.17-0.17,0.26-0.34,0.26l-20.44,0.09
			c-0.17,0-0.34,0.17-0.34,0.34l0,0v11.3c0,0.17,0.17,0.34,0.34,0.34l0,0h19.51c0.17,0,0.34,0.17,0.34,0.34l0,0v5.22
			c0,0.17-0.17,0.34-0.34,0.34h-19.51C564.28,267.82,564.11,268,564.11,268.17z"/>
		<path d="M266.87,262.57h15.6c0.25,0,0.42,0.17,0.42,0.42v4.16c0,0.25-0.17,0.42-0.42,0.42h-15.6c-0.25,0-0.42-0.17-0.42-0.42V263
			C266.53,262.74,266.7,262.57,266.87,262.57z"/>
		<path d="M221.35,264.4c0,8.26-1.27,14.85-4.71,17.89c-3.31,2.92-8.7,5-17.56,5c-9.37,0-15.7-1.47-19.75-4.99
			c-4.05-3.23-5.82-8.8-5.82-16.73c0-8.8,2.28-14.97,6.58-17.9c4.05-2.64,10.13-4.4,18.48-4.4c6.33,0,9.51,0.65,13.05,1.82
			c3.54,1.47,6.79,2.74,8.51,7.3l-11.76,1.82c0-1.17-0.44-2.23-0.95-2.82c-0.76-0.88-1.52-1.47-2.28-1.76
			c-1.52-0.88-3.54-1.67-6.83-1.67c-4.3,0-7.34,1.17-9.11,3.52c-1.52,2.35-3.73,7.31-3.73,13.47c0,6.46,1.96,10.59,3.73,12.94
			s4.81,3.52,9.37,3.52c4.3,0,6.72-1.01,8.49-2.48c1.77-1.47,2.18-4.64,2.18-8.16v-1.82l-5.88-0.1l-2.01-4.33L221.35,264.4z"/>
		<path d="M265.93,244.17v1.06l-27.86,36.45l26.45-0.15l-2.74,5.32l-40.13-0.2l0-1.09l28.61-36.68H224.6l0.16-4.79L265.93,244.17z"
			/>
	</g>
	<g>
		<g>
			<polygon style="fill:#FEDD02;" points="488.19,117.8 546.77,117.29 546.37,127.53 526.53,127.72 527.74,128.29 536.67,129.05 
				540.25,134.33 547.77,134.37 547.58,145.37 532.89,146.18 535.83,150.64 535.84,192.42 531.54,203.24 508.36,203.39 
				513.07,189.86 512.92,185.75 487.23,190.77 487.31,178.53 513.07,173.74 512.92,166.37 487.76,170.78 487.38,158.62 
				513.05,154.44 513.05,151.17 511.33,148.81 487.49,151.24 487.33,139.69 496.81,139.24 490.42,130.01 511.65,131.48 
				514.8,136.65 521.89,136.4 516.67,128.24 488.4,128.9 			"/>
			<polygon style="fill:#FEDD02;" points="558.73,119.62 582.04,124.19 577.61,134.38 579.01,134.48 583.46,131.38 623.69,140.1 
				623.49,143.54 619.94,143.44 619.94,191.07 611.94,203.74 588.42,203.84 597.55,189.25 597.55,142.33 576.16,138.78 
				572.85,147.67 549.61,145.06 			"/>
			<polygon style="fill:#FEDD02;" points="556.61,150.11 575.96,151.85 585.59,182.76 566.07,182.12 			"/>
		</g>
		<path style="fill:#FEDD02;" d="M181.72,137.16c0,0,30.15-7.6,53.73-11.3v-3.85l22.23-5.42l-0.05,5.37c0,0,26.93-3.5,43.17-5.27
			l2.77-2.88l4.78-0.21l0.01,11.25c-44.9,3.54-104.34,14.54-104.34,14.54v41.15l-6.28,23.51h-22.33l6.11-21.89L181.72,137.16z"/>
		<g>
			<polygon style="fill:#FEDD02;" points="334.25,123.5 347.42,122.77 345.29,180.23 332.22,180.33 			"/>
			<path style="fill:#FEDD02;" d="M352.04,106.16l22.08-0.82l-0.3,61.42l-9.58,36.79h-21.89l9.2-35.08
				c0.35-1.34,0.53-2.71,0.52-4.09L352.04,106.16z"/>
			<polygon style="fill:#FEDD02;" points="377.38,121.67 390.39,121.75 394.35,179.94 381.84,179.94 			"/>
			<polygon style="fill:#FEDD02;" points="397.84,105.79 419.71,105.81 419.58,202.63 397.69,202.48 			"/>
			<polygon style="fill:#FEDD02;" points="422.75,121.64 435.54,121.91 439.54,179.65 426.76,179.65 			"/>
			<polygon style="fill:#FEDD02;" points="442.99,106.1 465.2,106.81 464.98,203.59 443.09,203.59 			"/>
		</g>
	</g>
</g>
</svg>
