<?xml version="1.0" encoding="UTF-8"?>
<svg data-name="图层_1" xmlns="http://www.w3.org/2000/svg" version="1.1" viewBox="0 0 800 800">
  <!-- Created by @FCLOGO 2025-1-9 GMT+8 10:42:11 . https://fclogo.top/ -->
<!-- FOR PERSONAL USE ONLY NOT FOR COMMERCIAL USE -->
  <path d="M348.2194,774.301c-.786,0-1.3752-.2173-1.7682-.6519-.393-.4352-.5284-1.03-.406-1.7856l.2518-1.6478c.122-.755.4501-1.3504.9841-1.785.5339-.4352,1.1939-.6525,1.9799-.6525.7553,0,1.3293.1987,1.7223.5954.3927.3967.551.9381.4747,1.6248h-1.2358c.0304-.3589-.0553-.637-.2573-.8357-.2024-.1981-.4979-.2974-.8869-.2974-.4197,0-.763.1167-1.03.3489-.2673.2328-.4349.5631-.5035.9903l-.2632,1.659c-.0686.4352-.0056.7686.1887,1.0015.1946.2328.5017.3489.9214.3489.389,0,.7152-.0987.9785-.2974.2632-.1981.4365-.4805.5206-.8469h1.2358c-.1372.6867-.4672,1.2306-.9897,1.631-.5228.4005-1.1616.6004-1.9169.6004ZM352.7967,774.1868l.9956-6.2943h1.1902l-.1946,1.1902c.3359-.8698.9729-1.3044,1.9113-1.3044.6712,0,1.1691.208,1.4932.624.3244.416.4293.9859.3148,1.7105l-.0686.4234h-1.2703l.0571-.3204c.0689-.4501.0115-.7953-.1714-1.0356-.1832-.2403-.4771-.3607-.8813-.3607-.4045,0-.7401.1223-1.007.3663-.2673.2446-.4349.588-.5035,1.03l-.6296,3.9711h-1.2358ZM361.9058,774.301c-.7705,0-1.3463-.2229-1.7279-.6693s-.515-1.0356-.4005-1.7682l.2518-1.6478c.0838-.488.2573-.9152.5206-1.2815s.6007-.6507,1.0129-.8524c.4119-.2024.8732-.3036,1.3845-.3036.7705,0,1.3485.2235,1.7338.6693.3852.4464.5169,1.0356.3949,1.7682l-.1717,1.1213h-3.845l-.0916.5265c-.1527.9536.2173,1.4305,1.1098,1.4305.7171,0,1.175-.2477,1.3734-.7438h1.2247c-.1679.5339-.5035.9599-1.007,1.2759-.5038.3166-1.0912.475-1.7626.475ZM361.2306,770.2157l-.0456.2862,2.6548-.0118.0459-.2856c.0686-.4656.0133-.822-.1661-1.0704-.1791-.2477-.4861-.3719-.9211-.3719-.4427,0-.7953.126-1.0586.3775-.2632.2521-.4331.6109-.5094,1.076ZM368.3258,774.301c-.6333,0-1.1027-.2117-1.4078-.6351s-.3967-1.0008-.2744-1.7335l.2744-1.7738c.1145-.7326.393-1.3119.8357-1.7397.4424-.4272.98-.6407,1.6133-.6407.4653,0,.8298.1186,1.093.3545.2632.2365.3908.5575.3834.9617h.023l.1717-1.202h1.2358l-.9956,6.2943h-1.2247l.1946-1.2014h-.023c-.122.4116-.3511.7339-.6867.9667s-.7401.3489-1.2129.3489ZM368.9324,773.2257c.389,0,.7152-.1186.9782-.3551.2632-.2359.4293-.5718.4979-1.007l.2518-1.6478c.0686-.4272.0096-.7612-.1773-1.0015-.1872-.2403-.475-.3601-.8642-.3601-.3967,0-.7249.118-.9841.3545-.2595.2365-.4234.5724-.492,1.007l-.2518,1.6478c-.0686.4427-.0133.7804.1658,1.0133.1794.2328.4712.3489.8757.3489ZM376.3477,774.1868c-.5721,0-.9937-.1565-1.2644-.4694-.271-.3123-.3607-.7512-.2691-1.3156l.538-3.3874h-1.7394l.1714-1.1219h1.7397l.2747-1.7161h1.2358l-.2747,1.7161h2.472l-.1832,1.1219h-2.4605l-.5377,3.3874c-.0764.4421.099.6637.5262.6637h1.7167l-.1717,1.1213h-1.7738ZM382.5042,774.301c-.7705,0-1.3463-.2229-1.7279-.6693s-.515-1.0356-.4005-1.7682l.2518-1.6478c.0838-.488.2573-.9152.5206-1.2815s.6007-.6507,1.0129-.8524c.4119-.2024.8732-.3036,1.3845-.3036.7705,0,1.3485.2235,1.7338.6693.3852.4464.5169,1.0356.3949,1.7682l-.1717,1.1213h-3.845l-.0916.5265c-.1527.9536.2173,1.4305,1.1098,1.4305.7171,0,1.175-.2477,1.3734-.7438h1.2247c-.1679.5339-.5035.9599-1.007,1.2759-.5038.3166-1.0912.475-1.7626.475ZM381.829,770.2157l-.0456.2862,2.6548-.0118.0459-.2856c.0686-.4656.0133-.822-.1661-1.0704-.1791-.2477-.4861-.3719-.9211-.3719-.4427,0-.7953.126-1.0586.3775-.2632.2521-.4331.6109-.5094,1.076ZM388.9243,774.301c-.6333,0-1.1008-.2117-1.4019-.6351-.3014-.4234-.3949-1.0008-.2803-1.7335l.2744-1.7738c.1145-.7326.393-1.3119.8357-1.7397.4424-.4272.98-.6407,1.6133-.6407.4653,0,.8298.1186,1.093.3545.2632.2365.3908.5575.3834.9617h.023l.2058-1.4652.2977-1.7962h1.2358l-1.3274,8.3537h-1.2247l.1946-1.2014h-.023c-.122.4116-.3511.7339-.6867.9667s-.7401.3489-1.2129.3489ZM389.5309,773.2257c.389,0,.7152-.1186.9782-.3551.2632-.2359.4293-.5718.4979-1.007l.2518-1.6478c.0761-.4272.0189-.7612-.1717-1.0015-.1909-.2403-.4805-.3601-.8698-.3601-.3967,0-.7249.118-.9841.3545-.2595.2365-.4234.5724-.492,1.007l-.2518,1.6478c-.0764.4427-.023.7804.1602,1.0133s.4768.3489.8813.3489ZM401.0175,774.301c-.4731,0-.8394-.1161-1.0986-.3489-.2595-.2328-.3852-.5551-.3775-.9667h-.0115l-.1946,1.2014h-1.2243l1.3274-8.3537h1.2358l-.2862,1.7962-.2744,1.4652h.0456c.122-.4123.353-.7345.6923-.9673.3396-.2322.7419-.3489,1.2076-.3489.633,0,1.1002.2136,1.4016.6407.3014.4278.3949,1.007.2806,1.7397l-.2747,1.7738c-.1145.7326-.3949,1.31-.8413,1.7335-.4461.4234-.9822.6351-1.6077.6351ZM400.7657,773.2257c.3967,0,.7227-.1161.9785-.3489.2555-.2328.4216-.5706.4976-1.0133l.2518-1.6478c.0689-.4346.0115-.7705-.1714-1.007-.1832-.2365-.4734-.3545-.8698-.3545-.3893,0-.7152.1198-.9785.3601s-.429.5743-.4979,1.0015l-.2518,1.6478c-.0686.4352-.0112.7711.1717,1.007.1832.2365.4731.3551.8698.3551ZM405.4694,776.2468l.1717-1.0642h1.934c.6407,0,1.007-.3017,1.0986-.9046l.1028-.6749.2061-1.1902h-.0345c-.122.4197-.3471.7438-.6752.9729-.3281.2285-.7286.3433-1.2014.3433-.6258,0-1.093-.2005-1.4019-.601s-.4104-.9443-.3033-1.631l.5836-3.6047h1.2358l-.5606,3.4793c-.0612.4116,0,.732.1832.9611s.4653.3433.8469.3433c.389,0,.7168-.1217.9841-.3663.267-.244.4309-.5836.492-1.0182l.538-3.3992h1.2358l-1.007,6.4086c-.0993.6029-.37,1.0778-.8124,1.4249-.4427.3471-.9996.5209-1.6707.5209h-1.9455ZM417.787,770.0853h3.221l.5368-1.8545h-5.4659l-1.7081,6.4419h2.1473l.5856-2.0985h3.0257l.4392-1.7081h-3.0257l.244-.7808ZM424.229,772.9158c-.5856,0-1.0249-.3904-1.0249-1.1225,0-.8784.6344-1.7569,1.6105-1.7569.488,0,.8784.244,1.0248.7808l1.9521-.8296c-.2928-1.1713-1.2689-1.9033-2.6353-1.9033-2.7817,0-4.1482,2.1473-4.1482,3.9042s1.2689,2.8305,3.0746,2.8305c1.3665,0,2.3425-.5856,2.9769-1.4153l-1.5129-1.1713c-.3904.4392-.8296.6832-1.3177.6832ZM430.9149,768.2308h-2.1473l-1.7569,6.4419h5.1242l.488-1.8545h-2.9281l1.2201-4.5874ZM439.7481,771.0125c0-1.6593-1.3177-2.9281-3.221-2.9281-2.1961,0-3.8066,1.8057-3.8066,3.8066,0,1.6593,1.3177,2.9281,3.221,2.9281,2.1961,0,3.8066-1.8057,3.8066-3.8066ZM434.9167,771.6957c0-.8296.5856-1.7081,1.5129-1.7081.7808,0,1.1713.5368,1.1713,1.2201,0,.8296-.5856,1.7081-1.5129,1.7081-.7808,0-1.1713-.5368-1.1713-1.2201ZM443.2131,772.2326h1.0737l-.1952.6832c-.1464.0488-.3416.0976-.5856.0976-.6832,0-1.2689-.3904-1.2689-1.2201,0-1.0249.732-1.9033,1.9521-1.9033.5856,0,1.1225.244,1.5129.5856l1.3665-1.3665c-.4392-.5368-1.5129-1.0737-2.7329-1.0737-2.5865,0-4.2946,1.7569-4.2946,3.8554,0,2.0497,1.6105,2.8793,3.221,2.8793.9272,0,1.8545-.2928,2.4889-.6832l.9272-3.3186h-3.1234l-.3416,1.4641ZM450.7775,768.0844c-2.1961,0-3.8066,1.8057-3.8066,3.8066,0,1.6593,1.3177,2.9281,3.221,2.9281,2.1961,0,3.8066-1.8057,3.8066-3.8066,0-1.6593-1.3177-2.9281-3.221-2.9281ZM450.3382,772.9158c-.7808,0-1.1713-.5368-1.1713-1.2201,0-.8296.5856-1.7081,1.5129-1.7081.7808,0,1.1713.5368,1.1713,1.2201,0,.8296-.5856,1.7081-1.5129,1.7081ZM437.9424,767.4987c-.0488.2928.0976.488.4392.488s.5368-.1952.6344-.488c.0488-.244-.0976-.488-.4392-.488s-.5856.244-.6344.488ZM432.1349,765.4978c-.4392,0-.732.244-.7808.5856s.0976.5856.5368.5856.732-.244.7808-.5856c.0976-.3416-.0976-.5856-.5368-.5856ZM433.0134,767.3035c-.0976.5368.1464.8784.8296.8784.6344,0,1.0737-.3904,1.1713-.8784s-.1464-.8784-.8296-.8784c-.6832,0-1.0737.3904-1.1713.8784ZM439.6017,777.552l-2.4401-1.8057h-1.5129l4.2458,3.1722,1.6105-3.1722h-.976l-.9272,1.8057ZM425.8394,767.1571l-2.0009-1.4641,23.1323-2.7817-2.1473,4.2458h1.0248l2.6841-5.3195-26.9877,3.221,2.7817,2.0985h1.5129ZM338.7186,785.7853l.6088-3.8315h2.32l-.084.5194h-1.7636l-.1837,1.1445h1.6272l-.084.5248h-1.6166l-.2573,1.6428h-.5668ZM342.97,785.8377c-.3568,0-.6228-.1005-.7978-.3019-.175-.201-.2345-.473-.1784-.8161l.2677-1.7006c.056-.3429.2029-.6148.4408-.8161.2379-.201.5355-.3019.8923-.3019s.6228.1.7979.2993c.1748.1993.2361.4707.1837.8136l-.2677,1.7057c-.0561.3431-.2039.6151-.4435.8161-.2398.2013-.5381.3019-.895.3019ZM343.0487,785.3339c.1925,0,.3483-.0524.4672-.1575.119-.1051.1942-.2571.2257-.4568l.2678-1.7006c.0315-.1993.0051-.3517-.0787-.4565-.084-.1051-.2223-.1575-.4148-.1575s-.3473.0524-.4645.1575c-.1173.1048-.1916.2571-.2231.4565l-.2677,1.7006c-.0315.1996-.0053.3517.0787.4568s.2204.1575.4094.1575ZM344.9961,785.7853l.6088-3.8315h1.202c.2379,0,.4391.0464.6036.139.1645.0928.2835.223.357.391s.091.3656.0524.5932c-.0384.2591-.14.4838-.3044.6746-.1645.1905-.3656.3209-.6036.391l.5354,1.6428h-.6194l-.4777-1.5748h-.5406l-.2466,1.5748h-.5668ZM345.8883,783.7068h.6352c.1889,0,.349-.0558.4803-.168.1313-.1119.2107-.2623.2388-.4514.0316-.1925,0-.3454-.0944-.4593-.0945-.1136-.2362-.1706-.4252-.1706h-.6352l-.1995,1.2493ZM349.545,785.7853l.6088-3.8315h1.2544c.3709,0,.6508.1048.8399.315.1889.2099.2553.4898.1993.8398-.0384.2344-.1216.4383-.2493.6114s-.2905.307-.4881.4015c-.1978.0945-.419.1418-.6639.1418h-.6928l-.2415,1.5221h-.5668ZM350.432,783.754h.6928c.1924,0,.3568-.0587.4934-.176.1364-.117.2204-.2737.2519-.4696s-.0017-.3525-.0997-.4699-.245-.1757-.441-.1757h-.6876l-.2099,1.2911ZM352.7466,785.7853l.6088-3.8315h2.2518l-.0787.5038h-1.6954l-.1731,1.0867h1.5115l-.0787.4986h-1.5115l-.1942,1.2387h1.6901l-.0787.5038h-2.2518ZM355.8434,785.7853l.6088-3.8315h1.202c.2379,0,.4391.0464.6036.139.1645.0928.2835.223.357.391s.091.3656.0524.5932c-.0384.2591-.14.4838-.3044.6746-.1645.1905-.3656.3209-.6036.391l.5354,1.6428h-.6194l-.4777-1.5748h-.5406l-.2466,1.5748h-.5668ZM356.7356,783.7068h.6352c.1889,0,.349-.0558.4803-.168.1313-.1119.2107-.2623.2388-.4514.0316-.1925,0-.3454-.0944-.4593-.0945-.1136-.2362-.1706-.4252-.1706h-.6352l-.1995,1.2493ZM360.1316,785.8377c-.385,0-.6736-.0951-.8661-.2859-.1924-.1908-.2641-.4505-.2151-.7794h.5668c-.028.1748.0105.3121.1155.4121.1051.0997.266.1495.483.1495.2029,0,.3701-.049.5012-.1469.1313-.098.2109-.2327.2389-.4044.0209-.1504.0007-.2788-.0604-.3856-.0614-.1068-.1583-.1811-.2913-.2233l-.4566-.1364c-.266-.0803-.4619-.217-.5879-.4095-.126-.1922-.1697-.4197-.1313-.6823.035-.2099.1121-.3935.2309-.551s.2729-.2799.4619-.3673.4024-.1313.6404-.1313c.3498,0,.6158.0954.7978.2859.182.1908.2485.4437.1995.7586h-.5668c.0279-.168-.0027-.3001-.092-.3964-.0891-.0963-.2301-.1444-.4225-.1444-.1889,0-.343.0447-.4619.1338-.119.0894-.1889.2144-.21.3753-.0245.1506-.007.2791.0525.3859s.1575.1811.2939.223l.4672.1469c.2624.0806.4558.2173.5801.4095.1242.1925.1653.4217.1233.6877-.035.217-.1155.4058-.2415.5667-.1259.1612-.2878.2862-.4855.3753-.1976.0894-.419.1338-.6639.1338ZM363.2651,785.8377c-.3568,0-.6228-.1005-.7978-.3019-.175-.201-.2345-.473-.1784-.8161l.2677-1.7006c.056-.3429.2029-.6148.4408-.8161.2379-.201.5355-.3019.8923-.3019s.6228.1.7979.2993c.1748.1993.2361.4707.1837.8136l-.2677,1.7057c-.0561.3431-.2039.6151-.4435.8161-.2398.2013-.5381.3019-.895.3019ZM363.3439,785.3339c.1925,0,.3483-.0524.4672-.1575.119-.1051.1942-.2571.2257-.4568l.2678-1.7006c.0315-.1993.0051-.3517-.0787-.4565-.084-.1051-.2223-.1575-.4148-.1575s-.3473.0524-.4645.1575c-.1173.1048-.1916.2571-.2231.4565l-.2677,1.7006c-.0315.1996-.0053.3517.0787.4568s.2204.1575.4094.1575ZM365.2754,785.7853l.6088-3.8315h.7086l.6194,3.186c.007-.098.0165-.217.0289-.3571.0121-.1398.0271-.2851.0446-.4354.0175-.1506.0367-.2888.0577-.4146l.315-1.9788h.525l-.609,3.8315h-.7085l-.6141-3.186c-.0071.0945-.0167.209-.0289.3437s-.0272.2757-.0446.4226c-.0177.1469-.0367.2833-.0578.4095l-.315,2.0102h-.5301ZM368.2252,785.7853l1.5851-3.8315h.7454l.3726,3.8315h-.5616l-.0735-.9711h-1.0865l-.3884.9711h-.5932ZM369.3852,784.3418h.8714l-.0893-1.1023c-.0175-.1959-.0298-.3654-.0367-.5089-.0071-.1435-.0105-.2432-.0105-.2993-.0175.0561-.0517.1558-.1024.2993s-.1146.3112-.1915.5038l-.441,1.1075ZM371.7208,785.7853l.6088-3.8315h.567l-.525,3.3118h1.6744l-.0787.5197h-2.2465ZM376.6785,785.8377c-.3673,0-.6342-.1005-.8003-.3019-.1663-.201-.2214-.475-.1654-.8213l.4357-2.7608h.567l-.4357,2.7554c-.0315.1962-.008.35.0708.4619.0787.1122.2144.168.4068.168.1925,0,.3473-.0558.4646-.168.1172-.1119.1915-.2657.2231-.4619l.4355-2.7554h.567l-.4357,2.7608c-.056.35-.2003.6245-.433.8241-.2328.1993-.5328.299-.9003.299ZM379.8435,785.8377c-.385,0-.6736-.0951-.8661-.2859-.1924-.1908-.2641-.4505-.2151-.7794h.5668c-.028.1748.0105.3121.1155.4121.1051.0997.266.1495.483.1495.2029,0,.3701-.049.5012-.1469.1313-.098.2109-.2327.2389-.4044.0209-.1504.0007-.2788-.0604-.3856-.0614-.1068-.1583-.1811-.2913-.2233l-.4566-.1364c-.266-.0803-.4619-.217-.5879-.4095-.126-.1922-.1697-.4197-.1313-.6823.035-.2099.1121-.3935.2309-.551s.2729-.2799.4619-.3673.4024-.1313.6404-.1313c.3498,0,.6158.0954.7978.2859.182.1908.2485.4437.1995.7586h-.5668c.0279-.168-.0027-.3001-.092-.3964-.0891-.0963-.2301-.1444-.4225-.1444-.1889,0-.343.0447-.4619.1338-.119.0894-.1889.2144-.21.3753-.0245.1506-.007.2791.0525.3859s.1575.1811.2939.223l.4672.1469c.2624.0806.4558.2173.5801.4095.1242.1925.1653.4217.1233.6877-.035.217-.1155.4058-.2415.5667-.1259.1612-.2878.2862-.4855.3753-.1976.0894-.419.1338-.6639.1338ZM381.9062,785.7853l.6088-3.8315h2.2518l-.0787.5038h-1.6954l-.1731,1.0867h1.5115l-.0787.4986h-1.5115l-.1942,1.2387h1.6901l-.0787.5038h-2.2518ZM386.9426,785.8377c-.3568,0-.6228-.1005-.7978-.3019-.175-.201-.2345-.473-.1784-.8161l.2677-1.7006c.056-.3429.2029-.6148.4408-.8161.2379-.201.5355-.3019.8923-.3019s.6228.1.7979.2993c.1748.1993.2361.4707.1837.8136l-.2677,1.7057c-.0561.3431-.2039.6151-.4435.8161-.2398.2013-.5381.3019-.895.3019ZM387.0213,785.3339c.1925,0,.3483-.0524.4672-.1575.119-.1051.1942-.2571.2257-.4568l.2678-1.7006c.0315-.1993.0051-.3517-.0787-.4565-.084-.1051-.2223-.1575-.4148-.1575s-.3473.0524-.4645.1575c-.1173.1048-.1916.2571-.2231.4565l-.2677,1.7006c-.0315.1996-.0053.3517.0787.4568s.2204.1575.4094.1575ZM388.9529,785.7853l.6088-3.8315h.7086l.6194,3.186c.007-.098.0165-.217.0289-.3571.0121-.1398.0271-.2851.0446-.4354.0175-.1506.0367-.2888.0577-.4146l.315-1.9788h.525l-.609,3.8315h-.7085l-.6141-3.186c-.0071.0945-.0167.209-.0289.3437s-.0272.2757-.0446.4226c-.0177.1469-.0367.2833-.0578.4095l-.315,2.0102h-.5301ZM392.249,785.7853l.6088-3.8315h.567l-.525,3.3118h1.6744l-.0787.5197h-2.2465ZM396.1174,785.7853l.2204-1.4119-.7506-2.4197h.5774l.4462,1.4486c.0279.0945.0498.1837.0656.2677.0157.084.0253.1469.0288.1888.0175-.0419.0464-.1048.0867-.1888.0402-.084.0883-.1731.1442-.2677l.8976-1.4486h.5984l-1.5275,2.4197-.2204,1.4119h-.5668ZM399.217,785.7853l.6088-3.8315h.7086l.6192,3.186c.0071-.098.0165-.217.029-.3571.012-.1398.0271-.2851.0444-.4354.0177-.1506.037-.2888.0578-.4146l.315-1.9788h.5248l-.6088,3.8315h-.7085l-.6141-3.186c-.0071.0945-.0167.209-.0289.3437s-.0272.2757-.0446.4226c-.0177.1469-.0367.2833-.0578.4095l-.315,2.0102h-.5301ZM403.5053,785.8377c-.3571,0-.6231-.1005-.7979-.3019-.1751-.201-.2344-.473-.1785-.8161l.2677-1.7006c.0561-.3429.203-.6148.4411-.8161.2378-.201.5354-.3019.8922-.3019.3571,0,.6228.1.7979.2993.1748.1993.2361.4707.1837.8136l-.2677,1.7057c-.0561.3431-.2039.6151-.4437.8161-.2395.2013-.5379.3019-.8947.3019ZM403.5839,785.3339c.1925,0,.3483-.0524.4673-.1575.1187-.1051.1942-.2571.2255-.4568l.2677-1.7006c.0316-.1993.0054-.3517-.0786-.4565-.084-.1051-.2224-.1575-.4146-.1575-.1925,0-.3474.0524-.4647.1575-.117.1048-.1914.2571-.223.4565l-.2677,1.7006c-.0316.1996-.0051.3517.0789.4568.0837.1051.2204.1575.4092.1575ZM406.3814,785.7853l.5248-3.3121h-1.0234l.084-.5194h2.6193l-.084.5194h-1.0289l-.5248,3.3121h-.567ZM409.5178,785.7853l.6088-3.8315h2.32l-.084.5194h-1.7636l-.1837,1.1445h1.6272l-.084.5248h-1.6166l-.2571,1.6428h-.567ZM413.7694,785.8377c-.3571,0-.6231-.1005-.7979-.3019-.1751-.201-.2344-.473-.1785-.8161l.2677-1.7006c.0561-.3429.203-.6148.4411-.8161.2378-.201.5354-.3019.8922-.3019.3571,0,.6228.1.7979.2993.1748.1993.2361.4707.1837.8136l-.2677,1.7057c-.0561.3431-.2039.6151-.4437.8161-.2395.2013-.5379.3019-.8947.3019ZM413.848,785.3339c.1925,0,.3483-.0524.4673-.1575.1187-.1051.1942-.2571.2255-.4568l.2677-1.7006c.0316-.1993.0054-.3517-.0786-.4565-.084-.1051-.2224-.1575-.4146-.1575-.1925,0-.3474.0524-.4647.1575-.117.1048-.1914.2571-.223.4565l-.2677,1.7006c-.0316.1996-.0051.3517.0789.4568.0837.1051.2204.1575.4092.1575ZM415.7952,785.7853l.6088-3.8315h1.202c.2381,0,.4391.0464.6037.139.1643.0928.2833.223.3568.391s.0911.3656.0527.5932c-.0387.2591-.1401.4838-.3044.6746-.1646.1905-.3659.3209-.6037.391l.5354,1.6428h-.6194l-.4776-1.5748h-.5408l-.2466,1.5748h-.567ZM416.6876,783.7068h.635c.1891,0,.3491-.0558.4804-.168.131-.1119.2107-.2623.2386-.4514.0316-.1925,0-.3454-.0945-.4593-.0943-.1136-.2361-.1706-.4252-.1706h-.635l-.1993,1.2493ZM420.905,785.8377c-.3602,0-.6308-.1005-.8107-.3019-.1803-.201-.2423-.473-.1865-.8161l.2677-1.7006c.0561-.3463.2056-.6194.4488-.8187s.545-.2993.9056-.2993c.3568,0,.6253.1008.8056.3019.1803.2013.2423.4733.1865.8161h-.567c.0313-.1993.0026-.3517-.0866-.4565-.0894-.1051-.2284-.1575-.4175-.1575-.1925,0-.3508.0524-.475.1575-.1242.1048-.2019.2554-.2335.4514l-.2677,1.7057c-.0316.1996-.0026.3517.0866.4568.0894.1051.2301.1575.4226.1575s.35-.0524.4724-.1575.1993-.2571.2309-.4568h.5667c-.0347.2275-.1145.4252-.2386.5932s-.2808.2976-.4699.3884c-.1888.0908-.4024.1364-.6404.1364ZM424.0335,785.8377c-.3571,0-.6231-.1005-.7979-.3019-.1751-.201-.2344-.473-.1785-.8161l.2677-1.7006c.0561-.3429.203-.6148.4411-.8161.2378-.201.5354-.3019.8922-.3019.3571,0,.6228.1.7979.2993.1748.1993.2361.4707.1837.8136l-.2677,1.7057c-.0561.3431-.2039.6151-.4437.8161-.2395.2013-.5379.3019-.8947.3019ZM424.1121,785.3339c.1925,0,.3483-.0524.4673-.1575.1187-.1051.1942-.2571.2255-.4568l.2677-1.7006c.0316-.1993.0054-.3517-.0786-.4565-.084-.1051-.2224-.1575-.4146-.1575-.1925,0-.3474.0524-.4647.1575-.117.1048-.1914.2571-.223.4565l-.2677,1.7006c-.0316.1996-.0051.3517.0789.4568.0837.1051.2204.1575.4092.1575ZM425.9653,785.7853l.6088-3.8315h.6874l.1837,1.2282c.0211.119.0367.2301.0473.3332.0105.1034.0194.1828.0262.2389.0177-.0561.0473-.1364.0894-.2415.0419-.1051.0908-.217.1469-.336l.5667-1.2228h.7088l-.6088,3.8315h-.5354l.2045-1.2911c.0245-.168.0578-.3525.1-.5539.0419-.201.0874-.4041.1364-.6088s.0963-.3998.1418-.5852c.0453-.1854.0874-.3483.1259-.4881l-.8554,1.8632h-.5513l-.2833-1.8632c-.0037.1364-.0105.2947-.0211.475s-.0236.3719-.0393.5747c-.0157.203-.035.4069-.0578.6114-.0228.2047-.0481.3964-.076.5749l-.2047,1.2911h-.5405ZM429.1145,785.7853l.6088-3.8315h.6874l.1837,1.2282c.0211.119.0367.2301.0473.3332.0105.1034.0194.1828.0262.2389.0177-.0561.0473-.1364.0894-.2415.0419-.1051.0908-.217.1469-.336l.5667-1.2228h.7088l-.6088,3.8315h-.5354l.2045-1.2911c.0245-.168.0578-.3525.1-.5539.0419-.201.0874-.4041.1364-.6088s.0963-.3998.1418-.5852c.0453-.1854.0874-.3483.1259-.4881l-.8554,1.8632h-.5513l-.2833-1.8632c-.0037.1364-.0105.2947-.0211.475s-.0236.3719-.0393.5747c-.0157.203-.035.4069-.0578.6114-.0228.2047-.0481.3964-.076.5749l-.2047,1.2911h-.5405ZM432.4107,785.7853l.6088-3.8315h2.2516l-.0786.5038h-1.6955l-.1731,1.0867h1.5115l-.0786.4986h-1.5118l-.1942,1.2387h1.6901l-.0786.5038h-2.2516ZM435.5073,785.7853l.6088-3.8315h1.202c.2381,0,.4391.0464.6037.139.1643.0928.2833.223.3568.391s.0911.3656.0527.5932c-.0387.2591-.1401.4838-.3044.6746-.1646.1905-.3659.3209-.6037.391l.5354,1.6428h-.6194l-.4776-1.5748h-.5408l-.2466,1.5748h-.567ZM436.3997,783.7068h.635c.1891,0,.3491-.0558.4804-.168.131-.1119.2107-.2623.2386-.4514.0316-.1925,0-.3454-.0945-.4593-.0943-.1136-.2361-.1706-.4252-.1706h-.635l-.1993,1.2493ZM439.8007,785.8377c-.3602,0-.6308-.1005-.8107-.3019-.1803-.201-.2423-.473-.1865-.8161l.2677-1.7006c.0561-.3463.2056-.6194.4488-.8187s.545-.2993.9056-.2993c.3568,0,.6253.1008.8056.3019.1803.2013.2423.4733.1865.8161h-.567c.0313-.1993.0026-.3517-.0866-.4565-.0894-.1051-.2284-.1575-.4175-.1575-.1925,0-.3508.0524-.475.1575-.1242.1048-.2019.2554-.2335.4514l-.2677,1.7057c-.0316.1996-.0026.3517.0866.4568.0894.1051.2301.1575.4226.1575s.35-.0524.4724-.1575.1993-.2571.2309-.4568h.5667c-.0347.2275-.1145.4252-.2386.5932s-.2808.2976-.4699.3884c-.1888.0908-.4024.1364-.6404.1364ZM441.8792,785.7853l.0789-.5038h.7768l.4459-2.824h-.7766l.0837-.5038h2.1258l-.084.5038h-.7766l-.4462,2.824h.7768l-.0789.5038h-2.1258ZM444.7399,785.7853l1.585-3.8315h.7452l.3728,3.8315h-.5616l-.0735-.9711h-1.0867l-.3884.9711h-.5929ZM445.8998,784.3418h.8714l-.0894-1.1023c-.0174-.1959-.0296-.3654-.0367-.5089-.0068-.1435-.0103-.2432-.0103-.2993-.0177.0561-.0518.1558-.1025.2993s-.1148.3112-.1916.5038l-.4408,1.1075ZM448.2354,785.7853l.6088-3.8315h.567l-.5248,3.3118h1.6741l-.0786.5197h-2.2465ZM453.1932,785.8377c-.3676,0-.6345-.1005-.8005-.3019-.1663-.201-.2213-.475-.1654-.8213l.4357-2.7608h.567l-.4357,2.7554c-.0316.1962-.008.35.0709.4619.0786.1122.2141.168.4066.168s.3474-.0558.4645-.168c.1173-.1119.1916-.2657.2233-.4619l.4357-2.7554h.5667l-.4357,2.7608c-.0558.35-.2002.6245-.4328.8241-.2329.1993-.5328.299-.9001.299ZM456.3581,785.8377c-.385,0-.6738-.0951-.866-.2859-.1925-.1908-.2643-.4505-.2153-.7794h.567c-.0282.1748.0105.3121.1153.4121.1051.0997.266.1495.483.1495.2028,0,.3699-.049.5012-.1469s.2107-.2327.2389-.4044c.0211-.1504.0009-.2788-.0604-.3856s-.1583-.1811-.2913-.2233l-.4568-.1364c-.266-.0803-.4619-.217-.5878-.4095-.1259-.1922-.1697-.4197-.1313-.6823.035-.2099.1119-.3935.2309-.551s.2731-.2799.4619-.3673c.1891-.0874.4024-.1313.6404-.1313.3497,0,.6157.0954.7979.2859.1817.1908.2483.4437.1993.7586h-.567c.0279-.168-.0026-.3001-.0917-.3964-.0894-.0963-.2301-.1444-.4226-.1444-.1891,0-.3429.0447-.4619.1338-.119.0894-.1891.2144-.2099.3753-.0245.1506-.0071.2791.0524.3859s.1575.1811.2939.223l.4673.1469c.2623.0806.4556.2173.5798.4095.1242.1925.1654.4217.1236.6877-.035.217-.1156.4058-.2415.5667-.1262.1612-.2879.2862-.4855.3753-.1979.0894-.4192.1338-.6641.1338ZM458.4209,785.7853l.6088-3.8315h2.2516l-.0786.5038h-1.6955l-.1731,1.0867h1.5115l-.0786.4986h-1.5118l-.1942,1.2387h1.6901l-.0786.5038h-2.2516Z" style="fill: #ccc;"/>
  <path d="M682.8336,208.1224c-20.0941-12.4329-40.9391-23.566-62.4946-33.3416-54.1866-24.577-111.002-39.7255-169.4638-45.2776l29.2858-21.2726h-61.2292l-18.9211-58.2307-18.9154,58.2307h-61.2523l29.2742,21.2726c-58.4618,5.5521-115.2714,20.7006-169.458,45.2776-21.5497,9.7755-42.3949,20.9087-62.4886,33.3416-.9881,25.1839-.5605,50.6164,1.3576,76.2161,10.2953,137.8439,62.3328,265.8027,146.5274,360.31,40.2571,45.1911,85.9739,80.653,134.9552,105.3515,48.9753-24.6985,94.6863-60.1546,134.9378-105.34,84.1888-94.5132,136.2319-222.4775,146.5274-360.3215,1.9123-25.5996,2.3399-51.0322,1.3578-76.2161M381.0952,113.8001h4.0501l1.2478-3.8475,13.6176-41.9213,13.623,41.9213,1.2479,3.8475h48.1262l-35.6641,25.9061-3.2757,2.3802,1.2536,3.8535,13.6174,41.9213-35.6525-25.9061-3.2757-2.3862-3.2759,2.3862-35.6756,25.9234,13.6232-41.9326,1.2479-3.8479-3.2701-2.3802-35.67-25.9177h44.105ZM435.4841,159.1877c75.8982,5.4308,150.1555,28.1996,216.9891,66.7293.2426,18.6726-.341,37.5128-1.7333,56.128-7.268,97.3035-36.4787,190.199-84.4776,268.6565-43.6256,71.311-101.007,127.9991-166.2632,164.3565-65.2504-36.3516-122.632-93.0455-166.2574-164.3565-47.9989-78.4517-77.2096-171.353-84.4834-268.6565-1.3923-18.6381-1.9701-37.4782-1.7275-56.128,66.8335-38.5298,141.0907-61.2985,216.9891-66.7293l-14.0566,43.2846,49.5474-36.011,49.53,35.9877-14.0566-43.2613ZM676.5708,283.9746c-15.6799,209.8193-127.3693,384.009-276.5717,460.4502-149.1966-76.4412-260.8916-250.6309-276.5659-460.4502-1.843-24.6581-2.2937-49.0275-1.4444-72.998,69.7279-42.7588,148.8441-69.9012,233.212-77.0535l14.0046,10.174c-82.6406,4.9858-163.542,29.9271-235.6848,72.9285l-.5836.3466-.0173.676c-.5372,21.573.0058,43.4694,1.6235,65.0946,7.4413,99.6319,37.3915,194.815,86.6037,275.2601,46.4159,75.8636,108.0613,135.7409,178.2744,173.1498l.5778.3063.5778-.3063c70.2189-37.4089,131.8643-97.2862,178.2744-173.1498,49.2181-80.4451,79.1624-175.6282,86.6096-275.2601,1.6119-21.6019,2.1607-43.5043,1.6235-65.0946l-.0173-.676-.5836-.3466c-72.1487-43.0071-153.0559-67.9484-235.7021-72.9285l14.0102-10.174c84.3681,7.1523,163.49,34.2947,233.2237,77.0535.8493,23.9705.3986,48.3398-1.4444,72.998M232.7221,457.7004c19.2621,28.4944,41.7073,54.2733,66.7062,76.7302v85.8064c-20.6022-22.6764-39.4771-47.9006-56.2491-75.3147-3.5993-5.8813-7.0716-11.861-10.4571-17.9043v-69.3176M500.5738,534.4329c24.9989-22.4569,47.4443-48.2358,66.7062-76.7302v69.3178c-3.3798,6.0431-6.8577,12.017-10.4571,17.9043-16.7718,27.4139-35.6467,52.6382-56.2491,75.3146v-85.8064M384.7287,631.9522h6.0779v9.8043h-6.0779v-9.8043ZM400.0024,600.2207c-14.8248-6.6557-29.2107-14.2992-43.1055-22.8268v95.9806c13.9005,10.6941,28.2865,20.3771,43.1055,28.9565,14.8135-8.5794,29.2051-18.2624,43.0998-28.9507v-95.9864c-13.8891,8.5276-28.2807,16.1711-43.0998,22.8268M376.7657,658.2088h-4.6221v-22.8151c-.9417,1.4618-2.6865,2.2127-4.0037,2.2127v-4.0961c2.2127-.1906,4.0037-2.2186,4.0037-5.9393h4.6221v30.6378ZM395.3805,653.6331c0,3.1602-1.3172,4.5757-4.2869,4.5757h-9.8505v-4.3851h9.5675v-7.7763h-6.1761c-3.2528,0-4.4313-1.5542-4.4313-4.9976v-8.2964c0-3.1544,1.3229-5.1824,4.1943-5.1824h6.5054c3.0158,0,4.4775,1.693,4.4775,5.2288v20.8334ZM413.672,653.2575c0,3.1082-1.4156,4.9512-4.2927,4.9512h-6.5516c-3.2006,0-4.4313-2.0278-4.4313-5.0956v-4.0963h4.6219v4.9456h6.0779v-9.5675h-5.7485v-4.1483h5.6099v-8.435h-5.9393v4.0037h-4.5699v-3.3912c0-3.3452.8955-4.8532,4.4255-4.8532h6.4592c3.2988,0,4.1943,1.6466,4.1943,4.7144v6.7828c0,1.5598-.4679,2.6403-1.4616,3.2064,1.1325.5661,1.6062,1.7448,1.6062,3.6802v7.3027ZM431.865,653.2575c0,3.1082-1.4154,4.9512-4.2869,4.9512h-6.5516c-3.2064,0-4.4313-2.0278-4.4313-5.0956v-4.0963h4.6162v4.9456h6.0837v-9.5675h-5.7543v-4.1483h5.6098v-8.435h-5.9391v4.0037h-4.57v-3.3912c0-3.3452.8955-4.8532,4.4313-4.8532h6.4534c3.299,0,4.1945,1.6466,4.1945,4.7144v6.7828c0,1.5598-.4679,2.6403-1.456,3.2064,1.1266.5661,1.6004,1.7448,1.6004,3.6802v7.3027ZM413.3119,465.0077c17.6731,13.6232,38.8995,33.9424,38.7145,52.829,0,0-15.5124-22.6129-23.5891-28.7544-8.0769-6.1355-19.7069-7.4297-19.7069-9.3652,0-1.9412,7.4298-2.5883,7.4298-2.5883,0,0-7.6668-3.6051-15.8765-7.0947-8.4177,3.5589-16.4426,7.3375-16.4426,7.3375,0,0,7.4298.6413,7.4298,2.5825,0,1.9354-11.63,3.2295-19.7069,9.3711-8.0767,6.1355-23.5891,28.7542-23.5891,28.7542-.185-19.0424,21.3939-39.5407,39.1479-53.164-.8262-.2773-1.6004-.5143-2.2995-.7107-9.3711-2.5825-27.2406-11.9477-6.1357-10.6594l3.5532.3235s-36.8312-13.5712-37.8018-23.26c0,0-1.0863-3.3625,10.9829-.6471,0,0-25.5247-21.0009-25.2012-28.4307,0,0-.965-5.4943,7.112.3235,0,0-3.8766-24.5541,1.2883-27.4659,0,0,6.1415,43.6196,51.373,74.6329,0,0,4.0963,2.4033,10.1856,6.5111,5.8873-3.9632,9.8275-6.2743,9.8275-6.2743,45.2314-31.0132,51.373-74.6271,51.373-74.6271,5.1707,2.906,1.2941,27.4601,1.2941,27.4601,8.0767-5.8178,7.1061-.3235,7.1061-.3235.3235,7.4298-25.2012,28.4309-25.2012,28.4309,11.7629-1.6582,10.9829.6471,10.9829.6471-.9706,9.6946-37.8018,23.26-37.8018,23.26l3.5589-.3235c20.3598-.6587,3.2297,8.0767-6.1413,10.6652-.5778.1559-1.2018.3466-1.8661.5603M372.2339,404.7156c-.3235.5316-.5085,1.1614-.5085,1.8257,0,1.9412,1.5715,3.5127,3.507,3.5127.4217,0,.826-.0751,1.1958-.208l.3121.9591,1.9239,6.9676c5.8756-1.3692,13.8138-1.7275,21.7116-1.7044,7.6494.0231,15.2698.3814,20.9605,1.7044l1.9239-6.9676.3119-.9591c.3699.1388.7742.208,1.1959.208,1.9356,0,3.5127-1.5715,3.5127-3.5127,0-.6643-.1848-1.2941-.5141-1.8257,1.5542-1.1034,3.0793-3.6629,3.4607-5.0436,2.1724-7.9845-3.53-10.9887-8.9031-10.0065.1388.9417.208,1.9065.208,2.8887,0,1.1901-.104,2.3513-.3004,3.4838.3928-.052.7858-.0636,1.1728-.0289,3.4549.3177,4.4602,4.8068,3.6051,7.8285-.6065-.5027-1.3923-.8089-2.2416-.8089-1.9412,0-3.5183,1.5715-3.5183,3.5127,0,.9359.3639,1.7795.9532,2.4091l-5.6387,3.6745-1.7506-5.6216c1.6986-.2484,2.9986-1.7101,2.9986-3.4721,0-.572-.1388-1.1094-.3814-1.5888,1.4154-1.5657,2.6172-3.7497,2.9755-5.0727,4.3042-15.7897-16.0671-15.9862-20.406-5.4943-4.3331-10.4919-24.7101-10.2955-20.406,5.4943.3583,1.3231,1.5657,3.507,2.9755,5.0727-.2426.4794-.3814,1.0168-.3814,1.5888,0,1.7621,1.3058,3.2237,2.9986,3.4721l-1.7506,5.6216-5.6387-3.6745c.5892-.6296.9532-1.4733.9532-2.4091,0-1.9412-1.5771-3.5127-3.5183-3.5127-.8493,0-1.6293.3063-2.2416.8146-.8551-3.0273.1559-7.5164,3.6051-7.8341.3928-.0347.7857-.0231,1.1728.0289-.1964-1.1325-.3004-2.2937-.3004-3.4838,0-.9822.0693-1.947.2079-2.8887-5.373-.9764-11.0753,2.022-8.8971,10.0065.3755,1.3807,1.9065,3.9403,3.4549,5.0436M403.6226,396.714c1.404-3.1661,4.2985-4.6624,7.0139-4.414,3.6455.335,5.1073,4.3909,4.8299,7.9151-.3641-.1271-.7569-.1964-1.167-.1964-1.9412,0-3.5127,1.5715-3.5127,3.5127,0,1.1959.5951,2.2475,1.5078,2.8829l-5.9566,3.351-2.9638-4.6279c1.271-1.0052,2.0914-2.5652,2.0914-4.3156,0-1.6351-.7164-3.1026-1.843-4.1077M384.5341,400.215c-.2773-3.5242,1.1843-7.5801,4.8299-7.9151,2.7154-.2484,5.6099,1.2479,7.0137,4.414-1.1265,1.0052-1.8372,2.4784-1.8372,4.1077,0,1.7504.8146,3.3105,2.0856,4.3214l-2.9638,4.6221-5.9508-3.351c.9071-.6354,1.508-1.6928,1.508-2.8829,0-1.9412-1.5773-3.5185-3.5185-3.5185-.4045,0-.8031.0751-1.167.2022M419.3813,424.0827c-12.3118-1.4327-26.3164-1.4327-38.628,0l-.7684-3.8766c5.4134-1.352,12.9067-1.7044,20.3596-1.6811,7.2276.0173,14.4205.3697,19.6722,1.6811l-.6354,3.8766ZM380.9052,426.4873c0-2.3399,38.1946-2.3399,38.1946,0,0,2.3457-38.1946,2.3457-38.1946,0M396.06,382.5003c-5.5174-.7742-.8146-8.3368,3.3105-1.1959-.2946-1.3809-.9879-2.5017-.9879-4.7896,0-2.0798.8029-2.9869,1.6177-3.969.8146.9821,1.6177,1.8892,1.6177,3.969,0,2.2937-.6933,3.403-.9881,4.7954,4.1252-7.1525,8.828.4159,3.3106,1.1901,1.0919-1.7968-1.6582-2.5363-2.7618-.6067-.0924.156-.1675.3063-.2195.4507.289.0867.5027.3583.5027.6818,0,.3408-.2426.6298-.572.6933.3063.7742,1.2307,1.063,1.8892.6356-.1386.9128-.9417,1.1439-1.6639.8549.0116.6645-.2368,1.3231-1.115,1.895-.8724-.572-1.1266-1.2305-1.115-1.895-.7165.289-1.5253.0578-1.664-.8549.6587.4274,1.5831.1386,1.8894-.6356-.3237-.0635-.5721-.3525-.5721-.6933,0-.3235.2139-.5951.5085-.6818-.0578-.1444-.1329-.2946-.2195-.4507-1.1094-1.9296-3.8593-1.1901-2.7674.6067M410.1147,510.2533v5.0553h-7.5857v7.5857h-5.0553v-7.5857h-7.5857v-5.0553h7.5857v-7.5857h5.0553v7.5857h7.5857ZM402.529,500.141c0,1.3982-1.1325,2.5304-2.5304,2.5304-1.3923,0-2.5248-1.1323-2.5248-2.5304s1.1325-2.5304,2.5248-2.5304c1.398,0,2.5304,1.1323,2.5304,2.5304M412.6412,510.2533c1.3982,0,2.5304,1.1325,2.5304,2.5304,0,1.3923-1.1323,2.5248-2.5304,2.5248s-2.5304-1.1325-2.5304-2.5248c0-1.398,1.1323-2.5304,2.5304-2.5304M387.3609,510.2533c1.3982,0,2.5304,1.1325,2.5304,2.5304,0,1.3923-1.1323,2.5248-2.5304,2.5248s-2.5304-1.1325-2.5304-2.5248c0-1.398,1.1323-2.5304,2.5304-2.5304M397.4732,525.4213c0-1.3982,1.1325-2.5304,2.5304-2.5304,1.3923,0,2.5248,1.1323,2.5248,2.5304s-1.1325,2.5304-2.5248,2.5304c-1.398,0-2.5304-1.1323-2.5304-2.5304M472.2158,463.2352v5.0553h-7.5857v7.5857h-5.0553v-7.5857h-7.5857v-5.0553h7.5857v-7.5857h5.0553v7.5857h7.5857ZM464.6301,453.123c0,1.3982-1.1325,2.5304-2.5304,2.5304-1.3923,0-2.5248-1.1323-2.5248-2.5304s1.1325-2.5304,2.5248-2.5304c1.398,0,2.5304,1.1323,2.5304,2.5304M474.7418,463.2352c1.3982,0,2.5304,1.1325,2.5304,2.5304,0,1.3923-1.1323,2.5248-2.5304,2.5248s-2.5304-1.1325-2.5304-2.5248c0-1.398,1.1323-2.5304,2.5304-2.5304M449.4615,463.2352c1.3982,0,2.5304,1.1325,2.5304,2.5304,0,1.3923-1.1323,2.5248-2.5304,2.5248s-2.5304-1.1325-2.5304-2.5248c0-1.398,1.1323-2.5304,2.5304-2.5304M459.5736,478.4033c0-1.3982,1.1325-2.5304,2.5304-2.5304,1.3923,0,2.5248,1.1323,2.5248,2.5304s-1.1325,2.5304-2.5248,2.5304c-1.398,0-2.5304-1.1323-2.5304-2.5304M348.0141,463.1307v5.0553h-7.5857v7.5857h-5.0553v-7.5857h-7.5857v-5.0553h7.5857v-7.5857h5.0553v7.5857h7.5857ZM340.4284,453.0189c0,1.3982-1.1325,2.5304-2.5304,2.5304-1.3923,0-2.5248-1.1323-2.5248-2.5304s1.1325-2.5304,2.5248-2.5304c1.398,0,2.5304,1.1323,2.5304,2.5304M350.5401,463.1307c1.3982,0,2.5304,1.1325,2.5304,2.5304,0,1.3923-1.1323,2.5248-2.5304,2.5248s-2.5304-1.1325-2.5304-2.5248c0-1.398,1.1323-2.5304,2.5304-2.5304M325.2603,463.1307c1.3982,0,2.5304,1.1325,2.5304,2.5304,0,1.3923-1.1323,2.5248-2.5304,2.5248s-2.5304-1.1325-2.5304-2.5248c0-1.398,1.1323-2.5304,2.5304-2.5304M335.3721,478.2988c0-1.3982,1.1325-2.5304,2.5304-2.5304,1.3923,0,2.5248,1.1323,2.5248,2.5304s-1.1325,2.5304-2.5248,2.5304c-1.398,0-2.5304-1.1323-2.5304-2.5304M257.5302,308.7062l-25.4669,8.0305,1.9412,18.9847-19.5219,6.153-8.4756-98.4301,31.2732-9.8563,49.2181,85.5868-19.6663,6.1994-9.3018-16.668ZM230.1914,299.4392l18.9616-5.9739-21.2842-38.4026-2.1203.6703,4.4429,43.7062ZM382.1866,288.4163c1.0977,11.0695-3.9633,18.5803-15.0387,19.6838l-33.0642,3.2874c-9.4462.9417-17.2226-3.8017-18.43-15.9054l-1.5253-15.3564,19.782-1.9645,1.5426,15.5009,27.0095-2.6865-1.6119-16.2402-38.9515-10.8849c-7.2449-2.4091-9.9719-5.8642-10.8096-14.2817l-1.7044-17.1243c-1.1034-11.0697,4.3794-15.9341,14.4149-16.9338l34.0983-3.3912c12.6988-1.2652,17.1706,4.7026,18.4011,17.1013l1.2596,12.6928-19.7762,1.9701-1.3982-14.0219-27.0153,2.6867,1.4271,14.3163,39.067,10.5728c7.5395,2.3862,9.8101,5.7369,10.7056,14.7384l1.6177,16.2402ZM488.4648,296.2113c-1.2421,11.058-7.7707,17.3381-18.8287,16.096l-33.018-3.7149c-9.4345-1.063-16.044-7.3316-14.6806-19.4179l1.7217-15.3333,19.7531,2.224-1.7448,15.4778,26.9807,3.0333,1.8199-16.2117-35.7971-18.8056c-6.5805-3.8764-8.5218-7.8283-7.5799-16.2286l1.9238-17.1013c1.2479-11.052,7.6204-14.6629,17.6444-13.5366l34.0521,3.8306c12.6757,1.4271,15.7956,8.1982,14.4032,20.5793l-1.4271,12.6755-19.7531-2.2244,1.5773-13.9986-26.9749-3.0389-1.606,14.299,35.976,18.5284c6.8752,3.9113,8.3946,7.6608,7.3837,16.6507l-1.8257,16.2171ZM551.3361,230.059l56.2953,17.309-5.1418,16.7318-37.0161-11.3761-6.4476,20.9838,26.5184,8.152-5.1015,16.5929-26.5184-8.152-6.4996,21.128,37.0103,11.3759-5.142,16.7373-56.2953-17.3092,28.3383-92.1733ZM356.8982,547.6229h3.0562v15.888h7.5281v2.854h-10.5843v-18.7419ZM376.906,563.3104v-12.9472c0-1.8719.9533-2.7387,2.6519-2.7387h6.7768c2.08,0,2.7098,1.1208,2.7098,3.2586v12.225c0,1.9007-.9764,3.2584-2.9407,3.2584h-6.3725c-1.5831,0-2.8252-.9244-2.8252-3.0562M386.017,550.4786h-6.0837v13.034h6.0837v-13.034ZM398.4732,547.6245h3.0562v18.7419h-3.0562v-18.7419ZM411.1258,566.3666v-18.7421h9.1977c1.8486,0,2.5708.9822,2.5708,3.0275v7.0079c0,1.5542-.5778,2.4208-1.8776,2.623l2.0798,6.0837h-3.0562l-2.0221-5.968h-3.8362v5.968h-3.0562ZM419.896,550.4786h-5.7081v7.1525h5.7081v-7.1525ZM432.6935,547.6229h10.411v2.7963h-7.3547v5.2228h5.1304v2.7385h-5.1304v5.1882h7.3547v2.7962h-10.411v-18.7419ZM276.8824,366.0906c.8782,3.0158.0809,5.1882-2.7269,6.0028l-7.2276,2.1031c-2.3342.6816-4.4429-.2253-5.3615-3.3741l-1.3345-4.5873,4.2925-1.2536,1.4849,5.1015,6.8462-1.9932-1.7564-6.0317-10.5092-2.0625c-1.7273-.3755-2.5074-1.1614-3.062-3.0737l-1.5137-5.1824c-.8262-2.8482.156-4.3793,2.7501-5.136l7.4413-2.1665c3.0562-.8899,4.4544.2715,5.3961,3.5069l1.1612,3.9921-4.2522,1.2365-1.3462-4.6335-6.8404,1.9932,1.5195,5.2286,10.5554,2.0452c1.7217.3755,2.4035,1.1439,2.9755,3.0966l1.5078,5.1882ZM295.7544,360.435l-6.8521,1.6119.3352,6.0606-4.4833,1.0515-1.2883-29.2627,7.3315-1.7217,11.8439,26.7783-4.5238,1.069-2.363-5.5868ZM288.6598,357.916l5.477-1.2883-5.7081-13.4384-.6065.1388.8377,14.588ZM304.6667,335.2437l4.4775-.8608,5.4308,28.2632-4.4775.8608-5.4308-28.2632ZM334.7636,359.3378l-6.6209-12.1385c-1.1728-2.1953-3.01-6.1355-4.6104-9.7002.6702,3.6167,1.3809,7.5395,1.6524,9.3767l1.9989,13.577-3.9401.5836-4.1945-28.4713,5.5174-.8146,6.8983,12.8143c1.2423,2.3226,3.195,6.4651,4.8243,9.9372-.6818-3.7033-1.4791-7.9267-1.7737-9.8966l-2.0625-14.0162,3.9403-.5834,4.1943,28.4713-5.8236.8608ZM351.3826,332.6415l-6.1703.5836-.3986-4.2349,16.8355-1.5889.3986,4.2349-6.1241.5778,2.3051,24.4212-4.5411.4276-2.3051-24.4212ZM367.6379,340.1625l9.6368-.5489.237,4.2001-9.6369.5489-.2368-4.2001ZM385.7552,326.1657l13.9409-.2253.0695,4.206-9.4289.1502.1329,8.2328,6.6382-.1038.0695,4.073-6.6442.104.1329,8.1057,9.4287-.1559.0695,4.1654-13.9467.2253-.4623-28.7773ZM390.2443,324.5422l1.8661-5.2979,5.1304-.0867-3.2757,5.3268-3.7207.0578ZM413.5027,330.4282l-6.1934-.1964.1328-4.2465,16.9049.5374-.1329,4.2463-6.153-.1964-.78,24.5137-4.5584-.1444.78-24.5137ZM432.7131,327.0721l4.5468.3235-2.022,28.7022-4.5528-.3235,2.028-28.7022ZM447.2117,328.2003l13.86,1.5137-.4563,4.1829-9.3711-1.0283-.8955,8.1866,6.6036.7222-.4448,4.0499-6.5978-.7222-.8782,8.0538,9.3711,1.0226-.4507,4.1367-13.8658-1.5138,3.1255-28.604ZM477.204,361.1879l-2.6461-13.5712c-.4563-2.4497-1.0168-6.7539-1.4616-10.6421-.4565,3.6515-.9648,7.6032-1.2594,9.4403l-2.1955,13.5481-3.9344-.6354,4.5988-28.4078,5.5059.8899,2.7096,14.2992c.4796,2.5883,1.0919,7.1292,1.5946,10.9309.4738-3.738.9822-8.0018,1.3-9.9719l2.2647-13.9871,3.9344.6413-4.5988,28.4076-5.8122-.9417ZM502.7774,366.2333l-1.8777-13.6983c-.3177-2.4728-.6296-6.8059-.8549-10.7114-.6645,3.6225-1.3923,7.5395-1.791,9.3594l-2.9582,13.4037-3.8881-.8608,6.1934-28.1074,5.4481,1.2018,1.9008,14.4321c.3294,2.6114.6816,7.1754.9706,11.006.6816-3.7035,1.4327-7.9383,1.8603-9.8852l3.0506-13.8371,3.8939.8609-6.1992,28.1014-5.7485-1.2652ZM524.489,341.8784l13.4441,3.7033-1.1208,4.0557-9.0879-2.5074-2.1896,7.9382,6.4014,1.7679-1.0804,3.923-6.4014-1.7621-2.1549,7.811,9.0879,2.5015-1.1035,4.0154-13.4441-3.7091,7.6494-27.7374ZM400.0123,106.3321l5.3384,16.437.9359,2.8654h20.2903l-13.9813,10.1567-2.4381,1.7737.9301,2.8658,5.3384,16.4426-13.9757-10.1627-2.4381-1.7677-2.4439,1.7677-13.9988,10.18,5.3442-16.4483.9301-2.8658-2.4381-1.7677-13.9988-10.1743h20.3367l.9301-2.8654,5.3384-16.437ZM400.0123,92.9055l-9.2843,28.5811h-30.0889l24.3288,17.6789-9.2901,28.5867,24.3346-17.6849,24.3057,17.6677-9.2843-28.5867,24.3171-17.6617h-30.0542l-9.2843-28.5811Z" style="fill: #d0b982;"/>
</svg>