<?xml version="1.0" encoding="utf-8"?>
<!-- Generator: Adobe Illustrator 28.0.0, SVG Export Plug-In . SVG Version: 6.00 Build 0)  -->
<svg version="1.1" id="图层_1" xmlns="http://www.w3.org/2000/svg" xmlns:xlink="http://www.w3.org/1999/xlink" x="0px" y="0px"
	 viewBox="0 0 800 800" style="enable-background:new 0 0 800 800;" xml:space="preserve">
<path style="fill:#CCCCCC;" d="M348.22,774.3c-0.79,0-1.38-0.22-1.77-0.65c-0.39-0.44-0.53-1.03-0.41-1.79l0.25-1.65
	c0.12-0.75,0.45-1.35,0.98-1.78c0.53-0.44,1.19-0.65,1.98-0.65c0.76,0,1.33,0.2,1.72,0.6c0.39,0.4,0.55,0.94,0.47,1.62h-1.24
	c0.03-0.36-0.06-0.64-0.26-0.84s-0.5-0.3-0.89-0.3c-0.42,0-0.76,0.12-1.03,0.35s-0.43,0.56-0.5,0.99l-0.26,1.66
	c-0.07,0.44-0.01,0.77,0.19,1c0.19,0.23,0.5,0.35,0.92,0.35c0.39,0,0.72-0.1,0.98-0.3s0.44-0.48,0.52-0.85h1.24
	c-0.14,0.69-0.47,1.23-0.99,1.63C349.61,774.1,348.97,774.3,348.22,774.3z M352.8,774.19l1-6.29h1.19l-0.19,1.19
	c0.34-0.87,0.97-1.3,1.91-1.3c0.67,0,1.17,0.21,1.49,0.62c0.32,0.42,0.43,0.99,0.31,1.71l-0.07,0.42h-1.27l0.06-0.32
	c0.07-0.45,0.01-0.8-0.17-1.04c-0.18-0.24-0.48-0.36-0.88-0.36s-0.74,0.12-1.01,0.37c-0.27,0.24-0.43,0.59-0.5,1.03l-0.63,3.97
	L352.8,774.19L352.8,774.19z M361.91,774.3c-0.77,0-1.35-0.22-1.73-0.67s-0.51-1.04-0.4-1.77l0.25-1.65
	c0.08-0.49,0.26-0.92,0.52-1.28c0.26-0.37,0.6-0.65,1.01-0.85c0.41-0.2,0.87-0.3,1.38-0.3c0.77,0,1.35,0.22,1.73,0.67
	c0.39,0.45,0.52,1.04,0.39,1.77l-0.17,1.12h-3.85l-0.09,0.53c-0.15,0.95,0.22,1.43,1.11,1.43c0.72,0,1.17-0.25,1.37-0.74h1.22
	c-0.17,0.53-0.5,0.96-1.01,1.28C363.16,774.14,362.58,774.3,361.91,774.3z M361.23,770.22l-0.05,0.29l2.65-0.01l0.05-0.29
	c0.07-0.47,0.01-0.82-0.17-1.07c-0.18-0.25-0.49-0.37-0.92-0.37c-0.44,0-0.8,0.13-1.06,0.38
	C361.48,769.39,361.31,769.75,361.23,770.22z M368.33,774.3c-0.63,0-1.1-0.21-1.41-0.64c-0.31-0.42-0.4-1-0.27-1.73l0.27-1.77
	c0.11-0.73,0.39-1.31,0.84-1.74c0.44-0.43,0.98-0.64,1.61-0.64c0.47,0,0.83,0.12,1.09,0.35c0.26,0.24,0.39,0.56,0.38,0.96h0.02
	l0.17-1.2h1.24l-1,6.29h-1.22l0.19-1.2h-0.02c-0.12,0.41-0.35,0.73-0.69,0.97C369.2,774.18,368.8,774.3,368.33,774.3z
	 M368.93,773.23c0.39,0,0.72-0.12,0.98-0.36s0.43-0.57,0.5-1.01l0.25-1.65c0.07-0.43,0.01-0.76-0.18-1s-0.47-0.36-0.86-0.36
	c-0.4,0-0.72,0.12-0.98,0.35c-0.26,0.24-0.42,0.57-0.49,1.01l-0.25,1.65c-0.07,0.44-0.01,0.78,0.17,1.01
	C368.24,773.11,368.53,773.23,368.93,773.23z M376.35,774.19c-0.57,0-0.99-0.16-1.26-0.47c-0.27-0.31-0.36-0.75-0.27-1.32l0.54-3.39
	h-1.74l0.17-1.12h1.74l0.27-1.72h1.24l-0.27,1.72h2.47l-0.18,1.12h-2.46l-0.54,3.39c-0.08,0.44,0.1,0.66,0.53,0.66h1.72l-0.17,1.12
	h-1.79V774.19z M382.5,774.3c-0.77,0-1.35-0.22-1.73-0.67s-0.52-1.04-0.4-1.77l0.25-1.65c0.08-0.49,0.26-0.92,0.52-1.28
	c0.26-0.37,0.6-0.65,1.01-0.85c0.41-0.2,0.87-0.3,1.38-0.3c0.77,0,1.35,0.22,1.73,0.67c0.39,0.45,0.52,1.04,0.39,1.77l-0.17,1.12
	h-3.85l-0.09,0.53c-0.15,0.95,0.22,1.43,1.11,1.43c0.72,0,1.17-0.25,1.37-0.74h1.22c-0.17,0.53-0.5,0.96-1.01,1.28
	C383.76,774.14,383.18,774.3,382.5,774.3z M381.83,770.22l-0.05,0.29l2.65-0.01l0.05-0.29c0.07-0.47,0.01-0.82-0.17-1.07
	c-0.18-0.25-0.49-0.37-0.92-0.37c-0.44,0-0.8,0.13-1.06,0.38C382.08,769.39,381.91,769.75,381.83,770.22z M388.92,774.3
	c-0.63,0-1.1-0.21-1.4-0.64c-0.3-0.42-0.39-1-0.28-1.73l0.27-1.77c0.11-0.73,0.39-1.31,0.84-1.74c0.44-0.43,0.98-0.64,1.61-0.64
	c0.47,0,0.83,0.12,1.09,0.35c0.26,0.24,0.39,0.56,0.38,0.96h0.02l0.21-1.47l0.3-1.8h1.24l-1.33,8.35h-1.22l0.19-1.2h-0.02
	c-0.12,0.41-0.35,0.73-0.69,0.97C389.8,774.18,389.4,774.3,388.92,774.3z M389.53,773.23c0.39,0,0.72-0.12,0.98-0.36
	s0.43-0.57,0.5-1.01l0.25-1.65c0.08-0.43,0.02-0.76-0.17-1s-0.48-0.36-0.87-0.36c-0.4,0-0.72,0.12-0.98,0.35
	c-0.26,0.24-0.42,0.57-0.49,1.01l-0.25,1.65c-0.08,0.44-0.02,0.78,0.16,1.01C388.83,773.11,389.13,773.23,389.53,773.23z
	 M401.02,774.3c-0.47,0-0.84-0.12-1.1-0.35s-0.39-0.56-0.38-0.97h-0.01l-0.19,1.2h-1.22l1.33-8.35h1.24l-0.29,1.8l-0.27,1.47h0.05
	c0.12-0.41,0.35-0.73,0.69-0.97c0.34-0.23,0.74-0.35,1.21-0.35c0.63,0,1.1,0.21,1.4,0.64s0.39,1.01,0.28,1.74l-0.27,1.77
	c-0.11,0.73-0.39,1.31-0.84,1.73C402.18,774.09,401.64,774.3,401.02,774.3z M400.77,773.23c0.4,0,0.72-0.12,0.98-0.35
	s0.42-0.57,0.5-1.01l0.25-1.65c0.07-0.43,0.01-0.77-0.17-1.01c-0.18-0.24-0.47-0.35-0.87-0.35c-0.39,0-0.72,0.12-0.98,0.36
	s-0.43,0.57-0.5,1l-0.25,1.65c-0.07,0.44-0.01,0.77,0.17,1.01C400.08,773.11,400.37,773.23,400.77,773.23z M405.47,776.25l0.17-1.06
	h1.93c0.64,0,1.01-0.3,1.1-0.9l0.1-0.67l0.21-1.19h-0.03c-0.12,0.42-0.35,0.74-0.68,0.97s-0.73,0.34-1.2,0.34
	c-0.63,0-1.09-0.2-1.4-0.6c-0.31-0.4-0.41-0.94-0.3-1.63l0.58-3.6h1.24l-0.56,3.48c-0.06,0.41,0,0.73,0.18,0.96
	c0.18,0.23,0.47,0.34,0.85,0.34c0.39,0,0.72-0.12,0.98-0.37c0.27-0.24,0.43-0.58,0.49-1.02l0.54-3.4h1.24l-1.01,6.41
	c-0.1,0.6-0.37,1.08-0.81,1.42c-0.44,0.35-1,0.52-1.67,0.52H405.47z M417.79,770.09h3.22l0.54-1.85h-5.47l-1.71,6.44h2.15l0.59-2.1
	h3.03l0.44-1.71h-3.03L417.79,770.09z M424.23,772.92c-0.59,0-1.02-0.39-1.02-1.12c0-0.88,0.63-1.76,1.61-1.76
	c0.49,0,0.88,0.24,1.02,0.78l1.95-0.83c-0.29-1.17-1.27-1.9-2.64-1.9c-2.78,0-4.15,2.15-4.15,3.9c0,1.76,1.27,2.83,3.07,2.83
	c1.37,0,2.34-0.59,2.98-1.42l-1.51-1.17C425.16,772.67,424.72,772.92,424.23,772.92z M430.91,768.23h-2.15l-1.76,6.44h5.12
	l0.49-1.85h-2.93L430.91,768.23z M439.75,771.01c0-1.66-1.32-2.93-3.22-2.93c-2.2,0-3.81,1.81-3.81,3.81c0,1.66,1.32,2.93,3.22,2.93
	C438.14,774.82,439.75,773.01,439.75,771.01z M434.92,771.7c0-0.83,0.59-1.71,1.51-1.71c0.78,0,1.17,0.54,1.17,1.22
	c0,0.83-0.59,1.71-1.51,1.71C435.31,772.92,434.92,772.38,434.92,771.7z M443.21,772.23h1.07l-0.2,0.68
	c-0.15,0.05-0.34,0.1-0.59,0.1c-0.68,0-1.27-0.39-1.27-1.22c0-1.02,0.73-1.9,1.95-1.9c0.59,0,1.12,0.24,1.51,0.59l1.37-1.37
	c-0.44-0.54-1.51-1.07-2.73-1.07c-2.59,0-4.29,1.76-4.29,3.86c0,2.05,1.61,2.88,3.22,2.88c0.93,0,1.85-0.29,2.49-0.68l0.93-3.32
	h-3.12L443.21,772.23z M450.78,768.08c-2.2,0-3.81,1.81-3.81,3.81c0,1.66,1.32,2.93,3.22,2.93c2.2,0,3.81-1.81,3.81-3.81
	C454,769.35,452.68,768.08,450.78,768.08z M450.34,772.92c-0.78,0-1.17-0.54-1.17-1.22c0-0.83,0.59-1.71,1.51-1.71
	c0.78,0,1.17,0.54,1.17,1.22C451.85,772.04,451.27,772.92,450.34,772.92z M437.94,767.5c-0.05,0.29,0.1,0.49,0.44,0.49
	s0.54-0.2,0.63-0.49c0.05-0.24-0.1-0.49-0.44-0.49C438.24,767.01,437.99,767.25,437.94,767.5z M432.13,765.5
	c-0.44,0-0.73,0.24-0.78,0.59c-0.05,0.34,0.1,0.59,0.54,0.59s0.73-0.24,0.78-0.59C432.77,765.74,432.57,765.5,432.13,765.5z
	 M433.01,767.3c-0.1,0.54,0.15,0.88,0.83,0.88c0.63,0,1.07-0.39,1.17-0.88s-0.15-0.88-0.83-0.88
	C433.5,766.43,433.11,766.82,433.01,767.3z M439.6,777.55l-2.44-1.81h-1.51l4.25,3.17l1.61-3.17h-0.98L439.6,777.55z M425.84,767.16
	l-2-1.46l23.13-2.78l-2.15,4.25h1.02l2.68-5.32l-26.99,3.22l2.78,2.1L425.84,767.16L425.84,767.16z M338.72,785.79l0.61-3.83h2.32
	l-0.08,0.52h-1.76l-0.18,1.14h1.63l-0.08,0.52h-1.62l-0.26,1.64L338.72,785.79L338.72,785.79z M342.97,785.84
	c-0.36,0-0.62-0.1-0.8-0.3c-0.17-0.2-0.23-0.47-0.18-0.82l0.27-1.7c0.06-0.34,0.2-0.61,0.44-0.82c0.24-0.2,0.54-0.3,0.89-0.3
	c0.36,0,0.62,0.1,0.8,0.3c0.17,0.2,0.24,0.47,0.18,0.81l-0.27,1.71c-0.06,0.34-0.2,0.62-0.44,0.82
	C343.63,785.74,343.33,785.84,342.97,785.84z M343.05,785.33c0.19,0,0.35-0.05,0.47-0.16s0.19-0.26,0.23-0.46l0.27-1.7
	c0.03-0.2,0.01-0.35-0.08-0.46c-0.08-0.11-0.22-0.16-0.41-0.16s-0.35,0.05-0.46,0.16c-0.12,0.1-0.19,0.26-0.22,0.46l-0.27,1.7
	c-0.03,0.2-0.01,0.35,0.08,0.46C342.72,785.28,342.86,785.33,343.05,785.33z M345,785.79l0.61-3.83h1.2c0.24,0,0.44,0.05,0.6,0.14
	s0.28,0.22,0.36,0.39c0.07,0.17,0.09,0.37,0.05,0.59c-0.04,0.26-0.14,0.48-0.3,0.67c-0.16,0.19-0.37,0.32-0.6,0.39l0.54,1.64h-0.62
	l-0.48-1.57h-0.54l-0.25,1.57L345,785.79L345,785.79z M345.89,783.71h0.64c0.19,0,0.35-0.06,0.48-0.17s0.21-0.26,0.24-0.45
	s0-0.35-0.09-0.46c-0.09-0.11-0.24-0.17-0.43-0.17h-0.64L345.89,783.71z M349.54,785.79l0.61-3.83h1.25c0.37,0,0.65,0.1,0.84,0.31
	s0.26,0.49,0.2,0.84c-0.04,0.23-0.12,0.44-0.25,0.61s-0.29,0.31-0.49,0.4c-0.2,0.09-0.42,0.14-0.66,0.14h-0.69l-0.24,1.52
	L349.54,785.79L349.54,785.79z M350.43,783.75h0.69c0.19,0,0.36-0.06,0.49-0.18c0.14-0.12,0.22-0.27,0.25-0.47
	c0.03-0.2,0-0.35-0.1-0.47s-0.25-0.18-0.44-0.18h-0.69L350.43,783.75z M352.75,785.79l0.61-3.83h2.25l-0.08,0.5h-1.7l-0.17,1.09
	h1.51l-0.08,0.5h-1.51l-0.19,1.24h1.69l-0.08,0.5H352.75z M355.84,785.79l0.61-3.83h1.2c0.24,0,0.44,0.05,0.6,0.14
	s0.28,0.22,0.36,0.39c0.07,0.17,0.09,0.37,0.05,0.59c-0.04,0.26-0.14,0.48-0.3,0.67c-0.16,0.19-0.37,0.32-0.6,0.39l0.54,1.64h-0.62
	l-0.48-1.57h-0.54l-0.25,1.57L355.84,785.79L355.84,785.79z M356.74,783.71h0.64c0.19,0,0.35-0.06,0.48-0.17s0.21-0.26,0.24-0.45
	s0-0.35-0.09-0.46c-0.09-0.11-0.24-0.17-0.43-0.17h-0.64L356.74,783.71z M360.13,785.84c-0.39,0-0.67-0.1-0.87-0.29
	c-0.19-0.19-0.26-0.45-0.22-0.78h0.57c-0.03,0.17,0.01,0.31,0.12,0.41s0.27,0.15,0.48,0.15c0.2,0,0.37-0.05,0.5-0.15
	c0.13-0.1,0.21-0.23,0.24-0.4c0.02-0.15,0-0.28-0.06-0.39s-0.16-0.18-0.29-0.22l-0.46-0.14c-0.27-0.08-0.46-0.22-0.59-0.41
	s-0.17-0.42-0.13-0.68c0.04-0.21,0.11-0.39,0.23-0.55c0.12-0.16,0.27-0.28,0.46-0.37c0.19-0.09,0.4-0.13,0.64-0.13
	c0.35,0,0.62,0.1,0.8,0.29s0.25,0.44,0.2,0.76h-0.57c0.03-0.17,0-0.3-0.09-0.4c-0.09-0.1-0.23-0.14-0.42-0.14s-0.34,0.04-0.46,0.13
	s-0.19,0.21-0.21,0.38c-0.02,0.15-0.01,0.28,0.05,0.39s0.16,0.18,0.29,0.22l0.47,0.15c0.26,0.08,0.46,0.22,0.58,0.41
	s0.17,0.42,0.12,0.69c-0.04,0.22-0.12,0.41-0.24,0.57c-0.13,0.16-0.29,0.29-0.49,0.38C360.6,785.79,360.38,785.84,360.13,785.84z
	 M363.27,785.84c-0.36,0-0.62-0.1-0.8-0.3c-0.17-0.2-0.23-0.47-0.18-0.82l0.27-1.7c0.06-0.34,0.2-0.61,0.44-0.82
	c0.24-0.2,0.54-0.3,0.89-0.3c0.36,0,0.62,0.1,0.8,0.3c0.17,0.2,0.24,0.47,0.18,0.81l-0.27,1.71c-0.06,0.34-0.2,0.62-0.44,0.82
	C363.92,785.74,363.62,785.84,363.27,785.84z M363.34,785.33c0.19,0,0.35-0.05,0.47-0.16s0.19-0.26,0.23-0.46l0.27-1.7
	c0.03-0.2,0.01-0.35-0.08-0.46c-0.08-0.11-0.22-0.16-0.41-0.16s-0.35,0.05-0.46,0.16c-0.12,0.1-0.19,0.26-0.22,0.46l-0.27,1.7
	c-0.03,0.2-0.01,0.35,0.08,0.46C363.02,785.28,363.15,785.33,363.34,785.33z M365.28,785.79l0.61-3.83h0.71l0.62,3.19
	c0.01-0.1,0.02-0.22,0.03-0.36s0.03-0.29,0.04-0.44c0.02-0.15,0.04-0.29,0.06-0.41l0.31-1.98h0.52l-0.61,3.83h-0.71l-0.61-3.19
	c-0.01,0.09-0.02,0.21-0.03,0.34s-0.03,0.28-0.04,0.42c-0.02,0.15-0.04,0.28-0.06,0.41l-0.31,2.01L365.28,785.79L365.28,785.79z
	 M368.23,785.79l1.59-3.83h0.75l0.37,3.83h-0.56l-0.07-0.97h-1.09l-0.39,0.97H368.23z M369.39,784.34h0.87l-0.09-1.1
	c-0.02-0.2-0.03-0.37-0.04-0.51s-0.01-0.24-0.01-0.3c-0.02,0.06-0.05,0.16-0.1,0.3c-0.05,0.14-0.11,0.31-0.19,0.5L369.39,784.34z
	 M371.72,785.79l0.61-3.83h0.57l-0.52,3.31h1.67l-0.08,0.52H371.72z M376.68,785.84c-0.37,0-0.63-0.1-0.8-0.3
	c-0.17-0.2-0.22-0.48-0.17-0.82l0.44-2.76h0.57l-0.44,2.76c-0.03,0.2-0.01,0.35,0.07,0.46c0.08,0.11,0.21,0.17,0.41,0.17
	c0.19,0,0.35-0.06,0.46-0.17c0.12-0.11,0.19-0.27,0.22-0.46l0.44-2.76h0.57l-0.44,2.76c-0.06,0.35-0.2,0.62-0.43,0.82
	C377.35,785.74,377.05,785.84,376.68,785.84z M379.84,785.84c-0.39,0-0.67-0.1-0.87-0.29c-0.19-0.19-0.26-0.45-0.22-0.78h0.57
	c-0.03,0.17,0.01,0.31,0.12,0.41s0.27,0.15,0.48,0.15c0.2,0,0.37-0.05,0.5-0.15c0.13-0.1,0.21-0.23,0.24-0.4
	c0.02-0.15,0-0.28-0.06-0.39s-0.16-0.18-0.29-0.22l-0.46-0.14c-0.27-0.08-0.46-0.22-0.59-0.41s-0.17-0.42-0.13-0.68
	c0.04-0.21,0.11-0.39,0.23-0.55s0.27-0.28,0.46-0.37c0.19-0.09,0.4-0.13,0.64-0.13c0.35,0,0.62,0.1,0.8,0.29s0.25,0.44,0.2,0.76
	h-0.57c0.03-0.17,0-0.3-0.09-0.4c-0.09-0.1-0.23-0.14-0.42-0.14s-0.34,0.04-0.46,0.13s-0.19,0.21-0.21,0.38
	c-0.02,0.15-0.01,0.28,0.05,0.39s0.16,0.18,0.29,0.22l0.47,0.15c0.26,0.08,0.46,0.22,0.58,0.41s0.17,0.42,0.12,0.69
	c-0.04,0.22-0.12,0.41-0.24,0.57c-0.13,0.16-0.29,0.29-0.49,0.38C380.31,785.79,380.09,785.84,379.84,785.84z M381.91,785.79
	l0.61-3.83h2.25l-0.08,0.5h-1.7l-0.17,1.09h1.51l-0.08,0.5h-1.51l-0.19,1.24h1.69l-0.08,0.5H381.91z M386.94,785.84
	c-0.36,0-0.62-0.1-0.8-0.3c-0.17-0.2-0.23-0.47-0.18-0.82l0.27-1.7c0.06-0.34,0.2-0.61,0.44-0.82c0.24-0.2,0.54-0.3,0.89-0.3
	c0.36,0,0.62,0.1,0.8,0.3c0.17,0.2,0.24,0.47,0.18,0.81l-0.27,1.71c-0.06,0.34-0.2,0.62-0.44,0.82
	C387.6,785.74,387.3,785.84,386.94,785.84z M387.02,785.33c0.19,0,0.35-0.05,0.47-0.16s0.19-0.26,0.23-0.46l0.27-1.7
	c0.03-0.2,0.01-0.35-0.08-0.46c-0.08-0.11-0.22-0.16-0.41-0.16s-0.35,0.05-0.46,0.16c-0.12,0.1-0.19,0.26-0.22,0.46l-0.27,1.7
	c-0.03,0.2-0.01,0.35,0.08,0.46C386.7,785.28,386.83,785.33,387.02,785.33z M388.95,785.79l0.61-3.83h0.71l0.62,3.19
	c0.01-0.1,0.02-0.22,0.03-0.36s0.03-0.29,0.04-0.44c0.02-0.15,0.04-0.29,0.06-0.41l0.31-1.98h0.52l-0.61,3.83h-0.71l-0.61-3.19
	c-0.01,0.09-0.02,0.21-0.03,0.34s-0.03,0.28-0.04,0.42c-0.02,0.15-0.04,0.28-0.06,0.41l-0.31,2.01L388.95,785.79L388.95,785.79z
	 M392.25,785.79l0.61-3.83h0.57l-0.52,3.31h1.67l-0.08,0.52H392.25z M396.12,785.79l0.22-1.41l-0.75-2.42h0.58l0.45,1.45
	c0.03,0.09,0.05,0.18,0.07,0.27c0.02,0.08,0.03,0.15,0.03,0.19c0.02-0.04,0.05-0.1,0.09-0.19c0.04-0.08,0.09-0.17,0.14-0.27
	l0.9-1.45h0.6l-1.53,2.42l-0.22,1.41H396.12z M399.22,785.79l0.61-3.83h0.71l0.62,3.19c0.01-0.1,0.02-0.22,0.03-0.36
	s0.03-0.29,0.04-0.44c0.02-0.15,0.04-0.29,0.06-0.41l0.31-1.98h0.52l-0.61,3.83h-0.71l-0.61-3.19c-0.01,0.09-0.02,0.21-0.03,0.34
	s-0.03,0.28-0.04,0.42c-0.02,0.15-0.04,0.28-0.06,0.41l-0.31,2.01L399.22,785.79L399.22,785.79z M403.51,785.84
	c-0.36,0-0.62-0.1-0.8-0.3s-0.23-0.47-0.18-0.82l0.27-1.7c0.06-0.34,0.2-0.61,0.44-0.82c0.24-0.2,0.54-0.3,0.89-0.3
	c0.36,0,0.62,0.1,0.8,0.3c0.17,0.2,0.24,0.47,0.18,0.81l-0.27,1.71c-0.06,0.34-0.2,0.62-0.44,0.82
	C404.16,785.74,403.86,785.84,403.51,785.84z M403.58,785.33c0.19,0,0.35-0.05,0.47-0.16s0.19-0.26,0.23-0.46l0.27-1.7
	c0.03-0.2,0.01-0.35-0.08-0.46c-0.08-0.11-0.22-0.16-0.41-0.16s-0.35,0.05-0.46,0.16c-0.12,0.1-0.19,0.26-0.22,0.46l-0.27,1.7
	c-0.03,0.2-0.01,0.35,0.08,0.46C403.26,785.28,403.4,785.33,403.58,785.33z M406.38,785.79l0.52-3.31h-1.02l0.08-0.52h2.62
	l-0.08,0.52h-1.03l-0.52,3.31H406.38z M409.52,785.79l0.61-3.83h2.32l-0.08,0.52h-1.76l-0.18,1.14h1.63l-0.08,0.52h-1.62l-0.26,1.64
	L409.52,785.79L409.52,785.79z M413.77,785.84c-0.36,0-0.62-0.1-0.8-0.3s-0.23-0.47-0.18-0.82l0.27-1.7
	c0.06-0.34,0.2-0.61,0.44-0.82c0.24-0.2,0.54-0.3,0.89-0.3c0.36,0,0.62,0.1,0.8,0.3c0.17,0.2,0.24,0.47,0.18,0.81l-0.27,1.71
	c-0.06,0.34-0.2,0.62-0.44,0.82C414.42,785.74,414.13,785.84,413.77,785.84z M413.85,785.33c0.19,0,0.35-0.05,0.47-0.16
	s0.19-0.26,0.23-0.46l0.27-1.7c0.03-0.2,0.01-0.35-0.08-0.46c-0.08-0.11-0.22-0.16-0.41-0.16s-0.35,0.05-0.46,0.16
	c-0.12,0.1-0.19,0.26-0.22,0.46l-0.27,1.7c-0.03,0.2-0.01,0.35,0.08,0.46C413.52,785.28,413.66,785.33,413.85,785.33z M415.8,785.79
	l0.61-3.83h1.2c0.24,0,0.44,0.05,0.6,0.14s0.28,0.22,0.36,0.39c0.07,0.17,0.09,0.37,0.05,0.59c-0.04,0.26-0.14,0.48-0.3,0.67
	c-0.16,0.19-0.37,0.32-0.6,0.39l0.54,1.64h-0.62l-0.48-1.57h-0.54l-0.25,1.57L415.8,785.79L415.8,785.79z M416.69,783.71h0.64
	c0.19,0,0.35-0.06,0.48-0.17s0.21-0.26,0.24-0.45s0-0.35-0.09-0.46c-0.09-0.11-0.24-0.17-0.43-0.17h-0.64L416.69,783.71z
	 M420.91,785.84c-0.36,0-0.63-0.1-0.81-0.3s-0.24-0.47-0.19-0.82l0.27-1.7c0.06-0.35,0.21-0.62,0.45-0.82s0.55-0.3,0.91-0.3
	c0.36,0,0.63,0.1,0.81,0.3s0.24,0.47,0.19,0.82h-0.57c0.03-0.2,0-0.35-0.09-0.46c-0.09-0.11-0.23-0.16-0.42-0.16
	s-0.35,0.05-0.48,0.16c-0.12,0.1-0.2,0.26-0.23,0.45l-0.27,1.71c-0.03,0.2,0,0.35,0.09,0.46c0.09,0.11,0.23,0.16,0.42,0.16
	s0.35-0.05,0.47-0.16s0.2-0.26,0.23-0.46h0.57c-0.03,0.23-0.11,0.43-0.24,0.59c-0.12,0.17-0.28,0.3-0.47,0.39
	C421.36,785.79,421.14,785.84,420.91,785.84z M424.03,785.84c-0.36,0-0.62-0.1-0.8-0.3s-0.23-0.47-0.18-0.82l0.27-1.7
	c0.06-0.34,0.2-0.61,0.44-0.82c0.24-0.2,0.54-0.3,0.89-0.3c0.36,0,0.62,0.1,0.8,0.3c0.17,0.2,0.24,0.47,0.18,0.81l-0.27,1.71
	c-0.06,0.34-0.2,0.62-0.44,0.82C424.69,785.74,424.39,785.84,424.03,785.84z M424.11,785.33c0.19,0,0.35-0.05,0.47-0.16
	s0.19-0.26,0.23-0.46l0.27-1.7c0.03-0.2,0.01-0.35-0.08-0.46c-0.08-0.11-0.22-0.16-0.41-0.16s-0.35,0.05-0.46,0.16
	c-0.12,0.1-0.19,0.26-0.22,0.46l-0.27,1.7c-0.03,0.2-0.01,0.35,0.08,0.46C423.79,785.28,423.92,785.33,424.11,785.33z
	 M425.97,785.79l0.61-3.83h0.69l0.18,1.23c0.02,0.12,0.04,0.23,0.05,0.33c0.01,0.1,0.02,0.18,0.03,0.24
	c0.02-0.06,0.05-0.14,0.09-0.24c0.04-0.11,0.09-0.22,0.15-0.34l0.57-1.22h0.71l-0.61,3.83h-0.54l0.2-1.29
	c0.02-0.17,0.06-0.35,0.1-0.55s0.09-0.4,0.14-0.61c0.05-0.2,0.1-0.4,0.14-0.59c0.05-0.19,0.09-0.35,0.13-0.49l-0.86,1.86h-0.55
	l-0.28-1.86c0,0.14-0.01,0.29-0.02,0.47c-0.01,0.18-0.02,0.37-0.04,0.57c-0.02,0.2-0.04,0.41-0.06,0.61s-0.05,0.4-0.08,0.57
	l-0.2,1.29h-0.55V785.79z M429.11,785.79l0.61-3.83h0.69l0.18,1.23c0.02,0.12,0.04,0.23,0.05,0.33c0.01,0.1,0.02,0.18,0.03,0.24
	c0.02-0.06,0.05-0.14,0.09-0.24c0.04-0.11,0.09-0.22,0.15-0.34l0.57-1.22h0.71l-0.61,3.83h-0.54l0.2-1.29
	c0.02-0.17,0.06-0.35,0.1-0.55s0.09-0.4,0.14-0.61c0.05-0.2,0.1-0.4,0.14-0.59c0.05-0.19,0.09-0.35,0.13-0.49l-0.86,1.86h-0.55
	l-0.28-1.86c0,0.14-0.01,0.29-0.02,0.47c-0.01,0.18-0.02,0.37-0.04,0.57c-0.02,0.2-0.04,0.41-0.06,0.61s-0.05,0.4-0.08,0.57
	l-0.2,1.29h-0.55V785.79z M432.41,785.79l0.61-3.83h2.25l-0.08,0.5h-1.7l-0.17,1.09h1.51l-0.08,0.5h-1.51l-0.19,1.24h1.69l-0.08,0.5
	H432.41z M435.51,785.79l0.61-3.83h1.2c0.24,0,0.44,0.05,0.6,0.14s0.28,0.22,0.36,0.39c0.07,0.17,0.09,0.37,0.05,0.59
	c-0.04,0.26-0.14,0.48-0.3,0.67c-0.16,0.19-0.37,0.32-0.6,0.39l0.54,1.64h-0.62l-0.48-1.57h-0.54l-0.25,1.57L435.51,785.79
	L435.51,785.79z M436.4,783.71h0.64c0.19,0,0.35-0.06,0.48-0.17s0.21-0.26,0.24-0.45s0-0.35-0.09-0.46
	c-0.09-0.11-0.24-0.17-0.43-0.17h-0.64L436.4,783.71z M439.8,785.84c-0.36,0-0.63-0.1-0.81-0.3s-0.24-0.47-0.19-0.82l0.27-1.7
	c0.06-0.35,0.21-0.62,0.45-0.82s0.55-0.3,0.91-0.3c0.36,0,0.63,0.1,0.81,0.3s0.24,0.47,0.19,0.82h-0.57c0.03-0.2,0-0.35-0.09-0.46
	c-0.09-0.11-0.23-0.16-0.42-0.16s-0.35,0.05-0.47,0.16c-0.12,0.1-0.2,0.26-0.23,0.45l-0.27,1.71c-0.03,0.2,0,0.35,0.09,0.46
	c0.09,0.11,0.23,0.16,0.42,0.16s0.35-0.05,0.47-0.16s0.2-0.26,0.23-0.46h0.57c-0.03,0.23-0.11,0.43-0.24,0.59
	c-0.12,0.17-0.28,0.3-0.47,0.39C440.25,785.79,440.04,785.84,439.8,785.84z M441.88,785.79l0.08-0.5h0.78l0.45-2.82h-0.78l0.08-0.5
	h2.13l-0.08,0.5h-0.78l-0.45,2.82h0.78l-0.08,0.5H441.88z M444.74,785.79l1.59-3.83h0.75l0.37,3.83h-0.56l-0.07-0.97h-1.09
	l-0.39,0.97H444.74z M445.9,784.34h0.87l-0.09-1.1c-0.02-0.2-0.03-0.37-0.04-0.51s-0.01-0.24-0.01-0.3c-0.02,0.06-0.05,0.16-0.1,0.3
	c-0.05,0.14-0.11,0.31-0.19,0.5L445.9,784.34z M448.24,785.79l0.61-3.83h0.57l-0.52,3.31h1.67l-0.08,0.52H448.24z M453.19,785.84
	c-0.37,0-0.63-0.1-0.8-0.3c-0.17-0.2-0.22-0.48-0.17-0.82l0.44-2.76h0.57l-0.44,2.76c-0.03,0.2-0.01,0.35,0.07,0.46
	c0.08,0.11,0.21,0.17,0.41,0.17c0.19,0,0.35-0.06,0.46-0.17c0.12-0.11,0.19-0.27,0.22-0.46l0.44-2.76h0.57l-0.44,2.76
	c-0.06,0.35-0.2,0.62-0.43,0.82C453.86,785.74,453.56,785.84,453.19,785.84z M456.36,785.84c-0.39,0-0.67-0.1-0.87-0.29
	c-0.19-0.19-0.26-0.45-0.22-0.78h0.57c-0.03,0.17,0.01,0.31,0.12,0.41s0.27,0.15,0.48,0.15c0.2,0,0.37-0.05,0.5-0.15
	s0.21-0.23,0.24-0.4c0.02-0.15,0-0.28-0.06-0.39s-0.16-0.18-0.29-0.22l-0.46-0.14c-0.27-0.08-0.46-0.22-0.59-0.41
	s-0.17-0.42-0.13-0.68c0.04-0.21,0.11-0.39,0.23-0.55c0.12-0.16,0.27-0.28,0.46-0.37c0.19-0.09,0.4-0.13,0.64-0.13
	c0.35,0,0.62,0.1,0.8,0.29s0.25,0.44,0.2,0.76h-0.57c0.03-0.17,0-0.3-0.09-0.4c-0.09-0.1-0.23-0.14-0.42-0.14s-0.34,0.04-0.46,0.13
	s-0.19,0.21-0.21,0.38c-0.02,0.15-0.01,0.28,0.05,0.39s0.16,0.18,0.29,0.22l0.47,0.15c0.26,0.08,0.46,0.22,0.58,0.41
	s0.17,0.42,0.12,0.69c-0.04,0.22-0.12,0.41-0.24,0.57c-0.13,0.16-0.29,0.29-0.49,0.38C456.82,785.79,456.6,785.84,456.36,785.84z
	 M458.42,785.79l0.61-3.83h2.25l-0.08,0.5h-1.7l-0.17,1.09h1.51l-0.08,0.5h-1.51l-0.19,1.24h1.69l-0.08,0.5H458.42z"/>
<path style="fill-rule:evenodd;clip-rule:evenodd;fill:#2D2D5F;" d="M400,50C206.71,50,50,206.71,50,400s156.71,350,350,350
	s350-156.71,350-350S593.29,50,400,50z M400,711.8C228.31,711.8,88.2,571.69,88.2,400S228.31,88.2,400,88.2S711.8,228.17,711.8,400
	C711.8,571.69,571.69,711.8,400,711.8z M572.16,317.18c-45.7-95.07-159.81-135.1-254.88-89.4s-135.1,159.81-89.41,254.88
	c45.7,95.07,159.82,135.1,254.89,89.4S617.86,412.25,572.16,317.18z M224.67,400c-0.14-96.91,78.41-175.47,175.33-175.47
	c63.71,0,119.46,34.01,150.23,84.77l-31.18,18.76c-24.43-40.22-68.57-67.08-119.05-67.08c-76.8,0-139.03,62.23-139.03,139.03
	S323.2,539.03,400,539.03c50.75,0,95.16-27.13,119.46-67.76v0.4l30.91,18.9c-30.78,50.89-86.52,84.9-150.23,84.9
	C303.23,575.47,224.67,496.91,224.67,400z M523.64,400c0,68.3-55.34,123.64-123.64,123.64S276.36,468.3,276.36,400
	S331.7,276.36,400,276.36S523.64,331.7,523.64,400z M400,303.63v192.74c53.18,0,96.37-43.19,96.37-96.37S453.18,303.63,400,303.63z
	 M438.61,387.86c-0.81,1.49-3.78,1.49-7.96,10.8c-3.11,7.02-4.73,13.36-5.13,21.73h-8.91c-0.27-8.1,4.18-19.17,8.23-25.65
	c1.62-2.3,3.78-4.86,4.72-6.75h-18.49v-8.09h27.54V387.86z M474.38,392.58c0,6.08-3.78,9.59-7.29,11.88
	c-2.16,1.35-10.13,6.21-11.07,9.04h18.48v7.02h-29.83c-0.13-2.56,0.54-5.26,1.62-7.42c3.11-6.48,10.53-9.59,15.39-13.5
	c12.96-10.12-7.02-21.46-7.96-3.78h-7.96v-1.35C445.22,375.03,474.38,373.95,474.38,392.58z M348.17,391.36
	c-2.02,14.17,13.36,20.52,21.33,11.88c0,7.02-4.72,13.77-9.99,10.8c-1.75-1.21-1.75-2.56-2.83-4.45h-7.83
	c-0.27,2.56,1.62,6.07,2.83,7.42c5.53,6.07,16.74,5.4,21.73-1.62c5.94-8.23,6.21-24.3-0.27-32.26
	C367.34,376.11,350.19,376.78,348.17,391.36z M364.5,400.14c-8.64,2.56-10.93-12.15-2.83-14.17
	C369.36,384.07,372.06,398.11,364.5,400.14z M328.06,379.62h6.88v40.63h-8.5v-25.92h-10.26v-6.75
	C322.25,387.58,327.25,385.42,328.06,379.62z M354.24,637.97c-6.48,4.72-11.07,11.61-14.71,18.63l3.1-20.79l-9.99,1.35l-3.51,23.76
	c-7.15-1.62-17.14-5.13-23.76-7.69c-12.42-4.86-4.05-12.15-4.18-22.14c-0.4-14.71-24.03-25.92-36.85-10.53
	c-2.16,2.56-4.05,6.34-9.58,6.07c-4.05-0.27-16.06-9.85-19.3-12.42c-2.83-2.29-7.29-4.72-4.18-9.99c1.62-3.24,8.23-9.31,11.34-12.15
	c1.35-1.35,2.7-2.29,4.05-3.78l16.2-15.66l-1.75-0.67c-0.94-0.27-1.62-0.4-2.16-0.67c-1.35-0.4-3.1-0.94-4.45-1.21
	c-2.16-0.67-4.05,1.21-6.48,3.91l-23.62,22c-5.8,4.18-10.93,0-14.85-4.72c-7.56-7.96-14.17-14.98-21.06-23.76
	c-5.53-7.02-2.02-10.53,2.7-14.44c0.94-0.94,1.75-2.16,2.7-2.97c1.08-0.94,2.02-1.62,3.1-2.56l4.45-4.18
	c0.94-0.94,0.94-0.4,0.94-1.35c-2.7,0-5.4-0.27-7.96-0.27c-4.45,0-4.18-0.67-6.88,1.62l-4.45,4.18c-1.35,1.62-2.7,2.56-4.05,4.45
	c-7.15,9.99,0.68,18.22,5.53,24.03c6.88,8.23,16.87,20.25,24.7,26.86c3.51,2.83,7.29,4.72,13.09,4.18c0,6.34,1.35,8.37,4.86,11.2
	c3.1,2.29,5.94,4.72,9.31,7.02c3.1,2.29,6.21,4.45,9.58,6.48c5.13,3.51,5.13,3.78,12.01,2.97c-0.94,15.12,14.17,23.35,24.84,22
	c6.48-0.94,7.96-3.78,10.39-5.13c1.08,1.89,1.35,3.24,2.7,5.13c4.45,5.8,35.77,13.5,42.25,14.98c17.55,3.91,40.09,7.29,58.72,6.75
	c1.75-9.58,4.45-19.17,1.08-29.16C391.5,630.27,368.41,627.98,354.24,637.97z M280.81,647.96c-3.37,1.21-7.29-0.4-9.58-2.16
	c-9.58-7.69,0.94-22.14,6.61-23.76c3.51-1.21,7.56,0.4,9.72,2.29C296.88,631.89,286.35,646.34,280.81,647.96z M388.26,670.09
	c-15.12,0.4-31.18-3.78-44.41-5.53c0.67-9.31,15.79-22.14,26.19-23.35C392.44,638.91,391.09,665.5,388.26,670.09z M378.4,612.72
	c6.88-1.62,9.18,8.37,2.7,10.26C374.22,624.87,370.85,614.62,378.4,612.72z M577.9,546.99c-6.88,2.57-10.26-7.29-4.18-9.58
	C580.73,534.57,583.7,544.83,577.9,546.99z M545.77,596.65c2.3,3.78,17.15,27.27,17.82,29.16c-2.29,2.57-28.89,19.44-33.61,20.79
	l0.4-9.31l21.06-12.82c-0.68-1.62-2.97-4.86-4.05-6.48l-11.61-18.9c-3.37-4.99-8.91-5.67-14.44-2.16c-5.8,3.92-5.94,8.37-6.88,13.77
	c-1.22-1.48-5.67-8.64-5.4-9.85c0.41-3.37,4.19-8.5,5.94-9.85c5.13-4.59,16.06-8.1,23.35-2.97
	C542.13,590.59,542.81,592.21,545.77,596.65z M617.18,565.89c0.54,3.64-0.14,7.02-1.75,9.97c-2.3,4.45-7.16,9.04-10.26,12.82
	c-2.7,2.97-8.5,9.31-12.28,10.93c-7.15,2.84-12.01-1.35-15.79-5.53l-5.53-5.53l-5.8-5.8c-3.51-3.91-14.85-14.85-16.87-17.68
	l4.18-8.91c1.35,0.54,1.62,1.22,2.7,2.16l29.56,30.51c5.13,5.13,7.15,0.94,13.36-5.13l6.48-7.29c3.77-4.18,4.72-8.37,0.67-13.09
	c-1.35-1.62-13.1-10.94-14.85-12.15l3.51-9.31l6.88,5.4C607.87,552.8,616.1,556.98,617.18,565.89z M490.97,683.86
	c-6.88,1.89-9.58-8.37-2.7-9.99C494.89,672.25,497.18,682.24,490.97,683.86z M494.34,624.48c2.03,6.88,6.88,19.84,4.86,27.13
	c-2.29,7.7-9.31,12.83-17.14,15.66c-15.39,5.27-26.46,3.51-34.96-9.85c-1.62-2.56-4.19-7.96-5.13-11.2l8.23-5.13
	c1.08,2.16,2.02,5.67,3.1,7.96c1.35,2.84,2.43,4.86,4.18,7.02c7.29,9.04,25.24,3.91,30.64-3.78c3.92-5.54,0.68-10.94-0.94-17.01
	c-4.73,0.95-21.87,6.48-24.3,6.48c-2.96-9.45-8.23-21.74-0.94-29.7c3.38-3.51,7.29-5.81,12.69-6.75c5.54-0.94,11.34,0.41,15.12,2.97
	l-0.27,9.58c-1.35-0.13-4.46-2.97-7.29-3.91c-3.37-1.22-6.75-0.68-9.58,0.67c-6.61,3.51-4.99,9.58-2.83,16.6L494.34,624.48z
	 M477.88,687.77c-6.47,1.76-9.58-7.56-3.1-9.85C481.39,675.36,484.5,685.75,477.88,687.77z M219.66,562.11
	c1.35,1.89,10.13,10.53,11.07,11.88c-0.67,0.94-3.24,3.51-4.18,3.91c-1.35-0.94-21.73-23.22-22-23.62
	c12.42-1.21,6.21,0.81,11.07,2.97c1.62-1.89,2.97-3.24,5.8-4.32c2.97-1.07,5.81-1.34,8.91-0.4c5.8,2.02,8.23,6.75,8.23,12.82
	l-6.21-0.27c0-3.91-1.35-7.02-4.86-7.42C224.38,556.98,220.6,560.76,219.66,562.11z M204.55,304.57c0,0,4.72-11.88-7.96-20.11
	l-35.36-15.52c0,0-14.31-3.37-20.25,9.72c-5.94,13.09-12.69,29.29-12.69,29.29l6.75,0.27l57.09,24.97L204.55,304.57z M190.37,301.33
	l-5.26,12.28l-36.71-15.52l5.26-12.28c0.68-1.62,2.57-2.43,4.32-1.76l30.64,12.96C190.24,297.68,191.05,299.71,190.37,301.33z
	 M214.81,284.46l9.6-11.75l-6.48-8.1l12.55-15.52l9.58,4.72l9.45-11.74l-58.45-26.59l-3.78-5.8l-16.87,20.65l6.61,2.7L214.81,284.46
	z M216.97,242.48l-8.23,10.26l-17.55-22.81L216.97,242.48z M221.43,182.55l-5-4.45l12.82-8.37l32.26,17.01l-2.29-36.58l12.82-8.23
	l1.75,6.48l33.88,52.1l-11.2,7.56l-21.73-32.94l2.56,33.48l-2.16,1.35l-29.43-15.93l21.34,33.47l-11.47,7.42L221.43,182.55z
	 M316.72,198.48l14.32-4.46l-0.54-10.26l19.3-5.53l5.13,9.45l14.44-4.18l-32.66-55.34l0.27-6.88l-25.65,7.29l3.91,6.07
	L316.72,198.48z M342.64,165.41l-12.55,3.64l-1.21-28.75L342.64,165.41z M376.51,165.29v-34.01c0-9.61,7.7-17.3,17.28-17.3h11.88
	c9.45,0,17.28,7.83,17.28,17.28v7.29h-14.04v-6.07c0-2.43-2.02-4.45-4.45-4.45h-8.64c-2.43,0-4.45,2.02-4.45,4.45v31.59
	c0,2.43,2.02,4.45,4.45,4.45h8.64c2.43,0,4.45-2.02,4.45-4.45V158h14.04v7.29c0,9.45-7.83,17.28-17.28,17.28h-11.88
	C384.34,182.57,376.51,174.74,376.51,165.29z M463.19,172.69l12.15-31.72c3.35-9.04,13.34-13.49,22.12-10.12l11.07,4.18
	c8.91,3.37,13.36,13.36,9.99,22.27l-2.56,6.88l-13.09-4.99l2.16-5.67c0.81-2.29-0.27-4.86-2.56-5.67l-8.1-3.1
	c-2.29-0.81-4.86,0.27-5.67,2.56l-11.2,29.43c-0.81,2.29,0.27,4.86,2.56,5.67l8.1,3.1c2.29,0.81,4.86-0.27,5.67-2.56l2.16-5.67
	l13.09,4.99l-2.56,6.88c-3.37,8.91-13.36,13.36-22.27,9.99l-11.07-4.18C464.27,191.59,459.82,181.6,463.19,172.69z M508.53,209.14
	l35.09-49.13l2.03-6.61l14.04,10.12l-31.86,44.54l20.52,13.9l6.61,2.43l-8.37,12.15L508.53,209.14z M565.08,231.28l34.28-29.29
	l3.37-5.53l3.64,4.32l7.29,8.5l-37.93,32.39c-1.89,1.62-2.7,3.78-1.08,5.53l6.48,7.56c1.62,1.89,3.37,1.75,5.26,0.27l3.24-2.7
	l35.36-29.7l8.93,10.67l-33.34,28.62l-5.53,4.72c-7.29,6.07-18.22,5.26-24.3-2.02l-4.32-5.13l-3.37-3.91
	C556.99,248.29,557.8,237.36,565.08,231.28z M661.99,284.87l-12.82-27.81l-5.13,4.32l-56.83,25.92c0,0,11.61,25.65,13.23,28.08
	c1.75,2.43,9.99,14.98,25.24,9.85c15.39-5.13,12.15-19.44,12.15-19.44C645.79,314.7,671.71,306.47,661.99,284.87z M624.2,307.94
	c-5.13,4.59-11.75,3.65-14.31-2.02l-4.72-10.26l15.66-7.15l4.72,10.25C627.03,301.87,626.63,305.78,624.2,307.94z M647.41,293.76
	c-4.19,3.78-9.72,2.97-11.88-1.75l-3.91-8.5l12.96-5.94l3.91,8.5C649.7,288.77,649.43,291.87,647.41,293.76z"/>
</svg>
