<?xml version="1.0" encoding="utf-8"?>
<!-- Created by @FCLOGO 2022-7-14 GMT+8 23:40:02 . https://fclogo.top/ -->
<!-- FOR PERSONAL USE ONLY NOT FOR COMMERCIAL USE -->
<svg version="1.1" xmlns="http://www.w3.org/2000/svg" xmlns:xlink="http://www.w3.org/1999/xlink" x="0px" y="0px"
	 viewBox="0 0 800 800" enable-background="new 0 0 800 800" xml:space="preserve">
<g>
	<path fill="#E05D26" d="M456.64,394.32c0-4.49-3.69-8.08-8.18-8.08c-4.49,0-8.08,3.69-8.18,8.08c0,4.49,3.69,8.08,8.18,8.08
		C452.95,402.39,456.64,398.8,456.64,394.32z"/>
	<path fill="#E05D26" d="M463.52,394.32c0-8.18-6.68-14.96-15.06-14.96c-8.28,0-15.06,6.68-15.06,14.96
		c0,8.28,6.78,14.96,15.06,14.96C456.84,409.27,463.52,402.59,463.52,394.32z M438.19,394.32c0-5.68,4.59-10.27,10.27-10.27
		c5.68,0,10.27,4.59,10.27,10.27c0,5.68-4.59,10.27-10.27,10.27C442.78,404.59,438.19,400,438.19,394.32z"/>
	<path fill="#E05D26" d="M400,50C207.05,50,50,207.05,50,400s157.05,350,350,350c193.05,0,350-157.05,350-350S592.95,50,400,50z
		 M400,735.14C215.23,735.14,64.86,584.77,64.86,400S215.23,64.86,400,64.86S735.14,215.23,735.14,400S584.77,735.14,400,735.14z"/>
	<path fill="#E05D26" d="M140.24,400c0,69.4,27.02,134.62,76.08,183.68S330.6,659.76,400,659.76
		c143.29,0,259.76-116.57,259.76-259.76c0-143.29-116.47-259.76-259.76-259.76S140.24,256.81,140.24,400z M400,155.1
		c135.01,0,244.9,109.89,244.9,244.9S535.01,644.9,400,644.9c-65.41,0-126.94-25.43-173.21-71.7
		c-46.27-46.27-71.7-107.79-71.7-173.21C155.1,264.99,264.99,155.1,400,155.1z"/>
	<path fill="#E05D26" d="M362.21,227.19c2.59,0,73.19,0,75.78,0c1.1-5.88,7.78-32.11,33.6-45.67c-18.55-0.1-34.3,1.6-35.1,3.99
		l0.8,1.5l-0.6,0.8c-1.89,2.59-3.19,5.38-3.19,6.38v0.2c0.1,0.1,2.19,1.2,14.06-5.28l1.79,2.69l-23.93,19.94l-14.96,0.9l-8.97-22.54
		l3.39,1.3c2.69,1,10.47,3.09,13.96,0.7c1.2-0.8,1.7-2.19,1.79-4.59c0,0,0.2-0.9-0.4-1.7c-0.5-0.7-2.09-1.89-6.28-1.99l-9.37,3.39
		l-1.4-2.89c0.1-0.1,5.58-3.79,5.58-8.08v-0.4c-0.2-2.89-3.39-5.68-8.77-8.18c-5.38,2.49-8.48,5.28-8.77,8.18v0.4
		c0,4.29,5.48,8.08,5.58,8.08l-1.3,2.89l-8.87-3.29c-4.69,0-6.38,1.2-6.88,1.89c-0.7,0.8-0.5,1.7-0.4,2.09
		c0,1.99,0.6,3.39,1.79,4.19c3.39,2.39,11.27,0.3,13.96-0.7l3.39-1.3l-8.97,22.54l-14.96-0.9l-23.93-19.94l1.79-2.69
		c11.87,6.48,13.96,5.38,14.06,5.28v-0.2c0-1-1.2-3.79-3.09-6.38l-0.5-1l0.5-0.9l0.2-0.4c-0.8-2.29-16.55-4.09-35.1-3.99
		C354.33,195.09,361.01,221.21,362.21,227.19z"/>
	<path fill="#E05D26" d="M469,598.13c-10.17-1.7-14.16-0.5-21.74-4.59c7.78-3.99,11.67-8.68,19.34-17.15
		c8.68-9.57,14.46-15.75,17.65-22.44c-2.29,0.9-4.79,1.89-7.48,2.99c-10.77,4.29-18.35,7.78-22.44,11.87
		c-7.18,7.28-8.68,13.56-18.25,19.54c0,0-5.19,2.09-25.83,14.26c-3.09,1.79-6.48,3.99-10.17,6.68c-3.69-2.59-7.08-4.79-10.17-6.68
		c-20.64-12.17-25.83-14.26-25.83-14.26c-9.57-5.98-11.07-12.26-18.25-19.54c-4.09-4.09-11.67-7.58-22.44-11.87
		c-2.69-1.1-5.19-2.09-7.48-2.99c3.19,6.68,8.97,12.86,17.65,22.44c7.68,8.48,11.57,13.06,19.34,17.15
		c-7.58,3.99-11.47,2.89-21.74,4.59c-11.97,1.99-13.96,4.79-24.83,1.6c-1.4-0.4-3.19-0.7-5.09-1c2.09,2.79,4.79,5.38,8.18,7.78
		c9.77,6.88,14.46,7.88,25.93,7.88c19.05,0,12.86-7.78,35.3-7.78c7.58,0,16.55,1.4,25.83,5.38c-6.58,4.89-14.16,11.07-22.83,19.05
		l3.49,0.8c7.58-8.38,15.46-14.06,23.23-17.95c7.68,3.89,15.56,9.57,23.13,17.95l3.49-0.8c-8.68-7.88-16.25-14.06-22.83-19.05
		c9.27-4.09,18.15-5.38,25.83-5.38c22.44,0,16.25,7.78,35.3,7.78c11.57,0,16.25-1.1,25.93-7.88c3.39-2.39,6.08-4.99,8.18-7.78
		c-1.89,0.3-3.69,0.6-5.09,1C482.86,602.92,480.97,600.23,469,598.13z"/>
	<path fill="#E05D26" d="M483.86,580.09c5.78-4.49,9.47-10.07,15.66-20.84c6.08-10.57,10.97-17.05,12.36-24.93
		c-2.59,1.4-5.28,2.99-8.08,4.99c-8.97,6.38-15.85,11.37-17.65,14.56c-5.28,9.07-7.58,16.45-11.77,20.94
		c-6.38,6.68-9.07,5.68-13.06,12.26c1.79-0.4,3.49-0.7,4.59-0.7c7.58,0,15.95,11.57,30.51,11.57c7.58,0,18.45-2.49,24.43-6.58
		c6.78-4.59,11.77-9.97,14.86-16.95c-12.26,4.39-8.28,6.08-27.22,6.08C496.72,580.58,491.74,582.38,483.86,580.09z"/>
	<path fill="#E05D26" d="M509.49,566.72c11.57-12.96,12.86-15.95,20.34-31.31c4.79-9.97,6.78-15.16,7.78-18.35
		c0.9-2.99,2.59-3.99,3.69-7.18c-3.99,4.89-8.38,7.68-16.05,15.26c-8.77,8.58-8.97,12.17-14.06,23.53
		c-4.59,10.07-8.68,13.56-11.37,24.33c4.99,0.3,11.07,0.2,17.25,0.2c10.17,0,21.84-2.49,28.22-8.18
		c8.77-7.98,16.95-14.96,21.94-28.82c-10.87,8.48-22.93,9.47-38.89,19.54C519.46,561.04,517.56,565.93,509.49,566.72z"/>
	<path fill="#E05D26" d="M539.1,526.14c-2.59,7.68-0.4,8.08-5.58,19.15c9.77-4.99,16.15-4.49,23.93-8.28
		c4.69-2.29,11.97-6.68,16.35-11.87c3.59-4.19,4.29-8.87,6.88-12.17c4.29-5.58,6.88-7.38,9.27-14.56
		c-5.09,3.29-9.47,7.88-17.25,12.66c-9.27,5.78-17.65,9.87-21.54,14.46c-4.79,5.58-6.08,8.18-10.87,9.67
		c0.9-1.2,1.89-2.49,3.29-4.09c3.79-4.29,6.58-14.06,11.47-27.12c2.69-7.08,3.79-18.15,5.38-28.32c-2.19,3.09-4.39,6.48-6.88,10.27
		c-4.09,6.18-7.08,11.27-8.77,15.66C540.5,513.28,542.19,517.07,539.1,526.14z"/>
	<path fill="#E05D26" d="M575.7,504.2c6.68-4.79,11.37-11.87,16.15-17.05c7.78-8.38,13.16-23.93,16.35-35.8
		c-1.79,4.19-3.39,6.78-8.28,11.67c-7.88,7.88-13.06,10.47-18.55,18.15c-4.89,6.88-8.28,14.16-15.16,19.74
		c4.89-6.98,7.68-17.75,7.58-34.9c-0.1-12.66-0.5-17.95-1.3-21.84c-9.67,23.03-7.98,35.9-9.37,44.97c-1.1,7.88-1.7,18.85-3.29,23.63
		C567.72,510.58,570.71,507.79,575.7,504.2z"/>
	<path fill="#E05D26" d="M580.38,475.58c6.98-6.78,9.37-13.86,12.46-16.85c5.38-5.19,4.89-7.98,9.57-20.04
		c4.79-12.46,5.38-19.44,5.19-25.83c-0.2-7.58,1.4-7.08-0.2-13.46c-2.89,5.68-7.38,8.58-10.97,20.34
		c-2.09,6.98-3.49,14.76-7.58,26.13c-2.69,7.28-3.89,10.87-4.99,13.26c1-12.17,3.49-23.43,0.7-32.41
		c-3.59-11.37-3.69-14.96-8.48-24.43c-0.2,6.38-1.89,10.77-2.49,19.25c-1,13.16,2.49,18.65,3.99,29.32
		C578.89,460.43,580.98,466.81,580.38,475.58z"/>
	<path fill="#E05D26" d="M580.19,399.6c3.69,7.68,7.58,14.16,8.87,26.32c4.29-14.16,8.18-14.46,12.46-36
		c3.99-19.84-1.1-27.62-3.39-36c-1.6,6.48-2.59,12.76-3.09,21.54c-0.9,13.56-0.2,17.25-3.29,25.63c-0.8,2.19-1.6,5.78-1.89,8.77
		c-2.09-11.17,0.1-14.86-4.59-25.03c-3.19-6.78-8.08-16.25-11.17-22.64c0,10.87,1.79,13.46,1.79,20.24
		C575.7,391.72,578.29,395.71,580.19,399.6z"/>
	<path fill="#E05D26" d="M590.56,387.54c2.39-15.06,2.29-23.93-2.09-37.29c-3.99-12.17-6.88-17.65-11.27-21.44
		c-0.3,6.58-1.5,13.96,3.69,33.9C583.28,371.98,584.87,378.46,590.56,387.54z"/>
	<path fill="#E05D26" d="M334.09,586.37c1.1,0,2.79,0.3,4.59,0.7c-4.09-6.68-6.68-5.58-13.16-12.26
		c-4.19-4.39-6.48-11.77-11.77-20.94c-1.89-3.29-8.77-8.18-17.75-14.56c-2.79-2.09-5.48-3.59-8.08-4.99
		c1.4,7.88,6.28,14.36,12.36,24.93c6.28,10.77,9.87,16.25,15.66,20.84c-7.88,2.29-12.86,0.5-24.63,0.5
		c-19.05,0-15.06-1.7-27.22-6.08c3.09,6.98,8.18,12.26,14.86,16.95c5.98,4.09,16.95,6.58,24.43,6.58
		C318.13,598.03,326.51,586.37,334.09,586.37z"/>
	<path fill="#E05D26" d="M300.28,573.01c-2.79-10.77-6.78-14.26-11.37-24.33c-5.19-11.37-5.28-14.96-14.06-23.53
		c-7.68-7.58-12.07-10.47-16.15-15.26c1.1,3.19,2.89,4.19,3.69,7.18c1,3.19,2.89,8.38,7.78,18.35c7.48,15.36,8.77,18.35,20.34,31.31
		c-7.98-0.8-9.97-5.68-18.65-11.07c-16.05-9.97-28.02-11.07-38.89-19.54c4.99,13.86,13.06,20.74,21.94,28.82
		c6.28,5.68,18.05,8.18,28.22,8.18C289.22,573.21,295.4,573.3,300.28,573.01z"/>
	<path fill="#E05D26" d="M256.31,531.03c1.4,1.6,2.49,2.89,3.29,4.09c-4.79-1.4-6.08-3.99-10.87-9.67
		c-3.99-4.69-12.36-8.77-21.64-14.56c-7.68-4.79-12.17-9.47-17.25-12.66c2.39,7.28,4.99,8.97,9.27,14.56
		c2.49,3.29,3.29,8.08,6.88,12.17c4.39,5.19,11.67,9.57,16.35,11.87c7.88,3.89,14.26,3.39,24.03,8.38
		c-5.09-11.07-2.89-11.37-5.48-19.15c-3.09-9.07-1.4-12.86-5.68-24.53c-1.6-4.39-4.69-9.47-8.77-15.66
		c-2.49-3.79-4.69-7.18-6.88-10.27c1.5,10.17,2.59,21.24,5.28,28.32C249.83,516.97,252.52,526.74,256.31,531.03z"/>
	<path fill="#E05D26" d="M233.77,501.11c-6.88-5.58-10.27-12.86-15.16-19.74c-5.48-7.78-10.67-10.27-18.55-18.15
		c-4.89-4.89-6.48-7.48-8.28-11.37c3.19,11.77,8.58,27.42,16.35,35.8c4.79,4.99,9.47,11.97,16.15,16.75
		c4.99,3.59,7.98,6.38,15.85,8.58c-1.6-4.79-2.19-15.75-3.29-23.63c-1.3-9.17,0.4-21.94-9.37-44.97c-0.8,3.79-1.2,9.07-1.3,21.84
		C226.1,483.36,228.79,494.13,233.77,501.11z"/>
	<path fill="#E05D26" d="M192.29,412.86c-0.2,6.38,0.3,13.36,5.19,25.83c4.69,12.07,4.29,14.96,9.67,20.04
		c2.99,2.99,5.48,10.07,12.46,16.85c-0.6-8.77,1.6-15.16,2.89-24.63c1.5-10.77,4.99-16.15,3.99-29.32
		c-0.7-8.48-2.39-12.86-2.49-19.24c-4.79,9.37-4.89,12.96-8.48,24.43c-2.79,8.87-0.3,20.14,0.7,32.41
		c-1.1-2.49-2.39-6.08-4.99-13.26c-4.09-11.37-5.38-19.15-7.58-26.13c-3.59-11.87-8.18-14.66-10.97-20.34
		C190.9,405.78,192.49,405.28,192.29,412.86z"/>
	<path fill="#E05D26" d="M211.04,426.03c1.2-12.17,5.09-18.65,8.87-26.32c1.89-3.89,4.49-7.88,4.49-17.05
		c0-6.68,1.79-9.27,1.79-20.24c-3.09,6.38-7.98,15.85-11.27,22.64c-4.79,10.17-2.49,13.86-4.59,25.03c-0.4-2.99-1.1-6.58-1.89-8.77
		c-3.09-8.38-2.39-12.07-3.29-25.63c-0.5-8.77-1.6-15.06-3.09-21.54c-2.29,8.28-7.38,16.05-3.39,36
		C202.76,411.47,206.65,411.87,211.04,426.03z"/>
	<path fill="#E05D26" d="M219.12,362.71c5.19-19.94,3.99-27.22,3.69-33.9c-4.39,3.79-7.28,9.27-11.27,21.44
		c-4.39,13.36-4.49,22.14-2.09,37.29C215.13,378.46,216.72,371.98,219.12,362.71z"/>
	<path fill="#E05D26" d="M234.57,617.38l-0.8,1.1l1.3,1c0.9,0.7,1.6,1.6,2.09,2.59c0.3,0.7,0.4,1.4,0.3,1.99
		c-0.2,0.8-1,2.19-2.39,4.19l-17.65,24.93c-1.6,2.29-2.89,3.59-3.79,3.89c-1.4,0.4-2.89,0-4.49-1.1l-1.3-1l-0.8,1.1l16.55,11.67
		l0.8-1.1l-1.4-1c-0.9-0.6-1.6-1.5-2.09-2.49c-0.3-0.8-0.4-1.5-0.3-2.09c0.1-0.8,0.9-2.19,2.29-4.19l8.58-12.17l7.08,4.99
		c1.3,0.9,2.19,1.79,2.59,2.59c0.4,0.8,0.5,1.7,0.4,2.69c-0.1,0.9-0.7,2.19-1.7,3.69l1,0.7l9.27-13.06l-1-0.7
		c-1.7,1.89-3.29,2.99-4.49,3.19c-1.2,0.1-2.69-0.3-4.29-1.5l-7.08-4.99l10.77-15.16l8.48,6.18c1.99,1.4,3.39,2.59,4.09,3.69
		c0.7,1.1,1.1,2.29,1.1,3.59c0,1.3-0.3,3.09-1.1,5.19l1,0.7l5.68-8.77L234.57,617.38z"/>
	<path fill="#E05D26" d="M307.46,664.74l-1.79-0.2c-0.4-0.2-0.9-0.8-1.5-1.7c-2.09-2.99-4.69-5.38-7.68-6.98
		c-3.89-2.09-7.98-3.09-12.26-2.89c-4.29,0.2-8.38,1.5-12.07,3.99c-3.79,2.49-6.78,5.78-8.97,9.97c-2.79,5.19-3.79,10.37-2.99,15.76
		c1,7.18,4.99,12.66,11.87,16.35c3.79,2.09,7.58,2.99,11.27,2.79c3.69-0.2,7.58-1.6,11.67-4.19l-0.6-1.1
		c-4.39,2.09-7.88,3.09-10.57,3.19c-2.69,0.1-5.38-0.6-8.08-2.09c-3.09-1.7-5.48-3.89-7.08-6.68c-1.6-2.79-2.29-5.88-1.99-9.27
		c0.3-3.39,1.5-6.98,3.49-10.77c2.39-4.59,5.09-8.08,8.08-10.47c2.89-2.39,5.88-3.69,8.87-3.89c2.99-0.2,5.88,0.4,8.68,1.89
		c3.29,1.79,5.58,4.29,6.98,7.38c1.4,3.19,1.5,7.18,0.5,12.17l1,0.5l6.68-14.76l-1.1-0.7C309.06,663.85,308.26,664.44,307.46,664.74
		z"/>
	<path fill="#E05D26" d="M368.09,712.51l-7.58-14.86c3.99-0.3,7.18-1.4,9.37-3.19c2.19-1.79,3.59-4.19,3.99-7.08
		c0.4-2.69,0-5.19-1.4-7.38c-1.3-2.19-3.09-3.79-5.38-4.89c-2.29-1.1-5.88-1.99-10.87-2.79l-17.05-2.59l-0.2,1.3l1.79,0.3
		c1.79,0.3,2.99,1,3.79,2.19c0.5,0.8,0.5,2.59,0.1,5.58l-4.69,30.21c-0.4,2.69-0.9,4.39-1.5,4.99c-1,1.2-2.49,1.6-4.49,1.3
		l-1.79-0.3l-0.2,1.3l20.04,3.09l0.2-1.3l-1.79-0.3c-1.7-0.3-2.99-1-3.69-2.09c-0.5-0.8-0.6-2.59-0.1-5.58l2.09-13.56l1.1,0.2
		l0.9,0.2c0.8,0.1,1.7,0.2,2.89,0.4l12.46,24.33l12.46,1.89l0.2-1.4c-2.49-0.7-4.49-1.6-5.88-2.89
		C371.48,718.29,369.89,716,368.09,712.51z M350.94,694.96l-0.8-0.1l-1.1-0.2l2.99-19.64c2.29-0.1,4.19,0,5.48,0.2
		c2.99,0.5,5.28,1.79,6.88,3.89c1.6,2.19,2.09,4.69,1.7,7.58c-0.5,2.99-1.99,5.28-4.59,6.88S355.43,695.66,350.94,694.96z"/>
	<path fill="#E05D26" d="M425.13,717.79c-1.1,1.2-2.19,1.99-3.39,2.39c-1.2,0.5-3.09,0.7-5.78,0.9l-7.98,0.4
		c-1.3,0.1-2.19,0-2.69-0.2l-1-1c-0.2-0.4-0.4-1.7-0.5-3.79l-0.9-15.56l10.37-0.6c1.99-0.2,3.49,0,4.49,0.4c0.9,0.4,1.6,1,2.09,1.79
		c0.4,0.6,0.8,2.09,1.3,4.39l1.3-0.1l-0.9-16.45l-1.3,0.1c0,2.69-0.5,4.69-1.7,5.78c-0.9,0.8-2.69,1.3-5.38,1.5l-10.37,0.6l-1-18.65
		l13.06-0.9c2.39-0.2,3.99-0.1,4.99,0.2c1.1,0.4,2.09,1.1,2.69,1.99c0.6,0.9,1.3,2.59,1.89,5.09l1.3-0.1l-1.1-10.37l-36.4,1.99
		l0.1,1.3l1.6-0.1c1.99-0.1,3.39,0.3,4.29,1.2c0.6,0.7,1,2.49,1.2,5.48l1.7,30.71c0.1,2.29,0,3.79-0.2,4.59
		c-0.2,0.8-0.7,1.4-1.4,1.79c-1,0.6-2.09,0.9-3.19,1l-1.6,0.1l0.1,1.3l36.4-1.99l3.39-12.07l-1.4,0.1
		C427.82,714,426.52,716.3,425.13,717.79z"/>
	<path fill="#E05D26" d="M477.48,669.03c0.5-1.4,1.79-2.29,3.79-2.69l1.6-0.4l-0.3-1.3l-16.15,3.49l0.3,1.3l1.6-0.4
		c1.79-0.4,3.29-0.2,4.29,0.6c0.9,0.6,1.6,2.29,2.19,5.19l5.78,26.62l-35.9-28.52l-12.56,2.79l0.5,1.3c1.4-0.3,2.39-0.4,3.09-0.4
		c1.5,0.2,2.59,0.5,3.39,0.8c0.8,0.4,1.99,1.2,3.69,2.49l6.98,32.21c0.5,2.59,0.7,4.29,0.3,5.09c-0.5,1.4-1.79,2.29-3.79,2.69
		l-1.6,0.3l0.3,1.3l16.05-3.49l-0.3-1.3l-1.7,0.4c-1.79,0.4-3.19,0.2-4.29-0.6c-0.8-0.6-1.5-2.29-2.09-5.09l-6.18-28.52l38.69,30.61
		l1.2-0.3l-8.48-38.99C477.28,671.62,477.18,669.83,477.48,669.03z"/>
	<path fill="#E05D26" d="M547.58,686.38c-1,0.4-2.09,0.6-3.29,0.5c-0.8-0.1-1.5-0.4-1.89-0.8c-0.6-0.6-1.3-1.99-2.29-4.19
		l-12.36-27.92c-0.9-2.09-1.4-3.59-1.5-4.39c-0.1-0.8,0.2-1.6,0.7-2.19c0.7-0.9,1.6-1.5,2.59-1.99l1.6-0.7l-0.5-1.2l-18.55,8.18
		l0.5,1.2l1.6-0.7c1-0.5,2.09-0.6,3.29-0.5c0.9,0.1,1.6,0.4,1.99,0.8c0.6,0.6,1.3,1.99,2.29,4.19l5.48,12.46l-20.14,8.87
		l-5.78-12.46c-1-2.09-1.4-3.59-1.5-4.39c0-0.8,0.2-1.6,0.7-2.19c0.7-0.9,1.6-1.6,2.59-1.99l1.6-0.7l-0.5-1.2l-18.55,8.18l0.5,1.2
		l1.5-0.7c1-0.4,2.09-0.6,3.29-0.5c0.8,0.1,1.5,0.4,1.89,0.8c0.6,0.6,1.3,1.99,2.29,4.19l12.36,27.92c1.1,2.59,1.6,4.39,1.4,5.28
		c-0.4,1.4-1.4,2.49-3.19,3.29l-1.5,0.7l0.5,1.2l18.55-8.18l-0.5-1.2l-1.6,0.7c-1,0.4-2.09,0.6-3.19,0.5c-0.9-0.1-1.5-0.4-1.99-0.8
		c-0.6-0.6-1.3-1.99-2.29-4.19l-5.88-13.16l20.14-8.87l5.88,13.16c1.2,2.59,1.6,4.39,1.4,5.28c-0.4,1.4-1.4,2.49-3.19,3.29l-1.5,0.7
		l0.5,1.2l18.55-8.18l-0.5-1.2L547.58,686.38z"/>
	<path fill="#E05D26" d="M588.16,644.5c0.4,3.19,0.5,5.88,0.2,7.88c-0.3,1.5-0.8,2.79-1.6,3.79c-0.8,1-2.19,2.29-4.39,3.89
		l-6.48,4.69c-1.1,0.8-1.89,1.2-2.39,1.3l-1.4-0.3c-0.4-0.3-1.3-1.3-2.49-2.99l-9.17-12.66l8.38-6.08c1.6-1.1,2.99-1.79,3.99-1.99
		c1-0.2,1.99,0,2.79,0.4c0.6,0.3,1.79,1.3,3.39,2.99l1.1-0.8l-9.67-13.36l-1.1,0.8c1.5,2.29,2.09,4.19,1.7,5.78
		c-0.3,1.2-1.5,2.59-3.69,4.19l-8.38,6.08l-10.97-15.16l10.37-7.58c1.89-1.4,3.29-2.19,4.29-2.49c1.2-0.3,2.39-0.2,3.39,0.2
		c1.1,0.4,2.49,1.5,4.39,3.19l1.1-0.8l-6.48-8.08l-29.52,21.34l0.8,1.1l1.3-1c1.5-1.1,2.99-1.6,4.19-1.3c0.9,0.2,2.19,1.6,3.99,3.99
		l18.05,24.93c1.3,1.79,2.09,3.09,2.29,3.89c0.2,0.8,0.2,1.6-0.2,2.29c-0.5,1-1.2,1.79-2.09,2.49l-1.3,1l0.8,1l29.62-21.34
		l-3.69-12.07L588.16,644.5z"/>
	<path fill="#E05D26" d="M436.6,551.67c4.19-1.79,7.98-3.89,11.37-6.18c-4.19-0.1-8.18-1.4-11.37-3.69V551.67z"/>
	<path fill="#E05D26" d="M362.71,551.67v-9.87c-3.29,2.29-7.18,3.59-11.37,3.69C354.73,547.78,358.52,549.87,362.71,551.67z"/>
	<path fill="#E05D26" d="M331.2,347.75l5.09,1c36.1,4.69,49.06,58.43,49.06,58.43C375.87,341.67,331.2,347.75,331.2,347.75z"/>
	<path fill="#E05D26" d="M468.11,347.75c0,0-44.67-6.08-54.24,59.43c0,0,12.96-53.75,49.06-58.43L468.11,347.75z"/>
	<path fill="#E05D26" d="M407.58,440.68c-3.49-1.4-7.08,2.59-7.98,3.69c-0.9-1.1-4.39-5.09-7.98-3.69c-3.99,1.6-6.18,4.79-5.19,8.87
		c1,3.99,5.09,5.88,6.58,7.08c1.79,1.4,4.99,5.09,6.38,8.28l0.2,0.6l0.5-1.3c1.6-3.19,4.99-6.68,6.48-7.98
		c1.5-1.2,5.09-2.59,6.08-6.68C413.76,445.47,411.67,442.28,407.58,440.68z"/>
	<path fill="#E05D26" d="M360.91,525.34c0-5.48-4.49-9.97-9.97-9.97s-9.97,4.39-9.97,9.97c0,5.48,4.49,9.97,9.97,9.97
		S360.91,530.83,360.91,525.34z M350.94,531.72c-3.59,0-6.48-2.89-6.48-6.38c0-3.59,2.89-6.38,6.48-6.38c3.59,0,6.48,2.89,6.48,6.38
		C357.32,528.83,354.53,531.72,350.94,531.72z"/>
	<path fill="#E05D26" d="M448.36,515.37c-5.48,0-9.97,4.39-9.97,9.97c0,5.48,4.49,9.97,9.97,9.97c5.48,0,9.97-4.49,9.97-9.97
		C458.33,519.86,453.85,515.37,448.36,515.37z M448.36,531.72c-3.59,0-6.48-2.89-6.48-6.38c0-3.59,2.89-6.38,6.48-6.38
		c3.59,0,6.48,2.89,6.48,6.38C454.74,528.83,451.85,531.72,448.36,531.72z"/>
	<path fill="#E05D26" d="M346.75,409.76c1.58,0.65,3.15,1.17,4.68,1.51C349.9,410.9,348.33,410.38,346.75,409.76z"/>
	<path fill="#E05D26" d="M324.42,369.59c6.28-6.58,20.74-3.19,32.21,7.58c3.49,3.29,6.28,6.88,8.38,10.47
		c-2.29-4.39-5.68-8.68-9.77-12.56c-7.88-7.48-17.65-12.17-25.43-12.17c-3.79,0-6.88,1.1-8.97,3.29c-1.99,2.09-2.89,4.99-2.79,8.58
		c0.2,7.78,5.38,17.45,13.56,25.13c4.66,4.43,9.97,7.8,15.16,9.86c-4.38-1.81-8.86-4.75-12.97-8.56
		C322.32,390.33,318.13,376.27,324.42,369.59z"/>
	<path fill="#E05D26" d="M365.7,409.07c-0.3,0.2-0.5,0.4-0.7,0.6C365.2,409.47,365.5,409.27,365.7,409.07z"/>
	<path fill="#E05D26" d="M364.3,410.17c-0.1,0-0.3,0.1-0.4,0.2C364.1,410.27,364.2,410.17,364.3,410.17z"/>
	<path fill="#E05D26" d="M434.2,409.57c-0.1-0.1-0.2-0.2-0.3-0.3C434,409.37,434.1,409.57,434.2,409.57z"/>
	<path fill="#E05D26" d="M435.1,410.23c0.06,0.03,0.1,0.04,0.1,0.04C435.16,410.27,435.13,410.25,435.1,410.23z"/>
	<path fill="#E05D26" d="M435.1,410.23c-0.03-0.01-0.06-0.03-0.1-0.06C435,410.17,435.04,410.21,435.1,410.23z"/>
	<path fill="#E05D26" d="M478.48,366.3c-2.09-2.19-5.19-3.29-8.97-3.29c-7.78,0-17.45,4.69-25.43,12.17
		c-4.09,3.89-7.38,8.18-9.77,12.56c2.09-3.59,4.89-7.18,8.38-10.57c11.47-10.87,25.93-14.26,32.21-7.58
		c6.28,6.68,2.09,20.74-9.37,31.61c-5.58,5.28-11.87,8.77-17.55,10.27c6.48-1.6,13.76-5.58,19.84-11.37
		c8.08-7.68,13.26-17.25,13.56-25.13C481.37,371.38,480.37,368.39,478.48,366.3z"/>
	<path fill="#E05D26" d="M350.74,386.24c-4.49,0-8.08,3.69-8.18,8.08c0,4.49,3.69,8.08,8.18,8.08c4.49,0,8.18-3.59,8.18-8.08
		C358.92,389.83,355.23,386.24,350.74,386.24z"/>
	<path fill="#E05D26" d="M350.74,379.36c-8.28,0-15.06,6.68-15.06,14.96c0,8.28,6.78,14.96,15.06,14.96
		c8.38,0,15.06-6.68,15.06-14.96C365.8,386.14,359.12,379.36,350.74,379.36z M350.74,404.59c-5.68,0-10.27-4.59-10.27-10.27
		c0-5.68,4.59-10.27,10.27-10.27c5.68,0,10.27,4.59,10.27,10.27C361.11,400,356.42,404.59,350.74,404.59z"/>
	<path fill="#E05D26" d="M399.8,486.25c-0.1-1.5-0.4-1.4-0.4,0c0,13.36-6.48,17.65-6.48,17.65c3.09,1.6,5.48,6.48,6.48,8.58l0.2,0.5
		l0.4-0.9c1.1-2.29,3.39-6.58,6.28-8.18C406.28,503.9,399.8,499.22,399.8,486.25z"/>
	<path fill="#E05D26" d="M167.26,572.31c-7.78,0-14.16,6.28-14.16,14.16c0,7.78,6.28,14.16,14.16,14.16
		c7.78,0,14.16-6.28,14.16-14.16C181.42,578.69,175.14,572.31,167.26,572.31z M167.26,597.14c-5.88,0-10.67-4.79-10.77-10.67
		c0-5.88,4.79-10.77,10.77-10.77c5.88,0,10.77,4.79,10.77,10.77C178.03,592.35,173.25,597.14,167.26,597.14z"/>
	
		<ellipse transform="matrix(0.9732 -0.2298 0.2298 0.9732 -123.9869 48.8358)" fill="#E05D26" cx="147.72" cy="556.85" rx="13.76" ry="13.76"/>
	<path fill="#E05D26" d="M192.69,600.53c-7.58,0-13.76,6.18-13.76,13.76c0,7.58,6.18,13.76,13.76,13.76s13.76-6.18,13.76-13.76
		C206.45,606.61,200.37,600.43,192.69,600.53z"/>
	<path fill="#E05D26" d="M632.74,572.31c-7.78,0-14.16,6.28-14.16,14.16c0,7.78,6.28,14.16,14.16,14.16
		c7.78,0,14.16-6.28,14.16-14.16C646.89,578.69,640.61,572.31,632.74,572.31z M632.74,597.14c-5.88,0-10.67-4.79-10.77-10.67
		c0-5.88,4.79-10.77,10.77-10.77c5.88,0,10.77,4.79,10.77,10.77C643.5,592.35,638.72,597.14,632.74,597.14z"/>
	<circle fill="#E05D26" cx="652.28" cy="556.85" r="14.06"/>
	<path fill="#E05D26" d="M607.31,600.43c-7.68-0.1-13.86,6.18-13.86,13.86c0,7.68,6.18,13.86,13.86,13.86
		c7.68,0,13.86-6.18,13.86-13.86C621.17,606.61,614.99,600.43,607.31,600.43z"/>
	<path fill="#E05D26" d="M309.86,456.64c0,0.3,1.7,29.32,13.56,57.93c15.75,38.09,42.08,58.23,76.28,58.23
		c34.2,0,60.63-20.44,76.48-58.83c11.97-29.02,13.86-58.33,13.86-58.73l-0.1-139.9v-1.1H309.96L309.86,456.64z M389.03,334.19
		c3.29,0.9,1.89,4.99-1.4,5.68c-1.7,0.4-3.09,0-4.29-1.3l-0.3-0.3c-0.9-1-1.99-2.69-2.09-5.19c-0.1-4.19,3.59-7.08,8.58-7.68
		c4.89-0.6,8.28,1.4,9.97,5.78c1.79-4.39,5.09-6.38,9.97-5.78c4.89,0.6,8.68,3.49,8.58,7.68c-0.1,4.19-3.09,6.08-3.09,6.08
		c0.1-0.1,0.3-0.1,0.4-0.2c-1.1,0.9-2.39,1.1-3.89,0.8c-3.29-0.7-4.69-4.69-1.4-5.68c0,0-4.09-0.7-4.09,3.79s5.48,5.19,8.77,3.49
		c3.29-1.7,20.34-8.28,27.52-9.87c7.08-1.6,20.34-4.49,29.62-0.7c7.64,3.12,14.04,9.68,16.07,11.9l0.01,12.25
		c-0.54-0.94-1.26-2.24-2.22-3.7c-1.89-2.79-6.78-8.97-11.97-11.37c-5.09-2.39-13.46-4.39-24.63-2.09
		c-11.17,2.39-29.22,8.48-33.4,11.07c-4.29,2.59-8.68,2.09-11.57,0.3c-2.29-1.4-4.29-5.68-4.29-5.68c-0.1,0.1-2.39,4.09-4.79,5.68
		c-2.79,1.89-7.38,2.39-11.57-0.3c-4.29-2.59-22.34-8.68-33.4-11.07c-11.17-2.39-19.54-0.4-24.63,1.99
		c-5.09,2.29-10.17,8.08-12.07,10.97c-0.63,0.93-1.04,1.64-1.32,2.19l0.01-11.16c2.07-2.27,7.68-7.89,14.98-10.87
		c9.27-3.79,22.54-0.9,29.62,0.7c7.08,1.7,24.23,8.28,27.52,9.87c3.29,1.7,8.77,1,8.77-3.49
		C393.02,333.49,389.03,334.19,389.03,334.19z M442.28,414.56c-4.39,0-8.18-1.3-10.77-4.09c-7.48-7.88-2.59-24.43,10.77-37.09
		c8.77-8.28,18.95-12.76,27.02-12.76c4.39,0,8.08,1.3,10.77,4.09c7.58,7.78,2.79,24.43-10.67,37.09
		C460.63,410.07,450.46,414.56,442.28,414.56z M465.01,413.66l-2.29,4.29c-15.16,19.05-33.8,34-33.8,34
		c3.99-3.29,5.58-16.55,5.58-16.55C444.97,430.71,465.01,413.66,465.01,413.66z M382.05,568.32v-46.77c0,0,11.07,11.77,13.06,37.99
		v10.47C390.53,569.72,386.14,569.12,382.05,568.32z M404.09,569.91v-10.47c1.99-26.23,13.06-37.99,13.06-37.99v46.77
		C413.06,569.02,408.68,569.62,404.09,569.91z M415.26,460.83c-2.89,3.99-7.38,9.77-7.28,22.54c0.2,11.77,8.68,23.53,8.68,23.53
		c-4.99,1.3-15.36,12.96-15.36,30.61c0,7.18,0.1,32.61,0.1,32.61c-0.5,0-1,0.1-1.5,0.1h-0.1h-0.2c-0.4,0-0.8,0-1.2-0.1
		c0-1.2-0.1-21.04-0.1-33.8c0.1-20.94-10.97-28.42-15.66-29.52c0,0,9.07-11.97,8.28-23.63c-0.8-11.77-3.89-18.35-6.78-22.34
		s-6.78-8.18-5.19-15.16c1.6-6.88,6.68-9.17,8.87-9.97c2.09-0.7,9.67-5.98,11.27-12.36l0.6-2.39l1.5,4.69
		c2.69,5.78,8.68,9.37,10.37,9.97c2.19,0.8,7.18,3.09,8.87,9.97C421.94,452.55,418.15,456.74,415.26,460.83z M367.69,410.47
		c-2.59,2.69-6.38,4.09-10.77,4.09c-8.18,0-18.35-4.49-27.02-12.76c-13.36-12.66-18.25-29.32-10.77-37.09
		c2.59-2.69,6.38-4.09,10.77-4.09c8.18,0,18.35,4.49,27.12,12.76C370.28,386.04,375.07,402.59,367.69,410.47z M370.1,451.88
		c-1.28-1.1-19.06-15.62-33.62-33.93l-2.39-4.29c0,0,20.04,17.05,30.51,21.74C364.6,435.4,366.18,448.47,370.1,451.88z
		 M359.42,362.31c-15.06-13.16-33.9-14.36-37.89-13.56c0,0,2.39-1.2,3.59-1.5c1.2-0.2,62.92-11.87,61.03,66.71
		C386.04,413.96,377.17,377.96,359.42,362.31z M394.91,390.43c-0.2-5.58,1.99-5.88,4.29-5.98c2.19,0,2.09,0.1,2.09,0.1
		c2.69,0.4,2.89,2.19,2.89,4.89c0,6.88,0,20.34,0,20.34s0.3,2.79-2.09,3.89l-2.29,0.3c-5.58,0.1-4.59-4.29-4.59-4.29
		S395.01,397.41,394.91,390.43z M403.49,374.67c-0.7,0.1-1.5,0.3-2.89,0.3c0,0-2.39,0.3-4.79-0.3c-5.48-1.2-11.27-8.68-13.56-12.26
		c-2.39-3.59-8.28-9.57-8.28-9.57c2.29,0.2,4.79,3.19,11.47,9.67c5.78,5.58,15.56,4.79,15.56,4.79c2.59-0.1,8.38-0.5,12.76-4.79
		c6.68-6.48,9.17-9.57,11.57-9.67c0,0-5.98,5.88-8.28,9.57C414.66,366,409.07,374.27,403.49,374.67z M413.26,413.96
		c-1.1-78.58,59.83-66.91,61.03-66.71c1.2,0.3,3.59,1.5,3.59,1.5c-4.09-0.8-22.83,0.4-37.89,13.56
		C422.04,377.96,413.26,413.96,413.26,413.96z M312.05,456.44l0.02-26.71c2.47,3.35,9.89,13.4,12.94,17.04
		c3.79,4.49,14.46,15.95,17.45,18.65c3.09,2.69,7.28,5.48,9.07,7.08c1.89,1.6,5.09,7.68,0.3,13.56c-4.79,5.88-11.37,4.99-16.45,0.2
		c-4.99-4.79-12.66-13.46-17.25-20.24c-3.43-4.97-5.1-7.58-6.06-9.17C312.06,456.59,312.05,456.45,312.05,456.44z M330.12,523.77
		c0.16,0.26,0.32,0.52,0.48,0.78c0.3-6.18,3.29-11.67,7.88-15.16c-6.27-0.95-12.87-4.16-17.36-7.65
		c-3.29-10.07-5.42-19.66-6.77-27.4c2.59,3.59,6.23,8.54,8.48,11.13c3.69,4.29,9.57,11.57,14.56,13.16s18.35,2.69,23.73-9.77
		c5.28-12.56-0.8-20.54-4.29-23.53c-3.59-2.99-12.66-10.87-18.85-17.55c-6.28-6.78-9.27-9.97-15.85-19.54
		c-5.08-7.39-8.67-12.15-10.04-13.95l0.01-20.46c0.66,1.93,1.92,5.32,3.84,9.17c2.99,6.08,13.36,20.44,21.24,29.81
		c7.88,9.37,14.96,16.15,20.34,21.34c5.38,5.19,16.05,11.17,17.65,20.44c1.6,9.27,1.1,18.65-7.28,25.03
		c-3.69,2.79-7.08,4.99-10.47,6.58c0,0,13.46,2.59,13.46,19.44c0,15.14,0,35.53,0,39.35C354.07,557.95,340.43,544.19,330.12,523.77z
		 M428.92,564.83c0-4.17,0-24.19,0-39.19c0-16.75,13.46-19.44,13.46-19.44c-3.39-1.6-6.88-3.79-10.47-6.58
		c-8.38-6.38-8.87-15.75-7.28-25.03c1.6-9.17,12.26-15.26,17.65-20.44c5.38-5.19,12.46-11.87,20.34-21.34
		c7.88-9.37,18.15-23.73,21.24-29.81c1.75-3.5,3.22-6.71,4.14-8.79l0.01,18.91c-1.49,2.02-5.55,7.57-10.74,15.11
		c-6.58,9.57-9.57,12.76-15.85,19.54c-6.18,6.78-15.36,14.56-18.85,17.55c-3.59,2.99-9.67,10.97-4.29,23.43
		c5.38,12.46,18.75,11.37,23.63,9.77c4.99-1.6,10.87-8.87,14.56-13.16c2.31-2.66,6.46-8.32,9.23-12.27
		c-1.4,7.98-3.61,17.89-7.03,28.28c-4.49,3.63-11.26,7.05-17.86,8.03c4.49,3.49,7.48,8.97,7.88,15.16c0.61-0.95,1.18-1.9,1.73-2.84
		C459.92,543.07,446.05,557.49,428.92,564.83z M488.05,454.94c0,0.01-0.01,0.11-0.01,0.24c-1.07,1.9-3.2,5.41-6.87,10.83
		c-4.69,6.78-12.26,15.46-17.25,20.24c-4.99,4.79-11.57,5.68-16.45-0.2c-4.79-5.88-1.6-11.87,0.2-13.46s6.08-4.49,9.07-7.08
		c2.99-2.69,13.76-14.16,17.45-18.65c3.16-3.76,11.51-15.19,13.84-18.4L488.05,454.94z M437.89,316.24h11.37h9.37h9.77h10.17h9.37
		l0,1.03l-8.18,12.13l-1.2-1v-12.17l-8.28,10.07l-1.89-0.6v-9.47l-7.38,8.97c-1.1,0-2.39,0-2.39,0v-8.97l-7.68,9.97
		c-1.6,0-1.7,0.3-1.7,0.3v-10.27l-8.68,12.17c-2.09,0.6-2.69,1.1-2.69,1.1V316.24l-17.95,18.15c1.6-4.49-2.79-9.57-8.68-10.77
		c-8.28-1.7-11.67,3.49-11.67,3.49s-3.39-5.19-11.67-3.49c-5.98,1.3-10.27,6.38-8.68,10.87l-17.95-18.15v13.26c0,0-0.6-0.5-2.69-1.1
		l-8.68-12.17v10.27c0,0-0.1-0.3-1.7-0.3l-7.68-9.97v8.97c0,0-1.2,0-2.39,0l-7.38-8.97v9.47l-1.89,0.6l-8.28-10.07v12.17l-1.2,1
		l-7.28-11.72l0-1.54H437.89z"/>
	<path fill="#E05D26" d="M123.65,456.49l-20.03,5.08l4.46,17.58l5-1.27l-2.79-11l11.82-3c1.97,2.38,3.44,5.51,4.42,9.37
		c1.42,5.61,1.03,10.45-1.19,14.52c-2.21,4.07-6.06,6.8-11.53,8.18c-5.32,1.35-10.06,0.65-14.23-2.11
		c-4.16-2.76-6.94-6.89-8.34-12.42c-1.42-5.61-1.55-10.72-0.37-15.34l-6.1,1.54c-0.54,4.18-0.12,9.01,1.27,14.49
		c1.96,7.75,5.75,13.55,11.35,17.4c5.6,3.85,11.78,4.92,18.53,3.21c6.68-1.69,11.45-5.29,14.31-10.79
		c2.86-5.5,3.36-11.91,1.51-19.25C130.11,466.33,127.41,460.93,123.65,456.49z"/>
	<path fill="#E05D26" d="M124.29,429.36c-0.68-13.4-7.39-19.78-20.13-19.13l-26.69,1.36l0.34,6.74l27.53-1.41
		c8.72-0.45,13.3,3.57,13.73,12.05c0.45,8.77-3.83,13.39-12.84,13.85l-27.1,1.38l0.34,6.75l27.36-1.4
		C119.13,448.93,124.95,442.2,124.29,429.36z"/>
	<polygon fill="#E05D26" points="81.76,395.29 117,395.8 116.93,400.84 121.85,400.91 122.1,384.09 117.18,384.02 117.1,389.05 
		81.86,388.54 81.93,383.51 77.01,383.43 76.76,400.25 81.68,400.32 	"/>
	<polygon fill="#E05D26" points="87.28,348.9 121.18,383.35 123.14,383.6 128.06,344.53 122.95,343.89 119.27,373.14 85.14,338.45 
		83.4,338.23 78.7,375.63 83.84,376.28 	"/>
	<polygon fill="#E05D26" points="129.93,332.21 110.61,325.91 118.82,300.74 138.13,307.04 140.23,300.62 97.36,286.64 
		95.26,293.06 113.89,299.13 105.68,324.31 87.06,318.23 84.96,324.66 127.83,338.63 	"/>
	<path fill="#E05D26" d="M119.13,280.25c5.04,4.16,10.55,5.81,16.55,4.95c5.99-0.86,11.36-4.15,16.09-9.88
		c4.85-5.87,7.12-11.88,6.82-18.02c-0.3-6.15-3.18-11.48-8.64-15.99c-5.04-4.16-10.54-5.83-16.5-5c-5.97,0.82-11.27,4.04-15.9,9.65
		c-4.98,6.02-7.31,12.12-7.01,18.3C110.83,270.44,113.7,275.77,119.13,280.25z M121.19,249.5c3.46-4.18,7.36-6.5,11.7-6.96
		c4.34-0.46,8.69,1.11,13.03,4.7c4.23,3.49,6.5,7.44,6.82,11.84c0.32,4.4-1.29,8.75-4.85,13.05c-3.31,4.01-7.22,6.25-11.73,6.71
		c-4.51,0.46-8.8-0.98-12.87-4.35c-4.04-3.34-6.25-7.31-6.63-11.92C116.29,257.97,117.79,253.61,121.19,249.5z"/>
	<path fill="#E05D26" d="M183.9,228.2c8.05-10.74,6.97-19.93-3.24-27.58l-21.39-16.02l-4.05,5.41l22.06,16.53
		c6.99,5.24,7.94,11.25,2.85,18.04c-5.27,7.03-11.51,7.84-18.73,2.43l-21.71-16.27l-4.05,5.4l21.92,16.42
		C167.41,239.94,176.19,238.49,183.9,228.2z"/>
	<path fill="#E05D26" d="M209.07,201.22l-13.2-13.64l3.49-3.38c1.44-1.39,2.99-2.27,4.65-2.62c1.66-0.36,3.99-0.24,6.97,0.36
		l14.94,2.96l5.73-5.54l-16.43-2.89c-2.83-0.53-4.96-0.78-6.39-0.75c-1.43,0.03-2.84,0.36-4.24,0.98l-0.1-0.11
		c4.27-6.72,4.23-12.33-0.11-16.82c-2.65-2.73-5.74-3.86-9.28-3.37c-3.54,0.49-7.14,2.5-10.8,6.04l-11.45,11.09l31.36,32.4
		L209.07,201.22z M181.25,172.48l5.8-5.61c2.41-2.33,4.71-3.64,6.89-3.91c2.18-0.27,4.08,0.43,5.72,2.12
		c1.76,1.81,2.48,3.95,2.18,6.4c-0.3,2.45-1.56,4.75-3.78,6.9l-5.73,5.54L181.25,172.48z"/>
	<polygon fill="#E05D26" points="258.67,162.37 255.79,158.1 238.06,170.05 229.59,157.47 245.1,147.02 242.22,142.74 226.71,153.2 
		218.64,141.23 235.39,129.94 232.49,125.64 210.14,140.7 235.34,178.1 	"/>
	<path fill="#E05D26" d="M271.37,156.03l-13.38-28.74c-1.35-2.9-2.32-4.77-2.91-5.61l0.18-0.09c0.82,0.69,1.77,1.33,2.86,1.91
		l38.66,20.7l7.26-3.38l-19.03-40.88l-6.06,2.82l13.09,28.11c1.31,2.82,2.34,4.76,3.08,5.82l-0.12,0.06
		c-0.39-0.31-1.49-0.95-3.27-1.91l-37.75-20.44l-7.69,3.58l19.03,40.88L271.37,156.03z"/>
	<polygon fill="#E05D26" points="318.81,135.31 315.32,115.29 341.41,110.75 344.89,130.77 351.55,129.61 343.81,85.19 
		337.16,86.34 340.52,105.65 314.43,110.19 311.07,90.89 304.42,92.04 312.15,136.47 	"/>
	<polygon fill="#E05D26" points="390.94,124.78 390.73,119.63 369.37,120.51 368.75,105.36 387.44,104.59 387.23,99.44 
		368.54,100.21 367.94,85.79 388.12,84.95 387.9,79.78 360.98,80.89 362.84,125.94 	"/>
	<polygon fill="#E05D26" points="428.35,106.99 447.01,108.28 447.37,103.17 428.7,101.88 429.74,86.84 449.88,88.23 450.24,83.06 
		423.36,81.2 420.25,126.19 426.99,126.65 	"/>
	<path fill="#E05D26" d="M530.94,156.3c7.57,0.73,13.83-0.81,18.77-4.64c4.94-3.83,7.76-9.39,8.47-16.67
		c0.65-6.72-1.03-12.39-5.04-17.01c-4.01-4.62-9.63-7.28-16.87-7.99c-7.78-0.76-14.15,0.79-19.11,4.64
		c-4.96,3.85-7.8,9.39-8.5,16.64c-0.65,6.72,1.05,12.4,5.1,17.02C517.82,152.91,523.54,155.58,530.94,156.3z M515.77,131.49
		c0.52-5.39,2.59-9.58,6.21-12.59c3.62-3,8.08-4.25,13.39-3.73c5.4,0.52,9.5,2.51,12.3,5.96c2.8,3.45,3.91,8.07,3.35,13.87
		c-0.55,5.64-2.56,9.88-6.03,12.71c-3.48,2.83-7.99,3.97-13.55,3.44c-5.18-0.5-9.22-2.54-12.11-6.13
		C516.43,141.42,515.24,136.92,515.77,131.49z"/>
	<path fill="#E05D26" d="M479.69,136.43c7.61,0,13.69-2.15,18.24-6.43c4.55-4.29,6.82-10.09,6.82-17.41
		c0-6.75-2.22-12.24-6.65-16.45c-4.44-4.21-10.29-6.32-17.56-6.32c-7.81,0-14,2.15-18.58,6.46c-4.57,4.31-6.85,10.1-6.85,17.38
		c0,6.75,2.24,12.24,6.72,16.45C466.3,134.33,472.26,136.43,479.69,136.43z M467.16,100.07c3.31-3.34,7.63-5.01,12.97-5.01
		c5.43,0,9.7,1.58,12.82,4.75c3.12,3.16,4.68,7.66,4.68,13.48c0,5.67-1.59,10.08-4.78,13.23c-3.19,3.15-7.57,4.73-13.15,4.73
		c-5.2,0-9.42-1.64-12.65-4.93c-3.23-3.29-4.85-7.66-4.85-13.12C462.2,107.79,463.85,103.41,467.16,100.07z"/>
	<polygon fill="#E05D26" points="564.17,177.53 588.22,145.69 600.27,154.79 603.4,150.65 573.94,128.4 570.82,132.54 582.81,141.6 
		558.75,173.44 	"/>
	<path fill="#E05D26" d="M592.76,202.43c3.64,3.49,7.46,5.48,11.45,5.98c3.99,0.5,7.33-0.65,10.01-3.45
		c2.09-2.19,3.05-4.73,2.88-7.62c-0.18-2.89-1.43-5.7-3.76-8.41l0.08-0.08c2.61,1.4,5.17,1.98,7.67,1.73
		c2.5-0.24,4.6-1.26,6.32-3.06c2.16-2.26,2.9-5.02,2.23-8.28c-0.68-3.27-2.68-6.49-5.99-9.66l-11.1-10.62l-31.18,32.58
		L592.76,202.43z M613.9,167.3l4.88,4.67c4.75,4.55,5.65,8.35,2.72,11.42c-1.68,1.75-3.66,2.48-5.95,2.19
		c-2.29-0.3-4.61-1.57-6.97-3.83l-4.44-4.25L613.9,167.3z M605.69,185.99c5.87,5.62,7.02,10.29,3.45,14.02
		c-1.73,1.81-3.78,2.56-6.14,2.24c-2.36-0.31-4.82-1.69-7.38-4.14l-5.85-5.6l10.87-11.36L605.69,185.99z"/>
	<path fill="#E05D26" d="M611.4,221.42l12.89-3.38l13.07,17.43l-6.67,11.67l4.48,5.97l24.12-42.99l-4.34-5.78l-48.03,11.11
		L611.4,221.42z M649.35,211.7c0.78-0.19,1.78-0.59,3.02-1.21l0.1,0.14c-1.02,1.13-1.7,1.98-2.03,2.53l-10.26,17.57l-10.53-14.05
		L649.35,211.7z"/>
	<polygon fill="#E05D26" points="651.13,282.3 655.65,279.84 645.7,261.53 680.78,242.45 677.55,236.51 637.94,258.06 	"/>
	<polygon fill="#E05D26" points="663.82,315.1 668.55,313.07 660.34,293.92 697.04,278.17 694.37,271.96 652.94,289.74 	"/>
	<path fill="#E05D26" d="M690.85,332.27c-6.65,1.18-11.6,4.33-14.87,9.45c-3.26,5.13-4.24,11.38-2.93,18.77
		c1.01,5.72,2.71,10.32,5.1,13.81l5.51-0.97c-2.65-3.42-4.43-7.68-5.33-12.78c-0.96-5.45-0.18-10.14,2.35-14.06
		c2.53-3.92,6.45-6.35,11.76-7.29c5.6-0.99,10.37,0.03,14.3,3.06c3.94,3.03,6.41,7.42,7.43,13.16c0.78,4.41,0.62,8.61-0.49,12.6
		l5.99-1.06c0.64-3.43,0.52-7.6-0.35-12.52c-1.35-7.65-4.65-13.57-9.88-17.77C704.2,332.47,698,331,690.85,332.27z"/>
	<polygon fill="#E05D26" points="677.26,408.94 682.41,408.93 682.38,388.08 722.32,388.01 722.31,381.25 677.21,381.34 	"/>
	<path fill="#E05D26" d="M695.28,424.17l27.02,2.46l0.61-6.73l-27.28-2.49c-12.25-1.11-18.96,4.73-20.13,17.53
		c-1.22,13.37,4.52,20.63,17.22,21.78l26.61,2.42l0.61-6.73l-27.45-2.5c-8.7-0.79-12.66-5.41-11.89-13.86
		C681.41,427.31,686.29,423.35,695.28,424.17z"/>
	<path fill="#E05D26" d="M665.48,480.55c-1.18,4.91-0.98,9.21,0.59,12.91c1.58,3.7,4.25,6.01,8.02,6.91
		c2.94,0.71,5.62,0.26,8.03-1.35c2.41-1.61,4.21-4.1,5.38-7.48l0.11,0.03c0.11,2.96,0.89,5.47,2.36,7.5
		c1.47,2.03,3.41,3.34,5.82,3.92c3.04,0.73,5.8-0.02,8.28-2.25c2.48-2.23,4.26-5.58,5.33-10.04l3.59-14.94l-43.84-10.54
		L665.48,480.55z M691.31,483.81l1.44-5.98l13.73,3.3l-1.58,6.57c-1.54,6.39-4.37,9.09-8.5,8.1c-2.36-0.57-3.99-1.92-4.88-4.04
		C690.62,489.63,690.55,486.98,691.31,483.81z M670.65,480.86l1.89-7.88l15.29,3.67l-1.64,6.8c-1.9,7.91-5.36,11.25-10.38,10.05
		c-2.44-0.59-4.11-1.98-5.03-4.18C669.87,487.11,669.82,484.29,670.65,480.86z"/>
	<path fill="#E05D26" d="M308.92,283.52c0.17-1.23,0.37-2.56,0.62-3.97c-2.72-0.12-5.77-0.33-9.15-0.62l-0.4,4.26
		c-0.12,1.78-0.66,3.26-1.6,4.43c-0.94,1.17-2.72,2.18-5.34,3.02c-2.61,0.84-7.65,1.38-15.12,1.63l1.12,2.43
		c0.54,1.16,1.17,3.01,1.9,5.54c5.29-0.25,10.25-0.89,14.87-1.91c4.63-1.03,8.04-3.16,10.24-6.39c0.12,0.06,0.94,0.38,2.44,0.95
		c1.5,0.57,3.87,1.68,7.11,3.31c3.24,1.64,5.41,2.78,6.52,3.44c1.11,0.65,2.54,1.54,4.28,2.66c1.6-2.7,2.66-4.43,3.19-5.21
		s1.15-1.63,1.85-2.57c-4.61-2.22-8.71-4.09-12.32-5.6h5.69l-0.25-4.98v-7.81l0.16-5.32l-5.85,0.25l-28.35-0.03l-6.22-0.22
		l0.19,5.23v8.09l-0.19,4.95h8.96l-0.22-4.95v-6.38h23.12l0.06,6.19l-0.19,3.73l-6.29-2.52c-0.6,0.83-1.15,1.64-1.65,2.43l0.47-1.87
		C308.64,285.48,308.76,284.75,308.92,283.52z"/>
	<path fill="#E05D26" d="M324.98,269.22l7.44,0.22v-7.19l-7.37,0.22h-16.43v-1.9h11.14l6.19,0.22l-0.16-3.48v-6.47l0.16-4.11
		l-6.19,0.22h-11.14l0.22-4.01l-8.87,0.03l0.19,3.98h-10.24l-7.25-0.22l0.16,3.45v6.97l-0.16,3.64l7.31-0.22h10.17v1.9h-15.56
		l-7.93-0.22v7.19l8-0.22H324.98z M308.61,252.67h8.77v2.12h-8.77V252.67z M291.13,254.78v-2.12h9.02v2.12H291.13z"/>
	<path fill="#E05D26" d="M350,278.8c-0.6,2.32-1.61,4.67-3.03,7.03c-1.42,2.36-2.59,4.06-3.52,5.07c-0.92,1.02-1.93,2.05-3.03,3.11
		c1.74,1,3.14,1.9,4.2,2.71c1.06,0.81,2.51,2.01,4.36,3.61l2.15-2.58c1.2-1.41,2.46-3.32,3.77-5.73c1.31-2.41,2.34-4.9,3.1-7.48
		c0.76-2.58,1.25-4.74,1.49-6.47c0.24-1.73,0.46-3.92,0.67-6.55l0.81,3.17c0,0.04,0.36,2.17,1.09,6.38c3.34-1.06,5.06-1.6,5.17-1.62
		c0.1-0.02,0.35-0.06,0.75-0.12v10.98l-0.28,7.31h9.58l-0.28-7.31v-21.1c0.73,2.24,1.26,4.02,1.62,5.35
		c0.35,1.33,0.6,2.44,0.73,3.33c0.13,0.89,0.26,1.79,0.39,2.71c1.93-0.7,4.15-1.31,6.66-1.8v14.28l-0.28,7.06h9.4l-0.28-7.06v-42.85
		l0.28-5.69h-9.4l0.28,5.97v20.38l-0.72-2.52c-0.27-0.95-1.06-3.29-2.36-7c-2.03,0.98-4.14,1.66-6.32,2.05v-11.17l0.28-6.22h-9.58
		l0.28,6.22v17.33c-0.85-3.03-1.63-5.7-2.33-8.03c-2.24,0.98-4.03,1.6-5.38,1.87v-12.38l0.28-6.32h-9.4l0.28,6.63l0.09,12.35
		c0,0.68-0.1,2.79-0.3,6.32C351,273.56,350.6,276.48,350,278.8z"/>
	<path fill="#E05D26" d="M343.28,259.54l-0.09,3.14c-0.04,1.43-0.18,3-0.4,4.7c-0.23,1.7-0.54,3.34-0.93,4.93
		c-0.39,1.59-1.17,3.68-2.33,6.27c0.91,0.37,2.03,0.77,3.34,1.2c1.32,0.43,2.2,0.77,2.66,1.03c0.46,0.26,0.93,0.54,1.43,0.86
		c0.87-2.88,1.48-5.01,1.82-6.39c0.34-1.38,0.65-3,0.93-4.87c0.28-1.87,0.45-3.18,0.51-3.94c0.06-0.76,0.12-1.72,0.17-2.88
		c0.05-1.16,0.12-2.36,0.2-3.61C348.78,260.25,346.35,260.1,343.28,259.54z"/>
	<path fill="#E05D26" d="M425.95,264.96c-0.31,2.39-0.66,4.21-1.04,5.46c-0.38,1.26-1.35,3.38-2.89,6.36
		c-1.55,2.99-3.79,5.96-6.74,8.93c-2.95,2.97-5.34,4.8-7.19,5.51c-1.85,0.7-3.42,1.24-4.73,1.62c1.76,1.78,3.03,3.28,3.81,4.48
		c0.78,1.2,1.45,2.52,2.01,3.95l5.04-2.58c1.1-0.52,2.89-1.82,5.38-3.91s4.57-4.26,6.25-6.53c1.68-2.27,2.87-4.06,3.56-5.37
		c0.69-1.31,1.51-3,2.44-5.07l1.93,3.7c0.46,0.95,1.99,3.2,4.61,6.75s5.52,6.2,8.71,7.97c3.19,1.76,5.81,3.11,7.84,4.05l1.96-3.02
		c0.48-0.79,1.79-2.31,3.95-4.57c-3.44-1.39-6.57-2.96-9.37-4.71c-2.8-1.75-5.23-3.91-7.3-6.47c-2.06-2.56-3.4-4.35-4.01-5.37
		c-0.61-1.02-1.4-2.52-2.36-4.51c-0.96-1.99-1.54-3.48-1.73-4.48s-0.33-1.96-0.42-2.88c-0.09-0.92-0.2-2.13-0.33-3.61
		c-0.12-1.48-0.06-4.87,0.19-10.16l0.34-6.41c-3.9,0.15-7.16,0.11-9.77-0.09l0.31,7.53v9.05
		C426.42,261.11,426.26,262.57,425.95,264.96z"/>
	<path fill="#E05D26" d="M470.34,253.55c0.43,0.94,0.81,1.83,1.17,2.66c4.46-0.75,7.05-1.2,7.78-1.37l-0.03,5.82l-5.79,0.03
		l-5.2-0.16l0.03,8.09l5.17-0.19h4.89l-0.53,1.56c-0.31,0.95-1.05,2.35-2.22,4.2c-1.17,1.85-2.29,3.36-3.36,4.54
		c-1.07,1.18-2.84,2.53-5.31,4.05l1.84,2.27c0.31,0.39,1.24,2.08,2.8,5.07c2.99-2.61,5.57-5.09,7.75-7.44v11.11l-0.22,7.19h8.68
		l-0.22-7.19v-16.96l1.37,1.65l2.05,2.89c0.87,1.24,1.38,1.99,1.54,2.24s0.37,0.61,0.64,1.09l1.9-2.52c0.29-0.41,1.22-1.36,2.8-2.83
		v11.23l-0.22,6.35h8.53v-6.13h8.34v3.52l8.77,0.03l-0.16-6.38v-31.33l0.22-5.73l-6.04,0.22h-12.23l-7.47-0.22l0.25,5.73v20.69
		c-0.41-0.54-1.4-1.74-2.94-3.61s-2.7-3.29-3.47-4.26c-1.1,1.08-2.4,2.16-3.89,3.24v-4.26h3.89l5.04,0.19v-8.09l-5.04,0.16h-3.89
		v-7.62c3.63-0.89,6.6-1.67,8.9-2.33c-2.34-2.34-4.28-4.53-5.82-6.57l-2.49,1.12c-1.37,0.66-4.48,1.4-9.32,2.21
		c-4.84,0.81-8.67,1.28-11.47,1.4C468.92,251.06,469.91,252.61,470.34,253.55z M506.23,259.42h8.31v23.24h-8.31V259.42z"/>
	<path fill="#E05D26" d="M251.74,383.04l1.39,2.44c0.3,0.5,0.7,1.71,1.19,3.63c2.84-0.23,6.4-0.88,10.69-1.94
		c4.29-1.06,7.16-2.83,8.63-5.29s2.36-4.54,2.7-6.24c0.34-1.69,0.66-3.4,0.96-5.13c-1.84-0.13-3.96-0.38-6.35-0.75l-0.12,1.62
		c-0.2,2.56-0.62,4.49-1.27,5.81c-0.65,1.32-1.72,2.41-3.21,3.29s-3.66,1.57-6.5,2.1S254.31,383.27,251.74,383.04z"/>
	<polygon fill="#E05D26" points="257.19,381.02 263.44,381.02 263.27,377.66 263.27,369.02 284.05,369.02 284.05,376.76 
		283.88,380.2 290.17,380.2 290,376.51 290,367.53 290.12,363.82 284.65,363.99 263.09,363.99 257.19,363.82 257.37,367.45 
		257.37,377.66 	"/>
	<path fill="#E05D26" d="M288.66,381.92l-5.97-1.99c-1.21-0.41-3.02-1.05-5.43-1.92c-0.7,1.54-1.26,2.63-1.69,3.26
		c-0.43,0.63-0.9,1.29-1.42,1.97c3.6,1,6.73,1.99,9.37,2.97c2.65,0.99,5.65,2.21,9,3.67l0.62-1.67c0.22-0.65,0.9-1.97,2.04-3.98
		L288.66,381.92z"/>
	<path fill="#E05D26" d="M289.73,362.57l6.6,0.17v-5.48l-6.55,0.17h-13.64v-1.42h9.24l5.13,0.2l-0.12-3.06v-5.35l0.12-3.41
		l-5.13,0.2h-9.24l0.12-2.64h-6.32l0.12,2.64h-9.41l-5.05-0.2l0.12,2.86v5.78l-0.12,3.19l5.1-0.2h9.36v1.42h-13.82l-6.25-0.17v5.48
		l6.3-0.17H289.73z M276.14,349.48h8.51v2.07h-8.51V349.48z M261.67,351.55v-2.07h8.39v2.07H261.67z"/>
	<path fill="#E05D26" d="M251.03,421.49c-0.27,1.11-0.55,2.22-0.83,3.31c2.69,0.41,4.22,0.68,4.61,0.78
		c0.38,0.11,0.83,0.24,1.34,0.41l0.7-3.51c0.2-0.93,0.37-2.35,0.51-4.27c0.14-1.92,0.27-3.86,0.37-5.82
		c0.11-1.97,0.25-4.57,0.44-7.8l-1.24-0.02l-3.63-0.62c-0.27-0.03-0.65-0.08-1.15-0.15l0.07,2.49c0.03,1.05,0,2.96-0.11,5.74
		s-0.24,4.78-0.41,5.99C251.52,419.22,251.3,420.38,251.03,421.49z"/>
	<path fill="#E05D26" d="M272.82,424.26l-0.2-3.44c-0.12-1.97-0.37-4.62-0.77-7.94l-0.77-5.95c-0.08-0.55-0.18-1.38-0.3-2.49
		c-2.29,0.56-4.17,0.92-5.65,1.07l0.35,1.79c0.22,1.13,0.42,2.67,0.62,4.63c0.2,1.96,0.39,4.24,0.56,6.86
		c0.17,2.61,0.26,4.26,0.25,4.94c-0.01,0.68-0.02,1.39-0.04,2.14C267.75,425.56,269.74,425.02,272.82,424.26z"/>
	<path fill="#E05D26" d="M254.73,439.82l3.04-2.02c0.5-0.32,1.48-1.19,2.95-2.61c1.47-1.43,2.49-3.05,3.05-4.85
		c0.56-1.81,0.88-3.74,0.96-5.79c0.07-2.05,0.13-4.9,0.16-8.55l0.07-7.69l-0.07-7.27l0.12-4.7c0-0.5,0-1.27,0-2.32
		c-1.73,0.1-3.92,0.02-6.6-0.25l0.35,2.54c0.13,0.98,0.23,2.85,0.3,5.63c0.03,2.29,0.05,4.56,0.05,6.8l-0.07,7.54
		c-0.03,3.3-0.09,5.52-0.16,6.66s-0.22,2.36-0.45,3.68c-0.22,1.32-0.65,2.4-1.28,3.25c-0.63,0.85-1.29,1.58-1.99,2.2
		s-1.34,1.11-1.94,1.46c-0.6,0.35-1.51,0.76-2.74,1.22l1.02,1C252.06,436.28,253.13,437.64,254.73,439.82z"/>
	<polygon fill="#E05D26" points="279.5,395.56 273.35,395.56 273.52,400.61 273.52,428.99 273.35,434.74 279.5,434.74 279.3,429.29 
		279.3,400.56 	"/>
	<polygon fill="#E05D26" points="294.68,394.06 288.43,394.06 288.61,399.74 288.61,432.6 288.43,439.32 294.68,439.32 
		294.51,432.65 294.51,399.84 	"/>
	<path fill="#E05D26" d="M281.46,417.26c0.28,2.84,0.43,4.67,0.45,5.49c0.02,0.82,0.02,1.76,0.02,2.83c0.9-0.28,2.96-0.94,6.2-1.97
		l-0.42-4.11c-0.2-1.94-0.4-3.56-0.6-4.85c-0.2-1.29-0.49-3.04-0.86-5.24c-0.37-2.2-0.66-3.94-0.86-5.21l-1.27,0.37
		c-0.12,0.03-1.66,0.32-4.63,0.87c0.78,3.52,1.23,5.66,1.36,6.42S281.18,414.43,281.46,417.26z"/>
	<path fill="#E05D26" d="M514.33,344.6l-5.05-0.2l0.12,2.86v5.78l-0.12,3.19l5.1-0.2h9.36v1.42h-13.82l-6.25-0.17v5.48l6.3-0.17
		h33.43l6.6,0.17v-5.48l-6.55,0.17h-13.64v-1.42h9.24l5.13,0.2l-0.12-3.06v-5.35l0.12-3.41l-5.13,0.2h-9.24l0.12-2.64h-6.32
		l0.12,2.64H514.33z M523.74,351.55h-8.39v-2.07h8.39V351.55z M529.81,349.48h8.51v2.07h-8.51V349.48z"/>
	<path fill="#E05D26" d="M542.34,381.92l-5.97-1.99c-1.21-0.41-3.02-1.05-5.43-1.92c-0.7,1.54-1.26,2.63-1.69,3.26
		c-0.43,0.63-0.9,1.29-1.42,1.97c3.6,1,6.73,1.99,9.37,2.97s5.65,2.21,9,3.67l0.62-1.67c0.22-0.65,0.9-1.97,2.04-3.98L542.34,381.92
		z"/>
	<path fill="#E05D26" d="M505.42,383.04l1.39,2.44c0.3,0.5,0.7,1.71,1.19,3.63c2.84-0.23,6.4-0.88,10.69-1.94
		c4.29-1.06,7.16-2.83,8.63-5.29c1.46-2.46,2.36-4.54,2.7-6.24c0.34-1.69,0.66-3.4,0.96-5.13c-1.84-0.13-3.96-0.38-6.35-0.75
		l-0.12,1.62c-0.2,2.56-0.62,4.49-1.27,5.81s-1.72,2.41-3.21,3.29c-1.49,0.87-3.66,1.57-6.5,2.1
		C510.7,383.12,507.99,383.27,505.42,383.04z"/>
	<polygon fill="#E05D26" points="510.87,381.02 517.12,381.02 516.94,377.66 516.94,369.02 537.73,369.02 537.73,376.76 
		537.56,380.2 543.85,380.2 543.68,376.51 543.68,367.53 543.8,363.82 538.33,363.99 516.77,363.99 510.87,363.82 511.05,367.45 
		511.05,377.66 	"/>
	<path fill="#E05D26" d="M515.87,422.67c-0.65,0.41-1.91,0.61-3.78,0.6l0.6,1.54c0.2,0.51,0.37,1.12,0.52,1.83s0.25,1.27,0.31,1.68
		c0.06,0.41,0.11,0.9,0.16,1.44c1.97-0.2,3.6-0.66,4.87-1.39c1.27-0.73,2.32-1.7,3.14-2.91c0.82-1.21,1.29-2.92,1.42-5.13
		c0.12-2.21-0.29-4.12-1.24-5.75s-2.23-3.22-3.82-4.78l4.83-11.38l-1.92-3.04H510.5l-4.75-0.1l0.15,5.35v33.16l-0.15,5.78h5.87
		l-0.17-5.85v-33.08h4.23l-1.54,5.13c-0.12,0.4-0.58,1.73-1.39,3.98v2.44c1.53,1.21,2.6,2.23,3.21,3.06s1.05,1.68,1.32,2.54
		c0.33,1.19,0.34,2.2,0.04,3.02C517,421.63,516.52,422.25,515.87,422.67z"/>
	<path fill="#E05D26" d="M546.94,396.28l-5.85,0.12h-10.73l-6.2-0.12l0.2,5.97v29.87l-0.2,6.85h6.02v-1.32h10.85v1.32h5.9l-0.2-6.02
		v-30.47L546.94,396.28z M541.04,432.17h-11.28v-13.32h11.28V432.17z M541.04,413.43h-11.28v-11.48h11.28V413.43z"/>
</g>
<g>
</g>
<g>
</g>
<g>
</g>
<g>
</g>
<g>
</g>
<g>
</g>
<g>
</g>
<g>
</g>
<g>
</g>
<g>
</g>
<g>
</g>
</svg>
