<?xml version="1.0" encoding="utf-8"?>
<!-- Created by @FCLOGO 2024-10-12 GMT+8 21:40:10 . https://fclogo.top/ -->
<!-- FOR PERSONAL USE ONLY NOT FOR COMMERCIAL USE -->
<svg version="1.1" xmlns="http://www.w3.org/2000/svg" xmlns:xlink="http://www.w3.org/1999/xlink" x="0px" y="0px"
	 viewBox="0 0 800 800" style="enable-background:new 0 0 800 800;" xml:space="preserve">
<path style="fill:#CCCCCC;" d="M348.22,774.3c-0.79,0-1.38-0.22-1.77-0.65c-0.39-0.44-0.53-1.03-0.41-1.79l0.25-1.65
	c0.12-0.75,0.45-1.35,0.98-1.78c0.53-0.44,1.19-0.65,1.98-0.65c0.76,0,1.33,0.2,1.72,0.6c0.39,0.4,0.55,0.94,0.47,1.62h-1.24
	c0.03-0.36-0.06-0.64-0.26-0.84c-0.2-0.2-0.5-0.3-0.89-0.3c-0.42,0-0.76,0.12-1.03,0.35c-0.27,0.23-0.43,0.56-0.5,0.99l-0.26,1.66
	c-0.07,0.44-0.01,0.77,0.19,1c0.19,0.23,0.5,0.35,0.92,0.35c0.39,0,0.72-0.1,0.98-0.3c0.26-0.2,0.44-0.48,0.52-0.85h1.24
	c-0.14,0.69-0.47,1.23-0.99,1.63C349.61,774.1,348.97,774.3,348.22,774.3z M352.8,774.19l1-6.29h1.19l-0.19,1.19
	c0.34-0.87,0.97-1.3,1.91-1.3c0.67,0,1.17,0.21,1.49,0.62c0.32,0.42,0.43,0.99,0.31,1.71l-0.07,0.42h-1.27l0.06-0.32
	c0.07-0.45,0.01-0.8-0.17-1.04c-0.18-0.24-0.48-0.36-0.88-0.36c-0.4,0-0.74,0.12-1.01,0.37c-0.27,0.24-0.43,0.59-0.5,1.03
	l-0.63,3.97H352.8z M361.91,774.3c-0.77,0-1.35-0.22-1.73-0.67c-0.38-0.45-0.51-1.04-0.4-1.77l0.25-1.65
	c0.08-0.49,0.26-0.92,0.52-1.28c0.26-0.37,0.6-0.65,1.01-0.85c0.41-0.2,0.87-0.3,1.38-0.3c0.77,0,1.35,0.22,1.73,0.67
	c0.39,0.45,0.52,1.04,0.39,1.77l-0.17,1.12h-3.85l-0.09,0.53c-0.15,0.95,0.22,1.43,1.11,1.43c0.72,0,1.17-0.25,1.37-0.74h1.22
	c-0.17,0.53-0.5,0.96-1.01,1.28C363.16,774.14,362.58,774.3,361.91,774.3z M361.23,770.22l-0.05,0.29l2.65-0.01l0.05-0.29
	c0.07-0.47,0.01-0.82-0.17-1.07c-0.18-0.25-0.49-0.37-0.92-0.37c-0.44,0-0.8,0.13-1.06,0.38
	C361.48,769.39,361.31,769.75,361.23,770.22z M368.33,774.3c-0.63,0-1.1-0.21-1.41-0.64c-0.31-0.42-0.4-1-0.27-1.73l0.27-1.77
	c0.11-0.73,0.39-1.31,0.84-1.74c0.44-0.43,0.98-0.64,1.61-0.64c0.47,0,0.83,0.12,1.09,0.35c0.26,0.24,0.39,0.56,0.38,0.96h0.02
	l0.17-1.2h1.24l-1,6.29h-1.22l0.19-1.2h-0.02c-0.12,0.41-0.35,0.73-0.69,0.97C369.2,774.18,368.8,774.3,368.33,774.3z
	 M368.93,773.23c0.39,0,0.72-0.12,0.98-0.36c0.26-0.24,0.43-0.57,0.5-1.01l0.25-1.65c0.07-0.43,0.01-0.76-0.18-1
	c-0.19-0.24-0.47-0.36-0.86-0.36c-0.4,0-0.72,0.12-0.98,0.35c-0.26,0.24-0.42,0.57-0.49,1.01l-0.25,1.65
	c-0.07,0.44-0.01,0.78,0.17,1.01C368.24,773.11,368.53,773.23,368.93,773.23z M376.35,774.19c-0.57,0-0.99-0.16-1.26-0.47
	c-0.27-0.31-0.36-0.75-0.27-1.32l0.54-3.39h-1.74l0.17-1.12h1.74l0.27-1.72h1.24l-0.27,1.72h2.47l-0.18,1.12h-2.46l-0.54,3.39
	c-0.08,0.44,0.1,0.66,0.53,0.66h1.72l-0.17,1.12H376.35z M382.5,774.3c-0.77,0-1.35-0.22-1.73-0.67c-0.38-0.45-0.52-1.04-0.4-1.77
	l0.25-1.65c0.08-0.49,0.26-0.92,0.52-1.28c0.26-0.37,0.6-0.65,1.01-0.85c0.41-0.2,0.87-0.3,1.38-0.3c0.77,0,1.35,0.22,1.73,0.67
	c0.39,0.45,0.52,1.04,0.39,1.77l-0.17,1.12h-3.85l-0.09,0.53c-0.15,0.95,0.22,1.43,1.11,1.43c0.72,0,1.17-0.25,1.37-0.74h1.22
	c-0.17,0.53-0.5,0.96-1.01,1.28C383.76,774.14,383.18,774.3,382.5,774.3z M381.83,770.22l-0.05,0.29l2.65-0.01l0.05-0.29
	c0.07-0.47,0.01-0.82-0.17-1.07c-0.18-0.25-0.49-0.37-0.92-0.37c-0.44,0-0.8,0.13-1.06,0.38
	C382.08,769.39,381.91,769.75,381.83,770.22z M388.92,774.3c-0.63,0-1.1-0.21-1.4-0.64c-0.3-0.42-0.39-1-0.28-1.73l0.27-1.77
	c0.11-0.73,0.39-1.31,0.84-1.74c0.44-0.43,0.98-0.64,1.61-0.64c0.47,0,0.83,0.12,1.09,0.35c0.26,0.24,0.39,0.56,0.38,0.96h0.02
	l0.21-1.47l0.3-1.8h1.24l-1.33,8.35h-1.22l0.19-1.2h-0.02c-0.12,0.41-0.35,0.73-0.69,0.97C389.8,774.18,389.4,774.3,388.92,774.3z
	 M389.53,773.23c0.39,0,0.72-0.12,0.98-0.36c0.26-0.24,0.43-0.57,0.5-1.01l0.25-1.65c0.08-0.43,0.02-0.76-0.17-1
	c-0.19-0.24-0.48-0.36-0.87-0.36c-0.4,0-0.72,0.12-0.98,0.35c-0.26,0.24-0.42,0.57-0.49,1.01l-0.25,1.65
	c-0.08,0.44-0.02,0.78,0.16,1.01C388.83,773.11,389.13,773.23,389.53,773.23z M401.02,774.3c-0.47,0-0.84-0.12-1.1-0.35
	c-0.26-0.23-0.39-0.56-0.38-0.97h-0.01l-0.19,1.2h-1.22l1.33-8.35h1.24l-0.29,1.8l-0.27,1.47h0.05c0.12-0.41,0.35-0.73,0.69-0.97
	c0.34-0.23,0.74-0.35,1.21-0.35c0.63,0,1.1,0.21,1.4,0.64c0.3,0.43,0.39,1.01,0.28,1.74l-0.27,1.77c-0.11,0.73-0.39,1.31-0.84,1.73
	C402.18,774.09,401.64,774.3,401.02,774.3z M400.77,773.23c0.4,0,0.72-0.12,0.98-0.35c0.26-0.23,0.42-0.57,0.5-1.01l0.25-1.65
	c0.07-0.43,0.01-0.77-0.17-1.01c-0.18-0.24-0.47-0.35-0.87-0.35c-0.39,0-0.72,0.12-0.98,0.36c-0.26,0.24-0.43,0.57-0.5,1l-0.25,1.65
	c-0.07,0.44-0.01,0.77,0.17,1.01C400.08,773.11,400.37,773.23,400.77,773.23z M405.47,776.25l0.17-1.06h1.93
	c0.64,0,1.01-0.3,1.1-0.9l0.1-0.67l0.21-1.19h-0.03c-0.12,0.42-0.35,0.74-0.68,0.97c-0.33,0.23-0.73,0.34-1.2,0.34
	c-0.63,0-1.09-0.2-1.4-0.6c-0.31-0.4-0.41-0.94-0.3-1.63l0.58-3.6h1.24l-0.56,3.48c-0.06,0.41,0,0.73,0.18,0.96
	c0.18,0.23,0.47,0.34,0.85,0.34c0.39,0,0.72-0.12,0.98-0.37c0.27-0.24,0.43-0.58,0.49-1.02l0.54-3.4h1.24l-1.01,6.41
	c-0.1,0.6-0.37,1.08-0.81,1.42c-0.44,0.35-1,0.52-1.67,0.52H405.47z M417.79,770.09h3.22l0.54-1.85h-5.47l-1.71,6.44h2.15l0.59-2.1
	h3.03l0.44-1.71h-3.03L417.79,770.09z M424.23,772.92c-0.59,0-1.02-0.39-1.02-1.12c0-0.88,0.63-1.76,1.61-1.76
	c0.49,0,0.88,0.24,1.02,0.78l1.95-0.83c-0.29-1.17-1.27-1.9-2.64-1.9c-2.78,0-4.15,2.15-4.15,3.9c0,1.76,1.27,2.83,3.07,2.83
	c1.37,0,2.34-0.59,2.98-1.42l-1.51-1.17C425.16,772.67,424.72,772.92,424.23,772.92z M430.91,768.23h-2.15l-1.76,6.44h5.12
	l0.49-1.85h-2.93L430.91,768.23z M439.75,771.01c0-1.66-1.32-2.93-3.22-2.93c-2.2,0-3.81,1.81-3.81,3.81c0,1.66,1.32,2.93,3.22,2.93
	C438.14,774.82,439.75,773.01,439.75,771.01z M434.92,771.7c0-0.83,0.59-1.71,1.51-1.71c0.78,0,1.17,0.54,1.17,1.22
	c0,0.83-0.59,1.71-1.51,1.71C435.31,772.92,434.92,772.38,434.92,771.7z M443.21,772.23h1.07l-0.2,0.68
	c-0.15,0.05-0.34,0.1-0.59,0.1c-0.68,0-1.27-0.39-1.27-1.22c0-1.02,0.73-1.9,1.95-1.9c0.59,0,1.12,0.24,1.51,0.59l1.37-1.37
	c-0.44-0.54-1.51-1.07-2.73-1.07c-2.59,0-4.29,1.76-4.29,3.86c0,2.05,1.61,2.88,3.22,2.88c0.93,0,1.85-0.29,2.49-0.68l0.93-3.32
	h-3.12L443.21,772.23z M450.78,768.08c-2.2,0-3.81,1.81-3.81,3.81c0,1.66,1.32,2.93,3.22,2.93c2.2,0,3.81-1.81,3.81-3.81
	C454,769.35,452.68,768.08,450.78,768.08z M450.34,772.92c-0.78,0-1.17-0.54-1.17-1.22c0-0.83,0.59-1.71,1.51-1.71
	c0.78,0,1.17,0.54,1.17,1.22C451.85,772.04,451.27,772.92,450.34,772.92z M437.94,767.5c-0.05,0.29,0.1,0.49,0.44,0.49
	s0.54-0.2,0.63-0.49c0.05-0.24-0.1-0.49-0.44-0.49C438.24,767.01,437.99,767.25,437.94,767.5z M432.13,765.5
	c-0.44,0-0.73,0.24-0.78,0.59c-0.05,0.34,0.1,0.59,0.54,0.59s0.73-0.24,0.78-0.59C432.77,765.74,432.57,765.5,432.13,765.5z
	 M433.01,767.3c-0.1,0.54,0.15,0.88,0.83,0.88c0.63,0,1.07-0.39,1.17-0.88s-0.15-0.88-0.83-0.88
	C433.5,766.43,433.11,766.82,433.01,767.3z M439.6,777.55l-2.44-1.81h-1.51l4.25,3.17l1.61-3.17h-0.98L439.6,777.55z M425.84,767.16
	l-2-1.46l23.13-2.78l-2.15,4.25h1.02l2.68-5.32l-26.99,3.22l2.78,2.1H425.84z M338.72,785.79l0.61-3.83h2.32l-0.08,0.52h-1.76
	l-0.18,1.14h1.63l-0.08,0.52h-1.62l-0.26,1.64H338.72z M342.97,785.84c-0.36,0-0.62-0.1-0.8-0.3c-0.17-0.2-0.23-0.47-0.18-0.82
	l0.27-1.7c0.06-0.34,0.2-0.61,0.44-0.82c0.24-0.2,0.54-0.3,0.89-0.3c0.36,0,0.62,0.1,0.8,0.3c0.17,0.2,0.24,0.47,0.18,0.81
	l-0.27,1.71c-0.06,0.34-0.2,0.62-0.44,0.82C343.63,785.74,343.33,785.84,342.97,785.84z M343.05,785.33c0.19,0,0.35-0.05,0.47-0.16
	c0.12-0.11,0.19-0.26,0.23-0.46l0.27-1.7c0.03-0.2,0.01-0.35-0.08-0.46c-0.08-0.11-0.22-0.16-0.41-0.16s-0.35,0.05-0.46,0.16
	c-0.12,0.1-0.19,0.26-0.22,0.46l-0.27,1.7c-0.03,0.2-0.01,0.35,0.08,0.46C342.72,785.28,342.86,785.33,343.05,785.33z M345,785.79
	l0.61-3.83h1.2c0.24,0,0.44,0.05,0.6,0.14c0.16,0.09,0.28,0.22,0.36,0.39c0.07,0.17,0.09,0.37,0.05,0.59
	c-0.04,0.26-0.14,0.48-0.3,0.67c-0.16,0.19-0.37,0.32-0.6,0.39l0.54,1.64h-0.62l-0.48-1.57h-0.54l-0.25,1.57H345z M345.89,783.71
	h0.64c0.19,0,0.35-0.06,0.48-0.17c0.13-0.11,0.21-0.26,0.24-0.45c0.03-0.19,0-0.35-0.09-0.46c-0.09-0.11-0.24-0.17-0.43-0.17h-0.64
	L345.89,783.71z M349.54,785.79l0.61-3.83h1.25c0.37,0,0.65,0.1,0.84,0.31c0.19,0.21,0.26,0.49,0.2,0.84
	c-0.04,0.23-0.12,0.44-0.25,0.61s-0.29,0.31-0.49,0.4c-0.2,0.09-0.42,0.14-0.66,0.14h-0.69l-0.24,1.52H349.54z M350.43,783.75h0.69
	c0.19,0,0.36-0.06,0.49-0.18c0.14-0.12,0.22-0.27,0.25-0.47c0.03-0.2,0-0.35-0.1-0.47c-0.1-0.12-0.25-0.18-0.44-0.18h-0.69
	L350.43,783.75z M352.75,785.79l0.61-3.83h2.25l-0.08,0.5h-1.7l-0.17,1.09h1.51l-0.08,0.5h-1.51l-0.19,1.24h1.69l-0.08,0.5H352.75z
	 M355.84,785.79l0.61-3.83h1.2c0.24,0,0.44,0.05,0.6,0.14c0.16,0.09,0.28,0.22,0.36,0.39c0.07,0.17,0.09,0.37,0.05,0.59
	c-0.04,0.26-0.14,0.48-0.3,0.67c-0.16,0.19-0.37,0.32-0.6,0.39l0.54,1.64h-0.62l-0.48-1.57h-0.54l-0.25,1.57H355.84z M356.74,783.71
	h0.64c0.19,0,0.35-0.06,0.48-0.17c0.13-0.11,0.21-0.26,0.24-0.45c0.03-0.19,0-0.35-0.09-0.46c-0.09-0.11-0.24-0.17-0.43-0.17h-0.64
	L356.74,783.71z M360.13,785.84c-0.39,0-0.67-0.1-0.87-0.29c-0.19-0.19-0.26-0.45-0.22-0.78h0.57c-0.03,0.17,0.01,0.31,0.12,0.41
	c0.11,0.1,0.27,0.15,0.48,0.15c0.2,0,0.37-0.05,0.5-0.15c0.13-0.1,0.21-0.23,0.24-0.4c0.02-0.15,0-0.28-0.06-0.39
	c-0.06-0.11-0.16-0.18-0.29-0.22l-0.46-0.14c-0.27-0.08-0.46-0.22-0.59-0.41c-0.13-0.19-0.17-0.42-0.13-0.68
	c0.04-0.21,0.11-0.39,0.23-0.55c0.12-0.16,0.27-0.28,0.46-0.37c0.19-0.09,0.4-0.13,0.64-0.13c0.35,0,0.62,0.1,0.8,0.29
	c0.18,0.19,0.25,0.44,0.2,0.76h-0.57c0.03-0.17,0-0.3-0.09-0.4c-0.09-0.1-0.23-0.14-0.42-0.14c-0.19,0-0.34,0.04-0.46,0.13
	c-0.12,0.09-0.19,0.21-0.21,0.38c-0.02,0.15-0.01,0.28,0.05,0.39c0.06,0.11,0.16,0.18,0.29,0.22l0.47,0.15
	c0.26,0.08,0.46,0.22,0.58,0.41c0.12,0.19,0.17,0.42,0.12,0.69c-0.04,0.22-0.12,0.41-0.24,0.57c-0.13,0.16-0.29,0.29-0.49,0.38
	C360.6,785.79,360.38,785.84,360.13,785.84z M363.27,785.84c-0.36,0-0.62-0.1-0.8-0.3c-0.17-0.2-0.23-0.47-0.18-0.82l0.27-1.7
	c0.06-0.34,0.2-0.61,0.44-0.82c0.24-0.2,0.54-0.3,0.89-0.3c0.36,0,0.62,0.1,0.8,0.3c0.17,0.2,0.24,0.47,0.18,0.81l-0.27,1.71
	c-0.06,0.34-0.2,0.62-0.44,0.82C363.92,785.74,363.62,785.84,363.27,785.84z M363.34,785.33c0.19,0,0.35-0.05,0.47-0.16
	c0.12-0.11,0.19-0.26,0.23-0.46l0.27-1.7c0.03-0.2,0.01-0.35-0.08-0.46c-0.08-0.11-0.22-0.16-0.41-0.16c-0.19,0-0.35,0.05-0.46,0.16
	c-0.12,0.1-0.19,0.26-0.22,0.46l-0.27,1.7c-0.03,0.2-0.01,0.35,0.08,0.46C363.02,785.28,363.15,785.33,363.34,785.33z
	 M365.28,785.79l0.61-3.83h0.71l0.62,3.19c0.01-0.1,0.02-0.22,0.03-0.36c0.01-0.14,0.03-0.29,0.04-0.44
	c0.02-0.15,0.04-0.29,0.06-0.41l0.31-1.98h0.52l-0.61,3.83h-0.71l-0.61-3.19c-0.01,0.09-0.02,0.21-0.03,0.34s-0.03,0.28-0.04,0.42
	c-0.02,0.15-0.04,0.28-0.06,0.41l-0.31,2.01H365.28z M368.23,785.79l1.59-3.83h0.75l0.37,3.83h-0.56l-0.07-0.97h-1.09l-0.39,0.97
	H368.23z M369.39,784.34h0.87l-0.09-1.1c-0.02-0.2-0.03-0.37-0.04-0.51c-0.01-0.14-0.01-0.24-0.01-0.3c-0.02,0.06-0.05,0.16-0.1,0.3
	c-0.05,0.14-0.11,0.31-0.19,0.5L369.39,784.34z M371.72,785.79l0.61-3.83h0.57l-0.52,3.31h1.67l-0.08,0.52H371.72z M376.68,785.84
	c-0.37,0-0.63-0.1-0.8-0.3c-0.17-0.2-0.22-0.48-0.17-0.82l0.44-2.76h0.57l-0.44,2.76c-0.03,0.2-0.01,0.35,0.07,0.46
	c0.08,0.11,0.21,0.17,0.41,0.17c0.19,0,0.35-0.06,0.46-0.17c0.12-0.11,0.19-0.27,0.22-0.46l0.44-2.76h0.57l-0.44,2.76
	c-0.06,0.35-0.2,0.62-0.43,0.82C377.35,785.74,377.05,785.84,376.68,785.84z M379.84,785.84c-0.39,0-0.67-0.1-0.87-0.29
	c-0.19-0.19-0.26-0.45-0.22-0.78h0.57c-0.03,0.17,0.01,0.31,0.12,0.41c0.11,0.1,0.27,0.15,0.48,0.15c0.2,0,0.37-0.05,0.5-0.15
	c0.13-0.1,0.21-0.23,0.24-0.4c0.02-0.15,0-0.28-0.06-0.39c-0.06-0.11-0.16-0.18-0.29-0.22l-0.46-0.14
	c-0.27-0.08-0.46-0.22-0.59-0.41c-0.13-0.19-0.17-0.42-0.13-0.68c0.04-0.21,0.11-0.39,0.23-0.55s0.27-0.28,0.46-0.37
	c0.19-0.09,0.4-0.13,0.64-0.13c0.35,0,0.62,0.1,0.8,0.29c0.18,0.19,0.25,0.44,0.2,0.76h-0.57c0.03-0.17,0-0.3-0.09-0.4
	c-0.09-0.1-0.23-0.14-0.42-0.14c-0.19,0-0.34,0.04-0.46,0.13c-0.12,0.09-0.19,0.21-0.21,0.38c-0.02,0.15-0.01,0.28,0.05,0.39
	c0.06,0.11,0.16,0.18,0.29,0.22l0.47,0.15c0.26,0.08,0.46,0.22,0.58,0.41c0.12,0.19,0.17,0.42,0.12,0.69
	c-0.04,0.22-0.12,0.41-0.24,0.57c-0.13,0.16-0.29,0.29-0.49,0.38C380.31,785.79,380.09,785.84,379.84,785.84z M381.91,785.79
	l0.61-3.83h2.25l-0.08,0.5h-1.7l-0.17,1.09h1.51l-0.08,0.5h-1.51l-0.19,1.24h1.69l-0.08,0.5H381.91z M386.94,785.84
	c-0.36,0-0.62-0.1-0.8-0.3c-0.17-0.2-0.23-0.47-0.18-0.82l0.27-1.7c0.06-0.34,0.2-0.61,0.44-0.82c0.24-0.2,0.54-0.3,0.89-0.3
	c0.36,0,0.62,0.1,0.8,0.3c0.17,0.2,0.24,0.47,0.18,0.81l-0.27,1.71c-0.06,0.34-0.2,0.62-0.44,0.82
	C387.6,785.74,387.3,785.84,386.94,785.84z M387.02,785.33c0.19,0,0.35-0.05,0.47-0.16c0.12-0.11,0.19-0.26,0.23-0.46l0.27-1.7
	c0.03-0.2,0.01-0.35-0.08-0.46c-0.08-0.11-0.22-0.16-0.41-0.16c-0.19,0-0.35,0.05-0.46,0.16c-0.12,0.1-0.19,0.26-0.22,0.46
	l-0.27,1.7c-0.03,0.2-0.01,0.35,0.08,0.46C386.7,785.28,386.83,785.33,387.02,785.33z M388.95,785.79l0.61-3.83h0.71l0.62,3.19
	c0.01-0.1,0.02-0.22,0.03-0.36c0.01-0.14,0.03-0.29,0.04-0.44c0.02-0.15,0.04-0.29,0.06-0.41l0.31-1.98h0.52l-0.61,3.83h-0.71
	l-0.61-3.19c-0.01,0.09-0.02,0.21-0.03,0.34c-0.01,0.13-0.03,0.28-0.04,0.42c-0.02,0.15-0.04,0.28-0.06,0.41l-0.31,2.01H388.95z
	 M392.25,785.79l0.61-3.83h0.57l-0.52,3.31h1.67l-0.08,0.52H392.25z M396.12,785.79l0.22-1.41l-0.75-2.42h0.58l0.45,1.45
	c0.03,0.09,0.05,0.18,0.07,0.27c0.02,0.08,0.03,0.15,0.03,0.19c0.02-0.04,0.05-0.1,0.09-0.19c0.04-0.08,0.09-0.17,0.14-0.27
	l0.9-1.45h0.6l-1.53,2.42l-0.22,1.41H396.12z M399.22,785.79l0.61-3.83h0.71l0.62,3.19c0.01-0.1,0.02-0.22,0.03-0.36
	c0.01-0.14,0.03-0.29,0.04-0.44c0.02-0.15,0.04-0.29,0.06-0.41l0.31-1.98h0.52l-0.61,3.83h-0.71l-0.61-3.19
	c-0.01,0.09-0.02,0.21-0.03,0.34c-0.01,0.13-0.03,0.28-0.04,0.42c-0.02,0.15-0.04,0.28-0.06,0.41l-0.31,2.01H399.22z M403.51,785.84
	c-0.36,0-0.62-0.1-0.8-0.3c-0.18-0.2-0.23-0.47-0.18-0.82l0.27-1.7c0.06-0.34,0.2-0.61,0.44-0.82c0.24-0.2,0.54-0.3,0.89-0.3
	c0.36,0,0.62,0.1,0.8,0.3c0.17,0.2,0.24,0.47,0.18,0.81l-0.27,1.71c-0.06,0.34-0.2,0.62-0.44,0.82
	C404.16,785.74,403.86,785.84,403.51,785.84z M403.58,785.33c0.19,0,0.35-0.05,0.47-0.16c0.12-0.11,0.19-0.26,0.23-0.46l0.27-1.7
	c0.03-0.2,0.01-0.35-0.08-0.46c-0.08-0.11-0.22-0.16-0.41-0.16c-0.19,0-0.35,0.05-0.46,0.16c-0.12,0.1-0.19,0.26-0.22,0.46
	l-0.27,1.7c-0.03,0.2-0.01,0.35,0.08,0.46C403.26,785.28,403.4,785.33,403.58,785.33z M406.38,785.79l0.52-3.31h-1.02l0.08-0.52
	h2.62l-0.08,0.52h-1.03l-0.52,3.31H406.38z M409.52,785.79l0.61-3.83h2.32l-0.08,0.52h-1.76l-0.18,1.14h1.63l-0.08,0.52h-1.62
	l-0.26,1.64H409.52z M413.77,785.84c-0.36,0-0.62-0.1-0.8-0.3c-0.18-0.2-0.23-0.47-0.18-0.82l0.27-1.7c0.06-0.34,0.2-0.61,0.44-0.82
	c0.24-0.2,0.54-0.3,0.89-0.3c0.36,0,0.62,0.1,0.8,0.3c0.17,0.2,0.24,0.47,0.18,0.81l-0.27,1.71c-0.06,0.34-0.2,0.62-0.44,0.82
	C414.42,785.74,414.13,785.84,413.77,785.84z M413.85,785.33c0.19,0,0.35-0.05,0.47-0.16c0.12-0.11,0.19-0.26,0.23-0.46l0.27-1.7
	c0.03-0.2,0.01-0.35-0.08-0.46c-0.08-0.11-0.22-0.16-0.41-0.16c-0.19,0-0.35,0.05-0.46,0.16c-0.12,0.1-0.19,0.26-0.22,0.46
	l-0.27,1.7c-0.03,0.2-0.01,0.35,0.08,0.46C413.52,785.28,413.66,785.33,413.85,785.33z M415.8,785.79l0.61-3.83h1.2
	c0.24,0,0.44,0.05,0.6,0.14c0.16,0.09,0.28,0.22,0.36,0.39c0.07,0.17,0.09,0.37,0.05,0.59c-0.04,0.26-0.14,0.48-0.3,0.67
	c-0.16,0.19-0.37,0.32-0.6,0.39l0.54,1.64h-0.62l-0.48-1.57h-0.54l-0.25,1.57H415.8z M416.69,783.71h0.64
	c0.19,0,0.35-0.06,0.48-0.17c0.13-0.11,0.21-0.26,0.24-0.45c0.03-0.19,0-0.35-0.09-0.46c-0.09-0.11-0.24-0.17-0.43-0.17h-0.64
	L416.69,783.71z M420.91,785.84c-0.36,0-0.63-0.1-0.81-0.3c-0.18-0.2-0.24-0.47-0.19-0.82l0.27-1.7c0.06-0.35,0.21-0.62,0.45-0.82
	s0.55-0.3,0.91-0.3c0.36,0,0.63,0.1,0.81,0.3c0.18,0.2,0.24,0.47,0.19,0.82h-0.57c0.03-0.2,0-0.35-0.09-0.46
	c-0.09-0.11-0.23-0.16-0.42-0.16c-0.19,0-0.35,0.05-0.48,0.16c-0.12,0.1-0.2,0.26-0.23,0.45l-0.27,1.71c-0.03,0.2,0,0.35,0.09,0.46
	c0.09,0.11,0.23,0.16,0.42,0.16c0.19,0,0.35-0.05,0.47-0.16c0.12-0.11,0.2-0.26,0.23-0.46h0.57c-0.03,0.23-0.11,0.43-0.24,0.59
	c-0.12,0.17-0.28,0.3-0.47,0.39C421.36,785.79,421.14,785.84,420.91,785.84z M424.03,785.84c-0.36,0-0.62-0.1-0.8-0.3
	c-0.18-0.2-0.23-0.47-0.18-0.82l0.27-1.7c0.06-0.34,0.2-0.61,0.44-0.82c0.24-0.2,0.54-0.3,0.89-0.3c0.36,0,0.62,0.1,0.8,0.3
	c0.17,0.2,0.24,0.47,0.18,0.81l-0.27,1.71c-0.06,0.34-0.2,0.62-0.44,0.82C424.69,785.74,424.39,785.84,424.03,785.84z
	 M424.11,785.33c0.19,0,0.35-0.05,0.47-0.16c0.12-0.11,0.19-0.26,0.23-0.46l0.27-1.7c0.03-0.2,0.01-0.35-0.08-0.46
	c-0.08-0.11-0.22-0.16-0.41-0.16c-0.19,0-0.35,0.05-0.46,0.16c-0.12,0.1-0.19,0.26-0.22,0.46l-0.27,1.7
	c-0.03,0.2-0.01,0.35,0.08,0.46C423.79,785.28,423.92,785.33,424.11,785.33z M425.97,785.79l0.61-3.83h0.69l0.18,1.23
	c0.02,0.12,0.04,0.23,0.05,0.33c0.01,0.1,0.02,0.18,0.03,0.24c0.02-0.06,0.05-0.14,0.09-0.24c0.04-0.11,0.09-0.22,0.15-0.34
	l0.57-1.22h0.71l-0.61,3.83h-0.54l0.2-1.29c0.02-0.17,0.06-0.35,0.1-0.55c0.04-0.2,0.09-0.4,0.14-0.61c0.05-0.2,0.1-0.4,0.14-0.59
	c0.05-0.19,0.09-0.35,0.13-0.49l-0.86,1.86h-0.55l-0.28-1.86c0,0.14-0.01,0.29-0.02,0.47c-0.01,0.18-0.02,0.37-0.04,0.57
	c-0.02,0.2-0.04,0.41-0.06,0.61c-0.02,0.2-0.05,0.4-0.08,0.57l-0.2,1.29H425.97z M429.11,785.79l0.61-3.83h0.69l0.18,1.23
	c0.02,0.12,0.04,0.23,0.05,0.33c0.01,0.1,0.02,0.18,0.03,0.24c0.02-0.06,0.05-0.14,0.09-0.24c0.04-0.11,0.09-0.22,0.15-0.34
	l0.57-1.22h0.71l-0.61,3.83h-0.54l0.2-1.29c0.02-0.17,0.06-0.35,0.1-0.55c0.04-0.2,0.09-0.4,0.14-0.61c0.05-0.2,0.1-0.4,0.14-0.59
	c0.05-0.19,0.09-0.35,0.13-0.49l-0.86,1.86h-0.55l-0.28-1.86c0,0.14-0.01,0.29-0.02,0.47c-0.01,0.18-0.02,0.37-0.04,0.57
	c-0.02,0.2-0.04,0.41-0.06,0.61c-0.02,0.2-0.05,0.4-0.08,0.57l-0.2,1.29H429.11z M432.41,785.79l0.61-3.83h2.25l-0.08,0.5h-1.7
	l-0.17,1.09h1.51l-0.08,0.5h-1.51l-0.19,1.24h1.69l-0.08,0.5H432.41z M435.51,785.79l0.61-3.83h1.2c0.24,0,0.44,0.05,0.6,0.14
	c0.16,0.09,0.28,0.22,0.36,0.39c0.07,0.17,0.09,0.37,0.05,0.59c-0.04,0.26-0.14,0.48-0.3,0.67c-0.16,0.19-0.37,0.32-0.6,0.39
	l0.54,1.64h-0.62l-0.48-1.57h-0.54l-0.25,1.57H435.51z M436.4,783.71h0.64c0.19,0,0.35-0.06,0.48-0.17
	c0.13-0.11,0.21-0.26,0.24-0.45c0.03-0.19,0-0.35-0.09-0.46c-0.09-0.11-0.24-0.17-0.43-0.17h-0.64L436.4,783.71z M439.8,785.84
	c-0.36,0-0.63-0.1-0.81-0.3c-0.18-0.2-0.24-0.47-0.19-0.82l0.27-1.7c0.06-0.35,0.21-0.62,0.45-0.82s0.55-0.3,0.91-0.3
	c0.36,0,0.63,0.1,0.81,0.3c0.18,0.2,0.24,0.47,0.19,0.82h-0.57c0.03-0.2,0-0.35-0.09-0.46c-0.09-0.11-0.23-0.16-0.42-0.16
	c-0.19,0-0.35,0.05-0.47,0.16c-0.12,0.1-0.2,0.26-0.23,0.45l-0.27,1.71c-0.03,0.2,0,0.35,0.09,0.46c0.09,0.11,0.23,0.16,0.42,0.16
	s0.35-0.05,0.47-0.16c0.12-0.11,0.2-0.26,0.23-0.46h0.57c-0.03,0.23-0.11,0.43-0.24,0.59c-0.12,0.17-0.28,0.3-0.47,0.39
	C440.25,785.79,440.04,785.84,439.8,785.84z M441.88,785.79l0.08-0.5h0.78l0.45-2.82h-0.78l0.08-0.5h2.13l-0.08,0.5h-0.78
	l-0.45,2.82h0.78l-0.08,0.5H441.88z M444.74,785.79l1.59-3.83h0.75l0.37,3.83h-0.56l-0.07-0.97h-1.09l-0.39,0.97H444.74z
	 M445.9,784.34h0.87l-0.09-1.1c-0.02-0.2-0.03-0.37-0.04-0.51c-0.01-0.14-0.01-0.24-0.01-0.3c-0.02,0.06-0.05,0.16-0.1,0.3
	c-0.05,0.14-0.11,0.31-0.19,0.5L445.9,784.34z M448.24,785.79l0.61-3.83h0.57l-0.52,3.31h1.67l-0.08,0.52H448.24z M453.19,785.84
	c-0.37,0-0.63-0.1-0.8-0.3c-0.17-0.2-0.22-0.48-0.17-0.82l0.44-2.76h0.57l-0.44,2.76c-0.03,0.2-0.01,0.35,0.07,0.46
	c0.08,0.11,0.21,0.17,0.41,0.17c0.19,0,0.35-0.06,0.46-0.17c0.12-0.11,0.19-0.27,0.22-0.46l0.44-2.76h0.57l-0.44,2.76
	c-0.06,0.35-0.2,0.62-0.43,0.82C453.86,785.74,453.56,785.84,453.19,785.84z M456.36,785.84c-0.39,0-0.67-0.1-0.87-0.29
	c-0.19-0.19-0.26-0.45-0.22-0.78h0.57c-0.03,0.17,0.01,0.31,0.12,0.41c0.11,0.1,0.27,0.15,0.48,0.15c0.2,0,0.37-0.05,0.5-0.15
	s0.21-0.23,0.24-0.4c0.02-0.15,0-0.28-0.06-0.39c-0.06-0.11-0.16-0.18-0.29-0.22l-0.46-0.14c-0.27-0.08-0.46-0.22-0.59-0.41
	c-0.13-0.19-0.17-0.42-0.13-0.68c0.04-0.21,0.11-0.39,0.23-0.55c0.12-0.16,0.27-0.28,0.46-0.37c0.19-0.09,0.4-0.13,0.64-0.13
	c0.35,0,0.62,0.1,0.8,0.29c0.18,0.19,0.25,0.44,0.2,0.76h-0.57c0.03-0.17,0-0.3-0.09-0.4c-0.09-0.1-0.23-0.14-0.42-0.14
	c-0.19,0-0.34,0.04-0.46,0.13c-0.12,0.09-0.19,0.21-0.21,0.38c-0.02,0.15-0.01,0.28,0.05,0.39c0.06,0.11,0.16,0.18,0.29,0.22
	l0.47,0.15c0.26,0.08,0.46,0.22,0.58,0.41c0.12,0.19,0.17,0.42,0.12,0.69c-0.04,0.22-0.12,0.41-0.24,0.57
	c-0.13,0.16-0.29,0.29-0.49,0.38C456.82,785.79,456.6,785.84,456.36,785.84z M458.42,785.79l0.61-3.83h2.25l-0.08,0.5h-1.7
	l-0.17,1.09h1.51l-0.08,0.5h-1.51l-0.19,1.24h1.69l-0.08,0.5H458.42z"/>
<path style="fill:#1D1D1B;" d="M295.46,538.08c0.13,7.34,0.69,14.67,1.65,21.95c-9.41-12.51-17.56-25.92-24.34-40.03
	c-6.85-14.23-12.09-29.17-15.65-44.55c1.43,0.96,2.09,2.3,3.87,3.35c1.98,1.17,4.26,1.74,6.56,1.65
	C273.99,500.91,283.39,520.33,295.46,538.08z M499.54,165.47c3.3,0.21,6.02,2.68,6.52,5.96c0,0,2.17,14.47,5.39,36.69
	c5.09-1.91,10.04-3.35,15.34-4.96c-2.48-20.13-4.35-33.21-4.35-33.69c-0.93-7-6.73-12.34-13.78-12.69h-74.46
	c3.26,2.39,7.3,5.48,11.65,8.69H499.54z M701.97,379.29l-8.04,33.82l3.43,28.95v1.48h-1.43c-0.7-0.09-70.16-4.82-87.89-4.82
	l-1.48,0.39v-1.7l0.96-12.52c-11.78-0.3-25.56-0.7-40.86-0.3c-5.53,0.1-11.49,0.16-17.8,0.2c0.01,0.61,0.02,1.27,0.02,1.85
	c0.08,32.44-7.19,64.48-21.26,93.72c-11.88,24.46-27.64,46.83-46.68,66.25c-19.91,20.68-42.82,38.26-67.94,52.16l-4.69,2.39
	c-2.99-2.2-5.59-4.89-7.69-7.95c-1.33-2.15-2.45-4.42-3.35-6.78c2.36,0,4.68-0.57,6.78-1.65c23.56-13.26,45.09-29.83,63.94-49.21
	c22.56-26.95,31.38-53.47,26.08-79.11c-3.69-17.17-13.65-34.17-29.78-50.64c0.76-1.38,1.37-2.84,1.83-4.35
	c2.16-6.49,6.32-11.49,10.03-16.93c-3.94-0.02-7.87-0.04-11.79-0.06c-0.99,1.7-1.96,3.42-2.76,5.3c-1.24,4.39-3.37,8.47-6.26,12
	c-3.19,2.67-6.02,5.74-8.43,9.13c-2.11,3.62-4.51,7.06-7.17,10.3c-1.17,1.22,1.09,9.43-4.13,15.39c-2.96,4.74-9.52,9.78-9.52,11.69
	c0,0-4.91,21.04-8.95,27.91c-4.04,6.87-4.61,11.69-14.43,22.47c-10.3,32.12-22.21,31.25-27.69,41.43
	c-5.48,10.17-2.87,2.09-2.61,10.17c3.9,14.27,9.41,28.05,16.43,41.08c4.35,8.3,9.82,18.3,15.04,21.91
	c14.13,12.3,19.95,9.91,23.95,15.91c4,6-2.3,14.08,1.13,20.17c2.56,4.52,6.48,3.65,8.13,6c5.17,6.87,6.04,2.69,8.35,10.48
	c7.53,0.68,13.91,5.82,16.17,13.04c5.17,3,6.91,11.39,14.43,23.39c5.78,10.78-51.38,10-51.38,0c-0.74-2.78-2.3-12-2.3-12
	c-3.43-1.61-1.91,2-5.74-1.22c-2.59-1.94-3.74-5.26-2.91-8.39c0,0-1.52,0.78-2.09,8c0.04-0.65-0.96-1.91-1.17-2.61
	c-0.38-0.82-0.61-1.71-0.7-2.61c-0.27,0.43-0.59,0.82-0.96,1.17c-0.76-0.77-1.39-1.65-1.87-2.61c-0.28-0.56-0.46-1.16-0.52-1.78
	c0-0.61-0.35-2.65,0-3.17c-0.87,1.22-2.61-5.69-2.91-0.57c-1.74-1.7,1.39-6.65,1.74-7.52c0.35-0.87-1.43-1.91-4,2.43
	c-0.96-2.96,7.35-13.08,4.35-13.82c-0.39-1.26-5.78-1.65-7.52-6.91c-3.43-7.22-31.08-49.29-38.56-56.51
	c-5.26-5.89-9.2-12.85-11.56-20.39l-4.35-6.3c-0.15,5.62,0.14,11.25,0.87,16.82c1.13,7.78,4.09,40.77,10.65,48.03
	c3.48,3.87,12.17,4.82,9,18.91c8.36,4.24,14.76,11.54,17.87,20.39c1.74,5.52,0,4.35,0,4.35s5.17,11.39,4.61,17.39
	c-0.57,6-39.51,8.39-46.73-1.22c0.3-4.26-2.3-5.39-2.3-5.39s-1.7,3.35-2.87-1.17c-1.17-4.52,2.61-11.69-0.57-8.43
	c0.05-2.51,0.95-4.94,2.56-6.87c0,0-0.87-0.61-3.43,0.57c0.64-2.98,1.8-5.82,3.43-8.39c1.65-2.61-3.83-3.87-2.69-23.99
	c-1.74-5.39-12.04-13.26-21.3-73.55c-4.47-3.96-7.06-9.63-7.13-15.6c-0.17-4.99,0.92-9.94,3.17-14.39c0,0-1.43-13.78-2-26.39
	c-0.28-9.21,0.01-18.43,0.87-27.6c0,0-5.48-0.61-13.56-11.39c-3.7-4.86-6.03-10.62-6.74-16.69c0.11-2.79,0.37-5.58,0.78-8.35
	c-0.04-2.56-1.09-4.52-1.09-6.91c0-5.3,3.83-10.21,4.35-15.52c-1.87,2.17-3.04,5.09-5.69,6.52c-2.65,1.43-5.96,0.78-8.69,1.87
	c-3.35,1.3-4.87,3.43-8.69,2.69c-3.83-0.74-7.13-4.09-10.3-5.09c-3.17-1-6.48-0.35-9.65-1.48c-4.92-2.2-9.47-5.13-13.52-8.69
	c-11.74-9.48-16.56-20.39-23.52-26.08c3.74,1.96,15.3,5.48,15.3,4.04c0-5.12-3.43-8.86-8.41-11.77c-10.6,0.03-22.16,0.03-32.8,0.03
	l-2,11.26v1.74l-1.26-0.52h-1.61l-75.37,2.39h-1.48v-1.43l3.43-28.51l-8.69-30.43l-0.43-1.43h1.52l44.16-2.65l-0.91-14.87v-1.26
	h1.26c18.47-0.48,32.09-0.53,42.53-0.35c-1.06-2.36-1.99-4.84-2.72-7.56c-2.35-8.78-1.83-28.56-6.17-35.12
	c8.91,10.39,5.82,34.3,18.87,41.95c-5.65-11.48-4.56-29.51-0.78-41.25c-0.04,12.74,4.61,23.95,9.56,35.3
	c0.94,2.59,2.01,5.12,3.17,7.62c3.42,0.26,6.25,0.53,8.74,0.77c0.82,0.1,1.65,0.13,2.48,0.2c-0.61-1.59-1.23-3.14-1.82-4.64
	c-5.91-14.91-9.87-25.43-7.17-41.51c2.96-17.73,6.09-40.34,6.78-54.25c2.04,14.17,2.69,26.91,5.82,40.69
	c1.21,7.16,3.28,14.16,6.17,20.82c4.35,9.35,15.91,9.69,20.26,18.39c2.35,4.52,0.57,5.26,2,8.04c0.48,0.83,0.74,1,0.48,0
	c-1.13-4.61,1.43-11.52,1.43-15.87c0.22-6.91-1.43-12.74-1.78-20.95c2.32,7.72,5.62,15.11,9.82,21.99
	c6.14,9.48,17.03,15.08,18.2,26.72c0.47-0.01,0.93-0.01,1.4-0.02c1.99-4.98,5.23-11.86,10.96-15.05c-1.88,4.78-2.73,9.86-2.62,14.95
	c6.41-0.07,12.77-0.12,18.86-0.15c-4.43-1.59-8.9-3.17-13.45-4.72c0.34-6.36,1.41-12.67,3.22-18.78c-8,1.7-16.39,8.69-17.04,13.04
	c-4.26-10.74-13.65-23.3-20.78-34.51c7.65-70.07,17.39-143.4,17.39-144.57c0.94-7.03,6.78-12.38,13.87-12.69h17.95
	c1.61,3.44,4.04,6.43,7.09,8.69h-22.52c-3.3,0.19-6.01,2.68-6.48,5.96c0,0-2.17,15.39-5.52,39.03c0.92,4.96,5.5,8.38,10.52,7.87
	h30.91c-0.47,0.56-0.88,1.18-1.22,1.83c-1.73,3.5-2.93,7.23-3.56,11.08c-0.83,3.82-1.43,7.74-1.96,11.65
	c-0.28,2.57-0.72,5.13-1.3,7.65c-1.35,4.89-3.69,9.44-6.87,13.39c-2.65,3.39-11.56,7.69-19.26,9.82
	c17.16,9.59,38.41,7.87,53.81-4.35c-3.83,4.82-5.91,14.04-5.91,23.99c2.09-4.09,4.22-3.56,5.74-4.69
	c-3.35,8.08-2.17,22.43-5.17,28.04c4.13-0.96,6.52-3.35,9.78-2.56c-4.65,3.17-4.83,6.91-10.95,10.87
	c12.78-3.43,24.08-1.39,38.86-3.43c-6.39,4.26-12.87,15.47-14.08,17.08c-3.78,5.16-8.95,9.12-14.91,11.43
	c-6.17,1.72-11.87,4.76-16.77,8.87h8.25c1.96,0,4.05,0,6.2-0.01c1.56-0.63,3.13-1.2,4.75-1.64c4.26-1.7,10.08-2.48,13.69-5.69
	c4.7-4.82,8.89-10.12,12.48-15.82c8.78-12.82,11.3-17.52,19-22.13c-5.09,2-18.13,0.39-20.43,0.39c-7.43-0.26-16.34,2.26-23.6,2.65
	c15.17-7.26,15.87-19.69,21.73-22.3c-16-0.22-18.86,12.39-26.95,15.04c4.17-8.17-0.78-21.04,11.82-32.64
	c-4.56,0.48-6.3,2.91-11.21,6.52c2.83-6.52,3.91-16,8.95-23.39c-16.87-1.35-21.21,15.43-47.29,13.04
	c6.74-1.91,15.04-15.82,16.91-27.99c0.69-7.8,2.89-15.39,6.48-22.34c3-5.81,8.41-9.99,14.78-11.43c-11.08,2.78-18.82-1.3-29.43-1.91
	c-6-0.35-14.26,3.39-20.21,2.43c8.04-2.78,11.08-11,17.13-14.17c-4.46,2.74-9.65,4.04-14.87,3.74c8.61-2.87,8.78-6.43,13.56-12.78
	c4.78-6.35,11.52-7.26,18.39-9.08c-8.65,1.52-16.17-4.82-24.04-6.48c4-0.35,7.91-1,11.87-1.65c1.61-0.26,3.17-0.35,4.82-0.57
	s3.26-0.7,4.91-1c2.63-0.65,5.21-1.53,7.69-2.61c1.49-0.47,2.86-1.24,4.04-2.26c-0.52,0.61-3.26,0.26-3.96,0.26
	c-1.56-0.09-2.96-0.57-4.35-0.57c-2.56-0.4-5.05-1.18-7.39-2.3c-7.04-3.13-8.48-8.95-12.04-13.91c6.33,5.36,15.02,6.99,22.86,4.3
	c-1.09-0.17-5-1.43-9.78-10.13c-1.17-2.22-1.78-4.22-3.09-7.09c-1.3-2.87-3.35-4.56-4.69-7.22l1.04-0.3
	c2.09,0.83,4.26-0.43,6.43-0.43c2.24,0.05,4.46,0.31,6.65,0.78c4.91,0.57,12.34,2.52,16.08,2.52c-1.02-4.47-0.84-9.14,0.52-13.52
	c2.52-4.87,4.13-7.22,9.26-6.82c1.52-4.86,3.87-9.42,6.95-13.47c4.09-5.22,8.91-6.56,11.65-13.3c1.88-5.89,3.02-12,3.39-18.17
	c0.35-3.69,1.48-3.83,4.69-5.61c3.01-1.85,5.91-3.87,8.69-6.04c2.56-1.91,5.17-4.61,8.3-3.78c2.75,0.94,5.2,2.61,7.09,4.83
	c1.6,2.6,2.31,5.65,2.04,8.69c0.39,4.65-0.96,5.17-3.09,9c4.91,0.65,11.82-1.96,13.04,5c0.52,3.13,1.26,5.91,1.96,8.91
	c0.91,3.78,1.96,5.04-0.78,7.43c-4.65,4.09-9.3,4.48-11.08,11.61c-1.3,6.05-1.62,12.28-0.96,18.43c1.01,6.21,2.36,12.36,4.04,18.43
	c0.61,2.91,0.04,6.96,0.87,9.61c0.83,2.65,3.22,3.26,5.17,4.35c1.96,1.09,3.87,2.83,5.82,4.35c4.35,3.35,8.35,6.78,12.69,10.21
	c0,0,18.6,14,27.3,22.21c3.65,3.17,7.05,6.61,10.17,10.3c2.52,3.17,2.48,8.48,5.82,10.82c3.35,2.35,8.04,0.04,11.3,2.56
	c3.3,2.9,6.22,6.2,8.69,9.82c5.56-1.65,11.3-7.56,16.39-9.69c5.09-2.13,10-4.09,15.17-5.82c4.69-1.24,9.11-3.33,13.04-6.17
	c1.98-1.74,3.74-3.71,5.26-5.87c1.52-2.26,2.17-5.61,4.35-7.09c3.7-1.48,7.67-2.15,11.65-1.96c3.96,0.17,7.93-0.23,11.78-1.17
	c1.64,4.65,3.69,9.15,6.13,13.43c2.35,3.56,6,5.26,7.74,9.61c1.84,5.68,3.22,11.49,4.13,17.39c1.26,5.78,1.22,12,2.78,17.91
	c1.16,6.72,2.84,13.33,5.04,19.78c2.91,6.52,2.13,10.35,1.74,17.17c-0.35,5.91,7.04,9.65,7.91,16.56c0.2,6.28-0.02,12.57-0.65,18.82
	c0,7.39,0.26,12.78-4.35,18.6c-2.02,2.34-4.31,4.43-6.82,6.22c-2.04,1.78-4.04,5.3-6.39,6.13c-3.13,1.22-5.22-5.96-6.56-8.69
	c-1.53-3.37-2.62-6.92-3.26-10.56c-1.22-7.26-5.91-19.69-5.22-21.73c0.7-2.04,3.69-1.3,5.69-1.3c0-2.48,0.83-5.26,0.78-7.26
	c-0.04-2,0.52-5.96,0.26-7.61c-0.52-2.74-2.78-3.39-4.35-5.3c-1.89-2.33-2.92-5.25-2.91-8.26c-0.04-2.61,0.78-5.61,0.78-8
	c-0.64-2.54-1.44-5.04-2.39-7.48c-1.26-5.09-3.56-14.61-3.56-14.61l-2.87-13.04l-4.61-4.83c-3.58-1.98-7.48-3.32-11.52-3.96
	c0,0-18.69,9.22-20.21,14.78c-1.52,4.82,6.3,0.57,11.52,7.78c5.22,7.22,2.39,11.82,1.74,18.6c1.13,6.04,1.65,26.73,2.65,30.43
	c0.7,2.91,4.65,5.65,5.04,10c0.78,8.61-2.7,6.61-1.17,10.61c1.76,3.07,3.12,6.36,4.04,9.78c0.04,4.37-0.31,8.73-1.04,13.04
	c-0.77,4.4-1.77,8.75-3,13.04c-0.42,0.65-2.48,2.35-4.76,4.19c48.24-0.25,104.76-1.11,105.65-1.11h1.35v1.35l-1.48,15.17
	c24.12,1.13,44.25,2.43,44.6,2.43h1.39L701.97,379.29z M494.41,359.98c2.66,0.07,5.74,0.12,9.15,0.16c1.37-2.94,2.79-5.86,4.34-8.71
	c3.69-8.08,6.69-15.65,10.17-21.73c1.54-0.48,3.2-0.48,4.74,0c2.3,6.17-0.26,10.69-0.26,17.04c0.07,4.37-0.21,9.03,0.23,13.52
	c2.18,0,4.41,0,6.69,0c-0.43-1.87-0.76-3.87-0.89-5.96c-0.69-7.64-0.1-15.33,1.74-22.78c1.53-1.35,3.3-2.4,5.22-3.09v-5.3
	c0,0-1.91-2.22-3.3-3.61c-1.39-3.42-1.71-7.18-0.91-10.78c1.05-8.88,0.25-17.88-2.35-26.43c-0.22-3.17-4.09-2.87-5.74-0.91
	c-4.78,5.65-2.61,12.78-2.96,19.95c-0.17,3.09-0.83,6.39-0.83,9.56c-0.91,6.56-3.46,12.78-7.43,18.08
	c-3.78,6.39-7.39,12.48-12.13,18.95C497.06,351.82,495.68,355.82,494.41,359.98z M175.71,434.41l-27.12-10.43h-1.74v-1.13
	l-2.83-45.9l-42.64,2.56l8.08,29.04v0.7l-3.3,27.38L175.71,434.41z M648.85,425.89l6.17-64.46c-9.13,0-62.77,0.96-107.76,1.13
	l-0.61,0.52c-2.71,3.14-6.46,5.21-10.56,5.82c-2.82-1.06-4.99-3.37-5.87-6.26c-17,0-31.43,0-39.73-0.39
	c-28.99-1.04-112.28-0.91-152.14-0.83h-18.08c-27.99,0-65.94,0.61-88.28,1.35c-4.94,0.12-9.88-0.11-14.78-0.7
	c-10.52-1-26.39-2.52-71.68-1.35l3.69,60.86c9.48,0,76.85,0.74,98.85,0c9.52-0.3,25.82,0,44.69,0.74c28.6,0.87,64.2,1.96,92.85,0.74
	c26.43-1.17,64.55-0.91,101.41-0.65c29.91,0,58.2,0.35,79.81,0C594.22,421.6,621.63,422.76,648.85,425.89z M699.19,380.68
	c-5-0.35-22.69-1.43-43.25-2.39l-4.78,49.25l-0.26,0.87h-1.26h-1l-32.17,8.69c22.78,0.83,69.55,3.91,78.24,4.35l-3.26-27.78v-0.39
	L699.19,380.68z M208,405.03v0.57c-0.02,0.22-0.21,0.39-0.43,0.39h-9.17c-0.22,0-0.39-0.18-0.39-0.39v-0.57
	c0-0.21,0.14-0.39,0.35-0.43c0.57,0,0.57,0.04,0.57,0c0-0.04-0.04-0.35-0.78-1.35l-5-7.04h-6.13v7.82c0,0.26-0.09,0.17,0,0.52
	c0.09,0.35,0.26,0.35,0.7,0.35c0.22,0.02,0.39,0.21,0.39,0.43v0.57c0,0.22-0.18,0.39-0.39,0.39h-7.95c-0.22,0-0.41-0.17-0.43-0.39
	v-0.57c0-0.21,0.14-0.39,0.35-0.43c0.43-0.09,0.7-0.35,0.7-0.35c0.06-0.17,0.06-0.35,0-0.52V383.2c0.07-0.18,0.07-0.38,0-0.57
	c-0.2-0.17-0.44-0.29-0.7-0.35c-0.21-0.04-0.35-0.22-0.35-0.43v-0.57c0.02-0.22,0.21-0.39,0.43-0.39h16.04
	c1.56-0.04,3.11,0.07,4.65,0.3c1.11,0.22,2.17,0.63,3.13,1.22c1.03,0.66,1.85,1.62,2.35,2.74c0.48,1.1,0.72,2.28,0.7,3.48
	c0.17,3.82-2.75,7.07-6.56,7.3c0.96,1.52,4.35,6.26,4.35,6.26c0.53,0.8,1.15,1.54,1.83,2.22c0.36,0.29,0.8,0.46,1.26,0.48
	C207.66,404.79,207.89,404.85,208,405.03z M200.09,388.55c0.17-0.99-0.3-1.98-1.17-2.48c-0.4-0.22-0.85-0.35-1.3-0.39
	c-0.87-0.07-1.74-0.07-2.61,0h-8.13v5.61h8.13h2.61c0.46-0.07,0.9-0.22,1.3-0.43c0.81-0.45,1.27-1.34,1.17-2.26L200.09,388.55z
	 M234.87,383.99c4.64,4.26,5.58,11.23,2.22,16.56c-2.93,4.24-7.91,6.58-13.04,6.13c-3.89,0.2-7.71-1.07-10.69-3.56
	c-1.44-1.25-2.56-2.83-3.26-4.61c-1.61-3.9-1.24-8.34,1-11.91c2.93-4.24,7.9-6.59,13.04-6.17c3.91-0.19,7.75,1.08,10.78,3.56
	L234.87,383.99z M232.04,396.81c0.4-0.92,0.63-1.91,0.65-2.91c0.11-2.39-0.89-4.69-2.7-6.26c-1.65-1.33-3.71-2.04-5.82-2
	c-2.11-0.06-4.16,0.65-5.78,2c-0.2,0.18-0.39,0.37-0.57,0.57c-3.08,3.4-2.82,8.65,0.57,11.73c3.41,2.61,8.15,2.61,11.56,0
	c0.91-0.8,1.63-1.79,2.09-2.91V396.81z M270.2,405.33v0.57c0,0.02,0,0.03,0,0.05c-0.02,0.21-0.22,0.37-0.43,0.35h-9.3
	c-0.02,0-0.03,0-0.05,0c-0.22,0-0.39-0.18-0.39-0.39v-0.57c0.01-0.2,0.15-0.38,0.35-0.43c0.87-0.13,0.87-0.7,0.87-0.7
	c-0.04-0.32-0.15-0.63-0.3-0.91l-1.65-3.26h-11c-0.35,0.78-1.56,3.26-1.56,3.26c-0.17,0.28-0.28,0.59-0.3,0.91
	c0,0.13,0,0.7,0.91,0.7c0.19,0.06,0.31,0.24,0.3,0.43v0.57c0,0.22-0.18,0.39-0.39,0.39h-8.39c-0.02,0-0.03,0-0.05,0
	c-0.22,0-0.39-0.18-0.39-0.39v-0.57c0-0.21,0.14-0.39,0.35-0.43c0.34-0.04,0.65-0.18,0.91-0.39c0.34-0.39,0.62-0.83,0.83-1.3
	l9.3-18.87c0.23-0.38,0.37-0.81,0.39-1.26c0-0.13,0-0.52-0.78-0.78c-0.17-0.07-0.28-0.25-0.26-0.43v-0.57
	c0-0.22,0.18-0.39,0.39-0.39h9c0.22,0,0.41,0.17,0.43,0.39v0.57c0.01,0.2-0.12,0.38-0.3,0.43c-0.83,0.22-0.83,0.65-0.83,0.65
	c0.04,0.35,0.14,0.69,0.3,1l9.69,18.95c0.25,0.55,0.57,1.06,0.96,1.52c0.29,0.26,0.66,0.43,1.04,0.48
	C270.05,404.95,270.19,405.13,270.2,405.33z M253.86,388.42l-3.48,7.39h6.87L253.86,388.42z M291.5,388.81v-0.3
	c0-0.09-0.09-0.43-0.87-0.96c-2.22-1.48-4.85-2.24-7.52-2.17c-1.13-0.01-2.26,0.15-3.35,0.48c-0.61,0.17-1.17,0.5-1.61,0.96
	c-0.34,0.34-0.54,0.79-0.57,1.26c0,0.48,0.17,1.13,1.43,1.48c1.23,0.27,2.48,0.46,3.74,0.57l2.91,0.26c1.47,0.14,2.92,0.4,4.35,0.78
	c1.05,0.3,2.04,0.75,2.96,1.35c1.84,1.33,2.92,3.47,2.91,5.74c0.02,1.79-0.63,3.53-1.83,4.87c-1.35,1.44-3.11,2.44-5.04,2.87
	c-1.76,0.44-3.57,0.66-5.39,0.65c-3.49-0.02-6.94-0.82-10.08-2.35c-0.34-0.19-0.71-0.34-1.09-0.43c0,0-0.13,0-0.48,0.3
	c-0.13,0.09-0.3,0.09-0.43,0l-0.57-0.26c-0.14-0.16-0.14-0.4,0-0.57l2.74-6l0,0c0.11-0.04,0.24-0.04,0.35,0l0.52,0.26
	c0.14,0.06,0.24,0.19,0.26,0.35v0.26c0.02,0.47,0.26,0.91,0.65,1.17c1.06,0.8,2.27,1.38,3.56,1.7c1.5,0.49,3.07,0.74,4.65,0.74
	c1.38,0.03,2.76-0.22,4.04-0.74c0.54-0.25,1.02-0.62,1.39-1.09c0.29-0.38,0.46-0.83,0.48-1.3c0-0.65-0.46-1.21-1.09-1.35
	c-1.21-0.34-2.45-0.55-3.69-0.65l-2.87-0.26c-1.96-0.22-3.3-0.57-4.13-0.57c-0.84-0.21-1.65-0.5-2.43-0.87
	c-2.35-1.16-3.82-3.56-3.78-6.17c-0.04-2.08,0.81-4.07,2.35-5.48c2.54-2.01,5.73-3,8.95-2.78c1.56,0,3.12,0.16,4.65,0.48
	c1.81,0.48,3.58,1.07,5.3,1.78l1.13,0.39c0.25-0.02,0.48-0.13,0.65-0.3c0.14-0.11,0.34-0.11,0.48,0l0.48,0.26
	c0.21,0.1,0.31,0.35,0.22,0.57l-3.04,5.78c-0.08,0.03-0.18,0.03-0.26,0h-0.3l-0.52-0.3c-0.05-0.11-0.05-0.24,0-0.35L291.5,388.81z
	 M319.06,388.77c-0.01-0.09-0.01-0.17,0-0.26c0-0.09-0.09-0.43-0.91-0.96c-2.22-1.48-4.85-2.24-7.52-2.17
	c-1.13-0.01-2.26,0.15-3.35,0.48c-0.61,0.17-1.17,0.5-1.61,0.96c-0.34,0.34-0.54,0.79-0.57,1.26c0,0.48,0.17,1.13,1.43,1.48
	c1.23,0.27,2.48,0.46,3.74,0.57l2.91,0.26c1.47,0.14,2.92,0.4,4.35,0.78c1.06,0.27,2.06,0.73,2.96,1.35
	c0.91,0.63,1.64,1.49,2.13,2.48c0.52,1.01,0.79,2.13,0.78,3.26c0.02,1.79-0.63,3.53-1.83,4.87c-1.35,1.44-3.11,2.44-5.04,2.87
	c-1.76,0.44-3.57,0.66-5.39,0.65c-3.49-0.02-6.94-0.82-10.08-2.35c-0.34-0.19-0.71-0.34-1.09-0.43l-0.52,0.3
	c-0.13,0.09-0.3,0.09-0.43,0l-0.52-0.26c-0.12-0.17-0.12-0.4,0-0.57l2.74-6c0.22,0,0.22,0,0.22,0c0.11-0.04,0.24-0.04,0.35,0
	l0.52,0.26c0.16,0.04,0.27,0.19,0.26,0.35v0.26c0.04,0.47,0.28,0.89,0.65,1.17c1.06,0.8,2.27,1.38,3.56,1.7
	c1.5,0.48,3.07,0.73,4.65,0.74c1.38,0.03,2.76-0.22,4.04-0.74c0.53-0.26,1.01-0.63,1.39-1.09c0.29-0.38,0.46-0.83,0.48-1.3
	c0.01-0.65-0.45-1.22-1.09-1.35c-1.21-0.34-2.45-0.55-3.69-0.65l-2.87-0.26c-1.96-0.22-3.3-0.57-4.09-0.57
	c-0.85-0.21-1.68-0.5-2.48-0.87c-1.18-0.57-2.17-1.48-2.83-2.61c-0.64-1.08-0.97-2.31-0.96-3.56c-0.03-2.08,0.82-4.07,2.35-5.48
	c2.54-2.01,5.73-3,8.95-2.78c1.56,0,3.12,0.16,4.65,0.48c1.81,0.48,3.58,1.07,5.3,1.78c0.36,0.17,0.74,0.3,1.13,0.39
	c0.26-0.03,0.5-0.14,0.7-0.3c0.13-0.1,0.31-0.1,0.43,0l0.52,0.26c0.04,0.08,0.04,0.18,0,0.26c0.04,0.1,0.04,0.21,0,0.3l-3.04,5.78
	l0,0h-0.35l-0.52-0.3C319.27,389.18,319.08,389,319.06,388.77z M351.97,383.99c4.63,4.27,5.54,11.24,2.17,16.56
	c-2.91,4.26-7.9,6.6-13.04,6.13c-3.89,0.2-7.71-1.07-10.69-3.56c-1.45-1.24-2.57-2.83-3.26-4.61c-0.66-1.57-1-3.25-1-4.96
	c0-2.46,0.69-4.87,2-6.95c2.93-4.24,7.9-6.59,13.04-6.17C345.1,380.24,348.94,381.51,351.97,383.99z M349.79,393.77
	c0.11-2.39-0.89-4.69-2.7-6.26c-1.65-1.33-3.71-2.04-5.82-2c-2.11-0.08-4.17,0.63-5.78,2c-1.78,1.5-2.81,3.71-2.78,6.04
	c-0.1,2.36,0.9,4.64,2.7,6.17c1.64,1.34,3.71,2.03,5.82,1.96c2.1,0.07,4.15-0.63,5.78-1.96c0.9-0.81,1.61-1.8,2.09-2.91
	C349.51,395.85,349.75,394.81,349.79,393.77z M397.87,405.42v0.57c0,0.02,0,0.03,0,0.05c-0.02,0.21-0.22,0.37-0.43,0.35h-9.87
	c-0.02,0-0.03,0-0.05,0c-0.22,0-0.39-0.18-0.39-0.39v-0.57c0-0.21,0.14-0.39,0.35-0.43c0.65-0.26,0.65-0.26,0.65-0.26
	c-0.25-0.38-0.52-0.75-0.83-1.09c0,0-5.91-7.13-7.17-8.69l-3.35,2.61v6.39c-0.06,0.2-0.06,0.41,0,0.61c0.22,0.16,0.47,0.26,0.74,0.3
	c0.19,0.06,0.31,0.24,0.3,0.43v0.57c0,0.02,0,0.03,0,0.05c-0.02,0.21-0.22,0.37-0.43,0.35h-7.87c-0.02,0-0.03,0-0.05,0
	c-0.22,0-0.39-0.18-0.39-0.39v-0.57c-0.01-0.2,0.12-0.38,0.3-0.43c0.27-0.05,0.53-0.17,0.74-0.35c0.07-0.18,0.07-0.38,0-0.57v-20.82
	c0.06-0.17,0.06-0.35,0-0.52c-0.21-0.18-0.47-0.3-0.74-0.35c-0.19-0.06-0.31-0.24-0.3-0.43v-0.57c0-0.02,0-0.03,0-0.05
	c0.02-0.21,0.22-0.37,0.43-0.35h7.87c0.02,0,0.03,0,0.05,0c0.22,0,0.39,0.18,0.39,0.39v0.57c0.01,0.2-0.12,0.38-0.3,0.43
	c-0.27,0.02-0.53,0.13-0.74,0.3c-0.06,0.2-0.06,0.41,0,0.61v8l9.78-7.74c0.52-0.61,0.52-0.57,0.52-0.61c0-0.04-0.13-0.3-0.7-0.3
	c-0.21-0.04-0.35-0.22-0.35-0.43v-0.57c0-0.22,0.18-0.39,0.39-0.39h10.39c0.22,0,0.39,0.18,0.39,0.39v0.57
	c0,0.21-0.14,0.39-0.35,0.43h-0.78l-1.56,1.22l-1.43,1.13l-8.26,6.48l9.48,11.04c0.56,0.72,1.19,1.39,1.87,2
	c0.4,0.28,0.86,0.46,1.35,0.52C397.75,404.96,397.9,405.18,397.87,405.42z M427.38,381.25v0.57c0.01,0.2-0.12,0.38-0.3,0.43
	c-0.27,0.05-0.53,0.17-0.74,0.35c-0.06,0.18-0.06,0.38,0,0.57v13.78c0.15,2.14-0.4,4.28-1.56,6.09c-3.03,2.87-7.21,4.22-11.35,3.65
	c-3.27,0.17-6.53-0.49-9.48-1.91c-1.27-0.73-2.25-1.86-2.78-3.22c-0.52-1.48-0.77-3.04-0.74-4.61v-13.78c0.06-0.18,0.06-0.38,0-0.57
	c-0.21-0.18-0.47-0.3-0.74-0.35c-0.19-0.06-0.31-0.24-0.3-0.43v-0.57c0-0.02,0-0.03,0-0.05c0.02-0.21,0.22-0.37,0.43-0.35h8
	c0.02,0,0.03,0,0.05,0c0.22,0,0.39,0.18,0.39,0.39v0.57c0.01,0.2-0.12,0.38-0.3,0.43c-0.25,0.05-0.49,0.15-0.7,0.3
	c-0.07,0.2-0.07,0.41,0,0.61v12.26c-0.1,1.01-0.1,2.03,0,3.04c0.11,0.58,0.4,1.11,0.83,1.52c3.52,2.26,8.04,2.26,11.56,0
	c0.4-0.42,0.67-0.95,0.78-1.52c0.11-1.01,0.11-2.03,0-3.04v-12.26c0.06-0.18,0.06-0.38,0-0.57c-0.21-0.18-0.47-0.3-0.74-0.35
	c-0.19-0.06-0.31-0.24-0.3-0.43v-0.57c0.02-0.22,0.21-0.39,0.43-0.39h7.43C427.36,380.96,427.41,381.1,427.38,381.25z
	 M464.38,380.55c0.29,0.12,0.42,0.45,0.3,0.74v0.57c0.01,0.2-0.12,0.38-0.3,0.43c-0.27,0.06-0.52,0.18-0.74,0.35
	c-0.06,0.17-0.06,0.35,0,0.52v20.73c-0.06,0.18-0.06,0.38,0,0.57c0.2,0.2,0.46,0.32,0.74,0.35c0.19,0.06,0.31,0.24,0.3,0.43v0.57
	c0,0.02,0,0.03,0,0.05c-0.02,0.21-0.22,0.37-0.43,0.35h-7.87c-0.02,0-0.03,0-0.05,0c-0.22,0-0.39-0.18-0.39-0.39v-0.57
	c-0.01-0.2,0.12-0.38,0.3-0.43c0.27-0.04,0.52-0.15,0.74-0.3c0.06-0.2,0.06-0.41,0-0.61v-13.52l-9.04,15.65
	c-0.12,0.06-0.27,0.06-0.39,0c-0.11,0.05-0.24,0.05-0.35,0l-8.69-15.56v13.48c-0.07,0.2-0.07,0.41,0,0.61
	c0.19,0.17,0.44,0.28,0.7,0.3c0.19,0.06,0.31,0.24,0.3,0.43v0.57c0,0.22-0.18,0.39-0.39,0.39h-7.43c-0.22,0-0.41-0.17-0.43-0.39
	v-0.57c-0.01-0.2,0.12-0.38,0.3-0.43c0.27-0.04,0.52-0.15,0.74-0.3c0.06-0.2,0.06-0.41,0-0.61v-20.82c0.06-0.17,0.06-0.35,0-0.52
	c-0.21-0.18-0.47-0.3-0.74-0.35c-0.19-0.06-0.31-0.24-0.3-0.43v-0.57c0.02-0.22,0.21-0.39,0.43-0.39h9.74
	c0.22,0,0.41,0.17,0.43,0.39v0.57c0.01,0.2-0.12,0.38-0.3,0.43c-0.57,0.13-0.57,0.57-0.57,0.57c-0.06,0.21-0.06,0.44,0,0.65l6.56,12
	l6.61-11.78c0.21-0.3,0.35-0.64,0.43-1c0-0.17,0-0.43-0.57-0.43c-0.22-0.02-0.39-0.21-0.39-0.43v-0.57
	c0.02-0.22,0.21-0.39,0.43-0.39h9.56C463.76,380.57,464.09,380.43,464.38,380.55z M497.54,405.33v0.57c0,0.02,0,0.03,0,0.05
	c-0.02,0.21-0.22,0.37-0.43,0.35h-9.3c-0.02,0-0.03,0-0.05,0c-0.22,0-0.39-0.18-0.39-0.39v-0.57c0-0.21,0.14-0.39,0.35-0.43
	c0.87-0.13,0.87-0.7,0.87-0.7c-0.05-0.33-0.15-0.66-0.3-0.96l-1.65-3.22h-11c-0.35,0.78-1.56,3.22-1.56,3.22
	c-0.17,0.3-0.29,0.62-0.35,0.96c0,0.3,0.35,0.7,0.96,0.7c0.19,0.06,0.31,0.24,0.3,0.43v0.57c0,0.22-0.18,0.39-0.39,0.39h-8.35
	c-0.22,0-0.39-0.18-0.39-0.39v-0.57c0-0.21,0.14-0.39,0.35-0.43c0.33-0.06,0.64-0.19,0.91-0.39c0.34-0.39,0.62-0.83,0.83-1.3
	l9.3-18.87c0.23-0.38,0.37-0.81,0.39-1.26c0-0.26-0.09-0.78-0.78-0.78c-0.17-0.07-0.28-0.25-0.26-0.43v-0.57
	c0-0.22,0.18-0.39,0.39-0.39h9c0.22,0,0.41,0.17,0.43,0.39v0.57c0.01,0.2-0.12,0.38-0.3,0.43c-0.83,0.22-0.83,0.65-0.83,0.65
	c0.04,0.35,0.14,0.69,0.3,1l9.65,18.95c0.25,0.56,0.59,1.07,1,1.52c0.29,0.26,0.66,0.43,1.04,0.48
	C497.44,404.98,497.55,405.15,497.54,405.33z M481.28,388.46l-3.52,7.39h6.95L481.28,388.46z M532.34,380.66
	c0.23,0.12,0.32,0.4,0.2,0.63v0.57c0.01,0.2-0.12,0.38-0.3,0.43c-0.27,0.04-0.52,0.15-0.74,0.3c-0.05,0.19-0.05,0.38,0,0.57v20.73
	c-0.06,0.2-0.06,0.41,0,0.61c0.22,0.16,0.47,0.26,0.74,0.3c0.19,0.06,0.31,0.24,0.3,0.43v0.57c0,0.22-0.18,0.39-0.39,0.39h-7.91
	c-0.22,0-0.41-0.17-0.43-0.39v-0.57c0-0.21,0.14-0.39,0.35-0.43c0.25-0.05,0.49-0.15,0.7-0.3c0.06-0.2,0.06-0.41,0-0.61v-13.52
	l-9.04,15.65c-0.12,0.06-0.27,0.06-0.39,0c-0.11,0.05-0.24,0.05-0.35,0l-8.69-15.56v13.48c-0.08,0.19-0.08,0.41,0,0.61
	c0.21,0.15,0.44,0.26,0.7,0.3c0.19,0.06,0.31,0.24,0.3,0.43v0.57c0,0.22-0.18,0.39-0.39,0.39h-7.43c-0.22,0-0.41-0.17-0.43-0.39
	v-0.57c-0.01-0.2,0.12-0.38,0.3-0.43c0.27-0.04,0.52-0.15,0.74-0.3c0.06-0.2,0.06-0.41,0-0.61v-20.82c0.06-0.17,0.06-0.35,0-0.52
	c-0.21-0.18-0.47-0.3-0.74-0.35c-0.19-0.06-0.31-0.24-0.3-0.43v-0.57c0.02-0.22,0.21-0.39,0.43-0.39h9.74
	c0.22,0,0.41,0.17,0.43,0.39v0.57c0,0.21-0.14,0.39-0.35,0.43c-0.52,0.09-0.52,0.3-0.52,0.57c0,0.23,0.08,0.46,0.22,0.65l6.52,12
	l6.61-11.78c0.21-0.3,0.35-0.64,0.43-1c0-0.17,0-0.43-0.57-0.43c0,0,0,0,0,0c-0.21-0.03-0.37-0.22-0.34-0.43v-0.57
	c0-0.22,0.18-0.39,0.39-0.39h9.61C531.83,380.63,532.11,380.54,532.34,380.66z M561.18,383.99c4.63,4.27,5.54,11.24,2.17,16.56
	c-2.91,4.26-7.9,6.6-13.04,6.13c-3.89,0.22-7.71-1.06-10.69-3.56c-1.44-1.27-2.57-2.84-3.3-4.61c-0.63-1.58-0.95-3.26-0.96-4.96
	c0-2.46,0.69-4.87,2-6.95c2.93-4.24,7.9-6.59,13.04-6.17C554.31,380.24,558.15,381.51,561.18,383.99z M558.31,396.81
	c0.39-1,0.6-2.06,0.61-3.13c0.11-2.39-0.89-4.69-2.7-6.26c-1.64-1.34-3.71-2.05-5.82-2c-2.11-0.08-4.17,0.63-5.78,2
	c-1.78,1.53-2.77,3.78-2.69,6.13c-0.07,2.36,0.92,4.62,2.69,6.17c1.64,1.34,3.71,2.03,5.82,1.96c2.1,0.07,4.15-0.63,5.78-1.96
	C557.13,398.92,557.84,397.92,558.31,396.81L558.31,396.81z M591.95,379.68c0.24,0,0.43,0.19,0.43,0.43v6.35c0,0,0,0,0,0
	c0,0.24-0.19,0.43-0.43,0.43h-0.52c-0.19,0-0.36-0.12-0.43-0.3c-0.13-0.48-0.35-0.7-0.35-0.7c-0.2-0.07-0.41-0.07-0.61,0h-7.39
	v18.21c-0.06,0.2-0.06,0.41,0,0.61c0.22,0.15,0.48,0.25,0.74,0.3c0.19,0.06,0.31,0.24,0.3,0.43v0.57c0,0.02,0,0.03,0,0.05
	c-0.02,0.21-0.22,0.37-0.43,0.35h-7.65c-0.02,0-0.03,0-0.05,0c-0.22,0-0.39-0.18-0.39-0.39v-0.57c-0.01-0.2,0.12-0.38,0.3-0.43
	c0.27-0.04,0.52-0.15,0.74-0.3c0.06-0.2,0.06-0.41,0-0.61V385.9h-7.43c-0.26,0-0.48-0.04-0.57,0c-0.09,0.04-0.39,0.22-0.39,0.7
	c-0.04,0.18-0.21,0.31-0.39,0.3h-0.57c-0.03,0-0.06,0-0.09,0c-0.21-0.03-0.37-0.22-0.34-0.43v-6.35c0-0.03,0-0.06,0-0.09
	c0.03-0.21,0.22-0.37,0.43-0.34h0.57c0.18,0.01,0.34,0.13,0.39,0.3c0.17,0.43,0.3,0.7,0.39,0.7c0.09,0,0.3,0,0.57,0H590
	c0.3,0,0.52,0.04,0.61,0c0.09-0.04,0.35-0.22,0.35-0.7c0.07-0.18,0.24-0.3,0.43-0.3H591.95L591.95,379.68z M623.38,393.72
	c-0.01,2.42-0.72,4.79-2.04,6.82c-2.92,4.25-7.91,6.59-13.04,6.13c-3.9,0.21-7.74-1.06-10.74-3.56c-1.43-1.26-2.54-2.84-3.26-4.61
	c-0.65-1.57-0.97-3.26-0.96-4.96c-0.03-2.46,0.67-4.88,2-6.95c2.93-4.25,7.9-6.6,13.04-6.17c3.91-0.19,7.76,1.08,10.78,3.56
	C621.95,386.44,623.5,390.01,623.38,393.72z M614.25,387.64c-1.65-1.33-3.71-2.04-5.82-2c-2.11-0.06-4.16,0.65-5.78,2
	c-0.18,0.16-0.35,0.33-0.51,0.51c-3.12,3.4-2.89,8.68,0.51,11.79c3.43,2.6,8.17,2.6,11.61,0c0.9-0.79,1.6-1.79,2.04-2.91
	C617.67,393.78,616.85,390.02,614.25,387.64z"/>
</svg>
