<svg version="1.1" xmlns="http://www.w3.org/2000/svg" xmlns:xlink="http://www.w3.org/1999/xlink" x="0px" y="0px"
	 viewBox="0 0 800 800" enable-background="new 0 0 800 800" xml:space="preserve">
<g>
	<g>
		<g>
			<g>
				<circle fill="#5A0205" cx="400" cy="400" r="350"/>
				<path fill="#FFFFFF" d="M400,739c-90.5,0-175.7-35.3-239.7-99.3S61,490.5,61,400s35.3-175.7,99.3-239.7S309.5,61,400,61
					s175.7,35.3,239.7,99.3S739,309.4,739,400s-35.3,175.7-99.3,239.7S490.5,739,400,739z"/>
				<path fill="#5A0205" d="M400,726.9c-87.3,0-169.4-34-231.2-95.8C107.1,569.4,73.1,487.3,73.1,400s34-169.4,95.8-231.2
					C230.6,107,312.7,73,400.1,73c87.3,0,169.4,34,231.2,95.8c61.7,61.7,95.8,143.8,95.8,231.2c0,87.3-34,169.4-95.8,231.2
					S487.3,726.9,400,726.9z"/>
				<path fill="#BE0000" d="M400,714.9c-84.1,0-163.2-32.8-222.7-92.2C117.9,563.2,85.1,484.1,85.1,400s32.8-163.2,92.2-222.7
					c59.5-59.5,138.6-92.2,222.7-92.2s163.2,32.8,222.7,92.2c59.5,59.5,92.2,138.6,92.2,222.7s-32.8,163.2-92.2,222.7
					C563.2,682.1,484.1,714.9,400,714.9z"/>
				<path opacity="0.5" fill="#FFFFFF" enable-background="new    " d="M400,638.7c-63.8,0-123.7-24.8-168.8-69.9
					c-45.1-45.1-69.9-105-69.9-168.8s24.8-123.7,69.9-168.8s105-69.9,168.8-69.9s123.7,24.8,168.8,69.9s69.9,105,69.9,168.8
					s-24.8,123.7-69.9,168.8C523.7,613.9,463.8,638.7,400,638.7z"/>
				<path fill="#FFFFFF" d="M400,628.7c-61.1,0-118.5-23.8-161.7-67s-67-100.6-67-161.7s23.8-118.5,67-161.7s100.6-67,161.7-67
					s118.5,23.8,161.7,67s67,100.6,67,161.7s-23.8,118.5-67,161.7S461.1,628.7,400,628.7z"/>
			</g>
			<path fill="#840001" d="M133.2,307.7c0,0-22.1,96.3,2,184.5C135.2,492.3,91.1,396,133.2,307.7z"/>
			<path fill="#840001" d="M667.6,307.7c0,0,22.1,96.3-2,184.5C665.6,492.3,709.7,396,667.6,307.7z"/>
		</g>
		<g>
			<path fill="#5A0205" d="M392.8,625.3c-13.1-10-104.4-82.2-104.4-154.5c0-77.8,0-207.4,0-207.4h16c0,0,0,70.4,0,195.4
				C304.5,549.1,380.9,616,392.8,625.3z"/>
			<path fill="#5A0205" d="M406.2,625.3c13.1-10,104.4-82.2,104.4-154.5c0-77.8,0-207.4,0-207.4h-16c0,0,0,70.4,0,195.4
				C494.5,549.1,418.1,616,406.2,625.3z"/>
			<path fill="#840001" d="M339.5,217.4h-99c0,0,0,161.6,0,250.1c0,80,112.6,146.5,154,159c0,0-105.9-77.8-105.9-155.6
				s0-207.4,0-207.4h51v-46.1H339.5z"/>
			<path fill="#DD0000" d="M352.2,599.1c-15.1-8.8-31.2-19.8-45.7-32.1c-26.9-22.8-59-58.5-59-99.5V224.4h85v32h-51v214.5
				c0,34.1,18.4,71.7,54.8,111.7C341.6,588.5,347,594.1,352.2,599.1z"/>
			<path fill="#840001" d="M357.5,217.4c0,0,0,195.1,0,252.1c0,85.4,8.3,101,42,158.1c33.7-57,42-72.7,42-158.1
				c0-57,0-150.4,0-206.1h69c0,0,0,129.6,0,207.4S404.6,626.5,404.6,626.5c41.4-12.5,154-78.9,154-159c0-88.5,0-250.1,0-250.1H357.5
				z"/>
			<path fill="#BD0102" d="M399.5,613.8c-27.4-46.7-35-64.8-35-144.2V224.4h187.1v243.1c0,41-32.1,76.7-59,99.5
				c-14.6,12.3-30.6,23.3-45.7,32.1c5.2-5.1,10.6-10.6,16-16.6c36.4-40.1,54.8-77.6,54.8-111.7V256.4h-83.1v213.1
				C434.5,549,426.9,567,399.5,613.8z"/>
			<path fill="#DD0000" d="M399.5,224.4v389.4c-27.4-46.7-35-64.8-35-144.3V224.4H399.5z"/>
		</g>
	</g>
	<g>
		<g>
			<path fill="#FFFFFF" d="M215.6,165.9c1.2-5.6,4.5-10.1,9.8-13.4c7.1-4.4,13.7-5.3,19.9-2.6c3.5,1.5,6.1,3.6,7.9,6.1l-8.9,5.5
				c-1.8-1.7-3.5-2.8-5.1-3.3c-2.7-0.9-5.7-0.3-8.8,1.6c-3.2,2-4.9,4.8-5.1,8.6c-0.2,3.8,1.2,8,4.2,12.8s6.2,7.7,9.6,8.9
				c3.4,1.2,6.6,0.8,9.6-1c3.1-1.9,4.7-4.4,5.1-7.4c0.2-1.6-0.1-3.8-0.9-6.3l8.8-5.5c2.1,5.1,2.5,10.1,1.2,15s-4.4,8.8-9.3,11.9
				c-6.1,3.8-12,4.8-18,3c-5.9-1.8-11-6.1-15.3-13C215.8,179.4,214.2,172.4,215.6,165.9z"/>
			<path fill="#FFFFFF" d="M280.9,177.1l-20.5-45.8l9.5-4.3l7.8,17.5l17.8-8l-7.8-17.5l9.5-4.3l20.5,45.8l-9.5,4.3l-9.1-20.4
				l-17.8,8l9.1,20.4L280.9,177.1z"/>
			<path fill="#FFFFFF" d="M357.8,110.2l-26.1,5.1l2.1,10.5l23.9-4.7l1.7,8.6l-23.9,4.7l2.5,12.7l27.3-5.3l1.7,8.9l-37.3,7.3
				l-9.7-49.2l36.1-7.1L357.8,110.2z"/>
			<path fill="#FFFFFF" d="M377.3,98.2h11l19.9,35v-35h9.8v50.2h-10.5l-20.4-35.6v35.6h-9.8V98.2z"/>
			<path fill="#FFFFFF" d="M470.7,121.4c-0.5-3.5-2.3-6-5.2-7.6c-1.7-0.9-3.5-1.4-5.6-1.6c-4-0.3-7.5,0.9-10.3,3.8
				c-2.8,2.8-4.5,7.3-5,13.4c-0.5,6.1,0.6,10.6,3.2,13.4c2.6,2.8,5.7,4.3,9.3,4.6c3.5,0.3,6.5-0.5,8.9-2.3s4-4.4,4.8-7.6l-11.6-0.9
				l0.7-8.3l20.8,1.6l-2.1,26.8l-6.9-0.5l-0.6-6.3c-2.2,2.2-4.1,3.7-5.8,4.6c-2.9,1.5-6.4,2-10.4,1.7c-6.6-0.5-11.9-3.2-15.7-8.2
				c-4-5-5.8-11.4-5.1-19.4c0.6-8.1,3.4-14.4,8.2-18.9c4.8-4.5,10.9-6.5,18.3-5.9c6.4,0.5,11.3,2.5,14.9,6s5.5,7.7,5.7,12.6
				L470.7,121.4z"/>
			<path fill="#FFFFFF" d="M532.4,130.1c2.8,2.4,4.6,5.5,5.4,9.2c0.6,3,0.7,5.9,0.2,8.9c-0.5,2.9-1.3,5.6-2.3,8
				c-2.6,6.2-6,10.8-10.3,14.1c-5.8,4.4-12.1,5.1-19.1,2.1l-19.9-8.4l19.4-46.3l19.9,8.4C528.5,127.4,530.8,128.7,532.4,130.1z
				 M511.8,129.7l-12.7,30.2l8.9,3.7c4.6,1.9,8.7,1,12.4-2.7c2-2.1,3.7-4.8,5.2-8.2c2-4.7,2.7-8.6,2.3-11.8
				c-0.4-3.1-2.8-5.6-7.2-7.5L511.8,129.7z"/>
			<path fill="#FFFFFF" d="M563.8,144.5l8.4,6.6l-19,24.3c-2.1,2.7-3.4,4.9-3.7,6.7c-0.7,3,0.6,5.8,3.9,8.4c3.3,2.6,6.4,3.2,9.1,1.8
				c1.6-0.7,3.5-2.5,5.6-5.2l19-24.3l8.4,6.6l-19,24.3c-3.3,4.2-6.5,7-9.6,8.3c-5.8,2.4-12.1,0.9-18.9-4.4
				c-6.8-5.3-9.8-11.1-8.9-17.3c0.5-3.4,2.4-7.1,5.7-11.3L563.8,144.5z"/>
		</g>
		<g>
			<path fill="#FFFFFF" d="M192.5,557l6,7.7c1.5,2,2.1,3.9,1.6,5.8c-0.4,1.9-1.6,3.7-3.6,5.3c-1,0.8-2.1,1.4-3.4,1.7
				c-0.6,0.1-1.3,0.2-2,0.1c-0.7-0.1-1.5-0.2-2.3-0.5l-0.1,0.1c0.5,1.4,0.4,2.7-0.2,4.1c-0.7,1.4-1.7,2.6-3,3.6
				c-2.2,1.7-4.3,2.5-6.3,2.4c-2.1,0-3.8-0.8-5-2.4l-6.6-8.3L192.5,557z M191.5,562.6l-7.1,5.6l3.4,4.3c0.9,1.1,1.9,1.6,3,1.6
				s2.1-0.4,3.1-1.2s1.6-1.7,1.9-2.8c0.2-1-0.1-2.1-0.9-3.2L191.5,562.6z M181.1,570.8l-7.4,5.9l3.6,4.6c0.9,1.1,1.9,1.6,3.1,1.5
				c1.1-0.1,2.2-0.5,3.2-1.3s1.7-1.7,2-2.8s0-2.2-0.8-3.3L181.1,570.8z"/>
			<path fill="#FFFFFF" d="M205.9,574.1l11.2,11.5l-3.2,3.1l-8.6-8.8l-6.4,6.3l7.3,7.5l-3,3l-7.3-7.5l-6.6,6.4l8.6,8.8l-3.2,3.1
				L183.5,596L205.9,574.1z"/>
			<path fill="#FFFFFF" d="M223.2,596.1l-5.1-4.6l2.9-3.1l13,11.9l-2.9,3.1l-5.1-4.6l-18.3,20.1l-2.8-2.6L223.2,596.1z"/>
			<path fill="#FFFFFF" d="M240.1,610.2l-5.4-4.3l2.6-3.3l13.9,10.9l-2.6,3.3l-5.4-4.3L226.4,634l-3-2.4L240.1,610.2z"/>
			<path fill="#FFFFFF" d="M254.6,616l13.2,9.2l-2.6,3.7l-10.1-7l-5.1,7.4l8.6,6l-2.4,3.5l-8.6-6l-5.3,7.6l10.1,7l-2.6,3.7
				l-13.2-9.2L254.6,616z"/>
			<path fill="#FFFFFF" d="M271.9,627.7l8.8,4.5c1.9,1,3.1,2.3,3.6,4.2c0.7,2.1,0.4,4.5-0.8,7.1c-2,3.8-4.7,5.6-8.3,5.6l-1.1,15.1
				l-4-2.1l1.5-14.3l-4.3-2.2l-6.1,12l-3.4-1.7L271.9,627.7z M269,641.7l5.1,2.6c1.3,0.6,2.5,0.6,3.6,0.1s1.9-1.4,2.5-2.6
				c0.7-1.5,0.9-2.7,0.5-3.7c-0.3-0.9-1-1.6-2.1-2.1l-5.3-2.7L269,641.7z"/>
			<path fill="#FFFFFF" d="M309.5,667.8c-1.5,2.5-3.3,4.3-5.3,5.2s-4.1,1-6.1,0.2c-1.8-0.7-3.2-1.9-4-3.4c-0.9-1.5-1.3-3.1-1.4-4.6
				c0-0.5,0-1,0-1.4c0-0.5,0.1-1,0.3-1.7c0.3-1.2,1-3.6,2.3-6.9c1.3-3.4,2.2-5.7,2.8-6.8c0.6-1.1,1.2-1.9,1.8-2.5
				c1.1-1.1,2.4-2,4.1-2.6c1.6-0.6,3.4-0.6,5.3,0.1c2.3,0.9,3.8,2.4,4.6,4.6c0.8,2.2,0.9,4.6,0.4,7.2l-3.8-1.4
				c0.2-1.3,0-2.5-0.5-3.6s-1.3-1.9-2.5-2.3c-0.9-0.3-1.7-0.3-2.4-0.2c-0.8,0.2-1.5,0.5-2.1,1c-0.7,0.5-1.3,1.2-1.8,2.1
				c-0.6,1-1.4,2.9-2.5,5.8c-1.1,2.9-1.7,4.9-1.9,6c-0.2,1.1-0.2,2,0,2.8c0.2,0.7,0.5,1.4,0.9,2c0.4,0.7,1.1,1.2,1.9,1.5
				c2,0.7,4,0,6-2.3L309.5,667.8z"/>
			<path fill="#FFFFFF" d="M321.3,648.9l3.7,0.9l-7.1,30.7l-3.7-0.9L321.3,648.9z"/>
			<path fill="#FFFFFF" d="M336.6,656.9l-6.8-1.1l0.7-4.2l17.4,2.9l-0.7,4.2l-6.8-1.1l-4.4,26.9l-3.8-0.6L336.6,656.9z"/>
			<path fill="#FFFFFF" d="M358.5,676l-5.7-19.2l4,0.4l3.9,14.4l6.7-13.4l4,0.4l-9.4,17.7l-1.3,12.9l-3.6-0.4L358.5,676z"/>
			<path fill="#FFFFFF" d="M384.9,660.7H401v4.5h-12.3v9.3h10.5v4.2h-10.5v13.5h-3.8L384.9,660.7L384.9,660.7z"/>
			<path fill="#FFFFFF" d="M406.5,675.2c0-3.7,0.1-6.1,0.3-7.3c0.2-1.2,0.5-2.2,0.8-3c0.6-1.5,1.6-2.7,2.9-3.9s3-1.7,5-1.8
				c2,0,3.7,0.6,5,1.8c1.3,1.1,2.3,2.4,2.9,3.9c0.4,0.8,0.7,1.8,0.9,3c0.2,1.2,0.2,3.7,0.2,7.3s-0.1,6-0.2,7.3
				c-0.2,1.3-0.5,2.3-0.9,3c-0.6,1.5-1.5,2.7-2.9,3.8c-1.3,1.2-3,1.8-5,1.8c-2-0.1-3.6-0.7-5-1.8c-1.3-1.1-2.3-2.4-2.9-3.8
				c-0.2-0.5-0.4-0.9-0.5-1.4c-0.1-0.4-0.3-1-0.3-1.7C406.6,681.3,406.5,678.8,406.5,675.2z M410.3,675.2c0,3.1,0.1,5.2,0.3,6.3
				c0.2,1.1,0.5,2,1,2.7c0.4,0.6,0.9,1.2,1.6,1.6c0.6,0.5,1.4,0.7,2.3,0.7s1.7-0.2,2.4-0.7c0.6-0.4,1.1-0.9,1.5-1.6
				c0.5-0.7,0.8-1.6,1-2.7c0.2-1.1,0.3-3.2,0.3-6.3s-0.1-5.2-0.3-6.3c-0.2-1.1-0.5-1.9-1-2.6c-0.4-0.6-0.9-1.2-1.5-1.6
				c-0.7-0.4-1.5-0.6-2.4-0.7c-0.9,0-1.7,0.3-2.3,0.7c-0.7,0.4-1.2,1-1.6,1.6c-0.5,0.7-0.8,1.5-1,2.6
				C410.4,670,410.3,672.1,410.3,675.2z"/>
			<path fill="#FFFFFF" d="M432.6,673.7c-0.3-3.6-0.4-6.1-0.3-7.3s0.3-2.3,0.6-3.1c0.5-1.5,1.4-2.9,2.6-4.1c1.2-1.2,2.8-2,4.8-2.1
				s3.7,0.3,5.1,1.4c1.4,1,2.5,2.3,3.1,3.7c0.5,0.7,0.8,1.7,1.1,2.9c0.2,1.2,0.5,3.7,0.8,7.3s0.4,6,0.3,7.3s-0.3,2.3-0.7,3.1
				c-0.5,1.5-1.3,2.8-2.6,4c-1.2,1.2-2.9,2-4.9,2.2c-2,0.1-3.7-0.4-5.1-1.4s-2.5-2.2-3.2-3.6c-0.2-0.5-0.4-0.9-0.6-1.3
				c-0.2-0.4-0.3-1-0.5-1.7C433.1,679.7,432.9,677.3,432.6,673.7z M436.4,673.5c0.2,3.1,0.5,5.2,0.7,6.2c0.2,1.1,0.6,1.9,1.2,2.6
				c0.4,0.6,1,1.1,1.7,1.5s1.5,0.6,2.4,0.5s1.7-0.4,2.3-0.9c0.6-0.4,1.1-1,1.4-1.7c0.4-0.7,0.7-1.6,0.8-2.7c0.1-1.1,0-3.2-0.2-6.3
				s-0.5-5.2-0.7-6.3c-0.3-1-0.7-1.9-1.2-2.5c-0.4-0.6-1-1.1-1.6-1.5c-0.7-0.4-1.5-0.5-2.4-0.5c-0.9,0.1-1.6,0.4-2.3,0.8
				c-0.6,0.5-1.1,1.1-1.5,1.7c-0.4,0.7-0.7,1.6-0.8,2.7C436.2,668.3,436.2,670.4,436.4,673.5z"/>
			<path fill="#FFFFFF" d="M460.2,658.7l-6.8,1.2l-0.8-4.2l17.3-3.1l0.8,4.2l-6.8,1.2l4.8,26.8l-3.8,0.7L460.2,658.7z"/>
			<path fill="#FFFFFF" d="M473.3,650.2l9.3-3.1c2.4-0.8,4.4-0.6,6,0.5c1.7,1.1,2.9,2.8,3.7,5.2c0.4,1.2,0.6,2.5,0.5,3.8
				c-0.1,0.6-0.3,1.2-0.6,1.9c-0.3,0.7-0.7,1.3-1.3,2v0.1c1.4,0,2.7,0.5,3.8,1.6c1.1,1.1,1.9,2.5,2.4,4c0.8,2.6,0.9,4.8,0.1,6.8
				c-0.7,2-2,3.3-3.9,3.9l-10.1,3.4L473.3,650.2z M478.3,653l2.8,8.5l5.2-1.7c1.3-0.4,2.2-1.2,2.5-2.3c0.4-1,0.4-2.1,0-3.3
				s-1.1-2.1-2-2.7c-0.9-0.6-2-0.7-3.3-0.2L478.3,653z M482.5,665.6l3,9l5.6-1.9c1.3-0.5,2.2-1.3,2.5-2.4c0.3-1.1,0.3-2.2-0.1-3.4
				s-1.1-2.2-2-2.8c-0.9-0.7-2-0.8-3.4-0.3L482.5,665.6z"/>
			<path fill="#FFFFFF" d="M515.8,660.3L507,664l0.9,7.2l-3.7,1.5l-3.6-32.6l3-1.2l20.5,25.6l-3.7,1.5L515.8,660.3z M513.2,656.9
				l-8.6-11.3h-0.1l1.9,14.1L513.2,656.9z"/>
			<path fill="#FFFFFF" d="M515.1,633.9l3.3-1.9l13.4,23.4l10.6-6.1l2.2,3.9l-14,8L515.1,633.9z"/>
			<path fill="#FFFFFF" d="M532.1,624.1l3.2-2.1l14.7,22.6l10.3-6.7l2.5,3.8l-13.5,8.8L532.1,624.1z"/>
			<path fill="#FFFFFF" d="M585.3,614.1c1.4,2.6,2.1,5,1.9,7.2c-0.2,2.2-1.2,4-2.9,5.4c-1.6,1.2-3.2,1.8-5,1.8
				c-1.7,0-3.3-0.4-4.7-1.1c-0.4-0.2-0.9-0.5-1.3-0.7c-0.4-0.3-0.8-0.6-1.3-1.1c-0.9-0.9-2.6-2.7-4.9-5.4c-2.3-2.8-3.8-4.8-4.5-5.8
				c-0.6-1.1-1.1-2-1.3-2.8c-0.5-1.5-0.5-3.1-0.2-4.9c0.3-1.7,1.2-3.2,2.7-4.5c1.9-1.5,4-2.1,6.3-1.7c2.3,0.4,4.5,1.5,6.5,3.2
				l-3.1,2.6c-1-0.8-2.2-1.2-3.4-1.4c-1.2-0.1-2.3,0.2-3.2,1c-0.7,0.6-1.1,1.3-1.4,2c-0.2,0.8-0.3,1.5-0.2,2.3s0.4,1.7,0.9,2.6
				c0.6,1,1.9,2.7,3.8,5s3.4,3.9,4.2,4.7c0.8,0.7,1.6,1.2,2.5,1.4c0.7,0.2,1.5,0.3,2.2,0.2c0.8,0,1.5-0.4,2.2-0.9
				c1.6-1.4,2-3.5,1-6.4L585.3,614.1z"/>
			<path fill="#FFFFFF" d="M574.9,594.4l2.6-2.8l19.5,18.6l8.5-8.9l3.3,3.1L597.7,616L574.9,594.4z"/>
			<path fill="#FFFFFF" d="M588.7,580.8l2.5-2.9l15.4,13.2c1.6,1.4,3.2,2.1,4.7,2.1c1.5,0.1,2.8-0.5,3.7-1.6s1.3-2.4,1.1-3.9
				c-0.2-1.4-1.2-2.9-2.8-4.3l-15.4-13.2l2.5-2.9l15.8,13.6c2.5,2.2,3.9,4.6,4.3,7.1c0.4,2.6-0.2,4.9-1.9,6.8
				c-1.7,1.9-3.8,2.8-6.4,2.8c-2.6,0-5.2-1-7.7-3.2L588.7,580.8z"/>
			<path fill="#FFFFFF" d="M604.3,561.8l6.1-7.6c1.6-1.9,3.3-2.9,5.3-2.9s4,0.8,6,2.3c1,0.8,1.8,1.8,2.4,2.9
				c0.3,0.6,0.5,1.2,0.5,1.9c0.1,0.7,0.1,1.5,0,2.3l0.1,0.1c1.2-0.8,2.6-1,4-0.8c1.5,0.4,2.9,1,4.2,2.1c2.1,1.7,3.4,3.6,3.8,5.6
				c0.5,2.1,0.1,3.9-1.1,5.4l-6.6,8.3L604.3,561.8z M610,561.5l7,5.6l3.4-4.3c0.9-1.1,1.2-2.2,0.9-3.3c-0.2-1-0.9-2-1.8-2.7
				c-1-0.8-2-1.2-3.1-1.2s-2,0.5-2.9,1.6L610,561.5z M620.3,569.7l7.4,5.9l3.7-4.6c0.9-1.1,1.1-2.2,0.8-3.3s-1-2-2-2.8
				s-2.1-1.2-3.2-1.3c-1.1-0.1-2.1,0.5-3,1.6L620.3,569.7z"/>
		</g>
	</g>
</g>
</svg>
