<?xml version="1.0" encoding="UTF-8"?>
<svg data-name="图层_1" xmlns="http://www.w3.org/2000/svg" version="1.1" viewBox="0 0 800 800">
  <!-- Created by @FCLOGO 2025-1-9 GMT+8 10:42:11 . https://fclogo.top/ -->
<!-- FOR PERSONAL USE ONLY NOT FOR COMMERCIAL USE -->
  <path d="M348.2194,774.301c-.786,0-1.3752-.2173-1.7682-.6519-.393-.4352-.5284-1.03-.406-1.7856l.2518-1.6478c.122-.755.4501-1.3504.9841-1.785.5339-.4352,1.1939-.6525,1.9799-.6525.7553,0,1.3293.1987,1.7223.5954.3927.3967.551.9381.4747,1.6248h-1.2358c.0304-.3589-.0553-.637-.2573-.8357-.2024-.1981-.4979-.2974-.8869-.2974-.4197,0-.763.1167-1.03.3489-.2673.2328-.4349.5631-.5035.9903l-.2632,1.659c-.0686.4352-.0056.7686.1887,1.0015.1946.2328.5017.3489.9214.3489.389,0,.7152-.0987.9785-.2974.2632-.1981.4365-.4805.5206-.8469h1.2358c-.1372.6867-.4672,1.2306-.9897,1.631-.5228.4005-1.1616.6004-1.9169.6004ZM352.7967,774.1868l.9956-6.2943h1.1902l-.1946,1.1902c.3359-.8698.9729-1.3044,1.9113-1.3044.6712,0,1.1691.208,1.4932.624.3244.416.4293.9859.3148,1.7105l-.0686.4234h-1.2703l.0571-.3204c.0689-.4501.0115-.7953-.1714-1.0356-.1832-.2403-.4771-.3607-.8813-.3607-.4045,0-.7401.1223-1.007.3663-.2673.2446-.4349.588-.5035,1.03l-.6296,3.9711h-1.2358ZM361.9058,774.301c-.7705,0-1.3463-.2229-1.7279-.6693s-.515-1.0356-.4005-1.7682l.2518-1.6478c.0838-.488.2573-.9152.5206-1.2815s.6007-.6507,1.0129-.8524c.4119-.2024.8732-.3036,1.3845-.3036.7705,0,1.3485.2235,1.7338.6693.3852.4464.5169,1.0356.3949,1.7682l-.1717,1.1213h-3.845l-.0916.5265c-.1527.9536.2173,1.4305,1.1098,1.4305.7171,0,1.175-.2477,1.3734-.7438h1.2247c-.1679.5339-.5035.9599-1.007,1.2759-.5038.3166-1.0912.475-1.7626.475ZM361.2306,770.2157l-.0456.2862,2.6548-.0118.0459-.2856c.0686-.4656.0133-.822-.1661-1.0704-.1791-.2477-.4861-.3719-.9211-.3719-.4427,0-.7953.126-1.0586.3775-.2632.2521-.4331.6109-.5094,1.076ZM368.3258,774.301c-.6333,0-1.1027-.2117-1.4078-.6351s-.3967-1.0008-.2744-1.7335l.2744-1.7738c.1145-.7326.393-1.3119.8357-1.7397.4424-.4272.98-.6407,1.6133-.6407.4653,0,.8298.1186,1.093.3545.2632.2365.3908.5575.3834.9617h.023l.1717-1.202h1.2358l-.9956,6.2943h-1.2247l.1946-1.2014h-.023c-.122.4116-.3511.7339-.6867.9667s-.7401.3489-1.2129.3489ZM368.9324,773.2257c.389,0,.7152-.1186.9782-.3551.2632-.2359.4293-.5718.4979-1.007l.2518-1.6478c.0686-.4272.0096-.7612-.1773-1.0015-.1872-.2403-.475-.3601-.8642-.3601-.3967,0-.7249.118-.9841.3545-.2595.2365-.4234.5724-.492,1.007l-.2518,1.6478c-.0686.4427-.0133.7804.1658,1.0133.1794.2328.4712.3489.8757.3489ZM376.3477,774.1868c-.5721,0-.9937-.1565-1.2644-.4694-.271-.3123-.3607-.7512-.2691-1.3156l.538-3.3874h-1.7394l.1714-1.1219h1.7397l.2747-1.7161h1.2358l-.2747,1.7161h2.472l-.1832,1.1219h-2.4605l-.5377,3.3874c-.0764.4421.099.6637.5262.6637h1.7167l-.1717,1.1213h-1.7738ZM382.5042,774.301c-.7705,0-1.3463-.2229-1.7279-.6693s-.515-1.0356-.4005-1.7682l.2518-1.6478c.0838-.488.2573-.9152.5206-1.2815s.6007-.6507,1.0129-.8524c.4119-.2024.8732-.3036,1.3845-.3036.7705,0,1.3485.2235,1.7338.6693.3852.4464.5169,1.0356.3949,1.7682l-.1717,1.1213h-3.845l-.0916.5265c-.1527.9536.2173,1.4305,1.1098,1.4305.7171,0,1.175-.2477,1.3734-.7438h1.2247c-.1679.5339-.5035.9599-1.007,1.2759-.5038.3166-1.0912.475-1.7626.475ZM381.829,770.2157l-.0456.2862,2.6548-.0118.0459-.2856c.0686-.4656.0133-.822-.1661-1.0704-.1791-.2477-.4861-.3719-.9211-.3719-.4427,0-.7953.126-1.0586.3775-.2632.2521-.4331.6109-.5094,1.076ZM388.9243,774.301c-.6333,0-1.1008-.2117-1.4019-.6351-.3014-.4234-.3949-1.0008-.2803-1.7335l.2744-1.7738c.1145-.7326.393-1.3119.8357-1.7397.4424-.4272.98-.6407,1.6133-.6407.4653,0,.8298.1186,1.093.3545.2632.2365.3908.5575.3834.9617h.023l.2058-1.4652.2977-1.7962h1.2358l-1.3274,8.3537h-1.2247l.1946-1.2014h-.023c-.122.4116-.3511.7339-.6867.9667s-.7401.3489-1.2129.3489ZM389.5309,773.2257c.389,0,.7152-.1186.9782-.3551.2632-.2359.4293-.5718.4979-1.007l.2518-1.6478c.0761-.4272.0189-.7612-.1717-1.0015-.1909-.2403-.4805-.3601-.8698-.3601-.3967,0-.7249.118-.9841.3545-.2595.2365-.4234.5724-.492,1.007l-.2518,1.6478c-.0764.4427-.023.7804.1602,1.0133s.4768.3489.8813.3489ZM401.0175,774.301c-.4731,0-.8394-.1161-1.0986-.3489-.2595-.2328-.3852-.5551-.3775-.9667h-.0115l-.1946,1.2014h-1.2243l1.3274-8.3537h1.2358l-.2862,1.7962-.2744,1.4652h.0456c.122-.4123.353-.7345.6923-.9673.3396-.2322.7419-.3489,1.2076-.3489.633,0,1.1002.2136,1.4016.6407.3014.4278.3949,1.007.2806,1.7397l-.2747,1.7738c-.1145.7326-.3949,1.31-.8413,1.7335-.4461.4234-.9822.6351-1.6077.6351ZM400.7657,773.2257c.3967,0,.7227-.1161.9785-.3489.2555-.2328.4216-.5706.4976-1.0133l.2518-1.6478c.0689-.4346.0115-.7705-.1714-1.007-.1832-.2365-.4734-.3545-.8698-.3545-.3893,0-.7152.1198-.9785.3601s-.429.5743-.4979,1.0015l-.2518,1.6478c-.0686.4352-.0112.7711.1717,1.007.1832.2365.4731.3551.8698.3551ZM405.4694,776.2468l.1717-1.0642h1.934c.6407,0,1.007-.3017,1.0986-.9046l.1028-.6749.2061-1.1902h-.0345c-.122.4197-.3471.7438-.6752.9729-.3281.2285-.7286.3433-1.2014.3433-.6258,0-1.093-.2005-1.4019-.601s-.4104-.9443-.3033-1.631l.5836-3.6047h1.2358l-.5606,3.4793c-.0612.4116,0,.732.1832.9611s.4653.3433.8469.3433c.389,0,.7168-.1217.9841-.3663.267-.244.4309-.5836.492-1.0182l.538-3.3992h1.2358l-1.007,6.4086c-.0993.6029-.37,1.0778-.8124,1.4249-.4427.3471-.9996.5209-1.6707.5209h-1.9455ZM417.787,770.0853h3.221l.5368-1.8545h-5.4659l-1.7081,6.4419h2.1473l.5856-2.0985h3.0257l.4392-1.7081h-3.0257l.244-.7808ZM424.229,772.9158c-.5856,0-1.0249-.3904-1.0249-1.1225,0-.8784.6344-1.7569,1.6105-1.7569.488,0,.8784.244,1.0248.7808l1.9521-.8296c-.2928-1.1713-1.2689-1.9033-2.6353-1.9033-2.7817,0-4.1482,2.1473-4.1482,3.9042s1.2689,2.8305,3.0746,2.8305c1.3665,0,2.3425-.5856,2.9769-1.4153l-1.5129-1.1713c-.3904.4392-.8296.6832-1.3177.6832ZM430.9149,768.2308h-2.1473l-1.7569,6.4419h5.1242l.488-1.8545h-2.9281l1.2201-4.5874ZM439.7481,771.0125c0-1.6593-1.3177-2.9281-3.221-2.9281-2.1961,0-3.8066,1.8057-3.8066,3.8066,0,1.6593,1.3177,2.9281,3.221,2.9281,2.1961,0,3.8066-1.8057,3.8066-3.8066ZM434.9167,771.6957c0-.8296.5856-1.7081,1.5129-1.7081.7808,0,1.1713.5368,1.1713,1.2201,0,.8296-.5856,1.7081-1.5129,1.7081-.7808,0-1.1713-.5368-1.1713-1.2201ZM443.2131,772.2326h1.0737l-.1952.6832c-.1464.0488-.3416.0976-.5856.0976-.6832,0-1.2689-.3904-1.2689-1.2201,0-1.0249.732-1.9033,1.9521-1.9033.5856,0,1.1225.244,1.5129.5856l1.3665-1.3665c-.4392-.5368-1.5129-1.0737-2.7329-1.0737-2.5865,0-4.2946,1.7569-4.2946,3.8554,0,2.0497,1.6105,2.8793,3.221,2.8793.9272,0,1.8545-.2928,2.4889-.6832l.9272-3.3186h-3.1234l-.3416,1.4641ZM450.7775,768.0844c-2.1961,0-3.8066,1.8057-3.8066,3.8066,0,1.6593,1.3177,2.9281,3.221,2.9281,2.1961,0,3.8066-1.8057,3.8066-3.8066,0-1.6593-1.3177-2.9281-3.221-2.9281ZM450.3382,772.9158c-.7808,0-1.1713-.5368-1.1713-1.2201,0-.8296.5856-1.7081,1.5129-1.7081.7808,0,1.1713.5368,1.1713,1.2201,0,.8296-.5856,1.7081-1.5129,1.7081ZM437.9424,767.4987c-.0488.2928.0976.488.4392.488s.5368-.1952.6344-.488c.0488-.244-.0976-.488-.4392-.488s-.5856.244-.6344.488ZM432.1349,765.4978c-.4392,0-.732.244-.7808.5856s.0976.5856.5368.5856.732-.244.7808-.5856c.0976-.3416-.0976-.5856-.5368-.5856ZM433.0134,767.3035c-.0976.5368.1464.8784.8296.8784.6344,0,1.0737-.3904,1.1713-.8784s-.1464-.8784-.8296-.8784c-.6832,0-1.0737.3904-1.1713.8784ZM439.6017,777.552l-2.4401-1.8057h-1.5129l4.2458,3.1722,1.6105-3.1722h-.976l-.9272,1.8057ZM425.8394,767.1571l-2.0009-1.4641,23.1323-2.7817-2.1473,4.2458h1.0248l2.6841-5.3195-26.9877,3.221,2.7817,2.0985h1.5129ZM338.7186,785.7853l.6088-3.8315h2.32l-.084.5194h-1.7636l-.1837,1.1445h1.6272l-.084.5248h-1.6166l-.2573,1.6428h-.5668ZM342.97,785.8377c-.3568,0-.6228-.1005-.7978-.3019-.175-.201-.2345-.473-.1784-.8161l.2677-1.7006c.056-.3429.2029-.6148.4408-.8161.2379-.201.5355-.3019.8923-.3019s.6228.1.7979.2993c.1748.1993.2361.4707.1837.8136l-.2677,1.7057c-.0561.3431-.2039.6151-.4435.8161-.2398.2013-.5381.3019-.895.3019ZM343.0487,785.3339c.1925,0,.3483-.0524.4672-.1575.119-.1051.1942-.2571.2257-.4568l.2678-1.7006c.0315-.1993.0051-.3517-.0787-.4565-.084-.1051-.2223-.1575-.4148-.1575s-.3473.0524-.4645.1575c-.1173.1048-.1916.2571-.2231.4565l-.2677,1.7006c-.0315.1996-.0053.3517.0787.4568s.2204.1575.4094.1575ZM344.9961,785.7853l.6088-3.8315h1.202c.2379,0,.4391.0464.6036.139.1645.0928.2835.223.357.391s.091.3656.0524.5932c-.0384.2591-.14.4838-.3044.6746-.1645.1905-.3656.3209-.6036.391l.5354,1.6428h-.6194l-.4777-1.5748h-.5406l-.2466,1.5748h-.5668ZM345.8883,783.7068h.6352c.1889,0,.349-.0558.4803-.168.1313-.1119.2107-.2623.2388-.4514.0316-.1925,0-.3454-.0944-.4593-.0945-.1136-.2362-.1706-.4252-.1706h-.6352l-.1995,1.2493ZM349.545,785.7853l.6088-3.8315h1.2544c.3709,0,.6508.1048.8399.315.1889.2099.2553.4898.1993.8398-.0384.2344-.1216.4383-.2493.6114s-.2905.307-.4881.4015c-.1978.0945-.419.1418-.6639.1418h-.6928l-.2415,1.5221h-.5668ZM350.432,783.754h.6928c.1924,0,.3568-.0587.4934-.176.1364-.117.2204-.2737.2519-.4696s-.0017-.3525-.0997-.4699-.245-.1757-.441-.1757h-.6876l-.2099,1.2911ZM352.7466,785.7853l.6088-3.8315h2.2518l-.0787.5038h-1.6954l-.1731,1.0867h1.5115l-.0787.4986h-1.5115l-.1942,1.2387h1.6901l-.0787.5038h-2.2518ZM355.8434,785.7853l.6088-3.8315h1.202c.2379,0,.4391.0464.6036.139.1645.0928.2835.223.357.391s.091.3656.0524.5932c-.0384.2591-.14.4838-.3044.6746-.1645.1905-.3656.3209-.6036.391l.5354,1.6428h-.6194l-.4777-1.5748h-.5406l-.2466,1.5748h-.5668ZM356.7356,783.7068h.6352c.1889,0,.349-.0558.4803-.168.1313-.1119.2107-.2623.2388-.4514.0316-.1925,0-.3454-.0944-.4593-.0945-.1136-.2362-.1706-.4252-.1706h-.6352l-.1995,1.2493ZM360.1316,785.8377c-.385,0-.6736-.0951-.8661-.2859-.1924-.1908-.2641-.4505-.2151-.7794h.5668c-.028.1748.0105.3121.1155.4121.1051.0997.266.1495.483.1495.2029,0,.3701-.049.5012-.1469.1313-.098.2109-.2327.2389-.4044.0209-.1504.0007-.2788-.0604-.3856-.0614-.1068-.1583-.1811-.2913-.2233l-.4566-.1364c-.266-.0803-.4619-.217-.5879-.4095-.126-.1922-.1697-.4197-.1313-.6823.035-.2099.1121-.3935.2309-.551s.2729-.2799.4619-.3673.4024-.1313.6404-.1313c.3498,0,.6158.0954.7978.2859.182.1908.2485.4437.1995.7586h-.5668c.0279-.168-.0027-.3001-.092-.3964-.0891-.0963-.2301-.1444-.4225-.1444-.1889,0-.343.0447-.4619.1338-.119.0894-.1889.2144-.21.3753-.0245.1506-.007.2791.0525.3859s.1575.1811.2939.223l.4672.1469c.2624.0806.4558.2173.5801.4095.1242.1925.1653.4217.1233.6877-.035.217-.1155.4058-.2415.5667-.1259.1612-.2878.2862-.4855.3753-.1976.0894-.419.1338-.6639.1338ZM363.2651,785.8377c-.3568,0-.6228-.1005-.7978-.3019-.175-.201-.2345-.473-.1784-.8161l.2677-1.7006c.056-.3429.2029-.6148.4408-.8161.2379-.201.5355-.3019.8923-.3019s.6228.1.7979.2993c.1748.1993.2361.4707.1837.8136l-.2677,1.7057c-.0561.3431-.2039.6151-.4435.8161-.2398.2013-.5381.3019-.895.3019ZM363.3439,785.3339c.1925,0,.3483-.0524.4672-.1575.119-.1051.1942-.2571.2257-.4568l.2678-1.7006c.0315-.1993.0051-.3517-.0787-.4565-.084-.1051-.2223-.1575-.4148-.1575s-.3473.0524-.4645.1575c-.1173.1048-.1916.2571-.2231.4565l-.2677,1.7006c-.0315.1996-.0053.3517.0787.4568s.2204.1575.4094.1575ZM365.2754,785.7853l.6088-3.8315h.7086l.6194,3.186c.007-.098.0165-.217.0289-.3571.0121-.1398.0271-.2851.0446-.4354.0175-.1506.0367-.2888.0577-.4146l.315-1.9788h.525l-.609,3.8315h-.7085l-.6141-3.186c-.0071.0945-.0167.209-.0289.3437s-.0272.2757-.0446.4226c-.0177.1469-.0367.2833-.0578.4095l-.315,2.0102h-.5301ZM368.2252,785.7853l1.5851-3.8315h.7454l.3726,3.8315h-.5616l-.0735-.9711h-1.0865l-.3884.9711h-.5932ZM369.3852,784.3418h.8714l-.0893-1.1023c-.0175-.1959-.0298-.3654-.0367-.5089-.0071-.1435-.0105-.2432-.0105-.2993-.0175.0561-.0517.1558-.1024.2993s-.1146.3112-.1915.5038l-.441,1.1075ZM371.7208,785.7853l.6088-3.8315h.567l-.525,3.3118h1.6744l-.0787.5197h-2.2465ZM376.6785,785.8377c-.3673,0-.6342-.1005-.8003-.3019-.1663-.201-.2214-.475-.1654-.8213l.4357-2.7608h.567l-.4357,2.7554c-.0315.1962-.008.35.0708.4619.0787.1122.2144.168.4068.168.1925,0,.3473-.0558.4646-.168.1172-.1119.1915-.2657.2231-.4619l.4355-2.7554h.567l-.4357,2.7608c-.056.35-.2003.6245-.433.8241-.2328.1993-.5328.299-.9003.299ZM379.8435,785.8377c-.385,0-.6736-.0951-.8661-.2859-.1924-.1908-.2641-.4505-.2151-.7794h.5668c-.028.1748.0105.3121.1155.4121.1051.0997.266.1495.483.1495.2029,0,.3701-.049.5012-.1469.1313-.098.2109-.2327.2389-.4044.0209-.1504.0007-.2788-.0604-.3856-.0614-.1068-.1583-.1811-.2913-.2233l-.4566-.1364c-.266-.0803-.4619-.217-.5879-.4095-.126-.1922-.1697-.4197-.1313-.6823.035-.2099.1121-.3935.2309-.551s.2729-.2799.4619-.3673.4024-.1313.6404-.1313c.3498,0,.6158.0954.7978.2859.182.1908.2485.4437.1995.7586h-.5668c.0279-.168-.0027-.3001-.092-.3964-.0891-.0963-.2301-.1444-.4225-.1444-.1889,0-.343.0447-.4619.1338-.119.0894-.1889.2144-.21.3753-.0245.1506-.007.2791.0525.3859s.1575.1811.2939.223l.4672.1469c.2624.0806.4558.2173.5801.4095.1242.1925.1653.4217.1233.6877-.035.217-.1155.4058-.2415.5667-.1259.1612-.2878.2862-.4855.3753-.1976.0894-.419.1338-.6639.1338ZM381.9062,785.7853l.6088-3.8315h2.2518l-.0787.5038h-1.6954l-.1731,1.0867h1.5115l-.0787.4986h-1.5115l-.1942,1.2387h1.6901l-.0787.5038h-2.2518ZM386.9426,785.8377c-.3568,0-.6228-.1005-.7978-.3019-.175-.201-.2345-.473-.1784-.8161l.2677-1.7006c.056-.3429.2029-.6148.4408-.8161.2379-.201.5355-.3019.8923-.3019s.6228.1.7979.2993c.1748.1993.2361.4707.1837.8136l-.2677,1.7057c-.0561.3431-.2039.6151-.4435.8161-.2398.2013-.5381.3019-.895.3019ZM387.0213,785.3339c.1925,0,.3483-.0524.4672-.1575.119-.1051.1942-.2571.2257-.4568l.2678-1.7006c.0315-.1993.0051-.3517-.0787-.4565-.084-.1051-.2223-.1575-.4148-.1575s-.3473.0524-.4645.1575c-.1173.1048-.1916.2571-.2231.4565l-.2677,1.7006c-.0315.1996-.0053.3517.0787.4568s.2204.1575.4094.1575ZM388.9529,785.7853l.6088-3.8315h.7086l.6194,3.186c.007-.098.0165-.217.0289-.3571.0121-.1398.0271-.2851.0446-.4354.0175-.1506.0367-.2888.0577-.4146l.315-1.9788h.525l-.609,3.8315h-.7085l-.6141-3.186c-.0071.0945-.0167.209-.0289.3437s-.0272.2757-.0446.4226c-.0177.1469-.0367.2833-.0578.4095l-.315,2.0102h-.5301ZM392.249,785.7853l.6088-3.8315h.567l-.525,3.3118h1.6744l-.0787.5197h-2.2465ZM396.1174,785.7853l.2204-1.4119-.7506-2.4197h.5774l.4462,1.4486c.0279.0945.0498.1837.0656.2677.0157.084.0253.1469.0288.1888.0175-.0419.0464-.1048.0867-.1888.0402-.084.0883-.1731.1442-.2677l.8976-1.4486h.5984l-1.5275,2.4197-.2204,1.4119h-.5668ZM399.217,785.7853l.6088-3.8315h.7086l.6192,3.186c.0071-.098.0165-.217.029-.3571.012-.1398.0271-.2851.0444-.4354.0177-.1506.037-.2888.0578-.4146l.315-1.9788h.5248l-.6088,3.8315h-.7085l-.6141-3.186c-.0071.0945-.0167.209-.0289.3437s-.0272.2757-.0446.4226c-.0177.1469-.0367.2833-.0578.4095l-.315,2.0102h-.5301ZM403.5053,785.8377c-.3571,0-.6231-.1005-.7979-.3019-.1751-.201-.2344-.473-.1785-.8161l.2677-1.7006c.0561-.3429.203-.6148.4411-.8161.2378-.201.5354-.3019.8922-.3019.3571,0,.6228.1.7979.2993.1748.1993.2361.4707.1837.8136l-.2677,1.7057c-.0561.3431-.2039.6151-.4437.8161-.2395.2013-.5379.3019-.8947.3019ZM403.5839,785.3339c.1925,0,.3483-.0524.4673-.1575.1187-.1051.1942-.2571.2255-.4568l.2677-1.7006c.0316-.1993.0054-.3517-.0786-.4565-.084-.1051-.2224-.1575-.4146-.1575-.1925,0-.3474.0524-.4647.1575-.117.1048-.1914.2571-.223.4565l-.2677,1.7006c-.0316.1996-.0051.3517.0789.4568.0837.1051.2204.1575.4092.1575ZM406.3814,785.7853l.5248-3.3121h-1.0234l.084-.5194h2.6193l-.084.5194h-1.0289l-.5248,3.3121h-.567ZM409.5178,785.7853l.6088-3.8315h2.32l-.084.5194h-1.7636l-.1837,1.1445h1.6272l-.084.5248h-1.6166l-.2571,1.6428h-.567ZM413.7694,785.8377c-.3571,0-.6231-.1005-.7979-.3019-.1751-.201-.2344-.473-.1785-.8161l.2677-1.7006c.0561-.3429.203-.6148.4411-.8161.2378-.201.5354-.3019.8922-.3019.3571,0,.6228.1.7979.2993.1748.1993.2361.4707.1837.8136l-.2677,1.7057c-.0561.3431-.2039.6151-.4437.8161-.2395.2013-.5379.3019-.8947.3019ZM413.848,785.3339c.1925,0,.3483-.0524.4673-.1575.1187-.1051.1942-.2571.2255-.4568l.2677-1.7006c.0316-.1993.0054-.3517-.0786-.4565-.084-.1051-.2224-.1575-.4146-.1575-.1925,0-.3474.0524-.4647.1575-.117.1048-.1914.2571-.223.4565l-.2677,1.7006c-.0316.1996-.0051.3517.0789.4568.0837.1051.2204.1575.4092.1575ZM415.7952,785.7853l.6088-3.8315h1.202c.2381,0,.4391.0464.6037.139.1643.0928.2833.223.3568.391s.0911.3656.0527.5932c-.0387.2591-.1401.4838-.3044.6746-.1646.1905-.3659.3209-.6037.391l.5354,1.6428h-.6194l-.4776-1.5748h-.5408l-.2466,1.5748h-.567ZM416.6876,783.7068h.635c.1891,0,.3491-.0558.4804-.168.131-.1119.2107-.2623.2386-.4514.0316-.1925,0-.3454-.0945-.4593-.0943-.1136-.2361-.1706-.4252-.1706h-.635l-.1993,1.2493ZM420.905,785.8377c-.3602,0-.6308-.1005-.8107-.3019-.1803-.201-.2423-.473-.1865-.8161l.2677-1.7006c.0561-.3463.2056-.6194.4488-.8187s.545-.2993.9056-.2993c.3568,0,.6253.1008.8056.3019.1803.2013.2423.4733.1865.8161h-.567c.0313-.1993.0026-.3517-.0866-.4565-.0894-.1051-.2284-.1575-.4175-.1575-.1925,0-.3508.0524-.475.1575-.1242.1048-.2019.2554-.2335.4514l-.2677,1.7057c-.0316.1996-.0026.3517.0866.4568.0894.1051.2301.1575.4226.1575s.35-.0524.4724-.1575.1993-.2571.2309-.4568h.5667c-.0347.2275-.1145.4252-.2386.5932s-.2808.2976-.4699.3884c-.1888.0908-.4024.1364-.6404.1364ZM424.0335,785.8377c-.3571,0-.6231-.1005-.7979-.3019-.1751-.201-.2344-.473-.1785-.8161l.2677-1.7006c.0561-.3429.203-.6148.4411-.8161.2378-.201.5354-.3019.8922-.3019.3571,0,.6228.1.7979.2993.1748.1993.2361.4707.1837.8136l-.2677,1.7057c-.0561.3431-.2039.6151-.4437.8161-.2395.2013-.5379.3019-.8947.3019ZM424.1121,785.3339c.1925,0,.3483-.0524.4673-.1575.1187-.1051.1942-.2571.2255-.4568l.2677-1.7006c.0316-.1993.0054-.3517-.0786-.4565-.084-.1051-.2224-.1575-.4146-.1575-.1925,0-.3474.0524-.4647.1575-.117.1048-.1914.2571-.223.4565l-.2677,1.7006c-.0316.1996-.0051.3517.0789.4568.0837.1051.2204.1575.4092.1575ZM425.9653,785.7853l.6088-3.8315h.6874l.1837,1.2282c.0211.119.0367.2301.0473.3332.0105.1034.0194.1828.0262.2389.0177-.0561.0473-.1364.0894-.2415.0419-.1051.0908-.217.1469-.336l.5667-1.2228h.7088l-.6088,3.8315h-.5354l.2045-1.2911c.0245-.168.0578-.3525.1-.5539.0419-.201.0874-.4041.1364-.6088s.0963-.3998.1418-.5852c.0453-.1854.0874-.3483.1259-.4881l-.8554,1.8632h-.5513l-.2833-1.8632c-.0037.1364-.0105.2947-.0211.475s-.0236.3719-.0393.5747c-.0157.203-.035.4069-.0578.6114-.0228.2047-.0481.3964-.076.5749l-.2047,1.2911h-.5405ZM429.1145,785.7853l.6088-3.8315h.6874l.1837,1.2282c.0211.119.0367.2301.0473.3332.0105.1034.0194.1828.0262.2389.0177-.0561.0473-.1364.0894-.2415.0419-.1051.0908-.217.1469-.336l.5667-1.2228h.7088l-.6088,3.8315h-.5354l.2045-1.2911c.0245-.168.0578-.3525.1-.5539.0419-.201.0874-.4041.1364-.6088s.0963-.3998.1418-.5852c.0453-.1854.0874-.3483.1259-.4881l-.8554,1.8632h-.5513l-.2833-1.8632c-.0037.1364-.0105.2947-.0211.475s-.0236.3719-.0393.5747c-.0157.203-.035.4069-.0578.6114-.0228.2047-.0481.3964-.076.5749l-.2047,1.2911h-.5405ZM432.4107,785.7853l.6088-3.8315h2.2516l-.0786.5038h-1.6955l-.1731,1.0867h1.5115l-.0786.4986h-1.5118l-.1942,1.2387h1.6901l-.0786.5038h-2.2516ZM435.5073,785.7853l.6088-3.8315h1.202c.2381,0,.4391.0464.6037.139.1643.0928.2833.223.3568.391s.0911.3656.0527.5932c-.0387.2591-.1401.4838-.3044.6746-.1646.1905-.3659.3209-.6037.391l.5354,1.6428h-.6194l-.4776-1.5748h-.5408l-.2466,1.5748h-.567ZM436.3997,783.7068h.635c.1891,0,.3491-.0558.4804-.168.131-.1119.2107-.2623.2386-.4514.0316-.1925,0-.3454-.0945-.4593-.0943-.1136-.2361-.1706-.4252-.1706h-.635l-.1993,1.2493ZM439.8007,785.8377c-.3602,0-.6308-.1005-.8107-.3019-.1803-.201-.2423-.473-.1865-.8161l.2677-1.7006c.0561-.3463.2056-.6194.4488-.8187s.545-.2993.9056-.2993c.3568,0,.6253.1008.8056.3019.1803.2013.2423.4733.1865.8161h-.567c.0313-.1993.0026-.3517-.0866-.4565-.0894-.1051-.2284-.1575-.4175-.1575-.1925,0-.3508.0524-.475.1575-.1242.1048-.2019.2554-.2335.4514l-.2677,1.7057c-.0316.1996-.0026.3517.0866.4568.0894.1051.2301.1575.4226.1575s.35-.0524.4724-.1575.1993-.2571.2309-.4568h.5667c-.0347.2275-.1145.4252-.2386.5932s-.2808.2976-.4699.3884c-.1888.0908-.4024.1364-.6404.1364ZM441.8792,785.7853l.0789-.5038h.7768l.4459-2.824h-.7766l.0837-.5038h2.1258l-.084.5038h-.7766l-.4462,2.824h.7768l-.0789.5038h-2.1258ZM444.7399,785.7853l1.585-3.8315h.7452l.3728,3.8315h-.5616l-.0735-.9711h-1.0867l-.3884.9711h-.5929ZM445.8998,784.3418h.8714l-.0894-1.1023c-.0174-.1959-.0296-.3654-.0367-.5089-.0068-.1435-.0103-.2432-.0103-.2993-.0177.0561-.0518.1558-.1025.2993s-.1148.3112-.1916.5038l-.4408,1.1075ZM448.2354,785.7853l.6088-3.8315h.567l-.5248,3.3118h1.6741l-.0786.5197h-2.2465ZM453.1932,785.8377c-.3676,0-.6345-.1005-.8005-.3019-.1663-.201-.2213-.475-.1654-.8213l.4357-2.7608h.567l-.4357,2.7554c-.0316.1962-.008.35.0709.4619.0786.1122.2141.168.4066.168s.3474-.0558.4645-.168c.1173-.1119.1916-.2657.2233-.4619l.4357-2.7554h.5667l-.4357,2.7608c-.0558.35-.2002.6245-.4328.8241-.2329.1993-.5328.299-.9001.299ZM456.3581,785.8377c-.385,0-.6738-.0951-.866-.2859-.1925-.1908-.2643-.4505-.2153-.7794h.567c-.0282.1748.0105.3121.1153.4121.1051.0997.266.1495.483.1495.2028,0,.3699-.049.5012-.1469s.2107-.2327.2389-.4044c.0211-.1504.0009-.2788-.0604-.3856s-.1583-.1811-.2913-.2233l-.4568-.1364c-.266-.0803-.4619-.217-.5878-.4095-.1259-.1922-.1697-.4197-.1313-.6823.035-.2099.1119-.3935.2309-.551s.2731-.2799.4619-.3673c.1891-.0874.4024-.1313.6404-.1313.3497,0,.6157.0954.7979.2859.1817.1908.2483.4437.1993.7586h-.567c.0279-.168-.0026-.3001-.0917-.3964-.0894-.0963-.2301-.1444-.4226-.1444-.1891,0-.3429.0447-.4619.1338-.119.0894-.1891.2144-.2099.3753-.0245.1506-.0071.2791.0524.3859s.1575.1811.2939.223l.4673.1469c.2623.0806.4556.2173.5798.4095.1242.1925.1654.4217.1236.6877-.035.217-.1156.4058-.2415.5667-.1262.1612-.2879.2862-.4855.3753-.1979.0894-.4192.1338-.6641.1338ZM458.4209,785.7853l.6088-3.8315h2.2516l-.0786.5038h-1.6955l-.1731,1.0867h1.5115l-.0786.4986h-1.5118l-.1942,1.2387h1.6901l-.0786.5038h-2.2516Z" style="fill: #ccc;"/>
  <g>
    <g id="g3833">
      <path id="path3030-1" d="M166.3812,88.2555c131.3349-49.3903,328.9224-52.6415,467.1874.1229,28.506,172.3056,27.6446,326.0231,2.7924,479.2834-65.3304,70.1216-135.7405,131.3638-237.3496,182.3381-76.4428-40.8669-155.8806-94.8306-234.531-180.7951-24.7585-131.1912-27.7657-284.8138,1.9008-480.9494Z"/>
      <path id="path3030" d="M184.5914,103.1212c140.2687-45.0544,283.4918-44.2658,430.3528-.0624,26.5871,160.7067,25.6359,312.4737,2.4567,455.4172-60.9326,65.4013-123.4506,120.2725-218.2198,167.8154-71.2971-38.1159-143.1189-86.9523-216.475-167.13-19.5902-121.8522-25.7843-273.1077,1.8852-456.0402Z" style="fill: #fff;"/>
    </g>
    <path id="path3924" d="M185.011,356.188c43.4541,94.5138,91.0629,188.3594,155.5209,279.4953-84.152-80.1143-129.6964-165.8358-155.5209-279.4953Z" style="fill: #b1b022;"/>
    <path id="path3924-0" d="M610.2931,359.2914c-43.8467,94.3323-91.8451,187.9793-156.6815,278.8464,84.4843-79.7637,130.3847-165.2952,156.6815-278.8464Z" style="fill: #b1b022;"/>
    <g id="g4210">
      <path id="path3829" d="M399.8196,186.1684c-47.4875-.15-97.4886,2.201-149.5635,8.0854-21.2281,28.2748-38.2653,47.2228-66.6308,116.661,50.1471,108.6058,99.619,216.6882,213.0779,377.2329,59.397-85.5393,122.3486-172.5047,220.0558-376.4748-17.1937-42.847-35.6246-79.0245-65.7934-116.9228-46.7468-5.0307-97.3268-8.4117-151.146-8.5817ZM370.3239,190.7435l59.2556.3371-.2883,50.6666-59.2556-.3371.2883-50.6666ZM513.3334,195.9819l35.6343,4.2805c10.7765,13.0911,20.9996,26.8365,30.0406,41.9895l-65.9359-.3752.2611-45.8949ZM286.0228,195.5851l-.261,45.866-63.391-.3607c8.8618-15.0512,18.881-28.6525,29.3884-41.6225l34.2636-3.8828ZM513.05,377.9463l66.8614.3804c-23.3157,45.2957-45.434,83.832-67.5598,122.3819l.6985-122.7623ZM369.8927,378.3464l59.0814.4518-.2401,255.6822c-13.0179,19.1209-22.0049,31.4299-32.3342,46.0016-8.0542-11.9935-16.9791-23.4319-26.68-37.9216l.173-264.214ZM219.1321,378.2695l66.63.3791-.7123,125.1915c-21.6091-39.5628-43.2001-79.1155-65.9177-125.5706Z"/>
      <g id="g4202">
        <path id="path3909-9" d="M406.6509,109.8534l-.0497,8.73c-4.0421-3.1501-9.1199-3.7503-13.4582-3.775-6.3283.3888-11.7516,3.2233-13.3415,8.4166-.6864,2.3928-1.0395,5.3239-1.0592,8.7933-.5301,6.5089,1.1993,11.3538,7.3398,15.6955,1.5269.7619,3.0043,1.147,4.7443,1.1569,1.6935.0096,3.9183-.0444,5.4315-.9489l.0697-12.2536c-.0179-.9587-.141-1.7241-.3697-2.2961l11.556.0657c-.2357.6378-.3676,1.4017-.3958,2.2918l-.078,13.706c.0162,1.2327.1679,3.099.4648,3.9453-5.7049,1.4081-12.351,2.2402-17.5519,2.2232-4.9647-.0282-9.0201-.8274-12.1664-2.3975-4.0023-1.9858-6.9783-4.9358-8.9281-8.8502-1.7663-3.5252-2.6357-7.7073-2.6082-12.5462.047-8.2627,2.7396-14.6157,8.0777-19.0593,4.3824-3.65,10.2158-5.4543,17.5004-5.4129,4.4774.0255,10.0063.8673,14.8225,2.5153"/>
        <path id="path3896-4" d="M429.512,109.3759l29.2079.6293-.1186,6.4235c-.7475-.2167-1.5323-.3342-2.3546-.3527l-16.1573-.3091-.3134,11.9092,12.9129.286c1.0807.0242,1.9636-.045,2.6488-.2075l-.1289,7.7595c-.6305-.1919-1.4743-.2996-2.5315-.3232l-13.0187-.2883-.3247,13.2339,16.5919.3046c1.0807.0242,2.0109-.0551,2.7905-.2377l-.13,7.2911-30.0655-.6342c.2715-.594.4167-1.3242.4356-2.1906l.8944-41.0525c-.002-.9557-.1157-1.7028-.339-2.2412"/>
        <path id="path3907-8" d="M317.1725,127.1393l1.5358,28.1065c.0564.933.2169,1.6915.4813,2.2753l-9.4111.8668c.2459-.6698.354-1.4374.3243-2.3029l-1.4421-42.0586c-.0571-.9558-.2176-1.7142-.4813-2.2753l8.9516-.3926c.1392.497.5403,1.1445,1.2031,1.9427l20.4076,26.3616-1.0693-26.9147c-.0557-.9102-.2161-1.6687-.4813-2.2753l8.825-.206c-.2293.4412-.3374,1.2088-.3243,2.303l1.9901,42.13c.054.8647.2259,1.6.5156,2.2057l-8.6929.3853c-.1621-.4505-.6128-1.1192-1.3519-2.006"/>
        <path id="path3905-8" d="M258.891,150.0183l-2.8235,9.7885c-.167.6577-.2255,1.2001-.1753,1.6272.0132.1124.0464.2908.0995.5353l-9.1473.7756c.4106-.6635.7249-1.4183.9431-2.2643l12.4229-43.5328c.1644-.6801.2228-1.2225.1753-1.6272-.0132-.1123-.0291-.2472-.0476-.4046l10.7136-1.1319c.0313.4749.2377,1.0888.6193,1.8416l20.7864,41.5339c.4029.7275.9318,1.3832,1.5866,1.9672l-11.6732,1.1265c.0007-.2051-.0063-.3639-.0193-.4763-.0529-.4496-.238-.9862-.5554-1.6098l-4.9726-9.6036M260.5463,142.7045l13.312-1.143-8.2987-15.5377"/>
        <path id="path3887-2" d="M530.4276,158.6057l2.0171-7.7593c1.9866,2.3846,4.4612,3.0128,4.4612,3.0128,0,0,4.1,1.7685,7.2843,2.2671,3.6575.0312,7.7914-1.5438,8.216-4.8896.233-2.0981-.4647-3.7898-2.092-5.2309-6.8277-6.7827-17.5417-10.3286-16.6508-19.0981.3149-2.8359,1.0917-5.3114,2.8816-7.4234,3.4752-4.1188,8.4434-5.7962,15.3456-5.0297,4.0358.4483,7.4985,1.7954,11.3805,4.047l-2.0354,7.6966c-3.6266-3.297-6.9479-4.0649-9.9517-4.3986-1.7657-.196-3.3002-.4364-4.6103.4918-2.3471,2.0627-2.8001,4.8772-.9691,6.7886,1.0237,1.024,3.8616,3.4563,7.3613,6.3532,4.1489,3.2976,7.4338,5.4928,8.7448,7.9024,2.4373,4.2395,1.9343,9.8575-.9204,13.7529-3.5341,4.6491-9.7684,6.2498-17.578,6.1339-5.6353-.2384-10.9549-2.4411-12.8845-4.6168"/>
        <path id="path3890-4" d="M489.2725,138.2517l-.9383,17.0819c-.045.8722.0489,1.6282.2814,2.268l-10.129-.5423c.2671-.502.4379-1.2444.5126-2.2272l2.1258-41.5266c.0424-.8274-.0512-1.5834-.2814-2.268l19.6717.5492c6.9068.6018,12.3272,6.8296,11.8809,13.4469-.1188,4.0155-5.6265,9.6867-9.8176,12.1898l13.0776,19.6963c.6001.9951,1.1545,1.7075,1.6631,2.1373l-14.1389-.7591c-.0824-.7442-.2867-1.4611-.6131-2.1505l-8.7854-17.523M489.4364,131.9634l5.534.2635c1.877.0893,3.4063-.3293,4.5889-1.2775,1.8621-1.4962,2.3962-2.9991,2.5458-5.9064.0231-4.0649-2.7578-6.7036-6.3215-6.935l-5.4979-.2617-.8493,14.117"/>
      </g>
    </g>
    <g id="g4307">
      <g id="text4251">
        <path id="path4263" d="M409.3434,436.9865l-19.1443-.1089.0212-3.7265,6.9456.0395.1373-24.1325-6.5592,2.1873.0199-3.5054,12.086-3.3244-.1639,28.8064,6.6785.038-.0212,3.7265Z" style="stroke: #000; stroke-width: 1.25px;"/>
      </g>
      <g id="text4255">
        <path id="path4260" d="M388.5774,500.0057l.0247-4.348c2.0557,1.048,4.2336,1.7422,6.5357,1.7553,3.35.0191,5.4698-.5927,7.3475-2.9747,1.8776-2.382,2.3798-5.7778,2.4049-10.1821-.0345.0151-.0689.0149-.1031-.0006-1.5966,2.8104-3.4135,4.2098-7.3305,4.1875-6.4897-.1779-10.252-4.6273-10.259-10.277.0571-7.0173,5.4203-10.851,11.436-10.8851,3.6421.0207,6.4738,1.3133,8.4951,3.8775,2.0213,2.5643,3.5906,6.2881,3.5629,11.1648-.0345,6.0502-1.5474,10.7051-4.2117,13.9667-2.6643,3.2615-6.7591,4.8765-11.4664,4.8498-2.4739-.0141-4.6193-.392-6.4362-1.1339h0ZM398.229,470.4563c-4.7726.2807-6.3242,3.2394-6.3376,7.2107-.3736,4.7526,2.233,7.3717,6.5377,7.444,4.0399-.2186,6.5614-2.4528,6.5952-6.1805.1992-4.7191-2.3202-8.3872-6.7953-8.4742Z" style="stroke: #000; stroke-width: 1.3988px;"/>
      </g>
      <g id="text4251-5">
        <path id="path4263-1" d="M409.1161,563.2005l-19.1443-.1089.0207-3.6447,6.9456.0395.1373-24.1325-6.5592,2.1873.0199-3.5054,12.086-3.3244-.1639,28.8064,6.6785.038-.0208,3.6447Z" style="stroke: #000; stroke-width: 1.25px;"/>
      </g>
      <g id="text4255-7">
        <path id="path4260-1" d="M388.43,626.5475l.0247-4.348c2.0557,1.048,4.2336,1.7422,6.5357,1.7553,3.35.0191,5.4698-.5927,7.3475-2.9747,1.8776-2.382,2.3798-5.7778,2.4049-10.1821-.0345.0151-.0689.0149-.1031-.0006-1.5966,2.8104-3.4135,4.2098-7.3305,4.1875-6.4897-.1779-10.252-4.6273-10.259-10.277.0571-7.0173,5.4203-10.851,11.436-10.8851,3.6421.0207,6.4738,1.3133,8.4951,3.8775,2.0213,2.5643,3.5906,6.2881,3.5629,11.1648-.0345,6.0502-1.5474,10.7051-4.2117,13.9667-2.6643,3.2615-6.7591,4.8765-11.4664,4.8498-2.4739-.0141-4.6193-.392-6.4362-1.1339h0ZM398.0816,596.998c-4.7726.2807-6.3242,3.2394-6.3376,7.2107-.3736,4.7526,2.233,7.3717,6.5377,7.444,4.0399-.2186,6.5614-2.4528,6.5952-6.1805.1992-4.7191-2.3202-8.3872-6.7953-8.4742Z" style="stroke: #000; stroke-width: 1.3988px;"/>
      </g>
    </g>
    <g id="g4452">
      <path id="path4354-5" d="M358.7793,278.3061c-29.5689,25.5534-16.3254,65.6099,23.4367,74.2558,19.5976,6.3802,50.6113,3.7523,64.0697-4.599l.1907-14.8863c-16.2418,11.482-46.0273,11.4975-58.916,4.8185-19.4369-8.9124-26.3789-28.543-15.1461-47.4229,12.3267-17.6253,52.1279-17.8199,74.5431-3.712l2.3017-15.6923c-27.7707-10.7376-70.5261-9.6832-90.4798,7.2381Z" style="fill: #fff;"/>
      <path id="path4354" d="M324.0443,334.7347c3.9856-25.9242-29.6109-30.7934-39.8255-33.7696-6.7742-1.963-12.6575-3.3708-16.2487-5.0169-19.1986-9.2068-.651-19.1817,20.8084-17.6351,13.8857,1.1872,15.5917,3.4542,29.7651,8.2927.3213-4.7854,1.3816-9.5335,4.1582-14.2085-8.387-2.7963-13.9435-4.6464-22.6126-6.6273-7.2467-1.6142-23.605-1.7069-31.7025-.1798-7.8379,1.4782-19.1034,6.3302-23.4773,10.6201-6.9359,6.8028-7.6107,16.5832-2.8315,24.9611,3.9329,6.8944,16.89,13.0845,32.5017,15.2799,18.5126,5.0735,26.0951,5.1429,27.4709,18.4155.0894,16.2992-41.3752,10.7048-53.0614,3.9586l-4.4847-3.8777c-.1553,5.6592-1.4566,10.6945-2.9595,16.1788l8.2678,2.0468c12.806,3.1703,18.6936,4.1734,33.0219,3.7926,14.7945.0842,37.5023-4.0337,41.2097-22.2311h0Z" style="fill: #fff;"/>
      <path id="path4354-5-2" d="M560.1415,329.0553s1.0331-18.5629,1.0406-19.8803c0,0,1.1975-10.4935-.694-16.7398-5.5408-18.297-24.946-27.7373-49.665-26.7791-20.2117-.115-33.9553,7.8072-40.0828,18.6552-4.6649,8.2586-3.9412,17.9267-4.0026,28.7115-.7434,8.3727-.2129,16.0359,2.4444,22.5185,4.5186,11.0233,17.4967,19.0523,28.0979,20.4654,8.9988,1.7263,22.6269,1.8698,34.3457-.6219,15.2338-3.2391,28.0218-15.7561,28.5158-26.3294h0ZM500.9342,343.6397c-3.4665-1.0514-7.8763-3.5232-9.6393-6.9976-3.2093-6.3248-2.0451-15.1151-2.058-25.3191-.0095-7.4965-.5374-16.3618,1.9459-22.3647,4.0246-9.7286,12.2023-11.1142,23.0064-11.0656,11.1101.05,20.4467,3.0301,22.6292,10.6223,1.4914,5.1879,1.0313,11.6885.9687,22.6893-.1082,19.01.4892,23.2952-4.425,28.1537-2.9589,2.9254-7.9907,5.7154-15.0055,5.6754-5.9248-.0337-11.8259.3037-17.4223-1.3938h0Z" style="fill: #fff;"/>
    </g>
  </g>
</svg>