<?xml version="1.0" encoding="UTF-8"?>
<svg id="_图层_1" data-name="图层_1" xmlns="http://www.w3.org/2000/svg" version="1.1" viewBox="0 0 800 800">
  <!-- Created by @FCLOGO 2024-11-29 GMT+8 10:38:02 . https://fclogo.top/ -->
<!-- FOR PERSONAL USE ONLY NOT FOR COMMERCIAL USE -->
<!-- Created by @FCLOGO 2024-11-29 GMT+8 10:38:02 . https://fclogo.top/ -->
<!-- FOR PERSONAL USE ONLY NOT FOR COMMERCIAL USE -->
  <defs>
    <style>
      .st0 {
        fill: #231817;
      }

      .st1 {
        fill: #fcd008;
      }

      .st2 {
        fill: #ccc;
      }

      .st3 {
        fill: #fff;
      }

      .st4 {
        fill: #fdf107;
      }

      .st5 {
        fill: #e50111;
      }

      .st6 {
        fill: #fffdfe;
      }

      .st7 {
        fill: #e70017;
      }
    </style>
  </defs>
  <path class="st2" d="M348.22,774.3c-.79,0-1.38-.22-1.77-.65-.39-.44-.53-1.03-.41-1.79l.25-1.65c.12-.75.45-1.35.98-1.78.53-.44,1.19-.65,1.98-.65s1.33.2,1.72.6c.39.4.55.94.47,1.62h-1.24c.03-.36-.06-.64-.26-.84-.2-.2-.5-.3-.89-.3-.42,0-.76.12-1.03.35-.27.23-.43.56-.5.99l-.26,1.66c-.07.44,0,.77.19,1,.19.23.5.35.92.35.39,0,.72-.1.98-.3.26-.2.44-.48.52-.85h1.24c-.14.69-.47,1.23-.99,1.63-.52.4-1.16.6-1.92.6ZM352.8,774.19l1-6.29h1.19l-.19,1.19c.34-.87.97-1.3,1.91-1.3.67,0,1.17.21,1.49.62.32.42.43.99.31,1.71l-.07.42h-1.27l.06-.32c.07-.45.01-.8-.17-1.04-.18-.24-.48-.36-.88-.36s-.74.12-1.01.37c-.27.24-.43.59-.5,1.03l-.63,3.97h-1.24ZM361.91,774.3c-.77,0-1.35-.22-1.73-.67s-.52-1.04-.4-1.77l.25-1.65c.08-.49.26-.92.52-1.28s.6-.65,1.01-.85c.41-.2.87-.3,1.38-.3.77,0,1.35.22,1.73.67.39.45.52,1.04.39,1.77l-.17,1.12h-3.85l-.09.53c-.15.95.22,1.43,1.11,1.43.72,0,1.17-.25,1.37-.74h1.22c-.17.53-.5.96-1.01,1.28-.5.32-1.09.47-1.76.47ZM361.23,770.22l-.05.29h2.65s.05-.3.05-.3c.07-.47.01-.82-.17-1.07-.18-.25-.49-.37-.92-.37s-.8.13-1.06.38c-.26.25-.43.61-.51,1.08ZM368.33,774.3c-.63,0-1.1-.21-1.41-.64s-.4-1-.27-1.73l.27-1.77c.11-.73.39-1.31.84-1.74.44-.43.98-.64,1.61-.64.47,0,.83.12,1.09.35.26.24.39.56.38.96h.02l.17-1.2h1.24l-1,6.29h-1.22l.19-1.2h-.02c-.12.41-.35.73-.69.97s-.74.35-1.21.35ZM368.93,773.23c.39,0,.72-.12.98-.36.26-.24.43-.57.5-1.01l.25-1.65c.07-.43,0-.76-.18-1-.19-.24-.47-.36-.86-.36s-.72.12-.98.35c-.26.24-.42.57-.49,1.01l-.25,1.65c-.07.44-.01.78.17,1.01.18.23.47.35.88.35ZM376.35,774.19c-.57,0-.99-.16-1.26-.47-.27-.31-.36-.75-.27-1.32l.54-3.39h-1.74l.17-1.12h1.74l.27-1.72h1.24l-.27,1.72h2.47l-.18,1.12h-2.46l-.54,3.39c-.08.44.1.66.53.66h1.72l-.17,1.12h-1.77ZM382.5,774.3c-.77,0-1.35-.22-1.73-.67s-.52-1.04-.4-1.77l.25-1.65c.08-.49.26-.92.52-1.28s.6-.65,1.01-.85c.41-.2.87-.3,1.38-.3.77,0,1.35.22,1.73.67.39.45.52,1.04.39,1.77l-.17,1.12h-3.85l-.09.53c-.15.95.22,1.43,1.11,1.43.72,0,1.17-.25,1.37-.74h1.22c-.17.53-.5.96-1.01,1.28-.5.32-1.09.47-1.76.47ZM381.83,770.22l-.05.29h2.65s.05-.3.05-.3c.07-.47.01-.82-.17-1.07-.18-.25-.49-.37-.92-.37s-.8.13-1.06.38c-.26.25-.43.61-.51,1.08ZM388.92,774.3c-.63,0-1.1-.21-1.4-.64-.3-.42-.39-1-.28-1.73l.27-1.77c.11-.73.39-1.31.84-1.74.44-.43.98-.64,1.61-.64.47,0,.83.12,1.09.35.26.24.39.56.38.96h.02l.21-1.47.3-1.8h1.24l-1.33,8.35h-1.22l.19-1.2h-.02c-.12.41-.35.73-.69.97s-.74.35-1.21.35ZM389.53,773.23c.39,0,.72-.12.98-.36.26-.24.43-.57.5-1.01l.25-1.65c.08-.43.02-.76-.17-1-.19-.24-.48-.36-.87-.36s-.72.12-.98.35c-.26.24-.42.57-.49,1.01l-.25,1.65c-.08.44-.02.78.16,1.01s.48.35.88.35ZM401.02,774.3c-.47,0-.84-.12-1.1-.35-.26-.23-.39-.56-.38-.97h-.01l-.19,1.2h-1.22l1.33-8.35h1.24l-.29,1.8-.27,1.47h.05c.12-.41.35-.73.69-.97.34-.23.74-.35,1.21-.35.63,0,1.1.21,1.4.64.3.43.39,1.01.28,1.74l-.27,1.77c-.11.73-.39,1.31-.84,1.73-.45.42-.98.64-1.61.64ZM400.77,773.23c.4,0,.72-.12.98-.35.26-.23.42-.57.5-1.01l.25-1.65c.07-.43.01-.77-.17-1.01-.18-.24-.47-.35-.87-.35s-.72.12-.98.36-.43.57-.5,1l-.25,1.65c-.07.44-.01.77.17,1.01.18.24.47.36.87.36ZM405.47,776.25l.17-1.06h1.93c.64,0,1.01-.3,1.1-.9l.1-.67.21-1.19h-.03c-.12.42-.35.74-.68.97-.33.23-.73.34-1.2.34-.63,0-1.09-.2-1.4-.6s-.41-.94-.3-1.63l.58-3.6h1.24l-.56,3.48c-.06.41,0,.73.18.96s.47.34.85.34.72-.12.98-.37c.27-.24.43-.58.49-1.02l.54-3.4h1.24l-1.01,6.41c-.1.6-.37,1.08-.81,1.42-.44.35-1,.52-1.67.52h-1.95ZM417.79,770.09h3.22l.54-1.85h-5.47l-1.71,6.44h2.15l.59-2.1h3.03l.44-1.71h-3.03l.24-.78ZM424.23,772.92c-.59,0-1.02-.39-1.02-1.12,0-.88.63-1.76,1.61-1.76.49,0,.88.24,1.02.78l1.95-.83c-.29-1.17-1.27-1.9-2.64-1.9-2.78,0-4.15,2.15-4.15,3.9s1.27,2.83,3.07,2.83c1.37,0,2.34-.59,2.98-1.42l-1.51-1.17c-.39.44-.83.68-1.32.68ZM430.91,768.23h-2.15l-1.76,6.44h5.12l.49-1.85h-2.93l1.22-4.59ZM439.75,771.01c0-1.66-1.32-2.93-3.22-2.93-2.2,0-3.81,1.81-3.81,3.81,0,1.66,1.32,2.93,3.22,2.93,2.2,0,3.81-1.81,3.81-3.81ZM434.92,771.7c0-.83.59-1.71,1.51-1.71.78,0,1.17.54,1.17,1.22,0,.83-.59,1.71-1.51,1.71-.78,0-1.17-.54-1.17-1.22ZM443.21,772.23h1.07l-.2.68c-.15.05-.34.1-.59.1-.68,0-1.27-.39-1.27-1.22,0-1.02.73-1.9,1.95-1.9.59,0,1.12.24,1.51.59l1.37-1.37c-.44-.54-1.51-1.07-2.73-1.07-2.59,0-4.29,1.76-4.29,3.86s1.61,2.88,3.22,2.88c.93,0,1.85-.29,2.49-.68l.93-3.32h-3.12l-.34,1.46ZM450.78,768.08c-2.2,0-3.81,1.81-3.81,3.81,0,1.66,1.32,2.93,3.22,2.93,2.2,0,3.81-1.81,3.81-3.81,0-1.66-1.32-2.93-3.22-2.93ZM450.34,772.92c-.78,0-1.17-.54-1.17-1.22,0-.83.59-1.71,1.51-1.71.78,0,1.17.54,1.17,1.22,0,.83-.59,1.71-1.51,1.71ZM437.94,767.5c-.05.29.1.49.44.49s.54-.2.63-.49c.05-.24-.1-.49-.44-.49s-.59.24-.63.49ZM432.13,765.5c-.44,0-.73.24-.78.59s.1.59.54.59.73-.24.78-.59c.1-.34-.1-.59-.54-.59ZM433.01,767.3c-.1.54.15.88.83.88.63,0,1.07-.39,1.17-.88s-.15-.88-.83-.88c-.68,0-1.07.39-1.17.88ZM439.6,777.55l-2.44-1.81h-1.51l4.25,3.17,1.61-3.17h-.98l-.93,1.81ZM425.84,767.16l-2-1.46,23.13-2.78-2.15,4.25h1.02l2.68-5.32-26.99,3.22,2.78,2.1h1.51ZM338.72,785.79l.61-3.83h2.32l-.08.52h-1.76l-.18,1.14h1.63l-.08.52h-1.62l-.26,1.64h-.57ZM342.97,785.84c-.36,0-.62-.1-.8-.3-.17-.2-.23-.47-.18-.82l.27-1.7c.06-.34.2-.61.44-.82.24-.2.54-.3.89-.3s.62.1.8.3c.17.2.24.47.18.81l-.27,1.71c-.06.34-.2.62-.44.82-.24.2-.54.3-.9.3ZM343.05,785.33c.19,0,.35-.05.47-.16.12-.11.19-.26.23-.46l.27-1.7c.03-.2,0-.35-.08-.46-.08-.11-.22-.16-.41-.16s-.35.05-.46.16c-.12.1-.19.26-.22.46l-.27,1.7c-.03.2,0,.35.08.46s.22.16.41.16ZM345,785.79l.61-3.83h1.2c.24,0,.44.05.6.14.16.09.28.22.36.39s.09.37.05.59c-.04.26-.14.48-.3.67-.16.19-.37.32-.6.39l.54,1.64h-.62l-.48-1.57h-.54l-.25,1.57h-.57ZM345.89,783.71h.64c.19,0,.35-.06.48-.17.13-.11.21-.26.24-.45.03-.19,0-.35-.09-.46-.09-.11-.24-.17-.43-.17h-.64l-.2,1.25ZM349.54,785.79l.61-3.83h1.25c.37,0,.65.1.84.31.19.21.26.49.2.84-.04.23-.12.44-.25.61s-.29.31-.49.4c-.2.09-.42.14-.66.14h-.69l-.24,1.52h-.57ZM350.43,783.75h.69c.19,0,.36-.06.49-.18.14-.12.22-.27.25-.47s0-.35-.1-.47-.25-.18-.44-.18h-.69l-.21,1.29ZM352.75,785.79l.61-3.83h2.25l-.08.5h-1.7l-.17,1.09h1.51l-.08.5h-1.51l-.19,1.24h1.69l-.08.5h-2.25ZM355.84,785.79l.61-3.83h1.2c.24,0,.44.05.6.14.16.09.28.22.36.39s.09.37.05.59c-.04.26-.14.48-.3.67-.16.19-.37.32-.6.39l.54,1.64h-.62l-.48-1.57h-.54l-.25,1.57h-.57ZM356.74,783.71h.64c.19,0,.35-.06.48-.17.13-.11.21-.26.24-.45.03-.19,0-.35-.09-.46-.09-.11-.24-.17-.43-.17h-.64l-.2,1.25ZM360.13,785.84c-.39,0-.67-.1-.87-.29-.19-.19-.26-.45-.22-.78h.57c-.03.17.01.31.12.41.11.1.27.15.48.15.2,0,.37-.05.5-.15.13-.1.21-.23.24-.4.02-.15,0-.28-.06-.39-.06-.11-.16-.18-.29-.22l-.46-.14c-.27-.08-.46-.22-.59-.41-.13-.19-.17-.42-.13-.68.04-.21.11-.39.23-.55s.27-.28.46-.37.4-.13.64-.13c.35,0,.62.1.8.29.18.19.25.44.2.76h-.57c.03-.17,0-.3-.09-.4-.09-.1-.23-.14-.42-.14s-.34.04-.46.13c-.12.09-.19.21-.21.38-.02.15,0,.28.05.39s.16.18.29.22l.47.15c.26.08.46.22.58.41.12.19.17.42.12.69-.04.22-.12.41-.24.57-.13.16-.29.29-.49.38-.2.09-.42.13-.66.13ZM363.27,785.84c-.36,0-.62-.1-.8-.3-.17-.2-.23-.47-.18-.82l.27-1.7c.06-.34.2-.61.44-.82.24-.2.54-.3.89-.3s.62.1.8.3c.17.2.24.47.18.81l-.27,1.71c-.06.34-.2.62-.44.82-.24.2-.54.3-.9.3ZM363.34,785.33c.19,0,.35-.05.47-.16.12-.11.19-.26.23-.46l.27-1.7c.03-.2,0-.35-.08-.46-.08-.11-.22-.16-.41-.16s-.35.05-.46.16c-.12.1-.19.26-.22.46l-.27,1.7c-.03.2,0,.35.08.46s.22.16.41.16ZM365.28,785.79l.61-3.83h.71l.62,3.19c0-.1.02-.22.03-.36.01-.14.03-.29.04-.44.02-.15.04-.29.06-.41l.31-1.98h.52l-.61,3.83h-.71l-.61-3.19c0,.09-.02.21-.03.34s-.03.28-.04.42c-.02.15-.04.28-.06.41l-.31,2.01h-.53ZM368.23,785.79l1.59-3.83h.75l.37,3.83h-.56l-.07-.97h-1.09l-.39.97h-.59ZM369.39,784.34h.87l-.09-1.1c-.02-.2-.03-.37-.04-.51,0-.14-.01-.24-.01-.3-.02.06-.05.16-.1.3s-.11.31-.19.5l-.44,1.11ZM371.72,785.79l.61-3.83h.57l-.52,3.31h1.67l-.08.52h-2.25ZM376.68,785.84c-.37,0-.63-.1-.8-.3-.17-.2-.22-.47-.17-.82l.44-2.76h.57l-.44,2.76c-.03.2,0,.35.07.46.08.11.21.17.41.17s.35-.06.46-.17c.12-.11.19-.27.22-.46l.44-2.76h.57l-.44,2.76c-.06.35-.2.62-.43.82-.23.2-.53.3-.9.3ZM379.84,785.84c-.39,0-.67-.1-.87-.29-.19-.19-.26-.45-.22-.78h.57c-.03.17.01.31.12.41.11.1.27.15.48.15.2,0,.37-.05.5-.15.13-.1.21-.23.24-.4.02-.15,0-.28-.06-.39-.06-.11-.16-.18-.29-.22l-.46-.14c-.27-.08-.46-.22-.59-.41-.13-.19-.17-.42-.13-.68.04-.21.11-.39.23-.55s.27-.28.46-.37.4-.13.64-.13c.35,0,.62.1.8.29.18.19.25.44.2.76h-.57c.03-.17,0-.3-.09-.4-.09-.1-.23-.14-.42-.14s-.34.04-.46.13c-.12.09-.19.21-.21.38-.02.15,0,.28.05.39s.16.18.29.22l.47.15c.26.08.46.22.58.41.12.19.17.42.12.69-.04.22-.12.41-.24.57-.13.16-.29.29-.49.38-.2.09-.42.13-.66.13ZM381.91,785.79l.61-3.83h2.25l-.08.5h-1.7l-.17,1.09h1.51l-.08.5h-1.51l-.19,1.24h1.69l-.08.5h-2.25ZM386.94,785.84c-.36,0-.62-.1-.8-.3-.17-.2-.23-.47-.18-.82l.27-1.7c.06-.34.2-.61.44-.82.24-.2.54-.3.89-.3s.62.1.8.3c.17.2.24.47.18.81l-.27,1.71c-.06.34-.2.62-.44.82-.24.2-.54.3-.9.3ZM387.02,785.33c.19,0,.35-.05.47-.16.12-.11.19-.26.23-.46l.27-1.7c.03-.2,0-.35-.08-.46-.08-.11-.22-.16-.41-.16s-.35.05-.46.16c-.12.1-.19.26-.22.46l-.27,1.7c-.03.2,0,.35.08.46s.22.16.41.16ZM388.95,785.79l.61-3.83h.71l.62,3.19c0-.1.02-.22.03-.36.01-.14.03-.29.04-.44.02-.15.04-.29.06-.41l.31-1.98h.52l-.61,3.83h-.71l-.61-3.19c0,.09-.02.21-.03.34s-.03.28-.04.42c-.02.15-.04.28-.06.41l-.31,2.01h-.53ZM392.25,785.79l.61-3.83h.57l-.52,3.31h1.67l-.08.52h-2.25ZM396.12,785.79l.22-1.41-.75-2.42h.58l.45,1.45c.03.09.05.18.07.27.02.08.03.15.03.19.02-.04.05-.1.09-.19.04-.08.09-.17.14-.27l.9-1.45h.6l-1.53,2.42-.22,1.41h-.57ZM399.22,785.79l.61-3.83h.71l.62,3.19c0-.1.02-.22.03-.36.01-.14.03-.29.04-.44.02-.15.04-.29.06-.41l.31-1.98h.52l-.61,3.83h-.71l-.61-3.19c0,.09-.02.21-.03.34s-.03.28-.04.42c-.02.15-.04.28-.06.41l-.31,2.01h-.53ZM403.51,785.84c-.36,0-.62-.1-.8-.3-.18-.2-.23-.47-.18-.82l.27-1.7c.06-.34.2-.61.44-.82.24-.2.54-.3.89-.3s.62.1.8.3c.17.2.24.47.18.81l-.27,1.71c-.06.34-.2.62-.44.82-.24.2-.54.3-.89.3ZM403.58,785.33c.19,0,.35-.05.47-.16.12-.11.19-.26.23-.46l.27-1.7c.03-.2,0-.35-.08-.46-.08-.11-.22-.16-.41-.16s-.35.05-.46.16c-.12.1-.19.26-.22.46l-.27,1.7c-.03.2,0,.35.08.46.08.11.22.16.41.16ZM406.38,785.79l.52-3.31h-1.02l.08-.52h2.62l-.08.52h-1.03l-.52,3.31h-.57ZM409.52,785.79l.61-3.83h2.32l-.08.52h-1.76l-.18,1.14h1.63l-.08.52h-1.62l-.26,1.64h-.57ZM413.77,785.84c-.36,0-.62-.1-.8-.3-.18-.2-.23-.47-.18-.82l.27-1.7c.06-.34.2-.61.44-.82.24-.2.54-.3.89-.3s.62.1.8.3c.17.2.24.47.18.81l-.27,1.71c-.06.34-.2.62-.44.82-.24.2-.54.3-.89.3ZM413.85,785.33c.19,0,.35-.05.47-.16.12-.11.19-.26.23-.46l.27-1.7c.03-.2,0-.35-.08-.46-.08-.11-.22-.16-.41-.16s-.35.05-.46.16c-.12.1-.19.26-.22.46l-.27,1.7c-.03.2,0,.35.08.46.08.11.22.16.41.16ZM415.8,785.79l.61-3.83h1.2c.24,0,.44.05.6.14.16.09.28.22.36.39s.09.37.05.59c-.04.26-.14.48-.3.67-.16.19-.37.32-.6.39l.54,1.64h-.62l-.48-1.57h-.54l-.25,1.57h-.57ZM416.69,783.71h.64c.19,0,.35-.06.48-.17.13-.11.21-.26.24-.45.03-.19,0-.35-.09-.46-.09-.11-.24-.17-.43-.17h-.64l-.2,1.25ZM420.91,785.84c-.36,0-.63-.1-.81-.3-.18-.2-.24-.47-.19-.82l.27-1.7c.06-.35.21-.62.45-.82s.55-.3.91-.3.63.1.81.3c.18.2.24.47.19.82h-.57c.03-.2,0-.35-.09-.46-.09-.11-.23-.16-.42-.16s-.35.05-.47.16c-.12.1-.2.26-.23.45l-.27,1.71c-.03.2,0,.35.09.46.09.11.23.16.42.16s.35-.05.47-.16.2-.26.23-.46h.57c-.03.23-.11.43-.24.59s-.28.3-.47.39c-.19.09-.4.14-.64.14ZM424.03,785.84c-.36,0-.62-.1-.8-.3-.18-.2-.23-.47-.18-.82l.27-1.7c.06-.34.2-.61.44-.82.24-.2.54-.3.89-.3s.62.1.8.3c.17.2.24.47.18.81l-.27,1.71c-.06.34-.2.62-.44.82-.24.2-.54.3-.89.3ZM424.11,785.33c.19,0,.35-.05.47-.16.12-.11.19-.26.23-.46l.27-1.7c.03-.2,0-.35-.08-.46-.08-.11-.22-.16-.41-.16s-.35.05-.46.16c-.12.1-.19.26-.22.46l-.27,1.7c-.03.2,0,.35.08.46.08.11.22.16.41.16ZM425.97,785.79l.61-3.83h.69l.18,1.23c.02.12.04.23.05.33.01.1.02.18.03.24.02-.06.05-.14.09-.24.04-.11.09-.22.15-.34l.57-1.22h.71l-.61,3.83h-.54l.2-1.29c.02-.17.06-.35.1-.55.04-.2.09-.4.14-.61s.1-.4.14-.59c.05-.19.09-.35.13-.49l-.86,1.86h-.55l-.28-1.86c0,.14-.01.29-.02.47s-.02.37-.04.57c-.02.2-.04.41-.06.61-.02.2-.05.4-.08.57l-.2,1.29h-.54ZM429.11,785.79l.61-3.83h.69l.18,1.23c.02.12.04.23.05.33.01.1.02.18.03.24.02-.06.05-.14.09-.24.04-.11.09-.22.15-.34l.57-1.22h.71l-.61,3.83h-.54l.2-1.29c.02-.17.06-.35.1-.55.04-.2.09-.4.14-.61s.1-.4.14-.59c.05-.19.09-.35.13-.49l-.86,1.86h-.55l-.28-1.86c0,.14-.01.29-.02.47s-.02.37-.04.57c-.02.2-.04.41-.06.61-.02.2-.05.4-.08.57l-.2,1.29h-.54ZM432.41,785.79l.61-3.83h2.25l-.08.5h-1.7l-.17,1.09h1.51l-.08.5h-1.51l-.19,1.24h1.69l-.08.5h-2.25ZM435.51,785.79l.61-3.83h1.2c.24,0,.44.05.6.14.16.09.28.22.36.39s.09.37.05.59c-.04.26-.14.48-.3.67-.16.19-.37.32-.6.39l.54,1.64h-.62l-.48-1.57h-.54l-.25,1.57h-.57ZM436.4,783.71h.64c.19,0,.35-.06.48-.17.13-.11.21-.26.24-.45.03-.19,0-.35-.09-.46-.09-.11-.24-.17-.43-.17h-.64l-.2,1.25ZM439.8,785.84c-.36,0-.63-.1-.81-.3-.18-.2-.24-.47-.19-.82l.27-1.7c.06-.35.21-.62.45-.82s.55-.3.91-.3.63.1.81.3c.18.2.24.47.19.82h-.57c.03-.2,0-.35-.09-.46-.09-.11-.23-.16-.42-.16s-.35.05-.47.16c-.12.1-.2.26-.23.45l-.27,1.71c-.03.2,0,.35.09.46.09.11.23.16.42.16s.35-.05.47-.16.2-.26.23-.46h.57c-.03.23-.11.43-.24.59s-.28.3-.47.39c-.19.09-.4.14-.64.14ZM441.88,785.79l.08-.5h.78l.45-2.82h-.78l.08-.5h2.13l-.08.5h-.78l-.45,2.82h.78l-.08.5h-2.13ZM444.74,785.79l1.59-3.83h.75l.37,3.83h-.56l-.07-.97h-1.09l-.39.97h-.59ZM445.9,784.34h.87l-.09-1.1c-.02-.2-.03-.37-.04-.51,0-.14-.01-.24-.01-.3-.02.06-.05.16-.1.3s-.11.31-.19.5l-.44,1.11ZM448.24,785.79l.61-3.83h.57l-.52,3.31h1.67l-.08.52h-2.25ZM453.19,785.84c-.37,0-.63-.1-.8-.3-.17-.2-.22-.47-.17-.82l.44-2.76h.57l-.44,2.76c-.03.2,0,.35.07.46.08.11.21.17.41.17s.35-.06.46-.17c.12-.11.19-.27.22-.46l.44-2.76h.57l-.44,2.76c-.06.35-.2.62-.43.82-.23.2-.53.3-.9.3ZM456.36,785.84c-.39,0-.67-.1-.87-.29-.19-.19-.26-.45-.22-.78h.57c-.03.17.01.31.12.41.11.1.27.15.48.15.2,0,.37-.05.5-.15s.21-.23.24-.4c.02-.15,0-.28-.06-.39s-.16-.18-.29-.22l-.46-.14c-.27-.08-.46-.22-.59-.41-.13-.19-.17-.42-.13-.68.04-.21.11-.39.23-.55s.27-.28.46-.37c.19-.09.4-.13.64-.13.35,0,.62.1.8.29.18.19.25.44.2.76h-.57c.03-.17,0-.3-.09-.4-.09-.1-.23-.14-.42-.14s-.34.04-.46.13c-.12.09-.19.21-.21.38-.02.15,0,.28.05.39s.16.18.29.22l.47.15c.26.08.46.22.58.41.12.19.17.42.12.69-.04.22-.12.41-.24.57-.13.16-.29.29-.49.38-.2.09-.42.13-.66.13ZM458.42,785.79l.61-3.83h2.25l-.08.5h-1.7l-.17,1.09h1.51l-.08.5h-1.51l-.19,1.24h1.69l-.08.5h-2.25Z"/>
  <g>
    <g>
      <path class="st7" d="M721.54,578.14l-34.34-263.75h-33.8l-9.36-166.12-66.29-11.7c-28.86-35.88-85.01-86.57-177.75-86.57s-148.9,50.69-177.75,86.57l-66.29,11.7-9.36,166.12h-33.8l-34.34,263.75c-1.22,9.37,7.77,16.81,16.75,13.85l43.33-14.26s22.01,25.65,40.38,39.86c18.37,14.21,48.18,31.54,66.2,39.86,18.02,8.32,130.21,54.77,154.88,92.55,24.67-37.78,136.85-84.23,154.88-92.55,18.02-8.32,47.83-25.65,66.2-39.86,18.37-14.21,40.38-39.86,40.38-39.86l43.33,14.26c8.98,2.96,17.97-4.48,16.75-13.85Z"/>
      <path class="st3" d="M400,728.81c-13.32-12.97-34.14-27.08-63-42.74-30.36-16.47-61.28-30.13-77.9-37.47-3.6-1.59-6.45-2.85-8.21-3.66-16.82-7.76-45.89-24.59-63.55-38.25-17.02-13.17-38.14-37.69-38.36-37.94l-6.01-7-50.67,16.67,32.58-250.26h34.72l9.48-168.22,60.64-10.7,3.25-4.04c29.88-37.14,83.1-81.42,167.01-81.42s137.14,44.28,167.01,81.42l3.25,4.04,60.64,10.7,9.48,168.22h34.72l32.58,250.26-50.67-16.68-6.01,7c-.21.24-21.33,24.77-38.35,37.93-17.65,13.66-46.73,30.49-63.55,38.25-1.76.81-4.61,2.07-8.21,3.66-16.61,7.34-47.54,21-77.9,37.47-28.86,15.66-49.67,29.76-62.99,42.74Z"/>
      <path d="M400,349.05c-240.84,0-314.15,111.79-254.34,203.12,2.02,3.08,9.61,11.19,9.61,11.19.21.24,20.88,24.21,37.15,36.79,17.2,13.3,45.55,29.71,61.95,37.28,1.67.77,4.42,1.98,7.9,3.52l.18.08c16.72,7.38,47.84,21.13,78.5,37.76,25.87,14.03,45.28,26.78,59.05,38.78,13.77-12,33.19-24.75,59.05-38.78,30.66-16.63,61.78-30.38,78.5-37.76l.18-.08c3.48-1.54,6.23-2.75,7.9-3.52,16.41-7.57,44.76-23.98,61.95-37.28,16.26-12.58,36.94-36.55,37.15-36.79,0,0,7.59-8.11,9.61-11.19,59.81-91.34-13.5-203.12-254.34-203.12Z"/>
      <path class="st7" d="M400,711.54c-13.79-11.47-32.44-23.54-56.86-36.78-30.82-16.72-62.05-30.52-78.83-37.93l-.37-.17c-3.37-1.49-6.04-2.67-7.64-3.41-16.18-7.47-44.13-23.64-61.07-36.74-15.87-12.28-36.27-35.91-36.47-36.15l-.13-.14c-2.83-3.02-7.81-8.57-9.12-10.57-22.27-34.01-25.09-70.21-7.95-101.93,14.77-27.32,43.87-50.29,84.17-66.41,45.87-18.36,104.51-27.67,174.28-27.67s128.4,9.31,174.28,27.67c40.3,16.13,69.4,39.09,84.17,66.41,17.15,31.72,14.32,67.92-7.95,101.93-1.31,2-6.29,7.54-9.12,10.57l-.13.15c-.2.24-20.54,23.82-36.47,36.15-16.94,13.11-44.89,29.28-61.07,36.74-1.61.74-4.29,1.93-7.69,3.43l-.33.15c-16.79,7.42-48.02,21.21-78.83,37.93-24.42,13.25-43.07,25.31-56.86,36.78Z"/>
      <path d="M396.95,649.54c-.28-.25-28.71-25.21-70.6-42.88-78.61-33.15-126.44-65.71-142.18-96.79-11.26-22.23-9.98-48.91,3.42-71.35,19.12-32.04,71.47-70.99,212.29-74.66h.24c140.82,3.66,193.17,42.62,212.29,74.66,13.4,22.45,14.67,49.12,3.42,71.35-15.74,31.08-63.57,63.64-142.18,96.79-41.89,17.66-70.32,42.63-70.6,42.88l-3.05,2.7-3.05-2.7Z"/>
      <path class="st3" d="M400,368.46c-219.82,5.72-232.52,98.27-211.72,139.34,20.8,41.07,96.71,76.43,139.86,94.63,43.15,18.2,71.86,43.67,71.86,43.67,0,0,28.71-25.48,71.86-43.67,43.15-18.2,119.06-53.55,139.86-94.63,20.8-41.07,8.1-133.62-211.72-139.34Z"/>
    </g>
    <g>
      <circle cx="400" cy="269.61" r="192.37"/>
      <path class="st7" d="M400,457.39c-103.54,0-187.78-84.24-187.78-187.78s84.24-187.78,187.78-187.78,187.78,84.24,187.78,187.78-84.24,187.78-187.78,187.78Z"/>
    </g>
    <g>
      <path class="st0" d="M508.34,96.53s5.55,24.61,5.89,42.63c.35,18.02,1.91,26-11.09,37.95,0,0,25.13,14.56,24.96,41.07,0,0-7.97-5.03-16.46-3.64,0,0,18.37,15.42,16.47,32.06,0,0-13-7.11-21.84-5.03,0,0,36.48,38.91-3.12,105.2,0,0-.87-24.96-11.79-30.16,0,0-5.72,14.82-13.26,26.78,0,0-1.3-31.98-11.44-42.11,0,0-21.32,35.1-53.29,43.67,0,0,16.9-16.9,17.68-30.68,0,0-15.86,18.2-76.95,32.5,0,0-1.04-17.16,5.72-25.48,0,0-7.8-1.56-16.38.26,0,0,7.54-8.84,9.62-14.04,0,0-14.82,8.06-37.69,9.62,0,0,8.32-5.72,11.7-11.7,3.38-5.98,7.54-15.08,11.7-18.72,0,0-11.18-4.94-26.78,7.02,0,0-.26-9.36,2.34-17.94,0,0-11.96,6.76-24.18,17.42-12.22,10.66-23.92,19.76-36.4,18.46-12.48-1.3-20.8-5.2-33.02-20.02,0,0-2.08,2.6-1.82,7.54,0,0-13.34-5.98-6.59-40.81s47.83-32.5,57.97-34.58c10.14-2.08,26-7.28,34.06-10.92s16.38-7.28,26-8.84c0,0-.26-7.54-9.1-16.12-8.84-8.58-16.9-20.02,12.22-31.46,6.5-9.1,9.36-18.2,9.36-27.04s4.55-28.29,21.19-32.93c0,0-.52,11.87,4.03,15.38s15.86,13.91,17.81,24.7c0,0,3.25-6.24,2.86-13.78,0,0,9.62,2.86,13.39,10.66,0,0,3.64-5.72,3.25-11.83,0,0,8.19,3.64,8.84,10.27,0,0,4.81-11.57,1.04-20.67,0,0,17.16,4.42,19.24,18.72,0,0,10.4-7.41,22.88-6.11,0,0-4.68,4.55-5.07,8.19,0,0,23.74,2.64,56.07-35.53Z"/>
      <path class="st4" d="M358.55,105.2s-8.49,6.07-9.01,13.86,2.08,14.21-9.36,36.4c0,0,9.19,1.04,11.44-1.21s7.45-9.01,6.24-29.46c0,0,10.4,7.11,5.2,28.77,0,0,14.38-4.85,15.42-8.84s.48-11.7-3.85-18.02c-2.91-4.25-13.3-11.79-16.08-21.49Z"/>
      <g>
        <path class="st4" d="M501.71,123.48s-37.95,45.49-13,50.95c0,0-8.84,21.32-21.32,9.1-12.48-12.22,7.54-39.77,17.16-51.47,0,0-24.7,7.54-32.24,11.18-7.54,3.64-14.56,14.3-14.56,14.3,0,0-2.6-10.14,6.5-24.44,0,0-10.4,3.9-14.3,12.22,0,0-.26-17.42-9.36-21.84,0,0-1.04,14.82-10.14,19.24,0,0-.26-7.41-3.64-9.62,0,0-3.47,7.97-8.32,8.67,0,0-.23-7.08-5.37-9.19,0,0-6.76,21.14-25.3,27.21-18.54,6.07-28.94,5.2-33.45,5.55s-13.86,4.16-13,9.53c.87,5.37,6.76,9.53,9.53,13.34s3.99,6.93,5.2,10.4,2.77,3.29,6.76,3.12,6.41-.52,5.89-4.33-1.21-9.19-3.12-12.48c0,0,7.97,2.95,7.63,15.94,0,0,10.23.87,13.52,3.29,0,0,11.09-5.72,20.45-10.57s26-14.04,31.54-12.48,18.54,15.42,7.45,20.1c0,0-2.43-15.6-17.85-10.05,0,0,17.85,16.81,17.33,33.1,0,0-15.77.52-35.01-6.07s-28.6-12.31-41.59-11.79c-13,.52-38.65,9.36-49.39,13.86-10.75,4.51-38.5,9.19-54.42,11.27-15.91,2.08-26.17,15.25-27.56,24.09s2.25,20.28,13.34,21.14,38.82-3.12,46.45-11.79c7.63-8.67,9.71-20.62,16.98-28.25,7.28-7.63,18.37-17.16,37.95-18.2,0,0-7.63,17.68-7.63,28.08,0,0,20.1-10.57,42.29-10.4,22.18.17,31.2,3.12,37.44,4.68s22.01,4.33,28.25-1.39,6.93-7.45,7.63-10.57,5.2-1.39,4.33,2.77-5.55,16.46-22.53,16.29c-16.98-.17-33.97-7.63-51.47-6.59s-37.44,4.33-50.61,13.17c-2.25,1.21-2.21,4.42-8.32,9.36s-21.19,17.42-39.64,9.49c0,0-11.44,6.11-16.12,5.98,0,0-.65,13.39-.13,18.72,0,0-9.62-1.69-18.46-16.51,0,0-9.23-.26-12.22-.52l-2.99,4.42s7.67,11.96,15.86,17.03,23.01,8.19,36.92-2.47c13.91-10.66,26.26-21.32,36.66-27.95s31.46-16.25,48.74-14.82,24.18,4.94,30.29,8.06c6.11,3.12,12.61,7.28,16.77,7.8s6.24.91,8.97,1.56,4.42,4.94-.26,5.07-12.22-2.21-19.5-5.59-23.27-11.7-38.86-10.66c-15.6,1.04-25.87,4.03-28.99,5.2s-4.42,11.7-4.42,11.7c0,0,12.87-3.64,27.3-1.56,0,0-6.5,6.37-7.67,10.27s-5.07,13-8.58,17.29c0,0,15.73,0,28.73-12.87,0,0-.39,9.49-4.03,18.07,0,0,12.09-6.5,18.85-7.54s13.65-1.56,26.13-2.34,24.57-.39,30.03-6.11c5.46-5.72,23.53-18.46,28.6-30.42,0,0,4.94,4.29.26,10.14s-29.64,30.22-24.83,46.53c0,0,16.25-9.03,27.43-34.77,0,0,10.79,13.26,15.47,28.21,0,0,5.2-23.4,2.47-34.32s-9.1-14.04-15.34-11.7c0,0-.91-9.88,9.49-8.84s14.69,7.15,16.12,11.31c0,0,8.71-25.74-19.76-38.73,0,0,5.85-7.54,9.49-5.59,2.99,1.69,1.69,5.33,1.69,5.33,0,0,21.85.19,31.07,1.3,0,0-6.37-17.16-21.32-19.76,0,0,6.24-10.27,23.66-5.98,0,0-3.38-18.85-20.02-24.7,0,0-12.87,12.87-14.82,19.37-1.95,6.5-6.5,18.63-10.79,18.61s-5.46-8.08-1.43-14.71,25.69-34.49,28.64-39.69,4.9-28.75.43-43.78Z"/>
        <path class="st4" d="M396.6,307.13s-14.56,10.23-16.81,19.06c0,0,6.93-5.2,14.04-8.32s20.1-4.51,29.29-9.36c0,0-5.55,11.61-20.1,16.64-14.56,5.03-22.36,6.59-27.9,8.84s-13.34.87-13.34.87c0,0,9.36-24.26,34.84-27.73Z"/>
      </g>
      <g>
        <path class="st6" d="M214.88,271.6s2.51,5.81,7.19,7.28c0,0-5.37,9.79-5.11,13.86,0,0-4.66-9.1-2.08-21.14Z"/>
        <path class="st6" d="M241.48,281.39s7.58-.45,11.09-1.21c0,0-1.18,7.89,0,12.56,0,0-7.8-3.55-11.09-11.35Z"/>
      </g>
      <path class="st5" d="M279.87,270.39s5.46-4.68,8.84-13,5.98-18.98,17.16-24.7c11.18-5.72,15.86-7.54,17.68-5.72s-2.6,24.18-16.12,32.76c0,0,2.34-17.68,6.24-22.1,0,0-7.93.78-11.76,12.22-3.83,11.44-7.73,20.8-22.03,20.54Z"/>
      <path class="st6" d="M376.84,207.21s12.22-5.72,17.16-8.84,8.32-5.46,18.46,5.72c0,0-10.14-1.99-13.26,1.82s-2.6,8.32-2.6,8.32l-19.76-7.02Z"/>
      <path class="st6" d="M414.97,207.3s-9.53,1.73-8.49,9.53c0,0-10.23-1.04-7.28-5.55s9.17-5.36,15.77-3.99Z"/>
      <ellipse class="st0" cx="237.72" cy="245.25" rx="40.72" ry="25.26" transform="translate(-77.25 113.14) rotate(-23.14)"/>
    </g>
    <g>
      <g>
        <polygon points="134.2 335.18 105.61 560.83 286.54 516.12 357.25 505.2 463.67 504.51 463.67 508.15 526.06 516.64 597.81 533.8 690.88 562.91 663.84 335.18 552.05 335.18 552.05 342.46 523.46 342.46 523.46 335.18 134.2 335.18"/>
        <polygon class="st1" points="587.87 523.84 586.03 516.74 582.91 523.43 526.76 509.81 469.48 502.99 469.48 482.93 468.51 482.81 468.51 497.82 377.45 497.82 377.45 497.68 353.45 498.31 285.51 509.46 113.72 551.36 139.11 339.96 354.82 339.96 355 345.06 361.68 345.06 361.68 339.96 514.1 339.96 514.1 346.11 555 346.11 554.77 339.96 659.22 339.96 684.35 552.7 587.87 523.84"/>
        <polygon points="597.74 514.32 589.22 481.56 576.21 509.51 528.88 498.03 481.43 492.38 481.43 472.35 456.56 469.31 456.56 485.88 389.4 485.41 352.32 486.39 283.13 497.75 127.64 535.67 149.71 351.9 281.51 351.9 283.12 355.93 286.32 351.9 336.06 351.9 341.55 356.88 345.42 354.94 373.63 354.94 373.63 351.9 422.19 351.9 424.53 355.2 443.27 355.2 446.91 351.9 498.24 351.9 498.24 358.06 562.83 358.06 564.26 351.9 648.6 351.9 670.35 536.04 597.74 514.32"/>
        <polygon class="st7" points="153.79 356.5 132.99 529.64 282.21 493.24 351.88 481.8 391.4 480.76 391.4 464.64 394 464.64 394 481.28 451.97 481.28 451.97 464.12 486.02 468.28 486.02 488.3 529.7 493.5 573.63 504.16 590.44 468.02 601.53 510.66 664.97 529.64 644.52 356.5 567.91 356.5 564.79 369.93 563.58 362.65 493.65 362.65 493.65 356.5 448.68 356.5 445.04 359.79 422.16 359.79 419.82 356.5 378.22 356.5 378.22 359.53 346.51 359.53 340.79 362.39 334.29 356.5 288.54 356.5 281.78 364.99 278.4 356.5 153.79 356.5"/>
      </g>
      <g>
        <path class="st3" d="M261.07,383.28v-14.56h-97.75l-2.08,17.68,29.84-.93-1.49,18.22-29.91,1.77-10.05,99.83,105.03-21.49,4.51-84.23-26.48,1.57.85-17,27.54-.86ZM188.32,419.37l-1.95,23.87-12.49,1.39,2.09-24.26,12.34-1ZM170.43,484.84l1.68-19.54,27.44-2.99,3.43-44.12,12.78-1.03-3.03,42.03,25.24-2.95-.98,16.13-66.55,12.48ZM240.44,415.16l-1.46,24.15-8.24.81,1.21-24.27,8.5-.69ZM216.84,402.07l-12.67.75,1.38-17.81,12.55-.39-1.26,17.46Z"/>
        <g>
          <polygon class="st3" points="285.82 394.66 266.09 394.66 264.01 415.16 285.06 413.1 285.06 413.1 283.73 445.38 262.54 457.02 261.07 476.26 282.99 463.27 282.99 463.27 282.38 477.9 301.45 475.82 304.22 368.72 286.89 368.72 285.82 394.66"/>
          <polygon class="st3" points="348.85 409.71 348.85 393.72 331.09 394.04 331.43 368.72 312.97 368.72 311.67 474.7 348.85 469.24 348.85 453.38 330.26 455.72 330.88 409.71 348.85 409.71"/>
        </g>
        <g>
          <path class="st3" d="M444.78,397.92h-36.92v-3.26h31.54v-8.87h-31.54v-2.6h35.18v-12.82h-35.18v-3.47h-16.81v3.47h-33.8v12.82h33.8v2.6h-31.54v8.87h31.54v3.26h-37.61v12.82h91.33c.87,0,0-12.82,0-12.82Z"/>
          <path class="st3" d="M361.41,466.38h16.64v-40.38h13v23.57h30.68v4.85h-14.9v11.96h31.72v-52.86h-77.12v52.86ZM406.47,425.65h15.25v11.61h-15.25v-11.61Z"/>
        </g>
        <path class="st3" d="M550.41,389.82v-16.38h-74.38l1.59-5.99h-20.54l-7.02,28.48h20.02l1.62-6.11h27.41l.03,11.85-36.86-1.33-4.21,33.79-8.53-.69.52,16.29,49.21,5.03.05,20.45,19.24,1.69.14-20.15,19.36,1.98,6.93-17.57-26.17-2.12.13-18.67,30.03,2.19v-19.11l-29.91-1.08.09-12.57h31.25ZM499.23,437.46l-22.16-1.79,2.5-18.17,19.62,1.43.05,18.53Z"/>
        <path class="st3" d="M654.87,506.76c-19.24-34.84-44.45-93.24-44.45-93.24l-20.38-1.44c4.98-13.92,7.9-23.25,7.9-23.25l10.92,1.47,5.2-22.85-32.24-.55c-11.7,50.17-50.43,113.86-50.43,113.86l27.04,5.72c12.33-23.49,23.2-51.16,30.4-71.04l40.31,86.38c8.84,2.6,25.74,4.94,25.74,4.94Z"/>
      </g>
    </g>
    <g>
      <polygon class="st3" points="399.8 654 405.23 670.71 422.8 670.71 408.59 681.04 414.02 697.75 399.8 687.42 385.59 697.75 391.02 681.04 376.8 670.71 394.37 670.71 399.8 654"/>
      <g>
        <polygon class="st3" points="352.19 633.89 351.27 646.3 362.79 651 350.71 653.97 349.79 666.38 343.24 655.8 331.16 658.76 339.19 649.26 332.63 638.68 344.16 643.39 352.19 633.89"/>
        <polygon class="st3" points="307.5 613.27 306.65 623.97 316.56 628.09 306.13 630.58 305.28 641.28 299.68 632.13 289.24 634.62 296.22 626.47 290.62 617.32 300.53 621.43 307.5 613.27"/>
        <polygon class="st3" points="267.95 596.68 266.92 606.62 276.07 610.68 266.29 612.77 265.26 622.72 260.24 614.07 250.46 616.16 257.14 608.72 252.13 600.07 261.27 604.12 267.95 596.68"/>
        <polygon class="st3" points="230.5 575.8 228.8 583.79 235.88 587.88 227.75 588.74 226.05 596.73 222.72 589.26 214.6 590.12 220.67 584.65 217.34 577.18 224.42 581.27 230.5 575.8"/>
        <polygon class="st3" points="202.36 554.77 199.31 560.76 204.06 565.51 197.42 564.46 194.37 570.45 193.32 563.81 186.68 562.76 192.67 559.71 191.62 553.07 196.37 557.83 202.36 554.77"/>
      </g>
      <g>
        <polygon class="st3" points="447.81 633.89 448.73 646.3 437.21 651 449.29 653.97 450.21 666.38 456.76 655.8 468.84 658.76 460.81 649.26 467.37 638.68 455.84 643.39 447.81 633.89"/>
        <polygon class="st3" points="492.5 613.27 493.35 623.97 483.44 628.09 493.87 630.58 494.72 641.28 500.32 632.13 510.76 634.62 503.78 626.47 509.38 617.32 499.47 621.43 492.5 613.27"/>
        <polygon class="st3" points="532.05 596.68 533.08 606.62 523.93 610.68 533.71 612.77 534.74 622.72 539.76 614.07 549.54 616.16 542.86 608.72 547.87 600.07 538.73 604.12 532.05 596.68"/>
        <polygon class="st3" points="569.5 575.8 571.2 583.79 564.12 587.88 572.25 588.74 573.95 596.73 577.28 589.26 585.4 590.12 579.33 584.65 582.66 577.18 575.58 581.27 569.5 575.8"/>
        <polygon class="st3" points="597.64 554.77 600.69 560.76 595.94 565.51 602.58 564.46 605.63 570.45 606.68 563.81 613.32 562.76 607.33 559.71 608.38 553.07 603.63 557.83 597.64 554.77"/>
      </g>
    </g>
    <g>
      <path class="st7" d="M374.61,581.78h-10.57l9.43-17.14c-7.5-.03-13.86-1.96-17.58-8.85-8.28-15.35,5.54-32.54,22.37-28.37,11.5,2.85,16.84,15.82,12.22,26.38l-15.87,27.99ZM370.53,536.13c-7.15,1.11-9.92,9.57-6.44,15.45,4.06,6.85,13.59,6.28,17.32-.57,4.36-8.01-2.05-16.25-10.88-14.88Z"/>
      <path class="st7" d="M413.88,581.78h-10.57l9.43-17.14c-7.5-.03-13.86-1.96-17.58-8.85-8.28-15.35,5.54-32.54,22.37-28.37,11.5,2.85,16.84,15.82,12.22,26.38l-15.87,27.99ZM409.81,536.13c-7.15,1.11-9.92,9.57-6.44,15.45,4.06,6.85,13.59,6.28,17.32-.57,4.36-8.01-2.05-16.25-10.88-14.88Z"/>
      <path class="st7" d="M459.8,527.78l-9.43,17.14c7.07,1.66,14.11,2.13,17.77,9.24,7.21,14.01-3.16,29.74-18.78,28.78-13.82-.85-21.92-16.01-15.14-28.02l15.44-27.14h10.14ZM449.44,553.56c-10.33,1.6-11.38,19.09.79,20.22,15.48,1.44,14.47-22.58-.79-20.22Z"/>
      <polygon class="st7" points="348.78 527.78 348.78 582.07 338.78 582.07 338.78 536.35 329.63 536.35 329.63 527.78 348.78 527.78"/>
    </g>
  </g>
</svg>