<?xml version="1.0" encoding="utf-8"?>
<!-- Created by @FCLOGO 2022-06-04 00:04:05 . https://fclogo.top/ -->
<!-- FOR PERSONAL USE ONLY NOT FOR COMMERCIAL USE -->
<svg version="1.1" xmlns="http://www.w3.org/2000/svg" xmlns:xlink="http://www.w3.org/1999/xlink" x="0px" y="0px"
	 viewBox="0 0 800 800" enable-background="new 0 0 800 800" xml:space="preserve">
<g>
	<path fill="#E94709" d="M400,50C206.7,50,50,206.7,50,400c0,193.3,156.7,350,350,350c193.3,0,350-156.7,350-350
		C750,206.7,593.3,50,400,50z M399.08,738.79c-186.34,0-337.4-151.06-337.4-337.41c0-186.34,151.06-337.4,337.4-337.4
		c186.34,0,337.4,151.06,337.4,337.4C736.48,587.73,585.42,738.79,399.08,738.79z"/>
	<path fill="#E94709" d="M400,158.58c-133.33,0-241.42,108.09-241.42,241.42c0,133.33,108.09,241.42,241.42,241.42
		c133.33,0,241.42-108.09,241.42-241.42C641.42,266.67,533.33,158.58,400,158.58z M400,633.24
		c-128.81,0-233.24-104.42-233.24-233.24c0-128.81,104.42-233.24,233.24-233.24c128.81,0,233.23,104.42,233.23,233.24
		C633.23,528.81,528.81,633.24,400,633.24z"/>
	<path fill="#E94709" d="M466.89,554.32c-1.64,0-18.99,14.85-21.56,17.02c-3.57,3.02-7.01,5.64-11.9,7.46
		c-2.55,0.95-12.14,5.05-14.49,5.05c-3.41,0-9.18-0.7-9.18-3.81c0-5.17,10.85-5.38,11.22-9.52h-1.53
		c-8.21,0-18.02,13.33-19.89,13.33h-1.53c-9.27,0-30.61-19.36-30.61-27.62v-1.91c0-7.54,5.23-8.64,9.69-11.43
		c3.33,0,3.24-0.95,6.12-0.95l18.92-0.31l21.89,2.69h15.81c3.21,0,13.81-4.03,16.33-5.23c5.36-2.54,7.55-5.82,11.08-10.13
		c5-6.11,10.34-21.06,10.34-31.78v-8.1c0-13.29-14.98-27.56-24.82-32.06c-7.82-3.57-11.84-5.69-21.19-7.83
		c-3.18-0.73-20.3-6.85-20.3-8.67c0-2.76,5-3.81,8.22-3.74l1.47-0.96l8.16-0.54h0.51c2.23,0,1.85,0.95,4.08,0.95h2.04
		c1.44,0,0.94-0.2,1.53-0.95c-1.65-2.11-10.82-4.28-14.79-4.28l-0.52-0.12l-8.15,0.6c-0.65,0.4-10.68,4.29-11.22,4.29
		c-1.65,0-5.61-2.31-5.61-4.29c0-2.72,11.63-7.3,15.3-7.15l10.2,0.01c-1.63-2.28-6.61-3.33-10.71-3.33h-4.59
		c-7.55,0-13.47,5.71-16.32,5.71h-1.02c-1.19,0-2.04-0.79-2.04-1.91v-0.47c0-3.25,13.25-10.48,17.34-10.48h9.18
		c2.38,0,1.6,0.95,5.1,0.95c-0.78-2.74-10.87-5.75-15.32-5.35l-5.6,0.58c-1.52,0.95-6.07,2.41-8.43,3.56
		c-1.76,0.85-6.48,5.01-7.38,5.01h-1.02c-0.83,0-1.53-0.29-1.53-0.95c0-6.86,12.47-10.28,17.35-13.23l8.15-0.57
		c2.45-0.2,4.55,0.9,7.14,0.95c-0.07-2.87-1.94-2.49-4.53-3.39c-1.07-0.37-4.92-1.84-6.19-1.84h-3.06
		c-13.86,0-22.97,10.48-23.46,10.48c-3.23,0-8.67-9.29-8.67-11.43v-0.48c0-1.45,6.11-3.71,7.83-4.59c2.49-1.26,4.03-4.42,5.63-6.65
		c1.77-2.46,3.21-5.04,4.98-7.26c3.31-4.15,4.22-1.98,10.12-1.98c4.22,0,4.78-3.33,8.16-3.33h2.04c2.85,0,8.67,1.88,8.67,4.28v0.95
		c0,4.66-8.88,7.2-11.22,10.48c3.62,1.62,17.35-6.06,17.35-12.86c0-5.58-10.71-10.38-10.71-11.43c0-1.99,3.77-6.25,4.8-8.85
		c0.98-2.48,1.18-9.72,4.38-9.72c4.43,0,3.43,4.91,6.63,5.71c0-4.79-1.92-10-6.63-10c-8.4,0-11.69,16.19-15.81,16.19
		c-1.57,0-3.06-0.44-3.06-1.9v-0.95c0-3.25,4.59-6.09,4.59-10.47v-3.81c0-2.06-1.02-1.92-1.02-3.33c0-1.1,0.36-1.43,1.53-1.43h3.57
		c-0.06-2.69-2.29-3.33-5.1-3.33h-0.51c-2.54,0-10.71,8.63-10.71,12.86v2.38c0,3.57,2.04,7.94,2.04,8.57v2.38
		c0,1.55-9.78,13.33-13.26,13.33h-1.02c-1.29,0-2.55-1.97-2.55-2.86v-4.28c0-1.65,1.02-0.73,1.02-2.38v-4.28
		c0-2.4-1.69-3.33-4.08-3.33c-5.73,0-12.71,6.67-14.28,6.67h-1.53l-0.61-0.07l1.63-13.27c1.36-1.9,4.39-11.97,6.29-15.55
		c3.4-6.39,5.47-7.28,10.43-11.69c7.57-6.75,18.35-12.27,32.76-12.27h3.06c11.92,0,18.69,2.14,27.1,5.17
		c8.37,3.02,13.7,7.39,13.7,18.16v0.48c0,9.38-13.77,20.52-13.77,34.76v0.95c0,6.82,4.08,14.27,4.08,15.71
		c0,0.91-0.97,1.97-1.54,2.01l-5.6-0.58c0.39,4.31,7.65,1.97,7.65,4.28c0,2.14-3.57,2.54-3.57,3.81c0,1.1,0.35,1.43,1.53,1.43
		c4.09,0,5.22-2.38,7.14-2.38c0.83,0,1.53,0.28,1.53,0.95c0,4.6-6.12,4.52-6.12,6.19c0,1.1,0.35,1.43,1.53,1.43h0.51
		c4.19,0,7.81-5.24,8.67-5.24c1.38,0,2.04,1.27,2.04,2.38c0,2.22-1.02,1.49-1.02,4.76c6.51-0.14,11.22-5.61,11.22-11.9v-0.48
		c0-2.05-0.59-2.58-1.02-4.28h-2.55c-0.98,0-2.04-0.85-2.04-1.43c0-3.46,0.87-4.96,1.64-7.72l-1.64-1.33
		c-2.95,2.02-0.78,6.19-5.61,6.19c-4.74,0-8.16-6.29-8.16-10.95v-3.81c0-7.74,5.66-29.52,11.73-29.52h2.04c2.7,0,4.55,4.8,5.62,6.73
		l5.61-0.54h0.51c1.35,0,3.76,2.44,3.69,3.82l-0.63,5.22c1.78-0.39,1.72-0.95,3.57-0.95h1.02c2.14,0,3.85,1.22,3.69,3.35l-0.62,5.22
		c2.43,1.2,8.67,1.58,8.67,4.76v0.48c0,5.23-7.19,5.53-9.18,9.05c0.53,0.74,0.68,1.43,2.04,1.43h1.02
		c10.09,0,16.24-10.95,18.87-10.95c2.17,0,3.57,2.95,3.57,5.24v1.91c4-0.08,10.71-8.32,10.71-12.38v-1.9c0-4.28-6.15-5.5-9.31-8.45
		c-5.28-4.93-3.95-5.27-3.95-12.98c0-3.07-4.08-7.87-4.08-9.05v-0.48c0-0.16,2-12.18,2.35-14c0.72-3.7,0.71-11.37,0.71-15.52v-4.28
		c0-6.96-2.43-30.54-7.65-30.95l0.01,1.9l2.55,17.62v7.14c0,6.42-3.74,27.62-7.65,27.62c-3.4,0-3.93-2.07-4.09,2.37
		c-0.06,1.85-0.85,5.24-2.54,5.24c-2.78,0-8.82-5.8-11.31-7.54c-2.92-2.04-9.56-5.34-10.9-7.91c-1.8-3.43-4.66-8.92-7-11.56
		c-1.66-1.88-8.36-8.62-8.54-10.6c5.86,0.12,14.64,9.55,17.34,13.33c1.35,1.89,4.7,8.17,6.12,9.05c3.31,2.09,6.49,4.18,9.7,6.18
		c2.22-1.51,2.11-9.2,2.52-12.41c0.25-2.02,0.42-5.44,0.55-7.11c0.2-2.65,1.02-5.85,1.02-6.67v-13.33
		c0-21.79-10.48-39.48-22.32-50.59c-7.6-7.14-13.24-9.52-23.08-14.17c-4.52-2.13-23.47-8.09-29.59-8.09c-1.17,0-0.59,0.16-2.04,0.48
		v1.43c14.89,3.71,27.18,10.22,37.84,18c7.59,5.54,21.33,21.98,21.33,33.89c2.02,2.82,2.04,9.62,2.04,14.28v3.81
		c0,3.68,0.26,16.66-3.06,16.66h-0.51c-0.37,0-14.46-11.06-16.73-12.48c-6.68-4.16-12.37-6.34-19.27-10.1
		c-4.58-2.5-15.61-6.91-20.93-8.56c-7.94-2.46-13.84-5.72-20.95-8.54c-12.22-4.85-26.97-14.75-35.23-23.3
		c-5.88-6.09-8.58-7.94-13.22-15.75c-1.47-2.48-3.73-6.93-4.7-9.42c-1.21-3.08-1.89-9.21-5.16-9.47c-0.33,1.28-0.51,0.9-0.51,1.9
		c0,11.58,12.75,29.71,18.57,36.95c6,7.48,23.37,20.02,33.03,23.93c6.12,2.47,12.84,6.34,19.14,9.27
		c6.31,2.94,13.18,6.57,19.06,9.82c5.83,3.22,12.54,6.7,17.47,10.84c3.71,3.12,11.09,11.34,11.09,17.27v1.9
		c0,1.1-0.35,1.43-1.53,1.43c-5.93,0-18.25-21.71-20.91-22.38c-0.08,3.19-3.55,14.28-6.12,14.28c-2.89,0-4.72-18.09-22.44-18.09
		l-3.08-0.18l-9.67,1.13c0.13,5.3,14.28,7.24,14.28,15.71v1.43c0,2.28-3.38,3.8-5.61,4.28c-5.36-2.65-7.29-10-17.34-10h-1.02
		c-6.14,0-20.29,6.51-20.4,11.43c2.45-0.19,7.42-2.38,7.65-2.38h3.57c4.12,0,9.18,4.97,9.18,9.05v1.9c0,2.41-3.08,6.67-5.61,6.67
		c-7.54,0-7.53-3.58-16.49,1.27c-3.08,1.67-9.71,6.95-10.03,10.63c3.05-0.06,3.52-1.9,7.65-1.9c3.29,0,7.65,3.22,7.65,6.19v0.48
		c0,5.18-16.11,5.68-16.32,14.76c1.6-0.12,1.81-0.48,3.57-0.48h1.53c1.08,0,3.06,1.48,3.06,2.38c0,1.95-14.28,10.34-14.28,19.52
		v1.43c0,1.82-0.16,0.17,0.51,1.43c3.6-0.9,3.08-5.71,9.18-5.71c1.19,0,2.04,0.79,2.04,1.91v0.48c0,1.75-9.69,10.04-9.69,16.66v5.71
		c0,1.44,0.6,1.32,2.04,1.43c0.66-2.29,5.05-11.9,7.65-11.9h0.51c2.38,0,3.06,3.8,3.06,6.19v1.43c0,3.9-7.65,7.57-7.65,13.33v4.76
		c0,0.78,0.31,1.43,1.02,1.43c2.06,0,3.41-5.71,9.69-5.71c5.54,0,7.97,3.08,10.06,6.21l1.17,9.98c-0.41,0.27-1.26,0.95-1.53,0.95
		c-3.68,0-8.35-3.33-14.79-3.33h-0.51c-1.95,0-0.19-0.15-1.53,0.48c0.75,2.62,3.06,2.02,3.06,5.24c0,1.46-1.49,1.9-3.06,1.9H346
		c-20.39,0-26.48-46.55-25.69-69.52l1.13-30.52l1.09-1.37c0-8.79,2.05-17.16,3.01-24.81c0.92-7.3,4.13-17.74,4.13-23.76
		c0.78-1.09,3.84-10,1.53-10c-4.32,0-40.19,57.21-44.88,64.76c-5.68,9.15-14.46,25.69-18.18,36.36c-1.1,3.16-2.66,6.49-4.03,9.57
		c-1.13,2.56-2.36,7.74-3.22,10.33c-1.19,3.6-4.68,19-4.68,22.77v17.14c0,4.42,4.14,16.12,6.02,19.14c2.28,3.66,2.2,4.18,5.01,7.71
		c1.23,1.55,5.81,6.24,5.81,7.43c0,3.53-18.72,5.71-24.49,5.71c-3.31,0-5.82-2-6.12,1.43c3.92,0.85,7.83,1.93,12.75,1.91
		c2.59-0.01,13.27-0.1,13.27,0.95c0,3.17-9.62,6.29-12.96,7.43c-5.09,1.74-13.95,2.1-17.14,3.52v1.9
		c4.33,0.94,17.34,0.37,20.91-0.96c2.86-1.07,5.92-1.28,8.93-2.62c1.15-0.51,7.79-3.57,7.91-3.57c0.62,0,1.53,0.99,1.53,1.9v1.91
		c0,6.22-10.41,17.76-14.4,21.32c-2.52,2.25-7.64,5.48-11.03,6.84c-2.12,0.86-4.07,1.62-6.55,2.46c-2.42,0.81-6.79,0.45-6.79,2.71
		c0,1.1,0.36,1.43,1.53,1.43h1.53c4.46,0,6.87-1.9,11.73-1.9c2.46-1.54,9-2.42,12.66-4.38c2.84-1.51,8.32-4.8,10.68-6.7
		c4.84-3.88,4.25-4.77,7.69-9.01c3.8-4.67,3.35-6.04,6.03-11.03c2.66-4.95,2.06-8.32,3.74-12.7c2.06-5.37,2.32-6.88,5.41-11.61
		c2.74-4.19,11.99-16.48,17.55-16.48c1.7,0,6.6,5.24,12.24,5.24h2.55c9.48,0,10.04-10.47,13.26-10.47h1.02
		c5.52,0,17.88,4.92,21.32,7.15l0.61,5.7c1.02,8.18-9.07,20.57-13.39,24.64c-5.47,5.16-16.64,11.54-27.42,11.54h-3.57
		c-2.9,0-12.24-1.51-12.24,0c0,2.24,11.69,4.69,14.44,5.57c3.85,1.23,15.34,0.4,18.7-0.83c3.2-1.16,4.21-0.34,7.77-2.27
		c2.56-1.39,4.09-1.82,6.54-3.42c2.82-1.85,9.03-8.04,12.24-8.1c0,11.19-23.27,21.33-23.97,23.81c6.97,0,18.25-6.75,22.54-9.91
		c4.2-3.09,4.9-4.56,8.19-8.06c1.94-2.06,4.62-9.17,7.01-9.17h0.51c0.99,0,2.04,0.85,2.04,1.43c0,3.6-6.86,12.8-8.98,15.43
		c-2.5,3.1-12.39,9.92-12.96,12.19c3.75-0.29,17.76-9.27,19.7-11.61c2.63-3.16,4.74-5.06,6.99-8.71c1.08-1.75,4.54-9.68,5.95-9.68
		c1.38,0,1.41,0.23,2.55,0.48c0.16,0.56,0.51,1.3,0.51,1.43c0,8.14-10.46,18.56-10.71,21.43c4.3-0.94,11.5-9.79,13.61-13.48
		c7-12.28-1.04-9.31,17-9.37c5.54-0.02,17.95,4.21,21.33,6.28c5.8,3.56,10.81,7.72,10.81,16.58v1.43
		c0,12.41-12.72,26.26-26.52,26.19c-4.98-0.02-8.29,0.47-12.76,0.48c-7.16,0.01-5.54-1.03-8.8-4.64c-3.08-3.41-10.63-10-16.7-10.12
		c0.32,3.59,10.2,4.61,10.2,8.57v0.95c0,2.25-6.61,4.28-8.67,4.28c-2.27,0-10.69-11.9-20.91-11.9h-2.04
		c0.84,2.93,11.73,3.68,11.73,7.62v0.48c0,2.55-6.01,4.9-8.99,4.59c-4.24-0.44-6.83-2.68-11.93-2.68h-4.08
		c-2.62,0-7.05,1.44-8.15,2.98l6.11-0.6c1.9-0.2,3.05,0.48,5.61,0.48c0.38,0.53,1.53,1.6,1.53,1.91c0,4.93-8.67,10-13.26,10h-1.53
		c-4.91,0-9.69-7.55-9.69-12.38c0-11.23,7.05-13.01,7.14-16.66c-6.95,0.15-15.81,7.65-15.81,14.76v5.71c0,3.5,2.55,8.41,2.55,9.05
		v1.9c0,3.3-10.84,10.48-16.32,10.48c-4.02,0-6.63-3.35-6.63-7.14c0-2.22,1.53-2.7,1.53-6.66h-1.53c-3.66,0-7.15,10.25-6.71,14.77
		l0.59,6.18c1.26,1.75,1.66,4.76,4.59,4.76c3.95,0,7.86-6.19,11.22-6.19h2.55c1.23,0,3.06,1.71,3.06,2.86v0.48
		c0,3.82-8.2,17.62-12.24,17.62h-1.53c-1.87,0-2.38-2.17-5.1-2.38c0.36,4.02,5.45,9.52,10.2,9.52h2.04
		c8.33,0,13.83-18.09,16.83-18.09c2.42,0,2.55,5.14,2.55,7.62v2.38c0,1.48-2.93,7-3.87,8.29c-2.19,3.02-6.1,3.86-6.33,6.47
		c13.55-0.28,20.32-26.19,21.93-26.19c2.89,0,4.41,6.26,5.81,8.38c2.31,3.52,4.13,4.86,6.53,7.72c4.85,5.8,9.87,8.1,17.41,11.36
		c4.28,1.85,7.04,1.65,11.89,2.71c3.11,0.68,11.78,0.61,13.27,1.42c5.7,3.12,10.81,8.88,20.07,8.88h3.06c1.44,0,0.94-0.2,1.53-0.95
		c-2.55-3.25-14.79-2.19-14.79-7.14c0-2.16,3.8-4.29,6.63-4.29c3.79-2.37,11.34-4.36,16.15-6.83c5.8-2.97,9.56-4.49,14.33-8.53
		c5.08-4.31,7.05-6.31,11.48-11.18C459.62,565.99,470.66,554.32,466.89,554.32z"/>
	<path fill="#E94709" d="M549.53,329.59c-2.82,0-2.74,7.28-3.35,10.2c-0.86,4.16-1.81,6.66-2.87,10.65
		c-1.76,6.62-4.59,14.07-7.25,20.37c-5.5,12.98-12.82,23.97-20.69,34.49c-7.51,10.03-18.65,19.32-29.6,26.18
		c-5.06,3.16-13.1,7.34-19.49,8.95c-6.18,1.55-16.75,4.82-23.36,5.33l0.06,0.73l5.55,1.65c7.85,0,20.3,6.4,25.2,9.8
		c2.87,1.99,6.08,6.24,7.79,9.4c2.6,4.78,1.92,8.41,3.23,13.65c4.27-2.92,8.73-20.39,21.95-27.6c6.9-3.76,10.24-5.1,19.86-4.75
		c6.72,0.24,5.75,0.61,10.93,1.7c4.61,0.97,7.67,3.51,9.5,3.51h1.53c7.35,0,17.34-7.35,20.51-11.81c3.95-5.57,7.55-14.9,7.55-23.9
		v-3.81c0-14.72-6.36-33.46-10.41-45.04C564.43,364.36,551.88,329.59,549.53,329.59z"/>
	<path fill="#E94709" d="M534.23,486.71h-0.51c-2.29,0-6.16,6.19-10.2,6.19c-1.41,0-3.57-0.83-3.57-2.38v-0.48
		c0-5.39,5.93-15.71,11.23-15.71c3.16,0,3.7,3.47,6.12,4.29v-1.43c0-2.53-5.77-9.05-9.18-9.05h-1.02
		c-9.55,0-13.64,16.19-16.32,16.19c-1.59,0-2.55-2.36-2.55-3.81v-6.19c0-4.11,3.86-7.08,5.61-9.52
		c-5.46,0.42-11.7,10.75-13.16,15.33c-0.85,2.64-2.45,8.45-3.8,10.26c-3.82,5.17-4.03,3.49-8.54,6.31c-5.26,0-3.56,1.86-3.56,7.15
		c0,3.43-1.02,5.85-1.75,8.84c-1.31,5.34-3.62,11.15-6.31,15.06c-2.45,3.56-6.96,8.64-10.51,11.14c-2.31,1.62-13.47,7.5-14.08,8.31
		l11.22-1.46c9.81-6.13,12.56-4.95,21.29-13.93c2.69-2.77,5.57-6.86,7.28-10.34c1.41-2.88,2.82-11.44,6.11-11.44h1.53
		c5.05,0,9.69,5.48,9.69,9.52v5.71c0,4.15-6.12,8.11-6.12,9.05c0,1.27,0.74,1.41,1.53,1.9c5.34-2.64,12.24-7.37,12.24-14.76v-3.33
		c0-4.56-3.06-7.67-3.06-10.95c0-3.18,8.77-9.52,14.28-9.52h1.02c1.72,0,4.08,2.13,4.08,4.29v6.67c3.42-0.07,5.61-4.64,5.61-7.62
		v-4.76C538.82,492.43,537.87,486.71,534.23,486.71z"/>
	<path fill="#E94709" d="M260.3,367.2l0.57,0.21l8.1-20.68c-1.69,1.05-5.21,5.24-7.14,5.24h-0.51c-1.41,0-3.06-2.36-3.06-3.33
		l-0.04-6.19l0.04-10.47c-2.67,0.67-4.08,4.68-4.08,7.62v8.57C254.18,353.88,256.88,365.06,260.3,367.2z"/>
	<path fill="#E94709" d="M317.04,278.75c1.53-1.47,6.51-7.35,7.02-9.16c-3.86,0.3-4.65,3.81-8.67,3.81c-1.19,0-2.04-0.79-2.04-1.9
		v-2.38c0-5.09,3.57-11.24,3.57-12.38v-0.95c0-0.78-0.31-1.43-1.02-1.43c-4.56,0-7.65,14.31-7.65,20l-0.19,5.27l1.21,7.11
		C312.94,286.45,314.75,280.94,317.04,278.75z"/>
	<path fill="#E94709" d="M564.32,317.68l2.04,12.86c0.3,1.7-0.75,4.28-2.55,4.28c-4.82,0-4.1-5.14-8.89-5.14l10.42,18.94
		c3.91-2.44,5.1-13.47,5.1-20c0-4.18-1.74-12.08-5.61-12.38C564.7,316.7,564.31,317.64,564.32,317.68z"/>
	<path fill="#E94709" d="M296.72,302.64c2.24-2.85,4.16-5.18,5.92-8.28c-3,0.23-3.51,1.91-6.12,1.91h-1.02
		c-1.57,0-2.04-1.39-2.04-2.86v-1.91c0-4.16,3.57-9.51,3.57-13.33c-5.41,0.42-8.16,12.73-8.16,19.04v8.09
		c0,2.05,0.59,2.58,1.02,4.28C293.36,309.52,294.98,304.85,296.72,302.64z"/>
	<path fill="#E94709" d="M275.56,338.14l8.71-17.6c-1,0.62-4.63,3.33-5.61,3.33h-1.53c-1.14,0-1.12-0.38-1.91-0.97l-0.64-3.79
		c-0.35-2.07,1.58-10.06,2.01-11.89l-0.48-1.44h-1.53c-0.64,2.24-3.57,5.14-3.57,9.52v12.38
		C271.01,330.57,272.96,337.95,275.56,338.14z"/>
	<path fill="#E94709" d="M585.24,357.2v-3.81c0-3.48-0.39-7.09-2.61-8.64l-1.41,1.09c-0.06,4.06,1.47,17.07-2.61,17.07h-0.51
		c-2.59,0-4.1-3.78-6.12-4.28l-0.56,0.17l6.68,17.92C581.42,374.64,585.24,363.08,585.24,357.2z"/>
	<path fill="#E94709" d="M580.56,386.73l2.13,18.09c6.17-1.54,12.75-18.59,12.75-27.62v-0.48c0-0.78-0.31-1.43-1.02-1.43
		c-3.73,0-2.32,16.19-7.65,16.19C583.16,391.48,583.51,388.52,580.56,386.73z"/>
	<path fill="#E94709" d="M445.47,504.8c-5.04,1.26-3.84,10-23.46,10l-2.55,6.66h5.1C433.38,521.47,445.29,512.23,445.47,504.8z"/>
	<path fill="#E94709" d="M351.8,661.07c-1.39-1.54-3.19-2.88-5.4-4.02c-2.21-1.14-4.74-2.06-7.61-2.76
		c-2.47-0.61-4.92-0.93-7.35-0.96c-2.44-0.04-4.7,0.3-6.79,1.01c-2.09,0.71-3.92,1.85-5.48,3.41c-1.56,1.57-2.44,2.78-3.12,5.4
		l12.66,2.96c2.53-8.22,15.29-5.91,13.74,2.42c-0.36,1.92-3.34,3.82-5.37,5.14c-2.35,1.52-4.37,2.59-7.22,3.88
		c-2.92,1.32-5.64,2.65-9.23,4.01c-3.47,1.33-7.16,2.43-10.9,3.61l-2.22,9.08l39.54,8.93l1.09-6.9l-25.77-6.11
		c28.31-10.41,34.22-14.09,32.24-23.96C354.23,664.31,353.19,662.61,351.8,661.07z"/>
	<path fill="#E94709" d="M398.09,668.21c-1.48-2.09-3.43-3.74-5.82-4.97c-2.4-1.23-5.31-1.95-8.73-2.18
		c-3.27-0.22-6.16,0.13-8.68,1.03c-2.52,0.9-4.67,2.3-6.46,4.19c-1.78,1.89-3.18,4.22-4.18,6.99c-1,2.77-1.62,5.91-1.85,9.42
		c-0.25,3.72-0.08,7.07,0.51,10.04c0.58,2.97,1.61,5.52,3.07,7.65c1.46,2.13,3.39,3.82,5.79,5.06c2.4,1.25,5.3,1.98,8.72,2.21
		c3.38,0.22,6.34-0.14,8.88-1.08c2.54-0.94,4.69-2.39,6.44-4.35c1.75-1.96,3.11-4.36,4.08-7.21c0.97-2.85,1.58-6.09,1.81-9.73
		c0.23-3.51,0.06-6.72-0.51-9.61C400.6,672.79,399.57,670.3,398.09,668.21z M388.93,684.62c-0.33,5.39-1.12,9.47-2.37,12.25
		c-1.25,2.78-3.2,4.09-5.85,3.93c-2.52-0.15-4.27-1.58-5.25-4.28c-0.98-2.7-1.29-6.96-0.93-12.78c0.15-2.37,0.4-4.52,0.76-6.44
		c0.36-1.93,0.87-3.56,1.53-4.9c0.65-1.34,1.46-2.38,2.42-3.1c0.96-0.72,2.12-1.04,3.46-0.96c2.68,0.17,4.48,1.57,5.38,4.22
		C388.98,675.21,389.26,679.23,388.93,684.62z"/>
	<path fill="#E94709" d="M428.54,661.12c-2.07,1.52-4.66,3.17-6.73,4.46c-2.07,1.29-4.3,2.7-6.71,3.53l0.95,9.75
		c2.01-0.83,3.9-1.75,5.66-2.74c1.76-0.99,5.45-3.62,7.41-5.01l3.23,34.95l11.75-1.38l-4.8-44.78L428.54,661.12z"/>
	<polygon fill="#E94709" points="454.33,658.43 456.52,666.27 481.07,659.01 473.58,699.68 485.97,696.51 492.19,656.3 
		489.42,648.18 	"/>
	<path fill="#E94709" d="M155.09,286.19l5.3-9.52l-25.66-22.51c-2,2.23-5.01,10.54-5.01,10.54s3.48,3.44,9.28,8.7
		c-4.26,7.09-8.3,17.05-8.3,17.05l-10.49-7.49l-5.38,10.37l26.81,18.44l4.9-10.08c0,0-8.12-5.2-11.64-8.58
		c0,0,6.74-13.75,9.12-16.28C148.71,280.12,155.09,286.19,155.09,286.19z"/>
	<path fill="#E94709" d="M119.46,334.47c6.82-13.94,11.48-10.44,8.58,0.58c-3.23,12.29-9.28,8.87-9.28,8.87l-3.67,11.64
		c2.06,1.21,7.83,3.34,13.41-7.37c2.33-4.47,4.61-12.13,5.85-23.04c0.3-2.68-0.72-12.44-5.79-12.61c-3-0.1-6.22,1.6-12.56,13.13
		c-3.6,6.54-4.47,10.24-7.39,10.08c-2.54-0.13-3.83-3.9-1.77-10.31c3.43-10.67,7.99-6.57,7.99-6.57l4.11-11.18
		c0,0-9.79-5.82-16.79,14.61c-5.01,14.63-2.42,22.96,0.71,25.77C109.03,353.59,115.74,342.08,119.46,334.47z"/>
	<path fill="#E94709" d="M671.03,325.37c0,17.4,9.1,30.42,16.59,30.42c1.73,0,3.51-0.53,3.51-0.53l-3.97-11.79
		c0,0-5.6,2.07-8.88-6.22c-2.8-7.1-1.11-11.87,3.92-15.67c5.03-3.8,12.13-5.51,15.79,1.61c4.99,9.72-1.15,15.5-1.15,15.5l4.26,12.04
		c0,0,6.11-2.46,5.76-13.37c-0.17-5.53-4.84-31.11-19.7-31.11C679.1,306.24,671.03,312.92,671.03,325.37z"/>
	<path fill="#E94709" d="M666.77,286.88l8.64,18.67l4.72-3.8l-9.1-18.32l5.88-4.72l10.26,20.51l4.95-3.46l-16.02-31.34
		c0,0-13.6,11.87-25.66,21.59l5.26,8.26L666.77,286.88z"/>
	<path fill="#E94709" d="M651.9,247.25c3.26,0.04,6.39-3.86,6.34-7.95c-0.06-4.09-3.11-11.06-7.95-17.63
		c-4.62-6.27-11.87-13.83-11.87-13.83l-22.85,25.5l6.6,8.72l9.3-10.87c0,0,4.41,6.05,6.38,8.76c1.97,2.7,0.45,5.59-0.45,6.78
		c-0.9,1.19-6.16,8.58-6.16,8.58l6.76,9.68c0,0,1.08-3.99,2.61-6.14c1.53-2.15,3.11-4.6,3.91-5.84c0.81-1.24,1.61-3.23-0.11-9.68
		C646.49,245.56,648.64,247.21,651.9,247.25z M642.84,236.42c-0.99-1.18-7.37-9.37-7.37-9.37l5.95-6.53c0,0,5.15,6.64,5.89,7.63
		c1.87,2.51,2.45,5.51,0.98,8.27C647.01,238.83,644.07,237.88,642.84,236.42z"/>
	<path fill="#E94709" d="M617.56,218.52c6.11-5.91,15.67-18.05,15.67-18.05l-7.84-7.84c0,0-9.09,11.76-13.06,16.9
		c-3.97,5.14-9.53,3.96-12.75-0.69c-3.22-4.65-4.5-7.45-1.44-12.69c3.05-5.24,12.89-18.8,12.89-18.8l-7.92-7.84
		c0,0-7.01,11.04-11.22,17.67c-4.21,6.63-2.41,19.51,3.69,25.5C603.35,220.31,611.46,224.43,617.56,218.52z"/>
	<path fill="#E94709" d="M555.45,177.42l6.57-5.41l12.91,10.25l-1.04,9.22l7.49,6.11c0,0,6.11-32.95,5.42-42.75
		c0,0-5.3-4.49-9.1-6.68c-14.98,10.37-29.27,23.74-29.27,23.74L555.45,177.42z M578.73,158.58l-2.08,16.88l-9.91-7.83L578.73,158.58
		z"/>
	<path fill="#E94709" d="M521.23,142.16c0,0-5.65,10.02,5.76,17.28c11.41,7.26,17.98,7.37,22.13,3.57
		c4.15-3.8,4.31-11.68-5.88-19.24c-14.29-10.6-5.42-14.06,1.27-10.37c5.21,2.87,3.92,7.72,3.92,7.72l7.68,4.8
		c2.46-8.49-1.11-12.29-8.49-17.59c-7.37-5.3-15.21-4.61-18.78-1.27c-3.57,3.34-6.51,8.7,4.26,17.28
		c17.06,13.6,5.76,16.25-0.35,11.87c-6.11-4.38-3.92-9.68-3.92-9.68L521.23,142.16z"/>
	<path fill="#E94709" d="M504.63,146.7c8.14,0,15.06-5.99,15.2-19.2c0.14-13.21-10.9-21.66-22.11-21.51
		c-11.22,0.15-16.59,11.52-16.59,20.36C481.13,139.78,495.57,146.7,504.63,146.7z M500.48,113.05c5.53,0,11.68,4.84,11.68,11.41
		c0,6.57-4.15,15.63-10.45,15.63c-6.15,0-11.37-4.46-11.37-10.45S492.96,113.05,500.48,113.05z"/>
	<path fill="#E94709" d="M454.04,117.97c9.13,1.33,12.33,0.23,11.75,8.37c-0.33,4.68-0.58,9.14-0.58,9.14l10.26,2.19
		c-0.86-0.98-0.92-4.44-0.92-6.57c0-2.13,0.07-4.38,0.11-5.88c0.16-4.8-4.72-7.6-4.72-7.6s9.79-0.9,9.22-10.02
		c-0.52-8.32-11.26-11.21-21.55-12.83c-5.39-0.84-9.68-1.69-9.68-1.69l-4.27,38.48l8.88,1.15L454.04,117.97z M456.47,101.49
		c9.68,1.38,13.14,3.8,13.02,7.03c-0.05,1.43-1.46,5.47-7.26,4.29c-5.8-1.17-7.26-1.76-7.26-1.76L456.47,101.49z"/>
	<path fill="#E94709" d="M438.49,123.61c0,0-5.65-1.15-17.86-1.96l0.23-9.91c6.34,0.12,16.82,1.84,16.82,1.84s0.43-3.63,0.57-6.57
		c0,0-9.68-1.61-16.71-1.5v-8.64c3.46-0.35,18.83,1.64,18.83,1.64s0.2-2.63,0.3-6.25c-11.18-2.42-28.23-2.42-28.23-2.42l-0.92,38.14
		l26.74,2.07C438.26,130.07,438.6,127.7,438.49,123.61z"/>
	<path fill="#E94709" d="M386.52,96.65l0.92,31.57h8.76l-0.46-32.26c6.8-0.25,12.79,0,12.79,0v-6.11c-10.6-1.38-35.3,1-35.3,1
		l0.37,6.57C373.6,97.43,382.79,96.69,386.52,96.65z"/>
	<path fill="#E94709" d="M355.83,132.64l-1.77-14.52c0,0,6.07-1.08,10.75-3.07c4.69-2,8.77-6.55,6.76-14.44
		c-2.31-9.06-11.98-7.91-16.06-7.07c-4.07,0.84-14.06,2.84-14.06,2.84l6.07,37.64L355.83,132.64z M362.28,102.91
		c2.32,9.12-9.45,8.76-9.45,8.76l-1.31-10.68C351.52,100.99,361.13,98.38,362.28,102.91z"/>
	<path fill="#E94709" d="M299.74,147.46c7.76,0,22.82-6.45,22.82-17.86c0-6.95-5.88-26.73-5.88-26.73l-8.87,3.4
		c0,0,5.93,21.07,5.99,24.98c0.08,5.07-3.86,8.41-9.91,8.91c-3.69,0.31-6.1-2.57-6.91-4.38c-0.82-1.81-7.03-23.08-7.03-23.08
		l-8.18,4.19c0,0,4.65,16.82,5.61,20.28C288.33,140.63,291.99,147.46,299.74,147.46z"/>
	<path fill="#E94709" d="M269.55,164.46l7.76-4.78c0,0-2.4-6.63-4.53-10.45l4.53-30.49l-9.14,4.76l-2,19.36
		c-4.3-4.84-14.21-10.06-14.21-10.06l-10.14,5.61c0,0,14.88,9.52,23.01,14.71L269.55,164.46z"/>
	<path fill="#E94709" d="M224.9,191.59c3.52,0,6.91-0.96,11.18-3.57c4.26-2.61,17.34-14.81,17.34-14.81l-8.68-16.76l-14.88,10.89
		l3.57,5.82l6.32-5.18l3.76,5.91c0,0-5.15,5.45-7.99,7.22c-2.84,1.77-3.76,2.38-6.3,2.15c-2.54-0.23-9.53-4.3-10.91-15.44
		c-0.46-3.68,6.68-13.75,12.21-13.9c2.31-0.06,4.23,2.94,4.23,2.94l8.53-6.11c0,0-1.53-5.13-8.14-5.13
		c-8.22,0-25.24,11.18-25.24,26.81C209.9,185.95,220.58,191.6,224.9,191.59z"/>
	<path fill="#E94709" d="M198.28,224.32c-7.55-9.1-18.27-22.24-18.27-22.24s14.02,3.8,28.87,9.97c3.11-3.11,8.28-7.59,9.85-9.74
		c-8.8-13.52-18.84-30.19-18.84-30.19l-7.43,7.09c0,0,10.94,14.84,15.84,23.16c-8.97-4.21-28.35-9.71-28.35-9.71l-10.63,12.33
		L192,231.4C192,231.4,196.61,226.22,198.28,224.32z"/>
	<path fill="#E94709" d="M168.61,263.99l-3.46-8.22l10.77-15.27l7.2,2.42l6.05-8.47c0,0-30.02-12.33-33.65-12.39
		c-3.9,4.97-8.12,11.06-8.12,11.06s9.19,24.91,15.36,39.39C166.76,266.49,168.61,263.99,168.61,263.99z M156.51,233.3
		c3.57,0.35,13.6,4.78,13.6,4.78l-7.55,11.12C162.56,249.2,159.02,241.25,156.51,233.3z"/>
	<path fill="#E94709" d="M134.17,384.31c-0.87-0.85-2.64-2.05-3.82-2.85l-0.09-0.06c-5.22-3.54-11.51-5.41-18.19-5.41
		c-6.46,0-12.64,1.75-17.9,5.05c-15.32,9.64-19.97,29.61-10.58,45.47c5.78,9.78,16.74,15.85,28.59,15.85c0,0,0,0,0,0
		c6.18,0,12.13-1.7,17.2-4.91c5.95-3.77,9.7-7.92,12.57-13.88c1.57-3.26,2.56-6.62,3.04-10.28c0.25-1.89,0.31-3.97,0.2-6.16
		C144.76,398.93,140.84,390.82,134.17,384.31z M94.94,393.36c0.01-0.54,0.03-1.19,0.04-1.97c0.01-1.18,0.03-2.37,0.04-3.55
		c0.03-1.83,0.05-3.67,0.06-5.5c0.46-0.24,0.9-0.48,1.34-0.72c1.65-0.9,3.2-1.74,5.52-2.52c2.82-0.94,5.85-1.51,8.37-1.56
		c0.13,0.21,0.3,0.47,0.5,0.77c0.61,0.89,1.51,2.14,2.51,3.51c1.26,1.74,2.97,4.09,3.95,5.6c0.44,0.69,0.73,1.2,0.76,1.4
		c0,0.03-0.01,0.07-0.02,0.13c-0.01,0.06-0.03,0.15-0.06,0.24c-0.3,1.12-1.38,4.23-1.88,5.67c-0.19,0.55-0.34,0.98-0.41,1.19
		c-0.11,0.32-0.19,0.6-0.26,0.84c-0.31,1.06-0.35,1.19-1.64,1.57c-1.43,0.42-3.17,0.99-4.86,1.54c-2.07,0.68-4.21,1.38-5.8,1.8
		c-0.23,0.06-0.44,0.12-0.65,0.17c-0.79,0.19-2.26-1.25-3.4-2.39c-0.54-0.54-1.05-1.05-1.53-1.45c-0.33-0.28-0.63-0.51-0.89-0.72
		C94.87,395.99,94.87,395.99,94.94,393.36z M91.65,420.59l-3.6-1.23c-1.44-0.49-2.84-0.97-4.31-1.47c-0.4-0.14-0.76-0.24-1.08-0.32
		c-1.03-0.28-1.41-0.38-1.67-1.45c-0.97-4.07-1.02-8.92-0.16-13.3l0.07-0.34c0.3-1.53,0.3-1.53,1.61-1.91l0.46-0.13
		c0.87-0.26,2.18-0.68,3.61-1.14c2.79-0.9,6.23-2.01,7.59-2.26l6.74,6.02c0.17,2.08,0.09,4.55,0.01,6.94
		c-0.03,1.04-0.07,2.06-0.08,3c-0.01,0.64-0.01,1.18,0,1.64c0.01,2.45,0.01,2.45-1.57,3.32c-0.43,0.24-0.97,0.53-1.63,0.93
		c-0.85,0.51-1.49,0.94-2.01,1.27c-1.06,0.69-1.5,0.98-1.99,0.98C93.23,421.13,92.67,420.94,91.65,420.59z M117.46,430.46
		c-0.3,0.59-6.58,8.92-7.7,10.22c-4.87-0.02-12.35-2.81-15.26-5.15c-0.22-1.62-0.11-4.37-0.03-6.59c0.03-0.91,0.07-1.76,0.07-2.45
		c0-0.21,0-0.41,0-0.6c0-0.57-0.01-1.04-0.02-1.45c-0.05-2.04-0.05-2.04,2.27-3.37c0.84-0.48,2-1.14,3.52-2.1l0.36-0.23
		c0.59-0.38,0.79-0.5,1.02-0.5c0.25,0,0.64,0.13,1.35,0.38c2.27,0.77,4.39,1.48,6.75,2.27c0.96,0.32,1.73,0.56,2.36,0.76
		c2.46,0.78,2.46,0.78,2.9,1.95c0.06,0.16,0.13,0.35,0.21,0.55c0.08,0.21,0.21,0.53,0.37,0.91
		C116.12,426.26,117.63,429.86,117.46,430.46z M132.99,432.86l-0.09,0.08c-0.72,0.7-0.99,0.94-1.5,0.94c-0.35,0-0.81-0.11-1.51-0.36
		l-7.69-2.62c-0.31-0.11-0.66-0.21-1-0.31c-0.87-0.26-1.96-0.58-2.21-0.92c-0.22-0.39-2.7-6.88-2.82-7.33
		c-0.03-0.53,0.98-1.78,1.47-2.37c0.16-0.19,0.3-0.36,0.4-0.5c0.24-0.32,0.65-0.88,1.14-1.56c1.39-1.91,4.63-6.37,5.21-6.7
		c0.32-0.1,2.67-0.32,4.95-0.5c1.76-0.14,3.49-0.25,4.21-0.27c0.6,0.61,3.03,4.13,4.36,6.06c0.64,0.93,1.17,1.7,1.44,2.08
		c0.19,0.27,0.39,0.53,0.58,0.79c0.46,0.61,0.89,1.18,1.28,1.83C140.54,424.53,136.55,429.38,132.99,432.86z M141.11,398.91
		c-0.09,0.1-0.18,0.21-0.28,0.33c-2.36,2.98-3.78,5.03-4.81,6.53c-2.27,3.28-2.27,3.28-6.16,3.5c-1.09,0.06-2.44,0.14-4.2,0.3
		l-0.44,0.04c-0.25,0.03-0.45,0.05-0.62,0.05c-0.27,0-0.42-0.02-0.82-0.56l-4.06-5.79c-0.43-0.61-0.88-1.19-1.29-1.72
		c-1.17-1.52-2.18-2.83-1.9-3.69c0.16-0.49,0.33-0.96,0.49-1.42c0.11-0.3,0.21-0.59,0.31-0.88c0.46-1.35,0.81-2.43,1.08-3.29
		c1.04-3.25,1.04-3.25,2.78-3.74c0.31-0.09,0.67-0.19,1.1-0.32c0.95-0.3,1.93-0.61,2.92-0.93c2.36-0.77,4.79-1.56,7.16-2.12
		c0.99,0,3.73,3.13,5.81,6.15c0.82,1.18,3,4.95,3.36,6.31C141.68,398.25,141.5,398.46,141.11,398.91z"/>
	<path fill="#E94709" d="M721.51,406.99c-0.43-8.2-4.35-16.3-11.01-22.81c-0.87-0.85-2.65-2.05-3.82-2.85l-0.09-0.06
		c-5.22-3.54-11.51-5.42-18.19-5.42c-6.46,0-12.64,1.75-17.9,5.05c-15.32,9.64-19.97,29.61-10.58,45.47
		c5.78,9.78,16.74,15.85,28.59,15.85h0c6.18,0,12.13-1.7,17.2-4.91c5.95-3.77,9.7-7.92,12.56-13.87c1.57-3.26,2.56-6.62,3.04-10.28
		C721.56,411.25,721.63,409.18,721.51,406.99z M671.26,393.23c0.02-0.54,0.03-1.19,0.04-1.97c0.01-1.18,0.03-2.37,0.04-3.55
		c0.02-1.83,0.05-3.67,0.05-5.5c0.46-0.24,0.9-0.48,1.34-0.72c1.65-0.9,3.21-1.74,5.52-2.52c2.82-0.94,5.85-1.51,8.37-1.56
		c0.52,0.85,1.68,2.45,3.01,4.28c1.84,2.53,4.62,6.36,4.71,7c0,0.06-0.03,0.17-0.07,0.33s-0.1,0.35-0.17,0.58
		c-0.07,0.23-0.15,0.49-0.24,0.77c-0.46,1.4-1.12,3.31-1.48,4.35c-0.14,0.41-0.26,0.76-0.35,1c-0.03,0.08-0.05,0.14-0.07,0.2
		c-0.11,0.32-0.19,0.6-0.26,0.84c-0.31,1.06-0.35,1.19-1.64,1.57c-1.43,0.42-3.17,0.98-4.86,1.54c-2.37,0.77-4.82,1.58-6.45,1.97
		c-0.5,0.12-1.25-0.4-2.03-1.08c-0.14-0.12-0.27-0.24-0.41-0.37c-0.02-0.02-0.04-0.04-0.06-0.05c-0.31-0.29-0.62-0.6-0.9-0.88
		c-0.54-0.54-1.05-1.05-1.53-1.45c-0.33-0.28-0.63-0.51-0.89-0.72C671.19,395.85,671.19,395.85,671.26,393.23z M667.97,420.45
		l-3.59-1.23c-1.44-0.49-2.84-0.97-4.31-1.47c-0.4-0.14-0.76-0.24-1.08-0.32c-1.03-0.28-1.41-0.38-1.67-1.45
		c-0.96-4.07-1.02-8.92-0.15-13.3l0.07-0.34c0.3-1.53,0.3-1.53,1.61-1.91l0.46-0.13c0.87-0.26,2.18-0.68,3.61-1.14
		c2.79-0.9,6.23-2.01,7.59-2.26l6.74,6.02c0.17,2.08,0.09,4.55,0.02,6.94c-0.03,1.04-0.06,2.06-0.08,3c-0.01,0.64,0,1.18,0,1.64
		c0.01,2.45,0.01,2.45-1.57,3.32c-0.43,0.24-0.97,0.53-1.63,0.93c-0.85,0.51-1.49,0.94-2.01,1.27c-1.06,0.69-1.49,0.98-1.99,0.98
		C669.54,421,668.99,420.81,667.97,420.45z M693.78,430.32c-0.3,0.59-6.58,8.92-7.7,10.22c-4.87-0.02-12.35-2.81-15.26-5.15
		c-0.22-1.62-0.12-4.37-0.03-6.59c0.04-0.91,0.07-1.76,0.08-2.45c0-0.21,0-0.41,0-0.6c0-0.57-0.01-1.04-0.02-1.45
		c-0.05-2.04-0.05-2.04,2.27-3.37c0.84-0.48,2-1.14,3.52-2.1l0.36-0.23c0.59-0.38,0.79-0.5,1.02-0.5c0.06,0,0.13,0.01,0.21,0.02
		c0.25,0.05,0.6,0.17,1.13,0.35c1.7,0.58,3.32,1.12,5.02,1.69c0.57,0.19,1.14,0.38,1.73,0.58c0.96,0.32,1.73,0.56,2.36,0.76
		c2.47,0.78,2.47,0.78,2.9,1.95c0.06,0.16,0.13,0.35,0.21,0.55c0.08,0.21,0.21,0.53,0.37,0.91
		C692.44,426.13,693.94,429.72,693.78,430.32z M709.31,432.73l-0.09,0.08c-0.72,0.7-0.99,0.94-1.5,0.94c-0.35,0-0.81-0.11-1.51-0.36
		l-7.7-2.62c-0.31-0.11-0.65-0.21-1-0.31c-0.87-0.26-1.96-0.58-2.21-0.92c-0.22-0.39-2.7-6.88-2.82-7.33
		c-0.03-0.54,0.98-1.78,1.47-2.37c0.16-0.19,0.3-0.36,0.4-0.5c0.24-0.32,0.64-0.88,1.14-1.56c1.38-1.91,4.63-6.37,5.21-6.7
		c0.57-0.18,7.51-0.73,9.16-0.77c0.07,0.07,0.16,0.18,0.27,0.32c0.69,0.86,2.12,2.9,3.27,4.56c0.3,0.43,0.57,0.83,0.81,1.18
		c0.64,0.93,1.17,1.7,1.45,2.08c0.19,0.27,0.39,0.53,0.58,0.79c0.46,0.61,0.89,1.18,1.28,1.83
		C716.86,424.39,712.87,429.25,709.31,432.73z M717.43,398.78c-0.09,0.1-0.19,0.21-0.28,0.33c-2.36,2.98-3.78,5.03-4.82,6.53
		c-2.27,3.28-2.27,3.28-6.16,3.5c-1.09,0.06-2.44,0.14-4.2,0.3l-0.44,0.04c-0.25,0.03-0.45,0.05-0.62,0.05
		c-0.27,0-0.42-0.02-0.82-0.56l-4.06-5.79c-0.43-0.61-0.88-1.19-1.29-1.73c-1.17-1.52-2.18-2.83-1.9-3.69
		c0.16-0.49,0.33-0.96,0.49-1.42c0.11-0.3,0.21-0.59,0.31-0.88c0.46-1.35,0.8-2.43,1.08-3.29c1.04-3.25,1.04-3.25,2.78-3.74
		c0.31-0.09,0.67-0.19,1.09-0.32c0.96-0.3,1.93-0.61,2.92-0.93c2.36-0.77,4.79-1.56,7.16-2.12c0.99,0,3.73,3.13,5.81,6.15
		c0.82,1.18,3,4.95,3.36,6.31C718,398.12,717.82,398.33,717.43,398.78z"/>
</g>
<g>
</g>
<g>
</g>
<g>
</g>
<g>
</g>
<g>
</g>
<g>
</g>
<g>
</g>
<g>
</g>
<g>
</g>
<g>
</g>
<g>
</g>
</svg>
