<?xml version="1.0" encoding="utf-8"?>
<!-- Created by @FCLOGO 2024-9-28 GMT+8 19:37:10 . https://fclogo.top/ -->
<!-- FOR PERSONAL USE ONLY NOT FOR COMMERCIAL USE -->
<svg version="1.1" xmlns="http://www.w3.org/2000/svg" xmlns:xlink="http://www.w3.org/1999/xlink" x="0px" y="0px"
	 viewBox="0 0 800 800" style="enable-background:new 0 0 800 800;" xml:space="preserve">
<path style="fill:#CCCCCC;" d="M348.22,774.3c-0.79,0-1.38-0.22-1.77-0.65c-0.39-0.44-0.53-1.03-0.41-1.79l0.25-1.65
	c0.12-0.75,0.45-1.35,0.98-1.78c0.53-0.44,1.19-0.65,1.98-0.65c0.76,0,1.33,0.2,1.72,0.6c0.39,0.4,0.55,0.94,0.47,1.62h-1.24
	c0.03-0.36-0.06-0.64-0.26-0.84c-0.2-0.2-0.5-0.3-0.89-0.3c-0.42,0-0.76,0.12-1.03,0.35c-0.27,0.23-0.43,0.56-0.5,0.99l-0.26,1.66
	c-0.07,0.44-0.01,0.77,0.19,1c0.19,0.23,0.5,0.35,0.92,0.35c0.39,0,0.72-0.1,0.98-0.3c0.26-0.2,0.44-0.48,0.52-0.85h1.24
	c-0.14,0.69-0.47,1.23-0.99,1.63C349.61,774.1,348.97,774.3,348.22,774.3z M352.8,774.19l1-6.29h1.19l-0.19,1.19
	c0.34-0.87,0.97-1.3,1.91-1.3c0.67,0,1.17,0.21,1.49,0.62c0.32,0.42,0.43,0.99,0.31,1.71l-0.07,0.42h-1.27l0.06-0.32
	c0.07-0.45,0.01-0.8-0.17-1.04c-0.18-0.24-0.48-0.36-0.88-0.36c-0.4,0-0.74,0.12-1.01,0.37c-0.27,0.24-0.43,0.59-0.5,1.03
	l-0.63,3.97H352.8z M361.91,774.3c-0.77,0-1.35-0.22-1.73-0.67c-0.38-0.45-0.51-1.04-0.4-1.77l0.25-1.65
	c0.08-0.49,0.26-0.92,0.52-1.28c0.26-0.37,0.6-0.65,1.01-0.85c0.41-0.2,0.87-0.3,1.38-0.3c0.77,0,1.35,0.22,1.73,0.67
	c0.39,0.45,0.52,1.04,0.39,1.77l-0.17,1.12h-3.85l-0.09,0.53c-0.15,0.95,0.22,1.43,1.11,1.43c0.72,0,1.17-0.25,1.37-0.74h1.22
	c-0.17,0.53-0.5,0.96-1.01,1.28C363.16,774.14,362.58,774.3,361.91,774.3z M361.23,770.22l-0.05,0.29l2.65-0.01l0.05-0.29
	c0.07-0.47,0.01-0.82-0.17-1.07c-0.18-0.25-0.49-0.37-0.92-0.37c-0.44,0-0.8,0.13-1.06,0.38
	C361.48,769.39,361.31,769.75,361.23,770.22z M368.33,774.3c-0.63,0-1.1-0.21-1.41-0.64c-0.31-0.42-0.4-1-0.27-1.73l0.27-1.77
	c0.11-0.73,0.39-1.31,0.84-1.74c0.44-0.43,0.98-0.64,1.61-0.64c0.47,0,0.83,0.12,1.09,0.35c0.26,0.24,0.39,0.56,0.38,0.96h0.02
	l0.17-1.2h1.24l-1,6.29h-1.22l0.19-1.2h-0.02c-0.12,0.41-0.35,0.73-0.69,0.97C369.2,774.18,368.8,774.3,368.33,774.3z
	 M368.93,773.23c0.39,0,0.72-0.12,0.98-0.36c0.26-0.24,0.43-0.57,0.5-1.01l0.25-1.65c0.07-0.43,0.01-0.76-0.18-1
	c-0.19-0.24-0.47-0.36-0.86-0.36c-0.4,0-0.72,0.12-0.98,0.35c-0.26,0.24-0.42,0.57-0.49,1.01l-0.25,1.65
	c-0.07,0.44-0.01,0.78,0.17,1.01C368.24,773.11,368.53,773.23,368.93,773.23z M376.35,774.19c-0.57,0-0.99-0.16-1.26-0.47
	c-0.27-0.31-0.36-0.75-0.27-1.32l0.54-3.39h-1.74l0.17-1.12h1.74l0.27-1.72h1.24l-0.27,1.72h2.47l-0.18,1.12h-2.46l-0.54,3.39
	c-0.08,0.44,0.1,0.66,0.53,0.66h1.72l-0.17,1.12H376.35z M382.5,774.3c-0.77,0-1.35-0.22-1.73-0.67c-0.38-0.45-0.52-1.04-0.4-1.77
	l0.25-1.65c0.08-0.49,0.26-0.92,0.52-1.28c0.26-0.37,0.6-0.65,1.01-0.85c0.41-0.2,0.87-0.3,1.38-0.3c0.77,0,1.35,0.22,1.73,0.67
	c0.39,0.45,0.52,1.04,0.39,1.77l-0.17,1.12h-3.85l-0.09,0.53c-0.15,0.95,0.22,1.43,1.11,1.43c0.72,0,1.17-0.25,1.37-0.74h1.22
	c-0.17,0.53-0.5,0.96-1.01,1.28C383.76,774.14,383.18,774.3,382.5,774.3z M381.83,770.22l-0.05,0.29l2.65-0.01l0.05-0.29
	c0.07-0.47,0.01-0.82-0.17-1.07c-0.18-0.25-0.49-0.37-0.92-0.37c-0.44,0-0.8,0.13-1.06,0.38
	C382.08,769.39,381.91,769.75,381.83,770.22z M388.92,774.3c-0.63,0-1.1-0.21-1.4-0.64c-0.3-0.42-0.39-1-0.28-1.73l0.27-1.77
	c0.11-0.73,0.39-1.31,0.84-1.74c0.44-0.43,0.98-0.64,1.61-0.64c0.47,0,0.83,0.12,1.09,0.35c0.26,0.24,0.39,0.56,0.38,0.96h0.02
	l0.21-1.47l0.3-1.8h1.24l-1.33,8.35h-1.22l0.19-1.2h-0.02c-0.12,0.41-0.35,0.73-0.69,0.97C389.8,774.18,389.4,774.3,388.92,774.3z
	 M389.53,773.23c0.39,0,0.72-0.12,0.98-0.36c0.26-0.24,0.43-0.57,0.5-1.01l0.25-1.65c0.08-0.43,0.02-0.76-0.17-1
	c-0.19-0.24-0.48-0.36-0.87-0.36c-0.4,0-0.72,0.12-0.98,0.35c-0.26,0.24-0.42,0.57-0.49,1.01l-0.25,1.65
	c-0.08,0.44-0.02,0.78,0.16,1.01C388.83,773.11,389.13,773.23,389.53,773.23z M401.02,774.3c-0.47,0-0.84-0.12-1.1-0.35
	c-0.26-0.23-0.39-0.56-0.38-0.97h-0.01l-0.19,1.2h-1.22l1.33-8.35h1.24l-0.29,1.8l-0.27,1.47h0.05c0.12-0.41,0.35-0.73,0.69-0.97
	c0.34-0.23,0.74-0.35,1.21-0.35c0.63,0,1.1,0.21,1.4,0.64c0.3,0.43,0.39,1.01,0.28,1.74l-0.27,1.77c-0.11,0.73-0.39,1.31-0.84,1.73
	C402.18,774.09,401.64,774.3,401.02,774.3z M400.77,773.23c0.4,0,0.72-0.12,0.98-0.35c0.26-0.23,0.42-0.57,0.5-1.01l0.25-1.65
	c0.07-0.43,0.01-0.77-0.17-1.01c-0.18-0.24-0.47-0.35-0.87-0.35c-0.39,0-0.72,0.12-0.98,0.36c-0.26,0.24-0.43,0.57-0.5,1l-0.25,1.65
	c-0.07,0.44-0.01,0.77,0.17,1.01C400.08,773.11,400.37,773.23,400.77,773.23z M405.47,776.25l0.17-1.06h1.93
	c0.64,0,1.01-0.3,1.1-0.9l0.1-0.67l0.21-1.19h-0.03c-0.12,0.42-0.35,0.74-0.68,0.97c-0.33,0.23-0.73,0.34-1.2,0.34
	c-0.63,0-1.09-0.2-1.4-0.6c-0.31-0.4-0.41-0.94-0.3-1.63l0.58-3.6h1.24l-0.56,3.48c-0.06,0.41,0,0.73,0.18,0.96
	c0.18,0.23,0.47,0.34,0.85,0.34c0.39,0,0.72-0.12,0.98-0.37c0.27-0.24,0.43-0.58,0.49-1.02l0.54-3.4h1.24l-1.01,6.41
	c-0.1,0.6-0.37,1.08-0.81,1.42c-0.44,0.35-1,0.52-1.67,0.52H405.47z M417.79,770.09h3.22l0.54-1.85h-5.47l-1.71,6.44h2.15l0.59-2.1
	h3.03l0.44-1.71h-3.03L417.79,770.09z M424.23,772.92c-0.59,0-1.02-0.39-1.02-1.12c0-0.88,0.63-1.76,1.61-1.76
	c0.49,0,0.88,0.24,1.02,0.78l1.95-0.83c-0.29-1.17-1.27-1.9-2.64-1.9c-2.78,0-4.15,2.15-4.15,3.9c0,1.76,1.27,2.83,3.07,2.83
	c1.37,0,2.34-0.59,2.98-1.42l-1.51-1.17C425.16,772.67,424.72,772.92,424.23,772.92z M430.91,768.23h-2.15l-1.76,6.44h5.12
	l0.49-1.85h-2.93L430.91,768.23z M439.75,771.01c0-1.66-1.32-2.93-3.22-2.93c-2.2,0-3.81,1.81-3.81,3.81c0,1.66,1.32,2.93,3.22,2.93
	C438.14,774.82,439.75,773.01,439.75,771.01z M434.92,771.7c0-0.83,0.59-1.71,1.51-1.71c0.78,0,1.17,0.54,1.17,1.22
	c0,0.83-0.59,1.71-1.51,1.71C435.31,772.92,434.92,772.38,434.92,771.7z M443.21,772.23h1.07l-0.2,0.68
	c-0.15,0.05-0.34,0.1-0.59,0.1c-0.68,0-1.27-0.39-1.27-1.22c0-1.02,0.73-1.9,1.95-1.9c0.59,0,1.12,0.24,1.51,0.59l1.37-1.37
	c-0.44-0.54-1.51-1.07-2.73-1.07c-2.59,0-4.29,1.76-4.29,3.86c0,2.05,1.61,2.88,3.22,2.88c0.93,0,1.85-0.29,2.49-0.68l0.93-3.32
	h-3.12L443.21,772.23z M450.78,768.08c-2.2,0-3.81,1.81-3.81,3.81c0,1.66,1.32,2.93,3.22,2.93c2.2,0,3.81-1.81,3.81-3.81
	C454,769.35,452.68,768.08,450.78,768.08z M450.34,772.92c-0.78,0-1.17-0.54-1.17-1.22c0-0.83,0.59-1.71,1.51-1.71
	c0.78,0,1.17,0.54,1.17,1.22C451.85,772.04,451.27,772.92,450.34,772.92z M437.94,767.5c-0.05,0.29,0.1,0.49,0.44,0.49
	s0.54-0.2,0.63-0.49c0.05-0.24-0.1-0.49-0.44-0.49C438.24,767.01,437.99,767.25,437.94,767.5z M432.13,765.5
	c-0.44,0-0.73,0.24-0.78,0.59c-0.05,0.34,0.1,0.59,0.54,0.59s0.73-0.24,0.78-0.59C432.77,765.74,432.57,765.5,432.13,765.5z
	 M433.01,767.3c-0.1,0.54,0.15,0.88,0.83,0.88c0.63,0,1.07-0.39,1.17-0.88s-0.15-0.88-0.83-0.88
	C433.5,766.43,433.11,766.82,433.01,767.3z M439.6,777.55l-2.44-1.81h-1.51l4.25,3.17l1.61-3.17h-0.98L439.6,777.55z M425.84,767.16
	l-2-1.46l23.13-2.78l-2.15,4.25h1.02l2.68-5.32l-26.99,3.22l2.78,2.1H425.84z M338.72,785.79l0.61-3.83h2.32l-0.08,0.52h-1.76
	l-0.18,1.14h1.63l-0.08,0.52h-1.62l-0.26,1.64H338.72z M342.97,785.84c-0.36,0-0.62-0.1-0.8-0.3c-0.17-0.2-0.23-0.47-0.18-0.82
	l0.27-1.7c0.06-0.34,0.2-0.61,0.44-0.82c0.24-0.2,0.54-0.3,0.89-0.3c0.36,0,0.62,0.1,0.8,0.3c0.17,0.2,0.24,0.47,0.18,0.81
	l-0.27,1.71c-0.06,0.34-0.2,0.62-0.44,0.82C343.63,785.74,343.33,785.84,342.97,785.84z M343.05,785.33c0.19,0,0.35-0.05,0.47-0.16
	c0.12-0.11,0.19-0.26,0.23-0.46l0.27-1.7c0.03-0.2,0.01-0.35-0.08-0.46c-0.08-0.11-0.22-0.16-0.41-0.16s-0.35,0.05-0.46,0.16
	c-0.12,0.1-0.19,0.26-0.22,0.46l-0.27,1.7c-0.03,0.2-0.01,0.35,0.08,0.46C342.72,785.28,342.86,785.33,343.05,785.33z M345,785.79
	l0.61-3.83h1.2c0.24,0,0.44,0.05,0.6,0.14c0.16,0.09,0.28,0.22,0.36,0.39c0.07,0.17,0.09,0.37,0.05,0.59
	c-0.04,0.26-0.14,0.48-0.3,0.67c-0.16,0.19-0.37,0.32-0.6,0.39l0.54,1.64h-0.62l-0.48-1.57h-0.54l-0.25,1.57H345z M345.89,783.71
	h0.64c0.19,0,0.35-0.06,0.48-0.17c0.13-0.11,0.21-0.26,0.24-0.45c0.03-0.19,0-0.35-0.09-0.46c-0.09-0.11-0.24-0.17-0.43-0.17h-0.64
	L345.89,783.71z M349.54,785.79l0.61-3.83h1.25c0.37,0,0.65,0.1,0.84,0.31c0.19,0.21,0.26,0.49,0.2,0.84
	c-0.04,0.23-0.12,0.44-0.25,0.61s-0.29,0.31-0.49,0.4c-0.2,0.09-0.42,0.14-0.66,0.14h-0.69l-0.24,1.52H349.54z M350.43,783.75h0.69
	c0.19,0,0.36-0.06,0.49-0.18c0.14-0.12,0.22-0.27,0.25-0.47c0.03-0.2,0-0.35-0.1-0.47c-0.1-0.12-0.25-0.18-0.44-0.18h-0.69
	L350.43,783.75z M352.75,785.79l0.61-3.83h2.25l-0.08,0.5h-1.7l-0.17,1.09h1.51l-0.08,0.5h-1.51l-0.19,1.24h1.69l-0.08,0.5H352.75z
	 M355.84,785.79l0.61-3.83h1.2c0.24,0,0.44,0.05,0.6,0.14c0.16,0.09,0.28,0.22,0.36,0.39c0.07,0.17,0.09,0.37,0.05,0.59
	c-0.04,0.26-0.14,0.48-0.3,0.67c-0.16,0.19-0.37,0.32-0.6,0.39l0.54,1.64h-0.62l-0.48-1.57h-0.54l-0.25,1.57H355.84z M356.74,783.71
	h0.64c0.19,0,0.35-0.06,0.48-0.17c0.13-0.11,0.21-0.26,0.24-0.45c0.03-0.19,0-0.35-0.09-0.46c-0.09-0.11-0.24-0.17-0.43-0.17h-0.64
	L356.74,783.71z M360.13,785.84c-0.39,0-0.67-0.1-0.87-0.29c-0.19-0.19-0.26-0.45-0.22-0.78h0.57c-0.03,0.17,0.01,0.31,0.12,0.41
	c0.11,0.1,0.27,0.15,0.48,0.15c0.2,0,0.37-0.05,0.5-0.15c0.13-0.1,0.21-0.23,0.24-0.4c0.02-0.15,0-0.28-0.06-0.39
	c-0.06-0.11-0.16-0.18-0.29-0.22l-0.46-0.14c-0.27-0.08-0.46-0.22-0.59-0.41c-0.13-0.19-0.17-0.42-0.13-0.68
	c0.04-0.21,0.11-0.39,0.23-0.55c0.12-0.16,0.27-0.28,0.46-0.37c0.19-0.09,0.4-0.13,0.64-0.13c0.35,0,0.62,0.1,0.8,0.29
	c0.18,0.19,0.25,0.44,0.2,0.76h-0.57c0.03-0.17,0-0.3-0.09-0.4c-0.09-0.1-0.23-0.14-0.42-0.14c-0.19,0-0.34,0.04-0.46,0.13
	c-0.12,0.09-0.19,0.21-0.21,0.38c-0.02,0.15-0.01,0.28,0.05,0.39c0.06,0.11,0.16,0.18,0.29,0.22l0.47,0.15
	c0.26,0.08,0.46,0.22,0.58,0.41c0.12,0.19,0.17,0.42,0.12,0.69c-0.04,0.22-0.12,0.41-0.24,0.57c-0.13,0.16-0.29,0.29-0.49,0.38
	C360.6,785.79,360.38,785.84,360.13,785.84z M363.27,785.84c-0.36,0-0.62-0.1-0.8-0.3c-0.17-0.2-0.23-0.47-0.18-0.82l0.27-1.7
	c0.06-0.34,0.2-0.61,0.44-0.82c0.24-0.2,0.54-0.3,0.89-0.3c0.36,0,0.62,0.1,0.8,0.3c0.17,0.2,0.24,0.47,0.18,0.81l-0.27,1.71
	c-0.06,0.34-0.2,0.62-0.44,0.82C363.92,785.74,363.62,785.84,363.27,785.84z M363.34,785.33c0.19,0,0.35-0.05,0.47-0.16
	c0.12-0.11,0.19-0.26,0.23-0.46l0.27-1.7c0.03-0.2,0.01-0.35-0.08-0.46c-0.08-0.11-0.22-0.16-0.41-0.16c-0.19,0-0.35,0.05-0.46,0.16
	c-0.12,0.1-0.19,0.26-0.22,0.46l-0.27,1.7c-0.03,0.2-0.01,0.35,0.08,0.46C363.02,785.28,363.15,785.33,363.34,785.33z
	 M365.28,785.79l0.61-3.83h0.71l0.62,3.19c0.01-0.1,0.02-0.22,0.03-0.36c0.01-0.14,0.03-0.29,0.04-0.44
	c0.02-0.15,0.04-0.29,0.06-0.41l0.31-1.98h0.52l-0.61,3.83h-0.71l-0.61-3.19c-0.01,0.09-0.02,0.21-0.03,0.34s-0.03,0.28-0.04,0.42
	c-0.02,0.15-0.04,0.28-0.06,0.41l-0.31,2.01H365.28z M368.23,785.79l1.59-3.83h0.75l0.37,3.83h-0.56l-0.07-0.97h-1.09l-0.39,0.97
	H368.23z M369.39,784.34h0.87l-0.09-1.1c-0.02-0.2-0.03-0.37-0.04-0.51c-0.01-0.14-0.01-0.24-0.01-0.3c-0.02,0.06-0.05,0.16-0.1,0.3
	c-0.05,0.14-0.11,0.31-0.19,0.5L369.39,784.34z M371.72,785.79l0.61-3.83h0.57l-0.52,3.31h1.67l-0.08,0.52H371.72z M376.68,785.84
	c-0.37,0-0.63-0.1-0.8-0.3c-0.17-0.2-0.22-0.48-0.17-0.82l0.44-2.76h0.57l-0.44,2.76c-0.03,0.2-0.01,0.35,0.07,0.46
	c0.08,0.11,0.21,0.17,0.41,0.17c0.19,0,0.35-0.06,0.46-0.17c0.12-0.11,0.19-0.27,0.22-0.46l0.44-2.76h0.57l-0.44,2.76
	c-0.06,0.35-0.2,0.62-0.43,0.82C377.35,785.74,377.05,785.84,376.68,785.84z M379.84,785.84c-0.39,0-0.67-0.1-0.87-0.29
	c-0.19-0.19-0.26-0.45-0.22-0.78h0.57c-0.03,0.17,0.01,0.31,0.12,0.41c0.11,0.1,0.27,0.15,0.48,0.15c0.2,0,0.37-0.05,0.5-0.15
	c0.13-0.1,0.21-0.23,0.24-0.4c0.02-0.15,0-0.28-0.06-0.39c-0.06-0.11-0.16-0.18-0.29-0.22l-0.46-0.14
	c-0.27-0.08-0.46-0.22-0.59-0.41c-0.13-0.19-0.17-0.42-0.13-0.68c0.04-0.21,0.11-0.39,0.23-0.55s0.27-0.28,0.46-0.37
	c0.19-0.09,0.4-0.13,0.64-0.13c0.35,0,0.62,0.1,0.8,0.29c0.18,0.19,0.25,0.44,0.2,0.76h-0.57c0.03-0.17,0-0.3-0.09-0.4
	c-0.09-0.1-0.23-0.14-0.42-0.14c-0.19,0-0.34,0.04-0.46,0.13c-0.12,0.09-0.19,0.21-0.21,0.38c-0.02,0.15-0.01,0.28,0.05,0.39
	c0.06,0.11,0.16,0.18,0.29,0.22l0.47,0.15c0.26,0.08,0.46,0.22,0.58,0.41c0.12,0.19,0.17,0.42,0.12,0.69
	c-0.04,0.22-0.12,0.41-0.24,0.57c-0.13,0.16-0.29,0.29-0.49,0.38C380.31,785.79,380.09,785.84,379.84,785.84z M381.91,785.79
	l0.61-3.83h2.25l-0.08,0.5h-1.7l-0.17,1.09h1.51l-0.08,0.5h-1.51l-0.19,1.24h1.69l-0.08,0.5H381.91z M386.94,785.84
	c-0.36,0-0.62-0.1-0.8-0.3c-0.17-0.2-0.23-0.47-0.18-0.82l0.27-1.7c0.06-0.34,0.2-0.61,0.44-0.82c0.24-0.2,0.54-0.3,0.89-0.3
	c0.36,0,0.62,0.1,0.8,0.3c0.17,0.2,0.24,0.47,0.18,0.81l-0.27,1.71c-0.06,0.34-0.2,0.62-0.44,0.82
	C387.6,785.74,387.3,785.84,386.94,785.84z M387.02,785.33c0.19,0,0.35-0.05,0.47-0.16c0.12-0.11,0.19-0.26,0.23-0.46l0.27-1.7
	c0.03-0.2,0.01-0.35-0.08-0.46c-0.08-0.11-0.22-0.16-0.41-0.16c-0.19,0-0.35,0.05-0.46,0.16c-0.12,0.1-0.19,0.26-0.22,0.46
	l-0.27,1.7c-0.03,0.2-0.01,0.35,0.08,0.46C386.7,785.28,386.83,785.33,387.02,785.33z M388.95,785.79l0.61-3.83h0.71l0.62,3.19
	c0.01-0.1,0.02-0.22,0.03-0.36c0.01-0.14,0.03-0.29,0.04-0.44c0.02-0.15,0.04-0.29,0.06-0.41l0.31-1.98h0.52l-0.61,3.83h-0.71
	l-0.61-3.19c-0.01,0.09-0.02,0.21-0.03,0.34c-0.01,0.13-0.03,0.28-0.04,0.42c-0.02,0.15-0.04,0.28-0.06,0.41l-0.31,2.01H388.95z
	 M392.25,785.79l0.61-3.83h0.57l-0.52,3.31h1.67l-0.08,0.52H392.25z M396.12,785.79l0.22-1.41l-0.75-2.42h0.58l0.45,1.45
	c0.03,0.09,0.05,0.18,0.07,0.27c0.02,0.08,0.03,0.15,0.03,0.19c0.02-0.04,0.05-0.1,0.09-0.19c0.04-0.08,0.09-0.17,0.14-0.27
	l0.9-1.45h0.6l-1.53,2.42l-0.22,1.41H396.12z M399.22,785.79l0.61-3.83h0.71l0.62,3.19c0.01-0.1,0.02-0.22,0.03-0.36
	c0.01-0.14,0.03-0.29,0.04-0.44c0.02-0.15,0.04-0.29,0.06-0.41l0.31-1.98h0.52l-0.61,3.83h-0.71l-0.61-3.19
	c-0.01,0.09-0.02,0.21-0.03,0.34c-0.01,0.13-0.03,0.28-0.04,0.42c-0.02,0.15-0.04,0.28-0.06,0.41l-0.31,2.01H399.22z M403.51,785.84
	c-0.36,0-0.62-0.1-0.8-0.3c-0.18-0.2-0.23-0.47-0.18-0.82l0.27-1.7c0.06-0.34,0.2-0.61,0.44-0.82c0.24-0.2,0.54-0.3,0.89-0.3
	c0.36,0,0.62,0.1,0.8,0.3c0.17,0.2,0.24,0.47,0.18,0.81l-0.27,1.71c-0.06,0.34-0.2,0.62-0.44,0.82
	C404.16,785.74,403.86,785.84,403.51,785.84z M403.58,785.33c0.19,0,0.35-0.05,0.47-0.16c0.12-0.11,0.19-0.26,0.23-0.46l0.27-1.7
	c0.03-0.2,0.01-0.35-0.08-0.46c-0.08-0.11-0.22-0.16-0.41-0.16c-0.19,0-0.35,0.05-0.46,0.16c-0.12,0.1-0.19,0.26-0.22,0.46
	l-0.27,1.7c-0.03,0.2-0.01,0.35,0.08,0.46C403.26,785.28,403.4,785.33,403.58,785.33z M406.38,785.79l0.52-3.31h-1.02l0.08-0.52
	h2.62l-0.08,0.52h-1.03l-0.52,3.31H406.38z M409.52,785.79l0.61-3.83h2.32l-0.08,0.52h-1.76l-0.18,1.14h1.63l-0.08,0.52h-1.62
	l-0.26,1.64H409.52z M413.77,785.84c-0.36,0-0.62-0.1-0.8-0.3c-0.18-0.2-0.23-0.47-0.18-0.82l0.27-1.7c0.06-0.34,0.2-0.61,0.44-0.82
	c0.24-0.2,0.54-0.3,0.89-0.3c0.36,0,0.62,0.1,0.8,0.3c0.17,0.2,0.24,0.47,0.18,0.81l-0.27,1.71c-0.06,0.34-0.2,0.62-0.44,0.82
	C414.42,785.74,414.13,785.84,413.77,785.84z M413.85,785.33c0.19,0,0.35-0.05,0.47-0.16c0.12-0.11,0.19-0.26,0.23-0.46l0.27-1.7
	c0.03-0.2,0.01-0.35-0.08-0.46c-0.08-0.11-0.22-0.16-0.41-0.16c-0.19,0-0.35,0.05-0.46,0.16c-0.12,0.1-0.19,0.26-0.22,0.46
	l-0.27,1.7c-0.03,0.2-0.01,0.35,0.08,0.46C413.52,785.28,413.66,785.33,413.85,785.33z M415.8,785.79l0.61-3.83h1.2
	c0.24,0,0.44,0.05,0.6,0.14c0.16,0.09,0.28,0.22,0.36,0.39c0.07,0.17,0.09,0.37,0.05,0.59c-0.04,0.26-0.14,0.48-0.3,0.67
	c-0.16,0.19-0.37,0.32-0.6,0.39l0.54,1.64h-0.62l-0.48-1.57h-0.54l-0.25,1.57H415.8z M416.69,783.71h0.64
	c0.19,0,0.35-0.06,0.48-0.17c0.13-0.11,0.21-0.26,0.24-0.45c0.03-0.19,0-0.35-0.09-0.46c-0.09-0.11-0.24-0.17-0.43-0.17h-0.64
	L416.69,783.71z M420.91,785.84c-0.36,0-0.63-0.1-0.81-0.3c-0.18-0.2-0.24-0.47-0.19-0.82l0.27-1.7c0.06-0.35,0.21-0.62,0.45-0.82
	s0.55-0.3,0.91-0.3c0.36,0,0.63,0.1,0.81,0.3c0.18,0.2,0.24,0.47,0.19,0.82h-0.57c0.03-0.2,0-0.35-0.09-0.46
	c-0.09-0.11-0.23-0.16-0.42-0.16c-0.19,0-0.35,0.05-0.48,0.16c-0.12,0.1-0.2,0.26-0.23,0.45l-0.27,1.71c-0.03,0.2,0,0.35,0.09,0.46
	c0.09,0.11,0.23,0.16,0.42,0.16c0.19,0,0.35-0.05,0.47-0.16c0.12-0.11,0.2-0.26,0.23-0.46h0.57c-0.03,0.23-0.11,0.43-0.24,0.59
	c-0.12,0.17-0.28,0.3-0.47,0.39C421.36,785.79,421.14,785.84,420.91,785.84z M424.03,785.84c-0.36,0-0.62-0.1-0.8-0.3
	c-0.18-0.2-0.23-0.47-0.18-0.82l0.27-1.7c0.06-0.34,0.2-0.61,0.44-0.82c0.24-0.2,0.54-0.3,0.89-0.3c0.36,0,0.62,0.1,0.8,0.3
	c0.17,0.2,0.24,0.47,0.18,0.81l-0.27,1.71c-0.06,0.34-0.2,0.62-0.44,0.82C424.69,785.74,424.39,785.84,424.03,785.84z
	 M424.11,785.33c0.19,0,0.35-0.05,0.47-0.16c0.12-0.11,0.19-0.26,0.23-0.46l0.27-1.7c0.03-0.2,0.01-0.35-0.08-0.46
	c-0.08-0.11-0.22-0.16-0.41-0.16c-0.19,0-0.35,0.05-0.46,0.16c-0.12,0.1-0.19,0.26-0.22,0.46l-0.27,1.7
	c-0.03,0.2-0.01,0.35,0.08,0.46C423.79,785.28,423.92,785.33,424.11,785.33z M425.97,785.79l0.61-3.83h0.69l0.18,1.23
	c0.02,0.12,0.04,0.23,0.05,0.33c0.01,0.1,0.02,0.18,0.03,0.24c0.02-0.06,0.05-0.14,0.09-0.24c0.04-0.11,0.09-0.22,0.15-0.34
	l0.57-1.22h0.71l-0.61,3.83h-0.54l0.2-1.29c0.02-0.17,0.06-0.35,0.1-0.55c0.04-0.2,0.09-0.4,0.14-0.61c0.05-0.2,0.1-0.4,0.14-0.59
	c0.05-0.19,0.09-0.35,0.13-0.49l-0.86,1.86h-0.55l-0.28-1.86c0,0.14-0.01,0.29-0.02,0.47c-0.01,0.18-0.02,0.37-0.04,0.57
	c-0.02,0.2-0.04,0.41-0.06,0.61c-0.02,0.2-0.05,0.4-0.08,0.57l-0.2,1.29H425.97z M429.11,785.79l0.61-3.83h0.69l0.18,1.23
	c0.02,0.12,0.04,0.23,0.05,0.33c0.01,0.1,0.02,0.18,0.03,0.24c0.02-0.06,0.05-0.14,0.09-0.24c0.04-0.11,0.09-0.22,0.15-0.34
	l0.57-1.22h0.71l-0.61,3.83h-0.54l0.2-1.29c0.02-0.17,0.06-0.35,0.1-0.55c0.04-0.2,0.09-0.4,0.14-0.61c0.05-0.2,0.1-0.4,0.14-0.59
	c0.05-0.19,0.09-0.35,0.13-0.49l-0.86,1.86h-0.55l-0.28-1.86c0,0.14-0.01,0.29-0.02,0.47c-0.01,0.18-0.02,0.37-0.04,0.57
	c-0.02,0.2-0.04,0.41-0.06,0.61c-0.02,0.2-0.05,0.4-0.08,0.57l-0.2,1.29H429.11z M432.41,785.79l0.61-3.83h2.25l-0.08,0.5h-1.7
	l-0.17,1.09h1.51l-0.08,0.5h-1.51l-0.19,1.24h1.69l-0.08,0.5H432.41z M435.51,785.79l0.61-3.83h1.2c0.24,0,0.44,0.05,0.6,0.14
	c0.16,0.09,0.28,0.22,0.36,0.39c0.07,0.17,0.09,0.37,0.05,0.59c-0.04,0.26-0.14,0.48-0.3,0.67c-0.16,0.19-0.37,0.32-0.6,0.39
	l0.54,1.64h-0.62l-0.48-1.57h-0.54l-0.25,1.57H435.51z M436.4,783.71h0.64c0.19,0,0.35-0.06,0.48-0.17
	c0.13-0.11,0.21-0.26,0.24-0.45c0.03-0.19,0-0.35-0.09-0.46c-0.09-0.11-0.24-0.17-0.43-0.17h-0.64L436.4,783.71z M439.8,785.84
	c-0.36,0-0.63-0.1-0.81-0.3c-0.18-0.2-0.24-0.47-0.19-0.82l0.27-1.7c0.06-0.35,0.21-0.62,0.45-0.82s0.55-0.3,0.91-0.3
	c0.36,0,0.63,0.1,0.81,0.3c0.18,0.2,0.24,0.47,0.19,0.82h-0.57c0.03-0.2,0-0.35-0.09-0.46c-0.09-0.11-0.23-0.16-0.42-0.16
	c-0.19,0-0.35,0.05-0.47,0.16c-0.12,0.1-0.2,0.26-0.23,0.45l-0.27,1.71c-0.03,0.2,0,0.35,0.09,0.46c0.09,0.11,0.23,0.16,0.42,0.16
	s0.35-0.05,0.47-0.16c0.12-0.11,0.2-0.26,0.23-0.46h0.57c-0.03,0.23-0.11,0.43-0.24,0.59c-0.12,0.17-0.28,0.3-0.47,0.39
	C440.25,785.79,440.04,785.84,439.8,785.84z M441.88,785.79l0.08-0.5h0.78l0.45-2.82h-0.78l0.08-0.5h2.13l-0.08,0.5h-0.78
	l-0.45,2.82h0.78l-0.08,0.5H441.88z M444.74,785.79l1.59-3.83h0.75l0.37,3.83h-0.56l-0.07-0.97h-1.09l-0.39,0.97H444.74z
	 M445.9,784.34h0.87l-0.09-1.1c-0.02-0.2-0.03-0.37-0.04-0.51c-0.01-0.14-0.01-0.24-0.01-0.3c-0.02,0.06-0.05,0.16-0.1,0.3
	c-0.05,0.14-0.11,0.31-0.19,0.5L445.9,784.34z M448.24,785.79l0.61-3.83h0.57l-0.52,3.31h1.67l-0.08,0.52H448.24z M453.19,785.84
	c-0.37,0-0.63-0.1-0.8-0.3c-0.17-0.2-0.22-0.48-0.17-0.82l0.44-2.76h0.57l-0.44,2.76c-0.03,0.2-0.01,0.35,0.07,0.46
	c0.08,0.11,0.21,0.17,0.41,0.17c0.19,0,0.35-0.06,0.46-0.17c0.12-0.11,0.19-0.27,0.22-0.46l0.44-2.76h0.57l-0.44,2.76
	c-0.06,0.35-0.2,0.62-0.43,0.82C453.86,785.74,453.56,785.84,453.19,785.84z M456.36,785.84c-0.39,0-0.67-0.1-0.87-0.29
	c-0.19-0.19-0.26-0.45-0.22-0.78h0.57c-0.03,0.17,0.01,0.31,0.12,0.41c0.11,0.1,0.27,0.15,0.48,0.15c0.2,0,0.37-0.05,0.5-0.15
	s0.21-0.23,0.24-0.4c0.02-0.15,0-0.28-0.06-0.39c-0.06-0.11-0.16-0.18-0.29-0.22l-0.46-0.14c-0.27-0.08-0.46-0.22-0.59-0.41
	c-0.13-0.19-0.17-0.42-0.13-0.68c0.04-0.21,0.11-0.39,0.23-0.55c0.12-0.16,0.27-0.28,0.46-0.37c0.19-0.09,0.4-0.13,0.64-0.13
	c0.35,0,0.62,0.1,0.8,0.29c0.18,0.19,0.25,0.44,0.2,0.76h-0.57c0.03-0.17,0-0.3-0.09-0.4c-0.09-0.1-0.23-0.14-0.42-0.14
	c-0.19,0-0.34,0.04-0.46,0.13c-0.12,0.09-0.19,0.21-0.21,0.38c-0.02,0.15-0.01,0.28,0.05,0.39c0.06,0.11,0.16,0.18,0.29,0.22
	l0.47,0.15c0.26,0.08,0.46,0.22,0.58,0.41c0.12,0.19,0.17,0.42,0.12,0.69c-0.04,0.22-0.12,0.41-0.24,0.57
	c-0.13,0.16-0.29,0.29-0.49,0.38C456.82,785.79,456.6,785.84,456.36,785.84z M458.42,785.79l0.61-3.83h2.25l-0.08,0.5h-1.7
	l-0.17,1.09h1.51l-0.08,0.5h-1.51l-0.19,1.24h1.69l-0.08,0.5H458.42z"/>
<g>
	<g>
		<g>
			<path style="fill:#ED7A39;" d="M398.97,697.37h-48.86l-9.21,52.08h10.45c0,0,3.72-20.92,3.85-22.19c1.24,0,37.99,0,37.99,0
				l1.64-9.17c0,0-36.19,0-37.98,0c0.14-1.04,1.8-10.42,2.06-11.55c1.24,0,39.37,0,39.37,0l1.64-9.17H398.97"/>
			<path style="fill:#ED7A39;" d="M423.89,696.81c-13.49,0-19.96,5.81-22.58,19.88l-2.2,13.23c-1.38,7.35-0.68,12.33,2.06,15.61
				c2.48,3.08,6.89,4.47,13.63,4.47h24.63c8.82,0,14.18-1.88,17.35-6.23l2.2-2.94h-42.25c-3.58,0-5.78-0.63-7.01-2.02
				c-0.97-1.26-1.24-3.3-0.69-6.17l3.17-18.12c1.1-6.16,4.13-8.54,11.01-8.54h41.02l-1.24-2.8c-1.92-4.19-6.61-6.37-14.04-6.37
				L423.89,696.81"/>
		</g>
		<g>
			<path style="fill:#053E6B;" d="M368.42,642.28c-3.72,20.93-11.42,20.93-20.23,20.93c0,0-43.63,0-47.34,0
				c0.54-3.57,8.11-46.41,8.81-49.97c3.72,0,49,0,49,0c9.21,0,14.58,1.47,11.14,21.34L368.42,642.28 M358.92,596.35h-60.83h-4.27
				v0.07h-18.16c0,0-34.68,29.82-37.72,32.42c-2.2-2.59-26.42-32.42-26.42-32.42h-22.16v-0.14h-22.29h-21.48
				c-20.91,0-35.51,4.27-39.22,24.86c-2.75,16.02,2.61,22.96,19.27,24.84c6.05,0.64,13.62,0.78,20.92,0.78h18.99
				c11.83,0,11.42,1.96,10.59,7.35c-1.24,6.73-2.34,9.46-16.24,9.46H98.1l3.17,6.58c4.41,8.82,15.83,10,26.42,10h27.67
				c11.01,0,33.99,0,38.12-23.66l0.82-4.84c2.48-14.21-5.37-21.48-24.22-22.26l-3.58-0.07h-29.59c-14.18,0-13.76-2.02-12.8-7.49
				c1.1-6.93,2.48-8.96,23.4-8.96h52.16c11.28,13.85,25.6,31.36,26.16,32.06c-0.28,1.54-6.34,35.62-6.34,35.62h18.45
				c0,0,6.05-34.08,6.33-35.62c0.96-0.83,32.63-27.94,48.31-41.3l-13.48,76.51h64.68c27.12,0,38.68-11,44.19-41.93
				C393.6,606.09,386.86,596.35,358.92,596.35z"/>
			<path style="fill:#053E6B;" d="M476.59,656.63c-4.95-5.88-52.16-60.27-52.16-60.27h-0.82h-20.37l-14.73,83.79h18.72
				c0,0,9.21-52.22,10.59-60.27c5.09,5.81,52.3,60.27,52.3,60.27h21.2l14.72-83.79h-18.71
				C487.33,596.35,478.11,648.57,476.59,656.63"/>
			<path style="fill:#053E6B;" d="M676.02,596.43c0,0-35.23,30.39-38.4,33.04c-2.06-2.65-26.7-33.04-26.7-33.04h-0.96h-24.91
				l0.13,0.07h-69.22l-14.73,83.51h82.71l2.9-16.87c0,0-60.15,0-63.86,0c0.55-2.94,2.62-14.63,3.17-17.64c3.72,0,60.97,0,60.97,0
				l2.89-16.81c0,0-57.26,0-60.98,0c0.55-2.87,2.21-12.52,2.75-15.39c3.31,0,55.75,0,67.03,0c11.56,14.07,26.01,31.85,26.56,32.48
				c-0.28,1.62-6.05,34.3-6.05,34.3h18.71c0,0,5.79-32.68,6.05-34.3c1.38-1.11,57.81-49.35,57.81-49.35L676.02,596.43"/>
		</g>
	</g>
	<g>
		<path style="fill:#FFFFFF;" d="M600.74,50.21c-1.92,0.07-184.15,4.62-355.37,74.06l-7.01,2.87l0.4,7.56
			c0.28,2.94,4.69,72.45,25.88,159.04c28.49,116.9,71.85,204.12,128.96,259.07l6.47,6.3l7.3-5.46
			c1.92-1.53,49.54-38.42,98.81-117.87c45.15-72.94,100.06-197.12,105.29-374.64L611.75,50L600.74,50.21"/>
		
			<radialGradient id="SVGID_1_" cx="471.6943" cy="418.8215" r="251.3485" gradientTransform="matrix(0.8594 0 0 -0.8594 0.1406 689.3685)" gradientUnits="userSpaceOnUse">
			<stop  offset="0.3596" style="stop-color:#1D9ED5"/>
			<stop  offset="1" style="stop-color:#053E6B"/>
		</radialGradient>
		<path style="fill:url(#SVGID_1_);" d="M475.63,462.52c-0.92,0.48-1.85,0.94-2.78,1.39c0.94-0.46,1.86-0.93,2.79-1.41
			c0.47-0.64,0.95-1.31,1.42-1.97c1.55-2.18,3.1-4.39,4.66-6.66c-20.34,7.81-43.01,12.2-66.78,12.2c-31.39,0-60.56-7.56-85.06-20.58
			c0.14,0.48,0.41,0.89,0.68,1.37c0.14,0.11,0.27,0.23,0.41,0.34c0.85,0.7,1.71,1.4,2.58,2.07c1.19,0.93,2.4,1.84,3.63,2.73
			c0.54,0.39,1.09,0.77,1.63,1.16c1.45,1.02,2.91,2.03,4.41,2.99c-1.49-0.97-2.96-1.97-4.41-2.99c-0.55-0.38-1.09-0.77-1.63-1.16
			c-1.22-0.89-2.44-1.8-3.63-2.73c-0.87-0.68-1.72-1.37-2.58-2.07c-0.13-0.11-0.27-0.21-0.4-0.32c0-0.01-0.01-0.01-0.01-0.02
			c-0.03-0.03-0.07-0.06-0.1-0.08c18.88,36.92,42.04,71.11,70.44,98.46c0,0,34.44-26.36,74.76-82.76c-0.01,0-0.02,0.01-0.03,0.01
			C475.64,462.51,475.63,462.52,475.63,462.52z"/>
		<path style="fill:#053E6B;" d="M414.52,204.98c69.88,0,127.29,54.11,133.69,123.26c-0.78,1.98-1.58,3.95-2.37,5.9
			c29.04-71.33,51.78-161.87,55.03-273.37c0,0-180.02,3.71-351.52,73.29c0,0,5.3,86.04,32.65,184.85
			C292.48,254.29,347.82,204.98,414.52,204.98z"/>
		
			<radialGradient id="SVGID_00000180328041073731505560000005950203342464255880_" cx="471.6964" cy="418.8215" r="251.3493" gradientTransform="matrix(0.8594 0 0 -0.8594 0.1406 689.3685)" gradientUnits="userSpaceOnUse">
			<stop  offset="0.3596" style="stop-color:#1D9ED5"/>
			<stop  offset="1" style="stop-color:#053E6B"/>
		</radialGradient>
		<path style="fill:url(#SVGID_00000180328041073731505560000005950203342464255880_);" d="M414.52,204.98
			c69.86,0,127.25,54.08,133.69,123.2c14.03-35.4,26.48-75.38,35.77-120.2c-38.88-56.96-104.31-94.36-178.48-94.36
			c-59.22,0-112.86,23.84-151.87,62.44c4.36,34.45,12.8,86.58,28.37,142.85C292.49,254.28,347.82,204.98,414.52,204.98z"/>
		<path style="fill:#ED7A39;" d="M209.18,178.67c0.4,2.45,5.36,55.86,31.1,132.02c21.06,62.65,58.36,147.48,119.47,214.27
			c-61.39-74.35-93.45-169.13-109.56-237.37c-16.38-68.81-20.09-123.27-20.77-137.06L209.18,178.67"/>
		<path style="fill:#1D9ED5;" d="M233.13,374.67c0.68,1.61,14.18,36.82,45.97,83.51c26.14,38.5,67.3,88.84,121.25,122.58
			c-55.6-38.79-95.11-96.89-118.92-140.08c-23.95-43.54-36.88-79.66-39.92-88.89L233.13,374.67"/>
		<path style="fill:#ED7A39;" d="M650.84,114.26l-27.12-30.52c-9.09,169.27-62.48,288.89-106.66,360.37
			c-29.45,47.39-58.5,80.28-78.18,99.89C493.66,506.06,608.86,394.96,650.84,114.26"/>
		<polyline style="fill:#FFFFFF;" points="397.19,497.1 402,484.71 406.95,497.03 419.61,493.03 413.15,504.58 424.15,512.08 
			410.95,514.1 412.05,527.4 402.28,518.44 392.5,527.54 393.32,514.25 380.26,512.29 391.12,504.73 384.51,493.25 397.19,497.1 		
			"/>
		
			<radialGradient id="SVGID_00000083808552480849949010000016610884302847653035_" cx="459.9734" cy="462.6" r="202.6996" gradientTransform="matrix(0.8594 0 0 -0.8594 0.1406 689.3685)" gradientUnits="userSpaceOnUse">
			<stop  offset="5.600000e-03" style="stop-color:#1D9ED5"/>
			<stop  offset="0.55" style="stop-color:#053E6B"/>
		</radialGradient>
		<path style="fill:url(#SVGID_00000083808552480849949010000016610884302847653035_);" d="M529.17,365.64
			c-3.44,0.7-5.78,0.7-7.15,0.63c-0.7-11.13-11.42-32.83-13.08-36.12v-0.07c0.42-4.69,0.55-9.24,0.55-13.51
			c0-12.18-1.38-22.12-2.21-27.37l12.66-5.53c0.83-5.39-34.13-46.34-59.59-52.57l-3.16-0.77l0.82,3.08
			c1.24,4.2,4.13,15.18,4.54,20.37c-11.69,2.17-31.1,9.38-34.81,10.85c-18.17-7.14-35.92-8.4-40.47-8.61
			c-0.82-1.61-7.71-15.19-9.08-17.78c4.41-2.45,16.65-9.1,25.88-12.04l-0.55-3.64c-1.11,0-28.77-0.49-62.62,23.95l1.78,3.22
			c0.28-0.07,20.51-7.98,30.28-9.8c0.69,2.59,4.55,16.45,5.09,18.34c-10.05,8.82-22.98,30.66-25.32,34.44
			c-3.86,1.61-25.18,10.36-33.03,13.86c-4.27-6.16-8.39-20.23-8.39-20.45l-1.24-4.34l-2.21,3.99
			c-21.89,40.18-12.25,79.38-12.11,79.73l0.54,2.17l2.07-0.91c5.5-2.45,8.81-3.71,10.73-4.27c8.54,15.75,22.72,29.89,25.46,32.41
			c3.03,16.52,10.32,30.87,12.67,35c-2.07,2.16-5.79,4.9-7.3,5.88l-1.92,1.33l3.02,2.87l0.97-0.28c0.27-0.07,5.91-1.48,11.97-4.49
			c18.86,10.44,39.09,10.23,42.67,10.09c14.32,9.45,26.56,12.94,30,13.78l0.83,0.21l5.64-3.78l-3.85-1.11
			c-12.11-3.42-21.75-13.09-24.49-16.03c3.72-7.07,8.81-21.63,10.05-25.2c22.15-6.93,36.47-15.19,43.49-20.02
			c8.25,7.07,21.89,14.49,26.01,16.66c-0.68,4.55-3.3,20.37-7.98,28l-1.38,2.25l5.36,1.11l0.7-1.11
			c1.51-2.59,9.49-16.17,12.52-30.66c14.86-9.52,24.92-29.89,26.98-34.44c3.57-0.42,6.75-1.19,9.22-2.31l0.82-0.42l1.38-7.14
			L529.17,365.64z M370.07,374.73c-3.31,1.4-19.82,7.63-30.69,11.7c-9.36-5.39-23.54-23.66-26.02-26.89
			c-0.42-1.96-0.68-4.27-0.68-6.79c0-13.44,6.19-33.18,8.11-39.2c1.24-0.28,32.35-8.12,34.14-8.6c3.16,2.8,14.86,14.07,25.6,24.64
			C377.5,339.88,371.17,369.14,370.07,374.73z M456.36,389.44c-30.69,12.25-42.25,12.6-44.18,12.53
			c-12.94-7.56-27.94-22.4-30.69-25.13c0-0.49-0.14-0.91-0.14-1.61c0-7.21,2.34-26.53,4.67-43.75c7.43-2.87,32.63-12.18,41.98-15.61
			c8.81,6.79,29.31,28.07,32.49,31.36c0,0.63,0.14,1.4,0.14,2.45C460.63,357.3,458.56,374.8,456.36,389.44z M499.99,329.09
			c-4.81,1.33-25.18,8.12-31.24,10.15c-1.51-1.05-35.52-26.39-37.03-27.51c0.14-1.82,1.93-36.12,2.07-38.08
			c9.36-5.04,25.32-11.48,31.11-13.79c5.77,3.22,26.28,15.4,37.15,29.96c0.55,7.07,0.83,12.95,0.83,17.78
			C502.89,322.72,500.69,327.83,499.99,329.09z"/>
		<path style="fill:#ED7A39;" d="M329.88,445.51c0.14,0.48,0.42,0.9,0.69,1.39c22.84,18.98,52.3,30.39,84.37,30.39
			c21.87,0,42.52-5.33,60.69-14.77c2.06-2.8,4.13-5.74,6.19-8.68c-20.37,7.84-43.08,12.25-66.88,12.25
			C383.55,466.09,354.38,458.53,329.88,445.51"/>
		<path style="fill:#ED7A39;" d="M414.52,204.98c-66.71,0-122.04,49.31-132.51,113.93c0.71,2.58,1.44,5.16,2.19,7.75
			c9.95-62.17,64.51-109.71,130.32-109.71c68.45,0,124.72,51.42,131.3,117.24c0.8-1.97,1.6-3.96,2.39-5.96
			C541.81,259.1,484.4,204.98,414.52,204.98z"/>
		
			<linearGradient id="SVGID_00000124878750857939638950000008672440045816913036_" gradientUnits="userSpaceOnUse" x1="296.4563" y1="537.5698" x2="474.3361" y2="537.5698" gradientTransform="matrix(0.8594 0 0 -0.8594 0.1406 689.3685)">
			<stop  offset="0.2303" style="stop-color:#1D9ED5"/>
			<stop  offset="1" style="stop-color:#053E6B"/>
		</linearGradient>
		<path style="fill:url(#SVGID_00000124878750857939638950000008672440045816913036_);" d="M387.95,207.66
			c-0.04-0.14-0.08-0.29-0.12-0.43c-73.63-16.96-121.46-5.59-130.24-3.16c0.09,0.57,0.18,1.14,0.27,1.71
			c18.74,13.78,35.97,31.72,51.33,50.93C328.53,231.91,356.22,214.12,387.95,207.66z"/>
		
			<linearGradient id="SVGID_00000183208923853257978120000015877677312247266486_" gradientUnits="userSpaceOnUse" x1="341.869" y1="485.2289" x2="341.869" y2="641.5136" gradientTransform="matrix(1.2672 -0.3395 -0.3507 -1.309 210.3359 1050.5359)">
			<stop  offset="0" style="stop-color:#053E6B"/>
			<stop  offset="0.9494" style="stop-color:#1D9ED5"/>
		</linearGradient>
		<path style="fill:url(#SVGID_00000183208923853257978120000015877677312247266486_);" d="M410.7,205.04
			c1.27-0.04,2.54-0.06,3.83-0.06c1.26,0,2.51,0.02,3.77,0.06c0.28,0.01,0.55,0.02,0.83,0.03c1.07,0.04,2.13,0.08,3.18,0.15
			c0.16,0.01,0.31,0.02,0.47,0.03c18.56,1.14,36.1,6.1,51.87,14.11c17.86-23.22,32.51-40.76,32.51-40.76
			c-83.26-65.52-150.01-66.36-150.01-66.36c19.13,26.64,32.27,61.17,41.23,93.73c3.85-0.47,7.75-0.77,11.69-0.9
			C410.26,205.06,410.48,205.05,410.7,205.04z"/>
		
			<linearGradient id="SVGID_00000124870366008646781260000004579092038299424386_" gradientUnits="userSpaceOnUse" x1="559.53" y1="531.5297" x2="692.6622" y2="531.5297" gradientTransform="matrix(0.8594 0 0 -0.8594 0.1406 689.3685)">
			<stop  offset="5.600000e-03" style="stop-color:#1D9ED5"/>
			<stop  offset="0.1788" style="stop-color:#189BD2"/>
			<stop  offset="0.3434" style="stop-color:#1792C8"/>
			<stop  offset="0.5047" style="stop-color:#1284B8"/>
			<stop  offset="0.6638" style="stop-color:#0E72A3"/>
			<stop  offset="0.8214" style="stop-color:#0B5B89"/>
			<stop  offset="0.9759" style="stop-color:#08426E"/>
			<stop  offset="1" style="stop-color:#053E6B"/>
		</linearGradient>
		<path style="fill:url(#SVGID_00000124870366008646781260000004579092038299424386_);" d="M595.41,136.96
			c-52.65,18.55-87.22,51.49-114.41,85.85c37.02,21.42,63.02,60.19,67.22,105.39h0.02C569.29,275.07,586.75,211.55,595.41,136.96
			L595.41,136.96z"/>
	</g>
</g>
</svg>
