<?xml version="1.0" encoding="UTF-8"?>
<svg data-name="图层_1" xmlns="http://www.w3.org/2000/svg" version="1.1" viewBox="0 0 800 800">
  <!-- Created by @FCLOGO 2025-7-8 GMT+8 15:40:01 . https://fclogo.top/ -->
<!-- FOR PERSONAL USE ONLY NOT FOR COMMERCIAL USE -->
  <path d="M212.4136,409.2893l.2869,3.1788v.0099l-10.8998,3.158-.2869-3.1782,10.8998-3.1684ZM709.1193,206.5185v.0011l.011-.0011h-.011ZM202.2219,420.907l10.8987-3.158-.2869-3.1788-10.8987,3.158.2869,3.1788ZM193.5163,456.1675c-3.5374.3187-6.4692-2.3371-6.8279-6.2951l-2.6668-29.5918,6.6959-1.8963,2.7577,30.6985c.0509.5536.4512.8926,1.0048.8406l2.7993-.2557,5.1578-.4622-3.9268-15.3282c-1.4259-5.4858,1.6603-9.8435,7.5568-10.3763l4.2345-.3795c6.3055-.5635,9.9147,2.8705,9.4328,8.8485l-1.22,15.7903,5.5679-.5027,2.5321-.2251c.5542-.052.8926-.4512.8411-1.0048l-1.3947-15.5138c-.4408-4.9217,3.0348-9.0845,8.049-9.5352l1.2923-.1128c5.793-.5235,9.3195,3.0145,9.7614,7.9362l-.0208-.0208,1.415,15.6978c.3488,3.8654-1.2304,7.0234-5.9671,7.4538-4.2761.3795-5.9572-1.8344-6.512-4.3369.0827,1.9889-1.4966,5.0548-4.5313,5.3319l-4.9223.4408-26.7816,2.4094-4.3271.3893ZM232.715,428.2075l1.5486,17.2146c.0509.5536.4512.8926,1.0048.8406l3.6398-.3275c.5542-.0509.8926-.4512.8406-1.0048l-1.5475-17.2157c-.0515-.5536-.4518-.8915-1.0048-.8406l-3.6398.3286c-.5547.0509-.8931.4512-.8416,1.0048ZM204.9905,430.986l4.05,17.6357,2.9428-.2667v.0099l.7891-18.076c.0515-.8926-.4304-1.1691-.984-1.1182l-6.029.5438c-.5536.0515-.984.4101-.7688,1.2715ZM528.711,387.9727l-6.6954,1.9073,3.2812,36.4504,6.8077-.6144-3.3934-37.7433ZM497.3461,432.862l-4.7372.4304.5536,6.1215,4.6036-.4101c4.1015-.3685,7.3717-2.6558,6.8695-8.1821l-.6352-7.0853c.3077,3.4454,2.8913,4.286,4.1316,4.1732l4.3271-.3893c3.5484-.3176,5.9474-3.4553,5.598-7.4133l-2.7785-30.8836v-.0307l-6.6954,1.9073,2.6454,29.4067c.0515.5536-.2869.9539-.8406,1.0048l-2.8097.2568-2.4806.2251c-.5547.0509-.9539-.2869-1.0048-.8406l-1.8361-20.3841-6.6954,1.9078,2.6252,29.1806c.0509.5536-.2869.9534-.8406,1.0048ZM426.1658,433.2924c.7896,8.7877,6.225,10.4387,11.9353,9.9256l6.8597-.6155c4.4601-.3992,6.0909-3.5172,5.7212-7.5672l-2.7987-31.067.0104-.011-6.6855,2.0403,2.6558,29.5513c.0619.6456-.2765.9939-.8822,1.0558l-4.4185.3992c-5.3834.483-5.609-1.4966-5.9266-5.034-.431-4.7372.5229-11.1347,1.4144-16.7333l-6.3061.5635c-1.0963,5.8965-2.1011,11.7404-1.5793,17.4923ZM435.6611,404.0401l-5.7519.5125.6462,7.1357,5.7513-.512-.6456-7.1362ZM469.477,424.2802l-1.3947-15.5138c-.4408-4.9217,3.0348-9.0845,8.049-9.5352l1.2923-.1128c5.8028-.5229,9.3195,3.0145,9.7608,7.9362l-.0104-.011,1.4155,15.6983c.3483,3.8654-1.231,7.024-5.9682,7.4544-4.2756.3795-5.9572-1.8355-6.5103-4.3369.0816,1.9889-1.4977,5.0548-4.5319,5.3308l-4.9217.4414-4.3271.3893c-3.5374.3176-6.4698-2.3377-6.8285-6.2951l-2.6662-29.5918,6.6954-1.9073,2.7577,30.6996c.0515.5536.4512.892,1.0048.8406l2.8102-.2563,2.5326-.2256c.5536-.052.892-.4512.8406-1.0048ZM474.7372,406.449l1.5475,17.2157c.0515.5536.4518.892,1.0048.8411l3.6398-.3286c.5547-.0509.8931-.4512.8411-1.0048l-1.548-17.2152c-.0509-.5536-.4512-.8926-1.0048-.8406l-3.6398.3275c-.5536.0515-.8926.4512-.8406,1.0048ZM501.406,397.9394l-.6462-7.1373-5.7519.5235.6462,7.1357,5.7519-.5219ZM400.0003,750S80.0833,604.1557,90.8802,206.5185c0,0,4.7985.5021,12.8372.5021,39.6188,0,157.9028-12.2222,167.1812-157.0207,0,0,44.2027,25.941,129.1017,25.941s129.1099-25.941,129.1099-25.941c9.2696,144.8192,127.563,157.0207,167.1823,157.0207,8.0134,0,12.7972-.4978,12.8268-.501,10.8073,397.6355-309.119,543.4804-309.119,543.4804ZM695.3595,221.0472c-21.9217-.1024-63.3251-3.7324-101.1806-26.1666-21.8702-12.9708-39.5678-30.463-52.6005-51.9949-12.3646-20.4356-20.5577-44.6336-24.4434-72.1227-21.471,8.1925-60.8237,19.215-117.1248,19.215s-95.6543-11.0225-117.1243-19.215c-3.8868,27.4891-12.0788,51.6871-24.4445,72.1227-13.0327,21.5318-30.7303,39.0241-52.6005,51.9949-37.8555,22.4441-79.2589,26.0642-101.1806,26.1666-.5843,83.4321,13.8426,161.696,42.952,232.8347,24.5671,60.0335,59.6031,115.2274,104.1436,164.0337,63.8272,69.9487,128.8241,106.4309,148.2543,116.4376,7.8946-4.0702,23.3055-12.4884,42.9509-25.6437,26.5565-17.7792,66.5247-48.13,106.1024-91.6761,44.3357-48.7854,79.1976-103.9175,103.6316-163.8694l.0099.0099c28.915-70.953,43.2394-148.9711,42.6546-232.1266ZM619.5247,420.9169l-.7069-7.916c.2765,3.0862-2.4193,5.1375-5.2706,5.3938l-.3691.0307c-4.2345.3795-6.5103-2.7067-6.8695-6.7162l-1.3942-15.4618c-.4819-5.4244,3.2395-8.9208,8.1618-9.3611l1.5168-.1336c4.7482-.4211,8.911,1.9889,9.3819,7.2797v-.0208l2.2966,25.5002c.5027,5.5268-2.2457,8.0901-6.8903,8.5107l-6.213.5646-.5536-6.1215,6.0695-.5438c.5536-.0509.8926-.4512.8406-1.0048ZM618.6233,410.8478l-1.5486-17.2146c-.0509-.5547-.4512-.8931-1.0048-.8416l-3.6398.328c-.5536.0515-.892.4518-.8406,1.0048l1.5475,17.2163c.052.5536.4512.8915,1.0048.8406l3.6398-.3286c.5547-.0509.8926-.4512.8416-1.0048ZM553.6681,427.7974l-4.7372.4304.5536,6.1204,4.6031-.4096c4.0916-.3691,7.3722-2.6558,6.8701-8.1821l-.6352-7.0853c.3077,3.4454,2.8913,4.286,4.1321,4.1737l14.59-1.3126,21.8604-1.9691-.5536-6.121-12.058,1.087-.0099-.0208-1.6411-18.272c-.0509-.5536.2875-.9528.8411-1.0048l3.5473-.3176c.5542-.0509.9534.2875,1.0048.8406l.9435,10.5411,6.5623-1.887-.7179-7.957c-.4819-5.3828-3.3113-7.956-9.0227-7.4434l-2.3481.2152c-5.5268.4923-7.8234,3.3014-7.3109,9.0128l1.0152,11.3198c.3592,4.0095,2.2971,5.4036,3.9065,5.2602l-6.5826.5947-3.866.3483-2.0704-23.0081-6.6959,1.8969,1.9587,21.7268-3.9071.3488-2.4811.2251c-.5531.0515-.9534-.2869-1.0048-.8406l-1.9889-22.0964-6.6954,1.8974,2.7785,30.8836c.0509.5536-.2869.9528-.8406,1.0048ZM569.632,432.4628l5.7519-.5136-.6456-7.1357-5.7519.512.6456,7.1373ZM278.6612,461.7152l5.7513-.5125-.6456-7.1362-5.7519.5125.6462,7.1362ZM363.3955,406.5005h-.0011l.0011.0104v-.0104ZM362.7493,399.3747l-5.7524.5125.6456,7.1362,5.7519-.5229-.6451-7.1258ZM270.2223,462.4024l5.7524-.5235-.6462-7.1357-5.7524.5229.6462,7.1362ZM272.0677,425.8282s-1.1171,11.2377-.7179,15.6978c.4003,4.4607,2.5742,4.3583,5.3319,4.1113l3.4038-.3072-3.4038-21.8292c-.6456-4.1217,1.415-6.4391,5.742-6.8285l12.4276-1.1182,2.1838,24.249c.0509.5542.4512.8926,1.0048.8416l2.4817-.2262,3.4038-.3077-2.1739-24.1674,6.6954-1.9073.3691,4.102,3.0654-2.5025c1.467-1.1992,3.1996-2.1422,5.3116-2.3371,4.0095-.3696,7.2802,1.9894,7.7314,7.0026l1.599,17.7693,3.4049-.3077,2.4806-.2251c.5542-.0509.8926-.4512.8416-1.0048l-1.3953-15.5138c-.4408-4.9212,3.0353-9.084,8.0496-9.5352l1.2918-.1134c5.793-.5229,9.32,3.0145,9.7614,7.9368l1.4144,15.6978c.0208.2251.0416.4611.0208.7382l3.4454-.3077,3.906-.3488-1.9582-21.7268,6.6954-1.8969,2.0715,23.0092,3.8649-.3494,4.4607-.3997-1.7939-19.9329,6.6943-1.8963,1.9078,21.2142,6.07-.5438-1.8043-20.0249,6.6948-1.9073,1.9182,21.3068,5.1567-.4616c.5536-.0515.892-.4507.8406-1.0048l-1.8755-20.8452,6.6954-1.8969v.0099l1.9987,22.1889c.3592,4.0089-2.0398,7.2386-5.7212,7.5672l-30.6985,2.7577-14.5802,1.3126c-2.5326.2262-3.8753-.7688-4.6244-2.3683-.8104,1.743-2.5123,3.0145-5.3626,3.2708-4.2761.3893-5.9572-1.8246-6.5109-4.3271.0816,1.9795-1.4977,5.045-4.5324,5.3215l-4.8703.4414-29.4062,2.6449-3.866.3488c-3.6815.3286-6.6133-2.2763-6.9719-6.2858l-1.651-18.3229-4.4607.4003c-.3176.0307-.5843.2459-.5021.6045l3.1892,20.4969c.6352,4.0303-1.4352,7.2288-5.2602,7.5776l-5.1988.472c-5.9879.5427-10.9294-.7283-11.7398-9.7515-.5339-5.9874.8203-15.6671.8203-15.6671l6.6335-.5947ZM338.4998,418.7123l1.5486,17.2152c.0509.5547.4512.8926,1.0048.8416l3.6289-.3286c.5547-.0509.8926-.4512.8416-1.0048l-1.5486-17.2157c-.0509-.5536-.4512-.892-1.0048-.8406l-3.63.328c-.5536.0515-.892.4518-.8406,1.0048ZM309.5333,426.3304l1.1899,13.1652,8.9619-.8093-1.6921-18.784c-.0307-.3696-.2459-.6264-.5646-.5947-.092.0099-.2251.0203-.3992.1741l-6.9522,5.7316c-.3893.3072-.5947.6051-.5438,1.1171ZM315.0295,403.6705l-5.7513.5131.6456,7.1362,5.7519-.5131-.6462-7.1362ZM579.32,284.4238c-.3691,0-.6768.2968-.6768.6763v5.3012c0,.3691.2973.6768.6768.6768h3.4657c.3696,0,.6763-.2979.6763-.6768v-5.3012c0-.3685-.2968-.6763-.6763-.6763h-3.4657ZM218.4804,284.4637v18.7747h4.2663c.4096,0,.6861-.2776.6861-.6872v-17.4003c0-.4096-.2765-.6872-.6861-.6872h-4.2663ZM497.0669,105.707c0,.0011.0005.0011.0005.0022.0033-.0011.0071-.0011.0104-.0022h-.011ZM467.8857,308.7341c.0005.0011.0022.0022.0027.0033l-.0027-.0131v.0099ZM668.2586,246.3837c-1.1899,38.091-5.742,74.9422-13.5764,110.3577l-246.1636,22.1572c-1.1072-5.6802-6.685-9.1771-6.685-13.7292,0-5.034,6.8493-8.7773,6.8903-15.6162-.0411-6.8383-6.8903-10.5817-6.8903-15.6157s6.8493-8.7768,6.8903-15.6162c-.0411-6.8389-8.7259-15.6162-8.7259-15.6162,0,0-8.6842,8.7773-8.7259,15.6162.0416,6.8394,6.8903,10.5817,6.8903,15.6162s-6.8487,8.7773-6.8903,15.6157c.0416,6.8389,6.8903,10.6742,6.8903,15.6162s-6.6034,8.6541-6.8695,15.2778l-234.0646,21.0702c-15.2471-48.775-23.7983-100.6878-25.5002-155.1337,74.6849-7.8442,145.5574-48.4476,171.1907-140.6767,23.4188,6.07,58.1268,11.0531,97.0791,11.0531s73.6505-4.9831,97.0693-11.0509c25.6355,92.2379,96.5053,132.8303,171.1912,140.6745ZM189.7105,279.9943h-14.3743v4.4705h9.1459v18.0869c0,.4101-.2776.6872-.6872.6872h-3.0243c-.4101,0-.6872-.2771-.6872-.6872v-8.8387l-5.23,1.036v7.1154c0,3.6097,2.8612,6.1834,6.8805,6.1834h1.0974c4.0292,0,6.8794-2.5737,6.8794-6.1834v-21.8702ZM208.4748,307.709v-4.47h-8.1821v-7.5978h7.0135v-4.4711h-7.0135v-6.7053h8.0485v-4.4705h-13.267v27.7147h13.4007ZM228.664,286.1766c0-3.5681-2.6153-6.1823-6.1927-6.1823h-9.2187v27.7147h9.2187c3.6092,0,6.1927-2.6147,6.1927-6.1922v-15.3402ZM388.1044,300.3368s-24.9565-11.6067-53.4821-6.0388c-14.9695,3.2094-20.4449,15.1332-20.8041,26.7203,0,0,11.1555-1.6504,18.3027-12.294l-1.1877,6.1922c27.9096-17.2858,57.1713-14.5796,57.1713-14.5796ZM395.6409,295.3126s-12.9911-25.3973-49.6676-32.5537c-19.215-3.7433-32.5444-.7491-31.8884,16.0773l11.4742-2.0414-1.4051,5.506c4.8292.759,10.9814.4414,17.5333-3.158l-3.9602,5.0346c20.5347-1.7216,39.1834,1.4675,57.9138,11.1353ZM397.4348,284.3312s-.984-81.0731-84.9703-72.696c0,0,9.6798,22.7524,37.7942,23.9724l-10.1918,3.6398s7.1472,9.6688,25.7976,8.428l-8.6229,3.4558v.0099c22.937,9.3512,40.1932,33.19,40.1932,33.19ZM405.0124,242.2823c2.83-5.373,6.7469-9.3096,7.1767-14.2012,0,0-7.0951,2.4915-7.4127-.9221-.2464-2.646,4.4809-4.861,4.4809-10.3462,0-7.6898-7.157-10.9704-9.2691-16.4874-2.1126,5.506-9.2696,8.7872-9.2696,16.4874,0,5.4852,4.7274,7.7002,4.4804,10.3462-.3176,3.4137-7.4133.9221-7.4133.9221.4414,4.8916,4.3479,8.8283,7.1882,14.2012h-.0104c3.7526,7.1061,5.0247,12.1193,5.0247,12.1193,0,0,1.2715-5.0132,5.0241-12.1193ZM462.2773,284.1982l-3.9684-5.0444c6.5525,3.5982,12.7041,3.9169,17.5339,3.158l-1.4051-5.506,11.4737,2.0403c.656-16.8258-12.6734-19.8305-31.8879-16.0773-36.6766,7.1565-49.6676,32.5548-49.6676,32.5548v.0099c18.7232-9.6688,37.384-12.8574,57.9215-11.1353ZM486.1879,321.028c-.3685-11.5859-5.8335-23.5108-20.8035-26.7203-28.5246-5.5668-53.4816,6.0399-53.4816,6.0399,0,0,29.2633-2.7067,57.1723,14.5796l-1.1866-6.19c7.1472,10.6304,18.2994,12.2907,18.2994,12.2907ZM487.5316,211.6243c-83.9961-8.377-84.9703,72.6971-84.9703,72.6971,0,0,17.2562-23.8498,40.1932-33.19l-8.6224-3.4558c18.6504,1.2408,25.797-8.428,25.797-8.428l-10.1918-3.6398v-.011c28.115-1.22,37.7942-23.9724,37.7942-23.9724ZM612.1409,284.4342h9.6486v1.9993c0,.2979-.0307.5438-.1331.8099l-7.1674,20.1382h5.4343l5.8039-16.3341c.8816-2.4401,1.22-3.8041,1.22-6.4183v-4.614h-14.8063v4.4191ZM593.295,300.9315c0,3.9684,2.8201,6.7879,6.7879,6.7879h1.5584c3.9793,0,6.7978-2.8097,6.7978-6.7879l.011.0208v-5.4036c0-2.8918-1.5694-5.0959-3.9788-5.8444l3.9071-5.609v-4.0801h-14.9498v4.4191h8.664l-3.9678,5.977v2.7484h4.4804c.4107,0,.6774.2661.6774.6774v8.4586c0,.4096-.2667.6763-.6774.6763h-3.4652c-.4107,0-.6774-.2667-.6774-.6763v-6.6959l-5.1676,1.0158v4.3161ZM573.4246,300.9315c0,3.9377,2.8601,6.7879,6.7978,6.7879h1.6302c3.9377,0,6.7879-2.8502,6.7879-6.7879h-.0104v-14.4679c0-3.9673-2.8091-6.7868-6.7874-6.7868h-1.5595c-3.9777,0-6.7978,2.8091-6.7978,6.7868v3.9377c0,3.1585,2.1433,5.4343,4.994,5.4343s4.9935-1.5584,4.9935-3.7324v10.1923c0,.4096-.2667.6763-.6774.6763h-3.527c-.4096,0-.6763-.2667-.6763-.6763v-4.1732l-5.1676,1.0147v1.7945ZM555.0808,307.3815h14.642l.011-.011v-4.4185h-4.5231v-23.2962l-9.3403,1.8355v3.9782h4.1726v17.4923h-4.9623v4.4196ZM340.0358,576.0823h-.0099c0-.5952-.4003-.995-.995-.995h-5.1873c-.5952,0-.995.3997-.995.995v14.026l7.1871-1.3942v-12.6318ZM425.5301,529.6532v-3.855c0-8.4888-2.9838-12.1604-9.3003-13.1236,1.456,2.2347,2.4099,5.0033,2.4099,8.0178,0,3.4553-1.22,6.5826-3.0254,8.9608h9.9158ZM191.8959,485.893l434.4375-39.1068c-22.886,54.9174-54.9995,105.5591-95.593,150.5919-51.5234,57.1526-104.4207,91.4192-130.7412,106.4714-26.3096-15.0522-79.2069-49.3188-130.721-106.4616v.011c-30.7702-34.1341-56.6697-71.5072-77.3823-111.506ZM351.8293,556.1494c0-2.1126-1.6411-3.7526-3.7532-3.7526s-3.7526,1.64-3.7526,3.7526,1.6302,3.7521,3.7526,3.7521c2.1121,0,3.7532-1.64,3.7532-3.7521ZM374.2115,588.5198l-7.5874,1.4966v11.3302c0,.5947-.3992.9939-.9939.9939h-5.3938v-33.7437h-7.5874v40.2348h15.5751c3.4964,0,5.9874-2.4921,5.9874-5.9885v-14.3233ZM409.3614,577.0871c0-5.2399-4.1436-8.9827-9.9875-8.9827h-2.399c-5.8444,0-9.9875,3.7428-9.9875,8.9827v31.7444h7.5885v-12.8788h7.1871v12.8788h7.5984v-31.7444ZM467.7132,546.3164h7.0338v-49.0319l-7.0338,2.0201v47.0118ZM467.1591,608.8316h7.588v-40.2348h-7.588v40.2348ZM463.3144,588.5198l-7.5874,1.4966v11.3302c0,.5947-.4003.9939-.995.9939h-5.3927v-33.7437h-7.5885v40.2348h15.5751c3.4969,0,5.9885-2.4921,5.9885-5.9885v-14.3233ZM454.3219,529.5519h-14.734v16.7645h21.7678v-49.0319l-7.0338,2.0201v30.2473ZM439.4855,500.1659h6.9309v-2.1225h-2.4089l-1.2518-2.0206c-.1944-.3784-.3893-.7688-.3893-1.0558,0-.4819.4819-.7688.9638-.7688.5739,0,.9643.3795.9643,1.0558v.5739h2.1219v-.9632c0-1.6302-1.1483-2.7894-2.9833-2.7894-2.0206,0-3.2708,1.4462-3.2708,2.8918,0,.6774.1944,1.2512.7688,2.1225l.6763.9638h-2.1219v2.1126ZM439.4855,526.2712h7.0338v-24.1783l-7.0338,1.9281v22.2503ZM436.5526,568.5967h-7.5874v15.5242l-6.9922,1.3427v-16.8773h-7.5874v40.2343h7.5874v-17.5224h6.9922v17.5224h7.5874v-40.2239ZM325.2421,531.6847c0,12.335,8.1821,18.0152,18.3941,18.0152,11.7508,0,18.8766-6.7469,18.8766-15.1239,0-11.0832-9.6277-15.4213-9.6277-19.1745,0-1.0656.6763-2.4089,4.8188-4.0494l18.2107,34.9642h21.4804c3.9476,0,7.5162-.7694,10.4995-2.1225,3.0862,1.3531,6.7469,2.1225,10.8888,2.1225h13.7708v-22.4452c0-12.1395-6.3575-18.4971-21.2865-18.4971h-17.6248v7.0338h6.1204c-1.5683,2.2763-2.6038,5.1474-2.6038,8.2856,0,3.4548,1.2304,6.5924,3.0342,8.9608h-12.4265v-32.3698l-7.0338,2.0201v30.3398h-5.5887l-14.929-28.7097c-12.4265,6.0695-17.2453,8.572-17.2453,16.2821,0,6.737,8.377,10.879,8.377,14.4471,0,3.0862-2.5025,5.4962-9.5363,5.4962s-12.4265-3.4756-12.4265-10.4075c0-7.997,7.3207-16.9589,12.519-22.3521l-.8712-.7694.0099.0203c-10.0176,8.5725-15.8002,19.4619-15.8002,28.0334ZM338.8174,552.376c-2.1121,0-3.7532,1.64-3.7532,3.7532,0,2.1115,1.6411,3.7526,3.7532,3.7526s3.7526-1.6313,3.7526-3.7526c0-2.1132-1.6406-3.7532-3.7526-3.7532ZM325.2317,577.0663h.0104v31.7444h7.5874v-12.8788h7.1871v12.8788h7.5874v-31.7444c0-5.2394-4.142-8.9827-9.9864-8.9827h-2.399c-5.845,0-9.987,3.7433-9.987,8.9827ZM400.7888,575.0873h-5.1983c-.5947,0-.995.3997-.995.995v14.026l7.1882-1.3942v-12.6318c0-.5952-.4003-.995-.995-.995ZM407.8944,529.5513c3.3732-2.4089,5.1057-5.7826,5.1057-8.572s-1.7326-6.1615-5.1057-8.5714c-3.3737,2.4099-5.1068,5.7831-5.1068,8.5714s1.7331,6.1631,5.1068,8.572Z" style="fill: #002a49;"/>
</svg>