<!-- Created by @FCLOGO 2021-12-07 22:42:14 . https://fclogo.top/ -->
<!-- FOR PERSONAL USE ONLY NOT FOR COMMERCIAL USE -->
<svg version="1.1" xmlns="http://www.w3.org/2000/svg" xmlns:xlink="http://www.w3.org/1999/xlink" x="0px" y="0px"
	 viewBox="0 0 800 800" style="enable-background:new 0 0 800 800;" xml:space="preserve">
<style type="text/css">
	.st0{fill:#224F51;}
</style>
<g>
	<path class="st0" d="M312.6,195c5.5-14.2,8.8-28.8,10-43.5c-25.5-13.4-47.2-33.1-62.8-57.1c-11.6,9.1-22.3,19.3-31.9,30.4
		C249.3,155,278.5,179.4,312.6,195z"/>
	<path class="st0" d="M255.7,279.5c-24.3,15.4-52.3,24.3-80.9,25.8c2.1,14.8,5.6,29.1,10.3,42.9c37-3.4,72.7-16.5,103.2-38.3
		C278.8,298.1,267.8,287.9,255.7,279.5z"/>
	<path class="st0" d="M375.8,388.5c-15,2.4-29.4,6.8-42.7,13.1c1.2,28.8-5.1,57.4-18.1,83c13.5,5.4,27.7,9.6,42.3,12.4
		C372.8,463.3,379.3,425.8,375.8,388.5z"/>
	<path class="st0" d="M572.3,422.3c-21.4-30.3-50.7-54.7-84.7-70.2c-5.5,14.2-8.8,28.8-10,43.5c25.5,13.4,47.2,33.1,62.8,57.1
		C552,443.6,562.7,433.4,572.3,422.3z"/>
	<path class="st0" d="M264.7,273.5c11.7,8.6,22.5,18.7,31.9,30.4c5.3,6.6,10.1,13.6,14.4,21.1s8,15.2,11.1,23
		c-3.1,1.2-6.2,2.6-9.2,3.9c-34.1,15.6-63.3,39.9-84.7,70.2c9.6,11.1,20.3,21.3,31.9,30.4c15.6-24,37.3-43.8,62.8-57.1
		c3.2-1.6,6.4-3.2,9.6-4.6c13.3-5.9,27.5-10.1,42.3-12.4c8.3-1.3,16.8-1.9,25.5-1.9s17.2,0.7,25.5,1.9c-0.5,3.3-0.9,6.6-1.2,10
		c-3.6,37.3,2.9,74.8,18.5,108.5c14.6-2.8,28.8-7,42.3-12.4c-13-25.6-19.3-54.2-18.1-83c0.1-3.6,0.4-7.1,0.8-10.7
		c1.5-14.4,5-28.8,10.4-42.8c3.1-7.8,6.7-15.5,11.1-23c4.3-7.5,9.2-14.5,14.4-21.1c2.6,2.1,5.3,4.1,8,6
		c30.5,21.7,66.3,34.9,103.2,38.3c4.8-13.7,8.3-28.1,10.3-42.9c-28.6-1.5-56.6-10.4-80.9-25.8c-3.1-1.9-6-3.9-8.9-6
		c-11.7-8.6-22.5-18.7-31.9-30.4c-5.3-6.6-10.1-13.6-14.4-21.1s-8-15.2-11.1-23c3.1-1.2,6.2-2.6,9.2-3.9
		c34.1-15.6,63.3-39.9,84.7-70.2c-9.6-11.1-20.3-21.3-31.9-30.4c-15.6,24-37.3,43.8-62.8,57.1c-3.2,1.6-6.4,3.2-9.6,4.6
		c-13.3,5.9-27.5,10.1-42.3,12.4c-8.3,1.3-16.8,1.9-25.5,1.9s-17.2-0.7-25.5-1.9c0.5-3.3,0.9-6.6,1.2-10
		c3.6-37.3-2.9-74.8-18.5-108.5c-14.6,2.8-28.8,7-42.3,12.4c13,25.6,19.3,54.2,18.1,83c-0.1,3.6-0.4,7.1-0.8,10.7
		c-1.5,14.4-5,28.8-10.4,42.8c-3.1,7.8-6.7,15.5-11.1,23c-4.3,7.5-9.2,14.5-14.4,21.1c-2.6-2.1-5.3-4.1-8-6
		c-30.5-21.7-66.3-34.9-103.2-38.3c-4.8,13.7-8.3,28.1-10.3,42.9c28.6,1.5,56.6,10.4,80.9,25.8C258.8,269.4,261.8,271.4,264.7,273.5
		z M348.5,243.7c6.2-10.7,11.3-21.7,15.4-32.9c11.8,2,23.9,3.1,36.2,3.1c12.3,0,24.4-1.1,36.2-3.1c4.1,11.2,9.2,22.2,15.4,32.9
		c6.2,10.7,13.1,20.6,20.8,29.8c-7.6,9.2-14.6,19.1-20.8,29.8s-11.3,21.7-15.4,32.9c-11.8-2-23.9-3.1-36.2-3.1s-24.4,1.1-36.2,3.1
		c-4.1-11.2-9.2-22.2-15.4-32.9s-13.1-20.6-20.8-29.8C335.3,264.3,342.3,254.4,348.5,243.7z"/>
	<path class="st0" d="M467.1,145.4c-1.2-28.8,5.1-57.4,18.1-83c-13.5-5.4-27.7-9.6-42.3-12.4c-15.5,33.7-22,71.2-18.5,108.5
		C439.4,156.2,453.8,151.7,467.1,145.4z"/>
	<path class="st0" d="M544.5,267.5c24.3-15.4,52.3-24.3,80.9-25.8c-2.1-14.8-5.6-29.1-10.3-42.9c-37,3.4-72.7,16.5-103.2,38.3
		C521.4,248.9,532.4,259.1,544.5,267.5z"/>
	
		<ellipse transform="matrix(0.7071 -0.7071 0.7071 0.7071 19.407 238.2527)" class="st0" cx="297.3" cy="95.7" rx="20.1" ry="20.1"/>
	
		<ellipse transform="matrix(0.7071 -0.7071 0.7071 0.7071 -136.4381 217.8093)" class="st0" cx="194.7" cy="273.6" rx="20.1" ry="20.1"/>
	
		<ellipse transform="matrix(0.9732 -0.2298 0.2298 0.9732 -95.7522 80.427)" class="st0" cx="297.5" cy="451.4" rx="20.1" ry="20.1"/>
	
		<ellipse transform="matrix(0.9732 -0.2298 0.2298 0.9732 -90.2343 127.6153)" class="st0" cx="502.9" cy="451.3" rx="20.1" ry="20.1"/>
	<circle class="st0" cx="605.4" cy="273.4" r="20.1"/>
	<circle class="st0" cx="502.7" cy="95.6" r="20.1"/>
	<path class="st0" d="M508.3,538.5c-30.5,12.1-43,34.7-47.4,42.8c-11,20.2-17.8,47.2-18.4,83.7c0,32.6,23.8,51,58.8,51
		c23.8,0,42.3-7.3,52.8-12.5c4.7-17.2,9.5-34.4,14.2-51.6c-9.2,4.9-22.9,10.7-40.4,12.5c-8.3,0.8-12.5,1.2-16.6-1.2
		c-14.3-8.4-11.6-39.5-3.6-58.8c4.3-10.4,9.1-14.6,10.7-16c9.2-7.7,20-8,28.5-8.3c5.9-0.2,16.3,0.3,28.5,5.3
		c1.4-16.6,2.8-33.2,4.2-49.8C570.9,533,537.1,526.9,508.3,538.5z"/>
	<path class="st0" d="M330.9,618.3c-11.5-19.6-22.9-39.2-34.4-58.8c-16.1,1.2-32.1,2.4-48.1,3.6c-9.1,58.2-18.2,116.3-27.3,174.5
		c17.8-1.4,35.6-2.8,53.4-4.2c4.2-29.9,8.3-59.7,12.5-89.6c10.5,17.4,21,34.8,31.5,52.2c15.8-19.2,31.7-38.4,47.5-57.6
		c-4.2,29.3-8.3,58.6-12.5,87.8c17.8-1.6,35.6-3.2,53.4-4.7c9.1-58.4,18.2-116.7,27.3-175.1c-16.4,1.4-32.8,2.8-49.3,4.2
		C366.9,573.2,348.9,595.7,330.9,618.3z"/>
	<path class="st0" d="M648.4,649.1c5.9-41.5,11.9-83.1,17.8-124.6c-19,1.7-38,3.5-57,5.3c-9.1,58.4-18.2,116.7-27.3,175.1
		c40.2-3.8,80.3-7.5,120.5-11.3c5.3-17,10.7-34,16-51C695.1,644.7,671.7,646.9,648.4,649.1z"/>
	<path class="st0" d="M147.4,572.5c-30.5,12.1-43,34.7-47.4,42.8c-11,20.2-17.8,47.2-18.4,83.7c0,32.6,23.8,51,58.8,51
		c23.8,0,42.3-7.3,52.8-12.5c4.7-17.2,9.5-34.4,14.2-51.6c-9.2,4.9-22.9,10.7-40.4,12.5c-8.3,0.8-12.5,1.2-16.6-1.2
		c-14.3-8.4-11.6-39.5-3.6-58.8c4.3-10.4,9.1-14.6,10.7-16c9.2-7.7,20-8,28.5-8.3c5.9-0.2,16.3,0.3,28.5,5.3
		c1.4-16.6,2.8-33.2,4.2-49.8C210,567,176.2,560.9,147.4,572.5z"/>
</g>
</svg>
