<!-- Created by @FCLOGO 2021-12-07 22:42:26 . https://fclogo.top/ -->
<!-- FOR PERSONAL USE ONLY NOT FOR COMMERCIAL USE -->
<svg version="1.1" xmlns="http://www.w3.org/2000/svg" xmlns:xlink="http://www.w3.org/1999/xlink" x="0px" y="0px"
	 viewBox="0 0 800 800" style="enable-background:new 0 0 800 800;" xml:space="preserve">
<style type="text/css">
	.st0{fill:#00001C;}
	.st1{fill:#64FFCA;}
	.st2{fill:#00CCFE;}
	.st3{fill:#4A36BE;}
	.st4{fill:#D7000F;}
	.st5{fill:#FFA607;}
	.st6{fill:#9AFC01;}
	.st7{fill:url(#SVGID_1_);}
	.st8{fill:#00001D;}
	.st9{fill:#1B1F31;}
	.st10{fill:url(#SVGID_00000119115501595667646490000001534740686003775153_);}
	.st11{fill:url(#SVGID_00000165208597903759079610000014527542444353845171_);}
</style>
<g>
	<g>
		<g>
			<path class="st0" d="M312.6,195c5.5-14.2,8.8-28.8,10-43.5c-25.5-13.4-47.2-33.1-62.8-57.1c-11.6,9.1-22.3,19.3-31.9,30.4
				C249.3,155,278.5,179.4,312.6,195z"/>
			<path class="st0" d="M255.7,279.5c-24.3,15.4-52.3,24.3-80.9,25.8c2.1,14.8,5.6,29.1,10.3,42.9c37-3.4,72.7-16.5,103.2-38.3
				C278.8,298.1,267.8,287.9,255.7,279.5z"/>
			<path class="st0" d="M333.1,401.6c1.2,28.8-5.1,57.4-18.1,83c13.5,5.4,27.7,9.6,42.3,12.4c15.5-33.7,22-71.2,18.5-108.5
				C360.8,390.9,346.4,395.3,333.1,401.6z"/>
			<path class="st0" d="M487.6,352.1c-5.5,14.2-8.8,28.8-10,43.5c25.5,13.4,47.2,33.1,62.8,57.1c11.6-9.1,22.3-19.3,31.9-30.4
				C550.9,392,521.6,367.6,487.6,352.1z"/>
			<path class="st0" d="M535.7,273.5c-11.7-8.6-22.5-18.7-31.9-30.4c-5.3-6.6-10.1-13.6-14.4-21.1c-4.3-7.5-8-15.2-11.1-23
				c3.1-1.2,6.2-2.6,9.2-3.9c34.1-15.6,63.3-39.9,84.7-70.2c-9.6-11.1-20.3-21.3-31.9-30.4c-15.6,24-37.3,43.8-62.8,57.1
				c-3.2,1.6-6.4,3.2-9.6,4.6c-13.3,5.9-27.5,10.1-42.3,12.4c-8.3,1.3-16.8,1.9-25.5,1.9s-17.2-0.7-25.5-1.9c0.5-3.3,0.9-6.6,1.2-10
				c3.6-37.3-2.9-74.8-18.5-108.5c-14.6,2.8-28.8,7-42.3,12.4c13,25.6,19.3,54.2,18.1,83c-0.1,3.6-0.4,7.1-0.8,10.7
				c-1.5,14.4-5,28.8-10.4,42.8c-3.1,7.8-6.7,15.5-11.1,23c-4.3,7.5-9.2,14.5-14.4,21.1c-2.6-2.1-5.3-4.1-8-6
				c-30.5-21.7-66.3-34.9-103.2-38.3c-4.8,13.7-8.3,28.1-10.3,42.9c28.6,1.5,56.6,10.4,80.9,25.8c3,1.9,6,3.9,8.9,6
				c11.7,8.6,22.5,18.7,31.9,30.4c5.3,6.6,10.1,13.6,14.4,21.1c4.3,7.5,8,15.2,11.1,23c-3.1,1.2-6.2,2.6-9.2,3.9
				c-34.1,15.6-63.3,39.9-84.7,70.2c9.6,11.1,20.3,21.3,31.9,30.4c15.6-24,37.3-43.8,62.8-57.1c3.2-1.6,6.4-3.2,9.6-4.6
				c13.3-5.9,27.5-10.1,42.3-12.4c8.3-1.3,16.8-1.9,25.5-1.9s17.2,0.7,25.5,1.9c-0.5,3.3-0.9,6.6-1.2,10
				c-3.6,37.3,2.9,74.8,18.5,108.5c14.6-2.8,28.8-7,42.3-12.4c-13-25.6-19.3-54.2-18.1-83c0.1-3.6,0.4-7.1,0.8-10.7
				c1.5-14.4,5-28.8,10.4-42.8c3.1-7.8,6.7-15.5,11.1-23c4.3-7.5,9.2-14.5,14.4-21.1c2.6,2.1,5.3,4.1,8,6
				c30.5,21.7,66.3,34.9,103.2,38.3c4.8-13.7,8.3-28.1,10.3-42.9c-28.6-1.5-56.6-10.4-80.9-25.8
				C541.5,277.6,538.6,275.6,535.7,273.5z M400.1,333.1c-12.3,0-24.4,1.1-36.2,3.1c-4.1-11.2-9.2-22.2-15.4-32.9
				c-6.2-10.7-13.1-20.6-20.8-29.8c7.6-9.2,14.6-19.1,20.8-29.8s11.3-21.7,15.4-32.9c11.8,2,23.9,3.1,36.2,3.1s24.4-1.1,36.2-3.1
				c4.1,11.2,9.2,22.2,15.4,32.9s13.1,20.6,20.8,29.8c-7.6,9.2-14.6,19.1-20.8,29.8c-6.2,10.7-11.3,21.7-15.4,32.9
				C424.5,334.2,412.4,333.1,400.1,333.1z"/>
			<path class="st0" d="M467.1,145.4c-1.2-28.8,5.1-57.4,18.1-83c-13.5-5.4-27.7-9.6-42.3-12.4c-15.5,33.7-22,71.2-18.5,108.5
				C439.4,156.2,453.8,151.7,467.1,145.4z"/>
			<path class="st0" d="M544.5,267.5c24.3-15.4,52.3-24.3,80.9-25.8c-2.1-14.8-5.6-29.1-10.3-42.9c-37,3.4-72.7,16.5-103.2,38.3
				C521.4,248.9,532.4,259.1,544.5,267.5z"/>
		</g>
		<circle class="st1" cx="297.3" cy="95.7" r="20.1"/>
		<circle class="st2" cx="194.7" cy="273.6" r="20.1"/>
		<circle class="st3" cx="297.5" cy="451.4" r="20.1"/>
		<circle class="st4" cx="502.9" cy="451.3" r="20.1"/>
		<circle class="st5" cx="605.4" cy="273.4" r="20.1"/>
		<circle class="st6" cx="502.7" cy="95.6" r="20.1"/>
	</g>
	<path class="st0" d="M460.9,581.3c4.4-8.1,16.9-30.7,47.4-42.8c28.8-11.6,62.6-5.5,71.3-2.9c-1.4,16.6-2.8,33.2-4.2,49.8
		c-12.2-5-22.6-5.5-28.5-5.3c-8.5,0.3-19.3,0.6-28.5,8.3c-1.6,1.4-6.4,5.6-10.7,16c-8,19.3-10.7,50.4,3.6,58.8
		c4.1,2.4,8.3,2,16.6,1.2c17.5-1.8,31.2-7.6,40.4-12.5c-4.7,17.2-9.5,34.4-14.2,51.6c-10.5,5.2-29,12.5-52.8,12.5
		c-35,0-58.8-18.4-58.8-51C443.1,628.5,449.9,601.5,460.9,581.3z"/>
	<linearGradient id="SVGID_1_" gradientUnits="userSpaceOnUse" x1="260.5462" y1="567.629" x2="364.4082" y2="682.8143">
		<stop  offset="0" style="stop-color:#0B3431"/>
		<stop  offset="0.3162" style="stop-color:#000000"/>
	</linearGradient>
	<path class="st7" d="M248.4,563.1c-9.1,58.2-18.2,116.3-27.3,174.5c17.8-1.4,35.6-2.8,53.4-4.2c4.2-29.9,8.3-59.7,12.5-89.6
		c10.5,17.4,21,34.8,31.5,52.2c15.8-19.2,31.7-38.4,47.5-57.6c-4.2,29.3-8.3,58.6-12.5,87.8c17.8-1.6,35.6-3.2,53.4-4.7
		c9.1-58.4,18.2-116.7,27.3-175.1c-16.4,1.4-32.8,2.8-49.3,4.2c-18,22.6-36,45.1-54,67.7c-11.5-19.6-22.9-39.2-34.4-58.8
		C280.4,560.7,264.4,561.9,248.4,563.1z"/>
	<path class="st8" d="M609.2,529.8c19-1.8,38-3.6,57-5.3c-5.9,41.5-11.9,83.1-17.8,124.6c23.3-2.2,46.7-4.4,70-6.5
		c-5.3,17-10.7,34-16,51c-40.2,3.8-80.3,7.5-120.5,11.3C591,646.5,600.1,588.2,609.2,529.8z"/>
	<path class="st9" d="M100,615.3c4.4-8.1,16.9-30.7,47.4-42.8c28.8-11.6,62.6-5.5,71.3-2.9c-1.4,16.6-2.8,33.2-4.2,49.8
		c-12.2-5-22.6-5.5-28.5-5.3c-8.5,0.3-19.3,0.6-28.5,8.3c-1.6,1.4-6.4,5.6-10.7,16c-8,19.3-10.7,50.4,3.6,58.8
		c4.1,2.4,8.3,2,16.6,1.2c17.5-1.8,31.2-7.6,40.4-12.5c-4.7,17.2-9.5,34.4-14.2,51.6c-10.5,5.2-29,12.5-52.8,12.5
		c-35,0-58.8-18.4-58.8-51C82.2,662.5,89,635.5,100,615.3z"/>
	
		<radialGradient id="SVGID_00000103262658550203835610000014048403901973645483_" cx="150.4708" cy="585.7484" r="153.8309" fx="135.3517" fy="595.1799" gradientUnits="userSpaceOnUse">
		<stop  offset="0" style="stop-color:#36C764"/>
		<stop  offset="1.975358e-02" style="stop-color:#35C262;stop-opacity:0.9802"/>
		<stop  offset="0.2686" style="stop-color:#258B51;stop-opacity:0.7314"/>
		<stop  offset="0.4995" style="stop-color:#195F43;stop-opacity:0.5005"/>
		<stop  offset="0.7057" style="stop-color:#104038;stop-opacity:0.2943"/>
		<stop  offset="0.8795" style="stop-color:#0B2D32;stop-opacity:0.1205"/>
		<stop  offset="1" style="stop-color:#092630;stop-opacity:0"/>
	</radialGradient>
	<path style="fill:url(#SVGID_00000103262658550203835610000014048403901973645483_);" d="M100,615.3c4.4-8.1,16.9-30.7,47.4-42.8
		c28.8-11.6,62.6-5.5,71.3-2.9c-1.4,16.6-2.8,33.2-4.2,49.8c-12.2-5-22.6-5.5-28.5-5.3c-8.5,0.3-19.3,0.6-28.5,8.3
		c-1.6,1.4-6.4,5.6-10.7,16c-8,19.3-10.7,50.4,3.6,58.8c4.1,2.4,8.3,2,16.6,1.2c17.5-1.8,31.2-7.6,40.4-12.5
		c-4.7,17.2-9.5,34.4-14.2,51.6c-10.5,5.2-29,12.5-52.8,12.5c-35,0-58.8-18.4-58.8-51C82.2,662.5,89,635.5,100,615.3z"/>
	
		<radialGradient id="SVGID_00000160191831099590828380000009688057231177687196_" cx="108.3485" cy="735.1494" r="132.2424" gradientUnits="userSpaceOnUse">
		<stop  offset="4.875292e-02" style="stop-color:#52C8E2"/>
		<stop  offset="0.9905" style="stop-color:#24293E;stop-opacity:0"/>
	</radialGradient>
	<path style="fill:url(#SVGID_00000160191831099590828380000009688057231177687196_);" d="M100,615.3c4.4-8.1,16.9-30.7,47.4-42.8
		c28.8-11.6,62.6-5.5,71.3-2.9c-1.4,16.6-2.8,33.2-4.2,49.8c-12.2-5-22.6-5.5-28.5-5.3c-8.5,0.3-19.3,0.6-28.5,8.3
		c-1.6,1.4-6.4,5.6-10.7,16c-8,19.3-10.7,50.4,3.6,58.8c4.1,2.4,8.3,2,16.6,1.2c17.5-1.8,31.2-7.6,40.4-12.5
		c-4.7,17.2-9.5,34.4-14.2,51.6c-10.5,5.2-29,12.5-52.8,12.5c-35,0-58.8-18.4-58.8-51C82.2,662.5,89,635.5,100,615.3z"/>
</g>
<g>
</g>
<g>
</g>
<g>
</g>
<g>
</g>
<g>
</g>
<g>
</g>
<g>
</g>
<g>
</g>
<g>
</g>
<g>
</g>
<g>
</g>
</svg>
