<?xml version="1.0" encoding="utf-8"?>
<!-- Created by @FCLOGO 2024-9-25 GMT+8 16:07:21 . https://fclogo.top/ -->
<!-- FOR PERSONAL USE ONLY NOT FOR COMMERCIAL USE -->
<!-- Created by @FCLOGO 2024-9-25 GMT+8 16:07:21 . https://fclogo.top/ -->
<!-- FOR PERSONAL USE ONLY NOT FOR COMMERCIAL USE -->
<!-- Created by @FCLOGO 2024-9-25 GMT+8 16:07:21 . https://fclogo.top/ -->
<!-- FOR PERSONAL USE ONLY NOT FOR COMMERCIAL USE -->
<!-- Created by @FCLOGO 2024-9-25 GMT+8 16:07:21 . https://fclogo.top/ -->
<!-- FOR PERSONAL USE ONLY NOT FOR COMMERCIAL USE -->
<svg version="1.1" xmlns="http://www.w3.org/2000/svg" xmlns:xlink="http://www.w3.org/1999/xlink" x="0px" y="0px"
	 viewBox="0 0 800 800" style="enable-background:new 0 0 800 800;" xml:space="preserve">
<path style="fill:#CCCCCC;" d="M348.22,774.3c-0.79,0-1.38-0.22-1.77-0.65c-0.39-0.44-0.53-1.03-0.41-1.79l0.25-1.65
	c0.12-0.75,0.45-1.35,0.98-1.78c0.53-0.44,1.19-0.65,1.98-0.65c0.76,0,1.33,0.2,1.72,0.6c0.39,0.4,0.55,0.94,0.47,1.62h-1.24
	c0.03-0.36-0.06-0.64-0.26-0.84c-0.2-0.2-0.5-0.3-0.89-0.3c-0.42,0-0.76,0.12-1.03,0.35c-0.27,0.23-0.43,0.56-0.5,0.99l-0.26,1.66
	c-0.07,0.44-0.01,0.77,0.19,1c0.19,0.23,0.5,0.35,0.92,0.35c0.39,0,0.72-0.1,0.98-0.3c0.26-0.2,0.44-0.48,0.52-0.85h1.24
	c-0.14,0.69-0.47,1.23-0.99,1.63C349.61,774.1,348.97,774.3,348.22,774.3z M352.8,774.19l1-6.29h1.19l-0.19,1.19
	c0.34-0.87,0.97-1.3,1.91-1.3c0.67,0,1.17,0.21,1.49,0.62c0.32,0.42,0.43,0.99,0.31,1.71l-0.07,0.42h-1.27l0.06-0.32
	c0.07-0.45,0.01-0.8-0.17-1.04c-0.18-0.24-0.48-0.36-0.88-0.36c-0.4,0-0.74,0.12-1.01,0.37c-0.27,0.24-0.43,0.59-0.5,1.03
	l-0.63,3.97H352.8z M361.91,774.3c-0.77,0-1.35-0.22-1.73-0.67c-0.38-0.45-0.51-1.04-0.4-1.77l0.25-1.65
	c0.08-0.49,0.26-0.92,0.52-1.28c0.26-0.37,0.6-0.65,1.01-0.85c0.41-0.2,0.87-0.3,1.38-0.3c0.77,0,1.35,0.22,1.73,0.67
	c0.39,0.45,0.52,1.04,0.39,1.77l-0.17,1.12h-3.85l-0.09,0.53c-0.15,0.95,0.22,1.43,1.11,1.43c0.72,0,1.17-0.25,1.37-0.74h1.22
	c-0.17,0.53-0.5,0.96-1.01,1.28C363.16,774.14,362.58,774.3,361.91,774.3z M361.23,770.22l-0.05,0.29l2.65-0.01l0.05-0.29
	c0.07-0.47,0.01-0.82-0.17-1.07c-0.18-0.25-0.49-0.37-0.92-0.37c-0.44,0-0.8,0.13-1.06,0.38
	C361.48,769.39,361.31,769.75,361.23,770.22z M368.33,774.3c-0.63,0-1.1-0.21-1.41-0.64c-0.31-0.42-0.4-1-0.27-1.73l0.27-1.77
	c0.11-0.73,0.39-1.31,0.84-1.74c0.44-0.43,0.98-0.64,1.61-0.64c0.47,0,0.83,0.12,1.09,0.35c0.26,0.24,0.39,0.56,0.38,0.96h0.02
	l0.17-1.2h1.24l-1,6.29h-1.22l0.19-1.2h-0.02c-0.12,0.41-0.35,0.73-0.69,0.97C369.2,774.18,368.8,774.3,368.33,774.3z
	 M368.93,773.23c0.39,0,0.72-0.12,0.98-0.36c0.26-0.24,0.43-0.57,0.5-1.01l0.25-1.65c0.07-0.43,0.01-0.76-0.18-1
	c-0.19-0.24-0.47-0.36-0.86-0.36c-0.4,0-0.72,0.12-0.98,0.35c-0.26,0.24-0.42,0.57-0.49,1.01l-0.25,1.65
	c-0.07,0.44-0.01,0.78,0.17,1.01C368.24,773.11,368.53,773.23,368.93,773.23z M376.35,774.19c-0.57,0-0.99-0.16-1.26-0.47
	c-0.27-0.31-0.36-0.75-0.27-1.32l0.54-3.39h-1.74l0.17-1.12h1.74l0.27-1.72h1.24l-0.27,1.72h2.47l-0.18,1.12h-2.46l-0.54,3.39
	c-0.08,0.44,0.1,0.66,0.53,0.66h1.72l-0.17,1.12H376.35z M382.5,774.3c-0.77,0-1.35-0.22-1.73-0.67c-0.38-0.45-0.52-1.04-0.4-1.77
	l0.25-1.65c0.08-0.49,0.26-0.92,0.52-1.28c0.26-0.37,0.6-0.65,1.01-0.85c0.41-0.2,0.87-0.3,1.38-0.3c0.77,0,1.35,0.22,1.73,0.67
	c0.39,0.45,0.52,1.04,0.39,1.77l-0.17,1.12h-3.85l-0.09,0.53c-0.15,0.95,0.22,1.43,1.11,1.43c0.72,0,1.17-0.25,1.37-0.74h1.22
	c-0.17,0.53-0.5,0.96-1.01,1.28C383.76,774.14,383.18,774.3,382.5,774.3z M381.83,770.22l-0.05,0.29l2.65-0.01l0.05-0.29
	c0.07-0.47,0.01-0.82-0.17-1.07c-0.18-0.25-0.49-0.37-0.92-0.37c-0.44,0-0.8,0.13-1.06,0.38
	C382.08,769.39,381.91,769.75,381.83,770.22z M388.92,774.3c-0.63,0-1.1-0.21-1.4-0.64c-0.3-0.42-0.39-1-0.28-1.73l0.27-1.77
	c0.11-0.73,0.39-1.31,0.84-1.74c0.44-0.43,0.98-0.64,1.61-0.64c0.47,0,0.83,0.12,1.09,0.35c0.26,0.24,0.39,0.56,0.38,0.96h0.02
	l0.21-1.47l0.3-1.8h1.24l-1.33,8.35h-1.22l0.19-1.2h-0.02c-0.12,0.41-0.35,0.73-0.69,0.97C389.8,774.18,389.4,774.3,388.92,774.3z
	 M389.53,773.23c0.39,0,0.72-0.12,0.98-0.36c0.26-0.24,0.43-0.57,0.5-1.01l0.25-1.65c0.08-0.43,0.02-0.76-0.17-1
	c-0.19-0.24-0.48-0.36-0.87-0.36c-0.4,0-0.72,0.12-0.98,0.35c-0.26,0.24-0.42,0.57-0.49,1.01l-0.25,1.65
	c-0.08,0.44-0.02,0.78,0.16,1.01C388.83,773.11,389.13,773.23,389.53,773.23z M401.02,774.3c-0.47,0-0.84-0.12-1.1-0.35
	c-0.26-0.23-0.39-0.56-0.38-0.97h-0.01l-0.19,1.2h-1.22l1.33-8.35h1.24l-0.29,1.8l-0.27,1.47h0.05c0.12-0.41,0.35-0.73,0.69-0.97
	c0.34-0.23,0.74-0.35,1.21-0.35c0.63,0,1.1,0.21,1.4,0.64c0.3,0.43,0.39,1.01,0.28,1.74l-0.27,1.77c-0.11,0.73-0.39,1.31-0.84,1.73
	C402.18,774.09,401.64,774.3,401.02,774.3z M400.77,773.23c0.4,0,0.72-0.12,0.98-0.35c0.26-0.23,0.42-0.57,0.5-1.01l0.25-1.65
	c0.07-0.43,0.01-0.77-0.17-1.01c-0.18-0.24-0.47-0.35-0.87-0.35c-0.39,0-0.72,0.12-0.98,0.36c-0.26,0.24-0.43,0.57-0.5,1l-0.25,1.65
	c-0.07,0.44-0.01,0.77,0.17,1.01C400.08,773.11,400.37,773.23,400.77,773.23z M405.47,776.25l0.17-1.06h1.93
	c0.64,0,1.01-0.3,1.1-0.9l0.1-0.67l0.21-1.19h-0.03c-0.12,0.42-0.35,0.74-0.68,0.97c-0.33,0.23-0.73,0.34-1.2,0.34
	c-0.63,0-1.09-0.2-1.4-0.6c-0.31-0.4-0.41-0.94-0.3-1.63l0.58-3.6h1.24l-0.56,3.48c-0.06,0.41,0,0.73,0.18,0.96
	c0.18,0.23,0.47,0.34,0.85,0.34c0.39,0,0.72-0.12,0.98-0.37c0.27-0.24,0.43-0.58,0.49-1.02l0.54-3.4h1.24l-1.01,6.41
	c-0.1,0.6-0.37,1.08-0.81,1.42c-0.44,0.35-1,0.52-1.67,0.52H405.47z M417.79,770.09h3.22l0.54-1.85h-5.47l-1.71,6.44h2.15l0.59-2.1
	h3.03l0.44-1.71h-3.03L417.79,770.09z M424.23,772.92c-0.59,0-1.02-0.39-1.02-1.12c0-0.88,0.63-1.76,1.61-1.76
	c0.49,0,0.88,0.24,1.02,0.78l1.95-0.83c-0.29-1.17-1.27-1.9-2.64-1.9c-2.78,0-4.15,2.15-4.15,3.9c0,1.76,1.27,2.83,3.07,2.83
	c1.37,0,2.34-0.59,2.98-1.42l-1.51-1.17C425.16,772.67,424.72,772.92,424.23,772.92z M430.91,768.23h-2.15l-1.76,6.44h5.12
	l0.49-1.85h-2.93L430.91,768.23z M439.75,771.01c0-1.66-1.32-2.93-3.22-2.93c-2.2,0-3.81,1.81-3.81,3.81c0,1.66,1.32,2.93,3.22,2.93
	C438.14,774.82,439.75,773.01,439.75,771.01z M434.92,771.7c0-0.83,0.59-1.71,1.51-1.71c0.78,0,1.17,0.54,1.17,1.22
	c0,0.83-0.59,1.71-1.51,1.71C435.31,772.92,434.92,772.38,434.92,771.7z M443.21,772.23h1.07l-0.2,0.68
	c-0.15,0.05-0.34,0.1-0.59,0.1c-0.68,0-1.27-0.39-1.27-1.22c0-1.02,0.73-1.9,1.95-1.9c0.59,0,1.12,0.24,1.51,0.59l1.37-1.37
	c-0.44-0.54-1.51-1.07-2.73-1.07c-2.59,0-4.29,1.76-4.29,3.86c0,2.05,1.61,2.88,3.22,2.88c0.93,0,1.85-0.29,2.49-0.68l0.93-3.32
	h-3.12L443.21,772.23z M450.78,768.08c-2.2,0-3.81,1.81-3.81,3.81c0,1.66,1.32,2.93,3.22,2.93c2.2,0,3.81-1.81,3.81-3.81
	C454,769.35,452.68,768.08,450.78,768.08z M450.34,772.92c-0.78,0-1.17-0.54-1.17-1.22c0-0.83,0.59-1.71,1.51-1.71
	c0.78,0,1.17,0.54,1.17,1.22C451.85,772.04,451.27,772.92,450.34,772.92z M437.94,767.5c-0.05,0.29,0.1,0.49,0.44,0.49
	s0.54-0.2,0.63-0.49c0.05-0.24-0.1-0.49-0.44-0.49C438.24,767.01,437.99,767.25,437.94,767.5z M432.13,765.5
	c-0.44,0-0.73,0.24-0.78,0.59c-0.05,0.34,0.1,0.59,0.54,0.59s0.73-0.24,0.78-0.59C432.77,765.74,432.57,765.5,432.13,765.5z
	 M433.01,767.3c-0.1,0.54,0.15,0.88,0.83,0.88c0.63,0,1.07-0.39,1.17-0.88s-0.15-0.88-0.83-0.88
	C433.5,766.43,433.11,766.82,433.01,767.3z M439.6,777.55l-2.44-1.81h-1.51l4.25,3.17l1.61-3.17h-0.98L439.6,777.55z M425.84,767.16
	l-2-1.46l23.13-2.78l-2.15,4.25h1.02l2.68-5.32l-26.99,3.22l2.78,2.1H425.84z M338.72,785.79l0.61-3.83h2.32l-0.08,0.52h-1.76
	l-0.18,1.14h1.63l-0.08,0.52h-1.62l-0.26,1.64H338.72z M342.97,785.84c-0.36,0-0.62-0.1-0.8-0.3c-0.17-0.2-0.23-0.47-0.18-0.82
	l0.27-1.7c0.06-0.34,0.2-0.61,0.44-0.82c0.24-0.2,0.54-0.3,0.89-0.3c0.36,0,0.62,0.1,0.8,0.3c0.17,0.2,0.24,0.47,0.18,0.81
	l-0.27,1.71c-0.06,0.34-0.2,0.62-0.44,0.82C343.63,785.74,343.33,785.84,342.97,785.84z M343.05,785.33c0.19,0,0.35-0.05,0.47-0.16
	c0.12-0.11,0.19-0.26,0.23-0.46l0.27-1.7c0.03-0.2,0.01-0.35-0.08-0.46c-0.08-0.11-0.22-0.16-0.41-0.16s-0.35,0.05-0.46,0.16
	c-0.12,0.1-0.19,0.26-0.22,0.46l-0.27,1.7c-0.03,0.2-0.01,0.35,0.08,0.46C342.72,785.28,342.86,785.33,343.05,785.33z M345,785.79
	l0.61-3.83h1.2c0.24,0,0.44,0.05,0.6,0.14c0.16,0.09,0.28,0.22,0.36,0.39c0.07,0.17,0.09,0.37,0.05,0.59
	c-0.04,0.26-0.14,0.48-0.3,0.67c-0.16,0.19-0.37,0.32-0.6,0.39l0.54,1.64h-0.62l-0.48-1.57h-0.54l-0.25,1.57H345z M345.89,783.71
	h0.64c0.19,0,0.35-0.06,0.48-0.17c0.13-0.11,0.21-0.26,0.24-0.45c0.03-0.19,0-0.35-0.09-0.46c-0.09-0.11-0.24-0.17-0.43-0.17h-0.64
	L345.89,783.71z M349.54,785.79l0.61-3.83h1.25c0.37,0,0.65,0.1,0.84,0.31c0.19,0.21,0.26,0.49,0.2,0.84
	c-0.04,0.23-0.12,0.44-0.25,0.61s-0.29,0.31-0.49,0.4c-0.2,0.09-0.42,0.14-0.66,0.14h-0.69l-0.24,1.52H349.54z M350.43,783.75h0.69
	c0.19,0,0.36-0.06,0.49-0.18c0.14-0.12,0.22-0.27,0.25-0.47c0.03-0.2,0-0.35-0.1-0.47c-0.1-0.12-0.25-0.18-0.44-0.18h-0.69
	L350.43,783.75z M352.75,785.79l0.61-3.83h2.25l-0.08,0.5h-1.7l-0.17,1.09h1.51l-0.08,0.5h-1.51l-0.19,1.24h1.69l-0.08,0.5H352.75z
	 M355.84,785.79l0.61-3.83h1.2c0.24,0,0.44,0.05,0.6,0.14c0.16,0.09,0.28,0.22,0.36,0.39c0.07,0.17,0.09,0.37,0.05,0.59
	c-0.04,0.26-0.14,0.48-0.3,0.67c-0.16,0.19-0.37,0.32-0.6,0.39l0.54,1.64h-0.62l-0.48-1.57h-0.54l-0.25,1.57H355.84z M356.74,783.71
	h0.64c0.19,0,0.35-0.06,0.48-0.17c0.13-0.11,0.21-0.26,0.24-0.45c0.03-0.19,0-0.35-0.09-0.46c-0.09-0.11-0.24-0.17-0.43-0.17h-0.64
	L356.74,783.71z M360.13,785.84c-0.39,0-0.67-0.1-0.87-0.29c-0.19-0.19-0.26-0.45-0.22-0.78h0.57c-0.03,0.17,0.01,0.31,0.12,0.41
	c0.11,0.1,0.27,0.15,0.48,0.15c0.2,0,0.37-0.05,0.5-0.15c0.13-0.1,0.21-0.23,0.24-0.4c0.02-0.15,0-0.28-0.06-0.39
	c-0.06-0.11-0.16-0.18-0.29-0.22l-0.46-0.14c-0.27-0.08-0.46-0.22-0.59-0.41c-0.13-0.19-0.17-0.42-0.13-0.68
	c0.04-0.21,0.11-0.39,0.23-0.55c0.12-0.16,0.27-0.28,0.46-0.37c0.19-0.09,0.4-0.13,0.64-0.13c0.35,0,0.62,0.1,0.8,0.29
	c0.18,0.19,0.25,0.44,0.2,0.76h-0.57c0.03-0.17,0-0.3-0.09-0.4c-0.09-0.1-0.23-0.14-0.42-0.14c-0.19,0-0.34,0.04-0.46,0.13
	c-0.12,0.09-0.19,0.21-0.21,0.38c-0.02,0.15-0.01,0.28,0.05,0.39c0.06,0.11,0.16,0.18,0.29,0.22l0.47,0.15
	c0.26,0.08,0.46,0.22,0.58,0.41c0.12,0.19,0.17,0.42,0.12,0.69c-0.04,0.22-0.12,0.41-0.24,0.57c-0.13,0.16-0.29,0.29-0.49,0.38
	C360.6,785.79,360.38,785.84,360.13,785.84z M363.27,785.84c-0.36,0-0.62-0.1-0.8-0.3c-0.17-0.2-0.23-0.47-0.18-0.82l0.27-1.7
	c0.06-0.34,0.2-0.61,0.44-0.82c0.24-0.2,0.54-0.3,0.89-0.3c0.36,0,0.62,0.1,0.8,0.3c0.17,0.2,0.24,0.47,0.18,0.81l-0.27,1.71
	c-0.06,0.34-0.2,0.62-0.44,0.82C363.92,785.74,363.62,785.84,363.27,785.84z M363.34,785.33c0.19,0,0.35-0.05,0.47-0.16
	c0.12-0.11,0.19-0.26,0.23-0.46l0.27-1.7c0.03-0.2,0.01-0.35-0.08-0.46c-0.08-0.11-0.22-0.16-0.41-0.16c-0.19,0-0.35,0.05-0.46,0.16
	c-0.12,0.1-0.19,0.26-0.22,0.46l-0.27,1.7c-0.03,0.2-0.01,0.35,0.08,0.46C363.02,785.28,363.15,785.33,363.34,785.33z
	 M365.28,785.79l0.61-3.83h0.71l0.62,3.19c0.01-0.1,0.02-0.22,0.03-0.36c0.01-0.14,0.03-0.29,0.04-0.44
	c0.02-0.15,0.04-0.29,0.06-0.41l0.31-1.98h0.52l-0.61,3.83h-0.71l-0.61-3.19c-0.01,0.09-0.02,0.21-0.03,0.34s-0.03,0.28-0.04,0.42
	c-0.02,0.15-0.04,0.28-0.06,0.41l-0.31,2.01H365.28z M368.23,785.79l1.59-3.83h0.75l0.37,3.83h-0.56l-0.07-0.97h-1.09l-0.39,0.97
	H368.23z M369.39,784.34h0.87l-0.09-1.1c-0.02-0.2-0.03-0.37-0.04-0.51c-0.01-0.14-0.01-0.24-0.01-0.3c-0.02,0.06-0.05,0.16-0.1,0.3
	c-0.05,0.14-0.11,0.31-0.19,0.5L369.39,784.34z M371.72,785.79l0.61-3.83h0.57l-0.52,3.31h1.67l-0.08,0.52H371.72z M376.68,785.84
	c-0.37,0-0.63-0.1-0.8-0.3c-0.17-0.2-0.22-0.48-0.17-0.82l0.44-2.76h0.57l-0.44,2.76c-0.03,0.2-0.01,0.35,0.07,0.46
	c0.08,0.11,0.21,0.17,0.41,0.17c0.19,0,0.35-0.06,0.46-0.17c0.12-0.11,0.19-0.27,0.22-0.46l0.44-2.76h0.57l-0.44,2.76
	c-0.06,0.35-0.2,0.62-0.43,0.82C377.35,785.74,377.05,785.84,376.68,785.84z M379.84,785.84c-0.39,0-0.67-0.1-0.87-0.29
	c-0.19-0.19-0.26-0.45-0.22-0.78h0.57c-0.03,0.17,0.01,0.31,0.12,0.41c0.11,0.1,0.27,0.15,0.48,0.15c0.2,0,0.37-0.05,0.5-0.15
	c0.13-0.1,0.21-0.23,0.24-0.4c0.02-0.15,0-0.28-0.06-0.39c-0.06-0.11-0.16-0.18-0.29-0.22l-0.46-0.14
	c-0.27-0.08-0.46-0.22-0.59-0.41c-0.13-0.19-0.17-0.42-0.13-0.68c0.04-0.21,0.11-0.39,0.23-0.55s0.27-0.28,0.46-0.37
	c0.19-0.09,0.4-0.13,0.64-0.13c0.35,0,0.62,0.1,0.8,0.29c0.18,0.19,0.25,0.44,0.2,0.76h-0.57c0.03-0.17,0-0.3-0.09-0.4
	c-0.09-0.1-0.23-0.14-0.42-0.14c-0.19,0-0.34,0.04-0.46,0.13c-0.12,0.09-0.19,0.21-0.21,0.38c-0.02,0.15-0.01,0.28,0.05,0.39
	c0.06,0.11,0.16,0.18,0.29,0.22l0.47,0.15c0.26,0.08,0.46,0.22,0.58,0.41c0.12,0.19,0.17,0.42,0.12,0.69
	c-0.04,0.22-0.12,0.41-0.24,0.57c-0.13,0.16-0.29,0.29-0.49,0.38C380.31,785.79,380.09,785.84,379.84,785.84z M381.91,785.79
	l0.61-3.83h2.25l-0.08,0.5h-1.7l-0.17,1.09h1.51l-0.08,0.5h-1.51l-0.19,1.24h1.69l-0.08,0.5H381.91z M386.94,785.84
	c-0.36,0-0.62-0.1-0.8-0.3c-0.17-0.2-0.23-0.47-0.18-0.82l0.27-1.7c0.06-0.34,0.2-0.61,0.44-0.82c0.24-0.2,0.54-0.3,0.89-0.3
	c0.36,0,0.62,0.1,0.8,0.3c0.17,0.2,0.24,0.47,0.18,0.81l-0.27,1.71c-0.06,0.34-0.2,0.62-0.44,0.82
	C387.6,785.74,387.3,785.84,386.94,785.84z M387.02,785.33c0.19,0,0.35-0.05,0.47-0.16c0.12-0.11,0.19-0.26,0.23-0.46l0.27-1.7
	c0.03-0.2,0.01-0.35-0.08-0.46c-0.08-0.11-0.22-0.16-0.41-0.16c-0.19,0-0.35,0.05-0.46,0.16c-0.12,0.1-0.19,0.26-0.22,0.46
	l-0.27,1.7c-0.03,0.2-0.01,0.35,0.08,0.46C386.7,785.28,386.83,785.33,387.02,785.33z M388.95,785.79l0.61-3.83h0.71l0.62,3.19
	c0.01-0.1,0.02-0.22,0.03-0.36c0.01-0.14,0.03-0.29,0.04-0.44c0.02-0.15,0.04-0.29,0.06-0.41l0.31-1.98h0.52l-0.61,3.83h-0.71
	l-0.61-3.19c-0.01,0.09-0.02,0.21-0.03,0.34c-0.01,0.13-0.03,0.28-0.04,0.42c-0.02,0.15-0.04,0.28-0.06,0.41l-0.31,2.01H388.95z
	 M392.25,785.79l0.61-3.83h0.57l-0.52,3.31h1.67l-0.08,0.52H392.25z M396.12,785.79l0.22-1.41l-0.75-2.42h0.58l0.45,1.45
	c0.03,0.09,0.05,0.18,0.07,0.27c0.02,0.08,0.03,0.15,0.03,0.19c0.02-0.04,0.05-0.1,0.09-0.19c0.04-0.08,0.09-0.17,0.14-0.27
	l0.9-1.45h0.6l-1.53,2.42l-0.22,1.41H396.12z M399.22,785.79l0.61-3.83h0.71l0.62,3.19c0.01-0.1,0.02-0.22,0.03-0.36
	c0.01-0.14,0.03-0.29,0.04-0.44c0.02-0.15,0.04-0.29,0.06-0.41l0.31-1.98h0.52l-0.61,3.83h-0.71l-0.61-3.19
	c-0.01,0.09-0.02,0.21-0.03,0.34c-0.01,0.13-0.03,0.28-0.04,0.42c-0.02,0.15-0.04,0.28-0.06,0.41l-0.31,2.01H399.22z M403.51,785.84
	c-0.36,0-0.62-0.1-0.8-0.3c-0.18-0.2-0.23-0.47-0.18-0.82l0.27-1.7c0.06-0.34,0.2-0.61,0.44-0.82c0.24-0.2,0.54-0.3,0.89-0.3
	c0.36,0,0.62,0.1,0.8,0.3c0.17,0.2,0.24,0.47,0.18,0.81l-0.27,1.71c-0.06,0.34-0.2,0.62-0.44,0.82
	C404.16,785.74,403.86,785.84,403.51,785.84z M403.58,785.33c0.19,0,0.35-0.05,0.47-0.16c0.12-0.11,0.19-0.26,0.23-0.46l0.27-1.7
	c0.03-0.2,0.01-0.35-0.08-0.46c-0.08-0.11-0.22-0.16-0.41-0.16c-0.19,0-0.35,0.05-0.46,0.16c-0.12,0.1-0.19,0.26-0.22,0.46
	l-0.27,1.7c-0.03,0.2-0.01,0.35,0.08,0.46C403.26,785.28,403.4,785.33,403.58,785.33z M406.38,785.79l0.52-3.31h-1.02l0.08-0.52
	h2.62l-0.08,0.52h-1.03l-0.52,3.31H406.38z M409.52,785.79l0.61-3.83h2.32l-0.08,0.52h-1.76l-0.18,1.14h1.63l-0.08,0.52h-1.62
	l-0.26,1.64H409.52z M413.77,785.84c-0.36,0-0.62-0.1-0.8-0.3c-0.18-0.2-0.23-0.47-0.18-0.82l0.27-1.7c0.06-0.34,0.2-0.61,0.44-0.82
	c0.24-0.2,0.54-0.3,0.89-0.3c0.36,0,0.62,0.1,0.8,0.3c0.17,0.2,0.24,0.47,0.18,0.81l-0.27,1.71c-0.06,0.34-0.2,0.62-0.44,0.82
	C414.42,785.74,414.13,785.84,413.77,785.84z M413.85,785.33c0.19,0,0.35-0.05,0.47-0.16c0.12-0.11,0.19-0.26,0.23-0.46l0.27-1.7
	c0.03-0.2,0.01-0.35-0.08-0.46c-0.08-0.11-0.22-0.16-0.41-0.16c-0.19,0-0.35,0.05-0.46,0.16c-0.12,0.1-0.19,0.26-0.22,0.46
	l-0.27,1.7c-0.03,0.2-0.01,0.35,0.08,0.46C413.52,785.28,413.66,785.33,413.85,785.33z M415.8,785.79l0.61-3.83h1.2
	c0.24,0,0.44,0.05,0.6,0.14c0.16,0.09,0.28,0.22,0.36,0.39c0.07,0.17,0.09,0.37,0.05,0.59c-0.04,0.26-0.14,0.48-0.3,0.67
	c-0.16,0.19-0.37,0.32-0.6,0.39l0.54,1.64h-0.62l-0.48-1.57h-0.54l-0.25,1.57H415.8z M416.69,783.71h0.64
	c0.19,0,0.35-0.06,0.48-0.17c0.13-0.11,0.21-0.26,0.24-0.45c0.03-0.19,0-0.35-0.09-0.46c-0.09-0.11-0.24-0.17-0.43-0.17h-0.64
	L416.69,783.71z M420.91,785.84c-0.36,0-0.63-0.1-0.81-0.3c-0.18-0.2-0.24-0.47-0.19-0.82l0.27-1.7c0.06-0.35,0.21-0.62,0.45-0.82
	s0.55-0.3,0.91-0.3c0.36,0,0.63,0.1,0.81,0.3c0.18,0.2,0.24,0.47,0.19,0.82h-0.57c0.03-0.2,0-0.35-0.09-0.46
	c-0.09-0.11-0.23-0.16-0.42-0.16c-0.19,0-0.35,0.05-0.48,0.16c-0.12,0.1-0.2,0.26-0.23,0.45l-0.27,1.71c-0.03,0.2,0,0.35,0.09,0.46
	c0.09,0.11,0.23,0.16,0.42,0.16c0.19,0,0.35-0.05,0.47-0.16c0.12-0.11,0.2-0.26,0.23-0.46h0.57c-0.03,0.23-0.11,0.43-0.24,0.59
	c-0.12,0.17-0.28,0.3-0.47,0.39C421.36,785.79,421.14,785.84,420.91,785.84z M424.03,785.84c-0.36,0-0.62-0.1-0.8-0.3
	c-0.18-0.2-0.23-0.47-0.18-0.82l0.27-1.7c0.06-0.34,0.2-0.61,0.44-0.82c0.24-0.2,0.54-0.3,0.89-0.3c0.36,0,0.62,0.1,0.8,0.3
	c0.17,0.2,0.24,0.47,0.18,0.81l-0.27,1.71c-0.06,0.34-0.2,0.62-0.44,0.82C424.69,785.74,424.39,785.84,424.03,785.84z
	 M424.11,785.33c0.19,0,0.35-0.05,0.47-0.16c0.12-0.11,0.19-0.26,0.23-0.46l0.27-1.7c0.03-0.2,0.01-0.35-0.08-0.46
	c-0.08-0.11-0.22-0.16-0.41-0.16c-0.19,0-0.35,0.05-0.46,0.16c-0.12,0.1-0.19,0.26-0.22,0.46l-0.27,1.7
	c-0.03,0.2-0.01,0.35,0.08,0.46C423.79,785.28,423.92,785.33,424.11,785.33z M425.97,785.79l0.61-3.83h0.69l0.18,1.23
	c0.02,0.12,0.04,0.23,0.05,0.33c0.01,0.1,0.02,0.18,0.03,0.24c0.02-0.06,0.05-0.14,0.09-0.24c0.04-0.11,0.09-0.22,0.15-0.34
	l0.57-1.22h0.71l-0.61,3.83h-0.54l0.2-1.29c0.02-0.17,0.06-0.35,0.1-0.55c0.04-0.2,0.09-0.4,0.14-0.61c0.05-0.2,0.1-0.4,0.14-0.59
	c0.05-0.19,0.09-0.35,0.13-0.49l-0.86,1.86h-0.55l-0.28-1.86c0,0.14-0.01,0.29-0.02,0.47c-0.01,0.18-0.02,0.37-0.04,0.57
	c-0.02,0.2-0.04,0.41-0.06,0.61c-0.02,0.2-0.05,0.4-0.08,0.57l-0.2,1.29H425.97z M429.11,785.79l0.61-3.83h0.69l0.18,1.23
	c0.02,0.12,0.04,0.23,0.05,0.33c0.01,0.1,0.02,0.18,0.03,0.24c0.02-0.06,0.05-0.14,0.09-0.24c0.04-0.11,0.09-0.22,0.15-0.34
	l0.57-1.22h0.71l-0.61,3.83h-0.54l0.2-1.29c0.02-0.17,0.06-0.35,0.1-0.55c0.04-0.2,0.09-0.4,0.14-0.61c0.05-0.2,0.1-0.4,0.14-0.59
	c0.05-0.19,0.09-0.35,0.13-0.49l-0.86,1.86h-0.55l-0.28-1.86c0,0.14-0.01,0.29-0.02,0.47c-0.01,0.18-0.02,0.37-0.04,0.57
	c-0.02,0.2-0.04,0.41-0.06,0.61c-0.02,0.2-0.05,0.4-0.08,0.57l-0.2,1.29H429.11z M432.41,785.79l0.61-3.83h2.25l-0.08,0.5h-1.7
	l-0.17,1.09h1.51l-0.08,0.5h-1.51l-0.19,1.24h1.69l-0.08,0.5H432.41z M435.51,785.79l0.61-3.83h1.2c0.24,0,0.44,0.05,0.6,0.14
	c0.16,0.09,0.28,0.22,0.36,0.39c0.07,0.17,0.09,0.37,0.05,0.59c-0.04,0.26-0.14,0.48-0.3,0.67c-0.16,0.19-0.37,0.32-0.6,0.39
	l0.54,1.64h-0.62l-0.48-1.57h-0.54l-0.25,1.57H435.51z M436.4,783.71h0.64c0.19,0,0.35-0.06,0.48-0.17
	c0.13-0.11,0.21-0.26,0.24-0.45c0.03-0.19,0-0.35-0.09-0.46c-0.09-0.11-0.24-0.17-0.43-0.17h-0.64L436.4,783.71z M439.8,785.84
	c-0.36,0-0.63-0.1-0.81-0.3c-0.18-0.2-0.24-0.47-0.19-0.82l0.27-1.7c0.06-0.35,0.21-0.62,0.45-0.82s0.55-0.3,0.91-0.3
	c0.36,0,0.63,0.1,0.81,0.3c0.18,0.2,0.24,0.47,0.19,0.82h-0.57c0.03-0.2,0-0.35-0.09-0.46c-0.09-0.11-0.23-0.16-0.42-0.16
	c-0.19,0-0.35,0.05-0.47,0.16c-0.12,0.1-0.2,0.26-0.23,0.45l-0.27,1.71c-0.03,0.2,0,0.35,0.09,0.46c0.09,0.11,0.23,0.16,0.42,0.16
	s0.35-0.05,0.47-0.16c0.12-0.11,0.2-0.26,0.23-0.46h0.57c-0.03,0.23-0.11,0.43-0.24,0.59c-0.12,0.17-0.28,0.3-0.47,0.39
	C440.25,785.79,440.04,785.84,439.8,785.84z M441.88,785.79l0.08-0.5h0.78l0.45-2.82h-0.78l0.08-0.5h2.13l-0.08,0.5h-0.78
	l-0.45,2.82h0.78l-0.08,0.5H441.88z M444.74,785.79l1.59-3.83h0.75l0.37,3.83h-0.56l-0.07-0.97h-1.09l-0.39,0.97H444.74z
	 M445.9,784.34h0.87l-0.09-1.1c-0.02-0.2-0.03-0.37-0.04-0.51c-0.01-0.14-0.01-0.24-0.01-0.3c-0.02,0.06-0.05,0.16-0.1,0.3
	c-0.05,0.14-0.11,0.31-0.19,0.5L445.9,784.34z M448.24,785.79l0.61-3.83h0.57l-0.52,3.31h1.67l-0.08,0.52H448.24z M453.19,785.84
	c-0.37,0-0.63-0.1-0.8-0.3c-0.17-0.2-0.22-0.48-0.17-0.82l0.44-2.76h0.57l-0.44,2.76c-0.03,0.2-0.01,0.35,0.07,0.46
	c0.08,0.11,0.21,0.17,0.41,0.17c0.19,0,0.35-0.06,0.46-0.17c0.12-0.11,0.19-0.27,0.22-0.46l0.44-2.76h0.57l-0.44,2.76
	c-0.06,0.35-0.2,0.62-0.43,0.82C453.86,785.74,453.56,785.84,453.19,785.84z M456.36,785.84c-0.39,0-0.67-0.1-0.87-0.29
	c-0.19-0.19-0.26-0.45-0.22-0.78h0.57c-0.03,0.17,0.01,0.31,0.12,0.41c0.11,0.1,0.27,0.15,0.48,0.15c0.2,0,0.37-0.05,0.5-0.15
	s0.21-0.23,0.24-0.4c0.02-0.15,0-0.28-0.06-0.39c-0.06-0.11-0.16-0.18-0.29-0.22l-0.46-0.14c-0.27-0.08-0.46-0.22-0.59-0.41
	c-0.13-0.19-0.17-0.42-0.13-0.68c0.04-0.21,0.11-0.39,0.23-0.55c0.12-0.16,0.27-0.28,0.46-0.37c0.19-0.09,0.4-0.13,0.64-0.13
	c0.35,0,0.62,0.1,0.8,0.29c0.18,0.19,0.25,0.44,0.2,0.76h-0.57c0.03-0.17,0-0.3-0.09-0.4c-0.09-0.1-0.23-0.14-0.42-0.14
	c-0.19,0-0.34,0.04-0.46,0.13c-0.12,0.09-0.19,0.21-0.21,0.38c-0.02,0.15-0.01,0.28,0.05,0.39c0.06,0.11,0.16,0.18,0.29,0.22
	l0.47,0.15c0.26,0.08,0.46,0.22,0.58,0.41c0.12,0.19,0.17,0.42,0.12,0.69c-0.04,0.22-0.12,0.41-0.24,0.57
	c-0.13,0.16-0.29,0.29-0.49,0.38C456.82,785.79,456.6,785.84,456.36,785.84z M458.42,785.79l0.61-3.83h2.25l-0.08,0.5h-1.7
	l-0.17,1.09h1.51l-0.08,0.5h-1.51l-0.19,1.24h1.69l-0.08,0.5H458.42z"/>
<path d="M549.62,360.39l-5.52-24.91c-2.6-11.95-6.66-23.13-18.25-29.43c-20.62-11.13-45.12-10.27-67.57-9.12
	c-0.25,0.02-0.44,0.24-0.42,0.49c0,0.02,0,0.04,0.01,0.06c3.16,6.81,8.91,12.08,15.97,14.64c-11.5,18.25-73.68,98.41-73.68,98.41
	s-62.23-80.25-73.73-98.41c7.08-2.55,12.84-7.83,16.01-14.64c0.05-0.25-0.11-0.49-0.35-0.54c-0.02,0-0.04-0.01-0.06-0.01
	c-22.49-1.14-46.99-2.01-67.61,9.12c-11.72,6.3-15.74,17.47-18.25,29.43l-5.47,24.91c0,0.68-0.46,1.28,0.87,0.87l31.16-8.12
	c1.09,0,1.69,1.69,1.96,2.74c6.02,21.67,12.87,42.34,37.96,57.94c14.78,9.12,32.85,7.25,49.09,4.01c3.92,4.88,8.39,10.13,11.5,13.96
	c-41.06,50.18-82.12,97.68-124.5,144.26c12.64,5.06,28.61-1.37,38-9.12c0.91-0.78,1.6-0.36,1.41,0.46
	c-4,10.67-2.11,22.65,4.97,31.57c26.37-42.38,81.16-121.54,96.95-143.94c15.69,22.4,70.53,101.56,97.13,144.03
	c7.1-8.91,9.01-20.9,5.02-31.57c0-0.82,0.5-1.23,1.37-0.46c9.4,7.85,25.37,14.28,38,9.12c-42.43-46.49-83.4-94.16-124.5-144.35
	c3.1-3.83,7.57-9.12,11.5-13.96c16.2,3.24,34.31,5.2,49.09-4.01c25.05-15.6,31.94-36.27,37.91-57.94c0.27-1.05,0.87-2.87,1.96-2.74
	l31.16,8.12C550.03,361.66,549.8,361.25,549.62,360.39z M285.6,341.18c-2.05,0-4.07-0.5-5.89-1.46c-0.55-0.05-0.55,0.32-0.55,0.82
	l-2.92,6.62l-15.92,4.15l2.37-12.87l10.63-3.7c0.73-0.18,0.96-0.32,0.96-0.87c-0.7-1.56-1.06-3.26-1.05-4.97c0-0.02,0-0.03,0-0.05
	c0.03-6.8,5.56-12.3,12.36-12.27v-0.09c6.24,0.38,11.21,5.35,11.59,11.59C297.61,334.9,292.42,340.76,285.6,341.18z M523.8,347.15
	l-2.92-6.52c0-0.5,0-0.87-0.59-0.82c-1.8,0.95-3.8,1.45-5.84,1.46c-6.82,0.41-12.68-4.77-13.09-11.59
	c-0.41-6.82,4.77-12.68,11.59-13.09c0.5-0.03,1-0.03,1.5,0c6.8,0,12.32,5.52,12.32,12.32c0.01,1.71-0.35,3.41-1.05,4.97
	c0,0.55,0.27,0.68,0.96,0.87l10.63,3.7l2.37,12.87L523.8,347.15z M447.38,570.52c-4.1-6.42-10.73-10.8-18.25-12.04
	c1.73-7.3,9.63-10.45,16.83-9.85c-3.96-7.4-11.47-12.24-19.85-12.77c-6.13-0.12-12.15,1.68-17.2,5.16
	c-2.56-6.65-0.42-14.2,5.25-18.52c-3.7-1.38-7.68-1.8-11.59-1.23c-3.42,0.68-6.64,2.15-9.4,4.29c-5.66,3.92-7.89,8.17-10.63,17.29
	c-6.5-2.79-10.54-9.37-10.08-16.42c-13.05,6.93-15.51,23.68-7.39,36.5c-6.34,2.14-13.69,2.28-18.25-5.2
	c-2.48,6.13-2.01,13.06,1.28,18.8c4.01,6.89,10.82,11.68,18.66,13.14c-1.19,5.93-8.67,10.4-16.61,9.58c0.67,1.2,1.43,2.35,2.29,3.42
	c8.55,10.74,24.2,12.52,34.94,3.97c3.97,6.48,1.55,13.09-5.16,19.53c13,2.14,27.92-2.33,31.94-21.67
	c6.84,1.64,10.72,11.22,9.12,17.61c5.03-2.5,8.94-6.8,10.95-12.04c2.19-5.04,2.6-10.67,1.14-15.97c-0.69-3.44-2.15-6.67-4.29-9.44
	c6.74-2.96,14.63-0.65,18.71,5.47C451.77,583.52,450.9,576.42,447.38,570.52z M419.09,583.98c5.06,4.43,10.31,10.13,8.39,19.25
	c-5.55-5.74-13.35-8.72-21.31-8.17c1.71,7.86-1.57,15.97-8.26,20.44c0.32-3.79-0.12-7.6-1.28-11.22c-2.11-3.71-4.79-7.06-7.94-9.95
	c-4.55,6.51-12.43,9.82-20.26,8.53c5.73-5.38,8.82-13,8.44-20.85c-7.7,0.87-15.3-2.34-20.03-8.49c11.59-0.64,15.79-3.38,20.71-9.35
	c-5.69-4.66-8.6-11.91-7.71-19.21c5.26,5.76,12.96,8.65,20.71,7.76c-0.83-4.65-0.16-9.44,1.92-13.69c1.59-2.6,3.86-4.72,6.57-6.11
	c-0.67,7.92,2.73,15.64,9.03,20.48c4.41-6.27,11.92-9.61,19.53-8.67c-5.96,5.49-8.99,13.47-8.17,21.53c8.85-1,15.69,0.05,20.26,8.12
	C431.37,574.45,422.74,577.18,419.09,583.98z M303.58,449.67c-6.02-24.68-22.86-43.89-56.53-44.39c-10.95-0.14-23.86,3.1-31.11,10.4
	c16.83,1.09,33.9,9.76,39.65,26.28c6.45,16.28,0.77,34.86-13.69,44.76c-13.49,8.36-30.33,9.18-44.57,2.19
	c6.07,13.42,17.57,23.62,31.62,28.06c11.88,3.54,24.49,3.8,36.5,0.73C293.63,508.05,310.06,478.75,303.58,449.67z M295.14,467.42
	c-1.69,18.96-14.78,34.97-33.03,40.38c-12.73,3.7-27.15,3.51-38.23-5.2c19.2-0.62,36-13.1,42.16-31.3
	c6.64-20.5-0.9-42.93-18.57-55.25c17.62-1.01,34.21,8.37,42.43,24C294.57,448.35,296.41,457.96,295.14,467.42z M607.01,439.77
	c-12.14-1.78-24.77-4.56-36.95-6.66c-7.71-11.54-15.19-20.67-22.54-32.89c-8.26,14.92-15.19,24.27-21.03,33.67
	c-12.09,2.65-24.59,5.79-36.5,8.03c4.84,5.7,17.52,20.07,25.78,28.92c-0.87,13.69-1.28,23.18-2.14,39.65
	c11.27-4.7,24.73-10.27,36.09-15.28c11.59,4.56,24.5,9.67,36.13,13.96c-1.46-16.38-2.19-25.91-3.56-39.51
	C590.22,460.53,602.4,445.65,607.01,439.77z M549.66,484.43l-25.78,10.86l2.24-27.05c0,0-13.64-15.33-17.61-20.48
	c9.9-2.14,17.47-4.33,25.87-6.39c5.38-8.03,9.58-15.92,13.69-23.13c4.43,7.25,8.71,14.96,14.19,22.81
	c8.49,1.78,16.15,3.65,26.1,5.43c-3.79,5.29-16.88,21.12-16.88,21.12l3.19,26.92L549.66,484.43z M426.71,265.49l-3.6-47.08v-0.32
	l0.36-0.05l9.85-0.82l0.36-0.05l0.05,0.36l3.56,47.13v0.32l-0.36,0.05l-9.85,0.82l-0.36,0.05V265.49z M493.32,254.04l0.82-49.32
	v-0.46l-0.46,0.09l-9.76,2.19l-0.27,0.05v0.27l-0.78,24.09l-9.9-21.72l-0.14-0.27l-0.27,0.05l-9.95,2.19l-0.27,0.09v0.27
	l-0.05,23.95l-10.63-21.58l-0.14-0.27l-0.27,0.05l-9.81,2.14l-0.41,0.14l0.18,0.41l21.03,44.48l0.14,0.27l0.27-0.09l9.12-2.01
	l0.27-0.05l0.05-0.32l0.64-24.54l10.77,22.08l0.14,0.23l0.27-0.05l9.12-2.01l0.27-0.05V254.04z M544.87,238.03h-0.5l-10.77,3.92
	h-0.23l0,0l-4.29-5.57l-13.09,4.56l0.32,7.03v0.27h-0.23l-10.81,3.97h-0.46v-0.55l-0.55-51.51v0.32h0.27l7.35-2.69h0.23l0,0
	l32.44,39.78L544.87,238.03z M515.04,230.32l7.53-2.78l-8.08-10.54L515.04,230.32z M564.17,228.08L547.79,195l7.03-3.56l0.36-0.14
	l-0.18-0.32l-5.02-10.08l-0.14-0.32l-0.36,0.18l-23.68,11.95l-0.32,0.18l0.18,0.32l4.97,10.04l0.14,0.32l0.32-0.14l7.07-3.56
	l16.42,33.03l0.14,0.32l0.36-0.14l8.94-4.56l0.32-0.14L564.17,228.08z M610.71,198.74l-0.46,0.32l-9.58,6.39h-0.23l0,0l-5.47-4.56
	l-11.63,7.76l1.92,6.75l0,0l0,0l-9.54,6.39l-0.41,0.27v-0.5l-12.45-49.91v-0.27h0.23l6.52-4.56h0.23l0,0l40.79,30.98L610.71,198.74z
	 M579.87,198.33l6.66-4.56l-10.27-8.35L579.87,198.33z M312.75,206.68l9.22,2.42l0.32,0.09l-0.09,0.36l-11.45,45.9l-0.09,0.36
	l-0.32-0.09l-9.22-2.33l-0.32-0.09l0.09-0.32l11.41-46.08l0.09-0.32L312.75,206.68z M341.12,213.66l-0.36-0.09l-9.76-2.19
	l-0.36-0.09l-0.09,0.41L321,257.83l-0.05,0.36l0.32,0.05l21.62,4.47l0.36,0.09l0.09-0.36l2.19-10.63l0.09-0.32l-0.36-0.09
	l-11.27-2.6l7.03-34.76L341.12,213.66z M301.16,215.81c-3.06,7.53-6.25,8.35-8.39,8.58c2.78,4.06,3.1,9.32,0.82,13.69
	c-3.65,8.12-11.59,10.13-22.31,5.66l-9.12-3.83h-0.32v-0.32l18.25-44.94v-0.32h0.36l9.12,3.83
	C300.34,202.71,304.26,208.6,301.16,215.81z M283.23,215.81c4.56,1.78,5.93,2.6,7.25-0.68c1.32-3.28-1.55-4.56-4.56-5.66
	L283.23,215.81z M284.55,232.37c1.69-4.11-1.41-5.43-5.25-6.98l-3.24,7.94c3.38,1.46,6.8,3.38,8.49-0.87V232.37z M374.93,229.31
	c-2.55-0.49-5.19,0.08-7.3,1.6c-2.91,2.07-4.89,5.2-5.52,8.71c-1.67,6.23,1.93,12.65,8.12,14.46c2.56,0.47,5.21-0.11,7.35-1.6
	c2.9-2.09,4.86-5.24,5.47-8.76C384.75,237.51,381.13,231.08,374.93,229.31z M393.59,245.78c-1.22,7.14-5.22,13.51-11.13,17.7
	c-4.24,3.02-9.53,4.19-14.64,3.24c-11.59-2.24-18.89-15.33-16.24-29.15c1.22-7.14,5.22-13.51,11.13-17.7
	c4.26-2.97,9.53-4.14,14.64-3.24C388.94,218.91,396.24,231.96,393.59,245.78z M207.18,195.1c-0.81,1.22-0.48,2.86,0.74,3.67
	c0.01,0.01,0.03,0.02,0.04,0.03c0.57,0.4,1.28,0.55,1.96,0.41c0.68-0.16,1.28-0.57,1.69-1.14l0,0l0,0l0,0l19.12-29.38v-0.32h0.32
	l8.39,5.52h0.27v0.27l-19.66,30.2c-1.93,2.98-4.97,5.07-8.44,5.79c-3.49,0.74-7.13,0.03-10.08-1.96c-5.87-4.11-7.58-12.04-3.92-18.2
	v0.5h-0.32v-0.32l1.69-2.6l0.23-0.32h0.32l8.94,5.57h0.27v0.27l-1.14,1.78 M248.97,216.58l10.63-20.94v-0.32h0.32l8.81,4.56h0.32
	v0.36l-11.31,22.58v-0.36l0,0l0,0c-1.87,3.75-5.15,6.6-9.12,7.94c-3.89,1.27-8.13,0.93-11.77-0.96
	c-7.69-4.04-10.69-13.53-6.71-21.26l11.31-22.35v-0.32h0.32l8.81,4.56h0.32v0.32l-10.49,21.63c-1.24,2.46-0.29,5.46,2.14,6.75
	c1.14,0.64,2.51,0.75,3.74,0.32c1.27-0.41,2.33-1.31,2.92-2.51l0,0l0,0H248.97z M272.6,189.3l-17.29,2.87l-0.68,0.09l0.32-0.64
	l4.74-9.35l0.18-0.32l0.32,0.18l12.55,6.48l0.96,0.5L272.6,189.3z M702.77,491.78l-60.91-24.5c2.84-23.18,1.09-46.7-5.16-69.21
	l-2.33-8.3c-4.93-17.66-12.45-44.48-18.25-71.72h57.67v-82.44h-40.24c7.39-17.88,20.03-42.38,20.03-42.38l-56.66-70.44l-10.63,8.17
	c-17.81,13.54-37.08,25.07-57.44,34.35C520.93,94.14,456.8,42.88,385.63,50.81c-60.23,6.72-107.78,54.26-114.49,114.49
	c-20.37-9.27-39.64-20.79-57.44-34.35l-10.68-8.17l-56.34,70.49c0,0,12.64,24.5,20.03,42.38h-40.38v82.44h57.71
	c-5.84,27.37-13.37,54.06-18.25,71.72l-2.33,8.3c-6.25,22.49-8.02,45.99-5.2,69.16l-61.04,24.54c2.92,22.21,10.09,43.65,21.12,63.14
	l-13.18,10.22c14.69,33.03,33.53,51.42,49.64,67.43c34.35,34.13,75.55,51.1,111.32,63.14c5.47,2.05,10.72,4.2,15.83,6.52v47.68
	l236.1,0.05v-47.68c5.16-2.33,10.4-4.56,15.83-6.52c35.81-12.04,76.96-29.02,111.36-63.14c16.1-16.01,34.95-34.4,49.59-67.43
	l-13.14-10.27C692.73,535.46,699.89,514,702.77,491.78z M639.63,480.74l47.86,19.48c-2.7,16.06-8.25,31.51-16.38,45.62
	c-12.68-9.12-31.43-21.99-42.29-29.97C633.59,504.55,637.21,492.78,639.63,480.74z M659.71,249.29v54.75h-46.17
	c-2.78-7.21,4.97-30.93,14.23-54.75H659.71z M514.12,158.6c-6.33-7.15-13.14-13.86-20.39-20.07c0.41-8.7,0.3-17.41-0.32-26.1
	C504.05,125.85,511.17,141.72,514.12,158.6z M512.57,172.42c-21.04,8.27-42.94,14.17-65.29,17.56c3.16-9.31,5.48-18.88,6.93-28.61
	c8.3-2.42,33.21-12.77,35.27-13.69C498.44,154.67,506.23,163.02,512.57,172.42z M482.96,99.7c1.84,12.1,2.44,24.36,1.78,36.59
	c-9.92,5.53-20.58,9.58-31.66,12.04c-14.23-14.38-30.31-26.8-47.81-36.95c-0.14-7.66,0.32-21.17,0.32-23.5
	c12.03-6.14,24.64-11.07,37.64-14.74C455.59,78.3,474.52,89.48,482.96,99.7z M445.28,155.72c-1.64,6.71-3.83,23.22-10.27,36.04
	c-11.62,1.3-23.3,1.95-34.99,1.96c-11.91,0.01-23.8-0.68-35.63-2.05c-4.15-11.72-7.38-23.74-9.67-35.95
	c7.89-10.27,32.53-28.01,45.3-35.59C412.75,127.71,437.43,145.46,445.28,155.72z M400.07,64.75c9.04-0.27,18.06,1.12,26.6,4.11
	c-9.06,3.14-17.94,6.78-26.6,10.9c-8.67-4.12-17.57-7.76-26.64-10.9C381.98,65.88,391.01,64.49,400.07,64.75z M317.04,99.7
	c8.44-10.22,27.37-21.4,39.74-26.55c12.99,3.66,25.58,8.6,37.59,14.74c0,2.33,0.46,15.83,0.36,23.5
	c-17.52,10.15-33.61,22.57-47.86,36.95c-11.07-2.46-21.72-6.52-31.62-12.04C314.6,124.06,315.19,111.8,317.04,99.7z M310.51,147.6
	c2.05,1,26.96,11.36,35.27,13.69c1.47,9.75,3.8,19.35,6.93,28.7c-22.35-3.38-44.25-9.26-65.29-17.52
	C293.78,163.02,301.57,154.63,310.51,147.6z M306.59,112.43c-0.62,8.69-0.72,17.4-0.32,26.1c-7.21,6.22-13.97,12.93-20.26,20.07
	C288.93,141.74,296,125.87,306.59,112.43z M166.39,189.99l38.87-48.31c55.93,42.75,124.41,65.86,194.81,65.74
	c70.36,0.05,138.77-23.13,194.62-65.92l38.87,48.5C499.64,306.51,300.32,306.51,166.39,189.99z M140.02,304.04v-54.75h32.21
	c9.31,23.82,17.02,47.54,14.28,54.75H140.02z M176.66,401.72c10.17-36.5,34.99-120.35,28.79-163.6
	c98.41,53.61,176.7,50.96,194.63,51.33c17.84-0.37,96.17,2.28,194.53-51.33c-6.16,43.25,18.66,126.97,28.83,163.6
	c24.59,88.69-30.25,179.3-106.62,202.15c-42.54,12.82-82.19,33.77-116.75,61.68c-34.59-27.9-74.25-48.85-116.79-61.68
	C206.86,581.06,152.02,490.41,176.66,401.72z M112.65,500.22l47.81-19.48c2.44,12.04,6.06,23.8,10.81,35.13
	c-10.86,7.98-29.61,20.85-42.29,29.97C120.85,531.73,115.31,516.28,112.65,500.22z M270.73,682.89
	c-42.7-14.37-77.1-30.98-106.3-59.99c-15.79-15.69-31.07-30.84-42.11-53.65c11.13-8.67,38.82-28.24,55.2-39.92
	c0.82,1.6,1.69,3.19,2.55,4.79c22.31,40.51,58.49,70.71,99.23,82.9c29.59,8.92,57.78,21.95,83.76,38.69
	c-6.84,11.54-33.67,58.12-33.67,58.12C311.29,700.97,291.56,690.57,270.73,682.89z M475.98,736.31H323.83c-1.69,0-0.5-0.55-0.5-0.55
	c3.88-2.6,12.5-6.39,19.89-10.08c11.13-19.53,20.8-39.28,33.17-58.08l1.32-1.82c4.59,3.28,9.15,6.75,13.69,10.4l8.67,7.07l8.35-7.07
	c4.62-3.65,9.19-7.12,13.69-10.4l1.32,1.82c12.36,18.8,22.08,38.55,33.17,58.08c7.39,3.7,16.06,7.48,19.89,10.08
	C476.49,735.77,477.72,736.31,475.98,736.31z M635.57,622.9c-29.2,29.02-63.6,45.62-106.3,59.99
	c-20.83,7.68-40.56,18.08-58.67,30.93c0,0-26.83-46.58-33.67-58.12c25.98-16.74,54.17-29.77,83.76-38.69
	c40.74-12.18,76.92-42.38,99.27-82.9l2.55-4.79c16.38,11.68,44.07,31.25,55.16,39.92C666.64,592.06,651.4,607.2,635.57,622.9z
	 M221,653.96l0.27,0.14l11.72,6.52l0.36,0.23l0.23-0.41l23.45-42.57l0.23-0.36l-0.36-0.23l-7.85-4.33l-0.41-0.18l-0.18,0.36
	l-15.28,27.6l6.2-33.08l-0.27-0.18l-11.72-6.52l-0.36-0.23l-0.23,0.41l-23.5,42.57l-0.18,0.36l0.36,0.23l7.85,4.38l0.41,0.18
	l0.23-0.36l15.19-27.65L221,653.96z M291.12,659.9l-10.4-3.24h-0.27v0.27c-2.53,3.51-6.91,5.16-11.13,4.2
	c-2.39-0.73-4.41-2.37-5.61-4.56c-1.59-3.09-1.86-6.7-0.73-9.99c1.29-6.22,7.38-10.21,13.6-8.92c0.03,0.01,0.06,0.01,0.09,0.02
	c3.69,1.21,6.36,4.41,6.89,8.26v0.27h0.23l10.72,3.24h0.5v-0.5c1.33-10.48-4.71-20.51-14.6-24.23c-11.5-3.33-24.04,4.79-28.19,18.25
	c-2.19,6.87-1.59,14.33,1.69,20.76c2.29,4.71,6.41,8.27,11.41,9.85c10.75,2.48,21.74-3.09,26.1-13.23v-0.46H291.12z M183.41,627.91
	l7.85,6.07l0.27,0.23l0.23-0.32l29.11-37.18l0.23-0.27l-0.27-0.23l-7.85-6.07l-0.27-0.23l-0.23,0.27l-29.15,37.23l-0.23,0.27
	L183.41,627.91z M303.85,675.27l2.97-6.11l11.36,5.47l5.29-10.9l-11.31-5.52l2.74-5.57l14.78,7.21l5.34-10.9l-24.59-12l-21.67,44.48
	l24.54,12l5.34-10.9L303.85,675.27z M187.15,599.63c0.44-3.36-0.07-6.77-1.46-9.85c-1.45-2.24-0.82-5.24,1.42-6.69
	c0.06-0.04,0.12-0.07,0.17-0.11l0,0c1.12-0.71,2.59-0.5,3.47,0.5c0.94,1.15,0.78,2.84-0.36,3.79l-0.41,0.36h-0.27l0.23,0.27
	l6.39,7.76l0.27,0.27l0.27-0.23l1.19-1l0.27-0.27l0,0c5.33-4.86,5.97-13.03,1.46-18.66c-4.41-5.44-12.3-6.48-17.98-2.37
	c-3.9,2.35-6.62,6.25-7.48,10.72l0,0c-0.49,3.36,0.02,6.78,1.46,9.85c1.44,2.31,0.73,5.35-1.58,6.79c-0.01,0-0.01,0.01-0.02,0.01
	l0,0c-0.48,0.34-1.06,0.5-1.64,0.46c-1.47-0.24-2.46-1.63-2.22-3.1c0.09-0.56,0.36-1.07,0.76-1.47l0.41-0.32l0.46-0.32v-0.27
	l-6.39-7.76v-0.27l-0.27,0.23l-1.19,1l-0.27,0.23l0,0c-5.38,4.87-6.02,13.1-1.46,18.75c4.44,5.4,12.31,6.42,17.98,2.33
	c3.91-2.37,6.63-6.28,7.48-10.77L187.15,599.63z M470.51,647.4c0.71,1.79,0.61,3.81-0.27,5.52c-1.18,1.86-2.9,3.31-4.93,4.15
	l-1.82,0.87l3.92,8.12l7.76-3.79l14.64,29.93l10.08-4.93l-21.85-44.8l-7.85,3.83L470.51,647.4z M537.44,634.35
	c-1.15-2.34-2.7-4.47-4.56-6.3c-1.73-1.67-3.87-2.85-6.2-3.42c-7.22-0.95-14.2,2.95-17.2,9.58c-1,4.6-0.51,9.39,1.41,13.69
	c0.75,1.95,1.7,3.81,2.83,5.57c0.99,1.57,2.24,2.96,3.7,4.11c1.41,1.04,3.06,1.7,4.79,1.92c3.82,0.29,7.57-1.15,10.22-3.92
	c0.39-0.46,0.74-0.94,1.05-1.46c0.46,1.28,0.87,2.46,1.19,3.6c0.35,1.11,0.55,2.26,0.59,3.42c0.04,0.77-0.12,1.54-0.46,2.24
	c-0.38,0.63-0.98,1.1-1.69,1.32c-1.46,0.55-2.05,0-2.24,0c-0.87-0.79-1.51-1.8-1.87-2.92l-10.22,3.92c0.77,2.01,1.91,3.85,3.38,5.43
	c1.27,1.29,2.84,2.24,4.56,2.78c1.47,0.48,3.03,0.64,4.56,0.46c1.56-0.24,3.09-0.65,4.56-1.23c3.01-0.97,5.64-2.85,7.53-5.38
	c1.5-2.25,2.28-4.91,2.24-7.62c-0.05-2.99-0.56-5.96-1.51-8.81c-0.91-2.92-2.01-6.07-3.24-9.12
	C539.88,639.51,538.73,636.89,537.44,634.35z M529,646.21c-0.42,1.74-2.17,2.81-3.91,2.39c-0.38-0.09-0.74-0.25-1.06-0.47
	c-1.4-1.57-2.44-3.42-3.06-5.43c-0.46-1.19-0.82-2.33-1.14-3.38c-0.26-0.84-0.39-1.72-0.41-2.6c-0.02-0.58,0.14-1.16,0.46-1.64
	c0.41-0.5,0.94-0.88,1.55-1.09c0.61-0.19,1.26-0.19,1.87,0c0.57,0.16,1.07,0.47,1.46,0.91c0.6,0.63,1.09,1.36,1.46,2.14
	c0.5,1,1,2.1,1.46,3.28C528.52,642.17,528.97,644.18,529,646.21z M583.84,610.9c-1.41-2.17-3.18-4.09-5.25-5.66
	c-1.93-1.45-4.21-2.35-6.62-2.6c-2.76-0.21-5.52,0.45-7.89,1.87c-4.09,1.76-7.07,5.4-7.98,9.76c-0.54,4.78,0.54,9.59,3.06,13.69
	c0.98,1.85,2.14,3.59,3.47,5.2c1.2,1.44,2.63,2.66,4.24,3.6c1.5,0.87,3.2,1.33,4.93,1.32c3.84-0.17,7.39-2.07,9.67-5.16
	c0.35-0.48,0.64-1,0.87-1.55c0.64,1.19,1.19,2.33,1.64,3.42c0.49,1.06,0.83,2.18,1,3.33c0.19,0.75,0.19,1.53,0,2.28
	c-0.31,0.69-0.86,1.24-1.55,1.55c-1.37,0.68-2.01,0.32-2.24,0c-0.94-0.7-1.69-1.63-2.19-2.69l-9.63,5.11
	c0.98,1.9,2.33,3.59,3.97,4.97c1.34,1.07,2.89,1.84,4.56,2.24c1.5,0.35,3.06,0.35,4.56,0c1.58-0.41,3.11-0.99,4.56-1.73
	c2.89-1.3,5.28-3.49,6.84-6.25c1.21-2.41,1.65-5.13,1.28-7.8c-0.4-2.97-1.26-5.87-2.55-8.58c-1.28-2.83-2.78-5.84-4.56-8.85
	C586.77,615.81,585.37,613.32,583.84,610.9z M576.95,623.85c-0.01,1.1-0.7,2.08-1.73,2.46c-0.88,0.65-2.08,0.65-2.97,0
	c-1.6-1.37-2.87-3.08-3.7-5.02c-0.59-1.03-1.11-2.09-1.55-3.19c-0.36-0.8-0.61-1.64-0.73-2.51c-0.14-0.54-0.14-1.1,0-1.64
	c0.33-0.56,0.83-1,1.41-1.28c0.55-0.32,1.19-0.48,1.82-0.46c0.57,0.1,1.11,0.35,1.55,0.73c0.67,0.57,1.25,1.23,1.73,1.96
	c0.67,0.96,1.28,1.97,1.82,3.01C575.84,619.7,576.63,621.73,576.95,623.85L576.95,623.85z M628.18,602.73
	c-0.16-0.35-0.28-0.72-0.36-1.09c-0.41-1.49-0.64-3.02-0.68-4.56l-0.32-7.07c-0.06-1.64-0.23-3.27-0.5-4.88
	c-0.25-1.45-0.7-2.86-1.32-4.2c-0.54-1.29-1.24-2.5-2.1-3.6c-0.93-1.16-1.93-2.26-3.01-3.28c-2.65-2.82-6.31-4.46-10.17-4.56
	c-3.9,0.27-7.51,2.19-9.9,5.29c-2.98,2.8-4.63,6.73-4.56,10.81c0.44,4.07,2.43,7.81,5.57,10.45l2.33,2.14l7.35-8.08l-1-0.91
	l-2.37-2.37c-0.6-0.6-1.08-1.31-1.41-2.1c-0.29-0.51-0.42-1.1-0.36-1.69c0.09-0.64,0.44-1.21,0.96-1.6c1-1.19,2.42-2.05,5.34,0.59
	c0.87,0.87,1.51,1.37,2.1,2.01c0.52,0.57,0.95,1.22,1.28,1.92c0.3,0.78,0.53,1.59,0.68,2.42c0.24,1.08,0.35,2.18,0.32,3.28
	l0.27,5.11c0.08,2.18,0.34,4.34,0.78,6.48c0.31,2,0.83,3.95,1.55,5.84c0.76,1.82,1.7,3.54,2.83,5.16c1.15,1.69,2.52,3.22,4.06,4.56
	l0.96,0.96l19.8-21.26l-7.53-7.03L628.18,602.73z"/>
</svg>
