<?xml version="1.0" encoding="UTF-8"?>
<svg data-name="图层_1" xmlns="http://www.w3.org/2000/svg" version="1.1" viewBox="0 0 800 800">
  <!-- Created by @FCLOGO 2024-12-26 GMT+8 10:58:28 . https://fclogo.top/ -->
<!-- FOR PERSONAL USE ONLY NOT FOR COMMERCIAL USE -->
  <path d="M348.2194,774.301c-.786,0-1.3752-.2173-1.7682-.6519-.393-.4352-.5284-1.03-.406-1.7856l.2518-1.6478c.122-.755.4501-1.3504.9841-1.785.5339-.4352,1.1939-.6525,1.9799-.6525.7553,0,1.3293.1987,1.7223.5954.3927.3967.551.9381.4747,1.6248h-1.2358c.0304-.3589-.0553-.637-.2573-.8357-.2024-.1981-.4979-.2974-.8869-.2974-.4197,0-.763.1167-1.03.3489-.2673.2328-.4349.5631-.5035.9903l-.2632,1.659c-.0686.4352-.0056.7686.1887,1.0015.1946.2328.5017.3489.9214.3489.389,0,.7152-.0987.9785-.2974.2632-.1981.4365-.4805.5206-.8469h1.2358c-.1372.6867-.4672,1.2306-.9897,1.631-.5228.4005-1.1616.6004-1.9169.6004ZM352.7967,774.1868l.9956-6.2943h1.1902l-.1946,1.1902c.3359-.8698.9729-1.3044,1.9113-1.3044.6712,0,1.1691.208,1.4932.624.3244.416.4293.9859.3148,1.7105l-.0686.4234h-1.2703l.0571-.3204c.0689-.4501.0115-.7953-.1714-1.0356-.1832-.2403-.4771-.3607-.8813-.3607-.4045,0-.7401.1223-1.007.3663-.2673.2446-.4349.588-.5035,1.03l-.6296,3.9711h-1.2358ZM361.9058,774.301c-.7705,0-1.3463-.2229-1.7279-.6693s-.515-1.0356-.4005-1.7682l.2518-1.6478c.0838-.488.2573-.9152.5206-1.2815s.6007-.6507,1.0129-.8524c.4119-.2024.8732-.3036,1.3845-.3036.7705,0,1.3485.2235,1.7338.6693.3852.4464.5169,1.0356.3949,1.7682l-.1717,1.1213h-3.845l-.0916.5265c-.1527.9536.2173,1.4305,1.1098,1.4305.7171,0,1.175-.2477,1.3734-.7438h1.2247c-.1679.5339-.5035.9599-1.007,1.2759-.5038.3166-1.0912.475-1.7626.475ZM361.2306,770.2157l-.0456.2862,2.6548-.0118.0459-.2856c.0686-.4656.0133-.822-.1661-1.0704-.1791-.2477-.4861-.3719-.9211-.3719-.4427,0-.7953.126-1.0586.3775-.2632.2521-.4331.6109-.5094,1.076ZM368.3258,774.301c-.6333,0-1.1027-.2117-1.4078-.6351s-.3967-1.0008-.2744-1.7335l.2744-1.7738c.1145-.7326.393-1.3119.8357-1.7397.4424-.4272.98-.6407,1.6133-.6407.4653,0,.8298.1186,1.093.3545.2632.2365.3908.5575.3834.9617h.023l.1717-1.202h1.2358l-.9956,6.2943h-1.2247l.1946-1.2014h-.023c-.122.4116-.3511.7339-.6867.9667s-.7401.3489-1.2129.3489ZM368.9324,773.2257c.389,0,.7152-.1186.9782-.3551.2632-.2359.4293-.5718.4979-1.007l.2518-1.6478c.0686-.4272.0096-.7612-.1773-1.0015-.1872-.2403-.475-.3601-.8642-.3601-.3967,0-.7249.118-.9841.3545-.2595.2365-.4234.5724-.492,1.007l-.2518,1.6478c-.0686.4427-.0133.7804.1658,1.0133.1794.2328.4712.3489.8757.3489ZM376.3477,774.1868c-.5721,0-.9937-.1565-1.2644-.4694-.271-.3123-.3607-.7512-.2691-1.3156l.538-3.3874h-1.7394l.1714-1.1219h1.7397l.2747-1.7161h1.2358l-.2747,1.7161h2.472l-.1832,1.1219h-2.4605l-.5377,3.3874c-.0764.4421.099.6637.5262.6637h1.7167l-.1717,1.1213h-1.7738ZM382.5042,774.301c-.7705,0-1.3463-.2229-1.7279-.6693s-.515-1.0356-.4005-1.7682l.2518-1.6478c.0838-.488.2573-.9152.5206-1.2815s.6007-.6507,1.0129-.8524c.4119-.2024.8732-.3036,1.3845-.3036.7705,0,1.3485.2235,1.7338.6693.3852.4464.5169,1.0356.3949,1.7682l-.1717,1.1213h-3.845l-.0916.5265c-.1527.9536.2173,1.4305,1.1098,1.4305.7171,0,1.175-.2477,1.3734-.7438h1.2247c-.1679.5339-.5035.9599-1.007,1.2759-.5038.3166-1.0912.475-1.7626.475ZM381.829,770.2157l-.0456.2862,2.6548-.0118.0459-.2856c.0686-.4656.0133-.822-.1661-1.0704-.1791-.2477-.4861-.3719-.9211-.3719-.4427,0-.7953.126-1.0586.3775-.2632.2521-.4331.6109-.5094,1.076ZM388.9243,774.301c-.6333,0-1.1008-.2117-1.4019-.6351-.3014-.4234-.3949-1.0008-.2803-1.7335l.2744-1.7738c.1145-.7326.393-1.3119.8357-1.7397.4424-.4272.98-.6407,1.6133-.6407.4653,0,.8298.1186,1.093.3545.2632.2365.3908.5575.3834.9617h.023l.2058-1.4652.2977-1.7962h1.2358l-1.3274,8.3537h-1.2247l.1946-1.2014h-.023c-.122.4116-.3511.7339-.6867.9667s-.7401.3489-1.2129.3489ZM389.5309,773.2257c.389,0,.7152-.1186.9782-.3551.2632-.2359.4293-.5718.4979-1.007l.2518-1.6478c.0761-.4272.0189-.7612-.1717-1.0015-.1909-.2403-.4805-.3601-.8698-.3601-.3967,0-.7249.118-.9841.3545-.2595.2365-.4234.5724-.492,1.007l-.2518,1.6478c-.0764.4427-.023.7804.1602,1.0133s.4768.3489.8813.3489ZM401.0175,774.301c-.4731,0-.8394-.1161-1.0986-.3489-.2595-.2328-.3852-.5551-.3775-.9667h-.0115l-.1946,1.2014h-1.2243l1.3274-8.3537h1.2358l-.2862,1.7962-.2744,1.4652h.0456c.122-.4123.353-.7345.6923-.9673.3396-.2322.7419-.3489,1.2076-.3489.633,0,1.1002.2136,1.4016.6407.3014.4278.3949,1.007.2806,1.7397l-.2747,1.7738c-.1145.7326-.3949,1.31-.8413,1.7335-.4461.4234-.9822.6351-1.6077.6351ZM400.7657,773.2257c.3967,0,.7227-.1161.9785-.3489.2555-.2328.4216-.5706.4976-1.0133l.2518-1.6478c.0689-.4346.0115-.7705-.1714-1.007-.1832-.2365-.4734-.3545-.8698-.3545-.3893,0-.7152.1198-.9785.3601s-.429.5743-.4979,1.0015l-.2518,1.6478c-.0686.4352-.0112.7711.1717,1.007.1832.2365.4731.3551.8698.3551ZM405.4694,776.2468l.1717-1.0642h1.934c.6407,0,1.007-.3017,1.0986-.9046l.1028-.6749.2061-1.1902h-.0345c-.122.4197-.3471.7438-.6752.9729-.3281.2285-.7286.3433-1.2014.3433-.6258,0-1.093-.2005-1.4019-.601s-.4104-.9443-.3033-1.631l.5836-3.6047h1.2358l-.5606,3.4793c-.0612.4116,0,.732.1832.9611s.4653.3433.8469.3433c.389,0,.7168-.1217.9841-.3663.267-.244.4309-.5836.492-1.0182l.538-3.3992h1.2358l-1.007,6.4086c-.0993.6029-.37,1.0778-.8124,1.4249-.4427.3471-.9996.5209-1.6707.5209h-1.9455ZM417.787,770.0853h3.221l.5368-1.8545h-5.4659l-1.7081,6.4419h2.1473l.5856-2.0985h3.0257l.4392-1.7081h-3.0257l.244-.7808ZM424.229,772.9158c-.5856,0-1.0249-.3904-1.0249-1.1225,0-.8784.6344-1.7569,1.6105-1.7569.488,0,.8784.244,1.0248.7808l1.9521-.8296c-.2928-1.1713-1.2689-1.9033-2.6353-1.9033-2.7817,0-4.1482,2.1473-4.1482,3.9042s1.2689,2.8305,3.0746,2.8305c1.3665,0,2.3425-.5856,2.9769-1.4153l-1.5129-1.1713c-.3904.4392-.8296.6832-1.3177.6832ZM430.9149,768.2308h-2.1473l-1.7569,6.4419h5.1242l.488-1.8545h-2.9281l1.2201-4.5874ZM439.7481,771.0125c0-1.6593-1.3177-2.9281-3.221-2.9281-2.1961,0-3.8066,1.8057-3.8066,3.8066,0,1.6593,1.3177,2.9281,3.221,2.9281,2.1961,0,3.8066-1.8057,3.8066-3.8066ZM434.9167,771.6957c0-.8296.5856-1.7081,1.5129-1.7081.7808,0,1.1713.5368,1.1713,1.2201,0,.8296-.5856,1.7081-1.5129,1.7081-.7808,0-1.1713-.5368-1.1713-1.2201ZM443.2131,772.2326h1.0737l-.1952.6832c-.1464.0488-.3416.0976-.5856.0976-.6832,0-1.2689-.3904-1.2689-1.2201,0-1.0249.732-1.9033,1.9521-1.9033.5856,0,1.1225.244,1.5129.5856l1.3665-1.3665c-.4392-.5368-1.5129-1.0737-2.7329-1.0737-2.5865,0-4.2946,1.7569-4.2946,3.8554,0,2.0497,1.6105,2.8793,3.221,2.8793.9272,0,1.8545-.2928,2.4889-.6832l.9272-3.3186h-3.1234l-.3416,1.4641ZM450.7775,768.0844c-2.1961,0-3.8066,1.8057-3.8066,3.8066,0,1.6593,1.3177,2.9281,3.221,2.9281,2.1961,0,3.8066-1.8057,3.8066-3.8066,0-1.6593-1.3177-2.9281-3.221-2.9281ZM450.3382,772.9158c-.7808,0-1.1713-.5368-1.1713-1.2201,0-.8296.5856-1.7081,1.5129-1.7081.7808,0,1.1713.5368,1.1713,1.2201,0,.8296-.5856,1.7081-1.5129,1.7081ZM437.9424,767.4987c-.0488.2928.0976.488.4392.488s.5368-.1952.6344-.488c.0488-.244-.0976-.488-.4392-.488s-.5856.244-.6344.488ZM432.1349,765.4978c-.4392,0-.732.244-.7808.5856s.0976.5856.5368.5856.732-.244.7808-.5856c.0976-.3416-.0976-.5856-.5368-.5856ZM433.0134,767.3035c-.0976.5368.1464.8784.8296.8784.6344,0,1.0737-.3904,1.1713-.8784s-.1464-.8784-.8296-.8784c-.6832,0-1.0737.3904-1.1713.8784ZM439.6017,777.552l-2.4401-1.8057h-1.5129l4.2458,3.1722,1.6105-3.1722h-.976l-.9272,1.8057ZM425.8394,767.1571l-2.0009-1.4641,23.1323-2.7817-2.1473,4.2458h1.0248l2.6841-5.3195-26.9877,3.221,2.7817,2.0985h1.5129ZM338.7186,785.7853l.6088-3.8315h2.32l-.084.5194h-1.7636l-.1837,1.1445h1.6272l-.084.5248h-1.6166l-.2573,1.6428h-.5668ZM342.97,785.8377c-.3568,0-.6228-.1005-.7978-.3019-.175-.201-.2345-.473-.1784-.8161l.2677-1.7006c.056-.3429.2029-.6148.4408-.8161.2379-.201.5355-.3019.8923-.3019s.6228.1.7979.2993c.1748.1993.2361.4707.1837.8136l-.2677,1.7057c-.0561.3431-.2039.6151-.4435.8161-.2398.2013-.5381.3019-.895.3019ZM343.0487,785.3339c.1925,0,.3483-.0524.4672-.1575.119-.1051.1942-.2571.2257-.4568l.2678-1.7006c.0315-.1993.0051-.3517-.0787-.4565-.084-.1051-.2223-.1575-.4148-.1575s-.3473.0524-.4645.1575c-.1173.1048-.1916.2571-.2231.4565l-.2677,1.7006c-.0315.1996-.0053.3517.0787.4568s.2204.1575.4094.1575ZM344.9961,785.7853l.6088-3.8315h1.202c.2379,0,.4391.0464.6036.139.1645.0928.2835.223.357.391s.091.3656.0524.5932c-.0384.2591-.14.4838-.3044.6746-.1645.1905-.3656.3209-.6036.391l.5354,1.6428h-.6194l-.4777-1.5748h-.5406l-.2466,1.5748h-.5668ZM345.8883,783.7068h.6352c.1889,0,.349-.0558.4803-.168.1313-.1119.2107-.2623.2388-.4514.0316-.1925,0-.3454-.0944-.4593-.0945-.1136-.2362-.1706-.4252-.1706h-.6352l-.1995,1.2493ZM349.545,785.7853l.6088-3.8315h1.2544c.3709,0,.6508.1048.8399.315.1889.2099.2553.4898.1993.8398-.0384.2344-.1216.4383-.2493.6114s-.2905.307-.4881.4015c-.1978.0945-.419.1418-.6639.1418h-.6928l-.2415,1.5221h-.5668ZM350.432,783.754h.6928c.1924,0,.3568-.0587.4934-.176.1364-.117.2204-.2737.2519-.4696s-.0017-.3525-.0997-.4699-.245-.1757-.441-.1757h-.6876l-.2099,1.2911ZM352.7466,785.7853l.6088-3.8315h2.2518l-.0787.5038h-1.6954l-.1731,1.0867h1.5115l-.0787.4986h-1.5115l-.1942,1.2387h1.6901l-.0787.5038h-2.2518ZM355.8434,785.7853l.6088-3.8315h1.202c.2379,0,.4391.0464.6036.139.1645.0928.2835.223.357.391s.091.3656.0524.5932c-.0384.2591-.14.4838-.3044.6746-.1645.1905-.3656.3209-.6036.391l.5354,1.6428h-.6194l-.4777-1.5748h-.5406l-.2466,1.5748h-.5668ZM356.7356,783.7068h.6352c.1889,0,.349-.0558.4803-.168.1313-.1119.2107-.2623.2388-.4514.0316-.1925,0-.3454-.0944-.4593-.0945-.1136-.2362-.1706-.4252-.1706h-.6352l-.1995,1.2493ZM360.1316,785.8377c-.385,0-.6736-.0951-.8661-.2859-.1924-.1908-.2641-.4505-.2151-.7794h.5668c-.028.1748.0105.3121.1155.4121.1051.0997.266.1495.483.1495.2029,0,.3701-.049.5012-.1469.1313-.098.2109-.2327.2389-.4044.0209-.1504.0007-.2788-.0604-.3856-.0614-.1068-.1583-.1811-.2913-.2233l-.4566-.1364c-.266-.0803-.4619-.217-.5879-.4095-.126-.1922-.1697-.4197-.1313-.6823.035-.2099.1121-.3935.2309-.551s.2729-.2799.4619-.3673.4024-.1313.6404-.1313c.3498,0,.6158.0954.7978.2859.182.1908.2485.4437.1995.7586h-.5668c.0279-.168-.0027-.3001-.092-.3964-.0891-.0963-.2301-.1444-.4225-.1444-.1889,0-.343.0447-.4619.1338-.119.0894-.1889.2144-.21.3753-.0245.1506-.007.2791.0525.3859s.1575.1811.2939.223l.4672.1469c.2624.0806.4558.2173.5801.4095.1242.1925.1653.4217.1233.6877-.035.217-.1155.4058-.2415.5667-.1259.1612-.2878.2862-.4855.3753-.1976.0894-.419.1338-.6639.1338ZM363.2651,785.8377c-.3568,0-.6228-.1005-.7978-.3019-.175-.201-.2345-.473-.1784-.8161l.2677-1.7006c.056-.3429.2029-.6148.4408-.8161.2379-.201.5355-.3019.8923-.3019s.6228.1.7979.2993c.1748.1993.2361.4707.1837.8136l-.2677,1.7057c-.0561.3431-.2039.6151-.4435.8161-.2398.2013-.5381.3019-.895.3019ZM363.3439,785.3339c.1925,0,.3483-.0524.4672-.1575.119-.1051.1942-.2571.2257-.4568l.2678-1.7006c.0315-.1993.0051-.3517-.0787-.4565-.084-.1051-.2223-.1575-.4148-.1575s-.3473.0524-.4645.1575c-.1173.1048-.1916.2571-.2231.4565l-.2677,1.7006c-.0315.1996-.0053.3517.0787.4568s.2204.1575.4094.1575ZM365.2754,785.7853l.6088-3.8315h.7086l.6194,3.186c.007-.098.0165-.217.0289-.3571.0121-.1398.0271-.2851.0446-.4354.0175-.1506.0367-.2888.0577-.4146l.315-1.9788h.525l-.609,3.8315h-.7085l-.6141-3.186c-.0071.0945-.0167.209-.0289.3437s-.0272.2757-.0446.4226c-.0177.1469-.0367.2833-.0578.4095l-.315,2.0102h-.5301ZM368.2252,785.7853l1.5851-3.8315h.7454l.3726,3.8315h-.5616l-.0735-.9711h-1.0865l-.3884.9711h-.5932ZM369.3852,784.3418h.8714l-.0893-1.1023c-.0175-.1959-.0298-.3654-.0367-.5089-.0071-.1435-.0105-.2432-.0105-.2993-.0175.0561-.0517.1558-.1024.2993s-.1146.3112-.1915.5038l-.441,1.1075ZM371.7208,785.7853l.6088-3.8315h.567l-.525,3.3118h1.6744l-.0787.5197h-2.2465ZM376.6785,785.8377c-.3673,0-.6342-.1005-.8003-.3019-.1663-.201-.2214-.475-.1654-.8213l.4357-2.7608h.567l-.4357,2.7554c-.0315.1962-.008.35.0708.4619.0787.1122.2144.168.4068.168.1925,0,.3473-.0558.4646-.168.1172-.1119.1915-.2657.2231-.4619l.4355-2.7554h.567l-.4357,2.7608c-.056.35-.2003.6245-.433.8241-.2328.1993-.5328.299-.9003.299ZM379.8435,785.8377c-.385,0-.6736-.0951-.8661-.2859-.1924-.1908-.2641-.4505-.2151-.7794h.5668c-.028.1748.0105.3121.1155.4121.1051.0997.266.1495.483.1495.2029,0,.3701-.049.5012-.1469.1313-.098.2109-.2327.2389-.4044.0209-.1504.0007-.2788-.0604-.3856-.0614-.1068-.1583-.1811-.2913-.2233l-.4566-.1364c-.266-.0803-.4619-.217-.5879-.4095-.126-.1922-.1697-.4197-.1313-.6823.035-.2099.1121-.3935.2309-.551s.2729-.2799.4619-.3673.4024-.1313.6404-.1313c.3498,0,.6158.0954.7978.2859.182.1908.2485.4437.1995.7586h-.5668c.0279-.168-.0027-.3001-.092-.3964-.0891-.0963-.2301-.1444-.4225-.1444-.1889,0-.343.0447-.4619.1338-.119.0894-.1889.2144-.21.3753-.0245.1506-.007.2791.0525.3859s.1575.1811.2939.223l.4672.1469c.2624.0806.4558.2173.5801.4095.1242.1925.1653.4217.1233.6877-.035.217-.1155.4058-.2415.5667-.1259.1612-.2878.2862-.4855.3753-.1976.0894-.419.1338-.6639.1338ZM381.9062,785.7853l.6088-3.8315h2.2518l-.0787.5038h-1.6954l-.1731,1.0867h1.5115l-.0787.4986h-1.5115l-.1942,1.2387h1.6901l-.0787.5038h-2.2518ZM386.9426,785.8377c-.3568,0-.6228-.1005-.7978-.3019-.175-.201-.2345-.473-.1784-.8161l.2677-1.7006c.056-.3429.2029-.6148.4408-.8161.2379-.201.5355-.3019.8923-.3019s.6228.1.7979.2993c.1748.1993.2361.4707.1837.8136l-.2677,1.7057c-.0561.3431-.2039.6151-.4435.8161-.2398.2013-.5381.3019-.895.3019ZM387.0213,785.3339c.1925,0,.3483-.0524.4672-.1575.119-.1051.1942-.2571.2257-.4568l.2678-1.7006c.0315-.1993.0051-.3517-.0787-.4565-.084-.1051-.2223-.1575-.4148-.1575s-.3473.0524-.4645.1575c-.1173.1048-.1916.2571-.2231.4565l-.2677,1.7006c-.0315.1996-.0053.3517.0787.4568s.2204.1575.4094.1575ZM388.9529,785.7853l.6088-3.8315h.7086l.6194,3.186c.007-.098.0165-.217.0289-.3571.0121-.1398.0271-.2851.0446-.4354.0175-.1506.0367-.2888.0577-.4146l.315-1.9788h.525l-.609,3.8315h-.7085l-.6141-3.186c-.0071.0945-.0167.209-.0289.3437s-.0272.2757-.0446.4226c-.0177.1469-.0367.2833-.0578.4095l-.315,2.0102h-.5301ZM392.249,785.7853l.6088-3.8315h.567l-.525,3.3118h1.6744l-.0787.5197h-2.2465ZM396.1174,785.7853l.2204-1.4119-.7506-2.4197h.5774l.4462,1.4486c.0279.0945.0498.1837.0656.2677.0157.084.0253.1469.0288.1888.0175-.0419.0464-.1048.0867-.1888.0402-.084.0883-.1731.1442-.2677l.8976-1.4486h.5984l-1.5275,2.4197-.2204,1.4119h-.5668ZM399.217,785.7853l.6088-3.8315h.7086l.6192,3.186c.0071-.098.0165-.217.029-.3571.012-.1398.0271-.2851.0444-.4354.0177-.1506.037-.2888.0578-.4146l.315-1.9788h.5248l-.6088,3.8315h-.7085l-.6141-3.186c-.0071.0945-.0167.209-.0289.3437s-.0272.2757-.0446.4226c-.0177.1469-.0367.2833-.0578.4095l-.315,2.0102h-.5301ZM403.5053,785.8377c-.3571,0-.6231-.1005-.7979-.3019-.1751-.201-.2344-.473-.1785-.8161l.2677-1.7006c.0561-.3429.203-.6148.4411-.8161.2378-.201.5354-.3019.8922-.3019.3571,0,.6228.1.7979.2993.1748.1993.2361.4707.1837.8136l-.2677,1.7057c-.0561.3431-.2039.6151-.4437.8161-.2395.2013-.5379.3019-.8947.3019ZM403.5839,785.3339c.1925,0,.3483-.0524.4673-.1575.1187-.1051.1942-.2571.2255-.4568l.2677-1.7006c.0316-.1993.0054-.3517-.0786-.4565-.084-.1051-.2224-.1575-.4146-.1575-.1925,0-.3474.0524-.4647.1575-.117.1048-.1914.2571-.223.4565l-.2677,1.7006c-.0316.1996-.0051.3517.0789.4568.0837.1051.2204.1575.4092.1575ZM406.3814,785.7853l.5248-3.3121h-1.0234l.084-.5194h2.6193l-.084.5194h-1.0289l-.5248,3.3121h-.567ZM409.5178,785.7853l.6088-3.8315h2.32l-.084.5194h-1.7636l-.1837,1.1445h1.6272l-.084.5248h-1.6166l-.2571,1.6428h-.567ZM413.7694,785.8377c-.3571,0-.6231-.1005-.7979-.3019-.1751-.201-.2344-.473-.1785-.8161l.2677-1.7006c.0561-.3429.203-.6148.4411-.8161.2378-.201.5354-.3019.8922-.3019.3571,0,.6228.1.7979.2993.1748.1993.2361.4707.1837.8136l-.2677,1.7057c-.0561.3431-.2039.6151-.4437.8161-.2395.2013-.5379.3019-.8947.3019ZM413.848,785.3339c.1925,0,.3483-.0524.4673-.1575.1187-.1051.1942-.2571.2255-.4568l.2677-1.7006c.0316-.1993.0054-.3517-.0786-.4565-.084-.1051-.2224-.1575-.4146-.1575-.1925,0-.3474.0524-.4647.1575-.117.1048-.1914.2571-.223.4565l-.2677,1.7006c-.0316.1996-.0051.3517.0789.4568.0837.1051.2204.1575.4092.1575ZM415.7952,785.7853l.6088-3.8315h1.202c.2381,0,.4391.0464.6037.139.1643.0928.2833.223.3568.391s.0911.3656.0527.5932c-.0387.2591-.1401.4838-.3044.6746-.1646.1905-.3659.3209-.6037.391l.5354,1.6428h-.6194l-.4776-1.5748h-.5408l-.2466,1.5748h-.567ZM416.6876,783.7068h.635c.1891,0,.3491-.0558.4804-.168.131-.1119.2107-.2623.2386-.4514.0316-.1925,0-.3454-.0945-.4593-.0943-.1136-.2361-.1706-.4252-.1706h-.635l-.1993,1.2493ZM420.905,785.8377c-.3602,0-.6308-.1005-.8107-.3019-.1803-.201-.2423-.473-.1865-.8161l.2677-1.7006c.0561-.3463.2056-.6194.4488-.8187s.545-.2993.9056-.2993c.3568,0,.6253.1008.8056.3019.1803.2013.2423.4733.1865.8161h-.567c.0313-.1993.0026-.3517-.0866-.4565-.0894-.1051-.2284-.1575-.4175-.1575-.1925,0-.3508.0524-.475.1575-.1242.1048-.2019.2554-.2335.4514l-.2677,1.7057c-.0316.1996-.0026.3517.0866.4568.0894.1051.2301.1575.4226.1575s.35-.0524.4724-.1575.1993-.2571.2309-.4568h.5667c-.0347.2275-.1145.4252-.2386.5932s-.2808.2976-.4699.3884c-.1888.0908-.4024.1364-.6404.1364ZM424.0335,785.8377c-.3571,0-.6231-.1005-.7979-.3019-.1751-.201-.2344-.473-.1785-.8161l.2677-1.7006c.0561-.3429.203-.6148.4411-.8161.2378-.201.5354-.3019.8922-.3019.3571,0,.6228.1.7979.2993.1748.1993.2361.4707.1837.8136l-.2677,1.7057c-.0561.3431-.2039.6151-.4437.8161-.2395.2013-.5379.3019-.8947.3019ZM424.1121,785.3339c.1925,0,.3483-.0524.4673-.1575.1187-.1051.1942-.2571.2255-.4568l.2677-1.7006c.0316-.1993.0054-.3517-.0786-.4565-.084-.1051-.2224-.1575-.4146-.1575-.1925,0-.3474.0524-.4647.1575-.117.1048-.1914.2571-.223.4565l-.2677,1.7006c-.0316.1996-.0051.3517.0789.4568.0837.1051.2204.1575.4092.1575ZM425.9653,785.7853l.6088-3.8315h.6874l.1837,1.2282c.0211.119.0367.2301.0473.3332.0105.1034.0194.1828.0262.2389.0177-.0561.0473-.1364.0894-.2415.0419-.1051.0908-.217.1469-.336l.5667-1.2228h.7088l-.6088,3.8315h-.5354l.2045-1.2911c.0245-.168.0578-.3525.1-.5539.0419-.201.0874-.4041.1364-.6088s.0963-.3998.1418-.5852c.0453-.1854.0874-.3483.1259-.4881l-.8554,1.8632h-.5513l-.2833-1.8632c-.0037.1364-.0105.2947-.0211.475s-.0236.3719-.0393.5747c-.0157.203-.035.4069-.0578.6114-.0228.2047-.0481.3964-.076.5749l-.2047,1.2911h-.5405ZM429.1145,785.7853l.6088-3.8315h.6874l.1837,1.2282c.0211.119.0367.2301.0473.3332.0105.1034.0194.1828.0262.2389.0177-.0561.0473-.1364.0894-.2415.0419-.1051.0908-.217.1469-.336l.5667-1.2228h.7088l-.6088,3.8315h-.5354l.2045-1.2911c.0245-.168.0578-.3525.1-.5539.0419-.201.0874-.4041.1364-.6088s.0963-.3998.1418-.5852c.0453-.1854.0874-.3483.1259-.4881l-.8554,1.8632h-.5513l-.2833-1.8632c-.0037.1364-.0105.2947-.0211.475s-.0236.3719-.0393.5747c-.0157.203-.035.4069-.0578.6114-.0228.2047-.0481.3964-.076.5749l-.2047,1.2911h-.5405ZM432.4107,785.7853l.6088-3.8315h2.2516l-.0786.5038h-1.6955l-.1731,1.0867h1.5115l-.0786.4986h-1.5118l-.1942,1.2387h1.6901l-.0786.5038h-2.2516ZM435.5073,785.7853l.6088-3.8315h1.202c.2381,0,.4391.0464.6037.139.1643.0928.2833.223.3568.391s.0911.3656.0527.5932c-.0387.2591-.1401.4838-.3044.6746-.1646.1905-.3659.3209-.6037.391l.5354,1.6428h-.6194l-.4776-1.5748h-.5408l-.2466,1.5748h-.567ZM436.3997,783.7068h.635c.1891,0,.3491-.0558.4804-.168.131-.1119.2107-.2623.2386-.4514.0316-.1925,0-.3454-.0945-.4593-.0943-.1136-.2361-.1706-.4252-.1706h-.635l-.1993,1.2493ZM439.8007,785.8377c-.3602,0-.6308-.1005-.8107-.3019-.1803-.201-.2423-.473-.1865-.8161l.2677-1.7006c.0561-.3463.2056-.6194.4488-.8187s.545-.2993.9056-.2993c.3568,0,.6253.1008.8056.3019.1803.2013.2423.4733.1865.8161h-.567c.0313-.1993.0026-.3517-.0866-.4565-.0894-.1051-.2284-.1575-.4175-.1575-.1925,0-.3508.0524-.475.1575-.1242.1048-.2019.2554-.2335.4514l-.2677,1.7057c-.0316.1996-.0026.3517.0866.4568.0894.1051.2301.1575.4226.1575s.35-.0524.4724-.1575.1993-.2571.2309-.4568h.5667c-.0347.2275-.1145.4252-.2386.5932s-.2808.2976-.4699.3884c-.1888.0908-.4024.1364-.6404.1364ZM441.8792,785.7853l.0789-.5038h.7768l.4459-2.824h-.7766l.0837-.5038h2.1258l-.084.5038h-.7766l-.4462,2.824h.7768l-.0789.5038h-2.1258ZM444.7399,785.7853l1.585-3.8315h.7452l.3728,3.8315h-.5616l-.0735-.9711h-1.0867l-.3884.9711h-.5929ZM445.8998,784.3418h.8714l-.0894-1.1023c-.0174-.1959-.0296-.3654-.0367-.5089-.0068-.1435-.0103-.2432-.0103-.2993-.0177.0561-.0518.1558-.1025.2993s-.1148.3112-.1916.5038l-.4408,1.1075ZM448.2354,785.7853l.6088-3.8315h.567l-.5248,3.3118h1.6741l-.0786.5197h-2.2465ZM453.1932,785.8377c-.3676,0-.6345-.1005-.8005-.3019-.1663-.201-.2213-.475-.1654-.8213l.4357-2.7608h.567l-.4357,2.7554c-.0316.1962-.008.35.0709.4619.0786.1122.2141.168.4066.168s.3474-.0558.4645-.168c.1173-.1119.1916-.2657.2233-.4619l.4357-2.7554h.5667l-.4357,2.7608c-.0558.35-.2002.6245-.4328.8241-.2329.1993-.5328.299-.9001.299ZM456.3581,785.8377c-.385,0-.6738-.0951-.866-.2859-.1925-.1908-.2643-.4505-.2153-.7794h.567c-.0282.1748.0105.3121.1153.4121.1051.0997.266.1495.483.1495.2028,0,.3699-.049.5012-.1469s.2107-.2327.2389-.4044c.0211-.1504.0009-.2788-.0604-.3856s-.1583-.1811-.2913-.2233l-.4568-.1364c-.266-.0803-.4619-.217-.5878-.4095-.1259-.1922-.1697-.4197-.1313-.6823.035-.2099.1119-.3935.2309-.551s.2731-.2799.4619-.3673c.1891-.0874.4024-.1313.6404-.1313.3497,0,.6157.0954.7979.2859.1817.1908.2483.4437.1993.7586h-.567c.0279-.168-.0026-.3001-.0917-.3964-.0894-.0963-.2301-.1444-.4226-.1444-.1891,0-.3429.0447-.4619.1338-.119.0894-.1891.2144-.2099.3753-.0245.1506-.0071.2791.0524.3859s.1575.1811.2939.223l.4673.1469c.2623.0806.4556.2173.5798.4095.1242.1925.1654.4217.1236.6877-.035.217-.1156.4058-.2415.5667-.1262.1612-.2879.2862-.4855.3753-.1979.0894-.4192.1338-.6641.1338ZM458.4209,785.7853l.6088-3.8315h2.2516l-.0786.5038h-1.6955l-.1731,1.0867h1.5115l-.0786.4986h-1.5118l-.1942,1.2387h1.6901l-.0786.5038h-2.2516Z" style="fill: #ccc;"/>
  <g>
    <g>
      <path d="M400,50c-89.8467,90.265-175.6051,119.2189-252.5675,16.2078v300.7812c0,173.0987,102.618,324.9234,252.5675,383.011,149.9495-58.0875,252.5676-209.9123,252.5676-383.011V66.2078c-76.9625,103.0111-162.7209,74.0572-252.5676-16.2078" style="fill-rule: evenodd;"/>
      <path d="M400,52.3477c-44.7601,44.7189-88.5747,74.2301-130.9011,79.8802-41.8009,5.5795-81.9933-12.0338-120.0013-61.0894v295.8505c0,85.7433,25.2693,166.2396,69.0372,232.6123,44.1289,66.9199,107.0662,119.4909,181.8653,148.616,74.7989-29.1251,137.7365-81.6961,181.8653-148.616,43.7679-66.3726,69.037-146.8689,69.037-232.6123V71.1385c-38.0078,49.0556-78.2002,66.6689-120.0014,61.0894-42.3265-5.6501-86.1408-35.1613-130.9009-79.8802" style="fill: #ce9834;"/>
      <path d="M400,61.6827c-21.1033,20.612-42.066,37.863-62.8509,50.876-22.6366,14.172-45.0506,23.2965-67.1916,26.2516-22.1763,2.9593-43.9344-.2364-65.1954-10.6811-16.7348-8.2222-33.086-20.9181-49.0041-38.6269v277.4867c0,41.661,6.0434,82.0301,17.33,120.0613,11.6149,39.1344,28.7673,75.8178,50.5881,108.9084,21.8827,33.1851,48.4799,62.7878,78.9117,87.6548,29.2122,23.8721,61.9438,43.3677,97.4122,57.469,35.4682-14.1013,68.1997-33.5969,97.4123-57.469,30.4314-24.867,57.029-54.4696,78.9116-87.6548,21.8205-33.0907,38.9729-69.774,50.5878-108.9084,11.2869-38.0312,17.3304-78.4004,17.3304-120.0613V89.5024c-15.9183,17.7088-32.2694,30.4046-49.0042,38.6269-21.2612,10.4447-43.0191,13.6404-65.1953,10.6811-22.1409-2.9551-44.555-12.0797-67.1916-26.2516-20.785-13.013-41.7476-30.264-62.8509-50.876"/>
    </g>
    <path d="M157.8458,385.9382c3.4196,76.9945,27.5706,148.9897,67.2156,209.11,42.5969,64.5982,103.084,115.5292,174.9386,144.2501,71.8545-28.7208,132.3415-79.6519,174.9387-144.2501,39.6449-60.1203,63.796-132.1155,67.2153-209.11H157.8458Z" style="fill: #fff;"/>
    <path d="M157.423,308.7789v58.2102c0,5.787.1211,11.5489.3536,17.2842h484.4467c.2322-5.7353.3536-11.4972.3536-17.2842v-58.2102H157.423Z" style="fill: #d61f05;"/>
    <g>
      <path d="M466.6928,543.7238c-6.8679,36.7529-42.356,61.0664-79.1087,54.1984-36.799-6.8765-61.1499-42.3718-54.282-79.1251,6.8765-36.7992,42.4095-61.1426,79.2084-54.266,36.7527,6.8679,61.0588,42.3933,54.1823,79.1927"/>
      <path d="M362.314,499.2183c.0063-.0055,1.3362-1.1653,1.3362-1.1653,1.7144-1.4991,3.4867-3.0487,5.2859-4.4149l2.2804-1.5999c2.1116-1.5768,4.2968-3.2066,6.9742-2.9867l.0935.0081.0582.0741c1.3297,1.6969,2.8804,3.3928,4.25,4.889l.4717.5157c2.0179,2.4869,4.6389,4.5995,7.3737,6.7249,2.3279,1.6092,4.7454,3.2808,7.2672,4.6282-.0047-.0024.4068.1989.4068.1989.6199.3002,1.2609.6104,1.8196,1.0663,5.7162,2.7615,10.6866,4.717,15.6,6.128,5.1432,1.6575,10.1077,2.6286,15.3639,3.6569l.0506.0094.0404.0317c.3435.2673,2.0962,4.5403,2.0848,5.3123,1.1592,7.9121,1.1005,15.5202-.1768,22.5784-.0002.0011-.0683.3649-.0683.3649-.7138,3.827-1.4518,7.784-3.4166,10.999-1.3367.8751-2.7723,1.0371-4.1115.5256-1.2015-.2208-2.4401-.5956-3.6382-.9572l-3.2968-.8902c-8.1271-2.0471-14.9841-4.2978-20.972-6.8847-3.6046-1.5677-7.4246-3.3163-10.9447-5.479-2.1985-1.039-4.3378-2.3363-6.4065-3.5911-1.7069-1.0345-3.4713-2.105-5.2648-3.0257-6.4902-4.3355-13.3289-9.1484-19.505-15.0505-1.4467-1.7302-1.0649-4.0483-.6953-6.2909l.2873-2.1327c.9818-5.0307,3.5577-9.6005,7.4521-13.2427" style="fill: #ce9834;"/>
      <path d="M344.5747,535.6372l.1179-.4593c.4552-2.1919,1.4448-4.1694,2.3528-5.8131.4497-1.5231,1.4823-2.8102,2.4813-4.055l1.6747-2.2719.0402-.0431.3656-.3606c.4889-.522,1.2266-1.3107,2.1891-.7501.0249.0178.6718.5269.6718.5269,1.3101,1.0312,2.6651,2.097,3.8987,3.4097-.0172-.0169,2.3794,1.8942,2.3794,1.8942l6.0617,4.944c-.019-.0141.2532.172.2532.172,1.3231.9038,2.573,1.7588,3.7197,2.8925l-.0003-.0011c.0074.0013,2.9104,1.9592,2.9104,1.9592,1.3427.9672,2.7307,1.9675,4.2352,2.676.6869.6984,1.4951,1.1381,2.277,1.5646.7383.4017,1.5009.8174,2.1231,1.4151,1.5431.5566,2.9777,1.4471,4.3659,2.3086,1.612,1.0003,3.2782,2.034,5.2088,2.5918,2.3556,1.4769,4.9824,2.4005,7.522,3.2938,1.6983.5976,3.4538,1.2145,5.1223,1.9894,5.5138,1.9871,10.9773,3.3907,16.7617,4.8756l5.2538,1.3645.8373.8805.0107.0652c.0436.2597.0321.5115-.0135.7556-.085.4562-.2897.8818-.4779,1.2736l-.1004.2104c-.7514,1.5473-1.6327,2.9827-2.4861,4.3716l-.7085,1.1598c-.0188.0269-.0908.1132-.0908.1132-.6081.7276-1.2919,1.5221-1.967,1.9691.0263.103.0734.2131.0572.3-.0465.2485-.23.4361-.3685.5787-.1214.1236-.2364.2427-.2592.3633-.0013.0067-.0101.0918-.0101.0918l-2.9214,3.1803c-1.7353,1.9498-3.5298,3.9661-5.0053,5.0954-2.5506,2.2209-4.7446,3.8854-7.7655,5.2929-2.7092,2.2891-6.3838,1.4282-9.6254.6687l-1.8611-.4145c-.0347-.0101-1.5476-.5858-1.5476-.5858-7.0366-2.674-14.314-5.4399-20.7784-9.2909-.0146-.0088-3.2075-2.0322-3.2075-2.0322-1.5286-.9176-3.109-1.8666-4.5376-3.0362l-3.1409-2.5297c-5.7436-4.5969-11.1678-8.9479-15.6105-14.9327-.1104.0208-.302.0563-.302.0563l-.0522-.0169c-.1944-.0631-.2636-.1782-.2873-.2634-.0151-.0542-.0156-.1064-.0063-.1568.0245-.1305.1203-.2409.2014-.3359-.1117-.185-.8359-1.3817-.8359-1.3817-.4869-.7185-.992-1.4605-1.2545-2.4658-.0566-2.2036.2033-4.4192.6145-6.6208.408-2.1826.9649-4.3523,1.5142-6.4869" style="fill: #ce9834;"/>
      <path d="M395.7311,473.4698c1.147-.809,11.208-7.8615,12.9631-7.582-.019-.0011-.0376-.0021-.0376-.0021,3.0898-.3403,6.8591.653,10.1503,1.6108.072.0368.465.2662.465.2662.4335.2229,1.0893.56.7198,1.3817-.3557.4898-.8244.638-1.2375.769-.3273.1036-.636.2017-.8563.4337l-.0363.0384-.0506.0175c-1.4957.5078-2.9096,1.4349-4.2772,2.3313l-1.5562.9925c.0188-.0131-2.7614,2.0714-2.7614,2.0714-2.1291,1.5711-4.3299,3.1954-6.1677,4.9223,0,.0003-.3991.4061-.3991.4061-2.2937,2.3281-4.6647,4.7357-6.5383,7.5527l-.0357.0535-.0598.0249c-.2887.1239-.5139.3841-.7326.636-.3064.3538-.6606.7261-1.1987.7167-.0901.2836-.3578.8364-1.039,2.14-.3144.6033-.7072,1.354-.7383,1.4855l-.0085.0394-.0243.0642c-.3605.529-.5371,1.2067-.7078,1.8623-.2299.8803-.4669,1.7911-1.1496,2.4146l-.0493.0446-.0647.0097c-1.7634.2596-2.9793-1.0943-4.0506-2.2881l-1.324-1.3184c-.0344-.0329-1.3641-1.5364-1.3641-1.5364-1.2102-1.3346-2.3528-2.5952-3.1203-4.1788-.1306-.3957-.1269-.8174-.0504-1.2259.0945-.5063.3003-.9922.5034-1.3813,4.3894-5.4031,9.2292-8.8177,14.8343-12.7721" style="fill: #ce9834;"/>
      <path d="M404.2197,465.6206l.1199.0809-.0272.1586c-.0533.2613-.7107.7295-4.6909,3.3416-3.1218,2.0492-7.0073,4.5995-8.6979,6.0683-1.1972.3787-2.4044.0606-3.5718-.2466l-1.4245-.3267c-4.3688-1.1413-9.2129-1.3083-14.8285-.5155.0855-.0319-.7172.238-.7172.238-.4322.095-.6498.1869-.7411.3535,5.4845-.0157,11.1558-.03,16.4853,1.606.3322.2793.7959.6986.6882,1.2757-.0215.1151-.0661.237-.1384.3653-1.7522,1.8336-3.465,3.4361-5.2798,5.1321l-3.0194,2.8562c-.0347.0273-4.0041,2.366-4.0041,2.366-2.285,1.2978-4.4422,2.5234-6.5105,4.1084-4.1384,2.8165-7.7137,6.4365-10.6354,10.7672-.0169.0222-.3831.7164-.3831.7164-.126.3268-.2767.6514-.5833.8897-.0159.0337-.7085,1.5194-.7085,1.5194-.7673,1.6035-1.4982,3.1318-1.8336,4.9274-.0613.3278-.1096.6645-.1422,1.0115-.0866.3053-.1571.617-.2158.9316-.1341.7178-.2083,1.4514-.2826,2.169-.0741.7205-.1491,1.4508-.2814,2.1583-.2108,1.1295-.5681,2.2018-1.3002,3.084l-.5199.2544c-2.3073,2.5237-4.9393,5.6863-6.4175,9.6218-1.1882,2.6965-1.9782,5.8075-2.5594,8.9169-.5053,2.7046-.8515,5.4071-1.1632,7.8339l-.0282.2166c.0097.2471-.0094.4906-.0538.7279-.1313.7015-.4906,1.35-1.0603,1.889-1.115.6235-2.2617,1.0525-3.3967.1986l-.0532-.0391-.4189-1.2269c-.0104-.0271-.0216-.0569-.0316-.0848-1.378-4.9534-2.1807-10.1046-2.3673-15.3636-.0287-2.5693.0269-5.5216.2502-8.5844.1887-1.9926.4536-3.992.8281-5.9955,6.1825-33.0858,35.9559-55.9008,68.6739-54.3378.0488.0451.0952.0952.1459.1581.1242.153.3101.3826.8959.7785" style="fill: #ce9834;"/>
      <path d="M457.326,497.7456l.0026.1051.0681.6295c.0963.476.2283,1.1285-.3512,1.3218-.0193.0053-3.8221.7848-3.8221.7848-1.8367.3494-3.5718.6791-5.2987,1.1835-.8275.5266-1.8944.9583-2.9256,1.3754-1.7394.7036-3.5378,1.4315-4.5786,2.758-.0673.0561-.3724.2201-.3724.2201-1.0314.5506-2.0978,1.1201-2.7265,1.9706-1.8809,1.7118-3.8011,3.5736-5.2986,5.8013-.7754,1.4302-2.21,1.2282-3.476,1.0497-.5549-.0786-1.0791-.1524-1.5534-.1077l-.0702.0065-.0603-.0361c-.3727-.2218-.8897-.3056-1.4375-.3941-1.0014-.1613-2.1364-.345-2.4989-1.5082.0182-.2438.0503-.4834.0945-.7193.2581-1.3811.9236-2.6328,1.5697-3.8489l.8923-1.7702c.0097-.0194.2085-.3239.2085-.3239.1754-.2545.3051-.4586.3419-.6554.0219-.1182-.0057-.2351-.0611-.3578-.0512-.0149-.0885.0133-.1933.1174,0,0-.2062.1106-.3636.1947-.0169.0316-1.1564,2.1928-1.1564,2.1928-.9398,1.8691-2.0051,3.988-3.2797,5.1394l-.2036.1845-.1306-.2419c-.0838-.1548-.0989-.1828-.4815.0013-.4992.2398-1.3343.6407-2.3974-.7305l-.0681-.0882.0324-.1068c.3573-1.1736,1.9312-3.3379,3.3204-5.2472.8132-1.1178,1.5808-2.1735,1.8689-2.7254.2171-.4299.6232-.8151,1.016-1.188.4011-.3807.8161-.7751.9511-1.1614,2.378-4.0128,6.2512-6.5516,9.9968-9.0066l.4335-.2845,2.1664-.9653c1.0747-.5134,2.1864-1.0437,3.3382-1.3632,3.157-1.1982,6.5889-2.175,10.1636-1.176l.0506.0141.0386.0363c.8404.7856,1.5936,1.6518,2.2969,2.567.3943.5295.7785,1.0674,1.1575,1.6084.9932,1.4891,1.889,3.0806,2.7763,4.7062l.0203.0378Z" style="fill: #ce9834;"/>
      <path d="M451.2444,569.7171c1.6124-2.5642,4.3776-10.6154,5.6993-15.8752,2.1059-7.7618,2.1583-16.1108,1.9683-22.5169.0005.0134-.6973-5.5113-.6973-5.5113l-.7592-6.1267c-.0019-.0005-1.2104-4.9818-1.2104-4.9818-.4571-2.0339-.9293-4.1371-1.5434-6.1323-.0622-.7511-.2779-1.413-.5064-2.114-.3447-1.0567-.7005-2.1479-.4658-3.4034.0111-.06.0239-.1203.0378-.1812l.011-.0469.0295-.0378c1.1079-1.4093,2.9806-1.0269,4.633-.6895l1.0032.191.0501.0389c.4667.4011.8411.8754,1.1531,1.3929.3343.7354.6552,1.478.9635,2.2261.0747.2336.1464.4674.2138.7013.2276.4559.4184.9121.6112,1.368.6214,1.6646,1.1684,3.3597,1.6567,5.0758.0566.2266.1216.464.1738.6825.0733.1934.1192.3928.1795.5893,2.4295,9.2368,2.9146,19.1355,1.0465,29.1334-2.6161,13.9986-9.4723,26.1447-18.9771,35.3938.2273-.4148.5522-.9886,1.0181-1.8057,1.4236-2.4963,3.3736-5.9162,3.7113-7.3703" style="fill: #ce9834;"/>
      <path d="M403.2275,594.2784l-.5235-1.5886c-.0864-.3581-.095-.6754-.0418-.9604.2383-1.2749,1.71-1.8872,2.9369-2.3966.5741-.239,1.1158-.464,1.464-.7202,3.8455-2.1148,7.6939-4.7548,12.503-8.5771.0671-.0412.1018-.0851.1112-.1363.0041-.0216.0038-.0454-.0008-.0697-.011-.0626-.0592-.0942-.102-.1263-.2229.1553-4.2349,2.9564-4.2349,2.9564-3.88,2.7766-8.277,5.9232-12.3115,7.5147l-.0574.023-.0613-.0115c-.445-.083-.517-.3492-.6091-.6854l-.1363-.4377c-.1085-.3063.2534-.4817.8012-.7469.2409-.1175.6444-.3124.7031-.4092l.0425-.07.101-.0889c1.4195-.4351,2.5544-1.1844,3.6516-1.9083.7548-.498,1.5353-1.0131,2.3892-1.4088,3.1934-1.6105,5.8742-4.1957,8.466-6.6962l1.3727-1.3148c.5728-.869,1.2877-1.6549,1.9787-2.4157.8834-.9716,1.7966-1.9766,2.452-3.2158,1.3518-1.1973,2.0928-2.7366,2.8778-4.3664.5916-1.2287,1.2034-2.4992,2.0797-3.582-.0028.0047-.0033.0026-.0017-.0047.0161-.0875.2949-.9521.2949-.9521.4987-1.6282.8855-2.7964,1.326-2.9968,0,0,.0443-.0013.0673-.0013.7993-1.5072,1.2999-3.3732,1.778-5.1862l1.0215-3.4614c.2804-1.201.5327-2.4029.7576-3.6062,1.5293-8.1841,1.776-16.4021.7255-24.4633-.0827-1.1297-.4347-2.0234-.7748-2.888-.4692-1.1911-.9137-2.3196-.6232-3.8738.0167-.0892.0358-.18.0575-.2724,1.6794-2.6821,4.9529-6.1022,7.1942-7.9925l.0094-.0073c1.6197-1.2212,5.188-2.9804,7.4862-3.6908l.139-.0433.0919.1135c.855,1.0544.9009,1.6778.95,2.3381.0358.4802.0943.9928.4523,1.7431.5292.1038.8318.9662,1.1245,1.8036.1193.3414.3036.8545.4463,1.0518.037-.7191-.6034-2.381-1.1444-3.7625-.5408-1.3814-1.0083-2.5746-.9874-3.1467l.0063-.167.1798-.071c.2174-.0478.3043.1072.7853.9659.2571.4583.7471,1.3211,1.0084,1.5708-.0217-.2453-.1211-.8615-.1874-1.2699-.1227-.7506-.1687-1.0765-.1362-1.2496.0128-.0697.0386-.1148.0772-.1524l.226-.2208.1425.2852c1.5803,3.7291,2.977,10.9539,3.6931,16.0066-.001-.0065.8691,4.5735.8691,4.5735l1.0817,5.8717c.0027.0256.1452,2.755.1452,2.755.1941,3.3585.3348,5.7853-.3994,10.6798-.0073.0394-.2604,1.3342-.5895,3.0955-.5926,3.1715-1.4317,7.8537-1.5299,9.4425-1.9213,6.3196-4.4064,13.661-8.3406,20.561-1.8733,3.2857-3.9927,5.87-6.0203,7.9017-9.763,7.4622-21.5493,12.2128-34.1029,13.4185l-1.0674-.0016c-1.3376-.4902-1.7339-1.9608-2.0837-3.2578" style="fill: #ce9834;"/>
      <path d="M338.2986,552.935l.0084-.0168.0107-.0159c.4192-.5924.7203-.7189,1.1014-.8779l.547-.2584c1.7927-.4682,2.8163.79,3.7203,1.8992l.5972.7046s-.0525-.0052-.0927-.0094c.6125.1978,2.1665,2.0978,2.8692,2.9916,1.6444,2.1087,3.6639,3.9826,5.6176,5.795l3.1312,2.9955c5.5657,5.4344,12.2519,10.0793,20.44,14.1979,1.0708.3596,2.0631.9246,3.0216,1.4716,1.1959.6807,2.4321,1.3853,3.8711,1.7045,3.6514,1.9764,7.3448,2.9277,11.2548,3.9351l2.141.558c.4064.2474,1.014.2881,1.6009.3283.9022.0616,1.8349.1255,2.2762.7897.0283.0629.2613.6423.2613.6423.2142.4824.435.9792.3687,1.3336-.0089.0478-.0235.0937-.0436.1357-.0632.1316-.1754.2213-.326.261-2.3769.3521-5.3276-.1501-8.1817-.6355-1.7538-.2981-3.4096-.5799-4.8808-.6629l-.0031.0007c5.0004,1.7003,9.2384,2.4005,12.9402,2.1259l.0757-.006.0626.0431c.9876.6824,1.6163,2.0072,1.9227,4.0506.0516.7444-.4951.8946-.8936,1.004l-.3048.094c-.2364.1518-.6696.2575-1.2203.328-4.0846.0076-8.224-.3451-12.3828-1.1222-23.516-4.3944-41.8449-20.6946-49.9288-41.4867-.0533-.7386.0454-1.5043.4185-2.2984" style="fill: #ce9834;"/>
      <path d="M447.9255,486.7545l-.0407.0353-.0528.0125c-8.5975,1.9652-18.1582,5.0867-23.8744,13.33-2.5996,2.649-4.9819,6.0748-7.1037,10.2108-.3637.5586-.9319,1.2819-1.7973,1.3407-4.0274-.6723-7.608-2.3533-11.071-3.9792l-2.8131-1.2976c-.4535-.4407-1.0403-.7117-1.6079-.9745-1.0674-.493-2.277-1.0521-2.2501-2.5602.3962-1.5871,1.2007-2.8677,1.979-4.1065.5945-.9468,1.2049-1.9274,1.6259-3.0099-.2331-.5377-.254-1.0755-.1546-1.6077.0744-.3977.2038-.7921.3312-1.1811,0,0,.2244-.8983.2946-1.1781-.0261-.005-.031-.0057-.0527-.0099-.5034.4038-1.3417,1.8791-2.1794,3.4763.1305-.0922.2633-.195.3808-.2255.3199-.082.5935.0459.7699.3606.4173.3417-.1996,1.701-2.5907,5.5333l-.6053,1.0006c-.4283.8576-1.6105.8848-2.2413.7668l-.0514-.0094-.6118-.4706c-.7471-.5612-1.5941-1.1963-1.9693-2.0004-.1545-1.0366.1044-1.8613.3787-2.7342l.2519-.8532c3.1335-6.2823,6.9729-11.2803,11.7524-15.3211,1.1303-.785,2.119-1.6606,3.0752-2.5075,1.372-1.2144,2.7907-2.4702,4.5715-3.4068l3.278-1.8491c2.2987-1.3858,4.6759-2.8191,7.4222-3.1732,3.1213-1.1943,10.831,3.7745,10.9086,3.8251.2239.1994.2748.468.1545.6892-.0702.1287-.3724.5306-1.3132.2824-.3202-.0842-.8946-.4079-1.5601-.7829-.7592-.4277-1.6202-.9127-2.1547-1.0622-.802-.2256-1.2952-.1428-1.4896.0096-.0501.0392-.0622.0694-.0656.0825.0567-.0097.737.3993.737.3993,1.3065.73,2.3103,1.332,2.3643,1.8895.0038.04.0038.0863-.0053.136-.0172.092-.0656.1949-.1764.2889-.4398.3727-1.068.6616-1.6756.9411-.4616.2119-.9215.4306-1.2819.6785-.8821-.6932-1.9526-1.4882-3.5735-1.7069l-1.86.0462c-.4546.9429.5528,1.1608,1.0859,1.4713.6404.189,1.6447.398,1.8483,1.1189-.0882.5838-1.4424,1.5754-1.9693,1.818-1.1925.5097-1.0919.4332-2.3635.2868-.6645-.3301-2.5271-2.1747-3.4442-1.7157-.3393.1788-.5613.4672-.6796.9552.569.9596,2.8246.7945,3.2656,2.0106.2675.5925-1.1932,1.1076-1.5225,1.5178-.6658.2678-.6405,1.1455-1.3916.802-1.3435.2333-2.6429-2.7447-3.7695-1.4889-.1619.481-.0042.7235.3272,1.1875.6261.8764,2.5595.6736,2.1541,2.1763-.316.32-1.588,1.5905-1.6995,2.0333,1.2279.1399,2.2768-1.9957,3.5824-2.0743,1.3791.9711,2.4131,2.0234,3.1659,1.171.3675-.9562-4.0068-2.1223.5442-4.195,1.6207-1.8707,3.007,2.2479,4.6062,1.1094.1495-.9891-2.152-1.7044-1.4653-2.7048.8541-.9289,2.2423-2.145,3.3927-1.7872,1.0596.666,3.0284,3.5843,4.4792,2.8376.2819-.0952.2852-.6602.3328-.9747l-3.1526-2.7818c-.1007-.0149-.1997-.0418-.2979-.0752.8015-.1582,1.4114-.5851,1.8491-.9108.332-.2468.551-.4103.7699-.3884,1.9877-.7565,4.1183,1.3204,5.8303,2.989.0597.0584.2419.2357.6835.0679.1526-.0574.165-.12.1688-.1406.076-.3754-.9291-1.3276-1.6632-2.0234-.631-.598-1.2269-1.163-1.5174-1.6252-.1255-.2007-.0892-.3499-.037-.44.1623-.2782.6373-.2785,1.29-.2485l.3858.0065.0796.0123c1.2652.5201,3.6917,2.2611,5.9996,4.1415,1.7695,1.4919,3.4546,3.0722,5.0533,4.7334.0228.049.0412.0929.0412.0929.2125.4903.5332,1.2313-.0151,1.7073" style="fill: #ce9834;"/>
      <path d="M371.5727,476.7913c-3.0834,1.1356-6.2181,2.5391-9.1786,3.975-.1853.7521,2.8663-.2829,2.8013.3064-.8595.4971-4.54,2.0019-3.6299,2.6847-.4502.0084,4.3088-1.7353,6.3971-2.8256.5073-.5528-3.4392.6459-2.9585-.0047,1.6118-1.1788,5.4516-2.9569,7.3847-3.9369.1354-.4833-.5386-.2393-.8161-.1989"/>
      <path d="M387.2086,483.183c-.8947.9429-1.9279,1.9065-2.4736,3.1459l.4345.0811,4.058-4.1916.1086-.5809c-.987.0005-1.4033,1.033-2.1275,1.5455"/>
      <path d="M401.3774,488.051c-.8878.6669-.798,2.3488-1.9396,2.6908-1.8295,2.1103-2.8264,4.5606-4.4139,6.8084l-.1587.8495c.765.2351,1.1648-.7081,1.6288-1.2687,2.103-4.0481,4.5466-7.7552,7.3542-11.2549l.0811-.6788c-1.0436.5449-1.552,2.0692-2.5518,2.8537"/>
      <path d="M388.2483,492.0283c.1398.2109-.2047.6092.1425.6741,1.1123-.6712,1.4756-2.1298,2.4915-3.0043,1.3471-1.9224,2.7786-4.0604,4.3866-5.7027l-.0118-.4186c-2.9039,2.0941-4.7247,5.5936-7.0088,8.4516"/>
      <path d="M390.7845,483.0185c-1.8705,1.3618-3.0005,3.3248-4.1217,5.2436,1.134-.0658,1.9326-3.6174,3.3124-3.3134,1.0405.1945,1.6308-.8054,2.0503-1.6058.0112-.7845-.2967-.333-1.241-.3244"/>
      <path d="M409.1056,490.8829l.0115.4186c1.1407.8609,2.4028,1.7908,3.8241,1.8712.1036-.073.3969-.2033.3521-.4428-1.0987-1.0847-2.3697-1.9699-4.0076-2.091l-.1801.244Z"/>
      <path d="M428.1549,506.3785c-.5937,1.7392-2.449,2.7807-2.2964,4.8444,1.9287-1.6747,2.5417-4.475,4.1652-6.4384.9058-1.7274,2.5944-3.0769,3.6305-4.7803l-.0715-.3372c-2.1956,1.9028-3.5373,4.5199-5.4279,6.7116"/>
      <path d="M457.214,506.2572c.82,2.0962.4987,4.534,1.449,6.6551.1733.0323.1584.3531.4.2593.524-.6417.1973-1.5361-.024-2.2713-.5752-1.7264-.4243-3.7338-1.4395-5.265-.3824-.1177-.3007.4066-.3855.6219"/>
      <path d="M446.6099,509.6883c.1947.6376.1749,1.4665.7232,1.8929.142-.7597.0488-1.7026-.5514-2.0922l-.1718.1993Z"/>
      <path d="M415.5171,507.4864c.0983.4348.4684.134.7286.1827l1.5319-2.6746-.0548-.4267c-.7472.8777-1.842,1.6912-2.2057,2.9186"/>
      <path d="M429.8341,508.6812c-.3737,1.0405-1.208,1.9023-1.2183,2.9183,1.2744-1.0572,1.5918-2.7557,2.6399-4.0405l-.0637-.3818c-.7005.1467-.9891.972-1.3579,1.504"/>
      <path d="M439.2811,514.5639c.4345,2.7179.0816,5.5667.8967,8.1708.2865.1462.44-.1952.4387-.4267-.1226-2.7062-.272-5.5096-1.1637-7.9432l-.1717.1991Z"/>
      <path d="M460.2132,520.4647c-.0502.2683.2873.1462.4525.2235.2717-.7354-.0015-1.4343-.3168-1.9096-.5603.3578-.3122,1.1905-.1357,1.6861"/>
      <path d="M437.8334,519.4289c.1384,1.1822.2078,2.4903.6311,3.5872.3805-.1141.3155-.7273.331-1.0484.0404-1.6578-.421-3.2706-.7608-4.8145-.8028.4512-.1973,1.5359-.2013,2.2757"/>
      <polygon points="365.2054 515.4328 364.0533 514.1531 363.9223 514.1289 365.2054 515.4328"/>
      <path d="M366.6113,520.877c-.0216-.606-.8265-.6175-1.1851-1.1011-1.064-1.0314-2.214-1.8472-3.3041-2.9764,1.2496,1.4823,2.9569,2.9117,4.4892,4.0775"/>
      <path d="M359.8743,518.5081c2.6242,2.525,5.1448,5.1246,8.2585,6.9554-2.6226-2.294-5.4365-4.5321-8.2251-7.1349l-.0334.1795Z"/>
      <path d="M357.0474,519.4593c3.1279,3.9153,7.7639,6.7245,11.8488,9.847l3.7137,2.2212c-3.0672-2.5618-6.5608-4.2798-9.4556-7.0412-2.1079-1.6888-3.9906-3.3826-6.0033-5.0996l-.1037.0725Z"/>
      <polygon points="355.3823 526.6891 354.257 525.5073 354.6772 526.141 355.3823 526.6891"/>
      <polygon points="356.4902 527.7288 356.2018 527.3504 355.9847 527.3099 356.4902 527.7288"/>
      <polygon points="353.937 527.9457 353.2997 527.2713 353.806 527.9211 353.937 527.9457"/>
      <path d="M338.7089,526.5805c-.7057,4.4937.1033,8.8083-.0475,13.222.2831.8855-.1062,2.2465.9442,2.6286l.2289-.7441c-.1821-2.6249-.8241-5.1958-.6263-7.9353-.5879-1.1744.1459-2.7025-.0191-3.9823.028-1.105.0193-2.2626-.2652-3.3802l-.215.1913Z"/>
      <path d="M340.7792,529.1879c-.5525,1.5161-.1422,3.1652-.2095,4.7254.0699.1059.1759.4961.3919.3047.7164-1.6702.0371-3.3238-.0091-4.9977l-.1733-.0324Z"/>
      <path d="M366.3302,535.3505c-.0584.3124.3137.2432.4695.3651l.131.0245c-.1487-.1664-.3403-.3411-.6005-.3896"/>
      <path d="M415.9573,552.4415c2.3846,1.6497,5.9973,1.7697,8.9891,2.3288.2936-.1307.4306-.3826.2122-.6541-2.7886-1.1702-5.3785-1.2379-8.3274-1.7888-.3205.034-.6243-.0229-.874.114"/>
      <path d="M349.146,545.4159c-.3489-.296-.5089-.8808-.926-1.0515.0802.2923.5937.666.926,1.0515"/>
      <path d="M346.9858,546.1693c.1715,1.0035,1.1269,1.4127,1.6604,2.1604l.3038.0567c-.327-.8936-1.1126-1.7343-1.9642-2.2171"/>
      <path d="M345.1519,549.0759c.1981,1.1019-.641.0083.1898,1.0882.2795.4225.5598.8451,1.1056.8085,1.0603,1.7705,2.7924,3.0657,4.2315,4.4909,1.9161,1.5151,3.4981,3.6146,5.6031,4.8406.5303.284.5984,1.4185.7666.7559.0112-1.0155-1.0317-1.4417-1.7034-2.1686-2.548-2.6967-5.5667-4.6715-7.8912-7.6042-.2954-.1012-1.1334-1.0212-.9625-1.4515-.7307-.4141-.4808-.5528-1.3394-.7599"/>
      <path d="M349.0635,548.5004c.1782.7273,1.0549,1.0765,1.5865,1.5915-.35-.5277-.7798-1.3488-1.5865-1.5915"/>
      <path d="M346.5842,550.7206c-.0154.3205.3121.0117.3985.0279l.0334-.1788c-.1738-.0326-.3555-.0203-.4319.1509"/>
      <polygon points="352.9098 552.4112 352.6992 552.0944 352.7448 552.3342 352.9098 552.4112"/>
      <path d="M353.2319,552.61c.6467.8616,1.3088,1.4015,2.0837,2.0548-.2829-.8855-1.3602-1.3645-2.0837-2.0548"/>
      <path d="M412.0898,566.8933c.7388.3697,1.7079.2265,2.4451.3643-.7373-.1378-1.6243-.6733-2.4451-.3643"/>
      <path d="M415.272,567.3954c.8675.162,1.7363.5558,2.5002.7912.9241-.3824,1.6491.5392,2.627.3521-.9489-.6864-2.3237-.2952-3.4624-.9244l-1.6648-.2189Z"/>
      <path d="M405.6582,567.4496c.4868.2757,1.3292.5718,1.7961.4745-.4784-.3213-1.1973-.3169-1.7961-.4745"/>
      <path d="M410.2828,568.6374c.5937.666,1.5979.5763,2.5169.7017,1.6246.6733,3.6358.957,5.4036,1.1021-.0549-.4267-.7538-.0483-1.1205-.487l-5.7673-1.0778c-.2451-.3696-.659-.0764-1.0327-.239"/>
      <path d="M340.8413,555.7536c.205.8244.8701,1.8279,1.5408,2.323-.2401-.8774-.6796-1.8845-1.5408-2.323"/>
      <path d="M436.0279,577.8432c-3.6453,3.8985-8.1982,6.8875-12.5071,10.014-3.3732,1.9615-7.5256,4.0071-11.177,5.7768-.8576.0245-1.8331.4431-2.3486,1.0408.1947.6383.9975.1864,1.4642.0887,5.5463-2.0625,10.429-4.897,15.6295-8.2284.6605-.8939,1.8584-1.7801,2.841-2.4762,3.2098-3.0086,6.3796-5.5613,9.1979-8.8749l.4272-.8451c-1.3009.9593-2.199,2.6422-3.5271,3.5042"/>
      <path d="M401.1259,569.609c2.7632,1.303,5.996,1.5369,8.8177,2.5271l1.1606.0316c-.8085-.475-1.943-.4084-3.0538-.7094-2.2914-.7057-4.4877-1.44-6.9245-1.8493"/>
      <path d="M411.2177,572.2814c1.0488.1501,2.2332,1.0185,3.3823.632.469.134.8787.5815,1.4844.4622-.0482-.7027-1.0154-.3282-1.4844-.4622-1.0174-.5603-2.2565-.6529-3.349-.8106l-.0333.1785Z"/>
      <polygon points="402.6411 573.2695 402.6494 573.2246 402.3457 573.1677 402.3373 573.2129 402.6411 573.2695"/>
      <path d="M403.0579,573.4402c2.3198,1.0348,5.1102,1.2326,7.5751,1.9706.7101.04,1.4323.4993,2.2113.4134-.7751-.654-1.9761-.2304-2.942-.8273-2.1077-.4867-4.6233-.9567-6.8444-1.5567"/>
      <path d="M444.7418,581.6454l.0347.0529.1454-.2967c-.0517.0368-.1983.1024-.1801.2438"/>
      <path d="M347.5047,565.0019c.0582-.3124-.3422-.8036-.6556-1.0478.0112.4183.334.8492.6556,1.0478"/>
      <path d="M423.1501,581.9134c-4.1719,2.8745-7.8208,5.1071-12.1862,7.577l.8573-.0255c5.1163-2.8828,11.1318-6.0159,14.9643-10.4345-1.3111.7733-2.4992,1.8464-3.6355,2.883"/>
      <path d="M396.8126,574.6785c-.2197-.5034-1.354-.4379-1.8679-.8114l-.5721-.0611,2.44.8724Z"/>
      <path d="M397.5499,574.8163c1.0591.3364,2.0946,1.0392,3.3588.9979-.8954-.4909-2.2998-.6615-3.3588-.9979"/>
      <path d="M352.7206,566.393c.0811.5243.8437.5282,1.0891.8975-.3323-.3855-.629-.7185-1.0891-.8975"/>
      <path d="M423.8585,584.1273c-3.6618,2.7852-7.5987,4.6405-11.5591,6.8617l-.4471.4716c.5653.3361,1.3162-.0785,1.9034-.3384,2.7958-1.5132,5.5818-3.214,8.1958-4.7143,1.9283-1.6753,4.6896-3.2409,6.4431-5.1797l-.0368-.2844c-1.5709.7239-2.9196,2.4146-4.4993,3.1836"/>
      <path d="M402.6366,576.4146c2.7098,1.1076,5.3439,1.1833,8.087,2.1124l.3106-.2195c-.4037-.7225-1.8681-.8114-2.8739-.9534-1.9258-.4987-3.6506-.6353-5.4819-1.1632l-.0418.2236Z"/>
      <path d="M374.5651,571.4925c1.3589,1.1334,3.2685,1.7211,4.7911,2.6992,4.3239,2.798,9.6262,4.2052,14.3844,5.8802l.0514-.0366c-.5919-.434-1.5191-.5154-2.2499-.9296-4.0619-1.314-8.0265-3.3958-12.1176-5.0398-1.035-.7017-2.3026-1.1243-3.4418-1.7535-.4267-.3572-.8534-.7145-1.4177-.82"/>
      <path d="M389.6291,575.4176c.5898.2033,1.2689.6535,1.9446.641-.4787-.32-1.4166-.5883-2.1713-.868l.2267.227Z"/>
      <path d="M358.6107,571.3795c-1.0528-.613-1.7624-1.8558-2.8595-2.4772.5891,1.1744,2.004,1.5306,2.8595,2.4772"/>
      <path d="M392.4156,576.3548c.3153.4752,1.3376.5274,1.6847.5922-.444-.2676-1.1373-.3973-1.6847-.5922"/>
      <path d="M394.4904,577.02c4.0989,1.5988,8.6207,2.8599,13.1304,3.7026-.0298-.5606-.8524-.4826-1.3041-.706-3.9479-.9693-7.9487-2.1333-11.8263-2.9966"/>
      <path d="M370.9633,572.9939c2.1766,1.563,4.6011,2.7568,6.9064,4.1123,5.6034,2.4349,11.1297,5.0408,16.8488,6.6187l.2417-.0945c1.7094.4591,3.4223,1.3804,5.1969,1.2488.2385-.5556-.4805-.5512-.7853-.8406-2.5237-.4249-4.7734-1.3545-7.505-1.865-.0084.0446-.06.0817-.1122.119-.1161-.5771-.9366-.2691-1.2689-.6535-6.7434-2.0938-13.0205-5.4873-19.1684-8.8566-.1114.118-.5898-.203-.3539.2114"/>
      <path d="M359.0801,571.7449c1.4573,1.5672,3.5272,2.7405,5.1392,4.1981l.3988.0287-.3153-.4752c-1.7566-1.1612-3.4647-2.5905-5.2227-3.7516"/>
      <path d="M354.8019,571.824c.9226,1.7918,2.9635,2.6353,4.5802,3.5863-.7077-1.0115-1.707-1.4301-2.6473-2.1608-.6191-.5321-1.1775-1.1455-1.9329-1.4255"/>
      <path d="M394.1559,580.0106l-.0418.2236c1.9446.641,4.1846,1.3832,6.3708,1.9305,1.1892.3612,2.0497.7993,3.2957.6159l.0501-.2683c-3.2792-.7047-6.4478-1.7598-9.6748-2.5018"/>
      <path d="M353.8345,573.4013c-.0668.3581.1438.675.4823.7851,3.6441,3.5483,8.0083,7.0934,12.3693,8.9728-1.5262-1.4422-3.7119-1.9895-5.0836-3.5408-2.8856-1.6034-5.1134-4.3322-7.768-6.2171"/>
      <path d="M361.2803,576.7815c.8353.5726,1.6893,1.2881,2.6439,1.4664-.951-.9173-2.4091-1.2837-3.4974-2.181-.0211.5982.8748.1185.8535.7146"/>
      <path d="M352.4534,575.5035c-.0733.6331.5021,1.1572.8774,1.5518,5.3015,5.0153,11.3926,9.1596,18.1438,12.1794.8701.6249,1.8942.9101,2.8502,1.3193.0167-.0899.1548-.1099.1714-.1987-.1355-.72-.9652-.5976-1.4359-.9629-7.4557-3.5679-14.3803-7.8221-20.0855-13.7915l-.5215-.0974Z"/>
      <path d="M388.3258,592.4765c-.3518.4424-.6684-.2638-1.0471.0818,2.2747.7946,4.8362,1.7365,7.1798,1.2029.0935-.26-.1933-.4064-.3586-.4834-1.9247-.2678-3.8912-.3105-5.7741-.8013"/>
      <path d="M345.6927,547.385c.1973,1.1-.6407.0068.1892,1.0875.2803.4225.5606.8445,1.1052.8074,1.0602,1.7716,2.7931,3.0668,4.2318,4.4925,1.9161,1.5142,3.4987,3.614,5.6038,4.8401.5298.2839.5984,1.4189.7673.7566.0098-1.0162-1.0324-1.442-1.704-2.1693-2.5487-2.6964-5.5674-4.6712-7.8907-7.6042-.2965-.1013-1.134-1.021-.964-1.4526-.7303-.414-.4798-.5518-1.3386-.7582"/>
      <path d="M418.1344,550.9993c2.3846,1.6478,5.9973,1.7679,8.9892,2.3269.2939-.1307.4306-.3829.2121-.6543-2.7883-1.1692-5.3792-1.236-8.3275-1.7869-.32.0321-.6238-.0245-.8738.1144"/>
      <path d="M420.3112,549.5551c2.3846,1.6478,4.142,1.4905,7.1342,2.0495.2936-.1297.6898-.4486.471-.7212-2.788-1.1689-3.7823-.8915-6.7312-1.4424-.3197.0321-.6238-.0248-.874.1141"/>
      <path d="M420.2658,518.4893c2.2653,1.8167,5.8579,2.1959,8.8026,2.9686.3014-.1088.4551-.3505.2555-.6378-2.7002-1.367-5.2773-1.6204-8.1794-2.3822-.3215.0094-.6198-.069-.8787.0514"/>
      <path d="M422.534,517.2045c2.2651,1.8167,4.0272,1.7857,6.972,2.5584.3012-.1085.7175-.3988.5184-.6864-2.7001-1.3668-3.7099-1.1616-6.612-1.9234-.3212.0094-.6198-.0689-.8784.0514"/>
      <path d="M419.9422,593.0774c1.7569-.7295,3.9434-1.6356,4.1467-1.7997,4.9912-3.1959,9.8446-7.0864,15.316-12.2846.3036-.5809.8347-.9959,1.3485-1.3969.5353-.4183,1.03-.8316,1.2801-1.4501-.2824.1352-.5612.3573-.8317.6251l-.7211.6284c.0031-.0029.0041-.0026.0038-.0003-.0054.0287-.2103.3401-.2103.3401-.1522.274-.3688.5763-.7631.6908-2.116,2.4757-4.8381,4.5202-7.4708,6.4976l-3.2171,2.4713-.0981-.0152s-.0611-.0115-.1211-.0225c-1.7951,1.604-3.8769,2.583-6.0827,3.6123-1.5492.7226-3.1514,1.4709-4.6376,2.4578,0,0,.0003,0,0,.0011-.0052.0284-.1735.2847-.1735.2847-.0788.1216-.1842.273-.2727.4074.6529-.2771,1.4606-.6148,2.5046-1.0473"/>
      <path d="M393.7651,489.3747c-.0117-.0309-.0242-.0619-.0242-.0619-.1321-.3468-.2049-.451-.4084-.4275-1.2212.8134-1.8668,2.1878-2.5493,3.6422,0,0-.6121,1.2339-.6895,1.3902.0078.0233.0114.0321.0211.0627.3758-.1271,1.2222-1.331,1.7554-2.1006.8198-1.1825,1.3691-1.926,1.8238-2.1242.0208-.1107.0571-.3048.0712-.381"/>
    </g>
    <g>
      <path d="M318.9605,361.3336h11.7441c.577,0,1.0488.474,1.0488,1.0508v11.7444c0,.5767-.4719,1.0488-1.0488,1.0488h-11.7441c-.5768,0-1.0509-.4721-1.0509-1.0488v-11.7444c0-.5768.4741-1.0508,1.0509-1.0508" style="fill-rule: evenodd;"/>
      <path d="M450.7443,361.3336h11.7444c.5767,0,1.0485.474,1.0485,1.0508v11.7444c0,.5767-.4718,1.0488-1.0485,1.0488h-11.7444c-.5768,0-1.0507-.4721-1.0507-1.0488v-11.7444c0-.5768.4739-1.0508,1.0507-1.0508" style="fill-rule: evenodd;"/>
      <path d="M574.7927,361.3336h11.7441c.5768,0,1.0489.474,1.0489,1.0508v11.7444c0,.5767-.4721,1.0488-1.0489,1.0488h-11.7441c-.577,0-1.051-.4721-1.051-1.0488v-11.7444c0-.5768.474-1.0508,1.051-1.0508" style="fill-rule: evenodd;"/>
      <path d="M245.9228,321.6903h60.5729c1.2005,0,2.1828.9824,2.1828,2.1828v8.7726c0,1.2005-.9824,2.1826-2.1828,2.1826h-23.7176v38.1675c0,1.1984-.9845,2.1828-2.1826,2.1828h-8.7726c-1.1982,0-2.1826-.9823-2.1826-2.1828v-38.1675h-23.7176c-1.2005,0-2.1828-.9821-2.1828-2.1826v-8.7726c0-1.2005.9824-2.1828,2.1828-2.1828" style="fill-rule: evenodd;"/>
      <path d="M418.3056,330.0943c2.2232,2.6597,1.873,6.6222-.7866,8.8454-2.6597,2.2235-6.6221,1.8733-8.8453-.7866-4.449-5.2963-10.9598-7.7652-17.2756-7.7461-2.4877.0062-4.9753.4215-7.3037,1.2144-2.2087.7532-4.2412,1.8626-5.9527,3.2995-3.2179,2.7017-5.3153,6.7038-5.3007,11.8493.0128,4.5222,1.6927,8.0292,4.3169,10.5276,1.8227,1.7348,4.13,3.052,6.6849,3.9435,2.71.944,5.6845,1.4117,8.6776,1.4033,6.2612-.0188,12.4869-2.1059,16.4281-6.2445,2.387-2.5087,6.3599-2.6093,8.8684-.2223,2.5088,2.3869,2.6096,6.3598.2224,8.8686-6.3953,6.7163-16.0359,10.0996-25.5189,10.1291-4.3819.0146-8.7679-.6858-12.8054-2.0912-4.1932-1.4641-8.0484-3.696-11.2031-6.6955-4.9903-4.7511-8.1786-11.2975-8.2016-19.6186-.0295-9.2359,3.8385-16.4997,9.7724-21.4813,2.9094-2.4417,6.3139-4.3106,9.9846-5.5607,3.5512-1.2104,7.4064-1.8396,11.331-1.8521,9.762-.0296,19.8911,3.8635,26.9076,12.2182"/>
      <path d="M504.3214,333.6938v8.1616h25.4014c8.6337,0,8.8328-8.1616,0-8.1616h-25.4014ZM529.6494,354.4367h-25.328v8.1595h25.328c9.0636,0,8.3316-8.1595,0-8.1595ZM544.863,348.3663c1.2,1.504,3.1842,3.138,3.805,4.8349,1.0111,2.7666,1.2544,5.674.7679,8.4239-.495,2.7982-1.7473,5.4683-3.7022,7.7023-3.0498,3.4924-7.7273,5.8501-13.7811,5.8501h-32.9002c-3.7988,0-7.2659-2.1457-7.3121-6.2906v-41.4839c-.0503-3.9853,1.3739-6.668,6.2907-6.2906h32.1722c9.007,0,14.5173,4.2015,17.0237,9.626,1.0027,2.1646,1.4769,4.5264,1.4599,6.8799-.0167,2.3282-.495,4.6334-1.3905,6.7121-.6229,1.4411-1.439,2.8046-2.4333,4.0358Z"/>
    </g>
    <g>
      <path d="M400,63.9999c-43.9829,42.7088-87.3663,70.7876-129.8274,76.4556-39.2981,5.2457-77.0436-8.3414-112.7495-46.6345v213.2928h485.154V93.8211c-35.7062,38.2931-73.4517,51.8802-112.7498,46.6345-42.4609-5.668-85.8443-33.7468-129.8273-76.4556" style="fill: #0038a8;"/>
      <path d="M309.8662,128.9763l90.1338,49.8636,90.1338-49.8636c13.3134,5.8207,26.5474,9.7241,39.6935,11.4792,5.7959.774,11.5577,1.1342,17.2836,1.0698l-107.2807,59.3497,192.0375,106.2388h-79.6604l-152.2073-84.2039-152.2076,84.2039h-79.6609l192.0375-106.2388-107.2807-59.3497c5.7263.0645,11.4883-.2957,17.2842-1.0698,13.1455-1.7551,26.3811-5.6594,39.6937-11.4792" style="fill: #fff;"/>
    </g>
  </g>
</svg>