<?xml version="1.0" encoding="UTF-8"?>
<svg data-name="图层_1" xmlns="http://www.w3.org/2000/svg" version="1.1" viewBox="0 0 800 800">
  <!-- Created by @FCLOGO 2024-12-26 GMT+8 10:58:28 . https://fclogo.top/ -->
<!-- FOR PERSONAL USE ONLY NOT FOR COMMERCIAL USE -->
  <path d="M348.2194,774.301c-.786,0-1.3752-.2173-1.7682-.6519-.393-.4352-.5284-1.03-.406-1.7856l.2518-1.6478c.122-.755.4501-1.3504.9841-1.785.5339-.4352,1.1939-.6525,1.9799-.6525.7553,0,1.3293.1987,1.7223.5954.3927.3967.551.9381.4747,1.6248h-1.2358c.0304-.3589-.0553-.637-.2573-.8357-.2024-.1981-.4979-.2974-.8869-.2974-.4197,0-.763.1167-1.03.3489-.2673.2328-.4349.5631-.5035.9903l-.2632,1.659c-.0686.4352-.0056.7686.1887,1.0015.1946.2328.5017.3489.9214.3489.389,0,.7152-.0987.9785-.2974.2632-.1981.4365-.4805.5206-.8469h1.2358c-.1372.6867-.4672,1.2306-.9897,1.631-.5228.4005-1.1616.6004-1.9169.6004ZM352.7967,774.1868l.9956-6.2943h1.1902l-.1946,1.1902c.3359-.8698.9729-1.3044,1.9113-1.3044.6712,0,1.1691.208,1.4932.624.3244.416.4293.9859.3148,1.7105l-.0686.4234h-1.2703l.0571-.3204c.0689-.4501.0115-.7953-.1714-1.0356-.1832-.2403-.4771-.3607-.8813-.3607-.4045,0-.7401.1223-1.007.3663-.2673.2446-.4349.588-.5035,1.03l-.6296,3.9711h-1.2358ZM361.9058,774.301c-.7705,0-1.3463-.2229-1.7279-.6693s-.515-1.0356-.4005-1.7682l.2518-1.6478c.0838-.488.2573-.9152.5206-1.2815s.6007-.6507,1.0129-.8524c.4119-.2024.8732-.3036,1.3845-.3036.7705,0,1.3485.2235,1.7338.6693.3852.4464.5169,1.0356.3949,1.7682l-.1717,1.1213h-3.845l-.0916.5265c-.1527.9536.2173,1.4305,1.1098,1.4305.7171,0,1.175-.2477,1.3734-.7438h1.2247c-.1679.5339-.5035.9599-1.007,1.2759-.5038.3166-1.0912.475-1.7626.475ZM361.2306,770.2157l-.0456.2862,2.6548-.0118.0459-.2856c.0686-.4656.0133-.822-.1661-1.0704-.1791-.2477-.4861-.3719-.9211-.3719-.4427,0-.7953.126-1.0586.3775-.2632.2521-.4331.6109-.5094,1.076ZM368.3258,774.301c-.6333,0-1.1027-.2117-1.4078-.6351s-.3967-1.0008-.2744-1.7335l.2744-1.7738c.1145-.7326.393-1.3119.8357-1.7397.4424-.4272.98-.6407,1.6133-.6407.4653,0,.8298.1186,1.093.3545.2632.2365.3908.5575.3834.9617h.023l.1717-1.202h1.2358l-.9956,6.2943h-1.2247l.1946-1.2014h-.023c-.122.4116-.3511.7339-.6867.9667s-.7401.3489-1.2129.3489ZM368.9324,773.2257c.389,0,.7152-.1186.9782-.3551.2632-.2359.4293-.5718.4979-1.007l.2518-1.6478c.0686-.4272.0096-.7612-.1773-1.0015-.1872-.2403-.475-.3601-.8642-.3601-.3967,0-.7249.118-.9841.3545-.2595.2365-.4234.5724-.492,1.007l-.2518,1.6478c-.0686.4427-.0133.7804.1658,1.0133.1794.2328.4712.3489.8757.3489ZM376.3477,774.1868c-.5721,0-.9937-.1565-1.2644-.4694-.271-.3123-.3607-.7512-.2691-1.3156l.538-3.3874h-1.7394l.1714-1.1219h1.7397l.2747-1.7161h1.2358l-.2747,1.7161h2.472l-.1832,1.1219h-2.4605l-.5377,3.3874c-.0764.4421.099.6637.5262.6637h1.7167l-.1717,1.1213h-1.7738ZM382.5042,774.301c-.7705,0-1.3463-.2229-1.7279-.6693s-.515-1.0356-.4005-1.7682l.2518-1.6478c.0838-.488.2573-.9152.5206-1.2815s.6007-.6507,1.0129-.8524c.4119-.2024.8732-.3036,1.3845-.3036.7705,0,1.3485.2235,1.7338.6693.3852.4464.5169,1.0356.3949,1.7682l-.1717,1.1213h-3.845l-.0916.5265c-.1527.9536.2173,1.4305,1.1098,1.4305.7171,0,1.175-.2477,1.3734-.7438h1.2247c-.1679.5339-.5035.9599-1.007,1.2759-.5038.3166-1.0912.475-1.7626.475ZM381.829,770.2157l-.0456.2862,2.6548-.0118.0459-.2856c.0686-.4656.0133-.822-.1661-1.0704-.1791-.2477-.4861-.3719-.9211-.3719-.4427,0-.7953.126-1.0586.3775-.2632.2521-.4331.6109-.5094,1.076ZM388.9243,774.301c-.6333,0-1.1008-.2117-1.4019-.6351-.3014-.4234-.3949-1.0008-.2803-1.7335l.2744-1.7738c.1145-.7326.393-1.3119.8357-1.7397.4424-.4272.98-.6407,1.6133-.6407.4653,0,.8298.1186,1.093.3545.2632.2365.3908.5575.3834.9617h.023l.2058-1.4652.2977-1.7962h1.2358l-1.3274,8.3537h-1.2247l.1946-1.2014h-.023c-.122.4116-.3511.7339-.6867.9667s-.7401.3489-1.2129.3489ZM389.5309,773.2257c.389,0,.7152-.1186.9782-.3551.2632-.2359.4293-.5718.4979-1.007l.2518-1.6478c.0761-.4272.0189-.7612-.1717-1.0015-.1909-.2403-.4805-.3601-.8698-.3601-.3967,0-.7249.118-.9841.3545-.2595.2365-.4234.5724-.492,1.007l-.2518,1.6478c-.0764.4427-.023.7804.1602,1.0133s.4768.3489.8813.3489ZM401.0175,774.301c-.4731,0-.8394-.1161-1.0986-.3489-.2595-.2328-.3852-.5551-.3775-.9667h-.0115l-.1946,1.2014h-1.2243l1.3274-8.3537h1.2358l-.2862,1.7962-.2744,1.4652h.0456c.122-.4123.353-.7345.6923-.9673.3396-.2322.7419-.3489,1.2076-.3489.633,0,1.1002.2136,1.4016.6407.3014.4278.3949,1.007.2806,1.7397l-.2747,1.7738c-.1145.7326-.3949,1.31-.8413,1.7335-.4461.4234-.9822.6351-1.6077.6351ZM400.7657,773.2257c.3967,0,.7227-.1161.9785-.3489.2555-.2328.4216-.5706.4976-1.0133l.2518-1.6478c.0689-.4346.0115-.7705-.1714-1.007-.1832-.2365-.4734-.3545-.8698-.3545-.3893,0-.7152.1198-.9785.3601s-.429.5743-.4979,1.0015l-.2518,1.6478c-.0686.4352-.0112.7711.1717,1.007.1832.2365.4731.3551.8698.3551ZM405.4694,776.2468l.1717-1.0642h1.934c.6407,0,1.007-.3017,1.0986-.9046l.1028-.6749.2061-1.1902h-.0345c-.122.4197-.3471.7438-.6752.9729-.3281.2285-.7286.3433-1.2014.3433-.6258,0-1.093-.2005-1.4019-.601s-.4104-.9443-.3033-1.631l.5836-3.6047h1.2358l-.5606,3.4793c-.0612.4116,0,.732.1832.9611s.4653.3433.8469.3433c.389,0,.7168-.1217.9841-.3663.267-.244.4309-.5836.492-1.0182l.538-3.3992h1.2358l-1.007,6.4086c-.0993.6029-.37,1.0778-.8124,1.4249-.4427.3471-.9996.5209-1.6707.5209h-1.9455ZM417.787,770.0853h3.221l.5368-1.8545h-5.4659l-1.7081,6.4419h2.1473l.5856-2.0985h3.0257l.4392-1.7081h-3.0257l.244-.7808ZM424.229,772.9158c-.5856,0-1.0249-.3904-1.0249-1.1225,0-.8784.6344-1.7569,1.6105-1.7569.488,0,.8784.244,1.0248.7808l1.9521-.8296c-.2928-1.1713-1.2689-1.9033-2.6353-1.9033-2.7817,0-4.1482,2.1473-4.1482,3.9042s1.2689,2.8305,3.0746,2.8305c1.3665,0,2.3425-.5856,2.9769-1.4153l-1.5129-1.1713c-.3904.4392-.8296.6832-1.3177.6832ZM430.9149,768.2308h-2.1473l-1.7569,6.4419h5.1242l.488-1.8545h-2.9281l1.2201-4.5874ZM439.7481,771.0125c0-1.6593-1.3177-2.9281-3.221-2.9281-2.1961,0-3.8066,1.8057-3.8066,3.8066,0,1.6593,1.3177,2.9281,3.221,2.9281,2.1961,0,3.8066-1.8057,3.8066-3.8066ZM434.9167,771.6957c0-.8296.5856-1.7081,1.5129-1.7081.7808,0,1.1713.5368,1.1713,1.2201,0,.8296-.5856,1.7081-1.5129,1.7081-.7808,0-1.1713-.5368-1.1713-1.2201ZM443.2131,772.2326h1.0737l-.1952.6832c-.1464.0488-.3416.0976-.5856.0976-.6832,0-1.2689-.3904-1.2689-1.2201,0-1.0249.732-1.9033,1.9521-1.9033.5856,0,1.1225.244,1.5129.5856l1.3665-1.3665c-.4392-.5368-1.5129-1.0737-2.7329-1.0737-2.5865,0-4.2946,1.7569-4.2946,3.8554,0,2.0497,1.6105,2.8793,3.221,2.8793.9272,0,1.8545-.2928,2.4889-.6832l.9272-3.3186h-3.1234l-.3416,1.4641ZM450.7775,768.0844c-2.1961,0-3.8066,1.8057-3.8066,3.8066,0,1.6593,1.3177,2.9281,3.221,2.9281,2.1961,0,3.8066-1.8057,3.8066-3.8066,0-1.6593-1.3177-2.9281-3.221-2.9281ZM450.3382,772.9158c-.7808,0-1.1713-.5368-1.1713-1.2201,0-.8296.5856-1.7081,1.5129-1.7081.7808,0,1.1713.5368,1.1713,1.2201,0,.8296-.5856,1.7081-1.5129,1.7081ZM437.9424,767.4987c-.0488.2928.0976.488.4392.488s.5368-.1952.6344-.488c.0488-.244-.0976-.488-.4392-.488s-.5856.244-.6344.488ZM432.1349,765.4978c-.4392,0-.732.244-.7808.5856s.0976.5856.5368.5856.732-.244.7808-.5856c.0976-.3416-.0976-.5856-.5368-.5856ZM433.0134,767.3035c-.0976.5368.1464.8784.8296.8784.6344,0,1.0737-.3904,1.1713-.8784s-.1464-.8784-.8296-.8784c-.6832,0-1.0737.3904-1.1713.8784ZM439.6017,777.552l-2.4401-1.8057h-1.5129l4.2458,3.1722,1.6105-3.1722h-.976l-.9272,1.8057ZM425.8394,767.1571l-2.0009-1.4641,23.1323-2.7817-2.1473,4.2458h1.0248l2.6841-5.3195-26.9877,3.221,2.7817,2.0985h1.5129ZM338.7186,785.7853l.6088-3.8315h2.32l-.084.5194h-1.7636l-.1837,1.1445h1.6272l-.084.5248h-1.6166l-.2573,1.6428h-.5668ZM342.97,785.8377c-.3568,0-.6228-.1005-.7978-.3019-.175-.201-.2345-.473-.1784-.8161l.2677-1.7006c.056-.3429.2029-.6148.4408-.8161.2379-.201.5355-.3019.8923-.3019s.6228.1.7979.2993c.1748.1993.2361.4707.1837.8136l-.2677,1.7057c-.0561.3431-.2039.6151-.4435.8161-.2398.2013-.5381.3019-.895.3019ZM343.0487,785.3339c.1925,0,.3483-.0524.4672-.1575.119-.1051.1942-.2571.2257-.4568l.2678-1.7006c.0315-.1993.0051-.3517-.0787-.4565-.084-.1051-.2223-.1575-.4148-.1575s-.3473.0524-.4645.1575c-.1173.1048-.1916.2571-.2231.4565l-.2677,1.7006c-.0315.1996-.0053.3517.0787.4568s.2204.1575.4094.1575ZM344.9961,785.7853l.6088-3.8315h1.202c.2379,0,.4391.0464.6036.139.1645.0928.2835.223.357.391s.091.3656.0524.5932c-.0384.2591-.14.4838-.3044.6746-.1645.1905-.3656.3209-.6036.391l.5354,1.6428h-.6194l-.4777-1.5748h-.5406l-.2466,1.5748h-.5668ZM345.8883,783.7068h.6352c.1889,0,.349-.0558.4803-.168.1313-.1119.2107-.2623.2388-.4514.0316-.1925,0-.3454-.0944-.4593-.0945-.1136-.2362-.1706-.4252-.1706h-.6352l-.1995,1.2493ZM349.545,785.7853l.6088-3.8315h1.2544c.3709,0,.6508.1048.8399.315.1889.2099.2553.4898.1993.8398-.0384.2344-.1216.4383-.2493.6114s-.2905.307-.4881.4015c-.1978.0945-.419.1418-.6639.1418h-.6928l-.2415,1.5221h-.5668ZM350.432,783.754h.6928c.1924,0,.3568-.0587.4934-.176.1364-.117.2204-.2737.2519-.4696s-.0017-.3525-.0997-.4699-.245-.1757-.441-.1757h-.6876l-.2099,1.2911ZM352.7466,785.7853l.6088-3.8315h2.2518l-.0787.5038h-1.6954l-.1731,1.0867h1.5115l-.0787.4986h-1.5115l-.1942,1.2387h1.6901l-.0787.5038h-2.2518ZM355.8434,785.7853l.6088-3.8315h1.202c.2379,0,.4391.0464.6036.139.1645.0928.2835.223.357.391s.091.3656.0524.5932c-.0384.2591-.14.4838-.3044.6746-.1645.1905-.3656.3209-.6036.391l.5354,1.6428h-.6194l-.4777-1.5748h-.5406l-.2466,1.5748h-.5668ZM356.7356,783.7068h.6352c.1889,0,.349-.0558.4803-.168.1313-.1119.2107-.2623.2388-.4514.0316-.1925,0-.3454-.0944-.4593-.0945-.1136-.2362-.1706-.4252-.1706h-.6352l-.1995,1.2493ZM360.1316,785.8377c-.385,0-.6736-.0951-.8661-.2859-.1924-.1908-.2641-.4505-.2151-.7794h.5668c-.028.1748.0105.3121.1155.4121.1051.0997.266.1495.483.1495.2029,0,.3701-.049.5012-.1469.1313-.098.2109-.2327.2389-.4044.0209-.1504.0007-.2788-.0604-.3856-.0614-.1068-.1583-.1811-.2913-.2233l-.4566-.1364c-.266-.0803-.4619-.217-.5879-.4095-.126-.1922-.1697-.4197-.1313-.6823.035-.2099.1121-.3935.2309-.551s.2729-.2799.4619-.3673.4024-.1313.6404-.1313c.3498,0,.6158.0954.7978.2859.182.1908.2485.4437.1995.7586h-.5668c.0279-.168-.0027-.3001-.092-.3964-.0891-.0963-.2301-.1444-.4225-.1444-.1889,0-.343.0447-.4619.1338-.119.0894-.1889.2144-.21.3753-.0245.1506-.007.2791.0525.3859s.1575.1811.2939.223l.4672.1469c.2624.0806.4558.2173.5801.4095.1242.1925.1653.4217.1233.6877-.035.217-.1155.4058-.2415.5667-.1259.1612-.2878.2862-.4855.3753-.1976.0894-.419.1338-.6639.1338ZM363.2651,785.8377c-.3568,0-.6228-.1005-.7978-.3019-.175-.201-.2345-.473-.1784-.8161l.2677-1.7006c.056-.3429.2029-.6148.4408-.8161.2379-.201.5355-.3019.8923-.3019s.6228.1.7979.2993c.1748.1993.2361.4707.1837.8136l-.2677,1.7057c-.0561.3431-.2039.6151-.4435.8161-.2398.2013-.5381.3019-.895.3019ZM363.3439,785.3339c.1925,0,.3483-.0524.4672-.1575.119-.1051.1942-.2571.2257-.4568l.2678-1.7006c.0315-.1993.0051-.3517-.0787-.4565-.084-.1051-.2223-.1575-.4148-.1575s-.3473.0524-.4645.1575c-.1173.1048-.1916.2571-.2231.4565l-.2677,1.7006c-.0315.1996-.0053.3517.0787.4568s.2204.1575.4094.1575ZM365.2754,785.7853l.6088-3.8315h.7086l.6194,3.186c.007-.098.0165-.217.0289-.3571.0121-.1398.0271-.2851.0446-.4354.0175-.1506.0367-.2888.0577-.4146l.315-1.9788h.525l-.609,3.8315h-.7085l-.6141-3.186c-.0071.0945-.0167.209-.0289.3437s-.0272.2757-.0446.4226c-.0177.1469-.0367.2833-.0578.4095l-.315,2.0102h-.5301ZM368.2252,785.7853l1.5851-3.8315h.7454l.3726,3.8315h-.5616l-.0735-.9711h-1.0865l-.3884.9711h-.5932ZM369.3852,784.3418h.8714l-.0893-1.1023c-.0175-.1959-.0298-.3654-.0367-.5089-.0071-.1435-.0105-.2432-.0105-.2993-.0175.0561-.0517.1558-.1024.2993s-.1146.3112-.1915.5038l-.441,1.1075ZM371.7208,785.7853l.6088-3.8315h.567l-.525,3.3118h1.6744l-.0787.5197h-2.2465ZM376.6785,785.8377c-.3673,0-.6342-.1005-.8003-.3019-.1663-.201-.2214-.475-.1654-.8213l.4357-2.7608h.567l-.4357,2.7554c-.0315.1962-.008.35.0708.4619.0787.1122.2144.168.4068.168.1925,0,.3473-.0558.4646-.168.1172-.1119.1915-.2657.2231-.4619l.4355-2.7554h.567l-.4357,2.7608c-.056.35-.2003.6245-.433.8241-.2328.1993-.5328.299-.9003.299ZM379.8435,785.8377c-.385,0-.6736-.0951-.8661-.2859-.1924-.1908-.2641-.4505-.2151-.7794h.5668c-.028.1748.0105.3121.1155.4121.1051.0997.266.1495.483.1495.2029,0,.3701-.049.5012-.1469.1313-.098.2109-.2327.2389-.4044.0209-.1504.0007-.2788-.0604-.3856-.0614-.1068-.1583-.1811-.2913-.2233l-.4566-.1364c-.266-.0803-.4619-.217-.5879-.4095-.126-.1922-.1697-.4197-.1313-.6823.035-.2099.1121-.3935.2309-.551s.2729-.2799.4619-.3673.4024-.1313.6404-.1313c.3498,0,.6158.0954.7978.2859.182.1908.2485.4437.1995.7586h-.5668c.0279-.168-.0027-.3001-.092-.3964-.0891-.0963-.2301-.1444-.4225-.1444-.1889,0-.343.0447-.4619.1338-.119.0894-.1889.2144-.21.3753-.0245.1506-.007.2791.0525.3859s.1575.1811.2939.223l.4672.1469c.2624.0806.4558.2173.5801.4095.1242.1925.1653.4217.1233.6877-.035.217-.1155.4058-.2415.5667-.1259.1612-.2878.2862-.4855.3753-.1976.0894-.419.1338-.6639.1338ZM381.9062,785.7853l.6088-3.8315h2.2518l-.0787.5038h-1.6954l-.1731,1.0867h1.5115l-.0787.4986h-1.5115l-.1942,1.2387h1.6901l-.0787.5038h-2.2518ZM386.9426,785.8377c-.3568,0-.6228-.1005-.7978-.3019-.175-.201-.2345-.473-.1784-.8161l.2677-1.7006c.056-.3429.2029-.6148.4408-.8161.2379-.201.5355-.3019.8923-.3019s.6228.1.7979.2993c.1748.1993.2361.4707.1837.8136l-.2677,1.7057c-.0561.3431-.2039.6151-.4435.8161-.2398.2013-.5381.3019-.895.3019ZM387.0213,785.3339c.1925,0,.3483-.0524.4672-.1575.119-.1051.1942-.2571.2257-.4568l.2678-1.7006c.0315-.1993.0051-.3517-.0787-.4565-.084-.1051-.2223-.1575-.4148-.1575s-.3473.0524-.4645.1575c-.1173.1048-.1916.2571-.2231.4565l-.2677,1.7006c-.0315.1996-.0053.3517.0787.4568s.2204.1575.4094.1575ZM388.9529,785.7853l.6088-3.8315h.7086l.6194,3.186c.007-.098.0165-.217.0289-.3571.0121-.1398.0271-.2851.0446-.4354.0175-.1506.0367-.2888.0577-.4146l.315-1.9788h.525l-.609,3.8315h-.7085l-.6141-3.186c-.0071.0945-.0167.209-.0289.3437s-.0272.2757-.0446.4226c-.0177.1469-.0367.2833-.0578.4095l-.315,2.0102h-.5301ZM392.249,785.7853l.6088-3.8315h.567l-.525,3.3118h1.6744l-.0787.5197h-2.2465ZM396.1174,785.7853l.2204-1.4119-.7506-2.4197h.5774l.4462,1.4486c.0279.0945.0498.1837.0656.2677.0157.084.0253.1469.0288.1888.0175-.0419.0464-.1048.0867-.1888.0402-.084.0883-.1731.1442-.2677l.8976-1.4486h.5984l-1.5275,2.4197-.2204,1.4119h-.5668ZM399.217,785.7853l.6088-3.8315h.7086l.6192,3.186c.0071-.098.0165-.217.029-.3571.012-.1398.0271-.2851.0444-.4354.0177-.1506.037-.2888.0578-.4146l.315-1.9788h.5248l-.6088,3.8315h-.7085l-.6141-3.186c-.0071.0945-.0167.209-.0289.3437s-.0272.2757-.0446.4226c-.0177.1469-.0367.2833-.0578.4095l-.315,2.0102h-.5301ZM403.5053,785.8377c-.3571,0-.6231-.1005-.7979-.3019-.1751-.201-.2344-.473-.1785-.8161l.2677-1.7006c.0561-.3429.203-.6148.4411-.8161.2378-.201.5354-.3019.8922-.3019.3571,0,.6228.1.7979.2993.1748.1993.2361.4707.1837.8136l-.2677,1.7057c-.0561.3431-.2039.6151-.4437.8161-.2395.2013-.5379.3019-.8947.3019ZM403.5839,785.3339c.1925,0,.3483-.0524.4673-.1575.1187-.1051.1942-.2571.2255-.4568l.2677-1.7006c.0316-.1993.0054-.3517-.0786-.4565-.084-.1051-.2224-.1575-.4146-.1575-.1925,0-.3474.0524-.4647.1575-.117.1048-.1914.2571-.223.4565l-.2677,1.7006c-.0316.1996-.0051.3517.0789.4568.0837.1051.2204.1575.4092.1575ZM406.3814,785.7853l.5248-3.3121h-1.0234l.084-.5194h2.6193l-.084.5194h-1.0289l-.5248,3.3121h-.567ZM409.5178,785.7853l.6088-3.8315h2.32l-.084.5194h-1.7636l-.1837,1.1445h1.6272l-.084.5248h-1.6166l-.2571,1.6428h-.567ZM413.7694,785.8377c-.3571,0-.6231-.1005-.7979-.3019-.1751-.201-.2344-.473-.1785-.8161l.2677-1.7006c.0561-.3429.203-.6148.4411-.8161.2378-.201.5354-.3019.8922-.3019.3571,0,.6228.1.7979.2993.1748.1993.2361.4707.1837.8136l-.2677,1.7057c-.0561.3431-.2039.6151-.4437.8161-.2395.2013-.5379.3019-.8947.3019ZM413.848,785.3339c.1925,0,.3483-.0524.4673-.1575.1187-.1051.1942-.2571.2255-.4568l.2677-1.7006c.0316-.1993.0054-.3517-.0786-.4565-.084-.1051-.2224-.1575-.4146-.1575-.1925,0-.3474.0524-.4647.1575-.117.1048-.1914.2571-.223.4565l-.2677,1.7006c-.0316.1996-.0051.3517.0789.4568.0837.1051.2204.1575.4092.1575ZM415.7952,785.7853l.6088-3.8315h1.202c.2381,0,.4391.0464.6037.139.1643.0928.2833.223.3568.391s.0911.3656.0527.5932c-.0387.2591-.1401.4838-.3044.6746-.1646.1905-.3659.3209-.6037.391l.5354,1.6428h-.6194l-.4776-1.5748h-.5408l-.2466,1.5748h-.567ZM416.6876,783.7068h.635c.1891,0,.3491-.0558.4804-.168.131-.1119.2107-.2623.2386-.4514.0316-.1925,0-.3454-.0945-.4593-.0943-.1136-.2361-.1706-.4252-.1706h-.635l-.1993,1.2493ZM420.905,785.8377c-.3602,0-.6308-.1005-.8107-.3019-.1803-.201-.2423-.473-.1865-.8161l.2677-1.7006c.0561-.3463.2056-.6194.4488-.8187s.545-.2993.9056-.2993c.3568,0,.6253.1008.8056.3019.1803.2013.2423.4733.1865.8161h-.567c.0313-.1993.0026-.3517-.0866-.4565-.0894-.1051-.2284-.1575-.4175-.1575-.1925,0-.3508.0524-.475.1575-.1242.1048-.2019.2554-.2335.4514l-.2677,1.7057c-.0316.1996-.0026.3517.0866.4568.0894.1051.2301.1575.4226.1575s.35-.0524.4724-.1575.1993-.2571.2309-.4568h.5667c-.0347.2275-.1145.4252-.2386.5932s-.2808.2976-.4699.3884c-.1888.0908-.4024.1364-.6404.1364ZM424.0335,785.8377c-.3571,0-.6231-.1005-.7979-.3019-.1751-.201-.2344-.473-.1785-.8161l.2677-1.7006c.0561-.3429.203-.6148.4411-.8161.2378-.201.5354-.3019.8922-.3019.3571,0,.6228.1.7979.2993.1748.1993.2361.4707.1837.8136l-.2677,1.7057c-.0561.3431-.2039.6151-.4437.8161-.2395.2013-.5379.3019-.8947.3019ZM424.1121,785.3339c.1925,0,.3483-.0524.4673-.1575.1187-.1051.1942-.2571.2255-.4568l.2677-1.7006c.0316-.1993.0054-.3517-.0786-.4565-.084-.1051-.2224-.1575-.4146-.1575-.1925,0-.3474.0524-.4647.1575-.117.1048-.1914.2571-.223.4565l-.2677,1.7006c-.0316.1996-.0051.3517.0789.4568.0837.1051.2204.1575.4092.1575ZM425.9653,785.7853l.6088-3.8315h.6874l.1837,1.2282c.0211.119.0367.2301.0473.3332.0105.1034.0194.1828.0262.2389.0177-.0561.0473-.1364.0894-.2415.0419-.1051.0908-.217.1469-.336l.5667-1.2228h.7088l-.6088,3.8315h-.5354l.2045-1.2911c.0245-.168.0578-.3525.1-.5539.0419-.201.0874-.4041.1364-.6088s.0963-.3998.1418-.5852c.0453-.1854.0874-.3483.1259-.4881l-.8554,1.8632h-.5513l-.2833-1.8632c-.0037.1364-.0105.2947-.0211.475s-.0236.3719-.0393.5747c-.0157.203-.035.4069-.0578.6114-.0228.2047-.0481.3964-.076.5749l-.2047,1.2911h-.5405ZM429.1145,785.7853l.6088-3.8315h.6874l.1837,1.2282c.0211.119.0367.2301.0473.3332.0105.1034.0194.1828.0262.2389.0177-.0561.0473-.1364.0894-.2415.0419-.1051.0908-.217.1469-.336l.5667-1.2228h.7088l-.6088,3.8315h-.5354l.2045-1.2911c.0245-.168.0578-.3525.1-.5539.0419-.201.0874-.4041.1364-.6088s.0963-.3998.1418-.5852c.0453-.1854.0874-.3483.1259-.4881l-.8554,1.8632h-.5513l-.2833-1.8632c-.0037.1364-.0105.2947-.0211.475s-.0236.3719-.0393.5747c-.0157.203-.035.4069-.0578.6114-.0228.2047-.0481.3964-.076.5749l-.2047,1.2911h-.5405ZM432.4107,785.7853l.6088-3.8315h2.2516l-.0786.5038h-1.6955l-.1731,1.0867h1.5115l-.0786.4986h-1.5118l-.1942,1.2387h1.6901l-.0786.5038h-2.2516ZM435.5073,785.7853l.6088-3.8315h1.202c.2381,0,.4391.0464.6037.139.1643.0928.2833.223.3568.391s.0911.3656.0527.5932c-.0387.2591-.1401.4838-.3044.6746-.1646.1905-.3659.3209-.6037.391l.5354,1.6428h-.6194l-.4776-1.5748h-.5408l-.2466,1.5748h-.567ZM436.3997,783.7068h.635c.1891,0,.3491-.0558.4804-.168.131-.1119.2107-.2623.2386-.4514.0316-.1925,0-.3454-.0945-.4593-.0943-.1136-.2361-.1706-.4252-.1706h-.635l-.1993,1.2493ZM439.8007,785.8377c-.3602,0-.6308-.1005-.8107-.3019-.1803-.201-.2423-.473-.1865-.8161l.2677-1.7006c.0561-.3463.2056-.6194.4488-.8187s.545-.2993.9056-.2993c.3568,0,.6253.1008.8056.3019.1803.2013.2423.4733.1865.8161h-.567c.0313-.1993.0026-.3517-.0866-.4565-.0894-.1051-.2284-.1575-.4175-.1575-.1925,0-.3508.0524-.475.1575-.1242.1048-.2019.2554-.2335.4514l-.2677,1.7057c-.0316.1996-.0026.3517.0866.4568.0894.1051.2301.1575.4226.1575s.35-.0524.4724-.1575.1993-.2571.2309-.4568h.5667c-.0347.2275-.1145.4252-.2386.5932s-.2808.2976-.4699.3884c-.1888.0908-.4024.1364-.6404.1364ZM441.8792,785.7853l.0789-.5038h.7768l.4459-2.824h-.7766l.0837-.5038h2.1258l-.084.5038h-.7766l-.4462,2.824h.7768l-.0789.5038h-2.1258ZM444.7399,785.7853l1.585-3.8315h.7452l.3728,3.8315h-.5616l-.0735-.9711h-1.0867l-.3884.9711h-.5929ZM445.8998,784.3418h.8714l-.0894-1.1023c-.0174-.1959-.0296-.3654-.0367-.5089-.0068-.1435-.0103-.2432-.0103-.2993-.0177.0561-.0518.1558-.1025.2993s-.1148.3112-.1916.5038l-.4408,1.1075ZM448.2354,785.7853l.6088-3.8315h.567l-.5248,3.3118h1.6741l-.0786.5197h-2.2465ZM453.1932,785.8377c-.3676,0-.6345-.1005-.8005-.3019-.1663-.201-.2213-.475-.1654-.8213l.4357-2.7608h.567l-.4357,2.7554c-.0316.1962-.008.35.0709.4619.0786.1122.2141.168.4066.168s.3474-.0558.4645-.168c.1173-.1119.1916-.2657.2233-.4619l.4357-2.7554h.5667l-.4357,2.7608c-.0558.35-.2002.6245-.4328.8241-.2329.1993-.5328.299-.9001.299ZM456.3581,785.8377c-.385,0-.6738-.0951-.866-.2859-.1925-.1908-.2643-.4505-.2153-.7794h.567c-.0282.1748.0105.3121.1153.4121.1051.0997.266.1495.483.1495.2028,0,.3699-.049.5012-.1469s.2107-.2327.2389-.4044c.0211-.1504.0009-.2788-.0604-.3856s-.1583-.1811-.2913-.2233l-.4568-.1364c-.266-.0803-.4619-.217-.5878-.4095-.1259-.1922-.1697-.4197-.1313-.6823.035-.2099.1119-.3935.2309-.551s.2731-.2799.4619-.3673c.1891-.0874.4024-.1313.6404-.1313.3497,0,.6157.0954.7979.2859.1817.1908.2483.4437.1993.7586h-.567c.0279-.168-.0026-.3001-.0917-.3964-.0894-.0963-.2301-.1444-.4226-.1444-.1891,0-.3429.0447-.4619.1338-.119.0894-.1891.2144-.2099.3753-.0245.1506-.0071.2791.0524.3859s.1575.1811.2939.223l.4673.1469c.2623.0806.4556.2173.5798.4095.1242.1925.1654.4217.1236.6877-.035.217-.1156.4058-.2415.5667-.1262.1612-.2879.2862-.4855.3753-.1979.0894-.4192.1338-.6641.1338ZM458.4209,785.7853l.6088-3.8315h2.2516l-.0786.5038h-1.6955l-.1731,1.0867h1.5115l-.0786.4986h-1.5118l-.1942,1.2387h1.6901l-.0786.5038h-2.2516Z" style="fill: #ccc;"/>
  <g>
    <g>
      <path d="M399.9999,222.1921c-150.9423,0-273.3156,114.0135-273.3156,254.6561s122.3733,254.6563,273.3156,254.6563,273.3159-114.0135,273.3159-254.6563-122.3733-254.6561-273.3159-254.6561" style="fill: #fff; fill-rule: evenodd;"/>
      <polygon points="387.1685 671.24 387.1685 312.1284 274.031 312.1284 274.031 286.8743 525.5601 286.8743 525.5601 312.1284 412.4226 312.1284 412.4226 671.24 387.1685 671.24" style="fill: #db0000; fill-rule: evenodd;"/>
      <path d="M388.6839,312.1284v357.5963h22.2234v-359.1116h113.1376v-22.2235h-248.4985v22.2235h113.1376v1.5153ZM385.6532,671.24v-357.5962h-113.1376v-28.2848h254.5598v28.2848h-113.1376v359.1116h-28.2847v-1.5153Z" style="fill: #b90000;"/>
      <path d="M477.5767,338.3941c25.5571,0,51.013,25.4569,51.013,59.0945v184.8578c0,33.6376-25.4559,59.0945-51.013,59.0945h-28.427v-.0456c-7.5228-.5928-13.4946-6.9335-13.4946-14.6018v-273.752c0-7.6683,5.9717-14.0091,13.4946-14.6018v-.0456h28.427ZM461.426,364.165v251.5048h16.1507c15.3535,0,25.2421-19.7603,25.2421-33.3235v-184.8578c0-13.5633-9.8886-33.3236-25.2421-33.3236h-16.1507Z" style="fill: #db0000; fill-rule: evenodd;"/>
      <path d="M512.4264,357.3361c-9.3663-10.8501-22.1074-17.4266-34.8497-17.4266h-27.8068l-.5021.0395c-3.3879.2669-6.4241,1.8309-8.606,4.1906l.0031.0029c-2.1662,2.344-3.4945,5.4737-3.4945,8.899v273.752c0,3.4252,1.3284,6.555,3.4945,8.899l-.0031.0028c2.1819,2.3598,5.2181,3.9239,8.606,4.1906l.5021.0396h27.8068c12.7423,0,25.4834-6.5765,34.8497-17.4266,8.83-10.2291,14.648-24.2499,14.648-40.1525v-184.8578c0-15.9027-5.818-29.9235-14.648-40.1525M477.5767,336.8788c13.6265,0,27.2015,6.9742,37.1342,18.4804,9.2798,10.7499,15.3942,25.4636,15.3942,42.1294v184.8578c0,16.6658-6.1144,31.3795-15.3942,42.1294-9.9327,11.5062-23.5077,18.4803-37.1342,18.4803h-29.9424v-.2235c-3.5982-.6051-6.8047-2.4131-9.1888-4.9922h-.006c-2.6655-2.884-4.2997-6.7342-4.2997-10.9469v-273.752c0-4.2126,1.6342-8.0629,4.2997-10.947h.006c2.3841-2.579,5.5906-4.387,9.1888-4.9921v-.2236h29.9424ZM459.9108,615.6698v-253.0202h17.6659c7.4732,0,13.699,4.2855,18.2638,10.3119,5.4102,7.1419,8.4935,16.7992,8.4935,24.527v184.8578c0,7.7278-3.0833,17.385-8.4935,24.527-4.5649,6.0264-10.7906,10.3118-18.2638,10.3118h-17.6659v-1.5153ZM462.9413,365.6804v248.4741h14.6353c6.401,0,11.8185-3.7831,15.8489-9.1039,5.0178-6.6243,7.8779-15.5625,7.8779-22.7042v-184.8578c0-7.1417-2.8601-16.0799-7.8779-22.7042-4.0303-5.3208-9.4479-9.104-15.8489-9.104h-14.6353Z" style="fill: #b90000;"/>
      <path d="M340.3653,363.92c-7.0735-8.3896-15.0906-11.9955-21.9906-11.8082-2.9697.0804-5.7297.8986-8.0485,2.3552-2.2512,1.4139-4.1191,3.4739-5.3816,6.0854-2.9381,6.0773-2.7835,15.1439,2.5228,26.5855l.2897.6285,53.6803,145.5562c13.1558,33.2683,25.7311,78.6818,1.3764,102.1208-7.0008,7.4659-15.6467,12.7191-25.2733,14.9414-9.741,2.2483-20.2633,1.3572-30.8506-3.5149-14.1757-6.5237-28.4288-20.3922-40.6027-43.842l21.9454-11.3111c9.3772,18.0628,19.4573,28.332,29.0017,32.7244,5.3088,2.4429,10.4101,2.9302,14.9958,1.8718,4.7007-1.0852,9.0878-3.8267,12.8024-7.7879,13.8055-15.8835,2.7483-52.9733-6.4035-76.115l-53.6802-145.5562.002-.0009c-8.4554-18.618-7.9002-34.9132-2.0413-47.0316,3.3361-6.9009,8.3601-12.3996,14.4689-16.2363,6.0407-3.7943,13.1111-5.9212,20.6162-6.1251,13.8358-.376,29.0868,5.878,41.4225,20.509l-18.8518,15.9511Z" style="fill: #db0000;"/>
      <path d="M330.4825,353.7101c3.4072,1.8294,6.8153,4.4993,10.0444,8.0924l16.5484-14.002c-5.5168-6.2623-11.5821-10.8564-17.806-13.9377-7.1317-3.5309-14.4749-5.0826-21.4391-4.8936-3.5994.0977-7.1011.6571-10.4327,1.6467-3.3399.9922-6.5026,2.4187-9.4142,4.2476-2.9645,1.8618-5.6667,4.1357-8.0307,6.7887-2.3126,2.5951-4.2972,5.5476-5.8818,8.8259-2.9561,6.1146-4.5142,13.3407-4.1634,21.4234.3229,7.4417,2.2653,15.6166,6.2225,24.33l.6366,1.4019-.1014.0435,53.1717,144.177.0009-.0003c5.3629,13.5613,11.3773,31.8933,12.7369,48.0548.9981,11.8644-.5166,22.6062-6.5997,29.6051l-.0412.0473c-1.9681,2.0989-4.1226,3.8751-6.4127,5.2681-2.267,1.3791-4.6674,2.3842-7.1534,2.9579-2.5161.5804-5.1691.729-7.9126.3866-2.6094-.3256-5.3077-1.0955-8.054-2.3592-5.1405-2.3655-10.4163-6.3599-15.6421-12.2563-4.5265-5.1078-9.023-11.6517-13.3663-19.811l-19.2592,9.9267c5.5852,10.5208,11.5863,19.0247,17.7962,25.73,6.9616,7.5171,14.1915,12.7792,21.3936,16.0933,5.0261,2.3129,10.0321,3.7013,14.9354,4.2599,5.119.5833,10.1315.2649,14.9446-.8458,4.6064-1.0632,8.9854-2.8468,13.0564-5.2538,4.1678-2.464,8.014-5.5817,11.4533-9.2495l.0532-.0532c11.787-11.3439,14.6265-28.1253,12.9226-46.1435-1.7264-18.2567-8.1203-37.7945-14.6599-54.332l-.012-.0355-53.6627-145.509-.2597-.5632c-2.6055-5.6184-4.0066-10.7065-4.4314-15.1857-.4757-5.0122.27-9.2762,1.9205-12.6902.6832-1.4134,1.5333-2.685,2.52-3.8006,1.012-1.1442,2.1622-2.1178,3.4179-2.9064,1.2797-.8038,2.6836-1.432,4.1783-1.8692,1.4681-.4293,3.026-.6733,4.6397-.7168,3.8459-.1042,7.9987.8823,12.1432,3.1077M339.2111,364.8967c-3.264-3.8713-6.7231-6.6769-10.161-8.523-3.6672-1.9692-7.3037-2.8429-10.6399-2.7527-1.3453.0364-2.6447.24-3.87.5982-1.2172.3562-2.3632.8691-3.4092,1.5261-1.0203.6408-1.9514,1.4281-2.7666,2.3498-.7992.9037-1.4936,1.9454-2.0586,3.1139-1.4202,2.9379-2.0568,6.6613-1.6365,11.0924.3932,4.1446,1.7112,8.899,4.171,14.2029l.2897.6285.0476.1125,53.6674,145.521.0008-.0002c6.616,16.7307,13.0882,36.5349,14.8495,55.1606,1.7816,18.8449-1.2608,36.4719-13.7932,48.5656-3.6311,3.8702-7.6958,7.1623-12.1037,9.7686-4.333,2.562-9.0012,4.4618-13.9206,5.5975-5.1408,1.1865-10.4914,1.5267-15.9508.9048-5.2218-.595-10.5415-2.0683-15.8707-4.5204-7.5354-3.4677-15.0863-8.9586-22.3402-16.7915-6.6595-7.1907-13.0653-16.3522-18.9726-27.7312l-.6964-1.3415,1.3475-.6944,21.9454-11.3112,1.3393-.6906.6967,1.3418c4.444,8.5606,9.0367,15.3346,13.6437,20.5332,4.9283,5.5605,9.866,9.3102,14.6479,11.5107,2.4457,1.1253,4.8418,1.81,7.1543,2.0986,2.3975.2992,4.7009.1729,6.8708-.3276,2.1648-.4996,4.2634-1.3802,6.2538-2.5907,2.0525-1.2485,3.9924-2.8495,5.7744-4.7476,5.4408-6.2913,6.7687-16.2445,5.8349-27.3438-1.329-15.8002-7.2516-33.8303-12.5352-47.1906l-.012-.0355-53.674-145.539c-4.0945-9.0404-6.1077-17.5649-6.4459-25.3603-.3734-8.6072,1.2951-16.3219,4.4595-22.8671,1.7134-3.5446,3.8536-6.7308,6.3434-9.5247,2.5478-2.8591,5.4694-5.3157,8.6819-7.3332,3.148-1.9775,6.5656-3.5192,10.1718-4.5907,3.5693-1.0604,7.3332-1.66,11.2138-1.7654,7.438-.2018,15.2652,1.4475,22.8479,5.2017,6.9584,3.445,13.7109,8.6605,19.7642,15.84l.9745,1.1563-1.152.9747-18.8517,15.951-1.1565.9784-.9744-1.1559Z" style="fill: #b90000;"/>
      <g>
        <path d="M137.3073,386.0145l272.2146,40.55,269.1997,39.9816c1.1393,34.4554-3.9839,69.2654-16.368,104.4172L123.2504,490.9472c-2.2135-37.0131,2.9104-71.9404,14.0569-104.9327" style="fill: #07078e; fill-rule: evenodd;"/>
        <polygon points="673.3335 477.3071 460.6776 488.0826 661.5989 560.0327 657.5609 570.2515 599.2252 563.0436 398.5246 491.2321 189.1464 502.6512 127.1306 491.523 127.169 480.9869 339.8253 470.2116 138.9037 398.2615 142.3853 386.771 198.2072 393.8976 401.9779 467.0621 614.2728 456.2962 673.0589 465.7048 673.3335 477.3071" style="fill: #fff;"/>
      </g>
      <path d="M399.9999,222.1921c-150.9423,0-273.3156,114.0135-273.3156,254.6561s122.3733,254.6563,273.3156,254.6563,273.3159-114.0135,273.3159-254.6563-122.3733-254.6561-273.3159-254.6561M399.9999,205.7171c-160.7075,0-290.9979,121.3897-290.9979,271.1312s130.2904,271.1313,290.9979,271.1313,290.9982-121.3897,290.9982-271.1313-130.2904-271.1312-290.9982-271.1312Z" style="fill: #dbba00; fill-rule: evenodd;"/>
      <path d="M205.364,295.3045c49.822-46.4205,118.6382-75.1328,194.6358-75.1328s144.8141,28.7123,194.6361,75.1328c49.8602,46.4558,80.7002,110.6412,80.7002,181.5437s-30.8401,135.0878-80.7002,181.5439c-49.822,46.4205-118.6385,75.1328-194.6361,75.1328s-144.8138-28.712-194.6358-75.1331c-49.8601-46.4558-80.7002-110.641-80.7002-181.5436s30.8401-135.0879,80.7002-181.5437M399.9999,224.2125c-74.9462,0-142.7893,28.296-191.8892,74.0437-49.0604,45.7107-79.406,108.8535-79.406,178.592s30.3456,132.8812,79.406,178.5919c49.0997,45.748,116.9433,74.0439,191.8892,74.0439s142.7896-28.2959,191.8895-74.0436c49.0601-45.711,79.406-108.8535,79.406-178.5922s-30.3456-132.8813-79.406-178.592c-49.0999-45.7477-116.9433-74.0437-191.8895-74.0437ZM192.8608,283.6553c53.022-49.4022,126.2587-79.9586,207.139-79.9586s154.1173,30.5563,207.1393,79.9586c53.06,49.4373,85.8793,117.7411,85.8793,193.193s-32.8193,143.7559-85.8793,193.1932c-53.022,49.4022-126.259,79.9586-207.1393,79.9586s-154.117-30.5565-207.139-79.9586c-53.06-49.4373-85.8793-117.7415-85.8793-193.1932s32.8193-143.7557,85.8793-193.193ZM399.9999,207.7375c-79.8286,0-152.0926,30.14-204.3924,78.8694-52.2603,48.6922-84.5851,115.9534-84.5851,190.2413s32.3248,141.5493,84.5851,190.2415c52.2996,48.7292,124.5636,78.8694,204.3924,78.8694s152.0929-30.14,204.3927-78.8694c52.2603-48.6922,84.5851-115.9535,84.5851-190.2415s-32.3248-141.5492-84.5851-190.2413c-52.2998-48.7295-124.564-78.8694-204.3927-78.8694Z" style="fill: #141515;"/>
    </g>
    <g>
      <path d="M593.0126,270.3056c-28.4013-22.2545-60.2364-39.2697-94.136-50.4832-31.3272-10.3625-64.417-15.7706-98.1924-15.7706-37.2548,0-73.6762,6.5764-107.817,19.128-30.144,11.0818-58.5098,26.8215-84.1003,46.8049-1.5992-17.1898-9.0293-32.6896-19.4926-45.1169-2.6898-3.1953-5.5816-6.1856-8.6252-8.9511,18.1571-17.3123,60.7298-38.7669,79.3787-46.2012,38.9608-15.5325,87.9989-27.8735,139.4259-27.8735,47.8378,0,87.6827,8.4125,122.2725,20.41,21.2106,7.3568,42.7614,17.3567,63.1482,28.9585,13.0662,7.4361,26.023,15.2739,36.7404,24.4483-.7983.7196-1.5877,1.4523-2.3652,2.2023-13.9392,13.4542-24.3123,31.7575-26.2371,52.4447" style="fill: #dbba00; fill-rule: evenodd;"/>
      <polygon points="400.8566 188.8651 373.9921 176.9954 400.8566 164.979 427.7208 176.9954 400.8566 188.8651" style="fill: green; fill-rule: evenodd;"/>
      <path d="M378.0826,176.9845l22.774,10.0624,22.7738-10.0624-22.7738-10.1873-22.774,10.1873ZM400.1862,190.3873l-26.8644-11.8697-3.4198-1.5108,3.4134-1.5274,26.8645-12.0164.6766-.3024.6764.3024,26.8644,12.0164,3.4135,1.5274-3.4198,1.5108-26.8645,11.8697-.67.2961-.6703-.2961Z" style="fill: #141515;"/>
      <polygon points="298.3544 205.3477 269.1133 202.6016 290.7861 182.6922 320.0736 185.5774 298.3544 205.3477" style="fill: green; fill-rule: evenodd;"/>
      <path d="M272.9879,201.2986l24.7875,2.3279,18.416-16.7632-24.8268-2.4456-18.3767,16.8809ZM298.2049,206.9999l-29.2414-2.746-3.7253-.3499,2.7491-2.5258,21.6728-19.909.5472-.5022.741.0728,29.2875,2.885,3.7202.3668-2.7638,2.5152-21.7192,19.7701-.5394.4916-.7288-.0685Z" style="fill: #141515;"/>
      <path d="M348.9156,190.0705c7.5606-1.408,12.9092-6.7389,11.9468-11.9068-.9624-5.1679-7.8716-8.2157-15.4319-6.8078-7.5606,1.408-12.9092,6.7385-11.9468,11.9067.9624,5.168,7.8716,8.2157,15.432,6.8079" style="fill: #db0000; fill-rule: evenodd;"/>
      <path d="M359.2563,186.7044c-2.385,2.377-5.9212,4.2316-10.0418,4.9987l-.1753.0326h-.0049c-4.0523.7204-7.9455.2574-10.9796-1.0809-3.287-1.4503-5.6149-3.9295-6.2042-7.093-.5876-3.1558.6936-6.3029,3.2392-8.84,2.3849-2.377,5.9212-4.2318,10.0418-4.9989l.1755-.0327h.0047c4.0523-.7204,7.9455-.2574,10.9795,1.0809,3.2868,1.4501,5.6149,3.9295,6.2043,7.0934.5875,3.1558-.6936,6.3026-3.2392,8.84M348.6301,188.4348c3.4338-.6415,6.3482-2.1565,8.2839-4.0853,1.7773-1.7719,2.6904-3.8742,2.3157-5.8869-.3732-2.0039-1.9815-3.6334-4.2789-4.6471-2.5055-1.105-5.7775-1.468-9.2208-.8269l-.0152.0031c-3.4332.6416-6.3471,2.1559-8.2828,4.085-1.7774,1.7716-2.6905,3.8742-2.3157,5.8866.3732,2.004,1.9815,3.6333,4.2788,4.6471,2.5056,1.1053,5.7776,1.4683,9.2209.827l.014-.0026Z" style="fill: #141515;"/>
      <path d="M250.0385,223.5709c6.8302-3.4576,10.4-10.0627,7.9741-14.7539-2.4262-4.6912-9.9295-5.6911-16.7594-2.2337-6.8299,3.4572-10.4,10.0627-7.9738,14.7538,2.4259,4.6912,9.9292,5.6911,16.7591,2.2338" style="fill: #db0000; fill-rule: evenodd;"/>
      <path d="M250.9531,224.9726l-.1592.0813h-.0066c-3.7185,1.8821-7.648,2.5476-10.9944,2.1015-3.5665-.4753-6.5124-2.1991-7.9904-5.0574l-.0064-.0064-.0266-.0521v-.0069c-1.4371-2.84-1.1259-6.1764.5441-9.2894,1.5665-2.9193,4.3622-5.664,8.0187-7.5552l.0063-.0064.1592-.0813h.0069c3.7182-1.8821,7.6477-2.5476,10.9946-2.1014,3.5664.4752,6.5123,2.1991,7.99,5.0573l.0064.0064.0266.0522v.0068c1.4375,2.84,1.1259,6.1764-.5438,9.2895-1.5665,2.9192-4.3624,5.6638-8.019,7.5552l-.0063.0064ZM249.2843,222.0874l.1592-.0813.0014.0022c3.0389-1.5734,5.3397-3.8135,6.6053-6.1716,1.162-2.1656,1.4215-4.4037.508-6.2137l-.0025.0012-.0267-.0522.0023-.0014c-.9489-1.8278-2.9668-2.9477-5.462-3.2804-2.7168-.3619-5.9532.2004-9.0631,1.7736l.0012.0028-.1592.0813-.0012-.0025c-3.0393,1.5737-5.34,3.8137-6.6056,6.1719-1.162,2.1656-1.4214,4.4037-.508,6.2136l.0026-.0011.0266.0521-.0022.0014c.9489,1.8278,2.9667,2.9476,5.462,3.2804,2.7168.362,5.9531-.2007,9.0633-1.7739l-.0014-.0025Z" style="fill: #141515;"/>
      <path d="M194.0062,231.657l28.2023-3.3494-16.9217,25.2056c-2.0935-7.8409-5.6607-15.1905-11.2805-21.8562" style="fill: green; fill-rule: evenodd;"/>
      <polygon points="193.2583 230.1505 222.4309 226.2699 226.1308 225.7781 224.0185 228.8528 207.3891 253.0614 206.5195 254.411 204.6436 251.1876 219.161 230.0537 194.901 233.2805 194.4956 233.2401 193.2583 230.1505" style="fill: #141515;"/>
      <polygon points="503.7694 205.3477 533.0105 202.6016 511.3377 182.6922 482.0503 185.5774 503.7694 205.3477" style="fill: green; fill-rule: evenodd;"/>
      <path d="M529.1357,201.2986l-24.7873,2.3279-18.4159-16.7632,24.8268-2.4456,18.3764,16.8809ZM503.9188,206.9999l29.2414-2.746,3.7254-.3499-2.7494-2.5258-21.6728-19.909-.5469-.5022-.7411.0728-29.2878,2.885-3.7199.3668,2.7638,2.5152,21.7189,19.7701.5397.4916.7287-.0685Z" style="fill: #141515;"/>
      <path d="M453.208,190.0705c-7.5603-1.408-12.9089-6.7389-11.9465-11.9068.9624-5.1679,7.8713-8.2157,15.4319-6.8078,7.5604,1.408,12.9093,6.7385,11.9466,11.9067-.9625,5.168-7.8714,8.2157-15.432,6.8079" style="fill: #db0000; fill-rule: evenodd;"/>
      <path d="M442.8673,186.7044c2.3849,2.377,5.9215,4.2316,10.0418,4.9987l.1753.0326h.0051c4.0523.7204,7.9452.2574,10.9792-1.0809,3.2873-1.4503,5.6153-3.9295,6.2043-7.093.5875-3.1558-.6933-6.3029-3.2389-8.84-2.385-2.377-5.9215-4.2318-10.0418-4.9989l-.1756-.0327h-.0048c-4.0523-.7204-7.9452-.2574-10.9793,1.0809-3.2866,1.4501-5.6149,3.9295-6.2042,7.0934-.5876,3.1558.6935,6.3026,3.2389,8.84M453.4937,188.4348c-3.4338-.6415-6.3485-2.1565-8.2839-4.0853-1.7777-1.7719-2.6906-3.8742-2.3157-5.8869.3729-2.0039,1.9815-3.6334,4.2788-4.6471,2.5055-1.105,5.7776-1.468,9.2206-.8269l.0154.0031c3.4332.6416,6.347,2.1559,8.2828,4.085,1.7773,1.7716,2.6902,3.8742,2.3156,5.8866-.3731,2.004-1.9817,3.6333-4.2791,4.6471-2.5055,1.1053-5.7772,1.4683-9.2205.827l-.014-.0026Z" style="fill: #141515;"/>
      <path d="M552.085,223.5709c-6.8299-3.4576-10.4001-10.0627-7.9739-14.7539,2.4262-4.6912,9.9293-5.6911,16.7594-2.2337,6.8299,3.4572,10.4001,10.0627,7.9739,14.7538s-9.9292,5.6911-16.7594,2.2338" style="fill: #db0000; fill-rule: evenodd;"/>
      <path d="M551.1707,224.9726l.1592.0813h.0066c3.7185,1.8821,7.648,2.5476,10.9944,2.1015,3.5665-.4753,6.5123-2.1991,7.9901-5.0574l.0066-.0064.0267-.0521v-.0069c1.4371-2.84,1.1256-6.1764-.5441-9.2894-1.5666-2.9193-4.3622-5.664-8.019-7.5552l-.0064-.0064-.1592-.0813h-.0066c-3.7182-1.8821-7.6479-2.5476-10.9945-2.1014-3.5664.4752-6.5123,2.1991-7.9901,5.0573l-.0063.0064-.0269.0522v.0068c-1.4372,2.84-1.1256,6.1764.544,9.2895,1.5667,2.9192,4.3622,5.6638,8.019,7.5552l.0064.0064ZM552.8395,222.0874l-.1592-.0813-.0014.0022c-3.0393-1.5734-5.3398-3.8135-6.6057-6.1716-1.1617-2.1656-1.4211-4.4037-.5079-6.2137l.0028.0012.0267-.0522-.0026-.0014c.9492-1.8278,2.9671-2.9477,5.4623-3.2804,2.7165-.3619,5.953.2004,9.063,1.7736l-.0014.0028.1592.0813.0014-.0025c3.0393,1.5737,5.3398,3.8137,6.6057,6.1719,1.1617,2.1656,1.4214,4.4037.5079,6.2136l-.0025-.0011-.027.0521.0026.0014c-.9492,1.8278-2.9671,2.9476-5.4623,3.2804-2.7165.362-5.953-.2007-9.063-1.7739l.0014-.0025Z" style="fill: #141515;"/>
      <path d="M608.1173,231.657l-28.202-3.3494,16.9215,25.2056c2.0934-7.8409,5.661-15.1905,11.2805-21.8562" style="fill: green; fill-rule: evenodd;"/>
      <polygon points="608.8655 230.1505 579.6928 226.2699 575.9927 225.7781 578.1054 228.8528 594.7348 253.0614 595.8819 254.9192 597.4799 251.1876 582.9629 230.0537 606.4013 233.1714 607.2054 232.7446 608.8655 230.1505" style="fill: #141515;"/>
      <path d="M593.5536,257.7208c2.9491-11.2986,8.3175-21.6588,15.2138-30.6277-4.2285-3.0484-8.5173-5.9997-12.8637-8.8517-26.5819-17.4452-55.3004-31.1937-85.4123-40.9363-35.0849-11.3509-72.0787-17.27-109.8071-17.27-37.6184,0-74.5057,5.8844-109.4984,17.1703-33.8917,10.9308-66.0154,26.9297-95.3161,47.5548-.9659.6801-1.9294,1.365-2.8896,2.0551,6.9118,8.942,12.2925,19.2873,15.2461,30.5921,17.7547-13.2282,36.7351-24.5267,56.6402-33.7716,10.7864-5.0102,21.8443-9.4176,33.1266-13.2013,32.7462-10.9827,67.3652-16.7154,102.6911-16.7154,35.3969,0,70.0843,5.7556,102.8881,16.7815,7.8902,2.6518,15.6707,5.6097,23.3258,8.8651,23.5682,10.0229,45.9453,22.8735,66.6554,38.3549M503.0349,219.4661l.7937.2757c31.4941,10.9449,61.1513,26.9115,87.8666,47.442.2655-2.0056.609-3.9862,1.0248-5.9423-22.8759-17.2619-47.8374-31.2663-74.2214-41.7389-5.2719-2.0925-10.5999-4.0448-15.98-5.8531-32.4485-10.906-66.7799-16.5993-101.8344-16.5993-34.9837,0-69.2474,5.6704-101.6374,16.5331-8.736,2.93-17.3369,6.2386-25.7801,9.9153-22.6861,9.8788-44.2338,22.4181-64.2045,37.4375.4152,1.952.7576,3.9297,1.0228,5.9321,23.871-18.2825,50.0807-32.9272,77.8425-43.6082,3.5264-1.3566,7.0779-2.6503,10.6529-3.8785,32.4934-11.1628,66.9308-16.9956,102.1038-16.9956,35.2621,0,69.7846,5.8619,102.3507,17.0801ZM254.3904,168.4151l.9432-1.3581c3.8636-5.5631,6.7102-12.2604,6.6841-19.129-.0172-4.4494-1.3131-9.12-4.4466-12.388-.008-.0011-.0158-.0028-.0234-.0046-11.2576-2.3131-18.728.8733-25.6876,10.2868l-3.1068,4.2025c1.0849.8399,2.0516,1.7836,2.8296,2.8333,1.4592-1.3715,3.0532-2.5335,5.1051-3.2202,5.0884-1.702,10.0822.7421,14.0967,3.7748l8.0933,6.1146-10.0405-1.4409c-1.7865-.2562-3.7012-.0567-5.1985,1.0257-1.0538.7617-1.7925,1.9076-1.9392,3.2102-.1575,1.4003.4023,2.6653,1.4148,3.62,1.7888,1.6852,4.6709,2.2269,7.034,2.3257l4.1789.1744.0627-.0272ZM570.4448,149.4932l-2.7143-3.671c-6.9596-9.4136-14.43-12.6-25.6873-10.2868-.0081.0017-.0158.0035-.0235.0046-3.1334,3.2681-4.4297,7.9386-4.4466,12.388-.0261,6.8686,2.8201,13.5659,6.6841,19.129l.0616.0888,4.9476-.1297c2.3644-.0621,5.2547-.559,7.069-2.2163,1.0291-.9402,1.6069-2.1935,1.471-3.5977-.1266-1.3046-.8473-2.4616-1.889-3.2397-1.4804-1.1054-3.3921-1.3346-5.182-1.1062l-10.0616,1.2851,8.1869-5.9881c4.0658-2.9736,9.086-5.3391,14.1534-3.556,2.041.7178,3.6171,1.9045,5.0549,3.2984.6723-.8782,1.4783-1.6783,2.3758-2.4024ZM478.4331,146.4202l.1244-.0398c6.5633-2.115,13.1096-6.1637,17.6533-11.3893,2.1198-2.4382,5.7492-7.6909,4.2331-11.1448-.1434-.3266-.3334-.6257-.565-.8971-.2706-.3164-.5703-.6134-.859-.9132-6.9473-7.2165-14.1622-9.9688-23.7989-5.6406l-5.7291,2.5731c.3777,1.3126.6245,2.6412.6924,3.9561.126-.0161.252-.0306.3785-.0438,8.3427-.8782,11.7303,5.0886,12.8715,12.6034l1.0236,6.7431-5.2687-4.3311c-1.2395-1.0195-4.6247-3.4756-6.3606-2.2044-1.1651.8534-1.363,2.9387-1.249,4.2465.1804,2.0672,1.0858,4.0759,2.5226,5.5757,1.4521.2946,2.8961.5968,4.331.9063ZM331.6144,119.6491l-7.2448-3.2537c-9.6366-4.3281-16.8516-1.5758-23.7989,5.6406-.2886.2998-.5881.5968-.8587.9132-.2319.2714-.4217.5704-.5652.8971-1.5159,3.4539,2.1135,8.7066,4.2333,11.1448,4.5434,5.2256,11.0901,9.2743,17.6534,11.3893l1.4623.471c1.4128-.3115,2.8311-.6159,4.2554-.9129,1.6886-1.5325,2.761-3.7313,2.9588-6.0003.1139-1.3078-.0839-3.3931-1.249-4.2465-1.7359-1.2713-5.121,1.1849-6.3606,2.2044l-5.2688,4.3311,1.0237-6.7431c.845-5.5654,3.0968-11.5342,9.3623-12.5461,1.3089-.2114,2.6031-.1752,3.8874-.0117.0561-1.089.2348-2.1868.5094-3.2772ZM368.019,139.6753l.9908-.8206c2.2314-1.8484,4.0959-3.9573,5.6201-6.2555l-7.6683-3.4994c-1.6408-.7486-3.536-1.0967-5.2768-.4802-1.2258.4342-2.2575,1.3252-2.7649,2.5338-.5455,1.2992-.3652,2.6708.3378,3.8719,1.2414,2.1209,3.8543,3.4525,6.0937,4.213l1.5898.5399,1.0779-.1028ZM402.9712,138.1973c-1.4045-1.3387-2.5642-2.8933-3.5283-4.6047-1.018,1.698-2.1902,3.2477-3.5395,4.609,1.1823-.0128,2.3658-.0195,3.5503-.0195,1.1776,0,2.3498.0049,3.5175.0152ZM517.1932,157.0507c-1.2356-2.6198-1.8062-5.4855-1.9305-8.4314-2.2347,2.3475-4.859,4.1646-7.9561,5.2862,3.3433,1.0136,6.6381,2.063,9.8866,3.1451ZM566.6163,177.7467c-.0698-.1712-.1363-.3459-.1984-.5231-.2093.0429-.4212.0771-.6351.1045l.8335.4186ZM138.5199,196.1432c-5.6412-.6669-11.8594.222-16.0936,4.3278l-5.1121,4.9568.6903-7.0869c.8762-8.996,4.4112-17.8003,13.1383-21.7049,8.1702-3.6552,17.9833-1.6951,26.0081,2.2284-.039-.8524-.0547-1.6854-.0565-2.46-.0092-3.7892.3728-7.692,1.2923-11.3712,1.0443-4.1792,2.8634-8.3249,5.939-11.4151,8.8089-8.8521,22.2536-3.9966,31.6253,1.1084l5.4408,2.9636-5.9187,1.8298c-6.4891,2.0061-15.6825,6.3256-15.6213,14.3783.0418,5.5302,4.3813,10.5292,8.7572,13.4292,5.273,3.4952,12.0385,5.1259,18.2078,3.2724l6.1433-1.8457,1.9399-3.0247c1.2651-1.9723,1.7092-4.4555,1.2476-6.7494-.2589-1.2865-1.036-3.232-2.3944-3.7227-2.0294-.7328-4.5784,2.5771-5.4826,3.9071l-3.8348,5.6399-.9174-6.7583c-.7574-5.5785-.2778-11.9399,5.4491-14.6756,1.199-.5727,2.4491-.9023,3.7262-1.1071-1.1934-5.0058.1767-10.9781,1.8751-15.449l.7837-2.0637,2.1659.4273c3.0533.6022,6.7626,1.8773,9.8477,3.8679l-.2197-4.6542c-.4996-10.593,2.0343-21.6957,12.2438-26.8639,4.8724-2.4663,10.7477-3.1246,16.2904-2.6213-2.1047-9.1183-.3554-19.5873,2.3841-28.1713.7093-2.2235,1.5139-4.4175,2.4056-6.5741l1.0875-2.6307,2.5287,1.3071c9.5398,4.9309,20.97,14.5892,24.4577,25.6456,3.8751-3.1329,8.2353-5.5892,13.3236-6.2023,10.6855-1.2876,19.4138,6.3065,25.6183,14.1022l4.5724,5.7446c1.1637-3.5148,3.2067-6.8702,5.198-9.4971l1.3335-1.7593,1.9578,1.02c3.1429,1.6376,6.2079,3.9153,8.4921,6.6388,1.1628,1.3864,2.1902,2.9817,2.8248,4.6998,1.7908-.9085,3.6517-1.5781,5.8199-1.6585,5.3534-.1993,9.4685,3.5578,12.4622,7.5929l4.9618,6.6893c4.4415-7.1543,5.7237-16.0068,4.6036-24.499-.029-.018-.0579-.0364-.0877-.056-7.6376-5.0675-13.8956-5.269-20.4527,1.8257l-7.9409,8.5923,3.5283-11.1552c2.7558-8.7122,7.8561-20.1428,17.7794-22.4021,4.3499-.9904,8.5765.0049,12.4995,1.7808.0453-11.676,6.5063-24.8046,13.518-33.2749l2.206-2.665,1.9611,2.8493c2.2289,3.2382,4.2534,6.6326,6.0293,10.14,3.5146,6.9412,6.4012,15.0442,6.9415,23.0114,4.359-2.0894,9.3145-3.2136,14.0117-2.2704,10.7494,2.1582,15.3196,13.6733,17.3862,23.2033l1.692,7.8052-5.9797-5.294c-4.4739-3.9604-9.8167-7.0855-15.9691-5.638-2.5296.5953-4.8934,1.8563-7.0462,3.2911-1.0927,4.8183-.6903,10.4825.4751,15.2035,1.5506,6.283,4.6702,12.1296,9.4061,16.5882l.5155.4853c1.4357.113,2.8634.2337,4.284.3619l1.4683-.4986c2.2395-.7605,4.8524-2.092,6.0937-4.213.703-1.2012.8834-2.5727.3379-3.8719-.5074-1.2086-1.5391-2.0997-2.7649-2.5338-1.7407-.6165-3.636-.2683-5.2768.4802l-9.2283,4.2112,6.043-8.147c2.9937-4.0351,7.1088-7.7922,12.4623-7.5929,2.1682.0804,4.0291.75,5.8199,1.6585.6345-1.7181,1.6619-3.3133,2.8248-4.6998,2.2842-2.7235,5.3492-5.0013,8.4921-6.6388l1.9577-1.02,1.3335,1.7593c1.7135,2.2603,3.4647,5.06,4.662,8.0362l3.4098-4.2837c6.2042-7.7957,14.9328-15.3898,25.618-14.1022,5.0884.6131,9.4488,3.0694,13.3239,6.2023,3.4877-11.0564,14.918-20.7146,24.4578-25.6456l2.5286-1.3071,1.0875,2.6307c.8917,2.1566,1.696,4.3506,2.4056,6.5741,2.7392,8.584,4.4887,19.053,2.3839,28.1713,5.5427-.5034,11.4179.155,16.2903,2.6213,10.2097,5.1682,12.7437,16.2709,12.2438,26.8639l-.1798,3.8078c3.1317-1.972,6.8981-3.2053,9.9865-3.7652l2.1719-.3934.752,2.0754c1.6287,4.4968,2.9063,10.4891,1.6355,15.4757.1249.022.2497.0456.3743.0701,1.152.2291,2.2804.5719,3.3344,1.0956,5.6836,2.8242,6.064,9.1922,5.2207,14.7579l-1.022,6.7436-3.7471-5.6988c-.8834-1.3438-3.3806-4.6929-5.4211-3.9916-1.3658.4696-2.1731,2.4031-2.452,3.6856-.4974,2.2862-.0913,4.7759,1.1428,6.7678l2.0775,3.3519,1.0506.6019,5.4052,1.6241c6.1696,1.8535,12.9347.2228,18.2081-3.2724,4.3756-2.9,8.7154-7.899,8.7573-13.4292.061-8.0528-9.1321-12.3723-15.6212-14.3783l-5.919-1.8298,5.4408-2.9636c9.3717-5.105,22.8164-9.9605,31.6255-1.1084,3.0753,3.0902,4.8945,7.2358,5.939,11.4151.9195,3.6792,1.3015,7.582,1.2923,11.3712-.002.7746-.0178,1.6076-.0567,2.46,8.0251-3.9235,17.8377-5.8836,26.008-2.2284,8.7275,3.9047,12.2621,12.7089,13.1383,21.7049l.6907,7.0869-5.1123-4.9568c-4.2339-4.1059-10.4524-4.9947-16.0937-4.3278-9.3672,1.1076-18.6092,6.3798-25.9582,12.0402-21.6458,16.6738-36.2196,29.5292-40.1433,59.5621-.1189.9091-.2208,1.8136-.3039,2.7096l-.2826,3.0324c-30.6499-24.0188-63.4895-41.9325-100.6678-53.5809-29.7795-9.3311-61.0966-14.1895-93.0305-14.1895-34.8051,0-68.878,5.7701-101.0241,16.8139-.5432.1866-1.0855.375-1.6279.5646-31.704,11.0895-61.5023,27.3146-88.244,48.1967l-2.3918,1.8682-.282-3.0265c-.083-.8956-.1847-1.799-.3035-2.7076-2.1195-16.2231-9.531-30.8161-19.6939-42.5234-10.2027-12.9897-36.4195-27.3198-48.5971-28.7598ZM233.5405,178.33c-.2365-.0306-.4699-.0701-.7001-.12-.075.2051-.1563.4058-.2425.603l.9427-.4831ZM293.6722,154.3421c-3.6166-1.0127-6.7047-2.9347-9.3446-5.7091-.1423,3.3294-.8547,6.5564-2.4543,9.4413,3.8625-1.2865,7.7975-2.5333,11.7988-3.7322ZM614.1815,220.6691c-1.2395-.8968-2.4843-1.7842-3.7336-2.6645-29.7512-20.9597-62.3585-37.2616-96.7624-48.4613-36.0974-11.7513-74.1736-17.8807-113.0012-17.8807-38.7581,0-76.7676,6.108-112.8065,17.8178-35.7812,11.6252-69.6218,28.7669-100.3285,50.9273,1.1473,1.2378,2.2661,2.511,3.3516,3.8158,30.3937-21.8741,63.8779-38.7646,99.2705-50.1797,35.3371-11.397,72.567-17.3393,110.5129-17.3393,38.0571,0,75.3932,5.9769,110.8216,17.439,31.9365,10.3327,62.3101,25.1212,90.2538,44.0024,3.0577,2.0662,6.0871,4.1806,9.0852,6.3442,1.081-1.3071,2.1937-2.5806,3.3367-3.821Z" style="fill: #141515;"/>
      <path d="M332.9625,147.2583c-.6385.1165-1.2814.2263-1.9305.3258.6505-.107,1.2951-.2141,1.9305-.3258M353.5672,142.6281c-6.2494,1.0254-11.7074,2.7117-17.3581,3.9684,4.3003-1.0481,7.7694-2.807,9.0338-7.1491,1.107,2.7326,4.4859,3.2977,8.3243,3.1807ZM459.2114,144.1c-2.1195-.3651-6.3233-1.1345-7.5124-1.3038-.4645-.0724-.9177-.1458-1.3619-.2188,2.6904-.2196,4.8635-1.042,5.7094-3.13.603,2.0708,1.7081,3.5535,3.1649,4.6525ZM239.4979,174.936c-4.2877,1.9952-8.1623,4.1814-12.1175,6.4534,2.1507-1.8301,3.5404-4.0867,3.5332-7.256,1.7816,2.2466,5.0483,1.9207,8.5843.8026ZM272.1886,163.543l-.002.0023-.0077.0025.0097-.0048ZM299.7644,152.5688l-.0089.002c-7.2954,2.0648-11.8916,3.4256-19.0593,5.8973-.9338.4529-2.1272.8567-3.3872,1.4067,3.8282-3.95,5.6676-10.1067,3.5203-20.6239-.2986-1.4618-.5232-1.8311.2452-.2116,5.0113,10.55,11.8125,13.461,18.6899,13.5294ZM483.392,149.5728c-.8186-.1475-1.615-.3073-2.3816-.4836.7631.1286,1.5586.2943,2.3816.4836ZM521.0258,158.4008c-5.9023-2.0193-12.89-4.2943-18.7537-5.9826l-.0014-.0002c6.0233-.7156,11.8295-4.0816,16.2454-13.3786.7682-1.6195.5441-1.2502.2451.2116-1.8967,9.2907-.6829,15.1796,2.2647,19.1498ZM407.9597,138.6027c-5.8564-.6812-10.579-.7711-16.358-.181,3.1598-2.1997,5.9136-5.7137,7.9809-11.1625,1.9165,6.0676,4.8298,9.4608,8.377,11.3435ZM185.1049,218.9476l.9143-.6601c30.8062-22.2323,64.9241-39.5558,101.0507-51.2938,36.6834-11.9189,75.0458-17.9455,113.6143-17.9455,38.6378,0,77.0677,6.0481,113.8104,18.0093,34.7246,11.3043,67.6012,27.7751,97.4585,48.8099,1.2591.887,2.513,1.7807,3.7608,2.6835l.8614.6231c12.7185-10.6503,44.1604-38.2755,62.4089-20.5802-2.4751-25.4081-24.2544-24.8302-39.7674-14.9296,1.6963-6.8497,3.0049-46.9772-34.3269-26.642,35.8055,11.0694,8.9165,42.6257-12.8683,36.081-3.5753-2.1532-7.483-3.6025-10.0035-6.7044-5.4079-8.7264,2.7621-22.0115,11.1368-9.275,1.8731-12.3604-5.0264-12.9499-10.0822-13.3167,2.5815-4.0639,1.8458-10.7219-.3562-16.8007-6.6881,1.2119-12.9991,4.8396-13.9802,9.4299-3.4696-3.8682-7.9924-9.7363-18.3323-2.1733,12.082-1.5431,15.0062,14.9449-1.0692,15.3664l.0426.0137c-2.9238.2336-4.8088.0529-7.4283-1.3304-9.9296-14.4727-8.2802-28.4757-1.282-35.1137.189-.1798.5521-.1633.8496-.2245,9.5842-1.9692,19.2142-1.0174,28.3159,11.2937,1.3355-28.2997-20.2958-28.0608-29.624-26.185,4.0414-10.3488,1.5634-24.6654-3.5043-36.9238-12.0527,6.23-23.0048,17.5965-24.0233,28.2581-7.0169-6.7018-20.863-17.6067-38.5312,4.593,11.6587-5.2361,19.9925-.8103,26.7534,6.2122.3239.3365.6577.6714.9615,1.0268,5.8146,6.7953-5.5688,22.0485-22.2672,27.5394-2.4981-.4853-4.5225-.6385-6.8711-.9676-7.4312-6.8298-3.5287-21.5239,8.123-11.9451-1.8767-12.3598-8.6407-10.8768-13.5775-9.7278,1.2602-4.6465-1.4169-10.7869-5.3226-15.9393-6.0278,3.1406-10.9793,8.4763-10.5546,13.1515-4.4609-2.6656-10.5206-6.9281-18.1524,3.3608,11.0809-5.0567,18.7632,9.8225,3.536,14.9922l.234.0038c-2.9488.3553-5.442,1.4282-9.1341-.9243-10.7948-10.1635-12.7795-25.8549-10.4964-34.8667.2714-1.0718-1.3018.5235.7136-.8404,7.4366-5.0319,15.675-7.1299,26.4415,2.4013-6.2829-28.9795-24.1668-21.8676-31.4162-17.0117.6503-11.7258-5.145-25.3846-12.5507-36.144-8.3727,10.1148-14.4899,25.0625-12.5507,36.144-7.5715-4.5334-21.9071-11.1385-30.7674,16.8739,8.3054-8.9865,16.3749-7.1681,23.8181-2.23.3565.2371.9987.3029,1.0663.731,1.714,10.9317-.0599,25.575-11.4589,35.0172-2.1501,1.6067-4.7298,1.0678-6.3863.8494l.2199-.0035c-15.2272-5.1697-7.5449-20.0489,3.5361-14.9922-7.6319-10.2888-13.6916-6.0264-18.1525-3.3608.4247-4.6751-4.5268-10.0109-10.5546-13.1515-3.9057,5.1524-6.5827,11.2927-5.3225,15.9393-4.9368-1.149-11.7008-2.6321-13.5773,9.7278,11.7608-9.6688,15.6278,5.3944,7.9117,12.1361-2.7188.4839-6.0608,1.0855-8.729.6534-16.496-5.5929-27.6685-20.6712-21.8973-27.4163.3039-.3554.638-.6904.9619-1.0268,6.7606-7.0225,15.0943-11.4483,26.7534-6.2122-17.6684-22.1997-31.5148-11.2948-38.5313-4.593-1.0188-10.6616-11.9706-22.0281-24.0236-28.2581-5.0675,12.2584-7.5458,26.575-3.504,36.9238-9.3285-1.8759-30.9594-2.1147-29.624,26.185,9.1017-12.3111,18.7315-13.2629,28.316-11.2937.2972.0612.6605.0446.8495.2245,7.036,6.6741,8.667,20.7931-1.4429,35.3494-.7181,1.7066-3.0486,2.1058-7.5926,2.3225-15.8927-.7691-12.6971-17.097-.6789-15.3723-10.2216-7.7222-14.8346-1.9252-18.364,1.889-.9097-4.605-7.1637-8.33-13.8325-9.6452-2.2959,6.0438-3.1345,12.6899-.6165,16.7932-5.0602.2883-11.9682.7708-10.2868,13.1586,8.5708-12.6051,16.5341.8048,10.9916,9.4465l.3038-.1497-.0034.0017c-3.1999,1.7896-4.3281,4.8352-9.8319,6.1106-21.785,6.5447-48.6739-25.0116-12.8683-36.081-37.3318-20.3353-36.0232,19.7923-34.3272,26.642-15.5127-9.9006-37.2923-10.4785-39.7671,14.9296,15.5252-15.6165,52.5864,8.3413,64.4983,20.3537Z" style="fill: #dbba00; fill-rule: evenodd;"/>
    </g>
  </g>
</svg>