<?xml version="1.0" encoding="utf-8"?>
<!-- Created by @FCLOGO 2023-10-29 GMT+8 9:23:24 . https://fclogo.top/ -->
<!-- FOR PERSONAL USE ONLY NOT FOR COMMERCIAL USE -->
<svg version="1.1" xmlns="http://www.w3.org/2000/svg" xmlns:xlink="http://www.w3.org/1999/xlink" x="0px" y="0px"
	 viewBox="0 0 800 800" style="enable-background:new 0 0 800 800;" xml:space="preserve">
<style type="text/css">
	.st0{fill:#F80002;}
	.st1{fill:#FFFFFF;}
	.st2{fill:#039340;}
	.st3{fill:#012D13;}
	.st4{fill:#FC0301;}
</style>
<g>
	<g>
		<path class="st0" d="M125.4,324.6v306.2c0,0,107.8,79.9,274.6,119.2c166.8-39.3,274.6-119.2,274.6-119.2V324.6
			C674.6,172.9,551.6,50,400,50l0,0C248.4,50,125.4,172.9,125.4,324.6z"/>
		<path class="st1" d="M400,736.9c-140.4-33.7-238.8-97-261.9-112.7V324.6c0-144.4,117.5-261.9,261.9-261.9s261.9,117.5,261.9,261.9
			v299.6C638.9,639.9,540.4,703.3,400,736.9z"/>
		<path class="st2" d="M148.3,550.1v68.7c31,20.7,122.8,76.4,251.7,107.7c128.9-31.3,220.6-87,251.7-107.7v-68.7H148.3z"/>
	</g>
	<g>
		<g>
			<g>
				<circle cx="400.1" cy="310" r="137.6"/>
				<circle class="st1" cx="400.1" cy="310" r="134.1"/>
				<path d="M518.1,310c0-9.1-1-17.9-3-26.4l13.7-21.9c-7.7-20.6-20.3-38.9-36.3-53.5l-25.9,4.4c-16.3-11.2-35.4-18.4-56.1-20.2
					L394,172.6c-22.5,1-43.6,7.4-62.1,17.9l-3.8,26c-15.9,12.3-28.5,28.5-36.5,47.1l-24,9.7c-3.2,11.7-4.9,23.9-4.9,36.6
					c0,9.6,1,18.9,2.8,28l23.5,11.6c6.9,19.2,18.5,36.1,33.6,49.3l1.8,25.9c17.8,11.8,38.5,19.6,60.8,22l18.3-18.7
					c20.9-0.6,40.4-6.6,57.3-16.7l25.1,6.3c17-13.5,30.7-31,39.7-51l-12.2-23.2C516.4,332.7,518.1,321.5,518.1,310z M509.4,343.2
					l-35,23L441.6,339v-55.6l37.1-23.6l32.5,23.6c2,8.5,3.1,17.3,3.1,26.4C514.3,321.5,512.6,332.7,509.4,343.2z M369.5,397.9
					l14.7-38l55.3-17.7l32.6,27.1l-12.4,38.1c-16.8,10.3-36.4,16.3-57.4,16.7L369.5,397.9z M409.3,196.1c20.8,1.7,40,8.9,56.2,20.3
					l11,40.4l-37.2,23.6l-50.8-18.6l-11.8-42L409.3,196.1z M331.4,218.8l41.7,2l11.8,42L350,308.2l-43-3.9l-12.4-38.2
					C302.5,247.2,315.3,231,331.4,218.8z M292.2,347.3l14.8-39.2l43,3.9l30.6,46.7l-14.7,38h-40.1
					C310.6,383.6,298.9,366.6,292.2,347.3z"/>
			</g>
			<g>
				<path class="st2" d="M259.5,360.7l-19.2,5.8l-1.1-3.8l10.4-11.7l-12.8,3.9l-1.1-3.6l19.2-5.8l1.2,3.9l-10.2,11.5l12.5-3.8
					L259.5,360.7z"/>
				<path class="st2" d="M251.2,324.4l0.7,4.3l-4.2,2.5l1.3,7.9l4.8,0.9l0.7,4.2l-21-4.5l-0.7-4.2L251.2,324.4z M244.6,333l-6.9,3.9
					l7.8,1.5L244.6,333z"/>
				<path class="st2" d="M251.2,323.1l-20,0.7l-0.1-3.9l13.1-8.6l-13.4,0.4l-0.1-3.8l20-0.7l0.1,4.1l-12.8,8.5l13-0.4L251.2,323.1z"
					/>
				<path class="st2" d="M244.7,290.4l1.6-3.8c2.1,0.8,3.6,1.9,4.6,3.4c0.9,1.5,1.3,3.3,1.1,5.4c-0.2,2.6-1.4,4.7-3.3,6.3
					c-2,1.5-4.5,2.2-7.7,1.9c-3.3-0.3-5.8-1.4-7.5-3.3s-2.4-4.2-2.1-7c0.2-2.4,1.1-4.4,2.7-5.7c0.9-0.8,2.2-1.4,3.9-1.7l0.6,4.1
					c-1.1,0.1-1.9,0.6-2.6,1.2c-0.7,0.7-1.1,1.6-1.2,2.6c-0.1,1.5,0.3,2.7,1.3,3.7s2.6,1.6,5,1.9c2.5,0.2,4.4,0,5.5-0.9
					c1.2-0.8,1.8-1.9,1.9-3.4c0.1-1.1-0.2-2-0.8-2.9C247.1,291.5,246.1,290.9,244.7,290.4z"/>
				<path class="st2" d="M252.8,284.6l-19.5-4.4l0.9-3.9l7.7,1.7l1.8-7.7l-7.7-1.7l0.9-3.9l19.5,4.4l-0.9,3.9l-8.5-1.9l-1.8,7.7
					l8.5,1.9L252.8,284.6z"/>
				<path class="st2" d="M257.3,265.9l-18.8-6.8l5.1-14l3.2,1.2l-3.7,10.2l4.2,1.5l3.4-9.4l3.2,1.2l-3.4,9.4l5.1,1.9l3.8-10.5
					l3.2,1.2L257.3,265.9z"/>
				<path class="st2" d="M263.5,249.2l-17.8-9.1l1.8-3.5l15.6-1.2l-11.9-6.1l1.7-3.3l17.8,9.1l-1.8,3.6l-15.3,1.2l11.6,6
					L263.5,249.2z"/>
				<path class="st2" d="M271.7,220.2l-2.8-1.9l5-7.2l6.5,4.6c0.2,1.2,0.1,2.6-0.3,4.3s-1.1,3.2-2,4.5c-1.2,1.7-2.6,3-4.2,3.7
					c-1.6,0.8-3.3,1-5.1,0.7c-1.8-0.3-3.5-1-5-2.1c-1.7-1.2-3-2.6-3.8-4.3c-0.8-1.6-1.1-3.4-0.9-5.3c0.2-1.4,0.8-2.9,1.9-4.5
					c1.4-2,3-3.3,4.6-3.9c1.7-0.6,3.3-0.5,5.1,0.3l-1.7,3.7c-1-0.3-1.9-0.3-2.8,0s-1.7,0.9-2.4,1.9c-1,1.4-1.4,2.9-1,4.4
					c0.3,1.5,1.4,2.9,3.2,4.1c2,1.4,3.7,1.9,5.3,1.8c1.6-0.2,2.9-1,3.8-2.4c0.5-0.7,0.8-1.5,1-2.4s0.3-1.7,0.3-2.5l-2.1-1.5
					L271.7,220.2z"/>
				<path class="st2" d="M289.3,209.6l-14.1-14.2l6-6c1.5-1.5,2.8-2.5,3.7-2.9c0.9-0.4,1.9-0.5,3-0.3s2,0.8,2.8,1.6
					c1.1,1.1,1.6,2.3,1.7,3.6s-0.4,2.7-1.5,4.1c1-0.3,1.9-0.4,2.7-0.3c0.8,0,2.1,0.3,3.9,0.7l4.5,1.1l-3.4,3.4l-5.1-1
					c-1.8-0.4-3-0.6-3.6-0.6s-1,0.1-1.4,0.3s-0.9,0.6-1.6,1.3l-0.6,0.6l5.9,5.9L289.3,209.6z M284.1,198.6l2.1-2.1
					c1.4-1.4,2.2-2.3,2.4-2.7c0.2-0.5,0.3-0.9,0.2-1.4c-0.1-0.5-0.3-0.9-0.8-1.4s-1-0.7-1.5-0.8c-0.5,0-1.1,0.1-1.6,0.5
					c-0.3,0.2-1,0.9-2.1,2l-2.2,2.2L284.1,198.6z"/>
				<path class="st2" d="M303.2,196.2L291,180.4l11.8-9.1l2.1,2.7l-8.6,6.6l2.7,3.5l8-6.1l2.1,2.7l-8,6.1l3.3,4.3l8.9-6.8l2.1,2.7
					L303.2,196.2z"/>
				<path class="st2" d="M333,176.3l-3.8,2.2l-3.8-3l-6.9,4.1l0.9,4.8l-3.7,2.2l-3.5-21.2l3.7-2.2L333,176.3z M322.5,173.2l-6.2-5
					l1.4,7.8L322.5,173.2z"/>
				<path class="st2" d="M334.3,175.8l-8-18.2l3.7-1.6l6.6,15.1l9.2-4l1.4,3.1L334.3,175.8z"/>
				<path class="st2" d="M355.6,167.3l-5-19.4l14.4-3.7l0.8,3.3l-10.5,2.7l1.1,4.3l9.7-2.5l0.8,3.3l-9.7,2.5l1.4,5.3l10.8-2.8
					l0.8,3.3L355.6,167.3z"/>
				<path class="st2" d="M371,156.7l3.8-0.9c0.4,1.3,1,2.2,1.8,2.7s1.8,0.7,3,0.5c1.3-0.2,2.2-0.6,2.8-1.2c0.6-0.6,0.8-1.3,0.7-2
					c-0.1-0.5-0.3-0.8-0.6-1.1c-0.3-0.3-0.8-0.5-1.6-0.7c-0.5-0.1-1.6-0.2-3.3-0.4c-2.2-0.2-3.8-0.7-4.8-1.4
					c-1.4-0.9-2.2-2.2-2.4-3.7c-0.1-1,0-2,0.5-3s1.2-1.7,2.2-2.3s2.3-1,3.8-1.2c2.5-0.3,4.4,0,5.8,0.9s2.3,2.3,2.6,4.1l-4,0.7
					c-0.3-1-0.8-1.7-1.4-2.1c-0.6-0.4-1.5-0.5-2.6-0.3c-1.2,0.2-2,0.5-2.6,1.1c-0.4,0.4-0.5,0.8-0.5,1.3c0.1,0.5,0.3,0.8,0.8,1.1
					c0.6,0.4,1.8,0.6,3.9,0.8c2,0.2,3.5,0.5,4.5,0.8c1,0.4,1.8,0.9,2.5,1.7c0.6,0.8,1,1.8,1.2,3.1c0.2,1.1,0,2.2-0.5,3.3
					s-1.3,1.9-2.4,2.6c-1.1,0.6-2.5,1.1-4.2,1.3c-2.5,0.3-4.5,0-6-1C372.6,160.5,371.5,158.9,371,156.7z"/>
				<path class="st2" d="M395.1,160.8l-0.3-16.6l-5.9,0.1l-0.1-3.4l15.9-0.3l0.1,3.4l-5.9,0.1l0.3,16.6L395.1,160.8z"/>
				<path class="st2" d="M422.8,162.1l-4.4-0.4L417,157l-8-0.7l-2,4.4l-4.3-0.4l9.5-19.3l4.3,0.4L422.8,162.1z M416,153.6l-2.1-7.6
					l-3.3,7.2L416,153.6z"/>
				<path class="st2" d="M426.5,163l3.1-16.3l-5.8-1.1l0.6-3.3l15.6,3l-0.6,3.3l-5.8-1.1l-3.1,16.3L426.5,163z"/>
				<path class="st2" d="M438,165.4l6-19.1l14.2,4.5l-1,3.2l-10.3-3.2l-1.3,4.2l9.6,3l-1,3.2l-9.6-3l-1.6,5.2l10.7,3.4l-1,3.2
					L438,165.4z"/>
				<path class="st2" d="M461.6,173.8l9-17.9l12.2,6.2l-1.5,3l-8.6-4.4l-2.1,4.2l7.5,3.8l-1.5,3l-7.5-3.8l-3.8,7.6L461.6,173.8z"/>
				<path class="st2" d="M480.9,172.5c1.1-1.7,2.3-2.9,3.6-3.7c0.9-0.6,2-1,3.1-1.2s2.2-0.2,3.2,0c1.3,0.3,2.7,0.8,4,1.8
					c2.4,1.6,3.9,3.7,4.3,6.2s-0.2,5.1-2.1,7.8c-1.8,2.7-3.9,4.3-6.4,4.8s-4.9,0-7.4-1.7s-3.9-3.7-4.4-6.2
					C478.5,177.7,479.1,175.2,480.9,172.5z M484.4,174.7c-1.3,1.9-1.8,3.6-1.6,5.2c0.2,1.6,1,2.8,2.3,3.7s2.8,1.2,4.3,0.8
					s2.9-1.5,4.2-3.5c1.3-1.9,1.8-3.6,1.6-5.1s-1-2.7-2.4-3.6s-2.8-1.2-4.3-0.8C487.1,171.7,485.7,172.8,484.4,174.7z"/>
				<path class="st2" d="M499.2,185.1c1.4-1.5,2.7-2.6,4.1-3.2c1-0.5,2.1-0.7,3.2-0.8s2.2,0.1,3.1,0.4c1.3,0.4,2.5,1.2,3.7,2.3
					c2.2,2,3.3,4.2,3.4,6.8c0.1,2.5-0.9,5-3.1,7.5c-2.2,2.4-4.5,3.7-7,3.9s-4.9-0.7-7.1-2.7s-3.4-4.2-3.5-6.8
					C496.1,189.9,497.1,187.5,499.2,185.1z M502.4,187.8c-1.5,1.7-2.3,3.3-2.3,4.9c0,1.6,0.6,2.9,1.8,4c1.2,1.1,2.6,1.5,4.1,1.4
					c1.5-0.2,3.1-1.1,4.6-2.9c1.5-1.7,2.3-3.3,2.3-4.8s-0.6-2.8-1.8-3.9c-1.2-1.1-2.6-1.6-4.1-1.4S503.9,186.1,502.4,187.8z"/>
				<path class="st2" d="M511.5,210.6l12.6-10.9l-3.9-4.5l2.6-2.2l10.4,12l-2.6,2.2l-3.9-4.5l-12.6,10.9L511.5,210.6z"/>
				<path class="st2" d="M535.7,208.3l4.5,6.6c0.9,1.3,1.5,2.3,1.8,3s0.5,1.4,0.5,2.2c0,0.7-0.2,1.5-0.5,2.2s-0.9,1.3-1.6,1.8
					c-0.8,0.5-1.6,0.8-2.6,0.8c-0.9,0-1.8-0.2-2.6-0.7c0.4,1.2,0.4,2.3,0.1,3.3c-0.3,1-1,1.9-1.9,2.5c-0.8,0.5-1.6,0.8-2.6,1
					c-0.9,0.1-1.8,0-2.7-0.3c-0.8-0.3-1.6-0.9-2.3-1.7c-0.4-0.5-1.4-1.8-2.9-4l-3.8-5.6L535.7,208.3z M528.6,218l-4.4,3l2.1,3.1
					c0.8,1.2,1.4,1.9,1.7,2.2c0.4,0.4,0.9,0.7,1.5,0.8s1.1-0.1,1.7-0.5c0.5-0.3,0.8-0.7,1-1.2s0.2-1,0-1.6s-0.7-1.6-1.8-3.1
					L528.6,218z M535.2,213.5l-3.8,2.6l1.5,2.2c0.9,1.3,1.5,2.1,1.7,2.4c0.5,0.5,1,0.8,1.5,0.9c0.6,0.1,1.1,0,1.6-0.4
					c0.5-0.3,0.8-0.8,1-1.3c0.1-0.5,0-1.1-0.3-1.7c-0.2-0.4-0.8-1.3-1.9-2.9L535.2,213.5z"/>
				<path class="st2" d="M537.9,251.7l-2-3.9l3.3-3.6l-3.6-7.1l-4.8,0.6l-1.9-3.8l21.4-2.1l1.9,3.8L537.9,251.7z M541.6,241.5
					l5.4-5.8l-7.8,0.9L541.6,241.5z"/>
				<path class="st2" d="M538.3,253.1l18.7-6.8l1.4,3.8l-15.5,5.6l3.4,9.4l-3.2,1.1L538.3,253.1z"/>
				<path class="st2" d="M543.6,268.5l19.3-4.7l1,3.9l-16,3.9l2.4,9.8l-3.3,0.8L543.6,268.5z"/>
				<path class="st2" d="M556.6,303.1l-1,4c-2.2-0.4-3.9-1.3-5.1-2.6c-1.2-1.3-1.8-3-2-5.2c-0.2-2.7,0.6-4.9,2.2-6.7
					c1.7-1.8,4.1-2.9,7.2-3.1c3.3-0.2,6,0.4,7.9,2c2,1.6,3,3.8,3.3,6.6c0.2,2.4-0.4,4.5-1.7,6.1c-0.8,1-2,1.7-3.5,2.3l-1.2-3.9
					c1-0.3,1.8-0.9,2.3-1.7c0.5-0.8,0.8-1.7,0.7-2.8c-0.1-1.5-0.7-2.6-1.9-3.5c-1.1-0.8-2.9-1.2-5.3-1c-2.5,0.2-4.3,0.8-5.3,1.8
					s-1.5,2.2-1.3,3.7c0.1,1.1,0.5,2,1.2,2.7C554,302.4,555.1,302.9,556.6,303.1z"/>
				<path class="st2" d="M549.5,310.3l19.8,0.9l-0.2,4l-16.5-0.7l-0.4,10l-3.4-0.1L549.5,310.3z"/>
				<path class="st2" d="M568.4,329.6l-0.7,4l-10.7-1.8c-1.7-0.3-2.8-0.4-3.3-0.4c-0.8,0-1.6,0.3-2.1,0.9c-0.6,0.6-1,1.4-1.2,2.5
					s-0.1,2,0.3,2.7c0.4,0.7,0.9,1.1,1.5,1.3c0.7,0.2,1.8,0.5,3.3,0.7l10.9,1.8l-0.7,4l-10.4-1.7c-2.4-0.4-4-0.8-5-1.2
					c-0.9-0.4-1.7-0.9-2.3-1.6s-1-1.6-1.2-2.6s-0.2-2.3,0-3.9c0.3-1.9,0.8-3.3,1.4-4.2c0.6-0.9,1.3-1.6,2.1-2
					c0.8-0.5,1.6-0.7,2.4-0.8c1.2-0.1,2.9,0.1,5.1,0.4L568.4,329.6z"/>
				<path class="st2" d="M564.5,351.2l-2.3,7.7c-0.5,1.5-0.9,2.6-1.2,3.3c-0.4,0.7-0.8,1.3-1.4,1.8c-0.6,0.5-1.3,0.8-2,1
					c-0.8,0.2-1.6,0.2-2.4-0.1c-0.9-0.3-1.6-0.8-2.3-1.5c-0.6-0.7-1-1.5-1.1-2.5c-0.7,1.1-1.5,1.8-2.6,2.2c-1,0.4-2.1,0.4-3.2,0.1
					c-0.9-0.3-1.7-0.7-2.4-1.4c-0.7-0.7-1.2-1.4-1.5-2.3s-0.3-1.8-0.1-2.9c0.1-0.7,0.5-2.2,1.3-4.7l2-6.5L564.5,351.2z M552.5,351.8
					l-5.1-1.5l-1.1,3.6c-0.4,1.4-0.6,2.3-0.7,2.7c-0.1,0.6,0,1.2,0.3,1.6c0.3,0.5,0.8,0.8,1.5,1c0.6,0.2,1.1,0.2,1.6,0
					s0.9-0.5,1.2-0.9c0.3-0.5,0.8-1.6,1.3-3.3L552.5,351.8z M560.1,354.1l-4.4-1.3l-0.8,2.5c-0.5,1.5-0.7,2.5-0.8,2.8
					c-0.1,0.7,0,1.3,0.2,1.8s0.7,0.8,1.3,1s1.1,0.2,1.6-0.1c0.5-0.2,0.8-0.6,1.1-1.3c0.2-0.4,0.5-1.5,1.1-3.3L560.1,354.1z"/>
			</g>
		</g>
		<g>
			<g>
				<g>
					<g>
						<path class="st2" d="M355.9,328.4c11.1,0.8,16.9,6.7,17.7,17.7c-9-2.2-19.7-1.4-31.9,2.2c-22.1,6.5-104.3,45.3-112.9,50
							l-6.6-14.7c-0.4-0.9,0-2,0.9-2.5c0,0,64-31.4,65.5-32.4C311,337.8,331.8,329.5,355.9,328.4z"/>
						<path class="st2" d="M476.6,360.4c4.8,0.8,8.4,7.4,9.9,13.2c-15.1-0.7-29.9,1.3-44.3,5.8c-16.4,5.2-59,26.7-59.5,25.7
							c0,0-3.2-8.4-4.7-13.4c18.1-8.3,37.4-16.1,50.9-21.4C467,357.1,476.6,360.4,476.6,360.4z"/>
						<path class="st2" d="M557.1,383c-8.4,3.3-16.6,6.2-24.9,8.8c-10.8,3.8-43.9,9.4-43.9,9.1l-5.3-12.2l27.2-3.4
							c18.2-3.7,32.9-9,49-17.1c1.2-0.6,1.5-0.3,1,0.9L557.1,383z"/>
						<path class="st2" d="M496.1,443.7c7.4,1.9,11.5,0.7,14.6-0.9c4.4-2.2,11.2-7.1,17.4-12.2c11.3-10.1,49.6-31,53.1-33.9
							l27.7-1.6c0.3-0.1,0.6,0.1,0.6,0.4c0,0.2-0.1,0.5-0.3,0.6c-30.9,16.3-59.6,38.2-86.8,59.9C509.9,466,498.5,459.4,496.1,443.7z
							"/>
						<path class="st2" d="M493.5,438.7c-7,0.6-13.6,2.8-19.6,6.6c-28.5,17.6-54.6,41.3-78.9,64.3c-10.9,10.3-26.3,10.8-24.7-9.1
							l19-13c16.2-12.6,25.4-21.2,39.2-32.8c5.3-4.5,12.5-10.3,20.2-15.3c18.4-11.6,28.6-16.1,39.4-15.4c1.6,0,3.9,2.5,4.5,3.9
							C494.1,431.2,495.1,435.3,493.5,438.7z"/>
						<path class="st2" d="M397.2,463.4c-11.1-2-22.6-1.6-33.3,1.4c-30.9,10.3-58.6,30.4-83.5,50.9c-0.5,0.4-1.3,0.4-1.8-0.2
							c-0.1-0.1-0.1-0.2-0.2-0.3l-9.2-22.3c2.5-1.5,31.6-20,44-27.4c12.1-7.2,22.8-13.3,35.3-18.2c9.4-3.7,18.2-5.8,28.9-5.8
							C391.4,441.5,396,457.8,397.2,463.4z"/>
					</g>
					<path class="st3" d="M397.2,463.4c1.4,9.3,0.1,13.1-7.9,24.1l-19,13c-0.4-12.1-2.6-24-6.5-35.6
						C374.6,461.9,386.2,461.4,397.2,463.4z"/>
				</g>
				<path class="st4" d="M373.6,346.1c1.1,5.5,7.2,52.3,9,56.4c0.4,1,1.6,1.4,2.6,1c0,0,0,0,0.1,0c18.2-9,40.4-18.8,56.8-24
					c14.4-4.5,29.2-6.5,44.3-5.8l3,21.2c0.5,2.8,2.1,4.4,4.6,4.3c0.3,0,0.6-0.1,0.9-0.1c12.4-3.2,26-4.4,37-7.7
					c8.3-2.5,16.9-5.6,25.3-8.9l-2.6,13.2c-0.5,2.1-0.4,2.3,0.4,2.3c0.4,0,27.3-1.1,27.3-1.1c-3.5,2.9-7.3,5.2-11.6,7.9
					c-10.1,5.8-18.5,11.4-27.7,17.3c-4.4,2.9-9.5,6.7-15.3,11.4c-6.2,5.1-11.5,8.8-15.9,10.9c-3.1,1.5-8.4,1.3-15.8-0.6
					c0.1-2.2-0.8-3.8-2.6-5c1.5-3.4,0.6-7.6-1-10.9c-0.7-1.4-1.8-2.1-3.5-2.1c-7.6,0-15.5,2.1-23.9,6.1c-2.8,1.3-8.2,4.6-16.3,9.8
					c-4.8,3.1-9.8,6.9-15.1,11.4c-13.7,11.6-28.5,23.1-44.4,34.4c5.3-7.3,9.1-16.8,7.7-24.9c-1.6-6.2-2.6-8.4-5.6-12.9
					c-2.4-3-5.9-4.9-11.4-5.5c-10.2-1-19.6,0.1-29,3.8c-12.6,4.9-24.9,11-36.9,18.2c-12.4,7.4-30.4,20.3-43.9,29.4l-41.4-97.1
					c8.6-4.6,42.4-20.6,52.2-25.7c18.4-9.6,38.6-17.9,60.7-24.5C353.3,344.5,364.6,343.9,373.6,346.1z"/>
			</g>
			<g>
				<path class="st1" d="M303.4,414.1l-16.1-36c-0.2-0.4,0-0.9,0.4-1.1l20.2-9.7c0.4-0.2,0.9,0,1.2,0.4c0,0,0,0,0,0.1l29.5,74.9
					c0.2,0.4,0,0.9-0.4,1.1l-16,8.4c-0.3,0.1-0.6,0.1-0.9,0L277.9,423c-0.4-0.3-0.9-0.2-1.2,0.2c-0.2,0.2-0.2,0.5-0.1,0.8l18.6,43.3
					c0.2,0.4,0,0.8-0.3,1.1l-18,11.2c-0.4,0.3-0.9,0.1-1.2-0.3c0,0,0-0.1-0.1-0.1l-34.1-77.9c-0.2-0.4,0-0.9,0.4-1.1l20.6-10.6
					c0.3-0.1,0.6-0.1,0.9,0l38.7,25.4c0.4,0.3,0.9,0.1,1.2-0.3C303.5,414.7,303.5,414.3,303.4,414.1z"/>
				<path class="st1" d="M413.2,439.7l3.2,17.5c0.1,0.4-0.1,0.8-0.4,1l-12.2,8.1c-0.4,0.3-1,0.2-1.3-0.3c-0.1-0.1-0.1-0.2-0.1-0.3
					L392.1,411c-0.1-0.4,0.2-0.9,0.6-1l45.1-20.2c0.5-0.2,1,0,1.3,0.5c0,0.1,0.1,0.2,0.1,0.3l1.4,11.2c0.1,0.4-0.2,0.8-0.5,1
					L410,416.9c-0.4,0.2-0.6,0.6-0.5,1.1l1.2,5.7c0.1,0.5,0.6,0.8,1.1,0.7c0.1,0,0.1,0,0.2-0.1l24.9-11.1c0.5-0.2,1,0,1.3,0.5
					c0,0.1,0.1,0.2,0.1,0.3l0.9,11.7c0,0.4-0.2,0.8-0.5,0.9L414,438.7C413.4,438.9,413.1,439.3,413.2,439.7z"/>
				<path class="st1" d="M506.8,408.6c-11.5,3.7-1.4,26,9,15.6c1.3-1.2,1.1-4.3,1.1-6.1c0-0.6,0.5-1.1,1.1-1.1c2.7,0,0.2,0,5.9,0
					c0.6,0.1,0.4,0.2,0.5,0.9c1,8.4-1,14.4-8.6,16.6c-26,7.3-30.6-37.2-5.1-35.2c5.4,0.4,9.2,3.4,11.6,9.1c0.3,0.9,0.1,1.4-0.8,1.7
					l-5.1,1.3c-0.6,0.1-1.2-0.1-1.6-0.5C512.2,408.4,509.6,407.7,506.8,408.6z"/>
			</g>
		</g>
	</g>
	<g>
		<g>
			<path class="st1" d="M213.1,596.8c-3.2,5.6-6.6,9.1-12.2,12.9c-1.1-1.8-1.8-2.8-3.5-4.5c5.7-3.5,8.1-5.9,10.8-10.7L213.1,596.8z
				 M201,586.7c1.6-0.4,2.2-0.9,3.2-2.5c1.4-2.6,2.9-5.7,3.9-7.8h-4c-2.5,0-4.1,0.1-5.8,0.3V571c2,0.2,3.5,0.3,5.7,0.3h6l0.7-1.7
				c0.6-1.6,0.7-2,0.9-3.5l6.3,1.1c-0.7,1.1-1,1.5-1.3,2.3l-0.7,1.8h19.9c2.3,0,4-0.1,5.8-0.3v5.7c-1.9-0.2-3.6-0.3-5.8-0.3h-21.4
				c-1.4,2.7-2.8,5.5-5.1,10h8.6v-3.3c0-0.6,0-1.3-0.2-3.4h6c-0.1,1.1-0.1,1.7-0.2,3.3v3.4h9.3c2.1,0,3.6-0.1,5.5-0.3v5.7
				c-1.8-0.2-3.3-0.3-5.5-0.3h-9.3v15.1c0,2.2-0.8,3.8-2.3,4.4c-1,0.4-2.4,0.5-4.7,0.5c-0.9,0-0.9,0-4.9-0.1
				c-0.2-2.2-0.4-3.2-1.2-5.3c2.3,0.3,3.9,0.4,5.6,0.4s1.9-0.1,1.9-1.2v-13.8h-10.7c-2.4,0.1-4,0.2-4.9,0.2c-0.2,0-0.4,0-0.6,0
				L201,586.7z M238.4,609.9c-2.5-3.5-2.6-3.7-4.5-5.7c-4.1-4.7-4.3-4.8-6.3-6.5l4.4-3.3c4.6,4.2,8.5,8.3,11,11.6L238.4,609.9z"/>
			<path class="st1" d="M287.2,604.6c0,1.2,0.6,1.3,4.6,1.3c3.2,0,4.6-0.2,5.1-0.8c0.4-0.5,0.6-2.1,0.6-4.4c0-0.2,0-0.5,0-0.9
				c1.8,0.8,3.1,1.2,5.3,1.5c-0.3,4.1-0.5,4.8-0.9,6c-1.1,3-2.5,3.4-11,3.4c-4.5,0-6.1-0.1-7.3-0.7c-1.1-0.5-1.6-1.4-1.6-3.3V597
				h-5.3c-0.3,3.7-1.7,6.7-4,9.2c-2.6,2.7-6.4,4.5-12.2,5.7c-0.8-2.1-1.5-3.2-3-4.9c4-0.5,5.8-0.9,7.7-1.8c3.8-1.7,5.6-4.1,6.1-8.2
				h-6.4c-2.6,0-4.7,0.1-6,0.3v-5.2c1.4,0.2,3.3,0.3,6,0.3h30.7c2.8,0,4.6-0.1,6-0.3v5.2c-1.4-0.2-3.4-0.3-6-0.3h-8.4L287.2,604.6
				L287.2,604.6z M285.5,568.8v-0.4c0-0.9,0-1.6-0.2-2.6h5.6c-0.1,1-0.2,1.7-0.2,2.6v0.4h6c2.6,0,4.2-0.1,5.8-0.3v5.3
				c-1.5-0.2-3.1-0.2-5.8-0.2h-6v0.4c0,1.1,0,1.6,0.1,2.6h-5.5c0.1-0.8,0.1-1.4,0.1-2.5v-0.5H274v0.3c0,1.2,0,1.7,0.1,2.7h-5.5
				c0.1-0.9,0.2-1.6,0.2-2.6v-0.4h-5.4c-2.7,0-4.2,0-5.8,0.2v-5.3c1.6,0.2,3.3,0.3,5.8,0.3h5.4v-0.4c0-0.9-0.1-1.7-0.2-2.6h5.6
				c-0.1,0.9-0.2,1.7-0.2,2.6v0.4H285.5z M277.3,578.5c-0.4-0.7-0.7-1.2-1.5-2.4l4.7-2.2c1.4,1.8,1.6,2.1,2.8,4.6h13
				c2.7,0,3.8,0,5.4-0.2c-0.1,0.9-0.1,1.5-0.1,3.1v4.3c0,1.5,0,2.3,0.2,3.3h-5.4v-6h-32.1v6H259c0.1-1,0.2-1.9,0.2-3.3v-4.2
				c0-1.5,0-2.2-0.2-3.2c1.5,0.1,2.5,0.2,5.2,0.2L277.3,578.5L277.3,578.5z M293.6,589.9c-1.1-0.1-2.6-0.2-5.2-0.2H272
				c-2.7,0-4.1,0-5.3,0.2v-4.6c0.9,0.1,2.8,0.2,5.3,0.2h16.4c2.4,0,4.2-0.1,5.2-0.2V589.9z"/>
			<path class="st1" d="M326.9,587.4v14.2c0,2.7,0,4.2,0.3,5.8h-6.1c0.2-1.9,0.3-3.5,0.3-5.8v-15.1c0-1.5,0-2.8-0.2-4.3
				c1.6,0.1,3,0.2,5.1,0.2h10.4V577h-13.1c-2.3,0-4.2,0.1-6.1,0.3v-5.7c1.9,0.2,3.7,0.3,6.2,0.3h13.1c-0.8-1.7-1.4-2.7-2.7-4.5
				l5.6-2.1c1.7,2.5,2.3,3.9,3.4,6.5h13.2c2.7,0,4.5-0.1,6.2-0.3v5.7c-1.6-0.2-3-0.3-6.1-0.3h-14.2v5.4h11.5c2.2,0,3.4,0,4.9-0.2
				c-0.1,1.3-0.2,2.5-0.2,4.3V601c0,4.5-1.4,5.6-7.2,5.6c-1.2,0-2,0-4.1-0.2c-0.3-2.3-0.4-3-1.3-5.3c2.3,0.3,3.8,0.5,4.9,0.5
				c2.1,0,2.5-0.2,2.5-1.5v-12.9h-10.8v18.4c0,2.4,0.1,4.1,0.3,6.1h-6.2c0.2-2,0.3-3.8,0.3-6v-18.4h-9.9V587.4z"/>
			<path class="st1" d="M416.5,569.9c2.7,0,4.5-0.1,5.8-0.3v5.6c-1.8-0.2-3.5-0.3-5.8-0.3h-14.3l-0.1,3.5h13.5c2.1,0,3.3,0,4.5-0.2
				c-0.1,1.3-0.2,2.5-0.2,4.4v23.1c0,4.7-1.3,5.7-7.1,5.7c-1.4,0-2.7,0-4.7-0.1c-0.1-2-0.4-3.3-1.3-5.3c2.1,0.2,3.9,0.4,5.5,0.4
				c1.9,0,2.3-0.2,2.3-1.2v-21.9h-29.1v23.1c0,3,0,4.1,0.2,5.6h-5.9c0.2-1.5,0.3-3.1,0.3-5.9v-23.3c0-1.8,0-3.1-0.2-4.4
				c1.5,0.1,2.7,0.2,4.9,0.2h11.9l0.1-3.5h-13.4c-2.3,0-4.1,0.1-5.8,0.3v-5.6c1.6,0.2,3.3,0.3,5.8,0.3H397c0-0.5,0-0.7,0-1
				c0-1.3,0-2-0.2-3.1l6.1,0.3c-0.2,1.3-0.3,1.8-0.4,3.8h14V569.9z M401.2,589c1.3-2,1.9-3.3,2.8-5.7l5.1,1
				c-0.9,2.1-1.6,3.3-2.5,4.6h1.3c2.1,0,2.9,0,4.2-0.2v4.9c-1.4-0.1-2.3-0.2-4.3-0.2H402v3.7h7c2.2,0,3,0,4.2-0.2v4.8
				c-1.2-0.1-2.2-0.1-4.2-0.1h-7v3.1c0,2.6,0,4.2,0.3,5.9h-5.7c0.2-1.7,0.2-3.3,0.2-5.9v-3.1H391c-2,0-3,0-4.5,0.2v-4.9
				c1.3,0.1,2.3,0.2,4.7,0.2h5.7v-3.7h-5.4c-1.9,0-2.6,0-3.8,0.2v-4.9c1.3,0.1,2.2,0.2,4.3,0.2h0.6c-0.4-1.2-1.2-2.8-2-4.1l4.5-1.6
				c1,1.8,1.8,3.5,2.6,5.7L401.2,589L401.2,589z"/>
			<path class="st1" d="M446.8,578.8c1.3,0,2.7,0,3.5-0.1v5.2c-1.1-0.1-2.1-0.2-3.4-0.2h-0.3V595c1.9-1,1.9-1,3.3-1.9v5.4
				c-3.3,2.1-6,3.5-10.2,5.4c-0.2,0.1-0.9,0.4-2.1,1l-1.3-5.7c1.4-0.3,3-0.9,5.2-1.8v-13.6h-0.8c-1.4,0-2.5,0.1-3.7,0.2v-5.3
				c1.2,0.1,2.2,0.2,3.7,0.2h0.7v-6.7c0-2.5-0.1-4-0.3-5.5h5.7c-0.2,1.6-0.3,2.9-0.3,5.6v6.6h0.3V578.8z M457,578.1c0,1,0,2.8,0,5.3
				h5.1c1.6,0,2.9,0,4-0.2c0,0.4,0,0.4,0,1.3c0,0,0,0.4,0,0.9c0,2.4-0.3,8.8-0.6,10.7c-0.7,6.4-1.6,7.6-6.1,7.6
				c-0.9,0-1.6,0-2.9-0.1c-0.1-2-0.2-2.8-0.8-4.7c-1.2,5.3-2.7,8.6-5.8,12.5c-1.4-1.7-2.3-2.4-4.4-3.6c2.1-2.4,3.2-4.1,4.2-6.5
				c1.7-4.4,2.5-11.2,2.5-21.5c0-3.9,0-5.8-0.2-7c1.2,0.2,3,0.3,4.9,0.3h9.8c-0.1-1.8-0.1-1.9-0.1-3.8c0-1-0.1-2-0.2-3h5.6
				c-0.2,1.1-0.2,2.2-0.2,4.1c0,0.9,0,1.6,0,2.7h4.8c0.6,0,0.7,0,1.1,0c-1.9-2.1-2.9-2.9-5.2-4.4l3.3-2.7c2.1,1.3,3.4,2.4,5.3,4.4
				l-3,2.7c1.6,0,2.6-0.1,3.6-0.3v5.5c-1.6-0.1-3.9-0.2-5.8-0.2H472c0.3,5.9,0.8,9.8,1.7,13.5c1.4-3.2,2.6-7.3,3-9.9l5.3,1.7
				c-0.5,1.3-0.9,2.3-1.8,4.8c-1.6,4.5-2.8,7.2-4.6,10.1c1,2.8,3,6.6,3.3,6.5c0.3,0,0.6-2,1.1-6.6c1.4,1.5,2.4,2.4,3.8,3.3
				c-0.8,6.8-2.1,9.6-4.6,9.6c-2.2,0-4.9-3-7-8c-2.6,3.1-5.3,5.4-9.3,7.9c-1.1-1.9-2-2.9-3.7-4.2c5.1-2.6,8.3-5.3,11.1-9.1
				c-1.9-6.6-2.7-11.5-3.2-19.7H457V578.1z M456.8,588.3c-0.2,4.4-0.5,7-1.2,10.3c0.7,0.1,2.5,0.3,3,0.3c1,0,1.5-0.2,1.6-0.8
				c0.4-1.6,0.7-5.1,0.8-9.8H456.8z"/>
			<path class="st1" d="M508.7,578.8c1.8,0,2.5,0,3.3-0.2v5.2c-1-0.1-1.9-0.2-3.5-0.2h-0.9v13.5c2.7-1.2,2.7-1.2,4.7-2.3l0.1,5.3
				c-4.5,2.4-7.2,3.6-12.2,5.5c-1.4,0.5-1.8,0.7-2.6,1.1l-1-5.7c1.4-0.2,3.1-0.7,5.9-1.8v-15.6h-1.1c-1.9,0-2.7,0-3.9,0.2v-5.3
				c1.1,0.2,1.9,0.2,3.9,0.2h1.1v-6.4c0-2.6-0.1-4.2-0.3-5.7h5.7c-0.2,1.6-0.3,3-0.3,5.8v6.3h1.1V578.8z M514,588.8
				c-1.5,0.5-2,0.7-3,1.1l-1.2-5.4c1.4-0.2,3.1-0.5,4.8-1.1l0.4-0.1v-6.8c0-2.4,0-3.6-0.3-5.3h5.8c-0.2,1.6-0.3,3-0.3,5.1v5.4
				l4.8-1.5v-8.6c0-2.3,0-3.3-0.2-5h5.8c-0.2,1.6-0.3,3.2-0.3,5.1v6.9l7.1-2.2c1.9-0.6,2.7-0.9,4.1-1.5c-0.1,2.2-0.1,2.5-0.2,5.2
				c-0.2,7-0.6,11.5-1.1,13.6c-0.6,2.8-1.9,3.7-5.6,3.7c-0.7,0-1.2,0-2.3-0.1c-0.2-2.1-0.6-3.6-1.3-5.1c1.1,0.3,2,0.4,2.8,0.4
				c1.3,0,1.5-0.2,1.7-1.2c0.2-1.7,0.4-4.7,0.6-9.6l-5.7,1.8V596c0,2,0.1,3.4,0.3,5h-5.8c0.2-1.7,0.2-2.8,0.2-5.1v-10.5l-4.8,1.5
				V604c0,1,0.3,1.3,1.4,1.5c1.3,0.2,3.1,0.3,6.7,0.3c5.9,0,7.5-0.2,8.2-1.3c0.6-0.8,0.9-2.5,0.9-5.9c1.6,0.7,3.7,1.3,5.4,1.6
				c-0.6,9.9-1.6,10.6-15.8,10.6c-4.9,0-7.3-0.2-9.1-0.8c-2.2-0.6-3-1.9-3-4.5v-17.1L514,588.8z"/>
			<path class="st1" d="M578.5,569.3c-0.5-1.3-0.6-1.4-1.4-2.6l6-1.2c0.7,1.2,1,1.7,1.6,3.8h11c2.5,0,4-0.1,5.7-0.3v5.3
				c-1.6-0.1-3-0.2-5.7-0.2h-2.8c-0.3,1-0.3,1-1,3.5c-0.2,0.8-0.6,1.8-1.3,3.5h5.8c2.8,0,4.5-0.1,6.1-0.3v5.4c-0.3,0-0.5,0-0.6-0.1
				c-0.7,0-3.5-0.1-5.5-0.1h-30.1c0,0.6,0,1.1,0,1.5s0,0.8,0,1c0,0.5,0,1.1,0,1.7c0,10.5-1.4,15.8-5.7,21.8c-1.4-2.2-2-3-3.9-4.9
				c2.8-4.3,3.4-5.9,4-11c0.3-3,0.3-3.5,0.3-11.8c0-0.8-0.1-2.2-0.2-3.5c1.5,0.2,2.7,0.2,5.6,0.2h5.4c-0.6-2.9-1.3-5.3-2-7h-3.3
				c-2.7,0-4.2,0-5.7,0.2V569c1.5,0.2,3.1,0.3,5.7,0.3H578.5z M585,581.1c1.3-3.6,1.5-4.1,2.1-7h-11.7c1,2.7,1.6,4.8,2,7H585z"/>
		</g>
		<g>
			<path class="st1" d="M283.8,659c3.1,0.5,5.7,0.7,9.8,0.7c2.9,0,5.2-0.1,9.5-0.4c-0.9,2.2-1.2,3.3-1.5,5.6
				c-3.2,0.1-5.1,0.2-7.9,0.2c-7.9,0-13.2-0.8-17.1-2.7c-3.5-1.7-6.2-4.1-8.3-7.5c-2,4.6-3.9,7.6-6.7,10.9c-1.5-1.8-2.4-2.6-4.3-3.9
				c3.1-3.2,4.9-5.9,6.6-10c1.5-3.5,2.5-7.7,2.6-10.4l5.5,1.1c-0.2,0.7-0.3,1.2-0.6,2.7c-0.3,1.5-0.3,1.6-0.8,3.5
				c1.9,4.1,4.5,6.9,8,8.6v-18.1h-9.5c-2.2,0-3.7,0-5.2,0.2c0.1-1.3,0.2-2.4,0.2-4.2V626c0-1.7,0-2.7-0.2-4.1
				c1.6,0.2,3.2,0.2,5.7,0.2H292c2.7,0,4.3,0,5.6-0.2c-0.1,1.3-0.2,2.3-0.2,4.1v9.3c0,1.8,0,2.9,0.2,4.2c-1.5-0.1-2.9-0.2-5.1-0.2
				h-8.8v6.6h11c2.7,0,3.8,0,5.1-0.2v5.5c-1.5-0.2-2.8-0.2-5.1-0.2h-11L283.8,659L283.8,659z M269.3,627.1v7.5h22.8v-7.5H269.3z"/>
			<path class="st1" d="M327.8,637.1h1.1c1.6,0,2,0,3.2-0.2v5.1c-1.1-0.1-2.1-0.2-3.2-0.2h-1.1v8c2.4-1.2,3-1.5,5.3-2.8v5.4
				c-3.3,2.1-7.3,4.1-13.2,6.7c-0.5,0.2-1.2,0.5-2,1l-1.4-5.8c1.6-0.4,3.8-1.2,6.2-2.2v-10.3H321c-1.4,0-2.3,0-3.4,0.2v-5.2
				c1.1,0.2,1.9,0.2,3.5,0.2h1.5v-9.3h-1.4c-1.9,0-2.8,0-4.2,0.2v-5.4c1.3,0.2,2.6,0.3,4.5,0.3h7.5c1.8,0,3.1-0.1,4.4-0.3v5.3
				c-1.3-0.1-2.4-0.2-4.1-0.2h-1.6v9.5H327.8z M343.1,652.5c-4,3.6-6.8,5.8-9.6,7.8c-0.6,0.4-1.3,0.9-1.8,1.4l-2.8-5.4
				c3.1-1.3,7.8-4.5,12.2-8.3L343.1,652.5z M343.8,625.5c0-1.7-0.1-3.4-0.3-5.1h5.8c-0.2,1.4-0.2,2.7-0.2,4.5v4.2h8.5
				c1.8,0,3.5-0.1,4.9-0.3v5.4c-1.4-0.2-3-0.3-4.5-0.3h-9c0.3,2.9,2.4,8.2,4.8,12.4c2.9,4.9,5.8,8.2,9.9,11.1
				c-1.3,1.6-2.2,3.2-3.2,5.3c-3-2.3-5-4.6-7.2-7.9c-2.3-3.5-3.3-5.9-4.6-10.4c0.2,4.1,0.3,5.9,0.3,7.9v9.3c0,2-0.4,2.9-1.7,3.5
				c-0.9,0.4-2.7,0.7-5,0.7c-1.2,0-2.2,0-4.6-0.2c-0.2-2.1-0.6-3.5-1.4-5.2c2.3,0.3,4.3,0.5,5.7,0.5c1.4,0,1.8-0.2,1.8-1.2V634h-7.1
				c-1.7,0-3.2,0.1-4.6,0.2v-5.3c1.4,0.1,2.9,0.2,4.8,0.2h6.8v-3.6H343.8z M337.9,646.6c-1.7-3.8-3-5.9-5.5-9.1l4.3-2.5
				c2.5,3.2,3.7,5.1,5.5,8.7L337.9,646.6z M357,628.8c-2.1-2.1-3.8-3.4-6.7-5.4l3.5-3.2c3,2,4.6,3.2,6.6,5.1L357,628.8z
				 M352.4,642.8c2-2.2,3.6-4.6,5.1-8l4.4,2.9c-1.9,3.2-3.9,6-5.9,8.5L352.4,642.8z"/>
			<path class="st1" d="M387.2,660.4c0,2.1,0,3.8,0.2,5.7h-5.7c0.2-1.9,0.3-3.4,0.3-5.8V646c0-0.8,0-2.7,0.1-5.6
				c-1.8,2.9-2.2,3.4-3.5,4.8c-0.6-2.1-1.3-4.1-2.3-5.9c3.3-3.4,6-7.8,7.9-13.2c0.9-2.5,1.5-4.7,1.7-6.3l5.6,1.6
				c-2,6.1-2.6,7.6-4.5,11.4v27.6H387.2z M393.9,655.4c-2.6,0-3.6,0-4.9,0.2v-5.1c1.4,0.2,1.5,0.2,4.4,0.2v-24.6
				c0-2.2,0-3.1-0.1-4.4c1.2,0.1,2.1,0.2,4.6,0.2h16.5c2.4,0,3.3,0,4.6-0.2c-0.1,1.2-0.2,2.4-0.2,4.5v24.6c2.4,0,2.9,0,4.3-0.2v5.2
				c-1.6-0.2-2.7-0.2-4.8-0.2h-4.6c3.2,1.5,6.3,3.3,10,5.6l-3.1,4.7c-5.3-3.8-6-4.3-12.4-7.5l2.2-2.7h-9l2.6,2.3
				c-4.3,4-7.1,5.8-12.5,8c-1-1.7-1.7-2.6-3.6-4.6c5.6-1.8,7.7-2.9,10.9-5.7h-4.9V655.4z M398.4,629.2h15v-2.9h-15V629.2z
				 M398.4,636.3h15v-2.9h-15V636.3z M398.4,643.3h15v-2.8h-15V643.3z M413.4,647.7h-15v3h15V647.7z"/>
			<path class="st1" d="M452.9,649.5c-3.7,6.3-6.8,10-12.2,14.1c-0.9-1.6-1.6-2.4-3.7-4.5c5.2-3.6,7.9-6.5,11-11.9L452.9,649.5z
				 M444.7,644.2c-1.8,0-3.7,0.1-5.4,0.3l-1-5c1.2-0.4,1.8-0.9,2.2-2c1.6-4.6,2.6-9.7,2.8-15.3c1.5,0.1,2.1,0.1,3.1,0.1
				c5,0,12.3-0.4,16.7-0.9c4.1-0.5,6.5-0.9,9.6-1.9l3.9,4.8c-8.1,1.7-13.3,2.2-28.1,2.8c-0.6,4.3-1.3,7.3-2.7,11.9h11.6v-6.4
				c0-2.1,0-2.5-0.2-3.4h6c-0.1,0.9-0.2,2.4-0.2,3.3v6.4h12c2.2,0,3.6-0.1,5.5-0.3v5.7c-1.7-0.2-3.3-0.3-5.4-0.3h-12v16.6
				c0,2.5-0.9,3.9-2.8,4.5c-1.1,0.3-2.6,0.5-5.4,0.5c-1.7,0-2.4,0-4-0.2c-0.2-2-0.5-3.2-1.4-5.6c2.8,0.3,4.6,0.5,6,0.5
				c1.6,0,1.9-0.1,1.9-1.2V644h-12.7V644.2z M477.8,663.6c-2.9-4.7-6.4-8.9-11.2-13.5l5.1-2.9c4.2,4,7,7.3,11.1,12.5L477.8,663.6z"
				/>
			<path class="st1" d="M511.6,638.4c1.2-2.9,1.9-5.1,2.6-8.1l5.1,1.3c-0.7,2.4-1.5,4.5-2.6,6.8h1.5c2.1,0,3.3,0,4.3-0.2v5.5
				c-1.1-0.2-2.4-0.2-4-0.2h-16.6c-2.4,0-3.5,0-5,0.2v-5.5c1.3,0.2,2.5,0.2,5,0.2H511.6z M507.3,625c-0.4-1.2-0.9-2.3-1.8-3.9
				l5.3-1.4c1,2.1,1.5,3.2,2.2,5.4h4.6c2.2,0,3.3,0,4.5-0.2v5.4c-1-0.2-2-0.2-4.1-0.2h-16c-1.8,0-3,0-4.1,0.2v-5.4
				c1.1,0.2,2.3,0.2,4.7,0.2L507.3,625L507.3,625z M505,665.7h-5.4c0.1-1.4,0.2-2.6,0.2-4.7v-10.8c0-2,0-2.9-0.1-4.1
				c1.1,0.1,2.1,0.1,4,0.1h12.8c2,0,2.9,0,3.6-0.1c-0.1,0.9-0.1,1.5-0.1,3.7v12c0,1.7,0,2.6,0.2,3.7h-5.5v-2.8H505V665.7z
				 M505.8,629.9c1.1,2.3,1.8,4.2,2.6,6.9l-4.9,1.5c-0.7-3-1.2-4.7-2.3-6.9L505.8,629.9z M505,658.1h9.7v-6.9H505V658.1z
				 M542.8,624.7c-0.3,0.6-0.5,1-1,2.2c-1.7,4.4-3.3,7.8-5.4,11.8c2.7,3.1,3.8,4.8,4.8,7.2c0.9,2.1,1.4,4.7,1.4,6.8
				c0,3.2-1.3,5.5-3.5,6.2c-1.3,0.5-2.5,0.6-5.1,0.6c-0.9,0-1.4,0-2.5-0.1c-0.1-2.6-0.3-3.8-1.1-5.4c1.3,0.2,2.3,0.3,3.7,0.3
				c2.5,0,3.3-0.5,3.3-2.2c0-2-0.5-4.2-1.6-6.3c-1.1-2.3-2.3-3.7-5.2-6.4c2.9-5.3,4.4-8.8,5.5-13h-6.9v33.8c0,2.7,0.1,4.4,0.3,5.8
				h-5.8c0.2-1.6,0.3-3.5,0.3-5.7v-34.9c0-1.4,0-2.8-0.2-4.2c1.3,0.1,2.4,0.2,4.1,0.2h8.6c1.9,0,3,0,3.9-0.2L542.8,624.7z"/>
		</g>
	</g>
</g>
</svg>
