<?xml version="1.0" encoding="utf-8"?>
<!-- Created by @FCLOGO 2025-2-16 GMT+8 16:50:28 . https://fclogo.top/ -->
<!-- FOR PERSONAL USE ONLY NOT FOR COMMERCIAL USE -->
<svg version="1.1" xmlns="http://www.w3.org/2000/svg" xmlns:xlink="http://www.w3.org/1999/xlink" x="0px" y="0px"
	 viewBox="0 0 800 800" style="enable-background:new 0 0 800 800;" xml:space="preserve">
<g>
	<path style="fill:#D1202A;" d="M211.5713,621.7285c1.1444,0.1273,2.2886,0.3615,3.4333,0.3643
		c6.9065,0.0172,13.8132-0.0206,20.7199-0.0313c0.3752-0.0005,0.7504,0.0767,1.3305,0.1401
		c-0.7833,3.0977-1.8111,6.0308-2.2208,9.0479c-0.6129,4.514-1.0887,9.0859-1.1057,13.6352
		c-0.1045,27.9406-0.0639,55.882-0.0683,83.8231c-0.0001,0.48,0.0412,0.9599,0.0778,1.7598
		c0.843,0.1237,1.6532,0.3533,2.4605,0.3434c6.4151-0.0787,12.83-0.1893,19.2444-0.3165c6.541-0.1298,12.6083-2.0688,18.4343-4.9043
		c1.4515-0.7064,2.9049-1.4088,4.9829-2.4164c-2.1979,7.7889-4.2155,14.9384-6.2709,22.2225c-20.0738,0-40.0811,0-60.3627,0
		c0.2941-0.9597,0.5032-1.7751,0.7917-2.5615c1.7909-4.8815,2.7575-9.9189,2.7788-15.1173
		c0.1025-25.1155,0.2459-50.2311,0.2256-75.3464c-0.0049-6.1124-0.3935-12.2408-0.9482-18.3306
		c-0.3553-3.9006-1.1907-7.7914-3.5031-11.1437C211.5713,622.5074,211.5713,622.118,211.5713,621.7285z"/>
	<path style="fill:#D1202A;" d="M370.4325,346.0769c-2.369,0.8201-2.3814,2.54-2.2892,4.1692
		c0.3092,5.4678,1.4884,10.7696,3.3385,15.9165c3.8026,10.5788,9.925,19.7657,17.1097,28.2936
		c10.1854,12.0896,21.5229,23.0057,33.7551,33.0023c0.6019,0.4919,1.1943,0.9968,1.7684,1.5206
		c0.2823,0.2576,0.5126,0.5724,0.6175,0.6918c-3.4364,27.1938,2.6356,50.5753,25.6129,67.7768
		c-2.3611,2.3164-5.0776,2.2819-7.8623,1.8053c-5.8131-0.995-11.261-2.9248-16.0751-6.4388
		c-0.3633-0.2652-0.8377-0.378-1.484-0.6587c-0.1398,0.7547-0.3751,1.299-0.3148,1.8083c1.003,8.4819,1.8943,16.9808,3.1083,25.4331
		c2.0192,14.058,5.1996,27.882,9.3091,41.4675c1.4278,4.72,3.4195,9.293,5.444,13.8025c2.7136,6.0446,8.0271,8.1731,14.1999,8.476
		c3.1918,0.1566,6.4076-0.1071,9.6097-0.2461c4.2058-0.1825,8.3539,0.0551,12.3325,1.567c0.9916,0.3768,1.965,0.8621,2.8525,1.442
		c3.299,2.1556,4.1779,5.2599,2.5816,8.8528c-1.2347,2.7791-4.4691,5.7169-7.8755,6.986c-1.6007-3.374-4.5208-5.3927-8.0215-6.4994
		c-2.3927-0.7565-4.8832-1.2647-7.3651-1.6668c-13.8123-2.2379-27.7098-2.0891-41.595-1.0605
		c-6.8524,0.5075-13.8024,0.8522-20.3189,3.4102c-2.2426,0.8804-4.3994,2.0353-6.4774,3.2646
		c-2.4005,1.4199-3.6157,3.6948-3.7905,6.8577c-1.5777-0.4981-3.0667-0.7009-4.2714-1.3967
		c-4.248-2.4536-4.3954-7.9283-0.3855-11.2912c1.1591-0.972,2.3888-1.8598,4.1096-3.1912
		c-3.9049-1.346-6.9828-0.4508-10.0762,0.4736c-3.308,0.9885-5.3219,3.3754-6.7796,6.2972
		c-3.8241-1.4662-5.1146-5.5908-2.8969-9.0897c2.8133-4.4385,7.1074-5.7314,12.0686-5.5455
		c1.0375,0.0389,2.0778,0.0057,3.2863,0.0057c0.0701-0.7316,0.1672-1.2782,0.1676-1.8248c0.0029-3.6235,1.1938-5.1954,4.8606-6.137
		c3.5944-0.923,7.1206-0.1048,10.6846,0.4424c5.9178,0.9087,11.2912,3.5125,16.9728,5.1353
		c1.6628,0.475,3.4167,0.8021,5.1396,0.8572c3.2103,0.1027,4.8167-2.0488,3.9837-5.1753c-0.2718-1.02-0.7485-2.0013-1.2387-2.9445
		c-8.1527-15.6844-13.9873-32.2515-18.097-49.3854c-2.5781-10.7487-4.3329-21.695-6.4711-32.55
		c-0.1053-0.5342-0.3452-1.0418-0.7052-2.0979c-4.4847,4.5347-8.3256,9.3172-14.6662,11.5323
		c2.9701-8.7344,4.2758-17.3036,3.3864-26.1045c-0.774-7.66-2.3963-15.1317-5.4662-22.4611
		c-2.0476-0.356-4.1268-0.7821-6.2248-1.0725c-24.8041-3.4324-48.5362-10.5482-71.2045-21.1161
		c-13.2984-6.1997-25.4675-14.1877-35.8017-24.7336c-12.8451-13.1083-20.886-28.7021-23.3404-46.9341
		c-2.4156-17.9442,0.2371-35.1004,7.8271-51.7036c8.4103-18.3976,21.1214-33.2294,36.2366-46.188
		c9.5196-8.1614,19.4628-15.827,29.1839-23.7545c7.9864-6.5129,15.9729-13.0416,22.7752-20.8413
		c3.938-4.5155,7.0233-9.4789,8.0246-15.5913c1.4853-9.067-4.9562-18.1886-14.0811-19.6998
		c-4.869-0.8064-9.6536-0.4618-14.4714,0.5419c-5.6957,1.1866-11.4517,2.0808-17.1671,3.1777
		c-0.781,0.1499-1.7543,0.5488-2.1692,1.1544c-2.7989,4.0852-5.4734,8.2558-8.1745,12.4076
		c-0.0884,0.136-0.0305,0.3673-0.0598,0.9004c3.185,0.2522,6.6623-0.4764,9.488,1.5032c2.686,1.8817,5.1792,4.0391,7.8703,6.1647
		c3.5004-0.4229,6.4695-2.4399,9.8557-4.2721c-0.3788,1.3486-0.582,2.7794-1.1674,4.0312
		c-2.2561,4.8244-6.0304,8.1275-11.007,9.8295c-4.9742,1.7011-9.5119,0.2894-13.1247-3.3019
		c-2.0286-2.0164-3.4484-4.6555-5.0817-7.0555c-0.5335-0.784-0.8753-1.6986-1.4818-2.9058c-2.5702,1.9789-4.93,3.7957-7.3962,5.6946
		c1.8359,5.6394-0.6504,9.6315-4.7961,12.9855c-0.4531,0.3666-0.8793,0.7676-1.3077,1.1637
		c-3.1637,2.925-5.9488,6.0097-4.284,10.8227c-5.4545,0.6449-10.1074-3.1077-10.6288-8.1458
		c-0.4446-4.2961,0.693-8.0037,4.0078-10.7211c2.9143-2.3892,6.1135-4.4387,9.2448-6.5521
		c2.9758-2.0084,6.0547-3.8638,9.0266-5.8777c0.8388-0.5684,1.4609-1.4569,2.2036-2.2204c-1.2257-1.5539-2.651-1.379-3.9023-0.9576
		c-2.6549,0.8942-5.2514,1.969-7.8468,3.0311c-3.1292,1.2806-6.1441,2.9299-9.3691,3.8652
		c-4.124,1.1961-8.0641-0.0855-11.6585-2.2161c-1.5354-0.9101-2.638-2.2971-2.5006-4.2818c0.1991-0.1205,0.4032-0.337,0.5122-0.2966
		c3.6805,1.3647,6.8182-0.2843,9.9651-1.8008c2.1854-1.0532,4.2922-2.2777,6.5084-3.2572
		c6.7348-2.9766,13.1871-2.8209,19.143,1.9755c0.3733,0.3006,0.7841,0.5547,1.4214,1.0014
		c3.6287-3.1182,5.6844-7.2154,7.9141-11.6949c-1.6543-0.7541-3.1258-1.3805-4.5576-2.0878
		c-2.1633-1.0687-2.4757-1.6968-2.1279-4.4327c3.1414-0.1724,6.3676-0.3495,9.6662-0.5305
		c1.4437-4.2366,2.6282-8.1812,2.3097-12.7475c-8.0434-0.0294-15.2777,2.6138-22.9958,5.5334
		c0.6491-3.1521,1.8076-5.5131,3.4787-7.6266c2.9418-3.7206,7.0143-5.7668,11.3148-7.4192
		c2.2522-0.8654,4.5514-1.6082,7.2774-2.5633c-0.5833-1.8693-0.9822-3.6258-1.6807-5.2536
		c-0.7193-1.6763-1.7305-3.2271-2.7099-5.0071c2.6155-0.4952,5.1068-0.9668,7.9534-1.5058
		c1.3323,3.4778,2.6397,6.8904,4.0879,10.6705c5.0415-0.178,10.1425-0.3581,15.4849-0.5468
		c-0.0576-0.7827-0.0258-1.2417-0.1329-1.6655c-0.9441-3.7341-0.2385-5.6579,2.9467-8.0001
		c3.3622-2.4723,7.2394-3.2522,11.2831-3.2963c8.022-0.0877,15.869,1.0942,23.5323,3.4924
		c10.0919,3.1582,20.1305,6.5089,30.3081,9.3623c6.1428,1.7222,12.458,3.0538,18.7854,3.8178
		c4.774,0.5765,9.4848-0.7664,13.3474-3.9811c1.0057-0.837,1.7414-1.9989,2.697-3.1246c1.4124,0.8382,1.3803,2.1328,1.2308,3.5145
		c-0.4546,4.2009-2.8899,7.1004-6.1295,9.4982c-4.7607,3.5237-10.3032,5.0605-16.0121,5.6836
		c-5.292,0.5776-10.6537,0.6666-15.9324-0.7321c-1.4359-0.3805-3.0579-0.0577-5.0978-0.0577
		c0.2536,0.8173,0.3685,1.4762,0.6685,2.0358c0.1566,0.2921,0.6307,0.4258,0.9757,0.603
		c8.5569,4.394,12.9928,16.2331,11.1236,26.1925c-1.2328,6.5687-4.0087,12.4213-8.1551,17.5207
		c-7.3585,9.0497-14.898,17.9564-22.5193,26.7868c-8.2856,9.6001-16.0715,19.5158-21.4995,31.082
		c-4.7921,10.2114-7.2355,20.9242-6.4783,32.2206c0.2386,3.5591,0.9314,7.1286,1.8321,10.5849
		c0.4406,1.6908,1.6232,3.3297,2.8451,4.6425c1.9378,2.0819,4.41,2.1495,6.4589,0.1515c1.428-1.3925,2.8112-3.0802,3.526-4.9059
		c1.6563-4.2309,3.0455-8.5833,4.2734-12.9622c3.1194-11.1245,5.7112-22.412,9.2249-33.4069
		c3.7277-11.6647,9.8421-22.0885,17.9238-31.4481c8.5727-9.9283,18.6665-18.1407,28.4017-26.7823
		c11.2724-10.0061,22.8642-19.6882,33.655-30.1924c14.7483-14.3562,27.5182-30.4146,37.6549-48.4262
		c5.0179-8.9161,9.0146-18.268,11.528-28.234c1.9929-7.9022,0.9924-15.4063-2.5423-22.6506
		c-0.5084-1.0418-1.1262-2.0302-1.9396-3.4833c0.9351-0.3076,1.7195-0.7381,2.524-0.7798c0.7398-0.0383,1.5619,0.2192,2.244,0.5563
		c9.1868,4.5408,15.5677,11.1581,16.2921,22.0069c0.7297,10.9285-1.5975,21.216-6.163,31.098
		c-5.9324,12.8405-14.2736,24.0598-23.3788,34.7338c-11.7104,13.728-24.9551,25.8527-38.8262,37.3852
		c-13.9006,11.557-28.0161,22.9091-40.4501,36.1362c-12.5403,13.3403-21.3215,28.8307-26.8217,46.2457
		c-2.6025,8.2403-5.0851,16.5226-7.8902,24.6936c-2.4796,7.2226-6.5615,13.4357-12.9227,17.9082
		c-1.3459,0.9463-2.8801,1.623-4.2352,2.5579c-0.8799,0.607-1.5924,1.4569-2.219,2.0466c0.6599,2.0792,1.9013,2.1206,3.2245,2.0399
		c5.2836-0.3222,9.643-2.8596,13.7162-5.9164c7.2765-5.4608,12.1552-12.8176,15.6629-21.0562
		c2.7744-6.5162,5.2768-13.1638,7.5717-19.8657c4.345-12.6887,12.102-22.7573,22.8976-30.5216
		c9.785-7.0375,19.6565-13.9558,29.5436-20.8495c16.5199-11.5183,32.8188-23.3281,47.6691-36.9853
		c27.3231-25.1279,48.1264-54.8711,62.371-89.1565c4.9987-12.0315,8.8903-24.469,11.7005-37.1842
		c1.2502-5.6563,1.4662-11.5413,2.1591-17.3215c0.1099-0.9166,0.2594-1.8284,0.3832-2.691
		c1.9896-0.3496,2.8535,0.8636,3.6743,1.8648c4.6526,5.6748,7.5258,12.1315,8.9008,19.3833
		c1.4246,7.5135-0.6611,14.4528-2.8324,21.3984c-4.2339,13.543-11.0453,25.9065-17.9667,38.1812
		c-6.7462,11.9641-14.8732,23.0062-23.4321,33.7291c-16.8514,21.1121-36.3498,39.4257-57.9694,55.5924
		c-11.6902,8.7417-23.9859,16.5461-36.1011,24.638c-4.7674,3.1842-9.5337,6.3702-14.2838,9.5802
		c-0.7783,0.526-1.4695,1.1811-2.1654,1.7475c0.6419,1.9386,1.7171,1.8255,3.0762,1.2973c6.8713-2.67,13.7898-5.2204,20.6324-7.9614
		c3.3204-1.3301,6.5106-2.9853,9.6079-4.423c1.9023,0.6634,1.8851,2.0991,1.8549,3.4538c-0.131,5.8675-3.1002,10.3683-7.255,14.1056
		c-5.9947,5.3922-13.0408,9.1236-20.4868,12.0753c-4.7818,1.8955-9.6726,3.5142-14.4893,5.3242
		c-1.0101,0.3796-1.9097,1.0539-2.8285,1.5744c0.7706,1.9033,2.1071,1.5718,3.1564,1.4131
		c3.7393-0.5656,7.5003-1.0967,11.1718-1.9792c8.8796-2.1344,17.6116-4.7696,26.0119-8.4153c0.7835-0.34,1.6525-0.4827,2.3967-0.693
		c1.8116,0.9721,1.635,2.3429,1.1035,3.8329c-1.5867,4.4479-4.3792,7.9464-8.1714,10.7333
		c-5.8073,4.2677-12.4427,6.7948-19.1696,9.0414c-4.5915,1.5334-9.354,2.55-14.0262,3.848
		c-1.2212,0.3393-2.8773,0.4311-2.2485,2.7257c13.5603,1.3734,26.5149-2.6595,39.7987-4.6329
		c1.1019,2.4292-0.2979,4.0984-1.4579,5.8414c-5.2928,7.9527-13.406,11.607-22.1097,14.0416
		c-4.826,1.35-9.8929,1.8575-14.8669,2.6458c-1.393,0.2208-2.4522,0.4452-2.0954,2.4289c5.0569,1.2826,10.1542,1.7743,15.2712,1.924
		c5.0211,0.1469,10.0499,0.032,15.2293,0.032c0.6485,1.3648-0.4751,2.3855-1.2348,3.4226
		c-3.8038,5.1922-8.9575,8.5658-14.9252,10.7339c-4.2085,1.5291-8.5233,2.6328-13.0527,2.7143
		c-1.0137,0.0182-2.0216,0.3612-2.8733,0.5243c-0.7199,1.9254,0.606,2.433,1.5554,2.9097
		c3.7293,1.8724,7.4449,3.8064,11.3022,5.3827c11.3911,4.6552,23.2603,7.592,35.482,8.8555
		c6.6543,0.6879,13.3753,0.7295,20.0661,1.0652c0.835,0.0419,1.6692,0.0998,3.0337,0.1823
		c-0.5405,1.0353-0.7322,1.7898-1.2071,2.2549c-8.5529,8.3769-18.582,14.0965-30.4603,16.0144
		c-4.7844,0.7726-9.6741,0.1841-14.5056-0.6082c-16.3455-2.6805-30.1472-10.4694-42.518-21.0943
		c-3.4592-2.9711-6.6026-6.3108-9.8844-9.488c-0.5589-0.541-1.0222-1.2015-1.6404-1.6563c-1.2505-0.92-2.6853-0.3435-2.726,1.1939
		c-0.0267,1.0077,0.335,2.1078,0.7925,3.033c2.9971,6.06,7.0489,11.3916,11.5164,16.4276
		c7.5173,8.474,16.3081,15.5612,24.8036,22.9819c7.3174,6.3919,14.6682,12.7851,21.5251,19.6565
		c11.3742,11.3985,18.1394,25.3406,21.0681,41.1557c1.9777,10.6798,1.5933,21.2839-1.2458,31.7664
		c-0.4213,1.5555-1.3228,2.9882-2.0779,4.4382c-0.1276,0.2451-0.6414,0.2888-1.4201,0.6063
		c-0.0779-1.2713-0.3378-2.303-0.1674-3.2578c1.0636-5.9601,0.1284-11.8412-0.718-17.6976
		c-1.6925-11.7099-6.5117-22.0938-13.6646-31.4684c-5.9901-7.8505-13.0578-14.6624-20.1969-21.4203
		c-7.5551-7.1519-15.2086-14.2072-22.5724-21.5523c-11.783-11.753-19.6423-25.9775-25.3344-41.4955
		C371.6732,348.6715,371.0255,347.4121,370.4325,346.0769z M324.3053,266.2456c-0.1739-0.3011-0.3478-0.6023-0.5217-0.9034
		c-0.795,0.2116-1.7404,0.2188-2.3567,0.6732c-1.8683,1.3773-3.7075,2.8248-5.3828,4.4284
		c-7.2231,6.9141-12.9531,14.9302-17.6458,23.7602c-9.5818,18.0298-10.8969,36.817-5.2838,56.2158
		c4.2539,14.7014,12.6736,26.7483,24.0727,36.8231c10.9709,9.6964,23.7813,15.9996,37.5751,20.4849
		c0.8596,0.2795,1.9058-0.0159,2.8652-0.0438c0.0893-0.2559,0.1785-0.5119,0.2678-0.7679
		c-0.7232-0.6808-1.3846-1.4464-2.1805-2.0276c-3.1382-2.2916-6.3464-4.4875-9.4783-6.7876
		c-8.6036-6.3187-16.12-13.7773-22.288-22.4679c-9.5081-13.3966-15.1756-28.3171-17.0504-44.6946
		c-0.9141-7.9853-0.7991-15.9084,0.716-23.7766c2.6357-13.6882,7.6926-26.4385,15.2051-38.1988
		C323.3739,268.095,323.8127,267.1531,324.3053,266.2456z M308.6014,164.4447c-0.8746,4.1167-1.7022,8.0123-2.6516,12.4807
		c4.0617-0.9443,7.6009-1.5466,10.9846-2.6334c2.1642-0.6951,4.3354-1.8204,6.0785-3.2659c2.3435-1.9435,1.6638-4.7546-1.2157-5.6
		C317.4716,164.1562,313.0272,164.0915,308.6014,164.4447z M355.4256,158.3504c0.0113-0.2407,0.0227-0.4813,0.034-0.722
		c-0.4687-0.2975-0.9034-0.7638-1.4114-0.8666c-5.9741-1.2087-11.9515-2.4066-17.9536-3.4613
		c-0.5745-0.101-1.7088,0.6385-1.9252,1.2292c-1.3556,3.7003,0.9091,6.9379,4.8898,6.981c1.7208,0.0186,3.471-0.2571,5.1642-0.6093
		C347.9721,160.1218,351.6932,159.2089,355.4256,158.3504z"/>
	<path style="fill:#D1202A;" d="M332.7971,480.7312c-6.4894,5.0715-12.8451,10.4138-22.017,11.1016
		c1.9295-5.5259,3.9732-10.704,5.529-16.0248c1.5503-5.3017,2.858-10.703,3.8178-16.1409
		c0.9727-5.5113,1.3897-11.1208,2.0789-16.9303c12.5008,5.8896,25.1629,10.9598,39.0618,12.7716
		c0.6179,15.6871,3.9817,30.3955,12.6894,44.395c-2.0207-0.4023-3.4398-0.4586-4.6694-0.9707
		c-4.2451-1.7675-8.0688-4.2522-11.5323-7.2859c-0.7006-0.6137-1.4314-1.193-2.4239-2.017c-0.4234,2.7587-0.745,5.0394-1.1268,7.31
		c-1.6468,9.7935-5.913,18.4343-11.6482,26.4263c-11.5611,16.1104-23.1304,32.2149-34.6591,48.3485
		c-1.0621,1.4864-2.0422,3.0887-2.7275,4.7729c-0.8339,2.0493,0.0929,3.7177,2.2342,4.2133
		c1.3048,0.302,2.6982,0.2903,4.0524,0.2969c4.3757,0.0212,8.7637-0.2175,13.1234,0.0411c3.0647,0.1818,6.1678,0.7503,9.1144,1.6195
		c3.3386,0.9848,6.446,2.7648,6.8369,6.7127c0.4608,4.6543-1.5281,8.306-5.5135,10.793c-0.6255,0.3904-1.3722,0.5864-2.3711,0.9997
		c0.4297-3.8917-2.1662-5.4069-4.8111-6.2607c-3.9408-1.2723-8.0337-2.4134-12.1351-2.772
		c-7.2483-0.6336-14.5542-0.9001-21.8313-0.8308c-7.9591,0.0758-15.9298,0.5076-23.8623,1.1773
		c-4.1248,0.3482-8.2513,1.2926-12.2343,2.4568c-2.1489,0.6281-4.0893,2.1598-5.9541,3.5172
		c-1.7836,1.2985-2.279,3.3096-2.0151,5.8876c-1.6728-0.2843-3.2668-0.2814-4.6312-0.8401
		c-3.6057-1.4766-4.733-4.8553-3.1327-8.4299c1.2143-2.7124,3.305-4.4995,5.7977-5.9385c0.866-0.4999,1.6774-1.0945,2.5978-1.7014
		c-4.0446-3.5234-13.3024-0.257-20.3406,6.8903c-2.1285-1.0917-3.2661-2.8083-3.3868-5.2578
		c-0.1366-2.7725,0.9093-4.9376,3.283-6.3815c2.6392-1.6054,5.5589-2.2629,8.6208-2.3082c2.2263-0.033,4.4534-0.0065,6.5902-0.0065
		c0.1854-0.2974,0.3684-0.4537,0.3668-0.6083c-0.0447-4.3807,1.0635-5.7249,5.2991-7.0056
		c4.4067-1.3326,8.6311-0.6382,12.8635,0.7073c3.9679,1.2615,7.8989,2.7004,11.9434,3.6437
		c5.1574,1.2029,9.652-0.1687,12.8169-4.6728c1.5622-2.2232,2.9833-4.5494,4.4012-6.8699
		c8.4625-13.8506,17.1647-27.5732,24.0597-42.3077c5.9266-12.665,11.7303-25.3932,15.6944-38.8571
		c0.319-1.0835,0.5454-2.1943,0.8148-3.2924C333.2399,480.979,333.0185,480.8551,332.7971,480.7312z"/>
	<path style="fill:#D1202A;" d="M515.759,723.7795c-1.5715,7.7081-3.0158,14.7917-4.4931,22.0378
		c-2.2713,0.5717-4.4069,1.1573-6.5646,1.6445c-12.2214,2.7596-24.4389,3.2499-36.6097-0.2644
		c-17.1164-4.9423-28.8389-15.9587-35.7655-32.2011c-5.4662-12.8179-6.7095-26.2433-5.4362-40.0192
		c1.1156-12.0685,4.7964-23.2377,11.874-33.0747c10.4361-14.5051,24.6485-22.4305,42.5618-23.6616
		c9.3118-0.64,18.4277,0.1919,27.3613,2.912c0.9259,0.2819,1.8405,0.608,2.7428,0.9589c0.7178,0.2792,1.4086,0.6277,2.2011,0.986
		c0,7.5324,0,15.01,0,23.0112c-0.9844-1.0049-1.7309-1.8033-2.5157-2.5623c-8.8352-8.5438-19.3602-12.5621-31.6018-11.0676
		c-13.4452,1.6414-22.4659,9.4681-27.9824,21.5245c-3.6393,7.9539-5.3053,16.3962-5.5289,25.15
		c-0.2219,8.6852,0.1004,17.3045,2.5394,25.7121c2.858,9.8515,7.5334,18.5563,16.0589,24.7108
		c4.9914,3.6033,10.6185,5.483,16.7313,6.239c11.7317,1.4509,21.8105-2.2763,30.905-9.3873
		C513.2165,725.6622,514.2241,724.9319,515.759,723.7795z"/>
	<path style="fill:#D1202A;" d="M411.0416,374.8725c1.0385,0.3391,2.0967,0.6279,3.1124,1.0254
		c8.3124,3.2532,16.5643,6.6691,24.9358,9.7614c13.2089,4.8791,26.584,9.3717,38.5299,17.0646
		c17.5795,11.3209,30.0334,26.6247,35.4962,47.0513c2.9331,10.9676,3.6718,22.1017,2.1387,33.4839
		c-2.3149,17.1864-9.4653,32.3297-18.4536,46.8058c-1.3893,2.2375-1.4681,2.1884-3.8068,2.817
		c0.348-1.549,0.5961-2.9269,0.9693-4.2698c2.3002-8.2767,3.7048-16.681,3.7679-25.2928
		c0.0805-10.9879-1.8802-21.6408-5.0713-32.1153c-7.0634-23.1851-20.2274-42.582-37.5434-59.1417
		c-7.6324-7.2991-16.319-13.4952-24.5374-20.1792c-6.1829-5.0286-12.3866-10.0314-18.5663-15.0639
		c-0.4805-0.3914-0.8444-0.9263-1.2624-1.3945C410.8477,375.2406,410.9446,375.0565,411.0416,374.8725z"/>
	<path style="fill:#D1202A;" d="M352.8966,635.3794c0,12.5197,0,24.9117,0,37.2034c0.2015,0.1622,0.2745,0.2727,0.3534,0.2771
		c6.7815,0.3797,13.5916,0.8362,20.2997-0.4742c2.3987-0.4685,4.6165-1.864,7.0561-2.8953c0,7.3323,0,14.5893,0,21.7137
		c-4.4707-1.1758-8.9262-2.8244-13.518-3.4208c-4.5687-0.5934-9.2744-0.1301-14.2364-0.1301
		c-0.05,1.0089-0.1434,2.0336-0.1447,3.0583c-0.0112,9.0488,0.0032,18.0976-0.0083,27.1464
		c-0.0117,9.2409,0.2762,18.442,3.601,27.4973c-8.2084,0-16.2128,0-24.4548,0c0.4088-1.2371,0.7934-2.3198,1.1252-3.4184
		c1.612-5.3371,2.4085-10.8397,2.4301-16.3718c0.1048-26.9507,0.1342-53.9024-0.0009-80.8527
		c-0.0356-7.1058-1.1001-14.1294-4.4744-20.5823c-0.2619-0.5009-0.3485-1.0935-0.5944-1.8981c19.8621,0,39.6085,0,59.6426,0
		c0.2415,6.3332,0.4807,12.6078,0.7307,19.1629c-2.6126-1.3335-4.9458-2.6641-7.3905-3.741
		c-4.1562-1.8309-8.6408-2.243-13.0971-2.4166c-5.2428-0.2043-10.4984-0.0857-15.7485-0.0891
		C354.0036,635.1478,353.5399,635.2808,352.8966,635.3794z"/>
	<path style="fill:#D1202A;" d="M580.6638,142.9666c1.0875,1.8832,0.5389,3.6868,0.0334,5.4344
		c-2.0136,6.9621-5.3898,13.3082-8.9898,19.5416c-8.1975,14.1941-18.9207,26.3131-30.7024,37.5923
		c-22.1245,21.181-47.1444,38.3505-73.625,53.5182c-1.1752,0.6732-2.3665,1.3183-3.5557,1.9666
		c-0.0557,0.0303-0.1644-0.0368-0.4947-0.1223c3.8205-6.3237,4.4825-12.864,1.0086-19.8174
		c2.7966-1.7354,5.4968-3.4175,8.2033-5.0893c31.4831-19.4464,60.7168-41.7293,85.9975-68.9004
		c6.6132-7.1078,12.6572-14.746,18.9585-22.1442C578.2856,144.0207,578.7881,142.6948,580.6638,142.9666z"/>
	<path style="fill:#D1202A;" d="M403.8767,246.7751c1.0981-1.5278,1.9017-2.9515,2.9882-4.1094
		c9.1332-9.7331,19.3671-18.2569,29.5589-26.8276c13.3904-11.2605,27.0703-22.1844,39.5526-34.4944
		c13.7266-13.5372,25.506-28.5336,34.4486-45.6639c4.9826-9.5445,8.3089-19.6721,9.8745-30.331
		c0.2908-1.9795-0.1765-4.0621-0.1802-6.0974c-0.0015-0.8183,0.303-1.6372,0.4683-2.4559c0.2545-0.0504,0.5089-0.1009,0.7634-0.1513
		c0.8353,1.0059,1.7817,1.9398,2.4876,3.0297c4.1508,6.408,5.2469,13.4741,4.3864,20.9482
		c-0.8593,7.464-3.6708,14.2171-7.2547,20.744c-11.1329,20.2748-26.0739,37.3933-43.2002,52.7556
		c-12.1874,10.9321-25.5899,20.234-38.883,29.715c-10.2747,7.3282-20.2217,15.1172-30.2985,22.7223
		C406.6717,248.0059,406.6654,248.0566,403.8767,246.7751z"/>
	<path style="fill:#D1202A;" d="M459.7879,288.4204c5.1363-5.733,6.1146-12.4486,4.815-20.0166
		c2.2318-1.1531,4.5276-2.3482,6.8311-3.5283c22.9328-11.7477,44.2742-25.8712,63.5066-43.0575
		c6.1529-5.4982,11.89-11.4629,17.8033-17.2284c1.364-1.3298,1.3376-1.3568,3.3852-1.3237
		c0.0717,0.6052,0.3222,1.2779,0.1939,1.8682c-0.9304,4.2811-2.2348,8.4211-4.3585,12.3023
		c-5.6626,10.349-13.2705,19.1347-21.7022,27.2578c-15.1063,14.5535-32.3823,25.9985-51.0565,35.3958
		c-5.63,2.8332-11.3689,5.4501-17.0681,8.1444c-0.5819,0.2751-1.234,0.4016-1.8535,0.597
		C460.1187,288.6944,459.9533,288.5574,459.7879,288.4204z"/>
	<path style="fill:#D1202A;" d="M452.31,316.4086c2.3267-3.4516,5.0329-6.481,6.5652-10.0193
		c1.5031-3.4709,1.8124-7.4596,2.7551-11.7149c27.6647-9.8744,53.5535-24.072,75.8325-44.494
		c1.6353,1.6302,0.9561,3.0396,0.5437,4.3561c-1.6854,5.3802-4.8566,9.928-8.2502,14.3188
		c-8.3013,10.7404-18.6529,19.1893-29.7782,26.8258c-12.29,8.4359-25.6508,14.5306-39.8406,18.8947
		C457.5789,315.3627,454.9154,315.8079,452.31,316.4086z"/>
	<path style="fill:#D1202A;" d="M520.8802,293.1385c1.1729,1.5633,0.3259,2.6213-0.285,3.6957
		c-3.4072,5.9919-8.0922,10.9418-13.0807,15.5762c-12.3864,11.5074-26.5452,20.1468-42.3356,26.2474
		c-8.7491,3.3802-17.7193,5.6577-26.9479,7.07c-0.7147,0.1094-1.4606,0.0144-2.34-0.1787
		c7.9766-5.2974,15.4771-10.8504,15.0524-21.7554c8.2864-2.3391,16.5214-4.4455,24.6119-7.0087
		c8.1544-2.5834,15.9987-6.0486,23.4212-10.305C506.3453,302.2545,513.4999,297.6548,520.8802,293.1385z"/>
	<path style="fill:#D1202A;" d="M515.0133,195.3067c0.876-1.2633,1.4036-2.2478,2.1353-3.0446
		c7.6255-8.305,15.4919-16.3986,22.8867-24.9033c12.8027-14.7246,23.4973-30.9127,32.4111-48.2867
		c4.1238-8.0376,8.1596-16.1006,11.0887-24.6715c0.3595-1.0518,0.877-2.0495,1.3212-3.0723
		c0.2501-0.0227,0.5001-0.0454,0.7502-0.0681c0.4259,0.8724,1.0806,1.7055,1.2377,2.624c0.6375,3.726,1.5338,7.4731,1.58,11.2218
		c0.1046,8.5-1.5358,16.7279-6.6337,23.7345c-5.4269,7.4587-11.0004,14.845-16.9882,21.8537
		c-13.5495,15.8597-29.1167,29.659-45.0745,43.0175C518.6478,194.6157,517.6324,196.1107,515.0133,195.3067z"/>
	<path style="fill:#D1202A;" d="M497.0006,332.932c-0.2517,0.8521-0.2907,1.8631-0.789,2.5308
		c-3.7672,5.0479-7.6372,10.0187-11.4467,15.0352c-1.3266,1.7469-3.3885,1.4799-5.0852,1.6289
		c-10.4734,0.9198-20.9318,0.7282-31.3097-1.1863c-0.166-0.0307-0.3019-0.2248-0.9197-0.7104
		c3.6396-0.7256,6.9371-1.284,10.1833-2.0574c3.3855-0.8066,6.7606-1.7006,10.0687-2.7768
		c3.4054-1.1079,6.7597-2.3958,10.071-3.7635c3.2201-1.33,6.3899-2.7942,9.5215-4.3231c3.0982-1.5126,6.1211-3.1797,9.177-4.7792
		C496.6481,332.6641,496.8244,332.7981,497.0006,332.932z"/>
	<path style="fill:#D1202A;" d="M408.2637,738.9344c0.1821,2.9317-0.8554,5.4109-2.6008,7.5854
		c-3.2966,4.1075-8.6317,4.1877-12.1072,0.2502c-3.5062-3.9723-3.7177-10.9236-0.4605-15.1365
		c3.7031-4.7897,9.7994-4.5471,13.1707,0.5182C407.6474,734.2274,408.4346,736.4728,408.2637,738.9344z"/>
	<path style="fill:#D1202A;" d="M302.6113,750c-2.2791-0.2408-4.0241-1.0317-5.4752-2.4271
		c-4.6312-4.453-4.8866-12.0386-0.4452-16.7997c3.2235-3.4554,7.6841-3.4646,11.0972-0.2036
		c4.5866,4.3821,4.3315,13.2376-0.6347,17.1776C305.8584,748.7746,304.1369,749.2637,302.6113,750z"/>
	<path style="fill:#D1202A;" d="M551.3833,739.009c0.1141,3.402-1.0817,6.3791-3.7109,8.6976
		c-3.0116,2.6556-7.0796,2.6078-10.0724-0.024c-4.8588-4.2729-4.8541-13.15,0.0093-17.4238
		c3.2639-2.8682,7.3204-2.7867,10.4606,0.2466C550.4404,732.7951,551.4609,735.6392,551.3833,739.009z"/>
</g>
<g>
</g>
<g>
</g>
<g>
</g>
<g>
</g>
<g>
</g>
<g>
</g>
<g>
</g>
<g>
</g>
<g>
</g>
<g>
</g>
<g>
</g>
<g>
</g>
<g>
</g>
<g>
</g>
<g>
</g>
</svg>
