<?xml version="1.0" encoding="utf-8"?>
<!-- Created by @FCLOGO 2025-2-6 GMT+8 9:50:13 . https://fclogo.top/ -->
<!-- FOR PERSONAL USE ONLY NOT FOR COMMERCIAL USE -->
<!-- Created by @FCLOGO 2025-2-6 GMT+8 9:50:13 . https://fclogo.top/ -->
<!-- FOR PERSONAL USE ONLY NOT FOR COMMERCIAL USE -->
<svg version="1.1" xmlns="http://www.w3.org/2000/svg" xmlns:xlink="http://www.w3.org/1999/xlink" x="0px" y="0px"
	 viewBox="0 0 800 800" style="enable-background:new 0 0 800 800;" xml:space="preserve">
<path style="fill:#001F47;" d="M190.4514,329.05c-2.5941,1.2465-5.2893,2.493-7.9507,3.7733V168.3511h435.0996v164.5394
	c-2.6614-1.2465-5.3566-2.5267-7.9507-3.7395V176.3018H190.4514V329.05z M609.6497,456.531v0.0673v20.1463
	c0,25.1661-3.2679,33.5884-10.2416,45.7503l-0.4043,0.6738l-0.0674,0.1011l-0.0674,0.1011
	c-42.6172,63.7405-115.0833,100.2936-198.8016,100.2936c-0.1348,0-0.2358,0-0.3706,0
	c-83.5836-0.1011-155.8812-36.6204-198.5321-100.4283l-0.5391-0.8423c-6.9063-12.0271-10.1742-20.4495-10.1742-45.6155v-41.5055
	c-2.0213,1.1791-4.7839,2.4256-7.9507,3.6385v37.867c0,25.8735,3.3016,35.8119,11.2186,49.591l0.1348,0.2021l0.1347,0.2021
	l0.438,0.6738l0.1011,0.2021l0.1348,0.2021c44.0658,65.8629,118.7554,103.6962,205.0342,103.7973c0.1348,0,0.2358,0,0.3706,0
	c86.4135,0,161.3053-37.8333,205.4048-103.7973l0.1685-0.2358l0.1346-0.2358l0.4043-0.6738l0.1011-0.1348l0.1011-0.1685
	c7.9171-13.779,11.2186-23.7174,11.2186-49.5909v-37.9006c-3.1668-1.2129-5.9293-2.4257-7.9507-3.6385V456.531z M379.3483,478.1933
	c1.4486,0.3032,2.8636,0.539,4.3123,0.7748C382.212,478.7324,380.7633,478.4628,379.3483,478.1933z M365.2324,474.3864
	c1.6508,0.5728,3.3353,1.1454,5.0535,1.6171C368.5677,475.4982,366.9169,474.9591,365.2324,474.3864z M316.7196,439.5178
	c0.2695,0.3369,0.5727,0.6738,0.8422,1.0107c-0.2359-0.3032-0.4717-0.6402-0.7411-0.9433
	C316.787,439.5852,316.7533,439.5515,316.7196,439.5178z M321.7393,445.4472c-0.7075-0.8086-1.415-1.6171-2.1225-2.4257
	C320.3244,443.8638,321.0319,444.6386,321.7393,445.4472z M328.5446,452.3872c1.4824,1.3476,2.9984,2.6952,4.5818,3.9753
	C331.5767,455.0823,330.0606,453.7684,328.5446,452.3872z M343.7386,463.9764c-0.977-0.6401-1.954-1.2803-2.931-1.954
	C341.7509,462.6962,342.7615,463.3363,343.7386,463.9764z M372.5768,476.6099c1.4149,0.4043,2.8299,0.7412,4.2786,1.0781
	C375.4067,477.3511,373.9917,476.9805,372.5768,476.6099z M335.3499,458.0807c0.977,0.7412,1.9203,1.516,2.931,2.2235
	C337.3039,459.5967,336.3269,458.8219,335.3499,458.0807z M584.3488,513.6346c-39.9894,59.7988-107.6042,92.5114-184.2815,92.5114
	c-0.1348,0-0.2358,0-0.3706,0c-76.5088-0.1011-143.9889-32.7799-183.9109-92.5114c-5.2219-9.1298-7.8496-14.4191-7.8496-36.9236
	v-33.7569h-11.825v33.7569c0,5.963,0.1684,10.9154,0.539,15.1603c0.2021,2.1224,0.4043,4.0764,0.7075,5.862
	c1.4149,9.0287,4.0764,14.6549,8.1528,21.7634l0.438,0.6738c43.6279,65.2565,116.0265,97.6658,193.7145,97.7668
	c0.1347,0,0.2358,0,0.3705,0c77.8564,0,150.3899-32.4093,194.0852-97.7668l0.4042-0.6738c1.6508-2.8636,3.032-5.4578,4.2449-8.1529
	c2.0887-4.6829,3.5037-9.6015,4.3123-16.4405c0.5727-4.885,0.8759-10.7469,0.8759-18.226v-33.6221h-11.825l0.0337,0.0337v33.6221
	C592.1648,499.1819,589.5707,504.5048,584.3488,513.6346z M603.9561,326.5233v-0.0337V181.9617h-204.293H196.1113v144.4268v0.0337
	l11.825-5.5587v-127.043h191.7269h192.5017v127.2115L603.9561,326.5233z M494.4653,328.8141h0.0338c0,0,0.3032-0.3032,0.4717-0.438
	c-5.8957-12.0945-14.0822-22.8078-23.9196-31.7692c-0.0337,0.0337-0.1011,0.0674-0.1685,0.1011
	c-1.2128,0.9096-2.5267,1.7519-3.8743,2.5267c9.6015,9.6689,17.3501,21.2244,22.4709,34.0938
	C491.1301,331.7451,492.8145,330.2291,494.4653,328.8141z M493.2189,424.2565c-0.539-0.1685-1.1454-0.3706-1.7855-0.6064
	c-1.9203-0.6401-4.3122-1.5834-6.9738-2.6615c-0.1685-0.0673-0.3369-0.1347-0.5053-0.2021
	c-9.1972,16.5416-22.8078,30.3206-39.3156,39.5852l-6.6705-18.7987l-1.7519-4.8849l-36.452,0.977l-9.2646,0.2358l-13.8127,19.4052
	l-4.0764,5.7272c0,0,7.4791,5.6261,20.9212,10.3763c-22.1003-0.2358-42.4824-7.5128-59.0913-19.641
	c0.539-0.4717,1.078-0.9433,1.516-1.4149c0,0-1.1791-1.7182-3.0657-4.4807c-4.1438-6.1652-11.6902-17.586-16.9121-26.9854
	c-0.0674,0-0.1348,0.0674-0.2021,0.0674l-0.1012,0.0337c-2.7962,1.1117-5.2892,2.0887-7.2432,2.7289
	c-0.539,0.1684-1.078,0.3369-1.516,0.4716h-0.1348c2.8973,5.4577,6.2662,10.5448,10.0395,15.3624
	c0.2358,0.3032,0.4716,0.6401,0.7411,0.9433c0.6738,0.8422,1.3813,1.6844,2.0887,2.5267c0.7075,0.8086,1.4149,1.6171,2.1224,2.4256
	c0.7411,0.8086,1.4486,1.6171,2.2235,2.3919c0.7749,0.8086,1.5835,1.5834,2.3583,2.3583c0.7411,0.7074,1.4823,1.4486,2.2235,2.1561
	c1.4824,1.3813,2.9984,2.6952,4.5818,3.9753c0.7411,0.6064,1.4823,1.1454,2.2235,1.7519c0.977,0.7412,1.9203,1.516,2.931,2.2235
	c0.8085,0.6064,1.6508,1.1454,2.493,1.7182c0.977,0.6737,1.9539,1.3138,2.931,1.954c0.8422,0.539,1.7181,1.0443,2.5604,1.5834
	c1.0444,0.6064,2.0887,1.2128,3.1668,1.7856c0.8423,0.4716,1.6845,0.9096,2.5604,1.3813c1.1792,0.6064,2.4257,1.1791,3.6385,1.7519
	c0.7412,0.3369,1.5161,0.7074,2.2909,1.0444c1.954,0.8759,3.9753,1.6507,5.9967,2.3919c0.438,0.1685,0.876,0.2695,1.3139,0.438
	c1.6508,0.5728,3.3353,1.1454,5.0534,1.6508c0.7749,0.2358,1.5161,0.4043,2.2909,0.6064c1.415,0.3706,2.8299,0.7412,4.2786,1.0781
	c0.8423,0.2021,1.6845,0.3706,2.5267,0.5053c1.415,0.2695,2.8636,0.5391,4.3123,0.7749c0.8422,0.1347,1.6508,0.2695,2.493,0.3705
	c1.5834,0.2021,3.1668,0.3706,4.7503,0.5053c0.7074,0.0674,1.4149,0.1348,2.1224,0.2021c2.1898,0.1347,4.4133,0.2358,6.6368,0.2358
	c0.0836,0,0.196,0,0.3067,0c-0.0012,0-0.0024,0.0001-0.0036,0.0001h0.0001c0.0012,0,0.0024-0.0001,0.0036-0.0001
	c0.023,0,0.0406,0,0.0638,0c40.3937,0,75.4981-22.7067,93.2525-56.0255H493.2189z M305.0968,328.3762
	c0.1011,0.0674,0.1684,0.1347,0.2358,0.2358c1.0444,0.876,2.0887,1.8193,3.1331,2.7626c0.8759-1.1454,1.7518-2.2572,2.6614-3.4026
	c5.6598-12.5999,11.7914-23.3468,14.9919-28.6697c0-0.0337,0.0337-0.0674,0.0673-0.1011c-0.4043,0.4043-0.7749,0.8422-1.1454,1.2465
	c-1.078,1.078-2.0887,2.1898-3.1331,3.3353v-0.0338C315.2372,311.0935,309.5101,319.3474,305.0968,328.3762z M438.5745,357.9892
	v0.0337c0,0,0.0065-0.0135,0.0081-0.017C438.58,358.0004,438.5771,357.9948,438.5745,357.9892z M468.4907,360.9876
	c2.6952-8.5571,6.2999-13.2063,15.6993-22.5383c-10.309-7.1758-25.6377-14.756-25.6377-14.756
	c-10.8099,15.2139-19.7968,33.9514-19.9697,34.3126c5.3568,11.2145,13.4024,23.873,17.8136,31.6851
	C462.3255,380.9655,464.7849,372.7452,468.4907,360.9876z M338.7525,380.4265c1.1118,2.493,2.3583,5.0534,3.7733,7.4117
	c1.1117,1.8866,2.493,3.5711,4.1438,5.0197c0.0337,0.0337,0.0674,0.0674,0.1348,0.1011c1.4823,1.2802,3.2005,2.1898,5.0534,2.6952
	c5.0197,1.3813,10.6796,2.8636,16.8111,4.3459c0,0,18.3271-29.2088,24.6944-41.6065c0,0-13.1726-20.9885-26.9516-36.6541
	c0,0-29.0403,12.9704-39.7536,18.5292l-0.4717,7.9171c0.1685,0.539,4.0091,6.0641,5.6262,12.0608l3.2679,10.3763
	c0.4043,1.1791,0.7412,2.2235,0.7412,2.2235l-0.0001,0.0674C336.5627,375.0361,337.5397,377.6976,338.7525,380.4265z
	 M77.4232,427.996c-0.5053-1.5497-10.2079,0.1685-10.747,2.055C65.9014,432.8136,73.9869,436.4521,77.4232,427.996z
	 M103.8021,349.0616v-0.0337c6.1315-1.1118,12.5325-2.1561,18.5292-3.8406c2.2572-3.032,6.6369-2.1224,9.871-3.1668
	c2.6615,1.0106-6.8727,8.5571-7.9844,10.0731c-1.2128,1.6171-3.3015,6.401-3.6385,8.3887
	c-0.7074,4.2786,1.8193,9.4331,5.7272,11.3534c3.47,1.7181,6.5695,0.7748,9.8711-0.5053c2.7962-1.078,11.4207-3.3689,12.2293-6.401
	c-0.7749-2.2572-15.2613,0.3705-18.1586-1.5834c-1.3813-0.9433,0.6738-3.0995,1.078-4.1438
	c1.9203-4.8176,17.5522-15.9351,18.6303-20.3148c2.2909-9.2983-13.4421-11.1849-19.3377-12.4314
	c-1.2128-0.2695-8.5909-1.6844-7.4791-3.6385c0.1347-0.2358,2.8973-2.7289,3.5374-3.6385l-0.7075-0.7748
	c-2.2572-0.1685-18.6639,3.7395-21.3928,4.7502c-0.7074,0.2695-1.078,0.9433-1.3813,1.5834
	c1.6508,2.6277-0.8759,5.1208-0.3032,7.7823c0.4043,1.8529,7.378,1.3813,4.0428,4.8513l-5.3229,0.6738
	c-2.3582-1.0444,0.6738-3.4363-2.0551-4.0428c-2.1898,0.8086-5.6598,1.516-6.8053,3.8406c-0.977,2.0214-0.977,5.4914,0.3032,7.378
	C95.3797,348.6909,99.8604,349.769,103.8021,349.0616z M65.3961,434.936l-0.0337-0.0337h-0.4716
	c-6.1988,0.6064-8.1529,5.963-9.2309,10.0058c0.2021,0.3032,1.3475,0.8759,1.8529,1.1791c2.0551,1.1118,4.0091,3.0658,5.3903,1.3139
	c0.7075-0.9096,4.5144-7.4791,5.2555-9.9384C68.4618,436.4521,67.788,435.0371,65.3961,434.936z M728.3713,441.7751
	c1.7181,2.931,5.1545,7.3106,3.1331,8.9614c-0.7411,0.7075-6.0641,2.5604-7.3106,2.8973
	c-6.1315,1.7519-8.5234-9.2309-12.3977-11.4208c-3.1669-1.7856-7.0074,2.1899-11.0502-0.101
	c-5.9294-2.2572-9.2646-7.7487-12.1282-8.2203c-2.0888-0.3369-5.9968,2.931-5.9968,2.8973
	c-0.6401,0.5727-1.6171,0.7411-2.7288,0.8422c-7.3106,0.6064-15.0255,0.8422-22.3024-0.2021
	c-11.5892-1.6508-30.9607-7.2433-40.1241-15.194c-0.2021-0.1684-0.4717-0.3705-0.6738-0.5727
	c0.1011-0.3369,0.3706-0.5727,0.6738-0.8086c2.5267-1.8866,10.7469,0.4717,12.9367,0.8086
	c-2.2908-4.7839,0.7748-6.9063-1.6845-8.0854L618.4763,412.6c-0.3032-0.0337-0.64-0.1347-0.977-0.1685
	c-2.6277-0.3369-5.2892-0.977-7.9507-1.2802c-0.1011-0.0337-0.1684-0.0337-0.2695-0.0337c-1.7856-0.1684-3.6049-0.2358-5.424-0.3032
	c-1.3477-0.0337-2.6952-0.1011-4.0091-0.2695c-1.8867-0.2696-4.9523-0.8423-5.9293-2.6615
	c0.3032-1.4823,1.3475-3.4027,0.3032-4.8176c-1.314-1.7519-4.8177-2.1224-6.8054-2.8636c-2.6614-0.9771-4.8175-2.9647-7.5801-3.7396
	c-3.0995,0.9433-0.4043,5.7946-4.0428,6.8053c-3.4026,0.9096-11.6229-3.47-13.8127-0.7075c0,1.4487,1.0107,3.7058-0.4043,4.8176
	c-2.2234,1.7856-4.9523,2.1224-7.2095,4.4471c-2.8636,2.9646-6.8726,8.5234-5.6261,12.903
	c1.2802,4.5818,11.9935,9.6689,15.9689,7.1085c2.6277-1.6845,2.3918-5.4914,6.0978-4.3459
	c4.3459,1.3138,8.8604,1.6507,13.2062,2.8636c3.6047,1.0106,8.6581,1.7518,11.9261,3.3353c0.4716,0.2358,1.3475,1.078,0.7748,1.6844
	c-1.6845,1.8192-17.9228-0.1685-21.0897-0.5053c-1.4823-0.1685-2.7962-0.2358-3.8406,0.977
	c-1.9877,2.2909,2.493,2.931,1.1791,5.0197c-1.8192,2.8299-6.6031,3.8743-9.6689,3.1331
	c-5.6261-1.3476-11.5554-3.7395-16.8447-6.0641c-1.6844-0.7411-3.5037-1.9203-5.2219-2.493
	c-4.1437-1.3476-8.7592,0.8759-11.6229-3.8406c-2.6278-4.2449-6.0978-9.0288-6.1315-14.1833
	c-0.0338-4.2112,2.6277-6.8389,4.1437-10.4774c0.5728-1.3139,3.2005-7.9844,3.1669-8.9614
	c-0.0338-0.6738-2.7963-7.1422-3.4363-7.2096l-18.2261-2.2572c-0.3369-0.0337-1.4149,0.7412-1.4823,1.0781
	c-0.7748,3.6721,4.8176,8.018,6.8052,10.5447c0.7412,0.9433,2.2573,3.47,1.853,4.7166c-0.6738,2.0887-3.6385-1.0781-4.0428,1.2802
	c-0.3032,1.6845,3.5374,4.3123,3.1331,7.4117c-0.3032,2.5941-0.4716,6.3673-3.1331,7.6138
	c-4.3796,2.0887-4.7838-1.516-6.8052-1.5834c-0.7748-0.0337-2.0214,0.4717-2.931,0.4717c-2.7625,0.0674-5.3229-0.8423-7.9171-1.5497
	c-0.2021-0.0338-0.4042-0.1011-0.6064-0.1685c-5.6599-1.7519-20.4159-8.5908-24.4586-8.0181
	c-4.885,0.6738-7.6476,9.1299-22.673,9.5678l-0.8086-1.1791c5.1208-4.9524,8.894-1.6845,14.2169-12.4314
	c1.415-2.8636,3.8406-6.0978,6.0978-8.355c0.1011-0.438-0.0673-0.977-0.5727-1.078c-9.0962,3.2342-10.4774,17.4849-24.0543,16.3731
	l-0.6737-0.7749c0.6064-1.516,3.3015-2.055,4.6491-2.9647c4.4471-3.0995,7.0411-7.9507,10.6122-11.9261
	c1.2802-1.4823,3.0994-2.5267,4.3459-3.8743c0.8086-0.9096,5.862-11.7239,6.7042-13.6105l1.0781-0.5728
	c9.1972,0.5053,18.3945,0.6064,27.5917,0.8422c2.392,0.0674,5.2219,0.3706,7.9507,0.5054c1.7856,0.101,3.5374,0.1348,5.0871-0.0674
	c0.6064-0.0674,0.7411-0.5391,0.6064-1.0781c-1.6171-0.539-3.5037-0.8423-5.525-0.977c-8.7593-0.6401-20.18,1.2128-25.0312-5.3229
	c-0.8422-1.0781-0.7075-2.9647-2.1898-3.3353c-1.5497,0.7748-3.2342,1.516-5.0197,1.078l-0.7749-1.078
	c1.3813-5.7272,2.8636-11.7576,6.6031-16.4742c3.9417-4.986,11.6229-13.5768,18.7314-20.0115
	c3.5711-3.2342,7.0411-5.9294,9.7699-7.3106c3.6721-1.8192,8.2202-8.2876,9.6689-5.9967c-0.0674,0.8085,0.3705,1.516,0.8759,2.0887
	c3.6048,0.7075,3.47-6.0978,8.2876-8.9951c4.8513-2.8973,11.2186-4.4471,16.7773-3.2342c6.839,1.516,13.8801,5.1544,20.1126,8.2876
	c13.678,6.94,27.3895,13.8464,41.1012,20.6853c0.2695,0.1347,0.539,0.2695,0.8085,0.4043c1.8866,0.977,3.7733,1.9203,5.6599,2.8972
	c2.6614,1.3476,5.2892,2.6952,7.9507,3.9753c1.7182,0.8423,3.47,1.6508,5.2219,2.4257c1.5834,0.6738,3.8406,0.9096,4.5482,2.7625
	c0.9769,2.4256-1.1118,6.0305-3.1331,7.378c-1.9203,1.2465-4.2449,1.2465-6.6368,0.7075c-2.8636-0.6401-5.7272-1.9877-7.9507-2.8973
	c-0.0674-0.0337-0.2358-0.101-0.2358-0.101l-0.6738,0.4043c0.3032,0.3705,0.6064,0.7074,0.9096,1.0107
	c2.3246,2.3246,4.9187,2.8299,7.9507,3.4026c0.5727,0.1011,1.1791,0.2021,1.7856,0.3369c3.4026,0.7074,6.8052,2.493,10.1742,3.47
	c4.5818,1.3139,9.1298,2.7289,13.6779,4.2112c1.9203,0.6064,5.0534,1.0444,4.5481,3.8406c0.6738,1.5497,2.392,1.3139,3.7395,1.5497
	c29.0403,4.986,85.9419,20.9548,98.5754,25.4692c-37.1258-7.1422-61.0453-10.6458-106.2566-18.4618
	c-8.7256-1.4823-17.4848-2.8973-26.2441-4.2786c-2.6614-0.438-5.2892-0.876-7.9507-1.2803
	c-1.8866-0.3031-3.7733-0.5727-5.6598-0.8422c-29.8152-4.5144-59.7988-8.4897-89.6141-12.3303
	c-3.5037-0.438-7.0074-0.9096-10.5448-1.3813c-4.009-0.5053-8.0181-1.0107-12.0272-1.3813c-4.8177-0.438-5.6262,1.2129-8.9614,4.346
	c0,2.1224,8.9614,1.5497,10.949,1.7519c0.3032-0.2359,0.3032-0.6402,0.1011-0.9771c-1.4149-0.7748-2.8972-1.3813-3.9416-2.6614
	l0.5053-1.0781c4.5144,0.3706,9.0625,0.9096,13.5769,1.5161c11.2186,1.4487,22.4372,3.4027,33.5547,5.1208
	c22.134,3.4026,44.3691,6.7379,66.4357,10.6122c1.7181,0.3032,3.4363,0.5728,5.1545,0.8759
	c0.2021,0.0337,0.3706,0.1011,0.539,0.1011c2.6614,0.4716,5.2892,1.0107,7.9507,1.5497
	c13.0715,2.6278,26.0419,5.7946,39.1472,8.2877v0.7074c-13.1053-1.4149-26.1431-3.6047-39.1472-5.963
	c-2.6615-0.4716-5.2893-0.977-7.9507-1.4486c-1.8866-0.3369-3.7731-0.7075-5.6598-1.0444
	c-11.0165-2.0214-22.033-4.0091-33.1168-5.5588l-0.1011,0.7749c6.94,2.1224,14.1496,3.2342,21.1907,4.9187
	c4.0091,0.9433,8.0181,1.8529,12.0272,2.7625c1.8867,0.4379,3.7732,0.8759,5.6598,1.3139c2.6614,0.6064,5.2892,1.2128,7.9507,1.8192
	c24.0543,5.3566,48.2096,10.3763,72.1965,16.1036c-5.7609-0.8086-11.4881-1.516-17.249-2.2572
	c-2.1898,1.3476,0.539,3.6721-0.6064,6.401c-1.9202,4.7165-5.6935,0.2695-6.0978,2.6614c-0.1348,0.9433,1.1118,3.9753,2.0887,4.5481
	c13.1052,1.5497,25.9409,5.2556,39.0461,6.9063l0.2021,1.078l-8.1865,0.2021l-0.7748,0.876
	c0.1348,1.7855,2.9647,1.1791,4.2112,1.4149c4.6155,0.8422,5.7609,1.2129,10.3427,2.0887
	c10.2079,1.954,6.8389,10.1069,13.9811,11.9261l-0.1685-0.0336C727.2933,440.1917,727.7313,440.8655,728.3713,441.7751z
	 M534.8591,332.1831c9.7699,2.7289,20.0115,5.0871,29.9836,7.0074l0.4043-0.4042c-1.0444-1.3139-2.4593-2.1898-3.8406-3.0658
	c-1.8529,0.2021-2.931,0.6064-4.7502,0c-4.1101-1.3813-20.4832-5.7272-24.0543-5.0197
	C532.366,331.8125,534.1179,331.9809,534.8591,332.1831z M499.9904,349.1289c0.5728,0.0674,1.1454,0.1685,1.7181,0.2359
	c19.3715,2.8299,56.1603,8.0518,56.1603,8.0518l-2.6614-1.2128h0.0338l-53.9706-8.793l-2.4257-0.4043
	c-0.6064-0.1011-1.2128,0.1011-1.6844,0.4043C496.7562,348.792,499.2155,349.0279,499.9904,349.1289z M490.4899,407.277
	c0.7074-1.415-0.4043-2.8299-1.0107-4.1438c-1.4149-1.7181-3.5374-2.2235-5.6598-2.2235c-0.5053,0.4042-0.6064,0.9096-0.6064,1.4149
	c0.2021,2.0551,0.6064,4.1775,2.4256,5.1882c1.5161,0.2021,3.6385,0.7075,4.8513-0.2021L490.4899,407.277z M541.4285,403.7733
	c-0.4044-1.3813-1.8866-1.5497-3.0658-1.9539c-0.9095-0.1011-1.7855,0.7748-1.9877,1.6844l-5.3229,12.5325
	c-1.2128,4.9523,1.6844,9.3657,4.8176,12.5325c0.4717-0.0674,1.0781-0.3706,1.1792-0.977
	c-1.0781-4.1101-3.369-9.8373-0.2021-13.9812l0.0337-0.0673L541.4285,403.7733z M659.8807,429.6805
	c-0.1011-0.7748-0.9433-1.8866-1.7518-2.1898c-4.9188-1.3813-9.77-1.7856-14.5876-2.7625c-2.9647-0.6064-4.1775-0.539-6.4348-0.7412
	l2.1562,1.4149l19.2367,4.9186v0.0001C658.87,430.3206,659.5775,430.1858,659.8807,429.6805z M735.2103,434.8687v0.0337h-0.4716
	c-2.392,0.1011-3.0658,1.516-2.7626,2.5267c0.7075,2.4594,4.5144,9.0288,5.2219,9.9384c1.3813,1.7856,3.3353-0.2021,5.3904-1.3138
	c0.5054-0.3032,1.6508-0.876,1.8529-1.1792C743.3632,440.8317,741.4092,435.5088,735.2103,434.8687z M668.7746,359.2021h0.0001
	c0.4042,1.0444,2.4593,3.2005,1.0781,4.1438c-2.8636,1.9539-17.3501-0.6738-18.1587,1.5834c0.8086,3.032,9.433,5.3229,12.2293,6.401
	c3.3016,1.2802,6.3673,2.1898,9.871,0.5053c3.908-1.9203,6.4348-7.0748,5.7272-11.3534c-0.3369-1.9539-2.4593-6.7715-3.6385-8.3887
	c-1.1454-1.516-10.6796-9.0625-7.9844-10.0731c3.2004,1.0106,7.6138,0.101,9.871,3.1668
	c5.9967,1.6845,12.3977,2.7625,18.5292,3.8406c3.9417,0.7075,8.4224-0.3706,10.7469-3.8406
	c1.2802-1.8866,1.2802-5.3566,0.3032-7.378c-1.1454-2.3246-4.6155-3.032-6.8054-3.8405c-2.7625,0.6064,0.3032,2.9983-2.055,4.0427
	l-5.3229-0.6738c-3.369-3.47,3.6385-2.9984,4.0427-4.8176c0.5728-2.6952-1.954-5.1545-0.3032-7.816
	c-0.3031-0.6401-0.6737-1.3138-1.3812-1.5834c-2.7288-0.977-19.1356-4.9186-21.3928-4.7502l-0.7075,0.8086
	c0.6738,0.9096,3.4363,3.4027,3.5374,3.6385c1.0781,1.9877-6.2662,3.4026-7.4791,3.6385
	c-5.8956,1.2465-21.6285,3.1331-19.3378,12.4314C651.2224,343.267,666.8543,354.3845,668.7746,359.2021z M228.6553,422.1003
	c-0.0024-0.0002-0.0048-0.001-0.0072-0.0013c-0.0098-0.001-0.0166,0.0024-0.0265,0.0013H228.6553z M232.159,419.7421
	c2.9647,2.1562,2.7625,5.9294,5.7272,7.9845c1.5834,0.3031,3.7395-0.7075,5.525-1.0781c1.1792-0.5727,2.3583-1.7855,2.3583-3.0657
	c-0.6064-2.3583-1.9877-4.4471-2.4594-6.9063c-1.2802-3.8406-5.8956-1.2802-8.7592-1.2802
	c-3.1331,0.7749-5.8957-0.5054-8.6582-1.0781c-0.7748,0.1011-1.2802,0.7075-1.7856,1.1791
	c-0.6064,1.1792-0.4043,2.5604,0.1011,3.6385c0.8747,1.6822,2.6566,2.7592,4.4398,2.9634
	C230.4061,422.2738,230.5844,420.1106,232.159,419.7421z M565.5838,415.3624l-0.0336,0.0337c-2.8636,0-7.5128-2.5604-8.7593,1.2802
	c-0.5054,2.4593-1.8866,4.548-2.4594,6.9063c0,1.2802,1.1791,2.4593,2.3583,3.0657c1.7855,0.4043,3.9416,1.3813,5.525,1.0781
	c2.9647-2.0551,2.7626-5.8283,5.7272-7.9845c1.5834,0.3706,1.7855,2.5605,3.5374,2.3582c1.7856-0.2021,3.5711-1.2802,4.4471-2.9647
	c0.5052-1.078,0.7075-2.4593,0.1011-3.6721c-0.5054-0.4716-0.977-1.078-1.7856-1.1791
	C571.4794,414.8908,568.7169,416.171,565.5838,415.3624z M722.6779,427.996c3.4364,8.4561,11.5555,4.8176,10.7469,2.055
	C732.8858,428.1645,723.1495,426.4463,722.6779,427.996z M183.1407,421.595c-0.2021,0.2021-0.438,0.3706-0.6738,0.5727
	c-9.1298,7.9508-28.5013,13.5432-40.1242,15.194c-7.2432,1.0444-14.9581,0.8086-22.2688,0.2021
	c-1.078-0.1011-2.055-0.2695-2.7288-0.8422c0,0.0673-3.908-3.2342-5.9967-2.8973c-2.8636,0.4716-6.1989,5.963-12.1282,8.2202
	c-4.0428,2.2909-7.8834-1.6845-11.0502,0.1011c-3.8743,2.1561-6.2999,13.1389-12.4314,11.4207
	c-1.2465-0.3369-6.5695-2.1898-7.3106-2.8973c-2.0551-1.6508,1.3813-6.0304,3.1331-8.9614c0.6401-0.8759,1.078-1.5834,1.8192-1.7518
	c7.1422-1.8529,3.7732-9.9721,13.9811-11.9261c4.5818-0.8422,5.7272-1.2128,10.3427-2.0887
	c1.2465-0.2358,4.0764,0.3706,4.2112-1.4149c0.0337,0-0.7748-0.876-0.7748-0.876l-8.1865-0.2021l0.2021-1.0781
	c13.1052-1.6508,25.9409-5.3566,39.0461-6.9063c1.0107-0.5727,2.2235-3.5711,2.0888-4.5144
	c-0.4043-2.392-4.1775,2.0551-6.1315-2.6614c-1.1454-2.7289,1.5835-5.0535-0.6064-6.4011
	c-5.7609,0.7412-11.4881,1.4487-17.249,2.2572c23.9869-5.6935,48.1422-10.7469,72.1965-16.1036
	c2.6615-0.6064,5.2893-1.2128,7.9507-1.8193c1.8866-0.4379,3.7732-0.8759,5.6598-1.3138c4.0091-0.9433,8.0181-1.8193,12.0271-2.7626
	c7.0411-1.6507,14.2507-2.7625,21.1907-4.9187l-0.1011-0.7748c-11.0838,1.5497-22.1003,3.5374-33.1167,5.5587
	c-1.8866,0.3369-3.7732,0.7075-5.6598,1.0444c-2.6615,0.4717-5.2893,0.977-7.9508,1.4486
	c-13.0041,2.3583-26.042,4.5818-39.1472,5.963v-0.7075c13.1052-2.493,26.0756-5.6262,39.1472-8.2876
	c2.6615-0.539,5.2893-1.078,7.9508-1.5497c0.1684-0.0337,0.3705-0.1011,0.539-0.1011c1.6845-0.3032,3.4026-0.5727,5.1208-0.8759
	c22.1003-3.8743,44.3016-7.2095,66.4693-10.6122c11.0165-1.6845,22.134-3.6047,33.2516-5.0871
	c4.6154-0.6064,9.2646-1.1454,13.88-1.5497l0.5053,1.0781c-1.0443,1.2802-2.5267,1.8866-3.9416,2.6615
	c-0.2021,0.3032-0.2021,0.7411,0.1011,0.977c2.0214-0.2358,10.949,0.3369,10.949-1.7855c-3.3353-3.1668-4.1438-4.7839-8.9614-4.3459
	c-4.1101,0.3705-8.2539,0.8759-12.3641,1.4149c-3.4026,0.438-6.8389,0.9096-10.2416,1.3476
	c-29.8152,3.8406-59.7988,7.816-89.614,12.3304c-1.8866,0.3032-3.7732,0.539-5.6598,0.8422
	c-2.6615,0.4043-5.2892,0.8759-7.9507,1.2802c-8.7593,1.415-17.5186,2.7962-26.2441,4.3122
	c-45.245,7.816-69.1308,11.3197-106.2903,18.4619c12.5998-4.5144,69.5351-20.4832,98.5754-25.4692
	c1.3813-0.2695,3.0995-0.0337,3.7395-1.5835c-0.5054-2.7962,2.6278-3.2342,4.5481-3.8405c4.548-1.4486,9.0624-2.8973,13.6779-4.2112
	c3.4026-0.977,6.7715-2.7625,10.1742-3.47c0.6064-0.1347,1.2128-0.2358,1.7855-0.3369c3.0657-0.5727,5.6262-1.0444,7.9507-3.3689
	c0.3032-0.3032,0.6064-0.6401,0.9096-1.0107l-0.6738-0.4043c-0.0673,0.0337-0.1684,0.1011-0.2358,0.1011
	c-2.2235,0.9096-5.0871,2.2572-7.9507,2.8973c-2.392,0.539-4.7503,0.539-6.6369-0.7075c-1.9877-1.3139-4.1101-4.9187-3.1331-7.378
	c0.7075-1.8529,2.9984-2.0887,4.5481-2.7626c1.7519-0.7748,3.47-1.5834,5.2219-2.4256c2.6614-1.2802,5.3229-2.6278,7.9507-3.9754
	c1.8866-0.977,3.7732-1.954,5.6598-2.8973c0.2695-0.1347,0.539-0.2695,0.8086-0.4042c13.7453-6.839,27.4232-13.7454,41.1012-20.6854
	c6.1989-3.1668,13.2737-6.8053,20.1126-8.2876c5.5588-1.2129,11.8924,0.3032,16.7437,3.2341
	c4.8176,2.9311,4.6828,9.7026,8.2876,8.9951c0.5053-0.5728,0.9433-1.2802,0.8759-2.0887c1.4487-2.2909,5.9968,4.1775,9.6689,6.0304
	c2.6614,1.3476,6.0304,3.9754,9.5341,7.1085c7.1759,6.4347,14.9918,15.194,18.9672,20.2137
	c3.7395,4.7165,5.2219,10.7469,6.6032,16.4741l-0.7749,1.0781c-1.7855,0.438-3.4363-0.3032-5.0197-1.0781
	c-1.5161,0.3706-1.3813,2.2572-2.1898,3.3353c-4.9187,6.6368-16.5415,4.6492-25.3345,5.3567
	c-1.8866,0.1347-3.6721,0.438-5.2219,0.9432c-0.1348,0.5391,0,1.0107,0.6064,1.0781c1.4486,0.2021,3.0994,0.1684,4.7838,0.1011
	c2.8299-0.1348,5.7609-0.438,8.2539-0.5054c9.1972-0.2358,18.4281-0.3369,27.5917-0.8422l1.0781,0.6064
	c0.8422,1.8866,5.8957,12.7346,6.7042,13.6105c1.2128,1.3813,3.032,2.4256,4.346,3.8743
	c3.5374,3.9753,6.1315,8.7929,10.6122,11.8924l0.0335-0.1349c1.3138,0.9433,4.009,1.4487,4.6154,2.9647l-0.6738,0.8086
	c-13.5769,1.078-14.9582-13.1726-24.0544-16.3731c-0.4716,0.101-0.6738,0.6064-0.5727,1.078
	c2.2572,2.2572,4.6829,5.5251,6.0978,8.3887c5.323,10.7806,9.0962,7.479,14.217,12.4314l-0.8085,1.1791
	c-15.0255-0.438-17.7544-8.894-22.673-9.5678c-4.1101-0.5728-19.2704,6.4683-24.7281,8.0854
	c-0.1011,0.0337-0.2021,0.1011-0.3031,0.1011c-2.6278,0.7075-5.1882,1.5834-7.9171,1.5497c-0.9096,0-2.1562-0.5053-2.931-0.4717
	c-1.9877,0.0674-2.3919,3.6721-6.8053,1.5834c-2.6278-1.2802-2.7962-5.0534-3.1331-7.6138
	c-0.4043-3.0994,3.4027-5.7272,3.1331-7.4116c-0.4043-2.3583-3.3689,0.8086-4.0428-1.2802
	c-0.4043-1.2465,1.1454-3.7733,1.8866-4.7166c1.9877-2.5267,7.5801-6.8726,6.8053-10.5448
	c-0.0674-0.3369-1.1454-1.1118-1.4823-1.0781l-18.2597,2.2572c-0.64,0.1011-3.4026,6.5695-3.4363,7.2096
	c-0.0337,0.977,2.6278,7.6475,3.1668,8.9614c1.5161,3.6385,4.1775,6.2662,4.1438,10.4774
	c-0.0674,5.1544-3.5374,9.9384-6.1315,14.1833c-2.8636,4.7165-7.4454,2.493-11.6229,3.8405
	c-1.7181,0.5728-3.5711,1.7519-5.2556,2.493c-5.2893,2.2909-11.2186,4.7165-16.8447,6.0641
	c-3.0995,0.7749-7.8497-0.2695-9.6689-3.1331c-1.3139-2.0887,3.1669-2.7288,1.1792-5.0197
	c-1.0444-1.2128-2.3583-1.1454-3.8406-0.977c-3.1668,0.3705-19.4052,2.3246-21.0896,0.5054
	c-0.5727-0.6064,0.2695-1.4487,0.7749-1.6845c3.2679-1.5835,8.3213-2.3246,11.9261-3.3353
	c4.3459-1.2465,8.8604-1.5497,13.2063-2.8636c3.7059-1.1118,3.4701,2.6614,6.0978,4.3459
	c3.9753,2.5604,14.6886-2.5267,15.9688-7.1085c1.2465-4.3796-2.7625-9.9384-5.6261-12.903
	c-2.2572-2.3246-4.9861-2.6615-7.2095-4.4471c-1.415-1.1118-0.4043-3.3353-0.4043-4.8176
	c-2.1898-2.7289-10.4437,1.6171-13.8127,0.7075c-3.6385-1.0107-0.9096-5.862-4.0428-6.8053
	c-2.7288,0.7748-4.9187,2.7625-7.5801,3.7395c-1.9877,0.7412-5.4914,1.1117-6.8053,2.8636
	c-1.0444,1.3813,0.0337,3.3353,0.3032,4.8176c-0.977,1.8193-4.0427,2.392-5.9293,2.6615c-1.3139,0.1684-2.6952,0.2358-4.0428,0.2695
	c-1.7855,0.0674-3.6385,0.1347-5.3903,0.3032c-0.1011,0.0337-0.1685,0.0337-0.2695,0.0337
	c-2.6615,0.3032-5.3229,0.9433-7.9507,1.2802c-0.3369,0.0674-0.6738,0.1685-1.0107,0.1685l-10.2416,0.977
	c-2.493,1.1791,0.6064,3.3015-1.6845,8.0855c2.1898-0.3032,10.4101-2.6951,12.9368-0.8086
	C182.7365,421.0223,183.006,421.2581,183.1407,421.595z M309.5774,407.3107c1.2128,0.9096,3.3353,0.4043,4.8513,0.2021v0.0337
	c1.8529-1.0107,2.2572-3.1669,2.4593-5.1882c0-0.5053-0.1011-1.0106-0.6064-1.4149c-2.1562,0-4.2786,0.5054-5.6935,2.2235
	C309.9817,404.4807,308.8699,405.8957,309.5774,407.3107z M235.1911,339.1905c9.9721-1.9539,20.2137-4.2786,29.9836-7.0074
	c0.7749-0.2021,2.493-0.3705,2.2909-1.4823c-3.5711-0.7075-19.9441,3.6385-24.0543,5.0197c-1.8529,0.6064-2.931,0.2021-4.7502,0
	c-1.3813,0.876-2.7962,1.7855-3.8406,3.0658h-0.0337L235.1911,339.1905z M302.9743,347.4444
	c-0.5054-0.3032-1.0781-0.5054-1.6845-0.4043l-2.7289,0.438l-53.6337,8.7256l-2.6614,1.2128c0,0,36.3509-5.1545,55.8234-7.9844
	c0.6738-0.1011,1.3813-0.2021,2.0214-0.3032l0.0337,0.0338C300.9192,349.0616,303.3786,348.8257,302.9743,347.4444z
	 M258.7063,403.8743l4.5481,9.7699c3.1668,4.1438,0.8759,9.8373-0.2021,13.9812c0.1011,0.5728,0.6738,0.876,1.1791,0.977
	l0.0337,0.0674c3.1331-3.1668,5.9967-7.5801,4.8176-12.5325l-5.3229-12.5325c-0.2021-0.9096-1.1117-1.7855-1.9877-1.6844
	C260.593,402.2909,259.1106,402.493,258.7063,403.8743z M162.9608,423.9869c-2.2572,0.1685-3.47,0.1348-6.4347,0.7412
	c-4.8513,0.977-9.6689,1.3813-14.5875,2.7626c-0.8086,0.2695-1.6508,1.4149-1.7519,2.1898c0.2695,0.5053,0.977,0.6401,1.3813,0.6401
	l19.2367-4.9186L162.9608,423.9869z M394.6434,233.2708c0-14.9581-12.3304-27.0527-27.558-27.0527h-33.4536v91.6018h19.4725
	v-75.8687h9.9384c7.1759,0,12.6336,5.3566,12.6336,11.9935c0,6.6368-5.8283,11.9934-13.0041,11.9934h-4.5144v21.8982l5.0197,7.7486
	l14.419,22.2687h22.9426l-0.8423-1.2128l-4.6828-6.6368v-0.0337l-13.5095-19.2367l-0.101-0.1348l-7.7486-11.0501
	C385.7156,256.6513,394.6434,245.9717,394.6434,233.2708z M461.8539,247.9931c12.3304,5.7272,16.0025,13.1389,16.0025,23.5827
	c0,8.5908-4.5144,16.2383-11.4544,21.0222c-0.0337,0-0.0674,0.0674-0.1011,0.0674c-1.2128,0.8422-2.4593,1.5497-3.7732,2.1898
	v-0.0337c-3.7732,1.8529-8.0518,2.931-12.5998,2.9984h-40.3937v-91.6018h31.2638c10.4438,0,18.1587,2.6952,22.5383,7.5128
	c4.1775,4.4807,6.5695,10.2079,6.5695,16.4405C469.9057,237.0777,466.8737,243.3102,461.8539,247.9931z M457.9122,270.1608
	c0-6.5021-4.885-11.7576-11.3871-11.7576h-11.6565V241.929h6.3673c5.3566,0,9.7025-4.3459,9.7025-9.7026
	c0-5.3566-4.3459-10.2753-9.7025-10.2753h-12.1956v51.1743v8.793h8.0854h9.3994c1.0444-0.0674,2.0551-0.2696,2.9647-0.5054h0.0337
	C454.7117,279.9981,457.7101,275.8543,457.9122,270.1608z M301.5257,466.8063c0.2358,1.516,0.1684,2.9983-0.1348,4.447
	c-0.3032,1.415-0.8759,2.7962-1.7181,4.0764c-0.8086,1.2802-1.9203,2.3582-3.2679,3.2342l-44.4027,28.5013
	c-1.3813,0.8759-2.7962,1.4149-4.3122,1.6507c-1.516,0.2358-2.9983,0.1685-4.447-0.1347c-1.4487-0.3032-2.8299-0.876-4.1102-1.7182
	c-1.2802-0.8422-2.3582-1.9203-3.2341-3.2679v0.0337c-0.8759-1.3476-1.415-2.7962-1.6508-4.3123
	c-0.2358-1.516-0.2021-2.9983,0.1348-4.447c0.3031-1.4487,0.8759-2.7963,1.7181-4.0764c0.8422-1.2802,1.9203-2.3583,3.2679-3.2342
	l44.4028-28.5013c1.3476-0.8759,2.7962-1.4149,4.3122-1.6507c1.516-0.2359,2.9984-0.2021,4.4471,0.1347
	c1.4823,0.3032,2.8299,0.8759,4.1101,1.7182c1.2802,0.8085,2.3582,1.9203,3.2342,3.2679
	C300.7508,463.8416,301.2898,465.2903,301.5257,466.8063z M294.9225,470.2763l-4.1775-6.502l-49.8604,32.005l4.1775,6.502
	L294.9225,470.2763z M305.1978,490.5911l5.3566-13.1053l-5.3566-4.6828l-49.2878,56.2277l5.8283,5.1208h0.0337l22.5045-25.6714
	c1.1118-1.2466,2.2909-2.6615,3.6048-4.2112c1.3139-1.5497,2.5941-3.0994,3.8406-4.7165c1.2465-1.5834,2.493-3.1331,3.6721-4.5818
	c1.1791-1.4487,2.2235-2.7963,3.0658-3.9754l0.1684,0.1348c-2.055,4.3459-3.8406,8.4897-5.4577,12.3977
	c-1.5834,3.9417-3.2342,7.9171-4.8849,11.9261l0.1684,0.1348c3.7733-2.1898,7.4791-4.3123,11.1849-6.4011
	c3.7059-2.0887,7.5464-4.447,11.5892-7.0411l0.1685,0.1347c-1.0107,1.0444-2.1898,2.2572-3.5038,3.6048
	c-1.3138,1.3476-2.6951,2.7625-4.1101,4.2112c-1.4149,1.4487-2.7963,2.931-4.1775,4.4471c-1.3476,1.4823-2.594,2.8636-3.7058,4.1438
	l-22.5045,25.6714l5.8283,5.0871l49.2877-56.2278l-5.3566-4.6828l-12.2967,7.0411c-1.7181,1.0107-3.4363,2.0214-5.1882,3.0321
	c-1.7181,1.0107-3.4363,2.055-5.0871,3.0994l-0.1685-0.1347c0.8085-1.7856,1.6171-3.6048,2.4256-5.4577
	C303.6481,494.2632,304.4229,492.4103,305.1978,490.5911z M300.2204,562.1977l37.5253-64.6565l-6.7017-3.8895l-37.5252,64.6565
	L300.2204,562.1977z M329.4543,527.7505c-0.8759,2.2571-1.0444,4.6155-0.4717,7.0074v0.0336
	c0.6064,2.3246,1.8866,4.3796,3.7732,6.0641l-12.1282,31.1291l7.2095,2.8299l12.1282-31.1291c2.5604,0,4.885-0.6064,6.9063-1.9203
	c2.0551-1.3813,3.5374-3.2005,4.4133-5.4578l11.0165-28.2991l-7.2096-2.8299l-12.1956,31.3312l-7.4117-2.8973l12.1956-31.3313
	l-7.2096-2.8299L329.4543,527.7505z M363.9523,515.016c0.8759-1.2802,1.9203-2.3246,3.1331-3.1668
	c1.2128-0.8422,2.5604-1.4486,4.0427-1.8193c1.4823-0.3705,2.9984-0.4043,4.5818-0.1347c1.5834,0.2696,2.9984,0.8423,4.2786,1.7181
	c1.2802,0.8759,2.3246,1.9203,3.1668,3.1331c0.8422,1.2128,1.4486,2.5604,1.8193,4.0427c0.3705,1.4824,0.4043,2.9984,0.1347,4.5818
	l-11.2523,62.7635l-7.6138-1.3476l5.8956-32.982l-7.6138-1.3813l-5.8956,32.982l-7.6138-1.3475l11.2186-62.7635
	C362.5036,517.7112,363.0763,516.2961,363.9523,515.016z M365.9062,542.7761l7.6138,1.3813l4.5481-25.3682l-7.6139-1.3476v-0.0336
	L365.9062,542.7761z M425.3008,517.3405l-0.0674-0.0337c0.7748,1.3139,1.2128,2.7962,1.3813,4.3796l6.3673,63.4373l-7.7149,0.7749
	l-3.3353-33.319l-7.7149,0.7749l3.3353,33.3526l-7.7149,0.7748l-6.3336-63.4373c-0.1347-1.6171,0.0337-3.1331,0.5054-4.5818
	c0.5053-1.4487,1.2128-2.7626,2.1561-3.908c0.9433-1.1454,2.0888-2.0887,3.4027-2.8636c1.3139-0.7749,2.7962-1.2128,4.3796-1.3813
	c1.6171-0.1347,3.1331,0,4.5818,0.5054c1.4486,0.4717,2.7626,1.1792,3.908,2.1225
	C423.5826,514.8811,424.5259,516.0266,425.3008,517.3405z M421.2244,544.8985l-2.5604-25.6377l-7.7148,0.7748l2.5604,25.6377
	L421.2244,544.8985z M452.3871,511.108l6.7716,22.673c0.5053,1.7518,0.5727,3.0657,0.1684,4.0427
	c-0.438,0.9433-1.0107,1.853-1.7855,2.6615c1.0444,0.0674,2.0214,0.4716,2.931,1.2128c0.9096,0.7749,1.6845,2.2572,2.3583,4.447
	l7.1422,23.8859l-0.0338-0.0338c0.3032,1.0107,0.7412,1.8529,1.3139,2.5604c0.5728,0.7075,1.2802,1.4486,2.0887,2.2234
	l-7.6138,2.2909c-0.6064-0.6401-1.2465-1.3476-1.8529-2.1898c-0.6401-0.8422-1.0781-1.7181-1.3476-2.6614l-8.0181-26.7831
	l-7.4117,2.2235l9.6015,32.1061l-7.4117,2.2236l-21.4265-71.6239l14.8571-4.447c2.0887-0.6401,4.0428-0.438,5.9294,0.5727
	C450.5342,507.5031,451.7807,509.0529,452.3871,511.108z M452.2861,538.0258l-7.378-24.6943l-7.4116,2.2234l7.378,24.6944
	L452.2861,538.0258z M471.5564,495.0381c2.0214,0.6064,3.5711,1.8529,4.5818,3.7732l0.0001-0.0337l28.0296,52.2187
	c1.0107,1.8866,1.2128,3.8743,0.6064,5.8956c-0.6064,2.0214-1.8529,3.5711-3.7732,4.5818l-13.6443,7.3443l-35.3402-65.8629
	l13.6443-7.3105C467.5474,494.6338,469.5351,494.4316,471.5564,495.0381z M469.2993,502.4834l-6.839,3.6721l28.0297,52.2188
	l6.8389-3.6722L469.2993,502.4834z M526.3568,544.3754l-45.5092-59.3087l-6.1473,4.7171l45.5092,59.3087L526.3568,544.3754z
	 M487.4241,479.2377l5.6936,5.2556l5.2555-5.6936l43.4594,40.2927l-5.2556,5.6935l-8.5908-7.9844l-5.2892,5.6935l6.2325,5.7609
	c1.1792,1.0781,2.493,1.8866,3.9417,2.3583c1.4486,0.5054,2.9309,0.7075,4.4133,0.6401c1.4824-0.0673,2.931-0.3705,4.3459-0.9769
	c1.4149-0.6064,2.6614-1.4824,3.7396-2.6615c1.078-1.1791,1.8866-2.493,2.3582-3.9417c0.5054-1.4487,0.7075-2.931,0.6401-4.4133
	c-0.0337-1.4824-0.3705-2.931-0.977-4.3459c-0.6063-1.415-1.4823-2.6615-2.6614-3.7396l0.0001,0.0674l-46.761-43.3584
	L487.4241,479.2377z M514.7801,451.0059h-0.0338c1.516,0.101,2.9984,0.539,4.4133,1.3138l56.1266,30.2532l-3.6721,6.8053
	l-29.512-15.9015l-3.6722,6.8053l29.512,15.9014l-3.6722,6.8053l-56.1267-30.2531c-1.4149-0.7748-2.5604-1.7518-3.5037-2.9647
	c-0.9096-1.2129-1.5834-2.5267-2.0214-3.9417c-0.438-1.4149-0.5727-2.8973-0.4716-4.4133c0.1011-1.516,0.539-2.9983,1.3138-4.4133
	c0.7749-1.4149,1.7519-2.5604,2.9647-3.5037c1.2129-0.9096,2.5267-1.5835,3.9417-2.0214
	C511.7817,451.0396,513.264,450.9048,514.7801,451.0059z M512.6577,457.6091l-3.6721,6.8052l22.6731,12.2293l3.6721-6.8053
	L512.6577,457.6091z"/>
<g>
</g>
<g>
</g>
<g>
</g>
<g>
</g>
<g>
</g>
<g>
</g>
<g>
</g>
<g>
</g>
<g>
</g>
<g>
</g>
<g>
</g>
<g>
</g>
<g>
</g>
<g>
</g>
<g>
</g>
</svg>
