<?xml version="1.0" encoding="utf-8"?>
<!-- Created by @FCLOGO 2025-2-8 GMT+8 16:02:47 . https://fclogo.top/ -->
<!-- FOR PERSONAL USE ONLY NOT FOR COMMERCIAL USE -->
<svg version="1.1" xmlns="http://www.w3.org/2000/svg" xmlns:xlink="http://www.w3.org/1999/xlink" x="0px" y="0px"
	 viewBox="0 0 800 800" style="enable-background:new 0 0 800 800;" xml:space="preserve">
<path style="fill:#1E120D;" d="M740.079,406.5542c0-168.777-138.3652-306.0846-308.4371-306.0846
	c-44.1002,0-86.6519,9.0618-126.5435,26.9505c-18.5741-39.9969-36.6733-61.4064-37.4341-62.3019L254.8797,50l-11.6813,16.173
	c-5.1581,7.3541-50.6072,74.1344-68.175,166.7375c-10.2326,2.8974-25.1862,8.908-41.335,21.2961
	c-24.1125,18.4013-55.7572,55.4173-69.5859,127.2693l-4.1815,21.636l21.8788-3.4073c0.1943-0.0215,20.2979-3.178,41.6183-5.9728
	c-0.1808,4.3298-0.2698,8.6274-0.2698,12.8224c0,80.4336,31.2319,156.2837,87.998,213.8268
	c-24.7141,60.8262-103.3645,90.2911-106.7178,91.524l-43.3718,15.4852l44.1515,13.9339c3.383,1.0143,21.4849,6.0969,44.9905,6.0969
	c12.8171,0,25.1431-1.5134,36.6166-4.4999c3.4477-0.8902,6.7228-1.7562,9.8576-2.5925l5.0988-1.3434
	c20.2035-5.4144,33.552-8.9943,47.3834-8.9943c12.4609,0,26.7374,2.927,47.7314,9.8144C317.4352,746.5766,337.957,750,357.8692,750
	c30.4252,0,49.1099-8.0959,51.1737-9.0402l38.3486-17.6837l-40.728-11.3091c-0.5504-0.1456-1.09-0.3048-1.6241-0.4451
	c8.8109,0.7419,17.7,1.125,26.6025,1.125C601.7139,712.6469,740.079,575.3339,740.079,406.5542 M305.1982,671.1177
	c0.4506,0.7877,0.9038,1.5566,1.3624,2.3174c2.169,3.5718,4.5079,6.9116,7.0142,10.0518
	c16.9176,21.1963,41.6479,33.1986,76.1819,43.6227c-7.4485,1.8291-18.2692,3.6689-31.8875,3.6689
	c-17.8133,0-36.3091-3.1078-54.9695-9.2344c-18.717-6.1427-32.8614-9.4259-45.3708-10.4376v-66.3541V168.3505V83.4549
	c7.0789,9.7604,21.3878,31.3991,34.9305,63.2003c0.9604,2.2662,1.9262,4.5889,2.8839,6.9629
	c15.2126,37.7766,28.696,88.5296,28.696,149.9116c0,78.2592-13.7531,135.3841-24.8112,181.2973
	c-9.2101,38.2892-17.1713,71.3502-14.5463,104.7565c2.4522,30.9163,7.578,54.3625,15.9599,72.6559
	c0.5584,1.222,1.1331,2.4172,1.7212,3.5933c0.6987,1.3921,1.4082,2.7463,2.1474,4.0764
	C304.7314,670.3137,304.9634,670.7158,305.1982,671.1177 M181.9944,724.3282c-9.9008,2.5656-20.6081,3.874-31.7957,3.874
	c-11.3117,0-21.2583-1.3461-28.3021-2.6816c11.5167-5.1014,30.6006-14.6407,50.1513-29.0818
	c29.071-21.4526,48.913-46.4337,58.6519-73.4922c0.9442-2.6061,1.7886-5.2256,2.5386-7.8667
	c2.3767-8.3684,3.8065-16.9069,4.2625-25.5909c2.4441-46.3421-9.4152-85.4406-21.922-126.7891
	c-5.9486-19.6451-12.2424-40.4745-17.3816-63.4431l0.1942,0.2454l-3.0134-13.6479c-1.8156-9.3207-3.3776-19.0056-4.659-29.0926
	c-2.5116-22.3429-4.6429-57.91-0.1969-99.4177c0.5206-3.9279,1.1169-7.7911,1.7508-11.6381
	c0.9577-5.8299,2.0368-11.5653,3.2265-17.1956c15.0022-71.1209,46.7305-125.4563,58.6734-144.1572v86.4252v9.3963v452.7615v9.3909
	v68.5715c-1.6915-0.0944-3.3614-0.1376-5.0178-0.1376c-16.3646,0-30.7598,3.8416-52.555,9.6957
	C192.0786,721.6655,187.2226,722.9631,181.9944,724.3282 M230.0198,589.087c-0.3642,6.9656-1.3839,13.6452-2.9459,20.0416
	c-52.2879-51.9264-84.6987-123.568-84.6987-202.5745c0-9.1346,0.4505-18.1667,1.2976-27.08
	c9.2803-0.9928,17.4895-1.6565,22.8473-1.6565c1.4028,0,2.5493,0.0405,3.445,0.143c11.5626,1.2194,16.3538,5.2039,17.5003,6.3425
	c5.6275,29.9154,13.5778,56.1511,20.9535,80.5603C220.7558,505.5915,232.3939,544.0533,230.0198,589.087 M302.147,150.1056
	c21.7088-10.8207,44.9635-19.03,69.3781-24.1584v561.2195c-20.7349-4.3488-40.639-10.9232-59.4612-19.4346
	c-10.8531-18.7305-17.1496-43.9167-19.8959-78.7368c-2.5764-32.2166,5.2606-64.738,14.3466-102.404
	c11.1471-46.3123,25.0109-103.9149,25.0109-183.0616C331.5255,239.029,316.8147,186.4956,302.147,150.1056 M609.3701,632.7017
	V180.4014c67.8513,52.5522,111.5063,134.3725,111.5063,226.1528C720.8764,498.3157,677.2213,580.1494,609.3701,632.7017
	 M606.0573,635.2484c-33.1285,24.9137-71.8601,42.9321-113.9612,51.8508V612.107h33.4467l10.5806,25.3184h52.2906l-69.3323-140.2886
	H492.096v-53.6044h33.4467l10.5806,25.3238h52.2906l-69.3323-140.294H492.096v-32.7022c1.6861,0.0432,3.3937,0.0648,5.131,0.0648
	c29.8264,0,52.1801-4.6671,67.1445-14.0337c14.9537-9.3666,22.4318-23.4004,22.4318-42.0149v-0.5341h-57.3812
	c0,8.2201-2.7112,14.7864-8.22,19.6667c-4.7966,4.2354-11.05,6.6202-18.6955,7.149c-1.0871,0.0728-2.2094,0.1106-3.356,0.1106
	c-2.4928,0-4.8398-0.1969-7.0546-0.5557v-78.7718c2.5952-0.5287,5.3658-0.8228,8.3387-0.8228
	c8.2686,0,14.8862,2.3282,19.9418,6.9413c5.007,4.6617,8.0419,11.2658,9.0455,19.8474h57.3812
	c-0.9253-18.2206-8.889-32.1276-23.7429-41.7586c-14.9401-9.6309-36.1418-14.4195-63.6347-14.4195
	c-2.4981,0-4.9288,0.0594-7.3297,0.143v-30.8434c42.1011,8.9161,80.8328,26.9263,113.9612,51.8616V635.2484z M492.096,534.2767
	l20.8159,47.2026H492.096h-3.2994h-22.1188l22.1188-47.4778l1.6349-3.5044L492.096,534.2767z M492.096,365.7075l20.8159,47.1972
	H492.096h-3.2994h-22.1188l22.1188-47.4697l1.6349-3.507L492.096,365.7075z M488.7966,265.0084
	c-5.6491-1.4892-10.2919-4.3029-13.9123-8.4575c-5.6545-6.507-8.4656-15.8466-8.4656-28.0216
	c0-13.7829,2.9217-24.2474,8.765-31.5017c3.5853-4.4405,8.1283-7.5105,13.6128-9.2371V265.0084z M488.7966,157.0011
	c-25.1079,1.33-44.9472,7.4727-59.6716,18.4256c-16.7315,12.4448-25.0837,29.8183-25.0837,52.0397
	c0,21.8248,8.0905,38.7182,24.2878,50.5991c14.6138,10.7802,34.7795,16.637,60.4675,17.6757v32.8209H466.961l-72.6803,140.294
	h47.084l11.3144-25.3238h36.1176v53.6044H466.961l-72.6803,140.2886h47.084l11.3144-25.3184h36.1176v75.6747
	c-18.4715,3.6959-37.5986,5.6411-57.1547,5.6411c-19.4481,0-38.4268-1.9316-56.7958-5.5709V125.2674
	c18.369-3.6556,37.3477-5.5737,56.7958-5.5737c19.5561,0,38.6832,1.9397,57.1547,5.6357V157.0011z M144.9515,269.7888
	c13.6479-10.5347,26.3058-15.6523,34.4368-18.0938c1.6537-0.4992,3.1348-0.8957,4.3784-1.1952
	c-0.2428,2.0098-0.4451,3.9657-0.6609,5.9324c-0.2023,1.4946-0.3885,2.9972-0.5719,4.4998
	c-1.6834,13.8206-2.6142,28.1052-2.6142,42.7324c0,19.6396,1.2976,37.7983,3.4855,54.7968
	c0.7203,6.4125,1.4865,11.7568,2.1177,15.7927c-3.4855-1.5916-8.2929-3.0485-14.7918-3.7552c-1.1277-0.0999-2.517-0.17-4.2112-0.17
	c-5.3092,0-13.1651,0.6097-22.0272,1.5297c-2.4819,0.2563-5.0286,0.5341-7.6292,0.8282c-19.9958,2.3039-42.6812,5.6707-52.8248,7.23
	C97.0906,317.7981,124.2058,285.7865,144.9515,269.7888 M234.9427,139.618c4.3299,0,7.8586,3.5098,7.8586,7.8506
	c0,4.3488-3.5287,7.872-7.8586,7.872c-4.3434,0-7.8748-3.5232-7.8748-7.872C227.068,143.1279,230.5993,139.618,234.9427,139.618"/>
<g>
</g>
<g>
</g>
<g>
</g>
<g>
</g>
<g>
</g>
<g>
</g>
<g>
</g>
<g>
</g>
<g>
</g>
<g>
</g>
<g>
</g>
<g>
</g>
<g>
</g>
<g>
</g>
<g>
</g>
</svg>
