<?xml version="1.0" encoding="UTF-8"?>
<svg id="_图层_1" data-name="图层_1" xmlns="http://www.w3.org/2000/svg" version="1.1" viewBox="0 0 800 800">
  <!-- Created by @FCLOGO 2024-11-29 GMT+8 10:38:02 . https://fclogo.top/ -->
<!-- FOR PERSONAL USE ONLY NOT FOR COMMERCIAL USE -->
  <defs>
    <style>
      .st0 {
        fill: #ccc;
      }

      .st1 {
        fill: #fff;
      }

      .st2 {
        fill: #152950;
      }

      .st3 {
        fill: #f9800b;
      }
    </style>
  </defs>
  <path class="st0" d="M348.22,774.3c-.79,0-1.38-.22-1.77-.65-.39-.44-.53-1.03-.41-1.79l.25-1.65c.12-.75.45-1.35.98-1.78.53-.44,1.19-.65,1.98-.65s1.33.2,1.72.6c.39.4.55.94.47,1.62h-1.24c.03-.36-.06-.64-.26-.84-.2-.2-.5-.3-.89-.3-.42,0-.76.12-1.03.35-.27.23-.43.56-.5.99l-.26,1.66c-.07.44,0,.77.19,1,.19.23.5.35.92.35.39,0,.72-.1.98-.3.26-.2.44-.48.52-.85h1.24c-.14.69-.47,1.23-.99,1.63-.52.4-1.16.6-1.92.6ZM352.8,774.19l1-6.29h1.19l-.19,1.19c.34-.87.97-1.3,1.91-1.3.67,0,1.17.21,1.49.62.32.42.43.99.31,1.71l-.07.42h-1.27l.06-.32c.07-.45.01-.8-.17-1.04-.18-.24-.48-.36-.88-.36s-.74.12-1.01.37c-.27.24-.43.59-.5,1.03l-.63,3.97h-1.24ZM361.91,774.3c-.77,0-1.35-.22-1.73-.67s-.52-1.04-.4-1.77l.25-1.65c.08-.49.26-.92.52-1.28s.6-.65,1.01-.85c.41-.2.87-.3,1.38-.3.77,0,1.35.22,1.73.67.39.45.52,1.04.39,1.77l-.17,1.12h-3.85l-.09.53c-.15.95.22,1.43,1.11,1.43.72,0,1.17-.25,1.37-.74h1.22c-.17.53-.5.96-1.01,1.28-.5.32-1.09.47-1.76.47ZM361.23,770.22l-.05.29h2.65s.05-.3.05-.3c.07-.47.01-.82-.17-1.07-.18-.25-.49-.37-.92-.37s-.8.13-1.06.38c-.26.25-.43.61-.51,1.08ZM368.33,774.3c-.63,0-1.1-.21-1.41-.64s-.4-1-.27-1.73l.27-1.77c.11-.73.39-1.31.84-1.74.44-.43.98-.64,1.61-.64.47,0,.83.12,1.09.35.26.24.39.56.38.96h.02l.17-1.2h1.24l-1,6.29h-1.22l.19-1.2h-.02c-.12.41-.35.73-.69.97s-.74.35-1.21.35ZM368.93,773.23c.39,0,.72-.12.98-.36.26-.24.43-.57.5-1.01l.25-1.65c.07-.43,0-.76-.18-1-.19-.24-.47-.36-.86-.36s-.72.12-.98.35c-.26.24-.42.57-.49,1.01l-.25,1.65c-.07.44-.01.78.17,1.01.18.23.47.35.88.35ZM376.35,774.19c-.57,0-.99-.16-1.26-.47-.27-.31-.36-.75-.27-1.32l.54-3.39h-1.74l.17-1.12h1.74l.27-1.72h1.24l-.27,1.72h2.47l-.18,1.12h-2.46l-.54,3.39c-.08.44.1.66.53.66h1.72l-.17,1.12h-1.77ZM382.5,774.3c-.77,0-1.35-.22-1.73-.67s-.52-1.04-.4-1.77l.25-1.65c.08-.49.26-.92.52-1.28s.6-.65,1.01-.85c.41-.2.87-.3,1.38-.3.77,0,1.35.22,1.73.67.39.45.52,1.04.39,1.77l-.17,1.12h-3.85l-.09.53c-.15.95.22,1.43,1.11,1.43.72,0,1.17-.25,1.37-.74h1.22c-.17.53-.5.96-1.01,1.28-.5.32-1.09.47-1.76.47ZM381.83,770.22l-.05.29h2.65s.05-.3.05-.3c.07-.47.01-.82-.17-1.07-.18-.25-.49-.37-.92-.37s-.8.13-1.06.38c-.26.25-.43.61-.51,1.08ZM388.92,774.3c-.63,0-1.1-.21-1.4-.64-.3-.42-.39-1-.28-1.73l.27-1.77c.11-.73.39-1.31.84-1.74.44-.43.98-.64,1.61-.64.47,0,.83.12,1.09.35.26.24.39.56.38.96h.02l.21-1.47.3-1.8h1.24l-1.33,8.35h-1.22l.19-1.2h-.02c-.12.41-.35.73-.69.97s-.74.35-1.21.35ZM389.53,773.23c.39,0,.72-.12.98-.36.26-.24.43-.57.5-1.01l.25-1.65c.08-.43.02-.76-.17-1-.19-.24-.48-.36-.87-.36s-.72.12-.98.35c-.26.24-.42.57-.49,1.01l-.25,1.65c-.08.44-.02.78.16,1.01s.48.35.88.35ZM401.02,774.3c-.47,0-.84-.12-1.1-.35-.26-.23-.39-.56-.38-.97h-.01l-.19,1.2h-1.22l1.33-8.35h1.24l-.29,1.8-.27,1.47h.05c.12-.41.35-.73.69-.97.34-.23.74-.35,1.21-.35.63,0,1.1.21,1.4.64.3.43.39,1.01.28,1.74l-.27,1.77c-.11.73-.39,1.31-.84,1.73-.45.42-.98.64-1.61.64ZM400.77,773.23c.4,0,.72-.12.98-.35.26-.23.42-.57.5-1.01l.25-1.65c.07-.43.01-.77-.17-1.01-.18-.24-.47-.35-.87-.35s-.72.12-.98.36-.43.57-.5,1l-.25,1.65c-.07.44-.01.77.17,1.01.18.24.47.36.87.36ZM405.47,776.25l.17-1.06h1.93c.64,0,1.01-.3,1.1-.9l.1-.67.21-1.19h-.03c-.12.42-.35.74-.68.97-.33.23-.73.34-1.2.34-.63,0-1.09-.2-1.4-.6s-.41-.94-.3-1.63l.58-3.6h1.24l-.56,3.48c-.06.41,0,.73.18.96s.47.34.85.34.72-.12.98-.37c.27-.24.43-.58.49-1.02l.54-3.4h1.24l-1.01,6.41c-.1.6-.37,1.08-.81,1.42-.44.35-1,.52-1.67.52h-1.95ZM417.79,770.09h3.22l.54-1.85h-5.47l-1.71,6.44h2.15l.59-2.1h3.03l.44-1.71h-3.03l.24-.78ZM424.23,772.92c-.59,0-1.02-.39-1.02-1.12,0-.88.63-1.76,1.61-1.76.49,0,.88.24,1.02.78l1.95-.83c-.29-1.17-1.27-1.9-2.64-1.9-2.78,0-4.15,2.15-4.15,3.9s1.27,2.83,3.07,2.83c1.37,0,2.34-.59,2.98-1.42l-1.51-1.17c-.39.44-.83.68-1.32.68ZM430.91,768.23h-2.15l-1.76,6.44h5.12l.49-1.85h-2.93l1.22-4.59ZM439.75,771.01c0-1.66-1.32-2.93-3.22-2.93-2.2,0-3.81,1.81-3.81,3.81,0,1.66,1.32,2.93,3.22,2.93,2.2,0,3.81-1.81,3.81-3.81ZM434.92,771.7c0-.83.59-1.71,1.51-1.71.78,0,1.17.54,1.17,1.22,0,.83-.59,1.71-1.51,1.71-.78,0-1.17-.54-1.17-1.22ZM443.21,772.23h1.07l-.2.68c-.15.05-.34.1-.59.1-.68,0-1.27-.39-1.27-1.22,0-1.02.73-1.9,1.95-1.9.59,0,1.12.24,1.51.59l1.37-1.37c-.44-.54-1.51-1.07-2.73-1.07-2.59,0-4.29,1.76-4.29,3.86s1.61,2.88,3.22,2.88c.93,0,1.85-.29,2.49-.68l.93-3.32h-3.12l-.34,1.46ZM450.78,768.08c-2.2,0-3.81,1.81-3.81,3.81,0,1.66,1.32,2.93,3.22,2.93,2.2,0,3.81-1.81,3.81-3.81,0-1.66-1.32-2.93-3.22-2.93ZM450.34,772.92c-.78,0-1.17-.54-1.17-1.22,0-.83.59-1.71,1.51-1.71.78,0,1.17.54,1.17,1.22,0,.83-.59,1.71-1.51,1.71ZM437.94,767.5c-.05.29.1.49.44.49s.54-.2.63-.49c.05-.24-.1-.49-.44-.49s-.59.24-.63.49ZM432.13,765.5c-.44,0-.73.24-.78.59s.1.59.54.59.73-.24.78-.59c.1-.34-.1-.59-.54-.59ZM433.01,767.3c-.1.54.15.88.83.88.63,0,1.07-.39,1.17-.88s-.15-.88-.83-.88c-.68,0-1.07.39-1.17.88ZM439.6,777.55l-2.44-1.81h-1.51l4.25,3.17,1.61-3.17h-.98l-.93,1.81ZM425.84,767.16l-2-1.46,23.13-2.78-2.15,4.25h1.02l2.68-5.32-26.99,3.22,2.78,2.1h1.51ZM338.72,785.79l.61-3.83h2.32l-.08.52h-1.76l-.18,1.14h1.63l-.08.52h-1.62l-.26,1.64h-.57ZM342.97,785.84c-.36,0-.62-.1-.8-.3-.17-.2-.23-.47-.18-.82l.27-1.7c.06-.34.2-.61.44-.82.24-.2.54-.3.89-.3s.62.1.8.3c.17.2.24.47.18.81l-.27,1.71c-.06.34-.2.62-.44.82-.24.2-.54.3-.9.3ZM343.05,785.33c.19,0,.35-.05.47-.16.12-.11.19-.26.23-.46l.27-1.7c.03-.2,0-.35-.08-.46-.08-.11-.22-.16-.41-.16s-.35.05-.46.16c-.12.1-.19.26-.22.46l-.27,1.7c-.03.2,0,.35.08.46s.22.16.41.16ZM345,785.79l.61-3.83h1.2c.24,0,.44.05.6.14.16.09.28.22.36.39s.09.37.05.59c-.04.26-.14.48-.3.67-.16.19-.37.32-.6.39l.54,1.64h-.62l-.48-1.57h-.54l-.25,1.57h-.57ZM345.89,783.71h.64c.19,0,.35-.06.48-.17.13-.11.21-.26.24-.45.03-.19,0-.35-.09-.46-.09-.11-.24-.17-.43-.17h-.64l-.2,1.25ZM349.54,785.79l.61-3.83h1.25c.37,0,.65.1.84.31.19.21.26.49.2.84-.04.23-.12.44-.25.61s-.29.31-.49.4c-.2.09-.42.14-.66.14h-.69l-.24,1.52h-.57ZM350.43,783.75h.69c.19,0,.36-.06.49-.18.14-.12.22-.27.25-.47s0-.35-.1-.47-.25-.18-.44-.18h-.69l-.21,1.29ZM352.75,785.79l.61-3.83h2.25l-.08.5h-1.7l-.17,1.09h1.51l-.08.5h-1.51l-.19,1.24h1.69l-.08.5h-2.25ZM355.84,785.79l.61-3.83h1.2c.24,0,.44.05.6.14.16.09.28.22.36.39s.09.37.05.59c-.04.26-.14.48-.3.67-.16.19-.37.32-.6.39l.54,1.64h-.62l-.48-1.57h-.54l-.25,1.57h-.57ZM356.74,783.71h.64c.19,0,.35-.06.48-.17.13-.11.21-.26.24-.45.03-.19,0-.35-.09-.46-.09-.11-.24-.17-.43-.17h-.64l-.2,1.25ZM360.13,785.84c-.39,0-.67-.1-.87-.29-.19-.19-.26-.45-.22-.78h.57c-.03.17.01.31.12.41.11.1.27.15.48.15.2,0,.37-.05.5-.15.13-.1.21-.23.24-.4.02-.15,0-.28-.06-.39-.06-.11-.16-.18-.29-.22l-.46-.14c-.27-.08-.46-.22-.59-.41-.13-.19-.17-.42-.13-.68.04-.21.11-.39.23-.55s.27-.28.46-.37.4-.13.64-.13c.35,0,.62.1.8.29.18.19.25.44.2.76h-.57c.03-.17,0-.3-.09-.4-.09-.1-.23-.14-.42-.14s-.34.04-.46.13c-.12.09-.19.21-.21.38-.02.15,0,.28.05.39s.16.18.29.22l.47.15c.26.08.46.22.58.41.12.19.17.42.12.69-.04.22-.12.41-.24.57-.13.16-.29.29-.49.38-.2.09-.42.13-.66.13ZM363.27,785.84c-.36,0-.62-.1-.8-.3-.17-.2-.23-.47-.18-.82l.27-1.7c.06-.34.2-.61.44-.82.24-.2.54-.3.89-.3s.62.1.8.3c.17.2.24.47.18.81l-.27,1.71c-.06.34-.2.62-.44.82-.24.2-.54.3-.9.3ZM363.34,785.33c.19,0,.35-.05.47-.16.12-.11.19-.26.23-.46l.27-1.7c.03-.2,0-.35-.08-.46-.08-.11-.22-.16-.41-.16s-.35.05-.46.16c-.12.1-.19.26-.22.46l-.27,1.7c-.03.2,0,.35.08.46s.22.16.41.16ZM365.28,785.79l.61-3.83h.71l.62,3.19c0-.1.02-.22.03-.36.01-.14.03-.29.04-.44.02-.15.04-.29.06-.41l.31-1.98h.52l-.61,3.83h-.71l-.61-3.19c0,.09-.02.21-.03.34s-.03.28-.04.42c-.02.15-.04.28-.06.41l-.31,2.01h-.53ZM368.23,785.79l1.59-3.83h.75l.37,3.83h-.56l-.07-.97h-1.09l-.39.97h-.59ZM369.39,784.34h.87l-.09-1.1c-.02-.2-.03-.37-.04-.51,0-.14-.01-.24-.01-.3-.02.06-.05.16-.1.3s-.11.31-.19.5l-.44,1.11ZM371.72,785.79l.61-3.83h.57l-.52,3.31h1.67l-.08.52h-2.25ZM376.68,785.84c-.37,0-.63-.1-.8-.3-.17-.2-.22-.47-.17-.82l.44-2.76h.57l-.44,2.76c-.03.2,0,.35.07.46.08.11.21.17.41.17s.35-.06.46-.17c.12-.11.19-.27.22-.46l.44-2.76h.57l-.44,2.76c-.06.35-.2.62-.43.82-.23.2-.53.3-.9.3ZM379.84,785.84c-.39,0-.67-.1-.87-.29-.19-.19-.26-.45-.22-.78h.57c-.03.17.01.31.12.41.11.1.27.15.48.15.2,0,.37-.05.5-.15.13-.1.21-.23.24-.4.02-.15,0-.28-.06-.39-.06-.11-.16-.18-.29-.22l-.46-.14c-.27-.08-.46-.22-.59-.41-.13-.19-.17-.42-.13-.68.04-.21.11-.39.23-.55s.27-.28.46-.37.4-.13.64-.13c.35,0,.62.1.8.29.18.19.25.44.2.76h-.57c.03-.17,0-.3-.09-.4-.09-.1-.23-.14-.42-.14s-.34.04-.46.13c-.12.09-.19.21-.21.38-.02.15,0,.28.05.39s.16.18.29.22l.47.15c.26.08.46.22.58.41.12.19.17.42.12.69-.04.22-.12.41-.24.57-.13.16-.29.29-.49.38-.2.09-.42.13-.66.13ZM381.91,785.79l.61-3.83h2.25l-.08.5h-1.7l-.17,1.09h1.51l-.08.5h-1.51l-.19,1.24h1.69l-.08.5h-2.25ZM386.94,785.84c-.36,0-.62-.1-.8-.3-.17-.2-.23-.47-.18-.82l.27-1.7c.06-.34.2-.61.44-.82.24-.2.54-.3.89-.3s.62.1.8.3c.17.2.24.47.18.81l-.27,1.71c-.06.34-.2.62-.44.82-.24.2-.54.3-.9.3ZM387.02,785.33c.19,0,.35-.05.47-.16.12-.11.19-.26.23-.46l.27-1.7c.03-.2,0-.35-.08-.46-.08-.11-.22-.16-.41-.16s-.35.05-.46.16c-.12.1-.19.26-.22.46l-.27,1.7c-.03.2,0,.35.08.46s.22.16.41.16ZM388.95,785.79l.61-3.83h.71l.62,3.19c0-.1.02-.22.03-.36.01-.14.03-.29.04-.44.02-.15.04-.29.06-.41l.31-1.98h.52l-.61,3.83h-.71l-.61-3.19c0,.09-.02.21-.03.34s-.03.28-.04.42c-.02.15-.04.28-.06.41l-.31,2.01h-.53ZM392.25,785.79l.61-3.83h.57l-.52,3.31h1.67l-.08.52h-2.25ZM396.12,785.79l.22-1.41-.75-2.42h.58l.45,1.45c.03.09.05.18.07.27.02.08.03.15.03.19.02-.04.05-.1.09-.19.04-.08.09-.17.14-.27l.9-1.45h.6l-1.53,2.42-.22,1.41h-.57ZM399.22,785.79l.61-3.83h.71l.62,3.19c0-.1.02-.22.03-.36.01-.14.03-.29.04-.44.02-.15.04-.29.06-.41l.31-1.98h.52l-.61,3.83h-.71l-.61-3.19c0,.09-.02.21-.03.34s-.03.28-.04.42c-.02.15-.04.28-.06.41l-.31,2.01h-.53ZM403.51,785.84c-.36,0-.62-.1-.8-.3-.18-.2-.23-.47-.18-.82l.27-1.7c.06-.34.2-.61.44-.82.24-.2.54-.3.89-.3s.62.1.8.3c.17.2.24.47.18.81l-.27,1.71c-.06.34-.2.62-.44.82-.24.2-.54.3-.89.3ZM403.58,785.33c.19,0,.35-.05.47-.16.12-.11.19-.26.23-.46l.27-1.7c.03-.2,0-.35-.08-.46-.08-.11-.22-.16-.41-.16s-.35.05-.46.16c-.12.1-.19.26-.22.46l-.27,1.7c-.03.2,0,.35.08.46.08.11.22.16.41.16ZM406.38,785.79l.52-3.31h-1.02l.08-.52h2.62l-.08.52h-1.03l-.52,3.31h-.57ZM409.52,785.79l.61-3.83h2.32l-.08.52h-1.76l-.18,1.14h1.63l-.08.52h-1.62l-.26,1.64h-.57ZM413.77,785.84c-.36,0-.62-.1-.8-.3-.18-.2-.23-.47-.18-.82l.27-1.7c.06-.34.2-.61.44-.82.24-.2.54-.3.89-.3s.62.1.8.3c.17.2.24.47.18.81l-.27,1.71c-.06.34-.2.62-.44.82-.24.2-.54.3-.89.3ZM413.85,785.33c.19,0,.35-.05.47-.16.12-.11.19-.26.23-.46l.27-1.7c.03-.2,0-.35-.08-.46-.08-.11-.22-.16-.41-.16s-.35.05-.46.16c-.12.1-.19.26-.22.46l-.27,1.7c-.03.2,0,.35.08.46.08.11.22.16.41.16ZM415.8,785.79l.61-3.83h1.2c.24,0,.44.05.6.14.16.09.28.22.36.39s.09.37.05.59c-.04.26-.14.48-.3.67-.16.19-.37.32-.6.39l.54,1.64h-.62l-.48-1.57h-.54l-.25,1.57h-.57ZM416.69,783.71h.64c.19,0,.35-.06.48-.17.13-.11.21-.26.24-.45.03-.19,0-.35-.09-.46-.09-.11-.24-.17-.43-.17h-.64l-.2,1.25ZM420.91,785.84c-.36,0-.63-.1-.81-.3-.18-.2-.24-.47-.19-.82l.27-1.7c.06-.35.21-.62.45-.82s.55-.3.91-.3.63.1.81.3c.18.2.24.47.19.82h-.57c.03-.2,0-.35-.09-.46-.09-.11-.23-.16-.42-.16s-.35.05-.47.16c-.12.1-.2.26-.23.45l-.27,1.71c-.03.2,0,.35.09.46.09.11.23.16.42.16s.35-.05.47-.16.2-.26.23-.46h.57c-.03.23-.11.43-.24.59s-.28.3-.47.39c-.19.09-.4.14-.64.14ZM424.03,785.84c-.36,0-.62-.1-.8-.3-.18-.2-.23-.47-.18-.82l.27-1.7c.06-.34.2-.61.44-.82.24-.2.54-.3.89-.3s.62.1.8.3c.17.2.24.47.18.81l-.27,1.71c-.06.34-.2.62-.44.82-.24.2-.54.3-.89.3ZM424.11,785.33c.19,0,.35-.05.47-.16.12-.11.19-.26.23-.46l.27-1.7c.03-.2,0-.35-.08-.46-.08-.11-.22-.16-.41-.16s-.35.05-.46.16c-.12.1-.19.26-.22.46l-.27,1.7c-.03.2,0,.35.08.46.08.11.22.16.41.16ZM425.97,785.79l.61-3.83h.69l.18,1.23c.02.12.04.23.05.33.01.1.02.18.03.24.02-.06.05-.14.09-.24.04-.11.09-.22.15-.34l.57-1.22h.71l-.61,3.83h-.54l.2-1.29c.02-.17.06-.35.1-.55.04-.2.09-.4.14-.61s.1-.4.14-.59c.05-.19.09-.35.13-.49l-.86,1.86h-.55l-.28-1.86c0,.14-.01.29-.02.47s-.02.37-.04.57c-.02.2-.04.41-.06.61-.02.2-.05.4-.08.57l-.2,1.29h-.54ZM429.11,785.79l.61-3.83h.69l.18,1.23c.02.12.04.23.05.33.01.1.02.18.03.24.02-.06.05-.14.09-.24.04-.11.09-.22.15-.34l.57-1.22h.71l-.61,3.83h-.54l.2-1.29c.02-.17.06-.35.1-.55.04-.2.09-.4.14-.61s.1-.4.14-.59c.05-.19.09-.35.13-.49l-.86,1.86h-.55l-.28-1.86c0,.14-.01.29-.02.47s-.02.37-.04.57c-.02.2-.04.41-.06.61-.02.2-.05.4-.08.57l-.2,1.29h-.54ZM432.41,785.79l.61-3.83h2.25l-.08.5h-1.7l-.17,1.09h1.51l-.08.5h-1.51l-.19,1.24h1.69l-.08.5h-2.25ZM435.51,785.79l.61-3.83h1.2c.24,0,.44.05.6.14.16.09.28.22.36.39s.09.37.05.59c-.04.26-.14.48-.3.67-.16.19-.37.32-.6.39l.54,1.64h-.62l-.48-1.57h-.54l-.25,1.57h-.57ZM436.4,783.71h.64c.19,0,.35-.06.48-.17.13-.11.21-.26.24-.45.03-.19,0-.35-.09-.46-.09-.11-.24-.17-.43-.17h-.64l-.2,1.25ZM439.8,785.84c-.36,0-.63-.1-.81-.3-.18-.2-.24-.47-.19-.82l.27-1.7c.06-.35.21-.62.45-.82s.55-.3.91-.3.63.1.81.3c.18.2.24.47.19.82h-.57c.03-.2,0-.35-.09-.46-.09-.11-.23-.16-.42-.16s-.35.05-.47.16c-.12.1-.2.26-.23.45l-.27,1.71c-.03.2,0,.35.09.46.09.11.23.16.42.16s.35-.05.47-.16.2-.26.23-.46h.57c-.03.23-.11.43-.24.59s-.28.3-.47.39c-.19.09-.4.14-.64.14ZM441.88,785.79l.08-.5h.78l.45-2.82h-.78l.08-.5h2.13l-.08.5h-.78l-.45,2.82h.78l-.08.5h-2.13ZM444.74,785.79l1.59-3.83h.75l.37,3.83h-.56l-.07-.97h-1.09l-.39.97h-.59ZM445.9,784.34h.87l-.09-1.1c-.02-.2-.03-.37-.04-.51,0-.14-.01-.24-.01-.3-.02.06-.05.16-.1.3s-.11.31-.19.5l-.44,1.11ZM448.24,785.79l.61-3.83h.57l-.52,3.31h1.67l-.08.52h-2.25ZM453.19,785.84c-.37,0-.63-.1-.8-.3-.17-.2-.22-.47-.17-.82l.44-2.76h.57l-.44,2.76c-.03.2,0,.35.07.46.08.11.21.17.41.17s.35-.06.46-.17c.12-.11.19-.27.22-.46l.44-2.76h.57l-.44,2.76c-.06.35-.2.62-.43.82-.23.2-.53.3-.9.3ZM456.36,785.84c-.39,0-.67-.1-.87-.29-.19-.19-.26-.45-.22-.78h.57c-.03.17.01.31.12.41.11.1.27.15.48.15.2,0,.37-.05.5-.15s.21-.23.24-.4c.02-.15,0-.28-.06-.39s-.16-.18-.29-.22l-.46-.14c-.27-.08-.46-.22-.59-.41-.13-.19-.17-.42-.13-.68.04-.21.11-.39.23-.55s.27-.28.46-.37c.19-.09.4-.13.64-.13.35,0,.62.1.8.29.18.19.25.44.2.76h-.57c.03-.17,0-.3-.09-.4-.09-.1-.23-.14-.42-.14s-.34.04-.46.13c-.12.09-.19.21-.21.38-.02.15,0,.28.05.39s.16.18.29.22l.47.15c.26.08.46.22.58.41.12.19.17.42.12.69-.04.22-.12.41-.24.57-.13.16-.29.29-.49.38-.2.09-.42.13-.66.13ZM458.42,785.79l.61-3.83h2.25l-.08.5h-1.7l-.17,1.09h1.51l-.08.5h-1.51l-.19,1.24h1.69l-.08.5h-2.25Z"/>
  <g>
    <circle class="st1" cx="400" cy="400" r="350"/>
    <path class="st2" d="M400,725.99c-87.07,0-168.94-33.91-230.51-95.48-61.57-61.57-95.48-143.43-95.48-230.51s33.91-168.94,95.48-230.51c61.57-61.57,143.43-95.48,230.51-95.48s168.94,33.91,230.51,95.48c61.57,61.57,95.48,143.43,95.48,230.51s-33.91,168.94-95.48,230.51-143.43,95.48-230.51,95.48Z"/>
    <g>
      <path class="st3" d="M211.94,588.06c-50.23-50.23-77.9-117.02-77.9-188.06,0-55.24,16.73-107.9,47.79-152.21l-9.85-6.87c-32.46,46.31-49.94,101.35-49.94,159.08,0,74.25,28.91,144.05,81.41,196.55,5.07,5.07,10.3,9.91,15.68,14.53l7.81-9.12c-5.15-4.42-10.15-9.06-15-13.91Z"/>
      <path class="st3" d="M623.62,255.91c27.55,42.56,42.33,92.19,42.33,144.09,0,71.04-27.66,137.82-77.9,188.06-7.43,7.43-15.22,14.34-23.33,20.77l7.44,9.43c8.48-6.71,16.62-13.94,24.38-21.7,52.5-52.5,81.41-122.3,81.41-196.55,0-54.24-15.45-106.11-44.24-150.59l-10.1,6.51Z"/>
    </g>
    <g>
      <path class="st1" d="M592.13,426.48c-1.3,9.58-3.32,18.99-6,28.17l10.69,6.14c4.35-14.15,7.2-28.83,8.4-43.84.44-5.26.67-10.55.7-15.89v-1.06c0-18.26-2.36-36.16-6.94-53.35l-9.53,11.73c2.94,13.52,4.46,27.45,4.46,41.61,0,3.57-.1,7.12-.3,10.66-50.84,37.71-110.76,57.57-173.99,57.57-11.18,0-22.51-.65-33.7-1.92-68.81-7.8-131.3-38.83-178.6-88.21.61-5.51,1.49-10.96,2.56-16.35l-11.26-4.91c-.68,3.21-1.31,6.43-1.84,9.67-.85,5.23-1.5,10.53-1.95,15.86-.49,5.82-.74,11.71-.74,17.63,0,13.74,1.34,27.28,3.96,40.46l12.14-.6c-2.69-12.97-4.09-26.31-4.09-39.86,0-2.01.04-4,.1-5.99,48.27,46.99,110.36,76.53,178.39,84.24,73.96,8.39,146.86-9.93,207.56-51.77Z"/>
      <path class="st1" d="M562.57,503.75c-1.53,2.72-1.17,2.14-3.06,5.44l8.23,10.28c3.6-5.04,6.97-10.22,10.09-15.53l-15.25-.19Z"/>
      <path class="st1" d="M395.63,605.86l-4.97-12.18c-8.87-.42-17.63-1.44-26.23-3.03l-3.07,11.64c11.21,2.12,22.66,3.32,34.27,3.56Z"/>
      <path class="st1" d="M524.63,548.56c-26.45,22.27-57.96,36.85-91.77,42.59l5.12,11.28c36.11-6.7,69.65-22.93,97.59-47.44l-10.94-6.43Z"/>
      <path class="st1" d="M531.63,241.64c-30.38-25.34-66.96-41.19-106.09-46l1.72,12.35c34.12,4.77,66.08,18.47,93.12,39.96l11.26-6.32Z"/>
      <path class="st1" d="M232.34,302.48c5-8.56,10.66-16.78,16.99-24.57,1.33,1.81,2.71,3.6,4.13,5.38,35.98,45.19,87.42,73.67,144.83,80.18,57.39,6.51,113.9-9.73,159.09-45.71,4.42-3.52,8.67-7.18,12.76-10.97.9,1.63,1.76,3.28,2.61,4.93l13.19-.41c-2.15-4.5-4.45-8.93-6.93-13.27-2.05-3.59-4.23-7.13-6.5-10.61-4.39-6.69-9.2-13.14-14.39-19.34l-7.14,10.2c4.65,5.75,8.96,11.73,12.89,17.91-4.44,4.24-9.11,8.3-13.98,12.17-36.56,29.1-80.41,44.5-126.83,44.5-7.77,0-15.66-.44-23.44-1.33-54.21-6.15-102.79-33.04-136.78-75.72-1.89-2.37-3.71-4.75-5.48-7.19,1.79-1.96,3.63-3.87,5.51-5.75,5.51-5.51,11.3-10.64,17.33-15.4l-3.08-12.77c-7.97,5.95-15.58,12.52-22.74,19.68-1.34,1.34-2.67,2.7-3.96,4.08-2.87,3.01-5.63,6.11-8.28,9.27-6.67,7.94-12.66,16.31-18,25.03l8.19,9.7Z"/>
      <path class="st1" d="M242.25,512.86s-11.93-15.55-18.94-33.55l-13.15.71c.28.67.55,1.33.84,2,10.18,23.44,24.79,44.99,43.39,63.59,4.11,4.11,8.38,8.02,12.77,11.74l8.96-8.16c-4.56-3.8-8.98-7.82-13.23-12.07-7.59-7.59-14.48-15.7-20.63-24.25Z"/>
      <path class="st1" d="M462.19,551.91c-18.72,4.63-38.1,7-57.87,7-9.2,0-18.53-.53-27.72-1.57-17.51-1.99-34.52-5.82-50.82-11.35l-8.26,9.85c18.43,6.63,37.77,11.16,57.72,13.43,33.38,3.78,66.48.99,97.85-7.9l-10.9-9.46Z"/>
      <path class="st1" d="M394.46,194.16c-21.01.55-41.49,4.24-60.9,10.84l7.91,10.05c16.98-5.35,34.77-8.37,53-8.88v-12.01Z"/>
    </g>
    <g>
      <path class="st3" d="M256.79,195.64l34.19,44.04,15.85-12.45v10.64s-18.34,28.76-13.25,42.68c5.09,13.93,31.25,48.57,102.24,54.69,0,0-24.46-17.32-18.68-49.59s14.59-38.04,17.32-41.44-3.73-18-14.94-22.42-28.53-5.43-50.61,0l-7.13-21.74s-17.32,12.83-20.55,14.99-5.77,2.67-14.78-2.93-29.66-16.48-29.66-16.48Z"/>
      <path class="st3" d="M404.26,192.98v41.73s13.08-7.2,16.7-3.8c3.62,3.4,1.13,11.77,1.13,11.77,0,0-38.5,17.44-35.55,46.65,2.94,29.21,22.42,45.74,31.7,47.1,9.28,1.36,56.61,4.08,64.31-6.57,7.7-10.64,14.95-35.1,10.64-52.76s-24.46-35.55-49.82-43.93c0,0-7.13-17.49-13.25-25.76,0,0-11.05,8.72-13.28,8.72s-12.59-23.15-12.59-23.15Z"/>
      <path class="st3" d="M564.73,261.76s-16.16-6.45-48.09-9.17l5.77,17.66-20.72,2.72s7.47,39.06-5.77,53.33c0,0,15.96-3.4,27.51-9.17,11.55-5.77,18.34-10.87,18.68-14.61s-10.09-12.23-10.48-15.96,8.78-9.85,8.78-9.85l-6.11-11.33,30.43-3.61Z"/>
      <path class="st3" d="M181.62,331.28s19.93,10.42,33.51,22.19l11.82-18.95s9.47,94.58,88.72,97.3c0,0-12.23-45.29,3.17-75.63,0,0-41.21-17.66-47.55-41.67l-33.06,17.21-9.28-27.17-18.79,27.4-28.53-.68Z"/>
      <path class="st3" d="M329.03,358.68s-14.95,28.98-6.79,52.53,20.83,45.74,91.94,29.44l61.14,17.66-26.27-28.53,11.32-16.34-24.91-12.84s-2.46-12.03-2.59-26.97c0,0-71.98-.44-103.84-14.95Z"/>
      <path class="st3" d="M440.43,373.63s3.17,15.4,6.57,19.7,24.23,9.28,24.23,9.28c0,0-3.45,16.62-8.38,26.72,0,0,13.59,11.32,27.17,9.06,13.59-2.26,39.63-16.53,43.02-36.68,3.4-20.15-2.26-36.46-7.7-46.42,0,0-52.99,20.83-84.92,18.34Z"/>
      <path class="st3" d="M531.63,348.04s31.54,32.15,7.54,69.29c0,0,32.15-12.83,37.14-20.34s9.31-28.57,9.64-34c.33-5.43-7.6-11.77-7.6-11.77,0,0,10.19-3.85,11.77-6.79,1.59-2.94-2.01-12.23-4.18-16.08l27.73,1.36-43.7-16.53-.91,17.66s-25.71,11.1-37.43,17.21Z"/>
      <path class="st3" d="M166.78,466.01s20.83,12.34,34.42,24.57c0,0-.68-19.7,0-22.08s23.78,6.79,30.91,7.47c0,0,29.21,34.65,63.86,39.06,0,0-14.27-29.21-7.13-55.03,0,0-38.86-13.59-61.89-29.21l-8.76,19.02-28.53,3.06,1.02,15.96-23.89-2.83Z"/>
      <path class="st3" d="M276.12,558.45l39.21-5.37v-21.74s39.06,9.85,47.89,10.19c8.83.34,27.91-1.02,34.33-58.42,0,0-51.66,6.45-93.44-17.66,0,0-13.17,30.97,3.74,49.59,2.72,4.43-15.28,10.19-17.66,10.87s3.4,10.53,5.77,15.28c2.38,4.76-19.85,17.26-19.85,17.26Z"/>
      <path class="st3" d="M400,507.91s-3.49,25.57-16.4,38.09c0,0,43.48,4.84,51.63,2.57,8.15-2.27,7.81-3.63,3.4-11.1-4.42-7.47-16.45-30.57-38.63-29.55Z"/>
      <path class="st3" d="M405.04,484.13s50.42,6.81,95.9-14.94c0,0,3.58,16.01-18.61,42.76l10.87,10.9s-10.26,10.87-8.98,13.36,7.39,4.77,21.89,12.35c0,0-19.7,10.97-24,16.41,0,0,2.61-9.28,5.15-13.36,0,0-21.23-10.42-27.57-12.45,0,0,3.17-11.52,6.11-19.68,0,0-26.04.38-39.17-7.86-13.13-8.24-21.58-27.48-21.58-27.48Z"/>
      <path class="st3" d="M554.9,552.29l-15.62-11.55s8.49-9.17,15.62-27.17c0,0-10.74-.85-20.82-1.62-6.01-11.97-12.15-30.82-22.99-31.71-6.79,4.12-15.17,26.53-15.17,26.53,0,0,8.6,7.13,10.19,11.55,1.59,4.42-4.53,10.19-4.53,12.91s11.63,7.47,28.74-7.13l-3.27,15.96,27.85,12.23Z"/>
      <path class="st3" d="M621.34,488.09l-30.43-20.72s-6.11,7.05-7.13,12.87l-17.32-5.05s6.81-9.85,2.22-25.14c0,0-18.86,12.91-48.41,23.44,0,0,7.47,14.95,18,14.61,10.53-.34,11.55-4.76,19.02-2.04,7.47,2.72,18,9.85,22.08,10.87,4.08,1.02,11.89-8.49,11.89-8.49l30.09-.34Z"/>
      <path class="st3" d="M410.21,581.39s16.42,23.66,26.61,27.74c4.9,1.96-36.82,25.47-36.82,25.47l12.66-23.52-12.66-12.82,10.21-16.88Z"/>
      <path class="st3" d="M368.88,627.47l-45.51-19.47s7.13-1.59,9.17-3.96-1.7-9.42-10.87-13.37c-9.17-3.95-35.32-16.86-35.32-16.86,0,0,21.59-5.43,31.17-5.43s41.85,16.64,41.85,16.64l-13.59,5.65s9.51,7.26,9.51,9.63-10.53,4.01-10.53,5.57,24.12,21.6,24.12,21.6Z"/>
    </g>
    <g>
      <path class="st1" d="M290.23,620.76c-.37-2.43-1.82-4.45-4.35-6.06-3.47-2.2-6.62-2.44-9.46-.74-1.63.99-3.51,3.01-5.64,6.07l-11.08-7.02c3.2-4.65,6.54-7.93,10-9.86,6.58-3.66,13.75-3.04,21.52,1.88,6.14,3.88,9.98,8.62,11.53,14.2,1.55,5.58.61,11.08-2.82,16.49-2.63,4.15-6.24,7.02-10.84,8.62-3.03,1.07-7.3,1.71-12.81,1.9l-6.54.24c-4.09.15-6.95.33-8.55.54-1.61.21-3.14.66-4.59,1.37l25.33,16.04-6.14,9.7-39.73-25.16c2.65-3.95,5.87-7.06,9.65-9.32,3.99-2.71,10.34-4.23,19.04-4.57,7.56-.31,12.6-.75,15.15-1.35,3.92-.94,6.81-2.87,8.65-5.78,1.5-2.37,2.07-4.77,1.7-7.2Z"/>
      <path class="st1" d="M351,703.23c-8.6-1.59-14.1-5.58-16.49-11.97-2.4-6.39-2.61-14.9-.64-25.54s5.22-18.53,9.75-23.66c4.53-5.14,11.1-6.91,19.7-5.32,8.6,1.59,14.1,5.6,16.51,12.02,2.38,6.42,2.58,14.94.61,25.58-1.97,10.64-5.22,18.51-9.75,23.62-4.53,5.11-11.09,6.86-19.69,5.27ZM361.78,688.45c1.94-3.69,3.59-9.23,4.96-16.64s1.89-13.63,1.36-17.59c-.54-3.96-2.77-6.31-6.72-7.04-3.94-.73-6.9.65-8.86,4.15-1.97,3.5-3.67,9.13-5.1,16.89-1.37,7.41-1.79,13.19-1.24,17.36.55,4.16,2.79,6.61,6.73,7.34,3.94.73,6.9-.76,8.87-4.47Z"/>
      <path class="st1" d="M448.06,648.89c-1.95-1.49-4.39-1.93-7.33-1.34-4.02.82-6.47,2.81-7.34,5.99-.5,1.83-.46,4.57.12,8.22l-12.86,2.61c-.9-5.53-.76-10.18.41-13.94,2.22-7.15,7.83-11.65,16.83-13.47,7.12-1.45,13.16-.71,18.14,2.22s8.1,7.5,9.36,13.73c.97,4.78.35,9.32-1.87,13.63-1.45,2.86-4.09,6.25-7.93,10.18l-4.56,4.68c-2.85,2.93-4.79,5.02-5.81,6.28-1.02,1.26-1.81,2.64-2.37,4.14l29.38-5.97,2.27,11.17-46.09,9.37c-.82-4.65-.64-9.09.53-13.31,1.01-4.68,4.54-10.14,10.59-16.38,5.25-5.42,8.58-9.22,10.01-11.39,2.18-3.38,2.93-6.74,2.25-10.09-.55-2.73-1.8-4.84-3.75-6.33Z"/>
      <path class="st1" d="M509.74,622c-.27,2.47.48,5.1,2.25,7.88l-10.76,6.56c-1.62-2.91-2.77-5.91-3.44-9-.42-2.81-.2-5.78.67-8.91.69-2.26,1.86-4.38,3.5-6.36,1.64-1.98,3.97-3.88,6.99-5.73,5.61-3.42,10.99-4.76,16.15-4.03s9.19,3.48,12.1,8.24c2.05,3.37,2.76,6.83,2.12,10.4-.41,2.24-1.16,4.04-2.24,5.43,1.05-.64,3.1-.68,6.14-.12,4.56.86,8.24,3.6,11.05,8.2,2.95,4.84,3.83,10.14,2.63,15.91-1.2,5.77-5.17,10.7-11.91,14.81-8.3,5.06-15.68,5.94-22.14,2.62-3.41-1.78-6.6-4.89-9.57-9.32l11.32-6.91c1.4,2.29,2.93,3.95,4.6,4.99,3.09,1.91,6.48,1.73,10.17-.52,2.26-1.38,3.78-3.34,4.54-5.88s.28-5.23-1.46-8.07c-2.29-3.76-5.39-5.32-9.29-4.67-2.21.37-5.23,1.73-9.06,4.06l-4.91-8.05c3.71-2.34,6.11-4.29,7.19-5.85,1.89-2.67,1.8-5.68-.25-9.05-1.33-2.18-3.07-3.56-5.21-4.13-2.14-.57-4.4-.13-6.77,1.31-2.72,1.66-4.2,3.72-4.44,6.17Z"/>
    </g>
    <g>
      <path class="st1" d="M253.47,221.9c-2.28,7.81-7.42,14.18-15.42,19.12-9.9,6.11-19.62,7.79-29.15,5.02-9.55-2.79-17.71-9.67-24.47-20.63-7.31-11.85-9.73-22.97-7.24-33.36,2.16-9.05,7.56-16.24,16.22-21.58,11.58-7.15,22.36-8.63,32.34-4.45,5.55,2.38,9.75,5.62,12.58,9.72l-14.39,8.88c-2.94-2.68-5.66-4.39-8.14-5.15-4.43-1.33-9.22-.41-14.36,2.76s-8.07,7.86-8.53,13.88c-.45,6.02,1.67,12.84,6.37,20.45,4.7,7.61,9.81,12.33,15.35,14.15,5.53,1.82,10.76,1.21,15.68-1.82s7.89-7.11,8.52-12c.38-2.65-.02-6.03-1.22-10.12l14.25-8.79c3.32,8.17,3.86,16.14,1.61,23.93Z"/>
      <path class="st1" d="M387.17,181.86l-21.42,4.51-21.71-23.59-11.28,30.53-20.51,4.31,17.47-46.05-32.32-33.4,20.6-4.43,20.48,22.56,10.05-28.98,20.39-4.29-16.36,43.62,34.62,35.21Z"/>
      <path class="st1" d="M508.94,134.05l-40.23-9.87-4.44,18.07,35.22,8.64-3.35,13.65-35.22-8.64-8.09,32.94-16.66-4.09,19.26-78.47,56.88,13.96-3.39,13.81Z"/>
      <path class="st1" d="M593.94,247.26c-8.03.99-15.91-1.19-23.64-6.54-9.57-6.62-15.02-14.82-16.35-24.59-1.32-9.8,1.65-19.94,8.9-30.4,7.83-11.32,16.99-17.88,27.46-19.7,9.11-1.59,17.84.51,26.21,6.3,11.19,7.75,16.9,16.99,17.12,27.73.08,6-1.18,11.09-3.77,15.28l-13.9-9.62c1.25-3.73,1.71-6.88,1.4-9.44-.58-4.56-3.35-8.56-8.31-12-5.05-3.5-10.42-4.27-16.08-2.32-5.67,1.95-11.02,6.57-16.05,13.84-5.03,7.27-7.26,13.78-6.68,19.54.58,5.76,3.24,10.28,8,13.57,4.87,3.37,9.67,4.39,14.37,3.05,2.57-.69,5.48-2.39,8.73-5.08l13.76,9.53c-6.09,6.23-13.14,9.86-21.14,10.87Z"/>
    </g>
  </g>
</svg>