<?xml version="1.0" encoding="utf-8"?>
<!-- Created by @FCLOGO 2025-2-10 GMT+8 19:13:09 . https://fclogo.top/ -->
<!-- FOR PERSONAL USE ONLY NOT FOR COMMERCIAL USE -->
<svg version="1.1" xmlns="http://www.w3.org/2000/svg" xmlns:xlink="http://www.w3.org/1999/xlink" x="0px" y="0px"
	 viewBox="0 0 800 800" style="enable-background:new 0 0 800 800;" xml:space="preserve">
<g>
	<path style="fill:#133958;" d="M269.4481,222.4023c-50.4023,37.0862-84.445,95.0876-89.2957,161.2527
		c-0.3826,5.3841-0.5837,10.831-0.5837,16.3595c0,4.7816,0.1631,9.5382,0.4332,14.2572
		c2.2528,35.147,12.7637,68.0351,29.5561,96.7565h35.7432c-19.8546-27.6107-32.5305-60.7749-35.1974-96.7565h59.3444v124.3421
		v38.9814c9.6196,7.1034,19.8481,13.4665,30.635,18.9321v-34.3691V414.2716V383.655V237.8455v-34.3816
		C289.2962,208.9359,279.0677,215.2675,269.4481,222.4023 M269.4481,383.655h-59.1812
		c4.0851-48.0551,26.0041-91.0524,59.1812-122.265V383.655z"/>
	<path style="fill:#133958;" d="M686.2707,379.1326c-4.8569-67.9099-33.4026-129.3184-77.3789-175.9805
		c-8.145-8.6471-16.8614-16.8112-26.0229-24.4041c-5.0894-4.2106-10.3416-8.2455-15.7132-12.0859v47.8605v41.7612v52.3601v70.4888
		v39.4455v72.7794v52.3598c5.6352-6.5638,10.8873-13.4352,15.7132-20.5699c10.8746-16.1209,19.66-33.7729,26.0229-52.5294v-52.0399
		H619.66h29.3301c-3.1877,43.4492-17.514,83.8048-40.0983,118.2365c-2.6542,4.0538-5.4467,8.0197-8.3146,11.904
		c-5.5157,7.4297-11.4331,14.5269-17.7083,21.2603c-12.5001,13.4665-26.5063,25.5461-41.7173,36.0256v43.9763
		c14.7717-8.3647,28.7211-17.9909,41.7173-28.759c59.1682-48.9587,98.3442-121.1607,103.5524-202.6437
		c0.3956-6.1622,0.6277-12.318,0.6277-18.5618C687.049,392.9693,686.7728,386.0352,686.2707,379.1326 M619.4593,379.1326h-10.5675
		v-49.7872v-66.1653c22.2017,33.8358,36.4023,73.388,39.9352,115.9525H619.4593z"/>
	<path style="fill:#133958;" d="M400.0061,50C206.6812,50,50.0156,206.7031,50.0156,400.0156
		C50.0156,593.2968,206.6812,750,400.0061,750C593.3,750,749.9844,593.2968,749.9844,400.0156
		C749.9844,206.7031,593.3,50,400.0061,50 M400.0061,724.2781c-179.0802,0-324.2685-145.226-324.2685-324.2625
		c0-179.1055,145.1883-324.2937,324.2685-324.2937c179.0744,0,324.2564,145.1883,324.2564,324.2937
		C724.2625,579.0521,579.0806,724.2781,400.0061,724.2781"/>
	<polygon style="fill:#133958;" points="527.918,366.7905 555.9865,366.7905 555.9865,380.0813 538.5793,380.0813 538.5793,391.339 
		554.4744,391.339 554.4744,404.7992 538.5793,404.7992 538.5793,416.0254 555.9865,416.0254 555.9865,430.2575 527.918,430.2575 	
		"/>
	<path style="fill:#133958;" d="M476.2211,676.7852c-13.5668,3.7274-27.4661,6.476-41.7361,8.1954
		c-11.3078,1.324-22.8164,2.0645-34.482,2.0645c-158.5293,0-287.0444-128.5277-287.0444-287.0256
		c0-158.5732,128.5151-287.0634,287.0444-287.0634c11.6656,0,23.1741,0.7216,34.482,2.0646
		c14.27,1.7193,28.1693,4.493,41.7361,8.189v38.9813c-13.4665-4.3488-27.4037-7.5303-41.7361-9.4819
		c-11.2952-1.5751-22.7911-2.397-34.482-2.397c-35.536,0-69.3465,7.4361-99.9192,20.8209
		c-10.6425,4.6374-20.8523,9.9964-30.6415,16.0142c-71.4741,43.9073-119.1464,122.8112-119.1464,212.8722
		c0,90.0422,47.6723,168.9021,119.1464,212.8659c8.3648,5.133,17.0621,9.7641,26.0543,13.9183
		c31.7898,14.665,67.1818,22.8918,104.5064,22.8918c11.6909,0,23.1868-0.8032,34.482-2.3783
		c14.3324-1.9829,28.2696-5.1833,41.7361-9.488V676.7852z"/>
	<path style="fill:#133958;" d="M368.4591,564.6538c12.9456,0,12.9456-11.1697,12.9456-11.1697V452.8807
		c-0.4267-18.4677-11.1761-28.7277-11.1761-28.7277s-27.1022-29.5309-41.6039-44.1645
		c-9.9524-10.1029-10.8751-18.6185-10.8938-21.3292V220.6246c0,0-0.3639-38.8055,50.7283-38.8055
		c51.0297,0,50.6781,38.8055,50.6781,38.8055v93.663h-37.7325v-69.6918c0-7.4989-12.9456-7.1852-12.9456-7.1852
		c-11.4645,0-12.9958,7.1852-12.9958,7.1852v94.667c0.2321,3.4388,1.8698,11.2577,10.8559,20.3629
		c14.4581,14.6651,41.5794,44.1645,41.5794,44.1645s9.9398,9.488,11.1194,26.6066h0.1191v152.1036
		c0,0,3.3509,41.9557-49.9186,35.7997c-53.2699-6.1622-51.4878-58.2836-51.4878-58.2836v-62.7892v-25.2387h37.7325v25.2387v55.397
		C355.4634,552.6243,355.4634,564.6538,368.4591,564.6538"/>
	<path style="fill:#133958;" d="M434.4831,617.7536v-30.4157v-374.652v-30.4345c14.4332,2.2528,28.3826,5.9176,41.7426,10.8436
		v32.317v349.1497c24.8494-10.8874,46.9445-26.8703,64.9228-46.6622v41.4224c-19.1705,15.9766-41.0834,28.7842-64.9228,37.5819
		C462.8657,611.8235,448.9163,615.4631,434.4831,617.7536"/>
	<path style="fill:#133958;" d="M523.04,394.4829h0.0192c0-0.1946-0.0192-0.3765-0.0192-0.5711v-0.7155h-0.0123
		c-0.5588-25.4708-16.642-26.4059-16.642-26.4059h-20.7834v63.4733h20.7834v-0.2009c0,0,16.19-0.9225,16.642-26.6129h0.0123v-0.4895
		c0-0.2258,0.0192-0.3953,0.0192-0.5962H523.04V394.4829z M512.065,403.6509c0,12.4561-9.3124,12.7761-9.3124,12.7761l-0.0567,0.113
		l-6.1557-0.0816v-35.693h6.1557c0,0,9.3124,0.2823,9.3124,12.8014v1.4619v1.9204v3.263h0.0566V403.6509z"/>
</g>
<g>
</g>
<g>
</g>
<g>
</g>
<g>
</g>
<g>
</g>
<g>
</g>
<g>
</g>
<g>
</g>
<g>
</g>
<g>
</g>
<g>
</g>
<g>
</g>
<g>
</g>
<g>
</g>
<g>
</g>
</svg>
