<?xml version="1.0" encoding="utf-8"?>
<!-- Created by @FCLOGO 2024-9-25 GMT+8 16:07:21 . https://fclogo.top/ -->
<!-- FOR PERSONAL USE ONLY NOT FOR COMMERCIAL USE -->
<!-- Created by @FCLOGO 2024-9-25 GMT+8 16:07:21 . https://fclogo.top/ -->
<!-- FOR PERSONAL USE ONLY NOT FOR COMMERCIAL USE -->
<svg version="1.1" xmlns="http://www.w3.org/2000/svg" xmlns:xlink="http://www.w3.org/1999/xlink" x="0px" y="0px"
	 viewBox="0 0 800 800" style="enable-background:new 0 0 800 800;" xml:space="preserve">
<path style="fill:#CCCCCC;" d="M348.22,774.3c-0.79,0-1.38-0.22-1.77-0.65c-0.39-0.44-0.53-1.03-0.41-1.79l0.25-1.65
	c0.12-0.75,0.45-1.35,0.98-1.78c0.53-0.44,1.19-0.65,1.98-0.65c0.76,0,1.33,0.2,1.72,0.6c0.39,0.4,0.55,0.94,0.47,1.62h-1.24
	c0.03-0.36-0.06-0.64-0.26-0.84c-0.2-0.2-0.5-0.3-0.89-0.3c-0.42,0-0.76,0.12-1.03,0.35c-0.27,0.23-0.43,0.56-0.5,0.99l-0.26,1.66
	c-0.07,0.44-0.01,0.77,0.19,1c0.19,0.23,0.5,0.35,0.92,0.35c0.39,0,0.72-0.1,0.98-0.3c0.26-0.2,0.44-0.48,0.52-0.85h1.24
	c-0.14,0.69-0.47,1.23-0.99,1.63C349.61,774.1,348.97,774.3,348.22,774.3z M352.8,774.19l1-6.29h1.19l-0.19,1.19
	c0.34-0.87,0.97-1.3,1.91-1.3c0.67,0,1.17,0.21,1.49,0.62c0.32,0.42,0.43,0.99,0.31,1.71l-0.07,0.42h-1.27l0.06-0.32
	c0.07-0.45,0.01-0.8-0.17-1.04c-0.18-0.24-0.48-0.36-0.88-0.36c-0.4,0-0.74,0.12-1.01,0.37c-0.27,0.24-0.43,0.59-0.5,1.03
	l-0.63,3.97H352.8z M361.91,774.3c-0.77,0-1.35-0.22-1.73-0.67c-0.38-0.45-0.51-1.04-0.4-1.77l0.25-1.65
	c0.08-0.49,0.26-0.92,0.52-1.28c0.26-0.37,0.6-0.65,1.01-0.85c0.41-0.2,0.87-0.3,1.38-0.3c0.77,0,1.35,0.22,1.73,0.67
	c0.39,0.45,0.52,1.04,0.39,1.77l-0.17,1.12h-3.85l-0.09,0.53c-0.15,0.95,0.22,1.43,1.11,1.43c0.72,0,1.17-0.25,1.37-0.74h1.22
	c-0.17,0.53-0.5,0.96-1.01,1.28C363.16,774.14,362.58,774.3,361.91,774.3z M361.23,770.22l-0.05,0.29l2.65-0.01l0.05-0.29
	c0.07-0.47,0.01-0.82-0.17-1.07c-0.18-0.25-0.49-0.37-0.92-0.37c-0.44,0-0.8,0.13-1.06,0.38
	C361.48,769.39,361.31,769.75,361.23,770.22z M368.33,774.3c-0.63,0-1.1-0.21-1.41-0.64c-0.31-0.42-0.4-1-0.27-1.73l0.27-1.77
	c0.11-0.73,0.39-1.31,0.84-1.74c0.44-0.43,0.98-0.64,1.61-0.64c0.47,0,0.83,0.12,1.09,0.35c0.26,0.24,0.39,0.56,0.38,0.96h0.02
	l0.17-1.2h1.24l-1,6.29h-1.22l0.19-1.2h-0.02c-0.12,0.41-0.35,0.73-0.69,0.97C369.2,774.18,368.8,774.3,368.33,774.3z
	 M368.93,773.23c0.39,0,0.72-0.12,0.98-0.36c0.26-0.24,0.43-0.57,0.5-1.01l0.25-1.65c0.07-0.43,0.01-0.76-0.18-1
	c-0.19-0.24-0.47-0.36-0.86-0.36c-0.4,0-0.72,0.12-0.98,0.35c-0.26,0.24-0.42,0.57-0.49,1.01l-0.25,1.65
	c-0.07,0.44-0.01,0.78,0.17,1.01C368.24,773.11,368.53,773.23,368.93,773.23z M376.35,774.19c-0.57,0-0.99-0.16-1.26-0.47
	c-0.27-0.31-0.36-0.75-0.27-1.32l0.54-3.39h-1.74l0.17-1.12h1.74l0.27-1.72h1.24l-0.27,1.72h2.47l-0.18,1.12h-2.46l-0.54,3.39
	c-0.08,0.44,0.1,0.66,0.53,0.66h1.72l-0.17,1.12H376.35z M382.5,774.3c-0.77,0-1.35-0.22-1.73-0.67c-0.38-0.45-0.52-1.04-0.4-1.77
	l0.25-1.65c0.08-0.49,0.26-0.92,0.52-1.28c0.26-0.37,0.6-0.65,1.01-0.85c0.41-0.2,0.87-0.3,1.38-0.3c0.77,0,1.35,0.22,1.73,0.67
	c0.39,0.45,0.52,1.04,0.39,1.77l-0.17,1.12h-3.85l-0.09,0.53c-0.15,0.95,0.22,1.43,1.11,1.43c0.72,0,1.17-0.25,1.37-0.74h1.22
	c-0.17,0.53-0.5,0.96-1.01,1.28C383.76,774.14,383.18,774.3,382.5,774.3z M381.83,770.22l-0.05,0.29l2.65-0.01l0.05-0.29
	c0.07-0.47,0.01-0.82-0.17-1.07c-0.18-0.25-0.49-0.37-0.92-0.37c-0.44,0-0.8,0.13-1.06,0.38
	C382.08,769.39,381.91,769.75,381.83,770.22z M388.92,774.3c-0.63,0-1.1-0.21-1.4-0.64c-0.3-0.42-0.39-1-0.28-1.73l0.27-1.77
	c0.11-0.73,0.39-1.31,0.84-1.74c0.44-0.43,0.98-0.64,1.61-0.64c0.47,0,0.83,0.12,1.09,0.35c0.26,0.24,0.39,0.56,0.38,0.96h0.02
	l0.21-1.47l0.3-1.8h1.24l-1.33,8.35h-1.22l0.19-1.2h-0.02c-0.12,0.41-0.35,0.73-0.69,0.97C389.8,774.18,389.4,774.3,388.92,774.3z
	 M389.53,773.23c0.39,0,0.72-0.12,0.98-0.36c0.26-0.24,0.43-0.57,0.5-1.01l0.25-1.65c0.08-0.43,0.02-0.76-0.17-1
	c-0.19-0.24-0.48-0.36-0.87-0.36c-0.4,0-0.72,0.12-0.98,0.35c-0.26,0.24-0.42,0.57-0.49,1.01l-0.25,1.65
	c-0.08,0.44-0.02,0.78,0.16,1.01C388.83,773.11,389.13,773.23,389.53,773.23z M401.02,774.3c-0.47,0-0.84-0.12-1.1-0.35
	c-0.26-0.23-0.39-0.56-0.38-0.97h-0.01l-0.19,1.2h-1.22l1.33-8.35h1.24l-0.29,1.8l-0.27,1.47h0.05c0.12-0.41,0.35-0.73,0.69-0.97
	c0.34-0.23,0.74-0.35,1.21-0.35c0.63,0,1.1,0.21,1.4,0.64c0.3,0.43,0.39,1.01,0.28,1.74l-0.27,1.77c-0.11,0.73-0.39,1.31-0.84,1.73
	C402.18,774.09,401.64,774.3,401.02,774.3z M400.77,773.23c0.4,0,0.72-0.12,0.98-0.35c0.26-0.23,0.42-0.57,0.5-1.01l0.25-1.65
	c0.07-0.43,0.01-0.77-0.17-1.01c-0.18-0.24-0.47-0.35-0.87-0.35c-0.39,0-0.72,0.12-0.98,0.36c-0.26,0.24-0.43,0.57-0.5,1l-0.25,1.65
	c-0.07,0.44-0.01,0.77,0.17,1.01C400.08,773.11,400.37,773.23,400.77,773.23z M405.47,776.25l0.17-1.06h1.93
	c0.64,0,1.01-0.3,1.1-0.9l0.1-0.67l0.21-1.19h-0.03c-0.12,0.42-0.35,0.74-0.68,0.97c-0.33,0.23-0.73,0.34-1.2,0.34
	c-0.63,0-1.09-0.2-1.4-0.6c-0.31-0.4-0.41-0.94-0.3-1.63l0.58-3.6h1.24l-0.56,3.48c-0.06,0.41,0,0.73,0.18,0.96
	c0.18,0.23,0.47,0.34,0.85,0.34c0.39,0,0.72-0.12,0.98-0.37c0.27-0.24,0.43-0.58,0.49-1.02l0.54-3.4h1.24l-1.01,6.41
	c-0.1,0.6-0.37,1.08-0.81,1.42c-0.44,0.35-1,0.52-1.67,0.52H405.47z M417.79,770.09h3.22l0.54-1.85h-5.47l-1.71,6.44h2.15l0.59-2.1
	h3.03l0.44-1.71h-3.03L417.79,770.09z M424.23,772.92c-0.59,0-1.02-0.39-1.02-1.12c0-0.88,0.63-1.76,1.61-1.76
	c0.49,0,0.88,0.24,1.02,0.78l1.95-0.83c-0.29-1.17-1.27-1.9-2.64-1.9c-2.78,0-4.15,2.15-4.15,3.9c0,1.76,1.27,2.83,3.07,2.83
	c1.37,0,2.34-0.59,2.98-1.42l-1.51-1.17C425.16,772.67,424.72,772.92,424.23,772.92z M430.91,768.23h-2.15l-1.76,6.44h5.12
	l0.49-1.85h-2.93L430.91,768.23z M439.75,771.01c0-1.66-1.32-2.93-3.22-2.93c-2.2,0-3.81,1.81-3.81,3.81c0,1.66,1.32,2.93,3.22,2.93
	C438.14,774.82,439.75,773.01,439.75,771.01z M434.92,771.7c0-0.83,0.59-1.71,1.51-1.71c0.78,0,1.17,0.54,1.17,1.22
	c0,0.83-0.59,1.71-1.51,1.71C435.31,772.92,434.92,772.38,434.92,771.7z M443.21,772.23h1.07l-0.2,0.68
	c-0.15,0.05-0.34,0.1-0.59,0.1c-0.68,0-1.27-0.39-1.27-1.22c0-1.02,0.73-1.9,1.95-1.9c0.59,0,1.12,0.24,1.51,0.59l1.37-1.37
	c-0.44-0.54-1.51-1.07-2.73-1.07c-2.59,0-4.29,1.76-4.29,3.86c0,2.05,1.61,2.88,3.22,2.88c0.93,0,1.85-0.29,2.49-0.68l0.93-3.32
	h-3.12L443.21,772.23z M450.78,768.08c-2.2,0-3.81,1.81-3.81,3.81c0,1.66,1.32,2.93,3.22,2.93c2.2,0,3.81-1.81,3.81-3.81
	C454,769.35,452.68,768.08,450.78,768.08z M450.34,772.92c-0.78,0-1.17-0.54-1.17-1.22c0-0.83,0.59-1.71,1.51-1.71
	c0.78,0,1.17,0.54,1.17,1.22C451.85,772.04,451.27,772.92,450.34,772.92z M437.94,767.5c-0.05,0.29,0.1,0.49,0.44,0.49
	s0.54-0.2,0.63-0.49c0.05-0.24-0.1-0.49-0.44-0.49C438.24,767.01,437.99,767.25,437.94,767.5z M432.13,765.5
	c-0.44,0-0.73,0.24-0.78,0.59c-0.05,0.34,0.1,0.59,0.54,0.59s0.73-0.24,0.78-0.59C432.77,765.74,432.57,765.5,432.13,765.5z
	 M433.01,767.3c-0.1,0.54,0.15,0.88,0.83,0.88c0.63,0,1.07-0.39,1.17-0.88s-0.15-0.88-0.83-0.88
	C433.5,766.43,433.11,766.82,433.01,767.3z M439.6,777.55l-2.44-1.81h-1.51l4.25,3.17l1.61-3.17h-0.98L439.6,777.55z M425.84,767.16
	l-2-1.46l23.13-2.78l-2.15,4.25h1.02l2.68-5.32l-26.99,3.22l2.78,2.1H425.84z M338.72,785.79l0.61-3.83h2.32l-0.08,0.52h-1.76
	l-0.18,1.14h1.63l-0.08,0.52h-1.62l-0.26,1.64H338.72z M342.97,785.84c-0.36,0-0.62-0.1-0.8-0.3c-0.17-0.2-0.23-0.47-0.18-0.82
	l0.27-1.7c0.06-0.34,0.2-0.61,0.44-0.82c0.24-0.2,0.54-0.3,0.89-0.3c0.36,0,0.62,0.1,0.8,0.3c0.17,0.2,0.24,0.47,0.18,0.81
	l-0.27,1.71c-0.06,0.34-0.2,0.62-0.44,0.82C343.63,785.74,343.33,785.84,342.97,785.84z M343.05,785.33c0.19,0,0.35-0.05,0.47-0.16
	c0.12-0.11,0.19-0.26,0.23-0.46l0.27-1.7c0.03-0.2,0.01-0.35-0.08-0.46c-0.08-0.11-0.22-0.16-0.41-0.16s-0.35,0.05-0.46,0.16
	c-0.12,0.1-0.19,0.26-0.22,0.46l-0.27,1.7c-0.03,0.2-0.01,0.35,0.08,0.46C342.72,785.28,342.86,785.33,343.05,785.33z M345,785.79
	l0.61-3.83h1.2c0.24,0,0.44,0.05,0.6,0.14c0.16,0.09,0.28,0.22,0.36,0.39c0.07,0.17,0.09,0.37,0.05,0.59
	c-0.04,0.26-0.14,0.48-0.3,0.67c-0.16,0.19-0.37,0.32-0.6,0.39l0.54,1.64h-0.62l-0.48-1.57h-0.54l-0.25,1.57H345z M345.89,783.71
	h0.64c0.19,0,0.35-0.06,0.48-0.17c0.13-0.11,0.21-0.26,0.24-0.45c0.03-0.19,0-0.35-0.09-0.46c-0.09-0.11-0.24-0.17-0.43-0.17h-0.64
	L345.89,783.71z M349.54,785.79l0.61-3.83h1.25c0.37,0,0.65,0.1,0.84,0.31c0.19,0.21,0.26,0.49,0.2,0.84
	c-0.04,0.23-0.12,0.44-0.25,0.61s-0.29,0.31-0.49,0.4c-0.2,0.09-0.42,0.14-0.66,0.14h-0.69l-0.24,1.52H349.54z M350.43,783.75h0.69
	c0.19,0,0.36-0.06,0.49-0.18c0.14-0.12,0.22-0.27,0.25-0.47c0.03-0.2,0-0.35-0.1-0.47c-0.1-0.12-0.25-0.18-0.44-0.18h-0.69
	L350.43,783.75z M352.75,785.79l0.61-3.83h2.25l-0.08,0.5h-1.7l-0.17,1.09h1.51l-0.08,0.5h-1.51l-0.19,1.24h1.69l-0.08,0.5H352.75z
	 M355.84,785.79l0.61-3.83h1.2c0.24,0,0.44,0.05,0.6,0.14c0.16,0.09,0.28,0.22,0.36,0.39c0.07,0.17,0.09,0.37,0.05,0.59
	c-0.04,0.26-0.14,0.48-0.3,0.67c-0.16,0.19-0.37,0.32-0.6,0.39l0.54,1.64h-0.62l-0.48-1.57h-0.54l-0.25,1.57H355.84z M356.74,783.71
	h0.64c0.19,0,0.35-0.06,0.48-0.17c0.13-0.11,0.21-0.26,0.24-0.45c0.03-0.19,0-0.35-0.09-0.46c-0.09-0.11-0.24-0.17-0.43-0.17h-0.64
	L356.74,783.71z M360.13,785.84c-0.39,0-0.67-0.1-0.87-0.29c-0.19-0.19-0.26-0.45-0.22-0.78h0.57c-0.03,0.17,0.01,0.31,0.12,0.41
	c0.11,0.1,0.27,0.15,0.48,0.15c0.2,0,0.37-0.05,0.5-0.15c0.13-0.1,0.21-0.23,0.24-0.4c0.02-0.15,0-0.28-0.06-0.39
	c-0.06-0.11-0.16-0.18-0.29-0.22l-0.46-0.14c-0.27-0.08-0.46-0.22-0.59-0.41c-0.13-0.19-0.17-0.42-0.13-0.68
	c0.04-0.21,0.11-0.39,0.23-0.55c0.12-0.16,0.27-0.28,0.46-0.37c0.19-0.09,0.4-0.13,0.64-0.13c0.35,0,0.62,0.1,0.8,0.29
	c0.18,0.19,0.25,0.44,0.2,0.76h-0.57c0.03-0.17,0-0.3-0.09-0.4c-0.09-0.1-0.23-0.14-0.42-0.14c-0.19,0-0.34,0.04-0.46,0.13
	c-0.12,0.09-0.19,0.21-0.21,0.38c-0.02,0.15-0.01,0.28,0.05,0.39c0.06,0.11,0.16,0.18,0.29,0.22l0.47,0.15
	c0.26,0.08,0.46,0.22,0.58,0.41c0.12,0.19,0.17,0.42,0.12,0.69c-0.04,0.22-0.12,0.41-0.24,0.57c-0.13,0.16-0.29,0.29-0.49,0.38
	C360.6,785.79,360.38,785.84,360.13,785.84z M363.27,785.84c-0.36,0-0.62-0.1-0.8-0.3c-0.17-0.2-0.23-0.47-0.18-0.82l0.27-1.7
	c0.06-0.34,0.2-0.61,0.44-0.82c0.24-0.2,0.54-0.3,0.89-0.3c0.36,0,0.62,0.1,0.8,0.3c0.17,0.2,0.24,0.47,0.18,0.81l-0.27,1.71
	c-0.06,0.34-0.2,0.62-0.44,0.82C363.92,785.74,363.62,785.84,363.27,785.84z M363.34,785.33c0.19,0,0.35-0.05,0.47-0.16
	c0.12-0.11,0.19-0.26,0.23-0.46l0.27-1.7c0.03-0.2,0.01-0.35-0.08-0.46c-0.08-0.11-0.22-0.16-0.41-0.16c-0.19,0-0.35,0.05-0.46,0.16
	c-0.12,0.1-0.19,0.26-0.22,0.46l-0.27,1.7c-0.03,0.2-0.01,0.35,0.08,0.46C363.02,785.28,363.15,785.33,363.34,785.33z
	 M365.28,785.79l0.61-3.83h0.71l0.62,3.19c0.01-0.1,0.02-0.22,0.03-0.36c0.01-0.14,0.03-0.29,0.04-0.44
	c0.02-0.15,0.04-0.29,0.06-0.41l0.31-1.98h0.52l-0.61,3.83h-0.71l-0.61-3.19c-0.01,0.09-0.02,0.21-0.03,0.34s-0.03,0.28-0.04,0.42
	c-0.02,0.15-0.04,0.28-0.06,0.41l-0.31,2.01H365.28z M368.23,785.79l1.59-3.83h0.75l0.37,3.83h-0.56l-0.07-0.97h-1.09l-0.39,0.97
	H368.23z M369.39,784.34h0.87l-0.09-1.1c-0.02-0.2-0.03-0.37-0.04-0.51c-0.01-0.14-0.01-0.24-0.01-0.3c-0.02,0.06-0.05,0.16-0.1,0.3
	c-0.05,0.14-0.11,0.31-0.19,0.5L369.39,784.34z M371.72,785.79l0.61-3.83h0.57l-0.52,3.31h1.67l-0.08,0.52H371.72z M376.68,785.84
	c-0.37,0-0.63-0.1-0.8-0.3c-0.17-0.2-0.22-0.48-0.17-0.82l0.44-2.76h0.57l-0.44,2.76c-0.03,0.2-0.01,0.35,0.07,0.46
	c0.08,0.11,0.21,0.17,0.41,0.17c0.19,0,0.35-0.06,0.46-0.17c0.12-0.11,0.19-0.27,0.22-0.46l0.44-2.76h0.57l-0.44,2.76
	c-0.06,0.35-0.2,0.62-0.43,0.82C377.35,785.74,377.05,785.84,376.68,785.84z M379.84,785.84c-0.39,0-0.67-0.1-0.87-0.29
	c-0.19-0.19-0.26-0.45-0.22-0.78h0.57c-0.03,0.17,0.01,0.31,0.12,0.41c0.11,0.1,0.27,0.15,0.48,0.15c0.2,0,0.37-0.05,0.5-0.15
	c0.13-0.1,0.21-0.23,0.24-0.4c0.02-0.15,0-0.28-0.06-0.39c-0.06-0.11-0.16-0.18-0.29-0.22l-0.46-0.14
	c-0.27-0.08-0.46-0.22-0.59-0.41c-0.13-0.19-0.17-0.42-0.13-0.68c0.04-0.21,0.11-0.39,0.23-0.55s0.27-0.28,0.46-0.37
	c0.19-0.09,0.4-0.13,0.64-0.13c0.35,0,0.62,0.1,0.8,0.29c0.18,0.19,0.25,0.44,0.2,0.76h-0.57c0.03-0.17,0-0.3-0.09-0.4
	c-0.09-0.1-0.23-0.14-0.42-0.14c-0.19,0-0.34,0.04-0.46,0.13c-0.12,0.09-0.19,0.21-0.21,0.38c-0.02,0.15-0.01,0.28,0.05,0.39
	c0.06,0.11,0.16,0.18,0.29,0.22l0.47,0.15c0.26,0.08,0.46,0.22,0.58,0.41c0.12,0.19,0.17,0.42,0.12,0.69
	c-0.04,0.22-0.12,0.41-0.24,0.57c-0.13,0.16-0.29,0.29-0.49,0.38C380.31,785.79,380.09,785.84,379.84,785.84z M381.91,785.79
	l0.61-3.83h2.25l-0.08,0.5h-1.7l-0.17,1.09h1.51l-0.08,0.5h-1.51l-0.19,1.24h1.69l-0.08,0.5H381.91z M386.94,785.84
	c-0.36,0-0.62-0.1-0.8-0.3c-0.17-0.2-0.23-0.47-0.18-0.82l0.27-1.7c0.06-0.34,0.2-0.61,0.44-0.82c0.24-0.2,0.54-0.3,0.89-0.3
	c0.36,0,0.62,0.1,0.8,0.3c0.17,0.2,0.24,0.47,0.18,0.81l-0.27,1.71c-0.06,0.34-0.2,0.62-0.44,0.82
	C387.6,785.74,387.3,785.84,386.94,785.84z M387.02,785.33c0.19,0,0.35-0.05,0.47-0.16c0.12-0.11,0.19-0.26,0.23-0.46l0.27-1.7
	c0.03-0.2,0.01-0.35-0.08-0.46c-0.08-0.11-0.22-0.16-0.41-0.16c-0.19,0-0.35,0.05-0.46,0.16c-0.12,0.1-0.19,0.26-0.22,0.46
	l-0.27,1.7c-0.03,0.2-0.01,0.35,0.08,0.46C386.7,785.28,386.83,785.33,387.02,785.33z M388.95,785.79l0.61-3.83h0.71l0.62,3.19
	c0.01-0.1,0.02-0.22,0.03-0.36c0.01-0.14,0.03-0.29,0.04-0.44c0.02-0.15,0.04-0.29,0.06-0.41l0.31-1.98h0.52l-0.61,3.83h-0.71
	l-0.61-3.19c-0.01,0.09-0.02,0.21-0.03,0.34c-0.01,0.13-0.03,0.28-0.04,0.42c-0.02,0.15-0.04,0.28-0.06,0.41l-0.31,2.01H388.95z
	 M392.25,785.79l0.61-3.83h0.57l-0.52,3.31h1.67l-0.08,0.52H392.25z M396.12,785.79l0.22-1.41l-0.75-2.42h0.58l0.45,1.45
	c0.03,0.09,0.05,0.18,0.07,0.27c0.02,0.08,0.03,0.15,0.03,0.19c0.02-0.04,0.05-0.1,0.09-0.19c0.04-0.08,0.09-0.17,0.14-0.27
	l0.9-1.45h0.6l-1.53,2.42l-0.22,1.41H396.12z M399.22,785.79l0.61-3.83h0.71l0.62,3.19c0.01-0.1,0.02-0.22,0.03-0.36
	c0.01-0.14,0.03-0.29,0.04-0.44c0.02-0.15,0.04-0.29,0.06-0.41l0.31-1.98h0.52l-0.61,3.83h-0.71l-0.61-3.19
	c-0.01,0.09-0.02,0.21-0.03,0.34c-0.01,0.13-0.03,0.28-0.04,0.42c-0.02,0.15-0.04,0.28-0.06,0.41l-0.31,2.01H399.22z M403.51,785.84
	c-0.36,0-0.62-0.1-0.8-0.3c-0.18-0.2-0.23-0.47-0.18-0.82l0.27-1.7c0.06-0.34,0.2-0.61,0.44-0.82c0.24-0.2,0.54-0.3,0.89-0.3
	c0.36,0,0.62,0.1,0.8,0.3c0.17,0.2,0.24,0.47,0.18,0.81l-0.27,1.71c-0.06,0.34-0.2,0.62-0.44,0.82
	C404.16,785.74,403.86,785.84,403.51,785.84z M403.58,785.33c0.19,0,0.35-0.05,0.47-0.16c0.12-0.11,0.19-0.26,0.23-0.46l0.27-1.7
	c0.03-0.2,0.01-0.35-0.08-0.46c-0.08-0.11-0.22-0.16-0.41-0.16c-0.19,0-0.35,0.05-0.46,0.16c-0.12,0.1-0.19,0.26-0.22,0.46
	l-0.27,1.7c-0.03,0.2-0.01,0.35,0.08,0.46C403.26,785.28,403.4,785.33,403.58,785.33z M406.38,785.79l0.52-3.31h-1.02l0.08-0.52
	h2.62l-0.08,0.52h-1.03l-0.52,3.31H406.38z M409.52,785.79l0.61-3.83h2.32l-0.08,0.52h-1.76l-0.18,1.14h1.63l-0.08,0.52h-1.62
	l-0.26,1.64H409.52z M413.77,785.84c-0.36,0-0.62-0.1-0.8-0.3c-0.18-0.2-0.23-0.47-0.18-0.82l0.27-1.7c0.06-0.34,0.2-0.61,0.44-0.82
	c0.24-0.2,0.54-0.3,0.89-0.3c0.36,0,0.62,0.1,0.8,0.3c0.17,0.2,0.24,0.47,0.18,0.81l-0.27,1.71c-0.06,0.34-0.2,0.62-0.44,0.82
	C414.42,785.74,414.13,785.84,413.77,785.84z M413.85,785.33c0.19,0,0.35-0.05,0.47-0.16c0.12-0.11,0.19-0.26,0.23-0.46l0.27-1.7
	c0.03-0.2,0.01-0.35-0.08-0.46c-0.08-0.11-0.22-0.16-0.41-0.16c-0.19,0-0.35,0.05-0.46,0.16c-0.12,0.1-0.19,0.26-0.22,0.46
	l-0.27,1.7c-0.03,0.2-0.01,0.35,0.08,0.46C413.52,785.28,413.66,785.33,413.85,785.33z M415.8,785.79l0.61-3.83h1.2
	c0.24,0,0.44,0.05,0.6,0.14c0.16,0.09,0.28,0.22,0.36,0.39c0.07,0.17,0.09,0.37,0.05,0.59c-0.04,0.26-0.14,0.48-0.3,0.67
	c-0.16,0.19-0.37,0.32-0.6,0.39l0.54,1.64h-0.62l-0.48-1.57h-0.54l-0.25,1.57H415.8z M416.69,783.71h0.64
	c0.19,0,0.35-0.06,0.48-0.17c0.13-0.11,0.21-0.26,0.24-0.45c0.03-0.19,0-0.35-0.09-0.46c-0.09-0.11-0.24-0.17-0.43-0.17h-0.64
	L416.69,783.71z M420.91,785.84c-0.36,0-0.63-0.1-0.81-0.3c-0.18-0.2-0.24-0.47-0.19-0.82l0.27-1.7c0.06-0.35,0.21-0.62,0.45-0.82
	s0.55-0.3,0.91-0.3c0.36,0,0.63,0.1,0.81,0.3c0.18,0.2,0.24,0.47,0.19,0.82h-0.57c0.03-0.2,0-0.35-0.09-0.46
	c-0.09-0.11-0.23-0.16-0.42-0.16c-0.19,0-0.35,0.05-0.48,0.16c-0.12,0.1-0.2,0.26-0.23,0.45l-0.27,1.71c-0.03,0.2,0,0.35,0.09,0.46
	c0.09,0.11,0.23,0.16,0.42,0.16c0.19,0,0.35-0.05,0.47-0.16c0.12-0.11,0.2-0.26,0.23-0.46h0.57c-0.03,0.23-0.11,0.43-0.24,0.59
	c-0.12,0.17-0.28,0.3-0.47,0.39C421.36,785.79,421.14,785.84,420.91,785.84z M424.03,785.84c-0.36,0-0.62-0.1-0.8-0.3
	c-0.18-0.2-0.23-0.47-0.18-0.82l0.27-1.7c0.06-0.34,0.2-0.61,0.44-0.82c0.24-0.2,0.54-0.3,0.89-0.3c0.36,0,0.62,0.1,0.8,0.3
	c0.17,0.2,0.24,0.47,0.18,0.81l-0.27,1.71c-0.06,0.34-0.2,0.62-0.44,0.82C424.69,785.74,424.39,785.84,424.03,785.84z
	 M424.11,785.33c0.19,0,0.35-0.05,0.47-0.16c0.12-0.11,0.19-0.26,0.23-0.46l0.27-1.7c0.03-0.2,0.01-0.35-0.08-0.46
	c-0.08-0.11-0.22-0.16-0.41-0.16c-0.19,0-0.35,0.05-0.46,0.16c-0.12,0.1-0.19,0.26-0.22,0.46l-0.27,1.7
	c-0.03,0.2-0.01,0.35,0.08,0.46C423.79,785.28,423.92,785.33,424.11,785.33z M425.97,785.79l0.61-3.83h0.69l0.18,1.23
	c0.02,0.12,0.04,0.23,0.05,0.33c0.01,0.1,0.02,0.18,0.03,0.24c0.02-0.06,0.05-0.14,0.09-0.24c0.04-0.11,0.09-0.22,0.15-0.34
	l0.57-1.22h0.71l-0.61,3.83h-0.54l0.2-1.29c0.02-0.17,0.06-0.35,0.1-0.55c0.04-0.2,0.09-0.4,0.14-0.61c0.05-0.2,0.1-0.4,0.14-0.59
	c0.05-0.19,0.09-0.35,0.13-0.49l-0.86,1.86h-0.55l-0.28-1.86c0,0.14-0.01,0.29-0.02,0.47c-0.01,0.18-0.02,0.37-0.04,0.57
	c-0.02,0.2-0.04,0.41-0.06,0.61c-0.02,0.2-0.05,0.4-0.08,0.57l-0.2,1.29H425.97z M429.11,785.79l0.61-3.83h0.69l0.18,1.23
	c0.02,0.12,0.04,0.23,0.05,0.33c0.01,0.1,0.02,0.18,0.03,0.24c0.02-0.06,0.05-0.14,0.09-0.24c0.04-0.11,0.09-0.22,0.15-0.34
	l0.57-1.22h0.71l-0.61,3.83h-0.54l0.2-1.29c0.02-0.17,0.06-0.35,0.1-0.55c0.04-0.2,0.09-0.4,0.14-0.61c0.05-0.2,0.1-0.4,0.14-0.59
	c0.05-0.19,0.09-0.35,0.13-0.49l-0.86,1.86h-0.55l-0.28-1.86c0,0.14-0.01,0.29-0.02,0.47c-0.01,0.18-0.02,0.37-0.04,0.57
	c-0.02,0.2-0.04,0.41-0.06,0.61c-0.02,0.2-0.05,0.4-0.08,0.57l-0.2,1.29H429.11z M432.41,785.79l0.61-3.83h2.25l-0.08,0.5h-1.7
	l-0.17,1.09h1.51l-0.08,0.5h-1.51l-0.19,1.24h1.69l-0.08,0.5H432.41z M435.51,785.79l0.61-3.83h1.2c0.24,0,0.44,0.05,0.6,0.14
	c0.16,0.09,0.28,0.22,0.36,0.39c0.07,0.17,0.09,0.37,0.05,0.59c-0.04,0.26-0.14,0.48-0.3,0.67c-0.16,0.19-0.37,0.32-0.6,0.39
	l0.54,1.64h-0.62l-0.48-1.57h-0.54l-0.25,1.57H435.51z M436.4,783.71h0.64c0.19,0,0.35-0.06,0.48-0.17
	c0.13-0.11,0.21-0.26,0.24-0.45c0.03-0.19,0-0.35-0.09-0.46c-0.09-0.11-0.24-0.17-0.43-0.17h-0.64L436.4,783.71z M439.8,785.84
	c-0.36,0-0.63-0.1-0.81-0.3c-0.18-0.2-0.24-0.47-0.19-0.82l0.27-1.7c0.06-0.35,0.21-0.62,0.45-0.82s0.55-0.3,0.91-0.3
	c0.36,0,0.63,0.1,0.81,0.3c0.18,0.2,0.24,0.47,0.19,0.82h-0.57c0.03-0.2,0-0.35-0.09-0.46c-0.09-0.11-0.23-0.16-0.42-0.16
	c-0.19,0-0.35,0.05-0.47,0.16c-0.12,0.1-0.2,0.26-0.23,0.45l-0.27,1.71c-0.03,0.2,0,0.35,0.09,0.46c0.09,0.11,0.23,0.16,0.42,0.16
	s0.35-0.05,0.47-0.16c0.12-0.11,0.2-0.26,0.23-0.46h0.57c-0.03,0.23-0.11,0.43-0.24,0.59c-0.12,0.17-0.28,0.3-0.47,0.39
	C440.25,785.79,440.04,785.84,439.8,785.84z M441.88,785.79l0.08-0.5h0.78l0.45-2.82h-0.78l0.08-0.5h2.13l-0.08,0.5h-0.78
	l-0.45,2.82h0.78l-0.08,0.5H441.88z M444.74,785.79l1.59-3.83h0.75l0.37,3.83h-0.56l-0.07-0.97h-1.09l-0.39,0.97H444.74z
	 M445.9,784.34h0.87l-0.09-1.1c-0.02-0.2-0.03-0.37-0.04-0.51c-0.01-0.14-0.01-0.24-0.01-0.3c-0.02,0.06-0.05,0.16-0.1,0.3
	c-0.05,0.14-0.11,0.31-0.19,0.5L445.9,784.34z M448.24,785.79l0.61-3.83h0.57l-0.52,3.31h1.67l-0.08,0.52H448.24z M453.19,785.84
	c-0.37,0-0.63-0.1-0.8-0.3c-0.17-0.2-0.22-0.48-0.17-0.82l0.44-2.76h0.57l-0.44,2.76c-0.03,0.2-0.01,0.35,0.07,0.46
	c0.08,0.11,0.21,0.17,0.41,0.17c0.19,0,0.35-0.06,0.46-0.17c0.12-0.11,0.19-0.27,0.22-0.46l0.44-2.76h0.57l-0.44,2.76
	c-0.06,0.35-0.2,0.62-0.43,0.82C453.86,785.74,453.56,785.84,453.19,785.84z M456.36,785.84c-0.39,0-0.67-0.1-0.87-0.29
	c-0.19-0.19-0.26-0.45-0.22-0.78h0.57c-0.03,0.17,0.01,0.31,0.12,0.41c0.11,0.1,0.27,0.15,0.48,0.15c0.2,0,0.37-0.05,0.5-0.15
	s0.21-0.23,0.24-0.4c0.02-0.15,0-0.28-0.06-0.39c-0.06-0.11-0.16-0.18-0.29-0.22l-0.46-0.14c-0.27-0.08-0.46-0.22-0.59-0.41
	c-0.13-0.19-0.17-0.42-0.13-0.68c0.04-0.21,0.11-0.39,0.23-0.55c0.12-0.16,0.27-0.28,0.46-0.37c0.19-0.09,0.4-0.13,0.64-0.13
	c0.35,0,0.62,0.1,0.8,0.29c0.18,0.19,0.25,0.44,0.2,0.76h-0.57c0.03-0.17,0-0.3-0.09-0.4c-0.09-0.1-0.23-0.14-0.42-0.14
	c-0.19,0-0.34,0.04-0.46,0.13c-0.12,0.09-0.19,0.21-0.21,0.38c-0.02,0.15-0.01,0.28,0.05,0.39c0.06,0.11,0.16,0.18,0.29,0.22
	l0.47,0.15c0.26,0.08,0.46,0.22,0.58,0.41c0.12,0.19,0.17,0.42,0.12,0.69c-0.04,0.22-0.12,0.41-0.24,0.57
	c-0.13,0.16-0.29,0.29-0.49,0.38C456.82,785.79,456.6,785.84,456.36,785.84z M458.42,785.79l0.61-3.83h2.25l-0.08,0.5h-1.7
	l-0.17,1.09h1.51l-0.08,0.5h-1.51l-0.19,1.24h1.69l-0.08,0.5H458.42z"/>
<path style="fill:#03506B;" d="M261.98,584.99c19.86,5.41,38.33,9.05,56.16,11.12l-5.96,3.57c-14.9-1.94-30.2-4.65-45.74-8.07
	L261.98,584.99z M327.92,597.28l-6.33,3.53c1.29,0.14,2.61,0.34,3.9,0.47c36.25,4.4,59.22,4.99,76.91,4.99
	c12.14,0,26.9-0.31,46.58-1.91l9.85-5.68c-26.05,2.57-44.31,3.01-58.89,3.01C383.03,601.69,361.21,601.11,327.92,597.28z
	 M537.08,585.21c-11.15,3.02-21.87,5.48-32.27,7.42l-11.97,6.88c13-1.95,26.32-4.69,39.8-7.72L537.08,585.21z M221.6,525.58
	c-9.95-17.79-18.92-36.1-26.8-54.9l442.61-253.44v78.17L399.97,432.41v15.67l-147.08,84.84l0.65,1.13
	C241.93,531.21,231.06,528.28,221.6,525.58z M589.99,266.72l15.46,6.93l-8.04,16.15l12.2-13.17l12.2,13.17l-7.97-16.15l15.46-6.93
	l-17.12,2.01l-2.57-16.22l-2.57,16.22L589.99,266.72z M552.49,288.35l15.46,6.86l-7.97,16.22l12.2-13.17l12.2,13.17l-8.04-16.22
	l15.53-6.86l-17.12,1.94l-2.57-16.15l-2.57,16.15L552.49,288.35z M515.05,309.98l15.46,6.86l-7.97,16.22l12.2-13.17l12.2,13.17
	l-8.04-16.22l15.46-6.86l-17.05,1.94l-2.57-16.15l-2.63,16.15L515.05,309.98z M477.61,331.54l15.46,6.93l-7.97,16.15l12.13-13.1
	l12.2,13.1l-7.97-16.15l15.46-6.93l-17.05,2.01l-2.63-16.22l-2.57,16.22L477.61,331.54z M440.18,353.17l15.46,6.93l-8.04,16.15
	l12.2-13.1l12.2,13.1l-7.97-16.15l15.46-6.93l-17.12,2.01l-2.57-16.22l-2.57,16.22L440.18,353.17z M402.67,374.8l15.46,6.93
	l-7.97,16.15l12.2-13.1l12.2,13.1l-8.04-16.15l15.53-6.93l-17.12,2.01l-2.57-16.22l-2.57,16.22L402.67,374.8z M365.23,396.43
	l15.46,6.93l-7.97,16.15l12.2-13.17l12.2,13.17l-8.04-16.15l15.46-6.93l-17.05,2.01l-2.57-16.22l-2.63,16.22L365.23,396.43z
	 M327.8,418.06l15.46,6.86l-8.04,16.22l12.2-13.17l12.2,13.17l-7.97-16.22l15.46-6.86L350.05,420l-2.63-16.15L344.85,420
	L327.8,418.06z M290.36,439.62l15.46,6.93l-8.04,16.22l12.2-13.17l12.2,13.17l-7.97-16.22l15.46-6.93l-17.12,2.01l-2.57-16.22
	l-2.57,16.22L290.36,439.62z M252.85,461.25l15.46,6.93l-7.97,16.22l12.2-13.17l12.2,13.17l-8.04-16.22l15.46-6.93l-17.05,2.01
	l-2.57-16.22l-2.57,16.22L252.85,461.25z M215.42,482.88l15.46,6.93l-7.97,16.15l12.13-13.1l12.2,13.1l-7.97-16.15l15.46-6.93
	l-17.05,2.01l-2.63-16.22l-2.57,16.22L215.42,482.88z M476.63,546.84c28.51-2.89,66.12-10.48,101.55-20.42
	c17.47-31,31.65-63.74,42.29-97.7L406.95,551.78C423.64,551.61,445.11,550.67,476.63,546.84z M323.18,546.83
	c32.95,4,54.84,4.84,71.83,4.96l4.96-2.86v-15.79l227.67-131.31c6.32-25.87,9.6-52.4,9.78-79.03v-4.82L260.12,535.62
	C280.53,540.43,302.67,544.76,323.18,546.83z M637.41,314.55L637.41,314.55L637.41,314.55L637.41,314.55z M229.53,351.66
	c3.83,1.58,7.99,2.39,12.51,2.13c6.09-0.18,12.14-1.06,18.03-2.63c-4.22-3.1-8.08-6.62-11.71-10.35L229.53,351.66z M280.38,351.3
	c14.01,5.25,28.94,7.6,43.88,6.93c12.52-1.21,21.76-12.21,20.8-24.75c-0.69-13.66-12.89-18.58-30.3-24.2
	c-2.12-0.64-4.68-1.44-7.42-2.49l-52.54,30.3c4.86,3.77,10.03,7.17,15.59,9.91c12.9-6.5,24.06-16.01,32.51-27.73l3.19,2.91
	C299.43,333.42,290.7,343.29,280.38,351.3z M399.97,331.61l236.68-136.3l-93.02-24.78L330.56,293.41
	c15.17,5.97,24.9,14.18,25.8,32.31c1.18,23.29-15.53,38.68-30.09,39.1c-5.84,0.5-11.73,0.36-17.54-0.42
	c-3.06-0.69-6.17-1.17-9.29-1.46c-5.64-0.97-11.33,1.44-14.56,6.17c0,0-6.31-3.95-14.63-10.47c-10.89,6.22-23.3,9.3-35.84,8.87
	c-7.2-0.24-14.66-2.29-21.57-6.23l-43.87,25.3c4.55,22.77,10.88,45.16,19.06,66.9c1.44,3.86,2.98,7.75,4.53,11.63l207.41-118.76
	V331.61z M184.22,309.01c-2.43-35.15,14.21-69.33,39.17-71.06c4.28-0.28,8.58,0.21,12.69,1.46c2.44,0.87,5.04,1.24,7.63,1.11
	c1.39-0.18,2.7-0.79,3.74-1.73c2.63-2.83,4-6.61,3.81-10.47l14.42,37.58l-4.85,3.05c-3.4-6.46-7.93-12.26-13.38-17.12
	c-5.87-5.8-13.79-9.04-22.05-9.01c-9.41,1.07-17.43,7.3-20.8,16.15c-4.3,11.91-5.91,24.62-4.71,37.23
	c1.41,20.38,9.57,42.15,23.61,52.1l20.72-11.95c-3.72-4.35-7.12-8.97-10.01-13.94l2.98-3.12c3.74,5.06,8.07,9.61,12.74,13.77
	l50.77-29.28c-9.41-5.04-18.77-13.89-19.62-30.8c-1.11-20.8,12.62-34.39,27.18-35.08c3.62-0.08,7.24,0.34,10.75,1.25
	c2.23,0.81,4.57,1.25,6.93,1.32c1.32-0.07,6.72-0.62,7.76-12.27l13.52,37.65l-4.71,3.12c-4.92-10.19-14.28-26.76-32.65-25.79
	c-0.79,0-1.58,0.05-2.36,0.14c-10.56,1.3-18.07,10.92-16.77,21.49c0.76,14.14,9.91,19.07,28.49,24.75c1.36,0.42,2.69,0.83,3.99,1.26
	l73.74-42.53l-136.52-78.81l-97.82,26.14V322.8c0.02,19.32,1.79,38.59,5.2,57.6l39.54-22.8
	C195.26,348.37,185.82,332.51,184.22,309.01z M637.41,213.82L637.41,213.82L637.41,213.82L637.41,213.82z M548.6,618.76
	c-0.56-1.89-2.41-3.09-4.37-2.84l-2.43,0.62l4.44,19.27l2.7-0.69c3.67-0.97,2.08-6.31,2.08-6.31
	C550.4,625.42,549.59,622.07,548.6,618.76z M481.43,628.95l0.69,20.31l6.03-0.69l-4.99-19.62H481.43z M494.53,578.76h0.69h0.69
	c2.36-0.42,3.05-1.53,2.84-4.3l-1.87-10.95c-0.11-0.99-0.58-1.9-1.32-2.57c-0.82-0.34-1.74-0.34-2.57,0h-0.69h-0.69v0.62l2.91,16.57
	V578.76z M349.43,662.99l2.01-29.6c0,0,0-4.37-2.98-4.58c-2.98-0.21-3.4,4.02-3.4,4.02l-2.01,30.09c0,0-0.83,4.51,2.7,4.78
	C349.29,667.99,349.43,662.99,349.43,662.99z M518.38,624.79c-0.45-1.93-2.27-3.21-4.23-2.98l-2.43,0.49l3.47,19.41l2.77-0.55
	c3.67-0.83,2.43-6.24,2.43-6.24C519.9,631.51,519.23,628.13,518.38,624.79z M427.7,568.92h-1.87v0.55l-0.9,8.8l0.21,0.55h0.76h3.05
	h0.76v-0.76l-2.01-8.6V568.92z M279.2,644.14l5.96,1.11l1.39-20.1h-1.8L279.2,644.14z M308.11,579.32c0.55,0.24,1.18,0.24,1.73,0
	c0.57-0.49,0.92-1.19,0.97-1.94l2.22-13.17c0.22-0.65,0.22-1.36,0-2.01c-0.38-0.52-0.96-0.84-1.59-0.9
	c-0.62-0.14-1.28-0.02-1.8,0.35c-0.63,0.52-1.03,1.27-1.11,2.08l-2.15,13.17c-0.34,0.77-0.34,1.65,0,2.43
	C306.93,579.55,307.55,579.55,308.11,579.32z M195.93,599.35c-2.91-0.97-4.44,3.12-4.44,3.12l-9.64,28.15c0,0-1.18,4.37,1.39,5.2
	c3.6,1.11,4.85-3.4,4.85-3.4l9.43-27.73C197.53,604.69,198.85,600.32,195.93,599.35z M317.53,627.57h-1.94l-4.64,36.4h2.08
	c4.51,0.55,4.78-5.2,4.78-5.2l3.12-24.68C321.69,627.15,317.53,627.57,317.53,627.57z M578.28,611.48c0,0-1.8-4.09-4.37-3.33
	c-2.57,0.76-1.87,4.99-1.87,4.99l8.18,28.98c0,0,0.83,4.51,4.23,3.6c3.4-0.9,1.8-5.75,1.8-5.75L578.28,611.48z M532.24,568.78
	c0.11,0.84,0.6,1.58,1.32,2.01c0.57,0.28,1.24,0.28,1.8,0c0.63-0.09,1.17-0.48,1.46-1.04c0.35-0.77,0.37-1.64,0.07-2.43l-3.33-12.9
	c-0.16-0.82-0.63-1.54-1.32-2.01c-0.57-0.28-1.24-0.28-1.8,0c-0.64,0.11-1.19,0.49-1.53,1.04c-0.32,0.75-0.32,1.6,0,2.36
	L532.24,568.78z M607.74,601.92c-0.74-1.64-2.54-2.54-4.3-2.15l-2.57,0.97l4.65,13.59l2.5-0.83c2.77-0.97,2.36-4.16,2.08-5.13
	C609.65,606.11,608.85,603.93,607.74,601.92z M631.87,593.39l11.3,28.08c0,0,1.25,4.44,4.58,3.12c3.33-1.32,1.18-5.82,1.18-5.82
	l-11.09-27.73c0,0-2.15-3.88-4.64-2.84C630.69,589.23,631.87,593.39,631.87,593.39z M335.35,151.08
	c15.67,5.48,20.45,5.69,50.75-2.01l-60.87-33.9C317.05,131.39,319.68,145.6,335.35,151.08z M464.58,151.08
	c15.67-5.48,18.3-19.69,10.12-35.91l-60.87,33.9C444.13,156.76,448.91,156.56,464.58,151.08z M698.07,482.26l-20.8,30.37
	l14.77,15.88l-23.78,23.92l-57.33-1.59l36.47,8.32l33.42,75.64c-64.88,27.79-133.61,45.57-203.82,52.76
	c-20.51,19.31-42.21,37.33-64.96,53.94L399.97,750l-12.06-8.8c-22.76-16.63-44.48-34.64-65.03-53.94
	c-70.16-7.1-138.83-24.8-203.68-52.48l33.49-75.36l36.47-8.32l-57.33,1.59l-24.2-24.06l15.04-15.88l-20.8-30.5l18.72-10.88
	l-20.38-40.49l35.22-8.04l25.3,13.87C148.76,399.9,142.45,361.5,142,322.8V179.85l104.89-28.15l18.58-29.46
	c-21.56-10.05-37.85-37.71-37.85-37.71L248,88.34C232.47,77.73,220.82,50,220.82,50l24.47,6.52c13.61,3.38,27.57,5.13,41.6,5.2
	c8.58-0.09,17.12-1.21,25.44-3.33c28.8-6.07,58.21-8.68,87.63-7.76c29.39-0.91,58.79,1.7,87.56,7.76
	c8.32,2.12,16.86,3.23,25.44,3.33c14.02-0.07,27.99-1.82,41.6-5.2L579.04,50c0,0-11.65,27.73-27.18,38.34l20.38-3.81
	c0,0-16.29,27.73-37.85,37.71l18.58,29.46l104.89,28.15V322.8c-0.53,38.58-6.84,76.85-18.72,113.56l25.37-13.87l35.29,8.04
	l-20.8,40.63L698.07,482.26z M635.82,447.11c-4.23,12.62-9.08,25.3-14.56,37.92l50.54-15.39l16.78-33.42l-22.88-5.27L635.82,447.11z
	 M213.75,532.38l6.1,10.4l4.6-10.22c27.44,7.69,64.85,16.82,98.06,20.19c36.43,4.42,59.58,5.02,77.42,5.02
	c17.84,0,40.99-0.6,77.36-5.01c27.7-2.81,63.95-10.03,98.51-19.5l3.86,10.43c2.22-3.67,4.37-7.35,6.52-11.09
	c39.38-70.3,61.22-144.76,61.22-209.79V187.89l-101.08-27.04l-27.11-43.12c10.54-4.03,20.18-10.11,28.36-17.89
	c-14.93,3.96-30.42,5.39-45.83,4.23c10.95-3.05,45.2-19.34,55.46-37.44c-14.5,3.7-29.4,5.58-44.37,5.62
	c-29.19,0-33.14-11.09-113-11.09c-79.87,0-83.82,11.09-113,11.09c-14.97-0.03-29.87-1.92-44.37-5.62
	c10.4,18.09,44.65,34.66,55.46,37.44c-15.4,1.16-30.89-0.27-45.83-4.23c8.18,7.78,17.81,13.86,28.36,17.89l-27.11,43.12
	l-101.08,27.04V322.8C152.26,387.63,174.1,462.08,213.75,532.38z M530.22,595.39l-0.05,0.08c12.96-2.63,25.1-5.55,36.26-8.46
	l12.06-19.07c-12.55,5-25.37,9.28-38.41,12.83l-25.37,6.17c-15.81,3.33-32.24,6.24-49.22,7.9l-0.38,0.22
	c-29.55,3.17-49.47,3.66-65.17,3.66c-16.11,0-36.71-0.52-67.56-3.93l-10.11-1.16c-19.84-2.06-40.38-6.09-62.76-12.36l-0.01,0.03
	l-0.4-0.6c-13.04-3.5-25.86-7.76-38.41-12.76l11.99,18.86c11.16,2.98,23.29,5.82,36.26,8.53l-0.09-0.13
	c13.75,2.95,27.31,5.36,40.55,7.15l7.23,1.24l0.55-0.3c2.66,0.32,5.35,0.69,7.98,0.96c36.38,4.42,59.46,5.01,77.24,5.01
	c17.78,0,40.86-0.6,77.21-5.01C495.97,602.58,512.94,599.22,530.22,595.39z M396.78,634.78v30.71c0,4.71-1.18,4.71-1.18,4.71v9.36
	l26.14-0.42v-20.04h-8.8v4.85c0,0,0,0.01,0,0.01c0.11,2.26-1.63,4.18-3.88,4.29h-2.15V654.4h6.93v-9.91h-6.93v-12.96h2.22
	c3.54,0,3.54,3.88,3.54,3.88v3.74h8.74V620.5l-26.21,0.42l0.21,9.5C396.41,631.63,396.91,633.2,396.78,634.78z M367.17,634.43
	l-0.9,31.41c-0.14,4.3-1.52,4.3-1.52,4.3v9.5l25.3,0.69l0.76-27.73h-8.25l-0.42,11.65c-0.28,5.27-4.02,4.85-4.02,4.85h-2.08
	l0.97-34.66c0.14-3.33,1.39-4.02,1.39-4.02v-9.5h-12.27l-0.14,9.29C366.89,631.42,367.31,632.92,367.17,634.43z M261.52,553.66
	l-3.12,12.83c-0.13,1.07-0.74,2.01-1.66,2.57l-1.04,4.23l9.64,2.29l1.04-4.16c-0.51-0.95-0.51-2.1,0-3.05l1.04-4.23v-0.62h0.69
	l3.4,0.83h0.62v0.62l-1.04,4.23c-0.15,1.08-0.76,2.03-1.66,2.63l-1.04,4.16l9.64,2.29l1.04-4.16c-0.47-0.96-0.47-2.09,0-3.05
	l3.05-12.55c0.09-1.08,0.72-2.04,1.66-2.57l0.97-4.16l-9.57-2.7l-0.97,4.16c0.47,0.96,0.47,2.09,0,3.05l-0.69,3.05v0.69h-0.62
	l-3.4-0.83h-0.69v-0.62l0.69-3.05c0.13-1.07,0.74-2.01,1.66-2.57l1.04-4.16l-9.64-2.36l-1.04,4.16
	C262.02,551.57,262.02,552.71,261.52,553.66z M307.14,584.86c2.88,0.83,5.97,0.48,8.6-0.97c1.7-1.43,2.77-3.47,2.98-5.68l2.01-12.2
	c1.04-5.96-1.53-8.87-8.8-10.05c-2.88-0.84-5.98-0.49-8.6,0.97c-1.76,1.38-2.85,3.45-2.98,5.68l-2.08,12.2
	C297.29,580.7,299.86,583.61,307.14,584.86z M339.17,568.08l-1.39,13.17c0.06,1.09-0.41,2.14-1.25,2.84l-0.49,4.23l9.84,1.04
	l0.49-4.3c-0.71-0.82-0.97-1.93-0.69-2.98l0.49-4.64v-0.69h1.11l1.87,4.71v0.49c0.67,1.47,0.91,3.11,0.69,4.71l-0.35,2.84l9.22,0.97
	l0.42-4.16c-0.78-0.66-1.35-1.53-1.66-2.5l-3.4-9.01v-0.35l4.58-5.89c0.5-0.72,1.2-1.28,2.01-1.59l0.42-4.16l-8.04-0.83l-0.42,4.02
	c0,1.32-0.35,1.66-2.08,3.95l-2.57,3.19l-1.39,1.73v-2.22l0.42-3.74c-0.01-1.08,0.48-2.1,1.32-2.77l0.49-4.3l-9.84-0.97l-0.49,4.23
	C339.18,565.92,339.44,567.04,339.17,568.08z M378.61,571.2l-0.42,13.24c0.1,1.07-0.31,2.12-1.11,2.84v4.3H387v-4.3
	c-0.78-0.76-1.11-1.85-0.9-2.91v-4.64v-0.42h1.18v0.35l2.22,4.58v0.49c0.8,1.41,1.17,3.03,1.04,4.64v2.84h9.29v-4.16
	c-0.85-0.57-1.51-1.4-1.87-2.36l-4.09-8.74l4.16-6.17c0.41-0.78,1.07-1.39,1.87-1.73v-4.16h-8.74l0.76,2.91c0,1.39,0,1.73-1.8,4.16
	l-2.29,3.33l-1.32,1.87v-2.29v-3.74c-0.11-1.07,0.3-2.13,1.11-2.84v-4.3h-9.91v4.3C378.48,569.05,378.81,570.14,378.61,571.2z
	 M430.4,583.68v0.49c0.04,0.35,0.04,0.69,0,1.04c0.09,0.8-0.25,1.59-0.9,2.08v4.16l10.33-0.62v-4.16c-0.93-0.77-1.55-1.86-1.73-3.05
	l-5.48-20.8l-11.99,0.69c-0.42,3.19-2.57,20.8-2.57,20.8s0,0.42,0,0.69c-0.01,1.04-0.38,2.04-1.04,2.84v4.3l8.87-0.55v-4.09
	c-0.75-0.51-1.13-1.4-0.97-2.29c-0.03-0.35-0.03-0.69,0-1.04v-0.49h0.49h4.44H430.4z M465.2,564.2l-0.49-4.23l-9.84,1.11l0.55,4.37
	c0.82,0.65,1.28,1.66,1.25,2.7l1.53,13.17c0.24,1.05-0.01,2.15-0.69,2.98l0.49,4.23l9.84-1.11l-0.49-4.3
	c-0.86-0.65-1.36-1.69-1.32-2.77l-1.53-13.17C464.27,566.14,464.52,565.03,465.2,564.2z M486.07,581.26l0.69,4.16l12.27-2.08
	c2.42-0.25,4.65-1.41,6.24-3.26c1.37-2.04,1.73-4.6,0.97-6.93l-1.87-10.88c-0.04-2.58-1.37-4.97-3.54-6.38
	c-2.26-0.66-4.67-0.66-6.93,0l-11.92,2.08l0.69,4.23c0.94,0.46,1.57,1.38,1.66,2.43l2.43,13.87
	C487.02,579.47,486.76,580.51,486.07,581.26z M521.36,558.1l3.4,11.99c1.46,5.82,4.99,7.42,12.13,5.62c2.86-0.5,5.44-2.06,7.21-4.37
	c1-1.98,1.15-4.28,0.42-6.38l-3.05-12.06c-1.53-5.82-5.06-7.42-12.13-5.62c-2.99,0.42-5.7,1.99-7.56,4.37
	C520.77,553.66,520.62,555.98,521.36,558.1z M128.27,469.64l50.47,15.39c-5.41-12.62-10.33-25.3-14.56-37.92l-29.88-16.15
	l-22.88,5.27L128.27,469.64z M129.59,509.29l65.45,9.71c-4.16-8.11-8.11-16.29-11.79-24.47l-57.2-17.33l-13.24,7.7L129.59,509.29z
	 M207.65,542.57l-2.77-4.78l-5.96-10.47l-70.09-10.4l-10.47,11.3l16.5,16.43L207.65,542.57z M165.43,564.48
	c18.72,7.49,37.85,13.87,57.4,19.69l-12.27-19.69l4.3-9.71c-0.27-0.5-0.58-0.99-0.9-1.46L165.43,564.48z M169.59,617.38l-8.6-3.4
	l-2.84,6.93c0,0-2.43,5.62-5.27,4.23c-2.84-1.39-0.69-6.17-0.69-6.17l10.47-26.9c0,0,1.8-4.37,4.64-3.19
	c2.84,1.18,1.25,5.27,1.25,5.27l-2.15,5.55l8.67,3.33l5.62-14.42c-1.86-4.78-5.67-8.53-10.47-10.33
	c-10.88-3.81-15.88,9.64-15.88,9.64l-11.3,28.98c-3.19,8.18-2.08,15.11,5.75,18.72c4.45,2.04,9.6,1.83,13.87-0.55L169.59,617.38z
	 M197.53,634.78l9.71-28.98c0.9-3.23,1.06-6.61,0.49-9.91c0,0-0.62-4.92-8.18-7.56c-4.29-2.1-9.45-1.08-12.62,2.5
	c-1.61,2.17-3.01,4.49-4.16,6.93l-9.84,28.29c-1.07,3.44-1.65,7.01-1.73,10.61c0,0-0.42,6.31,8.32,9.5
	c4.76,2.71,10.81,1.29,13.87-3.26C195.06,640.35,196.45,637.63,197.53,634.78z M225.61,658.9l12.34-43.95
	c0.45-1.28,1.21-2.42,2.22-3.33l2.57-9.08l-9.57-2.63l-2.57,9.01c0.48,1.25,0.48,2.63,0,3.88l-3.95,13.87l-1.59-0.55l1.11-28.15
	l-10.47-2.91l-2.7,9.43c0.52,1.48,0.52,3.09,0,4.58l-8.74,30.78c-0.97,3.12-2.15,3.12-2.15,3.12l-2.57,9.01l9.29,2.7l2.57-9.15
	c-0.43-1.24-0.43-2.58,0-3.81l3.81-13.87l1.87,0.69l-0.69,27.73L225.61,658.9z M259.85,659.39c2.98-5.14,4.7-10.91,4.99-16.85
	c0.59-6.64-3.12-12.92-9.22-15.6c-2.24-1.84-3.1-4.88-2.15-7.63c0,0,0.69-4.44,4.09-3.6c3.4,0.83,2.15,4.99,2.15,4.99l-0.55,3.19
	l8.67,1.94l2.91-12.55c-1.92-3.57-5.11-6.3-8.94-7.63c-10.54-2.84-14.91,1.39-18.16,14.49c-3.26,13.1,2.57,16.64,7.76,20.04
	c5.2,3.4,2.36,10.33,2.36,10.33s-0.9,4.3-4.09,3.61s-2.22-5.48-2.22-5.48l0.62-4.85l-9.15-2.08l-3.33,14.49
	c1.82,4.37,5.74,7.5,10.4,8.32C251.24,666.43,257.11,664.26,259.85,659.39z M293.76,658.9l2.22-45.34L281.42,611l-13.24,43.33
	c-1.11,3.4-2.22,3.95-2.22,3.95l-1.59,9.15l10.82,2.01l2.22-8.74c-2.01-1.8,0-6.93,0-6.93l6.93,1.39c0.35,5.34-2.22,6.1-2.22,6.1
	l-1.66,9.22l12.62,2.22l1.59-9.15C293.76,662.72,293.76,658.9,293.76,658.9z M322.87,617.1l-17.05-2.15l-1.18,9.36
	c1.59,1.46,0.9,5.13,0.9,5.13l-3.81,30.3c-0.62,4.58-2.08,4.58-2.08,4.58l-1.18,9.15l16.92,2.15c10.54,1.11,11.86-13.87,11.86-13.87
	l3.67-28.77C332.79,617.1,322.87,617.1,322.87,617.1z M345.54,679.08c13.87,0.9,13.87-15.46,13.87-15.46l2.22-30.23
	c0.16-0.74,0.25-1.48,0.28-2.24c0.26-7.15-5.32-13.17-12.48-13.43c-13.45-0.69-13.87,14.91-13.87,14.91l-2.29,29.88
	C333.27,662.51,331.89,678.25,345.54,679.08z M459.8,689.13c-9.43,0.49-16.36,1.11-16.36,1.11c-0.04,0.03-0.08,0.06-0.11,0.09
	c-4.04,0.33-27.71,2.21-42.81,2.21c-14.31,0-36.91-1.64-43.7-2.16c-0.06-0.05-0.11-0.09-0.17-0.14c0,0-6.93,0-16.5-1.11
	c17.21,15.52,35.22,30.15,53.94,43.82l5.89,4.3l5.89-4.3C424.58,719.28,442.58,704.66,459.8,689.13z M467.49,652.39
	c-1.59-8.94-8.74-10.68-13.45-12.13c-2.78-1.13-4.52-3.93-4.3-6.93c0,0-0.55-4.37,2.91-4.58c3.47-0.21,3.47,4.09,3.47,4.09
	l0.42,3.26l8.87-0.76l-0.97-12.83c-3.01-3.01-7.11-4.68-11.37-4.64c-10.95,0.35-13.87,5.89-13.1,19.2
	c0.76,13.31,7.42,15.39,13.31,16.85c5.89,1.46,5.34,9.15,5.34,9.15s0.42,4.37-2.84,4.65c-3.26,0.28-3.74-4.58-3.74-4.58l-0.42-4.71
	l-9.36,0.76l1.11,14.91c3.04,3.63,7.72,5.46,12.41,4.85c5.59,0.29,10.56-3.53,11.72-9.01C468.91,664.17,468.91,658.15,467.49,652.39
	z M503.96,672.42l-1.32-9.22c-1.32-0.49-2.29-4.16-2.29-4.16l-11.3-43.88l-14.63,1.87l0.76,45.34c-0.07,3.67-0.97,4.44-0.97,4.44
	l1.25,9.29l10.88-1.39l-1.18-9.08c-2.43-1.04-2.01-6.52-2.01-6.52l6.93-0.83c2.22,4.99,0,6.52,0,6.52l1.18,9.29L503.96,672.42z
	 M530.37,636.23c-0.54-5.2-1.52-10.35-2.91-15.39c-2.84-11.72-11.79-9.98-11.79-9.98l-16.64,3.12l1.59,9.08
	c1.17,1.17,1.88,2.72,2.01,4.37l5.48,30.37c0.62,3.88-0.49,4.71-0.49,4.71l1.73,9.08l12.06-2.15l-1.59-9.57
	c-1.59-1.04-2.01-4.3-2.01-4.3l-0.9-2.77l6.52-1.32C533,649.61,530.37,636.23,530.37,636.23z M561.43,629.3
	c-0.78-5.18-2.01-10.28-3.67-15.25c-3.4-11.58-12.2-9.43-12.2-9.43l-16.85,3.88l2.15,9.08c1.18,1.13,1.96,2.61,2.22,4.23l6.93,30.09
	c1.04,3.88,0,4.78,0,4.78l2.15,9.15l11.92-2.7l-2.15-9.15c-1.66-0.97-2.22-4.16-2.22-4.16l-0.83-3.4l6.45-1.59
	C564.69,642.47,561.43,629.3,561.43,629.3z M595.4,637.27l-8.25-29.12c-0.1-0.75-0.27-1.49-0.51-2.21
	c-2.21-6.85-9.56-10.61-16.41-8.4c-12.62,3.81-7.76,18.65-7.76,18.65l8.25,28.84c0,0,3.05,15.6,16.64,11.65
	C600.95,652.73,595.4,637.27,595.4,637.27z M632.77,641.09l-2.98-8.8c-1.73-0.55-2.84-3.81-2.84-3.81l-2.5-7.42
	c-0.69-3.21-3.66-5.41-6.93-5.13l-0.49-1.46c4.3-2.91,2.15-9.84,2.15-9.84c-0.66-4.06-2.12-7.95-4.3-11.44
	c-1.77-4.02-6.27-6.07-10.47-4.78l-17.26,5.69l3.4,9.08c1.3,0.8,2.21,2.1,2.5,3.6l9.98,29.95c1.04,3.74,0,4.51,0,4.51l3.05,8.87
	l11.58-3.95l-3.05-8.94c-1.53-0.62-2.43-3.4-2.43-3.4l-3.19-9.64l1.66-0.62c3.54-1.18,5.48,3.67,5.48,3.67l2.57,7.56
	c1.13,3.31,2.45,6.55,3.95,9.71L632.77,641.09z M628.75,578.28c-12.13,5.48-5.68,19.34-5.68,19.34l11.16,27.8
	c0,0,4.99,15.04,17.82,9.71c12.83-5.34,5.89-20.1,5.89-20.1l-11.37-28.08c-0.18-0.71-0.42-1.4-0.71-2.06
	C642.95,578.33,635.29,575.38,628.75,578.28z M586.11,553.32l-1.39,2.22l4.02,8.94l-12.48,19.97c19.79-5.64,39.27-12.31,58.37-19.97
	L586.11,553.32z M671.24,516.92l-70.23,10.4l-5.89,10.47c-0.9,1.59-1.8,3.19-2.77,4.78l72.79,2.08l16.57-16.43L671.24,516.92z
	 M687.19,484.89l-13.17-7.7l-56.92,17.33c-3.74,8.18-7.7,16.36-11.86,24.47l65.45-9.71L687.19,484.89z M360.72,693.65
	c12.53,10.76,25.6,21.23,39.31,31.25c13.72-10.09,26.7-20.56,39.32-31.28c-8.55,0.65-26.52,1.89-38.85,1.89
	C388.31,695.52,370.15,694.33,360.72,693.65z"/>
</svg>
