<?xml version="1.0" encoding="utf-8"?>
<!-- Created by @FCLOGO 2024-9-25 GMT+8 16:07:21 . https://fclogo.top/ -->
<!-- FOR PERSONAL USE ONLY NOT FOR COMMERCIAL USE -->
<!-- Created by @FCLOGO 2024-9-25 GMT+8 16:07:21 . https://fclogo.top/ -->
<!-- FOR PERSONAL USE ONLY NOT FOR COMMERCIAL USE -->
<svg version="1.1" xmlns="http://www.w3.org/2000/svg" xmlns:xlink="http://www.w3.org/1999/xlink" x="0px" y="0px"
	 viewBox="0 0 800 800" style="enable-background:new 0 0 800 800;" xml:space="preserve">
<path style="fill:#CCCCCC;" d="M348.22,774.3c-0.79,0-1.38-0.22-1.77-0.65c-0.39-0.44-0.53-1.03-0.41-1.79l0.25-1.65
	c0.12-0.75,0.45-1.35,0.98-1.78c0.53-0.44,1.19-0.65,1.98-0.65c0.76,0,1.33,0.2,1.72,0.6c0.39,0.4,0.55,0.94,0.47,1.62h-1.24
	c0.03-0.36-0.06-0.64-0.26-0.84c-0.2-0.2-0.5-0.3-0.89-0.3c-0.42,0-0.76,0.12-1.03,0.35c-0.27,0.23-0.43,0.56-0.5,0.99l-0.26,1.66
	c-0.07,0.44-0.01,0.77,0.19,1c0.19,0.23,0.5,0.35,0.92,0.35c0.39,0,0.72-0.1,0.98-0.3c0.26-0.2,0.44-0.48,0.52-0.85h1.24
	c-0.14,0.69-0.47,1.23-0.99,1.63C349.61,774.1,348.97,774.3,348.22,774.3z M352.8,774.19l1-6.29h1.19l-0.19,1.19
	c0.34-0.87,0.97-1.3,1.91-1.3c0.67,0,1.17,0.21,1.49,0.62c0.32,0.42,0.43,0.99,0.31,1.71l-0.07,0.42h-1.27l0.06-0.32
	c0.07-0.45,0.01-0.8-0.17-1.04c-0.18-0.24-0.48-0.36-0.88-0.36c-0.4,0-0.74,0.12-1.01,0.37c-0.27,0.24-0.43,0.59-0.5,1.03
	l-0.63,3.97H352.8z M361.91,774.3c-0.77,0-1.35-0.22-1.73-0.67c-0.38-0.45-0.51-1.04-0.4-1.77l0.25-1.65
	c0.08-0.49,0.26-0.92,0.52-1.28c0.26-0.37,0.6-0.65,1.01-0.85c0.41-0.2,0.87-0.3,1.38-0.3c0.77,0,1.35,0.22,1.73,0.67
	c0.39,0.45,0.52,1.04,0.39,1.77l-0.17,1.12h-3.85l-0.09,0.53c-0.15,0.95,0.22,1.43,1.11,1.43c0.72,0,1.17-0.25,1.37-0.74h1.22
	c-0.17,0.53-0.5,0.96-1.01,1.28C363.16,774.14,362.58,774.3,361.91,774.3z M361.23,770.22l-0.05,0.29l2.65-0.01l0.05-0.29
	c0.07-0.47,0.01-0.82-0.17-1.07c-0.18-0.25-0.49-0.37-0.92-0.37c-0.44,0-0.8,0.13-1.06,0.38
	C361.48,769.39,361.31,769.75,361.23,770.22z M368.33,774.3c-0.63,0-1.1-0.21-1.41-0.64c-0.31-0.42-0.4-1-0.27-1.73l0.27-1.77
	c0.11-0.73,0.39-1.31,0.84-1.74c0.44-0.43,0.98-0.64,1.61-0.64c0.47,0,0.83,0.12,1.09,0.35c0.26,0.24,0.39,0.56,0.38,0.96h0.02
	l0.17-1.2h1.24l-1,6.29h-1.22l0.19-1.2h-0.02c-0.12,0.41-0.35,0.73-0.69,0.97C369.2,774.18,368.8,774.3,368.33,774.3z
	 M368.93,773.23c0.39,0,0.72-0.12,0.98-0.36c0.26-0.24,0.43-0.57,0.5-1.01l0.25-1.65c0.07-0.43,0.01-0.76-0.18-1
	c-0.19-0.24-0.47-0.36-0.86-0.36c-0.4,0-0.72,0.12-0.98,0.35c-0.26,0.24-0.42,0.57-0.49,1.01l-0.25,1.65
	c-0.07,0.44-0.01,0.78,0.17,1.01C368.24,773.11,368.53,773.23,368.93,773.23z M376.35,774.19c-0.57,0-0.99-0.16-1.26-0.47
	c-0.27-0.31-0.36-0.75-0.27-1.32l0.54-3.39h-1.74l0.17-1.12h1.74l0.27-1.72h1.24l-0.27,1.72h2.47l-0.18,1.12h-2.46l-0.54,3.39
	c-0.08,0.44,0.1,0.66,0.53,0.66h1.72l-0.17,1.12H376.35z M382.5,774.3c-0.77,0-1.35-0.22-1.73-0.67c-0.38-0.45-0.52-1.04-0.4-1.77
	l0.25-1.65c0.08-0.49,0.26-0.92,0.52-1.28c0.26-0.37,0.6-0.65,1.01-0.85c0.41-0.2,0.87-0.3,1.38-0.3c0.77,0,1.35,0.22,1.73,0.67
	c0.39,0.45,0.52,1.04,0.39,1.77l-0.17,1.12h-3.85l-0.09,0.53c-0.15,0.95,0.22,1.43,1.11,1.43c0.72,0,1.17-0.25,1.37-0.74h1.22
	c-0.17,0.53-0.5,0.96-1.01,1.28C383.76,774.14,383.18,774.3,382.5,774.3z M381.83,770.22l-0.05,0.29l2.65-0.01l0.05-0.29
	c0.07-0.47,0.01-0.82-0.17-1.07c-0.18-0.25-0.49-0.37-0.92-0.37c-0.44,0-0.8,0.13-1.06,0.38
	C382.08,769.39,381.91,769.75,381.83,770.22z M388.92,774.3c-0.63,0-1.1-0.21-1.4-0.64c-0.3-0.42-0.39-1-0.28-1.73l0.27-1.77
	c0.11-0.73,0.39-1.31,0.84-1.74c0.44-0.43,0.98-0.64,1.61-0.64c0.47,0,0.83,0.12,1.09,0.35c0.26,0.24,0.39,0.56,0.38,0.96h0.02
	l0.21-1.47l0.3-1.8h1.24l-1.33,8.35h-1.22l0.19-1.2h-0.02c-0.12,0.41-0.35,0.73-0.69,0.97C389.8,774.18,389.4,774.3,388.92,774.3z
	 M389.53,773.23c0.39,0,0.72-0.12,0.98-0.36c0.26-0.24,0.43-0.57,0.5-1.01l0.25-1.65c0.08-0.43,0.02-0.76-0.17-1
	c-0.19-0.24-0.48-0.36-0.87-0.36c-0.4,0-0.72,0.12-0.98,0.35c-0.26,0.24-0.42,0.57-0.49,1.01l-0.25,1.65
	c-0.08,0.44-0.02,0.78,0.16,1.01C388.83,773.11,389.13,773.23,389.53,773.23z M401.02,774.3c-0.47,0-0.84-0.12-1.1-0.35
	c-0.26-0.23-0.39-0.56-0.38-0.97h-0.01l-0.19,1.2h-1.22l1.33-8.35h1.24l-0.29,1.8l-0.27,1.47h0.05c0.12-0.41,0.35-0.73,0.69-0.97
	c0.34-0.23,0.74-0.35,1.21-0.35c0.63,0,1.1,0.21,1.4,0.64c0.3,0.43,0.39,1.01,0.28,1.74l-0.27,1.77c-0.11,0.73-0.39,1.31-0.84,1.73
	C402.18,774.09,401.64,774.3,401.02,774.3z M400.77,773.23c0.4,0,0.72-0.12,0.98-0.35c0.26-0.23,0.42-0.57,0.5-1.01l0.25-1.65
	c0.07-0.43,0.01-0.77-0.17-1.01c-0.18-0.24-0.47-0.35-0.87-0.35c-0.39,0-0.72,0.12-0.98,0.36c-0.26,0.24-0.43,0.57-0.5,1l-0.25,1.65
	c-0.07,0.44-0.01,0.77,0.17,1.01C400.08,773.11,400.37,773.23,400.77,773.23z M405.47,776.25l0.17-1.06h1.93
	c0.64,0,1.01-0.3,1.1-0.9l0.1-0.67l0.21-1.19h-0.03c-0.12,0.42-0.35,0.74-0.68,0.97c-0.33,0.23-0.73,0.34-1.2,0.34
	c-0.63,0-1.09-0.2-1.4-0.6c-0.31-0.4-0.41-0.94-0.3-1.63l0.58-3.6h1.24l-0.56,3.48c-0.06,0.41,0,0.73,0.18,0.96
	c0.18,0.23,0.47,0.34,0.85,0.34c0.39,0,0.72-0.12,0.98-0.37c0.27-0.24,0.43-0.58,0.49-1.02l0.54-3.4h1.24l-1.01,6.41
	c-0.1,0.6-0.37,1.08-0.81,1.42c-0.44,0.35-1,0.52-1.67,0.52H405.47z M417.79,770.09h3.22l0.54-1.85h-5.47l-1.71,6.44h2.15l0.59-2.1
	h3.03l0.44-1.71h-3.03L417.79,770.09z M424.23,772.92c-0.59,0-1.02-0.39-1.02-1.12c0-0.88,0.63-1.76,1.61-1.76
	c0.49,0,0.88,0.24,1.02,0.78l1.95-0.83c-0.29-1.17-1.27-1.9-2.64-1.9c-2.78,0-4.15,2.15-4.15,3.9c0,1.76,1.27,2.83,3.07,2.83
	c1.37,0,2.34-0.59,2.98-1.42l-1.51-1.17C425.16,772.67,424.72,772.92,424.23,772.92z M430.91,768.23h-2.15l-1.76,6.44h5.12
	l0.49-1.85h-2.93L430.91,768.23z M439.75,771.01c0-1.66-1.32-2.93-3.22-2.93c-2.2,0-3.81,1.81-3.81,3.81c0,1.66,1.32,2.93,3.22,2.93
	C438.14,774.82,439.75,773.01,439.75,771.01z M434.92,771.7c0-0.83,0.59-1.71,1.51-1.71c0.78,0,1.17,0.54,1.17,1.22
	c0,0.83-0.59,1.71-1.51,1.71C435.31,772.92,434.92,772.38,434.92,771.7z M443.21,772.23h1.07l-0.2,0.68
	c-0.15,0.05-0.34,0.1-0.59,0.1c-0.68,0-1.27-0.39-1.27-1.22c0-1.02,0.73-1.9,1.95-1.9c0.59,0,1.12,0.24,1.51,0.59l1.37-1.37
	c-0.44-0.54-1.51-1.07-2.73-1.07c-2.59,0-4.29,1.76-4.29,3.86c0,2.05,1.61,2.88,3.22,2.88c0.93,0,1.85-0.29,2.49-0.68l0.93-3.32
	h-3.12L443.21,772.23z M450.78,768.08c-2.2,0-3.81,1.81-3.81,3.81c0,1.66,1.32,2.93,3.22,2.93c2.2,0,3.81-1.81,3.81-3.81
	C454,769.35,452.68,768.08,450.78,768.08z M450.34,772.92c-0.78,0-1.17-0.54-1.17-1.22c0-0.83,0.59-1.71,1.51-1.71
	c0.78,0,1.17,0.54,1.17,1.22C451.85,772.04,451.27,772.92,450.34,772.92z M437.94,767.5c-0.05,0.29,0.1,0.49,0.44,0.49
	s0.54-0.2,0.63-0.49c0.05-0.24-0.1-0.49-0.44-0.49C438.24,767.01,437.99,767.25,437.94,767.5z M432.13,765.5
	c-0.44,0-0.73,0.24-0.78,0.59c-0.05,0.34,0.1,0.59,0.54,0.59s0.73-0.24,0.78-0.59C432.77,765.74,432.57,765.5,432.13,765.5z
	 M433.01,767.3c-0.1,0.54,0.15,0.88,0.83,0.88c0.63,0,1.07-0.39,1.17-0.88s-0.15-0.88-0.83-0.88
	C433.5,766.43,433.11,766.82,433.01,767.3z M439.6,777.55l-2.44-1.81h-1.51l4.25,3.17l1.61-3.17h-0.98L439.6,777.55z M425.84,767.16
	l-2-1.46l23.13-2.78l-2.15,4.25h1.02l2.68-5.32l-26.99,3.22l2.78,2.1H425.84z M338.72,785.79l0.61-3.83h2.32l-0.08,0.52h-1.76
	l-0.18,1.14h1.63l-0.08,0.52h-1.62l-0.26,1.64H338.72z M342.97,785.84c-0.36,0-0.62-0.1-0.8-0.3c-0.17-0.2-0.23-0.47-0.18-0.82
	l0.27-1.7c0.06-0.34,0.2-0.61,0.44-0.82c0.24-0.2,0.54-0.3,0.89-0.3c0.36,0,0.62,0.1,0.8,0.3c0.17,0.2,0.24,0.47,0.18,0.81
	l-0.27,1.71c-0.06,0.34-0.2,0.62-0.44,0.82C343.63,785.74,343.33,785.84,342.97,785.84z M343.05,785.33c0.19,0,0.35-0.05,0.47-0.16
	c0.12-0.11,0.19-0.26,0.23-0.46l0.27-1.7c0.03-0.2,0.01-0.35-0.08-0.46c-0.08-0.11-0.22-0.16-0.41-0.16s-0.35,0.05-0.46,0.16
	c-0.12,0.1-0.19,0.26-0.22,0.46l-0.27,1.7c-0.03,0.2-0.01,0.35,0.08,0.46C342.72,785.28,342.86,785.33,343.05,785.33z M345,785.79
	l0.61-3.83h1.2c0.24,0,0.44,0.05,0.6,0.14c0.16,0.09,0.28,0.22,0.36,0.39c0.07,0.17,0.09,0.37,0.05,0.59
	c-0.04,0.26-0.14,0.48-0.3,0.67c-0.16,0.19-0.37,0.32-0.6,0.39l0.54,1.64h-0.62l-0.48-1.57h-0.54l-0.25,1.57H345z M345.89,783.71
	h0.64c0.19,0,0.35-0.06,0.48-0.17c0.13-0.11,0.21-0.26,0.24-0.45c0.03-0.19,0-0.35-0.09-0.46c-0.09-0.11-0.24-0.17-0.43-0.17h-0.64
	L345.89,783.71z M349.54,785.79l0.61-3.83h1.25c0.37,0,0.65,0.1,0.84,0.31c0.19,0.21,0.26,0.49,0.2,0.84
	c-0.04,0.23-0.12,0.44-0.25,0.61s-0.29,0.31-0.49,0.4c-0.2,0.09-0.42,0.14-0.66,0.14h-0.69l-0.24,1.52H349.54z M350.43,783.75h0.69
	c0.19,0,0.36-0.06,0.49-0.18c0.14-0.12,0.22-0.27,0.25-0.47c0.03-0.2,0-0.35-0.1-0.47c-0.1-0.12-0.25-0.18-0.44-0.18h-0.69
	L350.43,783.75z M352.75,785.79l0.61-3.83h2.25l-0.08,0.5h-1.7l-0.17,1.09h1.51l-0.08,0.5h-1.51l-0.19,1.24h1.69l-0.08,0.5H352.75z
	 M355.84,785.79l0.61-3.83h1.2c0.24,0,0.44,0.05,0.6,0.14c0.16,0.09,0.28,0.22,0.36,0.39c0.07,0.17,0.09,0.37,0.05,0.59
	c-0.04,0.26-0.14,0.48-0.3,0.67c-0.16,0.19-0.37,0.32-0.6,0.39l0.54,1.64h-0.62l-0.48-1.57h-0.54l-0.25,1.57H355.84z M356.74,783.71
	h0.64c0.19,0,0.35-0.06,0.48-0.17c0.13-0.11,0.21-0.26,0.24-0.45c0.03-0.19,0-0.35-0.09-0.46c-0.09-0.11-0.24-0.17-0.43-0.17h-0.64
	L356.74,783.71z M360.13,785.84c-0.39,0-0.67-0.1-0.87-0.29c-0.19-0.19-0.26-0.45-0.22-0.78h0.57c-0.03,0.17,0.01,0.31,0.12,0.41
	c0.11,0.1,0.27,0.15,0.48,0.15c0.2,0,0.37-0.05,0.5-0.15c0.13-0.1,0.21-0.23,0.24-0.4c0.02-0.15,0-0.28-0.06-0.39
	c-0.06-0.11-0.16-0.18-0.29-0.22l-0.46-0.14c-0.27-0.08-0.46-0.22-0.59-0.41c-0.13-0.19-0.17-0.42-0.13-0.68
	c0.04-0.21,0.11-0.39,0.23-0.55c0.12-0.16,0.27-0.28,0.46-0.37c0.19-0.09,0.4-0.13,0.64-0.13c0.35,0,0.62,0.1,0.8,0.29
	c0.18,0.19,0.25,0.44,0.2,0.76h-0.57c0.03-0.17,0-0.3-0.09-0.4c-0.09-0.1-0.23-0.14-0.42-0.14c-0.19,0-0.34,0.04-0.46,0.13
	c-0.12,0.09-0.19,0.21-0.21,0.38c-0.02,0.15-0.01,0.28,0.05,0.39c0.06,0.11,0.16,0.18,0.29,0.22l0.47,0.15
	c0.26,0.08,0.46,0.22,0.58,0.41c0.12,0.19,0.17,0.42,0.12,0.69c-0.04,0.22-0.12,0.41-0.24,0.57c-0.13,0.16-0.29,0.29-0.49,0.38
	C360.6,785.79,360.38,785.84,360.13,785.84z M363.27,785.84c-0.36,0-0.62-0.1-0.8-0.3c-0.17-0.2-0.23-0.47-0.18-0.82l0.27-1.7
	c0.06-0.34,0.2-0.61,0.44-0.82c0.24-0.2,0.54-0.3,0.89-0.3c0.36,0,0.62,0.1,0.8,0.3c0.17,0.2,0.24,0.47,0.18,0.81l-0.27,1.71
	c-0.06,0.34-0.2,0.62-0.44,0.82C363.92,785.74,363.62,785.84,363.27,785.84z M363.34,785.33c0.19,0,0.35-0.05,0.47-0.16
	c0.12-0.11,0.19-0.26,0.23-0.46l0.27-1.7c0.03-0.2,0.01-0.35-0.08-0.46c-0.08-0.11-0.22-0.16-0.41-0.16c-0.19,0-0.35,0.05-0.46,0.16
	c-0.12,0.1-0.19,0.26-0.22,0.46l-0.27,1.7c-0.03,0.2-0.01,0.35,0.08,0.46C363.02,785.28,363.15,785.33,363.34,785.33z
	 M365.28,785.79l0.61-3.83h0.71l0.62,3.19c0.01-0.1,0.02-0.22,0.03-0.36c0.01-0.14,0.03-0.29,0.04-0.44
	c0.02-0.15,0.04-0.29,0.06-0.41l0.31-1.98h0.52l-0.61,3.83h-0.71l-0.61-3.19c-0.01,0.09-0.02,0.21-0.03,0.34s-0.03,0.28-0.04,0.42
	c-0.02,0.15-0.04,0.28-0.06,0.41l-0.31,2.01H365.28z M368.23,785.79l1.59-3.83h0.75l0.37,3.83h-0.56l-0.07-0.97h-1.09l-0.39,0.97
	H368.23z M369.39,784.34h0.87l-0.09-1.1c-0.02-0.2-0.03-0.37-0.04-0.51c-0.01-0.14-0.01-0.24-0.01-0.3c-0.02,0.06-0.05,0.16-0.1,0.3
	c-0.05,0.14-0.11,0.31-0.19,0.5L369.39,784.34z M371.72,785.79l0.61-3.83h0.57l-0.52,3.31h1.67l-0.08,0.52H371.72z M376.68,785.84
	c-0.37,0-0.63-0.1-0.8-0.3c-0.17-0.2-0.22-0.48-0.17-0.82l0.44-2.76h0.57l-0.44,2.76c-0.03,0.2-0.01,0.35,0.07,0.46
	c0.08,0.11,0.21,0.17,0.41,0.17c0.19,0,0.35-0.06,0.46-0.17c0.12-0.11,0.19-0.27,0.22-0.46l0.44-2.76h0.57l-0.44,2.76
	c-0.06,0.35-0.2,0.62-0.43,0.82C377.35,785.74,377.05,785.84,376.68,785.84z M379.84,785.84c-0.39,0-0.67-0.1-0.87-0.29
	c-0.19-0.19-0.26-0.45-0.22-0.78h0.57c-0.03,0.17,0.01,0.31,0.12,0.41c0.11,0.1,0.27,0.15,0.48,0.15c0.2,0,0.37-0.05,0.5-0.15
	c0.13-0.1,0.21-0.23,0.24-0.4c0.02-0.15,0-0.28-0.06-0.39c-0.06-0.11-0.16-0.18-0.29-0.22l-0.46-0.14
	c-0.27-0.08-0.46-0.22-0.59-0.41c-0.13-0.19-0.17-0.42-0.13-0.68c0.04-0.21,0.11-0.39,0.23-0.55s0.27-0.28,0.46-0.37
	c0.19-0.09,0.4-0.13,0.64-0.13c0.35,0,0.62,0.1,0.8,0.29c0.18,0.19,0.25,0.44,0.2,0.76h-0.57c0.03-0.17,0-0.3-0.09-0.4
	c-0.09-0.1-0.23-0.14-0.42-0.14c-0.19,0-0.34,0.04-0.46,0.13c-0.12,0.09-0.19,0.21-0.21,0.38c-0.02,0.15-0.01,0.28,0.05,0.39
	c0.06,0.11,0.16,0.18,0.29,0.22l0.47,0.15c0.26,0.08,0.46,0.22,0.58,0.41c0.12,0.19,0.17,0.42,0.12,0.69
	c-0.04,0.22-0.12,0.41-0.24,0.57c-0.13,0.16-0.29,0.29-0.49,0.38C380.31,785.79,380.09,785.84,379.84,785.84z M381.91,785.79
	l0.61-3.83h2.25l-0.08,0.5h-1.7l-0.17,1.09h1.51l-0.08,0.5h-1.51l-0.19,1.24h1.69l-0.08,0.5H381.91z M386.94,785.84
	c-0.36,0-0.62-0.1-0.8-0.3c-0.17-0.2-0.23-0.47-0.18-0.82l0.27-1.7c0.06-0.34,0.2-0.61,0.44-0.82c0.24-0.2,0.54-0.3,0.89-0.3
	c0.36,0,0.62,0.1,0.8,0.3c0.17,0.2,0.24,0.47,0.18,0.81l-0.27,1.71c-0.06,0.34-0.2,0.62-0.44,0.82
	C387.6,785.74,387.3,785.84,386.94,785.84z M387.02,785.33c0.19,0,0.35-0.05,0.47-0.16c0.12-0.11,0.19-0.26,0.23-0.46l0.27-1.7
	c0.03-0.2,0.01-0.35-0.08-0.46c-0.08-0.11-0.22-0.16-0.41-0.16c-0.19,0-0.35,0.05-0.46,0.16c-0.12,0.1-0.19,0.26-0.22,0.46
	l-0.27,1.7c-0.03,0.2-0.01,0.35,0.08,0.46C386.7,785.28,386.83,785.33,387.02,785.33z M388.95,785.79l0.61-3.83h0.71l0.62,3.19
	c0.01-0.1,0.02-0.22,0.03-0.36c0.01-0.14,0.03-0.29,0.04-0.44c0.02-0.15,0.04-0.29,0.06-0.41l0.31-1.98h0.52l-0.61,3.83h-0.71
	l-0.61-3.19c-0.01,0.09-0.02,0.21-0.03,0.34c-0.01,0.13-0.03,0.28-0.04,0.42c-0.02,0.15-0.04,0.28-0.06,0.41l-0.31,2.01H388.95z
	 M392.25,785.79l0.61-3.83h0.57l-0.52,3.31h1.67l-0.08,0.52H392.25z M396.12,785.79l0.22-1.41l-0.75-2.42h0.58l0.45,1.45
	c0.03,0.09,0.05,0.18,0.07,0.27c0.02,0.08,0.03,0.15,0.03,0.19c0.02-0.04,0.05-0.1,0.09-0.19c0.04-0.08,0.09-0.17,0.14-0.27
	l0.9-1.45h0.6l-1.53,2.42l-0.22,1.41H396.12z M399.22,785.79l0.61-3.83h0.71l0.62,3.19c0.01-0.1,0.02-0.22,0.03-0.36
	c0.01-0.14,0.03-0.29,0.04-0.44c0.02-0.15,0.04-0.29,0.06-0.41l0.31-1.98h0.52l-0.61,3.83h-0.71l-0.61-3.19
	c-0.01,0.09-0.02,0.21-0.03,0.34c-0.01,0.13-0.03,0.28-0.04,0.42c-0.02,0.15-0.04,0.28-0.06,0.41l-0.31,2.01H399.22z M403.51,785.84
	c-0.36,0-0.62-0.1-0.8-0.3c-0.18-0.2-0.23-0.47-0.18-0.82l0.27-1.7c0.06-0.34,0.2-0.61,0.44-0.82c0.24-0.2,0.54-0.3,0.89-0.3
	c0.36,0,0.62,0.1,0.8,0.3c0.17,0.2,0.24,0.47,0.18,0.81l-0.27,1.71c-0.06,0.34-0.2,0.62-0.44,0.82
	C404.16,785.74,403.86,785.84,403.51,785.84z M403.58,785.33c0.19,0,0.35-0.05,0.47-0.16c0.12-0.11,0.19-0.26,0.23-0.46l0.27-1.7
	c0.03-0.2,0.01-0.35-0.08-0.46c-0.08-0.11-0.22-0.16-0.41-0.16c-0.19,0-0.35,0.05-0.46,0.16c-0.12,0.1-0.19,0.26-0.22,0.46
	l-0.27,1.7c-0.03,0.2-0.01,0.35,0.08,0.46C403.26,785.28,403.4,785.33,403.58,785.33z M406.38,785.79l0.52-3.31h-1.02l0.08-0.52
	h2.62l-0.08,0.52h-1.03l-0.52,3.31H406.38z M409.52,785.79l0.61-3.83h2.32l-0.08,0.52h-1.76l-0.18,1.14h1.63l-0.08,0.52h-1.62
	l-0.26,1.64H409.52z M413.77,785.84c-0.36,0-0.62-0.1-0.8-0.3c-0.18-0.2-0.23-0.47-0.18-0.82l0.27-1.7c0.06-0.34,0.2-0.61,0.44-0.82
	c0.24-0.2,0.54-0.3,0.89-0.3c0.36,0,0.62,0.1,0.8,0.3c0.17,0.2,0.24,0.47,0.18,0.81l-0.27,1.71c-0.06,0.34-0.2,0.62-0.44,0.82
	C414.42,785.74,414.13,785.84,413.77,785.84z M413.85,785.33c0.19,0,0.35-0.05,0.47-0.16c0.12-0.11,0.19-0.26,0.23-0.46l0.27-1.7
	c0.03-0.2,0.01-0.35-0.08-0.46c-0.08-0.11-0.22-0.16-0.41-0.16c-0.19,0-0.35,0.05-0.46,0.16c-0.12,0.1-0.19,0.26-0.22,0.46
	l-0.27,1.7c-0.03,0.2-0.01,0.35,0.08,0.46C413.52,785.28,413.66,785.33,413.85,785.33z M415.8,785.79l0.61-3.83h1.2
	c0.24,0,0.44,0.05,0.6,0.14c0.16,0.09,0.28,0.22,0.36,0.39c0.07,0.17,0.09,0.37,0.05,0.59c-0.04,0.26-0.14,0.48-0.3,0.67
	c-0.16,0.19-0.37,0.32-0.6,0.39l0.54,1.64h-0.62l-0.48-1.57h-0.54l-0.25,1.57H415.8z M416.69,783.71h0.64
	c0.19,0,0.35-0.06,0.48-0.17c0.13-0.11,0.21-0.26,0.24-0.45c0.03-0.19,0-0.35-0.09-0.46c-0.09-0.11-0.24-0.17-0.43-0.17h-0.64
	L416.69,783.71z M420.91,785.84c-0.36,0-0.63-0.1-0.81-0.3c-0.18-0.2-0.24-0.47-0.19-0.82l0.27-1.7c0.06-0.35,0.21-0.62,0.45-0.82
	s0.55-0.3,0.91-0.3c0.36,0,0.63,0.1,0.81,0.3c0.18,0.2,0.24,0.47,0.19,0.82h-0.57c0.03-0.2,0-0.35-0.09-0.46
	c-0.09-0.11-0.23-0.16-0.42-0.16c-0.19,0-0.35,0.05-0.48,0.16c-0.12,0.1-0.2,0.26-0.23,0.45l-0.27,1.71c-0.03,0.2,0,0.35,0.09,0.46
	c0.09,0.11,0.23,0.16,0.42,0.16c0.19,0,0.35-0.05,0.47-0.16c0.12-0.11,0.2-0.26,0.23-0.46h0.57c-0.03,0.23-0.11,0.43-0.24,0.59
	c-0.12,0.17-0.28,0.3-0.47,0.39C421.36,785.79,421.14,785.84,420.91,785.84z M424.03,785.84c-0.36,0-0.62-0.1-0.8-0.3
	c-0.18-0.2-0.23-0.47-0.18-0.82l0.27-1.7c0.06-0.34,0.2-0.61,0.44-0.82c0.24-0.2,0.54-0.3,0.89-0.3c0.36,0,0.62,0.1,0.8,0.3
	c0.17,0.2,0.24,0.47,0.18,0.81l-0.27,1.71c-0.06,0.34-0.2,0.62-0.44,0.82C424.69,785.74,424.39,785.84,424.03,785.84z
	 M424.11,785.33c0.19,0,0.35-0.05,0.47-0.16c0.12-0.11,0.19-0.26,0.23-0.46l0.27-1.7c0.03-0.2,0.01-0.35-0.08-0.46
	c-0.08-0.11-0.22-0.16-0.41-0.16c-0.19,0-0.35,0.05-0.46,0.16c-0.12,0.1-0.19,0.26-0.22,0.46l-0.27,1.7
	c-0.03,0.2-0.01,0.35,0.08,0.46C423.79,785.28,423.92,785.33,424.11,785.33z M425.97,785.79l0.61-3.83h0.69l0.18,1.23
	c0.02,0.12,0.04,0.23,0.05,0.33c0.01,0.1,0.02,0.18,0.03,0.24c0.02-0.06,0.05-0.14,0.09-0.24c0.04-0.11,0.09-0.22,0.15-0.34
	l0.57-1.22h0.71l-0.61,3.83h-0.54l0.2-1.29c0.02-0.17,0.06-0.35,0.1-0.55c0.04-0.2,0.09-0.4,0.14-0.61c0.05-0.2,0.1-0.4,0.14-0.59
	c0.05-0.19,0.09-0.35,0.13-0.49l-0.86,1.86h-0.55l-0.28-1.86c0,0.14-0.01,0.29-0.02,0.47c-0.01,0.18-0.02,0.37-0.04,0.57
	c-0.02,0.2-0.04,0.41-0.06,0.61c-0.02,0.2-0.05,0.4-0.08,0.57l-0.2,1.29H425.97z M429.11,785.79l0.61-3.83h0.69l0.18,1.23
	c0.02,0.12,0.04,0.23,0.05,0.33c0.01,0.1,0.02,0.18,0.03,0.24c0.02-0.06,0.05-0.14,0.09-0.24c0.04-0.11,0.09-0.22,0.15-0.34
	l0.57-1.22h0.71l-0.61,3.83h-0.54l0.2-1.29c0.02-0.17,0.06-0.35,0.1-0.55c0.04-0.2,0.09-0.4,0.14-0.61c0.05-0.2,0.1-0.4,0.14-0.59
	c0.05-0.19,0.09-0.35,0.13-0.49l-0.86,1.86h-0.55l-0.28-1.86c0,0.14-0.01,0.29-0.02,0.47c-0.01,0.18-0.02,0.37-0.04,0.57
	c-0.02,0.2-0.04,0.41-0.06,0.61c-0.02,0.2-0.05,0.4-0.08,0.57l-0.2,1.29H429.11z M432.41,785.79l0.61-3.83h2.25l-0.08,0.5h-1.7
	l-0.17,1.09h1.51l-0.08,0.5h-1.51l-0.19,1.24h1.69l-0.08,0.5H432.41z M435.51,785.79l0.61-3.83h1.2c0.24,0,0.44,0.05,0.6,0.14
	c0.16,0.09,0.28,0.22,0.36,0.39c0.07,0.17,0.09,0.37,0.05,0.59c-0.04,0.26-0.14,0.48-0.3,0.67c-0.16,0.19-0.37,0.32-0.6,0.39
	l0.54,1.64h-0.62l-0.48-1.57h-0.54l-0.25,1.57H435.51z M436.4,783.71h0.64c0.19,0,0.35-0.06,0.48-0.17
	c0.13-0.11,0.21-0.26,0.24-0.45c0.03-0.19,0-0.35-0.09-0.46c-0.09-0.11-0.24-0.17-0.43-0.17h-0.64L436.4,783.71z M439.8,785.84
	c-0.36,0-0.63-0.1-0.81-0.3c-0.18-0.2-0.24-0.47-0.19-0.82l0.27-1.7c0.06-0.35,0.21-0.62,0.45-0.82s0.55-0.3,0.91-0.3
	c0.36,0,0.63,0.1,0.81,0.3c0.18,0.2,0.24,0.47,0.19,0.82h-0.57c0.03-0.2,0-0.35-0.09-0.46c-0.09-0.11-0.23-0.16-0.42-0.16
	c-0.19,0-0.35,0.05-0.47,0.16c-0.12,0.1-0.2,0.26-0.23,0.45l-0.27,1.71c-0.03,0.2,0,0.35,0.09,0.46c0.09,0.11,0.23,0.16,0.42,0.16
	s0.35-0.05,0.47-0.16c0.12-0.11,0.2-0.26,0.23-0.46h0.57c-0.03,0.23-0.11,0.43-0.24,0.59c-0.12,0.17-0.28,0.3-0.47,0.39
	C440.25,785.79,440.04,785.84,439.8,785.84z M441.88,785.79l0.08-0.5h0.78l0.45-2.82h-0.78l0.08-0.5h2.13l-0.08,0.5h-0.78
	l-0.45,2.82h0.78l-0.08,0.5H441.88z M444.74,785.79l1.59-3.83h0.75l0.37,3.83h-0.56l-0.07-0.97h-1.09l-0.39,0.97H444.74z
	 M445.9,784.34h0.87l-0.09-1.1c-0.02-0.2-0.03-0.37-0.04-0.51c-0.01-0.14-0.01-0.24-0.01-0.3c-0.02,0.06-0.05,0.16-0.1,0.3
	c-0.05,0.14-0.11,0.31-0.19,0.5L445.9,784.34z M448.24,785.79l0.61-3.83h0.57l-0.52,3.31h1.67l-0.08,0.52H448.24z M453.19,785.84
	c-0.37,0-0.63-0.1-0.8-0.3c-0.17-0.2-0.22-0.48-0.17-0.82l0.44-2.76h0.57l-0.44,2.76c-0.03,0.2-0.01,0.35,0.07,0.46
	c0.08,0.11,0.21,0.17,0.41,0.17c0.19,0,0.35-0.06,0.46-0.17c0.12-0.11,0.19-0.27,0.22-0.46l0.44-2.76h0.57l-0.44,2.76
	c-0.06,0.35-0.2,0.62-0.43,0.82C453.86,785.74,453.56,785.84,453.19,785.84z M456.36,785.84c-0.39,0-0.67-0.1-0.87-0.29
	c-0.19-0.19-0.26-0.45-0.22-0.78h0.57c-0.03,0.17,0.01,0.31,0.12,0.41c0.11,0.1,0.27,0.15,0.48,0.15c0.2,0,0.37-0.05,0.5-0.15
	s0.21-0.23,0.24-0.4c0.02-0.15,0-0.28-0.06-0.39c-0.06-0.11-0.16-0.18-0.29-0.22l-0.46-0.14c-0.27-0.08-0.46-0.22-0.59-0.41
	c-0.13-0.19-0.17-0.42-0.13-0.68c0.04-0.21,0.11-0.39,0.23-0.55c0.12-0.16,0.27-0.28,0.46-0.37c0.19-0.09,0.4-0.13,0.64-0.13
	c0.35,0,0.62,0.1,0.8,0.29c0.18,0.19,0.25,0.44,0.2,0.76h-0.57c0.03-0.17,0-0.3-0.09-0.4c-0.09-0.1-0.23-0.14-0.42-0.14
	c-0.19,0-0.34,0.04-0.46,0.13c-0.12,0.09-0.19,0.21-0.21,0.38c-0.02,0.15-0.01,0.28,0.05,0.39c0.06,0.11,0.16,0.18,0.29,0.22
	l0.47,0.15c0.26,0.08,0.46,0.22,0.58,0.41c0.12,0.19,0.17,0.42,0.12,0.69c-0.04,0.22-0.12,0.41-0.24,0.57
	c-0.13,0.16-0.29,0.29-0.49,0.38C456.82,785.79,456.6,785.84,456.36,785.84z M458.42,785.79l0.61-3.83h2.25l-0.08,0.5h-1.7
	l-0.17,1.09h1.51l-0.08,0.5h-1.51l-0.19,1.24h1.69l-0.08,0.5H458.42z"/>
<g>
	<path style="fill:#182865;" d="M400,50C206.7,50,50,206.7,50,400s156.7,350,350,350c193.22-0.2,349.8-156.78,350-350
		C750,206.7,593.3,50,400,50z M400,723.51c-178.7,0-323.56-144.86-323.56-323.56S221.3,76.4,400,76.4s323.56,144.86,323.56,323.56
		c0,0.02,0,0.03,0,0.05C723.36,578.61,578.61,723.34,400,723.51z"/>
	<path style="fill:#182865;" d="M586.92,222.69c11.99-8.1,8.01-14.73,0-14.73l-0.05-0.09h-75.66c3.02,4.57,0,9.93-7.14,14.73
		L179.64,441.4h82.85L586.92,222.69z"/>
	<path style="fill:#182865;" d="M670.19,247.48l0.13-0.08c-7.81-13.84-16.68-27.06-26.53-39.52h-0.22
		C586.73,135.93,498.79,89.71,400,89.71s-186.73,46.22-243.56,118.16h-0.04c-0.64,0.81-1.25,1.64-1.89,2.45
		c-1.31,1.69-2.64,3.37-3.92,5.09c-6.09,8.14-11.79,16.57-17.07,25.26h0.2C105.8,287.25,89.71,341.74,89.71,400
		c0.01,6.93,0.32,13.79,0.78,20.61l-0.09,0.06c0.46,6.95,1.14,13.86,2.06,20.72h0.13C112.98,593.09,242.76,710.11,400,710.29
		c157.32,0,287.21-117.11,307.46-268.89h0.09c0.16-1.23,0.24-2.48,0.39-3.71c0.44-3.64,0.83-7.3,1.14-10.98
		c0.18-2.08,0.34-4.15,0.47-6.23c0.23-3.49,0.38-7,0.5-10.52c0.05-1.46,0.18-2.92,0.21-4.38h-0.1c0.03-1.86,0.14-3.71,0.14-5.58
		C710.29,344.54,695.67,292.53,670.19,247.48z M102.93,400c0-58.65,17.06-113.28,46.4-159.33h185.76c8.1,0,12.08,6.63,0,14.73
		L103.23,412.01C103.07,408.02,102.93,404.03,102.93,400z M418.12,611.67v-2.38c0-2.53,2.05-4.57,4.57-4.57l1.83-0.25
		c0.71-1.73,2.53-3.14,4.4-3.14h3.61c1.93,0,3.55,1.21,4.22,2.9c0.49-0.52,1.01-0.99,1.58-1.39c1.17-0.85,2.56-1.54,4.04-1.97
		c1.66-0.42,3.02-0.63,4.74-0.59c1.64,0.01,3.4,0.22,5.11,0.77c1.73,0.56,3.31,1.52,4.6,2.79c0,0,0.01,0.01,0.02,0.02
		c0.25,0.25,0.44,0.55,0.67,0.83c0.42-0.38,0.84-0.76,1.32-1.06c1.42-0.84,2.81-1.39,4.27-1.72c1.51-0.34,3.05-0.47,4.71-0.47
		c1.12,0,2.49,0.1,3.8,0.35c1.52,0.37,2.73,0.84,3.84,1.47c0.7,0.4,1.33,0.91,1.91,1.48c0.6-0.71,1.25-1.36,1.99-1.88
		c1.19-0.87,2.58-1.55,4.05-1.97c1.66-0.42,2.99-0.63,4.74-0.59c1.68-0.02,3.41,0.22,5.12,0.77c1.75,0.59,3.31,1.54,4.57,2.76
		c0,0,0,0,0,0c1.28,1.24,2.29,2.78,2.9,4.46c0.61,1.79,0.89,3.54,0.88,5.31c0.05,1.92-0.23,3.96-0.85,5.92c-0.69,1.96-1.68,3.6-3,5
		c-1.46,1.48-3.17,2.54-5.03,3.17c-1.94,0.59-3.91,0.88-5.85,0.88c-1.13,0-2.26-0.1-3.37-0.29c-1.17-0.15-2.45-0.59-3.63-1.27
		c-0.53-0.29-1.04-0.66-1.52-1.08c-0.25,0.2-0.48,0.44-0.75,0.61c-1.3,0.83-2.74,1.43-4.25,1.78c-1.63,0.33-3.22,0.46-4.75,0.48
		c-0.12,0-0.24,0-0.37,0c-1.34,0-2.76-0.14-4.14-0.41c-1.36-0.19-2.84-0.73-4.18-1.55c-1.09-0.61-2.08-1.6-2.87-2.75
		c-0.12,0.13-0.2,0.29-0.32,0.42c-1.46,1.48-3.17,2.55-5.03,3.17c-1.88,0.61-3.76,0.86-5.73,0.88c-0.12,0-0.24,0-0.36,0
		c-0.99,0-2.1-0.11-3.19-0.32c-0.66-0.08-1.39-0.31-2.12-0.6c-0.79,0.65-1.76,1.09-2.87,1.09h-14.46c-2.53,0-4.57-2.05-4.57-4.57
		v-2.33c0-2.43,1.9-4.43,4.3-4.57v-1.01C420.16,616.24,418.12,614.2,418.12,611.67z M415.69,617.02v7.64c0,2.53-2.05,4.57-4.57,4.57
		h-21.96c-1.45,0-2.69-0.72-3.53-1.78c-1.06,0.63-2.21,1.17-3.47,1.49c-1.74,0.44-3.52,0.63-5.22,0.6c-0.18,0-0.37,0.01-0.55,0.01
		c-1.7,0-3.55-0.29-5.34-0.87c-1.17-0.36-2.28-0.92-3.34-1.58c-0.84,1.09-2.09,1.84-3.58,1.84h-5.31c-1.34,0-2.6-0.59-3.47-1.59
		l-0.32-0.38c-0.84,1.12-2.16,1.84-3.66,1.84h-10.15c-0.8,0-1.52-0.26-2.17-0.62c-0.34,0.08-0.66,0.21-1.03,0.21h-11.8
		c-0.45,0-0.85-0.13-1.26-0.25c-1.27,0.73-2.53,1.26-3.86,1.56c-1.41,0.32-2.87,0.48-4.33,0.48c-0.17,0-0.33,0-0.5,0h-2.22
		c-0.34,0-0.67-0.04-0.99-0.11l-1.65-0.37c-0.29-0.08-0.57-0.15-0.84-0.24c-0.54,0.22-1.13,0.34-1.74,0.34h-2.56
		c-2.53,0-4.57-2.05-4.57-4.57v-7.5c0-0.28,0.03-0.55,0.07-0.81c-0.39-0.46-0.73-0.96-1.02-1.51c-0.7-1.6-0.98-2.98-0.97-4.38
		c0.01-1.57,0.38-3.13,1.09-4.52c0.83-1.56,2-2.83,3.44-3.73c1.18-0.8,2.61-1.42,4.14-1.77c1.49-0.37,3.1-0.52,4.69-0.53
		c0.45-0.05,1.29-0.04,2.13,0.01c0.86,0.07,1.68,0.2,2.48,0.42c0.21,0.06,0.4,0.12,0.59,0.18c0.47-0.16,0.97-0.25,1.48-0.25h2.52
		c1.18,0,2.26,0.47,3.08,1.22c0.27-0.05,0.52-0.16,0.81-0.16h11.8c0.75,0,1.43,0.23,2.06,0.55c0.37-0.1,0.74-0.23,1.14-0.23h8.83
		c1.32,0,2.57,0.57,3.44,1.55l0.28,0.32c0.83-1.14,2.18-1.88,3.69-1.88h9.6c0.93,0,1.75,0.35,2.47,0.82
		c0.49-0.23,0.97-0.49,1.49-0.67c2.03-0.65,4.01-0.91,6.12-0.93h2.22c0.33,0,0.65,0.04,0.97,0.1l1.05,0.23
		c0.31,0.08,0.6,0.17,0.86,0.25c0.6-0.29,1.27-0.44,1.97-0.44h2.56c0.83,0,1.57,0.28,2.24,0.67c0.05,0,0.09-0.03,0.14-0.03h21.96
		c2.5,0,4.54,2.01,4.57,4.51l0.09,6.68c0.01,0.67-0.13,1.33-0.4,1.93C415.58,615.88,415.69,616.44,415.69,617.02z M533.58,665.26
		v-80.41c-0.31,0.06-0.59,0.18-0.91,0.18h-34.31c-2.53,0-4.57-2.05-4.57-4.57v-6.96c0-2.53,2.05-4.57,4.57-4.57h3.8
		c0.13,0,0.28,0,0.41,0c0.05,0,0.13,0,0.21,0l0.06-33.11c-0.19,0-0.39-0.01-0.59-0.01h-3.9c-0.9,0-1.68-0.32-2.39-0.77
		c-0.75,0.64-1.67,1.09-2.73,1.13c-1.28,0.05-2.55,0.22-3.77,0.49c-0.41,0.08-0.65,0.18-0.85,0.34c-0.05,0.05-0.23,0.26-0.37,0.5
		c-0.17,0.29-0.33,0.57-0.46,0.86c0,0,0,0.01,0,0.01c0.02,0.29,0.02,0.57,0,0.84c0,0.11,0,0.21-0.01,0.31
		c0.02,0.32,0.02,0.56,0.01,0.78c0,0.22,0,0.46-0.01,0.58c-0.04,0.54-0.17,1.07-0.4,1.57l-18.3,40.26
		c-0.74,1.63-2.37,2.68-4.16,2.68h-14.5c-1.78,0-3.4-1.03-4.15-2.65l-11.58-24.96v22.9c0,2.53-2.05,4.57-4.57,4.57h-63.36
		c-2.05,0-3.72-1.37-4.3-3.22c-0.45,2.06-2.2,3.64-4.39,3.64h-65.83c-2.52,0-4.55-2.03-4.57-4.55c-0.57,1.88-2.25,3.27-4.3,3.27
		h-16.93v80.86c-85.18-42.97-146.86-125.69-160.56-223.86h36.59c0,0,316.38-213.4,326.17-219.81c8.51-5.67,4.8-13.72-3.29-13.72
		h-0.14H173.51c25.63-30.19,57.24-55.11,92.92-73.13v68.55h198.9c5.97,0,10.79,3.17,12.28,8.07c1.18,3.92,0.11,9.66-6.45,14.03
		c-5.64,3.69-114.35,76.97-204.73,137.91v14.04l235.09-158.55c1.33-0.89,7.82-5.48,5.87-8.42c-0.92-1.4-1.01-3.21-0.21-4.69
		c0.8-1.48,2.35-2.41,4.03-2.41h22.37V134.7c38.24,19.31,71.78,46.59,98.33,79.74c-1.12,2.74-3.74,5.53-7.62,8.16L299.63,441.4
		h394.5C680.44,539.57,618.76,622.29,533.58,665.26z M696.93,405.58l-239.29-0.09c-8.1,0-12.08-6.59,0-14.68L659.2,254.89
		c24.08,42.92,37.87,92.39,37.87,145.11C697.07,401.87,696.97,403.71,696.93,405.58z"/>
	<path style="fill:#182865;" d="M269.17,553.75c-0.57,2.98-1.54,5.88-2.88,8.6c-1.59,2.54-4.13,4.35-7.04,5.03
		c-8.48,1.2-17.05,1.67-25.62,1.42h-17.57l67.7-66.15v-12.72h-99.13l0.32,30.15l12.72,0.27c0.04-0.43,0.03-0.85,0-1.28
		c0.34-4.43,1.77-8.7,4.16-12.44c1.46-1.8,3.5-3.04,5.76-3.52c3.67-0.92,7.43-1.41,11.21-1.46h33.58l-71.13,67.29v10.89h102.1
		l1.05-31.56h-15.23V553.75z"/>
	<path style="fill:#182865;" d="M348.58,564.64c-0.39,1.87-1.19,3.64-2.33,5.17c-0.96,1.32-2.28,2.33-3.8,2.93
		c-1.77,0.71-3.67,1.06-5.58,1.01h-0.32h-18.3v-18.3h6.59c1.24-0.03,2.49,0.08,3.71,0.32c0.81,0.09,1.58,0.43,2.2,0.96
		c0.56,0.51,0.94,1.18,1.1,1.92c0.26,1.03,0.38,2.09,0.37,3.16v3.39h8.69v-26.94h-8.69v3.16c0.02,1.08-0.12,2.16-0.41,3.2
		c-0.17,0.78-0.57,1.5-1.14,2.06c-0.58,0.5-1.27,0.84-2.01,1.01c-1.02,0.24-2.06,0.35-3.11,0.32h-0.5h-6.59v-16.42h17.02
		c2.55-0.08,5.1,0.25,7.55,0.96c1.65,0.43,3.08,1.48,3.98,2.93c0.76,1.45,1.34,2.99,1.74,4.57c0.49,2,0.81,4.03,0.96,6.08h8.55
		v-21.23h-66.01v7h5.03c0.83-0.01,1.66,0.08,2.47,0.27c0.56,0.1,1.09,0.32,1.56,0.64c0.4,0.3,0.7,0.72,0.87,1.19
		c0.23,0.54,0.33,1.11,0.32,1.69v34.77c0.03,0.64-0.08,1.28-0.32,1.88c-0.16,0.47-0.47,0.89-0.87,1.19
		c-0.39,0.3-0.84,0.52-1.33,0.64c-0.68,0.08-1.37,0.08-2.06,0h-0.27c-0.12,0.04-0.25,0.04-0.37,0h-5.03v6.95h65.83l0.46-24.25h-9.15
		C349.39,559.47,349.13,562.08,348.58,564.64z"/>
	<path style="fill:#182865;" d="M420.27,562.63c-0.33,1.94-0.87,3.84-1.6,5.67c-0.85,1.78-2.36,3.16-4.21,3.84
		c-2.63,0.91-5.41,1.28-8.19,1.1l-13.31,0.46v-38.06c-0.01-0.64,0.08-1.27,0.27-1.88c0.16-0.47,0.47-0.89,0.87-1.19
		c0.48-0.33,1.03-0.55,1.6-0.64c0.81-0.2,1.64-0.36,2.47-0.46h5.86v-7h-37.19v7h5.03c0.83-0.01,1.66,0.08,2.47,0.27
		c0.56,0.1,1.09,0.32,1.56,0.64c0.4,0.31,0.72,0.72,0.91,1.19c0.18,0.55,0.28,1.12,0.27,1.69v34.77c0.02,0.64-0.08,1.27-0.27,1.88
		c-0.2,0.47-0.51,0.88-0.91,1.19c-0.39,0.3-0.84,0.52-1.33,0.64c-0.67,0.07-1.34,0.07-2.01,0h-0.41c-0.12,0.04-0.25,0.04-0.37,0
		h-5.03v6.95h63.36v-24.84h-9.15C420.92,558.13,420.69,560.39,420.27,562.63z"/>
	<path style="fill:#182865;" d="M464.46,531.61h5.03c0.61-0.05,1.22-0.05,1.83,0c0.41,0.1,0.8,0.27,1.14,0.5
		c0.31,0.2,0.57,0.49,0.73,0.82c0.15,0.36,0.23,0.75,0.23,1.14c0.02,0.23,0.02,0.46,0,0.69c-0.05,0.27-0.12,0.53-0.23,0.78
		c-0.08,0.35-0.2,0.69-0.37,1.01c-0.16,0.44-0.36,0.87-0.59,1.28l-13.4,27.63l-12.85-29.55c0-0.32,0-0.32,0-0.32
		c-0.02-0.07-0.02-0.15,0-0.23V535c-0.03-0.14-0.03-0.28,0-0.41c-0.03-0.14-0.03-0.28,0-0.41v-0.37c0-0.3,0.08-0.6,0.23-0.87
		c0.19-0.27,0.44-0.49,0.73-0.64c0.43-0.15,0.87-0.26,1.33-0.32l2.06-0.27h4.57v-7.27h-35.32v7.46h3.39
		c0.81,0.06,1.62,0.17,2.42,0.32c0.6,0.19,1.17,0.47,1.69,0.82c0.58,0.44,1.09,0.96,1.51,1.56c0.11,0.26,0.25,0.5,0.41,0.73
		l0.55,0.87c0.13,0.34,0.29,0.68,0.46,1.01c0.21,0.31,0.41,0.63,0.59,0.96l19.81,42.68h14.5l18.3-40.26c0.01-0.12,0.01-0.24,0-0.37
		c0.01-0.15,0.01-0.31,0-0.46c-0.02-0.14-0.02-0.27,0-0.41c0.02-0.12,0.02-0.24,0-0.37c0.02-0.12,0.02-0.25,0-0.37
		c-0.04-0.13-0.04-0.28,0-0.41c-0.02-0.12-0.02-0.24,0-0.37v-0.37c0.29-0.8,0.66-1.56,1.1-2.29c0.4-0.67,0.91-1.28,1.51-1.78
		c0.78-0.6,1.69-1.01,2.65-1.19c1.5-0.33,3.04-0.53,4.57-0.59v-7.27h-28.59V531.61z"/>
	<path style="fill:#182865;" d="M526.03,573.51c-0.57-0.1-1.1-0.33-1.56-0.69c-0.4-0.33-0.72-0.75-0.91-1.24
		c-0.2-0.65-0.29-1.33-0.27-2.01v-34.4c-0.01-0.64,0.08-1.27,0.27-1.88c0.2-0.47,0.51-0.88,0.91-1.19c0.47-0.32,1-0.54,1.56-0.64
		c0.81-0.2,1.64-0.35,2.47-0.46h4.16v-7h-34.31v7.23h3.8c0.83-0.02,1.66,0.07,2.47,0.27c0.57,0.1,1.12,0.31,1.6,0.64
		c0.4,0.3,0.7,0.72,0.87,1.19c0.2,0.54,0.31,1.11,0.32,1.69v34.77c0,0.64-0.11,1.27-0.32,1.88c-0.16,0.47-0.47,0.89-0.87,1.19
		c-0.41,0.3-0.88,0.52-1.37,0.64c-0.67,0.08-1.34,0.08-2.01,0h-0.27c-0.13,0.04-0.28,0.04-0.41,0h-3.8v6.95h34.31v-6.95h-4.16
		C527.68,573.62,526.85,573.62,526.03,573.51z"/>
	<path style="fill:#182865;" d="M567.7,573.28h-2.84h-2.74l-1.56-0.27c-0.36-0.09-0.68-0.32-0.87-0.64c-0.07-0.35-0.07-0.7,0-1.05
		c-0.02-0.32-0.02-0.64,0-0.96c0.23-0.32,0.23-0.64,0.23-1.01l0.32-1.01c0.09-0.36,0.25-0.7,0.46-1.01c0-0.27,0-0.27,0-0.27
		c0-0.23,0,0,0-0.23c0-0.23,0-0.23,0-0.23v-0.5c0.1-0.15,0.18-0.32,0.23-0.5c0.14-0.22,0.26-0.45,0.37-0.69
		c0.01-0.21,0.01-0.43,0-0.64c0.02-0.12,0.02-0.24,0-0.37c0.09-0.13,0.16-0.27,0.23-0.41c-0.04-0.12-0.04-0.25,0-0.37v-0.41
		l24.02,0.96c0.12,0.2,0.23,0.42,0.32,0.64l0.37,0.73c0.15,0.21,0.27,0.44,0.37,0.69l0.41,0.82c-0.02,0.14-0.02,0.28,0,0.41
		c0,0.37,0,0.37,0,0.37v0.32l0.23,0.32c0.11,0.39,0.25,0.77,0.41,1.14c0.18,0.37,0.18,0.64,0.46,1.05c0.27,0.41,0.27,0.78,0.27,1.1
		c0.02,0.29,0.02,0.58,0,0.87c0.02,0.36-0.09,0.72-0.32,1.01c-0.28,0.32-0.64,0.56-1.05,0.69c-0.43,0.14-0.88,0.25-1.33,0.32
		c-0.61,0.05-1.22,0.05-1.83,0h-0.78h-0.32h-3.39v7.09h35.82v-6.95c-1.32,0.03-2.63-0.05-3.93-0.23c-0.93-0.13-1.83-0.42-2.65-0.87
		c-0.7-0.38-1.35-0.86-1.92-1.42c-0.62-0.67-1.17-1.41-1.65-2.2l-0.27-0.41c-0.02-0.15-0.02-0.31,0-0.46
		c-0.13-0.15-0.22-0.32-0.27-0.5c-0.08-0.18-0.19-0.35-0.32-0.5c0.03-0.17,0.03-0.34,0-0.5c-0.1-0.19-0.18-0.39-0.23-0.59
		c-0.12-0.17-0.23-0.36-0.32-0.55c-0.06-0.25-0.15-0.5-0.27-0.73l-20.13-40.58h-14.68l-17.02,37.19c-0.12,0.34-0.25,0.68-0.41,1.01
		c-0.15,0.33-0.33,0.63-0.55,0.91c-0.05,0.18-0.13,0.35-0.23,0.5c-0.01,0.15-0.01,0.31,0,0.46l-0.32,0.46
		c-0.07,0.17-0.16,0.32-0.27,0.46c0.02,0.11,0.02,0.21,0,0.32c0.02,0.12,0.02,0.24,0,0.37v0.41c-0.02,0.11-0.02,0.21,0,0.32
		l-0.41,0.73l-0.37,0.82c-0.5,0.95-1.14,1.83-1.88,2.61c-0.55,0.63-1.24,1.14-2.01,1.46c-0.74,0.21-1.48,0.38-2.24,0.5
		c-0.96,0.05-1.92,0.05-2.88,0h-0.73h-0.23v7.09h28.73V573.28z M572.83,536.32l9.15,16.97h-17.29L572.83,536.32z"/>
	<path style="fill:#182865;" d="M296.71,508.23c0.07,0.25,0.07,0.52,0,0.78c-0.05,0.21-0.18,0.39-0.37,0.5l-0.64,0.27h-3.52v3.06
		h17.52v-2.93h-4.25l-0.73-0.27c-0.17-0.13-0.32-0.31-0.41-0.5c-0.05-0.27-0.05-0.55,0-0.82v-6.13h2.84c0.53-0.06,1.07-0.06,1.6,0
		c0.33,0.06,0.65,0.2,0.91,0.41c0.22,0.23,0.38,0.51,0.46,0.82c0.05,0.47,0.05,0.95,0,1.42v1.37h3.93v-11.12h-3.93v1.28
		c0.06,0.44,0.06,0.89,0,1.33c-0.07,0.3-0.23,0.57-0.46,0.78c-0.25,0.17-0.53,0.3-0.82,0.37h-1.33h-3.2v-6.77h7.46
		c1.09-0.04,2.17,0.12,3.2,0.46c0.7,0.19,1.29,0.65,1.65,1.28c0.28,0.64,0.51,1.29,0.69,1.97c0.07,0.81,0.07,1.62,0,2.42h4.21v-8.83
		h-29.32v2.93h2.29c0.38-0.05,0.76-0.05,1.14,0c0.26,0.03,0.52,0.12,0.73,0.27c0.18,0.11,0.31,0.29,0.37,0.5
		c0.07,0.22,0.07,0.46,0,0.69V508.23z"/>
	<path style="fill:#182865;" d="M347.44,495.65c0.41,0.86,0.66,1.79,0.73,2.74h4.3l0.09-9.79h-3.52l-0.96,2.01l-0.78-0.41
		l-0.69-0.37l-0.73-0.37l-0.69-0.32l-1.37-0.46c-0.46-0.14-0.94-0.23-1.42-0.27h-1.51h-1.65c-2.11-0.04-4.21,0.26-6.22,0.87
		c-1.81,0.58-3.5,1.48-4.99,2.65c-2.81,2.19-4.4,5.59-4.3,9.15c-0.01,1.67,0.35,3.33,1.05,4.85c0.79,1.52,1.9,2.84,3.25,3.89
		c1.46,1.15,3.12,2.04,4.89,2.61c1.96,0.57,4,0.84,6.04,0.82c1.83,0.01,3.66-0.2,5.44-0.64c1.54-0.37,3-1.02,4.3-1.92
		c1.21-0.83,2.22-1.9,2.97-3.16c0.77-1.32,1.26-2.78,1.46-4.3h-4.57c-0.2,0.99-0.57,1.93-1.1,2.79c-0.44,0.81-1.05,1.51-1.78,2.06
		c-0.73,0.59-1.57,1.02-2.47,1.28c-1,0.26-2.03,0.4-3.06,0.41c-1.24,0.01-2.48-0.19-3.66-0.59c-1.03-0.38-1.96-0.97-2.74-1.74
		c-0.76-0.82-1.32-1.81-1.65-2.88c-0.38-1.24-0.57-2.54-0.55-3.84c-0.03-1.26,0.18-2.52,0.59-3.71c0.36-1.05,0.96-2,1.74-2.79
		c0.76-0.81,1.7-1.42,2.74-1.78c1.14-0.42,2.35-0.62,3.57-0.59c1.07-0.02,2.13,0.12,3.16,0.41c0.89,0.28,1.71,0.73,2.42,1.33
		C346.49,494.15,347.05,494.85,347.44,495.65z"/>
	<path style="fill:#182865;" d="M411.48,493.46c-0.06-0.26-0.06-0.52,0-0.78c0.07-0.2,0.2-0.38,0.37-0.5
		c0.23-0.13,0.47-0.23,0.73-0.27h1.14h2.33v-2.93h-13.72l-7.41,14.41l-7.64-14h-14.41v2.93h2.29c0.36-0.05,0.73-0.05,1.1,0
		c0.26,0.05,0.51,0.14,0.73,0.27c0.18,0.12,0.33,0.3,0.41,0.5c0.05,0.23,0.05,0.46,0,0.69v14.46c0.05,0.26,0.05,0.52,0,0.78
		c-0.08,0.21-0.23,0.38-0.41,0.5l-0.59,0.27h-3.52v2.84h13.72v-2.88h-2.06h-1.1c-0.27-0.02-0.52-0.11-0.73-0.27
		c-0.17-0.13-0.32-0.31-0.41-0.5c-0.05-0.27-0.05-0.55,0-0.82v-13.72l9.15,18.3h3.34l9.15-17.89v13.4c0.05,0.26,0.05,0.52,0,0.78
		c-0.08,0.21-0.23,0.38-0.41,0.5l-0.59,0.27h-3.52v2.47h16.61v-2.88h-2.29h-1.14c-0.26-0.03-0.52-0.12-0.73-0.27
		c-0.16-0.14-0.29-0.31-0.37-0.5c-0.05-0.27-0.05-0.55,0-0.82V493.46z"/>
	<path style="fill:#182865;" d="M438.24,506.68c0,0.14,0,0.37,0,0.37c-0.03,0.15-0.03,0.31,0,0.46c-0.01,0.15-0.01,0.31,0,0.46
		c0.04,0.15,0.04,0.31,0,0.46c0.03,0.12,0.03,0.25,0,0.37c0.04,0.13,0.04,0.28,0,0.41l-0.46,0.27h-0.64h-2.84v2.97h14.87v-2.88
		c-0.59,0.06-1.19,0.06-1.78,0c-0.42-0.05-0.84-0.16-1.24-0.32c-0.3-0.17-0.57-0.37-0.82-0.59c-0.28-0.28-0.54-0.59-0.78-0.91
		c0-0.23,0-0.23,0-0.23v-0.23c0.02-0.11,0.02-0.21,0-0.32l-9.15-16.88h-6.68l-7.78,15.46v0.46v0.37v0.23v0.27
		c-0.02,0.12-0.02,0.24,0,0.37c-0.24,0.39-0.52,0.76-0.82,1.1c-0.29,0.25-0.61,0.45-0.96,0.59h-1.01h-1.33h-0.41v2.97h13.08v-2.97
		h-1.28h-1.28h-0.69c-0.16-0.05-0.3-0.15-0.41-0.27c-0.03-0.15-0.03-0.31,0-0.46c-0.02-0.12-0.02-0.24,0-0.37
		c-0.02-0.14-0.02-0.28,0-0.41v-0.46c-0.02-0.14-0.02-0.28,0-0.41v-0.32v-0.23c0-0.23,0,0.05,0-0.23s0,0,0-0.27
		c0-0.27,0-0.27,0-0.27l12.4,0.87v0.32V506.68z M427.22,502.2l3.75-7.73l4.16,7.73H427.22z"/>
	<path style="fill:#182865;" d="M453.39,509.84c1.46,1.16,3.12,2.05,4.89,2.61c1.96,0.57,4,0.85,6.04,0.82
		c1.83,0.01,3.66-0.21,5.44-0.64c1.54-0.38,2.99-1.03,4.3-1.92c1.19-0.84,2.2-1.91,2.97-3.16c0.77-1.32,1.26-2.78,1.46-4.3h-4.57
		c-0.2,0.99-0.57,1.93-1.1,2.79c-0.47,0.79-1.07,1.48-1.78,2.06c-0.74,0.6-1.6,1.03-2.52,1.28c-0.99,0.26-2,0.4-3.02,0.41
		c-1.24,0.01-2.48-0.19-3.66-0.59c-1.03-0.38-1.96-0.97-2.74-1.74c-0.76-0.82-1.32-1.81-1.65-2.88c-0.38-1.24-0.57-2.54-0.55-3.84
		c-0.02-1.26,0.17-2.51,0.55-3.71c0.4-1.04,1-1.99,1.78-2.79c0.75-0.82,1.69-1.43,2.74-1.78c1.14-0.42,2.35-0.62,3.57-0.59
		c1.07-0.01,2.13,0.13,3.16,0.41c0.89,0.28,1.71,0.73,2.42,1.33c0.67,0.58,1.23,1.28,1.65,2.06c0.41,0.86,0.66,1.79,0.73,2.74h4.25
		v-9.79h-3.43l-0.96,2.01l-0.73-0.41l-0.73-0.37l-0.69-0.37l-0.69-0.32l-1.42-0.46c-0.45-0.14-0.91-0.23-1.37-0.27h-1.51h-1.65
		c-2.12-0.04-4.24,0.26-6.27,0.87c-1.8,0.57-3.47,1.47-4.94,2.65c-2.81,2.19-4.4,5.59-4.3,9.15c-0.04,1.68,0.32,3.34,1.05,4.85
		C450.91,507.47,452.02,508.8,453.39,509.84z"/>
	<path style="fill:#182865;" d="M513.08,493.87c-0.06-0.26-0.06-0.52,0-0.78c0.08-0.19,0.21-0.36,0.37-0.5
		c0.23-0.13,0.48-0.22,0.73-0.27h1.14h2.29v-2.93h-16.19v2.93h1.88c0.38-0.05,0.76-0.05,1.14,0c0.26,0.06,0.5,0.15,0.73,0.27
		c0.16,0.14,0.28,0.31,0.37,0.5c0.05,0.23,0.05,0.46,0,0.69v5.12h-11.71v-5.03c-0.06-0.26-0.06-0.52,0-0.78
		c0.08-0.19,0.21-0.36,0.37-0.5c0.23-0.13,0.48-0.22,0.73-0.27h1.14h1.78v-2.93h-16.19v2.93h2.29c0.38-0.05,0.76-0.05,1.14,0
		c0.24,0.05,0.48,0.14,0.69,0.27c0.19,0.12,0.33,0.3,0.41,0.5c0.05,0.23,0.05,0.46,0,0.69v14.46c0.05,0.26,0.05,0.52,0,0.78
		c-0.08,0.21-0.23,0.38-0.41,0.5l-0.59,0.27h-3.52v2.65h16.19v-2.88h-1.88h-1.14c-0.26-0.03-0.51-0.13-0.73-0.27
		c-0.15-0.15-0.27-0.32-0.37-0.5c-0.05-0.27-0.05-0.55,0-0.82v-6.08l11.8,0.23v6.13c0.05,0.26,0.05,0.52,0,0.78
		c-0.08,0.19-0.21,0.36-0.37,0.5l-0.64,0.27h-3.11v2.88h16.19v-2.88h-2.29h-1.14c-0.26-0.03-0.51-0.13-0.73-0.27
		c-0.15-0.15-0.27-0.32-0.37-0.5c-0.05-0.27-0.05-0.55,0-0.82V493.87z"/>
	<path style="fill:#182865;" d="M521.23,492.36h2.29c0.38-0.05,0.76-0.05,1.14,0c0.25,0.03,0.49,0.12,0.69,0.27
		c0.18,0.12,0.33,0.3,0.41,0.5c0.05,0.23,0.05,0.46,0,0.69v14.46c0.05,0.26,0.05,0.52,0,0.78c-0.08,0.21-0.23,0.38-0.41,0.5
		c-0.18,0.13-0.38,0.21-0.59,0.23c-0.3,0.05-0.61,0.05-0.91,0h-2.61v2.47h16.01v-2.88h-1.88h-1.1c-0.26-0.03-0.52-0.12-0.73-0.27
		c-0.19-0.12-0.33-0.3-0.41-0.5c-0.06-0.29-0.06-0.58,0-0.87v-14.27c-0.06-0.26-0.06-0.52,0-0.78c0.08-0.21,0.23-0.38,0.41-0.5
		c0.22-0.15,0.47-0.25,0.73-0.27h1.1h1.88v-2.93h-16.01V492.36z"/>
	<path style="fill:#182865;" d="M543.6,492.31c0.36-0.05,0.73-0.05,1.1,0c0.26,0.03,0.52,0.12,0.73,0.27
		c0.18,0.12,0.33,0.3,0.41,0.5c0.05,0.23,0.05,0.46,0,0.69v14.46c0.05,0.26,0.05,0.52,0,0.78c-0.08,0.21-0.23,0.38-0.41,0.5
		l-0.64,0.27h-3.52v2.56h18.3c2,0.02,3.99-0.26,5.9-0.82c1.68-0.51,3.24-1.37,4.57-2.52c1.25-1.04,2.25-2.36,2.93-3.84
		c0.7-1.58,1.04-3.3,1.01-5.03c-0.01-1.57-0.3-3.12-0.87-4.57c-0.61-1.38-1.53-2.6-2.7-3.57c-1.26-1-2.71-1.75-4.25-2.2
		c-1.81-0.53-3.69-0.81-5.58-0.82h-19.49l0.18,3.34H543.6z M552.84,492.18h4.12c1.42-0.03,2.84,0.15,4.21,0.55
		c1.03,0.29,1.97,0.86,2.7,1.65c0.68,0.73,1.2,1.61,1.51,2.56c0.34,1.08,0.51,2.21,0.5,3.34c0.07,0.79,0.07,1.59,0,2.38
		c-0.07,0.67-0.22,1.33-0.46,1.97c-0.21,0.58-0.47,1.15-0.78,1.69c-0.33,0.5-0.69,0.98-1.1,1.42c-0.37,0.33-0.76,0.62-1.19,0.87
		c-0.42,0.27-0.89,0.47-1.37,0.59l-1.56,0.27c-0.69,0.05-1.37,0.05-2.06,0h-0.59l-3.93,0.18V492.18z"/>
	<path style="fill:#182865;" d="M573.83,511.57h14.32v-2.97h-1.28h-1.23h-0.73c-0.31-0.1-0.52-0.4-0.5-0.73c0-0.09,0-0.37,0-0.37
		c0.02-0.14,0.02-0.28,0-0.41v-0.46c-0.02-0.14-0.02-0.28,0-0.41v-0.23v-0.23v-0.27v-0.27l9.88,0.55c0,0.09,0,0.32,0,0.32v0.27v0.37
		c-0.01,0.15-0.01,0.3,0,0.46l0.23,0.46v0.46c0.03,0.12,0.03,0.25,0,0.37c0.05,0.13,0.05,0.28,0,0.41l-0.46,0.27h-0.59h-2.88v2.97
		h16.33v-2.88c-0.61,0.05-1.22,0.05-1.83,0c-0.41-0.05-0.81-0.15-1.19-0.32c-0.67-0.35-1.24-0.87-1.65-1.51v-0.23v-0.23
		c0.03-0.1,0.03-0.22,0-0.32l-9.15-16.88h-6.72l-7.73,15.46c-0.01,0.15-0.01,0.3,0,0.46l-0.27,0.37c0.01,0.08,0.01,0.15,0,0.23v0.27
		c0.02,0.12,0.02,0.24,0,0.37c-0.21,0.41-0.49,0.78-0.82,1.1c-0.26,0.25-0.57,0.46-0.91,0.59h-1.05h-1.28h-0.46V511.57z
		 M589.57,494.46l4.12,7.73h-7.87L589.57,494.46z"/>
	<path style="fill:#182865;" d="M322.92,615.78c-0.75-0.38-1.53-0.7-2.33-0.96c-0.84-0.26-1.7-0.48-2.56-0.64h-1.1h-0.5h-0.5
		l-1.92-0.37l-1.65-0.46c-0.43-0.11-0.81-0.35-1.1-0.69c-0.27-0.24-0.42-0.6-0.41-0.96c-0.01-0.36,0.11-0.72,0.32-1.01
		c0.23-0.31,0.52-0.56,0.87-0.73c0.45-0.23,0.93-0.4,1.42-0.5c0.58-0.05,1.16-0.05,1.74,0h0.37c0.46,0.03,0.92,0.11,1.37,0.23
		c0.46,0.1,0.9,0.26,1.33,0.46c0.4,0.18,0.78,0.39,1.14,0.64c0.33,0.25,0.63,0.53,0.91,0.82c-0.01,0.12-0.01,0.24,0,0.37
		c0.05,0.13,0.05,0.28,0,0.41c-0.02,0.09-0.02,0.18,0,0.27c0,0.27,0,0.27,0,0.27h2.97l-0.96-7.5h-2.52l-0.46,1.28
		c-0.43-0.32-0.89-0.59-1.37-0.82c-0.46-0.22-0.93-0.41-1.42-0.55c-0.54-0.14-1.09-0.23-1.65-0.27c-0.61-0.05-1.22-0.05-1.83,0
		c-1.22-0.01-2.43,0.13-3.61,0.41c-0.98,0.23-1.91,0.63-2.74,1.19c-0.75,0.47-1.37,1.14-1.78,1.92c-0.39,0.77-0.59,1.61-0.59,2.47
		c0,0.77,0.15,1.53,0.46,2.24c0.31,0.6,0.79,1.09,1.37,1.42c0.63,0.37,1.31,0.66,2.01,0.87c0.82,0.28,1.66,0.48,2.52,0.59l3.25,0.69
		h0.73h0.69h0.59h0.5c0.33,0.08,0.65,0.19,0.96,0.32l0.55,0.37c0.12,0.13,0.22,0.29,0.27,0.46c0.03,0.23,0.03,0.46,0,0.69
		c0,0.33-0.09,0.64-0.27,0.91c-0.25,0.29-0.54,0.54-0.87,0.73c-0.42,0.22-0.87,0.39-1.33,0.5c-0.53,0.05-1.07,0.05-1.6,0
		c-0.58,0.05-1.16,0.05-1.74,0l-1.6-0.41c-0.48-0.17-0.94-0.4-1.37-0.69c-0.37-0.2-0.69-0.46-0.96-0.78c0-0.27,0-0.27,0-0.27v-0.46
		v-0.5h-2.24v7.5h2.56l0.64-1.42c0.42,0.35,0.88,0.64,1.37,0.87c0.5,0.23,1.02,0.41,1.56,0.55l1.65,0.37h1.65h0.69
		c1.25,0.03,2.49-0.09,3.71-0.37c0.99-0.22,1.93-0.61,2.79-1.14c0.71-0.47,1.3-1.12,1.69-1.88c0.42-0.8,0.62-1.7,0.59-2.61
		c0.02-0.83-0.16-1.65-0.55-2.38C324.21,616.6,323.62,616.09,322.92,615.78z"/>
	<path style="fill:#182865;" d="M326.21,609.06h1.65h0.82h0.55c0.14,0.1,0.24,0.24,0.27,0.41c0.05,0.16,0.05,0.34,0,0.5v10.7
		c0.05,0.2,0.05,0.4,0,0.59c-0.05,0.15-0.15,0.28-0.27,0.37h-0.46h-0.69h-1.88v2.2h11.8v-2.2h-2.2c-0.17,0.03-0.34,0.03-0.5,0
		c-0.14-0.1-0.24-0.25-0.27-0.41c-0.06-0.21-0.06-0.43,0-0.64V609.7c-0.05-0.18-0.05-0.37,0-0.55c0.04-0.17,0.13-0.31,0.27-0.41h0.5
		c0.27-0.03,0.55-0.03,0.82,0h1.37v-2.24h-11.8V609.06z"/>
	<path style="fill:#182865;" d="M367.06,609.06v-2.24h-9.61v2.24h1.51h0.82h0.5c0.14,0.1,0.24,0.24,0.27,0.41
		c0.05,0.16,0.05,0.34,0,0.5v8.83l-10.52-11.99h-8.83v2.24h1.65h0.82h0.55c0.14,0.1,0.24,0.24,0.27,0.41c0.03,0.17,0.03,0.34,0,0.5
		v11.12c0.03,0.2,0.03,0.4,0,0.59c-0.05,0.15-0.15,0.28-0.27,0.37h-0.46h-0.69h-1.88v2.2h10.16v-2.2h-2.47
		c-0.18,0.03-0.37,0.03-0.55,0c-0.14-0.1-0.24-0.25-0.27-0.41c-0.05-0.21-0.05-0.43,0-0.64v-9.15l10.75,12.53h5.31v-14.36
		c-0.03-0.18-0.03-0.37,0-0.55c0.07-0.16,0.18-0.3,0.32-0.41h0.5c0.27-0.03,0.55-0.03,0.82,0H367.06z"/>
	<path style="fill:#182865;" d="M383.35,619.49c-0.33,0.59-0.76,1.12-1.28,1.56c-0.54,0.44-1.16,0.77-1.83,0.96
		c-0.72,0.23-1.48,0.34-2.24,0.32c-0.91,0.02-1.81-0.13-2.65-0.46c-0.77-0.27-1.46-0.73-2.01-1.33c-0.56-0.62-0.96-1.35-1.19-2.15
		c-0.29-0.96-0.43-1.97-0.41-2.97c-0.01-0.95,0.13-1.89,0.41-2.79c0.27-0.78,0.71-1.5,1.28-2.1c0.53-0.63,1.23-1.11,2.01-1.37
		c0.83-0.33,1.72-0.48,2.61-0.46c0.77-0.02,1.55,0.09,2.29,0.32c0.65,0.22,1.26,0.56,1.78,1.01c0.51,0.44,0.92,0.99,1.19,1.6
		c0.29,0.65,0.48,1.35,0.55,2.06h3.11l-0.18-7.5h-2.56l-0.69,1.56l-0.59-0.32l-0.5-0.27l-0.5-0.27l-0.5-0.23
		c-0.32-0.15-0.66-0.28-1.01-0.37l-1.05-0.23h-1.1h-1.19c-1.55-0.02-3.1,0.21-4.57,0.69c-1.32,0.45-2.54,1.13-3.61,2.01
		c-2.03,1.76-3.18,4.32-3.16,7c-0.01,1.28,0.27,2.55,0.82,3.71c0.57,1.14,1.36,2.15,2.33,2.97c1.05,0.87,2.26,1.52,3.57,1.92
		c1.48,0.48,3.02,0.69,4.57,0.64c1.34,0.02,2.68-0.13,3.98-0.46c1.14-0.3,2.21-0.81,3.16-1.51c0.89-0.62,1.62-1.43,2.15-2.38
		c0.58-1.01,0.96-2.13,1.1-3.29h-3.29C383.99,618.09,383.72,618.82,383.35,619.49z"/>
	<path style="fill:#182865;" d="M403.61,608.87c0.85-0.03,1.69,0.07,2.52,0.27c0.54,0.15,1.02,0.49,1.33,0.96
		c0.25,0.46,0.44,0.95,0.55,1.46c0.18,0.62,0.29,1.27,0.32,1.92h2.88l-0.09-6.68h-21.96v2.24h1.69h0.82h0.5
		c0.14,0.1,0.24,0.24,0.27,0.41c0.05,0.16,0.05,0.34,0,0.5v11.53c0.05,0.2,0.05,0.4,0,0.59c-0.05,0.15-0.15,0.28-0.27,0.37
		c-0.15,0.02-0.31,0.02-0.46,0h-0.64h-1.92v2.2h21.96v-7.64h-3.02c0.08,0.81,0.08,1.62,0,2.42c-0.15,0.6-0.41,1.16-0.78,1.65
		c-0.32,0.43-0.77,0.75-1.28,0.91c-0.58,0.23-1.2,0.34-1.83,0.32h-6.27v-5.76h2.2h1.24c0.27,0.04,0.52,0.15,0.73,0.32
		c0.19,0.15,0.32,0.36,0.37,0.59c0.05,0.33,0.05,0.67,0,1.01v1.1h2.88v-8.51h-2.88v1.01c0.05,0.33,0.05,0.67,0,1.01
		c-0.06,0.26-0.2,0.48-0.41,0.64c-0.16,0.19-0.39,0.3-0.64,0.32c-0.35,0.05-0.7,0.05-1.05,0h-2.42v-5.17H403.61z"/>
	<path style="fill:#182865;" d="M427.26,620.81c0.05,0.21,0.05,0.43,0,0.64c-0.07,0.15-0.18,0.28-0.32,0.37h-0.46h-0.78h-2.74v2.33
		h14.46v-2.33h-3.57h-0.59c-0.14-0.11-0.25-0.25-0.32-0.41c-0.05-0.21-0.05-0.43,0-0.64l-0.41-14.87h-3.61
		c-0.2,0.56-0.5,1.09-0.87,1.56c-0.33,0.38-0.71,0.71-1.14,0.96c-0.49,0.24-1.02,0.43-1.56,0.55l-2.2,0.32h-0.46v2.38h4.57V620.81z"
		/>
	<path style="fill:#182865;" d="M440.39,615.37c0.65,0.58,1.41,1.01,2.24,1.28c1.01,0.3,2.06,0.46,3.11,0.46h2.15h0.37h0.32h0.32
		h0.32h0.27h0.46l0.59-1.28l0.46-0.27c0.02,0.84-0.12,1.68-0.41,2.47c-0.15,0.66-0.47,1.27-0.91,1.78
		c-0.41,0.47-0.93,0.83-1.51,1.05c-0.67,0.24-1.39,0.37-2.1,0.37h-0.87h-0.32h-0.32l0.27-0.27v-0.27c0.02-0.09,0.02-0.18,0-0.27
		c0-0.09,0-0.32,0-0.32c0.05-0.26,0.05-0.52,0-0.78c-0.16-0.27-0.38-0.51-0.64-0.69c-0.24-0.2-0.52-0.34-0.82-0.41
		c-0.35-0.05-0.7-0.05-1.05,0c-0.39-0.05-0.79-0.05-1.19,0c-0.35,0.11-0.67,0.28-0.96,0.5c-0.29,0.2-0.52,0.47-0.69,0.78
		c-0.15,0.28-0.23,0.6-0.23,0.91c0.01,0.53,0.19,1.04,0.5,1.46c0.36,0.48,0.83,0.87,1.37,1.14c0.66,0.38,1.39,0.63,2.15,0.73
		c0.9,0.17,1.82,0.25,2.74,0.23c1.43,0.02,2.85-0.2,4.21-0.64c1.19-0.4,2.27-1.07,3.16-1.97c0.88-0.93,1.55-2.04,1.97-3.25
		c0.47-1.48,0.68-3.02,0.64-4.57c0.01-1.26-0.19-2.51-0.59-3.71c-0.4-1.03-1-1.96-1.78-2.74c-0.79-0.77-1.74-1.35-2.79-1.69
		c-1.21-0.39-2.48-0.57-3.75-0.55c-1.16-0.01-2.31,0.13-3.43,0.41c-0.97,0.28-1.88,0.73-2.7,1.33c-0.73,0.51-1.34,1.19-1.78,1.97
		c-0.41,0.76-0.62,1.61-0.59,2.47c-0.02,0.8,0.13,1.6,0.46,2.33C439.36,614.1,439.82,614.78,440.39,615.37z M444.97,610.75
		c-0.08-0.5-0.08-1.01,0-1.51c0.11-0.43,0.32-0.84,0.59-1.19c0.25-0.33,0.58-0.6,0.96-0.78c0.41-0.07,0.83-0.07,1.24,0
		c0.44-0.08,0.89-0.08,1.33,0c0.38,0.21,0.73,0.49,1.01,0.82c0.32,0.35,0.54,0.77,0.64,1.24c0.1,0.56,0.1,1.13,0,1.69
		c0.1,0.5,0.1,1.01,0,1.51c-0.12,0.42-0.33,0.8-0.59,1.14c-0.28,0.28-0.61,0.51-0.96,0.69c-0.41,0.08-0.83,0.08-1.24,0
		c-0.46,0.01-0.91-0.09-1.33-0.27c-0.39-0.17-0.74-0.44-1.01-0.78c-0.28-0.37-0.5-0.79-0.64-1.24
		C444.93,611.64,444.9,611.19,444.97,610.75z"/>
	<path style="fill:#182865;" d="M459.79,614.04l0.82,0.73h0.32l0.37,0.23h0.37l0.78,0.69h-0.32c-0.36,0.21-0.7,0.46-1.01,0.73
		c-0.29,0.2-0.52,0.47-0.69,0.78c-0.19,0.24-0.31,0.52-0.37,0.82c-0.05,0.35-0.05,0.7,0,1.05c0,0.77,0.18,1.52,0.55,2.2
		c0.41,0.69,0.99,1.26,1.69,1.65c0.81,0.5,1.71,0.82,2.65,0.96c1.21,0.23,2.43,0.34,3.66,0.32c1.24,0,2.49-0.12,3.71-0.37
		c1.01-0.23,1.96-0.64,2.84-1.19c0.76-0.48,1.4-1.12,1.88-1.88c0.4-0.75,0.6-1.58,0.59-2.42c0.01-0.5-0.09-1-0.27-1.46
		c-0.2-0.47-0.48-0.9-0.82-1.28c-0.41-0.39-0.87-0.73-1.37-1.01c-0.57-0.35-1.19-0.62-1.83-0.82c0.37-0.18,0.71-0.41,1.01-0.69
		l0.64-0.73c0.13-0.28,0.24-0.57,0.32-0.87c0.05-0.35,0.05-0.7,0-1.05c0.01-0.64-0.18-1.26-0.55-1.78c-0.4-0.59-0.93-1.07-1.56-1.42
		c-0.76-0.43-1.58-0.75-2.42-0.96c-1.01-0.19-2.04-0.28-3.06-0.27c-1.22-0.03-2.43,0.1-3.61,0.37c-0.98,0.22-1.92,0.59-2.79,1.1
		c-0.71,0.46-1.32,1.07-1.78,1.78c-0.41,0.67-0.62,1.45-0.59,2.24c-0.02,0.32-0.02,0.64,0,0.96c0.05,0.3,0.14,0.59,0.27,0.87
		L459.79,614.04z M463.86,611.62c-0.02-0.12-0.02-0.24,0-0.37c0.02-0.32,0.13-0.62,0.32-0.87c0.2-0.29,0.49-0.52,0.82-0.64
		c0.39-0.23,0.83-0.39,1.28-0.46c0.58-0.05,1.16-0.05,1.74,0c0.55-0.05,1.1-0.05,1.65,0c0.45,0.1,0.88,0.27,1.28,0.5
		c0.35,0.18,0.65,0.45,0.87,0.78c0.19,0.3,0.3,0.65,0.32,1.01c0.06,0.24,0.06,0.49,0,0.73c-0.11,0.23-0.25,0.44-0.41,0.64
		c-0.21,0.25-0.46,0.46-0.73,0.64l-1.37-1.6c-0.33,0.23-0.68,0.43-1.05,0.59h-0.39c0,0,0,0,0,0l-0.48-0.11
		c0.01,0.04,0.03,0.07,0.05,0.11h-0.36h-0.37h-0.5h-0.27h-0.32h-0.23h-0.5h-0.5l-0.5-0.27l-0.32-0.32
		C463.84,611.86,463.84,611.74,463.86,611.62z M463.45,619.12c0.09-0.28,0.23-0.54,0.41-0.78l0.32-0.32l0.41-0.37l0.46-0.32
		l0.14,0.55l0.64-0.37h0.59h0.64h0.78l0.73,0.23l1.37,0.55c0.45,0.18,0.88,0.41,1.28,0.69c0.35,0.2,0.66,0.46,0.91,0.78
		c0.17,0.26,0.27,0.56,0.27,0.87c0.01,0.33-0.08,0.65-0.27,0.91c-0.24,0.31-0.56,0.56-0.91,0.73c-0.41,0.24-0.86,0.41-1.33,0.5
		c-0.55,0.05-1.1,0.05-1.65,0c-0.68,0.07-1.37,0.07-2.06,0c-0.53-0.11-1.05-0.31-1.51-0.59c-0.39-0.25-0.71-0.58-0.96-0.96
		c-0.18-0.4-0.28-0.84-0.27-1.28C463.37,619.68,463.37,619.39,463.45,619.12z"/>
	<path style="fill:#182865;" d="M481.43,615.37c0.66,0.59,1.44,1.02,2.29,1.28c1.01,0.31,2.06,0.46,3.11,0.46h1.37h0.37h0.32h0.32
		h0.37h0.27h0.41l1.05-1.28l0.5-0.27c-0.02,0.84-0.14,1.67-0.37,2.47c-0.18,0.66-0.51,1.27-0.96,1.78
		c-0.41,0.47-0.93,0.83-1.51,1.05c-0.67,0.24-1.39,0.37-2.1,0.37H486h-0.27h-0.32l0.27-0.27v-0.27c0.02-0.09,0.02-0.18,0-0.27
		c0.02-0.11,0.02-0.21,0-0.32c0.07-0.25,0.07-0.52,0-0.78c-0.14-0.27-0.35-0.5-0.59-0.69c-0.26-0.19-0.56-0.33-0.87-0.41
		c-0.35-0.05-0.7-0.05-1.05,0c-0.39-0.05-0.79-0.05-1.19,0c-0.35,0.11-0.67,0.28-0.96,0.5c-0.28,0.21-0.51,0.48-0.69,0.78
		c-0.07,0.3-0.07,0.61,0,0.91c0,0.52,0.16,1.04,0.46,1.46c0.38,0.47,0.84,0.86,1.37,1.14c0.66,0.38,1.39,0.63,2.15,0.73
		c2.32,0.41,4.7,0.27,6.95-0.41c1.19-0.4,2.27-1.07,3.16-1.97c0.88-0.93,1.55-2.04,1.97-3.25c0.47-1.48,0.68-3.02,0.64-4.57
		c0.01-1.26-0.19-2.51-0.59-3.71c-0.38-1.04-0.99-1.98-1.78-2.74c-0.79-0.76-1.75-1.34-2.79-1.69c-1.21-0.39-2.48-0.57-3.75-0.55
		c-1.16-0.01-2.31,0.13-3.43,0.41c-0.97,0.28-1.88,0.73-2.7,1.33c-0.73,0.51-1.34,1.19-1.78,1.97c-0.41,0.76-0.62,1.61-0.59,2.47
		c-0.02,0.8,0.14,1.6,0.46,2.33C480.39,614.1,480.86,614.78,481.43,615.37z M485.77,610.75c-0.08-0.5-0.08-1.01,0-1.51
		c0.11-0.43,0.32-0.84,0.59-1.19c0.25-0.33,0.58-0.6,0.96-0.78c0.41-0.07,0.83-0.07,1.24,0c0.44-0.08,0.89-0.08,1.33,0
		c0.39,0.2,0.74,0.48,1.01,0.82c0.32,0.35,0.54,0.77,0.64,1.24c0.17,0.55,0.25,1.12,0.23,1.69c0.02,0.51-0.06,1.03-0.23,1.51
		c-0.12,0.42-0.33,0.8-0.59,1.14c-0.28,0.27-0.58,0.5-0.91,0.69c-0.42,0.07-0.86,0.07-1.28,0c-0.44,0.01-0.88-0.08-1.28-0.27
		c-0.42-0.16-0.78-0.43-1.05-0.78c-0.28-0.37-0.5-0.79-0.64-1.24C485.73,611.63,485.71,611.19,485.77,610.75z"/>
	<path style="fill:#182865;" d="M327.48,560.1c-0.84-0.04-1.64-0.1-2.51-0.08h-2.14v9.15h7.12c-1.38-0.79-2.32-2.27-2.32-3.98v-3.39
		C327.64,561.2,327.58,560.64,327.48,560.1z"/>
	<path style="fill:#182865;" d="M372.14,569.17c0.07,0,0.21,0,0.37,0v-33.12c-0.18,0-0.38-0.01-0.57-0.01h-5.11
		c-1.77,0-3.27-1.04-4.03-2.51v12.58c0,2.53-2.05,4.57-4.57,4.57h-8.55c-1.88,0-3.51-1.13-4.21-2.78v6.54
		c0.18-0.29,0.39-0.55,0.63-0.8c0.86-0.87,2.03-1.36,3.26-1.36h9.15c1.23,0,2.4,0.5,3.27,1.37c0.86,0.88,1.33,2.06,1.31,3.29
		l-0.27,14.6c0.78-1.39,2.22-2.37,3.93-2.37h5.03C371.9,569.17,372.02,569.17,372.14,569.17z"/>
	<path style="fill:#182865;" d="M342.95,497.18c-0.34-0.28-0.65-0.45-0.99-0.56c-0.44-0.12-1.07-0.21-1.68-0.19
		c-0.05,0-0.1,0-0.15,0c-0.75,0-1.34,0.1-1.91,0.31c-0.43,0.15-0.74,0.35-0.99,0.62c-0.03,0.04-0.06,0.07-0.1,0.1
		c-0.3,0.3-0.52,0.66-0.66,1.05c-0.25,0.7-0.36,1.41-0.34,2.12c-0.01,0.99,0.1,1.8,0.35,2.59c0.13,0.44,0.35,0.82,0.65,1.14
		c0.15,0.13,0.53,0.38,0.96,0.53c0.59,0.2,1.34,0.25,2.04,0.31c0.64,0,1.3-0.09,1.93-0.26c0.22-0.07,0.51-0.22,0.77-0.42
		c0.33-0.25,0.5-0.45,0.63-0.67c0.38-0.62,0.54-1.05,0.63-1.5c0.08-0.43,0.23-0.83,0.42-1.21c-0.51-0.68-0.84-1.51-0.91-2.41
		c-0.03-0.39-0.13-0.76-0.29-1.1C343.22,497.45,343.1,497.3,342.95,497.18z"/>
	<path style="fill:#182865;" d="M487.77,539.46c0-0.02,0-0.04,0-0.06c0,0,0,0.01,0,0.01C487.77,539.42,487.77,539.44,487.77,539.46z
		"/>
	<path style="fill:#182865;" d="M325.53,543.41c0.8,0.01,1.43-0.05,2.08-0.21c-0.04-0.46,0.04-1.09,0.02-1.72v-3.25
		c0-0.76,0.18-1.47,0.51-2.1h-5.13v7.28H325.53z"/>
	<path style="fill:#182865;" d="M528.8,535.59c-0.35,0.05-0.69,0.11-1.03,0.18l0.09,33.21c0.01,0,0.03,0,0.05,0
		c0.19-0.03,0.39-0.04,0.59-0.04h4.16c0.33,0,0.61,0.11,0.91,0.18v-33.71c-0.31,0.06-0.59,0.18-0.91,0.18H528.8z"/>
	<path style="fill:#182865;" d="M295.26,442.73c-0.59-1.92,0.15-4.01,1.82-5.13l236.5-159.39v-14.06l-267.15,180.1v41.1h17.34
		c1.83,0,3.39,1.09,4.12,2.65c0.59-1.84,2.26-3.2,4.3-3.2h29.32c2.03,0,3.69,1.34,4.29,3.16c1.78-1.31,3.73-2.36,5.85-3.04
		c2.54-0.77,5.18-1.11,7.68-1.09h3.08c1.24,0.09,2.03,0.25,2.77,0.48l1.35,0.45c0.73-0.48,1.6-0.75,2.51-0.75h3.52
		c1.22,0,2.39,0.49,3.25,1.35c0.86,0.87,1.34,2.04,1.33,3.26l-0.09,9.79c0,0.66-0.15,1.28-0.41,1.85c0.84,0.98,1.22,2.28,1.05,3.56
		c-0.28,2.13-0.97,4.15-2.05,5.99c-1.12,1.89-2.57,3.43-4.34,4.64c-1.76,1.22-3.73,2.1-5.83,2.6c-2.1,0.52-4.33,0.75-6.53,0.76
		c-0.09,0-0.18,0-0.27,0c-2.32,0-4.7-0.34-7.01-1c-2.43-0.78-4.55-1.92-6.45-3.41c-1.83-1.42-3.39-3.28-4.48-5.37
		c-0.81-1.74-1.2-3.51-1.38-5.28h-0.73v3.43c0,2.45-1.93,4.45-4.35,4.57v2.06c0,2.53-2.05,4.57-4.57,4.57h-17.52
		c-2.53,0-4.57-2.05-4.57-4.57v-3.06c0-2.51,2.02-4.55,4.53-4.57v-8.33c-1.64-0.01-3-0.94-3.8-2.24v8.01c0,1.23-0.5,2.41-1.38,3.27
		l-20.54,20.06v18.71c0.77-0.6,1.7-1.01,2.75-1.01h15.23c1.24,0,2.43,0.5,3.29,1.39c0.86,0.89,1.33,2.1,1.28,3.33l-0.79,23.7
		c0.75-1.49,2.26-2.53,4.04-2.53h5.03c0.13,0,0.25,0,0.37,0c0.05,0,0.13,0,0.21,0l0.06-33.12c-0.18,0-0.36-0.01-0.56-0.01h-5.11
		c-2.53,0-4.57-2.05-4.57-4.57v-7c0-2.53,2.05-4.57,4.57-4.57h66.01c1.97,0,3.62,1.26,4.26,3.01c0.52-1.95,2.22-3.42,4.34-3.42
		h37.19c2.53,0,4.57,2.05,4.57,4.57v7c0,2.53-2.05,4.57-4.57,4.57h-5.56c-0.31,0.04-0.62,0.09-0.92,0.16l-0.02,32.75l8.58-0.29
		c0.15-0.01,0.3,0,0.46,0c2.21,0.17,4.34-0.14,6.39-0.86c0.64-0.24,1.24-0.78,1.58-1.5c0.49-1.25,0.94-2.84,1.21-4.45
		c0.39-2.05,0.6-4.07,0.63-6.08c0.04-2.5,2.07-4.51,4.57-4.51h9.15c0.61,0,1.18,0.13,1.71,0.34l-5.36-11.55c0,0.01,0,0.02,0,0.02
		c-0.01,0-0.1-0.15-0.21-0.29c-0.11-0.16-0.21-0.33-0.3-0.5c-0.17-0.33-0.34-0.67-0.48-1.01l-0.34-0.54
		c-0.13-0.18-0.29-0.44-0.45-0.75c-0.11-0.12-0.22-0.22-0.35-0.32c-0.01,0-0.05-0.01-0.11-0.04c-0.53-0.09-1.07-0.16-1.61-0.2
		l-3.03,0.01c-2.53,0-4.57-2.05-4.57-4.57v-7.46c0-2.53,2.05-4.57,4.57-4.57h35.31c2.53,0,4.57,2.05,4.57,4.57v7.27
		c0,2.53-2.05,4.57-4.57,4.57h-3.77l7.94,18.24l8.89-18.34l-3.5,0.01c-2.53,0-4.57-2.05-4.57-4.57v-7.28c0-2.53,2.05-4.57,4.57-4.57
		h28.59c0.91,0,1.71,0.33,2.42,0.79c0.79-0.66,1.78-1.11,2.89-1.11h34.31c0.32,0,0.61,0.12,0.91,0.18v-2.79h-12.35
		c-0.48,0-0.92-0.14-1.35-0.27c-0.68,0.4-1.42,0.68-2.26,0.68h-16.19c-0.74,0-1.43-0.17-2.05-0.49c-0.48,0.17-0.99,0.26-1.52,0.26
		h-16.19c-2.03,0-3.69-1.34-4.29-3.16c-0.23,0.19-0.43,0.42-0.68,0.59c-1.81,1.24-3.76,2.11-5.84,2.62
		c-2.14,0.52-4.11,0.82-6.55,0.77c-0.11,0-0.21,0-0.32,0c-2.31,0-4.68-0.34-6.98-1.01c-1.48-0.47-2.82-1.12-4.1-1.87
		c-0.82,1.21-2.14,2.06-3.72,2.06h-14.87c-1.07,0-2.06-0.37-2.84-0.99c-0.59,0.29-1.26,0.44-1.96,0.44h-11.7
		c-0.55,0.23-1.16,0.37-1.79,0.37h-16.61c-0.68,0-1.34-0.15-1.92-0.42c-0.77,0.56-1.71,0.88-2.7,0.88h-3.34
		c-0.9,0-1.77-0.27-2.5-0.74c-0.69,0.41-1.49,0.65-2.35,0.65h-13.72c-2.53,0-4.57-2.05-4.57-4.57v-2.84c0-2.51,2.02-4.55,4.53-4.57
		v-8.33c-2.5-0.03-4.53-2.06-4.53-4.57v-2.93c0-2.53,2.05-4.57,4.57-4.57h14.41c1.68,0,3.21,0.92,4.02,2.39l3.5,6.42l3.46-6.73
		c0.79-1.53,2.35-2.48,4.07-2.48h13.72c2.53,0,4.57,2.05,4.57,4.57v2.93c0,2.53-2.05,4.57-4.57,4.57v7.95
		c0.13-0.01,0.24-0.07,0.37-0.07h0.11c0.08-0.3,0.19-0.59,0.33-0.87l7.78-15.46c0.78-1.55,2.36-2.52,4.09-2.52h6.68
		c1.68,0,3.22,0.92,4.02,2.39l5.38,9.93c0.7-3.65,2.7-7.09,5.76-9.48c1.85-1.5,4.02-2.67,6.38-3.41c2.55-0.77,5.09-1.11,7.72-1.08
		h3.08c0.16,0,0.32,0.01,0.48,0.03c0.76,0.08,1.51,0.23,2.24,0.45l1.38,0.44c0.73-0.47,1.59-0.74,2.49-0.74h3.43
		c1.05,0,1.97,0.41,2.74,1.01c0.37-0.1,0.74-0.23,1.14-0.23h16.19c0.63,0,1.24,0.13,1.79,0.36c0.55-0.23,1.15-0.36,1.78-0.36h16.19
		c0.48,0,0.92,0.14,1.35,0.27c0.68-0.4,1.42-0.68,2.26-0.68h12.35v-38.43H299.63C297.62,445.97,295.84,444.66,295.26,442.73z"/>
	<path style="fill:#182865;" d="M468.16,497.07c-0.21-0.17-0.52-0.34-0.86-0.45c-0.43-0.12-1.14-0.18-1.71-0.19
		c-0.05,0-0.1,0-0.15,0c-0.72,0-1.31,0.1-1.89,0.31c-0.44,0.15-0.72,0.33-0.93,0.57c-0.04,0.04-0.08,0.09-0.13,0.13
		c-0.34,0.34-0.6,0.76-0.77,1.21c-0.15,0.49-0.26,1.25-0.25,2.01c-0.01,0.96,0.1,1.78,0.35,2.56c0.13,0.43,0.34,0.81,0.64,1.13
		c0.15,0.14,0.55,0.39,0.96,0.55c0.59,0.2,1.29,0.26,2.02,0.31c0.64,0,1.27-0.09,1.88-0.25c0.3-0.08,0.59-0.23,0.83-0.42
		c0.29-0.23,0.53-0.52,0.73-0.84c0.28-0.45,0.45-0.89,0.54-1.34c0.08-0.43,0.23-0.83,0.42-1.21c-0.51-0.68-0.84-1.51-0.91-2.41
		c-0.03-0.39-0.13-0.76-0.29-1.1C468.59,497.52,468.4,497.28,468.16,497.07z"/>
	<path style="fill:#182865;" d="M454.58,400.39c-0.01-0.17,0.98,0.52,3.06,0.52l75.94,0.03v-55.83L460.2,394.6
		C455.61,397.67,454.58,399.87,454.58,400.39z"/>
	<path style="fill:#182865;" d="M517.66,505.21c0.63,0.01,1.22,0.14,1.76,0.37c0.54-0.23,1.14-0.36,1.76-0.37v-8.28
		c-0.65-0.01-1.26-0.16-1.82-0.41c-0.53,0.22-1.1,0.35-1.71,0.36V505.21z"/>
	<path style="fill:#182865;" d="M490.06,610.75c0.01-0.02,0.03-0.05,0.04-0.08c-0.11-0.16-0.21-0.28-0.32-0.39l-0.23-0.06l0.08,0.67
		L490.06,610.75z"/>
	<path style="fill:#182865;" d="M487.69,611.28l-0.02-0.19l-0.32-0.25c0.01-0.02,0-0.02-0.05,0.05c0.06,0.09,0.13,0.18,0.2,0.27
		C487.51,611.16,487.59,611.22,487.69,611.28z"/>
	<path style="fill:#182865;" d="M449.26,610.75c0.01-0.02,0.03-0.05,0.04-0.08c-0.11-0.16-0.21-0.29-0.32-0.39l-0.18-0.05l0.06,0.64
		L449.26,610.75z"/>
	<path style="fill:#182865;" d="M338.15,245.79c-0.12-0.02-1.18-0.55-3.06-0.55h-68.66v51.02l66.1-44.65
		C337.92,247.99,338.15,245.81,338.15,245.79z"/>
	<path style="fill:#182865;" d="M339.62,613.3v4.05c0.12,0.05,0.22,0.13,0.34,0.19l-0.01-4.08
		C339.83,613.42,339.73,613.34,339.62,613.3z"/>
	<path style="fill:#182865;" d="M378.12,613.27c-0.04,0-0.07,0-0.1,0c-0.42,0-0.68,0.04-0.92,0.14c-0.06,0.07-0.31,0.21-0.38,0.28
		c-0.11,0.12-0.2,0.27-0.26,0.44c-0.1,0.31-0.17,0.78-0.16,1.25c-0.01,0.66,0.06,1.19,0.22,1.7c0.05,0.02,0.42,0.51,0.47,0.53
		c0.28,0.11,0.61,0.17,0.89,0.15c0.45,0,0.73-0.03,0.98-0.11c0-0.01,0.49-0.38,0.5-0.38c0.13-0.23,0.22-0.49,0.27-0.77
		c0.04-0.22,0.1-0.45,0.18-0.66c-0.27-0.51-0.45-1.08-0.51-1.68c-0.02-0.22-0.08-0.45-0.18-0.67
		C378.71,613.3,378.47,613.27,378.12,613.27z"/>
</g>
</svg>
