<?xml version="1.0" encoding="utf-8"?>
<!-- Created by @FCLOGO 2025-2-9 GMT+8 21:00:28 . https://fclogo.top/ -->
<!-- FOR PERSONAL USE ONLY NOT FOR COMMERCIAL USE -->
<!-- Created by @FCLOGO 2025-2-9 GMT+8 21:00:28 . https://fclogo.top/ -->
<!-- FOR PERSONAL USE ONLY NOT FOR COMMERCIAL USE -->
<svg version="1.1" xmlns="http://www.w3.org/2000/svg" xmlns:xlink="http://www.w3.org/1999/xlink" x="0px" y="0px"
	 viewBox="0 0 800 800" style="enable-background:new 0 0 800 800;" xml:space="preserve">
<path style="fill:#096FCC;" d="M628.2766,239.9034v-85.3391h-95.8981c-39.4106-21.3433-84.4983-33.4891-132.3786-33.4891
	c-47.6663,0-92.5723,12.0269-131.8589,33.1907h16.1325c35.1292-16.6111,74.3584-25.9218,115.7264-25.9218
	c41.6133,0,81.0627,9.4207,116.3502,26.2203H171.7247l1.7781,82.8348c-32.9805,45.8057-52.436,101.9664-52.436,162.5927
	c0,142.3774,107.2175,260.1676,245.147,276.8983c20.3466,15.0959,33.7861,22.4221,33.7861,22.4221
	c13.8233-7.0987,26.8127-14.8467,39.0317-23.1149c135.3914-19.0439,239.9-135.6389,239.9-276.2054
	C678.9317,340.4656,660.1741,285.2455,628.2766,239.9034z M219.035,450.9058c0,0-4.665,2.3362-4.052-12.7968l-1.2263-52.5703
	l5.2783-4.0353l367.4984-105.6716c0,0,12.0989-3.6901,9.9933,13.6707l0.2424,47.0942c0,0,0.0164,6.6318-10.7611,8.6377
	L219.035,450.9058z M566.0297,363.0236v128.5768l-13.6301,21.0762V366.9847L566.0297,363.0236z M524.0589,375.2892v188.6642
	l-12.1365,12.809V378.8589L524.0589,375.2892z M485.0667,386.4971v223.9627l-10.919,11.5054v-231.382L485.0667,386.4971z
	 M399.9999,671.6558c-0.9565,0-1.9067-0.0264-2.8609-0.0363l-2.6821-1.758V413.2559l11.5621-3.3835v259.9891l-2.6741,1.7518
	C402.2297,671.6269,401.1183,671.6558,399.9999,671.6558z M366.7754,653.3118l-12.6168-9.0918V425.1304l12.6168-4.196V653.3118z
	 M445.813,645.5739l-10.7748,7.7379l-2.0415-251.2604l12.8163-3.805V645.5739z M326.2881,433.3115v181.9102l-12.0902-10.8002
	V436.8531L326.2881,433.3115z M286.8616,444.5431v127.5051l-12.0947-14.8445V448.418L286.8616,444.5431z M247.4279,455.48v52.4854
	l-12.0901-20.249v-27.6564L247.4279,455.48z M235.3377,365.8912V205.9039h12.0901v156.4324L235.3377,365.8912z M274.7669,354.326
	V205.9039h12.0947v144.8674L274.7669,354.326z M314.1979,342.5887V205.9039h12.0902v133.0185L314.1979,342.5887z M354.1586,331.0358
	V205.9039h12.6168v121.4296L354.1586,331.0358z M394.6386,319.1646V205.9039h11.5633v109.8529L394.6386,319.1646z
	 M433.5443,307.7484V205.9039h12.0902v98.2866L433.5443,307.7484z M474.1476,296.0956V205.718l10.919,0.1859v86.4271
	L474.1476,296.0956z M512.4048,284.617v-78.7131h11.5648v75.3176L512.4048,284.617z M553.1719,273.2381V205.718h12.8578v63.5203
	L553.1719,273.2381z M590.158,356.5269l10.1364-3.5905c0,0-1.3674,46.7994-10.1364,54.2189V356.5269z M590.7412,261.6361v-55.7322
	h11.5663v52.3367L590.7412,261.6361z M198.4406,169.2408l403.7941-0.2336c0,0,0,10.187,0,22.8961l-403.7941,0.2456V169.2408z
	 M198.4406,205.9039h8.5085v168.3156l-8.5085,2.4984V205.9039z M128.3447,399.9919c0-55.4911,16.7437-107.1409,45.4244-150.1918
	l2.3232,108.2283c20.84,162.2729,119.0649,262.8429,178.2766,309.7747C226.2281,646.0375,128.3447,534.2443,128.3447,399.9919z
	 M452.6935,666.5083C609.2725,550.046,628.2766,346.648,628.2766,346.648v-93.7211
	c27.4274,42.4156,43.3785,92.9095,43.3785,147.0649C671.6552,531.7667,577.349,641.9047,452.6935,666.5083z M399.9999,50
	C207.0089,50,50.0023,207.0095,50.0023,400.0099C50.0023,592.9876,207.0089,750,399.9999,750
	c192.9897,0,349.9977-157.0124,349.9977-349.9901C749.9977,207.0095,592.9897,50,399.9999,50z M399.9999,742.7207
	c-188.9764,0-342.72-153.739-342.72-342.7108c0-188.9886,153.7437-342.7259,342.72-342.7259
	c188.975,0,342.7199,153.7372,342.7199,342.7259C742.7198,588.9817,588.975,742.7207,399.9999,742.7207z M272.5319,406.5897
	l6.0267-0.22c0.1548,4.9552-0.9404,9.0799-3.2961,12.3861c-2.3538,3.2977-5.7362,5.5978-10.1495,6.8778
	c-4.5682,1.3302-8.5518,1.4759-11.9534,0.4434c-3.4016-1.0359-6.3613-3.1011-8.8776-6.1873
	c-2.5205-3.1011-4.3658-6.6694-5.5369-10.7167c-1.2827-4.4194-1.5563-8.5143-0.8213-12.2776
	c0.7305-3.7901,2.4075-6.9774,5.0265-9.5842c2.6175-2.6086,5.7929-4.4551,9.5337-5.5369c4.2408-1.2306,8.1187-1.18,11.6422,0.1353
	c3.5149,1.3156,6.4091,3.7648,8.6855,7.3569l-5.1484,2.903c-1.8736-2.8049-3.9538-4.6367-6.2333-5.4982
	c-2.2783-0.8615-4.8345-0.8853-7.6662-0.0625c-3.262,0.9478-5.7557,2.5102-7.4864,4.7111c-1.7394,2.1918-2.668,4.7379-2.7899,7.6187
	c-0.1234,2.8896,0.2216,5.7438,1.0312,8.5353c1.0444,3.5951,2.4803,6.5947,4.3106,8.9814c1.8303,2.3749,4.0474,3.9136,6.6529,4.6011
	c2.6025,0.6906,5.1932,0.6519,7.7796-0.0981c3.144-0.9106,5.5369-2.5833,7.1871-5.0326
	C272.1034,413.4913,272.7997,410.3664,272.5319,406.5897z M294.3849,409.9349l1.7172,5.9194l-5.9236,1.72l-1.7233-5.9282
	L294.3849,409.9349z M330.0633,371.8581c-1.9629-2.622-4.3362-4.5401-7.1204-5.796c-2.1365-0.9581-4.5056-1.3658-7.0963-1.2305
	c-1.8541,0.0996-4.4268,0.6281-7.7214,1.5877l-14.6019,4.2335l12.294,42.395l15.2955-4.4402
	c2.5653-0.753,4.7644-1.6489,6.6008-2.6964c1.8346-1.0566,3.3138-2.2649,4.4447-3.592c1.1248-1.3513,2.0415-2.9999,2.744-4.9701
	c0.7037-1.9672,1.0727-4.3064,1.1011-7.0116c0.0298-2.7079-0.4197-5.6603-1.3571-8.8967
	C333.5511,377.676,332.0228,374.4783,330.0633,371.8581z M328.5438,397.8044c-0.6741,1.2172-1.7245,2.3124-3.1678,3.2977
	c-1.4405,0.9849-3.5548,1.8718-6.3494,2.6812l-9.0516,2.6339l-9.3953-32.3942l8.9102-2.5711
	c3.3303-0.9719,5.8344-1.39,7.5071-1.2425c2.3167,0.1978,4.5459,1.2797,6.6931,3.2483c2.1485,1.9553,3.8627,5.1545,5.1484,9.5843
	c0.9301,3.1977,1.3482,6.0278,1.2589,8.4874C330.0008,393.9908,329.4888,396.0814,328.5438,397.8044z M353.6022,392.7484
	l1.7188,5.9401l-5.927,1.7142l-1.7215-5.9313L353.6022,392.7484z M396.5521,363.2825l4.5593,15.724
	c-2.1189,2.9893-4.4788,5.4744-7.0875,7.4309c-2.6099,1.9556-5.4565,3.3839-8.5396,4.2811
	c-4.1634,1.2053-8.2092,1.4152-12.1243,0.6132c-3.9209-0.7991-7.2362-2.619-9.949-5.4982
	c-2.7141-2.8792-4.6724-6.385-5.8804-10.5561c-1.1965-4.1202-1.454-8.2181-0.7634-12.2895c0.6887-4.086,2.3987-7.455,5.1335-10.1243
	c2.7381-2.6845,6.2125-4.6279,10.4326-5.8584c3.0697-0.8853,5.9834-1.1919,8.7465-0.9091c2.7662,0.2706,5.1097,1.0815,7.0278,2.4477
	c1.9272,1.3659,3.6682,3.3702,5.2261,6.0041l-4.6589,2.8674c-1.265-1.9821-2.5461-3.446-3.848-4.4045
	c-1.3007-0.9612-2.9374-1.5521-4.9046-1.784c-1.9732-0.2487-4.0236-0.0509-6.1677,0.5772
	c-2.5623,0.7381-4.6651,1.7709-6.3077,3.0892c-1.6444,1.3272-2.8558,2.7915-3.6295,4.4045
	c-0.7811,1.5981-1.2646,3.2468-1.4612,4.9567c-0.317,2.9402-0.0341,5.9429,0.8558,9.0052c1.0937,3.7767,2.6635,6.7437,4.7053,8.9074
	c2.0399,2.1783,4.4773,3.5192,7.3224,4.0236c2.8451,0.5162,5.6588,0.369,8.4579-0.4434c2.427-0.7009,4.6647-1.8586,6.7078-3.4686
	c2.0402-1.5996,3.5073-3.1011,4.3972-4.516l-2.2914-7.8984l-12.4681,3.6174l-1.4375-4.9701L396.5521,363.2825z M416.1137,374.6139
	l1.7157,5.9297l-5.924,1.7231l-1.723-5.9179L416.1137,374.6139z M459.4998,353.8842c0.1606,4.9567-0.9343,9.0768-3.2916,12.3879
	c-2.3569,3.2974-5.7362,5.5979-10.1511,6.879c-4.5654,1.3153-8.5488,1.4628-11.9549,0.4419
	c-3.4031-1.034-6.3628-3.1011-8.876-6.1888c-2.519-3.1008-4.3612-6.6675-5.5399-10.7151
	c-1.2797-4.4045-1.5518-8.5143-0.8213-12.2925c0.7366-3.7645,2.4136-6.9622,5.0295-9.5693c2.616-2.6086,5.796-4.4551,9.5337-5.5369
	c4.2439-1.2305,8.1218-1.1949,11.6407,0.1353c3.5176,1.3156,6.4121,3.7633,8.6813,7.345l-5.1426,2.9149
	c-1.8779-2.8049-3.9538-4.6379-6.2305-5.4995c-2.2825-0.8603-4.8345-0.8856-7.6677-0.0731
	c-3.2601,0.9465-5.7585,2.5224-7.4891,4.7111c-1.7394,2.2039-2.6635,4.7498-2.7884,7.6412
	c-0.1249,2.8793,0.2158,5.7198,1.0312,8.5128c1.0474,3.6055,2.4788,6.6069,4.3137,8.9922c1.8303,2.3898,4.0474,3.915,6.6453,4.6022
	c2.6055,0.6906,5.1978,0.6519,7.7811-0.0862c3.141-0.9225,5.5397-2.5949,7.1913-5.0322c1.6517-2.4481,2.3481-5.5607,2.0863-9.3612
	L459.4998,353.8842z M475.3292,357.4509l1.7157,5.9178l-5.9221,1.7234l-1.7233-5.9297L475.3292,357.4509z M486.0922,314.7957
	l-3.9836,47.1091l5.955-1.7218l0.9301-14.1987l17.7252-5.1426l8.6694,11.4058l6.3923-1.8465l-29.6472-37.3627L486.0922,314.7957z
	 M503.6595,336.7825l-14.3697,4.1711l1.0474-13.7791c0.2054-2.9792,0.1877-5.894-0.0652-8.7614
	c1.3257,2.1039,3.174,4.7379,5.5607,7.9237L503.6595,336.7825z M531.2771,341.2108l1.7173,5.9297l-5.9267,1.7233l-1.7158-5.9297
	L531.2771,341.2108z M562.2828,298.1133l-14.0244,4.0745l10.8489,37.3862l-5.6113,1.6249l-10.8447-37.3892l-13.9665,4.0473
	l-1.4506-4.9939l33.5979-9.7433L562.2828,298.1133z M277.3472,111.8972c-2.918-7.4446-4.6218-13.4219,5.4698-17.3102
	c5.4031-2.0802,9.7272-2.1652,12.8953,2.4715c0.7262,1.0596,1.1057,2.314,1.564,3.4939c-2.473,0.8497-3.7008,1.2915-6.1574,2.2158
	c-1.1934-2.9658-2.4062-5.3169-6.5889-3.7767c-4.8363,1.7828-2.4151,6.8641-1.4985,9.1156c1.3138,3.2245,1.9687,4.8345,3.2825,8.059
	c0.9745,2.4109,2.7677,6.2007,6.7214,4.662c3.2928-1.2781,3.1395-4.9951,1.3659-9.3759c-1.6533,0.6159-2.4761,0.924-4.1202,1.564
	c-0.6668-1.7233-1.0029-2.5848-1.6667-4.293c4.0087-1.5639,6.0221-2.3005,10.0694-3.7054c2.2155,6.3747,3.3303,9.5486,5.5473,15.934
	c-1.723,0.5891-2.5803,0.8972-4.2975,1.5252c-0.4968-1.3542-0.7454-2.0299-1.2394-3.372c-0.0341,0-0.0506,0.0134-0.0847,0.0269
	c-0.0329,3.4924-1.9004,5.2526-3.8614,6.1129c-8.8254,3.8255-12.2971-1.549-15.6228-9.2408
	C278.4186,114.3702,278.0615,113.5444,277.3472,111.8972z M305.4545,106.0537c2.5906,7.9594,5.0621,13.3966,14.6034,10.6646
	c9.538-2.7172,8.7404-8.635,6.7449-16.7565c-0.43-1.7456-0.6412-2.619-1.0696-4.3539c-2.1786-7.7021-4.3436-13.4725-14.7031-10.5085
	c-10.3568,2.9539-9.1738,9.007-6.9595,16.697C304.624,103.4929,304.8965,104.3426,305.4545,106.0537z M312.3274,89.6395
	c4.7379-1.3528,6.0535,4.0979,6.705,6.5219c0.8378,3.0995,1.2574,4.662,2.0924,7.7512c0.781,2.9149,1.8525,7.0618-2.3646,8.2659
	c-4.0461,1.1562-5.4714-2.7918-6.2229-5.2782c-1.0045-3.333-1.5073-5.0058-2.5163-8.3403
	C309.3217,96.2476,307.3189,91.0797,312.3274,89.6395z M346.5488,109.7439c1.4792-0.2706,3.0743-0.6396,4.2661-1.5996
	c4.4225-3.592,3.4061-10.6304,2.4822-16.758c-0.7753-5.1292-1.695-8.5131-3.525-10.4189c-2.4568-2.5848-5.7722-2.6577-7.3687-2.363
	c-5.4833,0.973-8.2184,1.5253-13.666,2.7439c2.7589,12.2538,4.1339,18.3813,6.8909,30.6233
	C339.9822,110.9982,342.1696,110.5429,346.5488,109.7439z M340.4405,83.6366c3.8824-0.7259,5.22,2.0418,6.4804,9.3375
	c1.5521,8.9446,1.6709,11.6763-3.6948,12.7091c-1.0489,0.2084-1.5712,0.3081-2.6159,0.5178
	c-1.7678-8.6871-2.6516-13.0303-4.4194-21.7266C337.8916,84.1294,338.7427,83.9551,340.4405,83.6366z M359.2269,93.8489
	c1.0952,8.2913,2.522,14.0991,12.3163,13.1629c9.7927-0.9343,10.0859-6.9028,9.5961-15.2549
	c-0.1055-1.7843-0.1576-2.683-0.2603-4.4655c-0.7427-7.9731-1.8245-14.0396-12.4547-13.0306
	c-10.6304,1.0087-10.5637,7.1871-9.7854,15.1465C358.8758,91.1794,358.9962,92.065,359.2269,93.8489z M368.8751,78.9734
	c4.8613-0.4556,5.1649,5.1438,5.3672,7.6394c0.256,3.2007,0.3855,4.8122,0.6415,8.0099c0.238,3.003,0.5373,7.2719-3.7916,7.6781
	c-4.15,0.405-4.8299-3.7526-5.1158-6.3241c-0.3824-3.4579-0.5729-5.1917-0.9565-8.6496
	C364.7577,84.9044,363.7294,79.4659,368.8751,78.9734z M393.1283,91.6691c-3.6323-7.1469-5.5519-10.6899-9.5961-17.7149
	c2.903-0.1475,4.3612-0.1981,7.2672-0.2709c1.582,3.2601,2.3511,4.8972,3.8572,8.1693c0.7128,1.5386,1.2797,3.1263,1.5682,4.7988
	c0.0341,0,0.0521,0,0.0908,0c0.4361-2.4374,1.3049-4.1948,2.0906-5.9566c1.2382-2.8405,1.872-4.2676,3.1769-7.0978
	c2.9061,0.0237,4.3615,0.0624,7.2691,0.1472c-3.994,7.0875-5.8822,10.6677-9.4489,17.8773
	c-0.0134,5.3403-0.0195,8.0099-0.0342,13.3488c-2.3959,0-3.5923,0-5.9952,0.0475
	C393.2785,99.6791,393.2264,97.0095,393.1283,91.6691z M422.4631,92.1884c0.1414-1.7843,0.2142-2.6845,0.3526-4.4804
	c0.9033-7.934,2.1932-14.0485,12.721-12.7451c5.8776,0.7143,8.7526,4.0239,8.5189,9.3137
	c-0.0341,0.7871-0.0475,1.5877-0.2097,2.3749c-2.5224-0.3809-3.7871-0.5549-6.3137-0.8615
	c-0.0208-2.0415,0.6829-5.7588-2.537-6.1279c-5.1353-0.601-5.2648,4.9329-5.5117,7.3584c-0.3483,3.4567-0.5193,5.1917-0.8734,8.6484
	c-0.2575,2.5964-0.4675,6.7913,3.6783,7.2703c3.3272,0.3824,3.592-4.7854,3.973-6.7659c2.4956,0.308,3.7454,0.4791,6.2348,0.8481
	c-0.131,0.5775-0.2722,1.1949-0.3986,1.7605c-1.1906,5.5607-3.7188,9.6199-10.3491,8.858
	C421.9719,106.4956,421.8024,100.5287,422.4631,92.1884z M453.9391,96.5661c0.4434,0.0862,0.6637,0.1234,1.1071,0.21
	c1.7706,0.3331,3.5951,0.6516,5.1752,1.4521c1.997,1.0209,1.3884,3.592,1.0252,5.4863c-0.3971,2.0565-1.3421,5.7944-1.0547,7.9118
	c2.5919,0.5656,3.8879,0.8615,6.4697,1.5015c0.0552-0.2353,0.0847-0.3453,0.1399-0.579c-1.2083-1.244,0.7381-8.6868,1.0432-9.9533
	c0.6979-2.9283,0.11-5.3641-3.4732-6.6307c0.0046-0.0387,0.0061-0.0505,0.0165-0.0862c4.296,0.3928,6.0742-2.8555,6.8748-6.1885
	c1.3452-5.6234-2.5266-8.3793-8.1858-9.5352c-4.9579-1.0209-7.4459-1.4896-12.4293-2.3124
	c-2.0461,12.3876-3.0728,18.5764-5.1188,30.967c2.3749,0.3928,3.5594,0.6013,5.9297,1.0447
	C452.4495,104.5403,452.945,101.8827,453.9391,96.5661z M456.3779,83.5266c1.9254,0.3557,2.8793,0.54,4.8019,0.9331
	c2.4313,0.5431,3.9208,1.4656,3.1755,4.9089c-0.6638,3.0654-2.5416,3.9388-4.6279,3.6307
	c-1.9775-0.3943-2.9628-0.5894-4.9433-0.9612C455.421,88.6305,455.7426,86.9343,456.3779,83.5266z M473.7579,105.1044
	c2.2112-8.464,3.3169-12.6945,5.5281-21.1731c2.5949,0.6906,3.891,1.0328,6.4728,1.7724c-2.3316,8.2314-3.5027,12.34-5.8359,20.5715
	c-0.8216,2.8899-1.4317,5.8301,2.5653,7.0235c3.8255,1.1562,4.9357-1.6368,5.8432-4.5011
	c2.5803-8.1575,3.8706-12.2435,6.4463-20.3875c2.5669,0.7991,3.8465,1.2294,6.3985,2.0909
	c-2.811,8.2927-4.2186,12.4382-7.0339,20.7191c-2.2335,6.5815-5.4879,8.8699-13.0559,6.5934
	C473.4352,115.5264,471.9992,111.8362,473.7579,105.1044z M514.2574,100.2087c-3.7246-1.4762-5.5952-2.1783-9.3508-3.5311
	c0.622-1.7334,0.9331-2.5949,1.5563-4.3301c7.4404,2.6696,11.1306,4.1339,18.4396,7.2841c-0.7454,1.72-1.116,2.5815-1.8583,4.3048
	c-7.3136,5.327-10.8508,8.0828-17.6853,13.7791c-0.8332,0.6635-2.6114,1.9446-2.6114,1.9446
	c0.0089,0.0612,1.5311,0.454,2.2722,0.7484c3.8779,1.5134,5.8094,2.314,9.6467,3.976c-0.732,1.6859-1.101,2.5343-1.83,4.2202
	c-6.9848-3.0267-10.5204-4.4045-17.642-6.9507c0.6293-1.7617,0.9478-2.647,1.5728-4.4194
	c6.6261-5.903,10.0621-8.7703,17.1746-14.3191c0.8676-0.64,2.7501-1.8586,2.7501-1.8586
	C516.6856,100.9974,515.0533,100.5168,514.2574,100.2087z M348.3434,696.6695c-2.8896,10.5323-4.3347,15.7968-7.2289,26.3141
	c-2.3109-0.625-3.461-0.973-5.7615-1.6605c0.9998-3.2827,1.4984-4.9344,2.494-8.2199c1.5758-5.1752,3.2766-10.3327,5.1721-15.4247
	c-0.0326-0.015-0.0475-0.015-0.0774-0.0269c-5.0606,8.8596-7.7225,13.2256-13.3146,21.853
	c-1.3884-0.4733-2.0817-0.7025-3.4598-1.1964c0.9124-10.2108,1.5091-15.3056,2.9731-25.3914
	c-0.0759-0.0269-0.11-0.0387-0.1813-0.0625c-1.6279,5.1782-3.4494,10.3001-5.3882,15.3683
	c-1.2275,3.1962-1.8406,4.7973-3.067,8.0054c-2.2588-0.86-3.3836-1.3034-5.6216-2.235
	c4.1783-10.0767,6.2677-15.1212,10.4473-25.2098c3.1279,1.2915,4.7038,1.9047,7.8673,3.0621
	c-0.6683,5.1426-0.9626,7.726-1.4911,12.9072c-0.2246,2.1128-0.5994,4.2201-1.052,6.2972c0.0329,0.0119,0.0491,0.0119,0.0789,0.0238
	c1.1486-2.4611,1.9269-4.1071,2.8735-5.6722c2.7616-4.4164,4.1068-6.6307,6.733-11.1095
	C343.5297,695.3124,345.1248,695.7976,348.3434,696.6695z M353.0591,697.8988c5.7377,1.4253,8.6289,2.0297,14.4367,3.0146
	c-0.2693,1.5743-0.4004,2.3599-0.6683,3.9343c-3.8243-0.6367-5.7244-1.0087-9.5187-1.845
	c-0.5921,2.6961-0.8826,4.0355-1.4731,6.7197c3.6127,0.8006,5.4269,1.1428,9.0665,1.7828c-0.2736,1.5743-0.4092,2.363-0.6814,3.9373
	c-3.7112-0.64-5.5594-0.9968-9.2408-1.8096c-0.7232,3.2858-1.0815,4.9225-1.8063,8.208c4.165,0.9078,6.251,1.3152,10.4397,2.0296
	c-0.2664,1.5743-0.4016,2.3599-0.668,3.9462c-6.6157-1.116-9.9192-1.8063-16.4545-3.4284
	C349.1187,713.7938,350.434,708.5052,353.0591,697.8988z M383.9576,702.9667c2.0775,0.1697,3.1176,0.2472,5.2035,0.3572
	c-0.6101,10.9102-0.9178,16.3505-1.5192,27.2485c-2.476-0.1338-3.7127-0.217-6.1857-0.4315
	c-1.5222-4.0175-2.2408-6.0471-3.5978-10.0828c-1.1562-3.3867-1.9702-6.8208-2.7037-11.2344c-0.0329,0-0.0448,0-0.0746-0.0119
	c-0.0936,2.2618-0.1963,5.0444-0.3691,7.8003c-0.1694,2.7321-0.3702,5.4641-0.6308,7.6274
	c-0.2456,2.0415-0.369,3.0624-0.6144,5.1039c-2.363-0.2947-3.543-0.4403-5.9001-0.8005
	c1.5908-10.7968,2.3913-16.2015,3.9791-27.0045c2.1426,0.3243,3.2141,0.4702,5.3657,0.7144
	c1.1428,4.1454,1.7544,6.2137,3.067,10.3358c1.0949,3.2855,2.0043,6.6188,3.0502,11.157c0.0344,0,0.0479,0,0.082,0
	c-0.0118-2.4849-0.0015-5.1395,0.0506-7.7643c0.0552-2.6309,0.1533-5.2498,0.3541-7.6872
	C383.6912,706.1632,383.782,705.0948,383.9576,702.9667z M410.7941,706.425c-1.7648-2.4492-4.299-2.9045-5.5668-2.8688
	c-4.3451,0.1249-6.5203,0.1249-10.8669-0.0119c-0.3124,10.9133-0.4763,16.377-0.7887,27.2872
	c4.3942,0.1249,6.5935,0.1368,10.9907,0.0536c1.485-0.0417,3.0966-0.1636,4.3777-0.8749c4.7659-2.6339,4.324-8.8955,3.9894-14.2581
	C412.6466,711.2314,412.1021,708.2584,410.7941,706.425z M402.0637,726.9091c-1.0206,0.0118-1.5295,0.0118-2.5443,0.0118
	c0.0176-7.7137,0.0253-11.5648,0.0402-19.2758c1.3985,0,2.0963,0,3.4966-0.0298c3.1919-0.0594,3.9657,2.4495,4.1887,8.8867
	C407.5205,724.3882,407.2676,726.8616,402.0637,726.9091z M436.8343,711.7761c-1.4731-6.7913-2.9091-11.6008-11.1677-10.4937
	c-8.2552,1.0922-8.3683,6.1129-8.0126,13.0529c0.1353,1.5506,0.2008,2.3362,0.3361,3.8868
	c0.6174,7.2465,1.7245,12.6987,11.4502,11.4072c9.7241-1.2918,9.388-6.8568,8.0904-14.0143
	C437.2524,714.0765,437.1156,713.3147,436.8343,711.7761z M428.8987,725.5579c-3.9818,0.5239-4.6099-3.1395-4.8598-5.3925
	c-0.3468-2.9999-0.5135-4.5026-0.8542-7.5175c-0.2396-2.089-1.1175-6.7376,3.0267-7.2941c3.9147-0.5181,4.5294,4.2317,4.8582,6.3984
	c0.4227,2.7558,0.6339,4.1454,1.0596,6.9013C432.5222,721.2488,433.0518,725.0014,428.8987,725.5579z M460.4996,718.3707
	c0.4419,1.5387,0.6637,2.3005,1.1056,3.8361c-7.1618,2.0802-10.7822,2.9673-18.0601,4.4194c-0.3182-1.613-0.476-2.4017-0.793-4.0117
	c2.6278-7.4193,3.7856-11.1451,5.7795-18.627c0.2575-0.8868,0.8646-2.6934,0.8646-2.6934
	c-0.0284-0.0268-1.3065,0.4434-1.9791,0.6162c-3.1206,0.7618-4.683,1.119-7.827,1.7468c-0.32-1.5655-0.4791-2.3511-0.8006-3.9135
	c6.0175-1.2321,9.0071-1.958,14.9368-3.6515c0.4465,1.5713,0.668,2.3481,1.116,3.9105c-1.695,7.5294-2.6979,11.306-5.0326,18.8113
	c-0.2962,0.8959-1.0386,2.7083-1.0386,2.7083c0.0237,0.0356,1.4418-0.4434,2.1829-0.6189
	C454.7872,719.981,456.6964,719.463,460.4996,718.3707z M461.9551,693.53c0.9033,11.2226,1.1696,16.8561,1.3333,28.1978
	c2.4669-0.738,3.6975-1.119,6.1455-1.9165c-0.2575-2.8333-0.3974-4.2469-0.6978-7.0622c2.5918-0.8749,3.8821-1.3302,6.4517-2.2767
	c1.5448,2.3749,2.3273,3.5563,3.9047,5.9163c2.4194-0.9194,3.6262-1.4046,6.0248-2.3956
	c-6.8983-8.9577-10.1868-13.535-16.438-22.8498C465.9979,692.1519,464.6542,692.634,461.9551,693.53z M472.9409,707.0262
	c-1.8464,0.6902-2.772,1.0087-4.6291,1.6517c-0.3511-3.1636-0.5357-4.726-0.9374-7.8777c-0.1621-1.2915-0.4346-2.5443-0.7396-3.7526
	c-0.1503-0.5894-0.3035-1.2144-0.4269-1.7828c0.0311-0.0118,0.046-0.0237,0.0774-0.0237c0.2633,0.5147,0.5342,1.0922,0.7872,1.6487
	c0.5236,1.119,1.101,2.2767,1.7928,3.369C470.477,702.9789,471.2864,704.3329,472.9409,707.0262z"/>
<g>
</g>
<g>
</g>
<g>
</g>
<g>
</g>
<g>
</g>
<g>
</g>
<g>
</g>
<g>
</g>
<g>
</g>
<g>
</g>
<g>
</g>
<g>
</g>
<g>
</g>
<g>
</g>
<g>
</g>
</svg>
