<?xml version="1.0" encoding="UTF-8"?>
<svg data-name="图层_1" xmlns="http://www.w3.org/2000/svg" version="1.1" viewBox="0 0 800 800">
  <!-- Created by @FCLOGO 2025-1-9 GMT+8 10:42:11 . https://fclogo.top/ -->
<!-- FOR PERSONAL USE ONLY NOT FOR COMMERCIAL USE -->
  <path d="M348.2194,774.301c-.786,0-1.3752-.2173-1.7682-.6519-.393-.4352-.5284-1.03-.406-1.7856l.2518-1.6478c.122-.755.4501-1.3504.9841-1.785.5339-.4352,1.1939-.6525,1.9799-.6525.7553,0,1.3293.1987,1.7223.5954.3927.3967.551.9381.4747,1.6248h-1.2358c.0304-.3589-.0553-.637-.2573-.8357-.2024-.1981-.4979-.2974-.8869-.2974-.4197,0-.763.1167-1.03.3489-.2673.2328-.4349.5631-.5035.9903l-.2632,1.659c-.0686.4352-.0056.7686.1887,1.0015.1946.2328.5017.3489.9214.3489.389,0,.7152-.0987.9785-.2974.2632-.1981.4365-.4805.5206-.8469h1.2358c-.1372.6867-.4672,1.2306-.9897,1.631-.5228.4005-1.1616.6004-1.9169.6004ZM352.7967,774.1868l.9956-6.2943h1.1902l-.1946,1.1902c.3359-.8698.9729-1.3044,1.9113-1.3044.6712,0,1.1691.208,1.4932.624.3244.416.4293.9859.3148,1.7105l-.0686.4234h-1.2703l.0571-.3204c.0689-.4501.0115-.7953-.1714-1.0356-.1832-.2403-.4771-.3607-.8813-.3607-.4045,0-.7401.1223-1.007.3663-.2673.2446-.4349.588-.5035,1.03l-.6296,3.9711h-1.2358ZM361.9058,774.301c-.7705,0-1.3463-.2229-1.7279-.6693s-.515-1.0356-.4005-1.7682l.2518-1.6478c.0838-.488.2573-.9152.5206-1.2815s.6007-.6507,1.0129-.8524c.4119-.2024.8732-.3036,1.3845-.3036.7705,0,1.3485.2235,1.7338.6693.3852.4464.5169,1.0356.3949,1.7682l-.1717,1.1213h-3.845l-.0916.5265c-.1527.9536.2173,1.4305,1.1098,1.4305.7171,0,1.175-.2477,1.3734-.7438h1.2247c-.1679.5339-.5035.9599-1.007,1.2759-.5038.3166-1.0912.475-1.7626.475ZM361.2306,770.2157l-.0456.2862,2.6548-.0118.0459-.2856c.0686-.4656.0133-.822-.1661-1.0704-.1791-.2477-.4861-.3719-.9211-.3719-.4427,0-.7953.126-1.0586.3775-.2632.2521-.4331.6109-.5094,1.076ZM368.3258,774.301c-.6333,0-1.1027-.2117-1.4078-.6351s-.3967-1.0008-.2744-1.7335l.2744-1.7738c.1145-.7326.393-1.3119.8357-1.7397.4424-.4272.98-.6407,1.6133-.6407.4653,0,.8298.1186,1.093.3545.2632.2365.3908.5575.3834.9617h.023l.1717-1.202h1.2358l-.9956,6.2943h-1.2247l.1946-1.2014h-.023c-.122.4116-.3511.7339-.6867.9667s-.7401.3489-1.2129.3489ZM368.9324,773.2257c.389,0,.7152-.1186.9782-.3551.2632-.2359.4293-.5718.4979-1.007l.2518-1.6478c.0686-.4272.0096-.7612-.1773-1.0015-.1872-.2403-.475-.3601-.8642-.3601-.3967,0-.7249.118-.9841.3545-.2595.2365-.4234.5724-.492,1.007l-.2518,1.6478c-.0686.4427-.0133.7804.1658,1.0133.1794.2328.4712.3489.8757.3489ZM376.3477,774.1868c-.5721,0-.9937-.1565-1.2644-.4694-.271-.3123-.3607-.7512-.2691-1.3156l.538-3.3874h-1.7394l.1714-1.1219h1.7397l.2747-1.7161h1.2358l-.2747,1.7161h2.472l-.1832,1.1219h-2.4605l-.5377,3.3874c-.0764.4421.099.6637.5262.6637h1.7167l-.1717,1.1213h-1.7738ZM382.5042,774.301c-.7705,0-1.3463-.2229-1.7279-.6693s-.515-1.0356-.4005-1.7682l.2518-1.6478c.0838-.488.2573-.9152.5206-1.2815s.6007-.6507,1.0129-.8524c.4119-.2024.8732-.3036,1.3845-.3036.7705,0,1.3485.2235,1.7338.6693.3852.4464.5169,1.0356.3949,1.7682l-.1717,1.1213h-3.845l-.0916.5265c-.1527.9536.2173,1.4305,1.1098,1.4305.7171,0,1.175-.2477,1.3734-.7438h1.2247c-.1679.5339-.5035.9599-1.007,1.2759-.5038.3166-1.0912.475-1.7626.475ZM381.829,770.2157l-.0456.2862,2.6548-.0118.0459-.2856c.0686-.4656.0133-.822-.1661-1.0704-.1791-.2477-.4861-.3719-.9211-.3719-.4427,0-.7953.126-1.0586.3775-.2632.2521-.4331.6109-.5094,1.076ZM388.9243,774.301c-.6333,0-1.1008-.2117-1.4019-.6351-.3014-.4234-.3949-1.0008-.2803-1.7335l.2744-1.7738c.1145-.7326.393-1.3119.8357-1.7397.4424-.4272.98-.6407,1.6133-.6407.4653,0,.8298.1186,1.093.3545.2632.2365.3908.5575.3834.9617h.023l.2058-1.4652.2977-1.7962h1.2358l-1.3274,8.3537h-1.2247l.1946-1.2014h-.023c-.122.4116-.3511.7339-.6867.9667s-.7401.3489-1.2129.3489ZM389.5309,773.2257c.389,0,.7152-.1186.9782-.3551.2632-.2359.4293-.5718.4979-1.007l.2518-1.6478c.0761-.4272.0189-.7612-.1717-1.0015-.1909-.2403-.4805-.3601-.8698-.3601-.3967,0-.7249.118-.9841.3545-.2595.2365-.4234.5724-.492,1.007l-.2518,1.6478c-.0764.4427-.023.7804.1602,1.0133s.4768.3489.8813.3489ZM401.0175,774.301c-.4731,0-.8394-.1161-1.0986-.3489-.2595-.2328-.3852-.5551-.3775-.9667h-.0115l-.1946,1.2014h-1.2243l1.3274-8.3537h1.2358l-.2862,1.7962-.2744,1.4652h.0456c.122-.4123.353-.7345.6923-.9673.3396-.2322.7419-.3489,1.2076-.3489.633,0,1.1002.2136,1.4016.6407.3014.4278.3949,1.007.2806,1.7397l-.2747,1.7738c-.1145.7326-.3949,1.31-.8413,1.7335-.4461.4234-.9822.6351-1.6077.6351ZM400.7657,773.2257c.3967,0,.7227-.1161.9785-.3489.2555-.2328.4216-.5706.4976-1.0133l.2518-1.6478c.0689-.4346.0115-.7705-.1714-1.007-.1832-.2365-.4734-.3545-.8698-.3545-.3893,0-.7152.1198-.9785.3601s-.429.5743-.4979,1.0015l-.2518,1.6478c-.0686.4352-.0112.7711.1717,1.007.1832.2365.4731.3551.8698.3551ZM405.4694,776.2468l.1717-1.0642h1.934c.6407,0,1.007-.3017,1.0986-.9046l.1028-.6749.2061-1.1902h-.0345c-.122.4197-.3471.7438-.6752.9729-.3281.2285-.7286.3433-1.2014.3433-.6258,0-1.093-.2005-1.4019-.601s-.4104-.9443-.3033-1.631l.5836-3.6047h1.2358l-.5606,3.4793c-.0612.4116,0,.732.1832.9611s.4653.3433.8469.3433c.389,0,.7168-.1217.9841-.3663.267-.244.4309-.5836.492-1.0182l.538-3.3992h1.2358l-1.007,6.4086c-.0993.6029-.37,1.0778-.8124,1.4249-.4427.3471-.9996.5209-1.6707.5209h-1.9455ZM417.787,770.0853h3.221l.5368-1.8545h-5.4659l-1.7081,6.4419h2.1473l.5856-2.0985h3.0257l.4392-1.7081h-3.0257l.244-.7808ZM424.229,772.9158c-.5856,0-1.0249-.3904-1.0249-1.1225,0-.8784.6344-1.7569,1.6105-1.7569.488,0,.8784.244,1.0248.7808l1.9521-.8296c-.2928-1.1713-1.2689-1.9033-2.6353-1.9033-2.7817,0-4.1482,2.1473-4.1482,3.9042s1.2689,2.8305,3.0746,2.8305c1.3665,0,2.3425-.5856,2.9769-1.4153l-1.5129-1.1713c-.3904.4392-.8296.6832-1.3177.6832ZM430.9149,768.2308h-2.1473l-1.7569,6.4419h5.1242l.488-1.8545h-2.9281l1.2201-4.5874ZM439.7481,771.0125c0-1.6593-1.3177-2.9281-3.221-2.9281-2.1961,0-3.8066,1.8057-3.8066,3.8066,0,1.6593,1.3177,2.9281,3.221,2.9281,2.1961,0,3.8066-1.8057,3.8066-3.8066ZM434.9167,771.6957c0-.8296.5856-1.7081,1.5129-1.7081.7808,0,1.1713.5368,1.1713,1.2201,0,.8296-.5856,1.7081-1.5129,1.7081-.7808,0-1.1713-.5368-1.1713-1.2201ZM443.2131,772.2326h1.0737l-.1952.6832c-.1464.0488-.3416.0976-.5856.0976-.6832,0-1.2689-.3904-1.2689-1.2201,0-1.0249.732-1.9033,1.9521-1.9033.5856,0,1.1225.244,1.5129.5856l1.3665-1.3665c-.4392-.5368-1.5129-1.0737-2.7329-1.0737-2.5865,0-4.2946,1.7569-4.2946,3.8554,0,2.0497,1.6105,2.8793,3.221,2.8793.9272,0,1.8545-.2928,2.4889-.6832l.9272-3.3186h-3.1234l-.3416,1.4641ZM450.7775,768.0844c-2.1961,0-3.8066,1.8057-3.8066,3.8066,0,1.6593,1.3177,2.9281,3.221,2.9281,2.1961,0,3.8066-1.8057,3.8066-3.8066,0-1.6593-1.3177-2.9281-3.221-2.9281ZM450.3382,772.9158c-.7808,0-1.1713-.5368-1.1713-1.2201,0-.8296.5856-1.7081,1.5129-1.7081.7808,0,1.1713.5368,1.1713,1.2201,0,.8296-.5856,1.7081-1.5129,1.7081ZM437.9424,767.4987c-.0488.2928.0976.488.4392.488s.5368-.1952.6344-.488c.0488-.244-.0976-.488-.4392-.488s-.5856.244-.6344.488ZM432.1349,765.4978c-.4392,0-.732.244-.7808.5856s.0976.5856.5368.5856.732-.244.7808-.5856c.0976-.3416-.0976-.5856-.5368-.5856ZM433.0134,767.3035c-.0976.5368.1464.8784.8296.8784.6344,0,1.0737-.3904,1.1713-.8784s-.1464-.8784-.8296-.8784c-.6832,0-1.0737.3904-1.1713.8784ZM439.6017,777.552l-2.4401-1.8057h-1.5129l4.2458,3.1722,1.6105-3.1722h-.976l-.9272,1.8057ZM425.8394,767.1571l-2.0009-1.4641,23.1323-2.7817-2.1473,4.2458h1.0248l2.6841-5.3195-26.9877,3.221,2.7817,2.0985h1.5129ZM338.7186,785.7853l.6088-3.8315h2.32l-.084.5194h-1.7636l-.1837,1.1445h1.6272l-.084.5248h-1.6166l-.2573,1.6428h-.5668ZM342.97,785.8377c-.3568,0-.6228-.1005-.7978-.3019-.175-.201-.2345-.473-.1784-.8161l.2677-1.7006c.056-.3429.2029-.6148.4408-.8161.2379-.201.5355-.3019.8923-.3019s.6228.1.7979.2993c.1748.1993.2361.4707.1837.8136l-.2677,1.7057c-.0561.3431-.2039.6151-.4435.8161-.2398.2013-.5381.3019-.895.3019ZM343.0487,785.3339c.1925,0,.3483-.0524.4672-.1575.119-.1051.1942-.2571.2257-.4568l.2678-1.7006c.0315-.1993.0051-.3517-.0787-.4565-.084-.1051-.2223-.1575-.4148-.1575s-.3473.0524-.4645.1575c-.1173.1048-.1916.2571-.2231.4565l-.2677,1.7006c-.0315.1996-.0053.3517.0787.4568s.2204.1575.4094.1575ZM344.9961,785.7853l.6088-3.8315h1.202c.2379,0,.4391.0464.6036.139.1645.0928.2835.223.357.391s.091.3656.0524.5932c-.0384.2591-.14.4838-.3044.6746-.1645.1905-.3656.3209-.6036.391l.5354,1.6428h-.6194l-.4777-1.5748h-.5406l-.2466,1.5748h-.5668ZM345.8883,783.7068h.6352c.1889,0,.349-.0558.4803-.168.1313-.1119.2107-.2623.2388-.4514.0316-.1925,0-.3454-.0944-.4593-.0945-.1136-.2362-.1706-.4252-.1706h-.6352l-.1995,1.2493ZM349.545,785.7853l.6088-3.8315h1.2544c.3709,0,.6508.1048.8399.315.1889.2099.2553.4898.1993.8398-.0384.2344-.1216.4383-.2493.6114s-.2905.307-.4881.4015c-.1978.0945-.419.1418-.6639.1418h-.6928l-.2415,1.5221h-.5668ZM350.432,783.754h.6928c.1924,0,.3568-.0587.4934-.176.1364-.117.2204-.2737.2519-.4696s-.0017-.3525-.0997-.4699-.245-.1757-.441-.1757h-.6876l-.2099,1.2911ZM352.7466,785.7853l.6088-3.8315h2.2518l-.0787.5038h-1.6954l-.1731,1.0867h1.5115l-.0787.4986h-1.5115l-.1942,1.2387h1.6901l-.0787.5038h-2.2518ZM355.8434,785.7853l.6088-3.8315h1.202c.2379,0,.4391.0464.6036.139.1645.0928.2835.223.357.391s.091.3656.0524.5932c-.0384.2591-.14.4838-.3044.6746-.1645.1905-.3656.3209-.6036.391l.5354,1.6428h-.6194l-.4777-1.5748h-.5406l-.2466,1.5748h-.5668ZM356.7356,783.7068h.6352c.1889,0,.349-.0558.4803-.168.1313-.1119.2107-.2623.2388-.4514.0316-.1925,0-.3454-.0944-.4593-.0945-.1136-.2362-.1706-.4252-.1706h-.6352l-.1995,1.2493ZM360.1316,785.8377c-.385,0-.6736-.0951-.8661-.2859-.1924-.1908-.2641-.4505-.2151-.7794h.5668c-.028.1748.0105.3121.1155.4121.1051.0997.266.1495.483.1495.2029,0,.3701-.049.5012-.1469.1313-.098.2109-.2327.2389-.4044.0209-.1504.0007-.2788-.0604-.3856-.0614-.1068-.1583-.1811-.2913-.2233l-.4566-.1364c-.266-.0803-.4619-.217-.5879-.4095-.126-.1922-.1697-.4197-.1313-.6823.035-.2099.1121-.3935.2309-.551s.2729-.2799.4619-.3673.4024-.1313.6404-.1313c.3498,0,.6158.0954.7978.2859.182.1908.2485.4437.1995.7586h-.5668c.0279-.168-.0027-.3001-.092-.3964-.0891-.0963-.2301-.1444-.4225-.1444-.1889,0-.343.0447-.4619.1338-.119.0894-.1889.2144-.21.3753-.0245.1506-.007.2791.0525.3859s.1575.1811.2939.223l.4672.1469c.2624.0806.4558.2173.5801.4095.1242.1925.1653.4217.1233.6877-.035.217-.1155.4058-.2415.5667-.1259.1612-.2878.2862-.4855.3753-.1976.0894-.419.1338-.6639.1338ZM363.2651,785.8377c-.3568,0-.6228-.1005-.7978-.3019-.175-.201-.2345-.473-.1784-.8161l.2677-1.7006c.056-.3429.2029-.6148.4408-.8161.2379-.201.5355-.3019.8923-.3019s.6228.1.7979.2993c.1748.1993.2361.4707.1837.8136l-.2677,1.7057c-.0561.3431-.2039.6151-.4435.8161-.2398.2013-.5381.3019-.895.3019ZM363.3439,785.3339c.1925,0,.3483-.0524.4672-.1575.119-.1051.1942-.2571.2257-.4568l.2678-1.7006c.0315-.1993.0051-.3517-.0787-.4565-.084-.1051-.2223-.1575-.4148-.1575s-.3473.0524-.4645.1575c-.1173.1048-.1916.2571-.2231.4565l-.2677,1.7006c-.0315.1996-.0053.3517.0787.4568s.2204.1575.4094.1575ZM365.2754,785.7853l.6088-3.8315h.7086l.6194,3.186c.007-.098.0165-.217.0289-.3571.0121-.1398.0271-.2851.0446-.4354.0175-.1506.0367-.2888.0577-.4146l.315-1.9788h.525l-.609,3.8315h-.7085l-.6141-3.186c-.0071.0945-.0167.209-.0289.3437s-.0272.2757-.0446.4226c-.0177.1469-.0367.2833-.0578.4095l-.315,2.0102h-.5301ZM368.2252,785.7853l1.5851-3.8315h.7454l.3726,3.8315h-.5616l-.0735-.9711h-1.0865l-.3884.9711h-.5932ZM369.3852,784.3418h.8714l-.0893-1.1023c-.0175-.1959-.0298-.3654-.0367-.5089-.0071-.1435-.0105-.2432-.0105-.2993-.0175.0561-.0517.1558-.1024.2993s-.1146.3112-.1915.5038l-.441,1.1075ZM371.7208,785.7853l.6088-3.8315h.567l-.525,3.3118h1.6744l-.0787.5197h-2.2465ZM376.6785,785.8377c-.3673,0-.6342-.1005-.8003-.3019-.1663-.201-.2214-.475-.1654-.8213l.4357-2.7608h.567l-.4357,2.7554c-.0315.1962-.008.35.0708.4619.0787.1122.2144.168.4068.168.1925,0,.3473-.0558.4646-.168.1172-.1119.1915-.2657.2231-.4619l.4355-2.7554h.567l-.4357,2.7608c-.056.35-.2003.6245-.433.8241-.2328.1993-.5328.299-.9003.299ZM379.8435,785.8377c-.385,0-.6736-.0951-.8661-.2859-.1924-.1908-.2641-.4505-.2151-.7794h.5668c-.028.1748.0105.3121.1155.4121.1051.0997.266.1495.483.1495.2029,0,.3701-.049.5012-.1469.1313-.098.2109-.2327.2389-.4044.0209-.1504.0007-.2788-.0604-.3856-.0614-.1068-.1583-.1811-.2913-.2233l-.4566-.1364c-.266-.0803-.4619-.217-.5879-.4095-.126-.1922-.1697-.4197-.1313-.6823.035-.2099.1121-.3935.2309-.551s.2729-.2799.4619-.3673.4024-.1313.6404-.1313c.3498,0,.6158.0954.7978.2859.182.1908.2485.4437.1995.7586h-.5668c.0279-.168-.0027-.3001-.092-.3964-.0891-.0963-.2301-.1444-.4225-.1444-.1889,0-.343.0447-.4619.1338-.119.0894-.1889.2144-.21.3753-.0245.1506-.007.2791.0525.3859s.1575.1811.2939.223l.4672.1469c.2624.0806.4558.2173.5801.4095.1242.1925.1653.4217.1233.6877-.035.217-.1155.4058-.2415.5667-.1259.1612-.2878.2862-.4855.3753-.1976.0894-.419.1338-.6639.1338ZM381.9062,785.7853l.6088-3.8315h2.2518l-.0787.5038h-1.6954l-.1731,1.0867h1.5115l-.0787.4986h-1.5115l-.1942,1.2387h1.6901l-.0787.5038h-2.2518ZM386.9426,785.8377c-.3568,0-.6228-.1005-.7978-.3019-.175-.201-.2345-.473-.1784-.8161l.2677-1.7006c.056-.3429.2029-.6148.4408-.8161.2379-.201.5355-.3019.8923-.3019s.6228.1.7979.2993c.1748.1993.2361.4707.1837.8136l-.2677,1.7057c-.0561.3431-.2039.6151-.4435.8161-.2398.2013-.5381.3019-.895.3019ZM387.0213,785.3339c.1925,0,.3483-.0524.4672-.1575.119-.1051.1942-.2571.2257-.4568l.2678-1.7006c.0315-.1993.0051-.3517-.0787-.4565-.084-.1051-.2223-.1575-.4148-.1575s-.3473.0524-.4645.1575c-.1173.1048-.1916.2571-.2231.4565l-.2677,1.7006c-.0315.1996-.0053.3517.0787.4568s.2204.1575.4094.1575ZM388.9529,785.7853l.6088-3.8315h.7086l.6194,3.186c.007-.098.0165-.217.0289-.3571.0121-.1398.0271-.2851.0446-.4354.0175-.1506.0367-.2888.0577-.4146l.315-1.9788h.525l-.609,3.8315h-.7085l-.6141-3.186c-.0071.0945-.0167.209-.0289.3437s-.0272.2757-.0446.4226c-.0177.1469-.0367.2833-.0578.4095l-.315,2.0102h-.5301ZM392.249,785.7853l.6088-3.8315h.567l-.525,3.3118h1.6744l-.0787.5197h-2.2465ZM396.1174,785.7853l.2204-1.4119-.7506-2.4197h.5774l.4462,1.4486c.0279.0945.0498.1837.0656.2677.0157.084.0253.1469.0288.1888.0175-.0419.0464-.1048.0867-.1888.0402-.084.0883-.1731.1442-.2677l.8976-1.4486h.5984l-1.5275,2.4197-.2204,1.4119h-.5668ZM399.217,785.7853l.6088-3.8315h.7086l.6192,3.186c.0071-.098.0165-.217.029-.3571.012-.1398.0271-.2851.0444-.4354.0177-.1506.037-.2888.0578-.4146l.315-1.9788h.5248l-.6088,3.8315h-.7085l-.6141-3.186c-.0071.0945-.0167.209-.0289.3437s-.0272.2757-.0446.4226c-.0177.1469-.0367.2833-.0578.4095l-.315,2.0102h-.5301ZM403.5053,785.8377c-.3571,0-.6231-.1005-.7979-.3019-.1751-.201-.2344-.473-.1785-.8161l.2677-1.7006c.0561-.3429.203-.6148.4411-.8161.2378-.201.5354-.3019.8922-.3019.3571,0,.6228.1.7979.2993.1748.1993.2361.4707.1837.8136l-.2677,1.7057c-.0561.3431-.2039.6151-.4437.8161-.2395.2013-.5379.3019-.8947.3019ZM403.5839,785.3339c.1925,0,.3483-.0524.4673-.1575.1187-.1051.1942-.2571.2255-.4568l.2677-1.7006c.0316-.1993.0054-.3517-.0786-.4565-.084-.1051-.2224-.1575-.4146-.1575-.1925,0-.3474.0524-.4647.1575-.117.1048-.1914.2571-.223.4565l-.2677,1.7006c-.0316.1996-.0051.3517.0789.4568.0837.1051.2204.1575.4092.1575ZM406.3814,785.7853l.5248-3.3121h-1.0234l.084-.5194h2.6193l-.084.5194h-1.0289l-.5248,3.3121h-.567ZM409.5178,785.7853l.6088-3.8315h2.32l-.084.5194h-1.7636l-.1837,1.1445h1.6272l-.084.5248h-1.6166l-.2571,1.6428h-.567ZM413.7694,785.8377c-.3571,0-.6231-.1005-.7979-.3019-.1751-.201-.2344-.473-.1785-.8161l.2677-1.7006c.0561-.3429.203-.6148.4411-.8161.2378-.201.5354-.3019.8922-.3019.3571,0,.6228.1.7979.2993.1748.1993.2361.4707.1837.8136l-.2677,1.7057c-.0561.3431-.2039.6151-.4437.8161-.2395.2013-.5379.3019-.8947.3019ZM413.848,785.3339c.1925,0,.3483-.0524.4673-.1575.1187-.1051.1942-.2571.2255-.4568l.2677-1.7006c.0316-.1993.0054-.3517-.0786-.4565-.084-.1051-.2224-.1575-.4146-.1575-.1925,0-.3474.0524-.4647.1575-.117.1048-.1914.2571-.223.4565l-.2677,1.7006c-.0316.1996-.0051.3517.0789.4568.0837.1051.2204.1575.4092.1575ZM415.7952,785.7853l.6088-3.8315h1.202c.2381,0,.4391.0464.6037.139.1643.0928.2833.223.3568.391s.0911.3656.0527.5932c-.0387.2591-.1401.4838-.3044.6746-.1646.1905-.3659.3209-.6037.391l.5354,1.6428h-.6194l-.4776-1.5748h-.5408l-.2466,1.5748h-.567ZM416.6876,783.7068h.635c.1891,0,.3491-.0558.4804-.168.131-.1119.2107-.2623.2386-.4514.0316-.1925,0-.3454-.0945-.4593-.0943-.1136-.2361-.1706-.4252-.1706h-.635l-.1993,1.2493ZM420.905,785.8377c-.3602,0-.6308-.1005-.8107-.3019-.1803-.201-.2423-.473-.1865-.8161l.2677-1.7006c.0561-.3463.2056-.6194.4488-.8187s.545-.2993.9056-.2993c.3568,0,.6253.1008.8056.3019.1803.2013.2423.4733.1865.8161h-.567c.0313-.1993.0026-.3517-.0866-.4565-.0894-.1051-.2284-.1575-.4175-.1575-.1925,0-.3508.0524-.475.1575-.1242.1048-.2019.2554-.2335.4514l-.2677,1.7057c-.0316.1996-.0026.3517.0866.4568.0894.1051.2301.1575.4226.1575s.35-.0524.4724-.1575.1993-.2571.2309-.4568h.5667c-.0347.2275-.1145.4252-.2386.5932s-.2808.2976-.4699.3884c-.1888.0908-.4024.1364-.6404.1364ZM424.0335,785.8377c-.3571,0-.6231-.1005-.7979-.3019-.1751-.201-.2344-.473-.1785-.8161l.2677-1.7006c.0561-.3429.203-.6148.4411-.8161.2378-.201.5354-.3019.8922-.3019.3571,0,.6228.1.7979.2993.1748.1993.2361.4707.1837.8136l-.2677,1.7057c-.0561.3431-.2039.6151-.4437.8161-.2395.2013-.5379.3019-.8947.3019ZM424.1121,785.3339c.1925,0,.3483-.0524.4673-.1575.1187-.1051.1942-.2571.2255-.4568l.2677-1.7006c.0316-.1993.0054-.3517-.0786-.4565-.084-.1051-.2224-.1575-.4146-.1575-.1925,0-.3474.0524-.4647.1575-.117.1048-.1914.2571-.223.4565l-.2677,1.7006c-.0316.1996-.0051.3517.0789.4568.0837.1051.2204.1575.4092.1575ZM425.9653,785.7853l.6088-3.8315h.6874l.1837,1.2282c.0211.119.0367.2301.0473.3332.0105.1034.0194.1828.0262.2389.0177-.0561.0473-.1364.0894-.2415.0419-.1051.0908-.217.1469-.336l.5667-1.2228h.7088l-.6088,3.8315h-.5354l.2045-1.2911c.0245-.168.0578-.3525.1-.5539.0419-.201.0874-.4041.1364-.6088s.0963-.3998.1418-.5852c.0453-.1854.0874-.3483.1259-.4881l-.8554,1.8632h-.5513l-.2833-1.8632c-.0037.1364-.0105.2947-.0211.475s-.0236.3719-.0393.5747c-.0157.203-.035.4069-.0578.6114-.0228.2047-.0481.3964-.076.5749l-.2047,1.2911h-.5405ZM429.1145,785.7853l.6088-3.8315h.6874l.1837,1.2282c.0211.119.0367.2301.0473.3332.0105.1034.0194.1828.0262.2389.0177-.0561.0473-.1364.0894-.2415.0419-.1051.0908-.217.1469-.336l.5667-1.2228h.7088l-.6088,3.8315h-.5354l.2045-1.2911c.0245-.168.0578-.3525.1-.5539.0419-.201.0874-.4041.1364-.6088s.0963-.3998.1418-.5852c.0453-.1854.0874-.3483.1259-.4881l-.8554,1.8632h-.5513l-.2833-1.8632c-.0037.1364-.0105.2947-.0211.475s-.0236.3719-.0393.5747c-.0157.203-.035.4069-.0578.6114-.0228.2047-.0481.3964-.076.5749l-.2047,1.2911h-.5405ZM432.4107,785.7853l.6088-3.8315h2.2516l-.0786.5038h-1.6955l-.1731,1.0867h1.5115l-.0786.4986h-1.5118l-.1942,1.2387h1.6901l-.0786.5038h-2.2516ZM435.5073,785.7853l.6088-3.8315h1.202c.2381,0,.4391.0464.6037.139.1643.0928.2833.223.3568.391s.0911.3656.0527.5932c-.0387.2591-.1401.4838-.3044.6746-.1646.1905-.3659.3209-.6037.391l.5354,1.6428h-.6194l-.4776-1.5748h-.5408l-.2466,1.5748h-.567ZM436.3997,783.7068h.635c.1891,0,.3491-.0558.4804-.168.131-.1119.2107-.2623.2386-.4514.0316-.1925,0-.3454-.0945-.4593-.0943-.1136-.2361-.1706-.4252-.1706h-.635l-.1993,1.2493ZM439.8007,785.8377c-.3602,0-.6308-.1005-.8107-.3019-.1803-.201-.2423-.473-.1865-.8161l.2677-1.7006c.0561-.3463.2056-.6194.4488-.8187s.545-.2993.9056-.2993c.3568,0,.6253.1008.8056.3019.1803.2013.2423.4733.1865.8161h-.567c.0313-.1993.0026-.3517-.0866-.4565-.0894-.1051-.2284-.1575-.4175-.1575-.1925,0-.3508.0524-.475.1575-.1242.1048-.2019.2554-.2335.4514l-.2677,1.7057c-.0316.1996-.0026.3517.0866.4568.0894.1051.2301.1575.4226.1575s.35-.0524.4724-.1575.1993-.2571.2309-.4568h.5667c-.0347.2275-.1145.4252-.2386.5932s-.2808.2976-.4699.3884c-.1888.0908-.4024.1364-.6404.1364ZM441.8792,785.7853l.0789-.5038h.7768l.4459-2.824h-.7766l.0837-.5038h2.1258l-.084.5038h-.7766l-.4462,2.824h.7768l-.0789.5038h-2.1258ZM444.7399,785.7853l1.585-3.8315h.7452l.3728,3.8315h-.5616l-.0735-.9711h-1.0867l-.3884.9711h-.5929ZM445.8998,784.3418h.8714l-.0894-1.1023c-.0174-.1959-.0296-.3654-.0367-.5089-.0068-.1435-.0103-.2432-.0103-.2993-.0177.0561-.0518.1558-.1025.2993s-.1148.3112-.1916.5038l-.4408,1.1075ZM448.2354,785.7853l.6088-3.8315h.567l-.5248,3.3118h1.6741l-.0786.5197h-2.2465ZM453.1932,785.8377c-.3676,0-.6345-.1005-.8005-.3019-.1663-.201-.2213-.475-.1654-.8213l.4357-2.7608h.567l-.4357,2.7554c-.0316.1962-.008.35.0709.4619.0786.1122.2141.168.4066.168s.3474-.0558.4645-.168c.1173-.1119.1916-.2657.2233-.4619l.4357-2.7554h.5667l-.4357,2.7608c-.0558.35-.2002.6245-.4328.8241-.2329.1993-.5328.299-.9001.299ZM456.3581,785.8377c-.385,0-.6738-.0951-.866-.2859-.1925-.1908-.2643-.4505-.2153-.7794h.567c-.0282.1748.0105.3121.1153.4121.1051.0997.266.1495.483.1495.2028,0,.3699-.049.5012-.1469s.2107-.2327.2389-.4044c.0211-.1504.0009-.2788-.0604-.3856s-.1583-.1811-.2913-.2233l-.4568-.1364c-.266-.0803-.4619-.217-.5878-.4095-.1259-.1922-.1697-.4197-.1313-.6823.035-.2099.1119-.3935.2309-.551s.2731-.2799.4619-.3673c.1891-.0874.4024-.1313.6404-.1313.3497,0,.6157.0954.7979.2859.1817.1908.2483.4437.1993.7586h-.567c.0279-.168-.0026-.3001-.0917-.3964-.0894-.0963-.2301-.1444-.4226-.1444-.1891,0-.3429.0447-.4619.1338-.119.0894-.1891.2144-.2099.3753-.0245.1506-.0071.2791.0524.3859s.1575.1811.2939.223l.4673.1469c.2623.0806.4556.2173.5798.4095.1242.1925.1654.4217.1236.6877-.035.217-.1156.4058-.2415.5667-.1262.1612-.2879.2862-.4855.3753-.1979.0894-.4192.1338-.6641.1338ZM458.4209,785.7853l.6088-3.8315h2.2516l-.0786.5038h-1.6955l-.1731,1.0867h1.5115l-.0786.4986h-1.5118l-.1942,1.2387h1.6901l-.0786.5038h-2.2516Z" style="fill: #ccc;"/>
  <g>
    <path d="M400.0016,750c-3.7002-3.332-7.9199-7.8083-11.9788-12.638-72.876-2.6687-139.7412-29.5688-192.7538-72.8533-.7852,21.5061.0784,42.8396,3.1286,63.7873-18.9904-12.4667-33.0604-28.0072-45.3256-47.3725-8.2303-12.9974-14.3671-26.4129-18.0295-39.3945l-71.075-.2436c23.4404-18.0593,43.7014-34.8081,60.5355-57.1703-30.9692-49.6796-48.8997-108.2645-48.9014-170.9075.0021-111.9069,57.1745-210.8848,143.798-269.2323-5.8388-19.164-14.0052-37.6927-22.6591-55.8731,27.8581,1.9567,56.6744,10.2123,83.3792-2.3099l73.6428-35.7924c-5.7304,15.083-11.5829,30.0879-17.3858,45.1123,20.5833-4.1223,41.8567-6.3009,63.6238-6.3009,21.7673.0007,43.0395,2.1807,63.6243,6.302-5.8029-15.0225-11.6575-30.0322-17.3879-45.1127l73.6428,35.7909c26.7073,12.5229,55.5209,4.268,83.3798,2.3099-8.6539,18.1804-16.8201,36.7099-22.6581,55.8745,86.6261,58.3427,143.7964,157.3248,143.7953,269.2317.0011,62.643-17.933,121.2229-48.8969,170.905,16.831,22.3647,37.0938,39.1159,60.5327,57.1728l-71.0757.2436c-3.6624,12.9841-9.7977,26.3984-18.0295,39.3945-12.2614,19.3653-26.333,34.9058-45.3237,47.3749,3.0488-20.9502,3.9133-42.2812,3.1307-63.7898-53.0077,43.2943-119.881,70.1845-192.7566,72.8533-4.0593,4.8297-8.2762,9.306-11.976,12.638Z" style="fill: #241460; fill-rule: evenodd;"/>
    <path d="M421.3761,725.0306c162.2511-11.0513,291.1969-146.8521,291.1969-311.823,0-106.4142-53.6626-200.6884-135.2982-257.1775-2.9462,11.9533-4.8682,24.1702-5.3387,36.7154-.434,11.5585.1893,23.3948,1.529,35.3593,49.4517,46.3771,80.4325,112.2341,80.4325,185.1028,0,108.6165-68.816,201.6653-165.0711,237.807,1.1422,1.8223,2.353,3.6189,3.6299,5.3856,4.5017,6.2236,1.88,9.5871-4.5582,11.9168-12.4234,4.4945-25.284,7.7515-38.3757,9.5275-6.4934.8818-6.5102.9335-7.323,3.4479-.5523,1.7064-1.2483,3.8538-2.2626,6.4249-4.4689,11.333-9.3407,22.114-15.1253,31.93-1.0131,1.7232-2.172,3.5308-3.4356,5.3832Z" style="fill: #bc905d; fill-rule: evenodd;"/>
    <path d="M222.7267,156.0301c-81.6335,56.4934-135.2986,150.7634-135.2986,257.1775,0,164.9708,128.9451,300.7716,291.1959,311.823-1.263-1.8524-2.4209-3.6599-3.4342-5.3832-5.7854-9.816-10.6578-20.597-15.1264-31.93-1.0141-2.5711-1.7099-4.7185-2.2615-6.4249-.8135-2.5144-.8303-2.5661-7.3235-3.4479-13.0912-1.7761-25.9529-5.0331-38.3759-9.5275-6.4388-2.3298-9.0599-5.6932-4.5588-11.9168,1.2783-1.7667,2.488-3.5634,3.6308-5.3856-96.255-36.1417-165.0713-129.1904-165.0713-237.807,0-72.8687,30.9819-138.725,80.4319-185.1028,1.3405-11.9645,1.9629-23.8008,1.53-35.3593-.4708-12.5452-2.3925-24.7621-5.3383-36.7154Z" style="fill: #bd9040; fill-rule: evenodd;"/>
    <path d="M400.0005,100.6366c-23.5887,0-46.5769,2.649-68.6916,7.6447-7.1428,18.6582-14.126,37.378-20.6114,56.3299.638,3.4115,1.28,6.8236,1.9241,10.2375,27.2616-10.0488,56.7008-15.538,87.3788-15.538s60.1138,5.4917,87.3793,15.538c.6437-3.4138,1.2853-6.826,1.923-10.2375-6.485-18.9518-13.4675-37.6717-20.61-56.3299-22.1172-4.9932-45.1043-7.6447-68.6924-7.6447Z" style="fill: #bc905d; fill-rule: evenodd;"/>
    <polygon points="399.9981 178.1439 419.971 234.6648 479.8947 236.1934 432.3146 272.6562 449.372 330.1166 400.0005 296.1367 350.631 330.1166 367.683 272.6568 320.106 236.1934 380.0258 234.6648 399.9981 178.1439" style="fill: #fefefe; fill-rule: evenodd;"/>
    <polygon points="399.9981 234.7339 406.5185 253.1828 426.0791 253.6815 410.5495 265.584 416.1175 284.342 399.9981 273.249 383.8825 284.342 389.4488 265.584 373.9188 253.6815 393.4798 253.1828 399.9981 234.7339" style="fill: #bd9040; fill-rule: evenodd;"/>
    <path d="M354.423,156.0393l-3.9701-32.1038-6.3572,5.5001-1.4393-11.6392c3.8951-3.0954,6.0867-5.0654,6.5663-5.8841l13.6748-1.6914,4.1772,33.7748,1.276,10.3208-13.9275,1.7229Z" style="fill: #241460; fill-rule: evenodd;"/>
    <path d="M394.3647,107.1424c4.4678-.02,8.1309.974,10.9997,2.9676,2.8685,2.0049,4.9754,4.7338,6.3321,8.197.6392,1.7932,1.124,3.6765,1.4555,5.6587.328,1.9718.5041,4.0555.5138,6.2503.0311,7.162-1.5629,12.7555-4.7706,16.7711-3.2873,4.1056-8.0218,6.1767-14.1978,6.2043-6.3852.0269-11.2153-2.0138-14.4931-6.1227-3.2763-4.1098-4.931-9.7121-4.9617-16.8185-.0217-4.8879.6815-9.0708,2.1075-12.5249,1.4264-3.4639,3.5542-6.0909,6.3741-7.8757,2.8294-1.7866,6.3843-2.688,10.6404-2.7071h0ZM394.5383,116.5313c-4.1791.0175-6.2429,4.6163-6.203,13.7952l.0042.9083c.0151,3.5039.4942,6.3951,1.4344,8.6627,1.0308,2.6134,2.6554,3.9137,4.8833,3.9043l.1337-.0007c1.9945-.0091,3.4741-1.2902,4.462-3.8559.9864-2.5535,1.4712-5.7809,1.4543-9.6736-.0182-4.0229-.5089-7.3241-1.4735-9.9028-.9648-2.5685-2.5228-3.8468-4.6954-3.8374Z" style="fill: #241460; fill-rule: evenodd;"/>
    <path d="M440.5582,109.943c4.4402.4921,7.965,1.8967,10.5878,4.2056,2.619,2.32,4.4013,5.2708,5.3541,8.8674.4291,1.8549.6969,3.7807.7971,5.7878.1025,1.9969.0384,4.0866-.2028,6.2677-.7886,7.119-3.0124,12.4938-6.6576,16.1169-3.7344,3.7017-8.6751,5.2183-14.8119,4.5396-6.3468-.7025-10.9134-3.2829-13.699-7.7404-2.7846-4.4573-3.7887-10.2115-3.0065-17.2738.5376-4.8591,1.7135-8.9349,3.5249-12.2025,1.8135-3.2781,4.2266-5.644,7.2327-7.0955,3.0152-1.4519,6.6496-1.9409,10.8812-1.4729h0ZM439.6562,119.2899c-4.1531-.4592-6.729,3.8728-7.7381,12.9946l-.1005.9039c-.3858,3.4827-.2408,6.4101.4354,8.7701.726,2.7134,2.1888,4.1915,4.4042,4.4367l.1326.0151c1.9827.2194,3.5998-.8853,4.8728-3.3209,1.2724-2.4229,2.1237-5.5753,2.5518-9.4432.4428-3.9988.3318-7.335-.3314-10.0068-.6658-2.6616-2.067-4.11-4.2267-4.3495Z" style="fill: #241460; fill-rule: evenodd;"/>
    <path d="M149.8062,340.0068l-30.6931-10.2132,2.234,8.1036-11.1279-3.7034c-1.1209-4.8476-1.9571-7.6716-2.4909-8.4574l4.351-13.0749,32.2923,10.7457,9.8661,3.2829-4.4315,13.3167Z" style="fill: #241460; fill-rule: evenodd;"/>
    <path d="M139.2005,301.151c-1.7547,1.692-3.7435,2.685-5.979,3.0008-2.2296.3045-4.2784-.0052-6.1651-.9406-3.318-1.6441-5.3793-4.1997-6.19-7.6828-.8099-3.4815.1158-7.922,2.7888-13.3149,2.5006-5.0464,5.3786-8.3826,8.6206-10.0054,3.2469-1.6326,6.6128-1.5849,10.0796.1324,4.2109,2.0873,6.0885,5.7881,5.6264,11.0901l.1183.0588c4.2718-4.8487,8.7543-6.1046,13.4717-3.766,3.4272,1.698,5.5438,4.542,6.3412,8.5251.788,3.9778-.2061,8.781-2.9979,14.4129-2.7754,5.6009-5.965,9.3411-9.578,11.2126-3.6109,1.8728-7.2009,1.9252-10.7681.1579-4.836-2.3981-6.5817-6.6657-5.2502-12.8225l-.1183-.0584h0ZM131.3983,286.1864c-.7729,1.5601-.9906,2.9731-.6553,4.2417.3329,1.2773,1.1041,2.2168,2.3068,2.8128,1.1806.5857,2.4116.6752,3.704.2636,1.292-.4106,2.3697-1.4863,3.2203-3.2035l.1187-.2394c.7182-1.4502.8569-2.8283.4112-4.1255-.4449-1.2972-1.2577-2.2315-2.4383-2.8167-1.2027-.5964-2.4225-.6308-3.6508-.1015-1.2209.5191-2.229,1.5786-3.0166,3.1685h0ZM147.49,294.1605c-.8666,1.7474-1.1247,3.3155-.767,4.6933.3207,1.2472,1.0484,2.152,2.1717,2.7085l.2271.1135c1.2815.635,2.6652.7386,4.1655.3074,1.4911-.4365,2.682-1.5412,3.5633-3.319.8068-1.6299.9553-3.1766.4541-4.6387-.5157-1.4544-1.4464-2.5213-2.808-3.1961-1.3105-.65-2.6196-.6557-3.9015-.0158-1.2856.6483-2.3183,1.7575-3.1051,3.347Z" style="fill: #241460; fill-rule: evenodd;"/>
    <path d="M187.5759,262.5248l-9.3984,13.5693c-1.4404-4.9484-2.9992-9.5321-4.6709-13.7381-1.517-3.9221-3.1923-7.3468-5.0117-10.2672-1.7566-2.7396-3.4748-4.6981-5.1424-5.8531l-.2465-.1709c-1.5132-1.0484-3.0393-1.5107-4.5858-1.3815-1.5544.1235-2.873.9759-3.9711,2.5622-.8778,1.2661-1.1715,2.5861-.8729,3.9669.2982,1.3796,1.0658,2.4913,2.2958,3.3432,3.1986,2.2154,5.8378,1.8307,7.9083-1.1575l.4863-1.0529.5926-1.2068,4.674,9.2374-1.7432,3.2564c-1.2811,1.8492-2.6644,3.2643-4.1202,4.2381-1.4727.9756-3.0481,1.5574-4.7398,1.7608-3.3775.3984-6.6483-.5041-9.7933-2.682-3.7552-2.6008-6.0265-6.0755-6.8194-10.4408-.7784-4.3685.6893-9.2318,4.4122-14.6087,3.4272-4.9487,7.2783-7.9983,11.5598-9.1597,4.2842-1.16,8.3782-.3738,12.3146,2.3529,3.1174,2.159,6.1,5.5043,8.9647,10.0506,2.8506,4.5496,5.4883,10.3403,7.9073,17.3816Z" style="fill: #241460; fill-rule: evenodd;"/>
    <path d="M212.3559,232.1988l-11.2214,12.1049c-.7267-5.1027-1.621-9.8608-2.6813-14.2611-.9475-4.0982-2.1208-7.7249-3.5098-10.8731-1.3514-2.9609-2.7751-5.143-4.2616-6.5218l-.2209-.2037c-1.3501-1.2516-2.7954-1.9251-4.3443-2.0165-1.5555-.0983-2.9826.5607-4.2942,1.9753-1.0474,1.1295-1.5255,2.3946-1.4246,3.8028.1004,1.4085.7021,2.6165,1.8002,3.6348,2.8531,2.6459,5.5201,2.6385,7.9928-.0277l.6296-.9738.7578-1.1107,3.3205,9.8059-2.1857,2.9767c-1.5303,1.6497-3.1002,2.8556-4.6803,3.6123-1.5941.7589-3.2364,1.1117-4.9404,1.0736-3.3989-.0836-6.5103-1.4397-9.3151-4.04-3.3488-3.1051-5.1069-6.867-5.2739-11.3013-.1526-4.4338,1.9875-9.0406,6.4339-13.8364,4.0919-4.4143,8.3364-6.8894,12.7399-7.4319,4.4052-.5433,8.3462.8134,11.8577,4.0698,2.7807,2.5776,5.2593,6.3111,7.453,11.2179,2.1779,4.9064,3.9696,11.0117,5.3681,18.3242Z" style="fill: #241460; fill-rule: evenodd;"/>
    <path d="M587.3522,231.7257l24.0915-21.5845-8.1433-2.0802,8.7355-7.8264c4.7657,1.4341,7.6332,2.1076,8.58,2.0348l9.195,10.2626-25.3519,22.7087-7.7431,6.9377-9.3638-10.4527Z" style="fill: #241460; fill-rule: evenodd;"/>
    <path d="M615.826,266.2232l-9.8425-13.2516c5.1504.2217,9.9921.215,14.5106-.021,4.2025-.1802,7.9829-.6678,11.3331-1.4571,3.158-.7866,5.5637-1.7856,7.1917-2.9956l.2412-.1786c1.4771-1.0973,2.4058-2.3949,2.7772-3.9004.3827-1.5122-.0025-3.0352-1.1526-4.583-.9179-1.2381-2.0754-1.9396-3.4779-2.0989-1.4027-.1593-2.7023.2114-3.9036,1.1041-3.123,2.32-3.6054,4.9428-1.4362,7.8624l.8404.7971.9528.949-10.2476,1.467-2.5251-2.6945c-1.3434-1.8066-2.2406-3.5714-2.6942-5.2625-.4533-1.7078-.4992-3.3869-.1505-5.0541.7067-3.3264,2.6095-6.136,5.6797-8.4177,3.6672-2.7225,7.6864-3.7614,12.0771-3.1132,4.386.6634,8.522,3.6117,12.422,8.8622,3.5886,4.8314,5.2446,9.4575,4.972,13.8862-.2738,4.429-2.3309,8.0546-6.1753,10.9102-3.0439,2.2605-7.168,4.0139-12.3943,5.2704-5.2215,1.2416-11.5526,1.8854-18.9978,1.9196Z" style="fill: #241460; fill-rule: evenodd;"/>
    <path d="M636.1865,301.8091l-7.6454-14.6289c5.0514,1.0248,9.8353,1.7774,14.3356,2.2521,4.1787.4806,7.9877.5901,11.4198.3356,3.2427-.2822,5.7762-.8919,7.573-1.8318l.2677-.1385c1.6294-.852,2.7495-1.9886,3.3537-3.4171.6126-1.4338.4715-2.9984-.4222-4.7076-.7126-1.3659-1.7448-2.2402-3.1051-2.6176-1.3602-.3772-2.7022-.2141-4.0274.4796-3.4493,1.8013-4.3366,4.317-2.6533,7.5397l.7067.9188.7935,1.0872-10.3525-.1567-2.0718-3.0576c-1.0417-1.9938-1.6522-3.8776-1.8367-5.6184-.1795-1.7575.0389-3.4237.6441-5.0159,1.2182-3.1745,3.5382-5.6514,6.9293-7.4236,4.0467-2.1145,8.1796-2.5104,12.4132-1.1827,4.2291,1.3413,7.853,4.9012,10.8822,10.698,2.7867,5.3343,3.6971,10.1622,2.7338,14.4932-.9637,4.3319-3.5634,7.5904-7.8072,9.8086-3.3607,1.7558-7.7092,2.842-13.0672,3.2644-5.3516.4081-11.7043.0519-19.0638-1.0809Z" style="fill: #241460; fill-rule: evenodd;"/>
    <path d="M649.9495,337.545l-5.4232-15.5905c4.8491,1.753,9.4702,3.1969,13.8523,4.325,4.0625,1.0873,7.8156,1.753,11.2487,2.0037,3.2486.1952,5.8438-.0368,7.7599-.7036l.2831-.0984c1.7379-.6045,3.0114-1.5645,3.8183-2.8892.8173-1.3283.9065-2.8972.2723-4.7181-.5065-1.4561-1.4002-2.4723-2.6915-3.0449-1.2902-.5716-2.6398-.6067-4.053-.1152-3.6758,1.2779-4.9211,3.6369-3.7275,7.0713l.5642,1.0123.6248,1.1909-10.2165-1.6698-1.6013-3.327c-.7403-2.1258-1.0683-4.0776-.9948-5.8273.0784-1.7648.5376-3.3814,1.371-4.8676,1.669-2.9616,4.3258-5.0733,7.9384-6.3299,4.3149-1.4989,8.4606-1.2868,12.4546.6472,3.9864,1.9455,7.0507,5.9975,9.1985,12.1752,1.9777,5.6846,2.172,10.5938.5836,14.7375-1.5868,4.1441-4.6341,6.9875-9.1576,8.5605-3.5815,1.245-8.042,1.6822-13.4036,1.3165-5.354-.3795-11.5875-1.6614-18.7008-3.8585Z" style="fill: #241460; fill-rule: evenodd;"/>
    <path d="M163.7719,525.2577l12.3566,21.8169c.7644,1.3518,1.3791,2.7988,1.8562,4.339.4774,1.5397.7676,3.1328.8813,4.7741.2657,3.2136-.56,6.548-2.5104,10.0088-.9671,1.6704-2.2786,3.2655-3.9179,4.7791-1.6395,1.5145-3.6172,2.9266-5.9138,4.2281-4.1273,2.3368-8.0662,3.55-11.8056,3.6283-3.7534.0736-7.2163-.9335-10.4132-3.0473-3.1871-2.1187-5.9332-5.2141-8.2496-9.3022l-10.9459-19.333,38.6623-21.8918h0ZM165.5459,547.693l-3.5893-6.0678-21.9933,12.4531,3.0256,5.3446c1.7482,3.0859,4.1644,4.9008,7.2502,5.4473,3.0811.5352,6.2066-.0882,9.3694-1.88,3.8308-2.167,6.2236-4.4657,7.1863-6.8834.9717-2.424.5533-5.2299-1.2489-8.4138Z" style="fill: #241460; fill-rule: evenodd;"/>
    <path d="M185.9748,564.3357l15.5345,17.8693c3.5913,4.1335,5.4339,7.9241,5.5309,11.3642.1036,3.4503-1.5923,6.6867-5.072,9.7124-1.8917,1.6437-4.1339,2.4757-6.6885,2.4939-2.5635.0253-5.2987-.755-8.1886-2.3406-1.6812,3.8129-3.2192,7.3643-4.6061,10.6708-1.3928,3.297-2.6823,6.4603-3.8763,9.4821l-9.8902-11.3775c2.0676-3.724,3.7324-6.7424,4.9694-9.0515,1.2476-2.3179,2.6092-4.9432,4.0863-7.8554,1.347-2.6397,2.4461-4.8743,3.297-6.7011l.4808.6559.4663.6367.4382.69.5397.8235c.6766.7778,1.3092,1.3893,1.886,1.8136.573.4413,1.2006.791,1.865,1.0673,1.229.5163,2.3484.6899,3.3656.5257,1.0179-.1652,1.8692-.5533,2.5728-1.1648,1.4887-1.2937,2.1111-2.5539,1.8597-3.7902-.252-1.2203-1.036-2.5951-2.3382-4.0915l-4.5378-5.2204-26.472,23.0098-8.7554-10.0715,33.5329-29.1505Z" style="fill: #241460; fill-rule: evenodd;"/>
    <path d="M230.7162,610.4432c4.5595,3.8252,7.6929,7.8002,9.3927,11.9328,1.7148,4.1314,2.1832,8.1411,1.4236,12.0467-.7526,3.8986-2.5003,7.4836-5.2439,10.753-1.4036,1.6714-2.9158,3.0957-4.5357,4.2666-1.6204,1.1743-3.3719,2.1211-5.2593,2.8531-3.7103,1.3869-7.6958,1.6185-11.9785.685-4.268-.9311-8.7117-3.3295-13.3055-7.1823-4.3401-3.6418-7.4361-7.5601-9.265-11.7409-1.8303-4.1843-2.3809-8.2359-1.6532-12.1553.7273-3.9179,2.3876-7.4161,4.9592-10.4817l.336-.398c4.296-5.1214,9.5609-7.9119,15.7702-8.3448,6.2261-.4329,12.6674,2.1489,19.3593,7.7658h0ZM224.5251,618.0116c-3.2528-2.7302-6.5207-3.7502-9.8212-3.075-3.2995.6885-6.1152,2.4225-8.4524,5.2071-2.3224,2.7699-3.4632,5.8354-3.4205,9.1999.0357,3.373,1.6025,6.3503,4.6856,8.9391,3.0733,2.577,6.2593,3.5588,9.5657,2.9448,3.3228-.6115,6.1049-2.2721,8.3707-4.9733,1.4603-1.7385,2.5072-3.7117,3.1261-5.8966.6195-2.1888.609-4.3678-.0368-6.5456-.6538-2.1695-1.9878-4.0989-4.0173-5.8004Z" style="fill: #241460; fill-rule: evenodd;"/>
    <rect x="223.3085" y="643.4908" width="44.432" height="13.8999" transform="translate(-436.1934 514.0002) rotate(-58.002)" style="fill: #241460;"/>
    <polygon points="260.8425 645.7799 265.0772 637.2615 302.45 655.8419 298.216 664.3578 285.8875 658.2294 270.3428 689.4973 257.7756 683.2509 273.3202 651.9818 260.8425 645.7799" style="fill: #241460; fill-rule: evenodd;"/>
    <path d="M522.1242,693.7905l-13.5208,6.8904c.0217-1.5906.0265-3.6359.0133-6.1284-.0049-2.4986-.0435-5.0661-.0952-7.7032-.0593-2.6327-.1425-5.8235-.2545-9.5857l-.2727-7.8373-.3424-9.1202-.3448-8.8306,15.0435-7.6661c3.0246,2.7388,6.729,6.0032,11.1111,9.7908,1.2709,1.1068,3.8409,3.2704,7.7228,6.4924l5.5928,4.7007,4.3617,3.6022,4.6982,3.9505,3.15,2.6627-13.1963,6.7227-10.0548-9.1334-14.6373,7.4571,1.0253,13.7354h0ZM519.7593,670.1993l9.2839-4.7307-9.9591-9.1709-.1089.0557.7841,13.8459Z" style="fill: #241460; fill-rule: evenodd;"/>
    <path d="M558.2371,621.1927l11.5487-7.9734,17.1047,24.7813c1.857,2.6905,2.7348,5.4242,2.648,8.2049-.0808,2.7904-1.1732,5.5799-3.2402,8.3786-2.0886,2.9109-5.1164,5.7424-9.0949,8.4884-5.6482,3.8973-10.7965,5.9414-15.4296,6.1381-4.6498.1904-8.4242-1.8247-11.34-6.0479l-17.1033-24.7789,11.4948-7.9345,14.3899,20.8451c1.951,2.829,3.8986,4.5572,5.8449,5.154,1.9585.7092,4.1522.2184,6.5712-1.4519,2.5261-1.744,3.7899-3.6792,3.7754-5.7857-.0025-2.1118-.9356-4.4983-2.7806-7.1729l-14.3889-20.8452Z" style="fill: #241460; fill-rule: evenodd;"/>
    <path d="M583.636,599.1165l18.2753-20.5512c2.1138-2.3777,4.6595-3.6876,7.6321-3.9105,2.9607-.2289,5.581.6622,7.8516,2.682,1.8884,1.6788,3.1437,3.6525,3.7552,5.9174.6042,2.2573.251,4.6887-1.0504,7.2558l.1.0882c1.2819-1.1432,2.7506-1.9608,4.4088-2.4565,1.6595-.4992,3.3851-.5367,5.1903-.1313,1.698.44,3.2545,1.2913,4.6813,2.5574l.1978.1788c1.9052,1.6952,3.187,3.4573,3.836,5.2624.6461,1.8066.5365,3.9505-.3462,6.4273-.8769,2.4709-2.8388,5.4108-5.8739,8.8237l-15.4537,17.3816-33.2041-29.5251h0ZM602.2417,591.2901l-3.2329,3.6359,6.6033,5.8714,3.667-4.1251c1.739-1.955,2.5301-3.5805,2.3614-4.8589-.1026-1.2192-.7428-2.349-1.927-3.403-1.0686-.949-2.1962-1.1503-3.3743-.6112-1.2335.6368-2.5951,1.8014-4.0975,3.4909h0ZM622.894,608.6879c1.8702-2.1044,2.9882-3.795,3.3679-5.0892.3798-1.2783-.1918-2.6047-1.7172-3.9589-1.458-1.2966-2.7628-1.7291-3.9144-1.2853-1.16.4375-2.6564,1.6858-4.4979,3.7587l-3.9929,4.488,7.0413,6.2611,3.7132-4.1745Z" style="fill: #241460; fill-rule: evenodd;"/>
    <path d="M626.9421,542.9518l7.7589-11.6949,25.0886,16.6473c2.7254,1.8079,4.5557,4.0194,5.5085,6.6325.9622,2.6217.9839,5.6173.1071,8.984-.8572,3.4779-2.6165,7.2331-5.2889,11.2595-3.7947,5.7184-7.8127,9.5304-12.0419,11.4331-4.2448,1.9076-8.4981,1.4399-12.7754-1.3988l-25.0888-16.6475,7.7215-11.6369,21.108,14.0041c2.864,1.9007,5.3132,2.7811,7.3416,2.6085,2.0813-.0664,3.9362-1.3375,5.5604-3.7853,1.6979-2.5601,2.1512-4.8272,1.3552-6.7773-.7886-1.9606-2.5419-3.8286-5.2481-5.623l-21.1066-14.0052Z" style="fill: #241460; fill-rule: evenodd;"/>
    <polygon points="643.1938 531.9394 634.4031 528.3071 650.3401 489.7328 659.1312 493.3664 653.8743 506.0908 686.1482 519.4258 680.7878 532.3952 648.5144 519.0617 643.1938 531.9394" style="fill: #241460; fill-rule: evenodd;"/>
    <path d="M616.1107,654.7578c1.1093,15.8927,1.3409,31.3148.481,46.0967,7.7963-8.3267,14.6339-17.1706,20.3593-26.2127,9.0225-14.2453,14.888-28.652,18.7881-44.9677l45.9423-.4236c-12.8659-9.1082-23.895-21.0259-33.4206-34.0278-14.9264,21.9026-32.4589,41.9-52.1501,59.535Z" style="fill: #0071b9; fill-rule: evenodd;"/>
    <path d="M131.7354,595.2262c-9.5231,13.0007-20.5516,24.9161-33.4157,34.0243l45.9419.4236c3.8986,16.3157,9.766,30.7225,18.7877,44.9677,5.7266,9.0421,12.5634,17.8861,20.3589,26.2127-.8586-14.783-.6272-30.2066.4817-46.0977-19.6881-17.6365-37.2285-37.6265-52.1546-59.5306Z" style="fill: #0071b9; fill-rule: evenodd;"/>
    <path d="M389.2356,586.0095c-16.2937-67.9366-31.7089-135.1754-46.1096-201.6149-15.4212-71.1448-29.8141-141.9433-43.0332-212.3358-1.3661-7.2747-1.5937-8.3013.7736-15.1564,9.7841-28.3458,20.3765-56.4125,31.4271-84.2924l-47.8181,24.0103c-24.849,11.6526-43.3801,6.4875-68.4747,4.7198,12.7742,28.581,22.7085,59.5027,23.8895,90.9899,1.4838,39.5843-8.7905,81.6496-18.472,121.294-2.3981,9.82-4.7615,19.4923-6.9146,29.0336-6.1683,27.317-12.5354,54.6417-19.1244,81.4549-6.5096,26.4913-13.2908,52.7113-20.3896,78.2511,8.4299,21.1574,19.7594,40.8629,33.499,58.6198,15.9097-73.3356,30.9131-148.2365,49.4698-220.8367,1.5517-6.0741,2.6953-12.4804,4.2796-18.5462,4.402-16.8505,14.1462-16.951,17.7562-.0216,8.8807,41.6344,19.9659,83.6286,29.4171,126.0474,8.6102,40.2532,16.8629,83.0263,25.1653,126.5751l-.0466-.2545c3.7534,16.0564,4.0453,32.3614.8261,48.0152-2.647,12.8708-7.6566,25.271-15.0591,36.7003,4.0355,1.3493,8.138,2.57,12.2875,3.6418,6.4918,1.6738,13.0066,2.9798,19.4643,3.8552,13.8529,1.8776,13.9184,2.0743,16.976,11.5274.4673,1.447,1.0578,3.2669,2.0309,5.7353,4.2892,10.8769,8.9107,21.1322,14.2946,30.2681,4.29,7.2849,9.096,13.9111,14.6499,19.6502,5.5544-5.739,10.3599-12.3652,14.6504-19.6502,5.3828-9.1358,10.0049-19.3912,14.2946-30.2681.9717-2.4684,1.5626-4.2884,2.0306-5.7353,3.0568-9.4531,3.1233-9.6498,16.9755-11.5274,6.4575-.8754,12.973-2.1813,19.4644-3.8552,4.1492-1.0718,8.2519-2.2925,12.2879-3.6418-7.4029-11.4293-12.4132-23.8296-15.0602-36.7003-3.2175-15.6538-2.9269-31.9588.8271-48.0152l-.0468.2545c8.3038-43.5488,16.5544-86.3218,25.1656-126.5751,9.451-42.4188,20.5355-84.413,29.4169-126.0474,3.6106-16.9294,13.3542-16.8289,17.7569.0216,1.5832,6.0658,2.7278,12.4721,4.2785,18.5462,18.5563,72.5953,33.5601,147.4938,49.4685,220.8248,13.7398-17.7523,25.0718-37.453,33.5-58.6058-7.097-25.541-13.8789-51.762-20.3885-78.2532-6.589-26.8132-12.9561-54.1379-19.1241-81.4549-2.1537-9.5412-4.5161-19.2136-6.9145-29.0336-9.6823-39.6445-19.9569-81.7097-18.472-121.294,1.1803-31.4872,11.1146-62.4089,23.8887-90.9899-25.0949,1.7677-43.6258,6.9328-68.4747-4.7198l-47.8174-24.0103c11.0505,27.8799,21.6433,55.9466,31.4267,84.2924,2.3658,6.8551,2.1394,7.8817.7733,15.1564-13.218,70.3925-27.6128,141.191-43.0329,212.3358-14.4018,66.4395-29.8159,133.6782-46.1096,201.6149-8.076,33.6809-13.4536,33.6809-21.5298,0Z" style="fill: #0071b9; fill-rule: evenodd;"/>
  </g>
</svg>