<?xml version="1.0" encoding="utf-8"?>
<!-- Created by @FCLOGO 2025-2-8 GMT+8 16:02:47 . https://fclogo.top/ -->
<!-- FOR PERSONAL USE ONLY NOT FOR COMMERCIAL USE -->
<svg version="1.1" xmlns="http://www.w3.org/2000/svg" xmlns:xlink="http://www.w3.org/1999/xlink" x="0px" y="0px"
	 viewBox="0 0 800 800" style="enable-background:new 0 0 800 800;" xml:space="preserve">
<g>
	<polygon style="fill-rule:evenodd;clip-rule:evenodd;fill:#171819;" points="402.7429,103.6893 397.1672,103.6893 
		397.1371,145.3277 331.6968,145.3876 331.6968,150.9634 397.1072,151.0234 397.1371,192.4519 402.7429,192.5119 402.7729,151.1133 
		471.4508,150.9933 471.4808,145.5075 402.9228,145.3876 	"/>
	<path style="fill-rule:evenodd;clip-rule:evenodd;fill:#171819;" d="M429.8423,184.7778
		c-8.3037-2.2183-8.3337-19.845-0.9893-22.8727c5.1861-2.0984,9.7426,0.6595,10.612,5.0961l6.8647-1.5888
		c-2.6979-14.449-30.1871-15.2884-29.8873,8.4536c0.2698,21.5237,26.5898,22.423,30.0672,6.0255l-6.5051-2.0385
		C438.9255,179.7116,437.3666,186.8162,429.8423,184.7778z"/>
	<path style="fill-rule:evenodd;clip-rule:evenodd;fill:#171819;" d="M382.7481,132.1077
		c-1.7087-1.0792-4.1669-1.6188-6.3552-2.1584l-0.2997,0.5696c-0.9893,2.0684-0.8094,2.9377-2.9678,4.8863
		c-3.2975,2.9677-12.7703,3.5972-13.13-9.4429c-0.3597-12.1708,7.3444-14.3291,12.2307-11.871
		c2.5181,1.289,2.4282,2.3382,3.7771,4.7964l6.715-1.379c-2.8779-14.7788-30.3071-15.0786-29.9473,8.4536
		C353.1306,147.6959,379.7803,147.9357,382.7481,132.1077z"/>
	<path style="fill-rule:evenodd;clip-rule:evenodd;fill:#171819;" d="M378.881,170.9882c2.0385-1.8885,4.4067-3.1476,4.5266-7.3745
		c0.3597-11.6312-16.3676-8.9632-27.2194-8.9632l-0.09,34.6238c11.2415,0,30.0673,3.1776,28.988-10.8818
		C384.7566,174.1359,382.2684,172.1573,378.881,170.9882z M363.1429,160.5861c1.9185-0.3597,6.5051-0.2398,8.6934-0.1499
		c2.9078,0.1499,4.7664,0.9593,4.7365,4.0169c-0.09,4.9163-9.1431,4.6165-13.4598,3.8371L363.1429,160.5861z M369.4382,183.4288
		h-6.3552v-9.263h5.1261c4.1368,0,9.233-0.3897,9.6227,4.1968C378.2815,183.3988,373.7549,183.4288,369.4382,183.4288z"/>
	<path style="fill-rule:evenodd;clip-rule:evenodd;fill:#171819;" d="M424.5065,133.5766l13.6096-0.03l3.2375,7.824l7.4343,0.03
		c-0.5696-2.9078-13.16-33.4546-13.8195-34.5937h-7.2245l-13.4897,34.4738l7.1645,0.1499L424.5065,133.5766z M431.1757,113.9808
		l5.7313,15.7287l-11.831-0.06L431.1757,113.9808z"/>
	<path style="fill-rule:evenodd;clip-rule:evenodd;fill:#171819;" d="M610.2755,241.4647
		c-4.8563-7.884-9.6827-15.768-14.6589-23.4722c-4.9763-7.7042-9.5928-15.9179-14.6889-23.5921l-18.401-0.03
		c0.6864-4.1163,1.1039-6.1867,1.0142-10.7319c-5.6203,1.136-13.8013,7.22-15.2732,10.821l-1.6905-0.0874l1.5554-12.6821
		c0.3897-1.9185-0.6595,0.2998,3.4474-2.0984c3.7772-2.1884,6.8948-5.0362,8.9632-9.5028c2.1284-4.6165,3.7172-15.858,1.289-20.8342
		c-4.1968,1.4389-9.5927,7.1346-11.811,11.1516c-0.8693,1.5588-1.5588,3.6273-2.3082,5.0662l-2.2183-14.5989
		c16.0378-12.7404,5.9655-33.2448,3.3875-34.6537c-3.3575,5.6058-7.9739,9.233-8.1238,19.4553
		c-2.0984-4.0769-3.897-8.4836-6.1453-12.6504c3.0276-4.8863,6.7149-8.0039,5.7556-17.4767
		c-0.6895-6.7149-3.8371-12.4705-6.7449-16.5775c-2.2783,1.8586-4.4666,6.7449-5.366,9.4728
		c-1.6188,4.8563-1.4988,7.7941-0.8693,13.0401l-9.6827-11.4513c3.987-9.4728,5.5458-15.6481-1.5288-26.5599
		c-1.1691-1.7986-3.927-5.4258-5.1861-6.1753c-1.6487,2.3982-3.4174,7.7641-3.8371,11.3314
		c-0.7494,6.1154,0.4497,8.1238,1.7387,13.3398c-2.3682-1.7087-4.2867-3.2675-6.6849-4.9462
		c-2.3382-1.6487-4.7064-2.9378-6.9847-4.6465c2.4282-7.0147,3.957-11.5413,0.7495-19.0356
		c-1.1691-2.7579-2.698-5.306-4.2268-7.2545c-1.2891-1.5888-4.4966-4.4067-5.7256-6.0854h-0.5096
		c-1.8586,5.3359-3.2675,9.7726-2.4282,15.9479c0.8693,6.4751,3.1476,8.8433,5.6957,13.0101
		c-6.1453-2.548-3.6572-1.6487-6.2053-4.7064c-0.7495-0.8993-1.0192-1.1991-1.6788-1.9785
		c-8.2137-9.7426-28.1786-9.1131-33.1848-5.4858c3.2975,5.9655,12.1108,13.3998,22.2131,14.4191
		c9.0532,0.8994,12.2308-2.3682,15.1385-1.259c3.3574,1.319,9.2629,4.6465,11.6312,6.565
		c-6.7149-0.1799-15.1085,0.4797-19.8749,4.0769c1.7687,3.4474,9.8625,7.7642,14.5989,8.8733
		c8.9332,2.0684,12.9202-0.9293,18.7358-2.9678c0.9893,1.1092,2.0385,1.7687,3.1177,2.8478
		c1.8286,1.7986,8.0938,8.0639,8.7233,9.7426c-4.0469-1.9485-6.8947-3.2375-12.2607-3.3874
		c-3.7471-0.1199-9.9824,0.6595-13.0101,2.1583c0.6895,1.7387,4.0769,5.2161,5.4559,6.2653
		c10.6719,8.0639,15.0786,7.0147,26.9196,4.4366c2.0685,3.5373,5.9355,9.4428,7.3445,13.9394
		c-0.8994-0.4796-1.8886-1.3489-2.728-1.8885c-0.9893-0.6895-1.4988-1.0492-2.548-1.5588
		c-5.6657-2.7879-17.6866-3.8071-20.8642-1.5289c1.4988,4.2867,6.7748,9.293,11.0016,11.811
		c6.8348,4.1069,10.8517,3.2076,18.7958,2.6979c1.8885,2.8478,4.3766,16.4276,4.8263,20.4445
		c-2.7279-5.5758-4.6465-8.4536-9.4428-11.4813c-3.957-2.4881-10.2222-4.7963-15.798-4.8263
		c-0.5396,4.9762,5.9055,13.9394,8.0639,15.828c3.957,3.5373,10.3122,6.595,17.7166,6.6549
		c1.1378,8.533-0.2962,17.5442-1.3749,25.7797l-0.0341,0.0008l-0.9293-0.03l-0.0341-0.0003
		c-0.7531-7.1485-3.1191-12.3853-7.0105-15.7678c-2.608-2.2783-9.6227-7.4643-14.8387-7.7641
		c0.1494,16.5251,8.9658,20.3304,11.7532,23.4425l-17.3889,0.0897c0.0006-10.0724,0.1461-17.8563-1.6788-27.6091
		c-4.4067-23.652-14.8987-43.2872-30.2171-59.2051c-34.3839-35.7629-87.0839-46.105-132.6494-25.0909
		c-11.7211,5.4258-26.0502,15.2284-34.6237,24.8811c-1.1392,1.289-2.698,2.5181-3.8071,3.957
		c-4.0469,5.276-4.9163,5.9055-9.5328,12.6505c-12.5851,18.4281-21.0665,47.3691-18.7383,70.5664l-18.2476-0.239
		c7.0819-5.6241,11.1467-10.7247,11.8051-23.4131c-5.0961,0.06-12.4406,5.4858-14.8687,7.7042
		c-3.503,3.2335-6.8258,8.6802-6.9834,15.8018c-0.0098-0.0013-0.0215-0.0024-0.0313-0.0038l-0.9293,0.03l-0.0048-0.0001
		c-1.1088-6.6913-2.6314-18.9553-1.3741-25.7804c7.9739-0.0599,13.2499-2.9677,17.6866-6.6849
		c2.2183-1.8586,8.5135-10.7318,8.0939-15.798c-12.1108,0.0899-22.2432,7.4044-25.2109,16.4875
		c0.03-3.957,2.9377-17.9264,4.7963-20.6544c7.3145,0.8394,12.9202,0.9893,18.8557-2.638
		c4.0469-2.4581,9.1131-7.3145,10.9417-11.841c-2.548-1.8286-11.811-1.1392-15.0486-0.4496
		c-6.3851,1.379-7.3444,3.0577-11.3015,5.6957c1.0792-3.1776,5.6058-11.7811,7.6442-14.1493
		c3.6872,0.6295,5.1561,1.7387,9.8325,1.7687c7.914,0.03,11.5712-2.2783,17.177-6.5051c1.5888-1.1691,4.1968-4.1669,5.246-6.0255
		c-6.8648-3.5972-19.8749-2.4881-25.5107,1.379c1.8886-3.6572,9.5927-10.1024,12.1408-12.7404
		c6.0255,2.728,11.2415,4.8264,19.0356,2.8779c4.1968-1.0493,12.8902-5.6957,14.1492-8.7834
		c-5.3359-3.5673-12.5605-4.3167-19.785-4.0769c1.7087-1.6188,10.7018-6.3552,11.931-6.7149
		c2.668-0.7794,6.2352,2.3682,15.2584,1.349c8.4536-0.9293,18.5859-7.8241,21.7935-14.3591
		c-5.0662-3.5073-19.0056-2.668-24.9111-0.2698c-3.6273,1.4689-6.7748,3.957-8.6634,6.1453
		c-2.638,2.9977-2.8179,4.9763-7.7341,6.3252c2.2183-2.0684,5.276-8.1838,5.9055-12.7403
		c0.8993-6.5651-0.6295-10.8218-2.3982-16.2477h-0.4797c-2.638,3.7771-6.1753,4.5266-9.9524,13.3398
		c-3.8071,8.9033-0.7794,13.7596,0.6595,19.0356c-1.1392,1.1091-5.306,3.5673-6.8948,4.6465
		c-2.5181,1.7087-4.3167,3.3275-6.8049,4.9163c3.3575-10.8517,2.4882-15.1385-1.9785-24.6413
		c-1.5588,0.8693-4.0469,4.3467-5.3959,6.3552c-6.9547,10.3721-5.246,17.4168-1.349,26.38l-9.5627,11.3614
		c0.1199-5.3959,0.8094-7.4644-0.9892-12.9202c-1.1392-3.4474-3.0877-7.4644-5.2161-9.3829
		c-2.9977,2.608-6.4451,11.2415-6.9247,16.3676c-0.4796,5.3659,0.6595,9.8925,3.2975,14.1492
		c0.8094,1.259,1.7687,2.0984,2.3982,3.4174c-1.6188,3.927-4.4666,8.3636-5.9655,12.6204
		c-0.8394-7.944-2.3083-11.6012-7.1046-17.6566c-0.9593-1.1991-0.7794-1.1391-1.7387-1.6487
		c-3.0876,3.987-5.4259,13.3099-4.7364,19.3054c0.3897,3.4174,1.4389,6.565,3.0876,9.1131c2.1884,3.3874,2.8778,3.897,5.7256,6.1453
		c-0.2997,2.3982-1.9185,12.7404-2.4282,14.3291c-0.9593-1.5588-1.5588-3.6572-2.4581-5.306
		c-2.0984-3.7771-7.7941-9.5027-11.7511-10.7318c-1.4988,7.1046-1.379,14.2092,1.4089,20.6543
		c1.8885,4.3767,7.3444,10.2222,12.4706,11.1516l1.5852,13.3999l-1.7018,0.0294c-0.9349-2.3566-4.3979-5.1973-6.5084-6.5944
		c-1.8286-1.2291-6.2053-4.1369-8.8733-4.017c-0.0596,4.0249,0.5331,6.8358,1.1295,10.582l-0.0203-0.0001h-16.8772
		c-1.6188,0.3298-14.449,22.1232-15.1985,23.2923c-12.2906,19.2454-24.6113,40.0797-36.932,59.0552
		c-1.3489,2.0984-5.9055,10.1623-7.3145,11.4213v0.8394c1.5289,0.8994,4.3467,4.1369,5.9055,5.6357
		c1.7687,1.7387,3.5374,4.1069,5.1861,6.2952c18.9756,25.061,22.3031,63.4019,16.4875,93.6489
		c-1.259,6.4751-3.0577,12.2607-4.5266,18.466c-1.4989,6.2952-2.9378,12.5905-4.3767,18.9756
		c-12.0808,52.5501-16.1577,106.2693,10.0724,155.1923c5.3959,10.0424,11.1815,19.9948,17.6566,28.2686l15.5582,18.8857
		c1.7687,2.2183,3.8371,3.7471,5.6058,5.9055c3.5073,4.3167,5.7556,5.6357,8.6634,8.5435
		c4.5865,4.5565,10.1024,9.5328,15.1086,13.6097c9.5927,7.824,15.4982,12.6204,26.1401,20.2047
		c27.0695,19.2754,56.687,36.0927,87.1439,51.1113c9.9225,4.8863,20.8641,10.3421,31.5061,14.8387
		c4.9762,2.0984,3.0277,1.7686,8.0339-0.4197c2.728-1.199,5.246-2.3981,7.8541-3.6572
		c27.6091-13.1899,48.5632-24.5214,74.4935-40.3494c16.1578-9.8625,42.0281-28.2086,56.657-41.3686
		c6.4151-5.7557,8.3337-7.3145,14.8687-13.8495c18.6159-18.5859,32.3455-35.0134,45.0858-59.0552
		c26.0802-49.1328,24.7312-98.2355,13.7296-155.9417c-5.5158-28.928-11.2415-51.1712-7.3744-82.5574
		c2.608-21.3438,9.4128-41.4586,23.742-56.657c0.8993-0.9592,5.246-5.1261,6.2653-5.5757v-0.9293
		C638.8138,287.4499,611.6245,243.6531,610.2755,241.4647z M211.9377,608.2065c-34.7437-48.6531-40.1696-95.2377-28.6283-155.7618
		c1.8586-9.6827,6.9547-33.6045,9.5927-42.5377c10.1323-34.1141,8.3337-77.1015-10.6119-107.9781
		c-5.366-8.6934-9.6527-12.2007-11.1815-14.539c1.1991-2.668,3.9869-6.4751,5.6957-9.233l17.4767-28.0287
		c1.9185-2.9377,21.9434-35.583,23.3823-37.0519l0.03,402.5046C215.8347,613.8123,213.5864,610.4848,211.9377,608.2065z
		 M308.2246,692.7724c-4.5865-2.8179-8.9632-5.6957-13.22-8.5435c-4.4366-2.9678-8.6334-5.8156-12.8602-8.8733
		c-3.897-2.8478-9.233-6.2952-12.3207-9.3529V202.944h52.0705l0.03,497.9223C319.556,699.877,311.1324,694.5411,308.2246,692.7724z
		 M400.1649,740.6161c-1.6787,0.1199-23.2324-10.3721-26.2301-11.841l0.03-525.8311c2.728,0,2.8779,1.289,4.1069,2.8179
		c1.1391,1.4389,2.0085,2.2783,3.2675,3.7172c2.7279,3.0876,17.2369,21.014,19.0655,21.9134
		c0.8694-1.5289,13.1001-15.8879,15.4683-18.5859c1.3489-1.5288,1.7087-2.0684,3.0276-3.5073
		c3.2076-3.5373,4.1669-6.3552,7.1346-6.3552l0.03,525.3815C423.2174,729.8243,401.7237,740.4962,400.1649,740.6161z
		 M424.8062,194.5504c-3.6572-0.03-4.1968-0.5396-6.1154,1.8885c-2.0084,2.548-17.4467,20.8642-18.8557,22.0033
		c-0.9593-1.379-2.3982-2.8778-3.7472-4.3766l-11.2714-13.3399c-6.2053-6.8048-3.2675-6.2053-10.0424-6.1753
		c-26.7397,0.0599-55.7877,0.5396-81.9878-0.03h-0.0019c-0.7412-17.5419,1.7176-33.0817,7.766-47.6639
		c5.9355-14.2991,12.1708-22.8427,21.8834-33.4846c28.6583-31.3862,78.6304-43.3471,123.1466-23.0225
		c6.565,2.9977,12.3506,6.595,17.5367,10.3422c6.5051,4.6765,9.3229,7.884,14.569,12.9502
		c8.1538,7.914,16.3676,20.2646,21.7935,33.5446c6.1084,14.9116,8.2682,29.4949,7.6756,47.3038l-0.0314,0.0003
		c-10.552,0.5396-22.393,0.06-33.0948,0.06H424.8062z M530.1163,662.6453c-2.5181,3.7172-32.5253,24.4315-38.2809,28.1486
		c-2.2183,1.4689-4.4366,2.8179-6.7449,4.3168c-1.9185,1.259-4.7964,3.2375-6.9847,4.2267V202.944h52.0405L530.1163,662.6453z
		 M622.866,293.955c-5.7557,7.2545-10.0724,14.6888-13.5497,23.7419c-5.0062,12.8903-7.7941,26.2001-8.8433,41.0988
		c-2.3981,33.2748,5.1861,58.0959,10.4921,88.7028c8.1838,47.1842,8.3337,85.0155-10.462,128.8422
		c-3.0277,7.0746-13.4598,26.5299-18.1962,31.4162V213.1063l46.4348,73.924C627.9621,288.5291,624.3049,292.1263,622.866,293.955z"
		/>
</g>
<g>
</g>
<g>
</g>
<g>
</g>
<g>
</g>
<g>
</g>
<g>
</g>
<g>
</g>
<g>
</g>
<g>
</g>
<g>
</g>
<g>
</g>
<g>
</g>
<g>
</g>
<g>
</g>
<g>
</g>
</svg>
