<?xml version="1.0" encoding="UTF-8"?>
<svg data-name="图层_1" xmlns="http://www.w3.org/2000/svg" version="1.1" viewBox="0 0 800 800">
  <!-- Created by @FCLOGO 2025-1-9 GMT+8 10:42:11 . https://fclogo.top/ -->
<!-- FOR PERSONAL USE ONLY NOT FOR COMMERCIAL USE -->
  <path d="M348.2194,774.301c-.786,0-1.3752-.2173-1.7682-.6519-.393-.4352-.5284-1.03-.406-1.7856l.2518-1.6478c.122-.755.4501-1.3504.9841-1.785.5339-.4352,1.1939-.6525,1.9799-.6525.7553,0,1.3293.1987,1.7223.5954.3927.3967.551.9381.4747,1.6248h-1.2358c.0304-.3589-.0553-.637-.2573-.8357-.2024-.1981-.4979-.2974-.8869-.2974-.4197,0-.763.1167-1.03.3489-.2673.2328-.4349.5631-.5035.9903l-.2632,1.659c-.0686.4352-.0056.7686.1887,1.0015.1946.2328.5017.3489.9214.3489.389,0,.7152-.0987.9785-.2974.2632-.1981.4365-.4805.5206-.8469h1.2358c-.1372.6867-.4672,1.2306-.9897,1.631-.5228.4005-1.1616.6004-1.9169.6004ZM352.7967,774.1868l.9956-6.2943h1.1902l-.1946,1.1902c.3359-.8698.9729-1.3044,1.9113-1.3044.6712,0,1.1691.208,1.4932.624.3244.416.4293.9859.3148,1.7105l-.0686.4234h-1.2703l.0571-.3204c.0689-.4501.0115-.7953-.1714-1.0356-.1832-.2403-.4771-.3607-.8813-.3607-.4045,0-.7401.1223-1.007.3663-.2673.2446-.4349.588-.5035,1.03l-.6296,3.9711h-1.2358ZM361.9058,774.301c-.7705,0-1.3463-.2229-1.7279-.6693s-.515-1.0356-.4005-1.7682l.2518-1.6478c.0838-.488.2573-.9152.5206-1.2815s.6007-.6507,1.0129-.8524c.4119-.2024.8732-.3036,1.3845-.3036.7705,0,1.3485.2235,1.7338.6693.3852.4464.5169,1.0356.3949,1.7682l-.1717,1.1213h-3.845l-.0916.5265c-.1527.9536.2173,1.4305,1.1098,1.4305.7171,0,1.175-.2477,1.3734-.7438h1.2247c-.1679.5339-.5035.9599-1.007,1.2759-.5038.3166-1.0912.475-1.7626.475ZM361.2306,770.2157l-.0456.2862,2.6548-.0118.0459-.2856c.0686-.4656.0133-.822-.1661-1.0704-.1791-.2477-.4861-.3719-.9211-.3719-.4427,0-.7953.126-1.0586.3775-.2632.2521-.4331.6109-.5094,1.076ZM368.3258,774.301c-.6333,0-1.1027-.2117-1.4078-.6351s-.3967-1.0008-.2744-1.7335l.2744-1.7738c.1145-.7326.393-1.3119.8357-1.7397.4424-.4272.98-.6407,1.6133-.6407.4653,0,.8298.1186,1.093.3545.2632.2365.3908.5575.3834.9617h.023l.1717-1.202h1.2358l-.9956,6.2943h-1.2247l.1946-1.2014h-.023c-.122.4116-.3511.7339-.6867.9667s-.7401.3489-1.2129.3489ZM368.9324,773.2257c.389,0,.7152-.1186.9782-.3551.2632-.2359.4293-.5718.4979-1.007l.2518-1.6478c.0686-.4272.0096-.7612-.1773-1.0015-.1872-.2403-.475-.3601-.8642-.3601-.3967,0-.7249.118-.9841.3545-.2595.2365-.4234.5724-.492,1.007l-.2518,1.6478c-.0686.4427-.0133.7804.1658,1.0133.1794.2328.4712.3489.8757.3489ZM376.3477,774.1868c-.5721,0-.9937-.1565-1.2644-.4694-.271-.3123-.3607-.7512-.2691-1.3156l.538-3.3874h-1.7394l.1714-1.1219h1.7397l.2747-1.7161h1.2358l-.2747,1.7161h2.472l-.1832,1.1219h-2.4605l-.5377,3.3874c-.0764.4421.099.6637.5262.6637h1.7167l-.1717,1.1213h-1.7738ZM382.5042,774.301c-.7705,0-1.3463-.2229-1.7279-.6693s-.515-1.0356-.4005-1.7682l.2518-1.6478c.0838-.488.2573-.9152.5206-1.2815s.6007-.6507,1.0129-.8524c.4119-.2024.8732-.3036,1.3845-.3036.7705,0,1.3485.2235,1.7338.6693.3852.4464.5169,1.0356.3949,1.7682l-.1717,1.1213h-3.845l-.0916.5265c-.1527.9536.2173,1.4305,1.1098,1.4305.7171,0,1.175-.2477,1.3734-.7438h1.2247c-.1679.5339-.5035.9599-1.007,1.2759-.5038.3166-1.0912.475-1.7626.475ZM381.829,770.2157l-.0456.2862,2.6548-.0118.0459-.2856c.0686-.4656.0133-.822-.1661-1.0704-.1791-.2477-.4861-.3719-.9211-.3719-.4427,0-.7953.126-1.0586.3775-.2632.2521-.4331.6109-.5094,1.076ZM388.9243,774.301c-.6333,0-1.1008-.2117-1.4019-.6351-.3014-.4234-.3949-1.0008-.2803-1.7335l.2744-1.7738c.1145-.7326.393-1.3119.8357-1.7397.4424-.4272.98-.6407,1.6133-.6407.4653,0,.8298.1186,1.093.3545.2632.2365.3908.5575.3834.9617h.023l.2058-1.4652.2977-1.7962h1.2358l-1.3274,8.3537h-1.2247l.1946-1.2014h-.023c-.122.4116-.3511.7339-.6867.9667s-.7401.3489-1.2129.3489ZM389.5309,773.2257c.389,0,.7152-.1186.9782-.3551.2632-.2359.4293-.5718.4979-1.007l.2518-1.6478c.0761-.4272.0189-.7612-.1717-1.0015-.1909-.2403-.4805-.3601-.8698-.3601-.3967,0-.7249.118-.9841.3545-.2595.2365-.4234.5724-.492,1.007l-.2518,1.6478c-.0764.4427-.023.7804.1602,1.0133s.4768.3489.8813.3489ZM401.0175,774.301c-.4731,0-.8394-.1161-1.0986-.3489-.2595-.2328-.3852-.5551-.3775-.9667h-.0115l-.1946,1.2014h-1.2243l1.3274-8.3537h1.2358l-.2862,1.7962-.2744,1.4652h.0456c.122-.4123.353-.7345.6923-.9673.3396-.2322.7419-.3489,1.2076-.3489.633,0,1.1002.2136,1.4016.6407.3014.4278.3949,1.007.2806,1.7397l-.2747,1.7738c-.1145.7326-.3949,1.31-.8413,1.7335-.4461.4234-.9822.6351-1.6077.6351ZM400.7657,773.2257c.3967,0,.7227-.1161.9785-.3489.2555-.2328.4216-.5706.4976-1.0133l.2518-1.6478c.0689-.4346.0115-.7705-.1714-1.007-.1832-.2365-.4734-.3545-.8698-.3545-.3893,0-.7152.1198-.9785.3601s-.429.5743-.4979,1.0015l-.2518,1.6478c-.0686.4352-.0112.7711.1717,1.007.1832.2365.4731.3551.8698.3551ZM405.4694,776.2468l.1717-1.0642h1.934c.6407,0,1.007-.3017,1.0986-.9046l.1028-.6749.2061-1.1902h-.0345c-.122.4197-.3471.7438-.6752.9729-.3281.2285-.7286.3433-1.2014.3433-.6258,0-1.093-.2005-1.4019-.601s-.4104-.9443-.3033-1.631l.5836-3.6047h1.2358l-.5606,3.4793c-.0612.4116,0,.732.1832.9611s.4653.3433.8469.3433c.389,0,.7168-.1217.9841-.3663.267-.244.4309-.5836.492-1.0182l.538-3.3992h1.2358l-1.007,6.4086c-.0993.6029-.37,1.0778-.8124,1.4249-.4427.3471-.9996.5209-1.6707.5209h-1.9455ZM417.787,770.0853h3.221l.5368-1.8545h-5.4659l-1.7081,6.4419h2.1473l.5856-2.0985h3.0257l.4392-1.7081h-3.0257l.244-.7808ZM424.229,772.9158c-.5856,0-1.0249-.3904-1.0249-1.1225,0-.8784.6344-1.7569,1.6105-1.7569.488,0,.8784.244,1.0248.7808l1.9521-.8296c-.2928-1.1713-1.2689-1.9033-2.6353-1.9033-2.7817,0-4.1482,2.1473-4.1482,3.9042s1.2689,2.8305,3.0746,2.8305c1.3665,0,2.3425-.5856,2.9769-1.4153l-1.5129-1.1713c-.3904.4392-.8296.6832-1.3177.6832ZM430.9149,768.2308h-2.1473l-1.7569,6.4419h5.1242l.488-1.8545h-2.9281l1.2201-4.5874ZM439.7481,771.0125c0-1.6593-1.3177-2.9281-3.221-2.9281-2.1961,0-3.8066,1.8057-3.8066,3.8066,0,1.6593,1.3177,2.9281,3.221,2.9281,2.1961,0,3.8066-1.8057,3.8066-3.8066ZM434.9167,771.6957c0-.8296.5856-1.7081,1.5129-1.7081.7808,0,1.1713.5368,1.1713,1.2201,0,.8296-.5856,1.7081-1.5129,1.7081-.7808,0-1.1713-.5368-1.1713-1.2201ZM443.2131,772.2326h1.0737l-.1952.6832c-.1464.0488-.3416.0976-.5856.0976-.6832,0-1.2689-.3904-1.2689-1.2201,0-1.0249.732-1.9033,1.9521-1.9033.5856,0,1.1225.244,1.5129.5856l1.3665-1.3665c-.4392-.5368-1.5129-1.0737-2.7329-1.0737-2.5865,0-4.2946,1.7569-4.2946,3.8554,0,2.0497,1.6105,2.8793,3.221,2.8793.9272,0,1.8545-.2928,2.4889-.6832l.9272-3.3186h-3.1234l-.3416,1.4641ZM450.7775,768.0844c-2.1961,0-3.8066,1.8057-3.8066,3.8066,0,1.6593,1.3177,2.9281,3.221,2.9281,2.1961,0,3.8066-1.8057,3.8066-3.8066,0-1.6593-1.3177-2.9281-3.221-2.9281ZM450.3382,772.9158c-.7808,0-1.1713-.5368-1.1713-1.2201,0-.8296.5856-1.7081,1.5129-1.7081.7808,0,1.1713.5368,1.1713,1.2201,0,.8296-.5856,1.7081-1.5129,1.7081ZM437.9424,767.4987c-.0488.2928.0976.488.4392.488s.5368-.1952.6344-.488c.0488-.244-.0976-.488-.4392-.488s-.5856.244-.6344.488ZM432.1349,765.4978c-.4392,0-.732.244-.7808.5856s.0976.5856.5368.5856.732-.244.7808-.5856c.0976-.3416-.0976-.5856-.5368-.5856ZM433.0134,767.3035c-.0976.5368.1464.8784.8296.8784.6344,0,1.0737-.3904,1.1713-.8784s-.1464-.8784-.8296-.8784c-.6832,0-1.0737.3904-1.1713.8784ZM439.6017,777.552l-2.4401-1.8057h-1.5129l4.2458,3.1722,1.6105-3.1722h-.976l-.9272,1.8057ZM425.8394,767.1571l-2.0009-1.4641,23.1323-2.7817-2.1473,4.2458h1.0248l2.6841-5.3195-26.9877,3.221,2.7817,2.0985h1.5129ZM338.7186,785.7853l.6088-3.8315h2.32l-.084.5194h-1.7636l-.1837,1.1445h1.6272l-.084.5248h-1.6166l-.2573,1.6428h-.5668ZM342.97,785.8377c-.3568,0-.6228-.1005-.7978-.3019-.175-.201-.2345-.473-.1784-.8161l.2677-1.7006c.056-.3429.2029-.6148.4408-.8161.2379-.201.5355-.3019.8923-.3019s.6228.1.7979.2993c.1748.1993.2361.4707.1837.8136l-.2677,1.7057c-.0561.3431-.2039.6151-.4435.8161-.2398.2013-.5381.3019-.895.3019ZM343.0487,785.3339c.1925,0,.3483-.0524.4672-.1575.119-.1051.1942-.2571.2257-.4568l.2678-1.7006c.0315-.1993.0051-.3517-.0787-.4565-.084-.1051-.2223-.1575-.4148-.1575s-.3473.0524-.4645.1575c-.1173.1048-.1916.2571-.2231.4565l-.2677,1.7006c-.0315.1996-.0053.3517.0787.4568s.2204.1575.4094.1575ZM344.9961,785.7853l.6088-3.8315h1.202c.2379,0,.4391.0464.6036.139.1645.0928.2835.223.357.391s.091.3656.0524.5932c-.0384.2591-.14.4838-.3044.6746-.1645.1905-.3656.3209-.6036.391l.5354,1.6428h-.6194l-.4777-1.5748h-.5406l-.2466,1.5748h-.5668ZM345.8883,783.7068h.6352c.1889,0,.349-.0558.4803-.168.1313-.1119.2107-.2623.2388-.4514.0316-.1925,0-.3454-.0944-.4593-.0945-.1136-.2362-.1706-.4252-.1706h-.6352l-.1995,1.2493ZM349.545,785.7853l.6088-3.8315h1.2544c.3709,0,.6508.1048.8399.315.1889.2099.2553.4898.1993.8398-.0384.2344-.1216.4383-.2493.6114s-.2905.307-.4881.4015c-.1978.0945-.419.1418-.6639.1418h-.6928l-.2415,1.5221h-.5668ZM350.432,783.754h.6928c.1924,0,.3568-.0587.4934-.176.1364-.117.2204-.2737.2519-.4696s-.0017-.3525-.0997-.4699-.245-.1757-.441-.1757h-.6876l-.2099,1.2911ZM352.7466,785.7853l.6088-3.8315h2.2518l-.0787.5038h-1.6954l-.1731,1.0867h1.5115l-.0787.4986h-1.5115l-.1942,1.2387h1.6901l-.0787.5038h-2.2518ZM355.8434,785.7853l.6088-3.8315h1.202c.2379,0,.4391.0464.6036.139.1645.0928.2835.223.357.391s.091.3656.0524.5932c-.0384.2591-.14.4838-.3044.6746-.1645.1905-.3656.3209-.6036.391l.5354,1.6428h-.6194l-.4777-1.5748h-.5406l-.2466,1.5748h-.5668ZM356.7356,783.7068h.6352c.1889,0,.349-.0558.4803-.168.1313-.1119.2107-.2623.2388-.4514.0316-.1925,0-.3454-.0944-.4593-.0945-.1136-.2362-.1706-.4252-.1706h-.6352l-.1995,1.2493ZM360.1316,785.8377c-.385,0-.6736-.0951-.8661-.2859-.1924-.1908-.2641-.4505-.2151-.7794h.5668c-.028.1748.0105.3121.1155.4121.1051.0997.266.1495.483.1495.2029,0,.3701-.049.5012-.1469.1313-.098.2109-.2327.2389-.4044.0209-.1504.0007-.2788-.0604-.3856-.0614-.1068-.1583-.1811-.2913-.2233l-.4566-.1364c-.266-.0803-.4619-.217-.5879-.4095-.126-.1922-.1697-.4197-.1313-.6823.035-.2099.1121-.3935.2309-.551s.2729-.2799.4619-.3673.4024-.1313.6404-.1313c.3498,0,.6158.0954.7978.2859.182.1908.2485.4437.1995.7586h-.5668c.0279-.168-.0027-.3001-.092-.3964-.0891-.0963-.2301-.1444-.4225-.1444-.1889,0-.343.0447-.4619.1338-.119.0894-.1889.2144-.21.3753-.0245.1506-.007.2791.0525.3859s.1575.1811.2939.223l.4672.1469c.2624.0806.4558.2173.5801.4095.1242.1925.1653.4217.1233.6877-.035.217-.1155.4058-.2415.5667-.1259.1612-.2878.2862-.4855.3753-.1976.0894-.419.1338-.6639.1338ZM363.2651,785.8377c-.3568,0-.6228-.1005-.7978-.3019-.175-.201-.2345-.473-.1784-.8161l.2677-1.7006c.056-.3429.2029-.6148.4408-.8161.2379-.201.5355-.3019.8923-.3019s.6228.1.7979.2993c.1748.1993.2361.4707.1837.8136l-.2677,1.7057c-.0561.3431-.2039.6151-.4435.8161-.2398.2013-.5381.3019-.895.3019ZM363.3439,785.3339c.1925,0,.3483-.0524.4672-.1575.119-.1051.1942-.2571.2257-.4568l.2678-1.7006c.0315-.1993.0051-.3517-.0787-.4565-.084-.1051-.2223-.1575-.4148-.1575s-.3473.0524-.4645.1575c-.1173.1048-.1916.2571-.2231.4565l-.2677,1.7006c-.0315.1996-.0053.3517.0787.4568s.2204.1575.4094.1575ZM365.2754,785.7853l.6088-3.8315h.7086l.6194,3.186c.007-.098.0165-.217.0289-.3571.0121-.1398.0271-.2851.0446-.4354.0175-.1506.0367-.2888.0577-.4146l.315-1.9788h.525l-.609,3.8315h-.7085l-.6141-3.186c-.0071.0945-.0167.209-.0289.3437s-.0272.2757-.0446.4226c-.0177.1469-.0367.2833-.0578.4095l-.315,2.0102h-.5301ZM368.2252,785.7853l1.5851-3.8315h.7454l.3726,3.8315h-.5616l-.0735-.9711h-1.0865l-.3884.9711h-.5932ZM369.3852,784.3418h.8714l-.0893-1.1023c-.0175-.1959-.0298-.3654-.0367-.5089-.0071-.1435-.0105-.2432-.0105-.2993-.0175.0561-.0517.1558-.1024.2993s-.1146.3112-.1915.5038l-.441,1.1075ZM371.7208,785.7853l.6088-3.8315h.567l-.525,3.3118h1.6744l-.0787.5197h-2.2465ZM376.6785,785.8377c-.3673,0-.6342-.1005-.8003-.3019-.1663-.201-.2214-.475-.1654-.8213l.4357-2.7608h.567l-.4357,2.7554c-.0315.1962-.008.35.0708.4619.0787.1122.2144.168.4068.168.1925,0,.3473-.0558.4646-.168.1172-.1119.1915-.2657.2231-.4619l.4355-2.7554h.567l-.4357,2.7608c-.056.35-.2003.6245-.433.8241-.2328.1993-.5328.299-.9003.299ZM379.8435,785.8377c-.385,0-.6736-.0951-.8661-.2859-.1924-.1908-.2641-.4505-.2151-.7794h.5668c-.028.1748.0105.3121.1155.4121.1051.0997.266.1495.483.1495.2029,0,.3701-.049.5012-.1469.1313-.098.2109-.2327.2389-.4044.0209-.1504.0007-.2788-.0604-.3856-.0614-.1068-.1583-.1811-.2913-.2233l-.4566-.1364c-.266-.0803-.4619-.217-.5879-.4095-.126-.1922-.1697-.4197-.1313-.6823.035-.2099.1121-.3935.2309-.551s.2729-.2799.4619-.3673.4024-.1313.6404-.1313c.3498,0,.6158.0954.7978.2859.182.1908.2485.4437.1995.7586h-.5668c.0279-.168-.0027-.3001-.092-.3964-.0891-.0963-.2301-.1444-.4225-.1444-.1889,0-.343.0447-.4619.1338-.119.0894-.1889.2144-.21.3753-.0245.1506-.007.2791.0525.3859s.1575.1811.2939.223l.4672.1469c.2624.0806.4558.2173.5801.4095.1242.1925.1653.4217.1233.6877-.035.217-.1155.4058-.2415.5667-.1259.1612-.2878.2862-.4855.3753-.1976.0894-.419.1338-.6639.1338ZM381.9062,785.7853l.6088-3.8315h2.2518l-.0787.5038h-1.6954l-.1731,1.0867h1.5115l-.0787.4986h-1.5115l-.1942,1.2387h1.6901l-.0787.5038h-2.2518ZM386.9426,785.8377c-.3568,0-.6228-.1005-.7978-.3019-.175-.201-.2345-.473-.1784-.8161l.2677-1.7006c.056-.3429.2029-.6148.4408-.8161.2379-.201.5355-.3019.8923-.3019s.6228.1.7979.2993c.1748.1993.2361.4707.1837.8136l-.2677,1.7057c-.0561.3431-.2039.6151-.4435.8161-.2398.2013-.5381.3019-.895.3019ZM387.0213,785.3339c.1925,0,.3483-.0524.4672-.1575.119-.1051.1942-.2571.2257-.4568l.2678-1.7006c.0315-.1993.0051-.3517-.0787-.4565-.084-.1051-.2223-.1575-.4148-.1575s-.3473.0524-.4645.1575c-.1173.1048-.1916.2571-.2231.4565l-.2677,1.7006c-.0315.1996-.0053.3517.0787.4568s.2204.1575.4094.1575ZM388.9529,785.7853l.6088-3.8315h.7086l.6194,3.186c.007-.098.0165-.217.0289-.3571.0121-.1398.0271-.2851.0446-.4354.0175-.1506.0367-.2888.0577-.4146l.315-1.9788h.525l-.609,3.8315h-.7085l-.6141-3.186c-.0071.0945-.0167.209-.0289.3437s-.0272.2757-.0446.4226c-.0177.1469-.0367.2833-.0578.4095l-.315,2.0102h-.5301ZM392.249,785.7853l.6088-3.8315h.567l-.525,3.3118h1.6744l-.0787.5197h-2.2465ZM396.1174,785.7853l.2204-1.4119-.7506-2.4197h.5774l.4462,1.4486c.0279.0945.0498.1837.0656.2677.0157.084.0253.1469.0288.1888.0175-.0419.0464-.1048.0867-.1888.0402-.084.0883-.1731.1442-.2677l.8976-1.4486h.5984l-1.5275,2.4197-.2204,1.4119h-.5668ZM399.217,785.7853l.6088-3.8315h.7086l.6192,3.186c.0071-.098.0165-.217.029-.3571.012-.1398.0271-.2851.0444-.4354.0177-.1506.037-.2888.0578-.4146l.315-1.9788h.5248l-.6088,3.8315h-.7085l-.6141-3.186c-.0071.0945-.0167.209-.0289.3437s-.0272.2757-.0446.4226c-.0177.1469-.0367.2833-.0578.4095l-.315,2.0102h-.5301ZM403.5053,785.8377c-.3571,0-.6231-.1005-.7979-.3019-.1751-.201-.2344-.473-.1785-.8161l.2677-1.7006c.0561-.3429.203-.6148.4411-.8161.2378-.201.5354-.3019.8922-.3019.3571,0,.6228.1.7979.2993.1748.1993.2361.4707.1837.8136l-.2677,1.7057c-.0561.3431-.2039.6151-.4437.8161-.2395.2013-.5379.3019-.8947.3019ZM403.5839,785.3339c.1925,0,.3483-.0524.4673-.1575.1187-.1051.1942-.2571.2255-.4568l.2677-1.7006c.0316-.1993.0054-.3517-.0786-.4565-.084-.1051-.2224-.1575-.4146-.1575-.1925,0-.3474.0524-.4647.1575-.117.1048-.1914.2571-.223.4565l-.2677,1.7006c-.0316.1996-.0051.3517.0789.4568.0837.1051.2204.1575.4092.1575ZM406.3814,785.7853l.5248-3.3121h-1.0234l.084-.5194h2.6193l-.084.5194h-1.0289l-.5248,3.3121h-.567ZM409.5178,785.7853l.6088-3.8315h2.32l-.084.5194h-1.7636l-.1837,1.1445h1.6272l-.084.5248h-1.6166l-.2571,1.6428h-.567ZM413.7694,785.8377c-.3571,0-.6231-.1005-.7979-.3019-.1751-.201-.2344-.473-.1785-.8161l.2677-1.7006c.0561-.3429.203-.6148.4411-.8161.2378-.201.5354-.3019.8922-.3019.3571,0,.6228.1.7979.2993.1748.1993.2361.4707.1837.8136l-.2677,1.7057c-.0561.3431-.2039.6151-.4437.8161-.2395.2013-.5379.3019-.8947.3019ZM413.848,785.3339c.1925,0,.3483-.0524.4673-.1575.1187-.1051.1942-.2571.2255-.4568l.2677-1.7006c.0316-.1993.0054-.3517-.0786-.4565-.084-.1051-.2224-.1575-.4146-.1575-.1925,0-.3474.0524-.4647.1575-.117.1048-.1914.2571-.223.4565l-.2677,1.7006c-.0316.1996-.0051.3517.0789.4568.0837.1051.2204.1575.4092.1575ZM415.7952,785.7853l.6088-3.8315h1.202c.2381,0,.4391.0464.6037.139.1643.0928.2833.223.3568.391s.0911.3656.0527.5932c-.0387.2591-.1401.4838-.3044.6746-.1646.1905-.3659.3209-.6037.391l.5354,1.6428h-.6194l-.4776-1.5748h-.5408l-.2466,1.5748h-.567ZM416.6876,783.7068h.635c.1891,0,.3491-.0558.4804-.168.131-.1119.2107-.2623.2386-.4514.0316-.1925,0-.3454-.0945-.4593-.0943-.1136-.2361-.1706-.4252-.1706h-.635l-.1993,1.2493ZM420.905,785.8377c-.3602,0-.6308-.1005-.8107-.3019-.1803-.201-.2423-.473-.1865-.8161l.2677-1.7006c.0561-.3463.2056-.6194.4488-.8187s.545-.2993.9056-.2993c.3568,0,.6253.1008.8056.3019.1803.2013.2423.4733.1865.8161h-.567c.0313-.1993.0026-.3517-.0866-.4565-.0894-.1051-.2284-.1575-.4175-.1575-.1925,0-.3508.0524-.475.1575-.1242.1048-.2019.2554-.2335.4514l-.2677,1.7057c-.0316.1996-.0026.3517.0866.4568.0894.1051.2301.1575.4226.1575s.35-.0524.4724-.1575.1993-.2571.2309-.4568h.5667c-.0347.2275-.1145.4252-.2386.5932s-.2808.2976-.4699.3884c-.1888.0908-.4024.1364-.6404.1364ZM424.0335,785.8377c-.3571,0-.6231-.1005-.7979-.3019-.1751-.201-.2344-.473-.1785-.8161l.2677-1.7006c.0561-.3429.203-.6148.4411-.8161.2378-.201.5354-.3019.8922-.3019.3571,0,.6228.1.7979.2993.1748.1993.2361.4707.1837.8136l-.2677,1.7057c-.0561.3431-.2039.6151-.4437.8161-.2395.2013-.5379.3019-.8947.3019ZM424.1121,785.3339c.1925,0,.3483-.0524.4673-.1575.1187-.1051.1942-.2571.2255-.4568l.2677-1.7006c.0316-.1993.0054-.3517-.0786-.4565-.084-.1051-.2224-.1575-.4146-.1575-.1925,0-.3474.0524-.4647.1575-.117.1048-.1914.2571-.223.4565l-.2677,1.7006c-.0316.1996-.0051.3517.0789.4568.0837.1051.2204.1575.4092.1575ZM425.9653,785.7853l.6088-3.8315h.6874l.1837,1.2282c.0211.119.0367.2301.0473.3332.0105.1034.0194.1828.0262.2389.0177-.0561.0473-.1364.0894-.2415.0419-.1051.0908-.217.1469-.336l.5667-1.2228h.7088l-.6088,3.8315h-.5354l.2045-1.2911c.0245-.168.0578-.3525.1-.5539.0419-.201.0874-.4041.1364-.6088s.0963-.3998.1418-.5852c.0453-.1854.0874-.3483.1259-.4881l-.8554,1.8632h-.5513l-.2833-1.8632c-.0037.1364-.0105.2947-.0211.475s-.0236.3719-.0393.5747c-.0157.203-.035.4069-.0578.6114-.0228.2047-.0481.3964-.076.5749l-.2047,1.2911h-.5405ZM429.1145,785.7853l.6088-3.8315h.6874l.1837,1.2282c.0211.119.0367.2301.0473.3332.0105.1034.0194.1828.0262.2389.0177-.0561.0473-.1364.0894-.2415.0419-.1051.0908-.217.1469-.336l.5667-1.2228h.7088l-.6088,3.8315h-.5354l.2045-1.2911c.0245-.168.0578-.3525.1-.5539.0419-.201.0874-.4041.1364-.6088s.0963-.3998.1418-.5852c.0453-.1854.0874-.3483.1259-.4881l-.8554,1.8632h-.5513l-.2833-1.8632c-.0037.1364-.0105.2947-.0211.475s-.0236.3719-.0393.5747c-.0157.203-.035.4069-.0578.6114-.0228.2047-.0481.3964-.076.5749l-.2047,1.2911h-.5405ZM432.4107,785.7853l.6088-3.8315h2.2516l-.0786.5038h-1.6955l-.1731,1.0867h1.5115l-.0786.4986h-1.5118l-.1942,1.2387h1.6901l-.0786.5038h-2.2516ZM435.5073,785.7853l.6088-3.8315h1.202c.2381,0,.4391.0464.6037.139.1643.0928.2833.223.3568.391s.0911.3656.0527.5932c-.0387.2591-.1401.4838-.3044.6746-.1646.1905-.3659.3209-.6037.391l.5354,1.6428h-.6194l-.4776-1.5748h-.5408l-.2466,1.5748h-.567ZM436.3997,783.7068h.635c.1891,0,.3491-.0558.4804-.168.131-.1119.2107-.2623.2386-.4514.0316-.1925,0-.3454-.0945-.4593-.0943-.1136-.2361-.1706-.4252-.1706h-.635l-.1993,1.2493ZM439.8007,785.8377c-.3602,0-.6308-.1005-.8107-.3019-.1803-.201-.2423-.473-.1865-.8161l.2677-1.7006c.0561-.3463.2056-.6194.4488-.8187s.545-.2993.9056-.2993c.3568,0,.6253.1008.8056.3019.1803.2013.2423.4733.1865.8161h-.567c.0313-.1993.0026-.3517-.0866-.4565-.0894-.1051-.2284-.1575-.4175-.1575-.1925,0-.3508.0524-.475.1575-.1242.1048-.2019.2554-.2335.4514l-.2677,1.7057c-.0316.1996-.0026.3517.0866.4568.0894.1051.2301.1575.4226.1575s.35-.0524.4724-.1575.1993-.2571.2309-.4568h.5667c-.0347.2275-.1145.4252-.2386.5932s-.2808.2976-.4699.3884c-.1888.0908-.4024.1364-.6404.1364ZM441.8792,785.7853l.0789-.5038h.7768l.4459-2.824h-.7766l.0837-.5038h2.1258l-.084.5038h-.7766l-.4462,2.824h.7768l-.0789.5038h-2.1258ZM444.7399,785.7853l1.585-3.8315h.7452l.3728,3.8315h-.5616l-.0735-.9711h-1.0867l-.3884.9711h-.5929ZM445.8998,784.3418h.8714l-.0894-1.1023c-.0174-.1959-.0296-.3654-.0367-.5089-.0068-.1435-.0103-.2432-.0103-.2993-.0177.0561-.0518.1558-.1025.2993s-.1148.3112-.1916.5038l-.4408,1.1075ZM448.2354,785.7853l.6088-3.8315h.567l-.5248,3.3118h1.6741l-.0786.5197h-2.2465ZM453.1932,785.8377c-.3676,0-.6345-.1005-.8005-.3019-.1663-.201-.2213-.475-.1654-.8213l.4357-2.7608h.567l-.4357,2.7554c-.0316.1962-.008.35.0709.4619.0786.1122.2141.168.4066.168s.3474-.0558.4645-.168c.1173-.1119.1916-.2657.2233-.4619l.4357-2.7554h.5667l-.4357,2.7608c-.0558.35-.2002.6245-.4328.8241-.2329.1993-.5328.299-.9001.299ZM456.3581,785.8377c-.385,0-.6738-.0951-.866-.2859-.1925-.1908-.2643-.4505-.2153-.7794h.567c-.0282.1748.0105.3121.1153.4121.1051.0997.266.1495.483.1495.2028,0,.3699-.049.5012-.1469s.2107-.2327.2389-.4044c.0211-.1504.0009-.2788-.0604-.3856s-.1583-.1811-.2913-.2233l-.4568-.1364c-.266-.0803-.4619-.217-.5878-.4095-.1259-.1922-.1697-.4197-.1313-.6823.035-.2099.1119-.3935.2309-.551s.2731-.2799.4619-.3673c.1891-.0874.4024-.1313.6404-.1313.3497,0,.6157.0954.7979.2859.1817.1908.2483.4437.1993.7586h-.567c.0279-.168-.0026-.3001-.0917-.3964-.0894-.0963-.2301-.1444-.4226-.1444-.1891,0-.3429.0447-.4619.1338-.119.0894-.1891.2144-.2099.3753-.0245.1506-.0071.2791.0524.3859s.1575.1811.2939.223l.4673.1469c.2623.0806.4556.2173.5798.4095.1242.1925.1654.4217.1236.6877-.035.217-.1156.4058-.2415.5667-.1262.1612-.2879.2862-.4855.3753-.1979.0894-.4192.1338-.6641.1338ZM458.4209,785.7853l.6088-3.8315h2.2516l-.0786.5038h-1.6955l-.1731,1.0867h1.5115l-.0786.4986h-1.5118l-.1942,1.2387h1.6901l-.0786.5038h-2.2516Z" style="fill: #ccc;"/>
  <g>
    <path id="path113565" d="M582.9748,400.0141c0,101.1688-82.0136,183.1824-183.1824,183.1824s-183.1824-82.0135-183.1824-183.1824,82.0136-183.1824,183.1824-183.1824h0c101.1615-.0074,183.175,81.9943,183.1824,183.1558v.0266" style="fill: #fff;"/>
    <path id="path113567" d="M212.4514,400.0141c0,103.4647,83.8747,187.3393,187.3393,187.3393s187.3393-83.8747,187.3393-187.3393-83.8747-187.3393-187.3393-187.3393h0c-103.4161.117-187.2223,83.9232-187.3393,187.3393M220.7667,400.0141c0-98.873,80.1524-179.0254,179.0254-179.0254s179.0254,80.1524,179.0254,179.0254-80.1524,179.0254-179.0254,179.0254h0c-98.8266-.1121-178.9133-80.1989-179.0254-179.0254" style="fill: #7f7d7c;"/>
    <path id="path113569" d="M50,400.0141c.0078,193.2997,156.7145,349.9937,350.0141,349.9859,193.2997-.0078,349.9937-156.7145,349.9859-350.0141-.0078-193.2893-156.6983-349.979-349.9875-349.9859-193.2149.2227-349.7907,156.7992-350.0125,350.0141" style="fill: #7f7d7c;"/>
    <path id="path113571" d="M61.0852,400.0141c.0077-187.1776,151.7513-338.9089,338.929-338.9012,187.1776.0077,338.9089,151.7513,338.9013,338.9289-.0077,187.1776-151.7513,338.9089-338.9289,338.9013-187.0926-.2128-338.7038-151.8363-338.9013-338.9289" style="fill: #fff;"/>
    <path id="polygon113573" d="M319.3973,582.8362l80.8386,15.8518,185.926-148.7907,7.5656-86.5475-274.3302,219.4863Z" style="fill: #344575;"/>
    <path id="path113575" d="M591.3718,360.2461l-281.0644,224.8626,91.0924,17.8748,188.7249-151.0077,8.5356-97.5772-7.2885,5.8474ZM589.0733,372.3012c-1.2748,14.4939-6.3463,72.6633-6.5957,75.5731-2.605,2.0785-180.3556,144.3012-183.1547,146.5459-3.1038-.6097-57.3657-11.2515-70.5848-13.8287,12.4708-9.9767,246.8666-197.51,260.3365-208.2903" style="fill: #fff;"/>
    <path id="rect113577" d="M216.8306,506.2368l326.8745-261.5266,39.2686,49.0807-326.8745,261.5267-39.2686-49.0807Z" style="fill: #344575;"/>
    <path id="path113579" d="M541.1821,241.5794L211.206,505.6004l44.2575,55.315,333.1093-266.5151-44.2575-55.315-3.1332,2.4942ZM543.0666,250.309c4.0738,5.0992,30.2071,37.745,34.2809,42.8442-6.0414,4.8498-314.5693,251.7164-320.6385,256.5385-4.0738-5.0991-30.2071-37.7449-34.2809-42.8442,6.0691-4.8497,314.5693-251.6887,320.6384-256.5385" style="fill: #fff;"/>
    <path id="path113581" d="M486.5339,213.5062c-23.7113-9.1077-48.0282-16.5528-72.7741-22.2812l-221.8142,177.4735,5.1269,5.1269v71.3053l289.4614-231.6245Z" style="fill: #344575;"/>
    <path id="path113583" d="M411.2933,188.1212l-225.306,180.2725s5.7089,5.7089,7.1222,7.0945v77.9564l301.3503-241.1301-6.4571-2.5219c-23.8877-9.1609-48.3795-16.6612-73.3007-22.4475l-1.8845-.4434-1.5242,1.2194ZM414.7574,195.576c21.6389,5.1206,42.9514,11.5338,63.8228,19.2051-10.3092,8.2585-265.3235,212.3086-277.4894,222.0359v-64.6542s-2.217-2.1893-3.1316-3.1038c6.7065-5.3763,213.8329-171.1273,216.7998-173.4829" style="fill: #fff;"/>
    <path id="path113585" d="M169.8861,400.0141c0,127.0809,103.0194,230.1004,230.1004,230.1004s230.1003-103.0195,230.1003-230.1004-103.0194-230.1003-230.1003-230.1003c-127.0191.149-229.9513,103.0812-230.1004,230.1003M219.797,400.0141c-.0074-99.5232,80.6662-180.2086,180.1894-180.216,99.5232-.0074,180.2086,80.6662,180.216,180.1894.0073,99.5232-80.6662,180.2087-180.1894,180.216h-.0266c-99.4675-.1167-180.0727-80.7219-180.1894-180.1894" style="fill: #d87043;"/>
    <path id="path113587" d="M212.6729,400.0141c0,103.4647,83.8747,187.3393,187.3393,187.3393s187.3393-83.8747,187.3393-187.3393-83.8746-187.3393-187.3393-187.3393c-103.4203.1069-187.2324,83.919-187.3393,187.3393M220.9868,400.0141c0-98.873,80.1524-179.0254,179.0255-179.0254s179.0254,80.1524,179.0254,179.0254-80.1524,179.0254-179.0254,179.0254h0c-98.8266-.1121-178.9133-80.1989-179.0254-179.0254" style="fill: #7f7d7c;"/>
    <path id="path113589" d="M162.5699,400.0141c.0075,131.1293,106.3149,237.4246,237.4443,237.4171,131.1293-.0075,237.4246-106.3149,237.4171-237.4443-.0075-131.1188-106.2984-237.4096-237.4171-237.4171-131.0815.1335-237.3108,106.3628-237.4443,237.4443M170.8837,400.0141c-.0075-126.5374,102.5653-229.1223,229.1027-229.1298,126.5374-.0075,229.1224,102.5652,229.1299,229.1027.0075,126.5374-102.5653,229.1223-229.1027,229.1298h-.0011c-126.4748-.1432-228.9711-102.6279-229.1287-229.1027" style="fill: #7f7d7c;"/>
    <path id="path113591" d="M117.7581,559.1417q-2.411.4157-3.1884-.776c-.1939-.3325-.8314-1.3579-1.2748-2.2171-1.7182-2.9099-2.8267-4.6558-4.4064-7.1222-.9422-1.5242-2.3556-3.5472-3.3255-4.9052-.5265-.8037-1.1917-1.7182-1.3856-2.0507-1.0808-1.6628-1.0254-2.799.2494-3.6027,1.1917-.776,2.411-.0831,4.2124,2.2448,2.1062,2.7713,3.7412,2.8822,7.8428.0555l33.2846-22.5306c5.792-3.9075,6.1246-4.7666,3.6581-9.6995-.7483-1.5242-.6374-2.605.388-3.2701,1.2194-.7483,2.5496-.0278,3.9075,2.1062.3622.5595.6862,1.1428.9699,1.7459,3.0207,5.4318,5.3195,9.4501,6.7065,11.584,1.4411,2.3279,3.4364,5.0715,5.5703,7.9536.5265.8037,1.1917,1.7182,1.4688,2.1062.9977,1.6073.9145,2.8821-.1109,3.5195-1.4411.9145-2.1616.4711-4.6835-2.605-2.1339-2.6604-3.8798-2.799-7.3439-.4988l-32.535,21.3944,40.738-7.0391c1.7736-.3603,3.575-.7206,5.4317-1.1085,4.822-1.1639,5.4317-1.1085,6.6511.8037.7583,1.1036.6306,2.5893-.3048,3.5473l-28.4335,40.7657,24.0548-13.995c2.1893-1.3025,4.9606-2.9376,7.5933-4.6003,4.6835-2.9653,5.598-5.21,3.5486-8.8404-1.9953-3.2978-2.1062-4.3509-.6651-5.2655,1.1085-.6928,2.3556-.1386,3.4101,1.5242.1926.3325.6928,1.2471,1.1085,2.0785.8591,1.7182,1.9399,3.6027,3.0484,5.3486,1.2095,1.9492,2.5425,3.819,3.9907,5.598.6928.9145,1.4134,1.8845,1.6905,2.3002.8868,1.4411.8037,2.4942-.2494,3.1593-1.1917.7483-1.8554.388-4.3232-2.2725-2.217-2.411-3.575-2.4387-7.7319-.0278l-34.7825,19.593c-.9422.4711-1.7459.97-2.8544,1.6628l-1.4134.9145c-2.3279,1.4688-2.4942,2.5773-.7483,5.7089,1.5519,2.8267,1.6351,3.9907.3603,4.7943-1.2748.8037-2.4387.2217-3.7412-1.8568l-5.2655-8.8404c-1.1639-1.829-3.5195-5.3486-4.4063-6.5956l-.5543-.8591c-.6928-1.1085-.6928-1.4688.2217-2.8267l23.5283-33.8653-39.9066,6.762Z" style="fill: #344575;"/>
    <path id="path113593" d="M105.509,494.5706c-2.6327-8.3139,5.5426-18.0688,18.5399-22.1703,11.6117-3.6858,21.3112-1.2194,23.5837,5.986,2.605,8.2585-5.7366,18.2351-18.6508,22.3089-11.5563,3.6304-21.2004,1.1085-23.4728-6.1246M102.7377,494.9308c3.9457,13.8452,18.3681,21.8702,32.2132,17.9245.0889-.0253.1777-.0512.2663-.0774,7.0453-2.2412,12.6798-7.5796,15.2975-14.4939,1.9586-6.5083,1.949-13.4505-.0277-19.9533-3.7832-13.8946-18.1139-22.0915-32.0084-18.3083-.1203.0328-.2404.0664-.3602.1009-13.7301,5.0727-20.7483,20.3153-15.6756,34.0454.0944.2555.1927.5096.295.762" style="fill: #344575;"/>
    <path id="path113595" d="M99.1073,413.2886c-5.7366.5542-6.1246,1.0254-6.4571,7.1499-.0018.753-.5798,1.3792-1.3302,1.4411-1.1362.1108-1.8013-.6928-1.969-2.411-.0644-.5518-.0921-1.1073-.0831-1.6628-.1386-2.7436-.2217-4.5449-.388-6.1246-.1108-1.1362-.3326-2.5773-.582-3.769-.1664-.8591-.3325-1.7736-.3603-2.2171-.1386-1.4411.3603-2.217,1.4411-2.3002,1.2194-.1386,1.6351.5542,2.3833,3.6581.6097,2.6327,1.7459,3.0761,6.1246,2.6604l38.3838-3.769c2.1339-.2217,2.6882.0831,2.8544,1.8013.1386,1.3025-.3048,2.1339-1.9676,3.6858l-35.7497,34.7243,26.3827-2.605c5.0992-.4988,6.7897-.9423,7.8982-2.0508.8591-.97.8591-.8868.9422-5.2377-.0829-.9798.5865-1.8643,1.5519-2.0508.9145-.0831,1.5796.7206,1.7182,2.0785.0277.2771.0277.9423.0831,1.5242-.0221,2.1387.089,4.2768.3326,6.4017.1663,1.6628.4157,3.4364.6651,4.7112.2052.6982.3535,1.4118.4434,2.1339.1386,1.2748-.388,2.0785-1.3856,2.1616-1.1362.1108-1.6628-.6374-2.023-3.0484-.5279-3.2147-2.2448-3.6858-10.7803-2.8544l-20.3136,1.9953c-8.3693,1.0254-6.1523.7483-6.7342.8868-3.4087.4711-4.2124,1.2748-4.1846,3.7413.0831,2.4387-.2758,3.1316-1.4951,3.2701-.9977.0831-1.5796-.6651-1.7459-2.3833l-.5543-7.1776-.7205-6.6788c-.2494-2.4387-.1939-2.7159,1.3856-4.2678l25.8839-25.3573-19.6499,1.9398Z" style="fill: #344575;"/>
    <path id="path113597" d="M129.5084,371.6915c5.2378.4157,5.7089.1108,7.0651-5.0714.2217-.8591.7483-1.3025,1.4688-1.2471,1.0808.0831,1.5242.776,1.4411,1.9953l-.0554.4157c-.1386,1.1362-.0831.4434-.3048,2.2171l-.0554.6651-.0554.5542-.1109.582-.0554.6374c-.2494,2.0785-.4711,4.0184-.6928,6.6788-.194,2.4387-.2494,4.0184-.3603,7.2608l-.054.582-.0277.6651v.7206l-.0554.6374c.0237.4342.0145.8697-.0277,1.3025-.1109,1.2194-.6651,1.829-1.7459,1.7459-.9977-.0831-1.1362-.2494-1.4688-3.3255-.3048-3.1316-1.4133-3.9352-5.9306-4.2955l-34.3349-2.7713c-1.1656-.1108-1.3042.1108-1.4688,2.1062-.3603,4.5449.7483,6.7342,5.4317,10.5863,1.6905,1.3579,2.4678,2.4387,2.411,3.2978-.1185.8199-.8675,1.3969-1.6905,1.3025-.3193-.0494-.6344-.1235-.9422-.2217l-10.4478-3.8798c-1.1362-.388-1.6628-1.0808-1.5796-1.9399-.0081-.7417.5393-1.3725,1.2748-1.4688,1.6905-.4434,1.8567-.5819,1.9953-2.3002l2.3556-29.4034c.2494-2.799-.1108-3.769-1.6073-4.9052-1.1085-.8037-1.4134-1.2748-1.3579-2.0507.0831-.9977.8314-1.4411,1.9676-1.2194l11.6117,2.1616c1.6351.3603,2.1893.8314,2.1062,1.9122-.0831.9422-.8591,1.5796-2.4942,2.1062-6.4571,2.023-7.2608,2.9653-7.7596,9.1452-.1108,1.5796.0553,1.9676,1.1362,2.0508l34.4183,2.7713Z" style="fill: #344575;"/>
    <path id="path113599" d="M108.2248,329.5679c-6.568-1.6628-7.815-2.8544-6.9005-6.4848,1.7584-5.1757,7.3736-7.9523,12.5539-6.2077,6.4294,1.6074,9.6718,5.9029,8.3416,11.1406-.8314,3.2978-2.1062,4.5449-4.1292,4.0184l-9.8658-2.4665ZM124.3815,333.614c-.8314-.2217-1.0531-.5543-.8868-1.2471.2971-.9203.7165-1.7965,1.2471-2.605,1.5463-2.246,2.699-4.7388,3.4087-7.3716,1.8905-8.0052-3.0169-16.04-11.002-18.0134-8.4524-2.1062-15.1035,3.0484-17.8194,13.8842-.4434,1.7459-1.1085,5.016-1.6074,7.9259-.6928,3.5472-1.2471,6.4571-1.5796,7.7873-.4157,1.6074-.7206,2.799-1.5796,5.6257-.7483,2.411-.8591,2.8267-.9145,3.1039-.1652.4037-.2951.8209-.388,1.2471-.3048,1.1917.0278,1.9399,1.0808,2.1893.6928.1939,1.3025-.1939,1.6628-.9977,2.1893-4.8775,2.6895-5.0992,7.7873-3.8244l28.7383,7.2054c4.4064,1.1085,5.3486,2.0785,5.1546,5.2377-.1663,2.993-.0831,3.2424.9145,3.4918,1.0531.2494,1.6905-.2494,1.9953-1.4411.107-.4199.1903-.8455.2494-1.2748l.1386-.6374.1109-.7206.1663-.6097.1386-.5819c.6374-3.1593.97-4.7112,1.5242-6.9559.6374-2.5219,1.1653-4.3232,1.7182-6.3185l.1663-.6374.2217-.5543.1386-.5543.1663-.6097c.4988-1.7459.3326-1.0531.6651-2.1616l.1109-.4157c.3048-1.1917-.0277-1.9399-1.0808-2.1893-.6928-.1939-1.3025.1939-1.6628.9977-2.1893,4.8775-2.6882,5.1269-7.7873,3.8244l-11.196-2.799Z" style="fill: #344575;"/>
    <path id="path113601" d="M148.9905,291.6566c5.21,2.3002,8.0074,1.3025,10.0598-3.381,2.3918-4.6367,1.7575-10.2573-1.6073-14.2445-1.4688-1.8291-1.8013-2.6881-1.3579-3.7413.2978-.7555,1.1517-1.1266,1.9072-.8288.0588.0232.116.0501.1713.0806,1.1122.5923,2.1776,1.2686,3.187,2.023,1.71,1.2505,3.5171,2.3625,5.404,3.3256.9422.4988,1.1085.8868.7483,1.6628-.1386.3326-.6928,1.4411-1.1085,2.3556-1.3302,2.7159-3.1316,6.5679-5.3209,11.584-1.9676,4.4895-4.6558,10.6418-5.598,12.9142-1.3856,3.1593-.8868,2.0508-3.1316,7.8428-.1128.4183-.2612.8263-.4434,1.2194-.4988,1.1085-1.2194,1.4965-2.217,1.0808-.9145-.4157-.9977-.6097-.3048-3.6027.7205-3.0761-.0277-4.2123-4.2124-6.0414l-27.1032-11.9166c-4.822-2.1062-5.3209-2.023-8.3416,2.4942-.3188.6752-1.1122.9804-1.8013.6928-.9977-.4157-1.1917-1.2194-.6928-2.3556l.1664-.388.2494-.3603.1664-.4157.2494-.582.3603-.6374.2771-.582.2217-.5266.3325-.5543.2217-.5265c1.0808-2.0785,1.8845-3.9075,3.5195-7.6765,1.1917-2.7159,2.5773-6.0414,3.4364-8.1753,5.5703-14.1059,3.9075-9.7827,5.3486-13.6348l.2494-.5265c.3603-.8591.8591-1.0254,1.7182-.6651l2.5219,1.1917,4.5726,1.8568c1.9676.8591,2.2448,1.3025,1.7182,2.4942-.3326.776-.9422,1.0808-2.9653,1.3579-4.0603.0988-7.6406,2.6876-9.0067,6.5125-2.7436,6.2908-2.7436,6.9837.0278,8.203l10.56,4.6558c1.9122.8314,2.7159.6374,3.3256-.7482,3.2978-7.5379,3.2978-8.785.2217-11.4731-1.5242-1.3302-1.9953-2.217-1.6087-3.1593.392-.8304,1.383-1.1859,2.2135-.7938.0783.037.1536.08.2253.1287l6.6511,3.3256,5.8474,2.2448c1.2471.5543,1.6905,1.3856,1.2748,2.3002s-1.1917,1.2748-2.799,1.1917c-4.1569-.2217-6.2354.7483-7.3994,3.381l-.4988,1.3579c-1.9122,4.822-1.9122,4.6558.2771,5.6257l10.0874,4.4341Z" style="fill: #344575;"/>
    <path id="path113603" d="M139.4296,247.6762c-4.4341-2.8544-4.9883-2.7713-8.6187,1.1362-.4219.6114-1.2445.7928-1.8845.4157-.9145-.582-.9977-1.4133-.3325-2.4387.1605-.2419.3364-.4734.5265-.6928l.2494-.3603.3325-.5543.4711-.5543.3325-.5543.3325-.4711.3603-.4711.3603-.5265c1.1085-1.6074,2.3002-3.3256,3.6027-5.3209,1.4688-2.3002,2.2448-3.6027,3.9075-6.4848l.3048-.4711.3603-.5543.3326-.6374.3603-.5543c.1857-.3843.3987-.7547.6374-1.1085.6651-1.0531,1.4411-1.3302,2.3556-.7205.8314.5265.8314.8037-.2771,3.6027-1.1917,2.9098-.6097,4.1292,3.2147,6.5957l24.3319,15.7132c4.1847,2.6881,6.9559,2.2448,9.3115-1.3856,2.9006-4.2204,2.988-9.7685.2217-14.0782-.9145-1.6351-1.0531-2.4665-.5265-3.2701.3184-.649,1.1026-.9169,1.7516-.5985.0867.0425.1685.0946.2437.1551,1.4547,1.0041,2.8096,2.1456,4.0461,3.4087,1.0392.9908,2.1308,1.9251,3.2701,2.799,1.2471.97,1.3302,1.3856.5543,2.5773l-.4711.7205c-1.3856,2.023-1.2194,1.8013-3.6858,5.1823-1.829,2.5773-3.7135,5.404-6.6234,9.8658-2.7159,4.2678-4.8775,7.7596-7.2608,11.8057-.8591,1.4965-1.1085,2.023-1.2748,2.2448-.1864.3928-.3994.7724-.6374,1.1362-.6651,1.0254-1.4411,1.3025-2.3556.7205-.8314-.5543-.8314-.8037.2771-3.6027,1.1917-2.9098.6097-4.1569-3.2147-6.6234l-24.8862-16.0457Z" style="fill: #344575;"/>
    <path id="path113605" d="M165.7846,209.6818c-3.9352-3.4918-4.4895-3.5195-8.7019-.194-.5063.54-1.3469.5887-1.9122.1109-.8037-.7205-.7746-1.5242.0554-2.4665l.6097-.582.3048-.3326.4157-.4711.5265-.4988.4434-.4711.388-.4434.4434-.388.4157-.4711c1.3579-1.4134,2.799-2.9376,4.3786-4.7112,1.8013-2.0508,2.7713-3.2424,4.8498-5.8197l.388-.4157.4434-.4988.4157-.582.4143-.4711c.2461-.3583.5145-.7008.8037-1.0254.8314-.9145,1.6351-1.0808,2.4387-.3603.7483.6651.7205.9422-.8037,3.5195-1.6351,2.7159-1.2471,4.0184,2.1616,7.0391l21.6715,19.2051c3.7135,3.3256,6.5139,3.2978,9.3947.0554,3.5145-3.7163,4.4542-9.1794,2.3833-13.8565-.6651-1.7736-.6651-2.6327-.0554-3.3256.4211-.5973,1.2467-.7402,1.844-.3191.075.0529.1443.1134.2068.1806,1.2813,1.2228,2.4499,2.5584,3.4918,3.9907.8776,1.1274,1.8118,2.2096,2.799,3.2424,1.1085,1.1639,1.1362,1.5796.1663,2.6604l-.582.6374c-1.6628,1.8013-1.4965,1.5796-4.408,4.5726-2.217,2.2725-4.5172,4.7389-8.0645,8.7296-3.3533,3.7967-6.0137,6.9005-8.979,10.5586-1.0808,1.3302-1.4134,1.8291-1.6074,2.023-.2389.3636-.5077.7066-.8037,1.0254-.8314.9145-1.6074,1.0808-2.4387.3603-.7483-.6651-.7205-.9422.8314-3.5195,1.6074-2.7159,1.2194-4.0184-2.1616-7.0114l-22.1673-19.6762Z" style="fill: #344575;"/>
    <path id="path113607" d="M226.365,190.6708c3.4641,3.9629,4.0184,4.0738,8.591,1.3025.5869-.4567,1.4238-.3969,1.9399.1386.7205.8037.5543,1.6351-.3603,2.4387l-.3326.2771c-.9145.6928-.388.2217-1.7736,1.3579l-.4988.4157-.4434.388-.4711.3326-.4988.4157c-1.4688,1.1917-3.187,2.5773-4.822,4.0184-2.7159,2.3556-2.8267,2.4387-7.5933,6.9837-.2888.3117-.594.6078-.9145.8868-.9145.8314-1.7459.8591-2.4665.0554-.6651-.776-.582-1.0254,1.2471-3.4087,1.9676-2.4665,1.7459-3.7967-1.2194-7.2331l-19.4545-22.3366c-3.4641-3.9629-4.0184-4.0461-8.591-1.3025-.5828.4701-1.4299.4096-1.9399-.1386-.7205-.8037-.5543-1.6351.388-2.4387.2182-.1833.4498-.35.6928-.4988l.3048-.2771.4988-.4434.6097-.4157.4711-.4157.4434-.388.4711-.3326.4988-.4157c1.4134-1.1362,3.1884-2.5773,4.6558-3.8521q2.8821-2.5219,7.7596-7.1499c.2887-.3118.594-.6078.9145-.8868.9422-.8037,1.7459-.8591,2.4665-.0554.6651.776.582,1.0254-1.2748,3.4087-1.9399,2.4664-1.7182,3.7967,1.2471,7.2331l19.4545,22.3366Z" style="fill: #344575;"/>
    <path id="path113609" d="M248.5908,172.3802c3.1316,4.7666,6.0137,5.4594,10.2815,2.6327,4.5305-2.5906,7.0564-7.6534,6.4017-12.8311-.2494-2.3279-.0554-3.2424.8868-3.8798.6638-.4663,1.5799-.3062,2.0462.3576.0319.0454.0612.0926.0877.1413.6437,1.0974,1.1726,2.2582,1.5782,3.4641.7722,1.9681,1.6893,3.8763,2.7436,5.7089.5265.9422.4448,1.3302-.2758,1.8013-.3048.2217-1.3579.8314-2.217,1.3856-2.605,1.5242-6.18,3.8244-10.7803,6.8174-4.0738,2.6882-9.6718,6.374-11.6948,7.7873-2.8805,1.9122-1.8568,1.2471-6.8728,4.8775-.3273.2894-.6797.5491-1.0531.776-1.0254.6651-1.8291.6097-2.4387-.2771-.5543-.8591-.5265-1.0531,1.6905-3.2147,2.2725-2.1616,2.2448-3.5195-.2494-7.3162l-16.2675-24.7476c-2.9098-4.4063-3.3796-4.6003-8.3416-2.4664-.6391.3999-1.4794.2294-1.9122-.388-.582-.8868-.3326-1.6628.6928-2.3556l.3603-.2494.4157-.1663.3603-.2494.5265-.3326.6651-.3326.5265-.3603.4711-.3326.582-.2771.4988-.3326c1.9953-1.1362,3.6858-2.2447,7.1222-4.5172,2.4665-1.6074,5.4317-3.6581,7.3162-4.9883,12.3322-8.8127,8.591-6.0969,11.9166-8.5356l.4711-.3048c.776-.5265,1.2748-.4157,1.8013.3603l1.4965,2.411,2.799,3.9907c1.1917,1.8291,1.1917,2.3279.1109,3.0484-.7205.4711-1.3856.388-3.2424-.4434-3.4622-2.1323-7.88-1.9119-11.1129.5543-5.7089,3.769-6.0968,4.3786-4.4341,6.9005l6.3463,9.6164c1.1639,1.7736,1.9399,2.023,3.187,1.1917,6.8742-4.5172,7.5656-5.5703,6.4308-9.5055-.5834-1.9399-.4711-2.9653.388-3.5195.7658-.4786,1.7745-.2457,2.2531.52.0508.0813.0944.167.1302.2559l3.769,6.4017,3.6858,5.0715c.7483,1.1362.6651,2.0508-.1663,2.605-.8314.5543-1.6905.4434-3.0207-.4988-3.3533-2.4664-5.6257-2.7713-8.0367-1.1917l-1.1639.8591c-4.2124,3.0207-4.1292,2.8821-2.8281,4.8775l6.0692,9.2007Z" style="fill: #344575;"/>
    <path id="path113611" d="M275.0843,122.9958c-1.2748-2.9099-.7205-4.2401,2.1062-5.4594,4.6308-1.7011,9.7639.6738,11.465,5.3047.0121.033.0241.0662.0358.0994,2.1964,4.6584.2005,10.2154-4.4579,12.4118-.3961.1868-.8049.3454-1.2232.4747-1.7736.7483-2.1616.6097-3.0761-1.5242l-4.8498-11.3069ZM260.535,121.4716l-.6374.1939-.5265.2217-.582.2494-.6928.2217-.582.2771-.4157.1386c-.2855.0773-.5636.1793-.8314.3048-1.1085.4711-1.4951,1.1917-1.0808,2.1893.3176.6764,1.1048.9913,1.8013.7206,5.21-1.2194,5.7089-.97,7.7873,3.8521l11.6948,27.2141c1.8013,4.1847,1.5796,5.5426-1.0531,7.2885-2.4665,1.6905-2.6327,1.9122-2.217,2.8267.4157.9977,1.2194,1.2194,2.3556.7205.4019-.1648.791-.3593,1.1639-.582l.582-.2494.6374-.3326.6097-.2771.5265-.2217c2.8544-1.3856,4.2678-2.0785,6.2077-2.9099,2.4387-1.0531,4.0184-1.7182,6.0705-2.4387l.6097-.2771.5543-.1386.5265-.2494.6097-.2494c1.6628-.6374.9977-.3603,2.0785-.7483l.4157-.1663c1.1362-.4988,1.5242-1.1917,1.0808-2.1893-.2996-.6797-1.0848-.9987-1.7736-.7205-5.21,1.2194-5.7089.9699-7.7873-3.8798l-4.8789-11.3346c-.5265-1.2471-.4434-1.6074.6097-2.0508,2.1893-.9422,3.2978-.4988,7.5102,3.0484l13.607,11.5563c1.1639,1.0808,1.5796,1.1362,2.7713.6097.3117-.113.6093-.2618.8868-.4434.6928-.388,1.6628-.8868,2.8267-1.4688.9699-.4711,1.6905-.8037,1.8291-.8591l6.568-2.411c.8673-.2084,1.4014-1.0805,1.193-1.9478-.0152-.0631-.0341-.1253-.0568-.1861-.3603-.8037-.9422-1.1085-2.1616-.8037-2.5773.5543-3.0484.3603-6.2354-2.2725l-10.0321-8.397c-2.382-2.603-6.0529-3.5963-9.4224-2.5496,7.6765-4.6281,10.0875-9.7549,7.5102-15.7686-2.7487-6.2427-10.0376-9.0751-16.2803-6.3265-.5315.234-1.0458.5052-1.5391.8116-1.8013.776-4.4063,2.023-7.1222,3.3533-3.4641,1.8291-6.6511,3.3255-8.5065,4.1292-2.3002.9977-3.4918,1.5242-5.6811,2.3002l-.528.2218Z" style="fill: #344575;"/>
    <path id="path113613" d="M379.4234,101.934c1.7736-.1939,2.023-.582,1.829-2.5496l-1.2748-12.4708c-.7206-6.8451-1.1362-7.3717-8.1199-7.8982-1.1639-.1664-1.8567-.6651-1.9676-1.6905-.1386-1.3025.6374-2.0508,2.2448-2.217.3684-.036.7388-.0453,1.1085-.0278l1.4134-.1386h.8591l.9423-.0831.7483-.0831.7482.0278.7483-.0831c2.7436-.1108,5.1809-.3603,8.9513-.7205,2.993-.3325,5.1269-.6374,9.2561-1.2471l.7482-.0831.8314-.0831.9423-.1939.8314-.0831c.5484-.1181,1.1038-.2014,1.6628-.2494,1.6087-.1664,2.5219.388,2.6604,1.7182.1386,1.3856-.1386,1.6073-3.9076,2.6604-4.0461,1.164-4.7389,2.7713-4.1292,8.7573l3.9629,38.5487c.7206,6.8451,1.1362,7.3716,8.203,7.8705,1.0055-.0624,1.8779.6871,1.9676,1.6905.1386,1.3025-.6374,2.0508-2.2448,2.217l-.5542.0555c-1.4965.0555-1.6905.0831-6.1245.3603-2.2448.1386-5.3486.3603-7.5933.582-5.3486.5543-5.2655.5543-13.9396,1.8013-.5198.1275-1.0475.2201-1.5796.2771-1.6074.1663-2.5219-.4157-2.6604-1.7459-.1386-1.3856.0278-1.6074,3.9075-2.7436,3.9352-1.164,4.6558-2.6604,4.0184-8.6741l-1.6351-16.1289c-.4157-2.8821-.4988-2.9653-2.1062-2.799l-20.0642,2.0508c-2.6327.2771-2.6882.3603-2.4665,2.799l1.7168,16.6c.6928,6.8451,1.1085,7.2885,8.0938,7.8982,1.0115-.0648,1.8931.6821,1.9953,1.6905.1108,1.3025-.6651,2.0508-2.2448,2.217l-.5542.0554c-1.5242.0554-1.6073.0831-6.0414.3326-2.4387.1663-5.2655.3603-8.0921.6374-4.6835.4711-5.0438.5265-13.4685,1.7736-.5481.12-1.1036.2033-1.6628.2494-1.6074.1663-2.5219-.388-2.6327-1.7182-.1664-1.3856.1108-1.6074,3.8798-2.7713,3.963-1.1639,4.7389-2.6604,4.1292-8.6464l-3.9632-38.5487c-.6928-6.8451-1.1362-7.3716-8.203-7.8704-1.2471-.1664-1.8568-.6651-1.9676-1.8014-.1108-1.1085.7483-1.9676,2.2447-2.1062.3776-.0364.7573-.0457,1.1362-.0278l.5543-.0555.8314-.0831h.97l.8314-.0831.7483-.0831h.776l.8314-.0831c2.4665-.1386,5.3486-.3603,8.1753-.6374,4.6821-.4988,4.9606-.5265,13.3854-1.7459.5192-.13,1.0471-.2226,1.5796-.2771,1.5796-.1664,2.4942.4157,2.6327,1.7182.1386,1.4134-.0278,1.6351-3.9076,2.6882-3.9352,1.1639-4.628,2.7436-4.0184,8.7573l1.2748,12.4708c.1939,1.8568.7206,2.3002,2.6881,2.0785l20.0642-2.0515Z" style="fill: #344575;"/>
    <path id="path113615" d="M436.6229,103.8462c2.7446.1629,4.8375,2.5199,4.6746,5.2646-.0122.2049-.037.4088-.0743.6106-.4157,3.7967-2.4387,4.3786-11.6671,3.3533-2.2171-.2494-2.799-.6097-2.6604-1.7182.8502-4.6193,5.0432-7.8566,9.7273-7.5102M447.9852,118.0906c2.605.2771,3.6581-.4434,3.8798-2.5219.8037-7.0668-6.2354-13.4962-16.0735-14.577-11.0753-1.8081-21.5194,5.7045-23.3275,16.7798-.0023.014-.0046.028-.0068.042-.9138,11.2838,7.4797,21.1776,18.7617,22.1149,5.5688.6378,11.1819-.7385,15.8241-3.8798,1.5242-1.0254,2.411-2.0785,2.4942-2.8821.0582-.6757-.4424-1.2706-1.1181-1.3288-.0061-.0005-.0121-.001-.0182-.0014-.8483.0687-1.6623.3655-2.3556.8591-2.5163,1.7209-5.5562,2.5053-8.591,2.217-8.0541-1.3895-13.4569-9.045-12.0674-17.0992.0128-.0739.0261-.1477.0399-.2214.1939-1.6351.6097-1.9676,2.023-1.8014l20.5353,2.3002ZM430.8309,96.2806c.2494.4157.3325.4988.5542.5265.4923-.047.9668-.2083,1.3857-.4711l16.1566-7.0114c.9423-.3325,1.3579-.6651,1.4133-1.1085-.0336-.3285-.1275-.6479-.2771-.9422l-1.5796-2.6604c-.4434-.7205-.4434-.8037-.8314-.8314-.5566.058-1.0805.2908-1.4965.6651l-14.8264,9.3947c-1.1362.7205-1.1362.6374-1.164.8591q0,.1386.3048.776l.3603.8037Z" style="fill: #344575;"/>
    <path id="path113617" d="M460.7608,121.0282c1.0531-4.1292.582-5.3486-2.5219-6.374-1.3857-.4157-1.8568-.9422-1.6351-1.8014q.2494-1.0254,4.4618-1.1639c3.7939-.5369,7.4903-1.6197,10.9743-3.2147,1.7459-.8591,2.3279-1.0254,3.0484-.8314.6651.1664.8314.6651.6097,1.5519l-1.3025,5.0715c-.2217.8591-.2494,1.2471.0555,1.3025.2027-.0058.3937-.0962.5265-.2494,3.2829-2.5523,7.4785-3.6263,11.584-2.9653,3.53.69,5.8587,4.0782,5.2378,7.621-1.0088,3.5389-4.6954,5.59-8.2343,4.5812-1.9977-.5695-3.6155-2.038-4.375-3.9715-.9423-1.7736-1.3302-2.3556-1.9953-2.5219-1.1987-.0388-2.3157.6057-2.8822,1.6628-1.2826,2.2014-2.1646,4.6128-2.605,7.1222l-2.4942,9.6441c-1.4411,5.598-1.3857,5.6811,2.8267,7.7596,1.164.5265,1.5796,1.2471,1.3579,2.1339-.2217.9422-1.1656,1.2471-2.7436.8314-.4693-.1124-.9319-.2512-1.3856-.4157-3.4918-1.0808-6.6788-1.9676-8.397-2.411-1.5519-.388-4.9606-1.1917-8.3416-1.9122-.4674-.0624-.9303-.1549-1.3857-.2771-1.6073-.4157-2.2725-1.1085-2.023-2.0785.2217-.8591.9423-1.2748,2.2448-1.1917,4.6558.2771,4.7666.1386,6.18-5.4317l3.2146-12.4708Z" style="fill: #344575;"/>
    <path id="path113619" d="M509.591,145.5818c-.5554,1.8586-1.6918,3.4903-3.2424,4.6558-1.8964.9893-4.1253,1.1205-6.1246.3603-2.2205-1.0606-3.1609-3.7204-2.1003-5.9409.0161-.0337.0326-.0672.0496-.1005.9947-2.2682,3.1339-3.8248,5.598-4.0738,2.5002-.5648,5.058-.8345,7.6211-.8037.3325.1386.4143.582.1386,1.1917l-1.9399,4.7112ZM513.6925,135.6883q-.3048.7483-3.3532.8591l-2.1339.0831-2.2448.1386-2.1616.0831c-3.4641.1664-6.1232.3603-8.1753.582-3.964.0719-7.5193,2.4565-9.0898,6.0968-1.7421,3.9885.0789,8.6342,4.0675,10.3763.175.0765.3528.1465.5329.21,2.1124.8426,4.3788,1.2298,6.6511,1.1362,2.8067-.179,5.5666-.8059,8.1753-1.8568.1751-.0769.3723-.0868.5542-.0277.258.1421.4013.4289.3603.7205l.1664,2.4942c.0555.4434.1386.8591.2217,1.2471.5848,1.7617,1.9422,3.1599,3.6858,3.7967,3.119,1.1043,6.5305,1.0551,9.6164-.1386,1.7736-.582,2.799-1.2748,3.1316-2.0508.2541-.5818-.0048-1.2599-.582-1.5242-.2814-.1214-.5984-.1313-.8868-.0277-2.9376.4711-2.6881.4157-3.381.1109-1.2748-.6097-1.3025-1.7459-.1386-4.5172l7.5656-18.2351c2.1893-5.2654-.6651-9.2838-9.173-12.8034-4.892-2.0988-10.3163-2.6218-15.5193-1.4965-3.0138.6752-5.6871,2.405-7.5379,4.8775-.3918,1.0627.1521,2.2418,1.2148,2.6335.0561.0207.1131.0389.1709.0546,2.24.7495,4.595,1.0967,6.956,1.0254,1.9122-.1108,2.7436-.5543,4.7943-2.5496,2.5773-2.4942,5.0715-3.4087,7.2054-2.5219,2.411.9977,2.6604,3.1316.9423,7.2885l-1.635,3.9354Z" style="fill: #344575;"/>
    <path id="path113621" d="M536.6942,144.1962c3.0484-4.9052,3.0484-5.0715-.3603-8.2307-.9439-.8591-1.1362-1.6905-.6651-2.4664.5279-.8037,1.4965-.8314,2.8821.0555.4107.2333.8002.5022,1.1639.8037l1.5242.9422.6651.4988c2.1893,1.4411,3.9352,2.6327,4.7666,3.1316l2.3279,1.4688c.648.3245,1.2771.6854,1.8845,1.0808,1.1639.6928,1.1362.8868,0,2.7159l-11.3069,18.1797c-2.6882,4.3232-2.4374,7.6488.7206,9.6164,2.0628,1.1308,4.4686,1.466,6.762.9422,1.3302-.3326,1.8568-.776,3.0484-2.6882l7.955-12.7757c3.0484-4.9052,3.0484-5.0715-.3603-8.2307-1.0267-.9145-1.2194-1.7182-.7483-2.4942.5265-.8314,1.4965-.8314,2.8821.0277.1386.0831.7206.4434,1.1917.8037l.7483.4988.7483.5265.7483.4711c1.8013,1.2194,3.2147,2.1893,3.3532,2.2725,1.0254.6374,1.9676,1.2194,4.1015,2.4664l1.7182,1.0531c.8868.5543.9423.7483.1108,2.1062l-12.5539,20.2027c-2.411,3.8798-2.4374,4.4895.1664,6.5402.8591.7205,1.0531,1.2748.6651,1.9122-.5265.8314-1.4411.776-4.1569-.2771-2.3556-.8591-5.2655-1.6905-8.5633-2.5219-2.5773-.5265-2.8544-.6097-3.3256-.9145-.6928-.4157-.7206-.8037-.1664-1.6905l1.6905-2.7159c.4434-.7205.4988-1.2194.1108-1.4411-.388-.2494-.0553-.2217-3.1038,0-3.9105.3965-7.8467-.447-11.2515-2.411-5.4038-3.0437-7.3171-9.8918-4.2733-15.2956.3372-.5987.7287-1.1652,1.1695-1.6924l7.7305-12.4709Z" style="fill: #344575;"/>
    <path id="path113623" d="M576.878,192.6661c-3.6581,4.4618-3.6304,4.5726-.7206,8.203.8591.9977.9423,1.8291.3603,2.5219-.6097.7483-1.5796.6374-2.8544-.388-.1664-.1663-.6929-.582-1.0531-.97-2.799-2.4665-5.2378-4.5726-6.8174-5.8474-1.0254-.8591-3.9352-3.1038-6.5679-5.0715-.4042-.2636-.7929-.5505-1.164-.8591-1.2748-1.0254-1.5796-1.9676-.97-2.7159.582-.6928,1.4133-.776,2.5496-.1386,4.1015,2.1893,4.2678,2.1062,7.8982-2.3556l21.3943-26.2164c2.6882-3.2978,2.6604-3.9907,0-7.2331-.6651-.7483-.7206-1.3579-.1939-1.9953.6651-.8037,1.5242-.582,4.2955.9977,3.5124,2.094,7.3124,3.6626,11.2792,4.6558.385.0662.7471.2282,1.0531.4711.6374.5265.5265,1.3856-.3325,2.4387l-28.1564,34.5026Z" style="fill: #344575;"/>
    <path id="path113625" d="M598.7712,185.5439c1.7736-1.829,1.9385-2.411,1.0792-3.2424l-1.7736-1.7182c-.97-.9422-1.2471-1.7459-.7206-2.2725.5265-.5543,1.5242-.388,3.2424.3326,4.321,1.9557,9.1806,2.3762,13.7733,1.1917,2.2171-.6651,3.1038-.6097,3.7967.0554.8591.8314.8314,1.4134-.2217,2.4942l-4.3509,4.4618c-1.3025,1.3302-1.4411,2.1339-.4157,3.1038l4.1847,4.1015c1.164,1.1362,1.164,1.4688.1386,2.5219-1.1639,1.1917-1.7459,1.2471-2.7159.3048l-3.7967-3.7135c-1.1917-1.1362-1.7182-1.1362-2.9099.0831l-10.6695,10.9466c-4.9052,5.0437-6.0414,7.7873-4.0461,9.7272.8552.712,1.8914,1.1725,2.993,1.3302,1.9399.3603,2.1061.4157,2.4387.7205.3739.4288.3739,1.0677,0,1.4965-1.3788.8068-2.9981,1.1012-4.5726.8314-3.607-.2824-7.0095-1.7881-9.6441-4.2678-4.6003-4.4895-4.2955-9.5055.9145-14.8818l13.2761-13.607Z" style="fill: #344575;"/>
    <path id="path113627" d="M668.6077,240.4154c-1.4133.97-2.4664.8868-3.2701-.2771-.7483-1.0808-.5543-2.1339.8036-3.8521,4.7943-6.3463,5.598-11.2237,2.5219-15.7409-2.6991-4.9721-8.8609-6.8992-13.9119-4.3509-2.8484,2.109-4.0125,5.8138-2.8821,9.173.1939.776.3325,1.4688.4972,2.2725l.7483,2.5773.8036,2.5219.6928,2.4942c3.9213,8.725,1.3148,19.0016-6.2908,24.8031-11.4651,6.9611-26.4025,3.3098-33.3636-8.1553-.2031-.3345-.3981-.6738-.5847-1.0177-3.843-5.38-6.195-11.6806-6.8174-18.2628.0831-.8591.4434-1.3302,2.023-2.5219.9759-.7969,2.0036-1.5282,3.0761-2.1893,1.5796-1.1917,2.4942-1.8291,2.9099-2.1062,3.6581-2.4942,4.8498-2.7436,5.8751-1.2748.5783,1.0386.4337,2.3299-.3603,3.2147-.2217.4988.776-.8868-3.2978,4.1846-4.1009,4.7879-4.0891,11.8535.0278,16.6277,2.9117,5.9973,10.1339,8.4987,16.1311,5.587.1391-.0676.277-.1378.4135-.2107,3.4109-2.3263,5.0405-6.5104,4.1015-10.5309-.1939-1.4688-.4988-3.0761-1.7459-9.3115-2.8822-13.7733-1.6074-20.4521,4.7666-24.8031,11.5909-5.5811,25.5207-1.0193,31.565,10.3369,2.5387,3.7683,4.2918,8.0097,5.1546,12.4708.1108,1.3025-.3048,2.023-1.8013,3.0484l-7.7856,5.2932Z" style="fill: #344575;"/>
    <path id="path113629" d="M661.0698,277.7725c1.1705-.7122,2.5485-1.0054,3.9075-.8314,1.9493.5923,3.5401,2.0108,4.3509,3.8798,2.1894,4.9052-1.9953,11.5286-9.3669,14.8264-8.1476,3.6027-15.4361,2.3556-17.8194-2.9653-1.6351-3.7135-.0553-6.4571,4.99-8.7018l13.9379-6.2077ZM636.7379,288.6082c1.0791-.4988,1.5242-.4434,1.7997.1664.081.1858.1369.3815.1664.582.2446,2.5102.9,4.9631,1.9399,7.2608,4.3646,9.9745,15.9888,14.5222,25.9634,10.1576.0939-.0411.1875-.0829.2808-.1255,9.0429-3.5801,13.4715-13.813,9.8915-22.856-.0266-.0672-.0537-.1343-.0811-.2011-.8477-2.1984-2.3711-4.0712-4.3509-5.3486-4.6558-2.9376-4.434-2.799-4.5726-3.1316-.2217-.4711.0831-.8591,1.1363-1.3302l3.7413-1.6628c.8314-.3603,1.1085-.8314.8036-1.5242-.2771-.6097-.5543-.7205-2.9098-1.5519-3.4148-1.5394-6.388-3.9122-8.6464-6.9005-2.9376-3.6858-2.8267-3.575-3.8521-3.1039-.6482.3073-.9246,1.0819-.6173,1.7301.0025.0053.0051.0106.0076.0158,1.4134,4.4341,1.1917,4.8775-3.3255,6.8728l-28.8492,12.8588c-4.2955,1.9122-5.7643,1.7736-7.5656-.97-1.8013-2.5496-1.9399-2.7436-2.9653-2.2725-1.0267.4434-1.2471,1.2748-.7206,2.4387.174.4204.3777.8279.6097,1.2194l.2771.6097.388.6374.2494.6374.2494.5265c1.5519,3.1039,2.1907,4.3509,3.1315,6.4848.8591,1.9122,1.6074,3.7967,2.3556,5.6534l.2771.6374.1939.582.2494.5265.2494.6097.2494.7205.2771.6374.1939.388c.0745.2917.1666.5785.2758.8591.5265,1.164,1.2748,1.5519,2.3002,1.1085.7012-.3383,1.0171-1.1646.7206-1.8845-1.3302-5.404-1.0808-5.9029,3.9075-8.1476l6.571-2.91Z" style="fill: #344575;"/>
    <path id="path113631" d="M689.4478,327.046c1.4134,5.7366-5.0438,11.972-15.0758,14.4662-9.0898,2.2447-15.9349.388-17.2097-4.6835-1.3856-5.598,5.6812-12.2214,15.8518-14.7433,8.2031-2.023,15.2144.0831,16.4337,4.9606M692.4408,327.6003c-1.885-11.5534-12.779-19.3913-24.3324-17.5063-.2407.0393-.4807.0827-.72.1303-10.7487,3.3707-16.7297,14.8168-13.3589,25.5654.0276.0879.0557.1755.0845.263,1.9793,11.6799,13.0522,19.5438,24.7321,17.5645.1441-.0244.2878-.0503.4313-.0776,10.7786-3.5505,16.6619-15.1436,13.1636-25.9393" style="fill: #344575;"/>
    <path id="path113633" d="M683.0184,362.9343c4.2401-.388,5.21-1.2194,5.1546-4.5172-.0553-1.4411.2494-2.0785,1.164-2.1616q1.0254-.0831,2.6051,3.8244c1.7509,3.4007,4.0126,6.513,6.7065,9.2284,1.3856,1.3857,1.7459,1.8845,1.8013,2.6327.0831.6651-.3602.9977-1.2471,1.0808l-5.2101.4711c-.9145.0831-1.2748.1939-1.2471.4988,0,.0831.1663.2771.4157.4157,3.5178,2.2307,5.9478,5.8255,6.7066,9.9212.3825,3.4532-2.107,6.5626-5.5602,6.9451-3.4532.3824-6.5626-2.107-6.945-5.5602-.2351-2.1231.6231-4.2204,2.2791-5.5695,1.3579-1.4688,1.7459-2.0507,1.6905-2.7159-.0831-.8868-1.1362-1.7736-2.5219-2.1616-2.5059-.4881-5.0806-.5069-7.5934-.0555l-9.9212.8868c-5.7366.5265-5.8197.6097-6.3462,5.2377-.1108,1.3025-.6651,1.9399-1.5519,2.023-.9699.1108-1.5796-.6651-1.7182-2.3279-.0533-.4691-.0717-.9415-.0553-1.4134-.1939-3.6581-.4157-6.9282-.582-8.7296-.1386-1.5796-.5265-5.0715-.9977-8.4802-.0989-.4658-.1637-.9382-.1939-1.4134-.1663-1.6351.2771-2.5219,1.2471-2.605.9145-.0831,1.5519.4711,1.8844,1.7182,1.3302,4.4618,1.4688,4.5172,7.2054,3.9907l12.8309-1.1638Z" style="fill: #344575;"/>
    <path id="path113635" d="M692.4408,400.6238c2.5496.0555,3.0762-.2217,3.1039-1.4134l.0831-2.4664c.0278-1.358.4143-2.0785,1.164-2.0785.7483.0278,1.3302.8591,1.9676,2.605,1.4763,4.5115,4.4611,8.3771,8.4524,10.9466,1.9954,1.1639,2.5773,1.8567,2.5496,2.8267-.0278,1.2194-.4988,1.5519-1.9954,1.5242l-6.2077-.1664c-1.8567-.0553-2.5496.388-2.605,1.8013l-.1386,5.8474c-.0555,1.6351-.2771,1.8568-1.7736,1.8013-1.6628-.0278-2.0785-.4157-2.0508-1.7736l.1386-5.2932c.0555-1.6628-.3325-2.0507-2.0508-2.0785l-15.2421-.4157c-7.0391-.1939-9.8381.8314-9.9212,3.6304.0694,1.1012.433,2.1635,1.0531,3.0761,1.0808,1.6905,1.1363,1.829,1.1085,2.2725-.0314.5634-.489,1.009-1.0531,1.0254-1.5471-.4448-2.8778-1.4405-3.7413-2.799-2.2309-2.8449-3.4324-6.3615-3.4087-9.9767.1663-6.4294,4.0738-9.6164,11.5563-9.4224l19.0112.5266Z" style="fill: #344575;"/>
    <path id="path113637" d="M654.7513,497.8961c-2.0835-.3832-3.7456-1.9584-4.2401-4.0184-1.7311-6.6534-1.6449-13.6494.2494-20.2582,1.8718-7.7155,5.5474-14.8767,10.7249-20.8955,7.8848-8.2274,19.5261-11.683,30.6228-9.0898,19.3149,6.9021,29.3774,28.1552,22.4754,47.4701-.0897.2511-.1821.5012-.2773.7504-1.4278,5.2397-3.5728,10.257-6.3739,14.9095-.5296,1.0973-1.7012,1.7333-2.9099,1.5796l-7.815-.7206c-.7483-.1108-1.2194-.1386-1.4965-.1939-1.0319-.3096-1.6571-1.3555-1.4411-2.411.3048-1.1085,1.3579-1.8845,3.7413-2.8267,7.8427-2.8544,10.808-5.7089,12.4154-11.9997,3.2424-12.6094-6.0137-24.6091-22.2812-28.7937-13.0314-5.4215-27.9905.7476-33.4119,13.7791-.0795.1911-.1567.3832-.2316.5762-1.829,7.0945.4988,12.7757,8.2308,19.8147,1.3579,1.2194,1.7459,1.9953,1.4688,2.993-.3325,1.3857-1.5242,1.8568-2.9653,1.3857l-6.4849-2.0509Z" style="fill: #344575;"/>
    <path id="path113639" d="M647.5459,514.1913c-5.2932-2.3002-5.3763-2.2725-8.0921,1.5242-.7206,1.0808-1.5242,1.3857-2.3279,1.0531-.8868-.4157-1.0531-1.3579-.388-2.8822.1892-.4362.4019-.8618.6374-1.2748,1.6351-3.3532,2.9653-6.2908,3.7967-8.1476.5265-1.2194,1.9122-4.628,3.1038-7.7042.1386-.4988.4157-1.1085.4988-1.3302.6374-1.4965,1.4688-2.0507,2.3556-1.6628.8314.3603,1.1348,1.1362.8314,2.411-.9977,4.5449-.8868,4.6558,4.3786,6.956l31.0384,13.5239c3.9075,1.6905,4.5726,1.4965,6.9559-1.9676.5266-.8314,1.1363-1.0531,1.8845-.7206.9422.4157.9699,1.3302.1939,4.4064-1.0712,3.9444-1.5567,8.0249-1.4411,12.1105.0298.3955-.0269.7927-.1663,1.164-.3325.7482-1.1917.8591-2.4387.3325l-40.8209-17.7917Z" style="fill: #344575;"/>
    <path id="path113641" d="M657.7997,532.759c4.9329,2.9653,5.1269,2.9653,8.2308-.4711.8591-.9977,1.6628-1.1917,2.4387-.7206.8314.4988.8591,1.4688,0,2.8821-.2236.419-.4832.8177-.776,1.1917l-.9422,1.5242-.4711.6651c-1.4134,2.2171-2.5496,3.9907-3.0484,4.822l-1.4411,2.3556c-.3602.7483-.9699,1.7736-1.0531,1.9122-.6929,1.1362-.8591,1.1362-2.7159.0278l-18.3473-11.0297c-4.3773-2.605-7.6765-2.3279-9.6164.8868-1.0849,2.0801-1.3708,4.4855-.8037,6.762.3325,1.3302.776,1.8568,2.7159,3.0207l12.8865,7.7319c4.9329,2.9653,5.1269,2.993,8.2308-.4711.8882-1.0531,1.7182-1.2471,2.4942-.776.8314.4988.8591,1.4688,0,2.8822-.2383.4164-.507.8147-.8037,1.1917l-.4434.7482-.5265.7483-.4711.776c-1.164,1.8013-2.1339,3.2424-2.2171,3.381-.6097,1.0254-1.1917,1.9953-2.3833,4.1292l-1.0531,1.7459c-.5265.8868-.7483.9423-2.0785.1386l-20.4244-12.2491c-3.9075-2.3279-4.5172-2.3556-6.5402.2771-.6928.8868-1.2471,1.0808-1.8845.6929-.8314-.4988-.8037-1.4411.2217-4.1292.8037-2.411,1.6073-5.3209,2.3556-8.6464.1003-1.1393.3901-2.2539.8574-3.2978.4434-.7206.8037-.7483,1.6905-.2217l2.7713,1.6628c.7206.4157,1.2194.4711,1.4411.0831.2217-.388.1939-.0555-.0555-3.1038-.4722-3.9119.3146-7.8725,2.2461-11.3069,2.958-5.445,9.7699-7.4611,15.2149-4.5031.6067.3296,1.1817.7145,1.7177,1.1498l12.5835,7.5379Z" style="fill: #344575;"/>
    <path id="path113643" d="M623.9606,585.1087c1.5796,1.3857,1.6905,1.4688,1.7473,2.2171.0143,1.7216-.6416,3.3813-1.829,4.628-3.9629,4.6003-12.0828,3.7967-18.4845-1.7182-6.4571-5.598-8.591-13.1914-4.822-17.5423,1.1511-1.389,2.8805-2.1667,4.6835-2.1062,1.6351.0555,2.6881.6651,6.4848,3.9352l12.22,10.5864ZM643.3873,601.9027c1.9382,1.6628,2.3556,1.8568,3.0484.9423.4434-.4988.4988-.8314,1.4134-3.1316.9759-3.3302,2.4423-6.4965,4.3509-9.3947,1.3856-2.1616,1.6351-3.1316.9422-3.7135-.5543-.4988-1.1917-.4434-2.0785.3603-2.9376,2.605-3.4641,2.6327-6.4571.0555l-29.736-25.7176c-1.1432-.9378-2.2175-1.9566-3.2147-3.0484-.388-.4434-.7483-.8591-.97-1.0531-.5592-.5736-1.4776-.5852-2.0511-.026-.0088.0085-.0174.0172-.026.026-.388.4434-.3326,1.0808.1108,2.1616,1.1639,2.8821,1.4133,3.8798.9977,4.3232-.1875.2129-.4259.375-.6929.4711-4.1591,1.1019-7.87,3.4756-10.614,6.7897-8.3572,8.2425-8.4503,21.6992-.2078,30.0564.096.0973.193.1938.2908.2892,7.2147,6.6287,18.4369,6.1536,25.0655-1.0611.1561-.1698.3088-.3427.4581-.5185q1.6628-1.9399,2.993-6.3462c.4711-1.5519.8591-2.7159.8868-2.9653.037-.3569.1607-.6994.3603-.9977q.3048-.3325,1.4965.6928l13.6335,11.8056Z" style="fill: #344575;"/>
    <path id="path113645" d="M339.3228,703.5537c-1.5519,6.0968-1.0531,7.2608,3.6858,8.397,2.9376.7483,3.9907,1.6628,3.601,2.9098-.388,1.1917-1.5242,1.5519-3.4918,1.0531-.2771-.0831-1.3302-.4434-2.1339-.7206-4.1015-1.4411-8.3416-2.7713-12.5539-3.8521-3.7703-.9699-7.0391-1.6351-10.0875-2.1894-.776-.1108-1.6351-.2494-1.9399-.3325-1.8013-.4711-2.411-1.164-2.1062-2.3002.3326-1.3579,1.4411-1.6351,3.6304-1.0808,5.9306,1.6074,7.5102.9699,8.591-3.2424l7.8982-30.7614c.9699-3.7413.8314-4.2678-.6374-4.7112-.3736-.1292-.7705-.1764-1.1639-.1386l-5.598.2494c-1.009.0622-2.0217.0157-3.0207-.1386-.86-.1056-1.4715-.8884-1.3659-1.7484.0079-.0645.0198-.1285.0357-.1915.3325-1.3579,1.6351-1.6628,6.0414-1.6628,6.1843.2749,12.3793-.1809,18.4568-1.3579.4739-.1526.9773-.1906,1.4688-.1108.97.2494,1.1639,1.0254.6928,2.9098l-10.0027,39.0198Z" style="fill: #344575;"/>
    <path id="path113647" d="M367.8117,679.2772c-.9145,9.0344,3.2701,17.8748,8.7573,18.4291.7755.0585,1.5552-.0261,2.3002-.2494.2565-.0412.5162-.0597.776-.0553.5521.1554.9213.6746.8868,1.2471-.1939,2.1062-4.9329,3.4918-10.1152,2.9653-8.6164-1.2562-14.6921-9.108-13.7456-17.764,1.3167-10.5738,10.8519-18.1502,21.4498-17.0434,11.9957,1.4991,20.5048,12.4389,19.0056,24.4346-.0235.1878-.0494.3753-.0777.5625-2.3701,14.2635-12.1919,26.168-25.7453,31.2048-4.4132,1.7923-8.9884,3.1565-13.6625,4.0738-.6983.1669-1.417.2322-2.1339.1939-.8633-.0618-1.5131-.8118-1.4512-1.6751.0023-.033.0057-.0658.0102-.0986.0831-.9422.6651-1.2748,3.2147-1.8844,14.8326-3.9352,25.7481-16.5435,27.5189-31.7868,1.1362-11.196-3.0761-21.4498-9.0067-22.0595-4.1847-.4157-7.3716,3.4086-7.9813,9.5055" style="fill: #344575;"/>
    <path id="path113649" d="M430.5538,688.1176c.2494-.7206,1.1085-3.5196,1.6074-5.2655.2687-.7071.3913-1.4613.3603-2.2171-.0553-.6929-.388-.9145-1.3857-.8314l-21.9764,1.7736c-2.0785.1663-3.5472.3602-4.1015.4157-.97.2217-1.829.3602-2.217.4157-.9977.0555-1.4688-.7483-1.6074-2.7713-.0278-.1386-.1386-1.6351-.388-3.7136-.1386-.6928-.2771-2.605-.3603-3.5473-.2494-2.9376-.1664-3.1039,1.2194-3.2147.7579-.0333,1.5171-.0147,2.2725.0555,3.493.328,7.0085.3372,10.5032.0278l26.4658-2.1339c1.9399-.1663,2.1602-.0831,2.2171.6097.0567.6929.1386.5265-1.4134,4.4618-.2092.4199-.3857.8554-.5279,1.3025l-2.1062,4.9883-1.9953,4.9883-2.0244,4.9883c-2.1602,5.1546-5.2932,13.5793-9.1453,24.6368-1.3579,3.769-2.3556,6.7343-2.9099,8.4801-1.0531,3.381-1.1362,3.4641-2.3002,3.5473l-.9145.0831-.5542-.0555c-1.4688.1386-1.6351.1386-1.7459-.4711-.0278-.0831-.0278-.1663.0555-.388.0195-.4032.0846-.803.1939-1.1917l12.7784-34.9737Z" style="fill: #344575;"/>
    <path id="path113651" d="M481.2684,701.8355c.9963,3.9907,1.5242,4.2678,6.5402,3.7413.8331-.1557,1.6364.388,1.8013,1.2194.3048,1.2194-.6097,2.0785-2.6327,2.5773l-12.4999,2.5496c-.4434.1108-2.6604.8036-5.9306,1.8567-.8314.1939-1.9399.5542-2.3002.6651-1.8013.4434-2.605.1663-2.9099-1.0531-.3326-1.3579.1386-1.7182,3.5195-2.9376,2.411-.8591,3.1038-2.3002,2.411-5.0992l-1.4688-5.9305c-.5542-2.2725-.6651-2.3279-2.8544-1.7736l-16.3229,4.0461c-3.0207.7483-2.8267.8591-3.6858-2.5219-.1325-.9387.0529-1.8947.5265-2.7159l18.1256-42.7888c.776-1.9399,1.1917-2.2171,4.2955-2.9653.582-.1663,1.1917-.0555,1.3302.2217.1386.2771-.3326,1.2748-2.2448,5.0992-3.2701,6.568-6.0414,12.4708-8.2585,17.7363l-6.6234,15.7964c-.8521,1.7338-1.5926,3.5204-2.217,5.3486-.2758.776-.3326.8868-.2758,1.1085.1108.3602.5265.4157,1.8013.1108l12.1937-3.0207c2.3279-.582,2.4374-.776,1.8845-3.0484l-2.7713-11.2238c-.6097-2.4664-.5819-2.6327.4988-3.4641.1204-.117.2613-.211.4157-.2771,2.238-1.5248,4.5604-2.9219,6.956-4.1847.776-.3602,1.3302-.7483,1.6905-.9145.1331-.0941.2839-.1601.4434-.1939.4434-.1108.6374.0831.8591.9145l4.0738,16.5169c.5265,2.0231.8037,2.1894,2.605,1.7459l4.9052-1.2194q1.4965-.3602,2.0785,2.0507c.4711,1.8845.3325,2.2448-1.2471,2.6327l-4.7389,1.164c-1.6628.4157-1.829.6928-1.3857,2.4941l1.412,5.7368Z" style="fill: #344575;"/>
    <path id="polygon113653" d="M276.664,662.0675l-31.0107-.2494-15.3252-26.9369,30.9831.2494,15.3529,26.937Z" style="fill: #344575;"/>
    <path id="polygon113655" d="M520.6207,662.0675l31.0108-.2494,15.3252-26.9369-30.983.2494-15.353,26.937Z" style="fill: #344575;"/>
  </g>
</svg>