<?xml version="1.0" encoding="utf-8"?>
<!-- Created by @FCLOGO 2025-2-10 GMT+8 19:13:09 . https://fclogo.top/ -->
<!-- FOR PERSONAL USE ONLY NOT FOR COMMERCIAL USE -->
<svg version="1.1" xmlns="http://www.w3.org/2000/svg" xmlns:xlink="http://www.w3.org/1999/xlink" x="0px" y="0px"
	 viewBox="0 0 800 800" style="enable-background:new 0 0 800 800;" xml:space="preserve">
<g>
	<path style="fill:#031C47;" d="M399.9165,220.2103h213.7654l71.6412,99.7161c-26.1678,18.7658-81.4901,47.2151-64.0217,108.6939
		c7.428,41.4156,60.4601,63.3859,60.1031,138.7629c0.3571,183.7401-215.7248,106.4213-277.5519,174.7097
		c-61.8099-68.2884-285.7114,9.0304-285.4153-174.7097c-0.296-75.377,52.7796-97.3473,60.2597-138.7629
		c17.4161-61.4789-37.8539-89.9281-64.1174-108.6939l71.6847-99.7161H399.9165z"/>
	<path style="fill:#DEDDDC;" d="M403.8577,750l-3.9448-4.2756C378.7,722.23,335.4907,716.7702,289.695,711.0665
		c-41.7291-5.2509-84.9733-10.7022-118.6561-29.9297c-38.9947-22.3187-57.9347-59.5718-57.8215-113.7533
		c-0.2264-47.5895,19.7586-74.2797,37.4099-97.8176c10.7805-14.4642,20.1242-26.8994,22.8238-41.9033l0.0957-0.4964
		c14.56-51.0815-24.1561-77.284-52.4834-96.4155c-3.4049-2.2815-6.6791-4.4845-9.5179-6.5834l-4.3279-3.0739l76.3958-106.1425
		h432.7731l76.3959,106.1425l-4.3889,3.0739c-2.8563,2.0989-6.0696,4.3019-9.4657,6.5834
		c-28.3012,19.1315-67.1044,45.3341-52.5444,96.4155l0.1392,0.4964c2.6909,15.0039,12.0258,27.4391,22.8326,41.9033
		c17.6425,23.5379,37.5491,50.2281,37.4359,97.8524c0.0522,54.1729-18.2434,91.3998-56.0364,113.7184
		c-32.7336,19.2275-74.6367,24.6788-115.2686,29.9297c-44.4372,5.7037-86.5495,11.1811-107.7536,34.6579L403.8577,750z
		 M183.8312,429.7524c-3.2047,17.4249-13.6805,31.3839-24.7484,46.1964c-16.6062,22.1794-35.5027,47.4067-35.3199,91.4346
		c-0.1828,112.09,84.9123,122.7574,167.2731,133.1636c45.308,5.6254,88.143,11.1027,112.8217,34.0225
		c24.5045-22.9198,66.2857-28.2839,110.3311-34.0225c79.7048-10.3018,162.1353-20.9952,161.996-133.1287
		c0.1393-44.0627-18.6875-69.29-35.3461-91.4695c-11.0853-14.8126-21.5176-28.7715-24.7308-46.1964
		c-16.4235-58.283,29.5203-89.2836,56.8201-107.8143c1.7328-1.106,3.3961-2.2118,4.9375-3.3351l-66.878-93.0892H188.9949
		l-66.9214,93.0892c1.5413,1.1233,3.1871,2.2291,4.8765,3.3351C154.3891,340.4688,200.3329,371.4695,183.8312,429.7524"/>
	<g>
		<path style="fill:#FFFFFF;" d="M204.3256,330.7583h53.9812v352.1106c-29.8425-6.3134-46.353-10.0317-53.9812-15.6223V330.7583z"/>
		<path style="fill:#FFFFFF;" d="M596.0436,330.7583h-54.0335v352.1106c29.8512-6.3134,46.4226-10.0317,54.0335-15.6223V330.7583z"
			/>
		<path style="fill:#FFFFFF;" d="M314.945,330.7583h54.0074v369.3611c-17.9386-4.6413-38.8814-9.5789-54.0074-11.9387V330.7583z"/>
		<path style="fill:#FFFFFF;" d="M487.2696,330.7583h-53.9987v369.3611c17.8341-4.6413,38.8118-9.5789,53.9987-11.9387V330.7583z"/>
	</g>
	<g>
		<path style="fill:#FFFFFF;" d="M311.9094,258.9804h-30.4521v30.7657h30.4521v-10.467l11.303,2.3598v5.7386
			c0,4.4324-0.7925,7.4367-2.4731,9.0737c-1.7242,1.6024-4.8939,2.4122-9.5528,2.4122h-28.9804
			c-4.7895,0-7.9418-0.8098-9.6223-2.4122c-1.5762-1.637-2.4383-4.6413-2.4383-9.0737v-25.6017
			c0-4.4324,0.8621-7.4279,2.4383-9.0825c1.6806-1.6285,4.8329-2.3947,9.6223-2.3947h28.9804c4.6588,0,7.8286,0.7661,9.5528,2.3947
			c1.6806,1.6546,2.4731,4.6501,2.4731,9.0825v4.5804l-11.303,1.7938V258.9804z"/>
		<path style="fill:#FFFFFF;" d="M353.068,284.2921h1.698c0.8273,0,1.3846,0.2092,1.7068,0.6968
			c0.4006,0.4964,0.5138,1.3933,0.5138,2.743v7.6283c0,1.5238-0.1306,2.412-0.5312,2.8823
			c-0.3832,0.4092-1.5587,0.6181-3.3874,0.6181h-8.4208c-0.8359,0-1.402-0.2089-1.7504-0.7489
			c-0.3831-0.4789-0.4615-1.4542-0.4615-2.7516v-7.6283c0-1.4193,0.0784-2.3947,0.4964-2.7866
			c0.3309-0.4441,1.463-0.6532,3.4222-0.6532H353.068z"/>
		<path style="fill:#FFFFFF;" d="M368.402,298.8634l27.4739-48.5651h10.8677l27.9005,48.5651h-12.6789l-5.8693-10.5542h-30.8004
			l-5.6428,10.5542H368.402z M390.1373,279.4965h21.265l-10.467-19.8108L390.1373,279.4965z"/>
		<path style="fill:#FFFFFF;" d="M456.808,284.2921h1.7154c0.8447,0,1.4107,0.2092,1.7242,0.6968
			c0.331,0.4964,0.4616,1.3933,0.4616,2.743v7.6283c0,1.5238-0.1306,2.412-0.4616,2.8823
			c-0.4005,0.4092-1.5152,0.6181-3.4396,0.6181h-8.4034c-0.8011,0-1.4194-0.2089-1.7852-0.7489
			c-0.2873-0.4789-0.505-1.4542-0.505-2.7516v-7.6283c0-1.4193,0.2178-2.3947,0.6096-2.7866
			c0.3745-0.4441,1.5239-0.6532,3.3874-0.6532H456.808z"/>
		<polygon style="fill:#FFFFFF;" points="503.9709,258.9804 503.9709,298.8634 492.781,298.8634 492.781,258.9804 
			470.4709,258.9804 470.4709,250.2986 526.4725,250.2986 526.4725,258.9804 		"/>
	</g>
	<polygon style="fill:#C5C5C5;" points="399.4149,50 413.6525,93.793 459.692,93.793 422.4476,120.8577 436.668,164.6504 
		399.4149,137.5858 362.1704,164.6504 376.3907,120.8577 339.1376,93.793 385.1859,93.793 	"/>
</g>
<g>
</g>
<g>
</g>
<g>
</g>
<g>
</g>
<g>
</g>
<g>
</g>
<g>
</g>
<g>
</g>
<g>
</g>
<g>
</g>
<g>
</g>
<g>
</g>
<g>
</g>
<g>
</g>
<g>
</g>
</svg>
