<?xml version="1.0" encoding="UTF-8"?>
<svg id="_图层_1" data-name="图层_1" xmlns="http://www.w3.org/2000/svg" version="1.1" viewBox="0 0 800 800">
  <!-- Created by @FCLOGO 2024-12-5 GMT+8 15:27:32 . https://fclogo.top/ -->
<!-- FOR PERSONAL USE ONLY NOT FOR COMMERCIAL USE -->
  <defs>
    <style>
      .st0 {
        fill: #2c2d2d;
      }

      .st1 {
        fill: #326138;
      }

      .st2 {
        fill: #ccc;
      }

      .st3 {
        fill: #fff;
      }

      .st4 {
        fill: #0058a7;
      }

      .st5 {
        fill: #cfb644;
      }
    </style>
  </defs>
  <path class="st2" d="M348.22,774.3c-.79,0-1.38-.22-1.77-.65-.39-.44-.53-1.03-.41-1.79l.25-1.65c.12-.75.45-1.35.98-1.78.53-.44,1.19-.65,1.98-.65s1.33.2,1.72.6c.39.4.55.94.47,1.62h-1.24c.03-.36-.06-.64-.26-.84-.2-.2-.5-.3-.89-.3-.42,0-.76.12-1.03.35-.27.23-.43.56-.5.99l-.26,1.66c-.07.44,0,.77.19,1,.19.23.5.35.92.35.39,0,.72-.1.98-.3.26-.2.44-.48.52-.85h1.24c-.14.69-.47,1.23-.99,1.63-.52.4-1.16.6-1.92.6ZM352.8,774.19l1-6.29h1.19l-.19,1.19c.34-.87.97-1.3,1.91-1.3.67,0,1.17.21,1.49.62.32.42.43.99.31,1.71l-.07.42h-1.27l.06-.32c.07-.45.01-.8-.17-1.04-.18-.24-.48-.36-.88-.36s-.74.12-1.01.37c-.27.24-.43.59-.5,1.03l-.63,3.97h-1.24ZM361.91,774.3c-.77,0-1.35-.22-1.73-.67s-.52-1.04-.4-1.77l.25-1.65c.08-.49.26-.92.52-1.28s.6-.65,1.01-.85c.41-.2.87-.3,1.38-.3.77,0,1.35.22,1.73.67.39.45.52,1.04.39,1.77l-.17,1.12h-3.85l-.09.53c-.15.95.22,1.43,1.11,1.43.72,0,1.17-.25,1.37-.74h1.22c-.17.53-.5.96-1.01,1.28-.5.32-1.09.47-1.76.47ZM361.23,770.22l-.05.29h2.65s.05-.3.05-.3c.07-.47.01-.82-.17-1.07-.18-.25-.49-.37-.92-.37s-.8.13-1.06.38c-.26.25-.43.61-.51,1.08ZM368.33,774.3c-.63,0-1.1-.21-1.41-.64s-.4-1-.27-1.73l.27-1.77c.11-.73.39-1.31.84-1.74.44-.43.98-.64,1.61-.64.47,0,.83.12,1.09.35.26.24.39.56.38.96h.02l.17-1.2h1.24l-1,6.29h-1.22l.19-1.2h-.02c-.12.41-.35.73-.69.97s-.74.35-1.21.35ZM368.93,773.23c.39,0,.72-.12.98-.36.26-.24.43-.57.5-1.01l.25-1.65c.07-.43,0-.76-.18-1-.19-.24-.47-.36-.86-.36s-.72.12-.98.35c-.26.24-.42.57-.49,1.01l-.25,1.65c-.07.44-.01.78.17,1.01.18.23.47.35.88.35ZM376.35,774.19c-.57,0-.99-.16-1.26-.47-.27-.31-.36-.75-.27-1.32l.54-3.39h-1.74l.17-1.12h1.74l.27-1.72h1.24l-.27,1.72h2.47l-.18,1.12h-2.46l-.54,3.39c-.08.44.1.66.53.66h1.72l-.17,1.12h-1.77ZM382.5,774.3c-.77,0-1.35-.22-1.73-.67s-.52-1.04-.4-1.77l.25-1.65c.08-.49.26-.92.52-1.28s.6-.65,1.01-.85c.41-.2.87-.3,1.38-.3.77,0,1.35.22,1.73.67.39.45.52,1.04.39,1.77l-.17,1.12h-3.85l-.09.53c-.15.95.22,1.43,1.11,1.43.72,0,1.17-.25,1.37-.74h1.22c-.17.53-.5.96-1.01,1.28-.5.32-1.09.47-1.76.47ZM381.83,770.22l-.05.29h2.65s.05-.3.05-.3c.07-.47.01-.82-.17-1.07-.18-.25-.49-.37-.92-.37s-.8.13-1.06.38c-.26.25-.43.61-.51,1.08ZM388.92,774.3c-.63,0-1.1-.21-1.4-.64-.3-.42-.39-1-.28-1.73l.27-1.77c.11-.73.39-1.31.84-1.74.44-.43.98-.64,1.61-.64.47,0,.83.12,1.09.35.26.24.39.56.38.96h.02l.21-1.47.3-1.8h1.24l-1.33,8.35h-1.22l.19-1.2h-.02c-.12.41-.35.73-.69.97s-.74.35-1.21.35ZM389.53,773.23c.39,0,.72-.12.98-.36.26-.24.43-.57.5-1.01l.25-1.65c.08-.43.02-.76-.17-1-.19-.24-.48-.36-.87-.36s-.72.12-.98.35c-.26.24-.42.57-.49,1.01l-.25,1.65c-.08.44-.02.78.16,1.01s.48.35.88.35ZM401.02,774.3c-.47,0-.84-.12-1.1-.35-.26-.23-.39-.56-.38-.97h-.01l-.19,1.2h-1.22l1.33-8.35h1.24l-.29,1.8-.27,1.47h.05c.12-.41.35-.73.69-.97.34-.23.74-.35,1.21-.35.63,0,1.1.21,1.4.64.3.43.39,1.01.28,1.74l-.27,1.77c-.11.73-.39,1.31-.84,1.73-.45.42-.98.64-1.61.64ZM400.77,773.23c.4,0,.72-.12.98-.35.26-.23.42-.57.5-1.01l.25-1.65c.07-.43.01-.77-.17-1.01-.18-.24-.47-.35-.87-.35s-.72.12-.98.36-.43.57-.5,1l-.25,1.65c-.07.44-.01.77.17,1.01.18.24.47.36.87.36ZM405.47,776.25l.17-1.06h1.93c.64,0,1.01-.3,1.1-.9l.1-.67.21-1.19h-.03c-.12.42-.35.74-.68.97-.33.23-.73.34-1.2.34-.63,0-1.09-.2-1.4-.6s-.41-.94-.3-1.63l.58-3.6h1.24l-.56,3.48c-.06.41,0,.73.18.96s.47.34.85.34.72-.12.98-.37c.27-.24.43-.58.49-1.02l.54-3.4h1.24l-1.01,6.41c-.1.6-.37,1.08-.81,1.42-.44.35-1,.52-1.67.52h-1.95ZM417.79,770.09h3.22l.54-1.85h-5.47l-1.71,6.44h2.15l.59-2.1h3.03l.44-1.71h-3.03l.24-.78ZM424.23,772.92c-.59,0-1.02-.39-1.02-1.12,0-.88.63-1.76,1.61-1.76.49,0,.88.24,1.02.78l1.95-.83c-.29-1.17-1.27-1.9-2.64-1.9-2.78,0-4.15,2.15-4.15,3.9s1.27,2.83,3.07,2.83c1.37,0,2.34-.59,2.98-1.42l-1.51-1.17c-.39.44-.83.68-1.32.68ZM430.91,768.23h-2.15l-1.76,6.44h5.12l.49-1.85h-2.93l1.22-4.59ZM439.75,771.01c0-1.66-1.32-2.93-3.22-2.93-2.2,0-3.81,1.81-3.81,3.81,0,1.66,1.32,2.93,3.22,2.93,2.2,0,3.81-1.81,3.81-3.81ZM434.92,771.7c0-.83.59-1.71,1.51-1.71.78,0,1.17.54,1.17,1.22,0,.83-.59,1.71-1.51,1.71-.78,0-1.17-.54-1.17-1.22ZM443.21,772.23h1.07l-.2.68c-.15.05-.34.1-.59.1-.68,0-1.27-.39-1.27-1.22,0-1.02.73-1.9,1.95-1.9.59,0,1.12.24,1.51.59l1.37-1.37c-.44-.54-1.51-1.07-2.73-1.07-2.59,0-4.29,1.76-4.29,3.86s1.61,2.88,3.22,2.88c.93,0,1.85-.29,2.49-.68l.93-3.32h-3.12l-.34,1.46ZM450.78,768.08c-2.2,0-3.81,1.81-3.81,3.81,0,1.66,1.32,2.93,3.22,2.93,2.2,0,3.81-1.81,3.81-3.81,0-1.66-1.32-2.93-3.22-2.93ZM450.34,772.92c-.78,0-1.17-.54-1.17-1.22,0-.83.59-1.71,1.51-1.71.78,0,1.17.54,1.17,1.22,0,.83-.59,1.71-1.51,1.71ZM437.94,767.5c-.05.29.1.49.44.49s.54-.2.63-.49c.05-.24-.1-.49-.44-.49s-.59.24-.63.49ZM432.13,765.5c-.44,0-.73.24-.78.59s.1.59.54.59.73-.24.78-.59c.1-.34-.1-.59-.54-.59ZM433.01,767.3c-.1.54.15.88.83.88.63,0,1.07-.39,1.17-.88s-.15-.88-.83-.88c-.68,0-1.07.39-1.17.88ZM439.6,777.55l-2.44-1.81h-1.51l4.25,3.17,1.61-3.17h-.98l-.93,1.81ZM425.84,767.16l-2-1.46,23.13-2.78-2.15,4.25h1.02l2.68-5.32-26.99,3.22,2.78,2.1h1.51ZM338.72,785.79l.61-3.83h2.32l-.08.52h-1.76l-.18,1.14h1.63l-.08.52h-1.62l-.26,1.64h-.57ZM342.97,785.84c-.36,0-.62-.1-.8-.3-.17-.2-.23-.47-.18-.82l.27-1.7c.06-.34.2-.61.44-.82.24-.2.54-.3.89-.3s.62.1.8.3c.17.2.24.47.18.81l-.27,1.71c-.06.34-.2.62-.44.82-.24.2-.54.3-.9.3ZM343.05,785.33c.19,0,.35-.05.47-.16.12-.11.19-.26.23-.46l.27-1.7c.03-.2,0-.35-.08-.46-.08-.11-.22-.16-.41-.16s-.35.05-.46.16c-.12.1-.19.26-.22.46l-.27,1.7c-.03.2,0,.35.08.46s.22.16.41.16ZM345,785.79l.61-3.83h1.2c.24,0,.44.05.6.14.16.09.28.22.36.39s.09.37.05.59c-.04.26-.14.48-.3.67-.16.19-.37.32-.6.39l.54,1.64h-.62l-.48-1.57h-.54l-.25,1.57h-.57ZM345.89,783.71h.64c.19,0,.35-.06.48-.17.13-.11.21-.26.24-.45.03-.19,0-.35-.09-.46-.09-.11-.24-.17-.43-.17h-.64l-.2,1.25ZM349.54,785.79l.61-3.83h1.25c.37,0,.65.1.84.31.19.21.26.49.2.84-.04.23-.12.44-.25.61s-.29.31-.49.4c-.2.09-.42.14-.66.14h-.69l-.24,1.52h-.57ZM350.43,783.75h.69c.19,0,.36-.06.49-.18.14-.12.22-.27.25-.47s0-.35-.1-.47-.25-.18-.44-.18h-.69l-.21,1.29ZM352.75,785.79l.61-3.83h2.25l-.08.5h-1.7l-.17,1.09h1.51l-.08.5h-1.51l-.19,1.24h1.69l-.08.5h-2.25ZM355.84,785.79l.61-3.83h1.2c.24,0,.44.05.6.14.16.09.28.22.36.39s.09.37.05.59c-.04.26-.14.48-.3.67-.16.19-.37.32-.6.39l.54,1.64h-.62l-.48-1.57h-.54l-.25,1.57h-.57ZM356.74,783.71h.64c.19,0,.35-.06.48-.17.13-.11.21-.26.24-.45.03-.19,0-.35-.09-.46-.09-.11-.24-.17-.43-.17h-.64l-.2,1.25ZM360.13,785.84c-.39,0-.67-.1-.87-.29-.19-.19-.26-.45-.22-.78h.57c-.03.17.01.31.12.41.11.1.27.15.48.15.2,0,.37-.05.5-.15.13-.1.21-.23.24-.4.02-.15,0-.28-.06-.39-.06-.11-.16-.18-.29-.22l-.46-.14c-.27-.08-.46-.22-.59-.41-.13-.19-.17-.42-.13-.68.04-.21.11-.39.23-.55s.27-.28.46-.37.4-.13.64-.13c.35,0,.62.1.8.29.18.19.25.44.2.76h-.57c.03-.17,0-.3-.09-.4-.09-.1-.23-.14-.42-.14s-.34.04-.46.13c-.12.09-.19.21-.21.38-.02.15,0,.28.05.39s.16.18.29.22l.47.15c.26.08.46.22.58.41.12.19.17.42.12.69-.04.22-.12.41-.24.57-.13.16-.29.29-.49.38-.2.09-.42.13-.66.13ZM363.27,785.84c-.36,0-.62-.1-.8-.3-.17-.2-.23-.47-.18-.82l.27-1.7c.06-.34.2-.61.44-.82.24-.2.54-.3.89-.3s.62.1.8.3c.17.2.24.47.18.81l-.27,1.71c-.06.34-.2.62-.44.82-.24.2-.54.3-.9.3ZM363.34,785.33c.19,0,.35-.05.47-.16.12-.11.19-.26.23-.46l.27-1.7c.03-.2,0-.35-.08-.46-.08-.11-.22-.16-.41-.16s-.35.05-.46.16c-.12.1-.19.26-.22.46l-.27,1.7c-.03.2,0,.35.08.46s.22.16.41.16ZM365.28,785.79l.61-3.83h.71l.62,3.19c0-.1.02-.22.03-.36.01-.14.03-.29.04-.44.02-.15.04-.29.06-.41l.31-1.98h.52l-.61,3.83h-.71l-.61-3.19c0,.09-.02.21-.03.34s-.03.28-.04.42c-.02.15-.04.28-.06.41l-.31,2.01h-.53ZM368.23,785.79l1.59-3.83h.75l.37,3.83h-.56l-.07-.97h-1.09l-.39.97h-.59ZM369.39,784.34h.87l-.09-1.1c-.02-.2-.03-.37-.04-.51,0-.14-.01-.24-.01-.3-.02.06-.05.16-.1.3s-.11.31-.19.5l-.44,1.11ZM371.72,785.79l.61-3.83h.57l-.52,3.31h1.67l-.08.52h-2.25ZM376.68,785.84c-.37,0-.63-.1-.8-.3-.17-.2-.22-.47-.17-.82l.44-2.76h.57l-.44,2.76c-.03.2,0,.35.07.46.08.11.21.17.41.17s.35-.06.46-.17c.12-.11.19-.27.22-.46l.44-2.76h.57l-.44,2.76c-.06.35-.2.62-.43.82-.23.2-.53.3-.9.3ZM379.84,785.84c-.39,0-.67-.1-.87-.29-.19-.19-.26-.45-.22-.78h.57c-.03.17.01.31.12.41.11.1.27.15.48.15.2,0,.37-.05.5-.15.13-.1.21-.23.24-.4.02-.15,0-.28-.06-.39-.06-.11-.16-.18-.29-.22l-.46-.14c-.27-.08-.46-.22-.59-.41-.13-.19-.17-.42-.13-.68.04-.21.11-.39.23-.55s.27-.28.46-.37.4-.13.64-.13c.35,0,.62.1.8.29.18.19.25.44.2.76h-.57c.03-.17,0-.3-.09-.4-.09-.1-.23-.14-.42-.14s-.34.04-.46.13c-.12.09-.19.21-.21.38-.02.15,0,.28.05.39s.16.18.29.22l.47.15c.26.08.46.22.58.41.12.19.17.42.12.69-.04.22-.12.41-.24.57-.13.16-.29.29-.49.38-.2.09-.42.13-.66.13ZM381.91,785.79l.61-3.83h2.25l-.08.5h-1.7l-.17,1.09h1.51l-.08.5h-1.51l-.19,1.24h1.69l-.08.5h-2.25ZM386.94,785.84c-.36,0-.62-.1-.8-.3-.17-.2-.23-.47-.18-.82l.27-1.7c.06-.34.2-.61.44-.82.24-.2.54-.3.89-.3s.62.1.8.3c.17.2.24.47.18.81l-.27,1.71c-.06.34-.2.62-.44.82-.24.2-.54.3-.9.3ZM387.02,785.33c.19,0,.35-.05.47-.16.12-.11.19-.26.23-.46l.27-1.7c.03-.2,0-.35-.08-.46-.08-.11-.22-.16-.41-.16s-.35.05-.46.16c-.12.1-.19.26-.22.46l-.27,1.7c-.03.2,0,.35.08.46s.22.16.41.16ZM388.95,785.79l.61-3.83h.71l.62,3.19c0-.1.02-.22.03-.36.01-.14.03-.29.04-.44.02-.15.04-.29.06-.41l.31-1.98h.52l-.61,3.83h-.71l-.61-3.19c0,.09-.02.21-.03.34s-.03.28-.04.42c-.02.15-.04.28-.06.41l-.31,2.01h-.53ZM392.25,785.79l.61-3.83h.57l-.52,3.31h1.67l-.08.52h-2.25ZM396.12,785.79l.22-1.41-.75-2.42h.58l.45,1.45c.03.09.05.18.07.27.02.08.03.15.03.19.02-.04.05-.1.09-.19.04-.08.09-.17.14-.27l.9-1.45h.6l-1.53,2.42-.22,1.41h-.57ZM399.22,785.79l.61-3.83h.71l.62,3.19c0-.1.02-.22.03-.36.01-.14.03-.29.04-.44.02-.15.04-.29.06-.41l.31-1.98h.52l-.61,3.83h-.71l-.61-3.19c0,.09-.02.21-.03.34s-.03.28-.04.42c-.02.15-.04.28-.06.41l-.31,2.01h-.53ZM403.51,785.84c-.36,0-.62-.1-.8-.3-.18-.2-.23-.47-.18-.82l.27-1.7c.06-.34.2-.61.44-.82.24-.2.54-.3.89-.3s.62.1.8.3c.17.2.24.47.18.81l-.27,1.71c-.06.34-.2.62-.44.82-.24.2-.54.3-.89.3ZM403.58,785.33c.19,0,.35-.05.47-.16.12-.11.19-.26.23-.46l.27-1.7c.03-.2,0-.35-.08-.46-.08-.11-.22-.16-.41-.16s-.35.05-.46.16c-.12.1-.19.26-.22.46l-.27,1.7c-.03.2,0,.35.08.46.08.11.22.16.41.16ZM406.38,785.79l.52-3.31h-1.02l.08-.52h2.62l-.08.52h-1.03l-.52,3.31h-.57ZM409.52,785.79l.61-3.83h2.32l-.08.52h-1.76l-.18,1.14h1.63l-.08.52h-1.62l-.26,1.64h-.57ZM413.77,785.84c-.36,0-.62-.1-.8-.3-.18-.2-.23-.47-.18-.82l.27-1.7c.06-.34.2-.61.44-.82.24-.2.54-.3.89-.3s.62.1.8.3c.17.2.24.47.18.81l-.27,1.71c-.06.34-.2.62-.44.82-.24.2-.54.3-.89.3ZM413.85,785.33c.19,0,.35-.05.47-.16.12-.11.19-.26.23-.46l.27-1.7c.03-.2,0-.35-.08-.46-.08-.11-.22-.16-.41-.16s-.35.05-.46.16c-.12.1-.19.26-.22.46l-.27,1.7c-.03.2,0,.35.08.46.08.11.22.16.41.16ZM415.8,785.79l.61-3.83h1.2c.24,0,.44.05.6.14.16.09.28.22.36.39s.09.37.05.59c-.04.26-.14.48-.3.67-.16.19-.37.32-.6.39l.54,1.64h-.62l-.48-1.57h-.54l-.25,1.57h-.57ZM416.69,783.71h.64c.19,0,.35-.06.48-.17.13-.11.21-.26.24-.45.03-.19,0-.35-.09-.46-.09-.11-.24-.17-.43-.17h-.64l-.2,1.25ZM420.91,785.84c-.36,0-.63-.1-.81-.3-.18-.2-.24-.47-.19-.82l.27-1.7c.06-.35.21-.62.45-.82s.55-.3.91-.3.63.1.81.3c.18.2.24.47.19.82h-.57c.03-.2,0-.35-.09-.46-.09-.11-.23-.16-.42-.16s-.35.05-.47.16c-.12.1-.2.26-.23.45l-.27,1.71c-.03.2,0,.35.09.46.09.11.23.16.42.16s.35-.05.47-.16.2-.26.23-.46h.57c-.03.23-.11.43-.24.59s-.28.3-.47.39c-.19.09-.4.14-.64.14ZM424.03,785.84c-.36,0-.62-.1-.8-.3-.18-.2-.23-.47-.18-.82l.27-1.7c.06-.34.2-.61.44-.82.24-.2.54-.3.89-.3s.62.1.8.3c.17.2.24.47.18.81l-.27,1.71c-.06.34-.2.62-.44.82-.24.2-.54.3-.89.3ZM424.11,785.33c.19,0,.35-.05.47-.16.12-.11.19-.26.23-.46l.27-1.7c.03-.2,0-.35-.08-.46-.08-.11-.22-.16-.41-.16s-.35.05-.46.16c-.12.1-.19.26-.22.46l-.27,1.7c-.03.2,0,.35.08.46.08.11.22.16.41.16ZM425.97,785.79l.61-3.83h.69l.18,1.23c.02.12.04.23.05.33.01.1.02.18.03.24.02-.06.05-.14.09-.24.04-.11.09-.22.15-.34l.57-1.22h.71l-.61,3.83h-.54l.2-1.29c.02-.17.06-.35.1-.55.04-.2.09-.4.14-.61s.1-.4.14-.59c.05-.19.09-.35.13-.49l-.86,1.86h-.55l-.28-1.86c0,.14-.01.29-.02.47s-.02.37-.04.57c-.02.2-.04.41-.06.61-.02.2-.05.4-.08.57l-.2,1.29h-.54ZM429.11,785.79l.61-3.83h.69l.18,1.23c.02.12.04.23.05.33.01.1.02.18.03.24.02-.06.05-.14.09-.24.04-.11.09-.22.15-.34l.57-1.22h.71l-.61,3.83h-.54l.2-1.29c.02-.17.06-.35.1-.55.04-.2.09-.4.14-.61s.1-.4.14-.59c.05-.19.09-.35.13-.49l-.86,1.86h-.55l-.28-1.86c0,.14-.01.29-.02.47s-.02.37-.04.57c-.02.2-.04.41-.06.61-.02.2-.05.4-.08.57l-.2,1.29h-.54ZM432.41,785.79l.61-3.83h2.25l-.08.5h-1.7l-.17,1.09h1.51l-.08.5h-1.51l-.19,1.24h1.69l-.08.5h-2.25ZM435.51,785.79l.61-3.83h1.2c.24,0,.44.05.6.14.16.09.28.22.36.39s.09.37.05.59c-.04.26-.14.48-.3.67-.16.19-.37.32-.6.39l.54,1.64h-.62l-.48-1.57h-.54l-.25,1.57h-.57ZM436.4,783.71h.64c.19,0,.35-.06.48-.17.13-.11.21-.26.24-.45.03-.19,0-.35-.09-.46-.09-.11-.24-.17-.43-.17h-.64l-.2,1.25ZM439.8,785.84c-.36,0-.63-.1-.81-.3-.18-.2-.24-.47-.19-.82l.27-1.7c.06-.35.21-.62.45-.82s.55-.3.91-.3.63.1.81.3c.18.2.24.47.19.82h-.57c.03-.2,0-.35-.09-.46-.09-.11-.23-.16-.42-.16s-.35.05-.47.16c-.12.1-.2.26-.23.45l-.27,1.71c-.03.2,0,.35.09.46.09.11.23.16.42.16s.35-.05.47-.16.2-.26.23-.46h.57c-.03.23-.11.43-.24.59s-.28.3-.47.39c-.19.09-.4.14-.64.14ZM441.88,785.79l.08-.5h.78l.45-2.82h-.78l.08-.5h2.13l-.08.5h-.78l-.45,2.82h.78l-.08.5h-2.13ZM444.74,785.79l1.59-3.83h.75l.37,3.83h-.56l-.07-.97h-1.09l-.39.97h-.59ZM445.9,784.34h.87l-.09-1.1c-.02-.2-.03-.37-.04-.51,0-.14-.01-.24-.01-.3-.02.06-.05.16-.1.3s-.11.31-.19.5l-.44,1.11ZM448.24,785.79l.61-3.83h.57l-.52,3.31h1.67l-.08.52h-2.25ZM453.19,785.84c-.37,0-.63-.1-.8-.3-.17-.2-.22-.47-.17-.82l.44-2.76h.57l-.44,2.76c-.03.2,0,.35.07.46.08.11.21.17.41.17s.35-.06.46-.17c.12-.11.19-.27.22-.46l.44-2.76h.57l-.44,2.76c-.06.35-.2.62-.43.82-.23.2-.53.3-.9.3ZM456.36,785.84c-.39,0-.67-.1-.87-.29-.19-.19-.26-.45-.22-.78h.57c-.03.17.01.31.12.41.11.1.27.15.48.15.2,0,.37-.05.5-.15s.21-.23.24-.4c.02-.15,0-.28-.06-.39s-.16-.18-.29-.22l-.46-.14c-.27-.08-.46-.22-.59-.41-.13-.19-.17-.42-.13-.68.04-.21.11-.39.23-.55s.27-.28.46-.37c.19-.09.4-.13.64-.13.35,0,.62.1.8.29.18.19.25.44.2.76h-.57c.03-.17,0-.3-.09-.4-.09-.1-.23-.14-.42-.14s-.34.04-.46.13c-.12.09-.19.21-.21.38-.02.15,0,.28.05.39s.16.18.29.22l.47.15c.26.08.46.22.58.41.12.19.17.42.12.69-.04.22-.12.41-.24.57-.13.16-.29.29-.49.38-.2.09-.42.13-.66.13ZM458.42,785.79l.61-3.83h2.25l-.08.5h-1.7l-.17,1.09h1.51l-.08.5h-1.51l-.19,1.24h1.69l-.08.5h-2.25Z"/>
  <g>
    <path class="st5" d="M400.01,749.99c-193.34,0-350.01-156.71-350.01-350.01S206.66,50.01,400.01,50.01s349.99,156.74,349.99,349.98-156.68,350.01-349.99,350.01h0Z"/>
    <path class="st3" d="M400.01,64.58c-185.23,0-335.42,150.19-335.42,335.4s150.19,335.47,335.42,335.47,335.42-150.21,335.42-335.47S585.24,64.58,400.01,64.58h0Z"/>
    <path class="st4" d="M400.01,724.79c-179.37,0-324.79-145.41-324.79-324.81S220.64,75.22,400.01,75.22s324.78,145.37,324.78,324.77-145.4,324.81-324.78,324.81h0Z"/>
    <path class="st3" d="M132.49,354.49c-1.63,12.57-13.1,11.18-11.49-1.1.54-4.38,4.74-10.27,7.79-13.61,2.48,4.56,4.46,9.08,3.7,14.71h0ZM157.08,339.4l-27.61-4.16-28.58-3.11c-2.81,6.99-4.86,13.21-5.9,20.81-2.78,21.52,7.86,42.3,26.55,44.76,29.77,3.88,40.43-35.99,35.54-58.29h0Z"/>
    <polygon class="st3" points="273.4 187.3 257.63 166.88 240.75 179.87 219.01 151.64 191.72 172.57 229.26 221.33 273.4 187.3 273.4 187.3"/>
    <path class="st3" d="M165.17,254.29c6.5,3.78-2.2,18.59-8.68,14.8-6.63-3.88,2.08-18.71,8.68-14.8h0ZM138.78,298.71c36.15,21.2,79.77-53.12,43.6-74.38-36.32-21.33-80.01,53.06-43.6,74.38h0Z"/>
    <path class="st3" d="M673.93,366.26c-7.47,1.29-10.35-15.65-2.91-16.9,7.6-1.3,10.41,15.66,2.91,16.9h0ZM665.54,315.27c-41.33,6.97-27.02,91.99,14.4,85.04,41.56-7.07,27.16-92.1-14.4-85.04h0Z"/>
    <path class="st3" d="M632.54,241.85c2.98,5.43,1.69,7.92-.74,9.56-1.94,1.26-4.82,1.19-8.56-3.36l9.3-6.2h0ZM650.71,280.04c31.31-20.81-3.4-62.03-15.92-80.9l-51.17,33.99,20.2,30.56c11.88,17.8,30.79,27.08,46.89,16.35h0Z"/>
    <path class="st3" d="M317.68,136.24c-2.01-7.39,14.5-12.01,16.59-4.65,1.97,7.31-14.55,11.9-16.59,4.65h0ZM367.42,122.07c-11.35-40.62-94.44-17.42-83.06,23.17,11.3,40.42,94.34,17.25,83.06-23.17h0Z"/>
    <polygon class="st3" points="493.02 166.4 523.69 187.38 529.05 183.18 539.52 190.34 537.76 197.06 568.41 218.01 579.06 150.78 551.18 131.73 493.02 166.4 493.02 166.4"/>
    <path class="st3" d="M476.05,122.88c3.3-29.9-50.83-28.57-65.79-30.29l-6.85,61.1,33.59,3.79.79-7.07,3.87,7.59,41.38,4.63-18.94-26.72c5.69.22,10.9-3.85,11.96-13.02h0Z"/>
    <path class="st3" d="M341,636.64l-6.89,61.07,33.24,3.75,1.74-15.71c14.59,1.66,36,2.86,38.33-17.73,3.47-31.25-50.74-29.64-66.42-31.37h0Z"/>
    <path class="st3" d="M187.78,520.96l-48.05,38.36,21.05,26.46,5.76-4.62c-1.48,4.23-2.81,8.23-2.81,8.23l26.02,32.62,5.55-32.35c3.81,4.2,10.37,5,17.62-.78,23.53-18.76-15.86-56.32-25.13-67.92h0Z"/>
    <path class="st3" d="M540.94,639.68l-5.69-9.56c5.62-2.65,8.02-1.29,9.56,1.23,1.09,1.97.97,4.87-3.87,8.34h0ZM492.72,625.66l31.35,52.93,31.47-18.71c18.48-10.88,28.69-29.23,18.84-45.94-19.1-32.28-62.14.19-81.66,11.73h0Z"/>
    <path class="st3" d="M625.86,537.7l-9.79-17.32c-9.12,5.72-15.35,10.6-21.39,19.79-17.19,26.04-3.63,49.63,14.57,43.74l10.96,19.78c9.4-6.79,17.55-14.09,24-23.87,18.37-27.9,2.33-52.64-18.34-42.11h0Z"/>
    <polygon class="st3" points="432.56 639.98 443.88 700.36 477.63 694.12 466.36 633.67 432.56 639.98 432.56 639.98"/>
    <polygon class="st3" points="212.16 642.2 244.56 660.43 249.49 655.75 260.61 661.97 259.38 668.82 291.72 687.05 296.54 619.13 267.09 602.59 212.16 642.2 212.16 642.2"/>
    <path class="st5" d="M153.27,343.38l-19.39-3.3c2.44,4.47,3.7,9.31,2.94,15.05-.98,7.57-6.25,13.48-11.93,12.8-5.69-.74-9.41-7.49-8.37-14.99.72-5.69,3.8-10.5,7.14-14.15l-19.93-1.85c-2.11,5.14-3.6,10.92-4.32,16.65-2.65,20.29,7.45,37.74,22.64,39.74,14.87,1.91,28.38-11.99,30.93-31.77.63-4.49,1.18-13.92.29-18.18h0Z"/>
    <polygon class="st5" points="266.99 186.63 256.73 173.22 239.86 186.2 218.05 157.97 197.97 173.48 230.03 215.09 266.99 186.63 266.99 186.63"/>
    <path class="st5" d="M151.92,256.58c4.1-6.98,10.58-8.92,15.41-6.1,5.2,3.01,6.03,9.73,2.11,16.34-3.89,6.66-10.14,9.22-15.32,6.17-4.83-2.78-6.31-9.5-2.2-16.41h0ZM140.96,294.91c14.52,8.53,32.03-1.3,42.81-19.72,10.77-18.35,10.83-38.38-3.77-46.93-14.23-8.37-32.3,1.24-43.02,19.53-10.74,18.28-10.29,38.77,3.98,47.11h0Z"/>
    <path class="st5" d="M674.58,370.78c-5.92.97-10.89-3.59-12.15-11.18-1.26-7.59,1.86-13.57,7.73-14.57,5.53-.97,10.96,3.2,12.31,11.18,1.29,7.92-2.4,13.64-7.89,14.58h0ZM699.53,353.29c-3.56-20.91-17.06-36.28-33.32-33.51-16.64,2.78-23.71,21.56-20.13,42.59,3.57,21.01,16.42,36.4,32.99,33.58,16.32-2.72,23.94-21.72,20.46-42.66h0Z"/>
    <path class="st5" d="M633.8,235.65l.9,1.36c5.07,7.68,5.62,14.08-.55,18.22-5.74,3.82-11.79,0-16.47-6.98l-.82-1.36,16.93-11.24h0ZM648.15,276.4c16.06-10.7,12.61-29.9-.43-49.45l-14.25-21.56-43.78,29.09,17.79,26.75c11.35,17.07,27.67,23.78,40.66,15.17h0Z"/>
    <path class="st5" d="M328.6,143.71c-7.4,2.11-13.69-.48-15.29-6.23-1.51-5.37,2.02-11.19,9.79-13.31,7.79-2.2,13.87.97,15.36,6.29,1.59,5.78-2.48,11.21-9.86,13.24h0ZM362.98,123.33c-4.4-15.83-24.09-21.52-44.49-15.83-20.46,5.68-34.32,20.75-29.9,36.61,4.55,16.25,23.94,21.35,44.45,15.6,20.52-5.78,34.55-20.14,29.94-36.39h0Z"/>
    <path class="st5" d="M553.15,159.84l-5.2,15.86-8.38-5.82,12.87-10.57.71.52h0ZM501.22,166.69l22.17,15.25,5.37-4.27,15.86,10.77-1.81,6.78,22.17,15.12,9.11-57.41-23.18-15.83-49.69,29.6h0Z"/>
    <path class="st5" d="M437.93,123.72l-1.68-.19.99-8.86,1.92.23c4.3.45,8,1.35,7.58,5.37-.47,3.91-4.63,3.91-8.8,3.45h0ZM456.48,134.96v-.46c9.75-1.35,14.09-4.16,14.99-12.08,1.49-13.15-11.24-19.62-26.91-21.36l-30.46-3.46-5.82,52.21,24.65,2.76,1.87-16.74.44.07,9.19,18,29.1,3.23-13.18-18.64c-1.24-1.68-2.72-2.65-3.87-3.52h0Z"/>
    <path class="st5" d="M369.07,667.95l-2.45-.29,1.03-9.08,2.39.29c4.17.45,9.26,1.29,8.79,5.36-.46,4.2-5.34,4.2-9.76,3.71h0ZM376.84,645.18l-31.92-3.53-5.9,52.19,24.37,2.72,1.71-15.72,12.94,1.49c14.07,1.55,23.62-4.13,24.85-14.79,1.46-12.93-9.83-20.53-26.05-22.36h0Z"/>
    <path class="st5" d="M194.1,566.4c-3.08,2.42-6.01-.53-8.66-3.81l-1.1-1.36,6.95-5.56,1.25,1.56c2.72,3.36,4.7,6.65,1.56,9.18h0ZM187.02,527.3l-41.04,32.8,15.47,19.38,13.22-10.52.26.36-6.25,19.19,18.3,22.91,3.85-22.48c.35-2.06,0-3.84-.19-5.3l.31-.29c7.74,5.9,12.86,7.04,19.11,2.07,10.32-8.24,5.89-21.77-3.93-34.11l-19.13-23.98h0Z"/>
    <path class="st5" d="M540.74,645.18l-1.3.81-10.39-17.49,1.35-.8c8.02-4.75,14.41-4.95,18.22,1.45,3.46,5.91-.65,11.69-7.89,16.03h0ZM521.1,614.12l-22.28,13.09,26.74,45.23,27.66-16.34c17.64-10.44,25.2-26.37,17.3-39.88-9.84-16.6-29.26-14.08-49.42-2.1h0Z"/>
    <path class="st5" d="M641.43,541.78c-7.44-4.92-15.31-.81-22.75,7.1l-4,4.3c-1.36,1.47-3.31,3.92-4.92,2.81-1.81-1.16-.54-4.2.68-6.08,3.04-4.55,7.15-7.69,11.4-10.09l-7.42-13.11c-6.43,4.01-11.66,9.3-16.03,15.96-8.37,12.67-10.85,29.14-.49,35.99,6.92,4.46,15.13-.05,21.69-7.59l3.42-3.87c1.55-1.72,3.52-4.43,5.53-3.11,2.03,1.32.45,5.07-.95,7.18-3.2,4.82-8.03,8.2-12.72,10.56l-1.36.62,8.11,14.7c6.85-4.94,13.93-12.41,18.81-19.78,8.34-12.63,11.48-28.76,1.01-35.6h0Z"/>
    <polygon class="st5" points="437.79 643.62 447.46 695.25 472.4 690.54 462.71 638.94 437.79 643.62 437.79 643.62"/>
    <path class="st5" d="M271.63,630.41l-3.88,16.19-8.86-4.98,11.89-11.7.86.48h0ZM220.39,641.78l23.43,13.14,5-4.68,16.71,9.41-1.23,6.85,23.4,13.17,4.1-57.96-24.46-13.84-46.95,33.91h0Z"/>
    <path class="st3" d="M171.97,399.99c0,125.99,102.04,228.09,228.04,228.09s228.04-102.11,228.04-228.09-102.07-228.06-228.04-228.06-228.04,102.11-228.04,228.06h0Z"/>
    <polygon class="st5" points="544.21 496.4 600.78 483.19 570.11 433.85 617.35 399.99 570.11 366.18 600.78 316.88 544.21 303.67 553.74 246.31 496.34 255.81 483.16 199.23 433.82 229.9 400.01 182.65 366.16 229.9 316.81 199.23 303.65 255.81 246.31 246.31 255.81 303.67 199.2 316.88 229.9 366.18 182.66 399.99 229.9 433.85 199.2 483.19 255.81 496.4 246.31 553.7 303.65 544.23 316.81 600.78 366.16 570.12 400.01 617.38 433.82 570.12 483.16 600.78 496.34 544.23 553.74 553.7 544.21 496.4 544.21 496.4"/>
    <polygon class="st1" points="487.68 531.2 475.67 582.69 430.81 554.73 400.01 597.74 369.2 554.73 324.33 582.69 312.32 531.2 260.14 539.83 268.75 487.68 217.36 475.66 245.24 430.78 202.24 399.99 245.24 369.22 217.36 324.31 268.75 312.36 260.14 260.14 312.32 268.8 324.33 217.3 369.2 245.21 400.01 202.29 430.81 245.21 475.67 217.3 487.68 268.8 539.83 260.14 531.24 312.36 582.69 324.31 554.8 369.22 597.74 399.99 554.8 430.78 582.69 475.66 531.24 487.68 539.83 539.83 487.68 531.2 487.68 531.2"/>
    <path class="st3" d="M400.01,544.3c79.66,0,144.31-64.56,144.31-144.31s-64.65-144.3-144.31-144.3-144.31,64.62-144.31,144.3,64.6,144.31,144.31,144.31h0Z"/>
    <path class="st0" d="M400.01,262.36c76.05,0,137.64,61.62,137.64,137.62s-61.59,137.72-137.64,137.72-137.68-61.69-137.68-137.72,61.65-137.62,137.68-137.62h0Z"/>
    <path class="st3" d="M348.06,286.99c-15.15,6.99-28.66,16.9-39.71,29.05,7.45-5.4,17.78-11.64,31.17-17.51.98-1.41,3.98-5.91,8.54-11.54h0Z"/>
    <path class="st3" d="M313.12,473.21c-.31,3-.8,8.62-1.14,14.66,22.08,22.1,52.45,35.93,86.03,36.48v-20.22c-22.69-11.38-41.54-27.5-45.46-30.92-16.07,4.17-33.4,1.22-39.43,0h0Z"/>
    <path class="st3" d="M521.61,421.7h.83c1.24-7.05,1.95-14.32,1.95-21.71,0-21.26-5.39-41.3-14.8-58.84,2.19,18.12-.99,32.86-1.81,36.06,7.5,17.64,12.47,38.52,13.83,44.5h0Z"/>
    <path class="st3" d="M371.45,327.31c4.4-.23,19.88-1.13,28.55-1.13s24.19.9,28.55,1.13c7.42-12.89,22.74-24.2,27.92-27.71-2.02-2.84-6.53-9.19-12.43-15.87-13.7-5.23-28.52-8.08-44.04-8.08s-30.31,2.85-44.01,8.08c-5.97,6.68-10.46,13.03-12.42,15.87,5.1,3.51,20.45,14.83,27.87,27.71h0Z"/>
    <path class="st3" d="M491.66,315.97c-11.05-12.12-24.59-22-39.69-28.99,4.5,5.63,7.54,10.12,8.5,11.54,13.44,5.88,23.79,12.12,31.19,17.45h0Z"/>
    <path class="st3" d="M275.67,399.99c0,7.39.62,14.66,1.84,21.71h.85c1.45-5.98,6.34-26.86,13.85-44.5-.81-3.2-4.01-17.93-1.76-36.06-9.43,17.54-14.78,37.58-14.78,58.84h0Z"/>
    <path class="st3" d="M447.46,473.21c-3.92,3.42-22.77,19.54-45.47,30.92v20.22c33.55-.55,63.99-14.39,86.02-36.48-.35-6.04-.84-11.67-1.11-14.66-6.04,1.22-23.39,4.17-39.44,0h0Z"/>
    <path class="st3" d="M453.89,378.08c-6.74-18.35-22.29-42.2-25.33-46.79-4.07-.26-19.81-1.2-28.55-1.2s-24.5.93-28.52,1.2c-3.08,4.59-18.68,28.43-25.38,46.79,2.71,4.52,16.64,27.56,29.97,47.12,2.93.19,12.38.65,23.93.65s21-.46,23.89-.65c13.36-19.56,27.34-42.6,29.99-47.12h0Z"/>
    <path class="st3" d="M312.32,469.04c3.24.74,22.44,4.72,39.31.29,1.93-4.59,10.74-25.46,21-42.14-13.17-19.45-26.89-42.09-29.84-46.98-5.05,0-26.61,0-47.25-.81-7.71,18.36-12.64,40.2-13.53,44.16,1.96,4.08,14.23,29.25,30.31,45.47h0Z"/>
    <path class="st3" d="M457.22,380.22c-2.91,4.88-16.64,27.52-29.83,46.98,10.26,16.68,19.07,37.55,20.96,42.14,16.95,4.42,36.1.45,39.34-.29,16.03-16.22,28.37-41.39,30.32-45.47-.84-3.96-5.82-25.8-13.55-44.16-20.64.81-42.16.87-47.24.81h0Z"/>
  </g>
</svg>