<?xml version="1.0" encoding="utf-8"?>
<!-- Generator: Adobe Illustrator 26.1.0, SVG Export Plug-In . SVG Version: 6.00 Build 0)  -->
<svg version="1.1" id="图层_1" xmlns="http://www.w3.org/2000/svg" xmlns:xlink="http://www.w3.org/1999/xlink" x="0px" y="0px"
	 viewBox="0 0 800 800" style="enable-background:new 0 0 800 800;" xml:space="preserve">
<style type="text/css">
	.st0{fill:#56090B;}
	.st1{fill:#9A7344;}
	.st2{fill:#50080A;}
	.st3{fill:#79161B;}
	.st4{fill:#4E090C;}
	.st5{fill:#977149;}
	.st6{fill:#D3B368;}
	.st7{fill:#D1B169;}
	.st8{fill:#7D7D7D;}
	.st9{fill:#FFFFFF;}
	.st10{fill:#E4E4E4;}
	.st11{fill:#FAFAFA;}
	.st12{fill:#7E807E;}
	.st13{fill:#0A0404;}
	.st14{fill:#FFFBFB;}
	.st15{fill:#090506;}
	.st16{fill:#FFF9FB;}
	.st17{fill:#222224;}
	.st18{fill:#080405;}
	.st19{fill:#1F1D1E;}
	.st20{fill:#080506;}
	.st21{fill:#1F1F1F;}
	.st22{fill:#1A1A1A;}
	.st23{fill:#201F1F;}
	.st24{fill:#201F20;}
	.st25{fill:#5F5F5F;}
</style>
<g>
	<g>
		<ellipse class="st0" cx="400" cy="400" rx="347.6" ry="350"/>
		<ellipse class="st1" cx="400" cy="400" rx="341.7" ry="344.1"/>
		<ellipse class="st0" cx="400" cy="400" rx="333.6" ry="335.9"/>
		<ellipse class="st1" cx="401.2" cy="402" rx="260.6" ry="260.4"/>
		<ellipse class="st2" cx="401.2" cy="402" rx="251.8" ry="251.6"/>
		<ellipse class="st3" cx="401.2" cy="401.6" rx="238" ry="238.2"/>
		<g>
			<path class="st4" d="M455.9,525.2c17.5-3.2,34.2-7.8,49.9-13.7V183.4c-15.7-5.9-32.5-10.6-49.9-13.7V525.2z"/>
			<path class="st4" d="M620.4,494.4c12.1-28.5,18.8-59.9,18.8-92.9c0-33-6.7-64.3-18.8-92.9V494.4z"/>
			<path class="st4" d="M291.7,580.3c15.7,7.6,32.4,13.5,49.9,17.7V170.9c-17.5,4.5-34.2,11-49.9,19.2V580.3z"/>
			<path class="st4" d="M177.4,320.5c-9.2,25.3-14.2,52.6-14.2,81.1c0,28.5,5,55.8,14.2,81.1V320.5z"/>
		</g>
	</g>
	<rect x="395.5" y="279.5" class="st5" width="86.8" height="169.4"/>
	<g>
		<g>
			<path class="st6" d="M555.8,393.1c0.8,0,1.6,0.3,2.2,0.9c1.2,1.2,1.3,3.2,0.1,4.4l-48,49.2c-0.6,0.6-1.4,0.9-2.2,0.9
				c-0.8,0-1.6-0.3-2.2-0.9c-1.2-1.2-1.3-3.2-0.1-4.4l48-49.2C554.1,393.4,554.9,393.1,555.8,393.1 M555.8,384.2L555.8,384.2
				c-3.2,0-6.3,1.3-8.6,3.6l-48,49.2c-2.2,2.3-3.4,5.3-3.4,8.5c0,3.2,1.3,6.2,3.6,8.4c2.3,2.2,5.2,3.4,8.4,3.4
				c3.2,0,6.3-1.3,8.6-3.6l48-49.2c2.2-2.3,3.4-5.3,3.4-8.5c0-3.2-1.3-6.2-3.6-8.4C561.9,385.4,558.9,384.2,555.8,384.2L555.8,384.2
				z"/>
			<path class="st6" d="M470.7,383.5c0.8,0,1.6,0.3,2.2,0.9c1.2,1.2,1.3,3.2,0.1,4.4L425,438c-0.6,0.6-1.4,0.9-2.2,0.9
				c-0.8,0-1.6-0.3-2.2-0.9c-1.2-1.2-1.3-3.2-0.1-4.4l48-49.2C469.1,383.8,469.9,383.5,470.7,383.5 M470.7,374.7
				C470.7,374.7,470.7,374.7,470.7,374.7c-3.2,0-6.4,1.3-8.6,3.6l-48,49.2c-2.2,2.3-3.4,5.3-3.4,8.5c0,3.2,0.4,6.8,2.7,9
				c2.3,2.2,6.1,2.8,9.3,2.8c3.2,0,6.3-1.3,8.6-3.6l48-49.2c2.2-2.3,3.4-5.3,3.4-8.5c0-3.2-1.3-6.2-3.6-8.4
				C476.8,375.9,473.9,374.7,470.7,374.7L470.7,374.7z"/>
			<path class="st6" d="M464.4,375.7c0.8,0,1.6,0.3,2.2,0.9c1.2,1.2,1.3,3.2,0,4.4l-57,58c-0.6,0.6-1.4,0.9-2.2,0.9
				c-0.8,0-1.6-0.3-2.2-0.9c-1.2-1.2-1.3-3.2,0-4.4l57-58C462.8,376,463.6,375.7,464.4,375.7 M464.4,366.9
				C464.4,366.9,464.4,366.9,464.4,366.9c-3.2,0-6.3,1.3-8.6,3.6l-57,58c-4.6,4.7-4.6,12.3,0.2,17c2.3,2.2,5.2,3.4,8.4,3.4
				c3.2,0,6.3-1.3,8.6-3.6l57-58c4.6-4.7,4.6-12.3-0.2-17C470.6,368.1,467.6,366.9,464.4,366.9L464.4,366.9z"/>
			<path class="st6" d="M454.9,344.3c0.8,0,1.6,0.3,2.2,0.9c1.2,1.2,1.3,3.2,0,4.4l-57,58c-0.6,0.6-1.4,0.9-2.2,0.9
				c-0.8,0-1.6-0.3-2.2-0.9c-1.2-1.2-1.3-3.2,0-4.4l57-58C453.3,344.7,454.1,344.3,454.9,344.3 M454.9,335.5
				C454.9,335.5,454.9,335.5,454.9,335.5c-3.2,0-6.3,1.3-8.6,3.6l-57,58c-4.6,4.7-4.6,12.3,0.2,17c2.3,2.2,5.2,3.4,8.4,3.4
				c3.2,0,6.3-1.3,8.6-3.6l57-58c4.6-4.7,4.6-12.3-0.2-17C461.1,336.7,458.1,335.5,454.9,335.5L454.9,335.5z"/>
			<path class="st6" d="M449.1,337.2c0.8,0,1.6,0.3,2.2,0.9c1.2,1.2,1.3,3.2,0,4.4l-57,58c-0.6,0.6-1.4,0.9-2.2,0.9
				c-0.8,0-1.6-0.3-2.2-0.9c-1.2-1.2-1.3-3.2,0-4.4l57-58C447.5,337.5,448.3,337.2,449.1,337.2 M449.1,328.3
				C449.1,328.3,449.1,328.3,449.1,328.3c-3.2,0-6.3,1.3-8.6,3.6l-57,58c-4.6,4.7-4.6,12.3,0.2,17c2.3,2.2,5.2,3.4,8.4,3.4
				c3.2,0,6.3-1.3,8.6-3.6l57-58c4.6-4.7,4.6-12.3-0.2-17C455.3,329.5,452.3,328.3,449.1,328.3L449.1,328.3z"/>
			<path class="st6" d="M435,310.5c0.8,0,1.6,0.3,2.2,0.9c1.2,1.2,1.3,3.2,0,4.4l-57,58c-0.6,0.6-1.4,0.9-2.2,0.9
				c-0.8,0-1.6-0.3-2.2-0.9c-1.2-1.2-1.3-3.2,0-4.4l57-58C433.4,310.8,434.2,310.5,435,310.5 M435,301.6
				C435,301.6,435,301.6,435,301.6c-3.2,0-6.3,1.3-8.6,3.6l-57,58c-2.2,2.3-3.5,5.3-3.4,8.5c0,3.2,1.3,6.2,3.6,8.4
				c2.3,2.2,5.2,3.4,8.4,3.4c3.2,0,6.3-1.3,8.6-3.6l57-58c4.6-4.7,4.6-12.3-0.2-17C441.2,302.8,438.2,301.6,435,301.6L435,301.6z"/>
			<path class="st6" d="M430.6,301.3c0.8,0,1.6,0.3,2.2,0.9c1.2,1.2,1.3,3.2,0,4.4l-57,58c-0.6,0.6-1.4,0.9-2.2,0.9
				c-0.8,0-1.6-0.3-2.2-0.9c-1.2-1.2-1.3-3.2,0-4.4l57-58C428.9,301.6,429.8,301.3,430.6,301.3 M430.6,292.5L430.6,292.5
				c-3.2,0-6.3,1.3-8.6,3.6l-57,58c-2.2,2.3-3.5,5.3-3.4,8.5c0,3.2,1.3,6.2,3.6,8.4c2.3,2.2,5.2,3.4,8.4,3.4c3.2,0,6.3-1.3,8.6-3.6
				l57-58c4.6-4.7,4.6-12.3-0.2-17C436.7,293.7,433.7,292.5,430.6,292.5L430.6,292.5z"/>
			<path class="st6" d="M432.4,259.1c0.8,0,1.6,0.3,2.2,0.9c1.2,1.2,1.3,3.2,0,4.4l-57,58c-0.6,0.6-1.4,0.9-2.2,0.9
				c-0.8,0-1.6-0.3-2.2-0.9c-1.2-1.2-1.3-3.2,0-4.4l57-58C430.7,259.4,431.5,259.1,432.4,259.1 M432.4,250.2
				C432.4,250.2,432.4,250.2,432.4,250.2c-3.2,0-6.3,1.3-8.6,3.6l-57,58c-2.2,2.3-3.5,5.3-3.4,8.5c0,3.2,1.3,6.2,3.6,8.4
				c2.3,2.2,5.2,3.4,8.4,3.4c3.2,0,6.3-1.3,8.6-3.6l57-58c4.6-4.7,4.6-12.3-0.2-17C438.5,251.4,435.5,250.2,432.4,250.2L432.4,250.2
				z"/>
		</g>
		<g>
			<path class="st4" d="M507.8,448.5c-0.8,0-1.6-0.3-2.2-0.9c-1.2-1.2-1.3-3.2-0.1-4.4l48-49.2c1.2-1.2,3.2-1.3,4.4-0.1
				c1.2,1.2,1.3,3.2,0.1,4.4l-48,49.2C509.4,448.2,508.6,448.5,507.8,448.5z"/>
			<path class="st4" d="M422.7,439c-0.8,0-1.6-0.3-2.2-0.9c-1.2-1.2-1.3-3.2-0.1-4.4l48-49.2c1.2-1.2,3.2-1.3,4.4-0.1
				c1.2,1.2,1.3,3.2,0.1,4.4L425,438C424.3,438.7,423.5,439,422.7,439z"/>
			<path class="st4" d="M407.5,440c-0.8,0-1.6-0.3-2.2-0.9c-1.2-1.2-1.3-3.2,0-4.4l57-58c1.2-1.2,3.2-1.3,4.4,0
				c1.2,1.2,1.3,3.2,0,4.4l-57,58C409.1,439.7,408.3,440,407.5,440z"/>
			<path class="st4" d="M398,408.6c-0.8,0-1.6-0.3-2.2-0.9c-1.2-1.2-1.3-3.2,0-4.4l57-58c1.2-1.2,3.2-1.3,4.4,0
				c1.2,1.2,1.3,3.2,0,4.4l-57,58C399.6,408.3,398.8,408.6,398,408.6z"/>
			<path class="st4" d="M392.2,401.4c-0.8,0-1.6-0.3-2.2-0.9c-1.2-1.2-1.3-3.2,0-4.4l57-58c1.2-1.2,3.2-1.3,4.4,0
				c1.2,1.2,1.3,3.2,0,4.4l-57,58C393.8,401.1,393,401.4,392.2,401.4z"/>
			<path class="st4" d="M378,374.7c-0.8,0-1.6-0.3-2.2-0.9c-1.2-1.2-1.3-3.2,0-4.4l57-58c1.2-1.2,3.2-1.3,4.4,0
				c1.2,1.2,1.3,3.2,0,4.4l-57,58C379.7,374.4,378.8,374.7,378,374.7z"/>
			<path class="st4" d="M373.6,365.6c-0.8,0-1.6-0.3-2.2-0.9c-1.2-1.2-1.3-3.2,0-4.4l57-58c1.2-1.2,3.2-1.3,4.4,0
				c1.2,1.2,1.3,3.2,0,4.4l-57,58C375.2,365.3,374.4,365.6,373.6,365.6z"/>
			<path class="st4" d="M375.4,323.3c-0.8,0-1.6-0.3-2.2-0.9c-1.2-1.2-1.3-3.2,0-4.4l57-58c1.2-1.2,3.2-1.3,4.4,0
				c1.2,1.2,1.3,3.2,0,4.4l-57,58C377,323,376.2,323.3,375.4,323.3z"/>
		</g>
	</g>
	<g>
		<g>
			<path class="st4" d="M533.6,470.6c10.8-6.1,13.9-11,13.9-11s2-28.2,51.8-31.8c21-1.5,27.4,17.8,27.4,17.8s-0.1,56.5,0,88.4
				c-105,72.9-209.9,25.6-224.1,43.2c-14.1,17.7-110.2,43.8-132.8,44.3c-22.6,0.5-39.1-17-39.1-17s2.2-30.5,0-48.5
				c-2.2-18-30.3-46.7-22.9-60c21.7-23.1,119.2-28.1,168.4-26.1C425.5,472.1,522.9,477.2,533.6,470.6z"/>
			<path class="st6" d="M201.4,309.4c11-6.3,131.4-75.4,131.4-75.4l72,38.7l-0.5,172.9l66.4,3.3l-0.1-8.9l13.3,1.7l0.1,25
				c0,0,33.4,3.1,55.2,3.1c48.4,0,82-13.3,81.9-28c-0.1-11-17.7-14-17.7-14s20.3,0.9,20.3,13.8c0,3.7-1.9,8.5-5.2,12.9
				C609,466.9,583,479.3,515,479.3c-25,0-73.7-4-132.7-4.1c-83.3-0.1-156.9,8.8-167.8,26.7c30,59.8,16.5,99.1,16.5,99.1
				s-6.1-54.8-31-95.6c-9.3-5-18.1-18.4-18.1-28.7c0-10.2,0-112,0-131.6C181.9,324.8,190.4,315.7,201.4,309.4z"/>
			<path class="st4" d="M195.1,476.4c14.9-13.3,54.3-16.2,54.3-16.2l-13.9-4.4l0-104.1l40.7-21.8l0.9,128.3c0,0,14.6-2,48.5-1.7
				V253.5c0,0-108.9,62.3-116.8,67.1s-13.7,10.5-13.7,19.7S195.1,476.4,195.1,476.4z"/>
			<polygon class="st3" points="248.3,359.7 263,351.7 263.7,450.6 248.3,446.1 			"/>
			<path class="st4" d="M340.5,253.5l44.4,22.2v173.9l85.7,0V465c-53.9-6.9-130.1-8.5-130.1-8.5V253.5z"/>
			<path class="st6" d="M627.2,534.1c0,0-61.9,39.1-163.5,39c-38.2,0-72.7-7-114.2-7c-46.8,0-77.6,8.7-93.2,19.4
				c-9.2,6.3-16.6,14.5-16.6,23.7c0,10.4,15.8,14.1,32.1,14.1c13.8,0,58.2-3.9,116-36.9c-61.1,22.2-97.2,23.9-109,23.8
				c-11.8-0.1-21.1-1.2-21.1-5.3c0-3.8,12.5-13.8,35.4-18.2c15.3-2.9,35.6-4.2,61.2-4.1c13.2,0,79,2.1,92.1,2.1
				C545.2,584.7,615.7,551.5,627.2,534.1z"/>
		</g>
		<g>
			<path class="st6" d="M527,496.4l10.8-1.4c0,0,1.2,29.1,1.4,35.5c0.2,6.5,3.2,11,8.1,11.1c9.9,0.1,13.2-6.5,13-13.4
				c-0.2-6.9-1.1-35.4-1.1-35.4l10.2-0.8c0,0,0.5,23.7,0.9,34.3c0.5,13.6-9.7,23.3-23.8,23.3c-15.7,0-18.1-11.2-18.4-21.3
				C527.8,518.2,527,496.4,527,496.4z"/>
			<path class="st6" d="M300.4,500.5c-6.2-4.9-14.8-6.2-20.8-6.2c-3.6,0-9.1,0.6-13,1.5c-3.9,0.9-24.8,5.2-24.8,5.2l13.4,68.3
				c0,0,19.1-4.9,27.1-6.9c7.9-2,29.7-7.7,29.7-33.3C311.9,516.3,307.5,506.2,300.4,500.5z M281.2,550.9c-5.7,1.4-12.3,3-12.3,3
				l-8.4-44.8c0,0,8.3-1.9,10.2-2.3c1.8-0.4,4.3-0.6,6.1-0.6c2.9,0,7.5,0.3,11,4c4.1,4.3,7.8,9.8,7.8,22.1
				C295.6,544,287,549.4,281.2,550.9z"/>
			<polygon class="st6" points="316.6,486.6 335.1,486.6 350.6,508.8 362.8,486.1 377.7,486.1 359,517.8 384.4,550.3 366.8,551.3 
				350.5,527.5 336.7,553.5 320.6,554 341.6,518.1 			"/>
			<polygon class="st6" points="388.7,511 419.9,511.9 420.4,522.2 389.2,521.2 			"/>
			<path class="st6" d="M482.2,515.1c-1-16-10.9-21.9-25.7-23.1c-13.9-1.2-22.6,14.5-22.1,31.5c0.5,16.9,6.4,31.7,25.2,31.7
				c19.5,0,22.8-11.4,22.8-16.2v-3l-12.2-0.8c0.2,5.4-3.3,10.7-10,10.7c-6.7,0-11.4-8.7-11.8-22.8c-0.2-8.2,2.2-21.7,9.9-21.5
				c11.1,0.3,11.4,12.6,11.4,12.6L482.2,515.1z"/>
			<polygon class="st6" points="489.5,496.4 500.5,496.4 500.9,542.3 522.2,540.9 522.2,550.3 489.8,554.7 			"/>
			<path class="st6" d="M605,508.2c0,0,7.4-4.6,7.4-12.4c0-11.6-9.9-11.6-11.5-11.6c-1.6,0-3.7,0.1-5.6,0.5
				c-1.9,0.4-16.8,2.9-16.8,2.9l2.7,52.1c0,0,14.3-3.1,19.4-4.2c5.1-1.1,14.8-5.5,14.8-16.4C615.3,508.1,605,508.2,605,508.2z
				 M588.8,494.4c0,0,5.6-0.8,8.4-1.3c2.8-0.5,5.8,1,6.1,5.1c0.2,4.1-3.3,6.5-5.4,6.9c-2.1,0.4-8.3,1.7-8.3,1.7L588.8,494.4z
				 M600.6,526.7c-3.1,0.7-10.2,2.2-10.2,2.2l-0.6-13.7c0,0,7-1.3,10-1.8c2.9-0.4,5.7,1,5.7,6.2
				C605.5,523.5,603.7,526.1,600.6,526.7z"/>
		</g>
	</g>
	<g>
		<g>
			<path class="st6" d="M111.5,461.8c2.7-0.4,4.6-3,4.1-5.7c-2.8-16.6-4.4-36.4-4.4-53.2c0-35.1,6-71,18.2-102.8
				c1-2.7-0.2-5.7-2.7-7l-0.2-0.1c-2.9-1.5-6.5-0.1-7.7,3c-12.7,34-19.2,70.8-19.2,106.5c0,17.1,2.2,37.5,5.1,54.7
				c0.5,3,3.3,5,6.3,4.5L111.5,461.8z"/>
			<path class="st6" d="M676.3,292L676.3,292c-3.1,1.1-4.7,4.5-3.6,7.5c13.1,35.2,18.4,68.5,18.4,103.3c0,16.5-1.9,36.6-4.7,53
				c-0.4,2.6,1.2,5,3.8,5.6l1.1,0.2c2.8,0.6,5.5-1.2,6-4c3.1-17.4,5.4-37.3,5.4-54.8c0-36-6.4-73.6-19.2-107.5
				C682.3,292.5,679.2,291,676.3,292z"/>
		</g>
		<g>
			<path class="st6" d="M142.4,243.5l-5.8-4.4l12.4-16.3c-2.9-2.5-6.3-5.3-10.3-8.4l4.7-6.2c1.3,1,3,2.4,5.1,4.2
				c2.5,1.9,4.2,3.3,5.1,4.2l12.9-17l5.8,4.4l-12.6,16.6c11.2,4.7,21.9,3.7,32-3c0.4,3.6,1,6.6,1.8,9c-9.4,4.9-19,5.8-28.7,2.8
				c5.4,7.7,7.1,17.3,5.1,28.7c-0.2,0-0.7,0-1.4,0c-2.9,0.2-5.3,0.5-7.1,0.9c3.1-13.5,0.7-23.9-7-31.3L142.4,243.5z"/>
			<path class="st6" d="M219.9,191.6c4.9-4.1,8.7-7.3,11.3-9.5c3-2.7,5.8-5.3,8.4-7.6c0.4,1,1,2.4,1.5,4.2c0.5,1.1,0.9,1.8,1.1,2.3
				c-6.9,5.8-13.3,11.2-19.3,16.3c-4.8,4-9.5,6-14.1,5.9c-0.4,3.1-0.7,5.8-0.8,8.2l-7.2-3.8c0.3-2.4,0.7-4.6,1.2-6.7l-8.5-10.1
				l-3.7,3.1l-4.4-5.2l8.8-7.4l12.9,15.4C211.2,196.9,215.4,195.3,219.9,191.6z M176.6,176l1.9-6.2c0.5,0.2,1.4,0.4,2.6,0.7
				c2.5,0.4,5.5,1.2,9,2.2l-2,7.1C184.1,178.3,180.3,177,176.6,176z M207.6,193.2l-4-4.7l12.3-10.4l-3.1-3.7l-11.3,9.5l-3.7-4.4
				c-0.7-4.2-1.5-7.5-2.3-9.9l-3.8,3.2l-4.1-4.9l5.8-4.9c-0.5-1.7-1.2-3.5-2.1-5.5l6.7-3.9c0.2,0.4,0.4,1.1,0.6,2.1
				c0.3,1.1,0.5,1.9,0.6,2.4l14.2-11.9l4.1,4.9l-16.1,13.6c0.2,1,0.6,2.4,1.1,4.3c0.6,2.2,0.9,3.9,1.2,5.1l5.3-4.5l-4.4-5.2l5.3-4.5
				l4.4,5.2l8.5-7.2l4,4.7l-8.5,7.2l3.1,3.7l9.7-8.1l4,4.7l-9.7,8.1l3.8,4.6l-5.3,4.5l-3.8-4.6L207.6,193.2z"/>
			<path class="st6" d="M291,134.8l2.6,5.1l-12.7,6.3l0,0.5c5.4-0.2,10.9-0.5,16.6-0.9l-0.7,7c-5.5-0.4-11.2-0.4-16.9-0.2
				c-1.4,4.3-4.9,8.9-10.6,13.9c-1.3-1-3.1-2.1-5.3-3.3c-0.7-0.3-1.1-0.6-1.4-0.8c6.4-4.5,10.1-8.7,11.2-12.7l-11.9,5.9
				c0.6,1.2,1.2,2.3,2,3.5c-2.5,4.8-4.1,8.5-4.9,11.1l-5.3-2.8c0.5-1,0.2-2.5-0.7-4.3l-7.9-15.8l-3.9,1.9l-3.1-6.1l10.1-5l9.5,19.1
				c0.3-0.5,0.5-1.1,0.8-1.9c0.3-1,0.6-1.7,0.9-2.2l-1.1-2.2l8-4c-3.1,0.2-6.2,0.6-9.4,1.2l-0.2-4.8c0.1-0.1,0.3-0.1,0.5,0
				c2.9-0.8,6.6-1.3,11.3-1.7l0.1,4.1l4.5-2.2c-0.7-3.3-2.2-7.3-4.5-12l6.2-3.1c2.2,4.3,3.7,8.3,4.7,11.9L291,134.8z M233.6,130.9
				l3.6-5.5c3.6,1.7,6.9,3.5,10.1,5.6c-0.3,0.7-1,1.8-1.9,3.4c-0.8,1-1.3,1.9-1.6,2.5C240.3,134.7,236.9,132.7,233.6,130.9z
				 M269.2,123.7l13.4-6.7l2.5,4.9l1.8,7.5l-6.2,2.1l-1-6.4l-21.4,10.7c1.8-0.2,4.8-0.7,9.1-1.3c-3.2,0.4-2.9,0.4,1,0l-0.3,5.3
				c-3.3,0.2-7,0.5-11.1,1.1l0.2-4.5l-5.3,2.6l-2.7-5.3l13.6-6.8l-1.5-3l-11.5,5.7l-2.6-5.1l11.5-5.7l-2-3.9l6.4-3.2l2,3.9l11.7-5.8
				l2.6,5.1l-11.7,5.8L269.2,123.7z"/>
			<path class="st6" d="M314.5,106.7l6.8,2.3c-1,2.5-2.1,5.1-3.3,7.8l6.2,25.9l-7,1.6l-4.4-18.4c-1.2,1.8-2.5,3.7-3.8,5.6
				c-1-1.9-2.5-4-4.4-6.4C308.7,119.3,312.1,113.2,314.5,106.7z M310.8,93.6c0.4,0.2,0.9,0.5,1.7,0.7c1.3,0.5,3,1.2,5.2,2.2
				c-2.5,5-6.2,10.5-11,16.6c-1.4-1.6-3.4-3.3-5.9-5C305.6,102.5,308.9,97.6,310.8,93.6z M323.8,116.5l-1.6-6.6l30.3-7.1l1.6,6.6
				l-8,1.9l3.9,16.5c1.3,5.3-0.6,8.7-5.6,10.1c-0.8,0.2-2.3,0.5-4.2,1c-2.4,0.7-4.2,1.2-5.5,1.5c-1-2.3-2.1-4.4-3.3-6.2
				c1.3-0.3,3-0.6,5.1-1c1.4-0.3,2.4-0.6,3-0.7c2.5-0.6,3.5-2.2,2.9-4.7l-3.5-14.8L323.8,116.5z M322.1,101.8l-1.6-6.6l26.3-6.1
				l1.6,6.6L322.1,101.8z"/>
			<path class="st6" d="M377,104.9l-0.5-21.2l39.1-1l0.5,21.2l-15,0.4l0.2,7.1l17.8-0.4l0.2,6.4l-17.8,0.4l0.2,7.3
				c4.1-0.1,7.7-0.2,10.9-0.3c3.3-0.1,6.8-0.2,10.4-0.5c-0.9,2.7-1.6,4.9-2,6.7c-6.1,0.2-10.6,0.3-13.5,0.3c-3.5,0.1-6.5,0.1-9.1,0
				c-7.5,0.2-12.9-2-16-6.4c-1.7,3.1-3.8,6.1-6.5,8.8c-0.4-0.6-1.2-1.6-2.3-3c-0.8-1.5-1.4-2.5-2-3c4.7-4.4,7.3-11.1,7.8-20.1l7,0.9
				c-0.4,3.1-0.8,6-1.3,8.6c2.1,4.4,5.2,6.9,9.3,7.5l-0.5-20.1L377,104.9z M384,98.4l24.8-0.6l-0.2-8.2l-24.8,0.6L384,98.4z"/>
			<path class="st6" d="M436.4,130.7l-0.1-7.2c0.7,0,1.8,0,3.1,0c1.5,0,2.5,0,3.1,0l2.6-12.5l-4.9-1l1.3-6.4l4.9,1l2.1-10.3
				l-5.3-1.1l1.3-6.4l17,3.5l-1.3,6.4l-5.1-1.1l-2.1,10.3l4.5,0.9l-1.3,6.4l-4.5-0.9l-2.3,11.2c1.8-0.1,3.6-0.1,5.3,0
				c-0.5,2.4-1,4.7-1.4,6.9C447.6,130.3,441.9,130.4,436.4,130.7z M481.7,95.2l4.6-3.1c1.8,2,3.7,4.3,5.7,7l-3.3,2.2l3.8,0.8
				l-1.3,6.2l-12.6-2.6l-0.7,3.4c0.1,0.3,0.2,0.7,0.2,1.2c0.1,1.1,0.3,2.6,0.8,4.7c2.8-2.1,5.3-4.1,7.4-5.9l4.7,5.4
				c-3.1,2.2-6.5,4.4-10.3,6.6c1.8,4.4,3.9,8.4,6.4,12.1c-1.9,1.9-3.6,3.7-5.2,5.7c-3-4.3-5.3-9.5-7-15.4l-2.3,11
				c-0.8,3.7-3,5.3-6.8,4.9c-2-0.3-4.6-0.7-7.7-1.4c0.2-3.1,0.1-5.4-0.2-6.8c0.4,0.1,1.1,0.2,2.1,0.4c1.1,0.4,1.9,0.6,2.5,0.7
				c2.3,0.5,3.6-0.4,4.1-2.7l1.1-5.2c-1.5,0.6-3.6,1.4-6.3,2.5c-2.3,1-4.1,1.8-5.4,2.3l-1.6-7.5c3.8-1.2,8.7-2.9,14.9-5.2l2.5-12.3
				l-11.9-2.5l1.3-6.2l11.9,2.5l1.7-8.4l6.6,1.4l-1.7,8.4l6,1.2C484.2,98.2,482.8,96.4,481.7,95.2z M458.2,106.8l6-2.1
				c1.2,2.6,2.5,6.1,3.9,10.2l-6.2,2.3C460.7,113.2,459.5,109.7,458.2,106.8z"/>
			<path class="st6" d="M524.9,105l5.2,4.7c-2.6,2.7-5.2,5.4-8,8.1l-16.7,34.8l-6.3-3l10.4-21.8c-0.3,0.2-0.6,0.5-1.2,0.9
				c-1.7,1.3-3.2,2.2-4.3,2.8c0.1-0.6,0.4-1.4,0.7-2.6c0.4-1.1,1.1-3.5,2.2-7C513,117.2,519,111.5,524.9,105z M528.6,156.9l5.3-3
				l-10.4-5l1,6.1c-1.2-0.1-3.1-0.1-5.6,0c-4.2,0-7.3-0.1-9.4-0.1c0-2.4-0.2-4.7-0.6-6.9c4.7,0.6,9.3,0.8,13.9,0.6l-11.4-5.5
				l2.6-5.3l3.9,1.9l13.9-28.9l26.9,12.9L545,152.6l3.9,1.9l-2.6,5.3l-11.8-5.6c3,3.7,6.1,7.2,9.2,10.5l-6,3.9
				C535.2,164.6,532.1,160.7,528.6,156.9z M549,128.5l1.2-2.6l-14.9-7.2l-1.2,2.6L549,128.5z M532,125.9l-1.2,2.6l14.9,7.2l1.2-2.6
				L532,125.9z M528.5,133l-1.2,2.6l14.9,7.2l1.2-2.6L528.5,133z M525.2,139.9l-1.2,2.6l14.9,7.2l1.2-2.6L525.2,139.9z"/>
			<path class="st6" d="M573.5,165.5l3,7c-6.8,2.4-13.3,3.9-19.4,4.6c-0.4-2.8-0.9-5.1-1.6-7C561.5,169.3,567.5,167.8,573.5,165.5z
				 M587.8,166.6l5.5-6.8l6.1,4.9l-5.5,6.8L608,183l-4.3,5.3l-14.2-11.5l-8.9,10.9c-3.3,4.1-7.1,4.7-11.2,1.7
				c-1.8-1.5-4-3.2-6.7-5.2c0.3-0.5,0.7-1.3,1.2-2.2c0.7-1.3,1.4-2.9,2.2-4.8c1.5,1.6,3.1,3.1,4.8,4.5c1.8,1.5,3.3,1.4,4.6-0.2
				l7.9-9.7L567.6,159l18.4-16.8c10.2,7.9,20.5,15.1,30.9,21.7l-2.3,6.9c-8.8-5.5-17.8-11.8-27.1-19.1l-8.7,7.6L587.8,166.6z
				 M589.3,183.4l6.7,0.7c0.2,3.4,0,9.5-0.5,18.3c-1.3-0.3-3.2-0.6-5.7-0.9c-1-0.1-1.8-0.2-2.4-0.2
				C588.6,194,589.2,188.1,589.3,183.4z"/>
			<path class="st6" d="M652.6,209.4l-4.5,3.6l-4.2-5.3l1.5,5.8c-2,0.3-4.2,0.5-6.6,0.5l3.8,4.8l-4.5,3.6l-18-22.6l4.5-3.6l3.8,4.8
				c0.2-0.5,0.4-1.3,0.7-2.3c0.5-1.5,0.8-2.7,1.1-3.6l5.4,2.1l-4.1-5.1l4.5-3.6l6.2,7.8c1.1-1.4,2-2.9,2.5-4.2l5.9,5.3
				c-0.6,0.7-1.4,1.8-2.4,3.3c-0.5,0.8-0.9,1.4-1.1,1.7L652.6,209.4z M606,222l-3.9-4.9l16.2-12.9l15,18.9l-16,12.8l-4.1-5.1
				l2.2-1.8l-7-8.9L606,222z M634.3,205.1l-3.7-1.5l3.5,4.4c3.2-0.3,6.1-0.8,8.9-1.5l-6.9-8.7C635.5,200.9,634.9,203.3,634.3,205.1z
				 M619.6,225.6l5.2-4.1l-7-8.9l-5.2,4.1L619.6,225.6z M650.4,232.5c-0.7,6.1-3.1,10.8-7.1,14c-4.1,3.3-7.9,3.3-11.2,0
				c-0.7-0.6-1.7-1.8-3.2-3.6c1.9-1.7,3.5-3.6,5-5.7c0.8,1.2,1.4,2.1,1.7,2.5c1.3,1.6,2.7,1.7,4.3,0.5c3.1-2.5,5-6.7,5.7-12.6
				c4.5-1.4,9.2-3,14-4.7l-3.4-4.3L623,245.1l-4.2-5.3l38.1-30.3l12.1,15.2l-4,3.2c-1.6,0.6-5.1,1.6-10.4,3.2
				C652.9,231.8,651.5,232.2,650.4,232.5z"/>
		</g>
		<g>
			<path class="st6" d="M109.3,498.7l-3.3-10.3l28.4-9.1l3.4,10.6c2.9,9.3-0.4,15.5-9.8,18.6C118.4,511.8,112.2,508.5,109.3,498.7z
				 M133.5,491.1l-1.9-5.8l-20.3,6.5l1.8,5.6c2,6.4,6.4,8.5,13.2,6.2C133,501.4,135.4,497.2,133.5,491.1z"/>
			<path class="st6" d="M126.3,540.8l5.3-5.7l-5.7-12.1l-7.8,0.3l-2.2-4.7l32.4-1.5l2,4.3l-21.7,24.1L126.3,540.8z M130.5,522.7
				l4.2,9l7.8-8.1c0.9-1,1.7-1.6,2.3-1.9l-0.1-0.1c-0.8,0.3-1.8,0.4-3,0.4L130.5,522.7z"/>
			<path class="st6" d="M157.4,536.1l2.6,4.3l-22,13.1l7.7,12.9l-3.6,2.1l-10.2-17.2L157.4,536.1z"/>
			<path class="st6" d="M171,558.5l2.8,4l-24.7,16.8l-2.8-4L171,558.5z"/>
			<path class="st6" d="M168.3,604l3.8-6.8l-8.4-10.4l-7.5,2.2l-3.3-4l31.2-9.1l3,3.7l-15.4,28.6L168.3,604z M168.1,585.5l6.3,7.7
				l5.6-9.7c0.7-1.2,1.3-1.9,1.8-2.4l-0.1-0.1c-0.7,0.5-1.7,0.8-2.8,1.1L168.1,585.5z"/>
			<path class="st6" d="M194.6,623.4l0.1-0.1c1.2-1.5,2.4-2.8,3.6-3.9l13.1-12.9l3.3,3.4l-21.2,20.9l-3.4-3.5
				c2-10,3.4-17.4,4.4-22.2c0.6-2,1.1-3.9,1.8-5.6l-0.1-0.1c-1,1.4-2.3,2.9-3.9,4.5l-12.8,12.6l-3.3-3.4l21.2-20.9l3.5,3.6
				c-2,9.9-3.5,17.2-4.5,21.9C196,619.5,195.4,621.4,194.6,623.4z"/>
			<path class="st6" d="M219.9,651.7l-8.8-6.3l17.5-24.2l9,6.5c7.8,5.8,8.8,12.7,3.1,20.7C235,656.8,228.1,657.9,219.9,651.7z
				 M234.9,631.2l-4.9-3.5l-12.5,17.3l4.8,3.5c5.4,4,10.2,3.1,14.3-2.8C240.6,639.9,240,635.1,234.9,631.2z"/>
			<path class="st6" d="M271.3,649l4.2,2.4l-8.5,15c-4.2,8-9.9,9.7-17.2,5.2c-7.2-3.8-8.5-9.5-4-17.2l8.5-15l4.2,2.4l-8.5,15
				c-3.1,5.2-2.5,8.9,1.8,11.1c4.4,2.7,8.1,1.4,10.9-3.9L271.3,649z"/>
			<path class="st6" d="M300.3,662.5l5.6,2.4l-16,9.1l4.9,18.8l-5.7-2.5l-2.8-12c-0.1-0.7-0.2-1.6-0.4-2.8c0,0.1-0.2,0.2-0.4,0.3
				c-0.9,0.8-1.4,1.3-1.7,1.5l-11.1,6l-5.6-2.4l17.3-9.2l-4.2-17.8l5.6,2.4l2.2,11.2c0.1,0.3,0.1,0.8,0.1,1.5
				c0.1,0.8,0.1,1.3,0.1,1.6c0.8-0.8,1.6-1.5,2.6-2L300.3,662.5z"/>
			<path class="st6" d="M311,666.5l4.6,1.6l-9.5,28.2l-4.6-1.6L311,666.5z"/>
			<path class="st6" d="M336.9,698.4l0-0.1c0.3-1.9,0.6-3.7,1-5.2l4.3-17.9l4.6,1.1l-7,29l-4.8-1.2c-3.6-9.6-6.3-16.6-7.9-21.2
				c-0.6-2-1.1-3.9-1.4-5.7l-0.1,0c-0.1,1.7-0.4,3.7-1,5.8l-4.2,17.5l-4.6-1.1l7-29l4.9,1.2c3.5,9.5,6.1,16.4,7.7,21
				C336,694.3,336.5,696.3,336.9,698.4z"/>
			<path class="st6" d="M365.2,692.9l14.2,1.1l-0.9,11.3c-3,3.3-7.5,4.7-13.6,4.3c-9.8-1.2-14.5-6.6-14.1-16.4
				c1.2-9.9,6.5-14.7,16-14.3c6.7,0.6,11,3.9,12.8,9.8l-5.3,1c-1-3.8-3.7-6-8-6.4c-6,0-9.4,3.4-10.4,10.3
				c-0.2,6.9,2.9,10.9,9.2,11.9c3.9,0.3,6.8-0.5,8.7-2.3l0.4-5.2l-9.3-0.7L365.2,692.9z"/>
			<path class="st6" d="M419.8,685.5l-16.6,0.2l0.1,7.9l14.3-0.2l0.1,4.3l-14.3,0.2l0.2,13.2l-4.9,0.1l-0.4-30l21.5-0.3L419.8,685.5
				z"/>
			<path class="st6" d="M436.8,678.8c8.9-2,15.1,1.5,18.5,10.6c2.6,9.7-0.8,16-10,19c-9.2,2.2-15.3-1.3-18.4-10.5
				C424.5,688.3,427.8,681.9,436.8,678.8z M444,704.6c6.1-2.1,8.2-6.6,6.3-13.6c-2.4-6.5-6.6-9.2-12.4-8c-5.8,2.2-7.8,6.7-6.2,13.5
				C434,703.1,438.1,705.8,444,704.6z"/>
			<path class="st6" d="M472.2,671.7c9-1.5,14.9,2.5,17.7,11.8c1.9,9.8-1.8,15.9-11.2,18.4c-9.3,1.6-15.2-2.2-17.7-11.6
				C459.3,680.4,463.1,674.3,472.2,671.7z M477.8,697.9c6.2-1.7,8.6-6.1,7.2-13.2c-2-6.6-6-9.6-11.9-8.8c-5.9,1.8-8.2,6.2-7,13.1
				C467.8,695.8,471.8,698.8,477.8,697.9z"/>
			<path class="st6" d="M514.1,662.6l-9.3,3.4l8.7,24l-4.6,1.7l-8.7-24l-9.5,3.4l-1.5-4.1l23.4-8.5L514.1,662.6z"/>
			<path class="st6" d="M541.7,676.9l-12,6.3l-13.8-26.4l11.4-5.9c5.7-2.7,9.9-1.9,12.5,2.2c1.2,2.6,1.1,5-0.4,7.2
				c3.6-0.2,6.2,1.2,7.9,4.2C549.9,669.5,548,673.7,541.7,676.9z M522.2,658.4l3.7,7l6.5-3.4c3.3-1.8,4.3-3.9,3.2-6.4
				c-1.3-2-3.5-2.3-6.7-0.7L522.2,658.4z M534.8,665.6l-7,3.7l4.2,8l7.4-3.9c3.6-1.9,4.6-4.2,3.2-6.9
				C541.2,664.1,538.5,663.8,534.8,665.6z"/>
			<path class="st6" d="M576.9,656.2l-6.3-4.5l-11.2,7.3l1.4,7.7l-4.3,2.8l-5.8-31.9l4-2.6l26.8,18.3L576.9,656.2z M558.4,654.5
				l8.3-5.4l-9.1-6.6c-1.1-0.8-1.8-1.5-2.2-2l-0.1,0.1c0.4,0.8,0.7,1.7,0.8,2.9L558.4,654.5z"/>
			<path class="st6" d="M567.8,625.7l3.9-3.2l16.1,19.9l11.7-9.4l2.6,3.2l-15.6,12.6L567.8,625.7z"/>
			<path class="st6" d="M587,610l3.6-3.5l17.7,18.5l10.8-10.4l2.9,3l-14.5,13.8L587,610z"/>
			<path class="st6" d="M634.6,568.8l-2.1,5c-3.7-1.2-6.8-0.4-9.2,2.4c-3.3,4.6-2.2,9.3,3.2,13.9c5.7,4.4,10.4,4.4,14.1,0.1
				c2.9-3.5,2.7-7.1-0.4-10.9l4.3-3.4c4.2,5.5,4,11.1-0.6,16.8c-5.8,7.1-12.7,7.6-20.6,1.5c-7.8-6.4-8.9-13.4-3.3-20.9
				C623.7,568.6,628.6,567.2,634.6,568.8z"/>
			<path class="st6" d="M631.1,558.9l2.7-4.3l21.7,13.7l8-12.7l3.5,2.2l-10.7,16.9L631.1,558.9z"/>
			<path class="st6" d="M653,520.4l2.2-4.4l15.5,7.6c8.2,3.7,10.3,9.4,6.1,17c-3.4,7.5-9,9.2-17,5.1l-15.5-7.6l2.2-4.4l15.5,7.6
				c5.4,2.8,9.1,1.9,11.1-2.6c2.5-4.6,1-8.2-4.5-10.7L653,520.4z"/>
			<path class="st6" d="M690.5,507.3l-4.9,12.6l-27.8-10.7l4.6-12c2.5-5.8,6.2-8,10.9-6.6c2.7,1.1,4.1,3,4.4,5.7
				c2.5-2.5,5.4-3.2,8.7-2.1C691.6,496.3,693,500.7,690.5,507.3z M663.5,506.3l7.4,2.8l2.6-6.9c1.3-3.5,0.6-5.8-1.8-6.9
				c-2.3-0.7-4.1,0.6-5.5,3.9L663.5,506.3z M677.8,503.3l-2.8,7.4l8.5,3.3l3-7.8c1.4-3.8,0.7-6.2-2.1-7.3
				C681.5,498,679.3,499.5,677.8,503.3z"/>
		</g>
	</g>
	<g>
		<path class="st6" d="M526.1,382c0.8,0,1.6,0.3,2.2,0.9c1.2,1.2,1.3,3.2,0.1,4.4l-48,49.2c-0.6,0.6-1.4,0.9-2.2,0.9
			c-0.8,0-1.6-0.3-2.2-0.9c-1.2-1.2-1.3-3.2-0.1-4.4l48-49.2C524.5,382.3,525.3,382,526.1,382 M526.1,373.1c-3.2,0-6.3,1.3-8.6,3.6
			l-48,49.2c-2.2,2.3-3.4,5.3-3.4,8.5c0,3.2,1.3,6.2,3.6,8.4c2.3,2.2,5.2,3.4,8.4,3.4c3.2,0,6.3-1.3,8.6-3.6l48-49.2
			c2.2-2.3,3.4-5.3,3.4-8.5c0-3.2-1.3-6.2-3.6-8.4C532.2,374.3,529.2,373.1,526.1,373.1L526.1,373.1z"/>
		<path class="st6" d="M503.9,390.9c0.8,0,1.6,0.3,2.2,0.9c1.2,1.2,1.3,3.2,0.1,4.4l-48,49.2c-0.6,0.6-1.4,0.9-2.2,0.9
			c-0.8,0-1.6-0.3-2.2-0.9c-1.2-1.2-1.3-3.2-0.1-4.4l48-49.2C502.3,391.2,503.1,390.9,503.9,390.9 M503.9,382
			c-3.2,0-6.3,1.3-8.6,3.6l-48,49.2c-2.2,2.3-3.4,5.3-3.4,8.5c0,3.2,1.3,6.2,3.6,8.4c2.3,2.2,5.2,3.4,8.4,3.4c3.2,0,6.3-1.3,8.6-3.6
			l2.3-2.3l3.1,0l0-3.2l42.7-43.7c2.2-2.3,3.4-5.3,3.4-8.5c0-3.2-1.3-6.2-3.6-8.4C510.1,383.3,507.1,382,503.9,382L503.9,382z"/>
		<path class="st4" d="M478.1,437.5c-0.8,0-1.6-0.3-2.2-0.9c-1.2-1.2-1.3-3.2-0.1-4.4l48-49.2c1.2-1.2,3.2-1.3,4.4-0.1
			c1.2,1.2,1.3,3.2,0.1,4.4l-48,49.2C479.7,437.1,478.9,437.5,478.1,437.5z"/>
		<path class="st4" d="M455.9,446.4c-0.8,0-1.6-0.3-2.2-0.9c-1.2-1.2-1.3-3.2-0.1-4.4l48-49.2c1.2-1.2,3.2-1.3,4.4-0.1
			c1.2,1.2,1.3,3.2,0.1,4.4l-48,49.2C457.6,446.1,456.7,446.4,455.9,446.4z"/>
	</g>
	<g>
		<ellipse class="st7" cx="519.9" cy="301.5" rx="111.3" ry="111.3"/>
		<ellipse class="st8" cx="519.6" cy="301.5" rx="104.1" ry="104.4"/>
		<ellipse class="st9" cx="520.8" cy="301.6" rx="102.7" ry="102.6"/>
		<path class="st10" d="M463,232.7c0,0,21.5,8.6,26.1,11.4c4.6,2.8,13,1.5,16.7,0.6c3.7-0.9,23-5.8,27.9-6.8
			c7.3-1.5,17.9-16.8,17.9-16.8l-8.3,23.6l-44.5,10L463,232.7z"/>
		<path class="st10" d="M571.4,288.3c-0.4-0.8-23.7,27-24.8,28.2c-1.2,1.2-2.4,3.5-1.9,5c0.4,1.5,1.9,6.5,1.9,6.5s0-3.6,0-5.8
			c0-2.2,0.2-3.1,2.7-5.1C551.7,314.9,572.2,289.8,571.4,288.3z"/>
		<path class="st10" d="M607.8,335.7c0.8,0.1,9.3-12.8,9.9-16.3c0.6-3.5-2.2-24.3-2.2-24.3s-14.6-3.3-25.4-5.3
			c15.4,9.3,15.8,12,16.8,14.1c1,2.2,1.4,3,2.7,5.9C611,312.8,613.2,322.5,607.8,335.7z"/>
		<path class="st10" d="M548.6,339.2c-0.2-2.3,2-4.6,3.9-1.6c1.8,3,4.2,5.4,5.5,6.7c1.3,1.4,11.6,9.7,18.2,10
			c9.8,0.4,19.9-9,22.2-10.7c2.2-1.7,6.7-2.7,5.1,0.9c-1.7,3.6-8.4,13.4-11,16.2c-9.2,10.1-18,10.1-24.4,10.1
			c-7,0-10.3-1.5-13.3-1.9c-3-0.5-3.6-2.8-3.8-4.5C550.8,362.7,548.8,341.5,548.6,339.2z"/>
		<path class="st11" d="M617.8,321.8c1.6,19.4-25.6,49-28.6,51.2c-3,2.2-5.1,4.5-6.9,6.8c-1.1,1.4-4.2,5.5-6.5,8.5
			c15.3-9.7,27.8-23.3,36.2-39.4l0.6-1.2c4.1-8.2,7.2-17,9-26.2C620.2,320.6,618.6,320.2,617.8,321.8z"/>
		<path class="st10" d="M459.3,329.3c2.8-1.6,26.1-15.5,28.3-16.8c4.2-2.5,5.9-3.1,9.6-1.3c4,1.9,29.3,11.3,32.1,12.7
			c2.7,1.4,6,1.9,7.6,11.1c1.5,9.2,4.4,27,5.1,30.6c0.7,3.6,0.5,6.7-5.7,11.2c-6.2,4.4-16.2,9.1-19.3,10.4c-3,1.3-4.5,3.3-12.4,1.1
			c-3.6-1-10.6-2.5-17-4.9c-7.5-2.9-14.4-6.9-17-9.3c-4.9-4.5-7.1-8.5-8.7-11.6c-1.6-3-5.7-17.7-6.9-23.2
			C453.8,333.7,456.5,330.9,459.3,329.3z"/>
		<path class="st10" d="M520.8,404.2c2.1,0,4.2-0.1,6.3-0.2c-3-2.1-9.6-4.5-11.1-5.6c-2.4-1.7-3.7-1.6-5.4-1.4
			c-0.9,0.1-15.6-1-27.8-6.3c-13-5.7-22.3-13.5-23-14.1c-1.2-1.1-2.2-2.3-5-2.5c-1.4-0.1-4.8-0.4-7.2-0.6
			C466.2,392.4,492.1,404.2,520.8,404.2z"/>
		<path class="st10" d="M478.6,298.3c-3.7-0.6-20.2-2.7-30.9-5.2s-18.7-9.1-20.8-11.3c-1.1-1.1-3.4-3.8-5.6-5.4
			c-2,8.1-3.1,16.5-3.1,25.2c0,5,0.4,9.9,1.1,14.7c1.9-2,3.9-5,4.5-6.6c1.3-3,3.7-1.9,4.8-0.4c5.9,8.2,14.3,12.4,17.8,14.1
			c3.5,1.7,4.8,1.4,6.6-0.1c1.8-1.5,25.5-17.9,28-19.7C483.4,301.8,482.3,298.8,478.6,298.3z"/>
		<path class="st10" d="M560.9,207.1c-1.3,2.1-3.2,5.2-3.9,6.7c-1.2,2.5-0.6,3.5,4.6,3.8c5.2,0.3,18.5,3.2,32.6,21
			c14.1,17.8,17.4,20,23.6,43.8c1.1,4.3,2.7,2.7,4-0.1C615.3,248.3,592,220.2,560.9,207.1z"/>
		<path class="st10" d="M457.6,220.7c1.5,1.7,3.2,3.6,4.5,5.1c3.8,4.3,5.7,1.6,6.7,0c1-1.6,9.9-12.3,12.5-12.9
			c2.6-0.6,11.5-2.8,14.8-2.7c3.3,0,21-3,33.5-1.4c12.5,1.6,16.6,4.7,19.6,6.3c3,1.6,4-1.4,3.9-3.3c0-1.1-0.8-5-1.5-8.1
			c-9.8-3.1-20.2-4.8-31-4.8C497,199,475.1,207.1,457.6,220.7z"/>
		<path class="st12" d="M424.3,308.7c-1.8-14.7,1.6-46.2,17.2-66c19.1-24.3,43.5-41.9,87.7-41.9c-25.5-0.9-43.9,4.5-59.5,12.9
			c-24.3,13.1-37.5,33.5-42.9,53.8C422.4,283.8,422.5,299.3,424.3,308.7z"/>
		<path class="st13" d="M423.2,317.1c0.5-4.3,4.3-4.8,5.9-2.5c1.5,2.4,12,11.3,18.7,14.7c2,1,3,2.9,2.9,5
			c-0.5,11.9,8.3,31.7,9.2,33.2c0.9,1.6,1.5,6.5-4,5.5c-5.5-1-11.5-1.6-13-2.3c-4-1.9-20.8-31.4-20.6-36.8
			C422.5,328.6,422.6,321.4,423.2,317.1z"/>
		<path class="st14" d="M445.5,333.6c0.7-0.3,2.3,11.8,3.7,18.2c1.4,6.4,6.3,16.9,5.8,17.1c-0.5,0.2-6-8.2-7.6-15.6
			C445.7,345.8,444.7,333.9,445.5,333.6z"/>
		<path class="st15" d="M517.7,391.1c13.2-4.7,25.3-14.9,27.3-17.3c2-2.5,3.5-2.8,6.2-1.2c8,4.4,22.3,2.5,24.7,2.1
			c6.6-1.2,5.7,2.4,3.9,5.2c-1.8,2.8-10.1,11.6-11.2,13c-1.1,1.4-23.7,9.5-27.6,9.9c-6.2,0.5-22.2-5.2-23.9-6
			C515.8,396.1,513.7,392.6,517.7,391.1z"/>
		<path class="st16" d="M522.2,394.5c-0.1-0.6,16-5.4,26.1-18.4c16.5,5.3,30.4,1.4,30.5,1.7c0,0.3-13.3,5.7-29.6,0.8
			C537.6,392.1,522.2,395.1,522.2,394.5z"/>
		<path class="st12" d="M461.8,374c0,0,20.5,15.1,51.5,20.2C481.8,393.5,461.8,374,461.8,374z"/>
		<path class="st17" d="M584.5,373.7c26.2-24.4,32.7-49.9,32.7-49.9l1.7,0.9C618.9,324.7,609.6,354.1,584.5,373.7z"/>
		<path class="st18" d="M620,327.2c0,0-2.6,1-3.4,0.6c-0.8-0.5-0.3-1.3-0.6-3.1c-0.2-1.8,2.5-14.1-3.3-29c-0.3-0.9-1-2.2-1-3.4
			c0-1,0.7-1.8,1-2.4c6.6-11.5,4-26.4,4-26.4s6.9,22.3,7.2,36.8C624,316.5,620,327.2,620,327.2z"/>
		<path class="st19" d="M616.1,269.9c-9.5-35.1-42.1-56.1-42.1-56.1l-5.6-0.8C568.3,213,603,231.3,616.1,269.9z"/>
		<path class="st13" d="M555.5,211.6c-9.1-9.4-28.3-12.4-28.3-12.4c31.5,1.5,51.3,17.5,51.3,17.5S563.9,210,555.5,211.6z"/>
		<path class="st13" d="M466.8,214c0,0,1,0.7,1.5,1.1c0.5,0.4,0.9,1.4,0,2.4c-0.9,1-5.2,7.7-6.5,11.7c-0.1,0.3-0.8,1.7-1.3,2.2
			c-0.4,0.4-2.6,1.4-3.1,1.5c-5.2,1.8-14.6,10.7-23.1,22.2c-1.6,2.2-3.5,1.3-3.5,0.6c0-0.7,0-6.6,0-6.6s7.8-11.2,16.1-18.8
			C455.3,222.6,464,215.2,466.8,214z"/>
		<path class="st20" d="M533.5,241.4c-5.7,1.5-23.7,6.1-27.7,7.2c-4,1.1-12,5.1-12.5,12.9c-0.5,7.8-1.2,18.1-1.5,28.4
			c-0.3,10.3,3.6,15.8,8.3,17.6c4.7,1.8,23.3,9,29.1,11.3c5.8,2.3,13.1,0.5,15.3-2.2c2.2-2.7,22.1-26.7,23.8-29
			c1.7-2.3,1-10.7-0.8-13.6c-1.8-2.8-12.6-19.9-16.4-25.8C547.3,242.3,539.2,239.9,533.5,241.4z"/>
		<polygon class="st21" points="551.6,221.2 541.9,243.5 545,244.6 		"/>
		<polygon class="st22" points="567.1,279.5 595.4,287.2 567.1,282.9 		"/>
		<polygon class="st23" points="461.3,231.7 499.7,252.9 497.6,255.2 		"/>
		<polygon class="st24" points="494.2,298.3 450.1,330.4 497.2,302.6 		"/>
		<polygon class="st21" points="547,370.9 536.8,317.8 541.9,316.5 		"/>
		<path class="st25" d="M502.6,263.6c0,0-1.8,21.8,14.6,19.6c20.8-2.7,33.6-14.2,41.7-14c0,0,4.4,7.3,5.4,9c1,1.7,1.9,5.5,0,7.9
			c-1.9,2.4-19.1,25-21.5,27c-2.4,2-6.2,4.3-10.9,1.8c-4.7-2.5-23.1-11.3-28.7-12.4c-3.6-0.8-3.6-4-3.4-6.1
			C499.9,294.1,502.6,263.6,502.6,263.6z"/>
		<path class="st9" d="M539.2,246.3c-17.6,1.4-31.3,6-35.2,7.3c-4.3,1.4-6.2,3.6-6.7,6.1c-0.5,2.5-1.6,36.3-0.6,37.8
			c1.7-5.6,2.4-30.9,2.1-33.2c-0.6-5.3-0.1-7.5,7.1-9.9C508.7,253.4,522.7,249.2,539.2,246.3z"/>
	</g>
</g>
</svg>
