<?xml version="1.0" encoding="utf-8"?>
<!-- Generator: Adobe Illustrator 26.1.0, SVG Export Plug-In . SVG Version: 6.00 Build 0)  -->
<svg version="1.1" id="图层_1" xmlns="http://www.w3.org/2000/svg" xmlns:xlink="http://www.w3.org/1999/xlink" x="0px" y="0px"
	 viewBox="0 0 800 800" style="enable-background:new 0 0 800 800;" xml:space="preserve">
<style type="text/css">
	.st0{fill:#56090B;}
	.st1{fill:#D3B368;}
	.st2{fill:#862421;}
	.st3{fill:#4E090C;}
	.st4{fill:#977149;}
	.st5{fill:#D1B169;}
	.st6{fill:#7D7D7D;}
	.st7{fill:#FFFFFF;}
	.st8{fill:#E4E4E4;}
	.st9{fill:#FAFAFA;}
	.st10{fill:#7E807E;}
	.st11{fill:#0A0404;}
	.st12{fill:#FFFBFB;}
	.st13{fill:#090506;}
	.st14{fill:#FFF9FB;}
	.st15{fill:#222224;}
	.st16{fill:#080405;}
	.st17{fill:#1F1D1E;}
	.st18{fill:#080506;}
	.st19{fill:#1F1F1F;}
	.st20{fill:#1A1A1A;}
	.st21{fill:#201F1F;}
	.st22{fill:#201F20;}
	.st23{fill:#5F5F5F;}
	.st24{fill:#D2B26B;}
</style>
<g>
	<g>
		<ellipse transform="matrix(0.7071 -0.7071 0.7071 0.7071 -165.6853 400.0004)" class="st0" cx="400" cy="400" rx="350" ry="350"/>
		<ellipse class="st1" cx="399.5" cy="400.3" rx="329.9" ry="330.5"/>
		<ellipse class="st0" cx="400.5" cy="400.3" rx="321.8" ry="321.6"/>
		<ellipse class="st1" cx="399.8" cy="400.6" rx="204.2" ry="204.6"/>
	</g>
	<g>
		<ellipse class="st2" cx="399.8" cy="400.5" rx="195.6" ry="196.5"/>
		<path class="st3" d="M510.1,455.1c8.8-5,11.4-9,11.4-9s1.7-23.1,42.4-26.1c17.2-1.3,22.5,14.6,22.5,14.6s-0.1,46.3,0,72.6
			c-86,59.8-171.9,21-183.5,35.5c-11.6,14.5-90.2,36-108.7,36.4c-18.5,0.4-32.1-13.9-32.1-13.9s1.8-25,0-39.8
			c-1.8-14.8-24.8-38.4-18.7-49.3c17.7-19,97.6-23,137.9-21.4C421.6,456.4,501.3,460.6,510.1,455.1z"/>
		<rect x="397" y="298.2" class="st4" width="71" height="139"/>
		<g>
			<g>
				<path class="st1" d="M528.2,391.5c0.6,0,1.3,0.2,1.8,0.7c1,1,1,2.6,0,3.6l-39.3,40.4c-0.5,0.5-1.2,0.8-1.8,0.8
					c-0.6,0-1.3-0.2-1.8-0.7c-1-1-1-2.6,0-3.6l39.3-40.4C526.9,391.7,527.6,391.5,528.2,391.5 M528.2,384.2L528.2,384.2
					c-2.6,0-5.2,1.1-7,3l-39.3,40.4c-1.8,1.9-2.8,4.4-2.8,7c0,2.6,1.1,5.1,3,6.9c1.8,1.8,4.3,2.8,6.9,2.8c2.6,0,5.2-1.1,7-3
					l39.3-40.4c1.8-1.9,2.8-4.4,2.8-7c0-2.6-1.1-5.1-3-6.9C533.2,385.2,530.8,384.2,528.2,384.2L528.2,384.2z"/>
				<path class="st1" d="M458.6,383.6c0.6,0,1.3,0.2,1.8,0.7c1,1,1,2.6,0,3.6l-39.3,40.4c-0.5,0.5-1.2,0.8-1.8,0.8
					c-0.6,0-1.3-0.2-1.8-0.7c-1-1-1-2.6,0-3.6l39.3-40.4C457.3,383.9,457.9,383.6,458.6,383.6 M458.6,376.4
					C458.6,376.4,458.6,376.4,458.6,376.4c-2.6,0-5.2,1.1-7,3l-39.3,40.4c-1.8,1.9-2.8,4.4-2.8,7c0,2.6,0.3,5.6,2.2,7.4
					c1.8,1.8,5,2.3,7.6,2.3c2.6,0,5.2-1.1,7-3l39.3-40.4c1.8-1.9,2.8-4.4,2.8-7c0-2.6-1.1-5.1-3-6.9
					C463.6,377.4,461.2,376.4,458.6,376.4L458.6,376.4z"/>
				<path class="st1" d="M453.4,377.2c0.7,0,1.3,0.2,1.8,0.7c1,1,1,2.6,0,3.6l-46.7,47.6c-0.5,0.5-1.2,0.8-1.8,0.8
					c-0.7,0-1.3-0.2-1.8-0.7c-1-1-1-2.6,0-3.6l46.6-47.6C452.1,377.5,452.8,377.2,453.4,377.2 M453.4,370
					C453.4,370,453.4,370,453.4,370c-2.7,0-5.1,1-7,2.9l-46.7,47.6c-3.8,3.9-3.7,10.1,0.1,13.9c1.9,1.8,4.3,2.8,6.9,2.8
					c2.7,0,5.1-1,7-2.9l46.7-47.6c3.8-3.9,3.7-10.1-0.1-13.9C458.5,371,456,370,453.4,370L453.4,370z"/>
				<path class="st1" d="M445.7,351.5c0.6,0,1.3,0.2,1.8,0.7c1,1,1,2.6,0,3.6l-46.7,47.6c-0.5,0.5-1.2,0.8-1.8,0.8
					c-0.6,0-1.3-0.2-1.8-0.7c-1-1-1-2.6,0-3.6l46.6-47.6C444.4,351.7,445,351.5,445.7,351.5 M445.7,344.2
					C445.7,344.2,445.7,344.2,445.7,344.2c-2.7,0-5.2,1-7,3L392,394.8c-3.8,3.9-3.7,10.1,0.1,13.9c1.8,1.8,4.3,2.8,6.9,2.8
					c2.7,0,5.1-1,7-2.9l46.6-47.6c3.8-3.9,3.7-10.1-0.1-13.9C450.7,345.2,448.3,344.2,445.7,344.2L445.7,344.2z"/>
				<path class="st1" d="M440.9,345.6c0.6,0,1.3,0.2,1.8,0.7c1,1,1,2.6,0,3.6l-46.7,47.6c-0.5,0.5-1.2,0.8-1.8,0.8
					c-0.6,0-1.3-0.2-1.8-0.7c-1-1-1-2.6,0-3.6l46.6-47.6C439.6,345.8,440.3,345.6,440.9,345.6 M440.9,338.3
					C440.9,338.3,440.9,338.3,440.9,338.3c-2.7,0-5.2,1-7,2.9l-46.6,47.6c-3.8,3.9-3.7,10.1,0.1,13.9c1.8,1.8,4.3,2.8,6.9,2.8
					c2.7,0,5.1-1,7-2.9l46.7-47.6c3.8-3.9,3.7-10.1-0.1-13.9C446,339.3,443.5,338.3,440.9,338.3L440.9,338.3z"/>
				<path class="st1" d="M429.4,323.6c0.6,0,1.3,0.2,1.8,0.7c1,1,1,2.6,0,3.6l-46.6,47.6c-0.5,0.5-1.2,0.8-1.8,0.8
					c-0.6,0-1.3-0.2-1.8-0.7c-1-1-1-2.6,0-3.6l46.7-47.6C428,323.9,428.7,323.6,429.4,323.6 M429.4,316.4
					C429.4,316.4,429.4,316.4,429.4,316.4c-2.7,0-5.2,1-7,2.9l-46.6,47.6c-1.8,1.9-2.8,4.4-2.8,7c0,2.6,1.1,5.1,2.9,6.9
					c1.8,1.8,4.3,2.8,6.9,2.8c2.7,0,5.2-1,7-2.9l46.7-47.6c3.8-3.9,3.7-10.1-0.1-13.9C434.4,317.4,431.9,316.4,429.4,316.4
					L429.4,316.4z"/>
				<path class="st1" d="M425.7,316.2c0.6,0,1.3,0.2,1.8,0.7c1,1,1,2.6,0,3.6l-46.7,47.6c-0.5,0.5-1.2,0.8-1.8,0.8
					c-0.6,0-1.3-0.2-1.8-0.7c-1-1-1-2.6,0-3.6l46.6-47.6C424.4,316.4,425.1,316.2,425.7,316.2 M425.7,308.9L425.7,308.9
					c-2.7,0-5.2,1-7,2.9l-46.6,47.6c-1.8,1.9-2.8,4.4-2.8,7c0,2.6,1.1,5.1,2.9,6.9c1.8,1.8,4.3,2.8,6.9,2.8c2.7,0,5.1-1,7-2.9
					l46.7-47.6c3.8-3.9,3.7-10.1-0.1-13.9C430.8,309.9,428.3,308.9,425.7,308.9L425.7,308.9z"/>
				<path class="st1" d="M427.2,281.5c0.6,0,1.3,0.2,1.8,0.7c1,1,1,2.6,0,3.6l-46.6,47.6c-0.5,0.5-1.2,0.8-1.8,0.8
					c-0.6,0-1.3-0.2-1.8-0.7c-1-1-1-2.6,0-3.6l46.7-47.6C425.9,281.7,426.5,281.5,427.2,281.5 M427.2,274.2
					C427.2,274.2,427.2,274.2,427.2,274.2c-2.7,0-5.1,1-7,2.9l-46.7,47.6c-1.8,1.9-2.8,4.4-2.8,7c0,2.6,1.1,5.1,2.9,6.9
					c1.8,1.8,4.3,2.8,6.9,2.8c2.7,0,5.1-1,7-2.9l46.7-47.6c3.8-3.9,3.7-10.1-0.1-13.9C432.2,275.2,429.8,274.2,427.2,274.2
					L427.2,274.2z"/>
			</g>
			<g>
				<path class="st3" d="M488.9,437c-0.6,0-1.3-0.2-1.8-0.7c-1-1-1-2.6,0-3.6l39.3-40.4c1-1,2.6-1,3.6,0c1,1,1,2.6,0,3.6l-39.3,40.4
					C490.3,436.7,489.6,437,488.9,437z"/>
				<path class="st3" d="M419.3,429.2c-0.6,0-1.3-0.2-1.8-0.7c-1-1-1-2.6,0-3.6l39.3-40.4c1-1,2.6-1,3.6,0c1,1,1,2.6,0,3.6
					l-39.3,40.4C420.6,428.9,420,429.2,419.3,429.2z"/>
				<path class="st3" d="M406.8,430c-0.7,0-1.3-0.2-1.8-0.7c-1-1-1-2.6,0-3.6l46.6-47.6c1-1,2.6-1,3.6,0c1,1,1,2.6,0,3.6l-46.7,47.6
					C408.1,429.7,407.5,430,406.8,430z"/>
				<path class="st3" d="M399,404.2c-0.6,0-1.3-0.2-1.8-0.7c-1-1-1-2.6,0-3.6l46.6-47.6c1-1,2.6-1,3.6,0c1,1,1,2.6,0,3.6l-46.7,47.6
					C400.4,404,399.7,404.2,399,404.2z"/>
				<path class="st3" d="M394.3,398.3c-0.6,0-1.3-0.2-1.8-0.7c-1-1-1-2.6,0-3.6l46.6-47.6c1-1,2.6-1,3.6,0c1,1,1,2.6,0,3.6
					l-46.7,47.6C395.6,398.1,394.9,398.3,394.3,398.3z"/>
				<path class="st3" d="M382.7,376.4c-0.6,0-1.3-0.2-1.8-0.7c-1-1-1-2.6,0-3.6l46.7-47.6c1-1,2.6-1,3.6,0c1,1,1,2.6,0,3.6
					l-46.6,47.6C384,376.2,383.4,376.4,382.7,376.4z"/>
				<path class="st3" d="M379.1,368.9c-0.6,0-1.3-0.2-1.8-0.7c-1-1-1-2.6,0-3.6l46.6-47.6c1-1,2.6-1,3.6,0c1,1,1,2.6,0,3.6
					l-46.7,47.6C380.4,368.7,379.7,368.9,379.1,368.9z"/>
				<path class="st3" d="M380.5,334.2c-0.6,0-1.3-0.2-1.8-0.7c-1-1-1-2.6,0-3.6l46.7-47.6c1-1,2.6-1,3.6,0c1,1,1,2.6,0,3.6
					l-46.6,47.6C381.9,334,381.2,334.2,380.5,334.2z"/>
			</g>
		</g>
		<path class="st1" d="M238.1,322.8c9-5.2,107.6-61.9,107.6-61.9l59,31.8l-0.4,141.9l54.4,2.7l-0.1-7.3l10.9,1.4l0,20.5
			c0,0,27.3,2.6,45.2,2.6c39.7,0,67.2-10.9,67-23c-0.1-9-14.5-11.5-14.5-11.5s16.6,0.8,16.6,11.4c0,3.1-1.5,6.9-4.3,10.6
			c-7.7,10.2-28.9,20.3-84.6,20.4c-20.5,0-60.4-3.3-108.6-3.3c-68.2-0.1-128.5,7.2-137.4,21.9c24.6,49.1,13.5,81.3,13.5,81.3
			s-5-45-25.4-78.5c-7.6-4.1-14.8-15.1-14.8-23.6c0-8.4,0-91.9,0-108.1C222.1,335.4,229.1,328,238.1,322.8z"/>
		<path class="st3" d="M232.9,459.9c12.2-10.9,44.4-13.3,44.4-13.3l-11.4-3.6l0-85.5l33.3-17.9l0.8,105.3c0,0,11.9-1.6,39.7-1.4
			V276.9c0,0-89.2,51.2-95.6,55.1c-6.5,3.9-11.2,8.6-11.2,16.2C232.9,355.8,232.9,459.9,232.9,459.9z"/>
		<polygon class="st2" points="276.5,364 288.6,357.5 289.1,438.7 276.5,435 		"/>
		<path class="st3" d="M352,276.9l36.4,18.3V438l70.1,0v12.6c-44.1-5.7-106.5-7-106.5-7V276.9z"/>
		<g>
			<path class="st1" d="M503.9,382.4c0.6,0,1.3,0.2,1.8,0.7c1,1,1,2.6,0,3.6l-39.3,40.4c-0.5,0.5-1.2,0.8-1.8,0.8
				c-0.6,0-1.3-0.2-1.8-0.7c-1-1-1-2.6,0-3.6l39.3-40.4C502.6,382.6,503.3,382.4,503.9,382.4 M503.9,375.1c-2.6,0-5.2,1.1-7,3
				l-39.3,40.4c-1.8,1.9-2.8,4.4-2.8,7c0,2.6,1.1,5.1,3,6.9c1.8,1.8,4.3,2.8,6.9,2.8c2.6,0,5.2-1.1,7-3l39.3-40.4
				c1.8-1.9,2.8-4.4,2.8-7c0-2.6-1.1-5.1-3-6.9C509,376.1,506.5,375.1,503.9,375.1L503.9,375.1z"/>
			<path class="st1" d="M485.8,389.7c0.6,0,1.3,0.2,1.8,0.7c1,1,1,2.6,0,3.6l-39.3,40.4c-0.5,0.5-1.2,0.8-1.8,0.8
				c-0.6,0-1.3-0.2-1.8-0.7c-1-1-1-2.6,0-3.6l39.3-40.4C484.5,390,485.1,389.7,485.8,389.7 M485.8,382.4c-2.6,0-5.2,1.1-7,3
				l-39.3,40.4c-1.8,1.9-2.8,4.4-2.8,7c0,2.6,1.1,5.1,3,6.9c1.8,1.8,4.3,2.8,6.9,2.8c2.6,0,5.2-1.1,7-3l1.9-1.9l2.5,0l0-2.6
				l34.9-35.9c1.8-1.9,2.8-4.4,2.8-7c0-2.6-1.1-5.1-3-6.9C490.8,383.4,488.4,382.4,485.8,382.4L485.8,382.4z"/>
			<path class="st3" d="M464.6,427.9c-0.6,0-1.3-0.2-1.8-0.7c-1-1-1-2.6,0-3.6l39.3-40.4c1-1,2.6-1,3.6,0c1,1,1,2.6,0,3.6
				l-39.3,40.4C466,427.7,465.3,427.9,464.6,427.9z"/>
			<path class="st3" d="M446.5,435.2c-0.6,0-1.3-0.2-1.8-0.7c-1-1-1-2.6,0-3.6l39.3-40.4c1-1,2.6-1,3.6,0c1,1,1,2.6,0,3.6
				l-39.3,40.4C447.8,435,447.2,435.2,446.5,435.2z"/>
		</g>
		<path class="st1" d="M586.7,507.3c0,0-50.7,32.1-133.8,32.1c-31.3,0-59.5-5.8-93.5-5.8c-38.3,0-63.5,7.1-76.3,15.9
			c-7.6,5.2-13.6,11.9-13.6,19.4c0,8.6,13,11.6,26.3,11.6c11.3,0,47.7-3.2,95-30.3c-50,18.2-79.6,19.7-89.2,19.6
			c-9.7-0.1-17.2-1-17.3-4.4c0-3.1,10.2-11.3,29-14.9c12.5-2.4,29.2-3.4,50.1-3.3c10.8,0,64.7,1.7,75.4,1.7
			C519.6,548.8,577.3,521.6,586.7,507.3z"/>
		<ellipse class="st5" cx="498.9" cy="316.3" rx="91.2" ry="91.4"/>
		<g>
			<ellipse class="st6" cx="498.7" cy="316.3" rx="85.3" ry="85.7"/>
			<ellipse class="st7" cx="499.6" cy="316.4" rx="84.1" ry="84.2"/>
			<path class="st8" d="M452.3,259.9c0,0,17.6,7.1,21.4,9.3c3.8,2.3,10.7,1.2,13.7,0.5c3-0.7,18.8-4.7,22.9-5.6
				c6-1.3,14.6-13.8,14.6-13.8l-6.8,19.3l-36.4,8.2L452.3,259.9z"/>
			<path class="st8" d="M541,305.5c-0.3-0.6-19.4,22.1-20.3,23.1c-0.9,1-2,2.8-1.6,4.1c0.4,1.2,1.6,5.3,1.6,5.3s0-2.9,0-4.8
				c0-1.8,0.2-2.6,2.2-4.2C524.9,327.3,541.7,306.7,541,305.5z"/>
			<path class="st8" d="M570.9,344.4c0.7,0.1,7.6-10.5,8.1-13.4c0.5-2.9-1.8-19.9-1.8-19.9s-11.9-2.7-20.8-4.4
				c12.6,7.7,13,9.8,13.8,11.6c0.8,1.8,1.1,2.4,2.2,4.8C573.5,325.6,575.2,333.5,570.9,344.4z"/>
			<path class="st8" d="M522.4,347.3c-0.2-1.9,1.7-3.7,3.2-1.3c1.5,2.5,3.4,4.4,4.5,5.5c1.1,1.1,9.5,8,14.9,8.2
				c8.1,0.3,16.3-7.4,18.1-8.8c1.8-1.4,5.5-2.2,4.2,0.7c-1.4,3-6.9,11-9,13.3c-7.6,8.3-14.7,8.3-20,8.3c-5.7,0-8.5-1.2-10.9-1.6
				c-2.4-0.4-3-2.3-3.1-3.7C524.2,366.5,522.5,349.2,522.4,347.3z"/>
			<path class="st9" d="M579,332.9c1.3,15.9-21,40.2-23.4,42c-2.4,1.8-4.2,3.7-5.6,5.6c-0.9,1.1-3.5,4.5-5.3,7
				c12.5-8,22.8-19.1,29.6-32.3l0.5-1c3.4-6.7,5.9-13.9,7.4-21.5C581,332,579.7,331.7,579,332.9z"/>
			<path class="st8" d="M449.3,339.1c2.3-1.4,21.3-12.7,23.1-13.8c3.5-2,4.9-2.5,7.9-1.1c3.3,1.6,24,9.3,26.3,10.4
				c2.2,1.1,4.9,1.6,6.2,9.1c1.3,7.6,3.6,22.2,4.2,25.1c0.6,3,0.4,5.5-4.7,9.2c-5.1,3.6-13.3,7.4-15.8,8.5
				c-2.5,1.1-3.7,2.7-10.1,0.9c-3-0.8-8.7-2-13.9-4c-6.1-2.4-11.8-5.7-13.9-7.6c-4-3.7-5.8-7-7.2-9.5c-1.3-2.5-4.7-14.5-5.6-19.1
				C444.8,342.7,447,340.5,449.3,339.1z"/>
			<path class="st8" d="M499.6,400.6c1.7,0,3.4-0.1,5.1-0.2c-2.5-1.7-7.8-3.7-9.1-4.6c-1.9-1.4-3-1.3-4.5-1.1
				c-0.7,0.1-12.8-0.8-22.8-5.1c-10.6-4.6-18.2-11-18.8-11.6c-1-0.9-1.8-1.9-4.1-2.1c-1.2-0.1-3.9-0.3-5.9-0.5
				C454.9,390.9,476.1,400.6,499.6,400.6z"/>
			<path class="st8" d="M465,313.7c-3-0.5-16.5-2.2-25.3-4.2c-8.8-2-15.3-7.5-17-9.3c-0.9-0.9-2.8-3.1-4.6-4.4
				c-1.7,6.6-2.6,13.6-2.6,20.7c0,4.1,0.3,8.1,0.9,12.1c1.5-1.6,3.2-4.1,3.7-5.4c1-2.5,3-1.5,3.9-0.4c4.8,6.8,11.7,10.2,14.6,11.6
				c2.9,1.4,3.9,1.2,5.4-0.1c1.4-1.2,20.9-14.7,22.9-16.2C469,316.6,468.1,314.1,465,313.7z"/>
			<path class="st8" d="M532.4,238.8c-1.1,1.8-2.6,4.3-3.2,5.5c-1,2-0.5,2.9,3.7,3.1c4.2,0.3,15.2,2.7,26.7,17.3
				c11.6,14.6,14.2,16.5,19.3,36c0.9,3.5,2.2,2.3,3.3-0.1C577,272.6,557.9,249.6,532.4,238.8z"/>
			<path class="st8" d="M447.9,250c1.3,1.4,2.6,3,3.7,4.2c3.1,3.5,4.7,1.3,5.5,0c0.8-1.3,8.1-10.1,10.3-10.6
				c2.1-0.5,9.4-2.3,12.1-2.2c2.7,0,17.2-2.4,27.5-1.1c10.2,1.3,13.6,3.8,16,5.2c2.4,1.3,3.3-1.2,3.2-2.7c0-0.9-0.7-4.1-1.2-6.7
				c-8-2.5-16.5-3.9-25.4-3.9C480.1,232.1,462.2,238.8,447.9,250z"/>
			<path class="st10" d="M420.6,322.2c-1.5-12.1,1.3-38,14.1-54.2c15.7-19.9,35.6-34.4,71.8-34.4c-20.9-0.8-36,3.7-48.7,10.6
				c-19.9,10.7-30.7,27.5-35.1,44.2C419.1,301.8,419.1,314.5,420.6,322.2z"/>
			<path class="st11" d="M419.7,329.1c0.4-3.5,3.6-4,4.8-2c1.2,1.9,9.9,9.2,15.3,12.1c1.7,0.9,2.4,2.4,2.4,4.1
				c-0.4,9.8,6.8,26,7.6,27.3c0.8,1.3,1.3,5.3-3.3,4.5c-4.5-0.8-9.4-1.3-10.7-1.9c-3.2-1.6-17-25.8-16.9-30.2
				C419.1,338.5,419.2,332.6,419.7,329.1z"/>
			<path class="st12" d="M437.9,342.6c0.6-0.3,1.9,9.7,3,14.9c1.2,5.2,5.2,13.9,4.7,14c-0.4,0.1-4.9-6.7-6.2-12.8
				C438.1,352.7,437.3,342.9,437.9,342.6z"/>
			<path class="st13" d="M497.1,389.9c10.8-3.9,20.7-12.2,22.3-14.2c1.6-2,2.8-2.3,5.1-1c6.6,3.6,18.3,2.1,20.2,1.7
				c5.4-1,4.7,2,3.2,4.2c-1.5,2.3-8.3,9.5-9.2,10.7c-0.9,1.2-19.4,7.8-22.6,8.1c-5.1,0.4-18.2-4.2-19.6-4.9
				C495.5,394,493.8,391.1,497.1,389.9z"/>
			<path class="st14" d="M500.7,392.6c-0.1-0.5,13.1-4.4,21.4-15.1c13.5,4.3,24.9,1.1,24.9,1.4c0,0.3-10.9,4.7-24.2,0.6
				C513.4,390.6,500.8,393.1,500.7,392.6z"/>
			<path class="st10" d="M451.3,375.9c0,0,16.8,12.4,42.1,16.6C467.7,391.9,451.3,375.9,451.3,375.9z"/>
			<path class="st15" d="M551.8,375.6c21.4-20,26.8-40.9,26.8-40.9l1.4,0.7C579.9,335.4,572.3,359.5,551.8,375.6z"/>
			<path class="st16" d="M580.8,337.4c0,0-2.1,0.8-2.8,0.5c-0.7-0.4-0.3-1.1-0.5-2.6c-0.2-1.5,2-11.6-2.7-23.8
				c-0.3-0.7-0.8-1.8-0.8-2.8c0-0.9,0.5-1.5,0.8-2c5.4-9.5,3.3-21.6,3.3-21.6s5.7,18.3,5.9,30.2
				C584.1,328.6,580.8,337.4,580.8,337.4z"/>
			<path class="st17" d="M577.7,290.3c-7.8-28.8-34.5-46.1-34.5-46.1l-4.6-0.6C538.5,243.6,566.9,258.7,577.7,290.3z"/>
			<path class="st11" d="M528,242.5c-7.4-7.7-23.2-10.2-23.2-10.2c25.8,1.3,42,14.4,42,14.4S534.9,241.2,528,242.5z"/>
			<path class="st11" d="M455.4,244.4c0,0,0.8,0.6,1.2,0.9c0.4,0.4,0.8,1.2,0,2c-0.8,0.8-4.2,6.3-5.3,9.6c-0.1,0.3-0.6,1.4-1.1,1.8
				c-0.3,0.3-2.1,1.1-2.5,1.2c-4.2,1.5-11.9,8.8-18.9,18.2c-1.3,1.8-2.8,1-2.8,0.5c0-0.6,0-5.4,0-5.4s6.4-9.2,13.2-15.5
				C445.9,251.5,453.1,245.5,455.4,244.4z"/>
			<path class="st18" d="M510,267c-4.7,1.2-19.4,5-22.7,5.9c-3.3,0.9-9.8,4.2-10.2,10.6c-0.4,6.4-1,14.8-1.2,23.3
				c-0.2,8.5,3,13,6.8,14.5c3.8,1.5,19,7.4,23.8,9.3c4.8,1.9,10.7,0.4,12.5-1.8c1.8-2.2,18.1-21.9,19.5-23.8
				c1.4-1.9,0.8-8.8-0.7-11.2c-1.5-2.3-10.3-16.3-13.5-21.2C521.3,267.7,514.7,265.8,510,267z"/>
			<polygon class="st19" points="524.9,250.4 516.8,268.7 519.4,269.6 			"/>
			<polygon class="st20" points="537.6,298.2 560.7,304.6 537.6,301 			"/>
			<polygon class="st21" points="450.9,259 482.3,276.4 480.6,278.3 			"/>
			<polygon class="st22" points="477.8,313.7 441.7,340 480.3,317.2 			"/>
			<polygon class="st19" points="521.1,373.3 512.7,329.7 516.9,328.6 			"/>
			<path class="st23" d="M484.7,285.2c0,0-1.5,17.9,12,16.1c17-2.2,27.5-11.6,34.1-11.5c0,0,3.6,6,4.4,7.4c0.8,1.4,1.6,4.5,0,6.5
				c-1.6,2-15.7,20.5-17.6,22.2c-2,1.6-5,3.5-8.9,1.4c-3.9-2.1-18.9-9.2-23.5-10.2c-3-0.6-3-3.2-2.8-5
				C482.5,310.2,484.7,285.2,484.7,285.2z"/>
			<path class="st7" d="M514.6,270.9c-14.4,1.1-25.6,4.9-28.8,6c-3.6,1.2-5.1,3-5.5,5c-0.4,2-1.3,29.8-0.5,31
				c1.4-4.6,1.9-25.3,1.7-27.2c-0.5-4.3-0.1-6.1,5.8-8.1C489.7,276.8,501.2,273.4,514.6,270.9z"/>
		</g>
	</g>
	<g>
		<path class="st1" d="M155.1,298l-7.4-4l10-18.6c-5.4-3.3-9.4-5.6-11.8-6.9l4.3-8c1.2,0.6,3.2,1.8,5.9,3.4c2.8,1.5,4.8,2.7,5.9,3.4
			l10.3-19l7.4,4l-10.1,18.8c11.7,3.6,22.1,0.5,31.5-9.1c0.6,1.7,1.8,4.4,3.6,8.1c-0.3-0.5-0.1-0.1,0.5,1c-9.1,7.6-18.5,10.6-28.3,9
			c6.1,6.2,8.9,16,8.4,29.3c-4,0.4-7.1,0.9-9.3,1.4c1.7-14.6-2-24.9-11.1-31L155.1,298z"/>
		<path class="st1" d="M214.7,257.4l-8.8-4.2c0.1-2.5,0.2-4.9,0.4-7.2l-9.9-9.6l-3.6,3.8l-5.7-5.5l9.5-9.8l15.2,14.8
			c4.3,1,8.3-0.4,12.1-4.1c3.7-3.6,10.6-10.9,20.9-21.9c0.1,0.3,0.3,0.7,0.7,1.3c1.3,2.3,2.4,4.2,3.3,5.7
			c-5.7,5.9-12.7,12.9-21,21.1c-4.4,4.4-8.9,6.3-13.4,5.7c-0.1,0.8-0.1,1.8,0,3.2C214.3,254.1,214.5,256.4,214.7,257.4z
			 M190.8,226.2c-1.8-0.5-4.5-1.1-8.2-1.9c-2.2-0.5-4-0.9-5.1-1.2l2.2-7.4c5,0.7,9.4,1.4,13.1,2.3L190.8,226.2z M194.8,218.9l-5.2-5
			l5.8-6.1c-0.3-1-0.9-2.3-1.6-4.1c-0.3-1-0.6-1.6-0.8-2.1l6.8-5.8c0.4,0.9,0.9,2.2,1.5,4c0.2,0.6,0.4,1.1,0.5,1.4l13.7-14.2l5.2,5
			l-16.3,16.9c1,2.9,1.9,5.6,2.7,8.3l4.4-4.6l-4.2-4.1l5.7-5.9l4.2,4.1l7.9-8.2l5,4.9l-7.9,8.2l3.4,3.3l9.3-9.7l5.2,5l-9.3,9.7
			l3.1,3l-5.7,5.9l-3.1-3L213.4,238l-5.2-5l11.7-12.1l-3.4-3.3l-10.6,11l-5.2-5c-0.2-1.1-0.8-2.9-1.7-5.4c-0.3-1.2-0.6-2.1-0.8-2.7
			L194.8,218.9z"/>
		<path class="st1" d="M240,183.8l-3-5.1l2.9-1.7c-1.9-0.5-3.6-0.9-5.3-1.3c1.5-4,1.7-7.8,0.7-11.2l6.7-3.7c0.1,0.1,0.1,0.4,0.2,0.7
			c0.3,1.4,0.4,2.4,0.2,3l13.2-7.9l3,5.1l-6.4,3.8c0.7,1.2,1.2,2.2,1.6,3.2l7.8-4.6l3,5.1l-7.8,4.6c2.9-0.1,6.3-0.2,10.1-0.2
			l-0.5,5.3l20.2-12l13.2,22.3l-7,4.2l-1.2-1.9l-23.7,14.1l1.2,1.9l-7,4.2l-12-20.2c0,0.3-0.1,0.6-0.4,0.7c-1.1-0.6-2.8-1.3-5.2-2.2
			c-0.8-0.2-1.5-0.4-2-0.7c3.9-4.6,5.9-8.2,6-10.7L240,183.8z M242.5,171.3c-0.1,1.3-0.4,2.9-0.9,4.7l5.8-3.5
			c-0.5-0.9-1.2-1.9-1.8-3.1L242.5,171.3z M263.9,180.4c-1-0.1-2.3-0.2-4.1-0.2c-1.8-0.1-3.3-0.2-4.3-0.1c-0.2,2-1,4.3-2.6,6.8
			L263.9,180.4z M259.2,190.5l1.6,2.7l23.7-14.1l-1.6-2.7L259.2,190.5z M263.5,197.7l1.7,2.9l23.7-14.1l-1.7-2.9L263.5,197.7z
			 M269.4,174l-11.3-19l18.7-11.1l11.3,19L269.4,174z M267.6,156.9l4.7,8l6.2-3.7l-4.7-8L267.6,156.9z"/>
		<path class="st1" d="M310.6,168.7c-1.5-2.7-3-5.1-4.5-7.2c3.9-5.9,7.3-12.4,10.2-19.3l7.4,2.9c-1.2,2.7-2.3,5.4-3.5,8l7,26.3
			l-7.9,2.2l-4.9-18.4c-0.2,0.4-0.6,1-1.2,1.7C312.8,165.5,312,166.8,310.6,168.7z M307.2,149.9c-0.7-0.8-1.7-2.1-3.2-4.1
			c-1-1.4-1.7-2.4-2.2-2.9c4-5.2,7.1-10.4,9.5-15.6l7.9,3C315.9,137.2,311.9,143.7,307.2,149.9z M326.3,152.4l-2.1-7.9l32-8.8
			l2.1,7.9l-7.7,2.1l4.1,15.3c1.7,6-0.3,9.7-6.2,11.3c-2.9,0.9-6.4,2-10.5,3.1c-0.1-0.3-0.3-0.8-0.6-1.5c-1.1-2.5-2.1-4.4-2.9-5.6
			c1.6-0.3,4.4-1,8.4-2.1c2.8-0.6,3.8-2.2,3-4.8l-3.6-13.6L326.3,152.4z M324.1,135.6l-2.1-7.7l27.9-7.7l2.1,7.7L324.1,135.6z"/>
		<path class="st1" d="M379.7,138.4L380,116l43.2,0.6l-0.3,22.4l-16.8-0.2l-0.1,6.6l19,0.3l-0.1,7.3l-19-0.3l-0.1,7.1
			c3.6,0.2,10.9,0.4,21.9,0.5c-0.2,0.8-0.6,2-1.2,3.6c-0.5,1.7-0.9,2.9-1.2,3.6c-8.2-0.1-16.3-0.4-24.2-0.8
			c-7.6-0.3-12.8-2.5-15.6-6.8c-1.7,3-4,6-6.8,9c-0.7-1.1-2.2-2.9-4.4-5.5c-0.6-0.5-1-0.9-1.1-1.2c5.4-4.3,8.3-11.3,8.6-20.9l8,1.2
			c-0.2,0.9-0.3,2.1-0.5,3.6c-0.3,2.1-0.6,3.6-0.7,4.6c2,4.4,4.9,7.1,8.6,8.1l0.3-20.3L379.7,138.4z M388.4,123.5l-0.1,7.8l26.2,0.4
			l0.1-7.8L388.4,123.5z"/>
		<path class="st1" d="M448.6,127.8l2-7.3l17.5,4.9l-2,7.3l-4.9-1.4l-3,10.6l4.4,1.2l-2,7.3l-4.4-1.2l-3.2,11.5l5,0.7
			c-0.7,2.6-1.4,5.1-2,7.3c-1.8-0.2-4.8-0.5-8.8-0.8c-4-0.5-7-0.9-9-1.1l0.8-8.1c2.1,0.3,4.2,0.6,6.2,1l3.5-12.6l-4.6-1.3l2-7.3
			l4.6,1.3l3-10.6L448.6,127.8z M487.4,178.8c-3.8-5.8-6-11.9-6.8-18.3l-3.2,11.5c-1.3,5.2-4.6,7-9.9,5.5c-0.3-0.1-1-0.3-2-0.6
			c-2.1-0.4-3.7-0.8-4.9-1.1c0.2-2,0.4-4.4,0.4-7.3c2.1,0.6,3.8,1.1,5.3,1.5c2.2,0.8,3.5,0,4-2.4l1.5-5.3l-12.5,4.8l-0.7-8.5
			c6.3-1.6,11.5-3,15.5-4.2l3.5-12.6l-12.2-3.4l2-7l12.2,3.4l2.5-8.8l7.7,2.2l-2.5,8.8l6,1.7c-0.4-0.9-1-2.3-1.9-4.1
			c-0.5-1.2-0.8-2.1-1.1-2.7l6-1.9l4.1,7.6l-4.8,1.7l6,1.7l-2,7l-14.1-4l-0.1,0.2c-0.1,3.3,0,6.3,0.4,8.9c2.8-1.6,5.5-3.4,7.9-5.4
			l4.7,6.3c-3.8,2.1-7.4,4.2-11,6.2c1.2,4.1,3.3,8.3,6.3,12.5C492.1,173.9,490.1,176,487.4,178.8z M466,154.1c-1-5-1.8-8.8-2.5-11.4
			l6.8-1.2c1,3.3,2,6.9,3.1,10.9L466,154.1z"/>
		<path class="st1" d="M501.3,189.7l13.2-21.2c-2.3,1.2-4.7,2.3-7.1,3.2c0.3-0.5,0.7-1.3,1.2-2.4c1.5-3.3,2.7-5.9,3.6-7.8
			c7.5-4.3,14.3-9.4,20.5-15.3l5.7,5.9c-2.7,2.6-5.7,5-9.1,7.3l-21.4,34.3L501.3,189.7z M514.8,185.6l3.5-5.5l3.1,1.9l18.1-29
			l27.9,17.4l-18.1,29l3.3,2L549,207l-11-6.8c0.9,1.1,2.1,2.7,3.6,4.9c2.1,2.7,3.7,4.7,4.8,5.9l-6.2,3.5c-2.3-3.7-5.4-8.2-9.2-13.5
			l5.1-2.1l-8.8-5.5l0.9,5.9c-5.9-0.5-11.4-1.4-16.5-2.6l0.6-7c3.5,1.3,8,2.3,13.6,3L514.8,185.6z M542.9,162.4l-1.8,2.9l14.4,9
			l1.8-2.9L542.9,162.4z M538.5,169.4l-1.8,2.9l14.4,9l1.8-2.9L538.5,169.4z M534.2,176.3l-1.8,2.9l14.4,9l1.8-2.9L534.2,176.3z
			 M529.8,183.4l-1.8,2.9l14.4,9l1.8-2.9L529.8,183.4z"/>
		<path class="st1" d="M556.2,224.3c-0.1-3.4-0.3-6.3-0.8-8.5c4.5,0.2,10.9-0.3,19.3-1.4l1.6,8.4
			C567.3,223.9,560.6,224.4,556.2,224.3z M569.4,207.2l21.9-16.1c10.3,10.7,20.3,20.5,30.1,29.4l-4,7.4
			c-7.5-7.1-16.3-15.6-26.4-25.7l-9.3,7l8,8.7l7-6.5l6,6.5l-7,6.5l13.1,14.2l-5.7,5.2L590,229.6l-10.2,9.4c-4.3,4.5-8.5,4.5-12.7,0
			c-1.1-1-3.2-3.1-6.2-6.4c2.2-3,3.8-5.3,4.8-6.9c1.2,1.5,2.8,3.3,4.6,5.3c1.5,1.9,3.2,1.8,5.1-0.1l8.5-7.8L569.4,207.2z
			 M584.3,254.6c1.5-8,2.6-14.3,3.2-19l7.6,1.9c-0.8,6.9-1.6,13.3-2.4,19.2L584.3,254.6z"/>
		<path class="st1" d="M629.7,250.6l6.1-3.1l4.6,8.6c1.4-1.2,2.7-2.5,3.9-3.8l4.8,7.5c-1.5,1.3-3,2.7-4.5,4.1l4.4,8.2l-6.1,3.1
			l-3.3-6.2l1.2,5.5l-7.3-0.6l3.2,6l-6.1,3.1L616,255.8l6.1-3.1l3.1,5.8c1-1.9,2.1-3.9,3-5.9l4.4,3.4L629.7,250.6z M593.5,270.1
			l20.2-10.4l12.4,22.9l-19.8,10.2l-3.5-6.6l2.4-1.2l-5.3-9.8l-2.8,1.5L593.5,270.1z M629.7,266.8c3.3,0.2,6.3,0.2,8.8,0.1l-4.9-9.2
			c-0.9,2.2-1.9,4.3-3,6.4l-3.8-2.7L629.7,266.8z M611.5,269.3l-6.1,3.1l5.3,9.8l6.1-3.1L611.5,269.3z M607.2,297l45.9-23.5l10,18.6
			l-6.5,3.3l-15.1,2.6c-1.4,5-4.5,8.7-9.1,11c-5.9,3.2-10.2,2.3-13.1-2.7c-0.7-1.3-1.5-2.7-2.3-4.2c0.2-0.3,0.7-0.7,1.4-1.2
			c2.1-1.6,3.6-2.8,4.5-3.6l-12.3,6.3L607.2,297z M650.2,283.3l-26.9,13.8c0.4,1.1,1,2.3,1.6,3.5c0.9,2.1,2.6,2.4,4.9,1
			c3.2-1.7,5.8-5,7.7-10.1l15.3-3.2L650.2,283.3z"/>
	</g>
	<g>
		<path class="st1" d="M201.9,542.6l8.2,10.1c6.6,8.2,5.4,18.5-3.7,25.9c-9,7.3-19.9,7.1-26.7-1.3l-8.1-10L201.9,542.6z
			 M176.7,568.1l5.4,6.7c6,7.4,14.3,6.6,21.5,0.7c6.4-5.2,9.6-13.2,3.4-21l-5.4-6.7L176.7,568.1z"/>
		<path class="st1" d="M210.6,592.3l-11.8,6l-2.8-2.7l36.2-18.4l3.4,3.2l-15.8,37.7l-3-2.9L222,603L210.6,592.3z M223.5,599.7
			c4.5-10.6,6.7-15.9,8-18.4l0,0c-2.8,1.6-9,4.8-17.6,9.3L223.5,599.7z"/>
		<path class="st1" d="M250.1,592.2l3.2,2.4l-21,28.1l16.6,12.5l-2.6,2.4l-19.3-14.5L250.1,592.2z"/>
		<path class="st1" d="M276.2,610.2l-20.5,33l-3.3-2l20.5-33L276.2,610.2z"/>
		<path class="st1" d="M276.1,639.7l-9.3,9.3l-3.5-1.7l28.6-28.5l4.3,2l-3.2,40.4l-3.8-1.8l1.1-13.1L276.1,639.7z M290.7,642.7
			c1-11.4,1.4-17.1,1.8-19.9l0,0c-2.1,2.3-7,7.3-13.8,14.2L290.7,642.7z"/>
		<path class="st1" d="M301,665l11.7-36.8l5.2,1.7c2.8,10.5,9.2,34.1,10.1,38.8l0.1,0c1.3-5.2,3.1-10.7,5-16.7l5-15.6l3.7,1.2
			l-11.7,36.8l-4.9-1.6c-2.6-9.9-9-34.7-10.2-39.6l-0.1,0c-1.2,4.6-3,10.4-5.2,17.1l-5.1,16L301,665z"/>
		<path class="st1" d="M354.8,676.2l27.5-29.2l-22.5-2.6l0.4-3.5l27,3.2l-0.4,3.3l-27.2,29l24.1,2.8l-1,3.4l-28.3-3.3L354.8,676.2z"
			/>
		<path class="st1" d="M392.3,644.2l3.9,0l0.1,16.4l21.4-0.2l-0.1-16.4l3.9,0l0.3,38.4l-3.9,0l-0.2-18.5l-21.4,0.2l0.2,18.5l-3.9,0
			L392.3,644.2z"/>
		<path class="st1" d="M433.7,641.5l4.4,38.3l-3.8,0.4l-4.4-38.3L433.7,641.5z"/>
		<path class="st1" d="M471.8,673.2l-14.4-13.9l-0.1,0l-7.1,18.7l-4.4,1l8.5-22l-16.4-15.8l4.5-1l13.6,13.2l0.1,0l7-17.8l4.3-1
			l-8.5,21l17.3,16.5L471.8,673.2z"/>
		<path class="st1" d="M474.9,631.6l12,36.6l-3.7,1.2l-12-36.6L474.9,631.6z"/>
		<path class="st1" d="M499.1,664.4l-15.2-35.5l4.9-2.1c8.8,6.2,28.8,19.9,32.6,22.9l0.1,0c-2.4-4.7-4.7-10.1-7.2-15.9l-6.5-15.1
			l3.5-1.5l15.2,35.5l-4.6,2c-8.3-5.9-29.1-20.5-33.2-23.5l-0.1,0c2.1,4.3,4.5,9.8,7.3,16.3l6.6,15.5L499.1,664.4z"/>
		<path class="st1" d="M564,629.7l-2.6,1.7c-0.5-0.3-1.7-1.8-3.5-4.5c0.2,3.1-0.4,7.8-6.7,11.9c-9.2,6.1-18.7,2.3-24.7-6.8
			c-6.4-9.6-6-20.2,3.5-26.5c7.1-4.7,14.3-4,19.1,1.2l-3.3,2.2c-4-3.3-8.6-4-14.1-0.4c-7.7,5.1-7,13.5-1.9,21.1
			c4.7,7,12.2,11.3,19.7,6.2c7.6-5.1,6.3-11.4,2.1-17.8l-0.2-0.4l-9.7,6.5l-1.9-2.9l12.9-8.6L564,629.7z"/>
		<path class="st1" d="M558.5,584.6l17.3-16.1l2.4,2.6l-14.5,13.5l9.3,10.1l13.6-12.6l2.4,2.6l-13.6,12.6l12.2,13.3l-2.8,2.6
			L558.5,584.6z"/>
		<path class="st1" d="M603.8,594.3l-5.2-5.4l2.7-2.6l5.2,5.4L603.8,594.3z"/>
		<path class="st1" d="M622.6,555.5c4,5.3,5,12-0.2,18.8c-6.9,9.1-17.6,8.4-26.4,1.8c-8.4-6.4-12.5-16.9-5.5-26.1
			c5.3-7,12.3-8,18.2-5l-2.4,3.2c-4.7-1.6-9.2-1.1-13.1,4.1c-5.6,7.4-1.2,15.5,5.3,20.5c6.4,4.9,15.4,7,21.2-0.6
			c3.8-5,2.9-9.4,0.5-13.4L622.6,555.5z"/>
		<path class="st1" d="M634.2,556.7l-5.9-4.6l2.3-2.9l5.9,4.6L634.2,556.7z"/>
	</g>
	<g>
		<g>
			<path class="st24" d="M351.8,515.2c-0.1-0.2-0.2-0.4-0.1-0.6l0.9-7.9c0.1-0.4,0.3-0.8,0.6-1.1l4.3-4.4c3.6-3.6,6.2-6.4,7.7-8.3
				c1.2-1.5,2.1-2.9,2.7-4.1c0.6-1.2,0.9-2.5,0.9-3.6c0-0.6-0.1-1-0.3-1.3c-0.2-0.3-0.5-0.4-0.9-0.4c-0.5,0-0.9,0.2-1.2,0.6
				c-0.3,0.4-0.5,0.9-0.6,1.5l-0.3,2.5c0,0.3-0.1,0.5-0.3,0.6c-0.2,0.2-0.4,0.2-0.6,0.2h-9.1c-0.3,0-0.5-0.1-0.6-0.2
				c-0.1-0.2-0.2-0.4-0.1-0.6l0.4-2.9c0.6-3.3,2.2-6,4.9-8c2.6-2,5.7-3,9.3-3c3.2,0,5.7,0.9,7.6,2.8c1.9,1.8,2.8,4.3,2.8,7.3
				c0,0.4,0,1-0.1,1.9c-0.3,2.2-0.8,4.1-1.6,5.8c-0.8,1.7-2,3.5-3.7,5.4c-1.8,2-4,4.3-6.7,6.9l-1.6,1.6c-0.2,0.1-0.2,0.2-0.2,0.3
				c0,0.1,0.1,0.1,0.3,0.1h10.5c0.3,0,0.5,0.1,0.6,0.2c0.1,0.2,0.2,0.4,0.1,0.6l-0.9,7.7c0,0.3-0.1,0.5-0.3,0.6
				c-0.2,0.2-0.4,0.2-0.7,0.2h-22.9C352.1,515.4,351.9,515.3,351.8,515.2z"/>
			<path class="st24" d="M381.9,513.2c-1.9-1.9-2.9-4.5-2.9-7.8c0-0.4,0-1.1,0.1-2.1l2.1-16.9c0.3-2.5,1.1-4.8,2.3-6.7
				c1.2-1.9,2.8-3.4,4.8-4.5c2-1.1,4.1-1.6,6.5-1.6c3.3,0,5.9,1,7.8,2.9c1.9,1.9,2.9,4.5,2.9,7.8c0,0.4,0,1.1-0.1,2.1l-2,16.9
				c-0.3,2.5-1.1,4.8-2.3,6.7c-1.2,1.9-2.9,3.4-4.8,4.5c-2,1.1-4.2,1.6-6.6,1.6C386.4,516.1,383.8,515.2,381.9,513.2z M392,506
				c0.3-0.5,0.5-1.1,0.6-2l2.2-18.2l0.1-0.7c0-1.3-0.4-2-1.2-2c-0.4,0-0.8,0.2-1.1,0.7c-0.3,0.5-0.5,1.1-0.6,2l-2.2,18.2l-0.1,0.7
				c0,0.6,0.1,1.1,0.3,1.5c0.2,0.4,0.5,0.5,0.9,0.5C391.3,506.7,391.7,506.4,392,506z"/>
			<path class="st24" d="M404.1,515.2c-0.1-0.2-0.2-0.4-0.1-0.6l0.9-7.9c0.1-0.4,0.3-0.8,0.6-1.1l4.3-4.4c3.6-3.6,6.2-6.4,7.7-8.3
				c1.2-1.5,2.1-2.9,2.7-4.1c0.6-1.2,0.9-2.5,0.9-3.6c0-0.6-0.1-1-0.3-1.3c-0.2-0.3-0.5-0.4-0.9-0.4c-0.5,0-0.9,0.2-1.2,0.6
				c-0.3,0.4-0.5,0.9-0.6,1.5l-0.3,2.5c0,0.3-0.1,0.5-0.3,0.6c-0.2,0.2-0.4,0.2-0.6,0.2h-9.1c-0.3,0-0.5-0.1-0.6-0.2
				c-0.1-0.2-0.2-0.4-0.1-0.6l0.4-2.9c0.6-3.3,2.2-6,4.9-8c2.6-2,5.7-3,9.3-3c3.2,0,5.7,0.9,7.6,2.8c1.9,1.8,2.8,4.3,2.8,7.3
				c0,0.4,0,1-0.1,1.9c-0.3,2.2-0.8,4.1-1.6,5.8c-0.8,1.7-2,3.5-3.7,5.4c-1.8,2-4,4.3-6.7,6.9l-1.6,1.6c-0.2,0.1-0.2,0.2-0.2,0.3
				c0,0.1,0.1,0.1,0.3,0.1h10.5c0.3,0,0.5,0.1,0.6,0.2c0.1,0.2,0.2,0.4,0.1,0.6l-0.9,7.7c0,0.3-0.1,0.5-0.3,0.6
				c-0.2,0.2-0.4,0.2-0.7,0.2h-22.9C404.4,515.4,404.2,515.3,404.1,515.2z"/>
			<path class="st24" d="M439.4,474.4h9.3c0.3,0,0.5,0.1,0.6,0.2c0.1,0.2,0.2,0.4,0.1,0.6l-4.9,39.3c0,0.3-0.1,0.5-0.3,0.6
				c-0.2,0.2-0.4,0.2-0.6,0.2h-9c-0.3,0-0.5-0.1-0.6-0.2c-0.1-0.2-0.2-0.4-0.1-0.6l3.6-29.8c0-0.1,0-0.2,0-0.2
				c-0.1-0.1-0.1-0.1-0.3-0.1h-3.2c-0.3,0-0.5-0.1-0.6-0.2c-0.1-0.2-0.2-0.4-0.1-0.6l0.8-6.8c0.1-0.5,0.4-0.8,0.8-1l3.3-1.2
				C438.7,474.5,439.1,474.4,439.4,474.4z"/>
		</g>
	</g>
</g>
</svg>
