<?xml version="1.0" encoding="utf-8"?>
<!-- Created by @FCLOGO 2024-9-5 GMT+8 22:03:48 . https://fclogo.top/ -->
<!-- FOR PERSONAL USE ONLY NOT FOR COMMERCIAL USE -->
<svg version="1.1" xmlns="http://www.w3.org/2000/svg" xmlns:xlink="http://www.w3.org/1999/xlink" x="0px" y="0px"
	 viewBox="0 0 800 800" style="enable-background:new 0 0 800 800;" xml:space="preserve">
<path style="fill:#CCCCCC;" d="M348.22,774.3c-0.79,0-1.38-0.22-1.77-0.65c-0.39-0.44-0.53-1.03-0.41-1.79l0.25-1.65
	c0.12-0.75,0.45-1.35,0.98-1.78c0.53-0.44,1.19-0.65,1.98-0.65c0.76,0,1.33,0.2,1.72,0.6c0.39,0.4,0.55,0.94,0.47,1.62h-1.24
	c0.03-0.36-0.06-0.64-0.26-0.84c-0.2-0.2-0.5-0.3-0.89-0.3c-0.42,0-0.76,0.12-1.03,0.35c-0.27,0.23-0.43,0.56-0.5,0.99l-0.26,1.66
	c-0.07,0.44-0.01,0.77,0.19,1c0.19,0.23,0.5,0.35,0.92,0.35c0.39,0,0.72-0.1,0.98-0.3c0.26-0.2,0.44-0.48,0.52-0.85h1.24
	c-0.14,0.69-0.47,1.23-0.99,1.63C349.61,774.1,348.97,774.3,348.22,774.3z M352.8,774.19l1-6.29h1.19l-0.19,1.19
	c0.34-0.87,0.97-1.3,1.91-1.3c0.67,0,1.17,0.21,1.49,0.62c0.32,0.42,0.43,0.99,0.31,1.71l-0.07,0.42h-1.27l0.06-0.32
	c0.07-0.45,0.01-0.8-0.17-1.04c-0.18-0.24-0.48-0.36-0.88-0.36c-0.4,0-0.74,0.12-1.01,0.37c-0.27,0.24-0.43,0.59-0.5,1.03
	l-0.63,3.97H352.8z M361.91,774.3c-0.77,0-1.35-0.22-1.73-0.67c-0.38-0.45-0.51-1.04-0.4-1.77l0.25-1.65
	c0.08-0.49,0.26-0.92,0.52-1.28c0.26-0.37,0.6-0.65,1.01-0.85c0.41-0.2,0.87-0.3,1.38-0.3c0.77,0,1.35,0.22,1.73,0.67
	c0.39,0.45,0.52,1.04,0.39,1.77l-0.17,1.12h-3.85l-0.09,0.53c-0.15,0.95,0.22,1.43,1.11,1.43c0.72,0,1.17-0.25,1.37-0.74h1.22
	c-0.17,0.53-0.5,0.96-1.01,1.28C363.16,774.14,362.58,774.3,361.91,774.3z M361.23,770.22l-0.05,0.29l2.65-0.01l0.05-0.29
	c0.07-0.47,0.01-0.82-0.17-1.07c-0.18-0.25-0.49-0.37-0.92-0.37c-0.44,0-0.8,0.13-1.06,0.38
	C361.48,769.39,361.31,769.75,361.23,770.22z M368.33,774.3c-0.63,0-1.1-0.21-1.41-0.64c-0.31-0.42-0.4-1-0.27-1.73l0.27-1.77
	c0.11-0.73,0.39-1.31,0.84-1.74c0.44-0.43,0.98-0.64,1.61-0.64c0.47,0,0.83,0.12,1.09,0.35c0.26,0.24,0.39,0.56,0.38,0.96h0.02
	l0.17-1.2h1.24l-1,6.29h-1.22l0.19-1.2h-0.02c-0.12,0.41-0.35,0.73-0.69,0.97C369.2,774.18,368.8,774.3,368.33,774.3z
	 M368.93,773.23c0.39,0,0.72-0.12,0.98-0.36c0.26-0.24,0.43-0.57,0.5-1.01l0.25-1.65c0.07-0.43,0.01-0.76-0.18-1
	c-0.19-0.24-0.47-0.36-0.86-0.36c-0.4,0-0.72,0.12-0.98,0.35c-0.26,0.24-0.42,0.57-0.49,1.01l-0.25,1.65
	c-0.07,0.44-0.01,0.78,0.17,1.01C368.24,773.11,368.53,773.23,368.93,773.23z M376.35,774.19c-0.57,0-0.99-0.16-1.26-0.47
	c-0.27-0.31-0.36-0.75-0.27-1.32l0.54-3.39h-1.74l0.17-1.12h1.74l0.27-1.72h1.24l-0.27,1.72h2.47l-0.18,1.12h-2.46l-0.54,3.39
	c-0.08,0.44,0.1,0.66,0.53,0.66h1.72l-0.17,1.12H376.35z M382.5,774.3c-0.77,0-1.35-0.22-1.73-0.67c-0.38-0.45-0.52-1.04-0.4-1.77
	l0.25-1.65c0.08-0.49,0.26-0.92,0.52-1.28c0.26-0.37,0.6-0.65,1.01-0.85c0.41-0.2,0.87-0.3,1.38-0.3c0.77,0,1.35,0.22,1.73,0.67
	c0.39,0.45,0.52,1.04,0.39,1.77l-0.17,1.12h-3.85l-0.09,0.53c-0.15,0.95,0.22,1.43,1.11,1.43c0.72,0,1.17-0.25,1.37-0.74h1.22
	c-0.17,0.53-0.5,0.96-1.01,1.28C383.76,774.14,383.18,774.3,382.5,774.3z M381.83,770.22l-0.05,0.29l2.65-0.01l0.05-0.29
	c0.07-0.47,0.01-0.82-0.17-1.07c-0.18-0.25-0.49-0.37-0.92-0.37c-0.44,0-0.8,0.13-1.06,0.38
	C382.08,769.39,381.91,769.75,381.83,770.22z M388.92,774.3c-0.63,0-1.1-0.21-1.4-0.64c-0.3-0.42-0.39-1-0.28-1.73l0.27-1.77
	c0.11-0.73,0.39-1.31,0.84-1.74c0.44-0.43,0.98-0.64,1.61-0.64c0.47,0,0.83,0.12,1.09,0.35c0.26,0.24,0.39,0.56,0.38,0.96h0.02
	l0.21-1.47l0.3-1.8h1.24l-1.33,8.35h-1.22l0.19-1.2h-0.02c-0.12,0.41-0.35,0.73-0.69,0.97C389.8,774.18,389.4,774.3,388.92,774.3z
	 M389.53,773.23c0.39,0,0.72-0.12,0.98-0.36c0.26-0.24,0.43-0.57,0.5-1.01l0.25-1.65c0.08-0.43,0.02-0.76-0.17-1
	c-0.19-0.24-0.48-0.36-0.87-0.36c-0.4,0-0.72,0.12-0.98,0.35c-0.26,0.24-0.42,0.57-0.49,1.01l-0.25,1.65
	c-0.08,0.44-0.02,0.78,0.16,1.01C388.83,773.11,389.13,773.23,389.53,773.23z M401.02,774.3c-0.47,0-0.84-0.12-1.1-0.35
	c-0.26-0.23-0.39-0.56-0.38-0.97h-0.01l-0.19,1.2h-1.22l1.33-8.35h1.24l-0.29,1.8l-0.27,1.47h0.05c0.12-0.41,0.35-0.73,0.69-0.97
	c0.34-0.23,0.74-0.35,1.21-0.35c0.63,0,1.1,0.21,1.4,0.64c0.3,0.43,0.39,1.01,0.28,1.74l-0.27,1.77c-0.11,0.73-0.39,1.31-0.84,1.73
	C402.18,774.09,401.64,774.3,401.02,774.3z M400.77,773.23c0.4,0,0.72-0.12,0.98-0.35c0.26-0.23,0.42-0.57,0.5-1.01l0.25-1.65
	c0.07-0.43,0.01-0.77-0.17-1.01c-0.18-0.24-0.47-0.35-0.87-0.35c-0.39,0-0.72,0.12-0.98,0.36c-0.26,0.24-0.43,0.57-0.5,1l-0.25,1.65
	c-0.07,0.44-0.01,0.77,0.17,1.01C400.08,773.11,400.37,773.23,400.77,773.23z M405.47,776.25l0.17-1.06h1.93
	c0.64,0,1.01-0.3,1.1-0.9l0.1-0.67l0.21-1.19h-0.03c-0.12,0.42-0.35,0.74-0.68,0.97c-0.33,0.23-0.73,0.34-1.2,0.34
	c-0.63,0-1.09-0.2-1.4-0.6c-0.31-0.4-0.41-0.94-0.3-1.63l0.58-3.6h1.24l-0.56,3.48c-0.06,0.41,0,0.73,0.18,0.96
	c0.18,0.23,0.47,0.34,0.85,0.34c0.39,0,0.72-0.12,0.98-0.37c0.27-0.24,0.43-0.58,0.49-1.02l0.54-3.4h1.24l-1.01,6.41
	c-0.1,0.6-0.37,1.08-0.81,1.42c-0.44,0.35-1,0.52-1.67,0.52H405.47z M417.79,770.09h3.22l0.54-1.85h-5.47l-1.71,6.44h2.15l0.59-2.1
	h3.03l0.44-1.71h-3.03L417.79,770.09z M424.23,772.92c-0.59,0-1.02-0.39-1.02-1.12c0-0.88,0.63-1.76,1.61-1.76
	c0.49,0,0.88,0.24,1.02,0.78l1.95-0.83c-0.29-1.17-1.27-1.9-2.64-1.9c-2.78,0-4.15,2.15-4.15,3.9c0,1.76,1.27,2.83,3.07,2.83
	c1.37,0,2.34-0.59,2.98-1.42l-1.51-1.17C425.16,772.67,424.72,772.92,424.23,772.92z M430.91,768.23h-2.15l-1.76,6.44h5.12
	l0.49-1.85h-2.93L430.91,768.23z M439.75,771.01c0-1.66-1.32-2.93-3.22-2.93c-2.2,0-3.81,1.81-3.81,3.81c0,1.66,1.32,2.93,3.22,2.93
	C438.14,774.82,439.75,773.01,439.75,771.01z M434.92,771.7c0-0.83,0.59-1.71,1.51-1.71c0.78,0,1.17,0.54,1.17,1.22
	c0,0.83-0.59,1.71-1.51,1.71C435.31,772.92,434.92,772.38,434.92,771.7z M443.21,772.23h1.07l-0.2,0.68
	c-0.15,0.05-0.34,0.1-0.59,0.1c-0.68,0-1.27-0.39-1.27-1.22c0-1.02,0.73-1.9,1.95-1.9c0.59,0,1.12,0.24,1.51,0.59l1.37-1.37
	c-0.44-0.54-1.51-1.07-2.73-1.07c-2.59,0-4.29,1.76-4.29,3.86c0,2.05,1.61,2.88,3.22,2.88c0.93,0,1.85-0.29,2.49-0.68l0.93-3.32
	h-3.12L443.21,772.23z M450.78,768.08c-2.2,0-3.81,1.81-3.81,3.81c0,1.66,1.32,2.93,3.22,2.93c2.2,0,3.81-1.81,3.81-3.81
	C454,769.35,452.68,768.08,450.78,768.08z M450.34,772.92c-0.78,0-1.17-0.54-1.17-1.22c0-0.83,0.59-1.71,1.51-1.71
	c0.78,0,1.17,0.54,1.17,1.22C451.85,772.04,451.27,772.92,450.34,772.92z M437.94,767.5c-0.05,0.29,0.1,0.49,0.44,0.49
	s0.54-0.2,0.63-0.49c0.05-0.24-0.1-0.49-0.44-0.49C438.24,767.01,437.99,767.25,437.94,767.5z M432.13,765.5
	c-0.44,0-0.73,0.24-0.78,0.59c-0.05,0.34,0.1,0.59,0.54,0.59s0.73-0.24,0.78-0.59C432.77,765.74,432.57,765.5,432.13,765.5z
	 M433.01,767.3c-0.1,0.54,0.15,0.88,0.83,0.88c0.63,0,1.07-0.39,1.17-0.88s-0.15-0.88-0.83-0.88
	C433.5,766.43,433.11,766.82,433.01,767.3z M439.6,777.55l-2.44-1.81h-1.51l4.25,3.17l1.61-3.17h-0.98L439.6,777.55z M425.84,767.16
	l-2-1.46l23.13-2.78l-2.15,4.25h1.02l2.68-5.32l-26.99,3.22l2.78,2.1H425.84z M338.72,785.79l0.61-3.83h2.32l-0.08,0.52h-1.76
	l-0.18,1.14h1.63l-0.08,0.52h-1.62l-0.26,1.64H338.72z M342.97,785.84c-0.36,0-0.62-0.1-0.8-0.3c-0.17-0.2-0.23-0.47-0.18-0.82
	l0.27-1.7c0.06-0.34,0.2-0.61,0.44-0.82c0.24-0.2,0.54-0.3,0.89-0.3c0.36,0,0.62,0.1,0.8,0.3c0.17,0.2,0.24,0.47,0.18,0.81
	l-0.27,1.71c-0.06,0.34-0.2,0.62-0.44,0.82C343.63,785.74,343.33,785.84,342.97,785.84z M343.05,785.33c0.19,0,0.35-0.05,0.47-0.16
	c0.12-0.11,0.19-0.26,0.23-0.46l0.27-1.7c0.03-0.2,0.01-0.35-0.08-0.46c-0.08-0.11-0.22-0.16-0.41-0.16s-0.35,0.05-0.46,0.16
	c-0.12,0.1-0.19,0.26-0.22,0.46l-0.27,1.7c-0.03,0.2-0.01,0.35,0.08,0.46C342.72,785.28,342.86,785.33,343.05,785.33z M345,785.79
	l0.61-3.83h1.2c0.24,0,0.44,0.05,0.6,0.14c0.16,0.09,0.28,0.22,0.36,0.39c0.07,0.17,0.09,0.37,0.05,0.59
	c-0.04,0.26-0.14,0.48-0.3,0.67c-0.16,0.19-0.37,0.32-0.6,0.39l0.54,1.64h-0.62l-0.48-1.57h-0.54l-0.25,1.57H345z M345.89,783.71
	h0.64c0.19,0,0.35-0.06,0.48-0.17c0.13-0.11,0.21-0.26,0.24-0.45c0.03-0.19,0-0.35-0.09-0.46c-0.09-0.11-0.24-0.17-0.43-0.17h-0.64
	L345.89,783.71z M349.54,785.79l0.61-3.83h1.25c0.37,0,0.65,0.1,0.84,0.31c0.19,0.21,0.26,0.49,0.2,0.84
	c-0.04,0.23-0.12,0.44-0.25,0.61s-0.29,0.31-0.49,0.4c-0.2,0.09-0.42,0.14-0.66,0.14h-0.69l-0.24,1.52H349.54z M350.43,783.75h0.69
	c0.19,0,0.36-0.06,0.49-0.18c0.14-0.12,0.22-0.27,0.25-0.47c0.03-0.2,0-0.35-0.1-0.47c-0.1-0.12-0.25-0.18-0.44-0.18h-0.69
	L350.43,783.75z M352.75,785.79l0.61-3.83h2.25l-0.08,0.5h-1.7l-0.17,1.09h1.51l-0.08,0.5h-1.51l-0.19,1.24h1.69l-0.08,0.5H352.75z
	 M355.84,785.79l0.61-3.83h1.2c0.24,0,0.44,0.05,0.6,0.14c0.16,0.09,0.28,0.22,0.36,0.39c0.07,0.17,0.09,0.37,0.05,0.59
	c-0.04,0.26-0.14,0.48-0.3,0.67c-0.16,0.19-0.37,0.32-0.6,0.39l0.54,1.64h-0.62l-0.48-1.57h-0.54l-0.25,1.57H355.84z M356.74,783.71
	h0.64c0.19,0,0.35-0.06,0.48-0.17c0.13-0.11,0.21-0.26,0.24-0.45c0.03-0.19,0-0.35-0.09-0.46c-0.09-0.11-0.24-0.17-0.43-0.17h-0.64
	L356.74,783.71z M360.13,785.84c-0.39,0-0.67-0.1-0.87-0.29c-0.19-0.19-0.26-0.45-0.22-0.78h0.57c-0.03,0.17,0.01,0.31,0.12,0.41
	c0.11,0.1,0.27,0.15,0.48,0.15c0.2,0,0.37-0.05,0.5-0.15c0.13-0.1,0.21-0.23,0.24-0.4c0.02-0.15,0-0.28-0.06-0.39
	c-0.06-0.11-0.16-0.18-0.29-0.22l-0.46-0.14c-0.27-0.08-0.46-0.22-0.59-0.41c-0.13-0.19-0.17-0.42-0.13-0.68
	c0.04-0.21,0.11-0.39,0.23-0.55c0.12-0.16,0.27-0.28,0.46-0.37c0.19-0.09,0.4-0.13,0.64-0.13c0.35,0,0.62,0.1,0.8,0.29
	c0.18,0.19,0.25,0.44,0.2,0.76h-0.57c0.03-0.17,0-0.3-0.09-0.4c-0.09-0.1-0.23-0.14-0.42-0.14c-0.19,0-0.34,0.04-0.46,0.13
	c-0.12,0.09-0.19,0.21-0.21,0.38c-0.02,0.15-0.01,0.28,0.05,0.39c0.06,0.11,0.16,0.18,0.29,0.22l0.47,0.15
	c0.26,0.08,0.46,0.22,0.58,0.41c0.12,0.19,0.17,0.42,0.12,0.69c-0.04,0.22-0.12,0.41-0.24,0.57c-0.13,0.16-0.29,0.29-0.49,0.38
	C360.6,785.79,360.38,785.84,360.13,785.84z M363.27,785.84c-0.36,0-0.62-0.1-0.8-0.3c-0.17-0.2-0.23-0.47-0.18-0.82l0.27-1.7
	c0.06-0.34,0.2-0.61,0.44-0.82c0.24-0.2,0.54-0.3,0.89-0.3c0.36,0,0.62,0.1,0.8,0.3c0.17,0.2,0.24,0.47,0.18,0.81l-0.27,1.71
	c-0.06,0.34-0.2,0.62-0.44,0.82C363.92,785.74,363.62,785.84,363.27,785.84z M363.34,785.33c0.19,0,0.35-0.05,0.47-0.16
	c0.12-0.11,0.19-0.26,0.23-0.46l0.27-1.7c0.03-0.2,0.01-0.35-0.08-0.46c-0.08-0.11-0.22-0.16-0.41-0.16c-0.19,0-0.35,0.05-0.46,0.16
	c-0.12,0.1-0.19,0.26-0.22,0.46l-0.27,1.7c-0.03,0.2-0.01,0.35,0.08,0.46C363.02,785.28,363.15,785.33,363.34,785.33z
	 M365.28,785.79l0.61-3.83h0.71l0.62,3.19c0.01-0.1,0.02-0.22,0.03-0.36c0.01-0.14,0.03-0.29,0.04-0.44
	c0.02-0.15,0.04-0.29,0.06-0.41l0.31-1.98h0.52l-0.61,3.83h-0.71l-0.61-3.19c-0.01,0.09-0.02,0.21-0.03,0.34s-0.03,0.28-0.04,0.42
	c-0.02,0.15-0.04,0.28-0.06,0.41l-0.31,2.01H365.28z M368.23,785.79l1.59-3.83h0.75l0.37,3.83h-0.56l-0.07-0.97h-1.09l-0.39,0.97
	H368.23z M369.39,784.34h0.87l-0.09-1.1c-0.02-0.2-0.03-0.37-0.04-0.51c-0.01-0.14-0.01-0.24-0.01-0.3c-0.02,0.06-0.05,0.16-0.1,0.3
	c-0.05,0.14-0.11,0.31-0.19,0.5L369.39,784.34z M371.72,785.79l0.61-3.83h0.57l-0.52,3.31h1.67l-0.08,0.52H371.72z M376.68,785.84
	c-0.37,0-0.63-0.1-0.8-0.3c-0.17-0.2-0.22-0.48-0.17-0.82l0.44-2.76h0.57l-0.44,2.76c-0.03,0.2-0.01,0.35,0.07,0.46
	c0.08,0.11,0.21,0.17,0.41,0.17c0.19,0,0.35-0.06,0.46-0.17c0.12-0.11,0.19-0.27,0.22-0.46l0.44-2.76h0.57l-0.44,2.76
	c-0.06,0.35-0.2,0.62-0.43,0.82C377.35,785.74,377.05,785.84,376.68,785.84z M379.84,785.84c-0.39,0-0.67-0.1-0.87-0.29
	c-0.19-0.19-0.26-0.45-0.22-0.78h0.57c-0.03,0.17,0.01,0.31,0.12,0.41c0.11,0.1,0.27,0.15,0.48,0.15c0.2,0,0.37-0.05,0.5-0.15
	c0.13-0.1,0.21-0.23,0.24-0.4c0.02-0.15,0-0.28-0.06-0.39c-0.06-0.11-0.16-0.18-0.29-0.22l-0.46-0.14
	c-0.27-0.08-0.46-0.22-0.59-0.41c-0.13-0.19-0.17-0.42-0.13-0.68c0.04-0.21,0.11-0.39,0.23-0.55s0.27-0.28,0.46-0.37
	c0.19-0.09,0.4-0.13,0.64-0.13c0.35,0,0.62,0.1,0.8,0.29c0.18,0.19,0.25,0.44,0.2,0.76h-0.57c0.03-0.17,0-0.3-0.09-0.4
	c-0.09-0.1-0.23-0.14-0.42-0.14c-0.19,0-0.34,0.04-0.46,0.13c-0.12,0.09-0.19,0.21-0.21,0.38c-0.02,0.15-0.01,0.28,0.05,0.39
	c0.06,0.11,0.16,0.18,0.29,0.22l0.47,0.15c0.26,0.08,0.46,0.22,0.58,0.41c0.12,0.19,0.17,0.42,0.12,0.69
	c-0.04,0.22-0.12,0.41-0.24,0.57c-0.13,0.16-0.29,0.29-0.49,0.38C380.31,785.79,380.09,785.84,379.84,785.84z M381.91,785.79
	l0.61-3.83h2.25l-0.08,0.5h-1.7l-0.17,1.09h1.51l-0.08,0.5h-1.51l-0.19,1.24h1.69l-0.08,0.5H381.91z M386.94,785.84
	c-0.36,0-0.62-0.1-0.8-0.3c-0.17-0.2-0.23-0.47-0.18-0.82l0.27-1.7c0.06-0.34,0.2-0.61,0.44-0.82c0.24-0.2,0.54-0.3,0.89-0.3
	c0.36,0,0.62,0.1,0.8,0.3c0.17,0.2,0.24,0.47,0.18,0.81l-0.27,1.71c-0.06,0.34-0.2,0.62-0.44,0.82
	C387.6,785.74,387.3,785.84,386.94,785.84z M387.02,785.33c0.19,0,0.35-0.05,0.47-0.16c0.12-0.11,0.19-0.26,0.23-0.46l0.27-1.7
	c0.03-0.2,0.01-0.35-0.08-0.46c-0.08-0.11-0.22-0.16-0.41-0.16c-0.19,0-0.35,0.05-0.46,0.16c-0.12,0.1-0.19,0.26-0.22,0.46
	l-0.27,1.7c-0.03,0.2-0.01,0.35,0.08,0.46C386.7,785.28,386.83,785.33,387.02,785.33z M388.95,785.79l0.61-3.83h0.71l0.62,3.19
	c0.01-0.1,0.02-0.22,0.03-0.36c0.01-0.14,0.03-0.29,0.04-0.44c0.02-0.15,0.04-0.29,0.06-0.41l0.31-1.98h0.52l-0.61,3.83h-0.71
	l-0.61-3.19c-0.01,0.09-0.02,0.21-0.03,0.34c-0.01,0.13-0.03,0.28-0.04,0.42c-0.02,0.15-0.04,0.28-0.06,0.41l-0.31,2.01H388.95z
	 M392.25,785.79l0.61-3.83h0.57l-0.52,3.31h1.67l-0.08,0.52H392.25z M396.12,785.79l0.22-1.41l-0.75-2.42h0.58l0.45,1.45
	c0.03,0.09,0.05,0.18,0.07,0.27c0.02,0.08,0.03,0.15,0.03,0.19c0.02-0.04,0.05-0.1,0.09-0.19c0.04-0.08,0.09-0.17,0.14-0.27
	l0.9-1.45h0.6l-1.53,2.42l-0.22,1.41H396.12z M399.22,785.79l0.61-3.83h0.71l0.62,3.19c0.01-0.1,0.02-0.22,0.03-0.36
	c0.01-0.14,0.03-0.29,0.04-0.44c0.02-0.15,0.04-0.29,0.06-0.41l0.31-1.98h0.52l-0.61,3.83h-0.71l-0.61-3.19
	c-0.01,0.09-0.02,0.21-0.03,0.34c-0.01,0.13-0.03,0.28-0.04,0.42c-0.02,0.15-0.04,0.28-0.06,0.41l-0.31,2.01H399.22z M403.51,785.84
	c-0.36,0-0.62-0.1-0.8-0.3c-0.18-0.2-0.23-0.47-0.18-0.82l0.27-1.7c0.06-0.34,0.2-0.61,0.44-0.82c0.24-0.2,0.54-0.3,0.89-0.3
	c0.36,0,0.62,0.1,0.8,0.3c0.17,0.2,0.24,0.47,0.18,0.81l-0.27,1.71c-0.06,0.34-0.2,0.62-0.44,0.82
	C404.16,785.74,403.86,785.84,403.51,785.84z M403.58,785.33c0.19,0,0.35-0.05,0.47-0.16c0.12-0.11,0.19-0.26,0.23-0.46l0.27-1.7
	c0.03-0.2,0.01-0.35-0.08-0.46c-0.08-0.11-0.22-0.16-0.41-0.16c-0.19,0-0.35,0.05-0.46,0.16c-0.12,0.1-0.19,0.26-0.22,0.46
	l-0.27,1.7c-0.03,0.2-0.01,0.35,0.08,0.46C403.26,785.28,403.4,785.33,403.58,785.33z M406.38,785.79l0.52-3.31h-1.02l0.08-0.52
	h2.62l-0.08,0.52h-1.03l-0.52,3.31H406.38z M409.52,785.79l0.61-3.83h2.32l-0.08,0.52h-1.76l-0.18,1.14h1.63l-0.08,0.52h-1.62
	l-0.26,1.64H409.52z M413.77,785.84c-0.36,0-0.62-0.1-0.8-0.3c-0.18-0.2-0.23-0.47-0.18-0.82l0.27-1.7c0.06-0.34,0.2-0.61,0.44-0.82
	c0.24-0.2,0.54-0.3,0.89-0.3c0.36,0,0.62,0.1,0.8,0.3c0.17,0.2,0.24,0.47,0.18,0.81l-0.27,1.71c-0.06,0.34-0.2,0.62-0.44,0.82
	C414.42,785.74,414.13,785.84,413.77,785.84z M413.85,785.33c0.19,0,0.35-0.05,0.47-0.16c0.12-0.11,0.19-0.26,0.23-0.46l0.27-1.7
	c0.03-0.2,0.01-0.35-0.08-0.46c-0.08-0.11-0.22-0.16-0.41-0.16c-0.19,0-0.35,0.05-0.46,0.16c-0.12,0.1-0.19,0.26-0.22,0.46
	l-0.27,1.7c-0.03,0.2-0.01,0.35,0.08,0.46C413.52,785.28,413.66,785.33,413.85,785.33z M415.8,785.79l0.61-3.83h1.2
	c0.24,0,0.44,0.05,0.6,0.14c0.16,0.09,0.28,0.22,0.36,0.39c0.07,0.17,0.09,0.37,0.05,0.59c-0.04,0.26-0.14,0.48-0.3,0.67
	c-0.16,0.19-0.37,0.32-0.6,0.39l0.54,1.64h-0.62l-0.48-1.57h-0.54l-0.25,1.57H415.8z M416.69,783.71h0.64
	c0.19,0,0.35-0.06,0.48-0.17c0.13-0.11,0.21-0.26,0.24-0.45c0.03-0.19,0-0.35-0.09-0.46c-0.09-0.11-0.24-0.17-0.43-0.17h-0.64
	L416.69,783.71z M420.91,785.84c-0.36,0-0.63-0.1-0.81-0.3c-0.18-0.2-0.24-0.47-0.19-0.82l0.27-1.7c0.06-0.35,0.21-0.62,0.45-0.82
	s0.55-0.3,0.91-0.3c0.36,0,0.63,0.1,0.81,0.3c0.18,0.2,0.24,0.47,0.19,0.82h-0.57c0.03-0.2,0-0.35-0.09-0.46
	c-0.09-0.11-0.23-0.16-0.42-0.16c-0.19,0-0.35,0.05-0.48,0.16c-0.12,0.1-0.2,0.26-0.23,0.45l-0.27,1.71c-0.03,0.2,0,0.35,0.09,0.46
	c0.09,0.11,0.23,0.16,0.42,0.16c0.19,0,0.35-0.05,0.47-0.16c0.12-0.11,0.2-0.26,0.23-0.46h0.57c-0.03,0.23-0.11,0.43-0.24,0.59
	c-0.12,0.17-0.28,0.3-0.47,0.39C421.36,785.79,421.14,785.84,420.91,785.84z M424.03,785.84c-0.36,0-0.62-0.1-0.8-0.3
	c-0.18-0.2-0.23-0.47-0.18-0.82l0.27-1.7c0.06-0.34,0.2-0.61,0.44-0.82c0.24-0.2,0.54-0.3,0.89-0.3c0.36,0,0.62,0.1,0.8,0.3
	c0.17,0.2,0.24,0.47,0.18,0.81l-0.27,1.71c-0.06,0.34-0.2,0.62-0.44,0.82C424.69,785.74,424.39,785.84,424.03,785.84z
	 M424.11,785.33c0.19,0,0.35-0.05,0.47-0.16c0.12-0.11,0.19-0.26,0.23-0.46l0.27-1.7c0.03-0.2,0.01-0.35-0.08-0.46
	c-0.08-0.11-0.22-0.16-0.41-0.16c-0.19,0-0.35,0.05-0.46,0.16c-0.12,0.1-0.19,0.26-0.22,0.46l-0.27,1.7
	c-0.03,0.2-0.01,0.35,0.08,0.46C423.79,785.28,423.92,785.33,424.11,785.33z M425.97,785.79l0.61-3.83h0.69l0.18,1.23
	c0.02,0.12,0.04,0.23,0.05,0.33c0.01,0.1,0.02,0.18,0.03,0.24c0.02-0.06,0.05-0.14,0.09-0.24c0.04-0.11,0.09-0.22,0.15-0.34
	l0.57-1.22h0.71l-0.61,3.83h-0.54l0.2-1.29c0.02-0.17,0.06-0.35,0.1-0.55c0.04-0.2,0.09-0.4,0.14-0.61c0.05-0.2,0.1-0.4,0.14-0.59
	c0.05-0.19,0.09-0.35,0.13-0.49l-0.86,1.86h-0.55l-0.28-1.86c0,0.14-0.01,0.29-0.02,0.47c-0.01,0.18-0.02,0.37-0.04,0.57
	c-0.02,0.2-0.04,0.41-0.06,0.61c-0.02,0.2-0.05,0.4-0.08,0.57l-0.2,1.29H425.97z M429.11,785.79l0.61-3.83h0.69l0.18,1.23
	c0.02,0.12,0.04,0.23,0.05,0.33c0.01,0.1,0.02,0.18,0.03,0.24c0.02-0.06,0.05-0.14,0.09-0.24c0.04-0.11,0.09-0.22,0.15-0.34
	l0.57-1.22h0.71l-0.61,3.83h-0.54l0.2-1.29c0.02-0.17,0.06-0.35,0.1-0.55c0.04-0.2,0.09-0.4,0.14-0.61c0.05-0.2,0.1-0.4,0.14-0.59
	c0.05-0.19,0.09-0.35,0.13-0.49l-0.86,1.86h-0.55l-0.28-1.86c0,0.14-0.01,0.29-0.02,0.47c-0.01,0.18-0.02,0.37-0.04,0.57
	c-0.02,0.2-0.04,0.41-0.06,0.61c-0.02,0.2-0.05,0.4-0.08,0.57l-0.2,1.29H429.11z M432.41,785.79l0.61-3.83h2.25l-0.08,0.5h-1.7
	l-0.17,1.09h1.51l-0.08,0.5h-1.51l-0.19,1.24h1.69l-0.08,0.5H432.41z M435.51,785.79l0.61-3.83h1.2c0.24,0,0.44,0.05,0.6,0.14
	c0.16,0.09,0.28,0.22,0.36,0.39c0.07,0.17,0.09,0.37,0.05,0.59c-0.04,0.26-0.14,0.48-0.3,0.67c-0.16,0.19-0.37,0.32-0.6,0.39
	l0.54,1.64h-0.62l-0.48-1.57h-0.54l-0.25,1.57H435.51z M436.4,783.71h0.64c0.19,0,0.35-0.06,0.48-0.17
	c0.13-0.11,0.21-0.26,0.24-0.45c0.03-0.19,0-0.35-0.09-0.46c-0.09-0.11-0.24-0.17-0.43-0.17h-0.64L436.4,783.71z M439.8,785.84
	c-0.36,0-0.63-0.1-0.81-0.3c-0.18-0.2-0.24-0.47-0.19-0.82l0.27-1.7c0.06-0.35,0.21-0.62,0.45-0.82s0.55-0.3,0.91-0.3
	c0.36,0,0.63,0.1,0.81,0.3c0.18,0.2,0.24,0.47,0.19,0.82h-0.57c0.03-0.2,0-0.35-0.09-0.46c-0.09-0.11-0.23-0.16-0.42-0.16
	c-0.19,0-0.35,0.05-0.47,0.16c-0.12,0.1-0.2,0.26-0.23,0.45l-0.27,1.71c-0.03,0.2,0,0.35,0.09,0.46c0.09,0.11,0.23,0.16,0.42,0.16
	s0.35-0.05,0.47-0.16c0.12-0.11,0.2-0.26,0.23-0.46h0.57c-0.03,0.23-0.11,0.43-0.24,0.59c-0.12,0.17-0.28,0.3-0.47,0.39
	C440.25,785.79,440.04,785.84,439.8,785.84z M441.88,785.79l0.08-0.5h0.78l0.45-2.82h-0.78l0.08-0.5h2.13l-0.08,0.5h-0.78
	l-0.45,2.82h0.78l-0.08,0.5H441.88z M444.74,785.79l1.59-3.83h0.75l0.37,3.83h-0.56l-0.07-0.97h-1.09l-0.39,0.97H444.74z
	 M445.9,784.34h0.87l-0.09-1.1c-0.02-0.2-0.03-0.37-0.04-0.51c-0.01-0.14-0.01-0.24-0.01-0.3c-0.02,0.06-0.05,0.16-0.1,0.3
	c-0.05,0.14-0.11,0.31-0.19,0.5L445.9,784.34z M448.24,785.79l0.61-3.83h0.57l-0.52,3.31h1.67l-0.08,0.52H448.24z M453.19,785.84
	c-0.37,0-0.63-0.1-0.8-0.3c-0.17-0.2-0.22-0.48-0.17-0.82l0.44-2.76h0.57l-0.44,2.76c-0.03,0.2-0.01,0.35,0.07,0.46
	c0.08,0.11,0.21,0.17,0.41,0.17c0.19,0,0.35-0.06,0.46-0.17c0.12-0.11,0.19-0.27,0.22-0.46l0.44-2.76h0.57l-0.44,2.76
	c-0.06,0.35-0.2,0.62-0.43,0.82C453.86,785.74,453.56,785.84,453.19,785.84z M456.36,785.84c-0.39,0-0.67-0.1-0.87-0.29
	c-0.19-0.19-0.26-0.45-0.22-0.78h0.57c-0.03,0.17,0.01,0.31,0.12,0.41c0.11,0.1,0.27,0.15,0.48,0.15c0.2,0,0.37-0.05,0.5-0.15
	s0.21-0.23,0.24-0.4c0.02-0.15,0-0.28-0.06-0.39c-0.06-0.11-0.16-0.18-0.29-0.22l-0.46-0.14c-0.27-0.08-0.46-0.22-0.59-0.41
	c-0.13-0.19-0.17-0.42-0.13-0.68c0.04-0.21,0.11-0.39,0.23-0.55c0.12-0.16,0.27-0.28,0.46-0.37c0.19-0.09,0.4-0.13,0.64-0.13
	c0.35,0,0.62,0.1,0.8,0.29c0.18,0.19,0.25,0.44,0.2,0.76h-0.57c0.03-0.17,0-0.3-0.09-0.4c-0.09-0.1-0.23-0.14-0.42-0.14
	c-0.19,0-0.34,0.04-0.46,0.13c-0.12,0.09-0.19,0.21-0.21,0.38c-0.02,0.15-0.01,0.28,0.05,0.39c0.06,0.11,0.16,0.18,0.29,0.22
	l0.47,0.15c0.26,0.08,0.46,0.22,0.58,0.41c0.12,0.19,0.17,0.42,0.12,0.69c-0.04,0.22-0.12,0.41-0.24,0.57
	c-0.13,0.16-0.29,0.29-0.49,0.38C456.82,785.79,456.6,785.84,456.36,785.84z M458.42,785.79l0.61-3.83h2.25l-0.08,0.5h-1.7
	l-0.17,1.09h1.51l-0.08,0.5h-1.51l-0.19,1.24h1.69l-0.08,0.5H458.42z"/>
<g>
	<g>
		<path d="M136.14,50c0,0,0,311.31,0,457.67C136.14,662.34,272.15,647.54,400,750c127.85-102.46,263.86-87.66,263.86-242.33
			c0-146.36,0-457.67,0-457.67H136.14z"/>
		<path style="fill:#FFFFFF;" d="M400,734.73c-42.19-32.31-84.77-52.69-122.6-70.79c-37.9-18.14-70.63-33.8-93.57-56.77
			c-24.33-24.36-35.67-55.98-35.67-99.5V58.81h503.68v448.86c0,43.52-11.33,75.13-35.67,99.5c-22.95,22.97-55.68,38.63-93.57,56.77
			C484.77,682.04,442.19,702.42,400,734.73z"/>
		<path style="fill:#18288A;" d="M179.41,58.81v448.86c0,35.17,6.58,60.65,24.92,79.01c19.16,19.18,51.25,36.66,86.56,53.56
			c33.52,16.04,70.89,35.85,109.11,62.27c38.22-26.42,75.58-46.22,109.11-62.27c35.31-16.9,67.4-34.38,86.56-53.56
			c18.35-18.36,24.92-43.84,24.92-79.01V58.81H179.41z"/>
		<path style="fill:#FFFFFF;" d="M400,688.92c-30.94-20.87-64.29-39.67-104.26-58.8c-28.69-13.73-64.1-31.98-83.46-51.36
			c-14.97-14.98-21.64-36.91-21.64-71.08V164.59h418.74v343.09c0,34.18-6.67,56.1-21.64,71.08c-19.37,19.39-54.78,37.63-83.46,51.36
			C464.29,649.25,430.94,668.05,400,688.92z"/>
		<rect x="179.41" y="132.97" style="fill:#E41319;" width="441.18" height="21.31"/>
	</g>
	<g>
		<g>
			<path style="fill:#18288A;" d="M228.85,184.88h102.46c0,0-10.5,35.29-10.81,71.86s8.79,46.91,30.87,72.29
				c30.19,34.7,69.78,70.97,79.45,84.27c9.67,13.3,47.15,75.86,7.56,133.89s-114.55,63.17-158.98,31.74
				c-44.43-31.43-50.55-70.12-50.55-123.8C228.85,404.36,228.85,184.88,228.85,184.88z"/>
			<g>
				<path style="fill:#78A6D9;" d="M230.92,252.46c-0.69-0.42-1.38-0.85-2.07-1.27c0,1.06,0,2.13,0,3.21
					c4.64,2.93,9.15,6.06,13.7,9.16c6.58,4.46,13.08,9.11,20.16,12.84c19.23,9.43,40.68,12.14,61.85,13.28
					c-0.37-1.12-0.72-2.27-1.04-3.45c-22.93-1.22-46.41-4.26-66.15-16.44C248.42,264.26,239.87,258.06,230.92,252.46z"/>
				<path style="fill:#78A6D9;" d="M299.93,224.25c-13.32-2.12-26.09-6.53-38.56-11.65c-10.46-4.06-21.36-6.97-32.52-8.03
					c0,1.08,0,2.2,0,3.35c10.63,1.26,21.17,4.29,31.01,8.34c19.6,8.69,40.78,15.01,62.37,14.61c0.21-1.77,0.43-3.52,0.67-5.24
					C315.23,225.95,307.52,225.5,299.93,224.25z"/>
				<path style="fill:#78A6D9;" d="M267.83,243.39c17.93,8.93,33.98,12.52,52.67,13.51c0-0.06,0-0.11,0-0.17
					c0.01-1.03,0.03-2.05,0.05-3.08c-18.97-0.75-35.04-4.28-53.29-13.33c-12.72-6.71-24.99-14.68-38.42-19.95c0,0.67,0,1.35,0,2.04
					c6.14,2.59,12.05,5.8,17.87,9.01C253.81,235.32,260.61,239.71,267.83,243.39z"/>
				<path style="fill:#78A6D9;" d="M247.67,227.31c6.46,3.39,12.83,7.09,19.55,10.06c6.53,2.83,13.54,6.17,20.27,8.53
					c10.63,3.83,21.89,5.1,33.14,5.38c0.04-1.1,0.08-2.19,0.14-3.28c-1.36-0.02-2.73-0.04-4.09-0.1c-9.6-0.28-19.15-1.59-28.25-4.72
					c-4.54-1.52-8.99-3.43-13.46-5.34c-3.91-1.68-9.53-3.98-13.26-5.91c-10.8-5.34-21.33-11.72-32.85-15.43c0,0.72,0,1.44,0,2.18
					c1.95,0.68,3.88,1.45,5.79,2.27C239.07,222.86,243.39,225.05,247.67,227.31z"/>
				<path style="fill:#78A6D9;" d="M248.51,223.38c7.54,3.73,18.66,8.32,26.51,11.65c4.45,1.86,8.95,3.69,13.59,5.23
					c10.35,3.62,21.38,4.78,32.32,4.85c0.08-1.31,0.17-2.61,0.28-3.9c-23.02,0.31-34.22-4.62-58.34-14.57
					c-9.02-3.55-17.4-8.07-26.47-11.65c-2.46-0.94-4.99-1.66-7.55-2.25c0,0.82,0,1.65,0,2.5c2.26,0.58,4.48,1.27,6.64,2.13
					C239.88,219.07,244.15,221.3,248.51,223.38z"/>
				<path style="fill:#78A6D9;" d="M359.58,532.94c-12.71,1.84-25.17,5.27-37.49,8.72c-4.48,1.28-8.95,2.59-13.4,3.93
					c-1.89,0.58-4.71,1.45-6.64,1.74c-17.47,2.39-35.26,2.16-52.91,1.5c0.4,0.59,0.81,1.18,1.22,1.77
					c5.68,0.2,11.36,0.32,17.05,0.35c12.8-0.19,25.87,0.24,38.46-2.59c5.55-1.61,11.2-3.26,16.76-4.79
					c8.96-2.45,17.94-4.82,27.01-6.7c9.04-1.96,18.26-2.79,27.52-3.48c18.52-1.32,37.12-1.71,55.69-1.48
					c4.69,0.06,9.38,0.15,14.07,0.3c0.28-0.6,0.56-1.2,0.82-1.8C418.34,529.25,388.82,529.65,359.58,532.94z"/>
				<path style="fill:#78A6D9;" d="M249.88,192.06c11.32,3.44,22.56,7.63,34.17,10.14c13.89,2.82,28.13,3.42,42.28,3.35
					c0.24-1.2,0.49-2.36,0.73-3.48c-15.35,0.21-30.76-0.41-45.74-3.89c-10.17-3-20.32-6.07-30.51-9.17
					c-4.84-1.42-9.65-2.89-14.53-4.14h-7.44c0,0,0,0.42,0,1.21C235.95,187.65,242.94,189.93,249.88,192.06z"/>
				<path style="fill:#78A6D9;" d="M329.7,190.86c0.41-1.6,0.76-2.92,1.03-3.9c-14,0.35-28.07-0.27-41.96-2.08h-16.92
					C290.72,189.52,310.26,191.48,329.7,190.86z"/>
				<path style="fill:#78A6D9;" d="M242.5,272.95c7.24,5.09,14.37,10.55,22.43,14.39c11.87,5.34,24.65,8.42,37.49,10.27
					c8.86,1.3,17.78,2.04,26.7,2.47c-0.63-1.14-1.22-2.3-1.78-3.47c-8.19-0.41-16.35-1.1-24.45-2.25
					c-15.8-2.37-31.77-6.01-45.34-14.69c-9.09-5.79-17.73-12.34-26.69-18.4c-0.67-0.45-1.34-0.89-2-1.33c0,1.09,0,2.19,0,3.29
					C233.45,266.39,237.95,269.7,242.5,272.95z"/>
				<path style="fill:#78A6D9;" d="M243.47,240.71c6.07,3.89,16.13,10.68,22.3,14.16c16.77,9.42,35.99,13.04,55.04,13.82
					c-0.07-1.09-0.13-2.21-0.17-3.36c-22.49-0.82-43.99-5.95-62.93-18.98c-9.19-5.74-18.87-12.39-28.86-17.53c0,1.01,0,2.04,0,3.08
					C233.85,234.62,238.69,237.67,243.47,240.71z"/>
				<path style="fill:#78A6D9;" d="M362.31,541.56c-16.37,2.09-32.58,8.01-48.22,13.08c-3.92,1.27-7.77,2.7-11.85,3.35
					c-4.04,0.69-8.16,1.08-12.29,1.36c-10.76,0.69-21.58,0.76-32.36,0.36c0.52,0.58,1.04,1.16,1.57,1.73
					c6.14,0.22,12.27,0.27,18.41,0.17c8.35-0.18,16.69-0.49,24.97-1.83c7.16-1.26,16.95-5.06,23.98-7.15
					c11.85-3.65,23.72-7.4,36.04-8.93c20.58-2.27,41.4-1.7,62.07-1.08c5.43,0.18,10.85,0.42,16.28,0.67
					c0.37-0.59,0.73-1.18,1.08-1.76C415.47,540.1,388.79,538.9,362.31,541.56z"/>
				<path style="fill:#78A6D9;" d="M268.99,270.35c16.83,7.41,35.13,10.2,53.37,10.89c-0.22-1.11-0.42-2.24-0.59-3.41
					c-22.65-0.83-45.66-4.96-64.69-17.77c-9.01-5.52-18.48-11.86-28.23-16.94c0,1.02,0,2.06,0,3.1c4.65,2.56,9.17,5.36,13.65,8.16
					C250.3,259.19,260.71,266.52,268.99,270.35z"/>
				<path style="fill:#78A6D9;" d="M241.84,246.66c6.07,3.89,16.13,10.68,22.3,14.16c17.4,9.78,37.44,13.3,57.2,13.9
					c-0.13-1.09-0.24-2.22-0.34-3.37c-23.21-0.58-45.43-5.63-64.93-19.04c-8.69-5.43-17.82-11.67-27.23-16.67c0,1.03,0,2.07,0,3.11
					C233.28,241.23,237.58,243.95,241.84,246.66z"/>
				<path style="fill:#78A6D9;" d="M246.76,205.34c8.96,2.57,17.55,6.43,26.58,9.01c2,0.48,4.8,1.21,6.8,1.8
					c14.03,4.12,28.7,5.62,43.27,5.93c0.18-1.17,0.35-2.32,0.54-3.46c-16.85-0.17-33.53-2.28-49.64-7.67
					c-9.02-2.45-17.62-6.19-26.69-8.66c-6.15-1.71-12.44-2.83-18.77-3.6c0,0.93,0,1.91,0,2.93
					C234.92,202.48,240.91,203.64,246.76,205.34z"/>
				<path style="fill:#78A6D9;" d="M258.76,189.76c8.36,2.95,16.72,5.92,25.45,7.77c14.25,2.73,28.72,3.32,43.16,3.12
					c0.26-1.2,0.52-2.34,0.77-3.42c-1.38,0-2.77,0.01-4.15,0c-13.07-0.07-26.31-0.61-39.14-2.95c-11-2.19-21.68-5.99-32.47-9.41
					h-7.59C249.47,186.44,254.11,188.11,258.76,189.76z"/>
				<path style="fill:#78A6D9;" d="M263.04,186.65c20.98,7.28,43.29,9.68,65.43,9.23c0.31-1.32,0.61-2.54,0.89-3.65
					c-21.06,0.19-42.23-1.78-62.53-7.35h-8.6C259.82,185.49,261.42,186.09,263.04,186.65z"/>
				<path style="fill:#78A6D9;" d="M247.34,200.14c9.52,2.61,18.55,7.18,28.25,9.39c15.85,4.45,32.3,6.43,48.73,6.82
					c0.2-1.19,0.4-2.35,0.61-3.49c-16.93-0.25-33.9-2.15-50.12-7.09c-9.05-2.44-17.53-6.25-26.63-8.7
					c-6.35-1.71-12.82-2.74-19.33-3.45c0,0.91,0,1.88,0,2.92C235.11,197.35,241.31,198.44,247.34,200.14z"/>
				<path style="fill:#78A6D9;" d="M248.04,195.75c13.32,4.35,26.82,9.76,40.91,11.75c12.07,1.93,24.29,2.6,36.5,2.62
					c0.23-1.2,0.45-2.37,0.68-3.5c-16.89,0.11-33.98-0.81-50.26-5.42c-9.02-2.36-17.8-5.72-26.9-8.46
					c-6.58-2.01-13.32-3.54-20.11-4.69c0,0.82,0,1.8,0,2.92C235.34,192.19,241.75,193.75,248.04,195.75z"/>
				<path style="fill:#78A6D9;" d="M244.77,235.22c7.53,4.57,18,11.4,25.87,15.11c15.43,7.9,32.69,11.25,49.91,12.1
					c-0.02-1.07-0.04-2.16-0.04-3.28c-22.57-0.78-41.59-5.75-61.81-18.13c-7.54-4.47-18.17-11.05-25.85-15.03
					c-1.32-0.68-2.65-1.35-3.99-1.99c0,0.7,0,1.4,0,2.12C234.32,228.82,239.54,232.13,244.77,235.22z"/>
				<path style="fill:#78A6D9;" d="M339.27,592.85c-5,0.72-10.1,2.58-13.53,4.03c0.53,0.07,1.06,0.14,1.59,0.21
					c3.3-1.33,7.73-2.83,12.06-3.45c8.89-1.28,22.34-1.35,35.59-0.21c0.69-0.2,1.39-0.4,2.08-0.62
					C363.11,591.49,348.66,591.5,339.27,592.85z"/>
				<path style="fill:#78A6D9;" d="M374.93,589.16l-0.59,0.06c-5.25,0.54-10.26,0.69-15.56,0.85c-8.18,0.25-16.63,0.5-26.42,2.26
					c-5.54,1-9.63,2.15-12.98,3.46c0.5,0.1,1.01,0.2,1.51,0.29c3.08-1.11,6.79-2.1,11.61-2.97c9.73-1.75,18.16-2,26.3-2.25
					c5.32-0.16,10.34-0.31,15.62-0.85l0.59-0.06c4.84-0.5,8.83-0.91,12.91-1.11c0.68-0.29,1.36-0.58,2.04-0.89
					C385.12,588.12,380.6,588.58,374.93,589.16z"/>
				<path style="fill:#78A6D9;" d="M372.55,584.59c-6.05,0.94-11.64,1.23-17.56,1.54c-7.13,0.37-14.5,0.75-23.28,2.33
					c-9.13,1.64-14.39,3.54-18.8,5.86c0.39,0.1,0.78,0.2,1.18,0.3c4.2-2.1,9.3-3.85,17.77-5.37c8.73-1.57,16.07-1.95,23.17-2.31
					c5.94-0.31,11.54-0.6,17.64-1.55c7.45-1.16,15.09-1.52,24.66-1.03c0.45-0.24,0.9-0.48,1.34-0.73
					C388.43,583.02,380.39,583.36,372.55,584.59z"/>
				<path style="fill:#78A6D9;" d="M371.26,582.04c-5.9,0.92-11.3,1.4-17.03,1.91c-7.22,0.64-14.68,1.31-23.64,2.92
					c-10.22,1.84-15.59,4-20.35,6.71c0.36,0.1,0.73,0.21,1.09,0.31c4.54-2.49,9.81-4.5,19.4-6.23c8.93-1.6,16.37-2.27,23.57-2.91
					c5.74-0.51,11.16-0.99,17.08-1.91c8.4-1.31,17.15-1.51,29.55-0.49c0.4-0.23,0.79-0.47,1.18-0.7
					C389.04,580.5,379.97,580.68,371.26,582.04z"/>
				<path style="fill:#78A6D9;" d="M343.36,596.39c-1.34,0.26-2.44,0.9-3.24,1.64c0.43,0.01,0.85,0.02,1.28,0.02
					c0.6-0.39,1.31-0.72,2.12-0.88c1.05-0.2,2.54-0.17,4.25,0.75c0.47-0.02,0.93-0.04,1.4-0.07
					C346.83,596.2,344.76,596.12,343.36,596.39z"/>
				<path style="fill:#78A6D9;" d="M370.69,579.98c-5.85,0.91-11.22,1.42-16.9,1.96c-7.25,0.69-14.75,1.4-23.77,3.02
					c-11.69,2.1-17.11,4.59-22.43,7.8c0.39,0.12,0.79,0.24,1.18,0.36c5.11-3.03,10.33-5.27,21.41-7.26
					c8.98-1.61,16.46-2.32,23.7-3.01c5.7-0.54,11.08-1.05,16.96-1.97c9.81-1.53,19.92-2.3,34.47-1.24c0.42-0.27,0.84-0.55,1.25-0.83
					C391.28,577.63,380.82,578.41,370.69,579.98z"/>
				<path style="fill:#78A6D9;" d="M361.7,545.78c-12.31,1.67-24.21,5.37-36.04,8.97c-5.53,1.68-15.07,4.99-20.54,6.38
					c-14.15,2.74-28.75,3.37-43.21,3.15c0.58,0.58,1.17,1.16,1.77,1.74c4.71,0.04,9.41-0.05,14.12-0.22
					c9.25-0.42,18.59-0.97,27.73-2.89c14.56-4.03,29.7-9.47,44.43-12.77c7.97-1.94,16.03-2.88,24.21-3.18
					c16.38-0.62,32.83,0.03,49.22,0.74c4.73,0.21,9.45,0.44,14.18,0.67c0.28-0.39,0.56-0.78,0.83-1.18
					c0.13-0.19,0.25-0.38,0.37-0.57C413.11,545.17,387.33,543.37,361.7,545.78z"/>
				<path style="fill:#78A6D9;" d="M336.1,597.89c0.48,0.03,0.96,0.04,1.44,0.06c4.99-2.78,10.78-2.96,17.3-0.57
					c0.57-0.06,1.13-0.13,1.7-0.2C348.73,593.92,341.88,594.16,336.1,597.89z"/>
				<path style="fill:#78A6D9;" d="M330.4,597.45c0.53,0.05,1.06,0.1,1.6,0.15c6.4-2.86,14.31-4.32,33.5-1.85
					c0.78-0.16,1.57-0.32,2.35-0.5C345.44,592.16,337.41,594.05,330.4,597.45z"/>
				<path style="fill:#78A6D9;" d="M289.06,555.86c6.23-0.45,12.61-0.94,18.63-2.79c0,0,5.96-1.82,5.96-1.82
					c11.86-3.65,23.77-7.34,35.87-10.06c24.24-5.11,49.5-4.2,74.16-3.78c6.74,0.19,13.47,0.48,20.2,0.8
					c0.32-0.59,0.65-1.18,0.96-1.77c-23.62-1.34-47.33-2.05-70.97-0.66c-8.29,0.5-16.67,1.4-24.81,3.33
					c-14.19,3.23-28.04,7.85-41.9,12.19c-5.9,1.84-12.07,2.3-18.22,2.78c-11.92,0.76-23.92,0.76-35.85,0.2
					c0.45,0.58,0.9,1.15,1.37,1.72C265.99,556.54,277.53,556.56,289.06,555.86z"/>
				<path style="fill:#78A6D9;" d="M361.06,554.19c-3.64,0.48-7.24,1.24-10.81,2.04c-14.25,3.31-28.08,8-41.92,12.37
					c-11.88,3.56-24.42,4.56-36.82,4.34c0.7,0.57,1.42,1.14,2.15,1.71c11.86,0.12,23.78-0.93,35.2-4.29
					c13.94-4.27,27.74-8.83,41.86-12.06c21.26-4.95,43.28-3.49,64.92-2.67c5.26,0.24,10.53,0.5,15.79,0.77
					c0.47-0.57,0.94-1.14,1.41-1.72C408.96,553.36,384.89,551.28,361.06,554.19z"/>
				<path style="fill:#78A6D9;" d="M361.06,558.41c-3.64,0.48-7.24,1.24-10.81,2.04c-14.25,3.31-28.08,8-41.92,12.37
					c-10.14,3.04-20.75,4.21-31.36,4.35c0.76,0.56,1.52,1.11,2.3,1.66c10-0.23,19.96-1.42,29.59-4.25
					c13.94-4.27,27.74-8.83,41.86-12.06c21.26-4.95,43.28-3.49,64.92-2.67c4.1,0.18,8.2,0.38,12.29,0.59
					c0.52-0.57,1.03-1.15,1.54-1.73C406.7,557.39,383.77,555.63,361.06,558.41z"/>
				<path style="fill:#78A6D9;" d="M361.06,550.16c-3.64,0.48-7.24,1.24-10.81,2.04c-14.25,3.31-28.08,8-41.92,12.37
					c-13.44,4.03-27.73,4.78-41.71,4.19c0.65,0.58,1.31,1.16,1.98,1.74c13.53,0.5,27.22-0.33,40.27-4.16
					c13.94-4.27,27.74-8.83,41.86-12.06c21.26-4.95,43.28-3.49,64.92-2.67c6.3,0.28,12.6,0.6,18.9,0.93
					c0.43-0.56,0.85-1.14,1.27-1.72C410.96,549.5,385.88,547.12,361.06,550.16z"/>
				<path style="fill:#78A6D9;" d="M392.88,560.87c-13.9-0.48-28.07-0.37-41.68,2.93c-17.05,3.79-33.08,10.58-50.03,14.38
					c-5.94,1.27-11.93,2.41-17.96,3.3c0.68,0.43,1.36,0.86,2.06,1.27c8.89-1.37,17.69-3.22,26.39-5.59
					c13.35-3.93,26.5-8.39,39.99-11.42c20.32-4.68,41.32-2.88,61.96-1.97l10.63,0.55c0.58-0.58,1.15-1.18,1.72-1.77
					C414.95,561.87,403.93,561.24,392.88,560.87z"/>
				<path style="fill:#78A6D9;" d="M374.32,586.89c-6.06,0.94-11.91,1.1-18.1,1.27c-7.42,0.2-15.09,0.42-23.86,1.99
					c-7.58,1.36-12.51,2.98-16.49,4.87c0.43,0.1,0.85,0.2,1.28,0.3c3.77-1.68,8.45-3.14,15.35-4.38c8.72-1.57,16.36-1.78,23.74-1.98
					c6.22-0.17,12.09-0.33,18.2-1.28c6.53-1.02,12.21-1.6,19.34-1.52c0.52-0.26,1.04-0.51,1.56-0.77
					C387.43,585.2,381.37,585.8,374.32,586.89z"/>
				<path style="fill:#78A6D9;" d="M363,574.06c-8.23,1.86-14.05,2.99-21.41,4.42c-4.35,0.85-9.28,1.8-15.44,3.06
					c-13.21,2.69-18.27,5.26-24.55,9.15c0.39,0.15,0.79,0.3,1.19,0.45c5.9-3.6,10.99-6.05,23.56-8.61
					c6.15-1.25,11.08-2.21,15.43-3.06c7.37-1.43,13.2-2.56,21.44-4.43c13.19-2.98,31.78-3.49,50.61-1.47
					c0.38-0.29,0.75-0.59,1.13-0.89C395.67,570.51,376.53,571,363,574.06z"/>
				<path style="fill:#78A6D9;" d="M329.7,583.96c7.39-1.33,13.35-1.95,19.12-2.55c6.53-0.68,12.7-1.32,19.84-2.94
					c12.23-2.77,25.9-3.48,41.54-2.16c0.41-0.29,0.81-0.6,1.21-0.9c-16.22-1.46-30.36-0.77-42.98,2.08
					c-7.08,1.6-13.22,2.24-19.72,2.92c-5.79,0.6-11.77,1.23-19.19,2.56c-13.1,2.35-18.34,5.19-24.37,9
					c0.41,0.14,0.82,0.28,1.23,0.41C312.2,588.75,317.25,586.19,329.7,583.96z"/>
				<path style="fill:#78A6D9;" d="M408.49,568.55c-10.33-0.68-21-1.39-28.01-1c-23.37,1.31-62.13,11.7-84.46,20.82
					c0.42,0.19,0.84,0.38,1.27,0.57c22.37-8.99,60.29-19.09,83.25-20.38c6.95-0.39,17.59,0.32,27.89,1c3.28,0.22,6.5,0.43,9.55,0.61
					c0.36-0.31,0.72-0.63,1.07-0.94C415.7,569.03,412.13,568.79,408.49,568.55z"/>
				<path style="fill:#78A6D9;" d="M377.13,564.54c-18.32,1.16-45.44,8.98-71.68,16.54c-5.31,1.53-10.4,3-15.37,4.4
					c0.43,0.23,0.87,0.45,1.3,0.67c4.64-1.31,9.39-2.68,14.34-4.11c26.18-7.55,53.26-15.35,71.46-16.5
					c7.07-0.45,18.86,0.12,30.26,0.67c5,0.24,9.86,0.47,14.2,0.62c0.34-0.32,0.68-0.65,1.01-0.97c-4.58-0.14-9.79-0.39-15.17-0.65
					C396.08,564.66,384.26,564.09,377.13,564.54z"/>
				<path style="fill:#78A6D9;" d="M276.35,226.09c-13.08-5.29-25.95-11.41-39.66-15.04c-2.58-0.69-5.19-1.31-7.84-1.77
					c0,0.83,0,1.67,0,2.54c6.96,1.31,13.79,3.73,20.4,6.18c28.03,11.24,43.15,21.07,72.23,19.97c0.11-1.24,0.24-2.48,0.37-3.7
					C306.11,235.07,291.47,232.37,276.35,226.09z"/>
				<path style="fill:#78A6D9;" d="M356.24,503.43c-4.94,0.85-9.8,1.97-14.64,3.17c-9.67,2.39-19.23,5.13-28.84,7.58
					c-9.58,2.45-19.25,4.68-29.17,4.87c-17.17,0.62-33.66-4.28-50.22-8.33c0.12,0.54,0.24,1.08,0.36,1.62
					c16.4,4.07,32.82,8.89,49.9,8.3c10.02-0.17,19.87-2.4,29.54-4.8c9.67-2.39,19.24-5.07,28.87-7.43
					c19.3-4.65,39.07-6.85,58.77-9.01c18.33-1.83,36.73-2.89,55.15-3.02c0.03-0.54,0.06-1.07,0.09-1.61
					C422.61,494.79,389.23,498.03,356.24,503.43z"/>
				<path style="fill:#78A6D9;" d="M265.34,297.77c13.28,6.65,28.18,9,42.79,10.45c9.03,0.82,18.08,1.22,27.12,1.37
					c-0.86-1.16-1.67-2.32-2.45-3.47c-19.66-0.34-39.54-1.45-58.19-7.8c-10.81-3.75-20.24-10.63-29.61-17.47
					c-5.41-3.91-10.66-8.03-16.15-11.82c0,1.11,0,2.23,0,3.35c4.88,3.51,9.61,7.26,14.42,10.8
					C250.31,288.43,257.47,293.73,265.34,297.77z"/>
				<path style="fill:#78A6D9;" d="M298.83,541.91c19.68-2.81,38.3-10.32,57.78-13.81c4.84-0.82,9.75-1.4,14.66-1.93
					c26.47-2.75,53.1-3.89,79.71-4.11c0.21-0.61,0.41-1.23,0.6-1.84c-26.89,0.02-53.78,1.14-80.54,3.83
					c-4.94,0.53-9.87,1.09-14.8,1.92c-14.67,2.67-28.81,7.62-43.22,11.18c-23.01,6.25-46.9,4.79-70.23,0.85
					c0.31,0.63,0.64,1.25,0.96,1.87c3.45,0.58,6.91,1.1,10.39,1.55C268.94,543.35,284.01,543.99,298.83,541.91z"/>
				<path style="fill:#78A6D9;" d="M356.22,508.97c-4.94,0.86-9.81,1.98-14.64,3.17c-9.67,2.39-19.23,5.13-28.84,7.59
					c-9.57,2.45-19.23,4.69-29.14,4.87c-16.67,0.61-32.71-4-48.79-7.98c0.16,0.62,0.33,1.24,0.51,1.85
					c15.88,3.99,31.8,8.49,48.34,7.92c10.03-0.17,19.89-2.4,29.57-4.79c14.48-3.52,28.72-7.93,43.38-10.5
					c32.66-5.45,65.75-8.67,98.87-8.96c0.07-0.61,0.14-1.21,0.2-1.81C422.34,500.36,389.08,503.59,356.22,508.97z"/>
				<path style="fill:#78A6D9;" d="M298.65,533.9c14.79-2.13,29.07-6.8,43.46-10.47c19.17-5,38.98-6.57,58.64-8.42
					c17.59-1.45,35.24-2.28,52.9-2.43c0.14-0.61,0.27-1.22,0.4-1.82c-17.84,0.01-35.68,0.79-53.46,2.22
					c-14.85,1.22-29.68,2.75-44.41,5.13c-19.55,3.53-38.16,11.03-57.78,13.99c-20.15,2.79-40.31-0.47-60.14-4.52
					c0.23,0.62,0.47,1.25,0.71,1.86C258.63,533.46,278.65,536.63,298.65,533.9z"/>
				<path style="fill:#78A6D9;" d="M332.78,414.91c-37.11,5.73-56.86,5.5-75.48-0.86c-10.85-3.71-21.66-14.44-28.44-22.23
					c0,0.83,0,1.66,0,2.48c6.9,7.75,17.27,17.62,27.93,21.27c9.9,3.38,20.09,5.06,32.92,5.06c11.66,0,25.5-1.38,43.28-4.13
					c0.1-0.01,9.79-0.98,25.66-4.33c13.21-2.79,33.27-7.78,56.7-16.13c-0.41-0.42-0.81-0.84-1.22-1.27
					C367.39,411.35,333.18,414.87,332.78,414.91z"/>
				<path style="fill:#78A6D9;" d="M311.28,504.33c14.93-3.73,29.63-8.25,44.85-10.59c15.18-2.44,30.44-4.46,45.73-6.04
					c18-1.84,36.08-3.08,54.17-3.3c-0.02-0.44-0.04-0.88-0.07-1.32c-33.53,0.37-66.97,3.94-100.08,9.09
					c-15.25,2.36-30.05,7.01-44.95,10.79c-32.49,9.18-51.19,5.98-79.59-3.64c0.06,0.45,0.13,0.9,0.2,1.34
					c6.15,2.1,12.34,4.09,18.67,5.66C272.43,512,289.45,510.18,311.28,504.33z"/>
				<path style="fill:#78A6D9;" d="M294.94,546.58c3.48-0.21,7.16-0.61,10.51-1.7c14.49-4.16,29.04-8.46,43.77-11.56
					c18.22-3.55,36.86-4.29,55.36-5.38c14.89-0.72,29.79-1.11,44.7-1.23c0.24-0.62,0.49-1.24,0.72-1.86
					c-15.17,0.01-30.35,0.35-45.51,1.05c-16.29,0.84-32.62,1.7-48.79,4.04c-17.27,2.99-34,8.26-50.77,13.17
					c-7.75,2.32-15.96,1.85-23.98,1.88c-11.79-0.23-23.55-1.03-35.33-1.78c0.34,0.58,0.68,1.16,1.03,1.74
					c6.75,0.46,13.51,0.92,20.28,1.27C276.26,546.67,285.58,547.1,294.94,546.58z"/>
				<path style="fill:#78A6D9;" d="M400.59,508.4c-14.85,1.22-29.68,2.75-44.41,5.13c-19.55,3.53-38.16,11.03-57.78,13.99
					c-20.73,2.87-41.46-0.67-61.84-4.87c0.2,0.62,0.4,1.23,0.61,1.84c20.24,4.2,40.86,7.65,61.48,4.84
					c14.79-2.13,29.07-6.8,43.46-10.47c19.17-5,38.98-6.57,58.64-8.42c17.9-1.47,35.86-2.31,53.83-2.44
					c0.11-0.61,0.22-1.21,0.31-1.82C436.77,506.17,418.65,506.95,400.59,508.4z"/>
				<path style="fill:#78A6D9;" d="M403.57,492.09c-15.09,1.57-30.12,3.65-45.1,6.09c-14.99,2.45-29.55,7.03-44.23,10.73
					c-34.8,9.79-50.97,4.19-81.88-3.32c0.08,0.42,0.16,0.84,0.24,1.26c7.26,1.78,14.48,3.78,21.82,5.39
					c9.9,2.2,20.06,3.57,30.23,3.18c10.17-0.28,20.13-2.68,29.96-5.14c14.7-3.65,29.18-8.13,44.14-10.53
					c32.21-5.32,64.78-9.05,97.44-9.52c0-0.45,0-0.9-0.01-1.35C438.59,489.09,421.04,490.27,403.57,492.09z"/>
				<path style="fill:#78A6D9;" d="M318.59,443.85c-10.94,1.37-20.38,2.56-28.24,3.71c-32.38,4.76-49.26-8.31-61.5-18.47
					c0,0.92,0,1.81,0,2.7c10.56,8.67,24.56,18.87,48.2,18.87c4.22,0,8.74-0.32,13.6-1.04c7.83-1.15,17.27-2.34,28.19-3.71
					c30.58-3.84,73.89-9.28,120.26-19.19c-0.35-0.65-0.7-1.29-1.05-1.91C392.01,434.64,349,440.04,318.59,443.85z"/>
				<path style="fill:#78A6D9;" d="M312.57,438.73c-7.89,0.6-15.35,1.16-22.16,1.82c-32.57,3.16-49.41-9.1-61.56-18.97
					c0,0.83,0,1.66,0,2.47c10.93,8.77,25.65,18.93,51.36,18.93c3.28,0,6.74-0.17,10.39-0.52c6.78-0.66,14.23-1.22,22.12-1.82
					c32.1-2.43,73.88-5.6,123.55-18.97c-0.35-0.6-0.69-1.16-1.03-1.71C385.96,433.17,344.48,436.31,312.57,438.73z"/>
				<path style="fill:#78A6D9;" d="M317.2,451.84c-10.94,1.37-20.38,2.56-28.24,3.71c-30.17,4.43-47.5-8.54-60.11-19.26
					c0,1.07,0,2.12,0,3.14c10.66,8.89,25.58,19.4,48.52,19.4c3.76,0,7.73-0.28,11.94-0.9c7.83-1.15,17.27-2.34,28.19-3.71
					c31.67-3.98,77-9.67,125.26-20.27c-0.36-0.76-0.71-1.5-1.07-2.23C393.74,442.23,348.7,447.88,317.2,451.84z"/>
				<path style="fill:#78A6D9;" d="M389.54,413.93c-14.23,0.65-22.43,1.78-42.26,4.5c-7.6,1.04-17.07,2.34-29.21,3.93
					c-43.28,5.66-57.9,0.29-68.2-5.19c-7.23-3.84-14.4-10.84-21-17.82c0,0.78,0,1.55,0,2.32c6.37,6.66,13.24,13.19,20.25,16.91
					c7.37,3.92,16.88,7.79,36.95,7.79c8.59,0,19.11-0.71,32.22-2.43c12.15-1.59,21.62-2.89,29.22-3.93
					c19.78-2.71,27.96-3.84,42.12-4.49c16.75-0.77,24.71-2.4,36.22-8.31c-0.35-0.4-0.73-0.82-1.11-1.23
					C413.64,411.61,405.81,413.19,389.54,413.93z"/>
				<path style="fill:#78A6D9;" d="M314.5,432.71c-7.89,0.6-15.35,1.16-22.15,1.82c-34.29,3.33-51.18-10.4-63.49-20.48
					c0,0.69,0,1.39,0,2.07c11.12,9.08,26.01,20.53,53.28,20.53c3.27,0,6.72-0.16,10.37-0.52c6.79-0.66,14.23-1.22,22.12-1.82
					c31.01-2.35,71.05-5.39,118.52-17.65c-0.33-0.5-0.64-0.97-0.94-1.41C385.1,427.35,345.33,430.37,314.5,432.71z"/>
				<path style="fill:#78A6D9;" d="M315.79,458.61c-10.93,1.37-20.37,2.56-28.23,3.71c-30.02,4.42-46.69-6.54-58.7-16.24
					c0,1.06,0,2.09,0,3.08c10.25,8.09,23.82,16.58,45.42,16.58c4.23,0,8.76-0.33,13.63-1.04c7.83-1.15,17.26-2.34,28.18-3.71
					c32.55-4.09,79.54-9.99,129.29-21.17c-0.32-0.76-0.64-1.51-0.97-2.25C394.93,448.66,348.2,454.54,315.79,458.61z"/>
				<path style="fill:#78A6D9;" d="M404.65,479.77c-20.11,2.64-41.9,6.78-61.96,10.15c-10.31,1.8-20.6,3.68-30.88,5.65
					c-8.96,1.67-21.87,4.6-30.81,5.33c-17.78,2.03-34.31-2.05-50.51-8.35c0.07,0.69,0.15,1.37,0.23,2.05
					c11.13,4.32,22.67,7.81,34.64,8.54c10.54,0.72,21.12-0.52,31.44-2.56c14.92-2.82,31.4-5.81,46.29-8.34
					c37.15-6.38,74.61-13.56,112.38-14.82c-0.08-0.68-0.15-1.36-0.24-2.04C438.29,475.86,421.41,477.53,404.65,479.77z"/>
				<path style="fill:#78A6D9;" d="M374.11,477.48c-20.05,3.7-42.01,7.25-61.94,11.16c-30.43,6.52-54.93,10.33-82.34-3.31
					c0.06,0.84,0.13,1.67,0.2,2.5c27.55,13.37,51.75,9.55,82.61,3.29c15.41-2.83,31.04-5.47,46.49-8.09
					c14.94-2.78,31.52-5.86,46.47-7.99c16.2-2.32,32.5-4.12,48.85-4.81c-0.14-0.8-0.29-1.6-0.44-2.39
					C427.16,468.79,400.52,472.78,374.11,477.48z"/>
				<path style="fill:#78A6D9;" d="M405.34,466.05c-31.25,3.84-62.38,8.73-93.27,14.85c-30.53,6.59-55.17,10.39-82.74-3.56
					c0.05,1.07,0.11,2.13,0.17,3.19c27.79,13.65,52.06,9.83,83.17,3.56c41.2-7.6,82.65-13.81,124.29-18.46
					c5.4-0.62,10.8-1.21,16.2-1.78c-0.23-1.03-0.48-2.06-0.73-3.07C436.71,462.27,421.01,464.07,405.34,466.05z"/>
				<path style="fill:#78A6D9;" d="M298.73,537.65c19.68-2.8,38.3-10.32,57.79-13.81c4.84-0.82,9.76-1.4,14.67-1.93
					c26.94-2.8,54.04-3.93,81.13-4.12c0.17-0.61,0.34-1.22,0.5-1.83c-27.32-0.01-54.66,1.09-81.85,3.83
					c-4.94,0.53-9.87,1.09-14.8,1.92c-14.68,2.68-28.82,7.62-43.22,11.18c-23.76,6.51-48.43,4.51-72.45,0.18
					c0.27,0.62,0.55,1.23,0.83,1.85c4.23,0.76,8.47,1.45,12.73,2.03C268.83,538.97,283.91,539.73,298.73,537.65z"/>
				<path style="fill:#78A6D9;" d="M290.78,352.43c-2.5-0.37-5.25-0.77-7.71-1.29c-10.26-2-19.44-7.32-28.16-12.96
					c-9.15-6.08-17.83-12.92-26.06-20.22c0,0.63,0,1.27,0,1.91c2.69,2.41,5.43,4.76,8.22,7.07c13.28,10.64,28.66,22.55,45.58,26.23
					c3.36,0.71,7.06,1.29,10.48,1.67c25.77,2.73,51.59-0.74,76.97-5.21c-0.69-0.73-1.38-1.47-2.07-2.21
					C342.56,352,316.56,355.47,290.78,352.43z"/>
				<path style="fill:#78A6D9;" d="M286.76,380.4c-18.19-2.09-34.87-12.62-45.66-21.09c-4.9-3.85-9.06-7.62-12.25-10.72
					c0,0.74,0,1.48,0,2.22c3.05,2.91,6.85,6.3,11.23,9.74c10.96,8.6,27.92,19.31,46.49,21.44c2.78,0.32,6.11,0.47,9.87,0.47
					c24.48,0,66.96-6.34,92.75-13.02c-0.43-0.44-0.86-0.88-1.29-1.32C358.18,375.71,307.33,382.77,286.76,380.4z"/>
				<path style="fill:#78A6D9;" d="M285.96,372.68c-22.98-2.7-45.58-20.95-57.1-31.69c0,0.73,0,1.45,0,2.18
					c11.98,10.97,34.22,28.44,56.92,31.11c5.14,0.6,10.84,0.91,17.09,0.91c21.12,0,48.56-3.45,81.87-10.31
					c-0.44-0.45-0.88-0.91-1.32-1.36C340.89,372.2,308.12,375.29,285.96,372.68z"/>
				<path style="fill:#78A6D9;" d="M287.67,358.91c-17.03-2-33.83-12.95-44.93-21.79c-5.63-4.48-10.39-8.88-13.89-12.32
					c0,0.84,0,1.68,0,2.51c3.38,3.26,7.72,7.19,12.74,11.19c11.28,8.99,28.4,20.13,45.87,22.19c6.27,0.74,12.97,1.05,19.84,1.05
					c24.83,0,51.77-4.08,67.69-6.97c-0.5-0.52-0.99-1.04-1.49-1.56C353,356.88,315.82,362.22,287.67,358.91z"/>
				<path style="fill:#78A6D9;" d="M285.96,387.1c-18.19-2.09-34.87-12.62-45.66-21.09c-4.5-3.53-8.37-7.01-11.45-9.95
					c0,0.74,0,1.47,0,2.21c2.91,2.73,6.42,5.84,10.43,8.98c10.96,8.6,27.92,19.31,46.49,21.44c2.78,0.32,6.11,0.47,9.87,0.47
					c26.43,0,73.83-7.38,98.57-14.62c-0.43-0.43-0.85-0.86-1.28-1.3C364.55,381.4,307.95,389.63,285.96,387.1z"/>
				<path style="fill:#78A6D9;" d="M285.42,365.29c-17.06-2.01-33.88-12.97-44.98-21.81c-4.48-3.56-8.41-7.08-11.59-10.1
					c0,0.73,0,1.47,0,2.2c3,2.8,6.57,5.94,10.57,9.13c11.27,8.98,28.38,20.12,45.81,22.17c6.26,0.74,12.96,1.05,19.83,1.05
					c28.93,0,60.73-5.55,74.61-8.27c-0.44-0.46-0.88-0.91-1.33-1.37C360.56,361.74,317.22,369.03,285.42,365.29z"/>
				<path style="fill:#78A6D9;" d="M283.87,409.61c3.08,0.31,6.89,0.47,11.29,0.47c28.15,0,80.01-6.49,113.54-20.85
					c-0.4-0.41-0.8-0.81-1.2-1.23c-38.55,16.31-100.91,22.28-123.46,20.01c-24.24-2.44-43.6-18.23-55.18-30.42c0,0.77,0,1.54,0,2.3
					C240.74,392.09,259.96,407.19,283.87,409.61z"/>
				<path style="fill:#78A6D9;" d="M286.44,394.61c-24.28-2.79-46.33-20.92-57.58-31.8c0,0.74,0,1.48,0,2.21
					c11.72,11.1,33.46,28.42,57.4,31.18c3.31,0.38,7.53,0.58,12.44,0.58c25.18,0,68.59-5.12,101.07-16.6
					c-0.41-0.42-0.82-0.83-1.24-1.26C360.01,392.38,306.44,396.91,286.44,394.61z"/>
				<path style="fill:#78A6D9;" d="M284.94,401.83c-24.75-2.5-44.51-19.24-56.09-31.8c0,0.78,0,1.56,0,2.34
					c11.9,12.59,31.52,28.59,55.93,31.06c3.08,0.31,6.89,0.47,11.29,0.47c26.79,0,75.04-5.88,108.54-18.82
					c-0.4-0.41-0.81-0.82-1.22-1.24C364.64,398.62,306.54,404.01,284.94,401.83z"/>
				<path style="fill:#78A6D9;" d="M287.89,344.91c-1.21-0.2-3.64-0.67-4.84-0.93c-11.32-2.19-21.29-8.35-30.73-14.76
					c-8.18-5.71-16-11.99-23.46-18.64c0,0.79,0,1.58,0,2.37c14.33,13.04,31.3,26.31,48.77,32.18c22.7,6.06,46.57,5.27,69.64,2.15
					c6.01-0.81,11.97-1.83,17.93-2.91c-0.7-0.75-1.39-1.5-2.08-2.25C338.31,346.48,312.82,349.36,287.89,344.91z"/>
				<path style="fill:#78A6D9;" d="M312.28,314.22c-28.96-0.94-43.04-5.23-66.24-22.77c-5.77-4.15-11.34-8.56-17.19-12.59
					c0,1.11,0,2.23,0,3.35c5.23,3.76,10.29,7.8,15.45,11.58c23.59,18.18,38.19,22.63,67.85,23.72c9.78,0.37,19.55,0.26,29.31-0.04
					c-0.93-1.12-1.83-2.22-2.69-3.3C329.93,314.44,321.09,314.53,312.28,314.22z"/>
				<path style="fill:#78A6D9;" d="M247.34,423.98c7.37,3.92,16.88,7.79,36.95,7.79c8.59,0,19.11-0.71,32.22-2.43
					c31.37-4.11,44.27-5.27,56.74-6.39c4.75-0.43,9.23-0.83,14.64-1.39c8.06-0.83,25.8-3.19,42.41-8.96
					c-0.32-0.42-0.67-0.87-1.04-1.33c-16.3,5.58-33.62,7.88-41.53,8.7c-5.4,0.56-9.88,0.96-14.62,1.39
					c-12.49,1.13-25.41,2.29-56.81,6.4c-43.28,5.67-57.9,0.29-68.2-5.19c-6.59-3.51-13.13-9.56-19.24-15.86c0,0.77,0,1.54,0,2.3
					C234.72,414.97,240.97,420.59,247.34,423.98z"/>
				<path style="fill:#78A6D9;" d="M280.73,416.15c2.41,0.24,5.27,0.36,8.51,0.36c29.04,0,88.28-9.51,122.74-23.93
					c-0.4-0.4-0.8-0.82-1.21-1.23c-38.19,15.8-106.14,25.61-129.88,23.21c-22.6-2.28-40.6-17.05-52.04-29.59c0,0.79,0,1.57,0,2.35
					C240.54,399.77,258.41,413.9,280.73,416.15z"/>
				<path style="fill:#78A6D9;" d="M287.15,469.48c-30.32,4.03-44.74-4.34-58.3-12.77c0,1.27,0.01,2.53,0.02,3.78
					c11.04,6.8,23,13.25,43.35,13.25c4.65,0,9.74-0.34,15.35-1.08c2.58-0.34,5.42-0.72,8.49-1.12c36.11-4.76,99.7-13.13,152.1-24.61
					c-0.37-1.03-0.75-2.04-1.14-3.03c-52.17,11.4-115.42,19.73-151.38,24.46C292.58,468.76,289.74,469.13,287.15,469.48z"/>
				<path style="fill:#78A6D9;" d="M283.02,480.02c6-0.8,13.34-1.71,21.83-2.76c37.4-4.65,97.84-12.17,145.79-22.97
					c-0.32-1.04-0.64-2.06-0.97-3.07c-47.74,10.73-107.94,18.22-145.21,22.85c-8.5,1.06-15.84,1.97-21.86,2.77
					c-26.87,3.57-41.26-2.6-53.62-9.92c0.03,1.27,0.06,2.52,0.1,3.77c9.83,5.65,21.12,10.41,38.6,10.41
					C272.31,481.1,277.4,480.77,283.02,480.02z"/>
				<path style="fill:#78A6D9;" d="M303.02,322.98c-12.77-0.77-26.09-1.91-37.53-7.91c-13.21-7.24-24.97-17.04-36.64-26.74
					c0,1.19,0,2.39,0,3.59c1.12,0.95,2.18,1.85,3.14,2.66c10.21,8.4,20.38,16.82,32.04,23.26c17.13,8.9,39.66,8.55,58.57,8.84
					c8.74-0.02,17.48-0.26,26.2-0.61c-0.97-1.11-1.9-2.2-2.82-3.26C331.67,323.4,317.33,323.66,303.02,322.98z"/>
				<path style="fill:#78A6D9;" d="M286.55,337.95c-20.09-2.42-41.5-19.92-57.7-35.05c0,0.85,0,1.7,0,2.56
					c11.53,10.96,23.94,21.06,37.98,28.62c4.49,2.31,9.34,4.34,14.33,5.3c14.8,3.25,30.08,4.02,45.15,3.07
					c11.2-0.67,22.32-2.17,33.36-4.08c-0.69-0.76-1.38-1.52-2.07-2.29C334.12,339.99,310.08,342.24,286.55,337.95z"/>
				<path style="fill:#78A6D9;" d="M345.14,330.48c-22.86,3.13-46.57,4.06-69.01-2c-16.45-5.68-33.45-19.42-47.27-32.39
					c0,1.08,0,2.16,0,3.25c6.39,5.91,13.05,11.52,20.06,16.73c8.15,5.94,16.78,11.58,26.45,14.81c22.82,6.29,46.91,5.49,70.15,2.41
					c2.84-0.37,5.67-0.8,8.49-1.25c-0.75-0.85-1.49-1.69-2.23-2.54C349.57,329.84,347.36,330.18,345.14,330.48z"/>
			</g>
		</g>
		<g>
			<path style="fill:#18288A;" d="M425.96,599.03c0,0,117.75-22.44,147.9-120.14C573.87,478.89,590.64,607.64,425.96,599.03z"/>
			<g>
				<path style="fill:#78A6D9;" d="M517.64,560.68c-1.56-0.2-2.97-0.38-4.26-0.54c-0.49,0.35-0.97,0.69-1.46,1.04
					c1.62,0.18,3.46,0.42,5.56,0.69c6.78,0.87,15.74,2.02,27.79,2.77c0.37-0.38,0.74-0.76,1.11-1.14
					C533.86,562.76,524.6,561.57,517.64,560.68z"/>
				<path style="fill:#78A6D9;" d="M514.91,563.53c-2.03-0.26-3.8-0.49-5.39-0.67c-0.59,0.41-1.18,0.82-1.78,1.22
					c1.96,0.2,4.24,0.49,6.98,0.84c6.71,0.86,15.56,1.99,27.42,2.75c0.47-0.44,0.94-0.88,1.4-1.32
					C531.08,565.6,521.84,564.42,514.91,563.53z"/>
				<path style="fill:#78A6D9;" d="M506.31,569.08c-1.99-0.25-3.73-0.48-5.28-0.66c-0.65,0.41-1.31,0.8-1.96,1.2
					c1.98,0.2,4.28,0.49,7.07,0.85c7.06,0.91,16.49,2.11,29.3,2.86c0.56-0.43,1.12-0.87,1.67-1.31
					C523.52,571.29,513.63,570.02,506.31,569.08z"/>
				<path style="fill:#78A6D9;" d="M496.08,571.4c-0.65,0.38-1.3,0.76-1.95,1.13c7.88,1.2,20.97,2.76,37.34,3.71
					c0.62-0.43,1.23-0.86,1.83-1.3C518.03,574.1,504.76,572.64,496.08,571.4z"/>
				<path style="fill:#78A6D9;" d="M509.48,566.31c-1.57-0.2-2.99-0.38-4.29-0.54c-0.62,0.4-1.24,0.8-1.86,1.2
					c1.72,0.19,3.68,0.44,5.97,0.73c7.11,0.91,16.62,2.13,29.56,2.87c0.52-0.44,1.03-0.88,1.53-1.32
					C526.75,568.53,516.82,567.25,509.48,566.31z"/>
				<path style="fill:#78A6D9;" d="M528.06,550.48c-0.74-0.07-1.44-0.14-2.13-0.21c-0.43,0.37-0.86,0.72-1.28,1.08
					c1.03,0.1,2.12,0.21,3.29,0.33c5.97,0.6,13.89,1.4,26.54,2.1c0.28-0.39,0.55-0.77,0.82-1.16
					C542.24,551.91,534.14,551.1,528.06,550.48z"/>
				<path style="fill:#78A6D9;" d="M522.85,553.78c-0.35-0.04-0.68-0.07-1.01-0.1c-0.44,0.36-0.89,0.72-1.33,1.08
					c0.72,0.07,1.45,0.14,2.23,0.22c6.37,0.64,14.95,1.5,29.14,2.23c0.31-0.38,0.61-0.77,0.91-1.16
					C538.12,555.31,529.34,554.43,522.85,553.78z"/>
				<path style="fill:#78A6D9;" d="M519.91,557.31c-0.84-0.08-1.63-0.16-2.4-0.24c-0.47,0.36-0.95,0.72-1.42,1.07
					c1.15,0.11,2.37,0.23,3.7,0.36c6.37,0.64,14.95,1.5,29.13,2.23c0.34-0.38,0.67-0.77,1-1.15
					C535.21,558.85,526.41,557.97,519.91,557.31z"/>
				<path style="fill:#78A6D9;" d="M457.49,589.63c-1.21,0.45-2.41,0.89-3.57,1.31c9.33,0.82,23.64,1.85,40,2.23
					c1.77-0.48,3.5-0.98,5.2-1.51C482.61,591.43,467.78,590.48,457.49,589.63z"/>
				<path style="fill:#78A6D9;" d="M490.27,574.69c-0.72,0.39-1.44,0.79-2.15,1.17c7.89,0.92,20.38,2.04,39.33,3.02
					c0.69-0.43,1.36-0.86,2.03-1.3C511.02,576.65,498.49,575.59,490.27,574.69z"/>
				<path style="fill:#78A6D9;" d="M530.67,547.19c-0.39-0.04-0.75-0.08-1.12-0.11c-0.4,0.37-0.81,0.73-1.22,1.09
					c0.71,0.07,1.44,0.14,2.22,0.22c5.92,0.6,13.75,1.38,26.22,2.08c0.26-0.39,0.51-0.77,0.76-1.16
					C544.69,548.6,536.69,547.8,530.67,547.19z"/>
				<path style="fill:#78A6D9;" d="M447.74,593.06c-1.5,0.49-2.94,0.95-4.32,1.38c10.67,0.59,24.89,1.14,38.72,1.44
					c2.37-0.45,4.67-0.95,6.92-1.48C474.95,594.19,459.7,593.66,447.74,593.06z"/>
				<path style="fill:#78A6D9;" d="M463.9,587.14c-0.98,0.4-1.96,0.78-2.92,1.16c9.56,0.84,24.48,1.92,41.48,2.27
					c1.28-0.43,2.53-0.88,3.76-1.34C489.32,589,474.19,588,463.9,587.14z"/>
				<path style="fill:#78A6D9;" d="M463.65,598.45c3.86-0.36,7.59-0.81,11.18-1.34c-12.52-0.23-25.63-0.69-36.33-1.21
					c-1.82,0.52-3.48,0.97-4.94,1.35C442.08,597.71,452.75,598.15,463.65,598.45z"/>
				<path style="fill:#78A6D9;" d="M483.87,578.06c-0.79,0.4-1.58,0.8-2.36,1.19c12.24,1.16,25.79,2.34,40.86,2.63
					c0.81-0.45,1.61-0.9,2.4-1.37C509.71,580.33,496.14,579.21,483.87,578.06z"/>
				<path style="fill:#78A6D9;" d="M476.33,581.74c-0.87,0.4-1.73,0.8-2.58,1.18c9.64,0.85,24.8,1.95,42.06,2.29
					c0.94-0.44,1.88-0.89,2.79-1.35C501.66,583.61,486.53,582.6,476.33,581.74z"/>
				<path style="fill:#78A6D9;" d="M469.96,584.61c-0.91,0.4-1.82,0.78-2.72,1.16c8.92,0.83,24.05,2.01,41.64,2.45
					c1.09-0.43,2.17-0.88,3.23-1.33C494.83,586.55,479.65,585.46,469.96,584.61z"/>
				<path style="fill:#78A6D9;" d="M546.03,529.95c5.99,1.3,13.78,3.04,19.28,4.55c0.16-0.37,0.32-0.74,0.47-1.12
					c-5.36-1.48-12.92-3.18-18.89-4.48C546.6,529.26,546.32,529.61,546.03,529.95z"/>
				<path style="fill:#78A6D9;" d="M567,496.83c-0.22,0.49-0.46,0.97-0.69,1.45c1.58,0.82,4.63,2.44,7.26,4
					c0.07-0.59,0.13-1.18,0.18-1.75C571.21,499.04,568.46,497.58,567,496.83z"/>
				<path style="fill:#78A6D9;" d="M564.32,502.33c1.94,1.01,5.83,3.08,8.62,4.84c0.09-0.58,0.17-1.16,0.25-1.73
					c-2.8-1.72-6.31-3.59-8.13-4.53C564.81,501.38,564.57,501.85,564.32,502.33z"/>
				<path style="fill:#78A6D9;" d="M559.55,510.93c2.52,1.32,7.82,4.16,11.4,6.42c0.1-0.41,0.2-0.83,0.29-1.24
					c-3.6-2.25-8.6-4.92-11.07-6.22C559.96,510.24,559.75,510.59,559.55,510.93z"/>
				<path style="fill:#78A6D9;" d="M562.74,505.33c-0.26,0.47-0.52,0.94-0.78,1.4c2.55,1.35,6.85,3.67,10.06,5.66
					c0.11-0.57,0.22-1.13,0.32-1.69C569.16,508.77,565.18,506.62,562.74,505.33z"/>
				<path style="fill:#78A6D9;" d="M574.35,488.99c0-0.55,0-1.09-0.01-1.6c-1.03-0.54-2.02-0.99-2.9-1.36
					c-0.16,0.44-0.31,0.89-0.48,1.32C571.98,487.78,573.15,488.32,574.35,488.99z"/>
				<path style="fill:#78A6D9;" d="M572.48,483.13c-0.13,0.39-0.27,0.77-0.41,1.16c0.76,0.09,1.52,0.2,2.2,0.3
					c-0.02-0.43-0.03-0.84-0.05-1.22C573.67,483.29,573.08,483.21,572.48,483.13z"/>
				<path style="fill:#78A6D9;" d="M574.14,495.7c-1.83-1.03-3.95-2.18-5.35-2.93c-0.21,0.5-0.43,0.98-0.64,1.47
					c1.57,0.85,3.97,2.15,5.87,3.23C574.07,496.87,574.11,496.28,574.14,495.7z"/>
				<path style="fill:#78A6D9;" d="M574.32,491.34c-1.35-0.76-2.83-1.56-4.04-2.22c-0.2,0.5-0.4,1-0.6,1.5
					c1.41,0.76,3.13,1.7,4.59,2.53C574.28,492.53,574.3,491.93,574.32,491.34z"/>
				<path style="fill:#78A6D9;" d="M564.12,537.19c0.17-0.37,0.34-0.75,0.51-1.12c-6.32-1.39-14.24-2.64-20.85-3.46
					c-0.32,0.37-0.65,0.73-0.97,1.09C549.46,534.5,557.62,535.77,564.12,537.19z"/>
				<path style="fill:#78A6D9;" d="M540.43,536.33c-0.35,0.38-0.71,0.76-1.07,1.14c6.37,0.39,15.21,1.25,23.37,2.64
					c0.19-0.37,0.37-0.75,0.55-1.12C555.4,537.62,546.84,536.76,540.43,536.33z"/>
				<path style="fill:#78A6D9;" d="M555.24,517.75c2.9,1.51,9.12,4.74,13.76,6.66c0.12-0.39,0.24-0.77,0.35-1.15
					c-4.52-1.88-10.57-5.01-13.47-6.52c-0.22,0.34-0.45,0.67-0.68,1C555.22,517.74,555.23,517.74,555.24,517.75z"/>
				<path style="fill:#78A6D9;" d="M537.04,539.88c-0.36,0.37-0.73,0.74-1.09,1.11c6.19,0.56,15.14,1.43,24.97,2.59
					c0.21-0.38,0.41-0.76,0.61-1.14C552.01,541.32,543.29,540.45,537.04,539.88z"/>
				<path style="fill:#78A6D9;" d="M533.5,543.59c-0.06-0.01-0.12-0.01-0.18-0.02c-0.38,0.36-0.75,0.74-1.14,1.09
					c0.39,0.04,0.79,0.08,1.2,0.12c5.84,0.59,13.53,1.36,25.68,2.05c0.23-0.39,0.46-0.78,0.68-1.16
					C547.26,544.97,539.42,544.18,533.5,543.59z"/>
				<path style="fill:#78A6D9;" d="M550.01,524.95c-0.26,0.34-0.52,0.69-0.78,1.03c5.3,1.46,12.33,3.5,17.45,5.14
					c0.14-0.38,0.29-0.75,0.42-1.13C562.11,528.4,555.29,526.41,550.01,524.95z"/>
				<path style="fill:#78A6D9;" d="M557.48,514.27c2.14,1.12,8.5,4.47,12.44,7.01c0.11-0.41,0.22-0.81,0.33-1.21
					c-3.97-2.52-9.94-5.67-12.13-6.81C557.91,513.59,557.7,513.93,557.48,514.27z"/>
				<path style="fill:#78A6D9;" d="M553.03,520.87c-0.24,0.34-0.48,0.68-0.72,1.01c3.61,1.38,10.45,3.88,15.64,5.76
					c0.13-0.38,0.26-0.76,0.38-1.14C563.08,524.6,556.59,522.23,553.03,520.87z"/>
			</g>
		</g>
	</g>
	<g>
		<path style="fill:#18288A;" d="M578.17,308.87c0,0-35.21,32.64-40.95,79.04c-5.07,40.98-3.93,124.53-85.99,165.33
			c0,0,69.37-9.07,92.94-53.5s10.43-117.88,12.69-132.38S557.32,343.33,578.17,308.87z"/>
		<path style="fill:#18288A;" d="M320.55,254.27c10.26,23.15,31.01,39.14,42.58,44.48c15.72,7.25,47.15,13,64.98,15.41
			c17.83,2.42,40.8,13.75,40.8,13.75c-13.15-11.79-33.55-19.95-44.43-23.58c-10.88-3.63-61.2-12.24-82.97-44.88
			s-5.89-85.69-5.89-85.69s-4.84,3.45-9.89,11.11h5.58C331.31,184.88,321.28,218.59,320.55,254.27z"/>
		<path style="fill:#18288A;" d="M351.49,328.67c22.06,8.46,76.92,14.81,95.66,18.13c18.74,3.32,44.13,19.04,44.13,19.04
			c-15.41-20.85-45.94-28.41-82.44-36.27c-36.24-7.8-52.74-6.67-83.74-38.32c4.65,12.83,13,22.5,25.74,37.15
			C351.05,328.49,351.28,328.59,351.49,328.67z"/>
		<path style="fill:#18288A;" d="M461.66,378.24c32.04,3.32,87.65,36.27,87.65,36.27c-52.89-51.99-69.74-44.43-167.22-63.92
			c-4.96-0.99-9.68-2.1-14.18-3.29c7.11,7.59,14.33,15.05,21.26,22.12C413.72,373.23,441.93,376.19,461.66,378.24z"/>
		<path style="fill:#18288A;" d="M546.89,444.13c-31.81-34.3-55.53-39.74-132.42-48.99c7,7.22,12.53,13.15,15.67,17.25
			C497.73,411.56,546.89,444.13,546.89,444.13z"/>
		<path style="fill:#FFFFFF;" d="M320.55,254.27c0.73-35.67,10.77-69.39,10.77-69.39h-5.58c-5.59,8.47-11.43,22.09-11.27,41.94
			C314.54,236.77,316.87,245.98,320.55,254.27z"/>
		<path style="fill:#FFFFFF;" d="M303.89,217.14c0,0-18.81,19.65-12.78,50.49c5.19,26.56,37.68,52.06,59.73,60.78
			c-12.74-14.65-21.09-24.31-25.74-37.15c-0.22-0.22-0.44-0.44-0.66-0.67C293.01,258.25,303.89,217.14,303.89,217.14z"/>
		<path style="fill:#FFFFFF;" d="M278.95,270.79c-12.24,63.02,46.7,82.66,71.48,90.52c9.52,3.02,23.42,5.72,38.74,8.1
			c-6.93-7.07-14.15-14.53-21.26-22.12C284.07,325.1,278.95,270.79,278.95,270.79z"/>
		<path style="fill:#FFFFFF;" d="M391.69,392.44c-95.36-11.18-118.33-63.17-118.33-63.17c2.72,68.61,88.86,84.02,156.56,83.12
			c0.07,0,0.15,0,0.22,0c-3.14-4.1-8.67-10.04-15.67-17.25C407.35,394.28,399.78,393.39,391.69,392.44z"/>
	</g>
	<g>
		
			<ellipse transform="matrix(0.7071 -0.7071 0.7071 0.7071 -245.6958 387.1286)" style="fill:#FFFFFF;" cx="344.46" cy="490.15" rx="82.94" ry="82.94"/>
		<g>
			
				<ellipse transform="matrix(0.7071 -0.7071 0.7071 0.7071 -245.6958 387.1286)" style="fill:#FFFFFF;" cx="344.46" cy="490.15" rx="78.79" ry="78.79"/>
			<path style="fill:#18288A;" d="M344.46,570.07c-44.07,0-79.92-35.85-79.92-79.92c0-44.07,35.85-79.92,79.92-79.92
				s79.92,35.85,79.92,79.92C424.38,534.22,388.53,570.07,344.46,570.07z M344.46,412.49c-42.82,0-77.66,34.84-77.66,77.65
				c0,42.82,34.84,77.65,77.66,77.65s77.66-34.84,77.66-77.65C422.12,447.33,387.28,412.49,344.46,412.49z"/>
		</g>
		<path style="fill:#18288A;" d="M423.23,491.83l-6.85-9.62c-1.1-6.75-4.16-18.44-12.63-30.02c-0.15-3.23-0.3-9.08,0.21-13.69
			c-7.28-8.38-16.29-15.2-26.49-19.91c-5.54,2.16-14.97,3.8-19.46,4.5l-28.1,0.96c-3.28-1.46-9.34-4.33-13.71-7.48
			c-13.31,5.11-24.88,13.73-33.58,24.73c0.99,4.87,1.63,11.36,1.93,14.82c-5.18,10.81-7.12,22.4-7.84,29.11
			c-2.09,2.11-6.65,7.38-10.25,16.22c1.62,11.28,5.62,21.78,11.49,30.98c5.31,0.66,10.62,1.73,13.25,2.3
			c3.71,4.87,12.14,13.67,28.28,20.5c1.69,1.87,3.57,5.22,3.18,10.66c6.92,1.99,14.22,3.05,21.78,3.05c9.18,0,18-1.58,26.19-4.46
			c0.42-4.85,2.64-9.02,4.11-11.3c6.4-2.96,17.48-9.36,25.54-20.81l10.75-0.1C418.49,520.52,422.91,506.68,423.23,491.83z
			 M402.14,453.83c8.57,11.91,11.32,24.08,12.2,30.19c-1.49,3.84-5.16,10.72-13.92,18.93c-9.29-0.6-20.33-4.78-26.1-7.22
			c-0.19-3.34-1.47-12.99-9.16-30.67c3.38-3.24,9.08-9.39,11.19-15.72C390.7,449.97,398.84,452.52,402.14,453.83z M331.22,426.28
			l26.72-0.91c3.6,3.07,10.53,10.08,16.49,22.48c-1.71,6.18-7.77,12.62-11.09,15.8c-7.67-1.05-27.18,1.33-33.15,2.11
			c-6.85-6.74-12.39-15.63-15.02-20.21C322.19,436.94,328.75,429.18,331.22,426.28z M278.76,487.92c0.51-6.1,2.34-20.32,8.77-32.68
			c3.27-2.37,10.39-5.6,25.87-8.23c2.66,4.61,7.91,12.96,14.54,19.68c-1.47,2.33-5.88,10.81-7.45,30.78
			c-9.92,2.79-20.35,5.52-25.27,6.54C284.33,497.74,280.27,491.67,278.76,487.92z M292.89,533.13c-0.06-5.14,0.13-19.08,3.51-27.08
			c3.93-0.79,11.18-2.58,24.74-6.4c9.75,9.81,21.1,14.09,24.85,15.31c0.53,7.99-0.01,20.18-0.89,26.38
			c-10.05,8.73-20.11,11.06-24.99,11.68C304.5,546.34,296.34,537.66,292.89,533.13z M373.6,551.18c-4.7-0.44-15.39-2.29-26.2-10.04
			c0.99-7.08,1.24-19.08,0.85-26.07c9.51-2.95,22.01-14.16,25.28-17.21c5.59,2.37,15.89,6.27,25.18,7.22
			c2.87,5.17,1.81,17.92,1.1,23.99C391.95,541.35,380.08,548.17,373.6,551.18z"/>
	</g>
	<g>
		<path style="fill:#FFFFFF;" d="M584.39,228.57v-23.3c0,0-4.75-5.96-6.26-8.11c-2.96-4.23-8.49-5.69-11.87-6.2
			c-2.81-6.61-7.83-10.08-14.62-10.08c-1.22,0-2.28,0.11-3.06,0.19l-0.41,0.04c-2.55,0.24-5.4,1.65-9.35,3.6
			c-2.58,1.27-5.51,2.72-8.86,4.09c-3.17,1.29-5.86,1.9-8.46,1.9c-1.97,0-3.74-0.33-5.8-0.7l-1.21-0.22
			c-4.93-0.87-35.03-5.31-43.52-6.16l-0.2-0.02c-7-0.7-18.71-1.87-24.19-1.87c-1.58,0-2.59,0.09-3.39,0.3
			c-1.72,0.45-5.26,0.97-7.25,0.97c-0.15,0-0.27,0-0.37-0.01c-0.83-0.58-2.61-2.3-3.71-3.62c-1.63-1.96-4.46-2.65-8.93-3.56
			c-0.85-0.17-1.65-0.33-2.25-0.48c-0.78-0.2-2.1-0.64-3.49-1.1c-3.02-1.01-6.77-2.27-9.71-2.62c-0.31-0.04-0.63-0.06-0.95-0.06
			c-4.61,0-9,3.75-12.86,7.05c-0.66,0.56-1.29,1.1-1.87,1.58l-0.42,0.34c-2.97,2.42-3.77,3.07-9.75,3.07l-0.13,0
			c-8.85,0-20.45-34.68-24.28-50.62h-3.02c-0.05,0.65-8.33,25.96-7.21,46.25c1.51,27.44,3.98,40.88,10.15,57.12
			c13.9,36.57,75.03,98.83,133.52,35.36c4.56-4.95,4.68-12.6,26.31-12.82c6.97-0.07,14.59,0.27,20.37,0.73
			c6.18,0.49,10.96,2.15,15.17,3.62c3.77,1.31,7.03,2.45,10.42,2.45c0.86,0,1.71-0.08,2.51-0.23c1.48-0.28,8.06-2.71,14.32-15.73
			C581.66,245.8,584.39,228.57,584.39,228.57z"/>
		<path style="fill:#18288A;" d="M355.57,146.11c0,0,9.97,41.71,26.07,41.48c7.71,0,9.07-1.36,12.69-4.31
			c3.63-2.95,8.84-8.16,12.69-7.71c3.85,0.45,9.97,2.95,12.69,3.63s7.93,1.36,9.07,2.72c1.13,1.36,3.97,4.31,5.44,4.87
			c1.47,0.57,7.37-0.23,9.97-0.91s18.06,0.87,26.37,1.7c8.31,0.83,38.08,5.21,43.22,6.12c5.14,0.91,9.52,2.12,17.68-1.21
			c8.16-3.32,13.9-7.1,17.08-7.41s11.33-1.66,14.81,9.6c0,0,8.31,0.23,11.49,4.76c3.17,4.53-3.63,6.95-3.63,6.95
			s-0.3-7.71-8.31-7.71s-9.67,2.12-9.52,4.68c0.15,2.57,4.84,3.93,9.67,3.02c0,0,0.6,4.08-5.14,5.59c0,0,5.74,1.96,10.73,1.51
			s8.31-2.42,10.43-4.23h1.3v15.49c0,0-15.81,0.83-21.55,2.04c-5.43,1.14-12.89,4.58-13.56,15.31c-0.05,0.8,0.85,1.3,1.52,0.86
			c3.48-2.34,11.77-7.82,14.6-8.76c3.63-1.21,14.66-1.21,17.08-1.06c2.42,0.15-7.25,25.54-13.75,26.75s-13.75-4.84-27.05-5.89
			c-13.3-1.06-41.86-1.51-46.39,2.27c-4.53,3.78-5.89,6.8-8.16,10.88c-2.27,4.08-14.81,24.03-37.78,23.73s-56.22-6.04-76.17-45.64
			C350.91,209.04,355.57,146.11,355.57,146.11z"/>
		<path style="fill:#65A3C4;" d="M579.08,201.95c-0.3,1.13,0,3.78,0,3.78s5.52,1.36,6.35,2.8c0.83,1.44,1.21,22.59,1.21,22.59
			s-15.11-0.53-19.42-0.6s-10.51,3.44-13.87,8.18c0,0,1.62-0.59,2.19-0.69c11.08-2.05,36.85,1.35,36.85,1.35s0-9.82-1.13-18.13
			c-1.13-8.31-4.46-17.38-5.06-17.98C585.58,202.63,579.08,201.95,579.08,201.95z"/>
		<path style="fill:#65A3C4;" d="M404.98,282.26c0,0,20.07,15.17,42.85,12c22.78-3.17,38.88-9.97,49.3-33.55
			c0,0,21.42-2.95,34.34-2.95c12.92,0,22.78,1.81,30.15,3.97c7.37,2.15,12.01,1.7,14.85-3.97c2.83-5.67,4.19-8.27,5.33-8.27
			s4.08,0,5.67,0s2.61,1.02,1.25,4.42c-1.36,3.4-4.99,12.13-6.35,14.73s-7.37,5.2-11.33,3.45c-3.97-1.75-23.46-8.89-41.14-7.53
			c-17.68,1.36-23.8,3.06-27.2,4.99c-3.4,1.93-14.85,18.25-24.6,23.58c-9.75,5.33-14.17,8.5-26.86,9.18
			C438.54,302.98,416.76,294.4,404.98,282.26z"/>
		<path style="fill:#65A3C4;" d="M400,210.19c0,0,4.68-5.59,9.52-7.1c4.84-1.51,14.36-1.06,18.44-1.06c4.08,0,7.56-3.02,10.73-4.08
			c3.17-1.06,8.31-2.72,22.97,0.6c0,0-12.54,2.41-14.81,4.83c-2.27,2.42-0.6,5.74-3.93,9.52c-3.32,3.78-10.88,13-30.22,6.35
			c0,0,5.74-1.21,3.63-6.35C414.21,207.77,400,210.19,400,210.19z"/>
		<path style="fill:#FFFFFF;" d="M420.1,207.62c0.63-2.62,5.59-1.06,8.31-1.21c2.72-0.15,6.95-1.66,8.46-2.72
			c1.51-1.06,7.1-1.96,2.72,3.93c-4.38,5.89-9.07,8.01-11.18,8.16C426.3,215.93,418.74,213.28,420.1,207.62z"/>
	</g>
	<g>
		<g>
			<path style="fill:#65A3C4;" d="M207.71,122.3c-0.44,0-0.8-0.36-0.8-0.8v-18.08l-17.9-29.1c-0.15-0.25-0.16-0.56-0.02-0.81
				c0.14-0.25,0.41-0.41,0.7-0.41h17.35c0.3,0,0.57,0.16,0.71,0.42c3.27,6.11,5.94,11.24,7.96,15.28l8.2-15.28
				c0.14-0.26,0.41-0.42,0.71-0.42h16.6c0.29,0,0.56,0.16,0.7,0.41c0.14,0.25,0.14,0.56-0.02,0.81l-17.83,29.1v18.08
				c0,0.44-0.36,0.8-0.8,0.8H207.71z"/>
			<path d="M241.22,73.91l-17.94,29.29v18.31h-15.56V103.2l-18.02-29.29h17.35c3.67,6.86,6.55,12.41,8.64,16.65l8.93-16.65H241.22
				 M241.22,72.3h-16.6c-0.59,0-1.13,0.32-1.41,0.84l-7.47,13.92c-1.92-3.81-4.36-8.47-7.28-13.92c-0.28-0.52-0.82-0.85-1.41-0.85
				h-17.35c-0.58,0-1.12,0.31-1.4,0.82c-0.28,0.51-0.27,1.13,0.03,1.62l17.78,28.9v17.85c0,0.89,0.72,1.6,1.6,1.6h15.56
				c0.89,0,1.6-0.72,1.6-1.6v-17.85l17.71-28.9c0.3-0.49,0.32-1.11,0.03-1.62C242.33,72.62,241.8,72.3,241.22,72.3L241.22,72.3z
				 M241.22,75.51L241.22,75.51L241.22,75.51L241.22,75.51z"/>
		</g>
		<g>
			<path style="fill:#65A3C4;" d="M268.19,123.43c-16.93,0-25.52-8.61-25.52-25.6c0-8.54,2.42-15.01,7.19-19.25
				c4.75-4.21,11.36-6.35,19.67-6.35c8.52,0,14.97,2.08,19.17,6.17c4.21,4.1,6.35,10.38,6.35,18.67
				C295.05,114.56,286.02,123.43,268.19,123.43z M269.15,85.6c-2.86,0-4.83,0.81-6.03,2.49c-1.25,1.73-1.88,4.99-1.88,9.68
				c0,3.4,0.33,6.07,0.97,7.91c0.61,1.74,1.42,2.92,2.41,3.48c1.04,0.6,2.48,0.9,4.26,0.9c2.95,0,4.96-0.8,6.14-2.45
				c1.22-1.71,1.84-5.02,1.84-9.84c0-4.75-0.58-8.02-1.72-9.74C274.05,86.39,272.09,85.6,269.15,85.6z"/>
			<path d="M269.53,73.03c8.34,0,14.54,1.98,18.61,5.94c4.07,3.96,6.11,9.99,6.11,18.1c0,17.04-8.69,25.56-26.06,25.56
				c-16.48,0-24.72-8.27-24.72-24.8c0-8.34,2.31-14.55,6.92-18.65C255.02,75.08,261.39,73.03,269.53,73.03 M268.88,110.86
				c3.2,0,5.46-0.93,6.79-2.79c1.33-1.86,1.99-5.29,1.99-10.31c0-4.93-0.62-8.32-1.86-10.18c-1.24-1.86-3.45-2.79-6.65-2.79
				c-3.11,0-5.34,0.94-6.69,2.82c-1.35,1.88-2.03,5.26-2.03,10.15c0,3.51,0.34,6.23,1.01,8.18c0.68,1.94,1.6,3.25,2.77,3.92
				C265.39,110.53,266.94,110.86,268.88,110.86 M269.53,71.43c-8.51,0-15.3,2.2-20.2,6.55c-4.95,4.4-7.46,11.08-7.46,19.85
				c0,8.67,2.24,15.31,6.65,19.73c4.41,4.43,11.03,6.67,19.67,6.67c9.08,0,16.03-2.3,20.67-6.85c4.64-4.55,7-11.39,7-20.31
				c0-8.52-2.22-14.99-6.59-19.25C284.9,73.58,278.27,71.43,269.53,71.43L269.53,71.43z M268.88,109.26c-1.64,0-2.94-0.27-3.86-0.79
				c-0.82-0.47-1.51-1.49-2.05-3.05c-0.61-1.76-0.92-4.34-0.92-7.65c0-5.63,0.94-8.12,1.73-9.22c1.04-1.45,2.8-2.15,5.38-2.15
				c2.65,0,4.39,0.68,5.32,2.07c0.72,1.09,1.59,3.58,1.59,9.29c0,5.79-0.92,8.3-1.69,9.38
				C273.35,108.57,271.55,109.26,268.88,109.26L268.88,109.26z"/>
		</g>
		<g>
			<path style="fill:#65A3C4;" d="M533.11,123.43c-16.93,0-25.52-8.61-25.52-25.6c0-8.54,2.42-15.01,7.19-19.25
				c4.75-4.21,11.36-6.35,19.67-6.35c8.52,0,14.97,2.08,19.17,6.17c4.21,4.1,6.35,10.38,6.35,18.67
				C559.97,114.56,550.93,123.43,533.11,123.43z M534.07,85.6c-2.86,0-4.83,0.81-6.03,2.49c-1.24,1.73-1.88,4.99-1.88,9.68
				c0,3.4,0.33,6.07,0.97,7.91c0.61,1.74,1.42,2.92,2.41,3.48c1.04,0.6,2.48,0.9,4.26,0.9c2.95,0,4.96-0.8,6.14-2.45
				c1.22-1.71,1.84-5.02,1.84-9.84c0-4.75-0.58-8.02-1.72-9.74C538.97,86.39,537.01,85.6,534.07,85.6z"/>
			<path d="M534.45,73.03c8.34,0,14.54,1.98,18.61,5.94c4.07,3.96,6.11,9.99,6.11,18.1c0,17.04-8.69,25.56-26.06,25.56
				c-16.48,0-24.72-8.27-24.72-24.8c0-8.34,2.31-14.55,6.92-18.65C519.93,75.08,526.31,73.03,534.45,73.03 M533.8,110.86
				c3.2,0,5.46-0.93,6.79-2.79c1.33-1.86,1.99-5.29,1.99-10.31c0-4.93-0.62-8.32-1.86-10.18c-1.24-1.86-3.46-2.79-6.65-2.79
				c-3.11,0-5.34,0.94-6.69,2.82c-1.35,1.88-2.03,5.26-2.03,10.15c0,3.51,0.34,6.23,1.01,8.18c0.68,1.94,1.6,3.25,2.77,3.92
				C530.31,110.53,531.86,110.86,533.8,110.86 M534.45,71.43c-8.51,0-15.3,2.2-20.2,6.55c-4.95,4.4-7.46,11.08-7.46,19.85
				c0,8.67,2.24,15.31,6.65,19.73c4.41,4.43,11.03,6.67,19.67,6.67c9.08,0,16.03-2.3,20.67-6.85c4.64-4.55,7-11.39,7-20.31
				c0-8.52-2.22-14.99-6.59-19.25C549.82,73.58,543.18,71.43,534.45,71.43L534.45,71.43z M533.8,109.26c-1.64,0-2.95-0.27-3.86-0.79
				c-0.82-0.47-1.51-1.49-2.05-3.05c-0.61-1.76-0.92-4.34-0.92-7.65c0-5.63,0.94-8.12,1.73-9.22c1.04-1.45,2.8-2.15,5.38-2.15
				c2.65,0,4.39,0.68,5.32,2.07c0.72,1.09,1.59,3.58,1.59,9.29c0,5.79-0.92,8.3-1.69,9.38C538.26,108.57,536.47,109.26,533.8,109.26
				L533.8,109.26z"/>
		</g>
		<g>
			<path style="fill:#65A3C4;" d="M323.25,123.27c-9.9,0-16.75-2.46-20.37-7.3c-2.16-2.89-3.21-7.45-3.21-13.95V73.91
				c0-0.44,0.36-0.8,0.8-0.8h15.19c0.44,0,0.8,0.36,0.8,0.8v26.39c0,4.06,0.34,5.6,0.89,6.78c0.95,2.01,3.1,2.99,6.57,2.99
				c3.16,0,5.23-0.85,6.32-2.59c0.75-1.17,1.22-2.71,1.22-6.83V73.91c0-0.44,0.36-0.8,0.8-0.8h14.44c0.44,0,0.8,0.36,0.8,0.8v28.05
				c0,6.17-1.03,10.75-3.05,13.59C340.84,120.67,333.71,123.27,323.25,123.27z"/>
			<path d="M346.71,73.91v28.05c0,6.03-0.97,10.41-2.9,13.13c-3.47,4.93-10.32,7.39-20.55,7.39c-9.68,0-16.26-2.33-19.73-6.98
				c-2.04-2.72-3.05-7.21-3.05-13.47V73.91h15.19v26.39c0,4.01,0.32,5.74,0.97,7.12c1.09,2.3,3.52,3.45,7.3,3.45
				c3.43,0,5.76-0.99,7-2.97c0.89-1.38,1.34-3.16,1.34-7.26V73.91H346.71 M346.71,72.3h-14.44c-0.89,0-1.6,0.72-1.6,1.6v26.73
				c0,3.93-0.41,5.36-1.08,6.39c-0.95,1.51-2.79,2.24-5.65,2.24c-4.64,0-5.55-1.91-5.85-2.54c-0.5-1.07-0.81-2.53-0.81-6.43V73.91
				c0-0.89-0.72-1.6-1.6-1.6h-15.19c-0.89,0-1.6,0.72-1.6,1.6v28.12c0,6.68,1.1,11.4,3.37,14.43c3.78,5.05,10.85,7.62,21.01,7.62
				c10.73,0,18.08-2.72,21.86-8.07c2.15-3.02,3.2-7.61,3.2-14.05V73.91C348.31,73.02,347.59,72.3,346.71,72.3L346.71,72.3z"/>
		</g>
		<g>
			<path style="fill:#65A3C4;" d="M381.81,122.3c-0.34,0-0.64-0.21-0.75-0.53l-8.97-24.6c0.08,4.95,0.11,12.62,0.11,24.32
				c0,0.44-0.36,0.8-0.8,0.8h-16.13c-0.44,0-0.8-0.36-0.8-0.8v-47.6c0-0.44,0.36-0.8,0.8-0.8h22.05c0.32,0,0.61,0.19,0.74,0.49
				c1.3,3.04,2.62,6.11,3.97,9.22c1.35,3.11,2.48,5.72,3.39,7.84c0.33,0.78,0.67,1.64,1.01,2.51c-0.16-4.89-0.24-11.42-0.24-19.26
				c0-0.44,0.36-0.8,0.8-0.8h15.89c0.44,0,0.8,0.36,0.8,0.8v47.6c0,0.44-0.36,0.8-0.8,0.8H381.81z"/>
			<path d="M402.87,73.91v47.6h-21.06l-10.65-29.19c0.16,3.87,0.23,11.46,0.23,29.19h-16.13v-47.6h22.05
				c1.3,3.04,2.62,6.11,3.97,9.22s2.48,5.72,3.39,7.84c0.91,2.12,1.83,4.81,2.77,7.11c-0.31-5.02-0.47-13.4-0.47-24.18H402.87
				 M402.87,72.3h-15.89c-0.89,0-1.6,0.72-1.6,1.6c0,5.71,0.04,10.73,0.13,14.93c-0.78-1.82-1.7-3.93-2.75-6.34
				c-1.3-3-2.64-6.1-3.97-9.21c-0.25-0.59-0.83-0.97-1.47-0.97h-22.05c-0.89,0-1.6,0.72-1.6,1.6v47.6c0,0.89,0.72,1.6,1.6,1.6h16.13
				c0.89,0,1.6-0.72,1.6-1.6c0-8.51-0.02-14.89-0.06-19.64l7.36,20.19c0.23,0.63,0.83,1.05,1.51,1.05h21.06c0.89,0,1.6-0.72,1.6-1.6
				v-47.6C404.47,73.02,403.76,72.3,402.87,72.3L402.87,72.3z"/>
		</g>
		<g>
			<path style="fill:#65A3C4;" d="M434.1,123.34c-8.09,0-14.27-2.08-18.38-6.17c-4.11-4.1-6.2-10.66-6.2-19.5
				c0-16.99,9.22-25.6,27.4-25.6c6.31,0,9.45,0.29,14,1.31c0.36,0.08,0.61,0.39,0.63,0.76l0.43,12.9c0.01,0.26-0.11,0.51-0.31,0.66
				c-0.14,0.11-0.31,0.16-0.49,0.16c-0.08,0-0.16-0.01-0.24-0.04c-3.68-1.14-7.03-1.85-12.32-1.85c-4.48,0-6.21,0.88-8.02,2.61
				c-1.88,1.8-3.04,3.91-3.04,8.87c0,5.25,0.25,7.91,1.76,9.82c1.48,1.88,3.29,2.54,6.91,2.54c1.4,0,2.59-0.04,3.57-0.13v-4.17
				h-6.66c-0.44,0-0.8-0.36-0.8-0.8V92.79c0-0.44,0.36-0.8,0.8-0.8h21.5c0.44,0,0.8,0.36,0.8,0.8v26.22c0,0.33-0.2,0.62-0.51,0.74
				C448.93,122.14,441.92,123.34,434.1,123.34z"/>
			<path d="M436.92,72.87c6.49,0,9.5,0.32,13.82,1.29l0.43,12.9c-3.95-1.23-7.34-1.89-12.56-1.89c-4.42,0-6.48,0.83-8.58,2.83
				c-2.09,2-3.29,4.38-3.29,9.45c0,5.02,0.19,8.1,1.93,10.31c1.74,2.21,3.87,2.85,7.54,2.85c1.79,0,3.25-0.07,4.38-0.21v-5.69h-7.46
				V92.79h21.5v26.22c-5.93,2.35-12.77,3.52-20.53,3.52c-7.9,0-13.84-1.98-17.82-5.94c-3.97-3.96-5.96-10.27-5.96-18.93
				C410.32,81.14,419.19,72.87,436.92,72.87 M436.92,71.27c-9.24,0-16.32,2.23-21.04,6.63c-4.75,4.43-7.16,11.08-7.16,19.77
				c0,9.06,2.16,15.81,6.43,20.06c4.27,4.25,10.64,6.41,18.95,6.41c7.93,0,15.03-1.22,21.12-3.64c0.61-0.24,1.01-0.83,1.01-1.49
				V92.79c0-0.89-0.72-1.6-1.6-1.6h-21.5c-0.89,0-1.6,0.72-1.6,1.6v11.92c0,0.89,0.72,1.6,1.6,1.6h5.86v2.62
				c-0.8,0.05-1.73,0.07-2.77,0.07c-3.38,0-4.96-0.56-6.28-2.24c-1.35-1.72-1.58-4.27-1.58-9.32c0-4.68,1.07-6.64,2.79-8.29
				c1.66-1.58,3.26-2.39,7.47-2.39c5.2,0,8.48,0.69,12.09,1.82c0.16,0.05,0.32,0.07,0.48,0.07c0.35,0,0.69-0.11,0.97-0.33
				c0.41-0.31,0.65-0.81,0.63-1.33l-0.43-12.9c-0.02-0.73-0.54-1.35-1.25-1.51C446.48,71.57,443.3,71.27,436.92,71.27L436.92,71.27z
				"/>
		</g>
		<g>
			<path style="fill:#65A3C4;" d="M461.5,122.3c-0.44,0-0.8-0.36-0.8-0.8v-47.6c0-0.44,0.36-0.8,0.8-0.8h19.95
				c5.38,0,9.64,0.26,12.64,0.77c6.62,1.13,9.97,5.02,9.97,11.57c0,3.4-1,6.61-2.6,8.39c-1.03,1.14-2.04,1.79-3.39,2.28
				c5.19,1.59,7.64,5.36,7.64,11.64c0,3.15-0.84,5.95-2.49,8.33c-1.67,2.41-4.17,4.05-7.42,4.88c-3.16,0.89-7.92,1.34-14.12,1.34
				H461.5z M481.05,110.46c2.2,0,3.77-0.14,4.68-0.41c1.55-0.48,2.27-1.59,2.27-3.49c0-1.55-0.66-2.46-2.07-2.88
				c-0.84-0.27-2.37-0.41-4.56-0.41h-3.27v7.18H481.05z M481.22,91.76c2.45,0,3.43-0.13,3.83-0.24c1.27-0.34,1.83-1.17,1.83-2.67
				c0-0.7-0.16-1.33-0.48-1.9c-0.29-0.51-0.68-0.84-1.17-1c-0.74-0.23-2.05-0.35-3.87-0.35h-3.25v6.16H481.22z"/>
			<path d="M481.46,73.91c5.36,0,9.53,0.25,12.51,0.76c6.2,1.06,9.31,4.65,9.31,10.78c0,3.04-0.86,6.15-2.4,7.85
				c-1.54,1.7-2.94,2.19-6.32,2.92c7.54,0.88,10.36,4.72,10.36,11.54c0,2.99-0.78,5.62-2.35,7.88c-1.56,2.26-3.88,3.78-6.96,4.56
				c-3.13,0.87-7.77,1.31-13.92,1.31H461.5v-47.6H481.46 M477.3,92.56h3.92c2.05,0,3.39-0.09,4.05-0.27
				c1.61-0.44,2.41-1.58,2.41-3.44c0-0.84-0.2-1.6-0.59-2.3c-0.39-0.69-0.94-1.15-1.63-1.37c-0.83-0.26-2.2-0.38-4.11-0.38h-4.05
				V92.56 M477.3,111.26h3.75c2.28,0,3.92-0.15,4.91-0.44c1.9-0.59,2.84-2.01,2.84-4.25c0-1.92-0.88-3.13-2.65-3.65
				c-0.9-0.29-2.5-0.44-4.78-0.44h-4.07V111.26 M481.46,72.3H461.5c-0.89,0-1.6,0.72-1.6,1.6v47.6c0,0.89,0.72,1.6,1.6,1.6h20.18
				c6.36,0,11.06-0.45,14.36-1.37c3.41-0.87,6.06-2.62,7.85-5.19c1.75-2.52,2.63-5.48,2.63-8.79c0-5.94-2.05-9.77-6.38-11.74
				c0.68-0.42,1.3-0.95,1.93-1.65c1.73-1.92,2.81-5.34,2.81-8.93c0-6.9-3.68-11.17-10.64-12.36
				C491.18,72.57,486.88,72.3,481.46,72.3L481.46,72.3z M478.9,86.4h2.44c2.17,0,3.18,0.17,3.64,0.31c0.2,0.06,0.46,0.19,0.71,0.62
				c0.26,0.45,0.38,0.94,0.38,1.51c0,1.3-0.47,1.69-1.23,1.9c-0.24,0.07-1.06,0.22-3.63,0.22h-2.31V86.4L478.9,86.4z M478.9,104.08
				h2.47c2.76,0,3.87,0.23,4.29,0.36c0.02,0.01,0.03,0.01,0.05,0.01c1.08,0.31,1.5,0.91,1.5,2.11c0,1.92-0.82,2.45-1.72,2.72
				c-0.56,0.17-1.8,0.37-4.44,0.37h-2.15V104.08L478.9,104.08z"/>
		</g>
		<g>
			<path style="fill:#65A3C4;" d="M579.71,122.3c-0.44,0-0.8-0.36-0.8-0.8v-18.08l-17.9-29.1c-0.15-0.25-0.16-0.56-0.02-0.81
				c0.14-0.25,0.41-0.41,0.7-0.41h17.35c0.3,0,0.57,0.16,0.71,0.42c3.27,6.11,5.94,11.24,7.96,15.28l8.2-15.28
				c0.14-0.26,0.41-0.42,0.71-0.42h16.6c0.29,0,0.56,0.16,0.7,0.41c0.14,0.25,0.14,0.56-0.02,0.81l-17.83,29.1v18.08
				c0,0.44-0.36,0.8-0.8,0.8H579.71z"/>
			<path d="M613.22,73.91l-17.94,29.29v18.31h-15.56V103.2l-18.02-29.29h17.35c3.67,6.86,6.55,12.41,8.64,16.65l8.93-16.65H613.22
				 M613.22,72.3h-16.6c-0.59,0-1.13,0.32-1.41,0.84l-7.47,13.92c-1.92-3.81-4.36-8.47-7.28-13.92c-0.28-0.52-0.82-0.85-1.41-0.85
				h-17.35c-0.58,0-1.12,0.31-1.4,0.82c-0.28,0.51-0.27,1.13,0.03,1.62l17.78,28.9v17.85c0,0.89,0.72,1.6,1.6,1.6h15.56
				c0.89,0,1.6-0.72,1.6-1.6v-17.85l17.71-28.9c0.3-0.49,0.32-1.11,0.03-1.62C614.33,72.62,613.8,72.3,613.22,72.3L613.22,72.3z
				 M613.22,75.51L613.22,75.51L613.22,75.51L613.22,75.51z"/>
		</g>
	</g>
	<g>
		<g>
			<path style="fill:#18288A;" d="M349.43,646.8v-4.81c5.9-4.36,10.19-7.88,12.89-10.58c2.05-2.05,3.08-4.17,3.08-6.35
				c0-2.88-1.92-4.33-5.77-4.33c-1.95,0-4.53,0.26-7.74,0.77l-0.87-5.24c3.24-0.93,6.51-1.39,9.81-1.39
				c7.88,0,11.83,3.09,11.83,9.28c0,3.53-1.46,6.65-4.38,9.37c-2.76,2.6-5.99,5.06-9.71,7.4c2.79-0.03,7.74-0.05,14.86-0.05v5.91
				H349.43z"/>
			<path style="fill:#18288A;" d="M399.76,643.72c-2.1,2.5-5.25,3.75-9.45,3.75c-4.33,0-7.53-1.22-9.62-3.65
				c-2.08-2.44-3.12-6.57-3.12-12.4c0-11.03,4.26-16.54,12.79-16.54c4.3,0,7.46,1.17,9.5,3.51c2.04,2.34,3.05,6.44,3.05,12.31
				C402.91,636.88,401.86,641.22,399.76,643.72z M394.71,622.96c-0.85-1.51-2.27-2.26-4.26-2.26c-1.95,0-3.41,0.78-4.35,2.33
				c-0.95,1.55-1.42,4.27-1.42,8.15c0,4.04,0.45,6.81,1.35,8.32c0.9,1.51,2.34,2.26,4.33,2.26c2.02,0,3.46-0.75,4.33-2.26
				c0.87-1.51,1.3-4.31,1.3-8.41C395.98,627.17,395.56,624.46,394.71,622.96z"/>
			<path style="fill:#18288A;" d="M406.32,646.8v-4.81c5.9-4.36,10.19-7.88,12.89-10.58c2.05-2.05,3.08-4.17,3.08-6.35
				c0-2.88-1.92-4.33-5.77-4.33c-1.95,0-4.53,0.26-7.74,0.77l-0.87-5.24c3.24-0.93,6.51-1.39,9.81-1.39
				c7.88,0,11.83,3.09,11.83,9.28c0,3.53-1.46,6.65-4.38,9.37c-2.76,2.6-5.99,5.06-9.71,7.4c2.79-0.03,7.74-0.05,14.86-0.05v5.91
				H406.32z"/>
			<path style="fill:#18288A;" d="M445.01,646.8v-25.9c-4.09,0.84-5.44,1.21-8.3,1.7l-0.16-5.22l9.66-2.29h5.91v31.71H445.01z"/>
		</g>
		<g>
			<path style="fill:#18288A;" d="M224.62,382.76v7.41c0,2.78-0.19,4.95-0.57,6.5c-0.54,2.29-1.74,3.97-3.62,5.05
				c-1.87,1.08-4.25,1.62-7.12,1.62c-5.97,0-9.65-2.13-11.04-6.4c-0.56-1.66-0.84-4.16-0.84-7.51v-6.66H224.62z M205.8,390.17
				c0,2.45,0.31,4.21,0.94,5.28c1.03,1.84,3.18,2.76,6.43,2.76c3.43,0,5.59-1.03,6.46-3.1c0.38-0.88,0.57-2.47,0.57-4.78v-2.52
				H205.8V390.17z"/>
			<path style="fill:#18288A;" d="M201.42,405.09l23.19,8.48v6.29l-23.19,8.25v-5.49l5.39-1.89v-8.45l-5.39-1.88V405.09z
				 M210.85,419.6c4.67-1.55,7.79-2.55,9.36-3c-1.64-0.49-4.76-1.53-9.36-3.1V419.6z"/>
			<path style="fill:#18288A;" d="M201.42,430.86h23.19v5.05h-18.78v10.5h-4.41V430.86z"/>
			<path style="fill:#18288A;" d="M201.42,452.53h23.19v5.05h-23.19V452.53z"/>
			<path style="fill:#18288A;" d="M201.41,465.59l23.19,8.48v6.29l-23.19,8.25v-5.49l5.39-1.89v-8.45l-5.39-1.88V465.59z
				 M210.83,480.1c4.67-1.55,7.79-2.55,9.36-3c-1.64-0.49-4.76-1.53-9.36-3.1V480.1z"/>
			<path style="fill:#18288A;" d="M201.42,491.27h23.16v6.77c-1.08,0.63-2.37,1.39-3.89,2.29c-1.51,0.9-2.56,1.51-3.13,1.85
				c-0.57,0.34-1.3,0.76-2.17,1.26c-0.87,0.51-1.53,0.87-1.97,1.09c-0.44,0.22-0.93,0.47-1.46,0.74c-0.54,0.27-1.08,0.53-1.62,0.77
				c2.69-0.11,7.44-0.17,14.24-0.17v4.98h-23.16v-5.32c2.6-1.41,5.11-2.78,7.52-4.09c2.41-1.31,4.07-2.22,4.98-2.73
				c0.91-0.5,1.77-0.98,2.59-1.41c0.82-0.44,1.57-0.81,2.24-1.13c-2.69,0.07-8.47,0.1-17.34,0.1V491.27z"/>
			<path style="fill:#18288A;" d="M205.27,540.79l8.69-2.76l10.89-12.18l1.78,5.61c-2.93,3.24-5.36,5.77-7.29,7.61
				c2.76,0.46,6.23,1.19,10.4,2.17l1.72,5.42l-15.95-3.76l-8.69,2.76L205.27,540.79z"/>
			<path style="fill:#18288A;" d="M215.51,563.93l18.07-14.53l3.16,3.93l-18.07,14.53L215.51,563.93z"/>
			<path style="fill:#18288A;" d="M226.85,578.49l15.25-17.42l5.09,4.46c-0.24,1.22-0.52,2.7-0.84,4.43
				c-0.32,1.73-0.55,2.92-0.67,3.57c-0.12,0.65-0.28,1.47-0.48,2.46c-0.2,0.99-0.35,1.73-0.47,2.2c-0.12,0.48-0.26,1.01-0.41,1.59
				c-0.15,0.58-0.31,1.16-0.48,1.73c1.69-2.1,4.77-5.71,9.25-10.82l3.75,3.28l-15.25,17.42l-4-3.5c0.65-2.89,1.28-5.67,1.88-8.35
				s1.01-4.53,1.23-5.54c0.22-1.02,0.43-1.98,0.64-2.88c0.21-0.9,0.42-1.71,0.63-2.43c-1.72,2.07-5.5,6.44-11.34,13.11
				L226.85,578.49z"/>
			<path style="fill:#18288A;" d="M256.02,602.12c-3.16-1.79-5.07-3.99-5.73-6.59c-0.65-2.6,0.05-5.72,2.1-9.35
				c3.97-7.01,9.47-8.53,16.5-4.55c2.13,1.2,4.16,2.61,6.08,4.22l-2.55,3c-1.51-1.16-3.25-2.3-5.22-3.42
				c-2.11-1.19-3.98-1.58-5.61-1.16s-3.13,1.85-4.52,4.29c-1.38,2.44-1.92,4.49-1.62,6.14c0.3,1.65,1.37,3,3.21,4.04
				c1.29,0.73,2.43,1.22,3.42,1.47l2.22-3.92l-3.78-2.14l2.16-3.81l8.03,4.54l-5.82,10.28C262,604.85,259.05,603.83,256.02,602.12z"
				/>
			<path style="fill:#18288A;" d="M280.7,589.36l6.8,3.9c1.63,0.94,2.9,1.77,3.81,2.49c2.6,2.06,3.12,4.43,1.58,7.12
				c-0.71,1.25-1.57,2.08-2.58,2.5c-1,0.42-2.21,0.44-3.63,0.07c2.61,2.04,3.12,4.44,1.53,7.2c-0.71,1.25-1.66,2.17-2.83,2.76
				c-1.17,0.6-2.44,0.74-3.81,0.42c-1.43-0.3-3.31-1.12-5.65-2.46l-6.77-3.88L280.7,589.36z M277.87,609.93
				c1.38,0.79,2.46,1.26,3.24,1.39c0.68,0.13,1.25,0.1,1.72-0.08c0.47-0.18,0.9-0.62,1.29-1.3c0.64-1.11,0.53-2.15-0.3-3.12
				c-0.41-0.5-1.31-1.14-2.69-1.93l-2.66-1.52l-2.98,5.2L277.87,609.93z M282.98,601.34c1.25,0.71,2.18,1.11,2.81,1.19
				c1.09,0.13,1.93-0.32,2.52-1.35c0.64-1.11,0.54-2.09-0.28-2.96c-0.44-0.46-1.26-1.03-2.46-1.72l-2.39-1.37l-2.73,4.76
				L282.98,601.34z"/>
			<path style="fill:#18288A;" d="M299.67,625.84c-6.41-3.23-7.81-8.44-4.18-15.63c1.83-3.63,4.09-5.88,6.79-6.75
				c2.7-0.87,5.64-0.52,8.8,1.08c3.25,1.63,5.23,3.71,5.94,6.23c0.72,2.52,0.18,5.54-1.59,9.07
				C311.69,627.26,306.44,629.26,299.67,625.84z M312.26,611.73c-0.25-1.43-1.31-2.62-3.2-3.57c-1.84-0.93-3.45-1.08-4.82-0.45
				c-1.37,0.63-2.71,2.23-4.01,4.82c-1.37,2.72-1.9,4.81-1.57,6.26c0.33,1.45,1.35,2.6,3.07,3.47c1.88,0.95,3.51,1.11,4.87,0.47
				c1.36-0.63,2.71-2.28,4.06-4.95C311.98,615.18,312.51,613.16,312.26,611.73z"/>
		</g>
		<g>
			<path style="fill:#18288A;" d="M492.62,627.88l-10.05-20.9l13.92-6.69l1.91,3.97l-9.37,4.51l2.35,4.88l8.62-4.14l1.87,3.88
				l-8.62,4.14l3.92,8.16L492.62,627.88z"/>
			<path style="fill:#18288A;" d="M520.09,615.6c-6.42,3.21-11.43,1.21-15.04-5.99c-1.82-3.63-2.27-6.79-1.35-9.48
				c0.91-2.69,2.95-4.83,6.13-6.41c3.25-1.63,6.1-1.97,8.55-1.04c2.45,0.93,4.56,3.17,6.32,6.7
				C528.4,606.8,526.87,612.21,520.09,615.6z M516.29,597.06c-1.29-0.66-2.89-0.51-4.77,0.43c-1.85,0.92-2.93,2.12-3.24,3.6
				c-0.32,1.48,0.17,3.51,1.47,6.1c1.36,2.73,2.72,4.39,4.08,5c1.35,0.6,2.9,0.47,4.62-0.39c1.89-0.94,2.98-2.15,3.29-3.62
				c0.31-1.47-0.21-3.54-1.54-6.21C518.89,599.35,517.59,597.72,516.29,597.06z"/>
			<path style="fill:#18288A;" d="M543.97,603.12c-6.21,3.61-11.34,1.93-15.38-5.04c-2.04-3.51-2.69-6.64-1.95-9.38
				c0.74-2.74,2.65-5,5.71-6.78c3.14-1.83,5.97-2.35,8.47-1.57c2.5,0.78,4.75,2.87,6.73,6.29
				C551.72,593.82,550.52,599.31,543.97,603.12z M539.02,584.86c-1.33-0.58-2.91-0.33-4.74,0.73c-1.78,1.04-2.79,2.3-3.01,3.79
				c-0.22,1.49,0.39,3.49,1.85,5.99c1.53,2.64,2.99,4.22,4.38,4.73c1.39,0.52,2.92,0.29,4.59-0.68c1.82-1.06,2.84-2.33,3.05-3.82
				c0.21-1.49-0.43-3.52-1.93-6.1C541.75,586.98,540.35,585.43,539.02,584.86z"/>
			<path style="fill:#18288A;" d="M562.89,591.68l-10.88-15.31l-5.51,3.92l-2.55-3.59l15.34-10.9l2.55,3.59l-5.71,4.05L567,588.76
				L562.89,591.68z"/>
			<path style="fill:#18288A;" d="M561.77,563.7l5.01-6.03c1.21-1.45,2.24-2.56,3.11-3.32c2.47-2.2,4.9-2.31,7.28-0.33
				c1.1,0.92,1.78,1.91,2.02,2.97c0.24,1.06,0.06,2.26-0.55,3.59c2.46-2.22,4.91-2.31,7.36-0.27c1.1,0.92,1.85,2.01,2.24,3.26
				c0.39,1.25,0.3,2.53-0.25,3.82c-0.54,1.36-1.68,3.07-3.4,5.14l-4.99,6L561.77,563.7z M573.96,563.52
				c0.92-1.1,1.47-1.96,1.65-2.57c0.32-1.05,0.02-1.95-0.89-2.71c-0.98-0.82-1.97-0.89-2.96-0.23c-0.53,0.35-1.23,1.06-2.12,2.13
				l-1.76,2.12l4.22,3.51L573.96,563.52z M581.54,570.04c1.02-1.22,1.66-2.21,1.93-2.95c0.24-0.64,0.31-1.21,0.21-1.7
				c-0.1-0.49-0.45-0.99-1.06-1.49c-0.98-0.82-2.03-0.9-3.13-0.24c-0.56,0.32-1.35,1.1-2.37,2.32l-1.96,2.35l4.61,3.83
				L581.54,570.04z"/>
			<path style="fill:#18288A;" d="M596.06,553.73l-21.3-12.5l1.13-6.19l24.29-3.96l-0.98,5.4l-5.64,0.89l-1.51,8.31l4.96,2.82
				L596.06,553.73z M589.39,537.77c-4.87,0.69-8.12,1.11-9.74,1.27c1.52,0.78,4.41,2.35,8.65,4.72L589.39,537.77z"/>
			<path style="fill:#18288A;" d="M601.15,528.66L578,527.28l0.3-5.04l18.74,1.11l0.62-10.48l4.4,0.26L601.15,528.66z"/>
			<path style="fill:#18288A;" d="M601.79,507.01H578.6v-5.05h18.78v-10.5h4.41V507.01z"/>
			<path style="fill:#18288A;" d="M602.03,452.63c0.27,1.45,0.4,2.75,0.4,3.92c0,3.64-0.95,6.41-2.86,8.33
				c-1.91,1.92-4.97,2.88-9.19,2.88c-4.13,0-7.18-1.02-9.16-3.06c-1.97-2.04-2.96-4.86-2.96-8.45c0-2.72,0.22-5,0.67-6.87l3.87,0.77
				c-0.27,1.82-0.4,3.67-0.4,5.55c0,4.53,2.6,6.8,7.81,6.8c2.89,0,4.94-0.57,6.13-1.7c1.19-1.13,1.78-2.77,1.78-4.9
				c0-2.18-0.25-4.18-0.74-6.03l3.74-0.84C601.46,449.99,601.76,451.18,602.03,452.63z"/>
			<path style="fill:#18288A;" d="M601.95,444.64h-23.19v-5.05h18.78v-10.5h4.41V444.64z"/>
			<path style="fill:#18288A;" d="M592.77,405.23c2.98,0,5.13,0.4,6.43,1.21c1.14,0.72,2.02,1.84,2.63,3.37
				c0.61,1.53,0.91,3.34,0.91,5.45c0,4.33-1.19,7.21-3.57,8.65c-1.3,0.74-3.42,1.11-6.36,1.11h-13.73v-4.98h13.06
				c2.13,0,3.59-0.17,4.38-0.51c1.41-0.63,2.12-2.15,2.12-4.58c0-1.73-0.46-2.98-1.38-3.77c-0.81-0.81-2.45-1.21-4.92-1.21h-13.26
				v-4.75H592.77z"/>
			<path style="fill:#18288A;" d="M578.76,401v-7.84c0-1.89,0.09-3.4,0.27-4.54c0.49-3.28,2.29-4.91,5.39-4.91
				c1.44,0,2.59,0.33,3.45,0.99c0.86,0.66,1.49,1.7,1.87,3.11c0.47-3.28,2.3-4.91,5.49-4.91c1.44,0,2.7,0.36,3.8,1.08
				c1.1,0.72,1.85,1.75,2.26,3.1c0.45,1.39,0.67,3.43,0.67,6.13V401H578.76z M588.01,393.05c0-1.44-0.12-2.45-0.37-3.03
				c-0.43-1.01-1.23-1.51-2.42-1.51c-1.28,0-2.09,0.57-2.42,1.72c-0.18,0.61-0.27,1.6-0.27,3v2.76h5.49V393.05z M598.01,393.22
				c0-1.59-0.13-2.76-0.4-3.5c-0.22-0.65-0.53-1.13-0.93-1.45c-0.39-0.31-0.98-0.47-1.77-0.47c-1.28,0-2.13,0.61-2.56,1.82
				c-0.22,0.61-0.34,1.71-0.34,3.3v3.06h5.99V393.22z"/>
		</g>
		<polygon style="fill:#18288A;" points="211.49,352.87 215.23,360.45 223.6,361.66 217.55,367.57 218.98,375.9 211.49,371.97 
			204.01,375.9 205.44,367.57 199.38,361.66 207.75,360.45 		"/>
		<polygon style="fill:#18288A;" points="591.54,352.87 595.28,360.45 603.65,361.66 597.59,367.57 599.02,375.9 591.54,371.97 
			584.05,375.9 585.48,367.57 579.43,361.66 587.8,360.45 		"/>
	</g>
</g>
</svg>
