<?xml version="1.0" encoding="utf-8"?>
<!-- Created by @FCLOGO 2024-10-1 GMT+8 22:29:06 . https://fclogo.top/ -->
<!-- FOR PERSONAL USE ONLY NOT FOR COMMERCIAL USE -->
<svg version="1.1" xmlns="http://www.w3.org/2000/svg" xmlns:xlink="http://www.w3.org/1999/xlink" x="0px" y="0px"
	 viewBox="0 0 800 800" style="enable-background:new 0 0 800 800;" xml:space="preserve">
<path style="fill:#CCCCCC;" d="M348.22,774.3c-0.79,0-1.38-0.22-1.77-0.65c-0.39-0.44-0.53-1.03-0.41-1.79l0.25-1.65
	c0.12-0.75,0.45-1.35,0.98-1.78c0.53-0.44,1.19-0.65,1.98-0.65c0.76,0,1.33,0.2,1.72,0.6c0.39,0.4,0.55,0.94,0.47,1.62h-1.24
	c0.03-0.36-0.06-0.64-0.26-0.84c-0.2-0.2-0.5-0.3-0.89-0.3c-0.42,0-0.76,0.12-1.03,0.35c-0.27,0.23-0.43,0.56-0.5,0.99l-0.26,1.66
	c-0.07,0.44-0.01,0.77,0.19,1c0.19,0.23,0.5,0.35,0.92,0.35c0.39,0,0.72-0.1,0.98-0.3c0.26-0.2,0.44-0.48,0.52-0.85h1.24
	c-0.14,0.69-0.47,1.23-0.99,1.63C349.61,774.1,348.97,774.3,348.22,774.3z M352.8,774.19l1-6.29h1.19l-0.19,1.19
	c0.34-0.87,0.97-1.3,1.91-1.3c0.67,0,1.17,0.21,1.49,0.62c0.32,0.42,0.43,0.99,0.31,1.71l-0.07,0.42h-1.27l0.06-0.32
	c0.07-0.45,0.01-0.8-0.17-1.04c-0.18-0.24-0.48-0.36-0.88-0.36c-0.4,0-0.74,0.12-1.01,0.37c-0.27,0.24-0.43,0.59-0.5,1.03
	l-0.63,3.97H352.8z M361.91,774.3c-0.77,0-1.35-0.22-1.73-0.67c-0.38-0.45-0.51-1.04-0.4-1.77l0.25-1.65
	c0.08-0.49,0.26-0.92,0.52-1.28c0.26-0.37,0.6-0.65,1.01-0.85c0.41-0.2,0.87-0.3,1.38-0.3c0.77,0,1.35,0.22,1.73,0.67
	c0.39,0.45,0.52,1.04,0.39,1.77l-0.17,1.12h-3.85l-0.09,0.53c-0.15,0.95,0.22,1.43,1.11,1.43c0.72,0,1.17-0.25,1.37-0.74h1.22
	c-0.17,0.53-0.5,0.96-1.01,1.28C363.16,774.14,362.58,774.3,361.91,774.3z M361.23,770.22l-0.05,0.29l2.65-0.01l0.05-0.29
	c0.07-0.47,0.01-0.82-0.17-1.07c-0.18-0.25-0.49-0.37-0.92-0.37c-0.44,0-0.8,0.13-1.06,0.38
	C361.48,769.39,361.31,769.75,361.23,770.22z M368.33,774.3c-0.63,0-1.1-0.21-1.41-0.64c-0.31-0.42-0.4-1-0.27-1.73l0.27-1.77
	c0.11-0.73,0.39-1.31,0.84-1.74c0.44-0.43,0.98-0.64,1.61-0.64c0.47,0,0.83,0.12,1.09,0.35c0.26,0.24,0.39,0.56,0.38,0.96h0.02
	l0.17-1.2h1.24l-1,6.29h-1.22l0.19-1.2h-0.02c-0.12,0.41-0.35,0.73-0.69,0.97C369.2,774.18,368.8,774.3,368.33,774.3z
	 M368.93,773.23c0.39,0,0.72-0.12,0.98-0.36c0.26-0.24,0.43-0.57,0.5-1.01l0.25-1.65c0.07-0.43,0.01-0.76-0.18-1
	c-0.19-0.24-0.47-0.36-0.86-0.36c-0.4,0-0.72,0.12-0.98,0.35c-0.26,0.24-0.42,0.57-0.49,1.01l-0.25,1.65
	c-0.07,0.44-0.01,0.78,0.17,1.01C368.24,773.11,368.53,773.23,368.93,773.23z M376.35,774.19c-0.57,0-0.99-0.16-1.26-0.47
	c-0.27-0.31-0.36-0.75-0.27-1.32l0.54-3.39h-1.74l0.17-1.12h1.74l0.27-1.72h1.24l-0.27,1.72h2.47l-0.18,1.12h-2.46l-0.54,3.39
	c-0.08,0.44,0.1,0.66,0.53,0.66h1.72l-0.17,1.12H376.35z M382.5,774.3c-0.77,0-1.35-0.22-1.73-0.67c-0.38-0.45-0.52-1.04-0.4-1.77
	l0.25-1.65c0.08-0.49,0.26-0.92,0.52-1.28c0.26-0.37,0.6-0.65,1.01-0.85c0.41-0.2,0.87-0.3,1.38-0.3c0.77,0,1.35,0.22,1.73,0.67
	c0.39,0.45,0.52,1.04,0.39,1.77l-0.17,1.12h-3.85l-0.09,0.53c-0.15,0.95,0.22,1.43,1.11,1.43c0.72,0,1.17-0.25,1.37-0.74h1.22
	c-0.17,0.53-0.5,0.96-1.01,1.28C383.76,774.14,383.18,774.3,382.5,774.3z M381.83,770.22l-0.05,0.29l2.65-0.01l0.05-0.29
	c0.07-0.47,0.01-0.82-0.17-1.07c-0.18-0.25-0.49-0.37-0.92-0.37c-0.44,0-0.8,0.13-1.06,0.38
	C382.08,769.39,381.91,769.75,381.83,770.22z M388.92,774.3c-0.63,0-1.1-0.21-1.4-0.64c-0.3-0.42-0.39-1-0.28-1.73l0.27-1.77
	c0.11-0.73,0.39-1.31,0.84-1.74c0.44-0.43,0.98-0.64,1.61-0.64c0.47,0,0.83,0.12,1.09,0.35c0.26,0.24,0.39,0.56,0.38,0.96h0.02
	l0.21-1.47l0.3-1.8h1.24l-1.33,8.35h-1.22l0.19-1.2h-0.02c-0.12,0.41-0.35,0.73-0.69,0.97C389.8,774.18,389.4,774.3,388.92,774.3z
	 M389.53,773.23c0.39,0,0.72-0.12,0.98-0.36c0.26-0.24,0.43-0.57,0.5-1.01l0.25-1.65c0.08-0.43,0.02-0.76-0.17-1
	c-0.19-0.24-0.48-0.36-0.87-0.36c-0.4,0-0.72,0.12-0.98,0.35c-0.26,0.24-0.42,0.57-0.49,1.01l-0.25,1.65
	c-0.08,0.44-0.02,0.78,0.16,1.01C388.83,773.11,389.13,773.23,389.53,773.23z M401.02,774.3c-0.47,0-0.84-0.12-1.1-0.35
	c-0.26-0.23-0.39-0.56-0.38-0.97h-0.01l-0.19,1.2h-1.22l1.33-8.35h1.24l-0.29,1.8l-0.27,1.47h0.05c0.12-0.41,0.35-0.73,0.69-0.97
	c0.34-0.23,0.74-0.35,1.21-0.35c0.63,0,1.1,0.21,1.4,0.64c0.3,0.43,0.39,1.01,0.28,1.74l-0.27,1.77c-0.11,0.73-0.39,1.31-0.84,1.73
	C402.18,774.09,401.64,774.3,401.02,774.3z M400.77,773.23c0.4,0,0.72-0.12,0.98-0.35c0.26-0.23,0.42-0.57,0.5-1.01l0.25-1.65
	c0.07-0.43,0.01-0.77-0.17-1.01c-0.18-0.24-0.47-0.35-0.87-0.35c-0.39,0-0.72,0.12-0.98,0.36c-0.26,0.24-0.43,0.57-0.5,1l-0.25,1.65
	c-0.07,0.44-0.01,0.77,0.17,1.01C400.08,773.11,400.37,773.23,400.77,773.23z M405.47,776.25l0.17-1.06h1.93
	c0.64,0,1.01-0.3,1.1-0.9l0.1-0.67l0.21-1.19h-0.03c-0.12,0.42-0.35,0.74-0.68,0.97c-0.33,0.23-0.73,0.34-1.2,0.34
	c-0.63,0-1.09-0.2-1.4-0.6c-0.31-0.4-0.41-0.94-0.3-1.63l0.58-3.6h1.24l-0.56,3.48c-0.06,0.41,0,0.73,0.18,0.96
	c0.18,0.23,0.47,0.34,0.85,0.34c0.39,0,0.72-0.12,0.98-0.37c0.27-0.24,0.43-0.58,0.49-1.02l0.54-3.4h1.24l-1.01,6.41
	c-0.1,0.6-0.37,1.08-0.81,1.42c-0.44,0.35-1,0.52-1.67,0.52H405.47z M417.79,770.09h3.22l0.54-1.85h-5.47l-1.71,6.44h2.15l0.59-2.1
	h3.03l0.44-1.71h-3.03L417.79,770.09z M424.23,772.92c-0.59,0-1.02-0.39-1.02-1.12c0-0.88,0.63-1.76,1.61-1.76
	c0.49,0,0.88,0.24,1.02,0.78l1.95-0.83c-0.29-1.17-1.27-1.9-2.64-1.9c-2.78,0-4.15,2.15-4.15,3.9c0,1.76,1.27,2.83,3.07,2.83
	c1.37,0,2.34-0.59,2.98-1.42l-1.51-1.17C425.16,772.67,424.72,772.92,424.23,772.92z M430.91,768.23h-2.15l-1.76,6.44h5.12
	l0.49-1.85h-2.93L430.91,768.23z M439.75,771.01c0-1.66-1.32-2.93-3.22-2.93c-2.2,0-3.81,1.81-3.81,3.81c0,1.66,1.32,2.93,3.22,2.93
	C438.14,774.82,439.75,773.01,439.75,771.01z M434.92,771.7c0-0.83,0.59-1.71,1.51-1.71c0.78,0,1.17,0.54,1.17,1.22
	c0,0.83-0.59,1.71-1.51,1.71C435.31,772.92,434.92,772.38,434.92,771.7z M443.21,772.23h1.07l-0.2,0.68
	c-0.15,0.05-0.34,0.1-0.59,0.1c-0.68,0-1.27-0.39-1.27-1.22c0-1.02,0.73-1.9,1.95-1.9c0.59,0,1.12,0.24,1.51,0.59l1.37-1.37
	c-0.44-0.54-1.51-1.07-2.73-1.07c-2.59,0-4.29,1.76-4.29,3.86c0,2.05,1.61,2.88,3.22,2.88c0.93,0,1.85-0.29,2.49-0.68l0.93-3.32
	h-3.12L443.21,772.23z M450.78,768.08c-2.2,0-3.81,1.81-3.81,3.81c0,1.66,1.32,2.93,3.22,2.93c2.2,0,3.81-1.81,3.81-3.81
	C454,769.35,452.68,768.08,450.78,768.08z M450.34,772.92c-0.78,0-1.17-0.54-1.17-1.22c0-0.83,0.59-1.71,1.51-1.71
	c0.78,0,1.17,0.54,1.17,1.22C451.85,772.04,451.27,772.92,450.34,772.92z M437.94,767.5c-0.05,0.29,0.1,0.49,0.44,0.49
	s0.54-0.2,0.63-0.49c0.05-0.24-0.1-0.49-0.44-0.49C438.24,767.01,437.99,767.25,437.94,767.5z M432.13,765.5
	c-0.44,0-0.73,0.24-0.78,0.59c-0.05,0.34,0.1,0.59,0.54,0.59s0.73-0.24,0.78-0.59C432.77,765.74,432.57,765.5,432.13,765.5z
	 M433.01,767.3c-0.1,0.54,0.15,0.88,0.83,0.88c0.63,0,1.07-0.39,1.17-0.88s-0.15-0.88-0.83-0.88
	C433.5,766.43,433.11,766.82,433.01,767.3z M439.6,777.55l-2.44-1.81h-1.51l4.25,3.17l1.61-3.17h-0.98L439.6,777.55z M425.84,767.16
	l-2-1.46l23.13-2.78l-2.15,4.25h1.02l2.68-5.32l-26.99,3.22l2.78,2.1H425.84z M338.72,785.79l0.61-3.83h2.32l-0.08,0.52h-1.76
	l-0.18,1.14h1.63l-0.08,0.52h-1.62l-0.26,1.64H338.72z M342.97,785.84c-0.36,0-0.62-0.1-0.8-0.3c-0.17-0.2-0.23-0.47-0.18-0.82
	l0.27-1.7c0.06-0.34,0.2-0.61,0.44-0.82c0.24-0.2,0.54-0.3,0.89-0.3c0.36,0,0.62,0.1,0.8,0.3c0.17,0.2,0.24,0.47,0.18,0.81
	l-0.27,1.71c-0.06,0.34-0.2,0.62-0.44,0.82C343.63,785.74,343.33,785.84,342.97,785.84z M343.05,785.33c0.19,0,0.35-0.05,0.47-0.16
	c0.12-0.11,0.19-0.26,0.23-0.46l0.27-1.7c0.03-0.2,0.01-0.35-0.08-0.46c-0.08-0.11-0.22-0.16-0.41-0.16s-0.35,0.05-0.46,0.16
	c-0.12,0.1-0.19,0.26-0.22,0.46l-0.27,1.7c-0.03,0.2-0.01,0.35,0.08,0.46C342.72,785.28,342.86,785.33,343.05,785.33z M345,785.79
	l0.61-3.83h1.2c0.24,0,0.44,0.05,0.6,0.14c0.16,0.09,0.28,0.22,0.36,0.39c0.07,0.17,0.09,0.37,0.05,0.59
	c-0.04,0.26-0.14,0.48-0.3,0.67c-0.16,0.19-0.37,0.32-0.6,0.39l0.54,1.64h-0.62l-0.48-1.57h-0.54l-0.25,1.57H345z M345.89,783.71
	h0.64c0.19,0,0.35-0.06,0.48-0.17c0.13-0.11,0.21-0.26,0.24-0.45c0.03-0.19,0-0.35-0.09-0.46c-0.09-0.11-0.24-0.17-0.43-0.17h-0.64
	L345.89,783.71z M349.54,785.79l0.61-3.83h1.25c0.37,0,0.65,0.1,0.84,0.31c0.19,0.21,0.26,0.49,0.2,0.84
	c-0.04,0.23-0.12,0.44-0.25,0.61s-0.29,0.31-0.49,0.4c-0.2,0.09-0.42,0.14-0.66,0.14h-0.69l-0.24,1.52H349.54z M350.43,783.75h0.69
	c0.19,0,0.36-0.06,0.49-0.18c0.14-0.12,0.22-0.27,0.25-0.47c0.03-0.2,0-0.35-0.1-0.47c-0.1-0.12-0.25-0.18-0.44-0.18h-0.69
	L350.43,783.75z M352.75,785.79l0.61-3.83h2.25l-0.08,0.5h-1.7l-0.17,1.09h1.51l-0.08,0.5h-1.51l-0.19,1.24h1.69l-0.08,0.5H352.75z
	 M355.84,785.79l0.61-3.83h1.2c0.24,0,0.44,0.05,0.6,0.14c0.16,0.09,0.28,0.22,0.36,0.39c0.07,0.17,0.09,0.37,0.05,0.59
	c-0.04,0.26-0.14,0.48-0.3,0.67c-0.16,0.19-0.37,0.32-0.6,0.39l0.54,1.64h-0.62l-0.48-1.57h-0.54l-0.25,1.57H355.84z M356.74,783.71
	h0.64c0.19,0,0.35-0.06,0.48-0.17c0.13-0.11,0.21-0.26,0.24-0.45c0.03-0.19,0-0.35-0.09-0.46c-0.09-0.11-0.24-0.17-0.43-0.17h-0.64
	L356.74,783.71z M360.13,785.84c-0.39,0-0.67-0.1-0.87-0.29c-0.19-0.19-0.26-0.45-0.22-0.78h0.57c-0.03,0.17,0.01,0.31,0.12,0.41
	c0.11,0.1,0.27,0.15,0.48,0.15c0.2,0,0.37-0.05,0.5-0.15c0.13-0.1,0.21-0.23,0.24-0.4c0.02-0.15,0-0.28-0.06-0.39
	c-0.06-0.11-0.16-0.18-0.29-0.22l-0.46-0.14c-0.27-0.08-0.46-0.22-0.59-0.41c-0.13-0.19-0.17-0.42-0.13-0.68
	c0.04-0.21,0.11-0.39,0.23-0.55c0.12-0.16,0.27-0.28,0.46-0.37c0.19-0.09,0.4-0.13,0.64-0.13c0.35,0,0.62,0.1,0.8,0.29
	c0.18,0.19,0.25,0.44,0.2,0.76h-0.57c0.03-0.17,0-0.3-0.09-0.4c-0.09-0.1-0.23-0.14-0.42-0.14c-0.19,0-0.34,0.04-0.46,0.13
	c-0.12,0.09-0.19,0.21-0.21,0.38c-0.02,0.15-0.01,0.28,0.05,0.39c0.06,0.11,0.16,0.18,0.29,0.22l0.47,0.15
	c0.26,0.08,0.46,0.22,0.58,0.41c0.12,0.19,0.17,0.42,0.12,0.69c-0.04,0.22-0.12,0.41-0.24,0.57c-0.13,0.16-0.29,0.29-0.49,0.38
	C360.6,785.79,360.38,785.84,360.13,785.84z M363.27,785.84c-0.36,0-0.62-0.1-0.8-0.3c-0.17-0.2-0.23-0.47-0.18-0.82l0.27-1.7
	c0.06-0.34,0.2-0.61,0.44-0.82c0.24-0.2,0.54-0.3,0.89-0.3c0.36,0,0.62,0.1,0.8,0.3c0.17,0.2,0.24,0.47,0.18,0.81l-0.27,1.71
	c-0.06,0.34-0.2,0.62-0.44,0.82C363.92,785.74,363.62,785.84,363.27,785.84z M363.34,785.33c0.19,0,0.35-0.05,0.47-0.16
	c0.12-0.11,0.19-0.26,0.23-0.46l0.27-1.7c0.03-0.2,0.01-0.35-0.08-0.46c-0.08-0.11-0.22-0.16-0.41-0.16c-0.19,0-0.35,0.05-0.46,0.16
	c-0.12,0.1-0.19,0.26-0.22,0.46l-0.27,1.7c-0.03,0.2-0.01,0.35,0.08,0.46C363.02,785.28,363.15,785.33,363.34,785.33z
	 M365.28,785.79l0.61-3.83h0.71l0.62,3.19c0.01-0.1,0.02-0.22,0.03-0.36c0.01-0.14,0.03-0.29,0.04-0.44
	c0.02-0.15,0.04-0.29,0.06-0.41l0.31-1.98h0.52l-0.61,3.83h-0.71l-0.61-3.19c-0.01,0.09-0.02,0.21-0.03,0.34s-0.03,0.28-0.04,0.42
	c-0.02,0.15-0.04,0.28-0.06,0.41l-0.31,2.01H365.28z M368.23,785.79l1.59-3.83h0.75l0.37,3.83h-0.56l-0.07-0.97h-1.09l-0.39,0.97
	H368.23z M369.39,784.34h0.87l-0.09-1.1c-0.02-0.2-0.03-0.37-0.04-0.51c-0.01-0.14-0.01-0.24-0.01-0.3c-0.02,0.06-0.05,0.16-0.1,0.3
	c-0.05,0.14-0.11,0.31-0.19,0.5L369.39,784.34z M371.72,785.79l0.61-3.83h0.57l-0.52,3.31h1.67l-0.08,0.52H371.72z M376.68,785.84
	c-0.37,0-0.63-0.1-0.8-0.3c-0.17-0.2-0.22-0.48-0.17-0.82l0.44-2.76h0.57l-0.44,2.76c-0.03,0.2-0.01,0.35,0.07,0.46
	c0.08,0.11,0.21,0.17,0.41,0.17c0.19,0,0.35-0.06,0.46-0.17c0.12-0.11,0.19-0.27,0.22-0.46l0.44-2.76h0.57l-0.44,2.76
	c-0.06,0.35-0.2,0.62-0.43,0.82C377.35,785.74,377.05,785.84,376.68,785.84z M379.84,785.84c-0.39,0-0.67-0.1-0.87-0.29
	c-0.19-0.19-0.26-0.45-0.22-0.78h0.57c-0.03,0.17,0.01,0.31,0.12,0.41c0.11,0.1,0.27,0.15,0.48,0.15c0.2,0,0.37-0.05,0.5-0.15
	c0.13-0.1,0.21-0.23,0.24-0.4c0.02-0.15,0-0.28-0.06-0.39c-0.06-0.11-0.16-0.18-0.29-0.22l-0.46-0.14
	c-0.27-0.08-0.46-0.22-0.59-0.41c-0.13-0.19-0.17-0.42-0.13-0.68c0.04-0.21,0.11-0.39,0.23-0.55s0.27-0.28,0.46-0.37
	c0.19-0.09,0.4-0.13,0.64-0.13c0.35,0,0.62,0.1,0.8,0.29c0.18,0.19,0.25,0.44,0.2,0.76h-0.57c0.03-0.17,0-0.3-0.09-0.4
	c-0.09-0.1-0.23-0.14-0.42-0.14c-0.19,0-0.34,0.04-0.46,0.13c-0.12,0.09-0.19,0.21-0.21,0.38c-0.02,0.15-0.01,0.28,0.05,0.39
	c0.06,0.11,0.16,0.18,0.29,0.22l0.47,0.15c0.26,0.08,0.46,0.22,0.58,0.41c0.12,0.19,0.17,0.42,0.12,0.69
	c-0.04,0.22-0.12,0.41-0.24,0.57c-0.13,0.16-0.29,0.29-0.49,0.38C380.31,785.79,380.09,785.84,379.84,785.84z M381.91,785.79
	l0.61-3.83h2.25l-0.08,0.5h-1.7l-0.17,1.09h1.51l-0.08,0.5h-1.51l-0.19,1.24h1.69l-0.08,0.5H381.91z M386.94,785.84
	c-0.36,0-0.62-0.1-0.8-0.3c-0.17-0.2-0.23-0.47-0.18-0.82l0.27-1.7c0.06-0.34,0.2-0.61,0.44-0.82c0.24-0.2,0.54-0.3,0.89-0.3
	c0.36,0,0.62,0.1,0.8,0.3c0.17,0.2,0.24,0.47,0.18,0.81l-0.27,1.71c-0.06,0.34-0.2,0.62-0.44,0.82
	C387.6,785.74,387.3,785.84,386.94,785.84z M387.02,785.33c0.19,0,0.35-0.05,0.47-0.16c0.12-0.11,0.19-0.26,0.23-0.46l0.27-1.7
	c0.03-0.2,0.01-0.35-0.08-0.46c-0.08-0.11-0.22-0.16-0.41-0.16c-0.19,0-0.35,0.05-0.46,0.16c-0.12,0.1-0.19,0.26-0.22,0.46
	l-0.27,1.7c-0.03,0.2-0.01,0.35,0.08,0.46C386.7,785.28,386.83,785.33,387.02,785.33z M388.95,785.79l0.61-3.83h0.71l0.62,3.19
	c0.01-0.1,0.02-0.22,0.03-0.36c0.01-0.14,0.03-0.29,0.04-0.44c0.02-0.15,0.04-0.29,0.06-0.41l0.31-1.98h0.52l-0.61,3.83h-0.71
	l-0.61-3.19c-0.01,0.09-0.02,0.21-0.03,0.34c-0.01,0.13-0.03,0.28-0.04,0.42c-0.02,0.15-0.04,0.28-0.06,0.41l-0.31,2.01H388.95z
	 M392.25,785.79l0.61-3.83h0.57l-0.52,3.31h1.67l-0.08,0.52H392.25z M396.12,785.79l0.22-1.41l-0.75-2.42h0.58l0.45,1.45
	c0.03,0.09,0.05,0.18,0.07,0.27c0.02,0.08,0.03,0.15,0.03,0.19c0.02-0.04,0.05-0.1,0.09-0.19c0.04-0.08,0.09-0.17,0.14-0.27
	l0.9-1.45h0.6l-1.53,2.42l-0.22,1.41H396.12z M399.22,785.79l0.61-3.83h0.71l0.62,3.19c0.01-0.1,0.02-0.22,0.03-0.36
	c0.01-0.14,0.03-0.29,0.04-0.44c0.02-0.15,0.04-0.29,0.06-0.41l0.31-1.98h0.52l-0.61,3.83h-0.71l-0.61-3.19
	c-0.01,0.09-0.02,0.21-0.03,0.34c-0.01,0.13-0.03,0.28-0.04,0.42c-0.02,0.15-0.04,0.28-0.06,0.41l-0.31,2.01H399.22z M403.51,785.84
	c-0.36,0-0.62-0.1-0.8-0.3c-0.18-0.2-0.23-0.47-0.18-0.82l0.27-1.7c0.06-0.34,0.2-0.61,0.44-0.82c0.24-0.2,0.54-0.3,0.89-0.3
	c0.36,0,0.62,0.1,0.8,0.3c0.17,0.2,0.24,0.47,0.18,0.81l-0.27,1.71c-0.06,0.34-0.2,0.62-0.44,0.82
	C404.16,785.74,403.86,785.84,403.51,785.84z M403.58,785.33c0.19,0,0.35-0.05,0.47-0.16c0.12-0.11,0.19-0.26,0.23-0.46l0.27-1.7
	c0.03-0.2,0.01-0.35-0.08-0.46c-0.08-0.11-0.22-0.16-0.41-0.16c-0.19,0-0.35,0.05-0.46,0.16c-0.12,0.1-0.19,0.26-0.22,0.46
	l-0.27,1.7c-0.03,0.2-0.01,0.35,0.08,0.46C403.26,785.28,403.4,785.33,403.58,785.33z M406.38,785.79l0.52-3.31h-1.02l0.08-0.52
	h2.62l-0.08,0.52h-1.03l-0.52,3.31H406.38z M409.52,785.79l0.61-3.83h2.32l-0.08,0.52h-1.76l-0.18,1.14h1.63l-0.08,0.52h-1.62
	l-0.26,1.64H409.52z M413.77,785.84c-0.36,0-0.62-0.1-0.8-0.3c-0.18-0.2-0.23-0.47-0.18-0.82l0.27-1.7c0.06-0.34,0.2-0.61,0.44-0.82
	c0.24-0.2,0.54-0.3,0.89-0.3c0.36,0,0.62,0.1,0.8,0.3c0.17,0.2,0.24,0.47,0.18,0.81l-0.27,1.71c-0.06,0.34-0.2,0.62-0.44,0.82
	C414.42,785.74,414.13,785.84,413.77,785.84z M413.85,785.33c0.19,0,0.35-0.05,0.47-0.16c0.12-0.11,0.19-0.26,0.23-0.46l0.27-1.7
	c0.03-0.2,0.01-0.35-0.08-0.46c-0.08-0.11-0.22-0.16-0.41-0.16c-0.19,0-0.35,0.05-0.46,0.16c-0.12,0.1-0.19,0.26-0.22,0.46
	l-0.27,1.7c-0.03,0.2-0.01,0.35,0.08,0.46C413.52,785.28,413.66,785.33,413.85,785.33z M415.8,785.79l0.61-3.83h1.2
	c0.24,0,0.44,0.05,0.6,0.14c0.16,0.09,0.28,0.22,0.36,0.39c0.07,0.17,0.09,0.37,0.05,0.59c-0.04,0.26-0.14,0.48-0.3,0.67
	c-0.16,0.19-0.37,0.32-0.6,0.39l0.54,1.64h-0.62l-0.48-1.57h-0.54l-0.25,1.57H415.8z M416.69,783.71h0.64
	c0.19,0,0.35-0.06,0.48-0.17c0.13-0.11,0.21-0.26,0.24-0.45c0.03-0.19,0-0.35-0.09-0.46c-0.09-0.11-0.24-0.17-0.43-0.17h-0.64
	L416.69,783.71z M420.91,785.84c-0.36,0-0.63-0.1-0.81-0.3c-0.18-0.2-0.24-0.47-0.19-0.82l0.27-1.7c0.06-0.35,0.21-0.62,0.45-0.82
	s0.55-0.3,0.91-0.3c0.36,0,0.63,0.1,0.81,0.3c0.18,0.2,0.24,0.47,0.19,0.82h-0.57c0.03-0.2,0-0.35-0.09-0.46
	c-0.09-0.11-0.23-0.16-0.42-0.16c-0.19,0-0.35,0.05-0.48,0.16c-0.12,0.1-0.2,0.26-0.23,0.45l-0.27,1.71c-0.03,0.2,0,0.35,0.09,0.46
	c0.09,0.11,0.23,0.16,0.42,0.16c0.19,0,0.35-0.05,0.47-0.16c0.12-0.11,0.2-0.26,0.23-0.46h0.57c-0.03,0.23-0.11,0.43-0.24,0.59
	c-0.12,0.17-0.28,0.3-0.47,0.39C421.36,785.79,421.14,785.84,420.91,785.84z M424.03,785.84c-0.36,0-0.62-0.1-0.8-0.3
	c-0.18-0.2-0.23-0.47-0.18-0.82l0.27-1.7c0.06-0.34,0.2-0.61,0.44-0.82c0.24-0.2,0.54-0.3,0.89-0.3c0.36,0,0.62,0.1,0.8,0.3
	c0.17,0.2,0.24,0.47,0.18,0.81l-0.27,1.71c-0.06,0.34-0.2,0.62-0.44,0.82C424.69,785.74,424.39,785.84,424.03,785.84z
	 M424.11,785.33c0.19,0,0.35-0.05,0.47-0.16c0.12-0.11,0.19-0.26,0.23-0.46l0.27-1.7c0.03-0.2,0.01-0.35-0.08-0.46
	c-0.08-0.11-0.22-0.16-0.41-0.16c-0.19,0-0.35,0.05-0.46,0.16c-0.12,0.1-0.19,0.26-0.22,0.46l-0.27,1.7
	c-0.03,0.2-0.01,0.35,0.08,0.46C423.79,785.28,423.92,785.33,424.11,785.33z M425.97,785.79l0.61-3.83h0.69l0.18,1.23
	c0.02,0.12,0.04,0.23,0.05,0.33c0.01,0.1,0.02,0.18,0.03,0.24c0.02-0.06,0.05-0.14,0.09-0.24c0.04-0.11,0.09-0.22,0.15-0.34
	l0.57-1.22h0.71l-0.61,3.83h-0.54l0.2-1.29c0.02-0.17,0.06-0.35,0.1-0.55c0.04-0.2,0.09-0.4,0.14-0.61c0.05-0.2,0.1-0.4,0.14-0.59
	c0.05-0.19,0.09-0.35,0.13-0.49l-0.86,1.86h-0.55l-0.28-1.86c0,0.14-0.01,0.29-0.02,0.47c-0.01,0.18-0.02,0.37-0.04,0.57
	c-0.02,0.2-0.04,0.41-0.06,0.61c-0.02,0.2-0.05,0.4-0.08,0.57l-0.2,1.29H425.97z M429.11,785.79l0.61-3.83h0.69l0.18,1.23
	c0.02,0.12,0.04,0.23,0.05,0.33c0.01,0.1,0.02,0.18,0.03,0.24c0.02-0.06,0.05-0.14,0.09-0.24c0.04-0.11,0.09-0.22,0.15-0.34
	l0.57-1.22h0.71l-0.61,3.83h-0.54l0.2-1.29c0.02-0.17,0.06-0.35,0.1-0.55c0.04-0.2,0.09-0.4,0.14-0.61c0.05-0.2,0.1-0.4,0.14-0.59
	c0.05-0.19,0.09-0.35,0.13-0.49l-0.86,1.86h-0.55l-0.28-1.86c0,0.14-0.01,0.29-0.02,0.47c-0.01,0.18-0.02,0.37-0.04,0.57
	c-0.02,0.2-0.04,0.41-0.06,0.61c-0.02,0.2-0.05,0.4-0.08,0.57l-0.2,1.29H429.11z M432.41,785.79l0.61-3.83h2.25l-0.08,0.5h-1.7
	l-0.17,1.09h1.51l-0.08,0.5h-1.51l-0.19,1.24h1.69l-0.08,0.5H432.41z M435.51,785.79l0.61-3.83h1.2c0.24,0,0.44,0.05,0.6,0.14
	c0.16,0.09,0.28,0.22,0.36,0.39c0.07,0.17,0.09,0.37,0.05,0.59c-0.04,0.26-0.14,0.48-0.3,0.67c-0.16,0.19-0.37,0.32-0.6,0.39
	l0.54,1.64h-0.62l-0.48-1.57h-0.54l-0.25,1.57H435.51z M436.4,783.71h0.64c0.19,0,0.35-0.06,0.48-0.17
	c0.13-0.11,0.21-0.26,0.24-0.45c0.03-0.19,0-0.35-0.09-0.46c-0.09-0.11-0.24-0.17-0.43-0.17h-0.64L436.4,783.71z M439.8,785.84
	c-0.36,0-0.63-0.1-0.81-0.3c-0.18-0.2-0.24-0.47-0.19-0.82l0.27-1.7c0.06-0.35,0.21-0.62,0.45-0.82s0.55-0.3,0.91-0.3
	c0.36,0,0.63,0.1,0.81,0.3c0.18,0.2,0.24,0.47,0.19,0.82h-0.57c0.03-0.2,0-0.35-0.09-0.46c-0.09-0.11-0.23-0.16-0.42-0.16
	c-0.19,0-0.35,0.05-0.47,0.16c-0.12,0.1-0.2,0.26-0.23,0.45l-0.27,1.71c-0.03,0.2,0,0.35,0.09,0.46c0.09,0.11,0.23,0.16,0.42,0.16
	s0.35-0.05,0.47-0.16c0.12-0.11,0.2-0.26,0.23-0.46h0.57c-0.03,0.23-0.11,0.43-0.24,0.59c-0.12,0.17-0.28,0.3-0.47,0.39
	C440.25,785.79,440.04,785.84,439.8,785.84z M441.88,785.79l0.08-0.5h0.78l0.45-2.82h-0.78l0.08-0.5h2.13l-0.08,0.5h-0.78
	l-0.45,2.82h0.78l-0.08,0.5H441.88z M444.74,785.79l1.59-3.83h0.75l0.37,3.83h-0.56l-0.07-0.97h-1.09l-0.39,0.97H444.74z
	 M445.9,784.34h0.87l-0.09-1.1c-0.02-0.2-0.03-0.37-0.04-0.51c-0.01-0.14-0.01-0.24-0.01-0.3c-0.02,0.06-0.05,0.16-0.1,0.3
	c-0.05,0.14-0.11,0.31-0.19,0.5L445.9,784.34z M448.24,785.79l0.61-3.83h0.57l-0.52,3.31h1.67l-0.08,0.52H448.24z M453.19,785.84
	c-0.37,0-0.63-0.1-0.8-0.3c-0.17-0.2-0.22-0.48-0.17-0.82l0.44-2.76h0.57l-0.44,2.76c-0.03,0.2-0.01,0.35,0.07,0.46
	c0.08,0.11,0.21,0.17,0.41,0.17c0.19,0,0.35-0.06,0.46-0.17c0.12-0.11,0.19-0.27,0.22-0.46l0.44-2.76h0.57l-0.44,2.76
	c-0.06,0.35-0.2,0.62-0.43,0.82C453.86,785.74,453.56,785.84,453.19,785.84z M456.36,785.84c-0.39,0-0.67-0.1-0.87-0.29
	c-0.19-0.19-0.26-0.45-0.22-0.78h0.57c-0.03,0.17,0.01,0.31,0.12,0.41c0.11,0.1,0.27,0.15,0.48,0.15c0.2,0,0.37-0.05,0.5-0.15
	s0.21-0.23,0.24-0.4c0.02-0.15,0-0.28-0.06-0.39c-0.06-0.11-0.16-0.18-0.29-0.22l-0.46-0.14c-0.27-0.08-0.46-0.22-0.59-0.41
	c-0.13-0.19-0.17-0.42-0.13-0.68c0.04-0.21,0.11-0.39,0.23-0.55c0.12-0.16,0.27-0.28,0.46-0.37c0.19-0.09,0.4-0.13,0.64-0.13
	c0.35,0,0.62,0.1,0.8,0.29c0.18,0.19,0.25,0.44,0.2,0.76h-0.57c0.03-0.17,0-0.3-0.09-0.4c-0.09-0.1-0.23-0.14-0.42-0.14
	c-0.19,0-0.34,0.04-0.46,0.13c-0.12,0.09-0.19,0.21-0.21,0.38c-0.02,0.15-0.01,0.28,0.05,0.39c0.06,0.11,0.16,0.18,0.29,0.22
	l0.47,0.15c0.26,0.08,0.46,0.22,0.58,0.41c0.12,0.19,0.17,0.42,0.12,0.69c-0.04,0.22-0.12,0.41-0.24,0.57
	c-0.13,0.16-0.29,0.29-0.49,0.38C456.82,785.79,456.6,785.84,456.36,785.84z M458.42,785.79l0.61-3.83h2.25l-0.08,0.5h-1.7
	l-0.17,1.09h1.51l-0.08,0.5h-1.51l-0.19,1.24h1.69l-0.08,0.5H458.42z"/>
<g>
	<path style="fill:#231815;" d="M384.4,628.41c-3.46,0-6.64,1.42-9.01,3.82c-0.72,0.74-1.38,1.56-1.94,2.47
		c-2.04,3.46-2.91,7.8-2.91,11.79c0,4.04,0.92,8.69,3.22,12.16c0.48,0.71,1.04,1.34,1.64,1.93c2.37,2.32,5.59,3.66,8.91,3.66
		c4.34,0,8.2-2.58,10.56-6.07c2.27-3.49,3.13-7.86,3.13-12.04c0-4.37-0.86-8.76-3.43-12.43C392.1,630.28,388.64,628.41,384.4,628.41
		z M384.14,657.97c-4.15,0-4.52-8.17-4.52-10.92c0-2.75,0.02-6.27,0.98-8.81c0.59-1.57,1.9-3.71,3.78-3.71
		c4.33,0,4.39,7.97,4.39,10.91C388.77,648.42,388.42,657.97,384.14,657.97z"/>
	<path style="fill:#231815;" d="M415.51,628.41c-4.54,0-8.59,2.42-10.99,6.28c-2.05,3.46-2.92,7.8-2.92,11.79
		c0,4.04,0.95,8.69,3.23,12.16c2.36,3.5,6.43,5.59,10.59,5.59c3.58,0,6.84-1.8,9.23-4.43c0.47-0.51,0.91-1.07,1.31-1.64
		c2.3-3.49,3.13-7.86,3.13-12.04c0-4.37-0.83-8.76-3.43-12.43c-0.32-0.44-0.65-0.85-1-1.24
		C422.28,629.83,419.19,628.41,415.51,628.41z M415.21,657.97c-4.15,0-4.52-8.17-4.52-10.92c0-2.75,0.07-6.27,1-8.81
		c0.59-1.57,1.88-3.71,3.73-3.71c4.35,0,4.46,7.97,4.46,10.91C419.89,648.42,419.54,657.97,415.21,657.97z"/>
	<path style="fill:#231815;" d="M427.94,459.47c1.42,0.69,2.83,1.43,4.21,2.23c0.04-0.04,0.06-0.07,0.1-0.07
		c0.62-2.24,1.86-4.41,3.16-6.09l-1.45,0.78c0,0-5.71,2.97-5.75,3.02L427.94,459.47z"/>
	<path style="fill:#231815;" d="M363.13,454.35c1.82,1.75,3.71,4.63,4.51,7.59c1.6-0.96,3.26-1.82,4.94-2.63
		c-0.64-0.33-1.08-0.56-1.08-0.54c0,0-5.64-2.88-5.72-2.92L363.13,454.35z"/>
	<path style="fill:#231815;" d="M287.16,465.57c8.57,4.87,12.67,1.4,13.02,1.09c0.92-0.24,4.15-1.11,4.97-1.42
		c5.96-0.11,11.19-2.67,11.19-2.67c-1.51-1.43-6.06-4.72-6.06-4.72c-5.24,0.13-15.25,2.41-17.3,3.34h-0.03
		c-0.09,0.04-0.16,0.07-0.16,0.07l-6.09,0.61C280.08,463.08,287.16,465.57,287.16,465.57z"/>
	<path style="fill:#231815;" d="M289.56,460.37c1.14-0.68,7.74-2.25,7.74-2.25c-5.81,0.04-10.47-3.8-10.47-3.8l-4.02-0.62
		c-4.65-0.64-2.19,3.46-2.19,3.46C283.64,460.45,287.31,460.68,289.56,460.37z"/>
	<path style="fill:#231815;" d="M285.74,452.61c0,0,1.34-0.33,2.14-0.21c4.65,6.7,21.22,3.93,21.22,3.93
		c-1.18-2.14-0.46-3.85-0.13-4.46c-4.44-0.94-9.65-1.68-14.68-2.66c-0.77-0.48-2.43-0.79-3.23-1.27c0.18,0.09-4.06-2.03-3.91-1.96
		c-6.05-2.49-10.53-6.93-10.53-6.93c-0.33,1.55,0.15,2.95,0.85,4.12c0.26,0.38-1.01,1.71-1.01,1.71
		C278.03,452.8,285.74,452.61,285.74,452.61z"/>
	<path style="fill:#231815;" d="M282.37,425.16c0,0-0.81,1.84,0.77,4.15c0,0,1.9,4.22,13.33,10.44c0,0,4.91,2.41,7.18,3.72
		c0,0,3.63-3.52,8.65-2.46c-2.92-1.97-9.17-6.25-11.62-8.39c-1.88-2.06-2.8-2.17-3.78-2.96
		C291.8,426.25,283.99,421.64,282.37,425.16z"/>
	<path style="fill:#231815;" d="M295.55,474.05c5.49,3.3,10.27-1.57,10.27-1.57c-0.33,0,4.92-1.99,4.92-1.99
		c6.6-1.16,10.86-4.04,10.86-4.04l-2.74-2.68c-1.96,1.04-5.99,2.43-5.99,2.43c-4.2,0.56-8.22,1.94-8.22,1.94
		c-0.15,0.1-3.19,0.3-3.19,0.3l-5.02,1.62C292.52,471.99,295.55,474.05,295.55,474.05z"/>
	<path style="fill:#231815;" d="M292.88,471.14c-4.74,1.97-12.89,4.52-18.7,6.25c-3.91,1.17-6.75,1.97-6.75,1.97
		c-12.85,3.98,0.37,3.8,0.37,3.8c2.23,0.18,4.36,0.23,6.39,0.18c15.49-0.4,25.13-6.82,25.13-6.82
		C292.43,476.87,292.88,471.14,292.88,471.14z"/>
	<path style="fill:#231815;" d="M276.98,431.56c-2.14,6.3,9.55,12.37,14.26,14.8c-0.39-0.37,13.19,3.09,16,3.82
		c-3.36-1.94-3.65-5.25-3.65-5.25l-13.17-6.18c-1.4-1.01-4.33-2.89-4.33-2.89c-2.58-1.68-3.72-4.07-3.72-4.07
		C278.81,428.22,276.98,431.56,276.98,431.56z"/>
	<path style="fill:#231815;" d="M276.69,475.16c0,0,12.5-4.66,15.12-5.73c0,0-9.29-2.31-10.11-5.67c-1.46,0.49-4.01,1.4-7.52,2.79
		c-2.27,0.9-4.93,2.01-7.96,3.35c0,0-23.45,8.49-11.41,8.34c0,0,12.16-0.47,19.37-2.29C275.11,475.7,275.97,475.44,276.69,475.16z"
		/>
	<path style="fill:#231815;" d="M280.54,462.33c0,0,0.96-0.82,1.88-1.41c-1.09-0.66-4.6-2.82-4.9-4.4c0,0-1.25,0.04-3.34,0.24
		c-5.03,0.48-14.89,1.84-23.76,5.67c0,0-23.44,7.08-5.63,5.57c0,0,18.11-1.25,29.39-3.75C276.75,463.67,278.98,463.03,280.54,462.33
		z"/>
	<path style="fill:#231815;" d="M337.49,457.9l-8.19-0.26c-2.11,0.07-4.08-0.09-5.88-0.35c-6.45-0.97-10.69-3.5-10.69-3.5
		c-3.45-1.81-1.34,1.62-1.34,1.62c2.98,4.74,7.55,6.68,12.02,7.3c6.97,0.97,13.68-1.3,13.68-1.3
		C337.97,460.08,337.49,457.9,337.49,457.9z"/>
	<path style="fill:#231815;" d="M336.29,452.41c-1.77-0.27-8.76-3.3-12.88-5.12c-1.83-0.81-3.08-1.39-3.08-1.39
		c-7.26-4.3-12.19-2.86-12.19-2.86c-6.58,0.96,2.03,7.65,2.03,7.65c5.03,2.74,9.49,4.27,13.24,5.07c8.3,1.78,13.15,0.02,13.15,0.02
		C338.38,453.9,336.29,452.41,336.29,452.41z"/>
	<path style="fill:#231815;" d="M323.41,434.02c-3.91-0.06-7.69,0.38-7.69,0.38c-4.7,0.35-1.31,3.65-1.31,3.65
		c2.17,3.37,5.56,5.9,9.01,7.76c6.2,3.34,12.61,4.52,12.61,4.52c-1.16-4.93-6.66-15.62-6.66-15.62
		C327.73,434.23,325.55,434.05,323.41,434.02z"/>
	<path style="fill:#231815;" d="M335.87,463.36c-2.89,1.39-9.31,0.95-12.45,0.62c-1.1-0.11-1.81-0.21-1.81-0.21
		c0.54,0.25,1.18,0.74,1.81,1.3c1.5,1.32,2.95,3.06,2.95,3.06c3.26,4.24,8.04,3.93,8.04,3.93c0.57-0.7,1.01-3,1.01-3
		c-0.27-0.05,0.63-1.9,0.94-2.51C336.87,466.42,335.87,463.36,335.87,463.36z"/>
	<path style="fill:#231815;" d="M341.9,477.45c4.62-6.93,10.92-8.21,15.61-7.96c0.16-0.14,0.3-0.29,0.45-0.42
		c0-0.05-0.02-0.13-0.02-0.13c-3.59-2.34-6.36-6.58-6.56-8.81c0,0-0.09-0.61-0.09-0.65l-0.18-1.53c0-2,0.94-3.67,2.67-4.95
		c1.81-1.3,3.47-1.39,4.75-1.13l-0.03-0.14c-1.61-0.93-3.74-2.16-3.82-2.18c0,0-5.11-3.34-5.21-3.42c0,0-4.74-3.6-4.83-3.76
		c0,0-4.24-4.04-4.37-4.15c0,0-3.51-4.41-3.65-4.56c0,0-2.93-4.94-3.06-5.2c0,0-2.01-5.55-2.12-5.96c0,0-0.58-5.31-0.83-7.57
		c-1.28,0.23-4.91,0.88-7.21,1.29c-1.16,0.21-1.99,0.35-1.99,0.35l1.99-2.7l7.05-9.6c-1.98-2.55-4.34-5.45-7.05-8.64
		c-7.72-9.1-18.42-20.59-32.36-33.18c0,0-7.43-6.41-16.87-14.9c-13.06-11.73-30-27.41-36.54-35.56c0,0-10.19-11.4-15.47-23.69
		c-2.09-4.87-3.41-9.87-3.02-14.37c0,0,1.46-8.47,3.02-13.6v-7.78c-0.59-1.49-1.67-2.8-3.61-3.38c0,0-5.29-1.88-8.07,6.28
		c0,0-7.53,15.25-2.72,28.05c0,0,5.22,13.86,14.4,27.23c3.96,5.76,8.65,11.42,13.98,15.84c0,0,16,11.66,38.03,32.91
		c0.96,0.92,1.92,1.86,2.9,2.82c0,0,16.94,15.86,33.19,39.79c0,0,6.64,9.27,13.14,19.37c4.84,7.52,9.61,15.51,11.51,20.48
		c0,0,7.7,17.35,3.17,26.6c-4.5,9.26-8.49,13-8.49,13c-2.21,0.24-4.27,0.35-6.19,0.36c-13.7,0.08-20.06-4.92-20.06-4.92
		c-5.03,4.32-20.5,6.88-20.5,6.88c-7.11,1.44-8.15,3.72-8.15,3.72c-0.02,0.02-0.24,0.19-0.52,0.4c-0.27,0.2-0.59,0.44-0.86,0.64
		c0.12,0.11,0.37,0.29,0.86,0.5c1.27,0.52,4.21,1.22,11.01,1.45c0.23,0.04,21.39,3.89,32.32,2.36c0.05-0.02,2.51-0.76,5.9-2.19
		C329.17,488.3,337.65,483.84,341.9,477.45z"/>
	<path style="fill:#231815;" d="M321.53,423.02c0,0-1.24-2.88-2.25-4.51l-13.39-19.42c0,0-5.9-0.6-3.34,9.81
		c-0.53,1.79-6.23-1.48-5.55,1.2c0.74,3.06,7.93,7.78,11.69,11.97c-0.17-0.37,5.2,6.93,7.9,9.79l4.56,0.07l2.27,0.2l0.38,0.03
		l4.52,0.81c-1.62-3.61-3.52-6.21-4.9-7.87C322.2,423.67,321.4,422.97,321.53,423.02z"/>
	<path style="fill:#231815;" d="M323.41,479.52c2.53-0.05,4.29-0.17,4.29-0.17c2.88-1.64,5.22-4.94,5.22-4.94
		c-0.69-0.7-1.61-1.04-1.61-1.04c-2.71-1-7.43-4.95-7.89-5.34c-0.02-0.02-0.04-0.04-0.04-0.04l-8.07,3.01c0.2,0.09-10,4.46-10,4.46
		C304.84,479.38,316.78,479.66,323.41,479.52z"/>
	<path style="fill:#231815;" d="M211.89,321.44c2.75,4.64,6.41,9.8,10.29,14.87c10.55,13.76,22.75,26.82,22.75,26.82
		c0.83,0.15,1.96,4.35,1.96,4.35c9.1,13.94,18.25,21.7,18.25,21.7c-0.25-0.27,3.87,2.33,9.05,5.64
		c8.32,5.32,19.38,12.47,19.38,12.47l7.17,0.31c-1.53-2.67-0.79-7.54-0.79-7.54c0.38-2.47,4.59-2.8,4.59-2.8
		c-4.74-6.86-20.69-25-20.69-25c-7.45-7.83-9.44-9.47-9.44-9.47c-0.07-0.08-0.15-0.17-0.22-0.25c-7.84-9.2-26.05-24.02-26.05-24.02
		c-12.13-9.55-24-21.13-24-21.13c-0.64-0.68-1.3-1.45-1.96-2.29c-7.79-9.8-16.09-28.96-16.09-28.96c-6.05-3.74-9.09,1.46-9.09,1.46
		c-2.12,2.03,3.34,12.26,3.34,12.26C202.02,302.88,211.89,321.44,211.89,321.44z"/>
	<path style="fill:#231815;" d="M222.18,360.39c1.19,1.82,2.18,3.25,2.84,4.09c11.71,11.39,11.14,12.26,16.37,15.74l5.26,6.51
		l5.35,7.86c5.75,5.52,14.88,10.59,22.18,14.13c6.47,3.14,11.51,5.08,11.51,5.08c2.6-1.01,5.7,0.88,5.7,0.88
		c3.63,1.41,0.68-2.14,0.68-2.14c-0.22-0.04-0.34-1.88-0.34-1.88l0.54-2.49c-7.69-3.85-13.79-7.45-18.09-10.19
		c-4.76-3.03-7.32-4.99-7.32-4.99c-7.14-3.89-11.56-8.37-11.38-8.78c0,0-11.71-15.87-12.81-20.28c0,0-9.84-9.93-20.49-23.67
		c-4.24-5.47-8.62-11.55-12.54-17.85c0,0-7.58-15.54-9.75-19.51c0,0-3.82-8.39-5.01-1.02c0,0-2.84,8.83,8.35,27.25
		C203.23,329.11,215.71,350.49,222.18,360.39z"/>
	<path style="fill:#231815;" d="M221.56,381.42c0,0,0.23,0.21,0.62,0.54c2.1,1.84,9.26,8.06,13.24,10.69c5,4.79,4.79,3.06,9.18,9.42
		c0,0,8.53,7.93,29.59,16.02c3.24,1.25,6.77,2.5,10.62,3.72l0.12-1.64c0,0-1.98-3.6-0.26-4.81c0,0-4.82-1.97-10.49-4.47
		c-6.14-2.7-13.29-6.01-16.48-8.11l-2.68-1.47l-7.99-8.35c-1.02-0.82-3.93-7.8-13.26-15.56c0,0-4.97-3.89-11.6-10.64
		c-7.85-7.99-18.02-19.97-25.07-34.3c0,0-3.27-9.62-6.88-9.05c0,0-7.28,2.64,3.3,20.26C193.53,343.66,210.68,372.5,221.56,381.42z"
		/>
	<path style="fill:#231815;" d="M274.18,450.32c1.95,0.09,3.06,0.12,3.06,0.12l-2.62-5.66c-0.14,0.01-0.29,0.02-0.44,0.03
		c-13.11,1.14-34.38-2.04-34.38-2.04c-6.71-0.58-12.66-1.43-17.63-2.3c-9.87-1.74-15.8-3.57-15.8-3.57
		c-15.93,2.84-1.97,4.28-1.97,4.28c3.92,1.79,10.34,3.26,17.77,4.47C240.71,448.64,265.6,449.94,274.18,450.32z"/>
	<path style="fill:#231815;" d="M275.75,454.43c0.96-1.51,2.8-2.15,2.8-2.15c-0.62-0.15-2.21-0.32-4.37-0.5
		c-9.46-0.81-30.05-1.82-30.05-1.82c-6.49,0.22-19.21,2.58-19.21,2.58c-1.01,0.06-1.92,0.13-2.75,0.2c-12.01,0.98-4.88,2.52,0,3.29
		c1.86,0.3,3.39,0.48,3.39,0.48c23.95,2.83,43.15-0.59,48.62-1.74C275.21,454.56,275.75,454.43,275.75,454.43z"/>
	<path style="fill:#231815;" d="M222.18,438.95c19.64,3.7,39.66,4.1,39.66,4.1c3.68-0.29,9.93-0.23,12.35-0.19
		c0.62,0.01,1.01,0.02,1.01,0.02c-0.84-2.14-0.16-5.02-0.16-5.02c-0.28-0.05-0.56-0.09-0.85-0.14
		c-14.28-2.37-28.79-10.23-28.79-10.23l-2.05,0.1c-5.48,1.23-15.43-0.85-15.43-0.85c0.76,0.7-5.08-0.05-5.74-0.14
		c-0.04-0.01-0.07-0.01-0.07-0.01l-25.51-0.52c-12.32,0.3,2.43,6.24,2.43,6.24C205.66,435.26,213.89,437.4,222.18,438.95z"/>
	<path style="fill:#231815;" d="M221.59,413.47c0.11-0.16,0.33-0.19,0.59-0.18c0.64,0.04,1.51,0.43,1.51,0.43
		c5.11,2.79,7.55,3.47,7.55,3.47c17.51,12.97,38.21,17.81,42.94,18.79c0.64,0.14,1.01,0.19,1.01,0.19c-0.79-2.29,0-6.66,0-6.66
		c-0.35-0.1-0.67-0.2-1.01-0.3c-28.32-8.45-38-17.46-38-17.46c-1.27-0.17-8.15-5.4-8.15-5.4c-1.45-0.81-3.58-1.86-5.85-2.95
		c-5.4-2.55-11.61-5.27-11.61-5.27c-17.39-8.72-26.07-19.82-26.07-19.82c-6.82-7.28-1.77,3.14-1.77,3.14
		C195.52,402.35,221.59,413.47,221.59,413.47z"/>
	<path style="fill:#231815;" d="M222.18,424.72c6.85,0.24,19.84,1.04,19.84,1.04c-1.49-0.68-11.49-6.95-11.49-6.95
		c-0.94,0-4.21-2.14-4.21-2.14c-1.37-0.23-2.75-0.56-4.13-0.94c-17.03-4.72-34.73-19.76-34.73-19.76c-5.92-3.93-2.91,4.33-2.91,4.33
		c8.85,15.43,33.52,24.43,33.52,24.43C217.93,424.61,219.63,424.62,222.18,424.72z"/>
	<path style="fill:#231815;" d="M195.12,373.05c11.63,14.64,21.06,22.77,27.06,27.08c4.63,3.32,7.23,4.37,7.23,4.37
		c-0.08-0.26,8.55,6.1,8.55,6.1c15.03,11.42,28.7,15.5,36.23,16.97c3.84,0.75,6.09,0.81,6.09,0.81c-2.7-4.15,0.81-5.79,0.81-5.79
		c-2.25-0.53-4.57-1.24-6.9-2.05c-13.95-4.86-28.1-13.66-28.1-13.66c-0.31-0.16-0.55-0.33-0.84-0.48c-1.86-2.16-8.46-9.51-8.46-9.51
		l-4.34-4.39c-3.68-2.35-7.1-4.76-10.27-7.19c-22.24-17-32.43-34.68-32.43-34.68c-6.36-7.59-6.03-0.79-6.03-0.79
		C184.68,362.58,195.12,373.05,195.12,373.05z"/>
	<path style="fill:#231815;" d="M293.94,417.82c0,0-13.85-5.81-4.48,5.13l11.93,7.83c-0.07-0.15,6.53,4.3,10.92,7.67
		c-1.57-2.63-2.48-5.77,2.23-6.05l-4-6.01c0,0-21.27-22.57-14.73-11.39C295.82,415,299.16,420.49,293.94,417.82z"/>
	<path style="fill:#231815;" d="M600.12,302.88c-2.16,3.98-9.7,19.51-9.7,19.51c-3.96,6.31-8.35,12.39-12.61,17.87
		c-10.66,13.73-20.47,23.65-20.47,23.65c-1.08,4.41-12.79,20.28-12.79,20.28c0.15,0.42-4.24,4.89-11.41,8.78c0,0-2.56,1.96-7.32,5
		c-4.3,2.74-10.39,6.34-18.07,10.19l0.51,2.49c0,0-0.12,1.83-0.36,1.88c0,0-2.92,3.56,0.7,2.14c0,0,3.1-1.88,5.73-0.88
		c0,0,5.03-1.94,11.49-5.08c7.31-3.54,16.45-8.61,22.22-14.13l5.38-7.86l5.18-6.51c5.25-3.47,4.72-4.35,16.42-15.74
		c0.66-0.83,1.62-2.25,2.79-4.05c6.43-9.88,18.95-31.32,18.95-31.32c11.21-18.42,8.41-27.25,8.41-27.25
		C603.96,294.49,600.12,302.88,600.12,302.88z"/>
	<path style="fill:#231815;" d="M577.81,366.75c-6.64,6.76-11.63,10.65-11.63,10.65c-9.3,7.76-12.2,14.73-13.17,15.56l-8,8.35
		l-2.69,1.47c-3.19,2.1-10.36,5.42-16.5,8.11c-5.68,2.5-10.49,4.47-10.49,4.47c1.77,1.21-0.19,4.81-0.19,4.81l0.06,1.64
		c3.85-1.22,7.38-2.48,10.62-3.72c21.04-8.09,29.57-16.02,29.57-16.02c4.43-6.36,4.15-4.63,9.18-9.42
		c4.03-2.63,11.16-8.85,13.24-10.69c0.38-0.33,0.61-0.54,0.61-0.54c10.9-8.91,28.03-37.76,28.03-37.76
		c10.63-17.62,3.35-20.26,3.35-20.26c-3.61-0.57-6.88,9.05-6.88,9.05C595.86,346.78,585.66,358.77,577.81,366.75z"/>
	<path style="fill:#231815;" d="M354.94,658.12l0.64-0.96l6.14-9.59c1.66-3.13,4.04-6.93,4.04-10.49c0-5.75-5.81-8.67-10.91-8.67
		c-3.04,0-6.35,0.55-9.2,1.72l-2.21,7.14c2.36-1.71,5.31-3.45,8.31-3.45c2.03,0,3.71,1.29,3.71,3.45c0,1.86-1.29,4.28-2.18,5.9
		l-4,7.33l-7.98,13.13h24.67l2.43-7.61c-3.22,1.57-5.75,2.52-9.36,2.52C357.65,658.54,356.32,658.45,354.94,658.12z"/>
	<path style="fill:#231815;" d="M445.12,637.52c0,4.26-4.02,4.82-7.3,4.82h-1.11V647h0.75h1.72c2.03,0,3.98,0.06,5.73,1.35
		c1.4,1.12,2.09,2.58,2.09,4.41c0,3.82-3.1,6.38-6.84,6.38c-2.65,0-5.74-0.88-8.13-2.2l1.48,6.34c2.6,0.64,5.29,0.94,7.96,0.94
		c6.93,0,15.53-3.27,15.53-11.45c0-4.79-3.37-8.15-7.86-9.15c3.3-0.87,5.79-3.65,5.79-7.13c0-2.82-1.95-5.09-4.22-6.38
		c-2.23-1.18-4.98-1.72-7.47-1.72c-2.86,0-5.79,0.45-8.54,1.24l-1.78,5.85c2.06-1.03,4.81-2.14,7.13-2.14
		C442.67,633.36,445.12,634.56,445.12,637.52z"/>
	<path style="fill:#231815;" d="M472.33,479.35c0,0,1.76,0.12,4.29,0.17c6.62,0.14,18.55-0.14,18.09-4.06c0,0-10.16-4.37-9.96-4.46
		l-8.09-3.01c0,0-0.02,0.02-0.04,0.04c-0.45,0.38-5.21,4.34-7.91,5.34c0,0-0.94,0.35-1.58,1.04
		C467.12,474.41,469.43,477.71,472.33,479.35z"/>
	<path style="fill:#231815;" d="M465.6,472.06c0,0,4.77,0.3,8.03-3.93c0,0,1.48-1.75,2.98-3.06c0.63-0.55,1.26-1.04,1.79-1.29
		c0,0-0.69,0.1-1.79,0.21c-3.14,0.33-9.56,0.77-12.48-0.62c0,0-1,3.06-0.45,3.19c0.28,0.62,1.18,2.46,0.91,2.51
		C464.59,469.06,465.03,471.36,465.6,472.06z"/>
	<path style="fill:#231815;" d="M462.93,461.41c0,0,6.71,2.27,13.68,1.3c4.47-0.63,9.03-2.57,12.02-7.3c0,0,2.1-3.43-1.36-1.62
		c0,0-4.24,2.52-10.66,3.48c-1.81,0.28-3.8,0.43-5.92,0.36l-8.11,0.26C462.59,457.9,462.03,460.08,462.93,461.41z"/>
	<path style="fill:#231815;" d="M463.98,450.33c0,0,6.42-1.19,12.63-4.53c3.44-1.86,6.82-4.38,8.98-7.75c0,0,3.41-3.3-1.31-3.65
		c0,0-3.77-0.44-7.67-0.38c-2.15,0.03-4.34,0.21-5.96,0.69C470.65,434.71,465.14,445.4,463.98,450.33z"/>
	<path style="fill:#231815;" d="M463.44,455.78c0,0,4.87,1.76,13.18-0.03c3.74-0.8,8.19-2.33,13.2-5.06c0,0,8.63-6.69,2.08-7.65
		c0,0-4.96-1.44-12.21,2.86c0,0-1.26,0.58-3.06,1.38c-4.11,1.83-11.1,4.86-12.9,5.13C463.71,452.41,461.63,453.9,463.44,455.78z"/>
	<path style="fill:#231815;" d="M494.11,399.09l-13.4,19.42c-0.98,1.62-2.24,4.51-2.24,4.51c0.15-0.05-0.65,0.65-1.86,2.09
		c-1.38,1.65-3.28,4.26-4.91,7.88l4.5-0.81l0.41-0.03l2.25-0.2l4.59-0.07c2.66-2.86,8.06-10.16,7.89-9.79
		c3.74-4.19,10.97-8.92,11.67-11.97c0.67-2.69-5.03,0.59-5.53-1.2C500.06,398.49,494.11,399.09,494.11,399.09z"/>
	<path style="fill:#231815;" d="M525.82,477.4c-5.8-1.73-13.96-4.29-18.7-6.26c0,0,0.48,5.73-6.43,5.38c0,0,9.67,6.41,25.13,6.82
		c2.03,0.05,4.16,0.01,6.38-0.18c0,0,13.22,0.18,0.33-3.8C532.53,479.35,529.71,478.56,525.82,477.4z"/>
	<path style="fill:#231815;" d="M489.46,426.39l-3.98,6.01c4.7,0.28,3.83,3.43,2.21,6.05c4.41-3.37,10.99-7.83,10.93-7.67
		l11.89-7.83c9.41-10.95-4.42-5.13-4.42-5.13c-5.24,2.67-1.97-2.83-1.97-2.83C510.72,403.82,489.46,426.39,489.46,426.39z"/>
	<path style="fill:#231815;" d="M513.91,435.87c0,0-2.95,1.88-4.27,2.89l-13.22,6.18c0,0-0.29,3.31-3.63,5.25
		c2.86-0.73,16.37-4.19,15.96-3.82c4.74-2.43,16.43-8.5,14.27-14.8c0,0-1.82-3.34-5.38,0.24
		C517.63,431.8,516.48,434.19,513.91,435.87z"/>
	<path style="fill:#231815;" d="M503.12,429.66c-1,0.79-1.93,0.89-3.79,2.96c-2.4,2.14-8.69,6.42-11.64,8.39
		c5.07-1.06,8.71,2.46,8.71,2.46c2.22-1.31,7.11-3.72,7.11-3.72c11.45-6.22,13.35-10.44,13.35-10.44c1.59-2.32,0.77-4.15,0.77-4.15
		C516.06,421.64,508.24,426.25,503.12,429.66z"/>
	<path style="fill:#231815;" d="M523.57,444.87c0,0-1.31-1.33-1.05-1.71c0.73-1.18,1.19-2.57,0.88-4.12c0,0-4.5,4.43-10.53,6.93
		c0.16-0.07-4.08,2.06-3.93,1.96c-0.79,0.49-2.43,0.79-3.17,1.27c-5.07,0.98-10.29,1.72-14.73,2.66c0.33,0.61,1.07,2.32-0.13,4.46
		c0,0,16.57,2.77,21.22-3.93c0.82-0.11,2.14,0.21,2.14,0.21S521.98,452.8,523.57,444.87z"/>
	<path style="fill:#231815;" d="M513.34,461.88l-6.14-0.61c0,0-0.07-0.02-0.16-0.07c0,0,0,0-0.04,0
		c-2.03-0.94-12.01-3.21-17.26-3.34c0,0-4.59,3.29-6.08,4.72c0,0,5.22,2.56,11.21,2.67c0.79,0.3,4,1.18,4.92,1.42
		c0.39,0.31,4.48,3.78,13.04-1.09C512.84,465.57,519.94,463.08,513.34,461.88z"/>
	<path style="fill:#231815;" d="M504.47,474.05c0,0,3-2.06-0.92-4l-4.98-1.62c0,0-3.04-0.2-3.19-0.3c0,0-4.04-1.38-8.23-1.94
		c0,0-4.03-1.39-6.04-2.43l-2.71,2.68c0,0,4.24,2.89,10.85,4.04c0,0,5.25,1.99,4.92,1.99C494.18,472.47,498.96,477.35,504.47,474.05
		z"/>
	<path style="fill:#231815;" d="M518.3,463.75c-0.87,3.36-10.09,5.67-10.09,5.67c2.6,1.07,15.12,5.73,15.12,5.73
		c0.72,0.29,1.57,0.54,2.49,0.77c7.2,1.84,19.36,2.31,19.36,2.31c12.04,0.15-11.41-8.34-11.41-8.34c-3.03-1.34-5.69-2.45-7.95-3.35
		C522.32,465.15,519.77,464.24,518.3,463.75z"/>
	<path style="fill:#231815;" d="M517.21,453.7l-4.04,0.62c0,0-4.65,3.84-10.47,3.8c0,0,6.65,1.56,7.74,2.25
		c2.25,0.31,5.93,0.09,8.96-3.21C519.4,457.16,521.83,453.06,517.21,453.7z"/>
	<path style="fill:#231815;" d="M517.14,483.86c0,0-15.47-2.55-20.54-6.88c0,0-6.32,5-19.99,4.92c-1.91-0.01-3.96-0.11-6.17-0.36
		c0,0-4.06-3.73-8.54-13c-4.48-9.25,3.19-26.6,3.19-26.6c1.91-4.97,6.68-12.96,11.52-20.49c6.49-10.1,13.11-19.36,13.11-19.36
		c16.28-23.93,33.23-39.79,33.23-39.79c0.97-0.95,1.92-1.87,2.86-2.78c21.99-21.27,38.02-32.95,38.02-32.95
		c5.33-4.41,10.01-10.05,13.96-15.8c9.21-13.37,14.42-27.27,14.42-27.27c4.88-12.8-2.75-28.05-2.75-28.05
		c-2.76-8.16-8.04-6.28-8.04-6.28c-1.99,0.59-3.05,1.94-3.63,3.47c-1.12,3.02-0.24,6.74-0.24,6.74c0.08,0.26,0.16,0.53,0.24,0.8
		c1.5,5.1,3.04,13.76,3.04,13.76c0.39,4.51-0.94,9.54-3.04,14.42c-5.28,12.28-15.43,23.64-15.43,23.64
		c-6.55,8.15-23.49,23.82-36.56,35.55c-9.46,8.49-16.89,14.9-16.89,14.9c-13.93,12.59-24.61,24.08-32.32,33.17
		c-2.66,3.13-4.97,5.99-6.93,8.5l6.93,9.4l2.25,3.06c0,0-0.94-0.16-2.25-0.4c-2.62-0.46-6.73-1.2-7.85-1.4
		c-0.04,0.09-0.06,0.35-0.06,0.35s-1.12,6.8-1.16,7c0,0-1.81,5.92-1.97,6.29c0,0-2.99,5.33-3.08,5.5c0,0-3.44,4.72-3.58,4.84
		c0,0-4.04,4.24-4.19,4.41c0,0-4.55,3.67-4.67,3.77c0,0-5.17,3.34-5.21,3.37c0,0-0.97,0.57-2.09,1.22c1.01,0.05,2.16,0.37,3.36,1.25
		c1.72,1.23,2.62,2.97,2.62,4.94c0,0-0.17,1.57-0.17,1.44c0,0-0.07,0.64-0.07,0.54c-0.21,2.39-3,6.74-6.59,9.03
		c0.28,0.25,0.54,0.51,0.82,0.76c4.66-0.19,10.84,1.14,15.39,7.97c2.94,4.42,7.91,7.92,12.59,10.46c0.65,0.2,1.42,0.53,2.12,1.1
		c1.35,0.66,2.63,1.24,3.8,1.73c3.37,1.43,5.77,2.16,5.8,2.18c11.01,1.53,32.16-2.32,32.59-2.36c6.66-0.22,9.54-0.92,10.82-1.45
		c0.49-0.21,0.74-0.38,0.88-0.5c-0.27-0.2-0.61-0.45-0.88-0.66c-0.27-0.21-0.49-0.37-0.52-0.39
		C525.3,487.57,524.29,485.3,517.14,483.86z"/>
	<path style="fill:#231815;" d="M575.86,317.39c0,0-11.89,11.58-24,21.13c0,0-18.21,14.83-26.05,24.02
		c-0.07,0.08-0.14,0.17-0.22,0.25c0,0-2.01,1.64-9.44,9.47c0,0-15.89,18.14-20.7,25c0,0,4.24,0.33,4.65,2.8c0,0,0.68,4.87-0.87,7.54
		l7.21-0.31c0,0,11.03-7.13,19.36-12.45c5.19-3.32,9.35-5.94,9.12-5.66c0,0,9.12-7.76,18.18-21.7c0,0,1.13-4.2,2.01-4.35
		c0,0,12.16-13.03,22.69-26.79c3.88-5.08,7.55-10.25,10.3-14.9c0,0,9.87-18.56,11.57-21.57c0,0,5.49-10.22,3.32-12.26
		c0,0-3.03-5.2-9.07-1.46c0,0-8.33,19.18-16.12,28.99C577.16,315.95,576.51,316.71,575.86,317.39z"/>
	<path style="fill:#231815;" d="M610.27,350.63c0,0-10.21,17.7-32.46,34.71c-3.16,2.42-6.56,4.82-10.21,7.16l-4.34,4.39
		c0,0-6.63,7.35-8.51,9.51c-0.29,0.15-0.53,0.33-0.79,0.48c0,0-14.16,8.8-28.14,13.66c-2.33,0.81-4.67,1.52-6.92,2.05
		c0,0,3.54,1.64,0.83,5.79c0,0,2.25-0.07,6.09-0.81c7.54-1.47,21.24-5.56,36.3-16.98c0,0,8.59-6.35,8.49-6.1
		c0,0,2.59-1.04,7.19-4.34c6-4.3,15.43-12.43,27.08-27.1c0,0,10.44-10.46,11.45-23.21C616.33,349.84,616.6,343.04,610.27,350.63z"/>
	<path style="fill:#231815;" d="M522.5,456.52c-0.34,1.58-3.78,3.74-4.89,4.4c0.9,0.59,1.86,1.41,1.86,1.41
		c1.57,0.7,3.79,1.34,6.36,1.91c11.29,2.51,29.39,3.75,29.39,3.75c17.8,1.51-5.64-5.57-5.64-5.57c-8.86-3.83-18.73-5.2-23.75-5.67
		C523.75,456.56,522.5,456.52,522.5,456.52z"/>
	<path style="fill:#231815;" d="M593.63,436.92c0,0-5.95,1.83-15.82,3.57c-4.95,0.87-10.89,1.71-17.57,2.29
		c0,0-21.25,3.18-34.41,2.04c-0.15-0.01-0.3-0.02-0.45-0.03l-2.6,5.66c0,0,1.11-0.04,3.05-0.12c8.58-0.38,33.45-1.67,51.99-4.66
		c7.44-1.2,13.85-2.67,17.79-4.47C595.59,441.2,609.55,439.76,593.63,436.92z"/>
	<path style="fill:#231815;" d="M589.43,398.13c0,0-6.24,2.73-11.62,5.29c-2.26,1.08-4.37,2.12-5.82,2.92c0,0-6.9,5.23-8.21,5.4
		c0,0-9.61,9.02-37.96,17.48c-0.32,0.1-0.63,0.19-0.96,0.29c0,0,0.72,4.38-0.07,6.66c0,0,0.36-0.06,1.03-0.2
		c4.78-0.99,25.47-5.84,42.92-18.78c0,0,2.47-0.68,7.58-3.47c0,0,0.87-0.4,1.49-0.43c0.24-0.01,0.45,0.03,0.54,0.18
		c0,0,26.11-11.12,38.92-32.01c0,0,5.05-10.42-1.75-3.14C615.51,378.32,606.85,389.41,589.43,398.13z"/>
	<path style="fill:#231815;" d="M603.32,426.06l-25.44,0.52c0,0-0.03,0.01-0.08,0.01c-0.75,0.1-6.48,0.83-5.73,0.14
		c0,0-9.94,2.08-15.43,0.85l-2.05-0.1c0,0-14.46,7.87-28.78,10.23c-0.29,0.05-0.57,0.1-0.85,0.14c0,0,0.67,2.88-0.18,5.02
		c0,0,0.39-0.01,1.03-0.02c2.43-0.05,8.68-0.1,12.34,0.19c0,0,20-0.4,39.64-4.09c8.31-1.56,16.55-3.7,23.21-6.65
		C601.01,432.31,615.72,426.37,603.32,426.06z"/>
	<path style="fill:#231815;" d="M577.81,452.74c-0.82-0.07-1.73-0.13-2.73-0.2c0,0-12.7-2.36-19.21-2.58c0,0-20.6,1.01-30.04,1.82
		c-2.16,0.18-3.73,0.35-4.34,0.5c0,0,1.81,0.64,2.81,2.15c0,0,0.53,0.13,1.53,0.34c5.41,1.14,24.62,4.59,48.6,1.75
		c0,0,1.53-0.18,3.39-0.48C582.69,455.26,589.87,453.72,577.81,452.74z"/>
	<path style="fill:#231815;" d="M612.6,395.97c0,0-17.79,15.07-34.79,19.77c-1.36,0.38-2.73,0.7-4.06,0.93c0,0-3.3,2.14-4.27,2.14
		c0,0-9.98,6.27-11.51,6.95c0,0,12.98-0.79,19.84-1.04c2.57-0.1,4.29-0.11,4.15,0.01c0,0,24.68-9,33.52-24.43
		C615.47,400.3,618.45,392.04,612.6,395.97z"/>
	<path style="fill:#231815;" d="M468.88,490.82l-0.7-0.11c-1.41-0.34-6.66,1.01-8.91,3.74c-0.31-0.07-1.3-0.22-1.3-0.22
		c-0.12,0-1.13,0.35-1.62,0.5c-3.3-8.54-8.54-16.27-15.23-22.49c-0.41-0.38-0.83-0.75-1.25-1.11c-0.42-0.37-0.83-0.73-1.26-1.09
		c-0.25-0.21-0.51-0.43-0.77-0.63c0.26-0.4,0.86-1.21,0.86-1.21c0.04-0.19,0.24-1.2,0.28-1.46c3.28-1.32,6.16-5.88,6.29-7.35
		l0.09-0.67c0.05-0.33,0.13-0.68,0.13-1.03c0-0.79-0.25-1.55-1.28-2.29c-1.51-1.09-2.62-0.55-3.52-0.13l-0.08,0.04l-0.56,0.31
		c-1.35,0.57-4.78,4.74-5.04,8.24c-0.24,0.13-1.1,0.59-1.1,0.59c-0.17,0.15-0.78,0.94-1.02,1.33c-2.64-1.69-5.4-3.17-8.24-4.42
		c-0.09-0.04-0.18-0.08-0.27-0.12l-1.79,0.89c0,0-5.44,2.8-5.48,2.8c0,0-5.24,3.19-5.18,3.08c0,0-0.03,0.03-0.09,0.07
		c4.48,1.08,8.79,2.8,12.82,5.08c0.68,0.38,1.35,0.77,2.01,1.19c-0.25,0.32-1.12,1.53-2.01,2.75c-1.07,1.48-2.15,2.97-2.15,2.97
		c-0.03,0.07-0.03,0.11-0.03,0.21c0,0.25,0.03,0.57,0.06,0.83c-0.44,0.05-0.88,0.18-1.22,0.57c-0.36,0.37-0.55,0.83-0.55,1.38
		c0,0.11,0.11,0.27,0.11,0.42c-0.26,0-0.48,0.09-0.48,0.09c-0.3,0.15-4.65,6.21-4.65,6.21l-0.31,0.37l0.38,0.24
		c0.22,0.17,0.28,0.43,0.28,0.66c0,0.04,0,0.11-0.02,0.13c-0.04,0.51-0.37,1.06-0.74,1.23c-0.18,0.07-0.42,0.07-0.64-0.09
		l-0.33-0.29l-3,4.09c-0.06,0.13-0.06,0.44-0.06,0.79c-0.5-0.16-1.07-0.16-1.51,0.2c-0.39,0.37-0.7,1-0.7,1.75
		c0,0.32,0.08,0.64,0.21,0.96c-0.21,0.02-0.46,0.04-0.46,0.04c-0.29,0.2-4.11,5.45-4.62,6.12c-0.39-0.15-1.22-0.37-1.66-0.5
		c0-0.58,0-7.23,0-7.23c-0.09-0.17-0.3-0.41-0.49-0.65c0.76-0.64,1.2-1.34,1.2-2.03c0-0.11,0-0.3-0.02-0.44
		c-0.15-0.52-0.75-0.65-1.26-0.87c0.22-0.26,0.46-0.59,0.46-0.59l0.11-4.84v-0.44h-0.45c-0.63,0-0.67-0.57-0.67-0.9
		c0-0.63,0.35-1.31,0.89-1.31h0.41v-7.91c-0.08-0.22-0.3-0.53-0.56-0.72c0.38-0.44,0.87-0.92,0.87-1.42c0-0.09-0.05-0.16-0.05-0.24
		c0-0.25-0.13-0.44-0.29-0.61l-3.18,2.77l-2.61-2.44c-0.05,0.08-0.08,0.17-0.1,0.28c0,0.08-0.02,0.15-0.02,0.24
		c0,0.5,0.44,0.98,0.85,1.39c-0.18,0.18-0.44,0.44-0.44,0.44l-0.13,7.76v0.46h0.46c0.53,0,0.87,0.69,0.87,1.31
		c0,0.33-0.06,0.9-0.67,0.9h-0.44v5.04c0.04,0.15,0.31,0.54,0.51,0.83c-0.47,0.22-1.05,0.35-1.22,0.87c0,0.14-0.02,0.33-0.02,0.44
		c0,0.7,0.41,1.4,1.19,2.03c-0.17,0.17-0.36,0.32-0.36,0.32s-0.1,7.12-0.1,7.7c-0.39,0.11-1.27,0.44-1.64,0.54
		c-0.37-0.46-4.3-5.88-4.3-5.88c-0.11-0.09-0.48-0.15-0.75-0.22c0.1-0.31,0.24-0.64,0.24-0.94c0-0.73-0.35-1.42-0.72-1.77
		c-0.46-0.33-0.98-0.33-1.48-0.18c0-0.25,0-0.5,0-0.5c-0.14-0.28-2.8-4-2.8-4l-0.31-0.35l-0.31,0.24c-0.5,0.38-0.92-0.02-1.07-0.3
		c-0.24-0.26-0.37-0.64-0.37-0.93c0-0.27,0.11-0.51,0.35-0.71l0.28-0.22l-4.61-6.43c-0.19-0.06-0.47-0.15-0.78-0.17
		c0.02-0.15,0.08-0.3,0.08-0.45c0-0.54-0.15-1.03-0.54-1.38c-0.3-0.37-0.79-0.52-1.19-0.56c0.05-0.33,0.09-0.75,0.09-0.75
		c-0.04-0.16-1.04-1.58-2.07-3.04c-0.9-1.27-1.83-2.54-2.18-3.03c0.72-0.47,1.45-0.9,2.18-1.32c3.96-2.28,8.22-3.98,12.67-5.08
		l-0.23-0.18c0-0.07-5.42-3.13-5.42-3.19l-5.26-3.08c0,0-0.44-0.23-1.07-0.57c-0.23,0.1-0.45,0.2-0.68,0.29
		c-2.91,1.3-5.71,2.83-8.39,4.59c-0.26-0.4-0.85-1.16-0.85-1.16c-0.08-0.11-1-0.62-1.27-0.74c-0.27-3.5-3.71-7.64-5.07-8.24
		l-0.34-0.16l-0.22-0.1c-0.96-0.5-2.03-1.09-3.58,0.02c-1.01,0.72-1.24,1.51-1.24,2.3c0,0.37,0.02,0.74,0.13,1.09l0.09,0.65
		c0.11,1.47,2.97,6.01,6.27,7.28c0.05,0.31,0.24,1.35,0.24,1.35c0.02,0.11,0.65,0.97,0.94,1.38c-0.16,0.12-0.3,0.27-0.46,0.39
		c-0.43,0.35-0.84,0.72-1.24,1.08c-0.43,0.37-0.87,0.72-1.27,1.11c-6.82,6.31-12.06,14.11-15.38,22.85c-0.44-0.15-1.4-0.44-1.4-0.44
		c-0.2-0.03-1.22,0.11-1.48,0.17c-2.25-2.68-7.45-4.05-8.92-3.71l-0.65,0.08c-1.09,0.2-2.28,0.37-2.82,2.15
		c-0.57,1.83,0.24,2.63,1.03,3.43l0.46,0.44c0.94,1.13,5.92,3.12,9.41,2.27c0.17,0.22,0.9,0.9,0.9,0.9c0.11,0.07,1.12,0.42,1.6,0.56
		c-1.36,5.16-2.13,10.41-2.13,15.48c0,5.24,0.77,10.6,2.25,15.91c-0.48,0.13-1.41,0.46-1.41,0.46c-0.15,0.07-0.85,0.78-1.07,1.01
		c-3.43-0.86-8.43,1.09-9.44,2.2l-0.45,0.53c-0.75,0.75-1.62,1.59-1.04,3.37c0.57,1.77,1.77,1.97,2.84,2.16l0.66,0.13
		c1.47,0.31,6.66-1.07,8.94-3.73c0.3,0.06,1.29,0.17,1.29,0.17c0.13,0,1.13-0.3,1.59-0.48c3.83,9.92,10.22,18.7,18.56,25.35
		c-0.29,0.39-0.9,1.16-0.9,1.16c-0.02,0.2-0.24,1.2-0.26,1.48c-3.32,1.31-6.18,5.84-6.34,7.33l-0.07,0.65
		c-0.06,0.38-0.06,0.74-0.06,1.07c0,0.77,0.23,1.55,1.23,2.29c1.53,1.11,2.57,0.55,3.56,0.06l0.6-0.3c1.35-0.57,4.78-4.7,5.04-8.24
		c0.27-0.13,1.16-0.59,1.16-0.59c0.13-0.11,0.67-0.94,1-1.33c2.55,1.65,5.23,3.09,7.99,4.34c6.85,3.06,14.27,4.83,21.9,5.19
		c0,0.5,0,1.5,0,1.5c0.04,0.2,0.51,1.12,0.61,1.36c-0.98,1.64-1.38,3.89-1.38,5.88c0,1.69,0.22,3.2,0.61,3.71
		c0,0.07,0.33,0.63,0.33,0.63c0.44,0.99,1.05,2.06,2.88,2.06c1.9,0,2.43-1.07,2.91-2.06l0.3-0.63c0.33-0.52,0.66-2.03,0.66-3.71
		c0-1.98-0.39-4.24-1.42-5.88c0.13-0.24,0.56-1.16,0.56-1.16s0.05-1.2,0.05-1.7c7.43-0.38,14.62-2.1,21.25-5
		c3-1.32,5.9-2.88,8.63-4.68c0.25,0.37,0.8,1.09,0.8,1.09c0.16,0.13,1.04,0.59,1.27,0.72c0.26,3.5,3.69,7.7,5.07,8.27l0.58,0.3
		c0.96,0.48,2.05,1.02,3.54-0.09c1.06-0.77,1.29-1.53,1.29-2.28c0-0.39-0.07-0.72-0.13-1.06l-0.1-0.66
		c-0.1-1.48-3.01-6.05-6.23-7.36c-0.1-0.28-0.25-1.26-0.25-1.26c-0.09-0.16-0.63-0.94-0.94-1.31c8.11-6.62,14.33-15.49,18.14-25.59
		c0.46,0.13,1.59,0.51,1.59,0.51c0.18,0,1.18-0.13,1.49-0.2c2.25,2.69,7.46,4.09,8.91,3.76l0.72-0.13c1.02-0.17,2.21-0.34,2.8-2.14
		c0.56-1.79-0.31-2.65-1.05-3.39l-0.48-0.52c-0.98-1.09-6.01-3.08-9.44-2.23c-0.22-0.17-0.88-0.87-0.88-0.87
		c-0.15-0.09-1.31-0.5-1.84-0.63c1.36-5.12,2.19-10.3,2.34-15.39c0-5.29-0.81-10.66-2.25-15.91c0.48-0.2,1.42-0.48,1.42-0.48
		c0.16-0.09,0.83-0.79,1.1-0.99c3.43,0.85,8.41-1.15,9.42-2.29l0.46-0.44c0.78-0.79,1.62-1.64,1.03-3.36
		C471.11,491.17,469.93,490.98,468.88,490.82z M368.25,478.18c0.55,0.74,4.18,5.72,4.18,5.72c0.19,0.16,0.67,0.26,1.04,0.31
		c-0.01,0.15-0.12,0.3-0.12,0.43c0,0.3,0.11,0.61,0.24,0.9c0.33,0.55,0.97,0.72,1.62,0.89c-0.06,0.2-0.08,0.59-0.08,0.59
		c0.01,0.05,0.12,0.22,0.28,0.48c0.98,1.49,4.2,5.9,4.2,5.9l0.23,0.35l0.34-0.25c0.31-0.19,0.64-0.17,0.84-0.06
		c0.48,0.27,0.85,0.68,0.94,1.14c0,0,0,0.02,0,0.06c0,0.18-0.1,0.33-0.33,0.49l-0.33,0.26l2.97,4.09c0.11,0.07,0.48,0.22,0.81,0.33
		c-0.17,0.29-0.48,0.53-0.48,0.87c0,0.19,0.02,0.37,0.13,0.57c0.29,0.74,1.12,1.38,2.38,1.38c0,0.22-0.06,0.42-0.06,0.42
		c0.06,0.3,3.89,5.62,4.39,6.34c-0.19,0.32-0.72,1.03-0.98,1.37c-0.56-0.15-6.92-2.21-6.92-2.21c-0.16,0-0.49,0.11-0.79,0.27
		c-0.37-1.14-1.19-1.88-1.97-1.91c-0.55-0.04-0.85,0.44-1.17,0.9c-0.22-0.3-0.42-0.61-0.42-0.61c-0.16-0.11-2.49-0.88-3.78-1.29
		c-0.5-0.17-0.85-0.28-0.85-0.28l-0.39-0.11l-0.16,0.4c-0.17,0.56-0.72,0.5-1.02,0.39c-0.62-0.2-1.18-0.78-0.98-1.31l0.13-0.41
		l-7.54-2.4c-0.2,0-0.65,0.19-0.9,0.35c-0.3-0.61-0.66-1.2-1.24-1.31c-0.49-0.16-0.9,0.11-1.3,0.37c-0.19-0.33-0.4-0.78-0.4-0.78
		c-0.21-0.2-5.74-1.99-6.97-2.41C356.82,490.52,361.83,483.53,368.25,478.18z M350.25,516.46c0-4.03,0.57-8.11,1.65-12.19
		c0.85,0.27,6.69,2.14,6.69,2.14c0.24,0,0.86-0.26,1.14-0.43c0.22,0.43,0.35,0.89,0.81,1.07c0.57,0.24,1.2,0.13,1.81-0.17
		c0.09,0.22,0.24,0.48,0.24,0.48c0.24,0.22,7.36,2.51,7.36,2.51l0.42,0.17l0.15-0.43c0.05-0.33,0.39-0.46,0.61-0.52
		c0.55-0.11,1.14,0.07,1.39,0.37c0.18,0.18,0.23,0.39,0.11,0.61l-0.11,0.44l2.87,0.93l1.9,0.62c0.15,0,0.42-0.09,0.7-0.16
		c0.04,0.52,0.27,1.01,0.72,1.31c0.66,0.42,1.68,0.33,2.71-0.37c0.12,0.22,0.19,0.51,0.19,0.51c0.24,0.19,7.58,2.58,7.58,2.58
		c-0.32-0.14-0.37,0.54-0.37,0.54l0.11,1.18c-0.24,0-6.92,2.18-6.92,2.18c-0.16,0.11-0.34,0.43-0.44,0.68
		c-0.99-0.68-2.08-0.83-2.74-0.37c-0.46,0.28-0.68,0.74-0.7,1.31c-0.22-0.05-0.44-0.2-0.44-0.2c-0.12,0-1.21,0.34-2.32,0.7
		c-1.17,0.37-2.34,0.76-2.34,0.76l-0.42,0.11l0.13,0.42c0.2,0.6-0.25,0.89-0.59,0.98c-0.61,0.22-1.39,0.02-1.57-0.51l-0.13-0.37
		l-7.52,2.43c-0.15,0.15-0.34,0.46-0.51,0.72c-0.59-0.33-1.26-0.48-1.86-0.22c-0.4,0.22-0.54,0.65-0.72,1.09
		c-0.28-0.2-0.83-0.44-0.83-0.44c-0.31,0-5.83,1.77-7.08,2.19C350.88,524.87,350.25,520.62,350.25,516.46z M368.62,555.02
		c-6.53-5.35-11.59-12.23-14.71-20.1c0.9-0.31,6.69-2.19,6.69-2.19c0.22-0.11,0.49-0.64,0.68-1.01c0.38,0.27,0.81,0.52,1.26,0.42
		c0.62-0.15,0.97-0.72,1.24-1.29c0.26,0.14,0.62,0.29,0.62,0.29c0.35,0.02,7.43-2.26,7.43-2.26l0.41-0.17l-0.12-0.39
		c-0.15-0.52,0.4-1.09,0.98-1.31c0.3-0.09,0.87-0.17,1.05,0.42l0.14,0.41l1.1-0.36l3.68-1.21c0.17-0.11,0.43-0.46,0.63-0.73
		c0.33,0.42,0.68,0.9,1.21,0.83c0.74-0.02,1.59-0.72,2.01-1.84c0.22,0.11,0.45,0.24,0.45,0.24c0.27,0,6.5-2.01,7.3-2.23
		c0.27,0.31,0.77,1.01,1.09,1.38c-0.37,0.46-4.28,5.85-4.28,5.85c0,0.07-0.06,0.16-0.06,0.29c0,0.15,0.06,0.29,0.09,0.44
		c-1.3,0-2.16,0.66-2.41,1.42c-0.08,0.17-0.13,0.37-0.13,0.59c0,0.33,0.28,0.56,0.5,0.85c-0.33,0.09-0.61,0.16-0.61,0.16
		c-0.24,0.16-2.93,3.91-2.93,3.91l-0.31,0.33l0.37,0.26c0.2,0.13,0.33,0.31,0.33,0.52v0.04c-0.07,0.42-0.48,0.92-0.91,1.14
		c-0.24,0.09-0.59,0.17-0.88,0l-0.36-0.28l-4.63,6.38c0,0.07,0,0.13,0,0.27c0,0.27,0.02,0.48,0.02,0.65
		c-0.06,0.01-0.12,0.03-0.17,0.04c-0.61,0.14-1.18,0.35-1.46,0.82c-0.15,0.32-0.19,0.59-0.19,0.96c0,0.11,0.04,0.22,0.08,0.4
		c-0.36,0.06-0.76,0.13-0.76,0.13C372.82,549.23,369.41,553.95,368.62,555.02z M397.9,546.79h-0.37v7.9
		c0.07,0.19,0.33,0.5,0.55,0.72c-0.44,0.46-0.8,0.87-0.8,1.41c0,0.09,0,0.14,0,0.22c0.06,0.48,0.46,0.79,0.8,1.07
		c-0.28,0.26-0.69,0.63-0.69,0.63s-0.06,6.49-0.1,7.38c-7.73-0.42-15.23-2.67-21.9-6.48c-0.6-0.35-1.22-0.68-1.81-1.06
		c0.23-0.32,1-1.39,1.81-2.52c1.12-1.54,2.32-3.2,2.32-3.2c0.02-0.05,0.02-0.16,0.02-0.23c0-0.27-0.02-0.57-0.02-0.87
		c0.44-0.05,0.89-0.18,1.24-0.55c0.31-0.39,0.48-0.87,0.48-1.4c0-0.11-0.06-0.26-0.06-0.43c0.24-0.03,0.49-0.05,0.49-0.05
		c0.27-0.17,4.66-6.25,4.66-6.25l0.25-0.3l-0.35-0.27c-0.17-0.2-0.27-0.42-0.27-0.67c0-0.33,0.11-0.64,0.31-0.94
		c0.24-0.27,0.59-0.68,1.07-0.3l0.37,0.24l2.97-4.06c0.07-0.13,0.07-0.44,0.07-0.76c0.53,0.18,1.05,0.18,1.51-0.2
		c0.39-0.42,0.74-1.01,0.74-1.79c0-0.27-0.11-0.57-0.21-0.9c0.26-0.04,0.45-0.08,0.45-0.08c0.31-0.17,4.08-5.42,4.57-6.12
		c0.43,0.13,1.28,0.42,1.72,0.5c0,0.59,0,7.3,0,7.3c0.07,0.13,0.27,0.37,0.5,0.61c-0.79,0.63-1.27,1.33-1.27,2.01
		c0,0.16,0,0.31,0.05,0.42c0.15,0.59,0.74,0.72,1.22,0.94c-0.15,0.24-0.43,0.53-0.43,0.53l-0.07,4.91v0.44h0.39
		c0.66,0,0.74,0.52,0.74,0.85C398.86,546.09,398.51,546.79,397.9,546.79z M412.81,503.15c0.02-0.11,0.02-0.19,0.02-0.3
		c0-0.18-0.02-0.29-0.06-0.44c1.29,0,2.1-0.65,2.43-1.43c0.04-0.19,0.06-0.39,0.06-0.58c0-0.35-0.26-0.57-0.43-0.85
		c0.32-0.09,0.6-0.18,0.6-0.18c0.2-0.2,2.89-3.89,2.89-3.89l0.27-0.34l-0.39-0.27c-0.15-0.13-0.27-0.29-0.27-0.48
		c0-0.04,0-0.06,0-0.06c0.06-0.45,0.44-0.92,0.92-1.14c0.23-0.08,0.59-0.17,0.86,0.04l0.37,0.27l4.57-6.37l0.02-0.04
		c0.02-0.06,0.02-0.19,0.02-0.3c0-0.22-0.02-0.47-0.02-0.61c0.65-0.13,1.29-0.33,1.59-0.85c0.21-0.31,0.3-0.64,0.3-0.97
		c0-0.13-0.12-0.26-0.14-0.39c0.37-0.08,0.76-0.11,0.76-0.11c0.24-0.17,3.69-4.9,4.48-5.93c6.48,5.3,11.56,12.22,14.71,20.08
		c-0.88,0.24-6.75,2.14-6.75,2.14c-0.18,0.18-0.44,0.64-0.64,1.01c-0.37-0.27-0.81-0.48-1.29-0.37c-0.59,0.08-0.94,0.67-1.24,1.24
		c-0.27-0.08-0.62-0.28-0.62-0.28c-0.32-0.03-7.43,2.29-7.43,2.29l-0.44,0.13l0.17,0.37c0.11,0.35-0.09,0.65-0.23,0.8
		c-0.38,0.42-0.9,0.68-1.35,0.57c-0.23-0.09-0.38-0.21-0.44-0.46l-0.16-0.41l-1.31,0.43l-3.5,1.14c-0.18,0.09-0.42,0.46-0.61,0.76
		c-0.35-0.45-0.65-0.92-1.22-0.9c-0.73,0.05-1.54,0.75-1.96,1.86c-0.22-0.09-0.48-0.17-0.48-0.17c-0.28-0.07-6.51,1.99-7.31,2.23
		c-0.27-0.38-0.77-1.03-1.03-1.42C408.89,508.51,412.81,503.15,412.81,503.15z M424.65,559.33c-6.51,3.9-13.78,6.22-21.25,6.75
		c0-0.89,0-7.04,0-7.04c-0.07-0.21-0.54-0.68-0.76-0.93c0.35-0.29,0.76-0.59,0.78-1.07c0-0.08,0.02-0.13,0.02-0.22
		c0-0.5-0.41-0.96-0.8-1.41c0.15-0.16,0.44-0.49,0.44-0.49l0.1-7.71v-0.42h-0.42c-0.52,0-0.91-0.7-0.91-1.36
		c0-0.32,0.07-0.85,0.69-0.85H403v-5.07c-0.11-0.17-0.35-0.54-0.55-0.81c0.55-0.22,1.07-0.35,1.2-0.94
		c0.04-0.11,0.06-0.26,0.06-0.42c0-0.68-0.46-1.38-1.25-2.01c0.2-0.16,0.37-0.35,0.37-0.35s0.15-7.08,0.15-7.65
		c0.37-0.18,1.22-0.49,1.62-0.59c0.35,0.48,4.3,5.88,4.3,5.88c0.14,0.09,0.49,0.11,0.72,0.23c-0.11,0.34-0.21,0.67-0.21,0.98
		c0,0.72,0.3,1.37,0.74,1.72c0.43,0.3,0.96,0.37,1.49,0.18c0,0.28,0,0.54,0,0.54c0.04,0.24,2.79,4,2.79,4l0.24,0.33l0.35-0.24
		c0.21-0.15,0.44-0.2,0.65-0.09c0.37,0.15,0.72,0.68,0.76,1.2c0,0,0,0.06,0,0.15c0,0.23-0.04,0.48-0.29,0.64l-0.36,0.26l4.65,6.4
		c0.15,0.09,0.5,0.15,0.79,0.23c-0.04,0.19-0.08,0.3-0.08,0.41c0,0.53,0.16,1.02,0.5,1.4c0.31,0.35,0.79,0.48,1.22,0.55
		c-0.02,0.37-0.09,0.79-0.09,0.79c0.04,0.13,0.92,1.39,1.86,2.71c0.87,1.22,1.78,2.49,2.14,2.99
		C426.09,558.47,425.37,558.9,424.65,559.33z M431.69,554.28c-0.55-0.75-3.87-5.33-3.87-5.33c-0.17-0.09-0.64-0.17-1.03-0.24
		c0.02-0.13,0.11-0.31,0.11-0.46c0-0.31-0.1-0.63-0.25-0.9c-0.33-0.55-0.96-0.76-1.6-0.85c0.05-0.29,0.07-0.62,0.07-0.62
		c-0.01-0.06-0.19-0.35-0.48-0.77c-1.15-1.7-3.98-5.61-3.98-5.61l-0.26-0.35l-0.33,0.27c-0.3,0.22-0.63,0.11-0.85,0.02
		c-0.48-0.21-0.86-0.7-0.92-1.09c0,0,0-0.02,0-0.06c0-0.19,0.08-0.35,0.27-0.53l0.36-0.22l-2.99-4.09
		c-0.11-0.11-0.44-0.24-0.74-0.33c0.18-0.28,0.48-0.56,0.48-0.87c0-0.2-0.07-0.39-0.16-0.63c-0.28-0.7-1.09-1.33-2.36-1.35
		c0-0.2,0.03-0.41,0.03-0.41c-0.03-0.29-3.9-5.62-4.37-6.29c0.25-0.35,0.69-1.07,0.96-1.42c0.57,0.19,6.93,2.25,6.93,2.25
		c0.17,0,0.48-0.17,0.78-0.26c0.42,1.14,1.23,1.84,1.95,1.88c0.57,0,0.89-0.46,1.22-0.87c0.22,0.28,0.42,0.57,0.42,0.57
		c0.15,0.1,2.25,0.82,3.57,1.27c0.61,0.21,1.05,0.35,1.05,0.35l0.42,0.11l0.13-0.42c0.17-0.57,0.76-0.52,1.07-0.41
		c0.59,0.19,1.11,0.77,0.96,1.31l-0.13,0.41l7.5,2.41c0.24,0,0.66-0.2,0.97-0.3c0.26,0.59,0.59,1.16,1.22,1.29
		c0.46,0.09,0.88-0.13,1.31-0.39c0.15,0.34,0.4,0.78,0.4,0.78c0.17,0.2,5.25,1.84,6.45,2.25
		C442.83,542.09,437.89,548.93,431.69,554.28z M448.03,528.56c-0.83-0.29-6.4-2.07-6.4-2.07c-0.22,0-0.8,0.26-1.11,0.46
		c-0.2-0.46-0.33-0.9-0.77-1.09c-0.56-0.29-1.24-0.09-1.83,0.19c-0.09-0.23-0.27-0.5-0.27-0.5c-0.24-0.2-7.36-2.53-7.36-2.53
		l-0.39-0.11l-0.11,0.43c-0.13,0.27-0.46,0.42-0.67,0.51c-0.51,0.09-1.14-0.06-1.43-0.39c-0.11-0.15-0.19-0.32-0.11-0.63l0.18-0.4
		l-3.1-0.99l-1.73-0.55c-0.13,0-0.41,0.11-0.68,0.18c-0.02-0.59-0.26-1.07-0.72-1.38c-0.64-0.39-1.67-0.22-2.69,0.42
		c-0.1-0.22-0.25-0.48-0.25-0.48c-0.27-0.24-7.53-2.6-7.53-2.6c0.3,0.13,0.37-0.54,0.37-0.54l-0.13-1.2c0.35,0,6.88-2.14,6.88-2.14
		c0.2-0.13,0.37-0.49,0.55-0.72c0.98,0.67,2.01,0.8,2.68,0.36c0.42-0.24,0.68-0.71,0.68-1.29c0.22,0.07,0.44,0.16,0.44,0.16
		c0.11,0,1.09-0.3,2.12-0.63c1.23-0.4,2.53-0.83,2.53-0.83l0.39-0.11l-0.13-0.42c-0.07-0.24-0.03-0.45,0.13-0.65
		c0.24-0.28,0.88-0.44,1.43-0.32c0.21,0.04,0.52,0.17,0.61,0.52l0.17,0.41l7.48-2.42c0.15-0.2,0.38-0.5,0.5-0.77
		c0.63,0.31,1.26,0.48,1.86,0.22c0.44-0.17,0.57-0.65,0.76-1.11c0.3,0.2,0.8,0.46,0.8,0.46c0.31,0.02,5.81-1.79,7.09-2.19
		c1.09,4.26,1.78,8.5,1.78,12.67C449.87,520.4,449.15,524.43,448.03,528.56z"/>
	<path style="fill:#231815;" d="M400.11,288.99c-11.41,0-21.13,7.33-24.72,17.53c-0.96,2.73-1.48,5.66-1.48,8.71
		c0,3.01,0.52,5.95,1.48,8.71c1.86,5.31,5.4,9.97,10.25,13.19l4.32,2.86h-5.19c0,0-3.84,0-9.38,0c-13.57,0-37.31,0-39.38,0
		c0,2.32,0,13.31,0,15.69c1.95,0,24.65,0,39.38,0c7.22,0,12.52,0,12.52,0v83.69l-1.79-0.26c0,0-6.01-0.92-6.26-1.01
		c0,0-2.79-0.85-2.94-0.92c0,0-0.78-0.34-1.53-0.67c-0.66-0.29-1.29-0.57-1.38-0.61c0,0-2.41-1.37-2.55-1.51
		c0,0-2.19-1.64-2.19-1.65c0,0-2.23-1.58-2.49-1.82c0,0-1.7-2-1.75-2.04c0,0-1.75-2.06-1.81-2.2c0,0-1.46-2.11-1.57-2.27
		c0,0-1.23-2.41-1.27-2.49c0,0-1.03-2.37-1.07-2.43c0,0-0.97-2.52-1.03-2.64c0,0-0.72-2.61-0.77-2.82c0,0-0.35-2.54-0.37-2.63
		c0,0-0.22-2.73-0.22-2.84v-0.61l0.27-1.33c0,0,2.27-0.43,2.88-0.55c-4.9-2.88-17.09-10.07-18.88-11.16
		c-0.79,1.05-4.19,5.65-7.42,10.05c-0.28,0.38-0.55,0.75-0.83,1.12c-0.18,0.24-0.36,0.48-0.54,0.72c-1.55,2.11-2.97,4.04-3.92,5.34
		c1.55-0.26,3.16-0.57,3.16-0.57l1.68-0.31l0.21,1.64c0,0,0.94,8.52,0.94,8.89c0.02,0,1.89,5.26,1.89,5.26v0.03
		c0,0.07,2.8,4.72,2.8,4.83l3.36,4.18c0.05,0,4.11,3.93,4.11,3.95l4.61,3.55l5.05,3.29l1.18,0.67l4.31,2.45c0,0,5.51,3.1,5.44,3.08
		c0,0,5.66,2.84,5.7,2.84c0,0,1.17,0.63,2.45,1.32c0.27,0.15,0.55,0.29,0.82,0.44c1.27,0.69,2.43,1.31,2.46,1.33l1.11,0.65
		l4.19,2.45c0,0,5.37,3.15,5.52,3.26c0,0,1.33,0.99,2.6,1.96c1.14,0.86,2.24,1.7,2.28,1.75c0,0,1.17,1.07,2.42,2.19
		c1.25,1.12,2.57,2.32,2.84,2.56c0.86-0.76,2.15-1.88,3.27-2.86c1.24-1.09,2.3-1.99,2.36-2.03c0,0,1.17-0.83,2.39-1.68
		c1.26-0.89,2.56-1.81,2.62-1.85c0,0,5.26-3.14,5.35-3.18l4.94-2.51l0.64-0.33l3.1-1.57l0.35-0.18l2.16-1.09l5.76-2.97
		c0,0,5.41-2.91,5.4-2.88l4.36-2.53l0.87-0.5l5.01-3.22l4.39-3.61l3.97-4.11c0.02,0,3.32-4.5,3.32-4.5c0-0.05,2.82-5.07,2.82-5.07
		c0.06-0.07,1.79-5.79,1.79-5.79s1.09-6.76,1.13-6.92l0.85-3.35l2.08,0.48c0,0,1.61,0.31,3.16,0.57c-0.98-1.33-2.43-3.32-4.02-5.49
		c-0.18-0.25-0.37-0.51-0.55-0.76c-0.27-0.37-0.53-0.73-0.81-1.1c-3.2-4.35-6.5-8.85-7.27-9.89c-1.86,1.09-14.02,8.28-18.92,11.21
		c0.63,0.08,3.15,0.56,3.15,0.56s-0.64,5.66-0.68,5.72c0,0-0.46,3-0.56,3.26c0,0-0.9,2.67-0.99,2.77c0,0-1.16,2.59-1.24,2.74
		c0,0-1.45,2.45-1.55,2.6c0,0-1.61,2.1-1.72,2.23c0,0-1.84,1.88-1.95,1.94c0,0-2.05,1.88-2.07,1.97c0,0-1.97,1.64-2.1,1.68
		c0,0-2.12,1.49-2.23,1.62l-2.56,1.33c0,0-0.47,0.25-1,0.53c-0.66,0.33-1.41,0.72-1.47,0.73c0,0-2.25,1.03-2.36,1.05
		c0,0-2.46,0.94-2.5,0.99c0,0-2.32,0.83-2.65,0.9l-4.35,0.57v-83.65c0,0,5.68,0,13.34,0c15.04,0,37.69,0,39.61,0
		c0-2.38,0-13.37,0-15.69c-1.89,0-24.28,0-39.61,0c-8.17,0-14.34,0-14.34,0l4.32-2.86c4.65-3.11,8.11-7.56,10.01-12.64
		c1.09-2.92,1.68-6.05,1.68-9.26c0-3.25-0.6-6.35-1.68-9.23C420.91,296.07,411.33,288.99,400.11,288.99z M400.11,327.14
		c-6.52,0-11.89-5.33-11.89-11.91c0-6.56,5.38-11.88,11.89-11.88c6.57,0,11.97,5.33,11.97,11.88
		C412.08,321.81,406.69,327.14,400.11,327.14z"/>
	<path style="fill:#231815;" d="M332.15,224.22v-0.25c-3.95-2.55-3.41-7.08-3.41-11.36v-30.43c0-4.23-0.54-8.86,3.41-11.4v-0.25
		h-8.74h-13.2v0.25c4,2.53,3.45,7.16,3.45,11.4v30.43c0,4.28,0.55,8.81-3.45,11.36v0.25h13.2H332.15z"/>
	<path style="fill:#231815;" d="M416.33,223.97c-3.47-3.27-3.56-6.97-3.56-11.69v-12.54l1.66,0.09c1.77,0,6.5-0.05,10.23,0.58
		c2.47,0.42,4.51,1.14,4.93,2.38H430v-11.43h-0.42c-0.76,0.31-1.81,0.37-3.03,0.37h-1.9h-11.89v-13.22h2.62
		c1.87,0,5.6-0.11,9.27,0.17c4.17,0.32,8.24,1.14,9.39,3.17h0.28v-11.84h-0.28c-0.9,0.52-2.17,0.52-3.41,0.52h-5.99h-30.45v0.25
		c4.02,2.44,3.5,7.08,3.5,11.34v30.42c0,4.35,0.53,8.87-3.5,11.42v0.25h22.12V223.97z"/>
	<path style="fill:#231815;" d="M484.81,223.35l4.08-11.94c-3.87,2.13-7.94,3.91-12.28,4.78c-1.74,0.34-3.51,0.55-5.33,0.55
		c-12.17,0-17.64-9.18-17.64-20.43c0-9.88,3.2-18.84,14.38-18.84c2.97,0,5.87,0.58,8.59,1.63c1.78,0.68,3.48,1.56,5.07,2.61
		l-0.59-11.39l-4.48-0.39l-7.89-0.7c-7.95,0-16.52,1.95-22.74,7.25c-5.71,5.07-8.88,12.96-8.88,20.47c0,8.32,3.36,16,9.64,21.27
		c6.47,5.66,13.53,7.05,21.81,7.05c2.7,0,5.39-0.12,8.06-0.42C479.37,224.56,482.11,224.08,484.81,223.35z"/>
	<path style="fill:#231815;" d="M422.1,577.55v47.6c1.95,0.81,3.71,2.02,5.27,3.58V575.4c-0.3,0.14-0.58,0.29-0.88,0.42
		C425.05,576.45,423.59,577.03,422.1,577.55z"/>
	<path style="fill:#231815;" d="M373.53,575.61c-0.26-0.11-0.5-0.25-0.75-0.37v53.19c1.58-1.45,3.35-2.58,5.27-3.35v-47.65
		C376.52,576.88,375.02,576.28,373.53,575.61z"/>
	<path style="fill:#231815;" d="M427.37,187.16v-3.54c-0.81-0.14-1.8-0.27-3.07-0.37c-0.69-0.05-1.42-0.09-2.2-0.12v4.05h4.45
		C426.91,187.18,427.17,187.17,427.37,187.16z"/>
	<path style="fill:#231815;" d="M427.37,300.98v-94.2c-0.61-0.34-1.15-0.81-1.55-1.4c-0.32-0.12-0.92-0.29-1.93-0.47
		c-0.57-0.1-1.17-0.17-1.79-0.24v89.06C424.19,295.87,425.97,298.3,427.37,300.98z"/>
	<path style="fill:#231815;" d="M320.89,228.79v157.03c1.79,2,3.55,4,5.27,6V228.79H320.89z"/>
	<path style="fill:#231815;" d="M378.05,293.8v-65.38c-0.43,0.17-0.84,0.35-1.29,0.49c-1.28,0.41-2.61,0.68-3.98,0.86v71.36
		C374.18,298.4,375.96,295.95,378.05,293.8z"/>
	<path style="fill:#231815;" d="M376.08,431.83c0.22,0.1,1.3,0.57,1.97,0.86v-72.45h-5.27v69.44c0.49,0.37,1.11,0.83,1.34,1
		C374.55,430.95,375.63,431.57,376.08,431.83z"/>
	<path style="fill:#231815;" d="M477.1,229.4c-1.07,0.12-2.18,0.2-3.29,0.27v162.2c1.71-2.01,3.47-4.01,5.27-6.01V229.12
		C478.42,229.21,477.77,229.33,477.1,229.4z"/>
	<path style="fill:#231815;" d="M580.16,153.58c-1.73-2.41-3.48-4.79-5.26-7.13c-14.05-18.44-29.62-34.69-46.44-48.33
		c-1.74-1.42-3.5-2.8-5.27-4.16c-13.94-10.71-28.7-19.65-44.1-26.62c-1.75-0.79-3.5-1.55-5.27-2.29C450.46,55.27,425.68,50,400,50
		c-25.68,0-50.48,5.27-73.84,15.06c-1.77,0.74-3.52,1.5-5.27,2.29c-15.45,6.99-30.25,15.97-44.24,26.73
		c-1.77,1.36-3.53,2.75-5.27,4.17c-16.93,13.77-32.61,30.16-46.72,48.79c-1.68,2.22-3.34,4.48-4.98,6.76
		c-45.38,63.24-73.41,150.23-73.41,246.23c0,95.99,28.03,182.96,73.41,246.19c1.64,2.29,3.3,4.54,4.98,6.77
		c14.11,18.62,29.79,35.01,46.72,48.78c1.74,1.42,3.5,2.81,5.27,4.16c13.99,10.75,28.79,19.73,44.24,26.72
		c1.75,0.79,3.5,1.55,5.27,2.29c15,6.29,30.59,10.71,46.62,13.07c1.75,0.26,3.51,0.49,5.27,0.7c7.24,0.85,14.56,1.3,21.95,1.3
		c7.45,0,14.82-0.45,22.1-1.31c1.76-0.21,3.52-0.45,5.27-0.7c15.97-2.37,31.5-6.78,46.44-13.03c1.77-0.74,3.52-1.5,5.27-2.29
		c15.4-6.97,30.16-15.91,44.1-26.61c1.77-1.36,3.53-2.74,5.27-4.16c16.82-13.65,32.39-29.88,46.44-48.32
		c1.78-2.34,3.53-4.72,5.26-7.12c45.48-63.25,73.57-150.31,73.57-246.42C653.73,303.91,625.64,216.83,580.16,153.58z M578.52,460.55
		c-1.96,0.31-3.56,0.5-3.56,0.5c-0.02,0-0.04,0-0.06,0v143.27c-13.42,23.01-29.05,43.32-46.44,60.29V492.89
		c-0.29,0.15-0.57,0.31-0.9,0.45c-1.1,0.46-2.56,0.83-4.37,1.11v175.16c-13.74,12.62-28.52,23.2-44.1,31.41V496.6
		c-0.93-0.34-1.86-0.69-2.79-1.06c-0.47,2.08-1.82,3.47-2.41,4.06l-0.06,0.07v32.99l0.28,0.3c0.96,0.96,3.48,3.62,2.11,7.93
		c-0.55,1.71-1.44,2.84-2.38,3.61v159.2c-14.84,7.24-30.39,12.35-46.44,15.08v-55.23c-1.59,1.6-3.37,2.88-5.27,3.76v52.28
		c-7.26,0.99-14.62,1.5-22.06,1.5c-7.42,0-14.76-0.51-22-1.5v-52c-1.92-0.75-3.71-1.86-5.27-3.24v54.44
		c-16.12-2.74-31.72-7.87-46.62-15.14V544.48c-0.78-0.75-1.48-1.74-1.94-3.16c-1.36-4.11,0.9-6.72,1.94-7.77v-33.62
		c-0.78-0.8-2.04-2.24-2.36-4.42c-1.13,0.45-2.11,0.82-2.91,1.1v204.37c-15.64-8.25-30.46-18.88-44.24-31.57V494.42
		c-1.73-0.29-3.14-0.64-4.2-1.08c-0.4-0.17-0.74-0.35-1.06-0.54v171.62c-17.52-17.13-33.25-37.66-46.72-60.93V461.01
		c-0.58-0.07-1.79-0.24-3.2-0.46c-0.59-0.09-1.19-0.19-1.79-0.29v134.3c-29.07-53.98-46.33-121.39-46.33-194.52
		c0-73.16,17.26-140.59,46.33-194.57v39.28c0.1,0.03,0.2,0.06,0.28,0.08c1.9,0.59,3.49,1.63,4.71,3.06v-51.34
		c13.47-23.27,29.2-43.8,46.72-60.93v203.26c1.69,1.55,3.45,3.13,5.27,4.76V130.61c13.79-12.69,28.6-23.31,44.24-31.56v66.94h5.27
		V96.37c14.9-7.27,30.5-12.4,46.62-15.13v84.75h5.27V80.43c7.24-0.99,14.57-1.5,22-1.5c7.44,0,14.8,0.51,22.06,1.51v85.54h5.27
		V81.25c16.05,2.74,31.6,7.85,46.44,15.08v68.77l5.27,0.47V99c15.58,8.21,30.36,18.79,44.1,31.41v213.36
		c1.82-1.63,3.57-3.22,5.27-4.76V135.4c17.39,16.97,33.02,37.28,46.44,60.29v52.8c1.26-1.76,3-3.01,5.16-3.67
		c0.03-0.01,0.07-0.02,0.11-0.03v-39.71c29.19,54.05,46.54,121.62,46.54,194.96c0,73.3-17.35,140.87-46.54,194.91V460.28
		C579.62,460.38,579.07,460.46,578.52,460.55z"/>
	<path style="fill:#231815;" d="M422.1,360.24v71.01c0.16-0.08,0.32-0.16,0.44-0.23l3.15-1.64c0.36-0.28,0.89-0.66,1.67-1.21v-67.94
		H422.1z"/>
	<path style="fill:#231815;" d="M479.09,210.79v-25.31c-1.29-0.85-2.67-1.56-4.11-2.11c-0.39-0.15-0.78-0.27-1.16-0.39V212
		c0.62-0.08,1.24-0.16,1.9-0.29C476.81,211.49,477.94,211.17,479.09,210.79z"/>
	<path style="fill:#231815;" d="M340.83,182.24v25.75c0,4.98,0.23,8.98,3.82,12.76c3.21,3.25,7.52,4.65,11.98,4.65h13.17
		c1.91,0,3.8-0.28,5.6-0.84c2.34-0.73,4.51-1.96,6.29-3.8c3.61-3.79,3.85-7.78,3.85-12.76v-25.75c0-4.24-0.57-8.89,3.45-11.42v-0.27
		H375.4h-8.15v0.27c4,2.54,3.45,7.19,3.45,11.42v22.32c0,3.21,0.18,6.34-1.82,9c-1.22,1.64-3.27,2.51-5.26,2.51h-0.85
		c-2.02,0-4.05-0.87-5.29-2.51c-1.92-2.66-1.81-5.79-1.81-9v-22.32c0-4.24-0.56-8.89,3.43-11.42v-0.27h-21.7v0.27
		C341.42,173.35,340.83,178,340.83,182.24z"/>
</g>
</svg>
