<?xml version="1.0" encoding="utf-8"?>
<!-- Created by @FCLOGO 2025-2-9 GMT+8 21:00:28 . https://fclogo.top/ -->
<!-- FOR PERSONAL USE ONLY NOT FOR COMMERCIAL USE -->
<svg version="1.1" xmlns="http://www.w3.org/2000/svg" xmlns:xlink="http://www.w3.org/1999/xlink" x="0px" y="0px"
	 viewBox="0 0 800 800" style="enable-background:new 0 0 800 800;" xml:space="preserve">
<g>
	<polygon style="fill:#171819;" points="745.5122,394.005 745.5122,393.9996 531.5233,750 	"/>
	<polygon style="fill:#171819;" points="54.4878,394.005 268.5186,750 54.4878,393.9996 	"/>
	<path style="fill:#171819;" d="M436.9991,191.74h-73.9982h-85.995h-38.0612V81.4922h-32.9314h-85.9905H87.1134V393.01
		l195.6621,325.512h80.2254h73.9982h80.2407l195.6907-322.5095V285.2361v-13.8316v-137.484v-13.8766V81.4922h-32.9249H594.002
		h-29.9366V191.74h-41.0407H436.9991z M120.0228,424.4264l-20.8774-34.7322V93.4769h20.8774V424.4264z M363.0009,203.7079h73.9982
		v87.0471l-73.9982,45.791V203.7079z M206.0133,93.4769h20.9261V191.74v11.968h12.0054h38.0612v186.0402l-70.9926,43.9209V93.4769z
		 M277.0059,685.6412l-57.2567-95.2663l57.2567-35.4237V685.6412z M436.9991,706.5166h-73.9982V501.7461l73.9982-45.7879V706.5166z
		 M594.002,568.8455l-70.9773,117.0013V402.7375l70.9773-43.9209V568.8455z M700.8699,392.6691l-20.8644,34.4003V305.6001
		l20.8644-12.9091V392.6691z M680.0056,140.4002V93.4769h20.8644v34.0252l-21.049,13.0235L680.0056,140.4002z M700.8699,141.3765
		v137.4852L213.6938,580.2859l-60.2558-100.2443L700.8699,141.3765z M576.062,203.7079V191.74V93.4769h17.9401v100.1497
		l-70.9773,43.9087v-33.8273h41.0407H576.062z"/>
	<path style="fill:#171819;" d="M533.5087,50v113.9932H406.5041H393.518H266.5133V50H54.4878v343.9996L268.5186,750h130.9735h1.0092
		h131.022l213.989-356.0004V50H533.5087z M733.5287,390.6562L524.7289,737.9944H400.5012h-1.0092H275.26L66.5019,390.6562V61.9747
		h187.9928v102.0185v12.0144h12.0186H393.518h12.9861h127.0046h12.0186v-12.0144V61.9747h188.0013V390.6562z"/>
	<polygon style="fill:#171819;" points="246.0842,542.6194 258.8328,534.7806 214.028,461.7906 201.2661,469.6248 	"/>
	<path style="fill:#171819;" d="M401.5656,447.6425c5.728,0,10.3342-4.6164,10.3342-10.3223
		c0-5.7136-4.6063-10.3212-10.3342-10.3212c-5.6553,0-10.253,4.6076-10.253,10.3212
		C391.3126,443.0261,395.9103,447.6425,401.5656,447.6425z"/>
	<path style="fill:#171819;" d="M531.886,367.2699c5.6794,0,10.3255-4.6186,10.3255-10.2894c0-5.7156-4.6461-10.321-10.3255-10.321
		c-5.7037,0-10.3079,4.6053-10.3079,10.321C521.5781,362.6512,526.1823,367.2699,531.886,367.2699z"/>
	<path style="fill:#171819;" d="M488.5654,396.1311c17.7003-10.883,22.6386-30.5686,12.9245-48.6451l-12.4474,7.6573
		c5.5035,11.27,4.4964,23.5667-6.8668,30.5292c-15.6488,9.6405-30.6821-0.1815-39.2552-14.1779
		c-8.5952-14.0052-10.5454-31.8374,5.0946-41.4306c10.6553-6.5327,19.8485-3.7381,27.1001,3.3179l12.808-7.8321
		c-11.2117-14.8102-29.7849-15.9116-46.3131-5.918c-21.8803,13.4225-24.2879,38.8494-11.4382,59.7158
		C442.9403,400.2078,466.6917,409.5527,488.5654,396.1311z"/>
	<path style="fill:#171819;" d="M619.2925,315.84c17.6608-10.8159,22.6168-30.5326,12.9244-48.6417l-12.5023,7.6571
		c5.5256,11.3051,4.4899,23.6273-6.8535,30.5688c-15.6401,9.6286-30.6403-0.1979-39.2597-14.1921
		c-8.5951-13.9964-10.5256-31.8297,5.1079-41.4088c10.64-6.5415,19.7935-3.7446,27.1134,3.3344l12.7749-7.8672
		c-11.2205-14.798-29.7738-15.9093-46.3199-5.9203c-21.8472,13.4335-24.2613,38.8713-11.4666,59.7127
		C573.6411,319.9694,597.3924,329.3098,619.2925,315.84z"/>
	<path style="fill:#171819;" d="M663.2949,285.8604c5.6816,0,10.3057-4.6306,10.3057-10.32c0-5.6915-4.624-10.3189-10.3057-10.3189
		c-5.6884,0-10.341,4.6274-10.341,10.3189C652.9539,281.2299,657.6065,285.8604,663.2949,285.8604z"/>
	<path style="fill:#171819;" d="M276.7245,523.679c5.6948,0,10.3277-4.6517,10.3277-10.3277
		c0-5.7159-4.6328-10.3619-10.3277-10.3619c-5.6817,0-10.3189,4.6461-10.3189,10.3619
		C266.4055,519.0273,271.0428,523.679,276.7245,523.679z"/>
	<path style="fill:#171819;" d="M336.0722,487.3714l-5.0264-23.5349l29.145-17.886l18.7229,15.1267l13.7028-8.4247l-72.9693-55.7098
		l-13.6128,8.3191l16.8341,90.2068L336.0722,487.3714z M320.6234,413.6555l30.2445,24.654l-22.3135,13.6996l-8.2101-38.1962
		L320.6234,413.6555z"/>
</g>
<g>
</g>
<g>
</g>
<g>
</g>
<g>
</g>
<g>
</g>
<g>
</g>
<g>
</g>
<g>
</g>
<g>
</g>
<g>
</g>
<g>
</g>
<g>
</g>
<g>
</g>
<g>
</g>
<g>
</g>
</svg>
