<?xml version="1.0" encoding="utf-8"?>
<!-- Created by @FCLOGO 2025-2-14 GMT+8 15:45:44 . https://fclogo.top/ -->
<!-- FOR PERSONAL USE ONLY NOT FOR COMMERCIAL USE -->
<svg version="1.1" xmlns="http://www.w3.org/2000/svg" xmlns:xlink="http://www.w3.org/1999/xlink" x="0px" y="0px"
	 viewBox="0 0 800 800" style="enable-background:new 0 0 800 800;" xml:space="preserve">
<g>
	<path d="M678.6138,444.1827C678.6138,613.0811,541.6949,750,372.7978,750S66.9829,613.0811,66.9829,444.1827
		c0-168.8963,136.9177-305.8152,305.8148-305.8152S678.6138,275.2864,678.6138,444.1827"/>
	<path style="fill:#00A562;" d="M585.5743,231.407c-56.834-56.8348-132.3994-88.1347-212.7765-88.1347
		c-80.3759,0-155.941,31.2999-212.7758,88.1347c-56.8353,56.8341-88.1348,132.3994-88.1348,212.7757
		c0,80.3767,31.2995,155.9425,88.1348,212.7778c56.8349,56.8342,132.4,88.1344,212.7758,88.1344
		c80.3771,0,155.9425-31.3002,212.7765-88.1344c56.8342-56.8353,88.1356-132.4011,88.1356-212.7778
		C673.7098,363.8064,642.4084,288.2411,585.5743,231.407 M569.777,641.1617c-52.6156,52.6155-122.5707,81.5919-196.9793,81.5919
		c-74.4075,0-144.3625-28.9763-196.9781-81.5903c-52.6141-52.6156-81.5902-122.5707-81.5902-196.9805
		c0-74.4081,28.9762-144.3635,81.5902-196.9777c52.6157-52.6147,122.5692-81.591,196.9781-81.591
		c74.4085,0,144.3637,28.9763,196.9793,81.591c52.614,52.6142,81.5903,122.5696,81.5903,196.9777
		C651.3674,518.5925,622.3911,588.5476,569.777,641.1617z"/>
	<path style="fill:#EF9404;" d="M562.4553,254.526c-50.659-50.6593-118.014-78.5585-189.6575-78.5585
		c-71.6424,0-138.9977,27.8993-189.6567,78.5585c-50.6599,50.659-78.5587,118.014-78.5587,189.6567
		c0,71.6448,27.8988,138.9998,78.5587,189.6588C233.8001,684.5007,301.1553,712.4,372.7978,712.4
		c71.6435,0,138.9985-27.8993,189.6575-78.5586c50.6593-50.6589,78.5585-118.014,78.5585-189.6588
		C641.0138,372.54,613.1146,305.185,562.4553,254.526 M546.6564,618.0425c-46.4378,46.4395-108.1824,72.015-173.8586,72.015
		c-65.6747,0-127.4193-25.5755-173.859-72.0133c-46.4386-46.4406-72.0141-108.1851-72.0141-173.8615
		c0-65.675,25.5755-127.4193,72.0141-173.8586c46.4397-46.4398,108.1835-72.0156,173.859-72.0156
		c65.6762,0,127.4208,25.5759,173.8603,72.0156c46.4388,46.4393,72.0148,108.1836,72.0148,173.8586
		C618.6728,509.8591,593.0969,571.6036,546.6564,618.0425z"/>
	<path d="M208.9964,92.7386l10.7832,19.2388l-1.7683,0.9365c-3.4186-4.445-7.5468-7.2911-12.3829-8.5417
		c-4.8358-1.2502-9.1496-0.8707-12.9459,1.1339c-2.932,1.5507-4.8373,3.5634-5.7197,6.0335
		c-0.8811,2.4727-0.7812,4.7294,0.2962,6.7678c0.6855,1.2954,1.5958,2.2849,2.7298,2.9723
		c1.5487,0.9103,3.5929,1.5394,6.1311,1.8885c1.8532,0.2347,5.8614,0.2663,12.0264,0.0954
		c8.6199-0.2533,14.913,0.4827,18.8816,2.2078c3.937,1.7437,6.9239,4.5412,8.9619,8.3936
		c2.5853,4.8883,2.9044,10.0998,0.9576,15.6339c-1.9463,5.5366-5.8514,9.8544-11.7143,12.9554
		c-1.8398,0.9743-3.6798,1.7084-5.5154,2.2003c-1.8356,0.4935-4.2637,0.8766-7.282,1.1486
		c-1.6862,0.1561-2.9734,0.4695-3.8639,0.9407c-0.7466,0.3963-1.3871,1.1019-1.9162,2.1158
		c-0.5293,1.016-0.7415,2.2487-0.6329,3.7016l-1.5954,0.8435l-11.6768-22.0771l1.5954-0.8435
		c4.5473,5.5403,9.4859,8.9869,14.8195,10.3426c5.3336,1.3548,10.085,0.9294,14.2547-1.2767
		c3.2173-1.7009,5.32-3.9346,6.3036-6.7005c0.9837-2.7627,0.8618-5.3107-0.3698-7.6387c-0.7301-1.3798-1.8036-2.523-3.2197-3.4294
		c-1.4176-0.905-3.1819-1.5453-5.292-1.9185c-2.1118-0.3736-5.5589-0.4924-10.3398-0.353
		c-6.7022,0.1973-11.7029-0.0094-15.0059-0.6181c-3.2999-0.608-6.1763-1.7158-8.6296-3.3259
		c-2.4498-1.6092-4.3967-3.7795-5.8423-6.5111c-2.4627-4.6556-2.8495-9.5272-1.1638-14.6149
		c1.6874-5.0856,5.1324-9.0051,10.3364-11.7574c1.8983-1.0023,3.86-1.7456,5.8837-2.2283c1.5339-0.3698,3.5163-0.601,5.951-0.6928
		c2.4349-0.0919,4.0401-0.3433,4.817-0.7543c0.747-0.3944,1.2152-0.9373,1.4028-1.624c0.1877-0.6869,0.0036-2.0072-0.5484-3.9594
		L208.9964,92.7386"/>
	<path d="M271.4186,69.8749l7.3102,20.8362l-1.9053,0.618c-2.6055-4.975-6.1837-8.4968-10.7365-10.566
		c-4.5544-2.0672-8.874-2.4385-12.9625-1.1151c-3.1594,1.0232-5.3881,2.6774-6.6854,4.9615
		c-1.2953,2.287-1.5884,4.5282-0.8762,6.727c0.4519,1.3947,1.1787,2.528,2.179,3.3999c1.3705,1.1654,3.278,2.14,5.7225,2.9223
		c1.7853,0.552,5.7333,1.2748,11.8419,2.1703c8.5435,1.239,14.6221,3.0529,18.2377,5.4403
		c3.5825,2.3996,6.0471,5.6753,7.3915,9.8265c1.7044,5.2655,1.1191,10.4597-1.7573,15.5828
		c-2.8764,5.125-7.4736,8.7094-13.7928,10.7535c-1.9819,0.6415-3.9215,1.0474-5.8177,1.2165
		c-1.896,0.1689-4.3551,0.126-7.381-0.1254c-1.6884-0.1398-3.0118-0.053-3.9705,0.2584c-0.8073,0.2612-1.5581,0.847-2.2548,1.7574
		c-0.6986,0.9109-1.121,2.0913-1.2674,3.5408l-1.7176,0.5551l-7.7009-23.7886l1.7176-0.5557
		c3.5271,6.2514,7.8044,10.5033,12.8313,12.7601c5.0258,2.2563,9.7848,2.6577,14.2749,1.2027
		c3.4697-1.1222,5.9269-2.9601,7.3764-5.517c1.449-2.5567,1.7662-5.0894,0.9555-7.5992c-0.4826-1.4868-1.3444-2.7989-2.5853-3.9371
		c-1.2411-1.1376-2.8701-2.0722-4.8864-2.8062c-2.0161-0.7322-5.3951-1.4437-10.1355-2.1342
		c-6.6442-0.9633-11.5418-2.0295-14.6919-3.2011c-3.1484-1.1696-5.7957-2.7592-7.9355-4.77c-2.14-2.0107-3.6849-4.487-4.6389-7.4309
		c-1.6238-5.016-1.1641-9.8875,1.3783-14.6128c2.544-4.7249,6.6188-7.9955,12.2244-9.8109c2.0432-0.6604,4.106-1.0548,6.1881-1.1828
		c1.5748-0.0974,3.5708,0.0174,5.9887,0.346c2.4163,0.3297,4.0414,0.3581,4.8789,0.0878c0.8049-0.2611,1.3588-0.7154,1.6631-1.361
		c0.3044-0.6458,0.3515-1.9766,0.1449-3.9967L271.4186,69.8749"/>
	<path d="M358.1122,56.1623l2.6316,22.7754l-1.8901,0.2175c-2.1109-5.7776-5.2846-10.0265-9.5276-12.7446
		c-4.2425-2.7187-8.8176-3.7942-13.7269-3.227c-4.1041,0.4745-7.7305,2.089-10.8829,4.8436
		c-3.1539,2.7534-5.2994,6.1273-6.4406,10.1219c-1.4724,5.1136-1.8625,10.6574-1.1719,16.6349
		c0.68,5.8801,2.0407,11.149,4.085,15.8069c2.0442,4.6576,4.7933,8.0387,8.2435,10.145c3.4501,2.1064,7.697,2.8667,12.7374,2.2847
		c4.1341-0.4767,7.817-1.8188,11.0499-4.0269c3.2311-2.2058,6.4979-5.7424,9.7977-10.6108l0.6552,5.6714
		c-3.2404,4.2692-6.7544,7.5001-10.5431,9.6892c-3.7903,2.189-8.3502,3.5909-13.6795,4.2072
		c-7.0119,0.8107-13.402,0.1233-19.1695-2.0575c-5.7672-2.1819-10.4337-5.7334-13.9971-10.658
		c-3.565-4.9237-5.6906-10.3585-6.3768-16.3043c-0.7251-6.2663,0.2266-12.3997,2.8565-18.3996
		c2.6285-5.9992,6.55-10.8709,11.7657-14.616c5.2126-3.7456,10.9542-5.9813,17.2223-6.706
		c4.6182-0.5334,9.6115-0.0961,14.9807,1.312c3.1072,0.8206,5.0646,1.1845,5.8719,1.0907c1.0326-0.1199,1.8854-0.6026,2.5573-1.4507
		c0.6706-0.847,1.0233-2.1069,1.0606-3.7817L358.1122,56.1623"/>
	<path d="M476.8556,71.0239l-0.3231,1.7775c-2.4404-0.0451-4.786,0.8354-7.0334,2.6457c-1.636,1.3569-4.3205,4.7572-8.0536,10.199
		l-31.466,45.7072l-1.5865-0.2877l-12.9465-55.8477c-1.5585-6.7321-2.6943-10.7267-3.4089-11.9825
		c-0.7173-1.2544-2.3131-2.2571-4.7899-3.0037l0.3234-1.7783l31.2288,5.6656l-0.3231,1.7781L437.42,65.705
		c-2.82-0.5099-4.8031-0.5069-5.9564,0.0117c-0.8259,0.3472-1.3218,0.9856-1.4883,1.9128
		c-0.1059,0.5788-0.1021,1.2824,0.0136,2.1118c0.114,0.8323,0.5966,3.0945,1.4479,6.7886l8.004,34.9521l18.1136-26.5414
		c2.1707-3.2105,3.5413-5.3769,4.1071-6.4992c0.5671-1.1208,0.9279-2.0991,1.0793-2.9328c0.1732-0.9614,0.0724-1.8543-0.3071-2.6845
		c-0.3794-0.8299-1.0311-1.5258-1.955-2.0909c-1.2778-0.7944-3.0531-1.3986-5.3285-1.8119l0.323-1.7781L476.8556,71.0239"/>
	<path d="M514.5519,89.3779l-10.4002,24.8709l1.216,0.5087c3.8739,1.6219,7.1914,1.5784,9.951-0.1256
		c2.7597-1.7045,5.3718-4.8289,7.838-9.3754l1.7121,0.7169l-13.377,31.9892l-1.7121-0.7169c1.0952-3.6346,1.53-6.803,1.3046-9.5105
		c-0.2281-2.7075-0.9467-4.7629-2.1589-6.1689c-1.2137-1.4059-3.2747-2.7179-6.1884-3.9382l-7.1954,17.2105
		c-1.4081,3.3646-2.1256,5.48-2.1536,6.3531c-0.0295,0.8695,0.2467,1.7083,0.8259,2.5156c0.5808,0.8073,1.7435,1.5755,3.4852,2.3034
		l3.6487,1.5262c5.7068,2.384,10.8318,2.9753,15.3777,1.7726c4.5431-1.2073,8.6973-4.1979,12.4615-8.9756l1.6667,0.6967
		l-10.8696,18.2697l-52.8049-22.0826l0.6963-1.6675l2.0271,0.849c1.773,0.7394,3.331,1.021,4.6774,0.8446
		c0.9575-0.0958,1.8587-0.5652,2.7075-1.4097c0.6302-0.582,1.5877-2.4063,2.8683-5.4707l16.8057-40.1888
		c1.1561-2.7639,1.7902-4.4909,1.9056-5.1856c0.1379-1.1752-0.0793-2.219-0.652-3.1299c-0.7909-1.3171-2.1761-2.3915-4.1581-3.2207
		l-2.0275-0.8486l0.6987-1.6671l51.1378,21.3839l-7.5561,18.0676l-1.7123-0.715c0.9763-4.7801,1.0767-8.4595,0.3044-11.0429
		c-0.7737-2.5813-2.4152-4.9257-4.9214-7.0325c-1.4562-1.242-4.496-2.8325-9.1209-4.768L514.5519,89.3779"/>
	<path d="M584.8691,121.7587l3.1176,52.3829l16.3687-23.2918c2.2825-3.2478,3.3607-5.7727,3.2319-7.5748
		c-0.1931-2.4449-1.8131-4.6977-4.8596-6.7586l1.0377-1.4776l17.8991,12.578l-1.0392,1.4775
		c-2.497-1.316-4.3006-2.0158-5.4135-2.1025c-1.1132-0.0865-2.2582,0.2421-3.438,0.9858c-1.179,0.7435-2.6674,2.3915-4.4641,4.9486
		l-31.6984,45.1055l-1.3569-0.9532l-4.9373-70.8518l-24.2027,34.4393c-2.191,3.1163-2.9565,5.7206-2.2997,7.8154
		c0.657,2.0914,1.9058,3.7829,3.7441,5.0743l1.2778,0.8992l-1.0381,1.4775l-19.2155-13.5039l1.038-1.4768
		c3.0037,2.0683,5.5112,2.915,7.5239,2.5397c2.0127-0.3755,4.0309-2.0014,6.053-4.8771l26.8696-38.2356l-0.1487-2.2505
		c-0.1356-2.2415-0.4827-3.8997-1.0421-4.9696c-0.5604-1.0701-1.6479-2.2113-3.2626-3.4261l1.0381-1.477L584.8691,121.7587"/>
	<path d="M649.1226,180.5581l-19.7869,18.3133l0.8984,0.9687c2.8508,3.0819,5.8867,4.4208,9.1049,4.0153
		c3.2169-0.4055,6.8925-2.1641,11.0225-5.2772l1.2619,1.3631l-25.4482,23.5526l-1.2619-1.363
		c2.5051-2.8516,4.2158-5.5548,5.1331-8.112c0.9159-2.5564,1.1144-4.7268,0.5967-6.5083c-0.5189-1.7854-1.8519-3.8355-3.9946-6.1522
		l-13.6935,12.6742c-2.6768,2.4739-4.2092,4.1016-4.5957,4.884c-0.3872,0.7793-0.4837,1.6561-0.2906,2.6344
		c0.1915,0.9742,0.929,2.155,2.2123,3.5408l2.6888,2.9036c4.2009,4.5399,8.6194,7.2058,13.2563,7.9955
		c4.6343,0.787,9.656-0.2097,15.0627-2.9942l1.2254,1.3253l-17.4694,12.1128l-38.8806-42.0107l1.3251-1.2256l1.4922,1.6125
		c1.3046,1.4097,2.6055,2.3131,3.9048,2.7069c0.9092,0.3099,1.9259,0.257,3.0495-0.1572c0.814-0.2689,2.4417-1.53,4.881-3.7867
		l31.9716-29.5903c2.1981-2.035,3.4933-3.345,3.8849-3.9313c0.6127-1.0116,0.8501-2.0494,0.7092-3.1161
		c-0.1729-1.5281-0.9882-3.0808-2.446-4.658l-1.4922-1.6122l1.3249-1.2256l37.6506,40.6831l-14.3723,13.3007l-1.2592-1.3608
		c2.8696-3.9444,4.4897-7.2523,4.8583-9.9202c0.3674-2.6693-0.153-5.4831-1.557-8.442c-0.8083-1.7344-2.9164-4.4438-6.3222-8.1251
		L649.1226,180.5581"/>
	<path d="M717.8897,269.4632l-73.6068-1.1129l6.496,10.7925c3.0705,5.1029,5.5391,8.4779,7.407,10.1278
		c2.9998,2.7149,6.5694,4.461,10.7022,5.2398c4.134,0.7773,8.7375,0.2681,13.8102-1.5301l0.9813,1.6313l-21.8798,10.0362
		l-31.2708-51.9523l73.7166,1.1034l-5.0596-8.4081c-1.9629-3.2625-3.3548-5.3503-4.1686-6.265
		c-1.5394-1.7324-3.3605-3.1329-5.4671-4.203c-2.1066-1.068-4.3929-1.6293-6.8563-1.6857
		c-2.4646-0.0541-5.2566,0.4185-8.3738,1.4207l-0.9323-1.5468l17.5367-8.4479L717.8897,269.4632"/>
	<path d="M677.8844,341.6076l-1.6777,0.6644l-12.7457-32.1523l1.6792-0.6653l0.8083,2.0411
		c0.708,1.7836,1.5944,3.0932,2.6604,3.9308c0.7333,0.6174,1.699,0.9354,2.8963,0.9521c0.8555,0.0428,2.8254-0.5465,5.9096-1.7668
		l40.4518-16.0362c3.1431-1.2463,5.0433-2.1905,5.6976-2.8347c0.6545-0.6414,1.077-1.5876,1.2645-2.8347
		c0.1877-1.2464-0.0603-2.7329-0.7443-4.4567l-0.8084-2.0401l1.6772-0.6651l12.7458,32.1527l-1.6788,0.6645l-0.8074-2.04
		c-0.7068-1.7834-1.593-3.0943-2.6591-3.9316c-0.7361-0.6196-1.7068-0.9492-2.9164-0.9952
		c-0.8556-0.0467-2.8268,0.5414-5.9094,1.7647l-40.4523,16.0363c-3.1441,1.2443-5.0405,2.1964-5.688,2.8577
		c-0.649,0.6581-1.0662,1.6122-1.2538,2.8588c-0.1876,1.2464,0.0604,2.7313,0.7431,4.4544L677.8844,341.6076"/>
	<path d="M705.1171,380.188l-4.752-22.9011l-6.8765-1.4161c-2.2903-0.4557-4.1194-0.5421-5.4897-0.2567
		c-1.8168,0.3755-3.0037,1.3871-3.5588,3.034c-0.3327,0.9649-0.2763,3.1633,0.1702,6.5966l-1.7671,0.3659l-4.475-21.5626
		l1.7687-0.3662c0.834,2.2529,2.1952,3.9631,4.0834,5.1367c1.8893,1.1692,5.5312,2.3403,10.9299,3.5158l56.5445,12.4537
		l0.1876,0.9093l-48.3167,34.4141c-4.5753,3.2746-7.3656,5.7649-8.3738,7.4717c-0.7644,1.2875-1.0221,2.9367-0.7699,4.9483
		l-1.7687,0.3658l-6.5063-31.3648l1.7676-0.3663l0.267,1.2915c0.5217,2.5175,1.2417,4.2126,2.1548,5.0876
		c0.6543,0.5952,1.4588,0.7937,2.4163,0.5952c0.5754-0.1207,1.1439-0.3379,1.7111-0.6536c0.2736-0.1242,1.3705-0.8501,3.2879-2.1797
		L705.1171,380.188 M708.3193,377.8282l20.3232-14.2899l-24.3915-5.3126L708.3193,377.8282z"/>
	<path d="M259.1178,665.5585l-6.0385,11.5162c-0.4546,0.8649-0.706,1.4373-0.7547,1.7161c-0.049,0.2775,0.0085,0.5578,0.1708,0.8384
		c0.1623,0.2775,0.5096,0.5563,1.0427,0.8365l0.3223,0.1689l-0.2016,0.3849l-7.414-3.8871l0.2007-0.3851l0.3749,0.1958
		c0.6014,0.3153,1.0669,0.4706,1.3966,0.4667c0.3285-0.004,0.6017-0.1031,0.8189-0.2978c0.2164-0.1959,0.5569-0.736,1.0217-1.6224
		l3.8277-7.3003c0.3414-0.65,0.5228-1.0727,0.5465-1.2685c0.0233-0.1958-0.0195-0.3943-0.1296-0.5967
		c-0.1098-0.2035-0.276-0.3632-0.4975-0.4799c-0.3526-0.1848-0.8399-0.299-1.4615-0.3422l0.0093-0.4732l6.4223,0.3514
		L259.1178,665.5585"/>
	<path d="M255.8491,682.4986l0.139-0.2961c1.3018,0.2803,2.4859,0.3483,3.5494,0.2062c1.0633-0.1422,2.0154-0.4882,2.8542-1.0366
		c0.8392-0.5495,1.5905-1.2817,2.252-2.2003c-0.5457,0.0227-0.9929,0.0066-1.3423-0.0498c-0.35-0.056-0.696-0.1634-1.0351-0.3218
		c-1.0922-0.5107-1.8176-1.3288-2.1765-2.4553c-0.3592-1.1259-0.2191-2.3731,0.42-3.7409c0.4436-0.9509,1.0462-1.7274,1.8095-2.3345
		c0.7621-0.606,1.6111-0.9575,2.5452-1.0529c0.9325-0.0949,1.7932,0.0417,2.5798,0.4092c0.8442,0.3942,1.5284,1.0084,2.0551,1.8411
		c0.5262,0.8329,0.7982,1.8102,0.8185,2.934c0.0195,1.1225-0.2437,2.2688-0.7898,3.4381c-0.7086,1.518-1.7516,2.8011-3.1266,3.8513
		c-1.3752,1.0497-2.9796,1.6586-4.8105,1.8275C259.76,683.6854,257.8458,683.3459,255.8491,682.4986 M265.2209,678.3538
		c0.441-0.7602,0.8034-1.4429,1.0847-2.045c0.603-1.2899,1.0152-2.5612,1.2362-3.8133c0.1184-0.696,0.0779-1.2674-0.119-1.7138
		c-0.1039-0.2386-0.2978-0.4238-0.5807-0.5566c-0.3555-0.165-0.7026-0.1422-1.0432,0.0696
		c-0.4722,0.2885-0.9828,1.0217-1.5328,2.1981c-0.9171,1.9644-1.316,3.4286-1.1961,4.3901
		c0.0798,0.6246,0.3787,1.0579,0.8956,1.3007C264.2429,678.312,264.6604,678.3684,265.2209,678.3538z"/>
	<path d="M275.3978,690.7627l-8.6608-3.5707l0.0984-0.2386c3.9586-2.0664,6.4472-3.5295,7.4655-4.3862
		c1.0186-0.8598,1.7426-1.8103,2.1723-2.8522c0.3141-0.759,0.3382-1.4874,0.0751-2.1843c-0.2627-0.6971-0.734-1.1857-1.4144-1.4659
		c-1.1144-0.4596-2.2085-0.2584-3.2835,0.601l-0.3426-0.306c0.963-1.2269,1.98-2.0099,3.0508-2.3478
		c1.0701-0.3378,2.126-0.2911,3.1681,0.1382c0.7453,0.307,1.3536,0.7601,1.8254,1.361c0.4721,0.6006,0.7563,1.2763,0.8552,2.0233
		c0.0984,0.7469,0.0388,1.3841-0.1791,1.9122c-0.3971,0.963-1.0677,1.8306-2.0116,2.6002c-1.2825,1.038-3.6478,2.2474-7.0956,3.6272
		l3.18,1.3101c0.7812,0.3231,1.3035,0.4987,1.5662,0.5309c0.2616,0.0323,0.501,0.0015,0.717-0.091
		c0.2156-0.0927,0.5488-0.3395,1.0014-0.7361l0.3905,0.1608L275.3978,690.7627"/>
	<path d="M277.8768,692.1052l0.1105-0.3099c1.323,0.1597,2.5074,0.1207,3.554-0.1178c1.0466-0.2402,1.9618-0.6708,2.7468-1.2954
		c0.7859-0.6235,1.4666-1.4231,2.0412-2.3965c-0.5403,0.0724-0.9883,0.0965-1.3417,0.0724
		c-0.3534-0.0225-0.7073-0.0977-1.0607-0.2249c-1.1338-0.408-1.9302-1.155-2.3914-2.2435
		c-0.4608-1.0888-0.4351-2.3439,0.0751-3.7655c0.3547-0.9866,0.8836-1.817,1.5877-2.4899c0.7038-0.6745,1.5165-1.1022,2.437-1.2821
		c0.9212-0.181,1.79-0.1218,2.6082,0.1705c0.876,0.3149,1.6145,0.8633,2.2151,1.6436c0.5993,0.782,0.9606,1.7314,1.0839,2.8469
		c0.1222,1.117-0.0361,2.2823-0.4725,3.4971c-0.566,1.5757-1.4857,2.9488-2.7597,4.122c-1.2731,1.1719-2.8145,1.9243-4.6229,2.2594
		C281.88,692.9273,279.9424,692.765,277.8768,692.1052 M286.8287,687.1168c0.3694-0.7979,0.6671-1.5087,0.8925-2.1349
		c0.4814-1.3394,0.7765-2.6441,0.8824-3.9113c0.0537-0.7042-0.0382-1.2701-0.2756-1.6951c-0.1262-0.2278-0.3367-0.394-0.631-0.5013
		c-0.3683-0.1315-0.7115-0.0779-1.0319,0.165c-0.4436,0.3323-0.8851,1.1073-1.3241,2.3291
		c-0.7338,2.0407-0.9965,3.5334-0.7879,4.4811c0.1363,0.6158,0.4733,1.0194,1.0109,1.2125
		C285.8513,687.165,286.2728,687.1838,286.8287,687.1168z"/>
	<path style="fill:#FFFFFF;" d="M469.7579,162.163l-4.1434,12.3294c-0.311,0.9267-0.4695,1.5312-0.4733,1.8141
		c-0.0038,0.283,0.0966,0.5493,0.3004,0.7999c0.2051,0.2503,0.5913,0.4714,1.1628,0.6633l0.3444,0.116l-0.1381,0.411l-7.9368-2.667
		l0.1377-0.4117l0.3997,0.1347c0.6449,0.2168,1.1292,0.297,1.4538,0.241c0.3242-0.0564,0.5776-0.1981,0.7613-0.4239
		c0.1826-0.2274,0.4349-0.8155,0.7536-1.764l2.6258-7.815c0.2346-0.6967,0.3471-1.1439,0.3378-1.3409
		c-0.0066-0.1958-0.0817-0.3857-0.221-0.5694c-0.1409-0.183-0.3301-0.3146-0.5675-0.3944
		c-0.3779-0.1265-0.8781-0.1634-1.4978-0.1078l-0.0657-0.4678l6.399-0.6715L469.7579,162.163"/>
	<path style="fill:#FFFFFF;" d="M469.1398,179.4596l0.1179-0.3066c1.3211,0.1887,2.5051,0.1755,3.5576-0.0396
		c1.0513-0.2166,1.9765-0.6271,2.776-1.2332c0.8002-0.6068,1.4977-1.3902,2.0944-2.3524c-0.5429,0.0603-0.991,0.0743-1.3436,0.0436
		c-0.3543-0.0312-0.7041-0.114-1.0553-0.2487c-1.1252-0.4333-1.9056-1.1989-2.3428-2.2981c-0.436-1.0979-0.3834-2.3532,0.1595-3.763
		c0.3768-0.9782,0.9226-1.7971,1.6427-2.4552c0.7188-0.6586,1.5409-1.0673,2.4661-1.2269c0.9252-0.1596,1.7928-0.0841,2.604,0.2276
		c0.8688,0.3352,1.5958,0.8991,2.1778,1.6944c0.5834,0.7952,0.924,1.7512,1.0218,2.8718c0.0965,1.1181-0.0857,2.2809-0.5497,3.4855
		c-0.6021,1.5631-1.553,2.9164-2.8522,4.0596c-1.2992,1.1432-2.8577,1.8629-4.6731,2.1582
		C473.1251,180.3704,471.1915,180.1657,469.1398,179.4596 M478.2034,174.6706c0.3889-0.789,0.701-1.4951,0.9411-2.1151
		c0.511-1.3296,0.8325-2.627,0.968-3.8922c0.07-0.7018-0.0093-1.2694-0.2386-1.7009c-0.119-0.2305-0.3257-0.4022-0.6193-0.5151
		c-0.3635-0.1405-0.7095-0.093-1.0353,0.1417c-0.4507,0.3218-0.9093,1.0888-1.3759,2.3012
		c-0.7777,2.0231-1.0739,3.5107-0.8864,4.4631c0.1222,0.6174,0.4508,1.0285,0.9829,1.2343
		C477.2256,174.6967,477.6467,174.7251,478.2034,174.6706z"/>
	<path style="fill:#FFFFFF;" d="M493.1786,180.3537c-0.6341,1.4569-1.4304,2.7273-2.3895,3.8129
		c-0.5819,0.6675-1.1868,1.1603-1.8154,1.4764c-0.6261,0.3149-1.2673,0.5039-1.9162,0.5663
		c-0.6519,0.063-1.2848-0.0401-1.9017-0.3083c-0.7037-0.3071-1.2603-0.7629-1.6706-1.3686c-0.4118-0.6053-0.692-1.3374-0.838-2.1956
		c-0.1035-0.6248-0.0981-1.3946,0.0186-2.3093c0.1689-1.2322,0.5096-2.433,1.019-3.6034c0.6893-1.585,1.5476-2.9454,2.5705-4.0791
		c0.8435-0.9388,1.7664-1.5386,2.7678-1.7983c1.0003-0.2601,1.9178-0.2087,2.7503,0.1535c0.8463,0.3689,1.5114,1.0018,1.9968,1.9001
		c0.4826,0.8984,0.685,1.9104,0.6045,3.0364C494.2716,177.188,493.8734,178.7605,493.1786,180.3537 M489.8732,178.8878
		c1.1117-2.5546,1.7462-4.0503,1.9015-4.4867c0.3624-1.0287,0.4842-1.7777,0.3647-2.2482c-0.0802-0.3078-0.3216-0.549-0.7224-0.7238
		c-0.3087-0.1347-0.5901-0.1542-0.8435-0.0603c-0.3757,0.1353-0.7485,0.5001-1.1187,1.094
		c-0.3686,0.5956-1.3799,2.7912-3.0345,6.5866c-0.8983,2.0671-1.4308,3.484-1.5931,4.2495
		c-0.1137,0.5562-0.1071,0.9649,0.0191,1.2249c0.1245,0.2589,0.3526,0.4604,0.6823,0.6053c0.3592,0.1556,0.6785,0.1576,0.9575,0.007
		c0.4773-0.2717,0.9199-0.8165,1.3277-1.6375L489.8732,178.8878z"/>
	<path style="fill:#FFFFFF;" d="M494.4915,190.1658l9.6467-9.9013l-2.9619-1.4454c-1.1611-0.566-2.1066-0.8403-2.8376-0.8229
		c-0.5107,0.0129-1.0404,0.2457-1.5931,0.6986l-0.4009-0.1964l3.1983-3.9355l8.5214,4.1561l-11.9166,12.2541L494.4915,190.1658"/>
	<path style="fill:#FFFFFF;" d="M201.443,272.8284c-45.7703,45.7706-70.9771,106.6255-70.9771,171.3543
		c0,64.7298,25.2068,125.585,70.9771,171.3552c45.7706,45.7715,106.6255,70.9784,171.3547,70.9784
		c64.7296,0,125.5837-25.2068,171.3551-70.9784c45.7703-45.7702,70.9784-106.6254,70.9784-171.3552
		c0-64.7288-25.2081-125.5837-70.9784-171.3543c-45.7714-45.7703-106.6255-70.9772-171.3551-70.9772
		C308.0686,201.8512,247.2136,227.0581,201.443,272.8284"/>
	<path style="fill:#FFFFFF;" d="M455.3,645.23c0,47.524,38.6633,86.1859,86.1859,86.1859c47.5225,0,86.1859-38.6618,86.1859-86.1859
		c0-47.5227-38.6634-86.1856-86.1859-86.1856C493.9633,559.0444,455.3,597.7073,455.3,645.23"/>
	<path d="M541.4859,554.2386c-50.2542,0-90.9917,40.7386-90.9917,90.9914c0,50.2529,40.7375,90.9916,90.9917,90.9916
		c50.2526,0,90.9916-40.7387,90.9916-90.9916C632.4775,594.9772,591.7385,554.2386,541.4859,554.2386 M589.8535,716.5289
		c-11.0747,7.5359-23.9893,12.5604-37.9164,14.2513c-5.2549-5.1772-10.8817-9.6572-16.0374-14.0527
		c5.1074-6.497,11.5321-16.9094,15.4194-25.7568c14.2605,0.0938,27.4663-3.9382,36.8514-10.0691
		c5.8988,5.7957,10.399,10.9849,13.6534,15.7385C598.7731,703.6424,595.2385,709.9474,589.8535,716.5289z M566.4016,562.7209
		c13.5382,4.0967,25.6775,11.4384,35.5122,21.1201l-1.2608,1.2604c-9.5902-7.1486-24.7545-13.8963-33.3623-16.2886
		c-1.2873-1.6048-2.9205-3.2729-4.5564-4.7992C563.8137,563.5541,565.0475,563.1099,566.4016,562.7209z M506.8539,586.4932
		c7.9783,0.9428,28.7388,3.3821,35.8292,4.0791c4.6988,7.9104,9.5007,21.9109,11.157,32.5525
		c-11.0818,9.1048-17.1616,16.4426-25.9445,29.0353l-34.4955-5.6146c-3.064-11.5212-6.3133-22.3683-9.2979-30.7531
		C490.3735,604.3492,499.4771,593.2744,506.8539,586.4932z M492.8209,651.3206l34.9123,5.6815
		c4.8732,12.33,10.2407,22.1348,19.0751,32.2883c-3.8619,8.7015-10.371,19.1407-15.224,25.14
		c-11.4445-2.4756-27.8469-5.5661-36.5388-7.0117c-4.0121-6.6967-12.9466-22.5289-17.0607-30.0893
		C482.9489,669.5867,488.7297,658.7385,492.8209,651.3206z M558.4392,621.5881c-1.7216-10.1226-6.0179-23.4366-10.8642-32.1597
		c5.0191-3.285,15.5602-11.7921,19.8752-15.5695c9.5933,2.9273,24.3474,10.1055,32.1371,16.5068
		c5.4656,10.6349,8.2571,20.7351,10.3372,28.601l-17.0163,17.4359C583.504,628.8611,572.3568,624.1169,558.4392,621.5881z
		 M503.9128,567.6759c-0.6851,2.34-1.5153,5.8505-1.5153,9.1504c0,2.2985,0.3607,4.7712,0.7002,6.5894
		c-7.4397,6.973-16.4075,17.9258-22.7757,29.2875c-8.9107,1.2509-15.8257,3.9382-21.3103,7.4957
		C466.0342,597.1052,482.5091,578.0882,503.9128,567.6759z M458.002,666.6795c3.9019,4.8475,9.5786,9.6078,15.2263,11.9369
		c3.9747,7.3444,13.723,24.692,17.9874,31.7495c-0.2133,1.5865-0.3032,3.076-0.2857,4.6194
		C474.9301,703.3582,463.064,686.3711,458.002,666.6795z M621.9837,676.0125c-5.0476,5.628-11.1515,11.4262-17.155,16.5568
		c-3.4272-4.7805-7.8978-9.8413-13.7643-15.5591c4.0227-11.9677,5.0939-23.343,3.9459-35.882l17.8198-18.2579
		c7.2105,7.3735,9.254,9.9429,14.7316,18.0029c0.0724,1.4445,0.1102,2.8953,0.1102,4.3568
		C627.6718,656.0715,625.6536,666.4476,621.9837,676.0125z"/>
	<path d="M554.5224,521.7756l-0.0978-0.0883l-0.1059-0.0778c-22.7504-16.8152-47.032-29.1505-72.176-36.7013
		c-8.2115-9.6548-23.2688-19.0706-39.7208-14.6833l-1.2794,0.3422l-0.4787,0.2397c0.8676-2.7998,1.79-5.652,3.0184-8.3553
		l0.0576-0.1273l0.4173-1.2393c1.9695-5.8329,4.6664-13.8195,0.1339-19.4847l0.1129,0.1513
		c-0.3636-0.5258-0.7349-1.0338-1.1051-1.5421c3.1282,0.5781,6.301,0.2655,9.4833-0.9762c0.2852-0.0844,0.5644-0.1985,0.8457-0.3017
		c0.6788-0.1837,1.3584-0.3942,2.0384-0.6586c7.7411-2.2809,13.9322-12.0147,16.0538-20.5027l0.4491-1.7994l-1.5086-1.0782
		c-6.9435-4.9602-14.5439-9.5166-23.119-10.021c-1.6211-2.4659-2.4712-4.9748-2.4712-7.6044c0-0.7445,0.0641-1.4997,0.1931-2.2669
		c1.2335-7.3607,8.5054-15.7653,21.0219-24.3257c2.7674-0.2487,7.2183,0.2815,11.768,2.1105
		c3.6739,1.4779,10.0245,4.8965,11.4099,11.1982c0.1382,0.8563,0.2078,1.7071,0.2078,2.5451c0,4.6311-1.9283,8.9134-3.7078,11.8789
		l-4.6369,7.7289l2.8831-0.9613l8.1434-3.8665c3.0563-1.4507,6.1148-2.6169,9.073-3.7441
		c7.4821-2.8526,14.5638-5.5928,20.7495-12.3194c0.1865-0.0063,0.3635-0.0137,0.5671-0.0137h3.5163l2.8826-0.9613l-0.8769-3.4038
		c-5.227-20.2719-19.9207-35.9123-34.1307-51.0388c0,0-0.4745-0.5049-0.9494-1.0109c1.1089-1.3067,3.013-3.5536,3.013-6.731
		c0-1.5783-0.469-3.3859-1.7418-5.4219c-5.2752-8.4401-10.5345-14.9601-15.9946-20.0274
		c4.3753-6.2698,6.6403-13.4918,6.6403-20.8612c0-4.8393-0.968-9.7385-2.9368-14.4637l-1.1073-2.6592l-2.5934,1.2552
		c-0.0471,0.0227-0.0955,0.0418-0.141,0.0631l-0.1502-0.3569l-2.593,1.2553c-1.5059,0.7282-3.0481,1.3684-4.6154,1.9395
		c-11.4921,3.4257-24.3047,2.8013-36.8531-1.9174c-14.4591-5.4367-27.5052-15.9482-35.7916-28.8402l-1.8901-2.9387l-2.883,0.961
		l-2.3907,2.5497c-6.5359,6.9716-14.6023,12.1724-23.4514,15.3598c-8.5861,2.6207-17.8131,3.3871-27.0409,2.0685l-8.0909-1.1561
		l-2.8838,0.9613l5.7793,5.7793c1.4475,1.4471,3.4583,2.5125,5.5869,3.642c3.5035,1.8566,5.2177,3.0205,5.7354,4.2115
		c-8.8573,0.0268-17.9264,0.1958-27.0343,1.3342c-9.9562,1.2436-19.657,3.501-28.5333,6.5783
		c-7.6274,2.444-14.714,5.4832-20.8996,9.0177l-4.0706,2.3252c0.0464-2.0488,0.0677-4.095,0.0677-6.1381
		c0-3.4945-0.0521-6.977-0.1051-10.4345l-0.1067-10.5403c0-20.488-11.2183-39.4477-29.2759-49.4805
		c-0.0751-0.0401-16.9754-8.5942-16.9754-8.5942c-25.8666-12.976-50.2986-25.2314-72.9614-43.9872
		c-31.7106-27.1815-57.427-59.9974-78.5816-100.2908L66.5926,50l-1.9221,0.961l-2.6184,2.618
		c-1.2034,1.2042-3.2411,4.0697-3.2411,7.1734v0.1557l-0.5234-0.9832l-1.9228,0.9613l-1.3577,7.8084
		c-1.3343,7.6728-2.0041,14.948-2.0041,21.8587c0,5.0351,0.3834,9.8619,1.1089,14.5136l-3.5214-6.1642l-1.9229,0.9613l-0.4269,9.384
		c-0.0814,1.802-0.123,3.6077-0.123,5.4157c0,14.4891,2.6608,29.0529,7.6261,42.5759c-1.3062,0.2483-2.7001,0.5119-2.7001,0.5119
		l-1.9224,0.9614c0,26.2453,2.5868,56.2086,21.7703,79.4293c17.329,20.218,39.6431,30.1684,61.2625,38.3702
		c-0.1752,0.6049-0.3815,1.3222-0.3815,1.3222c-3.0574,10.5271-6.2,21.3496-6.2,32.4669c0,2.3878,0.1451,4.7899,0.4674,7.2053
		c2.2968,17.2297,7.0439,30.1568,14.9387,40.6826l0.0677,0.0912l0.0751,0.0844c4.1014,4.6136,8.909,7.6499,13.558,10.5859
		c4.438,2.8032,8.6266,5.4711,12.1705,9.3765c0.0798,0.167,0.1708,0.3663,0.2596,0.5567c-0.7034-0.13-1.4067-0.2678-2.1202-0.411
		c-4.4426-0.8918-9.0359-1.8143-14.7327-0.5484c-3.4303,0.6849-6.4713-0.5575-10.3212-2.1315l-4.287-1.7391l-0.7267,0.3632
		c-6.5823,22.3646-9.9974,45.8018-9.9974,69.7654c0,18.1643,1.9618,36.0267,5.7746,53.349l0.1093-0.0053
		c20.9024-1.1223,42.3018,9.0098,65.4214,30.973c16.5203,16.5215,42.0623,16.6894,55.8136,15.3134
		c3.5965-0.3257,6.6861-1.4456,9.4772-2.9888c4.3451-1.9753,7.9396-5.0553,11.4508-8.075c1.1711-1.0084,2.3883-2.0021,3.6237-2.9796
		c2.8115,3.9558,3.665,8.8017,3.665,13.7095c0,2.2731-0.181,4.5552-0.4231,6.7652c-0.9657,4.2679-2.7215,8.1622-4.4251,11.9276
		c-1.5589,3.4448-3.1641,7.0062-4.1301,10.7945c-2.3303,7.0104-3.1392,14.0115-3.1392,20.96c0,7.9169,1.0468,15.7626,2.0738,23.469
		l-0.0121-0.1125c1.0077,11.0842,6.011,21.0916,10.8494,30.7678l0.0464,0.0939l0.0545,0.0895
		c3.011,5.0194,6.7601,9.2674,10.3854,13.3758c3.6217,4.106,7.043,7.9838,9.7995,12.5753l0.0328,0.0565l0.0361,0.0536
		c2.3012,3.4517,5.7513,5.7727,10.257,6.8991c3.8074,1.0887,7.7371,2.6082,11.5379,4.0764
		c9.3062,3.5939,18.9279,7.3055,29.6589,5.9339c4.0785-0.0231,7.8404-0.8556,11.4776-1.6628
		c3.4409-0.7644,6.7014-1.4736,10.1192-1.5207c0.5178,0.1595,2.9193,0.9023,2.9193,0.9023c3.4793,1.1626,7.339,2.4152,9.4385,0.4052
		c0.9512-0.1854,1.769-0.6356,2.3739-1.4752c2.4525-2.5331,3.3867-5.5555,3.3867-8.6596c0-7.1808-4.8836-14.7732-6.9065-17.6052
		l-0.059-0.0817l-0.0651-0.0778c-7.2684-8.7242-16.6866-13.8047-25.7942-18.7166c-3.4501-1.8627-7.0181-3.7867-10.4352-5.8894
		l-0.1042-0.0618c-8.3727-4.6517-15.3895-6.4083-23.2265-7.8041c6.5565-23.7991,10.7843-49.7969,12.8648-79.3632
		c6.5533-9.4229,13.858-18.8227,24.4467-24.5109c2.036-0.9695,4.1765-1.8212,6.4648-2.4969
		c7.855-1.9562,15.7672-2.5479,23.4179-3.1178l9.5958-0.8073c3.886-0.402,7.8001-1.1342,11.5858-1.8411
		c3.8203-0.7145,7.7717-1.4533,11.655-1.8422c11.4262-0.8785,24.3019,1.4144,40.4573,7.2233
		c12.9898,4.668,24.0338,10.3201,26.2582,13.4362c1.6402,2.1871,3.139,5.0768,4.7241,8.1369
		c3.9787,7.6729,8.4868,16.3687,17.1911,17.9514c11.965,1.8421,25.3381,3.8763,37.18-2.5452
		c0.7803-0.3609,1.5553-0.7563,2.3237-1.1857c0.3004,0.137,0.7601,0.5325,1.6491,1.3936c0.7941,0.7695,1.6951,1.6425,2.8391,2.4042
		l3.5532,2.3693l1.9232-0.96l0.6489-4.2238c0.3537-2.3012,0.5281-4.605,0.5281-6.887
		C567.2933,540.3099,562.6768,529.1162,554.5224,521.7756 M467.5751,315.1648c1.8613,2.5231,8.7698,10.5727,12.374,14.3576
		c0,0.5402-1.7418,1.9219-3.1227,1.9219c-2.5089,0-7.0213-4.1768-9.0115-8.8304c-0.7279-1.7013-0.7212-3.5595-0.7212-5.1666
		C467.0937,315.4654,467.3338,315.1648,467.5751,315.1648z M281.4289,309.1909c-10.0196,3.1076-19.9873,8.4471-24.0034,19.3269
		c-0.3278,0.1277-0.6598,0.2903-0.9925,0.4935c-0.3492,0.0463-0.7392,0.1141-1.1526,0.2246
		c1.8092-3.2003,3.4458-6.5651,4.8658-10.1161c4.4699-11.7328,5.7867-23.8095,6.091-35.813l4.3093,1.9579
		c7.093,3.2243,18.8262,10.0417,22.1382,20.7887C289.0582,306.8545,285.2008,307.8393,281.4289,309.1909z"/>
	<path style="fill:#B09F30;" d="M490.222,329.6422c-1.9215-1.9224,6.3277-4.4854,1.9228-11.534
		c-4.8057-7.6896-10.573-15.3793-17.3019-21.1457c8.0106-10.0129,9.6119-23.0689,4.8058-34.6029
		c-29.7955,14.4179-66.3212-1.9223-83.6216-28.8353c-14.4178,15.3789-35.5635,22.1072-55.7486,19.2234
		c3.8445,3.8451,15.3792,5.7677,11.534,13.4572c-10.5726,0-21.0562-0.0117-31.7191,1.3214
		c-15.3784,1.9221-32.0791,6.608-45.5355,14.2975c10.5726,4.8059,22.4675,13.2164,24.3894,25.711
		c-14.4174,2.8838-31.7191,6.729-36.5248,22.1074c-0.9606,1.9224-3.8445,0-5.7668,2.8839
		c-13.4568,20.1851-31.7191,35.5635-53.8261,45.175c15.3792,9.6121,30.7576,23.0689,49.9812,23.0689
		c13.4569-9.612,29.7968-27.8747,47.098-16.3407c-6.7278,6.7287-11.534,14.4179-20.1851,20.1851
		c-15.3784,9.6117-32.4395,9.3719-48.7797,5.5275c18.2623,24.0294,49.7412,39.6484,80.4989,37.7256
		c14.4178-0.9615,24.9912-10.5734,35.5635-20.1851c1.9223,2.8842,7.6896,5.7672,6.7281,7.6904
		c-9.6115,15.3777-27.8738,21.1449-44.2136,26.9125c24.0294,26.9125,68.2431,20.1851,90.3506-5.7677
		c-0.9606,14.4178-8.0496,29.4363-17.6613,40.0097c14.4174,4.8058,30.1559,3.2434,43.6136-5.4068
		c10.5719-7.6889,10.5719-19.2236,15.378-29.7967c1.9228-5.7675,4.8059-13.2162,0.9615-18.0224
		c-8.6507-12.4946-19.2238-21.3863-22.1068-36.7643c-3.8445-16.3406,0.9615-31.7195-6.729-46.1374
		c-8.6502-17.3008-21.1457-32.68-38.4465-43.2531c-0.9615-0.9609,0-1.9224,0.9611-1.9224
		c17.3013,2.8838,27.8738,16.3402,37.4855,30.7577c3.8449,7.6897,6.729,14.4178,9.6119,23.0689
		c2.8843,14.4178-1.9215,28.8352,2.8843,43.2524c3.8444,11.5347,14.5774,29.1571,28.9952,23.3899
		c6.7287-1.9228,12.3351-10.8937,14.2579-18.5842c-6.7285-4.8058-14.4174-9.6117-23.0692-9.6117
		c-11.5333-15.3785,6.7648-30.9749,19.2236-39.4078c5.2067-3.5249,26.9136,0.9613,29.7967,14.4174
		c0.9613,5.7676-0.9614,11.534-3.8444,16.3402c11.1339-5.2861,21.6267-6.6472,29.9578-16.5002
		c0.6196-0.7341,3.5225-0.8007,4.4839-0.8007C520.3395,361.0414,504.6399,345.0216,490.222,329.6422 M477.0957,333.5773
		c-1.7715,0-12.3449-7.479-12.3449-14.4482c0-1.201,2.3428-7.9896,2.8242-7.9896c0.4799,0,14.057,17.9021,14.057,17.9021
		S478.0878,333.5773,477.0957,333.5773z"/>
	<path style="fill:#B09F30;" d="M552.6987,523.8004c-22.1066-16.3391-46.1361-28.8353-72.0884-36.5241
		c-8.6506-10.5734-23.0681-18.2623-37.4859-14.4179c-11.5348,26.9125-45.9773,38.7665-70.9674,26.2719
		c10.5727-7.6892,17.9424-17.6212,22.7481-30.1162c-25.9518,26.9125-72.889,15.3778-95.9579-8.6517
		c8.33-0.9598,15.3793-2.883,23.0689-6.7275c7.6889-3.8444,20.0243-8.9706,25.1497-16.9813
		c-12.4955,10.5729-32.8393,18.903-49.1791,16.9813c-20.1851-2.8842-37.4868-12.4962-54.788-24.0295
		c-9.6117-7.69-20.1842-14.7382-23.0681-27.2328c11.0533,3.363,21.146,6.0864,32.68,4.1648
		c14.4174-1.9228,30.9178-6.8889,37.6459-19.5452c-15.3792,9.6117-33.801,19.5452-52.0637,16.661
		c-18.2622-2.883-31.5587-12.8153-45.1755-26.9124c26.9133-12.4955,52.8652-29.7971,64.3992-58.6324
		c7.6896-20.1851,5.7672-41.3307,5.7672-62.4767c0-19.2237-10.5731-37.4859-27.874-47.0975
		c-31.7191-16.3406-62.4767-29.7968-90.3514-52.8648c-33.6412-28.8357-59.0722-62.6772-79.2573-101.1245
		c-0.852,0.8513-2.4432,3.0835-2.4432,5.2465c18.2631,57.6706,66.322,92.9943,110.5358,132.4023c0.9617,0-4.8059,1.9227-6.7278,0
		c-24.0295-24.0295-35.5636-30.7578-54.7872-46.1361c-11.534-9.6117-20.1851-20.1851-28.8357-33.6412
		C73.0701,97.9982,67.3033,82.619,59.6136,68.2011c-3.8451,22.1075-2.8834,44.2148,9.6121,64.3991
		c13.456,22.1071,27.8738,40.3693,49.0195,55.7486c11.5349,7.6896,23.0689,11.534,34.6029,19.2236
		c3.8445,2.8838,6.7283,6.7282,9.6117,10.5731c-9.6117,0-16.3399-6.7286-24.0295-10.5731
		c-8.6502-4.8058-16.3398-10.5734-24.0295-17.3013c-13.456-12.4957-25.9515-24.0298-37.4855-38.4472
		c-9.6119-13.4565-16.3406-29.9571-24.0295-43.4135c-0.9617,21.1459,3.8444,43.4135,14.4176,62.6371
		c9.6119,15.3789,22.1066,27.8746,35.5634,39.4087c12.4955,10.5723,27.874,14.4174,40.3697,24.0295
		c3.8445,2.8834,7.6893,4.8058,10.5731,8.6502c-16.3407-2.8838-29.7967-10.5725-43.2531-20.1842
		c-23.0689-18.2631-44.2146-38.287-54.788-65.2002c0,26.9132,2.8838,55.5881,21.1468,77.6949
		c17.3004,20.185,39.408,29.797,62.4767,38.4472c-3.8451,13.457-8.6513,27.8748-6.7289,42.2922
		c1.9228,14.4179,5.7672,27.8743,14.4178,39.4083c7.6896,8.651,18.2627,11.5344,25.9523,20.1851
		c0.9606,1.9219,2.883,6.5679,2.883,6.5679c-8.5479,0-14.4179-3.6845-23.0681-1.7622c-4.7253,0.9439-8.5229-0.8972-13.2162-2.7872
		c-5.4536,19.2662-8.5257,39.3212-9.0679,59.8052c-0.0954,5.6586-0.0331,11.3253,0.1767,16.9937
		c18.263-7.6904,34.6029,5.7657,43.2531,20.1835c0,0.9613-1.9221,0.9613-2.8834,0.9613
		c-13.3814-4.7788-24.8637-20.0052-40.114-15.4473c0.7396,11.3441,2.2595,22.5368,4.5329,33.5177
		c25.012-0.9505,47.5145,13.7152,66.4996,31.7506c13.4564,13.4565,34.4417,16.5003,53.6653,14.5786
		c10.5735-0.9614,16.3399-9.6116,24.991-15.3788c6.7281,6.7286,6.7281,16.3406,5.7668,24.991
		c-1.9221,8.6501-6.7283,15.3792-8.6502,23.0681c-4.8059,14.4174-2.8839,28.8353-0.9615,43.2531
		c0.9615,10.573,5.7672,20.1851,10.573,29.7966c5.7676,9.6121,14.4178,16.3395,20.1851,25.9512
		c1.9225,2.8845,4.8062,4.8058,8.6506,5.7675c13.4561,3.8444,25.9514,11.8537,40.3693,9.932c7.6897,0,14.4178-3.2033,22.1071-3.2033
		c3.8448,0.9613,9.4524,3.6848,10.4138,1.762c5.7668-5.766,1.1202-16.1798-3.6857-22.9085
		c-9.6115-11.5332-23.0681-16.3394-35.5634-24.0294c-8.6502-4.8059-15.6997-6.4083-25.3109-8.0096
		c7.6897-26.9125,11.6937-54.6283,13.6161-82.5023c8.651-12.4947,18.4229-24.8301,34.7628-29.6359
		c11.3569-2.8387,22.3788-2.8588,33.4609-4.0051c7.6756-0.7941,15.3819-2.8978,23.249-3.6837
		c13.9539-1.0743,28.5071,2.6443,41.6512,7.3686c10.3974,3.7384,24.3497,9.9323,27.553,14.4174
		c5.7677,7.6904,9.6121,23.0696,20.1851,24.9913c12.4963,1.9228,26.2731,4.004,37.8062-3.6849
		c2.8846-0.9617,4.3259,2.2431,7.209,4.1663C565.9953,546.0682,562.3104,532.451,552.6987,523.8004 M239.3543,518.7548
		c-12.2549,0-28.8353-17.0607-28.8353-30.6378c-6.1277-1.2016-19.9445-5.6465-19.9445-5.6465s14.057,0.119,25.7117,3.1227
		c0,20.7861,7.4483,26.1392,23.5488,28.5955L239.3543,518.7548z"/>
</g>
<g>
</g>
<g>
</g>
<g>
</g>
<g>
</g>
<g>
</g>
<g>
</g>
<g>
</g>
<g>
</g>
<g>
</g>
<g>
</g>
<g>
</g>
<g>
</g>
<g>
</g>
<g>
</g>
<g>
</g>
</svg>
