<?xml version="1.0" encoding="utf-8"?>
<!-- Created by @FCLOGO 2024-9-16 GMT+8 16:45:56 . https://fclogo.top/ -->
<!-- FOR PERSONAL USE ONLY NOT FOR COMMERCIAL USE -->
<!-- Created by @FCLOGO 2024-9-16 GMT+8 16:45:56 . https://fclogo.top/ -->
<!-- FOR PERSONAL USE ONLY NOT FOR COMMERCIAL USE -->
<svg version="1.1" xmlns="http://www.w3.org/2000/svg" xmlns:xlink="http://www.w3.org/1999/xlink" x="0px" y="0px"
	 viewBox="0 0 800 800" style="enable-background:new 0 0 800 800;" xml:space="preserve">
<path style="fill:#CCCCCC;" d="M348.22,774.3c-0.79,0-1.38-0.22-1.77-0.65c-0.39-0.44-0.53-1.03-0.41-1.79l0.25-1.65
	c0.12-0.75,0.45-1.35,0.98-1.78c0.53-0.44,1.19-0.65,1.98-0.65c0.76,0,1.33,0.2,1.72,0.6c0.39,0.4,0.55,0.94,0.47,1.62h-1.24
	c0.03-0.36-0.06-0.64-0.26-0.84c-0.2-0.2-0.5-0.3-0.89-0.3c-0.42,0-0.76,0.12-1.03,0.35c-0.27,0.23-0.43,0.56-0.5,0.99l-0.26,1.66
	c-0.07,0.44-0.01,0.77,0.19,1c0.19,0.23,0.5,0.35,0.92,0.35c0.39,0,0.72-0.1,0.98-0.3c0.26-0.2,0.44-0.48,0.52-0.85h1.24
	c-0.14,0.69-0.47,1.23-0.99,1.63C349.61,774.1,348.97,774.3,348.22,774.3z M352.8,774.19l1-6.29h1.19l-0.19,1.19
	c0.34-0.87,0.97-1.3,1.91-1.3c0.67,0,1.17,0.21,1.49,0.62c0.32,0.42,0.43,0.99,0.31,1.71l-0.07,0.42h-1.27l0.06-0.32
	c0.07-0.45,0.01-0.8-0.17-1.04c-0.18-0.24-0.48-0.36-0.88-0.36c-0.4,0-0.74,0.12-1.01,0.37c-0.27,0.24-0.43,0.59-0.5,1.03
	l-0.63,3.97H352.8z M361.91,774.3c-0.77,0-1.35-0.22-1.73-0.67c-0.38-0.45-0.51-1.04-0.4-1.77l0.25-1.65
	c0.08-0.49,0.26-0.92,0.52-1.28c0.26-0.37,0.6-0.65,1.01-0.85c0.41-0.2,0.87-0.3,1.38-0.3c0.77,0,1.35,0.22,1.73,0.67
	c0.39,0.45,0.52,1.04,0.39,1.77l-0.17,1.12h-3.85l-0.09,0.53c-0.15,0.95,0.22,1.43,1.11,1.43c0.72,0,1.17-0.25,1.37-0.74h1.22
	c-0.17,0.53-0.5,0.96-1.01,1.28C363.16,774.14,362.58,774.3,361.91,774.3z M361.23,770.22l-0.05,0.29l2.65-0.01l0.05-0.29
	c0.07-0.47,0.01-0.82-0.17-1.07c-0.18-0.25-0.49-0.37-0.92-0.37c-0.44,0-0.8,0.13-1.06,0.38
	C361.48,769.39,361.31,769.75,361.23,770.22z M368.33,774.3c-0.63,0-1.1-0.21-1.41-0.64c-0.31-0.42-0.4-1-0.27-1.73l0.27-1.77
	c0.11-0.73,0.39-1.31,0.84-1.74c0.44-0.43,0.98-0.64,1.61-0.64c0.47,0,0.83,0.12,1.09,0.35c0.26,0.24,0.39,0.56,0.38,0.96h0.02
	l0.17-1.2h1.24l-1,6.29h-1.22l0.19-1.2h-0.02c-0.12,0.41-0.35,0.73-0.69,0.97C369.2,774.18,368.8,774.3,368.33,774.3z
	 M368.93,773.23c0.39,0,0.72-0.12,0.98-0.36c0.26-0.24,0.43-0.57,0.5-1.01l0.25-1.65c0.07-0.43,0.01-0.76-0.18-1
	c-0.19-0.24-0.47-0.36-0.86-0.36c-0.4,0-0.72,0.12-0.98,0.35c-0.26,0.24-0.42,0.57-0.49,1.01l-0.25,1.65
	c-0.07,0.44-0.01,0.78,0.17,1.01C368.24,773.11,368.53,773.23,368.93,773.23z M376.35,774.19c-0.57,0-0.99-0.16-1.26-0.47
	c-0.27-0.31-0.36-0.75-0.27-1.32l0.54-3.39h-1.74l0.17-1.12h1.74l0.27-1.72h1.24l-0.27,1.72h2.47l-0.18,1.12h-2.46l-0.54,3.39
	c-0.08,0.44,0.1,0.66,0.53,0.66h1.72l-0.17,1.12H376.35z M382.5,774.3c-0.77,0-1.35-0.22-1.73-0.67c-0.38-0.45-0.52-1.04-0.4-1.77
	l0.25-1.65c0.08-0.49,0.26-0.92,0.52-1.28c0.26-0.37,0.6-0.65,1.01-0.85c0.41-0.2,0.87-0.3,1.38-0.3c0.77,0,1.35,0.22,1.73,0.67
	c0.39,0.45,0.52,1.04,0.39,1.77l-0.17,1.12h-3.85l-0.09,0.53c-0.15,0.95,0.22,1.43,1.11,1.43c0.72,0,1.17-0.25,1.37-0.74h1.22
	c-0.17,0.53-0.5,0.96-1.01,1.28C383.76,774.14,383.18,774.3,382.5,774.3z M381.83,770.22l-0.05,0.29l2.65-0.01l0.05-0.29
	c0.07-0.47,0.01-0.82-0.17-1.07c-0.18-0.25-0.49-0.37-0.92-0.37c-0.44,0-0.8,0.13-1.06,0.38
	C382.08,769.39,381.91,769.75,381.83,770.22z M388.92,774.3c-0.63,0-1.1-0.21-1.4-0.64c-0.3-0.42-0.39-1-0.28-1.73l0.27-1.77
	c0.11-0.73,0.39-1.31,0.84-1.74c0.44-0.43,0.98-0.64,1.61-0.64c0.47,0,0.83,0.12,1.09,0.35c0.26,0.24,0.39,0.56,0.38,0.96h0.02
	l0.21-1.47l0.3-1.8h1.24l-1.33,8.35h-1.22l0.19-1.2h-0.02c-0.12,0.41-0.35,0.73-0.69,0.97C389.8,774.18,389.4,774.3,388.92,774.3z
	 M389.53,773.23c0.39,0,0.72-0.12,0.98-0.36c0.26-0.24,0.43-0.57,0.5-1.01l0.25-1.65c0.08-0.43,0.02-0.76-0.17-1
	c-0.19-0.24-0.48-0.36-0.87-0.36c-0.4,0-0.72,0.12-0.98,0.35c-0.26,0.24-0.42,0.57-0.49,1.01l-0.25,1.65
	c-0.08,0.44-0.02,0.78,0.16,1.01C388.83,773.11,389.13,773.23,389.53,773.23z M401.02,774.3c-0.47,0-0.84-0.12-1.1-0.35
	c-0.26-0.23-0.39-0.56-0.38-0.97h-0.01l-0.19,1.2h-1.22l1.33-8.35h1.24l-0.29,1.8l-0.27,1.47h0.05c0.12-0.41,0.35-0.73,0.69-0.97
	c0.34-0.23,0.74-0.35,1.21-0.35c0.63,0,1.1,0.21,1.4,0.64c0.3,0.43,0.39,1.01,0.28,1.74l-0.27,1.77c-0.11,0.73-0.39,1.31-0.84,1.73
	C402.18,774.09,401.64,774.3,401.02,774.3z M400.77,773.23c0.4,0,0.72-0.12,0.98-0.35c0.26-0.23,0.42-0.57,0.5-1.01l0.25-1.65
	c0.07-0.43,0.01-0.77-0.17-1.01c-0.18-0.24-0.47-0.35-0.87-0.35c-0.39,0-0.72,0.12-0.98,0.36c-0.26,0.24-0.43,0.57-0.5,1l-0.25,1.65
	c-0.07,0.44-0.01,0.77,0.17,1.01C400.08,773.11,400.37,773.23,400.77,773.23z M405.47,776.25l0.17-1.06h1.93
	c0.64,0,1.01-0.3,1.1-0.9l0.1-0.67l0.21-1.19h-0.03c-0.12,0.42-0.35,0.74-0.68,0.97c-0.33,0.23-0.73,0.34-1.2,0.34
	c-0.63,0-1.09-0.2-1.4-0.6c-0.31-0.4-0.41-0.94-0.3-1.63l0.58-3.6h1.24l-0.56,3.48c-0.06,0.41,0,0.73,0.18,0.96
	c0.18,0.23,0.47,0.34,0.85,0.34c0.39,0,0.72-0.12,0.98-0.37c0.27-0.24,0.43-0.58,0.49-1.02l0.54-3.4h1.24l-1.01,6.41
	c-0.1,0.6-0.37,1.08-0.81,1.42c-0.44,0.35-1,0.52-1.67,0.52H405.47z M417.79,770.09h3.22l0.54-1.85h-5.47l-1.71,6.44h2.15l0.59-2.1
	h3.03l0.44-1.71h-3.03L417.79,770.09z M424.23,772.92c-0.59,0-1.02-0.39-1.02-1.12c0-0.88,0.63-1.76,1.61-1.76
	c0.49,0,0.88,0.24,1.02,0.78l1.95-0.83c-0.29-1.17-1.27-1.9-2.64-1.9c-2.78,0-4.15,2.15-4.15,3.9c0,1.76,1.27,2.83,3.07,2.83
	c1.37,0,2.34-0.59,2.98-1.42l-1.51-1.17C425.16,772.67,424.72,772.92,424.23,772.92z M430.91,768.23h-2.15l-1.76,6.44h5.12
	l0.49-1.85h-2.93L430.91,768.23z M439.75,771.01c0-1.66-1.32-2.93-3.22-2.93c-2.2,0-3.81,1.81-3.81,3.81c0,1.66,1.32,2.93,3.22,2.93
	C438.14,774.82,439.75,773.01,439.75,771.01z M434.92,771.7c0-0.83,0.59-1.71,1.51-1.71c0.78,0,1.17,0.54,1.17,1.22
	c0,0.83-0.59,1.71-1.51,1.71C435.31,772.92,434.92,772.38,434.92,771.7z M443.21,772.23h1.07l-0.2,0.68
	c-0.15,0.05-0.34,0.1-0.59,0.1c-0.68,0-1.27-0.39-1.27-1.22c0-1.02,0.73-1.9,1.95-1.9c0.59,0,1.12,0.24,1.51,0.59l1.37-1.37
	c-0.44-0.54-1.51-1.07-2.73-1.07c-2.59,0-4.29,1.76-4.29,3.86c0,2.05,1.61,2.88,3.22,2.88c0.93,0,1.85-0.29,2.49-0.68l0.93-3.32
	h-3.12L443.21,772.23z M450.78,768.08c-2.2,0-3.81,1.81-3.81,3.81c0,1.66,1.32,2.93,3.22,2.93c2.2,0,3.81-1.81,3.81-3.81
	C454,769.35,452.68,768.08,450.78,768.08z M450.34,772.92c-0.78,0-1.17-0.54-1.17-1.22c0-0.83,0.59-1.71,1.51-1.71
	c0.78,0,1.17,0.54,1.17,1.22C451.85,772.04,451.27,772.92,450.34,772.92z M437.94,767.5c-0.05,0.29,0.1,0.49,0.44,0.49
	s0.54-0.2,0.63-0.49c0.05-0.24-0.1-0.49-0.44-0.49C438.24,767.01,437.99,767.25,437.94,767.5z M432.13,765.5
	c-0.44,0-0.73,0.24-0.78,0.59c-0.05,0.34,0.1,0.59,0.54,0.59s0.73-0.24,0.78-0.59C432.77,765.74,432.57,765.5,432.13,765.5z
	 M433.01,767.3c-0.1,0.54,0.15,0.88,0.83,0.88c0.63,0,1.07-0.39,1.17-0.88s-0.15-0.88-0.83-0.88
	C433.5,766.43,433.11,766.82,433.01,767.3z M439.6,777.55l-2.44-1.81h-1.51l4.25,3.17l1.61-3.17h-0.98L439.6,777.55z M425.84,767.16
	l-2-1.46l23.13-2.78l-2.15,4.25h1.02l2.68-5.32l-26.99,3.22l2.78,2.1H425.84z M338.72,785.79l0.61-3.83h2.32l-0.08,0.52h-1.76
	l-0.18,1.14h1.63l-0.08,0.52h-1.62l-0.26,1.64H338.72z M342.97,785.84c-0.36,0-0.62-0.1-0.8-0.3c-0.17-0.2-0.23-0.47-0.18-0.82
	l0.27-1.7c0.06-0.34,0.2-0.61,0.44-0.82c0.24-0.2,0.54-0.3,0.89-0.3c0.36,0,0.62,0.1,0.8,0.3c0.17,0.2,0.24,0.47,0.18,0.81
	l-0.27,1.71c-0.06,0.34-0.2,0.62-0.44,0.82C343.63,785.74,343.33,785.84,342.97,785.84z M343.05,785.33c0.19,0,0.35-0.05,0.47-0.16
	c0.12-0.11,0.19-0.26,0.23-0.46l0.27-1.7c0.03-0.2,0.01-0.35-0.08-0.46c-0.08-0.11-0.22-0.16-0.41-0.16s-0.35,0.05-0.46,0.16
	c-0.12,0.1-0.19,0.26-0.22,0.46l-0.27,1.7c-0.03,0.2-0.01,0.35,0.08,0.46C342.72,785.28,342.86,785.33,343.05,785.33z M345,785.79
	l0.61-3.83h1.2c0.24,0,0.44,0.05,0.6,0.14c0.16,0.09,0.28,0.22,0.36,0.39c0.07,0.17,0.09,0.37,0.05,0.59
	c-0.04,0.26-0.14,0.48-0.3,0.67c-0.16,0.19-0.37,0.32-0.6,0.39l0.54,1.64h-0.62l-0.48-1.57h-0.54l-0.25,1.57H345z M345.89,783.71
	h0.64c0.19,0,0.35-0.06,0.48-0.17c0.13-0.11,0.21-0.26,0.24-0.45c0.03-0.19,0-0.35-0.09-0.46c-0.09-0.11-0.24-0.17-0.43-0.17h-0.64
	L345.89,783.71z M349.54,785.79l0.61-3.83h1.25c0.37,0,0.65,0.1,0.84,0.31c0.19,0.21,0.26,0.49,0.2,0.84
	c-0.04,0.23-0.12,0.44-0.25,0.61s-0.29,0.31-0.49,0.4c-0.2,0.09-0.42,0.14-0.66,0.14h-0.69l-0.24,1.52H349.54z M350.43,783.75h0.69
	c0.19,0,0.36-0.06,0.49-0.18c0.14-0.12,0.22-0.27,0.25-0.47c0.03-0.2,0-0.35-0.1-0.47c-0.1-0.12-0.25-0.18-0.44-0.18h-0.69
	L350.43,783.75z M352.75,785.79l0.61-3.83h2.25l-0.08,0.5h-1.7l-0.17,1.09h1.51l-0.08,0.5h-1.51l-0.19,1.24h1.69l-0.08,0.5H352.75z
	 M355.84,785.79l0.61-3.83h1.2c0.24,0,0.44,0.05,0.6,0.14c0.16,0.09,0.28,0.22,0.36,0.39c0.07,0.17,0.09,0.37,0.05,0.59
	c-0.04,0.26-0.14,0.48-0.3,0.67c-0.16,0.19-0.37,0.32-0.6,0.39l0.54,1.64h-0.62l-0.48-1.57h-0.54l-0.25,1.57H355.84z M356.74,783.71
	h0.64c0.19,0,0.35-0.06,0.48-0.17c0.13-0.11,0.21-0.26,0.24-0.45c0.03-0.19,0-0.35-0.09-0.46c-0.09-0.11-0.24-0.17-0.43-0.17h-0.64
	L356.74,783.71z M360.13,785.84c-0.39,0-0.67-0.1-0.87-0.29c-0.19-0.19-0.26-0.45-0.22-0.78h0.57c-0.03,0.17,0.01,0.31,0.12,0.41
	c0.11,0.1,0.27,0.15,0.48,0.15c0.2,0,0.37-0.05,0.5-0.15c0.13-0.1,0.21-0.23,0.24-0.4c0.02-0.15,0-0.28-0.06-0.39
	c-0.06-0.11-0.16-0.18-0.29-0.22l-0.46-0.14c-0.27-0.08-0.46-0.22-0.59-0.41c-0.13-0.19-0.17-0.42-0.13-0.68
	c0.04-0.21,0.11-0.39,0.23-0.55c0.12-0.16,0.27-0.28,0.46-0.37c0.19-0.09,0.4-0.13,0.64-0.13c0.35,0,0.62,0.1,0.8,0.29
	c0.18,0.19,0.25,0.44,0.2,0.76h-0.57c0.03-0.17,0-0.3-0.09-0.4c-0.09-0.1-0.23-0.14-0.42-0.14c-0.19,0-0.34,0.04-0.46,0.13
	c-0.12,0.09-0.19,0.21-0.21,0.38c-0.02,0.15-0.01,0.28,0.05,0.39c0.06,0.11,0.16,0.18,0.29,0.22l0.47,0.15
	c0.26,0.08,0.46,0.22,0.58,0.41c0.12,0.19,0.17,0.42,0.12,0.69c-0.04,0.22-0.12,0.41-0.24,0.57c-0.13,0.16-0.29,0.29-0.49,0.38
	C360.6,785.79,360.38,785.84,360.13,785.84z M363.27,785.84c-0.36,0-0.62-0.1-0.8-0.3c-0.17-0.2-0.23-0.47-0.18-0.82l0.27-1.7
	c0.06-0.34,0.2-0.61,0.44-0.82c0.24-0.2,0.54-0.3,0.89-0.3c0.36,0,0.62,0.1,0.8,0.3c0.17,0.2,0.24,0.47,0.18,0.81l-0.27,1.71
	c-0.06,0.34-0.2,0.62-0.44,0.82C363.92,785.74,363.62,785.84,363.27,785.84z M363.34,785.33c0.19,0,0.35-0.05,0.47-0.16
	c0.12-0.11,0.19-0.26,0.23-0.46l0.27-1.7c0.03-0.2,0.01-0.35-0.08-0.46c-0.08-0.11-0.22-0.16-0.41-0.16c-0.19,0-0.35,0.05-0.46,0.16
	c-0.12,0.1-0.19,0.26-0.22,0.46l-0.27,1.7c-0.03,0.2-0.01,0.35,0.08,0.46C363.02,785.28,363.15,785.33,363.34,785.33z
	 M365.28,785.79l0.61-3.83h0.71l0.62,3.19c0.01-0.1,0.02-0.22,0.03-0.36c0.01-0.14,0.03-0.29,0.04-0.44
	c0.02-0.15,0.04-0.29,0.06-0.41l0.31-1.98h0.52l-0.61,3.83h-0.71l-0.61-3.19c-0.01,0.09-0.02,0.21-0.03,0.34s-0.03,0.28-0.04,0.42
	c-0.02,0.15-0.04,0.28-0.06,0.41l-0.31,2.01H365.28z M368.23,785.79l1.59-3.83h0.75l0.37,3.83h-0.56l-0.07-0.97h-1.09l-0.39,0.97
	H368.23z M369.39,784.34h0.87l-0.09-1.1c-0.02-0.2-0.03-0.37-0.04-0.51c-0.01-0.14-0.01-0.24-0.01-0.3c-0.02,0.06-0.05,0.16-0.1,0.3
	c-0.05,0.14-0.11,0.31-0.19,0.5L369.39,784.34z M371.72,785.79l0.61-3.83h0.57l-0.52,3.31h1.67l-0.08,0.52H371.72z M376.68,785.84
	c-0.37,0-0.63-0.1-0.8-0.3c-0.17-0.2-0.22-0.48-0.17-0.82l0.44-2.76h0.57l-0.44,2.76c-0.03,0.2-0.01,0.35,0.07,0.46
	c0.08,0.11,0.21,0.17,0.41,0.17c0.19,0,0.35-0.06,0.46-0.17c0.12-0.11,0.19-0.27,0.22-0.46l0.44-2.76h0.57l-0.44,2.76
	c-0.06,0.35-0.2,0.62-0.43,0.82C377.35,785.74,377.05,785.84,376.68,785.84z M379.84,785.84c-0.39,0-0.67-0.1-0.87-0.29
	c-0.19-0.19-0.26-0.45-0.22-0.78h0.57c-0.03,0.17,0.01,0.31,0.12,0.41c0.11,0.1,0.27,0.15,0.48,0.15c0.2,0,0.37-0.05,0.5-0.15
	c0.13-0.1,0.21-0.23,0.24-0.4c0.02-0.15,0-0.28-0.06-0.39c-0.06-0.11-0.16-0.18-0.29-0.22l-0.46-0.14
	c-0.27-0.08-0.46-0.22-0.59-0.41c-0.13-0.19-0.17-0.42-0.13-0.68c0.04-0.21,0.11-0.39,0.23-0.55s0.27-0.28,0.46-0.37
	c0.19-0.09,0.4-0.13,0.64-0.13c0.35,0,0.62,0.1,0.8,0.29c0.18,0.19,0.25,0.44,0.2,0.76h-0.57c0.03-0.17,0-0.3-0.09-0.4
	c-0.09-0.1-0.23-0.14-0.42-0.14c-0.19,0-0.34,0.04-0.46,0.13c-0.12,0.09-0.19,0.21-0.21,0.38c-0.02,0.15-0.01,0.28,0.05,0.39
	c0.06,0.11,0.16,0.18,0.29,0.22l0.47,0.15c0.26,0.08,0.46,0.22,0.58,0.41c0.12,0.19,0.17,0.42,0.12,0.69
	c-0.04,0.22-0.12,0.41-0.24,0.57c-0.13,0.16-0.29,0.29-0.49,0.38C380.31,785.79,380.09,785.84,379.84,785.84z M381.91,785.79
	l0.61-3.83h2.25l-0.08,0.5h-1.7l-0.17,1.09h1.51l-0.08,0.5h-1.51l-0.19,1.24h1.69l-0.08,0.5H381.91z M386.94,785.84
	c-0.36,0-0.62-0.1-0.8-0.3c-0.17-0.2-0.23-0.47-0.18-0.82l0.27-1.7c0.06-0.34,0.2-0.61,0.44-0.82c0.24-0.2,0.54-0.3,0.89-0.3
	c0.36,0,0.62,0.1,0.8,0.3c0.17,0.2,0.24,0.47,0.18,0.81l-0.27,1.71c-0.06,0.34-0.2,0.62-0.44,0.82
	C387.6,785.74,387.3,785.84,386.94,785.84z M387.02,785.33c0.19,0,0.35-0.05,0.47-0.16c0.12-0.11,0.19-0.26,0.23-0.46l0.27-1.7
	c0.03-0.2,0.01-0.35-0.08-0.46c-0.08-0.11-0.22-0.16-0.41-0.16c-0.19,0-0.35,0.05-0.46,0.16c-0.12,0.1-0.19,0.26-0.22,0.46
	l-0.27,1.7c-0.03,0.2-0.01,0.35,0.08,0.46C386.7,785.28,386.83,785.33,387.02,785.33z M388.95,785.79l0.61-3.83h0.71l0.62,3.19
	c0.01-0.1,0.02-0.22,0.03-0.36c0.01-0.14,0.03-0.29,0.04-0.44c0.02-0.15,0.04-0.29,0.06-0.41l0.31-1.98h0.52l-0.61,3.83h-0.71
	l-0.61-3.19c-0.01,0.09-0.02,0.21-0.03,0.34c-0.01,0.13-0.03,0.28-0.04,0.42c-0.02,0.15-0.04,0.28-0.06,0.41l-0.31,2.01H388.95z
	 M392.25,785.79l0.61-3.83h0.57l-0.52,3.31h1.67l-0.08,0.52H392.25z M396.12,785.79l0.22-1.41l-0.75-2.42h0.58l0.45,1.45
	c0.03,0.09,0.05,0.18,0.07,0.27c0.02,0.08,0.03,0.15,0.03,0.19c0.02-0.04,0.05-0.1,0.09-0.19c0.04-0.08,0.09-0.17,0.14-0.27
	l0.9-1.45h0.6l-1.53,2.42l-0.22,1.41H396.12z M399.22,785.79l0.61-3.83h0.71l0.62,3.19c0.01-0.1,0.02-0.22,0.03-0.36
	c0.01-0.14,0.03-0.29,0.04-0.44c0.02-0.15,0.04-0.29,0.06-0.41l0.31-1.98h0.52l-0.61,3.83h-0.71l-0.61-3.19
	c-0.01,0.09-0.02,0.21-0.03,0.34c-0.01,0.13-0.03,0.28-0.04,0.42c-0.02,0.15-0.04,0.28-0.06,0.41l-0.31,2.01H399.22z M403.51,785.84
	c-0.36,0-0.62-0.1-0.8-0.3c-0.18-0.2-0.23-0.47-0.18-0.82l0.27-1.7c0.06-0.34,0.2-0.61,0.44-0.82c0.24-0.2,0.54-0.3,0.89-0.3
	c0.36,0,0.62,0.1,0.8,0.3c0.17,0.2,0.24,0.47,0.18,0.81l-0.27,1.71c-0.06,0.34-0.2,0.62-0.44,0.82
	C404.16,785.74,403.86,785.84,403.51,785.84z M403.58,785.33c0.19,0,0.35-0.05,0.47-0.16c0.12-0.11,0.19-0.26,0.23-0.46l0.27-1.7
	c0.03-0.2,0.01-0.35-0.08-0.46c-0.08-0.11-0.22-0.16-0.41-0.16c-0.19,0-0.35,0.05-0.46,0.16c-0.12,0.1-0.19,0.26-0.22,0.46
	l-0.27,1.7c-0.03,0.2-0.01,0.35,0.08,0.46C403.26,785.28,403.4,785.33,403.58,785.33z M406.38,785.79l0.52-3.31h-1.02l0.08-0.52
	h2.62l-0.08,0.52h-1.03l-0.52,3.31H406.38z M409.52,785.79l0.61-3.83h2.32l-0.08,0.52h-1.76l-0.18,1.14h1.63l-0.08,0.52h-1.62
	l-0.26,1.64H409.52z M413.77,785.84c-0.36,0-0.62-0.1-0.8-0.3c-0.18-0.2-0.23-0.47-0.18-0.82l0.27-1.7c0.06-0.34,0.2-0.61,0.44-0.82
	c0.24-0.2,0.54-0.3,0.89-0.3c0.36,0,0.62,0.1,0.8,0.3c0.17,0.2,0.24,0.47,0.18,0.81l-0.27,1.71c-0.06,0.34-0.2,0.62-0.44,0.82
	C414.42,785.74,414.13,785.84,413.77,785.84z M413.85,785.33c0.19,0,0.35-0.05,0.47-0.16c0.12-0.11,0.19-0.26,0.23-0.46l0.27-1.7
	c0.03-0.2,0.01-0.35-0.08-0.46c-0.08-0.11-0.22-0.16-0.41-0.16c-0.19,0-0.35,0.05-0.46,0.16c-0.12,0.1-0.19,0.26-0.22,0.46
	l-0.27,1.7c-0.03,0.2-0.01,0.35,0.08,0.46C413.52,785.28,413.66,785.33,413.85,785.33z M415.8,785.79l0.61-3.83h1.2
	c0.24,0,0.44,0.05,0.6,0.14c0.16,0.09,0.28,0.22,0.36,0.39c0.07,0.17,0.09,0.37,0.05,0.59c-0.04,0.26-0.14,0.48-0.3,0.67
	c-0.16,0.19-0.37,0.32-0.6,0.39l0.54,1.64h-0.62l-0.48-1.57h-0.54l-0.25,1.57H415.8z M416.69,783.71h0.64
	c0.19,0,0.35-0.06,0.48-0.17c0.13-0.11,0.21-0.26,0.24-0.45c0.03-0.19,0-0.35-0.09-0.46c-0.09-0.11-0.24-0.17-0.43-0.17h-0.64
	L416.69,783.71z M420.91,785.84c-0.36,0-0.63-0.1-0.81-0.3c-0.18-0.2-0.24-0.47-0.19-0.82l0.27-1.7c0.06-0.35,0.21-0.62,0.45-0.82
	s0.55-0.3,0.91-0.3c0.36,0,0.63,0.1,0.81,0.3c0.18,0.2,0.24,0.47,0.19,0.82h-0.57c0.03-0.2,0-0.35-0.09-0.46
	c-0.09-0.11-0.23-0.16-0.42-0.16c-0.19,0-0.35,0.05-0.48,0.16c-0.12,0.1-0.2,0.26-0.23,0.45l-0.27,1.71c-0.03,0.2,0,0.35,0.09,0.46
	c0.09,0.11,0.23,0.16,0.42,0.16c0.19,0,0.35-0.05,0.47-0.16c0.12-0.11,0.2-0.26,0.23-0.46h0.57c-0.03,0.23-0.11,0.43-0.24,0.59
	c-0.12,0.17-0.28,0.3-0.47,0.39C421.36,785.79,421.14,785.84,420.91,785.84z M424.03,785.84c-0.36,0-0.62-0.1-0.8-0.3
	c-0.18-0.2-0.23-0.47-0.18-0.82l0.27-1.7c0.06-0.34,0.2-0.61,0.44-0.82c0.24-0.2,0.54-0.3,0.89-0.3c0.36,0,0.62,0.1,0.8,0.3
	c0.17,0.2,0.24,0.47,0.18,0.81l-0.27,1.71c-0.06,0.34-0.2,0.62-0.44,0.82C424.69,785.74,424.39,785.84,424.03,785.84z
	 M424.11,785.33c0.19,0,0.35-0.05,0.47-0.16c0.12-0.11,0.19-0.26,0.23-0.46l0.27-1.7c0.03-0.2,0.01-0.35-0.08-0.46
	c-0.08-0.11-0.22-0.16-0.41-0.16c-0.19,0-0.35,0.05-0.46,0.16c-0.12,0.1-0.19,0.26-0.22,0.46l-0.27,1.7
	c-0.03,0.2-0.01,0.35,0.08,0.46C423.79,785.28,423.92,785.33,424.11,785.33z M425.97,785.79l0.61-3.83h0.69l0.18,1.23
	c0.02,0.12,0.04,0.23,0.05,0.33c0.01,0.1,0.02,0.18,0.03,0.24c0.02-0.06,0.05-0.14,0.09-0.24c0.04-0.11,0.09-0.22,0.15-0.34
	l0.57-1.22h0.71l-0.61,3.83h-0.54l0.2-1.29c0.02-0.17,0.06-0.35,0.1-0.55c0.04-0.2,0.09-0.4,0.14-0.61c0.05-0.2,0.1-0.4,0.14-0.59
	c0.05-0.19,0.09-0.35,0.13-0.49l-0.86,1.86h-0.55l-0.28-1.86c0,0.14-0.01,0.29-0.02,0.47c-0.01,0.18-0.02,0.37-0.04,0.57
	c-0.02,0.2-0.04,0.41-0.06,0.61c-0.02,0.2-0.05,0.4-0.08,0.57l-0.2,1.29H425.97z M429.11,785.79l0.61-3.83h0.69l0.18,1.23
	c0.02,0.12,0.04,0.23,0.05,0.33c0.01,0.1,0.02,0.18,0.03,0.24c0.02-0.06,0.05-0.14,0.09-0.24c0.04-0.11,0.09-0.22,0.15-0.34
	l0.57-1.22h0.71l-0.61,3.83h-0.54l0.2-1.29c0.02-0.17,0.06-0.35,0.1-0.55c0.04-0.2,0.09-0.4,0.14-0.61c0.05-0.2,0.1-0.4,0.14-0.59
	c0.05-0.19,0.09-0.35,0.13-0.49l-0.86,1.86h-0.55l-0.28-1.86c0,0.14-0.01,0.29-0.02,0.47c-0.01,0.18-0.02,0.37-0.04,0.57
	c-0.02,0.2-0.04,0.41-0.06,0.61c-0.02,0.2-0.05,0.4-0.08,0.57l-0.2,1.29H429.11z M432.41,785.79l0.61-3.83h2.25l-0.08,0.5h-1.7
	l-0.17,1.09h1.51l-0.08,0.5h-1.51l-0.19,1.24h1.69l-0.08,0.5H432.41z M435.51,785.79l0.61-3.83h1.2c0.24,0,0.44,0.05,0.6,0.14
	c0.16,0.09,0.28,0.22,0.36,0.39c0.07,0.17,0.09,0.37,0.05,0.59c-0.04,0.26-0.14,0.48-0.3,0.67c-0.16,0.19-0.37,0.32-0.6,0.39
	l0.54,1.64h-0.62l-0.48-1.57h-0.54l-0.25,1.57H435.51z M436.4,783.71h0.64c0.19,0,0.35-0.06,0.48-0.17
	c0.13-0.11,0.21-0.26,0.24-0.45c0.03-0.19,0-0.35-0.09-0.46c-0.09-0.11-0.24-0.17-0.43-0.17h-0.64L436.4,783.71z M439.8,785.84
	c-0.36,0-0.63-0.1-0.81-0.3c-0.18-0.2-0.24-0.47-0.19-0.82l0.27-1.7c0.06-0.35,0.21-0.62,0.45-0.82s0.55-0.3,0.91-0.3
	c0.36,0,0.63,0.1,0.81,0.3c0.18,0.2,0.24,0.47,0.19,0.82h-0.57c0.03-0.2,0-0.35-0.09-0.46c-0.09-0.11-0.23-0.16-0.42-0.16
	c-0.19,0-0.35,0.05-0.47,0.16c-0.12,0.1-0.2,0.26-0.23,0.45l-0.27,1.71c-0.03,0.2,0,0.35,0.09,0.46c0.09,0.11,0.23,0.16,0.42,0.16
	s0.35-0.05,0.47-0.16c0.12-0.11,0.2-0.26,0.23-0.46h0.57c-0.03,0.23-0.11,0.43-0.24,0.59c-0.12,0.17-0.28,0.3-0.47,0.39
	C440.25,785.79,440.04,785.84,439.8,785.84z M441.88,785.79l0.08-0.5h0.78l0.45-2.82h-0.78l0.08-0.5h2.13l-0.08,0.5h-0.78
	l-0.45,2.82h0.78l-0.08,0.5H441.88z M444.74,785.79l1.59-3.83h0.75l0.37,3.83h-0.56l-0.07-0.97h-1.09l-0.39,0.97H444.74z
	 M445.9,784.34h0.87l-0.09-1.1c-0.02-0.2-0.03-0.37-0.04-0.51c-0.01-0.14-0.01-0.24-0.01-0.3c-0.02,0.06-0.05,0.16-0.1,0.3
	c-0.05,0.14-0.11,0.31-0.19,0.5L445.9,784.34z M448.24,785.79l0.61-3.83h0.57l-0.52,3.31h1.67l-0.08,0.52H448.24z M453.19,785.84
	c-0.37,0-0.63-0.1-0.8-0.3c-0.17-0.2-0.22-0.48-0.17-0.82l0.44-2.76h0.57l-0.44,2.76c-0.03,0.2-0.01,0.35,0.07,0.46
	c0.08,0.11,0.21,0.17,0.41,0.17c0.19,0,0.35-0.06,0.46-0.17c0.12-0.11,0.19-0.27,0.22-0.46l0.44-2.76h0.57l-0.44,2.76
	c-0.06,0.35-0.2,0.62-0.43,0.82C453.86,785.74,453.56,785.84,453.19,785.84z M456.36,785.84c-0.39,0-0.67-0.1-0.87-0.29
	c-0.19-0.19-0.26-0.45-0.22-0.78h0.57c-0.03,0.17,0.01,0.31,0.12,0.41c0.11,0.1,0.27,0.15,0.48,0.15c0.2,0,0.37-0.05,0.5-0.15
	s0.21-0.23,0.24-0.4c0.02-0.15,0-0.28-0.06-0.39c-0.06-0.11-0.16-0.18-0.29-0.22l-0.46-0.14c-0.27-0.08-0.46-0.22-0.59-0.41
	c-0.13-0.19-0.17-0.42-0.13-0.68c0.04-0.21,0.11-0.39,0.23-0.55c0.12-0.16,0.27-0.28,0.46-0.37c0.19-0.09,0.4-0.13,0.64-0.13
	c0.35,0,0.62,0.1,0.8,0.29c0.18,0.19,0.25,0.44,0.2,0.76h-0.57c0.03-0.17,0-0.3-0.09-0.4c-0.09-0.1-0.23-0.14-0.42-0.14
	c-0.19,0-0.34,0.04-0.46,0.13c-0.12,0.09-0.19,0.21-0.21,0.38c-0.02,0.15-0.01,0.28,0.05,0.39c0.06,0.11,0.16,0.18,0.29,0.22
	l0.47,0.15c0.26,0.08,0.46,0.22,0.58,0.41c0.12,0.19,0.17,0.42,0.12,0.69c-0.04,0.22-0.12,0.41-0.24,0.57
	c-0.13,0.16-0.29,0.29-0.49,0.38C456.82,785.79,456.6,785.84,456.36,785.84z M458.42,785.79l0.61-3.83h2.25l-0.08,0.5h-1.7
	l-0.17,1.09h1.51l-0.08,0.5h-1.51l-0.19,1.24h1.69l-0.08,0.5H458.42z"/>
<path style="fill:#284296;" d="M592.62,453.97c9.55-9.51,16.1-34.38,27.46-44.89c4.39-4.06,19.49-12.43,28.4-12.59
	c-1.98,1.83-5.46,10.32-10.53,24.19C630.97,439.72,612.52,459,592.62,453.97L592.62,453.97z M550.62,500.81
	c16.11,8.71,33.42,1.46,45.98-12c10.76-11.55,21.65-24.75,24.1-25.86c-11.24-3.02-21.15-1.3-30.53,3.27
	C575.01,473.62,563.58,494.71,550.62,500.81z M596.63,216.52c1.85-4.7,2.68-21.52-4.01-36.79c-7.28-16.6-19.39-23.56-25.16-30.88
	c-1.63,7.93-7.05,26.19,2.27,43.85C575.7,203.96,590.93,212.49,596.63,216.52z M635.5,345.54c-7.99,12.27-8.24,37.08-15.42,49.87h0
	c21.53-3.33,32.9-23.95,34.41-42.32c1.21-14.73,2.43-24.18,3.42-26.95C648.31,329.29,640.58,337.75,635.5,345.54z M630.43,330.54
	c20.19-6.28,22.59-24.56,21.69-44.52c-0.64-14.23-4.86-24.18-4.22-31.95c-7.72,4.18-14.48,18.98-16.25,26.12
	C628.06,295.81,634.25,313.22,630.43,330.54z M584.87,252.17c10.27,9.73,21.15,12.44,33.85,16.32
	c-5.6-31.45-22.38-49.04-53.28-48.89C574.6,229.18,576.6,244.33,584.87,252.17z M589.46,267.98c5.75,11.58,1.72,24.82,9.19,38.82
	c7.48,13.99,18.01,15.79,27.21,25.08C628.87,294.6,612.77,273.05,589.46,267.98z M622.89,268.21c18.08-11.75,13.61-39.14,5.81-53.74
	c-6.57-12.3-11.14-23.64-11.14-26.36c-6.95,6.74-10.53,22.04-9.8,29.85C609.33,234.91,621.02,249.28,622.89,268.21z M588.7,450.34
	c22.22-27.41,20.63-54.12,1.35-71.61c-2.24,11.88-8.97,22.43-9.8,38.66C579.22,437.72,585.79,440.19,588.7,450.34z M209.96,378.73
	c-19.29,17.49-20.87,44.2,1.35,71.61c2.92-10.15,9.48-12.62,8.45-32.95C218.93,401.15,212.2,390.61,209.96,378.73z M174.16,331.88
	c9.2-9.29,19.73-11.09,27.2-25.08c7.47-13.99,3.43-27.24,9.2-38.82C187.24,273.05,171.15,294.6,174.16,331.88z M249.4,500.81
	c-12.97-6.11-24.41-27.2-39.58-34.59c-9.38-4.57-19.27-6.29-30.53-3.27c2.46,1.11,13.35,14.31,24.11,25.86
	C215.97,502.27,233.3,509.52,249.4,500.81z M202.17,363.34c3.08-13.33-1.41-26.8-0.82-39.95c-27.05,14.73-27.63,48.06-17.23,69.87
	C189.99,383.45,198.97,377.21,202.17,363.34z M400.13,564.06c9.48,0,19.09-0.28,28.78-0.8l-14.52-21L400.13,564.06z M151.54,396.49
	c1.98,1.83,5.47,10.32,10.53,24.19c6.98,19.04,25.43,38.32,45.34,33.29c-9.57-9.51-16.11-34.38-27.47-44.89
	C175.56,405.03,160.45,396.66,151.54,396.49z M597.84,363.34c3.2,13.87,12.17,20.11,18.06,29.93c10.4-21.81,9.82-55.14-17.24-69.87
	C599.26,336.54,594.77,350.01,597.84,363.34z M179.94,395.41c-7.17-12.79-7.42-37.6-15.42-49.87c-5.08-7.79-12.82-16.25-22.4-19.4
	c0.98,2.77,2.2,12.22,3.41,26.95C147.04,371.46,158.41,392.08,179.94,395.41z M253.29,497.58c-1.56-9.43,4.35-24.76-2-39.04
	c-5.67-12.75-17.56-20.83-22.89-30.42C217.6,451.42,224.14,478.06,253.29,497.58z M225.44,517.59c5.61,2.26,14.54,9.11,26.86,17.01
	c13.57,8.68,35.73,13.52,51.74,0.8c-13.77-2.11-34.47-21.2-48.82-22.85C246.53,511.53,232.17,512.43,225.44,517.59z M230.27,192.7
	c9.34-17.66,3.91-35.92,2.28-43.85c-5.75,7.32-17.87,14.28-25.16,30.88c-6.71,15.27-5.85,32.08-4.01,36.79
	C209.09,212.49,224.32,203.96,230.27,192.7z M215.16,252.17c8.26-7.83,10.26-22.98,19.4-32.57c-30.88-0.15-47.66,17.44-53.28,48.89
	C194,264.61,204.87,261.89,215.16,252.17z M546.72,497.58c29.15-19.52,35.7-46.17,24.89-69.45c-5.34,9.59-17.22,17.67-22.9,30.42
	C542.36,472.82,548.28,488.15,546.72,497.58z M169.58,330.54c-3.82-17.32,2.36-34.73-1.21-50.35c-1.76-7.14-8.55-21.94-16.24-26.12
	c0.63,7.77-3.6,17.72-4.24,31.95C147,305.98,149.38,324.26,169.58,330.54z M177.11,268.21c1.89-18.93,13.55-33.3,15.14-50.25
	c0.73-7.8-2.84-23.11-9.8-29.85c0,2.72-4.56,14.06-11.13,26.36C163.5,229.07,159.03,256.46,177.11,268.21z M305,530.16
	c-0.12-7.93-1.52-20.81-11.38-34.74c-10.52-14.84-21.74-17.76-29.02-23.42C260.21,497.18,272.79,521.74,305,530.16z M366.64,548.32
	c-5.55-7.24-6.85-19.47-20.77-30.58c-12.52-10-26.98-8.9-37.93-17.6C311.82,529.48,332.69,546.76,366.64,548.32z M535.4,472
	c-7.26,5.66-18.49,8.57-29.01,23.42c-9.86,13.93-11.26,26.81-11.37,34.74C527.22,521.74,539.8,497.18,535.4,472z M547.72,534.6
	c12.32-7.9,21.25-14.75,26.84-17.01c-6.72-5.16-21.08-6.06-29.77-5.04c-14.35,1.65-35.04,20.74-48.83,22.85
	C511.98,548.12,534.12,543.28,547.72,534.6z M492.07,500.14c-10.94,8.7-25.41,7.6-37.94,17.6c-13.9,11.12-15.19,23.35-20.76,30.58
	C467.34,546.76,488.2,529.48,492.07,500.14z M441.28,562.47c22.49-1.7,45.43-4.78,68.56-9.12c-7.16-5.77-17.97-8.96-24.73-9.6
	c-15.31-1.47-31.23,8.84-52.18,8.43C434.87,556.5,437.77,559.89,441.28,562.47z M314.9,543.74c-6.75,0.65-17.56,3.83-24.73,9.6
	c23.13,4.34,46.08,7.42,68.57,9.12c3.52-2.58,6.42-5.97,8.37-10.3C346.14,552.59,330.21,542.27,314.9,543.74z M396.63,564.02
	l21.31-32.81h-29.07l-20.7,31.86C377.75,563.64,387.24,563.96,396.63,564.02z M50,520.53l42.44-17.83l-3.76-44.78
	c11.57,6.67,64.18,34.75,67,35.77l-32.13,7.13l-22.75,47.04C95.49,545.85,60.52,527.05,50,520.53 M750,520.53l-42.45-17.83
	l3.77-44.78c-11.59,6.67-64.18,34.75-67.01,35.77l32.14,7.13l22.74,47.04C704.5,545.85,739.48,527.05,750,520.53 M546.43,166.89
	v154.89c-1.45,50.45-18.31,97.24-48.02,131.43c-39.31,45.22-68.26,58.51-98.39,69.35c-30.14-10.83-59.07-24.13-98.39-69.35
	c-29.71-34.19-46.57-80.98-48.03-131.43V166.89H546.43z M542.4,170.93H257.64v150.86c1.43,49.42,18.13,95.16,47.05,128.79
	c38.1,44.29,68.31,57.54,95.33,67.69c27.02-10.15,57.25-23.4,95.33-67.69c28.92-33.63,45.62-79.37,47.05-128.79V170.93z
	 M346.85,340.92c0,15.37-12.46,27.84-27.83,27.84c-15.37,0-27.83-12.47-27.83-27.84c0-15.38,12.47-27.83,27.83-27.83
	C334.39,313.1,346.85,325.55,346.85,340.92z M342.91,340.68l-2.47,1.86l-5.77-6.52l0.53-8.81l3.38-0.02
	c-3.09-4.47-7.54-7.68-12.56-9.25l1.02,3.27l-7.89,3.53l-8.17-3.53l1.04-3.27c-5.16,1.6-9.54,4.88-12.58,9.25l3.39,0.02l0.81,8.53
	l-5.79,6.94l-2.74-1.99c-0.09,5.46,1.64,10.7,4.8,14.97l1.06-3.26l8.52,1.87l4.48,7.69l-2.73,2.03c5.09,1.77,10.56,1.71,15.54,0
	l-2.74-2.03l4.63-7.69l8.36-1.87l1.07,3.26C341.36,351.29,343,345.99,342.91,340.68z M318.89,330.16l-9.84,7.25l3.76,11.73h12.76
	l3.75-11.44L318.89,330.16 M532.98,277.17v44.34c-1.46,50.7-18.94,92.88-44.77,122.91c-35.87,41.72-60.99,52.61-88.18,63.77
	c-27.17-11.16-52.31-22.06-88.19-63.77c-9.87-11.48-17.23-22.18-24.25-37.01l22.2-11.78l1.58,24c0.22,3.19,2.16,5.84,5.08,6.92
	c2.91,1.08,6.09,0.33,8.34-1.92c0.13-0.14,5.21-5.3,5.21-5.3c28.14,23.62,57.62,34.79,70.04,38.43
	c12.42-3.65,41.9-14.81,70.04-38.43l5.19,5.28c2.24,2.27,5.44,3.02,8.36,1.94c2.91-1.08,4.76-3.53,5.01-6.92l2.28-32.64
	c0.16-2.34-0.69-4.65-2.33-6.32c-1.64-1.66-3.92-2.55-6.27-2.43l-32.67,1.68c-1.53,0.07-2.92,0.52-4.1,1.24
	c-0.36-1.24-0.8-2.46-1.29-3.66c-4.21-10.1-13.55-18.9-27.25-25.87v-12.9L532.98,277.17z M498.8,363.09
	c-2.35-3.14-5.62-6.59-8.81-8.17c-6.56-3.26-13.7,0.94-17.96,5.33c-4.26-4.39-11.41-8.59-17.95-5.33c-3.21,1.59-6.47,5.03-8.83,8.17
	c6.76,1.57,9.51-7.58,18.65-3.03c1.78,1.19,3.58,2.25,4.6,4.42l-0.92,2.54h8.89l-0.91-2.54c1.02-2.17,2.81-3.23,4.59-4.42
	C489.3,355.51,492.05,364.66,498.8,363.09z M506.88,346.93c-2.35-3.14-5.62-6.58-8.8-8.17h0c-6.56-3.27-13.7,0.93-17.96,5.33
	c-4.26-4.4-11.42-8.6-17.96-5.33c-3.18,1.59-6.46,5.02-8.81,8.17c6.75,1.57,9.51-7.58,18.64-3.03c1.79,1.2,3.58,2.25,4.61,4.42
	l-0.92,2.54h8.89l-0.92-2.54c1.03-2.17,2.82-3.22,4.6-4.42C497.38,339.36,500.13,348.5,506.88,346.93z M514.95,330.79
	c-2.35-3.15-5.61-6.58-8.8-8.17h0c-6.55-3.28-13.71,0.93-17.96,5.32c-4.27-4.39-11.41-8.59-17.97-5.32
	c-3.19,1.59-6.46,5.02-8.82,8.17c6.76,1.56,9.51-7.58,18.65-3.05c1.8,1.21,3.58,2.26,4.61,4.43l-0.92,2.53h8.89l-0.92-2.53
	c1.03-2.17,2.81-3.22,4.6-4.43C505.45,323.21,508.2,332.35,514.95,330.79z M311.54,284.37c0-10.48,8.51-19,18.99-19
	c4.11,0,8.11,1.38,11.41,3.87h19.29c-2.13-4.79-4.56-11.33-4.78-16.74c-0.45-11.12,4.51-19.4,14.75-24.64
	c3.9-1.99,8.32-3.02,12.56-2.99l-3.23-15.68h39.01l-3.24,15.68c4.25-0.03,8.67,1.01,12.57,2.99c2.38,1.22,4.44,2.61,6.25,4.16
	l97.86-51.68H267.07v140.42l48.04-25.37C312.87,292.28,311.54,288.48,311.54,284.37z M410.34,216.7h-20.61l3.45,16.67h13.72
	L410.34,216.7 M405.32,272.32h-10.57c-1.98-3.05-4.87-9.25-4.87-15.05c0-10.43,7.18-18.05,10.15-18.05
	c2.98,0,10.15,7.62,10.15,18.05C410.19,263.07,407.29,269.27,405.32,272.32 M406.71,236.78c4.79,4.09,8.89,11.97,8.89,20.48
	c0,5.34-1.94,10.93-4.06,15.06h17.44c0,0,6.82-12.35,7.15-20.13c0.36-8.84-3.6-14.04-10.66-17.66
	C419.68,231.6,410.67,230.92,406.71,236.78 M393.37,236.78c-4.79,4.09-8.9,11.97-8.9,20.48c0,5.34,1.95,10.93,4.08,15.06h-17.46
	c0,0-6.83-12.35-7.14-20.13c-0.36-8.84,3.58-14.04,10.66-17.66C380.39,231.6,389.39,230.92,393.37,236.78 M482.69,385.73
	c0.45,0,0.77,0.32,0.74,0.76l-2.22,32.64c-0.03,0.43-0.3,0.53-0.61,0.22l-10.1-10.28c-19.18,17.29-43.8,32.3-70.47,40.82
	c-26.66-8.52-51.29-23.54-70.46-40.82l-10.12,10.28c-0.3,0.32-0.57,0.22-0.61-0.22l-2.22-32.64c-0.03-0.44,0.31-0.76,0.75-0.76
	l32.66,1.67c0.44,0.03,0.55,0.3,0.24,0.6l-9.58,9.76c8.18,6.93,29.11,18.49,49.88,24.54v-57.06c1.91,0.82,3.87,1.62,5.96,2.38
	c5,1.82,9.31,3.75,12.96,5.8v48.88c20.77-6.05,41.7-17.61,49.88-24.54L449.8,388c-0.3-0.3-0.2-0.57,0.24-0.6L482.69,385.73
	 M409.5,350.81c-1.92-0.81-3.9-1.6-5.99-2.35c-5.42-1.98-9.64-4-12.93-6v-50.52h-51.39c-2.11,2.4-5.2,3.93-8.65,3.93
	c-6.34,0-11.49-5.15-11.49-11.49c0-6.35,5.14-11.49,11.49-11.49c3.42,0,6.49,1.5,8.6,3.87h121.83c2.1-2.36,5.16-3.87,8.58-3.87
	c6.35,0,11.5,5.14,11.5,11.49c0,6.34-5.14,11.49-11.5,11.49c-3.44,0-6.53-1.53-8.62-3.93H409.5L409.5,350.81 M436.95,380.54
	c3.83,9.21,2.42,18.49-1.24,25.88c-3.62,1.81-7.53,3.62-11.62,5.31c4.89-8.14,7.82-18.69,4.12-27.55
	c-3.46-8.31-13.8-15.87-29.81-21.69c-22.99-8.38-34.3-20.87-34.3-37.73c0-12.3,7.01-22.46,11.4-27.75h10v3.17
	c-2.69,2.81-11.94,13.87-11.94,24.58c0,8.57,3.26,19.8,28.09,28.84C420.28,360.38,432.41,369.65,436.95,380.54 M368.19,619.15
	c-1.88,2.61-2.06,9.52-1.77,12.14c0.27,2.62,0.6,3.94,2.62,4.01c2.01,0.07,2.88-1.66,3-4.58l0.52-14.33
	C371.88,616.37,370.09,616.53,368.19,619.15z M285.04,610.77c-2.27,2.3-3.53,9.09-3.66,11.72c-0.14,2.64-0.02,3.99,1.96,4.37
	c1.96,0.39,3.11-1.18,3.67-4.04l2.76-14.08C289.12,608.61,287.31,608.48,285.04,610.77z M159.16,557.83
	c-3.42-0.42-5.62,7.65-6.9,18.22c-1.28,10.58-1.16,18.91,2.26,19.33c3.42,0.43,5.62-7.64,6.91-18.22
	C162.72,566.6,162.6,558.25,159.16,557.83z M526.39,605.06c-0.66,0.15-2.34,0.77-3.5,3.77c-1.15,3.02,0.44,9.73,1.37,12.21
	c0.93,2.45,1.59,3.65,3.55,3.21c1.96-0.45,2.38-2.36,1.73-5.2L526.39,605.06z M218.51,578.49L218.51,578.49
	c-3.45,0.03-4.57,8.31-4.47,18.96c0.1,10.64,1.3,18.91,4.75,18.87c3.46-0.02,4.57-8.32,4.48-18.97
	C223.18,586.71,221.98,578.45,218.51,578.49z M631.33,560.19c-2.91,1.85,0.49,9.48,6.21,18.47c5.68,8.99,11.06,15.38,13.99,13.53
	c2.92-1.85-0.5-9.5-6.2-18.48C639.64,564.71,634.26,558.34,631.33,560.19z M705.64,581.01C590.49,632.98,489.1,651.15,400,651.15
	c-89.07,0-190.43-18.2-305.53-70.08l31.96-66.12c86.97,38.3,184.07,61.24,273.57,61.24c89.53,0,186.68-22.91,273.69-61.24
	L705.64,581.01z M130.67,579.03l5.39-12.81c0,0,10.17-11.39,15.16-16.36c4.98-4.99,10.01-7.79,11.38-7.45l0.16-0.4l-13.25-5.58
	l-0.16,0.39c2.65,1.69,2.35,3.75,0.98,6.8c-1.36,3.04-7.22,11.51-12.52,16.98c-0.29,0.29-0.54,0.35-0.54,0.35s0.21-18.38,0.49-21.88
	c0.28-3.51,2.07-6.03,4.67-5.18l0.16-0.38l-18.35-7.74l-0.16,0.39c2.66,1.49,2.94,3.73,2.74,8.11c-0.18,4.05-0.99,27.78-0.99,27.78
	s-4.08,9.7-4.83,11.49c-1.27,3-4.09,6.28-7.9,4.6l-0.18,0.42l19.64,8.29l0.18-0.42C129.48,585.29,129.48,581.86,130.67,579.03z
	 M172.77,581.01c3.11-10.88-1.48-21.75-10.23-24.25c-8.76-2.48-18.37,4.32-21.47,15.23c-3.1,10.88,1.48,21.75,10.23,24.22
	C160.06,598.73,169.67,591.9,172.77,581.01z M200.8,610.41c-1.89-1.03-2.6-3.11-2.9-4.92c-0.33-1.81-1.28-26.17-1.28-26.17
	c3.27-3.5,8.03-5.72,11.28-4.84l0.2-0.55l-11.31-3.94l-0.15,0.44c1.79,0.63,2.78,3.27,0.5,6.39c-1.94,2.64-8.01,7.8-9.77,9.29
	c4.8-13.75,11.66-33.39,11.66-33.39c-7.24-0.57-9-1.31-15.12-3.09l-0.16,0.44c3.61,1.87,3.27,4.17,2.58,6.14
	c-0.67,1.96-13.81,39.57-13.81,39.57c-1,2.81-3.23,3.44-5.27,2.85l-0.17,0.49l17.51,6.12l0.18-0.48c-2.94-1.09-2.67-3.56-1.95-5.62
	c0.2-0.59,1.59-4.56,3.47-9.95l0.42-0.15l1.15,17.35l12.76,4.47L200.8,610.41z M235.02,599.7c1.67-11.2-4.29-21.37-13.29-22.7
	c-9.01-1.34-17.65,6.67-19.32,17.87c-1.66,11.22,4.3,21.39,13.3,22.72C224.71,618.92,233.36,610.91,235.02,599.7z M263.91,622.1
	c0.54-2.12,5.83-22.6,5.83-22.6c1.19-4.61,2.56-9.49-4.65-11.34c-4.77-1.24-10.3,2.02-10.55,2.1c-0.14,0.06-0.26-0.08-0.35-0.26
	c2.73-10.6,5.2-20.2,5.2-20.2c-7.28,0.02-8.8,0.11-15.05-1.15l-0.12,0.44c3.75,1.56,3.23,3.56,2.72,5.57
	c-0.53,2.01-10.48,40.58-10.48,40.58c-0.74,2.9-2.91,3.71-5,3.29l-0.13,0.49l16.78,4.33l0.13-0.5c-2.13-1.15-1.77-3.03-1.23-5.14
	c0.28-1.05,3.36-13.01,6.38-24.7c0.86-1.28,2.17-2.1,3.68-1.72c2.16,0.56,3,2.21,2.41,4.54c-0.53,2.01-6.13,23.75-6.13,23.75
	c-0.76,2.9-1.62,4.03-3.71,3.63l-0.13,0.5l16.78,4.34l0.12-0.5C264.48,627,262.9,625.99,263.91,622.1L263.91,622.1z M292.29,592.33
	L292.29,592.33c-7.41-1.29-14.25,3-16.68,8.77c-0.11,0.29,0.14,0.51,0.42,0.25c0.27-0.27,2.67-3.16,8.95-1.93
	c6.29,1.23,6.31,4.28,5.74,5.97c-0.56,1.7-1.08,2.09-2.63,2.22c-5.87,0.5-9.98-0.23-12.69,1.59c-2.71,1.81-3.98,6.02-4.69,9.64
	c-0.72,3.61,0.13,8.63,4.81,10.33c4.68,1.68,8.54,0.53,11.24-2.77c0,0,0.12,1.71,2.17,4.37c2.07,2.67,6.69,2.72,9.25,0.94
	c2.55-1.77,3.34-3.56,3.59-5.55l-0.36-0.07c-0.43,1.8-1.44,2.7-2.75,2.44c-1.33-0.26-1.47-1.47-1.23-2.68
	c0.23-1.21,3.41-17.47,4.4-22.51C302.81,598.3,299.71,593.62,292.29,592.33z M352.72,638.27c-2.07-0.24-3.71-1.07-3.23-5.06h0
	c0.26-2.18,2.78-23.4,2.78-23.4c0.63-5.32,0.16-9.88-6.06-10.62c-4.9-0.58-9.26,3.15-9.5,3.28c-0.05,0.02-0.09,0.01-0.12,0
	c-0.53-2.7-2.16-4.68-6.06-5.13c-4.02-0.47-7.55,2.25-8.81,3.31c0.33-2.74,0.54-4.53,0.54-4.53c-5.49,0.75-8.63,1-14.64,0.4
	l-0.05,0.46c3.91,1.05,3.68,3.05,3.44,5.11c-0.24,2.07-3.25,27.32-3.25,27.32c-0.35,2.96-2.28,3.15-4.4,3.02l-0.07,0.51l16.22,1.92
	l0.05-0.51c-1.49-0.71-1.64-1.76-1.38-3.93c0.19-1.58,2.25-18.93,3.36-28.33c0.7-0.82,1.58-1.34,2.56-1.23
	c2.22,0.26,2.26,1.82,1.97,4.21c-0.24,2.06-3,25.24-3,25.24c-0.35,2.96-1.14,3.92-2.76,4.14l-0.06,0.51l14.89,1.77l0.06-0.52
	c-1.04-0.33-1.89-0.86-1.41-4.86c0.26-2.17,2.77-23.39,2.77-23.39c0.16-1.28,0.24-2.51,0.2-3.66c0.69-1.12,1.63-1.91,2.78-1.78
	c2.22,0.26,2.5,2.04,2.21,4.43c-0.24,2.06-3.01,25.22-3.01,25.22c-0.34,2.98-1.13,3.93-2.75,4.14l-0.05,0.52l16.69,1.98
	L352.72,638.27z M387.12,631.74l-0.38-0.02c-0.13,1.85-1,2.88-2.33,2.84c-1.34-0.05-1.67-1.22-1.62-2.43
	c0.04-1.24,0.64-17.8,0.83-22.95c0.19-5.13-3.62-9.26-11.14-9.38c-7.53-0.13-13.62,5.18-15.1,11.28c-0.08,0.3,0.2,0.47,0.44,0.18
	c0.22-0.31,2.14-3.54,8.54-3.3c6.39,0.22,6.89,3.25,6.6,5c-0.29,1.75-0.75,2.23-2.26,2.61c-5.72,1.41-9.89,1.33-12.28,3.54
	c-2.39,2.22-3,6.58-3.13,10.25c-0.14,3.69,1.48,8.51,6.37,9.45c4.88,0.95,8.53-0.78,10.67-4.47c0,0,0.38,1.65,2.83,3.97
	c2.46,2.32,7.04,1.63,9.26-0.51C386.69,635.64,387.2,633.74,387.12,631.74z M566.66,570.86c0.89,3.31,4.23,5.3,7.46,4.43
	c3.21-0.87,5.1-4.25,4.21-7.57c-0.89-3.31-4.23-5.29-7.45-4.43C567.66,564.16,565.77,567.54,566.66,570.86z M434.78,599.29
	l-0.25-12.14l-30.17,0.63h0l0.01,0.52c3.58,0.26,4.85,2.31,4.96,7.61c0,0,0.75,35.9,0.79,37.86c0.03,1.96-0.66,5.53-4.9,6.33
	l0.01,0.45l22.35-0.46l-0.01-0.45c-3.69-0.15-5.32-3.12-5.39-6.24l-0.4-19.37c1.7-0.27,3.71-0.14,6.21,1.15
	c1.82,0.93,3.89,2.37,4.35,6.51l0.56-0.01l-0.38-18.03l-0.56,0.01c0.05,2.53-0.18,3.61-3.26,6.13c-2.37,1.94-5.6,1.81-6.97,1.64
	l-0.47-21.85c3.79-0.9,11.56,2.27,12.96,9.73L434.78,599.29z M455.68,612.23c-0.19-3.42-3.06-6.05-6.39-5.86
	c-3.33,0.2-5.86,3.13-5.67,6.55c0.21,3.44,3.06,6.05,6.39,5.86C453.34,618.59,455.88,615.66,455.68,612.23z M512.48,630.88
	l-0.07-0.53c-2.77,0.36-4.82-1.57-5.23-4.64c0,0-4.82-36.63-5.31-40.38c-0.49-3.78,0.87-5.46,4.15-6.24l-0.07-0.57l-16.98,2.21
	l-3.7,28.55l-12.59-26.4l-16.96,2.23l0.07,0.57h0h0l0,0c5.34-0.58,5.93,3.06,6.6,6.45c0.67,3.38,4.33,26,3.89,37.31
	c-0.12,3.13-1.42,6.35-5.75,7.72l0.07,0.53l17.4-2.3l-0.06-0.52c-2.24,0.07-4.61-0.79-6.54-5.98c-1.92-5.2-5.56-32.92-5.56-32.92
	l0.43-0.17l18.5,40.38l5.7-42.19l0.49-0.05c0,0,3.99,30.34,4.39,33.42c0.4,3.08-0.96,4.77-4.44,5.81l0.07,0.51L512.48,630.88z
	 M544.45,616.25l-0.36,0.1c0.32,1.82-0.25,3.02-1.55,3.32c-1.31,0.28-1.93-0.75-2.19-1.96c-0.26-1.19-3.84-17.38-4.95-22.39
	c-1.11-5.03-5.83-8.07-13.15-6.29c-7.31,1.77-11.87,8.44-11.78,14.71c0,0.3,0.32,0.4,0.46,0.05c0.16-0.36,1.19-3.96,7.45-5.34
	c6.27-1.38,7.49,1.41,7.66,3.18c0.16,1.78-0.17,2.34-1.54,3.08c-5.18,2.81-9.24,3.77-11,6.53c-1.75,2.74-1.26,7.1-0.46,10.7
	c0.8,3.6,3.57,7.86,8.55,7.54c4.96-0.31,8.05-2.92,9.2-7.01c0,0,0.8,1.5,3.75,3.12c2.95,1.63,7.21-0.18,8.83-2.81
	C545.01,620.15,545.03,618.19,544.45,616.25z M566.87,618.14l-0.14-0.5c-3.15,0.72-4.3-1.59-4.84-3.72
	c-0.34-1.42-5.41-21.82-5.41-21.82c0.24-2.18,0.96-3.07,2.38-3.82c1.43-0.76,4.39,0.01,4.39,0.01c-0.8-4.46,0.59-9.95,0.59-9.95
	c-8.23,0.56-8.23,9.24-8.28,9.64c-0.04,0.42-0.46,0.27-0.51,0.06c0,0-0.93-3.1-1.78-6.51c-4.88,2.63-7.52,4.04-13.36,5.61l0.11,0.44
	c4.05-0.41,4.54,1.6,5.05,3.61c0.49,2.01,6.36,25.57,6.36,25.57c0.72,2.91-0.78,4.76-2.81,5.36l0.13,0.51L566.87,618.14z
	 M594.12,611.32l-0.14-0.5c-3.14,0.79-4.31-1.4-4.87-3.52c-0.57-2.1-8.66-32.23-8.66-32.23c-4.62,2.62-7.75,4.06-13.09,5.65
	l0.16,0.6c3.32-0.14,3.83,1.71,4.33,3.58c0.54,2,6.83,25.44,6.83,25.44c0.78,2.88-0.72,4.65-2.74,5.32l0.13,0.5L594.12,611.32z
	 M631.06,599.66l-0.15-0.51c-2.01,0.63-3.84,0.53-5.03-3.3c-0.65-2.1-7.16-22.96-7.16-22.96c-1.59-5.1-3.75-8.65-9.73-6.79
	c-4.69,1.46-7.51,7.18-7.68,7.4c-0.05,0.05-0.11,0.07-0.18,0.06c-0.86-2.78-1.41-4.6-1.41-4.6c-4.71,2.93-7.39,4.56-13.13,6.47
	l0.15,0.45c3.68-0.74,4.55,1.64,5.17,3.62c0.6,1.98,7.67,24.6,7.67,24.6c0.89,2.87-0.35,5.02-2.78,5.72l0.15,0.49l16.51-5.16
	l-0.15-0.49c-2.58,0.45-3.15-1.82-3.8-3.91c-0.43-1.4-4.73-15.36-7.48-24.31c-0.06-1.58,0.53-3.01,2.08-3.49
	c2.14-0.67,3.55,0.61,4.27,2.92c0.62,1.98,7.31,23.39,7.31,23.39c0.88,2.86,0.07,4.52-1.61,5.15l0.15,0.48L631.06,599.66z
	 M656.55,569.5c-4.51-10.39-14.93-15.9-23.27-12.28c-8.37,3.62-11.48,14.98-6.99,25.38c4.5,10.39,14.93,15.89,23.28,12.26
	C657.92,591.27,661.05,579.91,656.55,569.5z M688.56,564.05c-1.33-3.56-3.48-6.46-7.21-7.51c-3.73-1.06-9.83-0.14-12.33,0.17
	c-2.51,0.33-4.57-1.97-5.24-3.81c-0.69-1.85-1.28-5.67,2.09-6.92c4.28-1.6,8.11,2.26,10.5,7.74l4.96-5.28h0
	c-2.3-2.95-6.35-7.46-15.78-3.94c-9.43,3.51-10.44,12-7.08,18.84c3.39,6.84,10.67,5.24,14.47,4.56c3.8-0.68,7.88,0.01,9.27,3.79
	c1.41,3.77,0.42,7.2-3.03,8.49c-5.23,1.95-9.31-4.51-11.62-9.43l-5.76,4.72c1.74,2.79,7.53,9.97,17.8,6.14
	C689.45,577.96,690.4,569.01,688.56,564.05z M417,381.83v26.32c0.11-0.17,0.22-0.32,0.33-0.49
	C425.83,392.91,420.86,384.96,417,381.83z M446.72,397.52c0.41-0.25,0.79-0.5,1.18-0.75l-0.97-0.98
	C446.88,396.36,446.8,396.95,446.72,397.52z M350.42,379.92c3.19,0.16,5.88,2.07,7,4.96c1.13,2.9,0.44,6.11-1.8,8.39l-3.44,3.5
	c7.27,4.65,18.37,10.53,30.89,15.14v-47.57c-2.4-1.28-4.63-2.63-6.71-4.05l-36.01,19.11L350.42,379.92z M118.44,511.42
	c-0.01,0-0.01-0.01-0.02-0.01 M86.49,577.43c0.02,0.01,0.03,0.01,0.05,0.02"/>
</svg>
