<?xml version="1.0" encoding="utf-8"?>
<!-- Created by @FCLOGO 2025-2-10 GMT+8 19:13:09 . https://fclogo.top/ -->
<!-- FOR PERSONAL USE ONLY NOT FOR COMMERCIAL USE -->
<svg version="1.1" xmlns="http://www.w3.org/2000/svg" xmlns:xlink="http://www.w3.org/1999/xlink" x="0px" y="0px"
	 viewBox="0 0 800 800" style="enable-background:new 0 0 800 800;" xml:space="preserve">
<path style="fill:#1B1B1F;" d="M594.6528,50l-17.7656,10.6513c-70.3149,42.1863-124.9003,61.3789-176.9867,62.2222
	c-52.0301-0.8969-106.5724-20.0964-176.7875-62.224L205.3544,50L74.1268,170.6328l0.0499,12.2388
	c0.363,79.1088,9.2884,152.776,26.5416,218.9631c16.3564,62.724,40.2932,119.2805,71.148,168.0967
	c69.6031,110.124,157.7762,157.2034,219.486,177.3034L400.1636,750l8.4845-2.7653c61.7098-20.1,149.8755-67.1725,219.486-177.3034
	c30.8618-48.8198,54.7986-105.3763,71.1476-168.0967c17.2532-66.1761,26.1786-139.8438,26.5416-218.9631l0.0499-12.2424L594.6528,50
	z M399.6939,730.6652l-0.0354,0.0069l-0.0714-0.0248C340.7745,711.501,256.644,666.489,189.8239,560.796
	c-30.0648-47.5422-53.4319-102.8035-69.461-164.2393c-16.2066-62.1548-24.9826-123.8679-26.1429-197.9625
	c118.4729,53.6918,214.4326,81.7067,305.1325,82.159h0.2777h0.0638V730.6652z M705.1325,176.2734
	c-119.0778,55.9982-213.0449,81.7639-304.5986,83.5288l-0.4271,0.011h-0.2776c-91.013-0.4486-187.3145-28.4136-306.2214-82.0092
	c-0.0922-0.0463-0.192-0.0889-0.2915-0.132c0-0.2241-0.0073-0.4413-0.0073-0.6617L203.4398,74.3011v-0.0018l0.0073,0.0018
	c76.97,44.8251,137.5763,65.2206,196.5318,66.1317h0.1778l0.2777-0.0037c58.9551-0.8895,119.5903-21.2852,196.5814-66.1281
	L705.9084,175.882L705.1325,176.2734z M215.8884,171.6576l0.9468,0.7547l-0.79,0.9216c-4.0714,4.7299-8.8118,7.5268-14.093,8.3063
	c-1.0746,0.16-2.1993,0.242-3.3239,0.242c-4.3843,0-9.0891-1.2208-13.9577-3.63c-7.6725-3.7864-12.8189-9.2673-15.2955-16.2817
	c-2.4274-6.8755-1.4948-14.1461,2.7616-21.6124c4.356-7.6335,10.0854-12.5092,17.0251-14.481
	c2.3844-0.6797,4.8187-1.0248,7.2389-1.0248c4.4838,0,8.9538,1.1282,13.68,3.4522c6.3417,3.1172,10.6266,7.2596,13.1105,12.6586
	c1.4875,3.2491,2.0145,7.178,1.5448,11.6728l-0.1352,1.2708l-1.2456-0.2424c-4.5768-0.879-6.826-1.3414-11.4597-2.3666
	l-1.1031-0.2419l0.2063-1.1137c0.4628-2.47,0.1352-4.6904-1.0037-6.7866c-1.1388-2.1035-2.911-3.7262-5.4233-4.9645
	c-3.4521-1.7084-6.8044-1.9966-10.0999-0.8826c-3.3381,1.1389-6.42,4.3134-9.1605,9.4378
	c-2.9467,5.509-3.9146,10.0216-2.8683,13.4097c1.0535,3.4343,3.4449,6.0961,7.1176,7.9076c2.6763,1.324,5.3596,1.719,7.9717,1.1709
	c2.5837-0.5408,5.0676-2.2492,7.381-5.0713l0.7543-0.918l0.9042,0.7649C210.2727,167.1274,212.0948,168.6293,215.8884,171.6576z
	 M285.2427,158.3762l-0.1068-0.7722l-0.7474-0.2062c-4.4485-1.2136-6.6267-1.8436-11.1247-3.2102l-0.7475-0.2241l-0.4982,0.6086
	c-11.73,14.4523-24.3922,28.6235-37.6309,42.1148l-1.2813,1.3024l1.7226,0.6159c5.0108,1.8006,7.4521,2.6406,12.4418,4.2776
	l0.7259,0.2419l0.5125-0.5801c3.2028-3.6369,4.8471-5.541,7.8791-9.1211c8.4273,2.6653,12.9185,3.9572,21.4313,6.1817
	c0.7328,4.5552,1.1672,7.0607,2.0641,11.9968l0.1352,0.7474l0.7332,0.1815c5.2029,1.2952,7.7651,1.8932,13.0394,3.0499l1.8007,0.395
	l-0.4056-1.7973C291.0079,195.7437,287.6698,176.9713,285.2427,158.3762z M264.1106,184.2098
	c3.9642-4.8436,6.3916-7.8865,10.0286-12.6017c0.6049,5.9361,1.0604,9.8117,1.879,16.0393
	C271.4843,186.4127,268.6229,185.5869,264.1106,184.2098z M234.6649,185.4659l-4.2991,11.5164l-1.0962-0.4092
	c-4.42-1.6516-6.5836-2.4879-11.011-4.2706l-1.082-0.4344l4.584-11.4057l1.0817,0.4377c4.2564,1.708,6.3562,2.5233,10.7263,4.1566
	L234.6649,185.4659z M397.644,208.4343l1.1603,0.3204l-0.356,1.1461c-1.8148,5.9575-4.9893,10.4061-9.4309,13.2208
	c-4.0141,2.548-9.0038,3.8367-14.8116,3.8367c-0.6691,0-1.3454-0.0146-2.0287-0.0499c-8.3417-0.4092-15.0609-3.3738-19.9718-8.8081
	c-4.8046-5.3133-6.7688-12.3386-5.8508-20.8796c0.9468-8.7403,4.1708-15.4985,9.5876-20.0895
	c5.3381-4.5232,11.7581-6.5305,19.6515-6.1569c6.897,0.3276,12.3564,2.4201,16.6909,6.3989
	c2.6122,2.3881,4.6052,5.7867,5.9362,10.0963l0.3771,1.2066l-1.2383,0.281c-4.548,1.0251-6.7476,1.4949-11.2103,2.3807
	l-1.1173,0.2209l-0.2562-1.1141c-0.5411-2.4518-1.7011-4.3596-3.5305-5.8293c-1.829-1.4661-4.0356-2.2455-6.7546-2.3771
	c-3.7509-0.1888-6.8114,0.8648-9.331,3.2171c-2.5484,2.3808-4.0786,6.5269-4.5483,12.3277
	c-0.4982,6.2349,0.3771,10.7581,2.6122,13.445c2.2565,2.7156,5.4164,4.1923,9.3882,4.388c2.8898,0.1425,5.4448-0.5623,7.5661-2.0994
	c2.1068-1.5302,3.6727-4.0856,4.6548-7.5946l0.3273-1.153l1.1461,0.3488C390.8538,206.5128,393.0745,207.164,397.644,208.4343z
	 M553.7905,148.6181c-6.4984-2.6832-13.6589-2.6727-21.5381,0.0353c-4.2918,1.477-7.9575,3.431-10.8827,5.8151
	c-2.2419,1.8294-4.1639,4.1392-5.7014,6.865c-1.5729,2.7725-2.6333,5.6835-3.1457,8.6481
	c-0.7048,4.0925-0.3419,8.815,1.0958,14.0394c2.3064,8.3846,6.826,14.2212,13.4169,17.3458
	c3.4449,1.6264,7.2458,2.4554,11.3098,2.4554c3.8505,0,7.9717-0.7474,12.2635-2.2241c8.7833-3.0214,14.9614-7.9612,18.3563-14.6873
	c3.3101-6.5625,3.2744-14.0146-0.0995-22.1499C565.556,156.8103,560.4882,151.3797,553.7905,148.6181z M555.8903,183.2736
	c-1.7084,3.6125-4.7335,6.189-8.9896,7.6518c-4.2495,1.4587-8.2494,1.2809-11.8437-0.5306
	c-3.5732-1.8043-6.107-5.306-7.7513-10.7082c-1.6301-5.3526-1.5944-9.8011,0.1141-13.2281c1.6938-3.4022,4.5123-5.7404,8.612-7.1533
	c1.9078-0.6548,3.7441-0.9857,5.4736-0.9857c1.993,0,3.8436,0.4235,5.6656,1.2919c3.4165,1.6333,6.1566,5.0961,8.1569,10.292
	C557.3706,175.2308,557.5627,179.7255,555.8903,183.2736z M595.3572,122.0124c3.6799-1.9821,5.4664-2.9716,9.0964-5.0392
	l1.0109-0.5802l26.8904,47.1329l-1.0178,0.5801c-4.4274,2.5233-6.6052,3.7295-11.0894,6.1354l-0.5197,0.2773l-0.5335-0.2489
	c-11.4028-5.3774-22.6911-11.2814-33.6096-17.5772l13.2887,28.3141l-1.0536,0.4982c-4.2134,1.9788-6.2917,2.9252-10.5839,4.8115
	l-1.0674,0.4734l-21.8584-49.6703l1.0747-0.4698c3.9434-1.7401,5.8723-2.6191,9.808-4.4733l0.5765-0.2708l0.5411,0.3345
	c10.7476,6.6445,21.9149,12.9045,33.2535,18.6376l-15.2391-28.3105L595.3572,122.0124z M313.7274,207.0215l1.153,0.2066
	l-2.1781,12.0963l-1.1531-0.2063c-4.6263-0.8294-6.8755-1.2634-11.452-2.2029l-1.1534-0.235l2.477-12.0394l1.1461,0.235
	C307.0297,205.7905,309.222,206.2103,313.7274,207.0215z M450.8129,175.3375c-5.6158-4.2528-12.3419-5.986-20.634-5.3027
	c-4.4772,0.3666-8.463,1.3596-11.851,2.9467c-2.598,1.2208-5.0035,2.9893-7.1459,5.2527c-2.1781,2.2991-3.9005,4.8577-5.1176,7.6124
	c-1.68,3.79-2.4769,8.4594-2.3633,13.8721c0.1782,8.6907,3.0961,15.4562,8.6766,20.1038c4.9255,4.114,11.2887,6.1959,18.8971,6.1959
	c1.1887,0,2.4274-0.0532,3.673-0.153c9.1459-0.758,16.2565-4.0178,21.1249-9.6871c4.7404-5.5232,6.5056-12.7438,5.2385-21.4667
	C460.0728,186.1918,456.5423,179.6723,450.8129,175.3375z M444.4139,209.4238c-2.4981,3.075-6.0071,4.8187-10.4414,5.1817
	c-4.4201,0.363-8.1995-0.79-11.2031-3.4307c-2.954-2.598-4.584-6.7334-4.8472-12.2923c-0.2634-5.5942,0.8542-9.9003,3.3166-12.7974
	c2.4485-2.8753,5.7083-4.4449,9.9789-4.7972c0.5554-0.0463,1.0962-0.0674,1.6229-0.0674c3.5447,0,6.4699,1.0178,8.9542,3.114
	c2.8753,2.427,4.662,6.4663,5.3166,12.0001C447.7805,202.0001,446.8767,206.406,444.4139,209.4238z M514.1097,200.1674
	l2.8043,10.7261l-1.1315,0.2955c-13.7653,3.598-27.8798,6.6088-41.9442,8.9469l-1.1531,0.1921l-8.8471-53.1047l1.153-0.1921
	c4.306-0.719,6.4058-1.0962,10.7191-1.9289l1.1461-0.2205l8.1212,41.9691c11.0464-2.1461,16.762-3.4558,28.0007-6.3883
	L514.1097,200.1674z"/>
<g>
</g>
<g>
</g>
<g>
</g>
<g>
</g>
<g>
</g>
<g>
</g>
<g>
</g>
<g>
</g>
<g>
</g>
<g>
</g>
<g>
</g>
<g>
</g>
<g>
</g>
<g>
</g>
<g>
</g>
</svg>
