<?xml version="1.0" encoding="utf-8"?>
<!-- Created by @FCLOGO 2025-2-10 GMT+8 19:13:09 . https://fclogo.top/ -->
<!-- FOR PERSONAL USE ONLY NOT FOR COMMERCIAL USE -->
<svg version="1.1" xmlns="http://www.w3.org/2000/svg" xmlns:xlink="http://www.w3.org/1999/xlink" x="0px" y="0px"
	 viewBox="0 0 800 800" style="enable-background:new 0 0 800 800;" xml:space="preserve">
<g>
	<path style="fill-rule:evenodd;clip-rule:evenodd;fill:#1B1B1F;" d="M594.6528,50l-17.7656,10.6513
		c-70.3149,42.1862-124.9003,61.3789-176.9867,62.2222c-52.03-0.8968-106.5724-20.0964-176.7874-62.224L205.3545,50
		L74.1268,170.6329l0.0499,12.2388c0.363,79.1088,9.2884,152.776,26.5416,218.9631c16.3564,62.724,40.2931,119.2805,71.148,168.0966
		c69.6032,110.124,157.7762,157.2034,219.486,177.3034L400.1636,750l8.4845-2.7653c61.7098-20.1,149.8755-67.1725,219.486-177.3034
		c30.8618-48.8198,54.7986-105.3763,71.1476-168.0966c17.2532-66.1761,26.1786-139.8438,26.5416-218.9631l0.0499-12.2424
		L594.6528,50z"/>
	<path style="fill:#C40004;" d="M399.3524,278.9311c-90.7-0.4523-186.6596-28.4672-305.1325-82.159
		c1.1603,74.0947,9.9363,135.8078,26.1429,197.9625c16.0291,61.4358,39.3962,116.6971,69.4611,164.2392
		c66.8201,105.693,150.9506,150.705,209.7633,169.8514l0.0714,0.0248l0.0353-0.007v-449.912h-0.0638H399.3524L399.3524,278.9311z"/>
	<path style="fill:#1B1B1F;" d="M400.6691,282.5753c90.7-0.4523,186.6669-28.4672,305.1325-82.159
		c-1.1603,74.0947-9.9363,132.1635-26.1432,194.3183c-16.0215,61.4358-39.3885,116.6971-69.4606,164.2392
		c-66.8132,105.693-150.9507,150.705-209.7633,169.8514l-0.0714,0.0248l-0.0284-0.007V282.5753h0.0641H400.6691L400.6691,282.5753z"
		/>
	<path style="fill:#FFFFFF;" d="M705.9084,175.882L597.0157,74.3011c-76.9911,44.8429-137.6262,65.2385-196.5814,66.1281
		l-0.2777,0.0036h-0.1779c-58.9555-0.9111-119.5618-21.3067-196.5318-66.1317l-0.0073-0.0018v0.0018L93.3089,177.0102
		c0,0.2205,0.0073,0.4377,0.0073,0.6618c0.0995,0.043,0.1993,0.0856,0.2915,0.1319
		c118.907,53.5956,215.2084,81.5606,306.2214,82.0092h0.2777l0.4271-0.011c91.5538-1.7649,185.5208-27.5306,304.5986-83.5288
		L705.9084,175.882L705.9084,175.882z"/>
	<path style="fill:#1B1B1F;" d="M233.5688,185.0567c-4.3701-1.6333-6.4699-2.4485-10.7264-4.1566l-1.0816-0.4377l-4.5841,11.4057
		l1.082,0.4344c4.4274,1.7828,6.5909,2.6191,11.011,4.2707l1.0962,0.4093l4.2991-11.5165L233.5688,185.0567z M553.7905,148.6181
		c-6.4984-2.6832-13.6589-2.6727-21.5381,0.0353c-4.2918,1.477-7.9575,3.431-10.8827,5.8151
		c-2.2419,1.8294-4.1639,4.1391-5.7014,6.865c-1.5729,2.7725-2.6333,5.6835-3.1457,8.6481
		c-0.7048,4.0925-0.3419,8.815,1.0958,14.0394c2.3064,8.3846,6.826,14.2212,13.4169,17.3458
		c3.4449,1.6264,7.2458,2.4555,11.3098,2.4555c3.8505,0,7.9717-0.7474,12.2635-2.2241c8.7833-3.0214,14.9614-7.9612,18.3563-14.6873
		c3.3101-6.5625,3.2744-14.0146-0.0995-22.1499C565.556,156.8103,560.4882,151.3797,553.7905,148.6181z M555.8903,183.2736
		c-1.7084,3.6125-4.7335,6.189-8.9896,7.6518c-4.2495,1.4588-8.2494,1.2809-11.8437-0.5306
		c-3.5732-1.8043-6.107-5.306-7.7513-10.7082c-1.6301-5.3526-1.5944-9.8011,0.1141-13.2281
		c1.6938-3.4023,4.5123-5.7404,8.612-7.1532c1.9078-0.6549,3.7441-0.9858,5.4736-0.9858c1.993,0,3.8436,0.4235,5.6656,1.2919
		c3.4165,1.6333,6.1566,5.0961,8.1569,10.292C557.3706,175.2308,557.5627,179.7256,555.8903,183.2736z M206.5716,164.0098
		l-0.9041-0.7649l-0.7543,0.918c-2.3134,2.8221-4.7973,4.5305-7.381,5.0713c-2.6122,0.5481-5.2954,0.1531-7.9717-1.1709
		c-3.6727-1.8115-6.064-4.4733-7.1175-7.9076c-1.0462-3.388-0.0784-7.9007,2.8684-13.4096c2.7405-5.1245,5.8224-8.299,9.1605-9.4378
		c3.2955-1.114,6.6478-0.8258,10.1,0.8826c2.5123,1.2383,4.2845,2.8611,5.4233,4.9645c1.1388,2.0961,1.4665,4.3166,1.0037,6.7866
		l-0.2063,1.1137l1.1031,0.242c4.6336,1.0251,6.8828,1.4876,11.4596,2.3665l1.2456,0.2423l0.1352-1.2707
		c0.4697-4.4948-0.0572-8.4236-1.5448-11.6728c-2.4839-5.3989-6.7688-9.5413-13.1104-12.6586
		c-4.7262-2.3239-9.1962-3.4522-13.6801-3.4522c-2.4201,0-4.8545,0.3451-7.2389,1.0248c-6.9397,1.9719-12.6691,6.8475-17.025,14.481
		c-4.2565,7.4663-5.189,14.7369-2.7616,21.6124c2.4766,7.0144,7.623,12.4953,15.2955,16.2817
		c4.8687,2.4092,9.5734,3.63,13.9577,3.63c1.1246,0,2.2492-0.082,3.3239-0.242c5.2812-0.7795,10.0216-3.5764,14.0929-8.3063
		l0.7901-0.9216l-0.9468-0.7547C212.0948,168.6293,210.2727,167.1275,206.5716,164.0098z M285.2427,158.3763l-0.1068-0.7722
		l-0.7474-0.2063c-4.4485-1.2135-6.6266-1.8436-11.1247-3.2102l-0.7475-0.2241l-0.4982,0.6086
		c-11.73,14.4523-24.3922,28.6236-37.6309,42.1148l-1.2813,1.3024l1.7226,0.6159c5.0108,1.8006,7.4521,2.6406,12.4417,4.2776
		l0.7259,0.242l0.5124-0.5802c3.2029-3.6369,4.8472-5.541,7.8792-9.1211c8.4272,2.6654,12.9184,3.9573,21.4313,6.1817
		c0.7328,4.5553,1.1672,7.0607,2.0641,11.9968l0.1352,0.7474l0.7332,0.1815c5.2029,1.2952,7.7651,1.8932,13.0394,3.0499
		l1.8006,0.395l-0.4056-1.7973C291.0079,195.7437,287.6698,176.9713,285.2427,158.3763z M264.1106,184.2098
		c3.9642-4.8435,6.3916-7.8865,10.0285-12.6017c0.6049,5.9361,1.0605,9.8117,1.8789,16.0393
		C271.4843,186.4127,268.6229,185.5869,264.1106,184.2098z M302.567,204.8758l-1.1461-0.2351l-2.477,12.0394l1.1534,0.2351
		c4.5764,0.9395,6.8257,1.3735,11.452,2.2029l1.153,0.2063l2.1782-12.0963l-1.153-0.2066
		C309.2221,206.2103,307.0297,205.7905,302.567,204.8758z M512.9781,200.4626c-11.2388,2.9325-16.9544,4.2422-28.0007,6.3883
		l-8.1212-41.969l-1.1461,0.2205c-4.3133,0.8327-6.4131,1.2099-10.7191,1.9289l-1.153,0.1921l8.8471,53.1047l1.1531-0.192
		c14.0645-2.3381,28.1789-5.349,41.9442-8.9469l1.1315-0.2955l-2.8043-10.726L512.9781,200.4626z M605.4645,116.393l-1.0109,0.5802
		c-3.63,2.0677-5.4164,3.0571-9.0964,5.0392l-1.032,0.555l15.2391,28.3105c-11.3386-5.7331-22.506-11.9931-33.2535-18.6376
		l-0.5411-0.3345l-0.5765,0.2708c-3.9358,1.8542-5.8646,2.7332-9.808,4.4733l-1.0747,0.4697l21.8584,49.6704l1.0674-0.4734
		c4.2922-1.8863,6.3705-2.8327,10.5839-4.8115l1.0536-0.4982l-13.2887-28.3141c10.9185,6.2958,22.2068,12.1998,33.6096,17.5772
		l0.5335,0.2489l0.5197-0.2773c4.4842-2.4059,6.662-3.6122,11.0894-6.1354l1.0178-0.5802L605.4645,116.393z M450.8128,175.3375
		c-5.6158-4.2528-12.3418-5.986-20.6339-5.3027c-4.4773,0.3666-8.463,1.3597-11.851,2.9467
		c-2.598,1.2208-5.0035,2.9894-7.146,5.2528c-2.1781,2.2991-3.9004,4.8577-5.1176,7.6124c-1.68,3.79-2.477,8.4593-2.3633,13.8721
		c0.1782,8.6908,3.0961,15.4562,8.6765,20.1037c4.9255,4.114,11.2887,6.1959,18.8971,6.1959c1.1888,0,2.4274-0.0532,3.673-0.153
		c9.1459-0.758,16.2565-4.0178,21.1249-9.6871c4.7404-5.5232,6.5056-12.7439,5.2385-21.4667
		C460.0728,186.1919,456.5423,179.6723,450.8128,175.3375z M444.4139,209.4238c-2.4981,3.075-6.0071,4.8187-10.4414,5.1817
		c-4.4201,0.363-8.1995-0.7901-11.2031-3.4307c-2.954-2.598-4.5841-6.7334-4.8472-12.2923
		c-0.2634-5.5942,0.8542-9.9003,3.3166-12.7974c2.4485-2.8753,5.7083-4.4449,9.979-4.7973
		c0.5554-0.0463,1.0962-0.0674,1.6228-0.0674c3.5447,0,6.4699,1.0178,8.9542,3.114c2.8753,2.4271,4.662,6.4663,5.3166,12.0001
		C447.7805,202.0001,446.8767,206.406,444.4139,209.4238z M386.3058,205.1178l-1.1461-0.3488l-0.3273,1.153
		c-0.9821,3.509-2.548,6.0643-4.6548,7.5946c-2.1213,1.5371-4.6763,2.2419-7.5661,2.0994c-3.9718-0.1957-7.1317-1.6723-9.3882-4.388
		c-2.235-2.6869-3.1103-7.2101-2.6122-13.445c0.4698-5.8009,2-9.9469,4.5484-12.3277c2.5196-2.3524,5.5801-3.4059,9.331-3.2171
		c2.719,0.1315,4.9255,0.9111,6.7546,2.3771c1.8294,1.4697,2.9893,3.3775,3.5305,5.8293l0.2562,1.114l1.1173-0.2208
		c4.4627-0.8859,6.6624-1.3556,11.2104-2.3808l1.2383-0.281l-0.3772-1.2066c-1.3309-4.3097-3.3239-7.7083-5.9361-10.0963
		c-4.3344-3.9788-9.7939-6.0713-16.6909-6.3989c-7.8934-0.3735-14.3134,1.6337-19.6515,6.1569
		c-5.4167,4.591-8.6408,11.3492-9.5876,20.0895c-0.918,8.541,1.0463,15.5663,5.8508,20.8796
		c4.9109,5.4343,11.6302,8.3988,19.9718,8.8081c0.6833,0.0354,1.3596,0.0499,2.0287,0.0499c5.8078,0,10.7975-1.2886,14.8116-3.8366
		c4.4416-2.8148,7.6161-7.2633,9.4309-13.2209l0.356-1.1461l-1.1603-0.3203C393.0745,207.164,390.8537,206.5128,386.3058,205.1178z"
		/>
</g>
<g>
</g>
<g>
</g>
<g>
</g>
<g>
</g>
<g>
</g>
<g>
</g>
<g>
</g>
<g>
</g>
<g>
</g>
<g>
</g>
<g>
</g>
<g>
</g>
<g>
</g>
<g>
</g>
<g>
</g>
</svg>
