<?xml version="1.0" encoding="utf-8"?>
<!-- Created by @FCLOGO 2025-2-9 GMT+8 21:00:28 . https://fclogo.top/ -->
<!-- FOR PERSONAL USE ONLY NOT FOR COMMERCIAL USE -->
<svg version="1.1" xmlns="http://www.w3.org/2000/svg" xmlns:xlink="http://www.w3.org/1999/xlink" x="0px" y="0px"
	 viewBox="0 0 800 800" style="enable-background:new 0 0 800 800;" xml:space="preserve">
<path style="fill:#262526;" d="M702.855,168.9431l-88.6559-73.5175C514.6407,96.4546,461.1887,81.3163,454.0803,50H345.9197
	c-7.1085,31.3127-60.5605,46.4546-160.1154,45.4221l-88.6594,73.521c45.647,82.8118,54.1362,166.5432,25.8055,251.4129
	c-28.6746,84.7603,2.982,147.7306,94.9681,188.7935C299.8134,645.9669,360.6014,692.8739,400.056,750
	c39.3426-57.1261,100.1271-104.0331,182.3701-140.8505c91.6379-41.0629,123.2946-104.0331,94.7354-188.7935
	C648.8386,335.4863,657.2045,251.7549,702.855,168.9431z M576.9222,597.222c-77.4235,34.8635-136.4913,78.3405-176.8664,130.7477
	c-40.4871-52.4116-99.554-95.8842-176.974-130.7477c-84.1881-37.8535-113.5522-95.3156-87.8588-172.8475
	c28.7875-84.9888,21.4463-168.9494-21.679-252.2205l77.0761-63.7709c95.6594,0.6886,150.5962-14.4498,164.822-45.4186h89.1161
	c14.3369,30.9689,69.2781,46.1072,165.0504,45.4186l76.8468,63.7709c-43.1287,83.2711-50.4656,167.2274-21.6816,252.2205
	C690.583,501.91,661.1069,559.3685,576.9222,597.222z M646.4216,430.6783c-28.7919-85.4456-23.6241-169.7491,15.8262-253.2495
	l-59.7485-49.5486c-91.7612-0.2284-148.1909-15.3668-169.4052-45.4187h-65.9558c-21.4462,30.0484-77.8767,45.1903-169.6335,45.4187
	l-59.528,49.5486c39.2263,83.5004,44.618,167.804,15.827,253.2495v-0.2319c-21.3342,66.6443,4.3584,116.4178,77.3036,149.1078
	c0.5722,0.2319,1.0325,0.4603,1.7211,0.9205c70.651,31.7729,126.2809,70.6509,167.2239,116.9901
	c40.8353-46.3392,96.6927-85.2136,167.3438-116.9901c0.4497-0.4393,1.0036-0.756,1.6091-0.9205
	c72.8289-32.6865,98.6379-82.46,77.4165-149.1078V430.6783z M615.9166,407.7391h-15.6022l-2.6302-9.7466h-16.8674l-2.4054,9.7466
	h-15.4822l18.3479-60.5605h16.4071L615.9166,407.7391z M154.0465,181.0996l48.2842-40.2588
	c89.5694-0.5722,146.6876-15.827,171.3478-45.4186h52.9917c24.4283,29.5917,81.5466,44.8464,171.1221,45.4186l48.4084,40.2588
	c-15.827,35.6685-25.6935,71.3395-29.4796,107.4683c-0.0001,0.0013-0.0002,0.0026-0.0004,0.0038H183.1782
	c-0.0001-0.0013-0.0002-0.0026-0.0004-0.0038C179.6201,252.4391,169.8735,216.7672,154.0465,181.0996z M551.4466,383.5428
	c0.3439,0.4567,1.0325,1.4892,2.0685,3.2103c1.1489,1.3764,1.946,2.4054,2.4062,3.4388l7,17.5472h-16.975l-7.9135-18.1204
	c-1.1489-2.8657-1.953-4.3584-2.8665-5.047c-1.036-1.029-2.1849-1.4893-3.6741-1.4893h-1.0282v24.661h-15.3667V347.183h25.0005
	c4.5911,0,8.0334,0.4559,10.6714,1.4883c2.4089,1.1489,4.3549,3.0984,5.8511,5.6201c1.4928,2.4098,2.1779,5.6201,2.3949,9.7501
	c0,3.3267-0.6851,6.3088-1.8331,8.946c-1.0325,2.2943-2.7581,4.0154-4.7075,5.6202c-1.0281,1.0359-2.8657,1.953-5.159,2.5252
	C549.0403,381.8217,550.2977,382.5138,551.4466,383.5428z M462.6823,362.3205V347.183h45.4186v15.1375h-15.1349v45.4186h-15.1418
	v-45.4186H462.6823z M442.1521,386.7531c-1.036-1.4892-3.6741-2.5217-7.5687-3.6706c-6.6605-1.9495-11.4756-4.2429-14.2292-7.3404
	c-2.8665-2.9785-4.4748-6.881-4.123-11.6961c0-3.2104,0.5687-6.1924,2.1769-8.6021c1.2574-2.87,3.4423-5.1634,6.4243-6.7681
	c2.8665-1.7211,6.9974-2.5262,11.928-2.5262c6.3087,0,11.0153,1.4928,14.2222,4.7031c3.3259,2.8665,5.2755,7.1094,5.8477,13.1854
	l-13.993,1.1454c-0.5766-2.6381-1.3807-4.5876-2.6381-5.6201c-1.0291-1.6047-2.7536-2.1779-4.8151-1.9495
	c-1.841-0.2284-3.4423,0.2319-4.0189,1.2609c-1.1445,0.917-1.4893,1.953-1.3729,3.4423c0,1.1489,0.4603,1.9495,1.1489,2.6381
	c0.6886,0.8041,2.4053,1.4927,5.159,1.9495c6.3088,1.953,11.0119,3.9016,13.8775,5.8511c2.758,1.4892,4.7066,3.6706,6.3157,6.4207
	c1.2574,2.6381,1.8331,5.6236,1.8331,8.9495c0,4.0145-0.8041,7.798-2.5287,11.0119c-1.645,3.1334-4.2035,5.6927-7.3369,7.3368
	c-3.0984,1.4928-7.0009,2.4133-11.7005,2.4133c-8.4858,0-14.1129-1.9495-17.3189-5.8521c-2.9785-4.1265-4.7031-9.0545-5.3918-15.134
	l14.4533-1.1489c0.2249,2.8701,0.9126,5.047,1.9495,6.7682c1.4892,2.4097,3.8946,3.4422,6.6491,3.4422
	c2.0684,0,3.7861-0.6886,5.0505-1.7211c1.1489-1.2609,1.7177-2.8691,1.7177-4.5902
	C443.8698,389.1629,443.301,387.902,442.1521,386.7531z M406.1362,369.8937v12.3847h-23.2838V394.09h26.0374v13.6491h-41.1758
	V347.183h40.4872v13.1888h-25.3488v9.5218H406.1362z M357.1633,347.183v60.557h-14.9135v-60.557H357.1633z M324.9336,383.5428
	c0.4568,0.4567,1.0291,1.4892,2.1779,3.2103c1.0325,1.3764,1.9495,2.4054,2.2933,3.4388l7.2249,17.5472h-17.0914l-8.029-18.1204
	c-1.1489-2.8657-1.9529-4.3584-2.87-5.047c-1.029-1.029-2.0615-1.4893-3.6671-1.4893h-1.0325v24.661h-15.3659V347.183h25.3444
	c4.4756,0,7.9135,0.4559,10.3232,1.4883c2.5367,1.2328,4.6524,3.1876,6.0804,5.6201c1.4928,2.4098,2.1814,5.6201,2.1814,9.7501
	c-0.0061,3.0643-0.5906,6.0988-1.7211,8.946c-1.1489,2.2943-2.87,4.0154-4.8195,5.6202c-1.0291,1.0359-2.7502,1.953-5.1599,2.5252
	C322.5203,381.8217,323.7847,382.5138,324.9336,383.5428z M256.8,390.8796v16.8595h-14.3342v-16.8595H256.8z M236.2708,377.4633
	c-0.2284,6.3079-0.6851,11.2429-1.8331,14.91c-1.0334,3.5577-2.7545,6.5362-4.7031,9.1735
	c-2.1779,2.2943-4.5876,3.9025-6.881,4.4791c-3.5586,1.1489-6.5406,1.7177-9.1779,1.7177h-22.2512V347.183h22.2512
	c4.3584,0,8.029,0.9161,10.899,2.6372c2.5218,1.2609,4.9315,3.4387,6.881,6.1924c1.4883,2.8656,2.8656,5.852,3.6697,9.5217
	C235.8105,369.3214,236.2708,373.3324,236.2708,377.4633z M563.7372,567.6229h-0.1163c-0.9196,0.4603-1.8331,0.9196-2.6373,1.2644
	c-66.6409,30.1638-120.3125,66.64-160.9195,109.3015c-40.7155-42.6615-94.3959-79.1332-161.0323-109.3015
	c-0.8645-0.3754-1.7072-0.7971-2.5253-1.2644c-56.7728-25.3489-81.7734-62.0478-75.4675-110.1027h478.277
	c-0.0009-0.0142-0.002-0.0289-0.0029-0.0431c0.0021,0.0131,0.0045,0.0262,0.0066,0.0392
	C645.5085,505.5732,620.2754,542.2698,563.7372,567.6229z M218.7261,364.4984c1.4893,2.4097,2.4097,6.6526,2.4097,13.4208
	c0,4.5911-0.4603,8.0298-1.148,10.2103c-0.6886,2.2943-1.7176,3.899-2.982,4.4713c-1.6056,1.1453-3.6707,1.4893-6.9974,1.4893
	h-3.6663v-33.0339h4.1265C214.1393,361.0562,217.0059,362.0886,218.7261,364.4984z M315.9841,361.0562
	c1.1489,1.0325,1.6047,2.5252,1.6047,4.4747c-0.1697,1.2171-0.4769,2.4106-0.9161,3.5587
	c-0.8006,0.8041-1.7211,1.4892-2.5217,1.7167c-1.9495,0.5731-3.3268,1.0334-3.899,1.0334h-6.3079v-12.2728h6.4234
	C313.0021,359.5669,314.9516,359.9116,315.9841,361.0562z M341.7933,248.7689h-14.4532v-16.8595h14.4532V248.7689z
	 M287.8846,238.7939h16.8595l2.6381,9.9785h15.5986l-18.2368-60.5605h-16.4028l-18.3522,60.5605h15.6021L287.8846,238.7939z
	 M296.3747,204.0389l5.3874,21.3342H290.983L296.3747,204.0389z M500.535,231.9094h14.5661v16.8595H500.535V231.9094z
	 M481.4905,248.7689H466.584v-60.557h37.0414v12.9614h-22.1349v10.5508h19.0444v12.3882h-19.0444V248.7689z M542.5076,361.0562
	c0.9169,1.0369,1.3772,2.5252,1.3772,4.4747c0,1.3773-0.2283,2.4097-0.6886,3.5587c-0.9135,0.8041-1.7177,1.4892-2.6381,1.7167
	c-1.9495,0.5731-3.4423,1.0334-4.1309,1.0334h-5.964v-12.2728h6.4243C539.5256,359.5669,541.4786,359.9116,542.5076,361.0562z
	 M310.0238,526.3347c2.177-1.3807,3.8982-2.8656,5.159-4.3627c1.9495-2.6373,2.7545-5.6193,2.7545-9.0615
	c-0.1295-1.6879-0.3203-3.3705-0.5731-5.0435c-0.6877-2.0694-1.9486-4.0189-3.4422-5.6202
	c-2.1771-2.7536-5.2755-4.2463-9.4062-4.4712c-0.3439-0.2319-0.8041-0.2319-1.4884,0h-27.8749v60.5605h25.6935
	c1.148,0,3.5577-0.2319,6.7681-0.6887c2.6381-0.5757,4.5867-1.2643,5.8477-2.1848c1.9495-1.4893,3.6706-3.4344,4.7031-5.9641
	c1.1453-2.6337,1.6056-5.5002,1.7211-8.4822c-0.1155-3.6663-0.8041-6.8845-2.2933-9.5217
	C315.8759,528.8564,313.2342,527.1388,310.0238,526.3347z M290.066,510.0474h6.881c2.1779-0.2275,3.7827,0.2363,4.8151,1.3807
	c0.6886,0.7971,0.9205,1.946,1.0325,3.4352v0.8041c0,1.9495-0.3439,3.3259-1.0325,4.1309c-1.0325,1.1489-2.8656,1.7247-5.159,1.9495
	h-6.5371V510.0474z M303.4832,543.4225c-1.0325,1.036-2.982,1.7246-5.6193,1.9495h-7.798v-12.3882h7.798
	c2.6373-0.2284,4.5867,0.4602,5.6193,1.7246c0.9205,1.1489,1.2609,2.6416,1.2609,4.1309
	C304.7441,540.788,304.4002,542.2737,303.4832,543.4225z M328.3726,541.4766h14.4532v16.8595h-14.4532V541.4766z M589.3105,363.2375
	l5.3839,21.3343h-10.8955L589.3105,363.2375z M499.9592,533.668l12.9641,4.9315c-0.6887,4.3627-1.953,8.0334-3.9025,11.2473
	c-1.9495,3.3189-4.3549,5.5037-7.1085,6.993c-2.8735,1.4928-6.5406,2.2934-10.6707,2.5218c-5.3847,0-9.7474-0.8051-13.1897-2.7537
	c-3.4423-1.946-6.3079-5.1599-8.6013-10.2034c-2.6381-4.7066-3.899-10.787-3.6671-18.3558
	c-0.2354-9.2872,1.7177-16.3958,5.3917-21.9073c0.2327-0.5618,0.5836-1.0675,1.0291-1.4814
	c2.8656-3.4423,6.3079-5.852,10.6636-7.1164c2.2933-0.6851,4.7031-0.9126,7.5687-0.9126c2.7536,0,5.1669,0.224,7.3448,0.9126
	c2.5602,0.6406,4.9236,1.9006,6.8809,3.6707c1.4893,1.4893,3.0906,3.2069,4.3549,5.3839c1.4893,2.4132,2.5183,5.3952,3.6663,9.0623
	l-13.1888,3.5578c-0.4603-1.9531-0.9126-3.3259-1.4884-3.9025c-1.1489-1.6047-1.9495-2.6372-3.0984-3.5507
	c-1.4927-0.5758-2.7501-1.036-4.2393-1.036c-3.3224,0-5.7357,1.4927-7.4532,4.5911c-0.1155,0.2319-0.1155,0.3439-0.1155,0.5757
	c-1.6091,2.4062-2.1779,6.3087-2.1779,11.6996c0,6.769,0.7971,11.4678,2.2934,14.1059c1.6021,2.2934,3.8955,3.4388,7.2214,3.6663
	c2.758,0,4.935-0.9161,6.4243-2.8656C498.2415,540.3242,499.2706,537.3422,499.9592,533.668z M520.9452,541.4766h14.4532v16.8595
	h-14.4532V541.4766z"/>
<g>
</g>
<g>
</g>
<g>
</g>
<g>
</g>
<g>
</g>
<g>
</g>
<g>
</g>
<g>
</g>
<g>
</g>
<g>
</g>
<g>
</g>
<g>
</g>
<g>
</g>
<g>
</g>
<g>
</g>
</svg>
