<?xml version="1.0" encoding="UTF-8"?>
<svg data-name="图层_1" xmlns="http://www.w3.org/2000/svg" version="1.1" viewBox="0 0 800 800">
  <!-- Created by @FCLOGO 2025-1-23 GMT+8 16:38:53 . https://fclogo.top/ -->
<!-- FOR PERSONAL USE ONLY NOT FOR COMMERCIAL USE -->
  <path d="M660.9965,187.1136C485.3951,141.409,400,50,400,50c0,0-85.3951,91.409-260.9965,137.1136,0,0-91.409,353.6083,260.9965,562.8864,352.4056-209.2781,260.9965-562.8864,260.9965-562.8864Z"/>
  <path d="M400,735.1198c-138.6102-84.3208-222.6695-200.7967-249.9107-346.3014-17.3076-92.4483-4.9699-168.3769-.3114-191.3738,141.8675-38.4952,223.8465-105.2718,250.2221-129.6326,26.3756,24.3608,108.3546,91.1373,250.2221,129.6326,4.6585,22.9969,16.9962,98.9254-.3114,191.3738-27.2412,145.5046-111.3005,261.9805-249.9107,346.3014Z" style="fill: #ea0200;"/>
  <g>
    <path d="M298.2533,285.4555v28.8512h-83.2434v-116.2393h34.4906v87.3881h48.7527Z" style="fill: #fff;"/>
    <path d="M397.515,326.6101c37.642,0,62.5104,23.0467,62.5104,58.0356s-25.3666,58.2037-63.675,58.2037h-49.743v-116.2393h50.9076ZM381.098,415.8199h17.4135c15.7506,0,26.3631-12.2691,26.3631-30.841,0-18.7369-11.4408-31.1742-28.026-31.1742h-15.7506v62.0152Z" style="fill: #fff;"/>
    <path d="M490.5239,527.5657l-6.9629,18.5719h-35.4871l49.5811-116.2393h35.4871l47.9182,116.2393h-36.8074l-6.801-18.5719h-46.9279ZM514.402,464.3889l-14.2621,37.9721h28.1941l-13.932-37.9721Z" style="fill: #fff;"/>
  </g>
</svg>