<?xml version="1.0" encoding="UTF-8"?>
<svg data-name="图层_1" xmlns="http://www.w3.org/2000/svg" version="1.1" viewBox="0 0 800 800">
  <!-- Created by @FCLOGO 2025-3-2 GMT+8 19:43:16 . https://fclogo.top/ -->
<!-- FOR PERSONAL USE ONLY NOT FOR COMMERCIAL USE -->
  <path d="M399.9495,750c-2.1264,0-4.1768-.8397-5.6927-2.3588-.4089-.4055-.7673-.8523-1.0757-1.3304l-.0064.0064c-24.0737-37.2649-46.4051-38.8347-94.6095-38.8347l-7.9385.0031c-50.9847,0-114.513-21.1392-133.5164-67.5477-3.8184-9.5271-5.7493-19.7239-5.7493-30.3643l-.0004-395.7722c.7363-27.7115-16.196-42.1716-24.2941-63.2573,0-2.1955.8996-4.2965,2.4847-5.8156l82.5884-77.933c1.5537-1.4876,3.5603-2.233,5.5672-2.233,1.9439,0,3.8937.6982,5.4285,2.104.1573.1384,15.4432,13.987,36.5167,24.5837,15.9844,8.0644,30.8867,12.15,44.3044,12.15,12.3735,0,27.0429-4.916,43.5995-14.6127,25.5584-15.0124,46.424-36.1611,46.6315-36.372,1.516-1.5443,3.5856-2.4154,5.7495-2.4154,2.1388,0,4.2588.9215,5.7747,2.4375,2.2016,2.2109,22.2369,22.0262,46.6255,36.356,16.5505,9.6907,31.22,14.6067,43.5869,14.6067,13.4178,0,28.3261-4.0856,44.298-12.147,21.0796-10.5997,36.378-24.4482,36.5292-24.5867,1.5412-1.4058,3.4847-2.104,5.4285-2.104,2.0129,0,4.0135.7454,5.5672,2.233l82.7021,77.933c1.5851,1.5195,2.4847,3.6201,2.4847,5.8156-8.1359,21.0191-23.7441,30.9922-24.4079,63.057v395.9725c0,10.6404-1.9314,20.8372-5.7306,30.314-19.0224,46.4588-82.5506,67.598-133.5352,67.598l-7.9385-.0031c-48.2105,0-70.5355,1.5697-94.6095,38.8347-1.3209,2.0444-3.4912,3.3812-5.913,3.6389-.2832.0284-.5663.0439-.8493.0439"/>
  <path d="M582.1773,72.6111s-15.9104,14.558-38.327,25.8304c-14.1713,7.1501-30.9192,13.0117-47.9248,13.0117-15.7819,0-32.5939-6.8923-47.6667-15.717-26.8615-15.7819-48.3111-37.6831-48.3111-37.6831l-.0057.0056-.0056-.0056s-21.45,21.9012-48.311,37.6831c-15.0728,8.8248-31.8852,15.717-47.6667,15.717-17.0056,0-33.7535-5.862-47.9248-13.0117-22.4167-11.2724-38.3271-25.8304-38.3271-25.8304l-58.2953,55.8482v481.1154c0,10.0487,1.8677,19.1312,5.1529,27.312,18.4872,45.1548,81.8072,62.5467,126.0602,62.5467,52.2403,0,81.0728-1.1943,109.3119,42.514.0015-.0049.0037-.0087.0056-.014.0016.0049.0039.0087.0057.014,28.2391-43.7083,57.0716-42.514,109.3119-42.514,44.2529,0,107.573-17.3919,126.0602-62.5467,3.2851-8.1808,5.153-17.2633,5.153-27.312V128.4592l-58.2954-55.8482Z"/>
  <rect x="351.6253" y="213.6053" width="96.6225" height="423.281" style="fill: #ea0200;"/>
  <path d="M640.4621,213.6053v395.9694c0,10.0487-1.8679,19.1312-5.1531,27.312l-91.4695-.0004V213.6053h96.6226Z" style="fill: #ea0200;"/>
  <path d="M256.0334,213.6053v423.281h-91.4691c-3.2852-8.1808-5.1529-17.2633-5.1529-27.312V213.6053h96.622Z" style="fill: #ea0200;"/>
  <polygon points="261.2223 176.3259 261.2223 199.622 194.0058 199.6224 194.0058 105.7624 221.8555 105.7624 221.8555 176.3259 261.2223 176.3259" style="fill: #fff;"/>
  <path d="M381.996,177.7968h14.061c12.7181,0,21.2875-9.9073,21.2875-24.9033,0-15.1295-9.238-25.1724-22.6303-25.1724h-12.7181v50.0757ZM395.2523,105.7624c30.3947,0,50.4752,18.6096,50.4752,46.8625s-20.4828,46.9976-51.4155,46.9976l-40.1663-.0004v-93.86l41.1065.0004Z" style="fill: #fff;"/>
  <path d="M552.0537,133.6126l-11.5163,30.6614h22.7656l-11.2498-30.6614h.0004ZM532.7728,184.626l-5.6224,14.9964h-28.6545l40.0351-93.86h28.6548l38.6926,93.86h-29.7211l-5.4916-14.9964h-37.8928Z" style="fill: #fff;"/>
</svg>