<?xml version="1.0" encoding="UTF-8"?>
<svg data-name="图层_1" xmlns="http://www.w3.org/2000/svg" version="1.1" viewBox="0 0 800 800">
  <!-- Created by @FCLOGO 2025-1-23 GMT+8 16:38:53 . https://fclogo.top/ -->
<!-- FOR PERSONAL USE ONLY NOT FOR COMMERCIAL USE -->
  <g>
    <path d="M633.1073,276.931c-3.3859-57.571,55.8781-131.2279,55.8781-131.2279l-71.9643-74.5037s-42.3316,45.7182-109.2149,45.7182-107.8047-56.7242-107.8047-56.7242c0,0-40.92,56.7242-107.8047,56.7242s-109.2149-45.7182-109.2149-45.7182l-71.9643,74.5037s59.2647,73.6569,55.8781,131.2279-70.2706,118.5283-64.3435,198.9584c5.9257,80.4301,31.2358,152.3937,148.5391,193.8785,117.3033,41.4851,148.9103,71.9639,148.9103,71.9639,0,0,31.6077-30.4788,148.911-71.9639,117.3026-41.4848,142.6127-113.4483,148.5391-193.8785,5.9264-80.4301-60.9576-141.3874-64.3442-198.9584Z" style="fill: #fff;"/>
    <path d="M399.9825,750l-4.1385-3.9602c-.2981-.2835-32.7512-30.3137-146.7461-70.6287-124.3878-43.9887-146.8103-121.6785-152.5154-199.0789-3.5247-47.7765,17.7638-88.9624,36.5389-125.3026,13.5903-26.298,26.4266-51.1375,27.8002-74.4486,3.2091-54.5775-53.993-126.4074-54.5716-127.1263l-3.3084-4.1151,80.022-82.8395,4.308,4.6265c.4033.4384,41.4957,43.8046,104.8236,43.8046,62.9187,0,102.5615-53.7007,102.9531-54.2443l4.8457-6.687,4.8574,6.687c.3916.5436,40.0402,54.2443,102.9531,54.2443,63.3279,0,104.4203-43.3662,104.8236-43.8046l4.3021-4.6236,80.0279,82.8366-3.3084,4.1151c-.5787.719-57.7807,72.5488-54.5716,127.1263,1.3736,23.311,14.2099,48.1477,27.8002,74.4427,18.7751,36.3402,40.0636,77.529,36.5389,125.3084-3.6299,49.2641-13.9469,84.5405-33.4643,114.3777-24.3807,37.2871-63.322,64.9938-119.0452,84.7012-113.9949,40.315-146.4538,70.3481-146.7694,70.6462l-4.156,3.9426ZM118.9233,146.1317c12.6609,16.7205,56.9974,79.2592,53.9462,131.1508-1.5198,25.8479-14.923,51.7864-29.1096,79.2446-18.9329,36.6354-38.5146,74.5216-35.2413,118.9225,5.4069,73.3526,26.6604,146.9769,144.5658,188.6743,95.8453,33.8968,135.0788,60.5222,146.9156,69.7957,11.8367-9.2736,51.0762-35.8989,146.9214-69.7957,117.8995-41.6974,139.153-115.3218,144.5599-188.6743,3.2734-44.4038-16.3084-82.29-35.2413-118.9283-14.1865-27.4583-27.5898-53.3909-29.1096-79.2388h0c-3.0512-51.8916,41.2853-114.4304,53.9462-131.1508l-64.1755-66.4405c-12.8655,11.8776-52.1985,43.2113-109.0965,43.2113-56.5649,0-94.8048-37.9973-107.8047-53.1512-12.9999,15.1539-51.234,53.1512-107.8047,53.1512-56.8981,0-96.231-31.3337-109.0965-43.2113l-64.1755,66.4405Z"/>
  </g>
  <path d="M682.5307,474.7697c-5.9856,81.2839-31.8437,143.115-138.6269,180.884-12.2101,4.3098-23.5229,8.4994-33.9378,12.5696-18.854,7.3625-34.9556,14.2457-48.6628,20.6503-30.766,14.2457-49.381,25.6784-59.6161,32.7413l-1.6761,1.1373-1.7353-1.1373c-10.2358-7.0629-28.8509-18.4956-59.5569-32.7413-13.7065-6.3447-29.868-13.2878-48.7227-20.6503-10.4748-4.0701-21.7277-8.2598-33.9378-12.5696-106.7233-37.769-132.5814-99.6001-138.567-180.884-3.1119-41.8395,15.8627-78.5907,34.2381-114.0851,9.397-18.1964,18.4952-35.7341,24.1812-53.3317,3.1725-9.8164,5.328-19.6325,5.9257-29.5688,2.8737-48.962-33.8179-106.4234-49.7398-128.8693l-1.4365-2.0353,52.9722-54.8277,2.1555,1.6758c17.8968,14.2457,55.5456,38.1281,106.423,38.1281,51.1171,0,88.1682-29.2696,105.7055-46.6874l2.0948-2.0948,2.0948,2.0948c17.5381,17.4179,54.5892,46.6874,105.7055,46.6874,50.8774,0,88.5262-23.8824,106.423-38.1281l2.0955-1.6758,53.0321,54.8277-1.4365,2.0353c-15.9218,22.4459-52.6127,79.9073-49.7398,128.8693.5977,9.9363,2.7531,19.7523,5.9257,29.5688,5.686,17.5377,14.7243,35.0754,24.1221,53.2718,18.3747,35.5544,37.35,72.3055,34.2972,114.145Z" style="fill: #fff;"/>
  <path d="M461.3032,307.3529v381.5207c-30.766,14.2457-49.381,25.6784-59.6161,32.7413l-1.6761,1.1373-1.7353-1.1373c-10.2358-7.0629-28.8509-18.4956-59.5569-32.7413v-381.5207h122.5845Z" style="fill: #ea0200;"/>
  <path d="M289.996,307.3529v360.8704c-10.4748-4.0701-21.7277-8.2598-33.9378-12.5696-106.7233-37.769-132.5814-99.6001-138.567-180.884-3.1119-41.8395,15.8627-78.5907,34.2381-114.0851,9.397-18.1964,18.4952-35.7341,24.1812-53.3317h114.0855Z"/>
  <path d="M682.5307,474.7697c-5.9856,81.2839-31.8437,143.115-138.6269,180.884-12.2101,4.3098-23.5229,8.4994-33.9378,12.5696v-360.8704h114.1454c5.686,17.5377,14.7243,35.0754,24.1221,53.2718,18.3747,35.5544,37.35,72.3055,34.2972,114.145Z"/>
  <polygon points="400 410.9379 409.7651 440.9918 441.3656 440.9918 415.8002 459.5661 425.5653 489.62 400 471.0457 374.4346 489.62 384.1997 459.5661 358.6343 440.9918 390.2349 440.9918 400 410.9379" style="fill: #fff;"/>
  <g>
    <g>
      <polygon points="234.1282 176.6938 211.6179 176.6938 211.6179 252.212 273.5839 252.212 273.5839 233.5831 234.1282 233.5831 234.1282 176.6938"/>
      <path d="M397.8197,176.6938h-38.0353v75.5299h37.3748c26.4967,0,35.9369-20.3592,35.9369-39.4148,0-8.4728-2.5427-36.1151-35.2763-36.1151ZM382.0199,194.6593h12.9298c4.951,0,15.2504,0,15.2504,19.2193,0,6.1288-1.4672,20.3796-15.0282,20.3796h-13.1519v-39.5989Z"/>
      <path d="M563.487,176.6938h-23.1474l-30.7112,75.5299h23.954l5.5238-14.321h25.0997l5.0854,14.321h24.5502l-30.3546-75.5299ZM557.4371,219.9343h-11.6672l5.9271-16.0746,5.7401,16.0746Z"/>
    </g>
    <rect x="286.1296" y="233.448" width="18.764" height="18.764"/>
    <rect x="442.5392" y="233.448" width="18.764" height="18.764"/>
  </g>
</svg>