<?xml version="1.0" encoding="UTF-8"?>
<svg data-name="图层_1" xmlns="http://www.w3.org/2000/svg" version="1.1" viewBox="0 0 800 800">
  <!-- Created by @FCLOGO 2025-1-23 GMT+8 16:38:53 . https://fclogo.top/ -->
<!-- FOR PERSONAL USE ONLY NOT FOR COMMERCIAL USE -->
  <path d="M185.8451,56.1591c-21.7936,62.2159-54.1392,105.1652-85.7564,123.8585,34.2506,20.4777,65.6965,44.697,73.2939,66.5777,10.6989,21.2961-7.1373,39.7433-20.8092,58.2046-12.9873,17.537-28.8537,34.6728-38.4818,52.679-85.7626,144.4899,21.7512,237.516,211.105,332.7449,29.4109,17.5276,51.4547,35.4741,74.8035,59.7762,23.3488-24.302,45.3926-42.2485,74.8035-59.7762,189.3537-95.2289,296.8674-188.255,211.1049-332.7449-9.6281-18.0062-25.4944-35.1421-38.4819-52.679-13.6719-18.4613-31.508-36.9085-20.8091-58.2046,7.5974-21.8808,39.0433-46.1,73.2939-66.5777-31.6174-18.6933-63.9629-61.6425-85.7565-123.8585-34.7318,23.1495-74.8958,45.0665-113.8726,43.9189-29.3997-.8653-61.3448-14.6151-100.2824-50.0779-38.9377,35.4629-70.8827,49.2127-100.2825,50.0779-38.9767,1.1476-79.1407-20.7694-113.8725-43.9189" style="fill-rule: evenodd;"/>
  <path d="M607.3752,246.0497c.6801-2.172,1.5292-4.3416,2.5573-6.5068,8.605-23.1204,34.4066-44.6296,58.171-60.7605-27.6198-24.9764-48.5781-61.161-62.8942-95.4539-31.9889,19.4175-68.4514,35.9194-105.4589,34.8298-37.8684-1.1147-71.2301-20.4629-99.7503-44.168-28.5202,23.7051-61.882,43.0534-99.7503,44.168-37.0077,1.0897-73.4701-15.4122-105.4589-34.8298-14.3163,34.2929-35.2744,70.4775-62.8943,95.4539,23.7645,16.1308,49.5661,37.64,58.171,60.7605,1.0281,2.1652,1.8772,4.3348,2.5573,6.5068h414.7502Z" style="fill: red; fill-rule: evenodd;"/>
  <path d="M232.496,264.5599h93.0644v405.5823c-28.7543-14.5912-61.6106-32.0684-93.0644-52v-353.5823Z" style="fill: red; fill-rule: evenodd;"/>
  <path d="M474.214,264.5599h93.0644v353.7252c-31.4682,19.9247-64.3253,37.3914-93.0644,51.9714v-405.6966Z" style="fill: red; fill-rule: evenodd;"/>
  <polygon points="400.2138 456.4362 421.518 522.4358 490.8707 522.3027 434.6851 562.9595 456.2432 628.8766 400.2138 588.0041 344.1845 628.8766 365.7425 562.9595 309.5569 522.3027 378.9098 522.4358 400.2138 456.4362" style="fill: #fff; fill-rule: evenodd;"/>
  <path d="M616.4063,154.4829l-4.9084-15.8277-4.7685,15.8277h9.6769ZM629.4795,171.4455h-7.7038l-3.0504-9.7355h-14.1668l-2.9353,9.7355h-7.5642l13.7143-42.7645h7.5562l14.1502,42.7645ZM574.8621,171.4455l-12.6373-42.7645h7.7285l8.9706,31.6554,8.6083-31.6554h7.597l-12.5634,42.7645h-7.7038ZM549.2849,171.4455v-42.7645h7.1531v42.7645h-7.1531ZM524.752,171.4455v-35.5375h-10.4583v-7.227h28.0207v7.227h-10.4092v35.5375h-7.1531ZM485.7484,146.7785h5.2786c3.4204,0,5.5498-.1795,6.405-.5279.8469-.3484,1.5213-.9555,1.998-1.8117.4851-.856.7235-1.9311.7235-3.2154,0-1.4432-.3208-2.598-.954-3.494-.633-.8861-1.5292-1.4436-2.6804-1.6725-.5839-.0995-2.3185-.1491-5.2043-.1491h-5.5666v10.8705ZM478.5953,171.4455v-42.7645h15.0216c3.7739,0,6.5202.3882,8.2302,1.1549,1.7185.7661,3.0834,2.13,4.1115,4.0912,1.0274,1.9709,1.5454,4.2105,1.5454,6.7389,0,3.2155-.7726,5.8635-2.3268,7.9539-1.5538,2.0902-3.8727,3.4046-6.964,3.952,1.5375,1.0849,2.8038,2.2795,3.7986,3.5836,1.0031,1.3041,2.3515,3.6234,4.0452,6.9481l4.3083,8.342h-8.5261l-5.114-9.3372c-1.8335-3.3149-3.0917-5.4056-3.774-6.2716-.6743-.856-1.3899-1.4533-2.146-1.772-.7647-.3183-1.9651-.4776-3.6097-.4776h-1.4471v17.8584h-7.1531ZM443.5054,150.0333c0,4.848.929,8.521,2.779,11.0295,1.8502,2.4987,4.2012,3.753,7.0462,3.753,2.8533,0,5.1884-1.2441,7.0218-3.7229,1.8252-2.4887,2.7379-6.2115,2.7379-11.179,0-4.9074-.8882-8.5706-2.6725-10.9795-1.7759-2.4191-4.1356-3.6234-7.0873-3.6234-2.9434,0-5.3195,1.2243-7.12,3.6632-1.8009,2.4487-2.7052,6.1319-2.7052,11.0592ZM436.1547,150.322c0-4.36.5425-8.0233,1.6199-10.9897.7974-2.1801,1.8993-4.1407,3.2888-5.873,1.3896-1.7322,2.9104-3.0164,4.5633-3.8626,2.2031-1.1247,4.7439-1.692,7.6217-1.692,5.2127,0,9.373,1.9608,12.5055,5.8729,3.1246,3.9222,4.6867,9.3672,4.6867,16.3454,0,6.9184-1.5538,12.3336-4.6538,16.2357-3.0996,3.9122-7.2516,5.8632-12.4397,5.8632-5.2539,0-9.4389-1.9409-12.5389-5.8332-3.0996-3.8824-4.6536-9.2377-4.6536-16.0667ZM409.2952,135.908v12.1843h3.8891c2.8036,0,4.67-.2289,5.6157-.6769.9457-.4482,1.6854-1.1449,2.2201-2.1105.534-.9554.8053-2.0606.8053-3.3348,0-1.5627-.3776-2.847-1.1262-3.8621-.7564-1.0155-1.7017-1.6526-2.8612-1.9113-.8469-.1891-2.549-.2887-5.114-.2887h-3.4289ZM402.1421,171.4455v-42.7645h11.4368c4.333,0,7.1533.2091,8.4686.6371,2.0227.6469,3.7165,2.0407,5.0814,4.1908,1.365,2.1503,2.0472,4.9276,2.0472,8.3317,0,2.6283-.3946,4.8282-1.1757,6.6201-.7895,1.7919-1.7843,3.1955-2.9929,4.2207-1.2087,1.0151-2.4419,1.692-3.6919,2.0209-1.7017.408-4.1603.6172-7.3829.6172h-4.6376v16.1261h-7.1531ZM366.6492,171.4455v-42.7645h26.1463v7.227h-18.9931v9.4965h17.6611v7.2269h-17.6611v11.587h19.6837v7.2271h-26.8369ZM335.5882,135.908v28.3104h5.3031c1.9817,0,3.4121-.1392,4.292-.408,1.1594-.3484,2.1131-.9456,2.8696-1.7817.7643-.8364,1.3811-2.2101,1.8579-4.1213.4852-1.9112.7236-4.5293.7236-7.8344s-.2384-5.8332-.7236-7.605c-.4768-1.772-1.1508-3.1457-2.0142-4.1411-.8631-.9855-1.9569-1.6624-3.2889-2.0107-.9865-.2689-2.9353-.4082-5.8291-.4082h-3.1905ZM328.435,128.681h13.0074c2.9351,0,5.1718.2687,6.709.8162,2.0638.7366,3.8398,2.0509,5.3118,3.9421,1.4799,1.8813,2.5978,4.1908,3.3709,6.9283.7647,2.7273,1.1512,6.1023,1.1512,10.1038,0,3.524-.3618,6.5502-1.0853,9.0985-.8802,3.1159-2.1381,5.6341-3.7739,7.5554-1.2336,1.4635-2.9026,2.5983-4.9989,3.4145-1.5708.6073-3.6673.9059-6.2985.9059h-13.3937v-42.7645ZM283.3878,154.4829l-4.9084-15.8277-4.7685,15.8277h9.6769ZM296.461,171.4455h-7.7039l-3.0504-9.7355h-14.1667l-2.9351,9.7355h-7.5645l13.7145-42.7645h7.5562l14.1498,42.7645ZM240.109,155.7372v-7.227h15.3421v17.062c-1.4878,1.7622-3.6505,3.3052-6.4871,4.6488-2.8284,1.3342-5.6979,2.0009-8.6087,2.0009-3.6914,0-6.9061-.9354-9.6527-2.817-2.7378-1.8813-4.8013-4.5791-6.1826-8.0732-1.3815-3.494-2.0722-7.3067-2.0722-11.4179,0-4.4594.7728-8.4215,2.3106-11.8955,1.5455-3.4643,3.7982-6.1321,6.7668-7.9835,2.269-1.4236,5.0811-2.1301,8.4524-2.1301,4.3821,0,7.8105,1.1146,10.2774,3.3446,2.4583,2.2396,4.045,5.3158,4.7522,9.2575l-7.104,1.6128c-.493-2.1004-1.4308-3.7627-2.8036-4.9873-1.3649-1.2145-3.0751-1.8215-5.1306-1.8215-3.1076,0-5.5828,1.1945-7.4162,3.5935-1.8334,2.3992-2.7545,5.9529-2.7545,10.6613,0,5.0868.9293,8.8994,2.7874,11.4376,1.8666,2.5384,4.2999,3.8127,7.3178,3.8127,1.488,0,2.9842-.3581,4.4809-1.065,1.5045-.707,2.787-1.573,3.8644-2.5881v-5.4254h-8.1398ZM207.1401,171.4455v-42.7645h7.1533v42.7645h-7.1533ZM174.8622,171.4455v-42.4063h7.1532v35.1792h17.7103v7.2271h-24.8634Z" style="fill: #fff;"/>
  <path d="M565.7847,229.7377v-42.7645h26.1459v7.2271h-18.9928v9.4964h17.6608v7.2269h-17.6608v11.587h19.6835v7.227h-26.8366ZM528.4171,215.881l6.9559-.836c.4194,2.817,1.2579,4.8776,2.5324,6.2017,1.2744,1.3237,2.9929,1.9807,5.1551,1.9807,2.2861,0,4.0125-.5872,5.1719-1.7618s1.7429-2.5483,1.7429-4.1212c0-1.0155-.2467-1.8715-.7319-2.5881-.4851-.707-1.3399-1.3241-2.5569-1.8419-.8302-.3581-2.7216-.9752-5.6815-1.8714-3.8065-1.1547-6.4789-2.5681-8.0164-4.2503-2.1623-2.3595-3.2396-5.2363-3.2396-8.6308,0-2.18.5097-4.2305,1.5213-6.1319,1.0197-1.9011,2.4832-3.3445,4.3987-4.3401,1.9159-.9956,4.2182-1.4931,6.9311-1.4931,4.4154,0,7.7451,1.1845,9.9735,3.5635,2.2365,2.3793,3.404,5.5447,3.519,9.5167l-7.1533.2987c-.3041-2.21-.9536-3.7927-1.9484-4.7583s-2.4915-1.4536-4.4812-1.4536c-2.0555,0-3.6669.5178-4.8263,1.5531-.7481.6667-1.1261,1.5527-1.1261,2.6676,0,1.0155.3535,1.8816,1.0603,2.5983.8962.9258,3.0751,1.8816,6.5369,2.8767,3.4614.9854,6.0187,2.0208,7.6708,3.0762,1.6613,1.065,2.9601,2.5084,3.8974,4.3499.9374,1.8418,1.4059,4.1114,1.4059,6.809,0,2.4489-.559,4.7482-1.6851,6.8885-1.1265,2.1402-2.7136,3.7331-4.7689,4.768-2.0555,1.0452-4.6207,1.5628-7.6879,1.5628-4.4641,0-7.8926-1.2441-10.2856-3.7428-2.3924-2.4887-3.8149-6.1218-4.2837-10.8902ZM492.0777,229.7377v-42.7645h6.923l14.5365,28.6588v-28.6588h6.6105v42.7645h-7.1452l-14.3143-28.1115v28.1115h-6.6105ZM456.5846,229.7377v-42.7645h26.1464v7.2271h-18.9931v9.4964h17.661v7.2269h-17.661v11.587h19.6837v7.227h-26.837ZM424.0604,229.7377v-42.4063h7.1533v35.1793h17.7103v7.227h-24.8636ZM388.3703,229.7377v-42.7645h26.1461v7.2271h-18.9931v9.4964h17.6611v7.2269h-17.6611v11.587h19.6837v7.227h-26.8366ZM350.1558,186.9731h7.1533v23.1741c0,3.6833.0904,6.0621.2633,7.1474.304,1.7518,1.0195,3.1655,2.154,4.2208,1.1429,1.065,2.6969,1.5924,4.67,1.5924,1.998,0,3.511-.4977,4.5305-1.5031,1.0195-1.0052,1.628-2.2298,1.8334-3.6928.2059-1.4633.3126-3.8824.3126-7.2667v-23.672h7.1532v22.4871c0,5.1367-.1892,8.77-.5756,10.8903-.3863,2.1202-1.0936,3.912-2.1293,5.3755-1.0279,1.4633-2.409,2.6181-4.1361,3.4842-1.7346.866-3.9873,1.3037-6.7747,1.3037-3.3626,0-5.9113-.4677-7.6463-1.4134-1.735-.9456-3.108-2.1702-4.1196-3.683-1.0114-1.5134-1.6692-3.086-1.9896-4.7482-.4685-2.4489-.699-6.0723-.699-10.8606v-22.8356ZM332.8091,186.9731h7.1533v27.0961c0,3.5438-.2547,6.2716-.7728,8.1827-.6907,2.4887-1.9405,4.4895-3.7577,6.0025-1.8088,1.5031-4.2015,2.2595-7.1778,2.2595-3.4863,0-6.1666-1.1746-8.0413-3.5337-1.8827-2.359-2.828-5.8234-2.8446-10.3827l6.7585-.9554c.0821,2.4387.3697,4.1611.8795,5.1663.7647,1.5329,1.9242,2.2994,3.4863,2.2994,1.5704,0,2.6886-.5474,3.3384-1.6525.6494-1.0947.9782-3.3746.9782-6.8386v-27.6437ZM300.6625,212.7752l-4.9084-15.8277-4.7684,15.8277h9.6768ZM313.7357,229.7377h-7.7038l-3.0503-9.7355h-14.1668l-2.9351,9.7355h-7.5645l13.7145-42.7645h7.5559l14.1501,42.7645ZM249.3919,229.7377v-42.4063h7.1531v35.1793h17.7104v7.227h-24.8636ZM229.7267,212.7752l-4.9089-15.8277-4.7684,15.8277h9.6773ZM242.7994,229.7377h-7.7039l-3.0503-9.7355h-14.1668l-2.9349,9.7355h-7.5642l13.7143-42.7645h7.5562l14.1497,42.7645Z" style="fill: #fff;"/>
</svg>