<?xml version="1.0" encoding="UTF-8"?>
<svg data-name="图层_1" xmlns="http://www.w3.org/2000/svg" version="1.1" viewBox="0 0 800 800">
  <!-- Created by @FCLOGO 2025-1-23 GMT+8 16:38:53 . https://fclogo.top/ -->
<!-- FOR PERSONAL USE ONLY NOT FOR COMMERCIAL USE -->
  <path d="M689.2553,363.7691c-25.7388-55.155-72.3135-73.5396-71.0878-107.8582s79.6685-73.5396,79.6685-73.5396c-53.9297-33.0929-85.7969-127.4689-85.7969-127.4689-20.836,19.6107-61.2831,50.2522-113.9863,50.2522s-98.0531-55.1546-98.0531-55.1546c0,0-45.3491,55.1546-98.0523,55.1546s-93.1511-30.6415-113.9871-50.2522c0,0-31.8664,94.376-85.7953,127.4689,0,0,78.4412,39.221,79.6677,73.5396,1.2249,34.3186-45.3498,52.7032-71.0886,107.8582-25.7388,55.1546-46.5747,154.433,56.3803,225.5212,102.955,71.0886,220.6192,126.3916,232.8753,160.7098,12.2569-34.3182,129.9203-89.6212,232.8753-160.7098,102.9558-71.0882,82.1198-170.3666,56.3803-225.5212Z"/>
  <path d="M673.8679,180.5994c-23.5912,13.8428-59.9852,39.0587-67.3941,66.4195H193.5303c-7.4089-27.3607-43.8029-52.5767-67.3941-66.4195,33.5348-29.7002,56.6056-77.7922,67.329-103.723,26.191,20.9915,63.2354,41.2682,108.4679,41.2682,43.2174,0,80.7815-31.7149,98.0689-49.0019,17.2874,17.287,54.8515,49.0019,98.0689,49.0019,45.2324,0,82.2769-20.2767,108.4671-41.2682,10.7242,25.9307,33.795,74.0227,67.3298,103.723Z" style="fill: #ea0200;"/>
  <path d="M323.7045,266.3205v405.6643c-11.1788-6.8889-23.331-14.2978-36.5241-22.2263-15.9221-9.5537-32.755-19.692-49.9115-30.35v-353.088h86.4356Z" style="fill: #ea0200;"/>
  <path d="M562.7352,266.3205v353.088c-17.1565,10.658-33.9894,20.7963-49.9115,30.35-13.1931,7.9285-25.3453,15.3374-36.5241,22.2263v-405.6643h86.4356Z" style="fill: #ea0200;"/>
  <polygon points="400 363.7018 419.7924 424.6165 483.8418 424.6165 432.0247 462.2638 451.8171 523.1785 400 485.5312 348.1829 523.1785 367.9753 462.2638 316.1581 424.6165 380.2076 424.6165 400 363.7018" style="fill: #fff;"/>
  <g>
    <polygon points="255.0743 204.6012 297.916 204.6012 297.916 218.3296 237.1315 218.3296 237.1315 142.8327 255.0743 142.8327 255.0743 204.6012" style="fill: #fff;"/>
    <path d="M360.1574,218.3438h37.3291c28.4507,0,35.7725-23.3286,35.7725-39.5459,0-14.3202-6.0014-35.9652-35.0522-35.9652h-38.0494v75.5111ZM377.7974,155.8416h17.2879c7.6846,0,19.8096,1.7906,19.8096,24.1155,0,12.4255-4.9227,25.3787-19.5686,25.3787h-17.5289v-49.4942h0Z" style="fill: #fff;"/>
    <path d="M513.0767,202.7925h31.7805l5.5176,15.5514h19.5478l-30.3419-75.5111h-20.747l-30.7024,75.5111h18.9485l5.9969-15.5514h0ZM528.9076,159.8866h.2396l10.673,29.897h-21.9463l11.0337-29.897h0Z" style="fill: #fff;"/>
  </g>
</svg>