<?xml version="1.0" encoding="UTF-8"?>
<svg data-name="图层_1" xmlns="http://www.w3.org/2000/svg" version="1.1" viewBox="0 0 800 800">
  <!-- Created by @FCLOGO 2025-1-23 GMT+8 16:38:53 . https://fclogo.top/ -->
<!-- FOR PERSONAL USE ONLY NOT FOR COMMERCIAL USE -->
  <path d="M680.9927,155.4794l-113.325-105.4794s-85.4296,53.6866-167.6675,53.6866-167.6679-53.6866-167.6679-53.6866l-113.325,105.4794c91.7123,131.1998-15.8872,151.6028-12.2102,275.4652,6.98,85.4315,40.1056,134.2486,86.3076,167.3741,46.2016,33.1259,172.3214,94.1471,206.8955,151.6814,34.5737-57.5342,160.6935-118.5555,206.8955-151.6814,46.2016-33.1255,79.3271-81.9426,86.3072-167.3741,3.677-123.8624-103.9221-144.2654-12.2102-275.4652Z"/>
  <path d="M328.4927,258.3896v387.7779c-22.0637-14.545-44.9283-28.1651-65.9445-40.7379-14.668-8.7514-27.9183-16.7016-38.6419-23.5428v-323.4972h104.5864Z" style="fill: #fff;"/>
  <path d="M319.2455,609.4602c-26.0624-13.7472-51.001-27.7033-76.2349-44.9931v-296.8334h76.2349v341.8265Z" style="fill: #ea0200;"/>
  <path d="M471.5074,258.3896v387.7779c22.0637-14.545,44.9283-28.1651,65.9445-40.7379,14.668-8.7514,27.9183-16.7016,38.6419-23.5428v-323.4972s-104.5864,0-104.5864,0Z" style="fill: #fff;"/>
  <path d="M480.7545,609.4602c26.0624-13.7472,51.001-27.7033,76.2349-44.9931v-296.8334s-76.2349,0-76.2349,0v341.8265Z" style="fill: #ea0200;"/>
  <path d="M641.1429,160.4594c-17.8726,30.5067-25.7614,56.4532-27.4869,79.3181H186.3733c-1.7258-22.865-9.6143-48.8114-27.4872-79.3181l77.9007-72.5389c32.4793,17.133,97.8689,46.5925,163.1968,46.5925s130.7796-29.4594,163.1972-46.5925l77.9621,72.5389Z" style="fill: #fff;"/>
  <path d="M195.4975,229.6084c-3.0153-21.5164-10.8575-43.6407-23.8035-67.1824l66.7761-62.184c35.4013,17.9925,98.2112,44.4382,161.5146,44.4382,63.4419,0,126.1795-26.4426,161.5146-44.4352l66.8303,62.184c-12.9399,23.5417-20.7822,45.663-23.7975,67.1794H195.4975Z" style="fill: #ea0200;"/>
  <g>
    <path d="M221.9292,155.9174h15.7988v44.2366h39.8618v13.6501h-55.6606v-57.8867Z" style="fill: #fff;"/>
    <path d="M304.9044,196.4452c1.4023,0,2.8167.3732,4.2371,1.1164,1.4144.7433,2.5158,1.8056,3.3042,3.1808s1.1796,2.8498,1.1796,4.4237c-.0301,1.5739-.4213,3.0273-1.1796,4.3605s-1.8116,2.3864-3.1598,3.1598-2.8107,1.1435-4.3815,1.1164c-1.5708,0-3.0334-.3792-4.3815-1.1375s-2.4014-1.8056-3.1598-3.1387-1.1375-2.7866-1.1375-4.3605.3792-3.0334,1.1375-4.3815c.7884-1.4053,1.8898-2.4706,3.3042-3.2019,1.4204-.7313,2.8348-1.1104,4.2371-1.1375Z" style="fill: #fff;"/>
    <path d="M361.9578,155.8753h54.0926c11.3168,0,20.4909,9.1741,20.4909,20.4909v16.9471c0,11.3168-9.1741,20.4909-20.4909,20.4909h-54.0926v-57.9288ZM377.7145,169.1041v31.5554h29.1885c6.8522,0,12.4071-5.5548,12.4071-12.4071v-6.7413c0-6.8522-5.5548-12.4071-12.4071-12.4071h-29.1885Z" style="fill: #fff;"/>
    <path d="M457.352,196.4452c1.4023,0,2.8167.3732,4.2371,1.1164,1.4144.7433,2.5158,1.8056,3.3042,3.1808s1.1796,2.8498,1.1796,4.4237c-.0301,1.5739-.4213,3.0273-1.1796,4.3605s-1.8116,2.3864-3.1598,3.1598-2.8107,1.1435-4.3815,1.1164c-1.5708,0-3.0334-.3792-4.3815-1.1375s-2.4014-1.8056-3.1598-3.1387-1.1375-2.7866-1.1375-4.3605.3792-3.0334,1.1375-4.3815c.7884-1.4053,1.8898-2.4706,3.3042-3.2019,1.4204-.7313,2.8348-1.1104,4.2371-1.1375Z" style="fill: #fff;"/>
    <path d="M593.6326,196.4452c1.4023,0,2.8167.3732,4.2371,1.1164,1.4144.7433,2.5158,1.8056,3.3042,3.1808s1.1796,2.8498,1.1796,4.4237c-.0301,1.5739-.4213,3.0273-1.1796,4.3605s-1.8116,2.3864-3.1598,3.1598-2.8107,1.1435-4.3815,1.1164c-1.5708,0-3.0334-.3792-4.3815-1.1375s-2.4014-1.8056-3.1598-3.1387-1.1375-2.7866-1.1375-4.3605.3792-3.0334,1.1375-4.3815c.7884-1.4053,1.8898-2.4706,3.3042-3.2019,1.4204-.7313,2.8348-1.1104,4.2371-1.1375Z" style="fill: #fff;"/>
    <path d="M513.5131,155.791h28.5136l26.6683,58.0131h-17.9474l-3.9073-9.0784h-33.2527l-4.2022,9.0784h-22.1195l26.247-58.0131ZM519.3282,191.3909h21.9401l-9.2421-20.096h-6.0271l-6.6709,20.096Z" style="fill: #fff;"/>
  </g>
  <path d="M400.3184,408.2898l10.7527,18.758c.0542.0946.1463.1615.253.1838l21.1627,4.4299c.2887.0604.4028.4115.2047.6301l-14.5171,16.0229c-.0732.0808-.1084.1891-.0967.2975l2.3266,21.4958c.0317.2933-.2669.5102-.536.3894l-19.7247-8.8553c-.0995-.0447-.2133-.0447-.3128,0l-19.7247,8.8553c-.2691.1208-.5677-.0962-.536-.3894l2.3266-21.4958c.0117-.1084-.0234-.2167-.0967-.2975l-14.5171-16.0229c-.1981-.2186-.084-.5697.2047-.6301l21.1627-4.4299c.1067-.0223.1988-.0892.253-.1838l10.7527-18.758c.1467-.2559.5158-.2559.6625,0Z" style="fill: #fff;"/>
</svg>