<?xml version="1.0" encoding="utf-8"?>
<!-- Generator: Adobe Illustrator 28.4.0, SVG Export Plug-In . SVG Version: 6.00 Build 0)  -->
<svg version="1.1" id="Capa_1" xmlns="http://www.w3.org/2000/svg" xmlns:xlink="http://www.w3.org/1999/xlink" x="0px" y="0px"
	 viewBox="0 0 800 800" style="enable-background:new 0 0 800 800;" xml:space="preserve">
<style type="text/css">
	.Sombra_x0020_paralela{fill:none;}
	.Esquinas_x0020_redondeadas_x0020_2_x0020_pt_x002E_{fill:#FFFFFF;stroke:#1A1818;stroke-miterlimit:10;}
	.Reflejo_x0020_vivo_x0020_X{fill:none;}
	.Bisel_x0020_suave{fill:url(#SVGID_1_);}
	.Atardecer{fill:#FFFFFF;}
	.Follaje_GS{fill:#FFD600;}
	.Pompadour_GS{fill-rule:evenodd;clip-rule:evenodd;fill:#3E9EDD;}
	.st0{fill:#FFFFFF;}
	.st1{fill:#F9100C;}
</style>
<linearGradient id="SVGID_1_" gradientUnits="userSpaceOnUse" x1="0" y1="0" x2="0.7071" y2="0.7071">
	<stop  offset="0" style="stop-color:#D6D7DC"/>
	<stop  offset="0.1713" style="stop-color:#D2D3D8"/>
	<stop  offset="0.3468" style="stop-color:#C6C7CC"/>
	<stop  offset="0.5244" style="stop-color:#B1B3B7"/>
	<stop  offset="0.7033" style="stop-color:#94979A"/>
	<stop  offset="0.8816" style="stop-color:#707476"/>
	<stop  offset="1" style="stop-color:#535859"/>
</linearGradient>
<path class="st0" d="M394.3567,741.1755c-0.3083-0.3745-31.872-37.9461-119.4721-82.9088
	C153.7576,596.0966,92.3268,524.8432,92.2968,446.4787c-0.0362-3.0719-0.0353-52.1187,34.524-101.0679
	c1.4101-2.2161,12.6128-19.6015,29.4453-39.5532l0.1537-0.1775c21.8878-24.6175,23.5258-38.136,23.6463-39.9352l-0.0685-0.3758
	l0.0768,0.2062c-1.4825-27.8121-49.3268-59.6784-67.6365-69.6101l-13.1542-7.1353l12.4326-8.329
	c52.9772-35.4911,76.9517-113.1282,77.1875-113.9081l3.7401-12.3633l10.3384,7.7426c0.5352,0.4001,54.3679,40.2549,98.7105,40.2549
	c50.6768,0,92.6139-44.4981,93.0317-44.9476L401.4885,50l6.6129,7.4175c0.3939,0.4399,40.7274,44.8094,91.0956,44.8094
	c44.2949,0,97.5919-40.2169,98.1245-40.6228l10.4382-7.9528l3.7211,12.5819c0.2234,0.7543,23.1791,76.4134,77.4503,114.0971
	l12.0068,8.3365l-12.8185,7.024c-18.3089,10.0522-66.158,42.2281-67.6392,70.0023l-0.0123,0.2376
	c0.0406,1.131,1.0255,14.245,23.9634,39.7051l0.1935,0.2217c16.8329,19.953,28.0352,37.3389,29.444,39.5532
	c34.3044,48.591,33.7242,97.4925,33.6199,101.3611c-0.0654,78.8812-59.6096,147.9839-182.0287,211.2651
	c-87.393,44.8575-116.8237,82.5016-117.1108,82.877L401.5936,750L394.3567,741.1755z"/>
<path d="M666.5532,350.4471c0,0-11.4001-18.0827-28.8418-38.7572c-28.1716-31.2704-26.2623-46.4785-26.2623-46.4785
	c2.0769-38.9582,72.3236-77.4519,72.3236-77.4519c-57.6501-40.0301-80.9661-118.9637-80.9661-118.9637
	s-55.6404,42.4755-103.6095,42.4755c-55.2047,0-97.8475-47.8352-97.8475-47.8352s-44.4519,47.8352-99.6566,47.8352
	c-47.9691,0-104.1319-42.0595-104.1319-42.0595s-24.534,81.1014-80.8106,118.8034c0,0,70.2789,38.1208,72.3557,77.0789
	c0,0,1.4739,15.7776-25.9274,46.5958c-17.4418,20.6745-28.8418,38.7572-28.8418,38.7572
	c-33.766,47.7012-32.9956,95.9718-32.9956,95.9718c0,90.0426,86.8269,157.1727,177.6735,203.8019
	c90.8466,46.6293,122.3348,85.2189,122.3348,85.2189s29.3108-38.8074,120.1574-85.4366
	c93.0574-48.1031,177.1375-113.3238,177.1375-203.3665C698.6445,446.6366,700.3192,398.1482,666.5532,350.4471z"/>
<path class="st1" d="M653.9749,184.9836c-30.4999-32.0409-48.5805-67.0786-58.3033-90.5284
	c-21.9955,13.6259-60.2416,32.6941-95.6034,32.6941c-43.8427,0-80.4392-24.8947-98.5847-40.7336
	c-18.5831,15.7448-54.9728,41.0015-98.8526,41.0015c-35.4333,0-73.4388-19.2804-95.5363-32.761
	c-9.789,23.6119-27.4014,58.5545-57.9181,90.0091c19.5418,13.5424,48.3406,38.3898,56.7417,66.0581h390.9174
	C605.4421,223.3692,633.6082,199.0334,653.9749,184.9836z"/>
<path class="st1" d="M243.4065,268.6114v339.8683c13.4221,8.2081,27.9148,16.356,43.4805,24.4561
	c16.5606,8.4999,31.2146,16.9047,44.1504,24.9664V268.6114H243.4065z"/>
<path class="st1" d="M471.193,268.6114v389.8132c12.4565-7.5858,26.5349-15.5319,42.423-23.6867
	c16.4315-8.494,31.6255-17.0549,45.6097-25.6928V268.6114H471.193z"/>
<polygon class="st0" points="486.2503,420.8263 421.482,420.8263 401.3161,358.7545 381.1503,420.8263 316.7001,420.8263 
	368.2536,458.8131 349.2602,521.8229 401.3161,483.4341 453.372,521.8229 434.3787,458.8131 "/>
<g>
	<path class="st0" d="M364.1253,229.4041v-80.864h31.8976c15.8785,1.5219,23.785,3.6809,31.2917,11.0415
		c7.5059,7.3614,11.2605,17.1156,11.2605,29.2642c0,12.0219-3.8501,21.788-11.5476,29.2956
		c-7.6984,7.5089-18.0333,11.2627-31.0047,11.2627H364.1253z M381.6863,214.4116h13.9576
		c9.1184-1.218,13.1612-1.9927,17.5305-6.3981c4.3675-4.4035,7.4366-10.8813,7.4366-19.016c0-8.0895-2.5305-13.8292-6.8336-18.1668
		c-4.3031-4.3367-13.1526-6.9782-21.1037-6.9782h-10.9874V214.4116z"/>
	<polygon class="st0" points="260.591,213.5741 260.591,148.4205 243.5069,148.4205 243.5069,229.8207 253.7239,229.8207 
		260.591,229.8207 304.9088,229.8207 304.9088,213.5741 	"/>
	<path class="st0" d="M527.0174,152.2393h-8.3912h-8.8435l-32.1581,75.4375c1.3399,0,17.285,0,17.285,0l6.8336-17.5712h16.8831
		h16.146l6.9843,17.5712c0,0,16.5312,0,17.8712,0L527.0174,152.2393z M507.7728,194.564l10.8534-25.1403l10.5016,25.1403H507.7728z"
		/>
</g>
<g>
</g>
<g>
</g>
<g>
</g>
<g>
</g>
<g>
</g>
<g>
</g>
</svg>
