<?xml version="1.0" encoding="utf-8"?>
<!-- Created by @FCLOGO 2021-12-13 19:05:14 . https://fclogo.top/ -->
<!-- FOR PERSONAL USE ONLY NOT FOR COMMERCIAL USE -->
<svg version="1.1" xmlns="http://www.w3.org/2000/svg" xmlns:xlink="http://www.w3.org/1999/xlink" x="0px" y="0px"
	 viewBox="0 0 800 800" style="enable-background:new 0 0 800 800;" xml:space="preserve">
<path style="fill-rule:evenodd;clip-rule:evenodd;fill:#FFFFFF;" d="M750,399.97C750,593.31,593.31,750,400,750
	C206.7,750,50,593.31,50,399.97C50,206.71,206.7,50,400,50C593.31,50,750,206.71,750,399.97"/>
<path style="fill:none;stroke:#007DA9;stroke-width:5.5601;" d="M732.5,399.97c0,183.66-148.84,332.51-332.49,332.51
	c-183.64,0-332.51-148.85-332.51-332.51C67.49,216.34,216.36,67.49,400,67.49C583.65,67.49,732.5,216.34,732.5,399.97z"/>
<path style="fill-rule:evenodd;clip-rule:evenodd;fill:#007DA9;" d="M630.39,547.44c9.24,9.24,7.6,25.88-3.67,37.16
	c-9.36,9.36-22.44,12.07-31.86,7.41c4.63,9.48,1.89,22.53-7.46,31.91c-11.25,11.25-27.92,12.91-37.15,3.64
	c-7.58-7.55-7.86-20.02-1.57-30.49c0.17,2.04,0.67,4.12,1.57,6.11c3.86,8.67,13.31,12.85,21.16,9.35c7.81-3.46,11.07-13.32,7.21-22
	l-35.99-35.99h-47.49c13.38,17.43,21.23,38.72,21.23,61.75c0,58.93-51.48,106.65-114.97,106.65c-63.49,0-114.92-47.73-114.92-106.65
	c0-23.03,7.85-44.32,21.21-61.75H260.2l-35.99,36.02c-3.86,8.67-0.64,18.51,7.23,22c7.83,3.47,17.32-0.7,21.15-9.38
	c0.89-1.99,1.44-4.07,1.61-6.08c6.24,10.46,5.97,22.94-1.61,30.49c-9.22,9.26-25.89,7.62-37.16-3.67
	c-9.36-9.36-12.07-22.44-7.45-31.88c-9.42,4.63-22.49,1.91-31.86-7.44c-11.3-11.27-12.95-27.92-3.66-37.16
	c7.54-7.56,20.02-7.84,30.45-1.57c-2.01,0.18-4.09,0.67-6.07,1.57c-8.69,3.86-12.86,13.33-9.39,21.16
	c3.49,7.86,13.35,11.07,22.2,7.13l35.89-35.89v-47.45c-17.46,13.36-38.77,21.21-61.78,21.21c-58.92,0-106.67-51.47-106.67-114.96
	c0-63.47,47.74-114.94,106.67-114.94c23.01,0,44.32,7.88,61.78,21.25v-47.79l-35.68-35.69c-8.87-3.99-18.71-0.74-22.24,7.11
	c-3.45,7.82,0.74,17.31,9.39,21.15c1.98,0.92,4.06,1.43,6.1,1.59c-10.46,6.25-22.94,5.97-30.5-1.59c-9.21-9.24-7.6-25.88,3.67-37.14
	c9.36-9.37,22.45-12.11,31.89-7.45c-4.66-9.46-1.93-22.51,7.41-31.9c11.3-11.27,27.94-12.91,37.18-3.64
	c7.56,7.53,7.86,20.01,1.56,30.47c-0.13-2.04-0.65-4.12-1.56-6.1c-3.84-8.67-13.3-12.85-21.15-9.36
	c-7.83,3.47-11.07,13.35-7.24,21.98l36.12,36.17h47.21c-13.33-17.44-21.21-38.77-21.21-61.81c0-58.9,51.43-106.64,114.92-106.64
	c63.49,0,114.97,47.74,114.97,106.64c0,23.04-7.85,44.37-21.23,61.81h47.52l35.8-35.85c3.84-8.69,0.62-18.51-7.19-22.02
	c-7.85-3.47-17.32,0.72-21.2,9.36c-0.87,2.03-1.37,4.07-1.54,6.12c-6.31-10.46-5.97-22.92,1.54-30.49
	c9.29-9.24,25.92-7.61,37.2,3.66c9.36,9.36,12.07,22.44,7.42,31.9c9.48-4.65,22.52-1.91,31.88,7.44
	c11.29,11.25,12.91,27.89,3.66,37.16c-7.55,7.55-20.03,7.85-30.47,1.56c2.04-0.17,4.09-0.69,6.09-1.56
	c8.67-3.84,12.84-13.35,9.37-21.2c-3.5-7.81-13.33-11.05-22.2-7.11l-35.7,35.72v47.46c17.41-13.33,38.71-21.21,61.75-21.21
	c58.89,0,106.65,51.47,106.65,114.94c0,63.49-47.75,114.96-106.65,114.96c-23.04,0-44.34-7.85-61.75-21.18v47.46l35.85,35.85
	c8.85,3.94,18.7,0.72,22.2-7.13c3.49-7.85-0.7-17.32-9.39-21.16c-1.98-0.9-4.06-1.43-6.07-1.59
	C610.37,539.59,622.83,539.88,630.39,547.44 M536.9,470.5v-18.31h7.44c1.37,0,2.38,1.19,2.79,1.78
	c16.01,24.18,42.26,39.91,71.94,39.91c48.8,0,88.34-42.63,88.34-95.23c0-52.57-39.54-95.24-88.34-95.24
	c-29.68,0-55.93,15.8-71.98,39.95c-0.37,0.57-1.89,1.74-2.75,1.74h-7.44v-17.98l-0.1-56.01c0-4.33-3.49-7.85-7.83-7.85h-55.14
	l-18.9-0.13v-7.45c0-1.37,1.21-2.38,1.81-2.77c24.16-16.05,39.89-42.27,39.89-71.96c0-48.8-42.6-88.36-95.23-88.36
	c-52.59,0-95.21,39.56-95.21,88.36c0,29.68,15.75,55.94,39.91,71.96c0.57,0.39,1.74,1.9,1.74,2.77v7.45h-15.9l-58.07,0.13
	c-4.34,0-7.86,3.52-7.86,7.85v56.01l-0.08,18.01h-7.48c-1.34,0-2.36-1.21-2.75-1.79c-16.05-24.13-42.29-39.93-71.91-39.93
	c-48.83,0-88.4,42.66-88.4,95.23c0,52.64,39.57,95.25,88.4,95.25c29.65,0,55.89-15.78,71.92-39.94c0.37-0.57,1.91-1.73,2.73-1.73
	h7.48v18.28l0.08,55.68c0,4.34,3.52,7.86,7.86,7.86h58.07l15.96,0.09v7.44c0,1.38-1.24,2.4-1.81,2.79
	c-24.16,16.03-39.91,42.29-39.91,71.94c0,48.8,42.63,88.34,95.21,88.34c52.63,0,95.25-39.55,95.25-88.34
	c0-29.68-15.75-55.91-39.91-71.94c-0.6-0.39-1.74-1.91-1.74-2.79v-7.44h18.83l55.14-0.09c4.34,0,7.83-3.52,7.83-7.86V470.5H536.9z
	 M422.74,294.28c0,0,26.93,22.91,43.03,39.01c18.95,18.98,40.59,44.64,40.59,44.64v41.44c0,0-21.45,25.88-39.42,43.87
	c-16.65,16.64-44.24,39.79-44.24,39.79h-42.56c0,0-26.41-22.99-43.83-40.38c-17.37-17.41-39.26-42.75-39.26-42.75v-42.56
	c0,0,21.94-25.54,39.84-43.45c16.95-16.94,43.25-39.61,43.25-39.61H422.74z M599.95,336.28c13.82,0,25.05,11.2,25.05,25.02
	c0,6.86-2.79,13.08-7.25,17.57h18.61c8.37-6.24,13.79-16.27,13.79-27.52c0-9.81-4.13-18.68-10.74-24.94
	c19.75,5,34.38,22.87,34.38,44.15c0,10.55-3.62,20.27-9.61,27.99c5.99,7.73,9.61,17.46,9.61,28.01c0,21.3-14.62,39.17-34.38,44.15
	c6.61-6.25,10.74-15.09,10.74-24.93c0-11.27-5.44-21.27-13.8-27.55h-18.63c4.49,4.51,7.28,10.78,7.28,17.63
	c0,13.82-11.24,25.02-25.05,25.02c-11.07,0-20.49-7.25-23.76-17.26c2.99,2.57,6.86,4.11,11.12,4.11c9.44,0,17.08-7.68,17.08-17.14
	c0-8.97-6.92-16.33-15.74-17.04h-32.04L416.33,553.78v32.07c0.72,8.85,8.08,15.77,17.07,15.77c9.44,0,17.1-7.65,17.1-17.09
	c0-4.24-1.52-8.13-4.09-11.12c10.03,3.27,17.27,12.71,17.27,23.8c0,13.82-11.2,25.02-25.02,25.02c-6.86,0-13.08-2.78-17.61-7.23
	v18.58c6.27,8.38,16.3,13.78,27.55,13.78c9.84,0,18.68-4.09,24.93-10.7c-4.96,19.75-22.85,34.37-44.15,34.37
	c-10.58,0-20.27-3.59-28.02-9.64c-7.71,6.05-17.44,9.64-28,9.64c-21.3,0-39.14-14.61-44.14-34.37c6.24,6.61,15.13,10.7,24.95,10.7
	c11.27,0,21.26-5.4,27.53-13.78v-18.63c-4.49,4.49-10.77,7.28-17.61,7.28c-13.82,0-24.99-11.2-24.99-25.02
	c0-11.09,7.18-20.53,17.19-23.8c-2.56,2.99-4.07,6.88-4.07,11.12c0,9.45,7.66,17.09,17.1,17.09c9.02,0,16.37-6.91,17.05-15.77
	l0.03-32.18L246.35,413.55h-31.91c-8.8,0.7-15.71,8.07-15.71,17.04c0,9.46,7.65,17.14,17.07,17.14c4.24,0,8.12-1.54,11.1-4.11
	c-3.27,10.01-12.68,17.26-23.78,17.26c-13.82,0-25.02-11.24-25.02-25.02c0-6.84,2.75-13.08,7.23-17.59h-18.6
	c-8.35,6.29-13.78,16.29-13.78,27.55c0,9.81,4.13,18.65,10.72,24.94c-19.74-4.98-34.36-22.86-34.36-44.16
	c0-10.58,3.59-20.29,9.63-28c-6.04-7.71-9.63-17.44-9.63-27.99c0-21.3,14.62-39.19,34.36-44.19c-6.59,6.29-10.72,15.13-10.72,24.94
	c0,11.29,5.43,21.3,13.82,27.59h18.58c-4.46-4.56-7.24-10.78-7.24-17.64c0-13.82,11.2-25.02,25.02-25.02
	c11.1,0,20.51,7.26,23.78,17.27c-2.98-2.57-6.86-4.09-11.1-4.09c-9.42,0-17.07,7.65-17.07,17.1c0,8.99,6.91,16.35,15.71,17.07h32.01
	l139.99-140.03v-32.18c-0.69-8.8-8.05-15.71-17.04-15.71c-9.44,0-17.12,7.61-17.12,17.07c0,4.24,1.58,8.12,4.09,11.1
	c-10-3.27-17.22-12.68-17.22-23.81c0-13.78,11.19-24.99,25-24.99c6.88,0,13.08,2.75,17.57,7.23v-18.6
	c-6.27-8.35-16.27-13.77-27.5-13.77c-9.86,0-18.68,4.11-24.99,10.7c5-19.74,22.87-34.36,44.17-34.36c10.57,0,20.27,3.59,28,9.63
	c7.72-6.04,17.44-9.63,28-9.63c21.3,0,39.19,14.62,44.17,34.36c-6.27-6.59-15.13-10.7-24.95-10.7c-11.27,0-21.3,5.42-27.57,13.8
	v18.58c4.53-4.49,10.75-7.25,17.64-7.25c13.83,0,25.02,11.2,25.02,24.99c0,11.14-7.25,20.54-17.24,23.81
	c2.55-2.99,4.09-6.86,4.09-11.1c0-9.46-7.68-17.07-17.1-17.07c-9.02,0-16.4,6.91-17.1,15.71v32.11l140.05,140.09h32.23
	c8.82-0.69,15.74-8.08,15.74-17.07c0-9.46-7.64-17.1-17.08-17.1c-4.26,0-8.13,1.53-11.12,4.09
	C579.46,343.54,588.88,336.28,599.95,336.28 M426.16,384.54l-1.94,6.57h-20.83c0,0-1.95,1.14-1.95,6.56v18.51l-4.23,5.38
	c0,0-0.37,6.19,1.53,6.19c1.93,0,9.28-1.93,10.82-3.1c1.54-1.14,5.03-1.93,8.85-1.54c3.88,0.4,5.4,0,5.4,5.42v18.11
	c0,0,1.57,6.92,5.4,6.14c3.89-0.74,5.42-8.84,5.42-8.84v-20.83h8.1c0,0,7.75,1.91,15.06,4.64c7.31,2.67,11.55-1.16,12.71-3.1
	c1.14-1.93-1.16-7.33-1.16-7.33s-9.64-1.14-14.27-1.93c-4.6-0.74-20.06,0-20.06,0v-15.02l11.19-1.16c0,0,5.4-4.65,1.93-6.96
	c-3.45-2.31-11.94,0-11.94,0l-3.08-7.68L426.16,384.54z M424.62,401.51v14.67h-13.14c0,0-1.12-9.64,0.77-11.57
	c1.98-1.93-0.77-3.07,3.88-3.47C420.72,400.77,424.62,401.51,424.62,401.51 M380.26,378.37h-6.57c0,0-3.87,11.2-8.1,14.67
	c-4.26,3.47-16.97,11.94-20.81,12.32c-3.87,0.4-6.2,3.09-6.57,5.42c-0.37,2.3,0.37,5,3.07,5.4c2.73,0.37,16.2-4.65,17.37-6.94
	c1.14-2.33,10.01,6.54,10.01,6.54s-1.63,3.39-7.7,6.54c-4.86,2.6-20.42,8.54-22.39,8.54c-1.89,0-3.44,5.36-0.74,7.31
	c2.7,1.91,10.01,2.3,14.24,1.53c4.24-0.75,19.85-9.53,21.67-11.59c1.61-1.81,2.82-2.48,3.39,3.49c0.8,7.78-4.18,15.13-4.18,18.31
	c0,1.93,5.75,5.2,9.61-0.17c3.84-5.43,4.58-12.71,4.61-16.2c0.09-4.65-3.1-12.98-3.1-12.98s3.1-4.38,6.2-9.02
	c3.07-4.63,10.8-14.62,7.7-18.13c-3.07-3.47-12.73-5.38-12.73-5.38s-3.49-2.31-3.86-4.63C381,381.08,380.26,378.37,380.26,378.37
	 M376.39,394.97c0,0-5.77,5.77-6.96,7.31c-1.14,1.56,3.1,3.09,4.26,4.63c1.14,1.54,4.24,1.94,4.24,1.94s6.54-4.65,6.94-7.34
	c0.37-2.7,1.93-3.89-1.91-5.43C379.12,394.53,376.39,394.97,376.39,394.97 M429.61,345.6c0,0-4.22,2.32-5.8,5.01
	c-1.53,2.7,0.4,7.33,2.71,8.1c2.31,0.77,12.34,3.47,12.34,3.47s5.4,2.3,5.4-1.16c0-3.49-4.61-8.12-6.91-10.41
	c-2.35-2.3-2.73-4.28-4.26-4.65C431.53,345.58,429.61,345.6,429.61,345.6 M397.32,346.57c0,0-3.59,4.83-1.28,9.84
	c2.33,5.01,3.49,10.78,3.49,10.78h-45.88c0,0-3.87-3.87-5.8-3.09c-1.91,0.77-4.26,6.54-5.4,15.43c-1.17,8.85,2.33,16.57,2.33,16.57
	s6.52-0.37,7.29-4.24c0.8-3.84,1.58-14.64,1.58-14.64s-0.77-0.77,5.77-1.54c6.54-0.77,8.1-1.56,11.54-1.56h74.87
	c0,0,5.77,1.17,6.17,5.42c0.37,4.23,2.3,15.83,2.3,15.83s4.63,3.07,7.75,0c3.05-3.12,3.42-8.13,2.65-10.43
	c-0.75-2.31-3.82-13.52-3.45-15.45c0.37-1.91-0.77-1.91-5-3.07c-4.24-1.14-50.94,0-50.94,0s0.4-3.1,1.17-6.94
	c0.77-3.86,1.91-6.94-0.77-10.03c-2.72-3.09-5.23-3.14-5.23-3.14L397.32,346.57z M360.56,359.08l6.2-9.99c0,0,6.17-3.12,9.99,0.37
	c3.88,3.45,1.54,7.71-0.77,8.85c-2.3,1.17-10.03,6.57-12.34,6.17c-2.31-0.37-3.45-0.77-4.23-2.66
	C358.65,359.85,360.56,359.08,360.56,359.08 M426.16,330.94c0,0-8.52,5.03-17.37,5.03c-8.89,0-30.08,2.3-32.4,1.14
	c-2.33-1.14-11.57-2.31-12.74,0.77c-1.12,3.09-1.12,6.96,6.98,8.08c8.08,1.17,17.3,1.17,19.65,1.17c2.3,0,23.95-1.93,26.98-1.93
	c3.1,0,13.94-2.33,14.71-6.54c0.75-4.24,0.34-7.28-1.61-7.28C428.42,331.4,426.16,330.94,426.16,330.94"/>
<g>
</g>
<g>
</g>
<g>
</g>
<g>
</g>
<g>
</g>
<g>
</g>
<g>
</g>
<g>
</g>
<g>
</g>
<g>
</g>
<g>
</g>
</svg>
