<?xml version="1.0" encoding="UTF-8"?>
<svg data-name="图层_1" xmlns="http://www.w3.org/2000/svg" version="1.1" viewBox="0 0 800 800">
  <!-- Created by @FCLOGO 2025-1-21 GMT+8 21:56:15 . https://fclogo.top/ -->
<!-- FOR PERSONAL USE ONLY NOT FOR COMMERCIAL USE -->
  <path d="M348.2194,774.301c-.786,0-1.3752-.2173-1.7682-.6519-.393-.4352-.5284-1.03-.406-1.7856l.2518-1.6478c.122-.755.4501-1.3504.9841-1.785.5339-.4352,1.1939-.6525,1.9799-.6525.7553,0,1.3293.1987,1.7223.5954.3927.3967.551.9381.4747,1.6248h-1.2358c.0304-.3589-.0553-.637-.2573-.8357-.2024-.1981-.4979-.2974-.8869-.2974-.4197,0-.763.1167-1.03.3489-.2673.2328-.4349.5631-.5035.9903l-.2632,1.659c-.0686.4352-.0056.7686.1887,1.0015.1946.2328.5017.3489.9214.3489.389,0,.7152-.0987.9785-.2974.2632-.1981.4365-.4805.5206-.8469h1.2358c-.1372.6867-.4672,1.2306-.9897,1.631-.5228.4005-1.1616.6004-1.9169.6004ZM352.7967,774.1868l.9956-6.2943h1.1902l-.1946,1.1902c.3359-.8698.9729-1.3044,1.9113-1.3044.6712,0,1.1691.208,1.4932.624.3244.416.4293.9859.3148,1.7105l-.0686.4234h-1.2703l.0571-.3204c.0689-.4501.0115-.7953-.1714-1.0356-.1832-.2403-.4771-.3607-.8813-.3607-.4045,0-.7401.1223-1.007.3663-.2673.2446-.4349.588-.5035,1.03l-.6296,3.9711h-1.2358ZM361.9058,774.301c-.7705,0-1.3463-.2229-1.7279-.6693s-.515-1.0356-.4005-1.7682l.2518-1.6478c.0838-.488.2573-.9152.5206-1.2815s.6007-.6507,1.0129-.8524c.4119-.2024.8732-.3036,1.3845-.3036.7705,0,1.3485.2235,1.7338.6693.3852.4464.5169,1.0356.3949,1.7682l-.1717,1.1213h-3.845l-.0916.5265c-.1527.9536.2173,1.4305,1.1098,1.4305.7171,0,1.175-.2477,1.3734-.7438h1.2247c-.1679.5339-.5035.9599-1.007,1.2759-.5038.3166-1.0912.475-1.7626.475ZM361.2306,770.2157l-.0456.2862,2.6548-.0118.0459-.2856c.0686-.4656.0133-.822-.1661-1.0704-.1791-.2477-.4861-.3719-.9211-.3719-.4427,0-.7953.126-1.0586.3775-.2632.2521-.4331.6109-.5094,1.076ZM368.3258,774.301c-.6333,0-1.1027-.2117-1.4078-.6351s-.3967-1.0008-.2744-1.7335l.2744-1.7738c.1145-.7326.393-1.3119.8357-1.7397.4424-.4272.98-.6407,1.6133-.6407.4653,0,.8298.1186,1.093.3545.2632.2365.3908.5575.3834.9617h.023l.1717-1.202h1.2358l-.9956,6.2943h-1.2247l.1946-1.2014h-.023c-.122.4116-.3511.7339-.6867.9667s-.7401.3489-1.2129.3489ZM368.9324,773.2257c.389,0,.7152-.1186.9782-.3551.2632-.2359.4293-.5718.4979-1.007l.2518-1.6478c.0686-.4272.0096-.7612-.1773-1.0015-.1872-.2403-.475-.3601-.8642-.3601-.3967,0-.7249.118-.9841.3545-.2595.2365-.4234.5724-.492,1.007l-.2518,1.6478c-.0686.4427-.0133.7804.1658,1.0133.1794.2328.4712.3489.8757.3489ZM376.3477,774.1868c-.5721,0-.9937-.1565-1.2644-.4694-.271-.3123-.3607-.7512-.2691-1.3156l.538-3.3874h-1.7394l.1714-1.1219h1.7397l.2747-1.7161h1.2358l-.2747,1.7161h2.472l-.1832,1.1219h-2.4605l-.5377,3.3874c-.0764.4421.099.6637.5262.6637h1.7167l-.1717,1.1213h-1.7738ZM382.5042,774.301c-.7705,0-1.3463-.2229-1.7279-.6693s-.515-1.0356-.4005-1.7682l.2518-1.6478c.0838-.488.2573-.9152.5206-1.2815s.6007-.6507,1.0129-.8524c.4119-.2024.8732-.3036,1.3845-.3036.7705,0,1.3485.2235,1.7338.6693.3852.4464.5169,1.0356.3949,1.7682l-.1717,1.1213h-3.845l-.0916.5265c-.1527.9536.2173,1.4305,1.1098,1.4305.7171,0,1.175-.2477,1.3734-.7438h1.2247c-.1679.5339-.5035.9599-1.007,1.2759-.5038.3166-1.0912.475-1.7626.475ZM381.829,770.2157l-.0456.2862,2.6548-.0118.0459-.2856c.0686-.4656.0133-.822-.1661-1.0704-.1791-.2477-.4861-.3719-.9211-.3719-.4427,0-.7953.126-1.0586.3775-.2632.2521-.4331.6109-.5094,1.076ZM388.9243,774.301c-.6333,0-1.1008-.2117-1.4019-.6351-.3014-.4234-.3949-1.0008-.2803-1.7335l.2744-1.7738c.1145-.7326.393-1.3119.8357-1.7397.4424-.4272.98-.6407,1.6133-.6407.4653,0,.8298.1186,1.093.3545.2632.2365.3908.5575.3834.9617h.023l.2058-1.4652.2977-1.7962h1.2358l-1.3274,8.3537h-1.2247l.1946-1.2014h-.023c-.122.4116-.3511.7339-.6867.9667s-.7401.3489-1.2129.3489ZM389.5309,773.2257c.389,0,.7152-.1186.9782-.3551.2632-.2359.4293-.5718.4979-1.007l.2518-1.6478c.0761-.4272.0189-.7612-.1717-1.0015-.1909-.2403-.4805-.3601-.8698-.3601-.3967,0-.7249.118-.9841.3545-.2595.2365-.4234.5724-.492,1.007l-.2518,1.6478c-.0764.4427-.023.7804.1602,1.0133s.4768.3489.8813.3489ZM401.0175,774.301c-.4731,0-.8394-.1161-1.0986-.3489-.2595-.2328-.3852-.5551-.3775-.9667h-.0115l-.1946,1.2014h-1.2243l1.3274-8.3537h1.2358l-.2862,1.7962-.2744,1.4652h.0456c.122-.4123.353-.7345.6923-.9673.3396-.2322.7419-.3489,1.2076-.3489.633,0,1.1002.2136,1.4016.6407.3014.4278.3949,1.007.2806,1.7397l-.2747,1.7738c-.1145.7326-.3949,1.31-.8413,1.7335-.4461.4234-.9822.6351-1.6077.6351ZM400.7657,773.2257c.3967,0,.7227-.1161.9785-.3489.2555-.2328.4216-.5706.4976-1.0133l.2518-1.6478c.0689-.4346.0115-.7705-.1714-1.007-.1832-.2365-.4734-.3545-.8698-.3545-.3893,0-.7152.1198-.9785.3601s-.429.5743-.4979,1.0015l-.2518,1.6478c-.0686.4352-.0112.7711.1717,1.007.1832.2365.4731.3551.8698.3551ZM405.4694,776.2468l.1717-1.0642h1.934c.6407,0,1.007-.3017,1.0986-.9046l.1028-.6749.2061-1.1902h-.0345c-.122.4197-.3471.7438-.6752.9729-.3281.2285-.7286.3433-1.2014.3433-.6258,0-1.093-.2005-1.4019-.601s-.4104-.9443-.3033-1.631l.5836-3.6047h1.2358l-.5606,3.4793c-.0612.4116,0,.732.1832.9611s.4653.3433.8469.3433c.389,0,.7168-.1217.9841-.3663.267-.244.4309-.5836.492-1.0182l.538-3.3992h1.2358l-1.007,6.4086c-.0993.6029-.37,1.0778-.8124,1.4249-.4427.3471-.9996.5209-1.6707.5209h-1.9455ZM417.787,770.0853h3.221l.5368-1.8545h-5.4659l-1.7081,6.4419h2.1473l.5856-2.0985h3.0257l.4392-1.7081h-3.0257l.244-.7808ZM424.229,772.9158c-.5856,0-1.0249-.3904-1.0249-1.1225,0-.8784.6344-1.7569,1.6105-1.7569.488,0,.8784.244,1.0248.7808l1.9521-.8296c-.2928-1.1713-1.2689-1.9033-2.6353-1.9033-2.7817,0-4.1482,2.1473-4.1482,3.9042s1.2689,2.8305,3.0746,2.8305c1.3665,0,2.3425-.5856,2.9769-1.4153l-1.5129-1.1713c-.3904.4392-.8296.6832-1.3177.6832ZM430.9149,768.2308h-2.1473l-1.7569,6.4419h5.1242l.488-1.8545h-2.9281l1.2201-4.5874ZM439.7481,771.0125c0-1.6593-1.3177-2.9281-3.221-2.9281-2.1961,0-3.8066,1.8057-3.8066,3.8066,0,1.6593,1.3177,2.9281,3.221,2.9281,2.1961,0,3.8066-1.8057,3.8066-3.8066ZM434.9167,771.6957c0-.8296.5856-1.7081,1.5129-1.7081.7808,0,1.1713.5368,1.1713,1.2201,0,.8296-.5856,1.7081-1.5129,1.7081-.7808,0-1.1713-.5368-1.1713-1.2201ZM443.2131,772.2326h1.0737l-.1952.6832c-.1464.0488-.3416.0976-.5856.0976-.6832,0-1.2689-.3904-1.2689-1.2201,0-1.0249.732-1.9033,1.9521-1.9033.5856,0,1.1225.244,1.5129.5856l1.3665-1.3665c-.4392-.5368-1.5129-1.0737-2.7329-1.0737-2.5865,0-4.2946,1.7569-4.2946,3.8554,0,2.0497,1.6105,2.8793,3.221,2.8793.9272,0,1.8545-.2928,2.4889-.6832l.9272-3.3186h-3.1234l-.3416,1.4641ZM450.7775,768.0844c-2.1961,0-3.8066,1.8057-3.8066,3.8066,0,1.6593,1.3177,2.9281,3.221,2.9281,2.1961,0,3.8066-1.8057,3.8066-3.8066,0-1.6593-1.3177-2.9281-3.221-2.9281ZM450.3382,772.9158c-.7808,0-1.1713-.5368-1.1713-1.2201,0-.8296.5856-1.7081,1.5129-1.7081.7808,0,1.1713.5368,1.1713,1.2201,0,.8296-.5856,1.7081-1.5129,1.7081ZM437.9424,767.4987c-.0488.2928.0976.488.4392.488s.5368-.1952.6344-.488c.0488-.244-.0976-.488-.4392-.488s-.5856.244-.6344.488ZM432.1349,765.4978c-.4392,0-.732.244-.7808.5856s.0976.5856.5368.5856.732-.244.7808-.5856c.0976-.3416-.0976-.5856-.5368-.5856ZM433.0134,767.3035c-.0976.5368.1464.8784.8296.8784.6344,0,1.0737-.3904,1.1713-.8784s-.1464-.8784-.8296-.8784c-.6832,0-1.0737.3904-1.1713.8784ZM439.6017,777.552l-2.4401-1.8057h-1.5129l4.2458,3.1722,1.6105-3.1722h-.976l-.9272,1.8057ZM425.8394,767.1571l-2.0009-1.4641,23.1323-2.7817-2.1473,4.2458h1.0248l2.6841-5.3195-26.9877,3.221,2.7817,2.0985h1.5129ZM338.7186,785.7853l.6088-3.8315h2.32l-.084.5194h-1.7636l-.1837,1.1445h1.6272l-.084.5248h-1.6166l-.2573,1.6428h-.5668ZM342.97,785.8377c-.3568,0-.6228-.1005-.7978-.3019-.175-.201-.2345-.473-.1784-.8161l.2677-1.7006c.056-.3429.2029-.6148.4408-.8161.2379-.201.5355-.3019.8923-.3019s.6228.1.7979.2993c.1748.1993.2361.4707.1837.8136l-.2677,1.7057c-.0561.3431-.2039.6151-.4435.8161-.2398.2013-.5381.3019-.895.3019ZM343.0487,785.3339c.1925,0,.3483-.0524.4672-.1575.119-.1051.1942-.2571.2257-.4568l.2678-1.7006c.0315-.1993.0051-.3517-.0787-.4565-.084-.1051-.2223-.1575-.4148-.1575s-.3473.0524-.4645.1575c-.1173.1048-.1916.2571-.2231.4565l-.2677,1.7006c-.0315.1996-.0053.3517.0787.4568s.2204.1575.4094.1575ZM344.9961,785.7853l.6088-3.8315h1.202c.2379,0,.4391.0464.6036.139.1645.0928.2835.223.357.391s.091.3656.0524.5932c-.0384.2591-.14.4838-.3044.6746-.1645.1905-.3656.3209-.6036.391l.5354,1.6428h-.6194l-.4777-1.5748h-.5406l-.2466,1.5748h-.5668ZM345.8883,783.7068h.6352c.1889,0,.349-.0558.4803-.168.1313-.1119.2107-.2623.2388-.4514.0316-.1925,0-.3454-.0944-.4593-.0945-.1136-.2362-.1706-.4252-.1706h-.6352l-.1995,1.2493ZM349.545,785.7853l.6088-3.8315h1.2544c.3709,0,.6508.1048.8399.315.1889.2099.2553.4898.1993.8398-.0384.2344-.1216.4383-.2493.6114s-.2905.307-.4881.4015c-.1978.0945-.419.1418-.6639.1418h-.6928l-.2415,1.5221h-.5668ZM350.432,783.754h.6928c.1924,0,.3568-.0587.4934-.176.1364-.117.2204-.2737.2519-.4696s-.0017-.3525-.0997-.4699-.245-.1757-.441-.1757h-.6876l-.2099,1.2911ZM352.7466,785.7853l.6088-3.8315h2.2518l-.0787.5038h-1.6954l-.1731,1.0867h1.5115l-.0787.4986h-1.5115l-.1942,1.2387h1.6901l-.0787.5038h-2.2518ZM355.8434,785.7853l.6088-3.8315h1.202c.2379,0,.4391.0464.6036.139.1645.0928.2835.223.357.391s.091.3656.0524.5932c-.0384.2591-.14.4838-.3044.6746-.1645.1905-.3656.3209-.6036.391l.5354,1.6428h-.6194l-.4777-1.5748h-.5406l-.2466,1.5748h-.5668ZM356.7356,783.7068h.6352c.1889,0,.349-.0558.4803-.168.1313-.1119.2107-.2623.2388-.4514.0316-.1925,0-.3454-.0944-.4593-.0945-.1136-.2362-.1706-.4252-.1706h-.6352l-.1995,1.2493ZM360.1316,785.8377c-.385,0-.6736-.0951-.8661-.2859-.1924-.1908-.2641-.4505-.2151-.7794h.5668c-.028.1748.0105.3121.1155.4121.1051.0997.266.1495.483.1495.2029,0,.3701-.049.5012-.1469.1313-.098.2109-.2327.2389-.4044.0209-.1504.0007-.2788-.0604-.3856-.0614-.1068-.1583-.1811-.2913-.2233l-.4566-.1364c-.266-.0803-.4619-.217-.5879-.4095-.126-.1922-.1697-.4197-.1313-.6823.035-.2099.1121-.3935.2309-.551s.2729-.2799.4619-.3673.4024-.1313.6404-.1313c.3498,0,.6158.0954.7978.2859.182.1908.2485.4437.1995.7586h-.5668c.0279-.168-.0027-.3001-.092-.3964-.0891-.0963-.2301-.1444-.4225-.1444-.1889,0-.343.0447-.4619.1338-.119.0894-.1889.2144-.21.3753-.0245.1506-.007.2791.0525.3859s.1575.1811.2939.223l.4672.1469c.2624.0806.4558.2173.5801.4095.1242.1925.1653.4217.1233.6877-.035.217-.1155.4058-.2415.5667-.1259.1612-.2878.2862-.4855.3753-.1976.0894-.419.1338-.6639.1338ZM363.2651,785.8377c-.3568,0-.6228-.1005-.7978-.3019-.175-.201-.2345-.473-.1784-.8161l.2677-1.7006c.056-.3429.2029-.6148.4408-.8161.2379-.201.5355-.3019.8923-.3019s.6228.1.7979.2993c.1748.1993.2361.4707.1837.8136l-.2677,1.7057c-.0561.3431-.2039.6151-.4435.8161-.2398.2013-.5381.3019-.895.3019ZM363.3439,785.3339c.1925,0,.3483-.0524.4672-.1575.119-.1051.1942-.2571.2257-.4568l.2678-1.7006c.0315-.1993.0051-.3517-.0787-.4565-.084-.1051-.2223-.1575-.4148-.1575s-.3473.0524-.4645.1575c-.1173.1048-.1916.2571-.2231.4565l-.2677,1.7006c-.0315.1996-.0053.3517.0787.4568s.2204.1575.4094.1575ZM365.2754,785.7853l.6088-3.8315h.7086l.6194,3.186c.007-.098.0165-.217.0289-.3571.0121-.1398.0271-.2851.0446-.4354.0175-.1506.0367-.2888.0577-.4146l.315-1.9788h.525l-.609,3.8315h-.7085l-.6141-3.186c-.0071.0945-.0167.209-.0289.3437s-.0272.2757-.0446.4226c-.0177.1469-.0367.2833-.0578.4095l-.315,2.0102h-.5301ZM368.2252,785.7853l1.5851-3.8315h.7454l.3726,3.8315h-.5616l-.0735-.9711h-1.0865l-.3884.9711h-.5932ZM369.3852,784.3418h.8714l-.0893-1.1023c-.0175-.1959-.0298-.3654-.0367-.5089-.0071-.1435-.0105-.2432-.0105-.2993-.0175.0561-.0517.1558-.1024.2993s-.1146.3112-.1915.5038l-.441,1.1075ZM371.7208,785.7853l.6088-3.8315h.567l-.525,3.3118h1.6744l-.0787.5197h-2.2465ZM376.6785,785.8377c-.3673,0-.6342-.1005-.8003-.3019-.1663-.201-.2214-.475-.1654-.8213l.4357-2.7608h.567l-.4357,2.7554c-.0315.1962-.008.35.0708.4619.0787.1122.2144.168.4068.168.1925,0,.3473-.0558.4646-.168.1172-.1119.1915-.2657.2231-.4619l.4355-2.7554h.567l-.4357,2.7608c-.056.35-.2003.6245-.433.8241-.2328.1993-.5328.299-.9003.299ZM379.8435,785.8377c-.385,0-.6736-.0951-.8661-.2859-.1924-.1908-.2641-.4505-.2151-.7794h.5668c-.028.1748.0105.3121.1155.4121.1051.0997.266.1495.483.1495.2029,0,.3701-.049.5012-.1469.1313-.098.2109-.2327.2389-.4044.0209-.1504.0007-.2788-.0604-.3856-.0614-.1068-.1583-.1811-.2913-.2233l-.4566-.1364c-.266-.0803-.4619-.217-.5879-.4095-.126-.1922-.1697-.4197-.1313-.6823.035-.2099.1121-.3935.2309-.551s.2729-.2799.4619-.3673.4024-.1313.6404-.1313c.3498,0,.6158.0954.7978.2859.182.1908.2485.4437.1995.7586h-.5668c.0279-.168-.0027-.3001-.092-.3964-.0891-.0963-.2301-.1444-.4225-.1444-.1889,0-.343.0447-.4619.1338-.119.0894-.1889.2144-.21.3753-.0245.1506-.007.2791.0525.3859s.1575.1811.2939.223l.4672.1469c.2624.0806.4558.2173.5801.4095.1242.1925.1653.4217.1233.6877-.035.217-.1155.4058-.2415.5667-.1259.1612-.2878.2862-.4855.3753-.1976.0894-.419.1338-.6639.1338ZM381.9062,785.7853l.6088-3.8315h2.2518l-.0787.5038h-1.6954l-.1731,1.0867h1.5115l-.0787.4986h-1.5115l-.1942,1.2387h1.6901l-.0787.5038h-2.2518ZM386.9426,785.8377c-.3568,0-.6228-.1005-.7978-.3019-.175-.201-.2345-.473-.1784-.8161l.2677-1.7006c.056-.3429.2029-.6148.4408-.8161.2379-.201.5355-.3019.8923-.3019s.6228.1.7979.2993c.1748.1993.2361.4707.1837.8136l-.2677,1.7057c-.0561.3431-.2039.6151-.4435.8161-.2398.2013-.5381.3019-.895.3019ZM387.0213,785.3339c.1925,0,.3483-.0524.4672-.1575.119-.1051.1942-.2571.2257-.4568l.2678-1.7006c.0315-.1993.0051-.3517-.0787-.4565-.084-.1051-.2223-.1575-.4148-.1575s-.3473.0524-.4645.1575c-.1173.1048-.1916.2571-.2231.4565l-.2677,1.7006c-.0315.1996-.0053.3517.0787.4568s.2204.1575.4094.1575ZM388.9529,785.7853l.6088-3.8315h.7086l.6194,3.186c.007-.098.0165-.217.0289-.3571.0121-.1398.0271-.2851.0446-.4354.0175-.1506.0367-.2888.0577-.4146l.315-1.9788h.525l-.609,3.8315h-.7085l-.6141-3.186c-.0071.0945-.0167.209-.0289.3437s-.0272.2757-.0446.4226c-.0177.1469-.0367.2833-.0578.4095l-.315,2.0102h-.5301ZM392.249,785.7853l.6088-3.8315h.567l-.525,3.3118h1.6744l-.0787.5197h-2.2465ZM396.1174,785.7853l.2204-1.4119-.7506-2.4197h.5774l.4462,1.4486c.0279.0945.0498.1837.0656.2677.0157.084.0253.1469.0288.1888.0175-.0419.0464-.1048.0867-.1888.0402-.084.0883-.1731.1442-.2677l.8976-1.4486h.5984l-1.5275,2.4197-.2204,1.4119h-.5668ZM399.217,785.7853l.6088-3.8315h.7086l.6192,3.186c.0071-.098.0165-.217.029-.3571.012-.1398.0271-.2851.0444-.4354.0177-.1506.037-.2888.0578-.4146l.315-1.9788h.5248l-.6088,3.8315h-.7085l-.6141-3.186c-.0071.0945-.0167.209-.0289.3437s-.0272.2757-.0446.4226c-.0177.1469-.0367.2833-.0578.4095l-.315,2.0102h-.5301ZM403.5053,785.8377c-.3571,0-.6231-.1005-.7979-.3019-.1751-.201-.2344-.473-.1785-.8161l.2677-1.7006c.0561-.3429.203-.6148.4411-.8161.2378-.201.5354-.3019.8922-.3019.3571,0,.6228.1.7979.2993.1748.1993.2361.4707.1837.8136l-.2677,1.7057c-.0561.3431-.2039.6151-.4437.8161-.2395.2013-.5379.3019-.8947.3019ZM403.5839,785.3339c.1925,0,.3483-.0524.4673-.1575.1187-.1051.1942-.2571.2255-.4568l.2677-1.7006c.0316-.1993.0054-.3517-.0786-.4565-.084-.1051-.2224-.1575-.4146-.1575-.1925,0-.3474.0524-.4647.1575-.117.1048-.1914.2571-.223.4565l-.2677,1.7006c-.0316.1996-.0051.3517.0789.4568.0837.1051.2204.1575.4092.1575ZM406.3814,785.7853l.5248-3.3121h-1.0234l.084-.5194h2.6193l-.084.5194h-1.0289l-.5248,3.3121h-.567ZM409.5178,785.7853l.6088-3.8315h2.32l-.084.5194h-1.7636l-.1837,1.1445h1.6272l-.084.5248h-1.6166l-.2571,1.6428h-.567ZM413.7694,785.8377c-.3571,0-.6231-.1005-.7979-.3019-.1751-.201-.2344-.473-.1785-.8161l.2677-1.7006c.0561-.3429.203-.6148.4411-.8161.2378-.201.5354-.3019.8922-.3019.3571,0,.6228.1.7979.2993.1748.1993.2361.4707.1837.8136l-.2677,1.7057c-.0561.3431-.2039.6151-.4437.8161-.2395.2013-.5379.3019-.8947.3019ZM413.848,785.3339c.1925,0,.3483-.0524.4673-.1575.1187-.1051.1942-.2571.2255-.4568l.2677-1.7006c.0316-.1993.0054-.3517-.0786-.4565-.084-.1051-.2224-.1575-.4146-.1575-.1925,0-.3474.0524-.4647.1575-.117.1048-.1914.2571-.223.4565l-.2677,1.7006c-.0316.1996-.0051.3517.0789.4568.0837.1051.2204.1575.4092.1575ZM415.7952,785.7853l.6088-3.8315h1.202c.2381,0,.4391.0464.6037.139.1643.0928.2833.223.3568.391s.0911.3656.0527.5932c-.0387.2591-.1401.4838-.3044.6746-.1646.1905-.3659.3209-.6037.391l.5354,1.6428h-.6194l-.4776-1.5748h-.5408l-.2466,1.5748h-.567ZM416.6876,783.7068h.635c.1891,0,.3491-.0558.4804-.168.131-.1119.2107-.2623.2386-.4514.0316-.1925,0-.3454-.0945-.4593-.0943-.1136-.2361-.1706-.4252-.1706h-.635l-.1993,1.2493ZM420.905,785.8377c-.3602,0-.6308-.1005-.8107-.3019-.1803-.201-.2423-.473-.1865-.8161l.2677-1.7006c.0561-.3463.2056-.6194.4488-.8187s.545-.2993.9056-.2993c.3568,0,.6253.1008.8056.3019.1803.2013.2423.4733.1865.8161h-.567c.0313-.1993.0026-.3517-.0866-.4565-.0894-.1051-.2284-.1575-.4175-.1575-.1925,0-.3508.0524-.475.1575-.1242.1048-.2019.2554-.2335.4514l-.2677,1.7057c-.0316.1996-.0026.3517.0866.4568.0894.1051.2301.1575.4226.1575s.35-.0524.4724-.1575.1993-.2571.2309-.4568h.5667c-.0347.2275-.1145.4252-.2386.5932s-.2808.2976-.4699.3884c-.1888.0908-.4024.1364-.6404.1364ZM424.0335,785.8377c-.3571,0-.6231-.1005-.7979-.3019-.1751-.201-.2344-.473-.1785-.8161l.2677-1.7006c.0561-.3429.203-.6148.4411-.8161.2378-.201.5354-.3019.8922-.3019.3571,0,.6228.1.7979.2993.1748.1993.2361.4707.1837.8136l-.2677,1.7057c-.0561.3431-.2039.6151-.4437.8161-.2395.2013-.5379.3019-.8947.3019ZM424.1121,785.3339c.1925,0,.3483-.0524.4673-.1575.1187-.1051.1942-.2571.2255-.4568l.2677-1.7006c.0316-.1993.0054-.3517-.0786-.4565-.084-.1051-.2224-.1575-.4146-.1575-.1925,0-.3474.0524-.4647.1575-.117.1048-.1914.2571-.223.4565l-.2677,1.7006c-.0316.1996-.0051.3517.0789.4568.0837.1051.2204.1575.4092.1575ZM425.9653,785.7853l.6088-3.8315h.6874l.1837,1.2282c.0211.119.0367.2301.0473.3332.0105.1034.0194.1828.0262.2389.0177-.0561.0473-.1364.0894-.2415.0419-.1051.0908-.217.1469-.336l.5667-1.2228h.7088l-.6088,3.8315h-.5354l.2045-1.2911c.0245-.168.0578-.3525.1-.5539.0419-.201.0874-.4041.1364-.6088s.0963-.3998.1418-.5852c.0453-.1854.0874-.3483.1259-.4881l-.8554,1.8632h-.5513l-.2833-1.8632c-.0037.1364-.0105.2947-.0211.475s-.0236.3719-.0393.5747c-.0157.203-.035.4069-.0578.6114-.0228.2047-.0481.3964-.076.5749l-.2047,1.2911h-.5405ZM429.1145,785.7853l.6088-3.8315h.6874l.1837,1.2282c.0211.119.0367.2301.0473.3332.0105.1034.0194.1828.0262.2389.0177-.0561.0473-.1364.0894-.2415.0419-.1051.0908-.217.1469-.336l.5667-1.2228h.7088l-.6088,3.8315h-.5354l.2045-1.2911c.0245-.168.0578-.3525.1-.5539.0419-.201.0874-.4041.1364-.6088s.0963-.3998.1418-.5852c.0453-.1854.0874-.3483.1259-.4881l-.8554,1.8632h-.5513l-.2833-1.8632c-.0037.1364-.0105.2947-.0211.475s-.0236.3719-.0393.5747c-.0157.203-.035.4069-.0578.6114-.0228.2047-.0481.3964-.076.5749l-.2047,1.2911h-.5405ZM432.4107,785.7853l.6088-3.8315h2.2516l-.0786.5038h-1.6955l-.1731,1.0867h1.5115l-.0786.4986h-1.5118l-.1942,1.2387h1.6901l-.0786.5038h-2.2516ZM435.5073,785.7853l.6088-3.8315h1.202c.2381,0,.4391.0464.6037.139.1643.0928.2833.223.3568.391s.0911.3656.0527.5932c-.0387.2591-.1401.4838-.3044.6746-.1646.1905-.3659.3209-.6037.391l.5354,1.6428h-.6194l-.4776-1.5748h-.5408l-.2466,1.5748h-.567ZM436.3997,783.7068h.635c.1891,0,.3491-.0558.4804-.168.131-.1119.2107-.2623.2386-.4514.0316-.1925,0-.3454-.0945-.4593-.0943-.1136-.2361-.1706-.4252-.1706h-.635l-.1993,1.2493ZM439.8007,785.8377c-.3602,0-.6308-.1005-.8107-.3019-.1803-.201-.2423-.473-.1865-.8161l.2677-1.7006c.0561-.3463.2056-.6194.4488-.8187s.545-.2993.9056-.2993c.3568,0,.6253.1008.8056.3019.1803.2013.2423.4733.1865.8161h-.567c.0313-.1993.0026-.3517-.0866-.4565-.0894-.1051-.2284-.1575-.4175-.1575-.1925,0-.3508.0524-.475.1575-.1242.1048-.2019.2554-.2335.4514l-.2677,1.7057c-.0316.1996-.0026.3517.0866.4568.0894.1051.2301.1575.4226.1575s.35-.0524.4724-.1575.1993-.2571.2309-.4568h.5667c-.0347.2275-.1145.4252-.2386.5932s-.2808.2976-.4699.3884c-.1888.0908-.4024.1364-.6404.1364ZM441.8792,785.7853l.0789-.5038h.7768l.4459-2.824h-.7766l.0837-.5038h2.1258l-.084.5038h-.7766l-.4462,2.824h.7768l-.0789.5038h-2.1258ZM444.7399,785.7853l1.585-3.8315h.7452l.3728,3.8315h-.5616l-.0735-.9711h-1.0867l-.3884.9711h-.5929ZM445.8998,784.3418h.8714l-.0894-1.1023c-.0174-.1959-.0296-.3654-.0367-.5089-.0068-.1435-.0103-.2432-.0103-.2993-.0177.0561-.0518.1558-.1025.2993s-.1148.3112-.1916.5038l-.4408,1.1075ZM448.2354,785.7853l.6088-3.8315h.567l-.5248,3.3118h1.6741l-.0786.5197h-2.2465ZM453.1932,785.8377c-.3676,0-.6345-.1005-.8005-.3019-.1663-.201-.2213-.475-.1654-.8213l.4357-2.7608h.567l-.4357,2.7554c-.0316.1962-.008.35.0709.4619.0786.1122.2141.168.4066.168s.3474-.0558.4645-.168c.1173-.1119.1916-.2657.2233-.4619l.4357-2.7554h.5667l-.4357,2.7608c-.0558.35-.2002.6245-.4328.8241-.2329.1993-.5328.299-.9001.299ZM456.3581,785.8377c-.385,0-.6738-.0951-.866-.2859-.1925-.1908-.2643-.4505-.2153-.7794h.567c-.0282.1748.0105.3121.1153.4121.1051.0997.266.1495.483.1495.2028,0,.3699-.049.5012-.1469s.2107-.2327.2389-.4044c.0211-.1504.0009-.2788-.0604-.3856s-.1583-.1811-.2913-.2233l-.4568-.1364c-.266-.0803-.4619-.217-.5878-.4095-.1259-.1922-.1697-.4197-.1313-.6823.035-.2099.1119-.3935.2309-.551s.2731-.2799.4619-.3673c.1891-.0874.4024-.1313.6404-.1313.3497,0,.6157.0954.7979.2859.1817.1908.2483.4437.1993.7586h-.567c.0279-.168-.0026-.3001-.0917-.3964-.0894-.0963-.2301-.1444-.4226-.1444-.1891,0-.3429.0447-.4619.1338-.119.0894-.1891.2144-.2099.3753-.0245.1506-.0071.2791.0524.3859s.1575.1811.2939.223l.4673.1469c.2623.0806.4556.2173.5798.4095.1242.1925.1654.4217.1236.6877-.035.217-.1156.4058-.2415.5667-.1262.1612-.2879.2862-.4855.3753-.1979.0894-.4192.1338-.6641.1338ZM458.4209,785.7853l.6088-3.8315h2.2516l-.0786.5038h-1.6955l-.1731,1.0867h1.5115l-.0786.4986h-1.5118l-.1942,1.2387h1.6901l-.0786.5038h-2.2516Z" style="fill: #ccc;"/>
  <g>
    <path id="path687" d="M319.9679,50v96.1059c-33.4074.4734-65.2548,1.1564-90.0655,2.2504-27.2433,1.2013-46.3907,2.465-56.6675,5.0056l-16.2324,3.9232.1936,46.285v.0028c.131,25.2402.249,50.8554.3333,76.547H61.1982v159.9976h96.2804c2.7635,49.5957,20.4032,94.1335,53.5187,134.2841,29.2512,35.4745,65.0015,65.5918,109.0213,92.2049v83.3936h160.0103v-83.4253c33.914-20.3732,65.0981-44.9895,92.5826-73.4681l.0191-.0191.0191-.0191c43.8392-45.9796,67.0283-96.7132,69.8941-152.9511h96.258v-160.0611h-96.1597v-9.6684c0-31.5493-.1148-64.091.1778-96.2582v-.0032l.14-16.8355-16.3372-3.9867c-10.221-2.4899-29.3643-3.7652-56.598-4.9766-24.8026-1.1033-56.6497-1.7995-90.0592-2.2822V50h-159.9977Z" style="fill: #fff;"/>
    <path id="path17" d="M633.7201,270.3869c0-31.5278-.1134-64.0958.1788-96.3387l.0812-9.7509-9.4584-2.3077c-16.0076-3.9004-79.177-6.3056-153.4787-7.2319V58.9391h-142.1353v95.8837c-74.3017.9101-137.4874,3.2503-153.5276,7.2157l-9.4096,2.2752.1625,39.2148c.1463,28.1963.2925,56.7826.3738,85.5315h-96.3712v142.1191h95.7537c1.0076,51.2896,18.0391,96.355,52.0047,137.5362,29.5614,35.8507,65.6722,66.1922,111.0625,93.0234v79.3234h142.1353v-79.4047c34.9634-20.456,66.9571-45.6091,95.0873-74.7567,44.9352-47.1292,67.2486-98.1589,67.9636-155.7216h95.7213v-142.1841h-96.16l.0162-18.6079Z" style="fill: #10416a;"/>
    <path id="path15" d="M190.5751,184.3029v19.0305c.39,71.9615.7801,146.377-.2763,219.7361-.6826,48.7544,14.48,91.252,46.3817,130.0118,39.2473,47.5843,91.187,85.0764,163.1648,117.7094,61.138-27.2862,109.8924-60.3092,148.5547-100.8891,43.1964-45.2928,63.1695-94.2585,61.0405-149.8223h0c-1.0076-25.7423-.7638-51.4684-.5201-76.3819v-1.6252c.1302-11.376.2439-22.6545.2439-33.9331v-37.7359c0-28.1638-.1134-57.1889.0812-86.1328-64.6321-7.3782-354.0545-7.3944-418.6703.0325h0Z" style="fill: #fff;"/>
    <g id="g624">
      <path id="path19" d="M284.476,405.4529v-19.3555c.1316-1.4571-.9429-2.7449-2.4-2.8765-.1585-.0143-.318-.0143-.4765,0h-17.8766c-1.4075-.1732-2.6889.8274-2.8621,2.2349-.0263.2131-.0256.4287.0018.6416v14.3338c0,4.8754-2.519,7.1831-7.1831,7.1831h-9.3121c-4.6642,0-7.1669-2.3402-7.1669-7.1831v-81.7449c0-4.6642,2.3239-7.1669,7.1669-7.1669h9.3121c4.6642,0,7.1831,2.5027,7.1831,7.1669v14.35c-.1824,1.3973.8025,2.6779,2.1998,2.8602.2192.0286.4413.0286.6605,0h17.8766c1.4472.1407,2.7344-.9184,2.8752-2.3656.016-.1645.0165-.3301.0014-.4946v-19.3717c0-16.8365-9.1496-25.8073-25.8236-25.8073h-20.0705c-16.8528,0-26.0023,8.9708-26.0023,25.8073v91.7883c0,16.8528,9.1496,25.8073,26.0023,25.8073h20.0705c16.674,0,25.8236-8.9546,25.8236-25.8073h0Z" style="fill: #10416a;"/>
      <path id="path21" d="M302.3852,405.4529c0,16.8528,8.9546,25.8073,25.8073,25.8073h20.0705c16.869,0,25.8236-8.9546,25.8236-25.8073v-91.7883c0-16.8365-8.9546-25.8073-25.8236-25.8073h-20.0705c-16.8528,0-25.8073,8.9708-25.8073,25.8073v91.7883ZM326.2261,318.15c0-4.6642,2.5027-7.1669,7.1669-7.1669h10.401c4.6642,0,7.1669,2.5027,7.1669,7.1669v82.8825c0,4.8754-2.5027,7.1831-7.1669,7.1831h-10.401c-4.6642,0-7.1669-2.3402-7.1669-7.1831v-82.8825Z" style="fill: #10416a;"/>
      <path id="path23" d="M395.5874,431.2602h16.4953c1.785.1896,3.3858-1.1038,3.5753-2.8889.0242-.2282.0242-.4583,0-.6864v-80.6723h1.2514l17.7466,81.0298c.2454,1.9596,1.9789,3.3863,3.9491,3.2503h8.7758c1.9702.136,3.7037-1.2906,3.9491-3.2503l17.7791-81.0298h1.2514v80.6723c-.1905,1.7849,1.102,3.3864,2.887,3.5769.2343.025.4706.0245.7047-.0016h16.674c1.785.1896,3.3858-1.1038,3.5753-2.8889.0242-.2282.0242-.4583,0-.6864v-136.2361c.1987-1.7841-1.0866-3.3914-2.8707-3.59-.2341-.0261-.4704-.0266-.7047-.0016h-23.6947c-1.9676-.1277-3.6961,1.2949-3.9491,3.2503l-19.8755,89.2531-19.908-89.2693c-.2452-1.953-1.9686-3.3773-3.9328-3.2503h-23.6784c-1.784-.1996-3.3919,1.0847-3.5916,2.8687-.0269.2402-.0269.4827,0,.7229v136.2523c-.1905,1.7849,1.102,3.3864,2.887,3.5769.2343.025.4706.0245.7047-.0016h-.0002Z" style="fill: #10416a;"/>
      <path id="path25" d="M561.5474,287.8572h-20.0705c-16.8528,0-25.8073,8.9708-25.8073,25.8073v91.7883c0,16.8528,8.9546,25.8073,25.8073,25.8073h20.0705c16.869,0,25.8236-8.9546,25.8236-25.8073v-91.7883c0-16.8365-8.9546-25.8073-25.8236-25.8073ZM564.2451,400.9675c0,4.8754-2.5027,7.1831-7.1669,7.1831h-10.401c-4.6642,0-7.1669-2.3402-7.1669-7.1831v-82.8175c0-4.6642,2.5027-7.1669,7.1669-7.1669h10.401c4.6642,0,7.1669,2.5027,7.1669,7.1669v82.8175Z" style="fill: #10416a;"/>
    </g>
    <g id="g618">
      <rect id="rect27" x="294.5033" y="212.3854" width="12.3673" height="49.1607" rx=".9519" ry=".9519" style="fill: #10416a;"/>
      <path id="path29" d="M336.8383,245.0184c.7626.7414,1.655,1.3364,2.6327,1.7552,1.022.4561,2.1313.6835,3.2503.6663h15.6664c.3492-.0106.6883.118.9426.3575.2602.2293.4034.5635.39.9101v11.5223c-.0099.3461.1121.683.3413.9426.2384.2572.5758.3993.9263.39h9.7509c.3553.0098.6981-.132.9426-.39.2563-.2457.3978-.5876.39-.9426v-39.5886c.011-1.1184-.216-2.2264-.6663-3.2503-.8331-1.9553-2.3869-3.515-4.3391-4.3554-1.025-.4465-2.1322-.6734-3.2503-.6663h-21.1269c-1.1182-.0086-2.2256.2185-3.2503.6663-.9777.4188-1.8701,1.0137-2.6327,1.7552-.7547.7392-1.3519,1.6238-1.7552,2.6002-.4188,1.0319-.6288,2.1367-.6176,3.2503v18.6079c-.0103,1.1135.1996,2.2181.6176,3.2503.4224.9502,1.0301,1.8066,1.7876,2.519h0ZM346.3942,223.5664h13.7v12.3674h-13.7v-12.3674Z" style="fill: #10416a;"/>
      <path id="path31" d="M404.9644,259.1571c1.5512,1.5383,3.6497,2.3976,5.8343,2.389h21.1269c1.1154.0141,2.2219-.2017,3.2503-.6338.9764-.4033,1.8609-1.0004,2.6002-1.7552.7309-.771,1.3246-1.6615,1.7552-2.6327.4478-1.0246.6749-2.1321.6663-3.2503v-32.633c.011-1.1184-.216-2.2264-.6663-3.2503-.4272-.9634-1.0214-1.8437-1.7552-2.6002-.7479-.7443-1.6302-1.3399-2.6002-1.7552-1.024-.4497-2.1319-.6768-3.2503-.6663h-21.1269c-1.1184-.0105-2.2262.2166-3.2503.6663-.9777.4188-1.8701,1.0137-2.6327,1.7552-.7547.7392-1.3519,1.6238-1.7552,2.6002-.4322,1.0284-.6479,2.1348-.6338,3.2503v32.7305c-.0118,1.1152.2039,2.2212.6338,3.2503.4324.9534,1.0449,1.8142,1.8039,2.5352ZM414.5203,224.314h13.6837v25.2873h-13.6837v-25.2873Z" style="fill: #10416a;"/>
      <path id="path33" d="M469.7103,223.8915h21.9069l-16.6415,32.0316-2.3889,4.5504c-.325.7638,0,1.1376.78,1.1376h11.1648c.3957-.009.7822-.121,1.1214-.325.3445-.1748.6194-.4612.78-.8126l1.1214-2.0964,13.895-26.3599,3.3803-6.5006c.1942-.3834.3468-.7866.4551-1.2026.1097-.4139.1697-.8395.1787-1.2676v-9.2633c.0071-.3486-.121-.6864-.3575-.9426-.2293-.2602-.5635-.4034-.9101-.39h-34.4856c-.6389-.0971-1.2355.3421-1.3326.981-.0178.1165-.0178.2351,0,.3516v8.8408c-.0134.3466.1298.6807.39.9101.2523.2427.5928.3719.9426.3575h0Z" style="fill: #10416a;"/>
    </g>
    <g id="g877">
      <g id="g890">
        <path id="path35" d="M523.6002,470.8163c-.6501.3738-1.3652.7476-2.1289,1.1539s-1.6251.8126-2.4215,1.2189c-9.1616,4.4492-18.9319,7.5162-28.9927,9.1008-14.1875,2.1289-28.5213,1.2351-42.7901-.6663-8.272-1.2513-16.479-2.8115-24.686-4.5342-8.5646-1.8364-17.0966-3.8191-25.6449-5.7043-8.5483-1.8852-16.9828-3.5591-25.5311-4.9729-6.8212-1.057-13.7056-1.6543-20.6069-1.7877-14.4638,0-31.9991,1.6251-45.5041,7.1669-10.1734,4.7454-16.2515,6.6631-24.5072,14.8376-1.6251,1.6251-3.0227,3.1365-4.2579,4.5179-.6176.6826-1.1863,1.3326-1.7064,1.9339l-1.3976,1.6251c-1.6251,2.0477-1.9177,2.4377-2.5678,3.2503l-3.1203,4.3554s.9589-.6013,2.7628-1.6251l1.5114-.8776,1.8364-1.0239c1.3164-.7151,2.8277-1.5114,4.5504-2.3565,9.1874-4.3532,18.9507-7.3687,28.9927-8.9546,14.1551-2.1614,28.5538-1.2189,42.7901.6663,8.272,1.2351,16.479,2.779,24.7023,4.4854,8.5483,1.8364,17.0803,3.7541,25.6123,5.6393,8.532,1.8852,16.9828,3.4941,25.5311,4.8754,8.077,1.2031,16.2159,1.9464,24.3772,2.2264,14.2668.2583,28.4408-2.3444,41.6851-7.6544,10.2653-4.6895,19.6189-11.1599,27.6275-19.1117.7963-.8126,1.6251-1.6251,2.259-2.3239l1.9989-2.1777c1.2351-1.3651,2.2752-2.6002,3.104-3.6078l2.5678-3.2503-2.7628,1.6251c-.8938.5688-1.9665,1.2189-3.2828,1.9502h0Z" style="fill: #10416a;"/>
        <path id="path872" d="M276.1359,595.9903c11.2248-.0419,24.8365.8294,35.8554,2.9697,8.1257,1.6251,16.3308,3.5254,24.4566,5.6055,8.4507,2.2102,16.885,4.5174,25.3358,6.7926s16.8054,4.2598,25.2723,6.0149c8.0175,1.5754,16.1183,2.6923,24.2629,3.3455,14.2361.9027,28.509-1.0529,41.9777-5.7515,10.4815-4.221,20.128-10.2744,28.4877-17.8766.8288-.7638,1.6266-1.4941,2.3742-2.2092s1.4289-1.4322,2.079-2.0822c1.3001-1.3001,2.3889-2.4847,3.2503-3.4598l2.698-3.1202s-.9913.5688-2.844,1.6251c-.9263.5038-2.0633,1.0886-3.4122,1.7712l-2.1774,1.0379c-.78.3792-1.611.7553-2.4885,1.1236-9.3512,4.0111-19.2477,6.6075-29.3637,7.7036-14.2687,1.4789-28.5555-.0033-42.7268-2.6028-8.1257-1.6251-16.2515-3.5566-24.3772-5.6531-8.4671-2.2264-16.901-4.5999-25.3517-6.8751-8.4508-2.2752-16.8054-4.3225-25.2723-6.1102-6.7671-1.3681-13.6185-2.2801-20.508-2.7297-14.4475-.6826-32.0485.112-45.7485,5.0849l-5.8137,2.552s2.4958,4.3151,14.0341,12.8438Z" style="fill: #10416a;"/>
        <path id="path783" d="M238.3392,554.9191c23.077-4.6804,46.7862-4.4711,70.367-2.7647,14.025,1.2676,28.0173,3.0555,41.9935,5.1357,14.6263,2.2264,29.1241,4.6309,43.6853,6.9386,14.5613,2.3077,28.9284,4.2091,43.4409,5.688,13.7169,1.2279,27.4924,1.6783,41.2603,1.349,24.3772-1.4139,47.3096-6.2559,69.4115-16.9656,9.7096-5.2025,19.0533-11.3373,27.5748-18.3178,5.5316-8.1931,10.3348-16.5273,14.493-24.9993-14.7235,8.0561-30.6897,13.9587-47.0893,17.5275-23.6783,4.9729-47.8786,4.8729-72.1095,3.0852-14.025-1.2839-28.0169-3.1031-42.0094-5.1833-14.6263-2.2752-29.14-4.7603-43.7012-7.1005-14.5614-2.3402-28.9439-4.3064-43.4727-5.834-11.5839-1.1126-23.2301-1.4392-34.8581-.9776-24.3772,1.3651-53.7276,5.7854-75.8296,16.5276-3.2503,1.7389-11.3809,5.8477-14.1761,7.3753l12.6863,24.0927,8.3331-5.5767Z" style="fill: #10416a;"/>
      </g>
    </g>
  </g>
</svg>