<!-- Created by @FCLOGO 2022-03-31 10:24:44 . https://fclogo.top/ -->
<!-- FOR PERSONAL USE ONLY NOT FOR COMMERCIAL USE -->
<svg version="1.1" xmlns="http://www.w3.org/2000/svg" xmlns:xlink="http://www.w3.org/1999/xlink" x="0px" y="0px"
	 viewBox="0 0 800 800" enable-background="new 0 0 800 800" xml:space="preserve">
<g>
	<path fill="#E50112" d="M351.6,358.8c1.1,0,2,0.2,2.9,0.7c0.9,0.4,1.6,1.1,2.2,1.9c0.4,0.5,0.7,1.3,1,2.3l9.5-2.1
		c-1.2-3.7-3.1-6.4-5.6-8.1c-2.5-1.8-5.9-2.6-10.3-2.6c-5.6,0-9.9,1.5-12.9,4.6c-3.1,3.1-4.6,7.5-4.6,13.2c0,4.3,0.9,7.8,2.6,10.6
		c1.7,2.8,3.8,4.7,6.2,5.8s5.5,1.6,9.2,1.6c3.1,0,5.7-0.4,7.7-1.3c2-0.9,3.7-2.2,5-4c1.4-1.8,2.3-4,3-6.6l-9.4-2.8
		c-0.5,2.2-1.2,3.9-2.3,5c-1,1.2-2.6,1.7-4.6,1.7c-2.1,0-3.8-0.7-4.9-2.1c-1.2-1.4-1.8-4.1-1.8-7.9c0-3.1,0.5-5.4,1.5-6.8
		C347.3,359.8,349.1,358.8,351.6,358.8z"/>
	<polygon fill="#E50112" points="413.2,358.8 413.2,351.3 386.8,351.3 386.8,386 397.5,386 397.5,371.9 411,371.9 411,364.9 
		397.5,364.9 397.5,358.8 	"/>
	<path fill="#E50112" d="M450.3,358.8c1.1,0,2,0.2,2.9,0.7c0.9,0.4,1.6,1.1,2.2,1.9c0.4,0.5,0.7,1.3,1,2.3l9.5-2.1
		c-1.2-3.7-3.1-6.4-5.6-8.1c-2.5-1.8-5.9-2.6-10.3-2.6c-5.6,0-9.9,1.5-12.9,4.6c-3.1,3.1-4.6,7.5-4.6,13.2c0,4.3,0.9,7.8,2.6,10.6
		c1.7,2.8,3.8,4.7,6.2,5.8c2.4,1.1,5.5,1.6,9.2,1.6c3.1,0,5.7-0.4,7.7-1.3c2-0.9,3.7-2.2,5-4c1.4-1.8,2.3-4,3-6.6l-9.4-2.8
		c-0.5,2.2-1.2,3.9-2.3,5c-1,1.2-2.6,1.7-4.6,1.7c-2.1,0-3.8-0.7-4.9-2.1c-1.2-1.4-1.8-4.1-1.8-7.9c0-3.1,0.5-5.4,1.5-6.8
		C446,359.8,447.9,358.8,450.3,358.8z"/>
	<path fill="#E50112" d="M371.9,588.8L375,571c1.7,0.9,3.4,1.6,5.2,2.3l9.4-3.7l-9.8-20.6l-22.6-3l-0.6,10.1
		c3,3.8,6.6,7.2,10.7,10.2c1.2,0.9,2.4,1.7,3.6,2.4c-9.1-1.7-18-3.9-26.8-6.6c-32.8-9.9-62.4-27.6-87.8-50.2
		c33.1-44.5-2.9-87.7-2.9-87.7c-19,25.8-16,55.5-10.8,74.7c-6.8-6.9-13.2-14.1-19.3-21.7c-5.7-7.2-11-14.8-16-22.5
		c40.5-29,15.1-86.1,15.1-86.1c-23.8,15-26.1,48.1-24.7,69.8c-10.4-19-18.6-39.1-25.1-59.8c44.4-37.6,32.8-91.7,32.8-91.7
		c-25.9,18.8-35.1,50.2-38.2,72.3c-6.4-25.2-10.3-51-12.2-76.6c0-0.3,0-0.6,0-0.8c14.1-1.5,44.8-9.3,53.5-48c0,0-36.2,6.5-54.1,34.5
		c-0.2-6.2-0.1-12.3,0.3-18.3c0.9-10.9,2.3-21.9,4.4-32.7c0.8-4.3,1.7-8.6,2.7-12.9C208.4,181.6,206,110,206,110
		c-39.6,16.3-50.4,58.8-51.5,85.5c-1.8,6.6-3.4,13.3-4.8,20c-1.4,6.5-2.5,13.1-3.5,19.7c-4.5-16.5-14.5-35.6-35.6-53.5
		c0,0-19.3,72.6,33.2,96.1c0.1,1.8,0.1,3.6,0.2,5.5c0.5,10.2,1.4,20.4,2.6,30.7c-8.2-13.3-22.4-28.3-46.9-41.3
		c0,0-0.2,62.6,52.5,76.8c3.2,15.9,7.2,31.6,12.3,46.9c-11.3-10.6-27.6-20.2-50.9-25c0,0,1.9,65.4,69.4,70c6.4,12.8,13.7,25.2,22,37
		c-13.9-8.3-31.9-15.8-54.5-19.2c0,0,30.6,71.7,86.4,57.1C273.7,553.3,319,579,371.9,588.8z"/>
	<polygon fill="#E50112" points="387.4,538.7 412.6,538.7 420.4,514.7 400,499.8 379.6,514.7 	"/>
	<path fill="#E50112" d="M420.1,476.1l-5.4-8.5c-4.7-1.3-9.6-1.9-14.6-1.9s-10,0.7-14.6,1.9l-5.4,8.5L400,487L420.1,476.1z"/>
	<path fill="#E50112" d="M363.2,488.3l-9.8,2.5c-2.7,4-4.8,8.5-6.4,13.3c-1.6,4.8-2.4,9.7-2.7,14.5l6.4,7.8l16.5-15.7L363.2,488.3z"
		/>
	<path fill="#E50112" d="M410.3,569.6l9.4,3.7c4.5-1.7,8.9-4,13-7c4.1-3,7.7-6.4,10.7-10.2l-0.6-10.1l-22.6,3L410.3,569.6z"/>
	<path fill="#E50112" d="M455.6,518.6c-0.2-4.8-1.1-9.7-2.7-14.5c-1.6-4.8-3.7-9.3-6.4-13.3l-9.8-2.5l-4.1,22.4l16.5,15.7
		L455.6,518.6z"/>
	<path fill="#E50112" d="M166.6,493.1h-35.2v-4.8h-20.9v5.4H80v14.4h31v5.9H78.9v15H111v5.4H80v15h31v5.9H80v13.4h31v6.4H80v13.4h31
		v4.8h21.4v-4.8h36.9V575h-36.4v-6.4h36.4v-13.4h-36.4v-5.9h18.2c10.7,0,16.1-4.6,16.1-13.9v-7h4.8V514h-5.4V493.1z M132.4,507.6
		h10.7v6.4h-10.7V507.6z M143.6,532.2c0,1.4-0.9,2.1-2.7,2.1h-9.1V529h11.8V532.2z"/>
	<path fill="#E50112" d="M72.5,586.8v-29.4c0-3.2-1.1-5.9-3.2-8c-1.1-1.1-1.6-2-1.6-2.7c0-0.4,0.4-0.9,1.1-1.6
		c2.5-2.9,3.7-6.1,3.7-9.6v-47.6H51.1v15h4.8v33.2c0,1.4-0.7,2.3-2.1,2.7h-0.5h-2.1v16.1h2.1c1.4,0.4,2.3,1.6,2.7,3.7V591
		c-0.4,2.9-1.4,4.5-3.2,4.8H50v13.9h10.7c2.1,0,4.6-1.1,7.5-3.2c1.4-0.7,2.3-1.1,2.7-1.1c0.7,0,2.1,0.5,4.3,1.6
		c2.9,1.8,5.2,2.7,7,2.7H171v-13.9H90.1C80.1,594.8,74.3,591.8,72.5,586.8z"/>
	<path fill="#E50112" d="M645.1,597.5c-0.4,0.7-1.3,1.1-2.7,1.1H628v13.9h23.5c4.6,0.4,7.7-1.3,9.1-4.8l9.1-13.9h-21.9L645.1,597.5z
		"/>
	<path fill="#E50112" d="M732.9,596.9l-1.6-3.2h-21.4l5.4,13.9c1.1,3.6,4.8,5.4,11.2,5.4H750v-15h-12.8
		C734.3,598,732.9,597.6,732.9,596.9z"/>
	<path fill="#E50112" d="M714.1,511.8v-20.3h-19.8v20.3h-10.7v-20.3h-18.2v20.3h-36.9v15h17.1l4.3,8h-21.4v15.5h49.8v4.8h-49.2v14.4
		h49.8v5.4h-50.3v15.5h50.3V613h20.3v-22.5H750V575h-50.3v-5.4H750v-14.4h-50.3v-4.8H750v-15.5h-23l3.2-8H750v-0.1v-15H714.1z
		 M701.8,534.9h-24.6l-5.4-8H706L701.8,534.9z"/>
	<path fill="#E50112" d="M651.5,493.1l-1.1-2.1h-20.3l4.3,12.8c1.1,2.9,3.9,4.3,8.6,4.3h17.7v-13.9h-7
		C652.6,494.2,651.9,493.8,651.5,493.1z"/>
	<path fill="#E50112" d="M746.3,502.2l3.2-10.7h-19.3l-1.6,1.6c0,0.7-0.5,1.1-1.6,1.1h-9.1v14.4h18.2
		C741.8,508.6,745.2,506.5,746.3,502.2z"/>
	<path fill="#E50112" d="M225.5,441.2c3.1,6.6,6.3,13.2,9.7,19.6c0.6-5.6,1.8-11.3,3.6-16.9h-2.3c-2.1-4.3-4.1-8.7-6.1-13.1
		C229.1,434.4,227.5,437.9,225.5,441.2z"/>
	<path fill="#E50112" d="M182.4,305.3c2.2-3.2,4.6-6.4,7.3-9.4c-1.2-7.3-2.3-14.4-3.2-21.3c-2.7,1.9-5.5,3.4-8.3,4.7
		C179.4,287.7,180.8,296.4,182.4,305.3z"/>
	<path fill="#E50112" d="M195,359.2c2.4,8.5,5,16.8,7.8,25.1c1.8-3.2,3.8-6.3,6.2-9.2c-2.9-8.9-5.5-17.9-8-27
		C199.3,351.8,197.3,355.5,195,359.2z"/>
	<path fill="#E50112" d="M378.1,576.8l-3,16.7l-4-0.7c-9.7-1.8-19.1-4.1-28.3-6.9v4.8c-2.5-2.4-4.9-4.8-7.3-7.2
		c-6.6-2.2-13-4.7-19.4-7.5c24.9,26.9,52.9,51.6,83.8,73.9c57.5-41.6,105-91.3,141.3-148.1c32.2-50.5,55.8-106.8,70.2-167.3
		c13.8-58.2,16.3-108.9,15.8-142.6c-22.5,5-45,7.5-67.2,7.5c-58.4,0-104.8-17.6-133.4-32.4c-10.4-5.3-19.2-10.7-26.6-15.6
		c-7.4,4.9-16.2,10.3-26.6,15.6c-28.6,14.8-75,32.4-133.4,32.4c-19,0-38.2-1.9-57.5-5.5c-3,3.2-6.3,6-9.7,8.5
		c0.1,12,0.5,25.8,1.7,40.9c2.9-1.8,5.7-3.4,8.5-4.8c-0.9-13.6-1.3-25.7-1.4-35.9c19.6,3.7,39.2,5.6,58.4,5.6
		c60.2,0,108-18.1,137.5-33.4c7.8-4,15.4-8.4,22.6-12.9c7.2,4.6,14.8,8.9,22.6,12.9c29.5,15.2,77.3,33.4,137.4,33.4
		c19.2,0,38.9-1.9,58.5-5.6c-0.2,30-3,76.8-15.6,129.9c-5.1,21.7-11.5,42.8-19,63.3H233.6c0.2,1.6,0.4,3.2,0.5,4.8
		c0,0.5,0,0.9,0.1,1.4h45.1c4.5,14,9,27.9,13.5,41.9h-23.9c0.8,2,1.5,4.2,2.2,6.4c3.4,11.5,5.3,27.3-0.9,44.5v8.5
		c-0.7-1.1-1.4-2.2-2.1-3.3c-1.3,2.9-2.9,5.9-4.7,8.8c2,3,4,6,6.1,9c13.5,10.8,27.6,19.9,42.3,27.2v-94.7H343v54
		c5.9-19.7,21.7-35.1,41.6-40.5v-13.5h31.2v13.5c19.9,5.4,35.7,20.8,41.6,40.5v-54h31.2v107.6c-9.9,11.3-20.2,22.3-31.2,32.8v-52.3
		c-5.9,19.7-21.7,35.1-41.6,40.5v48.2c-5.1,4-10.3,8-15.6,11.9c-5.3-3.9-10.5-7.9-15.6-11.9v-48.2
		C382.3,578.3,380.2,577.6,378.1,576.8z M293.2,402h15.2c1.4,5.8,2.1,8.7,3.6,14.6c-5.8,0-8.8,0-14.6,0
		C295.7,410.7,294.9,407.7,293.2,402z M305.2,443.9c-1.9-6.7-2.9-10.1-4.8-16.9c5.7,0,8.5,0,14.2,0c1.7,6.8,2.5,10.2,4.1,16.9H305.2
		z M331,443.9c-2.9-14-5.8-27.9-8.7-41.9h9.2c2.6,14,5.1,27.9,7.7,41.9H331z M372.9,443.9c-0.3-3.7-0.5-5.6-0.8-9.3
		c-8.8,0-13.1,0-21.9,0c-0.5-3.3-0.7-5-1.2-8.4c8.1,0,12.1,0,20.2,0c-0.3-3.5-0.5-5.2-0.8-8.7c-8.3,0-12.4,0-20.7,0
		c-0.4-2.7-0.6-4-1-6.7c9.1,0,13.7,0,22.8,0c-0.3-3.5-0.4-5.4-0.7-8.8h8.3c0.9,14,1.7,27.9,2.6,41.9H372.9z M391.2,443.9
		c-0.2-9.1-0.4-13.8-0.6-23c6.6,9.2,9.7,13.9,15.4,23H391.2z M406.5,425.2c-6.1-9.3-9.4-14-16.3-23.2H407
		C406.8,411.2,406.7,415.9,406.5,425.2z M533.9,497.1c-1.3,2.1-2.7,4.1-4,6.2v-53h30.5C552.3,466.3,543.5,482,533.9,497.1z
		 M581.6,402c-5.4,14.3-11.5,28.3-18.1,41.9h-56.3c4.5-14,9-27.9,13.5-41.9H581.6z M507.6,402c-2.6,9.2-4,13.9-6.7,23.2
		c-3.6-9.3-5.7-14-10.1-23.2H507.6z M449.8,428c-3.7,0-5.5,0-9.2,0c2.5-6.1,3.8-9.2,6.5-15.3C448.3,418.8,448.8,421.8,449.8,428z
		 M417.8,443.9c0.7-14,1.5-27.9,2.2-41.9h21c-6.8,13.8-13.3,27.7-19.4,41.9H417.8z M434.2,443.9c1-2.6,1.5-4,2.6-6.7
		c5.7,0,8.6,0,14.3,0c0.4,2.7,0.6,4.1,0.9,6.7H434.2z M469,443.9h-4.1c-2.2-14.1-5.1-28.1-8.5-41.9h21.3
		C474.8,415.9,471.9,429.9,469,443.9z M480.6,443.9c2.2-9.1,3.3-13.8,5.6-23c4.1,9.2,6,13.9,9.2,23H480.6z"/>
	<path fill="#E50112" d="M342.9,557.5c0.8,0.2,1.6,0.5,2.3,0.7c3.5,1.1,7,2.1,10.6,3c-5.9-6.5-10.3-14.3-12.9-22.9V557.5z"/>
	<path fill="#E50112" d="M144.6,219.3c0.3-1.6,0.6-3.2,1-4.8c0.1-0.6,0.3-1.2,0.4-1.8c-0.6-25.4,0.6-44.8,1.6-55.8
		c3.1,1,6.2,2,9.3,2.9c0.9-2.6,1.8-5.2,2.9-7.8c-6.4-1.9-12.8-4-19.3-6.4c0,0-3.4,22.9-3,60.5C140.2,210.4,142.6,214.8,144.6,219.3z
		"/>
	<path fill="#E50112" d="M659.5,145.7C502.6,203.6,400,107.3,400,107.3s-76.5,71.8-198.4,54.1c-1,2.7-2,5.4-3.1,7.9
		c13.9,2.1,27.8,3.2,41.5,3.2c53,0,95.1-16,121.1-29.4c18.8-9.7,32-19.4,39-24.9c7,5.6,20.2,15.3,38.9,25
		c26,13.4,68.1,29.4,121.1,29.4c30.4,0,61.5-5.2,92.4-15.5c2.3,25.6,5.8,97.1-14.8,183.8c-15,63.4-39.8,122.5-73.7,175.5
		c-41.4,64.8-96.5,120.8-164,166.5c-62.8-42.6-115-94.1-155.3-153.3c-3.2-2.9-6.3-5.8-9.3-8.8c-1.9,0.4-3.8,0.8-5.8,1
		c38.8,60.5,93.5,120,170.4,171.1C709.6,486.8,659.5,145.7,659.5,145.7z"/>
	<polygon fill="#E50112" points="400,181.6 382.2,212.5 458.5,344.6 478,316.7 	"/>
	<polygon fill="#E50112" points="322,316.7 341.5,344.6 395.7,250.8 377.9,219.9 	"/>
	<path fill="#E50112" d="M400,299.9c3.8,0,7,2.5,8.2,5.9h15c-1.3-11.6-11.2-20.6-23.2-20.6c-12.9,0-23.3,10.5-23.3,23.3
		s10.5,23.3,23.3,23.3c12,0,21.8-9,23.2-20.6h-15c-1.1,3.4-4.4,5.9-8.2,5.9c-4.7,0-8.6-3.9-8.6-8.6
		C391.4,303.8,395.3,299.9,400,299.9z"/>
</g>
</svg>
