<?xml version="1.0" encoding="utf-8"?>
<!-- Created by @FCLOGO 2022-04-26 19:42:33 . https://fclogo.top/ -->
<!-- FOR PERSONAL USE ONLY NOT FOR COMMERCIAL USE -->
<svg version="1.1" xmlns="http://www.w3.org/2000/svg" xmlns:xlink="http://www.w3.org/1999/xlink" x="0px" y="0px"
	 viewBox="0 0 800 800" enable-background="new 0 0 800 800" xml:space="preserve">
<g>
	<path fill="#E50112" d="M166.7,493.1h-35.3v-4.8h-20.9v5.4H80v14.4h31v5.9H78.9v15H111v5.3H80v15h31v5.9H80v13.4h31v6.4H80v13.4h31
		v4.8h21.5v-4.8h36.9V575H133v-6.4h36.4v-13.4H133v-5.9h18.2c10.7,0,16.1-4.6,16.1-13.9v-7h4.8V514h-5.4V493.1z M132.4,507.6h10.7
		v6.4h-10.7V507.6z M143.6,532.2c0,1.4-0.9,2.1-2.7,2.2h-9.1V529h11.8V532.2z"/>
	<path fill="#E50112" d="M72.5,586.7v-29.4c0-3.2-1.1-5.9-3.2-8c-1.1-1.1-1.6-2-1.6-2.7c0-0.3,0.4-0.9,1.1-1.6
		c2.4-2.8,3.7-6,3.7-9.6v-47.6v-0.1H51v15h4.8v33.2c0,1.5-0.7,2.3-2.1,2.7h-0.5h-2.1v16.1h2.1c1.4,0.3,2.3,1.6,2.7,3.7V591
		c-0.3,2.8-1.4,4.4-3.2,4.8H50v13.9h10.6c2.1,0,4.6-1.1,7.5-3.2c1.4-0.7,2.3-1.1,2.7-1.1c0.7,0,2.2,0.5,4.3,1.6
		c2.9,1.8,5.2,2.7,7,2.7H171v-13.9H90.2C80.2,594.7,74.3,591.7,72.5,586.7z"/>
	<path fill="#E50112" d="M750,526.8v-15h-35.9v-20.3h-19.8v20.3h-10.7v-20.3h-18.2v20.3h-36.9l0,15.1h17.1l4.3,8h-21.4v15.5h49.8
		v4.8h-49.2v14.4h49.8v5.4h-50.3v15.5h50.3V613h20.3v-22.6H750v-15.5h-50.3v-5.4H750v-14.4h-50.3v-4.8H750v-15.5h-23l3.2-8H750z
		 M701.8,534.9h-24.5l-5.4-8h34.2L701.8,534.9z"/>
	<path fill="#E50112" d="M651.5,493.1l-1.1-2.1h-20.3l4.3,12.8c1.1,2.9,3.9,4.3,8.6,4.3h17.6v-13.9h-7
		C652.6,494.2,651.9,493.8,651.5,493.1z"/>
	<path fill="#E50112" d="M645.1,597.4c-0.4,0.7-1.3,1.1-2.7,1.1H628v13.9h23.5c4.6,0.4,7.7-1.2,9.1-4.8l9.1-13.9h-21.9L645.1,597.4z
		"/>
	<path fill="#E50112" d="M732.8,596.9l-1.6-3.2h-21.4l5.4,13.9c1.1,3.6,4.8,5.4,11.3,5.4H750v-15h-12.9
		C734.2,598,732.8,597.6,732.8,596.9z"/>
	<path fill="#E50112" d="M746.3,502.2l3.2-10.7h-19.3l-1.6,1.6c0,0.7-0.5,1.1-1.6,1.1h-9.1v14.4h18.2
		C741.8,508.6,745.2,506.5,746.3,502.2z"/>
	<path fill="#E50112" d="M296.3,559.1c20.7,11.4,42.9,20.7,66.2,25.2c0,0,2.3-14.8,2.3-14.8c-1.3-0.2-2.5-0.4-3.8-0.7
		c-36.5-8.2-70.5-26.3-99.3-50c-5.8-4.9-11.5-10-16.9-15.4c38-40.2,10.9-89.3,10.9-89.3c-23.4,24.8-24.1,57.7-21.7,77.8
		c-8.1-9.1-15.6-18.9-22.4-29c-3.2-4.8-6.3-9.7-9.2-14.7c41.3-29.4,16.2-89.8,16.2-89.8c-24.6,16.6-25.2,54.9-23.3,76.8
		c-10.7-20.8-19-42.8-25.8-65.3c44.2-38.7,32.7-95.5,32.7-95.5c-26.9,20.9-34.9,57.2-37.3,79.8c-2.2-8-4.2-16-6.1-24
		c-4.9-21.3-8.7-42.9-11.1-64.7c12.9-1.2,43.8-8.5,52.4-49.5c0,0-37.1,7.2-53.5,38.5c-0.3-3.4-0.6-6.7-0.8-10.1c0-2.9-0.2-6-0.5-9.3
		c-1.1-23.4-0.5-46.8,2.3-70.1C191,141.9,190.6,70,190.6,70c-44.8,18.4-52.8,74.5-51.8,98.9c0.1,0,0.1,0,0.2-0.1
		c-1.4,11.3-2.3,22.7-2.7,34.1c-5.6-12.1-14.4-24.8-27.7-37c0,0-17.8,72.2,29.5,97.6c1,10.9,2.3,21.8,4,32.6
		c-8.2-12.1-21.1-25.1-41.3-36.6c0,0-0.2,63.6,49.3,78.7c3.8,16.5,8.2,33,13.4,49.2c-10.9-11.2-26.6-21.4-49.4-26.4
		c0,0,1.8,67.6,67,72c5.9,12.6,12.6,24.9,20.3,36.6c1.5,2.3,3,4.5,4.5,6.8c-14.2-10.6-33.8-20.8-59.9-25.1c0,0,30.6,77,86.2,57.6
		C250.8,528.8,272.5,545.8,296.3,559.1z"/>
	<path fill="#E50112" d="M342.8,582.5v8.8c-4.5-4.4-9-8.9-13.3-13.4c-6.2-2.4-12.6-5.1-19-8.2c26.3,29.3,56.3,56.1,89.5,80.2
		c57.5-41.6,105-91.3,141.1-148.1c32.2-50.5,55.9-106.8,70.2-167.3c13.8-58.1,16.3-108.9,15.8-142.6c-22.5,5-45,7.5-67.2,7.5
		c-58.4,0-104.8-17.6-133.4-32.4c-10.4-5.3-19.2-10.7-26.6-15.6c-7.4,4.9-16.2,10.3-26.6,15.6c-28.6,14.8-75,32.4-133.4,32.4
		c-22.2,0-44.7-2.5-67.2-7.5c-0.1,9.3,0,19.9,0.4,31.5c2.8-1.6,5.6-3,8.2-4.2c-0.2-6.1-0.3-11.9-0.3-17.2
		c19.7,3.8,39.5,5.7,58.9,5.7c60.1,0,107.8-18.1,137.2-33.3c7.9-4.1,15.5-8.5,22.8-13.1c7.3,4.6,14.9,9,22.8,13.1
		c29.4,15.2,77.1,33.3,137.2,33.3c19.4,0,39.2-1.9,59-5.7c-0.1,32.1-3.2,78.3-15.6,130.6c-5.1,21.6-11.5,42.7-18.9,63.1H229.1
		c0,2.1,0,4.2-0.1,6.3h50.3c4.5,13.9,9,27.9,13.5,41.9h-25.2c0.2,1.9,0.4,4,0.4,6.1h2.1v54c-1.5-2.2-3-4.5-4.4-6.7
		c-2-3.2-4-6.4-6-9.6c-1.4,2.7-3,5.3-4.8,8c1.3,2.1,2.5,4.1,3.8,6.1c5,7.8,10.2,15.5,15.6,23c12,8.9,24.5,16.6,37.4,23V450h31.1
		v51.3c6.6-18.8,22.2-33.4,41.6-38.6V450h31.1v12.7c19.4,5.1,34.9,19.6,41.6,38.3v-51h31.2v108.6c-10.5,12-29.9,31.5-31.2,32.8
		v-49.8c-6.7,18.7-22.2,33.2-41.6,38.3v47.8c4.7-3.7-5.3,4.4-15.5,11.9c-5.3-3.9-10.5-7.9-15.6-11.9v-47.8
		c-6.1-1.6-11.9-4.2-17.1-7.6l-2.4,15.6l-3.1-0.6C355.6,586,349.2,584.4,342.8,582.5z M293.2,402h15.2c1.4,5.8,2.1,8.8,3.5,14.6
		c-5.8,0-8.8,0-14.6,0C295.6,410.7,294.8,407.7,293.2,402z M305.1,443.9c-1.9-6.7-2.8-10.1-4.8-16.9c5.7,0,8.5,0,14.2,0
		c1.7,6.8,2.5,10.2,4.1,16.9H305.1z M331,443.9c-2.9-14-5.8-27.9-8.7-41.9h9.2c2.6,13.9,5.1,27.9,7.7,41.9H331z M373,443.9
		c-0.3-3.6-0.5-5.6-0.8-9.3c-8.8,0-13.1,0-21.9,0c-0.5-3.4-0.7-5.1-1.2-8.4c8.1,0,12.1,0,20.2,0c-0.3-3.5-0.5-5.2-0.8-8.7
		c-8.3,0-12.4,0-20.7,0c-0.4-2.7-0.6-4-1-6.7c9.1,0,13.7,0,22.8,0c-0.3-3.6-0.5-5.4-0.8-8.8h8.2c0.9,13.9,1.8,27.9,2.5,41.9H373z
		 M391.1,443.9c-0.2-9.1-0.4-13.8-0.6-23c6.6,9.2,9.7,13.9,15.4,23H391.1z M406.5,425.2c-6.1-9.3-9.4-14-16.3-23.2h16.7
		C406.8,411.2,406.7,415.9,406.5,425.2z M582,402c-5.4,14.3-11.5,28.3-18,41.9h-56.8c4.5-14,9-27.9,13.5-41.9H582z M507.5,402
		c-2.6,9.2-3.9,13.9-6.6,23.2c-3.7-9.3-5.7-14-10.1-23.2H507.5z M449.8,428c-3.7,0-5.6,0-9.1,0c2.5-6.1,3.8-9.2,6.5-15.3
		C448.3,418.8,448.8,421.9,449.8,428z M417.7,443.9c0.8-14,1.5-27.9,2.3-41.9h21c-6.9,13.8-13.3,27.7-19.4,41.9H417.7z M434.2,443.9
		c1-2.7,1.5-4.1,2.6-6.8c5.7,0,8.6,0,14.3,0c0.4,2.7,0.5,4.1,1,6.8H434.2z M469,443.9h-4c-2.2-14.1-5-28.1-8.5-41.9h21.1
		C474.8,415.9,471.9,429.9,469,443.9z M486.1,420.9c4.1,9.2,6,13.9,9.2,23h-14.7C482.7,434.8,483.8,430.1,486.1,420.9z M561,450
		c-8.1,16.3-17,32.1-26.8,47.3c-1.4,2.2-2.9,4.4-4.3,6.6V450H561z"/>
	<path fill="#E50112" d="M180.5,294.4c2.1-3.5,4.4-6.7,6.9-9.7c-1.6-11-2.9-21.6-3.8-31.6c-2.5,2.3-5.1,4.3-7.8,6
		C176.9,270.3,178.4,282.1,180.5,294.4z"/>
	<path fill="#E50112" d="M191.8,347.6c2.5,9.6,5.3,19.1,8.2,28.4c1.6-3.4,3.5-6.6,5.8-9.5c-3-9.9-5.8-20-8.3-30.2
		C195.9,340,194,343.8,191.8,347.6z"/>
	<path fill="#E50112" d="M400,300c3.8,0,7,2.5,8.2,5.9h15c-1.3-11.6-11.2-20.6-23.2-20.6c-12.9,0-23.3,10.5-23.3,23.3
		c0,12.9,10.5,23.3,23.3,23.3c12,0,21.8-9,23.2-20.6h-15v0c-1.1,3.4-4.4,5.9-8.2,5.9c-4.7,0-8.6-3.9-8.6-8.6S395.3,300,400,300z"/>
	<polygon fill="#E50112" points="413.3,358.8 413.3,351.3 386.8,351.3 386.8,386 397.6,386 397.6,371.9 411,371.9 411,364.9 
		397.6,364.9 397.6,358.8 	"/>
	<polygon fill="#E50112" points="400,181.6 382.2,212.5 458.5,344.6 478,316.7 	"/>
	<path fill="#E50112" d="M450.3,358.6c1.1,0,2,0.3,2.9,0.7c0.9,0.4,1.6,1.1,2.2,1.9c0.3,0.5,0.7,1.2,1,2.3l9.5-2.1
		c-1.2-3.6-3.1-6.3-5.6-8.1c-2.5-1.7-5.9-2.6-10.3-2.6c-5.5,0-9.8,1.5-12.9,4.6c-3.1,3.1-4.6,7.5-4.6,13.2c0,4.3,0.9,7.8,2.6,10.6
		s3.8,4.7,6.2,5.8c2.4,1.1,5.4,1.6,9.2,1.6c3.1,0,5.7-0.4,7.7-1.3c2-0.9,3.6-2.2,5-4c1.4-1.8,2.4-4,3-6.6l-9.4-2.8
		c-0.4,2.2-1.2,3.9-2.3,4.8c-1,1.1-2.6,1.7-4.6,1.7c-2.1,0-3.7-0.7-4.9-2.1c-1.2-1.4-1.8-4.1-1.8-7.9c0-3.1,0.5-5.4,1.5-6.8
		C446,359.6,447.9,358.6,450.3,358.6z"/>
	<path fill="#E50112" d="M659.5,145.7C502.6,203.6,400,107.3,400,107.3s-91.4,85.8-233.7,46.7c-2.2,2.4-4.5,4.6-7,6.7
		c27,7.8,54,11.8,80.5,11.8c53,0,95.1-16,121.1-29.4c18.8-9.7,32-19.4,39-24.9c7,5.6,20.2,15.3,38.9,25
		c26,13.4,68.1,29.4,121.1,29.4c30.4,0,61.5-5.2,92.4-15.5c2.3,25.6,5.8,97.1-14.8,183.8c-15,63.4-39.8,122.5-73.7,175.5
		C522.6,581.1,467.4,637,400,682.7c-66.5-45.1-121.1-100.1-162.3-163.8c-2.2-2.1-4.3-4.3-6.4-6.5c-2.1,0.7-4.3,1.2-6.4,1.6
		c39,63.1,95,125.4,175.1,178.6C709.6,486.8,659.5,145.7,659.5,145.7z"/>
	<path fill="#E50112" d="M351.6,358.6c1.1,0,2,0.3,2.9,0.7c0.9,0.4,1.6,1.1,2.2,1.9c0.3,0.5,0.7,1.2,1,2.3l9.5-2.1
		c-1.2-3.6-3.1-6.3-5.6-8.1c-2.5-1.7-5.9-2.6-10.3-2.6c-5.5,0-9.8,1.5-12.9,4.6c-3.1,3.1-4.6,7.5-4.6,13.2c0,4.3,0.9,7.8,2.6,10.6
		s3.8,4.7,6.2,5.8c2.4,1.1,5.4,1.6,9.2,1.6c3.1,0,5.7-0.4,7.7-1.3c2-0.9,3.6-2.2,5-4c1.4-1.8,2.4-4,3-6.6l-9.4-2.8
		c-0.5,2.2-1.2,3.9-2.3,4.8c-1,1.1-2.6,1.7-4.6,1.7c-2.1,0-3.7-0.7-4.9-2.1c-1.2-1.4-1.8-4.1-1.8-7.9c0-3.1,0.5-5.4,1.5-6.8
		C347.3,359.6,349.2,358.6,351.6,358.6z"/>
	<polygon fill="#E50112" points="322,316.7 341.5,344.6 395.7,250.8 377.9,219.9 	"/>
	<path fill="#E50112" d="M455.7,518.6c-0.3-4.8-1.1-9.7-2.7-14.5c-1.6-4.8-3.7-9.3-6.4-13.3l-9.8-2.5l-4.1,22.4l16.5,15.7
		L455.7,518.6z"/>
	<path fill="#E50112" d="M410.3,569.6l9.3,3.7c4.5-1.7,8.9-4,13-7c4.1-3,7.7-6.4,10.7-10.2l-0.6-10.1l-22.6,3L410.3,569.6z"/>
	<path fill="#E50112" d="M342.8,560.7c5.1,1.7,10.2,3.1,15.3,4.3c-6.8-6.5-12.1-14.6-15.3-23.7V560.7z"/>
	<polygon fill="#E50112" points="387.4,538.7 412.6,538.7 420.4,514.7 400,499.8 379.6,514.7 	"/>
	<path fill="#E50112" d="M420.1,476.1l-5.6-8.4c-4.6-1.2-9.6-1.9-14.6-1.9s-9.9,0.6-14.6,1.9l-5.4,8.5L400,487L420.1,476.1z"/>
	<path fill="#E50112" d="M363.2,488.3l-9.7,2.5c-2.7,4-4.8,8.5-6.4,13.3c-1.6,4.8-2.5,9.7-2.7,14.5l6.4,7.8l16.5-15.7L363.2,488.3z"
		/>
	<path fill="#E50112" d="M367.2,566.4c4.1,3,8.5,5.3,13,7l9.4-3.7l-9.8-20.6l-22.6-3l-0.7,10.1C359.5,560,363.1,563.4,367.2,566.4z"
		/>
	<path fill="#E50112" d="M221.1,431.7c3.5,7.9,7.2,15.6,11,23.3c0.8-4.1,1.9-8.2,3.2-12.3c-3.4-7.1-6.6-14.2-9.7-21.5
		C224.4,424.9,222.9,428.4,221.1,431.7z"/>
</g>
<g>
</g>
<g>
</g>
<g>
</g>
<g>
</g>
<g>
</g>
<g>
</g>
<g>
</g>
<g>
</g>
<g>
</g>
<g>
</g>
<g>
</g>
</svg>
