<?xml version="1.0" encoding="UTF-8"?>
<svg data-name="图层_1" xmlns="http://www.w3.org/2000/svg" version="1.1" viewBox="0 0 800 800">
  <!-- Created by @FCLOGO 2025-1-21 GMT+8 21:56:15 . https://fclogo.top/ -->
<!-- FOR PERSONAL USE ONLY NOT FOR COMMERCIAL USE -->
  <path d="M348.2194,774.301c-.786,0-1.3752-.2173-1.7682-.6519-.393-.4352-.5284-1.03-.406-1.7856l.2518-1.6478c.122-.755.4501-1.3504.9841-1.785.5339-.4352,1.1939-.6525,1.9799-.6525.7553,0,1.3293.1987,1.7223.5954.3927.3967.551.9381.4747,1.6248h-1.2358c.0304-.3589-.0553-.637-.2573-.8357-.2024-.1981-.4979-.2974-.8869-.2974-.4197,0-.763.1167-1.03.3489-.2673.2328-.4349.5631-.5035.9903l-.2632,1.659c-.0686.4352-.0056.7686.1887,1.0015.1946.2328.5017.3489.9214.3489.389,0,.7152-.0987.9785-.2974.2632-.1981.4365-.4805.5206-.8469h1.2358c-.1372.6867-.4672,1.2306-.9897,1.631-.5228.4005-1.1616.6004-1.9169.6004ZM352.7967,774.1868l.9956-6.2943h1.1902l-.1946,1.1902c.3359-.8698.9729-1.3044,1.9113-1.3044.6712,0,1.1691.208,1.4932.624.3244.416.4293.9859.3148,1.7105l-.0686.4234h-1.2703l.0571-.3204c.0689-.4501.0115-.7953-.1714-1.0356-.1832-.2403-.4771-.3607-.8813-.3607-.4045,0-.7401.1223-1.007.3663-.2673.2446-.4349.588-.5035,1.03l-.6296,3.9711h-1.2358ZM361.9058,774.301c-.7705,0-1.3463-.2229-1.7279-.6693s-.515-1.0356-.4005-1.7682l.2518-1.6478c.0838-.488.2573-.9152.5206-1.2815s.6007-.6507,1.0129-.8524c.4119-.2024.8732-.3036,1.3845-.3036.7705,0,1.3485.2235,1.7338.6693.3852.4464.5169,1.0356.3949,1.7682l-.1717,1.1213h-3.845l-.0916.5265c-.1527.9536.2173,1.4305,1.1098,1.4305.7171,0,1.175-.2477,1.3734-.7438h1.2247c-.1679.5339-.5035.9599-1.007,1.2759-.5038.3166-1.0912.475-1.7626.475ZM361.2306,770.2157l-.0456.2862,2.6548-.0118.0459-.2856c.0686-.4656.0133-.822-.1661-1.0704-.1791-.2477-.4861-.3719-.9211-.3719-.4427,0-.7953.126-1.0586.3775-.2632.2521-.4331.6109-.5094,1.076ZM368.3258,774.301c-.6333,0-1.1027-.2117-1.4078-.6351s-.3967-1.0008-.2744-1.7335l.2744-1.7738c.1145-.7326.393-1.3119.8357-1.7397.4424-.4272.98-.6407,1.6133-.6407.4653,0,.8298.1186,1.093.3545.2632.2365.3908.5575.3834.9617h.023l.1717-1.202h1.2358l-.9956,6.2943h-1.2247l.1946-1.2014h-.023c-.122.4116-.3511.7339-.6867.9667s-.7401.3489-1.2129.3489ZM368.9324,773.2257c.389,0,.7152-.1186.9782-.3551.2632-.2359.4293-.5718.4979-1.007l.2518-1.6478c.0686-.4272.0096-.7612-.1773-1.0015-.1872-.2403-.475-.3601-.8642-.3601-.3967,0-.7249.118-.9841.3545-.2595.2365-.4234.5724-.492,1.007l-.2518,1.6478c-.0686.4427-.0133.7804.1658,1.0133.1794.2328.4712.3489.8757.3489ZM376.3477,774.1868c-.5721,0-.9937-.1565-1.2644-.4694-.271-.3123-.3607-.7512-.2691-1.3156l.538-3.3874h-1.7394l.1714-1.1219h1.7397l.2747-1.7161h1.2358l-.2747,1.7161h2.472l-.1832,1.1219h-2.4605l-.5377,3.3874c-.0764.4421.099.6637.5262.6637h1.7167l-.1717,1.1213h-1.7738ZM382.5042,774.301c-.7705,0-1.3463-.2229-1.7279-.6693s-.515-1.0356-.4005-1.7682l.2518-1.6478c.0838-.488.2573-.9152.5206-1.2815s.6007-.6507,1.0129-.8524c.4119-.2024.8732-.3036,1.3845-.3036.7705,0,1.3485.2235,1.7338.6693.3852.4464.5169,1.0356.3949,1.7682l-.1717,1.1213h-3.845l-.0916.5265c-.1527.9536.2173,1.4305,1.1098,1.4305.7171,0,1.175-.2477,1.3734-.7438h1.2247c-.1679.5339-.5035.9599-1.007,1.2759-.5038.3166-1.0912.475-1.7626.475ZM381.829,770.2157l-.0456.2862,2.6548-.0118.0459-.2856c.0686-.4656.0133-.822-.1661-1.0704-.1791-.2477-.4861-.3719-.9211-.3719-.4427,0-.7953.126-1.0586.3775-.2632.2521-.4331.6109-.5094,1.076ZM388.9243,774.301c-.6333,0-1.1008-.2117-1.4019-.6351-.3014-.4234-.3949-1.0008-.2803-1.7335l.2744-1.7738c.1145-.7326.393-1.3119.8357-1.7397.4424-.4272.98-.6407,1.6133-.6407.4653,0,.8298.1186,1.093.3545.2632.2365.3908.5575.3834.9617h.023l.2058-1.4652.2977-1.7962h1.2358l-1.3274,8.3537h-1.2247l.1946-1.2014h-.023c-.122.4116-.3511.7339-.6867.9667s-.7401.3489-1.2129.3489ZM389.5309,773.2257c.389,0,.7152-.1186.9782-.3551.2632-.2359.4293-.5718.4979-1.007l.2518-1.6478c.0761-.4272.0189-.7612-.1717-1.0015-.1909-.2403-.4805-.3601-.8698-.3601-.3967,0-.7249.118-.9841.3545-.2595.2365-.4234.5724-.492,1.007l-.2518,1.6478c-.0764.4427-.023.7804.1602,1.0133s.4768.3489.8813.3489ZM401.0175,774.301c-.4731,0-.8394-.1161-1.0986-.3489-.2595-.2328-.3852-.5551-.3775-.9667h-.0115l-.1946,1.2014h-1.2243l1.3274-8.3537h1.2358l-.2862,1.7962-.2744,1.4652h.0456c.122-.4123.353-.7345.6923-.9673.3396-.2322.7419-.3489,1.2076-.3489.633,0,1.1002.2136,1.4016.6407.3014.4278.3949,1.007.2806,1.7397l-.2747,1.7738c-.1145.7326-.3949,1.31-.8413,1.7335-.4461.4234-.9822.6351-1.6077.6351ZM400.7657,773.2257c.3967,0,.7227-.1161.9785-.3489.2555-.2328.4216-.5706.4976-1.0133l.2518-1.6478c.0689-.4346.0115-.7705-.1714-1.007-.1832-.2365-.4734-.3545-.8698-.3545-.3893,0-.7152.1198-.9785.3601s-.429.5743-.4979,1.0015l-.2518,1.6478c-.0686.4352-.0112.7711.1717,1.007.1832.2365.4731.3551.8698.3551ZM405.4694,776.2468l.1717-1.0642h1.934c.6407,0,1.007-.3017,1.0986-.9046l.1028-.6749.2061-1.1902h-.0345c-.122.4197-.3471.7438-.6752.9729-.3281.2285-.7286.3433-1.2014.3433-.6258,0-1.093-.2005-1.4019-.601s-.4104-.9443-.3033-1.631l.5836-3.6047h1.2358l-.5606,3.4793c-.0612.4116,0,.732.1832.9611s.4653.3433.8469.3433c.389,0,.7168-.1217.9841-.3663.267-.244.4309-.5836.492-1.0182l.538-3.3992h1.2358l-1.007,6.4086c-.0993.6029-.37,1.0778-.8124,1.4249-.4427.3471-.9996.5209-1.6707.5209h-1.9455ZM417.787,770.0853h3.221l.5368-1.8545h-5.4659l-1.7081,6.4419h2.1473l.5856-2.0985h3.0257l.4392-1.7081h-3.0257l.244-.7808ZM424.229,772.9158c-.5856,0-1.0249-.3904-1.0249-1.1225,0-.8784.6344-1.7569,1.6105-1.7569.488,0,.8784.244,1.0248.7808l1.9521-.8296c-.2928-1.1713-1.2689-1.9033-2.6353-1.9033-2.7817,0-4.1482,2.1473-4.1482,3.9042s1.2689,2.8305,3.0746,2.8305c1.3665,0,2.3425-.5856,2.9769-1.4153l-1.5129-1.1713c-.3904.4392-.8296.6832-1.3177.6832ZM430.9149,768.2308h-2.1473l-1.7569,6.4419h5.1242l.488-1.8545h-2.9281l1.2201-4.5874ZM439.7481,771.0125c0-1.6593-1.3177-2.9281-3.221-2.9281-2.1961,0-3.8066,1.8057-3.8066,3.8066,0,1.6593,1.3177,2.9281,3.221,2.9281,2.1961,0,3.8066-1.8057,3.8066-3.8066ZM434.9167,771.6957c0-.8296.5856-1.7081,1.5129-1.7081.7808,0,1.1713.5368,1.1713,1.2201,0,.8296-.5856,1.7081-1.5129,1.7081-.7808,0-1.1713-.5368-1.1713-1.2201ZM443.2131,772.2326h1.0737l-.1952.6832c-.1464.0488-.3416.0976-.5856.0976-.6832,0-1.2689-.3904-1.2689-1.2201,0-1.0249.732-1.9033,1.9521-1.9033.5856,0,1.1225.244,1.5129.5856l1.3665-1.3665c-.4392-.5368-1.5129-1.0737-2.7329-1.0737-2.5865,0-4.2946,1.7569-4.2946,3.8554,0,2.0497,1.6105,2.8793,3.221,2.8793.9272,0,1.8545-.2928,2.4889-.6832l.9272-3.3186h-3.1234l-.3416,1.4641ZM450.7775,768.0844c-2.1961,0-3.8066,1.8057-3.8066,3.8066,0,1.6593,1.3177,2.9281,3.221,2.9281,2.1961,0,3.8066-1.8057,3.8066-3.8066,0-1.6593-1.3177-2.9281-3.221-2.9281ZM450.3382,772.9158c-.7808,0-1.1713-.5368-1.1713-1.2201,0-.8296.5856-1.7081,1.5129-1.7081.7808,0,1.1713.5368,1.1713,1.2201,0,.8296-.5856,1.7081-1.5129,1.7081ZM437.9424,767.4987c-.0488.2928.0976.488.4392.488s.5368-.1952.6344-.488c.0488-.244-.0976-.488-.4392-.488s-.5856.244-.6344.488ZM432.1349,765.4978c-.4392,0-.732.244-.7808.5856s.0976.5856.5368.5856.732-.244.7808-.5856c.0976-.3416-.0976-.5856-.5368-.5856ZM433.0134,767.3035c-.0976.5368.1464.8784.8296.8784.6344,0,1.0737-.3904,1.1713-.8784s-.1464-.8784-.8296-.8784c-.6832,0-1.0737.3904-1.1713.8784ZM439.6017,777.552l-2.4401-1.8057h-1.5129l4.2458,3.1722,1.6105-3.1722h-.976l-.9272,1.8057ZM425.8394,767.1571l-2.0009-1.4641,23.1323-2.7817-2.1473,4.2458h1.0248l2.6841-5.3195-26.9877,3.221,2.7817,2.0985h1.5129ZM338.7186,785.7853l.6088-3.8315h2.32l-.084.5194h-1.7636l-.1837,1.1445h1.6272l-.084.5248h-1.6166l-.2573,1.6428h-.5668ZM342.97,785.8377c-.3568,0-.6228-.1005-.7978-.3019-.175-.201-.2345-.473-.1784-.8161l.2677-1.7006c.056-.3429.2029-.6148.4408-.8161.2379-.201.5355-.3019.8923-.3019s.6228.1.7979.2993c.1748.1993.2361.4707.1837.8136l-.2677,1.7057c-.0561.3431-.2039.6151-.4435.8161-.2398.2013-.5381.3019-.895.3019ZM343.0487,785.3339c.1925,0,.3483-.0524.4672-.1575.119-.1051.1942-.2571.2257-.4568l.2678-1.7006c.0315-.1993.0051-.3517-.0787-.4565-.084-.1051-.2223-.1575-.4148-.1575s-.3473.0524-.4645.1575c-.1173.1048-.1916.2571-.2231.4565l-.2677,1.7006c-.0315.1996-.0053.3517.0787.4568s.2204.1575.4094.1575ZM344.9961,785.7853l.6088-3.8315h1.202c.2379,0,.4391.0464.6036.139.1645.0928.2835.223.357.391s.091.3656.0524.5932c-.0384.2591-.14.4838-.3044.6746-.1645.1905-.3656.3209-.6036.391l.5354,1.6428h-.6194l-.4777-1.5748h-.5406l-.2466,1.5748h-.5668ZM345.8883,783.7068h.6352c.1889,0,.349-.0558.4803-.168.1313-.1119.2107-.2623.2388-.4514.0316-.1925,0-.3454-.0944-.4593-.0945-.1136-.2362-.1706-.4252-.1706h-.6352l-.1995,1.2493ZM349.545,785.7853l.6088-3.8315h1.2544c.3709,0,.6508.1048.8399.315.1889.2099.2553.4898.1993.8398-.0384.2344-.1216.4383-.2493.6114s-.2905.307-.4881.4015c-.1978.0945-.419.1418-.6639.1418h-.6928l-.2415,1.5221h-.5668ZM350.432,783.754h.6928c.1924,0,.3568-.0587.4934-.176.1364-.117.2204-.2737.2519-.4696s-.0017-.3525-.0997-.4699-.245-.1757-.441-.1757h-.6876l-.2099,1.2911ZM352.7466,785.7853l.6088-3.8315h2.2518l-.0787.5038h-1.6954l-.1731,1.0867h1.5115l-.0787.4986h-1.5115l-.1942,1.2387h1.6901l-.0787.5038h-2.2518ZM355.8434,785.7853l.6088-3.8315h1.202c.2379,0,.4391.0464.6036.139.1645.0928.2835.223.357.391s.091.3656.0524.5932c-.0384.2591-.14.4838-.3044.6746-.1645.1905-.3656.3209-.6036.391l.5354,1.6428h-.6194l-.4777-1.5748h-.5406l-.2466,1.5748h-.5668ZM356.7356,783.7068h.6352c.1889,0,.349-.0558.4803-.168.1313-.1119.2107-.2623.2388-.4514.0316-.1925,0-.3454-.0944-.4593-.0945-.1136-.2362-.1706-.4252-.1706h-.6352l-.1995,1.2493ZM360.1316,785.8377c-.385,0-.6736-.0951-.8661-.2859-.1924-.1908-.2641-.4505-.2151-.7794h.5668c-.028.1748.0105.3121.1155.4121.1051.0997.266.1495.483.1495.2029,0,.3701-.049.5012-.1469.1313-.098.2109-.2327.2389-.4044.0209-.1504.0007-.2788-.0604-.3856-.0614-.1068-.1583-.1811-.2913-.2233l-.4566-.1364c-.266-.0803-.4619-.217-.5879-.4095-.126-.1922-.1697-.4197-.1313-.6823.035-.2099.1121-.3935.2309-.551s.2729-.2799.4619-.3673.4024-.1313.6404-.1313c.3498,0,.6158.0954.7978.2859.182.1908.2485.4437.1995.7586h-.5668c.0279-.168-.0027-.3001-.092-.3964-.0891-.0963-.2301-.1444-.4225-.1444-.1889,0-.343.0447-.4619.1338-.119.0894-.1889.2144-.21.3753-.0245.1506-.007.2791.0525.3859s.1575.1811.2939.223l.4672.1469c.2624.0806.4558.2173.5801.4095.1242.1925.1653.4217.1233.6877-.035.217-.1155.4058-.2415.5667-.1259.1612-.2878.2862-.4855.3753-.1976.0894-.419.1338-.6639.1338ZM363.2651,785.8377c-.3568,0-.6228-.1005-.7978-.3019-.175-.201-.2345-.473-.1784-.8161l.2677-1.7006c.056-.3429.2029-.6148.4408-.8161.2379-.201.5355-.3019.8923-.3019s.6228.1.7979.2993c.1748.1993.2361.4707.1837.8136l-.2677,1.7057c-.0561.3431-.2039.6151-.4435.8161-.2398.2013-.5381.3019-.895.3019ZM363.3439,785.3339c.1925,0,.3483-.0524.4672-.1575.119-.1051.1942-.2571.2257-.4568l.2678-1.7006c.0315-.1993.0051-.3517-.0787-.4565-.084-.1051-.2223-.1575-.4148-.1575s-.3473.0524-.4645.1575c-.1173.1048-.1916.2571-.2231.4565l-.2677,1.7006c-.0315.1996-.0053.3517.0787.4568s.2204.1575.4094.1575ZM365.2754,785.7853l.6088-3.8315h.7086l.6194,3.186c.007-.098.0165-.217.0289-.3571.0121-.1398.0271-.2851.0446-.4354.0175-.1506.0367-.2888.0577-.4146l.315-1.9788h.525l-.609,3.8315h-.7085l-.6141-3.186c-.0071.0945-.0167.209-.0289.3437s-.0272.2757-.0446.4226c-.0177.1469-.0367.2833-.0578.4095l-.315,2.0102h-.5301ZM368.2252,785.7853l1.5851-3.8315h.7454l.3726,3.8315h-.5616l-.0735-.9711h-1.0865l-.3884.9711h-.5932ZM369.3852,784.3418h.8714l-.0893-1.1023c-.0175-.1959-.0298-.3654-.0367-.5089-.0071-.1435-.0105-.2432-.0105-.2993-.0175.0561-.0517.1558-.1024.2993s-.1146.3112-.1915.5038l-.441,1.1075ZM371.7208,785.7853l.6088-3.8315h.567l-.525,3.3118h1.6744l-.0787.5197h-2.2465ZM376.6785,785.8377c-.3673,0-.6342-.1005-.8003-.3019-.1663-.201-.2214-.475-.1654-.8213l.4357-2.7608h.567l-.4357,2.7554c-.0315.1962-.008.35.0708.4619.0787.1122.2144.168.4068.168.1925,0,.3473-.0558.4646-.168.1172-.1119.1915-.2657.2231-.4619l.4355-2.7554h.567l-.4357,2.7608c-.056.35-.2003.6245-.433.8241-.2328.1993-.5328.299-.9003.299ZM379.8435,785.8377c-.385,0-.6736-.0951-.8661-.2859-.1924-.1908-.2641-.4505-.2151-.7794h.5668c-.028.1748.0105.3121.1155.4121.1051.0997.266.1495.483.1495.2029,0,.3701-.049.5012-.1469.1313-.098.2109-.2327.2389-.4044.0209-.1504.0007-.2788-.0604-.3856-.0614-.1068-.1583-.1811-.2913-.2233l-.4566-.1364c-.266-.0803-.4619-.217-.5879-.4095-.126-.1922-.1697-.4197-.1313-.6823.035-.2099.1121-.3935.2309-.551s.2729-.2799.4619-.3673.4024-.1313.6404-.1313c.3498,0,.6158.0954.7978.2859.182.1908.2485.4437.1995.7586h-.5668c.0279-.168-.0027-.3001-.092-.3964-.0891-.0963-.2301-.1444-.4225-.1444-.1889,0-.343.0447-.4619.1338-.119.0894-.1889.2144-.21.3753-.0245.1506-.007.2791.0525.3859s.1575.1811.2939.223l.4672.1469c.2624.0806.4558.2173.5801.4095.1242.1925.1653.4217.1233.6877-.035.217-.1155.4058-.2415.5667-.1259.1612-.2878.2862-.4855.3753-.1976.0894-.419.1338-.6639.1338ZM381.9062,785.7853l.6088-3.8315h2.2518l-.0787.5038h-1.6954l-.1731,1.0867h1.5115l-.0787.4986h-1.5115l-.1942,1.2387h1.6901l-.0787.5038h-2.2518ZM386.9426,785.8377c-.3568,0-.6228-.1005-.7978-.3019-.175-.201-.2345-.473-.1784-.8161l.2677-1.7006c.056-.3429.2029-.6148.4408-.8161.2379-.201.5355-.3019.8923-.3019s.6228.1.7979.2993c.1748.1993.2361.4707.1837.8136l-.2677,1.7057c-.0561.3431-.2039.6151-.4435.8161-.2398.2013-.5381.3019-.895.3019ZM387.0213,785.3339c.1925,0,.3483-.0524.4672-.1575.119-.1051.1942-.2571.2257-.4568l.2678-1.7006c.0315-.1993.0051-.3517-.0787-.4565-.084-.1051-.2223-.1575-.4148-.1575s-.3473.0524-.4645.1575c-.1173.1048-.1916.2571-.2231.4565l-.2677,1.7006c-.0315.1996-.0053.3517.0787.4568s.2204.1575.4094.1575ZM388.9529,785.7853l.6088-3.8315h.7086l.6194,3.186c.007-.098.0165-.217.0289-.3571.0121-.1398.0271-.2851.0446-.4354.0175-.1506.0367-.2888.0577-.4146l.315-1.9788h.525l-.609,3.8315h-.7085l-.6141-3.186c-.0071.0945-.0167.209-.0289.3437s-.0272.2757-.0446.4226c-.0177.1469-.0367.2833-.0578.4095l-.315,2.0102h-.5301ZM392.249,785.7853l.6088-3.8315h.567l-.525,3.3118h1.6744l-.0787.5197h-2.2465ZM396.1174,785.7853l.2204-1.4119-.7506-2.4197h.5774l.4462,1.4486c.0279.0945.0498.1837.0656.2677.0157.084.0253.1469.0288.1888.0175-.0419.0464-.1048.0867-.1888.0402-.084.0883-.1731.1442-.2677l.8976-1.4486h.5984l-1.5275,2.4197-.2204,1.4119h-.5668ZM399.217,785.7853l.6088-3.8315h.7086l.6192,3.186c.0071-.098.0165-.217.029-.3571.012-.1398.0271-.2851.0444-.4354.0177-.1506.037-.2888.0578-.4146l.315-1.9788h.5248l-.6088,3.8315h-.7085l-.6141-3.186c-.0071.0945-.0167.209-.0289.3437s-.0272.2757-.0446.4226c-.0177.1469-.0367.2833-.0578.4095l-.315,2.0102h-.5301ZM403.5053,785.8377c-.3571,0-.6231-.1005-.7979-.3019-.1751-.201-.2344-.473-.1785-.8161l.2677-1.7006c.0561-.3429.203-.6148.4411-.8161.2378-.201.5354-.3019.8922-.3019.3571,0,.6228.1.7979.2993.1748.1993.2361.4707.1837.8136l-.2677,1.7057c-.0561.3431-.2039.6151-.4437.8161-.2395.2013-.5379.3019-.8947.3019ZM403.5839,785.3339c.1925,0,.3483-.0524.4673-.1575.1187-.1051.1942-.2571.2255-.4568l.2677-1.7006c.0316-.1993.0054-.3517-.0786-.4565-.084-.1051-.2224-.1575-.4146-.1575-.1925,0-.3474.0524-.4647.1575-.117.1048-.1914.2571-.223.4565l-.2677,1.7006c-.0316.1996-.0051.3517.0789.4568.0837.1051.2204.1575.4092.1575ZM406.3814,785.7853l.5248-3.3121h-1.0234l.084-.5194h2.6193l-.084.5194h-1.0289l-.5248,3.3121h-.567ZM409.5178,785.7853l.6088-3.8315h2.32l-.084.5194h-1.7636l-.1837,1.1445h1.6272l-.084.5248h-1.6166l-.2571,1.6428h-.567ZM413.7694,785.8377c-.3571,0-.6231-.1005-.7979-.3019-.1751-.201-.2344-.473-.1785-.8161l.2677-1.7006c.0561-.3429.203-.6148.4411-.8161.2378-.201.5354-.3019.8922-.3019.3571,0,.6228.1.7979.2993.1748.1993.2361.4707.1837.8136l-.2677,1.7057c-.0561.3431-.2039.6151-.4437.8161-.2395.2013-.5379.3019-.8947.3019ZM413.848,785.3339c.1925,0,.3483-.0524.4673-.1575.1187-.1051.1942-.2571.2255-.4568l.2677-1.7006c.0316-.1993.0054-.3517-.0786-.4565-.084-.1051-.2224-.1575-.4146-.1575-.1925,0-.3474.0524-.4647.1575-.117.1048-.1914.2571-.223.4565l-.2677,1.7006c-.0316.1996-.0051.3517.0789.4568.0837.1051.2204.1575.4092.1575ZM415.7952,785.7853l.6088-3.8315h1.202c.2381,0,.4391.0464.6037.139.1643.0928.2833.223.3568.391s.0911.3656.0527.5932c-.0387.2591-.1401.4838-.3044.6746-.1646.1905-.3659.3209-.6037.391l.5354,1.6428h-.6194l-.4776-1.5748h-.5408l-.2466,1.5748h-.567ZM416.6876,783.7068h.635c.1891,0,.3491-.0558.4804-.168.131-.1119.2107-.2623.2386-.4514.0316-.1925,0-.3454-.0945-.4593-.0943-.1136-.2361-.1706-.4252-.1706h-.635l-.1993,1.2493ZM420.905,785.8377c-.3602,0-.6308-.1005-.8107-.3019-.1803-.201-.2423-.473-.1865-.8161l.2677-1.7006c.0561-.3463.2056-.6194.4488-.8187s.545-.2993.9056-.2993c.3568,0,.6253.1008.8056.3019.1803.2013.2423.4733.1865.8161h-.567c.0313-.1993.0026-.3517-.0866-.4565-.0894-.1051-.2284-.1575-.4175-.1575-.1925,0-.3508.0524-.475.1575-.1242.1048-.2019.2554-.2335.4514l-.2677,1.7057c-.0316.1996-.0026.3517.0866.4568.0894.1051.2301.1575.4226.1575s.35-.0524.4724-.1575.1993-.2571.2309-.4568h.5667c-.0347.2275-.1145.4252-.2386.5932s-.2808.2976-.4699.3884c-.1888.0908-.4024.1364-.6404.1364ZM424.0335,785.8377c-.3571,0-.6231-.1005-.7979-.3019-.1751-.201-.2344-.473-.1785-.8161l.2677-1.7006c.0561-.3429.203-.6148.4411-.8161.2378-.201.5354-.3019.8922-.3019.3571,0,.6228.1.7979.2993.1748.1993.2361.4707.1837.8136l-.2677,1.7057c-.0561.3431-.2039.6151-.4437.8161-.2395.2013-.5379.3019-.8947.3019ZM424.1121,785.3339c.1925,0,.3483-.0524.4673-.1575.1187-.1051.1942-.2571.2255-.4568l.2677-1.7006c.0316-.1993.0054-.3517-.0786-.4565-.084-.1051-.2224-.1575-.4146-.1575-.1925,0-.3474.0524-.4647.1575-.117.1048-.1914.2571-.223.4565l-.2677,1.7006c-.0316.1996-.0051.3517.0789.4568.0837.1051.2204.1575.4092.1575ZM425.9653,785.7853l.6088-3.8315h.6874l.1837,1.2282c.0211.119.0367.2301.0473.3332.0105.1034.0194.1828.0262.2389.0177-.0561.0473-.1364.0894-.2415.0419-.1051.0908-.217.1469-.336l.5667-1.2228h.7088l-.6088,3.8315h-.5354l.2045-1.2911c.0245-.168.0578-.3525.1-.5539.0419-.201.0874-.4041.1364-.6088s.0963-.3998.1418-.5852c.0453-.1854.0874-.3483.1259-.4881l-.8554,1.8632h-.5513l-.2833-1.8632c-.0037.1364-.0105.2947-.0211.475s-.0236.3719-.0393.5747c-.0157.203-.035.4069-.0578.6114-.0228.2047-.0481.3964-.076.5749l-.2047,1.2911h-.5405ZM429.1145,785.7853l.6088-3.8315h.6874l.1837,1.2282c.0211.119.0367.2301.0473.3332.0105.1034.0194.1828.0262.2389.0177-.0561.0473-.1364.0894-.2415.0419-.1051.0908-.217.1469-.336l.5667-1.2228h.7088l-.6088,3.8315h-.5354l.2045-1.2911c.0245-.168.0578-.3525.1-.5539.0419-.201.0874-.4041.1364-.6088s.0963-.3998.1418-.5852c.0453-.1854.0874-.3483.1259-.4881l-.8554,1.8632h-.5513l-.2833-1.8632c-.0037.1364-.0105.2947-.0211.475s-.0236.3719-.0393.5747c-.0157.203-.035.4069-.0578.6114-.0228.2047-.0481.3964-.076.5749l-.2047,1.2911h-.5405ZM432.4107,785.7853l.6088-3.8315h2.2516l-.0786.5038h-1.6955l-.1731,1.0867h1.5115l-.0786.4986h-1.5118l-.1942,1.2387h1.6901l-.0786.5038h-2.2516ZM435.5073,785.7853l.6088-3.8315h1.202c.2381,0,.4391.0464.6037.139.1643.0928.2833.223.3568.391s.0911.3656.0527.5932c-.0387.2591-.1401.4838-.3044.6746-.1646.1905-.3659.3209-.6037.391l.5354,1.6428h-.6194l-.4776-1.5748h-.5408l-.2466,1.5748h-.567ZM436.3997,783.7068h.635c.1891,0,.3491-.0558.4804-.168.131-.1119.2107-.2623.2386-.4514.0316-.1925,0-.3454-.0945-.4593-.0943-.1136-.2361-.1706-.4252-.1706h-.635l-.1993,1.2493ZM439.8007,785.8377c-.3602,0-.6308-.1005-.8107-.3019-.1803-.201-.2423-.473-.1865-.8161l.2677-1.7006c.0561-.3463.2056-.6194.4488-.8187s.545-.2993.9056-.2993c.3568,0,.6253.1008.8056.3019.1803.2013.2423.4733.1865.8161h-.567c.0313-.1993.0026-.3517-.0866-.4565-.0894-.1051-.2284-.1575-.4175-.1575-.1925,0-.3508.0524-.475.1575-.1242.1048-.2019.2554-.2335.4514l-.2677,1.7057c-.0316.1996-.0026.3517.0866.4568.0894.1051.2301.1575.4226.1575s.35-.0524.4724-.1575.1993-.2571.2309-.4568h.5667c-.0347.2275-.1145.4252-.2386.5932s-.2808.2976-.4699.3884c-.1888.0908-.4024.1364-.6404.1364ZM441.8792,785.7853l.0789-.5038h.7768l.4459-2.824h-.7766l.0837-.5038h2.1258l-.084.5038h-.7766l-.4462,2.824h.7768l-.0789.5038h-2.1258ZM444.7399,785.7853l1.585-3.8315h.7452l.3728,3.8315h-.5616l-.0735-.9711h-1.0867l-.3884.9711h-.5929ZM445.8998,784.3418h.8714l-.0894-1.1023c-.0174-.1959-.0296-.3654-.0367-.5089-.0068-.1435-.0103-.2432-.0103-.2993-.0177.0561-.0518.1558-.1025.2993s-.1148.3112-.1916.5038l-.4408,1.1075ZM448.2354,785.7853l.6088-3.8315h.567l-.5248,3.3118h1.6741l-.0786.5197h-2.2465ZM453.1932,785.8377c-.3676,0-.6345-.1005-.8005-.3019-.1663-.201-.2213-.475-.1654-.8213l.4357-2.7608h.567l-.4357,2.7554c-.0316.1962-.008.35.0709.4619.0786.1122.2141.168.4066.168s.3474-.0558.4645-.168c.1173-.1119.1916-.2657.2233-.4619l.4357-2.7554h.5667l-.4357,2.7608c-.0558.35-.2002.6245-.4328.8241-.2329.1993-.5328.299-.9001.299ZM456.3581,785.8377c-.385,0-.6738-.0951-.866-.2859-.1925-.1908-.2643-.4505-.2153-.7794h.567c-.0282.1748.0105.3121.1153.4121.1051.0997.266.1495.483.1495.2028,0,.3699-.049.5012-.1469s.2107-.2327.2389-.4044c.0211-.1504.0009-.2788-.0604-.3856s-.1583-.1811-.2913-.2233l-.4568-.1364c-.266-.0803-.4619-.217-.5878-.4095-.1259-.1922-.1697-.4197-.1313-.6823.035-.2099.1119-.3935.2309-.551s.2731-.2799.4619-.3673c.1891-.0874.4024-.1313.6404-.1313.3497,0,.6157.0954.7979.2859.1817.1908.2483.4437.1993.7586h-.567c.0279-.168-.0026-.3001-.0917-.3964-.0894-.0963-.2301-.1444-.4226-.1444-.1891,0-.3429.0447-.4619.1338-.119.0894-.1891.2144-.2099.3753-.0245.1506-.0071.2791.0524.3859s.1575.1811.2939.223l.4673.1469c.2623.0806.4556.2173.5798.4095.1242.1925.1654.4217.1236.6877-.035.217-.1156.4058-.2415.5667-.1262.1612-.2879.2862-.4855.3753-.1979.0894-.4192.1338-.6641.1338ZM458.4209,785.7853l.6088-3.8315h2.2516l-.0786.5038h-1.6955l-.1731,1.0867h1.5115l-.0786.4986h-1.5118l-.1942,1.2387h1.6901l-.0786.5038h-2.2516Z" style="fill: #ccc;"/>
  <g>
    <g id="layer1">
      <path id="path5762" d="M393.5668,50.0164c-17.4142.6086-38.0896,2.6599-71.0516,5.8368-73.0055,7.0361-93.3484,8.4906-132.8108,3.559-25.1611-3.1443-59.2125-9.3176-63.7606-9.2534.1414,4.579-7.2447,45.3233-7.291,45.5552-2.2301,11.1565-4.1914,27.2798-6.8621,56.5169-8.7973,96.3062,2.1464,197.2878,30.4507,281.7303,28.0737,83.7543,71.7137,158.704,127.3783,219.0918,24.938,27.0539,61.5841,55.3891,89.0647,76.1625,2.1991,1.5112,33.244,20.147,41.3157,20.7845,8.0717-.6376,39.1166-19.2734,41.3157-20.7845,27.4806-20.7734,64.1267-49.1086,89.0647-76.1625,55.6646-60.3878,99.3046-135.3375,127.3783-219.0918,28.3043-84.4425,39.2478-185.424,30.4507-281.7302-2.6707-29.237-4.632-45.3604-6.8621-56.5169-.0461-.2319-7.4323-40.9761-7.291-45.5552-4.5482-.0642-38.5995,6.1091-63.7606,9.2534-39.4625,4.9316-59.8054,3.4771-132.8108-3.559-34.0253-3.2793-55.0017-5.3011-72.7672-5.8368-1.598-.0482-3.1641.0274-4.7177,0-1.5536.0274-3.1197-.0482-4.7177,0-.5551.0182-1.1537-.0182-1.7155,0h0Z" style="fill: #ecb215;"/>
    </g>
    <path id="path5755" d="M387.9564,64.7235c-83.408,6.9645-169.875,20.7354-252.0055,2.4585-10.6726,71.44-19.1222,144.3858-10.4759,217.0703,14.6875,164.3996,92.898,329.0142,229.7833,426.5012,8.4799,6.0392,38.371,24.5781,44.2781,24.5834,6.2653.0059,35.7449-17.93,43.1419-23.093,168.6276-117.6985,245.4208-331.6621,234.386-532.5497-2.3509-37.6876-5.0508-77.5198-14.841-112.8014-74.6731,17.1909-152.3335,7.3695-227.9659-.624-15.3878-1.2865-30.8608-1.8672-46.3011-1.5452Z" style="fill: #881f19;"/>
    <g id="g13797">
      <g>
        <path id="rect8439" d="M486.0616,269.6557v82.6172h23.6217v-31.5135h22.7654v-18.8342h-23.1699v-13.0326h42.0305v-19.2369h-65.2479.0001Z" style="fill: #f8fbfd;"/>
        <path d="M510.7852,353.3752h-25.8255v-84.8215h67.4513v21.4417h-42.0297v10.8273h23.169v21.0387h-22.765v31.5138ZM487.1646,351.1703h21.4158v-31.5138h22.765v-16.629h-23.169v-15.237h42.0297v-17.032h-63.0416v80.4118Z" style="fill: #e9aa0f;"/>
      </g>
      <g>
        <path id="path11112" d="M597.1784,270.4217c-18.7142,1.8389-33.4522,19.4204-33.4522,40.7116,0,22.5141,16.3912,40.8613,36.631,40.8613,13.1849,0,24.8372-7.8056,31.333-19.4577l-18.4668-4.6399c-.594.6082-1.2837,1.1158-1.9678,1.6465-28.2852,14.6417-34.4542-36.2165-12.3614-39.2043.2036-.0274.4222-.1125.6055-.1499.0746-.0136.2228.0036.3028,0,5.6777-.2473,9.9718.781,13.2695,4.33l18.4668-5.0889c-6.5257-11.449-18.105-19.0088-31.1817-19.0088-.9488,0-1.794-.0788-2.7246,0-.1477.0136-.3064-.0136-.4543,0h.0001Z" style="fill: #f8fbfd;"/>
        <path d="M600.3568,353.0687c-20.791,0-37.7055-18.812-37.7055-41.9352,0-21.5322,15.1196-39.8845,34.4221-41.782l.0119-.001c.1154-.0119.2408-.009.3642-.003.7522-.0517,1.3671-.0368,2.0039-.0189.2945.009.593.0179.9034.0179,13.1337,0,25.139,7.3091,32.1158,19.5512l.6845,1.2009-20.4288,5.6306-.4438-.4786c-2.8357-3.0506-6.5589-4.2426-12.4352-3.9879l-.0478.002-.1652-.004c-.2487.0736-.4278.1204-.597.1433-7.4285,1.0049-10.3438,7.5638-11.4203,11.3845-2.6367,9.3488.0637,20.5562,6.147,25.5141,4.4575,3.6356,10.3338,3.7312,16.9961.2866l.0975-.0985c.5811-.4467,1.1283-.8686,1.5959-1.3462l.4318-.4408,20.4248,5.1311-.6826,1.2248c-6.8793,12.3427-19.2468,20.0089-32.273,20.0089ZM597.1789,270.4212l.1055,1.0696c-18.216,1.791-32.4839,19.204-32.4839,39.6428,0,21.9382,15.9514,39.786,35.5564,39.786,11.8163,0,23.0715-6.7419,29.688-17.6887l-16.5066-4.1471c-.4438.401-.9114.7602-1.3651,1.1104l-.2587.199c-9.6174,4.9968-15.8997,2.5173-19.5075-.4239-6.6962-5.4584-9.709-17.6538-6.8574-27.7648,2.0755-7.3638,6.8872-12.077,13.2013-12.9307.0677-.009.1393-.0338.2089-.0547.1134-.0318.2209-.0617.3224-.0826l.1313-.0269.3184.003c6.1808-.2676,10.4572,1.0308,13.669,4.2008l16.4967-4.546c-6.6743-10.8422-17.621-17.2718-29.5408-17.2718-.3323,0-.6507-.009-.9651-.0179-.5572-.0159-1.0965-.0338-1.6696.0149-.1094.0109-.2368.008-.3662.003l-.1771-1.0746Z" style="fill: #e9aa0f;"/>
      </g>
    </g>
    <g id="g3831">
      <path id="path5774" d="M392.0569,81.8616c-2.2817.0158-4.5618.0392-6.8449.0906-1.1784.0265-2.3917.0993-3.5703.1359-76.613,6.2433-155.7603,16.609-231.4533,5.1404-7.8353,46.563-11.2032,94.4082-9.8694,142.1875h519.4851c1.0514-48.4132-3.1038-96.7001-12.3936-143.3424-49.3171,12.4147-102.4864,5.0698-152.9757,1.9928-34.081-2.8473-68.1533-6.4419-102.378-6.2047Z" style="fill: #fffbff;"/>
      <rect id="rect3050" x="140.2049" y="229.416" width="519.5883" height="9.0256" style="fill: #518ac3; isolation: isolate; opacity: .96;"/>
    </g>
    <g id="g3042">
      <g>
        <path id="rect6660" d="M172.071,112.4226v25.1866h22.8738v71.7537h22.1404v-71.7537h23.6071v-25.1866s-68.6213,0-68.6213,0Z" style="fill: #881f19;"/>
        <path d="M219.5006,211.7784h-26.9718v-71.7536h-22.8745v-30.0184h73.453v30.0184h-23.6068v71.7536ZM197.3604,206.9468h17.3086v-71.7536h23.6068v-20.3552h-63.7898v20.3552h22.8745v71.7536Z" style="fill: #e9aa0f;"/>
      </g>
      <g>
        <rect id="rect7540" x="423.5395" y="111.9853" width="22.3019" height="97.5231" style="fill: #881f19;"/>
        <path d="M448.1118,211.7774h-26.8424v-102.0615h26.8424v102.0615ZM425.8105,207.2384h17.7603v-92.9833h-17.7603v92.9833Z" style="fill: #e9aa0f;"/>
      </g>
      <g>
        <path id="rect7543" d="M460.2804,111.6686v97.5583h22.016v-43.7816l32.881,43.3593.5718.7039h21.7301v-97.8398h-22.8738v48.7088l-36.0262-48.568v-.1408h-18.299Z" style="fill: #881f19;"/>
        <path d="M539.7489,211.7774h-25.0773l-1.2537-1.5392-28.8503-38.0428v39.3015h-26.5579v-102.0983h22.6974l.1015,1.6039,31.5268,42.5043v-44.1082h27.4135v102.3789ZM516.8387,207.2384h18.3692v-93.3007h-18.3314v46.4394l-4.0933,1.3522-35.4509-47.7916h-14.7813v93.0201h17.4757v-41.5123l4.0794-1.3711,32.7327,43.164Z" style="fill: #e9aa0f;"/>
      </g>
      <g>
        <path id="rect7547" d="M336.7621,111.3153v98.1931h22.1404v-36.4446h14.4576l13.7243,36.4446h26.0135l-16.2921-42.0232c10.7199-3.2402,13.1525-14.5124,13.1524-27.733,0-14.9686-10.1382-27.2454-23.0167-28.4369h-50.1793ZM358.8606,132.6196h23.6488c5.0366.1553,9.0065,3.3041,9.0065,9.4703s-3.9699,9.7543-9.0065,9.9098h-23.649v-19.3801h.0002Z" style="fill: #881f19;"/>
        <path d="M416.4139,211.7774h-30.8999l-13.7247-36.4439h-10.6164v36.4439h-26.6812v-102.7321l52.658.009c14.063,1.3024,25.0793,14.7863,25.0793,30.6979,0,11.1149-1.4785,24.2187-12.475,29.0612l16.6598,42.964ZM388.6542,207.2384h21.1293l-15.9813-41.2168,2.3461-.7094c7.9817-2.4128,11.5397-10.296,11.5397-25.5599,0-13.5525-9.1518-25.0236-20.8547-26.1678h-47.8005v93.6539h17.5991v-36.4439h18.2976l13.7247,36.4439ZM381.2237,154.2689h-24.6336v-23.9192h25.9191c6.8773.2109,11.277,4.8187,11.277,11.7397,0,6.9668-4.6087,11.9755-11.2074,12.1785l-1.3552.001ZM361.1312,149.7299h21.378c4.1291-.1284,6.736-3.0566,6.736-7.6404,0-6.3101-4.76-7.1379-6.8056-7.2016l-21.3084.001v14.841Z" style="fill: #e9aa0f;"/>
      </g>
      <g>
        <path id="path9329" d="M284.3836,110.9524c-21.2817,1.6168-38.3136,23.0112-38.3135,49.1311,0,27.1713,18.4051,49.2718,40.8868,49.2718,22.4817,0,40.6009-22.1004,40.6009-49.2718,0-27.1714-18.1192-49.131-40.6009-49.1311-.3513,0-.6516-.0091-1.0007,0-.5155.0137-1.0618-.041-1.5726,0ZM285.3844,136.4729c.0828-.0137.0595.0137.1427,0,23.0102-.9989,25.2746,44.7958,3.4311,49.8934-24.3499,2.3223-27.7057-46.1017-3.574-49.8934h.0002Z" style="fill: #881f19;"/>
        <path d="M286.9578,211.7794c-23.8814,0-43.3112-23.1909-43.3112-51.6959,0-27.1757,17.812-49.8164,40.5512-51.5466.3821-.0308.7781-.0249,1.18-.0139.1751.005.3522.009.5174.007.2607-.005.4975-.006.7403-.003l.3224.002c23.7242,0,43.0247,23.1272,43.0247,51.5546,0,28.505-19.3005,51.6959-43.0247,51.6959ZM284.8386,113.3586c-.0876,0-.1731.002-.2587.009l-.0139.002c-20.2278,1.5362-36.0718,22.0556-36.0718,46.714,0,25.8325,17.2548,46.8484,38.4637,46.8484,21.0517,0,38.1772-21.0158,38.1772-46.8484,0-25.7549-17.1255-46.7071-38.1772-46.7071l-.3662-.003-.5731.002c-.2547.008-.5154,0-.7781-.007-.1333-.004-.2686-.0099-.402-.0099ZM287.2325,188.8731c-12.1168.001-18.9801-11.2044-20.4467-22.8247-1.7452-13.8311,4.0436-29.7328,18.208-31.9675l.4696-.0776.197.0398c10.5865-.3194,18.6478,8.2314,20.5203,21.8855,1.8626,13.5784-3.3471,29.688-16.6718,32.7973l-.3204.0527c-.6666.0627-1.3193.0945-1.9561.0945ZM285.3858,138.9304c-10.883,1.987-15.235,15.0669-13.7923,26.5111,1.1522,9.1368,6.3022,19.4348,16.9703,18.5264,10.4154-2.5551,14.3794-15.9803,12.8153-27.3807-1.1482-8.3846-5.8405-18.0518-15.6052-17.6986l-.3264.0537-.0617-.0119Z" style="fill: #e9aa0f;"/>
      </g>
      <g>
        <path id="path2385" d="M584.7451,110.9524c-21.2817,1.6168-38.3136,23.0112-38.3135,49.1311,0,27.1713,18.4051,49.2718,40.8868,49.2718,22.4818,0,40.6009-22.1004,40.6009-49.2718,0-27.1714-18.1192-49.131-40.6009-49.1311-.3513,0-.6516-.0091-1.0007,0-.5155.0137-1.0618-.041-1.5726,0ZM585.7458,136.4729c.0828-.0137.0591.0137.1427,0,23.0102-.9989,25.2746,44.7958,3.4311,49.8934-24.3498,2.3223-27.7057-46.1017-3.574-49.8934h.0003Z" style="fill: #881f19;"/>
        <path d="M587.3187,211.7794c-23.8814,0-43.3112-23.1909-43.3112-51.6959,0-27.1757,17.812-49.8164,40.5512-51.5466.3821-.0308.784-.0249,1.18-.0139.1771.005.3542.009.5174.007.2607-.005.4955-.006.7403-.003l.3224.002c23.7242,0,43.0247,23.1272,43.0247,51.5546,0,28.505-19.3005,51.6959-43.0247,51.6959ZM585.1994,113.3586c-.0856,0-.1711.002-.2547.009l-.0159.002c-20.2278,1.5362-36.0738,22.0556-36.0738,46.714,0,25.8325,17.2548,46.8484,38.4637,46.8484,21.0517,0,38.1772-21.0158,38.1772-46.8484,0-25.7549-17.1255-46.7071-38.1772-46.7071l-.3662-.003-.5731.002c-.2587.005-.5174,0-.7781-.007-.1333-.004-.2686-.0099-.402-.0099ZM587.5953,188.8731c-12.1168.001-18.9821-11.2044-20.4487-22.8247-1.7452-13.8361,4.0476-29.7428,18.222-31.9695l.4577-.0776.201.0418c10.6462-.3373,18.6438,8.2344,20.5164,21.8855,1.8626,13.5784-3.3471,29.688-16.6718,32.7973l-.3204.0527c-.6666.0627-1.3193.0945-1.9561.0945ZM585.7446,138.9314c-10.881,1.9909-15.2311,15.0689-13.7884,26.5111,1.1522,9.1359,6.3042,19.4338,16.9703,18.5254,10.4154-2.5551,14.3794-15.9803,12.8153-27.3807-1.1323-8.2483-5.7709-17.7066-15.1336-17.7066-.1552,0-.3144.002-.4736.008l-.3303.0547-.0597-.0119Z" style="fill: #e9aa0f;"/>
      </g>
    </g>
    <g id="g12989">
      <path id="path9346" d="M200.9736,267.9213c-3.3632.293-4.6823.5951-6.3551,1.4028-1.5582.7525-3.412,1.6064-4.8663,3.3119-2.7163,3.1856-3.3394,4.3797-3.3862,9.0598-.0265,2.6507,1.3178,4.94,2.625,6.2746,2.1626,2.2079,4.4297,3.2533,9.007,3.7048,3.2766.3232,6.6257-.2926,7.8158-.9342.5944-.3204,1.1404-.5863,1.4413-.7293.5428-.2579.7194-.4425.7558-.4225.1353.0745-.1845,1.1644-.2801,1.4385-.2986.856-1.3367,2.3127-3.0715,4.1654-2.0775,2.2188-4.8352,3.9193-7.7144,4.8316-1.5421.4886-4.0998,1.3232-4.647,1.4861-.0569.0169-.0598-.0332-.0518.0332l.5848,4.854c.0009.0096,1.4708-.1046,3.1577-.4129,8.537-1.5605,15.7885-7.7983,17.7958-15.3073,1.6649-8.3618,2.3366-18.0106-6.9898-21.63-1.6509-.6409-3.5686-1.0701-5.8209-1.1266h0ZM201.0316,274.1201c1.9993-.0134,4.0242.4988,5.6759,1.664,2.6334,1.8579,2.8757,6.3431.4589,8.4905-4.9795,4.4244-14.8202,1.8984-14.8202-3.8049,0-3.7496,4.287-6.3202,8.6854-6.3496Z" style="fill: #fff;"/>
      <path id="path9342" d="M235.0533,268.3835c-4.9075-.0019-9.7832,2.3484-12.1972,7.0503-2.1221,4.1334-2.9182,15.1147-1.425,19.6717,1.5394,4.6983,4.6051,8.4569,8.2458,10.1157,6.2507,2.8479,13.6836.0592,17.5736-6.5929,2.6501-4.5319,2.7634-18.4162.1884-23.1896-2.5372-4.7035-7.4781-7.0536-12.3856-7.0552h0ZM235.1016,274.5629c2.3408,0,4.6823.886,5.9948,2.6566,3.8332,5.1715,3.4537,16.9812-.6811,21.1461-3.0899,3.1124-7.2624,3.0292-10.4775-.2092-4.3042-4.3354-4.7492-15.644-.826-20.9368,1.3125-1.7706,3.6491-2.6566,5.9899-2.6566Z" style="fill: #fff;"/>
      <rect id="rect8447" x="173.8454" y="268.2258" width="5.874" height="37.3361" style="fill: #fff;"/>
      <path id="path12940" d="M269.0381,306.8346c3.3632-.293,4.6823-.5951,6.3551-1.4028,1.5582-.7525,3.4121-1.6064,4.8663-3.3119,2.7163-3.1856,3.3394-4.3797,3.3862-9.0598.0265-2.6507-1.3178-4.94-2.625-6.2746-2.1626-2.2079-4.4297-3.2533-9.007-3.7048-3.2766-.3232-6.6257.2926-7.8158.9342-.5944.3204-1.1404.5863-1.4413.7293-.5428.2579-.7194.4425-.7559.4225-.1353-.0745.1845-1.1644.2801-1.4385.2986-.856,1.3367-2.3127,3.0715-4.1654,2.0775-2.2188,4.8352-3.9193,7.7144-4.8316,1.5421-.4886,4.0998-1.3232,4.647-1.4861.0569-.0169.0598.0332.0518-.0332l-.5848-4.854c-.0009-.0096-1.4708.1046-3.1577.4129-8.537,1.5605-15.7885,7.7983-17.7958,15.3073-1.6649,8.3618-2.3365,18.0106,6.9898,21.63,1.6509.6409,3.5685,1.0701,5.8208,1.1266h.0002ZM268.9801,300.6358c-1.9993.0133-4.0242-.4988-5.6759-1.664-2.6334-1.8579-2.8757-6.3431-.4589-8.4905,4.9796-4.4244,14.8202-1.8984,14.8202,3.8049,0,3.7496-4.287,6.3202-8.6854,6.3497Z" style="fill: #fff;"/>
    </g>
    <path id="path2987" d="M427.9004,659.5458l-2.5771-2.3021,8.7681-13.5967c4.8225-7.4782,9.6241-15.4745,10.6703-17.7694,1.0462-2.295,4.1896-6.4468,6.9853-9.2264,5.7794-5.746,11.6025-16.8115,12.3611-23.4894.6298-5.5441-1.1956-8.6526-15.2037-25.89-17.3015-21.2903-23.4118-31.358-25.7161-42.3712-2.1193-10.1296,1.9446-24.307,10.04-35.026l4.8902-6.475-5.4301,5.2592c-10.8345,10.4935-14.9714,23.3927-11.8625,36.9878,2.7575,12.0583,2.7486,12.0957-2.9665,12.4036-8.2989.447-14.0185-4.5352-15.2579-13.2908-.542-3.829-.6489-3.3872-.7613,3.1472-.2339,13.5957-4.352,15.2216-38.5532,15.2216h-20.1545l-3.0115,2.5143c-1.9598,1.6363-3.0167,3.4169-3.0264,5.0988-.0247,4.2494-1.0909,4.9726-7.1001,4.8157-6.7214-.1755-9.0919,1.5193-10.2495,7.3277-1.4066,7.0577-11.1358,12.293-22.8451,12.293-4.6754,0-10.4872-2.2379-11.3052-4.3532-.7603-1.9658,8.4154-14.0486,18.2184-23.9907,4.0474-4.1048,10.2218-10.393,13.721-13.9737,9.4651-9.6859,10.718-10.0801,32.1152-10.1056l17.9228-.0214-.765-4.6132c-1.3231-7.9789-.6527-31.4953,1.0904-38.2464,2.7718-10.7353,5.7969-12.2428,20.2649-10.0983,5.0128.743,9.21,1.2558,9.3272,1.1395.7825-.7765-6.47-12.5234-13.1524-21.303-8.2765-10.874-12.4725-18.2542-13.599-23.9185-.5801-2.9169-.4484-3.2388,1.0861-2.6545,4.242,1.6152,19.1552,3.5459,27.389,3.5459,11.084,0,17.742-1.8271,21.6223-5.9337l2.8968-3.0658-4.3376,2.8001c-4.2023,2.7128-4.7058,2.797-16.15,2.6985-14.3567-.1235-18.0964-1.1785-49.2366-13.8894-24.2183-9.8855-43.3677-16.5656-47.5498-16.5873-3.371-.0174-6.5012,1.4929-8.6476,4.1727-1.035,1.2923-2.7939,2.0368-4.8939,2.0715l-3.2782.0542-.0731,6.3128c-.1013,8.7624-.7806,10.1788-6.0817,12.681-10.3487,4.8849-21.0328,6.3354-24.1177,3.2744-2.1667-2.1499-2.2866-1.8481,5.6008-14.0961,3.9264-6.0971,8.1476-13.1567,9.3804-15.6879,2.9694-6.0967,9.6676-11.8512,15.544-13.3541,2.5526-.6528,9.2861-1.417,14.9632-1.6982,12.4757-.6179,19.9165.7131,42.3255,7.5716,8.6342,2.6425,15.909,4.5958,16.1662,4.3406.7526-.7468-8.4267-4.3605-17.4276-6.861-4.5758-1.2712-10.3017-2.8758-12.7242-3.5659l-4.4045-1.2546,7.6431-.2847c6.7844-.2527,27.3536,1.798,33.9491,3.3846,2.3424.5635,2.3793.5068.8166-1.2548-2.811-3.1689-3.0225-6.4387-.798-12.338,1.1472-3.0425,2.4794-5.5318,2.9603-5.5318,2.5043,0,7.8778-6.3604,9.2516-10.9508,2.3066-7.7071,1.7539-8.3586-1.5409-1.8163-4.09,8.1213-7.5441,10.5386-17.5543,12.2849-9.3431,1.63-12.7048,3.4139-12.7048,6.7421,0,4.6317-9.4935,5.6046-14.5138,1.4874-3.0097-2.4683-2.405-5.168,1.3002-5.8048,3.3635-.5781,4.2397-2.9384,1.9385-5.2218-3.119-3.0948-8.014,2.0306-6.9553,7.2828.4471,2.2181.2149,2.7919-1.125,2.7801-6.8944-.0607-7.6981-11.905-2.4668-36.349,1.9112-8.9303,2.23-11.9992,1.3856-13.3408-1.7987-2.8579-1.2596-8.5192,1.5646-16.4307l2.6613-7.455-3.5219-3.8681c-1.9371-2.1275-4.1161-5.5641-4.8423-7.637-1.7931-5.1182-1.5149-16.0622.5964-23.462,1.9225-6.7382,3.4241-8.6392,3.4241-4.3348,0,5.913,3.0068,13.017,7.5486,17.835,2.4556,2.6049,4.8016,4.7361,5.2134,4.7361s1.0551-2.513,1.4296-5.5844,1.4323-7.9881,2.3508-10.926l1.67-5.3416,1.2637,6.2889c1.5806,7.8659,3.7898,12.1576,8.5811,16.67,6.1753,5.816,9.0072,6.7112,27.6365,8.7374,31.3737,3.4122,44.6003,8.0446,56.4009,19.7537,12.2019,12.1073,15.0167,20.2907,18.0472,52.468,2.4689,26.2143,6.5314,58.8557,8.4595,67.9696,5.6648,26.7778,39.7136,61.3282,51.7976,52.5606,4.4393-3.2209,1.21-12.4771-9.9605-28.5499-6.8553-9.8639-16.9812-27.3225-16.9812-29.2783,0-3.378,24.4704,29.057,34.8124,46.1431,9.7517,16.1108,11.9192,23.9806,8.89,32.2768-2.7554,7.5462-13.1816,13.7104-21.0724,12.4584l-3.6085-.5726-1.1421,9.4764c-2.0556,17.056-4.9726,21.8205-23.5074,38.3963-6.1864,5.5325-5.4486,8.7109,4.062,17.4989l4.7856,4.422-.5977,5.008c-.6624,5.5495-3.9722,10.718-8.3004,12.9617-6.2331,3.2311-11.9021,12.5605-13.9207,22.9088-1.5718,8.058-2.4614,9.4915-7.2877,11.7425-2.4388,1.1375-4.4854,2.3478-4.5481,2.6896-.0627.3418-.2327,3.8686-.3778,7.8375-.3062,8.373-.2155,8.269-11.1534,12.8013-10.2883,4.2631-19.2399,4.9326-22.8489,1.7087h0ZM484.5724,576.1152c-4.6291-5.1088-7.0586-10.434-6.217-13.6273.6991-2.6527-.4717-2.3354-3.6931,1.001l-2.78,2.8792,2.3522,3.5154c1.8166,2.7149,12.5727,10.9878,14.433,11.1009.1845.0106-1.6583-2.1799-4.0951-4.8692ZM499.1042,542.8586c4.195-4.863,7.1726-13.8162,7.9697-23.9637l.5758-7.3307-3.1641,3.0435c-2.9983,2.8841-3.1728,3.4436-3.3309,10.6832-.2012,9.2167-2.3455,14.5023-9.1193,22.4792l-4.6821,5.5137,4.1416-3.2028c2.2779-1.7615,5.702-5.0116,7.6092-7.2224ZM490.885,478.5451c-5.9252-6.3782-11.964-16.0693-19.1583-30.7448-6.9092-14.0942-9.0918-22.3849-11.4628-43.5421-.6591-5.8818-1.6099-10.6942-2.1128-10.6942-1.4792,0-.0618,33.626,1.6747,39.7298,4.4336,15.5844,18.4034,37.2947,29.4852,45.8225,6.2908,4.8409,6.5234,4.7565,1.5741-.5711h0ZM342.3357,323.3343c5.17-.7893,6.5195-2.188,6.5195-6.7574v-3.9095l-2.2023,3.3c-1.2112,1.815-4.063,4.1578-6.3373,5.2063s-4.3565,2.479-4.6272,3.1789c-.3584.9267-.0327,1.0392,1.1987.414.93-.4722,3.3819-1.1167,5.4486-1.4323ZM376.7153,307.131c13.2078-1.3589,17.3462-3.8838,14.2716-8.707-.7446-1.1681-1.2732-.9546-2.9856,1.2054-2.0243,2.5536-7.4229,4.6039-15.73,5.9741-1.9252.3176-4.3477,1.2598-5.3833,2.0938-1.0356.8341-1.3765,1.2668-.7576.9617.619-.3051,5.3821-.9927,10.5849-1.5281ZM359.6218,295.9587c0-1.0339-1.0655-1.4602-3.6704-1.4683-4.4966-.0141-12.3279-2.0192-16.7471-4.2878-1.8088-.9286-2.9902-1.2089-2.6253-.623.7601,1.2204,7.1029,4.5557,12.2226,6.4272,4.9752,1.8187,10.8202,1.7927,10.8202-.0481ZM311.2358,447.7081c-1.464-5.4751-4.0019-13.8736-5.6397-18.6633-4.4597-13.0421-2.9133-23.6848,4.4294-30.484l2.4699-2.2871,5.2109,1.6902c2.866.9296,6.4386,2.3062,7.939,3.0591l2.7281,1.3689-2.0551,2.5923c-1.5132,1.9088-1.9855,3.714-1.7914,6.8464.1976,3.1885-.1548,4.4865-1.4071,5.1819-2.6573,1.4756-2.0864,5.419,1.0209,7.0517,1.4804.7779,3.9203,2.9727,5.4221,4.8772,2.5431,3.2253,2.6553,3.7396,1.6356,7.4969-3.1939,11.7693-9.7407,21.2244-14.6959,21.2244-2.4782,0-2.7345-.4844-5.2668-9.9548h0ZM531.1265,442.1785c-1.4368-3.0423-4.5324-6.7275-8.7043-10.3618-10.5685-9.2067-12.9763-17.6336-6.7496-23.6219,4.014-3.8603,5.8838-7.9233,5.0902-11.0608-1.3136-5.1933-10.1968-11.3022-20.0932-13.8179-7.422-1.8867-11.6442-1.2975-15.847,2.2116l-3.0778,2.5697,2.0138-3.9168c4.9972-9.7194,16.7292-11.2299,35.8502-4.6156,21.834,7.5527,27.2236,20.1371,17.9446,41.8997-2.8582,6.7036-3.2182,8.5526-3.2182,16.5314,0,4.941-.2202,8.9656-.4894,8.9438s-1.4928-2.1645-2.7192-4.7614h0ZM530.562,425.7917c.6347-1.9676,2.2834-6.1997,3.6638-9.4047,5.7295-13.3027,2.3352-23.438-9.8842-29.5146-5.7154-2.8422-6.0104-2.5686-1.1937,1.1071,8.2346,6.2841,10.0113,15.3691,5.1755,26.4651-3.469,7.9599-3.9448,11.751-1.7736,14.1316,2.052,2.2499,2.4852,1.9493,4.0122-2.7845h0Z" style="fill: #fff;"/>
  </g>
</svg>