<?xml version="1.0" encoding="utf-8"?>
<!-- Created by @FCLOGO 2025-2-27 GMT+8 14:45:27 . https://fclogo.top/ -->
<!-- FOR PERSONAL USE ONLY NOT FOR COMMERCIAL USE -->
<svg version="1.1" xmlns="http://www.w3.org/2000/svg" xmlns:xlink="http://www.w3.org/1999/xlink" x="0px" y="0px"
	 viewBox="0 0 800 800" style="enable-background:new 0 0 800 800;" xml:space="preserve">
<g>
	<g>
		<path style="fill:#851219;" d="M297.1889,599.4667c0,0,30.2296,67.8321-5.0997,115.0197
			C261.1224,654.9489,297.1889,599.4667,297.1889,599.4667z"/>
		<path style="fill:#D4BE76;" d="M297.1889,599.4667c0,0,30.2296,67.8321-5.0997,115.0197
			C261.1224,654.9489,297.1889,599.4667,297.1889,599.4667 M299.2867,572.8285l-12.7957,19.684
			c-0.4168,0.6412-10.2729,15.9707-15.8677,39.1429c-7.4663,30.9239-3.1808,52.6748,8.3787,89.4668l9.4621,28.8778l15.7906-26.9117
			c37.9713-66.849,5.9475-125.7664,4.5887-128.8154L299.2867,572.8285L299.2867,572.8285z"/>
	</g>
	<g>
		<path style="fill:#851219;" d="M217.6214,682.4136c61.9129-6.6357,77.8471-74.8365,77.8471-74.8365
			S256.4214,597.9921,217.6214,682.4136z"/>
		<path style="fill:#D4BD74;" d="M291.7062,607.2487c2.4238,0,3.7624,0.3283,3.7624,0.3283s-15.9341,68.2008-77.8472,74.8365
			C249.2435,613.6099,281.0276,607.2487,291.7062,607.2487 M291.7062,594.4894c-8.318,0-21.4845,2.5035-36.9734,14.431
			c-17.8464,13.7429-34.2331,36.6768-48.705,68.1647l-14.765,26.4647l28.1405-7.3731
			c36.9882-12.4113,53.3396-20.8908,70.8427-47.5869c12.8152-19.5461,17.4638-37.3237,17.6475-38.1097l2.8713-12.2896
			l-12.2574-3.0057C297.6546,594.9756,295.2852,594.4894,291.7062,594.4894L291.7062,594.4894z"/>
	</g>
	<g>
		<path style="fill:#851219;" d="M188.9758,605.7454c64.2206,42.9363,109.4587-3.2313,109.4587-3.2313
			S272.8578,577.3475,188.9758,605.7454z"/>
		<path style="fill:#D5BE76;" d="M258.5224,592.2283c29.4562,0,39.9121,10.2859,39.9121,10.2859s-21.0757,21.5109-54.8832,21.5109
			c-15.7189,0-34.193-4.6523-54.5755-18.2797C219.2336,595.5018,241.9015,592.2283,258.5224,592.2283 M258.5224,579.4688
			c-21.0483,0-45.8238,4.7745-73.6382,14.1909l-28.3671,9.0327l25.367,13.6602c27.5655,14.3266,44.2813,19.242,64.9222,19.242
			c40.5826,0,69.6537-33.2466,69.6537-33.2466l-9.0775-8.9299C305.0147,591.0887,291.5306,579.4688,258.5224,579.4688
			L258.5224,579.4688z"/>
	</g>
	<g>
		<path style="fill:#851219;" d="M503.1822,599.4667c0,0-30.2295,67.8322,5.0997,115.0197
			C539.2487,654.949,503.1822,599.4667,503.1822,599.4667z"/>
		<path style="fill:#D4BE76;" d="M503.1822,599.4667c0,0,36.0665,55.4822,5.0997,115.0197
			C472.9527,667.2989,503.1822,599.4667,503.1822,599.4667 M501.0844,572.8286l-9.5567,21.4443
			c-1.3589,3.0491-33.3825,61.9664,4.5887,128.8154L511.907,750l9.4621-28.8778c11.5596-36.7919,15.845-58.5428,8.3787-89.4667
			c-5.5948-23.1722-15.4509-38.5016-15.8677-39.1429L501.0844,572.8286L501.0844,572.8286z"/>
	</g>
	<g>
		<path style="fill:#851219;" d="M582.7498,682.4136c-61.913-6.6357-77.8472-74.8364-77.8472-74.8364
			S543.9496,597.9921,582.7498,682.4136z"/>
		<path style="fill:#D4BD74;" d="M508.6649,607.2488c10.6786,0,42.4626,6.3611,74.0848,75.1648
			c-61.9131-6.6358-77.8472-74.8365-77.8472-74.8365S506.2411,607.2488,508.6649,607.2488 M508.6649,594.4894
			c-3.579,0-5.9485,0.4863-6.8012,0.6954l-12.2574,3.0057l2.8713,12.2896c0.1837,0.7861,4.8323,18.5637,17.6475,38.1097
			c17.5031,26.6961,33.8546,35.1756,70.8427,47.587l28.1405,7.373l-14.765-26.4646c-14.4719-31.4879-30.8586-54.4218-48.705-68.1647
			C530.1495,596.993,516.983,594.4894,508.6649,594.4894L508.6649,594.4894z"/>
	</g>
	<g>
		<path style="fill:#851219;" d="M611.3953,605.7455c-64.2205,42.9364-109.4587-3.2313-109.4587-3.2313
			S527.5132,577.3475,611.3953,605.7455z"/>
		<path style="fill:#D5BE76;" d="M541.8487,592.2283c16.6209,0,39.2889,3.2736,69.5466,13.5172
			c-20.3824,13.6273-38.8566,18.2797-54.5754,18.2797c-33.8076,0-54.8833-21.511-54.8833-21.511
			S512.3925,592.2283,541.8487,592.2283 M541.8487,579.4688c-33.0082,0-46.4922,11.6201-48.8601,13.9494l-9.0775,8.93
			c0,0,29.0712,33.2465,69.6537,33.2465c20.6409,0,37.3568-4.9154,64.9222-19.2421l25.3669-13.6602l-28.3671-9.0327
			C587.6725,584.2434,562.897,579.4688,541.8487,579.4688L541.8487,579.4688z"/>
	</g>
	<path style="fill:#D4BD74;" d="M713.0499,414.3834L584.2057,283.8801l-4.0144-4.0662h-5.714H225.5475h-5.7125l-4.0142,4.0645
		l-128.8673,130.48l-9.5468,9.6664l9.6068,9.6069l303.3324,303.3322l9.6667,9.6667l9.6667-9.6667l303.3091-303.309l9.605-9.6051
		L713.0499,414.3834z M400.0126,727.2971L96.6802,423.9649l128.8673-130.4801h348.9298l128.8442,130.5033L400.0126,727.2971z"/>
	<polygon style="fill:#FFFFFF;" points="428.2143,547.9475 311.4098,424.5125 377.801,350.0117 474.837,350.0117 547.0574,424.5215 
			"/>
	<path style="fill:#EA5F00;" d="M574.4774,293.4849H225.5476l-128.8674,130.48l303.3323,303.3322l303.309-303.3089
		L574.4774,293.4849z M428.2143,547.9475l-116.8045-123.435l66.3912-74.5008h97.036l72.2204,74.5098L428.2143,547.9475z"/>
	<g>
		<polygon style="fill:#851219;" points="132.2783,491.8201 668.2994,491.8201 600.2215,559.8979 200.0182,559.6522 		"/>
		<path style="fill:#D4BE75;" d="M668.2994,491.8201l-68.0779,68.0779l-400.2032-0.2457l-67.74-67.8321H668.2994 M701.3036,478.1492
			h-33.0042H132.2783H99.3055l23.2995,23.3311l67.74,67.8322l4.0017,4.0072l5.6631,0.0035l400.2033,0.2457l5.6676,0.0034
			l4.0074-4.0076l68.0779-68.0779L701.3036,478.1492L701.3036,478.1492z"/>
	</g>
	<g>
		<path style="fill:#C83928;" d="M583.7551,145.4708c0,0,6.3901-5.9758,13.763-6.0213c9.9537-0.0615,16.8351,11.8583,23.348,11.7354
			c6.5129-0.123,10.3223-5.4684,10.3223-5.4684s0.6144,13.6402-12.227,13.6402
			C605.014,159.3568,610.4209,146.5154,583.7551,145.4708z"/>
		<path style="fill:#D4BD75;" d="M597.5949,139.4492c9.8608-0.0002,16.7046,11.7366,23.1709,11.7366
			c0.0338,0,0.0665-0.0003,0.1003-0.0009c6.5129-0.123,10.3223-5.4684,10.3223-5.4684s0.6144,13.6402-12.227,13.6402
			c-13.9474,0-8.5405-12.8414-35.2063-13.886c0,0,6.39-5.9758,13.7631-6.0213
			C597.5436,139.4493,597.5694,139.4492,597.5949,139.4492 M597.5951,130.3353h-0.0002l-0.1378,0.0004
			c-10.6264,0.0655-19.0066,7.6175-19.9271,8.4784c-2.6856,2.5114-3.599,6.3906-2.3162,9.8363
			c1.2829,3.4459,4.5106,5.7834,8.1846,5.9273c11.8993,0.4661,14.8806,3.3066,18.0369,6.3139
			c3.357,3.1984,7.9544,7.5789,17.5261,7.5789c7.769,0,12.5759-3.3225,15.2404-6.1096c6.235-6.5222,6.168-15.351,6.0913-17.0546
			c-0.1787-3.9671-2.7795-7.548-6.6146-8.578c-0.8347-0.2243-1.6749-0.334-2.4996-0.334c-2.9277-0.0003-5.668,1.3821-7.35,3.9365
			c-0.2567,0.2912-1.2962,1.3903-2.5831,1.6747c-0.9774-0.5465-2.7445-1.9452-3.9673-2.9129
			C612.6087,135.3969,606.2134,130.3353,597.5951,130.3353L597.5951,130.3353z M623.7662,140.4274L623.7662,140.4274
			C623.7661,140.4275,623.7663,140.4272,623.7662,140.4274L623.7662,140.4274z"/>
	</g>
	<g>
		<path style="fill:#C83928;" d="M260.5694,598.7293c7.9261-5.1611-15.852-42.0264-15.852-42.0264l-23.7071,21.3502
			C221.0103,578.0532,252.6434,603.8906,260.5694,598.7293z"/>
		<path style="fill:#D4BE76;" d="M244.7174,556.7029c0,0,23.7781,36.8652,15.852,42.0265
			c-0.7198,0.4688-1.6348,0.6817-2.7042,0.6817c-10.7063,0-36.8549-21.358-36.8549-21.358L244.7174,556.7029 M247.3159,537.1917
			l-11.1373,10.03l-23.7071,21.3502l-11.0528,9.9539l11.52,9.4094c0.2849,0.2327,7.0726,5.7636,15.3239,11.3579
			c16.8347,11.4138,24.6632,12.8775,29.6026,12.8775c3.6131,0,6.8654-0.9247,9.6665-2.7487
			c3.9113-2.5469,9.9217-8.8853,6.2337-22.7226c-1.2275-4.6055-3.4348-10.0505-6.748-16.6461
			c-5.2017-10.3549-11.3197-19.8665-11.5776-20.2664L247.3159,537.1917L247.3159,537.1917z"/>
	</g>
	<g>
		<path style="fill:#C83928;" d="M218.0515,502.1423c7.9874,0,12.657,23.8395,12.657,23.8395s22.7791-12.2098,25.0684-8.1104
			c5.2841,9.4622-16.2207,37.5412-16.2207,37.5412s7.4959,18.8627,0.9216,22.6721c-6.5743,3.8093-21.474-0.553-21.474-0.553
			s-31.9192,23.0408-39.2615,16.5894c-4.4232-3.8864,9.8614-27.3724,9.8614-27.3724s-24.7612-6.4822-25.4985-11.8277
			c-0.7707-5.5867,30.4753-14.8076,39.9374-15.6063C204.0427,539.3148,210.064,502.1423,218.0515,502.1423z"/>
		<path style="fill:#D4BE75;" d="M218.0515,502.1423c7.9874,0,12.657,23.8395,12.657,23.8395s16.7001-8.952,22.9395-8.952
			c1.0479,0,1.7996,0.2521,2.1288,0.8416c5.2841,9.4622-16.2207,37.5412-16.2207,37.5412s7.4959,18.8627,0.9216,22.6721
			c-1.9978,1.1577-4.7654,1.5607-7.6492,1.5607c-6.6057,0-13.8248-2.1137-13.8248-2.1137s-24.5597,17.7291-35.5491,17.7291
			c-1.5393,0-2.8103-0.347-3.7124-1.1397c-4.4232-3.8864,9.8614-27.3724,9.8614-27.3724s-24.7612-6.4822-25.4985-11.8276
			c-0.7706-5.5869,30.4752-14.8076,39.9374-15.6063C204.0427,539.3149,210.064,502.1423,218.0515,502.1423 M218.0515,489.3828
			c-4.9011,0-11.8362,2.2565-17.0423,13.0062c-1.8667,3.8546-3.5931,8.7677-5.2776,15.0203
			c-1.0347,3.8403-1.9055,7.6548-2.5863,10.9003c-4.9689,1.1527-10.2027,2.6742-14.2536,4.0001
			c-16.5468,5.4157-21.5803,9.7495-24.1168,12.92c-2.6878,3.3596-3.863,7.4205-3.3093,11.4349
			c1.2581,9.1214,10.0246,13.9022,19.6822,17.5635c-1.9392,4.1579-3.2749,7.6823-4.0767,10.7548
			c-2.6299,10.0784,0.8592,15.7447,4.2493,18.7234c2.2398,1.9681,6.1633,4.3141,12.1344,4.3141
			c4.4437,0,12.2201-1.1024,28.3784-10.6342c3.7579-2.2168,7.1806-4.4239,9.7709-6.1537c3.1813,0.6082,7.2143,1.1725,11.2245,1.1725
			c5.6424,0,10.237-1.0729,14.0462-3.2802c5.4914-3.1819,11.3564-10.3344,8.1128-26.339c-0.373-1.8405-0.8227-3.6112-1.276-5.2047
			c2.0408-2.9593,4.5901-6.8427,6.9982-11.0313c6.0688-10.5563,12.2589-24.0628,6.2072-34.8994
			c-2.5806-4.6211-7.5409-7.3799-13.269-7.3799c-4.1259,0-9.573,1.653-14.898,3.7941c-1.4885-3.8125-3.0955-6.9333-4.8907-9.5035
			C228.5611,490.9753,222.3385,489.3828,218.0515,489.3828L218.0515,489.3828z"/>
	</g>
	<polygon style="fill:#D4BE75;" points="210.1561,536.98 217.8979,542.5099 225.0866,536.5499 226.6841,546.3806 236.3305,546.9337 
		230.5243,554.491 236.3305,561.9562 227.0221,563.3387 226.224,573.3577 218.1744,567.0252 211.0778,573.3577 209.7876,563.3387 
		200.0182,563.1544 205.9167,554.9846 200.0182,547.9474 209.6032,546.565 	"/>
	<g>
		<path style="fill:#C83928;" d="M539.8018,598.7294c-7.9261-5.1611,15.852-42.0264,15.852-42.0264l23.7071,21.3502
			C579.3608,578.0532,547.7277,603.8906,539.8018,598.7294z"/>
		<path style="fill:#D4BE76;" d="M555.6537,556.7031l23.7071,21.3502c0,0-26.1486,21.3579-36.8549,21.3579
			c-1.0695,0-1.9844-0.213-2.7042-0.6816C531.8756,593.5683,555.6537,556.7031,555.6537,556.7031 M553.0552,537.1917
			l-8.1238,12.5953c-0.2579,0.3998-6.3759,9.9114-11.5775,20.2663c-3.3133,6.5957-5.5206,12.0406-6.7481,16.6461
			c-3.688,13.8373,2.3224,20.1758,6.2337,22.7225c2.8011,1.8239,6.0534,2.7487,9.6666,2.7487
			c4.9394,0,12.7679-1.4636,29.6026-12.8774c8.2513-5.5944,15.0389-11.1252,15.3239-11.358l11.52-9.4094l-11.0528-9.9539
			l-23.7071-21.3502L553.0552,537.1917L553.0552,537.1917z"/>
	</g>
	<g>
		<path style="fill:#C83928;" d="M582.3196,502.1424c-7.9874,0-12.657,23.8396-12.657,23.8396s-22.7791-12.2098-25.0684-8.1104
			c-5.2841,9.4621,16.2207,37.5411,16.2207,37.5411s-7.4959,18.8628-0.9216,22.6721c6.5743,3.8094,21.4741-0.5529,21.4741-0.5529
			s31.9192,23.0408,39.2615,16.5893c4.4231-3.8864-9.8615-27.3724-9.8615-27.3724s24.7612-6.4821,25.4985-11.8276
			c0.7706-5.5867-30.4753-14.8076-39.9374-15.6063C596.3284,539.3149,590.3071,502.1424,582.3196,502.1424z"/>
		<path style="fill:#D4BE75;" d="M582.3197,502.1424c7.9874,0,14.0087,37.1725,14.0087,37.1725
			c9.4622,0.7988,40.708,10.0196,39.9374,15.6063c-0.7372,5.3454-25.4984,11.8276-25.4984,11.8276s14.2845,23.4861,9.8614,27.3724
			c-0.9021,0.7927-2.173,1.1398-3.7124,1.1398c-10.9894,0-35.5491-17.7291-35.5491-17.7291s-7.2192,2.1137-13.8248,2.1137
			c-2.8839,0-5.6514-0.4031-7.6492-1.5608c-6.5743-3.8094,0.9216-22.6721,0.9216-22.6721s-21.5048-28.079-16.2207-37.5411
			c0.3292-0.5895,1.0809-0.8416,2.1288-0.8416c6.2395,0,22.9395,8.952,22.9395,8.952S574.3322,502.1424,582.3197,502.1424
			 M582.3197,489.3829c-4.2871,0-10.5096,1.5923-15.808,9.1782c-1.7952,2.5702-3.4022,5.6911-4.8906,9.5036
			c-5.3251-2.1411-10.7721-3.7942-14.8981-3.7942c-5.728,0-10.6884,2.7589-13.269,7.38
			c-6.0515,10.8366,0.1385,24.3432,6.2072,34.8994c2.4081,4.1887,4.9575,8.0721,6.9982,11.0314
			c-0.4533,1.5934-0.903,3.3641-1.276,5.2046c-3.2436,16.0046,2.6214,23.1572,8.1128,26.3391
			c3.8093,2.2071,8.4038,3.2801,14.0462,3.2801c4.0102,0,8.0432-0.5644,11.2245-1.1725c2.5904,1.7298,6.0131,3.9369,9.771,6.1537
			c16.1583,9.5319,23.9348,10.6342,28.3784,10.6342c5.9711,0,9.8946-2.346,12.1343-4.3141
			c3.3902-2.9787,6.8792-8.6449,4.2493-18.7233c-0.8018-3.0726-2.1375-6.5969-4.0767-10.7549
			c9.6577-3.6613,18.4241-8.4421,19.6822-17.5636c0.5537-4.0142-0.6216-8.0752-3.3093-11.4349
			c-2.5365-3.1705-7.57-7.5043-24.1167-12.92c-4.051-1.3259-9.2848-2.8475-14.2537-4.0001
			c-0.6808-3.2455-1.5516-7.0601-2.5864-10.9004c-1.6845-6.2525-3.4109-11.1657-5.2776-15.0202
			C594.1558,491.6394,587.2207,489.3829,582.3197,489.3829L582.3197,489.3829z"/>
	</g>
	<polygon style="fill:#D4BE75;" points="590.215,536.9801 582.4733,542.5099 575.2845,536.55 573.687,546.3807 564.0406,546.9338 
		569.8469,554.4911 564.0406,561.9563 573.3491,563.3388 574.1472,573.3578 582.1967,567.0253 589.2933,573.3578 590.5836,563.3388 
		600.353,563.1544 594.4545,554.9846 600.353,547.9475 590.7679,546.5651 	"/>
	<path style="fill:#D4BE75;" d="M400.084,579.7438c7.2092,0,14.2136,39.3844,14.2136,39.3844s39.4459,5.4991,39.4459,14.1624
		c0,10.0458-39.7224,14.6078-39.7224,14.6078s-4.3931,39.1848-13.9371,39.1848c-7.9056,0-14.1727-34.4076-14.1112-39.0772
		c-11.9812-1.106-39.6917-8.7249-39.5995-14.4389c0.0921-5.7142,31.2433-14.1932,39.4458-14.1932
		C386.28,609.1745,394.5747,579.7438,400.084,579.7438z"/>
	<path style="fill:#FFFFFF;" d="M314.0691,505.8289h-25.1134v41.6578h24.8768c9.4715,0,23.8776-3.5944,23.8776-20.0455v-1.8434
		C337.71,509.2389,323.4098,505.8289,314.0691,505.8289z M327.1113,528.2859c0,9.9229-8.7834,11.8276-14.313,11.8276h-13.7047
		v-27.7103h13.3666c5.7162,0,14.651,2.2119,14.651,12.2269V528.2859z"/>
	<polygon style="fill:#FFFFFF;" points="349.0461,505.8289 360.6587,505.8289 386.4644,534.3074 387.2017,534.3074 
		387.2017,505.8289 398.3534,505.8289 398.3534,547.4867 386.5565,547.4867 360.4743,518.5474 359.737,518.5474 359.737,547.4867 
		349.0461,547.4867 	"/>
	<polygon style="fill:#FFFFFF;" points="455.6482,513.0176 455.6482,505.8289 420.1039,505.8289 409.7816,505.8289 
		409.7816,513.0176 409.7816,521.1894 409.7816,528.3781 409.7816,547.4867 420.1039,547.4867 420.1039,528.3781 451.9002,528.3781 
		451.9002,521.1894 420.1039,521.1894 420.1039,513.0176 	"/>
	<path style="fill:#FFFFFF;" d="M478.4202,540.3901c-0.9883,0-1.7895-0.8012-1.7895-1.7894V514.761
		c0-0.9883,0.8012-1.7894,1.7895-1.7894h33.2018v-7.1426h-37.4183c-4.7168,0-8.5405,3.8236-8.5405,8.5405v24.7457
		c0,4.6235,3.748,8.3716,8.3714,8.3716h37.5873v-7.0966H478.4202z"/>
	<g>
		<path style="fill:#254A8E;" d="M351.811,389.519v73.9149c0,0,3.8709,0,9.032,0c5.1611,0,15.7292,3.5636,16.9581,16.7276
			c0,0-48.908,0-53.639,0c-4.731,0-13.3329-2.9646-14.6539-17.1884c-30.3217,14.2852-33.7351-16.8702-33.2095-17.9718
			c5.6526,6.8815,24.9455,14.1317,32.4414-5.7756c-20.3373,9.5389-29.3693-7.2501-29.3693-7.2501L351.811,389.519z"/>
		<path style="fill:#D4BE75;" d="M633.3669,247.4279c-0.7325-0.1769-1.4677-0.2624-2.1918-0.2625
			c-3.5135,0-6.771,2.0122-8.2463,5.3536c-0.4536,0.9051-6.0175,11.4545-18.7395,11.5765l-0.2695,0.0014
			c-0.6158,0-1.2101-0.0211-1.7852-0.0614c3.9632-1.5991,8.0543-4.0237,11.6731-7.6872c4.5554-4.6114,9.95-12.9958,9.7816-26.7518
			c-0.1094-8.9328-1.5853-19.952-1.6481-20.4168c-0.6154-4.5549-4.5112-7.9498-9.0347-7.95c-0.2374,0-0.4763,0.0094-0.7167,0.0284
			c-4.8128,0.3806-8.493,4.3911-8.3946,9.2143c-0.0047,0.3814-0.101,4.9281-1.9425,9.1127
			c-1.5767,3.5825-3.7583,5.513-7.0622,6.1313c3.4254-4.546,5.7758-10.7004,5.8198-19.3098
			c0.0857-16.7233-11.1367-23.9325-12.4165-24.6993c-0.2653-0.1591-0.536-0.3031-0.8108-0.4324
			c0.343-0.3439,0.6602-0.7172,0.9481-1.1181c1.7098-2.3806,2.1703-5.4382,1.2375-8.2168l-5.44-16.2069l-0.066-6.3978
			c1.5745-0.394,3.0431-1.2077,4.2322-2.3968l14.1008-14.101c1.7092-1.7092,2.6695-4.0273,2.6695-6.4445v-12.6263
			c0-3.2761-1.7585-6.3001-4.6055-7.9207l-31.6241-18.0002c-0.5924-2.3941-1.5576-5.3807-3.1136-8.3961
			c-4.9851-9.66-13.528-14.9801-24.0548-14.9801H522.586h-22.3124l-20.4295-13.0383C478.3528,50.4796,476.6484,50,474.9406,50
			c-1.5031,0-3.0086,0.3713-4.3746,1.1188c-2.9181,1.5968-4.7344,4.6564-4.739,7.9827l-0.0069,5.0609h-16.5005
			c-5.0334,0-9.1139,4.0805-9.1139,9.1139v1.7296c-0.9093-1.3044-2.1631-2.3767-3.6757-3.0706
			c-1.2182-0.5588-2.5133-0.8301-3.7974-0.8302c-2.3846,0-4.7319,0.9357-6.482,2.7049
			c-9.7585,9.8654-12.8211,21.5946-8.4025,32.1804c1.5656,3.7509,4.0295,7.0663,7.0623,9.7242
			c-3.6116-0.3403-8.0329-2.9764-12.8528-7.6752c-1.7386-1.6948-4.0347-2.5881-6.3643-2.5882
			c-1.275-0.0001-2.5595,0.2673-3.7692,0.8172c-3.4199,1.5545-5.5357,5.0482-5.3287,8.7991
			c1.1112,20.1405,11.4081,30.1191,19.8505,34.9437c1.4111,0.8064,2.8374,1.5092,4.2597,2.1211
			c-2.7227,1.0928-5.6019,1.7945-8.4907,1.7945c-6.4123,0-12.3268-3.3653-18.0815-10.2882
			c-1.7669-2.1256-4.3551-3.2883-7.0108-3.2885c-1.073,0-2.1566,0.1898-3.2021,0.5824c-3.6334,1.3646-6.0039,4.8803-5.9067,8.7601
			c0.6092,24.3297,10.7151,36.647,19.0856,42.6956c1.8492,1.3362,3.6955,2.4303,5.4734,3.3253
			c-5.3348,6.3177-13.9406,13.6026-25.2577,13.6026c-6.6431,0-13.8347-2.4577-21.3746-7.3048
			c-1.4897-0.9577-3.2036-1.4475-4.929-1.4475c-1.1017,0-2.2081,0.1997-3.264,0.6048c-2.7095,1.0394-4.7619,3.3072-5.5269,6.1064
			c-3.961,14.4939-2.6632,27.1017,3.8574,37.4734c0.5481,0.8717,1.123,1.7088,1.72,2.5114H180.326
			c-3.8484,0-10.9162-4.9376-10.9162-13.0053c0-3.5683,1.3758-6.9093,3.8741-9.4076c2.2528-2.2527,5.2527-3.5976,8.0251-3.5976
			h89.0912c7.4008,0,18.8673-3.0013,28.8551-11.4247c7.7558-6.5412,17.0012-18.4427,17.0012-37.9954
			c0-19.6757-9.3849-31.4194-17.258-37.8064c-9.9846-8.1003-21.8058-11.0246-29.5393-11.0604
			c-3.9245-0.0181-13.9998-0.0273-29.9462-0.0273c-19.6871,0-43.4019,0.014-55.228,0.022
			c-0.0937-0.3661-0.1918-0.7368-0.2943-1.1094c-2.2803-8.2878-5.516-13.1659-10.1829-15.3516
			c-1.2279-0.5752-2.5483-0.8604-3.8651-0.8604c-1.6197,0-3.2342,0.4313-4.6668,1.2852c-6.4876,3.867-9.239,12.266-10.4039,18.8565
			c-6.6996,1.3024-15.3524,4.1519-19.4285,10.3588c-2.343,3.5676-1.8962,8.2834,1.0751,11.3475
			c4.9118,5.0653,12.4354,7.474,18.1664,8.6146c0.1513,0.7812,0.3234,1.5938,0.5188,2.423c2.0311,8.617,5.4355,14.1353,10.408,16.87
			c1.3737,0.7555,2.8855,1.1282,4.391,1.1282c1.944,0,3.8779-0.621,5.4932-1.8407c4.2613-3.2178,7.2796-8.6297,8.9716-16.0856
			c0.0244-0.1076,0.0485-0.2153,0.072-0.3221h83.0343c6.3501,0,13.0824,7.0744,13.0974,13.7631
			c0.0119,5.3169-2.5198,8.6501-4.0301,10.1638c-2.3926,2.398-5.0133,3.2524-6.668,3.2524l-0.0654-0.0004
			c-2.7984-0.0374-10.101-0.0555-22.3259-0.0555c-11.6893,0-26.083,0.0164-39.1451,0.0311
			c-10.8611,0.0124-20.8009,0.0236-27.4961,0.0236c-11.9545-0.0002-23.9507,5.1864-32.9128,14.2296
			c-9.1989,9.2822-14.1992,21.678-14.08,34.9037c0.1208,13.3784,5.3359,25.8582,14.685,35.1404
			c8.655,8.593,19.8932,13.5215,30.833,13.5215h34.6725l-25.782,96.4557c-2.447,9.1548-5.0698,13.2389-14.1438,13.2389
			c-4.7977,0-8.6393-1.4284-11.4187-4.2458c-2.9329-2.9731-4.5114-7.3164-4.4445-12.2298c0.0437-3.2091-1.6038-6.2046-4.3373-7.8864
			c-1.4607-0.8986-3.1169-1.3514-4.7761-1.3515c-1.4459-0.0001-2.894,0.3435-4.2187,1.0353
			c-7.7726,4.0591-12.657,18.4397-10.4525,30.7745c0.5789,3.2391,1.7897,7.267,4.2609,11.3526
			c-2.9048,1.5237-4.7913,4.5133-4.8753,7.8399c-0.0323,1.2766-0.0952,10.7409,4.6967,19.271
			c-2.9367,1.6154-4.7545,4.7858-4.6983,8.2046c0.012,0.737,0.206,7.3977,3.2493,14.2402
			c4.6167,10.3797,13.3261,16.096,24.5239,16.096c2.4549,0,5.0425-0.2836,7.7459-0.8472c1.2327,2.9939,2.9124,5.5747,5.0311,7.722
			c4.0472,4.1018,9.608,6.3608,15.6577,6.3608h53.639c4.9749,0,9.0308-3.9895,9.1126-8.9638
			c0.1467-8.913-2.9911-14.8958-5.6492-18.3453c-3.7167-4.8229-8.8841-7.7498-13.8232-7.8294
			c-1.1747-0.0189-3.1483-0.0285-5.8662-0.0285c-0.2309,0-0.4632,0.0001-0.6964,0.0003v-23.4644h33.0508l8.717,9.4141
			c-0.2095,0.3247-0.3997,0.6647-0.5685,1.0186c-0.6014,1.2607-1.7209,3.6073-0.1029,10.6298
			c0.6738,2.924,2.0362,7.2961,4.7006,11.5195c5.1269,8.1263,13.1425,12.6016,22.5701,12.6016c2.5349,0,5.1854-0.3233,7.9358-0.966
			c4.3651,9.8784,12.9134,14.4135,20.9858,14.4135h53.6389c2.5646,0,5.0104-1.0804,6.7374-2.9761
			c1.727-1.8957,2.5755-4.4315,2.3372-6.9847c-1.7068-18.2854-16.4215-24.9561-25.9506-24.9943l-0.0205-76.2588
			c4.3243,0.0039,9.4449,0.0073,14.1886,0.0073c6.5064,0,10.9897-0.0064,13.3253-0.019
			c10.5356-0.0569,19.6922-4.9091,26.8147-14.1225l1.5007,5.6808c-0.2139,0.1414-0.4232,0.2921-0.6269,0.4518
			c-1.1894,0.933-11.593,9.5237-10.6777,23.6755c0.3592,5.5524,2.4196,10.9525,6.158,16.1712
			c-0.0497,0.0185-0.0994,0.0377-0.1489,0.0571c-3.4496,1.3576-5.7199,4.6834-5.7625,8.3904
			c-0.0143,1.2529,0.0559,10.6,5.0252,19.0462c-0.1719,0.0853-0.3422,0.1765-0.5104,0.2731
			c-3.256,1.8732-4.9756,5.5948-4.4124,9.3088c1.5312,10.0981,9.5649,29.1954,29.0111,29.1954c2.3428,0,4.767-0.2912,7.2584-0.8701
			c3.8065,7.8092,10.8494,13.9682,20.3591,13.9682h53.4547c4.7156,0,8.6524-3.5971,9.0768-8.2935
			c0.5938-6.5681-1.9651-13.5082-7.0205-19.0411c-4.318-4.726-9.6529-7.4365-14.6364-7.4365h-3.8044v-69.7135l19.3748-11.0803
			v13.0436c0,9.152,8.4955,19.3494,20.6864,19.3494c4.0446,0,8.0486-1.1261,11.9013-3.3471
			c5.7704-3.3265,17.7356-10.3372,27.2569-15.9268v7.1746c0,5.0334,4.0804,9.1139,9.1139,9.1139h42.3337
			c5.0334,0,9.114-4.0805,9.114-9.1139v-78.7687c0-3.3439-1.3024-9.5758-10.0242-13.7421c-1.6993-0.8118-3.6098-1.4918-5.4656-1.972
			c14.7465-17.3985,16.44-41.3624,16.5162-42.5768C640.5613,252.5296,637.6669,248.4664,633.3669,247.4279z M351.811,389.519
			v73.9149c0,0,3.8709,0,9.032,0c5.1612,0,15.7292,3.5636,16.958,16.7275c0,0-48.9079,0-53.6389,0
			c-4.7311,0-13.333-2.9645-14.654-17.1883c-5.6353,2.6549-10.3438,3.7408-14.2676,3.7408
			c-17.1893,0-19.3698-20.8157-18.942-21.7126c2.903,3.534,9.4042,7.1655,16.0566,7.1655c6.3015,0,12.7385-3.2572,16.3849-12.9411
			c-4.4984,2.11-8.4457,2.932-11.8625,2.932c-12.0305,0-17.5069-10.1822-17.5069-10.1822L351.811,389.519z M607.8404,301.5953
			c-21.3819,13.8859-35.5751,22.3035-35.5751,22.3035l3.5022,6.0827c0,0,33.4554-19.8149,35.2064-20.6445
			c1.751-0.8295,4.9768-1.4745,7.5574-1.4746c2.5805,0,11.6125,2.4885,11.6125,7.3731s0,78.7687,0,78.7687h-42.3337v-23.1022
			c0,0-30.4775,17.9373-40.9227,23.9586c-2.6056,1.502-5.0898,2.129-7.3494,2.129c-6.7986,0-11.5725-5.6701-11.5725-10.2355
			c0-5.1612,0-28.7549,0-28.7549l-37.6026,21.5047v84.1143c0,0,3.3863,0.0001,7.2137,0.0001c1.914,0,3.9378,0,5.7045-0.0001
			c5.2994-0.0001,13.3176,8.3868,12.5803,16.5432c0,0-44.6684,0-53.4547,0c-8.7862,0-13.7323-9.6311-14.3775-16.7276
			c-5.1509,2.5755-9.5271,3.6295-13.24,3.6295c-16.7481,0-20.0002-21.4478-20.0002-21.4478s8.4603,6.6627,17.3688,6.6627
			c6.0079,0,12.2191-3.0292,16.1787-13.1755c-5.2456,1.8436-9.6741,2.6234-13.4076,2.6234c-20.4062,0-20.1399-23.268-20.1399-23.268
			s7.6589,8.0372,15.0083,8.0372c3.1212,0,6.1862-1.4493,8.5856-5.5795c-41.1662-24.4539-16.651-43.6854-16.651-43.6854
			s-1.2902,15.1762,12.3499,22.365l-16.4663-62.3332c0,0-6.513,31.5506-29.2466,31.6735
			c-2.6213,0.0142-7.6875,0.0189-13.2761,0.0189c-11.1781,0-24.4494-0.0189-24.4494-0.0189l-88.9682,52.5945h-43.9158v41.7192
			c0,0,5.2092-0.0273,9.8103-0.0273c2.301,0,4.4492,0.0068,5.7193,0.0273c3.8093,0.0614,10.691,5.7141,10.5066,16.9119
			c0,0-47.0034,0-53.639,0c-6.6357,0-13.1485-4.1934-14.0088-16.6048c-5.7481,2.386-10.5012,3.3694-14.426,3.3694
			c-18.3099,0-18.6606-21.3719-18.6606-21.3719s6.7602,7.4663,15.2008,7.4663c5.5323,0,11.7861-3.2067,17.3327-13.8255
			c-5.2253,1.9198-9.6144,2.73-13.2968,2.73c-19.8295,0-19.2367-23.4668-19.2367-23.4668s8.1597,8.0838,18.6442,8.0838
			c4.48,0,9.3835-1.4751,14.258-5.6875c-44.5455-5.7141-32.9041-41.289-26.7274-44.5148
			c-0.1843,13.5471,8.6649,25.7134,24.976,25.7134c0.0009,0-0.0008,0,0.0002,0c16.3129,0,20.5014-10.8436,22.9487-19.9993
			c2.4472-9.1555,28.8471-107.9232,28.8471-107.9232s-29.7687,0-46.5425,0c-16.7736,0-36.1893-15.7906-36.4043-39.6301
			c-0.2151-23.8396,19.4464-39.9375,37.8791-39.9373c14.748,0,45.2317-0.0547,66.6413-0.0547
			c10.7008,0,19.1326,0.0137,22.2039,0.0547c0.0619,0.0008,0.1253,0.0012,0.1874,0.0012c9.1752,0,19.8426-8.9409,19.812-22.5506
			c-0.0265-11.7972-10.906-22.8565-22.2112-22.8565c-11.3054,0-90.9344,0-90.9344,0s-0.6145,13.7016-6.6358,18.2484
			c-6.1442-3.3793-7.2502-19.4157-7.2502-19.4157s-13.7937-0.768-19.6922-6.8507c4.0551-6.175,20.0915-7.281,20.0915-7.281
			s0.5529-15.3912,6.7893-19.1085c4.854,2.2734,6.8815,17.3267,6.8815,17.3267s35.2548-0.0273,62.6891-0.0273
			c13.7196,0,25.4797,0.0068,29.9041,0.0273c13.2715,0.0614,37.7255,10.7522,37.7255,39.753s-24.454,40.3061-36.7424,40.3061
			c-12.2885,0-80.4892,0-89.0911,0c-10.5681,0-21.0132,9.3392-21.0132,22.1191s10.8138,22.1192,20.0301,22.1192
			c9.2164,0,198.7039,0,198.7039,0s-38.8314-7.1274-28.0177-46.6961c9.8232,6.3148,18.6047,8.7523,26.303,8.7523
			c26.0079,0,39.6859-27.7993,39.6859-27.7993s-28.8778-1.2903-29.8762-41.1663c8.4113,10.1189,17.1188,13.5763,25.0902,13.5763
			c17.198,0,30.9726-16.0903,30.9726-16.0903s-0.8461,0.0775-2.2839,0.0775c-7.8805,0-33.5452-2.3248-35.2081-32.4626
			c7.8927,7.6943,14.5745,10.301,20.0021,10.301c11.3889,0,17.2626-11.4684,17.2626-11.4684
			c-0.1761,0.0063-0.3534,0.0095-0.5298,0.0095c-12.8419,0-26.3073-16.3994-9.7004-33.1882
			c-0.7503,9.3377,1.782,12.6429,7.0353,12.657c0.0066,0.0001,0.0139,0.0001,0.0204,0.0001c5.6726,0,9.5338-6.3621,9.5338-14.0089
			c0-2.7955,0-5.5912,0-5.5912h25.602l0.0193-14.1623l22.6721,14.4695c0,0,11.9207,0.0001,24.9729,0.0001
			c6.5273,0,13.3356-0.0001,19.0812-0.0001c17.2345,0,18.9857,20.0915,18.9857,20.0915l35.2985,20.0916v12.6263l-14.101,14.101
			l-6.6357-1.9354l-0.4608,7.3731l-2.304-8.2025l-22.3956-6.7279c-11.7662,13.3022-0.0924,25.3449-0.0924,25.3449h21.6585
			l3.3178-8.0182l0.0922,8.9398l5.8984,17.5725c0,0-21.5186,0.0273-37.2476,0.0273c-7.8658,0-14.2817-0.0067-15.8384-0.0273
			c-4.6696-0.0615-7.7417-16.1593-7.7417-16.1593l-13.7629,16.1593V146.884c0,0-9.2165,6.0213-9.2165,19.3542
			s16.7737,24.0239,27.864,24.0239c11.0904,0,45.4979,0,45.4979,0s-2.2426,1.7204-2.2119,6.39
			c0.0306,4.6525,4.3922,8.8479,9.0427,8.8479c0.0171,0,0.0338,0,0.0507-0.0001c4.6697-0.0309,8.3562-5.0383,8.3562-9.2164
			c0-4.1781-2.212-6.7585-2.212-6.7585s8.0491,4.8232,7.9875,16.835c-0.0614,12.012-5.3148,17.2652-14.3775,21.5047
			c0,0,1.3206,7.1887,15.0533,7.1887c21.0132,0,20.7368-24.6536,20.7368-24.6536s1.463,10.8294,1.5668,19.3083
			c0.2751,22.4659-17.0381,28.2368-28.14,28.2368c-3.7757,0-6.8305-0.6666-8.2339-1.571
			c0.519,2.2592,6.8642,16.8369,25.8176,16.8369c0.1188,0,0.2371-0.0005,0.3568-0.0017
			c19.2314-0.1844,26.9117-16.8351,26.9117-16.8351S629.2223,287.7094,607.8404,301.5953z"/>
		<g>
			<polygon style="fill:#D4BD74;" points="490.9652,386.2935 528.049,424.553 495.1377,458.7334 511.8895,461.0456 
				547.0574,424.5215 503.3181,379.3956 493.085,381.2863 			"/>
		</g>
		<path style="fill:#25489C;" d="M474.941,59.1139l22.6721,14.4696c0,0,26.8195,0.0001,44.054,0
			c17.2345,0,18.9857,20.0915,18.9857,20.0915l35.2985,20.0916v12.6263l-14.101,14.101l-6.6357-1.9354l-0.4608,7.3731
			l-2.3041-8.2025l-22.3956-6.7279c-11.7662,13.3022-0.0922,25.3449-0.0922,25.3449h21.6584l3.3178-8.0182l0.0922,8.9398
			l5.8984,17.5724c0,0-48.4164,0.0614-53.086,0s-7.7417-16.1592-7.7417-16.1592l-13.763,16.1592V146.884
			c0,0-9.2164,6.0213-9.2164,19.3542s16.7737,24.0239,27.864,24.0239c11.0904,0,45.4979,0,45.4979,0s-2.2426,1.7204-2.2119,6.39
			c0.0307,4.6696,4.424,8.8785,9.0935,8.8477c4.6695-0.0307,8.3561-5.0383,8.3561-9.2164c0-4.1781-2.212-6.7586-2.212-6.7586
			s8.049,4.8233,7.9875,16.8351c-0.0614,12.012-5.3148,17.2652-14.3775,21.5047c0,0,1.3206,7.1887,15.0533,7.1887
			c21.0132,0,20.7368-24.6536,20.7368-24.6536s1.463,10.8293,1.5668,19.3082c0.3686,30.1066-30.8439,30.2295-36.3738,26.6659
			c0.5223,2.2733,6.9429,17.0195,26.1744,16.8351c19.2314-0.1843,26.9117-16.8351,26.9117-16.8351s-1.9661,31.3355-23.348,45.2214
			s-35.5751,22.3035-35.5751,22.3035l3.5022,6.0827c0,0,33.4554-19.8149,35.2064-20.6445s4.9767-1.4745,7.5574-1.4746
			c2.5806,0,11.6125,2.4885,11.6125,7.3731s0,78.7687,0,78.7687h-42.3337v-23.1022c0,0-30.4775,17.9374-40.9227,23.9587
			c-10.4451,6.0213-18.9219-2.0238-18.9219-8.1066c0-5.1611,0-28.7549,0-28.7549l-37.6026,21.5047v84.1143
			c0,0,7.6188,0.0001,12.9182,0c5.2994,0,13.3176,8.3868,12.5803,16.5432c0,0-44.6685,0-53.4547,0
			c-8.7862,0-13.7323-9.6311-14.3775-16.7276c-28.3862,14.1931-33.2402-17.8182-33.2402-17.8182s23.7167,18.6784,33.5475-6.5128
			c-33.9161,11.9197-33.5475-20.6446-33.5475-20.6446s15.5449,16.3129,23.5939,2.4576
			c-41.1663-24.4539-16.6509-43.6854-16.6509-43.6854s-1.2903,15.1762,12.3499,22.365l-16.4665-62.3331
			c0,0-6.5129,31.5506-29.2465,31.6734c-7.8645,0.0425-37.7255,0-37.7255,0l-88.9682,52.5945h-43.9158v41.7192
			c0,0,11.7201-0.0613,15.5296,0c3.8093,0.0614,10.6909,5.7141,10.5066,16.9119c0,0-47.0034,0-53.639,0
			c-6.6357,0-13.1485-4.1934-14.0088-16.6047c-32.5643,13.5173-33.0865-18.0025-33.0865-18.0025s18.5248,20.4603,32.5336-6.3593
			c-33.363,12.2577-32.5336-20.7367-32.5336-20.7367s16.62,16.4665,32.9022,2.3962c-44.5455-5.7141-32.9042-41.2891-26.7274-44.5148
			c-0.1843,13.548,8.6632,25.7135,24.9762,25.7135c16.3129,0,20.5014-10.8438,22.9487-19.9994
			c2.4472-9.1555,28.8471-107.9232,28.8471-107.9232s-29.7687,0-46.5424,0s-36.1893-15.7906-36.4044-39.6301
			s19.4464-39.9374,37.8791-39.9374c22.1191,0.0001,79.6289-0.1228,88.8453,0c9.2164,0.1229,20.0301-8.8477,19.9994-22.5493
			c-0.0265-11.7972-10.906-22.8565-22.2113-22.8565c-11.3053,0-90.9343,0-90.9343,0s-0.6145,13.7017-6.6358,18.2484
			c-6.1442-3.3793-7.2502-19.4157-7.2502-19.4157s-13.7937-0.768-19.6922-6.8508c4.0551-6.175,20.0915-7.2809,20.0915-7.2809
			s0.5529-15.3912,6.7893-19.1085c4.854,2.2734,6.8815,17.3267,6.8815,17.3267s79.3217-0.0613,92.5933,0
			c13.2715,0.0614,37.7255,10.7523,37.7255,39.753c0,29.0008-24.454,40.3061-36.7424,40.3061c-12.2885,0-80.4892,0.0001-89.0911,0
			c-10.568,0-21.0132,9.3391-21.0132,22.1191s10.8138,22.1192,20.0301,22.1192c9.2164,0,198.7039,0,198.7039,0
			s-38.8315-7.1273-28.0176-46.6961c43.0095,27.649,65.9888-19.047,65.9888-19.047s-28.8778-1.2903-29.8762-41.1663
			c26.5583,31.9499,56.0629-2.514,56.0629-2.514s-35.5259,3.2513-37.492-32.3851c24.454,23.8396,37.2646-1.1674,37.2646-1.1674
			c-12.995,0.4608-27.0652-16.1592-10.2301-33.1787c-0.7504,9.3378,1.7819,12.6429,7.0351,12.657
			c5.6834,0.0154,9.5543-6.3531,9.5543-14.0088c0-2.7956,0-5.5912,0-5.5912h25.6021L474.941,59.1139z"/>
	</g>
	<polygon style="fill:#FFFFFF;" points="518.1963,92.6306 541.1326,106.1782 527.7198,108.4212 	"/>
	<g>
		
			<ellipse transform="matrix(0.3692 -0.9294 0.9294 0.3692 -20.3578 840.4709)" style="fill:#D3BE76;" cx="608.9463" cy="435.2319" rx="54.0998" ry="54.0998"/>
		<circle style="fill:#851119;" cx="608.9463" cy="435.2319" r="45.4366"/>
		<path style="fill:#D4BE75;" d="M571.5193,433.7603l7.5661,7.4621l6.2671-3.0414l5.1611-16.3128l-3.6865-6.3593l-10.8455,1.9416
			C573.4244,422.33,571.8676,427.8636,571.5193,433.7603z"/>
		<path style="fill:#D4BE75;" d="M601.1176,398.4954l-5.7194,11.1151l4.7925,5.5299h17.1424l5.069-5.4377l-5.9099-11.2768
			c-2.4111-0.4569-4.9282-0.7043-7.546-0.7043C606.2354,397.7215,603.6202,397.9888,601.1176,398.4954z"/>
		<path style="fill:#D4BE75;" d="M589.4077,449.9165l-7.4959,1.8126l-1.3415,10.7518c3.6042,4.2144,8.1996,7.5504,13.6417,9.6938
			l9.696-4.8086l-0.6144-7.1887L589.4077,449.9165z"/>
		<polygon style="fill:#D4BE75;" points="622.4022,440.7617 617.3332,424.6331 600.2828,424.6331 595.3983,441.2225 
			608.9463,451.7291 		"/>
		<path style="fill:#D4BE75;" d="M642.1043,417.6571l-11.3154-2.1482l-3.8618,6.0931l4.8296,16.2565l6.313,3.364l8.3159-7.3078
			C646.0684,428.0437,644.5822,422.5287,642.1043,417.6571z"/>
		<path style="fill:#D4BE75;" d="M636.986,462.7115l-1.1895-10.7059l-7.2502-2.0891l-14.2545,10.2609l-0.9325,6.9353l9.9912,5.1325
			C628.7451,470.1441,633.3443,466.8621,636.986,462.7115z"/>
	</g>
</g>
<g>
</g>
<g>
</g>
<g>
</g>
<g>
</g>
<g>
</g>
<g>
</g>
<g>
</g>
<g>
</g>
<g>
</g>
<g>
</g>
<g>
</g>
<g>
</g>
<g>
</g>
<g>
</g>
<g>
</g>
</svg>
