<?xml version="1.0" encoding="utf-8"?>
<!-- Created by @FCLOGO 2024-9-10 GMT+8 8:06:39 . https://fclogo.top/ -->
<!-- FOR PERSONAL USE ONLY NOT FOR COMMERCIAL USE -->
<svg version="1.1" xmlns="http://www.w3.org/2000/svg" xmlns:xlink="http://www.w3.org/1999/xlink" x="0px" y="0px"
	 viewBox="0 0 800 800" style="enable-background:new 0 0 800 800;" xml:space="preserve">
<path style="fill:#CCCCCC;" d="M348.22,774.3c-0.79,0-1.38-0.22-1.77-0.65c-0.39-0.44-0.53-1.03-0.41-1.79l0.25-1.65
	c0.12-0.75,0.45-1.35,0.98-1.78c0.53-0.44,1.19-0.65,1.98-0.65c0.76,0,1.33,0.2,1.72,0.6c0.39,0.4,0.55,0.94,0.47,1.62h-1.24
	c0.03-0.36-0.06-0.64-0.26-0.84c-0.2-0.2-0.5-0.3-0.89-0.3c-0.42,0-0.76,0.12-1.03,0.35c-0.27,0.23-0.43,0.56-0.5,0.99l-0.26,1.66
	c-0.07,0.44-0.01,0.77,0.19,1c0.19,0.23,0.5,0.35,0.92,0.35c0.39,0,0.72-0.1,0.98-0.3c0.26-0.2,0.44-0.48,0.52-0.85h1.24
	c-0.14,0.69-0.47,1.23-0.99,1.63C349.61,774.1,348.97,774.3,348.22,774.3z M352.8,774.19l1-6.29h1.19l-0.19,1.19
	c0.34-0.87,0.97-1.3,1.91-1.3c0.67,0,1.17,0.21,1.49,0.62c0.32,0.42,0.43,0.99,0.31,1.71l-0.07,0.42h-1.27l0.06-0.32
	c0.07-0.45,0.01-0.8-0.17-1.04c-0.18-0.24-0.48-0.36-0.88-0.36c-0.4,0-0.74,0.12-1.01,0.37c-0.27,0.24-0.43,0.59-0.5,1.03
	l-0.63,3.97H352.8z M361.91,774.3c-0.77,0-1.35-0.22-1.73-0.67c-0.38-0.45-0.51-1.04-0.4-1.77l0.25-1.65
	c0.08-0.49,0.26-0.92,0.52-1.28c0.26-0.37,0.6-0.65,1.01-0.85c0.41-0.2,0.87-0.3,1.38-0.3c0.77,0,1.35,0.22,1.73,0.67
	c0.39,0.45,0.52,1.04,0.39,1.77l-0.17,1.12h-3.85l-0.09,0.53c-0.15,0.95,0.22,1.43,1.11,1.43c0.72,0,1.17-0.25,1.37-0.74h1.22
	c-0.17,0.53-0.5,0.96-1.01,1.28C363.16,774.14,362.58,774.3,361.91,774.3z M361.23,770.22l-0.05,0.29l2.65-0.01l0.05-0.29
	c0.07-0.47,0.01-0.82-0.17-1.07c-0.18-0.25-0.49-0.37-0.92-0.37c-0.44,0-0.8,0.13-1.06,0.38
	C361.48,769.39,361.31,769.75,361.23,770.22z M368.33,774.3c-0.63,0-1.1-0.21-1.41-0.64c-0.31-0.42-0.4-1-0.27-1.73l0.27-1.77
	c0.11-0.73,0.39-1.31,0.84-1.74c0.44-0.43,0.98-0.64,1.61-0.64c0.47,0,0.83,0.12,1.09,0.35c0.26,0.24,0.39,0.56,0.38,0.96h0.02
	l0.17-1.2h1.24l-1,6.29h-1.22l0.19-1.2h-0.02c-0.12,0.41-0.35,0.73-0.69,0.97C369.2,774.18,368.8,774.3,368.33,774.3z
	 M368.93,773.23c0.39,0,0.72-0.12,0.98-0.36c0.26-0.24,0.43-0.57,0.5-1.01l0.25-1.65c0.07-0.43,0.01-0.76-0.18-1
	c-0.19-0.24-0.47-0.36-0.86-0.36c-0.4,0-0.72,0.12-0.98,0.35c-0.26,0.24-0.42,0.57-0.49,1.01l-0.25,1.65
	c-0.07,0.44-0.01,0.78,0.17,1.01C368.24,773.11,368.53,773.23,368.93,773.23z M376.35,774.19c-0.57,0-0.99-0.16-1.26-0.47
	c-0.27-0.31-0.36-0.75-0.27-1.32l0.54-3.39h-1.74l0.17-1.12h1.74l0.27-1.72h1.24l-0.27,1.72h2.47l-0.18,1.12h-2.46l-0.54,3.39
	c-0.08,0.44,0.1,0.66,0.53,0.66h1.72l-0.17,1.12H376.35z M382.5,774.3c-0.77,0-1.35-0.22-1.73-0.67c-0.38-0.45-0.52-1.04-0.4-1.77
	l0.25-1.65c0.08-0.49,0.26-0.92,0.52-1.28c0.26-0.37,0.6-0.65,1.01-0.85c0.41-0.2,0.87-0.3,1.38-0.3c0.77,0,1.35,0.22,1.73,0.67
	c0.39,0.45,0.52,1.04,0.39,1.77l-0.17,1.12h-3.85l-0.09,0.53c-0.15,0.95,0.22,1.43,1.11,1.43c0.72,0,1.17-0.25,1.37-0.74h1.22
	c-0.17,0.53-0.5,0.96-1.01,1.28C383.76,774.14,383.18,774.3,382.5,774.3z M381.83,770.22l-0.05,0.29l2.65-0.01l0.05-0.29
	c0.07-0.47,0.01-0.82-0.17-1.07c-0.18-0.25-0.49-0.37-0.92-0.37c-0.44,0-0.8,0.13-1.06,0.38
	C382.08,769.39,381.91,769.75,381.83,770.22z M388.92,774.3c-0.63,0-1.1-0.21-1.4-0.64c-0.3-0.42-0.39-1-0.28-1.73l0.27-1.77
	c0.11-0.73,0.39-1.31,0.84-1.74c0.44-0.43,0.98-0.64,1.61-0.64c0.47,0,0.83,0.12,1.09,0.35c0.26,0.24,0.39,0.56,0.38,0.96h0.02
	l0.21-1.47l0.3-1.8h1.24l-1.33,8.35h-1.22l0.19-1.2h-0.02c-0.12,0.41-0.35,0.73-0.69,0.97C389.8,774.18,389.4,774.3,388.92,774.3z
	 M389.53,773.23c0.39,0,0.72-0.12,0.98-0.36c0.26-0.24,0.43-0.57,0.5-1.01l0.25-1.65c0.08-0.43,0.02-0.76-0.17-1
	c-0.19-0.24-0.48-0.36-0.87-0.36c-0.4,0-0.72,0.12-0.98,0.35c-0.26,0.24-0.42,0.57-0.49,1.01l-0.25,1.65
	c-0.08,0.44-0.02,0.78,0.16,1.01C388.83,773.11,389.13,773.23,389.53,773.23z M401.02,774.3c-0.47,0-0.84-0.12-1.1-0.35
	c-0.26-0.23-0.39-0.56-0.38-0.97h-0.01l-0.19,1.2h-1.22l1.33-8.35h1.24l-0.29,1.8l-0.27,1.47h0.05c0.12-0.41,0.35-0.73,0.69-0.97
	c0.34-0.23,0.74-0.35,1.21-0.35c0.63,0,1.1,0.21,1.4,0.64c0.3,0.43,0.39,1.01,0.28,1.74l-0.27,1.77c-0.11,0.73-0.39,1.31-0.84,1.73
	C402.18,774.09,401.64,774.3,401.02,774.3z M400.77,773.23c0.4,0,0.72-0.12,0.98-0.35c0.26-0.23,0.42-0.57,0.5-1.01l0.25-1.65
	c0.07-0.43,0.01-0.77-0.17-1.01c-0.18-0.24-0.47-0.35-0.87-0.35c-0.39,0-0.72,0.12-0.98,0.36c-0.26,0.24-0.43,0.57-0.5,1l-0.25,1.65
	c-0.07,0.44-0.01,0.77,0.17,1.01C400.08,773.11,400.37,773.23,400.77,773.23z M405.47,776.25l0.17-1.06h1.93
	c0.64,0,1.01-0.3,1.1-0.9l0.1-0.67l0.21-1.19h-0.03c-0.12,0.42-0.35,0.74-0.68,0.97c-0.33,0.23-0.73,0.34-1.2,0.34
	c-0.63,0-1.09-0.2-1.4-0.6c-0.31-0.4-0.41-0.94-0.3-1.63l0.58-3.6h1.24l-0.56,3.48c-0.06,0.41,0,0.73,0.18,0.96
	c0.18,0.23,0.47,0.34,0.85,0.34c0.39,0,0.72-0.12,0.98-0.37c0.27-0.24,0.43-0.58,0.49-1.02l0.54-3.4h1.24l-1.01,6.41
	c-0.1,0.6-0.37,1.08-0.81,1.42c-0.44,0.35-1,0.52-1.67,0.52H405.47z M417.79,770.09h3.22l0.54-1.85h-5.47l-1.71,6.44h2.15l0.59-2.1
	h3.03l0.44-1.71h-3.03L417.79,770.09z M424.23,772.92c-0.59,0-1.02-0.39-1.02-1.12c0-0.88,0.63-1.76,1.61-1.76
	c0.49,0,0.88,0.24,1.02,0.78l1.95-0.83c-0.29-1.17-1.27-1.9-2.64-1.9c-2.78,0-4.15,2.15-4.15,3.9c0,1.76,1.27,2.83,3.07,2.83
	c1.37,0,2.34-0.59,2.98-1.42l-1.51-1.17C425.16,772.67,424.72,772.92,424.23,772.92z M430.91,768.23h-2.15l-1.76,6.44h5.12
	l0.49-1.85h-2.93L430.91,768.23z M439.75,771.01c0-1.66-1.32-2.93-3.22-2.93c-2.2,0-3.81,1.81-3.81,3.81c0,1.66,1.32,2.93,3.22,2.93
	C438.14,774.82,439.75,773.01,439.75,771.01z M434.92,771.7c0-0.83,0.59-1.71,1.51-1.71c0.78,0,1.17,0.54,1.17,1.22
	c0,0.83-0.59,1.71-1.51,1.71C435.31,772.92,434.92,772.38,434.92,771.7z M443.21,772.23h1.07l-0.2,0.68
	c-0.15,0.05-0.34,0.1-0.59,0.1c-0.68,0-1.27-0.39-1.27-1.22c0-1.02,0.73-1.9,1.95-1.9c0.59,0,1.12,0.24,1.51,0.59l1.37-1.37
	c-0.44-0.54-1.51-1.07-2.73-1.07c-2.59,0-4.29,1.76-4.29,3.86c0,2.05,1.61,2.88,3.22,2.88c0.93,0,1.85-0.29,2.49-0.68l0.93-3.32
	h-3.12L443.21,772.23z M450.78,768.08c-2.2,0-3.81,1.81-3.81,3.81c0,1.66,1.32,2.93,3.22,2.93c2.2,0,3.81-1.81,3.81-3.81
	C454,769.35,452.68,768.08,450.78,768.08z M450.34,772.92c-0.78,0-1.17-0.54-1.17-1.22c0-0.83,0.59-1.71,1.51-1.71
	c0.78,0,1.17,0.54,1.17,1.22C451.85,772.04,451.27,772.92,450.34,772.92z M437.94,767.5c-0.05,0.29,0.1,0.49,0.44,0.49
	s0.54-0.2,0.63-0.49c0.05-0.24-0.1-0.49-0.44-0.49C438.24,767.01,437.99,767.25,437.94,767.5z M432.13,765.5
	c-0.44,0-0.73,0.24-0.78,0.59c-0.05,0.34,0.1,0.59,0.54,0.59s0.73-0.24,0.78-0.59C432.77,765.74,432.57,765.5,432.13,765.5z
	 M433.01,767.3c-0.1,0.54,0.15,0.88,0.83,0.88c0.63,0,1.07-0.39,1.17-0.88s-0.15-0.88-0.83-0.88
	C433.5,766.43,433.11,766.82,433.01,767.3z M439.6,777.55l-2.44-1.81h-1.51l4.25,3.17l1.61-3.17h-0.98L439.6,777.55z M425.84,767.16
	l-2-1.46l23.13-2.78l-2.15,4.25h1.02l2.68-5.32l-26.99,3.22l2.78,2.1H425.84z M338.72,785.79l0.61-3.83h2.32l-0.08,0.52h-1.76
	l-0.18,1.14h1.63l-0.08,0.52h-1.62l-0.26,1.64H338.72z M342.97,785.84c-0.36,0-0.62-0.1-0.8-0.3c-0.17-0.2-0.23-0.47-0.18-0.82
	l0.27-1.7c0.06-0.34,0.2-0.61,0.44-0.82c0.24-0.2,0.54-0.3,0.89-0.3c0.36,0,0.62,0.1,0.8,0.3c0.17,0.2,0.24,0.47,0.18,0.81
	l-0.27,1.71c-0.06,0.34-0.2,0.62-0.44,0.82C343.63,785.74,343.33,785.84,342.97,785.84z M343.05,785.33c0.19,0,0.35-0.05,0.47-0.16
	c0.12-0.11,0.19-0.26,0.23-0.46l0.27-1.7c0.03-0.2,0.01-0.35-0.08-0.46c-0.08-0.11-0.22-0.16-0.41-0.16s-0.35,0.05-0.46,0.16
	c-0.12,0.1-0.19,0.26-0.22,0.46l-0.27,1.7c-0.03,0.2-0.01,0.35,0.08,0.46C342.72,785.28,342.86,785.33,343.05,785.33z M345,785.79
	l0.61-3.83h1.2c0.24,0,0.44,0.05,0.6,0.14c0.16,0.09,0.28,0.22,0.36,0.39c0.07,0.17,0.09,0.37,0.05,0.59
	c-0.04,0.26-0.14,0.48-0.3,0.67c-0.16,0.19-0.37,0.32-0.6,0.39l0.54,1.64h-0.62l-0.48-1.57h-0.54l-0.25,1.57H345z M345.89,783.71
	h0.64c0.19,0,0.35-0.06,0.48-0.17c0.13-0.11,0.21-0.26,0.24-0.45c0.03-0.19,0-0.35-0.09-0.46c-0.09-0.11-0.24-0.17-0.43-0.17h-0.64
	L345.89,783.71z M349.54,785.79l0.61-3.83h1.25c0.37,0,0.65,0.1,0.84,0.31c0.19,0.21,0.26,0.49,0.2,0.84
	c-0.04,0.23-0.12,0.44-0.25,0.61s-0.29,0.31-0.49,0.4c-0.2,0.09-0.42,0.14-0.66,0.14h-0.69l-0.24,1.52H349.54z M350.43,783.75h0.69
	c0.19,0,0.36-0.06,0.49-0.18c0.14-0.12,0.22-0.27,0.25-0.47c0.03-0.2,0-0.35-0.1-0.47c-0.1-0.12-0.25-0.18-0.44-0.18h-0.69
	L350.43,783.75z M352.75,785.79l0.61-3.83h2.25l-0.08,0.5h-1.7l-0.17,1.09h1.51l-0.08,0.5h-1.51l-0.19,1.24h1.69l-0.08,0.5H352.75z
	 M355.84,785.79l0.61-3.83h1.2c0.24,0,0.44,0.05,0.6,0.14c0.16,0.09,0.28,0.22,0.36,0.39c0.07,0.17,0.09,0.37,0.05,0.59
	c-0.04,0.26-0.14,0.48-0.3,0.67c-0.16,0.19-0.37,0.32-0.6,0.39l0.54,1.64h-0.62l-0.48-1.57h-0.54l-0.25,1.57H355.84z M356.74,783.71
	h0.64c0.19,0,0.35-0.06,0.48-0.17c0.13-0.11,0.21-0.26,0.24-0.45c0.03-0.19,0-0.35-0.09-0.46c-0.09-0.11-0.24-0.17-0.43-0.17h-0.64
	L356.74,783.71z M360.13,785.84c-0.39,0-0.67-0.1-0.87-0.29c-0.19-0.19-0.26-0.45-0.22-0.78h0.57c-0.03,0.17,0.01,0.31,0.12,0.41
	c0.11,0.1,0.27,0.15,0.48,0.15c0.2,0,0.37-0.05,0.5-0.15c0.13-0.1,0.21-0.23,0.24-0.4c0.02-0.15,0-0.28-0.06-0.39
	c-0.06-0.11-0.16-0.18-0.29-0.22l-0.46-0.14c-0.27-0.08-0.46-0.22-0.59-0.41c-0.13-0.19-0.17-0.42-0.13-0.68
	c0.04-0.21,0.11-0.39,0.23-0.55c0.12-0.16,0.27-0.28,0.46-0.37c0.19-0.09,0.4-0.13,0.64-0.13c0.35,0,0.62,0.1,0.8,0.29
	c0.18,0.19,0.25,0.44,0.2,0.76h-0.57c0.03-0.17,0-0.3-0.09-0.4c-0.09-0.1-0.23-0.14-0.42-0.14c-0.19,0-0.34,0.04-0.46,0.13
	c-0.12,0.09-0.19,0.21-0.21,0.38c-0.02,0.15-0.01,0.28,0.05,0.39c0.06,0.11,0.16,0.18,0.29,0.22l0.47,0.15
	c0.26,0.08,0.46,0.22,0.58,0.41c0.12,0.19,0.17,0.42,0.12,0.69c-0.04,0.22-0.12,0.41-0.24,0.57c-0.13,0.16-0.29,0.29-0.49,0.38
	C360.6,785.79,360.38,785.84,360.13,785.84z M363.27,785.84c-0.36,0-0.62-0.1-0.8-0.3c-0.17-0.2-0.23-0.47-0.18-0.82l0.27-1.7
	c0.06-0.34,0.2-0.61,0.44-0.82c0.24-0.2,0.54-0.3,0.89-0.3c0.36,0,0.62,0.1,0.8,0.3c0.17,0.2,0.24,0.47,0.18,0.81l-0.27,1.71
	c-0.06,0.34-0.2,0.62-0.44,0.82C363.92,785.74,363.62,785.84,363.27,785.84z M363.34,785.33c0.19,0,0.35-0.05,0.47-0.16
	c0.12-0.11,0.19-0.26,0.23-0.46l0.27-1.7c0.03-0.2,0.01-0.35-0.08-0.46c-0.08-0.11-0.22-0.16-0.41-0.16c-0.19,0-0.35,0.05-0.46,0.16
	c-0.12,0.1-0.19,0.26-0.22,0.46l-0.27,1.7c-0.03,0.2-0.01,0.35,0.08,0.46C363.02,785.28,363.15,785.33,363.34,785.33z
	 M365.28,785.79l0.61-3.83h0.71l0.62,3.19c0.01-0.1,0.02-0.22,0.03-0.36c0.01-0.14,0.03-0.29,0.04-0.44
	c0.02-0.15,0.04-0.29,0.06-0.41l0.31-1.98h0.52l-0.61,3.83h-0.71l-0.61-3.19c-0.01,0.09-0.02,0.21-0.03,0.34s-0.03,0.28-0.04,0.42
	c-0.02,0.15-0.04,0.28-0.06,0.41l-0.31,2.01H365.28z M368.23,785.79l1.59-3.83h0.75l0.37,3.83h-0.56l-0.07-0.97h-1.09l-0.39,0.97
	H368.23z M369.39,784.34h0.87l-0.09-1.1c-0.02-0.2-0.03-0.37-0.04-0.51c-0.01-0.14-0.01-0.24-0.01-0.3c-0.02,0.06-0.05,0.16-0.1,0.3
	c-0.05,0.14-0.11,0.31-0.19,0.5L369.39,784.34z M371.72,785.79l0.61-3.83h0.57l-0.52,3.31h1.67l-0.08,0.52H371.72z M376.68,785.84
	c-0.37,0-0.63-0.1-0.8-0.3c-0.17-0.2-0.22-0.48-0.17-0.82l0.44-2.76h0.57l-0.44,2.76c-0.03,0.2-0.01,0.35,0.07,0.46
	c0.08,0.11,0.21,0.17,0.41,0.17c0.19,0,0.35-0.06,0.46-0.17c0.12-0.11,0.19-0.27,0.22-0.46l0.44-2.76h0.57l-0.44,2.76
	c-0.06,0.35-0.2,0.62-0.43,0.82C377.35,785.74,377.05,785.84,376.68,785.84z M379.84,785.84c-0.39,0-0.67-0.1-0.87-0.29
	c-0.19-0.19-0.26-0.45-0.22-0.78h0.57c-0.03,0.17,0.01,0.31,0.12,0.41c0.11,0.1,0.27,0.15,0.48,0.15c0.2,0,0.37-0.05,0.5-0.15
	c0.13-0.1,0.21-0.23,0.24-0.4c0.02-0.15,0-0.28-0.06-0.39c-0.06-0.11-0.16-0.18-0.29-0.22l-0.46-0.14
	c-0.27-0.08-0.46-0.22-0.59-0.41c-0.13-0.19-0.17-0.42-0.13-0.68c0.04-0.21,0.11-0.39,0.23-0.55s0.27-0.28,0.46-0.37
	c0.19-0.09,0.4-0.13,0.64-0.13c0.35,0,0.62,0.1,0.8,0.29c0.18,0.19,0.25,0.44,0.2,0.76h-0.57c0.03-0.17,0-0.3-0.09-0.4
	c-0.09-0.1-0.23-0.14-0.42-0.14c-0.19,0-0.34,0.04-0.46,0.13c-0.12,0.09-0.19,0.21-0.21,0.38c-0.02,0.15-0.01,0.28,0.05,0.39
	c0.06,0.11,0.16,0.18,0.29,0.22l0.47,0.15c0.26,0.08,0.46,0.22,0.58,0.41c0.12,0.19,0.17,0.42,0.12,0.69
	c-0.04,0.22-0.12,0.41-0.24,0.57c-0.13,0.16-0.29,0.29-0.49,0.38C380.31,785.79,380.09,785.84,379.84,785.84z M381.91,785.79
	l0.61-3.83h2.25l-0.08,0.5h-1.7l-0.17,1.09h1.51l-0.08,0.5h-1.51l-0.19,1.24h1.69l-0.08,0.5H381.91z M386.94,785.84
	c-0.36,0-0.62-0.1-0.8-0.3c-0.17-0.2-0.23-0.47-0.18-0.82l0.27-1.7c0.06-0.34,0.2-0.61,0.44-0.82c0.24-0.2,0.54-0.3,0.89-0.3
	c0.36,0,0.62,0.1,0.8,0.3c0.17,0.2,0.24,0.47,0.18,0.81l-0.27,1.71c-0.06,0.34-0.2,0.62-0.44,0.82
	C387.6,785.74,387.3,785.84,386.94,785.84z M387.02,785.33c0.19,0,0.35-0.05,0.47-0.16c0.12-0.11,0.19-0.26,0.23-0.46l0.27-1.7
	c0.03-0.2,0.01-0.35-0.08-0.46c-0.08-0.11-0.22-0.16-0.41-0.16c-0.19,0-0.35,0.05-0.46,0.16c-0.12,0.1-0.19,0.26-0.22,0.46
	l-0.27,1.7c-0.03,0.2-0.01,0.35,0.08,0.46C386.7,785.28,386.83,785.33,387.02,785.33z M388.95,785.79l0.61-3.83h0.71l0.62,3.19
	c0.01-0.1,0.02-0.22,0.03-0.36c0.01-0.14,0.03-0.29,0.04-0.44c0.02-0.15,0.04-0.29,0.06-0.41l0.31-1.98h0.52l-0.61,3.83h-0.71
	l-0.61-3.19c-0.01,0.09-0.02,0.21-0.03,0.34c-0.01,0.13-0.03,0.28-0.04,0.42c-0.02,0.15-0.04,0.28-0.06,0.41l-0.31,2.01H388.95z
	 M392.25,785.79l0.61-3.83h0.57l-0.52,3.31h1.67l-0.08,0.52H392.25z M396.12,785.79l0.22-1.41l-0.75-2.42h0.58l0.45,1.45
	c0.03,0.09,0.05,0.18,0.07,0.27c0.02,0.08,0.03,0.15,0.03,0.19c0.02-0.04,0.05-0.1,0.09-0.19c0.04-0.08,0.09-0.17,0.14-0.27
	l0.9-1.45h0.6l-1.53,2.42l-0.22,1.41H396.12z M399.22,785.79l0.61-3.83h0.71l0.62,3.19c0.01-0.1,0.02-0.22,0.03-0.36
	c0.01-0.14,0.03-0.29,0.04-0.44c0.02-0.15,0.04-0.29,0.06-0.41l0.31-1.98h0.52l-0.61,3.83h-0.71l-0.61-3.19
	c-0.01,0.09-0.02,0.21-0.03,0.34c-0.01,0.13-0.03,0.28-0.04,0.42c-0.02,0.15-0.04,0.28-0.06,0.41l-0.31,2.01H399.22z M403.51,785.84
	c-0.36,0-0.62-0.1-0.8-0.3c-0.18-0.2-0.23-0.47-0.18-0.82l0.27-1.7c0.06-0.34,0.2-0.61,0.44-0.82c0.24-0.2,0.54-0.3,0.89-0.3
	c0.36,0,0.62,0.1,0.8,0.3c0.17,0.2,0.24,0.47,0.18,0.81l-0.27,1.71c-0.06,0.34-0.2,0.62-0.44,0.82
	C404.16,785.74,403.86,785.84,403.51,785.84z M403.58,785.33c0.19,0,0.35-0.05,0.47-0.16c0.12-0.11,0.19-0.26,0.23-0.46l0.27-1.7
	c0.03-0.2,0.01-0.35-0.08-0.46c-0.08-0.11-0.22-0.16-0.41-0.16c-0.19,0-0.35,0.05-0.46,0.16c-0.12,0.1-0.19,0.26-0.22,0.46
	l-0.27,1.7c-0.03,0.2-0.01,0.35,0.08,0.46C403.26,785.28,403.4,785.33,403.58,785.33z M406.38,785.79l0.52-3.31h-1.02l0.08-0.52
	h2.62l-0.08,0.52h-1.03l-0.52,3.31H406.38z M409.52,785.79l0.61-3.83h2.32l-0.08,0.52h-1.76l-0.18,1.14h1.63l-0.08,0.52h-1.62
	l-0.26,1.64H409.52z M413.77,785.84c-0.36,0-0.62-0.1-0.8-0.3c-0.18-0.2-0.23-0.47-0.18-0.82l0.27-1.7c0.06-0.34,0.2-0.61,0.44-0.82
	c0.24-0.2,0.54-0.3,0.89-0.3c0.36,0,0.62,0.1,0.8,0.3c0.17,0.2,0.24,0.47,0.18,0.81l-0.27,1.71c-0.06,0.34-0.2,0.62-0.44,0.82
	C414.42,785.74,414.13,785.84,413.77,785.84z M413.85,785.33c0.19,0,0.35-0.05,0.47-0.16c0.12-0.11,0.19-0.26,0.23-0.46l0.27-1.7
	c0.03-0.2,0.01-0.35-0.08-0.46c-0.08-0.11-0.22-0.16-0.41-0.16c-0.19,0-0.35,0.05-0.46,0.16c-0.12,0.1-0.19,0.26-0.22,0.46
	l-0.27,1.7c-0.03,0.2-0.01,0.35,0.08,0.46C413.52,785.28,413.66,785.33,413.85,785.33z M415.8,785.79l0.61-3.83h1.2
	c0.24,0,0.44,0.05,0.6,0.14c0.16,0.09,0.28,0.22,0.36,0.39c0.07,0.17,0.09,0.37,0.05,0.59c-0.04,0.26-0.14,0.48-0.3,0.67
	c-0.16,0.19-0.37,0.32-0.6,0.39l0.54,1.64h-0.62l-0.48-1.57h-0.54l-0.25,1.57H415.8z M416.69,783.71h0.64
	c0.19,0,0.35-0.06,0.48-0.17c0.13-0.11,0.21-0.26,0.24-0.45c0.03-0.19,0-0.35-0.09-0.46c-0.09-0.11-0.24-0.17-0.43-0.17h-0.64
	L416.69,783.71z M420.91,785.84c-0.36,0-0.63-0.1-0.81-0.3c-0.18-0.2-0.24-0.47-0.19-0.82l0.27-1.7c0.06-0.35,0.21-0.62,0.45-0.82
	s0.55-0.3,0.91-0.3c0.36,0,0.63,0.1,0.81,0.3c0.18,0.2,0.24,0.47,0.19,0.82h-0.57c0.03-0.2,0-0.35-0.09-0.46
	c-0.09-0.11-0.23-0.16-0.42-0.16c-0.19,0-0.35,0.05-0.48,0.16c-0.12,0.1-0.2,0.26-0.23,0.45l-0.27,1.71c-0.03,0.2,0,0.35,0.09,0.46
	c0.09,0.11,0.23,0.16,0.42,0.16c0.19,0,0.35-0.05,0.47-0.16c0.12-0.11,0.2-0.26,0.23-0.46h0.57c-0.03,0.23-0.11,0.43-0.24,0.59
	c-0.12,0.17-0.28,0.3-0.47,0.39C421.36,785.79,421.14,785.84,420.91,785.84z M424.03,785.84c-0.36,0-0.62-0.1-0.8-0.3
	c-0.18-0.2-0.23-0.47-0.18-0.82l0.27-1.7c0.06-0.34,0.2-0.61,0.44-0.82c0.24-0.2,0.54-0.3,0.89-0.3c0.36,0,0.62,0.1,0.8,0.3
	c0.17,0.2,0.24,0.47,0.18,0.81l-0.27,1.71c-0.06,0.34-0.2,0.62-0.44,0.82C424.69,785.74,424.39,785.84,424.03,785.84z
	 M424.11,785.33c0.19,0,0.35-0.05,0.47-0.16c0.12-0.11,0.19-0.26,0.23-0.46l0.27-1.7c0.03-0.2,0.01-0.35-0.08-0.46
	c-0.08-0.11-0.22-0.16-0.41-0.16c-0.19,0-0.35,0.05-0.46,0.16c-0.12,0.1-0.19,0.26-0.22,0.46l-0.27,1.7
	c-0.03,0.2-0.01,0.35,0.08,0.46C423.79,785.28,423.92,785.33,424.11,785.33z M425.97,785.79l0.61-3.83h0.69l0.18,1.23
	c0.02,0.12,0.04,0.23,0.05,0.33c0.01,0.1,0.02,0.18,0.03,0.24c0.02-0.06,0.05-0.14,0.09-0.24c0.04-0.11,0.09-0.22,0.15-0.34
	l0.57-1.22h0.71l-0.61,3.83h-0.54l0.2-1.29c0.02-0.17,0.06-0.35,0.1-0.55c0.04-0.2,0.09-0.4,0.14-0.61c0.05-0.2,0.1-0.4,0.14-0.59
	c0.05-0.19,0.09-0.35,0.13-0.49l-0.86,1.86h-0.55l-0.28-1.86c0,0.14-0.01,0.29-0.02,0.47c-0.01,0.18-0.02,0.37-0.04,0.57
	c-0.02,0.2-0.04,0.41-0.06,0.61c-0.02,0.2-0.05,0.4-0.08,0.57l-0.2,1.29H425.97z M429.11,785.79l0.61-3.83h0.69l0.18,1.23
	c0.02,0.12,0.04,0.23,0.05,0.33c0.01,0.1,0.02,0.18,0.03,0.24c0.02-0.06,0.05-0.14,0.09-0.24c0.04-0.11,0.09-0.22,0.15-0.34
	l0.57-1.22h0.71l-0.61,3.83h-0.54l0.2-1.29c0.02-0.17,0.06-0.35,0.1-0.55c0.04-0.2,0.09-0.4,0.14-0.61c0.05-0.2,0.1-0.4,0.14-0.59
	c0.05-0.19,0.09-0.35,0.13-0.49l-0.86,1.86h-0.55l-0.28-1.86c0,0.14-0.01,0.29-0.02,0.47c-0.01,0.18-0.02,0.37-0.04,0.57
	c-0.02,0.2-0.04,0.41-0.06,0.61c-0.02,0.2-0.05,0.4-0.08,0.57l-0.2,1.29H429.11z M432.41,785.79l0.61-3.83h2.25l-0.08,0.5h-1.7
	l-0.17,1.09h1.51l-0.08,0.5h-1.51l-0.19,1.24h1.69l-0.08,0.5H432.41z M435.51,785.79l0.61-3.83h1.2c0.24,0,0.44,0.05,0.6,0.14
	c0.16,0.09,0.28,0.22,0.36,0.39c0.07,0.17,0.09,0.37,0.05,0.59c-0.04,0.26-0.14,0.48-0.3,0.67c-0.16,0.19-0.37,0.32-0.6,0.39
	l0.54,1.64h-0.62l-0.48-1.57h-0.54l-0.25,1.57H435.51z M436.4,783.71h0.64c0.19,0,0.35-0.06,0.48-0.17
	c0.13-0.11,0.21-0.26,0.24-0.45c0.03-0.19,0-0.35-0.09-0.46c-0.09-0.11-0.24-0.17-0.43-0.17h-0.64L436.4,783.71z M439.8,785.84
	c-0.36,0-0.63-0.1-0.81-0.3c-0.18-0.2-0.24-0.47-0.19-0.82l0.27-1.7c0.06-0.35,0.21-0.62,0.45-0.82s0.55-0.3,0.91-0.3
	c0.36,0,0.63,0.1,0.81,0.3c0.18,0.2,0.24,0.47,0.19,0.82h-0.57c0.03-0.2,0-0.35-0.09-0.46c-0.09-0.11-0.23-0.16-0.42-0.16
	c-0.19,0-0.35,0.05-0.47,0.16c-0.12,0.1-0.2,0.26-0.23,0.45l-0.27,1.71c-0.03,0.2,0,0.35,0.09,0.46c0.09,0.11,0.23,0.16,0.42,0.16
	s0.35-0.05,0.47-0.16c0.12-0.11,0.2-0.26,0.23-0.46h0.57c-0.03,0.23-0.11,0.43-0.24,0.59c-0.12,0.17-0.28,0.3-0.47,0.39
	C440.25,785.79,440.04,785.84,439.8,785.84z M441.88,785.79l0.08-0.5h0.78l0.45-2.82h-0.78l0.08-0.5h2.13l-0.08,0.5h-0.78
	l-0.45,2.82h0.78l-0.08,0.5H441.88z M444.74,785.79l1.59-3.83h0.75l0.37,3.83h-0.56l-0.07-0.97h-1.09l-0.39,0.97H444.74z
	 M445.9,784.34h0.87l-0.09-1.1c-0.02-0.2-0.03-0.37-0.04-0.51c-0.01-0.14-0.01-0.24-0.01-0.3c-0.02,0.06-0.05,0.16-0.1,0.3
	c-0.05,0.14-0.11,0.31-0.19,0.5L445.9,784.34z M448.24,785.79l0.61-3.83h0.57l-0.52,3.31h1.67l-0.08,0.52H448.24z M453.19,785.84
	c-0.37,0-0.63-0.1-0.8-0.3c-0.17-0.2-0.22-0.48-0.17-0.82l0.44-2.76h0.57l-0.44,2.76c-0.03,0.2-0.01,0.35,0.07,0.46
	c0.08,0.11,0.21,0.17,0.41,0.17c0.19,0,0.35-0.06,0.46-0.17c0.12-0.11,0.19-0.27,0.22-0.46l0.44-2.76h0.57l-0.44,2.76
	c-0.06,0.35-0.2,0.62-0.43,0.82C453.86,785.74,453.56,785.84,453.19,785.84z M456.36,785.84c-0.39,0-0.67-0.1-0.87-0.29
	c-0.19-0.19-0.26-0.45-0.22-0.78h0.57c-0.03,0.17,0.01,0.31,0.12,0.41c0.11,0.1,0.27,0.15,0.48,0.15c0.2,0,0.37-0.05,0.5-0.15
	s0.21-0.23,0.24-0.4c0.02-0.15,0-0.28-0.06-0.39c-0.06-0.11-0.16-0.18-0.29-0.22l-0.46-0.14c-0.27-0.08-0.46-0.22-0.59-0.41
	c-0.13-0.19-0.17-0.42-0.13-0.68c0.04-0.21,0.11-0.39,0.23-0.55c0.12-0.16,0.27-0.28,0.46-0.37c0.19-0.09,0.4-0.13,0.64-0.13
	c0.35,0,0.62,0.1,0.8,0.29c0.18,0.19,0.25,0.44,0.2,0.76h-0.57c0.03-0.17,0-0.3-0.09-0.4c-0.09-0.1-0.23-0.14-0.42-0.14
	c-0.19,0-0.34,0.04-0.46,0.13c-0.12,0.09-0.19,0.21-0.21,0.38c-0.02,0.15-0.01,0.28,0.05,0.39c0.06,0.11,0.16,0.18,0.29,0.22
	l0.47,0.15c0.26,0.08,0.46,0.22,0.58,0.41c0.12,0.19,0.17,0.42,0.12,0.69c-0.04,0.22-0.12,0.41-0.24,0.57
	c-0.13,0.16-0.29,0.29-0.49,0.38C456.82,785.79,456.6,785.84,456.36,785.84z M458.42,785.79l0.61-3.83h2.25l-0.08,0.5h-1.7
	l-0.17,1.09h1.51l-0.08,0.5h-1.51l-0.19,1.24h1.69l-0.08,0.5H458.42z"/>
<g>
	<g>
		<g>
			<path style="fill:#FEF500;" d="M527.15,73.17l-49.68,41.4L400,50l-80.43,65.16l-41.99-33.71l-108.23,64.46c0,0,0,236.73,0,372.67
				C169.35,629.1,298.87,690.61,400,750c101.13-59.39,230.65-120.9,230.65-231.41c0-135.94,0-370.31,0-370.31L527.15,73.17z"/>
			<path style="fill:#9A2024;" d="M400,721.26c-6.55-3.79-13.16-7.58-19.64-11.29c-46.5-26.64-94.59-54.19-130.48-86.5
				c-37.99-34.2-55.69-67.53-55.69-104.89V160.03l81.29-48.42l44.16,35.46l80.14-64.93l77.7,64.76l50.73-42.28l77.6,56.32v357.64
				c0,37.36-17.7,70.68-55.69,104.89c-35.89,32.3-83.98,59.85-130.48,86.5C413.16,713.68,406.55,717.47,400,721.26z"/>
			<path style="fill:#FEF500;" d="M389.18,694.58c-45.7-26.18-92.95-53.25-127.43-84.29c-33.99-30.6-49.82-59.73-49.82-91.7V170.12
				l62.04-36.95l45.72,36.7l79.93-64.76L477.47,170l51.49-42.91l59.11,42.9v348.6c0,31.97-15.83,61.1-49.82,91.7
				c-34.48,31.03-81.72,58.1-127.42,84.28c0,0-7.28,4.17-10.83,6.21C396.45,698.74,389.18,694.58,389.18,694.58z"/>
		</g>
		<g>
			<path style="fill:#BE2621;" d="M400,457.72c83.67,0,200.37,22.44,222.22,86.02c3.12-13.21,1.78-29.64-1.04-50.08
				c-4.73-34.3-10.65-44.95-39.03-61.51c-28.39-16.56-91.67-31.34-182.15-31.34s-153.77,14.79-182.15,31.34
				c-28.39,16.56-34.3,27.2-39.03,61.51c-2.82,20.43-4.16,36.87-1.04,50.08C199.63,480.17,316.33,457.72,400,457.72z"/>
			<path style="fill:#9A2024;" d="M400,457.72c-83.67,0-200.37,22.44-222.22,86.02c0.17,0.7,0.34,1.4,0.53,2.09
				c2.25,8.05,6.32,14.85,12.93,20.58c11.93,10.34,22.78,15.33,28.62,17.49c2.84,1.05,4.5,1.44,4.5,1.44s-1.12-1.4-2.7-3.84
				c-5.69-8.79-17.36-31.13-4.4-50.57c16.56-24.84,61.51-51.96,182.75-51.96s166.19,27.12,182.75,51.96
				c12.96,19.44,1.29,41.78-4.4,50.57c-1.58,2.44-2.7,3.84-2.7,3.84s1.66-0.39,4.5-1.44c5.84-2.16,16.69-7.15,28.62-17.49
				c6.61-5.73,10.68-12.53,12.93-20.58c0.19-0.68,0.36-1.38,0.53-2.09C600.37,480.17,483.67,457.72,400,457.72z"/>
		</g>
		<g>
			<path style="fill:#BE2621;" d="M541.98,485.33c-65.25-19.74-101.05-20.75-141.98-20.75l2.45,26.43l0.51,1.5
				c40.07,0.02,75.54,1.18,139.02,20.2V485.33z"/>
			<path style="fill:#9A2024;" d="M497.82,538.19l44.17-24.76v-0.72c-63.48-19.03-98.95-20.18-139.02-20.2l10.88,31.63
				C457.01,520.79,497.82,538.19,497.82,538.19z"/>
		</g>
		<g>
			<path style="fill:#BE2621;" d="M400,539.28c49.45,0,146.09,12.59,163.49,61.13c0.81-9.88-0.81-21.51-2.76-35.61
				c-6.12-44.21-103.28-61.4-160.72-61.4s-161.84,13.72-165.19,58.22c-1.62,21.5-3.93,36.59-0.58,48.27
				C241.74,553.48,347.48,539.28,400,539.28z"/>
			<path style="fill:#9A2024;" d="M272.29,639.24c0,0-23.42-24.43-10.37-43.16c13.05-18.74,43.95-39.48,138.08-39.48
				s120.9,21.25,133.95,39.99c13.05,18.74-11.21,44.5-11.21,44.5c29.85-10.67,39.28-22.8,40.74-40.68
				c-17.4-48.54-114.04-61.13-163.49-61.13c-52.52,0-158.26,14.21-165.77,70.61C237.82,622.37,247.9,630.94,272.29,639.24z"/>
		</g>
		<g>
			<path style="fill:#9A2024;" d="M251.43,610.36c0,0,20.08,4.46,54.43,0s81.64-13.38,114.66-13.38s96.98,5.97,132.67,19.35
				l-13.93,8.76c0,0-55.83-12.05-107.14-11.61c-51.31,0.45-117.34,19.18-165.52,18.29L251.43,610.36z"/>
			<path style="fill:#9A2024;" d="M284,641.14c0,0,29.45-0.35,53.98-3.92s68.26-12.58,97.26-11.69c29,0.89,69.15,4.53,92.35,10.33
				l-16.51,10.64c0,0-37.03-4.02-70.04-3.57c-33.01,0.45-106.63,14.28-129.38,16.06L284,641.14z"/>
			<path style="fill:#9A2024;" d="M319.69,664.34c0,0,35.47-0.45,58.67-5.35s86.55-8.92,117.78-4.68l-18.29,13.16
				c0,0-24.09,0-59.78,4.24c-35.69,4.24-52.87,9.82-78.08,8.48L319.69,664.34z"/>
		</g>
	</g>
	<g>
		<path style="fill:#BE2621;" d="M400,158.41c0,0-3.12,4.91-12.94,11.15c-9.82,6.25-37.48,8.7-44.61,12.27s-16.06,12.72-18.74,23.2
			c0,0-3.12-9.15,4.02-15.84c0,0-26.32,4.02-7.81,28.55c0,0-9.15,7.92-8.31,11.77c0,0-1.34,3.01-12.88,8.7s-23.42,14.56-24.43,16.4
			c-1,1.84-1.17,6.02,0,6.86c1.17,0.84,6.36,5.19,7.53,6.86c1.17,1.67-0.84,3.35,1,7.53c1.84,4.18,17.07,24.93,30.45,28.27
			c0,0,1.06-3.85-2.51-12.77c0,0,6.02-1.78,13.61,8.48s10.48,17.18,6.25,26.1c-4.24,8.92-1.53,17.68-1.53,17.68
			s-2.04,0.84-8.06-2.73c0,0,2.68,8.48,9.59,15.62c0,0-2.45,2.9-6.92,4.68c0,0,16.06,26.32,51.31,31.45c0,0-6.47-14.95-1.56-26.77
			c0,0,2.01,26.1,41.05,25.21c0,0-18.74-16.51-17.62-26.99s9.59-19.63,19.18-27.66c0,0-12.27,18.51-11.38,29.22
			c0.89,10.71,18.29,29.89,50.64,27.88c0,0-31.68-20.97,2.45-62.46c0,0-3.57,13.38-5.35,21.64s0.45,13.16,7.81,15.84
			c0,0-3.12-11.82,4.46-17.18c7.58-5.35,33.91-20.97,39.93-25.43c6.02-4.46,16.28-15.39,2.68-36.36c0,0,28.33,12.05,46.4-10.26
			c0,0-19.18,4.02-27.21-5.35c-8.03-9.37-24.09-30.11-40.82-38.81c0,0,9.15,1.34,25.21,11.6c0,0,3.35-19.63-29-35.25
			s-54.69-15.39-68.28-10.93c0,0,18.53-21.19,80.77,9.59c0,0-4.24-17.85-35.47-30.78c-31.23-12.94-57.44-4.24-66.48,0.11
			c-9.03,4.35-26.43,15.06-33.8,17.4c0,0,3.23-4.24,8.59-7.81s16.17-7.36,20.19-10.15C391.41,176.15,400,167.45,400,158.41z"/>
		<g>
			<path style="fill:#FEF500;" d="M444.28,225.33l-17.73,14.72c0,0,31.12-1.67,51.53,18.74C478.07,258.8,477.4,240.39,444.28,225.33
				z"/>
			<path style="fill:#FEF500;" d="M378.03,210.95c0,0,42.16,0,46.51,0c0,0,5.31,23.42-23.95,25.43L378.03,210.95z"/>
			<path style="fill:#FEF500;" d="M389.07,246.41c0,0,10.56,15.06,24.52,18.74c13.96,3.68,48.98,13.16,60.81,19.41
				c12.08,6.38,28.89,18.18,3.68,38.03c0,0,9.7-21.75-2.9-28.79c-12.89-7.2-22.08-10.16-39.93-15.29S393.31,268.61,389.07,246.41z"
				/>
			<path style="fill:#FEF500;" d="M413.59,290.03c0,0,28.79,12.27,18.76,40.15C432.34,330.18,462.65,300.06,413.59,290.03z"/>
			<path style="fill:#FEF500;" d="M360.63,276.04c0,0,10.71-1.52,21.41-1.52c0,0,25.76,17.07,0,61.57
				C382.04,336.09,381.04,292.63,360.63,276.04z"/>
			<path style="fill:#FEF500;" d="M363.3,336.09c0,0,1.34-54.21-25.76-64.24c0,0-7.03,10.37-7.03,15.06
				C330.51,286.9,339.88,282.22,363.3,336.09z"/>
			<path style="fill:#FEF500;" d="M356.11,333.58c0,0,6.36,8.2,4.52,29.45c0,0-2.51-5.19-5.52-6.86c0,0-2.51,7.53,0.84,24.59
				c0,0-13.72-4.85-18.91-13.22c0,0,7.36-0.33,10.71,1.17c0,0-3.68-6.02-4.18-7.7C343.56,361.02,354.6,355,356.11,333.58z"/>
			<path style="fill:#FEF500;" d="M357.78,222.83c15.89,12.88,16.06,23.92,11.21,32.12c-4.85,8.2-12.21,11.04-19.24,10.87
				c-7.03-0.17-16.06-7.03-16.06-7.03l3.35,7.7c-11.21-10.54-12.72-10.04-12.72-10.04s10.04,13.55,0.33,20.91
				c-9.7,7.36-21.25,4.35-28.78,3.68c-7.53-0.67-10.71-11.38-7.7-12.88c8.87-4.18,17.9-11.04,17.9-11.04
				c-6.02-1.67-25.93-2.51-25.93-2.51c3.51-3.68,18.07-12.88,23.42-15.89s8.03-3.35,10.71-7.86c6.69-12.38,22.75-17.07,22.75-17.07
				v4.52c8.87-4.68,21.69-7.03,26.28-3.46c4.58,3.57,13.75,13.38,13.75,13.38L357.78,222.83z M322.82,244.07
				c0,0,13.13-9.12,19.83-10.62c0,0-19.66-0.59-20.49-0.42c-0.84,0.17-0.67,1.42-1.17,1.42c-0.5,0-3.35,0.08-3.43,0.33
				S322.82,244.07,322.82,244.07z"/>
		</g>
	</g>
	<g>
		<path style="fill:#FEF500;" d="M254.99,446.3c2.39-0.09,4.58,0.12,6.67,1c3.02,1.27,5.01,3.47,5.91,6.62
			c0.32,1.11,0.55,2.26,0.89,3.36c0.76,2.48,2.39,3.15,4.72,1.99c0.47-0.23,0.92-0.49,1.41-0.75c0.49,0.78,0.53,1.36-0.39,1.75
			c-1.78,0.76-3.48,1.76-5.33,2.29c-4.69,1.34-8.2-0.58-9.91-5.15c-0.79-2.11-1.5-4.26-2.45-6.3c-1.37-2.93-3.32-3.77-6.45-3
			c-1.46,0.36-2.9,0.76-4.42,1.15c1.46,5.57,2.9,11.07,4.37,16.66c1.72-0.45,3.44-0.9,5.22-1.37c0.12,0.46,0.22,0.84,0.33,1.27
			c-5.7,1.49-11.38,2.98-17.15,4.49c-0.09-0.35-0.19-0.73-0.31-1.2c1.46-0.38,2.93-0.77,4.47-1.17
			c-2.83-10.81-5.64-21.53-8.47-32.34c-1.45,0.38-2.92,0.76-4.47,1.17c-0.12-0.47-0.22-0.84-0.34-1.28c0.2-0.07,0.42-0.18,0.65-0.23
			c6.16-1.61,12.31-3.25,18.47-4.82c2.52-0.64,5.06-1.23,7.7-1.05c5.43,0.38,8.9,5.11,7.26,10.03c-1.08,3.22-3.54,5.06-6.66,6.12
			c-0.48,0.16-0.95,0.31-1.43,0.47C255.24,446.06,255.2,446.11,254.99,446.3z M245.23,447.81c2.7-0.71,5.35-1.26,7.89-2.11
			c2.56-0.85,3.74-2.55,3.49-5.04c-0.2-1.94-0.63-3.91-1.3-5.75c-0.96-2.63-2.75-3.72-5.33-3.25c-2.8,0.5-5.55,1.3-8.31,1.98
			c-0.04,0.01-0.07,0.1-0.11,0.16C242.79,438.49,244.02,443.18,245.23,447.81z"/>
		<path style="fill:#FEF500;" d="M313.01,417.11c-0.07-0.54-0.11-0.9-0.16-1.31c0.19-0.04,0.33-0.09,0.48-0.11
			c6.88-0.84,13.75-1.69,20.64-2.5c2.95-0.35,5.88-0.28,8.68,0.93c4.6,1.98,7.56,5.49,9.22,10.11c1.85,5.17,2.03,10.39-0.27,15.48
			c-2.24,4.95-6.06,8.19-11.49,8.99c-7.57,1.11-15.18,1.9-22.85,2.84c-0.04-0.36-0.09-0.74-0.15-1.23c1.53-0.19,3.06-0.37,4.67-0.57
			c-1.36-11.1-2.7-22.1-4.06-33.2C316.17,416.73,314.62,416.92,313.01,417.11z M325.39,415.56c1.36,11.11,2.7,22.1,4.08,33.32
			c3.13-0.51,6.24-0.91,9.28-1.55c2.64-0.56,4.28-2.38,5.08-4.92c0.34-1.09,0.62-2.24,0.7-3.38c0.3-4.76-0.4-9.45-1.28-14.09
			c-0.38-2-1.04-4.01-1.9-5.86c-1.11-2.37-2.97-4.03-5.74-4.3C332.16,414.43,328.82,415.25,325.39,415.56z"/>
		<path style="fill:#FEF500;" d="M461.17,450.78c-10.2-0.6-17.34-7.25-18.61-17.03c-1.35-10.44,7.18-20.49,17.69-20.91
			c4.33-0.17,8.45,0.47,12.17,2.78c5.57,3.45,8.54,8.55,9,15.02c0.57,7.98-4.01,15.4-11.31,18.62
			C467.16,450.57,464.04,450.92,461.17,450.78z M451.39,430.17c0.02,3.57,0.01,6.14,0.05,8.71c0.01,0.75,0.12,1.5,0.24,2.24
			c0.51,3.4,1.93,6.23,5.39,7.39c1.54,0.52,3.24,0.7,4.88,0.78c4.6,0.22,7.85-2.04,9-6.48c1.73-6.71,2-13.56,1.29-20.44
			c-0.3-2.93-1.55-5.41-4.32-6.86c-1.89-0.99-3.93-1.2-6.01-1.25c-4.51-0.11-7.76,2.06-8.86,6.43
			C452.19,424.11,451.82,427.65,451.39,430.17z"/>
		<path style="fill:#FEF500;" d="M307.39,442.57c0.49-0.08,0.94-0.15,1.49-0.24c0.35,3.81,0.7,7.57,1.05,11.37
			c-10.78,1.77-21.47,3.52-32.23,5.28c-0.07-0.4-0.13-0.78-0.21-1.26c1.53-0.25,3.03-0.5,4.59-0.75c-1.81-11.03-3.6-21.96-5.4-32.99
			c-1.53,0.25-3.03,0.5-4.59,0.75c-0.08-0.48-0.14-0.86-0.21-1.3c10.29-1.69,20.55-3.37,30.89-5.06c0.79,2.94,1.58,5.86,2.36,8.78
			c-1.43,0.5-1.4,0.48-2.03-0.73c-0.43-0.83-0.9-1.66-1.45-2.41c-1.39-1.89-3.32-3.02-5.64-2.84c-3.92,0.3-7.81,0.9-11.78,1.39
			c0.88,5.38,1.72,10.49,2.57,15.69c1.98-0.26,3.93-0.49,5.72-1.39c1.99-1,2.81-2.67,2.72-4.84c-0.02-0.5-0.08-0.99-0.12-1.53
			c0.57-0.09,1.08-0.18,1.64-0.27c0.79,4.82,1.57,9.6,2.36,14.43c-0.56,0.09-1.08,0.18-1.63,0.27c-0.2-0.7-0.35-1.37-0.58-2.01
			c-0.99-2.77-2.3-3.77-5.24-3.78c-1.52,0-3.04,0.25-4.65,0.39c0.89,5.45,1.76,10.76,2.63,16.06c0.05,0.02,0.11,0.08,0.16,0.07
			c3.47-0.66,6.98-1.18,10.41-2.04c3.66-0.92,5.73-3.53,6.51-7.17C307,445.18,307.17,443.91,307.39,442.57z"/>
		<path style="fill:#FEF500;" d="M498.13,423.98c-0.06,0.3-0.11,0.6-0.17,0.89c-1.58,8.41-3.15,16.82-4.73,25.24
			c-0.55,2.95-0.2,3.46,2.72,4.02c0.67,0.13,1.35,0.25,2.09,0.39c-0.08,0.44-0.15,0.82-0.24,1.26c-3.92-0.73-7.84-1.47-11.81-2.21
			c0.07-0.39,0.14-0.75,0.24-1.26c0.7,0.13,1.39,0.28,2.09,0.39c2.1,0.34,2.69-0.06,3.21-2.13c0.02-0.06,0.03-0.12,0.04-0.18
			c1.7-9.06,3.4-18.12,5.09-27.18c0.06-0.34,0.08-0.69,0.09-1.03c0.06-1.22-0.24-1.71-1.43-2.08c-0.92-0.29-1.88-0.46-2.9-0.69
			c0.07-0.39,0.14-0.77,0.23-1.21c0.14,0.01,0.29,0,0.44,0.03c3.85,0.72,7.71,1.42,11.55,2.19c0.42,0.08,0.87,0.56,1.09,0.97
			c4.54,8.09,9.05,16.2,13.57,24.3c0.14,0.24,0.28,0.49,0.5,0.87c0.1-0.34,0.19-0.54,0.23-0.76c1.09-5.82,2.19-11.65,3.28-17.47
			c0.05-0.25,0.09-0.49,0.12-0.74c0.17-1.6-0.2-2.19-1.75-2.61c-0.84-0.23-1.71-0.33-2.6-0.5c0.09-0.5,0.16-0.86,0.24-1.28
			c3.64,0.68,7.29,1.37,11.01,2.06c-0.07,0.37-0.14,0.75-0.24,1.27c-0.79-0.15-1.57-0.34-2.37-0.44c-1.66-0.2-2.23,0.2-2.63,1.81
			c-0.17,0.67-0.29,1.35-0.42,2.03c-1.82,9.71-3.64,19.41-5.46,29.12c-0.07,0.36-0.14,0.72-0.19,1.03c-1.04,0.18-1.43-0.39-1.81-1.1
			c-6.17-11.49-12.36-22.96-18.54-34.44c-0.1-0.19-0.21-0.37-0.31-0.56C498.28,423.97,498.2,423.98,498.13,423.98z"/>
		<path style="fill:#FEF500;" d="M533.58,461.3c-1.3,0.32-2.17,2.23-3.94,1.02c0.9-3.13,1.99-8.49,2.89-11.63
			c1.4,0.05,1.28,2.32,1.34,3.59c0.32,5.93,3.86,10.22,9.55,11.5c1.98,0.45,4.1,0.34,5.2-0.92c2.23-2.59,2.44-5.98,0.64-8.13
			c-2.46-2.41-3.26-3.37-5.69-5.79c-2.17-2.68-3.21-3.72-4.52-5.4c-3.73-4.11-4.12-9.26,0.1-13.11c4.37-3.99,11.94-3.79,16.79,0.19
			c0.82,0.67,1.74,1.69,5.52,5.51c0.44-0.3,0.93-0.82,1.53-1.01c0.53-0.16,1.66-0.96,2.33-0.91c-0.93,3.25-2.3,7.31-3.17,10.36
			c-1.46-0.09-1.48-0.1-1.41-1.49c0.38-7.86-6.16-13.45-12.73-13.31c-1.44,0.25-3.22,0.96-4.06,3.22c-0.21,1.34-0.29,3.1,0.92,4.31
			c1.08,1.1,2.23,2.45,3.93,3.97c1.67,1.51,2.76,2.72,6.06,5.98c3.55,4.21,4.52,6.94,4.02,10.37c-0.64,4.72-2.55,6.48-6.57,7.7
			c-5.25,1.77-11.6-0.06-15.86-3.38C535.45,463.17,534.57,462.22,533.58,461.3z"/>
		<path style="fill:#FEF500;" d="M382.77,410.97c-1.54,0.04-3.06,0.08-4.64,0.12c-0.01-0.49-0.02-0.88-0.04-1.31
			c5.93-0.16,11.81-0.32,17.75-0.48c0.01,0.41,0.02,0.8,0.03,1.29c-1.81,0.05-3.58,0.1-5.41,0.15c0.3,11.17,0.6,22.24,0.9,33.44
			c1.06-0.03,2.12-0.03,3.17-0.09c1.84-0.11,3.73-0.03,5.51-0.43c4.18-0.94,6.54-3.92,7.93-7.79c0.13-0.35,0.24-0.71,0.34-1.07
			c0.35-1.26,0.34-1.26,1.82-1c-0.27,3.7-0.54,7.4-0.81,11.18c-10.09,0.27-20.16,0.54-30.27,0.81c-0.01-0.41-0.02-0.8-0.03-1.25
			c1.55-0.04,3.05-0.08,4.63-0.12C383.36,433.28,383.07,422.21,382.77,410.97z"/>
		<path style="fill:#FEF500;" d="M422.21,411.79c-1.57-0.03-3.1-0.06-4.67-0.08c0.01-0.49,0.02-0.88,0.02-1.3
			c5.68,0.1,11.31,0.2,16.99,0.31c-0.01,0.41-0.01,0.77-0.02,1.27c-1.53-0.03-3.07-0.06-4.66-0.08c-0.2,11.21-0.4,22.29-0.6,33.46
			c1.57,0.03,3.09,0.06,4.66,0.08c-0.01,0.46-0.01,0.83-0.02,1.27c-5.65-0.1-11.29-0.2-17-0.31c0.01-0.4,0.01-0.79,0.02-1.27
			c1.57,0.03,3.1,0.06,4.67,0.08C421.81,434.07,422.01,423.01,422.21,411.79z"/>
	</g>
	<g>
		<path style="fill:#FEF500;" d="M433.86,514.74c-1.35,0-2.64,0-3.96,0c-0.03-0.11-0.06-0.21-0.09-0.32
			c-0.43-1.62-1.66-2.28-3.2-2.19c-1.14,0.07-1.94,0.66-2.45,1.66c-0.41,0.8-0.63,1.67-0.74,2.55c-0.12,0.99-0.19,2-0.28,3.04
			c0.09-0.04,0.12-0.04,0.13-0.05c0.65-1.06,1.63-1.64,2.83-1.83c2.23-0.37,4.26,0.08,5.96,1.64c1.11,1.02,1.74,2.32,2.04,3.78
			c0.39,1.91,0.35,3.8-0.41,5.61c-1.03,2.44-2.92,3.82-5.51,4.26c-1.61,0.27-3.2,0.13-4.69-0.6c-1.89-0.93-3.05-2.48-3.64-4.47
			c-0.44-1.48-0.58-3.01-0.62-4.54c-0.05-1.82-0.02-3.64,0.15-5.45c0.17-1.74,0.45-3.45,1.19-5.05c1.02-2.23,2.77-3.46,5.18-3.78
			c1.56-0.21,3.09-0.06,4.55,0.6c1.74,0.79,2.79,2.17,3.32,3.97C433.69,513.93,433.76,514.32,433.86,514.74z M430.45,525.22
			c-0.01-0.71-0.1-1.43-0.35-2.12c-0.54-1.45-1.76-2.3-3.33-2.31c-1.56-0.01-2.8,0.84-3.34,2.29c-0.46,1.27-0.48,2.56-0.14,3.85
			c0.4,1.56,1.43,2.5,3.02,2.69c1.4,0.17,2.75-0.34,3.51-1.7C430.3,527.1,430.44,526.18,430.45,525.22z"/>
		<path style="fill:#FEF500;" d="M400,520.16c-0.03,2.58-0.1,4.53-0.52,6.44c-0.25,1.13-0.62,2.21-1.25,3.2
			c-0.94,1.48-2.26,2.43-3.97,2.83c-1.57,0.36-3.15,0.34-4.69-0.15c-1.97-0.62-3.26-1.99-4.06-3.85c-0.53-1.24-0.79-2.54-0.94-3.87
			c-0.26-2.29-0.27-4.58-0.1-6.87c0.12-1.67,0.37-3.32,1.03-4.88c1.08-2.55,3.01-3.96,5.77-4.22c1.35-0.12,2.68-0.01,3.95,0.49
			c1.76,0.7,2.9,2.01,3.63,3.72c0.52,1.23,0.8,2.52,0.92,3.84C399.9,518.17,399.96,519.48,400,520.16z M396.09,520.82
			c0-0.74,0.04-1.49-0.01-2.23c-0.08-1.09-0.19-2.19-0.36-3.27c-0.14-0.89-0.5-1.71-1.18-2.35c-1.73-1.62-4.61-1.01-5.56,1.19
			c-0.47,1.09-0.6,2.25-0.67,3.42c-0.14,2.15-0.14,4.31,0,6.46c0.06,0.97,0.17,1.93,0.46,2.86c0.46,1.44,1.34,2.43,2.92,2.61
			c1.54,0.17,2.87-0.37,3.57-1.87c0.27-0.59,0.45-1.24,0.57-1.88C396.13,524.13,396.11,522.47,396.09,520.82z"/>
		<path style="fill:#FEF500;" d="M369.84,529.25c3.14,0,6.23,0,9.34,0c0,1.11,0,2.2,0,3.31c-4.82,0-9.64,0-14.47,0
			c0-0.09-0.01-0.18-0.01-0.26c0-0.82-0.01-1.65,0.01-2.47c0-0.14,0.06-0.31,0.15-0.41c2.88-3.36,5.77-6.71,8.66-10.06
			c0.61-0.71,1.16-1.47,1.37-2.41c0.23-1,0.16-1.98-0.27-2.92c-0.65-1.42-2.03-1.94-3.43-1.79c-1.82,0.19-2.76,1.52-2.92,3.1
			c-0.04,0.4-0.04,0.81-0.07,1.23c-1.27,0-2.54,0-3.8,0c-0.25-3.12,1.23-6.44,5.01-7.4c1.97-0.5,3.92-0.4,5.78,0.5
			c2.07,1.01,3.22,2.72,3.58,4.97c0.22,1.39,0.16,2.78-0.36,4.12c-0.37,0.96-0.99,1.76-1.66,2.53c-1.81,2.09-3.62,4.17-5.43,6.26
			c-0.45,0.52-0.9,1.03-1.34,1.55C369.94,529.12,369.91,529.16,369.84,529.25z"/>
		<path style="fill:#FEF500;" d="M411.41,532.57c-1.21,0-2.41,0-3.6,0c-0.07,0-0.14,0-0.23,0c0-6.4,0-13.85,0-20.28
			c-1.87,0-0.97,0-2.86,0c-0.01-0.1,0-1.84,0-3.23c2.29,0,5.62,0,6.7,0V532.57z"/>
	</g>
</g>
</svg>
