<?xml version="1.0" encoding="utf-8"?>
<!-- Created by @FCLOGO 2023-10-5 GMT+8 20:19:50 . https://fclogo.top/ -->
<!-- FOR PERSONAL USE ONLY NOT FOR COMMERCIAL USE -->
<svg version="1.1" xmlns="http://www.w3.org/2000/svg" xmlns:xlink="http://www.w3.org/1999/xlink" x="0px" y="0px"
	 viewBox="0 0 800 800" style="enable-background:new 0 0 800 800;" xml:space="preserve">
<style type="text/css">
	.st0{fill:#9A1E28;}
</style>
<g>
	<path class="st0" d="M522.1,81.1l-42.2,33.1L400,50l-79.9,64.2l-42.2-33.1l-107.4,64.2c0,0,0,295.5,0,372
		c0,76.5,63,134.6,116.5,166.7c53.5,32.1,113,66,113,66s59.5-33.9,113-66c53.5-32.1,116.5-90.1,116.5-166.7c0-76.5,0-372,0-372
		L522.1,81.1z M625.8,517.3c0,85.5-80.2,142.8-114.7,163.5c-47.6,28.6-100.7,59-111.1,65c-10.5-6-63.5-36.4-111.1-65
		c-34.5-20.7-114.7-78-114.7-163.5V147.4l103.4-61.8l42.5,33.4L400,54.8l79.9,64.2l42.5-33.4l103.4,61.8V517.3z"/>
	<path class="st0" d="M337.8,631.5c-16.7,2.7-33.2,3.7-44.9,4.1c8,5.7,15,10.2,20.2,13.3c2.8,1.7,5.5,3.3,8.3,5
		c12.6-1,27.1-2.6,41.1-5.5c36.4-7.4,64.8-11.1,96-10.8c15.4,0.2,30.5,1.4,41.9,2.7c5.1-3.4,10.7-7.5,16.5-12.1
		c-21.1-3.9-50.9-7.7-76.9-7.9C405.4,620.1,368.7,626.6,337.8,631.5z"/>
	<path class="st0" d="M360,656.2c-8.4,1.4-19.8,2.7-29.1,3.7c9.3,5.8,18.2,11.5,26.8,16.9c27.8-4.2,59.2-10.7,82.8-12.2
		c8.3-0.5,15.7-0.7,22-0.6h0c7.9-4.9,16-10,24.3-15C427.5,642,375.5,653.6,360,656.2z"/>
	<path class="st0" d="M315.5,222.3c-2.1,1.7-3.1,4.5-3.7,7.8c-0.6,3.3-12.4,7.4-15.8,8.8c-3.4,1.4-16.3,11.1-19.3,13.5
		c-3.1,2.4-2.7,2.8-2.5,5.7c0.2,2.9,2.8,4.8,5.7,6.9c2.9,2.2,3.2,6.9,4,10.2c0.8,3.2,2,5.6,4.9,7.9c2.9,2.3,2.8,2.1,8.6,10.2
		c5.9,8.1,17.8,11.5,17.8,11.5c-1.7-4.4-1.7-14-1.7-14c13.3,3.4,20.4,23.1,20.4,27.5s-5.2,10.2-5,14.3c0.2,4.1,0.4,10.3,0.4,10.3
		c-2.6-0.5-7.1-1.7-7.1-1.7c2.3,5.9,9.6,15.9,9.6,15.9c-3.1,2.3-7.1,4.2-7.1,4.2c15.9,24.2,51.5,31.8,51.5,31.8
		c-7.3-22.1-0.8-26.9-0.8-26.9c3.2,16.5,4.2,16.4,19.9,21.8s22.2,2.8,22.2,2.8s-19-13.3-19.4-24.2c-0.5-15.6,19.3-30.2,19.3-30.2
		c-18.2,28.2-14.7,36.1,3.2,48.1c17.9,12,37,9.4,37,9.4c-11.3-9.3-16.5-17.6-13.9-33c2.6-15.4,15.7-30.4,15.7-30.4
		s-0.9,2.9-5.9,18.7c-4.9,15.7,7.3,19.1,7.3,19.1c-2-15.9,6.6-19.1,33.5-34.6c26.9-15.4,21.9-28.5,18.2-35.6
		c-3.7-7.1-4.9-9.3-4.9-9.3c11,4,16,6.5,28.9,2.8c12.8-3.7,17.7-13.7,17.7-13.7c-19.3,5.9-24.1-0.9-29.2-6.9
		c-5.1-6-10.6-13.3-15.6-17.9c-4.9-4.6-12.8-10.8-16-13.1c-3.2-2.3-5.9-5.1-5.9-5.1c9.6,2.6,25.3,12.3,25.3,12.3
		c-2.6-13.7-5.9-21.1-18.5-29.6c-12.7-8.5-28.7-14.2-41.4-18.1c-12.7-3.9-24.8-1.5-29-0.9c-4.2,0.6-9.6,1.2-9.6,1.2
		c13.4-9.6,34.9-5.9,46.3-2.9c11.4,2.9,36.1,13.4,36.1,13.4c-4.9-10.2-19.1-22.4-30.4-28.4s-23.3-9.6-40.1-9.9
		c-16.8-0.3-29.8,4.3-46,14.2c-16.2,9.9-21.3,11-21.3,11c1.9-3.1,9.2-8.3,12-10.1c2.8-1.7,11-5.2,19.8-10.1
		c8.7-4.8,10.1-19.1,10.1-19.1c-10.9,13.7-25.5,15.9-33.3,17.6c-7.8,1.6-18.6,3.8-25.1,6.1c-6.5,2.3-11,10.2-13.2,13.7
		c-2.2,3.5-5.1,7.4-5.1,7.4c-2.7-4.7,5.7-14.7,5.7-14.7c-23.5,5.3-14,21.4-12.8,23.7c1.2,2.3,2.8,4.2,3.4,5.6
		C320.9,218.5,317.5,220.6,315.5,222.3z M332.6,340.9c-1.1-7.8,3.5-16.4,3.5-16.4l4,2.9c0,0-3.5,6.7-1.1,10.3
		c2.7-3.2,6.5-7.2,6.5-7.2l5.6,4.9l-3.5,12.1C347.6,347.6,333.3,345.8,332.6,340.9z M361.9,363.2c-6.9-8.3-6.3-7-6.3-7
		s-2.7,12.5,2.7,24.5c-15.8-3.9-21.8-15.1-21.8-15.1s7.8,1.9,13.1,3.5c1.1,0.3-5.4-7.8-5.4-7.8s5.2-2,8.9-10.2
		c3.8-8.3,3.8-15.9,3.8-15.9S363.2,339.8,361.9,363.2z M349.7,306.8c-8-13.2-10.9-15.6-15.4-18.7c-4.5-3.1-4.7-4.6-2.5-4.4
		c2.2,0.2,6.5,0.8,10.2,2.2c0,0-0.3-3.1-6-6.6c0,0,2.9-1.4,7.1-1.1c0,0-1.7-2.9-5.1-5.9c0,0,24,2.2,26.6,64.2
		C364.5,336.4,357.8,320,349.7,306.8z M392.1,314.8c-3.1,13.3-8,20.1-8,20.1c-6.5-45.1-21.6-59.3-21.6-59.3
		c15.4,6.5,25,25.3,25,25.3c-0.3-9.6-4.9-27.2-4.9-27.2C397.7,288.3,395.2,301.5,392.1,314.8z M433.8,329.3
		c1.9-8.3,3.1-13.6-1.5-23.1c-4.6-9.6-18.5-15.4-18.5-15.4s19.8-0.9,25.9,12.7C447.4,320.1,433.8,329.3,433.8,329.3z M455.5,238.3
		c0-2.3-9.9-12.3-9.9-12.3c26.3,8.4,35.2,33.1,35.2,33.1s-11.5-8.4-22.6-13.4c-11.1-4.9-29.2-6.4-29.2-6.4
		C437.8,236,455.5,238.3,455.5,238.3z M471.1,282.5c11.1,5.1,21.4,11.7,21,20.4c-0.4,8.6-8.4,16.9-13.6,19.1c0,0,4.7-11.9,4.3-17.5
		c-0.4-5.6-3.5-11.1-17.1-16c-13.6-4.9-27.2-9.5-40.7-13.4c-13.6-3.9-33.3-10.3-35.4-28.8c0,0,7.5,9.3,10.4,11.3
		c2.8,2.1,6.7,4.5,26.5,10.3C446.2,273.7,460,277.4,471.1,282.5z M426.1,209.3c0,0,1.6,29-26.1,26.3c0,0,11.3-5.6,13.3-11.1
		c0,0-4.1,0.4-7.8,0.2c0,0,5.6-3.3,8.8-7.2c0,0-13.4,2.3-19.3,2.3c-6,0-9.1-3.5-16.3-9.5C378.7,210.3,404.3,213.4,426.1,209.3z
		 M338.3,213.3c0,0-1.6,5.4-1.3,6.4c0,0,8.3-7.5,18.6-7.5c5.8,0,15.8,6.8,21.7,16.3c0,0.4-18.1-5.9-18.1-5.9s14.7,13.3,14.4,24.2
		c-0.2,9.9-13.6,18.4-19.4,18.6c-5.8,0.3-16-5.9-19.6-5.6c1,2.6,1.7,2.5,4.7,7C324.8,254.7,325,256,325,256s6.5,10.4,6.3,13.6
		c-0.1,2.3-8.9,12.1-16.8,12.1c-4.9,0-12.1,0-16.3,0c-4.1,0-10-4.6-9.9-9.3c0.1-4.7,4.9-7.4,8.8-9.1c3.8-1.8,10.7-7.1,10.7-7.1
		s-9.9-1.1-25.8-2.2c24.9-22.2,39.2-17.8,39.2-17.8s-17.8,6.7-14.4,7.1c3.4,0.4,5.2-1.2,14.4-1c1.9,3.5,19.7,12.6,30,0.2
		c-1.2-1-22.1,9-21.6-4.4c15.5,4.8,26-5.4,26-5.4s-16-5.6-27.1,0.5c0-3.1,1.6-9.1,1.6-9.1s-2.5,0.7-7.6,7.2
		c-0.5-0.8,0.5-5.5,0.5-5.5s-1.2,0-5.8,3.4C319.3,219.5,338.3,213.3,338.3,213.3z"/>
	<path class="st0" d="M317.7,438.8c0-0.2-0.1-0.4-0.3-0.5c-0.2-0.1-0.4-0.2-0.6-0.2l-25.5,3.6c-0.2,0-0.4,0.1-0.5,0.3
		c-0.1,0.2-0.2,0.4-0.2,0.6l0.5,3.6l27.1-3.9L317.7,438.8z"/>
	<path class="st0" d="M513.2,453.4c0.3-0.2,0.4-0.5,0.5-0.8l2.8-21.8c0-0.3,0-0.7-0.2-0.9c-0.2-0.3-0.5-0.4-0.9-0.5l-0.8-0.1
		l-3.2,24.2l0.8,0.1C512.6,453.7,512.9,453.6,513.2,453.4z"/>
	<path class="st0" d="M568.1,425.3c-36.7-16-116-25-168.1-25s-131.3,9-168.1,25c-36.7,16-43.9,26.3-48.7,47.5
		c-4.3,19.2-7.9,53.5-5,70.9c18.8-65.6,157.1-86.7,221.7-86.7s202.9,21.1,221.7,86.7c2.9-17.4-0.7-51.7-5-70.9
		C612,451.6,604.8,441.4,568.1,425.3z M277.9,434.2l20.4-2.9l-0.6-4.2l-17.5,2.5l-0.4-2.9l17.5-2.5l-0.6-4.1l-18.9,2.7l-0.4-3
		l18.9-2.7l-0.5-3.6l8.6-1.2l0.5,3.6l18.9-2.7l0.4,2.9l-18.9,2.7l0.6,4.1l17.5-2.5l0.4,2.9l-17.5,2.5l0.6,4.2l20.2-2.9l0.4,2.9
		l-49.3,7L277.9,434.2z M328.4,458c-0.5,0.7-1.3,1.1-2.2,1.3l-13.4,1.9l-2.1-2.7l8.9-1.3c0.2,0,0.4-0.1,0.5-0.3
		c0.1-0.2,0.2-0.4,0.2-0.6l-0.5-3.5l-27.1,3.9l1.1,7.3l-8.6,1.2l-3.2-21.8c-0.1-0.9,0.1-1.7,0.6-2.4c0.5-0.7,1.3-1.1,2.2-1.3
		l37.8-5.4c0.9-0.1,1.8,0.1,2.5,0.6c0.7,0.5,1.2,1.2,1.3,2.2l2.8,18.6C329.2,456.5,329,457.3,328.4,458z M392.6,453.3
		c-0.7,0.7-1.5,1.1-2.5,1.1l-11.9,0.7l-1.3-2.3l-30.2,1.7c-1,0.1-1.8-0.2-2.4-0.8c-0.7-0.6-1-1.3-1.1-2.3l-0.7-12.3l8.7-0.5
		l0.7,11.8c0,0.2,0.1,0.4,0.3,0.5c0.2,0.1,0.4,0.2,0.6,0.2l4.9-0.3l-0.8-13.8l8.7-0.5l0.8,13.8l4.7-0.3c0.2,0,0.4-0.1,0.6-0.3
		c0.2-0.2,0.2-0.4,0.2-0.6l-0.7-11.8l8.7-0.5l0.7,12.3c0,0.6-0.1,1.1-0.3,1.6c-0.2,0.5-0.5,0.9-0.9,1.2l4.6-0.3
		c0.3,0,0.5-0.1,0.6-0.3c0.2-0.2,0.3-0.4,0.2-0.7l-0.9-16.6c0-0.3-0.1-0.5-0.3-0.6c-0.2-0.1-0.4-0.2-0.7-0.2l-33.5,1.8
		c-1,0.1-1.8-0.2-2.5-0.8c-0.7-0.6-1-1.3-1.1-2.2l-0.9-17.2c0-0.9,0.2-1.6,0.8-2.3c0.6-0.7,1.4-1,2.3-1.1l6.7-0.4l1.9-4.5l8.7-0.5
		l-1.9,4.5l22.9-1.3c0.7,0,1.4,0.2,1.9,0.6c0.5,0.4,0.8,1,0.8,1.7l0.7,12.1c0,0.7-0.2,1.3-0.6,1.8c-0.5,0.5-1.1,0.8-1.8,0.8
		l-11.3,0.6l-1.6-2.9l5.6-0.3c0.3,0,0.5-0.1,0.7-0.3c0.2-0.2,0.3-0.4,0.2-0.7l-0.5-9.4c0-0.2-0.1-0.5-0.3-0.6
		c-0.2-0.2-0.4-0.2-0.7-0.2l-24.9,1.4c-0.3,0-0.5,0.1-0.7,0.3c-0.2,0.2-0.2,0.4-0.2,0.6l0.9,15.8c0,0.3,0.1,0.5,0.3,0.7
		c0.2,0.2,0.4,0.2,0.7,0.2l33.2-1.8c1-0.1,1.9,0.2,2.6,0.9c0.7,0.6,1.1,1.4,1.2,2.3l1,17.6C393.6,451.7,393.3,452.6,392.6,453.3z
		 M372.9,427.3l-8.7,0.5l-5-10.1l8.7-0.5L372.9,427.3z M427,450.5l-22,3.5l0.2-3.1l22-3.4L427,450.5z M411.4,444.4
		c-1.1,0.2-2.1,0.2-2.9-0.1c-0.8-0.3-1.4-0.7-1.9-1.3c-0.4-0.6-0.6-1.3-0.6-2.1c0-0.8,0.3-1.6,0.9-2.4l7.9-11.4l-3.7,0.4
		c-1,0.1-1.8,0-2.5-0.3c-0.7-0.3-1.2-0.7-1.5-1.2c-0.3-0.5-0.5-1.1-0.5-1.8c0-0.7,0.2-1.3,0.6-2l10.4-17.2l8.5,0.5l-11,17.4
		c-0.2,0.3-0.2,0.5,0,0.7c0.1,0.2,0.4,0.3,0.7,0.3l1.3-0.1l4-5.8l8.5,0.5l-14,20.7c-0.2,0.3-0.2,0.6,0,0.9c0.2,0.3,0.5,0.4,0.9,0.3
		l11.1-2.2l-0.2,3L411.4,444.4z M458.3,411.4l-9.2-0.6l-2.5,41.7l10.3,0.6l-0.2,3l-29.4-1.8l0.2-3l10.3,0.6l2.5-41.7l-9.2-0.6l0.2-3
		l27.2,1.6L458.3,411.4z M477.1,459.1c-0.9,0.6-1.8,0.9-2.9,0.7l-5.7-0.7l-1.3-3.2l2.6,0.3c0.4,0,0.7,0,1-0.2
		c0.3-0.2,0.5-0.5,0.5-0.9l1.9-14.7l-4.6,2.6l0.5-3.5l4.6-2.6l1.8-14.1l0-0.1l-4.6,2.5l0.5-3.5l3.8-2.1l-1.3-10l7.3,1l0.7,5.4
		l4.2-2.3l-0.5,3.5l-3.4,1.8l0.4,3c0.1,0.4,0.1,0.9,0.1,1.3c0,0.4,0,0.9-0.1,1.3l-4.2,32C478.4,457.6,477.9,458.5,477.1,459.1z
		 M487,415l4.3,0.6l-5,38.1l-4.3-0.6L487,415z M492.9,458c-0.6,0.6-1.4,1-2.3,1.2l-7.6,1.9l0.4-2.9l2.9-0.6c0.8-0.2,1.2-0.6,1.3-1.3
		l5.7-44l6.3,0.8l-5.6,42.7C493.9,456.7,493.5,457.4,492.9,458z M524.1,419.6l-7.8-1l-1,7.8l4.3,0.6c1,0.1,1.7,0.5,2.3,1.3
		c0.6,0.7,0.8,1.5,0.7,2.4l-3.1,23.5c-0.1,0.9-0.6,1.6-1.3,2.2c-0.7,0.5-1.6,0.8-2.5,0.6l-3.6-0.5l-0.8-2l-1.3,9.9l-6.9-0.9
		l4.6-35.2l-0.8-0.1c-0.3,0-0.6,0-0.9,0.2c-0.3,0.2-0.4,0.5-0.5,0.8l-3.4,25.9l-6.1-0.8l3.5-26.5c0.1-1,0.6-1.8,1.4-2.4
		c0.8-0.6,1.8-0.8,3-0.7l3.7,0.5l1-7.8l-7.5-1l0.4-2.9l22.9,3L524.1,419.6z"/>
	<polygon class="st0" points="291.5,449.2 292.2,453.7 319.4,449.9 318.7,445.3 	"/>
	<path class="st0" d="M389.3,517.8c-1.3-1.5-3-2.1-5.2-2c-1,0.1-1.9,0.4-2.8,0.9c-0.8,0.5-1.5,1.2-1.9,2.2c-0.5,0.9-0.6,2-0.5,3.2
		c0.1,1.7,0.5,3.1,1.1,4.4c0.6,1.3,1.5,2.2,2.5,2.9c1.1,0.7,2.3,0.9,3.7,0.8c1.1-0.1,2.1-0.4,3-1c0.8-0.6,1.5-1.3,1.9-2.3
		c0.4-0.9,0.6-2,0.5-3.1C391.3,521.3,390.5,519.3,389.3,517.8z"/>
	<path class="st0" d="M408.3,515.8h-1.3v6.8h1.3c1.3,0,2.4-0.2,3-0.7c0.7-0.5,1-1.3,1-2.5C412.5,516.9,411.1,515.8,408.3,515.8z"/>
	<path class="st0" d="M347.9,519.3l-2.2,0.2l1.1,13.2c0,0.3,0.2,0.6,0.6,0.7c0.4,0.1,1.1,0.1,2.2,0c2.6-0.3,4.5-1,5.6-2.2
		c1.1-1.2,1.5-2.9,1.4-5C356.2,521.1,353.3,518.8,347.9,519.3z"/>
	<path class="st0" d="M441.2,518l-2.2-0.1l-0.7,13c0,0.3,0.2,0.6,0.5,0.7c0.4,0.1,1.1,0.2,2.2,0.3c2.6,0.1,4.5-0.3,5.8-1.4
		c1.2-1,1.9-2.6,2-4.7C449,520.9,446.5,518.3,441.2,518z"/>
	<polygon class="st0" points="364.2,525.6 369.2,525 366.1,519.3 	"/>
	<path class="st0" d="M290.8,547.2c0.6-0.9,0.9-1.8,1-2.9c0.1-1-0.1-2.1-0.6-3.1c-1.1-2.3-2.5-3.9-4.3-4.8c-1.8-0.9-3.7-0.9-5.7,0.1
		c-1,0.4-1.7,1.1-2.3,1.9c-0.6,0.8-1,1.7-1.1,2.7c-0.1,1,0.1,2.1,0.6,3.2c0.7,1.5,1.6,2.8,2.7,3.7c1,1,2.2,1.6,3.5,1.8
		c1.3,0.2,2.5,0.1,3.8-0.5C289.4,548.7,290.2,548.1,290.8,547.2z"/>
	<path class="st0" d="M492.4,526.9c-1-0.3-2-0.3-3-0.1c-1,0.2-1.8,0.7-2.6,1.4c-0.8,0.7-1.3,1.6-1.6,2.8c-0.5,1.6-0.6,3.2-0.5,4.6
		c0.1,1.4,0.6,2.6,1.4,3.7c0.8,1,1.8,1.7,3.2,2.1c1.1,0.3,2.2,0.4,3.2,0.1c1-0.3,1.9-0.8,2.6-1.5c0.7-0.8,1.3-1.7,1.6-2.8
		c0.7-2.5,0.7-4.6,0-6.5C496,528.8,494.6,527.6,492.4,526.9z"/>
	<path class="st0" d="M530.4,525.3c-30.9-14.2-82.4-22.2-130.4-22.2s-99.6,8-130.4,22.2c-30.9,14.2-33,24.7-36.7,59.3
		c-1.1,10-0.6,17.9,1.3,24.4c7.8-55.7,109.2-70.1,165.8-70.1s158,14.4,165.8,70.1c1.9-6.5,2.4-14.4,1.3-24.4
		C563.4,550,561.3,539.5,530.4,525.3z M299.5,550.4c-0.4,0.5-0.9,0.8-1.3,1c-0.7,0.3-1.4,0.5-2.1,0.6c-0.7,0.1-1.5,0-2.1-0.1
		c-0.7-0.1-1.5-0.2-2.5-0.4c-1-0.2-1.7-0.3-2.4-0.4c-0.6-0.1-1.2-0.1-1.8,0c-1.6,0.5-3.1,0.7-4.5,0.6c-1.5-0.1-2.8-0.6-3.9-1.4
		c-1.1-0.8-2-1.9-2.7-3.3c-0.6-1.4-0.9-2.8-0.7-4.4c0.2-1.5,0.8-3,1.8-4.3c1-1.3,2.2-2.3,3.7-3c1.9-0.9,3.7-1.3,5.4-1.3
		c1.7,0,3.2,0.5,4.4,1.3c1.3,0.8,2.2,2,2.9,3.4c0.6,1.3,0.9,2.6,0.8,3.9c-0.1,1.3-0.5,2.6-1.2,3.7c-0.7,1.2-1.7,2.2-2.9,3.1l0,0.1
		c0.8-0.2,1.5-0.3,2.2-0.2c0.7,0,1.5,0.2,2.5,0.3c0.4,0.1,0.8,0.2,1.4,0.3c1,0.1,1.9,0.1,2.4-0.2c0.2-0.1,0.4-0.2,0.6-0.4
		c0.2-0.2,0.4-0.3,0.4-0.3c0.1-0.1,0.3,0,0.4,0.1C300.2,549.5,299.9,549.9,299.5,550.4z M301.6,545.7c-1.1,0.3-2.2,0.7-3.3,1.2
		c-0.1-0.1-0.1-0.2-0.2-0.4c-0.1-0.2,0-0.4,0.1-0.5c0.7-0.3,1.1-0.6,1.3-0.8c0.2-0.2,0.2-0.5,0.1-0.8l-3.9-12.1
		c-0.1-0.3-0.3-0.5-0.6-0.6c-0.3-0.1-0.8,0-1.5,0.1c-0.2,0-0.3-0.1-0.4-0.3c-0.1-0.2-0.1-0.3-0.1-0.4c1.2-0.3,2.4-0.6,3.4-1
		c1-0.3,2.1-0.7,3.3-1.2l0.2,0.4c0.1,0.2,0,0.4-0.1,0.5c-0.7,0.3-1.1,0.6-1.3,0.8c-0.2,0.2-0.2,0.5-0.1,0.8l3.9,12.1
		c0.1,0.3,0.3,0.5,0.5,0.5c0.3,0.1,0.8,0,1.5-0.1c0.2,0,0.3,0.1,0.4,0.3l0.1,0.4C303.7,545,302.6,545.3,301.6,545.7z M322.4,539.9
		c-0.3,0.1-0.6,0-0.9-0.2l-15-9.3l2.6,11c0.1,0.3,0.3,0.5,0.5,0.6c0.3,0.1,0.8,0,1.7-0.1c0.2,0,0.4,0.1,0.4,0.3l0,0.4
		c-1.1,0.2-2.1,0.4-2.9,0.7c-1,0.3-2,0.6-2.9,0.9c-0.1-0.1-0.1-0.2-0.2-0.4c-0.1-0.2,0-0.4,0.2-0.5c0.7-0.3,1.1-0.6,1.4-0.8
		c0.2-0.2,0.3-0.5,0.2-0.8l-2.9-12.2c-0.1-0.3-0.2-0.4-0.5-0.5c-0.3-0.1-0.8-0.1-1.5,0.1c-0.2,0-0.4-0.1-0.4-0.3l0-0.4
		c1.7-0.4,2.8-0.6,3.3-0.8c0.6-0.2,1-0.2,1.2-0.3c0.2,0,0.4,0,0.5,0.1l13.2,8.2l-2.3-9.6c-0.1-0.3-0.3-0.5-0.6-0.6
		c-0.3-0.1-0.9,0-1.7,0.1c-0.2,0-0.4-0.1-0.5-0.3l0-0.4c1.1-0.2,2.1-0.4,3.1-0.7c0.9-0.2,1.8-0.5,2.8-0.9l0.2,0.4
		c0.1,0.3,0,0.4-0.2,0.5c-0.6,0.2-1.1,0.5-1.3,0.7c-0.2,0.2-0.3,0.5-0.2,0.8l3.4,14C322.7,539.8,322.6,539.9,322.4,539.9z
		 M340.9,535.7c-0.1,0.1-0.4,0.2-0.8,0.3c-1,0.3-2,0.6-2.8,0.7c-0.9,0.2-1.9,0.4-3,0.5c-2.2,0.3-4.1,0.2-5.7-0.2
		c-1.6-0.5-2.8-1.3-3.7-2.4c-0.9-1.1-1.4-2.5-1.6-4.2c-0.1-1.4,0.1-2.7,0.7-4.1c0.6-1.4,1.6-2.6,3-3.6c1.4-1,3.2-1.7,5.3-2
		c1.1-0.2,2.2-0.3,3.3-0.3c1.1,0,2.2,0,3.5,0.1c0.2,1.1,0.5,2.2,1.1,3.5c-0.2,0.1-0.3,0.1-0.6,0.2c-0.3,0-0.5,0-0.6-0.2
		c-0.5-1-1.2-1.7-2.1-2.1c-0.9-0.3-2.1-0.4-3.7-0.2c-2.4,0.3-4.1,1.2-5.2,2.6c-1.1,1.4-1.6,3.1-1.4,5.2c0.2,1.5,0.6,2.8,1.4,3.8
		c0.8,1.1,1.8,1.9,3,2.3c1.2,0.5,2.6,0.6,4.1,0.4c1-0.2,2-0.4,2.9-0.7l-0.4-3.7c0-0.4-0.2-0.7-0.6-0.8c-0.3-0.1-0.9-0.2-1.6-0.2
		c-0.1,0-0.2,0-0.3-0.1c-0.1-0.1-0.1-0.2-0.1-0.3l0-0.4c1.3-0.1,2.6-0.3,3.8-0.4c1.3-0.2,2.5-0.4,3.6-0.6c0,0.1,0.1,0.2,0.1,0.4
		c0,0.3-0.1,0.5-0.3,0.5c-0.6,0.2-1,0.3-1.3,0.5c-0.2,0.2-0.3,0.5-0.3,0.8l0.5,4.4C341,535.4,341,535.5,340.9,535.7z M356.1,532.6
		c-1.3,0.9-3,1.5-5,1.7l-5.6,0.5c-1,0.1-2.1,0.2-3.4,0.4c-0.1-0.1-0.1-0.3-0.1-0.5c0-0.2,0.1-0.3,0.3-0.4c0.7-0.2,1.2-0.4,1.4-0.6
		c0.3-0.2,0.4-0.4,0.3-0.7l-1.1-12.6c0-0.3-0.2-0.5-0.5-0.6c-0.3-0.1-0.8-0.2-1.5-0.2c-0.2,0-0.3-0.1-0.3-0.4c0-0.2,0-0.4,0-0.5
		c1.3,0,2.4-0.1,3.4-0.2l5.6-0.5c2-0.2,3.7,0,5.2,0.6c1.5,0.6,2.6,1.5,3.4,2.6c0.8,1.2,1.3,2.5,1.4,4c0.1,1.4-0.1,2.7-0.7,4
		C358.4,530.6,357.5,531.7,356.1,532.6z M377.2,531.3c-1.5,0.1-2.6,0.1-3.2,0.2c-1.3,0.1-2.5,0.3-3.6,0.5l-0.1-0.4
		c0-0.2,0.1-0.4,0.2-0.5c0.5-0.1,0.9-0.3,1.1-0.4c0.2-0.2,0.3-0.3,0.3-0.5c0-0.1-0.1-0.3-0.1-0.4l-2-3.8l-5.9,0.6l-1.2,4.1
		c-0.1,0.2-0.1,0.3-0.1,0.5c0,0.4,0.6,0.5,1.7,0.6c0.2,0,0.4,0.1,0.4,0.4c0,0,0,0.1,0,0.2c0,0.1,0,0.2,0,0.2c-1.2,0-2.2,0.1-3.1,0.2
		c-0.6,0.1-1.3,0.2-2.3,0.4c-0.1-0.1-0.1-0.3-0.1-0.4c0-0.3,0.1-0.4,0.3-0.5c0.6-0.2,1-0.3,1.2-0.5c0.3-0.2,0.4-0.4,0.5-0.6
		l4.8-15.2c0.1-0.3,0.3-0.5,0.5-0.5l0.4,0l8,14.3c0.3,0.4,0.9,0.6,1.8,0.6c0.2,0,0.4,0.1,0.4,0.4L377.2,531.3z M393.6,526.9
		c-0.8,1.3-1.8,2.4-3.2,3.2c-1.4,0.8-3,1.3-4.7,1.4c-1.8,0.1-3.4-0.1-4.8-0.7c-1.5-0.6-2.6-1.5-3.5-2.7c-0.9-1.2-1.4-2.7-1.5-4.3
		c-0.1-1.5,0.2-2.9,0.9-4.3c0.7-1.4,1.8-2.5,3.1-3.3c1.3-0.9,2.8-1.4,4.4-1.5c2-0.2,3.8,0.1,5.3,0.7c1.5,0.6,2.7,1.6,3.6,2.8
		c0.9,1.2,1.3,2.6,1.5,4.2C394.6,524,394.3,525.5,393.6,526.9z M432.2,529.3c-0.2,0.6-0.3,0.9-0.3,1.1c-0.1,0.4-0.2,0.7-0.3,0.9
		c-0.1,0.2-0.2,0.3-0.2,0.3c-0.1,0-0.2,0.1-0.3,0.1l-1.2-0.1c-1.4-0.1-2.1-0.1-2.1-0.1l-6-0.2c-1.1,0-2.2,0-3.5,0l0-0.2
		c-0.9,0-1.8-0.1-2.5-0.1c-0.4,0-0.8-0.1-1.2-0.4c-0.4-0.3-0.8-0.7-1.2-1.2l-4.5-5.8h-1.9v5.4c0,0.3,0.2,0.6,0.5,0.7
		c0.4,0.1,1,0.3,1.8,0.4c0.2,0,0.4,0.2,0.4,0.4l-0.1,0.4c-1.2-0.1-2.6-0.1-4.2-0.1c-1.1,0-2.3,0-3.6,0.1c0-0.2-0.1-0.3-0.1-0.4
		c0-0.2,0.1-0.4,0.3-0.4c0.8-0.1,1.3-0.2,1.6-0.4c0.3-0.1,0.4-0.4,0.4-0.7v-12.7c0-0.3-0.1-0.6-0.4-0.7c-0.3-0.1-0.8-0.3-1.6-0.3
		c-0.2,0-0.3-0.2-0.3-0.4c0-0.1,0-0.3,0.1-0.4c1.2,0.1,2.4,0.1,3.5,0.1h4c2,0,3.6,0.4,4.7,1.2c1.1,0.8,1.6,1.9,1.6,3.2
		c0,0.8-0.3,1.6-0.9,2.4c-0.6,0.8-1.5,1.4-2.7,1.7l4.7,5.8c0.3,0.4,0.6,0.7,1,0.8c0.4,0.2,0.8,0.3,1.4,0.4c0,0,0.1,0,0.1,0.1
		c0.3-0.1,0.6-0.1,0.8-0.2c0.3-0.1,0.4-0.3,0.4-0.7l0.3-12.4c0-0.3-0.1-0.5-0.3-0.6c-0.2-0.1-0.8-0.3-1.6-0.5
		c-0.1,0-0.2-0.1-0.2-0.1c0-0.1-0.1-0.2,0-0.3c0-0.1,0-0.3,0.1-0.4c1.3,0.1,2.4,0.2,3.4,0.2l5.4,0.2c0.5,0,1.1,0,1.6,0
		c0.5,0,0.9,0,1.1,0l0.7,0c0.2,0,0.3,0.1,0.4,0.3c0.1,0.2,0.1,0.5,0.2,0.9l0.1,0.6c0.1,0.8,0.3,1.5,0.5,1.9
		c-0.2,0.1-0.4,0.2-0.6,0.2c-0.2,0-0.3-0.1-0.4-0.3c-0.3-0.6-0.6-1.1-0.9-1.5c-0.3-0.3-0.6-0.6-1-0.8c-0.4-0.2-1-0.3-1.7-0.3
		l-3.9-0.1l-0.2,6.2l4.1,0.1c0.3,0,0.6-0.1,0.7-0.4c0.2-0.2,0.3-0.7,0.4-1.2c0.1-0.2,0.2-0.3,0.5-0.3c0.2,0,0.3,0,0.5,0.1
		c-0.1,0.8-0.2,1.6-0.2,2.5c0,0.8,0,1.5,0.1,2.4l-0.4,0c-0.3,0-0.5-0.1-0.5-0.3c-0.1-0.5-0.2-1-0.4-1.2c-0.2-0.3-0.4-0.4-0.7-0.4
		l-4.1-0.1l-0.1,5.7c0,0.3,0.2,0.6,0.7,0.7c0.5,0.1,1.3,0.2,2.4,0.3l1.4,0c1,0,1.7-0.2,2.3-0.6c0.6-0.4,1.1-1.1,1.6-2
		c0.1-0.1,0.2-0.2,0.4-0.2c0.1,0,0.4,0.1,0.7,0.3C432.6,528.3,432.4,528.8,432.2,529.3z M450.6,529.4c-0.7,1.2-1.8,2.1-3.3,2.8
		c-1.4,0.7-3.1,1-5.1,0.9l-5.6-0.3c-1-0.1-2.1-0.1-3.4-0.1c0-0.1-0.1-0.3-0.1-0.5c0-0.2,0.1-0.3,0.3-0.3c0.7-0.1,1.2-0.2,1.5-0.3
		c0.3-0.1,0.4-0.3,0.4-0.6l0.7-12.5c0-0.3-0.1-0.5-0.4-0.7c-0.3-0.2-0.7-0.3-1.4-0.5c-0.2,0-0.3-0.2-0.3-0.4c0-0.2,0-0.3,0.1-0.4
		c1.2,0.2,2.4,0.3,3.3,0.3l5.6,0.3c2,0.1,3.6,0.6,5,1.3c1.3,0.8,2.3,1.8,3,3.1c0.6,1.3,0.9,2.6,0.8,4.1
		C451.8,526.9,451.4,528.2,450.6,529.4z M471.1,537.4c-0.1,0-0.2,0.1-0.4,0l-1.1-0.2c-0.5-0.1-1-0.2-1.5-0.3l-6.7-0.8
		c-1.1-0.1-2.3-0.2-3.5-0.3c0-0.1,0-0.2,0-0.4c0-0.2,0.1-0.4,0.3-0.4c0.8,0,1.3-0.1,1.6-0.2c0.3-0.1,0.5-0.3,0.5-0.6l1.5-12.3
		c0-0.3-0.1-0.6-0.3-0.7c-0.2-0.2-0.7-0.3-1.4-0.5c-0.2,0-0.3-0.2-0.2-0.4l0.1-0.4c1.4,0.2,2.5,0.4,3.4,0.5c1.4,0.2,2.7,0.3,3.9,0.4
		l0,0.4c0,0.2-0.1,0.4-0.3,0.4c-0.8,0-1.4,0.1-1.8,0.2c-0.3,0.1-0.5,0.4-0.6,0.7l-1.5,12.1c0,0.3,0.1,0.5,0.4,0.7
		c0.3,0.2,0.8,0.3,1.4,0.4l2.5,0.3c1,0.1,1.7,0,2.3-0.4c0.6-0.4,1.1-1,1.6-1.9c0.1-0.1,0.2-0.2,0.4-0.2c0.1,0,0.2,0.1,0.4,0.1
		c0.1,0.1,0.2,0.1,0.2,0.2c-0.5,1.3-0.9,2.4-1.1,3.3C471.2,537.2,471.2,537.3,471.1,537.4z M479.7,524.4c-0.3,0.1-0.4,0.3-0.5,0.6
		l-1.8,12.3c0,0.3,0,0.5,0.3,0.7c0.2,0.2,0.7,0.4,1.5,0.6c0.2,0.1,0.3,0.2,0.2,0.4l-0.1,0.4c-1.4-0.3-2.6-0.5-3.7-0.7
		c-1.2-0.2-2.4-0.3-3.7-0.4c0-0.1,0-0.2,0-0.4c0-0.2,0.2-0.4,0.4-0.3c0.8,0,1.3-0.1,1.6-0.2c0.3-0.1,0.4-0.3,0.5-0.6l1.8-12.3
		c0-0.3,0-0.6-0.3-0.8c-0.2-0.2-0.7-0.4-1.5-0.6c-0.2,0-0.3-0.2-0.2-0.5c0-0.2,0.1-0.3,0.1-0.4c1.3,0.3,2.5,0.5,3.7,0.7
		c1.1,0.2,2.3,0.3,3.7,0.4l0,0.4c0,0.2-0.2,0.4-0.4,0.4C480.5,524.3,479.9,524.3,479.7,524.4z M497.5,540.8c-1.2,1-2.6,1.6-4.2,1.9
		c-1.6,0.3-3.3,0.2-5-0.3c-1.7-0.5-3.2-1.3-4.3-2.4c-1.2-1.1-1.9-2.4-2.3-3.9c-0.4-1.5-0.4-3,0.1-4.6c0.4-1.5,1.2-2.7,2.4-3.8
		c1.2-1,2.5-1.7,4.1-2.1c1.6-0.4,3.1-0.3,4.7,0.2c2,0.6,3.6,1.4,4.8,2.6c1.2,1.2,2,2.5,2.4,3.9c0.4,1.5,0.3,3-0.1,4.5
		C499.6,538.5,498.7,539.8,497.5,540.8z M515.8,550c-0.3-0.1-0.5-0.3-0.7-0.7l-7.9-16l-3.2,11.1c-0.1,0.3,0,0.6,0.2,0.8
		c0.2,0.2,0.7,0.5,1.4,0.8c0.2,0.1,0.3,0.3,0.2,0.5l-0.2,0.4c-1-0.4-2-0.7-2.8-1c-1-0.3-1.9-0.5-2.9-0.7c0-0.1,0-0.2,0.1-0.4
		c0.1-0.2,0.2-0.3,0.4-0.3c0.7,0.1,1.2,0.1,1.5,0c0.3-0.1,0.5-0.3,0.6-0.6l3.6-12.3c0.1-0.3,0-0.5-0.2-0.7c-0.2-0.2-0.6-0.4-1.3-0.7
		c-0.2-0.1-0.3-0.3-0.2-0.5l0.2-0.4c1.6,0.6,2.7,0.9,3.2,1.1c0.6,0.2,0.9,0.3,1.1,0.4c0.2,0.1,0.3,0.2,0.4,0.4l6.9,14.1l2.8-9.7
		c0.1-0.3,0-0.6-0.2-0.9c-0.2-0.2-0.7-0.5-1.5-0.8c-0.2-0.1-0.3-0.3-0.2-0.5l0.2-0.4c1,0.4,2,0.7,2.9,1c0.9,0.3,1.8,0.5,2.8,0.7
		l-0.1,0.4c-0.1,0.3-0.2,0.4-0.4,0.3c-0.7-0.1-1.1-0.1-1.4-0.1c-0.3,0.1-0.5,0.3-0.6,0.6l-4.1,14.1C516.2,550.1,516,550,515.8,550z
		 M534.6,544.1c-0.2,0-0.3-0.1-0.4-0.1c-0.3-0.1-0.5-0.4-0.5-0.7c0-1.1-0.2-1.9-0.7-2.6c-0.4-0.7-1.1-1.2-2.1-1.6
		c-0.8-0.4-1.6-0.5-2.3-0.3c-0.7,0.1-1.2,0.6-1.6,1.2c-0.3,0.7-0.3,1.4,0.1,2.1c0.4,0.7,1.2,1.6,2.3,2.7c1.3,1.3,2.1,2.4,2.6,3.5
		c0.4,1,0.4,2.1-0.1,3.2c-0.6,1.3-1.5,2.2-2.8,2.7c-1.3,0.4-2.8,0.3-4.7-0.6c-1-0.4-1.8-0.9-2.6-1.5c-0.8-0.6-1.3-1.2-1.8-1.7
		c0.4-1.1,0.8-2.4,1.1-4c0.2,0,0.4,0,0.5,0.1c0.2,0.1,0.3,0.2,0.4,0.3c0.1,0.1,0.1,0.3,0.1,0.5c-0.1,1.4,0.1,2.4,0.5,3.2
		c0.4,0.8,1.2,1.5,2.3,2c1,0.4,1.9,0.5,2.6,0.3c0.7-0.3,1.3-0.8,1.6-1.5c0.3-0.8,0.3-1.5,0-2.2c-0.3-0.7-1-1.5-1.9-2.4
		c-0.9-0.8-1.6-1.6-2.1-2.2c-0.5-0.7-0.8-1.4-0.9-2.1c-0.1-0.7,0-1.6,0.4-2.4c0.4-0.8,0.9-1.4,1.6-1.9c0.7-0.5,1.5-0.7,2.4-0.7
		c0.9,0,1.8,0.2,2.8,0.6c0.7,0.3,1.4,0.7,2.1,1.2c0.6,0.5,1.3,1,2,1.7C535.2,542,534.9,543.1,534.6,544.1z"/>
	<path class="st0" d="M400,81L320.3,145l-44.2-34.7L194.6,159v286.5c4.1-4.2,9.4-8.1,16.7-12.2V168.4l63.4-37.9l45.6,35.8l79.6-64
		l79.6,64l45.6-35.8l63.4,37.9v264.9c7.3,4.1,12.6,8,16.7,12.2V159l-81.4-48.7L479.7,145L400,81z"/>
	<path class="st0" d="M563.6,607c-0.1-0.3-0.1-0.6-0.2-0.9c-0.1-0.4-0.2-0.9-0.3-1.3c-0.1-0.4-0.2-0.8-0.3-1.1
		c-0.1-0.3-0.2-0.7-0.3-1c-0.1-0.4-0.3-0.9-0.4-1.3c-0.1-0.3-0.2-0.5-0.3-0.8c-0.2-0.5-0.3-0.9-0.5-1.4c-0.1-0.2-0.2-0.4-0.2-0.6
		c-0.2-0.5-0.4-1-0.6-1.5c-0.1-0.2-0.1-0.3-0.2-0.4c-0.2-0.5-0.5-1.1-0.8-1.6c0-0.1-0.1-0.2-0.1-0.3c-0.3-0.6-0.6-1.2-0.9-1.7
		c0,0,0,0,0,0l0,0c-3.5-6.2-8.5-11.9-15-17.1c-10.5-8.4-24.9-15.5-42.8-21.2c-27.9-8.8-65.5-14.1-100.7-14.1
		c-35.1,0-72.8,5.3-100.7,14.1c-17.9,5.7-32.3,12.8-42.8,21.2c-6.5,5.2-11.5,10.9-15,17.1l0,0c0,0,0,0,0,0c-0.3,0.6-0.6,1.2-0.9,1.8
		c0,0.1-0.1,0.2-0.1,0.3c-0.3,0.5-0.5,1.1-0.8,1.6c-0.1,0.1-0.1,0.3-0.2,0.4c-0.2,0.5-0.4,1-0.6,1.5c-0.1,0.2-0.2,0.4-0.2,0.6
		c-0.2,0.5-0.4,0.9-0.5,1.4c-0.1,0.3-0.2,0.5-0.3,0.8c-0.1,0.4-0.3,0.9-0.4,1.3c-0.1,0.3-0.2,0.7-0.3,1c-0.1,0.4-0.2,0.8-0.3,1.1
		c-0.1,0.4-0.2,0.9-0.3,1.3c-0.1,0.3-0.1,0.6-0.2,0.9c-0.1,0.7-0.3,1.5-0.4,2.2l-0.4,2.6l0,0l-0.1,1c4.1,9.7,12,15.9,23.6,21.6
		c15.2,12.9,30,22.7,40.3,28.9c38.5,23.1,80.5,47.4,100.6,58.9c20.1-11.5,62.1-35.8,100.6-58.9c10.3-6.2,25.1-15.9,40.3-28.9
		c11.6-5.7,19.5-12,23.6-21.6l-0.5-3.5C563.9,608.5,563.8,607.8,563.6,607z M492,648.9c-33.5,20.1-69.5,41-92,54
		c-22.6-13-58.6-33.9-92-54c-11-6.6-30.4-19.3-48.8-36.9c-0.4-5.8,0.9-12,5.4-17.9c16.7-22.2,60.8-38,135.4-38s118.7,15.7,135.4,38
		c3.2,4.2,4.8,8.5,5.3,12.7c-76.4-18.7-124-15.7-140.6-14.9c-17.8,0.8-62.2,8.9-93.3,12.3c-18.9,2.1-36.4,2.7-47.3,2.9
		c7.4,7.6,15.2,14.3,22.6,20.2c53-3.9,116.4-21.8,171.3-19c35.4,1.8,60.6,6.6,75.4,10.2c4.1-3.6,8.1-7.4,12.1-11.4
		c0.2,1.7,0.2,3.3,0.1,4.9C522.4,629.6,503,642.3,492,648.9z"/>
	<path class="st0" d="M543.4,486.6c0,0-54.9-22.9-141.8-22.9l1.2,28.1c0,0,97.1,3.5,139.9,22.4L543.4,486.6z"/>
	<path class="st0" d="M602.2,516.1c-0.2-0.2-0.5-0.5-0.7-0.7c-0.5-0.5-1-0.9-1.5-1.4c-0.2-0.2-0.5-0.4-0.7-0.6
		c-0.5-0.5-1.1-1-1.6-1.4c-0.1-0.1-0.2-0.1-0.2-0.2c-2-1.7-4.1-3.4-6.3-5c0,0-0.1-0.1-0.1-0.1C542.4,471.4,449.2,459,400,459
		c-49.2,0-142.4,12.4-190.9,47.7c0,0-0.1,0.1-0.1,0.1c-2.2,1.6-4.3,3.3-6.3,5c-0.1,0.1-0.2,0.1-0.2,0.2c-0.6,0.5-1.1,1-1.6,1.4
		c-0.2,0.2-0.5,0.4-0.7,0.6c-0.5,0.4-1,0.9-1.5,1.4c-0.3,0.2-0.5,0.5-0.7,0.7c-8.6,8.3-14.8,17.7-17.8,28.2l-1,3.3
		c0.1,0.3,0.2,0.7,0.3,1c4.4,14,15,25.2,34.3,33.8c5.4,9,11.6,17.4,18.2,25.1c-1.6-6.4-1.8-14-0.9-23.1c0.2-1.7,0.4-3.3,0.5-4.9
		c-8.7-13.2-14.6-26.6-17.7-40.1c0.9-2.4,2.1-4.7,3.5-7.1c15.4-25.3,62.7-52.7,182.6-52.7c0.1,0,0.3,0,0.4,0l-0.8-17.8h1.9
		c86.2,0,141.9,22.9,142.5,23.1l1.2,0.5l-0.4,16.8c19.8,9,31.4,19.7,37.7,30.1c1.4,2.4,2.6,4.7,3.5,7.1c-3.1,13.5-9,26.9-17.7,40.1
		c0.2,1.6,0.4,3.2,0.5,4.9c1,9.1,0.7,16.7-0.9,23.1c6.6-7.7,12.8-16.1,18.2-25.1c19.4-8.6,29.9-19.8,34.3-33.8
		c0.1-0.3,0.2-0.6,0.3-1l-1-3.3C616.9,533.7,610.7,524.4,602.2,516.1z"/>
	<path class="st0" d="M528.4,522.4l12.3-7c-40.6-17.3-128.4-21.3-137.2-21.7l2.7,7.6C453.3,501.9,499.3,509.8,528.4,522.4z"/>
</g>
</svg>
