<?xml version="1.0" encoding="utf-8"?>
<!-- Created by @FCLOGO 2023-10-5 GMT+8 20:19:50 . https://fclogo.top/ -->
<!-- FOR PERSONAL USE ONLY NOT FOR COMMERCIAL USE -->
<svg version="1.1" xmlns="http://www.w3.org/2000/svg" xmlns:xlink="http://www.w3.org/1999/xlink" x="0px" y="0px"
	 viewBox="0 0 800 800" style="enable-background:new 0 0 800 800;" xml:space="preserve">
<style type="text/css">
	.st0{fill:#EFDD21;}
	.st1{fill:#9A1E28;}
	.st2{fill:#E20238;}
	.st3{fill:#73313F;}
	.st4{fill:#EEE468;}
</style>
<g>
	<g>
		<path class="st0" d="M522.1,81.1l-42.2,33.1L400,50l-79.9,64.2l-42.2-33.1l-107.4,64.2c0,0,0,295.5,0,372S233.5,651.9,287,684
			s113,66,113,66s59.5-33.9,113-66s116.5-90.1,116.5-166.7c0-76.5,0-372,0-372L522.1,81.1z"/>
		<path class="st1" d="M400,722.2c-20.1-11.5-62.1-35.8-100.6-58.9c-31.5-18.9-104.7-70.9-104.7-146V159l81.4-48.7l44.2,34.7L400,81
			l79.7,64.1l44.2-34.7l81.4,48.7v358.3c0,75-73.3,127.1-104.7,146C462.1,686.4,420.1,710.7,400,722.2z"/>
		<path class="st0" d="M400,702.9c-22.6-13-58.6-33.9-92-54c-13.4-8-39-25-60.4-48.8c-24.1-26.8-36.3-54.7-36.3-82.9V168.4
			l63.4-37.9l45.6,35.8l79.6-64l79.6,64l45.6-35.8l63.4,37.9v348.9c0,28.2-12.2,56.1-36.3,82.9c-21.3,23.7-47,40.8-60.4,48.8
			C458.5,669,422.6,689.9,400,702.9z"/>
	</g>
	<g>
		<g>
			<path class="st1" d="M616.7,472.8c-4.7-21.2-11.9-31.5-48.7-47.5c-36.7-16-116-25-168.1-25s-131.3,9-168.1,25
				c-36.7,16-43.9,26.3-48.7,47.5c-4.7,21.2-8.6,60.7-3.9,75.7c4.7,15,16.5,26.7,38.5,35.6c0,0-15.8-26.5-0.4-51.9
				s62.7-52.7,182.6-52.7s167.1,27.4,182.6,52.7c15.5,25.3-0.4,51.9-0.4,51.9c22-8.8,33.7-20.6,38.5-35.6
				C625.4,533.5,621.5,494,616.7,472.8z"/>
			<path class="st2" d="M616.7,472.8c-4.7-21.2-11.9-31.5-48.7-47.5c-36.7-16-116-25-168.1-25s-131.3,9-168.1,25
				c-36.7,16-43.9,26.3-48.7,47.5c-4.3,19.2-7.9,53.5-5,70.9c18.8-65.6,157.1-86.7,221.7-86.7s202.9,21.1,221.7,86.7
				C624.6,526.3,621,492.1,616.7,472.8z"/>
		</g>
		<g>
			<path class="st3" d="M401.6,464.6l1.2,27.2l6.4,18.3L518.5,528l24.3-13.8l0.6-27.6C543.4,486.6,488.4,464.6,401.6,464.6z"/>
			<path class="st2" d="M543.4,486.6c0,0-54.9-22.9-141.8-22.9l1.2,28.1c0,0,97.1,3.5,139.9,22.4L543.4,486.6z"/>
		</g>
		<g>
			<path class="st1" d="M567.1,584.6c-3.7-34.6-5.9-45.1-36.7-59.3c-30.9-14.2-82.4-22.2-130.4-22.2s-99.6,8-130.4,22.2
				c-30.9,14.2-33,24.7-36.7,59.3s10.8,44.4,41.7,56.5c0,0-26.5-24.7-9.9-46.9s60.8-38,135.4-38s118.7,15.7,135.4,38
				s-9.9,46.9-9.9,46.9C556.3,629,570.8,619.1,567.1,584.6z"/>
			<path class="st2" d="M567.1,584.6c-3.7-34.6-5.9-45.1-36.7-59.3c-30.9-14.2-82.4-22.2-130.4-22.2s-99.6,8-130.4,22.2
				c-30.9,14.2-33,24.7-36.7,59.3c-1.1,10-0.6,17.9,1.3,24.4c7.8-55.7,109.2-70.1,165.8-70.1s158,14.4,165.8,70.1
				C567.8,602.5,568.2,594.6,567.1,584.6z"/>
		</g>
		<g>
			<path class="st1" d="M540.9,606.9c-4,4.1-8.2,8-12.3,11.6c-14.8-3.6-39.9-8.4-75.4-10.2c-54.8-2.8-118.3,15.2-171.3,19
				c-7.4-5.9-15.1-12.6-22.6-20.2c10.9-0.1,28.5-0.8,47.3-2.9c31.1-3.5,75.4-11.5,93.3-12.3C416.6,591.2,464.3,588.1,540.9,606.9z"
				/>
			<path class="st1" d="M516.9,628.3c-5.9,4.6-11.5,8.6-16.5,12.1c-11.4-1.3-26.5-2.5-41.9-2.7c-31.2-0.3-59.6,3.4-96,10.8
				c-14,2.8-28.6,4.5-41.1,5.5c-2.7-1.7-5.5-3.3-8.3-5c-5.2-3.1-12.3-7.6-20.2-13.3c11.7-0.4,28.3-1.4,44.9-4.1
				c30.9-4.9,67.6-11.4,102.2-11.1C466,620.6,495.8,624.3,516.9,628.3z"/>
			<path class="st1" d="M486.9,648.9c-8.3,5-16.4,10-24.3,15l0,0c-6.4-0.1-13.8,0.1-22,0.6c-23.6,1.5-55.1,8.1-82.8,12.2
				c-8.5-5.4-17.5-11.1-26.8-16.9c9.3-1,20.7-2.3,29.1-3.7C375.5,653.6,427.5,642,486.9,648.9z"/>
		</g>
	</g>
	<path class="st1" d="M358.9,197.2c0,0,5.1-1.1,21.3-11c16.2-9.9,29.2-14.5,46-14.2s28.9,3.9,40.1,9.9c11.3,6,25.5,18.2,30.4,28.4
		c0,0-24.7-10.5-36.1-13.4s-32.9-6.6-46.3,2.9c0,0,5.4-0.6,9.6-1.2c4.2-0.6,16.4-2.9,29,0.9c12.7,3.9,28.7,9.6,41.4,18.1
		c12.7,8.5,15.9,15.9,18.5,29.6c0,0-15.7-9.7-25.3-12.3c0,0,2.6,2.8,5.9,5.1s11.1,8.5,16,13.1S519.9,265,525,271s9.9,12.8,29.2,6.9
		c0,0-4.9,10-17.7,13.7s-17.9,1.2-28.9-2.8c0,0,1.2,2.2,4.9,9.3c3.7,7.1,8.6,20.2-18.2,35.6c-26.9,15.4-35.5,18.7-33.5,34.6
		c0,0-12.2-3.4-7.3-19.1c4.9-15.7,5.9-18.7,5.9-18.7s-13.1,15-15.7,30.4s2.6,23.8,13.9,33c0,0-19.1,2.6-37-9.4s-21.5-19.9-3.2-48.1
		c0,0-19.8,14.7-19.3,30.2c0.5,11,19.4,24.2,19.4,24.2s-6.5,2.6-22.2-2.8s-16.7-5.2-19.9-21.8c0,0-6.5,4.8,0.8,26.9
		c0,0-35.6-7.6-51.5-31.8c0,0,4-1.9,7.1-4.2c0,0-7.3-10-9.6-15.9c0,0,4.5,1.2,7.1,1.7c0,0-0.2-6.2-0.4-10.3c-0.2-4.1,5-10,5-14.3
		s-7.1-24.1-20.4-27.5c0,0,0,9.6,1.7,14c0,0-11.9-3.4-17.8-11.5s-5.7-7.9-8.6-10.2c-2.9-2.3-4.2-4.6-4.9-7.9c-0.8-3.2-1.1-8-4-10.2
		s-5.6-4-5.7-6.9c-0.2-2.9-0.6-3.3,2.5-5.7s15.9-12,19.3-13.5s15.2-5.6,15.8-8.8s1.6-6.1,3.7-7.8s5.5-3.8,4.8-5.1
		c-0.6-1.3-2.2-3.3-3.4-5.6c-1.2-2.3-10.7-18.3,12.8-23.7c0,0-8.3,10-5.7,14.7c0,0,3-3.9,5.1-7.4c2.2-3.5,6.7-11.4,13.2-13.7
		s17.3-4.4,25.1-6.1c7.8-1.6,22.4-3.9,33.3-17.6c0,0-1.3,14.3-10.1,19.1c-8.7,4.8-17,8.3-19.8,10.1
		C368.1,188.9,360.8,194.1,358.9,197.2z"/>
	<g>
		<path class="st4" d="M480.8,259.1c0,0-8.8-24.7-35.2-33.1c0,0,9.9,10.1,9.9,12.3c0,0-17.7-2.3-26.5,1c0,0,18.1,1.4,29.2,6.4
			C469.3,250.6,480.8,259.1,480.8,259.1z"/>
		<path class="st4" d="M378.7,210.3c0,0,25.5,3.1,47.3-1c0,0,1.6,29-26.1,26.3c0,0,11.3-5.6,13.3-11.1c0,0-4.1,0.4-7.8,0.2
			c0,0,5.6-3.3,8.8-7.2c0,0-13.4,2.3-19.3,2.3S385.9,216.3,378.7,210.3z"/>
		<path class="st4" d="M389.6,246.3c0,0,7.5,9.3,10.4,11.3c2.8,2.1,6.7,4.5,26.5,10.3s33.5,9.5,44.7,14.6
			c11.1,5.1,21.4,11.7,21,20.4c-0.4,8.6-8.4,16.9-13.6,19.1c0,0,4.7-11.9,4.3-17.5c-0.4-5.6-3.5-11.1-17.1-16s-27.2-9.5-40.7-13.4
			S391.7,264.8,389.6,246.3z"/>
		<path class="st4" d="M413.7,290.7c0,0,13.9,5.9,18.5,15.4c4.6,9.6,3.4,14.8,1.5,23.1c0,0,13.6-9.3,5.9-25.9
			C433.5,289.8,413.7,290.7,413.7,290.7z"/>
		<path class="st4" d="M362.5,275.6c0,0,15.1,14.2,21.6,59.3c0,0,4.9-6.8,8-20.1s5.6-26.5-9.6-41c0,0,4.6,17.6,4.9,27.2
			C387.5,300.9,377.9,282.1,362.5,275.6z"/>
		<path class="st4" d="M282,253.9c24.9-22.2,39.2-17.8,39.2-17.8s-17.8,6.7-14.4,7.1c3.4,0.4,5.2-1.2,14.4-1
			c1.9,3.5,19.7,12.6,30,0.2c-1.2-1-22.1,9-21.6-4.4c15.5,4.8,26-5.4,26-5.4s-16-5.6-27.1,0.5c0-3.1,1.6-9.1,1.6-9.1
			s-2.5,0.7-7.6,7.2c-0.5-0.8,0.5-5.5,0.5-5.5s-1.2,0-5.8,3.4c2-9.5,21-15.7,21-15.7s-1.6,5.4-1.3,6.4c0,0,8.3-7.5,18.6-7.5
			c5.8,0,15.8,6.8,21.7,16.3c0,0.4-18.1-5.9-18.1-5.9s14.7,13.3,14.4,24.2c-0.2,9.9-13.6,18.4-19.4,18.6c-5.8,0.3-16-5.9-19.6-5.6
			c1,2.6,1.7,2.5,4.7,7C324.8,254.7,325,256,325,256s6.5,10.4,6.3,13.6c-0.1,2.3-8.9,12.1-16.8,12.1c-4.9,0-12.1,0-16.3,0
			c-4.1,0-10-4.6-9.9-9.3c0.1-4.7,4.9-7.4,8.8-9.1c3.8-1.8,10.7-7.1,10.7-7.1S298,255,282,253.9z"/>
		<path class="st4" d="M356.9,335.2c0,0,6.2,4.7,5,28.1c-6.9-8.3-6.3-7-6.3-7s-2.7,12.5,2.7,24.5c-15.8-3.9-21.8-15.1-21.8-15.1
			s7.8,1.9,13.1,3.5c1.1,0.3-5.4-7.8-5.4-7.8s5.2-2,8.9-10.2C356.9,342.8,356.9,335.2,356.9,335.2z"/>
		<path class="st4" d="M336.1,324.6l4,2.9c0,0-3.5,6.7-1.1,10.3c2.7-3.2,6.5-7.2,6.5-7.2l5.6,4.9l-3.5,12.1c0,0-14.2-1.8-14.9-6.7
			C331.5,333.1,336.1,324.6,336.1,324.6z"/>
		<path class="st4" d="M364.5,336.4c0,0-6.8-16.5-14.8-29.6c-8-13.2-10.9-15.6-15.4-18.7s-4.7-4.6-2.5-4.4s6.5,0.8,10.2,2.2
			c0,0-0.3-3.1-6-6.6c0,0,2.9-1.4,7.1-1.1c0,0-1.7-2.9-5.1-5.9C337.9,272.2,362,274.4,364.5,336.4z"/>
	</g>
	<g>
		<g>
			<path class="st0" d="M327.2,427.2l0.4,2.9l-49.3,7l-0.4-2.9l20.4-2.9l-0.6-4.2l-17.5,2.5l-0.4-2.9l17.5-2.5l-0.6-4.1l-18.9,2.7
				l-0.4-3l18.9-2.7l-0.5-3.6l8.6-1.2l0.5,3.6l18.9-2.7l0.4,2.9l-18.9,2.7l0.6,4.1l17.5-2.5l0.4,2.9l-17.5,2.5l0.6,4.2L327.2,427.2z
				 M322.5,434.3c0.9-0.1,1.8,0.1,2.5,0.6s1.2,1.2,1.3,2.2l2.8,18.6c0.1,0.9-0.1,1.7-0.6,2.4c-0.5,0.7-1.3,1.1-2.2,1.3l-13.4,1.9
				l-2.1-2.7l8.9-1.3c0.2,0,0.4-0.1,0.5-0.3c0.1-0.2,0.2-0.4,0.2-0.6l-0.5-3.5l-27.1,3.9l1.1,7.3l-8.6,1.2l-3.2-21.8
				c-0.1-0.9,0.1-1.7,0.6-2.4c0.5-0.7,1.3-1.1,2.2-1.3L322.5,434.3z M291.3,441.7c-0.2,0-0.4,0.1-0.5,0.3c-0.1,0.2-0.2,0.4-0.2,0.6
				l0.5,3.6l27.1-3.9l-0.5-3.6c0-0.2-0.1-0.4-0.3-0.5c-0.2-0.1-0.4-0.2-0.6-0.2L291.3,441.7z M319.4,449.9l-0.7-4.5l-27.1,3.9
				l0.7,4.5L319.4,449.9z"/>
			<path class="st0" d="M388.8,430c1-0.1,1.9,0.2,2.6,0.9c0.7,0.6,1.1,1.4,1.2,2.3l1,17.6c0.1,1-0.3,1.8-0.9,2.5
				c-0.7,0.7-1.5,1.1-2.5,1.1l-11.9,0.7l-1.3-2.3l-30.2,1.7c-1,0.1-1.8-0.2-2.4-0.8c-0.7-0.6-1-1.3-1.1-2.3l-0.7-12.3l8.7-0.5
				l0.7,11.8c0,0.2,0.1,0.4,0.3,0.5c0.2,0.1,0.4,0.2,0.6,0.2l4.9-0.3L357,437l8.7-0.5l0.8,13.8l4.7-0.3c0.2,0,0.4-0.1,0.6-0.3
				c0.2-0.2,0.2-0.4,0.2-0.6l-0.7-11.8l8.7-0.5l0.7,12.3c0,0.6-0.1,1.1-0.3,1.6c-0.2,0.5-0.5,0.9-0.9,1.2l4.6-0.3
				c0.3,0,0.5-0.1,0.6-0.3c0.2-0.2,0.3-0.4,0.2-0.7L384,434c0-0.3-0.1-0.5-0.3-0.6c-0.2-0.1-0.4-0.2-0.7-0.2l-33.5,1.8
				c-1,0.1-1.8-0.2-2.5-0.8c-0.7-0.6-1-1.3-1.1-2.2l-0.9-17.2c0-0.9,0.2-1.6,0.8-2.3c0.6-0.7,1.4-1,2.3-1.1l6.7-0.4l1.9-4.5l8.7-0.5
				l-1.9,4.5l22.9-1.3c0.7,0,1.4,0.2,1.9,0.6s0.8,1,0.8,1.7l0.7,12.1c0,0.7-0.2,1.3-0.6,1.8c-0.5,0.5-1.1,0.8-1.8,0.8l-11.3,0.6
				l-1.6-2.9l5.6-0.3c0.3,0,0.5-0.1,0.7-0.3c0.2-0.2,0.3-0.4,0.2-0.7l-0.5-9.4c0-0.2-0.1-0.5-0.3-0.6c-0.2-0.2-0.4-0.2-0.7-0.2
				l-24.9,1.4c-0.3,0-0.5,0.1-0.7,0.3c-0.2,0.2-0.2,0.4-0.2,0.6l0.9,15.8c0,0.3,0.1,0.5,0.3,0.7c0.2,0.2,0.4,0.2,0.7,0.2L388.8,430z
				 M359.2,417.7l8.7-0.5l5,10.1l-8.7,0.5L359.2,417.7z"/>
			<path class="st0" d="M421,418.1l8.5,0.5l-14,20.7c-0.2,0.3-0.2,0.6,0,0.9s0.5,0.4,0.9,0.3l11.1-2.2l-0.2,3l-15.9,3.2
				c-1.1,0.2-2.1,0.2-2.9-0.1c-0.8-0.3-1.4-0.7-1.9-1.3c-0.4-0.6-0.6-1.3-0.6-2.1c0-0.8,0.3-1.6,0.9-2.4l7.9-11.4l-3.7,0.4
				c-1,0.1-1.8,0-2.5-0.3s-1.2-0.7-1.5-1.2s-0.5-1.1-0.5-1.8c0-0.7,0.2-1.3,0.6-2l10.4-17.2l8.5,0.5l-11,17.4
				c-0.2,0.3-0.2,0.5,0,0.7c0.1,0.2,0.4,0.3,0.7,0.3l1.3-0.1L421,418.1z M405.1,451l22-3.4l-0.2,3l-22,3.5L405.1,451z M456.9,453.2
				l-0.2,3l-29.4-1.8l0.2-3l10.3,0.6l2.5-41.7l-9.2-0.6l0.2-3l27.2,1.6l-0.2,3l-9.2-0.6l-2.5,41.7L456.9,453.2z"/>
			<path class="st0" d="M481.9,415.9l4.2-2.3l-0.5,3.5l-3.4,1.8l0.4,3c0.1,0.4,0.1,0.9,0.1,1.3s0,0.9-0.1,1.3l-4.2,32
				c-0.1,1.1-0.6,1.9-1.5,2.5s-1.8,0.9-2.9,0.7l-5.7-0.7l-1.3-3.2l2.6,0.3c0.4,0,0.7,0,1-0.2s0.5-0.5,0.5-0.9l1.9-14.7l-4.6,2.6
				l0.5-3.5l4.6-2.6l1.8-14.1v-0.1l-4.6,2.5l0.5-3.5l3.8-2.1l-1.3-10l7.3,1L481.9,415.9z M486.3,453.6L482,453l5-38.1l4.3,0.6
				L486.3,453.6z M493.2,412.2l6.3,0.8l-5.6,42.7c-0.1,0.9-0.5,1.6-1.1,2.2s-1.4,1-2.3,1.2l-7.6,1.9l0.4-2.9l2.9-0.6
				c0.8-0.2,1.2-0.6,1.3-1.3L493.2,412.2z M516.3,418.6l-1,7.8l4.3,0.6c1,0.1,1.7,0.5,2.3,1.3c0.6,0.7,0.8,1.5,0.7,2.4l-3.1,23.5
				c-0.1,0.9-0.5,1.6-1.3,2.2c-0.7,0.5-1.6,0.8-2.5,0.6l-3.6-0.5l-0.8-2l-1.3,9.9l-6.9-0.9l4.6-35.2l-0.8-0.1c-0.3,0-0.6,0-0.9,0.2
				s-0.4,0.5-0.5,0.8l-3.4,25.9l-6.1-0.8l3.5-26.5c0.1-1,0.6-1.8,1.4-2.4s1.8-0.8,3-0.7l3.7,0.5l1-7.8l-7.5-1l0.4-2.9l22.9,3
				l-0.4,2.9L516.3,418.6z M516.5,430.8c0-0.3,0-0.7-0.2-0.9c-0.2-0.3-0.5-0.4-0.9-0.5l-0.8-0.1l-3.2,24.2l0.8,0.1
				c0.4,0,0.7,0,1-0.2s0.4-0.5,0.5-0.8L516.5,430.8z"/>
		</g>
		<g>
			<path class="st0" d="M296,552c-0.7,0.1-1.5,0-2.1-0.1c-0.7-0.1-1.5-0.2-2.5-0.4s-1.7-0.3-2.4-0.4c-0.6-0.1-1.2-0.1-1.8,0
				c-1.6,0.5-3.1,0.7-4.5,0.6c-1.5-0.1-2.8-0.6-3.9-1.4c-1.1-0.8-2-1.9-2.7-3.3c-0.6-1.4-0.9-2.8-0.7-4.4c0.2-1.5,0.8-3,1.8-4.3
				s2.2-2.3,3.7-3c1.9-0.9,3.7-1.3,5.4-1.3c1.7,0,3.2,0.5,4.4,1.3c1.3,0.8,2.2,2,2.9,3.4c0.6,1.3,0.9,2.6,0.8,3.9
				c-0.1,1.3-0.5,2.6-1.2,3.7c-0.7,1.2-1.7,2.2-2.9,3.1v0.1c0.8-0.2,1.5-0.3,2.2-0.2c0.7,0,1.5,0.2,2.5,0.3c0.4,0.1,0.8,0.2,1.4,0.3
				c1,0.1,1.9,0.1,2.4-0.2c0.2-0.1,0.4-0.2,0.6-0.4s0.4-0.3,0.4-0.3c0.1-0.1,0.3,0,0.4,0.1c-0.1,0.5-0.4,0.9-0.8,1.4s-0.9,0.8-1.3,1
				C297.5,551.7,296.8,551.9,296,552z M290.8,547.2c0.6-0.9,0.9-1.8,1-2.9c0.1-1-0.1-2.1-0.6-3.1c-1.1-2.3-2.5-3.9-4.3-4.8
				c-1.8-0.9-3.7-0.9-5.7,0.1c-1,0.4-1.7,1.1-2.3,1.9c-0.6,0.8-1,1.7-1.1,2.7s0.1,2.1,0.6,3.2c0.7,1.5,1.6,2.8,2.7,3.7
				c1,1,2.2,1.6,3.5,1.8s2.5,0.1,3.8-0.5C289.4,548.7,290.2,548.1,290.8,547.2z"/>
			<path class="st0" d="M298.1,546.5c-0.1-0.2,0-0.4,0.1-0.5c0.7-0.3,1.1-0.6,1.3-0.8c0.2-0.2,0.2-0.5,0.1-0.8l-3.9-12.1
				c-0.1-0.3-0.3-0.5-0.6-0.6c-0.3-0.1-0.8,0-1.5,0.1c-0.2,0-0.3-0.1-0.4-0.3s-0.1-0.3-0.1-0.4c1.2-0.3,2.4-0.6,3.4-1
				c1-0.3,2.1-0.7,3.3-1.2l0.2,0.4c0.1,0.2,0,0.4-0.1,0.5c-0.7,0.3-1.1,0.6-1.3,0.8c-0.2,0.2-0.2,0.5-0.1,0.8l3.9,12.1
				c0.1,0.3,0.3,0.5,0.5,0.5c0.3,0.1,0.8,0,1.5-0.1c0.2,0,0.3,0.1,0.4,0.3l0.1,0.4c-1.3,0.3-2.4,0.7-3.4,1c-1.1,0.3-2.2,0.7-3.3,1.2
				C298.2,546.8,298.1,546.7,298.1,546.5z"/>
			<path class="st0" d="M321.4,539.7l-15-9.3l2.6,11c0.1,0.3,0.3,0.5,0.5,0.6c0.3,0.1,0.8,0,1.7-0.1c0.2,0,0.4,0.1,0.4,0.3v0.4
				c-1.1,0.2-2.1,0.4-2.9,0.7c-1,0.3-2,0.6-2.9,0.9c-0.1-0.1-0.1-0.2-0.2-0.4s0-0.4,0.2-0.5c0.7-0.3,1.1-0.6,1.4-0.8
				c0.2-0.2,0.3-0.5,0.2-0.8l-2.9-12.2c-0.1-0.3-0.2-0.4-0.5-0.5s-0.8-0.1-1.5,0.1c-0.2,0-0.4-0.1-0.4-0.3v-0.4
				c1.7-0.4,2.8-0.6,3.3-0.8c0.6-0.2,1-0.2,1.2-0.3c0.2,0,0.4,0,0.5,0.1l13.2,8.2L318,526c-0.1-0.3-0.3-0.5-0.6-0.6
				c-0.3-0.1-0.9,0-1.7,0.1c-0.2,0-0.4-0.1-0.5-0.3v-0.4c1.1-0.2,2.1-0.4,3.1-0.7c0.9-0.2,1.8-0.5,2.8-0.9l0.2,0.4
				c0.1,0.3,0,0.4-0.2,0.5c-0.6,0.2-1.1,0.5-1.3,0.7c-0.2,0.2-0.3,0.5-0.2,0.8l3.4,14c-0.2,0.1-0.3,0.1-0.5,0.2
				C322.1,540,321.8,539.9,321.4,539.7z"/>
			<path class="st0" d="M328.5,537c-1.6-0.5-2.8-1.3-3.7-2.4c-0.9-1.1-1.4-2.5-1.6-4.2c-0.1-1.4,0.1-2.7,0.7-4.1
				c0.6-1.4,1.6-2.6,3-3.6s3.2-1.7,5.3-2c1.1-0.2,2.2-0.3,3.3-0.3c1.1,0,2.2,0,3.5,0.1c0.2,1.1,0.5,2.2,1.1,3.5
				c-0.2,0.1-0.3,0.1-0.6,0.2c-0.3,0-0.5,0-0.6-0.2c-0.5-1-1.2-1.7-2.1-2.1c-0.9-0.3-2.1-0.4-3.7-0.2c-2.4,0.3-4.1,1.2-5.2,2.6
				c-1.1,1.4-1.6,3.1-1.4,5.2c0.2,1.5,0.6,2.8,1.4,3.8c0.8,1.1,1.8,1.9,3,2.3c1.2,0.5,2.6,0.6,4.1,0.4c1-0.2,2-0.4,2.9-0.7l-0.4-3.7
				c0-0.4-0.2-0.7-0.6-0.8c-0.3-0.1-0.9-0.2-1.6-0.2c-0.1,0-0.2,0-0.3-0.1c-0.1-0.1-0.1-0.2-0.1-0.3v-0.4c1.3-0.1,2.6-0.3,3.8-0.4
				c1.3-0.2,2.5-0.4,3.6-0.6c0,0.1,0.1,0.2,0.1,0.4c0,0.3-0.1,0.5-0.3,0.5c-0.6,0.2-1,0.3-1.3,0.5c-0.2,0.2-0.3,0.5-0.3,0.8l0.5,4.4
				c0,0.2,0,0.3-0.1,0.4c-0.1,0.1-0.4,0.2-0.8,0.3c-1,0.3-2,0.6-2.8,0.7c-0.9,0.2-1.9,0.4-3,0.5C332,537.6,330.1,537.5,328.5,537z"
				/>
			<path class="st0" d="M342,534.8c0-0.2,0.1-0.3,0.3-0.4c0.7-0.2,1.2-0.4,1.4-0.6c0.3-0.2,0.4-0.4,0.3-0.7l-1.1-12.6
				c0-0.3-0.2-0.5-0.5-0.6s-0.8-0.2-1.5-0.2c-0.2,0-0.3-0.1-0.3-0.4c0-0.2,0-0.4,0-0.5c1.3,0,2.4-0.1,3.4-0.2l5.6-0.5
				c2-0.2,3.7,0,5.2,0.6s2.6,1.5,3.4,2.6c0.8,1.2,1.3,2.5,1.4,4c0.1,1.4-0.1,2.7-0.7,4s-1.5,2.4-2.9,3.3c-1.3,0.9-3,1.5-5,1.7
				l-5.6,0.5c-1,0.1-2.1,0.2-3.4,0.4C342.1,535.1,342,535,342,534.8z M355.3,531.1c1.1-1.2,1.5-2.9,1.4-5c-0.4-5-3.3-7.2-8.7-6.7
				l-2.2,0.2l1.1,13.2c0,0.3,0.2,0.6,0.6,0.7c0.4,0.1,1.1,0.1,2.2,0C352.3,533.1,354.2,532.3,355.3,531.1z"/>
			<path class="st0" d="M359.2,532.8c0-0.3,0.1-0.4,0.3-0.5c0.6-0.2,1-0.3,1.2-0.5c0.3-0.2,0.4-0.4,0.5-0.6L366,516
				c0.1-0.3,0.3-0.5,0.5-0.5h0.4l8,14.3c0.3,0.4,0.9,0.6,1.8,0.6c0.2,0,0.4,0.1,0.4,0.4v0.4c-1.5,0.1-2.6,0.1-3.2,0.2
				c-1.3,0.1-2.5,0.3-3.6,0.5l-0.1-0.4c0-0.2,0.1-0.4,0.2-0.5c0.5-0.1,0.9-0.3,1.1-0.4c0.2-0.2,0.3-0.3,0.3-0.5
				c0-0.1-0.1-0.3-0.1-0.4l-2-3.8l-5.9,0.6l-1.2,4.1c-0.1,0.2-0.1,0.3-0.1,0.5c0,0.4,0.6,0.5,1.7,0.6c0.2,0,0.4,0.1,0.4,0.4
				c0,0,0,0.1,0,0.2c0,0.1,0,0.2,0,0.2c-1.2,0-2.2,0.1-3.1,0.2c-0.6,0.1-1.3,0.2-2.3,0.4C359.2,533.1,359.2,533,359.2,532.8z
				 M369.2,525l-3.1-5.8l-1.9,6.3L369.2,525z"/>
			<path class="st0" d="M380.7,530.8c-1.5-0.6-2.6-1.5-3.5-2.7s-1.4-2.7-1.5-4.3c-0.1-1.5,0.2-2.9,0.9-4.3c0.7-1.4,1.8-2.5,3.1-3.3
				c1.3-0.9,2.8-1.4,4.4-1.5c2-0.2,3.8,0.1,5.3,0.7c1.5,0.6,2.7,1.6,3.6,2.8s1.3,2.6,1.5,4.2c0.1,1.7-0.2,3.2-0.9,4.5
				c-0.8,1.3-1.8,2.4-3.2,3.2c-1.4,0.8-3,1.3-4.7,1.4C383.8,531.6,382.2,531.4,380.7,530.8z M389.1,529.2c0.8-0.6,1.5-1.3,1.9-2.3
				c0.4-0.9,0.6-2,0.5-3.1c-0.2-2.5-0.9-4.5-2.2-6c-1.3-1.5-3-2.1-5.2-2c-1,0.1-1.9,0.4-2.8,0.9c-0.8,0.5-1.5,1.2-1.9,2.2
				c-0.5,0.9-0.6,2-0.5,3.2c0.1,1.7,0.5,3.1,1.1,4.4c0.6,1.3,1.5,2.2,2.5,2.9c1.1,0.7,2.3,0.9,3.7,0.8
				C387.2,530.1,388.2,529.8,389.1,529.2z"/>
			<path class="st0" d="M415.8,531c-0.4,0-0.8-0.1-1.2-0.4c-0.4-0.3-0.8-0.7-1.2-1.2l-4.5-5.8H407v5.4c0,0.3,0.2,0.6,0.5,0.7
				c0.4,0.1,1,0.3,1.8,0.4c0.2,0,0.4,0.2,0.4,0.4l-0.1,0.4c-1.2-0.1-2.6-0.1-4.2-0.1c-1.1,0-2.3,0-3.6,0.1c0-0.2-0.1-0.3-0.1-0.4
				c0-0.2,0.1-0.4,0.3-0.4c0.8-0.1,1.3-0.2,1.6-0.4c0.3-0.1,0.4-0.4,0.4-0.7v-12.7c0-0.3-0.1-0.6-0.4-0.7c-0.3-0.1-0.8-0.3-1.6-0.3
				c-0.2,0-0.3-0.2-0.3-0.4c0-0.1,0-0.3,0.1-0.4c1.2,0.1,2.4,0.1,3.5,0.1h4c2,0,3.6,0.4,4.7,1.2s1.6,1.9,1.6,3.2
				c0,0.8-0.3,1.6-0.9,2.4c-0.6,0.8-1.5,1.4-2.7,1.7l4.7,5.8c0.3,0.4,0.6,0.7,1,0.8c0.4,0.2,0.8,0.3,1.4,0.4c0.2,0,0.3,0.2,0.3,0.4
				c0,0.1,0,0.3-0.1,0.4C418,531,416.8,531,415.8,531z M408.4,522.6c1.3,0,2.4-0.2,3-0.7c0.7-0.5,1-1.3,1-2.5c0-2.3-1.4-3.5-4.1-3.5
				H407v6.8L408.4,522.6L408.4,522.6z"/>
			<path class="st0" d="M418.3,530.8c0-0.2,0.1-0.3,0.3-0.3c0.7-0.1,1.2-0.2,1.5-0.3s0.4-0.3,0.4-0.7l0.3-12.4
				c0-0.3-0.1-0.5-0.3-0.6c-0.2-0.1-0.8-0.3-1.6-0.5c-0.1,0-0.2-0.1-0.2-0.1c0-0.1-0.1-0.2,0-0.3c0-0.1,0-0.3,0.1-0.4
				c1.3,0.1,2.4,0.2,3.4,0.2l5.4,0.2c0.5,0,1.1,0,1.6,0s0.9,0,1.1,0h0.7c0.2,0,0.3,0.1,0.4,0.3s0.1,0.5,0.2,0.9l0.1,0.6
				c0.1,0.8,0.3,1.5,0.5,1.9c-0.2,0.1-0.4,0.2-0.6,0.2s-0.3-0.1-0.4-0.3c-0.3-0.6-0.6-1.1-0.9-1.5c-0.3-0.3-0.6-0.6-1-0.8
				s-1-0.3-1.7-0.3l-3.9-0.1l-0.2,6.2l4.1,0.1c0.3,0,0.6-0.1,0.7-0.4c0.2-0.2,0.3-0.7,0.4-1.2c0.1-0.2,0.2-0.3,0.5-0.3
				c0.2,0,0.3,0,0.5,0.1c-0.1,0.8-0.2,1.6-0.2,2.5c0,0.8,0,1.5,0.1,2.4h-0.4c-0.3,0-0.5-0.1-0.5-0.3c-0.1-0.5-0.2-1-0.4-1.2
				c-0.2-0.3-0.4-0.4-0.7-0.4l-4.1-0.1l-0.1,5.7c0,0.3,0.2,0.6,0.7,0.7c0.5,0.1,1.3,0.2,2.4,0.3h1.4c1,0,1.7-0.2,2.3-0.6
				c0.6-0.4,1.1-1.1,1.6-2c0.1-0.1,0.2-0.2,0.4-0.2c0.1,0,0.4,0.1,0.7,0.3c-0.2,0.4-0.4,0.8-0.6,1.4c-0.2,0.6-0.3,0.9-0.3,1.1
				c-0.1,0.4-0.2,0.7-0.3,0.9c-0.1,0.2-0.2,0.3-0.2,0.3c-0.1,0-0.2,0.1-0.3,0.1l-1.2-0.1c-1.4-0.1-2.1-0.1-2.1-0.1l-6-0.2
				c-1.1,0-2.2,0-3.5,0L418.3,530.8z"/>
			<path class="st0" d="M433.2,532.2c0-0.2,0.1-0.3,0.3-0.3c0.7-0.1,1.2-0.2,1.5-0.3s0.4-0.3,0.4-0.6l0.7-12.5
				c0-0.3-0.1-0.5-0.4-0.7s-0.7-0.3-1.4-0.5c-0.2,0-0.3-0.2-0.3-0.4s0-0.3,0.1-0.4c1.2,0.2,2.4,0.3,3.3,0.3l5.6,0.3
				c2,0.1,3.6,0.6,5,1.3c1.3,0.8,2.3,1.8,3,3.1c0.6,1.3,0.9,2.6,0.8,4.1c-0.1,1.3-0.5,2.6-1.2,3.8s-1.8,2.1-3.3,2.8
				c-1.4,0.7-3.1,1-5.1,0.9l-5.6-0.3c-1-0.1-2.1-0.1-3.4-0.1C433.2,532.5,433.2,532.4,433.2,532.2z M446.7,530.6
				c1.2-1,1.9-2.6,2-4.7c0.3-4.9-2.3-7.5-7.6-7.8l-2.2-0.1l-0.7,13c0,0.3,0.2,0.6,0.5,0.7c0.4,0.1,1.1,0.2,2.2,0.3
				C443.6,532.1,445.5,531.6,446.7,530.6z"/>
			<path class="st0" d="M457.9,535.4c0-0.2,0.1-0.4,0.3-0.4c0.8,0,1.3-0.1,1.6-0.2c0.3-0.1,0.5-0.3,0.5-0.6l1.5-12.3
				c0-0.3-0.1-0.6-0.3-0.7c-0.2-0.2-0.7-0.3-1.4-0.5c-0.2,0-0.3-0.2-0.2-0.4l0.1-0.4c1.4,0.2,2.5,0.4,3.4,0.5
				c1.4,0.2,2.7,0.3,3.9,0.4v0.4c0,0.2-0.1,0.4-0.3,0.4c-0.8,0-1.4,0.1-1.8,0.2c-0.3,0.1-0.5,0.4-0.6,0.7l-1.5,12.1
				c0,0.3,0.1,0.5,0.4,0.7s0.8,0.3,1.4,0.4l2.5,0.3c1,0.1,1.7,0,2.3-0.4c0.6-0.4,1.1-1,1.6-1.9c0.1-0.1,0.2-0.2,0.4-0.2
				c0.1,0,0.2,0.1,0.4,0.1c0.1,0.1,0.2,0.1,0.2,0.2c-0.5,1.3-0.9,2.4-1.1,3.3c0,0.2-0.1,0.3-0.2,0.3s-0.2,0.1-0.4,0l-1.1-0.2
				c-0.5-0.1-1-0.2-1.5-0.3l-6.7-0.8c-1.1-0.1-2.3-0.2-3.5-0.3C457.9,535.8,457.9,535.6,457.9,535.4z"/>
			<path class="st0" d="M471.9,538.1c0-0.2,0.2-0.4,0.4-0.3c0.8,0,1.3-0.1,1.6-0.2c0.3-0.1,0.4-0.3,0.5-0.6l1.8-12.3
				c0-0.3,0-0.6-0.3-0.8c-0.2-0.2-0.7-0.4-1.5-0.6c-0.2,0-0.3-0.2-0.2-0.5c0-0.2,0.1-0.3,0.1-0.4c1.3,0.3,2.5,0.5,3.7,0.7
				c1.1,0.2,2.3,0.3,3.7,0.4v0.4c0,0.2-0.2,0.4-0.4,0.4c-0.8,0-1.3,0-1.6,0.1c-0.3,0.1-0.4,0.3-0.5,0.6l-1.8,12.3
				c0,0.3,0,0.5,0.3,0.7c0.2,0.2,0.7,0.4,1.5,0.6c0.2,0.1,0.3,0.2,0.2,0.4l-0.1,0.4c-1.4-0.3-2.6-0.5-3.7-0.7
				c-1.2-0.2-2.4-0.3-3.7-0.4C471.9,538.4,471.9,538.3,471.9,538.1z"/>
			<path class="st0" d="M484,540c-1.2-1.1-1.9-2.4-2.3-3.9s-0.4-3,0.1-4.6c0.4-1.5,1.2-2.7,2.4-3.8c1.2-1,2.5-1.7,4.1-2.1
				c1.6-0.4,3.1-0.3,4.7,0.2c2,0.6,3.6,1.4,4.8,2.6c1.2,1.2,2,2.5,2.4,3.9c0.4,1.5,0.3,3-0.1,4.5c-0.5,1.6-1.3,3-2.5,4
				s-2.6,1.6-4.2,1.9c-1.6,0.3-3.3,0.2-5-0.3C486.6,541.9,485.1,541.1,484,540z M492.4,541.4c1-0.3,1.9-0.8,2.6-1.5
				c0.7-0.8,1.3-1.7,1.6-2.8c0.7-2.5,0.7-4.6,0-6.5s-2.1-3.1-4.3-3.7c-1-0.3-2-0.3-3-0.1s-1.8,0.7-2.6,1.4c-0.8,0.7-1.3,1.6-1.6,2.8
				c-0.5,1.6-0.6,3.2-0.5,4.6c0.1,1.4,0.6,2.6,1.4,3.7c0.8,1,1.8,1.7,3.2,2.1C490.4,541.7,491.4,541.7,492.4,541.4z"/>
			<path class="st0" d="M515.1,549.3l-7.9-16l-3.2,11.1c-0.1,0.3,0,0.6,0.2,0.8s0.7,0.5,1.4,0.8c0.2,0.1,0.3,0.3,0.2,0.5l-0.2,0.4
				c-1-0.4-2-0.7-2.8-1c-1-0.3-1.9-0.5-2.9-0.7c0-0.1,0-0.2,0.1-0.4s0.2-0.3,0.4-0.3c0.7,0.1,1.2,0.1,1.5,0s0.5-0.3,0.6-0.6
				l3.6-12.3c0.1-0.3,0-0.5-0.2-0.7s-0.6-0.4-1.3-0.7c-0.2-0.1-0.3-0.3-0.2-0.5l0.2-0.4c1.6,0.6,2.7,0.9,3.2,1.1
				c0.6,0.2,0.9,0.3,1.1,0.4c0.2,0.1,0.3,0.2,0.4,0.4l6.9,14.1l2.8-9.7c0.1-0.3,0-0.6-0.2-0.9c-0.2-0.2-0.7-0.5-1.5-0.8
				c-0.2-0.1-0.3-0.3-0.2-0.5l0.2-0.4c1,0.4,2,0.7,2.9,1s1.8,0.5,2.8,0.7l-0.1,0.4c-0.1,0.3-0.2,0.4-0.4,0.3
				c-0.7-0.1-1.1-0.1-1.4-0.1c-0.3,0.1-0.5,0.3-0.6,0.6l-4.1,14.1c-0.2,0-0.3,0-0.5-0.1C515.5,549.9,515.3,549.7,515.1,549.3z"/>
			<path class="st0" d="M521.9,552.1c-0.8-0.6-1.3-1.2-1.8-1.7c0.4-1.1,0.8-2.4,1.1-4c0.2,0,0.4,0,0.5,0.1c0.2,0.1,0.3,0.2,0.4,0.3
				c0.1,0.1,0.1,0.3,0.1,0.5c-0.1,1.4,0.1,2.4,0.5,3.2s1.2,1.5,2.3,2c1,0.4,1.9,0.5,2.6,0.3c0.7-0.3,1.3-0.8,1.6-1.5
				c0.3-0.8,0.3-1.5,0-2.2s-1-1.5-1.9-2.4c-0.9-0.8-1.6-1.6-2.1-2.2c-0.5-0.7-0.8-1.4-0.9-2.1c-0.1-0.7,0-1.6,0.4-2.4
				c0.4-0.8,0.9-1.4,1.6-1.9c0.7-0.5,1.5-0.7,2.4-0.7s1.8,0.2,2.8,0.6c0.7,0.3,1.4,0.7,2.1,1.2c0.6,0.5,1.3,1,2,1.7
				c-0.4,1.1-0.7,2.1-1,3.2c-0.2,0-0.3-0.1-0.4-0.1c-0.3-0.1-0.5-0.4-0.5-0.7c0-1.1-0.2-1.9-0.7-2.6c-0.4-0.7-1.1-1.2-2.1-1.6
				c-0.8-0.4-1.6-0.5-2.3-0.3c-0.7,0.1-1.2,0.6-1.6,1.2c-0.3,0.7-0.3,1.4,0.1,2.1c0.4,0.7,1.2,1.6,2.3,2.7c1.3,1.3,2.1,2.4,2.6,3.5
				c0.4,1,0.4,2.1-0.1,3.2c-0.6,1.3-1.5,2.2-2.8,2.7c-1.3,0.4-2.8,0.3-4.7-0.6C523.6,553.2,522.7,552.7,521.9,552.1z"/>
		</g>
	</g>
</g>
</svg>
