<?xml version="1.0" encoding="UTF-8"?>
<svg data-name="图层_1" xmlns="http://www.w3.org/2000/svg" version="1.1" viewBox="0 0 800 800">
  <!-- Created by @FCLOGO 2025-7-13 GMT+8 21:39:36 . https://fclogo.top/ -->
<!-- FOR PERSONAL USE ONLY NOT FOR COMMERCIAL USE -->
<!-- Created by @FCLOGO 2025-7-13 GMT+8 21:39:36 . https://fclogo.top/ -->
<!-- FOR PERSONAL USE ONLY NOT FOR COMMERCIAL USE -->
  <path d="M558.1913,586.0934v-302.6593H241.8174v302.6593c9.1543,217.7141,308.8864,216.0728,316.3739,0Z" style="fill: #fff;"/>
  <polygon points="242.0034 283.8354 300.5484 324.5873 300.5484 582.0135 302.2705 602.3894 306.2882 619.6087 314.3238 640.2716 327.5253 659.4996 341.5874 671.553 359.3807 682.1714 380.9045 688.772 395.2538 690.4942 410.4639 689.9202 428.831 686.1892 447.1982 678.7277 460.3995 670.405 470.7311 660.9347 479.9146 649.742 487.6631 636.5407 494.5508 617.5998 498.2817 598.9457 499.7166 582.0135 499.7166 464.3494 557.9745 504.8143 557.9745 553.028 558.2615 592.058 555.9657 611.86 553.3827 625.6353 547.6431 645.1505 538.7466 666.1002 526.9802 685.6154 513.4918 701.3996 497.7077 715.7489 485.6542 724.6455 465.2782 735.5509 448.92 741.0034 429.9792 746.1693 405.8722 749.0392 389.2269 748.1781 368.851 745.8822 345.0313 739.2816 324.0813 730.098 308.2971 719.7667 293.3737 708.0002 279.8854 693.0768 266.6841 675.5708 256.6398 655.1948 249.4651 635.3929 245.1604 615.5907 242.5775 598.9457 241.7164 576.5609 242.0034 283.8354" style="fill: red; fill-rule: evenodd;"/>
  <g>
    <g>
      <rect x="250.6296" y="324.1359" width="41.6213" height="21.9774" style="fill: #ffcb00;"/>
      <path d="M292.6869,346.5492h-42.4935v-22.849h42.4935v22.849ZM251.0657,345.6769h40.749v-21.1045h-40.749v21.1045Z"/>
      <rect x="267.7305" y="333.4694" width="6.868" height="12.1633"/>
      <rect x="248.0774" y="344.7856" width="46.1239" height="3.5297" style="fill: #ffcb00;"/>
      <path d="M294.6376,348.7511h-46.9962v-4.4013h46.9962v4.4013ZM248.5136,347.8789h45.2517v-2.6568h-45.2517v2.6568Z" style="fill: #000002;"/>
      <rect x="267.4211" y="304.449" width="7.5" height="20.3558" style="fill: #ffcb00;"/>
      <path d="M275.3568,325.2411h-8.3716v-21.228h8.3716v21.228ZM267.8575,324.3688h6.6271v-19.4835h-6.6271v19.4835Z"/>
      <polygon points="264.9456 300.4909 264.9456 305.0368 277.3708 305.0368 277.3708 300.4909 274.6474 300.4909 274.6474 302.4777 272.5382 302.4777 272.5382 300.4909 269.8138 300.4909 269.8138 302.4777 267.6698 302.4777 267.6698 300.5057 264.9456 300.4909" style="fill: #ffcb00; fill-rule: evenodd;"/>
      <path d="M277.8066,305.4731h-13.2968v-5.4209l3.5964.0196v1.9702h1.2718v-1.9873h3.5964v1.9873h1.2368v-1.9873h3.5955v5.4184ZM265.3821,304.6008h11.5523v-3.6739h-1.851v1.9873h-2.9813v-1.9873h-1.8518v1.9873h-3.0163v-1.9754l-1.8518-.0094v3.6713Z"/>
      <rect x="252.1657" y="309.5575" width="7.4998" height="15.1991" style="fill: #ffcb00;"/>
      <path d="M260.1017,325.1925h-8.3725v-16.0711h8.3725v16.0711ZM252.6015,324.3203h6.628v-14.3266h-6.628v14.3266Z"/>
      <rect x="282.5939" y="309.5131" width="7.4998" height="15.1991" style="fill: #ffcb00;"/>
      <path d="M290.5302,325.1482h-8.3725v-16.0711h8.3725v16.0711ZM283.0299,324.276h6.628v-14.3266h-6.628v14.3266Z"/>
      <polygon points="294.1686 326.3733 248.1902 326.3733 248.1902 318.0486 253.2676 318.0486 253.2676 322.9665 258.4012 322.9665 258.4012 317.9931 263.4785 317.9931 263.4785 322.9665 268.6124 322.9665 268.6124 317.9931 273.746 317.9931 273.746 322.9665 278.8797 322.9665 278.8797 317.9931 283.957 317.9931 283.957 322.9665 289.0906 322.9665 289.0906 317.9931 294.1686 317.9931 294.1686 326.3733" style="fill: #ffcb00; fill-rule: evenodd;"/>
      <path d="M294.6044,326.8093h-46.8505v-9.197h5.9499v4.9184h4.2616v-4.9737h5.9491v4.9737h4.2616v-4.9737h6.0061v4.9737h4.2616v-4.9737h5.9491v4.9737h4.2616v-4.9737h5.9499v9.2524ZM248.6261,325.937h45.106v-7.5079h-4.2054v4.9737h-6.0061v-4.9737h-4.2045v4.9737h-6.0061v-4.9737h-4.2616v4.9737h-6.0061v-4.9737h-4.2045v4.9737h-6.0061v-4.9184h-4.2054v7.4525Z" style="fill: #000002;"/>
      <rect x="269.7713" y="307.9519" width="2.7146" height="5.634"/>
      <path d="M272.6745,313.774h-3.0912v-6.0104h3.0912v6.0104ZM269.9597,313.3975h2.3382v-5.2574h-2.3382v5.2574Z"/>
      <polygon points="262.1417 305.599 262.1417 310.1455 249.7157 310.1455 249.7157 305.599 252.4402 305.599 252.4402 307.5855 254.5493 307.5855 254.5493 305.599 257.2735 305.599 257.2735 307.5855 259.4176 307.5855 259.4176 305.6135 262.1417 305.599" style="fill: #ffcb00; fill-rule: evenodd;"/>
      <path d="M262.5779,310.5814h-13.2985v-5.4184h3.5972v1.9864h1.2368v-1.9864h3.5964v1.9864h1.2718v-1.9694l3.5964-.0196v5.4209ZM250.1517,309.7091h11.554v-3.6713l-1.8518.0094v1.9745h-3.0163v-1.9864h-1.8518v1.9864h-2.9813v-1.9864h-1.8527v3.6739Z"/>
      <rect x="254.4879" y="311.6758" width="2.7139" height="4.4581"/>
      <path d="M257.3904,316.3218h-3.0904v-4.834h3.0904v4.834ZM254.6765,315.9453h2.3374v-4.081h-2.3374v4.081Z"/>
      <polygon points="280.1174 305.555 280.1174 310.1008 292.5436 310.1008 292.5436 305.555 289.8192 305.555 289.8192 307.5411 287.71 307.5411 287.71 305.555 284.9859 305.555 284.9859 307.5411 282.8419 307.5411 282.8419 305.5698 280.1174 305.555" style="fill: #ffcb00; fill-rule: evenodd;"/>
      <path d="M292.98,310.5371h-13.2985v-5.4209l3.5964.0204v1.9685h1.2718v-1.9864h3.5964v1.9864h1.2368v-1.9864h3.5972v5.4184ZM280.5537,309.6648h11.554v-3.6739h-1.8527v1.9864h-2.9813v-1.9864h-1.8518v1.9864h-3.0163v-1.9736l-1.8518-.0102v3.6713Z"/>
      <rect x="285.0577" y="311.6313" width="2.7136" height="4.4581"/>
      <path d="M287.9594,316.2775h-3.0904v-4.834h3.0904v4.834ZM285.2455,315.901h2.3374v-4.081h-2.3374v4.081Z"/>
      <rect x="255.9013" y="327.7833" width="4.7528" height="8.2242"/>
      <rect x="281.7439" y="327.8487" width="4.7527" height="8.2244"/>
    </g>
    <g>
      <rect x="507.9019" y="470.6109" width="41.6213" height="21.9772" style="fill: #ffcb00;"/>
      <path d="M549.9591,493.0235h-42.4935v-22.849h42.4935v22.849ZM508.3378,492.1512h40.749v-21.1045h-40.749v21.1045Z"/>
      <rect x="525.0025" y="479.9442" width="6.8683" height="12.1635"/>
      <rect x="505.3497" y="491.2607" width="46.1239" height="3.5294" style="fill: #ffcb00;"/>
      <path d="M551.9097,495.2263h-46.9962v-4.4022h46.9962v4.4022ZM505.7858,494.354h45.2517v-2.6577h-45.2517v2.6577Z" style="fill: #000002;"/>
      <rect x="524.6934" y="450.9237" width="7.4998" height="20.3559" style="fill: #ffcb00;"/>
      <path d="M532.6298,471.7162h-8.3733v-21.2289h8.3733v21.2289ZM525.1287,470.844h6.6288v-19.4844h-6.6288v19.4844Z"/>
      <polygon points="522.2176 446.9658 522.2176 451.5115 534.6432 451.5115 534.6432 446.9658 531.9194 446.9658 531.9194 448.9525 529.8103 448.9525 529.8103 446.9658 527.0861 446.9658 527.0861 448.9525 524.9421 448.9525 524.9421 446.9804 522.2176 446.9658" style="fill: #ffcb00; fill-rule: evenodd;"/>
      <path d="M535.0796,451.9474h-13.2985v-5.4192l3.5964.0187v1.9694h1.2726v-1.9864h3.5964v1.9864h1.2368v-1.9864h3.5964v5.4175ZM522.6533,451.0751h11.554v-3.673h-1.8518v1.9864h-2.9813v-1.9864h-1.8518v1.9864h-3.0171v-1.9728l-1.8518-.0119v3.6713Z"/>
      <rect x="509.4378" y="456.0323" width="7.5" height="15.1991" style="fill: #ffcb00;"/>
      <path d="M517.3738,471.6668h-8.3716v-16.0703h8.3716v16.0703ZM509.8745,470.7946h6.6271v-14.3258h-6.6271v14.3258Z"/>
      <rect x="539.866" y="455.9879" width="7.5" height="15.1991" style="fill: #ffcb00;"/>
      <path d="M547.8023,471.6225h-8.3716v-16.0703h8.3716v16.0703ZM540.3029,470.7503h6.6271v-14.3258h-6.6271v14.3258Z"/>
      <polygon points="551.4407 472.8481 505.4625 472.8481 505.4625 464.5236 510.5399 464.5236 510.5399 469.4413 515.6735 469.4413 515.6735 464.4679 520.7508 464.4679 520.7508 469.4413 525.8845 469.4413 525.8845 464.4679 531.018 464.4679 531.018 469.4413 536.1519 469.4413 536.1519 464.4679 541.229 464.4679 541.229 469.4413 546.3629 469.4413 546.3629 464.4679 551.4407 464.4679 551.4407 472.8481" style="fill: #ffcb00; fill-rule: evenodd;"/>
      <path d="M551.8773,473.2836h-46.8514v-9.1962h5.9508v4.9184h4.2608v-4.9746h5.9491v4.9746h4.2625v-4.9746h6.0053v4.9746h4.2608v-4.9746h5.9508v4.9746h4.2608v-4.9746h5.9508v9.2524ZM505.8982,472.4113h45.1069v-7.5079h-4.2063v4.9746h-6.0053v-4.9746h-4.2063v4.9746h-6.0053v-4.9746h-4.2608v4.9746h-6.007v-4.9746h-4.2045v4.9746h-6.0053v-4.9184h-4.2063v7.4517Z" style="fill: #000002;"/>
      <rect x="527.0435" y="454.4267" width="2.7146" height="5.6339"/>
      <path d="M529.9466,460.2491h-3.0921v-6.0121h3.0921v6.0121ZM527.2327,459.8709h2.3357v-5.2557h-2.3357v5.2557Z"/>
      <polygon points="519.414 452.0738 519.414 456.6204 506.988 456.6204 506.988 452.0738 509.7122 452.0738 509.7122 454.0603 511.8214 454.0603 511.8214 452.0738 514.5459 452.0738 514.5459 454.0603 516.6899 454.0603 516.6899 452.0883 519.414 452.0738" style="fill: #ffcb00; fill-rule: evenodd;"/>
      <path d="M519.8509,457.0565h-13.2985v-5.4192h3.5964v1.9864h1.2368v-1.9864h3.5964v1.9864h1.2726v-1.9694l3.5964-.0187v5.4209ZM507.4246,456.1843h11.554v-3.673l-1.8518.0119v1.9728h-3.0171v-1.9864h-1.8518v1.9864h-2.9813v-1.9864h-1.8518v3.6747Z"/>
      <rect x="511.7602" y="458.1506" width="2.7139" height="4.458"/>
      <path d="M514.6633,462.7978h-3.0921v-4.8366h3.0921v4.8366ZM511.9495,462.4195h2.3357v-4.0802h-2.3357v4.0802Z"/>
      <polygon points="537.3897 452.0298 537.3897 456.5757 549.8157 456.5757 549.8157 452.0298 547.0915 452.0298 547.0915 454.0158 544.9824 454.0158 544.9824 452.0298 542.2579 452.0298 542.2579 454.0158 540.1139 454.0158 540.1139 452.0446 537.3897 452.0298" style="fill: #ffcb00; fill-rule: evenodd;"/>
      <path d="M550.2521,457.0122h-13.2985v-5.4209l3.5964.0187v1.9694h1.2726v-1.9864h3.5964v1.9864h1.2368v-1.9864h3.5964v5.4192ZM537.8258,456.14h11.554v-3.6747h-1.8518v1.9864h-2.9813v-1.9864h-1.8518v1.9864h-3.0171v-1.9728l-1.8518-.0119v3.673Z"/>
      <rect x="542.3297" y="458.1061" width="2.7139" height="4.458"/>
      <path d="M545.2332,462.7535h-3.0921v-4.8366h3.0921v4.8366ZM542.5193,462.3753h2.3357v-4.0802h-2.3357v4.0802Z"/>
      <rect x="513.1734" y="474.2581" width="4.7527" height="8.2242"/>
      <rect x="539.0162" y="474.3235" width="4.7527" height="8.2244"/>
    </g>
    <g>
      <rect x="379.505" y="718.2571" width="41.6214" height="21.9774" style="fill: #ffcb00;"/>
      <path d="M421.5619,740.6709h-42.4927v-22.8507h42.4927v22.8507ZM379.9415,739.7987h40.7482v-21.1062h-40.7482v21.1062Z"/>
      <rect x="396.6058" y="727.5903" width="6.868" height="12.1636"/>
      <rect x="376.9528" y="738.9069" width="46.124" height="3.5295" style="fill: #ffcb00;"/>
      <path d="M423.5126,742.872h-46.9962v-4.4005h46.9962v4.4005ZM377.3886,741.9998h45.2517v-2.656h-45.2517v2.656Z" style="fill: #000002;"/>
      <rect x="396.2965" y="698.57" width="7.5" height="20.3558" style="fill: #ffcb00;"/>
      <path d="M404.2327,719.362h-8.3725v-21.2289h8.3725v21.2289ZM396.7324,718.4897h6.628v-19.4844h-6.628v19.4844Z"/>
      <polygon points="393.8209 694.6122 393.8209 699.158 406.2462 699.158 406.2462 694.6122 403.5227 694.6122 403.5227 696.5986 401.4136 696.5986 401.4136 694.6122 398.6892 694.6122 398.6892 696.5986 396.5452 696.5986 396.5452 694.6269 393.8209 694.6122" style="fill: #ffcb00; fill-rule: evenodd;"/>
      <path d="M406.6825,699.5948h-13.2976v-5.4209l3.5964.0187v1.9694h1.2718v-1.9864h3.5964v1.9864h1.2368v-1.9864h3.5964v5.4192ZM394.2571,698.7226h11.5531v-3.6747h-1.8518v1.9864h-2.9813v-1.9864h-1.8518v1.9864h-3.0163v-1.9728l-1.8518-.0119v3.673Z"/>
      <rect x="381.0411" y="703.6787" width="7.4998" height="15.1991" style="fill: #ffcb00;"/>
      <path d="M388.9767,719.3143h-8.3716v-16.072h8.3716v16.072ZM381.4773,718.442h6.6271v-14.3275h-6.6271v14.3275Z"/>
      <rect x="411.469" y="703.634" width="7.5001" height="15.1991" style="fill: #ffcb00;"/>
      <path d="M419.4051,719.27h-8.3716v-16.072h8.3716v16.072ZM411.9058,718.3978h6.6271v-14.3275h-6.6271v14.3275Z"/>
      <polygon points="423.0441 720.4945 377.0656 720.4945 377.0656 712.1698 382.143 712.1698 382.143 717.0877 387.2765 717.0877 387.2765 712.1141 392.3539 712.1141 392.3539 717.0877 397.4875 717.0877 397.4875 712.1141 402.6214 712.1141 402.6214 717.0877 407.755 717.0877 407.755 712.1141 412.8323 712.1141 412.8323 717.0877 417.966 717.0877 417.966 712.1141 423.0441 712.1141 423.0441 720.4945" style="fill: #ffcb00; fill-rule: evenodd;"/>
      <path d="M423.4802,720.931h-46.8505v-9.1979h5.9491v4.9184h4.2616v-4.9729h5.9499v4.9729h4.2608v-4.9729h6.0061v4.9729h4.2625v-4.9729h5.9491v4.9729h4.2608v-4.9729h5.9508v9.2524ZM377.5019,720.0588h45.106v-7.5079h-4.2063v4.9729h-6.0053v-4.9729h-4.2045v4.9729h-6.007v-4.9729h-4.2616v4.9729h-6.0053v-4.9729h-4.2054v4.9729h-6.0061v-4.9184h-4.2045v7.4534Z" style="fill: #000002;"/>
      <rect x="398.6467" y="702.0731" width="2.7146" height="5.6339"/>
      <path d="M401.5512,707.8966h-3.0929v-6.0121h3.0929v6.0121ZM398.8347,707.5184h2.3382v-5.2557h-2.3382v5.2557Z"/>
      <polygon points="391.0171 699.72 391.0171 704.2665 378.5911 704.2665 378.5911 699.72 381.3156 699.72 381.3156 701.7067 383.4247 701.7067 383.4247 699.72 386.1489 699.72 386.1489 701.7067 388.2929 701.7067 388.2929 699.7347 391.0171 699.72" style="fill: #ffcb00; fill-rule: evenodd;"/>
      <path d="M391.4529,704.7023h-13.2976v-5.4192h3.5964v1.9881h1.2368v-1.9881h3.5964v1.9881h1.2718v-1.9711l3.5964-.0187v5.4209ZM379.0275,703.8301h11.5531v-3.673l-1.8518.0119v1.9745h-3.0163v-1.9881h-1.8518v1.9881h-2.9813v-1.9881h-1.8518v3.6747Z"/>
      <rect x="383.3632" y="705.797" width="2.7139" height="4.4581"/>
      <path d="M386.2654,710.4435h-3.0904v-4.8349h3.0904v4.8349ZM383.5515,710.0653h2.3374v-4.0785h-2.3374v4.0785Z"/>
      <polygon points="408.9928 699.6762 408.9928 704.2221 421.419 704.2221 421.419 699.6762 418.6945 699.6762 418.6945 701.662 416.5855 701.662 416.5855 699.6762 413.8612 699.6762 413.8612 701.662 411.7172 701.662 411.7172 699.6907 408.9928 699.6762" style="fill: #ffcb00; fill-rule: evenodd;"/>
      <path d="M421.855,704.658h-13.2985v-5.4192l3.5964.017v1.9694h1.2726v-1.9847h3.5964v1.9847h1.2368v-1.9847h3.5964v5.4175ZM409.4287,703.7858h11.554v-3.673h-1.8518v1.9847h-2.9813v-1.9847h-1.8518v1.9847h-3.0171v-1.9728l-1.8518-.0102v3.6713Z"/>
      <rect x="413.933" y="705.7525" width="2.7137" height="4.4579"/>
      <path d="M416.8361,710.3992h-3.0921v-4.8366h3.0921v4.8366ZM414.1222,710.021h2.3357v-4.0802h-2.3357v4.0802Z"/>
      <rect x="384.7768" y="721.9043" width="4.7527" height="8.2245"/>
      <rect x="410.6193" y="721.9699" width="4.7528" height="8.2242"/>
    </g>
    <g>
      <rect x="250.5461" y="470.5392" width="41.6213" height="21.9771" style="fill: #ffcb00;"/>
      <path d="M292.6035,492.9519h-42.4935v-22.849h42.4935v22.849ZM250.9822,492.0797h40.749v-21.1045h-40.749v21.1045Z"/>
      <rect x="267.6469" y="479.8724" width="6.868" height="12.1635"/>
      <rect x="247.9939" y="491.1889" width="46.1239" height="3.5295" style="fill: #ffcb00;"/>
      <path d="M294.5541,495.1547h-46.9962v-4.4022h46.9962v4.4022ZM248.4302,494.2825h45.2517v-2.6577h-45.2517v2.6577Z" style="fill: #000002;"/>
      <rect x="267.3375" y="450.852" width="7.5001" height="20.3559" style="fill: #ffcb00;"/>
      <path d="M275.2733,471.6447h-8.3716v-21.2289h8.3716v21.2289ZM267.774,470.7724h6.6271v-19.4844h-6.6271v19.4844Z"/>
      <polygon points="264.862 446.894 264.862 451.4398 277.2873 451.4398 277.2873 446.894 274.5638 446.894 274.5638 448.8807 272.4544 448.8807 272.4544 446.894 269.7302 446.894 269.7302 448.8807 267.5862 448.8807 267.5862 446.9088 264.862 446.894" style="fill: #ffcb00; fill-rule: evenodd;"/>
      <path d="M277.7232,451.8758h-13.2976v-5.4192l3.5972.017v1.9711h1.2718v-1.9864h3.5964v1.9864h1.2368v-1.9864h3.5955v5.4175ZM265.2978,451.0036h11.5531v-3.673h-1.851v1.9864h-2.9813v-1.9864h-1.8518v1.9864h-3.0163v-1.9745l-1.8527-.0102v3.6713Z"/>
      <rect x="252.0821" y="455.9606" width="7.4998" height="15.1991" style="fill: #ffcb00;"/>
      <path d="M260.0182,471.5953h-8.3725v-16.0703h8.3725v16.0703ZM252.518,470.723h6.628v-14.3258h-6.628v14.3258Z"/>
      <rect x="282.5101" y="455.9161" width="7.5" height="15.1991" style="fill: #ffcb00;"/>
      <path d="M290.4458,471.551h-8.3716v-16.0703h8.3716v16.0703ZM282.9465,470.6787h6.6271v-14.3258h-6.6271v14.3258Z"/>
      <polygon points="294.0851 472.7764 248.1067 472.7764 248.1067 464.4519 253.184 464.4519 253.184 469.3695 258.3176 469.3695 258.3176 464.3961 263.395 464.3961 263.395 469.3695 268.5286 469.3695 268.5286 464.3961 273.6625 464.3961 273.6625 469.3695 278.7961 469.3695 278.7961 464.3961 283.8735 464.3961 283.8735 469.3695 289.007 469.3695 289.007 464.3961 294.0851 464.3961 294.0851 472.7764" style="fill: #ffcb00; fill-rule: evenodd;"/>
      <path d="M294.5209,473.212h-46.8505v-9.1962h5.9499v4.9184h4.2616v-4.9746h5.9491v4.9746h4.2616v-4.9746h6.0061v4.9746h4.2616v-4.9746h5.9491v4.9746h4.2616v-4.9746h5.9499v9.2524ZM248.5426,472.3398h45.106v-7.5079h-4.2054v4.9746h-6.0061v-4.9746h-4.2045v4.9746h-6.0061v-4.9746h-4.2616v4.9746h-6.0061v-4.9746h-4.2045v4.9746h-6.0061v-4.9184h-4.2054v7.4517Z" style="fill: #000002;"/>
      <rect x="269.6877" y="454.3549" width="2.7146" height="5.6339"/>
      <path d="M272.591,460.1776h-3.0912v-6.0121h3.0912v6.0121ZM269.8763,459.7994h2.3382v-5.2557h-2.3382v5.2557Z"/>
      <polygon points="262.0582 452.0021 262.0582 456.5486 249.6322 456.5486 249.6322 452.0021 252.3564 452.0021 252.3564 453.9886 254.4658 453.9886 254.4658 452.0021 257.19 452.0021 257.19 453.9886 259.334 453.9886 259.334 452.0165 262.0582 452.0021" style="fill: #ffcb00; fill-rule: evenodd;"/>
      <path d="M262.4944,456.985h-13.2985v-5.4192h3.5964v1.9864h1.2377v-1.9864h3.5964v1.9864h1.2718v-1.9694l3.5964-.0187v5.4209ZM250.0682,456.1127h11.554v-3.673l-1.8518.0119v1.9728h-3.0163v-1.9864h-1.8518v1.9864h-2.9822v-1.9864h-1.8518v3.6747Z"/>
      <rect x="254.4043" y="458.0788" width="2.7139" height="4.4581"/>
      <path d="M257.3061,462.7262h-3.0904v-4.8366h3.0904v4.8366ZM254.5922,462.348h2.3374v-4.0802h-2.3374v4.0802Z"/>
      <polygon points="280.0339 451.958 280.0339 456.5039 292.4599 456.5039 292.4599 451.958 289.7356 451.958 289.7356 453.944 287.6265 453.944 287.6265 451.958 284.9023 451.958 284.9023 453.944 282.758 453.944 282.758 451.9728 280.0339 451.958" style="fill: #ffcb00; fill-rule: evenodd;"/>
      <path d="M292.8956,456.9407h-13.2976v-5.4209l3.5964.0187v1.9694h1.2718v-1.9864h3.5964v1.9864h1.2368v-1.9864h3.5964v5.4192ZM280.4702,456.0684h11.5531v-3.6747h-1.8518v1.9864h-2.9813v-1.9864h-1.8518v1.9864h-3.0163v-1.9728l-1.8518-.0119v3.673Z"/>
      <rect x="284.974" y="458.0343" width="2.7137" height="4.458"/>
      <path d="M287.8759,462.6819h-3.0904v-4.8366h3.0904v4.8366ZM285.162,462.3037h2.3374v-4.0802h-2.3374v4.0802Z"/>
      <rect x="255.8178" y="474.1864" width="4.7527" height="8.2242"/>
      <rect x="281.6604" y="474.2517" width="4.7527" height="8.2245"/>
    </g>
    <g>
      <rect x="263.2253" y="628.1893" width="41.6213" height="21.9774" transform="translate(-242.854 179.165) rotate(-24.9174)" style="fill: #ffcb00;"/>
      <path d="M269.5798,658.4898l-9.6263-20.7212,38.5386-17.9034,9.6263,20.7229-38.5386,17.9017ZM261.112,638.1911l8.8921,19.1402,36.9559-17.1657-8.8921-19.1419-36.9559,17.1674Z"/>
      <rect x="282.2173" y="637.2271" width="6.8674" height="12.1631" transform="translate(-244.4703 180.2602) rotate(-24.9207)"/>
      <rect x="265.5151" y="647.9019" width="46.1241" height="3.5292" transform="translate(-246.8514 182.056) rotate(-24.9176)" style="fill: #ffcb00;"/>
      <path d="M268.1931,661.5631l-1.8544-3.9916,42.623-19.8012,1.8535,3.9916-42.6221,19.8012ZM267.4971,657.994l1.1201,2.4106,41.0395-19.0653-1.1193-2.4106-41.0403,19.0653Z" style="fill: #000002;"/>
      <rect x="271.4061" y="610.5238" width="7.5002" height="20.3557" transform="translate(-235.8784 173.6836) rotate(-24.9151)" style="fill: #ffcb00;"/>
      <path d="M275.8313,632.0921l-8.9432-19.2527,7.5931-3.5265,8.9432,19.251-7.5931,3.5282ZM268.0466,613.2619l8.2089,17.6717,6.0104-2.7922-8.2089-17.67-6.0104,2.7905Z"/>
      <polygon points="263.5537 610.5045 265.4695 614.6274 276.7383 609.3921 274.8228 605.2699 272.3529 606.417 273.1894 608.2185 271.2767 609.1073 270.4402 607.3058 267.9693 608.4539 268.806 610.2551 266.8618 611.1587 266.0307 609.3704 263.5537 610.5045" style="fill: #ffcb00; fill-rule: evenodd;"/>
      <path d="M265.2577,615.2075l-2.2837-4.9184,3.2693-1.4958.8297,1.7854,1.1542-.5349-.8373-1.8007,3.2624-1.5162.8365,1.8007,1.1218-.5196-.8365-1.8024,3.2607-1.5145,2.2829,4.9116-12.06,5.6049ZM264.1342,610.7184l1.5477,3.3306,10.4773-4.869-1.5486-3.3306-1.6781.7786.8365,1.8024-2.7045,1.2556-.8365-1.8007-1.6798.7803.8373,1.8007-2.7352,1.2709-.8331-1.7888-1.6832.77Z"/>
      <rect x="258.6367" y="621.824" width="7.4998" height="15.199" transform="translate(-240.7469 169.1221) rotate(-24.9159)" style="fill: #ffcb00;"/>
      <path d="M261.9757,638.4756l-6.7711-14.5762,7.5931-3.5265,6.7711,14.5745-7.5931,3.5282ZM256.3631,624.3219l6.0368,12.9953,6.0104-2.7922-6.0368-12.9935-6.0104,2.7905Z"/>
      <rect x="286.2133" y="608.9641" width="7.4995" height="15.199" transform="translate(-232.7755 179.5583) rotate(-24.9176)" style="fill: #ffcb00;"/>
      <path d="M289.5523,625.6149l-6.7711-14.5745,7.5931-3.5282,6.7702,14.5745-7.5922,3.5282ZM283.9397,611.4629l6.0368,12.9935,6.0095-2.7922-6.0359-12.9935-6.0104,2.7922Z"/>
      <polygon points="300.9615 621.6655 259.263 641.0372 255.7556 633.487 260.3607 631.3478 262.4329 635.8079 267.0881 633.6452 264.993 629.1348 269.598 626.9957 271.6932 631.5058 276.3491 629.3432 274.2537 624.833 278.9096 622.67 281.005 627.1802 285.6607 625.0175 283.5648 620.5071 288.1698 618.3673 290.2657 622.8784 294.9216 620.7155 292.8262 616.2045 297.4313 614.0654 300.9615 621.6655" style="fill: #ffcb00; fill-rule: evenodd;"/>
      <path d="M259.0506,641.6171l-3.874-8.3409,5.3962-2.5077,2.0725,4.4601,3.8638-1.7939-2.0955-4.5112,5.3962-2.5077,2.0955,4.5112,3.8647-1.7956-2.0955-4.5095,5.4473-2.5316,2.0955,4.5112,3.8638-1.7956-2.0955-4.5095,5.3962-2.5077,2.0963,4.5112,3.8638-1.7956-2.0955-4.5112,5.3971-2.506,3.897,8.3904-42.4901,19.7399ZM256.335,633.6986l3.1398,6.76,40.9074-19.0039-3.1628-6.8094-3.8144,1.7701,2.0955,4.5112-5.4465,2.5316-2.0963-4.5112-3.8136,1.7718,2.0955,4.5095-5.4465,2.5316-2.0955-4.5112-3.8647,1.7956,2.0955,4.5095-5.4473,2.5316-2.0955-4.5112-3.8136,1.7718,2.0955,4.5112-5.4465,2.5299-2.0725-4.4601-3.8136,1.7718Z" style="fill: #000002;"/>
      <rect x="272.1349" y="614.4035" width="2.714" height="5.6337" transform="translate(-234.637 172.7389) rotate(-24.9242)"/>
      <path d="M273.3568,620.5977l-.0801-.1704-2.4524-5.2812,2.8025-1.3033.0801.1704,2.4532,5.2812-2.8033,1.3033ZM271.3252,615.3301l2.2139,4.7667,2.1202-.9864-2.2147-4.7667-2.1193.9864Z"/>
      <polygon points="263.1638 616.3188 265.0785 620.4417 253.8094 625.6764 251.8947 621.5541 254.3648 620.4061 255.202 622.2075 257.1148 621.3187 256.2776 619.5173 258.7482 618.3702 259.5854 620.1714 261.5296 619.2681 260.6993 617.4799 263.1638 616.3188" style="fill: #ffcb00; fill-rule: evenodd;"/>
      <path d="M253.5973,626.2555l-2.282-4.9133,3.2616-1.5162.8373,1.8024,1.121-.5213-.8365-1.8007,3.2616-1.5162.8373,1.8024,1.1525-.5349-.8288-1.7871,3.2531-1.5333,2.2837,4.915-12.0608,5.6032ZM252.4737,621.7647l1.5477,3.3323,10.4781-4.8673-1.546-3.3306-1.6755.7905.8305,1.7905-2.7352,1.2709-.8373-1.8024-1.6789.7803.8365,1.8007-2.7037,1.2573-.8373-1.8024-1.6789.7803Z"/>
      <rect x="259.5953" y="624.2749" width="2.7141" height="4.4579" transform="translate(-239.6982 168.2984) rotate(-24.9218)"/>
      <path d="M260.5702,629.3476l-2.0384-4.3851,2.8033-1.3016,2.0375,4.3851-2.8025,1.3016ZM259.0327,625.1464l1.7198,3.7003,2.1193-.9847-1.719-3.7003-2.1202.9847Z"/>
      <polygon points="279.4473 608.7045 281.363 612.8274 292.6321 607.5928 290.7164 603.4699 288.2458 604.617 289.083 606.4184 287.1702 607.3072 286.3337 605.5058 283.8621 606.6538 284.6996 608.4551 282.7546 609.3586 281.9243 607.5705 279.4473 608.7045" style="fill: #ffcb00; fill-rule: evenodd;"/>
      <path d="M281.1508,613.4067l-2.2837-4.9167,3.2701-1.4975.8297,1.7871,1.1534-.5366-.8373-1.8007,3.2633-1.5162.8356,1.8024,1.1218-.5213-.8373-1.8007,3.2624-1.5162,2.2829,4.9133-12.0608,5.6032ZM280.0273,608.9194l1.5477,3.3289,10.4781-4.8673-1.5486-3.3323-1.6798.7803.8373,1.8007-2.7045,1.2573-.8356-1.8024-1.6806.7803.8373,1.8007-2.736,1.2726-.8314-1.7905-1.684.7717Z"/>
      <rect x="287.3002" y="611.3554" width="2.7135" height="4.4578" transform="translate(-231.6269 178.7128) rotate(-24.9156)"/>
      <path d="M288.2746,616.4273l-2.0375-4.3851,2.8025-1.3016,2.0375,4.3851-2.8025,1.3016ZM286.7379,612.2261l1.719,3.7003,2.1193-.9847-1.719-3.7003-2.1193.9847Z"/>
      <rect x="268.3619" y="637.6829" width="4.7525" height="8.2242" transform="translate(-245.1658 173.7746) rotate(-24.9139)"/>
      <rect x="291.826" y="626.8543" width="4.7529" height="8.2246" transform="translate(-238.4567 182.6942) rotate(-24.9185)"/>
    </g>
    <g>
      <rect x="505.3963" y="618.4718" width="21.9774" height="41.6213" transform="translate(-280.9491 838.2643) rotate(-65.0827)" style="fill: #ffcb00;"/>
      <path d="M530.8393,658.5954l-38.536-17.9034,9.6272-20.7229,38.5377,17.9034-9.6289,20.7229ZM493.4617,640.2695l36.955,17.1674,8.8929-19.1419-36.9567-17.1674-8.8912,19.1419Z"/>
      <rect x="508.6885" y="639.9795" width="12.163" height="6.8673" transform="translate(-285.6356 839.1668) rotate(-65.081)"/>
      <rect x="510.0794" y="626.7089" width="3.5292" height="46.1242" transform="translate(-293.09 840.2121) rotate(-65.0824)" style="fill: #ffcb00;"/>
      <path d="M532.2277,661.667l-42.6213-19.8012,1.8535-3.9916,42.623,19.8012-1.8552,3.9916ZM490.7649,641.4433l41.0403,19.0653,1.1193-2.4106-41.042-19.0653-1.1176,2.4106Z" style="fill: #000002;"/>
      <rect x="515.0872" y="617.0561" width="20.3555" height="7.5002" transform="translate(-259.0485 835.6458) rotate(-65.0841)" style="fill: #ffcb00;"/>
      <path d="M524.5887,632.196l-7.5914-3.5282,8.944-19.251,7.5914,3.5282-8.944,19.251ZM518.1558,628.2453l6.0104,2.7922,8.2081-17.67-6.0104-2.7922-8.2081,17.67Z"/>
      <polygon points="536.8673 610.6089 534.9517 614.7319 523.6827 609.4965 525.5982 605.3743 528.0683 606.5214 527.2316 608.3229 529.1444 609.2117 529.9811 607.4102 532.4517 608.5583 531.6152 610.3596 533.5592 611.2631 534.3903 609.4749 536.8673 610.6089" style="fill: #ffcb00; fill-rule: evenodd;"/>
      <path d="M535.1631,615.3114l-12.06-5.6032,2.2846-4.9133,3.259,1.5145-.8365,1.8024,1.1227.5213.8365-1.8024,3.2607,1.5162-.8365,1.8007,1.1551.5366.828-1.7871,3.271,1.4975-2.2846,4.9167ZM524.2616,609.2857l10.479,4.8673,1.5452-3.3289-1.6832-.7717-.8314,1.7905-2.736-1.2726.8365-1.8007-1.6798-.7803-.8365,1.8024-2.7037-1.2573.8365-1.8024-1.6781-.7786-1.5486,3.3323Z"/>
      <rect x="530.435" y="625.778" width="15.199" height="7.4999" transform="translate(-259.5695 852.2708) rotate(-65.0839)" style="fill: #ffcb00;"/>
      <path d="M538.4442,638.5795l-7.5914-3.5282,6.7719-14.5745,7.5914,3.5282-6.7719,14.5745ZM532.0114,634.6288l6.0104,2.7922,6.0359-12.9935-6.0104-2.7922-6.0359,12.9935Z"/>
      <rect x="502.8583" y="612.9184" width="15.1992" height="7.4995" transform="translate(-263.8706 819.7993) rotate(-65.0824)" style="fill: #ffcb00;"/>
      <path d="M510.8677,625.7188l-7.5914-3.5265,6.7719-14.5762,7.5914,3.5282-6.7719,14.5745ZM504.4348,621.7698l6.0104,2.7905,6.0359-12.9935-6.0104-2.7922-6.0359,12.9953Z"/>
      <polygon points="499.4595 621.7702 541.158 641.1416 544.6654 633.5914 540.0603 631.4523 537.988 635.9124 533.3329 633.7497 535.4282 629.2394 530.8232 627.1001 528.7279 631.6105 524.0719 629.4476 526.1673 624.9374 521.5114 622.7745 519.4163 627.2849 514.7603 625.1219 516.8562 620.6118 512.2512 618.472 510.1553 622.9829 505.4994 620.8199 507.5948 616.309 502.9897 614.1699 499.4595 621.7702" style="fill: #ffcb00; fill-rule: evenodd;"/>
      <path d="M541.3694,641.721l-42.4884-19.7399,3.8979-8.3904,5.3954,2.5077-2.0955,4.5095,3.8655,1.7956,2.0955-4.5112,5.3954,2.5077-2.0955,4.5112,3.8655,1.7939,2.0955-4.5095,5.4465,2.5299-2.0955,4.5112,3.8655,1.7939,2.0955-4.5095,5.3954,2.5077-2.0955,4.5095,3.8638,1.7939,2.0733-4.4601,5.3954,2.5077-3.8757,8.3409ZM500.0394,621.5586l40.9074,19.0039,3.1398-6.76-3.8144-1.7718-2.0733,4.4601-5.4448-2.5299,2.0955-4.5095-3.8144-1.7718-2.0955,4.5095-5.4465-2.5299,2.0955-4.5112-3.8655-1.7939-2.0955,4.5095-5.4465-2.5299,2.0955-4.5112-3.8144-1.7718-2.0955,4.5112-5.4465-2.5316,2.0955-4.5095-3.8144-1.7718-3.1619,6.8094Z" style="fill: #000002;"/>
      <rect x="524.1123" y="615.9679" width="5.6336" height="2.7142" transform="translate(-254.9762 834.9678) rotate(-65.0715)"/>
      <path d="M527.0657,620.7017l-2.8042-1.3016,2.5316-5.4516,2.8042,1.3016-2.5316,5.4516ZM524.7624,619.2161l2.1193.9847,2.2147-4.7667-2.1193-.9847-2.2147,4.7667Z"/>
      <polygon points="537.2572 616.4233 535.3424 620.5462 546.6116 625.781 548.5263 621.6586 546.0565 620.5108 545.219 622.312 543.3062 621.4232 544.1436 619.622 541.6728 618.4747 540.8356 620.2759 538.8914 619.3725 539.7217 617.5844 537.2572 616.4233" style="fill: #ffcb00; fill-rule: evenodd;"/>
      <path d="M546.8227,626.3611l-12.06-5.6032,2.2829-4.915,3.2556,1.5316-.8314,1.7871,1.1551.5349.8365-1.8007,3.2607,1.5145-.8365,1.8024,1.1227.5196.8365-1.8007,3.2607,1.5162-2.2829,4.9133ZM535.9212,620.3354l10.479,4.8673,1.5469-3.3323-1.6798-.7803-.8365,1.8007-2.7037-1.2556.8365-1.8024-1.6798-.7786-.8365,1.8007-2.736-1.2709.8314-1.7905-1.6747-.7888-1.5469,3.3306Z"/>
      <rect x="537.2398" y="625.2514" width="4.4579" height="2.714" transform="translate(-256.1052 851.8344) rotate(-65.0805)"/>
      <path d="M539.8514,629.4515l-2.8025-1.3016,2.0358-4.3851,2.8042,1.3016-2.0375,4.3851ZM537.5498,627.9659l2.1176.9847,1.7207-3.7003-2.1193-.9847-1.719,3.7003Z"/>
      <polygon points="520.9737 608.809 519.0582 612.9321 507.7892 607.6973 509.7046 603.5744 512.1752 604.7217 511.338 606.5229 513.2508 607.4117 514.0873 605.6105 516.5589 606.7583 515.7216 608.5598 517.6664 609.4631 518.4967 607.6751 520.9737 608.809" style="fill: #ffcb00; fill-rule: evenodd;"/>
      <path d="M519.2699,613.5107l-12.06-5.6015,2.2829-4.9133,3.2624,1.5145-.8382,1.8007,1.1227.5213.8365-1.8007,3.2624,1.5145-.8382,1.8024,1.1551.5349.828-1.7854,3.271,1.4958-2.2846,4.9167ZM508.3685,607.4866l10.479,4.8656,1.5452-3.3289-1.6832-.77-.8314,1.7888-2.736-1.2709.8382-1.8024-1.6815-.7786-.8365,1.8007-2.7037-1.2573.8382-1.8007-1.6815-.7786-1.5469,3.3323Z"/>
      <rect x="509.5351" y="612.3321" width="4.4577" height="2.7134" transform="translate(-260.3851 819.3636) rotate(-65.0902)"/>
      <path d="M512.1471,616.5329l-2.8025-1.3016,2.0358-4.3851,2.8042,1.2999-2.0375,4.3868ZM509.8455,615.0473l2.1176.9847,1.7207-3.702-2.1193-.983-1.719,3.7003Z"/>
      <rect x="525.5707" y="639.5231" width="8.2243" height="4.7526" transform="translate(-275.6136 851.8911) rotate(-65.0864)"/>
      <rect x="502.1063" y="628.6946" width="8.2246" height="4.7528" transform="translate(-279.3903 824.2715) rotate(-65.0811)"/>
    </g>
  </g>
  <g>
    <polygon points="242.4074 283.581 558.3158 283.581 557.9141 505.0387 242.4074 283.581" style="fill: #fff; fill-rule: evenodd;"/>
    <rect x="398.896" y="201.2547" width="2.4721" height="386.1411" transform="translate(-152.4095 495.7937) rotate(-54.9871)"/>
  </g>
  <path d="M400.2155,750c-73.6835,0-154.8953-51.1837-159.6331-163.8547l-.0009-303.9472h318.8462l-.0017,303.9387c-3.8877,112.1973-84.9513,163.5906-158.6228,163.8632h-.5878ZM243.0535,284.6701v301.4241c3.2735,77.8114,53.8209,161.4338,157.0325,161.4338.2402,0,.4668,0,.707-.0017,72.5233-.2675,152.3211-50.906,156.1611-161.4543v-301.402H243.0535Z"/>
  <g>
    <path d="M387.2341,288.5867h64.3364c6.2448,0,11.3533,5.11,11.3533,11.3534v131.284l-75.6898-53.0044v-89.633ZM396.2896,297.6421h55.0462l.4659.0244.2209.0334.2116.055.2001.0737.1936.0941.1958.1185.188.1413.1663.1507.1507.1663.1413.188.1177.1936.0934.1931.0745.2028.055.2123.0334.2202.0245.4652v113.6534l-57.579-40.3222v-75.8638Z" style="fill-rule: evenodd;"/>
    <path d="M540.0827,317.7436v-17.5243l-.0238-.4632-.0334-.2152-.055-.2133-.0737-.2005-.0934-.1936-.1184-.1936-.1372-.1831-.1526-.1685-.1685-.1526-.1834-.1374-.1936-.1185-.1936-.0931-.2005-.074-.2126-.055-.2187-.0334-.4639-.0244h-52.4681l-.4661.0236-.2172.0334-.2119.055-.202.074-.1936.0938-.1902.1158-.1826.1371-.1705.1549-.154.1698-.1364.1819-.117.1917-.0941.1956-.0739.2008-.0535.2069-.0334.2158-.0229.464v133.6957l57.51,40.286v-18.7322h9.0553v36.1316l-75.6208-52.9725v-138.6349c0-6.2392,5.1039-11.3428,11.343-11.3428h52.9349c6.2392,0,11.3428,5.1051,11.3428,11.3428v17.7562h-9.0553Z" style="fill-rule: evenodd;"/>
    <path d="M367.6767,288.625h-53.263c-6.2783,0-11.4141,5.1358-11.4141,11.4141v19.1534l9.0555,6.311v-4.9672h57.98v45.5679l9.0556,6.3771v-72.4422c0-6.2768-5.1359-11.4141-11.4141-11.4141ZM312.0551,311.2782v-11.006l.0244-.4701.0348-.2258.0562-.218.076-.2069.0543-.1113.0432-.0893.1206-.1992.1435-.1914.1552-.1715.1713-.1552.1917-.1435.199-.1204.2008-.0975.2069-.076.218-.0564.2256-.0346.4703-.0244h52.7967l.4723.0244.2267.0346.2171.0564.2082.0768.2016.0975.1936.1177.1902.1428.1756.1588.1588.1749.1393.1865.1199.1959.0988.2054.0759.2069.055.2131.0349.2251.0235.4697v11.0113h-57.98Z" style="fill-rule: evenodd;"/>
  </g>
  <path d="M500.9168,465.183l-1.4021-1.1212-38.9947-27.2093-1.3983-1.9346-57.9181,41.82v-82.5843h-1.0351l-98.6032-68.2636v-1.4819h-2.472l.0043,259.2909,1.2675,14.7432,2.3629,13.2525,3.3016,11.8675,4.1057,10.5931,4.8034,9.4398,5.4277,8.4142,6.0002,7.484,6.5428,6.6424,7.0615,5.852,7.5624,5.0955,8.0266,4.3442,8.444,3.5861,8.8001,2.8093,9.0812,2.0171,9.2771,1.2062,9.3699.3833,9.3665-.4446,9.2711-1.2624,9.0701-2.0733,8.7771-2.8638,8.4159-3.6338,7.99-4.3868,7.5147-5.1296,7.0019-5.869,6.4687-6.6458,5.9167-7.4704,5.3289-8.3699,4.6952-9.3733,3.9916-10.4977,3.1807-11.7414,2.2369-13.0924,1.1585-14.7755v-118.6164ZM395.2881,477.0349h-93.7227v-67.6604l93.7227,67.6604ZM382.3138,687.4071l-8.8648-1.9677-8.5846-2.7411-8.2311-3.4958-7.8188-4.2301-7.3622-4.961-6.8716-5.6935-6.3673-6.4653-5.8426-7.2864-5.2906-8.2013-4.6892-9.2166-4.0171-10.3632-3.2377-11.6375-2.322-13.0276-1.2488-14.5268v-31.8624l97.1663-70.1591v207.3138l-7.358-.3013-9.0599-1.1772ZM498.4468,548.4585l-95.5097-68.9499h95.5067l.003,68.9499Z"/>
  <g>
    <g>
      <path d="M250.1986,251.4074c3.487-.6178,5.3538-5.3412,4.1696-10.5503-1.1842-5.2088-4.9714-8.9307-8.4584-8.3126-3.487.6177-5.3538,5.3412-4.1696,10.55,1.1846,5.2091,4.9712,8.9307,8.4584,8.3129Z" style="fill: red; fill-rule: evenodd;"/>
      <path d="M249.4455,251.9094c-3.4592,0-6.9883-3.696-8.1306-8.7175-.747-3.2863-.3348-6.5411,1.1031-8.7072.8688-1.3084,2.0495-2.1278,3.4158-2.3697,3.696-.6602,7.7259,3.2216,8.9594,8.6459.747,3.2846.3348,6.5394-1.1031,8.7055-.868,1.3084-2.0495,2.1287-3.4158,2.3706h0c-.2743.0486-.552.0724-.8288.0724ZM246.6831,232.9131c-.2334,0-.4659.0196-.6976.0605-1.1244.1993-2.1065.8884-2.8399,1.9941-1.3092,1.9711-1.6755,4.9729-.9804,8.0309,1.1329,4.9763,4.7003,8.5624,7.9576,7.9798h0c1.1252-.1993,2.1074-.8893,2.8408-1.9949,1.3084-1.9702,1.6747-4.9729.9796-8.03-1.0511-4.6228-4.2063-8.0403-7.26-8.0403Z"/>
      <path d="M260.5258,253.3509c-14.0498,3.8674-21.9007-23.2668-7.1676-28.1595l6.4849,11.6048.6827,16.5548Z" style="fill: #ffcb00; fill-rule: evenodd;"/>
      <path d="M257.8129,254.1659c-5.892,0-10.2124-5.2932-11.916-10.9058-3.0401-10.0182,1.6653-16.6035,7.3239-18.4826l.3416-.1133,6.7165,12.1145.6968,16.9008-.3339.092c-.977.2683-1.9217.3944-2.8289.3944ZM253.156,225.7238c-7.2157,2.6304-8.4057,10.7533-6.4244,17.2833,1.8161,5.984,6.7498,11.5983,13.3436,10.0096l-.6644-16.0984-6.2549-11.1945Z"/>
      <path d="M549.8972,251.3851c-3.4869-.6178-5.3537-5.3412-4.1695-10.5501,1.1839-5.209,4.9711-8.9307,8.4583-8.3129,3.487.6178,5.3538,5.3413,4.1696,10.5503-1.1849,5.2089-4.9714,8.9307-8.4584,8.3127Z" style="fill: red; fill-rule: evenodd;"/>
      <path d="M550.6507,251.8864c-.2777,0-.5537-.0239-.8297-.0724-1.3663-.2419-2.5469-1.0614-3.4158-2.3706-1.4379-2.1653-1.8501-5.4201-1.1039-8.7047,1.2334-5.4235,5.2557-9.2899,8.9611-8.6459,1.3663.2419,2.5469,1.0614,3.4158,2.3697,1.4379,2.1662,1.8501,5.4209,1.1039,8.7064-1.1431,5.0214-4.673,8.7175-8.1314,8.7175ZM553.4123,232.891c-3.0546,0-6.208,3.4175-7.2591,8.0403-.6951,3.0572-.3288,6.0589.9796,8.03.7326,1.1048,1.7156,1.7948,2.8416,1.9941h0c3.2352.5801,6.8247-3.0026,7.9559-7.9798.6951-3.0572.3288-6.0589-.9796-8.03-.7326-1.1057-1.7156-1.7948-2.8416-1.9941-.23-.0409-.4634-.0605-.6968-.0605Z"/>
      <path d="M539.5698,253.3285c14.0498,3.8674,21.9008-23.2668,7.1678-28.1593l-6.4851,11.6048-.6827,16.5545Z" style="fill: #ffcb00; fill-rule: evenodd;"/>
      <path d="M542.2825,254.1437c-.9063,0-1.8501-.1252-2.828-.3944l-.3339-.092.7513-17.0959,6.6612-11.9194.3424.1133c5.6577,1.8791,10.3632,8.4645,7.3239,18.4835-1.7036,5.6117-6.0257,10.9049-11.9169,10.9049ZM540.0201,252.9946c6.5981,1.5886,11.5284-4.0248,13.3445-10.0096,1.9813-6.53.7905-14.6529-6.4244-17.2833l-6.2574,11.1945-.6627,16.0984Z"/>
      <path d="M539.5657,259.6645l10.581-37.7157c-100.2083-33.0278-199.8326-32.7435-300.295-.0007l10.5808,37.7156c92.1677-22.6703,185.2186-22.6224,279.1333.0007Z" style="fill: #ffcb00; fill-rule: evenodd;"/>
      <path d="M259.8206,260.712l-11.0344-39.3333.7956-.2598c101.7797-33.1721,200.1853-33.1713,300.8372.0009l.7922.2615-11.0327,39.3282-.8177-.1968c-93.4353-22.5083-187.2122-22.5091-278.7199-.0026l-.8203.2019ZM399.2726,241.8853c46.4263,0,93.0972,5.5794,139.6794,16.7347l10.1298-36.1032c-99.749-32.707-197.2985-32.7045-298.1634.0026l10.1255,36.0956c45.6231-11.1528,91.8084-16.7296,138.2287-16.7296Z"/>
      <path d="M252.8503,224.0114c-.8832.2793-1.818.4757-2.7982.4757-4.6488,0-8.4193-3.7703-8.4193-8.4186,0-3.5553,2.2408-6.6112,5.3587-7.8456,98.978-31.4325,207.0287-31.431,306.0152.0007,3.1179,1.2343,5.3587,4.2903,5.3587,7.8455,0,4.6481-3.7705,8.4186-8.4196,8.4186-.98,0-1.914-.1963-2.7982-.4757-95.13-30.0957-199.1664-30.0945-294.2974-.0007Z" style="fill: #ffcb00; fill-rule: evenodd;"/>
      <path d="M549.9454,225.3601c-.9591,0-1.9592-.1687-3.0597-.5171-94.7164-29.9634-199.049-29.9634-293.7723,0-1.098.3475-2.0989.5162-3.0614.5162-5.1237,0-9.2916-4.1679-9.2916-9.2907,0-3.7778,2.3749-7.2566,5.9099-8.6561,98.8912-31.4072,207.7562-31.4055,306.6006-.0204,3.5912,1.42,5.9661,4.8988,5.9661,8.6774,0,5.1228-4.1688,9.2907-9.2916,9.2907ZM400.0009,200.626c49.9469,0,99.8767,7.5164,147.4096,22.5543.9285.293,1.7564.4353,2.535.4353,4.162,0,7.5471-3.3851,7.5471-7.5462,0-3.0699-1.9319-5.8971-4.8059-7.0351-98.4457-31.2556-206.9368-31.2573-305.431.0204-2.8186,1.1184-4.7506,3.9447-4.7506,7.0138,0,4.1611,3.386,7.5462,7.5471,7.5462.7811,0,1.6108-.1423,2.535-.4344h0c47.526-15.0345,97.4797-22.5543,147.4138-22.5543Z"/>
      <path d="M270.179,248.2227c-6.7407,0-12.2053-5.4647-12.2053-12.2053s5.4646-12.2052,12.2053-12.2052,12.2051,5.4644,12.2051,12.2052-5.4646,12.2053-12.2051,12.2053Z" style="fill: #ffcb00; fill-rule: evenodd;"/>
      <path d="M270.1786,248.6589c-6.9704,0-12.6409-5.6714-12.6409-12.6418s5.6705-12.6409,12.6409-12.6409,12.6418,5.6705,12.6418,12.6409-5.6714,12.6418-12.6418,12.6418ZM270.1786,224.2485c-6.4891,0-11.7686,5.2795-11.7686,11.7686s5.2795,11.7695,11.7686,11.7695,11.7695-5.2795,11.7695-11.7695-5.2795-11.7686-11.7695-11.7686Z"/>
      <circle cx="356.4166" cy="219.2775" r="12.2053" style="fill: #ffcb00;"/>
      <path d="M356.417,231.9191c-6.9704,0-12.6418-5.6714-12.6418-12.6418s5.6714-12.6409,12.6418-12.6409,12.6409,5.6705,12.6409,12.6409-5.6705,12.6418-12.6409,12.6418ZM356.417,207.5087c-6.49,0-11.7695,5.2795-11.7695,11.7686s5.2795,11.7695,11.7695,11.7695,11.7686-5.2795,11.7686-11.7695-5.2795-11.7686-11.7686-11.7686Z"/>
      <path d="M270.1786,228.367c-4.2182,0-7.6501,3.432-7.6501,7.6501s3.432,7.651,7.6501,7.651,7.651-3.432,7.651-7.651-3.432-7.6501-7.651-7.6501Z" style="fill: #fff;"/>
      <path d="M356.4166,226.7399c-4.121,0-7.4622-3.3415-7.4622-7.4624s3.3413-7.4621,7.4622-7.4621,7.4624,3.3412,7.4624,7.4621-3.3415,7.4624-7.4624,7.4624" style="fill: #fff; fill-rule: evenodd;"/>
      <polygon points="285.7715 232.1424 311.0486 216.9399 340.6875 220.4644 315.6765 235.7918 285.7715 232.1424" style="fill: #ffcb00; fill-rule: evenodd;"/>
      <path d="M315.7745,236.2429l-.1508-.0187-31.1636-3.8025,26.4914-15.9323,31.0349,3.6909-26.212,16.0626ZM287.082,231.8628l28.4965,3.4771,23.8099-14.5907-28.2427-3.3587-24.0637,14.4723Z"/>
      <polygon points="296.2387 229.9114 311.8217 220.5391 330.3121 222.7382 314.8921 232.1877 296.2387 229.9114" style="fill: blue; fill-rule: evenodd;"/>
      <rect x="376.6005" y="205.6821" width="46.8579" height="24.336" rx="12.1674" ry="12.1674" style="fill: #ffcb00;"/>
      <path d="M411.2908,230.4539h-22.5228c-6.9499,0-12.6034-5.6535-12.6034-12.6034s5.6535-12.6043,12.6034-12.6043h22.5228c6.9491,0,12.6034,5.6535,12.6034,12.6034s-5.6543,12.6043-12.6034,12.6043ZM388.768,206.1185c-6.4687,0-11.7312,5.2625-11.7312,11.7312s5.2625,11.732,11.7312,11.732h22.5228c6.4687,0,11.7312-5.2625,11.7312-11.7312s-5.2625-11.732-11.7312-11.732h-22.5228Z"/>
      <path d="M388.7679,211.2546h22.523c3.6277,0,6.5949,2.9672,6.5949,6.595v.0007c0,3.6277-2.9672,6.5949-6.5949,6.5949h-22.523c-3.6275,0-6.5949-2.9672-6.5949-6.5949v-.0007c0-3.6278,2.9674-6.595,6.5949-6.595" style="fill: red; fill-rule: evenodd;"/>
      <path d="M400.0009,250.1864c49.131,0,96.3958,8.078,140.5226,22.9498.8179.2669,1.6907.4116,2.597.4116,4.6097,0,8.3482-3.7391,8.3482-8.3483,0-3.6076-2.2548-6.6697-5.4619-7.835-94.1459-31.8276-197.8709-31.8288-292.0156-.0007-3.2068,1.1652-5.4617,4.2276-5.4617,7.8349,0,4.6092,3.7383,8.3483,8.3483,8.3483.9063,0,1.7791-.1447,2.5969-.4116,44.1268-14.8718,91.3951-22.949,140.526-22.949Z" style="fill: #ffcb00; fill-rule: evenodd;"/>
      <path d="M543.1207,274.4203c-.9762,0-1.9421-.1525-2.8672-.454-45.1035-15.2014-92.2888-22.9078-140.2526-22.9078s-95.1534,7.7063-140.2475,22.9035c-.9327.3049-1.8978.4574-2.8757.4574-5.0836,0-9.22-4.1364-9.22-9.2209,0-3.8647,2.426-7.3426,6.0359-8.6553,94.3519-31.8961,198.2543-31.8978,292.5925-.0051,3.6287,1.3178,6.0547,4.7957,6.0547,8.6612,0,5.0845-4.1364,9.2209-9.22,9.2209ZM400.0009,249.3139c48.153,0,95.5257,7.737,140.8012,22.9964.7428.2411,1.5247.3654,2.3186.3654,4.1228,0,7.4755-3.3536,7.4755-7.4764,0-3.1338-1.9643-5.9533-4.8877-7.0147-93.96-31.7658-197.4672-31.7641-291.4375.0051-2.9047,1.0554-4.869,3.8749-4.869,7.0087,0,4.1228,3.3536,7.4764,7.4755,7.4764.7939,0,1.5767-.1244,2.3272-.3688,45.2653-15.2551,92.6389-22.9921,140.7961-22.9921Z"/>
      <circle cx="529.8194" cy="235.6866" r="12.2053" style="fill: #ffcb00;"/>
      <path d="M529.8188,248.3284c-6.9695,0-12.6409-5.6714-12.6409-12.6418s5.6714-12.6418,12.6409-12.6418,12.6426,5.6714,12.6426,12.6418-5.6714,12.6418-12.6426,12.6418ZM529.8188,223.9171c-6.4891,0-11.7686,5.2795-11.7686,11.7695s5.2795,11.7695,11.7686,11.7695,11.7703-5.2795,11.7703-11.7695-5.2795-11.7695-11.7703-11.7695Z"/>
      <path d="M443.5815,231.4836c-6.7405,0-12.2051-5.4647-12.2051-12.2054s5.4646-12.2053,12.2051-12.2053,12.2053,5.4646,12.2053,12.2053-5.4646,12.2054-12.2053,12.2054Z" style="fill: #ffcb00; fill-rule: evenodd;"/>
      <path d="M443.5813,231.9199c-6.9695,0-12.6409-5.6714-12.6409-12.6418s5.6714-12.6418,12.6409-12.6418,12.6409,5.6714,12.6409,12.6418-5.6714,12.6418-12.6409,12.6418ZM443.5813,207.5087c-6.4891,0-11.7686,5.2795-11.7686,11.7695s5.2795,11.7695,11.7686,11.7695,11.7686-5.2795,11.7686-11.7695-5.2795-11.7695-11.7686-11.7695Z"/>
      <path d="M529.8188,228.0356c-4.2182,0-7.651,3.432-7.651,7.651s3.4328,7.6501,7.651,7.6501,7.6527-3.432,7.6527-7.6501-3.4328-7.651-7.6527-7.651Z" style="fill: #fff;"/>
      <circle cx="443.5813" cy="219.2782" r="7.651" style="fill: #fff;"/>
      <polygon points="514.2266 232.1432 488.9498 216.9406 459.3109 220.4652 484.3216 235.7925 514.2266 232.1432" style="fill: #ffcb00; fill-rule: evenodd;"/>
      <path d="M484.223,236.2437l-26.212-16.0635,31.0366-3.6901,26.4897,15.9323-31.3143,3.8212ZM460.6107,220.7492l23.8099,14.5915,28.4965-3.4771-24.0637-14.4723-28.2427,3.3578Z"/>
      <polygon points="503.7593 229.9121 488.1764 220.5398 469.6862 222.7389 485.106 232.1883 503.7593 229.9121" style="fill: blue; fill-rule: evenodd;"/>
    </g>
    <g>
      <g>
        <path d="M399.9975,154.3825c26.7591,37.1765,55.5532,40.7303,86.388,10.6609,19.9073,45.5304,82.0125,45.6838,105.0068-7.6376-5.5.3049-11.2293.6109-16.9585.9166-15.8901,40.9456-79.9825,32.6956-78.1479-17.8754-1.8327-5.8057-2.8259-6.6466-5.9576-2.75-33.9208,49.1659-60.692,43.8713-90.3301-8.8262-29.6384,52.6953-56.4081,57.9906-90.3281,8.8255-3.1319-3.8966-4.1252-3.0557-5.9578,2.75,1.8348,50.5709-62.2578,58.8209-78.1479,17.8754-5.7293-.3057-11.4586-.6116-16.9586-.9166,22.9945,53.3214,85.0997,53.1681,105.0068,7.6378,30.8349,30.0694,59.6262,26.5154,86.3849-10.6604Z" style="fill: #ffcb00; fill-rule: evenodd;"/>
        <path d="M535.3573,199.2197c-21.1863,0-39.9432-12.4808-49.2603-32.6866-14.7551,14.0915-29.2887,20.6079-43.1784,19.4068-14.813-1.2931-29.2478-11.4083-42.9211-30.0724-13.6733,18.6641-28.1081,28.7793-42.9194,30.0715-13.9152,1.2087-28.4241-5.3162-43.1784-19.406-9.3146,20.2041-28.074,32.6849-49.2586,32.6858h-.1354c-23.97-.0605-45.6963-15.9502-56.7009-41.4679l-.5588-1.2948,1.408.0775c5.4993.3049,11.2277.6107,16.957.9166l.5622.0307.2044.5247c8.4116,21.6744,29.5383,27.9846,45.6214,24.6693,23.717-4.8877,31.437-25.7861,30.8416-42.1971l-.006-.1508.0451-.1431c1.1278-3.5699,1.9736-5.4346,3.4694-5.7148,1.3322-.2564,2.5623.8901,4.001,2.6807,16.0533,23.2647,30.4864,34.2616,44.1656,33.6168,14.4476-.6619,29.0758-14.5064,44.7219-42.3232l.7607-1.3518.7607,1.3518c15.6461,27.8176,30.2751,41.6622,44.7219,42.3249,13.7397.6397,28.1149-10.3529,44.1307-33.5674,1.4736-1.8416,2.6985-2.9865,4.0376-2.7309,1.4958.2802,2.3425,2.1449,3.4686,5.7148l.046.1431-.0051.1508c-.5963,16.411,7.1246,37.3094,30.8407,42.1971,16.0771,3.3127,37.2106-2.9924,45.6214-24.6693l.2027-.5247.5639-.0307c5.7276-.3058,11.4569-.6116,16.9579-.9166l1.4072-.0775-.5588,1.2948c-11.0054,25.5177-32.7318,41.4066-56.7001,41.4671-.046,0-.092.0009-.1363.0009ZM486.6796,163.5381l.5043,1.1559c8.8452,20.2288,27.2972,32.7803,48.1734,32.7803h.1312c22.8575-.0579,43.6401-15.0072,54.5313-39.1186-4.8826.2683-9.9287.5383-14.98.8084-8.9134,22.194-30.7555,28.6516-47.3914,25.2205-24.7111-5.0921-32.8067-26.7486-32.2394-43.8172-.8961-2.8178-1.598-4.2923-2.0818-4.3826-.1431-.0332-.7036.0486-2.3186,2.0588-16.3463,23.6974-31.2547,34.9064-45.6078,34.2676-15.0669-.6908-29.5153-14.0055-45.4025-41.87-15.8872,27.8636-30.3356,41.1783-45.4025,41.8683-14.3437.6278-29.2598-10.5701-45.6435-34.317-1.5767-1.9592-2.1474-2.0324-2.2812-2.0086-.4847.0911-1.1849,1.5656-2.0818,4.3826.5673,17.0686-7.5275,38.7251-32.2386,43.8172-16.6385,3.4354-38.4772-3.0248-47.3923-25.2205-5.0521-.27-10.0974-.5392-14.9808-.8084,10.8921,24.1123,31.6747,39.0624,54.5322,39.1195h.1312c20.8779,0,39.3273-12.5498,48.1726-32.7803l.5051-1.1559.9029.8808c14.6827,14.3181,29.0562,20.9674,42.7048,19.7825,14.5379-1.2692,28.7913-11.4731,42.3632-30.3279l.7079-.9838.7087.9838c13.5711,18.8557,27.8253,29.0596,42.364,30.3279,13.6716,1.1891,28.0246-5.4652,42.7065-19.7825l.9029-.8808Z"/>
      </g>
      <g>
        <path d="M400.1827,135.9048c-9.3251,6.9337-13.6055,4.1431-24.9023,8.2994,5.0397-11.6689-5.3261-11.8129,13.2271-22.7394-11.5547-1.9037-6.0942,10.4626-23.6707,8.434-2.8817-7.4363,4.1767-9.0393,7.1128-13.3991-3.8409-2.2416-4.8196,2.2897-9.3905,2.2849-4.5702-.0049-8.2655-5.8219-14.3422-7.6978,13.6721-15.8958,15.6301-4.7645,23.2164-4.8127-.4492-5.7187-12.0031-5.5209-8.9432-16.5413,11.5819-1.655,15.0126,12.0751,28.032,13.0823-1.8836-6.55-10.6046-6.4114-19.325-12.8385.9738-1.9057,3.2078-4.0595,6.7061-5.0118-3.9433-5.4703.7731-9.8515-2.6861-15.0821,7.5104-.9515,11.1806-3.9893,13.5852,2.1057-.7279-11.0425,4.8517-14.223,11.3799-20.7541,6.5289,6.531,12.0911,9.6843,11.3637,20.7271,2.4045-6.095,6.0748-3.0572,13.5851-2.1057-3.4597,5.2305,1.2575,9.6119-2.6858,15.0819,3.4975.9522,5.7313,3.106,6.7058,5.0112-8.7204,6.4272-17.4415,6.2893-19.3255,12.8391,13.0194-1.0073,16.4501-14.7379,28.0318-13.0821,3.0601,11.0201-8.4938,10.8223-8.9432,16.5405,7.587.0487,9.5453-11.083,23.2166,4.8127-6.0767,1.8757-9.7713,7.6927-14.3414,7.6976-4.5717.0057-5.5504-4.5254-9.3905-2.2841,2.936,4.3594,9.9935,5.9628,7.1125,13.3994-17.577,2.0282-12.1161-10.3385-23.6713-8.4341,18.5536,10.9263,8.1881,11.0705,13.2276,22.7387-11.2836-4.1502-15.5827-1.3695-24.8847-8.2717Z" style="fill: #ffcb00; fill-rule: evenodd;"/>
        <path d="M373.673,145.725l.8067-1.8663c1.6917-3.9175,1.5673-6.4133,1.4583-8.6161-.2172-4.3792.1405-7.0965,9.7396-13.0855-2.7275.1848-3.966,1.6466-5.4473,3.3953-2.4081,2.8408-5.4039,6.3818-15.4936,5.2131l-.5239-.0605-.19-.4906c-2.2283-5.7514,1.0435-8.4977,3.9303-10.9202.9217-.7743,1.868-1.5682,2.6321-2.4498-1.1074-.3143-1.8782.2121-3.0052.9745-1.2113.8194-2.719,1.8382-5.0138,1.8382h-.0085c-2.7139-.0026-5.0581-1.765-7.5402-3.6313-2.138-1.6074-4.3485-3.2693-7.0581-4.1049l-1.2726-.3935.8688-1.0094c10.048-11.6835,14.3658-9.272,18.5423-6.9397,1.3697.7641,2.6781,1.4941,4.2071,1.7385-.5571-1.2786-1.9183-2.2505-3.4464-3.3408-3.225-2.3016-7.2396-5.1654-5.2097-12.4765l.1525-.5494.5648-.0809c3.0546-.437,5.5581.1158,7.8009,1.2053l.253-.4949c1.1431-2.2369,3.3911-4.0887,6.1373-5.0998-1.5222-2.7054-1.259-5.2131-1.023-7.4542.2368-2.2556.4608-4.3851-1.0452-6.6612l-.7743-1.1704,1.3919-.1763c1.8374-.2325,3.4498-.5954,4.8724-.9157,3.2054-.7198,5.8988-1.3271,7.9184.7257.3816-7.5053,4.1671-11.0761,8.8129-15.4613.9183-.8663,1.8757-1.7692,2.8544-2.7488l.6167-.6176.6167.6176c.983.9821,1.9421,1.8876,2.8621,2.7548,4.6339,4.3698,8.4091,7.9304,8.7907,15.428,2.0205-2.0512,4.7122-1.4447,7.9167-.7257,1.4225.3203,3.0359.6832,4.8724.9157l1.3936.1763-.7751,1.1704c-1.506,2.276-1.2811,4.4056-1.0443,6.6603.2351,2.242.4992,4.7497-1.0239,7.4551,2.7428,1.0111,4.9916,2.8629,6.1382,5.099l.2521.4949c2.2437-1.0886,4.7446-1.6406,7.7992-1.2045l.5656.0809.1516.5494c2.0307,7.3111-1.9847,10.1758-5.2097,12.4774-1.5282,1.0895-2.8893,2.0605-3.4464,3.3391,1.5299-.2436,2.8382-.9745,4.208-1.7385,4.1756-2.3331,8.496-4.7429,18.5423,6.9397l.8688,1.0094-1.2726.3935c-2.7088.8356-4.9201,2.4975-7.0564,4.1049-2.4822,1.8655-4.8264,3.6287-7.5402,3.6313h-.0102c-2.2948,0-3.8008-1.0188-5.0121-1.8374-1.1278-.7615-1.9029-1.2845-3.0052-.9745.7632.8808,1.7104,1.6747,2.6321,2.449,2.8859,2.4234,6.1569,5.1697,3.9286,10.9211l-.1891.4906-.523.0605c-10.0923,1.167-13.0855-2.3723-15.4945-5.2131-1.4822-1.7479-2.7207-3.2096-5.4482-3.3945,9.5999,5.9891,9.9577,8.7055,9.7413,13.0847-.109,2.2019-.2334,4.6986,1.4583,8.6152l.8058,1.8663-1.9081-.7019c-4.3766-1.6091-7.7225-2.1645-10.6749-2.6542-4.4891-.7453-8.3869-1.3919-13.9084-5.3562-5.5393,3.9865-9.4398,4.6347-13.9331,5.3826-2.9498.4898-6.2932,1.046-10.6681,2.656l-1.9089.7019ZM386.2867,120.3955c.7121,0,1.4949.0656,2.3621.2087l2.3749.391-2.0733,1.2206c-11.5744,6.8171-11.4594,9.1212-11.2695,12.9399.0963,1.943.213,4.2906-.9097,7.6075,3.6653-1.1985,6.5794-1.6832,9.1928-2.1176,4.5913-.7632,8.2183-1.3663,13.6989-5.4414l.5205-.3867.5196.3867c5.4618,4.0521,9.0871,4.6535,13.675,5.415,2.6151.4344,5.5334.9183,9.1996,2.1159-1.1227-3.3161-1.0051-5.6637-.9097-7.6058.1891-3.8187.3032-6.1237-11.2712-12.9399l-2.0733-1.2206,2.3749-.391c5.7088-.9395,7.7668,1.4779,9.7498,3.8195,2.3152,2.7292,4.7071,5.553,13.4297,4.6662,1.4293-4.2361-.8041-6.1109-3.6049-8.4611-1.2948-1.0878-2.6338-2.2122-3.5981-3.6424l-.5196-.7717.8041-.4685c2.6065-1.5239,4.2965-.3816,5.7855.6261,1.1193.7564,2.276,1.5384,4.0359,1.5384h.0068c2.1329-.0026,4.1551-1.5222,6.4942-3.2812,1.8467-1.3893,3.9064-2.937,6.3494-3.9328-8.4943-9.5284-11.7635-7.7004-15.532-5.5973-1.8144,1.0137-3.6509,2.0375-6.191,2.0452l-.9387-.006.075-.9344c.2061-2.6355,2.3527-4.1679,4.4294-5.6492,3.1125-2.2198,6.0581-4.3204,4.6884-10.0292-5.2676-.5196-8.6783,2.3927-12.6068,5.7463-3.7906,3.236-8.0854,6.9031-14.6631,7.4116l-1.2522.0971.3475-1.2079c1.2351-4.2923,5.1449-5.9823,9.6749-7.9389,2.8672-1.2385,6.0939-2.6321,9.3325-4.9013-.7479-1.1167-2.4549-3.0222-5.7787-3.9269l-1.2164-.3305.7377-1.0213c1.8348-2.5469,1.5963-4.8298,1.3408-7.2481-.2215-2.1168-.4515-4.2957.6661-6.6433-1.3902-.2266-2.6321-.506-3.7582-.759-4.3136-.9711-6.099-1.3706-7.6288,2.5043l-2.0478,5.1952.3663-5.5726c.5912-8.9619-3.1023-12.4441-8.2132-17.2628-.7377-.6959-1.5009-1.4166-2.2812-2.1798-.7769.7607-1.5375,1.4796-2.2735,2.1738-5.1237,4.8357-8.8265,8.329-8.2353,17.2961l.3671,5.5709-2.0495-5.1935c-1.5282-3.8757-3.3127-3.4754-7.628-2.5043-1.1269.253-2.3689.5324-3.759.759,1.1176,2.3476.8884,4.5265.6661,6.6441-.2547,2.4174-.4941,4.7012,1.3416,7.2472l.736,1.0213-1.2147.3305c-3.3272.9046-5.0334,2.811-5.7795,3.926,3.2394,2.2701,6.4661,3.6636,9.3333,4.9022,4.5291,1.9566,8.4398,3.6458,9.674,7.9389l.3475,1.2079-1.253-.0971c-6.5768-.5085-10.8725-4.1756-14.6623-7.4108-3.9294-3.3553-7.3384-6.2651-12.6077-5.7472-1.368,5.7071,1.5759,7.8094,4.6875,10.0292,2.0759,1.4813,4.2233,3.0137,4.4303,5.6501l.0733.9344-.9378.006h-.0554c-2.4711,0-4.3332-1.0392-6.1348-2.0452-3.7684-2.1023-7.0394-3.9294-15.532,5.5973,2.4439.9958,4.5027,2.5444,6.3503,3.9328,2.3399,1.759,4.3613,3.2786,6.4934,3.2812h.0068c1.7607,0,2.9175-.782,4.0367-1.5392,1.489-1.0068,3.1781-2.1508,5.7864-.6261l.8041.4685-.5205.7717c-.9634,1.431-2.3033,2.5554-3.5989,3.6424-2.7999,2.351-5.0334,4.225-3.6032,8.4611,8.72.8867,11.1145-1.9353,13.428-4.6662,1.6823-1.9856,3.4141-4.0291,7.3878-4.0291ZM375.3051,93.577c.54.4481,1.0784.9072,1.6201,1.3697,3.4592,2.9524,7.0258,5.9976,12.2482,6.8315-1.3655-2.598-4.3059-3.8681-8.1791-5.5419-1.7837-.77-3.702-1.5989-5.6893-2.6594ZM425.039,93.5523c-1.9847,1.0588-3.903,1.8868-5.685,2.6568-3.874,1.6738-6.8145,2.9439-8.1791,5.5419,5.2216-.8339,8.789-3.8792,12.2474-6.8315.54-.4625,1.0784-.9208,1.6167-1.3672Z"/>
        <path d="M397.5071,101.229c-3.6088-11.9078-7.1238-19.4594-10.5469-22.6552,4.5105,4.2622,8.2343,11.7449,11.1718,22.5159.0221.1157-.1852.1852-.6249.1393" style="fill-rule: evenodd;"/>
        <path d="M402.7573,101.7764c3.6082-11.9077,7.1236-19.4593,10.5459-22.6551-4.5094,4.2622-8.234,11.7449-11.1708,22.5158-.0231.1158.1853.1853.6249.1393" style="fill-rule: evenodd;"/>
        <path d="M399.9842,121.338c5.6206,0,10.1802-4.5623,10.1802-10.1817,0-5.626-4.5596-10.1844-10.1802-10.1844-5.6242,0-10.1847,4.5584-10.1847,10.1844,0,5.6194,4.5606,10.1817,10.1847,10.1817M399.9842,119.2665c-4.4805,0-8.1122-3.6313-8.1122-8.1102s3.6317-8.1122,8.1122-8.1122c4.4767,0,8.1107,3.6327,8.1107,8.1122s-3.634,8.1102-8.1107,8.1102Z" style="fill-rule: evenodd;"/>
        <path d="M399.9821,103.8047c-4.0529,0-7.3503,3.2974-7.3503,7.3503s3.2974,7.3503,7.3503,7.3503,7.3511-3.2974,7.3511-7.3503-3.2982-7.3503-7.3511-7.3503Z" style="fill: #fff;"/>
        <path d="M390.7643,106.8864c-6.7483-1.0844-11.2647-3.6464-13.5495-7.6887,2.2157,5.4521,6.6982,8.2217,13.3441,8.4112-.0167-.2752.0683-.5851.2054-.7225" style="fill-rule: evenodd;"/>
        <path d="M408.8389,106.7206c6.7483-1.0845,11.2657-3.6465,13.5495-7.6885-2.215,5.4518-6.6974,8.2215-13.3441,8.4109.0175-.2752-.0683-.5851-.2054-.7224" style="fill-rule: evenodd;"/>
        <path d="M390.0393,112.14c-10.5754,1.2783-19.8258-5.0007-26.8987-2.4177,9.0727-.8395,12.9283,4.0887,27.0874,3.193-.0949-.2585-.1492-.5162-.1888-.7753" style="fill-rule: evenodd;"/>
        <path d="M409.961,111.9019c10.5754,1.278,19.8265-5.0007,26.8987-2.4173-9.072-.8399-12.9276,4.0883-27.0874,3.1923.0956-.2583.1492-.516.1888-.775" style="fill-rule: evenodd;"/>
        <path d="M390.4434,114.0786c-5.1477,1.2685-10.0223,3.7482-14.6246,7.4371,7.5308-4.2322,12.4965-6.4696,14.8961-6.7119-.1204-.2411-.1956-.4829-.2715-.7252" style="fill-rule: evenodd;"/>
        <path d="M409.5326,113.9978c5.1477,1.2685,10.0222,3.7482,14.6246,7.4371-7.5308-4.2322-12.4958-6.4697-14.8962-6.7119.1212-.2411.1963-.4829.2715-.7252" style="fill-rule: evenodd;"/>
        <path d="M396.4414,120.2077c-1.7177,6.1541-5.1506,11.3317-10.2995,15.532,5.4423-3.2238,9.1089-8.2837,11.0607-15.1809-.2535-.1359-.5072-.2733-.7612-.3511" style="fill-rule: evenodd;"/>
        <path d="M403.6203,120.5448c1.7177,6.1542,5.1504,11.3318,10.2995,15.5321-5.4416-3.2238-9.1091-8.2837-11.0603-15.1811.2529-.1357.5072-.273.7608-.351" style="fill-rule: evenodd;"/>
      </g>
      <g>
        <circle cx="294.0969" cy="137.2938" r="12.6601" transform="translate(-18.1945 48.882) rotate(-9.2175)" style="fill: #fff;"/>
        <path d="M294.0967,150.8265c-7.4619,0-13.5319-6.0709-13.5319-13.5327s6.07-13.5327,13.5319-13.5327,13.5327,6.0709,13.5327,13.5327-6.0709,13.5327-13.5327,13.5327ZM294.0967,125.5055c-6.4993,0-11.7874,5.2881-11.7874,11.7882s5.2881,11.7882,11.7874,11.7882,11.7882-5.2881,11.7882-11.7882-5.2881-11.7882-11.7882-11.7882Z"/>
        <path d="M319.2291,146.4299c-6.9921,0-12.6602-5.6678-12.6602-12.6602s5.6681-12.6599,12.6602-12.6599,12.6602,5.6678,12.6602,12.6599-5.6681,12.6602-12.6602,12.6602Z" style="fill: #fff; fill-rule: evenodd;"/>
        <path d="M319.2294,147.3017c-7.4619,0-13.5327-6.07-13.5327-13.5319s6.0709-13.5319,13.5327-13.5319,13.5319,6.07,13.5319,13.5319-6.07,13.5319-13.5319,13.5319ZM319.2294,121.9824c-6.5002,0-11.7882,5.2881-11.7882,11.7874s5.2881,11.7874,11.7882,11.7874,11.7874-5.2881,11.7874-11.7874-5.2881-11.7874-11.7874-11.7874Z"/>
        <path d="M303.6476,126.6265c6.9921,0,12.6599-5.6678,12.6599-12.6602s-5.6678-12.6599-12.6599-12.6599-12.6602,5.6678-12.6602,12.6599,5.6681,12.6602,12.6602,12.6602Z" style="fill: #fff; fill-rule: evenodd;"/>
        <path d="M303.6472,127.4988c-7.4619,0-13.5319-6.0709-13.5319-13.5327s6.07-13.5319,13.5319-13.5319,13.5327,6.07,13.5327,13.5319-6.0709,13.5327-13.5327,13.5327ZM303.6472,102.1786c-6.4993,0-11.7874,5.2881-11.7874,11.7874s5.2881,11.7882,11.7874,11.7882,11.7882-5.2881,11.7882-11.7882-5.2881-11.7874-11.7882-11.7874Z"/>
      </g>
      <g>
        <path d="M610.9682,134.1523c.5433-7.2589-6.3006-18.5182-6.9498-28.5517,6.4335-4.022,14.6781-15.3133,28.6443-14.6654-13.5637-7.4275-31.6207,2.2033-36.1016,15.3097-1.6595-2.8321-8.7128-.7689-12.6679.3538,4.3333,2.3733,1.6543,9.1022,7.5069,12.4889-2.4637.4959-6.9128,2.5913-7.4624,5.9074-2.546.1318-3.8025-1.4021-9.231-.5536.3512,10.1746,5.5099,10.0903,9.1927,14.5958-2.9387,1.1223-6.8383-4.9729-15.3195-3.1171-3.3199.7258-6.9916,4.1892-12.2813,6.7414,7.4435,5.1177,7.1857,9.3522,12.1572,9.4328,3.8667.0622,7.5703-1.0955,9.433-2.0013-3.2759,4.9972-10.4756,1.254-13.4473,12.3746,5.6305,1.0456,8.5685-.8994,9.0233-.5747.473.3386-10.023,12.5752-13.1447,15.1991,13.1189,3.4432,26.4716-13.3084,38.3145-24.4628,2.6915-3.9809,9.5458-14.4417,12.3336-18.4769Z" style="fill: #ffcb00; fill-rule: evenodd;"/>
        <path d="M563.8436,178.4167c-1.2488,0-2.4975-.1533-3.7446-.4804l-1.6287-.4276,1.2879-1.0844c2.5708-2.1602,9.2609-9.8878,11.8572-13.244-1.5588.3799-4.0223.7607-7.3341.1448l-.9268-.1721.2436-.9106c1.8058-6.7583,5.2676-8.4287,8.2541-9.5003-1.0988.1567-2.2539.2402-3.4107.224-3.1687-.0511-4.4976-1.6048-6.3375-3.7556-1.3833-1.6193-3.1074-3.6347-6.3-5.8298l-1.2385-.8518,1.3527-.6525c2.2675-1.0937,4.2642-2.3808,6.0274-3.5154,2.3749-1.5299,4.426-2.851,6.4482-3.2931,5.4414-1.1942,9.0974.7027,11.7635,2.0878.46.2385.8893.4617,1.2862.6465-.4992-.4268-1.0085-.8194-1.5111-1.207-2.8689-2.2122-5.8349-4.4993-6.099-12.1238l-.0256-.7726.7632-.1193c3.5964-.563,5.4806-.1201,6.9951.2342.615.144,1.1363.2649,1.69.3041.8467-2.6338,3.7139-4.4609,6.1756-5.3673-2.1772-1.9191-2.7854-4.3834-3.3323-6.6015-.5111-2.0759-.9523-3.8689-2.6253-4.7855l-1.8672-1.023,2.2556-.6406c3.9337-1.1159,9.5965-2.7232,12.3547-1.012,2.7411-6.6305,8.881-12.4228,16.331-15.3147,7.1995-2.7948,14.4927-2.5111,20.5338.7964l3.3084,1.811-3.7684-.1746c-10.0838-.4506-17.0857,5.5036-22.7195,10.2993-1.7513,1.4915-3.4141,2.9081-4.9763,3.9464.3969,4.65,2.0938,9.5463,3.7361,14.2857,1.782,5.1424,3.4652,9.9986,3.1756,13.8794l-.0187.236-.1346.1951c-1.644,2.38-4.7548,7.076-7.5011,11.2201-1.9302,2.9115-3.7258,5.622-4.8264,7.2498l-.1244.1465c-2.0035,1.8868-4.0137,3.8979-6.1416,6.0274-9.0224,9.0258-19.1164,19.1249-29.2478,19.1249ZM562.1366,176.564c9.8674,1.3331,19.9614-8.743,29.7197-18.5056,2.1142-2.1142,4.1108-4.1126,6.1109-5.9976,1.1022-1.6329,2.8672-4.2974,4.7616-7.1569,2.6764-4.0376,5.6986-8.599,7.3835-11.048.1789-3.4933-1.414-8.088-3.0989-12.9467-1.7394-5.0231-3.5401-10.2166-3.8655-15.2526l-.0341-.5196.4429-.276c1.5793-.9881,3.3459-2.4916,5.2165-4.0836,5.1109-4.3519,11.3138-9.6314,19.9409-10.5897-4.7974-1.5307-10.1843-1.2666-15.5354.8126-7.4551,2.8936-13.5063,8.8435-15.7909,15.5268l-.6167,1.8016-.9625-1.6423c-1.1227-1.9183-6.4925-.678-10.0412.2922,1.1772,1.3075,1.6082,3.052,2.0273,4.7531.6014,2.4439,1.2232,4.9703,4.041,6.6015l1.9966,1.1551-2.2607.4549c-2.4668.4966-6.3239,2.4907-6.7736,5.1952l-.1141.6917-.7019.0366c-1.0631.0486-1.9132-.144-2.8127-.3535-1.3203-.3084-2.7974-.655-5.5538-.3186.3884,6.168,2.7105,7.9585,5.3818,10.019,1.2011.9259,2.443,1.8834,3.5776,3.2718l.7632.9361-1.1278.431c-1.5247.5818-3.0682-.2189-4.857-1.1491-2.5657-1.3314-5.7548-2.983-10.588-1.9319-1.7138.3756-3.6424,1.6176-5.8758,3.0563-1.4668.9447-3.0921,1.9915-4.9184,2.9635,2.6423,1.9898,4.1875,3.7974,5.4601,5.2855,1.7121,2.0035,2.656,3.1066,5.0376,3.1449,3.8962.0801,7.5164-1.1729,9.0377-1.9132l2.8468-1.3842-1.736,2.6474c-1.414,2.1576-3.472,2.8715-5.4635,3.5623-2.8723.9966-5.8383,2.0256-7.5999,7.6271,3.2454.4319,5.4158-.1917,6.6271-.5409.7939-.2274,1.3169-.3765,1.7922-.0358l.3458.2487.0324.4608c.0528,1.3442-8.5829,11.0088-12.215,14.6699Z"/>
        <path d="M611.6577,136.4042c8.7997,8.0989,3.2488,13.2145-12.1211,16.2891l3.6438-9.0665c2.8252-2.4072,5.6514-4.8152,8.4773-7.2226Z" style="fill: #fff; fill-rule: evenodd;"/>
        <path d="M598.8309,153.2797l4.0666-9.9849,8.772-7.473.2828.2615c3.4584,3.1824,4.8536,6.0683,4.15,8.5778-1.0307,3.6807-6.4227,6.4482-16.4809,8.4602l-.7905.1584ZM603.5449,143.8893l-3.3016,8.214c9.0718-1.9004,14.1231-4.4814,15.0192-7.6774.5895-2.1031-.6269-4.604-3.6185-7.4372l-8.099,6.9005Z"/>
        <path d="M606.4216,139.4238c-4.5402.0676-8.5336-1.9804-11.981-6.1409,1.9079,4.6274,5.8413,6.9985,11.7164,7.2172.0584-.3219.1489-.7274.2646-1.0764" style="fill-rule: evenodd;"/>
        <path d="M604.6398,143.4263c-6.8606,1.0178-17.0124.4784-30.4533-1.6174,7.619,2.4121,17.5743,3.2621,29.6591,2.5222.1241-.2479.4131-.5696.7942-.9048" style="fill-rule: evenodd;"/>
        <path d="M599.9839,149.0978c-4.3348-.0501-10.3454,1.4216-18.0272,4.419,5.0717-3.1995,11.4615-5.2821,19.1689-6.2468-.533.6588-.8372,1.244-1.1417,1.8278" style="fill-rule: evenodd;"/>
        <path d="M608.1852,139.2324c1.8676-6.196-2.4831-22.2227-9.9588-25.6959,9.5591,9.1364,9.419,20.5111,9.2796,25.1719.2092.2089.4173.4188.6792.524" style="fill-rule: evenodd;"/>
        <path d="M609.9093,134.4162c-5.0154,5.4464-9.3354,11.3685-12.8223,17.7618-.5976.8999,1.5031,2.031,2.401.7639,4.0322-5.7304,8.1707-11.4089,12.4951-16.9954.6247-.8644-1.3501-2.2123-2.0738-1.5304Z" style="fill: #ffcb00; fill-rule: evenodd;"/>
        <path d="M598.3778,153.9433c-.4225,0-.845-.1337-1.1891-.3697-.6286-.4302-.8194-1.1031-.4651-1.6363,3.4038-6.2438,7.7379-12.2491,12.8658-17.8165l.0204-.0221c.6099-.5733,1.6457-.2658,2.3067.3143.6372.5596.8007,1.2615.4191,1.7888-3.9712,5.133-8.0547,10.6868-12.491,16.992-.3714.5239-.9183.7496-1.4668.7496ZM610.2163,134.7264c-5.0717,5.5112-9.3614,11.4535-12.7465,17.6606-.1397.213.1516.4259.2112.4676.3765.2555,1.0716.3739,1.4515-.1644,4.4431-6.3145,8.5335-11.8794,12.5063-17.0107.1193-.167-.1295-.4634-.2981-.6107-.4174-.3663-.9506-.4881-1.1244-.3424Z"/>
      </g>
      <g>
        <path d="M189.0302,134.1515c-.5433-7.2589,6.3004-18.5182,6.9496-28.5517-6.4333-4.0219-14.6779-15.3131-28.6442-14.6653,13.5635-7.4276,31.6207,2.2032,36.1017,15.3099,1.6592-2.8323,8.7127-.7691,12.6678.3539-4.3333,2.373-1.6542,9.1019-7.5069,12.4886,2.4637.4959,6.9127,2.5913,7.4624,5.9077,2.5458.1315,3.8025-1.4024,9.2308-.5539-.3509,10.1748-5.5098,10.0905-9.1927,14.5958,2.939,1.1223,6.8383-4.9726,15.3198-3.1171,3.3199.7258,6.9914,4.1893,12.281,6.7414-7.4435,5.1177-7.1857,9.3522-12.1572,9.433-3.8666.0619-7.5703-1.0957-9.4327-2.0012,3.2759,4.9969,10.4756,1.2537,13.447,12.3744-5.6302,1.0455-8.5685-.8992-9.0233-.5746-.4728.3384,10.023,12.5749,13.145,15.1991-13.1192,3.443-26.4716-13.3087-38.3147-24.4627-2.6915-3.9809-9.5458-14.442-12.3334-18.4772Z" style="fill: #ffcb00; fill-rule: evenodd;"/>
        <path d="M236.1556,178.4159c-10.1323,0-20.2254-10.0974-29.2461-19.1232-2.1295-2.1295-4.1407-4.1415-6.1441-6.0283l-.1244-.1474c-1.0895-1.6108-2.8604-4.2829-4.7676-7.1612-2.7684-4.1773-5.9056-8.9125-7.5615-11.3087l-.1346-.1951-.017-.236c-.2905-3.88,1.3927-8.737,3.1747-13.8786,1.6431-4.7403,3.34-9.6366,3.7361-14.2866-1.5614-1.0384-3.225-2.4549-4.9771-3.9473-5.6339-4.7966-12.6375-10.7584-22.7178-10.2976l-3.7667.1746,3.3076-1.811c6.0419-3.3093,13.3343-3.5912,20.5321-.7973,7.45,2.8911,13.5907,8.6834,16.3327,15.3147,2.7582-1.713,8.4185-.1065,12.3504,1.0111l2.259.6414-1.8672,1.023c-1.673.9166-2.1142,2.7096-2.6261,4.7863-.5469,2.2181-1.1534,4.6824-3.3323,6.6007,2.4634.9063,5.3315,2.7335,6.1773,5.3673.5537-.0392,1.0733-.1601,1.6874-.3041,1.5171-.3544,3.4055-.7964,6.9959-.2342l.7641.1193-.0273.7726c-.2624,7.6263-3.2292,9.9134-6.0981,12.1256-.5017.3859-1.0102.7786-1.5094,1.2045.3969-.1848.8254-.4072,1.2854-.6457,2.6645-1.385,6.3162-3.2846,11.7644-2.0869,2.0205.4412,4.0708,1.7624,6.4457,3.2914,1.7633,1.1355,3.7608,2.4226,6.0274,3.5163l1.3535.6525-1.2385.8518c-3.1926,2.1951-4.9158,4.2105-6.3009,5.8307-1.8391,2.15-3.167,3.7037-6.3358,3.7556-1.1712.017-2.3135-.0681-3.4115-.2249,2.9856,1.0716,6.4482,2.7411,8.2541,9.5011l.2436.9106-.9268.1721c-3.3093.6125-5.7744.2351-7.3333-.1457,2.5963,3.3578,9.289,11.0863,11.8572,13.244l1.2896,1.0835-1.6295.4285c-1.2479.3271-2.4967.4804-3.7446.4804ZM202.0319,152.0608c1.9992,1.8851,3.9976,3.8843,6.1109,5.9985,9.755,9.7592,19.8396,19.8438,29.7197,18.5039-3.6338-3.6594-12.2687-13.3223-12.2158-14.6691l.0162-.4268.3629-.2845c.4762-.339.9992-.19,1.7905.0375,1.2113.3467,3.3757.9719,6.628.5409-1.7615-5.6015-4.7276-6.6305-7.6007-7.6271-1.9907-.6908-4.0487-1.4055-5.4635-3.564l-1.7351-2.6457,2.8459,1.3833c1.5222.7402,5.1356,1.9881,9.0377,1.914,2.3817-.0383,3.3255-1.1423,5.0376-3.1457,1.2726-1.4881,2.8178-3.2957,5.4601-5.2855-1.8263-.9719-3.4524-2.0188-4.9201-2.9643-2.2326-1.4379-4.1611-2.6798-5.8741-3.0546-4.8281-1.0545-8.0215.5997-10.588,1.9319-1.7888.9285-3.334,1.7309-4.8562,1.1482l-1.1295-.431.7649-.9361c1.1346-1.3885,2.3757-2.345,3.5759-3.271,2.673-2.0605,4.995-3.851,5.3826-10.0199-2.7539-.3382-4.2335.0085-5.5547.3186-.8995.2095-1.7505.4021-2.8118.3535l-.701-.0366-.1141-.6925c-.4481-2.7037-4.3068-4.6977-6.7736-5.1944l-2.2607-.4549,1.9958-1.1551c2.8178-1.6312,3.4405-4.1577,4.0419-6.6007.4191-1.7011.8493-3.4464,2.0273-4.754-3.5478-.9711-8.9168-2.2096-10.0403-.2922l-.9625,1.6423-.6159-1.8016c-2.2854-6.6842-8.3375-12.6341-15.7943-15.5277-5.3511-2.0767-10.7388-2.3399-15.5328-.8109,8.628.9574,14.8284,6.2361,19.9401,10.588,1.8697,1.592,3.6364,3.0963,5.2174,4.0844l.4412.276-.0332.5196c-.3262,5.0368-2.1261,10.2303-3.8672,15.2534-1.6832,4.8579-3.2761,9.4526-3.098,12.9458,1.6968,2.466,4.7446,7.0658,7.4423,11.1366,1.8731,2.8263,3.6134,5.4525,4.7046,7.0692Z"/>
        <path d="M193.5767,139.423c4.5402.0676,8.5336-1.9803,11.981-6.1409-1.9079,4.6274-5.8416,6.9985-11.7163,7.2172-.0585-.3219-.1492-.7271-.2646-1.0764" style="fill-rule: evenodd;"/>
        <path d="M195.3586,143.4255c6.8604,1.0178,17.0121.4787,30.4532-1.6174-7.6192,2.4123-17.5743,3.2621-29.6593,2.5222-.1238-.2479-.4131-.5696-.7939-.9048" style="fill-rule: evenodd;"/>
        <path d="M200.0145,149.097c4.3347-.0501,10.3454,1.4216,18.027,4.419-5.0717-3.1995-11.4613-5.2821-19.1687-6.2467.5327.6588.8372,1.2441,1.1417,1.8277" style="fill-rule: evenodd;"/>
        <path d="M191.8129,139.2316c-1.8673-6.196,2.4834-22.2226,9.9588-25.6956-9.5588,9.1361-9.419,20.5111-9.2796,25.1717-.2089.2091-.4173.4187-.6792.5239" style="fill-rule: evenodd;"/>
        <path d="M188.3406,136.4035c-8.7997,8.0991-3.2488,13.2145,12.1208,16.2892l-3.6437-9.0664c-2.8252-2.4075-5.6511-4.8154-8.4771-7.2228Z" style="fill: #fff; fill-rule: evenodd;"/>
        <path d="M201.1665,153.2789l-.7905-.1584c-10.0582-2.012-15.4493-4.7795-16.4809-8.4602-.7027-2.5094.6934-5.3954,4.15-8.5778l.2845-.2615,8.8929,7.6425,3.9439,9.8154ZM188.3544,136.988c-2.9907,2.8323-4.2088,5.3341-3.6194,7.4372.8961,3.1951,5.9474,5.777,15.0192,7.6774l-3.3008-8.214-8.099-6.9005Z"/>
        <path d="M190.089,134.4155c5.0152,5.4464,9.3354,11.3686,12.8224,17.7618.5976.8999-1.5031,2.0312-2.4011.764-4.0325-5.7305-8.1709-11.409-12.4951-16.9954-.6249-.8645,1.3501-2.2123,2.0738-1.5304Z" style="fill: #ffcb00; fill-rule: evenodd;"/>
        <path d="M201.6205,153.9433c-.5477,0-1.0946-.2257-1.466-.7496-4.4328-6.3-8.5156-11.8538-12.4842-16.9809-.3901-.5392-.2249-1.2419.4131-1.8016.6619-.5826,1.6951-.8884,2.3042-.3126l.0221.0213c5.1271,5.5683,9.4619,11.5736,12.8845,17.8489.3339.5.144,1.1729-.483,1.604-.3441.236-.7675.3705-1.1908.3705ZM189.5657,134.6659c-.2419,0-.6039.1354-.9072.4012-.1687.1474-.4182.4455-.2896.6235,3.9677,5.1262,8.059,10.6902,12.4986,16.9996.3791.5366,1.0767.4182,1.4498.1627.0596-.0409.3501-.2538.2308-.4344-3.4047-6.2395-7.6936-12.1818-12.767-17.693-.0477-.04-.1227-.0596-.2155-.0596Z"/>
      </g>
      <g>
        <path d="M505.9014,149.9544c-6.9921,0-12.6601-5.6678-12.6601-12.6599s5.668-12.6602,12.6601-12.6602,12.66,5.6681,12.66,12.6602-5.6679,12.6599-12.66,12.6599Z" style="fill: #fff; fill-rule: evenodd;"/>
        <path d="M505.9016,150.8265c-7.4619,0-13.5319-6.07-13.5319-13.5319s6.07-13.5327,13.5319-13.5327,13.5319,6.0709,13.5319,13.5327-6.07,13.5319-13.5319,13.5319ZM505.9016,125.5064c-6.4993,0-11.7874,5.2881-11.7874,11.7882s5.2881,11.7874,11.7874,11.7874,11.7874-5.2881,11.7874-11.7874-5.2881-11.7882-11.7874-11.7882Z"/>
        <path d="M480.7693,146.4306c6.9921,0,12.6599-5.6681,12.6599-12.6602s-5.6678-12.6599-12.6599-12.6599-12.6602,5.6678-12.6602,12.6599,5.6681,12.6602,12.6602,12.6602Z" style="fill: #fff; fill-rule: evenodd;"/>
        <path d="M480.7697,147.3026c-7.4619,0-13.5336-6.07-13.5336-13.5319s6.0717-13.5327,13.5336-13.5327,13.5319,6.0709,13.5319,13.5327-6.07,13.5319-13.5319,13.5319ZM480.7697,121.9824c-6.501,0-11.7891,5.2881-11.7891,11.7882s5.2881,11.7874,11.7891,11.7874,11.7874-5.2881,11.7874-11.7874-5.2881-11.7882-11.7874-11.7882Z"/>
        <path d="M496.3507,126.6272c-6.9921,0-12.6602-5.6681-12.6602-12.6602s5.6681-12.6599,12.6602-12.6599,12.6602,5.6678,12.6602,12.6599-5.6681,12.6602-12.6602,12.6602Z" style="fill: #fff; fill-rule: evenodd;"/>
        <path d="M496.3511,127.4996c-7.4619,0-13.5336-6.0709-13.5336-13.5327s6.0717-13.5319,13.5336-13.5319,13.5319,6.07,13.5319,13.5319-6.07,13.5327-13.5319,13.5327ZM496.3511,102.1795c-6.501,0-11.7891,5.2881-11.7891,11.7874s5.2881,11.7882,11.7891,11.7882,11.7874-5.2881,11.7874-11.7882-5.2881-11.7874-11.7874-11.7874Z"/>
      </g>
    </g>
  </g>
  <g>
    <circle cx="399.4165" cy="595.5826" r="69.5919" style="fill: #fff;"/>
    <path d="M399.6082,524.7535c-39.0548,0-70.8282,31.7743-70.8282,70.8282s31.7735,70.8299,70.8282,70.8299,70.8282-31.7743,70.8282-70.8299-31.7743-70.8282-70.8282-70.8282ZM356.414,560.7168c6.0848-7.5231,14.0929-13.4185,23.267-16.9581,6.8627,2.6248,13.1582,5.8939,18.7516,9.7445v19.4253l-19.9168,14.6763-18.8258-6.6349c-.0278-.0934-.0512-.1905-.0786-.2842-1.7843-6.1106-2.854-12.7639-3.1975-19.9689ZM442.3982,560.2453c-.3032,7.7131-1.445,14.8738-3.3861,21.3379l-18.1364,6.1516-19.9712-14.5659v-19.9165c5.3597-3.7113,11.5725-6.9151,18.5096-9.5461,9.0293,3.4589,16.922,9.2116,22.984,16.539ZM378.8841,541.3835c.2436-1.2022.5232-2.3595.8444-3.4641-.3183,1.1045-.601,2.2579-.8444,3.4641ZM379.7982,537.6936c.2827-.9505.5946-1.8637.9348-2.7395-.3375.8773-.6533,1.7849-.9348,2.7395ZM380.9205,534.4555c.3288-.8071.6861-1.5762,1.0648-2.3165-.3762.7422-.7376,1.5054-1.0648,2.3165ZM382.5241,531.1421c.2285-.4038.4682-.792.7128-1.1737-.2433.383-.4852.768-.7128,1.1737ZM332.6755,591.1773c-.1027-.1156-.2003-.2329-.3002-.3495.0989.1169.1983.2335.3002.3495ZM358.9849,583.3415l18.6865,6.5857,7.6786,23.592-11.787,15.1233c-6.479-.0408-13.3659-.9903-20.5054-2.823-5.2968-8.1261-8.5261-17.7104-8.9344-28.0147,4.5692-5.571,9.5568-10.4246,14.8617-14.4632ZM347.4156,639.6551c.005-.8607.0735-1.7555.1925-2.677-.1178.9216-.1856,1.8176-.1895,2.6808-.0011-.0012-.0019-.0026-.003-.0037ZM347.6428,636.6831c.0519-.3672.1187-.7421.1885-1.1186-.0692.3762-.137.7516-.1885,1.1186ZM347.9571,634.915c.0731-.3497.152-.7022.24-1.0595-.0877.3571-.1672.7101-.24,1.0595ZM348.405,633.0668c.0926-.3402.1822-.6787.2879-1.0255-.1054.3467-.1956.6855-.2879,1.0255ZM349.0657,630.9053c.1584-.4684.3279-.9422.5093-1.422-.1809.4797-.3513.954-.5093,1.422ZM350.0371,628.2927c.1142-.2792.2371-.5625.3588-.8454-.1212.2827-.245.5666-.3588.8454ZM385.1614,649.2059c-.2444-.3634-.4854-.7276-.7239-1.0922-.5886-.9022-1.1618-1.8056-1.7111-2.7109-.3728-.613-.7342-1.2281-1.0901-1.8443-.5673-.9841-1.1156-1.9695-1.6372-2.9565-.1937-.3655-.3963-.7296-.584-1.0959-.6603-1.2921-1.2748-2.5866-1.858-3.8827-.1353-.2996-.2728-.599-.4041-.899-.5994-1.3743-1.1588-2.7504-1.6726-4.128-.0332-.0887-.0648-.1774-.0976-.2662l12.1117-15.5401h24.576l11.228,15.4394c-2.3589,6.4818-5.6552,12.902-9.817,19.1166-4.4384,1.1469-9.0814,1.7789-13.8732,1.7789-4.9972,0-9.8369-.676-14.4467-1.9191ZM446.0512,625.9846c-7.1798,1.8854-14.1019,2.883-20.6209,2.9714l-11.4584-15.7562,7.5052-23.059,18.4573-6.2604c5.4033,4.1347,10.4758,9.1174,15.1098,14.8426-.5626,10.0245-3.7912,19.3423-8.993,27.2615ZM457.8215,559.8049c-3.5708-1.181-8.04-1.4786-13.3171-.902-6.3042-7.7016-14.5408-13.7555-23.9693-17.4156-.0009-.0043-.0019-.0081-.0028-.0124-.1324-.6396-.2731-1.2638-.4227-1.872-.0018-.0076-.0038-.0149-.0056-.0225-1.0501-4.2606-2.5202-7.7521-4.4006-10.4201,17.7348,4.2985,32.7887,15.5202,42.1181,30.6445ZM383.2629,529.2336c-2.2264,3.2849-3.8336,7.4275-4.802,12.352-9.2035,3.617-17.2738,9.502-23.4924,16.9898-5.1543-.6325-9.5571-.4439-13.1408.56,9.3128-14.7104,24.0755-25.6237,41.4351-29.9018ZM331.4796,590.319c2.4426,3.0913,5.8635,5.8706,10.2078,8.2946.5262,10.1531,3.6813,19.6127,8.7864,27.7353-2.171,4.7943-3.3155,9.104-3.4191,12.8608-9.8528-11.8476-15.8028-27.0499-15.8028-43.628,0-1.773.0916-3.5239.2276-5.2627ZM373.1187,658.5904c3.7387-1.3715,7.5145-3.7822,11.097-7.0834,4.9058,1.3521,10.0628,2.0916,15.3925,2.0916,5.0399,0,9.924-.6654,14.5891-1.8793,3.6755,3.4239,7.4169,5.8339,11.1629,7.1632-7.9539,3.2482-16.6436,5.0554-25.752,5.0554-9.3885,0-18.3384-1.9077-26.4895-5.3476ZM451.4926,640.0095c-.0007-.2742-.0195-.5574-.0318-.8374-.0197-.4435-.054-.8945-.1022-1.353-.0311-.2945-.0605-.5883-.1035-.8889-.0457-.3217-.1039-.6497-.163-.9783-.0428-.2362-.0881-.4736-.138-.7134-.0798-.3869-.1656-.7767-.2633-1.1728-.0247-.0992-.0533-.2005-.0792-.3003-.5366-2.0909-1.3208-4.3058-2.3509-6.6377,5.3693-8.2519,8.705-17.9403,9.2721-28.3589,4.3876-2.5117,7.8148-5.3896,10.1955-8.5955.141,1.7867.2346,3.5863.2346,5.4085,0,16.9517-6.2161,32.4694-16.4701,44.4278Z" style="fill: #191919;"/>
    <g>
      <path d="M370.994,551.1997h15.3067v3.0189h-12.2459v9.5246h12.2459v3.0189h-12.2459v14.9672h-3.0609v-30.5295Z"/>
      <path d="M435.107,556.2574l-2.3096,1.7639c-2.752-3.3913-6.284-5.0857-10.6029-5.0857-3.5203,0-6.5517,1.2292-9.0965,3.6899-2.5425,2.4607-3.816,5.4769-3.816,9.0441,0,3.5695,1.2456,6.5487,3.7345,8.9423,2.4889,2.3912,5.6041,3.588,9.3433,3.588,4.1792,0,7.66-1.6134,10.4376-4.8403l2.3096,1.7639c-1.4575,1.9144-3.2991,3.3704-5.5273,4.3681-2.2281.9977-4.6891,1.4977-7.3852,1.4977-4.7031,0-8.554-1.4769-11.5505-4.4306-2.9988-2.9514-4.4959-6.6853-4.4959-11.1969,0-2.7894.6938-5.3658,2.0838-7.7316,1.3876-2.3635,3.3131-4.2177,5.7741-5.5579,2.461-1.338,5.1082-2.0093,7.9417-2.0093,2.8312,0,5.376.5347,7.632,1.5996,2.2538,1.0671,4.0977,2.5996,5.5273,4.595Z"/>
    </g>
  </g>
</svg>