<?xml version="1.0" encoding="UTF-8"?>
<svg data-name="图层_1" xmlns="http://www.w3.org/2000/svg" version="1.1" viewBox="0 0 800 800">
  <!-- Created by @FCLOGO 2024-12-20 GMT+8 13:21:27 . https://fclogo.top/ -->
<!-- FOR PERSONAL USE ONLY NOT FOR COMMERCIAL USE -->
  <path d="M348.2194,774.301c-.786,0-1.3752-.2173-1.7682-.6519-.393-.4352-.5284-1.03-.406-1.7856l.2518-1.6478c.122-.755.4501-1.3504.9841-1.785.5339-.4352,1.1939-.6525,1.9799-.6525.7553,0,1.3293.1987,1.7223.5954.3927.3967.551.9381.4747,1.6248h-1.2358c.0304-.3589-.0553-.637-.2573-.8357-.2024-.1981-.4979-.2974-.8869-.2974-.4197,0-.763.1167-1.03.3489-.2673.2328-.4349.5631-.5035.9903l-.2632,1.659c-.0686.4352-.0056.7686.1887,1.0015.1946.2328.5017.3489.9214.3489.389,0,.7152-.0987.9785-.2974.2632-.1981.4365-.4805.5206-.8469h1.2358c-.1372.6867-.4672,1.2306-.9897,1.631-.5228.4005-1.1616.6004-1.9169.6004ZM352.7967,774.1868l.9956-6.2943h1.1902l-.1946,1.1902c.3359-.8698.9729-1.3044,1.9113-1.3044.6712,0,1.1691.208,1.4932.624.3244.416.4293.9859.3148,1.7105l-.0686.4234h-1.2703l.0571-.3204c.0689-.4501.0115-.7953-.1714-1.0356-.1832-.2403-.4771-.3607-.8813-.3607-.4045,0-.7401.1223-1.007.3663-.2673.2446-.4349.588-.5035,1.03l-.6296,3.9711h-1.2358ZM361.9058,774.301c-.7705,0-1.3463-.2229-1.7279-.6693s-.515-1.0356-.4005-1.7682l.2518-1.6478c.0838-.488.2573-.9152.5206-1.2815s.6007-.6507,1.0129-.8524c.4119-.2024.8732-.3036,1.3845-.3036.7705,0,1.3485.2235,1.7338.6693.3852.4464.5169,1.0356.3949,1.7682l-.1717,1.1213h-3.845l-.0916.5265c-.1527.9536.2173,1.4305,1.1098,1.4305.7171,0,1.175-.2477,1.3734-.7438h1.2247c-.1679.5339-.5035.9599-1.007,1.2759-.5038.3166-1.0912.475-1.7626.475ZM361.2306,770.2157l-.0456.2862,2.6548-.0118.0459-.2856c.0686-.4656.0133-.822-.1661-1.0704-.1791-.2477-.4861-.3719-.9211-.3719-.4427,0-.7953.126-1.0586.3775-.2632.2521-.4331.6109-.5094,1.076ZM368.3258,774.301c-.6333,0-1.1027-.2117-1.4078-.6351s-.3967-1.0008-.2744-1.7335l.2744-1.7738c.1145-.7326.393-1.3119.8357-1.7397.4424-.4272.98-.6407,1.6133-.6407.4653,0,.8298.1186,1.093.3545.2632.2365.3908.5575.3834.9617h.023l.1717-1.202h1.2358l-.9956,6.2943h-1.2247l.1946-1.2014h-.023c-.122.4116-.3511.7339-.6867.9667s-.7401.3489-1.2129.3489ZM368.9324,773.2257c.389,0,.7152-.1186.9782-.3551.2632-.2359.4293-.5718.4979-1.007l.2518-1.6478c.0686-.4272.0096-.7612-.1773-1.0015-.1872-.2403-.475-.3601-.8642-.3601-.3967,0-.7249.118-.9841.3545-.2595.2365-.4234.5724-.492,1.007l-.2518,1.6478c-.0686.4427-.0133.7804.1658,1.0133.1794.2328.4712.3489.8757.3489ZM376.3477,774.1868c-.5721,0-.9937-.1565-1.2644-.4694-.271-.3123-.3607-.7512-.2691-1.3156l.538-3.3874h-1.7394l.1714-1.1219h1.7397l.2747-1.7161h1.2358l-.2747,1.7161h2.472l-.1832,1.1219h-2.4605l-.5377,3.3874c-.0764.4421.099.6637.5262.6637h1.7167l-.1717,1.1213h-1.7738ZM382.5042,774.301c-.7705,0-1.3463-.2229-1.7279-.6693s-.515-1.0356-.4005-1.7682l.2518-1.6478c.0838-.488.2573-.9152.5206-1.2815s.6007-.6507,1.0129-.8524c.4119-.2024.8732-.3036,1.3845-.3036.7705,0,1.3485.2235,1.7338.6693.3852.4464.5169,1.0356.3949,1.7682l-.1717,1.1213h-3.845l-.0916.5265c-.1527.9536.2173,1.4305,1.1098,1.4305.7171,0,1.175-.2477,1.3734-.7438h1.2247c-.1679.5339-.5035.9599-1.007,1.2759-.5038.3166-1.0912.475-1.7626.475ZM381.829,770.2157l-.0456.2862,2.6548-.0118.0459-.2856c.0686-.4656.0133-.822-.1661-1.0704-.1791-.2477-.4861-.3719-.9211-.3719-.4427,0-.7953.126-1.0586.3775-.2632.2521-.4331.6109-.5094,1.076ZM388.9243,774.301c-.6333,0-1.1008-.2117-1.4019-.6351-.3014-.4234-.3949-1.0008-.2803-1.7335l.2744-1.7738c.1145-.7326.393-1.3119.8357-1.7397.4424-.4272.98-.6407,1.6133-.6407.4653,0,.8298.1186,1.093.3545.2632.2365.3908.5575.3834.9617h.023l.2058-1.4652.2977-1.7962h1.2358l-1.3274,8.3537h-1.2247l.1946-1.2014h-.023c-.122.4116-.3511.7339-.6867.9667s-.7401.3489-1.2129.3489ZM389.5309,773.2257c.389,0,.7152-.1186.9782-.3551.2632-.2359.4293-.5718.4979-1.007l.2518-1.6478c.0761-.4272.0189-.7612-.1717-1.0015-.1909-.2403-.4805-.3601-.8698-.3601-.3967,0-.7249.118-.9841.3545-.2595.2365-.4234.5724-.492,1.007l-.2518,1.6478c-.0764.4427-.023.7804.1602,1.0133s.4768.3489.8813.3489ZM401.0175,774.301c-.4731,0-.8394-.1161-1.0986-.3489-.2595-.2328-.3852-.5551-.3775-.9667h-.0115l-.1946,1.2014h-1.2243l1.3274-8.3537h1.2358l-.2862,1.7962-.2744,1.4652h.0456c.122-.4123.353-.7345.6923-.9673.3396-.2322.7419-.3489,1.2076-.3489.633,0,1.1002.2136,1.4016.6407.3014.4278.3949,1.007.2806,1.7397l-.2747,1.7738c-.1145.7326-.3949,1.31-.8413,1.7335-.4461.4234-.9822.6351-1.6077.6351ZM400.7657,773.2257c.3967,0,.7227-.1161.9785-.3489.2555-.2328.4216-.5706.4976-1.0133l.2518-1.6478c.0689-.4346.0115-.7705-.1714-1.007-.1832-.2365-.4734-.3545-.8698-.3545-.3893,0-.7152.1198-.9785.3601s-.429.5743-.4979,1.0015l-.2518,1.6478c-.0686.4352-.0112.7711.1717,1.007.1832.2365.4731.3551.8698.3551ZM405.4694,776.2468l.1717-1.0642h1.934c.6407,0,1.007-.3017,1.0986-.9046l.1028-.6749.2061-1.1902h-.0345c-.122.4197-.3471.7438-.6752.9729-.3281.2285-.7286.3433-1.2014.3433-.6258,0-1.093-.2005-1.4019-.601s-.4104-.9443-.3033-1.631l.5836-3.6047h1.2358l-.5606,3.4793c-.0612.4116,0,.732.1832.9611s.4653.3433.8469.3433c.389,0,.7168-.1217.9841-.3663.267-.244.4309-.5836.492-1.0182l.538-3.3992h1.2358l-1.007,6.4086c-.0993.6029-.37,1.0778-.8124,1.4249-.4427.3471-.9996.5209-1.6707.5209h-1.9455ZM417.787,770.0853h3.221l.5368-1.8545h-5.4659l-1.7081,6.4419h2.1473l.5856-2.0985h3.0257l.4392-1.7081h-3.0257l.244-.7808ZM424.229,772.9158c-.5856,0-1.0249-.3904-1.0249-1.1225,0-.8784.6344-1.7569,1.6105-1.7569.488,0,.8784.244,1.0248.7808l1.9521-.8296c-.2928-1.1713-1.2689-1.9033-2.6353-1.9033-2.7817,0-4.1482,2.1473-4.1482,3.9042s1.2689,2.8305,3.0746,2.8305c1.3665,0,2.3425-.5856,2.9769-1.4153l-1.5129-1.1713c-.3904.4392-.8296.6832-1.3177.6832ZM430.9149,768.2308h-2.1473l-1.7569,6.4419h5.1242l.488-1.8545h-2.9281l1.2201-4.5874ZM439.7481,771.0125c0-1.6593-1.3177-2.9281-3.221-2.9281-2.1961,0-3.8066,1.8057-3.8066,3.8066,0,1.6593,1.3177,2.9281,3.221,2.9281,2.1961,0,3.8066-1.8057,3.8066-3.8066ZM434.9167,771.6957c0-.8296.5856-1.7081,1.5129-1.7081.7808,0,1.1713.5368,1.1713,1.2201,0,.8296-.5856,1.7081-1.5129,1.7081-.7808,0-1.1713-.5368-1.1713-1.2201ZM443.2131,772.2326h1.0737l-.1952.6832c-.1464.0488-.3416.0976-.5856.0976-.6832,0-1.2689-.3904-1.2689-1.2201,0-1.0249.732-1.9033,1.9521-1.9033.5856,0,1.1225.244,1.5129.5856l1.3665-1.3665c-.4392-.5368-1.5129-1.0737-2.7329-1.0737-2.5865,0-4.2946,1.7569-4.2946,3.8554,0,2.0497,1.6105,2.8793,3.221,2.8793.9272,0,1.8545-.2928,2.4889-.6832l.9272-3.3186h-3.1234l-.3416,1.4641ZM450.7775,768.0844c-2.1961,0-3.8066,1.8057-3.8066,3.8066,0,1.6593,1.3177,2.9281,3.221,2.9281,2.1961,0,3.8066-1.8057,3.8066-3.8066,0-1.6593-1.3177-2.9281-3.221-2.9281ZM450.3382,772.9158c-.7808,0-1.1713-.5368-1.1713-1.2201,0-.8296.5856-1.7081,1.5129-1.7081.7808,0,1.1713.5368,1.1713,1.2201,0,.8296-.5856,1.7081-1.5129,1.7081ZM437.9424,767.4987c-.0488.2928.0976.488.4392.488s.5368-.1952.6344-.488c.0488-.244-.0976-.488-.4392-.488s-.5856.244-.6344.488ZM432.1349,765.4978c-.4392,0-.732.244-.7808.5856s.0976.5856.5368.5856.732-.244.7808-.5856c.0976-.3416-.0976-.5856-.5368-.5856ZM433.0134,767.3035c-.0976.5368.1464.8784.8296.8784.6344,0,1.0737-.3904,1.1713-.8784s-.1464-.8784-.8296-.8784c-.6832,0-1.0737.3904-1.1713.8784ZM439.6017,777.552l-2.4401-1.8057h-1.5129l4.2458,3.1722,1.6105-3.1722h-.976l-.9272,1.8057ZM425.8394,767.1571l-2.0009-1.4641,23.1323-2.7817-2.1473,4.2458h1.0248l2.6841-5.3195-26.9877,3.221,2.7817,2.0985h1.5129ZM338.7186,785.7853l.6088-3.8315h2.32l-.084.5194h-1.7636l-.1837,1.1445h1.6272l-.084.5248h-1.6166l-.2573,1.6428h-.5668ZM342.97,785.8377c-.3568,0-.6228-.1005-.7978-.3019-.175-.201-.2345-.473-.1784-.8161l.2677-1.7006c.056-.3429.2029-.6148.4408-.8161.2379-.201.5355-.3019.8923-.3019s.6228.1.7979.2993c.1748.1993.2361.4707.1837.8136l-.2677,1.7057c-.0561.3431-.2039.6151-.4435.8161-.2398.2013-.5381.3019-.895.3019ZM343.0487,785.3339c.1925,0,.3483-.0524.4672-.1575.119-.1051.1942-.2571.2257-.4568l.2678-1.7006c.0315-.1993.0051-.3517-.0787-.4565-.084-.1051-.2223-.1575-.4148-.1575s-.3473.0524-.4645.1575c-.1173.1048-.1916.2571-.2231.4565l-.2677,1.7006c-.0315.1996-.0053.3517.0787.4568s.2204.1575.4094.1575ZM344.9961,785.7853l.6088-3.8315h1.202c.2379,0,.4391.0464.6036.139.1645.0928.2835.223.357.391s.091.3656.0524.5932c-.0384.2591-.14.4838-.3044.6746-.1645.1905-.3656.3209-.6036.391l.5354,1.6428h-.6194l-.4777-1.5748h-.5406l-.2466,1.5748h-.5668ZM345.8883,783.7068h.6352c.1889,0,.349-.0558.4803-.168.1313-.1119.2107-.2623.2388-.4514.0316-.1925,0-.3454-.0944-.4593-.0945-.1136-.2362-.1706-.4252-.1706h-.6352l-.1995,1.2493ZM349.545,785.7853l.6088-3.8315h1.2544c.3709,0,.6508.1048.8399.315.1889.2099.2553.4898.1993.8398-.0384.2344-.1216.4383-.2493.6114s-.2905.307-.4881.4015c-.1978.0945-.419.1418-.6639.1418h-.6928l-.2415,1.5221h-.5668ZM350.432,783.754h.6928c.1924,0,.3568-.0587.4934-.176.1364-.117.2204-.2737.2519-.4696s-.0017-.3525-.0997-.4699-.245-.1757-.441-.1757h-.6876l-.2099,1.2911ZM352.7466,785.7853l.6088-3.8315h2.2518l-.0787.5038h-1.6954l-.1731,1.0867h1.5115l-.0787.4986h-1.5115l-.1942,1.2387h1.6901l-.0787.5038h-2.2518ZM355.8434,785.7853l.6088-3.8315h1.202c.2379,0,.4391.0464.6036.139.1645.0928.2835.223.357.391s.091.3656.0524.5932c-.0384.2591-.14.4838-.3044.6746-.1645.1905-.3656.3209-.6036.391l.5354,1.6428h-.6194l-.4777-1.5748h-.5406l-.2466,1.5748h-.5668ZM356.7356,783.7068h.6352c.1889,0,.349-.0558.4803-.168.1313-.1119.2107-.2623.2388-.4514.0316-.1925,0-.3454-.0944-.4593-.0945-.1136-.2362-.1706-.4252-.1706h-.6352l-.1995,1.2493ZM360.1316,785.8377c-.385,0-.6736-.0951-.8661-.2859-.1924-.1908-.2641-.4505-.2151-.7794h.5668c-.028.1748.0105.3121.1155.4121.1051.0997.266.1495.483.1495.2029,0,.3701-.049.5012-.1469.1313-.098.2109-.2327.2389-.4044.0209-.1504.0007-.2788-.0604-.3856-.0614-.1068-.1583-.1811-.2913-.2233l-.4566-.1364c-.266-.0803-.4619-.217-.5879-.4095-.126-.1922-.1697-.4197-.1313-.6823.035-.2099.1121-.3935.2309-.551s.2729-.2799.4619-.3673.4024-.1313.6404-.1313c.3498,0,.6158.0954.7978.2859.182.1908.2485.4437.1995.7586h-.5668c.0279-.168-.0027-.3001-.092-.3964-.0891-.0963-.2301-.1444-.4225-.1444-.1889,0-.343.0447-.4619.1338-.119.0894-.1889.2144-.21.3753-.0245.1506-.007.2791.0525.3859s.1575.1811.2939.223l.4672.1469c.2624.0806.4558.2173.5801.4095.1242.1925.1653.4217.1233.6877-.035.217-.1155.4058-.2415.5667-.1259.1612-.2878.2862-.4855.3753-.1976.0894-.419.1338-.6639.1338ZM363.2651,785.8377c-.3568,0-.6228-.1005-.7978-.3019-.175-.201-.2345-.473-.1784-.8161l.2677-1.7006c.056-.3429.2029-.6148.4408-.8161.2379-.201.5355-.3019.8923-.3019s.6228.1.7979.2993c.1748.1993.2361.4707.1837.8136l-.2677,1.7057c-.0561.3431-.2039.6151-.4435.8161-.2398.2013-.5381.3019-.895.3019ZM363.3439,785.3339c.1925,0,.3483-.0524.4672-.1575.119-.1051.1942-.2571.2257-.4568l.2678-1.7006c.0315-.1993.0051-.3517-.0787-.4565-.084-.1051-.2223-.1575-.4148-.1575s-.3473.0524-.4645.1575c-.1173.1048-.1916.2571-.2231.4565l-.2677,1.7006c-.0315.1996-.0053.3517.0787.4568s.2204.1575.4094.1575ZM365.2754,785.7853l.6088-3.8315h.7086l.6194,3.186c.007-.098.0165-.217.0289-.3571.0121-.1398.0271-.2851.0446-.4354.0175-.1506.0367-.2888.0577-.4146l.315-1.9788h.525l-.609,3.8315h-.7085l-.6141-3.186c-.0071.0945-.0167.209-.0289.3437s-.0272.2757-.0446.4226c-.0177.1469-.0367.2833-.0578.4095l-.315,2.0102h-.5301ZM368.2252,785.7853l1.5851-3.8315h.7454l.3726,3.8315h-.5616l-.0735-.9711h-1.0865l-.3884.9711h-.5932ZM369.3852,784.3418h.8714l-.0893-1.1023c-.0175-.1959-.0298-.3654-.0367-.5089-.0071-.1435-.0105-.2432-.0105-.2993-.0175.0561-.0517.1558-.1024.2993s-.1146.3112-.1915.5038l-.441,1.1075ZM371.7208,785.7853l.6088-3.8315h.567l-.525,3.3118h1.6744l-.0787.5197h-2.2465ZM376.6785,785.8377c-.3673,0-.6342-.1005-.8003-.3019-.1663-.201-.2214-.475-.1654-.8213l.4357-2.7608h.567l-.4357,2.7554c-.0315.1962-.008.35.0708.4619.0787.1122.2144.168.4068.168.1925,0,.3473-.0558.4646-.168.1172-.1119.1915-.2657.2231-.4619l.4355-2.7554h.567l-.4357,2.7608c-.056.35-.2003.6245-.433.8241-.2328.1993-.5328.299-.9003.299ZM379.8435,785.8377c-.385,0-.6736-.0951-.8661-.2859-.1924-.1908-.2641-.4505-.2151-.7794h.5668c-.028.1748.0105.3121.1155.4121.1051.0997.266.1495.483.1495.2029,0,.3701-.049.5012-.1469.1313-.098.2109-.2327.2389-.4044.0209-.1504.0007-.2788-.0604-.3856-.0614-.1068-.1583-.1811-.2913-.2233l-.4566-.1364c-.266-.0803-.4619-.217-.5879-.4095-.126-.1922-.1697-.4197-.1313-.6823.035-.2099.1121-.3935.2309-.551s.2729-.2799.4619-.3673.4024-.1313.6404-.1313c.3498,0,.6158.0954.7978.2859.182.1908.2485.4437.1995.7586h-.5668c.0279-.168-.0027-.3001-.092-.3964-.0891-.0963-.2301-.1444-.4225-.1444-.1889,0-.343.0447-.4619.1338-.119.0894-.1889.2144-.21.3753-.0245.1506-.007.2791.0525.3859s.1575.1811.2939.223l.4672.1469c.2624.0806.4558.2173.5801.4095.1242.1925.1653.4217.1233.6877-.035.217-.1155.4058-.2415.5667-.1259.1612-.2878.2862-.4855.3753-.1976.0894-.419.1338-.6639.1338ZM381.9062,785.7853l.6088-3.8315h2.2518l-.0787.5038h-1.6954l-.1731,1.0867h1.5115l-.0787.4986h-1.5115l-.1942,1.2387h1.6901l-.0787.5038h-2.2518ZM386.9426,785.8377c-.3568,0-.6228-.1005-.7978-.3019-.175-.201-.2345-.473-.1784-.8161l.2677-1.7006c.056-.3429.2029-.6148.4408-.8161.2379-.201.5355-.3019.8923-.3019s.6228.1.7979.2993c.1748.1993.2361.4707.1837.8136l-.2677,1.7057c-.0561.3431-.2039.6151-.4435.8161-.2398.2013-.5381.3019-.895.3019ZM387.0213,785.3339c.1925,0,.3483-.0524.4672-.1575.119-.1051.1942-.2571.2257-.4568l.2678-1.7006c.0315-.1993.0051-.3517-.0787-.4565-.084-.1051-.2223-.1575-.4148-.1575s-.3473.0524-.4645.1575c-.1173.1048-.1916.2571-.2231.4565l-.2677,1.7006c-.0315.1996-.0053.3517.0787.4568s.2204.1575.4094.1575ZM388.9529,785.7853l.6088-3.8315h.7086l.6194,3.186c.007-.098.0165-.217.0289-.3571.0121-.1398.0271-.2851.0446-.4354.0175-.1506.0367-.2888.0577-.4146l.315-1.9788h.525l-.609,3.8315h-.7085l-.6141-3.186c-.0071.0945-.0167.209-.0289.3437s-.0272.2757-.0446.4226c-.0177.1469-.0367.2833-.0578.4095l-.315,2.0102h-.5301ZM392.249,785.7853l.6088-3.8315h.567l-.525,3.3118h1.6744l-.0787.5197h-2.2465ZM396.1174,785.7853l.2204-1.4119-.7506-2.4197h.5774l.4462,1.4486c.0279.0945.0498.1837.0656.2677.0157.084.0253.1469.0288.1888.0175-.0419.0464-.1048.0867-.1888.0402-.084.0883-.1731.1442-.2677l.8976-1.4486h.5984l-1.5275,2.4197-.2204,1.4119h-.5668ZM399.217,785.7853l.6088-3.8315h.7086l.6192,3.186c.0071-.098.0165-.217.029-.3571.012-.1398.0271-.2851.0444-.4354.0177-.1506.037-.2888.0578-.4146l.315-1.9788h.5248l-.6088,3.8315h-.7085l-.6141-3.186c-.0071.0945-.0167.209-.0289.3437s-.0272.2757-.0446.4226c-.0177.1469-.0367.2833-.0578.4095l-.315,2.0102h-.5301ZM403.5053,785.8377c-.3571,0-.6231-.1005-.7979-.3019-.1751-.201-.2344-.473-.1785-.8161l.2677-1.7006c.0561-.3429.203-.6148.4411-.8161.2378-.201.5354-.3019.8922-.3019.3571,0,.6228.1.7979.2993.1748.1993.2361.4707.1837.8136l-.2677,1.7057c-.0561.3431-.2039.6151-.4437.8161-.2395.2013-.5379.3019-.8947.3019ZM403.5839,785.3339c.1925,0,.3483-.0524.4673-.1575.1187-.1051.1942-.2571.2255-.4568l.2677-1.7006c.0316-.1993.0054-.3517-.0786-.4565-.084-.1051-.2224-.1575-.4146-.1575-.1925,0-.3474.0524-.4647.1575-.117.1048-.1914.2571-.223.4565l-.2677,1.7006c-.0316.1996-.0051.3517.0789.4568.0837.1051.2204.1575.4092.1575ZM406.3814,785.7853l.5248-3.3121h-1.0234l.084-.5194h2.6193l-.084.5194h-1.0289l-.5248,3.3121h-.567ZM409.5178,785.7853l.6088-3.8315h2.32l-.084.5194h-1.7636l-.1837,1.1445h1.6272l-.084.5248h-1.6166l-.2571,1.6428h-.567ZM413.7694,785.8377c-.3571,0-.6231-.1005-.7979-.3019-.1751-.201-.2344-.473-.1785-.8161l.2677-1.7006c.0561-.3429.203-.6148.4411-.8161.2378-.201.5354-.3019.8922-.3019.3571,0,.6228.1.7979.2993.1748.1993.2361.4707.1837.8136l-.2677,1.7057c-.0561.3431-.2039.6151-.4437.8161-.2395.2013-.5379.3019-.8947.3019ZM413.848,785.3339c.1925,0,.3483-.0524.4673-.1575.1187-.1051.1942-.2571.2255-.4568l.2677-1.7006c.0316-.1993.0054-.3517-.0786-.4565-.084-.1051-.2224-.1575-.4146-.1575-.1925,0-.3474.0524-.4647.1575-.117.1048-.1914.2571-.223.4565l-.2677,1.7006c-.0316.1996-.0051.3517.0789.4568.0837.1051.2204.1575.4092.1575ZM415.7952,785.7853l.6088-3.8315h1.202c.2381,0,.4391.0464.6037.139.1643.0928.2833.223.3568.391s.0911.3656.0527.5932c-.0387.2591-.1401.4838-.3044.6746-.1646.1905-.3659.3209-.6037.391l.5354,1.6428h-.6194l-.4776-1.5748h-.5408l-.2466,1.5748h-.567ZM416.6876,783.7068h.635c.1891,0,.3491-.0558.4804-.168.131-.1119.2107-.2623.2386-.4514.0316-.1925,0-.3454-.0945-.4593-.0943-.1136-.2361-.1706-.4252-.1706h-.635l-.1993,1.2493ZM420.905,785.8377c-.3602,0-.6308-.1005-.8107-.3019-.1803-.201-.2423-.473-.1865-.8161l.2677-1.7006c.0561-.3463.2056-.6194.4488-.8187s.545-.2993.9056-.2993c.3568,0,.6253.1008.8056.3019.1803.2013.2423.4733.1865.8161h-.567c.0313-.1993.0026-.3517-.0866-.4565-.0894-.1051-.2284-.1575-.4175-.1575-.1925,0-.3508.0524-.475.1575-.1242.1048-.2019.2554-.2335.4514l-.2677,1.7057c-.0316.1996-.0026.3517.0866.4568.0894.1051.2301.1575.4226.1575s.35-.0524.4724-.1575.1993-.2571.2309-.4568h.5667c-.0347.2275-.1145.4252-.2386.5932s-.2808.2976-.4699.3884c-.1888.0908-.4024.1364-.6404.1364ZM424.0335,785.8377c-.3571,0-.6231-.1005-.7979-.3019-.1751-.201-.2344-.473-.1785-.8161l.2677-1.7006c.0561-.3429.203-.6148.4411-.8161.2378-.201.5354-.3019.8922-.3019.3571,0,.6228.1.7979.2993.1748.1993.2361.4707.1837.8136l-.2677,1.7057c-.0561.3431-.2039.6151-.4437.8161-.2395.2013-.5379.3019-.8947.3019ZM424.1121,785.3339c.1925,0,.3483-.0524.4673-.1575.1187-.1051.1942-.2571.2255-.4568l.2677-1.7006c.0316-.1993.0054-.3517-.0786-.4565-.084-.1051-.2224-.1575-.4146-.1575-.1925,0-.3474.0524-.4647.1575-.117.1048-.1914.2571-.223.4565l-.2677,1.7006c-.0316.1996-.0051.3517.0789.4568.0837.1051.2204.1575.4092.1575ZM425.9653,785.7853l.6088-3.8315h.6874l.1837,1.2282c.0211.119.0367.2301.0473.3332.0105.1034.0194.1828.0262.2389.0177-.0561.0473-.1364.0894-.2415.0419-.1051.0908-.217.1469-.336l.5667-1.2228h.7088l-.6088,3.8315h-.5354l.2045-1.2911c.0245-.168.0578-.3525.1-.5539.0419-.201.0874-.4041.1364-.6088s.0963-.3998.1418-.5852c.0453-.1854.0874-.3483.1259-.4881l-.8554,1.8632h-.5513l-.2833-1.8632c-.0037.1364-.0105.2947-.0211.475s-.0236.3719-.0393.5747c-.0157.203-.035.4069-.0578.6114-.0228.2047-.0481.3964-.076.5749l-.2047,1.2911h-.5405ZM429.1145,785.7853l.6088-3.8315h.6874l.1837,1.2282c.0211.119.0367.2301.0473.3332.0105.1034.0194.1828.0262.2389.0177-.0561.0473-.1364.0894-.2415.0419-.1051.0908-.217.1469-.336l.5667-1.2228h.7088l-.6088,3.8315h-.5354l.2045-1.2911c.0245-.168.0578-.3525.1-.5539.0419-.201.0874-.4041.1364-.6088s.0963-.3998.1418-.5852c.0453-.1854.0874-.3483.1259-.4881l-.8554,1.8632h-.5513l-.2833-1.8632c-.0037.1364-.0105.2947-.0211.475s-.0236.3719-.0393.5747c-.0157.203-.035.4069-.0578.6114-.0228.2047-.0481.3964-.076.5749l-.2047,1.2911h-.5405ZM432.4107,785.7853l.6088-3.8315h2.2516l-.0786.5038h-1.6955l-.1731,1.0867h1.5115l-.0786.4986h-1.5118l-.1942,1.2387h1.6901l-.0786.5038h-2.2516ZM435.5073,785.7853l.6088-3.8315h1.202c.2381,0,.4391.0464.6037.139.1643.0928.2833.223.3568.391s.0911.3656.0527.5932c-.0387.2591-.1401.4838-.3044.6746-.1646.1905-.3659.3209-.6037.391l.5354,1.6428h-.6194l-.4776-1.5748h-.5408l-.2466,1.5748h-.567ZM436.3997,783.7068h.635c.1891,0,.3491-.0558.4804-.168.131-.1119.2107-.2623.2386-.4514.0316-.1925,0-.3454-.0945-.4593-.0943-.1136-.2361-.1706-.4252-.1706h-.635l-.1993,1.2493ZM439.8007,785.8377c-.3602,0-.6308-.1005-.8107-.3019-.1803-.201-.2423-.473-.1865-.8161l.2677-1.7006c.0561-.3463.2056-.6194.4488-.8187s.545-.2993.9056-.2993c.3568,0,.6253.1008.8056.3019.1803.2013.2423.4733.1865.8161h-.567c.0313-.1993.0026-.3517-.0866-.4565-.0894-.1051-.2284-.1575-.4175-.1575-.1925,0-.3508.0524-.475.1575-.1242.1048-.2019.2554-.2335.4514l-.2677,1.7057c-.0316.1996-.0026.3517.0866.4568.0894.1051.2301.1575.4226.1575s.35-.0524.4724-.1575.1993-.2571.2309-.4568h.5667c-.0347.2275-.1145.4252-.2386.5932s-.2808.2976-.4699.3884c-.1888.0908-.4024.1364-.6404.1364ZM441.8792,785.7853l.0789-.5038h.7768l.4459-2.824h-.7766l.0837-.5038h2.1258l-.084.5038h-.7766l-.4462,2.824h.7768l-.0789.5038h-2.1258ZM444.7399,785.7853l1.585-3.8315h.7452l.3728,3.8315h-.5616l-.0735-.9711h-1.0867l-.3884.9711h-.5929ZM445.8998,784.3418h.8714l-.0894-1.1023c-.0174-.1959-.0296-.3654-.0367-.5089-.0068-.1435-.0103-.2432-.0103-.2993-.0177.0561-.0518.1558-.1025.2993s-.1148.3112-.1916.5038l-.4408,1.1075ZM448.2354,785.7853l.6088-3.8315h.567l-.5248,3.3118h1.6741l-.0786.5197h-2.2465ZM453.1932,785.8377c-.3676,0-.6345-.1005-.8005-.3019-.1663-.201-.2213-.475-.1654-.8213l.4357-2.7608h.567l-.4357,2.7554c-.0316.1962-.008.35.0709.4619.0786.1122.2141.168.4066.168s.3474-.0558.4645-.168c.1173-.1119.1916-.2657.2233-.4619l.4357-2.7554h.5667l-.4357,2.7608c-.0558.35-.2002.6245-.4328.8241-.2329.1993-.5328.299-.9001.299ZM456.3581,785.8377c-.385,0-.6738-.0951-.866-.2859-.1925-.1908-.2643-.4505-.2153-.7794h.567c-.0282.1748.0105.3121.1153.4121.1051.0997.266.1495.483.1495.2028,0,.3699-.049.5012-.1469s.2107-.2327.2389-.4044c.0211-.1504.0009-.2788-.0604-.3856s-.1583-.1811-.2913-.2233l-.4568-.1364c-.266-.0803-.4619-.217-.5878-.4095-.1259-.1922-.1697-.4197-.1313-.6823.035-.2099.1119-.3935.2309-.551s.2731-.2799.4619-.3673c.1891-.0874.4024-.1313.6404-.1313.3497,0,.6157.0954.7979.2859.1817.1908.2483.4437.1993.7586h-.567c.0279-.168-.0026-.3001-.0917-.3964-.0894-.0963-.2301-.1444-.4226-.1444-.1891,0-.3429.0447-.4619.1338-.119.0894-.1891.2144-.2099.3753-.0245.1506-.0071.2791.0524.3859s.1575.1811.2939.223l.4673.1469c.2623.0806.4556.2173.5798.4095.1242.1925.1654.4217.1236.6877-.035.217-.1156.4058-.2415.5667-.1262.1612-.2879.2862-.4855.3753-.1979.0894-.4192.1338-.6641.1338ZM458.4209,785.7853l.6088-3.8315h2.2516l-.0786.5038h-1.6955l-.1731,1.0867h1.5115l-.0786.4986h-1.5118l-.1942,1.2387h1.6901l-.0786.5038h-2.2516Z" style="fill: #ccc;"/>
  <path d="M666.4103,56.0277c-86.8185-3.9744-176.4225-6.0276-266.4199-6.0276s-179.5966,2.0533-266.432,6.0276c-9.5126.5353-16.9604,8.3989-16.9857,17.9355v392.3342c0,156.4365,127.1212,283.7025,283.4128,283.7025h.0048c156.2554,0,283.4371-127.254,283.4371-283.7025V73.9632c-.0425-9.5417-7.4993-17.4009-17.0171-17.9355ZM668.7154,466.2975c0,148.3347-120.5557,268.9906-268.7251,268.9906h-.0093c-148.2055,0-268.732-120.6282-268.7009-268.9906V74.0332c0-.8808.3455-1.7264.9663-2.3506.6208-.6243,1.4639-.9762,2.3439-.9783,86.4854-3.9589,175.7346-6.0122,265.3941-6.0122s178.9207,2.0534,265.382,6.0122c.8807,0,1.725.3513,2.3462.976.6212.6248.9681,1.4715.964,2.353l.0389-.07v392.3343ZM631.2216,427.3184c-.2487-1.5011-.5361-2.9711-.8159-4.4644-.0855-.4589-.1555-.8945-.2565-1.3533-.2797-1.26-.5284-2.5356-.8159-3.7877-.1476-.6689-.2797-1.3223-.4274-1.9911-.2564-1.0656-.5284-2.1389-.777-3.2044-.2098-.84-.3963-1.6877-.6138-2.5356-.2176-.8478-.4662-1.7656-.777-2.6523-.2487-1.0189-.5284-2.0532-.8159-3.0566-.1787-.7078-.3885-1.4-.6061-2.1077-.3497-1.1822-.7149-2.3799-1.0413-3.5388-.1631-.5522-.3497-1.0578-.4973-1.5555-.4351-1.3533-.8858-2.73-1.3442-4.0988-.1088-.28-.2176-.5678-.3264-.8633-.5362-1.5555-1.0723-3.1111-1.6706-4.6666v-.07c-4.6666-12.6542-10.4091-24.8836-17.1643-36.5554-7.6404-13.1792-16.5573-25.5739-26.6215-37.0067-.1399-.1867-.3186-.3734-.4662-.5367-.9946-1.1433-1.9892-2.2556-3.0226-3.36-.3186-.35-.6449-.7-.9402-1.0344-.9169-.9878-1.8027-1.9133-2.704-2.8622-.4895-.4822-.9169-.9489-1.3831-1.4233-.777-.7778-1.5541-1.6022-2.3932-2.3877-.5983-.5989-1.1966-1.2056-1.8104-1.8044-.6138-.5988-1.3598-1.3222-2.0436-1.96l-2.2689-2.1077c-.5361-.5134-1.1034-1.0111-1.6705-1.5555-.8859-.7778-1.8184-1.6177-2.704-2.4267l-1.1967-1.0656c-1.0723-.9333-2.1757-1.8589-3.2791-2.7844l-.6449-.5367c-10.2518-8.4753-21.2026-16.0648-32.7368-22.687-11.6168-6.6852-23.7889-12.3525-36.3804-16.9399-.1398-.0622-.303-.1166-.4662-.1789-1.4375-.5289-2.8906-1.0267-4.3436-1.5088-.4351-.1633-.8314-.3112-1.2511-.4511-1.251-.4278-2.5098-.8167-3.7763-1.2211-.6139-.1945-1.2511-.4122-1.8882-.5911-1.0646-.3267-2.1368-.6456-3.2402-.9644-.8159-.2489-1.6318-.4978-2.4321-.7156l-2.7663-.7778-2.9684-.7777-2.2689-.5367c-1.15-.2878-2.3311-.5756-3.5045-.8556-.5905-.1011-1.1345-.2178-1.7017-.35-1.3909-.2878-2.7429-.5833-4.095-.8711-.3652-.0623-.777-.1323-1.0723-.2022-1.6007-.3267-3.1703-.6067-4.7711-.8945-.0826.0096-.1661.0096-.2487,0-26.5576-4.5705-53.6979-4.5836-80.2603-.0389l-.4662.1011c-1.5541.2567-3.046.5366-4.569.8244-.4196.0778-.847.1789-1.2821.2489-1.2899.28-2.5953.5367-3.8852.8244l-1.9503.42c-1.1111.2489-2.2068.5056-3.3101.7778-.8237.1867-1.6396.3967-2.4554.6067-.8159.21-1.8572.4667-2.7429.7155-1.0024.2489-1.997.5367-2.9916.7778l-2.2145.6689c-1.1422.3345-2.3311.6533-3.4888,1.0111l-1.6396.5367-3.994,1.2756c-.3186.1322-.676.2567-.9713.35-1.5541.5367-3.1081,1.0734-4.6622,1.6412-.0466,0-.0854.0466-.1554.0466-12.6663,4.6356-24.9125,10.3471-36.6061,17.0726-11.6387,6.6627-22.6774,14.3245-32.9926,22.897-.1088.0778-.2253.1867-.3185.2489-1.2122,1.0034-2.3932,2.0223-3.5433,3.0333l-.9247.8245c-1.0024.8711-1.9971,1.7577-2.9528,2.6522-.4973.42-.9713.8556-1.4376,1.3067-.8547.7778-1.6705,1.5555-2.4865,2.3333-.6139.5756-1.22,1.1433-1.8493,1.75-.6295.6066-1.3521,1.3455-2.0125,1.9911s-1.4453,1.4544-2.1679,2.1777c-.5362.5444-1.0723,1.1122-1.6085,1.6722-.8392.8711-1.6628,1.7189-2.4865,2.6055-.3807.4356-.777.8556-1.1656,1.2911-.9402,1.0034-1.8649,2.0533-2.8129,3.1111-.2253.28-.4662.5367-.6915.8167-1.0361,1.2133-2.0877,2.437-3.1548,3.6711-.0544.07-.1243.1167-.1787.1867-18.4158,21.9906-32.639,47.1807-41.9598,74.3163-.0777.2567-.1865.5211-.2797.7778-.474,1.3923-.9014,2.7844-1.3598,4.1688-.1709.4977-.3185.9644-.4584,1.4467-.3963,1.1978-.777,2.4423-1.1034,3.6556-.1943.6766-.3885,1.3456-.6061,1.9988-.2875,1.0344-.5517,2.1077-.8314,3.1733-.2409.84-.4584,1.6722-.676,2.5355-.2176.8633-.4507,1.7811-.645,2.6367-.2719,1.0344-.5206,2.0844-.777,3.1111-.1554.7078-.303,1.4233-.4662,2.1233-.2565,1.2211-.5284,2.4423-.777,3.6477-.101.5056-.2176,1.0344-.3109,1.5011-.2875,1.4544-.5439,2.8932-.777,4.3088,0,.2567-.0932.4744-.1321.7778-4.5535,26.2919-4.5535,53.1729,0,79.4649,0,.1867.0622.35.0933.5056.2487,1.5555.5439,3.0256.8237,4.5422.1088.4122.1787.84.2487,1.26.2797,1.2911.5594,2.5823.8237,3.8889.1476.6689.2719,1.2833.4274,1.9211.2487,1.1122.5284,2.2089.777,3.2823.1942.8478.3885,1.6411.5983,2.4655.2098.8244.4973,1.8433.777,2.7611.2798.9177.5129,1.9444.777,2.9399.2176.7778.4274,1.4933.6683,2.2167.3264,1.1589.645,2.3333,1.0334,3.4532.1476.5445.3264,1.1044.5051,1.6411.4274,1.3223.8547,2.6444,1.3132,3.9588.1166.3578.2253.7.3497,1.0345.5361,1.5555,1.0723,3.0333,1.6084,4.5655.0398.0696.0736.1425.101.2178,9.2997,25.2323,22.8849,48.6664,40.1567,69.2679.0693.093.1445.1813.2253.2645,1.0256,1.2367,2.0591,2.4266,3.1081,3.6322.2331.28.5051.5677.777.8633.9014,1.0267,1.8183,2.0377,2.7352,3.0256.4118.4744.8392.9255,1.2277,1.3611l2.4477,2.5511c.5517.5677,1.0801,1.1589,1.6706,1.7267.6915.7156,1.3909,1.4156,2.0825,2.1077.6916.6923,1.3909,1.3845,2.1058,2.0688l1.7405,1.6723c.8547.7778,1.7017,1.6022,2.5564,2.3877.4352.4277.9247.8555,1.3831,1.2444.9791.9333,2.0048,1.8277,3.0305,2.7377.2952.2488.5828.5133.8936.7778,1.2122,1.0344,2.3932,2.0688,3.6132,3.0644.0876.0891.1811.1723.2798.2489,20.7101,17.1462,44.1998,30.6174,69.4514,39.8297.1243.0622.2642.1011.4041.1788,1.4608.5211,2.9216,1.0189,4.3824,1.5556l1.2122.4277,3.8152,1.2367c.6216.1867,1.2122.3811,1.8494.5522,1.0723.3577,2.1756.6689,3.2791.9877.7771.2489,1.6007.4744,2.4244.6844.8237.21,1.8104.5056,2.7429.7778s1.9815.5522,2.9528.7778l2.269.5677c1.1888.2878,2.3311.5677,3.5277.7778.5672.14,1.1189.2567,1.7173.3656,1.3287.3188,2.704.6066,4.0717.8711.373.0855.7071.1245,1.0878.2178,1.5541.2955,3.1703.6066,4.7476.8867.0801.0074.1608.0074.2409,0,28.3859,4.9167,57.4308,4.5926,85.6997-.9567.2487-.0389.5129-.1089.777-.14,1.4531-.2878,2.9295-.6144,4.3436-.91.5051-.1323.9868-.21,1.4531-.35,1.251-.28,2.5098-.5677,3.7531-.8633l2.028-.49c1.0646-.2645,2.1368-.5677,3.2014-.8478.8547-.2178,1.6784-.4667,2.5254-.6844.847-.2178,1.7872-.5056,2.6807-.7778.8936-.2722,2.0281-.5755,3.015-.8944.6915-.2178,1.3986-.4356,2.1213-.6767,1.1655-.3655,2.3311-.7311,3.52-1.1356.5051-.1633.9869-.3655,1.4609-.5133,1.4142-.4667,2.7817-.9567,4.1338-1.4545l.7382-.2644c25.0899-9.2075,48.4311-22.6207,69.0242-39.6667.1787-.14.3108-.28.4973-.4044,1.1656-.9567,2.2767-1.9367,3.4267-2.9089.3497-.3188.7304-.6222,1.0956-.9333.9636-.8555,1.8882-1.7111,2.8439-2.5588.4973-.4744,1.0334-.9411,1.5541-1.4233.8237-.7778,1.6085-1.47,2.3932-2.2244.645-.5989,1.2821-1.2212,1.9193-1.8433.6372-.6223,1.2821-1.2678,1.9271-1.9211.777-.7311,1.5541-1.4855,2.2845-2.2556.4973-.5289.9946-1.05,1.5541-1.5555.777-.9567,1.6628-1.8433,2.5098-2.7611l-.0008-.0002c.3652-.3967.7226-.7778,1.1034-1.1823.9324-1.0733,1.9193-2.1311,2.8517-3.2044.2176-.2255.4352-.4744.6372-.7077,1.0801-1.2444,2.1912-2.5123,3.2558-3.7644.0076-.0306.0076-.0627,0-.0933,8.6716-10.3146,16.4341-21.3619,23.2024-33.0167,6.7084-11.6128,12.4273-23.7708,17.0944-36.3454,0-.0778.0621-.2022.0932-.3188.5673-1.47,1.0723-2.9711,1.6085-4.4567.1088-.3734.2487-.7778.3574-1.1044.4274-1.2911.8781-2.5977,1.2744-3.8889.1865-.5755.3652-1.1666.5673-1.7422.3264-1.1044.6683-2.2244,1.0024-3.3289.2175-.7778.4507-1.5555.676-2.3333.2564-.9333.5284-1.89.777-2.8232s.5051-1.9211.777-2.8855c.1865-.7778.3885-1.5556.575-2.3333.2875-1.1433.5595-2.2788.8159-3.4222.1476-.5833.2797-1.1744.3963-1.7578.2875-1.3533.5673-2.6755.847-4.0288.0777-.3811.1555-.7311.2253-1.1044.3108-1.5555.5983-3.1111.8858-4.6666,0-.1089,0-.1945.0389-.2956,2.2914-13.2106,3.4482-26.5925,3.4578-40.001,0-13.3301-1.1451-26.6348-3.4267-39.7669,0-.21-.0699-.3733-.1088-.56ZM621.1497,526.5919c-20.3891,75.6536-78.1483,135.5332-152.9727,158.5847l.0071.0039c-7.3119,1.3633-14.6926-2.0087-18.4545-8.431-1.5565-2.6791-2.3619-5.7288-2.3311-8.8277v-1.9677c.0274-.1363.0024-.278-.0699-.3967-.215-.3539-.6694-.477-1.0334-.28-.0899.0595-.1644.1395-.2175.2333l-.7149.9722c-3.8852,4.7755-13.6064,9.8387-29.6435,12.8642-.3885.0699-.777.1166-1.1345.1944-.0516.0059-.1038.0059-.1554,0-1.7043.2852-3.4475.5574-5.2294.8167-.3497.0623-.7072.1089-1.0723.1478-7.0664,1.0262-14.1906,1.6055-21.3293,1.7344-70.26.9411-118.9639-27.494-148.7486-53.4868-42.9591-42.5898-67.1137-100.6096-67.0811-161.1312.0334-16.8228,1.9305-33.59,5.6568-49.9952,1.7559-4.928,5.6138-8.8168,10.5245-10.6091s10.3639-1.3019,14.8773,1.3381l1.7094,1.0267c.1198.0762.2553.1241.3963.14.4291,0,.777-.3482.777-.7778-.0087-.1039-.0322-.2061-.0699-.3033l-.5206-1.12c-2.269-5.7632-1.7716-16.6526,3.6054-31.9897.1476-.3655.2565-.7156.3963-1.1044,0,0,0-.1089.0699-.1478.6061-1.5944,1.2122-3.2355,1.8726-4.8844.1476-.35.2875-.6766.4118-1.0267,2.6594-6.5936,5.7215-13.0175,9.1691-19.2341,34.3214-61.0081,83.4224-88.7905,120.8937-101.4761,75.7755-20.4096,156.7141-.5427,214.4635,52.6395,4.8265,5.6256,5.5685,13.6921,1.8493,20.1055-1.5574,2.6812-3.8134,4.8884-6.5271,6.3856l-1.7172.9955c-.126.0506-.2324.1406-.303.2567-.1982.3624-.0788.8167.272,1.0344.0948.0416.1938.0729.2953.0933l1.2199.1089c6.0687.9567,15.3697,6.8055,26.0229,19.1255.2487.2722.4818.5911.7382.8711.0467,0,.0778.1011.1088.1323,1.0723,1.2988,2.1757,2.6755,3.3101,4.0833.2176.28.4351.5677.6838.8477,4.4025,5.5907,8.456,11.4481,12.1376,17.5385,35.9459,60.0594,35.5573,116.2919,27.8574,154.9158ZM183.737,106.2088l-1.4302-7.3427,10.3345-3.8885,5.6724-.2184,1.5545,40.8724-7.9727.35-1.2515-32.814-6.907,3.0414ZM208.5197,131.1239c-.0966-2.7405,2.0447-5.0405,4.7827-5.1372,1.3066-.0419,2.5759.4394,3.5267,1.3372.9509.8978,1.505,2.1381,1.5395,3.446h0c.0611,1.3094-.4028,2.5888-1.2885,3.5541-.8856.9653-2.1198,1.5367-3.4282,1.5872-2.7379.0967-5.0357-2.0466-5.1323-4.7872ZM239.4384,134.3714l-1.1345-40.934,21.8688-.5986.1931,6.6801-14.024.3741.3138,10.5542,13.2154-.3585.181,6.487-13.2154.3343.4828,17.2126-7.881.2486ZM269.1663,122.4554l-.4196-20.4241,7.7704-.1789.3963,18.6669c.101,4.8533,2.4398,6.8522,6.869,6.7667,4.7788-.1011,6.6204-2.8077,6.5115-7.3655l-.3807-18.3627,7.6616-.1789.4507,19.4055c.1709,6.9999-4.1261,12.7712-14.4995,13.0199v-.0012c-9.5809.2022-14.2123-4.2-14.3596-11.3477ZM306.712,110.9754c-.101-6.2222,4.5068-10.3832,13.155-10.5155,1.9282.0107,3.8539.1432,5.7657.3967l-.1321,6.5566c-1.9122-.486-3.8784-.7264-5.8511-.7155-3.3179.0466-4.6622,1.3455-4.6622,3.29.0544,4.4955,12.9378,2.4188,13.0935,12.1171.1165,6.6032-5.1517,11.1221-13.925,11.2387l.0008.0009c-2.0896.0261-4.1754-.1879-6.2163-.6378l.1787-6.9222c2.1454.7652,4.4136,1.1265,6.6902,1.0656,2.603,0,4.7788-1.2833,4.7476-3.6633-.0854-4.7833-12.6964-1.9367-12.8448-12.2112ZM335.1544,110.5563c-.0699-6.2222,4.5535-10.3443,13.2094-10.4454,1.9188.0345,3.8337.1852,5.7345.4511l-.1399,6.5332c-1.9092-.4944-3.8713-.7556-5.8433-.7778-3.3489.0623-4.701,1.3456-4.701,3.2822.0621,4.4877,12.9535,2.4656,13.0392,12.157.0699,6.65-5.2061,11.1454-13.9938,11.231l-.0013-.0005c-2.0742-.0154-4.1414-.2421-6.1697-.6767l.2175-6.9222c2.1317.7788,4.3906,1.1508,6.6592,1.0966,2.603,0,4.7787-1.2677,4.7399-3.6244,0-4.7833-12.6578-1.9988-12.7507-12.3042ZM376.8785,132.1701h-.0001c10.3505-.0154,13.5985-5.2498,13.5908-10.002-.0311-3.3911-1.7872-6.0588-5.3072-6.9999v-.0623c2.9325-1.0383,4.8707-3.8403,4.8098-6.9532-.0078-4.9623-3.4657-7.84-11.9431-7.84-4.1962.0311-9.3558.2489-12.5648.2489l.1554,31.554c4.8409-.0311,8.9826.0544,11.2593.0544ZM376.692,126.5624c-1.1161.0057-2.2316-.0513-3.3412-.1711l-.0388-8.0577c.8081-.0778,1.9969-.0778,2.673-.0778,0-.0001-.0156.0388-.0156.0388,3.9241,0,6.2396,1.1356,6.2552,3.8811.0233,2.6055-1.7095,4.3867-5.5325,4.3867ZM376.516,105.8119c3.9449-.0381,5.1567,1.4237,5.1722,3.5154.0233,2.73-2.4554,4.0833-6.1386,4.0833h-2.2378l-.0388-7.5366c1.0214,0,2.281-.0616,3.243-.0621ZM405.3734,126.5154h12.1449l1.9271,5.5377.0002.0002h8.6328l-11.5623-31.5624h-9.3244l-11.7022,31.5468h7.8559l2.028-5.5222ZM410.012,113.2071c.5362-1.4622,1.0024-3.1033,1.3909-4.4877.4197,1.3844,1.018,3.2044,1.5541,4.6666h-.0001s2.7119,7.4742,2.7119,7.4742h-8.4774l2.8206-7.6532ZM453.3226,132.2715l-18.0188-.1557.2293-31.5226,7.8206.0459-.2172,24.6398,10.2585.0699-.0724,6.9227ZM478.8361,132.5587l-17.9947-.2257.3862-31.5142,7.7723.1086-.2776,24.6083,10.2224.1328-.1086,6.8901ZM484.3214,113.4803c.2176-12.9885,7.1954-21.9641,20.8707-21.7155,2.9247.0609,5.8303.4894,8.6484,1.2756l-.9713,7.1322c-2.6665-.8481-5.4396-1.3141-8.2366-1.3844-7.6149-.1167-11.469,5.5688-11.6555,13.5099-.1632,8.8899,3.4578,13.9999,11.6943,14.0928,2.7253.0012,5.425-.527,7.949-1.5555l.777,6.9999c-3.393,1.1597-6.9591,1.7305-10.5443,1.6877h-.0001c-14.298-.2488-18.7031-9.8775-18.5317-20.0426ZM540.2183,133.803l-18.0309-.4272.7845-31.5311,7.7603.1871-.5673,24.6012,10.2344.2559-.181,6.9142ZM547.2436,122.8609l.5906-20.3928,7.7704.21-.5673,18.6669c-.1165,4.8533,2.0981,6.9999,6.5194,7.1088,4.802.1322,6.7524-2.4733,6.869-6.9999l.575-18.3869,7.6616.2178-.5673,19.3585c-.1787,7.0232-4.7399,12.5927-15.1053,12.2656l-.0008-.0003c-9.5576-.28-13.9866-4.8766-13.7452-12.0476ZM597.9805,135.7332c10.3499.3811,13.8077-4.7054,14.0253-9.4576.2912-3.3035-1.8282-6.3397-5.0274-7.2022v-.0778c2.9646-.9213,5.0141-3.6296,5.0974-6.7355.1477-4.9543-3.1702-7.9877-11.6555-8.3066-4.1964-.14-9.3248-.14-12.5262-.28l-1.1811,31.5226c4.8566.1789,8.9825.4355,11.267.5367l.0006.0004ZM595.4389,109.32c1.0335.0544,2.2923.0544,3.2791.0544h-.0001v-.0078c3.924.1556,5.0663,1.6411,4.9886,3.7644-.0931,2.7144-2.603,3.9822-6.3095,3.85-.4195-.0311-1.3442-.0623-2.2378-.1478l.2797-7.5132ZM594.9805,121.8186c.7771-.0623,1.997,0,2.6653,0,3.924.1555,6.1385,1.3922,6.0609,4.2155-.0621,2.5821-1.8882,4.2776-5.7112,4.1377-1.1184-.0355-2.234-.1341-3.3412-.2956l.3264-8.0576ZM169.4161,202.0258l-7.9027.3138-1.6703-40.8941,7.8399-.327.6843,16.3352,17.32-.6759-.6758-16.3279,7.8713-.3186,1.6703,40.8688-7.8557.3017-.7772-17.7533-17.2814.7121.7772,17.7653ZM205.0433,200.6017l-1.0729-31.5262,19.3717-.6529.2173,6.1104-11.5692.4103.2172,6.3,11.0104-.3621.21,5.9137-11.0104.3983.2329,6.9034,11.5547-.4104.2173,6.2155-19.379.7ZM234.5626,199.6361l-.9559-31.5178,7.8351-.2257.9172,31.4901-7.7964.2534ZM253.6714,198.9845c2.8905.0544,6.3018.1166,10.5443,0l-.0008.001c10.6146-.2486,18.6491-5.4836,18.3616-16.9712-.2631-11.0292-7.1637-15.2292-17.3972-14.957-3.8774.0778-9.441.35-12.2849.4745l.777,31.4526ZM264.5498,173.4576s.0311,0,.0311,0c6.3018-.171,9.5807,2.9711,9.7129,9.1622.1555,6.3544-3.8385,9.6677-9.4643,9.8155-1.1768.043-2.3553.0093-3.5277-.1011l-.4352-18.6199c1.2217-.1573,2.4516-.243,3.6832-.2567ZM310.2463,172.4692l-11.574.181.1086,6.3241,11.0309-.2293.1207,5.95-11.043.2293.1328,6.8913,11.574-.2293.1207,6.2758-19.3947.338-.5672-31.5275,19.3705-.3343.1207,6.131ZM320.4569,166.1149l10.4977-.1166,9.3244,14.9099c1.2463,1.9206,2.3651,3.9211,3.349,5.9888h.0699c-.1709-1.89-.2487-4.5032-.2875-7.7776l-.2176-13.2226,7.5839-.0856.3341,31.5311-10.4511.0856h0s-9.6197-15.2757-9.6197-15.2757c-1.1191-1.847-2.1284-3.7585-3.0226-5.7244h-.0854c.1165,1.5555.2098,3.1111.2175,5.5532l.202,15.5555-7.5139.1011-.3807-31.5226ZM362.4683,197.2466l-.1328-31.5625h7.7603l.0724,12.0592,13.3964-.0724-.0724-12.0568h7.8085l.1328,31.5118-7.8085.0242-.0604-12.7448-13.3964.0724.0604,12.6964-7.7603.0724ZM410.635,171.7209v6.2878h11.0189v5.95h-11.043v6.9276h11.562v6.2155l-19.4188.0241.0966-31.5432h19.3705v6.1382h-11.5861ZM440.071,197.2466l-7.8327-.0363.2052-31.5262,7.8326.0386-.2051,31.5239ZM449.4852,197.3255l5.3071-31.4768,9.8218.1323,4.9264,16.0612c.5903,1.9637,1.0754,3.9578,1.4531,5.9733h.0699c.3713-1.9705.8908-3.9101,1.5541-5.8022l5.5558-16.0455,9.9771.1089,4.3824,31.5926-8.3142-.0933v.0017s-1.9192-15.1826-1.9192-15.1826c-.3341-2.6522-.6138-5.1099-.777-6.9222h-.0699c-.4662,1.9988-1.0334,4.1688-1.6473,6.2222l-5.2994,15.7499-8.1277-.1011-4.3436-14.6842c-.7456-2.4135-1.3655-4.8642-1.8572-7.3422h-.0621c-.1554,2.3333-.4041,4.6667-.777,7.2022l-2.0825,14.7071-7.7704-.1011ZM514.922,168.2282l-1.0017-7.4441,10.5964-3.1885,5.6724.1328-.8931,40.9061-8.0258-.1689.7724-32.8514-7.1206,2.6141ZM545.6003,178.4239c-4.0095,2.3878-7.5527,5.6311-7.7004,10.3366-.1786,6.4866,4.7397,10.9354,13.3493,11.1532h.0006c7.9957.2566,15.0435-3.5544,15.261-11.371.1632-4.8455-3.178-8.0966-7.4984-10.7099,3.8929-2.4423,7.1021-5.3122,7.2498-9.9322.14-5.7477-4.7014-10.1965-12.5806-10.4143-8.2446-.2255-14.2822,4.0989-14.4609,11.1921-.1476,4.1067,2.2379,7.2722,6.3795,9.7455ZM552.8965,163.7084c3.8463.1167,5.5013,2.3022,5.4081,4.6355-.0932,2.3334-1.8803,4.1456-5.4392,6.2222-3.6443-2.03-5.8588-3.78-5.7811-6.4555.0778-2.6755,2.2068-4.5034,5.8123-4.4022ZM551.7318,181.7072c3.6682,1.988,6.8291,3.9547,6.7282,7.1542-.0931,3.0334-2.8206,4.7678-6.3094,4.6667-3.8774-.0933-6.2007-2.1621-6.0997-5.2733.1008-2.8964,2.5798-4.6996,5.6809-6.5477ZM596.7853,200.6671l.3497-9.7688s6.1074.1945,6.1074.1945l.2409-7.0777-6.092-.2333.8159-24.0026-9.8218-.3344-16.3569,24.4068.8936,6.2222,16.5669.5756-.3186,9.7376,7.6149.28ZM579.574,183.4386l10.8008-16.4728h.0777v-.001s-.575,16.7227-.575,16.7227c-1.9582-.07-7.615-.2489-10.3036-.2489ZM626.6153,175.6432c-3.924-.1789-6.9156,1.0344-8.9825,3.1967l-.0389-.0622c.2487-.7856.4196-1.5011.6061-2.03,1.9819-6.5955,6.4498-9.8076,12.7206-9.5587,1.6257.0438,3.2402.2814,4.8098.7078l.2875-6.9144c-1.5573-.2601-3.1306-.4134-4.7088-.4589-11.7956-.467-21.4153,7.1243-22.0836,23.8541-.4973,11.6198,4.9498,17.6163,13.4351,17.9741l-.0003.0011c9.1457.373,15.6727-5.1027,16.0612-14.1326.3259-6.9771-4.3358-12.2581-12.1063-12.577ZM630.5319,188.974c-.1399,4.06-2.6108,6.9843-7.0554,6.7977-3.994-.1634-6.0997-3.3367-5.9443-7.4666-.0037-1.7705.7336-3.4618,2.0329-4.6633,1.2993-1.2015,3.0418-1.8035,4.8049-1.66,4.2737.1711,6.3018,2.9323,6.1619,6.9922ZM433.6945,524.147l4.0251,31.181c-13.4351,4.8067-19.0374,8.0033-35.9688,8.0033l.0016-.0002c-59.7385,0-66.328-42.2024-66.328-87.352.0155-55.4323,12.6264-97.7577,73.3207-97.7577,12.8907,0,15.8283,1.6022,27.616,4.8455l-3.7297,31.7097c-11.7877-3.4689-13.4122-5.3588-25.7743-5.3588-30.3893,0-33.0168,29.4311-33.0168,60.7281,0,33.9268,3.0615,61.5222,35.4402,61.5222,11.0106,0,15.0281-3.22,24.4141-7.5211ZM528.028,379.5804h34.9128v136.1125c-.0773,25.5968-6.0223,45.1035-33.9485,45.2123h-.9636l-.0007-.0024v-78.7107h-40.5453v78.7107h-34.9128v-181.3466h34.9128v72.5507h40.5453v-72.5266ZM277.7075,379.549h50.8497v29.5554h-39.7379c-8.5862,0-10.4589,5.9812-10.4589,13.8055v32.9335h42.4256v28.7769h-42.4256v76.2679h-34.8814v-136.1125c.0386-25.6741,6.0453-45.2268,34.2285-45.2268Z" style="fill: #171819;"/>
</svg>