<?xml version="1.0" encoding="utf-8"?>
<!-- Created by @FCLOGO 2021-12-13 19:06:12 . https://fclogo.top/ -->
<!-- FOR PERSONAL USE ONLY NOT FOR COMMERCIAL USE -->
<svg version="1.1" xmlns="http://www.w3.org/2000/svg" xmlns:xlink="http://www.w3.org/1999/xlink" x="0px" y="0px"
	 viewBox="0 0 800 800" style="enable-background:new 0 0 800 800;" xml:space="preserve">
<path style="fill:#0076A8;" d="M639.84,116.62C510.12,47.96,420.58,48.91,398.9,50.41c-25.11-1.35-113.09-0.16-238.74,66.36
	c0,0-33.22,7.46-40.66,5.43l0.68,307.77c0,0,31.78,252.33,276.05,319.05l3.65,0.99l4.31-1.16v-0.09
	c243.91-66.88,275.68-318.94,275.68-318.94l0.67-307.75C673.05,124.1,639.84,116.62,639.84,116.62z M651.28,147.29l-0.59,275.19
	l0,0.3l-0.04,0.3c-0.29,2.34-7.45,57.99-41.11,121.89c-19.79,37.58-44.68,70.08-73.97,96.61c-35.74,32.37-78.14,55.86-126.06,69.85
	v0.14l-3.7,1l-3.79,1.02l-1.32,0.36l-1.32-0.36l-3.2-0.88c-49.5-13.82-93.2-37.66-129.9-70.86c-29.33-26.53-54.25-59.05-74.07-96.65
	c-33.7-63.94-40.87-119.65-41.15-121.99l-0.04-0.3l0-0.3l-0.6-275.21l0.02-6.55l6.33,1.72c0.02,0.01,0.5,0.13,1.9,0.13
	c8.28,0,26.86-4.05,30.58-4.88c42.72-23.06,84.97-39.79,125.58-49.73c34.19-8.37,60-10.12,75.62-10.12c3.3,0,6.46,0.08,9.39,0.23
	c3.46-0.23,7.28-0.35,11.38-0.35c15.63,0,41.44,1.76,75.62,10.12c40.63,9.94,82.89,26.67,125.61,49.73
	c3.72,0.83,22.32,4.9,30.59,4.9c1.39,0,1.87-0.13,1.89-0.13l6.36-1.77L651.28,147.29z"/>
<path style="fill:#0076A8;" d="M643.05,147.59c-9.85,0-32.36-5.17-32.36-5.17c-97.64-52.83-169.28-59.57-199.46-59.57
	c-4.89,0-8.69,0.18-11.34,0.36c-2.46-0.14-5.61-0.24-9.42-0.24c-30.2,0-101.82,6.75-199.43,59.58c0,0-22.5,5.15-32.35,5.15
	c-1.35,0-2.46-0.1-3.24-0.31l0.6,275.21c0,0,27.81,225.62,241.5,285.29l3.19,0.88l3.79-1.02v-0.09
	c213.37-59.8,241.17-285.19,241.17-285.19l0.59-275.19C645.5,147.5,644.39,147.59,643.05,147.59z M640.05,421.58
	c0,0-27.08,220.19-235.06,278.62v0.1l-3.69,0.98l-3.1-0.85c-208.3-58.3-235.41-278.73-235.41-278.73l-0.58-268.85
	c6.36,1.77,34.69-4.74,34.69-4.74c107.14-58.12,182.16-59.15,203.57-57.97c18.49-1.31,94.85-2.15,205.47,57.86
	c0,0,28.32,6.51,34.69,4.73L640.05,421.58z"/>
<path style="fill:#0076A8;" d="M401.51,561.54c-78.52,0-142.4-63.88-142.4-142.39c0-78.51,63.88-142.38,142.4-142.38
	c78.52,0,142.39,63.87,142.39,142.38C543.9,497.66,480.03,561.54,401.51,561.54z M401.51,279.77c-76.87,0-139.4,62.53-139.4,139.38
	c0,76.86,62.53,139.39,139.4,139.39c76.86,0,139.39-62.53,139.39-139.39C540.9,342.29,478.37,279.77,401.51,279.77z"/>
<polygon style="fill:#0076A8;" points="612.23,318.92 633.09,318.94 616.26,331.29 622.69,351.14 605.75,338.95 588.83,351.2 
	595.2,331.33 578.35,319.03 599.21,318.93 605.69,299.1 "/>
<polygon style="fill:#0076A8;" points="612.42,405.69 633.3,405.72 616.46,418.07 622.88,437.92 605.94,425.73 589.05,437.97 
	595.4,418.09 578.54,405.8 599.41,405.7 605.89,385.86 "/>
<polygon style="fill:#0076A8;" points="198.9,315.53 219.78,315.56 202.93,327.89 209.37,347.76 192.43,335.57 175.51,347.81 
	181.89,327.93 165.01,315.63 185.89,315.54 192.36,295.7 "/>
<polygon style="fill:#0076A8;" points="200.26,402.98 221.13,403 204.3,415.34 210.72,435.21 193.78,423.02 176.87,435.26 
	183.24,415.38 166.37,403.07 187.24,403 193.72,383.15 "/>
<polygon style="fill:#0076A8;" points="219.59,479.73 239.65,473.53 227.16,490.4 239.25,507.57 219.34,500.9 206.75,517.7 
	206.94,496.71 187.07,489.93 207.09,483.62 207.39,462.63 "/>
<polygon style="fill:#0076A8;" points="259.22,544.82 277.43,534.37 268.96,553.59 284.51,567.67 263.64,565.54 255.05,584.71 
	250.61,564.19 229.74,561.94 247.89,551.37 243.56,530.84 "/>
<polygon style="fill:#0076A8;" points="309.87,598.6 325.3,584.37 321.3,604.98 339.61,615.25 318.78,617.82 314.66,638.41 
	305.78,619.4 284.94,621.85 300.26,607.52 291.51,588.44 "/>
<polygon style="fill:#0076A8;" points="578.46,481.99 558.41,475.79 570.88,492.67 558.8,509.84 578.7,503.18 591.29,519.97 
	591.11,498.99 610.98,492.21 590.96,485.9 590.65,464.89 "/>
<polygon style="fill:#0076A8;" points="538.82,547.09 520.63,536.65 529.1,555.84 513.53,569.94 534.42,567.8 543,586.96 
	547.43,566.44 568.31,564.2 550.16,553.65 554.47,533.11 "/>
<polygon style="fill:#0076A8;" points="488.19,600.88 472.75,586.64 476.75,607.25 458.43,617.53 479.28,620.1 483.39,640.68 
	492.27,621.66 513.11,624.12 497.78,609.78 506.55,590.71 "/>
<polygon style="fill:#0076A8;" points="408.03,632.21 441.42,632.26 414.5,652.02 424.76,683.79 397.65,664.28 370.6,683.87 
	380.78,652.06 353.79,632.38 387.19,632.25 397.56,600.5 "/>
<path style="fill-rule:evenodd;clip-rule:evenodd;fill:#0076A8;" d="M499.14,481.63c3.92,3.92,3.22,10.96-1.56,15.75
	c-3.97,3.96-9.51,5.12-13.5,3.14c1.96,4.02,0.8,9.55-3.16,13.52c-4.77,4.77-11.83,5.47-15.74,1.54c-3.21-3.2-3.33-8.48-0.67-12.92
	c0.07,0.87,0.28,1.75,0.67,2.59c1.63,3.67,5.64,5.44,8.97,3.96c3.31-1.46,4.69-5.64,3.06-9.32l-15.25-15.25h-20.12
	c5.67,7.38,9,16.41,9,26.16c0,24.97-21.82,45.19-48.72,45.19c-26.9,0-48.7-20.22-48.7-45.19c0-9.76,3.33-18.78,8.99-26.16h-20.13
	l-15.25,15.26c-1.63,3.67-0.27,7.84,3.06,9.32c3.32,1.47,7.34-0.3,8.96-3.97c0.38-0.85,0.61-1.73,0.68-2.58
	c2.64,4.43,2.53,9.72-0.68,12.92c-3.91,3.92-10.97,3.23-15.75-1.56c-3.96-3.96-5.12-9.51-3.16-13.51c-3.99,1.96-9.53,0.81-13.5-3.15
	c-4.79-4.78-5.49-11.83-1.55-15.75c3.2-3.2,8.48-3.33,12.9-0.67c-0.85,0.08-1.73,0.28-2.57,0.67c-3.68,1.63-5.45,5.65-3.98,8.97
	c1.48,3.33,5.66,4.69,9.41,3.02l15.21-15.21v-20.11c-7.4,5.66-16.43,8.99-26.18,8.99c-24.97,0-45.2-21.81-45.2-48.71
	c0-26.9,20.23-48.7,45.2-48.7c9.75,0,18.78,3.34,26.18,9v-20.25l-15.12-15.12c-3.76-1.69-7.93-0.31-9.42,3.01
	c-1.46,3.31,0.31,7.33,3.98,8.96c0.84,0.39,1.72,0.6,2.59,0.68c-4.43,2.65-9.72,2.53-12.93-0.68c-3.9-3.92-3.22-10.96,1.56-15.74
	c3.96-3.97,9.51-5.13,13.52-3.15c-1.98-4.01-0.82-9.54,3.14-13.52c4.79-4.77,11.84-5.47,15.75-1.54c3.2,3.19,3.33,8.48,0.66,12.91
	c-0.06-0.87-0.28-1.75-0.66-2.59c-1.63-3.67-5.63-5.44-8.96-3.97c-3.32,1.47-4.69,5.66-3.07,9.32l15.31,15.33h20
	c-5.65-7.39-8.99-16.43-8.99-26.19c0-24.95,21.79-45.19,48.7-45.19c26.9,0,48.72,20.23,48.72,45.19c0,9.76-3.33,18.8-9,26.19h20.14
	l15.17-15.19c1.63-3.68,0.26-7.85-3.05-9.33c-3.33-1.47-7.34,0.31-8.98,3.97c-0.37,0.86-0.58,1.73-0.65,2.59
	c-2.67-4.43-2.53-9.71,0.65-12.92c3.94-3.92,10.99-3.23,15.76,1.55c3.96,3.96,5.12,9.51,3.15,13.52c4.02-1.97,9.54-0.81,13.51,3.16
	c4.78,4.77,5.47,11.82,1.55,15.75c-3.2,3.2-8.48,3.33-12.91,0.66c0.87-0.07,1.73-0.29,2.58-0.66c3.67-1.63,5.44-5.66,3.97-8.98
	c-1.49-3.31-5.65-4.68-9.41-3.01l-15.13,15.14v20.11c7.38-5.65,16.4-8.99,26.16-8.99c24.96,0,45.19,21.81,45.19,48.7
	c0,26.9-20.24,48.71-45.19,48.71c-9.76,0-18.79-3.33-26.16-8.97v20.11l15.19,15.19c3.75,1.67,7.92,0.31,9.41-3.02
	c1.48-3.33-0.3-7.34-3.98-8.97c-0.84-0.38-1.72-0.6-2.57-0.67C490.65,478.31,495.93,478.43,499.14,481.63 M459.52,449.03v-7.76h3.16
	c0.58,0,1.01,0.5,1.18,0.75c6.79,10.25,17.91,16.91,30.48,16.91c20.68,0,37.43-18.06,37.43-40.35c0-22.28-16.76-40.35-37.43-40.35
	c-12.58,0-23.7,6.69-30.5,16.93c-0.16,0.24-0.8,0.74-1.16,0.74h-3.16v-7.62l-0.04-23.73c0-1.83-1.48-3.33-3.32-3.33H432.8
	l-8.01-0.06v-3.15c0-0.58,0.51-1.01,0.77-1.17c10.24-6.8,16.91-17.91,16.91-30.49c0-20.68-18.05-37.44-40.35-37.44
	c-22.28,0-40.35,16.76-40.35,37.44c0,12.58,6.67,23.71,16.91,30.49c0.24,0.16,0.74,0.8,0.74,1.17v3.15h-6.74l-24.61,0.06
	c-1.84,0-3.33,1.49-3.33,3.33v23.73l-0.04,7.63h-3.17c-0.57,0-1-0.51-1.17-0.76c-6.8-10.23-17.92-16.92-30.47-16.92
	c-20.69,0-37.46,18.08-37.46,40.35c0,22.3,16.77,40.36,37.46,40.36c12.56,0,23.68-6.69,30.48-16.93c0.16-0.24,0.81-0.73,1.16-0.73
	h3.17v7.75l0.04,23.59c0,1.84,1.49,3.33,3.33,3.33h24.61l6.76,0.03v3.16c0,0.58-0.53,1.02-0.77,1.18
	c-10.24,6.79-16.91,17.92-16.91,30.48c0,20.68,18.06,37.43,40.35,37.43c22.3,0,40.36-16.76,40.36-37.43
	c0-12.58-6.67-23.69-16.91-30.48c-0.26-0.16-0.74-0.81-0.74-1.18v-3.16h7.98l23.36-0.03c1.84,0,3.32-1.49,3.32-3.33v-23.59H459.52z
	 M411.15,374.37c0,0,11.41,9.71,18.23,16.53c8.03,8.04,17.2,18.92,17.2,18.92v17.56c0,0-9.09,10.96-16.71,18.59
	c-7.06,7.05-18.75,16.86-18.75,16.86H393.1c0,0-11.19-9.74-18.58-17.11c-7.36-7.38-16.63-18.11-16.63-18.11v-18.03
	c0,0,9.29-10.82,16.88-18.41c7.18-7.18,18.33-16.78,18.33-16.78H411.15z M486.24,392.16c5.85,0,10.62,4.75,10.62,10.6
	c0,2.91-1.18,5.54-3.07,7.45h7.89c3.55-2.64,5.84-6.89,5.84-11.66c0-4.16-1.75-7.92-4.55-10.57c8.37,2.12,14.57,9.69,14.57,18.71
	c0,4.47-1.53,8.59-4.07,11.86c2.54,3.28,4.07,7.4,4.07,11.87c0,9.02-6.2,16.6-14.57,18.71c2.8-2.65,4.55-6.4,4.55-10.57
	c0-4.77-2.3-9.01-5.85-11.67h-7.89c1.9,1.91,3.08,4.57,3.08,7.47c0,5.86-4.76,10.6-10.62,10.6c-4.69,0-8.68-3.07-10.07-7.31
	c1.26,1.09,2.91,1.74,4.71,1.74c4,0,7.24-3.25,7.24-7.26c0-3.8-2.94-6.92-6.67-7.22h-13.58l-59.44,59.42v13.59
	c0.31,3.75,3.42,6.68,7.23,6.68c4,0,7.25-3.24,7.25-7.24c0-1.8-0.65-3.45-1.73-4.71c4.25,1.39,7.32,5.39,7.32,10.08
	c0,5.86-4.75,10.6-10.6,10.6c-2.91,0-5.54-1.18-7.46-3.06v7.87c2.66,3.55,6.91,5.84,11.67,5.84c4.17,0,7.92-1.73,10.57-4.53
	c-2.1,8.37-9.68,14.56-18.71,14.56c-4.48,0-8.59-1.52-11.87-4.09c-3.27,2.56-7.39,4.09-11.87,4.09c-9.02,0-16.58-6.19-18.7-14.56
	c2.64,2.8,6.41,4.53,10.57,4.53c4.77,0,9.01-2.29,11.67-5.84v-7.89c-1.9,1.9-4.56,3.08-7.46,3.08c-5.86,0-10.59-4.75-10.59-10.6
	c0-4.7,3.04-8.7,7.28-10.08c-1.09,1.26-1.73,2.91-1.73,4.71c0,4,3.25,7.24,7.25,7.24c3.82,0,6.94-2.93,7.23-6.68l0.01-13.64
	L336.4,424.9h-13.52c-3.73,0.3-6.66,3.42-6.66,7.22c0,4.01,3.24,7.26,7.23,7.26c1.8,0,3.44-0.65,4.7-1.74
	c-1.39,4.24-5.37,7.31-10.08,7.31c-5.86,0-10.6-4.76-10.6-10.6c0-2.9,1.16-5.54,3.06-7.45h-7.88c-3.54,2.66-5.84,6.9-5.84,11.67
	c0,4.16,1.75,7.9,4.54,10.57c-8.36-2.11-14.56-9.68-14.56-18.71c0-4.48,1.52-8.6,4.08-11.87c-2.56-3.27-4.08-7.39-4.08-11.86
	c0-9.02,6.2-16.61,14.56-18.72c-2.79,2.67-4.54,6.41-4.54,10.57c0,4.78,2.3,9.02,5.86,11.69h7.87c-1.89-1.93-3.07-4.57-3.07-7.48
	c0-5.86,4.75-10.6,10.6-10.6c4.7,0,8.69,3.08,10.08,7.32c-1.27-1.09-2.91-1.73-4.7-1.73c-3.99,0-7.23,3.24-7.23,7.25
	c0,3.81,2.93,6.93,6.66,7.23h13.56l59.32-59.33v-13.64c-0.29-3.73-3.41-6.66-7.22-6.66c-4,0-7.26,3.23-7.26,7.23
	c0,1.8,0.67,3.44,1.73,4.7c-4.23-1.39-7.3-5.37-7.3-10.09c0-5.84,4.74-10.59,10.59-10.59c2.91,0,5.54,1.17,7.45,3.06v-7.88
	c-2.66-3.54-6.89-5.83-11.65-5.83c-4.18,0-7.92,1.74-10.59,4.53c2.12-8.36,9.69-14.56,18.72-14.56c4.48,0,8.59,1.52,11.87,4.08
	c3.27-2.56,7.39-4.08,11.87-4.08c9.02,0,16.61,6.2,18.72,14.56c-2.66-2.79-6.41-4.53-10.57-4.53c-4.78,0-9.02,2.29-11.68,5.85v7.87
	c1.92-1.9,4.55-3.07,7.47-3.07c5.86,0,10.6,4.75,10.6,10.59c0,4.72-3.07,8.7-7.3,10.09c1.08-1.26,1.73-2.91,1.73-4.7
	c0-4.01-3.25-7.23-7.25-7.23c-3.82,0-6.95,2.93-7.25,6.66v13.61l59.35,59.36h13.66c3.74-0.29,6.67-3.42,6.67-7.23
	c0-4.01-3.24-7.25-7.24-7.25c-1.8,0-3.45,0.65-4.71,1.73C477.56,395.24,481.55,392.16,486.24,392.16 M412.6,412.61l-0.82,2.79h-8.83
	c0,0-0.82,0.48-0.82,2.78v7.84l-1.79,2.28c0,0-0.16,2.62,0.65,2.62c0.82,0,3.93-0.82,4.58-1.31c0.65-0.48,2.13-0.82,3.75-0.65
	c1.64,0.17,2.29,0,2.29,2.29v7.67c0,0,0.67,2.93,2.29,2.6c1.65-0.31,2.3-3.74,2.3-3.74v-8.83h3.43c0,0,3.28,0.81,6.38,1.97
	c3.1,1.13,4.9-0.49,5.39-1.31c0.48-0.82-0.49-3.1-0.49-3.1s-4.09-0.48-6.05-0.82c-1.95-0.31-8.5,0-8.5,0v-6.37l4.74-0.49
	c0,0,2.29-1.97,0.82-2.95c-1.46-0.98-5.06,0-5.06,0l-1.31-3.25L412.6,412.61z M411.94,419.8v6.22h-5.57c0,0-0.48-4.09,0.33-4.9
	c0.84-0.82-0.33-1.3,1.64-1.47C410.29,419.49,411.94,419.8,411.94,419.8 M393.15,409.99h-2.79c0,0-1.64,4.75-3.43,6.22
	c-1.8,1.47-7.19,5.06-8.82,5.22c-1.64,0.17-2.63,1.31-2.79,2.29c-0.16,0.97,0.16,2.12,1.3,2.29c1.16,0.16,6.86-1.97,7.36-2.94
	c0.48-0.99,4.24,2.77,4.24,2.77s-0.69,1.44-3.26,2.77c-2.06,1.1-8.66,3.62-9.49,3.62c-0.8,0-1.46,2.27-0.31,3.1
	c1.14,0.81,4.24,0.97,6.03,0.65c1.8-0.32,8.41-4.04,9.18-4.91c0.68-0.77,1.19-1.05,1.44,1.48c0.34,3.3-1.77,6.41-1.77,7.76
	c0,0.82,2.44,2.2,4.07-0.07c1.63-2.3,1.94-5.39,1.95-6.86c0.03-1.97-1.31-5.5-1.31-5.5s1.31-1.85,2.63-3.82
	c1.3-1.96,4.58-6.2,3.26-7.68c-1.3-1.47-5.39-2.28-5.39-2.28s-1.48-0.98-1.64-1.96C393.46,411.15,393.15,409.99,393.15,409.99
	 M391.5,417.03c0,0-2.44,2.44-2.95,3.1c-0.48,0.66,1.31,1.31,1.8,1.96c0.48,0.65,1.8,0.82,1.8,0.82s2.77-1.97,2.94-3.11
	c0.16-1.14,0.82-1.65-0.81-2.3C392.66,416.84,391.5,417.03,391.5,417.03 M414.06,396.11c0,0-1.79,0.98-2.46,2.12
	c-0.65,1.14,0.17,3.11,1.15,3.43c0.98,0.33,5.23,1.47,5.23,1.47s2.29,0.97,2.29-0.49c0-1.48-1.95-3.44-2.93-4.41
	c-0.99-0.97-1.16-1.81-1.8-1.97C414.87,396.1,414.06,396.11,414.06,396.11 M400.37,396.52c0,0-1.52,2.05-0.54,4.17
	c0.99,2.12,1.48,4.57,1.48,4.57h-19.44c0,0-1.64-1.64-2.46-1.31c-0.81,0.33-1.8,2.77-2.29,6.54c-0.5,3.75,0.99,7.02,0.99,7.02
	s2.76-0.16,3.09-1.8c0.34-1.63,0.67-6.2,0.67-6.2s-0.33-0.33,2.44-0.65c2.77-0.33,3.43-0.66,4.89-0.66h31.73c0,0,2.44,0.5,2.62,2.29
	c0.16,1.79,0.97,6.71,0.97,6.71s1.96,1.3,3.28,0c1.29-1.32,1.45-3.45,1.12-4.42c-0.32-0.98-1.62-5.73-1.46-6.54
	c0.16-0.81-0.33-0.81-2.12-1.3c-1.8-0.48-21.59,0-21.59,0s0.17-1.31,0.5-2.94c0.33-1.63,0.81-2.94-0.33-4.25
	c-1.15-1.31-2.22-1.33-2.22-1.33L400.37,396.52z M384.8,401.82l2.63-4.23c0,0,2.62-1.32,4.23,0.16c1.64,1.46,0.65,3.27-0.33,3.75
	c-0.97,0.5-4.25,2.79-5.23,2.61c-0.98-0.16-1.46-0.33-1.79-1.13C383.99,402.15,384.8,401.82,384.8,401.82 M412.6,389.9
	c0,0-3.61,2.13-7.36,2.13c-3.77,0-12.75,0.97-13.73,0.48c-0.99-0.48-4.9-0.98-5.4,0.33c-0.48,1.31-0.48,2.95,2.96,3.43
	c3.42,0.5,7.33,0.5,8.33,0.5c0.97,0,10.15-0.82,11.43-0.82c1.31,0,5.9-0.99,6.23-2.77c0.32-1.8,0.14-3.08-0.68-3.08
	C413.55,390.09,412.6,389.9,412.6,389.9"/>
<path style="fill:#0076A8;" d="M289.76,122.42v-0.69h19.29v0.69h-1.18c-1.07,0-1.93,0.14-2.56,0.41c-0.45,0.18-0.81,0.48-1.08,0.91
	c-0.2,0.31-0.3,1.14-0.3,2.43v12.71c0,2.48-0.34,4.29-1.04,5.41c-0.7,1.13-1.93,2.08-3.69,2.84c-1.78,0.75-3.91,1.13-6.4,1.13
	c-3.06,0-5.53-0.56-7.4-1.73c-1.88-1.14-2.82-2.4-2.82-3.81c0-0.89,0.38-1.62,1.14-2.17c0.79-0.54,1.71-0.83,2.82-0.83
	c1.09,0,2,0.25,2.75,0.76c0.74,0.49,1.11,1.09,1.11,1.83c0,0.34-0.06,0.65-0.18,0.94c-0.07,0.11-0.36,0.44-0.85,0.96
	c-0.5,0.52-0.74,0.88-0.74,1.11c0,0.33,0.22,0.62,0.7,0.86c0.67,0.36,1.55,0.54,2.63,0.54c0.77,0,1.41-0.14,1.92-0.43
	c0.5-0.28,0.85-0.72,1.05-1.31c0.2-0.6,0.31-2.25,0.31-4.95v-13.86c0-1.34-0.11-2.16-0.31-2.49c-0.21-0.34-0.6-0.64-1.21-0.88
	c-0.59-0.26-1.39-0.38-2.42-0.38H289.76z"/>
<path style="fill:#0076A8;" d="M329.35,146.99v0.7h-18.94v-0.7h1.21c1.06,0,1.9-0.13,2.56-0.4c0.45-0.18,0.81-0.48,1.05-0.93
	c0.21-0.3,0.31-1.12,0.31-2.42v-17.07c0-1.34-0.09-2.16-0.31-2.49c-0.18-0.34-0.58-0.64-1.18-0.88c-0.6-0.26-1.41-0.38-2.43-0.38
	h-1.21v-0.69h18.94v0.69h-1.19c-1.05,0-1.89,0.14-2.54,0.41c-0.44,0.18-0.82,0.48-1.08,0.91c-0.2,0.31-0.29,1.14-0.29,2.43v17.07
	c0,1.34,0.09,2.17,0.3,2.49c0.21,0.34,0.6,0.63,1.2,0.88c0.6,0.26,1.39,0.38,2.42,0.38H329.35z"/>
<path style="fill:#0076A8;" d="M352.57,138.83l-5.39-8.92l-5.57,8.92H352.57z M353.43,140.25h-12.73l-1.58,2.54
	c-0.49,0.85-0.75,1.56-0.75,2.11c0,0.73,0.41,1.28,1.22,1.62c0.48,0.21,1.68,0.37,3.57,0.46v0.7h-12.05v-0.7
	c1.29-0.15,2.37-0.53,3.2-1.17c0.85-0.63,1.87-1.95,3.11-3.94l12.98-20.72h0.52l13.07,21.29c1.25,2.03,2.27,3.33,3.08,3.84
	c0.6,0.4,1.46,0.64,2.56,0.7v0.7h-17.55v-0.7h0.72c1.41,0,2.39-0.15,2.96-0.42c0.4-0.21,0.6-0.51,0.6-0.89
	c0-0.23-0.06-0.47-0.17-0.71c-0.04-0.12-0.3-0.6-0.79-1.46L353.43,140.25z"/>
<path style="fill:#0076A8;" d="M383.87,121.73l17.92,16.08v-11.16c0-1.56-0.31-2.61-0.94-3.16c-0.85-0.73-2.29-1.08-4.31-1.07v-0.69
	h11.98v0.69c-1.53,0.14-2.57,0.33-3.1,0.55c-0.51,0.21-0.92,0.59-1.22,1.08c-0.3,0.51-0.45,1.36-0.45,2.59v21.6h-0.89l-24.59-21.6
	v16.53c0,1.49,0.48,2.51,1.43,3.03c0.95,0.53,2.05,0.78,3.28,0.78h0.85v0.7H371v-0.7c2-0.01,3.39-0.31,4.17-0.88
	c0.79-0.58,1.18-1.56,1.18-2.93v-18.33l-0.78-0.68c-0.77-0.7-1.44-1.16-2.03-1.38c-0.6-0.21-1.45-0.33-2.56-0.37v-0.69H383.87z"/>
<path style="fill:#0076A8;" d="M447.59,121.16v9.14h-0.99c-1.21-2.48-2.98-4.37-5.39-5.67c-2.39-1.29-5-1.94-7.83-1.94
	c-2.71,0-4.96,0.54-6.77,1.63c-1.8,1.09-3.07,2.62-3.82,4.55c-0.75,1.95-1.14,3.94-1.14,5.99c0,2.48,0.43,4.66,1.24,6.52
	c0.82,1.88,2.15,3.25,3.96,4.14s3.99,1.31,6.5,1.31c0.87,0,1.78-0.07,2.69-0.21c0.92-0.13,1.85-0.33,2.83-0.58v-5.38
	c0-1.03-0.11-1.68-0.3-1.99c-0.18-0.3-0.6-0.58-1.2-0.82c-0.62-0.24-1.36-0.36-2.23-0.36h-0.94v-0.71h17.64v0.71
	c-1.34,0.06-2.27,0.19-2.8,0.38c-0.53,0.21-0.94,0.53-1.22,1c-0.16,0.24-0.24,0.84-0.24,1.78v5.38c-2.32,0.73-4.73,1.28-7.24,1.66
	c-2.5,0.38-5.11,0.55-7.8,0.55c-3.44,0-6.3-0.33-8.57-1c-2.27-0.66-4.28-1.54-6.03-2.63c-1.73-1.09-3.1-2.31-4.07-3.67
	c-1.26-1.76-1.87-3.72-1.87-5.91c0-3.89,1.92-7.18,5.75-9.86c3.83-2.69,8.66-4.02,14.48-4.02c1.8,0,3.41,0.09,4.85,0.31
	c0.8,0.09,2.06,0.38,3.82,0.87c1.76,0.48,2.79,0.72,3.12,0.72c0.49,0,0.95-0.13,1.39-0.4c0.43-0.27,0.82-0.77,1.18-1.51H447.59z"/>
<path style="fill:#0076A8;" d="M478.15,121.16l0.29,8.65h-1.12c-0.5-2.18-1.78-3.92-3.81-5.24c-2.03-1.32-4.22-1.98-6.59-1.98
	c-1.83,0-3.26,0.33-4.33,1.03c-1.07,0.7-1.61,1.5-1.61,2.39c0,0.57,0.18,1.09,0.57,1.53c0.53,0.6,1.35,1.19,2.5,1.77
	c0.84,0.42,2.78,1.17,5.83,2.24c4.26,1.5,7.15,2.9,8.61,4.23c1.46,1.32,2.2,2.83,2.2,4.54c0,2.15-1.19,4.03-3.56,5.58
	c-2.37,1.56-5.38,2.34-9.02,2.34c-1.14,0-2.22-0.07-3.24-0.24c-1.02-0.16-2.3-0.47-3.83-0.93c-0.87-0.25-1.57-0.37-2.12-0.37
	c-0.45,0-0.96,0.12-1.48,0.37c-0.51,0.26-0.92,0.67-1.25,1.17h-0.99v-9.81h0.99c0.78,2.76,2.3,4.85,4.54,6.31
	c2.24,1.45,4.67,2.17,7.25,2.17c2,0,3.6-0.38,4.79-1.17c1.19-0.77,1.78-1.68,1.78-2.71c0-0.61-0.21-1.2-0.68-1.78
	c-0.45-0.57-1.15-1.11-2.09-1.63c-0.92-0.51-2.58-1.19-4.95-2c-3.31-1.17-5.68-2.15-7.13-2.97c-1.44-0.82-2.54-1.72-3.32-2.73
	c-0.77-1-1.15-2.11-1.15-3.33c0-2.06,1.06-3.82,3.19-5.27c2.12-1.45,4.8-2.17,8.04-2.17c1.18,0,2.33,0.09,3.44,0.3
	c0.84,0.16,1.85,0.45,3.06,0.85c1.21,0.43,2.06,0.63,2.54,0.63c0.45,0,0.83-0.1,1.09-0.3c0.27-0.21,0.52-0.7,0.75-1.48H478.15z"/>
<path style="fill:#0076A8;" d="M484.18,121.73h18.72v0.69h-0.94c-1.41,0-2.37,0.11-2.91,0.33c-0.52,0.2-0.9,0.5-1.12,0.87
	c-0.23,0.37-0.34,1.29-0.34,2.78v12.7c0,2.32,0.24,3.86,0.74,4.6c0.49,0.76,1.28,1.39,2.42,1.88c1.12,0.5,2.54,0.75,4.24,0.75
	c1.98,0,3.64-0.31,5.02-0.95c1.38-0.63,2.41-1.49,3.1-2.6c0.7-1.12,1.04-3.06,1.04-5.8v-10.58c0-1.16-0.17-1.98-0.53-2.49
	c-0.32-0.5-0.75-0.84-1.26-1.02c-0.8-0.3-1.93-0.45-3.4-0.45v-0.69h12.56v0.69h-0.75c-1.02,0-1.88,0.16-2.56,0.45
	c-0.67,0.29-1.17,0.73-1.46,1.31c-0.24,0.41-0.36,1.14-0.36,2.2v9.84c0,3.06-0.27,5.24-0.82,6.61c-0.58,1.34-1.95,2.59-4.12,3.72
	c-2.17,1.13-5.13,1.68-8.9,1.68c-3.15,0-5.56-0.29-7.27-0.89c-2.33-0.82-3.99-1.86-4.95-3.14c-0.97-1.27-1.45-2.98-1.45-5.14v-12.68
	c0-1.49-0.11-2.42-0.34-2.78c-0.24-0.38-0.64-0.67-1.2-0.88c-0.58-0.22-1.63-0.31-3.16-0.31V121.73z"/>
<path style="fill:#0076A8;" d="M183.15,234.05v10.65h1.05c1.6,0,2.92-0.17,3.94-0.52c1.02-0.33,1.89-0.93,2.59-1.73
	c0.7-0.8,1.17-1.91,1.39-3.31h0.92v13.04h-0.92c-0.34-2.46-1.26-4.09-2.78-4.86c-1.51-0.8-3.22-1.18-5.13-1.18h-1.05v7.94
	c0,1.34,0.1,2.16,0.31,2.49c0.19,0.34,0.59,0.63,1.18,0.88c0.6,0.26,1.41,0.38,2.42,0.38h1.2v0.69h-18.94v-0.69h1.2
	c1.05,0,1.9-0.14,2.54-0.41c0.47-0.18,0.82-0.49,1.07-0.92c0.19-0.3,0.29-1.11,0.29-2.42v-17.07c0-1.34-0.1-2.17-0.29-2.49
	c-0.19-0.34-0.59-0.63-1.19-0.88c-0.6-0.26-1.41-0.38-2.42-0.38h-1.2v-0.7h30.61V240h-1.12c-0.24-1.75-0.88-3.03-1.9-3.88
	c-1.04-0.85-2.52-1.43-4.46-1.78c-1.07-0.18-3.05-0.29-5.94-0.29H183.15z"/>
<path style="fill:#0076A8;" d="M223.03,233.44c-3.33,0-5.86,1.22-7.58,3.64c-1.41,1.99-2.12,4.85-2.12,8.55
	c0,4.43,1.09,7.69,3.28,9.81c1.52,1.49,3.64,2.22,6.37,2.22c1.83,0,3.36-0.31,4.59-0.95c1.58-0.81,2.79-2.12,3.67-3.91
	c0.88-1.79,1.31-4.12,1.31-7.01c0-3.42-0.45-5.98-1.34-7.69c-0.9-1.69-2.02-2.9-3.42-3.6C226.43,233.81,224.84,233.44,223.03,233.44
	 M222.71,232.21c5.78-0.14,10.48,1.06,14.1,3.61c3.61,2.57,5.42,5.77,5.42,9.63c0,3.29-1.36,6.18-4.05,8.68
	c-3.57,3.31-8.61,4.97-15.12,4.97c-6.53,0-11.58-1.58-15.16-4.75c-2.81-2.49-4.23-5.46-4.23-8.89c0-3.84,1.84-7.05,5.51-9.63
	C212.85,233.27,217.35,232.07,222.71,232.21"/>
<path style="fill:#0076A8;" d="M265.63,233.44c-3.31,0-5.84,1.22-7.57,3.64c-1.41,1.99-2.12,4.85-2.12,8.55
	c0,4.43,1.09,7.69,3.26,9.81c1.52,1.49,3.65,2.22,6.37,2.22c1.85,0,3.37-0.31,4.6-0.95c1.58-0.81,2.8-2.12,3.67-3.91
	c0.87-1.79,1.3-4.12,1.3-7.01c0-3.42-0.43-5.98-1.32-7.69c-0.89-1.69-2.04-2.9-3.42-3.6C269.03,233.81,267.44,233.44,265.63,233.44
	 M265.32,232.21c5.78-0.14,10.47,1.06,14.1,3.61c3.62,2.57,5.41,5.77,5.41,9.63c0,3.29-1.35,6.18-4.04,8.68
	c-3.57,3.31-8.61,4.97-15.12,4.97c-6.53,0-11.59-1.58-15.16-4.75c-2.82-2.49-4.23-5.46-4.23-8.89c0-3.84,1.83-7.05,5.51-9.63
	C255.45,233.27,259.96,232.07,265.32,232.21"/>
<path style="fill:#0076A8;" d="M321.34,232.56v7.02h-0.99c-0.56-1.62-1.18-2.77-1.88-3.48c-0.7-0.71-1.65-1.28-2.85-1.71
	c-0.67-0.23-1.85-0.35-3.55-0.35h-2.71v20.03c0,1.34,0.11,2.16,0.32,2.49c0.19,0.34,0.6,0.63,1.19,0.88
	c0.61,0.26,1.43,0.38,2.45,0.38h1.19v0.69h-18.97v-0.69h1.19c1.05,0,1.9-0.14,2.54-0.41c0.45-0.18,0.82-0.49,1.08-0.92
	c0.2-0.3,0.29-1.11,0.29-2.42v-20.03h-2.63c-2.44,0-4.24,0.38-5.35,1.12c-1.55,1.04-2.53,2.51-2.95,4.41h-0.97v-7.02H321.34z"/>
<path style="fill:#0076A8;" d="M337.93,244.26c2.53,0,4.41-0.21,5.61-0.62c1.19-0.41,2.12-0.99,2.77-1.73
	c0.64-0.74,0.95-1.69,0.95-2.84c0-1.15-0.31-2.1-0.94-2.84c-0.64-0.74-1.54-1.29-2.71-1.68c-1.19-0.38-3.07-0.57-5.66-0.55
	L337.93,244.26z M337.93,245.75v8.31l-0.01,0.96c0,0.68,0.25,1.19,0.72,1.54c0.51,0.36,1.24,0.53,2.2,0.53
	c1.41,0,2.73-0.23,3.92-0.67c1.21-0.45,2.13-1.12,2.77-1.98c0.65-0.85,0.97-1.83,0.97-2.89c0-1.2-0.38-2.29-1.18-3.25
	c-0.78-0.97-1.88-1.64-3.24-2.03C342.71,245.92,340.66,245.74,337.93,245.75 M347.67,244.77c3.44,0.58,5.86,1.26,7.25,2.09
	c2,1.15,3,2.66,3,4.52c0,1.95-1.11,3.55-3.29,4.83c-2.69,1.53-6.6,2.31-11.73,2.31h-18.42v-0.69c1.68,0,2.81-0.11,3.41-0.35
	c0.6-0.22,1.01-0.51,1.26-0.87c0.23-0.36,0.35-1.23,0.35-2.64V237.1c0-1.39-0.12-2.27-0.35-2.64c-0.25-0.36-0.66-0.65-1.26-0.88
	c-0.62-0.21-1.75-0.32-3.4-0.32v-0.7h17.38c4.14,0,7.08,0.27,8.82,0.8c1.73,0.53,3.08,1.33,4.09,2.37c0.99,1.05,1.49,2.19,1.49,3.37
	c0,1.25-0.63,2.36-1.89,3.35C353.1,243.42,350.87,244.19,347.67,244.77"/>
<path style="fill:#0076A8;" d="M381.73,249.65l-5.4-8.92l-5.57,8.92H381.73z M382.6,251.09h-12.73l-1.58,2.54
	c-0.49,0.86-0.76,1.56-0.76,2.12c0,0.73,0.43,1.27,1.24,1.62c0.48,0.21,1.66,0.36,3.56,0.47v0.69h-12.07v-0.69
	c1.31-0.16,2.37-0.54,3.23-1.16c0.84-0.65,1.87-1.96,3.1-3.95l12.99-20.72h0.5l13.08,21.29c1.24,2.03,2.27,3.33,3.08,3.85
	c0.6,0.4,1.47,0.63,2.57,0.7v0.69h-17.54v-0.69h0.72c1.41,0,2.39-0.16,2.96-0.43c0.4-0.21,0.6-0.51,0.6-0.89
	c0-0.23-0.06-0.47-0.18-0.71c-0.03-0.12-0.29-0.6-0.78-1.46L382.6,251.09z"/>
<path style="fill:#0076A8;" d="M434.01,249.4l-1.36,9.12h-32.19v-0.69h1.21c1.04,0,1.89-0.14,2.54-0.41
	c0.45-0.18,0.81-0.49,1.07-0.92c0.2-0.3,0.29-1.11,0.29-2.42v-17.07c0-1.34-0.09-2.17-0.29-2.49c-0.2-0.34-0.6-0.63-1.19-0.88
	c-0.6-0.26-1.41-0.38-2.42-0.38h-1.21v-0.7h19.31v0.7h-1.58c-1.05,0-1.89,0.13-2.53,0.41c-0.45,0.17-0.82,0.48-1.08,0.92
	c-0.21,0.3-0.31,1.11-0.31,2.42v16.53c0,1.33,0.11,2.17,0.32,2.54c0.21,0.36,0.63,0.63,1.26,0.82c0.45,0.11,1.51,0.17,3.23,0.17
	h3.02c1.91,0,3.52-0.24,4.81-0.74c1.28-0.48,2.39-1.24,3.33-2.29c0.92-1.05,1.82-2.59,2.64-4.63H434.01z"/>
<path style="fill:#0076A8;" d="M470.55,249.4l-1.36,9.12h-32.2v-0.69h1.2c1.07,0,1.9-0.14,2.54-0.41c0.47-0.18,0.84-0.49,1.08-0.92
	c0.2-0.3,0.3-1.11,0.3-2.42v-17.07c0-1.34-0.1-2.17-0.3-2.49c-0.2-0.34-0.6-0.63-1.19-0.88c-0.6-0.26-1.4-0.38-2.43-0.38h-1.2v-0.7
	h19.33v0.7h-1.58c-1.04,0-1.89,0.13-2.54,0.41c-0.46,0.17-0.82,0.48-1.09,0.92c-0.19,0.3-0.3,1.11-0.3,2.42v16.53
	c0,1.33,0.11,2.17,0.33,2.54c0.21,0.36,0.64,0.63,1.27,0.82c0.43,0.11,1.52,0.17,3.21,0.17h3.03c1.93,0,3.53-0.24,4.8-0.74
	c1.29-0.48,2.4-1.24,3.33-2.29c0.95-1.05,1.82-2.59,2.67-4.63H470.55z"/>
<path style="fill:#0076A8;" d="M519.69,231.99v8.98h-1.05c-0.78-2.34-2.25-4.14-4.38-5.4c-2.13-1.25-4.55-1.88-7.25-1.88
	c-2.27,0-4.33,0.47-6.23,1.4c-1.88,0.94-3.26,2.14-4.13,3.65c-1.12,1.93-1.68,4.06-1.68,6.42c0,2.32,0.4,4.43,1.22,6.34
	c0.83,1.9,2.11,3.34,3.86,4.31c1.73,0.97,4.01,1.46,6.78,1.46c2.28,0,4.36-0.35,6.27-1.07c1.89-0.7,3.89-1.95,5.99-3.69v2.24
	c-2.04,1.52-4.14,2.63-6.35,3.31c-2.2,0.69-4.78,1.02-7.71,1.02c-3.88,0-7.31-0.55-10.32-1.66c-3-1.11-5.32-2.71-6.95-4.78
	c-1.63-2.07-2.44-4.29-2.44-6.64c0-2.46,0.91-4.81,2.71-7.03c1.8-2.22,4.23-3.94,7.32-5.17c3.08-1.22,6.34-1.83,9.8-1.83
	c2.54,0,5.24,0.39,8.07,1.18c1.64,0.47,2.69,0.7,3.12,0.7c0.58,0,1.07-0.16,1.49-0.45c0.41-0.3,0.69-0.77,0.81-1.42H519.69z"/>
<path style="fill:#0076A8;" d="M557.32,249.4l-1.36,9.12h-32.2v-0.69h1.21c1.05,0,1.9-0.14,2.54-0.41c0.47-0.18,0.82-0.49,1.07-0.92
	c0.19-0.3,0.31-1.11,0.31-2.42v-17.07c0-1.34-0.11-2.17-0.31-2.49c-0.19-0.34-0.59-0.63-1.19-0.88c-0.59-0.26-1.41-0.38-2.42-0.38
	h-1.21v-0.7h19.33v0.7h-1.58c-1.04,0-1.9,0.13-2.54,0.41c-0.45,0.17-0.82,0.48-1.08,0.92c-0.21,0.3-0.3,1.11-0.3,2.42v16.53
	c0,1.33,0.11,2.17,0.33,2.54c0.21,0.36,0.63,0.63,1.25,0.82c0.44,0.11,1.53,0.17,3.23,0.17h3.03c1.93,0,3.52-0.24,4.8-0.74
	c1.28-0.48,2.39-1.24,3.33-2.29c0.92-1.05,1.82-2.59,2.66-4.63H557.32z"/>
<path style="fill:#0076A8;" d="M560.55,232.56h18.72v0.7h-0.94c-1.41,0-2.37,0.1-2.9,0.32c-0.55,0.22-0.91,0.5-1.14,0.87
	c-0.21,0.38-0.33,1.3-0.33,2.79v12.7c0,2.32,0.24,3.85,0.74,4.62c0.48,0.74,1.29,1.37,2.4,1.86c1.12,0.5,2.54,0.75,4.27,0.75
	c1.95,0,3.63-0.31,5.01-0.95c1.38-0.63,2.42-1.5,3.1-2.61c0.68-1.11,1.04-3.05,1.04-5.79v-10.58c0-1.16-0.17-1.99-0.51-2.49
	c-0.34-0.5-0.77-0.85-1.27-1.04c-0.82-0.28-1.94-0.44-3.4-0.44v-0.7h12.54v0.7h-0.75c-1.02,0-1.87,0.16-2.54,0.44
	c-0.69,0.3-1.17,0.74-1.49,1.32c-0.21,0.41-0.33,1.15-0.33,2.21v9.84c0,3.05-0.28,5.24-0.85,6.61c-0.55,1.34-1.93,2.57-4.11,3.72
	c-2.17,1.12-5.14,1.69-8.9,1.69c-3.13,0-5.56-0.3-7.28-0.9c-2.32-0.8-3.97-1.85-4.94-3.13c-0.97-1.27-1.45-2.98-1.45-5.13v-12.7
	c0-1.5-0.11-2.42-0.35-2.79c-0.23-0.38-0.63-0.65-1.19-0.87c-0.58-0.22-1.63-0.31-3.17-0.31V232.56z"/>
<path style="fill:#0076A8;" d="M613.44,244.26c2.53,0,4.41-0.21,5.61-0.62c1.2-0.41,2.13-0.99,2.77-1.73
	c0.63-0.74,0.96-1.69,0.96-2.84c0-1.15-0.33-2.1-0.95-2.84c-0.64-0.74-1.54-1.29-2.71-1.68c-1.17-0.38-3.06-0.57-5.66-0.55
	L613.44,244.26z M613.44,245.75l-0.01,8.31v0.96c0,0.68,0.24,1.19,0.72,1.54c0.5,0.36,1.23,0.53,2.2,0.53
	c1.42,0,2.73-0.23,3.94-0.67c1.21-0.45,2.12-1.12,2.77-1.98c0.64-0.85,0.95-1.83,0.95-2.89c0-1.2-0.38-2.29-1.18-3.25
	c-0.78-0.97-1.86-1.64-3.24-2.03C618.21,245.92,616.16,245.74,613.44,245.75 M623.18,244.77c3.43,0.58,5.86,1.26,7.24,2.09
	c2,1.15,3,2.66,3,4.52c0,1.95-1.09,3.55-3.28,4.83c-2.7,1.53-6.61,2.31-11.74,2.31h-18.41v-0.69c1.67,0,2.81-0.11,3.41-0.35
	c0.59-0.22,1.01-0.51,1.24-0.87c0.24-0.36,0.37-1.23,0.37-2.64V237.1c0-1.39-0.13-2.27-0.37-2.64c-0.23-0.36-0.65-0.65-1.26-0.88
	c-0.62-0.21-1.74-0.32-3.4-0.32v-0.7h17.37c4.15,0,7.09,0.27,8.82,0.8c1.73,0.53,3.08,1.33,4.09,2.37c0.99,1.05,1.51,2.19,1.51,3.37
	c0,1.25-0.64,2.36-1.91,3.35C628.6,243.42,626.37,244.19,623.18,244.77"/>
<path style="fill:#0076A8;" d="M261.75,158.45l0.69,19.07h-2.53c-1.21-4.77-4.14-8.62-8.83-11.53c-4.68-2.91-9.75-4.36-15.18-4.36
	c-4.21,0-7.55,0.77-10,2.3c-2.44,1.53-3.68,3.29-3.68,5.29c0,1.26,0.45,2.38,1.31,3.37c1.19,1.32,3.12,2.63,5.76,3.92
	c1.93,0.93,6.41,2.58,13.43,4.92c9.82,3.3,16.44,6.4,19.85,9.32c3.35,2.93,5.04,6.26,5.04,10.02c0,4.78-2.73,8.88-8.17,12.32
	c-5.46,3.44-12.37,5.16-20.76,5.16c-2.62,0-5.12-0.18-7.45-0.54c-2.35-0.36-5.29-1.05-8.82-2.05c-1.98-0.57-3.6-0.85-4.88-0.85
	c-1.06,0-2.21,0.29-3.39,0.85c-1.19,0.57-2.16,1.44-2.91,2.59h-2.29v-21.62h2.29c1.81,6.08,5.3,10.72,10.46,13.91
	c5.15,3.19,10.72,4.78,16.68,4.78c4.62,0,8.28-0.85,11.01-2.57c2.74-1.71,4.11-3.71,4.11-5.99c0-1.35-0.53-2.64-1.59-3.91
	c-1.04-1.26-2.65-2.47-4.78-3.62c-2.15-1.12-5.95-2.61-11.4-4.43c-7.62-2.55-13.11-4.73-16.42-6.54c-3.31-1.79-5.84-3.81-7.63-6.03
	c-1.78-2.22-2.66-4.66-2.66-7.33c0-4.56,2.45-8.44,7.34-11.64c4.89-3.22,11.06-4.82,18.5-4.82c2.71,0,5.35,0.23,7.9,0.68
	c1.93,0.34,4.29,0.97,7.06,1.88c2.79,0.92,4.73,1.39,5.83,1.39c1.07,0,1.91-0.23,2.53-0.69c0.61-0.45,1.19-1.54,1.73-3.26H261.75z"
	/>
<path style="fill:#0076A8;" d="M305.43,197.6l-12.48-19.68l-12.84,19.68H305.43z M307.41,200.71h-29.3l-3.62,5.56
	c-1.16,1.85-1.73,3.37-1.73,4.58c0,1.61,0.95,2.77,2.84,3.53c1.09,0.45,3.84,0.78,8.19,1v1.58h-27.8v-1.58
	c3-0.31,5.47-1.16,7.4-2.54c1.93-1.39,4.31-4.26,7.15-8.6l29.88-45.68h1.17l30.13,46.94c2.87,4.42,5.24,7.22,7.08,8.36
	c1.41,0.87,3.38,1.37,5.92,1.51v1.58h-40.43v-1.58h1.66c3.24,0,5.52-0.31,6.84-0.92c0.9-0.45,1.35-1.09,1.35-1.93
	c0-0.5-0.12-1.02-0.36-1.55c-0.09-0.26-0.71-1.31-1.85-3.14L307.41,200.71z"/>
<path style="fill:#0076A8;" d="M374.52,215.39v1.58h-43.59v-1.58h2.77c2.42,0,4.36-0.29,5.84-0.87c1.07-0.39,1.89-1.07,2.46-2.02
	c0.45-0.68,0.68-2.43,0.68-5.3v-37.69c0-2.91-0.23-4.73-0.68-5.46c-0.44-0.74-1.36-1.38-2.74-1.92c-1.37-0.54-3.23-0.82-5.56-0.82
	h-2.77v-1.59h43.59v1.59h-2.76c-2.39,0-4.33,0.29-5.81,0.88c-1.07,0.4-1.9,1.07-2.52,2.01c-0.45,0.68-0.67,2.44-0.67,5.3v37.69
	c0,2.91,0.23,4.73,0.7,5.47c0.47,0.72,1.39,1.36,2.76,1.91c1.36,0.55,3.2,0.81,5.53,0.81H374.52z"/>
<path style="fill:#0076A8;" d="M391.28,159.72l41.26,35.41v-24.54c0-3.42-0.72-5.72-2.16-6.92c-1.96-1.63-5.27-2.4-9.92-2.35v-1.59
	h27.64v1.59c-3.52,0.31-5.91,0.7-7.13,1.19c-1.2,0.49-2.15,1.29-2.84,2.39c-0.67,1.09-1.02,3-1.02,5.68v47.67h-2.09l-56.56-47.69
	v36.45c0,3.28,1.11,5.5,3.3,6.65c2.2,1.16,4.73,1.73,7.57,1.73h1.96v1.58H361.6v-1.58c4.61-0.02,7.82-0.66,9.62-1.93
	c1.81-1.27,2.71-3.43,2.71-6.45v-40.43l-1.78-1.51c-1.76-1.51-3.31-2.49-4.67-2.96c-1.36-0.47-3.32-0.75-5.86-0.8v-1.59H391.28z"/>
<path style="fill:#0076A8;" d="M512.99,159.72v15.51h-2.29c-1.31-3.58-2.77-6.15-4.36-7.72c-1.6-1.55-3.79-2.81-6.58-3.74
	c-1.57-0.5-4.29-0.75-8.18-0.75h-6.17v44.17c0,2.91,0.23,4.73,0.71,5.47c0.47,0.72,1.39,1.36,2.77,1.91
	c1.37,0.55,3.25,0.81,5.63,0.81h2.76v1.58h-43.73v-1.58h2.76c2.42,0,4.35-0.29,5.83-0.87c1.05-0.39,1.89-1.07,2.5-2.02
	c0.45-0.68,0.67-2.43,0.67-5.3v-44.17h-6.03c-5.66,0-9.76,0.82-12.32,2.46c-3.6,2.27-5.86,5.51-6.81,9.75h-2.29v-15.51H512.99z"/>
<path style="fill:#0076A8;" d="M589.61,159.72v1.59c-2.75,0.25-4.87,0.8-6.35,1.66c-2.06,1.17-5.3,4.39-9.73,9.66l-18.11,20.73
	v13.84c0,2.95,0.23,4.77,0.68,5.49c0.44,0.71,1.34,1.34,2.67,1.89c1.33,0.55,3.11,0.81,5.31,0.81h4.69v1.58h-46.84v-1.58h4.37
	c2.44,0,4.4-0.29,5.84-0.87c1.06-0.39,1.9-1.07,2.52-2.02c0.44-0.68,0.67-2.43,0.67-5.3v-11.48l-19.64-24.51
	c-3.89-4.85-6.65-7.69-8.25-8.56c-1.6-0.86-3.74-1.31-6.41-1.33v-1.59h40.04v1.59h-1.79c-2.43,0-4.12,0.24-5.08,0.72
	c-0.97,0.47-1.46,0.99-1.46,1.51c0,1.02,1.65,3.55,4.94,7.65l15.09,18.94l15.06-17.24c3.74-4.23,5.61-7.03,5.61-8.42
	c0-0.76-0.53-1.4-1.61-1.9c-1.39-0.7-3.96-1.13-7.71-1.26v-1.59H589.61z"/>
<g>
</g>
<g>
</g>
<g>
</g>
<g>
</g>
<g>
</g>
<g>
</g>
<g>
</g>
<g>
</g>
<g>
</g>
<g>
</g>
<g>
</g>
</svg>
