<!-- Created by @FCLOGO 2022-01-06 20:11:49 . https://fclogo.top/ -->
<!-- FOR PERSONAL USE ONLY NOT FOR COMMERCIAL USE -->
<svg version="1.1" xmlns="http://www.w3.org/2000/svg" xmlns:xlink="http://www.w3.org/1999/xlink" x="0px" y="0px"
	 viewBox="0 0 800 800" enable-background="new 0 0 800 800" xml:space="preserve">
<g>
	<path fill="#BF9039" d="M668.8,365.6c0-22.6-8.8-50.5-24-76.7l-2.1-3.5c-4.5-7.4-9.6-14.6-14.9-21.3C597,225.3,560,204.9,518,203.3
		c17.9-17.9,27-33.7,27-46.9c0-4.6-0.6-9-1.9-13.1c12.3-4.1,21.1-15.8,21.1-29.4c0-17.1-13.9-31-31-31s-31,13.9-31,31
		c0,0,0,0.1,0,0.1c-4.5-0.4-8.8-0.4-14.7,0.5c1.4-3.6,2.1-7.4,2.1-11.2c0-17.1-13.9-31-31-31c-10.2,0-19.2,4.9-24.8,12.5
		c-0.1-0.9-0.3-1.9-0.5-2.8c-2-9.9-9.2-15.1-12.7-17.4C418,59.4,412.3,50,400,50c-12.3,0-18,9.4-20.5,14.5
		c-3.6,2.3-10.7,7.5-12.7,17.4c-0.2,0.9-0.3,1.8-0.5,2.8c-5.7-7.6-14.7-12.5-24.8-12.5c-17.1,0-31,13.9-31,31
		c0,3.9,0.7,7.7,2.1,11.2c-5.9-0.8-10.3-0.9-14.7-0.5c0,0,0-0.1,0-0.1c0-17.1-13.9-31-31-31c-17.1,0-31,13.9-31,31
		c0,13.7,8.9,25.3,21.1,29.4c-1.3,4.1-1.9,8.4-1.9,13.1c0,13.3,9.1,29,27,46.9c-42.1,1.6-79,22-109.8,60.8
		c-5.3,6.7-10.3,13.9-14.9,21.4l-2.1,3.5c-15.3,26.1-24,54-24,76.6c0,57.3,42.9,88,74,88.2c-3.9,26-6.4,46.2-6.4,59.7
		c0,88.2,38.7,135.8,71.1,160.2c23.6,17.8,47,25.8,60.5,29.3c13.8,18.6,39.6,47,69.6,47h0c29.9,0,55.8-28.4,69.6-47
		c13.5-3.5,36.9-11.6,60.5-29.3c32.5-24.4,71.1-72,71.1-160.2c0-13.5-2.5-33.8-6.4-59.7C625.9,453.6,668.8,422.9,668.8,365.6z
		 M594.5,445.7c-3.1,0-6.1-0.3-9.2-0.8c4,25.9,7.8,52.8,7.8,68.7c0,84.9-36.9,130.4-67.9,153.7c-23.9,18-47.5,25.6-60.4,28.6
		c-12,16.8-37,46.1-64.8,46.1c0,0,0,0,0,0c0,0,0,0,0,0c-27.8,0-52.7-29.3-64.8-46.1c-13-3.1-36.5-10.7-60.4-28.6
		c-31-23.3-67.9-68.9-67.9-153.7c0-15.9,3.8-42.8,7.8-68.7c-3,0.6-6.1,0.8-9.2,0.8c-27.8,0-66.3-27.8-66.3-80.1
		c0-21.2,8.3-47.6,22.9-72.5l2.1-3.5c4.4-7.2,9.2-14.1,14.3-20.5c29.1-36.6,69.6-63.3,125.3-56.8c-0.8-1-40.7-32.2-40.7-55.9
		c0-8,2.3-14.5,6.1-19.7c-0.8,0.1-1.6,0.1-2.4,0.1c-12.7,0-23-10.3-23-23c0-12.7,10.3-23,23-23c12.7,0,23,10.3,23,23
		c0,3.8-0.9,7.3-2.5,10.4c5.1-1.7,10.6-2.5,16.2-2.5c4.5,0,9.8,0.8,15.6,2c1.2-2.3,2.8-4.3,4.6-6.1c-3.2-3.9-5.1-9-5.1-14.4
		c0-12.7,10.3-23,23-23c12.7,0,23,10.3,23,23c0,2.7-0.5,5.3-1.4,7.7c3.1,0.8,17.5-3.2,17.5-3.5c-2-0.9-3.7-2-5.1-5
		c-1-2-2.4-11.2-0.8-19c1.9-9.4,10.8-12.8,11.1-13.5c1.9-4.1,5.2-11.9,14.2-11.9c0,0,0,0,0,0c0,0,0,0,0,0c9,0,12.2,7.8,14.2,11.9
		c0.3,0.7,9.2,4.1,11.1,13.5c1.6,7.8,0.1,17-0.8,19c-1.4,3-3.1,4.1-5.1,5c0,0.2,14.5,4.3,17.5,3.5c-0.9-2.4-1.4-5-1.4-7.7
		c0-12.7,10.3-23,23-23c12.7,0,23,10.3,23,23c0,5.5-1.9,10.5-5.1,14.4c1.8,1.8,3.3,3.8,4.6,6.1c5.8-1.2,11.1-2,15.6-2
		c5.5,0,11,0.8,16.2,2.5c-1.6-3.1-2.5-6.7-2.5-10.4c0-12.7,10.3-23,23-23c12.7,0,23,10.3,23,23c0,12.7-10.3,23-23,23
		c-0.8,0-1.6,0-2.4-0.1c3.8,5.1,6.1,11.6,6.1,19.7c0,23.7-39.9,54.9-40.7,55.9c55.6-6.5,96.1,20.2,125.3,56.8
		c5.1,6.4,9.9,13.3,14.3,20.5l2.1,3.5c14.6,24.9,22.9,51.3,22.9,72.5C660.7,417.9,622.3,445.7,594.5,445.7z"/>
	<path fill="#BF9039" d="M278.7,372.2c0-30-18.8-62-53.6-62c-29.6,0-51.3,30.3-49.1,56.9c2.2,26.4,24.3,31.8,24.3,31.8
		s-9.7-12.1-11.2-27.4c-1.8-19,10.6-38.3,36-38.3c24.1,0,32.8,22.3,32.8,38.9c0,16-2.6,28.3-2.6,28.6l20.3,4.4
		C275.7,404.7,278.7,390.7,278.7,372.2z"/>
	<polygon fill="#BF9039" points="255.3,400.9 265.5,403.1 255.3,400.9 	"/>
	<polygon fill="#BF9039" points="255.3,400.9 255.3,400.9 255.3,400.9 	"/>
	<polygon fill="#BF9039" points="544.7,400.9 544.7,400.9 534.5,403.1 	"/>
	<path fill="#BF9039" d="M574.9,310.3c-34.8,0-53.6,31.9-53.6,62c0,18.5,3,32.5,3.1,33l20.3-4.4c-0.1-0.3-2.6-12.6-2.6-28.6
		c0-16.6,8.7-38.9,32.8-38.9c25.4,0,37.8,19.3,36,38.3c-1.4,15.3-11.2,27.4-11.2,27.4s22.1-5.5,24.3-31.8
		C626.2,340.6,604.5,310.3,574.9,310.3z"/>
	<polygon fill="#BF9039" points="544.7,400.9 544.7,400.9 544.7,400.9 	"/>
	<path fill="#BF9039" d="M625.6,299.5c0,0-0.1-0.1-0.1-0.1c-4.4-7.5-9.4-14.8-14.9-21.6c-26.4-33.3-59.4-51.6-92.8-51.6
		c-23.1,0-42.7,10.2-59.1,24.9c-7.7-2.8-34.1-8.8-58.7-8.8c-24.7,0-51.1,6-58.7,8.8c-16.4-14.7-36-24.9-59.1-24.9
		c-33.4,0-66.4,18.3-92.8,51.6c-5.5,6.9-10.4,14.2-14.9,21.6c0,0-0.1,0.1-0.1,0.1c-13.3,22.6-21.3,46.9-21.3,66.1
		c0,43.2,30.5,66.3,52.4,66.3c11.1,0,20.2-4.9,26.8-10.2c-0.6,4.2-1.3,8.6-2,13c-4.5,28.8-9.6,61.5-9.6,78.8
		c0,79.1,33.9,121.3,62.4,142.7c26.3,19.8,52.4,25.8,60.3,27.3c6,9,31.6,44.6,56.6,44.6s50.5-35.7,56.6-44.6
		c7.9-1.5,34-7.5,60.3-27.3c28.5-21.4,62.4-63.5,62.4-142.7c0-17.3-5.1-50-9.6-78.8c-0.7-4.4-1.4-8.8-2-13
		c6.6,5.3,15.6,10.2,26.8,10.2c22,0,52.4-23,52.4-66.3C646.9,346.3,638.9,322.1,625.6,299.5z M517.8,236.5c34.1,0,63.6,21,84.7,47.5
		c-12-5-28.2-10.1-43.8-10.1c-49.6,0-84.1,39.8-84.1,75.5c0,27.7-0.5,52.8-0.7,65.4c-9.2-6.2-19.3-11.3-30-15.1
		c-0.2-15.9-0.8-71.2,1.3-90.2C449.6,270.3,481.1,236.5,517.8,236.5z M500.6,382c3.5,29.5,5.6,51.2,6.8,65.4
		c-6.7-9.3-14.5-17.6-23.4-24.9c0.2-6.6,0.9-37.7,0.9-73c0-30.8,30.3-65.1,73.8-65.1c1.4,0,2.8,0.1,4.2,0.1
		c-15.2,2.1-30.4,10.5-41.9,23.5C504.4,326.6,497.1,352.9,500.6,382z M279,307.9c-11.5-12.9-26.7-21.4-41.9-23.5
		c1.4-0.1,2.8-0.1,4.2-0.1c43.5,0,73.8,34.3,73.8,65.1c0,35.4,0.8,66.4,0.9,73c-8.8,7.3-16.7,15.6-23.4,24.9
		c1.2-14.2,3.4-35.9,6.8-65.4C302.9,352.9,295.6,326.6,279,307.9z M400,402.7c67.3,0,122.1,54.8,122.1,122.2
		c0,67.4-54.8,122.2-122.1,122.2c-67.3,0-122.1-54.8-122.1-122.2C277.9,457.5,332.7,402.7,400,402.7z M433.4,396.6
		c-10.7-2.8-21.9-4.3-33.4-4.3c-11.6,0-22.8,1.5-33.4,4.3c0.2-19.3,0.5-69.5-1.4-88c-0.5-5.3-1.4-10.1-2.3-14.6
		c32.1,44.4,37.2,98.1,37.2,98.1s5.1-53.8,37.2-98.1c-1,4.5-1.8,9.3-2.3,14.6C433,327.1,433.3,377.3,433.4,396.6z M400,252.6
		c19.1,0,40,3.1,50.5,6.5c-26.2,27.9-42.8,66.5-50.5,87.4c-7.7-21-24.3-59.6-50.5-87.4C360,255.7,380.9,252.6,400,252.6z
		 M282.2,236.5c36.7,0,68.2,33.8,72.6,73.1c2.1,18.9,1.5,74.3,1.3,90.2c-10.7,3.8-20.8,8.8-30,15.1c-0.3-12.6-0.7-37.7-0.7-65.4
		c0-35.7-34.6-75.5-84.1-75.5c-15.6,0-31.8,5.1-43.8,10.1C218.5,257.5,248.1,236.5,282.2,236.5z M371.1,701c0.7,0.7,1.5,1.5,2.3,2.2
		C372.6,702.4,371.8,701.7,371.1,701z M373.4,703.2c3.9,3.6,7.9,7,12,9.5C381.3,710.2,377.2,706.8,373.4,703.2z M385.4,712.7
		c0.1,0,0.2,0,0.3,0c4.4,0,7.9-2.1,10.7-3.7c1.1-0.6,2.9-1.7,3.5-1.8c0.7,0.1,2.5,1.1,3.6,1.8c2.8,1.6,6.3,3.7,10.8,3.7
		c0.1,0,0.2,0,0.3,0c-5,3.1-9.9,5-14.6,5C395.3,717.7,390.3,715.8,385.4,712.7z M426.7,703.2c0.8-0.7,1.5-1.4,2.2-2.2
		C428.2,701.7,427.4,702.4,426.7,703.2z M414.7,712.7c4.1-2.5,8.1-5.8,11.9-9.5C422.8,706.8,418.8,710.1,414.7,712.7z M429,700.9
		c1.5-1.5,3-3,4.4-4.6c-1.5-0.5-3-0.8-4.7-0.8c-4.1,0-7.4,1.9-10.3,3.6c-1.2,0.7-3.3,1.9-4,1.9c-0.7-0.1-2.5-1.1-3.6-1.8
		c-2.8-1.6-6.3-3.7-10.8-3.7c-4.4,0-7.9,2-10.7,3.7c-1.1,0.6-2.9,1.7-3.5,1.8c-0.8-0.1-2.8-1.2-4-1.9c-2.9-1.7-6.2-3.6-10.3-3.6
		c-1.7,0-3.2,0.3-4.7,0.8c1.4,1.6,2.9,3.1,4.4,4.6c-3.8-3.8-7.4-7.9-10.5-11.8c1.5,0.8,3.2,1.3,5.1,1.3c3.4,0,6.3-1.8,8.6-3.2
		c1-0.6,2.6-1.6,3-1.7c0.5,0.1,1.9,1,2.8,1.5c2.3,1.5,5.2,3.3,8.8,3.3c3.5,0,6.3-1.8,8.5-3.3c0.9-0.6,2.3-1.5,2.8-1.6c0,0,0,0,0,0
		c0,0,0,0,0,0c0.5,0.1,1.9,1,2.8,1.6c2.2,1.5,5,3.3,8.5,3.3c3.5,0,6.4-1.9,8.8-3.3c0.9-0.6,2.2-1.4,2.8-1.5c0.4,0.1,2,1.1,3,1.7
		c2.3,1.4,5.2,3.2,8.6,3.2c1.9,0,3.5-0.6,5.1-1.3C436.4,693,432.8,697.1,429,700.9z M594.5,421.5c-14.1,0-27.8-13.9-30.7-28.1
		c-2.7-13.6,3.2-27.6,14.2-27.6c14.2,0,14.7,14,14.7,14s3.7-11.2-0.8-18.9c-2.2-3.8-8.3-7.2-13.9-7.2c-9.1,0-24.4,6.4-24.4,37.7
		c0,6.9,2.6,23.7,5.9,45c4.2,27,9.4,60.7,9.4,77.2c0,60.1-19.6,105.3-58.3,134.4c-28.7,21.6-65.6,27.4-65.6,27.4
		c-3.2,0.2-5.9,1.9-8,3.3c-0.9,0.6-2.2,1.4-2.8,1.5c-0.4-0.1-2-1.1-3-1.7c-2.3-1.4-5.2-3.2-8.6-3.2c-3.2,0-5.9,1.7-8.2,3.2
		c-1,0.6-2.6,1.7-3.2,1.7c-0.5-0.1-1.9-1-2.8-1.6c-2.2-1.5-5-3.3-8.5-3.3c0,0,0,0,0,0c0,0,0,0,0,0c-3.5,0-6.3,1.8-8.5,3.3
		c-0.9,0.6-2.3,1.5-2.8,1.6c-0.6-0.1-2.2-1.1-3.2-1.7c-2.3-1.5-4.9-3.2-8.2-3.2c-3.4,0-6.3,1.8-8.6,3.2c-1,0.6-2.6,1.6-3,1.7
		c-0.5-0.1-1.9-1-2.8-1.5c-2.2-1.4-4.8-3.1-8-3.3c0,0-36.9-5.7-65.6-27.4c-38.7-29.1-58.3-74.3-58.3-134.4c0-16.5,5.2-50.2,9.4-77.2
		c3.3-21.3,5.9-38.1,5.9-45c0-31.3-15.3-37.7-24.4-37.7c-5.7,0-11.7,3.5-13.9,7.2c-4.5,7.6-0.8,18.9-0.8,18.9s0.5-14,14.7-14
		c11,0,16.9,14,14.2,27.6c-2.9,14.2-16.6,28.1-30.7,28.1c-17.6,0-42.1-19.4-42.1-55.9c0-38.6,22.8-71.3,66.3-71.3
		c14.3,0,30.2,7.9,41.5,20.5c10.3,11.6,21.8,32.5,17.9,65.9c-6.8,58.2-8.5,86.2-8.5,86.6c-8.4,17.4-13.2,36.9-13.2,57.5
		c0,73.1,59.4,132.5,132.5,132.5c73.1,0,132.5-59.5,132.5-132.5c0-20.6-4.7-40.1-13.2-57.5c0-0.4-1.6-28.4-8.5-86.6
		c-3.9-33.4,7.6-54.3,17.9-65.9c11.2-12.6,27.1-20.5,41.5-20.5c43.5,0,66.3,32.7,66.3,71.3C636.5,402.1,612.1,421.5,594.5,421.5z"/>
	<path fill="#BF9039" d="M412.4,140.2c5.9,2.7,17,6.9,29.4,7.5c2.5,0.1,5.7,0,9.3-0.1c0-0.5,0.1-0.9,0.1-1.4c0-1.5-0.3-2.8-0.8-4
		c-4,0.7-7.5,1-10.2,0.8c-9.9-0.7-16.9-3.8-20.9-6.1C416.1,138.2,413.7,139.5,412.4,140.2z"/>
	<path fill="#BF9039" d="M497.1,165.3c0,14.8-18.4,32.2-25.9,40.6c-5.5,6.1-9.2,12.4-10.5,14.7c2.4,0.7,4.5,1.3,6.2,1.9
		c0.7-2.5,3-8.2,9.5-14.2c8.6-8.1,49-28.8,49-51.9c0-18.4-17.9-23.1-28.8-23.1c-4.7,0-11.1,1.2-18,2.7c0.1,0.7,0.1,1.4,0.1,2.1
		c0,3.4-0.5,6.8-1.3,10.1C488.3,149.9,497.1,154.3,497.1,165.3z"/>
	<path fill="#BF9039" d="M333.1,222.5c1.7-0.6,3.7-1.2,6.2-1.9c-1.3-2.3-4.9-8.5-10.5-14.7c-7.6-8.4-25.9-25.8-25.9-40.6
		c0-11.1,8.8-15.5,19.7-17.1c-0.8-3.3-1.3-6.7-1.3-10.1c0-0.7,0.1-1.4,0.1-2.1c-6.9-1.5-13.3-2.7-18-2.7c-10.9,0-28.8,4.6-28.8,23.1
		c0,23.1,40.3,43.8,49,51.9C330.1,214.3,332.3,220,333.1,222.5z"/>
	<path fill="#BF9039" d="M348.9,146.3c0,0.5,0,0.9,0.1,1.4c3.6,0.1,6.8,0.2,9.3,0.1c12.4-0.6,23.5-4.8,29.4-7.5
		c-1.3-0.8-3.6-2-6.7-3.2c-4,2.3-11.1,5.4-20.9,6.1c-2.7,0.2-6.3-0.2-10.2-0.8C349.2,143.5,348.9,144.8,348.9,146.3z"/>
	<path fill="#BF9039" d="M449.4,192.9c-4.7,5.4-10.1,11.5-10.9,14.1c-1,3.3-0.7,7.3-0.5,8.7c6.8,1.1,12.9,2.4,18.1,3.7l0.6-1.1
		c1.4-2.5,5.3-9.1,11.1-15.5c1-1.1,2.2-2.4,3.5-3.7c3.9-4.2,9.1-9.8,13.4-15.7c-5.6-2-13-4.5-21.8-6.9
		C458.4,182.5,453.7,188,449.4,192.9z"/>
	<path fill="#BF9039" d="M421.1,213.4c0-3,0.5-7.8,2.6-13.8c1.4-3.9,4.7-8.4,9-14c3.1-4.1,6.6-8.8,9.7-13.9
		c-8.1-1.6-16.8-3-25.7-3.8c0,0.5,0,1.1,0,1.6c0,21.2-9.3,38.6-11.7,42.9C410.4,212.5,415.8,212.9,421.1,213.4z"/>
	<path fill="#BF9039" d="M376.3,199.6c2.2,6,2.6,10.8,2.6,13.8c5.3-0.5,10.7-0.9,16.1-1.1c-2.5-4.3-11.7-21.7-11.7-42.9
		c0-0.5,0-1.1,0-1.6c-8.9,0.8-17.5,2.1-25.7,3.8c3.1,5.1,6.7,9.8,9.7,13.9C371.5,191.2,374.9,195.7,376.3,199.6z"/>
	<path fill="#BF9039" d="M328.8,199.1c1.3,1.4,2.5,2.6,3.5,3.7c5.8,6.4,9.7,13,11.1,15.5l0.6,1.1c5.2-1.3,11.3-2.6,18.1-3.7
		c0.2-1.4,0.5-5.4-0.4-8.7c-0.8-2.6-6.1-8.7-10.9-14.1c-4.3-4.9-9.1-10.4-13.5-16.3c-8.7,2.4-16.2,4.9-21.8,6.9
		C319.6,189.4,324.8,194.9,328.8,199.1z"/>
	<path fill="#BF9039" d="M441.9,138.4c1.7,0,3.4-0.2,4.8-0.5c-1.4-1-2.9-1.7-4.5-2.3c-0.5,0-0.9,0-1.4,0c-2.2-0.1-5.3-0.6-7.4-1.3
		c-1.1,0-2.3,0.1-3.3,0.2c0.6,0.6,1.3,1.1,2.1,1.6c2.3,1.3,5.3,2.1,8.5,2.2C441,138.4,441.4,138.4,441.9,138.4z"/>
	<path fill="#BF9039" d="M367.9,136.2c0.9-0.5,1.6-1,2.1-1.6c-1.1-0.1-2.2-0.2-3.3-0.2c-2.1,0.7-5.2,1.2-7.4,1.3c-0.5,0-0.9,0-1.4,0
		c-1.6,0.5-3.1,1.3-4.5,2.3c1.5,0.3,3.1,0.5,4.8,0.5c0.4,0,0.8,0,1.2,0C362.6,138.2,365.6,137.4,367.9,136.2z"/>
	<path fill="#BF9039" d="M342.5,236.9c11.9-4.1,35.7-7.7,57.5-7.7c21.8,0,45.6,3.7,57.5,7.7l9.1-9.6c-8.7-3.3-38.5-10.4-66.6-10.4
		c-28.1,0-57.9,7.1-66.6,10.4L342.5,236.9z"/>
	<path fill="#BF9039" d="M400,210.6c0,0,11.6-18.4,11.6-41.2c0-22.8-11.6-41.2-11.6-41.2s-11.6,18.4-11.6,41.2
		C388.4,192.2,400,210.6,400,210.6z"/>
	<path fill="#BF9039" d="M405.4,128.1c1.1,1.7,2.5,4.1,3.9,7.3c3.3-2,12.5-6.8,25.1-6.8c9.6,0,22.4,5.2,22.4,17.8
		c0,24-24.2,45.3-27.8,55.2c-2.1,5.9-2.3,10.2-2.3,12.6c1.8,0.2,3.6,0.5,5.3,0.7c-0.2-2.2-0.2-5.9,0.8-9.4c3.4-11.3,40-38.4,40-67.2
		c0-12.3-10-18.4-19.6-18.4c-9.6,0-34,9-40.9,9C409.2,128.7,407,128.4,405.4,128.1z"/>
	<path fill="#BF9039" d="M367.8,214.8c1.7-0.3,3.5-0.5,5.3-0.7c0.1-2.3-0.2-6.7-2.3-12.6c-3.6-9.9-27.8-31.2-27.8-55.2
		c0-12.6,12.8-17.8,22.4-17.8c12.6,0,21.8,4.8,25.1,6.8c1.5-3.1,2.9-5.6,3.9-7.3c-1.5,0.4-3.8,0.7-7,0.7c-6.9,0-31.3-9-40.9-9
		c-9.6,0-19.6,6.1-19.6,18.4c0,28.8,36.6,55.9,40,67.2C368.1,208.9,368,212.6,367.8,214.8z"/>
	<path fill="#BF9039" d="M409.2,110.4c0-5-4.1-9.1-9.1-9.1c-5,0-9.1,4.1-9.1,9.1s4.1,9.1,9.1,9.1
		C405.1,119.6,409.2,115.5,409.2,110.4z"/>
	<path fill="#BF9039" d="M400,94c0,0,9.4,0,17.4,3c0,0-2.5-2.8-2.5-6.9c0-4.1,2.5-6.9,2.5-6.9c-8,3-17.4,3-17.4,3s-9.4,0-17.4-3
		c0,0,2.5,2.8,2.5,6.9c0,4.1-2.5,6.9-2.5,6.9C390.6,93.9,400,94,400,94z"/>
	<polygon fill="#BF9039" points="408.1,71.3 391.9,71.3 400,81.3 	"/>
	<path fill="#BF9039" d="M458.5,112.4c5,0,9.1-4.1,9.1-9.1s-4.1-9.1-9.1-9.1c-5,0-9.1,4.1-9.1,9.1S453.5,112.4,458.5,112.4z"/>
	<path fill="#BF9039" d="M533.2,123c5,0,9.1-4.1,9.1-9.1s-4.1-9.1-9.1-9.1c-5,0-9.1,4.1-9.1,9.1S528.1,123,533.2,123z"/>
	<path fill="#BF9039" d="M341.5,112.4c5,0,9.1-4.1,9.1-9.1s-4.1-9.1-9.1-9.1c-5,0-9.1,4.1-9.1,9.1S336.4,112.4,341.5,112.4z"/>
	<path fill="#BF9039" d="M266.8,104.8c-5,0-9.1,4.1-9.1,9.1s4.1,9.1,9.1,9.1c5,0,9.1-4.1,9.1-9.1S271.9,104.8,266.8,104.8z"/>
	<path fill="#BF9039" d="M400,439.3L400,439.3c-47.2,0-85.5,38.4-85.5,85.5c0,47.1,38.4,85.5,85.5,85.5c47.2,0,85.5-38.4,85.5-85.5
		C485.5,477.7,447.2,439.3,400,439.3z M403.3,444.3c2.7,0,8,1.3,10.7,1.3c5.3,2.7,2.7,6.7-1.3,6.7h-9.3V444.3z M341.2,468.4
		c-0.3,0.6-0.4,1.1-0.5,1.2l8-2.7c0,0-1.3,4-1.3,5.3c-4,2.7-9.3,4-10.6,4c-0.6-0.3-1-0.6-1.4-1.1
		C337.2,472.8,339.2,470.6,341.2,468.4z M475.7,555.2c-7,3.2-16.1,10.7-23.1,19.6c-5.6,7.2-9.7,14.8-9.8,19.5
		c-11.5,7.1-25,11.5-39.4,12v-4.9c5.3,0,24-2.7,28-5.3c4-2.7,12-5.3,13.3-17.3c2.7-10.7-12-13.3-21.3-12c-12,0-42.6,1.3-47.9,0
		c0,2.4,1.1,23.4,5.3,37.2c-2-0.5-4-1.1-5.9-1.7c-1.1-3.5-2.2-9.6-3.3-12.9c-4.9,0-23.2-4.5-28.2-6.2c-2.7-2.6-5.1-5.4-7.4-8.3
		c1-0.7,3-0.5,6.4,1.2c1.3,0,5.3,4,6.7,5.3c4,0,17.3-1.3,20-1.3c-6.5-7.8-18-16.8-28.4-19.7c-1.9-0.2-3.6-0.6-5.2-1.2
		c-3.6-0.6-6.8-0.8-9.1-0.3c-1.3-2.9-2.5-5.9-3.5-9c2.9,3.7,7,7.3,12.7,9.3c1.4,0.2,2.8,0.6,4.3,0.9c0.3,0.1,0.6,0.1,0.9,0.2
		c7,0.8,15.8-0.8,27-6.9c-1.3-8-1.3-30.6-1.3-34.6c-2.7,0-31.9,1.3-33.3,1.3v13.3c1.3,0,8,0,8,0c0,2.7,1.3,6.7,0,8
		c-13.3,5.3-16-8-16-16c0-9.3,6.6-26.6,17.3-13.3c2.7-1.3,20-6.6,22.6-8c-4-10.7-12-14.7-22.6-14.7c-7.2,0-14.3,3.6-19,8.4
		c1-2.8,2.1-5.5,3.4-8.2c3.2,0.9,7.7,0.3,11.7-0.2c8-1.3,26.6-12,30.6-14.6c0-1.3,4-20,4-21.3c-1.8,0-12.2,2.5-20,4.9
		c8.1-5.8,17.3-10.2,27.2-12.7c-2.8,10.4-4.6,29.5-4.6,37.1c1.3,0,25.3-1.3,29.3-1.3c0-2.7-1.3-17.3-1.3-18.6c2.7,0,12,0,20,1.3
		c12,0,17.3-1.3,17.3-8c0-0.8-0.1-1.6-0.4-2.3c1.1,0.6,2.2,1.3,3.3,2c0.2,1.2,0.5,2.6,1.1,4.3c5.3,16.7,21.9,29.6,30.6,33
		c0.1,0.1,0.1,0.3,0.1,0.4c-2.7-0.8-5.8-0.6-9.5,1.2c-12,5.3-13.3,26.6-12,38.6c1.3,14.6,12,24,18.6,22.6c1.1-0.4,2.2-0.9,3.3-1.4
		C475.8,554.9,475.7,555,475.7,555.2z M404.6,592.1v-10.6c1.3,0,9.3,0,10.6,1.3c5.3,1.3,4,6.7,0,8
		C412.6,592.1,407.3,592.1,404.6,592.1z M472.5,526.9c0-4.5,1.9-16.5,8-14.6c0.6,4.1,1,8.3,1,12.6c0,3.4-0.2,6.7-0.6,9.9
		C476.4,536.7,473.6,532.2,472.5,526.9z"/>
	<path fill="#BF9039" d="M423.3,486.9c-14.7-1.3-43.9-1.3-47.9,0c-1.3,6.7-2.7,63.9,0,75.9c2.7,0,25.3,1.3,29.3,0v-24
		c2.7,0,24,1.3,32-2.7C457.9,528.2,456.5,488.2,423.3,486.9z M412.6,520.2h-8v-16c0,0,5.3,0,9.3,0
		C424.6,504.2,425.9,520.2,412.6,520.2z"/>
	<path fill="#BF9039" d="M318.5,587.7l-6.2,4.2l-10.8-16l-3,2l6.3,9.3l-1.9-1.7c-1,1-2,2.1-2.9,3.4l3.6,3.4c0.8-1.3,1.6-2.4,2.4-3.2
		l5.6,8.2l7.3-4.9c4.7-3.4,9-4.8,13-4.2c-0.5-1.3-0.8-2.8-0.8-4.4C326.9,583.7,322.7,585,318.5,587.7z"/>
	<path fill="#BF9039" d="M308.1,556.6c1.9,0.6,3.4,1.6,4.7,3.1c0.1-1.3,0.4-2.7,1-4.1c-2.7-1.8-4.9-2.8-6.8-2.9
		c-1.5-0.3-3.7-0.1-6.4,0.6l-5.6,1.3c3.6-1.6,6-2.6,7.2-3.1c-0.1-0.4-0.3-1-0.7-1.8c-0.2-0.4-0.3-0.7-0.5-1l9.6-2.3l-0.8-3.4
		l-17.2,4.1c2.9-1.4,5.5-2.6,7.9-3.6c-0.3-1-0.8-2-1.3-2.9L310,538l-0.9-3.6l-24.5,5.9c-0.5,0.2-1.1,0.3-1.6,0.1c-0.2,0-0.3,0-0.5,0
		c-0.1,0.1,0,0.3,0.1,0.7c0,0.3,0.2,1.4,0.7,3.3l13.3-3.2c-2.1,1-4.1,2.1-6.1,3.3c0.5,1.1,0.9,2,1.2,2.8l-3.6,0.9
		c-0.5,0.1-1,0.1-1.5,0.1c-0.3,0-0.4,0-0.5,0c-0.1,0.1,0,0.3,0.1,0.7c0,0.3,0.2,1.3,0.6,3.1l11.6-2.8c-2.1,1-4,2-5.9,3
		c0.4,0.8,0.8,1.7,1.1,2.6l-4.8,1.2c-0.5,0.1-1,0.1-1.5,0.1c-0.2,0-0.3,0-0.5,0c-0.1,0.1,0,0.3,0.1,0.7c0,0.3,0.2,1.3,0.6,3.1
		l14.5-3.5C304.1,556,306.1,556,308.1,556.6z"/>
	<path fill="#BF9039" d="M304.2,558.3c-0.3,0-1.7,0.1-4.1,0.3c-1.8,0.2-3.6,0.3-5.5,0.3c0,0.5,0.1,1.6,0.2,3.3c0.3,0,0.7,0,1.2,0
		c4.9-0.3,7.6-0.5,8.3-0.5C304.2,561.3,304.2,560.2,304.2,558.3z"/>
	<path fill="#BF9039" d="M307.7,525.8l3-25l-3.3-0.4l-0.5,4.2c-0.5-0.5-1.3-1.4-2.3-2.7c-2.2,2.7-3.9,4.9-5.3,6.6l0.9-7.6l-3.1-0.4
		l-0.9,7.7l-3-0.4l0.8-6.4l-3-0.4l-1.4,11.1c-0.2-0.2-0.5-0.5-0.7-0.8c-0.3-0.4-0.6-0.7-0.9-0.7c-0.1,0.1-0.5,0.8-1.3,2.1l1.7-13.8
		l-3.3-0.4l-2.9,24.2L307.7,525.8z M303.9,508.5c1.3-1.1,2.2-2.1,2.9-3l-1.5,12c-0.9-2.9-2.2-5.1-3.8-6.7
		C302.1,510.3,302.9,509.6,303.9,508.5z M286.5,514.8c2.2,1.1,4.1,2.5,5.8,4.2c0.2-0.1,0.3-0.3,0.4-0.6c0.9-1.1,1.5-1.9,1.9-2.3
		c-0.1-0.1-0.2-0.3-0.4-0.5c-0.6-0.7-1.2-1.2-1.6-1.5l0.3-2.4l3,0.4l-0.9,7.4l3.1,0.4l0.8-6.8c1.8,1.7,3,4.1,3.5,7.2
		c1.1-0.8,2.1-1.4,3-1.7l-0.3,2.9l-18.9-2.3L286.5,514.8z"/>
	<path fill="#BF9039" d="M293.9,484.9l3.6-6.8l1.7,0.9l1.8-3.4l-1.7-0.9l2.1-4l1.7,0.9c-0.5,0.5-0.6,0.6-0.2,0.3l-0.4,0.3
		c2.4,1.9,4.3,4.1,5.8,6.7c0.3-0.2,0.6-0.4,0.8-0.5c0.9-0.7,1.6-1.2,2.1-1.6l0.2,1.5c0.1,0,0.4,0,1-0.1c1-0.3,2.6-0.7,4.8-1.1
		c-0.2-1.3-0.3-2.5-0.3-3.8c-1.3,0.1-3.3,0.6-6,1.3c0,0.4,0.1,0.9,0.2,1.6l0,0.3c-0.4-0.8-1.2-1.8-2.4-3.3l2.2-4.3l7.3,3.8
		c1.7,0.3,1.6,2-0.5,5c1-0.1,2.5,0.1,4.3,0.6c1.3-2.8,1.9-4.7,1.9-5.7c0-1-0.7-1.9-2-2.6l-11.9-6.2l-3.5,6.6c0-0.1-0.1-0.3-0.3-0.5
		c-0.3-0.5-0.5-0.8-0.6-0.9c-0.1,0-0.8,0.6-2.2,1.9l1.5-2.9l-1.8-0.9l3.6-6.8l-2.9-1.5l-3.6,6.8l-0.9-0.4c-0.1,0-0.3-0.2-0.6-0.4
		c-0.3-0.3-0.5-0.4-0.6-0.4c-0.2,0.2-0.5,0.7-1,1.5l-1.1,2.1l2.3,1.2l-2.1,4l-0.7-0.4c-0.2-0.1-0.5-0.3-0.8-0.6
		c-0.2-0.2-0.4-0.3-0.5-0.3c-0.1-0.1-0.5,0.4-1,1.5l-1,1.9l2.3,1.2l-3.6,6.8L293.9,484.9z"/>
	<path fill="#BF9039" d="M306.1,488.4c-0.2,0.6-0.2,1-0.2,1.1c1.4,0.7,2.7,1.1,3.8,1l0.2-0.3c0-0.5,1-3.7,3-9.7
		c-0.2-0.1-0.5-0.3-1-0.5c-0.6-0.3-1.2-0.7-1.6-1.1l-1.7,4.5c-0.3-0.8-0.7-1.9-1.2-3.5c-0.7-2-1.1-3.1-1.3-3.4
		c-0.7,0.2-1.9,0.7-3.5,1.7c0,0.2,0.3,0.9,0.9,1.9c0.2,0.4,0.4,0.7,0.6,1l-0.9,1.7c-0.3-0.9-0.5-1.6-0.8-2.2
		c-0.5-1.9-0.9-2.9-1.2-3.1c-1.3,0.8-2.5,1.8-3.5,2.9c0,0.2,0.2,0.5,0.6,1c0.8,0.9,1.4,1.9,1.9,2.8c0.8,1.4,1,2.5,0.7,3.2
		c-0.1,0.1-0.1,0.2,0,0.3c0.1,0.2,0.4,0.4,1.1,0.6c0.9,0.3,1.6,0.5,1.9,0.5c0,0.1,0.3-0.5,0.8-1.9c0.4-0.9,0.7-1.6,0.9-2.2
		c0.5,1.7,0.7,2.7,0.6,3C306.2,488.1,306.1,488.3,306.1,488.4z"/>
	<path fill="#BF9039" d="M314.2,491.9c0.7-2.8,1.6-6.2,2.8-10c-0.2,0-0.6-0.2-1.1-0.5c-0.6-0.3-1.3-0.7-1.9-1.1
		c-2.1,6.7-3.3,10.4-3.6,11.3l-0.3,0.9c1.3,0.4,2.5,0.7,3.7,0.7L314.2,491.9z"/>
	<path fill="#BF9039" d="M328.3,447.6l6.6,7.3c-1.9,0.4-3.8,0.1-5.6-0.6c-0.2-0.6-0.5-1.1-0.7-1.5c-0.2-0.3-0.3-0.6-0.3-0.9
		c-0.2-0.7-0.6-0.8-1.3-0.4c-1.6,0.9-2.6,1.5-3,1.9c3,4.1,4.2,8.2,3.8,12.3c1.3-0.6,2.7-0.9,4-1.2c-0.3-2.5-0.6-4.7-1-6.7
		c3.7,1.2,6.9,0.5,9.4-2c4-3.7,6.7-6.1,8.2-7.2c-0.4-0.7-0.8-1.8-1.1-3.2c-0.2-0.3-0.3-0.6-0.3-0.9c-1.3,1.5-2.7,2.9-4.2,4.3
		l-4.4,3.9l-2.7-3l6.5-5.9l-2.2-2.4l-6.5,5.9l-2.2-2.4l4.8-4.3l-7.9-8.7l-12.8,11.6l7.9,8.7L328.3,447.6z M327.2,437.3l3.5,3.8
		l-6.8,6.1l-3.5-3.8L327.2,437.3z"/>
	<path fill="#BF9039" d="M349.5,424l1.8,4.5l-3.1,1.2l1.1,2.9l3.1-1.2l2.1,5.4c-0.5,0.5-1.2,1.1-2.3,1.8c-0.4,0.3-0.7,0.5-0.8,0.6
		c0.9,1.4,1.8,2.5,2.8,3.3c0.1,0,1.5-1.4,4.3-4.3c1.1-1,2.1-2,2.8-2.8c-0.4,0.9-0.8,1.8-1.3,2.6c1.8,0.8,3.2,1.4,4.1,1.6
		c0.3-0.9,0.5-1.8,0.8-2.6c0.5-2.3,1-4,1.4-5.3l1.7,4.4c0.2,0.5,0.1,0.9-0.4,1l-1.9,0.7c0.5,0.6,1,1.3,1.7,2.3
		c0.3,0.4,0.5,0.6,0.6,0.7c3.8-1.6,5.2-3.1,4.3-4.5l-2.4-6c2.7,2.3,5.1,3.7,7.2,4.3c0.3-1.3,0.6-2.4,0.9-3.2c0.2-0.6,0.4-1,0.5-1.4
		c-2.4-0.5-4.6-1.4-6.6-2.6c0.5-2.5,1-4.5,1.6-6.1c0.1-0.3,0.2-0.5,0.2-0.6c-1.8-0.3-3.2-0.6-4.4-0.7c0.1,1-0.1,2.6-0.5,4.7
		c-0.6-0.4-1.3-1.3-2.1-2.5c-0.2-0.3-0.3-0.6-0.4-0.6l-0.7-1.9l6.8-2.7l-1.1-2.9l-2.6,1c0.4-0.4,0.7-0.9,1-1.4
		c-0.9-0.5-2.3-1.2-4.2-2.1c-0.4,0.9-0.9,1.9-1.5,3c1.1,0.5,1.9,1,2.6,1.4l-2.2,0.9l-0.8-2c-0.2-0.5-0.3-1.1-0.4-1.7
		c0-0.3,0-0.4-0.1-0.5c-0.2-0.2-0.9,0-2.1,0.5l-1.9,0.7l1.7,4.4l-5.6,2.2l-0.7-1.9l-9.5,3.7l1.2,3L349.5,424z M355.5,421.5l0.7,1.9
		l5.9-2.3l2.2,5.5l-0.1,0.7c-1.2-1.2-2.3-2.3-3.6-3.5c-0.3-0.2-0.4-0.4-0.5-0.6c-0.4,0.4-0.5,0.5-0.4,0.4l-2.3,2.1
		c1.1,1,2.5,2.5,4.3,4.5c0.1,0,0.2-0.1,0.3-0.2c0.9-0.9,1.5-1.6,2-2.1c-0.8,2.4-1.6,4.7-2.6,6.9c-0.2-0.3-0.3-0.3-0.2-0.2
		c-0.9-1.6-1.4-2.5-1.4-2.5l-2.6,2.3l-1.7-4.2l2.8-1.1l-1.1-2.9l-2.8,1.1l-1.8-4.6L355.5,421.5z"/>
	<path fill="#BF9039" d="M392.4,424.1l0.1,3.1l5.6-0.1c-1.7,1.6-3.7,3.1-6.2,4.4c1,0.9,1.9,1.9,2.8,3c0.6-0.5,1.7-1.4,3.3-2.6
		c1.9-1.2,3.2-2,3.9-2.5c-0.1-0.1-1-0.9-2.7-2.4l6.1-0.1c-0.8,1-1.5,1.8-2.2,2.4c2.6,1.8,4.7,3.4,6.4,4.9l2.9-3.2
		c-0.8-0.6-3-2-6.4-4.2l6.5-0.1l-0.1-3.1l-2.9,0l-0.3-16.6l-14.6,0.2l0.3,16.6L392.4,424.1z M405.8,423.9l-7,0.1l0-1.3l7-0.1
		L405.8,423.9z M405.7,419.9l-7,0.1l0-1.4l7-0.1L405.7,419.9z M405.6,415.8l-7,0.1l0-1.3l7-0.1L405.6,415.8z M405.5,410.4l0,1.4
		l-7,0.1l0-1.4L405.5,410.4z"/>
	<path fill="#BF9039" d="M387.8,421.1l0.2,13.4l3.7-0.1l-0.3-20.9c0.5-1.5,1.2-3,1.8-4.5c0.3-0.7,0.5-1.1,0.5-1.2
		c0-0.1-1.5-0.5-4.5-1.2c-0.7,4.9-2.4,9.5-5.2,13.8c1,0.9,1.8,1.9,2.6,2.7C387.1,422.5,387.4,421.9,387.8,421.1z"/>
	<path fill="#BF9039" d="M443.5,435.6c-0.7-2-1.2-3.5-1.6-4.5l-3.7,0.7c1.1,3,2,5.9,2.7,8.9l4.2-1.2
		C444.7,438.7,444.2,437.4,443.5,435.6z"/>
	<path fill="#BF9039" d="M425.8,424.8c1.1,0,1.8,0.1,2.1,0.2l6.2,2.2l-2.6,7.3c-0.2,1-1.4,0.9-3.7,0c0.1,1.3,0.1,2.7-0.2,4
		c4,1.3,6.2,1.1,6.8-0.4l3.4-9.6l8.8,3.2l1.1-3.1l-8.8-3.2l1.2-3.4c0.2-0.5,0.4-0.9,0.6-1.3c0.2-0.2,0.2-0.3,0.2-0.5
		c-0.2-0.1-0.4-0.1-0.8-0.3c-0.2-0.2-1.2-0.6-3-1.2l-1.9,5.3l-5.7-2c1-1.9,2.1-3.8,3.2-5.9c2.4,0.9,5,1.7,7.8,2.5
		c2.7,0.8,5.6,1.6,8.7,2.4c0-0.2-0.6-1.8-1.8-4.9c-3.8,0-9.5-1.4-17.1-4.2c-0.3,0.5-0.5,0.9-0.7,1.3c-1.7,3.9-2.8,6.1-3.2,6.5
		c-0.5,0.6-1,0.8-1.6,0.6c-0.1,2.1-0.1,3.4,0.1,4.1C424.8,424.7,425.1,424.7,425.8,424.8z"/>
	<path fill="#BF9039" d="M422,433.9c0.9-0.4,2.4-1.1,4.3-2.1c1.9-0.9,3.3-1.7,4.4-2.3c-0.2-0.5-1-1.6-2.6-3.4c-0.2,0-0.5,0.3-1,0.8
		c-1.7,1.5-4.1,2.9-7.5,4.1c0.3,0.5,0.8,1.1,1.4,2C421.5,433.4,421.9,433.7,422,433.9z"/>
	<path fill="#BF9039" d="M470.6,444.4l-2.4-2c1.2-0.6,2.2-1,3.1-1.2c0.3,0,0.6-0.1,0.7-0.2c-0.1-0.2-0.9-1.3-2.3-3.4
		c-1.7,1-3.1,1.8-4.2,2.4l-2.6-2.2l2.5,0.9l1.1-3.8l-3.4-1.3c-0.4,1.6-0.7,2.8-1,3.6l-3.2-2.7l-1.9,2.3l11.7,9.9L470.6,444.4z"/>
	<path fill="#BF9039" d="M454.5,448.6l3.5,2.9l-1,1.2l2.8,2.4l6.8-8.1l-9-7.6l-6.9,8.2l2.7,2.2L454.5,448.6z M458.4,444l3.5,2.9
		l-2.1,2.5l-3.5-2.9L458.4,444z"/>
	<path fill="#BF9039" d="M463.3,460.2l14.9-17.6l2.1,1.8c-1.3,1-3.4,2.7-6.3,5c-0.6,4.2-1.8,6.3-3.7,6.2c-0.3-0.1-0.9-0.5-1.7-1.1
		c-0.3,1.1-1,2.3-2,3.5c0.3,0.5,1,1.1,2,1.7c0.8,0.4,1.4,0.7,1.9,0.7c3.2-0.3,5.5-3.3,6.7-9.1c3.8-2.9,6.6-5,8.4-6.4l-8.2-7
		l-16.9,20L463.3,460.2z"/>
	<path fill="#BF9039" d="M475.7,438.3l-3.5-2.9c0.8-1.1,1.5-2.1,2.1-3c-1.3-0.9-2.5-1.7-3.8-2.4c-0.2,0.2-0.4,0.6-0.7,1.2
		c-0.3,0.8-0.5,1.3-0.6,1.7l-4.3-3.6l-1.9,2.3l10.8,9.1L475.7,438.3z"/>
	<path fill="#BF9039" d="M483,462.4c-0.3,0.7-0.5,1.6-0.7,2.6c-0.2,0.8-0.3,1.3-0.4,1.7c1.6,0.7,3.3,1.3,5.1,1.7l-11.1,6.2l1.9,3.3
		l5.1-2.9l4.2,7.5l-1.2,0.6c-0.8,0.8-1.6,0-2.5-2.5c-0.1,0.1-0.3,0.2-0.4,0.3c-0.1,0.3-1,1.2-2.5,2.8c2.4,4.1,4.4,5.3,6.1,3.7
		l13.9-7.8l-5.9-10.5c0.7,0.1,1.6,0.2,2.5,0.3l7.1,12.7l2.9-1.6l-6.4-11.3c0.6,0,1.1,0.1,1.7,0c0.1,0,0.2,0,0.4,0
		c0.6,0,0.9-0.4,0.6-1.3c-0.6-1.5-1.1-2.8-1.7-3.7c-1.2,0.4-2.3,0.7-3.4,0.8l-4.6-8.3l-2.9,1.6l3.9,6.9
		C490.8,465.6,486.8,464.6,483,462.4z M489.7,481.2l-4.2-7.5l1.8-1l4.2,7.5L489.7,481.2z M495.7,477.8l-1.7,0.9l-4.2-7.5l1.7-0.9
		L495.7,477.8z"/>
	<path fill="#BF9039" d="M495.4,508.1c-1,0.2-2-0.2-2.8-1l-0.1-0.1c-1.5,1.1-2.6,2-3.4,2.7l0.6,0.5c0.9,0.8,2.3,2.6,4,5.3
		c1.1-0.8,2.1-1.4,3.1-1.8l-1.5-1.8l7.8-1.2l0.2,1.1c-5.7,1.1-9.6,4.7-11.7,10.7c1.6,0.5,3,1.3,4.1,2.5c0.4-2.7,1.4-4.9,3.1-6.7
		c0.6,0.8,1.4,1.8,2.3,3.1c0.7,0.9,1.1,1.4,1.3,1.4c0.1-0.1,0.8-1.1,2.1-3l0.1,0.8l13.1-2l-2.1-13.5L495.4,508.1z M501.5,516.4
		c0.4-0.4,1.1-0.7,2.1-1.1c0.1,0,0.2,0,0.2,0l0.5,3.6C503.4,518.2,502.4,517.4,501.5,516.4z M507.1,516l-0.9-5.7l2.3-0.3l0.9,5.7
		L507.1,516z M512.1,515.3l-0.9-5.7l1.9-0.3l0.9,5.7L512.1,515.3z"/>
	<path fill="#BF9039" d="M488.6,502.1l7.7-1.2c-0.9,0.8-1.7,1.4-2.6,1.7c0.9,3.4,2.9,4.7,6.1,3.9c1.8-0.2,3.8-1.1,6.1-2.9
		c3.6,0.6,6.8,0.8,9.8,0.6l-1.5-9.6l-26.1,4L488.6,502.1z M511.6,498.6l0.3,2.1c-2.3,0.1-4.6-0.1-7-0.6c-4.7,3.5-7.1,3.7-7.4,0.7
		L511.6,498.6z"/>
	<path fill="#BF9039" d="M487.3,550.2l1,4.7c3-0.9,6.6-2.4,10.9-4.6l-1.4-3.8c-1.3,0.8-2.7,1.5-4.1,2.2c0.5-3.8,0.9-6.4,1.2-7.7
		c2.9,2.4,5.6,4.9,8.3,7.6c0.1,0.1,0.3,0.1,0.5,0c1.2-2.4,1.9-3.8,2.1-4.2c-6.6-3.6-10-6.7-10.3-9.5l0-0.1c-2.4,0.2-3.7,0.3-4,0.5
		l0,0.5c0.1,3.4-0.3,8-1.1,13.7C489.2,550,488.2,550.2,487.3,550.2z"/>
	<path fill="#BF9039" d="M504.7,532.1c-1.2,1.3-2.4,2.3-3.5,3.1c2.7,3.3,6.4,7.1,11.1,11.5c0.2,0.3,0.4,0.3,0.6,0
		c0.4-0.9,1.1-2.3,2.2-4.3C511.4,540.9,507.9,537.5,504.7,532.1z"/>
	<path fill="#BF9039" d="M512.3,549.6c-6.6,0.8-11.7,3.1-15.5,6.8c1.4,1.3,2.5,2.7,3.5,4c4.9-4.8,9.6-7.1,14.1-6.9
		c0.1-1.3,0.1-2.7-0.1-4.2C513.9,549.4,513.2,549.5,512.3,549.6z"/>
	<path fill="#BF9039" d="M482.3,569.9l1.9,1.2l-3.5,5.6l-1.5-1l-2.2,3.4l9.7,6.2l7.8-12.3l-10.1-6.4L482.3,569.9z M489.7,574.6
		l-3.5,5.6l-2.8-1.8l3.5-5.6L489.7,574.6z"/>
	<path fill="#BF9039" d="M491.3,592l-14.7-9.3c-1.3-0.5-1.2-1.8,0.3-3.8c-0.9-0.3-1.9-0.7-3.1-1.2c-0.1-0.1-0.3-0.1-0.4-0.1
		c-1.6,2.6-2.3,4.4-2.2,5.3c0,0.9,0.8,1.9,2.4,2.9l18.4,11.7l12.2-19.1l-3-1.9L491.3,592z"/>
	
		<rect x="484.6" y="579.3" transform="matrix(0.536 -0.8442 0.8442 0.536 -261.2616 686.4811)" fill="#BF9039" width="18.5" height="3.2"/>
</g>
<g>
</g>
<g>
</g>
<g>
</g>
<g>
</g>
<g>
</g>
<g>
</g>
<g>
</g>
<g>
</g>
<g>
</g>
<g>
</g>
<g>
</g>
</svg>
