<!-- Created by @FCLOGO 2022-01-06 20:04:38 . https://fclogo.top/ -->
<!-- FOR PERSONAL USE ONLY NOT FOR COMMERCIAL USE -->
<svg version="1.1" xmlns="http://www.w3.org/2000/svg" xmlns:xlink="http://www.w3.org/1999/xlink" x="0px" y="0px"
	 viewBox="0 0 800 800" enable-background="new 0 0 800 800" xml:space="preserve">
<g>
	<path fill="#E70012" d="M263.4,364.5V209.8h-46.3v217.8C228.3,403.6,244.1,382.2,263.4,364.5z"/>
	<path fill="#E70012" d="M328.2,209.8h-46.3v139.5c14.1-10.2,29.7-18.7,46.3-25V209.8z"/>
	<path fill="#E70012" d="M391.5,209.8h-46.3v108.8c14.8-4.2,30.3-6.7,46.3-7.3V209.8z"/>
	<path fill="#E70012" d="M454.8,209.8h-46.3v101.5c16,0.7,31.5,3.2,46.3,7.3V209.8z"/>
	<path fill="#E70012" d="M518.1,209.8h-46.3v114.5c16.6,6.3,32.1,14.8,46.3,25V209.8z"/>
	<path fill="#E70012" d="M582.9,427.6V209.8h-46.3v154.6C555.9,382.2,571.7,403.6,582.9,427.6z"/>
	<path fill="#E70012" d="M360.1,375.9c12.6-3.7,26-5.6,39.9-5.6c12.9,0,25.5,1.7,37.4,4.9c20.8-30.6,61.2-16.5,61.2-16.5
		S449.8,330,400,336.6C367.6,341,360.9,361.9,360.1,375.9z"/>
	<path fill="#E70012" d="M389.2,330.3c-1.7,0.2-57,5.9-92.7,40c-23.7,22.6-16.8,43.4-9.1,55.3c15.9-20.5,37.3-36.6,62-46
		C348.2,343.3,387.7,330.7,389.2,330.3z"/>
	<path fill="#E70012" d="M257.5,508.4c0.8-27.1,9.2-52.4,23.2-73.7c-22.3-28.7,2.3-62.1,3.2-63.3c-1.3,1.1-42.6,38.3-51.5,86.9
		C226.6,490.5,244.4,503.4,257.5,508.4z"/>
	<path fill="#E70012" d="M232.4,567.3c14.1,29.5,36.1,29.4,49.7,25.8c-14.4-21.1-23.2-46.1-24.5-73.2
		c-35.5-10.3-34.6-53.1-34.6-53.1S210.7,522,232.4,567.3z"/>
	<path fill="#E70012" d="M351.8,647c-24.9-8.9-46.6-24.6-62.9-44.8c-34.1,12.3-58.2-21.2-59.2-22.6c0.7,1.6,23.2,52.4,66.7,75.8
		C325.2,670.9,342.9,657.9,351.8,647z"/>
	<path fill="#E70012" d="M439.9,649.7c-12.6,3.7-26,5.6-39.9,5.6c-12.9,0-25.5-1.7-37.4-4.9c-20.8,30.5-61.2,16.5-61.2,16.5
		s48.8,28.8,98.6,22.1C432.4,684.7,439.1,663.8,439.9,649.7z"/>
	<path fill="#E70012" d="M512.7,600.1c-15.9,20.5-37.3,36.6-62,46c1.1,36.2-38.3,48.8-39.8,49.3c1.7-0.2,57-5.9,92.7-40
		C527.2,632.8,520.4,611.9,512.7,600.1z"/>
	<path fill="#E70012" d="M542.5,517.2c-0.8,27.1-9.2,52.4-23.2,73.6c22.3,28.7-2.3,62.1-3.2,63.3c1.3-1.1,42.6-38.3,51.5-86.9
		C573.4,535.1,555.6,522.2,542.5,517.2z"/>
	<path fill="#E70012" d="M517.8,432.6c14.3,21,23.2,46.1,24.5,73.2C577.9,516.1,577,559,577,559s12.3-55.3-9.4-100.6
		C553.4,428.9,531.4,429,517.8,432.6z"/>
	<path fill="#E70012" d="M448.2,378.7c24.9,8.9,46.6,24.6,62.8,44.8c34.1-12.3,58.2,21.2,59.2,22.6c-0.7-1.6-23.2-52.4-66.7-75.8
		C474.8,354.8,457.1,367.7,448.2,378.7z"/>
	<path fill="#E70012" d="M400,647.3c8,0,15.9-0.7,23.5-2c-2.2-3.8-9-15.9-13.1-32.8c-5-20.5-16.7-27.4-29.8-34.3
		c-13.1-6.9-27.2-0.8-31.7,3.8s-10.5,12.8-25.5,13c-15,0.3-19.6-7.9-19.8-13.6c-0.2-5.6,4.8-9.5,4.8-9.5c-1.9-2.6-1.2-13-1.2-13
		c16.8,23.4,52.2-0.4,47.2-10.7s-19.3-7.7-29.3-7.7c-10,0-13.6-6.9-13.6-6.9c-6.1,1.9-4.6,13.8-4.6,13.8c-8.6-3.8-8.2-15-8.2-15
		c-11.1-12.3-10-24.9,0.4-36.4c10.4-11.5,40.1-21.1,40.1-21.1s-6.1-8.1,0.4-12.3c6.4-4.2,22.2,9.2,22.2,9.2
		c-15,1.5-48.3,13.4-48.3,38s35.4,24,78.3,24c42.9,0,21.5-44,21.5-44c42.9,20.7,7.9,73.7,7.9,73.7c62.2-39.9,10-99,10-99
		c91.6,43,9.3,123.5,9.3,123.5c20-10,52.9-29.2,50.8-86.7c-2.1-57.6-69.4-71.4-69.4-71.4c74.4,4.6,97.3,53.7,96.3,88
		c-1,34.3-15.3,60.9-37.7,96.2c-3.5,5.6-7.4,10.2-11.3,14c39.2-23.5,65.4-66.4,65.4-115.4c0-74.3-60.2-134.5-134.5-134.5
		s-134.5,60.2-134.5,134.5S325.7,647.3,400,647.3z M320.2,458.4c8-10.6,24.1-21.9,39.9-23.8c15.7-1.9,17.9-15.2,19.1-19.8
		c1.6-6.1,15.2-9.2,23.4,12.3c8.2,21.5,5.7,31.7,1.1,32.4c-4.7,0.8-11.4-10-21.1-12.3s-20.9-4.4-34-0.8c-13.1,3.6-20.6,10-24.9,16.7
		c0,0-30.9,1.5-39.6,24.1c7.2-2.1,13.3-0.9,13.3-0.9s-11.8,12.5-12,15.5c0,0-9.1-4.8-7.5-12.9S290.4,461.9,320.2,458.4z"/>
	<path fill="#E70012" d="M481.1,182.3c6.4,0,11.6-5.1,11.6-11.6c0-6.4-5.2-11.6-11.6-11.6c-6.4,0-11.6,5.2-11.6,11.6
		S474.7,182.3,481.1,182.3z"/>
	<path fill="#E70012" d="M389.3,170.7c0,6.4,5.2,11.6,11.6,11.6s11.6-5.1,11.6-11.6c0-6.4-5.2-11.6-11.6-11.6
		C394.5,159,389.3,164.3,389.3,170.7z"/>
	<path fill="#E70012" d="M422.1,126.6c11.5,0,21-9.4,20.9-20.9c0-11.5-9.4-20.9-20.9-20.9s-20.9,9.4-20.9,20.9
		C401.2,117.2,410.5,126.6,422.1,126.6z M422.1,92.6c7.2-0.1,13.1,5.8,13.1,13.1c0,7.2-5.9,13.1-13.1,13.1
		c-7.2,0-13.1-5.9-13.1-13.1S414.9,92.6,422.1,92.6z"/>
	<rect x="530.2" y="89.2" fill="#E70012" width="10" height="9.6"/>
	<rect x="554.9" y="89.2" fill="#E70012" width="9.9" height="9.6"/>
	<path fill="#E70012" d="M362.1,108.1v13.4c3,0.5,6.1,0.3,8-1.7c0.4-0.5,1.7-1.3,1.6-4.5c0-2.7-1-3.8-1.7-4.6
		C368.3,108.6,365.2,108.1,362.1,108.1z"/>
	<rect x="554.9" y="110.8" fill="#E70012" width="9.9" height="10.1"/>
	<rect x="530.2" y="110.9" fill="#E70012" width="10" height="10.1"/>
	<path fill="#E70012" d="M328,166c0,0,0.4-6.7-9.5-6.7c-11.3,0-10.5,6.4-10.5,6.4v9.1h20V166z"/>
	<path fill="#E70012" d="M370.2,94.4c0.4-0.3,1.7-1.4,1.7-5c0-3.1-1.1-4-1.5-4.4c-1.8-1.4-5.2-1.8-8.3-1.8V96
		C364.9,96.2,368.3,95.9,370.2,94.4z"/>
	<path fill="#E70012" d="M370.5,166.8c-0.1-8.2-7.1-7.4-7.1-7.4h-14.5v15.4h14.7C363.6,174.8,370.5,175.4,370.5,166.8z"/>
	<path fill="#E70012" d="M400,50H158.4c0,0,0,410.6,0,483.6S193.2,673.3,400,750c206.8-76.7,241.6-143.4,241.6-216.4
		s0-483.6,0-483.6H400z M516.9,125.5V84.7c0-0.9,0.2-1.6,0.5-2.4c0.6-2.5,2.6-4.3,5.3-4.3h0.6c0.1,0,0.2-0.1,0.3-0.1
		s0.2,0.1,0.3,0.1h16.4v-2.8c0-4.1,3.3-7.3,7.3-7.3c4.1,0,7.3,3.3,7.3,7.3v2.8h15c0.2,0,0.3,0.1,0.5,0.1c0.3-0.1,0.6-0.1,1-0.1
		c3.7,0,6.7,3,6.7,6.7v40.7c0,3.7-3,6.7-6.7,6.7c-0.2,0-0.4-0.1-0.6-0.1c-0.1,0-0.1,0-0.1,0h-15.8v5.2c0,4.1-3.3,7.3-7.3,7.3
		s-7.3-3.3-7.3-7.3v-5.2h-16.2c-0.1,0-0.2,0.1-0.4,0.1c-0.1,0-0.3-0.1-0.4-0.1h-0.7c-3.1,0-5.6-2.5-5.6-5.6c0-0.1,0.1-0.2,0.1-0.3
		C516.9,126,516.9,125.8,516.9,125.5z M476.8,71.9h29.6c3.4,0,6.2,2.8,6.2,6.2c0,3.4-2.8,6.2-6.2,6.2h-29.6c-3.4,0-6.2-2.8-6.2-6.2
		C470.6,74.8,473.4,71.9,476.8,71.9z M473.9,86h35.8c3.4,0,6.2,2.8,6.2,6.2c0,3.4-2.8,6.2-6.2,6.2h-11.4v38.2c0,3.7-3,6.7-6.7,6.7
		s-6.7-3-6.7-6.7V98.4h-11c-3.4,0-6.2-2.8-6.2-6.2C467.7,88.8,470.5,86,473.9,86z M514,108.3v21.8c0,3.7-3,6.7-6.7,6.7
		c-3.7,0-6.7-3-6.7-6.7v-21.8c0-3.7,3-6.7,6.7-6.7S514,104.7,514,108.3z M483.2,108.4v21.2c0,3.7-3,6.7-6.7,6.7s-6.7-3-6.7-6.7
		v-21.2c0-3.7,3-6.7,6.7-6.7S483.2,104.8,483.2,108.4z M481.1,151c10.8,0,19.6,8.8,19.6,19.6c0,10.8-8.8,19.6-19.6,19.6
		c-10.9,0-19.6-8.8-19.6-19.6C461.5,159.9,470.3,151,481.1,151z M463.4,181.7v8.7h-11.2h-1.5h-7.1V151h8.5v30.6H463.4z M422.1,69.8
		c19.9,0,35.9,16.1,35.9,35.9s-16.1,35.9-35.9,35.9s-35.9-16.1-35.9-35.9S402.2,69.8,422.1,69.8z M441.6,181.7v8.7h-11.4H429h-7.4
		V151h8.5v30.6H441.6z M420.5,170.7c0,10.8-8.8,19.6-19.6,19.6c-10.9,0-19.6-8.8-19.6-19.6c0-10.8,8.8-19.6,19.6-19.6
		C411.7,151,420.6,159.9,420.5,170.7z M349.7,73.6c0.9-1.2,2.2-2.2,3.8-2.6c1.7-0.4,16.1-3.5,25.1,3.6c3,2.4,6.6,6.9,6.6,14.8
		c0,6.9-2.5,11.3-5.2,13.9c3.2,3.2,5.1,6.7,5.2,11.9c0,9.6-3.2,12.9-6.2,15.3c-4.8,3.8-11.8,3.5-16.9,3.5v3.3c0,4-3.2,7.1-7.1,7.1
		c-4,0-7.1-3.2-7.1-7.1l-0.1-59.1C347.9,76.5,348.6,74.9,349.7,73.6z M365.2,151.1c0,0,14,0.1,13.9,16.3
		c-0.1,16.2-14.6,15.8-14.6,15.8h-15.7v7.2h-8.7V151h5.3v0.1H365.2z M227.4,129.8c1.5-0.3,31.5-7.6,43.3-32.9L230.4,97
		c-3.3,0-6-2.6-6-6c0-3.3,2.6-6,6-6l44.2-0.2c0.3-2,0.6-4.1,0.8-6.3v-0.1c0-0.1,0-0.1,0-0.1c0.1-1.3,0.1-2.6,0.1-3.9
		c0-4,3.2-7.1,7.1-7.1c4,0,7.1,3.2,7.1,7.1c0,1.1-0.1,2.3-0.2,3.4c0,0.2,0.1,0.3,0.1,0.5c0,2.2,0.2,4.3,0.5,6.3l44.7-0.2
		c3.3,0,6,2.6,6,6c0,3.3-2.6,6-6,6l-40.5,0.2c12,22.2,42.8,32,43.2,32.1c3.7,1.2,5.8,5.2,4.6,9c-0.9,3-3.7,5-6.8,5
		c-0.7,0-1.4-0.1-2.1-0.3c-1.8-0.6-35.8-11.4-50.8-37.5c-3.2,6.2-7.3,11.7-11.9,16.3l10.4,9.9c2.8,2.7,2.9,7.2,0.2,10
		c-1.4,1.4-3.3,2.2-5.2,2.2c-1.7,0-3.5-0.6-4.9-2l-11.5-11c-10.2,7.2-21,11.4-29,13.3c-0.5,0.1-1,0.2-1.5,0.2
		c-3.3,0-6.2-2.2-6.9-5.6C221.2,134.4,223.6,130.7,227.4,129.8z M308,183.1v7.2h-8.7v-25c0,0,0.8-14.3,18.8-14.3
		s18.7,13.2,18.6,13.2v26.1H328v-7.2H308z M622.3,533.6c0,38.3-11.3,66.2-37.8,93.3c-34.2,35.1-94.6,68.6-184.5,102.4
		c-89.9-33.8-150.3-67.4-184.5-102.4c-26.5-27.1-37.8-55-37.8-93.3v-333h444.6V533.6z"/>
</g>
<g>
</g>
<g>
</g>
<g>
</g>
<g>
</g>
<g>
</g>
<g>
</g>
<g>
</g>
<g>
</g>
<g>
</g>
<g>
</g>
<g>
</g>
</svg>
