<!-- Created by @FCLOGO 2022-03-31 10:27:02 . https://fclogo.top/ -->
<!-- FOR PERSONAL USE ONLY NOT FOR COMMERCIAL USE -->
<svg version="1.1" xmlns="http://www.w3.org/2000/svg" xmlns:xlink="http://www.w3.org/1999/xlink" x="0px" y="0px"
	 viewBox="0 0 800 800" enable-background="new 0 0 800 800" xml:space="preserve">
<g>
	<path fill-rule="evenodd" clip-rule="evenodd" fill="#B02125" d="M395.3,718.3c72.7,0,139.7-24.4,193.3-65.4H202
		C255.6,693.9,322.5,718.3,395.3,718.3z"/>
	<path fill-rule="evenodd" clip-rule="evenodd" fill="#B02125" d="M426.1,427.8l6.7,9.8c0,0,24.8-17.7,56.3-10.4l5.5-20.1
		c0.1,0-33.7-22.6-40.7-43l-14,2.2C439.9,366.3,449.3,407.1,426.1,427.8z"/>
	<path fill-rule="evenodd" clip-rule="evenodd" fill="#B02125" d="M353.5,242.9v-35.4h-8.3c-0.8,2.4-2.5,4.1-4.3,5.7
		s-4.6,2.8-8.1,3.8v7.8c2.5-0.6,4.4-1.4,5.8-2.2c1.6-0.6,3.2-1.6,4.8-3v23.2H353.5z"/>
	<path fill-rule="evenodd" clip-rule="evenodd" fill="#B02125" d="M377.9,237.7h-0.2c-0.8,0-1.6-0.4-2.2-1c-0.6-0.6-1-1.4-1.2-2.8
		l-9.8,1.2c0.6,1.8,1.4,3.2,2.6,4.6c1,1.2,2.4,2.2,3.9,2.8c1.6,0.8,3.9,1,6.7,1c0,0,0,0,0.2,0c4.5,0,8.3-1.6,11-4.2
		c2.6-3,3.9-7.6,3.9-14c0-4.2-0.6-7.6-2-10.2c-1.1-2.5-2.9-4.4-5-5.6c-2-1.2-4.7-1.8-7.9-2c-0.2,0-0.4,0-0.6,0c-3,0-5.3,0.6-7.3,1.6
		s-3.5,2.4-4.5,4.2c-1.2,2-1.8,4-1.8,6.4c0,3.2,1.2,6.2,3.3,8.4c2.2,2.4,4.7,3.2,7.9,3.2c1,0,2,0,3-0.2c0.4-0.2,1-0.4,1.4-0.6
		c1.2-0.6,2.4-1.4,3.5-2.6c-0.2,3.6-0.8,6-1.4,7.2C380.6,236.7,379.2,237.7,377.9,237.7z M381.3,224c-1,1-2.2,1.4-3.3,1.6
		c-0.2,0-0.2,0-0.2,0c-1.4,0-2.4-0.6-3.3-1.6c-0.8-1.2-1.2-2.6-1.2-4.6c0-2,0.4-3.2,1.2-4.2c0.8-1,2-1.4,3.1-1.4c0.2,0,0.2,0,0.4,0
		c1.2,0,2.4,0.6,3.1,1.6c1,1,1.6,2.6,1.6,4.4C382.6,221.5,382,223.1,381.3,224z"/>
	<path fill-rule="evenodd" clip-rule="evenodd" fill="#B02125" d="M410.5,237.7c-1,0-1.6-0.4-2.3-1c-0.6-0.6-1-1.4-1.2-2.8l-9.8,1.2
		c0.6,1.8,1.4,3.2,2.6,4.6c1,1.2,2.4,2.2,3.9,2.8c1.8,0.8,3.9,1,6.7,1h0.2c4.5,0,8.1-1.6,10.8-4.2c2.6-3,3.9-7.6,3.9-14
		c0-4.2-0.6-7.6-1.8-10.2c-1.3-2.5-3.1-4.4-5.1-5.6c-2.2-1.2-4.5-1.8-7.9-2c-0.2,0-0.4,0-0.6,0c-2.9,0-5.3,0.6-7.3,1.6
		c-2,1-3.5,2.4-4.5,4.2c-1.2,2-1.8,4-1.8,6.4c0,3.2,1.2,6.2,3.3,8.4c2.2,2.4,4.9,3.2,8.1,3.2c1,0,1.8,0,2.8-0.2
		c0.6-0.2,1-0.4,1.4-0.6c1.4-0.6,2.3-1.4,3.5-2.6c-0.4,3.6-0.8,6-1.4,7.2C413.2,236.7,412,237.7,410.5,237.7z M413.9,224
		c-1,1-2,1.4-3.3,1.6c-1.4,0-2.6-0.6-3.3-1.6c-1-1.2-1.4-2.6-1.4-4.6c0-2,0.4-3.2,1.2-4.2c1-1,2-1.4,3.3-1.4h0.2
		c1.2,0,2.4,0.6,3.3,1.6c0.6,1,1.2,2.6,1.2,4.4C415.1,221.5,414.7,223.1,413.9,224z"/>
	<path fill-rule="evenodd" clip-rule="evenodd" fill="#B02125" d="M445.9,207.6l-4.7,5.6l-13.1,15.2v8h13.2h4.7v6.6h8.5v-6.6h4.5
		v-7.4h-4.6v-21.4H445.9z M446,229.1h-4.7h-4.7l4.7-5.6l4.7-5.4V229.1z"/>
	<path fill-rule="evenodd" clip-rule="evenodd" fill="#B02125" d="M59.2,643.7h668V499.2h-668V643.7z M139.8,609.2h-24.7v-63h34
		v53.4C149.4,606.5,146.3,609.4,139.8,609.2z M361.6,607.9h-45.8v-19.6h52.4v12.6C368.7,606.1,366.5,608.4,361.6,607.9z
		 M655.1,526.8h46.5v73.7c0.5,8-2.9,11.8-10.2,11.3h-23.4v-11.7h17.7c1.5,0,2.1-0.8,1.9-2.3v-59h-32.6V526.8z M645.2,525.7l2.3,7.2
		c0.2,1,0.9,1.5,1.9,1.5h3.4V546h-9.4c-3,0.3-5-1.1-6-4.1l-5.3-16.2H645.2z M620.7,535.5h14v78.4h-14V535.5z M513,598.7h6.4
		c2,0,3-1,3-3l3.8-51H513v-12.1h14.3l0.4-6.8h14l-0.4,6.8H581c1.5,0,2.3-0.8,2.3-2.3v-4.5h13.6v10.6c0.2,5.8-2.5,8.5-8.3,8.3h-16.7
		v23.1h4.5c2.3,0.3,2.4-0.8,2.9-3l3.4-9.4h14l-6.8,19.2c-1,3-3.5,4.7-7.5,4.9h-10.5v16.9c-0.3,1.8,0.6,2.5,2.6,2.3h22v10.9h-31.1
		c-5.5,0-8.3-2.6-8.3-7.9v-22.2h-12.4v-11.7h12.4v-23.1h-17.3l-4.1,57c-0.3,5.3-3.1,7.9-8.7,7.9h-14V598.7z M405.7,533.7h14.8v65.8
		h20.7V527h14.4v72.5h18.1c1.7,0.2,2.5-0.5,2.2-2.2v-63.6H490v66.2c0.5,8.4-3.2,12.3-11.1,11.8h-73.2V533.7z M300.3,528.1h12.2v6.6
		h23.6v-8.1h13.3v8.1h21.8c1.2,0,1.8-0.6,1.8-1.8v-4.8h11.8v7.8c0.2,4.7-2.3,6.9-7.8,6.6h-76.8V528.1z M299.9,545.5h34.3V544h17.4
		v1.5h32.9v8.1h-84.6V545.5z M376,574.7h-73.9v-18.1H383v10.7C383.5,572.7,381.1,575.2,376,574.7z M299.2,578h84.9v24
		c0.7,5.9-2.1,8.5-8.5,7.8H369v-8.1h1.1c1.7,0.2,2.5-0.6,2.2-2.6v-13.7h-60.2v24h-12.9V578z M193.3,529.5h35.4v-3.7h13.6v3.7h35
		v10.7h-35v5.9h33.2v55c0.7,7.4-3,10.7-11.1,10h-15.1v-10.7h10.3c2,0.2,2.8-0.5,2.6-2.2v-4.8h-19.9V611h-13.6v-17.7h-19.9V611h-13.3
		V546h33.2v-5.9h-35.4V529.5z M112.6,529.3h57.9v11.8h-3.4v61c0.2,7.7-2.9,11.5-9.3,11.2h-8.2v-11.6h1.9c2.2,0,3.2-1.2,3-3.7v-56.6
		h-41.9V529.3z M101.2,528.2l1.6,9.3c0.5,2.5,1.6,3.6,3.4,3.4h5.2v11.6H96.9c-4.5,0.3-7.1-2-7.8-6.7l-3.1-17.6H101.2z M100.5,556.3
		l2.2,8.2c1,2.7,2,4.2,3.5,4h5.2v10.8H96.1c-4,0.5-6.2-2.2-7.2-7.7l-3.4-15.3H100.5z M85,601.8h4.5c1.5,0,2.1-0.1,2.9-1.9l4.5-16.4
		h14.2l-5.5,22.1c-0.7,4.7-3.9,7-9.3,6.7H85V601.8z"/>
	<path fill-rule="evenodd" clip-rule="evenodd" fill="#B02125" d="M419.5,434.8c0,0-23.6,19.5-58.5,13.4l-1,15.5
		c0,0,20.4,5.4,34.3,26.4h18.1c-1.3-10.9-1.2-30,12-44.1L419.5,434.8z"/>
	<path fill-rule="evenodd" clip-rule="evenodd" fill="#B02125" d="M350,461l1.6-17.3c0,0-36-15.9-36.4-57.5h-7.9
		c0,0-0.3,6.4-1.3,14.3c8.3,8.7,15.6,19,21,30.9c3.5,7.7,6.1,17.1,7.5,27.3C339.2,458.5,344.4,459.1,350,461z"/>
	<path fill-rule="evenodd" clip-rule="evenodd" fill="#B02125" d="M168.2,490.1C157.1,462.2,151,431.8,151,400
		c0-134.9,109.4-244.2,244.2-244.2S639.5,265.1,639.5,400c0,3.1-0.1,6.1-0.2,9.1c9-1.9,21.3,4.1,30.1,15.1
		c10.8,13.4,13.5,19.7,15.2,24.7c0.6-1.1,1.2-2.9,1.2-5.3v-0.1c0.2-10,0.4-21.3-12.4-30.5c-5-3.6-6.8-11.1-4.1-16.9
		c3.3-7.1,11.7-9.8,22.5-7.2c10.6,2.5,17.5,7.1,21.7,14.5c0-1.1,0-2.3,0-3.4c0-175.8-142.5-318.3-318.3-318.3S76.9,224.2,76.9,400
		c0,31.3,4.5,61.5,12.9,90.1H168.2z M635.8,215.1c3.5,1.7,6.5,4.2,8.9,7.5c2.7,3.8,4,7.6,4,11.6c-0.1,4-1.5,7.7-4.2,11.2l-4.7-4.1
		c2.1-2.9,3.2-5.6,3.2-8.1c0.1-2.6-0.8-5.1-2.6-7.6c-2.1-2.9-4.5-4.8-7.3-5.8c-2.8-0.9-5.6-1-8.5-0.1c-2.9,0.9-5.6,2.2-8.1,4
		c-3.2,2.3-5.7,4.8-7.4,7.5s-2.5,5.4-2.2,8.2c0.2,2.8,1.2,5.4,2.8,7.7c2,2.8,4.5,4.6,7.5,5.3c3,0.8,6.3,0.4,10-1.2l2.3,5.9
		c-4.8,1.9-9.3,2.3-13.4,1.1c-4.1-1.2-7.6-3.7-10.4-7.6c-2.9-4.1-4.5-8-4.7-11.7c-0.2-3.7,0.8-7.4,3-11c2.2-3.6,5.1-6.7,8.7-9.3
		c3.9-2.8,7.9-4.5,11.9-5.2C628.5,212.9,632.3,213.5,635.8,215.1z M599.3,173.8l22.3,22l-3.8,3.9L599.8,182l-10.1,10.2l15.5,15.3
		l-3.8,3.9l-15.5-15.3l-14.8,15l-4.4-4.3L599.3,173.8z M527.5,125l8,4.6l-6.9,34c-0.7,3.2-1.2,5.5-1.5,7.1c1.3-1.2,3.3-2.9,5.9-5.2
		l25.8-22.4l7.2,4.1l-23.2,40.2l-5.1-3l19.4-33.7l-31.1,26.9l-4.8-2.8l8.1-41l-19.8,34.2l-5.1-3L527.5,125z M486.8,108.9l5.8,2.1
		l-14,38.5l21.5,7.8l-1.9,5.2l-27.3-9.9L486.8,108.9z M429.5,129.2l5.8,0.6c-0.2,2.3,0.1,4.3,0.8,6s2,3.1,3.9,4.4
		c1.9,1.3,4.1,2.2,6.7,2.7c2.3,0.4,4.4,0.5,6.3,0.2c1.9-0.3,3.4-1,4.5-2.1c1.1-1,1.8-2.2,2-3.7c0.3-1.4,0.1-2.8-0.5-4
		c-0.6-1.2-1.8-2.4-3.6-3.5c-1.1-0.7-3.7-2-7.7-3.8c-4-1.8-6.7-3.3-8.2-4.6c-2-1.6-3.3-3.3-4-5.2c-0.7-1.9-0.9-3.9-0.5-6
		c0.4-2.3,1.5-4.3,3.2-6.1c1.7-1.7,3.9-2.9,6.6-3.4c2.7-0.5,5.6-0.5,8.7,0.1c3.4,0.7,6.3,1.8,8.6,3.4c2.4,1.6,4,3.6,5,6
		c1,2.4,1.3,4.9,0.8,7.6l-5.9-0.7c0.2-2.9-0.4-5.3-1.9-7.1c-1.5-1.8-4-3.1-7.5-3.8c-3.6-0.7-6.4-0.6-8.4,0.5c-1.9,1-3.1,2.5-3.4,4.3
		c-0.3,1.6,0,3.1,1,4.4c1,1.3,3.8,3,8.5,5c4.7,2.1,7.9,3.7,9.5,4.9c2.4,1.7,4.1,3.7,5,5.8c0.9,2.1,1.1,4.4,0.6,6.9
		c-0.5,2.4-1.6,4.6-3.4,6.5c-1.8,1.9-4.1,3.2-7,3.8c-2.8,0.7-5.9,0.7-9.1,0.1c-4.1-0.8-7.5-2.1-10-3.8c-2.6-1.7-4.4-4-5.5-6.7
		C429.3,135.2,429,132.3,429.5,129.2z M413.2,126.2c-0.8-1.1-2.2-2.1-4.1-2.8c-1.2-0.5-4-1.3-8.2-2.5c-4.2-1.1-7.2-2.2-8.9-3.1
		c-2.2-1.2-3.8-2.7-4.9-4.4c-1-1.7-1.5-3.7-1.5-5.8c0.1-2.3,0.8-4.5,2.2-6.5c1.4-2,3.4-3.5,5.9-4.5c2.6-1,5.4-1.5,8.6-1.4
		c3.4,0.1,6.5,0.7,9.1,1.9c2.6,1.2,4.6,2.9,5.9,5c1.4,2.2,2.1,4.6,2.1,7.4l-5.9,0.3c-0.2-2.9-1.3-5.2-3.1-6.7
		c-1.8-1.5-4.5-2.4-8-2.4c-3.7-0.1-6.4,0.5-8.2,1.8c-1.7,1.3-2.6,2.9-2.7,4.9c0,1.7,0.5,3.1,1.7,4.2c1.2,1.1,4.2,2.3,9.2,3.5
		c5,1.3,8.4,2.3,10.2,3.2c2.7,1.3,4.6,2.9,5.9,4.9c1.2,1.9,1.8,4.2,1.8,6.7c-0.1,2.5-0.8,4.8-2.3,6.9c-1.5,2.2-3.5,3.8-6.2,5
		c-2.7,1.2-5.7,1.7-9,1.6c-4.2-0.1-7.7-0.8-10.5-2.1c-2.8-1.3-5-3.2-6.5-5.7c-1.6-2.5-2.3-5.3-2.3-8.4l5.8-0.4
		c0.2,2.3,0.8,4.3,1.8,5.8c1,1.5,2.5,2.8,4.6,3.7c2.1,1,4.5,1.5,7.1,1.5c2.3,0.1,4.4-0.2,6.2-0.9c1.8-0.7,3.2-1.6,4.1-2.8
		c0.9-1.2,1.4-2.5,1.4-3.9C414.4,128.6,414,127.3,413.2,126.2z M315.6,106.4l31.9,30.2l-8.1-35.6l5.7-1.3l10.3,45.3l-6.1,1.4
		l-31.9-30.2l8.1,35.6l-5.7,1.3l-10.3-45.3L315.6,106.4z M280.1,118.4l35.6,35.4l-6.5,2.7l-10.5-10.9l-17.9,7.6l0.8,14.9l-6,2.5
		L274,121L280.1,118.4z M219.4,150.5l40.3,17.3l-19.8-30.6l4.9-3.2l25.3,39l-5.3,3.4l-40.3-17.4l19.9,30.6l-4.9,3.2l-25.3-39
		L219.4,150.5z M200.5,164.7l3.7,4l-20.1,18.7l9.7,10.4l18.8-17.5l3.7,4l-18.8,17.5l10.8,11.6l20.9-19.4l3.7,4l-25.4,23.6l-31.6-34
		L200.5,164.7z M145,226l15.2,11.5l14.6-19.3l-15.2-11.5l3.7-4.9l37.1,28l-3.7,4.9l-17.5-13.2l-14.6,19.3L182,254l-3.7,4.9l-37.1-28
		L145,226z"/>
	<path fill-rule="evenodd" clip-rule="evenodd" fill="#B02125" d="M645.6,471.2c2.2-0.3,6.8-0.8,6.9-19.7c0-5.4-3.1-12.4-8.4-14.6
		c-2.1-0.9-4.5-2.4-6.8-4.2c-0.4,3.3-0.9,6.5-1.5,9.8c1,2.2,1.7,4.2,2,5.7c0.3,1.6,0.6,3.2,0.9,4.8
		C640.1,460.3,642.1,471.6,645.6,471.2z"/>
	<path fill-rule="evenodd" clip-rule="evenodd" fill="#B02125" d="M491.3,490.1h20.3c-5.1-2.5-10.8-4.1-16.5-5.2
		C493.9,486.6,492.6,488.4,491.3,490.1z"/>
	<path fill-rule="evenodd" clip-rule="evenodd" fill="#B02125" d="M499.2,478.4c10.7,2.4,19.2,6.2,25.4,11.6h32
		c-5.4-15.8-18.1-31.2-46.3-36C507.5,462.7,503.7,470.8,499.2,478.4z"/>
	<path fill-rule="evenodd" clip-rule="evenodd" fill="#B02125" d="M562.9,437.6c14.3,11.7,23.6,29.3,27.8,52.5h16.9
		c-5.1-34.5-16-56.2-35.3-72c-18.5-15.3-40-16.6-57.6-15.4c0.7,5.1,1,10.3,1,15.6c0,1,0,2,0,3C531.3,421.8,548.6,425.9,562.9,437.6z
		"/>
	<path fill-rule="evenodd" clip-rule="evenodd" fill="#B02125" d="M740.5,441.8c-1.1-1.1-2.6-1.4-4.2-0.8c-2.2,0.8-3.7,3.1-4,6.2
		c-0.8,7.3-2.1,14.4-8.3,15.3c-3.7,0.5-6.9-0.3-9.2-2.3c-2.6-2.3-4-5.9-4-10.8c0-3.1,0.2-6.6,0.5-10.3c0.5-8.1,1.1-17.4-0.7-24.6
		c-2.6-10.8-8.3-16.1-20.3-19c-7.4-1.8-12.6-0.6-14.4,3.3c-1.3,2.8-0.5,6.6,1.8,8.3c15.8,11.4,15.5,25.9,15.3,36.4v0.1
		c-0.2,8.2-4.2,12.5-7.9,13.7c-2.5,0.8-5.1-0.5-6-3.1c-0.2-0.5-0.4-1.1-0.6-1.6c-1.6-4.8-3.4-10.2-14.6-24
		c-8.1-10.1-18.2-14-23.5-12.5c-2.2,0.6-3.4,2.1-3.8,4.5c0,1.8,4.8,7.6,10.2,9.8c8.4,3.5,12.8,13.3,12.7,21.2
		c-0.1,17.6-4.1,25.6-13.2,26.6c-10,1.1-12.3-11.6-14.6-24c-0.3-1.6-0.6-3.2-0.9-4.7c-0.9-4.5-9.1-18.9-13.1-24.9
		c-9.9-14.9-17.9-25.5-38.5-37.4c-21.3-12.3-49.5-11.8-70.7-8.8c2,5.6,3.6,11.4,4.8,17.4c18.6-1.3,42.6,0,63.2,16.9
		c21,17.2,32.6,40.5,37.9,77.5h111.2c6.9-6.6,11.6-13.3,13.6-18.7C743.3,461.3,744.4,445.7,740.5,441.8z"/>
	<path fill-rule="evenodd" clip-rule="evenodd" fill="#B02125" d="M563.9,490.1h19.6c-4-20.9-12.4-36.7-25.1-47
		c-12.9-10.6-28.7-14.2-43-14.8c-0.6,6.6-1.6,13-3.2,19.2C539.1,452.3,557,466.8,563.9,490.1z"/>
	<path fill-rule="evenodd" clip-rule="evenodd" fill="#B02125" d="M295.1,141.8c0,0-13.7-14.8-16-17.1c0.3,3.7,1.5,23.2,1.5,23.2
		L295.1,141.8z"/>
	<path fill-rule="evenodd" clip-rule="evenodd" fill="#B02125" d="M354.9,595.7h-26.2v4.8h24.4c1.5,0,2.1-0.6,1.8-1.8V595.7z"/>
	<path fill-rule="evenodd" clip-rule="evenodd" fill="#B02125" d="M315.4,566.9h52.8c1,0,1.5-0.5,1.5-1.5V564h-54.3V566.9z"/>
	<path fill-rule="evenodd" clip-rule="evenodd" fill="#B02125" d="M127.5,597.6h6c1.7,0.3,2.6-0.9,2.6-3.4v-36.9h-8.6V597.6z"/>
	<rect x="242.3" y="575.6" fill-rule="evenodd" clip-rule="evenodd" fill="#B02125" width="19.9" height="6.6"/>
	<rect x="208.8" y="575.6" fill-rule="evenodd" clip-rule="evenodd" fill="#B02125" width="19.9" height="6.6"/>
	<polygon fill-rule="evenodd" clip-rule="evenodd" fill="#B02125" points="208.8,565.6 218,565.6 213.9,559 228.3,559 232.7,565.6 
		238.3,565.6 242.7,559.3 257.5,559.3 253.4,565.6 262.2,565.6 262.2,556.7 208.8,556.7 	"/>
	<path fill-rule="evenodd" clip-rule="evenodd" fill="#B02125" d="M398.3,305c-0.9,0-1.7,0-2.6,0c-0.2,0-0.3,0-0.5,0
		c-2.8,0.1-5.5,0.2-8.2,0.5c-0.3,0-0.5,0.1-0.8,0.1c-1.6,0.2-3.1,0.4-4.7,0.6c-0.2,0-0.5,0.1-0.7,0.1c-0.9,0.1-1.7,0.3-2.6,0.4
		c-0.1,0-0.1,0-0.2,0c-1.6,0.3-3.3,0.6-4.9,1c-0.4,0.1-0.7,0.2-1.1,0.3c-1.3,0.3-2.7,0.7-4,1c-0.4,0.1-0.7,0.2-1.1,0.3
		c-0.8,0.2-1.5,0.4-2.3,0.7c-0.4,0.1-0.8,0.3-1.2,0.4c-1.2,0.4-2.4,0.8-3.6,1.2c-0.4,0.2-0.9,0.3-1.3,0.5c-1.1,0.4-2.1,0.8-3.2,1.2
		c-0.5,0.2-1,0.4-1.5,0.6c-0.7,0.3-1.3,0.6-2,0.9c-0.5,0.2-1,0.5-1.6,0.7c-1,0.4-1.9,0.9-2.9,1.4c-0.5,0.3-1,0.5-1.5,0.8
		c-0.6,0.3-1.2,0.6-1.8,1c-0.9,0.5-1.7,0.9-2.5,1.4c-0.6,0.3-1.1,0.7-1.7,1c-0.6,0.3-1.1,0.7-1.7,1.1c-0.8,0.5-1.5,1-2.3,1.5
		c-0.6,0.4-1.1,0.8-1.7,1.1c-0.5,0.3-1,0.7-1.5,1c-0.8,0.6-1.7,1.2-2.5,1.8c-0.5,0.4-0.9,0.7-1.4,1.1c-0.6,0.5-1.2,0.9-1.8,1.4
		c-0.6,0.5-1.2,1-1.8,1.4c-0.6,0.5-1.2,1-1.8,1.6c-0.4,0.4-0.8,0.7-1.2,1.1c-0.8,0.7-1.6,1.4-2.3,2.2c-0.4,0.4-0.8,0.7-1.1,1.1
		c-0.6,0.6-1.1,1.1-1.7,1.7c-0.4,0.4-0.9,0.9-1.3,1.3c-0.6,0.7-1.3,1.4-1.9,2.1c-0.3,0.4-0.7,0.8-1,1.2c-0.7,0.8-1.4,1.7-2.1,2.5
		c-0.3,0.4-0.6,0.7-0.9,1.1c-0.5,0.7-1.1,1.3-1.6,2c-0.3,0.4-0.6,0.7-0.8,1.1c-0.7,0.9-1.3,1.8-2,2.7c-0.3,0.4-0.6,0.8-0.9,1.2
		c-0.6,0.9-1.3,1.9-1.9,2.8c-0.2,0.4-0.5,0.8-0.7,1.1c-0.5,0.7-0.9,1.5-1.4,2.2c-0.2,0.4-0.5,0.8-0.7,1.2c-0.6,1-1.1,1.9-1.6,2.9
		c-0.2,0.4-0.5,0.9-0.7,1.3c-0.5,0.9-0.9,1.8-1.4,2.7c-0.2,0.5-0.5,1-0.7,1.5c-0.4,0.8-0.7,1.6-1.1,2.4c-0.2,0.5-0.4,0.9-0.6,1.4
		c-0.4,1-0.8,2-1.3,3.1c-0.2,0.5-0.4,1-0.6,1.5c-0.3,0.8-0.6,1.6-0.9,2.5c-0.2,0.7-0.4,1.3-0.7,2c-0.3,0.8-0.5,1.6-0.7,2.4
		c-0.1,0.3-0.2,0.7-0.3,1c1.8,1.3,3.7,2.7,5.4,4.1c2.3-8.6,5.6-16.7,9.9-24.3l0.9,14.1l10.4-3.5c17.7-43.6,51.4-44.1,51.4-44.1
		l1.8-9.4l-14.6-2.6c13.3-5.9,28-9.2,43.4-9.2c2.7,0,5.5,0.1,8.2,0.3c-3.3,2.9-12.5,9.2-28.8,9.2l-0.6,10c0,0.1,33.1-4.4,58.6,26.7
		l14.9-2.8c0,0-6.5-19.2-3.9-31.9c32.3,16.4,55.1,48.7,58.2,86.6l-2.9-1.2l-5.5,22.2c0,0,4.5,2.9,6.6,9c-3.9,19.2-13,36.6-25.7,50.6
		h8.3c16.1-19.5,25.7-44.6,25.7-71.9C511.5,355.7,460.8,305,398.3,305z"/>
	<path fill-rule="evenodd" clip-rule="evenodd" fill="#B02125" d="M186.2,475.6c-5.9-0.8-11.6-0.6-16.2-0.1
		c1.6,4.9,3.4,9.8,5.4,14.6h39.1l0,0C207.6,482,198.1,477.1,186.2,475.6z"/>
	<path fill-rule="evenodd" clip-rule="evenodd" fill="#B02125" d="M247.5,490.1L247.5,490.1c-7.2-16.9-21.2-29.1-32.5-32.9
		c-17.5-5.8-36.5-1.5-49.5,3.2c0.7,2.8,1.5,5.6,2.3,8.4c14.6-1.8,40.3-1.1,55.5,21.3l0,0H247.5z"/>
	<path fill-rule="evenodd" clip-rule="evenodd" fill="#B02125" d="M320.6,434.3c-19.1-42.2-62.3-63-95.2-61.7
		c-28.7,1.1-49.5,12.8-67.6,24.1c0,1.1,0,2.2,0,3.3c0,5.1,0.2,10.1,0.5,15.1c17.2-10.7,37.8-20,60.2-18.6
		c20.8,1.3,42.7,10.5,58.6,24.7c13.5,12.1,29.2,33.6,30.7,68.9l0,0h19.7l0,0C330.6,469.4,327.2,448.8,320.6,434.3z"/>
	<path fill-rule="evenodd" clip-rule="evenodd" fill="#B02125" d="M286.2,490.1h14.4l0,0c-1.2-26.2-10.9-48-28.4-63.7
		c-14.7-13.2-35-21.7-54.3-22.9c-22-1.4-42.1,8.4-59.1,19.5c0.4,4.4,1,8.8,1.6,13.2c17.8-12.9,46.7-18,72-11.1
		C263.2,433.6,282.3,456.9,286.2,490.1L286.2,490.1z"/>
	<path fill-rule="evenodd" clip-rule="evenodd" fill="#B02125" d="M254.9,490.1h24.3l0,0c-4.9-40-31.9-53.5-48.6-58.1
		c-24.9-6.8-53.3-1.3-68.8,12.1c0.6,3.2,1.3,6.3,2,9.5c14-4.9,34.4-9.3,53.4-3C232.2,455.5,247.7,470.9,254.9,490.1L254.9,490.1z"/>
</g>
<g>
</g>
<g>
</g>
<g>
</g>
<g>
</g>
<g>
</g>
<g>
</g>
<g>
</g>
<g>
</g>
<g>
</g>
<g>
</g>
<g>
</g>
</svg>
