<?xml version="1.0" encoding="utf-8"?>
<!-- Created by @FCLOGO 2023-10-1 GMT+8 20:05:17 . https://fclogo.top/ -->
<!-- FOR PERSONAL USE ONLY NOT FOR COMMERCIAL USE -->
<svg version="1.1" xmlns="http://www.w3.org/2000/svg" xmlns:xlink="http://www.w3.org/1999/xlink" x="0px" y="0px"
	 viewBox="0 0 800 800" style="enable-background:new 0 0 800 800;" xml:space="preserve">
<style type="text/css">
	.st0{fill:#CB2530;}
</style>
<g>
	<g>
		<path class="st0" d="M360.1,673.5c-1.3,1.1-3.2,2-5.7,2.7v5.5c1.8-0.4,3.1-1,4.1-1.5c1.1-0.4,2.3-1.1,3.4-2.1v16.3h7.1v-24.9h-5.9
			C362.5,671.2,361.3,672.5,360.1,673.5z"/>
		<path class="st0" d="M391.7,670.9c-1.4-0.8-3.3-1.3-5.6-1.4c-0.1,0-0.3,0-0.4,0c-2.1,0-3.7,0.4-5.1,1.1c-1.4,0.7-2.5,1.7-3.2,3
			c-0.8,1.4-1.3,2.8-1.3,4.5c0,2.3,0.8,4.4,2.3,5.9c1.6,1.7,3.3,2.3,5.6,2.3c0.7,0,1.4,0,2.1-0.1c0.3-0.1,0.7-0.3,1-0.4
			c0.8-0.4,1.7-1,2.5-1.8c-0.1,2.5-0.6,4.2-1,5.1c-0.6,1.1-1.6,1.8-2.5,1.8H386c-0.6,0-1.1-0.3-1.6-0.7c-0.4-0.4-0.7-1-0.8-2
			l-6.9,0.8c0.4,1.3,1,2.3,1.8,3.2c0.7,0.8,1.7,1.5,2.8,2c1.1,0.6,2.8,0.7,4.7,0.7c0,0,0,0,0.1,0c3.2,0,5.9-1.1,7.8-3
			c1.8-2.1,2.8-5.4,2.8-9.9c0-3-0.4-5.4-1.4-7.2C394.5,673.1,393.2,671.8,391.7,670.9z M388.6,681.1c-0.7,0.7-1.6,1-2.3,1.1
			c-0.1,0-0.1,0-0.1,0c-1,0-1.7-0.4-2.3-1.1c-0.6-0.8-0.8-1.8-0.8-3.2s0.3-2.3,0.8-3c0.6-0.7,1.4-1,2.2-1c0.1,0,0.1,0,0.3,0
			c0.8,0,1.7,0.4,2.2,1.1c0.7,0.7,1.1,1.8,1.1,3.1C389.5,679.4,389,680.5,388.6,681.1z"/>
		<path class="st0" d="M414.7,670.9c-1.6-0.8-3.2-1.3-5.6-1.4c-0.1,0-0.3,0-0.4,0c-2,0-3.7,0.4-5.2,1.1c-1.4,0.7-2.5,1.7-3.2,3
			c-0.8,1.4-1.3,2.8-1.3,4.5c0,2.3,0.8,4.4,2.3,5.9c1.6,1.7,3.5,2.3,5.7,2.3c0.7,0,1.3,0,2-0.1c0.4-0.1,0.7-0.3,1-0.4
			c1-0.4,1.6-1,2.5-1.8c-0.3,2.5-0.6,4.2-1,5.1c-0.6,1.1-1.4,1.8-2.5,1.8l0,0c-0.7,0-1.1-0.3-1.6-0.7c-0.4-0.4-0.7-1-0.8-2l-6.9,0.8
			c0.4,1.3,1,2.3,1.8,3.2c0.7,0.8,1.7,1.5,2.8,2c1.3,0.6,2.7,0.7,4.7,0.7h0.1c3.2,0,5.7-1.1,7.6-3c1.8-2.1,2.8-5.4,2.8-9.9
			c0-3-0.4-5.4-1.3-7.2C417.3,673.1,416.1,671.8,414.7,670.9z M411.6,681.1c-0.7,0.7-1.4,1-2.3,1.1c-1,0-1.8-0.4-2.3-1.1
			c-0.7-0.8-1-1.8-1-3.2s0.3-2.3,0.8-3c0.7-0.7,1.4-1,2.3-1h0.1c0.8,0,1.7,0.4,2.3,1.1c0.4,0.7,0.8,1.8,0.8,3.1
			C412.4,679.4,412.1,680.5,411.6,681.1z"/>
		<path class="st0" d="M440.1,684.7v-15.1h-6l-3.3,3.9l-9.2,10.7v5.6h9.3h3.3v4.6h6v-4.6h3.2v-5.2L440.1,684.7L440.1,684.7z
			 M434.2,684.7h-3.3h-3.3l3.3-3.9l3.3-3.8V684.7z"/>
	</g>
	<g>
		<path class="st0" d="M341.3,267.2c0.9,0,1.3-0.1,1.8-1.2l2.8-10.2h8.9l-3.4,13.8c-0.4,2.9-2.4,4.4-5.8,4.2h-7.1v-6.6H341.3
			L341.3,267.2z M345.4,253.3c-2.5,0.3-3.9-1.4-4.5-4.8l-2.1-9.5h9.3l1.4,5.1c0.6,1.7,1.2,2.6,2.2,2.5h3.2v6.7H345.4z M345.9,236.5
			c-2.8,0.2-4.4-1.2-4.9-4.2l-1.9-11h9.6l1,5.8c0.3,1.6,1,2.2,2.1,2.1h3.2v7.2L345.9,236.5L345.9,236.5z M355.7,229.6V222h36.2v7.4
			h-2.1v38.1c0.1,4.8-1.8,7.2-5.8,7h-5.2v-7.2h1.2c1.4,0,2-0.7,1.9-2.3v-35.3L355.7,229.6L355.7,229.6z M372.7,271.9h-15.4v-39.3
			h21.2v33.3C378.7,270.2,376.8,272,372.7,271.9z M370.4,262.5v-23H365v25.1h3.7C369.8,264.7,370.4,264.1,370.4,262.5z"/>
		<path class="st0" d="M406.1,228.7V222h22.1v-2.3h8.5v2.3h21.9v6.7h-21.9v3.7h20.7v34.3c0.4,4.6-1.9,6.7-6.9,6.2h-9.4v-6.7h6.4
			c1.2,0.1,1.7-0.3,1.6-1.4v-3h-12.4v11h-8.5v-11h-12.4v11h-8.3v-40.5h20.7v-3.7h-22.1V228.7z M415.8,239.1v5.6h5.7l-2.6-4.1h9
			l2.7,4.1h3.4l2.7-3.9h9.2l-2.6,3.9h5.6v-5.6H415.8z M415.8,250.9v4.1h12.4v-4.1H415.8z M449.2,250.9h-12.4v4.1h12.4V250.9z"/>
	</g>
	<g>
		<path class="st0" d="M151.3,306.8l-35-16.6l2.2-4.6l14.4,6.8l8.7-18.2l-14.4-6.8l2.2-4.6l35,16.6l-2.2,4.6l-16.5-7.8l-8.7,18.2
			l16.5,7.8L151.3,306.8z"/>
		<path class="st0" d="M168.5,271.6l-31.6-21.4l15.5-22.9l3.7,2.5l-12.7,18.7l9.7,6.5l11.8-17.5l3.7,2.5l-11.8,17.6l10.8,7.3
			l13.2-19.4l3.7,2.5L168.5,271.6z"/>
		<path class="st0" d="M188.6,243.1l-28.7-25.7l3.5-3.9l36,5.1l-22.5-20.1l3.2-3.6l28.7,25.7l-3.5,3.9l-36-5.1l22.6,20.1
			L188.6,243.1z"/>
		<path class="st0" d="M212,216.9l-13.5-39.2l4.1-3.4l36.3,20.6l-4.4,3.5l-10.8-6.4l-12,9.9l4.3,11.7L212,216.9z M210.2,197.8
			l9.7-7.9c0,0-14.3-8.9-16.6-10.2C204.6,182.6,210.2,197.8,210.2,197.8z"/>
		<path class="st0" d="M466.2,152.1l26.9-31.5l5,1.8l0.7,41.7l-5.3-2v-12.6l-14.6-5.3l-7.9,9.6L466.2,152.1z M481.7,140.9l11.8,4.3
			c0,0,0.4-16.8,0.3-19.5C492,128.2,481.7,140.9,481.7,140.9z"/>
		<path class="st0" d="M241.8,191.7L221.5,159l4.4-2.8l33.2,15.1l-16-25.8l4.1-2.6l20.3,32.8l-4.4,2.7l-33.2-15.1l16,25.8
			L241.8,191.7z"/>
		<path class="st0" d="M503.2,165.5l17-34.1l4.6,2.3l-15.1,30l17.2,8.5l-2,4.1L503.2,165.5z"/>
		<path class="st0" d="M529.8,179.1l21-31.8l4.3,2.8l-18.5,28l16,10.5l-2.5,3.8L529.8,179.1z"/>
		<path class="st0" d="M594.8,232.9l29.4-24.2l3.3,4l-26,21.3l12.2,14.7l-3.5,2.9L594.8,232.9z"/>
		<path class="st0" d="M290,165.4l-14-36.5l24.6-9.5l1.7,4.3l-19.8,7.6l4.3,11.3l17.1-6.6l1.7,4.3l-17.1,6.6l6.3,16.5L290,165.4z"/>
		<path class="st0" d="M596.6,214.2l3.8,3.6c-3.6,2.4-8.1,4.2-11.6,4c-3.6-0.2-6.9-1.5-9.9-4.1c-3.1-2.7-5.1-5.5-6-8.4
			c-0.8-2.9-0.7-6,0.5-9.3s3-6.2,5.5-9c2.7-2.9,5.7-5,8.9-6.3s6.4-1.5,9.6-0.8c3.2,0.7,6.1,2.1,8.7,4.3c2.9,2.5,4.7,5.3,5.4,8.4
			c0.6,3.2,0.2,7.6-2,10.9l-3.9-2.8c1.2-2.7,1.5-5.8,1-7.8c-0.4-2.1-1.6-3.9-3.5-5.5c-2.2-1.9-4.6-3-7-3.2c-2.5-0.2-4.8,0.3-7,1.5
			c-2.2,1.3-4.2,2.8-6,4.7c-2.2,2.4-3.8,4.9-4.7,7.3c-0.9,2.5-1.1,4.7-0.3,6.9c0.7,2.2,2,4,3.7,5.6c2.1,1.8,4.5,2.8,7.1,2.8
			C591.2,217.1,593.8,216.2,596.6,214.2z"/>
		<path class="st0" d="M349.7,126c2.8,10.1-0.8,20.8-13.1,24.2c-11.5,3.1-20.2-3.5-23.1-14.1s1.4-20.8,13.2-24
			C337.7,109.1,346.7,115,349.7,126z M319,134.4c2.2,8,8.4,13.8,16.8,11.5c9.1-2.5,10.7-10.5,8.6-18.4c-2.2-7.9-8.1-13.6-16.6-11.2
			C318.8,118.7,316.8,126.6,319,134.4z"/>
		<path class="st0" d="M394,120.3c2.4,10.3-1.6,20.8-14.1,23.7c-11.6,2.7-20.1-4.3-22.5-15.1c-2.5-10.7,2.2-20.7,14.1-23.5
			C382.7,102.8,391.5,109.1,394,120.3z M362.9,127.5c1.9,8.1,7.9,14.2,16.3,12.2c9.2-2.1,11.2-10.1,9.3-18.1
			c-1.9-8.1-7.6-13.9-16.2-11.9C363.4,111.7,361.1,119.5,362.9,127.5z"/>
		<path class="st0" d="M414.1,109.6l-12.7-1l0.3-4.3l30.7,2.3l-0.3,4.3l-12.7-1l-2.2,33.8l-5.3-0.4L414.1,109.6z"/>
		<path class="st0" d="M441.8,108.5l15.2,2.9c8.3,1.6,11.4,6.5,10.5,11.6c-0.8,4.3-4,6.6-7.2,7c2.6,1.3,6.3,4.8,5.3,10.2
			c-1.3,7-7.7,9.8-15.2,8.4l-15.5-2.9L441.8,108.5z M453,126.6c5.7,1.1,8.4-0.6,9-4.2c0.6-3.3-1.4-6.1-6.1-7l-9.8-1.9l-2.2,11.4
			L453,126.6z M440.7,142.6l9.8,1.8c5,0.9,8.8-0.6,9.7-5.2c0.8-4-1.5-7.3-8.1-8.5l-8.8-1.7L440.7,142.6z"/>
		<path class="st0" d="M648.7,240.7l-19.6,12.5c-7.7,4.9-7.1,10.4-4.5,14.5c3.1,4.8,7.5,6.8,15,2l19.6-12.5l2.7,4.3L642.7,274
			c-10.6,6.7-17.3,2.9-21.7-4c-4.3-6.7-4.7-14.7,5.3-21l19.7-12.5L648.7,240.7z"/>
		<path class="st0" d="M667.7,274.5l6.1,14c3.3,7.7,1,13-3.8,15.1c-4.1,1.8-7.8,0.5-9.9-1.9c0.3,2.9-0.4,7.8-5.6,10.1
			c-6.6,2.8-12.5-0.8-15.5-7.7l-6.2-14.4L667.7,274.5z M658.9,293.9c2.3,5.3,5.2,6.5,8.6,5c3.1-1.3,4.3-4.6,2.4-8.9l-3.9-9.1
			l-10.7,4.6L658.9,293.9z M638.7,292.8l3.9,9c2,4.6,5.4,6.9,9.8,5c3.8-1.6,5.2-5.3,2.6-11.4l-3.5-8.1L638.7,292.8z"/>
	</g>
	<g>
		<polygon class="st0" points="477,577.3 503.5,577.3 494.7,546.1 		"/>
		<path class="st0" d="M58,499.1v144.3h668.1V499.1H58z M221.6,623.2h-24.5l6.5-41.4h-45.2l-6.7,41.4h-24.5l16.9-103.8h24.4
			l-5.9,39.1h44.8l6.5-39.1h23.9L221.6,623.2z M273.3,599.4h48.3l-3.8,23.7H268c-17.9,0-31.6-16-28.7-33.7l11.1-70h84.1l-4.3,23.7
			h-60.5l-2.3,15.9h57.4l-4.1,22.7h-57l-0.7,6.2C262.3,594,267.1,599.4,273.3,599.4z M396.7,623.2l-35.1-64.7l-9.6,64.7h-24.9
			l17.3-103.8h22.3l34.1,60.7l9.9-60.7h23.5L418,623.2H396.7z M516.4,623.2l-6.4-22.4h-46.4l-12.7,22.4h-27.7l60.6-103.8h16.8
			c7.6,0,14.2,5,16.3,12.3l26,91.5H516.4z M639.3,623.2H618l-35.1-64.7l-9.6,64.7h-24.8l17.2-103.8H588l34.1,60.7l9.9-60.7h23.5
			L639.3,623.2z"/>
	</g>
	<g>
		<path class="st0" d="M424.8,427.8l6.7,9.8c0,0,24.8-17.7,56.3-10.4l5.5-20.1c0.3,0-33.6-22.5-40.7-42.9l-14,2.2
			C438.6,366.4,448,407.1,424.8,427.8z"/>
		<path class="st0" d="M642.8,436.8c-0.2-0.1-0.4-0.2-0.6-0.2c0.3,0.1,0.5,0.2,0.8,0.3c0.1,0.1,0.3,0.1,0.4,0.2
			C643.3,437,643.1,436.9,642.8,436.8z"/>
		<path class="st0" d="M739.5,441.8c-1.1-1.1-2.6-1.4-4.2-0.8c-2.2,0.8-3.7,3.1-4,6.2c-0.8,7.3-2.1,14.4-8.3,15.3
			c-3.7,0.5-6.9-0.3-9.2-2.3c-2.6-2.3-4-5.9-4-10.8c0-3.1,0.2-6.6,0.5-10.3c0.5-8.1,1.1-17.4-0.7-24.6c-2.6-10.8-8.3-16.1-20.3-19
			c-7.4-1.8-12.6-0.6-14.4,3.3c-1.3,2.8-0.5,6.6,1.8,8.3c15.8,11.4,15.5,25.8,15.3,36.3v0.1c-0.2,8.2-4.2,12.5-7.9,13.7
			c-2.5,0.8-5.1-0.5-6-3.1c-0.2-0.6-0.4-1.1-0.6-1.6c-1.6-4.8-3.4-10.2-14.6-24c-8.1-10.1-18.2-14-23.5-12.5
			c-2.2,0.6-3.4,2.1-3.8,4.5c0,1.8,4.8,7.6,10.2,9.8c8.4,3.5,12.8,13.3,12.7,21.2c-0.1,17.6-4.1,25.6-13.2,26.6
			c-10,1.1-12.4-11.6-14.6-24c-0.3-1.6-0.6-3.2-0.9-4.7c-0.9-4.5-9.1-18.9-13.1-24.9c-9.9-14.9-17.9-25.5-38.5-37.3
			c-22.8-13.2-53.3-11.7-74.9-8.2v0.1c-15.9-43.1-57.5-73.9-106.2-73.9c-51.5,0-95,34.3-108.7,81.3c1.8,1.3,3.6,2.6,5.4,4.1
			c2.3-8.6,5.7-16.8,9.9-24.4l0.9,14l10.4-3.5c17.7-43.5,51.4-44,51.4-44l1.8-9.4l-14.5-2.6c13.3-5.9,28-9.2,43.4-9.2
			c2.8,0,5.5,0.1,8.2,0.3c-3.4,2.9-12.5,9.2-28.8,9.2l-0.6,10c0,0,33-4.5,58.6,26.6l14.9-2.8c0,0-6.5-19.2-3.9-31.8
			c32.3,16.4,55.1,48.6,58.2,86.4l-2.7-1.1l-5.5,22.2c0,0,4.4,2.8,6.5,8.7c-3.9,19.3-13,36.8-25.8,50.8h8.4h0.2h4.7h21.1
			c-6.4-3.1-13.9-5-21.1-6c1.5-2.1,3-4.2,4.2-6.4h0.9c12.4,2.2,22.1,6.4,29,12.4h31.9c-5.6-16.6-19.3-32.7-50.6-36.5l-0.4,0.7
			c0.9-2.6,1.7-5.2,2.3-7.9l0,0.4c29.4,4,48.7,18.8,56,43.3h19.6c-4-20.9-12.4-36.6-25.1-46.9c-14.2-11.6-31.9-14.9-47.3-15
			c0.1-0.7,0.1-1.4,0.1-2.1c0,0.7-0.1,1.5-0.2,2.2l-0.1,0.3c0.2-2.5,0.3-5,0.4-7.6l0.1,0.2c0,0.8,0,1.6-0.1,2.4
			c0-0.8,0.1-1.6,0.1-2.4c16.6,0.1,35.7,3.8,51.3,16.5c14.4,11.6,23.7,29.2,27.9,52.4h16.9c-5.1-34.5-16-56.1-35.3-71.9
			c-20-16.5-43.5-16.7-61.8-15c-0.3-2.3-0.7-4.7-1.2-7c0.5,2.3,0.9,4.7,1.2,7.1l0,0.2c-0.3-2.5-0.7-4.9-1.2-7.4l0.1,0.1
			c19-1.8,45.2-1.7,67.4,16.5c21.1,17.2,32.7,40.4,38,77.4h111.3c6.9-6.6,11.6-13.3,13.6-18.7C742.2,461.2,743.4,445.6,739.5,441.8z
			 M489.3,484.1l-0.4,0.3c1.6-2.2,3.1-4.4,4.5-6.7h0.2C492.3,479.8,490.8,482,489.3,484.1z"/>
		<path class="st0" d="M504.9,453.5c0.7-2.2,1.4-4.5,2-6.8C506.2,449,505.5,451.3,504.9,453.5L504.9,453.5z"/>
		<path class="st0" d="M330.4,444c1.3,4.5,2.3,9.4,3,14.5c4.7-0.2,9.8,0.4,15.4,2.3l1.6-17.3c0.1,0.2-35.9-15.6-36.3-57.2h-7.9
			c0,0-0.3,6.4-1.3,14.4c8.4,8.7,15.6,19,21,30.9C327.6,435.3,329.1,439.5,330.4,444z"/>
		<path class="st0" d="M629.5,432.1c1.9,3.4,3.8,7,5.2,10.2c0.6-3.2,1.1-6.4,1.5-9.7c-2.3-1.9-4.5-4.2-5.9-6.6
			C630,428.1,629.7,430.1,629.5,432.1z"/>
		<path class="st0" d="M394.1,82.1c175.8,0,318.3,142.3,318.3,317.9c0,1.1,0,2.2,0,3.2c1.7,2.8,2.9,6.1,3.8,9.9
			c0.9,3.7,1.3,7.7,1.4,11.8c0.6-8.2,0.9-16.5,0.9-24.9c0-178.9-145.2-323.9-324.4-323.9S69.7,221.1,69.7,400
			c0,31.2,4.4,61.4,12.7,90h6.4c-8.4-28.5-13-58.7-13-90C75.8,224.4,218.4,82.1,394.1,82.1z"/>
		<path class="st0" d="M394.1,717.9c-72.7,0-139.7-24.3-193.2-65.3h-9.8c55.6,44.6,126.2,71.3,203,71.3c76.9,0,147.5-26.7,203-71.3
			h-9.8C533.8,693.6,466.8,717.9,394.1,717.9z"/>
		<path class="st0" d="M185,475.5c-5.9-0.8-11.6-0.6-16.1-0.1c-0.8-2.3-1.5-4.5-2.2-6.8c14.6-1.7,40.2-1,55.4,21.4h24.2
			c-7.2-16.9-21.2-29.1-32.5-32.9c-17.5-5.8-36.5-1.5-49.5,3.2c-0.6-2.3-1.2-4.5-1.7-6.8c14-4.9,34.4-9.3,53.3-3
			c15,4.9,30.5,20.3,37.7,39.5H278c-4.9-39.9-31.9-53.4-48.6-58c-24.8-6.8-53.2-1.3-68.7,12c-0.5-2.6-0.9-5.2-1.3-7.8
			c17.8-12.9,46.7-18,71.9-11.1c30.7,8.4,49.8,31.6,53.7,64.8h14.5c-1.2-26.2-10.9-48-28.4-63.6c-14.7-13.2-35.1-21.7-54.3-22.9
			c-22-1.3-42.1,8.4-59.1,19.5c-0.2-2.2-0.4-4.5-0.5-6.7c0-0.4-0.1-0.8-0.1-1.1c17.2-10.7,37.8-20,60.2-18.6
			c20.8,1.3,42.7,10.5,58.6,24.7c13.5,12.1,29.1,33.5,30.6,68.8h19.7c3.1-20.7-0.3-41.2-6.8-55.6c-19.1-42.1-62.3-62.9-95.2-61.6
			c-28.6,1.1-49.4,12.7-67.6,24c1.7-129.5,107.4-234,237.5-234c131.2,0,237.5,106.2,237.5,237.2c0,4.3-0.1,8.7-0.4,13
			c1.5-1.8,3.5-3.1,6-3.8c0.3-0.1,0.6-0.1,0.9-0.2c0.1-3,0.2-6,0.2-9c0-134.7-109.3-243.9-244.2-243.9S149.9,265.3,149.9,400
			c0,31.8,6.1,62.2,17.2,90h46.2C206.4,481.9,196.9,477.1,185,475.5z"/>
		<path class="st0" d="M418.3,434.8c0,0-23.6,19.5-58.5,13.4l-1,15.5c0,0,20.5,5.4,34.2,26.3h18.1c-1.3-10.9-1.2-30,12-44
			L418.3,434.8z"/>
	</g>
</g>
</svg>
