<?xml version="1.0" encoding="UTF-8"?>
<svg id="_图层_1" data-name="图层_1" xmlns="http://www.w3.org/2000/svg" version="1.1" viewBox="0 0 800 800">
  <!-- Created by @FCLOGO 2024-12-5 GMT+8 15:27:32 . https://fclogo.top/ -->
<!-- FOR PERSONAL USE ONLY NOT FOR COMMERCIAL USE -->
  <defs>
    <style>
      .st0 {
        fill: #9fd2ff;
      }

      .st1 {
        fill: #000229;
      }

      .st2 {
        fill: #ccc;
      }

      .st3 {
        fill: #fffeff;
      }

      .st4 {
        fill: #000027;
      }

      .st5 {
        fill: #fa5d3e;
      }
    </style>
  </defs>
  <path class="st2" d="M348.22,774.3c-.79,0-1.38-.22-1.77-.65-.39-.44-.53-1.03-.41-1.79l.25-1.65c.12-.75.45-1.35.98-1.78.53-.44,1.19-.65,1.98-.65s1.33.2,1.72.6c.39.4.55.94.47,1.62h-1.24c.03-.36-.06-.64-.26-.84-.2-.2-.5-.3-.89-.3-.42,0-.76.12-1.03.35-.27.23-.43.56-.5.99l-.26,1.66c-.07.44,0,.77.19,1,.19.23.5.35.92.35.39,0,.72-.1.98-.3.26-.2.44-.48.52-.85h1.24c-.14.69-.47,1.23-.99,1.63-.52.4-1.16.6-1.92.6ZM352.8,774.19l1-6.29h1.19l-.19,1.19c.34-.87.97-1.3,1.91-1.3.67,0,1.17.21,1.49.62.32.42.43.99.31,1.71l-.07.42h-1.27l.06-.32c.07-.45.01-.8-.17-1.04-.18-.24-.48-.36-.88-.36s-.74.12-1.01.37c-.27.24-.43.59-.5,1.03l-.63,3.97h-1.24ZM361.91,774.3c-.77,0-1.35-.22-1.73-.67s-.52-1.04-.4-1.77l.25-1.65c.08-.49.26-.92.52-1.28s.6-.65,1.01-.85c.41-.2.87-.3,1.38-.3.77,0,1.35.22,1.73.67.39.45.52,1.04.39,1.77l-.17,1.12h-3.85l-.09.53c-.15.95.22,1.43,1.11,1.43.72,0,1.17-.25,1.37-.74h1.22c-.17.53-.5.96-1.01,1.28-.5.32-1.09.47-1.76.47ZM361.23,770.22l-.05.29h2.65s.05-.3.05-.3c.07-.47.01-.82-.17-1.07-.18-.25-.49-.37-.92-.37s-.8.13-1.06.38c-.26.25-.43.61-.51,1.08ZM368.33,774.3c-.63,0-1.1-.21-1.41-.64s-.4-1-.27-1.73l.27-1.77c.11-.73.39-1.31.84-1.74.44-.43.98-.64,1.61-.64.47,0,.83.12,1.09.35.26.24.39.56.38.96h.02l.17-1.2h1.24l-1,6.29h-1.22l.19-1.2h-.02c-.12.41-.35.73-.69.97s-.74.35-1.21.35ZM368.93,773.23c.39,0,.72-.12.98-.36.26-.24.43-.57.5-1.01l.25-1.65c.07-.43,0-.76-.18-1-.19-.24-.47-.36-.86-.36s-.72.12-.98.35c-.26.24-.42.57-.49,1.01l-.25,1.65c-.07.44-.01.78.17,1.01.18.23.47.35.88.35ZM376.35,774.19c-.57,0-.99-.16-1.26-.47-.27-.31-.36-.75-.27-1.32l.54-3.39h-1.74l.17-1.12h1.74l.27-1.72h1.24l-.27,1.72h2.47l-.18,1.12h-2.46l-.54,3.39c-.08.44.1.66.53.66h1.72l-.17,1.12h-1.77ZM382.5,774.3c-.77,0-1.35-.22-1.73-.67s-.52-1.04-.4-1.77l.25-1.65c.08-.49.26-.92.52-1.28s.6-.65,1.01-.85c.41-.2.87-.3,1.38-.3.77,0,1.35.22,1.73.67.39.45.52,1.04.39,1.77l-.17,1.12h-3.85l-.09.53c-.15.95.22,1.43,1.11,1.43.72,0,1.17-.25,1.37-.74h1.22c-.17.53-.5.96-1.01,1.28-.5.32-1.09.47-1.76.47ZM381.83,770.22l-.05.29h2.65s.05-.3.05-.3c.07-.47.01-.82-.17-1.07-.18-.25-.49-.37-.92-.37s-.8.13-1.06.38c-.26.25-.43.61-.51,1.08ZM388.92,774.3c-.63,0-1.1-.21-1.4-.64-.3-.42-.39-1-.28-1.73l.27-1.77c.11-.73.39-1.31.84-1.74.44-.43.98-.64,1.61-.64.47,0,.83.12,1.09.35.26.24.39.56.38.96h.02l.21-1.47.3-1.8h1.24l-1.33,8.35h-1.22l.19-1.2h-.02c-.12.41-.35.73-.69.97s-.74.35-1.21.35ZM389.53,773.23c.39,0,.72-.12.98-.36.26-.24.43-.57.5-1.01l.25-1.65c.08-.43.02-.76-.17-1-.19-.24-.48-.36-.87-.36s-.72.12-.98.35c-.26.24-.42.57-.49,1.01l-.25,1.65c-.08.44-.02.78.16,1.01s.48.35.88.35ZM401.02,774.3c-.47,0-.84-.12-1.1-.35-.26-.23-.39-.56-.38-.97h-.01l-.19,1.2h-1.22l1.33-8.35h1.24l-.29,1.8-.27,1.47h.05c.12-.41.35-.73.69-.97.34-.23.74-.35,1.21-.35.63,0,1.1.21,1.4.64.3.43.39,1.01.28,1.74l-.27,1.77c-.11.73-.39,1.31-.84,1.73-.45.42-.98.64-1.61.64ZM400.77,773.23c.4,0,.72-.12.98-.35.26-.23.42-.57.5-1.01l.25-1.65c.07-.43.01-.77-.17-1.01-.18-.24-.47-.35-.87-.35s-.72.12-.98.36-.43.57-.5,1l-.25,1.65c-.07.44-.01.77.17,1.01.18.24.47.36.87.36ZM405.47,776.25l.17-1.06h1.93c.64,0,1.01-.3,1.1-.9l.1-.67.21-1.19h-.03c-.12.42-.35.74-.68.97-.33.23-.73.34-1.2.34-.63,0-1.09-.2-1.4-.6s-.41-.94-.3-1.63l.58-3.6h1.24l-.56,3.48c-.06.41,0,.73.18.96s.47.34.85.34.72-.12.98-.37c.27-.24.43-.58.49-1.02l.54-3.4h1.24l-1.01,6.41c-.1.6-.37,1.08-.81,1.42-.44.35-1,.52-1.67.52h-1.95ZM417.79,770.09h3.22l.54-1.85h-5.47l-1.71,6.44h2.15l.59-2.1h3.03l.44-1.71h-3.03l.24-.78ZM424.23,772.92c-.59,0-1.02-.39-1.02-1.12,0-.88.63-1.76,1.61-1.76.49,0,.88.24,1.02.78l1.95-.83c-.29-1.17-1.27-1.9-2.64-1.9-2.78,0-4.15,2.15-4.15,3.9s1.27,2.83,3.07,2.83c1.37,0,2.34-.59,2.98-1.42l-1.51-1.17c-.39.44-.83.68-1.32.68ZM430.91,768.23h-2.15l-1.76,6.44h5.12l.49-1.85h-2.93l1.22-4.59ZM439.75,771.01c0-1.66-1.32-2.93-3.22-2.93-2.2,0-3.81,1.81-3.81,3.81,0,1.66,1.32,2.93,3.22,2.93,2.2,0,3.81-1.81,3.81-3.81ZM434.92,771.7c0-.83.59-1.71,1.51-1.71.78,0,1.17.54,1.17,1.22,0,.83-.59,1.71-1.51,1.71-.78,0-1.17-.54-1.17-1.22ZM443.21,772.23h1.07l-.2.68c-.15.05-.34.1-.59.1-.68,0-1.27-.39-1.27-1.22,0-1.02.73-1.9,1.95-1.9.59,0,1.12.24,1.51.59l1.37-1.37c-.44-.54-1.51-1.07-2.73-1.07-2.59,0-4.29,1.76-4.29,3.86s1.61,2.88,3.22,2.88c.93,0,1.85-.29,2.49-.68l.93-3.32h-3.12l-.34,1.46ZM450.78,768.08c-2.2,0-3.81,1.81-3.81,3.81,0,1.66,1.32,2.93,3.22,2.93,2.2,0,3.81-1.81,3.81-3.81,0-1.66-1.32-2.93-3.22-2.93ZM450.34,772.92c-.78,0-1.17-.54-1.17-1.22,0-.83.59-1.71,1.51-1.71.78,0,1.17.54,1.17,1.22,0,.83-.59,1.71-1.51,1.71ZM437.94,767.5c-.05.29.1.49.44.49s.54-.2.63-.49c.05-.24-.1-.49-.44-.49s-.59.24-.63.49ZM432.13,765.5c-.44,0-.73.24-.78.59s.1.59.54.59.73-.24.78-.59c.1-.34-.1-.59-.54-.59ZM433.01,767.3c-.1.54.15.88.83.88.63,0,1.07-.39,1.17-.88s-.15-.88-.83-.88c-.68,0-1.07.39-1.17.88ZM439.6,777.55l-2.44-1.81h-1.51l4.25,3.17,1.61-3.17h-.98l-.93,1.81ZM425.84,767.16l-2-1.46,23.13-2.78-2.15,4.25h1.02l2.68-5.32-26.99,3.22,2.78,2.1h1.51ZM338.72,785.79l.61-3.83h2.32l-.08.52h-1.76l-.18,1.14h1.63l-.08.52h-1.62l-.26,1.64h-.57ZM342.97,785.84c-.36,0-.62-.1-.8-.3-.17-.2-.23-.47-.18-.82l.27-1.7c.06-.34.2-.61.44-.82.24-.2.54-.3.89-.3s.62.1.8.3c.17.2.24.47.18.81l-.27,1.71c-.06.34-.2.62-.44.82-.24.2-.54.3-.9.3ZM343.05,785.33c.19,0,.35-.05.47-.16.12-.11.19-.26.23-.46l.27-1.7c.03-.2,0-.35-.08-.46-.08-.11-.22-.16-.41-.16s-.35.05-.46.16c-.12.1-.19.26-.22.46l-.27,1.7c-.03.2,0,.35.08.46s.22.16.41.16ZM345,785.79l.61-3.83h1.2c.24,0,.44.05.6.14.16.09.28.22.36.39s.09.37.05.59c-.04.26-.14.48-.3.67-.16.19-.37.32-.6.39l.54,1.64h-.62l-.48-1.57h-.54l-.25,1.57h-.57ZM345.89,783.71h.64c.19,0,.35-.06.48-.17.13-.11.21-.26.24-.45.03-.19,0-.35-.09-.46-.09-.11-.24-.17-.43-.17h-.64l-.2,1.25ZM349.54,785.79l.61-3.83h1.25c.37,0,.65.1.84.31.19.21.26.49.2.84-.04.23-.12.44-.25.61s-.29.31-.49.4c-.2.09-.42.14-.66.14h-.69l-.24,1.52h-.57ZM350.43,783.75h.69c.19,0,.36-.06.49-.18.14-.12.22-.27.25-.47s0-.35-.1-.47-.25-.18-.44-.18h-.69l-.21,1.29ZM352.75,785.79l.61-3.83h2.25l-.08.5h-1.7l-.17,1.09h1.51l-.08.5h-1.51l-.19,1.24h1.69l-.08.5h-2.25ZM355.84,785.79l.61-3.83h1.2c.24,0,.44.05.6.14.16.09.28.22.36.39s.09.37.05.59c-.04.26-.14.48-.3.67-.16.19-.37.32-.6.39l.54,1.64h-.62l-.48-1.57h-.54l-.25,1.57h-.57ZM356.74,783.71h.64c.19,0,.35-.06.48-.17.13-.11.21-.26.24-.45.03-.19,0-.35-.09-.46-.09-.11-.24-.17-.43-.17h-.64l-.2,1.25ZM360.13,785.84c-.39,0-.67-.1-.87-.29-.19-.19-.26-.45-.22-.78h.57c-.03.17.01.31.12.41.11.1.27.15.48.15.2,0,.37-.05.5-.15.13-.1.21-.23.24-.4.02-.15,0-.28-.06-.39-.06-.11-.16-.18-.29-.22l-.46-.14c-.27-.08-.46-.22-.59-.41-.13-.19-.17-.42-.13-.68.04-.21.11-.39.23-.55s.27-.28.46-.37.4-.13.64-.13c.35,0,.62.1.8.29.18.19.25.44.2.76h-.57c.03-.17,0-.3-.09-.4-.09-.1-.23-.14-.42-.14s-.34.04-.46.13c-.12.09-.19.21-.21.38-.02.15,0,.28.05.39s.16.18.29.22l.47.15c.26.08.46.22.58.41.12.19.17.42.12.69-.04.22-.12.41-.24.57-.13.16-.29.29-.49.38-.2.09-.42.13-.66.13ZM363.27,785.84c-.36,0-.62-.1-.8-.3-.17-.2-.23-.47-.18-.82l.27-1.7c.06-.34.2-.61.44-.82.24-.2.54-.3.89-.3s.62.1.8.3c.17.2.24.47.18.81l-.27,1.71c-.06.34-.2.62-.44.82-.24.2-.54.3-.9.3ZM363.34,785.33c.19,0,.35-.05.47-.16.12-.11.19-.26.23-.46l.27-1.7c.03-.2,0-.35-.08-.46-.08-.11-.22-.16-.41-.16s-.35.05-.46.16c-.12.1-.19.26-.22.46l-.27,1.7c-.03.2,0,.35.08.46s.22.16.41.16ZM365.28,785.79l.61-3.83h.71l.62,3.19c0-.1.02-.22.03-.36.01-.14.03-.29.04-.44.02-.15.04-.29.06-.41l.31-1.98h.52l-.61,3.83h-.71l-.61-3.19c0,.09-.02.21-.03.34s-.03.28-.04.42c-.02.15-.04.28-.06.41l-.31,2.01h-.53ZM368.23,785.79l1.59-3.83h.75l.37,3.83h-.56l-.07-.97h-1.09l-.39.97h-.59ZM369.39,784.34h.87l-.09-1.1c-.02-.2-.03-.37-.04-.51,0-.14-.01-.24-.01-.3-.02.06-.05.16-.1.3s-.11.31-.19.5l-.44,1.11ZM371.72,785.79l.61-3.83h.57l-.52,3.31h1.67l-.08.52h-2.25ZM376.68,785.84c-.37,0-.63-.1-.8-.3-.17-.2-.22-.47-.17-.82l.44-2.76h.57l-.44,2.76c-.03.2,0,.35.07.46.08.11.21.17.41.17s.35-.06.46-.17c.12-.11.19-.27.22-.46l.44-2.76h.57l-.44,2.76c-.06.35-.2.62-.43.82-.23.2-.53.3-.9.3ZM379.84,785.84c-.39,0-.67-.1-.87-.29-.19-.19-.26-.45-.22-.78h.57c-.03.17.01.31.12.41.11.1.27.15.48.15.2,0,.37-.05.5-.15.13-.1.21-.23.24-.4.02-.15,0-.28-.06-.39-.06-.11-.16-.18-.29-.22l-.46-.14c-.27-.08-.46-.22-.59-.41-.13-.19-.17-.42-.13-.68.04-.21.11-.39.23-.55s.27-.28.46-.37.4-.13.64-.13c.35,0,.62.1.8.29.18.19.25.44.2.76h-.57c.03-.17,0-.3-.09-.4-.09-.1-.23-.14-.42-.14s-.34.04-.46.13c-.12.09-.19.21-.21.38-.02.15,0,.28.05.39s.16.18.29.22l.47.15c.26.08.46.22.58.41.12.19.17.42.12.69-.04.22-.12.41-.24.57-.13.16-.29.29-.49.38-.2.09-.42.13-.66.13ZM381.91,785.79l.61-3.83h2.25l-.08.5h-1.7l-.17,1.09h1.51l-.08.5h-1.51l-.19,1.24h1.69l-.08.5h-2.25ZM386.94,785.84c-.36,0-.62-.1-.8-.3-.17-.2-.23-.47-.18-.82l.27-1.7c.06-.34.2-.61.44-.82.24-.2.54-.3.89-.3s.62.1.8.3c.17.2.24.47.18.81l-.27,1.71c-.06.34-.2.62-.44.82-.24.2-.54.3-.9.3ZM387.02,785.33c.19,0,.35-.05.47-.16.12-.11.19-.26.23-.46l.27-1.7c.03-.2,0-.35-.08-.46-.08-.11-.22-.16-.41-.16s-.35.05-.46.16c-.12.1-.19.26-.22.46l-.27,1.7c-.03.2,0,.35.08.46s.22.16.41.16ZM388.95,785.79l.61-3.83h.71l.62,3.19c0-.1.02-.22.03-.36.01-.14.03-.29.04-.44.02-.15.04-.29.06-.41l.31-1.98h.52l-.61,3.83h-.71l-.61-3.19c0,.09-.02.21-.03.34s-.03.28-.04.42c-.02.15-.04.28-.06.41l-.31,2.01h-.53ZM392.25,785.79l.61-3.83h.57l-.52,3.31h1.67l-.08.52h-2.25ZM396.12,785.79l.22-1.41-.75-2.42h.58l.45,1.45c.03.09.05.18.07.27.02.08.03.15.03.19.02-.04.05-.1.09-.19.04-.08.09-.17.14-.27l.9-1.45h.6l-1.53,2.42-.22,1.41h-.57ZM399.22,785.79l.61-3.83h.71l.62,3.19c0-.1.02-.22.03-.36.01-.14.03-.29.04-.44.02-.15.04-.29.06-.41l.31-1.98h.52l-.61,3.83h-.71l-.61-3.19c0,.09-.02.21-.03.34s-.03.28-.04.42c-.02.15-.04.28-.06.41l-.31,2.01h-.53ZM403.51,785.84c-.36,0-.62-.1-.8-.3-.18-.2-.23-.47-.18-.82l.27-1.7c.06-.34.2-.61.44-.82.24-.2.54-.3.89-.3s.62.1.8.3c.17.2.24.47.18.81l-.27,1.71c-.06.34-.2.62-.44.82-.24.2-.54.3-.89.3ZM403.58,785.33c.19,0,.35-.05.47-.16.12-.11.19-.26.23-.46l.27-1.7c.03-.2,0-.35-.08-.46-.08-.11-.22-.16-.41-.16s-.35.05-.46.16c-.12.1-.19.26-.22.46l-.27,1.7c-.03.2,0,.35.08.46.08.11.22.16.41.16ZM406.38,785.79l.52-3.31h-1.02l.08-.52h2.62l-.08.52h-1.03l-.52,3.31h-.57ZM409.52,785.79l.61-3.83h2.32l-.08.52h-1.76l-.18,1.14h1.63l-.08.52h-1.62l-.26,1.64h-.57ZM413.77,785.84c-.36,0-.62-.1-.8-.3-.18-.2-.23-.47-.18-.82l.27-1.7c.06-.34.2-.61.44-.82.24-.2.54-.3.89-.3s.62.1.8.3c.17.2.24.47.18.81l-.27,1.71c-.06.34-.2.62-.44.82-.24.2-.54.3-.89.3ZM413.85,785.33c.19,0,.35-.05.47-.16.12-.11.19-.26.23-.46l.27-1.7c.03-.2,0-.35-.08-.46-.08-.11-.22-.16-.41-.16s-.35.05-.46.16c-.12.1-.19.26-.22.46l-.27,1.7c-.03.2,0,.35.08.46.08.11.22.16.41.16ZM415.8,785.79l.61-3.83h1.2c.24,0,.44.05.6.14.16.09.28.22.36.39s.09.37.05.59c-.04.26-.14.48-.3.67-.16.19-.37.32-.6.39l.54,1.64h-.62l-.48-1.57h-.54l-.25,1.57h-.57ZM416.69,783.71h.64c.19,0,.35-.06.48-.17.13-.11.21-.26.24-.45.03-.19,0-.35-.09-.46-.09-.11-.24-.17-.43-.17h-.64l-.2,1.25ZM420.91,785.84c-.36,0-.63-.1-.81-.3-.18-.2-.24-.47-.19-.82l.27-1.7c.06-.35.21-.62.45-.82s.55-.3.91-.3.63.1.81.3c.18.2.24.47.19.82h-.57c.03-.2,0-.35-.09-.46-.09-.11-.23-.16-.42-.16s-.35.05-.47.16c-.12.1-.2.26-.23.45l-.27,1.71c-.03.2,0,.35.09.46.09.11.23.16.42.16s.35-.05.47-.16.2-.26.23-.46h.57c-.03.23-.11.43-.24.59s-.28.3-.47.39c-.19.09-.4.14-.64.14ZM424.03,785.84c-.36,0-.62-.1-.8-.3-.18-.2-.23-.47-.18-.82l.27-1.7c.06-.34.2-.61.44-.82.24-.2.54-.3.89-.3s.62.1.8.3c.17.2.24.47.18.81l-.27,1.71c-.06.34-.2.62-.44.82-.24.2-.54.3-.89.3ZM424.11,785.33c.19,0,.35-.05.47-.16.12-.11.19-.26.23-.46l.27-1.7c.03-.2,0-.35-.08-.46-.08-.11-.22-.16-.41-.16s-.35.05-.46.16c-.12.1-.19.26-.22.46l-.27,1.7c-.03.2,0,.35.08.46.08.11.22.16.41.16ZM425.97,785.79l.61-3.83h.69l.18,1.23c.02.12.04.23.05.33.01.1.02.18.03.24.02-.06.05-.14.09-.24.04-.11.09-.22.15-.34l.57-1.22h.71l-.61,3.83h-.54l.2-1.29c.02-.17.06-.35.1-.55.04-.2.09-.4.14-.61s.1-.4.14-.59c.05-.19.09-.35.13-.49l-.86,1.86h-.55l-.28-1.86c0,.14-.01.29-.02.47s-.02.37-.04.57c-.02.2-.04.41-.06.61-.02.2-.05.4-.08.57l-.2,1.29h-.54ZM429.11,785.79l.61-3.83h.69l.18,1.23c.02.12.04.23.05.33.01.1.02.18.03.24.02-.06.05-.14.09-.24.04-.11.09-.22.15-.34l.57-1.22h.71l-.61,3.83h-.54l.2-1.29c.02-.17.06-.35.1-.55.04-.2.09-.4.14-.61s.1-.4.14-.59c.05-.19.09-.35.13-.49l-.86,1.86h-.55l-.28-1.86c0,.14-.01.29-.02.47s-.02.37-.04.57c-.02.2-.04.41-.06.61-.02.2-.05.4-.08.57l-.2,1.29h-.54ZM432.41,785.79l.61-3.83h2.25l-.08.5h-1.7l-.17,1.09h1.51l-.08.5h-1.51l-.19,1.24h1.69l-.08.5h-2.25ZM435.51,785.79l.61-3.83h1.2c.24,0,.44.05.6.14.16.09.28.22.36.39s.09.37.05.59c-.04.26-.14.48-.3.67-.16.19-.37.32-.6.39l.54,1.64h-.62l-.48-1.57h-.54l-.25,1.57h-.57ZM436.4,783.71h.64c.19,0,.35-.06.48-.17.13-.11.21-.26.24-.45.03-.19,0-.35-.09-.46-.09-.11-.24-.17-.43-.17h-.64l-.2,1.25ZM439.8,785.84c-.36,0-.63-.1-.81-.3-.18-.2-.24-.47-.19-.82l.27-1.7c.06-.35.21-.62.45-.82s.55-.3.91-.3.63.1.81.3c.18.2.24.47.19.82h-.57c.03-.2,0-.35-.09-.46-.09-.11-.23-.16-.42-.16s-.35.05-.47.16c-.12.1-.2.26-.23.45l-.27,1.71c-.03.2,0,.35.09.46.09.11.23.16.42.16s.35-.05.47-.16.2-.26.23-.46h.57c-.03.23-.11.43-.24.59s-.28.3-.47.39c-.19.09-.4.14-.64.14ZM441.88,785.79l.08-.5h.78l.45-2.82h-.78l.08-.5h2.13l-.08.5h-.78l-.45,2.82h.78l-.08.5h-2.13ZM444.74,785.79l1.59-3.83h.75l.37,3.83h-.56l-.07-.97h-1.09l-.39.97h-.59ZM445.9,784.34h.87l-.09-1.1c-.02-.2-.03-.37-.04-.51,0-.14-.01-.24-.01-.3-.02.06-.05.16-.1.3s-.11.31-.19.5l-.44,1.11ZM448.24,785.79l.61-3.83h.57l-.52,3.31h1.67l-.08.52h-2.25ZM453.19,785.84c-.37,0-.63-.1-.8-.3-.17-.2-.22-.47-.17-.82l.44-2.76h.57l-.44,2.76c-.03.2,0,.35.07.46.08.11.21.17.41.17s.35-.06.46-.17c.12-.11.19-.27.22-.46l.44-2.76h.57l-.44,2.76c-.06.35-.2.62-.43.82-.23.2-.53.3-.9.3ZM456.36,785.84c-.39,0-.67-.1-.87-.29-.19-.19-.26-.45-.22-.78h.57c-.03.17.01.31.12.41.11.1.27.15.48.15.2,0,.37-.05.5-.15s.21-.23.24-.4c.02-.15,0-.28-.06-.39s-.16-.18-.29-.22l-.46-.14c-.27-.08-.46-.22-.59-.41-.13-.19-.17-.42-.13-.68.04-.21.11-.39.23-.55s.27-.28.46-.37c.19-.09.4-.13.64-.13.35,0,.62.1.8.29.18.19.25.44.2.76h-.57c.03-.17,0-.3-.09-.4-.09-.1-.23-.14-.42-.14s-.34.04-.46.13c-.12.09-.19.21-.21.38-.02.15,0,.28.05.39s.16.18.29.22l.47.15c.26.08.46.22.58.41.12.19.17.42.12.69-.04.22-.12.41-.24.57-.13.16-.29.29-.49.38-.2.09-.42.13-.66.13ZM458.42,785.79l.61-3.83h2.25l-.08.5h-1.7l-.17,1.09h1.51l-.08.5h-1.51l-.19,1.24h1.69l-.08.5h-2.25Z"/>
  <g>
    <g>
      <circle class="st4" cx="400" cy="400" r="350"/>
      <path class="st5" d="M400,64.04c-185.55,0-335.97,150.41-335.97,335.96s150.42,335.97,335.97,335.97,335.97-150.42,335.97-335.97S585.55,64.04,400,64.04ZM400,726.92c-180.55,0-326.92-146.37-326.92-326.92S219.45,73.08,400,73.08s326.92,146.37,326.92,326.92-146.37,326.92-326.92,326.92Z"/>
      <path class="st0" d="M400,89.38c-171.55,0-310.62,139.07-310.62,310.62s139.07,310.63,310.62,310.63,310.62-139.08,310.62-310.63S571.55,89.38,400,89.38Z"/>
      <path class="st1" d="M400,182.63c-120.05,0-217.38,97.32-217.38,217.37s97.33,217.38,217.38,217.38,217.37-97.33,217.37-217.38-97.32-217.37-217.37-217.37Z"/>
    </g>
    <g>
      <path class="st3" d="M554.46,435.33s-4.99,8.83-10.08,25.24c0,0-23.43,80.11-118.26,93.46,0,0-2.31-8.71-2.31-25,0,0,99.75-16.98,90.36-93.7h40.29Z"/>
      <path class="st3" d="M375.1,555.39c-95.61-14.49-121.65-99.59-121.65-99.59-36.21-107.73,41.54-165.78,41.54-165.78l19.57,19.57c-48.66,40.97-39.94,104.34-39.94,104.34,9.84,105.24,103.19,114.87,103.19,114.87.45,16.06-2.71,26.59-2.71,26.59Z"/>
      <path class="st3" d="M512.82,364.83c5.6-26.05-18.36-52.1-34.84-66.48-9.83-8.59-20.99-15.58-33.11-20.45-55.79-22.48-92.91,4.49-92.91,4.49l-19.13-20.2c46.35-30.67,113.9-11.43,113.9-11.43,67.23,20.6,91.44,80.58,91.44,80.58l14.25,33.49h-39.6Z"/>
      <path class="st3" d="M536.69,251.84l-27.32,24.11s-17.14-13.07-24.11-16.13c0,0,1.45-1.45,1.36-7.98h50.07Z"/>
      <path class="st3" d="M475.14,306.89l-61,57.04v29.31s-105.47-103.99-147.1-140.44h53.64s-.72,6.06,2.99,12.9c1.12,2.03,2.55,3.86,4.2,5.49l74.22,73.83,51.78-53.19,21.27,15.05Z"/>
      <path class="st3" d="M419.07,565.35h-37.43s5.25-9.08,5.68-21.65v-112.62l27.34,25.62v89.86c0,3.1.32,6.2,1.04,9.21.66,2.82,1.73,6.28,3.38,9.57Z"/>
      <path class="st3" d="M484.26,468.29c1.18,7.98,3.03,13.03,3.03,13.03h-33.6l-109.31-102.69v79.43c.08,15.54,5.68,23.26,5.68,23.26h-36.07c1.16-1.76,2.05-4.43,2.69-6.98.96-3.82,1.4-7.75,1.4-11.69v-94.48c0-2.99-.16-6-.53-8.96-1.36-10.61-4.23-17.33-4.23-17.33h32.08l111.09,104.14v-83.28c0-4.45-.6-8.9-1.89-13.15-1.37-4.53-2.94-7.71-2.94-7.71h36.33c-1.37,2.5-2.34,4.97-3.03,7.15-1.06,3.39-1.56,6.93-1.56,10.48v96.61c0,4.07.27,8.14.86,12.17Z"/>
    </g>
    <g>
      <polygon class="st1" points="152.4 388.11 145.92 408.07 124.94 408.07 118.45 388.11 135.43 375.79 152.4 388.11"/>
      <polygon class="st1" points="680.73 388.11 674.24 408.07 653.26 408.07 646.78 388.11 663.75 375.79 680.73 388.11"/>
    </g>
    <g>
      <g>
        <path class="st1" d="M217.19,248.06l-27.16,39.93-.35-.76c-.16-.33-.35-.65-.57-.94-.92-1.22-2.05-2.26-3.35-3.08l-36.56-23.18c-1.62-1.04-3.48-1.62-5.4-1.7l-1.06-.04,26.14-40.23,12.13,7.98-1.26.7c-1.4.77-2.59,1.86-3.47,3.18l-13.93,20.82,7.55,5.68,12.58-17.98c.82-1.17,1.26-2.55,1.26-3.98v-1.29l12.72,9.08c-1.94.27-3.68,1.34-4.79,2.97l-11.85,17.48,8.31,5.85,16.25-23.92c.97-1.45,1.5-3.15,1.5-4.89v-.12l11.32,8.44Z"/>
        <path class="st1" d="M253.12,213.81l-29.48-16.46,13,29.93-7.8,7.47-44.78-25.22c-1.29-.72-2.69-1.26-4.12-1.6l-2.02-.45,12.17-13.47.4,1.16c.51,1.52,1.56,2.79,2.94,3.59l24.16,13.97-13.68-31.69,5.65-5.32,31.46,17.03-11.95-25.64c-.68-1.45-1.9-2.57-3.39-3.14l-.66-.25,14.31-10.34.16,2.17c.12,1.82.56,3.6,1.29,5.28l20.22,46.19-7.86,6.78Z"/>
        <path class="st1" d="M181.17,307.26l-40.49,14.6,26.77,7.92c1.6.48,3.28.52,4.91.12l1.01-.24-5.19,17.66-.73-1.08c-1.34-1.94-3.28-3.39-5.54-4.1l-39.96-12.59c-1.91-.6-3.94-.78-5.93-.55l-1.21.15,4.49-14.27,39.12-13.32-23.23-10.2c-2.11-.93-4.45-1.25-6.75-.9l-1.08.16,7.05-16.81.45.72c1.14,1.79,2.82,3.19,4.77,4l39.45,16.15c2.02.84,4.25,1.04,6.4.57l.7-.15-5.01,12.14Z"/>
      </g>
      <g>
        <path class="st1" d="M325.87,172.92l1.02.66-17.38,7.86.37-2.35c.17-1.01.08-2.06-.27-3.03l-6.28-17.7-27.47-17.68c-1.25-.81-2.59-1.49-3.99-2.03l-1.81-.7,18-8.83.07.64c.17,1.5.97,2.86,2.19,3.75l14.88,10.72,4.06-18.85c.33-1.5-.15-3.07-1.25-4.15l-.15-.13,19.01-5.94-1.26,3.24c-.25.66-.47,1.34-.65,2.03l-8.44,33.31,7.01,16.42c.48,1.13,1.29,2.1,2.33,2.78Z"/>
        <path class="st1" d="M365.07,108.24c-16.18,0-29.29,13.12-29.29,29.32s13.11,29.32,29.29,29.32,29.29-13.12,29.29-29.32-13.11-29.32-29.29-29.32ZM365.07,154.24c-9.01,0-16.31-7.47-16.31-16.69s7.3-16.69,16.31-16.69,16.31,7.47,16.31,16.69-7.31,16.69-16.31,16.69Z"/>
        <path class="st1" d="M460.9,129.03s2.09-11.21-9.97-17.09c-2.55-1.25-5.35-1.94-8.18-2.25l-34.29-3.67.35.65c.98,1.9,1.42,4.04,1.26,6.18l-3.43,43.63c-.15,1.85-.84,3.6-1.99,5.05l-1.02,1.26,17.66,1.02-1.1-2.73,1.1-16.89,6.53.43,8.42,15.4c.94,1.72.9,3.8-.09,5.48l22.23,3.23-2.34-2.73c-.81-.96-1.56-1.98-2.19-3.04l-9.99-16.55s14.69,1.53,17.06-17.39ZM439.21,135.02l-17.01-1.24.93-13.75,17.37,1.89c1.7.19,3.3,1,4.4,2.31,2.87,3.42,1.57,6.48-.11,8.5-1.36,1.64-3.46,2.45-5.58,2.29Z"/>
        <path class="st1" d="M531.04,142.81l-23.45,8.76,6.53,35.58c.19,1.06.48,2.11.84,3.12l1.14,3.23-20.2-10.88.19-.12c1.24-.82,1.87-2.29,1.64-3.75l-3.56-22.18-9.75,3.64-3.86,10.84c-.51,1.42-.61,2.97-.29,4.45l.31,1.46-16.86-5.89,1.01-.69c1.56-1.08,2.74-2.61,3.38-4.37l15.44-41.96c.57-1.57.65-3.28.2-4.91l-.33-1.25,18.34,7.59-.69.32c-1.74.81-3.11,2.25-3.86,4.02l-6.32,15.24,25.22-10.86.69-2.71,21.03,9.61-6.78,1.7Z"/>
      </g>
      <g>
        <path class="st1" d="M687.2,342.53l-3.15-1.49c-.64-.31-1.3-.57-1.98-.8l-32.62-10.8-16.87,5.81c-1.17.4-2.19,1.13-2.94,2.13l-.74.97-6.59-17.9,2.33.55c1,.24,2.05.23,3.03-.05l18.11-5,19.6-26.14c.89-1.18,1.68-2.47,2.31-3.83l.82-1.76,7.53,18.59-.64.03c-1.52.07-2.93.76-3.9,1.91l-11.75,14.08,18.52,5.38c1.48.44,3.07.08,4.23-.94l.13-.15,4.57,19.4Z"/>
        <path class="st1" d="M609.23,192.14s-.96,1.04-2.58,2.79c-2.62,2.79-6.91,7.43-11.74,12.63,1.58-6.78-1.24-14.44-7.69-19.09-8.34-6.02-19.59-4.69-25.12,2.97-5.53,7.66-3.26,18.76,5.08,24.78,5.25,3.79,11.63,4.67,17.03,2.89-4.4,4.77-8.54,9.27-11.55,12.55-4.31-1.05-8.55-2.97-12.45-5.78-14.6-10.53-18.81-29.61-9.43-42.61,9.37-12.99,28.81-14.99,43.41-4.45,4.15,2.99,7.46,6.69,9.85,10.73.03.04.04.08.07.11.92,1.53,2.53,2.5,4.31,2.5h.8Z"/>
        <path class="st1" d="M632.77,222.36h-.8c-1.9,0-3.74.65-5.21,1.86l-33.85,27.66c-1.45,1.18-2.45,2.82-2.85,4.64l-.29,1.37-12.26-14.37,2.41-.41c1.41-.25,2.74-.86,3.84-1.78l33.68-27.94c1.57-1.29,2.59-3.11,2.9-5.12l.21-1.41,12.22,15.5Z"/>
        <path class="st1" d="M654.33,282.79c.25-1.91-.12-3.87-1.05-5.56l-6.04-10.97-32.87,19.68c-1.37.82-2.49,1.99-3.23,3.42l-.9,1.69-9.28-16.75,1.38.15c1.82.2,3.66-.17,5.24-1.08l33.21-18.76-7.06-11c-1.06-1.68-2.66-2.95-4.52-3.63l-.52-.2,12.67-6.9s19.69,32.26,25.34,44.48l-12.67,7.7.29-2.26Z"/>
      </g>
    </g>
    <g>
      <g>
        <path class="st1" d="M169.35,500.81c-16.18,0-29.29,13.12-29.29,29.32s13.11,29.32,29.29,29.32,29.29-13.12,29.29-29.32-13.11-29.32-29.29-29.32ZM169.35,546.82c-9,0-16.3-7.47-16.3-16.69s7.3-16.69,16.3-16.69,16.31,7.47,16.31,16.69-7.3,16.69-16.31,16.69Z"/>
        <path class="st1" d="M208.86,553.99c-16.18,0-29.29,13.12-29.29,29.32s13.11,29.32,29.29,29.32,29.29-13.12,29.29-29.32-13.11-29.32-29.29-29.32ZM208.86,599.99c-9,0-16.31-7.47-16.31-16.69s7.31-16.69,16.31-16.69,16.31,7.47,16.31,16.69-7.3,16.69-16.31,16.69Z"/>
        <path class="st1" d="M294.93,614.78l-7.67,12.68-.78-2.14c-.66-1.81-1.89-3.38-3.51-4.44l-10.41-6.94-20.05,32.66c-.84,1.36-1.28,2.93-1.29,4.52v1.91s-15.98-10.56-15.98-10.56l1.29-.51c1.7-.66,3.15-1.85,4.15-3.39l20.77-31.99-11.34-6.49c-1.73-.98-3.72-1.38-5.7-1.12l-.55.07,8.04-11.98s32.38,19.48,43.04,27.71Z"/>
        <path class="st1" d="M164.68,491.37c.56-1.65.6-3.42.15-5.08l-7.34-26.86-10.41,2.71,5.12,18.75c.56,2.03,1.57,3.92,2.95,5.5l.65.76-14.83,3.96v-1.7c0-1.13-.13-2.25-.41-3.35l-5.03-20.53-14.63,3.94c-1.46.39-2.77,1.2-3.75,2.33l-1.77,1.99-4.19-19.23.55.35c1.53,1.01,3.4,1.32,5.17.86l42.92-11.04c1.48-.39,2.78-1.28,3.67-2.51l1.45-2.03,13.7,48.09-14.37,4.29.4-1.21Z"/>
        <path class="st1" d="M343.09,636.36c-2.1-3.52-5.45-6.13-9.28-7.62l-30.57-11.9.17,1.56c.25,2.31-.08,4.67-.98,6.81l-15.53,36.91c-.93,2.22-2.43,4.15-4.35,5.6l-1.26.96,32.7,11.97c2.17.8,4.47,1.21,6.78,1.18,26.03-.2,15.41-25.37,15.41-25.37,11.05-7.57,9.92-15.06,6.91-20.09ZM322.71,668.61c-1.56,1.05-3.62,1.14-5.37.44l-15.02-6.06,3.8-9.96,15.45,6.33c2.01.82,3.43,2.65,3.51,4.72.09,2.26-1.08,3.67-2.37,4.53ZM329.12,648.04c-1.5,1.05-3.47,1.14-5.15.44l-14.39-6.08,3.63-9.96,14.8,6.34c1.91.81,3.28,2.63,3.36,4.72.08,2.26-1.04,3.67-2.26,4.53Z"/>
        <path class="st1" d="M386.53,693.78h19.8l-1.62-1.83c-1.32-1.48-2.33-3.2-2.95-5.08l-17.03-50.57-12.68-.35-26.65,47.49c-.56,1-1.24,1.93-2.01,2.78l-1.44,1.56,16.86,3.39-.28-1.04c-.41-1.52-.21-3.12.53-4.49l2.67-4.96,23.93,1.52,1.86,5.7c.52,1.58.36,3.31-.43,4.79l-.57,1.09ZM367.66,669.7l8.68-16.09,5.52,16.94-14.2-.85Z"/>
        <path class="st1" d="M417.79,692.12c.43-1.44.56-2.95.39-4.44l-5.23-44.78c-.19-1.57-.81-3.07-1.81-4.31l-1.3-1.61,18.79-1.81-.39.78c-.64,1.33-.89,2.82-.73,4.29l4.18,38.6,22.7-3.75c1.73-.29,3.35-1.04,4.69-2.17l.89-.76,2.15,14.25-44.81,7.35.48-1.66Z"/>
        <path class="st1" d="M475.22,682.84c.13-1.49-.04-3-.51-4.43l-14.04-42.84c-.49-1.5-1.41-2.85-2.63-3.86l-1.6-1.33,18.06-5.52-.21.85c-.37,1.44-.32,2.94.13,4.36l11.77,36.99,21.5-8.19c1.64-.62,3.07-1.69,4.16-3.06l.73-.92,4.95,13.54-42.46,16.13.15-1.73Z"/>
      </g>
      <g>
        <path class="st1" d="M586.3,620.53c-1.6,4.14-4.03,8.1-7.33,11.59-12.31,13.14-31.78,14.88-43.48,3.91-11.67-10.97-11.17-30.5,1.14-43.63,3.5-3.74,7.58-6.56,11.9-8.4.04-.03.08-.03.12-.05,1.62-.72,2.79-2.18,3.02-3.95l.11-.8s.9,1.09,2.45,2.91c2.43,2.97,6.48,7.82,11.02,13.27-6.53-2.45-14.48-.62-19.92,5.17-7.05,7.5-7.17,18.83-.28,25.29,6.89,6.46,18.19,5.64,25.24-1.86,4.43-4.72,6.12-10.94,5.04-16.53,4.18,4.97,8.1,9.65,10.97,13.07Z"/>
        <path class="st1" d="M684.45,463.29c-2.78-25.89-26.78-12.82-26.78-12.82-8.63-10.26-15.97-8.39-20.68-4.89-3.3,2.43-5.56,6.02-6.66,9.97l-8.82,31.61,1.53-.33c2.27-.48,4.64-.37,6.87.31l38.25,11.81c2.3.7,4.37,2.01,6.01,3.78l1.08,1.16,8.67-33.72c.58-2.23.76-4.56.52-6.86ZM650.94,463.4l-4.61,14.92-10.26-2.63,4.84-15.36c.62-1.98,2.3-3.52,4.36-3.8,2.25-.31,3.76.66,4.73,1.81,1.2,1.38,1.49,3.32.94,5.07ZM672.07,467.96l-4.55,15.56-10.28-2.79,4.77-16.01c.61-2.07,2.29-3.68,4.35-3.96,2.23-.31,3.76.7,4.75,1.9,1.2,1.46,1.49,3.5.96,5.31Z"/>
        <path class="st1" d="M632.93,578.17l-29.77,34.28-.69-1.58c-.58-1.38-1.46-2.63-2.54-3.67l-32.63-31.1c-1.14-1.1-2.58-1.85-4.15-2.17l-2.02-.41,13.3-13.39.2.85c.37,1.44,1.12,2.74,2.18,3.76l27.87,27.04,15.06-17.39c1.16-1.33,1.93-2.94,2.23-4.67l.2-1.16,10.76,9.6Z"/>
        <path class="st1" d="M659.21,534.37c-.35,3.51-1.56,7.38-4.21,11.45,0,0-2.94,5.42-8.62,9.75-6.86,5.23-16.26,5.62-23.79,1.41l-24.25-13.58c-1.64-.92-3.48-1.37-5.36-1.34l-1.72.04,9.92-15.88.05.13c.85,2.33,2.49,4.28,4.63,5.52l22.23,12.88c2.82,1.64,6.26,1.85,9.21.49,4.49-2.05,9.89-6.18,7.87-13.87-.7-2.7-2.59-4.93-5.05-6.22l-25.01-13.14c-1.46-.76-3.07-1.16-4.72-1.16h-1.65l8.62-16.13.94,1.41c.9,1.36,2.13,2.47,3.58,3.26l25.86,14.11c7.55,4.14,12.29,12.3,11.46,20.86Z"/>
      </g>
    </g>
  </g>
</svg>