<?xml version="1.0" encoding="UTF-8"?>
<svg data-name="图层_1" xmlns="http://www.w3.org/2000/svg" version="1.1" viewBox="0 0 800 800">
  <!-- Created by @FCLOGO 2025-7-2 GMT+8 22:43:45 . https://fclogo.top/ -->
<!-- FOR PERSONAL USE ONLY NOT FOR COMMERCIAL USE -->
  <path d="M183.5151,226.711l.7673,17.095c4.2937,95.7733,24.1539,187.3845,59.0227,272.2907,35.0249,85.275,83.5025,159.6707,144.0916,221.1202l12.6034,12.783,12.6045-12.783c60.5873-61.4495,109.0655-135.8452,144.0881-221.1202,34.8711-84.9062,54.7296-176.5174,59.025-272.2907l.7673-17.095H183.5151Z" style="fill: #002b6e;"/>
  <path d="M400,724.7891c118.5783-120.2634,189.5949-293.5892,198.0329-481.7768H201.9671c8.4375,188.1876,79.4543,361.5133,198.0329,481.7768" style="fill: #f9d400;"/>
  <path d="M400,695.6658c50.519-54.9419,91.5556-119.9762,121.8977-193.8599,30.6859-74.711,51.1463-168.7007,52.8098-244.2446H225.2909c1.665,75.5439,22.1266,169.5335,52.8119,244.2446,30.3419,73.8837,71.3781,138.9181,121.8972,193.8599" style="fill: #e2001a;"/>
  <path d="M376.3649,355.1281h0c-.2829-2.6016,1.1585-3.533,3.7364-3.3495l.0082-.0155c2.7146.6792,6.3336.742,10.8737.1643,1.2726,1.8443,3.9735.7959,7.1758.3963,1.2689-.1559.3782,3.3209.3782,3.3209l-6.1627,2.2947c-6.7091,2.742-12.0703-.4299-16.0096-2.8111M387.5863,328.0056h0s-.7066-2.3493-.4013-2.493c1.8598-.876,3.1566-2.412,4.3234-3.7932,1.3008-1.5363,2.422-2.863,4.1444-3.3993,3.2179-1.0026,4.4388,2.352,4.6503,3.0349.4928,1.5835-1.4612,6.4775-6.2493,7.9668-1.9897.6195-4.6569-.2376-6.6897-1.1891l.222-.1272ZM521.9131,343.8695c1.0119-1.8497,1.7125-3.975,2.1645-6.5254.3594-2.5927-.0474-4.8471-.5789-7.0352,0,0-4.7224,1.5058-6.6344,2.2839,2.6296-3.0969,3.7572-8.7383.3449-16.9079-2.1799,3.8395-5.5708,7.8478-8.8597,9.6396-.1349.0711-.2662.1334-.399.1983-.3969.1946-.7955.376-1.1851.4962-4.0556,1.2628-7.1698.5776-10.7701-.2172-3.6632-.8058-7.8157-1.7224-12.8137-.1692-11.2072,3.4872-23.6215,17.7299-25.6669,38.2057-1.1548,11.5737,2.0679,24.9597,6.7541,39.7975l1.7722,5.6496c14.0534,45.172,14.4597,54.3873,6.845,56.7589-3.8146,1.1851-6.1544-3.5165-7.4453-7.6714l-3.7541-11.7709c-.1499-.4807-.3379-.9039-.5071-1.3521.0055-.281-.0186-.5715-.1118-.8698-4.2309-13.5998-11.4106-14.2133-28.4906-18.0775,0,0-2.0246-6.0328,2.5994-7.468,2.7624-.4272,11.2739,2.7189,11.2739,2.7189,1.5664-3.1594,1.944-6.0327,1.2225-8.6341,2.499.2755,4.964.4315,6.4791-2.4512-2.4059-1.7677-3.7771-3.855-4.2478-6.2096,4.0639,1.1359,7.6977.8548,10.3318-2.6359,0,0-5.1707-8.2384-6.1561-11.4071-3.8605-12.4122,4.9409-34.8633-.0667-50.9585-1.2341-3.9612-5.7841-12.5394-5.7841-12.5394,2.8811-1.0698,5.0589,1.7935,8.5262,2.0195.1219.0117.2432.022.3644.0265.2073.0023.4145-.0045.6267-.0237.4807-.037.9745-.1079,1.5042-.2744,3.2447-1.0093,5.9488-5.0264,9.4179-10.5877.5398-.8691,1.1797-1.8888,1.7397-2.73,1.1035,1.1073,2.9322,2.3707,5.6436,1.5256.8449-.2607,4.9656-1.9137,2.892-8.5846-1.8855-6.0527-5.0814-8.4255-9.4963-7.0525l-4.453,1.1824-3.7542.987c-2.7685.8621-4.0368,2.2902-4.878,3.235-.3004.3407-.4976.5456-.6972.6994-.5925-.4366-1.3535-1.2011-1.794-1.7611.3774-1.1469,3.9987-3.9038,5.5255-4.3779,1.6028-.4984,2.7553-1.6464,3.1638-3.1455.2734-1.0121.1746-2.0504-.1352-3.0426-.5831-1.8801-1.9213-3.5953-2.8803-4.6525l-.1313-.1422-.1538-.1339c-.56-.478-1.2038-1.2297-1.3312-1.5428.0024-.005-.0721-.3782-.0737-.3848.0242.0237.8295-.7436.8295-.7436,0,0,.6475-.5892.9326-.8515,1.9446-1.6635,2.5861-4.1747,1.8398-6.5707-.2448-.7931-.6438-1.5703-1.1945-2.3018-1.8645-2.4692-4.7207-3.2468-6.7943-1.8513l-2.4037,2.2878c-.3798.4356-.9497,1.0893-1.2038,1.2083-.2718.0556-1.1013-.1361-1.7698-.3975-1.4243-1.1762-4.6317-3.4074-7.7724-2.4311-2.8004.8736-4.7963,3.5869-6.5584,5.9813-.6018.8186-1.449,1.9446-1.9236,2.3614-.3665-.0105-.9722-.749-1.3709-2.0306-.1637-.5252.2806-2.2085.8962-3.3991l6.3799-10.2719-1.6842-6.2217c-1.3234-4.2547-4.7243-6.2162-8.6608-4.9916-5.3717,1.6701-4.9238,5.1541-4.4828,6.5713,0,0,.2806,1.0263.5408,1.9946-1.388.4322-2.7796.8643-2.7796.8643-7.1555,2.2252-11.57,10.4885-10.0283,15.4387.4883,1.5713,1.2077,2.8265,2.0565,3.8272.9211,1.0821-1.2816,2.1646-2.0543,1.9765-4.6471-1.121-10.0266-.5201-11.5693-.0406-1.838.5705-3.5739,2.0778-5.7736,3.9883-3.1638,2.7489-7.4976,6.5133-13.371,8.3387-11.5671,3.6-10.5056,10.186-9.9027,12.1202.849,2.7309,3.0487,4.0065,5.2097,4.6065.0066,1.1647.1148,2.4771.5165,3.7707.4064,1.308,1.0892,2.5696,2.2015,3.5591.8235.7297-.8752.8553-2.0829.5483-7.5264-1.9209-10.1257-3.7448-13.101-11.5125l-1.0417-2.7135-2.7726.862c-3.5364,1.0992-6.7976,5.1751-4.3509,13.0338,1.4325,4.6046,4.3185,7.8682,8.3442,9.4428,3.7818,1.4757,8.4426,1.3372,13.0912-.2854-.0049.0265-.0138.0541-.018.0799-.2851,1.6232-.155,3.3209.3521,4.9502.0844.2683.2827.5044.3891.77-5.1061,3.2994-6.7807,7.6228-4.6029,13.0708l.0027.0039c-1.3376-.4322-2.703-.5335-4.0997.0391l-2.7874-7.8853-3.7209.9833c-1.594.2917-2.772,1.0638-3.7426,1.975-1.6137-3.8782-1.0279-7.1147,1.1139-9.8817-6.6945.9078-9.1385,3.2025-11.3709,7.106-.2656.3471-.5032.7534-.6937,1.2501-.6456-.5761-1.2293-.6693-2.0985-.6234-9.1165-2.423-16.3463-.0745-16.5492,8.5863,4.4347-2.0069,6.958.0931,7.4702,6.4829l-1.2756.8251c-1.1227.9529-2.8214,2.3944-5.2693,3.155-3.388,1.0539-5.7526-2.2153-6.5176-4.6723-2.2814-7.3335,2.289-14.1246,6.7095-20.6942.9788-1.4585,1.9643-2.9279,2.876-4.41,0,0,7.118-7.0805,4.1183-16.7206-1.1105-3.5652-2.967-5.1602-2.967-5.1602-1.9484.608-3.1483-.7018-4.0357-3.3787-.5318-1.7121-.4844-3.0961-.307-4.5374.0221-.1367.0326-.2746.0541-.4085.0519-.3786.1057-.7584.1616-1.158l-.0123.0237c.4692-4.0458.3064-8.3158-.996-12.5053-2.2775-7.3146-7.2547-9.0018-11.578-9.3557-1.9705-15.8906-15.016-17.3198-21.2857-10.0088,2.0951,2.6252,3.338,5.5267,3.9801,8.6082-8.2462-2.3855-15.2038-2.6429-14.7887,4.6002,0,0,4.6591,1.0142,6.3022,6.2945-2.3419,1.2468-5.8872,6.7564-5.7295,10.9072-3.5805,3.3071-7.152,7.2734-6.4136,12.207,4.6525-.7066,9.4467-.1361,11.1285,2.4302.0931.1583.1812.3253.2656.5098.0243.0592.0562.1103.0733.1716.1103.2574.2115.5275.3092.8361.478,1.5412-.4581,3.7619-2.4875,6.4388-3.7915,4.9999-11.7936,10.375-8.2456,19.7931l4.7083,6.517s.5435.2895.113,1.4222c-1.8999,4.9898-3.1485,11.3202-1.5064,16.5943.3092.9989,1.4611,3.9422,1.4611,3.9422,0,0,1.9557,3.792,5.3365,6.3049l.279-4.0423c1.2835-.7502,2.7138-1.029,4.4425-.3247l1.6854,3.4191,3.0145-4.1901c2.1115-2.9411,3.9239-5.0433,6.048-6.3679-1.3162,3.2128-.8427,7.5408.9228,13.2153.3434,1.1062.841,2.3942,1.2703,3.5974-2.3833.5927-4.7102,1.0616-7.1625,1.3224l-4.4794.1508c.3803,1.8157,1.3393,3.4466,2.5085,5.0048,3.8185,4.2315,10.7302,5.7307,21.6382,4.6414-.706,1.3444-1.8816,1.3599-3.0602,1.6448l-7.4888,2.5756c.5252,1.3329,1.5476,2.5867,2.8976,3.7757.1746.2298,4.7538,2.9674,12.9521,2.5915l-.0066.0093c.1052-.0093.2034-.0037.3047-.0169.0696,0,.1363-.0039.2034-.0095,10.4191-.7595,15.8603,4.0028,26.767,6.1164,3.0167.7519,6.8116,1.2876,10.9642.9724h.0887c-5.3237,5.3756-13.0618,6.8832-26.5601-.9856,0,0-4.0365,2.848-2.5581,7.6014.862,2.7702,5.3822,8.2882,5.4015,8.3113-9.4147-.6098-13.9421-3.8512-22.0053-9.7035l-4.6453-3.3363c-3.0388-2.4893-6.3403-3.7635-11.6062-2.1514-4.3841-4.5329-10.3546-7.2596-17.0205-6.4355l-3.7965.4712,1.2489,3.6136c.6591,1.9104,1.1608,6.3784,1.735,8.2275.2199.7045.3391,1.4186.5353,2.1231-8.6839-4.772-16.3723-2.2048-19.7169,6.1315,0,0,13.4488,1.3234,15.5841,8.19.9464,3.038.2474,4.992,1.4821,8.955,1.8068,5.8067,9.0041,8.9285,9.0041,8.9285-2.8684,4.0828-5.8491,5.8674-11.7396,7.4191,0,0,3.9906,8.1729,18.1201,3.7767,3.2994-1.0275,8.9826-2.7951,11.4888-3.5772,2.5068-.7788,5.2251,1.2395,5.2251,1.2395-.3119,1.3747-1.3829,2.4386-2.7829,3.3633,6.7867.3319,15.8603-2.1838,24.445-6.1583,1.8156,4.6315,7.1064,4.0352,14.834-.2679.5015.8511.0865,2.155-.996,3.7806,5.2593,1.5554,12.0702-2.6353,18.146-9.7372.8211,1.9446.6415,4.297-.1986,6.9063,5.8884,1.3576,10.7526-2.6793,13.2736-6.4388,3.0596,3.2144,6.1936,5.5537,9.4082,7.1472-5.7069.2298-11.6185.7649-17.0205,2.4417-13.047,4.0639-15.2859,14.5303-15.3741,14.9746l-1.0803,5.3856,5.1685-1.863c3.7038-1.335,6.4779-1.8227,8.4644-1.8497-.8146,1.7455-1.5305,3.5133-2.1848,5.2639-1.0788,2.8826-2.1354,5.697-3.7884,8.3018-4.1983,5.6397-10.3087,9.3953-19.0747,11.6383,2.4798,4.8063,6.1853,5.8221,10.2051,5.8028-1.6149,2.2824-4.3995,4.0374-8.0252,5.3948,3.8389,1.5346,7.8136,2.8216,11.9986,3.6517-.268,1.7109-1.1128,3.6212-2.3013,5.6397,9.7362,1.8702,17.5282.9452,22.6394-1.2495-1.3494,4.0577-3.0469,7.4074-6.5476,9.1926-.5687.2641-1.1326.5275-1.7611.7216-4.1943,1.3039-11.9445-2.4557-15.848-5.1294-3.5282-2.052-6.1942-1.7903-10.6682-.3891-2.0913-3.0948-3.9381-8.2165-7.7435-10.4151-3.8979-2.2483-6.6317-2.8865-11.8646-1.2629-1.7484.5452-3.8142.1384-5.9986-.2887-1.5974-.3152-3.6499.0138-5.7223.6537-.0039,0-.0088-.006-.0126,0-6.0746,1.8873-9.352,3.1407-10.4825,7.7336,4.5269,1.1548,8.6895,3.031,12.2677,6.0047-5.6226,1.6464-9.4819,3.7843-9.9851,8.9225l-.4029,4.1057s10.0034-1.8668,12.7665-2.3815c.357.6835.7369,1.4833,1.0002,2.3335.0288.0877-.1983.6191-.1983.6191-.4756,1.0197-1.2732,2.7174-.5011,5.1993,1.0803,3.4691,3.3771,4.7528,4.7507,5.5179,0,0,.2491.152.4542.2716.1367,1.0672-.5964,3.181-1.4541,4.6122l-.475,4.7497,3.9844-.1694c3.0827-.8905,4.1074-1.1486,5.3284-2.2427.9166-.8202,1.394-1.2264,2.2019-1.4772,2.2709-.7043,5.9187,1.6106,8.5659,4.7491,1.8884,2.2427,3.6748,4.3598,5.6766,5.6303l1.9122,1.2191,1.739-1.4568c2.3619-1.9789,1.9428-5.1514.9403-8.3759-.2115-.6818-.4624-1.3559-.7066-2.0355,5.0085-.3704,7.7183,2.5023,12.7682,7.8103l3.6367,3.828c1.5118-1.0446,2.4522-2.8601,2.7283-5.5489-.0601-1.5244-.097-3.059.0589-4.4034.4521.4443.8598.904,1.2666,1.6899l1.059,2.0527,2.2707-.4272c5.9893-1.1338,7.7634-5.1001,8.9369-7.7225.5116-1.151.9013-1.8686,1.3741-2.3433.2266-.0037.387.0265.4537.0606.5942.3115,1.8019,1.5892,3.3621,6.5989.069.226.14.4591.2117.7004l1.2919,4.3561,3.5832-2.7951c.3798-.2981,9.2583-7.4041,5.3548-19.9533-1.2258-3.942-2.5161-5.7406-2.7619-6.0597l-.9007-1.1714-1.4937-.0379c-1.0286-.0264-2.2153-.3589-2.7895-.7216.4949-1.111,1.8068-3.1864,3.4141-5.3987.5202.7258,1.3228,2.2009,2.3794,5.6016.0304.0993.3372,1.1052.3372,1.1052l.6197.566c.2744.2563,2.768,2.4347,6.2234,1.6998l1.8039-.3858.5221-1.7716c.7914-2.687,1.0043-5.847.7577-9.348.1556.1079.2806.1818.4404.2939l3.676,2.5408,1.7946-7.1604c.1934-.695.3891-1.3956.5528-2.1175.1649.5357.3263,1.0732.4972,1.6695l1.7412,6.084,3.737-5.1079c.1879-.2547,4.5461-6.3711,1.5704-15.9396-1.5169-4.8742-6.3475-9.0102-10.229-12.3366-1.6347-1.3961-2.9548-6.0023-2.3436-6.2934.4521-.0987,2.4727.9172,3.9256,2.2659,0,0,4.3686,2.4891,4.6194,1.1657,1.6485,4.2309,3.9079,9.6672,4.0429,9.9919l1.0974,2.6357s4.8024-1.5554,6.8642-2.2201c.7294,6.9823-1.0461,14.4906-5.5271,21.9872l-3.667,6.1275,6.9823-1.5114c3.7386-.8091,6.7486-2.3981,9.2874-4.4678,1.6425-1.3405,4.9346-.8775,4.7606.9932-.4296,4.6062-3.8605,12.4715-5.3206,16.8104l-.8262,2.4556,2.2692,1.2489c.4287.2376,6.139.7826,11.7252-.9551,2.8922-.9001,5.8394-3.5733,8.3895-6.5563,1.1163-1.3008,3.5129.2331,3.289,2.4246-.177,1.7754-.6002,3.5469-1.3994,5.1821-1.4928,3.046-4.0468,5.0985-7.8102,6.2698-5.566,1.7279-10.026.5699-14.7453-.657-4.7886-1.2495-9.7409-2.5405-15.6083-.7117-2.7819.8637-5.1217,3.4252-7.5975,6.1347-1.555,1.7037-3.6857,4.0374-4.8649,4.404l-.8641.0529-3.1391.42c-4.788,1.4842-6.392,6.3776-6.5843,9.0306l-.402,5.5658,4.9547-2.6093c.0126-.0095,1.5514-.8125,5.1574-1.9332,2.7421-.8542,4.825-.6205,5.3531.5243-.118.532-.7084,1.6635-1.1813,2.5503-1.6385,3.0723-4.221,7.9166-2.4455,13.6263.8845,2.8387,2.8442,5.8905,6.5319,9.0482l3.5205,3.0116c1.3729-1.5857,2.0261-3.5947,1.4469-6.3043-.5754-1.8229-1.1278-5.3984-.1653-7.2349.2849-.545.6724-.8598,1.2937-1.0539,4.3046-1.3405,6.3511.7959,9.8869,4.9997,3.0668,3.6556,6.887,8.2033,13.4406,7.0315l4.4392-.7955-2.3375-3.8621c-.011-.0231-1.2022-1.9979-1.8134-3.9629-.7954-2.5597,2.3662-3.5761,2.3981-3.5832,1.0827-.3385,1.6695-.2812,2.3493-.2127l2.5574-.1559c2.7537-.8598,6.354-4.183,8.266-7.1075,1.4144-2.1667,3.2834-1.6596,3.0078-.1956l-1.1431,6.1715,5.5922-2.8424c5.3966-2.7405,6.6842-8.135,8.3549-15.5592,1.905-.7998,3.8092-1.3219,5.6739-1.4132l5.3513-.2635-2.898-4.5064c-1.4618-2.2688-2.9015-3.606-3.9554-4.5782-.3471-.3224-.7478-.7045-.938-.9452.2353-.3286.8184-.8131,1.3675-1.0848l3.378-1.6899-2.2956-2.994c-2.6661-3.4316-6.3751-3.4316-8.8323-3.4279-1.4202-.0037-2.0883-.0566-2.4665-.2298-.0208-1.5073.7006-4.6883,6.8116-6.5887l2.4169-.7447c7.8142-2.3771,15.1912-4.62,16.8523-11.0324l.7199-4.2061-4.4508,1.3846c-2.5122.8674-4.4737.2717-5.8236.1593,5.5598-1.2231,9.8721-4.2171,12.3441-8.9209,1.1229-2.5062.8286-5.1248-.2804-7.8079l-4.5539,2.3599c-6.3442.6858-8.625,1.0749-10.256-.6663-.3566-.3798-.6244-.8602-.807-1.4469-.3759-1.206-.3891-2.8484-.034-4.9103l.8526-4.9696c-1.6806.6874-3.7051,1.297-5.8088,1.7545-.0987.027-.1859.0475-.2883.0745,0-.0061.0017-.0099.0078-.0171-.4068.0847-.813.167-1.2215.2409.0039.0093.0117.0208.0171.0264-4.1471.8472-11.114,1.4986-12.2984-2.3127-2.7654-8.8846,5.5938-16.8409,8.8673-17.8572,1.5021-.4708,2.7897.2337,3.6532.9077-.3323.5623-.7953,1.1929-1.2471,1.755-1.7623,2.1814-4.516,5.5955-3.0343,10.3546l2.0774,4.0235c0,.0039.0055.0078.0055.0132.0093-.0094,5.2677-3.215,7.0258-3.7656,1.0197-.3152,1.836-.2542,2.6561.2034,2.4269,1.3443,4.0104,5.649,4.3736,7.0447l1.0557,4.0672,3.5715-2.2003c3.5778-2.2087,3.4372-7.161,2.4082-12.6658,1.1844.699,2.3749,1.5247,3.5964,2.6795l3.1104,2.947,1.8188-3.8813c.2431-.5143,2.3283-5.1861.8379-9.9787-.6802-2.1815-2.8585-4.9181-4.5292-6.8186,7.0961-7.512,7.1986-15.6013.5832-22.9005-2.1782,7.2046-5.5277,11.188-10.7101,12.6012.1484-4.8101.8319-12.2655-.56-20.1723-.6817-6.4139-2.2938-14.6459-5.6544-25.4467l-1.7759-5.3797c-1.0407-3.4195-2.1249-6.7255-3.2395-9.8109l-4.988-15.1041c-10.3032-33.1205,6.2393-45.9101,9.9235-47.056,2.121-.6594,4.0787.4128,5.0565,1.1107,1.5478,1.1006,2.5348,2.5657,2.8998,3.7425-.7027.9706-1.7052,2.0835-2.8712,3.3026-4.4965,4.7083-11.2304,11.7567-7.9833,22.1889.0892.2851.1847.5728.289.8621.7556,2.2493,2.1379,4.6645,3.7734,7.1373l1.8398-6.6562c.7782-1.367,3.4824-5.1265,6.5966-6.0948,2.0603-.6423,2.203-.1836,2.3981.4485.3743,1.1978.0706,2.7775-.2828,4.608-.4713,2.4412-1.0065,5.2113-.091,8.157,1.0307,3.3077,3.5204,5.6733,6.1563,8.1777,4.0594,3.8578,8.2538,7.8445,8.3905,16.1232l.097,5.8868,4.7948-3.4146c6.2322-4.4298,6.0916-10.6538,4.3809-16.1513-.1562-.5032-.3821-.9281-.5639-1.4171,5.3927-1.5343,8.5202-3.5998,8.6965-10.2871l.1406-5.3266-4.3367,1.8023c-.6025.3218-3.5474.0865-4.9012-.469-.7937-.3241-1.4186-1.2061-1.8575-2.6149-.5979-1.9209.0132-3.1566,1.4547-5.7649,1.6082-2.9151,3.5568-6.8913,3.0076-12.924,3.3822-.7534,7.9454,5.2924,7.9454,5.2924.7479-3.2227.8411-6.1849.1764-8.8251-1.1984-3.2871-3.6896-6.9337-8.7803-8.3069Z"/>
  <path d="M287.7094,369.8131h0c3.4753-6.6405,10.4306-17.866,18.0495-16.4416-6.4674,5.5162-12.0527,13.0464-8.9826,19.2852,3.5183-4.8901,6.6119-8.0837,11.6642-9.0438l1.3348,3.4901c-2.8577,2.1282-3.4658,6.2582,1.8052,19.9572-3.6758,1.1233-7.0982,1.8521-10.8821,2.2544,4.4228,4.8978,15.0887,5.2218,32.8979,1.3432-3.3644,4.5555-8.0918,7.3518-16.1154,9.2962,0,0,4.447,5.7919,17.0705,1.8641,2.1766-.6762,5.11-2.596,5.11-2.596.2664,1.6612.2051,3.1269-.3626,4.8943,27.062-3.6509,17.5222-29.8679,37.1469-35.9734,4.8201-1.5002,3.9091.4184,16.1904-3.4018,1.0329-.3218,1.3179-2.8932.0126-4.41-12.7311,5.2053-19.3867-6.0674-23.4104-4.4254,0,0,1.323,4.237.833,5.9104-.4896,1.6717-2.1679,1.9225-2.8051,1.5007-.6349-.4205-4.0622-4.1565-4.8107-6.5595-.9304-2.9923-.2089-5.8905-.3407-7.5715-2.0256.367-3.0794,1.9793-4.3019,3.9828-2.3217-1.8068-3.1401-4.3373-4.0066-6.8116,0,0-5.6054,2.6149-2.6038,12.265,1.7824,5.7307,4.873,9.186,4.873,9.186,0,0-7.9668-4.959-9.4278-9.6552-.4608-1.4821,1.229-2.5348.2671-5.6241-1.3604-4.3715-9.5871-1.6752-9.5871-1.6752,2.1506,4.4818,3.3688,9.03,3.7122,13.9549,0,0-2.666-1.6899-3.4681-1.4414-.803.2508-3.1455,3.2476-7.5065,4.6052-4.9346,1.5339-9.0063-2.2457-10.3952-6.7119-5.3245-17.1113,19.3001-29.8084,12.2951-42.2206-3.527,1.2143-4.4193,6.0338-7.5191,6.9973-3.214.9998-6.9676-1.3576-6.9676-1.3576,0,0,11.446-13.3881,6.3766-29.6783-3.8935-12.5174-13.4554-9.6606-13.4554-9.6606-2.4587-8.3069-4.1311-12.0664-8.9606-11.8156,2.7658,6.0762,3.3446,11.1498,1.4039,15.039-2.6826-2.962-5.7124-5.4192-9.3536-3.7617,1.7479,3.5914,2.8463,7.679,3.758,11.6723-7.5248,3.3258-6.0801,7.1571-6.7437,8.266-1.5632,1.8515-3.333,2.605-5.9992,3.3789,1.6531,4.4987,7.6345,1.8816,9.9246,9.2454,2.2824,7.3302-14.0193,14.4155-8.9621,27.8407,5.6496-6.9366,9.2328-9.0494,13.2625-9.1624-9.7553,12.3344-16.2725,22.5418-11.0203,33.7698M379.2115,329.2737h0c-10.9771-2.5023-15.32-3.92-19.3287-14.3803-2.8688.8929-3.7767,4.4493-2.3148,9.1541,3.1428,10.101,13.6416,9.8568,21.6436,5.2262ZM519.1809,353.2095h0c3.1476-.828,5.4742-1.0265,8.6016.0274-2.1991-6.0309-7.2022-7.1713-12.0505-6.7735,2.9736-2.4141,4.5082-5.2164,5.2963-9.6633,0,0-3.6101,2.6677-6.6026,3.5993-3.2585,1.0158-6.7882-.3998-6.7882-.3998,3.598-3.4829,9.2019-10.151,7.1642-15.4539,0,0-3.8582,3.4189-7.1167,4.432-9.4638,2.9451-14.9559-3.0707-23.5825-.3864-9.0685,2.8214-21.4707,15.1597-23.5056,35.555-1.2291,12.3157,4.2838,27.7344,9.6098,44.852,13.9113,44.7207,13.8065,57.885,2.9355,61.2693-3.9173,1.2171-8.4634-.5071-11.3245-9.7069-1.1641-3.743-2.0759-9.7796-3.0899-13.0381-4.8323-15.54-23.4721-13.0735-31.0271-14.3914-1.8537-4.1868-4.6867-7.7607-8.3135-11.5092-8.1707-1.1278-16.1955-2.2499-25.4437-7.9199,0,0-3.166,3.0116-10.2525,5.2196-6.2494,1.9408-12.4341-.8637-12.4341-.8637-7.3076,3.8148-9.2692,7.1301-28.4185,2.3716,2.7636,6.0933,5.0863,7.979,8.1735,11.0723-21.3804,1.7241-25.158-3.2795-39.5032-13.3965-1.7741-1.4865-4.5164-1.7809-11.5906.6135-3.8479-4.7723-8.3168-6.8762-15.0133-6.0461,1.4696,4.2513,2.9213,8.4573,3.7084,12.8475-4.3048-.4976-9.1216-3.2486-13.5469-.7121,2.9217,2.7741,10.0547,4.6922,11.6707,9.8877.6845,2.1985-1.5229,3.1765.0644,8.2847,2.3845,7.6582,9.1469,4.878,10.214,8.3091.9889,3.1677-7.6547,9.531-7.6547,9.531,13.4653,1.6971,13.699-8.4159,18.7274-9.0161.5506,1.7677.3628,3.6553-.2876,5.5961,8.4595,7.0183,13.6175-5.8812,21.1758-7.6526.0783,3.1236-1.8426,6.1748-4.1096,10.0641,9.59-1.1449,13.5332-10.193,18.3175-13.1326.4128,4.1224-1.9188,8.4177-2.4528,13.2201,6.629-2.1704,11.4843-7.1476,14.5027-13.5882,1.029,3.8599.9193,7.9214.1256,12.5111,6.9685-3.9017,12.2495-8.7329,15.2859-14.7958,1.8663,3.3534,1.7798,7.2691,1.7269,11.4331,3.3837-.4348,5.8772-3.754,8.2837-5.9549,9.7024,11.9496,19.7571,12.2951,32.8444,12.4738-7.3352,3.7293-25.7215.1803-39.6332,4.5058-11.4409,3.5622-13.2564,12.6238-13.2564,12.6238,5.0839-1.8323,10.9375-3.0156,14.162-1.029-5.5604,8.1993-4.4254,19.9152-19.1734,26.8215,4.8691,2.9301,11.2793.2547,17.5286-1.686,1.26,4.4508-2.3893,7.2116-10.9249,11.1234,5.4429,1.8194,10.165-.8466,15.6464-3.7084.3175,4.3694-3.4813,7.7453-8.7164,11.4007,4.6674,2.8922,9.7107-1.3823,16.182-8.5085,1.5863,5.104-.6977,20.1033-13.1098,23.9675-7.2166,2.2423-18.5224-5.5355-18.5224-5.5355-2.7102-1.5742-4.5242-1.2021-10.8086.9458,0,0-3.3468-14.792-18.0486-10.2161-5.2809,1.6425-10.7981-2.4377-15.2512.0132,1.7545,4.0887,8.4883,4.3087,10.3717,10.6736-8.351,2.0186-11.2683,3.5057-11.636,7.2917l10.8588-2.0279s1.5853,2.3073,2.3812,4.8609c.7925,2.5504-1.5213,3.1771-.7012,5.8182,1.2324,3.9593,4.5385,3.4146,5.1977,5.5279.9293,2.9946-1.755,7.4017-1.755,7.4017,4.4294-1.2835,4.8627-3.9287,8.1179-4.9429,6.4289-1.9974,11.4855,8.9798,16.1788,11.9612,1.8389-1.5384-.8521-7.0733-1.8645-10.3281,8.8111-3.0342,14.3837,2.476,20.1246,8.5093-.1338-3.3269-.2436-6.6804,1.5241-9.0675,2.6032.9948,4.19,1.9804,5.6486,4.8101,7.1129-1.3426,5.8082-7.4056,9.3837-9.8744,4.1627-1.3613,6.4544,2.4385,8.5003,9.331,0,0,7.6158-5.9434,4.3031-16.59-1.1243-3.6136-2.2608-5.0914-2.2608-5.0914,0,0-5.0433-.0739-6.0311-3.247-.5468-1.7582,5.5922-9.6538,5.5922-9.6538,2.8706-.7006,4.802,2.9223,6.5607,8.6782,0,0,1.4889,1.3686,3.479.9452,1.2231-4.1469.9133-9.1694-.2067-14.3251,2.1474.8814,3.9229,2.0663,6.1369,3.5949,1.043-5.3454,3.6306-7.8865-1.5968-16.304,5.0456.0721,7.0997,5.1292,9.3349,12.9335,0,0,3.6592-4.9997,1.1113-13.1898-2.163-6.9537-13.6169-13.047-14.7678-16.7422-.6835-2.2025,2.7894-5.3111,4.1113-5.7212,2.9923-.9288,7.0842,2.9124,7.0842,2.9124,0,0,.6532-3.4823.4145-6.1143-.2397-2.6279-3.4185-9.7504,8.9054-13.5822,7.3959-2.3034,9.5515-5.002,8.1422-13.2504,0,0,9.9939,11.9496-5.9395,16.9091-9.4203,2.9301-10.1,6.327-7.6086,14.3406.9018,2.9031,5.4915,13.9318,5.4915,13.9318l7.7208-2.5031c2.094,8.9083-.0231,18.5506-5.4859,27.686,10.2234-2.2181,14.3689-11.2321,19.5886-19.9061,0,0-2.9964,11.1676-2.0907,14.0766,1.8894,6.0702-3.3837,21.7117-3.3837,21.7117,0,0,3.0286,1.6673,7.5176.2679,6.0744-1.8896,13.7537-15.3813,13.7537-15.3813,0,0,8.6932,22.9783-9.443,28.618-12.3216,3.8377-19.8795-4.6233-30.3557-1.3654-3.9624,1.2308-8.4976,9.3046-12.46,10.5354-1.2324.3852-2.4212-.021-4.0048.4762-4.048,1.2572-4.4133,6.2949-4.4133,6.2949,0,0,1.6524-.8983,5.6986-2.1589,5.725-1.7816,8.5983.3185,9.3371,2.6963,1.2892,4.1354-11.3004,12.3978,1.8569,23.6561,0,0-3.2656-10.1857,3.1615-12.1833,12.147-3.7806,13.4571,13.7686,23.6997,11.9364,0,0-1.3839-2.2731-2.1225-4.6503-1.3405-4.3124,2.4131-6.8318,4.4358-7.4624,2.7324-.8472,3.8506-.0397,4.9084-.3687,4.0483-1.2567,6.7789-12.3465,13.9813-13.7157,1.6347,2.7747,1.9444,6.2532,1.2594,9.9451,4.4181-2.2487,5.3034-7.1571,7.0959-15.0527,2.4758-1.2458,5.2335-2.1094,8.1822-2.2559-2.4329-3.7824-4.7799-4.5004-5.3834-6.4352-.8487-2.7327,3.0988-4.6333,3.0988-4.6333-3.3837-4.3559-9.2418-.2166-11.8146-4.1432,0,0-1.8894-7.624,8.8525-10.9642,8.3626-2.6015,15.8326-4.3449,17.1941-9.5948-5.6794,1.9573-10.5541,2.7018-13.4151-4.3258,6.1351.2409,13.064-1.4568,16.4594-7.9221-12.3317,1.3273-17.9581-1.5554-16.2433-11.5511,0,0-15.933,4.9562-18.6449-3.7596-3.2873-10.5617,5.8883-20.1775,10.9052-21.7379,4.6673-1.4529,8.051,2.9052,8.051,2.9052.2298,4.464-8.2826,7.2078-3.7308,14.3852,0,0,.9909-3.011,4.1603-3.9967,7.9236-2.4687,10.9507,9.4335,10.9507,9.4335,2.8331-1.7503,1.2264-8.7825-.1692-14.8151,3.5453.4068,6.7774,2.235,9.9274,5.2164,0,0,1.8576-3.957.6818-7.7435-.8239-2.6412-5.5085-7.4585-5.5085-7.4585,2.478-3.5529,4.3809-6.0939,4.9656-11.9766,0,0-4.6906,4.1664-10.8543,6.0801-2.2004.6872-3.7271-.1896-4.2195-1.7754-1.8072-5.8082,5.2903-13.7173-5.2522-47.6066-2.2856-7.3506-7.7451-23.0327-10.0051-30.2945-10.7227-34.4649,6.0632-49.1003,11.963-50.9347,5.8524-1.8221,11.9898,3.9459,12.1305,8.583-2.9643,5.3653-15.3489,12.1127-10.9035,24.5375,0,0,3.355-5.9687,8.3718-7.5303,3.7013-1.1497,5.5411.1119,6.2796,2.4891,1.2324,3.9629-1.7146,8.4514-.3743,12.7632,2.1651,6.957,14.4356,10.0922,14.6864,25.1714,4.5858-3.2587,5.6467-8.2254,1.3426-17.4114,6.6059-.5098,9.1484-3.1825,9.3232-9.7553,0,0-7.7397,4.2914-10.2729-3.8527-2.2731-7.3061,6.8721-9.7174,4.0297-22.1095ZM382.597,414.6264h0c8.4511-2.6274,10.6394-11.4215,10.6394-11.4215l-1.5097-5.3239c-2.757,1.077-5.6766.6807-8.728-1.05-2.3701,9.1385-6.4344,13.3012-11.7568,14.8085,0,0,3.9609,5.2848,11.355,2.9869ZM395.7261,303.6598h0c1.9164,6.16,14.4779,4.9574,14.4779,4.9574,2.2007.8621,5.7103.3494,8.8261-.8157,0,0-.4179-2.5714-1.3405-3.059-.9226-.4863-1.6689-1.0241-2.9036-.6399-5.104,1.5884-9.3497-7.7138-16.3911-5.523-1.0567.3286-3.3793,2.7897-2.6687,5.0803ZM419.7974,310.2668h0c-17.7013,10.1413,2.2575,20.9262-7.6279,28.2509l.9188,3.5739c11.9706-.6321,1.2177-22.777,7.5161-28.5997l-.807-3.2251ZM372.9899,311.8928h0c-.5462-1.7615-.5882-5.6121,7.8658-8.2396,10.2095-3.1785,15.7974-11.2875,19.1443-12.3293,2.1111-.657,13.3183-1.2474,14.7992,3.5066,3.7547,4.6245,6.5685,6.8369,13.4157,11.4674.3836,1.2318-2.3104,1.878-1.1618,5.5747,0,0,6.9212-1.9596,8.2522-1.409,1.3296.5534,4.0717,5.0181,4.9718,7.9157.7667,2.4659-.8301,3.5412.5942,8.1177,1.3138,4.2249,4.0973,5.0973,7.1664,14.9574,5.4231,17.4318-3.7502,32.6438.9055,47.6094,1.0422,3.3468,7.9944,11.4172,7.9944,11.4172-4.2838,1.1353-7.2707-.749-11.5908-3.7337-.365,3.7839.4636,8.0986,1.5703,11.8681,0,0-6.1756,2.5023-9.5701-8.4127-1.5346-4.9315-.6306-10.6202-2.0075-13.2792-2.0168,1.5908-4.0594,10.5327-1.3217,19.3311.4916,1.5875,4.1057,7.6107,4.1057,7.6107,0,0-9.0691,1.2759-13.0128-11.4007-3.6692-11.7952,4.4617-30.3551,4.4617-30.3551,0,0-13.9376,8.583-7.3086,29.8877,2.3569,7.5726,4.8973,14.5038,4.8973,14.5038-8.5809.3512-5.4194-11.8316-12.3465-12.3807.0605,2.6831.6343,5.761,1.6827,9.1315,0,0-7.161-.6664-10.6114-11.7606-4.6543-14.9623,7.742-34.0774,16.0928-43.2385,5.6568-2.9198,8.0761-10.0442,6.8155-22.7836,5.4609,12.5905,10.7055,24.4757-4.6885,27.1411-1.7052,9.4131-16.8165,15.4658-11.851,29.5626,5.222-13.0167,12.1758-25.4149,17.8099-27.1676,0,0,2.1226,1.8491,3.5298,1.4105,6.5133-2.0267,2.4344-19.4861,1.5383-32.9199l3.5754,7.7721,4.2271-1.3156s-.986-3.1677-1.3712-4.4018c-.3836-1.2336-3.3287-2.6318-4.9727-7.9145-1.0391-3.3444-7.2199-6.4437-10.0361-5.5685-4.0483,1.26-4.5593,3.349-3.0777,8.1023,3.011,9.6855.1896,13.6524.9569,16.1183.7671,2.4654,1.1408,4.2805-1.3273,5.0478-2.465.7671-3.2167-2.2826-3.2167-2.2826l-3.9422,1.6123c2.2902,5.2401.036,10.6052-3.3571,16.9559-1.4282,2.6688-5.1956,5.1299-6.7735,8.2087-2.1739,4.248-2.1155,9.3304-3.43,14.6483-1.4288,5.7631-1.9624,12.25-.7585,19.6743l-3.7205,2.3166c-3.2672-8.638-1.3376-11.7468-2.7079-24.8383-2.3983.3605-5.0196,3.5871-7.0694,6.4478-1.2992-7.9007,5.0813-17.801,14.0136-18.2634,2.955-4.7816,8.7716-12.7731,6.303-17.6021-4.3033,10.9918-10.6087,5.6183-22.3913,22.9927-.7282-7.3049,5.8667-19.0103,18.2986-22.4934,2.3166-4.9682,4.985-10.0458,2.9114-14.2308,0,0-3.7013,4.243-6.342,5.0641-5.4561,1.6989-9.3176-.7709-9.3176-.7709-7.0156,1.0245-13.1324.6095-14.064-2.3812-1.0956-3.522,3.0878-5.5967,3.0878-5.5967-2.2346-3.0788-2.8723-7.9905,2.3899-11.5582,0,0,6.672,4.6855,11.9529,3.0407,6.3408-1.9709,9.3286-8.5031,8.288-11.8459-1.0405-3.345-4.1283-6.4412-8.5301-5.0743-4.7538,1.4817-6.0801,6.5289-9.4251,7.5684-8.8029,2.7388-6.7756-8.1255-6.7756-8.1255,0,0-4.5557.2596-5.5411-2.9098ZM432.8862,300.209h0c-1.9483.566-3.1638.992-2.4681,3.8566,1.3691,4.4016,6.1561,4.2655,9.2698,3.1037.0021-3.0905-4.3367-7.7261-6.8017-6.9603ZM418.4872,283.9942h0c.3572.6135,1.1603.7794,1.5136.0066.2578-.5787-.3401-1.2903.1724-1.8173.5849-.6024,1.9104-.7502,2.6754-1.078.8147-.3506,1.0671-1.1194,1.5003-1.8461.6306-1.0537,1.2209-1.9009.6858-3.1759-.3837-.9182-1.1774-1.9384-2.0549-2.4335-.5981-.335-1.3784-.8791-2.0718-.5831-1.3693.5882-.0739,2.2478.2359,3.2284.5919,1.8711-.6192,3.1572-2.1931,3.8593-.5132.231-1.2044.6847-1.269,1.2876-.0892.862.3837,1.8239.8054,2.5519ZM430.7327,292.4234h0c.1445.4912.803.9923,1.2191,1.2705.5964.4023.9779.7756,1.7055,1.0671.877.3506,1.8095.8802,2.6909,1.3074,1.5091.7264,2.5838,1.9627,3.9684,2.7989,1.3652.8268,1.8266,2.1072,2.3509,3.554.2166.6008.5714,2.5972,1.2401,2.7615.9242.2269,1.4601-1.1079,1.3839-1.8101-.0853-.7723-.6244-1.524-.8239-2.2931-.1694-.6459-.3494-1.2902.518-1.5063.6422-.162,1.679,1.0049,2.0829,1.4567.3439.3848.2547.5204.7562.4951.2806-.0138.6113-.1753.8793-.2596.7385-.2289,1.4694-.4046,2.2042-.6318.8262-.2557,1.8287-.3791,2.3948-1.0776.3434-.4233.581-.9331.7441-1.4523.1637-.5048.3058-.7253.566-1.1708.4747-.8124.1616-1.7807-.0986-2.6126-.2851-.9226-.5149-1.8906-1.1603-2.6275-.2851-.3279-.7829-.7887-1.2573-.8647-.9514-.1526-1.4694.7755-1.2954,1.5907.1864.856.6158,1.6927.8968,2.5243.2331.6846.6626,1.4993.3969,2.2445-.3137.8715-1.6882,1.7049-2.6435,1.7809-1.5205.1208-1.3403-2.2457-2.2404-3.0382-.3704-.3268-1.1509-1.0329-1.6673-.6008-.4861.4085-.1003,1.6833-.3209,2.2661-.3098.8025-.7712.6078-1.4375.329-.8091-.3346-.9155-.8814-1.4243-1.4992-.6646-.8103-1.1393-.1664-1.9898-.2944-.4936-.0751-.7766-.5684-.7616-1.0434.0115-.4217.414-.5555.4636-.9878.049-.4215-.2734-.8229-.0364-1.2363.1559-.2695.469-.3824.6151-.6778.1637-.3181.2965-.9228.2625-1.2617-.118-1.212-2.9529-.8042-2.3493-2.5497.2812-.8152,1.7722-1.0704,2.4744-1.3249.6095-.225,1.2534-.4367,1.8816-.6009.553-.1444,1.3886-.3286,1.8972.0391.7006.5077.8411,1.8927,1.9369,1.6508.3572-.0778.8925-.4492.9172-.8556.021-.372-.4879-.8316-.6586-1.175-.4674-.9497-1.2726-2.0558-2.3586-2.3298-1.2306-.3121-3.2678.2706-4.5004.5748-1.5305.3782-3.2359,1.0997-4.0336,2.4953-.7628,1.336.0574,2.8469.532,4.1679.1786.4995.6818,1.4805.2485,1.9237-.5065.5122-1.3895.2166-1.9369-.0103-.5769-.2403-1.1393-.5209-1.6993-.7871-.4332-.2067-1.3249-.9177-1.783-.9096-.4939.0089-.8713.7861-.7502,1.1905ZM453.5323,316.6094h0c-.3052.4233-.7441.9299-.8085,1.47-.07.5609-.2431,2.4587.5847,2.5084.5055.0319,1.5835-.3611,2.0185-.6333.5225-.3284.8433-.9707,1.0119-1.5427.1163-.393.1259-.9183.462-1.1564.3224-.2244,1.029-.3545,1.3994-.49,1.5626-.5726,4.6293-.8556,4.1658-3.1247-.334-1.6359-1.3955-2.4164-3.1158-1.9919-1.3273.3274-2.2334,1.2979-2.9208,2.4241-.4023.6568-.8124,1.0263-1.4375,1.4523-.539.3692-.9569.5269-1.3598,1.0842ZM413.6031,281.6827h0c-.9304-2.9935,2.182-9.7522,7.9921-11.5605,2.9931-.9316,5.6343-1.7527,5.6343-1.7527,0,0-.8659-3.4009-1.3576-4.9856-.4937-1.5851.8622-2.1985,2.4457-2.6913,1.5835-.4929,3.7392-.3914,4.7814,2.9536.6571,2.1132,1.3008,4.8098,1.3008,4.8098l-5.7857,9.3302s-1.8212,3.4632-1.1073,5.7528c.9854,3.1671,3.0535,4.8415,5.3398,4.1304,2.288-.7126,5.0487-7.3636,8.3928-8.4033,2.1132-.6592,5.3206,2.2065,5.3206,2.2065,0,0,2.4857,1.1585,4.2457.6095,1.7605-.5468,2.7994-2.8005,4.3946-3.8764,1.5968-1.0764,5.2974,3.3703,2.392,5.8209-1.3118,1.3736-3.5469,2.2628-2.6147,5.2551.4386,1.4088,2.273,2.962,2.273,2.962,0,0,4.3941,4.8129,1.2247,5.7979-2.1133.6586-8.6761,5.0175-7.6334,8.3619.2184.7027,3.5261,4.5037,5.11,4.011,2.9925-.9316,2.5101-3.0993,6.2092-4.2507,2.2862-.7105,5.214-1.2379,8.2071-2.1667,2.9905-.9314,4.411,1.1383,5.6148,5.013.6553,2.1105.7309,4.2138-.8527,4.7065-2.8183.877-3.3192-3.2176-5.2545-2.6147-1.9345.5997-7.4966,13.1456-11.545,14.4056-2.8177.8775-4.1146-1.9252-7.6294-3.4206-2.9853-1.2687-6.3705.6311-7.301-2.3611-.5491-1.7617-1.4817-4.754-1.9198-6.163-.4371-1.4093.3891-1.8579,2.1496-2.4068,1.76-.5468,4.895.2155,6.9934,3.2321-.5816-3.1031-3.5321-5.5576-7.5291-5.5747,0,0-1.6923-2.9499-2.1838-4.535-1.3693-4.3995-6.4352-7.6549-9.9561-6.559-1.2324.3831-4.6877,1.0741-4.6877,1.0741-3.7751-6.5512-6.6181-4.5092-7.6014-7.6772-.3284-1.0567.0342-1.75,1.6193-2.2429,1.5841-.4928,6.9598,1.8906,6.9598,1.8906-1.3502-2.4759-3.1708-3.9542-5.6397-3.8444,0,0-6.139.75-8.002-5.2367ZM383.0489,370.4564s-2.9686,6.2834-1.5713,10.7734c1.1906,3.8292,3.5782,6.8524,3.5782,6.8524-4.5311,7.7815-7.0673,18.7098-15.7843,21.4177-11.6188,3.6174-22.2213-2.0641-22.2213-2.0641,26.6181-16.3905,15.0125-37.4004,35.9987-36.9794Z" style="fill: #f9d400;"/>
  <path d="M315.4366,122.3983h0c7.883-2.4506,11.8615-.9806,15.3708.3175,1.0621.3935,2.1406.7887,3.2817,1.0648.2679.6057.6267,1.1431,1.0196,1.6448-1.4021.335-2.8992.7346-4.5807,1.2578-4.2799,1.3329-7.0315,3.9052-9.6909,6.3915-2.4677,2.3083-4.7975,4.4882-8.3086,5.5817-1.4364.4471-2.2863.4233-3.2735.3953-1.0803-.0303-2.3083-.0652-4.0495.4774-2.1015.6525-3.6003,1.4373-5.1839,2.2664-.4927.2572-1.0025.5191-1.5295.7782.4707-7.1433,3.5955-16.0223,16.9445-20.1754M378.2018,96.5016h0c4.0497-1.26,6.3832-1.8003,7.915-2.0185-1.8884,4.6995-2.9724,10.0668-3.3017,15.6634-5.1683,1.9077-7.3852,3.6991-9.5161,5.4386-2.3915,1.9561-4.6519,3.8008-11.8973,6.0563-2.9824.9277-5.3783,1.4463-7.5042,1.7593,1.1906-7.152,5.8749-21.1676,24.3042-26.8992ZM413.8882,94.4896h0c1.5266.2156,3.8411.7453,7.9067,2.0092,18.4325,5.7344,23.1169,19.7472,24.3059,26.9004-2.1255-.3136-4.5235-.8318-7.5026-1.7595-7.2481-2.2559-9.508-4.1006-11.8967-6.0546-2.1342-1.7374-4.3522-3.531-9.519-5.4362-.3245-5.5991-1.4109-10.9593-3.2943-15.6593ZM469.1886,122.7135h0c3.5095-1.2986,7.4834-2.7658,15.372-.3152,13.3452,4.1509,16.4819,13.0337,16.9527,20.1792-.5281-.2629-1.0383-.5248-1.5307-.7844-1.589-.8295-3.0872-1.6115-5.1893-2.2658-1.7413-.5424-2.9682-.5081-4.0523-.4779-.9833.0287-1.8344.0513-3.2696-.3958-3.5111-1.0929-5.8409-3.2707-8.3075-5.5807-2.6628-2.4874-5.4122-5.0603-9.6921-6.3898-1.675-.5231-3.1693-.9227-4.5708-1.255.3704-.4713.7027-.9772.9644-1.5388l3.323-1.1758ZM519.7673,126.5596c-.8279-.2572-1.6619-.335-2.4836-.3169.6228-.7605,1.1206-1.6425,1.428-2.6367,1.2909-4.1462-1.0273-8.5544-5.1744-9.8447-2.0664-.6417-4.1967-.3882-5.9782.5401.4013-.6047.7486-1.2461.9745-1.9698,1.2909-4.1471-1.0275-8.5572-5.1745-9.8497-3.9894-1.2379-8.1916.8774-9.6555,4.7286-.1352-.0441-.2602-.0914-.3858-.1406.9644-3.9981-1.293-8.1122-5.277-9.3502-4.1449-1.2904-8.5559,1.0247-9.8459,5.1757-.2028.6454-.2804,1.2918-.3074,1.9357l-.07.0083c.1311-3.4632-2.0224-6.7283-5.4936-7.8092-3.5718-1.1123-7.3275.4626-9.1237,3.5657-.7943-2.2749-2.5961-4.1703-5.0743-4.9442-1.4943-.4642-3.0172-.4454-4.4221-.0555.0932-.2229.2106-.4322.2828-.6676,1.293-4.1471-1.0252-8.5572-5.1722-9.8468-3.0061-.9359-6.132.043-8.1272,2.219,1.1012-4.0626-1.1779-8.3002-5.2319-9.5596-3.5142-1.0956-7.2005.4194-9.031,3.4289.1956-3.5175-1.9765-6.8539-5.4931-7.9498-3.57-1.1078-7.3241.4624-9.1243,3.5635-.0606-.9143-.1956-1.8342-.4785-2.7466-1.0973-3.5264-3.7176-6.1258-6.9006-7.4177,0-.6632-.0018-1.2232,0-1.6354h7.0583l-.0021-8.8504s-4.9727-.0032-7.0579,0c.0018-1.81,0-6.1335,0-6.1335l-8.8531.0027s.0021,4.3208,0,6.1307h-7.0616l.0015,8.8525h7.0622v1.6333c-4.2869,1.7351-7.0832,5.729-7.3807,10.1643-1.8029-3.1011-5.5565-4.6741-9.1232-3.5635-3.5183,1.0942-5.6922,4.4322-5.4936,7.9498-1.8316-3.0095-5.5185-4.5245-9.0339-3.431-4.0512,1.2616-6.3309,5.4991-5.2313,9.559-1.9946-2.1754-5.1215-3.1506-8.1243-2.2162-4.1495,1.2897-6.4661,5.6997-5.1757,9.8468.0733.2353.1901.4426.286.6676-1.4055-.3899-2.9284-.4068-4.4215.0577-2.4782.7718-4.2811,2.6672-5.0743,4.9448-1.8001-3.1058-5.5547-4.6792-9.1264-3.5685-3.4685,1.0788-5.6247,4.3439-5.4925,7.8092l-.0694-.0083c-.0288-.6421-.1081-1.2919-.3064-1.938-1.2927-4.1469-5.7004-6.4638-9.8481-5.1734-3.9816,1.2379-6.2393,5.3521-5.2737,9.347-.1274.0507-.2557.0997-.3897.1438-1.465-3.8512-5.6673-5.9665-9.654-4.7264-4.1487,1.2904-6.4653,5.7004-5.1749,9.8476.2271.7237.5721,1.3674.9701,1.9698-1.7761-.9283-3.9085-1.1818-5.9749-.5401-4.146,1.2903-6.4626,5.7003-5.1722,9.8468.3086.9938.8052,1.8741,1.428,2.6346-.8235-.0182-1.6551.0629-2.4831.3198-4.146,1.2897-6.4647,5.6975-5.1755,9.8468.9722,3.1197,3.7106,5.2008,6.7723,5.4925-.0043.0997-.0132.201-.0214.2998-.7027.0182-1.4089.0947-2.1156.3137-4.146,1.2903-6.4647,5.7003-5.1728,9.8473,1.0407,3.3517,4.1267,5.4689,7.4591,5.4942-4.2661,3.7226-7.9236,9.1559-6.7976,12.7748.5143,1.6513,1.3916,2.8094,2.6099,3.4466,2.1418,1.1172,4.5743.3455,7.3969-.5468l.8355-.2629c1.787-.5558,2.256-2.337,2.632-3.7646.1536-.5859,1.5559.2508,1.5559.2508.1659.5336.4519.9872.8235,1.3614-2.9538,2.6061-4.3346,6.5772-3.1622,10.344,1.6106,5.1791,7.3908,7.9818,12.9848,6.3679.022.0733.0171.1511.0408.222.21.6759.594,1.3093,1.1513,1.8239.3506.3264,6.8744,6.2087,16.9698,6.7029-2.4395.791-4.8796,1.6057-7.3212,2.4744-1.2837.4557-2.31,1.3823-2.8949,2.612-.5534,1.162-.6444,2.4656-.2641,3.6862.0222.0697.043.1364.0673.2034.4531,1.2771,1.3807,2.3072,2.6104,2.891,1.2275.5832,2.6083.6555,3.8887.1968.5131-.1812,1.023-.3506,1.5328-.5252l.6283,2.182-1.7846,4.5599,4.2367,3.9482,1.3378,4.6365c-1.0582.5015-1.9137,1.3244-2.4218,2.3966-.581,1.2297-.6489,2.6098-.1896,3.8918.4573,1.281,1.3868,2.3052,2.6164,2.8844,1.227.5832,2.6081.6504,3.8885.1917,24.8545-8.8954,48.7008-13.0375,75.0473-13.0359,26.3464,0,50.1927,4.1405,75.0449,13.0388,1.2838.4573,2.6639.3886,3.8947-.1946,1.2264-.581,2.1553-1.6055,2.6126-2.8844.456-1.2798.3896-2.6621-.1912-3.8918-.5094-1.0722-1.3636-1.8911-2.4175-2.3944l1.3388-4.6437,4.2303-3.941-1.7825-4.5528.6262-2.176c.5149.1815,1.0257.3302,1.5345.5116,1.2814.4585,2.6622.3873,3.8909-.1986,1.2264-.5838,2.1533-1.61,2.6092-2.891.4552-1.2798.387-2.6621-.1979-3.8896-.5847-1.2247-1.61-2.1545-2.8938-2.6105-2.4891-.8857-4.9749-1.6765-7.4569-2.4786,10.1533-.4575,16.7498-6.3716,17.1032-6.6951.6168-.5738,1.0181-1.2887,1.2077-2.0495,5.5907,1.6057,11.361-1.1949,12.9716-6.3694,1.1734-3.7683-.2073-7.7379-3.1623-10.344.3726-.3742.6555-.8251.8208-1.3598,0,0,1.4072-.8382,1.5571-.2523.3776,1.4276.8466,3.2089,2.6336,3.7646l.8373.2629c2.8181.895,5.2543,1.664,7.394.5468,1.2193-.6372,2.0967-1.7953,2.611-3.4466,1.126-3.6189-2.5348-9.0537-6.7994-12.7763,3.3363-.0237,6.4202-2.1393,7.4624-5.4953,1.2915-4.1443-1.0274-8.5543-5.1743-9.8446-.7045-.219-1.4129-.2982-2.1156-.3137-.0115-.0987-.0187-.1984-.0247-.3022,3.065-.2893,5.8034-2.3704,6.7771-5.4931,1.2876-4.1464-1.029-8.5542-5.1744-9.8468Z"/>
  <path d="M400,175.0636h0c-1.4277,0-2.0742.5254-4.2199,2.7808-1.804,1.8972-4.2021,4.404-8.1415,6.5409,4.0666-.1664,8.1824-.2547,12.3614-.2526,4.2,0,8.3321.0966,12.4164.2658-4.0087-2.1568-6.3976-4.6636-8.2033-6.5586-2.1369-2.2493-2.7801-2.7764-4.2132-2.7764M353.51,128.863h0l-4.5506,3.3629c.0916.2203.2079.4237.2812.6564.9011,2.9041.0115,5.9098-2.0092,7.9103,1.3284-.4662,2.934-.8526,4.2784-.6436,4.1222.6487,6.2018,4.201,6.558,8.1612,1.4628-1.1943,3.2513-1.8602,5.4153-1.519,2.0955.3314,3.8176,1.3614,4.9826,2.9842,2.422,3.3885,1.6718,8.1876,1.5787,8.7235l-.4404,1.4303.0436.2269c.168.8727,1.5382,8.6394-2.2974,12.6105-1.2203,1.2638-3.4757,2.6425-7.2899,2.0444-3.5811-.5644-5.2428-2.3812-6.0118-3.8103-.1443-.268-.2269-.5507-.3323-.8296-.4774.7502-1.0549,1.3785-1.7014,1.8823,1.4439.737,2.8297,1.7528,4.1943,2.7696,4.6327,3.4664,10.3976,7.7767,20.6209,4.6119,5.804-1.3201,8.8222-3.4504,11.0831-5.5946-2.7029.3825-4.583-.4624-5.7379-1.3526-4.0898-3.155-4.1574-10.2486-4.1134-11.8802l-.0136.0021-.6086-1.8474c-.1686-.5165-1.6061-5.1602.3004-8.8593.9144-1.7764,2.4653-3.0464,4.4893-3.6757,2.0901-.6505,3.9548-.2524,5.5775.7126-.0612-1.1188.0015-2.2339.2353-3.2668.2117-.9398.5573-1.782,1.0004-2.5305-4.3968-8.6452-6.4929-18.8785-6.3181-28.5869-9.6347,3.7877-7.1021,6.9791-20.6656,11.1972-3.3952,1.0566-6.0933,1.6162-8.4574,1.9326-.1063,1.147-.1063,1.8833-.1063,2.0393l.015,1.1381ZM451.5008,179.6721h0c-.7784.4718-1.9557,1.3493-2.6732,1.8844-2.256,1.6871-5.1746,3.8682-8.8828,5.4413,7.5477,1.1083,14.9893,2.5542,22.3724,4.3427-5.2187-3.3275-7.7877-7.2194-9.5383-9.8788-.393-.5964-.8846-1.3075-1.2781-1.7897ZM348.4998,179.677h0c-.3908.4757-.8857,1.1885-1.2838,1.7953-1.7284,2.6264-4.2573,6.4659-9.3716,9.7712,7.3107-1.7675,14.6664-3.2001,22.1353-4.2974-3.6818-1.5604-6.5712-3.7144-8.805-5.3872-.7171-.5336-1.8957-1.415-2.675-1.8819ZM298.5483,153.6244h0c-.5147.974-1.3244,1.5043-2.2752,1.7242,1.6485,1.3807,3.1506,3.6647,4.2755,7.286.1499.4757.7976.3654,1.1196-.1643,1.3427-2.2036,3.5094-4.1207,6.3551-5.0064,2.4175-.7517,4.5395-.6548,6.3093.2939,2.9042,1.5538,3.8881,4.8987,4.4773,6.8952l.7303,2.4358.1322.996.6228,1.1581c1.9359,3.5953,2.4049,6.4966,1.4315,8.8763-.812,1.9903-2.5983,3.4294-5.3151,4.2742-3.8224,1.1891-6.5993.9265-8.4401-.737-.2337.5426-.5293,1.0605-.8538,1.5665.2232.1364.4386.2917.6421.4753.3115.2877,7.7529,6.9774,18.7324,3.5634,7.7856-2.4224,10.8319-6.1561,13.0251-9.4031-3.4141,1.5878-5.9275.9281-7.4393.0814-4.5016-2.5302-5.5973-9.5315-5.7935-11.1565l-.0128.0045-.8713-1.7395c-.2421-.4885-2.3376-4.8763-.9878-8.8134.6465-1.8868,1.9987-3.3688,3.9089-4.2854,1.9732-.9466,3.8728-.823,5.6162-.1033-.7949-3.8984.1863-7.8939,3.9474-9.6973.0265-.0133.0592-.0183.0844-.0337-1.7308-.9421-3.1175-2.5272-3.7509-4.559-1.2141-3.9038.7889-8.0059,4.4862-9.5524-.5573-.1908-1.0803-.4537-1.5769-.7611-1.7578.367-3.6935.8541-5.9431,1.5536-7.658,2.3833-10.0755,9.5079-17.9993,11.9733-3.4339,1.0676-4.4215-.0304-7.323.873-2.9278.9096-4.6675,2.1393-7.4443,3.4141.0177,1.9253.1754,3.645.3043,4.9893.1847,1.8796.2689,2.7371-.1742,3.5783ZM465.7824,137.5562h0c-.6321,2.0333-2.0207,3.6153-3.7503,4.559.0249.0139.0568.0204.0817.0304,3.7541,1.8023,4.745,5.789,3.9575,9.6808,1.7692-.7215,3.668-.8064,5.607.1231,1.9122.9181,3.2626,2.4002,3.9097,4.2869,1.3502,3.9422-.7464,8.3234-.9911,8.8097l-.8923,1.3399c.1956,3.1417-2.6606,8.461-2.7003,8.5238-2.4761,3.8474-6.3084,4.9079-10.5276,2.9412,2.1937,3.2453,5.2412,6.9862,13.0344,9.4082,10.9672,3.4123,18.4205-3.2773,18.7378-3.57.2028-.188.4233-.3457.6549-.4863-.3263-.4981-.6416-1.0064-.8769-1.5482-1.8404,1.6674-4.6146,1.9276-8.4387.7385-2.7133-.8473-4.5026-2.284-5.3149-4.276-.9722-2.3779-.5054-5.2792,1.4315-8.8745l.6228-1.1602.1311-.9962.7315-2.4334c.5882-1.9986,1.5719-5.3414,4.4773-6.8952,1.7698-.9486,3.8909-1.044,6.3114-.2939,2.843.8857,5.0114,2.8027,6.352,5.0064.3229.5297.9706.6399,1.1182.1643,1.1299-3.6255,2.632-5.9092,4.2845-7.2911-.9551-.2181-1.7699-.7451-2.2848-1.7218-.4386-.84-.3549-1.6959-.1746-3.5756.1295-1.3443.2926-3.0624.3113-4.9893-2.7817-1.2771-4.5212-2.5067-7.4508-3.4162-2.9021-.904-3.8892.1946-7.3226-.8736-7.9214-2.4654-10.339-9.5911-17.9994-11.9733-2.2481-.6968-4.1811-1.1856-5.9379-1.5548-.497.308-1.0197.5742-1.5758.765,3.6935,1.5489,5.6964,5.6486,4.4834,9.5524ZM410.9542,141.1428c4.3962-8.6452,6.4962-18.8785,6.3199-28.5869,9.6345,3.7877,7.1036,6.9773,20.6648,11.1955,3.3976,1.0567,6.0957,1.6155,8.4579,1.9313.1081,1.1476.1081,1.8863.1064,2.0422l-.0154,1.1381,4.5537,3.3629c-.0931.2203-.207.4255-.2794.6564-.9038,2.9024-.0132,5.9098,2.0074,7.9103-1.3162-.4612-2.9339-.8553-4.282-.6409-2.702.4206-4.7831,2.1816-5.8503,4.954-.3836.9904-.608,2.0835-.7122,3.2007-1.4605-1.1905-3.2468-1.8541-5.4081-1.5152-2.0961.3284-3.8187,1.3614-4.9811,2.9842-2.4245,3.3864-1.6722,8.1876-1.5797,8.7235l.3362,1.9164h.0155c-.1997,1.1282-.7844,5.2031.3323,8.7969.408,1.3089,1.044,2.5518,2.0108,3.5517,1.2191,1.2644,3.4745,2.6452,7.2899,2.045,3.2011-.5038,5.4098-2.1487,6.3551-4.6163.4789.7387,1.0523,1.357,1.6883,1.8592-1.443.734-2.8294,1.7516-4.1906,2.7712-4.6333,3.4649-10.3987,7.7799-20.3028,4.6978-6.0597-1.3874-9.136-3.5348-11.4007-5.6805,2.6997.3798,4.5798-.4651,5.7323-1.3526,4.373-3.3776,4.1432-11.2556,4.1053-12.1436l-.0111-.2315.6416-1.3502c.1731-.5165,1.6104-5.1581-.2961-8.8593-.9133-1.7741-2.4666-3.0446-4.4927-3.6757-2.0907-.6505-3.9552-.2548-5.5775.7126.0613-1.1188-.0015-2.2339-.2352-3.2668-.2127-.942-.5584-1.782-1.0026-2.5305Z" style="fill: #e2001a;"/>
  <path d="M406.078,87.7361h0c1.2969,1.2629,2.1968,2.7383,2.7955,4.3699,1.3289.05,2.6678.0776,4.0177.05,1.6292.0949,4.1835.5573,9.563,2.2325,26.6749,8.2969,26.2633,33.3684,26.2633,33.3684l3.4348,2.5388c.5017-.6218,1.1013-1.1398,1.7527-1.5769l-.2506-3.3363c-4.1225-3.0397-4.2932-7.6146-1.707-13.1314-3.3612-1.6551-5.3338-4.3818-5.4651-8.5075-4.8917-.8228-8.7726-4.1591-11.8261-9.4704-4.9352.8016-8.9931-1.2247-12.4793-5.0433-5.2389,1.4931-9.6446.2526-13.074-4.0643h-.0039c-.2502.3009-.5468.5468-.8256.819.0078.0021.0093.0072.015.0088-.6891.7027-1.4066,1.329-2.2102,1.7428M391.7118,85.9933h0c.0039-.0015.0084-.0049.015-.0088-.2788-.2723-.5754-.5182-.8256-.819h-.0039c-3.4294,4.3169-7.8357,5.5574-13.0729,4.0667-3.4885,3.8163-7.548,5.8425-12.4816,5.0409-3.053,5.314-6.9339,8.6497-11.8261,9.4728-.1289,4.1255-2.1018,6.8522-5.4639,8.5052,2.5861,5.5168,2.4154,10.0932-1.7071,13.1336l-.2508,3.3363c.6528.4365,1.2507.9551,1.7518,1.5781l3.4381-2.5421s-.4149-25.0715,26.2605-33.3684c5.3801-1.6752,7.9322-2.1375,9.5615-2.2325,1.3519.0277,2.6898,0,4.0191-.05.5981-1.6295,1.4992-3.107,2.7961-4.3666-.804-.4172-1.5238-1.0434-2.2102-1.7461ZM409.2736,62.7709h0v-4.4253h-7.0618v-6.1303h-4.4236v6.1303h-7.064l.0021,4.4253,7.0618.0018v13.9598c-2.9264.5897-5.1691,1.4886-7.2006,2.7267.0643.324.098.6475.1968.9704.3605,1.1603.9446,2.1866,1.653,3.0872,2.0943-1.3459,4.2655-2.1958,7.5738-2.6858,3.3075.4928,5.4727,1.3438,7.5649,2.6947.9289-1.1867,1.5384-2.5845,1.8383-4.0644-2.0317-1.2402-4.2739-2.1391-7.2024-2.7288v-13.9616h7.0618ZM466.5971,121.2838h0c4.1868-1.3577,8.5808-4.1207,18.6206-.9987,24.5616,7.6408,17.3726,30.7481,18.1907,32.3079.8206,1.5583,4.3752-.0881,4.3752-.0881-1.1377-3.6306,1.0214-6.251,3.452-8.7749-2.5976-2.3551-4.6464-6.318-3.2089-13.888-5.0184-.603-7.189-3.9173-6.671-9.7488-5.2483.1748-8.2639-2.0619-10.9507-7.1741-5.195,3.4138-9.794,3.2194-12.4563-1.8476-4.9545,2.854-9.3425,3.9955-12.4814,1.4754l-1.7699,1.917c2.0207,1.631,3.1407,4.1829,2.8998,6.8198ZM451.9449,112.2537h0c-3.3627-1.6578-5.3314-4.3845-5.4642-8.5103-4.8919-.8207-8.771-4.1591-11.8261-9.4704-4.9337.8016-8.9931-1.2247-12.4799-5.0409-5.2368,1.4907-9.6441.2529-13.0719-4.0667l-.0303.0015c-.2409.2905-.5243.5495-.7953.8175.463.3137.9304.5948,1.3934.959l.2452.1946.1841.255c1.0422,1.4586,1.9462,3.068,2.7609,4.7579,1.6254.0932,4.1796.5507,9.5933,2.2373,26.6733,8.2969,26.2609,33.3684,26.2609,33.3684l3.4372,2.5388c.5017-.6218,1.0975-1.1383,1.7506-1.5748l-.2485-3.3385c-4.124-3.0382-4.2955-7.6125-1.7094-13.1287ZM336.2993,114.4658h0l-1.7677-1.9164c-3.1368,2.5193-7.5258,1.3762-12.4802-1.4778-2.6624,5.067-7.2602,5.2638-12.4596,1.8497-2.6859,5.11-5.7019,7.3467-10.9486,7.1719.5182,5.8331-1.6514,9.1458-6.6699,9.7515,1.4364,7.5672-.6123,11.5317-3.2089,13.8876,2.4284,2.5232,4.5874,5.1419,3.4532,8.7747,0,0,3.5517,1.6442,4.3707.0859.8186-1.5576-6.3694-24.6653,18.1913-32.3064,10.0392-3.1235,14.4344-.3576,18.6206.9988-.2382-2.6386.8812-5.1905,2.8992-6.8197ZM411.2144,94.3818h0c-.9018.054-1.7395.0688-2.8595-.0799.0301,3.1803-1.749,6.1681-4.6636,7.5991,2.5426,1.0654,4.6333,3.161,5.5162,5.9941,1.4694,4.7263-.9211,9.7041-5.3494,11.6491,1.9221.996,3.4615,2.7241,4.1527,4.9475,1.3745,4.4214-1.1013,9.1319-5.5179,10.5066-4.4181,1.3757-9.1315-1.1002-10.5072-5.519-1.2258-3.9394.6201-8.0968,4.1664-9.9264-2.4726-1.0852-4.4975-3.1549-5.3597-5.9296-1.4887-4.782.9773-9.8209,5.5057-11.7158-1.9919-.984-3.6007-2.7316-4.3101-5.0158-.2706-.8622-.3506-1.7328-.3391-2.5927-1.126.1514-1.9606.1343-2.8656.0826-.0754-.0051-.1511-.0106-.2271-.0132-5.3735,12.4152-4.9094,30.6126,2.036,44.9169.7232-.6054,1.5665-1.0723,2.5218-1.3687,2.4136-.7517,6.0696.4112,6.7778.6531l.1748.0822c1.826-.8367,5.2554-1.223,6.8203-.7353.9551.2965,1.7963.7633,2.5178,1.3703,6.946-14.3043,7.4149-32.4981,2.0409-44.9158-.0754.0017-.1554.0039-.2314.0106ZM511.1673,165.3294h0c2.5955.8074,2.0206,5.3762,3.4636,5.8275,4.1394,1.2854,6.9366,2.4721,8.072-1.1839,1.1696-3.7536-6.6236-12.2973-11.5301-13.8246-4.4277-1.3791-7.6069.6939-9.6081,7.1432-.839,2.6925.566,5.9813,2.2962,6.5173,1.7311.5379,3.4802.3482,3.8125-.7133.8379-2.6927.8962-4.5743,3.494-3.7662ZM496.6656,176.6494h0c-.8262,2.6584.8318,5.5389,3.7013,6.4285,2.8688.895,5.8689-.5357,6.6951-3.193.8258-2.6585-.8301-5.536-3.7011-6.4286-2.8706-.8928-5.8673.5381-6.6953,3.1931ZM481.6531,170.2883h0c-3.5015,6.5111-.8715,8.9132,2.5939,9.9896,5.4843,1.707,6.9117-.1709,7.6604-2.5756,1.3801-4.4272-3.3898-5.3825-3.3898-5.3825-5.2693,4.3748-2.5294-2.0508-6.8645-2.0316ZM489.0356,169.6291h0s6.7868,4.6458,8.4634-.7435c.9592-3.079-1.6574-7.9025-6.1786-9.3112-6.2564-1.9446-7.3864,3.722-8.1917,6.3216,2.6717,1.2484,7.413-2.1266,5.907,3.7332ZM451.3206,149.3842h0c-.1081-.0646-.3986-.0904-.532-.1053-.3169-.6008-2.0768-.6266-1.0119-1.7803.782-.8412,2.2241-.1042,3.0514-.6858.6971-.4861,1.0731-2.2773,1.2666-3.065,0,0-3.3513-1.7142-5.2617-1.4111-6.9669,1.0927-5.2202,13.9775-1.5307,13.3982,2.8679-.4509,4.026-2.8738,4.026-2.8738.3058-.6349.1343-2.7692-.0078-3.4768ZM432.5251,160.577h0s-2.6257,13.5724,7.0718,12.0466c7.926-1.244,4.0919-9.6026,4.0919-9.6026-.803-.5783-2.5536-1.8817-3.6211-1.4992-1.0749.3863-.7916,2.5844-.8467,2.6015-1.7226.5689-1.2155-1.4601-1.7986-2.305-.8466-1.2215-3.393-.6146-4.8973-1.2413ZM444.8187,158.646h0s-1.9501-10.6139-7.9578-9.6669c-6.1491.9634-4.7227,9.139-4.7227,9.139,1.1845-.188,3.289.2166,3.7994-.8895.3912-.8583-.6819-2.2064.8472-2.503,2.3639-.4526,1.2985,2.2235,1.988,3.3754.9437,1.5731,4.5385.9359,6.0459.545ZM455.7449,153.5075h0s.4138,2.6556,3.0326,3.9107c3.3666,1.6121,8.7383-10.2272,2.3794-13.278-1.7419-.8344-5.4423-.1571-5.4423-.1571-.042.8126-.1974,2.6386.3302,3.3011.6288.7976,2.2217.5011,2.7249,1.5322.6912,1.4111-1.0025.9332-1.4811,1.4195-.125-.0288-.4138-.0862-.5351-.0514-.3423.6267-1.1167,2.6276-1.0086,3.323ZM446.9667,162.1181h0c-.6592,4.5014,1.105,8.4881,3.9491,8.9065,2.843.4215,5.6856-2.891,6.3481-7.3942.6592-4.5004-1.1052-8.4832-3.9515-8.902-2.8424-.4218-5.6815,2.8914-6.3457,7.3897ZM466.4923,166.0811h0c-.8007.6417-.8978,2.7333-2.3809,1.6917-.0492-.032.8542-2.0571-.0685-2.7351-.9094-.6702-2.9619.0688-3.8963.3947,0,0-6.0708,6.9063,1.1618,10.3748,8.8527,4.2474,10.235-9.5056,10.235-9.5056-1.6254.162-3.887-1.147-5.0511-.2205ZM466.2648,162.1328h0c.9948-.9043.7385-3.7766,2.8749-2.6571,1.3786.7169-.0382,1.7003.0964,2.6358.1715,1.2053,2.3018,1.4258,3.3843,1.945,0,0,3.7106-7.4204-1.8988-10.1103-5.4882-2.6336-10.4002,6.9708-10.4002,6.9708,1.3309.8125,4.5912,2.4524,5.9434,1.2159ZM292.3279,169.0977h0c.3302,1.0593,2.0802,1.2512,3.8107.7127,1.7308-.5375,3.1358-3.8242,2.2995-6.5188-2.0073-6.4477-5.1837-8.5201-9.6108-7.1417-4.9078,1.5257-12.6998,10.0719-11.5302,13.8247,1.1365,3.6565,3.9326,2.4677,8.072,1.1823,1.4442-.4492.867-5.0169,3.4648-5.8248,2.5966-.8093,2.655,1.0707,3.494,3.7656ZM296.6381,173.4563h0c-2.8696.8926-4.5269,3.7701-3.6991,6.4286.8268,2.6572,3.8241,4.0879,6.6941,3.1957,2.8694-.8924,4.5274-3.7713,3.7013-6.4284-.8279-2.6578-3.8247-4.0887-6.6963-3.1959ZM311.4824,172.3216h0s-4.7682.9535-3.3898,5.3828c.7474,2.4048,2.1784,4.2826,7.6621,2.5756,3.4635-1.0786,6.0954-3.4806,2.5933-9.989-4.3373-.0243-1.5974,6.4069-6.8656,2.0306ZM316.8741,165.8959h0c-.8081-2.5996-1.9386-8.2662-8.1933-6.3183-4.523,1.4054-7.14,6.2289-6.1799,9.3111,1.6767,5.3889,8.4634.7425,8.4634.7425-1.5081-5.8619,3.2371-2.4848,5.9098-3.7353ZM348.6728,152.8637h0s1.1554,2.4202,4.0254,2.8711c3.689.5777,5.4367-12.3055-1.5324-13.3982-1.9104-.3031-5.2588,1.4126-5.2588,1.4126.1917.7889.5678,2.5774,1.2654,3.0658.828.582,2.2692-.1577,3.0487.6856,1.0654,1.1515-.693,1.18-1.0109,1.7803-.1313.0127-.4239.0386-.5291.1057-.145.7018-.3154,2.8393-.0084,3.477ZM362.5776,161.8182h0c-.5831.8449-.076,2.8755-1.7986,2.305-.0529-.0171.2298-2.2152-.8466-2.5993-1.0675-.3846-2.8199.916-3.6212,1.4998,0,0-3.8313,8.3559,4.0919,9.5999,9.7002,1.5259,7.0721-12.0466,7.0721-12.0466-1.5073.6266-4.0511.0198-4.8977,1.2413ZM361.2272,158.1011h0c.6895-1.1519-.3759-3.828,1.9853-3.3726,1.5324.2939.4587,1.6419.8516,2.5002.5098,1.1076,2.612.7015,3.8004.8895,0,0,1.4265-8.1756-4.7253-9.139-6.0068-.9448-7.9579,9.6669-7.9579,9.6669,1.5073.3932,5.1011,1.0281,6.0459-.545ZM343.2465,150.1866h0c-.1184-.0369-.408.0204-.5351.0493-.4774-.4863-2.1724-.0084-1.4811-1.4172.506-1.0335,2.0946-.7369,2.725-1.5318.5275-.6685.3737-2.4912.3313-3.3038,0,0-3.7001-.6773-5.4462.1594-6.3585,3.0485-.9844,14.8903,2.3812,13.2757,2.6174-1.2552,3.0341-3.9107,3.0341-3.9107.1087-.6955-.6669-2.6941-1.0091-3.3209ZM346.6885,154.7306h0c-2.8472.4167-4.6134,4.4018-3.9513,8.9026.6636,4.5032,3.5039,7.813,6.3457,7.3915,2.8453-.4167,4.6095-4.4035,3.9498-8.9065-.6631-4.4983-3.5028-7.8091-6.3442-7.3876ZM328.4566,166.3016h0s1.3823,13.7531,10.2347,9.5073c7.2344-3.4702,1.1603-10.3732,1.1603-10.3732-.9335-.3292-2.9878-1.0682-3.8957-.3981-.9226.678-.0171,2.703-.0667,2.7384-1.4847,1.0383-1.5796-1.0533-2.3815-1.6923-1.1641-.9293-3.4267.382-5.0511.2178ZM339.6786,160.917h0s-4.9133-9.6044-10.3991-6.9723c-5.6105,2.6914-1.8978,10.1142-1.8978,10.1142,1.0831-.5216,3.2107-.7388,3.3822-1.9447.1334-.9359-1.2843-1.9215.0976-2.6401,2.134-1.1156,1.8817,1.756,2.8737,2.6588,1.3522,1.2365,4.6152-.4034,5.9434-1.2159ZM402.2316,150.082h0s.7931,2.5656,3.5673,3.4294c3.5661,1.1089,7.1643-11.3874.431-13.4808-1.8497-.5765-5.4132.6327-5.4132.6327.0761.8103.1908,2.6359.808,3.2179.7369.6978,2.2693.1748,2.9192,1.1215.8884,1.297-.8589,1.0672-1.2594,1.6157-.133-.0057-.4272-.0204-.5407.0286-.2442.6741-.7222,2.7608-.5122,3.4351ZM414.6895,160.9644h0c-.6988.7502-.4939,2.8331-2.1099,2.0184-.0529-.0265.5429-2.1568-.4651-2.694-.9966-.5348-2.9202.4966-3.7977.9568,0,0-5.0052,7.711,2.6528,10.0926,9.3767,2.9175,8.7479-10.8919,8.7479-10.8919-1.582.4013-4.0121-.5688-5.0279.5182ZM413.8919,157.0896h0c.8505-1.0395.1841-3.8438,2.4572-3.0503,1.4717.5138.2127,1.6923.4785,2.5996.344,1.169,2.4837,1.0737,3.6307,1.4319,0,0,2.5976-7.8823-3.348-9.7315-5.8067-1.8068-9.2758,8.412-9.2758,8.412,1.4298.6075,4.8989,1.7582,6.0573.3384ZM397.2535,146.6469h0c-.1142-.049-.4086-.0319-.5374-.0253-.4023-.554-2.1485-.3253-1.26-1.619.6504-.9467,2.1799-.4253,2.919-1.1215.618-.582.7309-2.4092.806-3.2179,0,0-3.5601-1.2092-5.4098-.6327-6.7332,2.0934-3.1379,14.5898.4269,13.479,2.7742-.862,3.57-3.4276,3.57-3.4276.21-.6742-.2705-2.761-.5147-3.4351ZM400,151.6428h0c-2.8755-.0015-5.2026,3.686-5.2026,8.2365.0015,4.5504,2.3337,8.2396,5.2026,8.2358,2.8782,0,5.2026-3.689,5.2026-8.2397-.0016-4.5484-2.3299-8.2341-5.2026-8.2326ZM380.2804,160.448h0s-.6267,13.8099,8.7488,10.893c7.6588-2.3844,2.6523-10.0954,2.6523-10.0954-.8758-.4602-2.801-1.4916-3.7987-.9601-1.0076.5384-.4083,2.6709-.4624,2.6973-1.619.8169-1.4111-1.2682-2.1099-2.0184-1.0163-1.087-3.4482-.1169-5.0301-.5165ZM392.1654,156.7512h0s-3.4679-10.2188-9.2791-8.4105c-5.9422,1.8476-3.3447,9.7299-3.3447,9.7299,1.147-.3559,3.2867-.2629,3.628-1.4319.2679-.9073-.9893-2.0858.4795-2.5978,2.2737-.7925,1.6085,2.009,2.4572,3.0485,1.1603,1.4199,4.6267.2692,6.0591-.3384ZM303.4489,185.4467h0c-.7451.8055-.6955,2.0583.1087,2.8045.4167.3864,10.3715,9.4082,24.7755,4.927,10.7217-3.3368,14.5203-9.1044,17.0337-12.9241.9893-1.4998,1.8447-2.7988,2.6203-3.038.7568-.2356,2.7505,1.2549,4.5119,2.5705,5.1497,3.8512,12.9302,9.6705,25.8538,5.6502,9.1187-2.0675,12.9953-6.1445,15.8284-9.1219,2.2257-2.3404,3.4036-3.4631,5.8188-3.4631,2.4152.0015,3.5925,1.1227,5.816,3.4652,2.8348,2.9753,6.7145,7.0523,15.9849,9.16,12.7713,3.98,20.553-1.8393,25.7033-5.692,1.7599-1.3158,3.7535-2.8094,4.5113-2.574.7727.2425,1.6256,1.5412,2.6188,3.0431,2.5116,3.8158,6.3114,9.5846,17.0347,12.9209,14.4047,4.4793,24.3585-4.539,24.7746-4.9238.807-.7463.8527-2.0014.1103-2.8094-.7447-.8057-2.002-.8571-2.8122-.1186-.3516.322-8.7405,7.8262-20.8875,4.0491-9.3658-2.9126-12.5615-7.7663-14.8952-11.3097-1.4087-2.1409-2.6279-3.9885-4.7605-4.6537-2.6979-.8367-5.1932,1.0279-8.0814,3.187-4.7683,3.567-11.3021,8.4528-22.2832,5.0366-8.2489-1.8796-11.5091-5.3074-14.1295-8.0644-2.2995-2.4154-4.474-4.6999-8.7022-4.7016-4.2325.0038-6.4041,2.2862-8.7053,4.7016-2.6215,2.7553-5.8818,6.1847-13.9786,8.0251-11.1304,3.4555-17.6641-1.4303-22.4335-4.9952-2.8888-2.1589-5.3851-4.0258-8.0815-3.1876-2.1352.6637-3.3513,2.5128-4.7621,4.6543-2.3337,3.5441-5.5296,8.3949-14.892,11.3076-12.1508,3.7822-20.5392-3.7256-20.8886-4.0473-.8091-.7388-2.0708-.6874-2.8117.1216ZM312.4404,201.1362h0c-1.4976.5319-2.2797,2.1784-1.7479,3.6733.5309,1.4974,2.1778,2.2796,3.6725,1.7477,27.756-9.8683,54.9645-14.4642,85.6332-14.4597,30.687.0038,57.8963,4.598,85.635,14.4619,1.4964.5318,3.1407-.2474,3.6725-1.7478.5314-1.4955-.2485-3.1401-1.7449-3.6716-28.3771-10.0908-56.1992-14.792-87.5586-14.7952-31.3484-.0033-59.1709,4.696-87.5617,14.7914ZM453.8273,204.7641h0l-14.0558-6.316-13.0359,5.3414,13.0266,6.4803,14.0651-5.5057ZM412.9825,202.8669h0l-13.0234-6.1218-.8967.4536-12.0505,5.6683,12.992,4.9066,12.9786-4.9066ZM373.2621,203.7868h0l-13.0375-5.3387-14.0564,6.3139,14.0645,5.5057,13.0294-6.4809ZM477.7779,219.4961h0l-.9172,3.1874c-25.4051-8.9065-49.8836-13.0927-76.8624-13.09-26.9753-.0027-51.4537,4.1835-76.8577,13.0885l-.9183-3.1902,11.9297-10.5833-15.0284-.1577-.3891-1.357c26.2621-8.9132,52.1969-13.0862,81.2656-13.0841,29.0792.0045,55.014,4.2199,81.2547,13.1249l-.3782,1.3179-15.0314.1559,11.9327,10.5876ZM399.9982,211.8061c27.2924-.0023,51.9926,4.2893,77.7322,13.5028,1.492.5336,2.2725,2.1809,1.7374,3.6779-.5335,1.4926-2.1799,2.2731-3.6787,1.7395-25.0952-8.9846-49.1785-13.1676-75.789-13.1676-26.6106-.0027-50.69,4.1803-75.7924,13.1643-1.4955.5348-3.1419-.2436-3.677-1.7389-.5363-1.4976.2407-3.1416,1.7389-3.6775,25.7414-9.2139,50.4418-13.5028,77.7287-13.5005Z" style="fill: #f9d400;"/>
  <polygon points="360.1249 207.8495 351.879 204.6213 360.2653 200.8551 367.9019 203.9814 360.1249 207.8495" style="fill: #002b6e;"/>
  <polygon points="439.8703 207.8519 448.1192 204.6235 439.7297 200.8551 432.0964 203.9835 439.8703 207.8519" style="fill: #002b6e;"/>
  <polygon points="321.3557 217.3028 318.0922 214.2649 319.3825 210.9655 328.3911 211.0602 321.3557 217.3028" style="fill: #e2001a;"/>
  <polygon points="478.6415 217.3052 481.9055 214.2649 480.6125 210.9676 471.6046 211.0602 478.6415 217.3052" style="fill: #e2001a;"/>
  <polygon points="399.9955 205.4095 407.3103 202.6436 399.9982 199.2061 400 199.2061 392.6857 202.6436 400 205.4079 399.9955 205.4095" style="fill: #e2001a;"/>
  <path d="M405.8992,125.1487c1.0125,3.2612-.8069,6.7249-4.0633,7.7379-3.2597,1.013-6.7215-.8057-7.7364-4.0666-1.0142-3.2564.8052-6.72,4.066-7.7336,3.2587-1.0132,6.72.806,7.7336,4.0623" style="fill: #fff;"/>
  <path d="M407.0937,108.5521c1.2191,3.9188-.9701,8.083-4.8874,9.3022-3.9173,1.2182-8.0815-.9683-9.3001-4.8879-1.218-3.9171.9685-8.083,4.8856-9.3022,3.9167-1.2192,8.0831.9701,9.3019,4.8879" style="fill: #fff;"/>
  <path d="M405.8992,92.5644c1.0142,3.2582-.8046,6.7217-4.0648,7.7348-3.2581,1.0141-6.72-.8048-7.7348-4.0632-1.0142-3.2587.8052-6.7233,4.0645-7.7366,3.2602-1.0134,6.7215.8065,7.7352,4.065" style="fill: #fff;"/>
  <path d="M285.5553,132.4922c.6465,2.0778-.5147,4.288-2.5933,4.9346-2.0763.646-4.2865-.5164-4.933-2.5927-.646-2.079.5149-4.2893,2.5927-4.9353,2.0765-.6464,4.2877.5165,4.9337,2.5934" style="fill: #fff;"/>
  <path d="M284.5137,148.0728c.6465,2.0787-.5164,4.2872-2.5927,4.9354-2.0786.6466-4.2898-.5165-4.9354-2.5927-.6459-2.0787.5164-4.2899,2.5927-4.9354,2.0786-.6466,4.2865.5164,4.9354,2.5927" style="fill: #fff;"/>
  <path d="M291.3809,119.0924c.6453,2.0784-.5149,4.2898-2.5927,4.9352-2.0765.6454-4.2867-.5148-4.9333-2.5927-.6459-2.0763.5143-4.2866,2.5929-4.9332,2.0763-.6459,4.2865.5144,4.9331,2.5907" style="fill: #fff;"/>
  <path d="M303.0769,107.3444c.6465,2.078-.5137,4.2865-2.5927,4.9348-2.0763.646-4.2865-.5166-4.933-2.5929-.6462-2.0784.5141-4.2899,2.5927-4.9352,2.0775-.6466,4.2875.5136,4.9331,2.5933" style="fill: #fff;"/>
  <path d="M317.8684,102.7431c.6455,2.0774-.5165,4.2877-2.5933,4.933-2.079.6466-4.2893-.5135-4.9346-2.5927-.6465-2.0763.5153-4.2866,2.5927-4.932,2.0784-.6464,4.2865.5132,4.9352,2.5916" style="fill: #fff;"/>
  <path d="M333.2782,102.0046c.6472,2.0763-.5131,4.2878-2.5927,4.933-2.0778.6454-4.2865-.5142-4.9331-2.5927-.6477-2.0763.5149-4.2866,2.5906-4.933,2.0796-.646,4.2899.5141,4.9352,2.5927" style="fill: #fff;"/>
  <path d="M346.4902,132.3636c.6454,2.0763-.517,4.2877-2.5927,4.933-2.0786.6466-4.2898-.5141-4.9353-2.5927-.6466-2.0763.5131-4.2866,2.5927-4.9332,2.0781-.6453,4.2868.5144,4.9354,2.5928" style="fill: #fff;"/>
  <path d="M346.6479,117.9751c.6465,2.0789-.5149,4.2892-2.5933,4.9352-2.0765.6464-4.2865-.5171-4.933-2.5934-.6489-2.0778.5147-4.2865,2.591-4.9346,2.0786-.6461,4.2893.5165,4.9354,2.5928" style="fill: #fff;"/>
  <path d="M347.3456,100.6695c.6465,2.0764-.5138,4.2865-2.5933,4.933-2.0763.6462-4.2865-.5141-4.933-2.5936-.6454-2.0763.5149-4.2866,2.5927-4.9322,2.0774-.6464,4.2877.5132,4.9336,2.5928" style="fill: #fff;"/>
  <path d="M357.8281,90.6c.646,2.0791-.5143,4.2892-2.5939,4.9354-2.0763.6464-4.2865-.515-4.9321-2.5934-.6466-2.0763.5137-4.2865,2.5927-4.933,2.0765-.6488,4.2868.5141,4.9333,2.591" style="fill: #fff;"/>
  <path d="M370.5658,83.5966c.6456,2.0763-.5143,4.2866-2.5927,4.9332-2.0769.6461-4.2871-.5141-4.9336-2.5904-.6466-2.0787.5149-4.29,2.5933-4.9354,2.0763-.6466,4.2865.5138,4.9331,2.5927" style="fill: #fff;"/>
  <path d="M385.6284,78.4759c.6465,2.0789-.5141,4.2892-2.5927,4.9352-2.0763.646-4.2865-.5165-4.933-2.5934-.646-2.078.5143-4.2886,2.5927-4.9352,2.0762-.6464,4.2877.5165,4.933,2.5934" style="fill: #fff;"/>
  <path d="M514.4446,132.4922c-.6456,2.0778.5147,4.2865,2.5921,4.9318,2.079.6487,4.2877-.5136,4.937-2.5927.6454-2.0763-.5164-4.2866-2.5954-4.9326-2.0775-.6464-4.2862.5138-4.9337,2.5934" style="fill: #fff;"/>
  <path d="M515.489,148.0728c-.6475,2.0787.5126,4.2872,2.5923,4.9336,2.0772.6456,4.2875-.5147,4.9331-2.5909.6475-2.0787-.5149-4.2899-2.5939-4.9354-2.0753-.6466-4.2838.5148-4.9315,2.5927" style="fill: #fff;"/>
  <path d="M508.6191,119.0924c-.6453,2.0784.5165,4.2898,2.5956,4.9352,2.0757.6454,4.286-.5148,4.9298-2.5927.6492-2.0787-.5128-4.2866-2.59-4.9332-2.0796-.6488-4.2877.5144-4.9354,2.5907" style="fill: #fff;"/>
  <path d="M496.9242,107.3444c-.6477,2.0763.5141,4.2892,2.5915,4.9348,2.0759.6436,4.2893-.5166,4.9354-2.5945.6454-2.0769-.5149-4.2884-2.5939-4.9336-2.0775-.6466-4.286.5164-4.9331,2.5933" style="fill: #fff;"/>
  <path d="M482.1338,102.7431c-.6477,2.0774.5144,4.2877,2.5939,4.933,2.0751.6488,4.2853-.5165,4.933-2.5927.6454-2.0763-.5149-4.2887-2.5923-4.9353-2.0768-.6431-4.2875.5165-4.9346,2.5949" style="fill: #fff;"/>
  <path d="M466.7205,102.0024c-.6438,2.0769.5164,4.2899,2.5939,4.9352,2.079.6454,4.2893-.5142,4.9346-2.5927.6444-2.0787-.5164-4.2866-2.5933-4.933-2.0757-.646-4.2875.5141-4.9352,2.5905" style="fill: #fff;"/>
  <path d="M453.5119,132.3621c-.6475,2.0778.5164,4.2892,2.5939,4.9346,2.0753.6466,4.2877-.5141,4.9353-2.5905.6432-2.08-.517-4.2887-2.5962-4.9353-2.0772-.6486-4.2875.5144-4.933,2.5912" style="fill: #fff;"/>
  <path d="M453.3521,117.9751c-.6454,2.0789.5164,4.2865,2.5923,4.933,2.079.6486,4.2875-.515,4.9352-2.5912.6477-2.0762-.5125-4.288-2.5921-4.9346-2.0774-.6461-4.2877.5141-4.9353,2.5928" style="fill: #fff;"/>
  <path d="M452.6539,100.6668c-.646,2.0791.5143,4.2892,2.5939,4.9358,2.079.6462,4.2875-.5141,4.933-2.5936.6454-2.0763-.5149-4.2866-2.5923-4.9322-2.0751-.6464-4.2875.5132-4.9346,2.5901" style="fill: #fff;"/>
  <path d="M442.1719,90.6c-.6459,2.0791.5143,4.2892,2.5956,4.933,2.0751.6455,4.2838-.5147,4.9313-2.591.6477-2.0763-.5147-4.2888-2.5915-4.9354-2.0757-.6464-4.2899.5165-4.9354,2.5934" style="fill: #fff;"/>
  <path d="M429.4342,83.5966c-.6456,2.0763.5141,4.2899,2.5939,4.9354,2.0772.6438,4.2859-.5164,4.9313-2.595.6477-2.0763-.5126-4.2877-2.59-4.933-2.0796-.6487-4.2899.5165-4.9352,2.5927" style="fill: #fff;"/>
  <path d="M414.3743,78.4774c-.6477,2.0774.5126,4.2849,2.59,4.9315,2.0772.6481,4.2899-.5144,4.9352-2.5912.6454-2.0762-.5164-4.2886-2.5939-4.9352-2.0774-.6464-4.2875.5147-4.9313,2.5949" style="fill: #fff;"/>
  <path d="M400.022,83.0892h0c-2.5606.4078-4.3046,1.0462-5.951,2.0267,2.4071,1.8954,5.6502,2.6406,8.7963,1.6618,1.1603-.361,2.1815-.9397,3.0816-1.6514-1.644-.9869-3.3781-1.6241-5.9269-2.037M404.4277,69.0285h0v5.9362c1.9676.5218,3.6515,1.2053,5.1843,2.0438-.0341-.7667-.1559-1.5406-.3969-2.3145-.7998-2.5647-2.575-4.5307-4.7874-5.6655ZM390.4496,76.9804c.1941-3.3436,2.0934-6.407,5.1254-7.98v5.9644c-1.9428.518-3.609,1.1906-5.1254,2.0157Z" style="fill: #fff;"/>
</svg>