<?xml version="1.0" encoding="utf-8"?>
<!-- Generator: Adobe Illustrator 28.4.0, SVG Export Plug-In . SVG Version: 6.00 Build 0)  -->
<svg version="1.1" id="Capa_2_00000085967218542448062160000012391426371985853593_"
	 xmlns="http://www.w3.org/2000/svg" xmlns:xlink="http://www.w3.org/1999/xlink" x="0px" y="0px" viewBox="0 0 800 800"
	 style="enable-background:new 0 0 800 800;" xml:space="preserve">
<style type="text/css">
	.st0{fill:#E3AD41;}
	.st1{fill:#012348;}
	.st2{fill:#FFFFFF;}
	.st3{fill:#04C6F9;}
	.st4{clip-path:url(#SVGID_00000056405824749565832590000005682602711116840074_);}
	.st5{fill:#DEDEDE;}
	.st6{fill:#DEDEDE;stroke:#C4395E;stroke-miterlimit:10;}
	.st7{fill:#EAAB1E;}
</style>
<g>
	<circle class="st0" cx="403.4445" cy="399.2963" r="350"/>
	<circle class="st1" cx="403.4445" cy="399.2963" r="341.532"/>
	<circle class="st0" cx="404.5685" cy="399.2963" r="233.8454"/>
	<circle class="st2" cx="404.5685" cy="399.2963" r="226.6513"/>
	<g>
		<path class="st2" d="M235.1496,200.3374c-3.0123,2.4314-6.4321,4.2848-10.2594,5.5602
			c-3.8279,1.2764-7.6799,1.8687-11.5562,1.7783l-0.2603-10.7628c3.7547,0.0128,6.9113-0.3552,9.4681-1.1026
			s4.9161-1.9927,7.0777-3.7379c1.4167-1.1436,2.5079-2.2575,3.2711-3.3423c0.7632-1.0838,1.1895-2.1152,1.2774-3.0943
			c0.0884-0.9776-0.168-1.8391-0.7686-2.5835c-0.8294-1.027-1.8633-1.5091-3.1002-1.4479c-1.2369,0.0632-2.9239,0.6921-5.0588,1.889
			l-9.3436,5.172c-3.4411,1.8998-6.6914,2.6225-9.7516,2.1651c-3.0602-0.4554-5.6906-2.0475-7.8933-4.7763
			c-1.9448-2.4096-3.0069-4.9759-3.1862-7.6992c-0.1783-2.7223,0.5029-5.4669,2.0446-8.2336
			c1.5417-2.7658,3.8891-5.4214,7.0432-7.9674c2.7638-2.2308,5.9243-4.0062,9.4814-5.3271
			c3.5571-1.3199,7.0357-1.9774,10.4353-1.971l0.6115,10.6541c-6.2004,0.1482-11.197,1.7522-14.9883,4.8123
			c-1.2409,1.0018-2.2046,1.9991-2.8937,2.9945c-0.6891,0.9949-1.0798,1.9245-1.1722,2.789
			c-0.0919,0.865,0.1339,1.6341,0.6767,2.3069c0.7444,0.9218,1.6617,1.3515,2.7529,1.2893c1.0917-0.0608,2.5307-0.5789,4.3189-1.555
			l8.7365-4.9452c4.0363-2.3212,7.7145-3.3299,11.033-3.0241c3.319,0.3053,6.1372,1.8934,8.454,4.7634
			c2.0312,2.5163,3.1264,5.2159,3.2889,8.0988c0.162,2.8839-0.5789,5.8077-2.2234,8.7731
			C241.0206,194.7782,238.5156,197.6206,235.1496,200.3374z"/>
		<path class="st2" d="M252.2028,185.2513l-5.6457-51.3674l11.818-6.4346l39.8409,32.7503l-11.1585,6.075l-9.3594-8.0479
			l-16.3774,8.9168l1.6202,12.261L252.2028,185.2513z M259.9657,157.2259l10.1982-5.5523l-12.3554-10.6942L259.9657,157.2259z"/>
		<path class="st2" d="M302.7956,158.7182l-14.2399-45.6442l10.5637-3.2958l28.9946,20.0052l-8.2588-26.4738l10.5632-3.2953
			l14.2399,45.6442l-9.9117,3.0923l-29.9722-20.8449l8.5849,27.5171L302.7956,158.7182z"/>
		<path class="st2" d="M366.4413,142.5113l-4.4497-37.1665l-15.5312,1.8598l-1.2339-10.3088l42.7272-5.1156l1.2345,10.3088
			l-15.5312,1.8593l4.4497,37.166L366.4413,142.5113z"/>
		<path class="st2" d="M386.696,139.2392l20.9264-47.2506l13.4501,0.3739l17.9947,48.3329l-12.7012-0.3532l-4.0486-11.6609
			l-18.6408-0.5182l-4.7585,11.4158L386.696,139.2392z M407.488,118.9075l11.6065,0.3231l-5.3093-15.4541L407.488,118.9075z"/>
		<path class="st2" d="M454.9328,143.1821l31.8526-40.6937l12.9499,3.6545l5.6194,51.2666l-12.2276-3.4503l-1.0725-12.2967
			l-17.9458-5.0643l-7.4079,9.9041L454.9328,143.1821z M480.0678,128.5563l11.1757,3.1535l-1.3664-16.2833L480.0678,128.5563z"/>
		<path class="st2" d="M509.62,159.3671l21.9415-42.4817l9.8323,5.078l6.5726,34.6077l12.7263-24.6398l9.8313,5.0779
			l-21.9426,42.4821l-9.2241-4.7642l-6.678-35.8924l-13.228,25.6108L509.62,159.3671z"/>
		<path class="st2" d="M552.8304,181.6357l45.1017-25.2258l10.533,8.3745l-14.627,49.4565l-9.9445-7.9068l3.7622-11.7567
			l-14.5961-11.605l-10.6589,6.2727L552.8304,181.6357z M581.6638,177.8581l9.0898,7.2265l5.0305-15.547L581.6638,177.8581z"/>
	</g>
	<g>
		<path class="st2" d="M156.9014,596.9705l35.6431-33.0096l26.2189,28.3109l-7.587,7.0264l-18.1078-19.5527l-6.6707,6.1777
			l12.0723,13.0351l-7.3326,6.7902l-12.0719-13.0351l-14.0537,13.0153L156.9014,596.9705z"/>
		<path class="st2" d="M210.4556,648.6121c-3.5779-2.71-6.1476-5.7737-7.708-9.191c-1.562-3.4174-2.0698-6.9799-1.5239-10.6887
			c0.5453-3.7078,2.1592-7.3317,4.8415-10.8725l16.5532-21.8506l9.515,7.2081l-16.5537,21.8506
			c-1.3135,1.7339-2.134,3.5063-2.4615,5.3182c-0.328,1.8129-0.1408,3.5369,0.5651,5.173c0.7039,1.637,1.8677,3.0696,3.491,4.2996
			c1.6593,1.2567,3.3536,1.9888,5.0835,2.1962c1.7279,0.2075,3.4213-0.0919,5.0771-0.898c1.6553-0.8062,3.1397-2.0757,4.4532-3.8096
			l16.5537-21.8517l9.5145,7.2081l-16.5533,21.8517c-2.6546,3.5033-5.702,6.0127-9.1416,7.5272
			c-3.4415,1.5146-7.0244,1.9918-10.7505,1.4335C217.6845,652.9561,214.032,651.322,210.4556,648.6121z M239.2829,601.9029
			l10.5677-3.8353l10.013,7.5845l-13.4441,1.6568L239.2829,601.9029z"/>
		<path class="st2" d="M253.29,675.2761l17.2804-33.8791l-14.1574-7.221l4.7936-9.3974l38.9478,19.8668l-4.7931,9.3965
			l-14.1574-7.221L263.9234,680.7L253.29,675.2761z"/>
		<path class="st2" d="M290.2772,692.7293l14.2711-46.437l23.0194,7.0738c3.1842,0.9791,5.8107,2.3918,7.8819,4.2374
			c2.0703,1.8475,3.4885,3.9656,4.2551,6.3546c0.7657,2.3889,0.7548,4.8666-0.0331,7.4314
			c-0.5844,1.9018-1.6074,3.5349-3.0676,4.9022c-1.4612,1.3654-3.1862,2.3721-5.1754,3.0192
			c1.7388,1.7448,2.9436,3.689,3.6174,5.8309c0.6718,2.1429,0.6827,4.2759,0.0302,6.398c-0.8294,2.6981-2.2456,4.8647-4.2482,6.4998
			c-2.0031,1.6351-4.4196,2.6478-7.2496,3.036c-2.8305,0.3893-5.8813,0.08-9.1539-0.9257L290.2772,692.7293z M304.5621,686.8816
			l11.8748,3.6495c1.7679,0.5434,3.3082,0.5335,4.6202-0.0316c1.31-0.5651,2.1977-1.5995,2.6596-3.1031
			c0.4619-1.5037,0.3087-2.8572-0.4579-4.0615c-0.7681-1.2043-2.0367-2.0786-3.8046-2.622l-11.8748-3.6486L304.5621,686.8816z
			 M310.2705,668.3069l10.8794,3.3433c1.68,0.5167,3.1358,0.5049,4.3678-0.0366c1.23-0.5414,2.0574-1.4977,2.4788-2.869
			c0.4347-1.4147,0.2905-2.6803-0.4298-3.7977c-0.7222-1.1174-1.9231-1.9344-3.6036-2.4512l-10.8794-3.3433L310.2705,668.3069z"/>
		<path class="st2" d="M368.5739,711.6714c-3.6332-0.4031-6.9429-1.4098-9.9295-3.0211c-2.9876-1.6114-5.5266-3.6851-7.6191-6.2212
			c-2.093-2.5371-3.6278-5.3834-4.6044-8.5409c-0.9766-3.1566-1.271-6.483-0.8832-9.9784c0.3873-3.4944,1.4034-6.6756,3.0479-9.5427
			c1.6449-2.8661,3.7661-5.3073,6.3634-7.3237c2.5978-2.0164,5.5296-3.4825,8.7973-4.4014
			c3.2672-0.9178,6.7171-1.1757,10.3503-0.7726c3.6322,0.4031,6.9419,1.4108,9.9295,3.0212
			c2.9861,1.6124,5.5261,3.6851,7.6191,6.2222c2.093,2.5361,3.6273,5.3834,4.6039,8.5399c0.9766,3.1584,1.271,6.4849,0.8837,9.9783
			c-0.3878,3.4954-1.4039,6.6766-3.0483,9.5427c-1.6444,2.867-3.7656,5.3083-6.3634,7.3247
			c-2.5974,2.0154-5.5301,3.4835-8.7973,4.4003C375.656,711.8167,372.2061,712.0745,368.5739,711.6714z M369.7821,700.7733
			c1.9315,0.2144,3.7646,0.0573,5.499-0.4722c1.7344-0.5295,3.2795-1.3476,4.6365-2.4541c1.3555-1.1065,2.4748-2.4837,3.3556-4.1317
			c0.8813-1.6479,1.4311-3.4598,1.6504-5.4377c0.2243-2.0234,0.0859-3.9242-0.4149-5.7015
			c-0.5014-1.7773-1.2928-3.3561-2.3731-4.7323c-1.0813-1.3773-2.4096-2.5124-3.9859-3.4095
			c-1.5763-0.8961-3.3304-1.4523-5.2619-1.6656c-1.9315-0.2144-3.7641-0.0563-5.4985,0.4722
			c-1.7349,0.5295-3.281,1.3466-4.6365,2.4531c-1.3564,1.1066-2.4738,2.4729-3.3521,4.0971
			c-0.8783,1.6252-1.4296,3.45-1.6543,5.4723c-0.2193,1.9779-0.0795,3.8669,0.4189,5.6679c0.4989,1.801,1.2883,3.3897,2.3696,4.7669
			c1.0798,1.3762,2.4091,2.5134,3.9859,3.4094C366.097,700.0046,367.8512,700.5588,369.7821,700.7733z"/>
		<path class="st2" d="M408.7625,713.3687l-3.2909-48.4692l11.9088-0.8082l2.5766,37.9445l25.5506-1.7358l0.7143,10.5247
			L408.7625,713.3687z"/>
		<path class="st2" d="M501.3994,698.8655c-3.5448,1.069-7.0175,1.4514-10.418,1.149c-3.4015-0.3033-6.5591-1.1994-9.4735-2.6893
			c-2.9135-1.4879-5.4387-3.4934-7.5767-6.0146c-2.137-2.5203-3.7127-5.4644-4.7284-8.8304
			c-1.0285-3.4114-1.3495-6.7576-0.9613-10.0396c0.3873-3.282,1.394-6.3526,3.0212-9.2117c1.6262-2.8572,3.773-5.3528,6.4405-7.4868
			c2.6665-2.133,5.7499-3.7275,9.2493-4.7827c2.5687-0.7745,5.2075-1.1599,7.9155-1.1549c2.707,0.0059,5.3172,0.3665,7.8286,1.0818
			c2.5114,0.7183,4.756,1.7922,6.7349,3.2247l-5.4229,9.8994c-2.2674-1.5877-4.5614-2.5865-6.8841-2.9985
			c-2.3237-0.41-4.6582-0.2628-7.0056,0.4456c-1.8613,0.5612-3.4964,1.4286-4.9062,2.6023c-1.4098,1.1757-2.5321,2.54-3.367,4.097
			c-0.8358,1.556-1.3387,3.2553-1.5086,5.0939c-0.1699,1.8395,0.0385,3.7335,0.6264,5.6827c0.574,1.9048,1.4483,3.5626,2.623,4.9714
			c1.1737,1.4108,2.5529,2.541,4.1396,3.3907c1.5847,0.8516,3.3087,1.3585,5.17,1.5214c1.8623,0.164,3.7661-0.0484,5.7163-0.6362
			c2.2585-0.6807,4.2047-1.7991,5.8378-3.3551c1.6331-1.5551,2.9372-3.5191,3.9133-5.8922l9.7324,5.1117
			c-0.8694,2.2446-2.1419,4.3549-3.8165,6.3338c-1.6746,1.9799-3.6199,3.7009-5.8349,5.166
			C506.2275,697.0111,503.8802,698.1176,501.3994,698.8655z"/>
		<path class="st2" d="M532.3422,687.1533l-21.7509-43.4385l10.6729-5.3448l17.0284,34.0065l22.8989-11.4662l4.7224,9.432
			L532.3422,687.1533z"/>
		<path class="st2" d="M593.478,652.5421c-3.6327,2.6369-7.3099,4.2057-11.0335,4.7076c-3.7236,0.5019-7.2792-0.0464-10.6699-1.645
			c-3.3897-1.5985-6.3901-4.1949-8.9993-7.7891l-16.1037-22.1846l9.6592-7.0126l16.1047,22.1846
			c1.2774,1.7606,2.7357,3.0597,4.3747,3.8995c1.639,0.8397,3.3432,1.1608,5.1136,0.9612c1.7714-0.1985,3.4796-0.8961,5.1275-2.0925
			c1.6844-1.2231,2.8779-2.6319,3.5784-4.2275c0.6995-1.5936,0.905-3.3008,0.6135-5.1196
			c-0.2905-1.8179-1.0739-3.6071-2.3523-5.3666l-16.1038-22.1846l9.6593-7.0125l16.1047,22.1846
			c2.5825,3.5577,4.0981,7.2012,4.5496,10.9327c0.4505,3.7335-0.1334,7.301-1.7497,10.7036
			C599.7338,646.886,597.1088,649.9062,593.478,652.5421z"/>
		<path class="st2" d="M622.4894,628.7166l-34.4511-32.8309l16.6135-17.4335c2.298-2.4116,4.7274-4.1385,7.2872-5.1829
			c2.5598-1.0433,5.0652-1.389,7.5144-1.0364c2.4492,0.3537,4.6256,1.4365,6.5284,3.2504c1.4108,1.3446,2.3879,2.9629,2.9323,4.8548
			c0.5444,1.8939,0.652,3.8659,0.3251,5.9179c2.3197-0.7924,4.5752-1.0236,6.7655-0.6946c2.1903,0.33,4.0724,1.2449,5.6472,2.7455
			c2.0016,1.9078,3.2701,4.1079,3.8066,6.5995c0.5364,2.4926,0.3369,5.0831-0.5967,7.7713
			c-0.9346,2.6892-2.5835,5.2727-4.9448,7.7505L622.4894,628.7166z M610.0046,600.3295l7.8523-8.2396
			c1.2122-1.2725,1.8583-2.5746,1.9374-3.9054c0.079-1.3298-0.3903-2.4808-1.4078-3.4509
			c-1.0493-0.9998-2.2289-1.4207-3.5389-1.2626c-1.3091,0.1591-2.5697,0.8743-3.7829,2.1469l-7.8523,8.2396L610.0046,600.3295z
			 M623.7847,613.4615l8.5705-8.9934c1.2765-1.3387,1.9621-2.7149,2.056-4.1277c0.0939-1.4118-0.4169-2.6497-1.5323-3.7137
			c-1.1154-1.062-2.377-1.5125-3.7829-1.3515c-1.4068,0.162-2.7485,0.9128-4.0249,2.2526l-8.5696,8.9924L623.7847,613.4615z"/>
	</g>
	<path class="st3" d="M111.147,405.4561c0,49.8094,12.6157,96.6902,34.8327,137.6829l5.0204-2.9996
		c-20.9397-39.9228-32.8088-85.3868-32.8088-133.6406c0-65.5661,21.8964-125.9891,58.7269-174.337l-5.1487-3.9131
		C133.7606,277.3277,111.147,338.7659,111.147,405.4561z"/>
	<path class="st3" d="M631.675,221.6678l-4.7722,4.283c39.7621,49.3355,63.5934,112.1432,63.5934,180.548
		c0,49.4232-12.4368,95.9287-34.3335,136.5419l4.893,3.0903c23.2397-41.6977,36.4847-89.6478,36.4847-140.6749
		C697.5403,335.7518,672.8423,271.7808,631.675,221.6678z"/>
	<g>
		<g>
			<defs>
				<circle id="SVGID_1_" cx="404.5685" cy="399.2963" r="226.6513"/>
			</defs>
			<clipPath id="SVGID_00000035505601115993996080000011336696799643423677_">
				<use xlink:href="#SVGID_1_"  style="overflow:visible;"/>
			</clipPath>
			<g style="clip-path:url(#SVGID_00000035505601115993996080000011336696799643423677_);">
				<g>
					<polygon class="st5" points="153.0765,534.7301 152.3612,534.0148 404.044,282.6694 404.4017,283.0271 648.0825,526.6151 
						647.3672,527.3303 404.044,284.1 					"/>
				</g>
				<g>
					<polygon class="st5" points="153.0765,520.1735 152.3612,519.4583 404.044,268.1138 404.4017,268.4715 648.0825,512.0594 
						647.3672,512.7747 404.044,269.5444 					"/>
				</g>
				<g>
					<polygon class="st5" points="153.0765,505.5528 152.3612,504.8375 404.044,253.4926 404.4017,253.8502 648.0825,497.4377 
						647.3672,498.153 404.044,254.9231 					"/>
				</g>
				<g>
					<polygon class="st5" points="153.0765,491.498 152.3612,490.7828 404.044,239.4379 404.4017,239.7955 648.0825,483.383 
						647.3672,484.0983 404.044,240.8684 					"/>
				</g>
				<g>
					<polygon class="st5" points="153.0765,476.7508 152.3612,476.0355 404.044,224.6911 404.4017,225.0488 648.0825,468.6367 
						647.3672,469.352 404.044,226.1217 					"/>
				</g>
				<g>
					<polygon class="st5" points="153.0765,462.1834 152.3612,461.4681 404.044,210.1237 404.4017,210.4813 648.0825,454.0693 
						647.3672,454.7845 404.044,211.5542 					"/>
				</g>
				<g>
					<polygon class="st5" points="153.0765,447.7809 152.3612,447.0656 404.044,195.7202 404.4017,196.0779 648.0825,439.6658 
						647.3672,440.3811 404.044,197.1508 					"/>
				</g>
				<g>
					<polygon class="st5" points="153.0765,432.6158 152.3612,431.9005 404.044,180.5556 404.4017,180.9132 648.0825,424.5007 
						647.3672,425.216 404.044,181.9861 					"/>
				</g>
				<g>
					<polygon class="st5" points="153.0765,418.3467 152.3612,417.6314 404.044,166.2865 404.4017,166.6441 648.0825,410.2316 
						647.3672,410.9469 404.044,167.7171 					"/>
				</g>
				<g>
					<polygon class="st5" points="153.0765,404.3187 152.3612,403.6034 404.044,152.258 404.4017,152.6156 648.0825,396.2036 
						647.3672,396.9189 404.044,153.6886 					"/>
				</g>
				<g>
					<polygon class="st5" points="153.0765,389.1263 152.3612,388.4101 404.044,137.0657 404.4017,137.4233 648.0825,381.0108 
						647.3672,381.726 404.044,138.4962 					"/>
				</g>
				<g>
					<polygon class="st5" points="153.0765,374.7308 152.3612,374.0146 404.044,122.6701 404.4017,123.0278 648.0825,366.6152 
						647.3672,367.3305 404.044,124.1007 					"/>
				</g>
				<g>
					<polygon class="st5" points="153.0765,360.4899 152.3612,359.7736 404.044,108.4292 404.4017,108.7868 648.0825,352.3748 
						647.3672,353.0901 404.044,109.8598 					"/>
				</g>
				<g>
					<polygon class="st5" points="153.0765,345.8073 152.3612,345.0911 404.044,93.7467 404.4017,94.1043 648.0825,337.6918 
						647.3672,338.407 404.044,95.1772 					"/>
				</g>
				<g>
					<polygon class="st5" points="153.0765,738.1121 152.3612,737.3969 404.044,486.0515 404.4017,486.4091 648.0825,729.9971 
						647.3672,730.7123 404.044,487.482 					"/>
				</g>
				<g>
					<polygon class="st5" points="153.0765,723.5555 152.3612,722.8403 404.044,471.4958 404.4017,471.8535 648.0825,715.4415 
						647.3672,716.1567 404.044,472.9264 					"/>
				</g>
				<g>
					<polygon class="st5" points="153.0765,708.9348 152.3612,708.2195 404.044,456.8741 404.4017,457.2317 648.0825,700.8197 
						647.3672,701.535 404.044,458.3047 					"/>
				</g>
				<g>
					<polygon class="st5" points="153.0765,694.8801 152.3612,694.1648 404.044,442.8194 404.4017,443.177 648.0825,686.765 
						647.3672,687.4803 404.044,444.25 					"/>
				</g>
				<g>
					<polygon class="st5" points="153.0765,680.1328 152.3612,679.4175 404.044,428.0731 404.4017,428.4308 648.0825,672.0187 
						647.3672,672.734 404.044,429.5037 					"/>
				</g>
				<g>
					<polygon class="st5" points="153.0765,665.5654 152.3612,664.8501 404.044,413.5057 404.4017,413.8633 648.0825,657.4513 
						647.3672,658.1666 404.044,414.9362 					"/>
				</g>
				<g>
					<polygon class="st5" points="153.0765,651.163 152.3612,650.4476 404.044,399.1023 404.4017,399.4599 648.0825,643.0479 
						647.3672,643.7631 404.044,400.5328 					"/>
				</g>
				<g>
					<polygon class="st5" points="153.0765,635.9978 152.3612,635.2825 404.044,383.9376 404.4017,384.2952 648.0825,627.8827 
						647.3672,628.598 404.044,385.3682 					"/>
				</g>
				<g>
					<polygon class="st5" points="153.0765,621.7287 152.3612,621.0134 404.044,369.6685 404.4017,370.0262 648.0825,613.6136 
						647.3672,614.3289 404.044,371.0991 					"/>
				</g>
				<g>
					<polygon class="st5" points="153.0765,607.7007 152.3612,606.9854 404.044,355.64 404.4017,355.9977 648.0825,599.5856 
						647.3672,600.3009 404.044,357.0706 					"/>
				</g>
				<g>
					<polygon class="st5" points="153.0765,592.5079 152.3612,591.7926 404.044,340.4477 404.4017,340.8053 648.0825,584.3928 
						647.3672,585.1081 404.044,341.8782 					"/>
				</g>
				<g>
					<polygon class="st5" points="153.0765,578.1124 152.3612,577.397 404.044,326.0522 404.4017,326.4098 648.0825,569.9973 
						647.3672,570.7125 404.044,327.4827 					"/>
				</g>
				<g>
					<polygon class="st5" points="153.0765,563.8719 152.3612,563.1566 404.044,311.8112 404.4017,312.1689 648.0825,555.7568 
						647.3672,556.4721 404.044,313.2418 					"/>
				</g>
				<g>
					<polygon class="st5" points="153.0765,549.1889 152.3612,548.4736 404.044,297.1287 404.4017,297.4863 648.0825,541.0738 
						647.3672,541.7891 404.044,298.5593 					"/>
				</g>
				<g>
					
						<rect x="525.3682" y="436.3257" transform="matrix(0.707 -0.7072 0.7072 0.707 -276.3282 550.2172)" class="st5" width="1.0116" height="344.5478"/>
				</g>
				<g>
					
						<rect x="525.3688" y="421.7697" transform="matrix(0.707 -0.7072 0.7072 0.707 -266.0339 545.9528)" class="st5" width="1.0116" height="344.5478"/>
				</g>
				<g>
					
						<rect x="525.3694" y="407.1475" transform="matrix(0.707 -0.7072 0.7072 0.707 -255.6929 541.669)" class="st5" width="1.0116" height="344.5478"/>
				</g>
				<g>
					
						<rect x="525.37" y="393.0924" transform="matrix(0.707 -0.7072 0.7072 0.707 -245.7528 537.5514)" class="st5" width="1.0116" height="344.5478"/>
				</g>
				<g>
					
						<rect x="525.3705" y="378.3458" transform="matrix(0.707 -0.7072 0.7072 0.707 -235.3238 533.2311)" class="st5" width="1.0116" height="344.5478"/>
				</g>
				<g>
					
						<rect x="525.3712" y="363.7778" transform="matrix(0.707 -0.7072 0.7072 0.707 -225.021 528.9633)" class="st5" width="1.0116" height="344.5478"/>
				</g>
				<g>
					
						<rect x="525.3682" y="436.3257" transform="matrix(0.707 -0.7072 0.7072 0.707 -276.3282 550.2172)" class="st5" width="1.0116" height="344.5478"/>
				</g>
				<g>
					
						<rect x="525.3688" y="421.7697" transform="matrix(0.707 -0.7072 0.7072 0.707 -266.0339 545.9528)" class="st5" width="1.0116" height="344.5478"/>
				</g>
				<g>
					
						<rect x="525.3694" y="407.1475" transform="matrix(0.707 -0.7072 0.7072 0.707 -255.6929 541.669)" class="st5" width="1.0116" height="344.5478"/>
				</g>
				<g>
					
						<rect x="525.37" y="393.0924" transform="matrix(0.707 -0.7072 0.7072 0.707 -245.7528 537.5514)" class="st5" width="1.0116" height="344.5478"/>
				</g>
				<g>
					
						<rect x="525.3705" y="378.3458" transform="matrix(0.707 -0.7072 0.7072 0.707 -235.3238 533.2311)" class="st5" width="1.0116" height="344.5478"/>
				</g>
				<g>
					
						<rect x="525.3712" y="363.7778" transform="matrix(0.707 -0.7072 0.7072 0.707 -225.021 528.9633)" class="st5" width="1.0116" height="344.5478"/>
				</g>
				<g>
					
						<rect x="525.3718" y="349.3741" transform="matrix(0.707 -0.7072 0.7072 0.707 -214.8344 524.7435)" class="st5" width="1.0116" height="344.5478"/>
				</g>
				<g>
					
						<rect x="525.3724" y="334.2096" transform="matrix(0.707 -0.7072 0.7072 0.707 -204.1097 520.3008)" class="st5" width="1.0116" height="344.5474"/>
				</g>
				<g>
					
						<rect x="525.373" y="319.9401" transform="matrix(0.707 -0.7072 0.7072 0.707 -194.018 516.1204)" class="st5" width="1.0116" height="344.5474"/>
				</g>
				<g>
					
						<rect x="525.3682" y="436.3257" transform="matrix(0.707 -0.7072 0.7072 0.707 -276.3282 550.2172)" class="st5" width="1.0116" height="344.5478"/>
				</g>
				<g>
					
						<rect x="525.3688" y="421.7697" transform="matrix(0.707 -0.7072 0.7072 0.707 -266.0339 545.9528)" class="st5" width="1.0116" height="344.5478"/>
				</g>
				<g>
					
						<rect x="525.3694" y="407.1475" transform="matrix(0.707 -0.7072 0.7072 0.707 -255.6929 541.669)" class="st5" width="1.0116" height="344.5478"/>
				</g>
				<g>
					
						<rect x="525.37" y="393.0924" transform="matrix(0.707 -0.7072 0.7072 0.707 -245.7528 537.5514)" class="st5" width="1.0116" height="344.5478"/>
				</g>
				<g>
					
						<rect x="525.3705" y="378.3458" transform="matrix(0.707 -0.7072 0.7072 0.707 -235.3238 533.2311)" class="st5" width="1.0116" height="344.5478"/>
				</g>
				<g>
					
						<rect x="525.3712" y="363.7778" transform="matrix(0.707 -0.7072 0.7072 0.707 -225.021 528.9633)" class="st5" width="1.0116" height="344.5478"/>
				</g>
				<g>
					<polygon class="st5" points="153.0765,868.6718 152.3612,867.9565 404.044,616.6121 404.4017,616.9697 648.0825,860.5567 
						647.3672,861.272 404.044,618.0427 					"/>
				</g>
				<g>
					<polygon class="st5" points="153.0765,854.2683 152.3612,853.553 404.044,602.2086 404.4017,602.5663 648.0825,846.1542 
						647.3672,846.8695 404.044,603.6392 					"/>
				</g>
				<g>
					<polygon class="st5" points="153.0765,839.1042 152.3612,838.3889 404.044,587.0435 404.4017,587.4011 648.0825,830.9891 
						647.3672,831.7043 404.044,588.4741 					"/>
				</g>
				<g>
					<polygon class="st5" points="153.0765,824.8351 152.3612,824.1198 404.044,572.7744 404.4017,573.132 648.0825,816.72 
						647.3672,817.4353 404.044,574.205 					"/>
				</g>
				<g>
					<polygon class="st5" points="153.0765,810.8071 152.3612,810.0918 404.044,558.7464 404.4017,559.104 648.0825,802.692 
						647.3672,803.4073 404.044,560.1769 					"/>
				</g>
				<g>
					<polygon class="st5" points="153.0765,795.6143 152.3612,794.899 404.044,543.5536 404.4017,543.9112 648.0825,787.4991 
						647.3672,788.2145 404.044,544.9841 					"/>
				</g>
				<g>
					<polygon class="st5" points="153.0765,781.2187 152.3612,780.5034 404.044,529.158 404.4017,529.5157 648.0825,773.1036 
						647.3672,773.8189 404.044,530.5886 					"/>
				</g>
				<g>
					<polygon class="st5" points="153.0765,766.9783 152.3612,766.263 404.044,514.9176 404.4017,515.2753 648.0825,758.8632 
						647.3672,759.5785 404.044,516.3481 					"/>
				</g>
				<g>
					<polygon class="st5" points="153.0765,752.2953 152.3612,751.58 404.044,500.2346 404.4017,500.5922 648.0825,744.1802 
						647.3672,744.8954 404.044,501.6651 					"/>
				</g>
				<g>
					<path class="st6" d="M404.0439,893.2552"/>
				</g>
				<g>
					<path class="st6" d="M404.0439,878.6992"/>
				</g>
				<g>
					<path class="st6" d="M404.0439,864.0781"/>
				</g>
				<g>
					<path class="st6" d="M404.0439,850.0233"/>
				</g>
				<g>
					<path class="st6" d="M404.0439,835.2766"/>
				</g>
				<g>
					<path class="st6" d="M404.0439,893.2552"/>
				</g>
				<g>
					<path class="st6" d="M404.0439,878.6992"/>
				</g>
				<g>
					<path class="st6" d="M404.0439,864.0781"/>
				</g>
				<g>
					<path class="st6" d="M404.0439,850.0233"/>
				</g>
				<g>
					<path class="st6" d="M404.0439,835.2766"/>
				</g>
				<g>
					<path class="st6" d="M404.0439,893.2552"/>
				</g>
				<g>
					<path class="st6" d="M404.0439,878.6992"/>
				</g>
				<g>
					<path class="st6" d="M404.0439,864.0781"/>
				</g>
				<g>
					<path class="st6" d="M404.0439,850.0233"/>
				</g>
				<g>
					<path class="st6" d="M404.0439,835.2766"/>
				</g>
			</g>
		</g>
	</g>
	<path class="st1" d="M412.6693,490.9252c6.5079-47.6006,15.216-57.0562,21.7622-78.4023
		c12.5404-26.0004,29.5257-56.6535,83.4814-99.818c0,0,15.0627,12.9644,37.769,12.9644c20.9078,0,33.0479-9.4422,33.0479-9.4422
		s-15.5122-14.3882-38.4434-14.3882c-7.3972,0-20.683,3.1475-20.683,3.1475s23.4132-17.2567,65.8868-27.8875
		c-2.8577-4.4555-5.8707-8.8016-9.0245-13.0367c-0.1922,0.0519-56.5456,15.2724-90.4348,45.7951c0,0,23.6057-24.7297,7.4189-60.5503
		c0,0-35.1462,23.2309-18.285,69.0932c0,0-14.9127,11.6904-26.828,28.1019c0,0,15.5123-30.5748-0.6744-54.1805
		c0,0-34.097,27.7272-13.8636,71.5663c0,0-20.1584,23.9803-32.0736,61.7492c0,0-0.4496-52.5318,7.1941-76.1374
		c7.6438-23.6057,15.4373-53.4311,46.0122-93.9728c20.1989-25.9905,41.3608-43.009,54.0262-51.9239
		c-5.063-2.9659-10.2468-5.7473-15.5506-8.3216c-0.1242,0.0806-31.9325,20.7553-58.1845,60.2455
		c0,0,10.8661-34.5466-12.5147-58.1523c0,0-26.1112,35.5712,2.5479,72.5404c0,0-23.2896,33.1228-31.6534,73.8893
		c0,0-5.741-24.2801-17.881-47.8857c0,0,31.7739-24.2801,14.2383-68.6436c0,0-23.4913,13.0678-23.5307,50.0588
		c0,0-33.58-54.4518-72.7843-81.0163c-5.0641,2.5229-10.0204,5.2281-14.8604,8.11c10.6432,8.1525,71.6073,57.3291,96.1877,131.9578
		c0,0-17.3108-31.8488-51.0331-30.4999c0,0,9.742,40.7665,55.1547,46.1621c0,0,5.6204,48.7849,6.5196,72.6154
		c0,0-28.4766-77.5613-89.6264-118.4777c0,0,13.489-42.4901-26.753-65.4213c0,0-14.3882,27.2027,12.8144,55.5294
		c0,0-32.4431-23.6637-69.4983-32.0651c-3.2716,4.4017-6.3864,8.9263-9.3381,13.5652c0.2972,0.0622,50.3295,10.5902,90.4518,47.0514
		c43.2395,38.6682,62.124,74.4514,62.124,74.4514s-17.086-26.4908-55.7542-21.0952c0,0,16.0368,39.7173,62.9483,35.6707
		c0,0,20.9828,53.3562,20.9828,93.823c0,37.1599,0,106.8543,0,117.9982c3.5152,0.1619,7.0485,0.2546,10.6038,0.2546
		c2.3703,0,4.7289-0.0486,7.0817-0.1208V505.7654C411.6502,500.803,411.9972,495.8419,412.6693,490.9252z"/>
	<path class="st1" d="M326.7637,422.5787c-25.6289-25.2542-51.4827-37.1695-51.4827-37.1695s-2.1732-48.4852-44.2137-55.9041
		c0,0-0.6744,35.0712,25.629,48.7849c0,0-32.1811-13.0574-76.7825-9.116c-0.7234,5.4467-1.2492,10.955-1.5786,16.5169
		c0.6702-0.1215,65.9116-11.808,121.9753,34.4148c0,0-11.7654-6.4447-28.8513-6.4447c-17.086,0-28.7764,7.9435-28.7764,7.9435
		s18.21,16.9361,43.1645,16.9361c15.9619,0,28.7764-6.07,28.7764-6.07s28.3268,31.4742,37.9938,60.4753
		c0,0-17.0859-33.0478-56.8782-27.8771c0,0,4.6462,17.2359,27.6523,31.0245c16.9361,9.2924,32.6731,8.1683,32.6731,8.1683
		s14.5776,65.7366-11.2119,113.7191c5.3775,1.4651,10.834,2.7366,16.3628,3.8076c3.736-6.7995,16.4314-33.2866,16.4314-79.3081
		C377.6469,488.5246,349.2452,443.5615,326.7637,422.5787z"/>
	<path class="st1" d="M455.8826,490.9975c0,0,44.6633,6.145,61.2997-33.1977c0,0-32.5982-7.1941-57.3279,21.3574
		c0,0,21.1327-39.4176,44.5134-57.4028c1.5738,1.3489,13.0393,10.3415,33.4975,10.3415s36.42-11.4656,36.42-11.4656
		s-12.14-11.4656-36.1953-11.4656c-10.8295,0-21.5823,3.1474-21.5823,3.1474s44.142-36.2616,114.3094-26.3782
		c-0.3021-5.1951-0.765-10.3471-1.4113-15.4426c-2.8956-0.7263-9.4333-1.9433-20.7988-1.9433
		c-16.1867,0-75.1633,4.946-118.4777,45.4128c0,0,21.8554-28.0878,5.3956-59.2014c0,0-34.9213,20.9078-17.6105,70.3672
		c0,0-49.0098,41.5159-49.6093,122.1497c-0.2618,35.2158,7.5954,59.2262,16.5296,75.1034
		c5.7061-1.0231,11.3366-2.2637,16.886-3.7053c-2.6618-5.0563-16.1797-32.9073-16.1797-77.0934
		C445.5411,515.9521,455.8826,490.9975,455.8826,490.9975z"/>
	<path class="st1" d="M380.813,207.0043c1.6034,1.37,3.2067,3.5535,3.9738,7.011c0.6681,3.0115,0.4285,6.1709-0.5758,9.0876
		c-2.9854,8.6702-10.0634,9.0947-12.8965,9.0947c-3.2598,0-9.4422-1.7985-9.4422-13.1517c0-8.7257,6.1751-12.4715,10.8705-13.7379
		C375.5482,204.5514,378.604,205.1168,380.813,207.0043z"/>
	<path class="st1" d="M341.1349,285.0222c1.0852-2.9811,1.0933-6.2358,0.3656-9.3237c-1.0045-4.2625-1.9598-9.5537-10.5028-10.7527
		c-10.1917,0-11.9901,11.0909-11.9901,15.7371s3.7469,12.4398,11.5405,12.4398
		C336.0036,293.1226,339.5497,289.3771,341.1349,285.0222z"/>
	<path class="st1" d="M205.3509,419.0941c-0.8477-0.8477-1.3633-1.9684-1.5416-3.1539c-0.4545-3.0219-0.5403-9.8893,6.8372-14.007
		c9.6671-5.3956,17.3108-2.0233,18.8845,1.3489c1.5737,3.3723,2.6978,15.5123-9.8919,18.2101
		C211.2461,423.2906,207.1494,420.8926,205.3509,419.0941z"/>
	<path class="st1" d="M528.8352,241.1528c0,0,11.0159,1.0117,10.7911,14.2758c-0.2249,13.2641-6.8569,12.8145-11.3532,12.8145
		c-4.4963,0-11.6904-5.1707-11.6904-14.8378c0-9.6671,8.6034-12.2524,11.5235-12.2524"/>
	<path class="st1" d="M565.9672,341.4766c2.583-2.8198,6.0209-4.6897,9.7243-5.6429c4.9238-1.2673,12.0672-1.7177,14.256,5.3244
		c3.4471,11.0909-6.7444,13.9386-9.5922,15.2874c-2.8477,1.3489-14.9877,2.8477-17.3857-5.0958
		C561.7706,347.378,563.7191,343.9308,565.9672,341.4766z"/>
	<path class="st1" d="M248.278,299.7205c3.4362,2.836,4.9478,7.5161,3.2849,11.6496c-1.3114,3.2598-4.7586,6.7819-13.3016,7.8311
		c-17.086,2.0983-15.1376-9.1425-15.1376-9.1425s0.4496-8.9926,13.0393-12.2899
		C241.9992,296.2403,245.8384,297.707,248.278,299.7205z"/>
	<path class="st1" d="M252.7245,459.7857c0,0,0.7494-10.6413,14.6879-11.8403s14.5381,9.8919,14.5381,10.6413
		s0.5995,10.7911-14.613,10.7911S252.7245,459.7857,252.7245,459.7857z"/>
	<path class="st1" d="M456.5685,409.9967c1.492,0.2486,2.8505,0.9865,3.887,2.0881c2.486,2.6422,6.2853,8.7794,0.1483,17.8754
		c-8.3931,12.4398-17.0859,3.7469-17.0859,3.7469s-7.344-5.8452-1.0492-16.9361
		C447.6444,409.732,453.4636,409.4794,456.5685,409.9967z"/>
	<path class="st1" d="M511.0039,344.1182c2.148-3.2258,7.5541-8.3571,18.5541-3.2599c14.9018,8.5902,4.5603,19.3341,4.5603,19.3341
		s-7.3439,5.2457-16.7862-0.7494c-5.5122-3.4998-7.1425-7.3909-7.5446-10.0238
		C509.5049,347.5692,509.9666,345.676,511.0039,344.1182z"/>
	<path class="st1" d="M293.746,341.3202c2.5017,0.286,4.8926,1.2383,6.9069,2.7492c3.6898,2.7677,8.8667,8.2336,5.2779,15.4111
		c-5.2831,10.5663-19.4465,1.7985-19.4465,1.7985s-8.8306-3.5679-6.548-12.3724c0.8109-3.1278,3.0034-5.7932,6.0404-6.8968
		C288.6219,341.0488,291.5186,341.0656,293.746,341.3202z"/>
	<path class="st1" d="M603.2787,417.8831c1.2831-1.1883,2.204-2.7281,2.7496-4.3896c1.0516-3.2021,1.6349-8.9339-4.99-13.4853
		c-9.742-6.6929-15.5872-4.2949-20.0835,1.2505c-4.4963,5.5454,1.7985,14.3882,6.4447,16.6363
		C591.548,419.9024,598.4146,422.3876,603.2787,417.8831z"/>
	<path class="st1" d="M549.8929,444.8354c0,0,9.4423,5.5454,6.145,15.4373s-15.1376,5.3956-18.8845,3.597
		c-2.8102-1.3489-7.4752-5.3956-7.6086-11.0651c-0.1035-4.396,2.5648-8.2762,6.7521-9.6187
		C542.6805,441.1391,549.8929,444.8354,549.8929,444.8354z"/>
	<g>
		<polygon class="st2" points="355.5096,189.3568 336.3309,176.3419 358.3243,169.6984 365.3981,147.371 378.2514,165.6359 
			400.9567,164.975 388.0105,183.7235 395.1573,205.6107 373.9242,198.4584 355.7314,212.436 		"/>
		<polygon class="st7" points="367.1368,158.6315 362.3407,173.7691 347.9525,178.1155 360.5422,186.6585 360.6921,202.2457 
			372.982,192.8034 387.2203,197.5995 382.4242,182.9115 391.1171,170.3219 375.6797,170.7715 		"/>
		<polygon class="st2" points="453.0891,189.3568 472.2678,176.3419 450.2744,169.6984 443.2006,147.371 430.3472,165.6359 
			407.642,164.975 420.5882,183.7235 413.4413,205.6107 434.6745,198.4584 452.8672,212.436 		"/>
		<polygon class="st7" points="441.4619,158.6315 446.2579,173.7691 460.6461,178.1155 448.0565,186.6585 447.9066,202.2457 
			435.6167,192.8034 421.3784,197.5995 426.1744,182.9115 417.4816,170.3219 432.9189,170.7715 		"/>
	</g>
</g>
</svg>
