<?xml version="1.0" encoding="UTF-8"?>
<svg data-name="图层_1" xmlns="http://www.w3.org/2000/svg" version="1.1" viewBox="0 0 800 800">
  <!-- Created by @FCLOGO 2024-12-20 GMT+8 13:21:27 . https://fclogo.top/ -->
<!-- FOR PERSONAL USE ONLY NOT FOR COMMERCIAL USE -->
  <path d="M348.2194,774.301c-.786,0-1.3752-.2173-1.7682-.6519-.393-.4352-.5284-1.03-.406-1.7856l.2518-1.6478c.122-.755.4501-1.3504.9841-1.785.5339-.4352,1.1939-.6525,1.9799-.6525.7553,0,1.3293.1987,1.7223.5954.3927.3967.551.9381.4747,1.6248h-1.2358c.0304-.3589-.0553-.637-.2573-.8357-.2024-.1981-.4979-.2974-.8869-.2974-.4197,0-.763.1167-1.03.3489-.2673.2328-.4349.5631-.5035.9903l-.2632,1.659c-.0686.4352-.0056.7686.1887,1.0015.1946.2328.5017.3489.9214.3489.389,0,.7152-.0987.9785-.2974.2632-.1981.4365-.4805.5206-.8469h1.2358c-.1372.6867-.4672,1.2306-.9897,1.631-.5228.4005-1.1616.6004-1.9169.6004ZM352.7967,774.1868l.9956-6.2943h1.1902l-.1946,1.1902c.3359-.8698.9729-1.3044,1.9113-1.3044.6712,0,1.1691.208,1.4932.624.3244.416.4293.9859.3148,1.7105l-.0686.4234h-1.2703l.0571-.3204c.0689-.4501.0115-.7953-.1714-1.0356-.1832-.2403-.4771-.3607-.8813-.3607-.4045,0-.7401.1223-1.007.3663-.2673.2446-.4349.588-.5035,1.03l-.6296,3.9711h-1.2358ZM361.9058,774.301c-.7705,0-1.3463-.2229-1.7279-.6693s-.515-1.0356-.4005-1.7682l.2518-1.6478c.0838-.488.2573-.9152.5206-1.2815s.6007-.6507,1.0129-.8524c.4119-.2024.8732-.3036,1.3845-.3036.7705,0,1.3485.2235,1.7338.6693.3852.4464.5169,1.0356.3949,1.7682l-.1717,1.1213h-3.845l-.0916.5265c-.1527.9536.2173,1.4305,1.1098,1.4305.7171,0,1.175-.2477,1.3734-.7438h1.2247c-.1679.5339-.5035.9599-1.007,1.2759-.5038.3166-1.0912.475-1.7626.475ZM361.2306,770.2157l-.0456.2862,2.6548-.0118.0459-.2856c.0686-.4656.0133-.822-.1661-1.0704-.1791-.2477-.4861-.3719-.9211-.3719-.4427,0-.7953.126-1.0586.3775-.2632.2521-.4331.6109-.5094,1.076ZM368.3258,774.301c-.6333,0-1.1027-.2117-1.4078-.6351s-.3967-1.0008-.2744-1.7335l.2744-1.7738c.1145-.7326.393-1.3119.8357-1.7397.4424-.4272.98-.6407,1.6133-.6407.4653,0,.8298.1186,1.093.3545.2632.2365.3908.5575.3834.9617h.023l.1717-1.202h1.2358l-.9956,6.2943h-1.2247l.1946-1.2014h-.023c-.122.4116-.3511.7339-.6867.9667s-.7401.3489-1.2129.3489ZM368.9324,773.2257c.389,0,.7152-.1186.9782-.3551.2632-.2359.4293-.5718.4979-1.007l.2518-1.6478c.0686-.4272.0096-.7612-.1773-1.0015-.1872-.2403-.475-.3601-.8642-.3601-.3967,0-.7249.118-.9841.3545-.2595.2365-.4234.5724-.492,1.007l-.2518,1.6478c-.0686.4427-.0133.7804.1658,1.0133.1794.2328.4712.3489.8757.3489ZM376.3477,774.1868c-.5721,0-.9937-.1565-1.2644-.4694-.271-.3123-.3607-.7512-.2691-1.3156l.538-3.3874h-1.7394l.1714-1.1219h1.7397l.2747-1.7161h1.2358l-.2747,1.7161h2.472l-.1832,1.1219h-2.4605l-.5377,3.3874c-.0764.4421.099.6637.5262.6637h1.7167l-.1717,1.1213h-1.7738ZM382.5042,774.301c-.7705,0-1.3463-.2229-1.7279-.6693s-.515-1.0356-.4005-1.7682l.2518-1.6478c.0838-.488.2573-.9152.5206-1.2815s.6007-.6507,1.0129-.8524c.4119-.2024.8732-.3036,1.3845-.3036.7705,0,1.3485.2235,1.7338.6693.3852.4464.5169,1.0356.3949,1.7682l-.1717,1.1213h-3.845l-.0916.5265c-.1527.9536.2173,1.4305,1.1098,1.4305.7171,0,1.175-.2477,1.3734-.7438h1.2247c-.1679.5339-.5035.9599-1.007,1.2759-.5038.3166-1.0912.475-1.7626.475ZM381.829,770.2157l-.0456.2862,2.6548-.0118.0459-.2856c.0686-.4656.0133-.822-.1661-1.0704-.1791-.2477-.4861-.3719-.9211-.3719-.4427,0-.7953.126-1.0586.3775-.2632.2521-.4331.6109-.5094,1.076ZM388.9243,774.301c-.6333,0-1.1008-.2117-1.4019-.6351-.3014-.4234-.3949-1.0008-.2803-1.7335l.2744-1.7738c.1145-.7326.393-1.3119.8357-1.7397.4424-.4272.98-.6407,1.6133-.6407.4653,0,.8298.1186,1.093.3545.2632.2365.3908.5575.3834.9617h.023l.2058-1.4652.2977-1.7962h1.2358l-1.3274,8.3537h-1.2247l.1946-1.2014h-.023c-.122.4116-.3511.7339-.6867.9667s-.7401.3489-1.2129.3489ZM389.5309,773.2257c.389,0,.7152-.1186.9782-.3551.2632-.2359.4293-.5718.4979-1.007l.2518-1.6478c.0761-.4272.0189-.7612-.1717-1.0015-.1909-.2403-.4805-.3601-.8698-.3601-.3967,0-.7249.118-.9841.3545-.2595.2365-.4234.5724-.492,1.007l-.2518,1.6478c-.0764.4427-.023.7804.1602,1.0133s.4768.3489.8813.3489ZM401.0175,774.301c-.4731,0-.8394-.1161-1.0986-.3489-.2595-.2328-.3852-.5551-.3775-.9667h-.0115l-.1946,1.2014h-1.2243l1.3274-8.3537h1.2358l-.2862,1.7962-.2744,1.4652h.0456c.122-.4123.353-.7345.6923-.9673.3396-.2322.7419-.3489,1.2076-.3489.633,0,1.1002.2136,1.4016.6407.3014.4278.3949,1.007.2806,1.7397l-.2747,1.7738c-.1145.7326-.3949,1.31-.8413,1.7335-.4461.4234-.9822.6351-1.6077.6351ZM400.7657,773.2257c.3967,0,.7227-.1161.9785-.3489.2555-.2328.4216-.5706.4976-1.0133l.2518-1.6478c.0689-.4346.0115-.7705-.1714-1.007-.1832-.2365-.4734-.3545-.8698-.3545-.3893,0-.7152.1198-.9785.3601s-.429.5743-.4979,1.0015l-.2518,1.6478c-.0686.4352-.0112.7711.1717,1.007.1832.2365.4731.3551.8698.3551ZM405.4694,776.2468l.1717-1.0642h1.934c.6407,0,1.007-.3017,1.0986-.9046l.1028-.6749.2061-1.1902h-.0345c-.122.4197-.3471.7438-.6752.9729-.3281.2285-.7286.3433-1.2014.3433-.6258,0-1.093-.2005-1.4019-.601s-.4104-.9443-.3033-1.631l.5836-3.6047h1.2358l-.5606,3.4793c-.0612.4116,0,.732.1832.9611s.4653.3433.8469.3433c.389,0,.7168-.1217.9841-.3663.267-.244.4309-.5836.492-1.0182l.538-3.3992h1.2358l-1.007,6.4086c-.0993.6029-.37,1.0778-.8124,1.4249-.4427.3471-.9996.5209-1.6707.5209h-1.9455ZM417.787,770.0853h3.221l.5368-1.8545h-5.4659l-1.7081,6.4419h2.1473l.5856-2.0985h3.0257l.4392-1.7081h-3.0257l.244-.7808ZM424.229,772.9158c-.5856,0-1.0249-.3904-1.0249-1.1225,0-.8784.6344-1.7569,1.6105-1.7569.488,0,.8784.244,1.0248.7808l1.9521-.8296c-.2928-1.1713-1.2689-1.9033-2.6353-1.9033-2.7817,0-4.1482,2.1473-4.1482,3.9042s1.2689,2.8305,3.0746,2.8305c1.3665,0,2.3425-.5856,2.9769-1.4153l-1.5129-1.1713c-.3904.4392-.8296.6832-1.3177.6832ZM430.9149,768.2308h-2.1473l-1.7569,6.4419h5.1242l.488-1.8545h-2.9281l1.2201-4.5874ZM439.7481,771.0125c0-1.6593-1.3177-2.9281-3.221-2.9281-2.1961,0-3.8066,1.8057-3.8066,3.8066,0,1.6593,1.3177,2.9281,3.221,2.9281,2.1961,0,3.8066-1.8057,3.8066-3.8066ZM434.9167,771.6957c0-.8296.5856-1.7081,1.5129-1.7081.7808,0,1.1713.5368,1.1713,1.2201,0,.8296-.5856,1.7081-1.5129,1.7081-.7808,0-1.1713-.5368-1.1713-1.2201ZM443.2131,772.2326h1.0737l-.1952.6832c-.1464.0488-.3416.0976-.5856.0976-.6832,0-1.2689-.3904-1.2689-1.2201,0-1.0249.732-1.9033,1.9521-1.9033.5856,0,1.1225.244,1.5129.5856l1.3665-1.3665c-.4392-.5368-1.5129-1.0737-2.7329-1.0737-2.5865,0-4.2946,1.7569-4.2946,3.8554,0,2.0497,1.6105,2.8793,3.221,2.8793.9272,0,1.8545-.2928,2.4889-.6832l.9272-3.3186h-3.1234l-.3416,1.4641ZM450.7775,768.0844c-2.1961,0-3.8066,1.8057-3.8066,3.8066,0,1.6593,1.3177,2.9281,3.221,2.9281,2.1961,0,3.8066-1.8057,3.8066-3.8066,0-1.6593-1.3177-2.9281-3.221-2.9281ZM450.3382,772.9158c-.7808,0-1.1713-.5368-1.1713-1.2201,0-.8296.5856-1.7081,1.5129-1.7081.7808,0,1.1713.5368,1.1713,1.2201,0,.8296-.5856,1.7081-1.5129,1.7081ZM437.9424,767.4987c-.0488.2928.0976.488.4392.488s.5368-.1952.6344-.488c.0488-.244-.0976-.488-.4392-.488s-.5856.244-.6344.488ZM432.1349,765.4978c-.4392,0-.732.244-.7808.5856s.0976.5856.5368.5856.732-.244.7808-.5856c.0976-.3416-.0976-.5856-.5368-.5856ZM433.0134,767.3035c-.0976.5368.1464.8784.8296.8784.6344,0,1.0737-.3904,1.1713-.8784s-.1464-.8784-.8296-.8784c-.6832,0-1.0737.3904-1.1713.8784ZM439.6017,777.552l-2.4401-1.8057h-1.5129l4.2458,3.1722,1.6105-3.1722h-.976l-.9272,1.8057ZM425.8394,767.1571l-2.0009-1.4641,23.1323-2.7817-2.1473,4.2458h1.0248l2.6841-5.3195-26.9877,3.221,2.7817,2.0985h1.5129ZM338.7186,785.7853l.6088-3.8315h2.32l-.084.5194h-1.7636l-.1837,1.1445h1.6272l-.084.5248h-1.6166l-.2573,1.6428h-.5668ZM342.97,785.8377c-.3568,0-.6228-.1005-.7978-.3019-.175-.201-.2345-.473-.1784-.8161l.2677-1.7006c.056-.3429.2029-.6148.4408-.8161.2379-.201.5355-.3019.8923-.3019s.6228.1.7979.2993c.1748.1993.2361.4707.1837.8136l-.2677,1.7057c-.0561.3431-.2039.6151-.4435.8161-.2398.2013-.5381.3019-.895.3019ZM343.0487,785.3339c.1925,0,.3483-.0524.4672-.1575.119-.1051.1942-.2571.2257-.4568l.2678-1.7006c.0315-.1993.0051-.3517-.0787-.4565-.084-.1051-.2223-.1575-.4148-.1575s-.3473.0524-.4645.1575c-.1173.1048-.1916.2571-.2231.4565l-.2677,1.7006c-.0315.1996-.0053.3517.0787.4568s.2204.1575.4094.1575ZM344.9961,785.7853l.6088-3.8315h1.202c.2379,0,.4391.0464.6036.139.1645.0928.2835.223.357.391s.091.3656.0524.5932c-.0384.2591-.14.4838-.3044.6746-.1645.1905-.3656.3209-.6036.391l.5354,1.6428h-.6194l-.4777-1.5748h-.5406l-.2466,1.5748h-.5668ZM345.8883,783.7068h.6352c.1889,0,.349-.0558.4803-.168.1313-.1119.2107-.2623.2388-.4514.0316-.1925,0-.3454-.0944-.4593-.0945-.1136-.2362-.1706-.4252-.1706h-.6352l-.1995,1.2493ZM349.545,785.7853l.6088-3.8315h1.2544c.3709,0,.6508.1048.8399.315.1889.2099.2553.4898.1993.8398-.0384.2344-.1216.4383-.2493.6114s-.2905.307-.4881.4015c-.1978.0945-.419.1418-.6639.1418h-.6928l-.2415,1.5221h-.5668ZM350.432,783.754h.6928c.1924,0,.3568-.0587.4934-.176.1364-.117.2204-.2737.2519-.4696s-.0017-.3525-.0997-.4699-.245-.1757-.441-.1757h-.6876l-.2099,1.2911ZM352.7466,785.7853l.6088-3.8315h2.2518l-.0787.5038h-1.6954l-.1731,1.0867h1.5115l-.0787.4986h-1.5115l-.1942,1.2387h1.6901l-.0787.5038h-2.2518ZM355.8434,785.7853l.6088-3.8315h1.202c.2379,0,.4391.0464.6036.139.1645.0928.2835.223.357.391s.091.3656.0524.5932c-.0384.2591-.14.4838-.3044.6746-.1645.1905-.3656.3209-.6036.391l.5354,1.6428h-.6194l-.4777-1.5748h-.5406l-.2466,1.5748h-.5668ZM356.7356,783.7068h.6352c.1889,0,.349-.0558.4803-.168.1313-.1119.2107-.2623.2388-.4514.0316-.1925,0-.3454-.0944-.4593-.0945-.1136-.2362-.1706-.4252-.1706h-.6352l-.1995,1.2493ZM360.1316,785.8377c-.385,0-.6736-.0951-.8661-.2859-.1924-.1908-.2641-.4505-.2151-.7794h.5668c-.028.1748.0105.3121.1155.4121.1051.0997.266.1495.483.1495.2029,0,.3701-.049.5012-.1469.1313-.098.2109-.2327.2389-.4044.0209-.1504.0007-.2788-.0604-.3856-.0614-.1068-.1583-.1811-.2913-.2233l-.4566-.1364c-.266-.0803-.4619-.217-.5879-.4095-.126-.1922-.1697-.4197-.1313-.6823.035-.2099.1121-.3935.2309-.551s.2729-.2799.4619-.3673.4024-.1313.6404-.1313c.3498,0,.6158.0954.7978.2859.182.1908.2485.4437.1995.7586h-.5668c.0279-.168-.0027-.3001-.092-.3964-.0891-.0963-.2301-.1444-.4225-.1444-.1889,0-.343.0447-.4619.1338-.119.0894-.1889.2144-.21.3753-.0245.1506-.007.2791.0525.3859s.1575.1811.2939.223l.4672.1469c.2624.0806.4558.2173.5801.4095.1242.1925.1653.4217.1233.6877-.035.217-.1155.4058-.2415.5667-.1259.1612-.2878.2862-.4855.3753-.1976.0894-.419.1338-.6639.1338ZM363.2651,785.8377c-.3568,0-.6228-.1005-.7978-.3019-.175-.201-.2345-.473-.1784-.8161l.2677-1.7006c.056-.3429.2029-.6148.4408-.8161.2379-.201.5355-.3019.8923-.3019s.6228.1.7979.2993c.1748.1993.2361.4707.1837.8136l-.2677,1.7057c-.0561.3431-.2039.6151-.4435.8161-.2398.2013-.5381.3019-.895.3019ZM363.3439,785.3339c.1925,0,.3483-.0524.4672-.1575.119-.1051.1942-.2571.2257-.4568l.2678-1.7006c.0315-.1993.0051-.3517-.0787-.4565-.084-.1051-.2223-.1575-.4148-.1575s-.3473.0524-.4645.1575c-.1173.1048-.1916.2571-.2231.4565l-.2677,1.7006c-.0315.1996-.0053.3517.0787.4568s.2204.1575.4094.1575ZM365.2754,785.7853l.6088-3.8315h.7086l.6194,3.186c.007-.098.0165-.217.0289-.3571.0121-.1398.0271-.2851.0446-.4354.0175-.1506.0367-.2888.0577-.4146l.315-1.9788h.525l-.609,3.8315h-.7085l-.6141-3.186c-.0071.0945-.0167.209-.0289.3437s-.0272.2757-.0446.4226c-.0177.1469-.0367.2833-.0578.4095l-.315,2.0102h-.5301ZM368.2252,785.7853l1.5851-3.8315h.7454l.3726,3.8315h-.5616l-.0735-.9711h-1.0865l-.3884.9711h-.5932ZM369.3852,784.3418h.8714l-.0893-1.1023c-.0175-.1959-.0298-.3654-.0367-.5089-.0071-.1435-.0105-.2432-.0105-.2993-.0175.0561-.0517.1558-.1024.2993s-.1146.3112-.1915.5038l-.441,1.1075ZM371.7208,785.7853l.6088-3.8315h.567l-.525,3.3118h1.6744l-.0787.5197h-2.2465ZM376.6785,785.8377c-.3673,0-.6342-.1005-.8003-.3019-.1663-.201-.2214-.475-.1654-.8213l.4357-2.7608h.567l-.4357,2.7554c-.0315.1962-.008.35.0708.4619.0787.1122.2144.168.4068.168.1925,0,.3473-.0558.4646-.168.1172-.1119.1915-.2657.2231-.4619l.4355-2.7554h.567l-.4357,2.7608c-.056.35-.2003.6245-.433.8241-.2328.1993-.5328.299-.9003.299ZM379.8435,785.8377c-.385,0-.6736-.0951-.8661-.2859-.1924-.1908-.2641-.4505-.2151-.7794h.5668c-.028.1748.0105.3121.1155.4121.1051.0997.266.1495.483.1495.2029,0,.3701-.049.5012-.1469.1313-.098.2109-.2327.2389-.4044.0209-.1504.0007-.2788-.0604-.3856-.0614-.1068-.1583-.1811-.2913-.2233l-.4566-.1364c-.266-.0803-.4619-.217-.5879-.4095-.126-.1922-.1697-.4197-.1313-.6823.035-.2099.1121-.3935.2309-.551s.2729-.2799.4619-.3673.4024-.1313.6404-.1313c.3498,0,.6158.0954.7978.2859.182.1908.2485.4437.1995.7586h-.5668c.0279-.168-.0027-.3001-.092-.3964-.0891-.0963-.2301-.1444-.4225-.1444-.1889,0-.343.0447-.4619.1338-.119.0894-.1889.2144-.21.3753-.0245.1506-.007.2791.0525.3859s.1575.1811.2939.223l.4672.1469c.2624.0806.4558.2173.5801.4095.1242.1925.1653.4217.1233.6877-.035.217-.1155.4058-.2415.5667-.1259.1612-.2878.2862-.4855.3753-.1976.0894-.419.1338-.6639.1338ZM381.9062,785.7853l.6088-3.8315h2.2518l-.0787.5038h-1.6954l-.1731,1.0867h1.5115l-.0787.4986h-1.5115l-.1942,1.2387h1.6901l-.0787.5038h-2.2518ZM386.9426,785.8377c-.3568,0-.6228-.1005-.7978-.3019-.175-.201-.2345-.473-.1784-.8161l.2677-1.7006c.056-.3429.2029-.6148.4408-.8161.2379-.201.5355-.3019.8923-.3019s.6228.1.7979.2993c.1748.1993.2361.4707.1837.8136l-.2677,1.7057c-.0561.3431-.2039.6151-.4435.8161-.2398.2013-.5381.3019-.895.3019ZM387.0213,785.3339c.1925,0,.3483-.0524.4672-.1575.119-.1051.1942-.2571.2257-.4568l.2678-1.7006c.0315-.1993.0051-.3517-.0787-.4565-.084-.1051-.2223-.1575-.4148-.1575s-.3473.0524-.4645.1575c-.1173.1048-.1916.2571-.2231.4565l-.2677,1.7006c-.0315.1996-.0053.3517.0787.4568s.2204.1575.4094.1575ZM388.9529,785.7853l.6088-3.8315h.7086l.6194,3.186c.007-.098.0165-.217.0289-.3571.0121-.1398.0271-.2851.0446-.4354.0175-.1506.0367-.2888.0577-.4146l.315-1.9788h.525l-.609,3.8315h-.7085l-.6141-3.186c-.0071.0945-.0167.209-.0289.3437s-.0272.2757-.0446.4226c-.0177.1469-.0367.2833-.0578.4095l-.315,2.0102h-.5301ZM392.249,785.7853l.6088-3.8315h.567l-.525,3.3118h1.6744l-.0787.5197h-2.2465ZM396.1174,785.7853l.2204-1.4119-.7506-2.4197h.5774l.4462,1.4486c.0279.0945.0498.1837.0656.2677.0157.084.0253.1469.0288.1888.0175-.0419.0464-.1048.0867-.1888.0402-.084.0883-.1731.1442-.2677l.8976-1.4486h.5984l-1.5275,2.4197-.2204,1.4119h-.5668ZM399.217,785.7853l.6088-3.8315h.7086l.6192,3.186c.0071-.098.0165-.217.029-.3571.012-.1398.0271-.2851.0444-.4354.0177-.1506.037-.2888.0578-.4146l.315-1.9788h.5248l-.6088,3.8315h-.7085l-.6141-3.186c-.0071.0945-.0167.209-.0289.3437s-.0272.2757-.0446.4226c-.0177.1469-.0367.2833-.0578.4095l-.315,2.0102h-.5301ZM403.5053,785.8377c-.3571,0-.6231-.1005-.7979-.3019-.1751-.201-.2344-.473-.1785-.8161l.2677-1.7006c.0561-.3429.203-.6148.4411-.8161.2378-.201.5354-.3019.8922-.3019.3571,0,.6228.1.7979.2993.1748.1993.2361.4707.1837.8136l-.2677,1.7057c-.0561.3431-.2039.6151-.4437.8161-.2395.2013-.5379.3019-.8947.3019ZM403.5839,785.3339c.1925,0,.3483-.0524.4673-.1575.1187-.1051.1942-.2571.2255-.4568l.2677-1.7006c.0316-.1993.0054-.3517-.0786-.4565-.084-.1051-.2224-.1575-.4146-.1575-.1925,0-.3474.0524-.4647.1575-.117.1048-.1914.2571-.223.4565l-.2677,1.7006c-.0316.1996-.0051.3517.0789.4568.0837.1051.2204.1575.4092.1575ZM406.3814,785.7853l.5248-3.3121h-1.0234l.084-.5194h2.6193l-.084.5194h-1.0289l-.5248,3.3121h-.567ZM409.5178,785.7853l.6088-3.8315h2.32l-.084.5194h-1.7636l-.1837,1.1445h1.6272l-.084.5248h-1.6166l-.2571,1.6428h-.567ZM413.7694,785.8377c-.3571,0-.6231-.1005-.7979-.3019-.1751-.201-.2344-.473-.1785-.8161l.2677-1.7006c.0561-.3429.203-.6148.4411-.8161.2378-.201.5354-.3019.8922-.3019.3571,0,.6228.1.7979.2993.1748.1993.2361.4707.1837.8136l-.2677,1.7057c-.0561.3431-.2039.6151-.4437.8161-.2395.2013-.5379.3019-.8947.3019ZM413.848,785.3339c.1925,0,.3483-.0524.4673-.1575.1187-.1051.1942-.2571.2255-.4568l.2677-1.7006c.0316-.1993.0054-.3517-.0786-.4565-.084-.1051-.2224-.1575-.4146-.1575-.1925,0-.3474.0524-.4647.1575-.117.1048-.1914.2571-.223.4565l-.2677,1.7006c-.0316.1996-.0051.3517.0789.4568.0837.1051.2204.1575.4092.1575ZM415.7952,785.7853l.6088-3.8315h1.202c.2381,0,.4391.0464.6037.139.1643.0928.2833.223.3568.391s.0911.3656.0527.5932c-.0387.2591-.1401.4838-.3044.6746-.1646.1905-.3659.3209-.6037.391l.5354,1.6428h-.6194l-.4776-1.5748h-.5408l-.2466,1.5748h-.567ZM416.6876,783.7068h.635c.1891,0,.3491-.0558.4804-.168.131-.1119.2107-.2623.2386-.4514.0316-.1925,0-.3454-.0945-.4593-.0943-.1136-.2361-.1706-.4252-.1706h-.635l-.1993,1.2493ZM420.905,785.8377c-.3602,0-.6308-.1005-.8107-.3019-.1803-.201-.2423-.473-.1865-.8161l.2677-1.7006c.0561-.3463.2056-.6194.4488-.8187s.545-.2993.9056-.2993c.3568,0,.6253.1008.8056.3019.1803.2013.2423.4733.1865.8161h-.567c.0313-.1993.0026-.3517-.0866-.4565-.0894-.1051-.2284-.1575-.4175-.1575-.1925,0-.3508.0524-.475.1575-.1242.1048-.2019.2554-.2335.4514l-.2677,1.7057c-.0316.1996-.0026.3517.0866.4568.0894.1051.2301.1575.4226.1575s.35-.0524.4724-.1575.1993-.2571.2309-.4568h.5667c-.0347.2275-.1145.4252-.2386.5932s-.2808.2976-.4699.3884c-.1888.0908-.4024.1364-.6404.1364ZM424.0335,785.8377c-.3571,0-.6231-.1005-.7979-.3019-.1751-.201-.2344-.473-.1785-.8161l.2677-1.7006c.0561-.3429.203-.6148.4411-.8161.2378-.201.5354-.3019.8922-.3019.3571,0,.6228.1.7979.2993.1748.1993.2361.4707.1837.8136l-.2677,1.7057c-.0561.3431-.2039.6151-.4437.8161-.2395.2013-.5379.3019-.8947.3019ZM424.1121,785.3339c.1925,0,.3483-.0524.4673-.1575.1187-.1051.1942-.2571.2255-.4568l.2677-1.7006c.0316-.1993.0054-.3517-.0786-.4565-.084-.1051-.2224-.1575-.4146-.1575-.1925,0-.3474.0524-.4647.1575-.117.1048-.1914.2571-.223.4565l-.2677,1.7006c-.0316.1996-.0051.3517.0789.4568.0837.1051.2204.1575.4092.1575ZM425.9653,785.7853l.6088-3.8315h.6874l.1837,1.2282c.0211.119.0367.2301.0473.3332.0105.1034.0194.1828.0262.2389.0177-.0561.0473-.1364.0894-.2415.0419-.1051.0908-.217.1469-.336l.5667-1.2228h.7088l-.6088,3.8315h-.5354l.2045-1.2911c.0245-.168.0578-.3525.1-.5539.0419-.201.0874-.4041.1364-.6088s.0963-.3998.1418-.5852c.0453-.1854.0874-.3483.1259-.4881l-.8554,1.8632h-.5513l-.2833-1.8632c-.0037.1364-.0105.2947-.0211.475s-.0236.3719-.0393.5747c-.0157.203-.035.4069-.0578.6114-.0228.2047-.0481.3964-.076.5749l-.2047,1.2911h-.5405ZM429.1145,785.7853l.6088-3.8315h.6874l.1837,1.2282c.0211.119.0367.2301.0473.3332.0105.1034.0194.1828.0262.2389.0177-.0561.0473-.1364.0894-.2415.0419-.1051.0908-.217.1469-.336l.5667-1.2228h.7088l-.6088,3.8315h-.5354l.2045-1.2911c.0245-.168.0578-.3525.1-.5539.0419-.201.0874-.4041.1364-.6088s.0963-.3998.1418-.5852c.0453-.1854.0874-.3483.1259-.4881l-.8554,1.8632h-.5513l-.2833-1.8632c-.0037.1364-.0105.2947-.0211.475s-.0236.3719-.0393.5747c-.0157.203-.035.4069-.0578.6114-.0228.2047-.0481.3964-.076.5749l-.2047,1.2911h-.5405ZM432.4107,785.7853l.6088-3.8315h2.2516l-.0786.5038h-1.6955l-.1731,1.0867h1.5115l-.0786.4986h-1.5118l-.1942,1.2387h1.6901l-.0786.5038h-2.2516ZM435.5073,785.7853l.6088-3.8315h1.202c.2381,0,.4391.0464.6037.139.1643.0928.2833.223.3568.391s.0911.3656.0527.5932c-.0387.2591-.1401.4838-.3044.6746-.1646.1905-.3659.3209-.6037.391l.5354,1.6428h-.6194l-.4776-1.5748h-.5408l-.2466,1.5748h-.567ZM436.3997,783.7068h.635c.1891,0,.3491-.0558.4804-.168.131-.1119.2107-.2623.2386-.4514.0316-.1925,0-.3454-.0945-.4593-.0943-.1136-.2361-.1706-.4252-.1706h-.635l-.1993,1.2493ZM439.8007,785.8377c-.3602,0-.6308-.1005-.8107-.3019-.1803-.201-.2423-.473-.1865-.8161l.2677-1.7006c.0561-.3463.2056-.6194.4488-.8187s.545-.2993.9056-.2993c.3568,0,.6253.1008.8056.3019.1803.2013.2423.4733.1865.8161h-.567c.0313-.1993.0026-.3517-.0866-.4565-.0894-.1051-.2284-.1575-.4175-.1575-.1925,0-.3508.0524-.475.1575-.1242.1048-.2019.2554-.2335.4514l-.2677,1.7057c-.0316.1996-.0026.3517.0866.4568.0894.1051.2301.1575.4226.1575s.35-.0524.4724-.1575.1993-.2571.2309-.4568h.5667c-.0347.2275-.1145.4252-.2386.5932s-.2808.2976-.4699.3884c-.1888.0908-.4024.1364-.6404.1364ZM441.8792,785.7853l.0789-.5038h.7768l.4459-2.824h-.7766l.0837-.5038h2.1258l-.084.5038h-.7766l-.4462,2.824h.7768l-.0789.5038h-2.1258ZM444.7399,785.7853l1.585-3.8315h.7452l.3728,3.8315h-.5616l-.0735-.9711h-1.0867l-.3884.9711h-.5929ZM445.8998,784.3418h.8714l-.0894-1.1023c-.0174-.1959-.0296-.3654-.0367-.5089-.0068-.1435-.0103-.2432-.0103-.2993-.0177.0561-.0518.1558-.1025.2993s-.1148.3112-.1916.5038l-.4408,1.1075ZM448.2354,785.7853l.6088-3.8315h.567l-.5248,3.3118h1.6741l-.0786.5197h-2.2465ZM453.1932,785.8377c-.3676,0-.6345-.1005-.8005-.3019-.1663-.201-.2213-.475-.1654-.8213l.4357-2.7608h.567l-.4357,2.7554c-.0316.1962-.008.35.0709.4619.0786.1122.2141.168.4066.168s.3474-.0558.4645-.168c.1173-.1119.1916-.2657.2233-.4619l.4357-2.7554h.5667l-.4357,2.7608c-.0558.35-.2002.6245-.4328.8241-.2329.1993-.5328.299-.9001.299ZM456.3581,785.8377c-.385,0-.6738-.0951-.866-.2859-.1925-.1908-.2643-.4505-.2153-.7794h.567c-.0282.1748.0105.3121.1153.4121.1051.0997.266.1495.483.1495.2028,0,.3699-.049.5012-.1469s.2107-.2327.2389-.4044c.0211-.1504.0009-.2788-.0604-.3856s-.1583-.1811-.2913-.2233l-.4568-.1364c-.266-.0803-.4619-.217-.5878-.4095-.1259-.1922-.1697-.4197-.1313-.6823.035-.2099.1119-.3935.2309-.551s.2731-.2799.4619-.3673c.1891-.0874.4024-.1313.6404-.1313.3497,0,.6157.0954.7979.2859.1817.1908.2483.4437.1993.7586h-.567c.0279-.168-.0026-.3001-.0917-.3964-.0894-.0963-.2301-.1444-.4226-.1444-.1891,0-.3429.0447-.4619.1338-.119.0894-.1891.2144-.2099.3753-.0245.1506-.0071.2791.0524.3859s.1575.1811.2939.223l.4673.1469c.2623.0806.4556.2173.5798.4095.1242.1925.1654.4217.1236.6877-.035.217-.1156.4058-.2415.5667-.1262.1612-.2879.2862-.4855.3753-.1979.0894-.4192.1338-.6641.1338ZM458.4209,785.7853l.6088-3.8315h2.2516l-.0786.5038h-1.6955l-.1731,1.0867h1.5115l-.0786.4986h-1.5118l-.1942,1.2387h1.6901l-.0786.5038h-2.2516Z" style="fill: #ccc;"/>
  <g>
    <path id="a" d="M704.2098,400.1112c.1239-.2411.0929-.3656.2477-.6378.7394-1.5746,1.1302-3.2916,1.1458-5.0325.0074-1.4716-.3238-2.9251-.9677-4.2469-.4134-.6835-.9217-1.3042-1.5096-1.8434l1.44-4.2002c.1989-.7856.3003-1.5928.3019-2.4035.0148-2.9676-1.435-5.7498-3.8709-7.4282-3.3395-2.2707-7.734-2.2086-11.0087.1556-2.5625,1.6568-4.343,4.6669-6.0308,7.6459-1.0614-1.375-2.8791-1.9138-4.5134-1.3379-2.8954.7156-2.5237,1.2679-4.8773,4.6669-8.3687,12.2507-19.4786,31.5251-32.2671,32.1866-2.7561-.3345-3.6077-1.1356-6.9675-6.3859-27.6457-44.2576-61.6244-70.4706-106.6182-102.6724-2.6168-2.248-8.3223-11.1773-13.8421-19.7959-9.5455-14.926-20.3688-31.8284-31.3069-39.5674-8.3687-6.0748-17.2945-9.3338-25.9189-12.4455-10.4358-3.7802-20.307-7.3504-29.1788-15.8594-3.538-3.4847-6.7353-8.1593-10.4203-13.5726-7.5171-11.0218-17.109-24.4862-35.38-36.3705.6566-3.5302,1.0012-7.1117,1.0296-10.7028,0-5.4448-1.4941-13.9226-3.9173-18.4344-1.5235-3.0045-4.2398-5.2221-7.4785-6.1059-4.9857-1.2134-12.9985.6223-18.3865,3.0568,10.6526-31.6033,35.6121-52.4796,48.5944-63.2753,7.2153-5.997,11.3261-9.4194,11.3261-14.0474-.0025-.788-.1066-1.5723-.3097-2.3335-1.8657-8.4705-11.2874-8.9216-15.3134-9.1083h-.7742c-5.4966-.14-23.0628.4667-35.7895,10.2051-3.5599.9691-6.9531,2.4744-10.0642,4.4647-.0723-.5518-.1941-1.0959-.3638-1.6256-1.5484-3.329-5.5741-6.5959-12.2857-5.7403-12.603,1.8979-19.6874,5.1803-24.4944,7.8249l-1.2619.7778c-7.2929,4.0918-13.1572,10.3371-16.7998,17.8895-5.0398,3.7414-10.668,9.4817-12.813,18.1077-6.0956,4.0931-9.8873,10.8576-10.2112,18.2162-3.1281,3.605-5.3079,7.9397-6.3405,12.6089-5.4514-4.8535-12.1632-8.0501-19.3537-9.2172l-.5419-.0856h-.5497c-2.3689-.0467-7.3005-.14-11.0396,3.648l-.9522.9645-.5651,1.2367c-.5131,1.1414-.7771,2.38-.7742,3.6324.0972,2.2967.8855,4.5098,2.2605,6.347l.4181.63c.1006.2333,1.3238,6.1759,1.3238,6.1759l.7742,6.5259c1.9819,10.7417,6.5727,16.3342,12.3872,21.343-1.1911,3.3208-1.8546,6.8092-1.9664,10.3372,0,5.1958,1.3703,9.4427,2.578,13.2226,0,0,.3174,1.0034.5342,1.7034.0811.6632.1225,1.3308.1239,1.999,0,7.3737-2.8412,21.7794-5.0476,30.2568l-.8593,2.8157c-1.6645,5.1881-4.645,14.5141-4.645,24.7895-.0218,3.8222.4334,7.6322,1.3548,11.3406,1.9354,6.487,6.9055,14.2423,13.8269,17.5791l3.8709,1.5556c3.4837,1.3223,4.5289,1.7189,6.0153,4.1147,1.2773,2.0068,1.8116,8.4238,1.8116,15.129.0345,4.5623-.2241,9.122-.7742,13.6508l-.0697.4978v.5522c.0384,3.6603,2.2832,6.9311,5.6746,8.2683,2.9264,1.1667,7.3546,1.0034,10.9778-2.9402,2.3413-2.4226,4.4175-5.0902,6.1934-7.9571.48.7.5806,1.6568,1.2541,2.2401l.3019.28.3484.2334c1.2625.8076,2.7159,1.2639,4.2114,1.3223-4.467,3.049-9.9171,6.5025-17.256,10.8895-42.1925,6.6815-70.1626,22.1212-75.4117,41.0305-67.0124,32.7537-110.2573,101.5523-110.2573,176.5848,0,108.3742,87.744,196.5592,195.5908,196.5592s195.7192-88.1815,195.7192-196.5592c-.0767-25.2772-5.0134-50.3025-14.5387-73.6989l2.5237-1.1901c.6426.7078,1.3005,1.4156,1.3005,1.4156,2.4541,2.9557,7.3237,6.5259,11.2564,6.6348,2.1446.0845,4.2921-.0484,6.4102-.3967l.449-.1244c.3329.5678,2.1832,3.8035,2.1832,3.8035,3.8709,5.9581,10.1184,5.7948,13.4781,5.7092,2.0825-.0544,3.5766-.0933,5.4192.7078,1.8425.8012,2.6245,3.5547,3.538,9.5827l.7742,4.4024c.7332,3.303,2.6373,6.2253,5.3573,8.2216l.0542.0544c.3019,1.4934,1.2387,6.3315,1.2387,6.3315.6968,5.2191,1.4941,11.1384,6.9675,13.4792-.1239-.0544.1471-.0544.5187-.0467.8748,4.3714,1.0684,9.6839,6.1391,12.7489,1.2915.6294,2.7065.9616,4.1418.9723.0542.2334.1394.4978.1394.4978,1.3161,6.7125,6.6191,8.4083,8.6243,9.0538h.0929c.3019.5056,3.3212,5.4448,3.3212,5.4448,2.1289,3.8502,4.1109,7.4982,6.7739,9.6839l1.2077,1.0112,1.5484.4356c.7576.205,1.538.3121,2.3225.3189,6.4489,8.2605,24.1233,34.7534,24.1233,59.3481,0,1.1667-.0387,2.3335-.1239,3.5002-1.1535,16.7391-7.9662,25.2866-12.4793,30.9417-5.1714,6.4715-5.4192,14.0474-5.4192,17.0261v.4122c.6348,7.2259,4.405,9.6139,7.1455,11.3562,2.9186,1.5556,11.148,5.0403,22.6906.2022,9.53-3.998,11.5584-11.1695,12.8901-15.9142.6193-2.1623,1.0296-3.5235,1.7187-4.2002,4.3973-4.2936,9.5378-10.5084,10.1958-20.636.0697-.8245.1006-1.6723.1006-2.5513,0-8.556-2.7328-19.2826-5.3495-28.8498-1.0838-4.0602-2.5393-13.6356-2.8412-22.3627,3.7314,5.1803,6.8591,10.3684,8.7094,13.5656l.929,1.5556c2.4696,4.2002,9.5223,16.2327,9.5223,27.9549.0043,1.2835-.0888,2.5654-.2787,3.8347-1.2851,7.8871-3.7548,12.4455-6.6191,17.6876-2.9728,5.4448-6.3482,11.6673-8.1985,21.6393-.2281,1.3204-.3447,2.6578-.3484,3.998,0,5.4448,2.0438,10.205,5.8605,13.4559,5.3418,4.5658,13.3696,5.4448,21.9941,2.4268,10.6835-3.889,18.0155-16.0461,20.3291-32.5833,1.378-.9801,2.787-2.0068,2.787-2.0068,2.3378-2.6627,3.595-6.1106,3.5225-9.6605-.017-1.9257-.2771-3.8415-.7742-5.7015-5.7057-23.0628-6.7043-34.3334-6.7043-43.4024,0-2.4346.062-4.7214.1471-7.0004l-.4568-19.6559c-.5118-4.9394-2.6317-9.5709-6.0308-13.1759l-4.2269-4.8536c-3.0966-3.189-6.9675-7.1326-7.7417-10.6173-1.0838-4.5348-1.5484-10.1739-1.5484-16.4824,0-11.0061,1.2774-24.058,2.5237-36.8302,1.3548-13.7126,2.6709-26.9982,2.6709-38.7507-.0022-4.7367-.3125-9.4681-.929-14.1641,31.8109.9956,46.2492-31.9299,51.1577-43.1609l.8361-1.8901c.7947-1.9802,1.2274-4.0881,1.2804-6.2225.0604-2.4682-.8755-4.8567-2.5965-6.6192l-.0003.0039ZM318.1151,287.3268c.4335-3.4069.8361-5.7403,1.2309-8.3149.8554.3168,1.7436.536,2.6477.6534.6912,4.0561,3.0707,7.6238,6.5417,9.8084l1.5484,6.2615c.0852.1867.2942.4278.3871.6223-2.098,1.6879-4.4128,3.6557-7.3623,6.2848l-4.3741,3.8891c-4.018,3.5935-7.2694,6.4792-10.49,9.1783,4.8928-8.0505,8.7403-19.7096,9.8707-28.3516,0,0,0-.0311,0-.0312Z" style="fill: #fff;"/>
    <path id="Path" d="M100.6943,553.4431c0-104.3991,84.2683-189.0105,188.1238-189.0105,103.9394,0,188.2171,84.6429,188.2171,189.0105s-84.2765,189.0105-188.2171,189.0105c-103.8543,0-188.1238-84.6032-188.1238-189.0105Z" style="fill: red;"/>
    <path id="Path1" data-name="Path" d="M123.4786,553.4431c0-91.7833,74.1423-166.2242,165.5242-166.2242s165.4659,74.4293,165.4659,166.2242-74.1341,166.1776-165.4658,166.1776-165.5242-74.3826-165.5242-166.1776Z" style="fill: #fff;"/>
    <path id="Path2" data-name="Path" d="M135.7725,553.4314c0-85.0232,68.6376-153.9619,153.2852-153.9619s153.1335,68.962,153.1335,153.9619-68.6306,153.9385-153.1918,153.9385-153.2268-68.9071-153.2268-153.9385Z" style="fill: red;"/>
    <path id="Path3" data-name="Path" d="M698.3645,404.7315c-.4875-.2162-1.0342-.2574-1.5484-.1167-.4335.07-.8439.1322-1.0529-.0545-.2095-.2832-.296-.6395-.24-.9878.2782-2.6807,1.1398-5.2671,2.5237-7.5759.3697-.7963.3976-1.7102.0774-2.5279-.2124-.4507-.627-.7717-1.1148-.8634-.9206-.1362-1.8431.2351-2.4154.9723-.1935.2334-.4335.3656-.5574.3189-.1239-.0467-.1006-.2178-.1006-.2878.0929-1.7189.96-3.9747,1.8812-6.3625.6562-1.6238,1.2297-3.2801,1.7187-4.9624.228-.7139-.0401-1.4932-.658-1.9134-.8048-.5117-1.839-.4777-2.6089.0856-1.5484,1.0034-2.9728,3.539-4.343,5.9892-1.6413,2.9168-3.3289,5.9348-5.0553,5.9348h-.2013c-.5032-.0545-.6271-.5834-.7742-1.4389-.0489-.797-.3845-1.5489-.9445-2.1156-.2708-.228-.6264-.3273-.9755-.2722-.5314.1324-.9833.4821-1.2464.9645-11.2564,18.2477-23.7126,35.1968-38.4998,35.5771-7.161-.6534-9.4836-4.3091-13.0056-9.855-12.8586-20.5963-27.8697-38.354-47.1628-55.8713-17.3878-15.759-36.332-29.5568-57.4977-44.7325-4.0257-3.329-9.4448-11.8855-15.8244-21.8412-9.1816-14.3508-19.5941-30.615-29.3643-37.5373-7.5946-5.507-15.654-8.4238-24.1852-11.504-10.699-3.8891-21.7537-7.8793-31.7409-17.4543-4.1264-4.0524-7.6566-9.2405-11.3958-14.7323-7.6643-11.2473-17.2023-25.2481-36.9434-36.9072-.4026-.2489-.1161-1.9056.24-3.998.9213-5.3281,2.6244-15.2375-2.1832-25.6681-.3867-.8714-1.0901-1.5614-1.9664-1.929h-.0464c-10.49-1.7346-20.7095,5.787-25.6249,9.396-.8886.7423-1.8542,1.3864-2.88,1.9213v-.0933c6.441-43.8143,39.4133-71.2021,55.2599-84.3628,5.7753-4.7991,8.9571-7.4437,8.5933-8.8205-.7742-3.3524-4.9237-3.5547-8.601-3.7335l-.8361-.0389c-3.4605-.0622-21.2357,0-32.3371,9.505-9.9791,2.1546-17.032,9.3339-20.3291,15.339-6.0695,3.018-14.5153,8.0816-18.0843,17.3295-5.8992,2.839-10.5674,8.3383-13.0056,12.0722,7.6566-20.5426,24.7732-37.6936,30.293-42.1972,1.0761-.9956,1.4632-2.2401.9987-3.2435-.5884-1.2756-2.3225-1.8434-4.7534-1.5556-11.2487,1.7346-17.5897,4.6669-21.8552,7.0004l-1.0374.63c-4.196,2.528-10.5364,6.3548-14.9493,16.4742-7.7417,5.4448-11.4732,10.9439-12.1083,17.8043-6.1526,2.7855-9.8792,9.1754-9.29,15.9294-5.4192,5.3591-7.7417,10.7106-7.3855,16.8394-1.8628,1.8455-3.3903,4.0041-4.5134,6.3782-4.8321-8.0422-12.9799-13.5026-22.2262-14.8957-1.858,0-4.1805-.0778-5.7134,1.4701v.0622c-.4335.9489.1548,1.7968.8284,2.7768.4708.6484.8681,1.3476,1.1845,2.0846,1.143,2.639,1.7635,5.4764,1.827,8.3538.1129,1.9173.3378,3.8262.6735,5.717,1.9277,10.4072,6.5262,14.6226,13.2926,19.8496.7355.7778.4026,1.3923-.2864,2.5357l-.0774.1322c-4.0102,9.4117-2.0361,15.5175-.1316,21.4212.271.8478.5419,1.6956.7742,2.528,1.4168,10.1117-5.0011,35.2971-5.063,35.5538-.209.7778-.5651,1.929-.9832,3.2202-2.2064,6.8992-6.3095,19.7411-3.1586,32.0466,1.3935,4.6669,5.2411,10.5239,9.9094,12.7792,1.1845.5134,2.2684.9256,3.3212,1.3223,3.8166,1.4546,6.8437,2.6057,9.623,7.1015,4.5134,6.9615,2.6089,29.7832,2.067,33.7185.0143.6455.4241,1.215,1.0296,1.4312.4258.1711,1.5484.4045,2.9264-1.0812,4.9355-5.0902,8.5325-11.3344,10.4667-18.1695,1.1888-4.1624,1.8775-8.4527,2.0516-12.7792,0-.3889,0-.7778.0619-1.0034,2.3845,3.8891,2.7483,10.1894,3.0966,15.7509.2787,4.6669.5109,8.6572,1.9741,9.9327.4428.2893,1.0081.3102,1.4709.0545,4.1805-1.859,11.5042-17.6025,13.2774-31.1132,2.5625-19.7096,5.125-29.705,7.6255-29.705h.0929c1.3393.1089,1.4941,4.2469,1.6103,7.2726,0,.6223.0464,1.2212.0774,1.7656.3871,7.1171,1.5019,7.3971,4.9314,7.2259h.9213c2.5161.2022,2.7018,2.8935,2.8412,4.8536v.1633c.2555,3.298,2.3225,4.6669,4.3663,5.927.3638.2334.72.4667,1.0451.6923,1.0451.9723,1.2232,2.489,1.4168,4.0991.0962,1.3538.4099,2.6829.929,3.9357.7917,2.0466,2.3673,3.6885,4.3741,4.5581h.0697c.48,0,.8826.2489.9135.4356.031.1867-.1394.2567-.3793.3656-2.578.5289-6.3094,3.5702-13.7103,10.1661-1.5484,1.4001-3.0348,2.7146-4.4128,3.9435-13.5399,12.1107-18.6187,16.6528-42.014,30.6617-42.2928,6.4092-70.5196,21.7794-71.9045,39.1637v.1245l.1239.0622c8.3068,4.0369,21.5997,1.6256,29.1554-2.9168,3.298-1.9834,5.1792-4.2236,5.3262-6.3315,3.2437-2.0223,10.6526-4.5581,13.7651-5.4448.2468-.1082.5274-.1082.7742,0,.2942.2022.3406.7778.3948,1.5167.1161,1.5089.271,3.5702,3.0966,3.749h.6658c5.6669-.2878,11.5274-.5834,17.0704-3.5157l.9522-.5367c3.0116-1.7189,5.4192-3.1113,7.6255-3.539h.0697l.3174-.3967c61.8694.0044,119.7766,30.6022,154.8369,81.8194,1.7881,2.7591,3.8056,5.3611,6.0308,7.7783,1.8942,2.0264,3.9332,3.9111,6.1005,5.6392.6967.9801,1.4168.5133,1.9896.1322.4335-.2878.8439-.56,1.2851-.3889,4.2346,1.5946,5.8682,6.3004,7.0682,9.7384.7277,2.0923,1.2541,3.6091,2.1677,3.6091.9858-.1695,1.8681-.7159,2.4618-1.5246.4602-.4986,1.0124-.9027,1.6257-1.1901h.271c2.4464,0,4.645,2.6135,6.5418,4.9314,1.7109,2.0613,3.3366,4.0136,5.0011,4.0136h.2322c1.1419-.7289,1.9109-1.9217,2.1057-3.2668.1703-.7312.271-1.1123.689-1.2367,1.3005-.3967,2.16.4978,3.2516,1.6334.7379.8635,1.621,1.5902,2.6089,2.1468h.0697c3.3366.35,4.1573,2.2401,5.0398,4.2391.3342.8777.7875,1.7048,1.3471,2.458,2.067,3.158,4.5212,3.1113,7.6255,3.0102,2.4464-.0622,5.2102-.1322,8.5158,1.3146,5.9534,2.7535,6.9134,9.0927,7.8501,15.2223.2168,1.4079.4181,2.738.6813,4.0291.3969,1.6368,1.3953,3.0622,2.7948,3.9902,1.0705.705,1.8853,1.7393,2.3225,2.948.8045,2.6686,1.3516,5.4087,1.6336,8.1826.5264,3.889.9445,7.0004,2.5548,7.6771.5242.1968,1.1016.1968,1.6257,0,.5804-.1945,1.2079-.1945,1.7883,0,.3638.2022.6968,1.9679,1.0219,3.6791.6658,3.4535,1.5484,8.1826,3.925,10.0339.5789.2599,1.2405.2599,1.8193,0,.5676-.2478,1.2162-.2249,1.7652.0622,2.3921,1.2601,3.1509,4.3869,3.3986,6.1525.4026,2.0146,2.0284,2.5357,3.6077,3.0413,1.1381.3656,2.3225.7778,3.0348,1.7267,1.4554,1.5556,3.027,4.4336,4.5521,7.2026,1.7729,3.228,3.445,6.277,5.0244,7.5759h.0697c.499.2214,1.0841.0388,1.3703-.4278.2555-.3189.4723-.5911,1.3625-.3889.8903.2022,8.6475,9.6994,15.9866,23.4746,6.565,12.3125,14.1291,30.6535,12.8667,48.116-1.3161,18.9944-9.29,29.0131-14.0509,35.0019-3.4218,4.2857-3.8012,9.3338-3.7857,12.834.2632,2.9635,1.4245,3.6947,3.7314,5.157l.1394.0855c1.5484.7778,7.223,3.158,15.8244-.4511,6.2786-2.629,7.5017-6.9537,8.6784-11.1384.7742-2.769,1.5484-5.3903,3.6696-7.4749,3.6696-3.5857,7.4862-8.2683,7.9817-15.8442.5342-7.3659-2.0902-18.271-5.0089-28.9583-1.3935-5.1958-5.365-28.3749-1.7652-39.824.1935-.5678.4877-.9178.8439-.9801s.9445.2411,1.4941.9178c8.3455,7.7783,15.297,19.6477,18.6339,25.3566l.9367,1.6023v.0467c3.0966,5.2503,12.3872,21.2264,10.1648,36.5572-1.5484,9.256-4.5289,14.779-7.4475,20.1529-2.8489,5.2191-5.7908,10.6173-7.4166,19.4459-.7742,4.4491.3174,8.1826,3.0425,10.5006,2.1424,1.7002,4.8204,2.5722,7.5482,2.458,2.4996-.0409,4.9748-.5009,7.3237-1.3612,8.361-3.0413,14.492-14.219,15.9866-29.145.1845-.7695.7825-1.3703,1.5484-1.5556.9552-.3717,1.8037-.9757,2.4696-1.7579,1.8116-2.0613,2.1521-4.6669,1.1226-8.7116-7.4785-30.335-7.1378-41.0771-6.7739-52.4714.3049-6.2749.1937-12.5634-.3329-18.8229-.3614-3.2868-1.7676-6.3689-4.0102-8.7893-1.2661-1.695-2.6696-3.282-4.196-4.7447-3.7237-3.8191-8.3533-8.556-9.6539-14.0008-3.267-13.6659-1.1689-35.0568.8516-55.7464,2.16-22.1679,4.405-45.114.2322-59.2-.3484-1.2989-.4335-2.0379-.2477-2.2013s.8206.1322,1.5484.4278c1.0882.5158,2.2345.8972,3.4141,1.1356,29.8753,4.3247,43.4386-26.7882,48.5477-38.5021l.8593-1.9601c.7664-2.1079,1.3161-4.3557-.5109-5.1958l-.0039.001Z"/>
    <path id="Path4" data-name="Path" d="M283.7782,125.7543c2.965-3.7257,8.9416-5.4448,8.6784-6.627-.5187-1.0889-2.7405-.1089-4.3973,0-.7045.1089-1.6489-.0622-1.5484-.8945,2.8025-9.8394,12.3872-11.6051,15.2749-14.7242.3406-.6067,0-.6067-.7742-1.0267-1.5484-.0622-3.9328,1.6023-3.9328.1556,1.1613-9.8161,13.0604-14.5608,15.297-15.339.5729-.5134.0542-1.1901-.689-1.3146-1.0142.1245-1.8348.7778-1.9741-.5056,1.1535-4.8614,7.6101-8.766,11.7746-10.8428,4.2502-1.7501,12.6579-4.3481,12.6579-3.049,0,.5134-6.5959,3.7335-8.7714,7.0004-1.8116,2.699-3.4605,4.4569-3.5921,8.7116-6.7662,3.329-10.0642,10.8428-10.5519,18.0062-4.7844,2.4735-8.4539,11.1928-6.8823,14.779-5.5121,5.3903-8.2294,13.1607-7.9275,20.9545-11.945,15.7042-8.4075,21.6779,4.7612,26.5396,1.9509.63,3.8012.7778,4.1728-.1945.3716-.9723-1.138-1.5089-1.7264-2.8702-7.1689-16.0227,1.858-24.0498,14.4616-29.4483.9909-.4745.2477-1.6023-1.2309-1.5556-3.4064,0-6.4643.84-6.8823-.2567-1.8425-5.2348,11.6895-16.0776,18.355-18.1392,2.8257-.84,1.6336-2.279.4645-2.0768-1.7806-.1633-4.5366.8789-5.4192-1.4546,1.7032-5.9115,17.9222-13.7441,20.307-15.1523,1.4709-.9256,2.0825-2.6057-5.0862-1.1356-.6735.0933-1.4089.0933-1.0993-.8867,1.3625-4.2547,16.5442-10.2206,24.2622-12.9122,1.2155-.5678,1.5484-2.4813-2.0748-1.7656-1.3161.2022-3.7314,1.0812-4.196.1089.4645-5.7715,17.2408-10.2127,23.225-11.5273,1.3548-.4511,1.6025-1.2289.4258-1.8046-1.9122-.5756-4.9237.9334-3.778-1.0812,4.5134-2.8623,16.4591-2.909,20.601-2.2323,1.1535.21,1.4245.4667,1.5484.7156-1.2851,3.018-21.3594,8.9216-23.8445,21.056-6.0308,2.5201-11.9147,8.276-12.6112,13.2226-3.1664,1.7112-9.4991,6.9459-9.8707,14.1641-3.4528,2.5823-12.5179,10.6717-9.5068,20.4796-4.8385,4.5658-8.5778,9.225-8.392,22.0279.0697,4.4102-5.6359,11.574-11.5119,13.2226-1.6645.6689-1.0064,2.0146.1858,2.3335,9.863,2.9168,19.0212-2.4501,22.5984-5.8725,11.3803-10.8894,18.9676-14.8175,24.0848-15.4557.929-.2489.929.4278,1.0838.9489,1.7166,6.3988,1.7166,13.1397,0,19.5392-3.2361,12.1888-12.5179,17.8428-15.15,21.1727-.4645.4667,1.3005,5.647.3561,8.2993-1.0684,3.368.1394,5.4448,1.3703,5.9581,3.3598,1.2523,5.7443-11.3562,7.7417-11.0373,1.6257.0856,1.3471,2.8468,3.2825,3.8347,1.0296.3578,2.5238.0467,2.7018-1.1045.2477-3.5157,1.5484-12.1258,2.4-13.0522.6116-.7778,2.5238,3.1113,2.6321,5.4915.1394,9.8084-5.3495,18.1462-2.1289,24.8899.7122,1.4546,2.3225,1.3379,3.4605.2645,2.9418-3.1735,4.9624-14.6857,11.5119-16.1394,8.8333-1.9601,17.5663,22.3546,11.3416,28.8498-3.0116,2.5746-6.8127.3034-10.5596,2.3879-4.0257,2.3723-3.685,11.3951-6.441,15.136-1.6336,1.6568-3.5766,1.929-7.3623,2.2323-8.0126.6223-5.5662,23.5995-4.3353,27.6982.7742,2.4346,2.4928,1.9601,3.6232,1.1356,1.1458-.9801,2.0284-5.7092,2.2605-10.1117.3251-1.3923,2.756-1.9446,4.4979-3.6635,1.8812-1.4623.8903-3.0724,2.0284-4.5036,1.6336-1.8356,3.2361-.2178,4.5676-2.2635,3.4528-2.878.9987-7.4049,3.7857-9.3338,4.0953-2.7068,7.7417-1.3534,11.3648-5.3436,2.2219-2.4813,2.5084-7.7316,5.6205-8.6183,16.5828-.4045,33.0722,18.7844,35.898,24.4862,8.1985,17.0494-4.9237,42.7805,4.0489,47.7193,11.2874,6.5882,8.841,19.3911,7.6101,22.6031-2.3922,6.5259-20.4773,14.8642-22.7991,29.9932-1.1689,14.5293,6.3714,11.5195,6.9055,9.7072.5342-1.8123,1.0838-4.2002,1.9741-6.0125.72-1.6101,2.9264-.9023,3.1818.6612.4258,1.3612,3.5302,5.2425,8.121-3.3135,2.8954-5.4448,10.6835-12.4455,16.5209-16.4894,5.8373-4.0447,7.1223-16.9024,8.121-19.8263.7742-2.5201,2.8644-2.5201,3.1818-5.2348s-5.0244-12.0722-1.9045-18.7225c1.4477-2.2168,4.9469-3.788,7.5637-.7312,2.7405,3.189-1.6954,13.6123,3.267,13.8526,4.2346.1167,4.6993-4.8769,8.361-4.5502,3.747.7234-2.9884,14.4756.7045,16.5909,2.2605.9334,5.0941-.1556,6.2475,2.1156,1.0451,3.7957-5.7134,10.7028.1084,10.7028,61.7481-1.0967,84.3068,47.7112,80.3435,56.625-1.8503,3.3835-9.29-1.6568-10.3662,1.7656-5.6359,19.0959,7.0991,33.5634,10.7919,36.052,1.0838.6223,3.027-.2567,2.88-2.6523-.6193-5.4448-3.6232-8.3538-3.0193-13.7359,1.0451-9.4972,22.134-3.6402,23.225,3.578.4103,2.7068.5652,4.9236,2.9341,7.2026,3.0038,2.8547,10.2035-.3656,10.9003,5.9503.9213,12.2658-14.2995,12.9659-24.828,20.5578-5.0244,3.889-3.8709,6.5882.3638,7.9805,5.063,1.3534,13.1607-.1011,17.256,5.9192,5.8141,8.3616-1.827,25.8233-2.2684,33.19-.4413,7.3659,12.8901,29.3083,13.1607,40.4471.96,5.5615-2.8567,8.556-7.5559,3.9902-4.5444-4.7681-9.29-12.1258-12.8131-17.641-1.0219-1.7346-3.716-1.8512-3.6541,1.719-.062,9.6605,45.436,69.1405,46.5899,78.8862,1.0451,5.1414-1.796,9.4894-.5884,14.4756.3948,1.4623,2.2605.63,2.4154,1.789.2477,3.3057-3.0966,8.3149,1.6567,10.7106,2.3612,6.5337,0,9.2638,1.2309,14.6775.6193,5.3903,3.1586,12.8655,3.7314,18.3177-1.2774,15.346-7.1301,21.3197-11.791,23.6065-4.018,2.0146-5.6746-1.6101-5.3108-4.7447,1.0606-9.2794,11.3028-25.7532,7.2153-44.3358-10.4746-47.7041-61.3456-81.5779-69.8382-99.7241-2.725-6.8449-12.4793-7.6149-13.0371-15.6494-.9755-2.598-3.538-1.8201-5.7211-4.2002-1.8348-2.0846-1.7652-8.3538-3.7393-12.9425-.5806-1.4389-2.3225-.7156-3.6773-2.1001-7.223-9.5594-5.6746-56.2283-12.1235-62.6068-4.7534-2.6679-8.4462,4.7447-14.3683,5.3748-4.5212.4667-12.0068-10.8351-14.7557-7.9805-2.2219,2.2323-1.2619,7.9804-1.0838,8.875.1781.8945,1.3625,4.7758-.1781,4.7758-1.3857.0544-3.3676-2.808-9.1042-5.1491-3.8244-1.3923-7.4475,0-9.2126-1.1512-3.9096-4.2314.1394-13.1526-6.4333-15.696-1.8348-.7156-2.1677-5.4448-3.0966-7.3193-.9058-1.3379-2.7793-1.2367-3.6309-2.279-1.8796-2.9976-3.1772-6.3257-3.8244-9.8084-.6735-2.6057-6.6656.6378-7.1301-3.4691-.5806-2.7535-3.7857-3.6169-6.2707-4.0447-3.027-.3656-1.7573-7.0471-4.3896-8.1516-1.1225-.5134-1.5484.7778-2.7096.1711-1.2077-1.5089-.9909-2.9557-2.5238-4.0447-1.3005-.8945-2.578.6067-3.5225-.4745-3.8321-4.6669-.7742-12.5155-2.7716-14.8257-1.3161-1.4468-3.5766.1556-5.5662-1.5556-1.9509-1.4856-2.2684-3.9435-3.4296-4.2936-3.3986-.0622-4.5909-.6845-5.9766-2.3879-6.1934-8.7116-5.5043-18.7296-7.6255-22.2997-1.3857-2.3335-3.4682-3.7957-5.0321.6145-3.0966,7.5759-2.787,35.842-11.8062,39.6689-6.9675,3.4224-13.1607-8.6105-16.5828-10.7494-1.5484-.8167-1.8038,1.7268-2.9032,1.8279-3.1664-1.2446-2.4541-5.0325-5.0166-6.5337-2.4851-1.0889-1.4322,2.4346-2.8567,2.1234-2.4696-2.279-2.4696-8.3926-4.645-9.4817-1.7652-.6845-2.8102,1.3923-3.8244.5134-3.5689-3.1113-1.0684-10.0651-5.3805-12.2507-1.858-.6067-1.587,2.5513-3.507,1.6568-1.8348-.6767-1.5484-10.5239-7.2539-9.5827-.8516.1011-.5729-1.2523-1.1612-1.7656-1.7032-.2178-2.88,2.1623-4.645.6223-1.6413-2.2698-3.6053-4.285-5.8295-5.9815-2.4077-2.0535-5.9921.5445-8.9649-1.6879-10.4746-4.6281-34.4816,13.7908-45.3042,24.5795-3.9405-3.6947-9.29.2022-13.7418.6612-1.6103.3733-6.6578.1633-2.7018-5.3203,9.8164-10.4461,16.9853-9.925,35.4721-23.2028,13.5248-9.9561,25.6483-19.6559,30.0072-22.5098,3.5921-1.859,9.29-3.4224,14.1058,2.9168,6.7662,8.8672,21.8622,23.7465,28.2886,26.6633,13.2226,5.7481,13.8806-4.4258,15.4837-7.9493,1.4089-3.5702,2.3225-.6145,2.2064,2.769,0,2.209.7742,5.3125,2.5934,5.6236,3.6153.4278,3.6618-2.3335,4.1805-4.0836,4.1264-16.3342,20.1285-35.982,26.4533-31.9451,4.645,2.9557,7.3623,2.9557,8.4539-2.6446,1.2077-7.2182-4.3276-13.8456-5.8218-21.4363-1.5484-8.805-.5884-20.3711-3.9405-21.9731-1.9432-.8478-4.645,1.0734-6.1391,3.2047-2.0128,2.699-2.0128,5.5536-2.7018,8.8283-.3329,1.8046-7.6255,3.788-8.4462,13.2774-.0697,1.7112-2.8412-1.7112-4.8153,0-4.0566,3.1113-3.3289,18.5125-4.645,19.3911-1.5484.1556-3.3521-1.5556-3.9637.6689.3251,2.4968-1.0451,8.5093-2.2373,8.976-.9987.3033-2.0593-.9256-3.4682-.0933-3.4993,2.948-2.0825,7.0004-5.4579,10.9361-2.0593,2.5513-3.4682.7778-3.7005-1.4701-.4955-3.8035-3.5302-9.5283-6.1934-12.2355-7.7882-8.0738-2.9805-21.5612-13.9891-27.1697-3.3057-1.6568-3.4993-3.2669-3.8709-6.2225-.1239-3.2824-2.0051-5.5536-3.7005-5.9892-3.0348-.8789-3.5534-2.5357-3.6773-4.6669.271-5.7558-3.9947-6.0048-6.2707-6.487-5.3727-.5134-5.5508-1.5556-3.8709-15.0427.4955-3.2513.5187-7.0004-.5187-10.0572-2.8102-4.1614-8.9726-1.5012-8.121-8.2916.6426-4.4647,8.601-10.275,11.9998-13.9541,2.0516-2.3335,3.3676-8.346-3.7314-6.8915-16.1254,4.3091-28.9851,33.0185-32.0198,38.5255-11.6667,21.476-21.8004,30.0398-31.2917,33.3452-4.436,1.5556-19.8029,3.0023-22.9391-12.1188-1.618-7.9493.3252-15.416,3.9173-27.8616,15.5759-54.4012-1.8193-44.0324,6.6966-62.1553,5.4811-6.1525,13.2692-5.3125,21.1657-6.2692,1.7496-.2334,1.1303-2.5201.7045-3.1968-.4258-.6767-2.1521-1.4079-4.583-1.859-2.4309-.4511-7.5946-5.0403-8.0514-10.0184-.449-5.4448,3.0502-8.8283,5.365-11.2006,3.3057-3.2824,5.6824-3.6402,5.7366-4.3558-.2013-2.9013-6.2862,1.1745-6.8205,0-1.2696-4.5503,2.4618-8.696,4.9237-11.6128l-.0005-.0009Z" style="fill: #fff;"/>
    <path id="Path5" data-name="Path" d="M266.9539,154.0744c-.209,1.9756-.209,5.0325,2.4154,11.3718-2.6244.3578-4.2114,2.6835-6.5107,1.4001-7.1611-3.9357-11.1867-11.2706-13.5096-18.6677-1.5019-4.2624-1.3625-9.3339-3.7237-13.1689,12.3872.8167,21.4679,17.6258,21.3279,19.0644l.0008.0004Z" style="fill: #fff;"/>
    <path id="Path6" data-name="Path" d="M367.0011,156.0508c.658-.2022.8903.2489.8903.5211-.5187,8.875-9.8862,26.6096-22.0792,29.7668-.7122.1556-1.1612.0622-1.4089-.6145-1.1071-6.1759,2.756-16.6609,12.673-20.4878,4.9082-1.9134,7.223-5.1958,9.9248-9.186v.0003Z"/>
    <path id="Path7" data-name="Path" d="M325.9672,190.9046c.5729,2.279.1471,2.4346-1.7806,1.1434-6.3791-6.7049-11.8062-4.9858-15.6774-2.948-1.8812.7778-2.4541.7156-1.9045-.9956,5.8682-9.0227,16.5594-4.5658,19.3619,2.8002h.0005Z"/>
    <path id="Path8" data-name="Path" d="M292.8554,192.1413c3.2128,4.6669,1.8116,11.8388-.9677,17.2361-2.2064,4.138-5.8295,10.7884-7.2385,13.6893-.5884,1.7423-1.8503,1.8668-2.9109,1.3923-1.0529-.21,3.8709-8.5093,5.3186-18.2395.5651-3.9902-.4877-9.8239,2.4-14.1723,1.0064-1.4467,2.4851-.9801,3.3986.0933v.0008Z"/>
    <path id="Path9" data-name="Path" d="M319.8185,196.5049c2.3225,5.4058-3.3676,8.0504-6.7043,8.7116-2.3225.42-4.0876-.2489-6.0618-1.5556-1.0916-.7778-.5032-1.3612-1.3703-1.7656-1.7806-.1089-1.3548,1.0345-3.2825,1.4856-1.3238.1633-1.44-.4511-.5419-1.8046,2.1677-3.6247,3.3444-6.1759,6.9134-7.6226,3.3289-1.3379,8.1598-2.738,11.0474,2.5512Z"/>
    <path id="Path10" data-name="Path" d="M301.1275,219.2212c2.7716,10.8894.7277,15.0508-1.7573,17.641-.9213.8401-6.7275,1.8746-7.4862-5.6003,2.9032-3.5157,4.6837-8.8593,6.4256-12.6555,1.2155-2.4346,1.9819-2.598,2.818.6145v.0004Z"/>
    <path id="Path11" data-name="Path" d="M279.6129,249.2062c-1.2541,6.7982-4.0334,10.2594-8.8487,11.3484-5.605.6845-7.9971-5.5536-7.2771-5.5148,5.4657,1.0034,11.2255-2.1156,14.6705-6.5648.8361-1.1901,1.6568-.3656,1.4554.7312Z"/>
    <path id="Path12" data-name="Path" d="M554.8799,354.597c3.0966.9956,4.3896,4.1924,3.3057,6.0125-1.2774,2.9557-3.8709,4.9781-3.9637,7.8249-.0542,2.3879-.48,3.8424-2.3689,4.4569-3.4838.3733-5.5121-6.8992-8.6398-1.8513-1.7032,2.5901-5.2102.8245-5.6669-.6223-.6116-2.2401-1.9586-4.5191-4.196-4.6203-7.2617-.21-9.0578-11.6673-7.8966-14.7241,5.5973-13.2389,19.3771.0389,29.4261,3.5235h.0001Z"/>
    <path id="Path13" data-name="Path" d="M269.0657,352.4152c-3.5819,2.7906-6.4925,6.3555-8.5159,10.4306-4.583.7234-11.9917,3.8424-17.2875,6.2225-1.9509,1.0267-9.3984,1.5946-16.1184,2.3801-1.0296-.1011-1.2773-.7312-1.2773-1.5556-.5342-5.1336,31.0747-18.0925,43.1982-19.3444,1.0993.0078,1.7651.5289,0,1.8668h.0008Z" style="fill: #fff;"/>
    <path id="Path14" data-name="Path" d="M686.2072,418.0789c.9832,2.5901-1.7419,5.857-4.583,9.015-2.8411,3.158-14.8641,11.8307-24.9284,11.364-2.7793-.4122-5.7985-3.4924-4.8541-7.2104.9755-3.1657,10.6835-3.9902,18.1392-6.5804,5.4192-1.8668,8.0282-3.018,12.3323-6.3392,2.6709-2.0613,3.2902-.8245,3.894-.249Z" style="fill: #fff;"/>
    <path id="Path15" data-name="Path" d="M600.3124,607.4394c1.827.0622,1.5484-.56,3.1586,0,1.409.0622,1.3703,6.1837,1.1768,9.3338-.3407,1.9756-.7742,5.2969,1.2619,6.8059,1.8503,1.6023-2.4386,7.4671.658,10.3139,1.7109,2.3879-1.92,8.6416.8593,12.0873,1.241-.1058,2.4364.4948,3.0966,1.5556-1.1845,7.2416,2.0438,18.6677.9058,21.9497-3.1586,4.9858-5.5276,4.4802-8.2139,12.6789-4.0644,7.9182-15.4837,2.979-13.2611-3.4147,8.0901-13.7674,11.0628-29.075,11.4887-35.7802,1.3471-17.361-7.7417-44.974-8.7636-48.8161-.2168-3.469.5264-5.5537,3.2516-2.4346,4.0257,6.3315,2.5702,15.3624,4.3818,15.7194l-.0006.001Z" style="fill: #fff;"/>
    <path id="Path16" data-name="Path" d="M305.1643,459.8246l-.3716,1.6646-10.6062-15.8676c-.3019,3.8424-4.4593,55.4431-4.4593,55.4431h-1.44s-4.0489-51.5847-4.3509-55.4431c-1.8348,2.7535-10.6216,15.8676-10.6216,15.8676,0,0-18.1695-84.0047-19.4704-90.095-1.3238,6.067-19.4856,90.095-19.4856,90.095,0,0-8.7791-13.1292-10.6216-15.8676-.3251,4.0602-18.6735,235.6798-18.6735,235.6798v.28c24.8817,16.5069,54.0488,25.2913,83.8658,25.2562h.2245c29.824.0356,58.9969-8.7597,83.874-25.2866v-.3267l-18.5802-235.6097c-1.8503,2.7535-10.6294,15.8676-10.6294,15.8676l-19.5556-90.095c-1.3005,6.0359-19.0982,88.4382-19.0982,88.4382l-.0004-.0008Z" style="fill: #fff;"/>
    <path id="Path17" data-name="Path" d="M373.7448,681.2352l-18.7809-237.7449-10.8383,16.1791-19.8648-91.6899-19.8111,91.6899-10.8383-16.1791-4.645,57.5199-4.5057-57.5199-10.8384,16.1791-19.7726-91.6899-19.8414,91.6899-10.8384-16.1791-18.8357,237.7449v.7778c25.0742,16.7053,54.5004,25.5992,84.5857,25.5677h.2245c30.0935.053,59.5301-8.8429,84.6009-25.5677v-.7778h-.0005Z"/>
    <polygon id="Path18" data-name="Path" points="448.8823 545.0076 424.731 461.0846 126.6673 545.2993 145.1086 630.774 448.8823 545.0076" style="fill: #fff;"/>
    <polygon id="Path19" data-name="Path" points="182.7404 540.329 221.8247 528.1367 214.941 602.0258 187.6407 609.7262 192.2866 559.475 180.5423 563.5586 182.7404 540.329" style="fill: red;"/>
    <path id="Path20" data-name="Path" d="M255.6133,579.8579c-.6968,7.6616-8.7868,14.1874-16.0869,16.4276-7.4321,1.9368-14.5935-.2022-13.8736-7.9416.7277-8.0271,8.8255-14.779,16.1651-16.7076,7.285-2.0923,14.492.2878,13.7954,8.2216Z" style="fill: red;"/>
    <polygon id="Path21" data-name="Path" points="273.6159 513.5409 324.2638 499.1434 322.3503 520.4479 299.2957 526.7716 298.6423 534.542 318.8851 528.895 317.0417 547.9361 296.8339 553.6997 294.3838 579.5545 266.6039 587.4416 273.6159 513.5409" style="fill: red;"/>
    <path id="Path22" data-name="Path" d="M389.5074,510.029c-4.0489-2.7302-9.29-4.5191-15.5374-2.7923-8.2526,2.3335-15.6074,10.5395-16.3891,18.6059-.7819,8.066,5.8295,12.3522,14.0439,10.0184,6.3482-1.7579,11.6126-5.8025,16.4276-11.3173l-3.4141,27.8931c-4.5676,3.3057-14.9027,7.0549-19.8193,8.4471-21.6382,6.0825-37.0052-5.507-35.0311-26.5081,1.9896-21.5764,21.0502-43.7291,43.2997-50.0609,5.8858-1.7575,12.0337-2.4605,18.1625-2.0768l-1.7419,27.7915-.001-.0004Z" style="fill: red;"/>
    <path d="M270.1624,608.4428c-.2787,2.9402-2.3225,5.787-4.645,6.6504-2.16.5133-3.716-1.4545-3.4916-4.4181.2245-2.9635,2.1986-5.857,4.4282-6.3081,2.307-.9178,3.9482,1.1201,3.7083,4.0758ZM281.9219,605.0281c-.209,3.0024-2.2528,5.8492-4.5134,6.6192-2.2605.7701-3.7393-1.3379-3.538-4.1924.2013-2.8547,2.1986-5.8025,4.4825-6.5026,2.2838-.7001,3.8709,1.1512,3.5689,4.0602,0,0,0,.0156,0,.0155ZM289.6636,636.1413c-1.2928,15.6494-11.1944,27.7297-22.4514,30.8169s-19.6256-3.8114-18.3013-19.4459c1.2541-15.276,11.2487-27.7449,22.4514-30.9265,11.2023-3.1813,19.5323,4.3014,18.3095,19.5463l-.0077.0078-.0004.0015ZM262.3434,644.0051c-.4877,5.6548,2.098,8.6105,6.085,7.5916,4.0257-1.1434,7.223-5.8103,7.703-11.2473.48-5.437-1.8657-8.9371-6.085-7.6771-4.2193,1.2601-7.2153,6.2615-7.6953,11.3251,0,0-.0077.0078-.0077.0077Z" style="fill: #fff;"/>
    <polygon id="Path23" data-name="Path" points="296.3789 610.3329 309.7379 606.716 307.0078 639.7345 318.1967 636.631 316.925 652.3002 292.342 659.0323 296.3789 610.3329" style="fill: #fff;"/>
    <path id="b" d="M324.4388,602.4575l12.8667-3.4302,9.7623,23.6695h.3019c-.2468-4.0923-.2649-8.1953-.0542-12.2892l1.2851-14.576,12.7664-3.5469-4.0412,48.6527-12.813,3.539-9.5842-22.2461-.5187.0933c.2323,3.1926.2323,6.3979,0,9.5905l-1.3005,15.8827-12.673,3.4613s4.0025-48.8009,4.0025-48.8008Z" style="fill: #fff;"/>
    <path d="M216.2828,632.7575l12.9752-3.6402-2.1367,21.2578.3097-.0855c.5986-2.0883,1.3756-4.1209,2.3225-6.0748l7.7417-17.4392,14.5935-4.0447-13.4547,26.9281,10.7144,21.5297-15.4837,4.3557-5.1946-13.0907c-.6193-1.6023-1.6025-3.1113-1.6412-4.9625l-.3639.0933-1.4477,20.3711-12.9752,3.539,4.0412-48.7379-.0004.0006Z" style="fill: #fff;"/>
  </g>
</svg>