<?xml version="1.0" encoding="iso-8859-1"?>
<!-- Created by @FCLOGO 2024-10-21 GMT+8 20:57:49 . https://fclogo.top/ -->
<!-- FOR PERSONAL USE ONLY NOT FOR COMMERCIAL USE -->
<svg version="1.1" id="&#x56FE;&#x5C42;_1" xmlns="http://www.w3.org/2000/svg" xmlns:xlink="http://www.w3.org/1999/xlink" x="0px"
	 y="0px" viewBox="0 0 800 800" style="enable-background:new 0 0 800 800;" xml:space="preserve">
<path style="fill:#CCCCCC;" d="M348.219,774.301c-0.786,0-1.375-0.217-1.768-0.652c-0.393-0.435-0.528-1.03-0.406-1.786l0.252-1.648
	c0.122-0.755,0.45-1.35,0.984-1.785c0.534-0.435,1.194-0.653,1.98-0.653c0.755,0,1.329,0.199,1.722,0.595
	c0.393,0.397,0.551,0.938,0.475,1.625h-1.236c0.03-0.359-0.055-0.637-0.257-0.836c-0.202-0.198-0.498-0.297-0.887-0.297
	c-0.42,0-0.763,0.117-1.03,0.349c-0.267,0.233-0.435,0.563-0.504,0.99l-0.263,1.659c-0.069,0.435-0.006,0.769,0.189,1.001
	c0.195,0.233,0.502,0.349,0.921,0.349c0.389,0,0.715-0.099,0.978-0.297c0.263-0.198,0.436-0.481,0.521-0.847h1.236
	c-0.137,0.687-0.467,1.231-0.99,1.631C349.614,774.101,348.975,774.301,348.219,774.301z M352.797,774.187l0.996-6.294h1.19
	l-0.195,1.19c0.336-0.87,0.973-1.304,1.911-1.304c0.671,0,1.169,0.208,1.493,0.624c0.324,0.416,0.429,0.986,0.315,1.71l-0.069,0.423
	h-1.27l0.057-0.32c0.069-0.45,0.011-0.795-0.171-1.036c-0.183-0.24-0.477-0.361-0.881-0.361c-0.405,0-0.74,0.122-1.007,0.366
	c-0.267,0.245-0.435,0.588-0.504,1.03l-0.63,3.971H352.797z M361.906,774.301c-0.77,0-1.346-0.223-1.728-0.669
	c-0.382-0.446-0.515-1.036-0.4-1.768l0.252-1.648c0.084-0.488,0.257-0.915,0.521-1.281c0.263-0.366,0.601-0.651,1.013-0.852
	c0.412-0.202,0.873-0.304,1.385-0.304c0.771,0,1.349,0.224,1.734,0.669c0.385,0.446,0.517,1.036,0.395,1.768l-0.172,1.121h-3.845
	l-0.092,0.526c-0.153,0.954,0.217,1.43,1.11,1.43c0.717,0,1.175-0.248,1.373-0.744h1.225c-0.168,0.534-0.504,0.96-1.007,1.276
	C363.165,774.143,362.577,774.301,361.906,774.301z M361.231,770.216l-0.046,0.286l2.655-0.012l0.046-0.286
	c0.069-0.466,0.013-0.822-0.166-1.07c-0.179-0.248-0.486-0.372-0.921-0.372c-0.443,0-0.795,0.126-1.059,0.378
	C361.477,769.392,361.307,769.751,361.231,770.216z M368.326,774.301c-0.633,0-1.103-0.212-1.408-0.635
	c-0.305-0.423-0.397-1.001-0.274-1.733l0.274-1.774c0.115-0.733,0.393-1.312,0.836-1.74c0.442-0.427,0.98-0.641,1.613-0.641
	c0.465,0,0.83,0.119,1.093,0.354c0.263,0.237,0.391,0.558,0.383,0.962h0.023l0.172-1.202h1.236l-0.996,6.294h-1.225l0.195-1.201
	h-0.023c-0.122,0.412-0.351,0.734-0.687,0.967C369.203,774.185,368.799,774.301,368.326,774.301z M368.932,773.226
	c0.389,0,0.715-0.119,0.978-0.355c0.263-0.236,0.429-0.572,0.498-1.007l0.252-1.648c0.069-0.427,0.01-0.761-0.177-1.001
	c-0.187-0.24-0.475-0.36-0.864-0.36c-0.397,0-0.725,0.118-0.984,0.355c-0.26,0.237-0.423,0.572-0.492,1.007l-0.252,1.648
	c-0.069,0.443-0.013,0.78,0.166,1.013C368.236,773.11,368.528,773.226,368.932,773.226z M376.348,774.187
	c-0.572,0-0.994-0.156-1.264-0.469c-0.271-0.312-0.361-0.751-0.269-1.316l0.538-3.387h-1.739l0.171-1.122h1.74l0.275-1.716h1.236
	l-0.275,1.716h2.472l-0.183,1.122h-2.46l-0.538,3.387c-0.076,0.442,0.099,0.664,0.526,0.664h1.717l-0.172,1.121H376.348z
	 M382.504,774.301c-0.77,0-1.346-0.223-1.728-0.669c-0.382-0.446-0.515-1.036-0.4-1.768l0.252-1.648
	c0.084-0.488,0.257-0.915,0.521-1.281c0.263-0.366,0.601-0.651,1.013-0.852c0.412-0.202,0.873-0.304,1.385-0.304
	c0.771,0,1.349,0.224,1.734,0.669c0.385,0.446,0.517,1.036,0.395,1.768l-0.172,1.121h-3.845l-0.092,0.526
	c-0.153,0.954,0.217,1.43,1.11,1.43c0.717,0,1.175-0.248,1.373-0.744h1.225c-0.168,0.534-0.504,0.96-1.007,1.276
	C383.763,774.143,383.176,774.301,382.504,774.301z M381.829,770.216l-0.046,0.286l2.655-0.012l0.046-0.286
	c0.069-0.466,0.013-0.822-0.166-1.07c-0.179-0.248-0.486-0.372-0.921-0.372c-0.443,0-0.795,0.126-1.059,0.378
	C382.075,769.392,381.905,769.751,381.829,770.216z M388.924,774.301c-0.633,0-1.101-0.212-1.402-0.635
	c-0.301-0.423-0.395-1.001-0.28-1.733l0.274-1.774c0.115-0.733,0.393-1.312,0.836-1.74c0.442-0.427,0.98-0.641,1.613-0.641
	c0.465,0,0.83,0.119,1.093,0.354c0.263,0.237,0.391,0.558,0.383,0.962h0.023l0.206-1.465l0.298-1.796h1.236l-1.327,8.354h-1.225
	l0.195-1.201h-0.023c-0.122,0.412-0.351,0.734-0.687,0.967C389.802,774.185,389.397,774.301,388.924,774.301z M389.531,773.226
	c0.389,0,0.715-0.119,0.978-0.355c0.263-0.236,0.429-0.572,0.498-1.007l0.252-1.648c0.076-0.427,0.019-0.761-0.172-1.001
	c-0.191-0.24-0.481-0.36-0.87-0.36c-0.397,0-0.725,0.118-0.984,0.355c-0.26,0.237-0.423,0.572-0.492,1.007l-0.252,1.648
	c-0.076,0.443-0.023,0.78,0.16,1.013C388.833,773.11,389.126,773.226,389.531,773.226z M401.017,774.301
	c-0.473,0-0.839-0.116-1.099-0.349c-0.26-0.233-0.385-0.555-0.377-0.967h-0.011l-0.195,1.201h-1.224l1.327-8.354h1.236l-0.286,1.796
	l-0.274,1.465h0.046c0.122-0.412,0.353-0.734,0.692-0.967c0.34-0.232,0.742-0.349,1.208-0.349c0.633,0,1.1,0.214,1.402,0.641
	c0.301,0.428,0.395,1.007,0.281,1.74l-0.275,1.774c-0.115,0.733-0.395,1.31-0.841,1.733
	C402.179,774.089,401.643,774.301,401.017,774.301z M400.766,773.226c0.397,0,0.723-0.116,0.978-0.349
	c0.255-0.233,0.422-0.571,0.498-1.013l0.252-1.648c0.069-0.435,0.011-0.771-0.171-1.007c-0.183-0.237-0.473-0.355-0.87-0.355
	c-0.389,0-0.715,0.12-0.978,0.36c-0.263,0.24-0.429,0.574-0.498,1.001l-0.252,1.648c-0.069,0.435-0.011,0.771,0.172,1.007
	C400.079,773.107,400.369,773.226,400.766,773.226z M405.469,776.247l0.172-1.064h1.934c0.641,0,1.007-0.302,1.099-0.905
	l0.103-0.675l0.206-1.19h-0.034c-0.122,0.42-0.347,0.744-0.675,0.973c-0.328,0.228-0.729,0.343-1.201,0.343
	c-0.626,0-1.093-0.201-1.402-0.601c-0.309-0.4-0.41-0.944-0.303-1.631l0.584-3.605h1.236l-0.561,3.479
	c-0.061,0.412,0,0.732,0.183,0.961c0.183,0.229,0.465,0.343,0.847,0.343c0.389,0,0.717-0.122,0.984-0.366
	c0.267-0.244,0.431-0.584,0.492-1.018l0.538-3.399h1.236l-1.007,6.409c-0.099,0.603-0.37,1.078-0.812,1.425
	c-0.443,0.347-1,0.521-1.671,0.521H405.469z M417.787,770.085h3.221l0.537-1.854h-5.466l-1.708,6.442h2.147l0.586-2.099h3.026
	l0.439-1.708h-3.026L417.787,770.085z M424.229,772.916c-0.586,0-1.025-0.39-1.025-1.122c0-0.878,0.634-1.757,1.61-1.757
	c0.488,0,0.878,0.244,1.025,0.781l1.952-0.83c-0.293-1.171-1.269-1.903-2.635-1.903c-2.782,0-4.148,2.147-4.148,3.904
	c0,1.757,1.269,2.831,3.075,2.831c1.366,0,2.343-0.586,2.977-1.415l-1.513-1.171C425.156,772.672,424.717,772.916,424.229,772.916z
	 M430.915,768.231h-2.147l-1.757,6.442h5.124l0.488-1.854h-2.928L430.915,768.231z M439.748,771.013
	c0-1.659-1.318-2.928-3.221-2.928c-2.196,0-3.807,1.806-3.807,3.807c0,1.659,1.318,2.928,3.221,2.928
	C438.138,774.819,439.748,773.013,439.748,771.013z M434.917,771.696c0-0.83,0.586-1.708,1.513-1.708
	c0.781,0,1.171,0.537,1.171,1.22c0,0.83-0.586,1.708-1.513,1.708C435.307,772.916,434.917,772.379,434.917,771.696z
	 M443.213,772.233h1.074l-0.195,0.683c-0.146,0.049-0.342,0.098-0.586,0.098c-0.683,0-1.269-0.39-1.269-1.22
	c0-1.025,0.732-1.903,1.952-1.903c0.586,0,1.122,0.244,1.513,0.586l1.366-1.367c-0.439-0.537-1.513-1.074-2.733-1.074
	c-2.587,0-4.295,1.757-4.295,3.855c0,2.05,1.61,2.879,3.221,2.879c0.927,0,1.854-0.293,2.489-0.683l0.927-3.319h-3.123
	L443.213,772.233z M450.777,768.084c-2.196,0-3.807,1.806-3.807,3.807c0,1.659,1.318,2.928,3.221,2.928
	c2.196,0,3.807-1.806,3.807-3.807C453.998,769.353,452.681,768.084,450.777,768.084z M450.338,772.916
	c-0.781,0-1.171-0.537-1.171-1.22c0-0.83,0.586-1.708,1.513-1.708c0.781,0,1.171,0.537,1.171,1.22
	C451.851,772.037,451.265,772.916,450.338,772.916z M437.942,767.499c-0.049,0.293,0.098,0.488,0.439,0.488s0.537-0.195,0.634-0.488
	c0.049-0.244-0.098-0.488-0.439-0.488C438.235,767.011,437.991,767.255,437.942,767.499z M432.135,765.498
	c-0.439,0-0.732,0.244-0.781,0.586c-0.049,0.342,0.098,0.586,0.537,0.586s0.732-0.244,0.781-0.586
	C432.769,765.742,432.574,765.498,432.135,765.498z M433.013,767.304c-0.098,0.537,0.146,0.878,0.83,0.878
	c0.634,0,1.074-0.39,1.171-0.878s-0.146-0.878-0.83-0.878C433.501,766.425,433.111,766.815,433.013,767.304z M439.602,777.552
	l-2.44-1.806h-1.513l4.246,3.172l1.61-3.172h-0.976L439.602,777.552z M425.839,767.157l-2.001-1.464l23.132-2.782l-2.147,4.246
	h1.025l2.684-5.319l-26.988,3.221l2.782,2.099H425.839z M338.719,785.785l0.609-3.832h2.32l-0.084,0.519H339.8l-0.184,1.144h1.627
	l-0.084,0.525h-1.617l-0.257,1.643H338.719z M342.97,785.838c-0.357,0-0.623-0.101-0.798-0.302
	c-0.175-0.201-0.234-0.473-0.178-0.816l0.268-1.701c0.056-0.343,0.203-0.615,0.441-0.816c0.238-0.201,0.536-0.302,0.892-0.302
	c0.357,0,0.623,0.1,0.798,0.299c0.175,0.199,0.236,0.471,0.184,0.814l-0.268,1.706c-0.056,0.343-0.204,0.615-0.444,0.816
	C343.625,785.737,343.327,785.838,342.97,785.838z M343.049,785.334c0.193,0,0.348-0.052,0.467-0.157
	c0.119-0.105,0.194-0.257,0.226-0.457l0.268-1.701c0.031-0.199,0.005-0.352-0.079-0.456c-0.084-0.105-0.222-0.157-0.415-0.157
	s-0.347,0.052-0.464,0.157c-0.117,0.105-0.192,0.257-0.223,0.456l-0.268,1.701c-0.031,0.2-0.005,0.352,0.079,0.457
	C342.723,785.281,342.86,785.334,343.049,785.334z M344.996,785.785l0.609-3.832h1.202c0.238,0,0.439,0.046,0.604,0.139
	c0.164,0.093,0.283,0.223,0.357,0.391c0.073,0.168,0.091,0.366,0.052,0.593c-0.038,0.259-0.14,0.484-0.304,0.675
	c-0.164,0.19-0.366,0.321-0.604,0.391l0.535,1.643h-0.619l-0.478-1.575h-0.541l-0.247,1.575H344.996z M345.888,783.707h0.635
	c0.189,0,0.349-0.056,0.48-0.168c0.131-0.112,0.211-0.262,0.239-0.451c0.032-0.193,0-0.345-0.094-0.459
	c-0.095-0.114-0.236-0.171-0.425-0.171h-0.635L345.888,783.707z M349.545,785.785l0.609-3.832h1.254c0.371,0,0.651,0.105,0.84,0.315
	c0.189,0.21,0.255,0.49,0.199,0.84c-0.038,0.234-0.122,0.438-0.249,0.611s-0.29,0.307-0.488,0.402
	c-0.198,0.095-0.419,0.142-0.664,0.142h-0.693l-0.241,1.522H349.545z M350.432,783.754h0.693c0.192,0,0.357-0.059,0.493-0.176
	c0.136-0.117,0.22-0.274,0.252-0.47c0.031-0.196-0.002-0.353-0.1-0.47c-0.098-0.117-0.245-0.176-0.441-0.176h-0.688L350.432,783.754
	z M352.747,785.785l0.609-3.832h2.252l-0.079,0.504h-1.695l-0.173,1.087h1.512l-0.079,0.499h-1.512l-0.194,1.239h1.69l-0.079,0.504
	H352.747z M355.843,785.785l0.609-3.832h1.202c0.238,0,0.439,0.046,0.604,0.139c0.164,0.093,0.284,0.223,0.357,0.391
	c0.073,0.168,0.091,0.366,0.052,0.593c-0.038,0.259-0.14,0.484-0.304,0.675c-0.164,0.19-0.366,0.321-0.604,0.391l0.535,1.643h-0.619
	l-0.478-1.575h-0.541l-0.247,1.575H355.843z M356.736,783.707h0.635c0.189,0,0.349-0.056,0.48-0.168
	c0.131-0.112,0.211-0.262,0.239-0.451c0.032-0.193,0-0.345-0.094-0.459c-0.095-0.114-0.236-0.171-0.425-0.171h-0.635
	L356.736,783.707z M360.132,785.838c-0.385,0-0.674-0.095-0.866-0.286c-0.192-0.191-0.264-0.451-0.215-0.779h0.567
	c-0.028,0.175,0.011,0.312,0.115,0.412c0.105,0.1,0.266,0.15,0.483,0.15c0.203,0,0.37-0.049,0.501-0.147
	c0.131-0.098,0.211-0.233,0.239-0.404c0.021-0.15,0.001-0.279-0.06-0.386c-0.061-0.107-0.158-0.181-0.291-0.223l-0.457-0.136
	c-0.266-0.08-0.462-0.217-0.588-0.409c-0.126-0.192-0.17-0.42-0.131-0.682c0.035-0.21,0.112-0.394,0.231-0.551
	c0.119-0.157,0.273-0.28,0.462-0.367c0.189-0.087,0.402-0.131,0.64-0.131c0.35,0,0.616,0.095,0.798,0.286
	c0.182,0.191,0.248,0.444,0.199,0.759h-0.567c0.028-0.168-0.003-0.3-0.092-0.396c-0.089-0.096-0.23-0.144-0.422-0.144
	c-0.189,0-0.343,0.045-0.462,0.134c-0.119,0.089-0.189,0.214-0.21,0.375c-0.025,0.151-0.007,0.279,0.053,0.386
	c0.06,0.107,0.158,0.181,0.294,0.223l0.467,0.147c0.262,0.081,0.456,0.217,0.58,0.409c0.124,0.193,0.165,0.422,0.123,0.688
	c-0.035,0.217-0.115,0.406-0.241,0.567c-0.126,0.161-0.288,0.286-0.486,0.375C360.598,785.793,360.376,785.838,360.132,785.838z
	 M363.265,785.838c-0.357,0-0.623-0.101-0.798-0.302c-0.175-0.201-0.234-0.473-0.178-0.816l0.268-1.701
	c0.056-0.343,0.203-0.615,0.441-0.816c0.238-0.201,0.535-0.302,0.892-0.302c0.357,0,0.623,0.1,0.798,0.299
	c0.175,0.199,0.236,0.471,0.184,0.814l-0.268,1.706c-0.056,0.343-0.204,0.615-0.444,0.816
	C363.92,785.737,363.622,785.838,363.265,785.838z M363.344,785.334c0.192,0,0.348-0.052,0.467-0.157
	c0.119-0.105,0.194-0.257,0.226-0.457l0.268-1.701c0.031-0.199,0.005-0.352-0.079-0.456c-0.084-0.105-0.222-0.157-0.415-0.157
	c-0.192,0-0.347,0.052-0.464,0.157c-0.117,0.105-0.192,0.257-0.223,0.456l-0.268,1.701c-0.031,0.2-0.005,0.352,0.079,0.457
	C363.019,785.281,363.155,785.334,363.344,785.334z M365.275,785.785l0.609-3.832h0.709l0.619,3.186
	c0.007-0.098,0.017-0.217,0.029-0.357c0.012-0.14,0.027-0.285,0.045-0.435c0.018-0.151,0.037-0.289,0.058-0.415l0.315-1.979h0.525
	l-0.609,3.832h-0.708l-0.614-3.186c-0.007,0.095-0.017,0.209-0.029,0.344s-0.027,0.276-0.045,0.423
	c-0.018,0.147-0.037,0.283-0.058,0.409l-0.315,2.01H365.275z M368.225,785.785l1.585-3.832h0.745l0.373,3.832h-0.562l-0.073-0.971
	h-1.087l-0.388,0.971H368.225z M369.385,784.342h0.871l-0.089-1.102c-0.017-0.196-0.03-0.365-0.037-0.509
	c-0.007-0.144-0.011-0.243-0.011-0.299c-0.017,0.056-0.052,0.156-0.102,0.299c-0.051,0.143-0.115,0.311-0.191,0.504L369.385,784.342
	z M371.721,785.785l0.609-3.832h0.567l-0.525,3.312h1.674l-0.079,0.52H371.721z M376.678,785.838c-0.367,0-0.634-0.101-0.8-0.302
	c-0.166-0.201-0.221-0.475-0.165-0.821l0.436-2.761h0.567l-0.436,2.755c-0.031,0.196-0.008,0.35,0.071,0.462
	c0.079,0.112,0.214,0.168,0.407,0.168c0.192,0,0.347-0.056,0.465-0.168c0.117-0.112,0.192-0.266,0.223-0.462l0.436-2.755h0.567
	l-0.436,2.761c-0.056,0.35-0.2,0.625-0.433,0.824C377.346,785.738,377.046,785.838,376.678,785.838z M379.843,785.838
	c-0.385,0-0.674-0.095-0.866-0.286c-0.192-0.191-0.264-0.451-0.215-0.779h0.567c-0.028,0.175,0.011,0.312,0.115,0.412
	c0.105,0.1,0.266,0.15,0.483,0.15c0.203,0,0.37-0.049,0.501-0.147c0.131-0.098,0.211-0.233,0.239-0.404
	c0.021-0.15,0.001-0.279-0.06-0.386c-0.061-0.107-0.158-0.181-0.291-0.223l-0.457-0.136c-0.266-0.08-0.462-0.217-0.588-0.409
	c-0.126-0.192-0.17-0.42-0.131-0.682c0.035-0.21,0.112-0.394,0.231-0.551s0.273-0.28,0.462-0.367
	c0.189-0.087,0.402-0.131,0.64-0.131c0.35,0,0.616,0.095,0.798,0.286c0.182,0.191,0.248,0.444,0.199,0.759h-0.567
	c0.028-0.168-0.003-0.3-0.092-0.396c-0.089-0.096-0.23-0.144-0.422-0.144c-0.189,0-0.343,0.045-0.462,0.134
	c-0.119,0.089-0.189,0.214-0.21,0.375c-0.024,0.151-0.007,0.279,0.053,0.386c0.06,0.107,0.157,0.181,0.294,0.223l0.467,0.147
	c0.262,0.081,0.456,0.217,0.58,0.409c0.124,0.193,0.165,0.422,0.123,0.688c-0.035,0.217-0.115,0.406-0.241,0.567
	c-0.126,0.161-0.288,0.286-0.486,0.375C380.31,785.793,380.088,785.838,379.843,785.838z M381.906,785.785l0.609-3.832h2.252
	l-0.079,0.504h-1.695l-0.173,1.087h1.512l-0.079,0.499h-1.512l-0.194,1.239h1.69l-0.079,0.504H381.906z M386.943,785.838
	c-0.357,0-0.623-0.101-0.798-0.302c-0.175-0.201-0.234-0.473-0.178-0.816l0.268-1.701c0.056-0.343,0.203-0.615,0.441-0.816
	c0.238-0.201,0.536-0.302,0.892-0.302c0.357,0,0.623,0.1,0.798,0.299c0.175,0.199,0.236,0.471,0.184,0.814l-0.268,1.706
	c-0.056,0.343-0.204,0.615-0.444,0.816C387.598,785.737,387.299,785.838,386.943,785.838z M387.021,785.334
	c0.193,0,0.348-0.052,0.467-0.157c0.119-0.105,0.194-0.257,0.226-0.457l0.268-1.701c0.031-0.199,0.005-0.352-0.079-0.456
	c-0.084-0.105-0.222-0.157-0.415-0.157c-0.193,0-0.347,0.052-0.464,0.157c-0.117,0.105-0.192,0.257-0.223,0.456l-0.268,1.701
	c-0.031,0.2-0.005,0.352,0.079,0.457C386.696,785.281,386.832,785.334,387.021,785.334z M388.953,785.785l0.609-3.832h0.709
	l0.619,3.186c0.007-0.098,0.017-0.217,0.029-0.357c0.012-0.14,0.027-0.285,0.045-0.435c0.018-0.151,0.037-0.289,0.058-0.415
	l0.315-1.979h0.525l-0.609,3.832h-0.708l-0.614-3.186c-0.007,0.095-0.017,0.209-0.029,0.344c-0.012,0.135-0.027,0.276-0.045,0.423
	c-0.018,0.147-0.037,0.283-0.058,0.409l-0.315,2.01H388.953z M392.249,785.785l0.609-3.832h0.567l-0.525,3.312h1.674l-0.079,0.52
	H392.249z M396.117,785.785l0.22-1.412l-0.751-2.42h0.577l0.446,1.449c0.028,0.095,0.05,0.184,0.066,0.268
	c0.016,0.084,0.025,0.147,0.029,0.189c0.017-0.042,0.046-0.105,0.087-0.189c0.04-0.084,0.088-0.173,0.144-0.268l0.898-1.449h0.598
	l-1.527,2.42l-0.22,1.412H396.117z M399.217,785.785l0.609-3.832h0.709l0.619,3.186c0.007-0.098,0.017-0.217,0.029-0.357
	c0.012-0.14,0.027-0.285,0.044-0.435c0.018-0.151,0.037-0.289,0.058-0.415l0.315-1.979h0.525l-0.609,3.832h-0.708l-0.614-3.186
	c-0.007,0.095-0.017,0.209-0.029,0.344c-0.012,0.135-0.027,0.276-0.045,0.423c-0.018,0.147-0.037,0.283-0.058,0.409l-0.315,2.01
	H399.217z M403.505,785.838c-0.357,0-0.623-0.101-0.798-0.302c-0.175-0.201-0.234-0.473-0.179-0.816l0.268-1.701
	c0.056-0.343,0.203-0.615,0.441-0.816c0.238-0.201,0.535-0.302,0.892-0.302c0.357,0,0.623,0.1,0.798,0.299
	c0.175,0.199,0.236,0.471,0.184,0.814l-0.268,1.706c-0.056,0.343-0.204,0.615-0.444,0.816
	C404.16,785.737,403.862,785.838,403.505,785.838z M403.584,785.334c0.193,0,0.348-0.052,0.467-0.157
	c0.119-0.105,0.194-0.257,0.226-0.457l0.268-1.701c0.032-0.199,0.005-0.352-0.079-0.456c-0.084-0.105-0.222-0.157-0.415-0.157
	c-0.193,0-0.347,0.052-0.465,0.157c-0.117,0.105-0.191,0.257-0.223,0.456l-0.268,1.701c-0.032,0.2-0.005,0.352,0.079,0.457
	C403.258,785.281,403.395,785.334,403.584,785.334z M406.381,785.785l0.525-3.312h-1.023l0.084-0.519h2.619l-0.084,0.519h-1.029
	l-0.525,3.312H406.381z M409.518,785.785l0.609-3.832h2.32l-0.084,0.519h-1.764l-0.184,1.144h1.627l-0.084,0.525h-1.617
	l-0.257,1.643H409.518z M413.769,785.838c-0.357,0-0.623-0.101-0.798-0.302c-0.175-0.201-0.234-0.473-0.179-0.816l0.268-1.701
	c0.056-0.343,0.203-0.615,0.441-0.816c0.238-0.201,0.535-0.302,0.892-0.302c0.357,0,0.623,0.1,0.798,0.299
	c0.175,0.199,0.236,0.471,0.184,0.814l-0.268,1.706c-0.056,0.343-0.204,0.615-0.444,0.816
	C414.425,785.737,414.126,785.838,413.769,785.838z M413.848,785.334c0.193,0,0.348-0.052,0.467-0.157
	c0.119-0.105,0.194-0.257,0.226-0.457l0.268-1.701c0.032-0.199,0.005-0.352-0.079-0.456c-0.084-0.105-0.222-0.157-0.415-0.157
	c-0.193,0-0.347,0.052-0.465,0.157c-0.117,0.105-0.191,0.257-0.223,0.456l-0.268,1.701c-0.032,0.2-0.005,0.352,0.079,0.457
	C413.522,785.281,413.659,785.334,413.848,785.334z M415.795,785.785l0.609-3.832h1.202c0.238,0,0.439,0.046,0.604,0.139
	c0.164,0.093,0.283,0.223,0.357,0.391c0.073,0.168,0.091,0.366,0.053,0.593c-0.039,0.259-0.14,0.484-0.304,0.675
	c-0.165,0.19-0.366,0.321-0.604,0.391l0.535,1.643h-0.619l-0.478-1.575h-0.541l-0.247,1.575H415.795z M416.688,783.707h0.635
	c0.189,0,0.349-0.056,0.48-0.168c0.131-0.112,0.211-0.262,0.239-0.451c0.032-0.193,0-0.345-0.095-0.459
	c-0.094-0.114-0.236-0.171-0.425-0.171h-0.635L416.688,783.707z M420.905,785.838c-0.36,0-0.631-0.101-0.811-0.302
	c-0.18-0.201-0.242-0.473-0.187-0.816l0.268-1.701c0.056-0.346,0.206-0.619,0.449-0.819s0.545-0.299,0.906-0.299
	c0.357,0,0.625,0.101,0.806,0.302c0.18,0.201,0.242,0.473,0.186,0.816h-0.567c0.031-0.199,0.003-0.352-0.087-0.456
	c-0.089-0.105-0.228-0.157-0.417-0.157c-0.193,0-0.351,0.052-0.475,0.157c-0.124,0.105-0.202,0.255-0.233,0.451l-0.268,1.706
	c-0.032,0.2-0.003,0.352,0.087,0.457c0.089,0.105,0.23,0.157,0.423,0.157c0.192,0,0.35-0.052,0.472-0.157
	c0.122-0.105,0.199-0.257,0.231-0.457h0.567c-0.035,0.228-0.114,0.425-0.239,0.593c-0.124,0.168-0.281,0.298-0.47,0.388
	C421.357,785.792,421.143,785.838,420.905,785.838z M424.033,785.838c-0.357,0-0.623-0.101-0.798-0.302
	c-0.175-0.201-0.234-0.473-0.179-0.816l0.268-1.701c0.056-0.343,0.203-0.615,0.441-0.816c0.238-0.201,0.535-0.302,0.892-0.302
	c0.357,0,0.623,0.1,0.798,0.299c0.175,0.199,0.236,0.471,0.184,0.814l-0.268,1.706c-0.056,0.343-0.204,0.615-0.444,0.816
	C424.689,785.737,424.39,785.838,424.033,785.838z M424.112,785.334c0.193,0,0.348-0.052,0.467-0.157
	c0.119-0.105,0.194-0.257,0.226-0.457l0.268-1.701c0.032-0.199,0.005-0.352-0.079-0.456c-0.084-0.105-0.222-0.157-0.415-0.157
	c-0.192,0-0.347,0.052-0.465,0.157c-0.117,0.105-0.191,0.257-0.223,0.456l-0.268,1.701c-0.032,0.2-0.005,0.352,0.079,0.457
	C423.787,785.281,423.923,785.334,424.112,785.334z M425.965,785.785l0.609-3.832h0.687l0.184,1.228
	c0.021,0.119,0.037,0.23,0.047,0.333c0.011,0.103,0.019,0.183,0.026,0.239c0.018-0.056,0.047-0.136,0.089-0.241
	c0.042-0.105,0.091-0.217,0.147-0.336l0.567-1.223h0.709l-0.609,3.832h-0.535l0.204-1.291c0.024-0.168,0.058-0.353,0.1-0.554
	c0.042-0.201,0.087-0.404,0.136-0.609c0.049-0.205,0.096-0.4,0.142-0.585c0.045-0.185,0.087-0.348,0.126-0.488l-0.855,1.863h-0.551
	l-0.283-1.863c-0.004,0.136-0.011,0.295-0.021,0.475c-0.011,0.18-0.024,0.372-0.039,0.575c-0.016,0.203-0.035,0.407-0.058,0.611
	c-0.023,0.205-0.048,0.396-0.076,0.575l-0.205,1.291H425.965z M429.115,785.785l0.609-3.832h0.687l0.184,1.228
	c0.021,0.119,0.037,0.23,0.047,0.333c0.011,0.103,0.019,0.183,0.026,0.239c0.018-0.056,0.047-0.136,0.089-0.241
	c0.042-0.105,0.091-0.217,0.147-0.336l0.567-1.223h0.709l-0.609,3.832h-0.535l0.204-1.291c0.025-0.168,0.058-0.353,0.1-0.554
	c0.042-0.201,0.087-0.404,0.136-0.609c0.049-0.205,0.096-0.4,0.142-0.585c0.045-0.185,0.087-0.348,0.126-0.488l-0.855,1.863h-0.551
	l-0.283-1.863c-0.004,0.136-0.011,0.295-0.021,0.475c-0.011,0.18-0.024,0.372-0.039,0.575c-0.016,0.203-0.035,0.407-0.058,0.611
	c-0.023,0.205-0.048,0.396-0.076,0.575l-0.205,1.291H429.115z M432.411,785.785l0.609-3.832h2.252l-0.079,0.504h-1.695l-0.173,1.087
	h1.512l-0.079,0.499h-1.512l-0.194,1.239h1.69l-0.079,0.504H432.411z M435.507,785.785l0.609-3.832h1.202
	c0.238,0,0.439,0.046,0.604,0.139c0.164,0.093,0.283,0.223,0.357,0.391c0.073,0.168,0.091,0.366,0.053,0.593
	c-0.039,0.259-0.14,0.484-0.304,0.675c-0.165,0.19-0.366,0.321-0.604,0.391l0.535,1.643h-0.619l-0.478-1.575h-0.541l-0.247,1.575
	H435.507z M436.4,783.707h0.635c0.189,0,0.349-0.056,0.48-0.168c0.131-0.112,0.211-0.262,0.239-0.451
	c0.032-0.193,0-0.345-0.095-0.459c-0.094-0.114-0.236-0.171-0.425-0.171h-0.635L436.4,783.707z M439.801,785.838
	c-0.36,0-0.631-0.101-0.811-0.302c-0.18-0.201-0.242-0.473-0.187-0.816l0.268-1.701c0.056-0.346,0.206-0.619,0.449-0.819
	s0.545-0.299,0.906-0.299c0.357,0,0.625,0.101,0.806,0.302c0.18,0.201,0.242,0.473,0.187,0.816h-0.567
	c0.031-0.199,0.003-0.352-0.087-0.456c-0.089-0.105-0.228-0.157-0.417-0.157c-0.193,0-0.351,0.052-0.475,0.157
	c-0.124,0.105-0.202,0.255-0.234,0.451l-0.268,1.706c-0.032,0.2-0.003,0.352,0.087,0.457c0.089,0.105,0.23,0.157,0.423,0.157
	s0.35-0.052,0.472-0.157c0.122-0.105,0.199-0.257,0.231-0.457h0.567c-0.035,0.228-0.114,0.425-0.239,0.593
	c-0.124,0.168-0.281,0.298-0.47,0.388C440.252,785.792,440.039,785.838,439.801,785.838z M441.879,785.785l0.079-0.504h0.777
	l0.446-2.824h-0.777l0.084-0.504h2.126l-0.084,0.504h-0.777l-0.446,2.824h0.777l-0.079,0.504H441.879z M444.74,785.785l1.585-3.832
	h0.745l0.373,3.832h-0.562l-0.073-0.971h-1.087l-0.388,0.971H444.74z M445.9,784.342h0.871l-0.089-1.102
	c-0.017-0.196-0.03-0.365-0.037-0.509c-0.007-0.144-0.01-0.243-0.01-0.299c-0.018,0.056-0.052,0.156-0.103,0.299
	c-0.051,0.143-0.115,0.311-0.192,0.504L445.9,784.342z M448.235,785.785l0.609-3.832h0.567l-0.525,3.312h1.674l-0.079,0.52H448.235z
	 M453.193,785.838c-0.368,0-0.634-0.101-0.8-0.302c-0.166-0.201-0.221-0.475-0.165-0.821l0.436-2.761h0.567l-0.436,2.755
	c-0.032,0.196-0.008,0.35,0.071,0.462c0.079,0.112,0.214,0.168,0.407,0.168c0.192,0,0.347-0.056,0.464-0.168
	c0.117-0.112,0.192-0.266,0.223-0.462l0.436-2.755h0.567l-0.436,2.761c-0.056,0.35-0.2,0.625-0.433,0.824
	C453.86,785.738,453.561,785.838,453.193,785.838z M456.358,785.838c-0.385,0-0.674-0.095-0.866-0.286
	c-0.193-0.191-0.264-0.451-0.215-0.779h0.567c-0.028,0.175,0.011,0.312,0.115,0.412c0.105,0.1,0.266,0.15,0.483,0.15
	c0.203,0,0.37-0.049,0.501-0.147s0.211-0.233,0.239-0.404c0.021-0.15,0.001-0.279-0.06-0.386c-0.061-0.107-0.158-0.181-0.291-0.223
	l-0.457-0.136c-0.266-0.08-0.462-0.217-0.588-0.409c-0.126-0.192-0.17-0.42-0.131-0.682c0.035-0.21,0.112-0.394,0.231-0.551
	c0.119-0.157,0.273-0.28,0.462-0.367c0.189-0.087,0.402-0.131,0.64-0.131c0.35,0,0.616,0.095,0.798,0.286
	c0.182,0.191,0.248,0.444,0.199,0.759h-0.567c0.028-0.168-0.003-0.3-0.092-0.396c-0.089-0.096-0.23-0.144-0.423-0.144
	c-0.189,0-0.343,0.045-0.462,0.134c-0.119,0.089-0.189,0.214-0.21,0.375c-0.025,0.151-0.007,0.279,0.052,0.386
	c0.06,0.107,0.157,0.181,0.294,0.223l0.467,0.147c0.262,0.081,0.456,0.217,0.58,0.409c0.124,0.193,0.165,0.422,0.124,0.688
	c-0.035,0.217-0.116,0.406-0.241,0.567c-0.126,0.161-0.288,0.286-0.486,0.375C456.824,785.793,456.603,785.838,456.358,785.838z
	 M458.421,785.785l0.609-3.832h2.252l-0.079,0.504h-1.695l-0.173,1.087h1.512l-0.079,0.499h-1.512l-0.194,1.239h1.69l-0.079,0.504
	H458.421z"/>
<g>
	<g>
		
			<ellipse transform="matrix(0.7071 -0.7071 0.7071 0.7071 -165.6854 399.9999)" style="fill:#213D40;" cx="400" cy="400" rx="333.481" ry="333.481"/>
		<path style="fill:#C6AB60;" d="M399.999,66.519c184.177,0,333.481,149.304,333.481,333.48
			c0,184.177-149.305,333.481-333.481,333.481c-184.176,0-333.48-149.305-333.48-333.481
			C66.519,215.824,215.823,66.519,399.999,66.519 M399.999,50C207.009,50,50,207.009,50,400c0,192.991,157.01,350,350,350
			C592.991,750,750,592.991,750,400C750,207.009,592.991,50,399.999,50L399.999,50z"/>
	</g>
	<g>
		<path style="fill:#CCAF61;" d="M282.798,339.251c-19.254-13.524-39.531-14.103-54.41-11.68
			c9.856-23.331,24.389-44.205,42.372-61.524c0.847-13.788,3.384-27.561,7.701-41.05c1.26-3.935,2.707-7.773,4.278-11.543
			c-51.431,32.315-88.548,85.335-99.622,147.297l-0.086,0.099l0.071-0.015c-0.007,0.045-0.014,0.091-0.025,0.137
			c14.265-11.199,30.91-19.219,49.152-23.18C249.228,334.094,266.497,334.662,282.798,339.251z"/>
		<path style="fill:#CCAF61;" d="M471.213,606.822l3.364,0.656l-1.247-1.375c0.218-0.078,0.443-0.143,0.659-0.222
			c-16.901-6.775-32.266-17.281-44.727-30.992c-11.343-12.485-19.048-26.994-23.299-42.232c-1.721,22.044,6.882,39.139,15.89,50.684
			c-7.435,0.911-14.987,1.435-22.667,1.435c-17.854,0-35.108-2.589-51.459-7.325c-12.325,6.125-25.471,10.792-39.262,13.787
			c-4.05,0.879-8.141,1.537-12.24,2.064c30.728,16.389,65.772,25.715,102.961,25.715
			C424.413,619.017,448.635,614.688,471.213,606.822z"/>
		<path style="fill:#CCAF61;" d="M512.148,325.96l-0.936,2.916c20.577-9.558,31.227-25.974,36.753-39.775
			c14.44,19.418,25.149,41.753,31.123,65.937c11.459,7.608,22.069,16.657,31.554,27.096c2.796,3.076,5.414,6.271,7.907,9.536
			c-2.207-62.876-30.96-119.082-75.395-157.772l-0.766-2.223l-0.39,1.221c-0.424-0.362-0.839-0.735-1.265-1.095
			c2.512,17.864,1.004,36.203-4.656,53.889C531.095,301.274,522.745,314.843,512.148,325.96z"/>
		<path style="fill:#CCAF61;" d="M399.931,360.181c-34.126,34.163-29.787,49.854-29.787,49.854
			c0,16.502,13.375,29.878,29.878,29.878c16.5,0,29.876-13.377,29.876-29.878c0-0.304-0.036-0.598-0.046-0.901
			C430.188,405.381,429.386,389.667,399.931,360.181z"/>
		<path style="fill:#CCAF61;" d="M400,658.75c142.673,0,258.75-116.077,258.75-258.747c0-142.676-116.077-258.753-258.75-258.753
			c-142.674,0-258.751,116.077-258.751,258.753C141.249,542.673,257.326,658.75,400,658.75z M565.086,543.582
			c-27.815,25.272-71.008,23.206-96.286-4.615c-19.131-21.059-17.563-53.76,3.495-72.893c15.652-14.222,39.956-13.055,54.181,2.596
			c10.291,11.328,9.45,28.917-1.881,39.211c-5.981,5.433-6.425,14.69-0.99,20.67c5.437,5.984,14.691,6.425,20.67,0.992
			c11.276-10.243,17.887-24.262,18.617-39.477c0.73-15.215-4.51-29.803-14.752-41.079c-18.521-20.38-46.727-26.783-71.333-18.66
			c3.727-9.403,5.84-19.612,5.84-30.324c0-6.659-0.877-13.102-2.37-19.309c33.167-1.679,66.804,10.927,90.824,37.366
			c15.961,17.566,24.128,40.298,22.989,64.005C592.956,505.774,582.654,527.62,565.086,543.582z M400,463.297
			c-34.958,0-63.296-28.339-63.296-63.295s28.338-63.296,63.296-63.296c34.958,0,63.295,28.339,63.295,63.296
			S434.958,463.297,400,463.297z M646.637,400.003c0,42.879-11.018,83.224-30.343,118.389c4.035-11.079,6.451-22.812,7.031-34.925
			c1.513-31.519-9.34-61.736-30.56-85.09c-32.87-36.178-80.085-51.71-125.24-45.873c-5.166-7.323-11.499-13.738-18.713-19.044
			c29.126-4.71,54.675-25.153,64.266-55.123c7.928-24.786,5.733-51.178-6.184-74.312c-9.437-18.322-24.132-32.773-42.127-41.97
			C569.436,190.577,646.637,286.416,646.637,400.003z M441.054,183.727c17.342,5.548,31.483,17.517,39.822,33.702
			c8.339,16.183,9.875,34.646,4.326,51.987c-8.673,27.102-37.777,42.098-64.877,33.423c-9.756-3.124-17.715-9.86-22.406-18.965
			c-4.691-9.109-5.556-19.497-2.433-29.255c2.261-7.063,7.135-12.82,13.725-16.217c6.592-3.395,14.11-4.017,21.169-1.76
			c7.705,2.456,15.936-1.78,18.399-9.479c2.464-7.698-1.78-15.936-9.477-18.399c-14.511-4.642-29.957-3.355-43.497,3.621
			c-13.54,6.976-23.555,18.807-28.195,33.316c-8.626,26.952,0.638,55.388,21.121,72.514c-17.461,2.397-33.179,10.237-45.407,21.794
			c-18.753-28.09-25.055-64.137-13.986-98.731C344.27,194.608,394.388,168.779,441.054,183.727z M176.086,403.901
			c-10.818,16.824-16.045,36.113-15.403,55.683c-4.756-19.091-7.321-39.039-7.321-59.582c0-131.012,102.687-238.444,231.794-246.151
			c-38.235,9.689-70.813,38.252-83.694,78.503c-15.061,47.072-4.53,96.297,23.796,132.602c-3.718,7.899-6.256,16.446-7.303,25.461
			c-18.566-23.477-49.447-35.809-80.605-29.03C211.921,366.913,190.164,382.01,176.086,403.901z M200.705,419.731
			c9.848-15.314,25.068-25.876,42.861-29.74c27.797-6.035,55.339,11.665,61.38,39.472c2.174,10.012,0.321,20.271-5.219,28.887
			c-5.544,8.618-14.108,14.561-24.123,16.735c-7.241,1.579-14.666,0.234-20.903-3.777c-6.238-4.01-10.537-10.21-12.111-17.454
			c-1.713-7.9-9.514-12.906-17.408-11.195c-7.898,1.716-12.909,9.509-11.196,17.408c3.235,14.884,12.073,27.62,24.883,35.858
			c12.815,8.243,28.069,10.992,42.949,7.764c17.652-3.835,32.753-14.313,42.524-29.506c4.889-7.605,8.151-15.936,9.707-24.574
			c10.224,13.559,24.457,23.922,40.991,29.172c-15.094,29.7-42.897,52.649-77.916,60.258c-23.194,5.045-46.964,0.745-66.927-12.096
			c-19.963-12.837-33.734-32.681-38.771-55.876C187.563,453.276,190.857,435.044,200.705,419.731z M214.367,551.562
			c19.294,12.407,41.254,18.814,63.658,18.812c8.412,0,16.896-0.905,25.311-2.733c47.672-10.357,84.673-43.369,102.241-85.272
			c8.968-0.602,17.55-2.59,25.514-5.838c-9.933,27.333-4.829,59.139,16.05,82.118c19.2,21.134,45.631,31.871,72.159,31.868
			c20.168-0.002,40.377-6.248,57.511-18.816c-44.845,46.167-107.515,74.933-176.81,74.933c-86.682,0-163.011-44.988-207.005-112.803
			C199.358,540.457,206.443,546.467,214.367,551.562z"/>
	</g>
	
		<ellipse transform="matrix(0.9924 -0.1228 0.1228 0.9924 -46.1045 52.1627)" style="fill:#2E533E;" cx="400" cy="400" rx="132.194" ry="132.194"/>
	<path style="fill:#CCAF61;" d="M400,538.787c-76.528,0-138.788-62.26-138.788-138.788c0-76.529,62.26-138.785,138.788-138.785
		c76.527,0,138.787,62.257,138.787,138.785C538.787,476.526,476.527,538.787,400,538.787z M400,274.396
		c-69.257,0-125.601,56.345-125.601,125.602S330.743,525.604,400,525.604c69.257,0,125.601-56.348,125.601-125.605
		S469.257,274.396,400,274.396z"/>
	<g>
		<g>
			<path style="fill:#FFFFFF;" d="M114.97,328.22c0.033-0.02,0.09-0.023,0.174-0.01c1.607,0.315,2.963,0.609,4.071,0.884
				c1.105,0.271,1.931,0.518,2.484,0.74c1.814,0.693,3.07,1.804,3.763,3.324c0.328,0.77,0.499,1.711,0.509,2.816
				c0.01,1.104-0.127,2.393-0.415,3.863l-1.801,9.193c-0.352,1.798-0.77,3.324-1.256,4.573c-0.482,1.248-1.068,2.242-1.751,2.986
				c-0.666,0.663-1.439,1.175-2.317,1.54c-0.877,0.368-1.895,0.549-3.056,0.549c-0.699-0.023-1.71-0.137-3.029-0.338
				c-1.319-0.201-2.986-0.499-5.002-0.893c-4.657-0.911-7.643-2.357-8.952-4.339l-0.007,0.04c-1.309-1.982-1.513-5.276-0.612-9.879
				l1.67-8.54c0.596-3.05,1.657-5.226,3.187-6.525c1.526-1.298,3.528-1.707,6.005-1.222l0.084,0.017
				c0.245,0.047,0.345,0.181,0.305,0.398l-0.506,2.574c-0.046,0.245-0.194,0.342-0.438,0.295c-0.797-0.127-1.507-0.117-2.129,0.03
				s-1.159,0.502-1.607,1.065c-0.308,0.418-0.599,0.964-0.87,1.631c-0.271,0.669-0.499,1.466-0.68,2.393l-1.72,8.784
				c-0.292,1.5-0.442,2.772-0.449,3.816c-0.006,1.045,0.084,1.881,0.271,2.514c0.425,1.158,1.453,2.052,3.083,2.681
				c0.867,0.338,2.989,0.84,6.367,1.5c3.569,0.699,5.949,0.74,7.144,0.124c1.276-0.74,2.243-2.785,2.899-6.136l1.855-9.477
				c0.475-2.428,0.375-4.088-0.298-4.982c-0.318-0.401-0.846-0.773-1.587-1.115c-0.736-0.344-1.72-0.635-2.945-0.873l-2.297,11.727
				c-0.05,0.271-0.215,0.382-0.486,0.328l-2.534-0.496c-0.275-0.054-0.382-0.218-0.328-0.489l2.899-14.834
				c0.007-0.027,0.027-0.05,0.057-0.074L114.97,328.22z"/>
			<path style="fill:#FFFFFF;" d="M115.375,359.678c-0.772-0.027-1.801-0.141-3.18-0.348c-1.331-0.204-3.011-0.505-5.043-0.904
				c-4.955-0.968-8.087-2.517-9.573-4.734l-0.029,0.007c-1.473-2.233-1.722-5.705-0.76-10.622l1.67-8.54
				c0.638-3.267,1.823-5.655,3.522-7.097c1.763-1.496,4.066-1.978,6.846-1.44c0.857,0.165,1.319,0.82,1.18,1.577l-0.507,2.588
				c-0.094,0.485-0.363,0.753-0.571,0.893c-0.206,0.137-0.556,0.285-1.039,0.191c-0.631-0.104-1.216-0.101-1.709,0.02
				c-0.403,0.094-0.748,0.328-1.056,0.713c-0.234,0.321-0.485,0.796-0.725,1.386c-0.248,0.609-0.459,1.353-0.625,2.206l-1.72,8.784
				c-0.28,1.44-0.424,2.661-0.43,3.632c-0.007,0.941,0.072,1.687,0.229,2.223c0.3,0.81,1.144,1.513,2.484,2.032
				c0.567,0.221,2.099,0.649,6.2,1.453c4.36,0.854,5.94,0.502,6.492,0.214c0.526-0.305,1.596-1.453,2.375-5.437l1.855-9.477
				c0.546-2.786,0.162-3.82-0.116-4.188c-0.134-0.171-0.468-0.468-1.207-0.81c-0.46-0.215-1.042-0.409-1.74-0.582l-2.099,10.719
				c-0.092,0.499-0.367,0.777-0.579,0.924c-0.213,0.143-0.567,0.304-1.083,0.194l-2.532-0.496c-0.505-0.097-0.781-0.371-0.924-0.586
				c-0.144-0.211-0.293-0.572-0.194-1.078l2.899-14.83l0.425-0.673l0.343-0.231l0.847-0.141c1.661,0.325,3.033,0.623,4.155,0.901
				c1.131,0.278,2.012,0.543,2.614,0.78c2.045,0.783,3.498,2.076,4.302,3.84c0.39,0.914,0.588,1.988,0.599,3.22
				c0.01,1.175-0.136,2.541-0.433,4.064l-1.801,9.192c-0.362,1.855-0.802,3.448-1.306,4.744c-0.522,1.353-1.176,2.464-1.947,3.301
				c-0.783,0.783-1.67,1.373-2.668,1.787C117.827,359.467,116.669,359.678,115.375,359.678z M99.228,352.554
				c1.148,1.741,3.944,3.056,8.309,3.91c1.998,0.392,3.653,0.687,4.96,0.884c1.283,0.198,2.263,0.309,2.912,0.329
				c0.993,0,1.892-0.157,2.636-0.472c0.758-0.315,1.429-0.76,1.997-1.326c0.569-0.619,1.091-1.517,1.523-2.638
				c0.462-1.185,0.867-2.668,1.207-4.402l1.801-9.192c0.273-1.393,0.407-2.625,0.397-3.663c-0.008-0.968-0.153-1.784-0.428-2.434
				c-0.576-1.262-1.627-2.179-3.199-2.782c-0.53-0.211-1.322-0.445-2.367-0.703c-0.962-0.238-2.112-0.492-3.453-0.76l-2.658,13.605
				l1.383,0.271l2.184-11.151l1.174-0.79c1.323,0.254,2.362,0.566,3.181,0.948c0.887,0.412,1.525,0.87,1.947,1.399
				c0.875,1.165,1.033,3.053,0.496,5.795l-1.854,9.478c-0.722,3.682-1.827,5.912-3.38,6.812c-1.478,0.76-3.957,0.757-7.838-0.01
				c-3.457-0.673-5.595-1.182-6.538-1.547c-1.9-0.737-3.134-1.834-3.659-3.27c-0.238-0.794-0.34-1.711-0.333-2.866
				c0.007-1.112,0.161-2.42,0.467-4.001l1.721-8.784c0.191-0.977,0.438-1.848,0.735-2.577c0.301-0.743,0.636-1.366,0.991-1.848
				c0.614-0.77,1.341-1.245,2.182-1.446c0.588-0.14,1.232-0.174,1.93-0.117l0.259-1.329c-1.966-0.268-3.46,0.09-4.631,1.091
				c-1.344,1.142-2.303,3.144-2.852,5.952l-1.67,8.54c-0.838,4.288-0.69,7.351,0.444,9.103L99.228,352.554z M114.135,343.76
				c0,0-0.002,0.003-0.002,0.007L114.135,343.76z M107.536,329.78v0.003V329.78z M108.226,329.274c0.004,0,0.008,0.004,0.012,0.004
				C108.234,329.278,108.23,329.274,108.226,329.274z"/>
		</g>
		<g>
			<path style="fill:#FFFFFF;" d="M134.323,308.739c-0.073,0.207-0.227,0.271-0.465,0.191l-24.153-8.373
				c-0.265-0.09-0.358-0.241-0.285-0.452l0.666-1.925c0.064-0.184,0.228-0.231,0.489-0.14l24.157,8.372
				c0.237,0.081,0.321,0.215,0.257,0.399L134.323,308.739z"/>
			<path style="fill:#FFFFFF;" d="M134.042,309.965c-0.162,0-0.333-0.027-0.504-0.087l-24.162-8.376
				c-0.502-0.171-0.743-0.482-0.855-0.713l-0.045-1.015l0.664-1.921c0.137-0.398,0.444-0.693,0.84-0.807
				c0.28-0.08,0.591-0.063,0.922,0.047l24.157,8.376c0.482,0.161,0.716,0.462,0.825,0.687l0.05,0.984l-0.667,1.934
				C135.066,309.64,134.596,309.965,134.042,309.965z M110.583,299.804l23.012,7.974l0.218-0.626l-23.012-7.974L110.583,299.804z
				 M134.408,307.36h0.002H134.408z"/>
		</g>
		<g>
			<path style="fill:#FFFFFF;" d="M159.324,254.296c-0.117,0.221-0.288,0.275-0.506,0.157l-20.488-10.87l-0.372,0.7l14.382,22.995
				c0.023,0.077,0.004,0.174-0.06,0.298l-0.841,1.581c-0.027,0.05-0.063,0.093-0.114,0.127l-27.085,0.857l-0.352,0.659l20.488,10.87
				c0.221,0.117,0.271,0.288,0.154,0.509l-1.265,2.39c-0.117,0.221-0.288,0.271-0.509,0.154l-22.583-11.982
				c-0.245-0.13-0.309-0.304-0.191-0.526l2.809-5.296c0.04-0.074,0.084-0.127,0.134-0.164l24.733-0.69l-13.086-21.178
				c-0.02-0.074,0-0.174,0.064-0.295l2.654-5.004c0.091-0.171,0.262-0.191,0.506-0.061l22.584,11.982
				c0.221,0.117,0.285,0.261,0.194,0.432L159.324,254.296z"/>
			<path style="fill:#FFFFFF;" d="M142.965,285.784c-0.222,0-0.453-0.057-0.678-0.177l-22.584-11.982
				c-0.737-0.392-0.984-1.165-0.606-1.878l2.809-5.296l0.425-0.502l0.564-0.194l22.997-0.639l-12.288-19.963
				c-0.062-0.228-0.087-0.59,0.144-1.028l2.656-5.005l0.741-0.623c0.247-0.077,0.637-0.11,1.12,0.147l22.58,11.982
				c0.797,0.421,0.911,1.218,0.609,1.784l-1.248,2.353c-0.234,0.442-0.57,0.623-0.81,0.697c-0.239,0.074-0.614,0.114-1.053-0.128
				l-18.397-9.758l13.35,21.412c0.102,0.331,0.059,0.683-0.127,1.048l-0.846,1.59l-0.442,0.492l-0.524,0.168l-24.826,0.783
				l18.313,9.719c0.705,0.371,0.944,1.155,0.569,1.861l-1.265,2.391C143.894,285.52,143.447,285.784,142.965,285.784z
				 M121.153,272.129l21.52,11.419l0.681-1.289l-19.935-10.575l-0.415-1.356l0.352-0.659l0.852-0.529l26.554-0.84l0.477-0.897
				l-14.129-22.587l-0.036-1.001l0.371-0.7l1.353-0.415l19.934,10.576l0.622-1.176l-21.515-11.412l-2.166,4.084l12.835,20.769
				l-0.824,1.526l-24.262,0.676L121.153,272.129z M120.87,272.678l-0.005,0.007C120.867,272.681,120.869,272.678,120.87,272.678z
				 M159.283,253.566l0.004,0.004C159.287,253.569,159.285,253.569,159.283,253.566z"/>
		</g>
		<g>
			<path style="fill:#FFFFFF;" d="M176.54,212.202l-8.951,11.074l8.259,6.676c0.194,0.154,0.201,0.341,0.027,0.559l-1.754,2.17
				c-0.154,0.193-0.332,0.21-0.526,0.053l-19.882-16.072c-0.214-0.174-0.244-0.359-0.087-0.553l10.97-13.568
				c0.974-1.209,1.942-2.159,2.892-2.853c0.954-0.693,1.889-1.098,2.806-1.215c0.897-0.093,1.885,0.064,2.966,0.472
				c1.078,0.409,2.223,1.101,3.432,2.079C180.274,203.92,180.223,207.646,176.54,212.202z M173.364,202.885
				c-0.559-0.452-1.115-0.74-1.661-0.86c-0.546-0.121-1.098-0.051-1.664,0.207c-0.412,0.201-0.851,0.509-1.309,0.921
				c-0.459,0.415-0.968,0.968-1.527,1.657l-8.875,10.977l6.571,5.316l8.875-10.977c1.081-1.339,1.737-2.434,1.961-3.287l0.034,0.027
				c0.134-0.606,0.074-1.172-0.18-1.701c-0.251-0.525-0.66-1.014-1.223-1.466L173.364,202.885z"/>
			<path style="fill:#FFFFFF;" d="M173.844,233.841c-0.241,0-0.555-0.07-0.879-0.332l-19.882-16.069
				c-0.647-0.529-0.744-1.335-0.236-1.962l10.97-13.568c1.019-1.266,2.056-2.283,3.082-3.033c1.088-0.79,2.188-1.259,3.267-1.399
				c1.074-0.097,2.226,0.071,3.446,0.529c1.177,0.445,2.423,1.198,3.708,2.239c2.805,2.267,5.083,6.29-0.002,12.584l-8.323,10.294
				l7.481,6.046c0.373,0.298,0.487,0.656,0.515,0.904c0.029,0.254-0.007,0.646-0.336,1.061l-1.757,2.173
				c-0.303,0.382-0.665,0.496-0.914,0.523C173.941,233.838,173.894,233.841,173.844,233.841z M173.34,232.054l-0.003,0.003
				L173.34,232.054z M154.797,216.253l18.94,15.309l0.993-1.229l-7.77-6.277l-0.149-1.409l8.952-11.074
				c4.387-5.427,2.273-8.175,0.3-9.772c-1.12-0.904-2.182-1.55-3.157-1.918c-0.926-0.351-1.764-0.496-2.508-0.415
				c-0.72,0.093-1.508,0.442-2.321,1.031c-0.882,0.643-1.791,1.54-2.7,2.672L154.797,216.253z M175.22,230.732l0.005,0.004
				L175.22,230.732z M164.271,221.88l-6.571-5.316l-0.149-1.406l8.875-10.977c0.589-0.726,1.138-1.323,1.634-1.771
				c0.529-0.472,1.047-0.837,1.541-1.078c0.79-0.362,1.562-0.452,2.318-0.285c0.696,0.154,1.394,0.512,2.074,1.058v0.003
				l1.004,0.814c0.678,0.542,1.182,1.151,1.496,1.811c0.35,0.73,0.438,1.523,0.255,2.35l-0.043,0.013
				c-0.263,0.994-0.966,2.192-2.151,3.659l-8.874,10.977L164.271,221.88z M159.737,215.64l5.014,4.054l8.245-10.197
				c1.234-1.527,1.644-2.428,1.773-2.913l0.04-0.013c0.064-0.355,0.025-0.666-0.122-0.971c-0.184-0.388-0.504-0.763-0.948-1.121
				l-1.006-0.817c-0.436-0.351-0.855-0.573-1.247-0.66c-0.33-0.077-0.665-0.027-1.033,0.14c-0.304,0.151-0.667,0.409-1.056,0.754
				c-0.415,0.378-0.892,0.897-1.418,1.543L159.737,215.64z"/>
		</g>
		<g>
			<path style="fill:#FFFFFF;" d="M222.99,171.826c0.726,1.098,1.225,2.099,1.493,3.003c0.231,0.904,0.278,1.808,0.144,2.712
				c-0.134,0.907-0.469,1.771-1.001,2.598l0.027,0.033c-0.445,0.713-1.109,1.543-1.982,2.481c-0.874,0.941-2.005,2.009-3.391,3.207
				l-3.057,2.642c-3.193,2.759-5.661,4.382-7.408,4.864c-1.915,0.589-3.82,0.271-5.718-0.948c-0.693-0.465-1.551-1.212-2.568-2.239
				c-1.018-1.028-2.226-2.35-3.622-3.967c-1.145-1.326-2.085-2.527-2.822-3.615c-0.737-1.088-1.232-2.073-1.483-2.956
				c-0.227-0.904-0.282-1.801-0.157-2.698c0.124-0.897,0.455-1.798,0.994-2.705l0.03-0.027c0.834-1.413,2.645-3.328,5.437-5.745
				l3.056-2.638c3.067-2.651,5.534-4.251,7.405-4.807c0.927-0.285,1.871-0.348,2.832-0.191c0.964,0.157,1.925,0.559,2.883,1.198
				c0.632,0.479,1.462,1.229,2.49,2.25c1.028,1.018,2.243,2.337,3.639,3.954C221.336,169.533,222.263,170.731,222.99,171.826z
				 M216.194,168.676c-0.927-1.071-1.767-1.959-2.521-2.665c-0.757-0.703-1.44-1.175-2.052-1.416
				c-1.037-0.609-2.173-0.582-3.401,0.077c-1.001,0.499-2.678,1.764-5.029,3.797l-3.026,2.611c-2.35,2.036-3.856,3.519-4.516,4.456
				c-0.807,1.101-1.018,2.236-0.629,3.408c0.398,1.269,1.523,2.973,3.375,5.116l1.499,1.734c1.852,2.142,3.375,3.502,4.573,4.081
				c1.105,0.513,2.26,0.449,3.469-0.19c1.001-0.495,2.675-1.761,5.028-3.796l3.023-2.614c2.333-2.012,3.816-3.478,4.453-4.399
				c0.83-1.118,1.041-2.236,0.629-3.348c-0.151-0.639-0.519-1.386-1.109-2.236c-0.586-0.847-1.342-1.808-2.27-2.879L216.194,168.676
				z"/>
			<path style="fill:#FFFFFF;" d="M205.952,194.657c-1.471,0-2.946-0.466-4.395-1.396c-0.777-0.523-1.666-1.295-2.739-2.381
				c-1.038-1.048-2.271-2.397-3.669-4.017c-1.192-1.379-2.138-2.591-2.892-3.706c-0.807-1.192-1.336-2.253-1.617-3.244
				c-0.266-1.058-0.326-2.092-0.186-3.111c0.14-1.024,0.519-2.059,1.125-3.08l0.05-0.06c0.907-1.516,2.747-3.464,5.623-5.955
				l3.056-2.638c3.202-2.768,5.745-4.408,7.775-5.011c1.062-0.322,2.166-0.398,3.279-0.218c1.097,0.177,2.2,0.636,3.276,1.352
				c0.723,0.546,1.57,1.312,2.639,2.373c1.05,1.038,2.292,2.387,3.693,4.011c1.151,1.333,2.112,2.575,2.854,3.697h0.002
				c0.779,1.178,1.324,2.279,1.617,3.27c0.272,1.065,0.328,2.109,0.174,3.144c-0.15,1.021-0.527,2.015-1.119,2.945l0.005,0.068
				c-0.479,0.766-1.185,1.654-2.099,2.634c-0.895,0.965-2.03,2.039-3.468,3.281l-3.056,2.641c-3.345,2.889-5.894,4.546-7.797,5.072
				C207.374,194.546,206.663,194.657,205.952,194.657z M193.281,174.779c-0.457,0.776-0.741,1.55-0.845,2.3
				c-0.105,0.77-0.062,1.53,0.137,2.317c0.21,0.743,0.664,1.64,1.341,2.638c0.701,1.038,1.626,2.223,2.751,3.525
				c1.366,1.583,2.569,2.899,3.575,3.917c0.964,0.971,1.776,1.684,2.414,2.112c1.635,1.044,3.234,1.323,4.866,0.82
				c1.617-0.445,3.979-2.012,7.049-4.663l3.056-2.642c1.362-1.179,2.477-2.233,3.313-3.13c0.819-0.881,1.44-1.654,1.851-2.306
				l-0.005-0.071c0.46-0.713,0.74-1.436,0.852-2.203c0.116-0.77,0.073-1.55-0.122-2.317c-0.228-0.763-0.688-1.684-1.357-2.698l0,0
				c-0.697-1.048-1.606-2.223-2.704-3.495c-1.366-1.58-2.571-2.892-3.586-3.897c-0.992-0.984-1.796-1.71-2.39-2.162
				c-0.788-0.522-1.627-0.874-2.438-1.008c-0.819-0.134-1.592-0.08-2.379,0.161c-1.736,0.515-4.102,2.065-7.043,4.606l-3.056,2.638
				c-2.693,2.334-4.454,4.182-5.229,5.497L193.281,174.779z M205.977,191.219c-0.653,0-1.299-0.144-1.931-0.438
				c-1.349-0.653-2.95-2.065-4.908-4.336l-1.499-1.731c-1.962-2.27-3.13-4.061-3.572-5.47c-0.489-1.476-0.229-2.926,0.777-4.302
				c0.696-0.987,2.226-2.504,4.668-4.62l3.026-2.611c2.434-2.106,4.148-3.391,5.236-3.937c1.908-1.025,3.423-0.589,4.355-0.043
				c0.594,0.221,1.37,0.75,2.226,1.546c0.784,0.733,1.655,1.657,2.596,2.742l0.002,0.004l1.496,1.734
				c0.94,1.088,1.727,2.086,2.335,2.962c0.664,0.961,1.076,1.801,1.259,2.575c0.331,0.877,0.499,2.427-0.801,4.175
				c-0.673,0.974-2.185,2.477-4.603,4.56l-3.021,2.614c-2.444,2.112-4.156,3.401-5.239,3.936
				C207.574,191.005,206.77,191.219,205.977,191.219z M210.046,165.164c-0.38,0-0.822,0.104-1.353,0.389
				c-0.663,0.332-2.015,1.222-4.847,3.672l-3.026,2.611c-2.283,1.979-3.748,3.418-4.352,4.275c-0.629,0.86-0.784,1.654-0.497,2.517
				c0.358,1.145,1.428,2.745,3.181,4.777l1.5,1.731c1.752,2.029,3.184,3.321,4.252,3.836c0.808,0.371,1.628,0.318,2.564-0.174
				c0.941-0.465,2.561-1.697,4.843-3.669l3.023-2.614c2.81-2.424,3.88-3.629,4.283-4.212c0.65-0.877,0.807-1.64,0.514-2.43
				c-0.157-0.637-0.478-1.276-0.99-2.015c-0.567-0.82-1.309-1.758-2.205-2.792l-1.496-1.734c-0.896-1.035-1.719-1.909-2.449-2.592
				c-0.658-0.612-1.244-1.021-1.734-1.215C210.918,165.335,210.533,165.164,210.046,165.164z"/>
		</g>
		<g>
			<path style="fill:#FFFFFF;" d="M237.894,143.006l3.93,6.528l15.948-9.591c0.191-0.114,0.358-0.054,0.499,0.184l1.352,2.25
				c0.144,0.238,0.121,0.412-0.071,0.529l-15.948,9.591l5.899,9.812c0.13,0.215,0.087,0.385-0.127,0.516l-2.247,1.353
				c-0.214,0.127-0.385,0.083-0.515-0.131l-13.176-21.908c-0.144-0.238-0.107-0.421,0.107-0.549L252.6,130.13
				c0.187-0.118,0.355-0.054,0.499,0.184l1.353,2.247c0.143,0.241,0.117,0.415-0.071,0.529L237.894,143.006z"/>
			<path style="fill:#FFFFFF;" d="M246.903,165.248c-0.452,0-0.872-0.238-1.144-0.68l-13.178-21.914
				c-0.271-0.445-0.254-0.84-0.191-1.088c0.06-0.244,0.221-0.586,0.644-0.837l19.05-11.456l0.983-0.167
				c0.251,0.06,0.608,0.227,0.887,0.69l1.355,2.249c0.499,0.834,0.137,1.57-0.409,1.902l-15.632,9.4l2.898,4.814l15.091-9.076
				l1.004-0.161c0.248,0.064,0.601,0.234,0.872,0.693l1.347,2.243c0.429,0.706,0.263,1.487-0.403,1.898l-15.1,9.079l5.383,8.955
				c0.412,0.676,0.218,1.47-0.464,1.885l-2.252,1.356C247.401,165.177,247.147,165.248,246.903,165.248z M234.598,142.125
				l12.553,20.87l1.173-0.707l-5.576-9.276l0.341-1.373l15.376-9.246l-0.75-1.249l-15.376,9.247l-1.372-0.342l-3.93-6.528
				l0.341-1.373l15.915-9.571l-0.75-1.245L234.598,142.125z M248.647,162.827l0.002,0.004L248.647,162.827z M234.064,142.447h-0.004
				H234.064z M234.293,141.62h0.002H234.293z M257.414,140.642L257.414,140.642L257.414,140.642z M253.131,130.981l-0.015,0.006
				C253.121,130.984,253.126,130.981,253.131,130.981z"/>
		</g>
		<g>
			<path style="fill:#FFFFFF;" d="M310.244,125.45c0.315,1.276,0.445,2.387,0.392,3.328c-0.087,0.928-0.349,1.795-0.78,2.601
				c-0.432,0.807-1.038,1.51-1.818,2.109l0.013,0.04c-0.659,0.523-1.56,1.078-2.702,1.667c-1.141,0.589-2.567,1.215-4.275,1.875
				l-3.769,1.456c-3.933,1.52-6.805,2.213-8.613,2.079c-1.999-0.09-3.686-1.031-5.062-2.822c-0.499-0.67-1.051-1.66-1.664-2.973
				c-0.609-1.312-1.299-2.962-2.072-4.958c-0.629-1.63-1.108-3.083-1.437-4.355c-0.328-1.272-0.458-2.367-0.398-3.284
				c0.09-0.924,0.341-1.787,0.763-2.591c0.419-0.8,1.035-1.54,1.848-2.209l0.037-0.014c1.259-1.054,3.612-2.246,7.057-3.575
				l3.766-1.456c3.78-1.459,6.645-2.133,8.594-2.025c0.967,0.043,1.878,0.301,2.731,0.776c0.851,0.472,1.62,1.176,2.306,2.099
				c0.435,0.667,0.965,1.651,1.587,2.956c0.623,1.309,1.322,2.959,2.092,4.952C309.461,122.732,309.929,124.171,310.244,125.45z
				 M304.908,120.191c-0.509-1.322-1.001-2.44-1.476-3.358c-0.472-0.921-0.957-1.597-1.453-2.029
				c-0.773-0.921-1.848-1.279-3.227-1.075c-1.108,0.131-3.114,0.757-6.013,1.878l-3.73,1.439c-2.902,1.122-4.82,2.012-5.755,2.668
				c-1.132,0.767-1.714,1.764-1.744,2.996c-0.05,1.329,0.432,3.314,1.453,5.956l0.823,2.136c1.021,2.642,1.999,4.436,2.93,5.386
				c0.867,0.857,1.978,1.185,3.331,0.991c1.108-0.13,3.113-0.757,6.013-1.878l3.729-1.44c2.876-1.112,4.767-1.992,5.678-2.642
				c1.158-0.773,1.731-1.754,1.721-2.939c0.073-0.656-0.024-1.479-0.288-2.477c-0.268-0.998-0.656-2.159-1.165-3.478
				L304.908,120.191z"/>
			<path style="fill:#FFFFFF;" d="M289.15,141.623c-0.184,0-0.362-0.007-0.533-0.02c-2.27-0.1-4.225-1.182-5.781-3.21
				c-0.547-0.734-1.127-1.764-1.778-3.161c-0.614-1.322-1.321-3.009-2.098-5.018c-0.64-1.657-1.135-3.16-1.471-4.466
				c-0.352-1.363-0.496-2.575-0.429-3.602c0.107-1.088,0.4-2.082,0.877-2.989c0.48-0.921,1.186-1.767,2.097-2.517l0.065-0.037
				c1.362-1.128,3.753-2.344,7.304-3.713l3.765-1.456c3.947-1.526,6.905-2.189,9.01-2.092c1.112,0.05,2.18,0.354,3.164,0.904
				c0.968,0.536,1.851,1.336,2.623,2.377c0.5,0.763,1.041,1.767,1.687,3.12c0.643,1.353,1.356,3.04,2.123,5.022
				c0.644,1.673,1.116,3.13,1.441,4.449c0.337,1.366,0.477,2.584,0.419,3.622c-0.102,1.091-0.402,2.092-0.898,3.016
				c-0.488,0.914-1.179,1.721-2.047,2.397l-0.018,0.063c-0.707,0.562-1.67,1.158-2.864,1.774c-1.173,0.606-2.645,1.249-4.374,1.918
				l-3.769,1.456C293.909,140.913,291.114,141.623,289.15,141.623z M281.282,118.206c-0.69,0.573-1.219,1.205-1.572,1.881
				c-0.356,0.676-0.576,1.426-0.654,2.223c-0.05,0.784,0.074,1.781,0.371,2.936c0.318,1.232,0.789,2.662,1.401,4.245
				c0.762,1.965,1.449,3.616,2.045,4.898c0.584,1.251,1.11,2.192,1.559,2.795c1.189,1.55,2.601,2.343,4.305,2.42
				c1.681,0.137,4.429-0.552,8.207-2.012l3.771-1.456c1.66-0.643,3.067-1.259,4.176-1.831c1.067-0.549,1.913-1.071,2.519-1.547
				l0.019-0.063c0.662-0.509,1.182-1.112,1.545-1.788c0.368-0.686,0.593-1.436,0.666-2.223c0.045-0.801-0.079-1.821-0.368-2.993
				v-0.004c-0.3-1.215-0.758-2.631-1.364-4.201c-0.746-1.935-1.441-3.578-2.062-4.884c-0.597-1.252-1.11-2.209-1.522-2.836
				c-0.565-0.76-1.235-1.373-1.953-1.774c-0.722-0.402-1.471-0.612-2.291-0.65c-1.846-0.117-4.568,0.559-8.189,1.959l-3.765,1.456
				c-3.329,1.282-5.609,2.431-6.776,3.408L281.282,118.206z M289.303,138.238c-1.281,0-2.391-0.449-3.29-1.336
				c-1.051-1.074-2.08-2.946-3.16-5.738l-0.823-2.136c-1.078-2.792-1.575-4.871-1.519-6.354c0.037-1.553,0.772-2.833,2.183-3.79
				c0.999-0.7,2.951-1.61,5.953-2.772l3.732-1.44c3.004-1.162,5.05-1.798,6.255-1.938c2.144-0.315,3.418,0.599,4.111,1.426
				c0.49,0.412,1.042,1.172,1.576,2.217c0.491,0.944,1.001,2.106,1.52,3.451l0.826,2.136c0.518,1.342,0.921,2.548,1.197,3.579
				c0.301,1.135,0.405,2.065,0.317,2.849c0.015,0.94-0.353,2.453-2.159,3.662c-0.965,0.686-2.894,1.59-5.872,2.742l-3.731,1.44
				c-3.004,1.162-5.05,1.798-6.255,1.939C289.87,138.218,289.582,138.238,289.303,138.238z M299.463,114.678
				c-0.172,0-0.36,0.013-0.564,0.043c-0.731,0.087-2.303,0.468-5.798,1.821l-3.731,1.44c-3.499,1.352-4.943,2.136-5.539,2.554
				c-0.883,0.596-1.298,1.292-1.32,2.2c-0.031,0.833,0.184,2.46,1.387,5.57l0.823,2.136c0.966,2.497,1.877,4.198,2.71,5.049
				c0.634,0.622,1.421,0.854,2.474,0.699c0.726-0.087,2.298-0.468,5.793-1.821l3.731-1.44c3.463-1.339,4.879-2.109,5.457-2.52
				c0.902-0.606,1.308-1.272,1.3-2.116c0.066-0.646-0.021-1.356-0.254-2.229c-0.257-0.965-0.639-2.103-1.131-3.375l-0.827-2.139
				c-0.492-1.276-0.972-2.373-1.431-3.253c-0.412-0.807-0.823-1.39-1.222-1.738C300.937,115.119,300.437,114.678,299.463,114.678z"
				/>
		</g>
		<g>
			<path style="fill:#FFFFFF;" d="M362.984,113.573c0.07,1.315-0.01,2.431-0.238,3.344c-0.261,0.894-0.679,1.697-1.255,2.41
				c-0.576,0.71-1.302,1.285-2.183,1.728l0.007,0.043c-0.746,0.388-1.737,0.767-2.966,1.132c-1.232,0.365-2.748,0.71-4.553,1.038
				l-3.973,0.723c-4.152,0.757-7.101,0.897-8.852,0.425c-1.945-0.465-3.428-1.704-4.442-3.719c-0.365-0.754-0.723-1.831-1.074-3.234
				c-0.355-1.403-0.723-3.153-1.105-5.259c-0.315-1.721-0.512-3.234-0.596-4.547c-0.084-1.309-0.007-2.41,0.227-3.3
				c0.261-0.894,0.67-1.694,1.232-2.404c0.562-0.707,1.306-1.315,2.229-1.821l0.04-0.01c1.436-0.793,3.97-1.523,7.602-2.186
				l3.974-0.723c3.987-0.723,6.926-0.851,8.818-0.375c0.944,0.224,1.791,0.65,2.537,1.272c0.751,0.626,1.373,1.46,1.872,2.497
				c0.304,0.733,0.639,1.801,1.007,3.2c0.365,1.403,0.743,3.153,1.125,5.256C362.726,110.757,362.913,112.26,362.984,113.573z
				 M358.728,107.406c-0.251-1.393-0.525-2.584-0.817-3.575c-0.294-0.991-0.643-1.745-1.048-2.263
				c-0.585-1.051-1.576-1.604-2.969-1.661c-1.115-0.08-3.2,0.157-6.26,0.713l-3.93,0.717c-3.06,0.555-5.112,1.071-6.153,1.543
				c-1.255,0.539-2.015,1.409-2.276,2.614c-0.301,1.295-0.198,3.334,0.311,6.123l0.409,2.253c0.505,2.785,1.128,4.73,1.865,5.838
				c0.693,1.004,1.72,1.537,3.086,1.597c1.115,0.08,3.2-0.157,6.26-0.716l3.93-0.713c3.033-0.552,5.055-1.062,6.072-1.526
				c1.282-0.546,2.029-1.4,2.24-2.568c0.197-0.629,0.257-1.456,0.184-2.487c-0.077-1.031-0.238-2.243-0.492-3.636L358.728,107.406z"
				/>
			<path style="fill:#FFFFFF;" d="M341.531,125.691c-1.125,0-2.062-0.104-2.822-0.308c-2.212-0.529-3.929-1.958-5.075-4.238
				c-0.406-0.834-0.781-1.956-1.152-3.439c-0.36-1.423-0.737-3.214-1.118-5.326c-0.319-1.741-0.524-3.308-0.611-4.66
				c-0.089-1.406-0.004-2.625,0.259-3.619c0.305-1.044,0.778-1.965,1.414-2.772c0.648-0.813,1.5-1.509,2.534-2.075l0.238-0.094
				c1.347-0.77,3.933-1.523,7.706-2.209l3.974-0.723c4.172-0.754,7.195-0.873,9.241-0.362c1.077,0.258,2.07,0.754,2.934,1.473
				c0.855,0.716,1.572,1.667,2.132,2.832c0.344,0.823,0.689,1.915,1.073,3.381c0.382,1.466,0.767,3.261,1.142,5.333
				c0.313,1.717,0.509,3.278,0.581,4.633l0,0c0.075,1.406-0.015,2.631-0.266,3.639c-0.308,1.058-0.792,1.986-1.448,2.799
				c-0.655,0.807-1.481,1.467-2.462,1.969l-0.03,0.06c-0.802,0.419-1.86,0.824-3.144,1.206c-1.254,0.368-2.821,0.726-4.658,1.061
				l-3.974,0.723C345.385,125.454,343.24,125.691,341.531,125.691z M353.139,97.557c-1.578,0-3.55,0.214-5.902,0.64l-3.973,0.723
				c-3.505,0.64-5.961,1.339-7.298,2.079l-0.242,0.093c-0.6,0.355-1.25,0.88-1.728,1.483c-0.483,0.609-0.828,1.282-1.055,2.062
				c-0.2,0.76-0.266,1.764-0.189,2.956c0.08,1.272,0.276,2.762,0.581,4.429c0.375,2.069,0.741,3.816,1.091,5.196
				c0.333,1.332,0.672,2.353,1.004,3.043c0.875,1.737,2.112,2.781,3.774,3.18c1.627,0.439,4.458,0.288,8.44-0.435l3.974-0.723
				c1.767-0.321,3.264-0.663,4.448-1.015c1.148-0.338,2.077-0.693,2.763-1.044l0.032-0.064c0.747-0.375,1.371-0.867,1.854-1.463
				c0.488-0.606,0.849-1.299,1.072-2.062c0.192-0.776,0.263-1.804,0.199-3.009l0,0c-0.069-1.272-0.254-2.748-0.55-4.386
				c-0.369-2.022-0.74-3.763-1.11-5.182c-0.356-1.356-0.681-2.39-0.962-3.066c-0.414-0.857-0.955-1.587-1.588-2.113
				c-0.625-0.522-1.341-0.88-2.127-1.068C354.969,97.641,354.132,97.557,353.139,97.557z M341.409,122.32
				c-0.194,0-0.373-0.004-0.535-0.017c-1.661-0.074-2.962-0.753-3.838-2.025c-0.832-1.251-1.491-3.284-2.025-6.23l-0.409-2.253
				c-0.539-2.949-0.637-5.085-0.301-6.528c0.324-1.496,1.312-2.645,2.856-3.308c1.112-0.502,3.2-1.031,6.369-1.607l3.93-0.717
				c3.176-0.576,5.307-0.83,6.511-0.726c2.161,0.087,3.247,1.229,3.771,2.17c0.402,0.496,0.801,1.342,1.133,2.467
				c0.307,1.041,0.59,2.28,0.842,3.679l0.412,2.253c0.254,1.39,0.425,2.648,0.506,3.743c0.083,1.172,0.01,2.106-0.228,2.862
				c-0.157,0.917-0.8,2.337-2.802,3.187c-1.081,0.496-3.145,1.018-6.286,1.59l-3.93,0.713
				C344.641,122.075,342.676,122.32,341.409,122.32z M353.441,100.895c-0.877,0-2.514,0.143-5.627,0.71l-3.93,0.716
				c-3.69,0.67-5.256,1.168-5.919,1.47c-0.981,0.422-1.52,1.028-1.713,1.915c-0.271,1.171-0.162,3.093,0.318,5.731l0.408,2.256
				c0.479,2.631,1.055,4.469,1.714,5.463c0.507,0.733,1.24,1.101,2.296,1.148c0.743,0.07,2.35-0.024,6.037-0.7l3.93-0.713
				c3.654-0.666,5.191-1.158,5.835-1.453c1.304-0.555,1.576-1.312,1.672-1.834c0.187-0.626,0.234-1.336,0.171-2.239
				c-0.077-1.018-0.238-2.206-0.479-3.525l-0.412-2.256c-0.241-1.332-0.508-2.498-0.794-3.472c-0.256-0.864-0.55-1.513-0.875-1.928
				c-0.345-0.596-0.849-1.223-2.221-1.276C353.739,100.898,353.603,100.895,353.441,100.895z"/>
		</g>
		<g>
			<path style="fill:#FFFFFF;" d="M401.06,96.235l0.365,22.52c0.003,0.251-0.121,0.378-0.368,0.382l-2.625,0.043
				c-0.221,0.004-0.335-0.121-0.338-0.368l-0.365-22.523l-11.864,0.191c-0.278,0.003-0.419-0.131-0.426-0.409l-0.04-2.625
				c-0.007-0.274,0.131-0.418,0.408-0.421l27.103-0.439c0.278-0.007,0.418,0.13,0.422,0.409l0.043,2.624
				c0.004,0.278-0.134,0.419-0.412,0.422L401.06,96.235z"/>
			<path style="fill:#FFFFFF;" d="M398.425,120.181c-0.36,0-0.69-0.127-0.931-0.361c-0.179-0.174-0.395-0.489-0.401-0.995
				l-0.348-21.519l-10.863,0.174c-0.008,0-0.015,0-0.022,0c-0.82,0-1.4-0.565-1.421-1.386l-0.04-2.631
				c-0.011-0.509,0.2-0.837,0.379-1.024c0.179-0.184,0.502-0.408,1.019-0.415l27.098-0.438c0.488-0.01,0.839,0.197,1.025,0.378
				c0.186,0.178,0.408,0.502,0.415,1.018l0.043,2.621c0.007,0.519-0.206,0.848-0.385,1.031c-0.18,0.181-0.5,0.401-1.016,0.409
				l-10.898,0.177l0.348,21.519c0.01,0.8-0.559,1.389-1.356,1.399l-2.621,0.043C398.44,120.181,398.434,120.181,398.425,120.181z
				 M399.095,118.795L399.095,118.795L399.095,118.795z M397.712,95.287l1.018,0.985l0.355,21.897l1.329-0.024l-0.355-21.894
				l0.984-1.018l11.322-0.184l-0.024-1.453l-25.933,0.419l0.024,1.453L397.712,95.287z M385.826,94.025h-0.002H385.826z
				 M412.934,93.587h-0.004H412.934z M386.4,93.423v0.004V93.423z M412.331,93.011c0,0,0,0,0,0.004V93.011z"/>
		</g>
		<g>
			<path style="fill:#FFFFFF;" d="M463.595,121.792c-0.576,0.967-1.359,1.69-2.344,2.165c-0.807,0.426-1.777,0.663-2.916,0.717
				c-1.135,0.054-2.444-0.047-3.92-0.305l-19.072-3.337c-0.244-0.043-0.345-0.187-0.305-0.435l4.41-25.181
				c0.046-0.275,0.194-0.388,0.438-0.345l17.883,3.127c6.016,1.054,8.637,3.796,7.86,8.225c-0.455,2.598-1.403,4.305-2.842,5.125
				c1.902,1.376,2.585,3.592,2.049,6.655C464.589,119.626,464.174,120.82,463.595,121.792z M460.913,114.051
				c-0.338-0.315-0.803-0.593-1.396-0.837c-0.593-0.244-1.326-0.442-2.2-0.596l-16.939-2.966l-1.493,8.533l17.064,2.986
				c1.668,0.291,2.956,0.144,3.86-0.445c0.907-0.589,1.49-1.62,1.748-3.096C461.837,116.016,461.623,114.825,460.913,114.051z
				 M461.573,103.282c-0.69-0.726-1.815-1.229-3.375-1.5l-15.952-2.792l-1.285,7.341l15.995,2.799
				c1.614,0.281,2.762,0.244,3.445-0.114c0.984-0.308,1.606-1.215,1.868-2.718C462.497,105.013,462.262,104.008,461.573,103.282z"/>
			<path style="fill:#FFFFFF;" d="M457.734,125.688c-1.051,0-2.221-0.11-3.492-0.331l-19.072-3.341
				c-0.788-0.137-1.248-0.79-1.119-1.58l4.41-25.194c0.087-0.512,0.357-0.797,0.567-0.944c0.203-0.148,0.547-0.295,1.033-0.211
				l17.88,3.127c3.209,0.562,5.574,1.617,7.028,3.14c1.537,1.607,2.091,3.706,1.646,6.243c-0.392,2.233-1.15,3.91-2.262,5.008
				c1.48,1.607,1.974,3.88,1.468,6.769c-0.266,1.534-0.726,2.856-1.367,3.93c-0.676,1.135-1.607,1.995-2.769,2.554
				c-0.9,0.476-2.022,0.757-3.304,0.817C458.171,125.685,457.956,125.688,457.734,125.688z M436.132,120.154l18.456,3.231
				c1.392,0.241,2.637,0.345,3.701,0.288c0.986-0.046,1.826-0.247,2.496-0.599c0.845-0.412,1.473-0.99,1.95-1.794h0.002
				c0.514-0.864,0.89-1.959,1.115-3.247c0.467-2.678-0.072-4.533-1.65-5.674l0.092-1.681c1.162-0.659,1.954-2.152,2.352-4.429
				c0.333-1.898-0.034-3.375-1.122-4.513c-1.153-1.205-3.147-2.065-5.925-2.554l-17.264-3.016L436.132,120.154z M439.714,96.055
				c0,0.003,0.002,0.003,0.002,0.003L439.714,96.055z M440.434,95.582v0.004V95.582z M457.472,122.317
				c-0.526,0-1.092-0.053-1.696-0.157l-17.064-2.989l-0.813-1.158l1.493-8.534l1.159-0.81l16.939,2.966
				c0.961,0.167,1.748,0.382,2.409,0.656c0.713,0.291,1.267,0.629,1.695,1.028l0.057,0.057c0.927,1.011,1.227,2.501,0.89,4.426
				c-0.306,1.754-1.043,3.02-2.188,3.766C459.587,122.066,458.623,122.317,457.472,122.317z M440.044,117.372l16.077,2.815
				c1.404,0.245,2.464,0.148,3.14-0.298c0.672-0.438,1.1-1.232,1.309-2.431c0.219-1.262,0.095-2.169-0.368-2.701
				c-0.247-0.221-0.605-0.429-1.067-0.619c-0.518-0.212-1.188-0.392-1.992-0.536l-15.951-2.792L440.044,117.372z M458.866,110.322
				c-0.594,0-1.29-0.067-2.082-0.204l-15.995-2.802l-0.814-1.159l1.286-7.341l1.158-0.81l15.952,2.792
				c1.766,0.304,3.088,0.91,3.929,1.794c0.919,0.968,1.24,2.273,0.955,3.88c-0.41,2.36-1.616,3.208-2.554,3.499
				C460.284,110.202,459.668,110.322,458.866,110.322z M442.119,105.518l15.009,2.628c1.816,0.308,2.54,0.127,2.807-0.017
				c0.386-0.137,1.059-0.348,1.347-2.001c0.171-0.965,0.027-1.667-0.436-2.156c-0.538-0.566-1.487-0.971-2.819-1.201l-14.967-2.622
				L442.119,105.518z"/>
		</g>
		<g>
			<path style="fill:#FFFFFF;" d="M509.913,141.188l-0.234-0.087c0.01-0.027,0.01-0.07,0.007-0.134l0.023,0.054l-0.783-6.826
				l-16.421-6.133l-5.028,4.653l0.013-0.037c-0.02,0.05-0.033,0.09-0.043,0.118l-0.194-0.074l-2.731-1.021
				c-0.234-0.087-0.308-0.247-0.221-0.482l0.017-0.037c0.02-0.054,0.063-0.098,0.137-0.128l-0.03,0.077l21.268-19.567
				c0.071-0.034,0.157-0.03,0.261,0.007l3.783,1.416c0.081,0.027,0.121,0.051,0.131,0.071c0.007,0.016,0.02,0.043,0.037,0.08
				l3.304,28.746l0.03-0.077c0.007,0.06,0,0.117-0.02,0.171l-0.013,0.037c-0.087,0.234-0.234,0.315-0.442,0.238L509.913,141.188z
				 M495.294,125.591l13.143,4.911l-1.674-15.382L495.294,125.591z"/>
			<path style="fill:#FFFFFF;" d="M512.898,143.28c-0.157,0-0.321-0.03-0.483-0.09l-3.083-1.152l-0.309-0.679l-0.23,0.063
				l0.209-0.107l-0.094-0.204l-0.193,0.024l-0.028-0.101l0.017-0.003l-0.701-6.113l-15.269-5.705l-4.576,4.235l-0.225-0.147
				l-0.84,0.432l-2.921-1.094c-0.465-0.171-0.686-0.479-0.792-0.707c-0.104-0.228-0.191-0.596-0.019-1.062l0.42-0.438l-0.035-0.037
				l21.515-19.735c0.219-0.103,0.575-0.194,1.026-0.033l3.8,1.423l0.675,0.559l0.136,0.415l3.334,28.673l-0.076,0.633
				C513.931,142.936,513.444,143.28,512.898,143.28z M510.645,140.391l1.446,0.543l-3.123-27.167l-2.98-1.115l-20.099,18.492
				l1.292,0.482l4.645-4.298l1.03-0.204l16.42,6.133l0.644,0.823L510.645,140.391z M488.089,132.919l0.342,0.1l-0.427-0.137
				L488.089,132.919z M508.087,131.439l-13.143-4.911l-0.325-1.677l11.469-10.472l1.669,0.633l1.674,15.383L508.087,131.439z
				 M497.177,125.226l10.09,3.77l-1.286-11.808L497.177,125.226z"/>
		</g>
		<g>
			<path style="fill:#FFFFFF;" d="M532.841,152.332c-0.218-0.124-0.261-0.295-0.137-0.512l12.845-22.105
				c0.137-0.238,0.318-0.298,0.532-0.171l2.27,1.319c0.214,0.124,0.254,0.308,0.114,0.546l-11.319,19.477l15.878,9.226
				c0.214,0.124,0.261,0.294,0.134,0.512l-1.336,2.303c-0.127,0.218-0.298,0.261-0.512,0.137L532.841,152.332z"/>
			<path style="fill:#FFFFFF;" d="M551.535,164.136c-0.239,0-0.487-0.066-0.725-0.204l-18.469-10.733
				c-0.432-0.248-0.599-0.59-0.664-0.83c-0.062-0.241-0.087-0.616,0.157-1.045l12.85-22.112c0.262-0.455,0.614-0.626,0.866-0.693
				c0.347-0.087,0.716-0.034,1.043,0.164l2.261,1.315c0.423,0.245,0.589,0.586,0.653,0.827c0.065,0.248,0.087,0.64-0.179,1.091
				l-10.813,18.607l15.013,8.724c0.43,0.248,0.596,0.586,0.661,0.827c0.063,0.244,0.087,0.622-0.166,1.054l-1.333,2.3
				C552.419,163.889,551.994,164.136,551.535,164.136z M533.884,151.78l17.387,10.103l0.709-1.221l-15.336-8.912l-0.363-1.367
				l11.024-18.971l-1.185-0.687L533.884,151.78z M552.293,160.122c0,0-0.002,0-0.002,0.004L552.293,160.122z M533.337,151.462
				l0.002,0.003C533.339,151.462,533.337,151.462,533.337,151.462z M547.6,130.907h-0.001H547.6z M545.58,130.408l0.003,0.003
				L545.58,130.408z"/>
		</g>
		<g>
			<path style="fill:#FFFFFF;" d="M569.11,175.579c-0.193-0.157-0.21-0.335-0.057-0.529l16.065-19.885
				c0.178-0.217,0.362-0.247,0.556-0.09l2.039,1.65c0.194,0.154,0.204,0.342,0.03,0.559l-14.154,17.522l14.281,11.539
				c0.198,0.157,0.214,0.332,0.057,0.526l-1.673,2.072c-0.157,0.194-0.332,0.215-0.526,0.057L569.11,175.579z"/>
			<path style="fill:#FFFFFF;" d="M585.974,190.104c-0.239,0-0.554-0.067-0.875-0.328l-16.618-13.421
				c-0.624-0.505-0.711-1.298-0.21-1.928l16.07-19.892c0.531-0.65,1.34-0.743,1.963-0.238l2.039,1.651
				c0.375,0.295,0.489,0.656,0.517,0.904c0.028,0.255-0.007,0.646-0.334,1.058l-13.528,16.745l13.503,10.911
				c0.385,0.308,0.5,0.669,0.528,0.921c0.027,0.248-0.007,0.626-0.321,1.015l-1.674,2.072c-0.313,0.385-0.671,0.499-0.917,0.526
				C586.071,190.101,586.025,190.104,585.974,190.104z M570.225,175.193l15.644,12.635l0.885-1.098l-13.794-11.144l-0.148-1.409
				l13.787-17.067l-1.066-0.863L570.225,175.193z M587.245,187.125l0.001,0.003L587.245,187.125z M569.74,174.802h0.004H569.74
				L569.74,174.802z M587.086,157.505l0.005,0.003L587.086,157.505z"/>
		</g>
		<g>
			<path style="fill:#FFFFFF;" d="M626.878,220.97c-0.004,0.04-0.034,0.087-0.097,0.143c-2.106,1.852-4.222,2.534-6.354,2.046
				c-1.704-0.462-3.542-1.818-5.523-4.068l-6.247-7.094c-1.212-1.376-2.166-2.634-2.859-3.779c-0.696-1.148-1.128-2.216-1.302-3.211
				c-0.117-0.934-0.05-1.851,0.204-2.762c0.254-0.907,0.737-1.821,1.443-2.739c0.857-1.088,2.806-2.969,5.846-5.647
				c3.542-3.12,6.518-4.593,8.925-4.422l-0.027-0.03c2.37,0.171,5.095,2.005,8.175,5.504l5.781,6.561
				c2.052,2.334,3.13,4.503,3.231,6.504c0.097,2.002-0.8,3.84-2.695,5.507l-0.063,0.057c-0.188,0.164-0.354,0.164-0.502-0.004
				l-1.731-1.968c-0.168-0.187-0.154-0.362,0.034-0.529l0.06-0.054c2.062-1.818,1.764-4.234-0.898-7.254l-5.942-6.752
				c-1.011-1.145-1.921-2.032-2.739-2.665c-0.813-0.632-1.53-1.065-2.142-1.302c-1.178-0.368-2.514-0.101-4.007,0.81
				c-0.425,0.227-1.061,0.693-1.901,1.396c-0.84,0.707-1.898,1.617-3.167,2.736c-1.376,1.212-2.437,2.287-3.184,3.22
				c-0.75,0.937-1.182,1.714-1.299,2.337c-0.194,1.463,0.84,3.475,3.097,6.039l6.411,7.278c1.305,1.48,2.444,2.417,3.421,2.815
				c1.148,0.506,2.367,0.188,3.659-0.947l0.094-0.084c0.187-0.164,0.365-0.154,0.529,0.034l1.734,1.968l0.027,0.03
				c0.021,0.02,0.017,0.04-0.004,0.06L626.878,220.97z"/>
			<path style="fill:#FFFFFF;" d="M621.762,224.314c-0.517,0-1.038-0.06-1.559-0.18c-1.948-0.526-3.915-1.955-6.051-4.379
				l-6.247-7.094c-1.25-1.423-2.248-2.742-2.964-3.923c-0.754-1.245-1.235-2.44-1.431-3.555c-0.141-1.112-0.062-2.173,0.226-3.203
				c0.288-1.028,0.832-2.066,1.613-3.08c0.907-1.152,2.861-3.043,5.978-5.788c3.768-3.321,6.94-4.864,9.618-4.674l0.013-0.027
				c2.666,0.191,5.564,2.103,8.854,5.838l5.782,6.562c2.196,2.501,3.368,4.894,3.478,7.117c0.112,2.317-0.907,4.439-3.033,6.307
				c-0.663,0.59-1.466,0.546-1.978-0.033l-1.731-1.972c-0.533-0.596-0.487-1.396,0.119-1.935c0.704-0.623,2.406-2.123-0.922-5.899
				l-5.943-6.752c-0.966-1.095-1.839-1.948-2.599-2.537c-0.726-0.562-1.362-0.954-1.891-1.159c-0.825-0.261-1.9-0.017-3.126,0.73
				c-0.301,0.164-0.808,0.495-1.779,1.309c-0.834,0.703-1.886,1.607-3.149,2.718c-1.322,1.165-2.353,2.206-3.063,3.097
				c-0.8,0.998-1.038,1.584-1.097,1.895c-0.097,0.74,0.313,2.293,2.864,5.195l6.41,7.275c1.195,1.356,2.221,2.213,3.049,2.551
				c0.512,0.224,1.312,0.375,2.619-0.773c0.469-0.412,0.856-0.438,1.09-0.445c0.251,0.017,0.619,0.113,0.948,0.489l1.733,1.965
				l-0.01,0.716l0.281-0.014l0.013,0.265l-0.002,0.134l-0.427,0.807C625.591,223.494,623.685,224.314,621.762,224.314z
				 M620.529,190.425c-2.076,0-4.726,1.406-7.881,4.185c-2.982,2.628-4.908,4.486-5.72,5.517c-0.619,0.803-1.047,1.61-1.265,2.39
				c-0.219,0.783-0.276,1.557-0.175,2.367c0.145,0.82,0.539,1.784,1.165,2.815c0.656,1.081,1.581,2.307,2.755,3.636l6.246,7.094
				c1.841,2.092,3.536,3.358,5.034,3.763c1.623,0.385,3.257-0.094,4.951-1.43l-0.884-1.001c-1.866,1.412-3.364,1.222-4.334,0.8
				c-1.104-0.452-2.347-1.459-3.768-3.07l-6.413-7.278c-2.481-2.822-3.573-5.058-3.337-6.832c0.157-0.848,0.649-1.754,1.509-2.833
				c0.782-0.978,1.893-2.102,3.305-3.344c1.276-1.124,2.338-2.042,3.184-2.751c0.899-0.754,1.577-1.245,2.074-1.513
				c1.692-1.031,3.321-1.342,4.777-0.881c0.775,0.298,1.581,0.784,2.459,1.467c0.869,0.673,1.81,1.587,2.874,2.792l5.944,6.752
				c3.55,4.03,2.728,6.688,1.2,8.292l0.882,1.001c1.409-1.386,2.036-2.795,1.962-4.339c-0.089-1.757-1.092-3.739-2.983-5.892
				l-5.782-6.558c-2.868-3.258-5.375-4.995-7.456-5.166l-0.011,0.027C620.739,190.429,620.635,190.425,620.529,190.425z
				 M633.828,210.903l0.003,0.003L633.828,210.903z"/>
		</g>
		<g>
			<path style="fill:#FFFFFF;" d="M634.353,244.916c-0.13-0.211-0.09-0.382,0.124-0.515l21.763-13.415
				c0.234-0.144,0.419-0.11,0.549,0.101l1.376,2.233c0.134,0.215,0.08,0.392-0.157,0.539l-19.175,11.821l9.638,15.63
				c0.131,0.211,0.09,0.385-0.124,0.516l-2.27,1.399c-0.211,0.131-0.382,0.09-0.516-0.124L634.353,244.916z"/>
			<path style="fill:#FFFFFF;" d="M645.848,264.302c-0.444,0-0.86-0.234-1.135-0.673l-11.21-18.188
				c-0.426-0.683-0.243-1.463,0.444-1.892l21.768-13.418c0.708-0.425,1.503-0.261,1.925,0.429l1.378,2.233
				c0.256,0.412,0.245,0.79,0.187,1.031c-0.058,0.251-0.221,0.606-0.669,0.884l-18.325,11.299l9.112,14.777
				c0.261,0.421,0.248,0.804,0.189,1.048c-0.058,0.241-0.218,0.589-0.644,0.847l-2.265,1.396
				C646.357,264.229,646.098,264.302,645.848,264.302z M635.535,244.926l10.551,17.117l1.204-0.743l-9.309-15.095l0.327-1.376
				l18.678-11.516l-0.718-1.168L635.535,244.926z M647.618,261.835h0.002H647.618z M647.821,260.975h-0.002H647.821z
				 M657.315,233.845l0.001,0.004L657.315,233.845z"/>
		</g>
		<g>
			<path style="fill:#FFFFFF;" d="M670.083,307.276c-1.884-0.083-3.461-0.917-4.724-2.504c-0.026,0.01-0.043,0.004-0.054-0.023
				c-0.522-0.629-1.087-1.517-1.693-2.661c-0.609-1.148-1.256-2.571-1.935-4.272l-1.456-3.632c-0.683-1.701-1.198-3.177-1.55-4.426
				c-0.351-1.251-0.559-2.296-0.626-3.137c-0.01-0.027-0.01-0.057,0.006-0.093c-0.087-1.042,0.014-1.978,0.308-2.812
				c0.295-0.837,0.75-1.604,1.37-2.297c0.626-0.673,1.513-1.332,2.658-1.985c1.142-0.653,2.528-1.305,4.151-1.955l12.872-5.155
				c0.254-0.104,0.425-0.054,0.509,0.154l0.974,2.437c0.094,0.231,0.01,0.398-0.244,0.502l-12.872,5.156
				c-2.628,1.051-4.412,2.048-5.349,2.992c-0.87,0.887-1.189,2.002-0.951,3.341c0.148,1.109,0.797,3.107,1.952,5.993l1.456,3.632
				c1.155,2.886,2.062,4.781,2.725,5.681c0.777,1.125,1.761,1.674,2.946,1.647c0.653,0.068,1.47-0.043,2.447-0.332
				c0.974-0.285,2.132-0.696,3.475-1.235l12.872-5.152c0.254-0.104,0.435-0.027,0.539,0.231l0.961,2.397
				c0.093,0.231,0.01,0.398-0.248,0.502l-12.872,5.156C674.459,306.734,671.908,307.353,670.083,307.276z"/>
			<path style="fill:#FFFFFF;" d="M670.397,308.284c-0.121,0-0.239-0.003-0.355-0.007h-0.004c-2.181-0.097-4.019-1.068-5.462-2.882
				l0.161-0.127l-0.037-0.017l-0.165,0.137c-0.567-0.683-1.175-1.637-1.807-2.832c-0.629-1.185-1.296-2.655-1.98-4.369l-1.456-3.632
				c-0.688-1.714-1.222-3.238-1.585-4.527c-0.365-1.305-0.587-2.423-0.659-3.328l0.074-0.097l-0.067,0.007
				c-0.099-1.185,0.023-2.27,0.362-3.231c0.338-0.958,0.865-1.845,1.566-2.628c0.71-0.763,1.657-1.476,2.909-2.189
				c1.177-0.673,2.614-1.349,4.275-2.015l12.872-5.155c0.49-0.201,0.873-0.124,1.106-0.02l0.703,0.73l0.974,2.44
				c0.301,0.743-0.025,1.487-0.795,1.801l-12.879,5.158c-2.489,0.995-4.176,1.925-5.011,2.769c-0.641,0.653-0.857,1.436-0.675,2.46
				c0.1,0.747,0.504,2.32,1.895,5.796l1.457,3.632c1.119,2.798,1.995,4.636,2.602,5.46c0.588,0.85,1.239,1.239,2.057,1.239
				c0.02,0,0.04,0,0.058,0c0.653,0.06,1.342-0.04,2.188-0.291c0.941-0.275,2.079-0.68,3.385-1.202l12.873-5.155
				c0.467-0.191,0.849-0.114,1.086-0.01c0.237,0.098,0.559,0.318,0.754,0.797l0.961,2.4c0.182,0.449,0.104,0.817,0.006,1.048
				c-0.1,0.234-0.321,0.559-0.81,0.754l-12.874,5.158C674.862,307.651,672.337,308.284,670.397,308.284z M670.125,306.276
				c1.697,0.06,4.102-0.526,7.232-1.781l12.329-4.938l-0.51-1.269l-12.328,4.935c-1.364,0.546-2.564,0.975-3.565,1.265
				c-1.113,0.325-2.039,0.452-2.83,0.365c-1.382,0.11-2.705-0.676-3.668-2.073c-0.699-0.951-1.63-2.879-2.83-5.879l-1.456-3.632
				c-1.195-2.986-1.854-5.025-2.015-6.233c-0.285-1.6,0.137-3.06,1.229-4.172c1.048-1.057,2.909-2.109,5.693-3.223l12.326-4.935
				l-0.494-1.235l-12.328,4.938c-1.573,0.629-2.93,1.265-4.026,1.895c-1.06,0.603-1.875,1.209-2.422,1.798
				c-0.514,0.573-0.907,1.232-1.159,1.945c-0.244,0.693-0.33,1.496-0.254,2.397l-0.011,0.071l0.005,0.027
				c0.062,0.776,0.261,1.767,0.593,2.946c0.343,1.222,0.854,2.675,1.515,4.325l1.457,3.632c0.658,1.647,1.294,3.05,1.89,4.175
				c0.569,1.075,1.101,1.915,1.58,2.491l0.067,0.04C667.225,305.509,668.527,306.205,670.125,306.276L670.125,306.276z
				 M689.921,300.142h0.001H689.921z M689.728,298.067h-0.003H689.728z M679.964,275.286c0,0.003,0.002,0.003,0.002,0.003
				L679.964,275.286z"/>
		</g>
		<g>
			<path style="fill:#FFFFFF;" d="M682.372,358.847c-1.111-0.191-2.065-0.659-2.865-1.409c-0.683-0.603-1.256-1.423-1.714-2.464
				c-0.459-1.042-0.834-2.297-1.122-3.77l-3.733-18.998c-0.047-0.244,0.05-0.392,0.295-0.439l25.088-4.927
				c0.271-0.054,0.432,0.04,0.479,0.288l3.501,17.813c1.179,5.992-0.442,9.42-4.854,10.288c-2.588,0.508-4.522,0.238-5.802-0.811
				c-0.603,2.267-2.427,3.7-5.477,4.299C684.749,358.999,683.488,359.038,682.372,358.847z M688.636,353.565
				c0.167-0.429,0.261-0.964,0.278-1.604c0.016-0.64-0.064-1.396-0.234-2.266l-3.314-16.872l-8.5,1.67l3.341,16.997
				c0.324,1.66,0.927,2.809,1.801,3.441c0.874,0.636,2.045,0.807,3.519,0.519C687.133,355.135,688.168,354.506,688.636,353.565z
				 M698.924,350.314c0.429-0.904,0.492-2.132,0.188-3.686l-3.123-15.895l-7.315,1.44l3.133,15.931
				c0.315,1.607,0.763,2.664,1.343,3.173c0.639,0.807,1.71,1.065,3.207,0.77C697.638,351.797,698.492,351.219,698.924,350.314z"/>
			<path style="fill:#FFFFFF;" d="M683.814,359.966c-0.562,0-1.1-0.043-1.61-0.13l0,0c-1.302-0.224-2.44-0.787-3.381-1.667
				c-0.77-0.679-1.431-1.623-1.945-2.789c-0.489-1.111-0.889-2.451-1.189-3.983l-3.732-18.995c-0.094-0.492,0.05-0.837,0.189-1.045
				c0.139-0.207,0.409-0.475,0.899-0.572l25.084-4.924c0.514-0.097,0.877,0.047,1.09,0.191c0.207,0.14,0.474,0.408,0.565,0.89
				l3.5,17.806c0.628,3.197,0.491,5.782-0.408,7.686c-0.949,2.012-2.71,3.281-5.236,3.776c-2.227,0.442-4.065,0.332-5.485-0.307
				c-0.971,1.955-2.914,3.23-5.793,3.796C685.468,359.875,684.616,359.966,683.814,359.966z M682.542,357.86
				c0.996,0.177,2.153,0.127,3.433-0.124c2.665-0.526,4.203-1.694,4.703-3.575l1.602-0.515c1.033,0.843,2.71,1.051,4.975,0.602
				c1.893-0.371,3.14-1.245,3.812-2.668c0.711-1.509,0.796-3.679,0.253-6.444l-3.381-17.2l-23.896,4.694l3.612,18.382
				c0.271,1.39,0.626,2.588,1.054,3.558c0.397,0.901,0.887,1.614,1.462,2.12C680.85,357.325,681.62,357.703,682.542,357.86
				L682.542,357.86z M673.429,332.749h-0.003H673.429z M697.818,327.322l0.002,0.004L697.818,327.322z M684.234,356.585
				c-1.1,0-2.042-0.282-2.815-0.844c-1.081-0.783-1.821-2.149-2.194-4.061l-3.341-16.993l0.79-1.175l8.5-1.67l1.175,0.787
				l3.314,16.872c0.188,0.964,0.271,1.777,0.253,2.487c-0.02,0.75-0.137,1.402-0.346,1.942l-0.037,0.08
				c-0.612,1.232-1.896,2.045-3.813,2.42C685.197,356.534,684.701,356.585,684.234,356.585z M678.041,335.283l3.148,16.012
				c0.273,1.396,0.745,2.347,1.406,2.825c0.643,0.472,1.54,0.583,2.738,0.348c1.25-0.245,2.052-0.687,2.387-1.312
				c0.116-0.315,0.181-0.726,0.192-1.222c0.015-0.552-0.057-1.242-0.216-2.045l-3.12-15.892L678.041,335.283z M695.263,353.163
				c-1.532,0-2.411-0.646-2.899-1.262c-0.635-0.536-1.179-1.758-1.54-3.606l-3.133-15.928l0.79-1.174l7.315-1.44l1.175,0.787
				l3.123,15.895c0.35,1.785,0.263,3.194-0.266,4.309v0.004c-0.575,1.201-1.678,1.972-3.279,2.283
				C696.076,353.123,695.648,353.163,695.263,353.163z M689.848,332.963l2.941,14.948c0.353,1.808,0.792,2.414,1.021,2.614
				c0.268,0.315,0.713,0.857,2.353,0.543c0.957-0.188,1.565-0.576,1.856-1.182l0,0c0.333-0.703,0.37-1.734,0.109-3.063
				l-2.929-14.914L689.848,332.963z"/>
		</g>
	</g>
	<g>
		<g>
			<path style="fill:#FFFFFF;" d="M482.837,696.348c-1.292,1.051-3.779,2.029-7.453,2.929l-4.756,1.165
				c-3.408,0.84-5.872,1.048-7.385,0.632c-2.233-0.475-3.763-2.273-4.586-5.399c-0.059-0.241,0.031-0.388,0.271-0.448l2.478-0.609
				c0.239-0.057,0.388,0.033,0.447,0.271c0.243,0.873,0.621,1.58,1.133,2.116c0.512,0.539,1.182,0.817,2.007,0.84
				c0.965,0.131,2.67-0.104,5.12-0.706l4.037-0.99c2.849-0.697,4.717-1.312,5.604-1.838c1.66-0.947,2.236-2.457,1.725-4.536
				c-0.686-2.795-3.066-3.695-7.142-2.688c-0.398,0.097-0.887,0.238-1.463,0.422c-0.576,0.184-1.245,0.398-2.003,0.636
				c-0.707,0.231-1.301,0.429-1.783,0.586c-0.482,0.164-0.87,0.274-1.165,0.348c-0.159,0.04-0.271-0.074-0.338-0.338l-0.616-2.517
				c-0.066-0.265-0.02-0.418,0.141-0.455c0.241-0.06,0.589-0.134,1.048-0.215c0.461-0.087,1.041-0.19,1.747-0.307
				c0.734-0.121,1.363-0.234,1.889-0.335c0.525-0.1,0.987-0.198,1.386-0.298c4.422-1.084,6.3-2.983,5.632-5.705
				c-0.207-0.851-0.639-1.486-1.292-1.905c-0.655-0.418-1.485-0.612-2.499-0.592c-0.483-0.021-1.192,0.06-2.119,0.24
				c-0.929,0.188-2.072,0.449-3.431,0.784l-3.636,0.893c-2.424,0.593-4.111,1.192-5.065,1.791c-1.401,0.968-1.904,2.374-1.505,4.225
				c0.058,0.241-0.033,0.385-0.272,0.445l-2.476,0.609c-0.239,0.06-0.39-0.033-0.447-0.271c-0.726-2.956-0.207-5.273,1.555-6.949
				c1.282-1.219,3.537-2.223,6.758-3.01l4.794-1.175c1.838-0.455,3.385-0.764,4.643-0.931c1.259-0.168,2.264-0.218,3.015-0.148
				c2.593,0.326,4.279,2.073,5.055,5.239c0.198,0.804,0.319,1.507,0.37,2.113c0.052,0.609-0.019,1.165-0.206,1.66
				c-0.236,0.763-0.745,1.456-1.525,2.069c1.054,0.278,1.945,0.793,2.666,1.547c0.278,0.328,0.522,0.776,0.731,1.346
				c0.211,0.573,0.422,1.279,0.631,2.133C485.378,692.378,484.806,694.818,482.837,696.348z"/>
			<path style="fill:#FFFFFF;" d="M465.073,702.267c-0.805,0-1.5-0.08-2.091-0.244c-2.561-0.543-4.355-2.598-5.276-6.096
				c-0.192-0.787,0.214-1.459,0.983-1.654l2.482-0.609c0.776-0.19,1.448,0.221,1.637,0.991c0.191,0.683,0.492,1.255,0.889,1.67
				c0.333,0.351,0.753,0.519,1.324,0.536c0.678,0.09,1.972,0.03,4.858-0.676l4.038-0.991c3.402-0.834,4.78-1.399,5.336-1.731
				c1.291-0.737,1.678-1.798,1.272-3.455c-0.216-0.884-0.621-1.493-1.236-1.865c-0.986-0.599-2.572-0.633-4.715-0.104
				c-0.383,0.094-0.851,0.228-1.399,0.406l-3.782,1.218c-0.502,0.174-0.917,0.291-1.23,0.368c-0.579,0.137-1.297-0.124-1.531-1.051
				l-0.618-2.524c-0.107-0.425-0.066-0.801,0.124-1.112l0.754-0.535c0.238-0.06,0.609-0.141,1.098-0.225
				c0.452-0.087,1.041-0.19,1.755-0.311c0.725-0.121,1.345-0.231,1.865-0.332c0.504-0.093,0.948-0.188,1.329-0.285
				c2.029-0.499,3.461-1.162,4.267-1.975c0.696-0.707,0.904-1.514,0.651-2.541c-0.147-0.603-0.43-1.031-0.867-1.312
				c-0.483-0.308-1.106-0.415-1.948-0.435c-0.338-0.03-0.896,0.013-1.952,0.221c-0.911,0.184-2.041,0.445-3.383,0.773l-3.637,0.894
				c-2.869,0.703-4.18,1.295-4.775,1.67c-1.03,0.71-1.379,1.731-1.066,3.184c0.181,0.743-0.226,1.412-0.996,1.607l-2.481,0.609
				c-0.472,0.118-0.825-0.01-1.034-0.137c-0.213-0.127-0.489-0.382-0.605-0.86c-0.811-3.301-0.194-5.959,1.835-7.89
				c1.423-1.353,3.778-2.417,7.203-3.251l4.792-1.175c1.845-0.459,3.443-0.776,4.749-0.951c1.351-0.181,2.402-0.234,3.235-0.154
				c3.056,0.385,5.038,2.397,5.919,5.985c0.207,0.843,0.339,1.607,0.395,2.266c0.063,0.751-0.027,1.453-0.266,2.089
				c-0.143,0.465-0.378,0.917-0.701,1.349c0.608,0.326,1.153,0.737,1.632,1.239c0.394,0.458,0.698,1.011,0.946,1.687
				c0.221,0.599,0.444,1.339,0.663,2.236c0.917,3.746,0.222,6.551-2.063,8.332c-1.422,1.152-3.985,2.173-7.832,3.114l-4.755,1.165
				C468.509,701.978,466.593,702.267,465.073,702.267z M459.781,696.03c0.741,2.374,1.947,3.716,3.666,4.085
				c0.983,0.261,2.931,0.358,6.945-0.626l4.757-1.165c3.517-0.863,5.894-1.784,7.067-2.738l0.017-0.013
				c1.647-1.279,2.096-3.348,1.368-6.318c-0.2-0.81-0.399-1.483-0.599-2.025c-0.168-0.459-0.355-0.814-0.559-1.051
				c-0.557-0.579-1.279-0.998-2.166-1.232l-0.357-1.723c0.616-0.486,1.016-1.018,1.192-1.587c0.156-0.415,0.206-0.83,0.165-1.285
				c-0.045-0.559-0.162-1.219-0.345-1.962c-0.674-2.755-2.057-4.225-4.221-4.496c-0.638-0.06-1.58-0.013-2.764,0.144
				c-1.233,0.164-2.76,0.472-4.536,0.91l-4.795,1.175c-3.04,0.743-5.163,1.674-6.314,2.768c-1.384,1.316-1.848,3.087-1.408,5.404
				l1.309-0.325c-0.253-1.978,0.435-3.575,2.007-4.66c1.097-0.69,2.847-1.316,5.39-1.935l3.636-0.894
				c1.374-0.341,2.531-0.603,3.472-0.793c1.016-0.198,1.786-0.254,2.353-0.262c1.168-0.03,2.176,0.228,2.989,0.747
				c0.87,0.559,1.448,1.403,1.717,2.501c0.414,1.684,0.011,3.204-1.163,4.393c-1.078,1.091-2.777,1.911-5.19,2.5
				c-0.409,0.104-0.889,0.204-1.437,0.311c-0.532,0.101-1.17,0.218-1.913,0.338c-0.696,0.114-1.268,0.218-1.723,0.305
				c-0.097,0.016-0.188,0.033-0.273,0.05l0.33,1.349c0.117-0.037,0.243-0.077,0.375-0.121l3.75-1.212
				c0.656-0.207,1.166-0.354,1.583-0.458c2.698-0.666,4.73-0.562,6.202,0.331c1.069,0.646,1.786,1.684,2.129,3.08
				c0.778,3.17-0.763,4.807-2.194,5.624c-0.976,0.579-2.896,1.215-5.857,1.939l-4.038,0.991c-2.589,0.635-4.387,0.884-5.486,0.726
				c-0.989-0.024-1.895-0.409-2.588-1.139c-0.506-0.526-0.904-1.188-1.19-1.972L459.781,696.03z M460.905,695.153
				c0.001,0.007,0.003,0.013,0.005,0.021C460.908,695.166,460.906,695.16,460.905,695.153z M467.686,688.122h-0.002H467.686z
				 M467.375,686.713c-0.009,0.004-0.017,0.004-0.025,0.007C467.358,686.72,467.366,686.717,467.375,686.713z M457.023,684.889
				l0.002,0.004L457.023,684.889z M458.304,684.551c0.001,0.01,0.003,0.017,0.005,0.023
				C458.307,684.568,458.305,684.561,458.304,684.551z M456.278,684.443h-0.002H456.278z"/>
		</g>
		<g>
			<path style="fill:#FFFFFF;" d="M430.6,707.151c-0.246,0.021-0.378-0.09-0.402-0.338l-2.005-21.626l-5.338,6.608
				c-0.104,0.07-0.213,0.104-0.319,0.114c-0.082,0.007-0.154-0.013-0.211-0.063l-1.888-1.644l0.004,0.043
				c-0.084-0.017-0.134-0.11-0.151-0.274c-0.01-0.11,0.023-0.211,0.097-0.298l0.003,0.036l6.346-8.188
				c0.099-0.121,0.19-0.181,0.272-0.188l3.768-0.351c0.246-0.023,0.381,0.104,0.406,0.375l2.333,25.151
				c0.024,0.245-0.09,0.379-0.335,0.398L430.6,707.151z"/>
			<path style="fill:#FFFFFF;" d="M430.546,708.139c-0.72,0-1.257-0.492-1.327-1.232l-1.783-19.219l-4.029,4.921
				c-0.234,0.16-0.497,0.254-0.781,0.282l-0.954-0.309l-1.667-1.449c-0.33-0.151-0.637-0.485-0.696-1.062
				c-0.036-0.381,0.081-0.746,0.324-1.034l0.025,0.01l6.296-8.128c0.357-0.435,0.723-0.546,0.971-0.566l3.756-0.351
				c0.472-0.03,0.805,0.134,0.994,0.291c0.194,0.16,0.437,0.459,0.484,0.974l2.333,25.152c0.047,0.485-0.132,0.813-0.291,1.004
				c-0.159,0.191-0.45,0.426-0.942,0.465l-2.581,0.245C430.635,708.135,430.59,708.139,430.546,708.139z M432.537,706.598v0.004
				V706.598z M427.428,684.568l1.744,0.529l1.95,21.017l1.357-0.127l-2.224-23.966l-2.869,0.268l-5.859,7.559l0.961,0.837
				L427.428,684.568z M433.089,705.926l-0.005,0.004L433.089,705.926z M420.55,689.69l-0.011,0.057l0.143-0.074L420.55,689.69z
				 M420.619,689.348l0.412,0.131c-0.101-0.09-0.233-0.165-0.399-0.198L420.619,689.348z M427.117,682.311l-0.017,0.003
				C427.105,682.311,427.111,682.311,427.117,682.311z"/>
		</g>
		<g>
			<path style="fill:#FFFFFF;" d="M396.757,701.591c-0.253,1.279-0.598,2.316-1.03,3.113c-0.459,0.797-1.034,1.473-1.726,2.022
				c-0.693,0.549-1.541,0.931-2.543,1.148c-0.001,0.024-0.016,0.037-0.043,0.037c-0.807,0.201-1.846,0.328-3.113,0.392
				c-1.268,0.06-2.804,0.04-4.612-0.067l-2.874-0.174c-4.134-0.244-6.986-0.797-8.555-1.664c-1.816-0.901-2.959-2.44-3.435-4.613
				c-0.172-0.81-0.263-1.925-0.273-3.355c-0.013-1.429,0.044-3.197,0.171-5.302c0.104-1.724,0.274-3.227,0.515-4.506
				c0.239-1.276,0.576-2.313,1.009-3.113c0.487-0.817,1.092-1.507,1.811-2.053c0.718-0.549,1.582-0.944,2.584-1.185l-0.04-0.004
				c1.592-0.428,4.179-0.535,7.765-0.321l2.875,0.171c3.967,0.237,6.833,0.804,8.594,1.707c1.761,0.901,2.875,2.45,3.35,4.65
				c0.144,0.776,0.23,1.884,0.254,3.307c0.024,1.433-0.025,3.204-0.15,5.313C397.19,698.819,397.012,700.315,396.757,701.591z
				 M394.101,694.637c0.169-2.849,0.042-4.861-0.383-6.043c-0.342-1.201-1.187-1.965-2.541-2.293
				c-1.051-0.335-3.112-0.596-6.177-0.779l-2.832-0.168c-3.039-0.181-5.129-0.168-6.267,0.04c-1.33,0.194-2.263,0.857-2.797,1.975
				c-0.561,1.118-0.926,3.103-1.097,5.952l-0.133,2.256c-0.084,1.399-0.092,2.608-0.031,3.625c0.064,1.021,0.215,1.825,0.454,2.417
				c0.373,1.122,1.22,1.872,2.546,2.253c1.078,0.338,3.137,0.599,6.175,0.78l2.834,0.171c3.065,0.177,5.14,0.164,6.225-0.04
				c1.358-0.224,2.29-0.87,2.794-1.942c0.561-1.118,0.927-3.1,1.095-5.949L394.101,694.637z"/>
			<path style="fill:#FFFFFF;" d="M386.79,709.32c-0.956,0-2.012-0.033-3.159-0.104l-2.875-0.174
				c-4.325-0.254-7.261-0.837-8.97-1.784c-2.047-1.014-3.38-2.792-3.92-5.263c-0.189-0.887-0.285-2.048-0.296-3.558
				c-0.013-1.443,0.045-3.25,0.172-5.369c0.107-1.768,0.286-3.325,0.53-4.627c0.258-1.369,0.631-2.514,1.112-3.401
				c0.576-0.968,1.268-1.751,2.082-2.367c0.805-0.616,1.776-1.068,2.884-1.342l-0.002-0.013c1.713-0.459,4.357-0.573,8.08-0.352
				l2.875,0.171c4.152,0.247,7.09,0.84,8.984,1.814c2.026,1.034,3.326,2.822,3.863,5.316c0.161,0.857,0.251,2.025,0.279,3.498
				c0.023,1.473-0.029,3.288-0.153,5.387c-0.109,1.795-0.29,3.311-0.554,4.63c-0.271,1.366-0.651,2.508-1.13,3.391
				c-0.534,0.927-1.195,1.701-1.978,2.323c-0.809,0.639-1.798,1.091-2.947,1.339l-0.031-0.144l-0.221,0.204
				c-0.621,0.184-1.702,0.321-3.065,0.392C387.867,709.307,387.345,709.32,386.79,709.32z M374.874,683.215v0.013
				c-0.867,0.208-1.612,0.549-2.216,1.008c-0.612,0.465-1.139,1.061-1.564,1.778c-0.363,0.669-0.668,1.62-0.887,2.789
				c-0.231,1.225-0.4,2.698-0.501,4.386c-0.125,2.072-0.182,3.833-0.169,5.232c0.008,1.359,0.094,2.42,0.251,3.16
				c0.412,1.881,1.364,3.17,2.909,3.937c1.467,0.807,4.203,1.326,8.177,1.563l2.876,0.174c1.742,0.1,3.259,0.13,4.504,0.064
				c1.213-0.061,2.198-0.181,2.922-0.362l0.008,0.03l0.063-0.074c0.852-0.184,1.572-0.509,2.141-0.957
				c0.588-0.468,1.088-1.054,1.485-1.744c0.372-0.687,0.685-1.64,0.916-2.812l0.002-0.004c0.243-1.215,0.418-2.681,0.519-4.361
				c0.122-2.053,0.172-3.813,0.149-5.236c-0.023-1.362-0.104-2.424-0.237-3.144c-0.409-1.888-1.336-3.19-2.833-3.953
				c-1.623-0.834-4.384-1.373-8.203-1.604l-2.875-0.171C378.858,682.719,376.357,682.816,374.874,683.215z M387.49,705.932
				c-1.016,0-2.245-0.043-3.694-0.127l-2.836-0.171c-3.143-0.188-5.241-0.456-6.411-0.823c-1.625-0.465-2.705-1.44-3.185-2.879
				c-0.259-0.64-0.43-1.53-0.502-2.668c-0.063-1.068-0.054-2.327,0.03-3.746l0.135-2.253c0.18-3.016,0.574-5.088,1.2-6.337
				c0.664-1.393,1.89-2.267,3.534-2.507c1.195-0.218,3.321-0.238,6.468-0.047l2.832,0.167c3.173,0.191,5.272,0.459,6.416,0.824
				c1.625,0.391,2.752,1.423,3.189,2.962c0.455,1.252,0.597,3.358,0.42,6.367v0.004l-0.136,2.256
				c-0.177,3.003-0.569,5.075-1.198,6.33c-0.626,1.333-1.845,2.196-3.512,2.471C389.611,705.872,388.701,705.932,387.49,705.932z
				 M378.53,686.211c-1.08,0-1.898,0.051-2.453,0.151c-1.039,0.154-1.69,0.605-2.085,1.432c-0.35,0.696-0.801,2.216-1.001,5.588
				l-0.134,2.253c-0.08,1.343-0.09,2.521-0.03,3.508c0.055,0.907,0.186,1.617,0.383,2.109c0.291,0.87,0.89,1.383,1.907,1.678
				c0.71,0.221,2.298,0.526,5.96,0.743l2.834,0.171c3.696,0.207,5.293,0.101,5.984-0.027c1.065-0.174,1.72-0.616,2.086-1.393
				c0.354-0.706,0.805-2.229,1.003-5.587l0.136-2.26c0.201-3.364-0.067-4.927-0.327-5.651c-0.263-0.914-0.843-1.426-1.846-1.667
				c-0.736-0.234-2.308-0.532-6.004-0.757l-2.832-0.168C380.706,686.251,379.511,686.211,378.53,686.211z"/>
		</g>
		<g>
			<path style="fill:#FFFFFF;" d="M342.799,690.128c-0.817,0.971-1.86,1.62-3.129,1.962l0.039,0.007
				c-0.944,0.275-2.049,0.375-3.311,0.288c-1.265-0.084-2.737-0.338-4.413-0.75l-1.919-0.469l-0.477-0.117
				c-0.109-0.03-0.192-0.06-0.256-0.087c-0.062-0.03-0.147-0.057-0.254-0.084c-0.105-0.027-0.197-0.054-0.274-0.087
				c-0.077-0.037-0.14-0.057-0.194-0.07l-0.559-0.137c-0.368-0.121-0.696-0.218-0.988-0.288c-0.294-0.073-0.547-0.133-0.76-0.184
				c-2.504-0.619-4.364-0.81-5.581-0.573l0.01-0.037c-0.73,0.211-1.342,0.573-1.831,1.072c-0.49,0.502-0.85,1.218-1.081,2.145
				l-0.324,1.319l23.286,5.738c0.241,0.06,0.331,0.211,0.271,0.448l-0.629,2.554c-0.06,0.241-0.208,0.332-0.447,0.271l-26.241-6.461
				c-0.189-0.047-0.251-0.188-0.192-0.429l1.033-4.195c0.755-3.059,2.414-4.927,4.978-5.594c1.855-0.418,4.419-0.224,7.695,0.579
				c0.319,0.084,0.679,0.171,1.079,0.268c0.4,0.097,0.874,0.231,1.426,0.395c0.579,0.171,1.071,0.305,1.47,0.402
				c0.425,0.107,0.784,0.19,1.078,0.268c2.531,0.623,4.48,0.793,5.849,0.506c1.707-0.285,2.79-1.342,3.244-3.18
				c0.291-1.198,0.329-2.256,0.102-3.174c-0.225-0.914-0.723-1.654-1.49-2.209c-0.939-0.656-2.942-1.362-6.004-2.115l-2.916-0.72
				c-1.411-0.345-2.579-0.589-3.503-0.729c-0.926-0.144-1.672-0.218-2.236-0.218c-1.036-0.027-1.866,0.207-2.482,0.703
				c-0.615,0.502-1.046,1.185-1.289,2.056c-0.06,0.241-0.222,0.328-0.489,0.261l-2.715-0.67c-0.215-0.054-0.291-0.197-0.231-0.435
				c0.76-3.093,2.653-4.814,5.677-5.172c1.736-0.274,4.425,0.034,8.075,0.931l2.916,0.72c1.998,0.492,3.675,1.008,5.04,1.56
				c1.361,0.549,2.385,1.145,3.075,1.795c0.993,0.893,1.634,2.012,1.925,3.354s0.204,2.959-0.261,4.848
				C344.213,687.911,343.617,689.154,342.799,690.128z"/>
			<path style="fill:#FFFFFF;" d="M340.11,704.051c-0.114,0-0.239-0.013-0.373-0.046l-26.237-6.461
				c-0.593-0.148-1.132-0.713-0.913-1.614l1.033-4.198c0.845-3.428,2.759-5.551,5.686-6.31c2.056-0.462,4.715-0.271,8.177,0.576
				l1.025,0.254c0.467,0.111,0.955,0.251,1.526,0.418c0.561,0.168,1.036,0.295,1.423,0.388l1.095,0.275
				c2.364,0.579,4.185,0.74,5.396,0.492c1.354-0.224,2.134-1.001,2.49-2.45c0.253-1.041,0.288-1.951,0.102-2.705
				c-0.171-0.69-0.534-1.229-1.112-1.647c-0.561-0.392-2.012-1.058-5.661-1.959l-2.917-0.72c-1.374-0.335-2.514-0.573-3.414-0.71
				c-0.965-0.151-1.699-0.214-2.226-0.211c-0.752,0-1.326,0.164-1.729,0.489c-0.455,0.371-0.77,0.88-0.957,1.553
				c-0.111,0.442-0.387,0.693-0.597,0.82c-0.216,0.124-0.578,0.261-1.078,0.131l-2.712-0.67c-0.457-0.114-0.697-0.382-0.82-0.586
				c-0.127-0.211-0.251-0.562-0.129-1.045c0.851-3.458,3.103-5.503,6.516-5.908c1.845-0.288,4.622,0.02,8.424,0.954l2.918,0.72
				c2.084,0.512,3.777,1.037,5.174,1.603c1.49,0.599,2.596,1.253,3.379,1.989c1.128,1.015,1.877,2.32,2.211,3.863
				c0.323,1.483,0.233,3.264-0.266,5.289c-0.408,1.657-1.079,3.05-1.991,4.135l0,0c-0.93,1.104-2.129,1.865-3.571,2.262l0.002,0.017
				c-1.063,0.308-2.296,0.425-3.652,0.325c-1.309-0.087-2.807-0.338-4.58-0.776l-2.397-0.586c-0.187-0.051-0.31-0.094-0.403-0.134
				c-0.279-0.08-0.421-0.124-0.54-0.174l-0.596-0.157c-0.412-0.13-0.715-0.221-0.984-0.285l-0.755-0.184
				c-2.36-0.586-4.097-0.763-5.166-0.565l-0.022-0.021c-0.507,0.165-0.941,0.426-1.286,0.781c-0.363,0.368-0.643,0.94-0.83,1.693
				l-0.089,0.362l22.332,5.504c0.48,0.121,0.732,0.395,0.857,0.609c0.127,0.21,0.253,0.562,0.133,1.034l-0.628,2.548
				c-0.121,0.482-0.397,0.733-0.608,0.86C340.621,703.964,340.398,704.051,340.11,704.051z M340.209,702.092l0.004,0.004
				C340.212,702.096,340.209,702.096,340.209,702.092z M314.644,695.799l24.97,6.15l0.337-1.362l-22.693-5.594l-0.719-1.188
				l0.324-1.32c0.275-1.101,0.723-1.975,1.334-2.598c0.612-0.626,1.373-1.075,2.261-1.329l0.089,0.087l-0.015-0.07
				c1.374-0.274,3.337-0.077,6.006,0.582l0.763,0.184c0.305,0.074,0.658,0.177,1.054,0.308l0.872,0.254
				c0.275,0.067,0.412,0.114,0.534,0.174l2.455,0.602c1.639,0.401,3.067,0.643,4.245,0.723c1.113,0.067,2.116-0.004,2.953-0.248
				l-0.002-0.017c1.084-0.291,1.945-0.83,2.631-1.644l0,0c0.719-0.854,1.252-1.978,1.587-3.337c0.427-1.734,0.514-3.217,0.256-4.405
				c-0.25-1.145-0.779-2.073-1.622-2.833c-0.609-0.572-1.542-1.111-2.785-1.61c-1.311-0.532-2.915-1.028-4.908-1.52l-2.916-0.72
				c-3.493-0.854-6.082-1.165-7.685-0.914c-2.47,0.295-3.972,1.52-4.71,3.843l1.552,0.382c0.319-0.817,0.797-1.483,1.429-1.998
				c0.804-0.649,1.865-0.961,3.129-0.924h0.003c0.59,0,1.37,0.077,2.359,0.231c0.944,0.141,2.141,0.392,3.587,0.747l2.918,0.72
				c3.211,0.79,5.281,1.529,6.332,2.263c0.969,0.703,1.597,1.633,1.881,2.778c0.261,1.065,0.228,2.29-0.102,3.642
				c-0.547,2.216-1.944,3.572-4.038,3.92c-1.483,0.311-3.54,0.148-6.245-0.523l-1.085-0.268c-0.401-0.097-0.91-0.237-1.506-0.412
				c-0.536-0.16-0.994-0.288-1.38-0.382l-1.097-0.274c-3.097-0.76-5.534-0.954-7.229-0.569c-2.174,0.565-3.571,2.159-4.238,4.867
				L314.644,695.799z M340.097,699.99v0.003V699.99z M320.627,678.943c-0.002,0.007-0.003,0.013-0.005,0.021
				C320.624,678.957,320.625,678.95,320.627,678.943z M319.097,678.589c0,0.003,0,0.003,0,0.003S319.097,678.592,319.097,678.589z
				 M321.321,678.508h0.002H321.321z"/>
		</g>
	</g>
	<g>
		<g>
			<polygon style="fill:#FFFFFF;" points="394.818,360.278 347.413,386.12 347.413,414.219 371.562,401.04 371.562,462.519 
				326.083,437.699 326.083,362.033 394.818,324.389 394.818,296.783 302.827,346.614 302.827,453.166 394.818,503.372 			"/>
			<polygon style="fill:#FFFFFF;" points="407.358,324.685 473.917,361.011 473.917,396.227 407.36,359.885 407.36,502.005 
				430.289,489.491 430.289,400.578 497.172,437.08 497.172,345.378 407.358,296.628 			"/>
		</g>
	</g>
	<path style="fill:#FFFFFF;" d="M266.136,673.397C107.982,598.254,100.995,413.04,100.943,411.175l7.77-0.218
		c0.052,1.815,6.972,182.351,160.761,255.415L266.136,673.397z"/>
	<path style="fill:#FFFFFF;" d="M529.121,673.397l-3.338-7.024c153.789-73.063,160.709-253.6,160.761-255.415l7.77,0.218
		C694.262,413.04,687.275,598.254,529.121,673.397z"/>
</g>
</svg>
