<?xml version="1.0" encoding="UTF-8"?>
<svg data-name="图层_1" xmlns="http://www.w3.org/2000/svg" version="1.1" viewBox="0 0 800 800">
  <!-- Created by @FCLOGO 2024-12-20 GMT+8 13:21:27 . https://fclogo.top/ -->
<!-- FOR PERSONAL USE ONLY NOT FOR COMMERCIAL USE -->
  <path d="M348.2194,774.301c-.786,0-1.3752-.2173-1.7682-.6519-.393-.4352-.5284-1.03-.406-1.7856l.2518-1.6478c.122-.755.4501-1.3504.9841-1.785.5339-.4352,1.1939-.6525,1.9799-.6525.7553,0,1.3293.1987,1.7223.5954.3927.3967.551.9381.4747,1.6248h-1.2358c.0304-.3589-.0553-.637-.2573-.8357-.2024-.1981-.4979-.2974-.8869-.2974-.4197,0-.763.1167-1.03.3489-.2673.2328-.4349.5631-.5035.9903l-.2632,1.659c-.0686.4352-.0056.7686.1887,1.0015.1946.2328.5017.3489.9214.3489.389,0,.7152-.0987.9785-.2974.2632-.1981.4365-.4805.5206-.8469h1.2358c-.1372.6867-.4672,1.2306-.9897,1.631-.5228.4005-1.1616.6004-1.9169.6004ZM352.7967,774.1868l.9956-6.2943h1.1902l-.1946,1.1902c.3359-.8698.9729-1.3044,1.9113-1.3044.6712,0,1.1691.208,1.4932.624.3244.416.4293.9859.3148,1.7105l-.0686.4234h-1.2703l.0571-.3204c.0689-.4501.0115-.7953-.1714-1.0356-.1832-.2403-.4771-.3607-.8813-.3607-.4045,0-.7401.1223-1.007.3663-.2673.2446-.4349.588-.5035,1.03l-.6296,3.9711h-1.2358ZM361.9058,774.301c-.7705,0-1.3463-.2229-1.7279-.6693s-.515-1.0356-.4005-1.7682l.2518-1.6478c.0838-.488.2573-.9152.5206-1.2815s.6007-.6507,1.0129-.8524c.4119-.2024.8732-.3036,1.3845-.3036.7705,0,1.3485.2235,1.7338.6693.3852.4464.5169,1.0356.3949,1.7682l-.1717,1.1213h-3.845l-.0916.5265c-.1527.9536.2173,1.4305,1.1098,1.4305.7171,0,1.175-.2477,1.3734-.7438h1.2247c-.1679.5339-.5035.9599-1.007,1.2759-.5038.3166-1.0912.475-1.7626.475ZM361.2306,770.2157l-.0456.2862,2.6548-.0118.0459-.2856c.0686-.4656.0133-.822-.1661-1.0704-.1791-.2477-.4861-.3719-.9211-.3719-.4427,0-.7953.126-1.0586.3775-.2632.2521-.4331.6109-.5094,1.076ZM368.3258,774.301c-.6333,0-1.1027-.2117-1.4078-.6351s-.3967-1.0008-.2744-1.7335l.2744-1.7738c.1145-.7326.393-1.3119.8357-1.7397.4424-.4272.98-.6407,1.6133-.6407.4653,0,.8298.1186,1.093.3545.2632.2365.3908.5575.3834.9617h.023l.1717-1.202h1.2358l-.9956,6.2943h-1.2247l.1946-1.2014h-.023c-.122.4116-.3511.7339-.6867.9667s-.7401.3489-1.2129.3489ZM368.9324,773.2257c.389,0,.7152-.1186.9782-.3551.2632-.2359.4293-.5718.4979-1.007l.2518-1.6478c.0686-.4272.0096-.7612-.1773-1.0015-.1872-.2403-.475-.3601-.8642-.3601-.3967,0-.7249.118-.9841.3545-.2595.2365-.4234.5724-.492,1.007l-.2518,1.6478c-.0686.4427-.0133.7804.1658,1.0133.1794.2328.4712.3489.8757.3489ZM376.3477,774.1868c-.5721,0-.9937-.1565-1.2644-.4694-.271-.3123-.3607-.7512-.2691-1.3156l.538-3.3874h-1.7394l.1714-1.1219h1.7397l.2747-1.7161h1.2358l-.2747,1.7161h2.472l-.1832,1.1219h-2.4605l-.5377,3.3874c-.0764.4421.099.6637.5262.6637h1.7167l-.1717,1.1213h-1.7738ZM382.5042,774.301c-.7705,0-1.3463-.2229-1.7279-.6693s-.515-1.0356-.4005-1.7682l.2518-1.6478c.0838-.488.2573-.9152.5206-1.2815s.6007-.6507,1.0129-.8524c.4119-.2024.8732-.3036,1.3845-.3036.7705,0,1.3485.2235,1.7338.6693.3852.4464.5169,1.0356.3949,1.7682l-.1717,1.1213h-3.845l-.0916.5265c-.1527.9536.2173,1.4305,1.1098,1.4305.7171,0,1.175-.2477,1.3734-.7438h1.2247c-.1679.5339-.5035.9599-1.007,1.2759-.5038.3166-1.0912.475-1.7626.475ZM381.829,770.2157l-.0456.2862,2.6548-.0118.0459-.2856c.0686-.4656.0133-.822-.1661-1.0704-.1791-.2477-.4861-.3719-.9211-.3719-.4427,0-.7953.126-1.0586.3775-.2632.2521-.4331.6109-.5094,1.076ZM388.9243,774.301c-.6333,0-1.1008-.2117-1.4019-.6351-.3014-.4234-.3949-1.0008-.2803-1.7335l.2744-1.7738c.1145-.7326.393-1.3119.8357-1.7397.4424-.4272.98-.6407,1.6133-.6407.4653,0,.8298.1186,1.093.3545.2632.2365.3908.5575.3834.9617h.023l.2058-1.4652.2977-1.7962h1.2358l-1.3274,8.3537h-1.2247l.1946-1.2014h-.023c-.122.4116-.3511.7339-.6867.9667s-.7401.3489-1.2129.3489ZM389.5309,773.2257c.389,0,.7152-.1186.9782-.3551.2632-.2359.4293-.5718.4979-1.007l.2518-1.6478c.0761-.4272.0189-.7612-.1717-1.0015-.1909-.2403-.4805-.3601-.8698-.3601-.3967,0-.7249.118-.9841.3545-.2595.2365-.4234.5724-.492,1.007l-.2518,1.6478c-.0764.4427-.023.7804.1602,1.0133s.4768.3489.8813.3489ZM401.0175,774.301c-.4731,0-.8394-.1161-1.0986-.3489-.2595-.2328-.3852-.5551-.3775-.9667h-.0115l-.1946,1.2014h-1.2243l1.3274-8.3537h1.2358l-.2862,1.7962-.2744,1.4652h.0456c.122-.4123.353-.7345.6923-.9673.3396-.2322.7419-.3489,1.2076-.3489.633,0,1.1002.2136,1.4016.6407.3014.4278.3949,1.007.2806,1.7397l-.2747,1.7738c-.1145.7326-.3949,1.31-.8413,1.7335-.4461.4234-.9822.6351-1.6077.6351ZM400.7657,773.2257c.3967,0,.7227-.1161.9785-.3489.2555-.2328.4216-.5706.4976-1.0133l.2518-1.6478c.0689-.4346.0115-.7705-.1714-1.007-.1832-.2365-.4734-.3545-.8698-.3545-.3893,0-.7152.1198-.9785.3601s-.429.5743-.4979,1.0015l-.2518,1.6478c-.0686.4352-.0112.7711.1717,1.007.1832.2365.4731.3551.8698.3551ZM405.4694,776.2468l.1717-1.0642h1.934c.6407,0,1.007-.3017,1.0986-.9046l.1028-.6749.2061-1.1902h-.0345c-.122.4197-.3471.7438-.6752.9729-.3281.2285-.7286.3433-1.2014.3433-.6258,0-1.093-.2005-1.4019-.601s-.4104-.9443-.3033-1.631l.5836-3.6047h1.2358l-.5606,3.4793c-.0612.4116,0,.732.1832.9611s.4653.3433.8469.3433c.389,0,.7168-.1217.9841-.3663.267-.244.4309-.5836.492-1.0182l.538-3.3992h1.2358l-1.007,6.4086c-.0993.6029-.37,1.0778-.8124,1.4249-.4427.3471-.9996.5209-1.6707.5209h-1.9455ZM417.787,770.0853h3.221l.5368-1.8545h-5.4659l-1.7081,6.4419h2.1473l.5856-2.0985h3.0257l.4392-1.7081h-3.0257l.244-.7808ZM424.229,772.9158c-.5856,0-1.0249-.3904-1.0249-1.1225,0-.8784.6344-1.7569,1.6105-1.7569.488,0,.8784.244,1.0248.7808l1.9521-.8296c-.2928-1.1713-1.2689-1.9033-2.6353-1.9033-2.7817,0-4.1482,2.1473-4.1482,3.9042s1.2689,2.8305,3.0746,2.8305c1.3665,0,2.3425-.5856,2.9769-1.4153l-1.5129-1.1713c-.3904.4392-.8296.6832-1.3177.6832ZM430.9149,768.2308h-2.1473l-1.7569,6.4419h5.1242l.488-1.8545h-2.9281l1.2201-4.5874ZM439.7481,771.0125c0-1.6593-1.3177-2.9281-3.221-2.9281-2.1961,0-3.8066,1.8057-3.8066,3.8066,0,1.6593,1.3177,2.9281,3.221,2.9281,2.1961,0,3.8066-1.8057,3.8066-3.8066ZM434.9167,771.6957c0-.8296.5856-1.7081,1.5129-1.7081.7808,0,1.1713.5368,1.1713,1.2201,0,.8296-.5856,1.7081-1.5129,1.7081-.7808,0-1.1713-.5368-1.1713-1.2201ZM443.2131,772.2326h1.0737l-.1952.6832c-.1464.0488-.3416.0976-.5856.0976-.6832,0-1.2689-.3904-1.2689-1.2201,0-1.0249.732-1.9033,1.9521-1.9033.5856,0,1.1225.244,1.5129.5856l1.3665-1.3665c-.4392-.5368-1.5129-1.0737-2.7329-1.0737-2.5865,0-4.2946,1.7569-4.2946,3.8554,0,2.0497,1.6105,2.8793,3.221,2.8793.9272,0,1.8545-.2928,2.4889-.6832l.9272-3.3186h-3.1234l-.3416,1.4641ZM450.7775,768.0844c-2.1961,0-3.8066,1.8057-3.8066,3.8066,0,1.6593,1.3177,2.9281,3.221,2.9281,2.1961,0,3.8066-1.8057,3.8066-3.8066,0-1.6593-1.3177-2.9281-3.221-2.9281ZM450.3382,772.9158c-.7808,0-1.1713-.5368-1.1713-1.2201,0-.8296.5856-1.7081,1.5129-1.7081.7808,0,1.1713.5368,1.1713,1.2201,0,.8296-.5856,1.7081-1.5129,1.7081ZM437.9424,767.4987c-.0488.2928.0976.488.4392.488s.5368-.1952.6344-.488c.0488-.244-.0976-.488-.4392-.488s-.5856.244-.6344.488ZM432.1349,765.4978c-.4392,0-.732.244-.7808.5856s.0976.5856.5368.5856.732-.244.7808-.5856c.0976-.3416-.0976-.5856-.5368-.5856ZM433.0134,767.3035c-.0976.5368.1464.8784.8296.8784.6344,0,1.0737-.3904,1.1713-.8784s-.1464-.8784-.8296-.8784c-.6832,0-1.0737.3904-1.1713.8784ZM439.6017,777.552l-2.4401-1.8057h-1.5129l4.2458,3.1722,1.6105-3.1722h-.976l-.9272,1.8057ZM425.8394,767.1571l-2.0009-1.4641,23.1323-2.7817-2.1473,4.2458h1.0248l2.6841-5.3195-26.9877,3.221,2.7817,2.0985h1.5129ZM338.7186,785.7853l.6088-3.8315h2.32l-.084.5194h-1.7636l-.1837,1.1445h1.6272l-.084.5248h-1.6166l-.2573,1.6428h-.5668ZM342.97,785.8377c-.3568,0-.6228-.1005-.7978-.3019-.175-.201-.2345-.473-.1784-.8161l.2677-1.7006c.056-.3429.2029-.6148.4408-.8161.2379-.201.5355-.3019.8923-.3019s.6228.1.7979.2993c.1748.1993.2361.4707.1837.8136l-.2677,1.7057c-.0561.3431-.2039.6151-.4435.8161-.2398.2013-.5381.3019-.895.3019ZM343.0487,785.3339c.1925,0,.3483-.0524.4672-.1575.119-.1051.1942-.2571.2257-.4568l.2678-1.7006c.0315-.1993.0051-.3517-.0787-.4565-.084-.1051-.2223-.1575-.4148-.1575s-.3473.0524-.4645.1575c-.1173.1048-.1916.2571-.2231.4565l-.2677,1.7006c-.0315.1996-.0053.3517.0787.4568s.2204.1575.4094.1575ZM344.9961,785.7853l.6088-3.8315h1.202c.2379,0,.4391.0464.6036.139.1645.0928.2835.223.357.391s.091.3656.0524.5932c-.0384.2591-.14.4838-.3044.6746-.1645.1905-.3656.3209-.6036.391l.5354,1.6428h-.6194l-.4777-1.5748h-.5406l-.2466,1.5748h-.5668ZM345.8883,783.7068h.6352c.1889,0,.349-.0558.4803-.168.1313-.1119.2107-.2623.2388-.4514.0316-.1925,0-.3454-.0944-.4593-.0945-.1136-.2362-.1706-.4252-.1706h-.6352l-.1995,1.2493ZM349.545,785.7853l.6088-3.8315h1.2544c.3709,0,.6508.1048.8399.315.1889.2099.2553.4898.1993.8398-.0384.2344-.1216.4383-.2493.6114s-.2905.307-.4881.4015c-.1978.0945-.419.1418-.6639.1418h-.6928l-.2415,1.5221h-.5668ZM350.432,783.754h.6928c.1924,0,.3568-.0587.4934-.176.1364-.117.2204-.2737.2519-.4696s-.0017-.3525-.0997-.4699-.245-.1757-.441-.1757h-.6876l-.2099,1.2911ZM352.7466,785.7853l.6088-3.8315h2.2518l-.0787.5038h-1.6954l-.1731,1.0867h1.5115l-.0787.4986h-1.5115l-.1942,1.2387h1.6901l-.0787.5038h-2.2518ZM355.8434,785.7853l.6088-3.8315h1.202c.2379,0,.4391.0464.6036.139.1645.0928.2835.223.357.391s.091.3656.0524.5932c-.0384.2591-.14.4838-.3044.6746-.1645.1905-.3656.3209-.6036.391l.5354,1.6428h-.6194l-.4777-1.5748h-.5406l-.2466,1.5748h-.5668ZM356.7356,783.7068h.6352c.1889,0,.349-.0558.4803-.168.1313-.1119.2107-.2623.2388-.4514.0316-.1925,0-.3454-.0944-.4593-.0945-.1136-.2362-.1706-.4252-.1706h-.6352l-.1995,1.2493ZM360.1316,785.8377c-.385,0-.6736-.0951-.8661-.2859-.1924-.1908-.2641-.4505-.2151-.7794h.5668c-.028.1748.0105.3121.1155.4121.1051.0997.266.1495.483.1495.2029,0,.3701-.049.5012-.1469.1313-.098.2109-.2327.2389-.4044.0209-.1504.0007-.2788-.0604-.3856-.0614-.1068-.1583-.1811-.2913-.2233l-.4566-.1364c-.266-.0803-.4619-.217-.5879-.4095-.126-.1922-.1697-.4197-.1313-.6823.035-.2099.1121-.3935.2309-.551s.2729-.2799.4619-.3673.4024-.1313.6404-.1313c.3498,0,.6158.0954.7978.2859.182.1908.2485.4437.1995.7586h-.5668c.0279-.168-.0027-.3001-.092-.3964-.0891-.0963-.2301-.1444-.4225-.1444-.1889,0-.343.0447-.4619.1338-.119.0894-.1889.2144-.21.3753-.0245.1506-.007.2791.0525.3859s.1575.1811.2939.223l.4672.1469c.2624.0806.4558.2173.5801.4095.1242.1925.1653.4217.1233.6877-.035.217-.1155.4058-.2415.5667-.1259.1612-.2878.2862-.4855.3753-.1976.0894-.419.1338-.6639.1338ZM363.2651,785.8377c-.3568,0-.6228-.1005-.7978-.3019-.175-.201-.2345-.473-.1784-.8161l.2677-1.7006c.056-.3429.2029-.6148.4408-.8161.2379-.201.5355-.3019.8923-.3019s.6228.1.7979.2993c.1748.1993.2361.4707.1837.8136l-.2677,1.7057c-.0561.3431-.2039.6151-.4435.8161-.2398.2013-.5381.3019-.895.3019ZM363.3439,785.3339c.1925,0,.3483-.0524.4672-.1575.119-.1051.1942-.2571.2257-.4568l.2678-1.7006c.0315-.1993.0051-.3517-.0787-.4565-.084-.1051-.2223-.1575-.4148-.1575s-.3473.0524-.4645.1575c-.1173.1048-.1916.2571-.2231.4565l-.2677,1.7006c-.0315.1996-.0053.3517.0787.4568s.2204.1575.4094.1575ZM365.2754,785.7853l.6088-3.8315h.7086l.6194,3.186c.007-.098.0165-.217.0289-.3571.0121-.1398.0271-.2851.0446-.4354.0175-.1506.0367-.2888.0577-.4146l.315-1.9788h.525l-.609,3.8315h-.7085l-.6141-3.186c-.0071.0945-.0167.209-.0289.3437s-.0272.2757-.0446.4226c-.0177.1469-.0367.2833-.0578.4095l-.315,2.0102h-.5301ZM368.2252,785.7853l1.5851-3.8315h.7454l.3726,3.8315h-.5616l-.0735-.9711h-1.0865l-.3884.9711h-.5932ZM369.3852,784.3418h.8714l-.0893-1.1023c-.0175-.1959-.0298-.3654-.0367-.5089-.0071-.1435-.0105-.2432-.0105-.2993-.0175.0561-.0517.1558-.1024.2993s-.1146.3112-.1915.5038l-.441,1.1075ZM371.7208,785.7853l.6088-3.8315h.567l-.525,3.3118h1.6744l-.0787.5197h-2.2465ZM376.6785,785.8377c-.3673,0-.6342-.1005-.8003-.3019-.1663-.201-.2214-.475-.1654-.8213l.4357-2.7608h.567l-.4357,2.7554c-.0315.1962-.008.35.0708.4619.0787.1122.2144.168.4068.168.1925,0,.3473-.0558.4646-.168.1172-.1119.1915-.2657.2231-.4619l.4355-2.7554h.567l-.4357,2.7608c-.056.35-.2003.6245-.433.8241-.2328.1993-.5328.299-.9003.299ZM379.8435,785.8377c-.385,0-.6736-.0951-.8661-.2859-.1924-.1908-.2641-.4505-.2151-.7794h.5668c-.028.1748.0105.3121.1155.4121.1051.0997.266.1495.483.1495.2029,0,.3701-.049.5012-.1469.1313-.098.2109-.2327.2389-.4044.0209-.1504.0007-.2788-.0604-.3856-.0614-.1068-.1583-.1811-.2913-.2233l-.4566-.1364c-.266-.0803-.4619-.217-.5879-.4095-.126-.1922-.1697-.4197-.1313-.6823.035-.2099.1121-.3935.2309-.551s.2729-.2799.4619-.3673.4024-.1313.6404-.1313c.3498,0,.6158.0954.7978.2859.182.1908.2485.4437.1995.7586h-.5668c.0279-.168-.0027-.3001-.092-.3964-.0891-.0963-.2301-.1444-.4225-.1444-.1889,0-.343.0447-.4619.1338-.119.0894-.1889.2144-.21.3753-.0245.1506-.007.2791.0525.3859s.1575.1811.2939.223l.4672.1469c.2624.0806.4558.2173.5801.4095.1242.1925.1653.4217.1233.6877-.035.217-.1155.4058-.2415.5667-.1259.1612-.2878.2862-.4855.3753-.1976.0894-.419.1338-.6639.1338ZM381.9062,785.7853l.6088-3.8315h2.2518l-.0787.5038h-1.6954l-.1731,1.0867h1.5115l-.0787.4986h-1.5115l-.1942,1.2387h1.6901l-.0787.5038h-2.2518ZM386.9426,785.8377c-.3568,0-.6228-.1005-.7978-.3019-.175-.201-.2345-.473-.1784-.8161l.2677-1.7006c.056-.3429.2029-.6148.4408-.8161.2379-.201.5355-.3019.8923-.3019s.6228.1.7979.2993c.1748.1993.2361.4707.1837.8136l-.2677,1.7057c-.0561.3431-.2039.6151-.4435.8161-.2398.2013-.5381.3019-.895.3019ZM387.0213,785.3339c.1925,0,.3483-.0524.4672-.1575.119-.1051.1942-.2571.2257-.4568l.2678-1.7006c.0315-.1993.0051-.3517-.0787-.4565-.084-.1051-.2223-.1575-.4148-.1575s-.3473.0524-.4645.1575c-.1173.1048-.1916.2571-.2231.4565l-.2677,1.7006c-.0315.1996-.0053.3517.0787.4568s.2204.1575.4094.1575ZM388.9529,785.7853l.6088-3.8315h.7086l.6194,3.186c.007-.098.0165-.217.0289-.3571.0121-.1398.0271-.2851.0446-.4354.0175-.1506.0367-.2888.0577-.4146l.315-1.9788h.525l-.609,3.8315h-.7085l-.6141-3.186c-.0071.0945-.0167.209-.0289.3437s-.0272.2757-.0446.4226c-.0177.1469-.0367.2833-.0578.4095l-.315,2.0102h-.5301ZM392.249,785.7853l.6088-3.8315h.567l-.525,3.3118h1.6744l-.0787.5197h-2.2465ZM396.1174,785.7853l.2204-1.4119-.7506-2.4197h.5774l.4462,1.4486c.0279.0945.0498.1837.0656.2677.0157.084.0253.1469.0288.1888.0175-.0419.0464-.1048.0867-.1888.0402-.084.0883-.1731.1442-.2677l.8976-1.4486h.5984l-1.5275,2.4197-.2204,1.4119h-.5668ZM399.217,785.7853l.6088-3.8315h.7086l.6192,3.186c.0071-.098.0165-.217.029-.3571.012-.1398.0271-.2851.0444-.4354.0177-.1506.037-.2888.0578-.4146l.315-1.9788h.5248l-.6088,3.8315h-.7085l-.6141-3.186c-.0071.0945-.0167.209-.0289.3437s-.0272.2757-.0446.4226c-.0177.1469-.0367.2833-.0578.4095l-.315,2.0102h-.5301ZM403.5053,785.8377c-.3571,0-.6231-.1005-.7979-.3019-.1751-.201-.2344-.473-.1785-.8161l.2677-1.7006c.0561-.3429.203-.6148.4411-.8161.2378-.201.5354-.3019.8922-.3019.3571,0,.6228.1.7979.2993.1748.1993.2361.4707.1837.8136l-.2677,1.7057c-.0561.3431-.2039.6151-.4437.8161-.2395.2013-.5379.3019-.8947.3019ZM403.5839,785.3339c.1925,0,.3483-.0524.4673-.1575.1187-.1051.1942-.2571.2255-.4568l.2677-1.7006c.0316-.1993.0054-.3517-.0786-.4565-.084-.1051-.2224-.1575-.4146-.1575-.1925,0-.3474.0524-.4647.1575-.117.1048-.1914.2571-.223.4565l-.2677,1.7006c-.0316.1996-.0051.3517.0789.4568.0837.1051.2204.1575.4092.1575ZM406.3814,785.7853l.5248-3.3121h-1.0234l.084-.5194h2.6193l-.084.5194h-1.0289l-.5248,3.3121h-.567ZM409.5178,785.7853l.6088-3.8315h2.32l-.084.5194h-1.7636l-.1837,1.1445h1.6272l-.084.5248h-1.6166l-.2571,1.6428h-.567ZM413.7694,785.8377c-.3571,0-.6231-.1005-.7979-.3019-.1751-.201-.2344-.473-.1785-.8161l.2677-1.7006c.0561-.3429.203-.6148.4411-.8161.2378-.201.5354-.3019.8922-.3019.3571,0,.6228.1.7979.2993.1748.1993.2361.4707.1837.8136l-.2677,1.7057c-.0561.3431-.2039.6151-.4437.8161-.2395.2013-.5379.3019-.8947.3019ZM413.848,785.3339c.1925,0,.3483-.0524.4673-.1575.1187-.1051.1942-.2571.2255-.4568l.2677-1.7006c.0316-.1993.0054-.3517-.0786-.4565-.084-.1051-.2224-.1575-.4146-.1575-.1925,0-.3474.0524-.4647.1575-.117.1048-.1914.2571-.223.4565l-.2677,1.7006c-.0316.1996-.0051.3517.0789.4568.0837.1051.2204.1575.4092.1575ZM415.7952,785.7853l.6088-3.8315h1.202c.2381,0,.4391.0464.6037.139.1643.0928.2833.223.3568.391s.0911.3656.0527.5932c-.0387.2591-.1401.4838-.3044.6746-.1646.1905-.3659.3209-.6037.391l.5354,1.6428h-.6194l-.4776-1.5748h-.5408l-.2466,1.5748h-.567ZM416.6876,783.7068h.635c.1891,0,.3491-.0558.4804-.168.131-.1119.2107-.2623.2386-.4514.0316-.1925,0-.3454-.0945-.4593-.0943-.1136-.2361-.1706-.4252-.1706h-.635l-.1993,1.2493ZM420.905,785.8377c-.3602,0-.6308-.1005-.8107-.3019-.1803-.201-.2423-.473-.1865-.8161l.2677-1.7006c.0561-.3463.2056-.6194.4488-.8187s.545-.2993.9056-.2993c.3568,0,.6253.1008.8056.3019.1803.2013.2423.4733.1865.8161h-.567c.0313-.1993.0026-.3517-.0866-.4565-.0894-.1051-.2284-.1575-.4175-.1575-.1925,0-.3508.0524-.475.1575-.1242.1048-.2019.2554-.2335.4514l-.2677,1.7057c-.0316.1996-.0026.3517.0866.4568.0894.1051.2301.1575.4226.1575s.35-.0524.4724-.1575.1993-.2571.2309-.4568h.5667c-.0347.2275-.1145.4252-.2386.5932s-.2808.2976-.4699.3884c-.1888.0908-.4024.1364-.6404.1364ZM424.0335,785.8377c-.3571,0-.6231-.1005-.7979-.3019-.1751-.201-.2344-.473-.1785-.8161l.2677-1.7006c.0561-.3429.203-.6148.4411-.8161.2378-.201.5354-.3019.8922-.3019.3571,0,.6228.1.7979.2993.1748.1993.2361.4707.1837.8136l-.2677,1.7057c-.0561.3431-.2039.6151-.4437.8161-.2395.2013-.5379.3019-.8947.3019ZM424.1121,785.3339c.1925,0,.3483-.0524.4673-.1575.1187-.1051.1942-.2571.2255-.4568l.2677-1.7006c.0316-.1993.0054-.3517-.0786-.4565-.084-.1051-.2224-.1575-.4146-.1575-.1925,0-.3474.0524-.4647.1575-.117.1048-.1914.2571-.223.4565l-.2677,1.7006c-.0316.1996-.0051.3517.0789.4568.0837.1051.2204.1575.4092.1575ZM425.9653,785.7853l.6088-3.8315h.6874l.1837,1.2282c.0211.119.0367.2301.0473.3332.0105.1034.0194.1828.0262.2389.0177-.0561.0473-.1364.0894-.2415.0419-.1051.0908-.217.1469-.336l.5667-1.2228h.7088l-.6088,3.8315h-.5354l.2045-1.2911c.0245-.168.0578-.3525.1-.5539.0419-.201.0874-.4041.1364-.6088s.0963-.3998.1418-.5852c.0453-.1854.0874-.3483.1259-.4881l-.8554,1.8632h-.5513l-.2833-1.8632c-.0037.1364-.0105.2947-.0211.475s-.0236.3719-.0393.5747c-.0157.203-.035.4069-.0578.6114-.0228.2047-.0481.3964-.076.5749l-.2047,1.2911h-.5405ZM429.1145,785.7853l.6088-3.8315h.6874l.1837,1.2282c.0211.119.0367.2301.0473.3332.0105.1034.0194.1828.0262.2389.0177-.0561.0473-.1364.0894-.2415.0419-.1051.0908-.217.1469-.336l.5667-1.2228h.7088l-.6088,3.8315h-.5354l.2045-1.2911c.0245-.168.0578-.3525.1-.5539.0419-.201.0874-.4041.1364-.6088s.0963-.3998.1418-.5852c.0453-.1854.0874-.3483.1259-.4881l-.8554,1.8632h-.5513l-.2833-1.8632c-.0037.1364-.0105.2947-.0211.475s-.0236.3719-.0393.5747c-.0157.203-.035.4069-.0578.6114-.0228.2047-.0481.3964-.076.5749l-.2047,1.2911h-.5405ZM432.4107,785.7853l.6088-3.8315h2.2516l-.0786.5038h-1.6955l-.1731,1.0867h1.5115l-.0786.4986h-1.5118l-.1942,1.2387h1.6901l-.0786.5038h-2.2516ZM435.5073,785.7853l.6088-3.8315h1.202c.2381,0,.4391.0464.6037.139.1643.0928.2833.223.3568.391s.0911.3656.0527.5932c-.0387.2591-.1401.4838-.3044.6746-.1646.1905-.3659.3209-.6037.391l.5354,1.6428h-.6194l-.4776-1.5748h-.5408l-.2466,1.5748h-.567ZM436.3997,783.7068h.635c.1891,0,.3491-.0558.4804-.168.131-.1119.2107-.2623.2386-.4514.0316-.1925,0-.3454-.0945-.4593-.0943-.1136-.2361-.1706-.4252-.1706h-.635l-.1993,1.2493ZM439.8007,785.8377c-.3602,0-.6308-.1005-.8107-.3019-.1803-.201-.2423-.473-.1865-.8161l.2677-1.7006c.0561-.3463.2056-.6194.4488-.8187s.545-.2993.9056-.2993c.3568,0,.6253.1008.8056.3019.1803.2013.2423.4733.1865.8161h-.567c.0313-.1993.0026-.3517-.0866-.4565-.0894-.1051-.2284-.1575-.4175-.1575-.1925,0-.3508.0524-.475.1575-.1242.1048-.2019.2554-.2335.4514l-.2677,1.7057c-.0316.1996-.0026.3517.0866.4568.0894.1051.2301.1575.4226.1575s.35-.0524.4724-.1575.1993-.2571.2309-.4568h.5667c-.0347.2275-.1145.4252-.2386.5932s-.2808.2976-.4699.3884c-.1888.0908-.4024.1364-.6404.1364ZM441.8792,785.7853l.0789-.5038h.7768l.4459-2.824h-.7766l.0837-.5038h2.1258l-.084.5038h-.7766l-.4462,2.824h.7768l-.0789.5038h-2.1258ZM444.7399,785.7853l1.585-3.8315h.7452l.3728,3.8315h-.5616l-.0735-.9711h-1.0867l-.3884.9711h-.5929ZM445.8998,784.3418h.8714l-.0894-1.1023c-.0174-.1959-.0296-.3654-.0367-.5089-.0068-.1435-.0103-.2432-.0103-.2993-.0177.0561-.0518.1558-.1025.2993s-.1148.3112-.1916.5038l-.4408,1.1075ZM448.2354,785.7853l.6088-3.8315h.567l-.5248,3.3118h1.6741l-.0786.5197h-2.2465ZM453.1932,785.8377c-.3676,0-.6345-.1005-.8005-.3019-.1663-.201-.2213-.475-.1654-.8213l.4357-2.7608h.567l-.4357,2.7554c-.0316.1962-.008.35.0709.4619.0786.1122.2141.168.4066.168s.3474-.0558.4645-.168c.1173-.1119.1916-.2657.2233-.4619l.4357-2.7554h.5667l-.4357,2.7608c-.0558.35-.2002.6245-.4328.8241-.2329.1993-.5328.299-.9001.299ZM456.3581,785.8377c-.385,0-.6738-.0951-.866-.2859-.1925-.1908-.2643-.4505-.2153-.7794h.567c-.0282.1748.0105.3121.1153.4121.1051.0997.266.1495.483.1495.2028,0,.3699-.049.5012-.1469s.2107-.2327.2389-.4044c.0211-.1504.0009-.2788-.0604-.3856s-.1583-.1811-.2913-.2233l-.4568-.1364c-.266-.0803-.4619-.217-.5878-.4095-.1259-.1922-.1697-.4197-.1313-.6823.035-.2099.1119-.3935.2309-.551s.2731-.2799.4619-.3673c.1891-.0874.4024-.1313.6404-.1313.3497,0,.6157.0954.7979.2859.1817.1908.2483.4437.1993.7586h-.567c.0279-.168-.0026-.3001-.0917-.3964-.0894-.0963-.2301-.1444-.4226-.1444-.1891,0-.3429.0447-.4619.1338-.119.0894-.1891.2144-.2099.3753-.0245.1506-.0071.2791.0524.3859s.1575.1811.2939.223l.4673.1469c.2623.0806.4556.2173.5798.4095.1242.1925.1654.4217.1236.6877-.035.217-.1156.4058-.2415.5667-.1262.1612-.2879.2862-.4855.3753-.1979.0894-.4192.1338-.6641.1338ZM458.4209,785.7853l.6088-3.8315h2.2516l-.0786.5038h-1.6955l-.1731,1.0867h1.5115l-.0786.4986h-1.5118l-.1942,1.2387h1.6901l-.0786.5038h-2.2516Z" style="fill: #ccc;"/>
  <path d="M400,750c-192.9948,0-350-157.0052-350-350S207.0052,50,400,50s350,157.0052,350,350-157.0052,350-350,350ZM400,52.5103c-191.619,0-347.4897,155.8948-347.4897,347.4897s155.8828,347.4897,347.4897,347.4897,347.4897-155.8948,347.4897-347.4897S591.5948,52.5103,400,52.5103ZM400,734.4431c-183.6052,0-332.9828-149.3896-332.9828-332.9948S216.3948,68.4655,400,68.4655s332.9828,149.3293,332.9828,332.9828-149.3776,332.9948-332.9828,332.9948ZM400,80.981c-176.7138,0-320.4431,143.7655-320.4431,320.4431s143.7655,320.4431,320.4431,320.4431,320.4431-143.7655,320.4431-320.4431S576.7138,80.9689,400,80.9689v.0156-.0035ZM149.2286,497.1552l-12.8257,3.7256c-12.39,3.6012-22.3457-1.9988-26.4443-16.17l-5.0711-17.4529c-.6533-2.24-.1478-3.2744,2.17-3.9512l46.8372-13.6029c2.3333-.6767,3.2977-.07,3.9511,2.1623l5.0633,17.4614c4.1067,14.1714-1.2989,24.2357-13.6814,27.8286l.0009-.0009ZM151.8419,472.4608l-2.4111-8.2833-30.8,8.9288,2.4033,8.2833c1.9056,6.5644,5.9577,9.1077,11.8533,7.3967l12.8257-3.7256c5.8956-1.7033,8.0344-6.0433,6.1289-12.6ZM140.6428,557.0293l-2.6289-5.2033c-1.7423-3.4688-1.7111-4.7911,0-6.4323l5.4444-5.4444-8.6256-17.1114-7.6377,1.0578c-2.3333.3189-3.3677-.3033-5.1177-3.7723l-2.4033-4.7911c-1.05-2.0844-.3967-3.0256,1.8277-3.2667l52.4843-5.6233c2.3333-.28,3.1111.3422,4.1067,2.2867l2.6833,5.3433c.98,1.9444,1.0189,3.0489-.4744,4.5888l-35.9257,38.8886c-1.54,1.5944-2.7223,1.4933-3.7333-.5211v.0008ZM169.1328,516.6707l-.35-.7c-3.3618,1.6516-6.9544,2.7846-10.6556,3.36l-12.6471,1.8433,5.6311,11.2623,8.9444-9.0144c2.7307-2.6218,5.7802-4.89,9.0767-6.7511h.0004ZM202.2017,577.9448c-6.2223,4.6667-12.5686,5.3977-18.1372,2.3956-.3469.9994-.7441,1.9806-1.19,2.94l-7.3967,15.6028c-.8789,1.9289-2.2477,2.5744-3.6477.7155l-3.7489-4.97c-2.38-3.1577-2.73-4.6667-1.5089-7l6.09-11.8533c1.82-3.5156,1.7423-5.3044-.9722-8.8977l-1.9133-2.5123-13.09,9.8544c-1.9211,1.4467-3.0567,1.2367-4.4567-.6222l-3.7877-5.0244c-1.4077-1.8588-1.2989-3.01.6222-4.4567l38.9357-29.3771c1.9289-1.4544,3.0644-1.2367,4.4644.6222l12.9572,17.1729c6.7823,9.0067,5.7711,18.6272-3.22,25.41l-.0002.0003ZM195.4973,558.5005l-6.5023-8.6177-10.1733,7.6689,6.51,8.6023c2.4733,3.29,5.74,3.7489,8.9677,1.3144,3.2277-2.4344,3.6789-5.6933,1.1978-8.9833v.0156h0ZM258.7569,608.7086l-31.7329,37.2557c-1.5089,1.7733-2.5977,1.8588-4.4333.2956l-4.4333-3.7723c-1.7733-1.5167-1.8589-2.6056-.35-4.3789l11.4256-13.4243c3.0723-3.6088,6.8756-7.1089,13.2843-11.6667l-.5289-.4511c-4.4291,2.8052-9.1332,5.1507-14.0386,7l-10.5933,3.9356c-1.7111.6844-2.6444.7078-4.1223-.5522l-2.7223-2.3333c-1.4777-1.26-1.7033-2.0689-1.26-4.0367l2.1389-11.1377c.9891-5.1114,2.6689-10.0647,4.9933-14.7229l-.5289-.4511c-3.7256,7.2411-6.2223,10.8889-9.6133,14.8786l-11.3789,13.4086c-1.5089,1.7733-2.6056,1.8667-4.3789.35l-4.2-3.57c-1.7656-1.5089-1.9211-2.66-.4044-4.4256l31.7257-37.2557c1.5089-1.7733,2.66-1.8123,4.4333-.2956l3.85,3.2744c1.9444,1.6567,2.24,2.52,1.8589,4.6667l-6.2223,29.1973,27.8528-10.6633c2.1933-.7778,2.9167-.6689,4.7523.8867l4.2,3.5777c1.8433,1.54,1.9367,2.6367.4278,4.41l-.0012.0005ZM285.1155,617.9052c10.0177,5.3123,13.4557,11.4411,13.0514,19.8414-.0622,2.4267-1.12,3.1111-3.4767,2.9089l-6.4167-.4978c-2.2244-.1244-2.7923-.8711-2.8467-3.2667.0933-3.6477-1.3689-6.5333-5.6933-8.8277-5.6311-2.9788-8.8667-2.8467-10.6167.4511-1.96,3.7023,2.38,7,7.6067,10.5312,7.5289,5.2112,16.1772,12.4443,9.7767,24.5229-4.9777,9.4033-16.0843,11.6044-28.7157,4.9156-10.71-5.6777-14.5371-12.7171-13.3929-21.3427.3656-2.3333,1.3923-2.9555,3.6789-2.6211l5.95.8711c2.3956.2956,2.9633,1.0422,2.7689,3.57-.1944,3.6789,1.9523,7.1011,6.3467,9.4345,5.8333,3.1111,9.9244,3.3289,12.0011-.5911,1.8123-3.43-1.8589-6.6111-6.65-9.8544-7.7077-5.2811-17.7728-12.4057-11.0833-25.0371,4.6977-8.8511,14.8786-11.8067,27.7128-5.0089l-.0011.001ZM345.5931,645.6638l-1.5556,4.97c-.7,2.2244-1.6723,2.73-3.9667,2.0144l-11.5656-3.6244-12.0943,38.6243c-.7233,2.3333-1.6956,2.8077-3.9977,2.0923l-6.0044-1.8823c-2.2167-.6922-2.73-1.6723-2.0067-3.9667l12.0943-38.6328-11.6667-3.64c-2.2944-.7155-2.8077-1.6877-2.1077-3.8889l1.5556-4.9623c.7233-2.3333,1.6877-2.8077,3.99-2.0844l35.21,11.0212c2.3256.6922,2.8544,1.6644,2.1156,3.9588v.0008ZM377.9017,702.919l-5.7477-.91c-3.8344-.6067-4.8923-1.4077-5.2267-3.7411l-1.2367-7.5833-18.9471-3.0023-3.6011,6.8212c-1.1122,2.1-2.2089,2.5589-6.0433,1.9523l-5.2967-.84c-2.2944-.3578-2.6756-1.4467-1.5556-3.3911l26.0557-45.8886c1.1044-2.0223,2.1-2.3333,4.2467-1.9988l5.9111.9333c2.1389.3422,3.0723.9644,3.4456,3.0644l10.5856,51.8471c.4122,2.1856-.3656,3.0877-2.59,2.7377l.0002-.0006ZM361.786,656.2519l-.7778-.1244c-.6113,3.7077-1.7835,7.3008-3.4767,10.6556l-5.8877,11.3323,12.4443,1.9677-2.1233-12.5228c-.5293-3.7475-.5894-7.5465-.1789-11.3089v.0005ZM430.0638,667.7741l.3422,13.3543c.3267,12.8957-7.63,21.1014-22.3843,21.4743l-18.1686.4589c-2.3333.0545-3.2044-.6922-3.2667-3.1111l-1.2367-48.7272c-.0622-2.4111.7778-3.2044,3.1111-3.2667l18.1771-.4589c14.7471-.4122,23.1,7.3811,23.4271,20.2771l-.0012-.0006ZM406.8395,658.9541l-8.6177.2178.7778,32.0757,8.6177-.2178c6.8367-.1711,10.3289-3.4455,10.1733-9.5823l-.3345-13.3628c-.1244-6.1289-3.78-9.3023-10.6167-9.1311v.0005ZM474.6707,640.3293l1.1122,5.0867c.5056,2.2789-.0933,3.1967-2.4423,3.7177l-11.8923,2.5823,8.68,39.5343c.5211,2.3333-.0778,3.2823-2.4267,3.7956l-6.1444,1.3533c-2.2789.4978-3.2044-.0933-3.7256-2.45l-8.6723-39.5343-11.9156,2.6133c-2.3333.5133-3.2823-.07-3.78-2.3333l-1.1122-5.0867c-.5211-2.3333.07-3.2823,2.4267-3.7956l36.0428-7.91c2.3877-.5367,3.3133.0933,3.85,2.4267h-.0005ZM518.3362,621.2362l21.07,43.9914c1.0422,2.1777.6067,3.2433-1.4933,4.2544l-5.6855,2.7456c-2.1077,1.0111-3.2123.6767-4.2544-1.4933l-15.7343-32.8614-4.9,7.0777c-1.5556,2.3333-2.9945,2.38-4.8844.9567l-4.5967-3.2356c-1.8512-1.3533-1.7967-2.4967-.4433-4.5267l9.1467-13.4243c.8072-1.3845,2.0483-2.4643,3.5311-3.0723l3.99-1.9133c2.1077-1.0033,3.22-.6689,4.2544,1.5011h-.0003ZM537.8276,604.0138c10.8889-7.42,19.7472-6.7433,25.1927,1.2911,2.7179,3.9215,3.2737,8.9496,1.4777,13.37,5.25-.5678,10.3289.6844,14.3428,6.5956,5.5377,8.1589,4.2623,17.4843-8.7189,26.2971-12.9814,8.8123-21.4429,7.14-26.6772-.5678-3.8889-5.7245-2.4267-11.5967-.6533-15.3373-4.5189,0-8.9133-1.9289-12.4443-7.07-5.67-8.4156-2.7377-17.64,7.4823-24.5772l-.0017-.0015ZM543.9799,612.7949c-4.0523,2.7456-5.0167,5.7477-2.9244,8.8356,2.0923,3.0877,5.0867,2.6444,9.3333,1.1667l3.1811-1.12c1.3377-2.3333,2.0844-5.3667-.0545-8.5167-2.1389-3.15-5.5533-3.0723-9.5356-.3656ZM553.4843,633.5692c-1.3845,2.2477-2.6911,5.5767-.2022,9.24,2.0923,3.1111,5.4444,3.5544,10.8889-.1556s5.9344-6.7511,3.8344-9.8389c-2.9712-4.3633-7.7777-1.7577-14.5214.7544h.0003ZM596.6759,602.5535c-10.2123,10.01-19.1728,10.2977-27.5486,1.7577-7.9412-8.0967-6.8989-18.6671,2.7533-28.1557,10.1111-9.9012,20.9228-9.6289,29.9528-.42l11.2777,11.5423c9.0223,9.2089,9.03,20.09-1.0111,29.9286-7.9412,7.7777-15.6957,9.3333-23.5743,5.7012-2.1311-.9567-2.3956-2.1077-1.4389-4.2467l2.5823-5.4444c.9567-2.1311,1.9988-2.2867,4.2933-1.3845,3.3444,1.4077,6.5333.56,9.9789-2.8077,4.3244-4.2467,4.48-8.5556.2411-12.8571l-1.1511-1.1667c-1.8341,2.7433-3.9651,5.2761-6.3544,7.5523l-.0008.0007ZM579.8759,584.3305c-4.3789,4.2933-4.8611,8.0267-1.8123,11.13,3.0489,3.1033,6.3933,3.1111,11.1688-1.5556,3.6012-3.5311,5.1177-6.0977,5.6233-7.2489l-2.45-2.4967c-3.9744-4.1067-8.1977-4.0912-12.53.1711h.0001ZM600.6707,542.4138c7.6144-10.78,16.1072-13.2228,24.0329-7.6456,3.9197,2.7195,6.2038,7.2322,6.0744,12.0011,4.7211-2.3723,9.9088-2.9867,15.7428,1.1433,8.0577,5.6933,10.1111,14.8629,1.0811,27.6729s-17.5386,14.1943-25.1529,8.8356c-5.6389-3.99-6.3388-9.9944-5.9889-14.1243-4.2467,1.5556-9.0223,1.33-14.1014-2.2633-8.3067-5.8644-8.7967-15.5327-1.6877-25.62l-.0004.0002ZM609.5062,548.4727c-2.8233,3.9977-2.6756,7.1477.3733,9.3333s5.6933.7,9.1544-2.1777l2.5823-2.17c.4356-2.6444.07-5.7556-3.0333-7.9488s-6.2456-.9722-9.0533,2.9633c0,0-.0233,0-.0234,0ZM625.7076,564.5799c-.4978,2.5977-.56,6.1677,3.0567,8.7267,3.0489,2.1544,6.3156,1.4233,10.1111-3.9744s3.1811-8.4.14-10.5545c-4.2777-3.0489-7.8556,1.0811-13.2843,5.8023h-.0235ZM643.9258,509.5983c4.41-9.8777,12.11-11.7911,18.9543-8.7423l3.6244,1.6256c1.7889.7778,2.6367,2.1,1.5944,4.4177l-7.3733,16.5357,1.4856.6611c3.2123,1.4389,5.6.0778,7.0856-3.2511,1.2523-2.8,1.0967-5.0089.1478-6.72s-.9022-2.4656.7778-3.7877l2.7767-2.2244c1.5556-1.2911,2.7611-1.0578,3.9356.6144,2.5277,3.7644,2.7223,8.7733-.3033,15.5557-4.5655,10.2356-12.0556,11.6667-19.553,8.33l-6.3077-2.8156c-8.5711-3.85-10.9589-10.9823-6.8444-20.1986l-.0004-.0005ZM651.0658,512.7794c-1.5556,3.4533-.7778,6.0123,2.2167,7.3423l.9567.42,4.76-10.5856-.9489-.4278c-3.01-1.33-5.4133-.2567-6.9845,3.251ZM682.969,495.1638l.7778.2645c2.3333.7778,2.7533,1.8123,1.96,4.1067l-.2333.6844c-.7778,2.2944-1.7656,2.7689-4.0677,1.9756l-.7778-.2645c-2.3333-.7778-2.8077-1.7889-2.0223-4.0833l.2411-.6844c.7934-2.2711,1.7811-2.8077,4.1223-1.9988h0ZM654.281,450.2069l35.9643,25.41c1.5556,1.12,1.7344,2.0377,1.26,3.7333l-1.4,5.0867c-.49,1.7577-1.0967,2.4656-2.8856,2.5823l-44.0529,3.2511c-1.8667.1556-2.5433-.5755-2.0377-2.3956l1.3067-4.7056c.8867-3.2044,1.6333-3.9433,3.6167-4.0056l25.4571-.84c2.6658.0029,5.3287.177,7.9723.5211l.14-.4978c-2.4221-1.0375-4.762-2.2569-7-3.6477l-21.4827-13.7357c-1.6644-1.0733-1.9211-2.0923-1.05-5.2344l1.2677-4.5812c.4744-1.82,1.4156-2.0377,2.9244-.9411h-.0002ZM692.2862,460.1034l.7778.1711c2.3723.5133,2.9477,1.4623,2.45,3.8344l-.1556.7078c-.5056,2.3333-1.4156,2.9633-3.7877,2.4577l-.7778-.1789c-2.4189-.5133-3.0023-1.4233-2.4967-3.7956l.1556-.7078c.5056-2.3723,1.4233-3.0023,3.8344-2.4888ZM149.2286,497.1552l-12.8257,3.7256c-12.39,3.6012-22.3457-1.9988-26.4443-16.17l-5.0711-17.4529c-.6533-2.24-.1478-3.2744,2.17-3.9512l46.8372-13.6029c2.3333-.6767,3.2977-.07,3.9511,2.1623l5.0633,17.4614c4.1067,14.1714-1.2989,24.2357-13.6814,27.8286l.0009-.0009ZM151.8419,472.4608l-2.4111-8.2833-30.8,8.9288,2.4033,8.2833c1.9056,6.5644,5.9577,9.1077,11.8533,7.3967l12.8257-3.7256c5.8956-1.7033,8.0344-6.0433,6.1289-12.6ZM140.6428,557.0293l-2.6289-5.2033c-1.7423-3.4688-1.7111-4.7911,0-6.4323l5.4444-5.4444-8.6256-17.1114-7.6377,1.0578c-2.3333.3189-3.3677-.3033-5.1177-3.7723l-2.4033-4.7911c-1.05-2.0844-.3967-3.0256,1.8277-3.2667l52.4843-5.6233c2.3333-.28,3.1111.3422,4.1067,2.2867l2.6833,5.3433c.98,1.9444,1.0189,3.0489-.4744,4.5888l-35.9257,38.8886c-1.54,1.5944-2.7223,1.4933-3.7333-.5211v.0008ZM169.1328,516.6707l-.35-.7c-3.3618,1.6516-6.9544,2.7846-10.6556,3.36l-12.6471,1.8433,5.6311,11.2623,8.9444-9.0144c2.7307-2.6218,5.7802-4.89,9.0767-6.7511h.0004ZM202.2017,577.9448c-6.2223,4.6667-12.5686,5.3977-18.1372,2.3956-.3469.9994-.7441,1.9806-1.19,2.94l-7.3967,15.6028c-.8789,1.9289-2.2477,2.5744-3.6477.7155l-3.7489-4.97c-2.38-3.1577-2.73-4.6667-1.5089-7l6.09-11.8533c1.82-3.5156,1.7423-5.3044-.9722-8.8977l-1.9133-2.5123-13.09,9.8544c-1.9211,1.4467-3.0567,1.2367-4.4567-.6222l-3.7877-5.0244c-1.4077-1.8588-1.2989-3.01.6222-4.4567l38.9357-29.3771c1.9289-1.4544,3.0644-1.2367,4.4644.6222l12.9572,17.1729c6.7823,9.0067,5.7711,18.6272-3.22,25.41l-.0002.0003ZM195.4973,558.5005l-6.5023-8.6177-10.1733,7.6689,6.51,8.6023c2.4733,3.29,5.74,3.7489,8.9677,1.3144,3.2277-2.4344,3.6789-5.6933,1.1978-8.9833v.0156h0ZM258.7569,608.7086l-31.7329,37.2557c-1.5089,1.7733-2.5977,1.8588-4.4333.2956l-4.4333-3.7723c-1.7733-1.5167-1.8589-2.6056-.35-4.3789l11.4256-13.4243c3.0723-3.6088,6.8756-7.1089,13.2843-11.6667l-.5289-.4511c-4.4291,2.8052-9.1332,5.1507-14.0386,7l-10.5933,3.9356c-1.7111.6844-2.6444.7078-4.1223-.5522l-2.7223-2.3333c-1.4777-1.26-1.7033-2.0689-1.26-4.0367l2.1389-11.1377c.9891-5.1114,2.6689-10.0647,4.9933-14.7229l-.5289-.4511c-3.7256,7.2411-6.2223,10.8889-9.6133,14.8786l-11.3789,13.4086c-1.5089,1.7733-2.6056,1.8667-4.3789.35l-4.2-3.57c-1.7656-1.5089-1.9211-2.66-.4044-4.4256l31.7257-37.2557c1.5089-1.7733,2.66-1.8123,4.4333-.2956l3.85,3.2744c1.9444,1.6567,2.24,2.52,1.8589,4.6667l-6.2223,29.1973,27.8528-10.6633c2.1933-.7778,2.9167-.6689,4.7523.8867l4.2,3.5777c1.8433,1.54,1.9367,2.6367.4278,4.41l-.0012.0005ZM285.1155,617.9052c10.0177,5.3123,13.4557,11.4411,13.0514,19.8414-.0622,2.4267-1.12,3.1111-3.4767,2.9089l-6.4167-.4978c-2.2244-.1244-2.7923-.8711-2.8467-3.2667.0933-3.6477-1.3689-6.5333-5.6933-8.8277-5.6311-2.9788-8.8667-2.8467-10.6167.4511-1.96,3.7023,2.38,7,7.6067,10.5312,7.5289,5.2112,16.1772,12.4443,9.7767,24.5229-4.9777,9.4033-16.0843,11.6044-28.7157,4.9156-10.71-5.6777-14.5371-12.7171-13.3929-21.3427.3656-2.3333,1.3923-2.9555,3.6789-2.6211l5.95.8711c2.3956.2956,2.9633,1.0422,2.7689,3.57-.1944,3.6789,1.9523,7.1011,6.3467,9.4345,5.8333,3.1111,9.9244,3.3289,12.0011-.5911,1.8123-3.43-1.8589-6.6111-6.65-9.8544-7.7077-5.2811-17.7728-12.4057-11.0833-25.0371,4.6977-8.8511,14.8786-11.8067,27.7128-5.0089l-.0011.001ZM345.5931,645.6638l-1.5556,4.97c-.7,2.2244-1.6723,2.73-3.9667,2.0144l-11.5656-3.6244-12.0943,38.6243c-.7233,2.3333-1.6956,2.8077-3.9977,2.0923l-6.0044-1.8823c-2.2167-.6922-2.73-1.6723-2.0067-3.9667l12.0943-38.6328-11.6667-3.64c-2.2944-.7155-2.8077-1.6877-2.1077-3.8889l1.5556-4.9623c.7233-2.3333,1.6877-2.8077,3.99-2.0844l35.21,11.0212c2.3256.6922,2.8544,1.6644,2.1156,3.9588v.0008ZM377.9017,702.919l-5.7477-.91c-3.8344-.6067-4.8923-1.4077-5.2267-3.7411l-1.2367-7.5833-18.9471-3.0023-3.6011,6.8212c-1.1122,2.1-2.2089,2.5589-6.0433,1.9523l-5.2967-.84c-2.2944-.3578-2.6756-1.4467-1.5556-3.3911l26.0557-45.8886c1.1044-2.0223,2.1-2.3333,4.2467-1.9988l5.9111.9333c2.1389.3422,3.0723.9644,3.4456,3.0644l10.5856,51.8471c.4122,2.1856-.3656,3.0877-2.59,2.7377l.0002-.0006ZM361.786,656.2519l-.7778-.1244c-.6113,3.7077-1.7835,7.3008-3.4767,10.6556l-5.8877,11.3323,12.4443,1.9677-2.1233-12.5228c-.5293-3.7475-.5894-7.5465-.1789-11.3089v.0005ZM430.0638,667.7741l.3422,13.3543c.3267,12.8957-7.63,21.1014-22.3843,21.4743l-18.1686.4589c-2.3333.0545-3.2044-.6922-3.2667-3.1111l-1.2367-48.7272c-.0622-2.4111.7778-3.2044,3.1111-3.2667l18.1771-.4589c14.7471-.4122,23.1,7.3811,23.4271,20.2771l-.0012-.0006ZM406.8395,658.9541l-8.6177.2178.7778,32.0757,8.6177-.2178c6.8367-.1711,10.3289-3.4455,10.1733-9.5823l-.3345-13.3628c-.1244-6.1289-3.78-9.3023-10.6167-9.1311v.0005ZM474.6707,640.3293l1.1122,5.0867c.5056,2.2789-.0933,3.1967-2.4423,3.7177l-11.8923,2.5823,8.68,39.5343c.5211,2.3333-.0778,3.2823-2.4267,3.7956l-6.1444,1.3533c-2.2789.4978-3.2044-.0933-3.7256-2.45l-8.6723-39.5343-11.9156,2.6133c-2.3333.5133-3.2823-.07-3.78-2.3333l-1.1122-5.0867c-.5211-2.3333.07-3.2823,2.4267-3.7956l36.0428-7.91c2.3877-.5367,3.3133.0933,3.85,2.4267h-.0005ZM518.3362,621.2362l21.07,43.9914c1.0422,2.1777.6067,3.2433-1.4933,4.2544l-5.6855,2.7456c-2.1077,1.0111-3.2123.6767-4.2544-1.4933l-15.7343-32.8614-4.9,7.0777c-1.5556,2.3333-2.9945,2.38-4.8844.9567l-4.5967-3.2356c-1.8512-1.3533-1.7967-2.4967-.4433-4.5267l9.1467-13.4243c.8072-1.3845,2.0483-2.4643,3.5311-3.0723l3.99-1.9133c2.1077-1.0033,3.22-.6689,4.2544,1.5011h-.0003ZM537.8276,604.0138c10.8889-7.42,19.7472-6.7433,25.1927,1.2911,2.7179,3.9215,3.2737,8.9496,1.4777,13.37,5.25-.5678,10.3289.6844,14.3428,6.5956,5.5377,8.1589,4.2623,17.4843-8.7189,26.2971-12.9814,8.8123-21.4429,7.14-26.6772-.5678-3.8889-5.7245-2.4267-11.5967-.6533-15.3373-4.5189,0-8.9133-1.9289-12.4443-7.07-5.67-8.4156-2.7377-17.64,7.4823-24.5772l-.0017-.0015ZM543.9799,612.7949c-4.0523,2.7456-5.0167,5.7477-2.9244,8.8356,2.0923,3.0877,5.0867,2.6444,9.3333,1.1667l3.1811-1.12c1.3377-2.3333,2.0844-5.3667-.0545-8.5167-2.1389-3.15-5.5533-3.0723-9.5356-.3656ZM553.4843,633.5692c-1.3845,2.2477-2.6911,5.5767-.2022,9.24,2.0923,3.1111,5.4444,3.5544,10.8889-.1556s5.9344-6.7511,3.8344-9.8389c-2.9712-4.3633-7.7777-1.7577-14.5214.7544h.0003ZM596.6759,602.5535c-10.2123,10.01-19.1728,10.2977-27.5486,1.7577-7.9412-8.0967-6.8989-18.6671,2.7533-28.1557,10.1111-9.9012,20.9228-9.6289,29.9528-.42l11.2777,11.5423c9.0223,9.2089,9.03,20.09-1.0111,29.9286-7.9412,7.7777-15.6957,9.3333-23.5743,5.7012-2.1311-.9567-2.3956-2.1077-1.4389-4.2467l2.5823-5.4444c.9567-2.1311,1.9988-2.2867,4.2933-1.3845,3.3444,1.4077,6.5333.56,9.9789-2.8077,4.3244-4.2467,4.48-8.5556.2411-12.8571l-1.1511-1.1667c-1.8341,2.7433-3.9651,5.2761-6.3544,7.5523l-.0008.0007ZM579.8759,584.3305c-4.3789,4.2933-4.8611,8.0267-1.8123,11.13,3.0489,3.1033,6.3933,3.1111,11.1688-1.5556,3.6012-3.5311,5.1177-6.0977,5.6233-7.2489l-2.45-2.4967c-3.9744-4.1067-8.1977-4.0912-12.53.1711h.0001ZM600.6707,542.4138c7.6144-10.78,16.1072-13.2228,24.0329-7.6456,3.9197,2.7195,6.2038,7.2322,6.0744,12.0011,4.7211-2.3723,9.9088-2.9867,15.7428,1.1433,8.0577,5.6933,10.1111,14.8629,1.0811,27.6729s-17.5386,14.1943-25.1529,8.8356c-5.6389-3.99-6.3388-9.9944-5.9889-14.1243-4.2467,1.5556-9.0223,1.33-14.1014-2.2633-8.3067-5.8644-8.7967-15.5327-1.6877-25.62l-.0004.0002ZM609.5062,548.4727c-2.8233,3.9977-2.6756,7.1477.3733,9.3333s5.6933.7,9.1544-2.1777l2.5823-2.17c.4356-2.6444.07-5.7556-3.0333-7.9488s-6.2456-.9722-9.0533,2.9633c0,0-.0233,0-.0234,0ZM625.7076,564.5799c-.4978,2.5977-.56,6.1677,3.0567,8.7267,3.0489,2.1544,6.3156,1.4233,10.1111-3.9744s3.1811-8.4.14-10.5545c-4.2777-3.0489-7.8556,1.0811-13.2843,5.8023h-.0235ZM643.9258,509.5983c4.41-9.8777,12.11-11.7911,18.9543-8.7423l3.6244,1.6256c1.7889.7778,2.6367,2.1,1.5944,4.4177l-7.3733,16.5357,1.4856.6611c3.2123,1.4389,5.6.0778,7.0856-3.2511,1.2523-2.8,1.0967-5.0089.1478-6.72s-.9022-2.4656.7778-3.7877l2.7767-2.2244c1.5556-1.2911,2.7611-1.0578,3.9356.6144,2.5277,3.7644,2.7223,8.7733-.3033,15.5557-4.5655,10.2356-12.0556,11.6667-19.553,8.33l-6.3077-2.8156c-8.5711-3.85-10.9589-10.9823-6.8444-20.1986l-.0004-.0005ZM651.0658,512.7794c-1.5556,3.4533-.7778,6.0123,2.2167,7.3423l.9567.42,4.76-10.5856-.9489-.4278c-3.01-1.33-5.4133-.2567-6.9845,3.251ZM682.969,495.1638l.7778.2645c2.3333.7778,2.7533,1.8123,1.96,4.1067l-.2333.6844c-.7778,2.2944-1.7656,2.7689-4.0677,1.9756l-.7778-.2645c-2.3333-.7778-2.8077-1.7889-2.0223-4.0833l.2411-.6844c.7934-2.2711,1.7811-2.8077,4.1223-1.9988h0ZM654.281,450.2069l35.9643,25.41c1.5556,1.12,1.7344,2.0377,1.26,3.7333l-1.4,5.0867c-.49,1.7577-1.0967,2.4656-2.8856,2.5823l-44.0529,3.2511c-1.8667.1556-2.5433-.5755-2.0377-2.3956l1.3067-4.7056c.8867-3.2044,1.6333-3.9433,3.6167-4.0056l25.4571-.84c2.6658.0029,5.3287.177,7.9723.5211l.14-.4978c-2.4221-1.0375-4.762-2.2569-7-3.6477l-21.4827-13.7357c-1.6644-1.0733-1.9211-2.0923-1.05-5.2344l1.2677-4.5812c.4744-1.82,1.4156-2.0377,2.9244-.9411h-.0002ZM692.2862,460.1034l.7778.1711c2.3723.5133,2.9477,1.4623,2.45,3.8344l-.1556.7078c-.5056,2.3333-1.4156,2.9633-3.7877,2.4577l-.7778-.1789c-2.4189-.5133-3.0023-1.4233-2.4967-3.7956l.1556-.7078c.5056-2.3723,1.4233-3.0023,3.8344-2.4888ZM162.6457,214.7052c7-8.9211,13.6428-11.2077,21.84-9.3333,2.38.4822,2.8544,1.6489,2.24,3.9356l-1.6256,6.2223c-.5133,2.17-1.3456,2.5977-3.7177,2.2244-3.5777-.7778-6.6733.1867-9.6911,4.0367-3.9356,5.0089-4.3867,8.2211-1.4467,10.5233,3.2977,2.59,7.28-1.0967,11.7133-5.6156,6.4711-6.4789,15.12-13.7128,25.8686-5.2656,8.3689,6.5723,8.5556,17.8886-.2567,29.1357-7.4589,9.5433-15.0971,12.0633-23.38,9.4267-2.2556-.7778-2.6677-1.8977-1.9289-4.0911l1.9133-5.7011c.7156-2.3333,1.5556-2.7377,4.0056-2.0923,3.5856.8478,7.3344-.6611,10.4067-4.5656,4.0756-5.1956,5.04-9.1856,1.5556-11.9156-3.0567-2.4033-6.8367.6533-10.8889,4.7911-6.6189,6.6577-15.3686,15.2914-26.6157,6.4633-7.8633-6.2223-8.9677-16.7529.0078-28.1786l.0004-.0004ZM232.6759,172.9707c7.63,8.7967,6.6423,18.8071-2.2167,26.4914l-8.5556,7.4277,9.6677,11.1533c1.5556,1.82,1.4467,2.9633-.3189,4.4956l-4.7523,4.1144c-1.7577,1.5556-2.9167,1.5011-4.4956-.3189l-32.0057-36.8514c-1.5556-1.82-1.4389-2.9711.3267-4.4956l15.7572-13.6572c8.7423-7.56,18.9543-7.1633,26.5928,1.6411l.0003-.0005ZM222.7592,181.5263c-2.9011-3.3444-6.6811-3.6633-10.1111-.6611l-7.5677,6.5644,9.2556,10.6789,7.5523-6.5567c3.3911-2.9244,3.7723-6.6423.8711-9.9867v-.0389h0ZM249.1138,139.67c12.7786-7.3811,23.9086-4.5811,30.3329,6.5877l7.8556,13.58c6.4556,11.1689,3.3289,22.2129-9.45,29.6028-12.7789,7.3898-23.8471,4.5423-30.3329-6.6189l-7.7389-13.5872c-6.4867-11.1223-3.36-22.2129,9.3333-29.5629v-.0015ZM254.9005,149.6956c-5.6467,3.2667-7.3577,7.7777-4.3244,12.9971l8.0889,14c3.0333,5.2423,7.7777,6.0044,13.4243,2.7377,5.6467-3.2667,7.4277-7.7777,4.3944-13.0429l-8.0889-14c-3.01-5.2423-7.7544-5.9967-13.4714-2.6911h-.0233l.0004-.0007ZM331.2793,125.8571c2.4733,7.3656,1.1278,13.6271-3.4844,17.9586.8396.6439,1.6444,1.3319,2.4111,2.0611l12.4443,11.9623c1.5556,1.4467,1.7189,2.9477-.49,3.6867l-5.8877,1.9756c-3.7567,1.2523-5.2811,1.1122-7.1477-.7778l-9.2323-9.5433c-2.7533-2.8389-4.4723-3.3289-8.7423-1.8977l-3.0256,1.0111,5.2111,15.5557c.7778,2.2867.1944,3.29-2.0144,4.0289l-5.9577,1.9989c-2.2089.7778-3.2667.28-4.0367-2.0067l-15.5014-46.27c-.7778-2.2789-.2022-3.29,2.0067-4.0289l20.3929-6.8289c10.6867-3.5777,19.4829.4356,23.0529,11.1144h.0012ZM310.7066,126.036l-10.2589,3.43,4.0444,12.0714,10.2356-3.4223c3.8889-1.3144,5.3667-4.2623,4.0833-8.0889-1.2833-3.8267-4.2077-5.2967-8.1044-3.99v-.0003ZM378.0224,103.6671l.7778,5.1489c.3345,2.3333-.3189,3.1889-2.7067,3.5389l-11.9856,1.75,5.8567,40.04c.35,2.38-.3111,3.2667-2.6911,3.6167l-6.2223.91c-2.3333.3344-3.1889-.3189-3.5389-2.7067l-5.8567-40.04-12.0871,1.7811c-2.38.35-3.2589-.3033-3.6011-2.6133l-.7778-5.1489c-.3422-2.38.3111-3.2589,2.6911-3.6089l36.5086-5.3433c2.4033-.3422,3.2823.3422,3.6323,2.6756h.0007ZM432.9845,104.3586l-19.0472,48.9071c-.8322,2.1544-1.8511,2.5977-3.9511,2.5356l-6.2923-.1711c-2.17-.0544-3.1733-.5522-3.8111-2.59l-16.4428-50.0186c-.7233-2.1233-.07-3.1111,2.1777-3.0489l5.8256.1556c3.9589.1089,5.0323.7778,5.67,3.0256l8.33,29.2129c.7619,3.0718,1.3257,6.1893,1.6877,9.3333h.6222c.4984-3.1128,1.2316-6.1834,2.1933-9.1856l9.7144-28.7772c.7778-2.2323,1.8667-2.8233,5.7477-2.7223l5.67.1556c2.2167.0933,2.7377,1.1122,1.9056,3.1889l.0003-.0007ZM478.7862,113.5443l-1.0033,5.1023c-.4667,2.2867-1.3845,2.8856-3.7411,2.4111l-21.3114-4.34-1.9988,9.8233,17.4771,3.57c2.3333.4822,2.9633,1.3923,2.4967,3.6789l-1.0345,5.1023c-.4822,2.3333-1.3923,2.9633-3.7567,2.4811l-17.5072-3.5623-2.1077,10.3523,22.0814,4.5033c2.2789.4667,2.9477,1.47,2.4812,3.7567l-1.0345,5.0944c-.4822,2.3333-1.4777,2.9556-3.7567,2.4889l-31.36-6.3777c-2.2867-.4667-2.9711-1.4-2.4889-3.7567l9.7223-47.8028c.4822-2.3333,1.4777-2.9556,3.7567-2.4889l30.6057,6.2223c2.3567.4667,2.9633,1.3844,2.4812,3.7411l-.0013.0004ZM530.5621,149.2443c-3.0256,7.1556-8.1823,10.9667-14.4972,11.1611.2411,1.0267.3033,2.0689.4433,3.1111l1.4077,17.2128c.2022,2.1077-.6533,3.3444-2.8,2.4423l-5.7245-2.4189c-3.6477-1.5556-4.6667-2.66-4.83-5.3356l-.6378-13.2228c-.1789-3.9511-1.1511-5.4444-5.2967-7.2177l-2.9555-1.2444-6.3856,15.0971c-.9333,2.2167-2.0223,2.5977-4.1689,1.6956l-5.7789-2.4577c-2.1467-.9022-2.6289-1.9523-1.6956-4.1689l18.9929-44.9243c.9411-2.2167,2.03-2.5977,4.1767-1.6956l19.81,8.3767c10.3833,4.3867,14.3271,13.2228,9.94,23.59v-.0008ZM515.0064,135.7572l-9.9477-4.2-4.9544,11.7289,9.94,4.2077c3.7956,1.6023,6.8444.3656,8.4156-3.36,1.5711-3.7256.3422-6.7667-3.4455-8.3767,0,0-.0078,0-.0078.0001ZM582.2172,165.2128l-2.9089,4.3167c-1.3067,1.9289-2.38,2.1467-4.3789.7778l-18.0371-12.1571-5.6,8.3144,14.8171,9.9789c1.9988,1.3456,2.2089,2.4267.91,4.3556l-2.9089,4.34c-1.3455,1.9989-2.4267,2.2089-4.4256.8633l-14.7772-9.9789-5.9033,8.7577,18.6671,12.5843c1.9289,1.3067,2.1623,2.4889.8556,4.4256l-2.9089,4.3167c-1.3455,1.9911-2.4812,2.1623-4.4177.8556l-26.5457-17.8886c-1.9289-1.3067-2.2011-2.4267-.8556-4.4256l27.2228-40.4443c1.3533-1.9989,2.4888-2.17,4.4256-.8633l25.9,17.4457c2.0067,1.3533,2.2089,2.4267.8711,4.4256h-.0016ZM598.9328,175.7224l4.7833,4.3167c1.7344,1.5556,1.7889,2.66.2255,4.3867l-32.7829,36.3228c-1.5556,1.7344-2.66,1.7889-4.3867.2256l-4.7833-4.3167c-1.7344-1.5556-1.7889-2.66-.2255-4.3867l32.7829-36.33c1.5556-1.7267,2.66-1.7811,4.3867-.2178v-.0005ZM643.6724,229.1155l-37.6286,31.0486c-1.8588,1.5556-2.9477,1.4233-4.4333-.3733l-4.0056-4.8533c-.9878-1.1978-1.2289-2.1-.8322-3.3367l8.1589-26.4443c1.6743-5.0656,4.0489-9.8721,7.0544-14.28l-.35-.42c-3.5293,4.6791-7.5645,8.9543-12.0323,12.7472l-14.3186,11.8223c-1.8588,1.5556-3.0023,1.3689-4.4877-.4356l-3.6556-4.4333c-1.4856-1.7967-1.4311-2.9477.4278-4.48l37.6286-31.0486c1.8512-1.5556,3.0023-1.3689,4.48.4278l4.1067,4.9777c.8782.8449,1.1822,2.1249.7778,3.2744l-8.2677,26.9657c-2.1,7-5.7323,12.0786-6.6656,13.7586l.3967.4822c3.2294-4.8384,7.1613-9.1689,11.6667-12.8486l14.3186-11.8144c1.8512-1.5556,2.9477-1.4233,4.48.4278l3.6556,4.4411c1.4856,1.7733,1.3767,2.8623-.4744,4.3944l-.0002.0002ZM162.6457,214.7052c7-8.9211,13.6428-11.2077,21.84-9.3333,2.38.4822,2.8544,1.6489,2.24,3.9356l-1.6256,6.2223c-.5133,2.17-1.3456,2.5977-3.7177,2.2244-3.5777-.7778-6.6733.1867-9.6911,4.0367-3.9356,5.0089-4.3867,8.2211-1.4467,10.5233,3.2977,2.59,7.28-1.0967,11.7133-5.6156,6.4711-6.4789,15.12-13.7128,25.8686-5.2656,8.3689,6.5723,8.5556,17.8886-.2567,29.1357-7.4589,9.5433-15.0971,12.0633-23.38,9.4267-2.2556-.7778-2.6677-1.8977-1.9289-4.0911l1.9133-5.7011c.7156-2.3333,1.5556-2.7377,4.0056-2.0923,3.5856.8478,7.3344-.6611,10.4067-4.5656,4.0756-5.1956,5.04-9.1856,1.5556-11.9156-3.0567-2.4033-6.8367.6533-10.8889,4.7911-6.6189,6.6577-15.3686,15.2914-26.6157,6.4633-7.8633-6.2223-8.9677-16.7529.0078-28.1786l.0004-.0004ZM232.6759,172.9707c7.63,8.7967,6.6423,18.8071-2.2167,26.4914l-8.5556,7.4277,9.6677,11.1533c1.5556,1.82,1.4467,2.9633-.3189,4.4956l-4.7523,4.1144c-1.7577,1.5556-2.9167,1.5011-4.4956-.3189l-32.0057-36.8514c-1.5556-1.82-1.4389-2.9711.3267-4.4956l15.7572-13.6572c8.7423-7.56,18.9543-7.1633,26.5928,1.6411l.0003-.0005ZM222.7592,181.5263c-2.9011-3.3444-6.6811-3.6633-10.1111-.6611l-7.5677,6.5644,9.2556,10.6789,7.5523-6.5567c3.3911-2.9244,3.7723-6.6423.8711-9.9867v-.0389h0ZM249.1138,139.67c12.7786-7.3811,23.9086-4.5811,30.3329,6.5877l7.8556,13.58c6.4556,11.1689,3.3289,22.2129-9.45,29.6028-12.7789,7.3898-23.8471,4.5423-30.3329-6.6189l-7.7389-13.5872c-6.4867-11.1223-3.36-22.2129,9.3333-29.5629v-.0015ZM254.9005,149.6956c-5.6467,3.2667-7.3577,7.7777-4.3244,12.9971l8.0889,14c3.0333,5.2423,7.7777,6.0044,13.4243,2.7377,5.6467-3.2667,7.4277-7.7777,4.3944-13.0429l-8.0889-14c-3.01-5.2423-7.7544-5.9967-13.4714-2.6911h-.0233l.0004-.0007ZM331.2793,125.8571c2.4733,7.3656,1.1278,13.6271-3.4844,17.9586.8396.6439,1.6444,1.3319,2.4111,2.0611l12.4443,11.9623c1.5556,1.4467,1.7189,2.9477-.49,3.6867l-5.8877,1.9756c-3.7567,1.2523-5.2811,1.1122-7.1477-.7778l-9.2323-9.5433c-2.7533-2.8389-4.4723-3.3289-8.7423-1.8977l-3.0256,1.0111,5.2111,15.5557c.7778,2.2867.1944,3.29-2.0144,4.0289l-5.9577,1.9989c-2.2089.7778-3.2667.28-4.0367-2.0067l-15.5014-46.27c-.7778-2.2789-.2022-3.29,2.0067-4.0289l20.3929-6.8289c10.6867-3.5777,19.4829.4356,23.0529,11.1144h.0012ZM310.7066,126.036l-10.2589,3.43,4.0444,12.0714,10.2356-3.4223c3.8889-1.3144,5.3667-4.2623,4.0833-8.0889-1.2833-3.8267-4.2077-5.2967-8.1044-3.99v-.0003ZM378.0224,103.6671l.7778,5.1489c.3345,2.3333-.3189,3.1889-2.7067,3.5389l-11.9856,1.75,5.8567,40.04c.35,2.38-.3111,3.2667-2.6911,3.6167l-6.2223.91c-2.3333.3344-3.1889-.3189-3.5389-2.7067l-5.8567-40.04-12.0871,1.7811c-2.38.35-3.2589-.3033-3.6011-2.6133l-.7778-5.1489c-.3422-2.38.3111-3.2589,2.6911-3.6089l36.5086-5.3433c2.4033-.3422,3.2823.3422,3.6323,2.6756h.0007ZM432.9845,104.3586l-19.0472,48.9071c-.8322,2.1544-1.8511,2.5977-3.9511,2.5356l-6.2923-.1711c-2.17-.0544-3.1733-.5522-3.8111-2.59l-16.4428-50.0186c-.7233-2.1233-.07-3.1111,2.1777-3.0489l5.8256.1556c3.9589.1089,5.0323.7778,5.67,3.0256l8.33,29.2129c.7619,3.0718,1.3257,6.1893,1.6877,9.3333h.6222c.4984-3.1128,1.2316-6.1834,2.1933-9.1856l9.7144-28.7772c.7778-2.2323,1.8667-2.8233,5.7477-2.7223l5.67.1556c2.2167.0933,2.7377,1.1122,1.9056,3.1889l.0003-.0007ZM478.7862,113.5443l-1.0033,5.1023c-.4667,2.2867-1.3845,2.8856-3.7411,2.4111l-21.3114-4.34-1.9988,9.8233,17.4771,3.57c2.3333.4822,2.9633,1.3923,2.4967,3.6789l-1.0345,5.1023c-.4822,2.3333-1.3923,2.9633-3.7567,2.4811l-17.5072-3.5623-2.1077,10.3523,22.0814,4.5033c2.2789.4667,2.9477,1.47,2.4812,3.7567l-1.0345,5.0944c-.4822,2.3333-1.4777,2.9556-3.7567,2.4889l-31.36-6.3777c-2.2867-.4667-2.9711-1.4-2.4889-3.7567l9.7223-47.8028c.4822-2.3333,1.4777-2.9556,3.7567-2.4889l30.6057,6.2223c2.3567.4667,2.9633,1.3844,2.4812,3.7411l-.0013.0004ZM530.5621,149.2443c-3.0256,7.1556-8.1823,10.9667-14.4972,11.1611.2411,1.0267.3033,2.0689.4433,3.1111l1.4077,17.2128c.2022,2.1077-.6533,3.3444-2.8,2.4423l-5.7245-2.4189c-3.6477-1.5556-4.6667-2.66-4.83-5.3356l-.6378-13.2228c-.1789-3.9511-1.1511-5.4444-5.2967-7.2177l-2.9555-1.2444-6.3856,15.0971c-.9333,2.2167-2.0223,2.5977-4.1689,1.6956l-5.7789-2.4577c-2.1467-.9022-2.6289-1.9523-1.6956-4.1689l18.9929-44.9243c.9411-2.2167,2.03-2.5977,4.1767-1.6956l19.81,8.3767c10.3833,4.3867,14.3271,13.2228,9.94,23.59v-.0008ZM515.0064,135.7572l-9.9477-4.2-4.9544,11.7289,9.94,4.2077c3.7956,1.6023,6.8444.3656,8.4156-3.36,1.5711-3.7256.3422-6.7667-3.4455-8.3767,0,0-.0078,0-.0078.0001ZM582.2172,165.2128l-2.9089,4.3167c-1.3067,1.9289-2.38,2.1467-4.3789.7778l-18.0371-12.1571-5.6,8.3144,14.8171,9.9789c1.9988,1.3456,2.2089,2.4267.91,4.3556l-2.9089,4.34c-1.3455,1.9989-2.4267,2.2089-4.4256.8633l-14.7772-9.9789-5.9033,8.7577,18.6671,12.5843c1.9289,1.3067,2.1623,2.4889.8556,4.4256l-2.9089,4.3167c-1.3455,1.9911-2.4812,2.1623-4.4177.8556l-26.5457-17.8886c-1.9289-1.3067-2.2011-2.4267-.8556-4.4256l27.2228-40.4443c1.3533-1.9989,2.4888-2.17,4.4256-.8633l25.9,17.4457c2.0067,1.3533,2.2089,2.4267.8711,4.4256h-.0016ZM598.9328,175.7224l4.7833,4.3167c1.7344,1.5556,1.7889,2.66.2255,4.3867l-32.7829,36.3228c-1.5556,1.7344-2.66,1.7889-4.3867.2256l-4.7833-4.3167c-1.7344-1.5556-1.7889-2.66-.2255-4.3867l32.7829-36.33c1.5556-1.7267,2.66-1.7811,4.3867-.2178v-.0005ZM643.6724,229.1155l-37.6286,31.0486c-1.8588,1.5556-2.9477,1.4233-4.4333-.3733l-4.0056-4.8533c-.9878-1.1978-1.2289-2.1-.8322-3.3367l8.1589-26.4443c1.6743-5.0656,4.0489-9.8721,7.0544-14.28l-.35-.42c-3.5293,4.6791-7.5645,8.9543-12.0323,12.7472l-14.3186,11.8223c-1.8588,1.5556-3.0023,1.3689-4.4877-.4356l-3.6556-4.4333c-1.4856-1.7967-1.4311-2.9477.4278-4.48l37.6286-31.0486c1.8512-1.5556,3.0023-1.3689,4.48.4278l4.1067,4.9777c.8782.8449,1.1822,2.1249.7778,3.2744l-8.2677,26.9657c-2.1,7-5.7323,12.0786-6.6656,13.7586l.3967.4822c3.2294-4.8384,7.1613-9.1689,11.6667-12.8486l14.3186-11.8144c1.8512-1.5556,2.9477-1.4233,4.48.4278l3.6556,4.4411c1.4856,1.7733,1.3767,2.8623-.4744,4.3944l-.0002.0002ZM131.0757,338.0259c1.8223,2.9646,4.0238,5.6787,6.5489,8.0733,2.3886,2.519,5.0915,4.7202,8.0423,6.5489-2.9721,1.8248-5.6938,4.0289-8.0967,6.5567-3.1111,3.1111-5.5144,6.1289-6.5567,8.0967-1.0422-1.9677-3.4456-4.9777-6.5411-8.0733-3.0956-3.0956-6.1133-5.5067-8.0733-6.5489,1.96-1.0422,4.9856-3.4533,8.0967-6.5567,3.1111-3.1033,5.5144-6.1289,6.5489-8.0967h.0311ZM669.3914,338.0259c1.0422,1.9677,3.4455,4.9856,6.5411,8.0733,2.3982,2.5212,5.1117,4.7223,8.0733,6.5489-1.96,1.0422-4.9856,3.4533-8.0967,6.5567-3.1112,3.1034-5.5144,6.1289-6.5489,8.0967-1.05-1.9677-3.4533-4.9777-6.5489-8.0733s-6.1133-5.5067-8.0733-6.5489c2.9721-1.8248,5.6938-4.0289,8.0967-6.5567,3.1111-3.1111,5.5144-6.1289,6.5566-8.0967ZM400,174.4431c-125.3965,0-227.0293,101.6171-227.0293,227.0051s101.6328,227.0173,227.0293,227.0173,227.0293-101.6328,227.0293-227.0173-101.6557-227.0051-227.0293-227.0051ZM556.4105,450.9757c-12.055,6.0284-12.9883,15.1904-13.3073,19.7327-.3188,4.5422-2.3644,4.2777-7.3655,1.33-3.99-2.3498-8.3221-9.7537-7.3577-20.277.63-6.8129,4.62-8.9286,4.62-27.9529,0-12.9966-13.5257-20.2843-26.4443-20.2843-8.1587,0-35.7773,11.153-51.2244,49.723-1.4077,3.5233-1.4855,5.4755,1.2523,6.0277,2.7378.5515,11.1223,1.4845,11.1223,13.9373s-3.2823,16.9943-10.5701,16.9943-4.1533,4.8535-2.7455,7.6768c1.2443,2.4497,5.9025,12.9186,25.9229,12.9186s28.3428,14.8864,28.3428,26.0086-4.1378,5.8956-8.3767,4.7756c-7.7543-2.03-12.9962,1.4935-20.6729,2.9012-8.0656,1.4772-27.3312-3.5942-35.6299-13.1528-8.2988-9.5586-15.2443-25.5261-15.2443-34.3772s-2.5666-9.9478-4.7756-9.9478-4.5423,1.019-4.5423,9.1622c0,28.5841,12.74,37.7457,12.74,54.5771,0,13.4714-7.1009,20.1759-14.8786,28.817-6.1759,6.86-12.6159,13.86-17.1971,13.86-4.5886,0-11.0287-6.9767-17.2043-13.86-7.7542-8.6414-14.8786-15.3456-14.8786-28.817,0-16.8314,12.74-25.9941,12.74-54.5771,0-8.1434-2.349-9.1622-4.5423-9.1622s-4.7756,1.0966-4.7756,9.9478-6.9454,24.826-15.2443,34.3772c-8.2986,9.5516-27.5645,14.6306-35.63,13.1528-7.6686-1.4079-12.8952-4.9312-20.6729-2.9012-4.239,1.1201-8.3767,6.3388-8.3767-4.7756s8.3071-25.9929,28.35-25.9929,24.679-10.4375,25.9157-12.9186c1.4078-2.8234,4.5501-7.6767-2.7377-7.6767s-10.5856-4.589-10.5856-17.033,8.3767-13.3539,11.1144-13.9373c2.7379-.5833,2.66-2.5044,1.2523-6.0277-15.4314-38.5696-43.0653-49.7229-51.2086-49.7229-12.8957,0-26.4443,7.2872-26.4443,20.2843,0,19.024,3.9977,21.1396,4.62,27.9529.9723,10.5237-3.3677,17.9438-7.3577,20.277-5.0323,2.9478-7.0545,3.2123-7.3656-1.33-.3102-4.5428-1.2516-13.7051-13.3073-19.7328-12.0557-6.0284-31.3998-12.6-34.9227-39.7757-3.5229-27.1757,14.9498-55.3622,53.947-60.06,38.9973-4.6984,69.6183,20.4327,85.6644,43.1429,16.046,22.7102,19.1572,50.415,20.7127,57.1273,1.4466,6.3,1.96,9.0767,5.9889,9.0767,4.939,0,3.8656-6.02,3.6167-8.0267-.5287-4.1299-3.5854-42.6058-12.4443-62.4629-17.3527-38.9055-25.0527-53.34-25.0527-81.7527,0-31.3914,35.1786-62.6114,47.5143-84.3428,7.1124-12.5302,10.0297-13.8427,11.3065-13.8442h-.0005.0029c-.0007,0-.0016,0-.0024,0,1.268.0004,4.2004,1.3087,11.3162,13.8443,12.3356,21.7313,47.5143,52.9514,47.5143,84.3657,0,28.4128-7.7,42.8641-25.0527,81.7527-8.8666,19.8558-11.9232,58.3174-12.4443,62.463-.2722,2.0067-1.3145,8.0267,3.6167,8.0267,4.0289,0,4.5422-2.7767,5.9889-9.0767,1.54-6.7115,4.6598-34.4243,20.7127-57.1273,16.053-22.7029,46.6743-47.8401,85.6643-43.1429,38.9901,4.6972,57.4705,32.8928,53.9471,60.06-3.5242,27.1684-22.8672,33.748-34.9228,39.7757Z" style="fill: #171819;"/>
</svg>