<?xml version="1.0" encoding="utf-8"?>
<!-- Created by @FCLOGO 2022-06-15 23:22:45 . https://fclogo.top/ -->
<!-- FOR PERSONAL USE ONLY NOT FOR COMMERCIAL USE -->
<svg version="1.1" xmlns="http://www.w3.org/2000/svg" xmlns:xlink="http://www.w3.org/1999/xlink" x="0px" y="0px"
	 viewBox="0 0 800 800" enable-background="new 0 0 800 800" xml:space="preserve">
<g>
	<path fill="#005BAB" d="M310.8,263.64C310.8,263.64,310.8,263.64,310.8,263.64c0,0.01,0,0.01-0.01,0.02
		c-0.2,0.54-0.3,0.84-0.3,0.84c-0.15-1.02-0.29-2.03-0.41-3.02c-0.04-0.33-0.07-0.65-0.11-0.98c-0.08-0.66-0.15-1.33-0.21-1.98
		c-0.04-0.38-0.07-0.76-0.1-1.13c-0.05-0.59-0.1-1.18-0.14-1.77c-0.03-0.39-0.05-0.77-0.07-1.16c-0.03-0.56-0.07-1.12-0.09-1.68
		c-0.02-0.38-0.03-0.77-0.04-1.15c-0.02-0.54-0.03-1.09-0.04-1.62c-0.01-0.37-0.01-0.75-0.02-1.12c0-0.53-0.01-1.06,0-1.59
		c0-0.36,0-0.71,0.01-1.06c0.01-0.54,0.02-1.06,0.04-1.59c0.01-0.33,0.02-0.66,0.03-0.98c0.02-0.55,0.05-1.1,0.08-1.64
		c0.02-0.28,0.03-0.57,0.05-0.85c0.04-0.61,0.08-1.22,0.13-1.82c0.02-0.2,0.03-0.4,0.05-0.6c0.14-1.61,0.31-3.16,0.51-4.66
		c0.02-0.12,0.03-0.24,0.05-0.36c0.08-0.62,0.17-1.23,0.26-1.83c0.03-0.2,0.06-0.39,0.09-0.58c0.08-0.51,0.17-1.02,0.25-1.52
		c0.04-0.22,0.08-0.43,0.12-0.64c0.08-0.46,0.17-0.92,0.26-1.38c0.04-0.22,0.09-0.43,0.13-0.65c0.09-0.43,0.18-0.86,0.27-1.28
		c0.05-0.21,0.09-0.42,0.14-0.63c0.09-0.41,0.19-0.82,0.28-1.22c0.05-0.2,0.09-0.39,0.14-0.59c0.1-0.4,0.2-0.8,0.3-1.19
		c0.05-0.17,0.09-0.35,0.14-0.52c0.11-0.41,0.22-0.8,0.33-1.19c0.04-0.14,0.08-0.28,0.12-0.42c0.12-0.43,0.25-0.85,0.37-1.26
		c0.03-0.08,0.05-0.17,0.08-0.25c0.31-1,0.61-1.93,0.91-2.79c0-0.01,0.01-0.02,0.01-0.04c0.14-0.41,0.28-0.8,0.42-1.17
		c0.03-0.09,0.07-0.18,0.1-0.27c0.11-0.29,0.21-0.57,0.31-0.83c0.04-0.11,0.09-0.22,0.13-0.33c0.09-0.23,0.18-0.45,0.26-0.66
		c0.05-0.12,0.09-0.23,0.14-0.35c0.08-0.19,0.15-0.37,0.23-0.55c0.05-0.11,0.09-0.22,0.14-0.33c0.07-0.16,0.14-0.32,0.2-0.46
		c0.04-0.1,0.09-0.2,0.13-0.3c0.06-0.13,0.11-0.26,0.17-0.38c0.04-0.09,0.09-0.19,0.13-0.28c0.04-0.1,0.08-0.18,0.13-0.27
		c0.04-0.09,0.09-0.19,0.13-0.27c0.03-0.05,0.05-0.1,0.07-0.15c0.04-0.09,0.09-0.19,0.13-0.26c0,0,0,0,0,0
		c0.17-0.35,0.27-0.53,0.27-0.53c-21.33,14.47-26.66,39.36-28.95,61.45c-2.35,22.68-17.01,33.52-17.01,33.52
		c0,0.03,0,0.05,0.01,0.08c0,0,0,0,0,0c1.54,17.6-6.49,31.49-17.02,38.44c-0.01,0-0.01,0.01-0.02,0.01
		c-0.47,0.31-0.95,0.61-1.43,0.89c-0.03,0.02-0.07,0.04-0.1,0.06c-0.45,0.27-0.91,0.52-1.37,0.76c-0.08,0.04-0.17,0.08-0.25,0.12
		c-0.41,0.21-0.83,0.42-1.25,0.6c-0.12,0.06-0.25,0.1-0.37,0.16c-0.38,0.17-0.76,0.33-1.15,0.48c-0.11,0.04-0.22,0.08-0.34,0.12
		c-0.4,0.15-0.8,0.3-1.2,0.42c-0.12,0.04-0.23,0.07-0.35,0.1c-0.4,0.12-0.8,0.24-1.2,0.35c-0.16,0.04-0.32,0.07-0.49,0.11
		c-0.35,0.08-0.71,0.17-1.07,0.24c-0.21,0.04-0.41,0.07-0.62,0.1c-0.31,0.05-0.62,0.11-0.94,0.15c-0.35,0.05-0.71,0.07-1.06,0.11
		c-0.16,0.01-0.33,0.04-0.49,0.05c-0.52,0.03-1.03,0.05-1.55,0.05c-0.48,0-0.94-0.02-1.39-0.05c-0.16-0.01-0.32-0.03-0.47-0.05
		c-0.28-0.03-0.56-0.06-0.83-0.1c-0.19-0.03-0.38-0.06-0.56-0.1c-0.22-0.04-0.44-0.09-0.66-0.14c-0.2-0.05-0.41-0.1-0.61-0.15
		c-0.17-0.05-0.34-0.1-0.51-0.15c-0.22-0.07-0.44-0.14-0.65-0.21c-0.1-0.04-0.2-0.08-0.29-0.12c-0.9-0.35-1.73-0.77-2.49-1.25
		c-8.4-5.33-9.04-17.99-9.04-17.99c-18.28,64.24,36.06,80.49,36.06,80.49c-0.06-0.11-0.11-0.22-0.17-0.33
		c-10.3-19.1,5.25-30.15,5.25-30.15c-0.51,15.23,9.14,18.28,9.14,18.28c-0.04-0.5-0.08-0.98-0.11-1.45
		c0.01,0.01,0.02,0.03,0.03,0.04c-0.86-14.46,5.22-19.02,6.45-19.79c0,0,0,0,0,0c0.15-0.09,0.23-0.13,0.23-0.13
		c1.47,6.08,6.56,9.21,8.29,10.12c0.09,0.05,0.17,0.09,0.24,0.13c0.05,0.02,0.08,0.04,0.12,0.06c0.04,0.02,0.08,0.04,0.11,0.05
		c0.03,0.01,0.05,0.02,0.07,0.03c0.03,0.01,0.05,0.02,0.05,0.02c-5.08-22.09,15.49-41.39,33.26-41.39c0.55,0,1.08,0.02,1.6,0.06
		c0.16,0.01,0.31,0.03,0.47,0.04c0.35,0.03,0.7,0.08,1.03,0.13c0.16,0.03,0.33,0.05,0.49,0.08c0.34,0.06,0.67,0.14,0.99,0.22
		c0.12,0.03,0.24,0.06,0.36,0.09c0.41,0.12,0.79,0.25,1.17,0.39c0.14,0.06,0.28,0.12,0.42,0.18c0.23,0.1,0.45,0.2,0.67,0.31
		c0.16,0.08,0.32,0.17,0.47,0.26c0.18,0.1,0.35,0.21,0.51,0.32c0.15,0.1,0.31,0.2,0.46,0.31c0.14,0.11,0.28,0.22,0.41,0.33
		c0.29,0.24,0.57,0.5,0.82,0.77c0.08,0.08,0.16,0.16,0.24,0.25c0.16,0.18,0.3,0.36,0.44,0.55c0.06,0.08,0.12,0.16,0.18,0.25
		c0.15,0.2,0.29,0.41,0.42,0.63c0.02,0.04,0.04,0.07,0.06,0.11c0.45,0.77,0.81,1.6,1.07,2.49c0,0.01,0.01,0.02,0.01,0.04
		c0.09,0.31,0.17,0.62,0.24,0.94c0,0,0,0,0,0c1.79,8.18-3.22,20.33-11,28.58c-11.63,12.32-30.88,15.02-37.52,15.59c0,0,0,0,0,0
		c-1.1,0.1-1.86,0.13-2.18,0.15c-0.01,0-0.01,0-0.02,0c-0.04,0-0.08,0-0.11,0c-0.01,0-0.04,0-0.04,0
		c3.3,10.92,16.25,12.95,16.25,12.95c-4.32,0-15.74,5.33-20.57,5.33s-11.43-2.03-11.43-2.03c13.97,33.77,63.35,24.76,63.35,24.76
		s-15.36-6.74-15.36-17.4c0-7.36,3.56-11.68,11.43-11.68c7.87,0,18.54,5.08,24.12,5.08s10.16-3.04,10.16-3.04
		s-14.47-0.76-14.47-16.5c0-27.17,36.31-44.94,66.02-44.94c29.71,0,48.24,14.98,48.24,14.98c-0.47-0.7-0.95-1.39-1.43-2.07
		c-0.16-0.22-0.32-0.43-0.48-0.64c-0.33-0.45-0.66-0.9-0.99-1.34c-0.2-0.26-0.4-0.5-0.6-0.75c-0.3-0.39-0.61-0.77-0.92-1.15
		c-0.22-0.26-0.44-0.51-0.65-0.77c-0.3-0.35-0.59-0.71-0.9-1.05c-0.23-0.26-0.46-0.51-0.69-0.76c-0.3-0.33-0.59-0.66-0.9-0.98
		c-0.24-0.25-0.48-0.5-0.72-0.74c-0.3-0.31-0.59-0.62-0.9-0.92c-0.25-0.25-0.49-0.48-0.74-0.72c-0.3-0.29-0.6-0.59-0.9-0.87
		c-0.25-0.24-0.5-0.47-0.76-0.7c-0.3-0.28-0.6-0.55-0.91-0.82c-0.26-0.23-0.52-0.45-0.78-0.67c-0.3-0.26-0.61-0.52-0.91-0.78
		c-0.26-0.22-0.53-0.44-0.8-0.65c-0.3-0.25-0.61-0.49-0.91-0.73c-0.27-0.21-0.54-0.42-0.81-0.63c-0.31-0.23-0.61-0.47-0.92-0.7
		c-0.27-0.2-0.55-0.4-0.82-0.6c-0.31-0.22-0.61-0.44-0.92-0.66c-0.28-0.2-0.56-0.39-0.83-0.58c-0.31-0.21-0.61-0.42-0.92-0.63
		c-0.28-0.19-0.56-0.37-0.84-0.55c-0.31-0.2-0.62-0.4-0.93-0.6c-0.28-0.18-0.56-0.35-0.85-0.53c-0.31-0.19-0.62-0.38-0.93-0.57
		c-0.28-0.17-0.57-0.34-0.85-0.51c-0.31-0.18-0.62-0.36-0.93-0.54c-0.28-0.16-0.57-0.32-0.85-0.48c-0.31-0.17-0.62-0.34-0.93-0.51
		c-0.29-0.16-0.57-0.31-0.86-0.46c-0.31-0.16-0.62-0.33-0.92-0.49c-0.29-0.15-0.57-0.3-0.86-0.44c-0.31-0.16-0.61-0.31-0.92-0.46
		c-0.29-0.14-0.57-0.28-0.86-0.42c-0.31-0.15-0.61-0.3-0.92-0.44c-0.28-0.13-0.56-0.27-0.84-0.4c-0.31-0.14-0.62-0.29-0.93-0.43
		c-0.28-0.13-0.56-0.26-0.84-0.38c-0.31-0.14-0.61-0.27-0.91-0.41c-0.28-0.12-0.56-0.25-0.84-0.37c-0.3-0.13-0.6-0.26-0.9-0.39
		c-0.28-0.12-0.55-0.24-0.83-0.35c-0.3-0.13-0.61-0.25-0.91-0.38c-0.27-0.11-0.54-0.22-0.8-0.33c-0.31-0.13-0.61-0.25-0.92-0.37
		c-0.26-0.1-0.51-0.21-0.77-0.31c-0.32-0.13-0.63-0.25-0.95-0.37c-0.24-0.09-0.48-0.19-0.72-0.28c-0.33-0.13-0.65-0.25-0.97-0.37
		c-0.23-0.09-0.45-0.17-0.67-0.26c-0.35-0.13-0.7-0.26-1.05-0.39c-0.19-0.07-0.37-0.14-0.56-0.21c-0.46-0.17-0.92-0.34-1.37-0.51
		c-0.06-0.02-0.12-0.04-0.18-0.07c-1.08-0.4-2.13-0.79-3.16-1.17c-0.49-0.18-0.97-0.36-1.44-0.53c-0.51-0.19-0.99-0.39-1.46-0.59
		c-0.16-0.07-0.3-0.14-0.45-0.21c-0.3-0.14-0.61-0.27-0.89-0.41c-0.17-0.08-0.33-0.17-0.5-0.26c-0.25-0.13-0.5-0.26-0.73-0.39
		c-0.17-0.1-0.32-0.19-0.49-0.29c-0.21-0.13-0.43-0.26-0.63-0.39c-0.16-0.1-0.3-0.21-0.46-0.31c-0.19-0.13-0.38-0.26-0.56-0.39
		c-0.15-0.11-0.28-0.22-0.42-0.33c-0.17-0.13-0.33-0.27-0.49-0.4c-0.13-0.11-0.25-0.23-0.38-0.35c-0.15-0.14-0.29-0.27-0.43-0.41
		c-0.12-0.12-0.23-0.24-0.34-0.36c-0.13-0.14-0.25-0.28-0.37-0.42c-0.1-0.12-0.2-0.25-0.3-0.37c-0.11-0.14-0.21-0.28-0.31-0.42
		c-0.09-0.13-0.17-0.25-0.25-0.38c-0.09-0.14-0.17-0.29-0.26-0.43c-0.07-0.13-0.15-0.26-0.21-0.39c-0.07-0.14-0.14-0.29-0.21-0.43
		c-0.06-0.13-0.12-0.27-0.17-0.41c-0.06-0.14-0.11-0.29-0.16-0.44c-0.05-0.14-0.09-0.28-0.14-0.42c-0.04-0.14-0.08-0.29-0.11-0.43
		c-0.03-0.14-0.07-0.29-0.1-0.43c-0.03-0.14-0.04-0.28-0.07-0.43c-0.02-0.15-0.05-0.3-0.06-0.45c-0.01-0.14-0.02-0.27-0.02-0.41
		c-0.01-0.16-0.02-0.32-0.02-0.48c0-0.12,0.01-0.24,0.01-0.36c0.01-0.18,0.01-0.35,0.02-0.53c0.01-0.07,0.02-0.14,0.02-0.22
		c0.08-0.77,0.23-1.54,0.46-2.31c0.01-0.03,0.02-0.06,0.03-0.09c0.07-0.23,0.15-0.46,0.24-0.7c0.02-0.06,0.04-0.13,0.07-0.19
		c0.08-0.22,0.18-0.44,0.27-0.66c0.03-0.07,0.06-0.15,0.09-0.22c0.1-0.22,0.2-0.43,0.31-0.65c0.04-0.08,0.07-0.15,0.11-0.23
		c0.11-0.22,0.23-0.43,0.35-0.64c0.04-0.07,0.08-0.15,0.12-0.22c0.12-0.22,0.26-0.43,0.39-0.64c0.05-0.07,0.09-0.14,0.14-0.22
		c0.14-0.22,0.28-0.43,0.43-0.64c0.05-0.07,0.09-0.13,0.14-0.2c0.15-0.22,0.31-0.43,0.48-0.65c0.05-0.06,0.09-0.12,0.14-0.19
		c0.17-0.22,0.34-0.43,0.52-0.65c0.05-0.06,0.09-0.11,0.14-0.17c0.18-0.22,0.37-0.44,0.57-0.65c0.04-0.05,0.09-0.1,0.13-0.14
		c0.2-0.22,0.41-0.44,0.62-0.66c0.04-0.04,0.07-0.07,0.11-0.11c0.22-0.23,0.44-0.45,0.67-0.68c0.03-0.02,0.05-0.05,0.08-0.07
		c0.24-0.23,0.49-0.46,0.74-0.69c0.01,0,0.01-0.01,0.02-0.01c0.5-0.45,1.01-0.89,1.54-1.32c0.28-0.22,0.58-0.46,0.9-0.7
		c0.11-0.08,0.23-0.17,0.34-0.25c0.23-0.17,0.45-0.34,0.7-0.51c0.14-0.1,0.3-0.21,0.44-0.32c0.23-0.17,0.47-0.33,0.71-0.5
		c0.17-0.12,0.35-0.24,0.52-0.36c0.25-0.17,0.49-0.34,0.75-0.51c0.19-0.13,0.38-0.25,0.57-0.38c0.27-0.18,0.53-0.35,0.81-0.54
		c0.2-0.13,0.41-0.27,0.61-0.4c0.28-0.18,0.57-0.37,0.86-0.56c0.22-0.14,0.44-0.28,0.66-0.42c0.29-0.19,0.59-0.37,0.89-0.57
		c0.23-0.15,0.47-0.3,0.7-0.44c0.31-0.19,0.62-0.39,0.93-0.59c0.23-0.14,0.46-0.29,0.7-0.44c0.33-0.21,0.67-0.41,1.01-0.62
		c0.23-0.14,0.46-0.28,0.69-0.42c0.35-0.21,0.7-0.43,1.06-0.65c0.23-0.14,0.47-0.28,0.7-0.43c0.37-0.22,0.74-0.44,1.11-0.67
		c0.23-0.14,0.45-0.27,0.68-0.41c0.39-0.23,0.78-0.47,1.17-0.7c0.22-0.13,0.43-0.26,0.65-0.39c0.4-0.24,0.8-0.48,1.2-0.72
		c0.21-0.13,0.43-0.25,0.64-0.38c0.42-0.25,0.85-0.5,1.27-0.75c0.19-0.11,0.37-0.22,0.56-0.33c0.5-0.29,1-0.59,1.5-0.88
		c0.11-0.06,0.22-0.13,0.33-0.19c1.24-0.72,2.46-1.43,3.66-2.13c0.07-0.04,0.13-0.08,0.2-0.12c0.52-0.3,1.04-0.6,1.55-0.89
		c0.18-0.1,0.35-0.2,0.53-0.3c0.4-0.23,0.79-0.45,1.18-0.68c0.21-0.12,0.42-0.24,0.63-0.36c0.34-0.2,0.69-0.39,1.02-0.58
		c0.22-0.12,0.43-0.25,0.65-0.37c0.32-0.18,0.65-0.37,0.96-0.55c0.2-0.11,0.4-0.22,0.59-0.34c0.3-0.17,0.6-0.34,0.9-0.51
		c0.23-0.13,0.45-0.25,0.67-0.38c0.25-0.14,0.5-0.28,0.75-0.42c0.2-0.12,0.4-0.23,0.6-0.34c0.25-0.14,0.5-0.28,0.73-0.41
		c0.2-0.11,0.39-0.22,0.58-0.33c0.22-0.12,0.43-0.24,0.64-0.36c0.16-0.09,0.33-0.18,0.48-0.27c0.23-0.13,0.45-0.25,0.67-0.37
		c0.13-0.07,0.27-0.15,0.39-0.22c0.19-0.1,0.36-0.2,0.54-0.3c0.13-0.07,0.25-0.14,0.37-0.21c0.2-0.11,0.38-0.21,0.55-0.31
		c0.06-0.04,0.14-0.08,0.2-0.11c0.2-0.11,0.38-0.21,0.54-0.3c0.02-0.01,0.05-0.03,0.08-0.04c0.55-0.31,0.86-0.47,0.86-0.47
		c-24.12,0.25-44.81,12.95-60.69,12.95c-8.16,0-13.53-1.08-15.33-7.36c0,0,0,0,0,0c-0.08-0.26-0.14-0.55-0.2-0.83
		c-0.04-0.2-0.09-0.39-0.13-0.6c-0.05-0.25-0.09-0.52-0.12-0.79c-0.04-0.29-0.07-0.6-0.1-0.91c-0.02-0.22-0.04-0.44-0.06-0.67
		c-0.04-0.57-0.06-1.16-0.06-1.79c0-0.82,0.03-1.62,0.08-2.42c0.01-0.16,0.02-0.33,0.03-0.49c0.05-0.77,0.12-1.52,0.21-2.26
		c0.02-0.14,0.04-0.27,0.06-0.41c0.09-0.69,0.2-1.37,0.32-2.03c0.02-0.1,0.03-0.2,0.05-0.3c0.13-0.72,0.29-1.42,0.45-2.11
		c0.04-0.16,0.08-0.32,0.12-0.48c0.17-0.68,0.35-1.36,0.54-2.02c0.02-0.08,0.05-0.16,0.07-0.24c0.18-0.61,0.37-1.2,0.57-1.78
		c0.05-0.13,0.09-0.27,0.13-0.4c0.22-0.61,0.44-1.21,0.67-1.79c0.05-0.14,0.11-0.27,0.16-0.4c0.22-0.55,0.45-1.09,0.68-1.62
		c0.02-0.05,0.04-0.1,0.06-0.15c0.25-0.56,0.51-1.1,0.76-1.62c0.06-0.12,0.12-0.24,0.18-0.36c0.25-0.51,0.51-1,0.76-1.48
		c0.04-0.08,0.09-0.16,0.13-0.25c0.24-0.44,0.47-0.86,0.71-1.26c0.04-0.07,0.08-0.14,0.12-0.21c0.26-0.44,0.51-0.86,0.76-1.26
		c0.05-0.08,0.1-0.16,0.15-0.24c0.51-0.82,1.01-1.56,1.46-2.2c0.03-0.04,0.06-0.08,0.09-0.12c0.23-0.32,0.44-0.62,0.64-0.89
		c0.01-0.02,0.02-0.03,0.04-0.05c0.21-0.28,0.4-0.53,0.57-0.76c0,0,0,0,0,0c0.69-0.89,1.11-1.36,1.11-1.36
		c-15.81,1.33-22.66,22.85-33.77,22.85c-5.12,0-8.2-3.24-9.57-7.16c-0.13-0.38-0.25-0.77-0.35-1.17c-0.01-0.04-0.02-0.08-0.03-0.12
		c-0.09-0.35-0.16-0.71-0.22-1.07c-0.01-0.07-0.03-0.15-0.04-0.22c-0.05-0.33-0.09-0.66-0.12-0.99c-0.01-0.09-0.02-0.18-0.03-0.26
		c-0.03-0.4-0.05-0.8-0.05-1.2c0-1.14,0.03-2.27,0.09-3.4c0.02-0.36,0.05-0.72,0.07-1.08c0.05-0.77,0.11-1.54,0.18-2.3
		c0.04-0.41,0.08-0.81,0.13-1.22c0.08-0.72,0.17-1.44,0.27-2.15c0.06-0.4,0.11-0.79,0.18-1.19c0.12-0.76,0.25-1.51,0.4-2.26
		c0.06-0.33,0.12-0.66,0.18-0.99c0.21-1.06,0.44-2.11,0.7-3.14c0-0.01,0-0.02,0.01-0.02c0.26-1.07,0.54-2.12,0.84-3.16
		c0.08-0.28,0.17-0.55,0.25-0.83c0.22-0.76,0.46-1.51,0.7-2.26c0.11-0.33,0.22-0.66,0.33-0.99c0.24-0.7,0.48-1.39,0.73-2.07
		c0.12-0.32,0.23-0.64,0.35-0.96c0.27-0.73,0.56-1.45,0.85-2.16c0.1-0.25,0.2-0.5,0.3-0.75c0.81-1.94,1.66-3.83,2.55-5.66
		c0.09-0.18,0.18-0.35,0.26-0.53c0.36-0.73,0.73-1.45,1.1-2.16c0.13-0.25,0.26-0.49,0.39-0.73c0.34-0.64,0.69-1.28,1.03-1.9
		c0.13-0.24,0.27-0.48,0.4-0.72c0.37-0.65,0.74-1.29,1.11-1.92c0.11-0.19,0.22-0.38,0.33-0.56c0.98-1.65,1.98-3.23,2.98-4.74
		c0.08-0.11,0.15-0.22,0.23-0.34c0.42-0.62,0.83-1.24,1.25-1.84c0.13-0.19,0.27-0.38,0.4-0.57c0.36-0.52,0.72-1.03,1.08-1.52
		c0.14-0.2,0.28-0.39,0.42-0.58c0.36-0.49,0.72-0.98,1.07-1.45c0.12-0.17,0.25-0.34,0.37-0.5c0.43-0.57,0.85-1.12,1.27-1.65
		c0.04-0.05,0.08-0.11,0.13-0.16c0.46-0.59,0.92-1.16,1.37-1.71c0.12-0.14,0.23-0.28,0.34-0.42c0.32-0.39,0.63-0.77,0.94-1.14
		c0.17-0.2,0.33-0.39,0.49-0.58c0.25-0.29,0.49-0.58,0.73-0.86c0.17-0.2,0.35-0.4,0.52-0.6c0.21-0.24,0.42-0.48,0.62-0.71
		c0.18-0.2,0.35-0.4,0.52-0.59c0.17-0.18,0.32-0.36,0.48-0.53c0.8-0.88,1.52-1.65,2.14-2.3c1.52-1.58,2.44-2.43,2.44-2.43
		C334.31,202.82,313.52,256.26,310.8,263.64z M318.74,302.58c-4.06,4.57-28.44,13.97-30.47,13.97l36.57-32.25
		C324.84,284.3,322.81,298.01,318.74,302.58z"/>
	<polygon fill="#005BAB" points="445.36,90.64 440.32,103.08 449.49,103.38 	"/>
	<polygon fill="#005BAB" points="536.47,95.75 530.88,107.96 540.04,108.66 	"/>
	<path fill="#005BAB" d="M667.76,78.11C667.76,78.11,516.3,50,400,50c-116.3,0-267.76,28.11-267.76,28.11s-27.3,101.82-27.3,231.33
		c0,81.6,7.18,158.96,41.64,222.44C201.94,633.83,292.59,714.96,400,750c107.41-35.04,198.06-116.17,253.42-218.12
		c34.47-63.48,41.64-140.84,41.64-222.44C695.06,179.94,667.76,78.11,667.76,78.11z M530.96,86.33c0.59-1.3,1.49-2.31,2.71-3.03
		c1.22-0.72,2.48-1.03,3.77-0.93c1.32,0.1,2.52,0.6,3.62,1.5c1.09,0.9,1.83,2.04,2.22,3.41l10.99,39.18l-9.43-0.73l-2.66-9.6
		l-14.57-1.12l-4.13,9.07l-9.49-0.73L530.96,86.33z M495.71,107.17c-0.2-0.13-0.46-0.27-0.8-0.41l-0.3-0.14l-0.72-0.29l-0.18-0.1
		l-0.12-0.01l-0.18-0.1l-0.15-0.01c-0.12-0.07-0.27-0.13-0.45-0.18c-0.2-0.09-0.47-0.18-0.81-0.26l-0.09-0.07l-0.36-0.11l-0.12-0.01
		l-1.08-0.37c-0.16-0.05-0.27-0.08-0.33-0.08c-0.24-0.12-0.54-0.21-0.9-0.3l-0.36-0.11c-0.14-0.07-0.33-0.12-0.57-0.15
		c-0.04-0.04-0.1-0.07-0.18-0.07c-0.16-0.07-0.34-0.12-0.54-0.15l-0.36-0.17l-0.12-0.01c-0.12-0.07-0.29-0.12-0.51-0.15l-0.18-0.1
		l-0.21-0.07l-0.18-0.07l-0.87-0.32l-0.21-0.04l-0.6-0.28l-0.36-0.14c-0.2-0.05-0.44-0.16-0.72-0.32l-0.36-0.17l-0.92-0.51
		c-0.18-0.07-0.37-0.19-0.56-0.37l-0.15-0.04l-0.35-0.26l-0.35-0.26l-0.18-0.13l-0.26-0.2l-0.09-0.1l-0.26-0.2
		c-0.12-0.13-0.29-0.3-0.52-0.52l-1.23-1.44l-0.17-0.28l-0.14-0.19c-0.17-0.23-0.34-0.53-0.5-0.88l-0.08-0.19l-0.11-0.25l-0.25-0.5
		c-1.32-3.64-0.87-7.26,1.35-10.86c2.8-3.83,6.94-5.73,12.39-5.71l1.55,0.09c0.24,0.08,0.51,0.11,0.82,0.11l14.04,0.8
		c0.05,0.21,0.05,0.44-0.01,0.7l-0.5,8.8l-0.04,0.12l-15.68-0.84c-0.53-0.01-0.99,0-1.38,0.04l-0.34,0.04l-0.49,0.06
		c-0.02,0.02-0.08,0.03-0.18,0.02c-0.81,0.18-1.51,0.63-2.12,1.35c-0.28,0.53-0.28,1.1-0.01,1.71c0.11,0.15,0.29,0.3,0.52,0.46
		l0.45,0.21l0.3,0.14l0.68,0.31l0.18,0.07l2.55,0.88l0.18,0.07l0.18,0.04l0.45,0.12c0.02,0.04,0.07,0.07,0.15,0.08
		c0.08,0.01,0.15,0.02,0.21,0.03c0.18,0.07,0.43,0.15,0.75,0.23l0.18,0.07l0.18,0.04l0.69,0.22c0.2,0.05,0.45,0.14,0.75,0.26
		l0.12,0.04l0.51,0.12l0.18,0.07c0.36,0.1,0.66,0.21,0.9,0.33l0.21,0.04c0.04,0.04,0.1,0.07,0.18,0.07l0.33,0.11l0.36,0.14
		l1.61,0.67l0.18,0.04l0.98,0.48c0.23,0.18,0.55,0.37,0.94,0.57l0.09,0.1l0.5,0.3l0.38,0.24l0.52,0.46l0.18,0.1
		c0.15,0.17,0.36,0.36,0.61,0.55l0.23,0.26l0.18,0.13l0.78,0.87c0.13,0.17,0.24,0.34,0.34,0.51c0.06,0.08,0.15,0.21,0.28,0.38
		c0.09,0.19,0.22,0.4,0.39,0.63l0.02,0.12c0.15,0.19,0.26,0.41,0.33,0.66l0.08,0.13l0.13,0.37c0.07,0.21,0.15,0.4,0.24,0.56
		l0.25,0.9l-0.01,0.12c0.92,4.15-0.12,8.01-3.14,11.58l-1.77,1.58l-0.25,0.14l-0.1,0.09l-1.33,0.81c-0.13,0.07-0.4,0.21-0.82,0.41
		c-0.1,0.01-0.23,0.07-0.37,0.16l-2.43,0.78l-0.34,0.07c-0.02,0.04-0.09,0.06-0.19,0.05l-0.5,0.12l-0.18,0.02l-0.28,0.08l-0.18-0.01
		l-0.19,0.05l-0.18,0.02l-0.37,0.04l-0.18,0.02l-0.37,0.04l-0.18,0.02c-0.24-0.01-0.52,0-0.83,0.04l-0.49-0.03l-0.16,0.05
		l-15.5-0.86l-0.49-0.06l0.55-9.59l17.39,0.99c1.73-0.25,2.78-1.11,3.17-2.6C497.15,108.76,496.78,107.87,495.71,107.17z
		 M439.44,81.47c0.53-1.33,1.39-2.38,2.57-3.15c1.19-0.77,2.43-1.14,3.73-1.1c1.32,0.04,2.55,0.49,3.68,1.34
		c1.13,0.85,1.92,1.96,2.36,3.31l12.72,38.65l-9.45-0.31l-3.08-9.47l-14.6-0.48l-3.72,9.25l-9.51-0.31L439.44,81.47z M392.15,76.85
		l0.06,23.06c0.01,3.66,0.12,6.04,0.32,7.14c0.39,1.73,1.28,3.12,2.68,4.17c1.39,1.05,2.88,1.58,4.44,1.58c1.24,0,2.48-0.5,3.73-1.5
		c1.25-1,2-2.23,2.25-3.68c0.25-1.45,0.37-3.86,0.36-7.21l-0.06-23.58l10.46-0.03l0.05,22.39c0.01,5.1-0.21,8.71-0.68,10.83
		c-0.46,2.12-1.32,3.9-2.56,5.34c-1.25,1.45-2.92,2.61-5.02,3.47c-2.1,0.87-4.85,1.31-8.25,1.32c-4.09,0.01-7.19-0.45-9.31-1.38
		c-2.12-0.93-3.79-2.15-5.03-3.65c-1.23-1.5-2.05-3.08-2.44-4.72c-0.58-2.44-0.87-6.04-0.88-10.79l-0.06-22.72L392.15,76.85z
		 M347.35,77.81l0.54,16.89l15.06-0.48l-0.54-16.89l9.39-0.3l1.35,42.4l-9.39,0.3l-0.56-17.59l-15.06,0.48l0.56,17.59l-9.39,0.3
		l-1.35-42.4L347.35,77.81z M290.86,81.61l1.55-0.59l0.45-0.15l0.18-0.01l0.69-0.26c0.26-0.02,0.56-0.09,0.9-0.21
		c0.17,0.05,0.38,0.02,0.64-0.1l12.42-0.79l0.65,10.2l-10.78,0.69l-0.7,0.11c-0.38,0.07-0.66,0.1-0.82,0.11
		c-0.22,0.12-0.49,0.2-0.81,0.27l-0.95,0.4l-0.44,0.3c-0.12,0.05-0.28,0.15-0.47,0.3c-0.14,0.05-0.31,0.15-0.5,0.31l-2.15,2.25
		l-0.08,0.13c-2.6,4.04-2.73,8.42-0.42,13.14c2.61,4.28,6.51,5.95,11.69,5.03l7.73-0.49l0.13,0.05l0.64,10.05l-9.68,0.62
		c-5.52,0.64-10.55-1.22-15.09-5.58c-4.17-4.4-6.29-10.08-6.34-17.05C279.7,91.79,283.55,85.56,290.86,81.61z M255.22,83.06
		l15.87-1.25l0.57,7.24l-16.39,1.29l0.81,10.34l13.23-1.04l0.57,7.27l-13.23,1.04l0.81,10.34l0.34,3.95l0.16,2.04l0.04,1.25
		l-9.33,0.77l-2.8-35.58C245.87,85.94,248.99,83.39,255.22,83.06z M142.56,451.89h74.65v141.48l-0.01,0.02
		c-18.45-22.48-34.99-46.98-49.19-73.14C156.46,498.98,148.31,475.86,142.56,451.89z M436.44,709.26v-64.89
		c-10.35,7.2-22.91,11.43-36.44,11.43c-13.53,0-26.09-4.23-36.44-11.43v64.89l0,0.01c-25.71-12.18-50.36-27.35-73.48-45.11l0,0
		V503.57h73.48v35.68c10.35-7.2,22.9-11.43,36.44-11.43c13.53,0,26.09,4.23,36.44,11.43v-35.68h73.48v160.59h0
		c-23.12,17.76-47.77,32.93-73.49,45.11L436.44,709.26z M483.41,286.27c0,0,29.33,18.09,29.33,67.86
		c0,66.78-67.34,123.04-80.72,133.56H409.3c15.52-10.94,96.34-70.81,96.34-132.04C505.63,302.58,483.41,286.27,483.41,286.27z
		 M632,520.25c-14.21,26.16-30.74,50.66-49.19,73.14l-0.01-0.02V451.89h74.65C651.69,475.86,643.54,498.98,632,520.25z
		 M578.25,437.42L548.8,487.7h-69.49c0.26-0.76,0.59-1.75,1.01-2.94c0.01-0.03,0.02-0.06,0.03-0.09c0.08-0.24,0.17-0.5,0.26-0.76
		c0.03-0.07,0.05-0.14,0.08-0.22c0.1-0.28,0.2-0.58,0.31-0.88c0.01-0.04,0.03-0.08,0.04-0.12c0.12-0.33,0.24-0.67,0.36-1.02
		c0.01-0.02,0.02-0.05,0.03-0.07c0.13-0.37,0.27-0.75,0.41-1.14c0.06-0.16,0.12-0.33,0.18-0.49c0.08-0.23,0.16-0.45,0.25-0.68
		c0.08-0.22,0.16-0.44,0.24-0.66c0.07-0.2,0.14-0.39,0.22-0.59c0.07-0.19,0.14-0.4,0.22-0.59c0.09-0.25,0.18-0.49,0.27-0.74
		c0.07-0.2,0.15-0.4,0.22-0.61c0.09-0.24,0.18-0.48,0.27-0.73c0.08-0.23,0.17-0.46,0.26-0.7c0.09-0.24,0.18-0.48,0.27-0.73
		c0.09-0.23,0.18-0.47,0.27-0.71c0.09-0.24,0.18-0.49,0.28-0.73c0.09-0.25,0.19-0.51,0.29-0.76c0.09-0.25,0.19-0.5,0.28-0.75
		c0.1-0.26,0.2-0.51,0.29-0.77c0.1-0.26,0.2-0.53,0.31-0.8c0.09-0.25,0.19-0.49,0.29-0.74c0.11-0.29,0.22-0.57,0.33-0.86
		c0.1-0.25,0.19-0.5,0.29-0.75c0.11-0.28,0.22-0.57,0.34-0.86c0.1-0.26,0.21-0.53,0.31-0.79c0.11-0.29,0.23-0.58,0.35-0.87
		c0.11-0.27,0.21-0.53,0.32-0.8c0.12-0.3,0.24-0.6,0.36-0.91c0.1-0.26,0.21-0.51,0.31-0.77c0.13-0.33,0.27-0.67,0.41-1.01
		c0.1-0.24,0.19-0.47,0.29-0.71c0.14-0.35,0.29-0.7,0.43-1.06c0.1-0.23,0.19-0.47,0.29-0.7c0.15-0.35,0.3-0.71,0.44-1.07
		c0.1-0.24,0.2-0.47,0.3-0.71c0.17-0.4,0.33-0.79,0.5-1.19c0.08-0.19,0.16-0.39,0.25-0.58c0.21-0.49,0.42-0.99,0.63-1.49
		c0.04-0.1,0.09-0.21,0.13-0.31c0.52-1.22,1.06-2.45,1.6-3.68c0.05-0.11,0.09-0.21,0.14-0.32c0.23-0.51,0.45-1.02,0.68-1.53
		c0.07-0.15,0.13-0.3,0.2-0.44c0.21-0.47,0.42-0.93,0.63-1.4c0.08-0.18,0.16-0.36,0.25-0.53c0.2-0.43,0.4-0.87,0.6-1.3
		c0.09-0.2,0.19-0.41,0.28-0.61c0.19-0.41,0.38-0.82,0.57-1.22c0.1-0.22,0.21-0.43,0.31-0.65c0.19-0.39,0.37-0.79,0.56-1.18
		c0.11-0.22,0.22-0.45,0.32-0.67c0.19-0.38,0.37-0.77,0.56-1.15c0.11-0.23,0.23-0.46,0.34-0.7c0.18-0.37,0.37-0.74,0.55-1.11
		c0.12-0.23,0.23-0.47,0.35-0.7c0.19-0.37,0.37-0.74,0.56-1.11c0.12-0.23,0.23-0.46,0.35-0.68c0.19-0.37,0.38-0.74,0.57-1.1
		c0.12-0.23,0.23-0.45,0.35-0.67c0.19-0.36,0.38-0.73,0.58-1.09c0.12-0.22,0.24-0.45,0.36-0.67c0.19-0.36,0.39-0.72,0.58-1.07
		c0.12-0.22,0.24-0.44,0.36-0.65c0.2-0.36,0.4-0.72,0.59-1.07c0.12-0.21,0.23-0.42,0.35-0.63c0.2-0.36,0.4-0.71,0.61-1.07
		c0.12-0.2,0.23-0.41,0.35-0.61c0.21-0.36,0.42-0.71,0.62-1.07c0.11-0.19,0.23-0.38,0.34-0.57c0.22-0.37,0.44-0.73,0.66-1.09
		c0.1-0.17,0.21-0.34,0.31-0.51c0.24-0.39,0.48-0.78,0.73-1.17c0.08-0.13,0.16-0.27,0.25-0.4c0.28-0.44,0.56-0.88,0.84-1.31
		c0.05-0.07,0.09-0.14,0.14-0.21c0.66-1.01,1.33-2,2-2.95c0.04-0.05,0.07-0.1,0.11-0.16c0.29-0.41,0.58-0.82,0.88-1.22
		c0.09-0.13,0.19-0.25,0.28-0.37c0.24-0.32,0.47-0.64,0.71-0.95c0.12-0.15,0.23-0.3,0.35-0.44c0.22-0.28,0.43-0.56,0.65-0.83
		c0.13-0.16,0.25-0.31,0.38-0.46c0.21-0.25,0.41-0.5,0.62-0.75c0.13-0.16,0.27-0.31,0.4-0.47c0.2-0.23,0.4-0.46,0.6-0.69
		c0.14-0.15,0.28-0.3,0.42-0.46c0.2-0.21,0.39-0.42,0.59-0.63c0.14-0.15,0.28-0.3,0.43-0.44c0.19-0.2,0.38-0.39,0.58-0.58
		c0.14-0.14,0.29-0.28,0.43-0.42c0.19-0.18,0.38-0.36,0.57-0.53c0.15-0.13,0.29-0.26,0.44-0.39c0.19-0.17,0.38-0.33,0.56-0.48
		c0.15-0.12,0.3-0.25,0.44-0.37c0.19-0.15,0.37-0.3,0.56-0.44c0.15-0.11,0.3-0.23,0.45-0.33c0.18-0.13,0.37-0.26,0.55-0.39
		c0.15-0.1,0.3-0.2,0.45-0.3c0.18-0.12,0.37-0.23,0.55-0.34c0.15-0.09,0.3-0.18,0.44-0.26c0.18-0.1,0.37-0.2,0.55-0.3
		c0.15-0.08,0.29-0.15,0.44-0.22c0.19-0.09,0.37-0.17,0.56-0.25c0.14-0.06,0.29-0.13,0.43-0.18c0.19-0.07,0.38-0.14,0.57-0.2
		c0.14-0.05,0.28-0.1,0.41-0.14c0.2-0.06,0.4-0.11,0.59-0.15c0.13-0.03,0.26-0.07,0.39-0.09c0.22-0.04,0.44-0.07,0.65-0.1
		c0.11-0.01,0.22-0.04,0.32-0.05c0.32-0.03,0.65-0.05,0.97-0.05c21.84,0,23.11,35.04,23.11,35.04s6.35-10.41,6.35-28.69
		c0-45.71-38.97-78.45-46.77-93.85c0.01,0.01,0.02,0.03,0.03,0.04c-0.65-1.27-1.09-2.43-1.28-3.47c-0.01-0.04-0.01-0.08-0.02-0.12
		c-0.05-0.32-0.09-0.64-0.09-0.94c0-5.14,1.65-9.71,12.76-9.71c0.55,0,1.12,0.03,1.7,0.07c0.18,0.01,0.37,0.04,0.56,0.06
		c0.41,0.04,0.82,0.09,1.24,0.15c0.22,0.03,0.44,0.07,0.66,0.1c0.41,0.07,0.84,0.14,1.26,0.23c0.22,0.04,0.43,0.08,0.65,0.13
		c0.5,0.11,1,0.23,1.51,0.36c0.15,0.04,0.3,0.07,0.45,0.11c0.67,0.18,1.35,0.37,2.04,0.58c0.13,0.04,0.26,0.08,0.39,0.12
		c0.56,0.18,1.13,0.36,1.7,0.56c0.22,0.07,0.44,0.15,0.66,0.23c0.5,0.18,1,0.36,1.5,0.55c0.23,0.09,0.46,0.17,0.69,0.26
		c0.53,0.2,1.07,0.42,1.6,0.63c0.19,0.08,0.38,0.15,0.58,0.23c1.48,0.61,2.97,1.27,4.46,1.96c0.16,0.08,0.32,0.15,0.49,0.23
		c0.59,0.27,1.17,0.55,1.76,0.84c0.21,0.1,0.43,0.21,0.64,0.31c0.55,0.27,1.11,0.55,1.66,0.83c0.2,0.1,0.4,0.2,0.6,0.3
		c0.63,0.32,1.26,0.64,1.88,0.97c0.11,0.06,0.22,0.11,0.33,0.17c0.76,0.4,1.52,0.81,2.27,1.22c0.02,0.01,0.04,0.02,0.06,0.03
		c0.7,0.38,1.4,0.77,2.1,1.16c0.18,0.1,0.35,0.2,0.53,0.3c0.54,0.31,1.08,0.61,1.62,0.92c0.2,0.11,0.39,0.23,0.59,0.34
		c0.53,0.31,1.06,0.62,1.59,0.92c0.16,0.1,0.33,0.19,0.49,0.29c0.67,0.39,1.33,0.79,1.97,1.17c0.01,0,0.02,0.01,0.02,0.01
		c0.67,0.4,1.33,0.81,1.98,1.2c0.14,0.08,0.27,0.17,0.41,0.25c0.49,0.3,0.97,0.6,1.44,0.89c0.2,0.12,0.39,0.24,0.58,0.36
		c0.41,0.26,0.81,0.51,1.21,0.76c0.19,0.12,0.38,0.24,0.56,0.36c0.41,0.26,0.81,0.52,1.21,0.77c0.15,0.09,0.3,0.19,0.44,0.28
		c0.52,0.33,1.02,0.66,1.51,0.98c0.13,0.09,0.26,0.17,0.39,0.26c0.35,0.23,0.69,0.45,1.01,0.67c0.2,0.13,0.39,0.26,0.58,0.39
		c0.24,0.16,0.48,0.32,0.7,0.47c0.2,0.13,0.4,0.27,0.59,0.39c0.19,0.13,0.38,0.25,0.56,0.38c0.19,0.13,0.38,0.26,0.56,0.38
		c2.2,1.49,3.48,2.42,3.48,2.42c-9.9-27.42-35.55-44.94-46.72-51.55c-7.67-4.53-24.67-8.14-34.58-13.28
		c-0.07-0.04-0.13-0.07-0.2-0.11c-0.33-0.17-0.65-0.35-0.96-0.52c-0.11-0.06-0.21-0.12-0.31-0.18c-0.34-0.2-0.68-0.4-1-0.61
		c-0.08-0.05-0.16-0.11-0.24-0.16c-0.28-0.18-0.55-0.37-0.8-0.55c-0.06-0.05-0.13-0.09-0.19-0.14c-0.29-0.22-0.57-0.44-0.83-0.66
		c-0.07-0.06-0.14-0.12-0.21-0.18c-0.26-0.23-0.51-0.46-0.74-0.7c-0.02-0.02-0.03-0.04-0.05-0.05c-0.22-0.23-0.41-0.46-0.6-0.69
		c-0.05-0.06-0.09-0.11-0.14-0.17c-0.18-0.24-0.35-0.49-0.5-0.74c-0.03-0.05-0.05-0.09-0.08-0.14c-0.13-0.23-0.24-0.46-0.34-0.7
		c-0.02-0.04-0.04-0.09-0.06-0.13c-0.1-0.26-0.17-0.53-0.23-0.8c-0.01-0.06-0.02-0.12-0.03-0.18c-0.05-0.28-0.08-0.56-0.08-0.85
		c0-22.28,55.04-25.33,55.04-25.33s-0.17-0.07-0.49-0.18c0,0,0,0,0,0c-3.15-1.16-21.34-7.43-45.03-7.43c-28.57,0-41.71,12-58.28,12
		s-22.66-8.32-22.66-22.28c0-4.62,0.54-8.81,1.43-12.57c0.06-0.27,0.13-0.54,0.2-0.81c0.08-0.3,0.15-0.6,0.23-0.89
		c0.08-0.28,0.16-0.56,0.24-0.84c0.08-0.27,0.16-0.54,0.24-0.8c0.09-0.28,0.17-0.55,0.26-0.83c0.08-0.25,0.17-0.5,0.25-0.75
		c0.09-0.27,0.18-0.54,0.28-0.8c0.09-0.25,0.19-0.49,0.28-0.74c0.18-0.47,0.36-0.94,0.55-1.39c0.09-0.21,0.18-0.43,0.27-0.64
		c0.11-0.26,0.23-0.51,0.34-0.77c0.09-0.2,0.18-0.4,0.27-0.6c0.12-0.25,0.23-0.5,0.35-0.74c0.09-0.19,0.19-0.38,0.28-0.56
		c0.12-0.24,0.24-0.48,0.36-0.71c0.09-0.17,0.18-0.34,0.28-0.52c0.27-0.5,0.54-0.99,0.82-1.46c0.05-0.09,0.1-0.18,0.15-0.27
		c0.13-0.22,0.27-0.44,0.4-0.66c0.09-0.15,0.18-0.3,0.27-0.44c0.13-0.21,0.26-0.41,0.39-0.61c0.09-0.14,0.19-0.29,0.28-0.42
		c0.13-0.19,0.26-0.39,0.39-0.57c0.09-0.13,0.18-0.26,0.27-0.4c0.13-0.19,0.26-0.37,0.39-0.55c0.06-0.08,0.12-0.16,0.18-0.24
		c0.27-0.37,0.54-0.72,0.8-1.06c0.08-0.1,0.16-0.21,0.24-0.31c0.12-0.16,0.25-0.31,0.37-0.46c0.09-0.11,0.17-0.21,0.26-0.31
		c0.12-0.14,0.23-0.28,0.35-0.41c0.09-0.1,0.17-0.2,0.26-0.3c0.11-0.13,0.22-0.25,0.32-0.37c0.08-0.1,0.17-0.19,0.25-0.28
		c0.19-0.21,0.38-0.41,0.56-0.61c0.08-0.08,0.15-0.16,0.22-0.24c0.09-0.1,0.18-0.19,0.27-0.28c0.08-0.08,0.15-0.16,0.23-0.23
		c0.08-0.08,0.16-0.16,0.24-0.24c0.07-0.07,0.14-0.14,0.21-0.21c0.07-0.07,0.15-0.14,0.21-0.21c0.07-0.07,0.14-0.13,0.21-0.19
		c0.06-0.05,0.11-0.11,0.16-0.16c0.11-0.1,0.21-0.2,0.31-0.28c0.04-0.04,0.08-0.07,0.12-0.1c0.05-0.05,0.11-0.1,0.15-0.14
		c0.04-0.03,0.07-0.06,0.11-0.09c0.04-0.03,0.07-0.06,0.1-0.09c0.02-0.02,0.05-0.04,0.07-0.06c0.03-0.03,0.06-0.05,0.08-0.06
		c0.01-0.01,0.02-0.02,0.03-0.03c0.02-0.02,0.04-0.03,0.04-0.03c-0.51,0.1-1.01,0.21-1.52,0.32c0,0,0,0,0,0
		c-49.34,10.68-77.9,73-77.9,73c28-24.19,48.94-28,48.94-28s-23.11,26.28-23.11,40.25c0,7.11,7.3,13.46,14.47,13.46
		c7.44,0,30.57-6.71,52.25-8.76c18.25-1.73,36.12,1.14,36.12,1.14s-72.88,25.9-72.88,45.45c0,12.95,27.17,14.22,45.71,38.34
		c13.93,18.13,8.76,29.14,8.76,29.14s-17.14-22.09-47.61-22.09s-43.99,12.76-43.99,12.76c21.71-8.95,54.4-7.87,54.4,10.41
		c0,35.44-115.59,96.97-137.21,108.17H251.2l-29.45-50.28h-82.36c-8.45-42.53-10.07-87.02-10.07-127.98
		c0-55.74,5.26-106.46,11.08-145.6c49.2-7.72,166.03-25.44,259.6-25.44c93.51,0,210.42,17.73,259.62,25.44
		c5.82,39.08,11.06,89.76,11.06,145.59c0,40.96-1.62,85.45-10.07,127.98H578.25z"/>
	<path fill="#005BAB" d="M415.67,621.45c2.85-1.81,5.5-3.49,7.97-4.92c1.29-8.97-0.16-15.52-4.33-19.47
		c-6.23-5.9-16.79-4.28-18.12-4.04c-1.16,3.31-6.41,15.67-19.87,15.67c-6.65,0-11.44-2.71-14.11-4.76c0,0.19,0.02,0.38,0.02,0.57
		c0,8.82-5.85,14.98-14.22,14.98c-2.8,0-5.07-0.55-6.9-1.31c3.03,6.16,7.08,11.73,11.93,16.48c2.59,1.17,8.75,3.56,15.86,3.56
		C389.24,638.21,403.9,628.92,415.67,621.45z"/>
	<path fill="#005BAB" d="M415.99,562.87c-2.45-1.01-5.15-2.23-7.71-3.69c-1.2,0.66-13.8,7.78-13.8,17.52
		c0,9.16,4.91,12.9,6.04,13.64l-0.06-0.27c0.53-0.11,13.16-2.58,20.95,4.78c4.55,4.31,6.4,10.99,5.53,19.88
		c3.55-1.84,6.68-2.98,9.44-2.98c8.3,0,12.22,6.98,13.72,13.03c3.72-5.63,6.51-11.92,8.16-18.65
		C454.78,579.24,417.61,563.54,415.99,562.87z"/>
	<path fill="#005BAB" d="M408.99,532.48c-0.49,0.33-8.79,6.05-8.79,12.22c0,5.61,5.55,10.63,16.96,15.35
		c13.63,5.64,35.75,19.46,42.44,38.61c0.26-2.25,0.4-4.54,0.4-6.86C460,561.78,437.82,536.83,408.99,532.48z"/>
	<path fill="#005BAB" d="M366.58,596.88c0.13,1.03,0.25,2,0.35,2.94l0.14-0.12c0.05,0.06,5.23,5.94,14.27,5.94
		c11.19,0,15.69-9.95,16.86-13.23c-2.15-1.66-6.77-6.31-6.77-15.72c0-9.82,9.93-16.89,13.92-19.34c-4.6-3.16-8.2-7.28-8.2-12.65
		c0-5.38,4.46-10.11,7.48-12.7c-1.53-0.12-3.07-0.2-4.63-0.2c-6.19,0-12.17,0.94-17.8,2.69c-1.59,1.25-16.74,14.08-16.74,47.15
		C365.47,588.03,366.08,592.94,366.58,596.88z"/>
	<path fill="#005BAB" d="M364.2,604.5c0-2.11-0.3-4.49-0.64-7.24c-0.51-4.03-1.13-9.04-1.13-15.61c0-24.11,7.63-37.86,13.01-44.56
		C354.57,546.5,340,567.48,340,591.81c0,7.57,1.42,14.82,4,21.5c1.53,1.39,4.38,3.13,9.03,3.13
		C359.71,616.44,364.2,611.64,364.2,604.5z"/>
	<path fill="#005BAB" d="M436.38,614.78c-4.48,0-11.24,4.28-19.07,9.24c-12.11,7.68-27.18,17.23-43.4,17.23
		c-3.51,0-6.76-0.53-9.55-1.22c9.97,7.39,22.3,11.77,35.64,11.77c19.4,0,36.66-9.26,47.64-23.58
		C447.11,624.28,444.94,614.78,436.38,614.78z"/>
</g>
<g>
</g>
<g>
</g>
<g>
</g>
<g>
</g>
<g>
</g>
<g>
</g>
<g>
</g>
<g>
</g>
<g>
</g>
<g>
</g>
<g>
</g>
</svg>
