<?xml version="1.0" encoding="utf-8"?>
<!-- Created by @FCLOGO 2022-06-15 23:22:55 . https://fclogo.top/ -->
<!-- FOR PERSONAL USE ONLY NOT FOR COMMERCIAL USE -->
<svg version="1.1" xmlns="http://www.w3.org/2000/svg" xmlns:xlink="http://www.w3.org/1999/xlink" x="0px" y="0px"
	 viewBox="0 0 800 800" enable-background="new 0 0 800 800" xml:space="preserve">
<g>
	
		<radialGradient id="SVGID_1_" cx="273.546" cy="136.9372" r="253.6505" gradientTransform="matrix(0.9814 -0.1919 0.4562 2.3324 -57.3825 -129.9489)" gradientUnits="userSpaceOnUse">
		<stop  offset="0" style="stop-color:#FFE900"/>
		<stop  offset="0.238" style="stop-color:#FEE000"/>
		<stop  offset="0.6259" style="stop-color:#FAC800"/>
		<stop  offset="1" style="stop-color:#F5AA00"/>
	</radialGradient>
	<path fill="url(#SVGID_1_)" d="M667.76,78.11C667.76,78.11,516.3,50,400,50c-116.3,0-267.76,28.11-267.76,28.11
		s-27.3,101.82-27.3,231.33c0,81.6,7.18,158.96,41.64,222.44C201.94,633.83,292.59,714.96,400,750
		c107.41-35.04,198.06-116.17,253.42-218.12c34.47-63.48,41.64-140.84,41.64-222.44C695.06,179.94,667.76,78.11,667.76,78.11z"/>
	<path fill="#BF1920" d="M552.86,503.57H400H247.14l-29.71-51.67h-74.87c5.75,23.96,13.9,47.09,25.45,68.35
		c52.47,96.64,136.7,170.6,231.99,204.02C495.29,690.84,579.52,616.88,632,520.25c11.55-21.26,19.7-44.39,25.45-68.35h-74.87
		L552.86,503.57z"/>
	<path fill="#004F8D" d="M400,503.57h-36.44v205.69c11.93,5.65,24.09,10.68,36.44,15.01c12.35-4.33,24.5-9.36,36.44-15.01V503.57
		H400z"/>
	<path fill="#004F8D" d="M247.14,503.57l-29.71-51.67h-0.22v141.48c21.84,26.61,46.35,50.41,72.88,70.78V503.57H247.14z"/>
	<path fill="#004F8D" d="M582.57,451.89l-29.71,51.67h-42.95v160.59c26.53-20.37,51.04-44.17,72.88-70.78V451.89H582.57z"/>
	<path fill="#005BAB" d="M251.2,487.7H400h148.8l29.45-50.28h82.36c8.45-42.53,10.07-87.02,10.07-127.98
		c0-55.84-5.24-106.51-11.06-145.59c-49.2-7.71-166.12-25.44-259.62-25.44c-93.57,0-210.4,17.72-259.6,25.44
		c-5.83,39.14-11.08,89.86-11.08,145.6c0,40.96,1.62,85.45,10.07,127.98h82.36L251.2,487.7z"/>
	<g>
		<path fill="#004F8D" d="M400,138.41c-9.65,0-19.54,0.19-29.58,0.54V487.7H400h29.58V138.94C419.54,138.6,409.64,138.41,400,138.41
			z"/>
		<path fill="#004F8D" d="M278.95,145.48V487.7h59.16V140.54C318.31,141.79,298.35,143.51,278.95,145.48z"/>
		<path fill="#004F8D" d="M187.48,156.77v280.65h34.27l24.89,42.49V149.04C225.26,151.56,205.17,154.25,187.48,156.77z"/>
		<path fill="#004F8D" d="M140.4,163.84c-5.83,39.14-11.08,89.86-11.08,145.6c0,40.96,1.62,85.45,10.07,127.98h15.78V161.55
			C149.75,162.38,144.8,163.15,140.4,163.84z"/>
		<path fill="#004F8D" d="M461.89,140.54V487.7h59.16V145.49C501.65,143.52,481.69,141.79,461.89,140.54z"/>
		<path fill="#004F8D" d="M553.36,149.04v330.87l24.89-42.49h34.27V156.77C594.83,154.25,574.74,151.56,553.36,149.04z"/>
		<path fill="#004F8D" d="M670.68,309.44c0-55.84-5.24-106.51-11.06-145.59c-4.41-0.69-9.37-1.46-14.79-2.3v275.87h15.79
			C669.06,394.89,670.68,350.4,670.68,309.44z"/>
	</g>
	<g>
		<path fill="#FFE100" d="M310.49,264.5c-5.08-34.03,6.98-56.12,6.98-56.12c-21.33,14.47-26.66,39.36-28.95,61.45
			c-2.35,22.68-17.01,33.52-17.01,33.52c2.29,25.65-15.74,43.42-32.25,43.42s-17.52-20.31-17.52-20.31
			c-18.28,64.24,36.06,80.49,36.06,80.49c-10.66-19.3,5.08-30.47,5.08-30.47c-0.51,15.23,9.14,18.28,9.14,18.28
			c-1.52-17.27,6.6-21.33,6.6-21.33c1.78,7.36,8.89,10.41,8.89,10.41c-5.08-22.09,15.49-41.39,33.26-41.39
			c19.55,0,14.22,23.87,1.52,37.33c-14.22,15.07-39.87,15.74-39.87,15.74c3.3,10.92,16.25,12.95,16.25,12.95
			c-4.32,0-15.74,5.33-20.57,5.33c-4.83,0-11.43-2.03-11.43-2.03c13.97,33.77,63.35,24.76,63.35,24.76s-15.36-6.74-15.36-17.4
			c0-7.36,3.56-11.68,11.43-11.68c7.87,0,18.54,5.08,24.12,5.08c5.59,0,10.16-3.04,10.16-3.04s-14.47-0.76-14.47-16.5
			c0-27.17,36.31-44.94,66.02-44.94c29.71,0,48.24,14.98,48.24,14.98c-15.24-22.85-38.28-30.28-54.09-36.18
			c-16.68-6.23-11.81-18.66-2.03-26.53c9.09-7.32,44.18-26.66,44.18-26.66c-24.12,0.25-44.81,12.95-60.69,12.95
			c-10.16,0-16-1.65-16-12.95c0-18.03,11.68-30.98,11.68-30.98c-15.81,1.33-22.66,22.85-33.77,22.85c-7.24,0-10.42-6.48-10.42-12.19
			c0-39.36,33.52-70.34,33.52-70.34C331.44,204.32,310.49,264.5,310.49,264.5z"/>
		<path fill="#FBC600" d="M530.27,401.87c21.84,0,23.11,35.04,23.11,35.04s6.35-10.41,6.35-28.69c0-50.79-48.12-85.57-48.12-98.33
			c0-5.14,1.65-9.71,12.76-9.71c19.04,0,57.45,27.55,57.45,27.55c-9.9-27.42-35.55-44.94-46.72-51.55
			c-11.17-6.6-42.15-11.24-42.15-21.52c0-22.28,55.04-25.33,55.04-25.33s-19.43-7.62-45.52-7.62c-28.57,0-41.71,12-58.28,12
			s-22.66-8.32-22.66-22.28c0-24.95,15.81-37.33,15.81-37.33c-50.28,9.71-79.42,73.32-79.42,73.32c28-24.19,48.94-28,48.94-28
			s-23.11,26.28-23.11,40.25c0,7.11,7.3,13.46,14.47,13.46c7.44,0,30.57-6.71,52.25-8.76c18.25-1.73,36.12,1.14,36.12,1.14
			s-72.88,25.9-72.88,45.45c0,12.95,27.17,14.22,45.71,38.34c13.93,18.13,8.76,29.14,8.76,29.14s-17.14-22.09-47.61-22.09
			c-30.47,0-43.99,12.76-43.99,12.76c21.71-8.95,54.4-7.87,54.4,10.41c0,35.44-115.59,96.97-137.21,108.17H400h9.3
			c15.52-10.94,96.34-70.81,96.34-132.04c0-53.07-22.22-69.39-22.22-69.39s29.33,18.09,29.33,67.86
			c0,66.78-67.34,123.04-80.72,133.56h47.29C483.49,475.31,509.16,401.87,530.27,401.87z"/>
		<path fill="#BF1920" d="M288.27,316.55l36.57-32.25c0,0-2.03,13.71-6.09,18.28C314.68,307.15,290.3,316.55,288.27,316.55z"/>
		<g>
			<path fill="#EFA600" d="M242.06,350.07c15.74,0,32.25-12.19,32.25-28.44c0-9.63-1.53-15.22-2.79-18.2
				c2.24,25.6-15.77,43.34-32.25,43.34c-3.48,0-6.26-0.91-8.5-2.33C232.12,346.27,235.69,350.07,242.06,350.07z"/>
			<path fill="#EFA600" d="M293.92,290.84c0,0,12.89-5.78,16.88-27.2c-0.2,0.56-0.31,0.86-0.31,0.86
				c-4.62-30.98,4.96-52.06,6.71-55.58c-5.46,7.56-16.61,25.28-16.61,43.84C300.59,277.32,296.97,289.51,293.92,290.84z"/>
			<path fill="#EFA600" d="M337.53,228.18c-11.62,28.38-6.67,39.42-14.47,48.75c0,0,10.01-5.18,16.85-18.57
				c-0.57-1.63-0.85-3.37-0.85-5.04c0-32.89,23.4-59.92,31.09-67.92C361.49,192.81,345.7,208.23,337.53,228.18z"/>
			<path fill="#EFA600" d="M361.72,271.61c-3.81,12.76-18.28,24.95-18.28,24.95s19.06-12.29,28.79-17.33
				c-0.44-1.53-0.67-3.37-0.67-5.59c0-14.6,7.65-25.86,10.57-29.62C376.63,247.68,366.29,256.31,361.72,271.61z"/>
			<path fill="#EFA600" d="M396.76,213.33c0,0,15.9-11.57,26.18-14.45c3.88-16.55,14.38-24.78,14.38-24.78
				c-0.51,0.1-1.01,0.21-1.52,0.32C426.06,179.75,407.61,192.05,396.76,213.33z"/>
			<path fill="#EFA600" d="M470.08,242.15c-12.19,8.13-35.3,11.68-35.3,11.68c24.73,0.76,47.09,4.51,65.73,9.07
				c-4.53-2.35-7.58-5.02-7.58-8.24c0-22.28,55.04-25.33,55.04-25.33s-0.17-0.07-0.49-0.18
				C522.25,226.15,480.29,235.35,470.08,242.15z"/>
			<path fill="#EFA600" d="M511.22,286.84c-15.35,0-4.83,18.07,1.76,27.57c-0.88-1.73-1.38-3.24-1.38-4.53
				c0-5.14,1.65-9.71,12.76-9.71c15.62,0,44.25,18.52,54.04,25.19C566.41,311.72,540.53,286.84,511.22,286.84z"/>
			<path fill="#EFA600" d="M534.45,381.68c-27.8,0-54.85,103.98-54.85,103.98l0.49-0.28c5.96-17.26,30.12-83.51,50.17-83.51
				c21.84,0,23.11,35.04,23.11,35.04s0.38-0.63,0.96-1.84c0.85-6.61,1.84-15.55,1.84-21.4C556.16,403.39,545.5,381.68,534.45,381.68
				z"/>
			
				<linearGradient id="SVGID_00000152986431556901166350000012811118026781834170_" gradientUnits="userSpaceOnUse" x1="369.4854" y1="487.6964" x2="369.4854" y2="361.8755">
				<stop  offset="0" style="stop-color:#F5AA00"/>
				<stop  offset="1" style="stop-color:#F9BE00"/>
			</linearGradient>
			<path fill="url(#SVGID_00000152986431556901166350000012811118026781834170_)" d="M445.2,390.7c0-17.78-14.03-28.82-31.3-28.82
				c-23.23,0-37.33,7.24-37.33,7.24c21.71-8.95,54.4-7.87,54.4,10.41c0,35.44-115.59,96.97-137.21,108.17h73.46
				C393.7,468.11,445.2,420.65,445.2,390.7z"/>
			
				<linearGradient id="SVGID_00000031171215649221244220000011612639518769100957_" gradientUnits="userSpaceOnUse" x1="266.8943" y1="355.7241" x2="460.1806" y2="355.7241">
				<stop  offset="0" style="stop-color:#F5AA00"/>
				<stop  offset="1" style="stop-color:#FFE100"/>
			</linearGradient>
			<path fill="url(#SVGID_00000031171215649221244220000011612639518769100957_)" d="M330.04,436.53c0,0-15.36-6.74-15.36-17.4
				c0-7.36,3.56-11.68,11.43-11.68c7.87,0,18.54,5.08,24.12,5.08c5.59,0,10.16-3.04,10.16-3.04s-14.47-0.76-14.47-16.5
				c0-27.17,36.31-44.94,66.02-44.94c29.71,0,48.24,14.98,48.24,14.98c-14.78-22.17-36.91-29.82-52.65-35.65
				c-34.35-4.05-50.38,8.99-50.38,8.99c10-13.42,32.44-27.38,45.37-34.73c0.5-0.45,1.01-0.9,1.55-1.33
				c8.57-6.9,40.19-24.45,43.83-26.47c-64.1,17.21-130.28,58.08-140.83,64.56c-11.17,6.86-24.38,20.82-24.38,30.98
				c0,5.82,2.25,10.89,4.17,14.15c0.41,0.22,0.65,0.32,0.65,0.32c-5.08-22.09,15.49-41.39,33.26-41.39c7.57,0,11.39,3.58,12.52,8.74
				c1.95,2.98,3.47,6.94,3.47,12.08c0,14.22-12.19,33.26-36.06,33.26c-7.42,0-12.48-0.49-15.94-1.17c-1.48,0.13-2.34,0.15-2.34,0.15
				c3.3,10.92,16.25,12.95,16.25,12.95s-10.16,7.87-17.77,7.87c-4.22,0-9.84-2.18-14.02-4.13
				C281.12,445.45,330.04,436.53,330.04,436.53z"/>
			<path fill="#EFA600" d="M402.52,301.63c-12.93,7.35-35.37,21.31-45.37,34.73c0,0,16.03-13.04,50.38-8.99
				c-0.49-0.18-0.97-0.36-1.44-0.53C390.32,320.94,393.82,309.51,402.52,301.63z"/>
			<path fill="#EFA600" d="M278.39,373.57c-0.83-14.6,8.37-21.2,9.07-21.69c-25.7,16.54-20.15,33.68-15.53,41.48
				C271.08,378.89,277.17,374.33,278.39,373.57z"/>
			<path fill="#EFA600" d="M249.17,392.54c0.24,7.18,5.24,11.85,8.49,14.14c-10.36-19.13,5.22-30.2,5.22-30.2
				c-0.01,0.46,0.01,0.86,0.01,1.3c2.53-8.59,6.47-12.47,6.47-12.47S248.79,380.92,249.17,392.54z"/>
		</g>
	</g>
	<g>
		<path fill="#004F8D" d="M257.98,124.27l0.04,1.25l-9.33,0.77l-2.8-35.58c-0.01-4.77,3.1-7.32,9.34-7.65l15.87-1.25l0.57,7.24
			l-16.39,1.29l0.81,10.34l13.23-1.04l0.57,7.27l-13.23,1.04l0.81,10.34l0.34,3.95L257.98,124.27z"/>
		<path fill="#004F8D" d="M295.27,80.29l12.42-0.79l0.65,10.2l-10.78,0.69l-0.7,0.11c-0.38,0.07-0.66,0.1-0.82,0.11
			c-0.22,0.12-0.49,0.2-0.81,0.27l-0.95,0.4l-0.44,0.3c-0.12,0.05-0.28,0.15-0.47,0.31c-0.14,0.05-0.31,0.15-0.5,0.31l-2.15,2.25
			l-0.08,0.13c-2.6,4.04-2.73,8.42-0.42,13.14c2.61,4.28,6.51,5.95,11.69,5.03l7.73-0.49l0.13,0.05l0.64,10.05l-9.68,0.62
			c-5.52,0.64-10.55-1.22-15.09-5.58c-4.17-4.4-6.29-10.08-6.34-17.05c0.39-8.52,4.25-14.76,11.55-18.71l1.55-0.59l0.45-0.15
			l0.18-0.01l0.69-0.26c0.26-0.02,0.56-0.09,0.9-0.21C294.8,80.44,295.01,80.4,295.27,80.29z"/>
		<path fill="#004F8D" d="M339.31,120.51l-1.35-42.4l9.39-0.3l0.54,16.89l15.06-0.48l-0.54-16.89l9.39-0.3l1.35,42.4l-9.39,0.3
			l-0.56-17.59l-15.06,0.48l0.56,17.59L339.31,120.51z"/>
		<path fill="#004F8D" d="M382.24,76.87l9.91-0.02l0.06,23.06c0.01,3.66,0.12,6.04,0.32,7.14c0.39,1.73,1.28,3.12,2.68,4.17
			c1.39,1.05,2.88,1.58,4.44,1.58c1.24,0,2.48-0.5,3.73-1.5c1.25-1,2-2.23,2.25-3.68c0.25-1.45,0.37-3.86,0.36-7.21l-0.06-23.58
			l10.46-0.03l0.05,22.39c0.01,5.1-0.21,8.71-0.68,10.83c-0.46,2.12-1.32,3.9-2.56,5.34c-1.25,1.45-2.92,2.61-5.02,3.47
			c-2.1,0.87-4.85,1.31-8.25,1.32c-4.09,0.01-7.19-0.45-9.31-1.38c-2.12-0.93-3.79-2.15-5.03-3.65c-1.23-1.5-2.05-3.08-2.44-4.72
			c-0.58-2.44-0.87-6.04-0.88-10.79L382.24,76.87z"/>
		<path fill="#004F8D" d="M464.5,120.53l-9.45-0.31l-3.08-9.47l-14.6-0.48l-3.72,9.25l-9.51-0.31l15.3-37.74
			c0.53-1.33,1.39-2.38,2.57-3.15c1.19-0.77,2.43-1.14,3.73-1.1c1.32,0.04,2.55,0.49,3.68,1.34c1.13,0.85,1.92,1.96,2.36,3.31
			L464.5,120.53z M449.49,103.38l-4.13-12.74l-5.04,12.44L449.49,103.38z"/>
		<path fill="#004F8D" d="M490.45,79.5l1.55,0.09c0.24,0.08,0.51,0.11,0.82,0.11l14.04,0.8c0.05,0.21,0.05,0.44-0.01,0.7l-0.5,8.8
			l-0.04,0.12l-15.68-0.84c-0.53-0.01-0.99,0-1.38,0.04l-0.34,0.04l-0.49,0.06c-0.02,0.02-0.08,0.03-0.18,0.02
			c-0.81,0.18-1.51,0.63-2.12,1.35c-0.28,0.53-0.28,1.1-0.01,1.71c0.11,0.15,0.29,0.3,0.52,0.46l0.45,0.21l0.3,0.14l0.68,0.31
			l0.18,0.07l2.55,0.88l0.18,0.07l0.18,0.04l0.45,0.12c0.02,0.04,0.07,0.07,0.15,0.08c0.08,0.01,0.15,0.02,0.21,0.03
			c0.18,0.07,0.43,0.15,0.75,0.23l0.18,0.07l0.18,0.04l0.69,0.22c0.2,0.05,0.45,0.14,0.75,0.26l0.12,0.04l0.51,0.12l0.18,0.07
			c0.36,0.1,0.66,0.21,0.9,0.33l0.21,0.04c0.04,0.04,0.1,0.07,0.18,0.07l0.33,0.11l0.36,0.14l1.61,0.67l0.18,0.04l0.98,0.48
			c0.23,0.18,0.55,0.37,0.94,0.57l0.09,0.1l0.5,0.3l0.38,0.24l0.52,0.46l0.18,0.1c0.15,0.17,0.36,0.36,0.61,0.55l0.23,0.26
			l0.18,0.13l0.78,0.87c0.13,0.17,0.24,0.34,0.34,0.51c0.06,0.08,0.15,0.21,0.28,0.38c0.09,0.19,0.22,0.4,0.39,0.63l0.02,0.12
			c0.15,0.19,0.26,0.41,0.33,0.66l0.08,0.13l0.13,0.37c0.07,0.21,0.15,0.4,0.24,0.56l0.25,0.9l-0.01,0.12
			c0.92,4.15-0.12,8.01-3.14,11.58l-1.77,1.58l-0.25,0.14l-0.1,0.09l-1.33,0.81c-0.13,0.07-0.4,0.21-0.82,0.41
			c-0.1,0.01-0.23,0.07-0.37,0.16l-2.43,0.78l-0.34,0.07c-0.02,0.04-0.09,0.06-0.19,0.05l-0.5,0.12l-0.18,0.02l-0.28,0.08
			l-0.18-0.01l-0.19,0.05l-0.18,0.02l-0.37,0.04l-0.18,0.02l-0.37,0.04l-0.18,0.02c-0.24-0.01-0.52,0-0.83,0.04l-0.49-0.03
			l-0.16,0.05l-15.5-0.86l-0.49-0.06l0.55-9.59l17.39,0.99c1.73-0.25,2.78-1.11,3.17-2.6c0.31-1.1-0.07-2-1.13-2.69
			c-0.2-0.13-0.46-0.27-0.8-0.41l-0.3-0.14l-0.72-0.29l-0.18-0.1l-0.12-0.01l-0.18-0.1l-0.15-0.01c-0.12-0.07-0.27-0.13-0.45-0.18
			c-0.2-0.09-0.47-0.18-0.81-0.26l-0.09-0.07l-0.36-0.11l-0.12-0.01l-1.08-0.37c-0.16-0.05-0.27-0.08-0.33-0.08
			c-0.24-0.12-0.54-0.21-0.9-0.3l-0.36-0.11c-0.14-0.07-0.33-0.12-0.57-0.15c-0.04-0.04-0.1-0.07-0.18-0.07
			c-0.16-0.07-0.34-0.12-0.54-0.15l-0.36-0.17l-0.12-0.01c-0.12-0.07-0.29-0.12-0.51-0.15l-0.18-0.1l-0.21-0.07l-0.18-0.07
			l-0.87-0.32l-0.21-0.04l-0.6-0.28l-0.36-0.14c-0.2-0.05-0.44-0.16-0.72-0.32l-0.36-0.17l-0.92-0.51
			c-0.18-0.07-0.37-0.19-0.56-0.37l-0.15-0.04l-0.35-0.26l-0.35-0.26l-0.18-0.13l-0.26-0.2l-0.09-0.1l-0.26-0.2
			c-0.12-0.13-0.29-0.3-0.52-0.52l-1.23-1.44l-0.17-0.28l-0.14-0.19c-0.17-0.23-0.34-0.53-0.5-0.88l-0.08-0.19l-0.11-0.25l-0.25-0.5
			c-1.32-3.64-0.87-7.26,1.35-10.86C480.86,81.38,485,79.47,490.45,79.5z"/>
		<path fill="#004F8D" d="M554.27,126.46l-9.43-0.73l-2.66-9.6l-14.57-1.12l-4.13,9.07l-9.49-0.73l16.96-37.02
			c0.59-1.3,1.49-2.31,2.71-3.03c1.22-0.72,2.48-1.03,3.77-0.93c1.32,0.1,2.52,0.6,3.62,1.5c1.09,0.9,1.83,2.04,2.22,3.41
			L554.27,126.46z M540.04,108.66l-3.56-12.91l-5.59,12.2L540.04,108.66z"/>
	</g>
	<g>
		<g>
			<path fill="#FCCF00" d="M461.7,591.81c0,34.08-27.62,61.7-61.7,61.7c-34.08,0-61.7-27.62-61.7-61.7c0-34.08,27.63-61.7,61.7-61.7
				C434.08,530.1,461.7,557.73,461.7,591.81z"/>
			<path d="M400,655.8c-35.28,0-63.99-28.71-63.99-63.99c0-35.28,28.7-63.99,63.99-63.99c35.28,0,63.99,28.7,63.99,63.99
				C463.99,627.09,435.28,655.8,400,655.8z M400,532.39c-32.76,0-59.42,26.65-59.42,59.42s26.65,59.42,59.42,59.42
				c32.76,0,59.42-26.65,59.42-59.42S432.76,532.39,400,532.39z"/>
		</g>
		<g>
			<defs>
				<path id="SVGID_00000098937083866137149120000012475725296321314956_" d="M400,532.39c-32.76,0-59.42,26.65-59.42,59.42
					s26.65,59.42,59.42,59.42c32.76,0,59.42-26.65,59.42-59.42S432.76,532.39,400,532.39z"/>
			</defs>
			<clipPath id="SVGID_00000177448989531640721640000017199877682941605027_">
				<use xlink:href="#SVGID_00000098937083866137149120000012475725296321314956_"  overflow="visible"/>
			</clipPath>
			<path clip-path="url(#SVGID_00000177448989531640721640000017199877682941605027_)" fill="#BF1920" d="M353.02,619.48
				c-9.41,0-12.98-6.1-13.13-6.36l2.65-1.51c0.11,0.19,2.92,4.82,10.48,4.82c6.68,0,11.17-4.8,11.17-11.94
				c0-2.11-0.3-4.49-0.64-7.24c-0.51-4.03-1.13-9.04-1.13-15.61c0-36.42,17.42-49.22,18.16-49.74l1.76,2.48l-0.88-1.24l0.89,1.24
				c-0.17,0.12-16.88,12.54-16.88,47.26c0,6.38,0.62,11.29,1.11,15.23c0.36,2.85,0.67,5.31,0.67,7.62
				C367.24,613.32,361.4,619.48,353.02,619.48z"/>
			<path clip-path="url(#SVGID_00000177448989531640721640000017199877682941605027_)" fill="#BF1920" d="M458.47,608.03
				c-1.9-28.06-40.83-44.48-42.48-45.16c-8.09-3.35-18.84-8.87-18.84-18.17c0-7.97,9.79-14.52,10.21-14.79l1.68,2.54
				c-0.09,0.06-8.84,5.93-8.84,12.25c0,5.61,5.55,10.63,16.96,15.35c15.71,6.5,42.74,23.88,44.36,47.77L458.47,608.03z"/>
			<path clip-path="url(#SVGID_00000177448989531640721640000017199877682941605027_)" fill="#BF1920" d="M381.34,608.69
				c-10.49,0-16.34-6.72-16.58-7.01l2.32-1.98c0.05,0.06,5.23,5.94,14.27,5.94c11.19,0,15.69-9.95,16.86-13.23
				c-2.15-1.66-6.77-6.31-6.77-15.72c0-12.02,14.9-19.94,15.53-20.27l1.41,2.7c-0.14,0.07-13.89,7.4-13.89,17.57
				c0,10.12,6.01,13.63,6.27,13.78l1.03,0.58l-0.3,1.15C401.43,592.37,396.8,608.69,381.34,608.69z"/>
			<path clip-path="url(#SVGID_00000177448989531640721640000017199877682941605027_)" fill="#BF1920" d="M426.65,617.1l-3.01-0.44
				c1.32-9.04-0.13-15.63-4.31-19.6c-6.62-6.28-18.14-4.04-18.26-4.02l-0.61-2.99c0.53-0.11,13.16-2.58,20.95,4.78
				C426.36,599.52,428.12,607.01,426.65,617.1z"/>
			<path clip-path="url(#SVGID_00000177448989531640721640000017199877682941605027_)" fill="#BF1920" d="M373.91,641.26
				c-10.18,0-18.29-4.38-18.63-4.57l1.46-2.67c0.08,0.04,7.8,4.19,17.17,4.19c15.33,0,29.99-9.29,41.77-16.75
				c8.57-5.43,15.33-9.72,20.7-9.72c10.79,0,14.18,11.79,14.47,18.02l-3.04,0.14c-0.03-0.62-0.85-15.12-11.43-15.12
				c-4.48,0-11.24,4.28-19.07,9.24C405.19,631.7,390.12,641.26,373.91,641.26z"/>
		</g>
	</g>
</g>
<g>
</g>
<g>
</g>
<g>
</g>
<g>
</g>
<g>
</g>
<g>
</g>
<g>
</g>
<g>
</g>
<g>
</g>
<g>
</g>
<g>
</g>
</svg>
