<?xml version="1.0" encoding="utf-8"?>
<!-- Created by @FCLOGO 2022-04-26 20:21:53 . https://fclogo.top/ -->
<!-- FOR PERSONAL USE ONLY NOT FOR COMMERCIAL USE -->
<svg version="1.1" xmlns="http://www.w3.org/2000/svg" xmlns:xlink="http://www.w3.org/1999/xlink" x="0px" y="0px"
	 viewBox="0 0 800 800" enable-background="new 0 0 800 800" xml:space="preserve">
<g>
	<path fill="#006231" d="M675,282c-5.8-19-12-37.7-18-56.3v-63.1c-56.2-64-149.2-105.8-257-105.8c-107.7,0-200.8,41.8-257,105.8
		v63.2c-6.1,18.6-12.3,37.3-18,56.3c-9.7,31.9-17.6,65-17.5,101.9c2.6,23.9,5.8,48.1,13.4,70.2c10.9,31.9,28.6,60.7,47.6,88.8
		c12.5,18.5,27.8,34.9,42.9,51.8c22.1,24.8,48.1,46.3,73.4,68c37.8,32.4,73.6,54.1,115.3,79.1c41.7-25.1,77.5-46.7,115.3-79.2
		c25.3-21.7,51.3-43.3,73.4-68c15.1-16.9,30.3-33.3,42.9-51.8c19-28.1,36.7-56.9,47.6-88.8c7.6-22.1,10.8-46.3,13.4-70.2
		C692.6,347,684.7,313.9,675,282z M673.3,452.2c-10.7,31.6-28.4,60.6-47.4,88.1c-12.6,18.2-27.4,35-42.6,51.5
		c-22.5,24.5-47.8,46.6-73.2,67.7c-36.7,30.4-73.4,54.1-110.1,75.9c-36.7-21.8-73.5-45.5-110.1-75.9c-25.4-21.1-50.7-43.2-73.2-67.7
		c-15.2-16.5-30-33.3-42.6-51.5c-19.1-27.4-36.7-56.5-47.4-88.1c-7.3-21.6-10.2-44.5-12.4-68.1c0.5-35.3,8.4-68.8,17.9-100.6
		c5.8-19.3,12.1-37.9,17.7-56v-60.3C204.2,104.9,293.8,64.8,400,64.8c106.2,0,195.7,40.1,250.2,102.4v60.2
		c5.6,18.1,11.9,36.8,17.7,56c9.5,31.8,17.4,65.3,17.9,100.6C683.6,407.7,680.6,430.6,673.3,452.2z"/>
	<path fill="#006231" d="M662.2,286.1c-6.4-22-16.2-42.3-18.8-59c-2.3-15.2-1.9-29.4,0.1-44.1c-11,27.2-18.5,32.5-17,68.1
		c2.4,27.9,29.3,47.8,26.5,90c-7.7-19.5-23.2-12.7-34.2-41.8c0,71.5,36.4,60.5,36.4,110.5c-5.7-14.3-25.6-8.9-34.1-26.1
		c-8,31.7,37.9,63.9,15.7,100.1c0-20.8-20.4-14.1-20.4-31.5c-8,21.1,0.1,38.2,0.7,58.4c0.5,13.4-9.1,27.3-18.3,41.4
		c-8.3,10.2-17,20.1-26.1,29.8c-22.1,23.6-46.2,45.6-70.6,65.5c-35.2,28.7-71,52.8-102,70.7c-31.1-17.9-66.9-42-102.1-70.7
		c-24.4-19.9-48.5-41.9-70.6-65.5c-9.1-9.7-17.8-19.7-26.1-29.8c-9.2-14.2-18.8-28-18.3-41.4c0.7-20.2,8.8-37.3,0.7-58.4
		c0,17.4-20.4,10.7-20.4,31.5c-22.1-36.2,23.7-68.5,15.7-100.1c-8.5,17.2-28.4,11.8-34.1,26.1c0-50,36.4-39,36.4-110.5
		c-11,29.1-26.5,22.3-34.2,41.8c-2.8-42.2,24.1-62,26.5-90c1.4-35.7-6.1-40.9-17-68.1c1.9,14.7,2.4,28.9,0.1,44.1
		c-2.6,16.7-12.4,37.1-18.8,59c-9.5,32.9-17.4,68.6-16.7,100.4c0.8,21.4,5.2,42.8,12.6,63.7c10.1,28.7,25.9,56.5,44.9,83.2
		c13.2,18.7,28.2,36.3,44.1,53.5c22.4,24.2,47.5,46,72,66.4C332.1,684.6,369,707.8,400,726c30.9-18.3,67.9-41.4,105.4-72.7
		c24.5-20.4,49.6-42.1,72-66.4c15.9-17.2,30.8-34.9,44.1-53.5c19-26.7,34.7-54.6,44.9-83.2c7.4-20.9,11.7-42.3,12.6-63.7
		C679.6,354.7,671.7,319,662.2,286.1z"/>
	<path fill="#006231" d="M343.5,392.2v4.7l6.7-2.9c18.1-7.8,36.4-27.2,36.4-43.1l0.1-122.2l11.2-6.6l-0.1-8.6
		c-18.1,10.1-39.5,22.6-48.2,27.3v47.4c-25.9,0-32.7,19.3-32.8,44.9h4.7c0.1-9.8,5.1-18.5,12.5-22.3c6.5-3.4,15.6-4.1,15.6,1.8
		l0.1,14.9v62L343.5,392.2z"/>
	<path fill="#006231" d="M568.9,194l-8.9-68.2C512.9,103.7,458.2,91,400,91c-58.2,0-112.9,12.7-160,34.8l-8.9,68.2
		c48.5-30.5,106.6-48.4,168.9-48.4C462.3,145.7,520.4,163.5,568.9,194z M432.4,138.5c1.4,0,2.6-0.4,3.6-1.1c1-0.8,2.4-2.5,4.1-5.2
		l18.3-28.1l0.5,0.1l8.7,33.2c0.8,3.2,1.6,5.2,2.3,6.1c0.5,0.7,1.4,1.1,2.5,1.4l-0.2,1l-18.3-2.9l0.2-1l0.7,0.1
		c1.5,0.2,2.5,0.2,3.2-0.1c0.5-0.2,0.7-0.6,0.8-1.2c0.1-0.3,0.1-0.7,0-1.1c0-0.2-0.2-0.9-0.5-2.2l-1.3-5l-13.4-2.1l-2.2,3.4
		c-0.7,1.1-1.1,2.1-1.3,2.9c-0.2,1.1,0.1,1.9,0.9,2.5c0.5,0.4,1.6,0.8,3.6,1.3l-0.2,1l-12.6-2L432.4,138.5z M407.5,137.3l1.3,0.1
		c1.1,0.1,2-0.1,2.7-0.5c0.5-0.2,0.9-0.7,1.2-1.3c0.2-0.4,0.4-1.6,0.5-3.5l1.3-25.2c0.1-2,0.1-3.2-0.1-3.7c-0.2-0.5-0.6-1-1.2-1.4
		c-0.6-0.4-1.4-0.6-2.5-0.7l-1.3-0.1l0.1-1.1l20,1.1l-0.1,1l-1.3-0.1c-1.1-0.1-2,0.1-2.7,0.5c-0.5,0.2-0.9,0.7-1.2,1.3
		c-0.2,0.4-0.4,1.6-0.5,3.5l-1.3,25.2c-0.1,2-0.1,3.2,0.1,3.7c0.2,0.5,0.6,0.9,1.2,1.3c0.6,0.4,1.4,0.6,2.5,0.7l1.3,0.1l-0.1,1
		l-20-1.1L407.5,137.3z M349.5,142.8l-0.2-1l0.7-0.1c1.5-0.2,2.5-0.6,3-1.1c0.4-0.4,0.5-0.8,0.4-1.4c-0.1-0.3-0.2-0.7-0.3-1
		c-0.1-0.2-0.5-0.8-1.2-2l-2.7-4.4l-13.4,2.1l-1,3.9c-0.3,1.3-0.4,2.4-0.3,3.2c0.2,1.1,0.7,1.8,1.7,2.1c0.6,0.2,1.8,0.3,3.8,0.1
		l0.2,1l-12.6,2l-0.2-1c1.3-0.4,2.3-1.2,3.1-2.2c0.7-1.1,1.5-3.1,2.3-6.2l8.8-32.3l0.5-0.1l18.6,28.9c1.8,2.7,3.1,4.4,4.1,5
		c0.7,0.5,1.7,0.7,2.8,0.6l0.2,1L349.5,142.8z M387.9,139.5c-1.2,0-2.4-0.1-3.4-0.3c-1.1-0.2-2.4-0.7-4.1-1.3
		c-0.9-0.4-1.7-0.5-2.3-0.5c-0.5,0-1,0.2-1.5,0.6c-0.5,0.4-1,1-1.3,1.8l-1.1,0l-0.3-14.5l1,0c0.9,4.1,2.6,7.1,5,9.2
		c2.4,2.1,5,3.1,7.7,3.1c2.1,0,3.8-0.6,5-1.8c1.2-1.2,1.8-2.5,1.8-4c0-0.9-0.3-1.8-0.8-2.6c-0.5-0.8-1.2-1.6-2.2-2.4
		c-1-0.7-2.7-1.7-5.3-2.9c-3.5-1.6-6-3.1-7.6-4.2c-1.5-1.2-2.7-2.5-3.6-4c-0.8-1.5-1.3-3.1-1.3-4.9c-0.1-3,1-5.7,3.2-7.9
		c2.2-2.2,5-3.3,8.4-3.4c1.2,0,2.4,0.1,3.6,0.4c0.9,0.2,2,0.6,3.2,1.2s2.2,0.9,2.7,0.9c0.5,0,0.9-0.2,1.1-0.5c0.3-0.3,0.5-1,0.8-2.2
		h0.9l0.5,12.8l-1.2,0c-0.6-3.2-2-5.8-4.2-7.7s-4.5-2.8-7-2.8c-1.9,0-3.4,0.6-4.5,1.6c-1.1,1-1.6,2.2-1.6,3.6c0,0.8,0.2,1.6,0.6,2.3
		c0.6,0.9,1.4,1.7,2.7,2.6c0.9,0.6,3,1.7,6.2,3.2c4.5,2.1,7.6,4.2,9.2,6.1c1.6,1.9,2.4,4.2,2.4,6.7c0.1,3.2-1.1,6-3.6,8.3
		C394.9,138.2,391.7,139.4,387.9,139.5z"/>
	<polygon fill="#006231" points="453.1,116.3 445.2,128.4 456.6,130.2 	"/>
	<polygon fill="#006231" points="336.5,131.7 347.9,129.9 340.2,117.8 	"/>
	<path fill="#006231" d="M240.8,480.3c-21.1,1.5-40.9,14.9-41.1,37.5c-0.2,18.1,14.2,34.6,33.9,40.2l-1-5.1
		c-13.1-7.1-20-18.5-19.9-28.8c0.1-12.5,10.4-23.5,31.8-23.4c13.6,0,27.9,7.4,34.3,16.4c2.5,3.5,6,3.6,9.7,0.3l19.4-17.7l-2.8-4.7
		l-5.2,3.4c-2.4,1.6-4.8,0.3-7.1-1.8c-12.3-11.3-25.8-15.4-42.2-16.4l8.3-33.5l44.5,0l26.1,63.1c3.1,7.4,10.2,20.4,23.6,13.2
		l36.5-19.8l-3.3-5.2c-8.5,4.3-14.2,5.8-17.7-2.5l-62.4-150.8c-6.7-16.2-11.4-29.1-18.6-35.8c-9.6-8.9-22.3-13.3-34.9-13.4
		c-22.5-0.1-44.5,13.7-47.6,41.3l3,2.1c3.9-12.3,16-17.9,28.3-18c10.9-0.1,21.9,4,27.8,11.5c4.8,6.2,8.2,13.8,8.3,22.3
		c-5.6-6.9-15-11.4-24.2-11.3c-14.9,0.1-30.8,14.2-21.3,33.5l2.8-1.1c-1.8-5-0.8-15.4,16.1-15.1c13.5,0.2,21.8,13.8,20.7,18.1
		L240.8,480.3z M276.2,380.1l21.8,52.8h-35.5L276.2,380.1z"/>
	<path fill="#006231" d="M345.1,219.3c4.8,3.7,16.2,8.5,30.1,1l21-11.4l-3.4-5.3c-7.2,3.9-8.5,4.9-12.8,5
		c-13.3,0.3-35.6-19-48.8-19.4c-27.5-0.8-39.3,36.7-18.6,54.3l1.2-3.8C303.4,231.3,309.9,192.6,345.1,219.3z"/>
	<path fill="#006231" d="M540.7,321.7c-11.6,8.4-29.9,22.5-52.8,30.8l0,111.5c0,1-0.4,2-2,2.6c-1.8,0.6-3.7,1-5.6,1.3v3.3
		c22.3-3.2,37.4-23.8,37.4-41l0.1-87.2c5,4.5,15.3,10.9,23.6,11.5v45.9c0,3.4-1.6,6-1.6,8.2c0,3.2,1.6,4.4,1.6,8.6v72.2
		c-24.4,8.4-55.4,0-69.1-15.9c-13.3-15.4-18.1-37.2-18.5-56.5c-0.7-40.2,8.1-80.6,55.3-99.7l-0.6-4c-62.9,10.1-88.8,64.9-88.2,105.5
		c0.4,26.1,7.9,52.1,26.6,71.7c23.7,24.8,59.2,31.6,94.5,19.3v25.7c0,13.7,0.2,25.6-9.3,25.7c-5.4,0.1-10-4.2-10.1-7.4
		c1.2,2.4,4.2,4.2,8.1,4.5c5.3,0.5,8.8-3.4,9-7.8c0.2-5.1-4.7-7.7-10-7.8c-7.9-0.2-12.8,3.9-13.3,8.9c-0.8,7.7,6.5,15.1,15.5,15.3
		c16.3,0.3,19.7-12.2,19.7-32.6v-28.2c19.7-10.4,28.2-29.2,28.2-52.3l-3.5,0c-1.6,12.7-10.7,25.7-24.7,32V417c0-3.1,1.5-5.1,1.5-8.4
		c0-2.9-1.5-4.2-1.5-8.3v-45.6c24.4,0,31.6-12.6,31.6-29.3h-4.1c-0.2,10.2-4,14.1-9.2,14.2C560.3,339.9,547.5,329.8,540.7,321.7z"/>
	<path fill="#006231" d="M401.4,427.3c17.6-7.5,13.7-18.1,13.7-45.4l0.1-75.1l38.7-0.1v-28.5l-38.7,0.2l-0.1-65l13-8.6
		c3.8,8.1,12.9,19.9,22.8,20.1c25.6,0.5,37-18.8,35.8-41.9l-3.6-0.3c0,35.7-24.6,21.9-39.1,2.9c-4.4,4.4-20,14-37.6,24l-0.1,175
		c0,21.2-56.9,20.2-57.4,47.2c-0.5,22.4,17.1,33.7,36.4,38.9l0.6-3.3c-10.4-4.1-15.2-11.3-15.2-17.9
		C370.7,436.6,387.1,433.3,401.4,427.3z"/>
	<polygon fill="#006231" points="400.8,555.1 400.8,578.2 428.8,599.2 450.1,588.8 451.4,564.8 427.8,546 	"/>
	<polygon fill="#006231" points="347.5,566.2 351.8,589.6 371.8,599.4 398.7,578.2 398.7,555.3 374.2,545.2 	"/>
	<polygon fill="#006231" points="351.2,591.7 334.3,614.7 344,645.5 368.7,650.8 380.3,630.4 371.1,601.5 	"/>
	<polygon fill="#006231" points="456.5,642.7 466.8,614.4 450.8,590.9 429.6,601.3 419.9,630.4 430.7,648.1 	"/>
	<path fill="#006231" d="M338.3,565.9l7.6-1.2l27.2-21.3l1.5-5C360,543.6,347.3,553.2,338.3,565.9z"/>
	<polygon fill="#006231" points="413.4,674.1 428.9,649.3 418.1,631.6 382.1,631.6 370.6,651.9 386.3,674.2 	"/>
	<polygon fill="#006231" points="373.2,601.1 382.3,629.4 418,629.4 427.4,600.9 399.8,580.1 	"/>
	<path fill="#006231" d="M336.6,568.3L336.6,568.3c0.1-0.2,0.2-0.3,0.3-0.5C336.8,568,336.7,568.2,336.6,568.3z"/>
	<path fill="#006231" d="M324.4,606.2l8.5,6.7l16.8-22.9l-4.2-23.1l-8.9,1.4c-6,9.2-10.2,19.9-11.7,31.6
		C324.7,602,324.5,604.1,324.4,606.2z"/>
	<path fill="#006231" d="M420.9,682.3l-7.3-6.1l-26.6,0.1l-6.6,6.4c3.2,0.9,6.5,1.5,9.8,2C400.9,686.1,411.3,685.1,420.9,682.3z"/>
	<path fill="#006231" d="M421.9,682c-0.3,0.1-0.7,0.2-1,0.3l0,0C421.3,682.2,421.6,682.1,421.9,682z"/>
	<path fill="#006231" d="M461.5,653.8L461.5,653.8c0,0-0.1,0.1-0.1,0.1C461.4,653.9,461.4,653.8,461.5,653.8z"/>
	<path fill="#006231" d="M456.5,645l-25.6,5.3l-15.5,24.7l8,6.6c15.2-5,28.5-14.7,37.9-27.7c-0.5,0.7-1,1.4-1.5,2L456.5,645z"/>
	<path fill="#006231" d="M409.8,534.6c-11.3-1.5-22.4-0.3-32.6,2.9l-1.8,5.9l24.1,9.9l27.1-9.2l-1.9-6c0.9,0.3,1.7,0.6,2.6,1
		l1.6,5.1l23.9,19.1l7.3,0.5c0.6,0.8,1.1,1.5,1.7,2.3l-8.4-0.6l-1.2,23.7l16.1,23.6l7.4-5.2c0,0.9,0,1.8,0,2.7l-6.7,4.8l-10.5,28.7
		l3,10.1c7.1-9.9,12-21.5,13.6-34.4C480.5,578,451.1,539.9,409.8,534.6z"/>
	<path fill="#006231" d="M339.5,655l2.5-8.6l-9.8-31.3l-7.8-6.2C324.2,626,329.8,642.1,339.5,655z"/>
	<path fill="#006231" d="M378,682l6.7-6.4l-16-22.6l-24.7-5.3l-2.7,9.5c-0.6-0.7-1.1-1.4-1.7-2.1C349,667.6,362.3,677.3,378,682z"/>
</g>
<g>
</g>
<g>
</g>
<g>
</g>
<g>
</g>
<g>
</g>
<g>
</g>
<g>
</g>
<g>
</g>
<g>
</g>
<g>
</g>
<g>
</g>
</svg>
