<?xml version="1.0" encoding="UTF-8"?>
<svg xmlns="http://www.w3.org/2000/svg" xmlns:xlink="http://www.w3.org/1999/xlink" version="1.1" viewBox="0 0 800 800">
  <!-- Created by @FCLOGO 2024-12-10 GMT+8 17:23:24 . https://fclogo.top/ -->
<!-- FOR PERSONAL USE ONLY NOT FOR COMMERCIAL USE -->
<!-- Created by @FCLOGO 2024-12-10 GMT+8 17:23:24 . https://fclogo.top/ -->
<!-- FOR PERSONAL USE ONLY NOT FOR COMMERCIAL USE -->
  <defs>
    <linearGradient id="_未命名的渐变" data-name="未命名的渐变" x1="143.6423" y1="400.0002" x2="656.3578" y2="400.0002" gradientTransform="translate(0 800) scale(1 -1)" gradientUnits="userSpaceOnUse">
      <stop offset="0" stop-color="#00661e"/>
      <stop offset=".5276" stop-color="#2aaf11"/>
      <stop offset="1" stop-color="#00621d"/>
    </linearGradient>
    <linearGradient id="_未命名的渐变_2" data-name="未命名的渐变 2" x1="119.5013" y1="10.5574" x2="153.006" y2="10.5574" gradientTransform="translate(564.6099 -1046.3392) rotate(90) scale(11.1931)" gradientUnits="userSpaceOnUse">
      <stop offset="0" stop-color="#fff"/>
      <stop offset="1" stop-color="#f4f4f4"/>
    </linearGradient>
    <linearGradient id="_未命名的渐变_3" data-name="未命名的渐变 3" x1="-204.3094" y1="1.6149" x2="-200.4815" y2="1.6149" gradientTransform="translate(338.9331 11846.3311) rotate(90) scale(57.791)" gradientUnits="userSpaceOnUse">
      <stop offset="0" stop-color="#00a43d"/>
      <stop offset=".0465" stop-color="#00a03a"/>
      <stop offset=".3717" stop-color="#008b2f"/>
      <stop offset=".6921" stop-color="#007f28"/>
      <stop offset="1" stop-color="#007b26"/>
    </linearGradient>
    <linearGradient id="_未命名的渐变_4" data-name="未命名的渐变 4" x1="-204.3072" y1=".3967" x2="-200.4809" y2=".3967" gradientTransform="translate(364.321 11846.6318) rotate(90) scale(57.7911)" gradientUnits="userSpaceOnUse">
      <stop offset="0" stop-color="#00a43d"/>
      <stop offset=".0465" stop-color="#00a03a"/>
      <stop offset=".3717" stop-color="#008b2f"/>
      <stop offset=".6921" stop-color="#007f28"/>
      <stop offset="1" stop-color="#007b26"/>
    </linearGradient>
    <linearGradient id="_未命名的渐变_5" data-name="未命名的渐变 5" x1="-204.3103" y1="-.9727" x2="-200.4851" y2="-.9727" gradientTransform="translate(391.7469 11846.1787) rotate(90) scale(57.7904)" gradientUnits="userSpaceOnUse">
      <stop offset="0" stop-color="#00a43d"/>
      <stop offset=".0465" stop-color="#00a03a"/>
      <stop offset=".3717" stop-color="#008b2f"/>
      <stop offset=".6921" stop-color="#007f28"/>
      <stop offset="1" stop-color="#007b26"/>
    </linearGradient>
    <linearGradient id="_未命名的渐变_6" data-name="未命名的渐变 6" x1="-204.3075" y1="-2.2494" x2="-200.4831" y2="-2.2494" gradientTransform="translate(418.2717 11846.5518) rotate(90) scale(57.7909)" gradientUnits="userSpaceOnUse">
      <stop offset="0" stop-color="#00a43d"/>
      <stop offset=".0465" stop-color="#00a03a"/>
      <stop offset=".3717" stop-color="#008b2f"/>
      <stop offset=".6921" stop-color="#007f28"/>
      <stop offset="1" stop-color="#007b26"/>
    </linearGradient>
    <radialGradient id="_未命名的渐变_7" data-name="未命名的渐变 7" cx="482.5403" cy="307.6242" fx="482.5403" fy="307.6242" r="98.3219" gradientTransform="translate(0 192.375)" gradientUnits="userSpaceOnUse">
      <stop offset="0" stop-color="#696a6c"/>
      <stop offset="1" stop-color="#1f191a"/>
    </radialGradient>
    <radialGradient id="_未命名的渐变_8" data-name="未命名的渐变 8" cx="-183.9562" cy="10.1894" fx="-183.9562" fy="10.1894" r="3.8269" gradientTransform="translate(4856.1123 301.5157) scale(23.7048)" gradientUnits="userSpaceOnUse">
      <stop offset="0" stop-color="#fff"/>
      <stop offset="1" stop-color="#f2f2f3"/>
    </radialGradient>
    <radialGradient id="_未命名的渐变_9" data-name="未命名的渐变 9" cx="-317.3379" cy="-69.355" fx="-317.3379" fy="-69.355" r="3.827" gradientTransform="translate(0 800) scale(1 -1)" gradientUnits="userSpaceOnUse">
      <stop offset="0" stop-color="#fff"/>
      <stop offset="1" stop-color="#f2f2f3"/>
    </radialGradient>
    <radialGradient id="_未命名的渐变_10" data-name="未命名的渐变 10" cx="-317.3385" cy="-69.3542" fx="-317.3385" fy="-69.3542" r="3.8276" gradientTransform="translate(0 800) scale(1 -1)" gradientUnits="userSpaceOnUse">
      <stop offset="0" stop-color="#fff"/>
      <stop offset="1" stop-color="#f2f2f3"/>
    </radialGradient>
    <radialGradient id="_未命名的渐变_11" data-name="未命名的渐变 11" cx="-317.3362" cy="-69.3548" fx="-317.3362" fy="-69.3548" r="3.8253" gradientTransform="translate(0 800) scale(1 -1)" gradientUnits="userSpaceOnUse">
      <stop offset="0" stop-color="#fff"/>
      <stop offset="1" stop-color="#f2f2f3"/>
    </radialGradient>
    <radialGradient id="_未命名的渐变_12" data-name="未命名的渐变 12" cx="-317.3387" cy="-69.3544" fx="-317.3387" fy="-69.3544" r="3.8264" gradientTransform="translate(0 800) scale(1 -1)" gradientUnits="userSpaceOnUse">
      <stop offset="0" stop-color="#fff"/>
      <stop offset="1" stop-color="#f2f2f3"/>
    </radialGradient>
    <radialGradient id="_未命名的渐变_13" data-name="未命名的渐变 13" cx="-317.3379" cy="-69.3544" fx="-317.3379" fy="-69.3544" r="3.8254" gradientTransform="translate(0 800) scale(1 -1)" gradientUnits="userSpaceOnUse">
      <stop offset="0" stop-color="#fff"/>
      <stop offset="1" stop-color="#f2f2f3"/>
    </radialGradient>
    <radialGradient id="_未命名的渐变_14" data-name="未命名的渐变 14" cx="-317.3387" cy="-69.3557" fx="-317.3387" fy="-69.3557" r="3.8269" gradientTransform="translate(0 800) scale(1 -1)" gradientUnits="userSpaceOnUse">
      <stop offset="0" stop-color="#fff"/>
      <stop offset="1" stop-color="#f2f2f3"/>
    </radialGradient>
    <radialGradient id="_未命名的渐变_15" data-name="未命名的渐变 15" cx="-317.3379" cy="-69.3517" fx="-317.3379" fy="-69.3517" r="3.8222" gradientTransform="translate(0 800) scale(1 -1)" gradientUnits="userSpaceOnUse">
      <stop offset="0" stop-color="#fff"/>
      <stop offset="1" stop-color="#f2f2f3"/>
    </radialGradient>
    <linearGradient id="_未命名的渐变_16" data-name="未命名的渐变 16" x1="-197.6563" y1="5.7404" x2="-193.8301" y2="5.7404" gradientTransform="translate(12268.3174 86.939) scale(61.1855)" gradientUnits="userSpaceOnUse">
      <stop offset="0" stop-color="#007b27"/>
      <stop offset=".5276" stop-color="#008633"/>
      <stop offset="1" stop-color="#006d35"/>
    </linearGradient>
    <linearGradient id="_未命名的渐变_17" data-name="未命名的渐变 17" x1="-205.5143" y1="4.1607" x2="-201.6877" y2="4.1607" gradientTransform="translate(-10895.9912 666.6786) rotate(-180) scale(54.9212)" gradientUnits="userSpaceOnUse">
      <stop offset="0" stop-color="#ffe600"/>
      <stop offset="1" stop-color="#ffcf00"/>
    </linearGradient>
  </defs>
  <path d="M348.2194,774.301c-.786,0-1.3752-.2173-1.7682-.6519-.393-.4352-.5284-1.03-.406-1.7856l.2518-1.6478c.122-.755.4501-1.3504.9841-1.785.5339-.4352,1.1939-.6525,1.9799-.6525.7553,0,1.3293.1987,1.7223.5954.3927.3967.551.9381.4747,1.6248h-1.2358c.0304-.3589-.0553-.637-.2573-.8357-.2024-.1981-.4979-.2974-.8869-.2974-.4197,0-.763.1167-1.03.3489-.2673.2328-.4349.5631-.5035.9903l-.2632,1.659c-.0686.4352-.0056.7686.1887,1.0015.1946.2328.5017.3489.9214.3489.389,0,.7152-.0987.9785-.2974.2632-.1981.4365-.4805.5206-.8469h1.2358c-.1372.6867-.4672,1.2306-.9897,1.631-.5228.4005-1.1616.6004-1.9169.6004h-.0002ZM352.7967,774.1868l.9956-6.2943h1.1902l-.1946,1.1902c.3359-.8698.9729-1.3044,1.9113-1.3044.6712,0,1.1691.208,1.4932.624.3244.416.4293.9859.3148,1.7105l-.0686.4234h-1.2703l.0571-.3204c.0689-.4501.0115-.7953-.1714-1.0356-.1832-.2403-.4771-.3607-.8813-.3607-.4045,0-.7401.1223-1.007.3663-.2673.2446-.4349.588-.5035,1.03l-.6296,3.9711h-1.2358v-.0002ZM361.9058,774.301c-.7705,0-1.3463-.2229-1.7279-.6693s-.515-1.0356-.4005-1.7682l.2518-1.6478c.0838-.488.2573-.9152.5206-1.2815s.6007-.6507,1.0129-.8524c.4119-.2024.8732-.3036,1.3845-.3036.7705,0,1.3485.2235,1.7338.6693.3852.4464.5169,1.0356.3949,1.7682l-.1717,1.1213h-3.845l-.0916.5265c-.1527.9536.2173,1.4305,1.1098,1.4305.7171,0,1.175-.2477,1.3734-.7438h1.2247c-.1679.5339-.5035.9599-1.007,1.2759-.5038.3166-1.0912.475-1.7626.475h0ZM361.2306,770.2157l-.0456.2862,2.6548-.0118.0459-.2856c.0686-.4656.0133-.822-.1661-1.0704-.1791-.2477-.4861-.3719-.9211-.3719-.4427,0-.7953.126-1.0586.3775-.2632.2521-.4331.6109-.5094,1.076h.0001ZM368.3258,774.301c-.6333,0-1.1027-.2117-1.4078-.6351s-.3967-1.0008-.2744-1.7335l.2744-1.7738c.1145-.7326.393-1.3119.8357-1.7397.4424-.4272.98-.6407,1.6133-.6407.4653,0,.8298.1186,1.093.3545.2632.2365.3908.5575.3834.9617h.023l.1717-1.202h1.2358l-.9956,6.2943h-1.2247l.1946-1.2014h-.023c-.122.4116-.3511.7339-.6867.9667s-.7401.3489-1.2129.3489l.0002.0002ZM368.9324,773.2257c.389,0,.7152-.1186.9782-.3551.2632-.2359.4293-.5718.4979-1.007l.2518-1.6478c.0686-.4272.0096-.7612-.1773-1.0015-.1872-.2403-.475-.3601-.8642-.3601-.3967,0-.7249.118-.9841.3545-.2595.2365-.4234.5724-.492,1.007l-.2518,1.6478c-.0686.4427-.0133.7804.1658,1.0133.1794.2328.4712.3489.8757.3489h0ZM376.3477,774.1868c-.5721,0-.9937-.1565-1.2644-.4694-.271-.3123-.3607-.7512-.2691-1.3156l.538-3.3874h-1.7394l.1714-1.1219h1.7397l.2747-1.7161h1.2358l-.2747,1.7161h2.472l-.1832,1.1219h-2.4605l-.5377,3.3874c-.0764.4421.099.6637.5262.6637h1.7167l-.1717,1.1213h-1.7738,0ZM382.5042,774.301c-.7705,0-1.3463-.2229-1.7279-.6693s-.515-1.0356-.4005-1.7682l.2518-1.6478c.0838-.488.2573-.9152.5206-1.2815s.6007-.6507,1.0129-.8524c.4119-.2024.8732-.3036,1.3845-.3036.7705,0,1.3485.2235,1.7338.6693.3852.4464.5169,1.0356.3949,1.7682l-.1717,1.1213h-3.845l-.0916.5265c-.1527.9536.2173,1.4305,1.1098,1.4305.7171,0,1.175-.2477,1.3734-.7438h1.2247c-.1679.5339-.5035.9599-1.007,1.2759-.5038.3166-1.0912.475-1.7626.475h0ZM381.829,770.2157l-.0456.2862,2.6548-.0118.0459-.2856c.0686-.4656.0133-.822-.1661-1.0704-.1791-.2477-.4861-.3719-.9211-.3719-.4427,0-.7953.126-1.0586.3775-.2632.2521-.4331.6109-.5094,1.076h.0001ZM388.9243,774.301c-.6333,0-1.1008-.2117-1.4019-.6351-.3014-.4234-.3949-1.0008-.2803-1.7335l.2744-1.7738c.1145-.7326.393-1.3119.8357-1.7397.4424-.4272.98-.6407,1.6133-.6407.4653,0,.8298.1186,1.093.3545.2632.2365.3908.5575.3834.9617h.023l.2058-1.4652.2977-1.7962h1.2358l-1.3274,8.3537h-1.2247l.1946-1.2014h-.023c-.122.4116-.3511.7339-.6867.9667s-.7401.3489-1.2129.3489l.0002.0002ZM389.5309,773.2257c.389,0,.7152-.1186.9782-.3551.2632-.2359.4293-.5718.4979-1.007l.2518-1.6478c.0761-.4272.0189-.7612-.1717-1.0015-.1909-.2403-.4805-.3601-.8698-.3601-.3967,0-.7249.118-.9841.3545-.2595.2365-.4234.5724-.492,1.007l-.2518,1.6478c-.0764.4427-.023.7804.1602,1.0133s.4768.3489.8813.3489h0ZM401.0175,774.301c-.4731,0-.8394-.1161-1.0986-.3489-.2595-.2328-.3852-.5551-.3775-.9667h-.0115l-.1946,1.2014h-1.2243l1.3274-8.3537h1.2358l-.2862,1.7962-.2744,1.4652h.0456c.122-.4123.353-.7345.6923-.9673.3396-.2322.7419-.3489,1.2076-.3489.633,0,1.1002.2136,1.4016.6407.3014.4278.3949,1.007.2806,1.7397l-.2747,1.7738c-.1145.7326-.3949,1.31-.8413,1.7335-.4461.4234-.9822.6351-1.6077.6351v-.0002ZM400.7657,773.2257c.3967,0,.7227-.1161.9785-.3489.2555-.2328.4216-.5706.4976-1.0133l.2518-1.6478c.0689-.4346.0115-.7705-.1714-1.007-.1832-.2365-.4734-.3545-.8698-.3545-.3893,0-.7152.1198-.9785.3601s-.429.5743-.4979,1.0015l-.2518,1.6478c-.0686.4352-.0112.7711.1717,1.007.1832.2365.4731.3551.8698.3551h0ZM405.4694,776.2468l.1717-1.0642h1.934c.6407,0,1.007-.3017,1.0986-.9046l.1028-.6749.2061-1.1902h-.0345c-.122.4197-.3471.7438-.6752.9729-.3281.2285-.7286.3433-1.2014.3433-.6258,0-1.093-.2005-1.4019-.601s-.4104-.9443-.3033-1.631l.5836-3.6047h1.2358l-.5606,3.4793c-.0612.4116,0,.732.1832.9611s.4653.3433.8469.3433c.389,0,.7168-.1217.9841-.3663.267-.244.4309-.5836.492-1.0182l.538-3.3992h1.2358l-1.007,6.4086c-.0993.6029-.37,1.0778-.8124,1.4249-.4427.3471-.9996.5209-1.6707.5209h-1.9456ZM417.787,770.0853h3.221l.5368-1.8545h-5.4659l-1.7081,6.4419h2.1473l.5856-2.0985h3.0257l.4392-1.7081h-3.0257l.244-.7808h0ZM424.229,772.9158c-.5856,0-1.0249-.3904-1.0249-1.1225,0-.8784.6344-1.7569,1.6105-1.7569.488,0,.8784.244,1.0248.7808l1.9521-.8296c-.2928-1.1713-1.2689-1.9033-2.6353-1.9033-2.7817,0-4.1482,2.1473-4.1482,3.9042s1.2689,2.8305,3.0746,2.8305c1.3665,0,2.3425-.5856,2.9769-1.4153l-1.5129-1.1713c-.3904.4392-.8296.6832-1.3177.6832v.0002ZM430.9149,768.2308h-2.1473l-1.7569,6.4419h5.1242l.488-1.8545h-2.9281l1.2201-4.5874ZM439.7481,771.0125c0-1.6593-1.3177-2.9281-3.221-2.9281-2.1961,0-3.8066,1.8057-3.8066,3.8066,0,1.6593,1.3177,2.9281,3.221,2.9281,2.1961,0,3.8066-1.8057,3.8066-3.8066ZM434.9167,771.6957c0-.8296.5856-1.7081,1.5129-1.7081.7808,0,1.1713.5368,1.1713,1.2201,0,.8296-.5856,1.7081-1.5129,1.7081-.7808,0-1.1713-.5368-1.1713-1.2201ZM443.2131,772.2326h1.0737l-.1952.6832c-.1464.0488-.3416.0976-.5856.0976-.6832,0-1.2689-.3904-1.2689-1.2201,0-1.0249.732-1.9033,1.9521-1.9033.5856,0,1.1225.244,1.5129.5856l1.3665-1.3665c-.4392-.5368-1.5129-1.0737-2.7329-1.0737-2.5865,0-4.2946,1.7569-4.2946,3.8554,0,2.0497,1.6105,2.8793,3.221,2.8793.9272,0,1.8545-.2928,2.4889-.6832l.9272-3.3186h-3.1234l-.3416,1.4641v.0002ZM450.7775,768.0844c-2.1961,0-3.8066,1.8057-3.8066,3.8066,0,1.6593,1.3177,2.9281,3.221,2.9281,2.1961,0,3.8066-1.8057,3.8066-3.8066,0-1.6593-1.3177-2.9281-3.221-2.9281ZM450.3382,772.9158c-.7808,0-1.1713-.5368-1.1713-1.2201,0-.8296.5856-1.7081,1.5129-1.7081.7808,0,1.1713.5368,1.1713,1.2201,0,.8296-.5856,1.7081-1.5129,1.7081ZM437.9424,767.4987c-.0488.2928.0976.488.4392.488s.5368-.1952.6344-.488c.0488-.244-.0976-.488-.4392-.488s-.5856.244-.6344.488ZM432.1349,765.4978c-.4392,0-.732.244-.7808.5856s.0976.5856.5368.5856.732-.244.7808-.5856c.0976-.3416-.0976-.5856-.5368-.5856ZM433.0134,767.3035c-.0976.5368.1464.8784.8296.8784.6344,0,1.0737-.3904,1.1713-.8784s-.1464-.8784-.8296-.8784-1.0737.3904-1.1713.8784ZM439.6017,777.552l-2.4401-1.8057h-1.5129l4.2458,3.1722,1.6105-3.1722h-.976l-.9272,1.8057h0ZM425.8394,767.1571l-2.0009-1.4641,23.1323-2.7817-2.1473,4.2458h1.0248l2.6841-5.3195-26.9877,3.221,2.7817,2.0985h1.513ZM338.7186,785.7853l.6088-3.8315h2.32l-.084.5194h-1.7636l-.1837,1.1445h1.6272l-.084.5248h-1.6166l-.2573,1.6428h-.5668,0ZM342.97,785.8377c-.3568,0-.6228-.1005-.7978-.3019-.175-.201-.2345-.473-.1784-.8161l.2677-1.7006c.056-.3429.2029-.6148.4408-.8161.2379-.201.5355-.3019.8923-.3019s.6228.1.7979.2993c.1748.1993.2361.4707.1837.8136l-.2677,1.7057c-.0561.3431-.2039.6151-.4435.8161-.2398.2013-.5381.3019-.895.3019ZM343.0487,785.3339c.1925,0,.3483-.0524.4672-.1575.119-.1051.1942-.2571.2257-.4568l.2678-1.7006c.0315-.1993.0051-.3517-.0787-.4565-.084-.1051-.2223-.1575-.4148-.1575s-.3473.0524-.4645.1575c-.1173.1048-.1916.2571-.2231.4565l-.2677,1.7006c-.0315.1996-.0053.3517.0787.4568s.2204.1575.4094.1575h0ZM344.9961,785.7853l.6088-3.8315h1.202c.2379,0,.4391.0464.6036.139.1645.0928.2835.223.357.391s.091.3656.0524.5932c-.0384.2591-.14.4838-.3044.6746-.1645.1905-.3656.3209-.6036.391l.5354,1.6428h-.6194l-.4777-1.5748h-.5406l-.2466,1.5748h-.5669ZM345.8883,783.7068h.6352c.1889,0,.349-.0558.4803-.168.1313-.1119.2107-.2623.2388-.4514.0316-.1925,0-.3454-.0944-.4593-.0945-.1136-.2362-.1706-.4252-.1706h-.6352l-.1995,1.2493ZM349.545,785.7853l.6088-3.8315h1.2544c.3709,0,.6508.1048.8399.315.1889.2099.2553.4898.1993.8398-.0384.2344-.1216.4383-.2493.6114s-.2905.307-.4881.4015c-.1978.0945-.419.1418-.6639.1418h-.6928l-.2415,1.5221h-.5668ZM350.432,783.754h.6928c.1924,0,.3568-.0587.4934-.176.1364-.117.2204-.2737.2519-.4696s-.0017-.3525-.0997-.4699-.245-.1757-.441-.1757h-.6876l-.2099,1.2911v.0002ZM352.7466,785.7853l.6088-3.8315h2.2518l-.0787.5038h-1.6954l-.1731,1.0867h1.5115l-.0787.4986h-1.5115l-.1942,1.2387h1.6901l-.0787.5038h-2.2519ZM355.8434,785.7853l.6088-3.8315h1.202c.2379,0,.4391.0464.6036.139.1645.0928.2835.223.357.391s.091.3656.0524.5932c-.0384.2591-.14.4838-.3044.6746-.1645.1905-.3656.3209-.6036.391l.5354,1.6428h-.6194l-.4777-1.5748h-.5406l-.2466,1.5748h-.5669ZM356.7356,783.7068h.6352c.1889,0,.349-.0558.4803-.168.1313-.1119.2107-.2623.2388-.4514.0316-.1925,0-.3454-.0944-.4593-.0945-.1136-.2362-.1706-.4252-.1706h-.6352l-.1995,1.2493ZM360.1316,785.8377c-.385,0-.6736-.0951-.8661-.2859-.1924-.1908-.2641-.4505-.2151-.7794h.5668c-.028.1748.0105.3121.1155.4121.1051.0997.266.1495.483.1495.2029,0,.3701-.049.5012-.1469.1313-.098.2109-.2327.2389-.4044.0209-.1504.0007-.2788-.0604-.3856-.0614-.1068-.1583-.1811-.2913-.2233l-.4566-.1364c-.266-.0803-.4619-.217-.5879-.4095-.126-.1922-.1697-.4197-.1313-.6823.035-.2099.1121-.3935.2309-.551s.2729-.2799.4619-.3673.4024-.1313.6404-.1313c.3498,0,.6158.0954.7978.2859.182.1908.2485.4437.1995.7586h-.5668c.0279-.168-.0027-.3001-.092-.3964-.0891-.0963-.2301-.1444-.4225-.1444-.1889,0-.343.0447-.4619.1338-.119.0894-.1889.2144-.21.3753-.0245.1506-.007.2791.0525.3859s.1575.1811.2939.223l.4672.1469c.2624.0806.4558.2173.5801.4095.1242.1925.1653.4217.1233.6877-.035.217-.1155.4058-.2415.5667-.1259.1612-.2878.2862-.4855.3753-.1976.0894-.419.1338-.6639.1338l-.0002.0002ZM363.2651,785.8377c-.3568,0-.6228-.1005-.7978-.3019-.175-.201-.2345-.473-.1784-.8161l.2677-1.7006c.056-.3429.2029-.6148.4408-.8161.2379-.201.5355-.3019.8923-.3019s.6228.1.7979.2993c.1748.1993.2361.4707.1837.8136l-.2677,1.7057c-.0561.3431-.2039.6151-.4435.8161-.2398.2013-.5381.3019-.895.3019ZM363.3439,785.3339c.1925,0,.3483-.0524.4672-.1575.119-.1051.1942-.2571.2257-.4568l.2678-1.7006c.0315-.1993.0051-.3517-.0787-.4565-.084-.1051-.2223-.1575-.4148-.1575s-.3473.0524-.4645.1575c-.1173.1048-.1916.2571-.2231.4565l-.2677,1.7006c-.0315.1996-.0053.3517.0787.4568s.2204.1575.4094.1575h0ZM365.2754,785.7853l.6088-3.8315h.7086l.6194,3.186c.007-.098.0165-.217.0289-.3571.0121-.1398.0271-.2851.0446-.4354.0175-.1506.0367-.2888.0577-.4146l.315-1.9788h.525l-.609,3.8315h-.7085l-.6141-3.186c-.0071.0945-.0167.209-.0289.3437s-.0272.2757-.0446.4226c-.0177.1469-.0367.2833-.0578.4095l-.315,2.0102h-.5301,0ZM368.2252,785.7853l1.5851-3.8315h.7454l.3726,3.8315h-.5616l-.0735-.9711h-1.0865l-.3884.9711h-.5932,0ZM369.3852,784.3418h.8714l-.0893-1.1023c-.0175-.1959-.0298-.3654-.0367-.5089-.0071-.1435-.0105-.2432-.0105-.2993-.0175.0561-.0517.1558-.1024.2993s-.1146.3112-.1915.5038l-.441,1.1075h0ZM371.7208,785.7853l.6088-3.8315h.567l-.525,3.3118h1.6744l-.0787.5197h-2.2465ZM376.6785,785.8377c-.3673,0-.6342-.1005-.8003-.3019-.1663-.201-.2214-.475-.1654-.8213l.4357-2.7608h.567l-.4357,2.7554c-.0315.1962-.008.35.0708.4619.0787.1122.2144.168.4068.168s.3473-.0558.4646-.168c.1172-.1119.1915-.2657.2231-.4619l.4355-2.7554h.567l-.4357,2.7608c-.056.35-.2003.6245-.433.8241-.2328.1993-.5328.299-.9003.299h0ZM379.8435,785.8377c-.385,0-.6736-.0951-.8661-.2859-.1924-.1908-.2641-.4505-.2151-.7794h.5668c-.028.1748.0105.3121.1155.4121.1051.0997.266.1495.483.1495.2029,0,.3701-.049.5012-.1469.1313-.098.2109-.2327.2389-.4044.0209-.1504.0007-.2788-.0604-.3856-.0614-.1068-.1583-.1811-.2913-.2233l-.4566-.1364c-.266-.0803-.4619-.217-.5879-.4095-.126-.1922-.1697-.4197-.1313-.6823.035-.2099.1121-.3935.2309-.551s.2729-.2799.4619-.3673.4024-.1313.6404-.1313c.3498,0,.6158.0954.7978.2859.182.1908.2485.4437.1995.7586h-.5668c.0279-.168-.0027-.3001-.092-.3964-.0891-.0963-.2301-.1444-.4225-.1444-.1889,0-.343.0447-.4619.1338-.119.0894-.1889.2144-.21.3753-.0245.1506-.007.2791.0525.3859s.1575.1811.2939.223l.4672.1469c.2624.0806.4558.2173.5801.4095.1242.1925.1653.4217.1233.6877-.035.217-.1155.4058-.2415.5667-.1259.1612-.2878.2862-.4855.3753-.1976.0894-.419.1338-.6639.1338l-.0002.0002ZM381.9062,785.7853l.6088-3.8315h2.2518l-.0787.5038h-1.6954l-.1731,1.0867h1.5115l-.0787.4986h-1.5115l-.1942,1.2387h1.6901l-.0787.5038h-2.2519ZM386.9426,785.8377c-.3568,0-.6228-.1005-.7978-.3019-.175-.201-.2345-.473-.1784-.8161l.2677-1.7006c.056-.3429.2029-.6148.4408-.8161.2379-.201.5355-.3019.8923-.3019s.6228.1.7979.2993c.1748.1993.2361.4707.1837.8136l-.2677,1.7057c-.0561.3431-.2039.6151-.4435.8161-.2398.2013-.5381.3019-.895.3019ZM387.0213,785.3339c.1925,0,.3483-.0524.4672-.1575.119-.1051.1942-.2571.2257-.4568l.2678-1.7006c.0315-.1993.0051-.3517-.0787-.4565-.084-.1051-.2223-.1575-.4148-.1575s-.3473.0524-.4645.1575c-.1173.1048-.1916.2571-.2231.4565l-.2677,1.7006c-.0315.1996-.0053.3517.0787.4568s.2204.1575.4094.1575h0ZM388.9529,785.7853l.6088-3.8315h.7086l.6194,3.186c.007-.098.0165-.217.0289-.3571.0121-.1398.0271-.2851.0446-.4354.0175-.1506.0367-.2888.0577-.4146l.315-1.9788h.525l-.609,3.8315h-.7085l-.6141-3.186c-.0071.0945-.0167.209-.0289.3437s-.0272.2757-.0446.4226c-.0177.1469-.0367.2833-.0578.4095l-.315,2.0102h-.5301ZM392.249,785.7853l.6088-3.8315h.567l-.525,3.3118h1.6744l-.0787.5197h-2.2465ZM396.1174,785.7853l.2204-1.4119-.7506-2.4197h.5774l.4462,1.4486c.0279.0945.0498.1837.0656.2677.0157.084.0253.1469.0288.1888.0175-.0419.0464-.1048.0867-.1888.0402-.084.0883-.1731.1442-.2677l.8976-1.4486h.5984l-1.5275,2.4197-.2204,1.4119h-.5668ZM399.217,785.7853l.6088-3.8315h.7086l.6192,3.186c.0071-.098.0165-.217.029-.3571.012-.1398.0271-.2851.0444-.4354.0177-.1506.037-.2888.0578-.4146l.315-1.9788h.5248l-.6088,3.8315h-.7085l-.6141-3.186c-.0071.0945-.0167.209-.0289.3437s-.0272.2757-.0446.4226c-.0177.1469-.0367.2833-.0578.4095l-.315,2.0102h-.5301.0002ZM403.5053,785.8377c-.3571,0-.6231-.1005-.7979-.3019-.1751-.201-.2344-.473-.1785-.8161l.2677-1.7006c.0561-.3429.203-.6148.4411-.8161.2378-.201.5354-.3019.8922-.3019.3571,0,.6228.1.7979.2993.1748.1993.2361.4707.1837.8136l-.2677,1.7057c-.0561.3431-.2039.6151-.4437.8161-.2395.2013-.5379.3019-.8947.3019h0ZM403.5839,785.3339c.1925,0,.3483-.0524.4673-.1575.1187-.1051.1942-.2571.2255-.4568l.2677-1.7006c.0316-.1993.0054-.3517-.0786-.4565-.084-.1051-.2224-.1575-.4146-.1575-.1925,0-.3474.0524-.4647.1575-.117.1048-.1914.2571-.223.4565l-.2677,1.7006c-.0316.1996-.0051.3517.0789.4568.0837.1051.2204.1575.4092.1575h0ZM406.3814,785.7853l.5248-3.3121h-1.0234l.084-.5194h2.6193l-.084.5194h-1.0289l-.5248,3.3121h-.567ZM409.5178,785.7853l.6088-3.8315h2.32l-.084.5194h-1.7636l-.1837,1.1445h1.6272l-.084.5248h-1.6166l-.2571,1.6428h-.567,0ZM413.7694,785.8377c-.3571,0-.6231-.1005-.7979-.3019-.1751-.201-.2344-.473-.1785-.8161l.2677-1.7006c.0561-.3429.203-.6148.4411-.8161.2378-.201.5354-.3019.8922-.3019.3571,0,.6228.1.7979.2993.1748.1993.2361.4707.1837.8136l-.2677,1.7057c-.0561.3431-.2039.6151-.4437.8161-.2395.2013-.5379.3019-.8947.3019h0ZM413.848,785.3339c.1925,0,.3483-.0524.4673-.1575.1187-.1051.1942-.2571.2255-.4568l.2677-1.7006c.0316-.1993.0054-.3517-.0786-.4565-.084-.1051-.2224-.1575-.4146-.1575-.1925,0-.3474.0524-.4647.1575-.117.1048-.1914.2571-.223.4565l-.2677,1.7006c-.0316.1996-.0051.3517.0789.4568.0837.1051.2204.1575.4092.1575h0ZM415.7952,785.7853l.6088-3.8315h1.202c.2381,0,.4391.0464.6037.139.1643.0928.2833.223.3568.391s.0911.3656.0527.5932c-.0387.2591-.1401.4838-.3044.6746-.1646.1905-.3659.3209-.6037.391l.5354,1.6428h-.6194l-.4776-1.5748h-.5408l-.2466,1.5748h-.567.0001ZM416.6876,783.7068h.635c.1891,0,.3491-.0558.4804-.168.131-.1119.2107-.2623.2386-.4514.0316-.1925,0-.3454-.0945-.4593-.0943-.1136-.2361-.1706-.4252-.1706h-.635l-.1993,1.2493h0ZM420.905,785.8377c-.3602,0-.6308-.1005-.8107-.3019-.1803-.201-.2423-.473-.1865-.8161l.2677-1.7006c.0561-.3463.2056-.6194.4488-.8187s.545-.2993.9056-.2993c.3568,0,.6253.1008.8056.3019.1803.2013.2423.4733.1865.8161h-.567c.0313-.1993.0026-.3517-.0866-.4565-.0894-.1051-.2284-.1575-.4175-.1575-.1925,0-.3508.0524-.475.1575-.1242.1048-.2019.2554-.2335.4514l-.2677,1.7057c-.0316.1996-.0026.3517.0866.4568.0894.1051.2301.1575.4226.1575s.35-.0524.4724-.1575.1993-.2571.2309-.4568h.5667c-.0347.2275-.1145.4252-.2386.5932s-.2808.2976-.4699.3884c-.1888.0908-.4024.1364-.6404.1364h0ZM424.0335,785.8377c-.3571,0-.6231-.1005-.7979-.3019-.1751-.201-.2344-.473-.1785-.8161l.2677-1.7006c.0561-.3429.203-.6148.4411-.8161.2378-.201.5354-.3019.8922-.3019.3571,0,.6228.1.7979.2993.1748.1993.2361.4707.1837.8136l-.2677,1.7057c-.0561.3431-.2039.6151-.4437.8161-.2395.2013-.5379.3019-.8947.3019h0ZM424.1121,785.3339c.1925,0,.3483-.0524.4673-.1575.1187-.1051.1942-.2571.2255-.4568l.2677-1.7006c.0316-.1993.0054-.3517-.0786-.4565-.084-.1051-.2224-.1575-.4146-.1575-.1925,0-.3474.0524-.4647.1575-.117.1048-.1914.2571-.223.4565l-.2677,1.7006c-.0316.1996-.0051.3517.0789.4568.0837.1051.2204.1575.4092.1575h0ZM425.9653,785.7853l.6088-3.8315h.6874l.1837,1.2282c.0211.119.0367.2301.0473.3332.0105.1034.0194.1828.0262.2389.0177-.0561.0473-.1364.0894-.2415.0419-.1051.0908-.217.1469-.336l.5667-1.2228h.7088l-.6088,3.8315h-.5354l.2045-1.2911c.0245-.168.0578-.3525.1-.5539.0419-.201.0874-.4041.1364-.6088s.0963-.3998.1418-.5852c.0453-.1854.0874-.3483.1259-.4881l-.8554,1.8632h-.5513l-.2833-1.8632c-.0037.1364-.0105.2947-.0211.475s-.0236.3719-.0393.5747c-.0157.203-.035.4069-.0578.6114-.0228.2047-.0481.3964-.076.5749l-.2047,1.2911h-.5407ZM429.1145,785.7853l.6088-3.8315h.6874l.1837,1.2282c.0211.119.0367.2301.0473.3332.0105.1034.0194.1828.0262.2389.0177-.0561.0473-.1364.0894-.2415.0419-.1051.0908-.217.1469-.336l.5667-1.2228h.7088l-.6088,3.8315h-.5354l.2045-1.2911c.0245-.168.0578-.3525.1-.5539.0419-.201.0874-.4041.1364-.6088s.0963-.3998.1418-.5852c.0453-.1854.0874-.3483.1259-.4881l-.8554,1.8632h-.5513l-.2833-1.8632c-.0037.1364-.0105.2947-.0211.475s-.0236.3719-.0393.5747c-.0157.203-.035.4069-.0578.6114-.0228.2047-.0481.3964-.076.5749l-.2047,1.2911h-.5407ZM432.4107,785.7853l.6088-3.8315h2.2516l-.0786.5038h-1.6955l-.1731,1.0867h1.5115l-.0786.4986h-1.5118l-.1942,1.2387h1.6901l-.0786.5038h-2.2516,0ZM435.5073,785.7853l.6088-3.8315h1.202c.2381,0,.4391.0464.6037.139.1643.0928.2833.223.3568.391s.0911.3656.0527.5932c-.0387.2591-.1401.4838-.3044.6746-.1646.1905-.3659.3209-.6037.391l.5354,1.6428h-.6194l-.4776-1.5748h-.5408l-.2466,1.5748h-.567.0001ZM436.3997,783.7068h.635c.1891,0,.3491-.0558.4804-.168.131-.1119.2107-.2623.2386-.4514.0316-.1925,0-.3454-.0945-.4593-.0943-.1136-.2361-.1706-.4252-.1706h-.635l-.1993,1.2493h0ZM439.8007,785.8377c-.3602,0-.6308-.1005-.8107-.3019-.1803-.201-.2423-.473-.1865-.8161l.2677-1.7006c.0561-.3463.2056-.6194.4488-.8187s.545-.2993.9056-.2993c.3568,0,.6253.1008.8056.3019.1803.2013.2423.4733.1865.8161h-.567c.0313-.1993.0026-.3517-.0866-.4565-.0894-.1051-.2284-.1575-.4175-.1575-.1925,0-.3508.0524-.475.1575-.1242.1048-.2019.2554-.2335.4514l-.2677,1.7057c-.0316.1996-.0026.3517.0866.4568.0894.1051.2301.1575.4226.1575s.35-.0524.4724-.1575.1993-.2571.2309-.4568h.5667c-.0347.2275-.1145.4252-.2386.5932s-.2808.2976-.4699.3884c-.1888.0908-.4024.1364-.6404.1364h0ZM441.8792,785.7853l.0789-.5038h.7768l.4459-2.824h-.7766l.0837-.5038h2.1258l-.084.5038h-.7766l-.4462,2.824h.7768l-.0789.5038h-2.1258.0002ZM444.7399,785.7853l1.585-3.8315h.7452l.3728,3.8315h-.5616l-.0735-.9711h-1.0867l-.3884.9711h-.5929,0ZM445.8998,784.3418h.8714l-.0894-1.1023c-.0174-.1959-.0296-.3654-.0367-.5089-.0068-.1435-.0103-.2432-.0103-.2993-.0177.0561-.0518.1558-.1025.2993s-.1148.3112-.1916.5038l-.4408,1.1075h0ZM448.2354,785.7853l.6088-3.8315h.567l-.5248,3.3118h1.6741l-.0786.5197h-2.2465,0ZM453.1932,785.8377c-.3676,0-.6345-.1005-.8005-.3019-.1663-.201-.2213-.475-.1654-.8213l.4357-2.7608h.567l-.4357,2.7554c-.0316.1962-.008.35.0709.4619.0786.1122.2141.168.4066.168s.3474-.0558.4645-.168c.1173-.1119.1916-.2657.2233-.4619l.4357-2.7554h.5667l-.4357,2.7608c-.0558.35-.2002.6245-.4328.8241-.2329.1993-.5328.299-.9001.299h-.0002ZM456.3581,785.8377c-.385,0-.6738-.0951-.866-.2859-.1925-.1908-.2643-.4505-.2153-.7794h.567c-.0282.1748.0105.3121.1153.4121.1051.0997.266.1495.483.1495.2028,0,.3699-.049.5012-.1469s.2107-.2327.2389-.4044c.0211-.1504.0009-.2788-.0604-.3856s-.1583-.1811-.2913-.2233l-.4568-.1364c-.266-.0803-.4619-.217-.5878-.4095-.1259-.1922-.1697-.4197-.1313-.6823.035-.2099.1119-.3935.2309-.551s.2731-.2799.4619-.3673c.1891-.0874.4024-.1313.6404-.1313.3497,0,.6157.0954.7979.2859.1817.1908.2483.4437.1993.7586h-.567c.0279-.168-.0026-.3001-.0917-.3964-.0894-.0963-.2301-.1444-.4226-.1444-.1891,0-.3429.0447-.4619.1338-.119.0894-.1891.2144-.2099.3753-.0245.1506-.0071.2791.0524.3859s.1575.1811.2939.223l.4673.1469c.2623.0806.4556.2173.5798.4095.1242.1925.1654.4217.1236.6877-.035.217-.1156.4058-.2415.5667-.1262.1612-.2879.2862-.4855.3753-.1979.0894-.4192.1338-.6641.1338l.0002.0002ZM458.4209,785.7853l.6088-3.8315h2.2516l-.0786.5038h-1.6955l-.1731,1.0867h1.5115l-.0786.4986h-1.5118l-.1942,1.2387h1.6901l-.0786.5038h-2.2516,0Z" style="fill: #ccc;"/>
  <g>
    <path d="M654.3888,101.4631l-.2521-.1499-.4479-.2137c-102.5289-48.6357-229.3144-51.0995-253.6886-51.0995s-151.1606,2.4638-253.6886,51.0995l-.4499.2137-.2493.1487c-7.5851,3.8729-12.4577,11.7932-12.4577,20.3335v454.2044c0,35.5382,4.3459,56.618,15.4991,75.1829,14.1205,23.4988,38.8154,39.1009,75.4945,47.7005,10.5353,2.4371,21.5069,4.3179,32.1165,6.1389,5.1173.8781,10.4098,1.7867,15.4692,2.7299,14.2263,2.7063,29.2176,6.1913,44.5153,10.3429,2.3495.6378,4.7153,1.2683,7.0864,1.9025,18.4728,4.9302,37.5725,10.0286,51.8431,19.0797l.2096.1336.2159.123c4.6285,2.6359,10.2354,5.8895,11.3962,6.6485,2.681,1.8318,4.9474,2.6574,6.1353,2.9989,2.205.6757,4.5139,1.0191,6.8643,1.0191s4.6556-.3415,6.8561-1.0172c1.187-.3415,3.457-1.1653,6.1381-2.9991,1.1508-.7516,6.7677-4.009,11.4006-6.6501l.2168-.123.2114-.1336c14.267-9.0512,33.3693-14.1495,51.8404-19.0797,2.3721-.6342,4.738-1.2647,7.0855-1.9025,15.3013-4.1533,30.2927-7.6365,44.5596-10.3537,5.0169-.9323,10.3104-1.841,15.4267-2.7191,10.6096-1.821,21.5793-3.7017,32.0839-6.1317,36.7115-8.6068,61.4064-24.2088,75.5252-47.7058,11.155-18.5668,15.5009-39.6464,15.5009-75.1847V121.7953c0-8.5391-4.8716-16.4606-12.4567-20.3323h.0001Z" style="fill: #ffd900;"/>
    <path d="M650.3744,108.7876l-.0859-.051-.0859-.051-.093-.0442c-100.911-47.8693-226.048-50.2929-250.1095-50.2929s-149.1987,2.4235-250.1105,50.2929l-.0921.0442-.0876.0524-.0859.0509c-4.9376,2.4127-8.1217,7.508-8.1217,13.0064v454.2044c0,33.8707,4.0116,53.7473,14.3076,70.8849,12.8966,21.4629,35.8743,35.8146,70.2434,43.8704,10.2779,2.3775,21.1285,4.2401,31.6214,6.0395,5.1463.8834,10.4686,1.7976,15.5857,2.7496,14.471,2.7552,29.6711,6.2854,45.1756,10.4947,2.3377.6342,4.6917,1.2629,7.0539,1.8916,19.078,5.0947,38.8081,10.3592,54.1601,20.0969l.0425.0271.0434.0254c3.4741,1.98,10.4422,5.9872,11.9453,6.988,1.9232,1.3261,3.4218,1.7995,3.8265,1.9096,1.4525.4535,2.9221.6739,4.4921.6739,1.569,0,3.0388-.2204,4.4904-.6739.402-.1101,1.9069-.5836,3.8571-1.9277,1.4743-.9828,8.4424-4.9898,11.9165-6.97l.0434-.0254.0425-.0271c15.351-9.7377,35.082-15.0022,54.1618-20.0969,2.3595-.6288,4.7144-1.2574,7.0513-1.8916,15.5036-4.2094,30.7072-7.7395,45.1846-10.4964,5.1091-.9503,10.4314-1.8645,15.5795-2.7479,10.4912-1.7994,21.3417-3.6621,31.6132-6.0378,34.3756-8.0576,57.3532-22.4094,70.2498-43.8722,10.296-17.1376,14.3067-37.0142,14.3067-70.8849V121.7953c0-5.4998-3.1842-10.5937-8.1226-13.0077h.0003Z" style="fill: #007022;"/>
    <path d="M649.3564,110.6724l-.1626-.0985c-105.5875-50.0865-237.2509-50.0865-249.1937-50.0865s-143.6052,0-249.1937,50.0865l-.1644.0985c-4.1218,1.9795-6.9998,6.2329-6.9998,11.123v454.2044c0,32.4218,3.5653,52.4103,14.0014,69.7811,13.6427,22.7058,37.9185,35.6286,68.8985,42.8911,15.2795,3.5337,31.6367,5.8896,47.1096,8.7694,15.64,2.9773,30.8842,6.6068,45.3454,10.5326,21.4591,5.8246,44.2624,11.1235,61.7985,22.2468,0,0,10.108,5.7577,12.072,7.0658,1.8978,1.3079,3.2392,1.6367,3.2392,1.6367,1.242.392,2.5202.5889,3.8933.5889,1.374,0,2.6512-.1969,3.8933-.5889,0,0,1.3415-.3288,3.2384-1.6367,1.9638-1.3081,12.0736-7.0658,12.0736-7.0658,17.5351-11.1235,40.3384-16.4222,61.7985-22.2468,14.4602-3.9258,29.7054-7.5553,45.3446-10.5326,15.4729-2.8798,31.8301-5.2357,47.1095-8.7694,30.98-7.2625,55.2558-20.1853,68.8984-42.8911,10.4359-17.3707,14.0014-37.3593,14.0014-69.7811V121.7953c0-4.8901-2.878-9.1433-7.0015-11.123h0Z" style="fill: url(#_未命名的渐变);"/>
    <path d="M526.6412,317.9734c-17.6336,0-34.1877,8.6696-44.2308,23.2125l-.1644.2452-207.7099,304.3496c-1.701,2.3901-2.5852,5.2031-2.5852,8.2129,0,6.7406,4.7442,12.5633,11.3528,13.9362,11.7123,2.2583,23.1619,4.4823,34.4813,6.8706,5.7261,1.2447,11.8434,2.421,18.321,3.5989,17.2082,3.2068,36.7396,6.8038,50.8729,12.6934,1.1779.4589,2.5193,1.1454,3.9248,1.8988,3.2059,1.57,6.4795,3.2051,8.998,3.3025l.0984.0344.0994-.0344c2.5501-.0976,5.7884-1.7325,8.9617-3.3025,1.4073-.7533,2.7488-1.4398,3.9258-1.8988,14.1333-5.8896,33.6647-9.4866,50.9062-12.6934,6.4433-1.178,12.5968-2.3541,18.321-3.5989,11.7765-2.486,24.1438-4.8724,36.1172-7.1958,14.3301-2.7496,29.1165-5.6277,43.3474-8.7693,19.2368-4.2529,32.5202-9.2264,43.2507-22.1801,14.8189-17.9289,16.0311-40.5352,16.0311-68.1785v-250.5035h-94.3195l.0003.0002Z" style="fill: #007721;"/>
    <path d="M526.6412,320.1825c-17.6011,0-33.1734,8.8494-42.4639,22.3448l-.131.2119-207.6772,304.3206c-1.4073,1.9277-2.2249,4.3503-2.2249,6.9339,0,5.7902,4.121,10.6645,9.5842,11.7773,11.6148,2.2258,23.2287,4.5148,34.5157,6.9031,21.4275,4.5473,50.0536,8.2129,69.6184,16.3899,3.7614,1.5718,9.0621,4.9086,12.1062,5.0405,3.0748-.1319,8.3737-3.4686,12.1676-5.0405,19.5649-8.1768,48.1258-11.8425,69.6202-16.3899,25.8782-5.5283,53.3912-10.2075,79.432-15.9652,18.8115-4.186,31.6684-8.9952,42.0059-21.4284,13.7412-16.5541,15.5406-36.9021,15.5406-66.8705v-248.2275h-92.0938,0Z" style="fill: url(#_未命名的渐变_2);"/>
    <path d="M400.0001,95.606c-119.3043,0-199.1157,29.8943-208.1091,33.42-.4426.1486-2.9158,1.0009-5.4008,2.307-4.4616,1.7556-7.4505,6.0558-7.4505,10.7463v158.066h441.921v-158.066c0-4.6905-2.9872-8.9894-7.4505-10.7463-2.485-1.3062-4.9582-2.1585-5.4009-2.307-8.9934-3.5257-88.8048-33.42-208.1091-33.42h-.0001Z" style="fill: #007936;"/>
    <path d="M612.269,134.1842l-.0569-.0194-.0433-.0261c-2.5021-1.3319-5.0892-2.1815-5.1416-2.1986-9.3837-3.6846-88.1228-33.2285-207.027-33.2262h-.0172c-118.8933.0013-197.6289,29.5417-207.0594,33.2433-.0027.0054-2.5925.8496-5.0947,2.1815l-.0425.0216-.0578.0239c-3.215,1.2217-5.5861,4.3007-5.5807,7.895v154.9567h435.7018v-154.9567c.0028-1.7669-.5744-3.4056-1.5382-4.7646l-.9774.6626.9774-.6626c-.9955-1.4055-2.4083-2.5089-4.0424-3.1304h0Z" style="fill: #ffd900;"/>
    <path d="M617.7721,136.3247l-1.4607.9901c.9638,1.359,1.541,2.9977,1.5382,4.7646v154.9567H182.1479v.8997h-1.7632v.8649h439.2283v-156.7214c-.001-2.1457-.692-4.1214-1.8409-5.7545h0Z" style="fill: #ffe980;"/>
    <path d="M612.9348,132.5492c-2.6449-1.3996-5.2844-2.2596-5.3124-2.27-9.4777-3.7216-88.4255-33.3295-207.6223-33.3295s-198.1456,29.6079-207.6718,33.3464c.019-.005-2.6206.8536-5.2654,2.2532-3.8337,1.4728-6.6774,5.1544-6.6782,9.53v155.8564h1.7632v-155.8564c-.0054-3.5943,2.3657-6.6733,5.5807-7.895l.0578-.0239.0425-.0216c2.5022-1.3319,5.092-2.1761,5.0947-2.1815,9.4305-3.7018,88.1662-33.242,207.0594-33.2433h.0172c118.9041-.0022,197.6434,29.5417,207.027,33.2262.0524.0171,2.6395.8668,5.1416,2.1986l.0433.0261.0569.0194c1.6341.6215,3.0469,1.725,4.0424,3.1304l1.4607-.9901c-1.1942-1.6973-2.8825-3.0252-4.8372-3.7755h-.0001Z" style="fill: #dea900;"/>
    <path d="M284.403,219.5772l-.2348,1.9394c-.0036.0371-.4553,3.6657-.9042,5.5603l-.0308.1378c-.0334.2137-3.6123,21.2057-10.6184,30.7782-3.9719,5.4109-10.0033,8.5196-16.5496,8.5196-3.7262,0-7.3793-1.0347-10.5824-2.9886-.8473-.5872-1.3748-1.5289-1.4417-2.5975v-110.8982c0-6.9944,5.2122-13.0515,12.1171-14.0939l2.8102-.4258-4.3594-10.3651-1.7976.3957c-31.4263,6.9352-53.9459,14.9955-54.1736,15.0732l-1.4607.5312v10.365l3.0341-1.2222c.9305-.3734,1.9195-.5672,2.933-.5672,4.3378,0,7.8661,3.5306,7.8661,7.8873l.0099,1.2257v97.1844l.0045,4.1285c0,6.592-5.1488,11.9608-11.7214,12.2232l-2.1237.0814v12.8727h91.8372l5.3665-65.745h-9.9806.0002Z" style="fill: #ffe980;"/>
    <path d="M380.4704,227.6226c-.0406.1418-3.3215,14.0796-12.3039,26.2787-5.6349,7.6529-14.1838,12.0394-23.4483,12.0394l-4.7786-.0109c-.8744,0-1.5907-.7181-1.5907-1.5993v-54.0458c3.1372.837,10.4703,5.7131,13.4811,32.6164l.2168,1.9653h8.5752v-90.07h-8.5752l-.2168,1.9657c-3.0108,26.8957-10.3393,31.7795-13.4811,32.6128v-62.1615c10.4107-.6539,17.1278.7886,21.5486,4.6484,5.2834,4.6218,9.5174,17.4421,10.6898,21.2608.7733,2.5262,2.4779,7.428,2.5518,7.6417l.5637,1.6209,13.7547-1.1951-8.511-50.7319-1.9286.0561c-44.9282,1.327-82.0398,7.3237-82.4057,7.3832l-1.8545.3066v13.1641l3.0316-1.2141c.7235-.2912,1.4868-.4377,2.2709-.4377,3.3414,0,6.0577,2.7245,6.0577,6.069v126.4902c0,4.9393-3.8789,8.9636-8.8254,9.1546l-2.1192.112v13.7801h84.6641l12.5651-56.7137.0532-.2466v-2.4543h-9.5922l-.393,1.7149h-.0001Z" style="fill: #ffe980;"/>
    <path d="M501.82,221.6662c1.2628-7.619,1.9059-15.8509,1.9059-24.4636,0-8.1605-.6431-16.022-1.9131-23.3533-1.2629-7.338-3.0822-14.2142-5.4028-20.4275-2.3251-6.2293-5.1869-11.9382-8.5119-16.9642-3.3405-5.0405-7.1-9.397-11.1839-12.9512-4.1137-3.5754-8.6439-6.3702-13.4629-8.3023-4.8345-1.9502-9.9808-2.933-15.2977-2.933-5.306,0-10.4505.9828-15.2967,2.933-4.8065,1.9322-9.3303,4.7008-13.4413,8.2355-4.0838,3.5126-7.8507,7.8765-11.1983,12.9694-3.3251,5.0631-6.1914,10.7919-8.5147,17.0131-2.3179,6.2135-4.1372,13.1111-5.4045,20.4907-1.2592,7.3656-1.9023,15.2792-1.9023,23.5111,0,8.3918.6431,16.4557,1.8988,23.9664,1.2665,7.5255,3.083,14.5989,5.3991,21.0332,2.3251,6.4605,5.1914,12.3604,8.5165,17.5356,3.3368,5.2017,7.0919,9.693,11.1649,13.3469,4.1246,3.7031,8.6501,6.5955,13.4585,8.5982,4.8507,2.0324,10.0069,3.0568,15.3201,3.0568s10.4585-.9833,15.2977-2.9268c4.8308-1.9386,9.3637-4.7789,13.482-8.436,4.0793-3.6287,7.8389-8.0828,11.1722-13.2389,3.3251-5.138,6.1913-11.0191,8.5192-17.4837,2.3133-6.4379,4.1326-13.5751,5.3954-21.2089v-.0003ZM447.0683,130.3822c3.12,0,5.8391,1.4119,8.3069,4.3156,2.6819,3.1535,4.9846,7.6936,6.8443,13.4995,1.9143,5.9489,3.3748,13.1757,4.3495,21.4818.9864,8.3737,1.4796,17.7076,1.4796,27.7443,0,10.1967-.4932,19.7437-1.4823,28.383-.9766,8.5757-2.4417,16.0744-4.3541,22.292-1.869,6.0761-4.185,10.855-6.8752,14.1997-2.4661,3.06-5.1724,4.5544-8.2688,4.5544-3.139,0-5.8697-1.4945-8.3593-4.5626-2.7118-3.3441-5.0252-8.1155-6.8679-14.187-1.8979-6.2329-3.3541-13.7326-4.326-22.2965-.9874-8.6203-1.4841-18.171-1.4841-28.383,0-10.0512.4969-19.3851,1.4841-27.7443.972-8.2952,2.4209-15.5248,4.3188-21.4925,1.8427-5.7911,4.1399-10.328,6.8462-13.4852,2.485-2.9037,5.2275-4.3191,8.3882-4.3191h0Z" style="fill: #ffe980;"/>
    <path d="M601.5034,141.5431c-.1626-.0596-16.6336-6.2256-38.352-11.6027l-2.7352-.6756v10.8618l.0307,2.2082h1.8499c6.5455,2.261,10.9212,8.3519,10.9212,15.2605v32.392l-34.914-65.7857-1.0163-.2096c-.2348-.0483-24.2351-5.0179-41.211-7.0282l-2.4732-.2912v13.4887l2.2672-.0487.2584-.0036c6.2519,0,11.334,5.0747,11.334,11.3032v117.205c0,6.4719-5.0749,11.7405-11.5427,11.9978l-2.0885.0118-.0162,2.1973v12.4983h44.3382v-14.7335l-2.1218-.0814c-6.5725-.266-11.5272-5.2315-11.5272-11.5693v-78.4157l55.925,104.7999h11.8415v-123.9826c0-4.6597,3.792-8.4563,8.4514-8.4563h2.2123v-10.8065l-1.4317-.5338h.0002Z" style="fill: #ffe980;"/>
    <path d="M388.2426,228.1158h-5.6196l-.001.0036h-.0036s-1.7444,7.5494-6.2663,16.5496c-1.7182,3.4186-3.8229,7.039-6.4045,10.5444-5.727,7.7721-14.8405,12.9431-25.2322,12.9431l-4.7713-.0113c-2.1038,0-3.8048-1.7078-3.8048-3.8112v-56.3062s.3803-.1115,1.0389-.1152c.0271,0,.0551.0009.083.0009.0768.001.1563.0023.2394.0069.047.0017.0985.0063.1482.0099.0785.0058.1572.0103.2402.0199.1302.0135.2647.0321.4056.0559.0623.0099.1283.0254.1915.0379.0967.019.1925.0385.2927.0623.0695.0163.1418.0367.2122.0561.1039.028.2078.0578.3144.0911.0731.0226.1464.0475.2204.0727.1147.0402.234.0854.3532.1329.0696.0276.14.0551.2122.0859.1482.0632.3008.1354.4553.2119.0452.0226.0886.0416.1346.065.2032.1046.411.2222.6224.351.0425.0261.0859.0569.1292.0835.1689.1066.3397.2208.5141.3441.0677.0487.1363.1016.205.1526.1536.1142.3081.2345.4625.3626.0751.0618.1499.1246.225.1902.159.1368.3197.284.4805.4371.0687.0645.1374.1274.207.1956.2013.1988.4055.4124.6089.6382.028.0298.0551.0559.0822.0866.2358.2643.4725.5474.71.8491.0497.0623.0994.1324.1491.1974.1834.2394.3677.4887.5519.7516.075.108.1499.2212.225.3328.1617.2381.3224.4865.4824.7443.0814.1302.1626.2629.2439.3984.1608.2702.3225.5528.4824.8432.0741.1341.1482.2643.2223.4029.1996.3748.3984.7682.5953,1.1774.0325.0664.065.126.0975.1938.2267.4779.4507.9823.6748,1.5086.0668.1578.1327.3275.1987.49.1544.3763.3081.7611.4607,1.1622.0841.2235.1671.4553.2512.687.1327.3671.2638.7442.3957,1.1323.0859.2565.1716.5149.2565.7799.1292.4015.2557.8194.3822,1.242.0795.2692.1617.5329.2403.8112.1464.5139.289,1.0524.4299,1.597.0759.2922.1517.5826.2267.8834.16.6454.3161,1.3089.4679,1.9963.0795.3559.1555.7326.2331,1.1011.0975.4706.196.9439.2917,1.4341.0822.4246.1626.8622.2421,1.3013.0841.4642.1662.9367.2476,1.4173.0795.4743.1581.9525.2348,1.4435.0741.4779.1454.9724.2168,1.4661.075.5208.1516,1.0356.2231,1.5745.064.4846.1228.9941.1843,1.4941.065.5257.1319,1.0393.1924,1.5817h4.3856v-85.6572h-4.3856c-.0615.5461-.1283,1.0618-.1933,1.5912-.0615.4955-.1192,1.001-.1833,1.4824-.0723.5461-.1491,1.0682-.2259,1.5961-.0696.4828-.14.9675-.2122,1.4348-.0785.5009-.1589.9892-.2402,1.4725-.0786.4671-.1581.9264-.2403,1.3771-.0822.4548-.1653.906-.2501,1.3455-.0894.4602-.1826.906-.2746,1.3495-.083.3984-.1644.803-.2493,1.1878-.1273.5686-.2574,1.1134-.3893,1.6532-.1166.4805-.2348.9476-.355,1.4055-.1219.461-.243.9227-.3676,1.3618-.0913.3251-.1861.6332-.2801.9461-.1112.3677-.2212.734-.3333,1.0858-.0995.3089-.1997.6089-.299.9055-.1129.3333-.2267.6581-.3404.9766-.1012.2805-.2024.5601-.3044.8292-.1219.3197-.2439.6259-.3687.9296-.0957.2397-.1915.486-.29.7154-.1851.4359-.3731.8518-.5609,1.2547-.1156.2461-.2313.4792-.3478.7135-.1356.2732-.2709.5479-.4073.8058-.1102.2065-.2204.4011-.3298.5976-.1201.2141-.2402.4264-.3603.6288-.1137.1938-.2294.3803-.3441.5637-.1174.1865-.2348.3672-.3514.5434-.1156.1735-.2303.346-.346.51-.1192.168-.2367.3261-.3558.4841-.113.1509-.2259.3066-.3379.4485-.1516.191-.3017.3663-.4525.5419-.1844.2141-.3687.4164-.5502.6097-.1029.1084-.205.2195-.3081.3216-.1265.1261-.2528.2434-.3784.36-.0967.0889-.1915.1775-.2873.2614-.1283.112-.2547.219-.3812.3212-.0876.0713-.1762.1396-.2638.2068-.1282.0989-.2584.1964-.3847.2859-.0731.051-.1445.0972-.2168.1449-.4878.3266-.9593.5872-1.4065.7895-.0334.0153-.0677.033-.1011.0475-.1437.0628-.2836.1179-.4209.1703-.0398.0148-.0786.0303-.1166.0438-.1418.0502-.28.097-.4145.1378-.0217.0058-.0434.0123-.065.019-.7715.2245-1.4327.29-1.9359.29-.6774,0-1.066-.1088-1.066-.1088v-66.4776c1.066-.0903,2.1021-.1548,3.1218-.2068.1608-.0072.3234-.0172.4832-.0244.9756-.0433,1.9295-.066,2.8616-.0686.1753-.001.3468,0,.5203.0013,1.746.0081,3.4137.0917,5.0008.2601.1644.0177.3288.0347.4914.0547.776.0917,1.5348.201,2.2709.3365.0832.0153.1635.0339.2466.0502.6758.1305,1.3333.2818,1.9737.4517.1273.0344.2574.0655.384.1002.6785.191,1.3369.4051,1.9746.644.1201.0443.2358.094.3532.1405.5754.2272,1.1345.4733,1.6746.743.0841.0416.1708.0791.2547.1224.5762.2975,1.1272.6269,1.6621.9764.1336.0881.2656.1794.3965.2702.5004.3473.9874.7137,1.4489,1.1115.0288.0248.0596.0456.0886.0704,2.0984,1.8346,4.0432,4.8025,5.7559,8.1354,2.4075,4.685,4.3531,10.0967,5.5952,14.1422.7731,2.5149,2.5266,7.5666,2.5266,7.5666l9.6618-.8405-7.8046-46.4714c-45.2948,1.3333-82.1112,7.3534-82.1112,7.3534v8.0182c.9512-.3807,1.9946-.5976,3.0849-.5976,4.0044.0013,7.3331,2.8446,8.1027,6.6164.1103.5388.1681,1.0966.1681,1.6679v126.4938c0,2.634-.9096,5.0599-2.4245,6.9907-1.7597,2.2411-4.3405,3.8089-7.2816,4.2505-.0389.0054-.075.0158-.1137.0209-.1635.0234-.3333.0293-.5005.0452-.2077.0199-.4137.0475-.6251.0554v9.4758h80.6777l.001-.0036h.0017l3.961-17.8797,8.2247-37.0996v-.0154h-.0044v-.0036h-.001Z" style="fill: #00774e;"/>
    <path d="M286.3569,221.8292c-.0389.3084-.2836,2.233-.5908,3.9903-.1102.6387-.2294,1.2547-.3505,1.7615,0,0-3.6169,21.601-11.0195,31.7163-4.1507,5.6643-10.7774,9.4229-18.3281,9.4234-.8852,0-1.7551-.064-2.6123-.1644-.1906-.0216-.384-.0344-.5718-.0615-.0371-.005-.0741-.0136-.111-.0194-3.074-.4553-5.9438-1.5338-8.4885-3.0952-1.1589-.7845-1.9657-1.9999-2.2899-3.4051-.074-.3211-.1481-.6423-.1653-.9815v-110.9609c0-7.7391,5.3467-14.2285,12.5389-15.9918.4787-.1174.9665-.2141,1.4616-.2886l-2.5401-6.05c-.001,0-.0018.001-.0028.001l-.0017-.0045c-17.5713,3.8797-32.2375,8.0734-41.8153,11.0381-7.1315,2.2067-11.4449,3.7338-12.0149,3.9371-.0425.0155-.065.0236-.065.0236v5.5379c1.157-.4676,2.4235-.7254,3.7568-.7254,5.2148.001,9.5038,3.9646,10.0204,9.044.0344.3387.0515.6815.0515,1.0298l.0145,1.2483v101.3094c0,7.1846-5.2519,13.1451-12.1225,14.2493-.0975.0148-.1924.0411-.2917.0542-.1698.0244-.3451.0293-.5158.047-.3027.0312-.6025.0682-.9096.0808v8.5449h87.5881l5.0035-61.3314h-5.6222s-.0018.0145-.0054.0429h-.0004Z" style="fill: #00774e;"/>
    <path d="M500.5092,221.4498c1.251-7.5481,1.886-15.705,1.886-24.2427,0-8.0973-.635-15.8766-1.8906-23.1261-1.2483-7.2677-3.0442-14.0605-5.3359-20.1927-2.2862-6.1349-5.1109-11.7543-8.3809-16.7018-3.27-4.9398-6.9466-9.1998-10.9445-12.6789-3.9991-3.4782-8.4081-6.195-13.0845-8.0743-4.6792-1.887-9.6556-2.8395-14.8054-2.8395-5.1345,0-10.1144.9525-14.8044,2.8395-4.671,1.8757-9.0638,4.5734-13.0701,8.0109-3.9908,3.4339-7.6745,7.7044-10.9517,12.6898-3.27,4.9846-6.0911,10.623-8.381,16.7542-2.2871,6.1357-4.0848,12.944-5.3368,20.2487-1.2556,7.2903-1.8906,15.1259-1.8906,23.2901,0,8.3178.635,16.3026,1.887,23.7422,1.2556,7.4505,3.0487,14.453,5.3359,20.8051,2.2943,6.371,5.1155,12.1776,8.3809,17.2669,3.2727,5.0965,6.9511,9.4983,10.9409,13.0782,4.0053,3.5984,8.4143,6.4153,13.0782,8.3619,4.6854,1.962,9.67,2.9561,14.8116,2.9561,5.1453,0,10.1226-.9571,14.8054-2.8405,4.6881-1.8789,9.0945-4.6331,13.0917-8.1903,3.9908-3.5532,7.6763-7.9139,10.9418-12.9694,3.2655-5.0518,6.0902-10.8471,8.3764-17.2108,2.2945-6.3557,4.0875-13.4142,5.3405-20.9768h-.0001ZM437.6819,263.1274c-2.821-3.4823-5.213-8.4035-7.111-14.6401-1.9195-6.307-3.3893-13.8884-4.3757-22.5273-.9864-8.6655-1.4895-18.2651-1.4895-28.5331,0-10.1144.5031-19.5008,1.4895-27.9048.9837-8.3737,2.4562-15.6865,4.3757-21.7319,1.8907-5.9669,4.2827-10.6564,7.0965-13.9521,2.7496-3.2175,5.8246-4.783,9.4008-4.783,3.5355,0,6.5797,1.5655,9.315,4.783,2.7993,3.2876,5.1869,7.9808,7.1037,13.9521,1.9313,6.0346,3.4181,13.3401,4.3973,21.7319.9864,8.4256,1.4941,17.812,1.4941,27.9048,0,10.2419-.5077,19.8449-1.4941,28.533-.9864,8.6496-2.4661,16.2312-4.4018,22.5237-1.9168,6.2437-4.3088,11.1686-7.1135,14.6472-2.7362,3.3959-5.7767,5.0441-9.3005,5.0441-3.5618,0-6.6331-1.6482-9.3864-5.0478v.0002Z" style="fill: #00774e;"/>
    <path d="M601.0328,142.7833c-.1644-.0632-16.5596-6.195-38.1939-11.5534l-1.1002-.2727v9.1695l.0307.8817h.747c7.1977,2.3883,12.0285,9.0354,12.0285,16.5834v37.7238l-36.9211-69.5741-.1979-.3699-.4083-.0827c-.2385-.0487-24.1744-5.0102-41.0972-7.0097l-.9901-.1156v9.6926h.8853v.0067l.0261.9237c.0886,0,.1787-.0036.2872,0,6.9799,0,12.6637,5.6646,12.6637,12.6292v117.2015c0,7.1854-5.634,13.0371-12.8244,13.3247l.0298.8822h-.8555v11.1722h41.6889v-12.1329l-.8474-.0334c-7.2978-.2878-12.8053-5.8327-12.8053-12.8881v-83.7251l58.046,108.7794h9.7197v-122.6565c0-5.3922,4.3856-9.7787,9.7783-9.7787h.8853v-8.5644l-.5754-.2132v-.0003Z" style="fill: #00774e;"/>
    <path d="M256.0697,270.4922c-4.4778,0-8.875-1.2439-12.7132-3.6061l-.0334-.019-.0262-.018c-1.934-1.3081-3.1128-3.4078-3.2347-5.7658l-.0045-.0443v-111.006c0-8.1949,5.5906-15.3838,13.3176-17.5587l-1.1437-2.7275c-26.4211,5.9108-46.1837,12.5136-51.0797,14.2064v1.9539c.654-.1115,1.3234-.164,1.9963-.164,6.5283,0,11.8415,5.3093,11.8415,11.8407l.0099,1.2257v101.3356c0,8.1615-5.951,14.9051-13.8433,16.0415v5.1643h84.1926l4.7161-57.7977h-2.1563c-.1833,1.2931-.4597,3.1161-.756,4.3789-.2575,1.51-3.8861,22.241-11.3285,32.4114-4.727,6.4497-11.9273,10.1487-19.7546,10.1487h0Z" style="fill: url(#_未命名的渐变_3);"/>
    <path d="M371.3724,256.2599c-6.3936,8.6832-16.1125,13.6603-26.6569,13.6603l-4.7759-.0036c-3.0676,0-5.5671-2.5076-5.5671-5.5825v-57.6369l1.2746-.3699c.1482-.0407.6992-.1829,1.5582-.1829,4.2925,0,14.5687,3.4232,18.3951,34.7424h1.046v-82.1108h-1.046c-3.8264,31.3161-14.1025,34.7463-18.3951,34.7463-.859,0-1.41-.1418-1.5582-.1905l-1.2746-.3699v-69.426l1.6178-.1341c2.4922-.2132,4.7343-.3135,6.8534-.3135,8.904,0,15.1559,1.8341,19.6689,5.7803,5.9077,5.1634,10.2761,17.8639,11.8749,23.0848.5159,1.677,1.4905,4.5355,2.0623,6.2026l6.371-.5533-7.2301-43.0601c-38.9355,1.2443-71.6301,5.9483-78.8529,7.0503v4.2298c.4363-.0551.8752-.0894,1.3187-.0894,5.5382,0,10.0403,4.5138,10.0403,10.0521v126.4938c0,6.5052-4.6854,11.8971-10.9472,12.9512v6.1158h77.489l11.408-51.4595h-2.0523c-1.0795,3.9497-4.7154,15.6409-12.6219,26.3732h-.0003Z" style="fill: url(#_未命名的渐变_4);"/>
    <path d="M498.764,174.3804c-1.234-7.1556-2.998-13.8406-5.2537-19.8752-2.2421-6.0084-4.9999-11.505-8.1949-16.3437-3.1796-4.8015-6.7586-8.9491-10.6347-12.3198-3.8508-3.3514-8.081-5.9632-12.5805-7.7722-4.4687-1.793-9.2291-2.7085-14.1468-2.7085-4.9095,0-9.6673.9156-14.1387,2.7085-4.4993,1.8089-8.7297,4.4018-12.5822,7.7197-3.8671,3.3256-7.4424,7.4695-10.6302,12.3163-3.1986,4.8761-5.9556,10.3913-8.1975,16.3996-2.2574,6.0346-4.0215,12.7341-5.2537,19.9311-1.2367,7.1891-1.8617,14.9268-1.8617,22.9908,0,8.2211.6251,16.1084,1.8617,23.4474,1.2322,7.3461,3.0009,14.2475,5.2573,20.4984,2.2458,6.2437,5.0026,11.9346,8.2013,16.9114,3.1878,4.9665,6.7631,9.2449,10.6347,12.7236,3.8643,3.4633,8.0973,6.1692,12.5805,8.0409,4.4705,1.8725,9.2265,2.8214,14.1288,2.8214,4.9176,0,9.6736-.9119,14.1468-2.713,4.4995-1.7971,8.7252-4.4506,12.5778-7.8728,3.8789-3.4452,7.4505-7.6863,10.6338-12.6076,3.1905-4.9433,5.9519-10.6081,8.194-16.8445,2.2601-6.2663,4.0243-13.216,5.2583-20.6701,1.2367-7.4515,1.8645-15.5104,1.8645-23.9551,0-7.9966-.6278-15.6789-1.8645-22.8267h-.0003ZM469.6411,226.1574c-.9955,8.7625-2.4994,16.4525-4.4687,22.8529-1.9846,6.4497-4.4768,11.5761-7.4243,15.2263-3.046,3.7894-6.6447,5.7062-10.6799,5.7062-4.0694,0-7.6936-1.9168-10.7585-5.7017-2.9655-3.6585-5.466-8.7857-7.4271-15.2345-1.952-6.4194-3.4461-14.1021-4.4443-22.8493-.9927-8.7286-1.504-18.3948-1.504-28.7303,0-10.1858.5114-19.6429,1.504-28.1097.9982-8.4862,2.4923-15.911,4.447-22.0652,1.962-6.1872,4.4661-11.0896,7.4406-14.5615,3.0631-3.583,6.68-5.4023,10.7423-5.4023,4.0279,0,7.6104,1.8193,10.6636,5.4023,2.9484,3.4683,5.4478,8.3665,7.4334,14.5578,1.9764,6.1429,3.4805,13.5637,4.4759,22.0689.9999,8.4925,1.5058,17.9466,1.5058,28.1097,0,10.3096-.506,19.9754-1.5058,28.7303v.0002Z" style="fill: url(#_未命名的渐变_5);"/>
    <path d="M510.5559,141.4158v117.2015c0,7.843-5.9267,14.2886-13.6418,15.0247v8.5866h38.1533v-8.6872c-7.8462-.71-13.6598-6.8494-13.6598-14.5994v-90.7944l60.8752,114.081h6.8905v-120.8888c0-6.0684,4.7081-11.0607,10.6645-11.5131v-5.597c-3.0116-1.1025-17.5839-6.3075-36.3277-11.0078v6.2586c7.6835,2.7502,12.8016,9.9508,12.8016,18.1115v44.831l-40.0602-75.4863c-3.1562-.6459-24.01-4.8689-39.5507-6.7785v6.8679c7.6899.2995,13.8551,6.6362,13.8551,14.3897h0Z" style="fill: url(#_未命名的渐变_6);"/>
    <path d="M258.7517,632.1099h-10.6338v-38.0458h24.2351v9.2102h-13.6012v5.438h12.7051v9.1686h-12.7051v14.229h0ZM250.7663,629.4615h5.3368v-14.2325h12.6997v-3.8643h-12.6997v-10.7423h13.5975v-3.9077h-18.9345v32.7469h.0001Z" style="fill: #007721;"/>
    <polygon points="249.4412 595.3866 271.0277 595.3866 271.0277 601.9519 257.4256 601.9519 257.4256 610.0385 270.1333 610.0385 270.1333 616.5586 257.4256 616.5586 257.4256 630.784 249.4412 630.784 249.4412 595.3866" style="fill: #fff;"/>
    <path d="M306.808,626.4843c2.5301-3.1328,5.754-4.6937,9.6709-4.6937,5.2374,0,9.0711,2.0922,11.501,6.2834,1.337,2.3468,2.0505,4.7189,2.1481,7.0857h-6.5762c-.4228-1.8247-.9601-3.1959-1.6071-4.121-1.1806-1.6495-2.9096-2.475-5.2202-2.475-2.3423,0-4.185,1.169-5.5382,3.4903-1.3487,2.3199-2.0316,5.6204-2.0316,9.8769s.7091,7.4433,2.1408,9.5642c1.4282,2.1228,3.2402,3.1796,5.448,3.1796,2.2537,0,3.9755-.9159,5.1534-2.7225.6522-.9828,1.2032-2.4516,1.6287-4.4136h6.5428c-.5683,4.1372-2.0027,7.4992-4.3206,10.0972-2.3224,2.5925-5.2872,3.8933-8.9112,3.8933-4.4805,0-7.9989-1.7651-10.5625-5.2664-2.5672-3.5121-3.8525-8.3394-3.8525-14.4638,0-6.6249,1.4607-11.7287,4.3865-15.3147" style="fill: #007f27;"/>
    <path d="M405.1481,542.6332c0,50.0183,40.6835,90.6999,90.7009,90.6999s90.6981-40.6817,90.6981-90.6999-40.6853-90.6964-90.6981-90.6964-90.7009,40.6871-90.7009,90.6964" style="fill: none;"/>
    <path d="M495.8517,450.1662c-50.9884,0-92.4723,41.482-92.4723,92.4723s41.4838,92.4687,92.4723,92.4687,92.465-41.4838,92.465-92.4687-41.4757-92.4723-92.465-92.4723h0Z" style="fill: #e1e1e2;"/>
    <path d="M495.849,633.3331c-50.0174,0-90.7009-40.6871-90.7009-90.6982s40.6835-90.6981,90.7009-90.6981,90.6981,40.6817,90.6981,90.6981-40.6853,90.6982-90.6981,90.6982h0Z" style="fill: url(#_未命名的渐变_7);"/>
    <path d="M521.3026,527.4411c1.1129.0886,20.4845,1.6025,34.3611,4.233,1.346-2.3866,6.793-12.4747,8.7432-22.1782-7.6222-16.798-20.648-28.5139-25.3109-32.3639-12.5101-4.7009-25.2883-4.439-28.7688-4.2637-.9963,2.2276-5.8625,13.2318-10.3384,25.4608,1.8283,1.9258,11.5245,12.4548,21.3137,29.112Z" style="fill: url(#_未命名的渐变_8);"/>
    <path d="M461.2259,510.878c-9.3854-6.1408-22.9468-13.7268-25.4246-15.0944-2.3197,1.5791-13.9814,9.8208-24.2413,22.6335-2.2204,7.6926-3.4082,15.8206-3.4082,24.216,0,3.7488.2385,7.436.6946,11.0583,9.8272,8.9447,24.2765,15.454,26.6206,16.4656,2.5094-2.54,12.5389-12.4656,26.2674-22.9423-.4263-2.9141-2.2411-17.1918-.5085-36.3367h0Z" style="fill: url(#_未命名的渐变_9);"/>
    <path d="M498.091,497.8251c4.4759-12.2418,9.3638-23.3128,10.4287-25.692-14.2244-12.7457-28.4326-15.6599-28.7163-15.7195-11.6121,2.1553-22.4338,6.6124-31.962,12.8687-.1572.253-8.8299,14.3446-10.6193,25.058,3.4082,1.897,16.1315,9.0512,25.0904,14.9191,2.5375-1.4201,14.8352-7.8317,35.7785-11.4341h0Z" style="fill: url(#_未命名的渐变_10);"/>
    <path d="M539.7944,475.1808c4.204,3.3947,17.8387,15.2912,25.9848,32.6241,1.1988.6016,8.3655,4.3378,14.2996,10.4224-6.3449-21.871-20.9921-40.2372-40.2914-51.4564.6657,3.4759.0452,8.0918.0073,8.4098h-.0002Z" style="fill: url(#_未命名的渐变_11);"/>
    <path d="M542.5865,597.999c2.1706-1.6404,17.9056-13.9183,23.6731-30.8789-.8735-4.1064-5.0277-22.8268-10.6852-33.4768-13.2092-2.5257-31.6711-4.0305-34.1896-4.2365-1.4833,2.4443-9.1361,14.7295-21.553,30.2069.5168,2.2221,4.2554,18.0175,10.968,35.9374,2.2674.5871,10.9355,2.486,27.616,2.486,1.3379,0,2.7272-.0145,4.1706-.0379h0Z" style="fill: url(#_未命名的渐变_12);"/>
    <path d="M567.9425,568.2528c-6.2184,17.6616-22.2359,29.8816-24.2649,31.3703-.0569,2.1048-.6133,10.5633-5.7695,19.9433,21.582-11.8461,37.6637-32.5049,43.3735-57.0985-1.9385,1.6802-4.6737,3.4905-8.3429,4.6629-1.4698.4969-3.1463.9124-4.9962,1.1219h0Z" style="fill: url(#_未命名的渐变_13);"/>
    <path d="M462.9069,548.7684c-14.1242,10.7964-24.2865,20.9587-26.2828,22.993,2.7361,16.9226,8.632,28.9387,10.5372,32.4959,16.1232,10.0558,34.5255,12.4314,36.6926,12.6861,2.6874-1.6856,13.6238-8.8543,25.0434-20.881-6.3232-16.9443-10.0213-31.9738-10.8515-35.5002-3.0225-.6577-20.3824-4.5853-35.1389-11.7937h0Z" style="fill: url(#_未命名的渐变_14);"/>
    <path d="M483.2044,618.8259c-3.5645-.448-20.723-3.0369-36.1768-12.3682-3.0316,1.4127-6.2853,2.0939-8.6023,2.4118,15.1855,13.1739,34.914,21.2261,56.4977,21.4555-3.6403-2.157-8.352-5.8029-11.7186-11.4992h0Z" style="fill: url(#_未命名的渐变_15);"/>
    <path d="M403.7425,361.8998c-2.3089-1.8572-5.2997-4.1323-7.8805-5.2352-2.2945-.9823-4.9403-1.0718-7.5002-1.1621-2.3578-.0746-4.8003-.1568-6.8264-.9597-1.9584-.7701-7.2816-5.1421-7.559-6.4122-.1085-1.4796,1.0081-2.6304,2.3017-3.9755,1.5166-1.5732,3.232-3.3598,3.1607-6.0535-.1933-7.0698-9.2065-10.2531-15.5433-10.2531-.823,0-1.6151.0524-2.346.1531-3.2059.445-5.6429,1.771-7.9971,3.0528-2.5157,1.3753-4.8914,2.6752-8.0033,2.6752-.6613,0-1.327-.0596-2.018-.172-.9611-1.3035-1.3152-3.5198-1.6485-5.672-.4896-3.0785-.9891-6.2735-3.3061-8.0335l-.1942-.1378-.2168-.064c-1.0841-.3473-2.1038-.5117-3.1247-.5117-2.6448,0-4.7261,1.1513-6.7486,2.2605l-.8021.4413c-.9043.4824-1.812,1.0841-2.6901,1.6701-1.7597,1.1657-3.5834,2.3726-5.0703,2.3726-.8156-.0108-1.933-.777-3.1128-1.584-.823-.5718-1.6785-1.1589-2.616-1.6291-3.5834-1.8238-5.9754-2.7989-7.5101-3.0676-1.2628-.2208-2.8066-.3293-4.8552-.3293-1.7254,0-3.5862.075-5.5554.1531-2.0885.0822-4.2483.1608-6.3665.1608h-.0081c-.3586,0-.7145,0-1.0677-.0037-1.9438-.0298-3.9014-.1192-5.8002-.2018-2.252-.1085-4.3792-.2015-6.4153-.2015-6.6737,0-13.5488,1.0456-13.9238,8.811l-.0243.6278.4588.4142c2.1969,1.9954,4.9818,2.1006,7.4406,2.19,1.5682.0596,3.0442.1156,4.3304.5944,4.2962,1.6138,8.3286,6.3891,7.6484,11.4415-.7064.4592-1.4236.6612-2.2727.6612-.7832,0-1.6215-.172-2.5139-.3591-1.0089-.2127-2.0551-.4258-3.2131-.4484l-.5058-.0037c-2.9431,0-6.6529.3926-10.5887.8112-1.5284.1567-3.0794.3212-4.6033.4671-2.4661.224-4.9511.2723-7.3575.3284-2.9999.0596-5.8364.1238-8.2807.5153-5.53.8939-11.3403,7.3729-13.8993,11.057-.793,1.1435-1.4164,2.4435-2.0252,3.7026-.9276,1.9431-1.812,3.7813-3.1698,4.835-.4886.3817-1.4199.6576-2.4055.9417-.8934.2696-1.9096.5574-2.8174,1.0167-4.932,2.429-9.8723,5.3137-14.6518,8.0973-3.8247,2.219-7.4387,4.3268-11.015,6.2026l-1.3342.6916c-5.597,2.9101-11.3817,5.9149-14.3319,11.1799-1.2149,2.1747-3.2439,9.371-1.4878,12.8731.6043,1.2176,1.6025,1.9421,2.8887,2.121,2.8572.3704,4.4425-2.0541,5.803-4.1552.9711-1.4976,1.8815-2.9101,2.9394-2.9408-.552,2.4114-1.8599,4.742-3.232,7.19-2.5736,4.5924-5.4931,9.8046-4.1138,16.901.6919,3.597,3.9529,7.7938,5.3214,9.4306,1.8644,2.2276,5.0929,5.0513,8.5598,6.2762l.654.2313.5636-.4028c.935-.6721,1.6259-1.4164,2.2953-2.1373.9006-.9665,1.6738-1.7958,2.9131-2.3377.337-.1499.9955-.2656,1.6783-.3903,1.047-.1878,2.2385-.4028,3.3487-.8727,2.2754-.9394,4.1281-2.4732,5.9221-3.9583,2.1038-1.7361,4.092-3.3802,6.2545-3.5067,3.4687-.2114,6.2474,2.9087,7.6493,5.812,1.8798,3.8916,1.9023,8.2292.0668,10.5381-1.886,2.3541-10.2825,6.3521-14.2326,6.3521-.392,0-.6377-.0452-.7661-.0814-1.2466-.3524-1.4344-.9648-1.7714-2.4299-.3433-1.5357-.8166-3.6313-3.5753-4.6755-.3252-.1302-.6576-.1897-.9675-.1897-1.8527,0-2.6088,1.8392-3.2131,3.3152-.281.6721-.6919,1.6783-1.0389,1.9348-.5682.1752-1.2628.28-1.9999.392-1.7858.2727-3.8074.5836-4.868,2.2059l-.1951.298-.0145.3596c-.2122,4.2546,1.2773,8.2527,2.8626,12.4855.3243.887.6648,1.7959.9972,2.7209.2394.6883.4779,1.5862.7326,2.5347,1.0984,4.121,2.7578,10.3448,8.0305,10.5399h.1888c2.579,0,4.5409-1.7181,6.4353-3.3766.9385-.8238,1.9167-1.6746,2.9177-2.2655,3.3521-1.98,8.8941-4.3522,15.6454-4.0252,3.5573.1698,6.8607,1.346,10.3647,2.5835,2.6802.9485,5.4524,1.9313,8.3818,2.4444,3.998.6938,8.0441.8473,10.7693.8509.8265,0,1.6142-.1283,2.373-.2476.6874-.112,1.337-.2149,1.9431-.2149.747,0,1.5501.1336,2.4137.972-4.4398,7.0982-12.883,11.3096-20.3643,15.042l-.86.4337c-.4859.2385-.9901.4769-1.5014.7135-2.5798,1.2069-5.5083,2.5746-7.0439,5.2754l-.5537.972.8636.7063c.523.43,1.0172,2.0416,1.4164,3.3368.8518,2.7713,1.9141,6.2221,5.0604,6.2221.1219,0,.2457-.0072.3694-.0199,1.7886-.1607,2.7344-1.8933,3.5717-3.4235.6016-1.1002,1.2844-2.3522,1.9764-2.4643,1.5853-.2476,4.0848,1.2357,6.0992,2.3883.8429.4896,1.6504.9485,2.3793,1.2845.6694.3179,1.289.6341,1.8833.9377,2.4064,1.2249,4.6846,2.3883,8.7017,2.5527l1.0243.0379.2981-.9882c.7108-2.3379,1.0433-5.3621,1.3911-8.5634.6955-6.3828,1.4905-13.6093,5.493-13.6093.0669,0,.1302,0,.1979.0072,2.7768.1319,3.0415,3.1688,3.1427,8.146.0334,1.4056.0632,2.8545.2239,4.1372l.0335.2692.1336.2348c.9241,1.5645,2.4036,2.4732,3.8264,3.3549,1.5619.9574,3.0342,1.8626,3.6404,3.5645.9413,2.6539.8257,5.9583.7064,9.4504-.0687,1.9692-.1427,4.0053-.0045,5.9366-.9187.6973-2.0812.9901-3.8481.9901-.6278,0-1.2628-.038-1.9069-.0669-1.2203-.0633-2.4806-.1066-3.4968-.0072-5.3386.5185-14.8983,1.9657-18.8658,5.8407-3.9086,3.8102-3.681,8.4497-3.4191,13.8134.112,2.2673.2358,4.8382.0786,7.6457l-.0524.84.7398.3957c.6685.3632,1.3415.5419,2.0478.5419.8031,0,1.5094-.2348,2.1373-.4443.6205-.2168,1.1988-.4101,1.8788-.3921.9232.6468,1.7236,1.4236,2.504,2.1716,1.7379,1.6802,3.5275,3.4146,6.6358,3.7361.4969.0524.9864.083,1.4498.083,5.1155,0,7.5788-3.1111,9.7531-5.8552,1.2963-1.6458,2.5257-3.1959,4.2258-4.0126,1.905-.9178,3.5987-1.2754,5.2346-1.6241,1.9692-.4209,4.0098-.8509,6.2283-2.2258l.243-.1464.1617-.2421c.8483-1.2593,1.6594-1.8735,2.6007-2.5889.9972-.7588,2.1291-1.6079,3.2844-3.2827.6233-.9195,1.0235-2.0252,1.4129-3.0894.728-2.0017,1.251-3.2393,2.4063-3.5085,1.0912-.2529,2.2972.4824,3.5934,1.2882,1.3008.8039,2.7686,1.7199,4.4542,1.7199.2213,0,.4454-.0145.6685-.0488,3.2745-.4768,5.1345-4.5184,6.9392-8.4297.8781-1.906,1.7859-3.8717,2.7398-5.0966,1.4823-1.9168,3.4181-3.4976,5.2898-5.0297,2.4371-1.9873,4.9556-4.0396,6.5815-6.8905,1.7669-3.1003,3.2321-7.0314,4.3405-11.6943.4787-2.027.281-4.2908.1048-6.4786-.1336-1.5717-.2501-3.046-.0859-4.1299.0569-.3813.355-.86.6919-1.4164.2863-.4625.6044-.9864.8807-1.6025.3704-.8112.5727-1.682.7516-2.4444.1499-.6576.2919-1.2827.5085-1.7488.5302-1.14,1.2059-2.2638,1.9313-3.4488.7851-1.2936,1.5953-2.6305,2.2754-4.1101.4454-.9684.9828-2.0054,1.5058-3.008.9766-1.8646,1.8907-3.6169,2.3441-5.1634.4327-1.4941.6495-2.9033.84-4.1443.4752-3.0893.7398-3.6495,1.8572-3.7326,1.0505,0,2.1337,1.3675,2.28,2.2638.3433,2.0036-1.0696,4.6701-2.3135,7.017-.5085.9575-.9901,1.8536-1.3748,2.7334-.3776.869-.804,1.7289-1.2195,2.551-1.3776,2.7767-2.6829,5.3928-2.2412,8.2653l.2195,1.3785,1.3649-.2836c4.4976-.9431,9.699-5.0549,15.4693-12.2291,3.1164-3.868,8.445-11.4577,9.099-18.7726.504-5.3801-1.6522-7.9365-3.5573-10.1949-1.289-1.5212-2.5112-2.9664-3.0234-5.3169,1.1472-.6323,2.8735-.1861,4.7931.3776,1.4804.4263,3.1461.9195,4.8842.9195,1.1698,0,2.2385-.2168,3.2583-.6612l.374-.1608.2176-.3414c3.71-5.7867,4.3856-14.4892,5.0324-22.9152.0478-.6685.1002-1.3443.1526-2.018.8184-.1644,1.9214-.0524,3.0578.0867.7804.1048,1.5835.2042,2.4019.2042.9946,0,1.8536-.1572,2.6233-.4769l.3026-.1265.206-.2547c2.2719-2.7533,1.7063-6.8005,1.1092-11.0827-.3767-2.7428-.7731-5.5825-.3957-8.0414.1572-1.0239.5491-1.816.9711-2.6602.4752-.9571.972-1.9466,1.1363-3.2587l.0452-.336-.1282-.3138c-.3352-.8631-.7381-1.7299-1.1653-2.6526-1.0578-2.2796-2.1526-4.6336-2.1671-6.816.9043-.1757,2.0694.0037,3.1535.206.7922.1378,1.6178.2833,2.4146.2833,1.419,0,2.5256-.463,3.3955-1.4268l.3694-.4115-.0362-.5641c-.2213-3.378-2.9187-5.9782-5.5229-8.0783h.0011ZM246.6074,373.3303c1.1292,0,2.2611.1794,3.3748.5266,2.0966.6613,4.3233,2.6044,6.0161,4.1702-.504.538-1.85.7805-3.5166,1.0123-.5266.075-1.0452.1494-1.5086.2353-.43.0822-.8781.172-1.346.2579-2.5139.4937-5.643,1.1061-8.5228,1.1061-1.8392,0-3.3631-.2389-4.6186-.7326,1.6783-3.8707,5.7577-6.5757,10.1215-6.5757h.0001ZM257.9369,442.7446c-2.6567,0-5.2825-.3217-6.7026-.8076-.9413-.3251-3.7777-2.0885-5.0631-3.1435-3.4164-2.7894-11.2843-14.4259-11.7711-20.7366,2.2312,1.4002,3.6069,3.1417,5.0486,4.9646,1.663,2.1011,3.3848,4.2691,6.4497,6.166,2.2719,1.4056,6.9989,3.1545,10.7991,4.5599l1.6143.6016c.6684.2528,1.3893.4969,2.1218.7425,3.3893,1.1545,7.2184,2.4589,7.0992,4.663-.0903,1.7344-4.1246,2.99-9.5959,2.99h0ZM332.0068,394.9196c.0939-.0074.1833-.0109.2737-.0109,1.8419,0,4.0279,1.7597,5.8471,4.7076,2.3541,3.8197,3.3631,8.3995,2.5419,11.1365-2.6088-.1987-3.7451-1.7271-5.4072-3.9691-.3406-.4553-.6874-.9268-1.0686-1.3984-.2104-.2638-.4561-.5673-.7217-.8924-1.4651-1.7777-4.1842-5.0888-4.0432-7.0099.1002-1.3115,1.2367-2.4394,2.5781-2.5635h-.0001ZM299.6374,337.8735c.6396-.7245,1.6295-1.0908,2.934-1.0908,2.074,0,4.755.9227,7.1778,2.4737l.4326.2759.5085-.0857c1.8979-.332,3.4444-1.4683,4.8094-2.4698,1.2746-.9344,2.4687-1.8119,3.643-1.8119.6044,0,1.225.2235,1.9168.6987,1.4652,1.0123,2.204,4.9804,1.5464,8.3178-.8139,4.1394-6.0558,8.6127-10.5779,9.031-.2619.019-.5193.0338-.7849.0338-5.6575,0-11.8442-4.8612-12.491-9.8122-.3397-2.5862-.0298-4.5138.8852-5.5603h.0001ZM311.1529,390.0476c-.7425-1.2665-.9286-2.3992-.5636-3.378.504-.1644.9719-.2507,1.4019-.2507,2.186,0,3.5943,2.298,5.2374,4.9511l.5203.8414c.3288.5299.7064,1.0456,1.0713,1.5469.6323.8699,1.2899,1.7627,1.4435,2.4168-2.616-.13-7.2302-2.9028-9.1109-6.1276h.0001ZM315.0173,411.1846c-.112,2.168-3.6539,2.2348-4.0577,2.2348-1.346,0-2.7135-.3072-3.6431-.8184-2.9602-1.588-6.8652-5.3024-8.1831-8.0667.3468-.0524.7805-.0886,1.3179-.0886,4.1326,0,11.0096,2.1878,13.6834,5.0026.4201.4445.916,1.1057.8826,1.7361h0ZM276.4629,410.303c.2033-.8852,1.3947-1.9873,3.0415-2.3468h.0118c2.0659,0,2.6377.8347,3.6738,2.3468.9675,1.4201,2.1779,3.1761,4.9321,4.2763,1.7976.7226,3.6467.8418,5.1254.9375,2.6829.1662,3.1463.3614,3.2962,1.3893.0814.5709-.0714,1.1309-.4706,1.6585-.6992.9413-2.0523,1.6819-3.4417,1.8788-.4156.0596-.8781.0904-1.3675.0904-4.3947,0-10.8587-2.186-13.6527-5.709-1.1481-1.4561-1.5247-2.9303-1.1481-4.5221v.0003ZM293.4832,471.2207c-.3649.777-.7731,1.6657-1.0948,2.6576-.44,1.3965-.6016,2.775-.7362,3.9854-.1599,1.4019-.2981,2.6287-.8139,3.2465l-.2212.0759c-.6188.2131-1.2059.4191-1.5574.4191-.131,0-.2909,0-.5836-.4752-.9005-1.42-.8292-3.4307-.6431-5.9041l.1201-1.5735-1.569.1536c-2.0694.1951-3.1725,1.382-4.0541,2.3432-.842.9123-1.4055,1.5212-2.7018,1.5212-.2096,0-.4435-.0108-.6803-.0452-1.7108-1.0389-1.3938-5.7541.8338-12.1478,1.5086-4.3649,2.981-6.3124,4.7523-6.3124.7849,0,1.7073.3631,2.7578,1.0894-.0452,1.662-.411,3.0297-.7957,4.4605-.4671,1.7127-.9449,3.4833-.897,5.8155l.0452,1.7001,1.6404-.4499c1.5058-.4174,2.4363-1.3333,3.2628-2.1408.8879-.8709,1.5419-1.5086,2.8355-1.5916.4824.2385.795.4859.8781.7028.1725.4408-.3098,1.4725-.7777,2.4696h0ZM295.1091,435.4024c-.3749-2.1355,1.0912-5.5482,3.7958-7.0188,1.9313-1.0532,3.8572-1.4833,5.896-1.9458,1.1246-.253,2.2845-.5149,3.5237-.8925,1.0352-.3143,2.1526-.7137,3.2293-1.0893,2.1599-.7606,4.3856-1.5537,6.2356-1.8067.3215-.0453.8374-.1012,1.4534-.1012,2.5375,0,3.9502.7913,4.1924,2.3576.3143,1.9657-3.3622,6.1443-4.7442,7.7125l-.3966.4517c-1.6251,1.8427-5.4252,6.1625-7.082,6.2725-1.1274.0759-1.6513-.3776-2.5591-1.2916-.7877-.7986-1.7742-1.7976-3.4443-2.0541-.318-.056-.6468-.0795-.9693-.0795-1.5275,0-2.8119.5565-3.9529,1.0569-.8952.3847-1.6694.7209-2.3686.7209-.0975,0-.1905-.0018-.2791-.018-1.4733-.2204-2.3035-.963-2.5303-2.2746h.0001ZM345.2006,459.4234c-.6539.3288-1.3775.6071-2.1434.8979-1.383.5221-2.8148,1.0713-3.9918,1.9874l-.3984.2998-.0949.5004c-.6016,3.1003-.5257,6.1082-.4444,9.017.0758,3.138.1499,6.1046-.7472,8.3918-.3514.8925-1.1291,2.1102-1.8762,3.2881-.3441.5366-.6802,1.0642-.9746,1.5592-1.2935,2.1769-2.709,4.5237-4.1291,6.8778-1.5139,2.5076-3.0341,5.026-4.4163,7.3673-2.5111.6288-5.0856,1.0298-7.5815,1.4129-2.4634.3847-5.0033.775-7.4288,1.3911-1.8048.4517-3.4823,1.1797-5.1037,1.8897-2.6115,1.14-5.1155,2.1914-7.5598,1.8916-1.0055-.6919-.9973-2.168-.8664-4.4316.0453-.7733.093-1.5773.0569-2.3396-.3035-5.9853-.6178-13.6491-.4418-20.274,1.9025-1.4201,3.8264-2.7316,5.6936-3.998,5.9492-4.0505,11.5697-7.8733,15.9742-14.8685.7551-1.1942,1.2629-2.5546,1.7597-3.877.6468-1.7307,1.3197-3.5283,2.1525-3.5283.064,0,.1273.0072.206.0216.6684.1211.7967.3938.8518.5058.363.7876.0044,3.0262-2.1887,6.7549-2.9412,4.9972-5.4,7.7992-8.5174,11.3366-.9665,1.0984-1.9935,2.2727-3.1227,3.606-.1789.2132-.4147.4787-.6803.7895-2.5401,2.9069-5.0179,5.924-5.0892,8.0035-.0975,2.6376,4.2256,9.0422,7.5002,9.3529.1292.0091.2601.0145.392.0145,2.8355,0,5.6865-2.8744,7.7387-4.9755.5077-.5185.9449-.9611,1.2628-1.2394.7687-.6613,1.4679-1.225,2.1147-1.7416,2.0316-1.635,3.643-2.9359,5.3015-5.727l.1491-.251.0308-.2909c.3623-3.55.1409-6.3828-.0551-8.8814-.2412-3.0134-.4273-5.3927.4174-8.0792.7171-2.2583,3.4976-5.0604,5.8662-6.9267.9187-.7263,2.0359-1.3153,3.1173-1.8879,1.9647-1.0514,4.0052-2.1337,4.8409-4.0883,1.9475-4.5781-1.0569-18.2976-1.1797-18.8812-.2024-.8961-.5493-1.7216-.8853-2.5202-.6657-1.5789-1.0767-2.6647-.6729-3.756.3623-.1499.6729-.224.9304-.224.9982,0,1.6142,1.4941,2.5067,3.9638.7064,1.9475,1.5067,4.1515,2.9719,5.8029,1.5014,1.6965,3.0604,2.316,4.4353,2.8707,1.0795.4209,1.9603.7731,2.6901,1.6134-1.9258,8.5634-5.2799,15.5966-8.371,21.3795l.0002-.0002ZM343.3217,393.5708c.3026-.1265.6062-.1905.8816-.1905,1.6847,0,3.0595,2.2795,3.3703,4.3978.1689,1.1807.0307,2.6679-.9377,2.9602-.0777.0216-.1725.0361-.2682.0361-1.4462,0-3.9239-2.3531-4.3875-4.6742-.3288-1.6364.6089-2.2298,1.3415-2.5293h0ZM376.2593,416.5918c-1.6106-.3143-2.8311-1.9458-4.1246-3.6511-.3297-.4408-.6539-.8654-.9793-1.2702-1.7046-2.0957-3.5239-4.1353-5.2825-6.1135l-.2178-.2348c-.448-.5041-.9042-1.0081-1.3675-1.5141-4.5428-5.0021-9.2373-10.1775-8.8037-18.1172l.0307-.6098-.4381-.4178c-.7841-.7551-1.4047-1.5434-2.0587-2.3844-1.9692-2.5184-4.0125-5.1268-10.0249-5.956-7.5218-1.0505-11.4378-3.3924-12.3275-7.3801-.8952-3.9903.0261-7.8127,1.3224-9.8303.5754-.8894,1.2556-1.4801,1.8661-1.6074.3279-.0705.6613-.1075.9937-.1075,2.9511,0,5.9004,2.7081,8.5046,5.0929.3731.3436.738.6874,1.0984,1.0049.5112.4593,1.187,1.1961,1.9006,1.9837,2.437,2.6643,5.4714,5.9822,8.5019,5.9822.2917,0,.5754-.0371.8555-.093,2.0405-.4484,2.8734-1.6254,3.2104-2.5374,1.1346-3.0415-1.5664-7.3417-3.2745-9.6362-2.3089-3.0942-5.3053-6.8421-7.9781-8.3512-1.4228-.7999-2.9484-1.1627-4.2926-1.4765-1.8283-.4367-3.3034-.7841-4.2672-1.9802.1762-4.6561,2.317-5.2947,4.4091-5.2947.7029,0,1.5104.0972,2.3884.284,2.3991.5122,6.3954,4.3342,8.7802,6.6173.4011.3847.766.7326,1.0957,1.0388.2647.2501.5683.527.9043.8329,2.1969,2.0108,6.2907,5.7397,7.1433,8.2806.9015,2.6453.3668,5.2388-.1987,7.985-.44,2.1747-.8998,4.4168-.7046,6.8309.1742,2.2118,1.0866,4.2781,1.9764,6.2772.8329,1.887,1.6214,3.6693,1.8075,5.5116.0903.8739.019,1.7678-.0478,2.7085-.0903,1.2114-.1787,2.4629.0623,3.7217.7516,3.7781,3.251,6.4461,5.4524,8.8006,1.6369,1.7411,3.1769,3.3851,3.8454,5.2532.9665,2.6937,2.2149,7.4723.2385,10.3573h0Z" style="fill: url(#_未命名的渐变_16);"/>
    <path d="M402.9133,362.9345c-2.1119-1.696-5.1128-3.9976-7.5715-5.0513-4.1363-1.7673-9.8155-.3328-14.2958-2.1074-1.9386-.7664-8.2572-5.6051-8.3955-7.5482-.2917-4.1249,5.5735-5.8069,5.466-10.0846-.1861-6.592-10.155-9.6894-16.3879-8.8263-7.2536.9941-10.5859,7.0955-18.9109,5.4591-3.0415-3.2618-1.458-11.1464-5.0442-13.8704-.9946-.302-1.8916-.4366-2.728-.4366-2.6233,0-4.6258,1.2999-6.9275,2.5446-2.7615,1.472-5.7243,4.2371-8.4045,4.1964-1.9241-.0227-3.9565-2.1712-6.3097-3.3595-2.2394-1.1363-5.3548-2.6309-7.1452-2.9448-2.6042-.4557-6.3259-.2985-10.3357-.1454-2.3875.093-4.8834.1871-7.3042.1454-12.1072-.1787-24.3226-2.6233-24.7933,7.1485,3.0866,2.7988,7.6682,1.1435,11.3411,2.5184,4.9511,1.8608,9.577,7.4808,8.4035,13.444-3.1535,2.4552-5.9041.4824-9.2409.4228-4.046-.0637-9.969.7435-15.5551,1.2665-5.6041.5117-11.2843.1454-15.5398.8329-4.8725.789-10.4224,6.7523-13.0267,10.5114-1.9313,2.7764-2.8906,6.8192-5.4624,8.8181-1.2402.9679-3.6179,1.1878-5.4633,2.1034-8.7061,4.3015-17.4195,9.9771-25.6324,14.2854-6.0422,3.1643-12.1488,6.0301-15.1259,11.3403-1.4128,2.5256-3.9268,12.4567.4155,13.0294,2.0315.2692,3.2727-1.6332,4.5049-3.5347,1.4471-2.2316,2.886-4.4579,5.5879-3.1951-.9946,7.8425-9.6746,13.9039-7.5715,24.8013.5537,2.8454,3.0676,6.4623,5.0441,8.8254,2.0026,2.3938,5.082,4.8563,7.9826,5.8807,2.055-1.4797,2.9475-3.5247,5.4623-4.6177,1.0731-.4644,3.2736-.5312,5.0405-1.2629,4.8606-2.0198,8.0448-7.2951,12.6111-7.5715,7.8995-.4553,13.4034,12.7565,8.8254,18.4962-2.4173,3.0278-12.9093,7.7089-16.3951,6.7225-4.1101-1.1617-1.2638-5.55-5.456-7.1416-2.2682-.86-2.3468,4.0883-4.1995,5.0368-2.0812.7172-5.1985.4118-6.307,2.1048-.2402,4.8273,1.8744,9.3294,3.784,14.7005,1.3153,3.7307,2.2276,11.9924,7.5625,12.1875,3.3179.1192,5.691-3.6204,8.8272-5.456,4.0831-2.4064,9.7177-4.5293,16.3762-4.204,6.6213.3143,12.3944,3.9059,18.9154,5.0422,3.3061.5745,7.0468.8275,10.5074.8275.728.0089,1.4616-.1066,2.1969-.2259,2.1146-.3378,4.2221-.6756,6.2066,1.9168-4.6646,8.2309-14.0916,12.7186-22.2703,16.8089-2.84,1.4218-6.3783,2.6322-7.9889,5.465,2.1454,1.7668,2.0359,9.5914,5.8842,9.2409,2.2276-.2042,2.8672-5.4722,5.4641-5.8788,2.6927-.4299,6.7072,2.589,9.24,3.7848,3.3521,1.5664,5.3954,3.1653,10.0809,3.3586,2.2419-7.4234.6729-23.4843,8.4153-23.1104,5.53.2727,3.9763,8.3429,4.6186,13.4378,1.7046,2.914,6.2022,3.3097,7.5626,7.1433,1.6702,4.7008.3062,11.0602.8374,16.3934-1.9882,1.9601-4.5897,1.8229-7.2085,1.6874-1.1057-.0524-2.2231-.112-3.2953-.0145-6.2103.6052-14.6807,2.1715-18.0672,5.4741-4.9917,4.8726-2.4164,11.0854-2.9439,20.5847,1.2367.6811,2.1779.3217,3.232-.0288.7669-.2619,1.5926-.5203,2.6458-.3884,3.2627,2.103,4.7306,5.4505,8.8326,5.877,8.576.9123,9.4207-7.1217,14.7159-9.6636,4.3828-2.1137,7.5435-1.4381,11.3393-3.7813,1.9475-2.8978,3.8382-2.9069,5.8859-5.8805,1.5574-2.2909,1.6785-6.4731,4.6177-7.1434,1.6369-.374,3.1093.5329,4.578,1.4454,1.3776.8563,2.7543,1.7145,4.2483,1.4905,3.9945-.5746,5.9185-9.2806,8.8181-13.0186,3.5266-4.5582,9.0431-6.9971,11.7666-11.7684,1.7905-3.1435,3.1842-7.0603,4.2067-11.3457.7633-3.2665-.43-7.7197,0-10.5001.1617-1.0694,1.0569-2.009,1.6746-3.3657.6205-1.3603.7064-3.0007,1.2629-4.204,1.1462-2.4912,2.9367-4.8093,4.204-7.5553,1.2438-2.7208,3.1273-5.7433,3.7813-7.9853,1.3369-4.6105.5275-8.576,3.7813-8.8326,1.8427-.1427,3.5229,1.8536,3.7767,3.3622.5727,3.3188-2.4019,7.353-3.7767,10.5072-1.6187,3.6964-3.8671,6.8327-3.3595,10.0775,5.0179-1.0461,10.5136-6.5509,14.7033-11.7612,4.2447-5.2735,8.2689-11.9832,8.8155-18.0609.7994-8.6465-5.6954-8.7477-6.7153-15.9706,1.9195-1.7543,4.2591-1.0081,6.8038-.2601,2.2419.6539,4.6403,1.3079,7.0557.2601,3.9412-6.1461,4.2898-15.8785,5.0541-25.2133,1.3839-.6197,2.9268-.4263,4.466-.2276,1.4986.1897,3.0009.3776,4.3541-.1915,3.2347-3.9266-.5728-12.061.4218-18.4763.3704-2.4326,1.8156-3.6918,2.1038-5.8891-1.2889-3.3029-3.8454-7.2305-3.3666-10.9333,1.5048-.6648,3.0821-.396,4.5626-.1346,1.8075.3257,3.4661.6468,4.6782-.7055-.1905-2.9186-2.7732-5.3173-5.0297-7.1339v-.0002ZM250.3743,372.5942c2.6874.8442,5.3693,3.3775,7.1443,5.0405-.1336,2.5036-3.8372,2.4737-6.2996,2.9443-2.8092.5302-6.5689,1.3862-10.1144,1.3862-2.2835,0-4.4803-.355-6.278-1.3862,1.7334-5.717,8.418-10.2345,15.5479-7.9848h-.0001ZM257.9369,444.0671c-2.869,0-5.5933-.3433-7.1399-.8817-1.1553-.3957-4.1561-2.2871-5.4668-3.362-3.8717-3.1616-13.2987-17.0925-12.1885-23.5295h.8473c5.9989,3.1273,6.6511,8.0738,12.6111,11.7647,2.4733,1.5321,8.2282,3.5736,12.174,5.0532,4.1895,1.5537,10.2914,2.9141,10.0809,6.7117-.1572,3.1345-5.7722,4.2438-10.9183,4.2438h.0003ZM331.892,393.5971c6.1734-.5754,12.5516,12.7675,9.6655,18.4999h-.2936c-4.3684,0-5.7026-2.8473-8.1064-5.8896-1.5988-2.018-5.2563-6.0075-5.0467-8.8254.1409-1.9015,1.7145-3.5867,3.7811-3.7848h.0001ZM342.8177,392.3452c5.2157-2.1671,8.4107,8.4076,4.204,9.6636-.2141.0633-.43.0921-.6585.0921-3.5907,0-8.7992-7.5846-3.5455-9.7558h-.0001ZM319.2881,433.9409c-2.3243,2.645-5.8147,6.5834-7.9853,6.7225-3.2845.2114-3.5375-2.9268-6.3034-3.3586-1.5212-.2402-2.8247.2909-4.0585.8329-1.027.4445-2.0054.8852-3.0179.8852-.1617,0-.3215-.0072-.4859-.0307-5.9564-.8924-4.0585-9.1126.8374-11.7683,3.1725-1.7272,6.1615-1.8916,9.6655-2.9484,3.0578-.9286,6.7081-2.5274,9.6709-2.9412,1.887-.2619,6.5472-.3667,7.1371,3.3639.4408,2.775-3.7668,7.306-5.4596,9.2427h-.0001ZM316.3397,411.2533c-.1238,2.4498-2.709,3.4904-5.3846,3.4904-1.5464,0-3.1228-.3487-4.2709-.9773-3.4968-1.8789-8.5454-6.7207-9.2473-10.0802,4.1173-2.2266,19.1684,2.4994,18.9028,7.5671h0ZM309.6255,385.6195c4.8128-1.9991,6.8643,2.089,9.2445,5.8815,1.2926,2.0808,3.4832,4.1141,2.5139,5.881-.2791.0863-.5971.1238-.9404.1238-4.5138,0-13.688-6.8079-10.8181-11.8862h0ZM310.4582,338.1432c4.2374-.7438,6.7677-6.5206,11.3482-3.3743,2.2013,1.5171,2.7615,6.3187,2.1038,9.6704-.9529,4.8387-6.7062,9.6249-11.7666,10.0918-6.2735.5496-13.9119-4.8274-14.7068-10.9252-1.3947-10.6608,7.5256-8.9907,13.0213-5.4628h.0001ZM275.1666,409.9976c.3468-1.4651,2.0325-2.9448,4.1996-3.3639,5.3024-.0975,4.0314,4.6268,9.2527,6.7188,4.1651,1.6694,8.698-.3071,9.2355,3.3622.3938,2.6304-2.3875,4.6646-5.0368,5.0368-.4814.0668-1.0045.1048-1.5564.1048-6.5925,0-17.7908-4.6394-16.0944-11.8589h-.0001ZM293.6557,474.2775c-1.0243,3.2303-.3893,6.5093-2.1011,7.9889-1.8762.6269-3.1345,1.2737-4.2031-.4228-1.1174-1.7723-1.0461-3.9944-.841-6.7188-3.28.3108-3.2917,3.8717-6.8787,3.8717-.3325,0-.7029-.0289-1.1011-.0975-3.6856-1.7036-1.3839-9.8858,0-13.8586,1.7253-4.9881,4.307-9.9057,10.0881-5.4668.112,4.3215-1.7858,6.625-1.6901,10.9301,2.7496-.7624,3.2059-3.7993,6.7269-3.7848,3.785,1.6276,1.131,3.9908,0,7.5589h0ZM346.1771,460.4133c-1.9846,1.0894-4.5599,1.6007-6.2996,2.9412-1.2529,6.4569.5754,12.9409-1.2602,17.6489-.5754,1.4489-1.9908,3.4344-2.9484,5.0441-2.7641,4.6556-6.0865,10.0738-8.8254,14.7041-5.242,1.4073-10.5968,1.6856-15.5405,2.9484-4.7406,1.1905-8.7839,4.5165-13.4486,3.7686-2.6711-1.4471-1.5419-5.2012-1.6802-7.9781-.3224-6.5165-.6278-14.3915-.4182-21.0129,7.9809-6.0919,16.0818-9.7431,21.8549-18.9045,2.0405-3.2392,2.3766-8.5344,5.4587-7.9798,4.0766.7209,1.1653,6.5455-.4255,9.2355-3.9195,6.6808-6.9962,9.5028-11.7629,15.1305-1.2773,1.5158-5.3883,5.9077-5.4552,7.9889-.083,2.1102,3.822,7.7486,6.2997,7.9764.0886.0089.1752.0108.2656.0108,2.9854,0,6.5354-4.5094,8.1371-5.8879,3.139-2.728,5.0973-3.6981,7.1406-7.1488.7822-7.6402-1.2538-11.9039.4191-17.2243.86-2.7135,3.9917-5.7414,6.3034-7.568,2.6982-2.121,6.5211-2.999,7.5662-5.4542,1.4922-3.4976-.4174-14.2634-1.2584-18.0753-.5682-2.533-2.6874-4.8906-1.2673-7.5626,5.4931-2.7605,4.8364,5.6277,8.408,9.6709,2.6495,2.9809,5.5635,2.1191,7.5662,5.0368-1.8645,8.6392-5.1606,15.8496-8.829,22.6912h-.0003ZM376.8581,417.9704c-3.1128.0216-4.8886-3.1978-6.726-5.4633-1.7571-2.148-3.6025-4.2131-5.4624-6.2996-5.0631-5.671-11.0169-11.2689-10.5128-20.5914-3.2754-3.1499-3.9484-6.9538-11.3393-7.9813-6.6809-.9299-12.2571-3.0604-13.444-8.4004-1.3822-6.195,1.1272-12.3821,4.1995-13.0216,4.4425-.9562,8.4478,3.326,11.7629,6.2925,2.1942,1.9728,6.2283,7.6267,9.5174,7.6267.1942,0,.3847-.019.5709-.0596,4.6295-1.0168,1.6927-6.685-.84-10.0856-2.2239-2.9777-5.1345-6.6173-7.5625-7.9884-3.251-1.8202-7.2238-1.0984-9.2482-4.204.0596-5.1525,2.316-8.0148,8.4035-6.7185,3.1941.6838,8.0747,5.7136,10.5074,7.9884,2.1851,2.0374,7.3151,6.4049,8.399,9.6633,1.7488,5.1606-1.2629,9.8574-.8365,15.1333.3133,3.9492,3.362,7.6303,3.7811,11.7553.2204,2.171-.393,4.3196,0,6.3068,1.206,6.087,7.5057,9.0354,9.241,13.8636,1.27,3.5374,2.4589,8.9934-.4111,12.1839v-.0002Z" style="fill: url(#_未命名的渐变_17);"/>
  </g>
</svg>