<?xml version="1.0" encoding="UTF-8"?>
<svg data-name="图层_1" xmlns="http://www.w3.org/2000/svg" version="1.1" viewBox="0 0 800 800">
  <!-- Created by @FCLOGO 2024-12-14 GMT+8 13:07:04 . https://fclogo.top/ -->
<!-- FOR PERSONAL USE ONLY NOT FOR COMMERCIAL USE -->
<!-- Created by @FCLOGO 2024-12-14 GMT+8 13:07:04 . https://fclogo.top/ -->
<!-- FOR PERSONAL USE ONLY NOT FOR COMMERCIAL USE -->
  <path d="M348.2194,774.301c-.786,0-1.3752-.2173-1.7682-.6519-.393-.4352-.5284-1.03-.406-1.7856l.2518-1.6478c.122-.755.4501-1.3504.9841-1.785.5339-.4352,1.1939-.6525,1.9799-.6525.7553,0,1.3293.1987,1.7223.5954.3927.3967.551.9381.4747,1.6248h-1.2358c.0304-.3589-.0553-.637-.2573-.8357-.2024-.1981-.4979-.2974-.8869-.2974-.4197,0-.763.1167-1.03.3489-.2673.2328-.4349.5631-.5035.9903l-.2632,1.659c-.0686.4352-.0056.7686.1887,1.0015.1946.2328.5017.3489.9214.3489.389,0,.7152-.0987.9785-.2974.2632-.1981.4365-.4805.5206-.8469h1.2358c-.1372.6867-.4672,1.2306-.9897,1.631-.5228.4005-1.1616.6004-1.9169.6004ZM352.7967,774.1868l.9956-6.2943h1.1902l-.1946,1.1902c.3359-.8698.9729-1.3044,1.9113-1.3044.6712,0,1.1691.208,1.4932.624.3244.416.4293.9859.3148,1.7105l-.0686.4234h-1.2703l.0571-.3204c.0689-.4501.0115-.7953-.1714-1.0356-.1832-.2403-.4771-.3607-.8813-.3607-.4045,0-.7401.1223-1.007.3663-.2673.2446-.4349.588-.5035,1.03l-.6296,3.9711h-1.2358ZM361.9058,774.301c-.7705,0-1.3463-.2229-1.7279-.6693s-.515-1.0356-.4005-1.7682l.2518-1.6478c.0838-.488.2573-.9152.5206-1.2815s.6007-.6507,1.0129-.8524c.4119-.2024.8732-.3036,1.3845-.3036.7705,0,1.3485.2235,1.7338.6693.3852.4464.5169,1.0356.3949,1.7682l-.1717,1.1213h-3.845l-.0916.5265c-.1527.9536.2173,1.4305,1.1098,1.4305.7171,0,1.175-.2477,1.3734-.7438h1.2247c-.1679.5339-.5035.9599-1.007,1.2759-.5038.3166-1.0912.475-1.7626.475ZM361.2306,770.2157l-.0456.2862,2.6548-.0118.0459-.2856c.0686-.4656.0133-.822-.1661-1.0704-.1791-.2477-.4861-.3719-.9211-.3719-.4427,0-.7953.126-1.0586.3775-.2632.2521-.4331.6109-.5094,1.076ZM368.3258,774.301c-.6333,0-1.1027-.2117-1.4078-.6351s-.3967-1.0008-.2744-1.7335l.2744-1.7738c.1145-.7326.393-1.3119.8357-1.7397.4424-.4272.98-.6407,1.6133-.6407.4653,0,.8298.1186,1.093.3545.2632.2365.3908.5575.3834.9617h.023l.1717-1.202h1.2358l-.9956,6.2943h-1.2247l.1946-1.2014h-.023c-.122.4116-.3511.7339-.6867.9667s-.7401.3489-1.2129.3489ZM368.9324,773.2257c.389,0,.7152-.1186.9782-.3551.2632-.2359.4293-.5718.4979-1.007l.2518-1.6478c.0686-.4272.0096-.7612-.1773-1.0015-.1872-.2403-.475-.3601-.8642-.3601-.3967,0-.7249.118-.9841.3545-.2595.2365-.4234.5724-.492,1.007l-.2518,1.6478c-.0686.4427-.0133.7804.1658,1.0133.1794.2328.4712.3489.8757.3489ZM376.3477,774.1868c-.5721,0-.9937-.1565-1.2644-.4694-.271-.3123-.3607-.7512-.2691-1.3156l.538-3.3874h-1.7394l.1714-1.1219h1.7397l.2747-1.7161h1.2358l-.2747,1.7161h2.472l-.1832,1.1219h-2.4605l-.5377,3.3874c-.0764.4421.099.6637.5262.6637h1.7167l-.1717,1.1213h-1.7738ZM382.5042,774.301c-.7705,0-1.3463-.2229-1.7279-.6693s-.515-1.0356-.4005-1.7682l.2518-1.6478c.0838-.488.2573-.9152.5206-1.2815s.6007-.6507,1.0129-.8524c.4119-.2024.8732-.3036,1.3845-.3036.7705,0,1.3485.2235,1.7338.6693.3852.4464.5169,1.0356.3949,1.7682l-.1717,1.1213h-3.845l-.0916.5265c-.1527.9536.2173,1.4305,1.1098,1.4305.7171,0,1.175-.2477,1.3734-.7438h1.2247c-.1679.5339-.5035.9599-1.007,1.2759-.5038.3166-1.0912.475-1.7626.475ZM381.829,770.2157l-.0456.2862,2.6548-.0118.0459-.2856c.0686-.4656.0133-.822-.1661-1.0704-.1791-.2477-.4861-.3719-.9211-.3719-.4427,0-.7953.126-1.0586.3775-.2632.2521-.4331.6109-.5094,1.076ZM388.9243,774.301c-.6333,0-1.1008-.2117-1.4019-.6351-.3014-.4234-.3949-1.0008-.2803-1.7335l.2744-1.7738c.1145-.7326.393-1.3119.8357-1.7397.4424-.4272.98-.6407,1.6133-.6407.4653,0,.8298.1186,1.093.3545.2632.2365.3908.5575.3834.9617h.023l.2058-1.4652.2977-1.7962h1.2358l-1.3274,8.3537h-1.2247l.1946-1.2014h-.023c-.122.4116-.3511.7339-.6867.9667s-.7401.3489-1.2129.3489ZM389.5309,773.2257c.389,0,.7152-.1186.9782-.3551.2632-.2359.4293-.5718.4979-1.007l.2518-1.6478c.0761-.4272.0189-.7612-.1717-1.0015-.1909-.2403-.4805-.3601-.8698-.3601-.3967,0-.7249.118-.9841.3545-.2595.2365-.4234.5724-.492,1.007l-.2518,1.6478c-.0764.4427-.023.7804.1602,1.0133s.4768.3489.8813.3489ZM401.0175,774.301c-.4731,0-.8394-.1161-1.0986-.3489-.2595-.2328-.3852-.5551-.3775-.9667h-.0115l-.1946,1.2014h-1.2243l1.3274-8.3537h1.2358l-.2862,1.7962-.2744,1.4652h.0456c.122-.4123.353-.7345.6923-.9673.3396-.2322.7419-.3489,1.2076-.3489.633,0,1.1002.2136,1.4016.6407.3014.4278.3949,1.007.2806,1.7397l-.2747,1.7738c-.1145.7326-.3949,1.31-.8413,1.7335-.4461.4234-.9822.6351-1.6077.6351ZM400.7657,773.2257c.3967,0,.7227-.1161.9785-.3489.2555-.2328.4216-.5706.4976-1.0133l.2518-1.6478c.0689-.4346.0115-.7705-.1714-1.007-.1832-.2365-.4734-.3545-.8698-.3545-.3893,0-.7152.1198-.9785.3601s-.429.5743-.4979,1.0015l-.2518,1.6478c-.0686.4352-.0112.7711.1717,1.007.1832.2365.4731.3551.8698.3551ZM405.4694,776.2468l.1717-1.0642h1.934c.6407,0,1.007-.3017,1.0986-.9046l.1028-.6749.2061-1.1902h-.0345c-.122.4197-.3471.7438-.6752.9729-.3281.2285-.7286.3433-1.2014.3433-.6258,0-1.093-.2005-1.4019-.601s-.4104-.9443-.3033-1.631l.5836-3.6047h1.2358l-.5606,3.4793c-.0612.4116,0,.732.1832.9611s.4653.3433.8469.3433c.389,0,.7168-.1217.9841-.3663.267-.244.4309-.5836.492-1.0182l.538-3.3992h1.2358l-1.007,6.4086c-.0993.6029-.37,1.0778-.8124,1.4249-.4427.3471-.9996.5209-1.6707.5209h-1.9455ZM417.787,770.0853h3.221l.5368-1.8545h-5.4659l-1.7081,6.4419h2.1473l.5856-2.0985h3.0257l.4392-1.7081h-3.0257l.244-.7808ZM424.229,772.9158c-.5856,0-1.0249-.3904-1.0249-1.1225,0-.8784.6344-1.7569,1.6105-1.7569.488,0,.8784.244,1.0248.7808l1.9521-.8296c-.2928-1.1713-1.2689-1.9033-2.6353-1.9033-2.7817,0-4.1482,2.1473-4.1482,3.9042s1.2689,2.8305,3.0746,2.8305c1.3665,0,2.3425-.5856,2.9769-1.4153l-1.5129-1.1713c-.3904.4392-.8296.6832-1.3177.6832ZM430.9149,768.2308h-2.1473l-1.7569,6.4419h5.1242l.488-1.8545h-2.9281l1.2201-4.5874ZM439.7481,771.0125c0-1.6593-1.3177-2.9281-3.221-2.9281-2.1961,0-3.8066,1.8057-3.8066,3.8066,0,1.6593,1.3177,2.9281,3.221,2.9281,2.1961,0,3.8066-1.8057,3.8066-3.8066ZM434.9167,771.6957c0-.8296.5856-1.7081,1.5129-1.7081.7808,0,1.1713.5368,1.1713,1.2201,0,.8296-.5856,1.7081-1.5129,1.7081-.7808,0-1.1713-.5368-1.1713-1.2201ZM443.2131,772.2326h1.0737l-.1952.6832c-.1464.0488-.3416.0976-.5856.0976-.6832,0-1.2689-.3904-1.2689-1.2201,0-1.0249.732-1.9033,1.9521-1.9033.5856,0,1.1225.244,1.5129.5856l1.3665-1.3665c-.4392-.5368-1.5129-1.0737-2.7329-1.0737-2.5865,0-4.2946,1.7569-4.2946,3.8554,0,2.0497,1.6105,2.8793,3.221,2.8793.9272,0,1.8545-.2928,2.4889-.6832l.9272-3.3186h-3.1234l-.3416,1.4641ZM450.7775,768.0844c-2.1961,0-3.8066,1.8057-3.8066,3.8066,0,1.6593,1.3177,2.9281,3.221,2.9281,2.1961,0,3.8066-1.8057,3.8066-3.8066,0-1.6593-1.3177-2.9281-3.221-2.9281ZM450.3382,772.9158c-.7808,0-1.1713-.5368-1.1713-1.2201,0-.8296.5856-1.7081,1.5129-1.7081.7808,0,1.1713.5368,1.1713,1.2201,0,.8296-.5856,1.7081-1.5129,1.7081ZM437.9424,767.4987c-.0488.2928.0976.488.4392.488s.5368-.1952.6344-.488c.0488-.244-.0976-.488-.4392-.488s-.5856.244-.6344.488ZM432.1349,765.4978c-.4392,0-.732.244-.7808.5856s.0976.5856.5368.5856.732-.244.7808-.5856c.0976-.3416-.0976-.5856-.5368-.5856ZM433.0134,767.3035c-.0976.5368.1464.8784.8296.8784.6344,0,1.0737-.3904,1.1713-.8784s-.1464-.8784-.8296-.8784c-.6832,0-1.0737.3904-1.1713.8784ZM439.6017,777.552l-2.4401-1.8057h-1.5129l4.2458,3.1722,1.6105-3.1722h-.976l-.9272,1.8057ZM425.8394,767.1571l-2.0009-1.4641,23.1323-2.7817-2.1473,4.2458h1.0248l2.6841-5.3195-26.9877,3.221,2.7817,2.0985h1.5129ZM338.7186,785.7853l.6088-3.8315h2.32l-.084.5194h-1.7636l-.1837,1.1445h1.6272l-.084.5248h-1.6166l-.2573,1.6428h-.5668ZM342.97,785.8377c-.3568,0-.6228-.1005-.7978-.3019-.175-.201-.2345-.473-.1784-.8161l.2677-1.7006c.056-.3429.2029-.6148.4408-.8161.2379-.201.5355-.3019.8923-.3019s.6228.1.7979.2993c.1748.1993.2361.4707.1837.8136l-.2677,1.7057c-.0561.3431-.2039.6151-.4435.8161-.2398.2013-.5381.3019-.895.3019ZM343.0487,785.3339c.1925,0,.3483-.0524.4672-.1575.119-.1051.1942-.2571.2257-.4568l.2678-1.7006c.0315-.1993.0051-.3517-.0787-.4565-.084-.1051-.2223-.1575-.4148-.1575s-.3473.0524-.4645.1575c-.1173.1048-.1916.2571-.2231.4565l-.2677,1.7006c-.0315.1996-.0053.3517.0787.4568s.2204.1575.4094.1575ZM344.9961,785.7853l.6088-3.8315h1.202c.2379,0,.4391.0464.6036.139.1645.0928.2835.223.357.391s.091.3656.0524.5932c-.0384.2591-.14.4838-.3044.6746-.1645.1905-.3656.3209-.6036.391l.5354,1.6428h-.6194l-.4777-1.5748h-.5406l-.2466,1.5748h-.5668ZM345.8883,783.7068h.6352c.1889,0,.349-.0558.4803-.168.1313-.1119.2107-.2623.2388-.4514.0316-.1925,0-.3454-.0944-.4593-.0945-.1136-.2362-.1706-.4252-.1706h-.6352l-.1995,1.2493ZM349.545,785.7853l.6088-3.8315h1.2544c.3709,0,.6508.1048.8399.315.1889.2099.2553.4898.1993.8398-.0384.2344-.1216.4383-.2493.6114s-.2905.307-.4881.4015c-.1978.0945-.419.1418-.6639.1418h-.6928l-.2415,1.5221h-.5668ZM350.432,783.754h.6928c.1924,0,.3568-.0587.4934-.176.1364-.117.2204-.2737.2519-.4696s-.0017-.3525-.0997-.4699-.245-.1757-.441-.1757h-.6876l-.2099,1.2911ZM352.7466,785.7853l.6088-3.8315h2.2518l-.0787.5038h-1.6954l-.1731,1.0867h1.5115l-.0787.4986h-1.5115l-.1942,1.2387h1.6901l-.0787.5038h-2.2518ZM355.8434,785.7853l.6088-3.8315h1.202c.2379,0,.4391.0464.6036.139.1645.0928.2835.223.357.391s.091.3656.0524.5932c-.0384.2591-.14.4838-.3044.6746-.1645.1905-.3656.3209-.6036.391l.5354,1.6428h-.6194l-.4777-1.5748h-.5406l-.2466,1.5748h-.5668ZM356.7356,783.7068h.6352c.1889,0,.349-.0558.4803-.168.1313-.1119.2107-.2623.2388-.4514.0316-.1925,0-.3454-.0944-.4593-.0945-.1136-.2362-.1706-.4252-.1706h-.6352l-.1995,1.2493ZM360.1316,785.8377c-.385,0-.6736-.0951-.8661-.2859-.1924-.1908-.2641-.4505-.2151-.7794h.5668c-.028.1748.0105.3121.1155.4121.1051.0997.266.1495.483.1495.2029,0,.3701-.049.5012-.1469.1313-.098.2109-.2327.2389-.4044.0209-.1504.0007-.2788-.0604-.3856-.0614-.1068-.1583-.1811-.2913-.2233l-.4566-.1364c-.266-.0803-.4619-.217-.5879-.4095-.126-.1922-.1697-.4197-.1313-.6823.035-.2099.1121-.3935.2309-.551s.2729-.2799.4619-.3673.4024-.1313.6404-.1313c.3498,0,.6158.0954.7978.2859.182.1908.2485.4437.1995.7586h-.5668c.0279-.168-.0027-.3001-.092-.3964-.0891-.0963-.2301-.1444-.4225-.1444-.1889,0-.343.0447-.4619.1338-.119.0894-.1889.2144-.21.3753-.0245.1506-.007.2791.0525.3859s.1575.1811.2939.223l.4672.1469c.2624.0806.4558.2173.5801.4095.1242.1925.1653.4217.1233.6877-.035.217-.1155.4058-.2415.5667-.1259.1612-.2878.2862-.4855.3753-.1976.0894-.419.1338-.6639.1338ZM363.2651,785.8377c-.3568,0-.6228-.1005-.7978-.3019-.175-.201-.2345-.473-.1784-.8161l.2677-1.7006c.056-.3429.2029-.6148.4408-.8161.2379-.201.5355-.3019.8923-.3019s.6228.1.7979.2993c.1748.1993.2361.4707.1837.8136l-.2677,1.7057c-.0561.3431-.2039.6151-.4435.8161-.2398.2013-.5381.3019-.895.3019ZM363.3439,785.3339c.1925,0,.3483-.0524.4672-.1575.119-.1051.1942-.2571.2257-.4568l.2678-1.7006c.0315-.1993.0051-.3517-.0787-.4565-.084-.1051-.2223-.1575-.4148-.1575s-.3473.0524-.4645.1575c-.1173.1048-.1916.2571-.2231.4565l-.2677,1.7006c-.0315.1996-.0053.3517.0787.4568s.2204.1575.4094.1575ZM365.2754,785.7853l.6088-3.8315h.7086l.6194,3.186c.007-.098.0165-.217.0289-.3571.0121-.1398.0271-.2851.0446-.4354.0175-.1506.0367-.2888.0577-.4146l.315-1.9788h.525l-.609,3.8315h-.7085l-.6141-3.186c-.0071.0945-.0167.209-.0289.3437s-.0272.2757-.0446.4226c-.0177.1469-.0367.2833-.0578.4095l-.315,2.0102h-.5301ZM368.2252,785.7853l1.5851-3.8315h.7454l.3726,3.8315h-.5616l-.0735-.9711h-1.0865l-.3884.9711h-.5932ZM369.3852,784.3418h.8714l-.0893-1.1023c-.0175-.1959-.0298-.3654-.0367-.5089-.0071-.1435-.0105-.2432-.0105-.2993-.0175.0561-.0517.1558-.1024.2993s-.1146.3112-.1915.5038l-.441,1.1075ZM371.7208,785.7853l.6088-3.8315h.567l-.525,3.3118h1.6744l-.0787.5197h-2.2465ZM376.6785,785.8377c-.3673,0-.6342-.1005-.8003-.3019-.1663-.201-.2214-.475-.1654-.8213l.4357-2.7608h.567l-.4357,2.7554c-.0315.1962-.008.35.0708.4619.0787.1122.2144.168.4068.168.1925,0,.3473-.0558.4646-.168.1172-.1119.1915-.2657.2231-.4619l.4355-2.7554h.567l-.4357,2.7608c-.056.35-.2003.6245-.433.8241-.2328.1993-.5328.299-.9003.299ZM379.8435,785.8377c-.385,0-.6736-.0951-.8661-.2859-.1924-.1908-.2641-.4505-.2151-.7794h.5668c-.028.1748.0105.3121.1155.4121.1051.0997.266.1495.483.1495.2029,0,.3701-.049.5012-.1469.1313-.098.2109-.2327.2389-.4044.0209-.1504.0007-.2788-.0604-.3856-.0614-.1068-.1583-.1811-.2913-.2233l-.4566-.1364c-.266-.0803-.4619-.217-.5879-.4095-.126-.1922-.1697-.4197-.1313-.6823.035-.2099.1121-.3935.2309-.551s.2729-.2799.4619-.3673.4024-.1313.6404-.1313c.3498,0,.6158.0954.7978.2859.182.1908.2485.4437.1995.7586h-.5668c.0279-.168-.0027-.3001-.092-.3964-.0891-.0963-.2301-.1444-.4225-.1444-.1889,0-.343.0447-.4619.1338-.119.0894-.1889.2144-.21.3753-.0245.1506-.007.2791.0525.3859s.1575.1811.2939.223l.4672.1469c.2624.0806.4558.2173.5801.4095.1242.1925.1653.4217.1233.6877-.035.217-.1155.4058-.2415.5667-.1259.1612-.2878.2862-.4855.3753-.1976.0894-.419.1338-.6639.1338ZM381.9062,785.7853l.6088-3.8315h2.2518l-.0787.5038h-1.6954l-.1731,1.0867h1.5115l-.0787.4986h-1.5115l-.1942,1.2387h1.6901l-.0787.5038h-2.2518ZM386.9426,785.8377c-.3568,0-.6228-.1005-.7978-.3019-.175-.201-.2345-.473-.1784-.8161l.2677-1.7006c.056-.3429.2029-.6148.4408-.8161.2379-.201.5355-.3019.8923-.3019s.6228.1.7979.2993c.1748.1993.2361.4707.1837.8136l-.2677,1.7057c-.0561.3431-.2039.6151-.4435.8161-.2398.2013-.5381.3019-.895.3019ZM387.0213,785.3339c.1925,0,.3483-.0524.4672-.1575.119-.1051.1942-.2571.2257-.4568l.2678-1.7006c.0315-.1993.0051-.3517-.0787-.4565-.084-.1051-.2223-.1575-.4148-.1575s-.3473.0524-.4645.1575c-.1173.1048-.1916.2571-.2231.4565l-.2677,1.7006c-.0315.1996-.0053.3517.0787.4568s.2204.1575.4094.1575ZM388.9529,785.7853l.6088-3.8315h.7086l.6194,3.186c.007-.098.0165-.217.0289-.3571.0121-.1398.0271-.2851.0446-.4354.0175-.1506.0367-.2888.0577-.4146l.315-1.9788h.525l-.609,3.8315h-.7085l-.6141-3.186c-.0071.0945-.0167.209-.0289.3437s-.0272.2757-.0446.4226c-.0177.1469-.0367.2833-.0578.4095l-.315,2.0102h-.5301ZM392.249,785.7853l.6088-3.8315h.567l-.525,3.3118h1.6744l-.0787.5197h-2.2465ZM396.1174,785.7853l.2204-1.4119-.7506-2.4197h.5774l.4462,1.4486c.0279.0945.0498.1837.0656.2677.0157.084.0253.1469.0288.1888.0175-.0419.0464-.1048.0867-.1888.0402-.084.0883-.1731.1442-.2677l.8976-1.4486h.5984l-1.5275,2.4197-.2204,1.4119h-.5668ZM399.217,785.7853l.6088-3.8315h.7086l.6192,3.186c.0071-.098.0165-.217.029-.3571.012-.1398.0271-.2851.0444-.4354.0177-.1506.037-.2888.0578-.4146l.315-1.9788h.5248l-.6088,3.8315h-.7085l-.6141-3.186c-.0071.0945-.0167.209-.0289.3437s-.0272.2757-.0446.4226c-.0177.1469-.0367.2833-.0578.4095l-.315,2.0102h-.5301ZM403.5053,785.8377c-.3571,0-.6231-.1005-.7979-.3019-.1751-.201-.2344-.473-.1785-.8161l.2677-1.7006c.0561-.3429.203-.6148.4411-.8161.2378-.201.5354-.3019.8922-.3019.3571,0,.6228.1.7979.2993.1748.1993.2361.4707.1837.8136l-.2677,1.7057c-.0561.3431-.2039.6151-.4437.8161-.2395.2013-.5379.3019-.8947.3019ZM403.5839,785.3339c.1925,0,.3483-.0524.4673-.1575.1187-.1051.1942-.2571.2255-.4568l.2677-1.7006c.0316-.1993.0054-.3517-.0786-.4565-.084-.1051-.2224-.1575-.4146-.1575-.1925,0-.3474.0524-.4647.1575-.117.1048-.1914.2571-.223.4565l-.2677,1.7006c-.0316.1996-.0051.3517.0789.4568.0837.1051.2204.1575.4092.1575ZM406.3814,785.7853l.5248-3.3121h-1.0234l.084-.5194h2.6193l-.084.5194h-1.0289l-.5248,3.3121h-.567ZM409.5178,785.7853l.6088-3.8315h2.32l-.084.5194h-1.7636l-.1837,1.1445h1.6272l-.084.5248h-1.6166l-.2571,1.6428h-.567ZM413.7694,785.8377c-.3571,0-.6231-.1005-.7979-.3019-.1751-.201-.2344-.473-.1785-.8161l.2677-1.7006c.0561-.3429.203-.6148.4411-.8161.2378-.201.5354-.3019.8922-.3019.3571,0,.6228.1.7979.2993.1748.1993.2361.4707.1837.8136l-.2677,1.7057c-.0561.3431-.2039.6151-.4437.8161-.2395.2013-.5379.3019-.8947.3019ZM413.848,785.3339c.1925,0,.3483-.0524.4673-.1575.1187-.1051.1942-.2571.2255-.4568l.2677-1.7006c.0316-.1993.0054-.3517-.0786-.4565-.084-.1051-.2224-.1575-.4146-.1575-.1925,0-.3474.0524-.4647.1575-.117.1048-.1914.2571-.223.4565l-.2677,1.7006c-.0316.1996-.0051.3517.0789.4568.0837.1051.2204.1575.4092.1575ZM415.7952,785.7853l.6088-3.8315h1.202c.2381,0,.4391.0464.6037.139.1643.0928.2833.223.3568.391s.0911.3656.0527.5932c-.0387.2591-.1401.4838-.3044.6746-.1646.1905-.3659.3209-.6037.391l.5354,1.6428h-.6194l-.4776-1.5748h-.5408l-.2466,1.5748h-.567ZM416.6876,783.7068h.635c.1891,0,.3491-.0558.4804-.168.131-.1119.2107-.2623.2386-.4514.0316-.1925,0-.3454-.0945-.4593-.0943-.1136-.2361-.1706-.4252-.1706h-.635l-.1993,1.2493ZM420.905,785.8377c-.3602,0-.6308-.1005-.8107-.3019-.1803-.201-.2423-.473-.1865-.8161l.2677-1.7006c.0561-.3463.2056-.6194.4488-.8187s.545-.2993.9056-.2993c.3568,0,.6253.1008.8056.3019.1803.2013.2423.4733.1865.8161h-.567c.0313-.1993.0026-.3517-.0866-.4565-.0894-.1051-.2284-.1575-.4175-.1575-.1925,0-.3508.0524-.475.1575-.1242.1048-.2019.2554-.2335.4514l-.2677,1.7057c-.0316.1996-.0026.3517.0866.4568.0894.1051.2301.1575.4226.1575s.35-.0524.4724-.1575.1993-.2571.2309-.4568h.5667c-.0347.2275-.1145.4252-.2386.5932s-.2808.2976-.4699.3884c-.1888.0908-.4024.1364-.6404.1364ZM424.0335,785.8377c-.3571,0-.6231-.1005-.7979-.3019-.1751-.201-.2344-.473-.1785-.8161l.2677-1.7006c.0561-.3429.203-.6148.4411-.8161.2378-.201.5354-.3019.8922-.3019.3571,0,.6228.1.7979.2993.1748.1993.2361.4707.1837.8136l-.2677,1.7057c-.0561.3431-.2039.6151-.4437.8161-.2395.2013-.5379.3019-.8947.3019ZM424.1121,785.3339c.1925,0,.3483-.0524.4673-.1575.1187-.1051.1942-.2571.2255-.4568l.2677-1.7006c.0316-.1993.0054-.3517-.0786-.4565-.084-.1051-.2224-.1575-.4146-.1575-.1925,0-.3474.0524-.4647.1575-.117.1048-.1914.2571-.223.4565l-.2677,1.7006c-.0316.1996-.0051.3517.0789.4568.0837.1051.2204.1575.4092.1575ZM425.9653,785.7853l.6088-3.8315h.6874l.1837,1.2282c.0211.119.0367.2301.0473.3332.0105.1034.0194.1828.0262.2389.0177-.0561.0473-.1364.0894-.2415.0419-.1051.0908-.217.1469-.336l.5667-1.2228h.7088l-.6088,3.8315h-.5354l.2045-1.2911c.0245-.168.0578-.3525.1-.5539.0419-.201.0874-.4041.1364-.6088s.0963-.3998.1418-.5852c.0453-.1854.0874-.3483.1259-.4881l-.8554,1.8632h-.5513l-.2833-1.8632c-.0037.1364-.0105.2947-.0211.475s-.0236.3719-.0393.5747c-.0157.203-.035.4069-.0578.6114-.0228.2047-.0481.3964-.076.5749l-.2047,1.2911h-.5405ZM429.1145,785.7853l.6088-3.8315h.6874l.1837,1.2282c.0211.119.0367.2301.0473.3332.0105.1034.0194.1828.0262.2389.0177-.0561.0473-.1364.0894-.2415.0419-.1051.0908-.217.1469-.336l.5667-1.2228h.7088l-.6088,3.8315h-.5354l.2045-1.2911c.0245-.168.0578-.3525.1-.5539.0419-.201.0874-.4041.1364-.6088s.0963-.3998.1418-.5852c.0453-.1854.0874-.3483.1259-.4881l-.8554,1.8632h-.5513l-.2833-1.8632c-.0037.1364-.0105.2947-.0211.475s-.0236.3719-.0393.5747c-.0157.203-.035.4069-.0578.6114-.0228.2047-.0481.3964-.076.5749l-.2047,1.2911h-.5405ZM432.4107,785.7853l.6088-3.8315h2.2516l-.0786.5038h-1.6955l-.1731,1.0867h1.5115l-.0786.4986h-1.5118l-.1942,1.2387h1.6901l-.0786.5038h-2.2516ZM435.5073,785.7853l.6088-3.8315h1.202c.2381,0,.4391.0464.6037.139.1643.0928.2833.223.3568.391s.0911.3656.0527.5932c-.0387.2591-.1401.4838-.3044.6746-.1646.1905-.3659.3209-.6037.391l.5354,1.6428h-.6194l-.4776-1.5748h-.5408l-.2466,1.5748h-.567ZM436.3997,783.7068h.635c.1891,0,.3491-.0558.4804-.168.131-.1119.2107-.2623.2386-.4514.0316-.1925,0-.3454-.0945-.4593-.0943-.1136-.2361-.1706-.4252-.1706h-.635l-.1993,1.2493ZM439.8007,785.8377c-.3602,0-.6308-.1005-.8107-.3019-.1803-.201-.2423-.473-.1865-.8161l.2677-1.7006c.0561-.3463.2056-.6194.4488-.8187s.545-.2993.9056-.2993c.3568,0,.6253.1008.8056.3019.1803.2013.2423.4733.1865.8161h-.567c.0313-.1993.0026-.3517-.0866-.4565-.0894-.1051-.2284-.1575-.4175-.1575-.1925,0-.3508.0524-.475.1575-.1242.1048-.2019.2554-.2335.4514l-.2677,1.7057c-.0316.1996-.0026.3517.0866.4568.0894.1051.2301.1575.4226.1575s.35-.0524.4724-.1575.1993-.2571.2309-.4568h.5667c-.0347.2275-.1145.4252-.2386.5932s-.2808.2976-.4699.3884c-.1888.0908-.4024.1364-.6404.1364ZM441.8792,785.7853l.0789-.5038h.7768l.4459-2.824h-.7766l.0837-.5038h2.1258l-.084.5038h-.7766l-.4462,2.824h.7768l-.0789.5038h-2.1258ZM444.7399,785.7853l1.585-3.8315h.7452l.3728,3.8315h-.5616l-.0735-.9711h-1.0867l-.3884.9711h-.5929ZM445.8998,784.3418h.8714l-.0894-1.1023c-.0174-.1959-.0296-.3654-.0367-.5089-.0068-.1435-.0103-.2432-.0103-.2993-.0177.0561-.0518.1558-.1025.2993s-.1148.3112-.1916.5038l-.4408,1.1075ZM448.2354,785.7853l.6088-3.8315h.567l-.5248,3.3118h1.6741l-.0786.5197h-2.2465ZM453.1932,785.8377c-.3676,0-.6345-.1005-.8005-.3019-.1663-.201-.2213-.475-.1654-.8213l.4357-2.7608h.567l-.4357,2.7554c-.0316.1962-.008.35.0709.4619.0786.1122.2141.168.4066.168s.3474-.0558.4645-.168c.1173-.1119.1916-.2657.2233-.4619l.4357-2.7554h.5667l-.4357,2.7608c-.0558.35-.2002.6245-.4328.8241-.2329.1993-.5328.299-.9001.299ZM456.3581,785.8377c-.385,0-.6738-.0951-.866-.2859-.1925-.1908-.2643-.4505-.2153-.7794h.567c-.0282.1748.0105.3121.1153.4121.1051.0997.266.1495.483.1495.2028,0,.3699-.049.5012-.1469s.2107-.2327.2389-.4044c.0211-.1504.0009-.2788-.0604-.3856s-.1583-.1811-.2913-.2233l-.4568-.1364c-.266-.0803-.4619-.217-.5878-.4095-.1259-.1922-.1697-.4197-.1313-.6823.035-.2099.1119-.3935.2309-.551s.2731-.2799.4619-.3673c.1891-.0874.4024-.1313.6404-.1313.3497,0,.6157.0954.7979.2859.1817.1908.2483.4437.1993.7586h-.567c.0279-.168-.0026-.3001-.0917-.3964-.0894-.0963-.2301-.1444-.4226-.1444-.1891,0-.3429.0447-.4619.1338-.119.0894-.1891.2144-.2099.3753-.0245.1506-.0071.2791.0524.3859s.1575.1811.2939.223l.4673.1469c.2623.0806.4556.2173.5798.4095.1242.1925.1654.4217.1236.6877-.035.217-.1156.4058-.2415.5667-.1262.1612-.2879.2862-.4855.3753-.1979.0894-.4192.1338-.6641.1338ZM458.4209,785.7853l.6088-3.8315h2.2516l-.0786.5038h-1.6955l-.1731,1.0867h1.5115l-.0786.4986h-1.5118l-.1942,1.2387h1.6901l-.0786.5038h-2.2516Z" style="fill: #ccc;"/>
  <path d="M377.9089,111.858l-32.2481-22.6229h39.2375l13.0488-39.2247,13.0615,39.2247h39.2264l-32.2625,22.6229,12.2227,38.333-32.2481-23.5273-32.2481,23.5273,12.2099-38.333ZM123.7454,485.1021c-1.4296.1313-2.7808.2361-4.1047.3542.3282,6.3999.8661,12.747,1.6137,19.0681.0784.6427.144,1.2855.2225,1.915.1569,1.2587.3409,2.5178.5107,3.7769.1584,1.0882.3026,2.1768.4594,3.2654.1441.9309.301,1.849.4595,2.7672.2225,1.4031.445,2.8063.6948,4.1967.1185.7212.2626,1.4291.4066,2.1508.1569.9177.3282,1.8226.5107,2.7275,2.0859-3.921,6.9126-6.0981,11.5807-7.3176-1.9675-11.0948-3.213-22.3339-3.7509-33.6909-3.0161.2885-5.9152.5507-8.6031.7868ZM209.9175,283.3189c24.4326-24.4322,52.8642-43.6052,84.536-56.9949,32.7588-13.8621,67.5779-20.8915,103.4984-20.8915s70.7253,7.0294,103.4857,20.8915c31.6718,13.3897,60.1034,32.5627,84.536,56.9949,24.431,24.4322,43.6047,52.8643,56.9945,84.5356,3.8421,9.0882,7.1479,18.3336,9.9415,27.7236,5.2444,1.9014,10.3337,4.2751,15.1603,7.0818h.0128c-.0656-.2361-.1185-.4722-.1841-.7084-.2498-.9833-.5379-1.9803-.8004-2.9636-.3138-1.2067-.6292-2.4133-.9702-3.6064-.4194-1.4952-.8789-2.9904-1.3239-4.4853-.2097-.6688-.3938-1.3375-.6035-2.0067-2.7151-8.7864-5.8881-17.4552-9.4948-26.0059-3.3043-7.7899-6.9382-15.3828-10.8988-22.7925-.2754-.4987-.5235-1.0098-.7988-1.5212-.1969-.3542-.4066-.7084-.6036-1.0754-8.3934-15.3048-18.1763-29.77-29.3249-43.2778-5.6783-6.885-11.7232-13.5211-18.0963-19.9078-6.3875-6.3735-13.0232-12.4192-19.9213-18.0975-13.4954-11.1477-27.9466-20.9307-43.251-29.3241-.3682-.1969-.722-.4066-1.0886-.6035-.5123-.2753-1.0358-.5371-1.548-.8124-7.3961-3.9478-14.989-7.5938-22.7661-10.8852-8.5375-3.6068-17.2191-6.7805-26.0063-9.4948-.6691-.2097-1.3511-.4066-2.0203-.6035-1.4808-.4459-2.9761-.9045-4.4713-1.3248-1.1943-.3401-2.3997-.6555-3.6068-.9701-.9957-.2626-1.9803-.5507-2.9632-.7997-1.4952-.3802-2.9905-.7348-4.4857-1.0886-.7348-.1841-1.4551-.3674-2.19-.5379-1.5864-.3538-3.2001-.6948-4.7994-1.0358-.6564-.1449-1.3112-.2889-1.9675-.4202-1.548-.3274-3.1217-.6163-4.6826-.9045-.7204-.1313-1.4552-.2754-2.1756-.4066-1.3784-.249-2.7679-.4723-4.1575-.6948-.9317-.1449-1.8634-.3154-2.8063-.4594-1.0758-.1569-2.1644-.3018-3.2402-.4459-1.2711-.1833-2.531-.3674-3.7893-.5243-.6436-.0784-1.2855-.1441-1.9146-.2233-10.9517-1.2847-22.0201-1.9539-33.1799-1.9539-11.1741,0-22.2426.6691-33.1926,1.9539-.6292.0792-1.2727.1449-1.9146.2233-1.2599.1569-2.5182.341-3.7765.5243-1.0886.144-2.1772.2889-3.253.4459-.9445.144-1.8746.3145-2.8063.4594-1.3896.2225-2.7808.4459-4.1575.6948-.722.1312-1.4424.2753-2.1772.4066-1.5609.2881-3.1345.5771-4.681.9045-.6564.1313-1.3127.2753-1.9675.4202-1.6008.341-3.213.6819-4.7994,1.0358-.7348.1705-1.4568.3538-2.1772.5379-1.508.3538-3.0032.7084-4.4985,1.0886-.9845.249-1.9675.5371-2.9648.7997-1.1927.3146-2.3997.6299-3.6052.9701-1.4952.433-2.9904.8789-4.4857,1.3248-.6691.2097-1.3383.3938-2.0059.6035-8.7872,2.7143-17.4559,5.8881-26.0062,9.4948-7.7771,3.2914-15.3701,6.9374-22.7661,10.8852-.5123.2753-1.0374.5371-1.5353.8124-.3666.1969-.7348.4066-1.1014.6035-15.3044,8.3934-29.7571,18.1764-43.251,29.3241-6.8982,5.6783-13.5338,11.7241-19.9213,18.0975-6.3731,6.3867-12.4196,13.0228-18.098,19.921-11.1469,13.4946-20.9299,27.9598-29.3233,43.2646-.1969.3669-.4066.7212-.6035,1.0754-.2753.5115-.5379,1.0225-.8132,1.534-1.7305,3.2658-3.4227,6.5573-5.0364,9.8887,4.4601-1.3772,10.7803-3.2002,16.6956-4.669,12.2355-22.7405,27.7097-43.5267,46.1886-62.0048ZM642.9697,574.8442c-13.3898,31.6582-32.5635,60.1035-56.9945,84.5356-24.4326,24.419-52.8642,43.5919-84.536,56.9949-32.7604,13.8621-67.5923,20.8783-103.4984,20.8783s-70.7269-7.0162-103.4857-20.8783c-31.6718-13.403-60.1034-32.5759-84.536-56.9949-23.2512-23.252-41.7301-50.1367-55.0014-79.9719-1.4696.4723-3.0561.7476-4.7738.7476-1.4696,0-2.9777-.2097-4.4729-.6296-.0512-.0132-2.5309-1.049-5.547-2.3212.3682.8657.7092,1.7441,1.063,2.5966,3.2914,7.7899,6.9366,15.3701,10.8843,22.7797.2754.5115.5379,1.0229.8132,1.5344.197.3674.4067.7212.6036,1.0754,8.379,15.3176,18.1764,29.77,29.3105,43.2778,5.6911,6.885,11.7376,13.5338,18.1107,19.9073,6.3875,6.3867,13.0232,12.4196,19.9214,18.1111,13.5066,11.1473,27.9849,20.9567,43.3038,29.3369.3538.1969.6948.3934,1.0358.5771.5251.2886,1.0613.5639,1.5864.8393,7.3833,3.9473,14.9634,7.5801,22.7277,10.8588,8.5375,3.6196,17.2191,6.7801,26.0063,9.508.6819.2097,1.364.4062,2.0459.6031,1.4808.4458,2.9633.8917,4.4456,1.3115,1.2055.3409,2.4254.6688,3.6452.9965.9702.2626,1.9547.5247,2.9248.7736,1.5081.3934,3.0161.7476,4.5241,1.1151.722.1705,1.4296.3538,2.1372.5115,1.6136.367,3.2274.7079,4.8394,1.049.6436.1445,1.2855.2886,1.9275.4199,1.5609.3146,3.1345.6031,4.7082.9048.722.1309,1.4424.2754,2.1644.4067,1.3896.2489,2.7807.4586,4.1703.6948.9317.1445,1.8618.3018,2.7807.4459,1.0886.1705,2.19.3018,3.2786.459,1.2583.1705,2.5038.3542,3.7637.5115.642.092,1.2855.1445,1.9274.2229,10.9373,1.2983,22.0057,1.9671,33.1671,1.9671,11.1725,0,22.241-.6688,33.1782-1.9671.6436-.0784,1.2855-.1309,1.929-.2097,1.2583-.1705,2.5038-.3542,3.7637-.5247,1.0886-.1573,2.19-.2886,3.2658-.459.9301-.1441,1.8618-.3014,2.7919-.4459,1.3912-.2361,2.7808-.4459,4.1719-.6948.7204-.1313,1.4424-.2758,2.1628-.4067,1.5737-.3018,3.1473-.5903,4.6954-.9048.6563-.1313,1.2855-.2754,1.9274-.4199,1.6265-.341,3.2402-.6819,4.8395-1.049.722-.1577,1.4296-.341,2.15-.5115,1.5096-.3674,3.0176-.7216,4.5257-1.1018.9701-.2621,1.9402-.5243,2.9248-.7869,1.2183-.3278,2.4381-.6556,3.6452-.9965,1.4824-.4199,2.9504-.8657,4.4328-1.2983.682-.2101,1.3768-.4066,2.0588-.6163,8.7872-2.7279,17.4688-5.8884,26.0063-9.508,7.7626-3.2786,15.3428-6.9114,22.7261-10.8588.5251-.2754,1.063-.5507,1.5881-.8393.3409-.1837.6819-.3802,1.0358-.5771,15.3172-8.3802,29.7955-18.1896,43.3038-29.3369,6.8982-5.6915,13.5338-11.7244,19.9197-18.1111,6.3747-6.3735,12.4068-13.0223,18.0979-19.9073,11.1486-13.495,20.9315-27.9601,29.325-43.2778.1969-.3542.4066-.708.6035-1.0754.2753-.4983.5235-1.0098.7988-1.5212,3.9606-7.4097,7.593-15.0031,10.886-22.7929,2.5822-6.0981,4.9307-12.262,7.0551-18.4914-5.0092,2.5314-10.308,4.6298-15.8551,6.2819-.9445,2.4261-1.9019,4.8523-2.9248,7.2524ZM139.5028,408.5129c-1.5225.2493-3.0817.3806-4.6298.3806-2.9248,0-5.7055-.433-8.2621-1.2591-.0784.3278-.1569.6555-.2353.9965-.3682,1.5869-.7092,3.187-1.0502,4.7999-.1441.6559-.2882,1.3115-.4194,1.9675-.3154,1.5604-.6163,3.1341-.9045,4.6949-.1312.7212-.2753,1.4424-.4066,2.1636-.2497,1.3903-.4722,2.7803-.6948,4.1835-.1441.9181-.3154,1.8494-.4467,2.7671-.1697,1.0886-.3138,2.1772-.4595,3.2658-.1697,1.2587-.3666,2.5178-.5234,3.7769-.0785.6424-.1441,1.2852-.2097,1.9147-1.2327,10.3605-1.8762,20.8254-1.9419,31.3828,3.7509-1.3115,7.9996-2.7803,12.7863-4.446.4466-19.2386,2.9248-38.163,7.3976-56.5887ZM706.0059,478.9728c-.0272-2.8068-.197-5.6263-.5251-8.4459-.3281-2.8196-.8004-5.6655-1.4296-8.4983v-.0128c-.301-1.3248-.6292-2.623-.9829-3.9214-.1185-.4198-.2498-.8392-.3682-1.2591-.2481-.8785-.5107-1.7441-.786-2.5966-.1585-.485-.3282-.9705-.4995-1.4424-.2753-.7869-.5507-1.5737-.8516-2.3345-.1841-.4983-.381-.9838-.5635-1.4688-.3154-.7608-.6292-1.5081-.9573-2.2689-.2097-.459-.4066-.9181-.6292-1.3771-.3553-.7869-.7348-1.5737-1.1286-2.3473l-.5907-1.1802c-.5235-.9969-1.0742-1.9935-1.6249-2.9641-.0928-.1441-.1713-.3014-.2497-.4459-.6564-1.1278-1.3384-2.2164-2.046-3.3046-.2097-.3282-.4323-.6295-.642-.9573-.5123-.7476-1.0101-1.5085-1.548-2.2429-.2753-.3802-.5635-.7604-.8533-1.1411-.485-.6555-.9829-1.3111-1.4808-1.9539-.3154-.3934-.6308-.7736-.9445-1.1542-.5123-.6292-1.0358-1.2327-1.5609-1.849-.3282-.367-.642-.7344-.9702-1.1014-.5635-.6163-1.1414-1.233-1.7322-1.8362-.301-.3278-.6019-.6428-.9173-.9573-.722-.7344-1.4552-1.4424-2.2028-2.1508-.1841-.1705-.3682-.341-.5507-.5115-.7348-.682-1.4824-1.3243-2.2429-1.9671-.2097-.1969-.4194-.3934-.6436-.5771-.2481-.2097-.5107-.4067-.7604-.6163-.6819-.5507-1.3639-1.1014-2.0715-1.6393-.0528-.0524-.1057-.0916-.1569-.1313-.3682-.2885-.7348-.5507-1.1014-.826-.6692-.485-1.3384-.9705-2.0203-1.4556-.04-.0264-.0784-.0524-.1313-.092-.3538-.249-.7204-.4851-1.0758-.7344-.6675-.4458-1.3495-.8785-2.0315-1.3111-.4066-.2626-.8276-.5247-1.2471-.774-.7076-.4326-1.4296-.8525-2.15-1.2719-.4066-.2229-.7876-.4458-1.1942-.6688-.8517-.459-1.705-.9048-2.5694-1.3511-.2882-.1309-.5635-.2881-.8405-.4326-1.167-.5639-2.334-1.1014-3.5139-1.6261-.1569-.0656-.3154-.1313-.4722-.1969-.0912-.026-.1697-.0652-.2626-.1049-.9445-.3934-1.8875-.7869-2.8447-1.1539-.4211-.1577-.8405-.3149-1.2599-.459-.8004-.3018-1.5992-.5903-2.3997-.8524-.4723-.1573-.9445-.3018-1.4168-.4591-.7732-.2361-1.5609-.4722-2.3469-.6951-.4851-.1441-.9702-.2754-1.4552-.4067-.8005-.2097-1.6137-.4194-2.4269-.6031-.4595-.1049-.9317-.223-1.3896-.3278-.9189-.1969-1.8234-.3674-2.7407-.5379-.381-.0784-.7476-.1572-1.1286-.2229-1.2855-.2097-2.5966-.4062-3.9077-.5767-.1713-.0264-.3538-.0396-.5379-.0524-1.127-.1445-2.2557-.2493-3.3971-.341-.445-.0396-.9045-.0528-1.3495-.092-.8788-.0524-1.7578-.1049-2.6494-.1312-.5123-.0128-1.023-.0261-1.5353-.0392h-2.2812c-.8917.0132-1.7834.0392-2.6895.0789-.6292.026-1.2583.0392-1.9003.0784-.9317.0656-1.8634.1445-2.7935.2361-.6035.0524-1.2071.1049-1.8106.1705-1.0358.118-2.0715.2753-3.0945.4199-.5123.0784-1.0229.144-1.5208.2229-1.5481.2621-3.0961.5507-4.6298.8917-5.8368,1.2983-11.3967,3.1345-16.6556,5.4558-2.6366,1.1539-5.1804,2.4261-7.6458,3.8161-1.0758.6031-2.15,1.2327-3.1874,1.8754-7.3304,4.5505-13.8604,10.0847-19.4347,16.393-4.5385,5.1408-8.4462,10.7932-11.632,16.8124-.0529.118-.1185.2493-.1841.3674.0912.3146.1697.6296.2625.9442.0128.0264.0128.0396.0128.0656.1057.3674.2097.7212.3154,1.0886.0385.1309.0784.2753.1169.4066.1057.3538.2097.7212.3154,1.0754,1.2583-2.6755,2.675-5.2721,4.2231-7.7903.4323-.3538.9045-.7344,1.4296-1.1538.5507-.433,1.1542-.9049,1.7961-1.3904.4323-.341.8917-.6948,1.364-1.0622,2.6879-2.0587,5.8752-4.4324,8.9825-6.7537,4.6426-5.7836,9.3251-10.872,12.8791-14.544.0128-.0264.04-.0524.0656-.0657.6292-.6688,1.2327-1.2719,1.7962-1.849.6163-.6163,1.1815-1.1802,1.6793-1.6785,6.5172-3.5543,13.6395-6.295,21.2581-7.9868,4.6554-1.0229,9.338-1.6261,14.0061-1.8362l.4723.6296.0128.0132.4851.6296,10.0983,13.4158s18.583,3.0557,34.3469,9.4424c.381-.367.722-.7344,1.0758-1.1014,2.1628-2.2424,3.7108-4.2883,4.7594-5.862.1313-.1969.2369-.3674.3554-.5511.0384-.0652.0784-.1309.1168-.1965.0801-.118.1713-.2493.2369-.3674.3282.2493.682.4987,1.0102.7476,2.2156,1.7181,4.3143,3.554,6.3203,5.4686l.0128.0132c1.1815,1.1411,2.3213,2.3081,3.4227,3.5148,1.2198,1.3247,2.3869,2.6755,3.5156,4.0786,7.4232,9.2851,12.6949,20.1831,15.3444,32.1041,4.5897,20.7078.7604,41.9922-10.8076,59.9197-2.531,3.9341-5.3901,7.5801-8.4975,10.9636-1.2582,1.364-2.5438,2.7015-3.8821,3.9606-1.1927,1.1278-2.4254,2.2164-3.6852,3.2654-4.9708,4.1443-10.4121,7.6718-16.2617,10.5178-5.6912,2.7672-11.7249,4.8915-18.0579,6.2951-5.9025,1.3111-11.7905,1.9279-17.5873,1.9279-17.0621,0-33.3367-5.4294-46.6992-14.9506-2.9905-2.1376-5.8496-4.4853-8.5247-7.0162-1.4167-.1313-2.7551-.3146-4.039-.4983-.3938-.0656-.7876-.1313-1.1815-.1837-.0512-.0132-.1041-.026-.1697-.0392-.3154-.0524-.6292-.0917-.9445-.1445.0128,0,.0128.0132.0256.0264.5651.6163,1.1414,1.2195,1.7193,1.823.301.3278.6163.6556.9174.9705.722.7213,1.4551,1.4292,2.2028,2.1244.1841.1837.3682.3674.5635.5375.9317.8657,1.9019,1.7181,2.8736,2.5314.2609.2097.5107.4194.7732.6295.7348.6031,1.468,1.1931,2.2285,1.7702.3682.2753.7348.5511,1.103.8264.6676.4851,1.3239.9702,2.0059,1.4424.4066.2754.8132.564,1.2327.8393.6564.4459,1.3239.8789,2.0059,1.2983.421.2754.8405.5379,1.2599.7869.7076.433,1.4167.8525,2.1371,1.2591.4066.2229.8005.459,1.2071.6819.8389.459,1.6777.8917,2.5438,1.3248.2882.144.5764.3013.8661.4458,1.1542.564,2.3213,1.1146,3.5012,1.6261.2625.1049.5107.2097.7604.3146.9317.3934,1.8762.7869,2.8192,1.1542.4338.1573.8533.3018,1.2855.459.7876.3018,1.5737.5771,2.3741.8525.4851.1573.9573.3014,1.4424.459.7604.2357,1.5353.4719,2.3213.6948.485.1312.9702.2753,1.4696.4066.7988.2097,1.5993.4066,2.4125.5903.4595.118.9317.2361,1.4023.3409.9061.1965,1.8106.367,2.7279.5375.381.0656.7476.1445,1.1414.2097,1.2855.2233,2.5839.4198,3.895.5903.1841.0132.381.0264.5779.0524,1.1142.1313,2.2412.2494,3.3698.341.4451.0264.9045.0524,1.3511.0789.8789.0656,1.7562.1049,2.6351.1441.5123.0132,1.0358.0132,1.548.0264.7604.0128,1.5209.0128,2.2812,0,.8917,0,1.7834-.0264,2.6751-.0656.6436-.0264,1.2727-.0524,1.9019-.092.9317-.0524,1.8762-.1441,2.8063-.223.6035-.0652,1.207-.1049,1.8105-.1705,1.023-.1177,2.0588-.2753,3.0817-.4326.5123-.0789,1.0229-.1313,1.5352-.223,1.5336-.2493,3.0817-.5507,4.6282-.8917,3.7909-.8393,7.4633-1.9279,11.0028-3.213,5.6271-2.0327,10.9517-4.5901,15.8951-7.5934.341-.2097.6948-.4066,1.0358-.6163.8661-.5507,1.7178-1.1278,2.5582-1.6917,1.2839-.8657,2.5438-1.7706,3.7637-2.6887,1.2983-.9833,2.5694-1.9931,3.8021-3.0425,4.2231-3.5931,8.0797-7.5537,11.5151-11.8293,1.705-2.1376,3.3186-4.354,4.8138-6.6356,1.4936-2.282,2.8848-4.6293,4.1559-7.0295,1.2727-2.4129,2.4269-4.8915,3.4627-7.4097.5123-1.2587.9973-2.531,1.4552-3.8161.9189-2.5706,1.6921-5.1932,2.3484-7.8423.3282-1.338.6292-2.6755.8917-4.0262.786-4.0394,1.2711-8.1573,1.4424-12.3276.0529-1.3772.0784-2.7803.0529-4.1703ZM661.0244,510.346c4.9579-.0657,9.3892-.4851,12.9959-.9838,1.0358-.1441,2.0075-.2881,2.912-.4326,1.1014-.1837,2.0844-.367,2.9504-.5375,2.3613-.4722,3.7252-.8525,3.7252-.8525,8.3406-24.537,7.8283-33.7829,7.8283-33.7829-2.2941-3.1473-5.8224-6.8458-9.2707-10.1768-.9973-.9573-1.9947-1.9014-2.9392-2.7803-1.0358-.9573-2.0315-1.8622-2.9376-2.6619l-.0128-.0132c-2.7134-2.4261-4.6425-4.0262-4.6425-4.0262-2.7407,2.3081-5.4558,4.7999-7.9868,7.2392-7.8155,7.5801-13.862,14.7405-13.862,14.7405,3.1217,16.1309,8.3278,34.2681,8.3278,34.2681.9846.0132,1.9547.0132,2.912,0ZM580.8156,540.6786s7.0295,8.8392,21.3237,16.4322c.3682.1969.7092.3806,1.0757.5771.1185.0524.2097.1049.3282.1573h.5764c.5378-.0128,1.4296-.026,2.6094-.0784h.0272c5.507-.2101,17.1919-1.023,28.0122-4.1575l-1.7305-20.1566-34.1116-7.9212-18.1107,15.1472ZM570.0016,441.6006s-5.9664,16.0256-8.9185,35.4614c0,0,11.3454,7.6851,28.4988,16.8781,0,0,19.2122-18.124,26.3328-26.0451,0,0-5.7039-18.0847-12.9047-32.3534,0,0-24.0116,3.9998-33.0085,6.059ZM214.6385,599.3052c-.8773,1.6653-1.4424,3.3967-1.6649,5.2065-.2354,1.8098-.1313,3.6196.3154,5.4554.4322,1.8362,1.2582,3.5279,2.4653,5.0884,1.2054,1.5609,2.6495,2.7803,4.3144,3.672,1.6521.8789,3.397,1.4428,5.1932,1.6657,1.809.2361,3.6324.1313,5.4558-.3149,1.8362-.4326,3.5283-1.2587,5.0876-2.4653l21.9016-16.957c2.0988-1.626,3.3186-3.7376,3.6452-6.321.3282-2.5966-.3138-4.9443-1.9402-7.0427l-5.8352-7.5405,25.0474-19.3831,5.8368,7.5277-11.4095,8.8389,5.8352,7.5278,8.2493-6.3867c1.5609-1.2067,2.7808-2.6359,3.6724-4.3016.8773-1.6653,1.4424-3.3967,1.6777-5.2065.2225-1.8098.1185-3.6196-.3282-5.4554-.4323-1.8362-1.2583-3.528-2.4653-5.0884-1.2055-1.5609-2.6479-2.7803-4.3144-3.672-1.6521-.8789-3.3827-1.4428-5.1932-1.6658-1.809-.2361-3.6324-.1312-5.4558.315-1.8362.4326-3.5267,1.2587-5.0876,2.4653l-21.9017,16.9569c-2.0987,1.6261-3.317,3.7377-3.6451,6.3211-.3282,2.5966.3137,4.9443,1.9402,7.0427l5.8368,7.5405-25.049,19.3962-5.8368-7.541,11.4094-8.8256-5.8352-7.541-8.2493,6.3867c-1.5609,1.2067-2.7791,2.649-3.6724,4.3016ZM262.1494,659.608l25.2715-32.5503-7.5289-5.8488-25.2715,32.5499-7.5273-5.836,48.1032-61.9524c1.2071-1.5605,2.6367-2.7803,4.3016-3.6721,1.6665-.8785,3.4099-1.4296,5.2076-1.6653,1.809-.223,3.6324-.1181,5.4558.3278,1.8346.4459,3.5267,1.2719,5.0876,2.4786s2.7808,2.649,3.6724,4.3148c.8789,1.6653,1.4296,3.3967,1.6521,5.2065.2354,1.8098.1313,3.6196-.3154,5.4554-.4451,1.823-1.2711,3.528-2.4781,5.0884l-48.1032,61.9525-7.5273-5.8488ZM293.2689,619.5303l19.4363-25.0358-7.5417-5.8356-19.4219,25.0222,7.5273,5.8492ZM332.9899,596.765l-36.3656,84.4568,26.2545,11.3046,11.3182-26.2552-8.7616-3.7769-7.5402,17.5076-8.7472-3.7637,32.5891-75.7096-8.7472-3.7637ZM393.026,613.8396l-28.2491-4.3672-4.3672,28.2615,9.4163,1.456,2.912-18.8456,9.1666,1.4164-29.7171,69.1652-1.4552,9.4163,28.2475,4.3668,4.3672-28.2483-9.4164-1.4556-2.9104,18.8323-9.1666-1.4164,29.7171-69.1656,1.4552-9.416ZM429.7934,657.4072c1.2455.3149,2.3213,1.0229,3.253,2.1379.9301,1.1146,1.5336,3.0817,1.809,5.9012l2.7551,27.8157c.261,2.649-.4338,4.9835-2.0859,7.0031-1.6521,2.0199-3.8165,3.1605-6.4515,3.4231l-18.9768,1.8754-9.0497-91.5127,18.964-1.875c2.6495-.2626,4.9835.4326,7.0023,2.0983,2.0203,1.6521,3.1617,3.8029,3.4243,6.452l2.872,28.9567c.2097,2.2296-.04,3.8689-.7476,4.9311-.722,1.0622-1.6393,1.9935-2.7679,2.7932ZM414.5947,654.1285l9.4804-.9441-3.1201-31.5269-9.482.9441,3.1217,31.5269ZM428.1285,694.1934l-3.1217-31.5273-9.482.9445,3.1217,31.5269,9.482-.9441ZM467.4333,687.7946c1.3239,1.3375,2.8192,2.3869,4.4713,3.1473,1.6537.7476,3.4243,1.1935,5.2989,1.3115,1.889.1313,3.7509-.1573,5.5999-.8525,1.849-.6952,3.4355-1.6917,4.7866-3.0161,1.3383-1.3247,2.3869-2.8199,3.1345-4.472.7604-1.6657,1.1926-3.4363,1.3239-5.3113.1185-1.8754-.1569-3.7376-.8517-5.587l-27.4487-73.48-8.9185,3.3311,28.8398,77.2176-8.9313,3.3311-28.8383-77.2044-8.9313,3.331,27.4487,73.4672c.6819,1.8622,1.6921,3.4491,3.0161,4.7866ZM515.3876,626.2921l-7.7755,5.5211,23.8547,33.6124-7.7771,5.5078-53.2052-75.0012,15.5541-11.0161c2.1628-1.5477,4.5369-2.0984,7.1079-1.6653,2.5838.4459,4.6298,1.7442,6.1762,3.921l16.8396,23.7371c1.2855,1.823,1.8875,3.3707,1.7962,4.6425-.0912,1.2852-.4323,2.5442-1.0229,3.8033,1.2327-.3409,2.531-.2625,3.8821.249,1.364.4987,2.8719,1.915,4.5113,4.2231l17.7313,24.9961c.7476,1.049,1.5865,1.8751,2.531,2.4654.9429.5899,2.0459,1.1802,3.3042,1.7706l-7.9868,5.6523c-.9573-.4723-1.9675-1.0626-3.0161-1.797-1.0486-.7344-1.9146-1.5869-2.6094-2.5702l-19.8957-28.0518ZM509.8806,618.5282l-18.3349-25.8482-7.7755,5.5211,18.3333,25.8354,7.7771-5.5082ZM564.5811,627.2742c1.809.5247,3.6196.6952,5.443.5507,1.809-.1573,3.5667-.6295,5.2717-1.4424,1.6921-.8132,3.1729-1.9803,4.4584-3.4887,1.2727-1.5081,2.1644-3.1605,2.6895-4.9703.5107-1.8098.6948-3.6324.5507-5.4422-.1584-1.8098-.6436-3.5671-1.4568-5.2721-.7988-1.6917-1.9675-3.187-3.4755-4.4589l-28.4188-24.0256-8.8129,10.4257,7.2792,6.151,2.6623-3.1478,24.1829,20.4584-6.1506,7.2656-55.6578-47.0547,6.1506-7.2784,11.0157,9.3112,6.1506-7.2784-7.9596-6.7277c-1.508-1.2851-3.1745-2.1768-4.9835-2.6883-1.8106-.5247-3.6196-.7084-5.443-.5511-1.809.1445-3.5668.6295-5.2717,1.4427-1.6921.8129-3.173,1.9671-4.4585,3.4752-1.2727,1.5084-2.1644,3.1737-2.6895,4.9835-.5107,1.8098-.6948,3.6196-.5507,5.4294.1585,1.823.6436,3.5804,1.4568,5.2721.8116,1.705,1.9658,3.187,3.4739,4.4589l49.5728,41.9138c1.5081,1.2719,3.1617,2.1636,4.9708,2.6882ZM253.8632,539.3067c10.308-1.4164,17.115-5.1409,28.55-11.7901,10.2953-5.9933,11.187-12.5897,11.187-12.5897l-9.2979,2.0851s-34.5438,13.403-40.1693,14.5308c-5.6255,1.1278-17.6385,1.2458-17.6385,1.2458l-7.3176,6.1506s.7861.0264,2.1244.0657c6.8198.2493,27.9994.9181,32.5619.3018ZM148.1523,572.4753c-1.8106-.5115-8.3678-2.7539-11.5551-4.2883q-.0128-.0128-.0256-.0128c-.7604-.3674-1.3511-.6952-1.5993-.9577-1.4039-1.1406-1.3511-3.0161-.5907-5.1933l.0128-.0128c1.2327-3.4755,4.3143-7.7115,6.2562-10.9376.9445-1.364,1.6521-2.4261,2.6351-2.9376.1969-.0917.3938-.1837.6163-.2361,12.879-3.2918,6.7941-17.9799,25.2202-21.4814,8.2878-1.5604,12.7734-9.9539,12.7734-9.9539-.8789-.5899,12.2739-.7472,17.6641-2.19,4.38-1.1802,15.9736-3.8425,17.0494-4.0919,87.6833-20.432-8.0396-3.5143-16.393-2.5046l-16.6027,1.5472c-.8132-.2229-1.5864-.4194-1.6136-.8785,0,0-.0785-2.5706.2225-2.6359.0529-.0132,2.4142-5.9933-.4578-7.7506,0,0-1.7578-.0396-3.9349-.0789-3.4883-.0656-8.0781-.1313-8.2621-.0917,9.7446-2.3212,4.0134-1.1018,10.8459-2.6622.7076-.1573,1.5609-.3542,2.5838-.5771,47.9847-10.8719,96.1808-20.7734,144.0343-32.1304,12.695-3.0161,25.7053-5.0228,38.2162-8.8913l-.1841-1.4036c-51.7228,7.2392-102.9221,19.7112-154.8547,25.2323v-1.2459c28.7342-5.4818,57.1258-12.7866,85.8872-17.9667,42.8571-7.7114,86.0296-14.1241,129.0837-20.7338,28.0778-4.3016,56.6279-9.5472,84.9554-11.9734l.8917,1.9671c-1.8874,2.3212-4.5497,3.4094-7.1207,4.7866-.3666.5771-.3939,1.3375.1697,1.7838,3.6196-.3934,19.7244.6556,19.7516-3.187-5.9937-5.6787-7.4633-8.6423-16.1705-7.8295-13.5739,1.2591-27.2134,3.2526-40.7328,4.9707-77.7947,9.9799-156.0889,20.6942-233.4242,33.7825-54.6732,9.2587-77.4666,12.9832-101.374,16.4847-4.1447.6163-8.315,1.2198-12.6822,1.8362h-.0128c-.9317.1309-1.8746.2621-2.8192.4067-.9317.1309-1.8618.2621-2.8192.3934-5.9937.8393-12.4596,1.7442-19.7772,2.7672-.0256,0-.04-.0264-.0256-.0264,6.0721-2.164,12.3668-4.0914,19.71-6.1638.9189-.249,1.8618-.5115,2.8192-.7736.9189-.2621,1.8634-.5115,2.8207-.7737h.0128c3.895-1.0494,8.0908-2.1639,12.6949-3.3574,19.4219-5.062,46.0829-11.8029,87.6033-23.4225,2.4013-.6819,5.5486-.0524,6.7413-2.8327-.9317-5.0356,4.7482-5.8356,8.1837-6.9506,8.2093-2.6623,16.3802-5.2589,24.6808-7.6194,6.0977-1.731,12.2099-4.9703,18.3348-6.2422,7.7114-1.5869,13.8092-1.7446,19.1993-8.5247l-1.2327-.7212c-7.3048,2.9116-19.0425,9.1802-26.6883,4.0918-3.6196-2.4133-7.3961-8.9048-5.6783-13.3113,1.2983-3.3311,5.3773-3.7769,8.1837-5.0096,11.973-5.2064,23.7234-11.6456,35.421-17.4816,24.748-12.3144,49.4415-24.76,74.0967-37.2709,11.1998-5.6787,23.9332-12.2359,36.2615-14.9242,3.4483-.7476,7.0679-.9049,10.6874-.5771.0529.1048.0929.2097.1313.3145,2.9648-.1705,5.8096-.2229,8.2621.5379,6.3603,1.9931,4.1447,1.1803,17.4031,9.0618.2354.1313,1.9931,1.4428,2.2156,1.6001,1.8106,1.3375,1.6537,1.1411,2.7151,1.9279,1.4824,1.0886,2.5582,2.1376,3.5668,3.0817.9845.9048,1.9803,1.6657,1.9803,1.6657l25.1418,18.9108.5764.5115c.7076.6428,1.5208,1.3771,2.2684,2.0984,1.1798,1.1542,23.4352,23.37,32.6819,37.0351,2.9376,4.6033,5.5854,11.7372,5.9792,15.0423.1841,1.5604.4066,3.1081.6436,4.6425.8389,5.5475,2.0059,10.9244,3.3699,16.1305.0912.3674.1841.7344.2881,1.1018.0928.3409.1841.6688.2753,1.0097.6692,2.4261,1.3768,4.7999,2.1116,7.1343.1185.3542.2225.6952.341,1.049.1057.341.2097.682.3282,1.023.0128.0264.0128.0524.0256.0788.1312.4067.2625.826.4066,1.2327.0784.2493.1713.485.2497.7344.1185.3674.2498.7344.3795,1.1018.1185.367.2369.7212.3682,1.0754.0529.1705.1041.341.1697.4983.0657.2229.1585.4326.2242.6423.2225.6036.445,1.2067.6547,1.797,2.2556,6.2422,4.6426,12.1699,6.9766,17.7438-.0384-.0132-.0784-.0132-.1168-.0264,2.3469,2.5706,6.8053,7.1735,9.2979,10.7275,5.6912,8.0656,7.5402,14.8718,21.1012,21.2457,1.0229.485,3.6981.1573,4.4841,2.2424.9846,2.6099-1.3768,3.2786-2.675,3.4751-22.5692,3.4099-27.1461-15.8159-38.8582-25.5336-.4194-.2621-.8789-.5639-1.3511-.8917-.4578-.3018-.9173-.6163-1.3624-.9181-.2497-.1705-.4995-.341-.7348-.4983-.2625-.1705-.4995-.3278-.722-.459-.1697-.1049-.3282-.1965-.4722-.2621-.4579-.2493-.7332-.315-.6692-.0524.2498.2489.5123.5243.7876.826.1569.1837.341.3934.5123.5903.2609.3013.5235.6163.7988.9573.2625.3278.5379.6688.8004,1.0229.5507.708,1.1014,1.4556,1.6521,2.2292,3.3058,4.6426,6.7285,10.3605,8.6688,13.8356,7.7771,14.0193,14.0974,12.5769,21.7432,16.9309.6819.3934,1.1671,1.1014,1.1671,1.8882.0144,1.6265-1.3239,2.9508-2.9504,2.9116-4.9707-.0916-9.1266-.5247-12.6677-1.1802-.4338-.0789-.8533-.1573-1.2599-.2493-.3666-.0656-.7332-.1441-1.0886-.2229-.301-.0785-.5891-.1441-.8773-.223-.04,0-.0657-.0132-.1057-.026-1.2983-.315-2.5054-.6692-3.6196-1.0494-.4066-.1441-.8132-.2886-1.207-.4326-.0128-.0132-.0385-.0132-.0657-.0264-.3538-.1309-.7076-.2753-1.0486-.4066l-.0128-.0128c-.3538-.1445-.722-.2886-1.0629-.4459-3.4099-1.5084-5.9265-3.2001-8.1181-4.7214-.3922-.2753-.7732-.5375-1.1526-.8-.3939-.2753-.7877-.5375-1.1815-.8-2.0316-1.3243-3.9478-2.3473-6.3331-2.675-3.3187-.459-4.9451,6.3471-12.8791,9.2455-10.5434,3.8689-15.3172-.6296-20.773.8788-4.7994,1.3243-13.5739,6.1374-19.3178,7.3176-1.6793.3542-3.6852,2.2424-12.3011.8789-5.3373-.8397-5.3902-8.7212-6.0065-13.4686-.2753-2.2164.6036-4.6689,2.0588-6.4391,2.0459-2.4786,3.5155-3.646,1.6136-3.646-3.8821,0-5.3373,2.8067-6.5972-1.049-.7604-2.3213,1.0886-9.3243,2.4654-11.0685.6436-.8264,1.508-1.456,2.4397-2.0591,1.9803-1.2591,4.2759-2.3212,5.4686-4.3672,1.0486-1.7966,1.2983-4.2751,1.9547-7.1995.5107-2.3085,1.2711-4.8787,2.8592-7.6066,2.0059-3.4227,5.5599-4.1571,5.507-4.7606-.1569-1.9803-.1041-3.9342-.8004-3.8425,0,0-5.6783,1.4036-12.8246,2.9376-12.3284,2.6494-23.3969,7.9211-23.6066,6.5179-.3154-2.19,1.6009-4.4324,2.4926-6.7277,1.0742-2.8328,1.2054-4.3016,1.0229-7.3308-.1457-2.4394.0784-15.0947-1.9019-16.5375-1.5224,4.3412-1.9803,10.8588-4.6826,17.8618-1.9531,5.036-4.7082,10.5703-6.0065,13.6131.485.1965-13.7036,3.8293-17.2719,7.6062-.3794.4066,10.8331,18.8848,10.8331,18.8848,4.6426,6.7537.3666,15.5145-1.9018,22.9762-.3138,1.0362-.682,2.0459-.3939,3.0821.1441.5375.381.9573.8405,1.049.9301,0,1.8218-.3802,2.4782-1.0621,5.6255-5.7704,11.4222-13.2325,9.3635-21.8092l-9.6517-18.583c2.046-1.3115-.1969-.6428.6036-1.0886.9573-.5247,10.0455-3.0949,10.5178-3.1606.8645,2.0984,13.2056,17.9142,13.0215,27.3699-.1697,9.534-11.3694,21.5994-19.2522,30.5303-3.2786,3.7244-6.7925-.0789-12.9431,1.2327-3.2658.708-15.9608,3.7112-19.3178,4.2491-18.7399,3.0293-30.3207.6556-40.2477,1.3768-2.0587.1445-1.1014-2.3213,1.8875-5.862,1.785-2.1244,3.8565-3.7509,4.9835-6.3475.7348-1.6653-4.5769-1.7049-5.9921-3.3702-1.9547-2.2556-21.1156-12.0782-22.1113-12.2883-2.0059-.4326-4.0134-.7604,2.635-2.6359,8.0524-2.2689,20.8403-.3278,29.128-1.7574,5.8881-1.0097,2.8848,9.6261,7.7643,12.7342,7.3688,4.7078,23.3568-2.3869,25.7565-10.8327,2.3069-8.1441.2754-13.8748-6.2946-17.7042-1.7578-1.0229-6.2819-.9969-20.0526-11.5671-.4595-.3542,3.1217-19.2258,2.3469-19.0289-4.0646,1.049-8.3278,15.7503-11.2782,23.7106-.2354.656-22.8718,2.5839-23.5537,2.6363-.2881.026,1.6009-4.2491.722-4.2491-1.9147,0-4.5113.0656-7.5145.1965-.2881.0132-.5779.0132-.8661.0264-.5763.0264-1.1671.0657-1.7706.0917-.2097.0132-.4194.0264-.6163.0396-1.705.0917-3.4883.2097-5.3502.367-.1312,0-.2753.0132-.4066.0264-.7876.0656-1.5737.1309-2.3741.2097-9.4292.8524-20.1295,2.3869-28.6669,5.0491-1.3127.4062-6.4532,8.6292-8.0524,9.9539,0,0-3.1089,1.8098-7.8299,3.0029-17.7441,4.4853-60.0121,14.295-61.5458,16.1701-.722.8921-3.397-2.098-4.8266-2.6359-1.2983-.485-3.1602,4.8787-9.6646,10.6883-.485.4326-5.9681,6.1506-8.9313,8.7736-1.4024,1.2587-2.4654,2.0328-3.3314,2.557-.2626.2758-16.3274-1.1014-19.3963.6296-6.0849,3.4363-10.1624,19.0292-18.5173,20.7866-1.1927.2621-2.4781.2229-3.8677-.1577ZM375.9094,384.7298c17.9667-3.4755,36.4184-7.7247,54.0441-12.6161,1.3511-.3802,4.4857-.6427,4.0919-2.6622-6.4515-1.2459-35.9717,6.5572-43.3822,9.049-3.2914,1.1278-5.2333.3542-8.5375,0-2.5182,1.5869-5.0491,3.1738-6.9382,5.5211l.722.7084ZM497.9908,399.5884c-.8773-.5379-1.9402-.9049-3.0161-.7084l-101.6622,16.5375-4.7738,2.2032s70.3843-9.9539,104.3517-14.9374c1.4296-.1705,5.8352-.6031,5.1004-3.0949ZM508.9809,501.6052c0-.9441-.7076-2.9901-1.9147-2.9901-.8644,0-4.0918,4.0919-4.9707,4.8263-1.8746,1.5737-4.9691,4.9835-5.9921,7.3176,1.9018,1.1674,8.6159-1.049,11.9985-2.6359l-.2609.4459c.9429-.6428.7733-3.2262,1.1398-6.9639ZM472.9035,459.7442s37.0748-1.2459,40.8384-.6952c3.7637.5507,4.0391,6.2686,4.0391,6.2686,0,0,2.6494-4.039,2.7935-6.2686s-.6948-4.7342-2.0988-8.2229c-1.3896-3.4883-7.593-5.6391-7.593-5.6391,0,0-4.8123-.0784-5.784,3.8293-.9702,3.8953-4.6025,3.6196-6.6869,4.1707-2.0859.5639-25.5084,6.5572-25.5084,6.5572ZM132.5278,536.887c-.2225.2886.0784.2229.5907.6556.5107.4462,5.704,1.8362,6.2162,2.0591.4194.1705,1.0229.0524,1.508-.1049.1169-.0392.2225-.0788.3282-.118.5107-.2229,2.2684-3.2918,3.213-4.6161.1441-.2101.3266-.4198.5235-.6559,2.3741-1.4032,4.6298-3.9081,6.2947-7.9604-.5635-1.7966-7.934-1.1671-13.4282.4066-3.1089.8917-5.6271,2.072-5.9681,3.3046-.4851,1.6657.8661,3.528,3.0833,4.669-1.207,1.1802-2.27,2.2424-2.3613,2.3605ZM123.4476,396.9969c.722.7608,1.5336,1.4424,2.4398,2.0327.786.4983,1.6521.9049,2.5438,1.2723,2.0203.7869,4.2888,1.2327,6.7542,1.2327,1.2327,0,2.4653-.1049,3.6724-.3278.786-.1313,1.7049-.3542,2.6879-.5903,3.5411-.9049,8.1837-2.4261,13.0359-4.0919,32.3666-11.1601,40.864-7.803,40.864-7.803,3.895.5903.7877,8.7212-4.2359,13.3901-2.6094,2.4389-5.8624,5.4554-9.141,9.0225-1.9403,2.1244-5.3373,10.3605-5.9137,13.7572-1.1014,6.6488,2.9633,14.7272,8.8785,17.6257,1.9147.9441,3.8293,1.39,5.8608,1.39,3.253,0,6.61-1.1802,9.7845-2.3869.9445-.367,2.2156-.7869,3.6708-1.2851,3.5812-1.2067,12.0659-4.0522,15.41-6.7537-1.2726-.1837-3.3698-.341-6.8325-.341-1.9147,0-4.0134.0392-6.0193.0784-2.046.0396-4.1703.0789-6.1378.0789-5.8496,0-9.0225-.3674-10.95-1.2851-2.5453-1.2067-3.2914-3.0953-3.4883-4.472-.8661-6.2162,7.9868-14.4784,22.6476-27.3566,6.0065-5.2721,14.243-12.498,14.7937-14.6885.6692-2.6883.341-5.0228-.9973-7.1079-4.6426-7.3308-32.0385-12.747-32.0385-12.747-9.2851-1.9279-17.7697-3.9213-19.0424-6.6752-.5507-1.2067-.4979-2.531.144-3.7117.2626-.485.5779-.7868,2.4014-2.557.3265-.3149.6948-.6819,1.1014-1.0626-4.0662.6819-10.4521,2.0459-16.6299,3.4887-6.53,1.5212-12.8391,3.1213-15.9079,4.0654l-.0128.0132c-.4595.1309-.8389.2621-1.1414.367-.0256.0132-1.0742.4327-2.5166,1.1146-1.207.5771-2.6767,1.338-4.0662,2.2032-3.6324,2.256-6.6885,5.246-3.0289,7.6326.6548.4198,1.5208.8265,2.6351,1.2067.7748.2621,1.6665.5115,2.6766.7476h.0128c1.5993.367,3.4883.6952,5.7823.9833,2.4798.3018,4.8138,2.0723,5.7712,4.4985.0912.2621.1969.5247.2626.8.1697.6819-.04,1.4688-.4595,2.2688-.4323.8129-1.0229,1.5081-1.6793,2.072-2.2412,1.9539-5.5599,2.4526-8.4062,1.1411-1.5993-.7344-3.3043-1.5609-4.681-2.3213l-.0128-.0132c-1.0502-.5771-1.9147-1.1278-2.3869-1.5604-.2754-.2626-.4194-.4723-.3939-.6428,0-.0264-.6436.1441-.9845.2493-.5635.1833-1.1526.3802-1.7434.5899-2.7807.9442-5.6655,2.1772-6.6356,4.1967-1.4696,3.0165-1.2983,8.2097.3538,10.6619.381.5771.826,1.1018,1.2983,1.6001ZM129.4733,538.6259h-.8516c-.381.0392-.7348.1049-1.103.1705h-.0128c-.9573.1441-1.8746.341-2.7151.6163-.9701.3278-1.849.7344-2.675,1.1935-6.1762,3.4227-8.6544,10.4261-10.164,16.052.3554.5375,2.4013,1.5477,3.3186,2.1244,3.7253,1.9935,7.252,5.5474,9.7318,2.3345.3538-.4326,1.1143-1.6261,2.0444-3.213.6035-.9966,1.2599-2.1376,1.9547-3.3702.6163-1.1151,1.2599-2.2953,1.8762-3.4623,1.6121-3.0688,3.0545-6.0853,3.5796-7.8951.5251-1.8094-.6948-4.38-4.9836-4.5505ZM374.9089,517.9313c1.6137,2.19,5.7055,10.098,8.1965,10.3997,2.491.2886,9.8102-3.3702,9.9543-5.862.1441-2.4918-2.9248-10.5442-4.5385-12.4457-1.6121-1.9014-9.8085-1.0229-40.2477,1.3243l1.7578,1.3115s23.264,3.0821,24.8777,5.2721ZM387.4293,242.6706v-12.5245h-38.8981v73.7817h15.2916v-32.4843h22.1498v-12.5241h-22.1498v-16.2489h23.6066ZM430.0976,241.8918c6.5428,0,12.9959,2.9376,17.2574,7.8291v-17.2319c-5.2973-2.7415-11.331-4.3016-17.4672-4.3016-22.9902,0-38.7013,18.491-38.7013,39.4349,0,20.3536,16.3402,38.2678,38.3859,38.2678,6.3475,0,12.0658-1.8622,17.7825-4.4064v-17.1274c-4.2615,4.6033-10.8187,7.8291-17.3631,7.8291-14.2559,0-22.9886-12.4192-22.9886-24.8516,0-12.7206,8.419-25.442,23.0943-25.442Z" style="fill: #dd0741;"/>
</svg>