<?xml version="1.0" encoding="UTF-8"?>
<svg data-name="图层_1" xmlns="http://www.w3.org/2000/svg" version="1.1" viewBox="0 0 800 800">
  <!-- Created by @FCLOGO 2024-12-14 GMT+8 13:07:04 . https://fclogo.top/ -->
<!-- FOR PERSONAL USE ONLY NOT FOR COMMERCIAL USE -->
  <path d="M348.2194,774.301c-.786,0-1.3752-.2173-1.7682-.6519-.393-.4352-.5284-1.03-.406-1.7856l.2518-1.6478c.122-.755.4501-1.3504.9841-1.785.5339-.4352,1.1939-.6525,1.9799-.6525.7553,0,1.3293.1987,1.7223.5954.3927.3967.551.9381.4747,1.6248h-1.2358c.0304-.3589-.0553-.637-.2573-.8357-.2024-.1981-.4979-.2974-.8869-.2974-.4197,0-.763.1167-1.03.3489-.2673.2328-.4349.5631-.5035.9903l-.2632,1.659c-.0686.4352-.0056.7686.1887,1.0015.1946.2328.5017.3489.9214.3489.389,0,.7152-.0987.9785-.2974.2632-.1981.4365-.4805.5206-.8469h1.2358c-.1372.6867-.4672,1.2306-.9897,1.631-.5228.4005-1.1616.6004-1.9169.6004ZM352.7967,774.1868l.9956-6.2943h1.1902l-.1946,1.1902c.3359-.8698.9729-1.3044,1.9113-1.3044.6712,0,1.1691.208,1.4932.624.3244.416.4293.9859.3148,1.7105l-.0686.4234h-1.2703l.0571-.3204c.0689-.4501.0115-.7953-.1714-1.0356-.1832-.2403-.4771-.3607-.8813-.3607-.4045,0-.7401.1223-1.007.3663-.2673.2446-.4349.588-.5035,1.03l-.6296,3.9711h-1.2358ZM361.9058,774.301c-.7705,0-1.3463-.2229-1.7279-.6693s-.515-1.0356-.4005-1.7682l.2518-1.6478c.0838-.488.2573-.9152.5206-1.2815s.6007-.6507,1.0129-.8524c.4119-.2024.8732-.3036,1.3845-.3036.7705,0,1.3485.2235,1.7338.6693.3852.4464.5169,1.0356.3949,1.7682l-.1717,1.1213h-3.845l-.0916.5265c-.1527.9536.2173,1.4305,1.1098,1.4305.7171,0,1.175-.2477,1.3734-.7438h1.2247c-.1679.5339-.5035.9599-1.007,1.2759-.5038.3166-1.0912.475-1.7626.475ZM361.2306,770.2157l-.0456.2862,2.6548-.0118.0459-.2856c.0686-.4656.0133-.822-.1661-1.0704-.1791-.2477-.4861-.3719-.9211-.3719-.4427,0-.7953.126-1.0586.3775-.2632.2521-.4331.6109-.5094,1.076ZM368.3258,774.301c-.6333,0-1.1027-.2117-1.4078-.6351s-.3967-1.0008-.2744-1.7335l.2744-1.7738c.1145-.7326.393-1.3119.8357-1.7397.4424-.4272.98-.6407,1.6133-.6407.4653,0,.8298.1186,1.093.3545.2632.2365.3908.5575.3834.9617h.023l.1717-1.202h1.2358l-.9956,6.2943h-1.2247l.1946-1.2014h-.023c-.122.4116-.3511.7339-.6867.9667s-.7401.3489-1.2129.3489ZM368.9324,773.2257c.389,0,.7152-.1186.9782-.3551.2632-.2359.4293-.5718.4979-1.007l.2518-1.6478c.0686-.4272.0096-.7612-.1773-1.0015-.1872-.2403-.475-.3601-.8642-.3601-.3967,0-.7249.118-.9841.3545-.2595.2365-.4234.5724-.492,1.007l-.2518,1.6478c-.0686.4427-.0133.7804.1658,1.0133.1794.2328.4712.3489.8757.3489ZM376.3477,774.1868c-.5721,0-.9937-.1565-1.2644-.4694-.271-.3123-.3607-.7512-.2691-1.3156l.538-3.3874h-1.7394l.1714-1.1219h1.7397l.2747-1.7161h1.2358l-.2747,1.7161h2.472l-.1832,1.1219h-2.4605l-.5377,3.3874c-.0764.4421.099.6637.5262.6637h1.7167l-.1717,1.1213h-1.7738ZM382.5042,774.301c-.7705,0-1.3463-.2229-1.7279-.6693s-.515-1.0356-.4005-1.7682l.2518-1.6478c.0838-.488.2573-.9152.5206-1.2815s.6007-.6507,1.0129-.8524c.4119-.2024.8732-.3036,1.3845-.3036.7705,0,1.3485.2235,1.7338.6693.3852.4464.5169,1.0356.3949,1.7682l-.1717,1.1213h-3.845l-.0916.5265c-.1527.9536.2173,1.4305,1.1098,1.4305.7171,0,1.175-.2477,1.3734-.7438h1.2247c-.1679.5339-.5035.9599-1.007,1.2759-.5038.3166-1.0912.475-1.7626.475ZM381.829,770.2157l-.0456.2862,2.6548-.0118.0459-.2856c.0686-.4656.0133-.822-.1661-1.0704-.1791-.2477-.4861-.3719-.9211-.3719-.4427,0-.7953.126-1.0586.3775-.2632.2521-.4331.6109-.5094,1.076ZM388.9243,774.301c-.6333,0-1.1008-.2117-1.4019-.6351-.3014-.4234-.3949-1.0008-.2803-1.7335l.2744-1.7738c.1145-.7326.393-1.3119.8357-1.7397.4424-.4272.98-.6407,1.6133-.6407.4653,0,.8298.1186,1.093.3545.2632.2365.3908.5575.3834.9617h.023l.2058-1.4652.2977-1.7962h1.2358l-1.3274,8.3537h-1.2247l.1946-1.2014h-.023c-.122.4116-.3511.7339-.6867.9667s-.7401.3489-1.2129.3489ZM389.5309,773.2257c.389,0,.7152-.1186.9782-.3551.2632-.2359.4293-.5718.4979-1.007l.2518-1.6478c.0761-.4272.0189-.7612-.1717-1.0015-.1909-.2403-.4805-.3601-.8698-.3601-.3967,0-.7249.118-.9841.3545-.2595.2365-.4234.5724-.492,1.007l-.2518,1.6478c-.0764.4427-.023.7804.1602,1.0133s.4768.3489.8813.3489ZM401.0175,774.301c-.4731,0-.8394-.1161-1.0986-.3489-.2595-.2328-.3852-.5551-.3775-.9667h-.0115l-.1946,1.2014h-1.2243l1.3274-8.3537h1.2358l-.2862,1.7962-.2744,1.4652h.0456c.122-.4123.353-.7345.6923-.9673.3396-.2322.7419-.3489,1.2076-.3489.633,0,1.1002.2136,1.4016.6407.3014.4278.3949,1.007.2806,1.7397l-.2747,1.7738c-.1145.7326-.3949,1.31-.8413,1.7335-.4461.4234-.9822.6351-1.6077.6351ZM400.7657,773.2257c.3967,0,.7227-.1161.9785-.3489.2555-.2328.4216-.5706.4976-1.0133l.2518-1.6478c.0689-.4346.0115-.7705-.1714-1.007-.1832-.2365-.4734-.3545-.8698-.3545-.3893,0-.7152.1198-.9785.3601s-.429.5743-.4979,1.0015l-.2518,1.6478c-.0686.4352-.0112.7711.1717,1.007.1832.2365.4731.3551.8698.3551ZM405.4694,776.2468l.1717-1.0642h1.934c.6407,0,1.007-.3017,1.0986-.9046l.1028-.6749.2061-1.1902h-.0345c-.122.4197-.3471.7438-.6752.9729-.3281.2285-.7286.3433-1.2014.3433-.6258,0-1.093-.2005-1.4019-.601s-.4104-.9443-.3033-1.631l.5836-3.6047h1.2358l-.5606,3.4793c-.0612.4116,0,.732.1832.9611s.4653.3433.8469.3433c.389,0,.7168-.1217.9841-.3663.267-.244.4309-.5836.492-1.0182l.538-3.3992h1.2358l-1.007,6.4086c-.0993.6029-.37,1.0778-.8124,1.4249-.4427.3471-.9996.5209-1.6707.5209h-1.9455ZM417.787,770.0853h3.221l.5368-1.8545h-5.4659l-1.7081,6.4419h2.1473l.5856-2.0985h3.0257l.4392-1.7081h-3.0257l.244-.7808ZM424.229,772.9158c-.5856,0-1.0249-.3904-1.0249-1.1225,0-.8784.6344-1.7569,1.6105-1.7569.488,0,.8784.244,1.0248.7808l1.9521-.8296c-.2928-1.1713-1.2689-1.9033-2.6353-1.9033-2.7817,0-4.1482,2.1473-4.1482,3.9042s1.2689,2.8305,3.0746,2.8305c1.3665,0,2.3425-.5856,2.9769-1.4153l-1.5129-1.1713c-.3904.4392-.8296.6832-1.3177.6832ZM430.9149,768.2308h-2.1473l-1.7569,6.4419h5.1242l.488-1.8545h-2.9281l1.2201-4.5874ZM439.7481,771.0125c0-1.6593-1.3177-2.9281-3.221-2.9281-2.1961,0-3.8066,1.8057-3.8066,3.8066,0,1.6593,1.3177,2.9281,3.221,2.9281,2.1961,0,3.8066-1.8057,3.8066-3.8066ZM434.9167,771.6957c0-.8296.5856-1.7081,1.5129-1.7081.7808,0,1.1713.5368,1.1713,1.2201,0,.8296-.5856,1.7081-1.5129,1.7081-.7808,0-1.1713-.5368-1.1713-1.2201ZM443.2131,772.2326h1.0737l-.1952.6832c-.1464.0488-.3416.0976-.5856.0976-.6832,0-1.2689-.3904-1.2689-1.2201,0-1.0249.732-1.9033,1.9521-1.9033.5856,0,1.1225.244,1.5129.5856l1.3665-1.3665c-.4392-.5368-1.5129-1.0737-2.7329-1.0737-2.5865,0-4.2946,1.7569-4.2946,3.8554,0,2.0497,1.6105,2.8793,3.221,2.8793.9272,0,1.8545-.2928,2.4889-.6832l.9272-3.3186h-3.1234l-.3416,1.4641ZM450.7775,768.0844c-2.1961,0-3.8066,1.8057-3.8066,3.8066,0,1.6593,1.3177,2.9281,3.221,2.9281,2.1961,0,3.8066-1.8057,3.8066-3.8066,0-1.6593-1.3177-2.9281-3.221-2.9281ZM450.3382,772.9158c-.7808,0-1.1713-.5368-1.1713-1.2201,0-.8296.5856-1.7081,1.5129-1.7081.7808,0,1.1713.5368,1.1713,1.2201,0,.8296-.5856,1.7081-1.5129,1.7081ZM437.9424,767.4987c-.0488.2928.0976.488.4392.488s.5368-.1952.6344-.488c.0488-.244-.0976-.488-.4392-.488s-.5856.244-.6344.488ZM432.1349,765.4978c-.4392,0-.732.244-.7808.5856s.0976.5856.5368.5856.732-.244.7808-.5856c.0976-.3416-.0976-.5856-.5368-.5856ZM433.0134,767.3035c-.0976.5368.1464.8784.8296.8784.6344,0,1.0737-.3904,1.1713-.8784s-.1464-.8784-.8296-.8784c-.6832,0-1.0737.3904-1.1713.8784ZM439.6017,777.552l-2.4401-1.8057h-1.5129l4.2458,3.1722,1.6105-3.1722h-.976l-.9272,1.8057ZM425.8394,767.1571l-2.0009-1.4641,23.1323-2.7817-2.1473,4.2458h1.0248l2.6841-5.3195-26.9877,3.221,2.7817,2.0985h1.5129ZM338.7186,785.7853l.6088-3.8315h2.32l-.084.5194h-1.7636l-.1837,1.1445h1.6272l-.084.5248h-1.6166l-.2573,1.6428h-.5668ZM342.97,785.8377c-.3568,0-.6228-.1005-.7978-.3019-.175-.201-.2345-.473-.1784-.8161l.2677-1.7006c.056-.3429.2029-.6148.4408-.8161.2379-.201.5355-.3019.8923-.3019s.6228.1.7979.2993c.1748.1993.2361.4707.1837.8136l-.2677,1.7057c-.0561.3431-.2039.6151-.4435.8161-.2398.2013-.5381.3019-.895.3019ZM343.0487,785.3339c.1925,0,.3483-.0524.4672-.1575.119-.1051.1942-.2571.2257-.4568l.2678-1.7006c.0315-.1993.0051-.3517-.0787-.4565-.084-.1051-.2223-.1575-.4148-.1575s-.3473.0524-.4645.1575c-.1173.1048-.1916.2571-.2231.4565l-.2677,1.7006c-.0315.1996-.0053.3517.0787.4568s.2204.1575.4094.1575ZM344.9961,785.7853l.6088-3.8315h1.202c.2379,0,.4391.0464.6036.139.1645.0928.2835.223.357.391s.091.3656.0524.5932c-.0384.2591-.14.4838-.3044.6746-.1645.1905-.3656.3209-.6036.391l.5354,1.6428h-.6194l-.4777-1.5748h-.5406l-.2466,1.5748h-.5668ZM345.8883,783.7068h.6352c.1889,0,.349-.0558.4803-.168.1313-.1119.2107-.2623.2388-.4514.0316-.1925,0-.3454-.0944-.4593-.0945-.1136-.2362-.1706-.4252-.1706h-.6352l-.1995,1.2493ZM349.545,785.7853l.6088-3.8315h1.2544c.3709,0,.6508.1048.8399.315.1889.2099.2553.4898.1993.8398-.0384.2344-.1216.4383-.2493.6114s-.2905.307-.4881.4015c-.1978.0945-.419.1418-.6639.1418h-.6928l-.2415,1.5221h-.5668ZM350.432,783.754h.6928c.1924,0,.3568-.0587.4934-.176.1364-.117.2204-.2737.2519-.4696s-.0017-.3525-.0997-.4699-.245-.1757-.441-.1757h-.6876l-.2099,1.2911ZM352.7466,785.7853l.6088-3.8315h2.2518l-.0787.5038h-1.6954l-.1731,1.0867h1.5115l-.0787.4986h-1.5115l-.1942,1.2387h1.6901l-.0787.5038h-2.2518ZM355.8434,785.7853l.6088-3.8315h1.202c.2379,0,.4391.0464.6036.139.1645.0928.2835.223.357.391s.091.3656.0524.5932c-.0384.2591-.14.4838-.3044.6746-.1645.1905-.3656.3209-.6036.391l.5354,1.6428h-.6194l-.4777-1.5748h-.5406l-.2466,1.5748h-.5668ZM356.7356,783.7068h.6352c.1889,0,.349-.0558.4803-.168.1313-.1119.2107-.2623.2388-.4514.0316-.1925,0-.3454-.0944-.4593-.0945-.1136-.2362-.1706-.4252-.1706h-.6352l-.1995,1.2493ZM360.1316,785.8377c-.385,0-.6736-.0951-.8661-.2859-.1924-.1908-.2641-.4505-.2151-.7794h.5668c-.028.1748.0105.3121.1155.4121.1051.0997.266.1495.483.1495.2029,0,.3701-.049.5012-.1469.1313-.098.2109-.2327.2389-.4044.0209-.1504.0007-.2788-.0604-.3856-.0614-.1068-.1583-.1811-.2913-.2233l-.4566-.1364c-.266-.0803-.4619-.217-.5879-.4095-.126-.1922-.1697-.4197-.1313-.6823.035-.2099.1121-.3935.2309-.551s.2729-.2799.4619-.3673.4024-.1313.6404-.1313c.3498,0,.6158.0954.7978.2859.182.1908.2485.4437.1995.7586h-.5668c.0279-.168-.0027-.3001-.092-.3964-.0891-.0963-.2301-.1444-.4225-.1444-.1889,0-.343.0447-.4619.1338-.119.0894-.1889.2144-.21.3753-.0245.1506-.007.2791.0525.3859s.1575.1811.2939.223l.4672.1469c.2624.0806.4558.2173.5801.4095.1242.1925.1653.4217.1233.6877-.035.217-.1155.4058-.2415.5667-.1259.1612-.2878.2862-.4855.3753-.1976.0894-.419.1338-.6639.1338ZM363.2651,785.8377c-.3568,0-.6228-.1005-.7978-.3019-.175-.201-.2345-.473-.1784-.8161l.2677-1.7006c.056-.3429.2029-.6148.4408-.8161.2379-.201.5355-.3019.8923-.3019s.6228.1.7979.2993c.1748.1993.2361.4707.1837.8136l-.2677,1.7057c-.0561.3431-.2039.6151-.4435.8161-.2398.2013-.5381.3019-.895.3019ZM363.3439,785.3339c.1925,0,.3483-.0524.4672-.1575.119-.1051.1942-.2571.2257-.4568l.2678-1.7006c.0315-.1993.0051-.3517-.0787-.4565-.084-.1051-.2223-.1575-.4148-.1575s-.3473.0524-.4645.1575c-.1173.1048-.1916.2571-.2231.4565l-.2677,1.7006c-.0315.1996-.0053.3517.0787.4568s.2204.1575.4094.1575ZM365.2754,785.7853l.6088-3.8315h.7086l.6194,3.186c.007-.098.0165-.217.0289-.3571.0121-.1398.0271-.2851.0446-.4354.0175-.1506.0367-.2888.0577-.4146l.315-1.9788h.525l-.609,3.8315h-.7085l-.6141-3.186c-.0071.0945-.0167.209-.0289.3437s-.0272.2757-.0446.4226c-.0177.1469-.0367.2833-.0578.4095l-.315,2.0102h-.5301ZM368.2252,785.7853l1.5851-3.8315h.7454l.3726,3.8315h-.5616l-.0735-.9711h-1.0865l-.3884.9711h-.5932ZM369.3852,784.3418h.8714l-.0893-1.1023c-.0175-.1959-.0298-.3654-.0367-.5089-.0071-.1435-.0105-.2432-.0105-.2993-.0175.0561-.0517.1558-.1024.2993s-.1146.3112-.1915.5038l-.441,1.1075ZM371.7208,785.7853l.6088-3.8315h.567l-.525,3.3118h1.6744l-.0787.5197h-2.2465ZM376.6785,785.8377c-.3673,0-.6342-.1005-.8003-.3019-.1663-.201-.2214-.475-.1654-.8213l.4357-2.7608h.567l-.4357,2.7554c-.0315.1962-.008.35.0708.4619.0787.1122.2144.168.4068.168.1925,0,.3473-.0558.4646-.168.1172-.1119.1915-.2657.2231-.4619l.4355-2.7554h.567l-.4357,2.7608c-.056.35-.2003.6245-.433.8241-.2328.1993-.5328.299-.9003.299ZM379.8435,785.8377c-.385,0-.6736-.0951-.8661-.2859-.1924-.1908-.2641-.4505-.2151-.7794h.5668c-.028.1748.0105.3121.1155.4121.1051.0997.266.1495.483.1495.2029,0,.3701-.049.5012-.1469.1313-.098.2109-.2327.2389-.4044.0209-.1504.0007-.2788-.0604-.3856-.0614-.1068-.1583-.1811-.2913-.2233l-.4566-.1364c-.266-.0803-.4619-.217-.5879-.4095-.126-.1922-.1697-.4197-.1313-.6823.035-.2099.1121-.3935.2309-.551s.2729-.2799.4619-.3673.4024-.1313.6404-.1313c.3498,0,.6158.0954.7978.2859.182.1908.2485.4437.1995.7586h-.5668c.0279-.168-.0027-.3001-.092-.3964-.0891-.0963-.2301-.1444-.4225-.1444-.1889,0-.343.0447-.4619.1338-.119.0894-.1889.2144-.21.3753-.0245.1506-.007.2791.0525.3859s.1575.1811.2939.223l.4672.1469c.2624.0806.4558.2173.5801.4095.1242.1925.1653.4217.1233.6877-.035.217-.1155.4058-.2415.5667-.1259.1612-.2878.2862-.4855.3753-.1976.0894-.419.1338-.6639.1338ZM381.9062,785.7853l.6088-3.8315h2.2518l-.0787.5038h-1.6954l-.1731,1.0867h1.5115l-.0787.4986h-1.5115l-.1942,1.2387h1.6901l-.0787.5038h-2.2518ZM386.9426,785.8377c-.3568,0-.6228-.1005-.7978-.3019-.175-.201-.2345-.473-.1784-.8161l.2677-1.7006c.056-.3429.2029-.6148.4408-.8161.2379-.201.5355-.3019.8923-.3019s.6228.1.7979.2993c.1748.1993.2361.4707.1837.8136l-.2677,1.7057c-.0561.3431-.2039.6151-.4435.8161-.2398.2013-.5381.3019-.895.3019ZM387.0213,785.3339c.1925,0,.3483-.0524.4672-.1575.119-.1051.1942-.2571.2257-.4568l.2678-1.7006c.0315-.1993.0051-.3517-.0787-.4565-.084-.1051-.2223-.1575-.4148-.1575s-.3473.0524-.4645.1575c-.1173.1048-.1916.2571-.2231.4565l-.2677,1.7006c-.0315.1996-.0053.3517.0787.4568s.2204.1575.4094.1575ZM388.9529,785.7853l.6088-3.8315h.7086l.6194,3.186c.007-.098.0165-.217.0289-.3571.0121-.1398.0271-.2851.0446-.4354.0175-.1506.0367-.2888.0577-.4146l.315-1.9788h.525l-.609,3.8315h-.7085l-.6141-3.186c-.0071.0945-.0167.209-.0289.3437s-.0272.2757-.0446.4226c-.0177.1469-.0367.2833-.0578.4095l-.315,2.0102h-.5301ZM392.249,785.7853l.6088-3.8315h.567l-.525,3.3118h1.6744l-.0787.5197h-2.2465ZM396.1174,785.7853l.2204-1.4119-.7506-2.4197h.5774l.4462,1.4486c.0279.0945.0498.1837.0656.2677.0157.084.0253.1469.0288.1888.0175-.0419.0464-.1048.0867-.1888.0402-.084.0883-.1731.1442-.2677l.8976-1.4486h.5984l-1.5275,2.4197-.2204,1.4119h-.5668ZM399.217,785.7853l.6088-3.8315h.7086l.6192,3.186c.0071-.098.0165-.217.029-.3571.012-.1398.0271-.2851.0444-.4354.0177-.1506.037-.2888.0578-.4146l.315-1.9788h.5248l-.6088,3.8315h-.7085l-.6141-3.186c-.0071.0945-.0167.209-.0289.3437s-.0272.2757-.0446.4226c-.0177.1469-.0367.2833-.0578.4095l-.315,2.0102h-.5301ZM403.5053,785.8377c-.3571,0-.6231-.1005-.7979-.3019-.1751-.201-.2344-.473-.1785-.8161l.2677-1.7006c.0561-.3429.203-.6148.4411-.8161.2378-.201.5354-.3019.8922-.3019.3571,0,.6228.1.7979.2993.1748.1993.2361.4707.1837.8136l-.2677,1.7057c-.0561.3431-.2039.6151-.4437.8161-.2395.2013-.5379.3019-.8947.3019ZM403.5839,785.3339c.1925,0,.3483-.0524.4673-.1575.1187-.1051.1942-.2571.2255-.4568l.2677-1.7006c.0316-.1993.0054-.3517-.0786-.4565-.084-.1051-.2224-.1575-.4146-.1575-.1925,0-.3474.0524-.4647.1575-.117.1048-.1914.2571-.223.4565l-.2677,1.7006c-.0316.1996-.0051.3517.0789.4568.0837.1051.2204.1575.4092.1575ZM406.3814,785.7853l.5248-3.3121h-1.0234l.084-.5194h2.6193l-.084.5194h-1.0289l-.5248,3.3121h-.567ZM409.5178,785.7853l.6088-3.8315h2.32l-.084.5194h-1.7636l-.1837,1.1445h1.6272l-.084.5248h-1.6166l-.2571,1.6428h-.567ZM413.7694,785.8377c-.3571,0-.6231-.1005-.7979-.3019-.1751-.201-.2344-.473-.1785-.8161l.2677-1.7006c.0561-.3429.203-.6148.4411-.8161.2378-.201.5354-.3019.8922-.3019.3571,0,.6228.1.7979.2993.1748.1993.2361.4707.1837.8136l-.2677,1.7057c-.0561.3431-.2039.6151-.4437.8161-.2395.2013-.5379.3019-.8947.3019ZM413.848,785.3339c.1925,0,.3483-.0524.4673-.1575.1187-.1051.1942-.2571.2255-.4568l.2677-1.7006c.0316-.1993.0054-.3517-.0786-.4565-.084-.1051-.2224-.1575-.4146-.1575-.1925,0-.3474.0524-.4647.1575-.117.1048-.1914.2571-.223.4565l-.2677,1.7006c-.0316.1996-.0051.3517.0789.4568.0837.1051.2204.1575.4092.1575ZM415.7952,785.7853l.6088-3.8315h1.202c.2381,0,.4391.0464.6037.139.1643.0928.2833.223.3568.391s.0911.3656.0527.5932c-.0387.2591-.1401.4838-.3044.6746-.1646.1905-.3659.3209-.6037.391l.5354,1.6428h-.6194l-.4776-1.5748h-.5408l-.2466,1.5748h-.567ZM416.6876,783.7068h.635c.1891,0,.3491-.0558.4804-.168.131-.1119.2107-.2623.2386-.4514.0316-.1925,0-.3454-.0945-.4593-.0943-.1136-.2361-.1706-.4252-.1706h-.635l-.1993,1.2493ZM420.905,785.8377c-.3602,0-.6308-.1005-.8107-.3019-.1803-.201-.2423-.473-.1865-.8161l.2677-1.7006c.0561-.3463.2056-.6194.4488-.8187s.545-.2993.9056-.2993c.3568,0,.6253.1008.8056.3019.1803.2013.2423.4733.1865.8161h-.567c.0313-.1993.0026-.3517-.0866-.4565-.0894-.1051-.2284-.1575-.4175-.1575-.1925,0-.3508.0524-.475.1575-.1242.1048-.2019.2554-.2335.4514l-.2677,1.7057c-.0316.1996-.0026.3517.0866.4568.0894.1051.2301.1575.4226.1575s.35-.0524.4724-.1575.1993-.2571.2309-.4568h.5667c-.0347.2275-.1145.4252-.2386.5932s-.2808.2976-.4699.3884c-.1888.0908-.4024.1364-.6404.1364ZM424.0335,785.8377c-.3571,0-.6231-.1005-.7979-.3019-.1751-.201-.2344-.473-.1785-.8161l.2677-1.7006c.0561-.3429.203-.6148.4411-.8161.2378-.201.5354-.3019.8922-.3019.3571,0,.6228.1.7979.2993.1748.1993.2361.4707.1837.8136l-.2677,1.7057c-.0561.3431-.2039.6151-.4437.8161-.2395.2013-.5379.3019-.8947.3019ZM424.1121,785.3339c.1925,0,.3483-.0524.4673-.1575.1187-.1051.1942-.2571.2255-.4568l.2677-1.7006c.0316-.1993.0054-.3517-.0786-.4565-.084-.1051-.2224-.1575-.4146-.1575-.1925,0-.3474.0524-.4647.1575-.117.1048-.1914.2571-.223.4565l-.2677,1.7006c-.0316.1996-.0051.3517.0789.4568.0837.1051.2204.1575.4092.1575ZM425.9653,785.7853l.6088-3.8315h.6874l.1837,1.2282c.0211.119.0367.2301.0473.3332.0105.1034.0194.1828.0262.2389.0177-.0561.0473-.1364.0894-.2415.0419-.1051.0908-.217.1469-.336l.5667-1.2228h.7088l-.6088,3.8315h-.5354l.2045-1.2911c.0245-.168.0578-.3525.1-.5539.0419-.201.0874-.4041.1364-.6088s.0963-.3998.1418-.5852c.0453-.1854.0874-.3483.1259-.4881l-.8554,1.8632h-.5513l-.2833-1.8632c-.0037.1364-.0105.2947-.0211.475s-.0236.3719-.0393.5747c-.0157.203-.035.4069-.0578.6114-.0228.2047-.0481.3964-.076.5749l-.2047,1.2911h-.5405ZM429.1145,785.7853l.6088-3.8315h.6874l.1837,1.2282c.0211.119.0367.2301.0473.3332.0105.1034.0194.1828.0262.2389.0177-.0561.0473-.1364.0894-.2415.0419-.1051.0908-.217.1469-.336l.5667-1.2228h.7088l-.6088,3.8315h-.5354l.2045-1.2911c.0245-.168.0578-.3525.1-.5539.0419-.201.0874-.4041.1364-.6088s.0963-.3998.1418-.5852c.0453-.1854.0874-.3483.1259-.4881l-.8554,1.8632h-.5513l-.2833-1.8632c-.0037.1364-.0105.2947-.0211.475s-.0236.3719-.0393.5747c-.0157.203-.035.4069-.0578.6114-.0228.2047-.0481.3964-.076.5749l-.2047,1.2911h-.5405ZM432.4107,785.7853l.6088-3.8315h2.2516l-.0786.5038h-1.6955l-.1731,1.0867h1.5115l-.0786.4986h-1.5118l-.1942,1.2387h1.6901l-.0786.5038h-2.2516ZM435.5073,785.7853l.6088-3.8315h1.202c.2381,0,.4391.0464.6037.139.1643.0928.2833.223.3568.391s.0911.3656.0527.5932c-.0387.2591-.1401.4838-.3044.6746-.1646.1905-.3659.3209-.6037.391l.5354,1.6428h-.6194l-.4776-1.5748h-.5408l-.2466,1.5748h-.567ZM436.3997,783.7068h.635c.1891,0,.3491-.0558.4804-.168.131-.1119.2107-.2623.2386-.4514.0316-.1925,0-.3454-.0945-.4593-.0943-.1136-.2361-.1706-.4252-.1706h-.635l-.1993,1.2493ZM439.8007,785.8377c-.3602,0-.6308-.1005-.8107-.3019-.1803-.201-.2423-.473-.1865-.8161l.2677-1.7006c.0561-.3463.2056-.6194.4488-.8187s.545-.2993.9056-.2993c.3568,0,.6253.1008.8056.3019.1803.2013.2423.4733.1865.8161h-.567c.0313-.1993.0026-.3517-.0866-.4565-.0894-.1051-.2284-.1575-.4175-.1575-.1925,0-.3508.0524-.475.1575-.1242.1048-.2019.2554-.2335.4514l-.2677,1.7057c-.0316.1996-.0026.3517.0866.4568.0894.1051.2301.1575.4226.1575s.35-.0524.4724-.1575.1993-.2571.2309-.4568h.5667c-.0347.2275-.1145.4252-.2386.5932s-.2808.2976-.4699.3884c-.1888.0908-.4024.1364-.6404.1364ZM441.8792,785.7853l.0789-.5038h.7768l.4459-2.824h-.7766l.0837-.5038h2.1258l-.084.5038h-.7766l-.4462,2.824h.7768l-.0789.5038h-2.1258ZM444.7399,785.7853l1.585-3.8315h.7452l.3728,3.8315h-.5616l-.0735-.9711h-1.0867l-.3884.9711h-.5929ZM445.8998,784.3418h.8714l-.0894-1.1023c-.0174-.1959-.0296-.3654-.0367-.5089-.0068-.1435-.0103-.2432-.0103-.2993-.0177.0561-.0518.1558-.1025.2993s-.1148.3112-.1916.5038l-.4408,1.1075ZM448.2354,785.7853l.6088-3.8315h.567l-.5248,3.3118h1.6741l-.0786.5197h-2.2465ZM453.1932,785.8377c-.3676,0-.6345-.1005-.8005-.3019-.1663-.201-.2213-.475-.1654-.8213l.4357-2.7608h.567l-.4357,2.7554c-.0316.1962-.008.35.0709.4619.0786.1122.2141.168.4066.168s.3474-.0558.4645-.168c.1173-.1119.1916-.2657.2233-.4619l.4357-2.7554h.5667l-.4357,2.7608c-.0558.35-.2002.6245-.4328.8241-.2329.1993-.5328.299-.9001.299ZM456.3581,785.8377c-.385,0-.6738-.0951-.866-.2859-.1925-.1908-.2643-.4505-.2153-.7794h.567c-.0282.1748.0105.3121.1153.4121.1051.0997.266.1495.483.1495.2028,0,.3699-.049.5012-.1469s.2107-.2327.2389-.4044c.0211-.1504.0009-.2788-.0604-.3856s-.1583-.1811-.2913-.2233l-.4568-.1364c-.266-.0803-.4619-.217-.5878-.4095-.1259-.1922-.1697-.4197-.1313-.6823.035-.2099.1119-.3935.2309-.551s.2731-.2799.4619-.3673c.1891-.0874.4024-.1313.6404-.1313.3497,0,.6157.0954.7979.2859.1817.1908.2483.4437.1993.7586h-.567c.0279-.168-.0026-.3001-.0917-.3964-.0894-.0963-.2301-.1444-.4226-.1444-.1891,0-.3429.0447-.4619.1338-.119.0894-.1891.2144-.2099.3753-.0245.1506-.0071.2791.0524.3859s.1575.1811.2939.223l.4673.1469c.2623.0806.4556.2173.5798.4095.1242.1925.1654.4217.1236.6877-.035.217-.1156.4058-.2415.5667-.1262.1612-.2879.2862-.4855.3753-.1979.0894-.4192.1338-.6641.1338ZM458.4209,785.7853l.6088-3.8315h2.2516l-.0786.5038h-1.6955l-.1731,1.0867h1.5115l-.0786.4986h-1.5118l-.1942,1.2387h1.6901l-.0786.5038h-2.2516Z" style="fill: #ccc;"/>
  <g id="g10">
    <g id="g12">
      <path id="path14" d="M151.0112,118.1826v377.6952c0,29.8477,3.8355,41.333,13.0103,57.2971l.5183.9011.5707.8563c53.2263,79.4515,141.6199,126.8851,236.4661,126.8851s183.2427-47.4336,236.4678-126.8851l.5745-.8563.5154-.9011c9.1757-15.951,13.0116-27.438,13.0116-57.2971V118.1826H151.0112" style="fill: #fff; fill-rule: evenodd;"/>
      <path id="path16" d="M621.9785,431.1615v64.7163c0,25.7452-2.9867,31.8113-8.9983,42.259-45.887,68.4968-123.4497,113.5081-211.4035,113.5081s-165.5148-45.0113-211.3976-113.5081c-6.0035-10.4477-8.997-16.5138-8.997-42.259V148.35h440.7964v282.8115ZM635.5351,345.5912v-210.7978H167.6242v361.0843c0,27.3624,3.2922,35.9517,10.8022,49.0183l.2311.406.2573.3844c50.1335,74.837,133.3685,119.515,222.662,119.515s172.5335-44.678,222.6662-119.515l.2577-.3844.2324-.406c7.507-13.0585,10.8021-21.6428,10.8021-49.0183v-150.2866" style="fill: #0e1e3d;"/>
      <path id="path18" d="M638.75,454.5879v41.2899c0,28.1579-3.4176,37.0493-11.2288,50.627l-.2831.4985-.3211.4736c-50.7326,75.7335-134.9743,120.9442-225.3403,120.9442s-174.6027-45.2107-225.3353-120.9442l-.3202-.477-.2852-.4985c-7.8074-13.5861-11.2284-22.4759-11.2284-50.6236V131.5786h474.3423v323.0093ZM646.274,347.905V124.0546H156.8863v371.8232c0,29.8261,3.9157,39.9055,12.228,54.3699l.4174.7275.4639.6882c52.1288,77.8157,138.7003,124.2826,231.5813,124.2826s179.4575-46.4669,231.5884-124.2826l.4605-.6882.4182-.7228c8.3139-14.4556,12.23-24.537,12.23-54.3746v-147.9728" style="fill: #0e1e3d; fill-rule: evenodd;"/>
      <path id="path20" d="M358.9451,245.861c-7.6735,0-13.9017-6.7255-13.9017-15.0225,0-8.2928,6.2282-15.0183,13.9017-15.0183s13.8962,6.7255,13.8962,15.0183c0,8.297-6.2211,15.0225-13.8962,15.0225ZM372.5195,161.1462l.076,46.4362c-5.02-4.9132-11.713-7.8872-19.0252-7.8872-15.6325,0-28.3078,13.6918-28.3078,30.5773,0,16.894,12.6753,30.5836,28.3078,30.5836,7.3896,0,14.0728-3.1029,19.1178-8.109v7.5349h18.809l-.0245-99.1358h-18.953ZM450.9393,243.4615h-17.4791v-62.5022h12.1954c5.3512,0,9.6915,4.5794,9.6915,10.215,0,5.6398-4.3403,10.2065-9.6915,10.2065h-6.3453v17.3333h11.6289c6.4872,0,11.3915,5.5131,11.3915,12.3483-.2277,7.0634-4.3399,11.9386-11.3915,12.399h0ZM466.2368,207.7387c4.9938-4.9132,8.0516-11.495,8.0516-18.7274,0-6.5523-2.3995-12.5765-6.581-17.3037-4.3585-5.0568-12.0683-7.3-22.4923-7.3h-31.2224v95.8613h40.3233c15.4606-.2657,27.9019-12.6293,27.9019-27.7151,0-10.9711-3.6711-18.795-15.981-24.815ZM559.2778,260.3445h18.2627v-98.4632h-18.2627v98.4632ZM528.5823,235.9925c0,5.7581-4.7991,10.4262-10.7092,10.4262-5.9144,0-10.705-4.6681-10.705-10.4262v-34.5906h-18.6049v38.2617c0,12.9567,13.0876,23.4581,29.2423,23.4581s29.2508-10.5014,29.2508-23.4581v-38.2617h-18.4739v34.5906ZM257.3017,192.5726c0-15.6562-12.3205-28.3425-27.5221-28.3425-.4655,0-2.5892.0085-3.0497.0338h-32.0157v95.9369h19.4346v-79.3894l11.5909-.1014c7.1784,0,12.6293,5.6187,12.6293,12.5553,0,6.9325-5.8189,12.5553-12.9939,12.5553l-4.5135.1056v22.8463l19.4131,31.4281h22.9034l-26.8424-40.0926c12.0349-3.029,20.966-14.2072,20.966-27.5356h0ZM278.6124,223.2809c0-6.4636,5.1256-11.7104,11.4511-11.7104s11.4473,5.2469,11.4473,11.7104h-22.8983ZM289.8983,198.1575c-17.1077,0-30.9761,14.355-30.9761,32.0601s13.8734,32.0808,30.9795,32.0808c13.0598,0,23.2464-6.0407,28.4975-15.5079l-15.2151-7.1775c-1.9403,4.2837-6.4669,7.2873-11.7476,7.2873-7.0415,0-12.7514-5.3483-12.7514-11.947,0-.4267-.1698-.2535-.1221-.6675l41.4039.0169c.1255-1.3096.1897-2.6488.18-4.0218.2822-20.7425-13.1426-32.1235-30.2486-32.1235ZM590.1508,161.8813v98.4632h18.2712v-98.4632h-18.2712" style="fill: #d81144;"/>
      <path id="path22" d="M531.8056,385.4802c0,72.3141-58.6198,130.9377-130.9289,130.9377s-130.9196-58.6236-130.9196-130.9377,58.6088-130.9251,130.9196-130.9251,130.9289,58.6177,130.9289,130.9251" style="fill: #fbc715; fill-rule: evenodd;"/>
      <path id="path24" d="M514.5483,425.087c-.1943-.2902-.3844-.5741-.5703-.8529-.2324-.3468-.4647-.6966-.7562-1.1373-1.0899-1.6336-2.0531-3.0662-2.5178-4.3335,2.2179.2197,4.5836.4474,7.0254.5445l-3.1811,5.7792ZM748.1869,461.8491l-.0211-.0498c-.1521-.3215-.3675-.787-.4689-1.0312-.1394-.6848-.2366-1.4917-.3464-2.34l-.0169-.1238c-.2535-2.0396-.5238-4.1468-1.3983-6.2016-1.3645-3.1849-4.4485-5.538-7.883-6.2177-.2619-1.4161-.8618-2.4591-1.2294-2.9872-2.1503-3.1038-5.3948-5.2676-7.807-6.8683-.6675-.4436-1.4194-.9471-1.6983-1.1829l-.6591-.5116c-1.5884-1.2627-3.4937-1.926-5.5341-1.926-3.367,0-6.9536,2.1043-9.1377,4.8616-.376-.9755-.997-3.2689-1.3476-4.571-.4858-1.7773-.9421-3.4591-1.4194-4.7725l-.0676-.1834c-.0591-.1601-.1225-.3249-.207-.5559-.8914-2.3911-2.9783-7.9806-9.2306-9.0253-1.694-.2738-3.3754-.3464-4.8709-.4089-3.0332-.1305-4.2034-.5956-4.609-.8449.0761-.2657.2281-.6966.5069-1.3683.5618-1.373.9548-2.5558,1.2758-3.8021,1.2758-4.3268,2.1672-10.6171,1.1491-16.1289,1.4532.2112,3.0882.3629,4.7146.3629,5.1371,0,10.5276-1.1022,15.1746-3.1055l.2577-.1225c9.1842-4.462,18.2458-14.6849,17.7726-27.4659l-.0254-.3633c-1.0519-11.0531-7.2155-21.5105-18.7697-31.8408,2.9867-.8001,6.2143-1.8119,9.1335-3.8367,8.3435-5.6106,11.9555-15.6604,9.8981-27.5732l-.1817-.8006c-1.3265-6.1091-5.8257-6.5827-7.1733-6.5827-1.787,0-3.5317.6996-4.8962,1.9589-.2746.2556-.5618.523-.8661.8137-.6971.6649-1.487,1.4173-2.1376,1.7887-1.7912,1.0578-4.3851,1.6007-7.148,2.1799-2.0785.4343-4.4315.9277-6.717,1.7164-10.3544,3.5693-16.894,9.1554-19.4414,16.6143-1.5377,4.5215-.8618,9.9839,1.8546,14.987l.2112.3633c3.1684,5.0133,7.6296,9.2822,11.571,13.0581,5.5806,5.3466,10.8528,10.3962,11.9343,16.4774.1817,1.1056.5238,3.1388-3.1684,5.9275-1.4574.817-3.481,1.2623-5.7285,1.2623-3.2909,0-6.9874-.9273-9.8855-2.4785l-.1563-.0824c-4.5541-2.2774-9.1292-5.3352-13.6157-8.3338-7.1944-4.8101-14.6296-9.7824-23.2815-12.6073-3.9964-1.746-8.221-2.604-11.9639-3.3585-4.7442-.9653-9.2222-1.8727-12.3948-4.3614l-.4478-.3168c-1.3772-.8994-2.7966-1.9272-4.1696-2.9209-4.1696-3.0117-8.8842-6.4243-14.5705-7.9324-2.201-.7228-4.2795-1.0198-5.9693-1.2593-2.163-.3084-3.4303-.5162-4.3259-1.155-.9294-.6649-1.8588-1.3451-2.7924-2.0265l-.1394-.1073c-3.895-2.8448-7.921-5.7923-12.209-7.9324-7.1944-3.5976-14.5747-5.3766-22.6816-7.1471-.4225-.0993-1.5251-1.444-2.2644-2.3417-1.2082-1.4752-2.7079-3.299-4.7906-4.7594-6.058-4.7771-12.9398-9.1635-22.2169-9.1635-.828,0-1.6644.0346-2.3953.0955-5.5764.373-10.3121,3.977-13.4003,6.6672-6.7973,5.9537-14.2029,11.3121-21.3635,16.4956-11.081,8.0165-22.5358,16.3089-32.5493,27.2331-10.487,10.8584-14.2942,24.3541-17.654,36.2635-.485,1.7164-.9687,3.4274-1.4968,5.2262-.9125,3.2842-1.7443,6.6338-2.5575,9.8914-4.1126,16.5302-8.0004,32.1412-23.4445,42.1745-2.4807,1.6091-3.8253,4.4062-3.5119,7.2907.3185,2.9061,2.3019,5.4539,5.0496,6.4935,1.2213.4605,3.345.9294,5.9245.9459.0904,1.6978.7258,3.2922,1.8398,4.5841,1.0857,1.2543,3.127,2.784,6.7031,2.9356l.2691.0085c10.6522,0,18.2184-6.1176,24.7499-12.4493,2.3349,2.0231,5.2097,4.1819,9.1322,4.9934l1.0561.1981,1.1651-.1352c3.8722-.5365,7.2645-.9619,10.6568-.8022,3.1262.9721,6.3241,2.1803,9.5095,3.3796,2.4333.9159,4.9469,1.8584,7.5113,2.7295l1.2674.3929,1.1111-.0427c6.9663-.2577,10.874-6.3998,12.3399-8.7119l.2831-.447.207-.4854c.2324-.5576.4182-1.1119.5576-1.6484.0042.0165.0085.038.0169.0545l.4225,1.4701c.9083,3.2331,1.8504,6.5747,3.9626,9.0532,1.9644,2.2956,4.6428,3.5034,7.7393,3.5034h.0127c1.1491,0,2.1883-.1618,2.936-.2788.131-.0182.245-.038.3506-.0511.1098.1187.2197.2408.3253.3498,1.2167,1.3105,3.0501,3.2791,6.0538,4.1996,2.8262.9425,5.682,1.6898,8.4913,2.4262,3.4008.891,6.9198,1.8068,10.0925,3.0446l.3591.1318c2.5094.8022,5.2511,1.5956,8.1534,1.5382,4.5202-.0182,7.3085-1.7675,9.6489-3.6555,3.8275-3.0957,5.3609-6.48,6.227-9.771.5872-.0841,1.2294-.2374,2.0911-.5247,4.7399-1.5707,9.3616-10.269,9.4081-10.3582.3211-.6206.7055-1.2163,1.035-1.7148,1.1702-1.7705,1.749-3.6369,1.7236-5.543-.0634-4.571-3.6078-8.1238-8.1914-8.2594l-.7435-.0245c-.376,0-9.2771-.0431-11.8414.0046l-.2197.0085c-1.1195.0625-2.1292.2788-3.0628.5826-.0549-.0727-.1014-.1487-.1605-.2197-.6844-.8365-1.411-2.7426-2.3869-3.2229.0718-.0642.2704-.1187.3422-.1779l2.4883.2653c1.5884.1572,3.2191.2412,4.8455.2412,5.6609,0,10.8064-.929,15.7914-1.8284,4.3851-.7904,8.7997-.3599,13.2313-.3599.4478,0,.9041.0085,1.3687.0266l.245.003c1.9095,0,3.8148.1736,5.8848.3549,2.0743.1897,4.4231.4009,6.8353.4009.8703,0,1.6898-.0245,2.501-.079,2.3277-.1107,4.5202-.5065,6.5185-1.1537.1901,1.1077.4436,2.4671.7731,4.157l.3211,1.3945c1.1533,4.9837,2.8938,12.5169,11.833,18.3206l1.3392.8749c4.1485,2.7261,6.6452,4.3597,12.8595,5.2989,1.5884.2442,4.5625.1812,6.4424-.2759,7.807-1.6898,16.5349.3515,23.5181,5.4408l.6125.3895c.5618.3219,1.3392.9801,2.1123,1.6353,1.6096,1.3548,3.6078,3.0446,6.2988,4.0429,1.7574.6966,3.6542,1.0595,5.6524,1.0726h.1352c3.8232,0,5.9186-1.1664,7.4521-2.0231.0042-.0046.0127-.0097.0254-.0182.2492.3384.5154.7148.752,1.0397,1.0984,1.5382,2.4587,3.4523,4.4358,5.2642,3.7767,3.6124,8.4786,4.0349,11.6893,4.0349,1.5124,0,2.9614-.1056,4.2288-.1948.4605-.0346.959-.0591,1.4321-.0807.8914-.038,1.7194-.0841,2.2644-.1521.9463-.1086,1.5757-.2442,1.8884-.3249,1.656,1.2078,3.3966,1.378,4.1823,1.378.6675,0,1.3392-.0942,1.994-.289l7.4141-2.4325c2.1038-.6552,3.8021-2.1748,4.6512-4.1189,1.5969-3.5909.0169-6.9756-1.1364-9.4423" style="fill: #fff;"/>
      <path id="path26" d="M295.7666,417.3903c-.3004.2822-.6121.5661-.9273.8534-1.7279,1.5791-3.9276,3.5909-5.6406,6.1421-1.2327-2.0776-2.0561-3.5993-2.721-4.9934,2.8216-.4043,5.6402-1.2674,7.9176-2.2677.49-.0131.9767-.0346,1.4604-.0676-.0313.1141-.0613.2231-.0891.3333ZM386.5251,434.8382l-3.8929-1.9437c-3.3564-2.0316-5.5941-5.7923-7.9789-9.7925-1.1203-1.8795-2.2787-3.8236-3.5495-5.606-1.2129-1.7739-2.9128-3.2951-4.2807-4.5249-.2442-.2142-.5593-.4981-.8183-.7393-4.1802-11.4772-8.6109-24.8568-9.692-39.4167-.2721-3.634-2.386-9.847-4.7112-13.8536l-.0794-.1322c-6.6389-10.8169-22.0648-28.7713-22.9608-29.7235-.5826-.6155-1.2179-1.2378-1.7709-1.7823l-.406-.3958-27.4676-22.854-.4144-.3151c-5.7906-4.0564-7.883-4.9905-12.3847-6.6241-7.0596-2.5609-16.8834-2.2031-23.9726.8386l-.4639.2192c-2.3797,1.2606-4.5942,2.6733-6.7525,4.0547-3.2791,2.0958-6.3765,4.0725-9.5217,5.124l-.5843.226c-2.6817,1.2027-5.7593,2.1549-8.7364,3.0776-6.4936,2.0084-13.8536,4.2841-19.9378,9.8664-1.49,1.37-2.7113,2.52-3.7379,3.4903-1.4685,1.3861-2.8613,2.6982-3.4388,3.086-.1635.0165-.5019.0363-1.1816.0363-10.2859,0-17.9298,2.6619-25.5653,8.8944l-.2522.2197c-4.6521,4.2279-9.2281,8.1601-14.05,9.8352-1.9868.6882-4.4886.9771-7.2413,1.2492l-.2754.0249c-4.6026.406-5.6106.5116-10.0633,1.5724-7.8137,1.8022-15.3833,7.6904-21.4641,12.4214-2.6965,2.0958-4.4375,3.4041-5.1801,3.8862-.5344.3515-1.1913.7609-1.7177,1.0692-6.6849,3.9111-12.4578,7.2856-19.4131,7.2856l-.3468-.0046c-3.8067-.3333-7.3765-2.9872-8.5877-6.3782-1.1453-4.4176.2015-8.8204,3.7958-12.4181,2.3184-2.3184,5.0593-4.6483,7.7111-6.9059,4.7116-4.0053,9.1605-7.7922,12.4941-12.2677,5.2114-6.9887,4.6766-17.9146-1.1867-24.3457-4.5017-4.944-12.304-7.3435-18.5829-8.88l-.5298-.1301c-.3021-.076-.7194-.155-1.1372-.2214l-.3663-.0693c-.7076-.1386-1.4059-.2623-2.0958-.3861-1.2095-.2146-2.3514-.4157-3.4439-.6831-2.1486-.6058-4.3533-2.1305-6.685-3.7442-1.6651-1.1504-3.3829-2.3383-5.3087-3.3779l-5.1041-2.7477-3.1667,4.8565c-2.406,3.6863-3.4094,7.807-3.0694,12.5896l.033.3481c1.1007,8.6371,7.9573,17.6772,16.3041,21.4839l.1898.0828c.297.1238.5974.2442.8977.3544,1.9307.8056,3.8301,1.1554,5.5992,1.3037-4.5133,3.784-9.0184,7.8108-12.9591,12.6408-7.6883,8.474-8.1471,22.222-4.6272,31.4332,4.4919,12.075,16.649,18.8043,26.7419,20.1262,1.7637.2754,3.5212.4111,5.3664.4111,3.1532,0,6.183-.4191,9.0511-.9852,0,.038.0017.0756.0034.1136.2078,4.5465.3515,7.4229.6848,9.185.7182,3.7941,2.4342,7.989,3.5697,10.768.0376.0938.0756.1863.1136.2754-2.2492,1.4224-5.5595,2.7658-6.845,3.1008-1.7806.2112-3.7113.3168-5.132.3878-.9902.0562-1.7709.1056-2.1769.1483-2.1186.2493-4.0378,1.1537-5.5646,2.6272-1.9539,1.8977-3.1236,4.8963-4.7425,9.0418-.6455,1.6552-1.3137,3.3615-1.954,4.7606-.5314.8069-1.2707,1.5382-2.137,2.2213-1.1007-1.9805-2.8977-3.421-4.0348-4.3302l-.0082-.0085-.1832-.1386c-2.845-2.2821-7.218-2.3581-10.3733-.1994-.4686.3168-.9389.6303-1.4076.9421l-.3779.2493c-1.9885,1.3184-4.2411,2.8055-6.6273,4.8088-1.5743,1.3083-2.7163,3.2939-3.2344,5.4868-.5594.0807-1.1155.2163-1.6618.4309-3.741,1.5411-7.9821,5.9224-8.3138,10.3201-.1188,1.6007-.3366,4.5169-.5611,5.3453-.0594.0756-.1733.2112-.3878.4504-2.543,2.8351-3.2905,7.9045-.0446,11.1621,2.1981,2.2014,10.6802,4.4738,12.3452,4.4738h.4109l1.0446-.1356.4753-.1386c.538-.1648,1.0166-.3595,1.4539-.5957l1.9604.1817c1.0347.0891,2.2245.3498,3.6585.6552,2.2278.4799,4.7543,1.0295,7.4722,1.0295,2.9044,0,5.5711-.6417,7.9326-1.9125,4.2806-2.0578,6.4013-5.7031,7.9606-8.3832.4457-.7672.9028-1.5546,1.3468-2.1748.2408.0591.4867.1221.7013.1812,1.1618.3088,2.6091.6932,4.2229.7858,6.8894.376,12.9212-3.5233,15.8949-5.8848,1.1732-.9243,2.2855-1.9686,3.2973-2.9111,1.1254-1.0511,2.2855-2.1368,3.3019-2.8414,1.0494-.4225,2.4722-.6388,4.233-.6388,2.9851,0,6.4044.6286,9.1913,1.1533,6.0398,1.5251,12.5135.8022,17.395-1.9602,2.6289-1.4917,5.271-2.8731,7.3997-3.9888l.3595-.1897c1.1618-.6121,2.19-1.1533,3.0134-1.6007,4.9524-2.721,8.6899-8.6354,10.9606-13.1307,1.1089-2.2048,2.7806-6.3186,3.2411-7.4639.4525.0249.9176.038,1.3962.038h.0084c3.2406,0,6.6254-.5331,9.6138-1.0101,2.0595-.3198,4.007-.6286,5.4919-.7013l.2611-.0165c.5792-.0461,1.1812-.076,1.787-.076,2.9834,0,7.3254.3583,10.5762.7182,2.7244.3004,4.5697.5627,8.1618.7342.4854.0182,1.0084.0642,1.558.1107,1.1402.0891,2.4342.1948,3.8367.1948,3.6521,0,6.6321-.8665,9.0794-2.0713.6949.6768,1.8368,2.2855,2.604,2.9373-.1153,0-.2243.0034-.3396.0034-2.3417,0-4.4886.9471-5.9722,2.5314-2.0299-.9801-5.38-.9801-8.4491-.7275-3.6204.2919-6.8932.8284-10.5369,1.6104-2.7079.5745-4.6964,1.8964-5.8117,4.3682-1.147,2.5461-.9885,5.4704.4372,8.0004,1.8778,3.3547,3.6846,6.3879,5.5975,9.5944l.8415,1.4157c.8796,1.4735,3.0379,3.9457,7.6257,3.9457.5674,0,1.1896-.038,1.8846-.0841.0625-.0051.1284-.0101.1931-.0135.117.2112.2374.4225.3561.6421,1.3764,2.4802,3.0827,5.5595,6.1471,7.9755,3.0696,2.6319,7.322,4.1354,11.7003,4.1354,1.9357,0,3.8266-.2822,5.6186-.8483,8.2907-2.5973,16.395-5.2807,24.2882-9.3236h1.0346l.6434-.033c.5082-.0511,1.0266-.0891,1.5496-.1322,3.1684-.2328,7.9557-.5826,11.6243-4.4489l.3413-.3583.2805-.406c1.441-2.0958,2.7658-4.1899,3.9985-6.3203.0579.2459.1238.5036.2066.7659l.0558.1681c1.8647,5.4674,7.4787,7.913,12.2216,7.913h.0068l.2754-.0085c5.3715-.2357,10.0401-1.9255,14.159-3.4143l.2822-.1056c.5809-.2011,1.1618-.4123,1.7574-.6235l.4094-.1618c3.1186-1.3434,7.6718-1.5762,13.1683-.6797l.7047.1136.7148-.0461c5.7923-.3679,10.2576-3.1769,13.9444-6.1636,6.9899,7.368,15.8615,11.1025,26.3785,11.1025.3827,0,.7705-.0051,1.1765-.0182l1.7131-.1221.4753-.109c3.4358-.812,5.7593-3.4274,6.061-6.8235.0629-.6717.0334-1.3303-.0756-1.9686.64-.071,1.2674-.1732,1.8812-.3122,3.2508-.7177,5.6736-3.236,6.1683-6.4209.5298-3.4274-1.0097-6.4851-4.018-7.9886" style="fill: #fff;"/>
      <path id="path28" d="M251.7109,442.4508c-.1901-.3219-.4043-.6848-.6172-1.1453-.6371-1.2293-1.005-2.5136-1.3286-3.6454-.6518-2.2741-1.2027-4.2245-3.6487-3.8748-3.495.5031-6.878.7359-10.6501.7359-.0499,0-1.2298.0085-1.5926.8267-.4191.9556.5348,1.8335,1.5411,2.7641.5728.523,1.1634,1.0675,1.5762,1.6636.6996,1.0147,1.3679,2.4933,2.0147,3.9208,1.0232,2.2606,1.9061,4.2161,2.9492,4.5414.4241.1301.9125.1981,1.4537.1981,2.3581,0,5.6389-1.2792,7.9903-3.1126,1.332-1.1284.9028-1.8596.3122-2.8727" style="fill: #d81144;"/>
      <path id="path30" d="M81.4004,438.9191l-.1898-.1533c-.7162-.5695-2.0265-.4934-2.8994.1022-.6073.4144-1.2162.8153-1.8251,1.2163-1.9423,1.2889-3.9539,2.6188-6.081,4.3977-.7673.6468-1.1898,1.8795-1.269,2.8186-.0611.7427.0726,1.3514.3828,1.7148.1766.1977,1.7212,1.9255,2.0545,2.1963.5066.4225,1.3169.9852,2.472.9852.6568,0,1.3565-.1863,2.0826-.5496,3.7509-1.8926,7.6421-8.8631,7.7907-9.2724.4076-1.1237-.8829-2.1503-2.5183-3.4557" style="fill: #d81144;"/>
      <path id="path32" d="M64.5039,470.6872h0v.0084-.0084ZM69.0106,455.4413c-.7739-1.0992-3.3433-4.1075-4.7922-4.1075-.1271,0-.2443.0182-.3548.0642-1.9918.8238-4.3087,3.4177-4.4259,4.9592-.5033,6.7593-.6931,7.4686-2.5413,9.5348-.5181.5741-.8713,1.9061-.2822,2.5018.5132.5116,7.157,2.6239,7.8896,2.6239l.1485-.0215c.6007-.1732,1.0842-1.6983,2.4291-6.355.7244-2.5085,1.5463-5.3567,2.4621-7.9295.0594-.1631.0743-.414-.533-1.2703" style="fill: #d81144;"/>
      <path id="path34" d="M344.1922,403.4413c-.264,1.6767-.6603,2.4883-.8846,2.8811-.2243.3963-.6075,1.2788-1.8482,1.2838-1.3633.0085-1.2606-1.6007-1.2758-1.8199,0,0-.1614-4.4459-1.0147-6.3254-.9256-2.0396-5.4045-7.7892-7.9836-7.548-.6552.0574-2.3383,1.0642-3.5942,2.6978-1.52,1.9737-1.5132,2.2099-1.9822,2.5153-.4685.2987-1.0743.1386-1.2788-1.0232-.2061-1.1618-.4123-2.1123.1272-4.3352.5445-2.2263,1.0857-2.7062,1.7375-4.304,0,0,1.3485-3.1088,1.8567-3.8811,1.3861-2.1043,3.2474-1.967,3.2474-1.967.5019.033,2.0958-.1783,3.8139,1.975,1.9885,2.4921,1.5626,2.2661,2.122,3.1473.5576.8829,1.1487,1.7954,2.792,3.5807,1.6471,1.7921,3.4624,5.2807,3.9605,7.4441.4968,2.1668.4689,4.0002.2049,5.6787ZM331.8008,431.919s-.2163,2.0527-1.1799,2.9276c-.9607.8694-4.4142,1.3565-6.2232,1.2838-1.8119-.071-2.4355-.3219-2.8169-.8829-.4258-.6257.264-1.8465.264-1.8465.218-.4474,2.3518-4.8616,6.6207-6.012,0,0,1.3831-.5099,2.6898.1402,1.3071.6472.6983,3.9242.6455,4.3897ZM286.2665,359.7667c-.1487.5281-.477.8745-.8369.8745-.1601,0-.5412-.0744-.6764-.7558-1.4161-7.2396-2.2741-10.8038-3.9229-14.1421-.5344-1.0726-1.1862-1.9674-1.7637-2.7595-1.2146-1.6615-2.2661-3.0991-1.0861-5.0378.3498-.5729,1.2163-.9573,2.1604-.9573.46,0,.899.0959,1.2703.2691,1.3979.6633,2.7544,2.3565,4.1536,5.1734,3.4954,7.1403.7296,17.2332.7017,17.3354ZM383.7048,440.4737c-1.8829-.9391-4.0927-2.0413-4.0927-2.0413-4.8498-2.83-7.6485-7.5281-10.3548-12.078-1.0629-1.779-2.1617-3.6204-3.3568-5.2972-.782-1.1487-2.1106-2.3366-3.282-3.3847-1.0232-.9159-1.9885-1.7819-2.1634-2.2559-4.4294-12.0974-9.256-26.3274-10.4296-42.1314-.1812-2.4257-1.8744-7.7098-3.8731-11.1553-6.2937-10.2564-21.3504-27.8229-22.1738-28.6973-.523-.553-1.0975-1.114-1.5893-1.5956l-.4072-.3963-27.0933-22.5189c-5.3914-3.7721-7.0368-4.4523-10.923-5.8628-2.4883-.9011-5.434-1.3797-8.5218-1.3797-3.8367,0-7.6701.7359-10.8119,2.0857-2.157,1.1406-4.2626,2.4853-6.2992,3.7839-3.4603,2.2149-7.0415,4.5021-10.9293,5.8007-3.0265,1.3582-6.2937,2.3679-9.4541,3.3467-6.1467,1.901-12.5017,3.8697-17.5382,8.4901-1.4638,1.3451-2.6653,2.4756-3.672,3.4244-4.647,4.3897-5.1337,4.8468-8.9489,4.8468-8.8255,0-15.0732,2.1617-21.5765,7.472-5.1556,4.6867-10.2745,9.0629-16.2252,11.1258-2.6665.929-5.622,1.2674-8.7575,1.5808-4.5034.3912-5.1966.4372-9.4706,1.4558-6.426,1.4816-13.2364,6.7622-19.0105,11.2542-1.8879,1.4689-4.4176,3.416-5.6089,4.1916-.6155.4009-1.3717.8715-1.9771,1.226-7.1653,4.1916-13.933,8.1521-22.5963,8.1521-.2163,0-.436,0-.6371-.008-6.4623-.4588-12.3569-4.9258-14.3306-10.8389-1.8235-6.6583.1337-13.4771,5.3716-18.7131,2.4984-2.5001,5.3381-4.9178,8.0841-7.2527,4.4328-3.7691,8.621-7.3304,11.5254-11.2331,3.3763-4.53,3.0049-12.1671-.7921-16.3338-3.7873-4.1553-12.2512-6.2266-15.4361-7.0052l-.553-.1356c-.3135-.0773-.8796-.1419-1.1765-.2159-2.0214-.3946-3.9473-.6717-5.921-1.1588-5.0381-1.373-8.9326-5.2655-13.3965-7.6701-1.7179,2.634-2.2888,5.497-2.0611,8.7.8548,6.728,6.4491,13.7065,12.6654,16.545.2624.1124.5264.2163.7954.3101,1.9671.8449,4.0381.9624,5.9838.9624.4174,0,.8365-.0051,1.2555-.0131.4195-.0051.8352-.0085,1.2526-.0085,1.2048,0,2.6323-.0085,3.944.3299,1.2065.3135,2.4574,1.5052,2.6256,3.0282.1005.8914-.3021,1.5791-1.4372,2.4671-1.0464.8779-2.1009,1.7494-3.1587,2.6188-5.3483,4.4193-10.8782,8.9907-15.3734,14.5434-6.0216,6.502-6.2939,17.7925-3.4951,25.1162,3.5876,9.6455,13.502,15.0301,21.7285,16.0816,1.4685.2323,2.9306.3464,4.4721.3464,4.8447,0,9.4621-1.1702,13.9309-2.2939.1652-.041.3037-.0625.4225-.0625.2062,0,.591,0,.6603,1.0261.1369,1.9936.2374,4.2545.3367,6.4424.1631,3.5562.3135,6.9164.5838,8.3304.5974,3.165,2.1668,7.0136,3.2064,9.5517.4423,1.0823.7904,1.9306.9108,2.3581.406,1.444.0317,3.0117-.937,3.8992-3.3915,3.1042-10.2775,5.5793-11.5432,5.7412-2.0417.2573-4.2114.3713-5.7957.452-.8069.0414-1.444.0794-1.7806.1174-.7524.0858-1.3764.381-1.901.891-.9687.934-2.0316,3.6551-3.2609,6.8024-.7393,1.8926-1.5031,3.8532-2.2741,5.4835-2.1549,3.5909-5.7839,5.69-9.2955,7.7229-.8779.5065-1.7492,1.0084-2.5908,1.5331l-.1023.1005c-1.4439,2.2859-2.8928,4.4704-4.7443,6.1062-1.4456,1.3383-3.2988,1.6518-5.0711,1.863l-.1238.008-.0825.0976c-2.7278,3.1384-3.614,7.3072-4.4688,11.3416-.1304.6206-.2624,1.2344-.401,1.855l-.1155.5741.3598.0346c1.4324.1305,2.8813.4423,4.416.7727,2.0133.4389,4.0958.8876,6.1371.8876,1.9307,0,3.5975-.406,5.0711-1.2293,2.6206-1.2048,4.0183-3.604,5.3698-5.9275.8876-1.5297,1.8052-3.1093,3.0726-4.3352.7427-.8052,1.6273-1.1867,2.7823-1.1867,1.0181,0,2.1406.3004,3.2246.5927.9885.2573,2.0151.5361,2.9901.5855,4.827.2708,9.3996-2.754,11.6407-4.5279.9767-.7722,1.9522-1.6852,2.8959-2.5677,1.4621-1.37,2.9737-2.784,4.5777-3.7941,1.9606-.934,4.3369-1.3912,7.2662-1.3912,3.6318,0,7.4851.7228,10.5614,1.302,1.6467.4309,3.3332.6502,5.0133.6502,2.9306,0,5.6651-.6717,7.9062-1.942,2.6931-1.5217,5.3977-2.9407,7.5725-4.0813,1.2691-.6683,2.3881-1.2555,3.2723-1.7409,3.8731-2.1254,7.1357-8.0017,8.3616-10.4342,1.1389-2.2606,3.0991-7.1653,3.1173-7.2164l.0908-.2226-4.5051-3.4443-.1846.3139c-.03.041-2.9787,4.9123-4.8962,7.1636-7.9346,10.8153-20.8735,12.2047-31.2502,12.2047-.7194-.0245-1.4325-.038-2.1469-.038-12.8583,0-23.2185,4.3137-30.7915,12.8304-.3561.4013-.967.4605-1.231.1272-.1601-.2028-.1994-.5327-.1073-.9256.2112-.8914.2987-1.1487.8466-2.1372,8.0566-11.4245,21.7877-13.1177,32.8657-13.3204,8.1851-.5445,14.1408-1.9636,19.3159-4.6039,6.6406-3.3767,11.5596-10.8617,13.4886-16.7731,1.2674-3.8895,1.8863-8.0431,2.487-12.0514.4736-3.19.967-6.4851,1.7739-9.5103.1419-.4225.5661-.6468.9129-.6468.0921,0,.1778.0131.3249.0642.4208.071,1.2146.3798,1.2213.997-1.1157,6.2823-2.6437,14.8831.2311,22.0648,1.3333,2.8469,4.1832,4.2279,8.7148,4.2245,2.7426,0,5.7344-.4685,8.6303-.9256,2.2394-.3498,4.3534-.6831,6.1835-.7722.7608-.0676,1.5462-.0976,2.34-.0976,3.6057,0,7.0858.6966,10.4524,1.3764,2.9373.5876,5.9756,1.1998,9.0929,1.3485.5543.0296,1.1482.0756,1.7671.1221,1.0794.0891,2.1951.1779,3.3302.1779,2.6336,0,4.497-.5196,5.8599-1.6269.9556-.7807.6189-1.9391.1981-3.4092l-.076-.2611c-.0727-.2539-.1567-.5281-.2492-.8284-.6054-1.9437-1.5213-4.8844.0118-6.2358.2129-.1686.5412-.2822.8348-.2822.2594,0,.591.079.708.4685.1715.5576.335,1.1237.4951,1.6932.6683,2.3497,1.3599,4.7822,2.8714,6.8615,3.1519,4.0349,8.0448,7.8534,14.1193,11.0303,3.901,2.6944,8.6274,7.2328,8.9983,13.5532,0,2.868-2.7789,4.8662-4.8447,6.1074-3.2542,1.6269-8.3735,3.5955-11.4739,3.4438-2.0793-.1022-3.8055-1.4292-3.9259-1.5348-3.1718-2.9141-2.8123-3.9157-4.8798-7.3799-1.0975-1.8415-2.2327-3.7425-3.6635-5.4193-1.9771-2.193-4.4624-3.0248-7.8154-2.754-3.2343.2607-6.213.8614-9.7693,1.6252-.741.1567-1.3037.5927-1.5893,1.2213-.3152.7013-.2476,1.5546.1897,2.332,1.8351,3.274,3.6226,6.2739,5.5135,9.4457l.8432,1.4157c.4605.7727,1.4224.8698,2.2099.8698.4305,0,.9041-.033,1.3992-.0676.5264-.033,1.068-.071,1.6074-.071,1.6421,0,2.683.3844,3.3564,1.2243.5644.8614,1.0794,1.7954,1.5808,2.6999,1.2344,2.2263,2.5102,4.5283,4.6457,6.1716,1.9454,1.7148,4.7509,2.6999,7.6916,2.6999,1.2953,0,2.5529-.1897,3.7324-.5627,8.4888-2.6602,16.7613-5.3977,24.6215-9.6058l2.5791-.0051c.5729-.0579,1.1537-.1005,1.7363-.1436,2.7176-.2011,5.5282-.4094,7.518-2.5052,2.5267-3.6699,4.677-7.3414,6.5713-11.2246,1.7046-3.4886,1.7194-6.8894.0414-9.5762-5.0086-8.0135-5.8962-10.1224-7.9476-15.5877l-.0562-.1487-.155-.0461c-.5956-.1783-1.1829-.4111-1.7523-.6337-1.231-.4871-2.5069-.9852-3.9804-.9852l-.193.0046c-1.7194.0515-2.8828.5876-3.3615,1.5496l-.0744.1436,9.0879,17.9379c.5843,1.4076,1.2526,2.822.9041,4.9178-.3515,2.0958-4.8185,9.0993-6.1535,10.0003-.3316.2192-.5889.3282-.787.3282-.1107,0-.5809-.0925-.2708-1.1487.8483-2.9027,1.9095-9.7511,1.6256-11.9508-.327-2.5394-7.9375-15.1505-8.2628-15.687l-.1369-.2192c-1.1765-1.9175-2.3928-3.8997-2.2855-6.2346,0-1.0692.9885-1.817,1.7143-2.0873,1.3252-.4985,2.5778-.6882,3.9394-.9886,3.2343-.7097,6.5776-1.449,7.7689-3.2575,3.6454-5.538,5.8138-11.3121,7.2447-19.3057.0625-.3549.3135-1.0215.82-1.0215.297.0034.591.1005.7114.7887,1.3333,7.5662-.4786,15.5138-4.9706,21.8025-.2573.3599-.452,1.0743-.3202,1.7329.1056.6468.8284,1.1618.8284,1.1618,1.7557,1.1862,8.1225.5065,12.7412-1.9226,3.525.0727,6.8585-.553,10.073-1.1618,1.0249-.1897,2.035-.3794,3.0412-.5445.3202.1863.5695.4655.6337.6962-2.7062,3.0679-4.3665,6.502-5.216,10.8026-.7494.7689-1.5876,1.5348-2.3962,2.2741-2.9656,2.7113-6.1602,5.7407-6.3106,9.6273,0,0-.0921,1.3895,1.411,1.5031.477.0346,1.0101-.2146,1.5217-.4258.5543-.2243,1.1385-.452,1.5677-.3925.4884.079.8284.4605.866.9539l-3.3746,4.9503c-1.2724,2.0662-.7342,4.2676-.2146,6.4015.3781,1.1782.2066,2.0988.5264,3.1253.8436,2.4722,3.8536,3.6454,6.2578,3.6454,4.4142-.1981,8.4242-1.6421,12.3006-3.0497.6916-.2493,1.3814-.4981,2.0907-.7473,4.2495-1.8335,9.9294-2.223,16.684-1.1157,5.4323-.3464,9.5166-3.9293,13.4624-7.4225,1.6831.0461,3.4438,1.0477,5.2393,2.9787,5.87,6.3035,13.0712,9.3696,22.0222,9.3696.3299,0,.6633-.0034,1.0131-.0131l.9096-.0659c.9307-.2214,1.1748-.6818,1.226-1.256.0642-.7047-.4786-1.3844-1.4786-1.8715l-5.0082-2.6568c-3.9985-2.5478-8.3701-5.6055-9.5715-9.6455-1.3037-4.2955-3.7176-8.6848-5.5164-11.6124-.3532-.5741-.7461-1.1322-1.16-1.7329-.7097-1.0131-1.4423-2.0692-1.9505-3.1633l.0194-.0216c5.4623,1.9606,8.512,5.9955,12.1937,12.7167,2.7358,4.9968,9.8681,10.3962,16.616,10.3962.8842,0,1.754-.0972,2.5791-.2788.7313-.1601,1.2015-.6087,1.2986-1.2344.0845-.5479.0165-1.0726-.6087-1.3844" style="fill: #d81144;"/>
      <path id="path36" d="M562.4673,436.3712c-.4013-.49-1.2082-.5627-1.6603-.5627-.1901,0-.3844.0131-.5576.0397-1.3899.1766-2.6615.2573-3.9879.2573-.752,0-1.4194-.0296-2.0404-.0562-.5408-.0165-1.0519-.033-1.5462-.033-.8195,0-1.4828.0511-2.1503.1766l-.1521.0216-.0718.1352c-.1141.1897-2.6783,4.6901-2.3277,7.507.3675,3.0594,3.4979,3.688,5.8552,4.1616.8449.1686,1.825.3498,2.8093.3498,1.6814,0,2.8178-.5576,3.3796-1.6928,1.411-3.6555,2.2474-6.6537,2.6403-9.4161.0887-.4326-.0549-.7199-.1901-.888" style="fill: #d81144;"/>
      <path id="path38" d="M731.6436,446.4852c-1.4659-2.1123-4.0302-3.8152-6.0876-5.1848-.9463-.6337-1.7701-1.1782-2.3446-1.6716l-.414-.3054c-.4774-.4043-1.0392-.6121-1.6729-.6121-2.3066,0-4.8371,2.7755-4.8878,3.7396-.0761,1.3975,1.9137,3.8731,4.516,6.962l.5576.6666c1.3138,1.5626,2.7375,2.4076,4.2245,2.5132h.0254c1.5124,0,2.7037-.5065,3.9795-1.6898.9463-.8745,3.0417-3.0628,2.1038-4.4176" style="fill: #d81144;"/>
      <path id="path40" d="M742.4754,464.519c-.3887-.8398-.7604-1.6303-.8914-2.1917-.2281-1.0312-.3633-2.1254-.4943-3.1815-.2155-1.7029-.4182-3.3121-.9463-4.5579-.6421-1.4917-2.3953-2.6239-4.0809-2.6239-.5914,0-1.1618.1352-1.6898.398-2.5474,1.2703-4.0513,2.6268-3.6373,5.4949,1.3857,4.17,2.0911,7.1817,3.0079,11.2795.1098.6337.5323,2.6915,1.5208,2.6915.0718,0,.1436-.0135.2239-.033l7.3-2.4012c.3718-.1141.6337-.3367.7773-.6616.4267-.9687-.3422-2.6158-1.0899-4.2131" style="fill: #d81144;"/>
      <path id="path42" d="M530.2932,332.9839c-1.0477.9983-2.1334,1.9914-3.2445,3.0032-3.8782,3.5347-7.883,7.1948-10.5234,11.3319-1.2504,1.7-2.1672,3.6488-3.0586,5.5367-.0972.1948-.3126.6269-.752.6269-.1985,0-.3887-.0942-.5788-.2788-.752-.7558-.131-5.9621.8365-8.5695,2.1376-5.7843,7.0043-11.8321,13.358-16.5932.6675-.4258,1.5335-.673,2.3446-.673,1.204,0,2.1123.5445,2.4925,1.498.7858,1.2741.4858,2.7561-.8745,4.1176ZM484.5371,397.2595c-.6083.8069-1.5631,1.3912-2.4798.934-.8576-.3088-1.6349-1.4144-2.1165-2.2673-.5956-1.0663-1.0815-1.9902-2.5009-1.8812-.1056-.0034,0,0-.2197.0211-1.2547.1056-2.1968.7228-3.1853,1.487-.507.3895-2.5073,1.8926-3.0108,2.315-2.7143,2.2939-5.4505,4.6605-6.1074,7.8834q-.2805,1.1584-.3777,1.7109c-.1948,1.1237-.4009,2.2889-1.3468,2.8896l-.0807.038c-.1369.038-.2771.0596-.4174.0596-.4077,0-.8335-.1652-1.1668-.4524-.3435-.2953-.5576-.5923-.5661-1.0806-.4867-5.535,1.4026-10.5153,5.2693-14.0386,2.5166-2.0578,4.538-4.655,6.4948-7.1653.9505-1.226,1.9391-2.4916,2.9614-3.6601.7773-.779,2.0405-.1103,4.1358,2.1651.8787.959,3.612,5.6009,4.8582,8.6637.4605,1.3514-.1436,2.378-.1436,2.378h0ZM482.146,435.5939c-.4351.7722-1.449,1.2129-2.784,1.2129-1.1702,0-2.4122-.3464-3.16-.8795-1.7447-1.2374-2.7544-3.3201-2.9149-6.0234-.0338-.6172-.0676-1.2589.7731-1.8977.4309-.2493.659-.2493,1.166-.2493,1.6602,0,4.3259,1.0646,5.7496,2.7924.1014.1318,2.3066,3.051,1.1702,5.0445ZM729.582,470.3277c-.5365-4.3897-1.7067-8.512-3.6796-12.9689l-.0929-.2066-.2197.0118c-4.2245.2623-6.8522-3.1684-9.3827-6.4674-.8365-1.0942-1.6264-2.1254-2.4629-3.0163-1.3138-1.5251-2.7671-2.8055-4.0556-3.9246-1.4786-1.305-2.7629-2.4338-3.2571-3.4603-.6041-1.2408-1.2504-3.6289-1.8799-5.9393-.4478-1.6598-.8745-3.2225-1.2547-4.2837-.0887-.2112-.169-.4389-.2535-.6717-.7647-2.0362-1.7025-4.576-4.3386-5.0149-1.335-.2146-2.7544-.2788-4.1316-.3333-3.8148-.1652-7.6464-.8369-9.6193-3.5664-1.8208-2.5166-1.0646-4.8498-.0465-7.3368.4478-1.0908.7688-2.0248,1.0308-3.0759,1.373-4.601,1.8377-10.3252.8027-14.347-.1648-.6417-.376-1.2838-.5872-1.9044-.5576-1.6733-1.204-4.2081-.7858-4.9854.4182-.7769.8618-.9091,1.6222-.9091.6717,0,1.4321.2214,2.1672.4275.5196.1483.9252.2243,1.4068.3384,1.901.46,4.7231.975,7.3169.975,4.2964,0,8.7913-.9159,12.6779-2.5892,7.3465-3.571,14.5916-11.6192,14.2283-21.5663-.9632-10.0861-7.2029-19.8309-19.0696-29.7983-.2873-.2476-.5914-.4951-.8956-.7473-1.5462-1.2741-3.405-2.8799-3.4515-4.3188-.0549-1.4321,3.65-2.2986,5.982-2.83.5365-.1238,1.0266-.2362,1.4279-.3384l.6041-.1567c2.9572-.7756,6.0158-1.5728,8.5252-3.3167,8.466-5.6934,8.1534-15.7415,7.2029-21.2714-.0465-.1386-.0845-.3236-.131-.5264-.1563-.7245-.3506-1.6256-1.0139-1.6256-.207,0-.414.0993-.6337.3021-.2535.2311-.5069.4719-.7688.7211-.9632.9176-2.0531,1.9589-3.2909,2.6653-2.691,1.5859-5.9271,2.2622-9.0532,2.9175-1.9855.4174-4.0471.8466-5.9651,1.5098-8.4237,2.901-13.6453,7.167-15.5294,12.6804-.9674,2.8613-.4562,6.4834,1.4279,9.9539,2.7544,4.3517,6.7381,8.172,10.5909,11.86,6.0749,5.8172,12.3526,11.8321,13.8058,20.0007.7942,4.7577-1.1448,8.7626-5.9017,12.2364-2.484,1.5065-5.6694,2.3019-9.2138,2.3019-4.3428,0-9.0279-1.1748-12.8595-3.2292-4.9301-2.4637-9.6911-5.6486-14.3001-8.7296-6.9283-4.6288-14.0889-9.4195-22.031-11.9479-3.4472-1.5593-7.2704-2.3349-10.9627-3.0822-5.2553-1.0646-10.6881-2.1651-15.0352-5.573-1.4955-.9784-2.9826-2.0544-4.4189-3.094-3.9584-2.86-8.0478-5.8172-12.6736-6.9937-1.7236-.5889-3.4219-.8331-5.0568-1.0642-2.5305-.3633-4.9216-.7047-7.1099-2.269-.9928-.7097-1.9897-1.4393-2.991-2.1735-3.6838-2.6949-7.4943-5.4835-11.3007-7.3845-6.5396-3.2677-13.527-4.9474-21.3171-6.6473-2.4925-.5889-4.0387-2.4735-5.6778-4.467-1.0941-1.3383-2.2306-2.7227-3.6753-3.6982-6.0115-4.7606-11.4527-7.9324-18.4655-7.9324-.6506,0-1.3138.0279-1.9771.0807-3.6753.2476-7.2747,3.0412-9.6658,5.1223-7.0085,6.1341-14.5367,11.5896-21.8198,16.8572-10.8487,7.8547-22.069,15.9739-31.6533,26.4478-9.4326,9.7279-12.8599,21.895-16.18,33.6612-.4917,1.7325-.9822,3.4688-1.4904,5.1979-.891,3.2098-1.716,6.5185-2.5132,9.7249-4.3188,17.3536-8.7938,34.6793-26.1293,45.9369-1.1406.7393-.7393,2.1934.3333,2.5994.4618.1732,8.7262,2.6517,14.9638-4.6605,4.5249-5.3103,6.8155-10.4308,12.0581-16.0499.1783-.1732.7841-.7473,1.2758-.6041.3629.1141.523.3219.3549.9687-.6041,2.2559-2.0481,4.2199-3.3847,6.1374-1.3599,1.9572-2.7675,3.9804-3.4637,6.3039-1.6602,4.9752-6.3089,9.0017-10.4097,12.5516,0,0-.6485.4225-1.0312.899-.3798.474-.3633.6801-.3633.6801-.1153,1.1022.7562,1.7739,2.5085,1.8465h0c9.7198,0,16.6291-6.908,23.3094-13.5946.2885-.2869.6434-.4225,1.117-.4225.3515,0,.6126-.0477,1.0696.1766.4503.2243,1.4735,1.2344,2.2572,1.9391,2.1849,1.9471,4.4476,3.9622,7.3685,4.5629l.0528.0131.0574-.008c3.5398-.4905,6.7377-.9011,10.0117-.9011.9378,0,1.8461.038,2.6403.0938,3.5486,1.0646,7.0846,2.4029,10.5064,3.6918,2.4207.9074,4.9174,1.8499,7.4141,2.6995l.0634.0165h.0591c3.2318-.1187,5.5595-3.1338,7.2536-5.7952.79-1.8799.414-3.7396.0507-5.5384-.2197-1.1039-.4351-2.1549-.3844-3.1866.6041-.3067,1.411-.2493,2.294-.117.7688.117,1.901,0,2.277-.0511.8491-.1221,1.7447-1.1072,1.487-2.378-.6421-3.2444-2.2644-5.2393-3.8823-7.7314-1.4194-2.1123-2.7544-4.1058-3.4388-6.3613-1.0773-2.9673-3.3374-5.4294-5.5257-7.8074-2.5347-2.7591-4.9301-5.3698-5.6398-8.695,0,0-.2324-.7047.0295-.9619.2535-.2543.9294.0461.9294.0461,1.1575.8483,2.3277,1.8039,3.4641,2.7278,3.6838,2.9918,7.4859,6.0876,12.116,6.7859,4.3175.4305,9.0321.9619,13.6411.5826,1.2167-.2032,1.8334-1.2627,1.5335-2.299-1.8377-3.8862-3.726-8.0647-4.892-12.6259-.9843-3.4354-3.1304-12.4789-.9336-19.2939.2155-.6637.6675-.8948,1.0646-.8948.0465,0,.0887.0034.1605.0283.7435.1863,1.2547,1.0608,1.3561,1.7654l.0676.888c.6464,9.2855,1.2631,18.0599,6.9494,25.5336,1.5124,2.4029,3.688,3.6918,5.7876,4.9376,1.449.8614,3.105,1.6104,4.1612,2.9538,1.1829,1.5082,1.4025,4.1058.5661,5.685l-6.9663,10.2741c-1.6391,2.3451-3.236,4.8667-3.819,7.431-.5196,2.5943-.2957,5.1075-.0845,7.5366l.0507.5876c-.1563-.0676-.3464-.2657-.5112-.561-2.8136-5.091-3.3796-9.3916-1.9517-12.6901.9294-2.1469,6.5945-10.182,8.2506-12.8274.5323-.8348.9632-1.6898.5069-2.2724-.5492-.7144-4.8118-2.5478-5.9228-2.5478-.0845,0-.1605.0131-.2239.0266-.997.2869-1.6391,1.2027-2.2052,2.0096-.1183.1736-.245.3468-.3887.5496l-8.5885,15.5899-.1901.5855c-.5027,1.5597-.9336,2.9078-.5069,4.7146.4647,2.3451,1.204,4.8553,1.7447,6.6883.1478.507.2915,1.0185.4351,1.5331.7647,2.6999,1.487,5.2562,2.6868,6.6621.7604.8876,1.7067,1.2969,2.9656,1.2969.6464,0,1.3181-.1005,1.9644-.2028,1.0731-.1686,2.2348-.2987,3.1177-.076,1.2969.3219,2.1925,1.2838,3.1346,2.3019.9463,1.0181,1.9264,2.0742,3.3543,2.4938,2.6573.8859,5.4412,1.6138,8.1323,2.315,3.5951.9454,7.3085,1.9175,10.8317,3.2905,1.9982.6421,4.1316,1.2458,6.2058,1.2378,2.2897-.0084,3.7007-.6388,5.7031-2.2559,2.8009-2.2639,3.7049-4.5118,4.3978-7.7347.5618-2.9669,1.5377-3.1684,3.688-3.2922,1.035-.0494,1.204-.0114,2.2179-.3464,1.0688-.3549,4.1781-4.1603,5.7961-7.2772.4394-.8584.9252-1.6222,1.3687-2.2905.4816-.7262.6886-1.3565.6801-1.972-.0211-1.5348-1.2927-2.0282-2.1207-2.0548l-.5408-.0165s-9.1757-.0461-11.6851,0c-3.7641.2083-5.4158,3.827-6.7297,7.025-.5112,1.2344-.9928,2.3995-1.6307,3.4227-.9885,1.8005-2.9318,2.9027-5.3356,2.8351-.6928-.0216-2.2433-.4275-3.0374-.6172-4.9512-1.2247-10.0713-2.4802-12.154-7.3879-.1943-.85-.5323-2.5994.7308-4.0564,2.6488-3.0679,6.1341-6.9489,9.7122-9.7329,4.9723-1.0447,9.9531-4.7197,12.6906-9.37.5618-.7955.8661-1.7325,1.1618-2.6403.452-1.3945.8787-2.713,2.1503-3.5364.8027-.406,1.449-.2623,1.6222.4356.4731,2.5761-.5069,5.0728-1.4574,7.4889-.2155.5496-.4267,1.0857-.621,1.6104l-.1352.3929.414.0431c1.3645.1335,2.784.2061,4.2119.2061,5.0948,0,9.9657-.8795,14.6718-1.7279,4.6639-.8365,9.4799-1.7063,14.4775-1.7063.5281,0,1.0646.0085,1.6138.0296,2.2094,0,4.3682.1981,6.4551.3849,2.0447.1812,4.1527.3663,6.265.3663.752,0,1.4532-.0165,2.1461-.0676,6.3748-.2906,11.0134-3.1883,12.399-7.7563,1.3181-3.8992,1.1787-10.6539-.4225-20.07-.0761-.452-.1268-.7393-.131-.7984.0042-.0511.0042-.1141.0085-.1817.0085-.3515.0169-.7097.4647-.9505.5872-.3084,1.2209,0,1.5251.7642,2.4249,6.7593,3.8148,14.5662,4.5541,19.928.8154,5.208,2.9994,10.4752,6.6748,16.1209,4.5709,6.8053,12.078,10.713,20.6074,10.713,1.9897,0,3.9795-.373,5.9566-.6388,1.3772-.1812,1.8841-.1056,2.8093-.1056,10.8528,0,20.3032,4.7015,27.3413,13.6077,0,0,.131.1601.1141.4309-.0254.3713-.5534.7393-1.0308.5412l-.9252-.7144c-6.1214-4.7446-12.4582-9.6489-20.3961-10.629-1.411-.2577-2.8811-.3798-4.4822-.3798-2.294,0-4.5498.2573-6.7297.5065-2.1841.2526-4.2415.49-6.3411.49-2.7164,0-4.9976-.4056-7.186-1.2885-9.1419-3.0083-16.6025-13.5236-18.9935-20.0501-.1056-.2277-.4309-.6121-.959-.6121-.245,0-.5027.0841-.7647.2488-1.0604.6637-1.242,1.0232-1.3983,1.6818-.1394.5445.7478,5.2296,1.1406,7.2328,1.1955,4.9854,2.0151,10.8436,9.3954,15.6388,4.8836,3.1638,6.3199,4.4147,11.7062,5.2266.9125.1386,3.1726.0625,4.064-.1834,2.3066-.5065,4.685-.7591,7.0719-.7591,7.5155,0,15.1746,2.5643,21.6001,7.2447,1.0815.6087,2.0911,1.4617,3.0628,2.2901,1.3899,1.1702,2.8136,2.378,4.5118,2.9905,1.0646.4305,2.2179.6417,3.4303.6502,2.9149.0211,3.65-.8783,5.7285-1.893.9167-.4503,1.8377-.6071,2.4333-.6071,2.3404,0,3.6373,1.825,5.2807,4.1303.9885,1.3861,2.108,2.9572,3.6246,4.3399,2.1292,2.0612,5.0652,2.3269,7.3803,2.3269,1.2589,0,2.5432-.0925,3.7894-.1812,1.1998-.0845,2.6446-.1141,3.4008-.1981.752-.0942,1.1618-.1998,1.1618-.1998l-.038-.2953" style="fill: #d81144;"/>
      <path id="path44" d="M334.9345,306.9831c0-36.2225,29.3623-65.5874,65.581-65.5874s65.5861,29.3648,65.5861,65.5874-29.3606,65.5891-65.5861,65.5891-65.581-29.3652-65.581-65.5891" style="fill: #fff;"/>
      <path id="path46" d="M351.2286,342.3653c19.1195,13.8122,46.0771,16.0017,67.1454,4.6783,22.892-11.8452,36.7455-36.2437,34.6447-62.5499-.4043-3.8152-1.0131-7.5281-2.0117-11.1422,6.464,9.7165,10.1803,21.2402,10.1803,33.6316,0,33.504-27.1626,60.6666-60.6717,60.6666-20.3028,0-38.2769-9.9704-49.287-25.2843" style="fill: #d2d3d1;"/>
      <path id="path48" d="M382.6271,322.1416c-14.1751-3.424-23.8619-6.8564-23.8619-6.8564-1.5348-14.6474-.2345-27.4-.2345-27.4,6.137-3.1967,22.791-10.6357,22.791-10.6357,7.9193,8.9835,15.4775,21.0235,15.4775,21.0235-3.6619,7.0943-14.1721,23.8687-14.1721,23.8687ZM359.2468,262.5163c-1.4241,2.3218-5.5924,9.3303-9.3417,17.6869-3.5444,4.429-6.6321,8.9358-7.9607,10.9179,3.007-11.1275,9.1009-20.9875,17.3025-28.6048ZM422.9073,297.8027s5.3136-11.0975,11.6919-20.078c0,0,12.2905,5.7855,18.0747,10.5136,0,0,2.1237,6.6106.7093,25.9822,0,0-7.3317,4.2579-17.9543,6.8569,0,0-7.2079-12.1705-12.5216-23.2747ZM395.3819,343.2812l26.2268-.7063,5.0741,14.2908c-9.9142,5.9042-21.8485,8.9818-21.8485,8.9818-12.5237-2.7227-19.7253-8.1551-19.7253-8.1551l10.2729-14.4112ZM400.5155,246.3131c8.0051,0,15.6422,1.5504,22.636,4.3682-.2442,1.1195-1.0975,4.3217-3.5528,8.3815-12.6407-1.656-26.6958-.3549-26.6958-.3549l-11.6817-9.2602c6.0631-2.032,12.5516-3.1346,19.2944-3.1346ZM361.6446,353.565c-10.0515-8.3946-17.3435-19.9872-20.3159-33.2104,3.2444,3.3632,9.5251,9.8153,9.5251,9.8153,3.7805,7.8006,13.2249,21.3821,13.2249,21.3821-.6768.7507-1.7426,1.5394-2.4342,2.013" style="fill: #0e1e3d; fill-rule: evenodd;"/>
      <path id="path50" d="M294.6412,607.8929l24.8619,11.9888,11.9905-24.8539-8.2856-4.0002-7.9954,16.5763-8.289-4.0032,34.572-71.6656-8.289-4.0019-38.5655,79.9597ZM357.5751,567.9279l9.0583,1.6307,3.2609-18.1144,8.817,1.5842-30.3394,66.0711-1.6303,9.0663,27.179,4.8832,4.8912-27.1727-9.0595-1.6303-3.2643,18.1242-8.812-1.5922,30.339-66.0761,1.6319-9.0583-27.1854-4.8929-4.8865,27.1774ZM300.5454,518.0913l7.2362,5.6934-18.9247,24.0419-7.2345-5.685,18.923-24.0503ZM244.0801,574.9613l7.2362,5.6998,24.6147-31.2781,7.2345,5.6896-24.6164,31.2752,7.2328,5.6896,46.8481-59.5327c4.6897-5.9642,3.65-14.6921-2.3104-19.3772-5.9621-4.6981-14.7002-3.6585-19.3915,2.3053l-46.8481,59.5285ZM417.2967,634.2021l18.2792-2.1883c5.0631-.6037,8.6569-5.1666,8.0414-10.231l-3.1883-26.8014c-.6519-5.4374-2.7244-7.0677-5.0496-7.6667,2.0776-1.4951,3.7328-3.3205,3.2347-7.5201l-3.3256-27.9166c-.6071-5.0644-5.1616-8.6506-10.2247-8.0465l-18.2826,2.1799,10.5153,88.1908ZM417.0027,554.0629l9.1474-1.0942,3.6221,30.3918-9.1373,1.076-3.6322-30.3737ZM421.7189,593.5755l9.1423-1.0857,3.6272,30.3867-9.147,1.0895-3.6226-30.3905ZM472.0228,528.3443l-8.545,3.4177,29.5591,73.908-8.5378,3.4126-29.5693-73.9-8.5399,3.4177,28.1224,70.3222c2.8178,7.0465,10.8994,10.5103,17.9459,7.6933,7.0507-2.8136,10.5064-10.8947,7.6929-17.9412l-28.1283-70.3303ZM535.5232,592.8447l7.4521-5.3863-23.2815-32.2848,7.4648-5.3863,19.4287,26.9395c1.3138,1.817,3.5782,3.2495,5.475,4.1836l7.6633-5.535c-2.315-1.0811-4.2245-2.0231-5.6694-4.0298l-17.3206-24.0174c-3.2022-4.4387-5.8045-4.8612-8.1323-4.2575,1.0899-2.3201,1.6603-4.7146-.8111-8.1454l-16.4462-22.7995c-2.9867-4.1401-8.711-5.0661-12.8553-2.0907l-14.938,10.776,51.9704,72.0336ZM496.4124,522.8904l7.4648-5.3783,17.8994,24.8112-7.4648,5.3863-17.8994-24.8192ZM572.5261,540.5013c5.9651,4.6901,14.6888,3.639,19.3865-2.3134,4.685-5.9625,3.65-14.6904-2.315-19.3949l-28.2495-22.222-8.1576,10.3632,7.2324,5.69,2.4671-3.1304,24.0461,18.9264-5.6905,7.2362-55.3373-43.5462,5.6989-7.2295,10.9458,8.6143,5.6905-7.2362-7.9126-6.2312c-5.9651-4.685-14.693-3.642-19.3949,2.3151-4.6892,5.9655-3.6458,14.6968,2.3193,19.3902l49.2709,38.7683ZM284.9856,485.5623c2.4523,5.0483,1.1436,11.8701-2.645,15.8421l-9.6852,7.8057-5.6453-7.3123c3.4324-3.1764,7.4339-5.8713,11.0907-8.9307l-5.5282-7.3089-24.4082,18.7498c2.8993,5.2807,9.3105,9.5977,6.8433,16.3866l-.4917,2.307-26.0832,20.1076c-3.4041,1.8981-8.0482,2.0367-11.7312.5581-4.3716-1.7063-7.758-6.1885-8.4791-10.6078-.8183-5.246,1.0249-10.19,5.0433-13.7049,2.713-2.1503,5.543-4.1815,8.2624-6.4327,2.0333,2.3569,3.8384,4.9457,5.6406,7.5366-3.5431,2.9492-7.3106,5.652-10.969,8.5877l5.4112,7.4276c8.1352-5.9866,16.2742-12.538,24.532-18.8668-3.3665-5.5266-10.6754-11.01-6.1188-18.1161l2.0198-2.386,23.7035-18.073c3.7611-2.3615,9.5563-2.1123,13.3437.0461,2.4059,1.4406,4.7839,3.9373,5.8945,6.3846" style="fill: #0e1e3d; fill-rule: evenodd;"/>
    </g>
  </g>
</svg>