<?xml version="1.0" encoding="utf-8"?>
<!-- Created by @FCLOGO 2024-10-16 GMT+8 9:58:39 . https://fclogo.top/ -->
<!-- FOR PERSONAL USE ONLY NOT FOR COMMERCIAL USE -->
<svg version="1.1" xmlns="http://www.w3.org/2000/svg" xmlns:xlink="http://www.w3.org/1999/xlink" x="0px" y="0px"
	 viewBox="0 0 800 800" style="enable-background:new 0 0 800 800;" xml:space="preserve">
<path style="fill:#CCCCCC;" d="M348.22,774.3c-0.79,0-1.38-0.22-1.77-0.65c-0.39-0.44-0.53-1.03-0.41-1.79l0.25-1.65
	c0.12-0.75,0.45-1.35,0.98-1.78c0.53-0.44,1.19-0.65,1.98-0.65c0.76,0,1.33,0.2,1.72,0.6c0.39,0.4,0.55,0.94,0.47,1.62h-1.24
	c0.03-0.36-0.06-0.64-0.26-0.84c-0.2-0.2-0.5-0.3-0.89-0.3c-0.42,0-0.76,0.12-1.03,0.35c-0.27,0.23-0.43,0.56-0.5,0.99l-0.26,1.66
	c-0.07,0.44-0.01,0.77,0.19,1c0.19,0.23,0.5,0.35,0.92,0.35c0.39,0,0.72-0.1,0.98-0.3c0.26-0.2,0.44-0.48,0.52-0.85h1.24
	c-0.14,0.69-0.47,1.23-0.99,1.63C349.61,774.1,348.97,774.3,348.22,774.3z M352.8,774.19l1-6.29h1.19l-0.19,1.19
	c0.34-0.87,0.97-1.3,1.91-1.3c0.67,0,1.17,0.21,1.49,0.62c0.32,0.42,0.43,0.99,0.31,1.71l-0.07,0.42h-1.27l0.06-0.32
	c0.07-0.45,0.01-0.8-0.17-1.04c-0.18-0.24-0.48-0.36-0.88-0.36c-0.4,0-0.74,0.12-1.01,0.37c-0.27,0.24-0.43,0.59-0.5,1.03
	l-0.63,3.97H352.8z M361.91,774.3c-0.77,0-1.35-0.22-1.73-0.67c-0.38-0.45-0.51-1.04-0.4-1.77l0.25-1.65
	c0.08-0.49,0.26-0.92,0.52-1.28c0.26-0.37,0.6-0.65,1.01-0.85c0.41-0.2,0.87-0.3,1.38-0.3c0.77,0,1.35,0.22,1.73,0.67
	c0.39,0.45,0.52,1.04,0.39,1.77l-0.17,1.12h-3.85l-0.09,0.53c-0.15,0.95,0.22,1.43,1.11,1.43c0.72,0,1.17-0.25,1.37-0.74h1.22
	c-0.17,0.53-0.5,0.96-1.01,1.28C363.16,774.14,362.58,774.3,361.91,774.3z M361.23,770.22l-0.05,0.29l2.65-0.01l0.05-0.29
	c0.07-0.47,0.01-0.82-0.17-1.07c-0.18-0.25-0.49-0.37-0.92-0.37c-0.44,0-0.8,0.13-1.06,0.38
	C361.48,769.39,361.31,769.75,361.23,770.22z M368.33,774.3c-0.63,0-1.1-0.21-1.41-0.64c-0.31-0.42-0.4-1-0.27-1.73l0.27-1.77
	c0.11-0.73,0.39-1.31,0.84-1.74c0.44-0.43,0.98-0.64,1.61-0.64c0.47,0,0.83,0.12,1.09,0.35c0.26,0.24,0.39,0.56,0.38,0.96h0.02
	l0.17-1.2h1.24l-1,6.29h-1.22l0.19-1.2h-0.02c-0.12,0.41-0.35,0.73-0.69,0.97C369.2,774.18,368.8,774.3,368.33,774.3z
	 M368.93,773.23c0.39,0,0.72-0.12,0.98-0.36c0.26-0.24,0.43-0.57,0.5-1.01l0.25-1.65c0.07-0.43,0.01-0.76-0.18-1
	c-0.19-0.24-0.47-0.36-0.86-0.36c-0.4,0-0.72,0.12-0.98,0.35c-0.26,0.24-0.42,0.57-0.49,1.01l-0.25,1.65
	c-0.07,0.44-0.01,0.78,0.17,1.01C368.24,773.11,368.53,773.23,368.93,773.23z M376.35,774.19c-0.57,0-0.99-0.16-1.26-0.47
	c-0.27-0.31-0.36-0.75-0.27-1.32l0.54-3.39h-1.74l0.17-1.12h1.74l0.27-1.72h1.24l-0.27,1.72h2.47l-0.18,1.12h-2.46l-0.54,3.39
	c-0.08,0.44,0.1,0.66,0.53,0.66h1.72l-0.17,1.12H376.35z M382.5,774.3c-0.77,0-1.35-0.22-1.73-0.67c-0.38-0.45-0.52-1.04-0.4-1.77
	l0.25-1.65c0.08-0.49,0.26-0.92,0.52-1.28c0.26-0.37,0.6-0.65,1.01-0.85c0.41-0.2,0.87-0.3,1.38-0.3c0.77,0,1.35,0.22,1.73,0.67
	c0.39,0.45,0.52,1.04,0.39,1.77l-0.17,1.12h-3.85l-0.09,0.53c-0.15,0.95,0.22,1.43,1.11,1.43c0.72,0,1.17-0.25,1.37-0.74h1.22
	c-0.17,0.53-0.5,0.96-1.01,1.28C383.76,774.14,383.18,774.3,382.5,774.3z M381.83,770.22l-0.05,0.29l2.65-0.01l0.05-0.29
	c0.07-0.47,0.01-0.82-0.17-1.07c-0.18-0.25-0.49-0.37-0.92-0.37c-0.44,0-0.8,0.13-1.06,0.38
	C382.08,769.39,381.91,769.75,381.83,770.22z M388.92,774.3c-0.63,0-1.1-0.21-1.4-0.64c-0.3-0.42-0.39-1-0.28-1.73l0.27-1.77
	c0.11-0.73,0.39-1.31,0.84-1.74c0.44-0.43,0.98-0.64,1.61-0.64c0.47,0,0.83,0.12,1.09,0.35c0.26,0.24,0.39,0.56,0.38,0.96h0.02
	l0.21-1.47l0.3-1.8h1.24l-1.33,8.35h-1.22l0.19-1.2h-0.02c-0.12,0.41-0.35,0.73-0.69,0.97C389.8,774.18,389.4,774.3,388.92,774.3z
	 M389.53,773.23c0.39,0,0.72-0.12,0.98-0.36c0.26-0.24,0.43-0.57,0.5-1.01l0.25-1.65c0.08-0.43,0.02-0.76-0.17-1
	c-0.19-0.24-0.48-0.36-0.87-0.36c-0.4,0-0.72,0.12-0.98,0.35c-0.26,0.24-0.42,0.57-0.49,1.01l-0.25,1.65
	c-0.08,0.44-0.02,0.78,0.16,1.01C388.83,773.11,389.13,773.23,389.53,773.23z M401.02,774.3c-0.47,0-0.84-0.12-1.1-0.35
	c-0.26-0.23-0.39-0.56-0.38-0.97h-0.01l-0.19,1.2h-1.22l1.33-8.35h1.24l-0.29,1.8l-0.27,1.47h0.05c0.12-0.41,0.35-0.73,0.69-0.97
	c0.34-0.23,0.74-0.35,1.21-0.35c0.63,0,1.1,0.21,1.4,0.64c0.3,0.43,0.39,1.01,0.28,1.74l-0.27,1.77c-0.11,0.73-0.39,1.31-0.84,1.73
	C402.18,774.09,401.64,774.3,401.02,774.3z M400.77,773.23c0.4,0,0.72-0.12,0.98-0.35c0.26-0.23,0.42-0.57,0.5-1.01l0.25-1.65
	c0.07-0.43,0.01-0.77-0.17-1.01c-0.18-0.24-0.47-0.35-0.87-0.35c-0.39,0-0.72,0.12-0.98,0.36c-0.26,0.24-0.43,0.57-0.5,1l-0.25,1.65
	c-0.07,0.44-0.01,0.77,0.17,1.01C400.08,773.11,400.37,773.23,400.77,773.23z M405.47,776.25l0.17-1.06h1.93
	c0.64,0,1.01-0.3,1.1-0.9l0.1-0.67l0.21-1.19h-0.03c-0.12,0.42-0.35,0.74-0.68,0.97c-0.33,0.23-0.73,0.34-1.2,0.34
	c-0.63,0-1.09-0.2-1.4-0.6c-0.31-0.4-0.41-0.94-0.3-1.63l0.58-3.6h1.24l-0.56,3.48c-0.06,0.41,0,0.73,0.18,0.96
	c0.18,0.23,0.47,0.34,0.85,0.34c0.39,0,0.72-0.12,0.98-0.37c0.27-0.24,0.43-0.58,0.49-1.02l0.54-3.4h1.24l-1.01,6.41
	c-0.1,0.6-0.37,1.08-0.81,1.42c-0.44,0.35-1,0.52-1.67,0.52H405.47z M417.79,770.09h3.22l0.54-1.85h-5.47l-1.71,6.44h2.15l0.59-2.1
	h3.03l0.44-1.71h-3.03L417.79,770.09z M424.23,772.92c-0.59,0-1.02-0.39-1.02-1.12c0-0.88,0.63-1.76,1.61-1.76
	c0.49,0,0.88,0.24,1.02,0.78l1.95-0.83c-0.29-1.17-1.27-1.9-2.64-1.9c-2.78,0-4.15,2.15-4.15,3.9c0,1.76,1.27,2.83,3.07,2.83
	c1.37,0,2.34-0.59,2.98-1.42l-1.51-1.17C425.16,772.67,424.72,772.92,424.23,772.92z M430.91,768.23h-2.15l-1.76,6.44h5.12
	l0.49-1.85h-2.93L430.91,768.23z M439.75,771.01c0-1.66-1.32-2.93-3.22-2.93c-2.2,0-3.81,1.81-3.81,3.81c0,1.66,1.32,2.93,3.22,2.93
	C438.14,774.82,439.75,773.01,439.75,771.01z M434.92,771.7c0-0.83,0.59-1.71,1.51-1.71c0.78,0,1.17,0.54,1.17,1.22
	c0,0.83-0.59,1.71-1.51,1.71C435.31,772.92,434.92,772.38,434.92,771.7z M443.21,772.23h1.07l-0.2,0.68
	c-0.15,0.05-0.34,0.1-0.59,0.1c-0.68,0-1.27-0.39-1.27-1.22c0-1.02,0.73-1.9,1.95-1.9c0.59,0,1.12,0.24,1.51,0.59l1.37-1.37
	c-0.44-0.54-1.51-1.07-2.73-1.07c-2.59,0-4.29,1.76-4.29,3.86c0,2.05,1.61,2.88,3.22,2.88c0.93,0,1.85-0.29,2.49-0.68l0.93-3.32
	h-3.12L443.21,772.23z M450.78,768.08c-2.2,0-3.81,1.81-3.81,3.81c0,1.66,1.32,2.93,3.22,2.93c2.2,0,3.81-1.81,3.81-3.81
	C454,769.35,452.68,768.08,450.78,768.08z M450.34,772.92c-0.78,0-1.17-0.54-1.17-1.22c0-0.83,0.59-1.71,1.51-1.71
	c0.78,0,1.17,0.54,1.17,1.22C451.85,772.04,451.27,772.92,450.34,772.92z M437.94,767.5c-0.05,0.29,0.1,0.49,0.44,0.49
	s0.54-0.2,0.63-0.49c0.05-0.24-0.1-0.49-0.44-0.49C438.24,767.01,437.99,767.25,437.94,767.5z M432.13,765.5
	c-0.44,0-0.73,0.24-0.78,0.59c-0.05,0.34,0.1,0.59,0.54,0.59s0.73-0.24,0.78-0.59C432.77,765.74,432.57,765.5,432.13,765.5z
	 M433.01,767.3c-0.1,0.54,0.15,0.88,0.83,0.88c0.63,0,1.07-0.39,1.17-0.88s-0.15-0.88-0.83-0.88
	C433.5,766.43,433.11,766.82,433.01,767.3z M439.6,777.55l-2.44-1.81h-1.51l4.25,3.17l1.61-3.17h-0.98L439.6,777.55z M425.84,767.16
	l-2-1.46l23.13-2.78l-2.15,4.25h1.02l2.68-5.32l-26.99,3.22l2.78,2.1H425.84z M338.72,785.79l0.61-3.83h2.32l-0.08,0.52h-1.76
	l-0.18,1.14h1.63l-0.08,0.52h-1.62l-0.26,1.64H338.72z M342.97,785.84c-0.36,0-0.62-0.1-0.8-0.3c-0.17-0.2-0.23-0.47-0.18-0.82
	l0.27-1.7c0.06-0.34,0.2-0.61,0.44-0.82c0.24-0.2,0.54-0.3,0.89-0.3c0.36,0,0.62,0.1,0.8,0.3c0.17,0.2,0.24,0.47,0.18,0.81
	l-0.27,1.71c-0.06,0.34-0.2,0.62-0.44,0.82C343.63,785.74,343.33,785.84,342.97,785.84z M343.05,785.33c0.19,0,0.35-0.05,0.47-0.16
	c0.12-0.11,0.19-0.26,0.23-0.46l0.27-1.7c0.03-0.2,0.01-0.35-0.08-0.46c-0.08-0.11-0.22-0.16-0.41-0.16s-0.35,0.05-0.46,0.16
	c-0.12,0.1-0.19,0.26-0.22,0.46l-0.27,1.7c-0.03,0.2-0.01,0.35,0.08,0.46C342.72,785.28,342.86,785.33,343.05,785.33z M345,785.79
	l0.61-3.83h1.2c0.24,0,0.44,0.05,0.6,0.14c0.16,0.09,0.28,0.22,0.36,0.39c0.07,0.17,0.09,0.37,0.05,0.59
	c-0.04,0.26-0.14,0.48-0.3,0.67c-0.16,0.19-0.37,0.32-0.6,0.39l0.54,1.64h-0.62l-0.48-1.57h-0.54l-0.25,1.57H345z M345.89,783.71
	h0.64c0.19,0,0.35-0.06,0.48-0.17c0.13-0.11,0.21-0.26,0.24-0.45c0.03-0.19,0-0.35-0.09-0.46c-0.09-0.11-0.24-0.17-0.43-0.17h-0.64
	L345.89,783.71z M349.54,785.79l0.61-3.83h1.25c0.37,0,0.65,0.1,0.84,0.31c0.19,0.21,0.26,0.49,0.2,0.84
	c-0.04,0.23-0.12,0.44-0.25,0.61s-0.29,0.31-0.49,0.4c-0.2,0.09-0.42,0.14-0.66,0.14h-0.69l-0.24,1.52H349.54z M350.43,783.75h0.69
	c0.19,0,0.36-0.06,0.49-0.18c0.14-0.12,0.22-0.27,0.25-0.47c0.03-0.2,0-0.35-0.1-0.47c-0.1-0.12-0.25-0.18-0.44-0.18h-0.69
	L350.43,783.75z M352.75,785.79l0.61-3.83h2.25l-0.08,0.5h-1.7l-0.17,1.09h1.51l-0.08,0.5h-1.51l-0.19,1.24h1.69l-0.08,0.5H352.75z
	 M355.84,785.79l0.61-3.83h1.2c0.24,0,0.44,0.05,0.6,0.14c0.16,0.09,0.28,0.22,0.36,0.39c0.07,0.17,0.09,0.37,0.05,0.59
	c-0.04,0.26-0.14,0.48-0.3,0.67c-0.16,0.19-0.37,0.32-0.6,0.39l0.54,1.64h-0.62l-0.48-1.57h-0.54l-0.25,1.57H355.84z M356.74,783.71
	h0.64c0.19,0,0.35-0.06,0.48-0.17c0.13-0.11,0.21-0.26,0.24-0.45c0.03-0.19,0-0.35-0.09-0.46c-0.09-0.11-0.24-0.17-0.43-0.17h-0.64
	L356.74,783.71z M360.13,785.84c-0.39,0-0.67-0.1-0.87-0.29c-0.19-0.19-0.26-0.45-0.22-0.78h0.57c-0.03,0.17,0.01,0.31,0.12,0.41
	c0.11,0.1,0.27,0.15,0.48,0.15c0.2,0,0.37-0.05,0.5-0.15c0.13-0.1,0.21-0.23,0.24-0.4c0.02-0.15,0-0.28-0.06-0.39
	c-0.06-0.11-0.16-0.18-0.29-0.22l-0.46-0.14c-0.27-0.08-0.46-0.22-0.59-0.41c-0.13-0.19-0.17-0.42-0.13-0.68
	c0.04-0.21,0.11-0.39,0.23-0.55c0.12-0.16,0.27-0.28,0.46-0.37c0.19-0.09,0.4-0.13,0.64-0.13c0.35,0,0.62,0.1,0.8,0.29
	c0.18,0.19,0.25,0.44,0.2,0.76h-0.57c0.03-0.17,0-0.3-0.09-0.4c-0.09-0.1-0.23-0.14-0.42-0.14c-0.19,0-0.34,0.04-0.46,0.13
	c-0.12,0.09-0.19,0.21-0.21,0.38c-0.02,0.15-0.01,0.28,0.05,0.39c0.06,0.11,0.16,0.18,0.29,0.22l0.47,0.15
	c0.26,0.08,0.46,0.22,0.58,0.41c0.12,0.19,0.17,0.42,0.12,0.69c-0.04,0.22-0.12,0.41-0.24,0.57c-0.13,0.16-0.29,0.29-0.49,0.38
	C360.6,785.79,360.38,785.84,360.13,785.84z M363.27,785.84c-0.36,0-0.62-0.1-0.8-0.3c-0.17-0.2-0.23-0.47-0.18-0.82l0.27-1.7
	c0.06-0.34,0.2-0.61,0.44-0.82c0.24-0.2,0.54-0.3,0.89-0.3c0.36,0,0.62,0.1,0.8,0.3c0.17,0.2,0.24,0.47,0.18,0.81l-0.27,1.71
	c-0.06,0.34-0.2,0.62-0.44,0.82C363.92,785.74,363.62,785.84,363.27,785.84z M363.34,785.33c0.19,0,0.35-0.05,0.47-0.16
	c0.12-0.11,0.19-0.26,0.23-0.46l0.27-1.7c0.03-0.2,0.01-0.35-0.08-0.46c-0.08-0.11-0.22-0.16-0.41-0.16c-0.19,0-0.35,0.05-0.46,0.16
	c-0.12,0.1-0.19,0.26-0.22,0.46l-0.27,1.7c-0.03,0.2-0.01,0.35,0.08,0.46C363.02,785.28,363.15,785.33,363.34,785.33z
	 M365.28,785.79l0.61-3.83h0.71l0.62,3.19c0.01-0.1,0.02-0.22,0.03-0.36c0.01-0.14,0.03-0.29,0.04-0.44
	c0.02-0.15,0.04-0.29,0.06-0.41l0.31-1.98h0.52l-0.61,3.83h-0.71l-0.61-3.19c-0.01,0.09-0.02,0.21-0.03,0.34s-0.03,0.28-0.04,0.42
	c-0.02,0.15-0.04,0.28-0.06,0.41l-0.31,2.01H365.28z M368.23,785.79l1.59-3.83h0.75l0.37,3.83h-0.56l-0.07-0.97h-1.09l-0.39,0.97
	H368.23z M369.39,784.34h0.87l-0.09-1.1c-0.02-0.2-0.03-0.37-0.04-0.51c-0.01-0.14-0.01-0.24-0.01-0.3c-0.02,0.06-0.05,0.16-0.1,0.3
	c-0.05,0.14-0.11,0.31-0.19,0.5L369.39,784.34z M371.72,785.79l0.61-3.83h0.57l-0.52,3.31h1.67l-0.08,0.52H371.72z M376.68,785.84
	c-0.37,0-0.63-0.1-0.8-0.3c-0.17-0.2-0.22-0.48-0.17-0.82l0.44-2.76h0.57l-0.44,2.76c-0.03,0.2-0.01,0.35,0.07,0.46
	c0.08,0.11,0.21,0.17,0.41,0.17c0.19,0,0.35-0.06,0.46-0.17c0.12-0.11,0.19-0.27,0.22-0.46l0.44-2.76h0.57l-0.44,2.76
	c-0.06,0.35-0.2,0.62-0.43,0.82C377.35,785.74,377.05,785.84,376.68,785.84z M379.84,785.84c-0.39,0-0.67-0.1-0.87-0.29
	c-0.19-0.19-0.26-0.45-0.22-0.78h0.57c-0.03,0.17,0.01,0.31,0.12,0.41c0.11,0.1,0.27,0.15,0.48,0.15c0.2,0,0.37-0.05,0.5-0.15
	c0.13-0.1,0.21-0.23,0.24-0.4c0.02-0.15,0-0.28-0.06-0.39c-0.06-0.11-0.16-0.18-0.29-0.22l-0.46-0.14
	c-0.27-0.08-0.46-0.22-0.59-0.41c-0.13-0.19-0.17-0.42-0.13-0.68c0.04-0.21,0.11-0.39,0.23-0.55s0.27-0.28,0.46-0.37
	c0.19-0.09,0.4-0.13,0.64-0.13c0.35,0,0.62,0.1,0.8,0.29c0.18,0.19,0.25,0.44,0.2,0.76h-0.57c0.03-0.17,0-0.3-0.09-0.4
	c-0.09-0.1-0.23-0.14-0.42-0.14c-0.19,0-0.34,0.04-0.46,0.13c-0.12,0.09-0.19,0.21-0.21,0.38c-0.02,0.15-0.01,0.28,0.05,0.39
	c0.06,0.11,0.16,0.18,0.29,0.22l0.47,0.15c0.26,0.08,0.46,0.22,0.58,0.41c0.12,0.19,0.17,0.42,0.12,0.69
	c-0.04,0.22-0.12,0.41-0.24,0.57c-0.13,0.16-0.29,0.29-0.49,0.38C380.31,785.79,380.09,785.84,379.84,785.84z M381.91,785.79
	l0.61-3.83h2.25l-0.08,0.5h-1.7l-0.17,1.09h1.51l-0.08,0.5h-1.51l-0.19,1.24h1.69l-0.08,0.5H381.91z M386.94,785.84
	c-0.36,0-0.62-0.1-0.8-0.3c-0.17-0.2-0.23-0.47-0.18-0.82l0.27-1.7c0.06-0.34,0.2-0.61,0.44-0.82c0.24-0.2,0.54-0.3,0.89-0.3
	c0.36,0,0.62,0.1,0.8,0.3c0.17,0.2,0.24,0.47,0.18,0.81l-0.27,1.71c-0.06,0.34-0.2,0.62-0.44,0.82
	C387.6,785.74,387.3,785.84,386.94,785.84z M387.02,785.33c0.19,0,0.35-0.05,0.47-0.16c0.12-0.11,0.19-0.26,0.23-0.46l0.27-1.7
	c0.03-0.2,0.01-0.35-0.08-0.46c-0.08-0.11-0.22-0.16-0.41-0.16c-0.19,0-0.35,0.05-0.46,0.16c-0.12,0.1-0.19,0.26-0.22,0.46
	l-0.27,1.7c-0.03,0.2-0.01,0.35,0.08,0.46C386.7,785.28,386.83,785.33,387.02,785.33z M388.95,785.79l0.61-3.83h0.71l0.62,3.19
	c0.01-0.1,0.02-0.22,0.03-0.36c0.01-0.14,0.03-0.29,0.04-0.44c0.02-0.15,0.04-0.29,0.06-0.41l0.31-1.98h0.52l-0.61,3.83h-0.71
	l-0.61-3.19c-0.01,0.09-0.02,0.21-0.03,0.34c-0.01,0.13-0.03,0.28-0.04,0.42c-0.02,0.15-0.04,0.28-0.06,0.41l-0.31,2.01H388.95z
	 M392.25,785.79l0.61-3.83h0.57l-0.52,3.31h1.67l-0.08,0.52H392.25z M396.12,785.79l0.22-1.41l-0.75-2.42h0.58l0.45,1.45
	c0.03,0.09,0.05,0.18,0.07,0.27c0.02,0.08,0.03,0.15,0.03,0.19c0.02-0.04,0.05-0.1,0.09-0.19c0.04-0.08,0.09-0.17,0.14-0.27
	l0.9-1.45h0.6l-1.53,2.42l-0.22,1.41H396.12z M399.22,785.79l0.61-3.83h0.71l0.62,3.19c0.01-0.1,0.02-0.22,0.03-0.36
	c0.01-0.14,0.03-0.29,0.04-0.44c0.02-0.15,0.04-0.29,0.06-0.41l0.31-1.98h0.52l-0.61,3.83h-0.71l-0.61-3.19
	c-0.01,0.09-0.02,0.21-0.03,0.34c-0.01,0.13-0.03,0.28-0.04,0.42c-0.02,0.15-0.04,0.28-0.06,0.41l-0.31,2.01H399.22z M403.51,785.84
	c-0.36,0-0.62-0.1-0.8-0.3c-0.18-0.2-0.23-0.47-0.18-0.82l0.27-1.7c0.06-0.34,0.2-0.61,0.44-0.82c0.24-0.2,0.54-0.3,0.89-0.3
	c0.36,0,0.62,0.1,0.8,0.3c0.17,0.2,0.24,0.47,0.18,0.81l-0.27,1.71c-0.06,0.34-0.2,0.62-0.44,0.82
	C404.16,785.74,403.86,785.84,403.51,785.84z M403.58,785.33c0.19,0,0.35-0.05,0.47-0.16c0.12-0.11,0.19-0.26,0.23-0.46l0.27-1.7
	c0.03-0.2,0.01-0.35-0.08-0.46c-0.08-0.11-0.22-0.16-0.41-0.16c-0.19,0-0.35,0.05-0.46,0.16c-0.12,0.1-0.19,0.26-0.22,0.46
	l-0.27,1.7c-0.03,0.2-0.01,0.35,0.08,0.46C403.26,785.28,403.4,785.33,403.58,785.33z M406.38,785.79l0.52-3.31h-1.02l0.08-0.52
	h2.62l-0.08,0.52h-1.03l-0.52,3.31H406.38z M409.52,785.79l0.61-3.83h2.32l-0.08,0.52h-1.76l-0.18,1.14h1.63l-0.08,0.52h-1.62
	l-0.26,1.64H409.52z M413.77,785.84c-0.36,0-0.62-0.1-0.8-0.3c-0.18-0.2-0.23-0.47-0.18-0.82l0.27-1.7c0.06-0.34,0.2-0.61,0.44-0.82
	c0.24-0.2,0.54-0.3,0.89-0.3c0.36,0,0.62,0.1,0.8,0.3c0.17,0.2,0.24,0.47,0.18,0.81l-0.27,1.71c-0.06,0.34-0.2,0.62-0.44,0.82
	C414.42,785.74,414.13,785.84,413.77,785.84z M413.85,785.33c0.19,0,0.35-0.05,0.47-0.16c0.12-0.11,0.19-0.26,0.23-0.46l0.27-1.7
	c0.03-0.2,0.01-0.35-0.08-0.46c-0.08-0.11-0.22-0.16-0.41-0.16c-0.19,0-0.35,0.05-0.46,0.16c-0.12,0.1-0.19,0.26-0.22,0.46
	l-0.27,1.7c-0.03,0.2-0.01,0.35,0.08,0.46C413.52,785.28,413.66,785.33,413.85,785.33z M415.8,785.79l0.61-3.83h1.2
	c0.24,0,0.44,0.05,0.6,0.14c0.16,0.09,0.28,0.22,0.36,0.39c0.07,0.17,0.09,0.37,0.05,0.59c-0.04,0.26-0.14,0.48-0.3,0.67
	c-0.16,0.19-0.37,0.32-0.6,0.39l0.54,1.64h-0.62l-0.48-1.57h-0.54l-0.25,1.57H415.8z M416.69,783.71h0.64
	c0.19,0,0.35-0.06,0.48-0.17c0.13-0.11,0.21-0.26,0.24-0.45c0.03-0.19,0-0.35-0.09-0.46c-0.09-0.11-0.24-0.17-0.43-0.17h-0.64
	L416.69,783.71z M420.91,785.84c-0.36,0-0.63-0.1-0.81-0.3c-0.18-0.2-0.24-0.47-0.19-0.82l0.27-1.7c0.06-0.35,0.21-0.62,0.45-0.82
	s0.55-0.3,0.91-0.3c0.36,0,0.63,0.1,0.81,0.3c0.18,0.2,0.24,0.47,0.19,0.82h-0.57c0.03-0.2,0-0.35-0.09-0.46
	c-0.09-0.11-0.23-0.16-0.42-0.16c-0.19,0-0.35,0.05-0.48,0.16c-0.12,0.1-0.2,0.26-0.23,0.45l-0.27,1.71c-0.03,0.2,0,0.35,0.09,0.46
	c0.09,0.11,0.23,0.16,0.42,0.16c0.19,0,0.35-0.05,0.47-0.16c0.12-0.11,0.2-0.26,0.23-0.46h0.57c-0.03,0.23-0.11,0.43-0.24,0.59
	c-0.12,0.17-0.28,0.3-0.47,0.39C421.36,785.79,421.14,785.84,420.91,785.84z M424.03,785.84c-0.36,0-0.62-0.1-0.8-0.3
	c-0.18-0.2-0.23-0.47-0.18-0.82l0.27-1.7c0.06-0.34,0.2-0.61,0.44-0.82c0.24-0.2,0.54-0.3,0.89-0.3c0.36,0,0.62,0.1,0.8,0.3
	c0.17,0.2,0.24,0.47,0.18,0.81l-0.27,1.71c-0.06,0.34-0.2,0.62-0.44,0.82C424.69,785.74,424.39,785.84,424.03,785.84z
	 M424.11,785.33c0.19,0,0.35-0.05,0.47-0.16c0.12-0.11,0.19-0.26,0.23-0.46l0.27-1.7c0.03-0.2,0.01-0.35-0.08-0.46
	c-0.08-0.11-0.22-0.16-0.41-0.16c-0.19,0-0.35,0.05-0.46,0.16c-0.12,0.1-0.19,0.26-0.22,0.46l-0.27,1.7
	c-0.03,0.2-0.01,0.35,0.08,0.46C423.79,785.28,423.92,785.33,424.11,785.33z M425.97,785.79l0.61-3.83h0.69l0.18,1.23
	c0.02,0.12,0.04,0.23,0.05,0.33c0.01,0.1,0.02,0.18,0.03,0.24c0.02-0.06,0.05-0.14,0.09-0.24c0.04-0.11,0.09-0.22,0.15-0.34
	l0.57-1.22h0.71l-0.61,3.83h-0.54l0.2-1.29c0.02-0.17,0.06-0.35,0.1-0.55c0.04-0.2,0.09-0.4,0.14-0.61c0.05-0.2,0.1-0.4,0.14-0.59
	c0.05-0.19,0.09-0.35,0.13-0.49l-0.86,1.86h-0.55l-0.28-1.86c0,0.14-0.01,0.29-0.02,0.47c-0.01,0.18-0.02,0.37-0.04,0.57
	c-0.02,0.2-0.04,0.41-0.06,0.61c-0.02,0.2-0.05,0.4-0.08,0.57l-0.2,1.29H425.97z M429.11,785.79l0.61-3.83h0.69l0.18,1.23
	c0.02,0.12,0.04,0.23,0.05,0.33c0.01,0.1,0.02,0.18,0.03,0.24c0.02-0.06,0.05-0.14,0.09-0.24c0.04-0.11,0.09-0.22,0.15-0.34
	l0.57-1.22h0.71l-0.61,3.83h-0.54l0.2-1.29c0.02-0.17,0.06-0.35,0.1-0.55c0.04-0.2,0.09-0.4,0.14-0.61c0.05-0.2,0.1-0.4,0.14-0.59
	c0.05-0.19,0.09-0.35,0.13-0.49l-0.86,1.86h-0.55l-0.28-1.86c0,0.14-0.01,0.29-0.02,0.47c-0.01,0.18-0.02,0.37-0.04,0.57
	c-0.02,0.2-0.04,0.41-0.06,0.61c-0.02,0.2-0.05,0.4-0.08,0.57l-0.2,1.29H429.11z M432.41,785.79l0.61-3.83h2.25l-0.08,0.5h-1.7
	l-0.17,1.09h1.51l-0.08,0.5h-1.51l-0.19,1.24h1.69l-0.08,0.5H432.41z M435.51,785.79l0.61-3.83h1.2c0.24,0,0.44,0.05,0.6,0.14
	c0.16,0.09,0.28,0.22,0.36,0.39c0.07,0.17,0.09,0.37,0.05,0.59c-0.04,0.26-0.14,0.48-0.3,0.67c-0.16,0.19-0.37,0.32-0.6,0.39
	l0.54,1.64h-0.62l-0.48-1.57h-0.54l-0.25,1.57H435.51z M436.4,783.71h0.64c0.19,0,0.35-0.06,0.48-0.17
	c0.13-0.11,0.21-0.26,0.24-0.45c0.03-0.19,0-0.35-0.09-0.46c-0.09-0.11-0.24-0.17-0.43-0.17h-0.64L436.4,783.71z M439.8,785.84
	c-0.36,0-0.63-0.1-0.81-0.3c-0.18-0.2-0.24-0.47-0.19-0.82l0.27-1.7c0.06-0.35,0.21-0.62,0.45-0.82s0.55-0.3,0.91-0.3
	c0.36,0,0.63,0.1,0.81,0.3c0.18,0.2,0.24,0.47,0.19,0.82h-0.57c0.03-0.2,0-0.35-0.09-0.46c-0.09-0.11-0.23-0.16-0.42-0.16
	c-0.19,0-0.35,0.05-0.47,0.16c-0.12,0.1-0.2,0.26-0.23,0.45l-0.27,1.71c-0.03,0.2,0,0.35,0.09,0.46c0.09,0.11,0.23,0.16,0.42,0.16
	s0.35-0.05,0.47-0.16c0.12-0.11,0.2-0.26,0.23-0.46h0.57c-0.03,0.23-0.11,0.43-0.24,0.59c-0.12,0.17-0.28,0.3-0.47,0.39
	C440.25,785.79,440.04,785.84,439.8,785.84z M441.88,785.79l0.08-0.5h0.78l0.45-2.82h-0.78l0.08-0.5h2.13l-0.08,0.5h-0.78
	l-0.45,2.82h0.78l-0.08,0.5H441.88z M444.74,785.79l1.59-3.83h0.75l0.37,3.83h-0.56l-0.07-0.97h-1.09l-0.39,0.97H444.74z
	 M445.9,784.34h0.87l-0.09-1.1c-0.02-0.2-0.03-0.37-0.04-0.51c-0.01-0.14-0.01-0.24-0.01-0.3c-0.02,0.06-0.05,0.16-0.1,0.3
	c-0.05,0.14-0.11,0.31-0.19,0.5L445.9,784.34z M448.24,785.79l0.61-3.83h0.57l-0.52,3.31h1.67l-0.08,0.52H448.24z M453.19,785.84
	c-0.37,0-0.63-0.1-0.8-0.3c-0.17-0.2-0.22-0.48-0.17-0.82l0.44-2.76h0.57l-0.44,2.76c-0.03,0.2-0.01,0.35,0.07,0.46
	c0.08,0.11,0.21,0.17,0.41,0.17c0.19,0,0.35-0.06,0.46-0.17c0.12-0.11,0.19-0.27,0.22-0.46l0.44-2.76h0.57l-0.44,2.76
	c-0.06,0.35-0.2,0.62-0.43,0.82C453.86,785.74,453.56,785.84,453.19,785.84z M456.36,785.84c-0.39,0-0.67-0.1-0.87-0.29
	c-0.19-0.19-0.26-0.45-0.22-0.78h0.57c-0.03,0.17,0.01,0.31,0.12,0.41c0.11,0.1,0.27,0.15,0.48,0.15c0.2,0,0.37-0.05,0.5-0.15
	s0.21-0.23,0.24-0.4c0.02-0.15,0-0.28-0.06-0.39c-0.06-0.11-0.16-0.18-0.29-0.22l-0.46-0.14c-0.27-0.08-0.46-0.22-0.59-0.41
	c-0.13-0.19-0.17-0.42-0.13-0.68c0.04-0.21,0.11-0.39,0.23-0.55c0.12-0.16,0.27-0.28,0.46-0.37c0.19-0.09,0.4-0.13,0.64-0.13
	c0.35,0,0.62,0.1,0.8,0.29c0.18,0.19,0.25,0.44,0.2,0.76h-0.57c0.03-0.17,0-0.3-0.09-0.4c-0.09-0.1-0.23-0.14-0.42-0.14
	c-0.19,0-0.34,0.04-0.46,0.13c-0.12,0.09-0.19,0.21-0.21,0.38c-0.02,0.15-0.01,0.28,0.05,0.39c0.06,0.11,0.16,0.18,0.29,0.22
	l0.47,0.15c0.26,0.08,0.46,0.22,0.58,0.41c0.12,0.19,0.17,0.42,0.12,0.69c-0.04,0.22-0.12,0.41-0.24,0.57
	c-0.13,0.16-0.29,0.29-0.49,0.38C456.82,785.79,456.6,785.84,456.36,785.84z M458.42,785.79l0.61-3.83h2.25l-0.08,0.5h-1.7
	l-0.17,1.09h1.51l-0.08,0.5h-1.51l-0.19,1.24h1.69l-0.08,0.5H458.42z"/>
<g>
	<g>
		<polyline points="220.13,105.41 50,396.32 224.86,703.1 575.14,703.1 750,396.32 574.84,96.9 225.12,96.9 220.13,105.41 		"/>
		<polyline style="fill:#C2A712;" points="232.47,118.3 229.98,122.56 69.82,396.45 234.83,685.95 565.12,685.95 730.18,396.45 
			565,114.09 234.96,114.05 232.47,118.3 		"/>
		<polyline style="fill:#FFFFFF;" points="237.41,126.9 79.75,396.5 239.82,677.36 560.14,677.36 720.25,396.5 560.1,122.69 
			239.86,122.69 237.41,126.9 		"/>
		<polyline points="710.33,396.58 555.15,131.24 244.81,131.24 89.63,396.54 244.81,668.76 555.15,668.76 710.33,396.58 		"/>
		<g>
			<path style="fill:#398C40;" d="M182.99,415.37c-13.81,23.73-27.74,47.61-41.78,71.65l38.17,66.97l59.75-138.62H182.99"/>
			<path style="fill:#398C40;" d="M276.05,415.37c-21.06,63.96-42.55,129.02-64.48,195.19l33.14,58.2h42.51
				c15.25-86.34,30.2-170.81,44.88-253.39H276.05"/>
			<path style="fill:#398C40;" d="M556.44,415.37c20.23,47.05,40.78,94.74,61.64,143.05l38.69-67.57l-44.06-75.48H556.44"/>
			<path style="fill:#398C40;" d="M463.34,415.37c14.64,82.62,29.62,167.08,44.92,253.39h46.9l30.39-53.26
				c-22.44-67.86-44.46-134.57-66.07-200.14H463.34"/>
			<path style="fill:#398C40;" d="M369.16,415.37c-6.3,82.87-12.75,167.34-19.34,253.39h95.94
				c-6.62-86.34-13.07-170.81-19.34-253.39H369.16"/>
		</g>
	</g>
	<g>
		<g>
			<polyline style="fill:#C2A712;" points="398.13,328.5 403.76,345.73 421.86,345.73 407.2,356.35 412.79,373.59 398.13,362.93 
				383.47,373.59 389.1,356.35 374.45,345.73 392.54,345.73 398.13,328.5 			"/>
			<polyline style="fill:#C2A712;" points="313.54,328.5 319.12,345.73 337.26,345.73 322.61,356.35 328.19,373.59 313.54,362.93 
				298.88,373.59 304.47,356.35 289.81,345.73 307.95,345.73 313.54,328.5 			"/>
			<polyline style="fill:#C2A712;" points="228.94,328.5 234.53,345.73 252.63,345.73 238.01,356.35 243.56,373.59 228.94,362.93 
				214.24,373.59 219.87,356.35 205.22,345.73 223.31,345.73 228.94,328.5 			"/>
			<polyline style="fill:#C2A712;" points="482.77,328.5 477.14,345.73 459.04,345.73 473.7,356.35 468.11,373.59 482.77,362.93 
				497.42,373.59 491.79,356.35 506.45,345.73 488.35,345.73 482.77,328.5 			"/>
			<polyline style="fill:#C2A712;" points="567.36,328.5 561.77,345.73 543.63,345.73 558.29,356.35 552.7,373.59 567.36,362.93 
				582.02,373.59 576.43,356.35 591.09,345.73 572.99,345.73 567.36,328.5 			"/>
		</g>
		<g>
			<path style="fill:#FFFFFF;" d="M265.52,279.41h-3.83c-1.42,0-1.85-0.73-1.85-1.5s0.77-1.81,2.28-1.81h7.14v-2.45h-7.61
				c-3.61,0-4.73,1.59-4.81,4.3c-0.09,2.71,1.42,4,4.6,4h3.4c1.89,0,2.06,0.69,2.06,1.33s-0.39,1.81-2.24,1.81h-7.22v2.45h7.69
				c3.65,0,4.69-1.55,4.81-4.3c0.13-2.75-1.03-3.87-4.3-3.87"/>
			<path style="fill:#FFFFFF;" d="M278.38,273.65h-6.28v13.75h2.88v-4.81h3.52c3.87,0,5.85-0.99,5.85-4.3s-1.46-4.3-5.97-4.3
				 M278.38,280.48h-3.52v-4.04h3.35c2.15,0,2.79,0.73,2.79,2.06s-0.73,1.63-2.49,1.63L278.38,280.48z"/>
			<path style="fill:#FFFFFF;" d="M292.26,273.39c-3.83,0-6.83,1.59-6.83,7.14c0,4.77,2.15,7.18,6.88,7.18s6.92-2.92,6.92-7.18
				C299.22,274.68,295.96,273.39,292.26,273.39 M292.26,285.34c-2.88,0-3.74-2.19-3.74-4.81s1.16-4.77,3.74-4.77
				c3.35,0,3.74,2.79,3.74,4.81c0.04,2.84-0.99,4.77-3.7,4.77H292.26z"/>
			<path style="fill:#FFFFFF;" d="M313.06,277.82c0-3.01-1.63-4.3-4.81-4.3h-7.09v13.75h2.88v-5.24h3.4l3.05,5.37h3.22l-3.35-5.76
				c1.75-0.4,2.93-2.04,2.75-3.83 M307.56,279.71h-3.57v-3.52h3.57c2.62,0,2.58,0.9,2.58,1.72S309.45,279.71,307.56,279.71z"/>
			<polyline style="fill:#FFFFFF;" points="314.05,276.1 318.48,276.1 318.48,287.4 321.49,287.4 321.49,276.1 325.92,276.1 
				325.92,273.69 314.05,273.69 314.05,276.1 			"/>
			<path style="fill:#FFFFFF;" d="M335.24,279.41h-4c-1.42,0-1.85-0.73-1.85-1.5s0.77-1.81,2.28-1.81h7.14v-2.45h-7.57
				c-3.61,0-4.73,1.59-4.81,4.3c-0.09,2.71,1.42,4,4.6,4h3.4c1.89,0,2.02,0.69,2.02,1.33s-0.34,1.81-2.19,1.81h-7.31v2.45h7.74
				c3.65,0,4.73-1.55,4.77-4.3s-0.99-3.87-4.3-3.87"/>
			<path style="fill:#FFFFFF;" d="M345.73,280.78c-0.47,3.17,1.71,6.12,4.88,6.59c0.5,0.07,1.01,0.08,1.52,0.03h4.9V285h-4.73
				c-1.93,0-3.4-0.26-3.4-4s1.38-4.99,3.4-4.99h4.73v-2.36h-4.77c-5.03,0-6.49,2.92-6.49,7.14"/>
			<path style="fill:#FFFFFF;" d="M361.68,281.21v-7.57h-2.84v8.21c0,4.9,2.36,5.54,5.76,5.54h3.7v-2.28h-3.48
				C361.72,285.12,361.68,283.92,361.68,281.21"/>
			<path style="fill:#FFFFFF;" d="M378.83,281.9c0,2.84-0.99,3.48-3.05,3.48c-2.84,0-3.09-1.5-3.09-3.48v-8.25h-2.75v8.34
				c0,3.57,1.07,5.59,6.02,5.59c4.94,0,5.93-2.15,5.93-5.59v-8.34H379v8.25"/>
			<path style="fill:#FFFFFF;" d="M394.61,280.53c1.23-0.55,2.03-1.75,2.06-3.09c0-3.57-2.75-3.74-5.07-3.78h-7.09v13.75h7.57
				c2.62,0,4.64-0.69,4.64-3.83C396.72,282.22,395.88,281,394.61,280.53 M387.38,276.23h4.3c1.25,0,1.89,0.56,1.89,1.63
				s-0.77,1.55-1.89,1.55h-4.3V276.23z M391.68,285.12h-4.3v-3.27h4.3c1.25,0,1.89,0.56,1.89,1.63c0,1.07-0.95,1.5-1.89,1.5
				L391.68,285.12z"/>
			<path style="fill:#FFFFFF;" d="M411.67,279.41h-3.78c-1.46,0-1.85-0.73-1.85-1.5s0.73-1.81,2.24-1.81h7.14v-2.45h-7.57
				c-3.65,0-4.77,1.59-4.86,4.3s1.42,4,4.6,4h3.4c1.89,0,2.02,0.69,2.02,1.33s-0.3,1.81-2.19,1.81h-7.22v2.45h7.69
				c3.65,0,4.73-1.55,4.81-4.3c0.09-2.75-1.03-3.87-4.3-3.87"/>
			<path style="fill:#FFFFFF;" d="M422.2,273.65l-5.8,13.75h3.09l1.16-3.31h6.02l1.25,3.31h3.22l-5.89-13.75H422.2 M421.51,281.69
				l2.02-5.29l2.11,5.29H421.51z"/>
			<path style="fill:#FFFFFF;" d="M431.23,280.78c0,5.03,2.67,6.62,6.49,6.62h6.19v-8.12h-6.79v2.41h3.87v3.22h-3.27
				c-2.54,0-3.27-1.63-3.27-4.3c0-3.65,1.38-4.56,3.27-4.56h6.19v-2.41h-6.19C433.68,273.65,431.23,275.45,431.23,280.78"/>
			<path style="fill:#FFFFFF;" d="M450.27,273.65l-5.8,13.75h3.05l1.2-3.31h5.97l1.29,3.31h3.22l-5.89-13.75H450.27 M449.67,281.69
				l2.02-5.29l2.06,5.29H449.67z"/>
			<polyline style="fill:#FFFFFF;" points="467.94,284.22 464.46,273.65 460.16,273.65 460.16,287.4 463.17,287.4 462.82,276.61 
				466.43,287.4 469.53,287.4 473.05,276.7 472.79,287.4 475.67,287.4 475.67,273.65 471.42,273.65 467.94,284.22 			"/>
			<rect x="478.51" y="273.65" style="fill:#FFFFFF;" width="3.01" height="13.8"/>
			<polyline style="fill:#FFFFFF;" points="492.61,279.19 487.32,279.19 487.32,273.65 484.4,273.65 484.4,287.4 487.32,287.4 
				487.32,281.64 492.61,281.64 492.61,287.4 495.49,287.4 495.49,273.65 492.61,273.65 492.61,279.19 			"/>
			<path style="fill:#FFFFFF;" d="M502.28,273.65l-5.8,13.75h3.05l1.2-3.31h5.97l1.29,3.31h3.22l-5.89-13.75H502.28 M501.68,281.69
				l2.02-5.29l2.11,5.29H501.68z"/>
			<path style="fill:#FFFFFF;" d="M524.12,277.82c0-3.01-1.59-4.3-4.81-4.3h-7.09v13.75h2.88v-5.24h3.4l3.01,5.37h3.18l-3.35-5.72
				c1.76-0.38,2.95-2.03,2.75-3.83 M518.57,279.67h-3.52v-3.52h3.52c2.62,0,2.58,0.9,2.58,1.72s-0.77,1.85-2.54,1.85L518.57,279.67z
				"/>
			<path style="fill:#FFFFFF;" d="M533.53,273.65h-3.05l-5.8,13.71h3.05l1.25-3.35h6.02l1.25,3.31h3.22l-5.89-13.75 M529.92,281.6
				l2.02-5.29l2.11,5.29H529.92z"/>
		</g>
		<g>
			<path style="fill:#FFFFFF;" d="M322.95,202.34h-31.46c-4.65-0.94-7.66-5.48-6.71-10.14c0.69-3.38,3.33-6.03,6.71-6.71h33.44
				c5.42,0,11,0,14.44,6.19h3.09v-21.49h-52.31c-13.06,0-23.64,10.58-23.64,23.64s10.58,23.64,23.64,23.64l0,0h30.78
				c4.75,0,8.6,3.85,8.6,8.6v3.65c-0.11,4.7-3.9,8.48-8.6,8.6H291.1c-5.42,0-14.92,0.6-18.31-6.53h-3.35v21.71h53.52
				c13.09-0.12,23.63-10.8,23.56-23.9v-3.65C346.51,212.92,335.97,202.36,322.95,202.34"/>
			<path style="fill:#FFFFFF;" d="M427.96,231.74c-2.67,5.59-9.24,6.4-14.57,6.53H394.3c-10.65-0.02-19.28-8.65-19.3-19.3v-16.25
				c0-10.62,8.6-17.19,19.3-17.19h19.17c5.42,0,11,0,14.4,6.19h3.14v-21.49h-38.39c-19,0-34.39,13.45-34.39,32.41v16.25
				c0,18.99,15.4,34.39,34.39,34.39h21.49l0,0h16.72v-21.62h-3.14"/>
			<path style="fill:#FFFFFF;" d="M504.39,202.34h-31.29c-4.65-0.94-7.66-5.48-6.71-10.14c0.69-3.38,3.33-6.03,6.71-6.71h33.44
				c5.42,0,11.05,0,14.44,6.19h3.14v-21.49h-52.53c-13.06,0-23.64,10.58-23.64,23.64s10.58,23.64,23.64,23.64l0,0h30.78
				c4.75,0,8.6,3.85,8.6,8.6v3.65c-0.13,4.69-3.91,8.46-8.6,8.6h-29.83c-5.37,0-14.92,0.6-18.31-6.53h-3.35v21.71h53.52
				c13.09-0.12,23.63-10.8,23.56-23.9v-3.65C527.94,212.92,517.4,202.36,504.39,202.34"/>
		</g>
	</g>
	<g>
		<path d="M417.22,402.86l-0.47-0.3c-3.22-1.59-21.49-5.72-32.2-2.45c-2.5,1.12-4.91,2.41-7.22,3.87c-1.42,0.52-2.79,1.12-4.3,1.72
			c-0.64-0.31-1.32-0.53-2.02-0.64h-0.9l-1.2,0.52c-4.35,2.47-8.45,5.35-12.25,8.6l-0.73,0.82c-1.61,1.49-2.8,3.37-3.48,5.46v0.26
			c-1.12,1.2-2.15,2.41-3.18,3.65l-2.28,2.19c-1.01,1.26-1.73,2.73-2.11,4.3c-6.59,10.65-10.06,22.94-10.02,35.46
			c-1.29,35.3,26.27,64.97,61.57,66.26c35.3,1.29,64.97-26.27,66.26-61.57c0.06-1.56,0.06-3.13,0-4.69
			C463.08,437.47,444.64,411.75,417.22,402.86z"/>
		<g>
			<path style="fill:#FFFFFF;" d="M363.74,441.46c1.08,2.02,2.54,3.82,4.3,5.29l1.25,1.2c0.95,1.08,2.35,1.66,3.78,1.59
				c1.01-0.18,1.84-0.89,2.19-1.85c3.48-7.47,7.53-14.65,12.12-21.49c5.61-6.51,12.54-11.76,20.33-15.39
				c7.14-3.14,8.6-2.84,8.6-2.84c0.15,0.06,0.32,0.06,0.47,0c0.41-0.22,0.66-0.65,0.64-1.12c0-0.69-0.6-1.33-1.89-1.98
				c-2.88-1.42-20.59-5.29-30.3-2.24l0,0c-3.95,1.7-7.59,4.04-10.79,6.92c-4.75,5.7-8.41,12.23-10.79,19.26
				c-1.4,4.19-1.4,8.71,0,12.9"/>
			<path style="fill:#FFFFFF;" d="M387.99,429.08c-3.22,4.77-6.09,9.77-8.6,14.96l-0.3,0.82c-0.99,2.36-1.98,4.86-1.12,6.36
				c0.86,1.5,3.27,2.49,7.61,3.7c3.28,1.06,6.78,1.23,10.14,0.47c2.1-2.05,3.92-4.36,5.42-6.88l3.44-4.86
				c4.39-4.76,9.77-8.49,15.78-10.92c3.87-1.49,7.94-2.37,12.08-2.62l0,0c2.24,0,4.3,0,4.64-2.92c0.09-4.66-1.43-9.22-4.3-12.9
				c-2.48-2.88-6.05-4.59-9.84-4.73l0,0c-5.31,0.76-10.54,1.97-15.65,3.61c-7.36,4.07-13.91,9.44-19.34,15.86"/>
			<path style="fill:#FFFFFF;" d="M441.8,431.96l1.85,1.25c1.59,1.16,4.56,2.54,5.54,1.98c0.25-0.13,0.4-0.4,0.39-0.69
				c-1.04-2.88-2.65-5.53-4.73-7.78l-5.46-5.76h-0.39c-0.17,0.01-0.32,0.09-0.43,0.21c-1.81,1.98,0,7.35,0.56,8.6
				c0.65,1.03,1.57,1.85,2.67,2.36"/>
			<path style="fill:#FFFFFF;" d="M454.61,452.98c-0.9-8.85-3.65-14.27-8.85-17.45c-3.2-2.32-7.19-3.28-11.09-2.67h-0.26
				c-0.47,0-1.89,0.26-2.19,1.29c-0.04,0.16-0.04,0.32,0,0.47c0,0.73,0.69,1.63,1.98,2.84c3.69,3.9,6.89,8.23,9.54,12.9l1.89,3.95
				c1.72,3.07,2.94,6.39,3.61,9.84c0.47,3.27,0.64,5.59,0.73,6.96c0.09,1.38,0,1.29,0,1.33l0,0c-0.02,0.08-0.02,0.17,0,0.26
				c0.21,0.43,1.07,1.81,2.02,1.68c0.95-0.13,1.12-1.25,1.2-1.59c1.31-6.52,1.76-13.18,1.33-19.82"/>
			<path style="fill:#FFFFFF;" d="M439.44,448.59c-6.83-8.85-10.45-12.68-12.47-13.24c-2.11-0.79-4.46-0.58-6.4,0.56l-1.55,0.69
				c-2.15,0.95-4.77,2.11-5.03,4c-0.04,1.29,0.59,2.52,1.68,3.22c4.93,5.49,8.71,11.9,11.13,18.87c2.89,8.45,4.34,17.33,4.3,26.26
				c-0.43,4.49-1.41,8.91-2.92,13.15c-0.26,0.82-0.77,2.75,0,3.44c0.42,0.32,1,0.32,1.42,0c4.88-4.2,9.5-8.69,13.84-13.45l0.21-0.26
				c4.24-4,6.16-9.87,5.12-15.6c-0.98-9.82-4.28-19.26-9.63-27.55"/>
			<path style="fill:#FFFFFF;" d="M428.52,477.44c-1.79-11.31-6.65-21.91-14.06-30.65l-0.86-0.82c-1.42-1.46-3.01-3.05-5.76-1.72
				l0,0c-2.22,2.35-4.32,4.82-6.28,7.39c-1.06,2.11-1.06,4.6,0,6.71l1.03,2.11c2.2,3.91,3.66,8.2,4.3,12.64
				c0.99,6.74,0.43,13.62-1.63,20.12c-1.15,3.26-2.59,6.41-4.3,9.41c-0.66,2.01-0.32,4.21,0.9,5.93c1.84,2.08,4.24,3.58,6.92,4.3
				c2.24,0.3,11.99,0.47,14.92-4.9c5.06-9.33,6.83-20.1,5.03-30.56"/>
			<path style="fill:#FFFFFF;" d="M397.18,505.46c4.3-5.67,3.44-6.92,3.14-7.35c-0.3-0.43-2.45-0.47-3.01-0.3l0,0
				c-4.7,1.66-9.63,2.61-14.61,2.79c-5.25,0.84-10.62,0.52-15.73-0.95c-2.41-0.99-8.34-2.92-8.6-3.05h-0.34
				c-0.47,0.14-0.81,0.54-0.86,1.03c0,0.77,0.52,1.63,1.98,2.58c1.46,0.95,2.36,1.81,3.83,2.97c2.58,2.36,5.47,4.36,8.6,5.93
				l1.2,0.47c4.12,2.01,8.79,2.61,13.28,1.72c4.39-0.3,8.44-2.44,11.18-5.89"/>
			<path style="fill:#FFFFFF;" d="M386.35,497.98c5.14-0.76,10.16-2.21,14.92-4.3l0,0c2.75-0.82,3.09-5.03,3.35-8.6l0.3-2.75
				c0.21-0.67,0.06-1.4-0.39-1.93c-0.77-0.82-2.19-0.6-3.35-0.43h-0.77h-0.73c-4.12,0.35-8.26,0.35-12.38,0
				c-8.6-0.6-9.07-0.69-22.48-5.72h-0.3c-7.33-2.1-13.8-6.5-18.44-12.55l-1.29-1.59c-1.5-1.76-2.58-2.36-3.44-2.06
				c-0.86,0.3-1.16,2.67-1.03,5.03c0.4,4.37,1.25,8.7,2.54,12.9l0.26,0.6c2.14,7.29,7.17,13.38,13.93,16.85
				c9.32,3.73,19.4,5.2,29.4,4.3"/>
			<path style="fill:#FFFFFF;" d="M374.49,475.24c7.43,1.95,15.12,2.7,22.78,2.24c3.01,0,4.64-0.56,5.63-2.58
				c0.9-3.2,0.47-6.63-1.2-9.5c-1.81-4.3-6.23-4.99-11.91-5.72l-2.15-0.3c-6.93-1.35-13.49-4.2-19.21-8.34
				c-4.15-3.51-7.73-7.64-10.62-12.25c-2.19-3.4-3.74-4.86-6.92-4.3h-0.34c0.42-0.33,0.72-0.78,0.86-1.29
				c0.22-0.63,0.65-1.18,1.2-1.55c1.26-1.12,2.11-2.64,2.41-4.3c0.07,1.9,0.39,3.77,0.95,5.59c0.39,1.08,1.39,1.82,2.54,1.89
				c1.11,0,2.1-0.68,2.49-1.72c0.46-1.3,0.79-2.64,0.99-4c0.43-3.11,1.33-6.14,2.67-8.98c1.29-2.86,3.1-5.45,5.33-7.65l0.99-0.9
				c1.33-1.16,2.19-1.93,1.93-2.79s-1.12-0.95-2.02-1.12c-0.11-0.04-0.23-0.04-0.34,0c-4.14,2.38-8.05,5.12-11.69,8.21l-0.77,0.77
				c-1.32,1.17-2.32,2.64-2.92,4.3c-0.29,1.41-0.37,2.86-0.26,4.3c-0.13-0.4-0.31-0.78-0.56-1.12c-0.22-0.19-0.55-0.19-0.77,0
				c-1.59,1.26-3.03,2.71-4.3,4.3c-1.31,1.52-1.98,3.5-1.85,5.5l0,0c0.3,0.49,0.75,0.87,1.29,1.07c-1.75,0.62-3.25,1.78-4.3,3.31
				c-1.19,2.27-2.06,4.71-2.58,7.22c-1.29,4.94,0.82,9.89,6.4,15c7.29,7.06,16.25,12.16,26.05,14.83"/>
		</g>
		<g>
			<path d="M573.16,478.85h-0.43l0,0h-1.16h-1.12h-0.52l0,0l-65.16,8.17l-13.2,1.63l-6.1,0.9h-0.3c-3.31,0.47-7.14,0.99-11.13,1.76
				l0,0l-4.3,0.95l-1.55,0.39l-1.89,0.43l-1.25,0.43c-0.95,0.26-1.89,0.56-2.84,0.9l-2.49,0.86l-2.49,1.03l-1.2,0.52l-0.86,0.43
				c-1.2,0.6-2.41,1.2-3.61,1.89l-1.42,0.9c-1.05,0.65-2.07,1.35-3.05,2.11c-0.27,0.16-0.53,0.33-0.77,0.52
				c-1.16,0.9-2.11,1.55-3.01,2.15c-1.62,1.11-3.17,2.31-4.64,3.61l-0.43,0.34c-8.22,7.9-17.56,14.55-27.72,19.73
				c-0.3-1.25-0.47-2.36-0.47-2.36s0-0.86,0-1.81c0-0.95-1.98-2.11-3.48-3.22c-0.93-0.71-1.2-1.98-0.64-3.01
				c0.26-1.37,0.11-2.79-0.43-4.08l-2.24,2.45c0.67-1.45,1.09-3.01,1.25-4.6l-3.57,2.58c1.5-2.45,1.5-6.19,0.26-4.6
				c-1.48,1.49-3.16,2.76-4.99,3.78v-2.97c-1.35,1.35-2.79,2.61-4.3,3.78c-3.52,1.65-6.62,4.08-9.07,7.09
				c-1.03,1.24-1.72,2.72-2.02,4.3c-8.02-4.99-15.54-10.75-22.44-17.19l0,0l-0.43-0.39c-1.98-1.68-3.27-2.58-4.64-3.57
				c-1.38-0.99-1.85-1.25-3.01-2.15c-0.25-0.19-0.51-0.36-0.77-0.52c-0.98-0.76-2-1.46-3.05-2.11l-1.42-0.9
				c-1.2-0.69-2.41-1.29-3.65-1.89l-0.82-0.43l-1.2-0.52l-2.49-0.99c-0.81-0.35-1.65-0.65-2.49-0.9c-0.95-0.34-1.89-0.64-2.84-0.9
				c-0.43,0-0.82-0.3-1.25-0.39c-0.43-0.09-1.25-0.3-1.89-0.47l-1.55-0.39l-4.3-0.95l0,0c-4-0.77-7.82-1.29-11.13-1.72h-0.3
				l-6.15-0.9l-78.62-9.28l0,0h-0.52h-1.12h-1.2l0,0h-0.47h0.43l2.92,7.31c0.42,0.79,0.99,1.49,1.68,2.06l0,0
				c0.82,1.4,1.97,2.58,3.35,3.44v0.47c0,0,1.76,3.44,3.14,5.63c0.26,0.4,0.58,0.76,0.95,1.07c0.3,0.47,0.56,0.99,0.82,1.42
				c1.31,1.59,3.02,2.8,4.94,3.52c0.3,0.47,0.82,1.2,1.42,2.02s2.19,3.31,3.83,5.46c1.74,1.58,3.81,2.75,6.06,3.44l0.52,0.56h-0.43
				l0.6,0.69c2.02,2.41,3.4,3.95,4.3,4.81c2.16,1.56,4.59,2.7,7.18,3.35l0,0l-0.82,0.39l0.56,0.56c0.56,0.56,2.49,2.54,4.51,4.3
				c2.08,1.36,4.45,2.21,6.92,2.49l0.6,0.52l-1.07,0.69l0.95,0.82c1.07,0.9,3.14,2.62,4.86,3.95c2.38,1.28,5,2.07,7.69,2.32
				l-0.9,0.69l1.33,0.95l4.99,3.48c1.22,0.74,2.53,1.31,3.91,1.68h-0.39l0.69,0.82c1.69,1.54,3.66,2.74,5.8,3.52
				c1.61,0.61,3.31,0.99,5.03,1.12l-1.07,1.07l1.42,0.9c0,0,3.05,1.68,5.37,2.84c1.47,0.66,3.04,1.07,4.64,1.2l-0.69,0.77l6.06,2.75
				c1.52,0.69,3.15,1.12,4.81,1.29l-0.43,0.6l6.4,2.58h0.56c1.13,0.5,2.34,0.82,3.57,0.95v0.3l1.12,0.39c0,0,3.7,1.33,6.02,2.06
				h0.56c0.86,0.3,1.73,0.54,2.62,0.73l0,0l5.93,1.76c1.48,0.48,3.04,0.68,4.6,0.6l-0.3,0.6l5.8,1.5c1.51,0.3,3.06,0.39,4.6,0.26
				l-0.3,0.77l6.06,1.25c1.42,0.26,2.88,0.26,4.3,0l-0.26,0.77l2.54,0.47l-18.61,15.47l-0.34,0.3h0.39l1.93,0.95l-5.59,4.08
				c0,0,2.49,1.16,4.3,1.85c0.85,0.46,1.76,0.8,2.71,0.99c0.72,0.16,1.46,0.05,2.11-0.3l-0.95,0.95c0,0,2.75,1.2,4.3,1.85
				c0.74,0.39,1.54,0.65,2.36,0.77c0.52,0.09,1.05-0.06,1.46-0.39l-0.6,0.9l3.48,1.33c0.65,0.25,1.33,0.44,2.02,0.56
				c0.9,0.25,1.87,0.01,2.54-0.64l-0.6,1.5l3.27,1.16l1.25,0.3h0.52c0.81,0.24,1.69,0.08,2.36-0.43l-0.26,1.38l3.31,1.07h0.77
				c1.33,0.26,2.62,0,2.92-0.77c0.26,0.77,1.55,1.03,2.88,0.77h0.77l3.31-1.07l-0.26-1.38c0.69,0.51,1.58,0.67,2.41,0.43h0.47
				l1.25-0.3l3.31-1.16l-0.6-1.5c0.65,0.65,1.61,0.9,2.49,0.64c0.7-0.12,1.4-0.31,2.06-0.56l3.44-1.33l-0.6-0.9
				c0.41,0.33,0.94,0.47,1.46,0.39c0.83-0.12,1.63-0.38,2.36-0.77c1.72-0.64,4.3-1.85,4.3-1.85l-0.95-0.95
				c0.64,0.35,1.39,0.46,2.11,0.3c0.96-0.2,1.88-0.53,2.75-0.99l4.3-1.85l-5.59-4.08l1.93-0.95h0.39l-0.34-0.3l-18.57-15.47
				l2.62-0.47c0,0,0-0.56-0.26-0.77c1.42,0.26,2.88,0.26,4.3,0l6.06-1.25l-0.3-0.77c1.39,0.28,2.8,0.38,4.21,0.3l5.8-1.5l-0.3-0.6
				c1.56,0.08,3.12-0.12,4.6-0.6l5.93-1.76l0,0c0.9-0.19,1.79-0.43,2.67-0.73h0.56c2.28-0.73,5.85-1.98,5.97-2.06l1.16-0.39
				l-0.21-0.3c1.25-0.12,2.46-0.44,3.61-0.95h0.56l6.4-2.58l-0.47-0.6c1.68-0.16,3.32-0.59,4.86-1.29l6.06-2.75l-0.69-0.77
				c1.6-0.15,3.17-0.55,4.64-1.2c2.32-1.16,5.24-2.75,5.37-2.84l0.9-0.6l-1.07-1.07c1.73-0.13,3.44-0.51,5.07-1.12
				c2.14-0.76,4.1-1.96,5.76-3.52l0.69-0.82h-0.39c1.39-0.36,2.73-0.93,3.95-1.68l4.99-3.48l1.33-0.95l-0.95-0.69
				c2.7-0.24,5.32-1.03,7.69-2.32c1.72-1.33,3.83-3.05,4.9-3.95l0.95-0.82l-1.12-0.69l0.64-0.52c2.47-0.28,4.84-1.14,6.92-2.49
				c2.02-1.81,3.95-3.78,4.51-4.3l0.52-0.56l-0.77-0.39l0,0c2.61-0.62,5.07-1.76,7.22-3.35c0.82-0.86,2.19-2.41,4.3-4.81l0.56-0.69
				h-0.39l0.47-0.56c2.26-0.69,4.35-1.86,6.1-3.44c1.76-2.28,3.61-5.07,3.87-5.5l1.38-1.98c1.91-0.72,3.6-1.94,4.9-3.52
				c0.31-0.45,0.58-0.93,0.82-1.42c0.39-0.3,0.72-0.66,0.99-1.07c1.42-2.28,3.09-5.59,3.09-5.63l0.26-0.47
				c1.37-0.87,2.52-2.05,3.35-3.44l0,0c0.72-0.56,1.3-1.26,1.72-2.06l2.88-7.31L573.16,478.85z"/>
			<g>
				<g>
					<path style="fill:#C2A712;" d="M368.43,597.1h0.43c1.33,0.64,2.75,1.29,3.95,0l14.31-16.51h-0.3l-2.97-0.52L365.2,595.6
						L368.43,597.1z"/>
					<path style="fill:#C2A712;" d="M387.73,580.6l-14.4,17.19l0,0l0,0l-1.03,1.2l3.65,1.59h0.43c1.38,0.6,2.19,0.95,3.05-0.56
						l2.79-4.81l0,0l8.6-14.96C389.8,580.46,388.77,580.57,387.73,580.6z"/>
					<path style="fill:#C2A712;" d="M397.31,607.51c0.19-0.11,0.32-0.3,0.34-0.52v-0.6l-1.12-24.54l-4.3,25.02l2.71,0.9
						C395.74,607.99,396.59,607.9,397.31,607.51z"/>
					<path style="fill:#C2A712;" d="M391.42,605.57c0.24-0.13,0.4-0.37,0.43-0.64l0.99-5.37l0,0l3.65-20.46v-2.11
						c-0.34,0.49-0.75,0.94-1.2,1.33l-9.46,26.09l2.67,0.99C389.43,605.78,390.46,605.84,391.42,605.57z"/>
					<path style="fill:#C2A712;" d="M381.88,602.95c0.92,0.49,1.99,0.63,3.01,0.39c0.49-0.21,0.86-0.64,0.99-1.16l1.68-4.6l0,0
						l6.71-18.57c-0.82,0.49-1.7,0.86-2.62,1.12l-12.55,21.71L381.88,602.95z"/>
					<path style="fill:#C2A712;" d="M431.01,595.56l-18.66-15.52l-2.84,0.52h-0.39l14.18,16.68c1.25,1.33,2.62,0.69,3.95,0h0.47
						L431.01,595.56z"/>
					<path style="fill:#C2A712;" d="M414.29,602.95l2.75-1.12l-3.27-5.67l-0.34-0.56l0,0l-9.11-15.52c-0.93-0.26-1.82-0.66-2.62-1.2
						l6.92,18.91l0,0l1.63,4.6c0.16,0.52,0.51,0.95,0.99,1.2C412.3,603.77,413.39,603.54,414.29,602.95z"/>
					<path style="fill:#C2A712;" d="M410.47,604.41l-9.5-26.22c-0.51-0.45-0.94-0.97-1.29-1.55l0,0v1.38l4.86,27.08
						c0.03,0.27,0.19,0.51,0.43,0.64c0.97,0.36,2.04,0.36,3.01,0L410.47,604.41z"/>
					<path style="fill:#C2A712;" d="M398.47,606.95c0.02,0.23,0.15,0.44,0.34,0.56c0.81,0.36,1.73,0.36,2.54,0l2.75-0.9l-0.3-1.68
						l0,0l-0.99-5.42l0,0l-3.44-19.21l-1.03,20.55v0.3L398.47,606.95z"/>
					<path style="fill:#C2A712;" d="M408.62,580.6c-1.06,0-2.11-0.12-3.14-0.34l9.11,15.73l2.36,4.08c0.86,1.5,1.72,1.16,3.09,0.56
						h0.39l3.7-1.59l-1.03-1.2l0,0l0,0L408.62,580.6z"/>
				</g>
				<g>
					<path style="fill:#C2A712;" d="M377.58,529.75c-8.36-5.11-16.19-11.02-23.38-17.67l-0.26-0.26l-0.47-0.39
						c-3.09-2.71-6.02-5.2-8.6-7.39c-11.35-8.81-23.64-10.49-34.39-11.95l0,0l-6.1-0.9l-1.98-0.26c-42.3-5.16-65.47-8.04-73.07-9.07
						l1.29,3.35c2.77,3.7,7.16,5.81,11.78,5.67l70.24,5.93l6.06,0.52l0,0l-13.88,0.56l0,0l-62.89-3.87c-1.66-0.14-3.3-0.45-4.9-0.9
						c0.52,0.95,1.25,2.32,1.93,3.44c3.96,2.93,8.74,4.55,13.67,4.64l66.93,1.93l0,0l-14.36,1.76l0,0l-53.04-0.39
						c-2.06-0.08-4.1-0.37-6.1-0.86c0.77,1.12,1.76,2.49,2.67,3.61c1.55,1.98,8.6,3.95,16.81,3.7l55.45-1.33l0,0l-14.96,2.58l0,0
						l-40.32,1.85c-2.87,0.05-5.74-0.08-8.6-0.39l2.58,2.88c3.85,2.72,8.64,3.79,13.28,2.97l50.89-3.57l0,0l-16.42,3.57l0,0
						l-17.19,1.55l-11.69,1.07l-3.83,0.34h-1.12h-0.34c-1.6,0.13-3.21,0.13-4.81,0l2.45,2.28c6.06,2.13,12.52,2.87,18.91,2.19
						l37.18-5.46l0,0l-15.86,4.9l0,0l-20.46,3.61c-3.37,0.37-6.77,0.37-10.14,0c0.82,0.69,1.93,1.55,3.05,2.41
						c5.38,2.03,11.28,2.27,16.81,0.69l25.19-5.24l5.97-1.25l0,0l-13.2,6.02l0,0l-16.38,4.3l0,0c-2.63,0.59-5.3,0.95-8,1.07l0,0
						l2.45,1.68c1.07,0.69,4.3,2.02,11.69,0l27.47-7.69l0,0l-9.03,5.16l0,0l-19.73,6.88c-0.95,0.29-1.93,0.48-2.92,0.56l1.55,0.69
						c4.47,1.22,9.22,0.97,13.54-0.73l22.31-7.57l0,0l-5.76,4.94l0,0h-0.39l-13.8,6.06l0,0c-2.48,0.86-5.04,1.42-7.65,1.68
						l0.47,0.26l2.19,1.12c3.21,1.15,6.76,0.87,9.76-0.77l15.82-6.62l5.33-2.41l0,0l-4.3,5.03l0,0l-14.36,7.18
						c-1.38,0.6-2.82,1.05-4.3,1.33l1.59,0.69c2.77,1.26,5.99,1.07,8.6-0.52l19.43-9.8l0,0l-4.3,5.46l0,0c0,0-12.64,7.44-14.7,8.6
						c0.54,0.18,1.08,0.39,1.59,0.64h0.64l0,0c0.55,0.27,1.15,0.44,1.76,0.52l0,0c1.55-0.05,3.05-0.57,4.3-1.5l17.19-10.53l0,0
						l-3.48,5.8l0,0l-10.66,7.61l0,0c-0.5,0.3-1.01,0.58-1.55,0.82l2.24,0.77h0.64l0,0c1.5,0.47,2.06,0.69,4.9-1.42l15.17-11.05l0,0
						l0,0l-1.98,5.93l0,0c0,0-8.6,7.09-10.62,8.6h0.73c0.64,0.2,1.31,0.33,1.98,0.39h0.26c1.85-0.11,3.6-0.91,4.9-2.24l12.42-10.79
						l0,0l0,0l-2.06,6.28l0,0v0.21c0,0-6.28,6.62-6.32,6.71l0,0c-0.7,0.62-1.47,1.17-2.28,1.63l1.2,0.34c1.05,0.18,2.13,0.18,3.18,0
						h0.43c0.4-0.11,0.79-0.25,1.16-0.43l0.43-0.3l0.43-0.34l0.47-0.52l6.49-6.71l4.73-4.86c0-1.89-0.47-4.6-0.47-5.85v-0.6
						c2.77,4.37,4.53,9.31,5.16,14.44c-0.26,4.94,1.76,4.69,5.16,7.31c2.05,1.7,3.73,3.81,4.94,6.19c1.19-2.39,2.88-4.5,4.94-6.19
						c3.4-2.62,5.42-2.36,5.12-7.31c0.65-5.11,2.41-10.01,5.16-14.36c0,0,0,0.3,0,0.52c0,1.2-0.52,3.74-0.43,5.63l4.94,5.07
						l6.49,6.71l0.47,0.52c1.6,1.19,3.65,1.61,5.59,1.16l1.25-0.34c-0.83-0.47-1.6-1.01-2.32-1.63l0,0l-6.32-6.71v-0.21l0,0
						l-2.02-6.28l0,0l0,0l12.42,10.79c1.19,1.13,2.69,1.89,4.3,2.19c0.99,0.08,1.98-0.03,2.92-0.34h0.77
						c-2.19-1.59-10.57-8.6-10.66-8.6l0,0l-1.98-5.93l0,0l0,0l15.17,11.05c2.84,2.11,3.4,1.89,4.86,1.42l0,0h0.6l2.28-0.77
						c-0.53-0.24-1.05-0.51-1.55-0.82l0,0l-10.66-7.61l0,0l-3.48-5.8l0,0l17.19,10.53c3.44,2.06,4.6,1.63,6.19,0.99l0,0h0.64
						c0.51-0.26,1.04-0.48,1.59-0.64c-2.06-1.07-14.57-8.6-14.7-8.6l0,0l-4.3-5.46l0,0l19.43,9.8c2.6,1.59,5.82,1.78,8.6,0.52
						l1.55-0.69c-1.4-0.31-2.77-0.76-4.08-1.33l-14.31-7.18l0,0l-4.3-5.03l0,0l5.33,2.41l15.82,6.62c2.99,1.64,6.54,1.92,9.76,0.77
						l0,0l2.36-1.2h0.3c-2.61-0.26-5.18-0.82-7.65-1.68l0,0l-14.01-6.32h-0.39l0,0l-5.93-4.73l0,0l22.31,7.57
						c4.32,1.7,9.07,1.95,13.54,0.73l1.5-0.69c-0.97-0.1-1.94-0.29-2.88-0.56l0,0l-19.73-6.92l0,0l-9.03-5.16l0,0l27.51,7.69
						c7.35,2.06,10.62,0.73,11.69,0l2.62-1.76c-2.7-0.13-5.39-0.49-8.04-1.07l0,0l-16.38-4.3l0,0l-13.37-5.67l0,0l5.97,1.25
						l25.15,5.03c5.54,1.59,11.45,1.34,16.85-0.69l3.05-2.41c-3.37,0.37-6.77,0.37-10.14,0l-20.5-3.61l0,0l-15.9-4.9l0,0l37.18,5.46
						c6.37,0.69,12.82-0.06,18.87-2.19l2.49-2.28c-1.6,0.13-3.21,0.13-4.81,0h-0.39h-1.07l-3.83-0.34l-11.69-1.07L489,519.73l0,0
						l-16.46-3.57l0,0l50.89,3.57c4.66,0.82,9.45-0.25,13.33-2.97c0,0,1.46-1.68,2.58-2.88c-2.85,0.31-5.73,0.44-8.6,0.39
						l-40.45-2.02l0,0l-14.92-2.58l0,0l55.45,1.33c8.12,0.26,15.26-1.72,16.81-3.7c0.95-1.2,1.98-2.62,2.67-3.61
						c-2,0.49-4.05,0.78-6.1,0.86l-52.7,0.52l0,0l-14.36-1.76l0,0l66.88-1.93c4.94-0.1,9.73-1.72,13.71-4.64
						c0.69-1.12,1.42-2.49,1.93-3.44c-1.6,0.45-3.24,0.75-4.9,0.9l-62.89,3.87l0,0l-13.93-0.56l0,0l6.1-0.52l70.24-5.93
						c4.6,0.14,8.98-1.98,11.73-5.67l1.33-3.35c-7.52,1.03-31.38,4-73.07,9.07l-1.98,0.26l-6.15,0.9l0,0
						c-10.88,1.46-23.21,3.14-34.39,11.95c-2.79,2.19-5.72,4.69-8.81,7.39l-0.47,0.39l-0.26,0.26c-8.1,7.66-17.18,14.23-26.99,19.51
						c-0.45,0.44-0.97,0.81-1.55,1.07c2.22,1.22,4.75,1.74,7.26,1.5c-2.43,0.96-4.76,2.16-6.96,3.57c1.07,0,1.03,0.69,2.49,0.56
						c-1.6,2.39-4.16,3.96-7.01,4.3l-0.39,0.52c-3.87,3.04-7.5,6.39-10.83,10.02c-3.33-3.83-6.96-7.38-10.88-10.62l0,0
						c-1.18-1.3-2.66-2.3-4.3-2.92c-1.33-0.28-2.54-0.96-3.48-1.93c-4.97-0.67-9.86-1.81-14.61-3.4c0,0,0.86-0.6,0-0.3
						C369.09,532.4,373.3,530.94,377.58,529.75z"/>
					<path style="fill:#C2A712;" d="M382.83,529.75c1.42,0.34,0.95,2.49,0.95,2.49c-4.63-0.05-9.26,0.38-13.8,1.29
						c3.44,0,16.72,0,19.6,2.02c4.6,2.97,4.94,6.23,5.97,6.58c0.37,0.09,0.75,0.09,1.12,0c-0.37-0.23-0.64-0.58-0.77-0.99
						c-0.26-0.56,0-0.9,0-1.5c0.2-1.35,0.95-2.56,2.06-3.35c1.93-1.38,3.91-0.56,5.5-2.41c-0.54-0.12-1.08-0.19-1.63-0.21
						c1.22-0.38,2.39-0.91,3.48-1.59c-0.54,0.13-1.1,0.13-1.63,0l1.63-0.95c-3.78,0.6-9.67-0.26-12.55,0.34
						c-1.55,0.3-2.28-0.9-4.77-0.95c-1.02,0.19-1.93,0.74-2.58,1.55c0-2.58,2.92-3.91,5.16-4.3c3.22,0,3.78,0.9,7.31,0
						c-0.39,0.88-0.85,1.73-1.38,2.54c2.91,0.38,5.87,0.01,8.6-1.07l0.6-0.39c0.99-0.6,1.81-0.56,0.99-1.81l-0.26-1.42
						c0.11-1.4-0.17-2.8-0.82-4.04l-1.93,2.41c0.52-1.46,0.78-3,0.77-4.56l-3.22,2.54c1.25-2.41,0.9-6.1,0-4.51
						c-1.31,1.45-2.83,2.7-4.51,3.7v-2.92c-1.16,1.33-2.41,2.58-3.74,3.74c0,0-2.41,0.64-6.15,5.85l-0.86,0.77L382.83,529.75z"/>
				</g>
			</g>
		</g>
	</g>
</g>
</svg>
