<?xml version="1.0" encoding="UTF-8"?>
<svg data-name="图层_1" xmlns="http://www.w3.org/2000/svg" version="1.1" viewBox="0 0 800 800">
  <!-- Created by @FCLOGO 2025-7-8 GMT+8 15:40:01 . https://fclogo.top/ -->
<!-- FOR PERSONAL USE ONLY NOT FOR COMMERCIAL USE -->
  <rect width="800" height="800" style="fill: #171819;"/>
  <path d="M509.7408,103.9239c-8.3111,0-16.4435-1.3122-24.1725-3.8999-15.7819-5.2831-41.7386-16.9669-75.7654-42.6308l-9.803-7.3932-9.803,7.3932c-34.0256,25.6626-59.9816,37.3477-75.766,42.6308-7.7289,2.5877-15.8614,3.8999-24.1712,3.8999h-158.178v304.304c0,62.7277,24.6298,155.9162,93.7559,229.336,75.1943,79.8622,165.3615,109.5965,169.163,110.8231l4.9993,1.6131,4.9993-1.6131c3.8021-1.2266,93.9699-30.9609,169.163-110.8243,69.1261-73.4186,93.7559-166.6071,93.7559-229.3348V103.9239h-158.1773ZM651.6387,408.2281c0,46.7517-16.1406,140.4408-89.3294,218.1749-73.1887,77.7341-162.3093,106.4901-162.3093,106.4901,0,0-89.1206-28.756-162.3093-106.4901-73.1888-77.7341-89.3294-171.4232-89.3294-218.1749V120.2037h141.8984c9.973,0,19.8829-1.5761,29.34-4.7419,17.0263-5.6997,44.6826-18.1325,80.4003-45.071,35.7176,26.9385,63.374,39.3713,80.4003,45.071,9.4571,3.1658,19.3669,4.7419,29.34,4.7419h141.8984v288.0244ZM347.915,187.7428h-11.6209v-45.0028h11.6209v45.0028ZM375.9586,213.6202h50.6863v10.4429h-50.6863c-2.5469,0-4.6475,1.1254-4.6475,5.5747,0,3.9769,2.1717,5.0137,4.6475,5.0137h34.624c11.7251,0,18.606.9796,18.606,16.1319,0,6.3716-1.1193,9.7671-4.1029,12.6397-3.911,3.7673-9.0865,3.6907-14.503,3.6907h-51.1414v-10.9543h51.1414c2.49,0,5.4154-.6976,5.4154-5.3761,0-4.9065-2.9258-5.2624-5.4154-5.2624h-34.624c-11.9402,0-17.9816-2.4672-17.9816-15.5702,0-4.2639.2159-8.2415,2.5799-11.3522,3.9235-5.1561,9.5438-4.9785,15.4017-4.9785ZM351.2894,267.1138h-62.5694v-53.4936h13.6196v42.5393h48.9498v10.9543ZM415.8061,187.7428h-10.9479v-45.0028h44.2358c3.4187,0,6.4422.4771,9.0374,2.1556,3.6472,2.3593,6.2617,6.6532,6.2617,11.455v17.7821c0,4.3197-1.868,7.9658-4.9072,10.4283-3.1633,2.563-6.7772,3.1819-10.3918,3.1819h-23.1131l-8.4691-8.7055h31.5823c1.9428,0,4.0379-2.8842,4.0379-4.8764v-18.6674c0-1.7075-2.2728-3.721-4.0379-3.721h-33.2879v35.9703ZM359.284,170.1529l-8.5269-8.9242h33.7015v-18.4887h11.3226v45.0028h-11.3226v-17.59h-25.1746ZM534.4111,267.1138h-13.6321v-53.4936h18.4116l40.2302,41.5446v-41.5446h13.3191v53.4936h-18.1335l-40.1952-42.057v42.057ZM484.2775,213.6202l30.4709,53.4936h-15.4289l-24.6302-44.5571-24.7435,44.5571h-15.458l30.614-53.4936h19.1758ZM260.9892,267.1138h-34.8757c-9.1249,0-18.4389-6.4587-18.4389-16.1775v-37.3161h13.6334v37.3161c0,2.3382,2.361,5.2232,4.7627,5.2232h34.8757c2.3474,0,4.464-2.8569,4.464-5.2232v-37.3161h13.5764v37.3161c0,9.7188-8.8727,16.1775-17.9975,16.1775ZM537.38,412.5245l20.577-20.9468-7.3887-63.6415h-40.8129l-30.013,10.2459-60.1384-16.1635-19.2214-3.871-19.2213,3.871-60.1385,16.1635-30.013-10.2459h-40.8128l-7.3889,63.6415,20.577,20.9468-27.3991,46.3332-4.8877,56.5779,17.2803,6.2611,6.48,28.4595,2.7288,24.8181,20.009,2.3909,2.046-5.0089,17.6205,12.636,16.1433,24.4765,11.368-5.009,12.3917,5.2369,9.779,32.6728,53.4375,17.6456,53.4375-17.6456,9.779-32.6728,12.3916-5.2369,11.3682,5.009,16.1433-24.4765,17.6205-12.636,2.0461,5.0089,20.0089-2.3909,2.7289-24.8181,6.48-28.4595,17.2801-6.2611-4.8877-56.5779-27.3991-46.3332ZM549.3161,386.5618l-28.4211,28.6882,13.8701-33.0143,8.81-45.5232,5.741,49.8493ZM450.5965,517.704l-16.2004-50.8597,14.0116-19.6093,32.6566-15.113-20.5915-25.4574,33.4085,24.3047-26.2045,34.6361-22.3378,4.8103,5.2575,47.2882ZM333.0883,465.6055l-26.2043-34.6361,33.4085-24.3047-20.5916,25.4574,32.6566,15.113,14.0116,19.6093-16.2003,50.8597,5.2576-47.2882-22.338-4.8103ZM279.9691,368.9964l27.8239,35.3487-19.8097,50.46,18.6729,43.972-31.7753-42.4635,18.4457-49.3225-13.3575-37.9947ZM304.9232,515.9093l29.1034-12.5234-32.9695,34.381-28.4202-60.1942,32.2863,38.3367ZM355.9098,421.9903l23.0215-23.9923-8.725,21.786,11.681,50.1051-25.9776-47.8988ZM337.2798,383.4907l63.1028-29.4854,63.1029,29.4854-54.9101-11.0425-8.1927,33.9244-8.1928-33.9244-54.9099,11.0425ZM421.8338,397.998l23.0217,23.9923-25.9777,47.8988,11.681-50.1051-8.725-21.786ZM525.8843,456.3135l-31.7752,42.4635,18.6727-43.972-19.8097-50.46,27.824-35.3487-13.3575,37.9947,18.4456,49.3225ZM495.8421,515.9093l32.2862-38.3367-28.4201,60.1942-32.9696-34.381,29.1035,12.5234ZM481.5612,346.7188l31.7184-10.7018h30.0121l-58.6609,27.6641-66.0506-34.1523,62.981,17.19ZM451.8889,361.5187l-51.5063-16.0512-51.5063,16.0512,51.5063-30.0539,51.5063,30.0539ZM287.4857,336.017l31.7183,10.7018,62.9809-17.19-66.0504,34.1523-58.6611-27.6641h30.0123ZM251.449,386.5618l5.7411-49.8493,8.8098,45.5232,13.8701,33.0143-28.4211-28.6882ZM303.119,578.8633l-30.4525-21.7447-6.8404,17.404-2.9331-25.2969-11.2582-52.2719-12.6923,19.8755,4.7911-55.1669,28.4498-47.7563-16.2003,50.0617,18.687,75.4199,42.0778,49.6071,3.6504,15.9199-17.2793-26.0515ZM446.4737,636.4675l-46.091,14.7419-46.091-14.7419-9.3505-31.9898,16.8824,21.9148,38.5591,8.9928,38.5591-8.9928,16.8824-21.9148-9.3504,31.9898ZM470.888,597.9604l-40.1031,7.4844-30.4022-12.5225-30.4021,12.5225-40.1033-7.4844-23.9299-43.0898,33.2529-39.4742-6.9067,17.6732,35.4978,37.7396-40.898-23.6227-5.371,13.5761,46.4123,23.6218-36.8352-8.14,7.4758,12.2956,30.4387,6.2898,25.0255-11.1429v-19.3538l-33.6465-21.5614,17.4795-56.6357-3.7708,51.0043,26.2811,6.7737,26.2809-6.7737-3.3255-51.0009,17.4798,56.6357-34.0922,21.558v19.3538l25.0255,11.1429,30.4389-6.2898,7.4757-12.2956-36.8353,8.14,46.4124-23.6218-5.3712-13.5761-40.8979,23.6227,35.4977-37.7396-6.9065-17.6732,33.2529,39.4742-23.93,43.0898ZM549.1306,496.9539l-11.2582,52.2719-2.9333,25.2969-6.8403-17.404-30.4525,21.7447-17.2794,26.0515,3.6506-15.9199,42.0777-49.6071,18.687-75.4199-16.2003-50.0617,28.4497,47.7563,4.7911,55.1669-12.6921-19.8755Z" style="fill: #fff; fill-rule: evenodd;"/>
</svg>