<?xml version="1.0" encoding="utf-8"?>
<!-- Created by @FCLOGO 2024-9-28 GMT+8 19:37:10 . https://fclogo.top/ -->
<!-- FOR PERSONAL USE ONLY NOT FOR COMMERCIAL USE -->
<svg version="1.1" xmlns="http://www.w3.org/2000/svg" xmlns:xlink="http://www.w3.org/1999/xlink" x="0px" y="0px"
	 viewBox="0 0 800 800" style="enable-background:new 0 0 800 800;" xml:space="preserve">
<path style="fill:#CCCCCC;" d="M348.22,774.3c-0.79,0-1.38-0.22-1.77-0.65c-0.39-0.44-0.53-1.03-0.41-1.79l0.25-1.65
	c0.12-0.75,0.45-1.35,0.98-1.78c0.53-0.44,1.19-0.65,1.98-0.65c0.76,0,1.33,0.2,1.72,0.6c0.39,0.4,0.55,0.94,0.47,1.62h-1.24
	c0.03-0.36-0.06-0.64-0.26-0.84c-0.2-0.2-0.5-0.3-0.89-0.3c-0.42,0-0.76,0.12-1.03,0.35c-0.27,0.23-0.43,0.56-0.5,0.99l-0.26,1.66
	c-0.07,0.44-0.01,0.77,0.19,1c0.19,0.23,0.5,0.35,0.92,0.35c0.39,0,0.72-0.1,0.98-0.3c0.26-0.2,0.44-0.48,0.52-0.85h1.24
	c-0.14,0.69-0.47,1.23-0.99,1.63C349.61,774.1,348.97,774.3,348.22,774.3z M352.8,774.19l1-6.29h1.19l-0.19,1.19
	c0.34-0.87,0.97-1.3,1.91-1.3c0.67,0,1.17,0.21,1.49,0.62c0.32,0.42,0.43,0.99,0.31,1.71l-0.07,0.42h-1.27l0.06-0.32
	c0.07-0.45,0.01-0.8-0.17-1.04c-0.18-0.24-0.48-0.36-0.88-0.36c-0.4,0-0.74,0.12-1.01,0.37c-0.27,0.24-0.43,0.59-0.5,1.03
	l-0.63,3.97H352.8z M361.91,774.3c-0.77,0-1.35-0.22-1.73-0.67c-0.38-0.45-0.51-1.04-0.4-1.77l0.25-1.65
	c0.08-0.49,0.26-0.92,0.52-1.28c0.26-0.37,0.6-0.65,1.01-0.85c0.41-0.2,0.87-0.3,1.38-0.3c0.77,0,1.35,0.22,1.73,0.67
	c0.39,0.45,0.52,1.04,0.39,1.77l-0.17,1.12h-3.85l-0.09,0.53c-0.15,0.95,0.22,1.43,1.11,1.43c0.72,0,1.17-0.25,1.37-0.74h1.22
	c-0.17,0.53-0.5,0.96-1.01,1.28C363.16,774.14,362.58,774.3,361.91,774.3z M361.23,770.22l-0.05,0.29l2.65-0.01l0.05-0.29
	c0.07-0.47,0.01-0.82-0.17-1.07c-0.18-0.25-0.49-0.37-0.92-0.37c-0.44,0-0.8,0.13-1.06,0.38
	C361.48,769.39,361.31,769.75,361.23,770.22z M368.33,774.3c-0.63,0-1.1-0.21-1.41-0.64c-0.31-0.42-0.4-1-0.27-1.73l0.27-1.77
	c0.11-0.73,0.39-1.31,0.84-1.74c0.44-0.43,0.98-0.64,1.61-0.64c0.47,0,0.83,0.12,1.09,0.35c0.26,0.24,0.39,0.56,0.38,0.96h0.02
	l0.17-1.2h1.24l-1,6.29h-1.22l0.19-1.2h-0.02c-0.12,0.41-0.35,0.73-0.69,0.97C369.2,774.18,368.8,774.3,368.33,774.3z
	 M368.93,773.23c0.39,0,0.72-0.12,0.98-0.36c0.26-0.24,0.43-0.57,0.5-1.01l0.25-1.65c0.07-0.43,0.01-0.76-0.18-1
	c-0.19-0.24-0.47-0.36-0.86-0.36c-0.4,0-0.72,0.12-0.98,0.35c-0.26,0.24-0.42,0.57-0.49,1.01l-0.25,1.65
	c-0.07,0.44-0.01,0.78,0.17,1.01C368.24,773.11,368.53,773.23,368.93,773.23z M376.35,774.19c-0.57,0-0.99-0.16-1.26-0.47
	c-0.27-0.31-0.36-0.75-0.27-1.32l0.54-3.39h-1.74l0.17-1.12h1.74l0.27-1.72h1.24l-0.27,1.72h2.47l-0.18,1.12h-2.46l-0.54,3.39
	c-0.08,0.44,0.1,0.66,0.53,0.66h1.72l-0.17,1.12H376.35z M382.5,774.3c-0.77,0-1.35-0.22-1.73-0.67c-0.38-0.45-0.52-1.04-0.4-1.77
	l0.25-1.65c0.08-0.49,0.26-0.92,0.52-1.28c0.26-0.37,0.6-0.65,1.01-0.85c0.41-0.2,0.87-0.3,1.38-0.3c0.77,0,1.35,0.22,1.73,0.67
	c0.39,0.45,0.52,1.04,0.39,1.77l-0.17,1.12h-3.85l-0.09,0.53c-0.15,0.95,0.22,1.43,1.11,1.43c0.72,0,1.17-0.25,1.37-0.74h1.22
	c-0.17,0.53-0.5,0.96-1.01,1.28C383.76,774.14,383.18,774.3,382.5,774.3z M381.83,770.22l-0.05,0.29l2.65-0.01l0.05-0.29
	c0.07-0.47,0.01-0.82-0.17-1.07c-0.18-0.25-0.49-0.37-0.92-0.37c-0.44,0-0.8,0.13-1.06,0.38
	C382.08,769.39,381.91,769.75,381.83,770.22z M388.92,774.3c-0.63,0-1.1-0.21-1.4-0.64c-0.3-0.42-0.39-1-0.28-1.73l0.27-1.77
	c0.11-0.73,0.39-1.31,0.84-1.74c0.44-0.43,0.98-0.64,1.61-0.64c0.47,0,0.83,0.12,1.09,0.35c0.26,0.24,0.39,0.56,0.38,0.96h0.02
	l0.21-1.47l0.3-1.8h1.24l-1.33,8.35h-1.22l0.19-1.2h-0.02c-0.12,0.41-0.35,0.73-0.69,0.97C389.8,774.18,389.4,774.3,388.92,774.3z
	 M389.53,773.23c0.39,0,0.72-0.12,0.98-0.36c0.26-0.24,0.43-0.57,0.5-1.01l0.25-1.65c0.08-0.43,0.02-0.76-0.17-1
	c-0.19-0.24-0.48-0.36-0.87-0.36c-0.4,0-0.72,0.12-0.98,0.35c-0.26,0.24-0.42,0.57-0.49,1.01l-0.25,1.65
	c-0.08,0.44-0.02,0.78,0.16,1.01C388.83,773.11,389.13,773.23,389.53,773.23z M401.02,774.3c-0.47,0-0.84-0.12-1.1-0.35
	c-0.26-0.23-0.39-0.56-0.38-0.97h-0.01l-0.19,1.2h-1.22l1.33-8.35h1.24l-0.29,1.8l-0.27,1.47h0.05c0.12-0.41,0.35-0.73,0.69-0.97
	c0.34-0.23,0.74-0.35,1.21-0.35c0.63,0,1.1,0.21,1.4,0.64c0.3,0.43,0.39,1.01,0.28,1.74l-0.27,1.77c-0.11,0.73-0.39,1.31-0.84,1.73
	C402.18,774.09,401.64,774.3,401.02,774.3z M400.77,773.23c0.4,0,0.72-0.12,0.98-0.35c0.26-0.23,0.42-0.57,0.5-1.01l0.25-1.65
	c0.07-0.43,0.01-0.77-0.17-1.01c-0.18-0.24-0.47-0.35-0.87-0.35c-0.39,0-0.72,0.12-0.98,0.36c-0.26,0.24-0.43,0.57-0.5,1l-0.25,1.65
	c-0.07,0.44-0.01,0.77,0.17,1.01C400.08,773.11,400.37,773.23,400.77,773.23z M405.47,776.25l0.17-1.06h1.93
	c0.64,0,1.01-0.3,1.1-0.9l0.1-0.67l0.21-1.19h-0.03c-0.12,0.42-0.35,0.74-0.68,0.97c-0.33,0.23-0.73,0.34-1.2,0.34
	c-0.63,0-1.09-0.2-1.4-0.6c-0.31-0.4-0.41-0.94-0.3-1.63l0.58-3.6h1.24l-0.56,3.48c-0.06,0.41,0,0.73,0.18,0.96
	c0.18,0.23,0.47,0.34,0.85,0.34c0.39,0,0.72-0.12,0.98-0.37c0.27-0.24,0.43-0.58,0.49-1.02l0.54-3.4h1.24l-1.01,6.41
	c-0.1,0.6-0.37,1.08-0.81,1.42c-0.44,0.35-1,0.52-1.67,0.52H405.47z M417.79,770.09h3.22l0.54-1.85h-5.47l-1.71,6.44h2.15l0.59-2.1
	h3.03l0.44-1.71h-3.03L417.79,770.09z M424.23,772.92c-0.59,0-1.02-0.39-1.02-1.12c0-0.88,0.63-1.76,1.61-1.76
	c0.49,0,0.88,0.24,1.02,0.78l1.95-0.83c-0.29-1.17-1.27-1.9-2.64-1.9c-2.78,0-4.15,2.15-4.15,3.9c0,1.76,1.27,2.83,3.07,2.83
	c1.37,0,2.34-0.59,2.98-1.42l-1.51-1.17C425.16,772.67,424.72,772.92,424.23,772.92z M430.91,768.23h-2.15l-1.76,6.44h5.12
	l0.49-1.85h-2.93L430.91,768.23z M439.75,771.01c0-1.66-1.32-2.93-3.22-2.93c-2.2,0-3.81,1.81-3.81,3.81c0,1.66,1.32,2.93,3.22,2.93
	C438.14,774.82,439.75,773.01,439.75,771.01z M434.92,771.7c0-0.83,0.59-1.71,1.51-1.71c0.78,0,1.17,0.54,1.17,1.22
	c0,0.83-0.59,1.71-1.51,1.71C435.31,772.92,434.92,772.38,434.92,771.7z M443.21,772.23h1.07l-0.2,0.68
	c-0.15,0.05-0.34,0.1-0.59,0.1c-0.68,0-1.27-0.39-1.27-1.22c0-1.02,0.73-1.9,1.95-1.9c0.59,0,1.12,0.24,1.51,0.59l1.37-1.37
	c-0.44-0.54-1.51-1.07-2.73-1.07c-2.59,0-4.29,1.76-4.29,3.86c0,2.05,1.61,2.88,3.22,2.88c0.93,0,1.85-0.29,2.49-0.68l0.93-3.32
	h-3.12L443.21,772.23z M450.78,768.08c-2.2,0-3.81,1.81-3.81,3.81c0,1.66,1.32,2.93,3.22,2.93c2.2,0,3.81-1.81,3.81-3.81
	C454,769.35,452.68,768.08,450.78,768.08z M450.34,772.92c-0.78,0-1.17-0.54-1.17-1.22c0-0.83,0.59-1.71,1.51-1.71
	c0.78,0,1.17,0.54,1.17,1.22C451.85,772.04,451.27,772.92,450.34,772.92z M437.94,767.5c-0.05,0.29,0.1,0.49,0.44,0.49
	s0.54-0.2,0.63-0.49c0.05-0.24-0.1-0.49-0.44-0.49C438.24,767.01,437.99,767.25,437.94,767.5z M432.13,765.5
	c-0.44,0-0.73,0.24-0.78,0.59c-0.05,0.34,0.1,0.59,0.54,0.59s0.73-0.24,0.78-0.59C432.77,765.74,432.57,765.5,432.13,765.5z
	 M433.01,767.3c-0.1,0.54,0.15,0.88,0.83,0.88c0.63,0,1.07-0.39,1.17-0.88s-0.15-0.88-0.83-0.88
	C433.5,766.43,433.11,766.82,433.01,767.3z M439.6,777.55l-2.44-1.81h-1.51l4.25,3.17l1.61-3.17h-0.98L439.6,777.55z M425.84,767.16
	l-2-1.46l23.13-2.78l-2.15,4.25h1.02l2.68-5.32l-26.99,3.22l2.78,2.1H425.84z M338.72,785.79l0.61-3.83h2.32l-0.08,0.52h-1.76
	l-0.18,1.14h1.63l-0.08,0.52h-1.62l-0.26,1.64H338.72z M342.97,785.84c-0.36,0-0.62-0.1-0.8-0.3c-0.17-0.2-0.23-0.47-0.18-0.82
	l0.27-1.7c0.06-0.34,0.2-0.61,0.44-0.82c0.24-0.2,0.54-0.3,0.89-0.3c0.36,0,0.62,0.1,0.8,0.3c0.17,0.2,0.24,0.47,0.18,0.81
	l-0.27,1.71c-0.06,0.34-0.2,0.62-0.44,0.82C343.63,785.74,343.33,785.84,342.97,785.84z M343.05,785.33c0.19,0,0.35-0.05,0.47-0.16
	c0.12-0.11,0.19-0.26,0.23-0.46l0.27-1.7c0.03-0.2,0.01-0.35-0.08-0.46c-0.08-0.11-0.22-0.16-0.41-0.16s-0.35,0.05-0.46,0.16
	c-0.12,0.1-0.19,0.26-0.22,0.46l-0.27,1.7c-0.03,0.2-0.01,0.35,0.08,0.46C342.72,785.28,342.86,785.33,343.05,785.33z M345,785.79
	l0.61-3.83h1.2c0.24,0,0.44,0.05,0.6,0.14c0.16,0.09,0.28,0.22,0.36,0.39c0.07,0.17,0.09,0.37,0.05,0.59
	c-0.04,0.26-0.14,0.48-0.3,0.67c-0.16,0.19-0.37,0.32-0.6,0.39l0.54,1.64h-0.62l-0.48-1.57h-0.54l-0.25,1.57H345z M345.89,783.71
	h0.64c0.19,0,0.35-0.06,0.48-0.17c0.13-0.11,0.21-0.26,0.24-0.45c0.03-0.19,0-0.35-0.09-0.46c-0.09-0.11-0.24-0.17-0.43-0.17h-0.64
	L345.89,783.71z M349.54,785.79l0.61-3.83h1.25c0.37,0,0.65,0.1,0.84,0.31c0.19,0.21,0.26,0.49,0.2,0.84
	c-0.04,0.23-0.12,0.44-0.25,0.61s-0.29,0.31-0.49,0.4c-0.2,0.09-0.42,0.14-0.66,0.14h-0.69l-0.24,1.52H349.54z M350.43,783.75h0.69
	c0.19,0,0.36-0.06,0.49-0.18c0.14-0.12,0.22-0.27,0.25-0.47c0.03-0.2,0-0.35-0.1-0.47c-0.1-0.12-0.25-0.18-0.44-0.18h-0.69
	L350.43,783.75z M352.75,785.79l0.61-3.83h2.25l-0.08,0.5h-1.7l-0.17,1.09h1.51l-0.08,0.5h-1.51l-0.19,1.24h1.69l-0.08,0.5H352.75z
	 M355.84,785.79l0.61-3.83h1.2c0.24,0,0.44,0.05,0.6,0.14c0.16,0.09,0.28,0.22,0.36,0.39c0.07,0.17,0.09,0.37,0.05,0.59
	c-0.04,0.26-0.14,0.48-0.3,0.67c-0.16,0.19-0.37,0.32-0.6,0.39l0.54,1.64h-0.62l-0.48-1.57h-0.54l-0.25,1.57H355.84z M356.74,783.71
	h0.64c0.19,0,0.35-0.06,0.48-0.17c0.13-0.11,0.21-0.26,0.24-0.45c0.03-0.19,0-0.35-0.09-0.46c-0.09-0.11-0.24-0.17-0.43-0.17h-0.64
	L356.74,783.71z M360.13,785.84c-0.39,0-0.67-0.1-0.87-0.29c-0.19-0.19-0.26-0.45-0.22-0.78h0.57c-0.03,0.17,0.01,0.31,0.12,0.41
	c0.11,0.1,0.27,0.15,0.48,0.15c0.2,0,0.37-0.05,0.5-0.15c0.13-0.1,0.21-0.23,0.24-0.4c0.02-0.15,0-0.28-0.06-0.39
	c-0.06-0.11-0.16-0.18-0.29-0.22l-0.46-0.14c-0.27-0.08-0.46-0.22-0.59-0.41c-0.13-0.19-0.17-0.42-0.13-0.68
	c0.04-0.21,0.11-0.39,0.23-0.55c0.12-0.16,0.27-0.28,0.46-0.37c0.19-0.09,0.4-0.13,0.64-0.13c0.35,0,0.62,0.1,0.8,0.29
	c0.18,0.19,0.25,0.44,0.2,0.76h-0.57c0.03-0.17,0-0.3-0.09-0.4c-0.09-0.1-0.23-0.14-0.42-0.14c-0.19,0-0.34,0.04-0.46,0.13
	c-0.12,0.09-0.19,0.21-0.21,0.38c-0.02,0.15-0.01,0.28,0.05,0.39c0.06,0.11,0.16,0.18,0.29,0.22l0.47,0.15
	c0.26,0.08,0.46,0.22,0.58,0.41c0.12,0.19,0.17,0.42,0.12,0.69c-0.04,0.22-0.12,0.41-0.24,0.57c-0.13,0.16-0.29,0.29-0.49,0.38
	C360.6,785.79,360.38,785.84,360.13,785.84z M363.27,785.84c-0.36,0-0.62-0.1-0.8-0.3c-0.17-0.2-0.23-0.47-0.18-0.82l0.27-1.7
	c0.06-0.34,0.2-0.61,0.44-0.82c0.24-0.2,0.54-0.3,0.89-0.3c0.36,0,0.62,0.1,0.8,0.3c0.17,0.2,0.24,0.47,0.18,0.81l-0.27,1.71
	c-0.06,0.34-0.2,0.62-0.44,0.82C363.92,785.74,363.62,785.84,363.27,785.84z M363.34,785.33c0.19,0,0.35-0.05,0.47-0.16
	c0.12-0.11,0.19-0.26,0.23-0.46l0.27-1.7c0.03-0.2,0.01-0.35-0.08-0.46c-0.08-0.11-0.22-0.16-0.41-0.16c-0.19,0-0.35,0.05-0.46,0.16
	c-0.12,0.1-0.19,0.26-0.22,0.46l-0.27,1.7c-0.03,0.2-0.01,0.35,0.08,0.46C363.02,785.28,363.15,785.33,363.34,785.33z
	 M365.28,785.79l0.61-3.83h0.71l0.62,3.19c0.01-0.1,0.02-0.22,0.03-0.36c0.01-0.14,0.03-0.29,0.04-0.44
	c0.02-0.15,0.04-0.29,0.06-0.41l0.31-1.98h0.52l-0.61,3.83h-0.71l-0.61-3.19c-0.01,0.09-0.02,0.21-0.03,0.34s-0.03,0.28-0.04,0.42
	c-0.02,0.15-0.04,0.28-0.06,0.41l-0.31,2.01H365.28z M368.23,785.79l1.59-3.83h0.75l0.37,3.83h-0.56l-0.07-0.97h-1.09l-0.39,0.97
	H368.23z M369.39,784.34h0.87l-0.09-1.1c-0.02-0.2-0.03-0.37-0.04-0.51c-0.01-0.14-0.01-0.24-0.01-0.3c-0.02,0.06-0.05,0.16-0.1,0.3
	c-0.05,0.14-0.11,0.31-0.19,0.5L369.39,784.34z M371.72,785.79l0.61-3.83h0.57l-0.52,3.31h1.67l-0.08,0.52H371.72z M376.68,785.84
	c-0.37,0-0.63-0.1-0.8-0.3c-0.17-0.2-0.22-0.48-0.17-0.82l0.44-2.76h0.57l-0.44,2.76c-0.03,0.2-0.01,0.35,0.07,0.46
	c0.08,0.11,0.21,0.17,0.41,0.17c0.19,0,0.35-0.06,0.46-0.17c0.12-0.11,0.19-0.27,0.22-0.46l0.44-2.76h0.57l-0.44,2.76
	c-0.06,0.35-0.2,0.62-0.43,0.82C377.35,785.74,377.05,785.84,376.68,785.84z M379.84,785.84c-0.39,0-0.67-0.1-0.87-0.29
	c-0.19-0.19-0.26-0.45-0.22-0.78h0.57c-0.03,0.17,0.01,0.31,0.12,0.41c0.11,0.1,0.27,0.15,0.48,0.15c0.2,0,0.37-0.05,0.5-0.15
	c0.13-0.1,0.21-0.23,0.24-0.4c0.02-0.15,0-0.28-0.06-0.39c-0.06-0.11-0.16-0.18-0.29-0.22l-0.46-0.14
	c-0.27-0.08-0.46-0.22-0.59-0.41c-0.13-0.19-0.17-0.42-0.13-0.68c0.04-0.21,0.11-0.39,0.23-0.55s0.27-0.28,0.46-0.37
	c0.19-0.09,0.4-0.13,0.64-0.13c0.35,0,0.62,0.1,0.8,0.29c0.18,0.19,0.25,0.44,0.2,0.76h-0.57c0.03-0.17,0-0.3-0.09-0.4
	c-0.09-0.1-0.23-0.14-0.42-0.14c-0.19,0-0.34,0.04-0.46,0.13c-0.12,0.09-0.19,0.21-0.21,0.38c-0.02,0.15-0.01,0.28,0.05,0.39
	c0.06,0.11,0.16,0.18,0.29,0.22l0.47,0.15c0.26,0.08,0.46,0.22,0.58,0.41c0.12,0.19,0.17,0.42,0.12,0.69
	c-0.04,0.22-0.12,0.41-0.24,0.57c-0.13,0.16-0.29,0.29-0.49,0.38C380.31,785.79,380.09,785.84,379.84,785.84z M381.91,785.79
	l0.61-3.83h2.25l-0.08,0.5h-1.7l-0.17,1.09h1.51l-0.08,0.5h-1.51l-0.19,1.24h1.69l-0.08,0.5H381.91z M386.94,785.84
	c-0.36,0-0.62-0.1-0.8-0.3c-0.17-0.2-0.23-0.47-0.18-0.82l0.27-1.7c0.06-0.34,0.2-0.61,0.44-0.82c0.24-0.2,0.54-0.3,0.89-0.3
	c0.36,0,0.62,0.1,0.8,0.3c0.17,0.2,0.24,0.47,0.18,0.81l-0.27,1.71c-0.06,0.34-0.2,0.62-0.44,0.82
	C387.6,785.74,387.3,785.84,386.94,785.84z M387.02,785.33c0.19,0,0.35-0.05,0.47-0.16c0.12-0.11,0.19-0.26,0.23-0.46l0.27-1.7
	c0.03-0.2,0.01-0.35-0.08-0.46c-0.08-0.11-0.22-0.16-0.41-0.16c-0.19,0-0.35,0.05-0.46,0.16c-0.12,0.1-0.19,0.26-0.22,0.46
	l-0.27,1.7c-0.03,0.2-0.01,0.35,0.08,0.46C386.7,785.28,386.83,785.33,387.02,785.33z M388.95,785.79l0.61-3.83h0.71l0.62,3.19
	c0.01-0.1,0.02-0.22,0.03-0.36c0.01-0.14,0.03-0.29,0.04-0.44c0.02-0.15,0.04-0.29,0.06-0.41l0.31-1.98h0.52l-0.61,3.83h-0.71
	l-0.61-3.19c-0.01,0.09-0.02,0.21-0.03,0.34c-0.01,0.13-0.03,0.28-0.04,0.42c-0.02,0.15-0.04,0.28-0.06,0.41l-0.31,2.01H388.95z
	 M392.25,785.79l0.61-3.83h0.57l-0.52,3.31h1.67l-0.08,0.52H392.25z M396.12,785.79l0.22-1.41l-0.75-2.42h0.58l0.45,1.45
	c0.03,0.09,0.05,0.18,0.07,0.27c0.02,0.08,0.03,0.15,0.03,0.19c0.02-0.04,0.05-0.1,0.09-0.19c0.04-0.08,0.09-0.17,0.14-0.27
	l0.9-1.45h0.6l-1.53,2.42l-0.22,1.41H396.12z M399.22,785.79l0.61-3.83h0.71l0.62,3.19c0.01-0.1,0.02-0.22,0.03-0.36
	c0.01-0.14,0.03-0.29,0.04-0.44c0.02-0.15,0.04-0.29,0.06-0.41l0.31-1.98h0.52l-0.61,3.83h-0.71l-0.61-3.19
	c-0.01,0.09-0.02,0.21-0.03,0.34c-0.01,0.13-0.03,0.28-0.04,0.42c-0.02,0.15-0.04,0.28-0.06,0.41l-0.31,2.01H399.22z M403.51,785.84
	c-0.36,0-0.62-0.1-0.8-0.3c-0.18-0.2-0.23-0.47-0.18-0.82l0.27-1.7c0.06-0.34,0.2-0.61,0.44-0.82c0.24-0.2,0.54-0.3,0.89-0.3
	c0.36,0,0.62,0.1,0.8,0.3c0.17,0.2,0.24,0.47,0.18,0.81l-0.27,1.71c-0.06,0.34-0.2,0.62-0.44,0.82
	C404.16,785.74,403.86,785.84,403.51,785.84z M403.58,785.33c0.19,0,0.35-0.05,0.47-0.16c0.12-0.11,0.19-0.26,0.23-0.46l0.27-1.7
	c0.03-0.2,0.01-0.35-0.08-0.46c-0.08-0.11-0.22-0.16-0.41-0.16c-0.19,0-0.35,0.05-0.46,0.16c-0.12,0.1-0.19,0.26-0.22,0.46
	l-0.27,1.7c-0.03,0.2-0.01,0.35,0.08,0.46C403.26,785.28,403.4,785.33,403.58,785.33z M406.38,785.79l0.52-3.31h-1.02l0.08-0.52
	h2.62l-0.08,0.52h-1.03l-0.52,3.31H406.38z M409.52,785.79l0.61-3.83h2.32l-0.08,0.52h-1.76l-0.18,1.14h1.63l-0.08,0.52h-1.62
	l-0.26,1.64H409.52z M413.77,785.84c-0.36,0-0.62-0.1-0.8-0.3c-0.18-0.2-0.23-0.47-0.18-0.82l0.27-1.7c0.06-0.34,0.2-0.61,0.44-0.82
	c0.24-0.2,0.54-0.3,0.89-0.3c0.36,0,0.62,0.1,0.8,0.3c0.17,0.2,0.24,0.47,0.18,0.81l-0.27,1.71c-0.06,0.34-0.2,0.62-0.44,0.82
	C414.42,785.74,414.13,785.84,413.77,785.84z M413.85,785.33c0.19,0,0.35-0.05,0.47-0.16c0.12-0.11,0.19-0.26,0.23-0.46l0.27-1.7
	c0.03-0.2,0.01-0.35-0.08-0.46c-0.08-0.11-0.22-0.16-0.41-0.16c-0.19,0-0.35,0.05-0.46,0.16c-0.12,0.1-0.19,0.26-0.22,0.46
	l-0.27,1.7c-0.03,0.2-0.01,0.35,0.08,0.46C413.52,785.28,413.66,785.33,413.85,785.33z M415.8,785.79l0.61-3.83h1.2
	c0.24,0,0.44,0.05,0.6,0.14c0.16,0.09,0.28,0.22,0.36,0.39c0.07,0.17,0.09,0.37,0.05,0.59c-0.04,0.26-0.14,0.48-0.3,0.67
	c-0.16,0.19-0.37,0.32-0.6,0.39l0.54,1.64h-0.62l-0.48-1.57h-0.54l-0.25,1.57H415.8z M416.69,783.71h0.64
	c0.19,0,0.35-0.06,0.48-0.17c0.13-0.11,0.21-0.26,0.24-0.45c0.03-0.19,0-0.35-0.09-0.46c-0.09-0.11-0.24-0.17-0.43-0.17h-0.64
	L416.69,783.71z M420.91,785.84c-0.36,0-0.63-0.1-0.81-0.3c-0.18-0.2-0.24-0.47-0.19-0.82l0.27-1.7c0.06-0.35,0.21-0.62,0.45-0.82
	s0.55-0.3,0.91-0.3c0.36,0,0.63,0.1,0.81,0.3c0.18,0.2,0.24,0.47,0.19,0.82h-0.57c0.03-0.2,0-0.35-0.09-0.46
	c-0.09-0.11-0.23-0.16-0.42-0.16c-0.19,0-0.35,0.05-0.48,0.16c-0.12,0.1-0.2,0.26-0.23,0.45l-0.27,1.71c-0.03,0.2,0,0.35,0.09,0.46
	c0.09,0.11,0.23,0.16,0.42,0.16c0.19,0,0.35-0.05,0.47-0.16c0.12-0.11,0.2-0.26,0.23-0.46h0.57c-0.03,0.23-0.11,0.43-0.24,0.59
	c-0.12,0.17-0.28,0.3-0.47,0.39C421.36,785.79,421.14,785.84,420.91,785.84z M424.03,785.84c-0.36,0-0.62-0.1-0.8-0.3
	c-0.18-0.2-0.23-0.47-0.18-0.82l0.27-1.7c0.06-0.34,0.2-0.61,0.44-0.82c0.24-0.2,0.54-0.3,0.89-0.3c0.36,0,0.62,0.1,0.8,0.3
	c0.17,0.2,0.24,0.47,0.18,0.81l-0.27,1.71c-0.06,0.34-0.2,0.62-0.44,0.82C424.69,785.74,424.39,785.84,424.03,785.84z
	 M424.11,785.33c0.19,0,0.35-0.05,0.47-0.16c0.12-0.11,0.19-0.26,0.23-0.46l0.27-1.7c0.03-0.2,0.01-0.35-0.08-0.46
	c-0.08-0.11-0.22-0.16-0.41-0.16c-0.19,0-0.35,0.05-0.46,0.16c-0.12,0.1-0.19,0.26-0.22,0.46l-0.27,1.7
	c-0.03,0.2-0.01,0.35,0.08,0.46C423.79,785.28,423.92,785.33,424.11,785.33z M425.97,785.79l0.61-3.83h0.69l0.18,1.23
	c0.02,0.12,0.04,0.23,0.05,0.33c0.01,0.1,0.02,0.18,0.03,0.24c0.02-0.06,0.05-0.14,0.09-0.24c0.04-0.11,0.09-0.22,0.15-0.34
	l0.57-1.22h0.71l-0.61,3.83h-0.54l0.2-1.29c0.02-0.17,0.06-0.35,0.1-0.55c0.04-0.2,0.09-0.4,0.14-0.61c0.05-0.2,0.1-0.4,0.14-0.59
	c0.05-0.19,0.09-0.35,0.13-0.49l-0.86,1.86h-0.55l-0.28-1.86c0,0.14-0.01,0.29-0.02,0.47c-0.01,0.18-0.02,0.37-0.04,0.57
	c-0.02,0.2-0.04,0.41-0.06,0.61c-0.02,0.2-0.05,0.4-0.08,0.57l-0.2,1.29H425.97z M429.11,785.79l0.61-3.83h0.69l0.18,1.23
	c0.02,0.12,0.04,0.23,0.05,0.33c0.01,0.1,0.02,0.18,0.03,0.24c0.02-0.06,0.05-0.14,0.09-0.24c0.04-0.11,0.09-0.22,0.15-0.34
	l0.57-1.22h0.71l-0.61,3.83h-0.54l0.2-1.29c0.02-0.17,0.06-0.35,0.1-0.55c0.04-0.2,0.09-0.4,0.14-0.61c0.05-0.2,0.1-0.4,0.14-0.59
	c0.05-0.19,0.09-0.35,0.13-0.49l-0.86,1.86h-0.55l-0.28-1.86c0,0.14-0.01,0.29-0.02,0.47c-0.01,0.18-0.02,0.37-0.04,0.57
	c-0.02,0.2-0.04,0.41-0.06,0.61c-0.02,0.2-0.05,0.4-0.08,0.57l-0.2,1.29H429.11z M432.41,785.79l0.61-3.83h2.25l-0.08,0.5h-1.7
	l-0.17,1.09h1.51l-0.08,0.5h-1.51l-0.19,1.24h1.69l-0.08,0.5H432.41z M435.51,785.79l0.61-3.83h1.2c0.24,0,0.44,0.05,0.6,0.14
	c0.16,0.09,0.28,0.22,0.36,0.39c0.07,0.17,0.09,0.37,0.05,0.59c-0.04,0.26-0.14,0.48-0.3,0.67c-0.16,0.19-0.37,0.32-0.6,0.39
	l0.54,1.64h-0.62l-0.48-1.57h-0.54l-0.25,1.57H435.51z M436.4,783.71h0.64c0.19,0,0.35-0.06,0.48-0.17
	c0.13-0.11,0.21-0.26,0.24-0.45c0.03-0.19,0-0.35-0.09-0.46c-0.09-0.11-0.24-0.17-0.43-0.17h-0.64L436.4,783.71z M439.8,785.84
	c-0.36,0-0.63-0.1-0.81-0.3c-0.18-0.2-0.24-0.47-0.19-0.82l0.27-1.7c0.06-0.35,0.21-0.62,0.45-0.82s0.55-0.3,0.91-0.3
	c0.36,0,0.63,0.1,0.81,0.3c0.18,0.2,0.24,0.47,0.19,0.82h-0.57c0.03-0.2,0-0.35-0.09-0.46c-0.09-0.11-0.23-0.16-0.42-0.16
	c-0.19,0-0.35,0.05-0.47,0.16c-0.12,0.1-0.2,0.26-0.23,0.45l-0.27,1.71c-0.03,0.2,0,0.35,0.09,0.46c0.09,0.11,0.23,0.16,0.42,0.16
	s0.35-0.05,0.47-0.16c0.12-0.11,0.2-0.26,0.23-0.46h0.57c-0.03,0.23-0.11,0.43-0.24,0.59c-0.12,0.17-0.28,0.3-0.47,0.39
	C440.25,785.79,440.04,785.84,439.8,785.84z M441.88,785.79l0.08-0.5h0.78l0.45-2.82h-0.78l0.08-0.5h2.13l-0.08,0.5h-0.78
	l-0.45,2.82h0.78l-0.08,0.5H441.88z M444.74,785.79l1.59-3.83h0.75l0.37,3.83h-0.56l-0.07-0.97h-1.09l-0.39,0.97H444.74z
	 M445.9,784.34h0.87l-0.09-1.1c-0.02-0.2-0.03-0.37-0.04-0.51c-0.01-0.14-0.01-0.24-0.01-0.3c-0.02,0.06-0.05,0.16-0.1,0.3
	c-0.05,0.14-0.11,0.31-0.19,0.5L445.9,784.34z M448.24,785.79l0.61-3.83h0.57l-0.52,3.31h1.67l-0.08,0.52H448.24z M453.19,785.84
	c-0.37,0-0.63-0.1-0.8-0.3c-0.17-0.2-0.22-0.48-0.17-0.82l0.44-2.76h0.57l-0.44,2.76c-0.03,0.2-0.01,0.35,0.07,0.46
	c0.08,0.11,0.21,0.17,0.41,0.17c0.19,0,0.35-0.06,0.46-0.17c0.12-0.11,0.19-0.27,0.22-0.46l0.44-2.76h0.57l-0.44,2.76
	c-0.06,0.35-0.2,0.62-0.43,0.82C453.86,785.74,453.56,785.84,453.19,785.84z M456.36,785.84c-0.39,0-0.67-0.1-0.87-0.29
	c-0.19-0.19-0.26-0.45-0.22-0.78h0.57c-0.03,0.17,0.01,0.31,0.12,0.41c0.11,0.1,0.27,0.15,0.48,0.15c0.2,0,0.37-0.05,0.5-0.15
	s0.21-0.23,0.24-0.4c0.02-0.15,0-0.28-0.06-0.39c-0.06-0.11-0.16-0.18-0.29-0.22l-0.46-0.14c-0.27-0.08-0.46-0.22-0.59-0.41
	c-0.13-0.19-0.17-0.42-0.13-0.68c0.04-0.21,0.11-0.39,0.23-0.55c0.12-0.16,0.27-0.28,0.46-0.37c0.19-0.09,0.4-0.13,0.64-0.13
	c0.35,0,0.62,0.1,0.8,0.29c0.18,0.19,0.25,0.44,0.2,0.76h-0.57c0.03-0.17,0-0.3-0.09-0.4c-0.09-0.1-0.23-0.14-0.42-0.14
	c-0.19,0-0.34,0.04-0.46,0.13c-0.12,0.09-0.19,0.21-0.21,0.38c-0.02,0.15-0.01,0.28,0.05,0.39c0.06,0.11,0.16,0.18,0.29,0.22
	l0.47,0.15c0.26,0.08,0.46,0.22,0.58,0.41c0.12,0.19,0.17,0.42,0.12,0.69c-0.04,0.22-0.12,0.41-0.24,0.57
	c-0.13,0.16-0.29,0.29-0.49,0.38C456.82,785.79,456.6,785.84,456.36,785.84z M458.42,785.79l0.61-3.83h2.25l-0.08,0.5h-1.7
	l-0.17,1.09h1.51l-0.08,0.5h-1.51l-0.19,1.24h1.69l-0.08,0.5H458.42z"/>
<g>
	<path style="fill:#5D2881;" d="M664.92,473.88l-80.83-21.49c13.83-26.6,22.95-54.06,25.75-81.42l55.07-14.64l-54.37,2.92
		c0.79-35.52-0.42-68.37-3.7-100.69l21.74-14.08l-22.33,8.64c-5.39-49.88-15.74-98.89-31.37-155.14l-0.98-3.51l-3.51-1.51
		C501.41,64.06,436.77,50,372.75,50S244.01,64.06,174.94,92.98l-3.56,1.49L170.42,98c-26.18,94.94-37.34,169.96-35.04,265.85
		c6.48,111.46,123.97,228.51,233.89,277.27l3.37,1.49l3.39-1.46c4.57-1.99,9.17-4.15,13.77-6.37L464.35,750l-49.52-128.44
		c13.49-7.72,26.88-16.36,39.98-25.75l104.7,85.09l-82.73-101.81c14.06-11.33,27.52-23.54,40.17-36.39l111.66,43.06l-94.69-61.27
		c15.51-17.62,29.37-36.22,40.9-55.41L664.92,473.88z"/>
	<path style="fill:#FFFFFF;" d="M561.34,102.88C429.65,52.69,315.72,52.89,184,102.91c-10.46,41.63-20.06,94.38-25.53,136.74
		c145.55,0,286.27-0.22,429.1-0.22C581.82,197.09,572.03,144.46,561.34,102.88z M175.64,170.97
		c136.07-27.83,258.39-28.59,394.43-0.14c5.44,26.18,7.66,38.8,11.08,64.44c-138.59,0-276,0.28-416.11,0.28
		C168.23,209.86,170.39,197.2,175.64,170.97z"/>
	<path style="fill:#C5C7C8;" d="M153.02,366.24c-1.74-47.89-1.12-70.98,4.46-118.7c145.44,0,286.16-0.22,431.09-0.22
		c5.86,47.81,6.06,70.59,4.77,118.62C587.32,470.38,479.61,579.03,372.72,626C267.43,578.64,158.8,469.87,153.02,366.24
		 M569.22,166.76c-4.18-19.69-6.56-40.88-11.87-61.66c-128.94-46.37-240.4-46.18-369.34,0.03c-5.19,20.84-7.52,42.03-11.53,61.75
		C312.26,137.53,433.43,136.77,569.22,166.76"/>
	<path style="fill:#F68B1F;" d="M435.76,367.69l155-100.3c-0.31-3-0.65-6.06-1.01-9.26l-175.34,67.64l63.63-78.33
		c-13.83,0-27.66,0.03-41.44,0.03l-55.44,45.06l17.39-45.03c-14.64,0.03-29.32,0.03-44.02,0.03l-15.29,23.62l1.29-23.62
		c-14.48,0.03-28.95,0.03-43.43,0.03l-4.29,16.24l-4.32-16.24c-14.42,0.03-28.92,0.03-43.43,0.03l1.29,23.54l-15.26-23.54
		c-14.59,0.03-29.26,0.03-43.96,0.03l17.34,44.89l-47.69-38.74c-2.19,19.13-3.51,34.34-4.15,49.21l18.54,22.81l-18.97-7.32
		c-0.2,14.14,0.08,29.09,0.76,47.89c4.24,75.94,63.77,154.64,136.68,209.94c2.58,1.96,5.22,3.93,7.86,5.81
		c14.5,10.55,29.51,20.17,44.64,28.62l-2.89-53.59l42.08,65.03c9.23-4.35,18.49-9.17,27.63-14.36l-27.8-71.99l62.03,50.39
		c8.3-5.78,16.44-11.9,24.38-18.24l-53.16-65.42l88.35,34.09c6.65-6.56,13.05-13.33,19.13-20.26l-86.13-55.72l122.71,6.62
		c3.96-6.4,7.57-12.91,10.94-19.44l-126.28-33.61l149.42-39.78c0.31-2.78,0.59-5.55,0.73-8.33c0.03-2.38,0.08-4.63,0.14-6.87
		L435.76,367.69z"/>
	<path style="fill:#FFFFFF;" d="M294.09,558.75c-79.28,0-143.78-64.5-143.78-143.81s64.5-143.81,143.78-143.81
		c79.31,0,143.81,64.53,143.81,143.81S373.4,558.75,294.09,558.75"/>
	<path style="fill:#5D2881;" d="M294.09,552.61c-75.89,0-137.67-61.75-137.67-137.67c0-75.94,61.75-137.69,137.67-137.69
		c75.94,0,137.69,61.75,137.69,137.69C431.78,490.86,370.03,552.61,294.09,552.61"/>
	<path style="fill:#C5C7C8;" d="M294.09,283.36c72.66,0,131.58,58.92,131.58,131.58s-58.92,131.58-131.58,131.58
		c-72.63,0-131.55-58.92-131.55-131.58S221.45,283.36,294.09,283.36"/>
	<path style="fill:#5D2881;" d="M309.63,374.2l29.18,47.05l-35.71,42.28l-51.26-20.9l4.04-55.24L309.63,374.2z M303.06,289.76
		c-8.58,2.86-16.3,8.58-16.3,8.58s11.53,8.73,19.78,18.21c8.3,9.51,17.56,21.24,17.56,21.24s15.63-3.65,28.56-4.21
		c12.96-0.53,24.63,0.11,24.63,0.11s-4.35-12.4-6.76-17.62c-1.29-2.83-3.48-6.59-4.24-7.97c-15.94-11.03-34.14-18.43-54.2-21.21
		C309.8,287.57,306.77,288.5,303.06,289.76 M175.41,367.58c0.31,6.59,4.57,27.69,4.57,27.69s10.16-9.48,20.31-15.43
		c10.46-6.17,11.92-6.31,23.85-12.99c0,0,2.02-14.34,4.85-26.43c2.81-12.12,7.74-26.88,7.74-26.88l-26.71,3.82
		c-15.21,13.27-27.19,30.07-34.76,49.15L175.41,367.58z M211.07,506.48c6.65,1.94,19.75,2.64,19.75,2.64s-1.99-10.66-3.25-21.01
		c-1.26-10.32-1.66-30.05-1.66-30.05s-10.58-4.46-20.87-11.39c-10.27-6.93-24.77-19.53-24.77-19.53l-7.07,27.63
		c6.28,18.32,15.29,34.23,28.5,47.67C203.33,503.12,207.68,505.53,211.07,506.48 M296.72,541.1c18.21-0.36,35.57-4.4,51.14-11.61
		c0,0,3.2-4.15,8.44-11.47c5.25-7.38,8.42-15.29,8.42-15.29s-14.7-1.57-26.99-4.38c-12.29-2.81-25.92-7.35-25.92-7.35
		s-11.19,12.62-21.38,20.68c-10.16,8.08-19.98,14.39-19.98,14.39s12.6,8.75,17.87,11.22C293.58,539.7,296.72,541.1,296.72,541.1
		 M418.03,395.61c-3.48-5.61-14.73-15.74-14.73-15.74s-5.25,9.45-10.86,18.21c-5.61,8.78-17.87,24.21-17.87,24.21
		s5.27,10.16,8.78,22.11c3.48,11.87,6.65,30.83,6.65,30.83l24.13-17.53c5.08-13.78,7.72-28.73,7.72-44.27
		c0-4.32-0.03-7.94-0.48-12.15C421.37,401.25,421.54,401.22,418.03,395.61"/>
	<path style="fill:#FFFFFF;" d="M204.22,199.03c1.46-12.51,13.94-26.01,29.49-28.28c14.64-2.13,21.91-3.09,36.44-4.74
		c-0.28,3.93-0.42,5.89-0.67,9.82c-13.21,1.29-19.86,2.05-33.19,3.7c-9.29,1.18-15.09,10.07-15.96,17.67
		c-0.81,7.66,3.11,16.08,12.79,15.49c8.19-0.48,12.32-0.73,20.45-1.18c0.31-5.3,0.48-7.97,0.84-13.27
		c-8.25,0.62-12.4,0.95-20.73,1.68c0.31-3.34,0.42-5.02,0.73-8.36c14.08-1.46,21.07-2.1,35.01-3.2
		c-0.73,12.62-1.04,18.88-1.63,31.48c-16.13,0.56-24.24,0.9-40.6,1.63C211.63,222.2,202.85,211.06,204.22,199.03 M292.35,199.36
		c0.53-13.83,0.84-20.79,1.51-34.59c-6,0.53-9.03,0.81-15.04,1.43c-0.84,13.77-1.23,20.65-1.91,34.37c-0.2,3.79,0.11,6.06,1.68,9.29
		c4.07,8.5,14.48,10.1,25.59,9.82c8.7-0.2,13.07-0.31,21.8-0.42c0.06-3.7,0.08-5.55,0.14-9.23c-7.72,0.17-11.56,0.25-19.25,0.5
		c-5.08,0.14-9.15-0.25-12.09-3.7C292.79,204.58,292.23,202.56,292.35,199.36 M367.34,219.65c17.39-0.03,33.47-6.23,32.49-30.36
		c-0.73-18.26-7.46-31.08-32.99-30.61c-22.92,0.42-32.77,13.44-33.02,30.41C333.45,211.4,345.62,219.7,367.34,219.65 M366.24,168.95
		c12.85-0.36,18.15,9.29,18.32,19.72c0.2,10.49-2.44,20.51-16.8,20.62c-17.11,0.11-18.97-10.27-18.97-20.37
		C348.82,179.59,353.51,169.29,366.24,168.95 M451.11,163.62c-17.14-1.46-25.7-2.02-42.87-2.78c0.79,22.95,1.12,34.54,1.77,57.6
		c5.78,0.06,8.73,0.11,14.5,0.2c-0.31-8.84-0.48-13.27-0.79-22.11c6.45,0.2,9.68,0.31,16.13,0.56c6.59,8.89,9.93,13.3,16.64,21.97
		c6.79,0.17,10.16,0.25,16.95,0.45c-7.27-8.92-10.83-13.47-17.98-22.7c8.25-0.9,14.14-6.62,13.89-14.17
		C469.01,173.25,460.56,164.44,451.11,163.62 M422.55,171.14c7.07,0.36,10.6,0.53,17.67,1.01c6.82,0.45,11.56,3.53,11.92,8.78
		c0.36,5.41-6.23,7.49-10.63,7.29c-7.32-0.36-10.97-0.53-18.26-0.79C422.97,180.9,422.8,177.65,422.55,171.14 M473.16,165.81
		c11.22,13.58,16.95,20.23,28.42,32.99c0.79,8.73,1.18,13.07,1.85,21.83c5.72,0.2,8.58,0.34,14.31,0.59
		c-0.76-8.5-1.18-12.77-2.05-21.27c9.4-10.77,13.94-15.85,22.64-25.19c-6.96-1.18-10.41-1.77-17.37-2.81
		c-5.22,7.04-7.86,10.72-13.35,18.29c-7.04-8.81-10.55-13.33-17.48-22.47C483.34,166.93,479.95,166.57,473.16,165.81 M423.03,401.42
		c0.14-0.67-0.48-1.71-3.59-6.68c-3.31-5.27-12.85-14.14-14.7-15.85c-5.53-18.1-14.25-33.61-25.98-46.04
		c-0.67-1.88-4.49-12.62-6.71-17.51c-1.29-2.81-3.37-6.42-4.26-7.97l-0.17-0.34l-0.42-0.34c-16.61-11.47-35.07-18.71-54.9-21.49
		l-0.39-0.08l-0.36,0.11l-2.41,0.79c-1.94,0.59-4.1,1.29-6.65,2.13c-7.74,2.58-14.64,7.29-16.33,8.53
		c-17.93,1.01-33.83,5.89-49.94,15.29l-26.43,3.76l-0.48,0.08l-0.42,0.31c-15.51,13.58-27.63,30.8-35.15,49.83l-0.14,0.31l0.03,0.36
		l0.06,0.62l0.06,0.42c0.25,6.37,4.04,25.28,4.52,27.69c-0.84,5.81-0.93,11.87-0.93,17.56c0,4.63,0.59,9.17,1.12,13.55l0.08,0.65
		l-6.99,27.3l-0.14,0.48l0.17,0.48c6.68,19.53,16.13,35.35,28.9,48.31l0.25,0.22l0.31,0.17l2.05,0.93c2.1,1.01,5.02,2.44,7.49,3.14
		c6.79,1.94,19.58,2.67,20.14,2.67h0.03c11.47,7.41,24.02,12.68,37.29,15.65l1.4,0.95c0.53,0.36,12.79,8.89,18.12,11.36
		c5.22,2.44,8.42,3.82,8.44,3.87l0.34,0.14h0.36c18.32-0.36,35.74-4.35,51.85-11.81l0.34-0.17l0.25-0.34
		c0.03-0.03,3.28-4.24,8.47-11.53c4.74-6.65,7.74-13.55,8.44-15.26c10.44-8.22,18.77-17.28,25.47-27.63L415,458.96l0.42-0.31
		l0.17-0.48c5.19-14.06,7.83-29.15,7.83-44.83C423.5,409.16,423.47,405.57,423.03,401.42 M401.51,379.67
		c-1.26,2.22-5.75,10.16-10.44,17.51c-4.91,7.66-15.07,20.56-17.34,23.45c-1.88,0.08-7.72,0.22-18.04-0.06
		c-9.74-0.25-14.25-0.7-15.85-0.9l-27.94-45.06h0.11c0.03-0.08,2.5-8.78,6.62-19.47c3.34-8.64,5.78-14.11,6.62-15.96
		c3.31-0.73,16.47-3.53,27.47-4.01c10.97-0.45,21.13-0.06,23.79,0.08C387.76,347.33,396.15,362.22,401.51,379.67 M257.47,388.74
		l51.4-12.62l27.91,44.97l-34.2,40.46l-48.98-19.98L257.47,388.74z M250.24,441.62l-24.46,14.59c-2.55-1.12-11.31-5.22-19.78-10.91
		c-9.09-6.14-21.66-16.83-24.18-18.99l-0.03-0.31c-0.53-4.29-1.09-8.7-1.09-13.13c0-5.5,0.08-11.28,0.87-16.8
		c2.05-1.82,10.89-9.68,19.58-14.81c5.64-3.31,8.64-4.85,12.12-6.65c2.78-1.43,5.95-3.03,10.91-5.84l3.51,2.41
		c1.94,1.35,4.15,2.83,6.34,4.4c6.62,4.85,17,10.97,20.09,12.77L250.24,441.62z M303.57,291.33c2.52-0.84,4.69-1.51,6.59-2.1
		l2.05-0.62c19.05,2.72,36.84,9.68,52.83,20.68c1.01,1.71,2.86,4.97,4.01,7.49c1.68,3.73,4.46,11.31,5.86,15.15
		c-4.12-0.14-12.91-0.39-22.28,0c-11.22,0.48-24.18,3.2-27.86,4.01c-2.22-2.81-9.96-12.48-16.92-20.51
		c-6.45-7.38-14.64-14.17-18.21-17.06C292.29,296.58,297.73,293.29,303.57,291.33 M238.12,314.7c15.54-9.01,30.86-13.72,48.14-14.67
		c2.27,1.74,11.9,9.45,19.02,17.59c6.93,7.97,14.64,17.62,16.83,20.4c-0.9,2.05-3.34,7.55-6.59,15.96
		c-3.31,8.56-5.55,15.85-6.37,18.63l-53.02,13.02c-2.58-1.51-13.44-7.91-20.12-12.74c-2.22-1.63-4.46-3.14-6.45-4.46l-3.56-2.5
		c0.53-3.65,2.33-15.21,4.63-25.14C233.09,330.27,237.22,317.56,238.12,314.7 M177.12,367.5l-0.06-0.65l-0.03-0.08
		c7.27-18.21,18.94-34.73,33.78-47.81l23.54-3.34c-1.51,4.77-4.85,15.37-6.96,24.41c-2.44,10.41-4.29,22.58-4.74,25.75
		c-4.99,2.78-8.14,4.4-10.89,5.84c-3.53,1.82-6.56,3.42-12.29,6.76c-7.52,4.4-14.87,10.55-18.43,13.66
		C179.87,386.13,177.32,372.49,177.12,367.5 M211.55,504.88c-2.22-0.62-4.97-1.94-6.99-2.89l-1.88-0.9
		c-12.18-12.46-21.27-27.63-27.75-46.37l6.28-24.52c4.35,3.7,14.93,12.51,22.92,17.9c8.64,5.81,17.28,9.82,20.12,11.11
		c0.11,4.24,0.59,20.12,1.68,29.15c0.93,7.52,2.27,15.35,2.89,18.97C224.9,507.02,216.37,506.29,211.55,504.88 M232.31,507.83
		c-0.53-2.89-2.05-11.53-3.06-19.89c-1.09-8.84-1.57-24.83-1.66-28.9l24.38-14.56l49.66,20.28c0.36,1.77,1.35,6,2.97,10.66
		c0,0,4.12,11.76,5.27,15.18c-2.5,2.78-11.98,12.96-20.51,19.78c-7.72,6.12-15.26,11.25-18.38,13.3
		C257.19,520.87,244.18,515.52,232.31,507.83 M354.96,517c-4.38,6.14-7.32,10.02-8.14,11.08c-15.43,7.1-32.18,10.91-49.8,11.31
		c-0.9-0.42-3.76-1.71-8.02-3.68c-3.82-1.8-11.81-7.13-15.6-9.68c3.45-2.3,10.69-7.27,18.04-13.07
		c8.81-6.99,18.21-17.17,20.87-20.06c3.42,1.09,14.76,4.71,25.05,7.04c9.43,2.16,20.34,3.59,24.94,4.12
		C361.05,506.85,358.5,512.04,354.96,517 M364.22,500.98c-3-0.36-15.54-1.85-26.12-4.24c-10.41-2.41-21.97-6.12-25-7.07l-5.33-15.37
		c-1.57-4.46-2.55-8.64-2.92-10.27l34.65-40.99c1.82,0.2,6.48,0.65,16.08,0.9c9.96,0.25,15.74,0.14,17.98,0.03
		c1.32,2.75,5.33,11.28,8.16,20.84c3.17,10.75,6.09,27.47,6.54,30.24C381.87,484.71,374.01,493.21,364.22,500.98 M412.67,456.6
		l-21.49,15.68c-1.01-5.61-3.53-19.13-6.26-28.39c-2.97-9.99-7.01-18.63-8.42-21.43c2.64-3.37,12.4-15.82,17.31-23.51
		c4.12-6.4,8.08-13.27,9.88-16.47c3.14,2.97,10.3,9.88,12.91,14c2.22,3.59,2.92,4.8,3.09,5.16c0.42,4.04,0.45,7.57,0.45,11.76
		C420.16,428.52,417.61,443.02,412.67,456.6"/>
	<path style="fill:#5D2881;" d="M501.55,253.57v4.21h-8.42c-3.39,0-6.54,0-8.14,2.97l-0.7,3.28h17.23v4.18h-17.11v10.44h-6.12v-15.4
		l0.56-3.11c1.96-6,8.39-6.56,14.62-6.56H501.55z M514.96,278.73h11v-4.46l-10.13-0.14c-3.39,0-4.63-3.93-4.85-7.38l-0.03-1.04
		c0-3.56,1.23-7.43,4.57-7.43h10.32v-4.77h-9.93c-1.91,0-3.09,0.22-4.8,0.93c-4.15,1.74-6.2,6.76-6.2,11.78
		c0,5.3,2.24,10.58,6.73,11.95L514.96,278.73z M264.32,89.89c12.62-2.27,17.45,7.07,16.83,14.87c-0.7,9.59-10.04,18.6-20.23,20.14
		c-9.51,1.46-14.28,2.22-23.76,3.93c-0.73,7.27-1.01,10.91-1.66,18.15c-5.5,0.87-8.22,1.32-13.72,2.27
		c2.05-20.56,3.14-30.92,5.61-51.71C242.18,94.05,249.56,92.5,264.32,89.89 M239.71,103.39c-0.67,6.54-0.98,9.82-1.63,16.36
		c7.21-1.37,10.83-2.02,18.01-3.2c5.05-0.84,9.57-5.33,9.88-10.13c0.31-4.8-4.12-7.27-8.89-6.37
		C250.12,101.28,246.64,101.96,239.71,103.39 M297.84,135.79c4.24,1.63,7.21,2.1,12.06,1.74c10.94-0.9,16.41-1.29,27.35-1.82
		c0.08-3.87,0.11-5.78,0.2-9.68c-9.82,0.56-14.7,0.9-24.49,1.71c-3.82,0.31-6.31-1.18-8.61-3.59c-2.13-2.3-3.03-4.63-2.86-8.11
		c14.45-1.49,21.71-2.1,36.19-2.92c0.08-3.93,0.11-5.89,0.2-9.76c-14.45,0.87-21.66,1.49-36.08,3.09c0.2-3.93,1.23-6.73,3.93-9.74
		c2.81-3.09,5.58-4.35,9.43-4.71c9.12-0.9,13.63-1.26,22.72-1.85c0.08-3.87,0.14-5.81,0.25-9.68c-9.76,0.62-14.64,1.04-24.46,2.05
		c-5.22,0.53-8.67,1.51-13.44,4.52c-8.58,5.33-13.49,16.19-14.08,26.12C285.56,123.14,289.29,132.51,297.84,135.79 M385.77,79.37
		c8.73,0.25,16.16,8.81,16.1,18.49c-0.03,7.74-5.72,13.69-13.44,14.73c6.31,9.23,9.54,13.89,16.05,23.2
		c-6.31-0.31-9.48-0.42-15.79-0.62c-6.06-8.84-8.95-13.24-14.81-21.94c-6-0.11-8.98,0.11-14.93,0.31
		c-0.03,8.67-0.06,13.05-0.08,21.77c-5.39,0.14-8.11,0.25-13.49,0.48c0.28-22.5,0.45-33.72,0.87-55.89
		C362.01,79.09,369.95,78.84,385.77,79.37 M358.95,88.69c-0.03,6.37-0.06,9.57-0.08,15.94c6.76-0.25,10.13-0.42,16.89-0.31
		c4.07,0.08,10.32-2.22,10.18-7.69c-0.11-5.22-4.35-8.14-10.66-8.25C368.74,88.32,365.46,88.49,358.95,88.69 M407.23,80.78
		c0.11,3.76,0.17,5.61,0.28,9.4c8,0.53,12.01,0.81,19.98,1.57c0.9,18.18,1.32,27.33,2.16,45.7c5.22,0.36,7.86,0.59,13.1,1.01
		c-0.98-18.24-1.51-27.33-2.55-45.45c8.14,0.9,12.18,1.4,20.31,2.55c-0.25-3.7-0.42-5.55-0.7-9.23
		C438.79,83.22,428.24,82.09,407.23,80.78 M466.71,87.17c1.8,21.66,2.64,32.52,4.24,54.2c5.39,0.62,8.08,0.93,13.47,1.63
		c-0.73-8.73-1.12-13.13-1.88-21.85c10.07,1.51,15.09,2.33,25.17,4.12c0.93,8.58,1.37,12.85,2.24,21.35
		c5.58,0.9,8.42,1.35,14.03,2.27c-2.36-20.68-3.62-31.06-6.31-51.93c-5.33-1.23-8-1.85-13.33-2.97c1.01,8.78,1.51,13.13,2.5,21.88
		c-10.07-1.91-15.09-2.81-25.17-4.38c-0.79-8.87-1.21-13.3-2.05-22.16C474.45,88.38,471.87,87.99,466.71,87.17"/>
</g>
</svg>
