<?xml version="1.0" encoding="utf-8"?>
<!-- Created by @FCLOGO 2024-10-12 GMT+8 15:33:23 . https://fclogo.top/ -->
<!-- FOR PERSONAL USE ONLY NOT FOR COMMERCIAL USE -->
<svg version="1.1" xmlns="http://www.w3.org/2000/svg" xmlns:xlink="http://www.w3.org/1999/xlink" x="0px" y="0px"
	 viewBox="0 0 800 800" style="enable-background:new 0 0 800 800;" xml:space="preserve">
<path style="fill:#CCCCCC;" d="M348.22,774.3c-0.79,0-1.38-0.22-1.77-0.65c-0.39-0.44-0.53-1.03-0.41-1.79l0.25-1.65
	c0.12-0.75,0.45-1.35,0.98-1.78c0.53-0.44,1.19-0.65,1.98-0.65c0.76,0,1.33,0.2,1.72,0.6c0.39,0.4,0.55,0.94,0.47,1.62h-1.24
	c0.03-0.36-0.06-0.64-0.26-0.84c-0.2-0.2-0.5-0.3-0.89-0.3c-0.42,0-0.76,0.12-1.03,0.35c-0.27,0.23-0.43,0.56-0.5,0.99l-0.26,1.66
	c-0.07,0.44-0.01,0.77,0.19,1c0.19,0.23,0.5,0.35,0.92,0.35c0.39,0,0.72-0.1,0.98-0.3c0.26-0.2,0.44-0.48,0.52-0.85h1.24
	c-0.14,0.69-0.47,1.23-0.99,1.63C349.61,774.1,348.97,774.3,348.22,774.3z M352.8,774.19l1-6.29h1.19l-0.19,1.19
	c0.34-0.87,0.97-1.3,1.91-1.3c0.67,0,1.17,0.21,1.49,0.62c0.32,0.42,0.43,0.99,0.31,1.71l-0.07,0.42h-1.27l0.06-0.32
	c0.07-0.45,0.01-0.8-0.17-1.04c-0.18-0.24-0.48-0.36-0.88-0.36c-0.4,0-0.74,0.12-1.01,0.37c-0.27,0.24-0.43,0.59-0.5,1.03
	l-0.63,3.97H352.8z M361.91,774.3c-0.77,0-1.35-0.22-1.73-0.67c-0.38-0.45-0.51-1.04-0.4-1.77l0.25-1.65
	c0.08-0.49,0.26-0.92,0.52-1.28c0.26-0.37,0.6-0.65,1.01-0.85c0.41-0.2,0.87-0.3,1.38-0.3c0.77,0,1.35,0.22,1.73,0.67
	c0.39,0.45,0.52,1.04,0.39,1.77l-0.17,1.12h-3.85l-0.09,0.53c-0.15,0.95,0.22,1.43,1.11,1.43c0.72,0,1.17-0.25,1.37-0.74h1.22
	c-0.17,0.53-0.5,0.96-1.01,1.28C363.16,774.14,362.58,774.3,361.91,774.3z M361.23,770.22l-0.05,0.29l2.65-0.01l0.05-0.29
	c0.07-0.47,0.01-0.82-0.17-1.07c-0.18-0.25-0.49-0.37-0.92-0.37c-0.44,0-0.8,0.13-1.06,0.38
	C361.48,769.39,361.31,769.75,361.23,770.22z M368.33,774.3c-0.63,0-1.1-0.21-1.41-0.64c-0.31-0.42-0.4-1-0.27-1.73l0.27-1.77
	c0.11-0.73,0.39-1.31,0.84-1.74c0.44-0.43,0.98-0.64,1.61-0.64c0.47,0,0.83,0.12,1.09,0.35c0.26,0.24,0.39,0.56,0.38,0.96h0.02
	l0.17-1.2h1.24l-1,6.29h-1.22l0.19-1.2h-0.02c-0.12,0.41-0.35,0.73-0.69,0.97C369.2,774.18,368.8,774.3,368.33,774.3z
	 M368.93,773.23c0.39,0,0.72-0.12,0.98-0.36c0.26-0.24,0.43-0.57,0.5-1.01l0.25-1.65c0.07-0.43,0.01-0.76-0.18-1
	c-0.19-0.24-0.47-0.36-0.86-0.36c-0.4,0-0.72,0.12-0.98,0.35c-0.26,0.24-0.42,0.57-0.49,1.01l-0.25,1.65
	c-0.07,0.44-0.01,0.78,0.17,1.01C368.24,773.11,368.53,773.23,368.93,773.23z M376.35,774.19c-0.57,0-0.99-0.16-1.26-0.47
	c-0.27-0.31-0.36-0.75-0.27-1.32l0.54-3.39h-1.74l0.17-1.12h1.74l0.27-1.72h1.24l-0.27,1.72h2.47l-0.18,1.12h-2.46l-0.54,3.39
	c-0.08,0.44,0.1,0.66,0.53,0.66h1.72l-0.17,1.12H376.35z M382.5,774.3c-0.77,0-1.35-0.22-1.73-0.67c-0.38-0.45-0.52-1.04-0.4-1.77
	l0.25-1.65c0.08-0.49,0.26-0.92,0.52-1.28c0.26-0.37,0.6-0.65,1.01-0.85c0.41-0.2,0.87-0.3,1.38-0.3c0.77,0,1.35,0.22,1.73,0.67
	c0.39,0.45,0.52,1.04,0.39,1.77l-0.17,1.12h-3.85l-0.09,0.53c-0.15,0.95,0.22,1.43,1.11,1.43c0.72,0,1.17-0.25,1.37-0.74h1.22
	c-0.17,0.53-0.5,0.96-1.01,1.28C383.76,774.14,383.18,774.3,382.5,774.3z M381.83,770.22l-0.05,0.29l2.65-0.01l0.05-0.29
	c0.07-0.47,0.01-0.82-0.17-1.07c-0.18-0.25-0.49-0.37-0.92-0.37c-0.44,0-0.8,0.13-1.06,0.38
	C382.08,769.39,381.91,769.75,381.83,770.22z M388.92,774.3c-0.63,0-1.1-0.21-1.4-0.64c-0.3-0.42-0.39-1-0.28-1.73l0.27-1.77
	c0.11-0.73,0.39-1.31,0.84-1.74c0.44-0.43,0.98-0.64,1.61-0.64c0.47,0,0.83,0.12,1.09,0.35c0.26,0.24,0.39,0.56,0.38,0.96h0.02
	l0.21-1.47l0.3-1.8h1.24l-1.33,8.35h-1.22l0.19-1.2h-0.02c-0.12,0.41-0.35,0.73-0.69,0.97C389.8,774.18,389.4,774.3,388.92,774.3z
	 M389.53,773.23c0.39,0,0.72-0.12,0.98-0.36c0.26-0.24,0.43-0.57,0.5-1.01l0.25-1.65c0.08-0.43,0.02-0.76-0.17-1
	c-0.19-0.24-0.48-0.36-0.87-0.36c-0.4,0-0.72,0.12-0.98,0.35c-0.26,0.24-0.42,0.57-0.49,1.01l-0.25,1.65
	c-0.08,0.44-0.02,0.78,0.16,1.01C388.83,773.11,389.13,773.23,389.53,773.23z M401.02,774.3c-0.47,0-0.84-0.12-1.1-0.35
	c-0.26-0.23-0.39-0.56-0.38-0.97h-0.01l-0.19,1.2h-1.22l1.33-8.35h1.24l-0.29,1.8l-0.27,1.47h0.05c0.12-0.41,0.35-0.73,0.69-0.97
	c0.34-0.23,0.74-0.35,1.21-0.35c0.63,0,1.1,0.21,1.4,0.64c0.3,0.43,0.39,1.01,0.28,1.74l-0.27,1.77c-0.11,0.73-0.39,1.31-0.84,1.73
	C402.18,774.09,401.64,774.3,401.02,774.3z M400.77,773.23c0.4,0,0.72-0.12,0.98-0.35c0.26-0.23,0.42-0.57,0.5-1.01l0.25-1.65
	c0.07-0.43,0.01-0.77-0.17-1.01c-0.18-0.24-0.47-0.35-0.87-0.35c-0.39,0-0.72,0.12-0.98,0.36c-0.26,0.24-0.43,0.57-0.5,1l-0.25,1.65
	c-0.07,0.44-0.01,0.77,0.17,1.01C400.08,773.11,400.37,773.23,400.77,773.23z M405.47,776.25l0.17-1.06h1.93
	c0.64,0,1.01-0.3,1.1-0.9l0.1-0.67l0.21-1.19h-0.03c-0.12,0.42-0.35,0.74-0.68,0.97c-0.33,0.23-0.73,0.34-1.2,0.34
	c-0.63,0-1.09-0.2-1.4-0.6c-0.31-0.4-0.41-0.94-0.3-1.63l0.58-3.6h1.24l-0.56,3.48c-0.06,0.41,0,0.73,0.18,0.96
	c0.18,0.23,0.47,0.34,0.85,0.34c0.39,0,0.72-0.12,0.98-0.37c0.27-0.24,0.43-0.58,0.49-1.02l0.54-3.4h1.24l-1.01,6.41
	c-0.1,0.6-0.37,1.08-0.81,1.42c-0.44,0.35-1,0.52-1.67,0.52H405.47z M417.79,770.09h3.22l0.54-1.85h-5.47l-1.71,6.44h2.15l0.59-2.1
	h3.03l0.44-1.71h-3.03L417.79,770.09z M424.23,772.92c-0.59,0-1.02-0.39-1.02-1.12c0-0.88,0.63-1.76,1.61-1.76
	c0.49,0,0.88,0.24,1.02,0.78l1.95-0.83c-0.29-1.17-1.27-1.9-2.64-1.9c-2.78,0-4.15,2.15-4.15,3.9c0,1.76,1.27,2.83,3.07,2.83
	c1.37,0,2.34-0.59,2.98-1.42l-1.51-1.17C425.16,772.67,424.72,772.92,424.23,772.92z M430.91,768.23h-2.15l-1.76,6.44h5.12
	l0.49-1.85h-2.93L430.91,768.23z M439.75,771.01c0-1.66-1.32-2.93-3.22-2.93c-2.2,0-3.81,1.81-3.81,3.81c0,1.66,1.32,2.93,3.22,2.93
	C438.14,774.82,439.75,773.01,439.75,771.01z M434.92,771.7c0-0.83,0.59-1.71,1.51-1.71c0.78,0,1.17,0.54,1.17,1.22
	c0,0.83-0.59,1.71-1.51,1.71C435.31,772.92,434.92,772.38,434.92,771.7z M443.21,772.23h1.07l-0.2,0.68
	c-0.15,0.05-0.34,0.1-0.59,0.1c-0.68,0-1.27-0.39-1.27-1.22c0-1.02,0.73-1.9,1.95-1.9c0.59,0,1.12,0.24,1.51,0.59l1.37-1.37
	c-0.44-0.54-1.51-1.07-2.73-1.07c-2.59,0-4.29,1.76-4.29,3.86c0,2.05,1.61,2.88,3.22,2.88c0.93,0,1.85-0.29,2.49-0.68l0.93-3.32
	h-3.12L443.21,772.23z M450.78,768.08c-2.2,0-3.81,1.81-3.81,3.81c0,1.66,1.32,2.93,3.22,2.93c2.2,0,3.81-1.81,3.81-3.81
	C454,769.35,452.68,768.08,450.78,768.08z M450.34,772.92c-0.78,0-1.17-0.54-1.17-1.22c0-0.83,0.59-1.71,1.51-1.71
	c0.78,0,1.17,0.54,1.17,1.22C451.85,772.04,451.27,772.92,450.34,772.92z M437.94,767.5c-0.05,0.29,0.1,0.49,0.44,0.49
	s0.54-0.2,0.63-0.49c0.05-0.24-0.1-0.49-0.44-0.49C438.24,767.01,437.99,767.25,437.94,767.5z M432.13,765.5
	c-0.44,0-0.73,0.24-0.78,0.59c-0.05,0.34,0.1,0.59,0.54,0.59s0.73-0.24,0.78-0.59C432.77,765.74,432.57,765.5,432.13,765.5z
	 M433.01,767.3c-0.1,0.54,0.15,0.88,0.83,0.88c0.63,0,1.07-0.39,1.17-0.88s-0.15-0.88-0.83-0.88
	C433.5,766.43,433.11,766.82,433.01,767.3z M439.6,777.55l-2.44-1.81h-1.51l4.25,3.17l1.61-3.17h-0.98L439.6,777.55z M425.84,767.16
	l-2-1.46l23.13-2.78l-2.15,4.25h1.02l2.68-5.32l-26.99,3.22l2.78,2.1H425.84z M338.72,785.79l0.61-3.83h2.32l-0.08,0.52h-1.76
	l-0.18,1.14h1.63l-0.08,0.52h-1.62l-0.26,1.64H338.72z M342.97,785.84c-0.36,0-0.62-0.1-0.8-0.3c-0.17-0.2-0.23-0.47-0.18-0.82
	l0.27-1.7c0.06-0.34,0.2-0.61,0.44-0.82c0.24-0.2,0.54-0.3,0.89-0.3c0.36,0,0.62,0.1,0.8,0.3c0.17,0.2,0.24,0.47,0.18,0.81
	l-0.27,1.71c-0.06,0.34-0.2,0.62-0.44,0.82C343.63,785.74,343.33,785.84,342.97,785.84z M343.05,785.33c0.19,0,0.35-0.05,0.47-0.16
	c0.12-0.11,0.19-0.26,0.23-0.46l0.27-1.7c0.03-0.2,0.01-0.35-0.08-0.46c-0.08-0.11-0.22-0.16-0.41-0.16s-0.35,0.05-0.46,0.16
	c-0.12,0.1-0.19,0.26-0.22,0.46l-0.27,1.7c-0.03,0.2-0.01,0.35,0.08,0.46C342.72,785.28,342.86,785.33,343.05,785.33z M345,785.79
	l0.61-3.83h1.2c0.24,0,0.44,0.05,0.6,0.14c0.16,0.09,0.28,0.22,0.36,0.39c0.07,0.17,0.09,0.37,0.05,0.59
	c-0.04,0.26-0.14,0.48-0.3,0.67c-0.16,0.19-0.37,0.32-0.6,0.39l0.54,1.64h-0.62l-0.48-1.57h-0.54l-0.25,1.57H345z M345.89,783.71
	h0.64c0.19,0,0.35-0.06,0.48-0.17c0.13-0.11,0.21-0.26,0.24-0.45c0.03-0.19,0-0.35-0.09-0.46c-0.09-0.11-0.24-0.17-0.43-0.17h-0.64
	L345.89,783.71z M349.54,785.79l0.61-3.83h1.25c0.37,0,0.65,0.1,0.84,0.31c0.19,0.21,0.26,0.49,0.2,0.84
	c-0.04,0.23-0.12,0.44-0.25,0.61s-0.29,0.31-0.49,0.4c-0.2,0.09-0.42,0.14-0.66,0.14h-0.69l-0.24,1.52H349.54z M350.43,783.75h0.69
	c0.19,0,0.36-0.06,0.49-0.18c0.14-0.12,0.22-0.27,0.25-0.47c0.03-0.2,0-0.35-0.1-0.47c-0.1-0.12-0.25-0.18-0.44-0.18h-0.69
	L350.43,783.75z M352.75,785.79l0.61-3.83h2.25l-0.08,0.5h-1.7l-0.17,1.09h1.51l-0.08,0.5h-1.51l-0.19,1.24h1.69l-0.08,0.5H352.75z
	 M355.84,785.79l0.61-3.83h1.2c0.24,0,0.44,0.05,0.6,0.14c0.16,0.09,0.28,0.22,0.36,0.39c0.07,0.17,0.09,0.37,0.05,0.59
	c-0.04,0.26-0.14,0.48-0.3,0.67c-0.16,0.19-0.37,0.32-0.6,0.39l0.54,1.64h-0.62l-0.48-1.57h-0.54l-0.25,1.57H355.84z M356.74,783.71
	h0.64c0.19,0,0.35-0.06,0.48-0.17c0.13-0.11,0.21-0.26,0.24-0.45c0.03-0.19,0-0.35-0.09-0.46c-0.09-0.11-0.24-0.17-0.43-0.17h-0.64
	L356.74,783.71z M360.13,785.84c-0.39,0-0.67-0.1-0.87-0.29c-0.19-0.19-0.26-0.45-0.22-0.78h0.57c-0.03,0.17,0.01,0.31,0.12,0.41
	c0.11,0.1,0.27,0.15,0.48,0.15c0.2,0,0.37-0.05,0.5-0.15c0.13-0.1,0.21-0.23,0.24-0.4c0.02-0.15,0-0.28-0.06-0.39
	c-0.06-0.11-0.16-0.18-0.29-0.22l-0.46-0.14c-0.27-0.08-0.46-0.22-0.59-0.41c-0.13-0.19-0.17-0.42-0.13-0.68
	c0.04-0.21,0.11-0.39,0.23-0.55c0.12-0.16,0.27-0.28,0.46-0.37c0.19-0.09,0.4-0.13,0.64-0.13c0.35,0,0.62,0.1,0.8,0.29
	c0.18,0.19,0.25,0.44,0.2,0.76h-0.57c0.03-0.17,0-0.3-0.09-0.4c-0.09-0.1-0.23-0.14-0.42-0.14c-0.19,0-0.34,0.04-0.46,0.13
	c-0.12,0.09-0.19,0.21-0.21,0.38c-0.02,0.15-0.01,0.28,0.05,0.39c0.06,0.11,0.16,0.18,0.29,0.22l0.47,0.15
	c0.26,0.08,0.46,0.22,0.58,0.41c0.12,0.19,0.17,0.42,0.12,0.69c-0.04,0.22-0.12,0.41-0.24,0.57c-0.13,0.16-0.29,0.29-0.49,0.38
	C360.6,785.79,360.38,785.84,360.13,785.84z M363.27,785.84c-0.36,0-0.62-0.1-0.8-0.3c-0.17-0.2-0.23-0.47-0.18-0.82l0.27-1.7
	c0.06-0.34,0.2-0.61,0.44-0.82c0.24-0.2,0.54-0.3,0.89-0.3c0.36,0,0.62,0.1,0.8,0.3c0.17,0.2,0.24,0.47,0.18,0.81l-0.27,1.71
	c-0.06,0.34-0.2,0.62-0.44,0.82C363.92,785.74,363.62,785.84,363.27,785.84z M363.34,785.33c0.19,0,0.35-0.05,0.47-0.16
	c0.12-0.11,0.19-0.26,0.23-0.46l0.27-1.7c0.03-0.2,0.01-0.35-0.08-0.46c-0.08-0.11-0.22-0.16-0.41-0.16c-0.19,0-0.35,0.05-0.46,0.16
	c-0.12,0.1-0.19,0.26-0.22,0.46l-0.27,1.7c-0.03,0.2-0.01,0.35,0.08,0.46C363.02,785.28,363.15,785.33,363.34,785.33z
	 M365.28,785.79l0.61-3.83h0.71l0.62,3.19c0.01-0.1,0.02-0.22,0.03-0.36c0.01-0.14,0.03-0.29,0.04-0.44
	c0.02-0.15,0.04-0.29,0.06-0.41l0.31-1.98h0.52l-0.61,3.83h-0.71l-0.61-3.19c-0.01,0.09-0.02,0.21-0.03,0.34s-0.03,0.28-0.04,0.42
	c-0.02,0.15-0.04,0.28-0.06,0.41l-0.31,2.01H365.28z M368.23,785.79l1.59-3.83h0.75l0.37,3.83h-0.56l-0.07-0.97h-1.09l-0.39,0.97
	H368.23z M369.39,784.34h0.87l-0.09-1.1c-0.02-0.2-0.03-0.37-0.04-0.51c-0.01-0.14-0.01-0.24-0.01-0.3c-0.02,0.06-0.05,0.16-0.1,0.3
	c-0.05,0.14-0.11,0.31-0.19,0.5L369.39,784.34z M371.72,785.79l0.61-3.83h0.57l-0.52,3.31h1.67l-0.08,0.52H371.72z M376.68,785.84
	c-0.37,0-0.63-0.1-0.8-0.3c-0.17-0.2-0.22-0.48-0.17-0.82l0.44-2.76h0.57l-0.44,2.76c-0.03,0.2-0.01,0.35,0.07,0.46
	c0.08,0.11,0.21,0.17,0.41,0.17c0.19,0,0.35-0.06,0.46-0.17c0.12-0.11,0.19-0.27,0.22-0.46l0.44-2.76h0.57l-0.44,2.76
	c-0.06,0.35-0.2,0.62-0.43,0.82C377.35,785.74,377.05,785.84,376.68,785.84z M379.84,785.84c-0.39,0-0.67-0.1-0.87-0.29
	c-0.19-0.19-0.26-0.45-0.22-0.78h0.57c-0.03,0.17,0.01,0.31,0.12,0.41c0.11,0.1,0.27,0.15,0.48,0.15c0.2,0,0.37-0.05,0.5-0.15
	c0.13-0.1,0.21-0.23,0.24-0.4c0.02-0.15,0-0.28-0.06-0.39c-0.06-0.11-0.16-0.18-0.29-0.22l-0.46-0.14
	c-0.27-0.08-0.46-0.22-0.59-0.41c-0.13-0.19-0.17-0.42-0.13-0.68c0.04-0.21,0.11-0.39,0.23-0.55s0.27-0.28,0.46-0.37
	c0.19-0.09,0.4-0.13,0.64-0.13c0.35,0,0.62,0.1,0.8,0.29c0.18,0.19,0.25,0.44,0.2,0.76h-0.57c0.03-0.17,0-0.3-0.09-0.4
	c-0.09-0.1-0.23-0.14-0.42-0.14c-0.19,0-0.34,0.04-0.46,0.13c-0.12,0.09-0.19,0.21-0.21,0.38c-0.02,0.15-0.01,0.28,0.05,0.39
	c0.06,0.11,0.16,0.18,0.29,0.22l0.47,0.15c0.26,0.08,0.46,0.22,0.58,0.41c0.12,0.19,0.17,0.42,0.12,0.69
	c-0.04,0.22-0.12,0.41-0.24,0.57c-0.13,0.16-0.29,0.29-0.49,0.38C380.31,785.79,380.09,785.84,379.84,785.84z M381.91,785.79
	l0.61-3.83h2.25l-0.08,0.5h-1.7l-0.17,1.09h1.51l-0.08,0.5h-1.51l-0.19,1.24h1.69l-0.08,0.5H381.91z M386.94,785.84
	c-0.36,0-0.62-0.1-0.8-0.3c-0.17-0.2-0.23-0.47-0.18-0.82l0.27-1.7c0.06-0.34,0.2-0.61,0.44-0.82c0.24-0.2,0.54-0.3,0.89-0.3
	c0.36,0,0.62,0.1,0.8,0.3c0.17,0.2,0.24,0.47,0.18,0.81l-0.27,1.71c-0.06,0.34-0.2,0.62-0.44,0.82
	C387.6,785.74,387.3,785.84,386.94,785.84z M387.02,785.33c0.19,0,0.35-0.05,0.47-0.16c0.12-0.11,0.19-0.26,0.23-0.46l0.27-1.7
	c0.03-0.2,0.01-0.35-0.08-0.46c-0.08-0.11-0.22-0.16-0.41-0.16c-0.19,0-0.35,0.05-0.46,0.16c-0.12,0.1-0.19,0.26-0.22,0.46
	l-0.27,1.7c-0.03,0.2-0.01,0.35,0.08,0.46C386.7,785.28,386.83,785.33,387.02,785.33z M388.95,785.79l0.61-3.83h0.71l0.62,3.19
	c0.01-0.1,0.02-0.22,0.03-0.36c0.01-0.14,0.03-0.29,0.04-0.44c0.02-0.15,0.04-0.29,0.06-0.41l0.31-1.98h0.52l-0.61,3.83h-0.71
	l-0.61-3.19c-0.01,0.09-0.02,0.21-0.03,0.34c-0.01,0.13-0.03,0.28-0.04,0.42c-0.02,0.15-0.04,0.28-0.06,0.41l-0.31,2.01H388.95z
	 M392.25,785.79l0.61-3.83h0.57l-0.52,3.31h1.67l-0.08,0.52H392.25z M396.12,785.79l0.22-1.41l-0.75-2.42h0.58l0.45,1.45
	c0.03,0.09,0.05,0.18,0.07,0.27c0.02,0.08,0.03,0.15,0.03,0.19c0.02-0.04,0.05-0.1,0.09-0.19c0.04-0.08,0.09-0.17,0.14-0.27
	l0.9-1.45h0.6l-1.53,2.42l-0.22,1.41H396.12z M399.22,785.79l0.61-3.83h0.71l0.62,3.19c0.01-0.1,0.02-0.22,0.03-0.36
	c0.01-0.14,0.03-0.29,0.04-0.44c0.02-0.15,0.04-0.29,0.06-0.41l0.31-1.98h0.52l-0.61,3.83h-0.71l-0.61-3.19
	c-0.01,0.09-0.02,0.21-0.03,0.34c-0.01,0.13-0.03,0.28-0.04,0.42c-0.02,0.15-0.04,0.28-0.06,0.41l-0.31,2.01H399.22z M403.51,785.84
	c-0.36,0-0.62-0.1-0.8-0.3c-0.18-0.2-0.23-0.47-0.18-0.82l0.27-1.7c0.06-0.34,0.2-0.61,0.44-0.82c0.24-0.2,0.54-0.3,0.89-0.3
	c0.36,0,0.62,0.1,0.8,0.3c0.17,0.2,0.24,0.47,0.18,0.81l-0.27,1.71c-0.06,0.34-0.2,0.62-0.44,0.82
	C404.16,785.74,403.86,785.84,403.51,785.84z M403.58,785.33c0.19,0,0.35-0.05,0.47-0.16c0.12-0.11,0.19-0.26,0.23-0.46l0.27-1.7
	c0.03-0.2,0.01-0.35-0.08-0.46c-0.08-0.11-0.22-0.16-0.41-0.16c-0.19,0-0.35,0.05-0.46,0.16c-0.12,0.1-0.19,0.26-0.22,0.46
	l-0.27,1.7c-0.03,0.2-0.01,0.35,0.08,0.46C403.26,785.28,403.4,785.33,403.58,785.33z M406.38,785.79l0.52-3.31h-1.02l0.08-0.52
	h2.62l-0.08,0.52h-1.03l-0.52,3.31H406.38z M409.52,785.79l0.61-3.83h2.32l-0.08,0.52h-1.76l-0.18,1.14h1.63l-0.08,0.52h-1.62
	l-0.26,1.64H409.52z M413.77,785.84c-0.36,0-0.62-0.1-0.8-0.3c-0.18-0.2-0.23-0.47-0.18-0.82l0.27-1.7c0.06-0.34,0.2-0.61,0.44-0.82
	c0.24-0.2,0.54-0.3,0.89-0.3c0.36,0,0.62,0.1,0.8,0.3c0.17,0.2,0.24,0.47,0.18,0.81l-0.27,1.71c-0.06,0.34-0.2,0.62-0.44,0.82
	C414.42,785.74,414.13,785.84,413.77,785.84z M413.85,785.33c0.19,0,0.35-0.05,0.47-0.16c0.12-0.11,0.19-0.26,0.23-0.46l0.27-1.7
	c0.03-0.2,0.01-0.35-0.08-0.46c-0.08-0.11-0.22-0.16-0.41-0.16c-0.19,0-0.35,0.05-0.46,0.16c-0.12,0.1-0.19,0.26-0.22,0.46
	l-0.27,1.7c-0.03,0.2-0.01,0.35,0.08,0.46C413.52,785.28,413.66,785.33,413.85,785.33z M415.8,785.79l0.61-3.83h1.2
	c0.24,0,0.44,0.05,0.6,0.14c0.16,0.09,0.28,0.22,0.36,0.39c0.07,0.17,0.09,0.37,0.05,0.59c-0.04,0.26-0.14,0.48-0.3,0.67
	c-0.16,0.19-0.37,0.32-0.6,0.39l0.54,1.64h-0.62l-0.48-1.57h-0.54l-0.25,1.57H415.8z M416.69,783.71h0.64
	c0.19,0,0.35-0.06,0.48-0.17c0.13-0.11,0.21-0.26,0.24-0.45c0.03-0.19,0-0.35-0.09-0.46c-0.09-0.11-0.24-0.17-0.43-0.17h-0.64
	L416.69,783.71z M420.91,785.84c-0.36,0-0.63-0.1-0.81-0.3c-0.18-0.2-0.24-0.47-0.19-0.82l0.27-1.7c0.06-0.35,0.21-0.62,0.45-0.82
	s0.55-0.3,0.91-0.3c0.36,0,0.63,0.1,0.81,0.3c0.18,0.2,0.24,0.47,0.19,0.82h-0.57c0.03-0.2,0-0.35-0.09-0.46
	c-0.09-0.11-0.23-0.16-0.42-0.16c-0.19,0-0.35,0.05-0.48,0.16c-0.12,0.1-0.2,0.26-0.23,0.45l-0.27,1.71c-0.03,0.2,0,0.35,0.09,0.46
	c0.09,0.11,0.23,0.16,0.42,0.16c0.19,0,0.35-0.05,0.47-0.16c0.12-0.11,0.2-0.26,0.23-0.46h0.57c-0.03,0.23-0.11,0.43-0.24,0.59
	c-0.12,0.17-0.28,0.3-0.47,0.39C421.36,785.79,421.14,785.84,420.91,785.84z M424.03,785.84c-0.36,0-0.62-0.1-0.8-0.3
	c-0.18-0.2-0.23-0.47-0.18-0.82l0.27-1.7c0.06-0.34,0.2-0.61,0.44-0.82c0.24-0.2,0.54-0.3,0.89-0.3c0.36,0,0.62,0.1,0.8,0.3
	c0.17,0.2,0.24,0.47,0.18,0.81l-0.27,1.71c-0.06,0.34-0.2,0.62-0.44,0.82C424.69,785.74,424.39,785.84,424.03,785.84z
	 M424.11,785.33c0.19,0,0.35-0.05,0.47-0.16c0.12-0.11,0.19-0.26,0.23-0.46l0.27-1.7c0.03-0.2,0.01-0.35-0.08-0.46
	c-0.08-0.11-0.22-0.16-0.41-0.16c-0.19,0-0.35,0.05-0.46,0.16c-0.12,0.1-0.19,0.26-0.22,0.46l-0.27,1.7
	c-0.03,0.2-0.01,0.35,0.08,0.46C423.79,785.28,423.92,785.33,424.11,785.33z M425.97,785.79l0.61-3.83h0.69l0.18,1.23
	c0.02,0.12,0.04,0.23,0.05,0.33c0.01,0.1,0.02,0.18,0.03,0.24c0.02-0.06,0.05-0.14,0.09-0.24c0.04-0.11,0.09-0.22,0.15-0.34
	l0.57-1.22h0.71l-0.61,3.83h-0.54l0.2-1.29c0.02-0.17,0.06-0.35,0.1-0.55c0.04-0.2,0.09-0.4,0.14-0.61c0.05-0.2,0.1-0.4,0.14-0.59
	c0.05-0.19,0.09-0.35,0.13-0.49l-0.86,1.86h-0.55l-0.28-1.86c0,0.14-0.01,0.29-0.02,0.47c-0.01,0.18-0.02,0.37-0.04,0.57
	c-0.02,0.2-0.04,0.41-0.06,0.61c-0.02,0.2-0.05,0.4-0.08,0.57l-0.2,1.29H425.97z M429.11,785.79l0.61-3.83h0.69l0.18,1.23
	c0.02,0.12,0.04,0.23,0.05,0.33c0.01,0.1,0.02,0.18,0.03,0.24c0.02-0.06,0.05-0.14,0.09-0.24c0.04-0.11,0.09-0.22,0.15-0.34
	l0.57-1.22h0.71l-0.61,3.83h-0.54l0.2-1.29c0.02-0.17,0.06-0.35,0.1-0.55c0.04-0.2,0.09-0.4,0.14-0.61c0.05-0.2,0.1-0.4,0.14-0.59
	c0.05-0.19,0.09-0.35,0.13-0.49l-0.86,1.86h-0.55l-0.28-1.86c0,0.14-0.01,0.29-0.02,0.47c-0.01,0.18-0.02,0.37-0.04,0.57
	c-0.02,0.2-0.04,0.41-0.06,0.61c-0.02,0.2-0.05,0.4-0.08,0.57l-0.2,1.29H429.11z M432.41,785.79l0.61-3.83h2.25l-0.08,0.5h-1.7
	l-0.17,1.09h1.51l-0.08,0.5h-1.51l-0.19,1.24h1.69l-0.08,0.5H432.41z M435.51,785.79l0.61-3.83h1.2c0.24,0,0.44,0.05,0.6,0.14
	c0.16,0.09,0.28,0.22,0.36,0.39c0.07,0.17,0.09,0.37,0.05,0.59c-0.04,0.26-0.14,0.48-0.3,0.67c-0.16,0.19-0.37,0.32-0.6,0.39
	l0.54,1.64h-0.62l-0.48-1.57h-0.54l-0.25,1.57H435.51z M436.4,783.71h0.64c0.19,0,0.35-0.06,0.48-0.17
	c0.13-0.11,0.21-0.26,0.24-0.45c0.03-0.19,0-0.35-0.09-0.46c-0.09-0.11-0.24-0.17-0.43-0.17h-0.64L436.4,783.71z M439.8,785.84
	c-0.36,0-0.63-0.1-0.81-0.3c-0.18-0.2-0.24-0.47-0.19-0.82l0.27-1.7c0.06-0.35,0.21-0.62,0.45-0.82s0.55-0.3,0.91-0.3
	c0.36,0,0.63,0.1,0.81,0.3c0.18,0.2,0.24,0.47,0.19,0.82h-0.57c0.03-0.2,0-0.35-0.09-0.46c-0.09-0.11-0.23-0.16-0.42-0.16
	c-0.19,0-0.35,0.05-0.47,0.16c-0.12,0.1-0.2,0.26-0.23,0.45l-0.27,1.71c-0.03,0.2,0,0.35,0.09,0.46c0.09,0.11,0.23,0.16,0.42,0.16
	s0.35-0.05,0.47-0.16c0.12-0.11,0.2-0.26,0.23-0.46h0.57c-0.03,0.23-0.11,0.43-0.24,0.59c-0.12,0.17-0.28,0.3-0.47,0.39
	C440.25,785.79,440.04,785.84,439.8,785.84z M441.88,785.79l0.08-0.5h0.78l0.45-2.82h-0.78l0.08-0.5h2.13l-0.08,0.5h-0.78
	l-0.45,2.82h0.78l-0.08,0.5H441.88z M444.74,785.79l1.59-3.83h0.75l0.37,3.83h-0.56l-0.07-0.97h-1.09l-0.39,0.97H444.74z
	 M445.9,784.34h0.87l-0.09-1.1c-0.02-0.2-0.03-0.37-0.04-0.51c-0.01-0.14-0.01-0.24-0.01-0.3c-0.02,0.06-0.05,0.16-0.1,0.3
	c-0.05,0.14-0.11,0.31-0.19,0.5L445.9,784.34z M448.24,785.79l0.61-3.83h0.57l-0.52,3.31h1.67l-0.08,0.52H448.24z M453.19,785.84
	c-0.37,0-0.63-0.1-0.8-0.3c-0.17-0.2-0.22-0.48-0.17-0.82l0.44-2.76h0.57l-0.44,2.76c-0.03,0.2-0.01,0.35,0.07,0.46
	c0.08,0.11,0.21,0.17,0.41,0.17c0.19,0,0.35-0.06,0.46-0.17c0.12-0.11,0.19-0.27,0.22-0.46l0.44-2.76h0.57l-0.44,2.76
	c-0.06,0.35-0.2,0.62-0.43,0.82C453.86,785.74,453.56,785.84,453.19,785.84z M456.36,785.84c-0.39,0-0.67-0.1-0.87-0.29
	c-0.19-0.19-0.26-0.45-0.22-0.78h0.57c-0.03,0.17,0.01,0.31,0.12,0.41c0.11,0.1,0.27,0.15,0.48,0.15c0.2,0,0.37-0.05,0.5-0.15
	s0.21-0.23,0.24-0.4c0.02-0.15,0-0.28-0.06-0.39c-0.06-0.11-0.16-0.18-0.29-0.22l-0.46-0.14c-0.27-0.08-0.46-0.22-0.59-0.41
	c-0.13-0.19-0.17-0.42-0.13-0.68c0.04-0.21,0.11-0.39,0.23-0.55c0.12-0.16,0.27-0.28,0.46-0.37c0.19-0.09,0.4-0.13,0.64-0.13
	c0.35,0,0.62,0.1,0.8,0.29c0.18,0.19,0.25,0.44,0.2,0.76h-0.57c0.03-0.17,0-0.3-0.09-0.4c-0.09-0.1-0.23-0.14-0.42-0.14
	c-0.19,0-0.34,0.04-0.46,0.13c-0.12,0.09-0.19,0.21-0.21,0.38c-0.02,0.15-0.01,0.28,0.05,0.39c0.06,0.11,0.16,0.18,0.29,0.22
	l0.47,0.15c0.26,0.08,0.46,0.22,0.58,0.41c0.12,0.19,0.17,0.42,0.12,0.69c-0.04,0.22-0.12,0.41-0.24,0.57
	c-0.13,0.16-0.29,0.29-0.49,0.38C456.82,785.79,456.6,785.84,456.36,785.84z M458.42,785.79l0.61-3.83h2.25l-0.08,0.5h-1.7
	l-0.17,1.09h1.51l-0.08,0.5h-1.51l-0.19,1.24h1.69l-0.08,0.5H458.42z"/>
<path style="fill:#005CA9;" d="M521.85,331c-0.35-1.14-0.81-2.24-1.21-3.36h34.2l-1.23,3.36H521.85z M582.97,250.97l1.23-3.36H482
	c0,0.16,0.03,0.31,0.02,0.47l-0.17,2.89H582.97z M349.98,250.97h103.39l2.86-3.36H347.41L349.98,250.97z M303.05,290.79h-70.93
	l1.23,3.36h66.6C300.99,293.03,301.96,291.86,303.05,290.79z M317.75,247.62H216.29l1.23,3.36h100.46L317.75,247.62z M681.8,162.82
	c-1.07,1.93-2.02,4.25-2.96,6.4c-5.93,13.7-9.65,28.26-11.02,43.13c-0.49,5.37-0.76,10.75-0.76,16.08
	c0.08,6.42,0.46,12.81,1.04,19.19h-43.5l-1.86,3.36h45.66c1.53,13.38,3.76,26.67,6.68,39.81h-74.41l-1.86,3.36h77
	c0.66,3.06,1.37,6.1,2.06,9.15l15.37-17.19c-4.28-19.78-7.57-39.02-7.46-57.68c-0.4-21.79,4.94-43.31,15.5-62.38
	c2.02-3.58,1.52-8.06-1.25-11.11l-49.02-54.19l-1.14,3.43l-6.09,16.61l10.4,11.5L681.8,162.82z M521.12,489.43
	c-0.29,0.61-0.64,1.18-0.95,1.77h29.32l2.28-3.36h-25.8C524.51,488.71,522.87,489.3,521.12,489.43z M279.8,327.65h-34.16l1.23,3.36
	h31.72C278.95,329.86,279.4,328.77,279.8,327.65z M280.55,491.2c-0.31-0.59-0.66-1.16-0.95-1.77c-1.67-0.16-3.21-0.76-4.6-1.59
	h-26.24l2.28,3.36H280.55z M567.14,294.15l1.23-3.36H497.4c1.09,1.07,2.07,2.24,3.1,3.36H567.14z M167.04,109.39l18.29-20.2
	l16.35-17.91c14.81,6.99,30.07,12.97,45.68,17.91c49.47,15.48,101.05,23.19,152.89,22.84c51.85,0.35,103.45-7.35,152.94-22.84
	c15.61-4.94,30.87-10.92,45.68-17.91l16.35,17.91l18.25,20.18l5.39-10.13l4.09-7.42l-35.07-38.77c-2.79-3.09-7.3-3.94-11.02-2.06
	c-51.1,25.93-120.47,42.05-196.6,42.05s-145.46-16.12-196.6-42.05c-3.72-1.86-8.22-1.02-11.02,2.06l-34.91,38.54l3.92,7.66
	L167.04,109.39z M145.04,327.65l3.1,3.36h73.95l-1.86-3.36H145.04z M615.63,370.77h-59.28l-1.86,3.36h58.04L615.63,370.77z
	 M114.7,228.29c0.18,19.06-3.21,38.72-7.61,58.91l15.51,16.2c0.69-3.08,1.4-6.16,2.07-9.25h77l-1.86-3.36H125.4
	c2.91-13.15,5.14-26.43,6.67-39.81h45.67l-1.86-3.36h-43.49c0.59-6.38,1.03-12.77,1.03-19.19c0-5.33-0.27-10.7-0.76-16.08
	c-1.37-14.86-5.08-29.42-10.97-43.13c-0.94-1.93-1.93-4.3-3-6.4l27.63-30.54l10.41-11.49l-6.1-16.61l-1.15-3.49l-49.02,54.12
	c-2.74,3.06-3.25,7.52-1.25,11.11C109.78,184.97,115.12,206.5,114.7,228.29z M655.45,327.65h-75.19l-1.86,3.36h73.96L655.45,327.65z
	 M194.26,407.72l2.28,3.36h68.99c-0.11-1.12-0.25-2.24-0.43-3.36H194.26z M606.23,407.72h-70.85c-0.18,1.12-0.32,2.24-0.43,3.36h69
	L606.23,407.72z M246.01,374.13l-1.86-3.36h-59.28l3.1,3.36H246.01z M223.69,450.98l2.28,3.36h33.17c-0.28-1.15-0.55-2.28-0.74-3.36
	H223.69z M576.83,450.98H542.5c-0.2,1.08-0.47,2.21-0.75,3.36h32.8L576.83,450.98z M204.23,232.28l58.53,159.61L162.13,210.33
	l36.32,6.58l-42.14-114.83l72.01,135.25L204.23,232.28z M180.45,398.16l74.3,109.23L143.86,391.57l29.29-3.9l-53.43-78.55
	l80.3,86.97L180.45,398.16z M596.26,232.28l-58.53,159.61l100.63-181.55l-36.28,6.58l42.1-114.83l-71.97,135.25L596.26,232.28z
	 M620.05,398.16l-74.25,109.23l110.84-115.81l-29.29-3.9l53.43-78.55l-80.3,86.97L620.05,398.16z M281.48,216.65h22.88l-26.56-70.62
	h-23.83l-26.65,70.62h22.39l3.45-11.64h24.77L281.48,216.65z M257.97,189.73l7.7-25.39l7.79,25.39H257.97z M314.62,216.65h21.85
	v-17.24l11.29-11.82l14.87,29.06h26.92l-26.96-43.98l25.8-26.65h-29.06l-22.84,26.69v-26.69h-21.85V216.65z M397.6,216.69h21.9
	v-70.67h-21.9V216.69z M430.21,163.45h22.26v53.2h21.85v-53.2h22.26v-17.42h-66.37V163.45z M550.09,216.65h22.88l-26.56-70.62H522.6
	l-26.56,70.62h22.39l3.45-11.64h24.77L550.09,216.65z M526.67,189.73l7.7-25.39l7.79,25.39H526.67z M306.83,651.41
	c-0.31,0-0.22-0.18-0.31,0.36c-0.09,0.54-0.81,8.15-0.81,8.64s0.13,0.76,0.54,0.76s0.58-0.13,0.85-0.58
	c0.27-0.45,0.4-0.81,0.72-0.81s0.58,0.18,1.12,0.54c2.31,1.63,5.11,2.42,7.93,2.24c0.28,0.01,0.55,0,0.83-0.02
	c5.36-0.35,9.42-4.97,9.07-10.33c0.16-2.43-0.68-4.83-2.33-6.63c-1.87-1.79-4.19-3.04-6.72-3.63c-2.07-0.58-4.01-1.57-5.69-2.91
	c-0.98-1.16-1.45-2.66-1.3-4.16c0,0,0-0.01,0-0.01c0.13-2.74,2.45-4.86,5.19-4.74c1.84-0.1,3.63,0.62,4.88,1.97
	c1.3,1.42,2.27,3.1,2.87,4.93c0.09,0.27,0.45,0.27,0.45,0.27l0.85-0.18c0.16-0.02,0.27-0.16,0.27-0.31c0-0.45-0.72-7.21-0.72-7.7
	c0-0.49-0.09-0.76-0.4-0.76c-0.25,0.05-0.47,0.21-0.58,0.45l-0.63,0.63c-0.28,0.22-0.66,0.22-0.94,0c-1.87-0.79-3.88-1.17-5.91-1.12
	c-2.4-0.14-4.76,0.67-6.58,2.24c-2.09,1.5-3.31,3.92-3.27,6.49c-0.17,2.45,0.67,4.86,2.33,6.67c2.01,1.7,4.32,3.02,6.81,3.9
	c4.93,1.88,6.9,3.09,6.9,7.57c0,0.04,0,0.07-0.01,0.11c-0.2,3.13-2.91,5.51-6.04,5.31c-2.49,0.01-4.81-1.23-6.18-3.31
	c-1.04-1.59-1.64-3.43-1.75-5.33c0-0.36-0.31-0.36-0.31-0.36L306.83,651.41z M332.98,655.31c0,1.3,0.04,3.22,0,4.16
	s-0.27,0.94-0.72,0.94h-2.06c-0.49,0-0.49,0.09-0.49,0.36v0.9c0,0.49-0.13,0.49,0.4,0.49s1.88,0,5.02,0c3.13,0,5.28,0,5.64,0
	c0.36,0,0.36-0.18,0.36-0.49v-0.94c0-0.31-0.09-0.31-0.45-0.31h-1.88c-0.45,0-0.76-0.67-0.76-1.21c0-0.54,0-2.24,0-3.99v-5.06
	c0-3.9-0.09-7.08,0-7.61c0.09-0.54-0.09-0.54-0.36-0.54c-0.39,0.03-0.76,0.12-1.12,0.27c-0.76,0.31-5.73,2.15-6.05,2.24
	c-0.31,0.09-0.31,0.36-0.31,0.36v0.49c0,0.22,0.04,0.45,0.45,0.45c2.15,0.54,2.42,1.48,2.42,2.87L332.98,655.31z M334.64,637.17
	c0.09,0.01,0.19,0.01,0.28,0.01c1.53-0.01,2.77-1.26,2.76-2.79c0-0.02,0-0.04,0-0.05c-0.1-1.41-1.32-2.46-2.73-2.36
	c-0.01,0-0.02,0-0.03,0c-1.58-0.14-2.97,1.02-3.11,2.6c0,0.02,0,0.03,0,0.05C331.89,636.1,333.15,637.25,334.64,637.17
	 M343.77,644.87c-0.45,0.09-0.45,0.45-0.45,0.45v0.4c0,0.22,0.15,0.4,0.36,0.45h0.36c1.16,0.41,1.95,1.5,1.97,2.73v10.43
	c0,0.94-0.63,0.94-1.21,0.94h-0.94c-0.45,0-0.45,0.09-0.45,0.36v0.9c0,0.49,0.27,0.49,0.27,0.49s1.57,0,4.48,0c2.91,0,4.12,0,4.48,0
	s0.36-0.18,0.36-0.49v-0.81c0-0.45-0.09-0.45-0.45-0.45h-0.85c-0.63,0-0.9-0.54-0.9-1.57v-9.58c-0.09-1.19,0.26-2.37,0.99-3.31
	c0.81-0.76,1.88-1.19,3-1.21c1.01-0.13,2.02,0.18,2.78,0.85c1.21,0.9,1.21,2.1,1.21,3.99v5.33c0.09,1.49,0.09,2.99,0,4.48
	c-0.09,0.85-0.49,1.12-0.85,1.12h-0.94c-0.54,0-0.54,0.09-0.54,0.36v0.81c0,0.58,0.36,0.58,0.36,0.58s1.21,0,4.48,0s4.61,0,5.02,0
	c0.4,0,0.4-0.09,0.4-0.36v-1.07c0-0.31-0.13-0.31-0.58-0.31h-1.3c-0.54,0-1.12-0.36-1.12-1.3s0-2.96,0-4.48v-6.67
	c0.1-1.96-0.88-3.82-2.55-4.84c-1.21-0.79-2.64-1.17-4.08-1.07c-1.33,0.02-2.62,0.39-3.76,1.07c-0.88,0.48-1.67,1.12-2.33,1.88
	h-0.36l-0.36-2.42c-0.09-0.54-0.27-0.54-0.58-0.54c-0.32,0.06-0.63,0.18-0.9,0.36L343.77,644.87z M385.69,657.68
	c-0.01-0.01-0.02-0.02-0.02-0.02c-0.11-0.1-0.28-0.09-0.38,0.02c-1.4,1.18-3.19,1.8-5.02,1.75c-1.93,0.1-3.77-0.86-4.79-2.51
	c-1.42-2.24-2.06-4.88-1.84-7.52c-0.25-2.63,1.6-5.01,4.21-5.42c1.3-0.14,2.5,0.67,2.87,1.93c0.49,1.21,1.21,2.33,2.78,2.33
	c0.06,0,0.12,0,0.18,0c1.09-0.05,1.93-0.97,1.88-2.06c0-1.39-1.21-4.16-6.58-4.16c-2.53-0.04-4.98,0.93-6.81,2.69
	c-2.24,2.19-3.48,5.2-3.45,8.33c-0.09,2.34,0.71,4.63,2.24,6.4c1.85,2.15,4.61,3.29,7.43,3.09c3-0.11,5.83-1.4,7.88-3.58
	c0.01-0.01,0.02-0.02,0.03-0.03c0.13-0.15,0.12-0.37-0.03-0.51L385.69,657.68z M393.03,650.2h11.24c0.85,0,1.3-0.04,1.3-0.76
	c-0.06-3.93-3.11-7.16-7.03-7.43c-3.11-0.36-6.18,0.93-8.11,3.4c-1.6,1.93-2.4,4.4-2.24,6.9c-0.2,2.81,0.73,5.59,2.6,7.7
	c1.71,1.84,4.18,2.77,6.67,2.51c3.55,0.13,6.86-1.78,8.51-4.93c0.31-0.63,0-0.94,0-0.94l-0.72-0.4c-0.18-0.09-0.54-0.09-0.54,0.22
	c-1.29,1.82-3.42,2.83-5.64,2.69c-3.7-0.49-6.37-3.8-6.05-7.52V650.2z M392.95,648.5c0.81-3.13,2.06-4.79,4.48-4.79
	s2.91,2.73,2.91,4.16c0,0.36-0.58,0.63-1.52,0.63L392.95,648.5z M421.2,662.07c1.66,0,2.55,0.18,2.78,0.63
	c0.22,0.45,0.04,0.45,0.67,0.45s0.63-0.09,0.63-0.45l3.18-8.02c0.13-0.36,0.04-0.4-0.45-0.72c-0.49-0.31-0.58-0.18-0.85,0.27
	c-0.9,2.12-2.98,3.51-5.28,3.54h-8.6c1.57-1.48,4.39-3.72,7.34-6.72c3.77-3.05,6.1-7.53,6.45-12.36c0,0,0,0,0,0
	c-0.02-4.7-3.85-8.49-8.55-8.46c-4.38,0.03-8.26,2.84-9.67,6.99c0,0.67,0,0.67,0,0.67l0.72,0.36c0.18,0.09,0.58,0.09,0.58-0.27
	c1.04-2.26,3.25-3.76,5.73-3.9c0.15,0,0.31,0,0.46,0.01c3.06,0.22,5.36,2.88,5.14,5.94c-0.18,4.27-1.93,8.32-4.93,11.38
	c-3.63,4.21-7.66,7.84-9.49,9.63c-0.3,0.21-0.42,0.59-0.31,0.94c0.18,0.1,0.4,0.1,0.58,0h1.88h2.02L421.2,662.07z M452.15,646.08
	c0-6.99-2.24-15.94-10.12-15.94c-6.54,0-10.52,7.39-10.52,17.91c0,5.82,2.6,14.78,10.61,14.78c6.4,0,10.03-5.96,10.03-16.57
	 M438.89,634.98c0.72-1.93,1.75-2.96,3.45-2.96c2.87,0,4.48,5.78,4.48,13.12c0.24,4.19-0.11,8.4-1.03,12.49
	c-0.76,2.42-1.97,3.18-3.54,3.18c-1.57,0-2.91-0.94-3.94-3.76c-0.9-3.23-1.26-6.59-1.07-9.94c-0.09-4.1,0.41-8.18,1.48-12.14
	 M463.08,648.1c0,1.3,0,8.37,0,9.67c-0.09,2.55-0.49,2.55-3.27,2.55h-1.79c-0.54,0-0.54,0.04-0.54,0.31v1.21
	c0,0.36,0.36,0.36,0.36,0.36h7.75h7.48c0.45,0,0.45-0.09,0.45-0.4v-1.16c0-0.31-0.09-0.31-0.45-0.31h-1.7
	c-2.82,0-2.82-0.27-2.82-2.69c0-0.63,0-9.45,0-11.06v-1.93c0-6.05,0.22-12.9,0.22-13.66c0-0.76-0.13-0.76-0.4-0.76
	c-0.29,0.02-0.57,0.13-0.81,0.31l-10.7,5.55c-0.31,0.18-0.31,0.58-0.31,0.58l0.4,0.94c0.09,0,0.45,0,0.45,0l2.78-0.85
	c0.63-0.22,1.3-0.34,1.97-0.36c0.85,0,1.12,0.99,1.12,2.42L463.08,648.1z M495.01,646.08c0-6.99-2.24-15.94-10.12-15.94
	c-6.54,0-10.52,7.39-10.52,17.91c0,5.82,2.6,14.78,10.61,14.78c6.4,0,10.03-5.96,10.03-16.57 M481.75,634.98
	c0.72-1.93,1.75-2.96,3.45-2.96c2.87,0,4.48,5.78,4.48,13.12c0.24,4.19-0.11,8.4-1.03,12.49c-0.76,2.42-1.93,3.18-3.54,3.18
	c-1.61,0-2.91-0.94-3.94-3.76c-0.92-3.23-1.29-6.59-1.12-9.94c-0.07-4.1,0.44-8.18,1.52-12.14 M726.23,636.86
	c-0.03,4.86-1.33,9.63-3.76,13.84l-43.89,69.33c-2.86,6.5-9.29,10.7-16.39,10.7c-3.08-0.02-6.12-0.65-8.96-1.84
	c-5.22-2.76-9.96-6.33-14.06-10.57c-5.7-5.28-12.07-9.8-18.94-13.44c-12.36-6.54-33.1-6.76-46.8-7.48c-5.31-0.1-10.38-2.25-14.15-6
	c-4.9-5.08-6.1-12.69-3-19.03c0.35-0.75,0.75-1.46,1.21-2.15l14.12-24.05c-18.26,13.24-37.53,24.07-56.17,33.5
	c-30.9,15.63-60.32,27.63-80.61,40.08c-9.93,6.83-18.74,15.17-26.11,24.72c-2.09,4.7-7.6,6.81-12.3,4.72
	c-2.1-0.94-3.78-2.62-4.72-4.72c-7.37-9.55-16.17-17.89-26.11-24.72l0.04-0.13c-16.36-9.37-33.19-17.89-50.43-25.53
	c-27.31-12.86-58.19-27.67-86.63-48.37l13.9,24.86c0.41,0.6,0.78,1.23,1.12,1.88c1.08,2.26,1.65,4.74,1.66,7.25
	c0.06,4.35-1.54,8.56-4.48,11.78c-3.78,3.73-8.84,5.88-14.15,6c-13.75,0.72-34.44,0.94-46.84,7.48
	c-6.87,3.64-13.24,8.15-18.94,13.44c-4.1,4.24-8.85,7.81-14.06,10.57c-2.84,1.19-5.88,1.82-8.96,1.84c-7.1,0-13.53-4.2-16.39-10.7
	l-43.89-69.33c-3.06-5.16-4.31-11.2-3.54-17.15c0.58-4.92,2.53-9.58,5.64-13.44c3.68-4.39,9.14-6.88,14.87-6.81
	c1.5,0.01,3,0.16,4.48,0.45c1.26,0.25,2.36,1.04,3,2.15l10.84,18.76c5.5-5.07,11.51-9.57,17.91-13.44l-12-20.78
	c-1.39-2.78-2.1-5.85-2.06-8.96c0.22-7.66,3.75-14.85,9.67-19.71c5.54-4.62,11.87-9.06,18.89-13.31
	c-31.42-43-51.62-88.51-56.24-144.55c-0.45-5.19-0.67-10.39-0.67-15.54c0.18-34.87,9.04-68.55,16.45-100.88l9.95,14.94l4.36,6.41
	c-0.67,2.9-1.34,5.81-2,8.7H125l2.28,3.36H116.3c-2.99,13.37-5.67,26.59-7.36,39.77h45.39l2.28,3.36h-48.08
	c-0.98,8.08-1.53,16.2-1.54,24.34c0,3.11,0.05,6.18,0.29,9.25h43.65l3.22,3.36H107.4c0,0.43,0,0.85,0,1.28
	c1.07,13.02,3.16,25.93,6.2,38.63h78.76l3.22,3.36h-80.92c2.92,11.43,6.69,22.63,11.27,33.5h101.73l3.22,3.36H127.39
	c6.11,13.82,13.33,27.12,21.59,39.77h60.17c27.49-8.56,59.05-15.27,93.44-19.68c-0.15-5.85,0.23-11.07-4.58-15.19
	c-9.99-8.51-20.87-37.62-11.91-48.1c16.35-18.81-3.13-22.8,16.66-53.34c-6.67,9.05-13.88,10.17-13.44,34.35
	c0.31,18.32-17.42,10.08-8.96,49.26c-26.87-55.98,1.93-32.65-4.48-72.95c-4.75-29.96,20.96-32.07,25.97-65.79
	c-1.34,2.82-2.96,6.31-4.79,10.79c-6.4,15.45-28.84,31.8-24.86,45.72c-12.81-21.77,11.82-37.98,14.6-53.11
	c4.48-22.96,18.15-43.09,37.84-55.71l8.96,29.15l-5.15-75.51l44.78,58.22l-13.03-29.11c15.9-5.24,41.25,3.72,41.25,3.72
	s22.79-9,38.65-3.72l-13.44,29.11l44.16-51.86l-4.08,69.24l8.96-29.15c19.7,12.62,33.39,32.75,37.89,55.71
	c2.73,15.14,27.41,31.44,14.55,53.11c4.03-13.93-18.41-30.27-24.86-45.72c-1.84-4.39-3.4-7.97-4.79-10.79
	c5.06,33.72,30.77,35.96,26.02,65.79l0.54-0.09c-6.23,40.26,22.71,16.97-4.48,72.95c8.42-39.05-9.27-30.81-8.96-49.26
	c0.4-24.18-6.76-25.39-13.44-34.35c19.79,30.54,0.31,34.53,16.66,53.34c9.14,10.48-1.93,39.59-11.87,48.1
	c-4.88,4.17-4.42,9.49-4.59,15.46c33.82,4.4,64.88,11,91.99,19.4h61.14c8.28-12.64,15.5-25.94,21.59-39.77H569.66l3.21-3.36h101.69
	c4.59-10.87,8.36-22.07,11.29-33.5h-80.92l3.21-3.36h78.56c3.04-12.7,5.13-25.61,6.2-38.63c0-0.43,0-0.85,0-1.28h-46.57l3.21-3.36
	h43.63c0.17-3.07,0.32-6.14,0.32-9.25c0.01-8.14-0.54-16.27-1.54-24.34h-48.09l2.28-3.36h45.39c-1.81-13.36-4.25-26.63-7.31-39.77
	h-11.03l2.28-3.36h7.96c-0.66-2.9-1.34-5.82-2.02-8.74l4.34-6.38l10.01-14.99c7.4,32.35,16.23,66.09,16.38,101.07
	c0,5.15-0.22,10.35-0.63,15.5c-4.66,56.16-24.93,101.77-56.45,144.86c6.79,4.15,12.95,8.49,18.34,13c5.88,4.84,9.38,12,9.58,19.62
	c0.04,3.11-0.67,6.18-2.06,8.96l-12,20.78c6.42,3.85,12.42,8.36,17.91,13.44l11.11-18.81c0.64-1.11,1.74-1.9,3-2.15
	c1.48-0.29,2.98-0.44,4.48-0.45c5.71-0.08,11.16,2.42,14.82,6.81c3.14,3.84,5.12,8.5,5.69,13.44H726
	C726.15,634.67,726.22,635.76,726.23,636.86z M600.67,534.32c13.75,4.68,26.35,9.84,37.64,15.43c3.75-5.07,7.42-10.19,10.93-15.43
	H600.67z M477.41,509.15c1.86,0.19,3.7,0.39,5.55,0.59c-0.31-5.81-0.3-11.46,4.48-17.58c9.63-12.54,7.84-27.68,0-45.32
	C499.63,489.87,476.19,479.27,477.41,509.15z M445.61,411.91h-0.09c-5.02,2.1-17.69,7.52-20.38,8.42
	c2.96-0.76,16.93-4.21,19.12,4.03c0.58,2.28,24.41-3.13,23.74-12.94C467.56,405.1,455.46,407.74,445.61,411.91z M462.05,447.55
	l0.27-0.31c-0.85-1.93-2.78-3.05-6.09-3.09l-4.79,36.99l-8.96-32.42c-2.52,1.79-5.24,3.3-8.11,4.48
	c-5.91,2.33-15.27,4.08-33.54,4.08c-18.27,0-27.9-1.48-34.44-3.63c-2.62-0.86-5.15-1.95-7.57-3.27l-9.9,32.24l-3.85-38.16
	c-0.52-0.05-1.05-0.05-1.57,0c-1.79,0-2.28,0.63-3.45,3.09c-0.3,1.22-0.42,2.47-0.36,3.72c0,8.96,2.82,30.36,7.66,39.95
	c1.57,3.27,3.36,4.84,4.48,4.75h0.31c3-0.86,5.68-2.59,7.7-4.97l2.28-35.33l14.6,21.59c7.35-4.03,15.62-6.07,24-5.91
	c8.59-0.17,17.06,2.01,24.5,6.31l14.87-21.99l2.37,36.86c1.6,1.71,3.67,2.91,5.96,3.45h0.31c1.3,0,3.22-1.61,4.97-5.06
	c1.94-4.21,3.44-8.61,4.48-13.12c2.32-9,3.7-18.21,4.12-27.5C462.35,449.37,462.26,448.45,462.05,447.55z M399.39,482.17
	c-15.94,0-28.8,12.4-28.8,12.4s8.64-7.75,28.66-7.75c20.02,0,28.98,7.75,28.98,7.75S415.34,482.17,399.39,482.17z M363.97,437.7
	h-0.09c6.14,10.52,10.52,2.06,27.68,9.72c-4.48-1.79-1.61-6.99-8.96-17.24C375.26,419.92,357.79,427.09,363.97,437.7z
	 M409.52,438.37c0-4.75-0.31-28.39-0.31-28.39s-5.2,7.39-8.51,7.39c-3.27,0-8.15-7.17-8.15-7.17s-0.4,24.27-0.4,28.17
	C392.14,449.61,409.52,451.18,409.52,438.37z M409.74,447.42c0.08-0.03,0.11-0.08,0.19-0.11c16.92-7.44,21.3,0.86,27.4-9.61
	c6.14-10.52-11.2-17.91-18.63-7.52c-7.31,10.21-4.61,15.26-8.77,17.13c-0.1,0.04-0.18,0.07-0.27,0.11H409.74z M430.74,378.95
	c8.15-12.09,14.6-24.18,14.6-29.02c0.05-2.06-0.8-4.04-2.33-5.42C440.01,353.46,435.76,366.9,430.74,378.95z M419.59,406.94
	l-2.55,2.28c-0.45,0.36-0.81,0.76-1.12,1.03c0.47,0.42,0.98,0.8,1.52,1.12c2.33,1.25,4.93,1.9,7.57,1.88
	c2.93-0.01,5.82-0.76,8.37-2.19c6.51-3.32,12.72-7.19,18.59-11.55c6.18-4.84,10.43-10.39,10.35-15.36c-0.07-2.47-0.9-4.86-2.37-6.85
	c-2.6-3.27-4.48-5.87-6.14-7.88c-2.74,5.23-6.12,10.09-10.08,14.47c0.44,6.22-1.41,12.38-5.19,17.33
	C434.55,406.85,422.95,412.98,419.59,406.94z M380.5,340.52c2.28,12.18,4.88,29.51,7.7,36.1c2.1,4.88,5.55-3.31,5.55-3.31
	s1.66,24.54-3.72,29.24c2.92,3.59,6.85,6.21,11.29,7.52c2.33,0,5.91-2.64,10.03-6.81c-7.08-1.25-5.15-29.96-5.15-29.96
	s3.45,8.2,5.55,3.31c2.69-6.31,5.2-22.39,7.43-34.62c-7.21,1.57-13.44,4.48-14.55,7.84c-1.93-6.99-7.3-7.75-9.4,0
	C391.08,345.66,386.05,342.48,380.5,340.52z M355.06,350.78c0,4.48,5.6,14.42,12.99,25.08c-4.48-11.64-8.6-24.32-11.38-32.51
	C355.51,345.64,354.96,348.2,355.06,350.78z M337.64,384.14c0,4.97,4.16,10.52,10.35,15.36c5.86,4.37,12.08,8.23,18.59,11.55
	c2.56,1.43,5.44,2.19,8.37,2.19c2.37,0,4.71-0.52,6.85-1.52c0.82-0.38,1.57-0.88,2.24-1.48l-0.4-0.36
	c-0.81-0.81-1.97-1.79-3.27-2.96c-3.36,6.05-14.96,0-18.94-5.73c-3.79-4.95-5.63-11.11-5.19-17.33c-3.95-4.39-7.35-9.25-10.12-14.47
	c-1.48,1.97-3.45,4.48-6.09,7.88C338.52,379.27,337.69,381.66,337.64,384.14z M331.77,411.41c-0.67,9.81,22.93,15.14,23.78,12.94
	h-0.09c3-8.24,16.12-4.79,19.12-4.03c-2.73-0.9-15.41-6.31-20.42-8.42C344.22,407.74,332.13,405.1,331.77,411.41z M313.5,492.16
	c4.66,5.99,4.67,11.58,4.35,17.36c1.9-0.2,3.79-0.41,5.7-0.6c1.14-29.31-20.94-12.78-10.05-62.09
	C305.48,464.48,303.69,479.62,313.5,492.16z M151.25,534.32c3.44,5.13,7.04,10.15,10.72,15.12c11.1-5.47,23.46-10.53,36.93-15.12
	H151.25z M137.09,693.42l-40.98-70.98h-1.07c-3.11-0.1-6.09,1.26-8.06,3.67c-2.02,2.59-3.29,5.69-3.67,8.96
	c-0.04,0.7-0.04,1.4,0,2.1c0.11,3.13,0.92,6.19,2.37,8.96l-0.09-0.13l36.77,58.22C125.27,698.47,130.74,694.46,137.09,693.42z
	 M224.02,670.49h-0.13c-8.32,0.4-16.41,2.84-23.56,7.12c-10.93,6.14-17.91,9.27-24.09,9.4c-2.44,0.07-4.84-0.63-6.85-2.02
	c-1.88-1.26-3.42-2.97-4.48-4.97l-29.47-51.1c-6.31,3.86-12.21,8.37-17.6,13.44l30.77,53.16c0.93,1.46,0.93,3.33,0,4.79
	c-1.02,1.42-2.76,2.12-4.48,1.79c-1-0.21-2.02-0.31-3.05-0.31c-6.13-0.3-11.34,4.42-11.64,10.55c0,0.04,0,0.07,0,0.11
	c-0.02,0.28-0.02,0.57,0,0.85c0.19,4.81,4.15,8.6,8.96,8.6c1.86-0.05,3.7-0.44,5.42-1.16c4.23-2.44,8.1-5.46,11.51-8.96
	c6.33-5.82,13.39-10.79,21-14.78c15.54-7.93,37.04-7.57,50.38-8.46c3.06,0.02,6.01-1.13,8.24-3.22c1.44-1.55,2.24-3.58,2.24-5.69
	c-0.01-1.16-0.27-2.31-0.76-3.36C234.68,672.73,230.74,670.58,224.02,670.49z M174.4,677.79c0.54,0.36,1.19,0.52,1.84,0.45
	c2.69,0,9.27-2.24,19.75-8.24c8.45-5.09,18.04-7.97,27.9-8.37c1.31-0.07,2.63-0.07,3.94,0l-10.7-18.23
	c-24.77,10.03-40.04,22.39-43.4,33.54v0.22C173.93,677.4,174.15,677.61,174.4,677.79z M555.52,634.17
	c-40.72-11.52-95.3-18.63-155.28-18.63c-59.89-0.08-114.49,7.16-155.16,18.66c15.25,10.78,31.4,20.27,48.31,28.31
	c30.1,15.27,59.52,27.14,81.87,40.8c9.29,5.4,17.71,12.16,24.99,20.06c7.28-7.9,15.7-14.67,24.99-20.06
	c16.94-9.71,34.37-18.55,52.22-26.47C502.85,664.95,530.33,651.62,555.52,634.17z M611.58,648.19c8.32,4.91,15.38,11.71,20.6,19.84
	v-0.22l41.38-71.65c0.65-1.4,0.99-2.93,0.99-4.48c-0.22-5.04-2.6-9.74-6.54-12.9c-44.11-37.35-147.79-64.58-267.76-64.44
	c-119.98,0.13-223.61,27.09-267.67,64.35c-3.98,3.17-6.39,7.9-6.63,12.99c-0.02,1.63,0.33,3.23,1.03,4.7l41.34,71.65
	c5.22-8.13,12.28-14.93,20.6-19.84c16.07-9.61,33.4-16.92,51.5-21.72c42.01-12.18,98.12-19.57,159.83-19.62
	C492.86,606.85,572.66,623.33,611.58,648.19z M583.37,643.84v-0.22l-10.66,18.23c1.21-0.07,2.42-0.07,3.63,0h0.27
	c9.86,0.4,19.45,3.28,27.9,8.37c10.48,6,17.06,8.37,19.75,8.24c0.65,0.07,1.3-0.09,1.84-0.45c0.25-0.18,0.47-0.39,0.67-0.63
	C623.4,666.19,608.18,653.87,583.37,643.84z M671.19,712.59c-0.24-6.13-5.4-10.9-11.53-10.66c-0.04,0-0.07,0-0.11,0
	c-1.02,0-2.04,0.1-3.05,0.31c-2.46,0.3-4.69-1.45-4.99-3.9c-0.11-0.92,0.07-1.86,0.51-2.68l30.36-53.02
	c-5.39-5.07-11.29-9.57-17.6-13.44l-29.47,51.05c-0.98,2-2.44,3.72-4.25,5.02c-2.01,1.38-4.41,2.09-6.85,2.02
	c-6.27,0-13.17-3.27-24.09-9.4c-7.14-4.31-15.23-6.79-23.56-7.21c-6.72,0-10.66,2.24-12.41,5.78c-0.48,1.07-0.73,2.23-0.72,3.4
	l0.04-0.18c-0.02,2.09,0.76,4.12,2.19,5.64c2.23,2.09,5.18,3.25,8.24,3.22c13.44,0.9,34.84,0.54,50.38,8.46
	c7.53,3.99,14.52,8.94,20.78,14.73c3.39,3.51,7.27,6.53,11.51,8.96c1.72,0.72,3.56,1.12,5.42,1.16c4.83,0.13,8.89-3.6,9.18-8.42
	C671.21,713.15,671.21,712.87,671.19,712.59z M717.27,634.66c-0.34-3.27-1.59-6.38-3.63-8.96l0.09,0.22
	c-1.97-2.41-4.95-3.77-8.06-3.67h-1.03l-40.98,70.98c6.35,1.03,11.8,5.07,14.64,10.84l36.81-58.22v-0.49
	c0.22-0.45,0.54-1.12,0.85-1.93c0.84-2.13,1.28-4.39,1.3-6.67C717.34,636.07,717.34,635.36,717.27,634.66z M188.82,574.97
	c1.16,3.54,2.42,7.7,3.81,12.18l3.31,11.29c1.34,4.57,2.55,8.64,3.45,12.27c0.9,3.63,1.79,7.17,2.55,10.66
	c1.16-0.47,2.34-0.87,3.54-1.21l4.48-1.3l5.73-1.61c1.79-0.45,3.76-0.99,5.87-1.61c2.3-0.68,4.51-1.63,6.58-2.82
	c2-1.1,3.73-2.63,5.06-4.48c1.33-1.88,2.2-4.04,2.55-6.31c0.39-2.72,0.14-5.49-0.72-8.11c-0.59-2.23-1.76-4.25-3.4-5.87
	c-1.42-1.4-3.11-2.48-4.97-3.18c-1.72-0.66-3.54-1.02-5.37-1.07c-1.5-0.08-3.01,0.04-4.48,0.36l0,0c1.31-0.67,2.54-1.48,3.67-2.42
	c1.33-1.08,2.49-2.34,3.45-3.76c1-1.54,1.72-3.26,2.1-5.06c0.39-2.08,0.25-4.22-0.4-6.22c-0.53-2.03-1.51-3.91-2.87-5.51
	c-1.21-1.38-2.75-2.43-4.48-3.05c-1.85-0.61-3.79-0.86-5.73-0.76c-2.26,0.09-4.5,0.47-6.67,1.12c-2.24,0.67-4.48,1.48-7.03,2.33
	s-4.75,1.61-7.03,2.28c-1.3,0.4-2.51,0.94-3.54,0.94l-3.05,0.54c1.3,3.54,2.55,7.08,3.72,10.61 M212.73,568.02
	c0.64,1.16,1.15,2.4,1.52,3.67c0.51,1.57,0.71,3.23,0.58,4.88c-0.09,1.34-0.46,2.65-1.07,3.85c-0.56,1.09-1.34,2.05-2.28,2.82
	c-0.91,0.74-1.96,1.29-3.09,1.61l-3.54,1.03c-0.4-1.43-0.81-2.6-1.25-4.16c-0.45-1.57-0.85-3.05-1.3-4.48
	c-0.45-1.43-0.99-3.22-1.52-5.33s-1.07-4.21-1.57-6.31l1.39-0.63l2.37-0.76c1.34-0.44,2.77-0.56,4.16-0.36
	c1.15,0.21,2.25,0.65,3.22,1.3c0.96,0.71,1.77,1.61,2.37,2.64 M217.71,590.46c2.57,1.95,4.35,4.77,5.02,7.93
	c0.5,1.64,0.74,3.35,0.72,5.06c-0.06,1.4-0.34,2.77-0.85,4.08c-0.93,2.28-2.84,4.03-5.19,4.75l-2.28,0.63l-2.1,0.45
	c-0.22-0.72-0.49-1.57-0.85-2.69c-0.36-1.12-0.72-2.33-1.12-3.67c-0.4-1.34-0.76-2.64-1.21-4.03c-0.45-1.39-0.76-2.33-1.25-4.08
	s-0.9-3.22-1.25-4.48c-0.36-1.25-0.72-2.46-1.03-3.63l1.48-0.49l1.88-0.58c2.66-0.97,5.61-0.71,8.06,0.72 M239.56,561.17
	c0.84,3.61,1.73,7.78,2.69,12.49l2.33,11.51c0.99,4.7,1.75,8.87,2.37,12.54c0.63,3.67,1.21,7.26,1.7,10.79l1.57-0.4
	c0.58-0.18,1.48-0.36,2.73-0.63l4.75-0.94l7.97-1.61l8.73-1.75l5.42-0.94c-0.24-0.39-0.42-0.81-0.54-1.25
	c-0.13-0.49-0.13-1.21-0.49-2.1c-0.36-0.9-0.36-1.57-0.36-2.1c0-0.54,0-1.12,0-1.75c-2.91,1.03-5.91,1.93-8.96,2.69
	c-2.99,0.81-5.97,1.52-8.96,2.15c-0.49-2.19-1.03-4.79-1.7-7.79l-1.93-9.32l-2.33-11.55c-0.94-4.66-1.75-8.82-2.37-12.49
	c-0.63-3.67-1.21-7.39-1.75-11.11c-0.85,0.31-1.84,0.58-2.91,0.9c-1.17,0.36-2.37,0.65-3.58,0.85c-1.34,0.27-2.55,0.63-3.63,0.63
	l-3.05,0.31c0.96,3.61,1.85,7.24,2.69,10.88 M336.11,594.63c-2.02-3.13-4.3-7.03-6.76-11.55c-2.46-4.52-5.06-9.36-7.75-14.47
	c-2.69-5.11-5.33-10.3-8.02-15.63l-7.52-14.91l-1.52,0.49l-1.52,0.31c-0.52,0.04-1.05,0.04-1.57,0h-1.57
	c-0.81,3.4-1.66,7.12-2.64,11.06c-0.99,3.94-2.02,7.97-3,12.05s-2.02,8.11-3,12.09l-2.91,11.2c-0.9,3.49-1.7,6.67-2.46,9.4
	c-0.76,2.73-1.34,4.93-1.84,6.49c0.69-0.2,1.39-0.35,2.1-0.45l1.97-0.22l1.88-0.27c0.66-0.05,1.31-0.05,1.97,0
	c0.4-2.96,0.85-6.09,1.43-8.96c0.58-2.87,1.21-5.91,1.93-8.96l4.21-0.63l4.48-0.58l5.19-0.63l5.24-0.49
	c1.39,2.78,2.73,5.55,4.03,8.37l3.76,8.24c1.12-0.22,2.28-0.58,3.45-0.58l3.45-0.45l3.45-0.4c1.16-0.31,2.42-0.31,3.76-0.31
	 M301.94,555.4c1.7,3.27,3.4,6.54,4.97,9.72c1.57,3.18,3.18,6.45,4.79,9.81l-14.91,1.84c0.76-3.63,1.61-7.21,2.42-10.7
	C300.02,562.56,300.96,559.02,301.94,555.4 M355.95,593.77c3.24,0.66,6.55,0.9,9.85,0.72c6.75,0.19,13.26-2.5,17.91-7.39
	c3.85-4.52,5.6-11.82,5.11-21.85c-0.4-3.76-0.4-7.25-0.4-10.66c0-3.4,0-6.36,0-9.27c0-2.91,0-5.24,0-7.39c0-2.15,0-3.85,0-5.15
	l-2.02,0.4c-0.68,0.07-1.38,0.07-2.06,0c-0.66,0.04-1.31,0.04-1.97,0h-2.24c0.45,3.94,0.76,7.93,1.07,11.87
	c0.31,3.94,0.72,7.84,0.72,11.87c0,4.03,0,7.93,0,11.64c0.01,3.35-0.41,6.7-1.25,9.94c-0.69,2.68-2.05,5.14-3.94,7.17
	c-2.05,1.91-4.76,2.97-7.57,2.96c-2.37,0.13-4.75-0.05-7.08-0.54c-2.07-0.49-3.92-1.64-5.28-3.27c-1.7-2.15-2.9-4.64-3.54-7.3
	c-0.99-4.16-1.55-8.4-1.66-12.67c-0.22-4.97-0.4-9.81-0.54-14.64s-0.04-10.03,0.22-15.63l-3.36,0.45l-3.31,0.31h-3.4h-3.36
	c0.18,1.43,0.31,3.54,0.54,6.45c0.22,2.91,0.63,6.85,0.63,11.33c0,1.57,0,3.05,0,4.48s0,2.91,0,4.48c0,1.57,0,3.22,0,5.06
	c0.18,1.79,0.27,3.85,0.27,6.18c0.08,3.56,0.9,7.07,2.42,10.3c1.31,2.67,3.25,4.99,5.64,6.76c2.41,1.74,5.18,2.93,8.11,3.49
	 M409.83,543.97c0,3.73-0.09,7.99-0.27,12.76l-0.4,11.78c-0.18,4.75-0.4,9-0.63,12.72c-0.22,3.72-0.54,7.34-0.9,10.93
	c1.24-0.07,2.48-0.07,3.72,0h4.48l5.91,0.31l6.09,0.31c2.4,0.06,4.81-0.15,7.17-0.63c2.24-0.41,4.35-1.33,6.18-2.69
	c1.89-1.34,3.43-3.13,4.48-5.19c1.23-2.44,1.88-5.14,1.88-7.88c0.15-2.3-0.31-4.61-1.34-6.67c-0.97-1.71-2.24-3.23-3.76-4.48
	c-1.42-1.16-3.02-2.07-4.75-2.69c-1.43-0.57-2.94-0.94-4.48-1.07l0,0c1.53-0.2,3.03-0.58,4.48-1.12c1.62-0.59,3.13-1.44,4.48-2.51
	c1.44-1.14,2.66-2.53,3.58-4.12c1.04-1.85,1.59-3.93,1.61-6.05c0.12-2.09-0.22-4.19-0.99-6.14c-0.68-1.69-1.81-3.16-3.27-4.25
	c-1.54-1.17-3.28-2.04-5.15-2.55c-2.19-0.62-4.44-0.96-6.72-1.03c-2.33,0-4.79,0-7.39,0c-2.6,0-5.02,0-7.39,0
	c-1.34-0.04-2.6-0.27-3.67-0.27l-3.05-0.4c0,3.76,0,7.48,0,11.2 M432.94,567.22c1.8,2.62,2.61,5.8,2.28,8.96
	c-0.04,1.71-0.34,3.4-0.9,5.02c-0.48,1.31-1.19,2.52-2.1,3.58c-0.81,0.95-1.82,1.7-2.96,2.19c-1.08,0.48-2.26,0.71-3.45,0.67
	c-0.94,0-1.75,0-2.42,0h-2.1c0-0.76,0-1.7,0-2.87s0-2.42,0-3.81s0-2.78,0-4.25v-4.21c0-1.66,0-3.18,0-4.48s0-2.55,0-3.76h3.54
	c2.83-0.07,5.54,1.13,7.39,3.27 M435.53,544.29c0.24,1.3,0.35,2.62,0.31,3.94c-0.03,1.66-0.38,3.31-1.03,4.84
	c-0.53,1.25-1.29,2.39-2.24,3.36c-0.88,0.83-1.92,1.48-3.05,1.93c-1.11,0.39-2.27,0.59-3.45,0.58h-3.67c0-1.61,0-3.05,0-4.48
	c0-1.43-0.04-2.96,0-4.48c0.04-1.52,0.13-3.58,0.27-5.55s0.45-4.34,0.45-6.45c0.51-0.06,1.02-0.06,1.52,0h2.51
	c1.41-0.01,2.81,0.31,4.08,0.94c2.11,1.14,3.6,3.16,4.08,5.51 M461.2,546.44c-0.22,3.76-0.58,7.97-1.03,12.72l-1.12,11.73
	c-0.45,4.75-0.85,9-1.34,12.67c-0.49,3.67-0.99,7.3-1.52,10.84h1.57c0.63,0,1.57,0.22,2.78,0.22l4.88,0.45l8.11,0.76
	c3.85,0.36,6.81,0.63,8.96,0.9l5.42,0.63c-0.05-0.43-0.05-0.87,0-1.3c0-0.54-0.27-1.3,0-2.19c0.27-0.9,0.18-1.57,0.27-2.1
	c0.09-0.54,0.4-1.07,0.4-1.7c-3.18,0-6.4,0.13-9.49,0s-6.22-0.36-9.32-0.63c0.18-2.24,0.36-4.88,0.63-7.93s0.54-6.22,0.85-9.49
	l1.12-11.69c0.45-4.79,0.94-9.05,1.39-12.72c0.45-3.67,0.94-7.39,1.52-11.11h-3.05c-1.12,0-2.37,0.13-3.72,0
	c-1.34-0.13-2.55-0.49-3.63-0.49l-3-0.58c-0.13,3.76-0.36,7.48-0.58,11.2 M502.04,550.83c-0.4,3.72-0.99,7.93-1.66,12.67
	l-1.61,11.64c-0.67,4.75-1.34,8.91-1.97,12.58c-0.63,3.67-1.3,7.26-2.02,10.79c1.02,0.01,2.04,0.1,3.05,0.27l3.63,0.49l3.67,0.54
	c1.01,0.12,2.02,0.31,3,0.58c0.27-3.58,0.63-7.21,1.03-10.93c0.39-3.67,0.93-7.88,1.61-12.63l1.66-11.64
	c0.67-4.75,1.25-8.96,1.93-12.63c0.67-3.67,1.34-7.34,2.06-11.02h-3.05c-1.23-0.06-2.46-0.2-3.67-0.4c-1.34-0.18-2.55-0.4-3.63-0.63
	l-2.96-0.72c-0.31,3.76-0.67,7.43-1.07,11.15 M539.12,555.26c-0.27,1.34-0.54,2.87-0.9,4.48l-4.16,21.23
	c-0.94,4.7-1.79,8.87-2.64,12.49s-1.7,7.17-2.6,10.66c1.01,0.06,2.01,0.19,3,0.4l3.63,0.72l3.63,0.72c0.95,0.18,1.9,0.42,2.82,0.72
	c0.45-3.58,0.99-7.25,1.61-10.84c0.63-3.58,1.39-7.84,2.33-12.54l4.21-21.23l0.9-4.48c0.36-0.67,0.22-1.3,0.36-1.79
	s0.36-0.9,0.36-1.16l2.96,0.67l3.72,0.99c1.3,0.31,2.64,0.72,3.94,1.12c1.3,0.4,2.46,0.76,3.49,1.16c0-0.63,0-1.3,0-1.93
	c0.04-0.63,0.13-1.26,0.27-1.88c0.12-0.62,0.28-1.24,0.49-1.84l0.63-1.84l-4.48-0.72l-4.48-0.76l-4.97-0.9l-6.49-1.25l-6.49-1.3
	l-4.97-1.07l-4.48-1.03l-4.93-1.16c0,0.67,0,1.3,0,1.93c-0.12,1.27-0.36,2.53-0.72,3.76l-0.67,1.79l3.94,0.31l4.21,0.45l3.81,0.54
	l3,0.49c-0.05,1.02-0.17,2.04-0.36,3.05 M568.19,599.73c-3.54,3.45-6.72,6.36-9.58,8.96l-0.36,1.16c1.52,0.36,4.43,1.21,8.69,2.42
	l15.94,4.48l10.08,3c3.09,0.9,6.27,1.88,9.54,3c0-0.49,0-0.99,0-1.52c0.05-0.59,0.17-1.18,0.36-1.75c0.16-0.59,0.39-1.16,0.67-1.7
	c0.27-0.54,0.49-1.07,0.76-1.66l-4.48-1.03l-5.46-1.39c-2.1-0.54-4.57-1.25-7.43-2.06l-10.39-3.05l0,0
	c6.94-7.03,13.84-13.97,20.78-20.74c6.93-6.81,14.08-13.63,21.45-20.47l0.45-1.48l-5.87-1.57c-1.7-0.45-3.31-0.85-4.79-1.3
	l-4.48-1.16c-1.34-0.36-2.82-0.81-4.48-1.3l-5.11-1.61l-4.84-1.57l-5.24-1.66c-1.93-0.63-3.99-1.3-6.4-1.97
	c-0.22,0.63-0.22,1.21-0.22,1.79c-0.1,0.61-0.23,1.2-0.4,1.79c-0.17,0.58-0.38,1.15-0.63,1.7l-0.81,1.66
	c4.03,0.81,8.2,1.79,12.41,2.96s8.37,2.37,12.45,3.58l0,0c-3.36,3.54-6.94,7.17-10.7,10.93s-7.52,7.39-11.29,11.06
	c-3.76,3.67-7.43,7.12-10.97,10.39"/>
</svg>
