<?xml version="1.0" encoding="utf-8"?>
<!-- Created by @FCLOGO 2024-10-12 GMT+8 15:33:23 . https://fclogo.top/ -->
<!-- FOR PERSONAL USE ONLY NOT FOR COMMERCIAL USE -->
<svg version="1.1" xmlns="http://www.w3.org/2000/svg" xmlns:xlink="http://www.w3.org/1999/xlink" x="0px" y="0px"
	 viewBox="0 0 800 800" style="enable-background:new 0 0 800 800;" xml:space="preserve">
<path style="fill:#CCCCCC;" d="M348.22,774.3c-0.79,0-1.38-0.22-1.77-0.65c-0.39-0.44-0.53-1.03-0.41-1.79l0.25-1.65
	c0.12-0.75,0.45-1.35,0.98-1.78c0.53-0.44,1.19-0.65,1.98-0.65c0.76,0,1.33,0.2,1.72,0.6c0.39,0.4,0.55,0.94,0.47,1.62h-1.24
	c0.03-0.36-0.06-0.64-0.26-0.84c-0.2-0.2-0.5-0.3-0.89-0.3c-0.42,0-0.76,0.12-1.03,0.35c-0.27,0.23-0.43,0.56-0.5,0.99l-0.26,1.66
	c-0.07,0.44-0.01,0.77,0.19,1c0.19,0.23,0.5,0.35,0.92,0.35c0.39,0,0.72-0.1,0.98-0.3c0.26-0.2,0.44-0.48,0.52-0.85h1.24
	c-0.14,0.69-0.47,1.23-0.99,1.63C349.61,774.1,348.97,774.3,348.22,774.3z M352.8,774.19l1-6.29h1.19l-0.19,1.19
	c0.34-0.87,0.97-1.3,1.91-1.3c0.67,0,1.17,0.21,1.49,0.62c0.32,0.42,0.43,0.99,0.31,1.71l-0.07,0.42h-1.27l0.06-0.32
	c0.07-0.45,0.01-0.8-0.17-1.04c-0.18-0.24-0.48-0.36-0.88-0.36c-0.4,0-0.74,0.12-1.01,0.37c-0.27,0.24-0.43,0.59-0.5,1.03
	l-0.63,3.97H352.8z M361.91,774.3c-0.77,0-1.35-0.22-1.73-0.67c-0.38-0.45-0.51-1.04-0.4-1.77l0.25-1.65
	c0.08-0.49,0.26-0.92,0.52-1.28c0.26-0.37,0.6-0.65,1.01-0.85c0.41-0.2,0.87-0.3,1.38-0.3c0.77,0,1.35,0.22,1.73,0.67
	c0.39,0.45,0.52,1.04,0.39,1.77l-0.17,1.12h-3.85l-0.09,0.53c-0.15,0.95,0.22,1.43,1.11,1.43c0.72,0,1.17-0.25,1.37-0.74h1.22
	c-0.17,0.53-0.5,0.96-1.01,1.28C363.16,774.14,362.58,774.3,361.91,774.3z M361.23,770.22l-0.05,0.29l2.65-0.01l0.05-0.29
	c0.07-0.47,0.01-0.82-0.17-1.07c-0.18-0.25-0.49-0.37-0.92-0.37c-0.44,0-0.8,0.13-1.06,0.38
	C361.48,769.39,361.31,769.75,361.23,770.22z M368.33,774.3c-0.63,0-1.1-0.21-1.41-0.64c-0.31-0.42-0.4-1-0.27-1.73l0.27-1.77
	c0.11-0.73,0.39-1.31,0.84-1.74c0.44-0.43,0.98-0.64,1.61-0.64c0.47,0,0.83,0.12,1.09,0.35c0.26,0.24,0.39,0.56,0.38,0.96h0.02
	l0.17-1.2h1.24l-1,6.29h-1.22l0.19-1.2h-0.02c-0.12,0.41-0.35,0.73-0.69,0.97C369.2,774.18,368.8,774.3,368.33,774.3z
	 M368.93,773.23c0.39,0,0.72-0.12,0.98-0.36c0.26-0.24,0.43-0.57,0.5-1.01l0.25-1.65c0.07-0.43,0.01-0.76-0.18-1
	c-0.19-0.24-0.47-0.36-0.86-0.36c-0.4,0-0.72,0.12-0.98,0.35c-0.26,0.24-0.42,0.57-0.49,1.01l-0.25,1.65
	c-0.07,0.44-0.01,0.78,0.17,1.01C368.24,773.11,368.53,773.23,368.93,773.23z M376.35,774.19c-0.57,0-0.99-0.16-1.26-0.47
	c-0.27-0.31-0.36-0.75-0.27-1.32l0.54-3.39h-1.74l0.17-1.12h1.74l0.27-1.72h1.24l-0.27,1.72h2.47l-0.18,1.12h-2.46l-0.54,3.39
	c-0.08,0.44,0.1,0.66,0.53,0.66h1.72l-0.17,1.12H376.35z M382.5,774.3c-0.77,0-1.35-0.22-1.73-0.67c-0.38-0.45-0.52-1.04-0.4-1.77
	l0.25-1.65c0.08-0.49,0.26-0.92,0.52-1.28c0.26-0.37,0.6-0.65,1.01-0.85c0.41-0.2,0.87-0.3,1.38-0.3c0.77,0,1.35,0.22,1.73,0.67
	c0.39,0.45,0.52,1.04,0.39,1.77l-0.17,1.12h-3.85l-0.09,0.53c-0.15,0.95,0.22,1.43,1.11,1.43c0.72,0,1.17-0.25,1.37-0.74h1.22
	c-0.17,0.53-0.5,0.96-1.01,1.28C383.76,774.14,383.18,774.3,382.5,774.3z M381.83,770.22l-0.05,0.29l2.65-0.01l0.05-0.29
	c0.07-0.47,0.01-0.82-0.17-1.07c-0.18-0.25-0.49-0.37-0.92-0.37c-0.44,0-0.8,0.13-1.06,0.38
	C382.08,769.39,381.91,769.75,381.83,770.22z M388.92,774.3c-0.63,0-1.1-0.21-1.4-0.64c-0.3-0.42-0.39-1-0.28-1.73l0.27-1.77
	c0.11-0.73,0.39-1.31,0.84-1.74c0.44-0.43,0.98-0.64,1.61-0.64c0.47,0,0.83,0.12,1.09,0.35c0.26,0.24,0.39,0.56,0.38,0.96h0.02
	l0.21-1.47l0.3-1.8h1.24l-1.33,8.35h-1.22l0.19-1.2h-0.02c-0.12,0.41-0.35,0.73-0.69,0.97C389.8,774.18,389.4,774.3,388.92,774.3z
	 M389.53,773.23c0.39,0,0.72-0.12,0.98-0.36c0.26-0.24,0.43-0.57,0.5-1.01l0.25-1.65c0.08-0.43,0.02-0.76-0.17-1
	c-0.19-0.24-0.48-0.36-0.87-0.36c-0.4,0-0.72,0.12-0.98,0.35c-0.26,0.24-0.42,0.57-0.49,1.01l-0.25,1.65
	c-0.08,0.44-0.02,0.78,0.16,1.01C388.83,773.11,389.13,773.23,389.53,773.23z M401.02,774.3c-0.47,0-0.84-0.12-1.1-0.35
	c-0.26-0.23-0.39-0.56-0.38-0.97h-0.01l-0.19,1.2h-1.22l1.33-8.35h1.24l-0.29,1.8l-0.27,1.47h0.05c0.12-0.41,0.35-0.73,0.69-0.97
	c0.34-0.23,0.74-0.35,1.21-0.35c0.63,0,1.1,0.21,1.4,0.64c0.3,0.43,0.39,1.01,0.28,1.74l-0.27,1.77c-0.11,0.73-0.39,1.31-0.84,1.73
	C402.18,774.09,401.64,774.3,401.02,774.3z M400.77,773.23c0.4,0,0.72-0.12,0.98-0.35c0.26-0.23,0.42-0.57,0.5-1.01l0.25-1.65
	c0.07-0.43,0.01-0.77-0.17-1.01c-0.18-0.24-0.47-0.35-0.87-0.35c-0.39,0-0.72,0.12-0.98,0.36c-0.26,0.24-0.43,0.57-0.5,1l-0.25,1.65
	c-0.07,0.44-0.01,0.77,0.17,1.01C400.08,773.11,400.37,773.23,400.77,773.23z M405.47,776.25l0.17-1.06h1.93
	c0.64,0,1.01-0.3,1.1-0.9l0.1-0.67l0.21-1.19h-0.03c-0.12,0.42-0.35,0.74-0.68,0.97c-0.33,0.23-0.73,0.34-1.2,0.34
	c-0.63,0-1.09-0.2-1.4-0.6c-0.31-0.4-0.41-0.94-0.3-1.63l0.58-3.6h1.24l-0.56,3.48c-0.06,0.41,0,0.73,0.18,0.96
	c0.18,0.23,0.47,0.34,0.85,0.34c0.39,0,0.72-0.12,0.98-0.37c0.27-0.24,0.43-0.58,0.49-1.02l0.54-3.4h1.24l-1.01,6.41
	c-0.1,0.6-0.37,1.08-0.81,1.42c-0.44,0.35-1,0.52-1.67,0.52H405.47z M417.79,770.09h3.22l0.54-1.85h-5.47l-1.71,6.44h2.15l0.59-2.1
	h3.03l0.44-1.71h-3.03L417.79,770.09z M424.23,772.92c-0.59,0-1.02-0.39-1.02-1.12c0-0.88,0.63-1.76,1.61-1.76
	c0.49,0,0.88,0.24,1.02,0.78l1.95-0.83c-0.29-1.17-1.27-1.9-2.64-1.9c-2.78,0-4.15,2.15-4.15,3.9c0,1.76,1.27,2.83,3.07,2.83
	c1.37,0,2.34-0.59,2.98-1.42l-1.51-1.17C425.16,772.67,424.72,772.92,424.23,772.92z M430.91,768.23h-2.15l-1.76,6.44h5.12
	l0.49-1.85h-2.93L430.91,768.23z M439.75,771.01c0-1.66-1.32-2.93-3.22-2.93c-2.2,0-3.81,1.81-3.81,3.81c0,1.66,1.32,2.93,3.22,2.93
	C438.14,774.82,439.75,773.01,439.75,771.01z M434.92,771.7c0-0.83,0.59-1.71,1.51-1.71c0.78,0,1.17,0.54,1.17,1.22
	c0,0.83-0.59,1.71-1.51,1.71C435.31,772.92,434.92,772.38,434.92,771.7z M443.21,772.23h1.07l-0.2,0.68
	c-0.15,0.05-0.34,0.1-0.59,0.1c-0.68,0-1.27-0.39-1.27-1.22c0-1.02,0.73-1.9,1.95-1.9c0.59,0,1.12,0.24,1.51,0.59l1.37-1.37
	c-0.44-0.54-1.51-1.07-2.73-1.07c-2.59,0-4.29,1.76-4.29,3.86c0,2.05,1.61,2.88,3.22,2.88c0.93,0,1.85-0.29,2.49-0.68l0.93-3.32
	h-3.12L443.21,772.23z M450.78,768.08c-2.2,0-3.81,1.81-3.81,3.81c0,1.66,1.32,2.93,3.22,2.93c2.2,0,3.81-1.81,3.81-3.81
	C454,769.35,452.68,768.08,450.78,768.08z M450.34,772.92c-0.78,0-1.17-0.54-1.17-1.22c0-0.83,0.59-1.71,1.51-1.71
	c0.78,0,1.17,0.54,1.17,1.22C451.85,772.04,451.27,772.92,450.34,772.92z M437.94,767.5c-0.05,0.29,0.1,0.49,0.44,0.49
	s0.54-0.2,0.63-0.49c0.05-0.24-0.1-0.49-0.44-0.49C438.24,767.01,437.99,767.25,437.94,767.5z M432.13,765.5
	c-0.44,0-0.73,0.24-0.78,0.59c-0.05,0.34,0.1,0.59,0.54,0.59s0.73-0.24,0.78-0.59C432.77,765.74,432.57,765.5,432.13,765.5z
	 M433.01,767.3c-0.1,0.54,0.15,0.88,0.83,0.88c0.63,0,1.07-0.39,1.17-0.88s-0.15-0.88-0.83-0.88
	C433.5,766.43,433.11,766.82,433.01,767.3z M439.6,777.55l-2.44-1.81h-1.51l4.25,3.17l1.61-3.17h-0.98L439.6,777.55z M425.84,767.16
	l-2-1.46l23.13-2.78l-2.15,4.25h1.02l2.68-5.32l-26.99,3.22l2.78,2.1H425.84z M338.72,785.79l0.61-3.83h2.32l-0.08,0.52h-1.76
	l-0.18,1.14h1.63l-0.08,0.52h-1.62l-0.26,1.64H338.72z M342.97,785.84c-0.36,0-0.62-0.1-0.8-0.3c-0.17-0.2-0.23-0.47-0.18-0.82
	l0.27-1.7c0.06-0.34,0.2-0.61,0.44-0.82c0.24-0.2,0.54-0.3,0.89-0.3c0.36,0,0.62,0.1,0.8,0.3c0.17,0.2,0.24,0.47,0.18,0.81
	l-0.27,1.71c-0.06,0.34-0.2,0.62-0.44,0.82C343.63,785.74,343.33,785.84,342.97,785.84z M343.05,785.33c0.19,0,0.35-0.05,0.47-0.16
	c0.12-0.11,0.19-0.26,0.23-0.46l0.27-1.7c0.03-0.2,0.01-0.35-0.08-0.46c-0.08-0.11-0.22-0.16-0.41-0.16s-0.35,0.05-0.46,0.16
	c-0.12,0.1-0.19,0.26-0.22,0.46l-0.27,1.7c-0.03,0.2-0.01,0.35,0.08,0.46C342.72,785.28,342.86,785.33,343.05,785.33z M345,785.79
	l0.61-3.83h1.2c0.24,0,0.44,0.05,0.6,0.14c0.16,0.09,0.28,0.22,0.36,0.39c0.07,0.17,0.09,0.37,0.05,0.59
	c-0.04,0.26-0.14,0.48-0.3,0.67c-0.16,0.19-0.37,0.32-0.6,0.39l0.54,1.64h-0.62l-0.48-1.57h-0.54l-0.25,1.57H345z M345.89,783.71
	h0.64c0.19,0,0.35-0.06,0.48-0.17c0.13-0.11,0.21-0.26,0.24-0.45c0.03-0.19,0-0.35-0.09-0.46c-0.09-0.11-0.24-0.17-0.43-0.17h-0.64
	L345.89,783.71z M349.54,785.79l0.61-3.83h1.25c0.37,0,0.65,0.1,0.84,0.31c0.19,0.21,0.26,0.49,0.2,0.84
	c-0.04,0.23-0.12,0.44-0.25,0.61s-0.29,0.31-0.49,0.4c-0.2,0.09-0.42,0.14-0.66,0.14h-0.69l-0.24,1.52H349.54z M350.43,783.75h0.69
	c0.19,0,0.36-0.06,0.49-0.18c0.14-0.12,0.22-0.27,0.25-0.47c0.03-0.2,0-0.35-0.1-0.47c-0.1-0.12-0.25-0.18-0.44-0.18h-0.69
	L350.43,783.75z M352.75,785.79l0.61-3.83h2.25l-0.08,0.5h-1.7l-0.17,1.09h1.51l-0.08,0.5h-1.51l-0.19,1.24h1.69l-0.08,0.5H352.75z
	 M355.84,785.79l0.61-3.83h1.2c0.24,0,0.44,0.05,0.6,0.14c0.16,0.09,0.28,0.22,0.36,0.39c0.07,0.17,0.09,0.37,0.05,0.59
	c-0.04,0.26-0.14,0.48-0.3,0.67c-0.16,0.19-0.37,0.32-0.6,0.39l0.54,1.64h-0.62l-0.48-1.57h-0.54l-0.25,1.57H355.84z M356.74,783.71
	h0.64c0.19,0,0.35-0.06,0.48-0.17c0.13-0.11,0.21-0.26,0.24-0.45c0.03-0.19,0-0.35-0.09-0.46c-0.09-0.11-0.24-0.17-0.43-0.17h-0.64
	L356.74,783.71z M360.13,785.84c-0.39,0-0.67-0.1-0.87-0.29c-0.19-0.19-0.26-0.45-0.22-0.78h0.57c-0.03,0.17,0.01,0.31,0.12,0.41
	c0.11,0.1,0.27,0.15,0.48,0.15c0.2,0,0.37-0.05,0.5-0.15c0.13-0.1,0.21-0.23,0.24-0.4c0.02-0.15,0-0.28-0.06-0.39
	c-0.06-0.11-0.16-0.18-0.29-0.22l-0.46-0.14c-0.27-0.08-0.46-0.22-0.59-0.41c-0.13-0.19-0.17-0.42-0.13-0.68
	c0.04-0.21,0.11-0.39,0.23-0.55c0.12-0.16,0.27-0.28,0.46-0.37c0.19-0.09,0.4-0.13,0.64-0.13c0.35,0,0.62,0.1,0.8,0.29
	c0.18,0.19,0.25,0.44,0.2,0.76h-0.57c0.03-0.17,0-0.3-0.09-0.4c-0.09-0.1-0.23-0.14-0.42-0.14c-0.19,0-0.34,0.04-0.46,0.13
	c-0.12,0.09-0.19,0.21-0.21,0.38c-0.02,0.15-0.01,0.28,0.05,0.39c0.06,0.11,0.16,0.18,0.29,0.22l0.47,0.15
	c0.26,0.08,0.46,0.22,0.58,0.41c0.12,0.19,0.17,0.42,0.12,0.69c-0.04,0.22-0.12,0.41-0.24,0.57c-0.13,0.16-0.29,0.29-0.49,0.38
	C360.6,785.79,360.38,785.84,360.13,785.84z M363.27,785.84c-0.36,0-0.62-0.1-0.8-0.3c-0.17-0.2-0.23-0.47-0.18-0.82l0.27-1.7
	c0.06-0.34,0.2-0.61,0.44-0.82c0.24-0.2,0.54-0.3,0.89-0.3c0.36,0,0.62,0.1,0.8,0.3c0.17,0.2,0.24,0.47,0.18,0.81l-0.27,1.71
	c-0.06,0.34-0.2,0.62-0.44,0.82C363.92,785.74,363.62,785.84,363.27,785.84z M363.34,785.33c0.19,0,0.35-0.05,0.47-0.16
	c0.12-0.11,0.19-0.26,0.23-0.46l0.27-1.7c0.03-0.2,0.01-0.35-0.08-0.46c-0.08-0.11-0.22-0.16-0.41-0.16c-0.19,0-0.35,0.05-0.46,0.16
	c-0.12,0.1-0.19,0.26-0.22,0.46l-0.27,1.7c-0.03,0.2-0.01,0.35,0.08,0.46C363.02,785.28,363.15,785.33,363.34,785.33z
	 M365.28,785.79l0.61-3.83h0.71l0.62,3.19c0.01-0.1,0.02-0.22,0.03-0.36c0.01-0.14,0.03-0.29,0.04-0.44
	c0.02-0.15,0.04-0.29,0.06-0.41l0.31-1.98h0.52l-0.61,3.83h-0.71l-0.61-3.19c-0.01,0.09-0.02,0.21-0.03,0.34s-0.03,0.28-0.04,0.42
	c-0.02,0.15-0.04,0.28-0.06,0.41l-0.31,2.01H365.28z M368.23,785.79l1.59-3.83h0.75l0.37,3.83h-0.56l-0.07-0.97h-1.09l-0.39,0.97
	H368.23z M369.39,784.34h0.87l-0.09-1.1c-0.02-0.2-0.03-0.37-0.04-0.51c-0.01-0.14-0.01-0.24-0.01-0.3c-0.02,0.06-0.05,0.16-0.1,0.3
	c-0.05,0.14-0.11,0.31-0.19,0.5L369.39,784.34z M371.72,785.79l0.61-3.83h0.57l-0.52,3.31h1.67l-0.08,0.52H371.72z M376.68,785.84
	c-0.37,0-0.63-0.1-0.8-0.3c-0.17-0.2-0.22-0.48-0.17-0.82l0.44-2.76h0.57l-0.44,2.76c-0.03,0.2-0.01,0.35,0.07,0.46
	c0.08,0.11,0.21,0.17,0.41,0.17c0.19,0,0.35-0.06,0.46-0.17c0.12-0.11,0.19-0.27,0.22-0.46l0.44-2.76h0.57l-0.44,2.76
	c-0.06,0.35-0.2,0.62-0.43,0.82C377.35,785.74,377.05,785.84,376.68,785.84z M379.84,785.84c-0.39,0-0.67-0.1-0.87-0.29
	c-0.19-0.19-0.26-0.45-0.22-0.78h0.57c-0.03,0.17,0.01,0.31,0.12,0.41c0.11,0.1,0.27,0.15,0.48,0.15c0.2,0,0.37-0.05,0.5-0.15
	c0.13-0.1,0.21-0.23,0.24-0.4c0.02-0.15,0-0.28-0.06-0.39c-0.06-0.11-0.16-0.18-0.29-0.22l-0.46-0.14
	c-0.27-0.08-0.46-0.22-0.59-0.41c-0.13-0.19-0.17-0.42-0.13-0.68c0.04-0.21,0.11-0.39,0.23-0.55s0.27-0.28,0.46-0.37
	c0.19-0.09,0.4-0.13,0.64-0.13c0.35,0,0.62,0.1,0.8,0.29c0.18,0.19,0.25,0.44,0.2,0.76h-0.57c0.03-0.17,0-0.3-0.09-0.4
	c-0.09-0.1-0.23-0.14-0.42-0.14c-0.19,0-0.34,0.04-0.46,0.13c-0.12,0.09-0.19,0.21-0.21,0.38c-0.02,0.15-0.01,0.28,0.05,0.39
	c0.06,0.11,0.16,0.18,0.29,0.22l0.47,0.15c0.26,0.08,0.46,0.22,0.58,0.41c0.12,0.19,0.17,0.42,0.12,0.69
	c-0.04,0.22-0.12,0.41-0.24,0.57c-0.13,0.16-0.29,0.29-0.49,0.38C380.31,785.79,380.09,785.84,379.84,785.84z M381.91,785.79
	l0.61-3.83h2.25l-0.08,0.5h-1.7l-0.17,1.09h1.51l-0.08,0.5h-1.51l-0.19,1.24h1.69l-0.08,0.5H381.91z M386.94,785.84
	c-0.36,0-0.62-0.1-0.8-0.3c-0.17-0.2-0.23-0.47-0.18-0.82l0.27-1.7c0.06-0.34,0.2-0.61,0.44-0.82c0.24-0.2,0.54-0.3,0.89-0.3
	c0.36,0,0.62,0.1,0.8,0.3c0.17,0.2,0.24,0.47,0.18,0.81l-0.27,1.71c-0.06,0.34-0.2,0.62-0.44,0.82
	C387.6,785.74,387.3,785.84,386.94,785.84z M387.02,785.33c0.19,0,0.35-0.05,0.47-0.16c0.12-0.11,0.19-0.26,0.23-0.46l0.27-1.7
	c0.03-0.2,0.01-0.35-0.08-0.46c-0.08-0.11-0.22-0.16-0.41-0.16c-0.19,0-0.35,0.05-0.46,0.16c-0.12,0.1-0.19,0.26-0.22,0.46
	l-0.27,1.7c-0.03,0.2-0.01,0.35,0.08,0.46C386.7,785.28,386.83,785.33,387.02,785.33z M388.95,785.79l0.61-3.83h0.71l0.62,3.19
	c0.01-0.1,0.02-0.22,0.03-0.36c0.01-0.14,0.03-0.29,0.04-0.44c0.02-0.15,0.04-0.29,0.06-0.41l0.31-1.98h0.52l-0.61,3.83h-0.71
	l-0.61-3.19c-0.01,0.09-0.02,0.21-0.03,0.34c-0.01,0.13-0.03,0.28-0.04,0.42c-0.02,0.15-0.04,0.28-0.06,0.41l-0.31,2.01H388.95z
	 M392.25,785.79l0.61-3.83h0.57l-0.52,3.31h1.67l-0.08,0.52H392.25z M396.12,785.79l0.22-1.41l-0.75-2.42h0.58l0.45,1.45
	c0.03,0.09,0.05,0.18,0.07,0.27c0.02,0.08,0.03,0.15,0.03,0.19c0.02-0.04,0.05-0.1,0.09-0.19c0.04-0.08,0.09-0.17,0.14-0.27
	l0.9-1.45h0.6l-1.53,2.42l-0.22,1.41H396.12z M399.22,785.79l0.61-3.83h0.71l0.62,3.19c0.01-0.1,0.02-0.22,0.03-0.36
	c0.01-0.14,0.03-0.29,0.04-0.44c0.02-0.15,0.04-0.29,0.06-0.41l0.31-1.98h0.52l-0.61,3.83h-0.71l-0.61-3.19
	c-0.01,0.09-0.02,0.21-0.03,0.34c-0.01,0.13-0.03,0.28-0.04,0.42c-0.02,0.15-0.04,0.28-0.06,0.41l-0.31,2.01H399.22z M403.51,785.84
	c-0.36,0-0.62-0.1-0.8-0.3c-0.18-0.2-0.23-0.47-0.18-0.82l0.27-1.7c0.06-0.34,0.2-0.61,0.44-0.82c0.24-0.2,0.54-0.3,0.89-0.3
	c0.36,0,0.62,0.1,0.8,0.3c0.17,0.2,0.24,0.47,0.18,0.81l-0.27,1.71c-0.06,0.34-0.2,0.62-0.44,0.82
	C404.16,785.74,403.86,785.84,403.51,785.84z M403.58,785.33c0.19,0,0.35-0.05,0.47-0.16c0.12-0.11,0.19-0.26,0.23-0.46l0.27-1.7
	c0.03-0.2,0.01-0.35-0.08-0.46c-0.08-0.11-0.22-0.16-0.41-0.16c-0.19,0-0.35,0.05-0.46,0.16c-0.12,0.1-0.19,0.26-0.22,0.46
	l-0.27,1.7c-0.03,0.2-0.01,0.35,0.08,0.46C403.26,785.28,403.4,785.33,403.58,785.33z M406.38,785.79l0.52-3.31h-1.02l0.08-0.52
	h2.62l-0.08,0.52h-1.03l-0.52,3.31H406.38z M409.52,785.79l0.61-3.83h2.32l-0.08,0.52h-1.76l-0.18,1.14h1.63l-0.08,0.52h-1.62
	l-0.26,1.64H409.52z M413.77,785.84c-0.36,0-0.62-0.1-0.8-0.3c-0.18-0.2-0.23-0.47-0.18-0.82l0.27-1.7c0.06-0.34,0.2-0.61,0.44-0.82
	c0.24-0.2,0.54-0.3,0.89-0.3c0.36,0,0.62,0.1,0.8,0.3c0.17,0.2,0.24,0.47,0.18,0.81l-0.27,1.71c-0.06,0.34-0.2,0.62-0.44,0.82
	C414.42,785.74,414.13,785.84,413.77,785.84z M413.85,785.33c0.19,0,0.35-0.05,0.47-0.16c0.12-0.11,0.19-0.26,0.23-0.46l0.27-1.7
	c0.03-0.2,0.01-0.35-0.08-0.46c-0.08-0.11-0.22-0.16-0.41-0.16c-0.19,0-0.35,0.05-0.46,0.16c-0.12,0.1-0.19,0.26-0.22,0.46
	l-0.27,1.7c-0.03,0.2-0.01,0.35,0.08,0.46C413.52,785.28,413.66,785.33,413.85,785.33z M415.8,785.79l0.61-3.83h1.2
	c0.24,0,0.44,0.05,0.6,0.14c0.16,0.09,0.28,0.22,0.36,0.39c0.07,0.17,0.09,0.37,0.05,0.59c-0.04,0.26-0.14,0.48-0.3,0.67
	c-0.16,0.19-0.37,0.32-0.6,0.39l0.54,1.64h-0.62l-0.48-1.57h-0.54l-0.25,1.57H415.8z M416.69,783.71h0.64
	c0.19,0,0.35-0.06,0.48-0.17c0.13-0.11,0.21-0.26,0.24-0.45c0.03-0.19,0-0.35-0.09-0.46c-0.09-0.11-0.24-0.17-0.43-0.17h-0.64
	L416.69,783.71z M420.91,785.84c-0.36,0-0.63-0.1-0.81-0.3c-0.18-0.2-0.24-0.47-0.19-0.82l0.27-1.7c0.06-0.35,0.21-0.62,0.45-0.82
	s0.55-0.3,0.91-0.3c0.36,0,0.63,0.1,0.81,0.3c0.18,0.2,0.24,0.47,0.19,0.82h-0.57c0.03-0.2,0-0.35-0.09-0.46
	c-0.09-0.11-0.23-0.16-0.42-0.16c-0.19,0-0.35,0.05-0.48,0.16c-0.12,0.1-0.2,0.26-0.23,0.45l-0.27,1.71c-0.03,0.2,0,0.35,0.09,0.46
	c0.09,0.11,0.23,0.16,0.42,0.16c0.19,0,0.35-0.05,0.47-0.16c0.12-0.11,0.2-0.26,0.23-0.46h0.57c-0.03,0.23-0.11,0.43-0.24,0.59
	c-0.12,0.17-0.28,0.3-0.47,0.39C421.36,785.79,421.14,785.84,420.91,785.84z M424.03,785.84c-0.36,0-0.62-0.1-0.8-0.3
	c-0.18-0.2-0.23-0.47-0.18-0.82l0.27-1.7c0.06-0.34,0.2-0.61,0.44-0.82c0.24-0.2,0.54-0.3,0.89-0.3c0.36,0,0.62,0.1,0.8,0.3
	c0.17,0.2,0.24,0.47,0.18,0.81l-0.27,1.71c-0.06,0.34-0.2,0.62-0.44,0.82C424.69,785.74,424.39,785.84,424.03,785.84z
	 M424.11,785.33c0.19,0,0.35-0.05,0.47-0.16c0.12-0.11,0.19-0.26,0.23-0.46l0.27-1.7c0.03-0.2,0.01-0.35-0.08-0.46
	c-0.08-0.11-0.22-0.16-0.41-0.16c-0.19,0-0.35,0.05-0.46,0.16c-0.12,0.1-0.19,0.26-0.22,0.46l-0.27,1.7
	c-0.03,0.2-0.01,0.35,0.08,0.46C423.79,785.28,423.92,785.33,424.11,785.33z M425.97,785.79l0.61-3.83h0.69l0.18,1.23
	c0.02,0.12,0.04,0.23,0.05,0.33c0.01,0.1,0.02,0.18,0.03,0.24c0.02-0.06,0.05-0.14,0.09-0.24c0.04-0.11,0.09-0.22,0.15-0.34
	l0.57-1.22h0.71l-0.61,3.83h-0.54l0.2-1.29c0.02-0.17,0.06-0.35,0.1-0.55c0.04-0.2,0.09-0.4,0.14-0.61c0.05-0.2,0.1-0.4,0.14-0.59
	c0.05-0.19,0.09-0.35,0.13-0.49l-0.86,1.86h-0.55l-0.28-1.86c0,0.14-0.01,0.29-0.02,0.47c-0.01,0.18-0.02,0.37-0.04,0.57
	c-0.02,0.2-0.04,0.41-0.06,0.61c-0.02,0.2-0.05,0.4-0.08,0.57l-0.2,1.29H425.97z M429.11,785.79l0.61-3.83h0.69l0.18,1.23
	c0.02,0.12,0.04,0.23,0.05,0.33c0.01,0.1,0.02,0.18,0.03,0.24c0.02-0.06,0.05-0.14,0.09-0.24c0.04-0.11,0.09-0.22,0.15-0.34
	l0.57-1.22h0.71l-0.61,3.83h-0.54l0.2-1.29c0.02-0.17,0.06-0.35,0.1-0.55c0.04-0.2,0.09-0.4,0.14-0.61c0.05-0.2,0.1-0.4,0.14-0.59
	c0.05-0.19,0.09-0.35,0.13-0.49l-0.86,1.86h-0.55l-0.28-1.86c0,0.14-0.01,0.29-0.02,0.47c-0.01,0.18-0.02,0.37-0.04,0.57
	c-0.02,0.2-0.04,0.41-0.06,0.61c-0.02,0.2-0.05,0.4-0.08,0.57l-0.2,1.29H429.11z M432.41,785.79l0.61-3.83h2.25l-0.08,0.5h-1.7
	l-0.17,1.09h1.51l-0.08,0.5h-1.51l-0.19,1.24h1.69l-0.08,0.5H432.41z M435.51,785.79l0.61-3.83h1.2c0.24,0,0.44,0.05,0.6,0.14
	c0.16,0.09,0.28,0.22,0.36,0.39c0.07,0.17,0.09,0.37,0.05,0.59c-0.04,0.26-0.14,0.48-0.3,0.67c-0.16,0.19-0.37,0.32-0.6,0.39
	l0.54,1.64h-0.62l-0.48-1.57h-0.54l-0.25,1.57H435.51z M436.4,783.71h0.64c0.19,0,0.35-0.06,0.48-0.17
	c0.13-0.11,0.21-0.26,0.24-0.45c0.03-0.19,0-0.35-0.09-0.46c-0.09-0.11-0.24-0.17-0.43-0.17h-0.64L436.4,783.71z M439.8,785.84
	c-0.36,0-0.63-0.1-0.81-0.3c-0.18-0.2-0.24-0.47-0.19-0.82l0.27-1.7c0.06-0.35,0.21-0.62,0.45-0.82s0.55-0.3,0.91-0.3
	c0.36,0,0.63,0.1,0.81,0.3c0.18,0.2,0.24,0.47,0.19,0.82h-0.57c0.03-0.2,0-0.35-0.09-0.46c-0.09-0.11-0.23-0.16-0.42-0.16
	c-0.19,0-0.35,0.05-0.47,0.16c-0.12,0.1-0.2,0.26-0.23,0.45l-0.27,1.71c-0.03,0.2,0,0.35,0.09,0.46c0.09,0.11,0.23,0.16,0.42,0.16
	s0.35-0.05,0.47-0.16c0.12-0.11,0.2-0.26,0.23-0.46h0.57c-0.03,0.23-0.11,0.43-0.24,0.59c-0.12,0.17-0.28,0.3-0.47,0.39
	C440.25,785.79,440.04,785.84,439.8,785.84z M441.88,785.79l0.08-0.5h0.78l0.45-2.82h-0.78l0.08-0.5h2.13l-0.08,0.5h-0.78
	l-0.45,2.82h0.78l-0.08,0.5H441.88z M444.74,785.79l1.59-3.83h0.75l0.37,3.83h-0.56l-0.07-0.97h-1.09l-0.39,0.97H444.74z
	 M445.9,784.34h0.87l-0.09-1.1c-0.02-0.2-0.03-0.37-0.04-0.51c-0.01-0.14-0.01-0.24-0.01-0.3c-0.02,0.06-0.05,0.16-0.1,0.3
	c-0.05,0.14-0.11,0.31-0.19,0.5L445.9,784.34z M448.24,785.79l0.61-3.83h0.57l-0.52,3.31h1.67l-0.08,0.52H448.24z M453.19,785.84
	c-0.37,0-0.63-0.1-0.8-0.3c-0.17-0.2-0.22-0.48-0.17-0.82l0.44-2.76h0.57l-0.44,2.76c-0.03,0.2-0.01,0.35,0.07,0.46
	c0.08,0.11,0.21,0.17,0.41,0.17c0.19,0,0.35-0.06,0.46-0.17c0.12-0.11,0.19-0.27,0.22-0.46l0.44-2.76h0.57l-0.44,2.76
	c-0.06,0.35-0.2,0.62-0.43,0.82C453.86,785.74,453.56,785.84,453.19,785.84z M456.36,785.84c-0.39,0-0.67-0.1-0.87-0.29
	c-0.19-0.19-0.26-0.45-0.22-0.78h0.57c-0.03,0.17,0.01,0.31,0.12,0.41c0.11,0.1,0.27,0.15,0.48,0.15c0.2,0,0.37-0.05,0.5-0.15
	s0.21-0.23,0.24-0.4c0.02-0.15,0-0.28-0.06-0.39c-0.06-0.11-0.16-0.18-0.29-0.22l-0.46-0.14c-0.27-0.08-0.46-0.22-0.59-0.41
	c-0.13-0.19-0.17-0.42-0.13-0.68c0.04-0.21,0.11-0.39,0.23-0.55c0.12-0.16,0.27-0.28,0.46-0.37c0.19-0.09,0.4-0.13,0.64-0.13
	c0.35,0,0.62,0.1,0.8,0.29c0.18,0.19,0.25,0.44,0.2,0.76h-0.57c0.03-0.17,0-0.3-0.09-0.4c-0.09-0.1-0.23-0.14-0.42-0.14
	c-0.19,0-0.34,0.04-0.46,0.13c-0.12,0.09-0.19,0.21-0.21,0.38c-0.02,0.15-0.01,0.28,0.05,0.39c0.06,0.11,0.16,0.18,0.29,0.22
	l0.47,0.15c0.26,0.08,0.46,0.22,0.58,0.41c0.12,0.19,0.17,0.42,0.12,0.69c-0.04,0.22-0.12,0.41-0.24,0.57
	c-0.13,0.16-0.29,0.29-0.49,0.38C456.82,785.79,456.6,785.84,456.36,785.84z M458.42,785.79l0.61-3.83h2.25l-0.08,0.5h-1.7
	l-0.17,1.09h1.51l-0.08,0.5h-1.51l-0.19,1.24h1.69l-0.08,0.5H458.42z"/>
<g>
	<g>
		<path style="fill:#ACA34E;" d="M365.63,719.62L365.63,719.62c-16.36-9.37-33.19-17.89-50.43-25.53
			c-38.69-18.23-84.6-40.31-120.51-77.61C135.44,554.81,95.71,495.56,89,414.01c-0.45-5.19-0.67-10.39-0.67-15.54
			c0.31-60.59,26.87-117.6,26.38-170.18c0.42-21.8-4.92-43.32-15.5-62.38c-1.99-3.59-1.49-8.05,1.25-11.11l92.17-101.75
			c2.79-3.08,7.3-3.92,11.02-2.06c51.14,25.93,120.47,42.05,196.6,42.05s145.5-16.12,196.6-42.05c3.72-1.88,8.23-1.03,11.02,2.06
			l92.17,101.88c2.77,3.04,3.28,7.52,1.25,11.11c-10.55,19.07-15.89,40.59-15.5,62.38c-0.31,52.44,26.11,109.45,26.38,170.18
			c0,5.15-0.22,10.35-0.63,15.5c-6.76,81.55-46.44,140.85-105.69,202.51c-26.87,28.08-59.52,47.43-90.42,63.06
			s-60.32,27.63-80.61,40.08c-9.93,6.83-18.74,15.17-26.11,24.72c-2.09,4.7-7.6,6.81-12.3,4.72c-2.1-0.94-3.78-2.62-4.72-4.72
			c-7.37-9.55-16.17-17.89-26.11-24.72"/>
		<g>
			<path style="fill:#005CA9;" d="M693.49,398.47c0.01-8.7-0.56-17.39-1.7-26.02H108.7c-1.12,8.63-1.69,17.32-1.7,26.02
				c0,3.67,0,7.3,0.4,10.93h585.69C693.31,405.77,693.49,402.14,693.49,398.47"/>
			<path style="fill:#005CA9;" d="M675.44,292.47h-550.4c-2.64,12.41-5.6,24.72-8.37,36.95h567.19
				C681.09,317.19,678.09,304.87,675.44,292.47"/>
			<path style="fill:#005CA9;" d="M686.33,452.48H114.16c3.13,12.66,7.3,25.05,12.45,37.04h547.26
				c5.15-11.96,9.31-24.31,12.45-36.95"/>
			<path style="fill:#005CA9;" d="M217.62,612.58c22.83,20.07,48.33,36.87,75.77,49.93c30.09,15.27,59.52,27.14,81.87,40.8
				c9.29,5.4,17.71,12.16,24.99,20.06l0,0c7.28-7.9,15.7-14.67,24.99-20.06c16.94-9.71,34.37-18.55,52.22-26.47
				c34.98-16.39,73.98-35.38,105.42-64.27L217.62,612.58z"/>
			<path style="fill:#005CA9;" d="M650.45,532.55H150.04c8.51,12.83,17.73,25.16,27.63,36.95h445.15
				C632.72,557.72,641.95,545.38,650.45,532.55"/>
			<path style="fill:#FFFFFF;" d="M668.23,249.48H132.26c-1.6,14.45-4,28.81-7.21,42.99h550.4c-3.2-14.15-5.61-28.48-7.21-42.9"/>
			<path style="fill:#FFFFFF;" d="M683.86,329.33H116.67c-3.27,14.51-6.22,28.84-7.97,43.13h583.09
				C689.89,357.95,687.24,343.56,683.86,329.33"/>
			<path style="fill:#FFFFFF;" d="M692.91,412.35c0-0.99,0-1.97,0-2.96H107.4c0,0.99,0,1.97,0,2.96
				c1.12,13.59,3.32,27.07,6.58,40.31h572.34C689.59,439.42,691.79,425.94,692.91,412.35"/>
			<path style="fill:#FFFFFF;" d="M673.88,489.52H126.61c6.52,15.04,14.36,29.47,23.42,43.13h500.42
				C659.53,519,667.37,504.56,673.88,489.52"/>
			<path style="fill:#005CA9;" d="M678.85,169.22c0.94-2.15,1.88-4.48,2.96-6.4l-27.63-30.54l-38.96-43.08l-16.35-17.91
				c-14.81,6.99-30.07,12.98-45.68,17.91c-49.49,15.49-101.08,23.19-152.94,22.84c-51.84,0.35-103.42-7.36-152.89-22.84
				c-15.61-4.94-30.87-10.93-45.68-17.91l-16.35,17.91l-39.01,43.08l-27.63,30.54c1.07,2.1,2.06,4.48,3,6.4
				c5.9,13.71,9.6,28.26,10.97,43.13c0.49,5.37,0.76,10.75,0.76,16.08c0,6.99-0.49,13.93-1.16,20.87h535.98
				c-0.67-6.94-1.07-13.88-1.16-20.87c0-5.33,0.27-10.7,0.76-16.08C669.2,197.48,672.92,182.92,678.85,169.22"/>
		</g>
	</g>
	<g>
		<path style="fill:#FFFFFF;" d="M536.16,424.27c-1.17-2.53-1.69-5.32-1.52-8.11c0.04-3,0.31-6,0.81-8.96l-3.63-0.58l0,0l3.58,0.58
			c0-1.03,0.31-2.06,0.4-3.05c0.72-0.68,1.34-1.47,1.84-2.33c3.38-5.5,5.19-11.82,5.24-18.27c-0.62-9.98-4.12-19.56-10.08-27.59
			c-3.52-4.51-6.34-9.52-8.37-14.87c-5.05-25.8-20.38-48.43-42.46-62.7c-0.54-0.37-1.11-0.7-1.7-0.99l1.75-29.33
			c0.34-6.12-4.35-11.36-10.48-11.7c-3.45-0.19-6.8,1.24-9.05,3.87l-17.15,20.15c-0.56-0.29-1.14-0.53-1.75-0.72
			c-4.83-1.56-9.88-2.31-14.96-2.24c-9.31,0.22-18.53,1.84-27.36,4.79c-9.46-2.93-19.29-4.53-29.2-4.75
			c-5.22-0.1-10.43,0.66-15.41,2.24l0,0l-19.48-25.48c-3.77-4.83-10.75-5.69-15.59-1.92c-2.89,2.25-4.48,5.79-4.25,9.44l2.46,35.83
			c-0.46,0.24-0.91,0.51-1.34,0.81c-22.08,14.27-37.41,36.9-42.46,62.7c-2.03,5.35-4.86,10.36-8.37,14.87
			c-5.95,8.03-9.45,17.61-10.08,27.59c0.07,6.45,1.88,12.76,5.24,18.27c0.5,0.86,1.12,1.64,1.84,2.33c0,0.99,0,2.02,0.4,3.05
			c0.49,2.96,0.76,5.96,0.81,8.96c0.25,3.56-0.65,7.11-2.55,10.12c-1.3,2.07-2.47,4.23-3.49,6.45c-1.43,3.43-2.15,7.12-2.1,10.84
			c0,9.76,3.76,20.47,12.94,39.63c1.7,3.49,5.09,5.84,8.96,6.22c2.72,5.7,6.5,10.82,11.15,15.09c0.31,0.31,0,0,0.22,0.27
			c0.42,1.77,0.57,3.6,0.45,5.42c-0.35,8.15,1.97,16.19,6.63,22.88c6.27,8.51,16.66,15.32,34.04,21.68
			c3.56,1.27,7.52,0.64,10.52-1.66l2.28,0.85c2.31,0.64,4.3,2.11,5.6,4.12c1.24,2.42,1.81,5.12,1.66,7.84c0,0.76,0,1.57,0,2.46
			c-0.35,5.47,3.34,10.37,8.69,11.55c0.61,1.56,1.36,3.05,2.24,4.48c3.58,5.6,8.35,10.34,13.97,13.88
			c5.13,3.36,12.02,1.93,15.38-3.2c2.83-4.33,2.31-10.04-1.27-13.77c-1.56-1.48-2.93-3.15-4.08-4.97v-0.4c0,0,0-0.67,0.54-1.39
			c4.06-7.52,6.24-15.91,6.36-24.45c0-1.7,0-3.49,0-5.33c-0.72-6.45-1.97-11.38-2.42-15.85l7.88,0.45h2.24l7.88-0.45
			c-0.45,4.48-1.7,9.4-2.37,15.81c0,1.88-0.27,3.67-0.27,5.42c-0.01,6.98,1.52,13.88,4.48,20.2c0.99,2.24,1.79,3.9,2.19,4.84
			l0.27,0.76c-0.2,0.43-0.44,0.83-0.72,1.21c-1.06,1.5-2.26,2.89-3.58,4.16c-4.24,4.43-4.09,11.46,0.34,15.7
			c3.73,3.58,9.44,4.1,13.77,1.27c5.62-3.55,10.39-8.29,13.97-13.88c0.89-1.42,1.64-2.92,2.24-4.48c5.38-1.19,9.08-6.14,8.69-11.64
			c0-0.81,0-1.61,0-2.37c-0.16-2.71,0.41-5.42,1.66-7.84c1.3-2.01,3.29-3.48,5.6-4.12l2.28-0.85c3.01,2.31,6.99,2.93,10.57,1.66
			c10.54-3.35,20.33-8.73,28.8-15.85c4.4-3.94,7.75-8.91,9.76-14.47c1.61-5.46,2.34-11.15,2.15-16.84
			c-0.02-0.94,0.09-1.87,0.31-2.78l0.31-0.31c4.62-4.29,8.39-9.41,11.11-15.09c3.95-0.28,7.46-2.65,9.18-6.22
			c9.18-19.17,12.81-29.92,12.99-39.63c0.01-3.72-0.72-7.4-2.15-10.84c-2.02-4.48-3.76-6.67-4.48-8.46"/>
		<path d="M524.52,405.41c4.75-29.83-20.96-32.07-26.02-65.79c1.39,2.82,2.96,6.4,4.79,10.79c6.45,15.45,28.89,31.8,24.86,45.72
			c12.85-21.68-11.82-37.98-14.55-53.11c-4.5-22.96-18.18-43.09-37.89-55.71l-8.96,29.15l4.08-69.24l-44.16,51.86l13.44-29.11
			c-15.85-5.28-38.65,3.72-38.65,3.72s-25.35-8.96-41.25-3.72l13.03,29.11l-44.78-58.22l5.15,75.51l-8.96-29.15
			c-19.69,12.63-33.36,32.75-37.84,55.71c-2.78,15.14-27.41,31.35-14.6,53.11c-3.99-13.93,18.45-30.27,24.86-45.72
			c1.84-4.48,3.45-7.97,4.79-10.79c-5.02,33.72-30.72,35.83-25.97,65.79c6.4,40.31-22.39,16.97,4.48,72.95
			c-8.46-39.19,9.27-30.95,8.96-49.26c-0.45-24.18,6.76-25.3,13.44-34.35c-19.79,30.54-0.31,34.53-16.66,53.34
			c-8.96,10.48,1.93,39.59,11.91,48.1c12.99,11.11-11.82,30.27,37.89,48.28c-31.75-22.39-9.63-35.83-22.39-52.22
			c-9.81-12.54-8.02-27.68,0-45.32c-11.15,50.47,12.27,31.93,9.94,64.22c-1.39,19.84,14.64,28.53,25.71,32.56
			c11.91,4.48,15.23,13.88,14.42,25.53c8.96-29.42-15.23-26.33-15.23-41.02c-0.37-4.2,0.49-8.41,2.46-12.14
			c-0.45,5.46,3.05,14.02,12.81,21.41c23.06,17.42-9.67,31.75,20.02,51.86c-17.64-17.91,1.61-17.91-0.81-43.35
			c-0.81-8.69-4.16-17.24-1.66-28.66c8.55,0.63,16.35,1.07,19.3,1.25l0,0c3,0,10.79-0.63,19.3-1.25
			c2.55,11.42-0.81,19.97-1.66,28.66c-2.42,25.57,16.84,25.57-0.81,43.35c29.69-20.11-3-34.44,20.02-51.86
			c9.76-7.39,13.44-15.94,12.81-21.41c2,3.72,2.85,7.94,2.46,12.14c0,14.69-24.05,11.6-15.23,41.02
			c-0.81-11.64,2.55-21.23,14.42-25.53c11.06-4.03,27.14-12.72,25.71-32.56c-2.33-32.29,22.39-20.29,9.94-64.22
			c7.84,17.64,9.63,32.78,0,45.32c-12.99,16.61,9.18,29.74-22.39,52.22c49.76-17.91,24.94-37.17,37.93-48.28
			c9.94-8.51,21-37.62,11.87-48.1c-16.35-18.81,3.13-22.8-16.66-53.34c6.67,8.96,13.84,10.17,13.44,34.35
			c-0.31,18.45,17.38,10.21,8.96,49.26c27.18-55.98-1.75-32.69,4.48-72.95"/>
		<path style="fill:#FFFFFF;" d="M462.32,447.24c-0.85-1.93-2.78-3.05-6.09-3.09l-4.79,36.99l-8.96-32.42
			c-2.52,1.79-5.24,3.3-8.11,4.48c-5.91,2.33-15.27,4.08-33.54,4.08c-18.27,0-27.9-1.48-34.44-3.63c-2.62-0.86-5.15-1.95-7.57-3.27
			l-9.9,32.24l-3.85-38.16c-0.52-0.05-1.05-0.05-1.57,0c-1.79,0-2.28,0.63-3.45,3.09c-0.3,1.22-0.42,2.47-0.36,3.72
			c0,8.96,2.82,30.36,7.66,39.95c1.57,3.27,3.36,4.84,4.48,4.75h0.31c3-0.86,5.68-2.59,7.7-4.97l2.28-35.33l14.6,21.59
			c7.35-4.03,15.62-6.07,24-5.91l0,0c8.59-0.17,17.06,2.01,24.5,6.31l14.87-21.99l2.37,36.86c1.6,1.71,3.67,2.91,5.96,3.45h0.31
			c1.3,0,3.22-1.61,4.97-5.06c1.94-4.21,3.44-8.61,4.48-13.12c2.32-9,3.7-18.21,4.12-27.5c0.04-0.92-0.05-1.84-0.27-2.73
			 M370.6,494.58c0,0,8.64-7.75,28.66-7.75c20.02,0,28.98,7.75,28.98,7.75s-12.9-12.41-28.84-12.41S370.6,494.58,370.6,494.58
			 M355.46,424.36c3-8.24,16.12-4.79,19.12-4.03c-2.73-0.9-15.41-6.31-20.42-8.42c-9.94-4.16-22.03-6.81-22.39-0.49
			c-0.67,9.81,22.93,15.14,23.78,12.94 M445.52,411.91c-5.02,2.1-17.69,7.52-20.38,8.42c2.96-0.76,16.93-4.21,19.12,4.03
			c0.58,2.28,24.41-3.13,23.74-12.94c-0.45-6.31-12.54-3.67-22.39,0.49 M363.88,437.7c6.14,10.52,10.52,2.06,27.68,9.72
			c-4.48-1.79-1.61-6.99-8.96-17.24s-24.81-3.09-18.63,7.52 M400.69,417.37c-3.27,0-8.15-7.17-8.15-7.17s-0.4,24.27-0.4,28.17
			c0,11.24,17.38,12.81,17.38,0c0-4.75-0.31-28.39-0.31-28.39S404.01,417.37,400.69,417.37 M409.65,447.42
			c17.15-7.66,21.54,0.81,27.68-9.72c6.14-10.52-11.2-17.91-18.63-7.52c-7.43,10.39-4.48,15.45-8.96,17.24 M347.98,399.5
			c5.86,4.37,12.08,8.23,18.59,11.55c2.56,1.43,5.44,2.19,8.37,2.19c2.37,0,4.71-0.52,6.85-1.52c0.82-0.38,1.57-0.88,2.24-1.48
			l-0.4-0.36c-0.81-0.81-1.97-1.79-3.27-2.96c-3.36,6.05-14.96,0-18.94-5.73c-3.79-4.95-5.63-11.11-5.19-17.33
			c-3.95-4.39-7.35-9.25-10.12-14.47c-1.48,1.97-3.45,4.48-6.09,7.88c-1.49,1.98-2.32,4.38-2.37,6.85
			C337.64,389.11,341.8,394.66,347.98,399.5 M415.92,410.25c0.47,0.42,0.98,0.8,1.52,1.12c2.33,1.25,4.93,1.9,7.57,1.88
			c2.93-0.01,5.82-0.76,8.37-2.19c6.51-3.32,12.72-7.19,18.59-11.55c6.18-4.84,10.43-10.39,10.35-15.36
			c-0.07-2.47-0.9-4.86-2.37-6.85c-2.6-3.27-4.48-5.87-6.14-7.88c-2.74,5.23-6.12,10.09-10.08,14.47
			c0.44,6.22-1.41,12.38-5.19,17.33c-3.99,5.64-15.58,11.78-18.94,5.73l-2.55,2.28C416.59,409.58,416.23,409.98,415.92,410.25
			 M356.67,343.34c-1.16,2.3-1.71,4.86-1.61,7.43c0,4.48,5.6,14.42,12.99,25.08C363.57,364.21,359.45,351.54,356.67,343.34
			 M393.75,373.3c0,0,1.66,24.54-3.72,29.24c2.92,3.59,6.85,6.21,11.29,7.52c2.33,0,5.91-2.64,10.03-6.81
			c-7.08-1.25-5.15-29.96-5.15-29.96s3.45,8.2,5.55,3.31c2.69-6.31,5.19-22.39,7.43-34.62c-7.21,1.57-13.44,4.48-14.55,7.84
			c-1.93-6.99-7.3-7.75-9.4,0c-4.15-4.18-9.18-7.36-14.73-9.32c2.28,12.18,4.88,29.51,7.7,36.1
			C390.3,381.5,393.75,373.3,393.75,373.3 M443.01,344.51c-3,8.96-7.26,22.39-12.27,34.44c8.15-12.09,14.6-24.18,14.6-29.02
			C445.39,347.87,444.54,345.89,443.01,344.51"/>
	</g>
	<g>
		<g>
			<path style="fill:#FFFFFF;" d="M307.95,651.59c0,0,0.31,0,0.31,0.36c0.1,1.9,0.71,3.74,1.75,5.33c1.37,2.08,3.69,3.33,6.18,3.31
				c3.13,0.2,5.84-2.18,6.04-5.31c0-0.04,0-0.07,0.01-0.11c0-4.48-1.97-5.69-6.9-7.57c-2.49-0.87-4.8-2.19-6.81-3.9
				c-1.66-1.81-2.5-4.22-2.33-6.67c-0.04-2.57,1.18-5,3.27-6.49c1.82-1.57,4.18-2.38,6.58-2.24c2.03-0.05,4.04,0.33,5.91,1.12
				c0.28,0.22,0.66,0.22,0.94,0l0.63-0.63c0.11-0.23,0.33-0.4,0.58-0.45c0.31,0,0.4,0.27,0.4,0.76s0.72,7.26,0.72,7.7
				c0,0.16-0.11,0.29-0.27,0.31l-0.85,0.18c0,0-0.36,0-0.45-0.27c-0.59-1.83-1.57-3.51-2.87-4.93c-1.26-1.35-3.04-2.07-4.88-1.97
				c-2.74-0.13-5.07,1.99-5.19,4.74c0,0,0,0.01,0,0.01c-0.15,1.51,0.32,3.01,1.3,4.16c1.68,1.35,3.61,2.34,5.69,2.91
				c2.52,0.58,4.84,1.84,6.72,3.63c1.65,1.8,2.49,4.19,2.33,6.63c0.35,5.36-3.71,9.98-9.07,10.33c-0.28,0.02-0.55,0.02-0.83,0.02
				c-2.82,0.19-5.62-0.61-7.93-2.24c-0.54-0.36-0.81-0.54-1.12-0.54c-0.31,0-0.45,0.36-0.72,0.81c-0.27,0.45-0.45,0.58-0.85,0.58
				s-0.54-0.27-0.54-0.76s0.72-8.11,0.81-8.64c0.09-0.54,0-0.36,0.31-0.36L307.95,651.59z"/>
			<path style="fill:#FFFFFF;" d="M333.07,648.68c0-1.39-0.27-2.33-2.42-2.87c-0.4,0-0.45-0.22-0.45-0.45v-0.49
				c0,0,0-0.27,0.31-0.36c0.31-0.09,5.28-1.93,6.05-2.24c0.36-0.15,0.73-0.24,1.12-0.27c0.27,0,0.45,0,0.36,0.54
				c-0.09,0.54,0,3.72,0,7.61v5.06c0,1.75,0,3.45,0,3.99c0,0.54,0.31,1.21,0.76,1.21h1.88c0.36,0,0.45,0,0.45,0.31v0.94
				c0,0.31,0,0.49-0.36,0.49s-2.51,0-5.64,0c-3.13,0-4.48,0-5.02,0c-0.54,0-0.4,0-0.4-0.49v-0.9c0-0.27,0-0.36,0.49-0.36h2.06
				c0.45,0,0.67,0,0.72-0.94c0.04-0.94,0-2.87,0-4.16L333.07,648.68z M334.64,637.17c-1.48,0.07-2.74-1.07-2.82-2.55
				c0-0.02,0-0.03,0-0.05c0.14-1.58,1.53-2.74,3.11-2.6c0.01,0,0.02,0,0.03,0c1.41-0.1,2.63,0.96,2.73,2.36c0,0.02,0,0.04,0,0.05
				c0.01,1.53-1.23,2.78-2.76,2.79C334.82,637.18,334.73,637.18,334.64,637.17"/>
			<path style="fill:#FFFFFF;" d="M348.79,642.37c0.27-0.18,0.58-0.3,0.9-0.36c0.31,0,0.49,0,0.58,0.54l0.36,2.42h0.36
				c0.65-0.76,1.44-1.4,2.33-1.88c1.14-0.68,2.44-1.05,3.76-1.07c1.44-0.09,2.87,0.28,4.08,1.07c1.68,1.02,2.66,2.88,2.55,4.84v6.67
				c0,1.52,0,3.54,0,4.48s0.58,1.3,1.12,1.3h1.3c0.45,0,0.58,0,0.58,0.31v1.07c0,0.27,0,0.36-0.4,0.36c-0.4,0-1.75,0-5.02,0
				s-4.48,0-4.48,0s-0.36,0-0.36-0.58v-0.81c0-0.27,0-0.36,0.54-0.36h0.94c0.36,0,0.76-0.27,0.85-1.12c0.09-1.49,0.09-2.99,0-4.48
				v-5.33c0-1.88,0-3.09-1.21-3.99c-0.76-0.67-1.77-0.98-2.78-0.85c-1.12,0.02-2.19,0.45-3,1.21c-0.72,0.95-1.07,2.13-0.99,3.31
				v9.58c0,1.03,0.27,1.57,0.9,1.57h0.85c0.36,0,0.45,0,0.45,0.45v0.81c0,0.31,0,0.49-0.36,0.49c-0.36,0-1.57,0-4.48,0
				c-2.91,0-4.48,0-4.48,0s-0.27,0-0.27-0.49v-0.9c0-0.27,0-0.36,0.45-0.36h0.94c0.58,0,1.21,0,1.21-0.94V648.9
				c-0.02-1.23-0.81-2.32-1.97-2.73h-0.36c-0.21-0.04-0.36-0.23-0.36-0.45v-0.4c0,0,0-0.36,0.45-0.45L348.79,642.37z"/>
			<path style="fill:#FFFFFF;" d="M386.27,658.4c0.15,0.13,0.16,0.36,0.03,0.51c-0.01,0.01-0.02,0.02-0.03,0.03
				c-2.05,2.19-4.89,3.47-7.88,3.58c-2.83,0.2-5.58-0.94-7.43-3.09c-1.53-1.77-2.33-4.06-2.24-6.4c-0.04-3.13,1.21-6.14,3.45-8.33
				c1.83-1.76,4.27-2.72,6.81-2.69c5.37,0,6.58,2.78,6.58,4.16c0.05,1.09-0.79,2.01-1.88,2.06c-0.06,0-0.12,0-0.18,0
				c-1.57,0-2.28-1.12-2.78-2.33c-0.36-1.25-1.57-2.06-2.87-1.93c-2.61,0.41-4.45,2.79-4.21,5.42c-0.23,2.64,0.42,5.28,1.84,7.52
				c1.02,1.64,2.86,2.6,4.79,2.51c1.83,0.05,3.61-0.57,5.02-1.75c0.1-0.11,0.27-0.12,0.38-0.02c0.01,0.01,0.02,0.02,0.02,0.02
				L386.27,658.4z"/>
			<path style="fill:#FFFFFF;" d="M393.03,651.64c-0.32,3.72,2.34,7.03,6.05,7.52c2.22,0.15,4.36-0.87,5.64-2.69
				c0-0.31,0.36-0.31,0.54-0.22l0.72,0.4c0,0,0.31,0.31,0,0.94c-1.65,3.14-4.96,5.06-8.51,4.93c-2.49,0.26-4.97-0.67-6.67-2.51
				c-1.86-2.12-2.8-4.89-2.6-7.7c-0.16-2.5,0.64-4.97,2.24-6.9c1.92-2.47,4.99-3.76,8.11-3.4c3.92,0.28,6.97,3.51,7.03,7.43
				c0,0.72-0.45,0.76-1.3,0.76h-11.24V651.64z M398.81,648.5c0.94,0,1.52-0.27,1.52-0.63c0-1.43-0.49-4.16-2.91-4.16
				s-3.67,1.66-4.48,4.79L398.81,648.5z"/>
			<path style="fill:#FFFFFF;" d="M411.22,661.98h-2.02h-1.88c-0.18,0.1-0.4,0.1-0.58,0c-0.11-0.35,0.02-0.73,0.31-0.94
				c1.84-1.79,5.87-5.42,9.49-9.63c2.99-3.05,4.75-7.1,4.93-11.38c0.22-3.06-2.08-5.72-5.14-5.94c-0.15-0.01-0.31-0.02-0.46-0.01
				c-2.48,0.14-4.69,1.64-5.73,3.9c0,0.36-0.4,0.36-0.58,0.27l-0.72-0.36c0,0,0,0,0-0.67c1.41-4.15,5.29-6.95,9.67-6.99
				c4.7-0.02,8.53,3.76,8.55,8.46c0,0,0,0,0,0c-0.35,4.84-2.68,9.31-6.45,12.36c-2.96,3-5.78,5.24-7.34,6.72h8.6
				c2.31-0.03,4.38-1.42,5.28-3.54c0.27-0.45,0.36-0.58,0.85-0.27c0.49,0.31,0.58,0.36,0.45,0.72l-3.18,8.02
				c0,0.36,0,0.45-0.63,0.45s-0.45,0-0.67-0.45c-0.22-0.45-1.12-0.63-2.78-0.63L411.22,661.98z"/>
			<path style="fill:#FFFFFF;" d="M452.15,646.26c0,10.61-3.63,16.57-10.03,16.57c-8.02,0-10.61-8.96-10.61-14.78
				c0-10.52,3.99-17.91,10.52-17.91c7.88,0,10.12,8.96,10.12,15.94 M438.71,634.98c-1.07,3.95-1.57,8.04-1.48,12.14
				c-0.18,3.35,0.18,6.71,1.07,9.94c1.03,2.82,2.37,3.76,3.94,3.76s2.78-0.76,3.54-3.18c0.92-4.1,1.27-8.3,1.03-12.49
				c0-7.34-1.61-13.12-4.48-13.12c-1.7,0-2.73,1.03-3.45,2.96"/>
			<path style="fill:#FFFFFF;" d="M463.26,638.83c0-1.43-0.27-2.42-1.12-2.42c-0.67,0.02-1.34,0.14-1.97,0.36l-2.78,0.85
				c0,0-0.36,0-0.45,0l-0.4-0.94c0,0,0-0.4,0.31-0.58l10.7-5.55c0.23-0.18,0.51-0.29,0.81-0.31c0.27,0,0.4,0,0.4,0.76
				c0,0.76-0.22,7.61-0.22,13.66v1.93c0,1.61,0,10.43,0,11.06c0,2.42,0,2.69,2.82,2.69h1.7c0.36,0,0.45,0,0.45,0.31v1.16
				c0,0.31,0,0.4-0.45,0.4h-7.48h-7.75c0,0-0.36,0-0.36-0.36v-1.21c0-0.27,0-0.31,0.54-0.31h1.79c2.78,0,3.18,0,3.27-2.55
				c0-1.3,0-8.37,0-9.67L463.26,638.83z"/>
			<path style="fill:#FFFFFF;" d="M495.01,646.26c0,10.61-3.63,16.57-10.03,16.57c-8.02,0-10.61-8.96-10.61-14.78
				c0-10.52,3.99-17.91,10.52-17.91c7.88,0,10.12,8.96,10.12,15.94 M481.57,634.98c-1.08,3.95-1.6,8.04-1.52,12.14
				c-0.17,3.35,0.2,6.71,1.12,9.94c1.03,2.82,2.33,3.76,3.94,3.76c1.61,0,2.78-0.76,3.54-3.18c0.92-4.1,1.27-8.3,1.03-12.49
				c0-7.34-1.61-13.12-4.48-13.12c-1.7,0-2.73,1.03-3.45,2.96"/>
		</g>
		<g>
			<path style="fill:#ACA34E;" d="M725.96,633.59c-0.57-4.93-2.54-9.59-5.69-13.44c-3.66-4.39-9.11-6.89-14.82-6.81
				c-1.5,0.01-3,0.16-4.48,0.45c-1.26,0.25-2.36,1.04-3,2.15l-11.11,18.81c-5.5-5.08-11.5-9.58-17.91-13.44l12-20.78l0,0
				c1.39-2.78,2.1-5.85,2.06-8.96c-0.21-7.62-3.7-14.77-9.58-19.62c-47.65-39.86-152-66.5-273.59-66.64
				c-121.59-0.13-225.94,26.87-273.5,66.55c-5.92,4.86-9.45,12.05-9.67,19.7c-0.04,3.11,0.67,6.18,2.06,8.96l0,0l12,20.78
				c-6.41,3.87-12.41,8.37-17.91,13.44l-10.84-18.76c-0.64-1.11-1.74-1.9-3-2.15c-1.48-0.29-2.98-0.44-4.48-0.45
				c-5.73-0.08-11.19,2.42-14.87,6.81c-3.11,3.86-5.07,8.51-5.64,13.44c-0.77,5.95,0.48,11.99,3.54,17.15l0,0l43.89,69.33
				c2.86,6.5,9.29,10.7,16.39,10.7l0,0c3.08-0.02,6.12-0.65,8.96-1.84c5.22-2.76,9.96-6.33,14.06-10.57
				c5.7-5.28,12.07-9.8,18.94-13.44c12.41-6.54,33.1-6.76,46.84-7.48c5.31-0.12,10.37-2.27,14.15-6c2.94-3.21,4.54-7.43,4.48-11.78
				c-0.01-2.51-0.57-4.99-1.66-7.25l0,0l0,0c-0.34-0.65-0.71-1.28-1.12-1.88l-16.88-30.18c41.74-15.05,104.62-24.94,174.66-24.86
				c61,0,116.44,7.34,157.37,19.21c6.14,1.79,11.91,3.67,17.38,5.64l-17.51,29.83c-0.46,0.69-0.86,1.4-1.21,2.15
				c-3.1,6.34-1.9,13.95,3,19.03c3.77,3.75,8.84,5.9,14.15,6c13.7,0.72,34.44,0.94,46.8,7.48c6.87,3.64,13.24,8.15,18.94,13.44
				c4.1,4.24,8.85,7.81,14.06,10.57c2.84,1.19,5.88,1.82,8.96,1.84l0,0c7.1,0,13.53-4.2,16.39-10.7l43.89-69.33l0,0
				c2.43-4.21,3.73-8.98,3.76-13.84c-0.01-1.09-0.08-2.19-0.22-3.27"/>
			<path style="fill:#005CA9;" d="M173.73,677.16c0.2,0.23,0.42,0.44,0.67,0.63c0.54,0.36,1.19,0.52,1.84,0.45
				c2.69,0,9.27-2.24,19.75-8.24c8.45-5.09,18.04-7.98,27.9-8.37c1.31-0.07,2.63-0.07,3.94,0l-10.7-18.23
				c-24.77,10.03-40.04,22.39-43.4,33.54"/>
			<path style="fill:#005CA9;" d="M223.89,670.49c-8.32,0.4-16.41,2.84-23.56,7.12c-10.93,6.14-17.91,9.27-24.09,9.4
				c-2.44,0.07-4.84-0.63-6.85-2.02c-1.88-1.26-3.42-2.97-4.48-4.97l-29.47-51.1c-6.31,3.86-12.21,8.37-17.6,13.44l30.77,53.16
				c0.93,1.46,0.93,3.33,0,4.79c-1.02,1.42-2.76,2.12-4.48,1.79c-1-0.21-2.02-0.31-3.05-0.31c-6.13-0.3-11.34,4.42-11.64,10.55
				c0,0.04,0,0.07,0,0.11c-0.02,0.28-0.02,0.57,0,0.85c0.19,4.81,4.15,8.6,8.96,8.6c1.86-0.05,3.7-0.44,5.42-1.16
				c4.23-2.44,8.1-5.46,11.51-8.96c6.33-5.82,13.39-10.79,21-14.78c15.54-7.93,37.04-7.57,50.38-8.46c3.06,0.02,6.01-1.13,8.24-3.22
				c1.44-1.55,2.24-3.58,2.24-5.69c-0.01-1.16-0.27-2.31-0.76-3.36c-1.75-3.54-5.69-5.69-12.41-5.78"/>
			<path style="fill:#005CA9;" d="M85.59,645.99L85.59,645.99l36.77,58.22c2.91-5.74,8.38-9.76,14.73-10.79l-40.98-70.98h-1.07
				c-3.11-0.1-6.09,1.26-8.06,3.67c-2.02,2.59-3.29,5.69-3.67,8.96c-0.04,0.7-0.04,1.4,0,2.1c0.11,3.13,0.92,6.19,2.37,8.96
				L85.59,645.99z"/>
			<path style="fill:#005CA9;" d="M583.37,643.62l-10.66,18.23c1.21-0.07,2.42-0.07,3.63,0h0.27c9.86,0.4,19.45,3.28,27.9,8.37
				c10.48,6,17.06,8.37,19.75,8.24c0.65,0.07,1.3-0.09,1.84-0.45c0.25-0.18,0.47-0.39,0.67-0.63c-3.36-11.2-18.59-23.51-43.4-33.54"
				/>
			<path style="fill:#005CA9;" d="M563.48,679.67c-0.02,2.09,0.76,4.12,2.19,5.64c2.23,2.09,5.18,3.25,8.24,3.22
				c13.44,0.9,34.84,0.54,50.38,8.46c7.53,3.99,14.52,8.94,20.78,14.73c3.39,3.51,7.27,6.53,11.51,8.96
				c1.72,0.72,3.56,1.12,5.42,1.16c4.83,0.13,8.89-3.6,9.18-8.42c0.02-0.28,0.02-0.57,0-0.85c-0.24-6.13-5.4-10.9-11.53-10.66
				c-0.04,0-0.07,0-0.11,0c-1.02,0-2.04,0.11-3.05,0.31c-2.46,0.3-4.69-1.45-4.99-3.9c-0.11-0.93,0.07-1.86,0.51-2.68l30.36-53.02
				c-5.39-5.07-11.29-9.57-17.6-13.44l-29.47,51.05c-0.98,2-2.44,3.72-4.25,5.02c-2.01,1.38-4.41,2.09-6.85,2.02
				c-6.27,0-13.17-3.27-24.09-9.4c-7.14-4.31-15.23-6.79-23.56-7.21c-6.72,0-10.66,2.24-12.41,5.78l0,0
				c-0.48,1.07-0.73,2.23-0.72,3.4"/>
			<path style="fill:#005CA9;" d="M713.73,625.93c-1.97-2.41-4.95-3.77-8.06-3.67h-1.03l-40.98,70.98
				c6.35,1.03,11.8,5.07,14.64,10.84l36.81-58.22l0,0v-0.49c0.22-0.45,0.54-1.12,0.85-1.93c0.84-2.13,1.28-4.39,1.3-6.67
				c0.06-0.7,0.06-1.4,0-2.1c-0.34-3.27-1.59-6.38-3.63-8.96"/>
			<path style="fill:#005CA9;" d="M632.18,667.8l41.38-71.65c0.65-1.4,0.99-2.93,0.99-4.48c-0.22-5.04-2.6-9.74-6.54-12.9
				c-44.11-37.35-147.79-64.58-267.76-64.44s-223.61,27.09-267.67,64.35c-3.98,3.17-6.39,7.91-6.63,12.99
				c-0.02,1.63,0.33,3.23,1.03,4.7l41.34,71.65c5.22-8.13,12.28-14.93,20.6-19.84c16.07-9.61,33.4-16.92,51.5-21.72
				c42.01-12.18,98.12-19.57,159.83-19.62c92.61,0,172.42,16.48,211.34,41.34c8.32,4.91,15.38,11.71,20.6,19.84"/>
		</g>
		<g>
			<path style="fill:#FFFFFF;" d="M188.95,575.19c-1.16-3.54-2.42-7.08-3.72-10.61l3.05-0.54c1.03,0,2.24-0.54,3.54-0.94
				c2.28-0.67,4.48-1.43,7.03-2.28c2.55-0.85,4.79-1.66,7.03-2.33c2.17-0.65,4.41-1.03,6.67-1.12c1.94-0.1,3.88,0.16,5.73,0.76
				c1.73,0.61,3.27,1.66,4.48,3.05c1.36,1.6,2.34,3.48,2.87,5.51c0.66,2.01,0.8,4.15,0.4,6.22c-0.39,1.8-1.1,3.52-2.1,5.06
				c-0.96,1.42-2.12,2.69-3.45,3.76c-1.13,0.94-2.37,1.75-3.67,2.42l0,0c1.47-0.32,2.98-0.44,4.48-0.36
				c1.84,0.05,3.66,0.42,5.37,1.07c1.86,0.7,3.55,1.78,4.97,3.18c1.64,1.61,2.82,3.64,3.4,5.87c0.86,2.61,1.1,5.38,0.72,8.11
				c-0.35,2.27-1.23,4.43-2.55,6.31c-1.33,1.85-3.06,3.38-5.06,4.48c-2.08,1.19-4.29,2.14-6.58,2.82c-2.1,0.63-4.08,1.16-5.87,1.61
				l-5.73,1.61l-4.48,1.3c-1.2,0.34-2.38,0.74-3.54,1.21c-0.76-3.49-1.66-7.03-2.55-10.66c-0.9-3.63-2.1-7.7-3.45-12.27l-3.31-11.29
				c-1.39-4.48-2.64-8.64-3.81-12.18 M212.73,567.8c-0.61-1.03-1.41-1.93-2.37-2.64c-0.98-0.65-2.07-1.09-3.22-1.3
				c-1.4-0.2-2.82-0.08-4.16,0.36l-2.37,0.76l-1.39,0.63c0.49,2.1,1.03,4.21,1.57,6.31s1.07,3.9,1.52,5.33
				c0.45,1.43,0.85,2.91,1.3,4.48c0.45,1.57,0.85,2.73,1.25,4.16l3.54-1.03c1.13-0.32,2.18-0.87,3.09-1.61
				c0.95-0.77,1.72-1.73,2.28-2.82c0.62-1.2,0.98-2.51,1.07-3.85c0.13-1.65-0.07-3.31-0.58-4.88c-0.37-1.28-0.88-2.51-1.52-3.67
				 M217.71,590.42c-2.45-1.42-5.4-1.69-8.06-0.72l-1.88,0.58l-1.48,0.49c0.31,1.16,0.67,2.37,1.03,3.63
				c0.36,1.25,0.76,2.73,1.25,4.48c0.49,1.75,0.81,2.69,1.25,4.08s0.81,2.69,1.21,4.03c0.4,1.34,0.76,2.55,1.12,3.67
				c0.36,1.12,0.63,1.97,0.85,2.69l2.1-0.45l2.28-0.63c2.36-0.72,4.27-2.46,5.19-4.75c0.51-1.3,0.79-2.68,0.85-4.08
				c0.03-1.71-0.21-3.42-0.72-5.06c-0.67-3.16-2.45-5.97-5.02-7.93"/>
			<path style="fill:#FFFFFF;" d="M239.96,561.17c-0.84-3.64-1.73-7.27-2.69-10.88l3.05-0.31c1.07,0,2.28-0.36,3.63-0.63
				c1.21-0.21,2.41-0.49,3.58-0.85c1.07-0.31,2.06-0.58,2.91-0.9c0.54,3.72,1.12,7.43,1.75,11.11c0.63,3.67,1.43,7.84,2.37,12.49
				l2.33,11.55l1.93,9.32c0.67,3,1.21,5.6,1.7,7.79c2.99-0.63,5.97-1.34,8.96-2.15c3.05-0.76,6.05-1.66,8.96-2.69
				c0,0.63,0,1.21,0,1.75c0,0.54,0,1.21,0.36,2.1c0.36,0.9,0.36,1.61,0.49,2.1c0.12,0.44,0.3,0.86,0.54,1.25l-5.42,0.94l-8.73,1.75
				l-7.97,1.61l-4.75,0.94c-1.25,0.27-2.15,0.45-2.73,0.63l-1.57,0.4c-0.49-3.54-1.07-7.12-1.7-10.79
				c-0.63-3.67-1.39-7.84-2.37-12.54l-2.33-11.51c-0.96-4.72-1.85-8.88-2.69-12.49"/>
			<path style="fill:#FFFFFF;" d="M336.34,594.85c-1.34,0-2.6,0-3.76,0.31l-3.45,0.4l-3.45,0.45c-1.16,0-2.33,0.36-3.45,0.58
				l-3.76-8.24c-1.3-2.82-2.64-5.6-4.03-8.37l-5.24,0.49L304,581.1l-4.48,0.58l-4.21,0.63c-0.72,3.05-1.34,6.09-1.93,8.96
				s-1.03,6-1.43,8.96c-0.66-0.05-1.31-0.05-1.97,0l-1.88,0.27l-1.97,0.22c-0.71,0.09-1.42,0.24-2.1,0.45
				c0.49-1.57,1.07-3.76,1.84-6.49s1.57-5.91,2.46-9.4l2.91-11.2c0.99-3.99,2.02-8.02,3-12.09c0.99-4.08,2.02-8.11,3-12.05
				c0.99-3.94,1.84-7.66,2.64-11.06h1.57c0.52,0.04,1.05,0.04,1.57,0l1.52-0.31l1.52-0.49l7.52,14.91
				c2.69,5.33,5.33,10.52,8.02,15.63c2.69,5.11,5.28,9.94,7.75,14.47c2.46,4.52,4.75,8.42,6.76,11.55 M301.94,555.4
				c-0.99,3.63-1.93,7.17-2.73,10.66s-1.66,7.08-2.42,10.7l14.91-1.84c-1.61-3.36-3.22-6.63-4.79-9.81
				C305.35,561.93,303.65,558.66,301.94,555.4"/>
			<path style="fill:#FFFFFF;" d="M355.46,593.86c-2.92-0.56-5.69-1.75-8.11-3.49c-2.39-1.77-4.33-4.09-5.64-6.76
				c-1.52-3.23-2.34-6.74-2.42-10.3c0-2.33-0.09-4.39-0.27-6.18c0-1.84,0-3.49,0-5.06s0-3.05,0-4.48c0-1.43,0-2.91,0-4.48
				c0-4.48-0.4-8.42-0.63-11.33s-0.36-5.02-0.54-6.45h3.36h3.4l3.31-0.31l3.36-0.45c-0.27,5.6-0.36,10.79-0.22,15.63
				c0.13,4.84,0.31,9.67,0.54,14.64c0.11,4.27,0.66,8.52,1.66,12.67c0.63,2.66,1.84,5.15,3.54,7.3c1.36,1.63,3.22,2.78,5.28,3.27
				c2.32,0.49,4.7,0.67,7.08,0.54c2.81,0.02,5.51-1.04,7.57-2.96c1.89-2.02,3.25-4.49,3.94-7.17c0.84-3.25,1.26-6.59,1.25-9.94
				c0-3.72,0-7.61,0-11.64c0-4.03-0.4-7.93-0.72-11.87c-0.31-3.94-0.63-7.93-1.07-11.87h2.24c0.66,0.04,1.31,0.04,1.97,0
				c0.68,0.07,1.38,0.07,2.06,0l2.02-0.4c0,1.3,0,3,0,5.15s0,4.48,0,7.39s0,5.87,0,9.27s0,6.9,0.4,10.66
				c0.49,10.03-1.25,17.33-5.11,21.85c-4.65,4.89-11.17,7.58-17.91,7.39c-3.3,0.18-6.61-0.06-9.85-0.72"/>
			<path style="fill:#FFFFFF;" d="M409.74,544.24c0-3.72,0-7.43,0-11.2l3.05,0.4c1.07,0,2.33,0.22,3.67,0.27c2.37,0,4.79,0,7.39,0
				c2.6,0,5.06,0,7.39,0c2.27,0.07,4.53,0.41,6.72,1.03c1.87,0.51,3.61,1.38,5.15,2.55c1.46,1.09,2.59,2.56,3.27,4.25
				c0.77,1.95,1.1,4.04,0.99,6.14c-0.02,2.12-0.57,4.2-1.61,6.05c-0.92,1.59-2.14,2.98-3.58,4.12c-1.35,1.07-2.86,1.92-4.48,2.51
				c-1.45,0.54-2.95,0.92-4.48,1.12l0,0c1.54,0.14,3.05,0.5,4.48,1.07c1.72,0.62,3.33,1.53,4.75,2.69c1.52,1.25,2.79,2.77,3.76,4.48
				c1.03,2.07,1.49,4.37,1.34,6.67c0,2.74-0.65,5.44-1.88,7.88c-1.05,2.07-2.59,3.85-4.48,5.2c-1.83,1.36-3.94,2.28-6.18,2.69
				c-2.36,0.48-4.76,0.69-7.17,0.63l-6.09-0.31l-5.91-0.31h-4.48c-1.24-0.07-2.48-0.07-3.72,0c0.36-3.58,0.67-7.21,0.9-10.93
				c0.22-3.72,0.45-7.97,0.63-12.72l0.4-11.78c0.18-4.78,0.27-9.03,0.27-12.76 M432.22,567.53c-1.85-2.14-4.56-3.34-7.39-3.27h-3.54
				c0,1.21,0,2.46,0,3.76s0,2.82,0,4.48v4.21c0,1.48,0,2.87,0,4.25s0,2.64,0,3.81s0,2.1,0,2.87h2.1c0.67,0,1.48,0,2.42,0
				c1.19,0.04,2.36-0.19,3.45-0.67c1.14-0.5,2.15-1.25,2.96-2.19c0.91-1.06,1.62-2.27,2.1-3.58c0.56-1.62,0.86-3.31,0.9-5.02
				c0.32-3.16-0.49-6.34-2.28-8.96 M435.31,544.42c-0.47-2.35-1.97-4.37-4.08-5.51c-1.27-0.63-2.66-0.95-4.08-0.94h-2.51
				c-0.51-0.06-1.02-0.06-1.52,0c0,2.1-0.31,4.48-0.45,6.45c-0.13,1.97-0.22,4.03-0.27,5.55c-0.04,1.52,0,3.05,0,4.48s0,2.87,0,4.48
				h3.67c1.17,0,2.34-0.19,3.45-0.58c1.13-0.44,2.16-1.1,3.05-1.93c0.95-0.97,1.71-2.11,2.24-3.36c0.65-1.53,1-3.17,1.03-4.84
				c0.03-1.32-0.07-2.64-0.31-3.94"/>
			<path style="fill:#FFFFFF;" d="M461.29,546.62c0.22-3.72,0.45-7.43,0.58-11.2l3,0.58c1.07,0,2.28,0.36,3.63,0.49s2.6,0,3.72,0
				h3.05c-0.58,3.72-1.07,7.43-1.52,11.11c-0.45,3.67-0.94,7.93-1.39,12.72l-1.12,11.69c-0.31,3.27-0.58,6.45-0.85,9.49
				c-0.27,3.05-0.45,5.69-0.63,7.93c3.09,0.27,6.22,0.49,9.32,0.63c3.09,0.13,6.31,0,9.49,0c0,0.63-0.31,1.16-0.4,1.7
				c-0.09,0.54,0,1.21-0.27,2.1c-0.27,0.9,0,1.66,0,2.19c-0.05,0.43-0.05,0.87,0,1.3l-5.42-0.63c-2.15-0.27-5.11-0.54-8.96-0.9
				l-8.11-0.76l-4.88-0.45c-1.21,0-2.15-0.22-2.78-0.22h-1.57c0.54-3.54,1.03-7.17,1.52-10.84c0.49-3.67,0.9-7.93,1.34-12.67
				l1.12-11.73c0.45-4.75,0.81-8.96,1.03-12.72"/>
			<path style="fill:#FFFFFF;" d="M502.04,550.96c0.4-3.72,0.76-7.39,1.07-11.15l2.96,0.72c1.07,0.22,2.28,0.45,3.63,0.63
				c1.22,0.21,2.44,0.34,3.67,0.4h3.05c-0.72,3.67-1.39,7.34-2.06,11.02s-1.25,7.88-1.93,12.63l-1.66,11.64
				c-0.69,4.75-1.22,8.96-1.61,12.63c-0.4,3.72-0.76,7.34-1.03,10.93c-0.98-0.27-1.99-0.47-3-0.58l-3.67-0.54l-3.63-0.49
				c-1.01-0.17-2.02-0.26-3.05-0.27c0.72-3.54,1.39-7.12,2.02-10.79c0.63-3.67,1.3-7.84,1.97-12.58l1.61-11.64
				c0.67-4.75,1.25-8.96,1.66-12.67"/>
			<path style="fill:#FFFFFF;" d="M539.08,555.22c0.19-1.01,0.31-2.02,0.36-3.05l-3-0.49l-3.81-0.54l-4.21-0.45l-3.94-0.31
				l0.67-1.79c0.35-1.23,0.59-2.49,0.72-3.76c0-0.63,0-1.25,0-1.93l4.93,1.16l4.48,1.03l4.97,1.07l6.49,1.3l6.49,1.25l4.97,0.9
				l4.48,0.76l4.48,0.72l-0.63,1.84c-0.21,0.6-0.38,1.21-0.49,1.84c-0.13,0.62-0.22,1.25-0.27,1.88c0,0.63,0,1.3,0,1.93
				c-1.03-0.4-2.19-0.76-3.49-1.16c-1.3-0.4-2.64-0.81-3.94-1.12l-3.72-0.99l-2.96-0.67c0,0.27-0.22,0.67-0.36,1.16
				c-0.13,0.49,0,1.12-0.36,1.79l-0.9,4.48l-4.21,21.23c-0.94,4.7-1.7,8.96-2.33,12.54c-0.63,3.58-1.16,7.26-1.61,10.84
				c-0.92-0.3-1.87-0.54-2.82-0.72l-3.63-0.72l-3.63-0.72c-0.99-0.21-1.99-0.35-3-0.4c0.9-3.49,1.75-7.03,2.6-10.66
				c0.85-3.63,1.7-7.79,2.64-12.49l4.16-21.23c0.36-1.61,0.63-3.13,0.9-4.48"/>
			<path style="fill:#FFFFFF;" d="M567.83,599.64c3.54-3.27,7.21-6.72,10.97-10.39c3.76-3.67,7.52-7.3,11.29-11.06
				s7.34-7.39,10.7-10.93l0,0c-4.08-1.21-8.24-2.42-12.45-3.58s-8.37-2.15-12.41-2.96l0.81-1.66c0.24-0.55,0.45-1.12,0.63-1.7
				c0.17-0.59,0.31-1.19,0.4-1.79c0-0.58,0-1.16,0.22-1.79c2.42,0.67,4.48,1.34,6.4,1.97l5.24,1.66l4.84,1.57l5.11,1.61
				c1.66,0.49,3.13,0.94,4.48,1.3l4.48,1.16c1.48,0.45,3.09,0.85,4.79,1.3l5.87,1.57l-0.45,1.48c-7.37,6.84-14.52,13.66-21.45,20.47
				c-6.94,6.76-13.84,13.7-20.78,20.73l0,0l10.39,3.05c2.87,0.81,5.33,1.52,7.43,2.06l5.46,1.39l4.48,1.03
				c-0.27,0.58-0.49,1.12-0.76,1.66c-0.29,0.54-0.51,1.11-0.67,1.7c-0.18,0.57-0.3,1.15-0.36,1.75c0,0.54,0,1.03,0,1.52
				c-3.27-1.12-6.45-2.1-9.54-3l-10.08-3l-15.94-4.48c-4.25-1.21-7.17-2.06-8.69-2.42l0.36-1.16c2.87-2.6,6.05-5.51,9.58-8.96"/>
		</g>
	</g>
	<g>
		<polygon style="fill:#ACA34E;" points="228.32,237.34 156.31,102.09 198.45,216.92 162.13,210.33 262.76,391.89 204.23,232.28 		
			"/>
		<polygon style="fill:#ACA34E;" points="200.02,396.1 119.72,309.13 173.15,387.68 143.86,391.57 254.74,507.39 180.45,398.16 		
			"/>
		<polygon style="fill:#ACA34E;" points="572.22,237.34 644.18,102.09 602.09,216.92 638.36,210.33 537.73,391.89 596.26,232.28 		
			"/>
		<polygon style="fill:#ACA34E;" points="600.47,396.1 680.77,309.13 627.35,387.68 656.63,391.57 545.79,507.39 620.05,398.16 		
			"/>
	</g>
	<g>
		<path style="fill:#FFFFFF;" d="M277.94,205h-24.77l-3.45,11.64h-22.39l26.65-70.62h23.83l26.56,70.62h-22.88L277.94,205z
			 M273.46,189.73l-7.79-25.39l-7.7,25.39H273.46z"/>
		<polygon style="fill:#FFFFFF;" points="314.62,146.02 336.47,146.02 336.47,172.72 359.31,146.02 388.38,146.02 362.58,172.67 
			389.54,216.65 362.63,216.65 347.76,187.58 336.47,199.41 336.47,216.65 314.62,216.65 		"/>
		<rect x="397.6" y="146.02" style="fill:#FFFFFF;" width="21.9" height="70.67"/>
		<polygon style="fill:#FFFFFF;" points="430.21,146.02 496.58,146.02 496.58,163.45 474.32,163.45 474.32,216.65 452.46,216.65 
			452.46,163.45 430.21,163.45 		"/>
		<path style="fill:#FFFFFF;" d="M546.64,205h-24.77l-3.45,11.64h-22.39l26.56-70.62h23.83l26.56,70.62h-22.88L546.64,205z
			 M542.17,189.73l-7.79-25.39l-7.7,25.39H542.17z"/>
	</g>
</g>
</svg>
