<?xml version="1.0" encoding="utf-8"?>
<!-- Created by @FCLOGO 2025-2-10 GMT+8 19:13:09 . https://fclogo.top/ -->
<!-- FOR PERSONAL USE ONLY NOT FOR COMMERCIAL USE -->
<svg version="1.1" xmlns="http://www.w3.org/2000/svg" xmlns:xlink="http://www.w3.org/1999/xlink" x="0px" y="0px"
	 viewBox="0 0 800 800" style="enable-background:new 0 0 800 800;" xml:space="preserve">
<path d="M248.1366,179.1003c-23.4173,16.1309-44.047,35.7753-61.3132,58.3914c-17.4521,22.8551-31.0237,48.1696-40.3399,75.2424
	c-9.638,28.002-14.5241,57.3609-14.5241,87.2617c0,85.4955,40.5272,165.2554,109.011,215.7735v-49.3297
	c-38.9422-37.2198-63.6586-86.9259-69.6971-140.2892l-0.8199-7.2394h7.2863h95.1617h6.5085v6.5071v214.0136
	c12.1927,6.1541,24.871,11.376,37.8288,15.5813V144.9755C292.705,152.9301,269.4956,164.3872,248.1366,179.1003 M272.9014,374.5735
	h-95.168c7.4393-65.7511,43.3772-122.8559,95.168-158.6797V374.5735z M399.0018,131.9245c44.3311,0,88.806,10.8779,125.7073,30.6879
	v2.6281v6.5087h0.1576v114.0705c-11.0573-12.0599-23.8809-22.5723-37.8288-30.9627v-63.6305v-4.4645l-4.1647-1.6068
	c-26.3811-10.1861-54.2018-15.3627-82.6879-15.383l-6.5133-0.0047v6.5118v198.2949v6.507h6.5085h120.637V418.91h-0.1998v6.5086
	v199.1132h-0.1937v6.5086v8.5293c-35.8347,18.3936-78.7777,28.4907-121.4037,28.4907c-14.8676,0-29.4856-1.2336-43.5379-3.6713
	v-38.341l0.3607,0.0844v-8.192v-55.537c12.3316,1.9972,25.0022,3.145,37.8288,3.4292v57.8793v6.5132l6.5133-0.0047
	c27.4086-0.0203,54.2408-4.8221,79.7537-14.2727l4.2474-1.574v-4.5285V425.4186V418.91h-6.5085H355.8432V182.0476l-0.0358-8.1669
	l-0.1313,0.0296v-38.3426C369.6678,133.1489,384.2152,131.9245,399.0018,131.9245 M402.2052,50
	c45.991,0.0016,90.8266,9.3617,133.2621,27.8192l7.7516,3.3684c46.4487,20.8906,88.3625,52.2045,121.7192,90.9891l1.1727,1.3789
	c2.4844,2.917,4.9595,5.9246,7.3955,8.9836c-8.9586,9.1945-17.3911,18.9917-25.1771,29.248
	c-3.946-5.2031-8.0436-10.2704-12.2379-15.1362c-11.3917-13.1936-23.892-25.4628-37.1497-36.4641
	c-17.68-14.6864-36.9918-27.4147-57.3952-37.8288c-22.0165-11.5056-45.2338-20.255-69.0053-26.0031
	c-22.8958-5.5358-46.5144-8.3435-70.2126-8.3435c-83.3907,0.0047-165.5319,34.6636-225.3633,95.0913
	c-28.0035,28.283-49.8825,60.8338-65.0311,96.7451c-15.9951,37.9163-23.8998,78.3357-23.4968,120.1341
	c-1.0494,80.8811,30.2457,157.7209,88.1251,216.3716c60.0248,60.8229,142.3176,95.7082,225.7754,95.7082
	c40.9613,0,80.7032-8.2591,118.2805-24.5649v40.5834C482.3788,742.6294,442.3965,750,401.6975,750
	c-92.8832,0-184.6094-38.9126-251.6614-106.7625C84.8456,577.2693,49.534,490.9134,50.61,400.0773v-0.0797v-0.0797
	c-1.1353-90.7268,34.0608-176.9624,99.103-242.8214C216.9366,89.0313,308.9657,49.9953,402.2052,50 M563.1477,187.3041
	c12.8562,9.8816,24.8397,20.9438,35.7346,32.9958l2.0223,2.23c16.64,18.823,30.5284,39.8417,41.3096,62.5218l5.8762,12.3629
	l5.8792-12.3629c10.6593-22.4177,24.2995-43.1365,40.6429-61.7566l4.2817-4.4068c31.8105,52.1156,49.6827,114.0471,50.4729,175.365
	c0.573,34.2279-3.8243,68.1778-13.0703,100.9238l-0.3155,1.1009c-9.5582,33.4081-24.0652,65.1546-43.1194,94.3574
	c-16.1714,24.7851-35.3818,47.3856-57.2217,67.3377v-54.1097c28.0738-32.1494,49.603-71.1026,62.3344-112.8119
	c12.2426-40.1119,16.3356-82.7363,11.9334-123.7632h0.0688l-0.9432-7.3362c-2.2643-17.6347-6.0792-35.1913-11.3401-52.1873
	l-5.1437-16.6167l-7.027,15.9123c-8.5933,19.4618-14.4164,39.9557-17.3395,61.0056h-40.1697
	c-3.0482-21.9821-9.2211-43.2771-18.3811-63.39l-12.43-27.2946v29.993v381.0852c-10.942,7.4924-22.3524,14.3867-34.0545,20.5814
	V187.3041z"/>
<g>
</g>
<g>
</g>
<g>
</g>
<g>
</g>
<g>
</g>
<g>
</g>
<g>
</g>
<g>
</g>
<g>
</g>
<g>
</g>
<g>
</g>
<g>
</g>
<g>
</g>
<g>
</g>
<g>
</g>
</svg>
