<?xml version="1.0" encoding="utf-8"?>
<!-- Created by @FCLOGO 2022-06-08 20:29:15 . https://fclogo.top/ -->
<!-- FOR PERSONAL USE ONLY NOT FOR COMMERCIAL USE -->
<svg version="1.1" xmlns="http://www.w3.org/2000/svg" xmlns:xlink="http://www.w3.org/1999/xlink" x="0px" y="0px"
	 viewBox="0 0 800 800" enable-background="new 0 0 800 800" xml:space="preserve">
<g>
	<path fill-rule="evenodd" clip-rule="evenodd" fill="#FFFFFF" d="M400.02,726.85L400.02,726.85
		c-75.85-17.58-137.77-46.27-193.23-78.09C170,495.71,131.88,342.8,90.66,188.46c8.36,1.23,18.61,1.17,30.37-0.74
		c14.87-2.41,33.72-15.63,50.85-23.42C245.9,130.63,315.7,105.72,400,87.41c84.3,18.31,154.1,43.22,228.12,76.89
		c17.12,7.79,35.98,21.01,50.85,23.42c11.76,1.91,22.01,1.96,30.37,0.74C668.13,342.8,630,495.71,593.2,648.76
		C537.75,680.58,475.86,709.27,400.02,726.85z"/>
	<path fill-rule="evenodd" clip-rule="evenodd" fill="#22245F" d="M400.09,750c94.84-39.38,163.14-68.39,202.88-97.97
		c35.92-132.42,74.53-283.99,106.75-395.39c11.54-39.89,21.24-73.42,31.13-100.78c-18.98,7.69-49.03,15.96-78.1,0.43
		c-37.76-20.17-80.58-41.45-126.52-60.7C491.57,76.88,442.86,59.54,400,50c-42.86,9.54-91.57,26.88-136.24,45.59
		c-45.94,19.24-88.76,40.53-126.52,60.7c-29.06,15.52-59.12,7.25-78.1-0.43c9.89,27.36,19.6,60.89,31.13,100.78
		c32.22,111.41,70.83,262.97,106.75,395.39C236.77,681.61,305.25,710.62,400.09,750L400.09,750z M400.02,726.85L400.02,726.85
		c-75.85-17.58-137.77-46.27-193.23-78.09C170,495.71,131.88,342.8,90.66,188.46c8.36,1.23,18.61,1.17,30.37-0.74
		c14.87-2.41,33.72-15.63,50.85-23.42C245.9,130.63,315.7,105.72,400,87.41c84.3,18.31,154.1,43.22,228.12,76.89
		c17.12,7.79,35.98,21.01,50.85,23.42c11.76,1.91,22.01,1.96,30.37,0.74C668.13,342.8,630,495.71,593.2,648.76
		C537.75,680.58,475.86,709.27,400.02,726.85z"/>
	<path fill-rule="evenodd" clip-rule="evenodd" fill="#22245F" d="M115.44,457.21l45.3,152.63c137.27,69.59,315.47,83.7,480,0
		l44.88-153.22C524.36,583.33,250,563.96,115.44,457.21z"/>
	<path fill-rule="evenodd" clip-rule="evenodd" fill="#22245F" d="M243.53,461.74c-1.06,0.86-0.8,2.33,0.26,1.5
		c6.22-4.85,12.96-7.95,19.41-11.74c0.34-0.2-0.32-1.19-0.67-1C257.87,452.99,250.01,456.46,243.53,461.74L243.53,461.74z
		 M294.57,447.26L294.57,447.26c2.33,3.61,4.66,7.22,6.99,10.82c6.63,1.89,14.12,5.09,21.64,8.33c1.72-1.44,3.44-2.89,5.16-4.33
		C317.93,452.98,306.78,447.48,294.57,447.26L294.57,447.26z M279.85,471.64L279.85,471.64l4.37,23.91l-23.91,15.41l-18.85-13.11
		c0.67-9.17,5.53-17.88,11.72-26.44L279.85,471.64L279.85,471.64z M329.24,490.71L329.24,490.71l9.93,13.16
		c-1.93,6.4-3.24,14.07-9.18,18.86c-5.83,4.7-15.08,5.31-20.11,4.97l0.5-22.1L329.24,490.71L329.24,490.71z M427.17,210.58
		L427.17,210.58c32.84,23.97,70.54,44.19,114.22,51.03c-1.76,30.36-2.75,60.64-4.76,91.68c-2.12,32.66-11.58,63.31-23.57,94.06
		c-11.64,29.86-32.07,57.03-49.63,84.35c-5.72,0.12-11.43,0.24-17.15,0.35c33.58-38.63,52.75-100.45,58.19-166.89
		c2.57-31.36,0.22-63.74,0.33-95.21C468.21,253.46,447.21,232.78,427.17,210.58L427.17,210.58z M386.37,107.48L386.37,107.48
		c24.18,85.68,96.82,124.15,208.5,123.14c-9.49,66.18-19.58,132.15-29.06,198.32c-15.13,34.69-34.28,68.21-55.28,93.55
		c15.78-4.21,31.99-7.55,46.77-13.74c14.46-23.29,28.01-47.13,38.27-72.95c11.25-76.25,22.5-152.51,33.75-228.76
		C516.75,220.1,424.57,186.38,386.37,107.48L386.37,107.48z M257.68,312.1L257.68,312.1c-23.96-3.8-47.88-6.82-74.96-4.4
		c2.38,13.86,3.59,28.01,5.96,41.87c18.35,0.53,37.3,0.63,55.63,1.59c38.73,2.02,76.88,8.64,112.48,32.87
		c-12.61-24.21-40.35-58.38-86.34-78.02c-39.49-16.86-82.33-21.51-105.74-24.55c0.53,9.5,1.06,19.01,1.58,28.52
		c-5.22-21.07-12.7-41.11-25.74-58.62c10.17,0.26,19.77,1.09,28.51,2.77c-1.98-12.68-3.96-25.35-5.94-38.02
		c70.46,1.12,132.31-9.96,182.18-38.02c32.05,39.26,71.51,102.78,85.15,168.71c18.65,90.17-13.9,154.92-41.76,187.27
		c-3.27,0-6.54,0-9.81,0c24.54-39.03,46.86-103.28,25.41-182.93c-15.27-56.71-50.8-110.42-78.25-142.64
		c-41.77,14.85-95.27,18.34-155.35,15.46c1.22,10.28,2.43,20.55,3.65,30.83c27.36,4.39,69.81,15.88,106.32,37.38
		c58.8,34.63,87.1,80.96,89.38,119.62c-11.25-20.25-36.86-35.37-69.37-41.82c-40.71-8.07-79.44-4.3-122.73,2.22
		c1.48,11.81,2.95,23.62,4.43,35.44c-5.79-20.07-17.38-38.2-30.18-55.93c10.43-0.37,20.27-0.74,30.7-1.11
		c-2.4-16.15-4.22-32.3-6.62-48.45C202.28,298.65,233.24,302.38,257.68,312.1L257.68,312.1z M220.56,481.78L220.56,481.78
		c-9.95-15.82-23.57-30-43.68-41.92c5.92-2.52,12.43-5.34,18.34-7.86c-2.23-14.07-3.64-28.88-5.87-42.95
		c21.29-4.4,42.23-7.61,68.18-1.88c-21.7-1.66-42.98-0.81-61.99,5.7c1.65,12.03,3.86,24.49,5.51,36.52
		c16.59-6.95,37.01-16.21,60.56-19.51c45.82-6.42,87.46,3.78,102.49,36.69c-32.01-37.87-101.73-32.98-157.52,7.28
		C211.24,463.14,215.9,472.46,220.56,481.78z"/>
	<path fill-rule="evenodd" clip-rule="evenodd" fill="#CA8222" d="M403.28,116.84c6.97,3.42,13.93,6.83,20.9,10.25
		c10.95,20.86,23.75,39.55,40.59,53.45C438.65,167.35,418.15,146.12,403.28,116.84L403.28,116.84z M475.08,215.63L475.08,215.63
		c33.31,14.05,68.77,22.9,108.45,21.49c-0.23,3.69-0.45,7.39-0.68,11.08C537.27,244.64,502.02,233.27,475.08,215.63L475.08,215.63z
		 M640.38,213.54L640.38,213.54l-39.75,229.69l-34.32,62.29l17.53-7.7l27.07-49.89l46.87-224.65L640.38,213.54L640.38,213.54z
		 M462.93,253.41L462.93,253.41l33.98,24.24v10.22L462.93,253.41L462.93,253.41z M547.65,265.47L547.65,265.47
		c-3.2,33.41-2.6,70.61-5.84,102.78c-2.51,24.87-9.13,42.43-17.11,63.36c-13.33,34.95-30.45,67.64-55.42,98.29
		c2.44,0.15,4.4-0.16,6.84,0c18.26-22.21,39.38-53.75,52.94-87.69c10.86-27.17,19.46-54.7,22.14-83.86
		c2.64-28.73,3.99-57.88,6.36-86.64C554.26,269.62,550.96,267.55,547.65,265.47L547.65,265.47z M364.98,187.37L364.98,187.37
		c5.19,2,10.38,3.99,15.56,5.99c12.8,16.75,45.12,71.43,57.79,126.26c15,64.92,4.31,120.61-10.98,154.9
		c15.99-39.53,19.83-99.42-1.77-168.36C412.51,264.39,391.24,226.97,364.98,187.37L364.98,187.37z M205.77,230.67L205.77,230.67
		c41.27-0.6,81.38-2.43,113.36-12.87c2.18,2.72,4.36,5.45,6.54,8.17C291.81,232.34,245.19,233.18,205.77,230.67L205.77,230.67z
		 M311.61,307.49L311.61,307.49c37.3,30.69,56.24,65.17,62.99,101.84c1.91-3.16,3.82-6.31,5.73-9.46
		C370.48,359.85,346.7,329.57,311.61,307.49L311.61,307.49z M191.03,343.35L191.03,343.35c-2.23-10.03-3.29-20.84-4.18-31.77
		c21.68-1.28,42.87-0.67,63.21,2.51c-18.44,0.03-38.8,0.19-57.69,2.01C191.52,325.18,190.99,334.26,191.03,343.35L191.03,343.35z
		 M202.59,421.47L202.59,421.47c-1.77-8.79-2.94-17.57-3.32-26.36c16.86-3.15,33.99-4.71,51.32-5.06
		c-15.86,2.65-31.57,5.48-45.56,10.47C203.67,407.51,203.03,414.49,202.59,421.47L202.59,421.47z M264.11,430.65L264.11,430.65
		c-17.57,5.62-35.13,12.88-52.7,24.68c2.01,5.68,4.33,11.2,7.2,16.45c-0.26-5.9-1.57-10.43-1.83-15.04
		C229.43,447.86,246.65,438.86,264.11,430.65L264.11,430.65z M301.56,462.03L301.56,462.03c11.13,4.25,20.24,7.13,23.56,7.77
		l4.77-4.14l1.24,2.07l-5.38,4.97C314.9,468.74,307.69,465.5,301.56,462.03L301.56,462.03z M339.1,504.11L339.1,504.11l2.81,3.72
		c-1.93,6.4-4.04,17.26-10.7,20.99c-5.03,2.82-9.48,0.88-12.58-1.53c3.98-0.64,8.18-1.98,11.37-4.55
		C335.86,518,337.21,510.46,339.1,504.11L339.1,504.11z M284.4,474.69L284.4,474.69l4.37,23.91L264.86,514l-4.46-3.1l23.82-15.34
		l-3.82-20.91L284.4,474.69L284.4,474.69z M246.22,465.69L246.22,465.69c6.48-5.29,14.34-8.75,19-11.25c0.35-0.19,1.01,0.8,0.67,1
		c-6.44,3.79-13.19,6.89-19.41,11.74C245.42,468.02,245.16,466.55,246.22,465.69z"/>
	<g>
		<g>
			<path fill-rule="evenodd" clip-rule="evenodd" fill="#FFFFFF" d="M586.3,612.83c0-5.96,0-11.92,0-17.88c0-5.96,0-11.93,0-17.9
				c3.78-1.39,7.61-2.84,11.42-4.38c4.1-1.66,7.15-2.24,9.21-1.71c2.08,0.53,3.11,2.18,3.11,5.11c0,1.55-0.32,3.04-1.02,4.55
				c-0.71,1.52-1.73,2.94-3.07,4.24c2.17-0.28,3.79,0.02,4.84,0.99c1.07,0.98,1.61,2.62,1.61,4.9c0,3.33-1.02,6.27-3.07,8.94
				c-2.05,2.68-5.1,5.06-9.17,6.97C595.52,608.83,590.9,610.86,586.3,612.83L586.3,612.83z M598.11,586.39L598.11,586.39
				c1.42-0.61,2.43-1.35,3.11-2.25c0.7-0.92,1.07-1.99,1.07-3.2c0-1.34-0.37-2.16-1.07-2.52c-0.68-0.35-1.73-0.26-3.11,0.31
				c-1.34,0.55-2.68,1.09-4.02,1.65c0,2.57,0,5.14,0,7.7C595.43,587.52,596.77,586.96,598.11,586.39L598.11,586.39z M594.09,602.97
				L594.09,602.97c1.5-0.66,3-1.3,4.49-1.98c2.01-0.92,3.46-1.94,4.29-2.95c0.86-1.05,1.3-2.29,1.3-3.75c0-1.49-0.47-2.37-1.38-2.67
				c-0.91-0.3-2.32-0.01-4.25,0.85c-1.49,0.66-2.99,1.29-4.45,1.92C594.09,597.25,594.09,600.11,594.09,602.97z"/>
			<path fill-rule="evenodd" clip-rule="evenodd" fill="#FFFFFF" d="M580.53,581.03c0,3.46,0,6.92,0,10.38c0,3.45,0,6.92,0,10.37
				c0,2.54-0.38,4.93-1.04,7.15c-0.67,2.22-1.72,4.31-3.06,6.21c-2.72,3.85-6.58,6.61-11.47,8.25c-4.9,1.64-8.71,1.39-11.47-0.69
				c-1.38-1.04-2.43-2.48-3.1-4.31c-0.67-1.84-1-4.07-1-6.69c0-3.57,0-7.13,0-10.69c0-3.57,0-7.13,0-10.69
				c2.76-0.79,5.53-1.56,8.29-2.33c0,3.49,0,6.97,0,10.46c0,3.48,0,6.97,0,10.45c0,2.96,0.62,5.04,1.88,6.21
				c1.25,1.16,3.1,1.34,5.49,0.56c2.34-0.77,4.14-2.14,5.4-4.09c1.26-1.95,1.84-4.38,1.84-7.31c0-3.44,0-6.87,0-10.31
				c0-3.44,0-6.87,0-10.31C575,582.83,577.77,581.94,580.53,581.03z"/>
			<path fill-rule="evenodd" clip-rule="evenodd" fill="#FFFFFF" d="M522.74,632.53c0-5.63,0-11.26,0-16.89c0-5.63,0-11.26,0-16.89
				c2.93-0.58,5.89-1.17,8.86-1.76c0,4.54,0,9.08,0,13.62c0,4.53,0,9.07,0,13.61c5.08-1.12,10.16-2.26,15.24-3.4
				c0,2.16,0,4.31,0,6.47C538.79,629.1,530.74,630.91,522.74,632.53z"/>
			<path fill-rule="evenodd" clip-rule="evenodd" fill="#FFFFFF" d="M516.47,633.47c-2.16,1.7-4.36,3.08-6.66,4.11
				c-2.24,1-4.64,1.71-7.12,2.15c-2.85,0.5-5.42,0.53-7.81,0.08c-2.39-0.45-4.44-1.38-6.2-2.79c-1.83-1.47-3.21-3.31-4.18-5.49
				c-0.96-2.17-1.42-4.6-1.42-7.27c0-2.82,0.46-5.42,1.38-7.84c0.92-2.42,2.34-4.65,4.23-6.69c3.77-4.08,8.68-6.64,14.83-7.75
				c2.21-0.39,4.36-0.57,6.43-0.48c2.11,0.09,4.18,0.44,6.2,1.06c0,2.85,0,5.68,0,8.53c-1.97-0.92-4-1.49-6.02-1.76
				c-1.98-0.27-3.99-0.21-6.01,0.16c-3.62,0.68-6.51,2.15-8.59,4.5c-2.1,2.37-3.17,5.28-3.17,8.78c0,3.4,1,5.94,2.99,7.61
				c2.01,1.69,4.68,2.23,8.08,1.62c2.16-0.39,4.32-1.15,6.52-2.32c2.21-1.17,4.36-2.76,6.52-4.7
				C516.47,627.8,516.47,630.64,516.47,633.47z"/>
			<path fill-rule="evenodd" clip-rule="evenodd" fill="#FFFFFF" d="M440.61,646.74c0-11.33-0.37-22.66-0.37-33.99
				c3.26-0.3,5.41,0.38,8.72,0c0,9.02,0.13,18.51,0.13,27.52l17.24-1.86c0,2.32,0.23,4.17,0.23,6.48L440.61,646.74z"/>
			<path fill-rule="evenodd" clip-rule="evenodd" fill="#FFFFFF" d="M368.24,646.94c2.49-5.38,4.99-10.8,7.46-16.26
				c2.5-5.52,4.98-11.05,7.51-16.58c3.27,0.02,6.59,0.01,9.91-0.1c2.23,5.48,4.45,10.95,6.68,16.42c2.22,5.45,4.46,10.9,6.72,16.33
				c-3.06,0.14-6.11,0.27-9.12,0.4c-0.83-2.13-1.66-4.25-2.44-6.37c-4.93,0.07-9.87,0.07-14.8,0.07c-0.92,2.15-1.83,4.3-2.75,6.45
				C374.36,647.24,371.3,647.1,368.24,646.94L368.24,646.94z M382.65,635.16L382.65,635.16c3.36,0.01,6.73,0.01,10.13-0.03
				c-0.83-2.1-1.66-4.19-2.45-6.29c-0.78-2.09-1.57-4.18-2.36-6.28c-0.92,2.09-1.83,4.2-2.71,6.3
				C384.4,630.95,383.53,633.06,382.65,635.16z"/>
			<path fill-rule="evenodd" clip-rule="evenodd" fill="#FFFFFF" d="M341,645.22c0-5.54,0-11.07,0-16.61c0-5.54,0-11.08,0-16.62
				c3.86,0.18,7.72,0.36,11.63,0.52c4.18,0.17,7.33,0.86,9.45,2.32c2.1,1.45,3.18,3.61,3.18,6.46c0,1.5-0.36,2.81-1.09,3.94
				c-0.72,1.13-1.77,2.01-3.14,2.67c2.21,0.74,3.86,1.83,4.95,3.27c1.09,1.45,1.65,3.29,1.65,5.5c0,3.22-1.04,5.64-3.14,7.25
				c-2.09,1.61-5.19,2.32-9.37,2.12C350.41,645.84,345.7,645.62,341,645.22L341,645.22z M353.03,625.75L353.03,625.75
				c1.45,0.06,2.5-0.17,3.22-0.73c0.69-0.55,1.04-1.42,1.04-2.59c0-1.3-0.38-2.25-1.08-2.9c-0.7-0.64-1.77-1.02-3.18-1.09
				c-1.37-0.06-2.74-0.12-4.11-0.18c0,2.43,0,4.86,0,7.29C350.29,625.62,351.66,625.69,353.03,625.75L353.03,625.75z M348.92,639.66
				L348.92,639.66c1.53,0.07,3.06,0.14,4.63,0.21c2.01,0.09,3.51-0.13,4.38-0.71c0.86-0.57,1.29-1.58,1.29-2.98
				c0-1.45-0.44-2.53-1.37-3.24c-0.92-0.71-2.37-1.11-4.38-1.19c-1.53-0.07-3.06-0.15-4.55-0.21
				C348.92,634.24,348.92,636.95,348.92,639.66z"/>
			<path fill-rule="evenodd" clip-rule="evenodd" fill="#FFFFFF" d="M314.93,641.33c0-4.69,0-9.38,0-14.07c0-4.69,0-9.38,0-14.06
				c-4.13-0.7-9.61-1.45-13.69-2.26c0-2.13,0-4.26,0-6.39c11.5,2.08,23.04,3.97,34.58,5.47c0,2.15,0,4.31,0,6.47
				c-4.13-0.54-9.1-1.59-13.19-2.15c0,4.69,0,9.38,0,14.08c0,4.69,0,8.88,0,13.58C319.31,641.42,318.21,641.87,314.93,641.33z"/>
			<path fill-rule="evenodd" clip-rule="evenodd" fill="#FFFFFF" d="M260.42,611.34c0-2.61,0.46-4.89,1.42-6.85
				c0.96-1.95,2.33-3.56,4.2-4.81c1.83-1.22,3.89-1.94,6.22-2.19c2.29-0.24,4.84,0,7.68,0.65c2.87,0.66,5.45,1.59,7.77,2.95
				c2.29,1.33,4.38,3.06,6.17,5.11c1.86,2.12,3.28,4.39,4.21,6.79c0.94,2.43,1.46,4.94,1.46,7.57c0,2.62-0.52,4.93-1.46,7
				c-0.93,2.05-2.33,3.73-4.21,5.04c-1.82,1.27-3.88,2.08-6.22,2.41c-2.33,0.33-4.9,0.21-7.72-0.48c-2.79-0.68-5.35-1.75-7.68-3.18
				c-2.29-1.41-4.4-3.21-6.22-5.37c-1.84-2.19-3.24-4.55-4.2-7.04C260.87,616.46,260.42,613.94,260.42,611.34L260.42,611.34z
				 M269.7,613.8L269.7,613.8c0,3.13,0.96,5.95,2.88,8.45c1.92,2.5,4.38,4.16,7.36,4.87c3.01,0.72,5.49,0.23,7.41-1.37
				c1.92-1.6,2.88-3.97,2.88-7.11c0-3.16-0.96-5.97-2.88-8.43c-1.92-2.46-4.4-4-7.41-4.69c-2.98-0.69-5.44-0.32-7.36,1.23
				C270.66,608.3,269.7,610.64,269.7,613.8z"/>
			<path fill-rule="evenodd" clip-rule="evenodd" fill="#FFFFFF" d="M195.63,602.11c0-5.37,0-10.75,0-16.12c0-5.37,0-10.75,0-16.13
				c7.07,2.01,14.15,4.37,21.27,6.9c0,2.07,0,4.13,0,6.2c-4.35-1.58-9.6-3.61-13.96-5.09c0,2.38,0,4.75,0,7.13
				c4.06,1.44,9.06,3.4,13.16,4.93c0,2.1,0,4.21,0,6.32c-4.1-1.56-9.1-3.56-13.16-5.05c0,2.26,0,4.52,0,6.77c0,2.26,0,4.52,0,6.78
				C200.17,603.68,198.35,603.11,195.63,602.11z"/>
			<path fill-rule="evenodd" clip-rule="evenodd" fill="#FFFFFF" d="M411.61,647.62c-0.04-11.33-0.46-21.39-0.5-32.73
				c3.26-0.31,5.41,0.36,8.72-0.03c0.04,9.02,0.44,18.2,0.48,27.21h17.23c0.01,2.32,0.02,3.24,0.03,5.55H411.61z"/>
			<path fill-rule="evenodd" clip-rule="evenodd" fill="#FFFFFF" d="M219.38,598.3c0-2.61,0.46-4.89,1.42-6.84
				c0.96-1.96,2.33-3.56,4.2-4.81c1.83-1.22,3.89-1.95,6.22-2.19c2.29-0.23,4.84,0,7.68,0.65c2.87,0.66,5.45,1.6,7.77,2.95
				c2.29,1.34,4.37,3.06,6.17,5.11c1.86,2.12,3.28,4.39,4.21,6.79c0.94,2.43,1.46,4.94,1.46,7.58c0,2.62-0.52,4.93-1.46,7
				c-0.93,2.05-2.33,3.74-4.21,5.04c-1.83,1.27-3.89,2.08-6.22,2.41c-2.33,0.33-4.9,0.21-7.72-0.48c-2.8-0.68-5.35-1.75-7.68-3.18
				c-2.29-1.41-4.4-3.22-6.22-5.37c-1.84-2.19-3.24-4.55-4.2-7.04C219.83,603.42,219.38,600.9,219.38,598.3L219.38,598.3z
				 M228.65,600.76L228.65,600.76c0,3.13,0.96,5.95,2.88,8.45c1.92,2.5,4.38,4.16,7.36,4.87c3.01,0.72,5.48,0.23,7.4-1.37
				c1.92-1.59,2.88-3.97,2.88-7.11c0-3.17-0.96-5.97-2.88-8.43c-1.92-2.46-4.4-4-7.4-4.69c-2.98-0.69-5.44-0.32-7.36,1.23
				C229.62,595.26,228.65,597.6,228.65,600.76z"/>
		</g>
		<g>
			<path fill-rule="evenodd" clip-rule="evenodd" fill="#FFFFFF" d="M548.84,575.38L548.84,575.38c-1.82,1.91-3.69,3.47-5.66,4.68
				c-2.03,1.22-4.18,2.11-6.57,2.66c-2.27,0.52-4.39,0.62-6.3,0.25c-1.9-0.4-3.6-1.21-4.99-2.44c-1.51-1.3-2.6-2.96-3.39-4.95
				c-0.82-1.99-1.2-4.23-1.21-6.73c-0.01-2.65,0.39-5.11,1.13-7.39c0.74-2.27,1.92-4.36,3.47-6.24c3.03-3.73,7.01-6.01,11.99-6.89
				c1.84-0.32,3.65-0.4,5.42-0.24c1.78,0.15,3.59,0.57,5.42,1.23c0,2.37,0,4.74,0,7.11c-1.93-0.71-3.77-1.16-5.52-1.36
				c-1.75-0.21-3.38-0.16-4.92,0.13c-2.93,0.55-5.24,1.89-6.93,4.07c-1.68,2.16-2.53,4.87-2.52,8.11c0.01,3.14,0.81,5.47,2.42,6.98
				c1.6,1.5,3.79,1.93,6.48,1.34c0.7-0.16,1.42-0.41,2.12-0.73c0.73-0.34,1.42-0.75,2.12-1.25c0-1.37,0-2.74,0-4.12
				c-1.36,0.31-2.69,0.6-4.03,0.89c0-2.06,0-4.13,0-6.21c3.78-0.8,7.63-1.63,11.47-2.45c0,2.26,0,4.52,0,6.78
				C548.84,570.86,548.84,573.12,548.84,575.38z"/>
			<path fill-rule="evenodd" clip-rule="evenodd" fill="#FFFFFF" d="M491.98,569.25L491.98,569.25c-0.01,3.67-0.01,7.28,0.02,10.83
				c0.03,3.54,0.03,7.09,0.06,10.67c-2.43,0.36-4.85,0.7-7.24,1.05c-0.03-5.69-0.1-11.32-0.09-17.02
				c0.01-5.85,0.18-11.78,0.24-17.65c2.11-0.28,4.25-0.57,6.39-0.86c2.56,3.1,5.11,6.22,7.68,9.32c2.56,3.08,5.19,6.07,7.79,9.02
				c0-3.39,0-6.82,0.03-10.28c0.04-3.47,0.04-6.93,0.07-10.36c2.38-0.37,4.8-0.75,7.2-1.14c-0.02,5.74-0.08,11.5-0.07,17.22
				c0.01,5.64,0.06,11.25,0.09,16.88c-1.94,0.38-3.84,0.74-5.75,1.08c-2.73-3.07-5.52-6.13-8.24-9.21
				C497.44,575.67,494.67,572.49,491.98,569.25z"/>
			<path fill-rule="evenodd" clip-rule="evenodd" fill="#FFFFFF" d="M416.55,597.13L416.55,597.13c-0.12-5.41-0.33-10.72-0.36-16.16
				c-0.03-5.75,0.23-11.65,0.28-17.43c2.41-0.13,4.82-0.26,7.26-0.39c-0.01,2.3-0.07,4.65-0.13,7.01c-0.06,2.37-0.13,4.75-0.18,7.1
				c4.26-0.24,8.59-0.5,12.92-0.79c0.05-2.37,0.12-4.75,0.18-7.14c0.07-2.38,0.1-4.74,0.14-7.06c2.38-0.19,4.79-0.39,7.23-0.58
				c-0.08,5.88-0.34,11.85-0.34,17.7c0,5.6,0.09,11.09,0.15,16.67c-2.42,0.14-4.81,0.27-7.21,0.41c-0.03-2.27-0.05-4.51-0.06-6.72
				c-0.02-2.2-0.06-4.41-0.09-6.64c-4.3,0.27-8.63,0.5-12.9,0.72c0.03,2.2,0.08,4.38,0.12,6.54c0.04,2.18,0.06,4.38,0.09,6.62
				C421.27,597.04,418.91,597.09,416.55,597.13z"/>
			<path fill-rule="evenodd" clip-rule="evenodd" fill="#FFFFFF" d="M409.98,594.44L409.98,594.44c-1.67,1.12-3.39,1.95-5.15,2.48
				c-1.76,0.51-3.63,0.75-5.57,0.71c-2.24-0.04-4.36-0.49-6.36-1.33c-2.03-0.83-3.78-1.99-5.33-3.46c-1.57-1.52-2.81-3.28-3.66-5.25
				c-0.88-1.98-1.42-4.13-1.48-6.48c-0.07-2.56,0.35-4.91,1.16-7.05c0.81-2.14,2.04-4.01,3.67-5.63c3.17-3.2,7.25-4.79,12.25-4.89
				c1.81-0.03,3.49,0.14,5.18,0.55c1.72,0.4,3.36,1.04,5,1.91c-0.04,2.71-0.12,5.46-0.21,8.21c-1.57-1.21-3.11-2.1-4.71-2.68
				c-1.6-0.6-3.18-0.87-4.78-0.85c-2.93,0.05-5.3,1.02-7.11,2.92c-1.8,1.89-2.73,4.46-2.66,7.67c0.07,2.98,1.06,5.31,2.76,7.05
				c1.76,1.75,4,2.65,6.66,2.67c1.7,0.01,3.39-0.3,5.09-0.95c1.73-0.66,3.42-1.67,5.09-3.01
				C409.86,589.5,409.92,591.96,409.98,594.44z"/>
			<path fill-rule="evenodd" clip-rule="evenodd" fill="#FFFFFF" d="M376.79,592.55L376.79,592.55c-1.76,1.29-3.63,2.21-5.66,2.78
				c-2,0.58-4.21,0.77-6.6,0.58c-2.33-0.18-4.48-0.73-6.42-1.63c-1.97-0.93-3.66-2.15-5.12-3.65c-1.54-1.56-2.73-3.32-3.54-5.28
				c-0.85-1.97-1.32-4.09-1.36-6.39c-0.05-2.54,0.39-4.88,1.21-6.96c0.83-2.1,2.06-3.88,3.65-5.37c3.01-2.89,6.95-4.12,11.92-3.77
				c1.81,0.13,3.65,0.46,5.45,1.02c1.8,0.56,3.62,1.41,5.51,2.53c-0.04,2.48-0.1,4.98-0.18,7.5c-1.92-1.27-3.79-2.22-5.53-2.88
				c-1.74-0.67-3.41-1.03-4.89-1.14c-2.99-0.21-5.32,0.57-7.06,2.34c-1.73,1.76-2.7,4.23-2.63,7.39c0.06,2.92,0.98,5.24,2.66,7.01
				c1.68,1.76,3.88,2.74,6.6,2.94c0.7,0.05,1.45,0.03,2.15-0.07c0.72-0.12,1.42-0.3,2.12-0.55c-0.03-1.24-0.09-2.49-0.15-3.75
				c-1.36-0.08-2.72-0.17-4.06-0.26c-0.09-1.9-0.15-3.84-0.23-5.85c3.84,0.23,7.75,0.43,11.63,0.63c0.08,2.25,0.17,4.43,0.26,6.55
				C376.61,588.35,376.7,590.44,376.79,592.55z"/>
			<path fill-rule="evenodd" clip-rule="evenodd" fill="#FFFFFF" d="M320.12,571.26L320.12,571.26c-0.13,3.52-0.1,6.83-0.07,9.96
				c0.03,3.05,0.06,6.14,0.09,9.36c-2.36-0.34-4.72-0.69-7.05-1.04c-0.03-5.06-0.19-9.93-0.09-15.04c0.11-5.64,0.75-11.51,1.03-17.2
				c1.99,0.33,4.04,0.67,6.09,1.01c2.4,3.7,4.64,7.54,6.95,11.35c2.29,3.78,4.83,7.36,7.46,10.77c-0.06-3.09-0.06-6.37,0.12-9.78
				c0.18-3.46,0.41-6.87,0.47-10.17c2.29,0.31,4.61,0.59,6.96,0.86c-0.15,5.6-0.58,11.35-0.57,16.91c0.01,5.1,0.3,9.98,0.42,15.04
				c-1.88-0.2-3.78-0.41-5.66-0.64c-2.76-3.54-5.58-6.93-8.27-10.35C325.3,578.84,322.63,575.13,320.12,571.26z"/>
			<path fill-rule="evenodd" clip-rule="evenodd" fill="#FFFFFF" d="M256.83,578.88c0.03-2.34,0.05-4.57,0.06-6.75
				c0.02-2.16,0.06-4.36,0.06-6.66c-1.79-3.35-3.41-6.92-4.86-10.6c-1.46-3.71-2.99-7.37-4.64-10.87c2.77,0.59,5.57,1.18,8.38,1.77
				c0.9,2.04,1.83,4.15,2.61,6.29c0.8,2.17,1.61,4.36,2.41,6.53c1.26-1.74,2.56-3.47,3.81-5.21c1.23-1.72,2.44-3.38,3.55-4.99
				c2.74,0.58,5.49,1.15,8.26,1.72c-2.04,2.73-4.19,5.59-6.4,8.52c-2.18,2.9-4.26,5.68-6.16,8.27c-0.03,2.32-0.06,4.54-0.09,6.72
				c-0.03,2.19-0.06,4.44-0.09,6.8C261.43,579.9,259.13,579.39,256.83,578.88z"/>
			<path fill-rule="evenodd" clip-rule="evenodd" fill="#FFFFFF" d="M305.94,566.28c-0.55-2.37-1.43-4.56-2.73-6.56
				c-1.27-1.89-2.81-3.39-4.53-4.52c-1.77-1.12-3.75-1.87-5.95-2.31c-2.17-0.42-4.13-0.44-5.92-0.01c-1.81,0.43-3.47,1.33-5.01,2.73
				c-1.63,1.48-2.92,3.3-3.9,5.44c-0.96,2.12-1.55,4.45-1.62,6.95c-0.06,2.33,0.3,4.47,1.03,6.47c0.7,1.98,1.79,3.82,3.18,5.53
				c1.42,1.73,3,3.14,4.82,4.23c1.78,1.09,3.78,1.86,5.96,2.26c2.21,0.4,4.24,0.36,6.09-0.08c1.78-0.44,3.42-1.26,4.87-2.45
				c1.45-1.2,2.57-2.65,3.3-4.37c0.79-1.74,1.09-3.74,1.12-6.07C306.67,571.05,306.51,568.63,305.94,566.28z M297.1,578.59
				c-1.51,1.4-3.46,1.91-5.78,1.49c-2.33-0.42-4.21-1.63-5.69-3.57c-1.49-1.96-2.26-4.3-2.18-7.11c0.08-3.02,1.11-5.46,2.81-7.24
				c1.71-1.8,3.68-2.46,6.01-2.02c2.29,0.44,4.1,1.81,5.39,4.16c1.3,2.32,1.8,5.02,1.75,8.02
				C299.36,575.1,298.61,577.17,297.1,578.59z"/>
			<path fill-rule="evenodd" clip-rule="evenodd" fill="#FFFFFF" d="M474.68,576.14c-1.88-5.61-3.61-11.36-5.41-17.04
				c-2.8,0.32-5.6,0.65-8.41,0.95c-2.2,6.12-4.49,12.31-6.65,18.4c-2.07,5.84-4.12,11.54-6.18,17.31c2.55-0.19,5.12-0.39,7.72-0.62
				c0.75-2.28,1.51-4.54,2.27-6.78c4.18-0.4,8.39-0.87,12.6-1.33c0.66,2.11,1.39,4.23,2.12,6.37c2.57-0.32,5.15-0.65,7.72-0.98
				C478.53,586.96,476.52,581.61,474.68,576.14z M460.12,582.41c0.7-2.21,1.45-4.48,2.2-6.76c0.76-2.32,1.58-4.67,2.41-7.03
				c0.6,2.19,1.22,4.38,1.89,6.53c0.67,2.14,1.38,4.23,2.11,6.3C465.84,581.78,462.96,582.12,460.12,582.41z"/>
		</g>
	</g>
</g>
<g>
</g>
<g>
</g>
<g>
</g>
<g>
</g>
<g>
</g>
<g>
</g>
<g>
</g>
<g>
</g>
<g>
</g>
<g>
</g>
<g>
</g>
</svg>
