<?xml version="1.0" encoding="utf-8"?>
<!-- Created by @FCLOGO 2024-9-16 GMT+8 16:45:56 . https://fclogo.top/ -->
<!-- FOR PERSONAL USE ONLY NOT FOR COMMERCIAL USE -->
<svg version="1.1" xmlns="http://www.w3.org/2000/svg" xmlns:xlink="http://www.w3.org/1999/xlink" x="0px" y="0px"
	 viewBox="0 0 800 800" style="enable-background:new 0 0 800 800;" xml:space="preserve">
<path style="fill:#CCCCCC;" d="M348.22,774.3c-0.79,0-1.38-0.22-1.77-0.65c-0.39-0.44-0.53-1.03-0.41-1.79l0.25-1.65
	c0.12-0.75,0.45-1.35,0.98-1.78c0.53-0.44,1.19-0.65,1.98-0.65c0.76,0,1.33,0.2,1.72,0.6c0.39,0.4,0.55,0.94,0.47,1.62h-1.24
	c0.03-0.36-0.06-0.64-0.26-0.84c-0.2-0.2-0.5-0.3-0.89-0.3c-0.42,0-0.76,0.12-1.03,0.35c-0.27,0.23-0.43,0.56-0.5,0.99l-0.26,1.66
	c-0.07,0.44-0.01,0.77,0.19,1c0.19,0.23,0.5,0.35,0.92,0.35c0.39,0,0.72-0.1,0.98-0.3c0.26-0.2,0.44-0.48,0.52-0.85h1.24
	c-0.14,0.69-0.47,1.23-0.99,1.63C349.61,774.1,348.97,774.3,348.22,774.3z M352.8,774.19l1-6.29h1.19l-0.19,1.19
	c0.34-0.87,0.97-1.3,1.91-1.3c0.67,0,1.17,0.21,1.49,0.62c0.32,0.42,0.43,0.99,0.31,1.71l-0.07,0.42h-1.27l0.06-0.32
	c0.07-0.45,0.01-0.8-0.17-1.04c-0.18-0.24-0.48-0.36-0.88-0.36c-0.4,0-0.74,0.12-1.01,0.37c-0.27,0.24-0.43,0.59-0.5,1.03
	l-0.63,3.97H352.8z M361.91,774.3c-0.77,0-1.35-0.22-1.73-0.67c-0.38-0.45-0.51-1.04-0.4-1.77l0.25-1.65
	c0.08-0.49,0.26-0.92,0.52-1.28c0.26-0.37,0.6-0.65,1.01-0.85c0.41-0.2,0.87-0.3,1.38-0.3c0.77,0,1.35,0.22,1.73,0.67
	c0.39,0.45,0.52,1.04,0.39,1.77l-0.17,1.12h-3.85l-0.09,0.53c-0.15,0.95,0.22,1.43,1.11,1.43c0.72,0,1.17-0.25,1.37-0.74h1.22
	c-0.17,0.53-0.5,0.96-1.01,1.28C363.16,774.14,362.58,774.3,361.91,774.3z M361.23,770.22l-0.05,0.29l2.65-0.01l0.05-0.29
	c0.07-0.47,0.01-0.82-0.17-1.07c-0.18-0.25-0.49-0.37-0.92-0.37c-0.44,0-0.8,0.13-1.06,0.38
	C361.48,769.39,361.31,769.75,361.23,770.22z M368.33,774.3c-0.63,0-1.1-0.21-1.41-0.64c-0.31-0.42-0.4-1-0.27-1.73l0.27-1.77
	c0.11-0.73,0.39-1.31,0.84-1.74c0.44-0.43,0.98-0.64,1.61-0.64c0.47,0,0.83,0.12,1.09,0.35c0.26,0.24,0.39,0.56,0.38,0.96h0.02
	l0.17-1.2h1.24l-1,6.29h-1.22l0.19-1.2h-0.02c-0.12,0.41-0.35,0.73-0.69,0.97C369.2,774.18,368.8,774.3,368.33,774.3z
	 M368.93,773.23c0.39,0,0.72-0.12,0.98-0.36c0.26-0.24,0.43-0.57,0.5-1.01l0.25-1.65c0.07-0.43,0.01-0.76-0.18-1
	c-0.19-0.24-0.47-0.36-0.86-0.36c-0.4,0-0.72,0.12-0.98,0.35c-0.26,0.24-0.42,0.57-0.49,1.01l-0.25,1.65
	c-0.07,0.44-0.01,0.78,0.17,1.01C368.24,773.11,368.53,773.23,368.93,773.23z M376.35,774.19c-0.57,0-0.99-0.16-1.26-0.47
	c-0.27-0.31-0.36-0.75-0.27-1.32l0.54-3.39h-1.74l0.17-1.12h1.74l0.27-1.72h1.24l-0.27,1.72h2.47l-0.18,1.12h-2.46l-0.54,3.39
	c-0.08,0.44,0.1,0.66,0.53,0.66h1.72l-0.17,1.12H376.35z M382.5,774.3c-0.77,0-1.35-0.22-1.73-0.67c-0.38-0.45-0.52-1.04-0.4-1.77
	l0.25-1.65c0.08-0.49,0.26-0.92,0.52-1.28c0.26-0.37,0.6-0.65,1.01-0.85c0.41-0.2,0.87-0.3,1.38-0.3c0.77,0,1.35,0.22,1.73,0.67
	c0.39,0.45,0.52,1.04,0.39,1.77l-0.17,1.12h-3.85l-0.09,0.53c-0.15,0.95,0.22,1.43,1.11,1.43c0.72,0,1.17-0.25,1.37-0.74h1.22
	c-0.17,0.53-0.5,0.96-1.01,1.28C383.76,774.14,383.18,774.3,382.5,774.3z M381.83,770.22l-0.05,0.29l2.65-0.01l0.05-0.29
	c0.07-0.47,0.01-0.82-0.17-1.07c-0.18-0.25-0.49-0.37-0.92-0.37c-0.44,0-0.8,0.13-1.06,0.38
	C382.08,769.39,381.91,769.75,381.83,770.22z M388.92,774.3c-0.63,0-1.1-0.21-1.4-0.64c-0.3-0.42-0.39-1-0.28-1.73l0.27-1.77
	c0.11-0.73,0.39-1.31,0.84-1.74c0.44-0.43,0.98-0.64,1.61-0.64c0.47,0,0.83,0.12,1.09,0.35c0.26,0.24,0.39,0.56,0.38,0.96h0.02
	l0.21-1.47l0.3-1.8h1.24l-1.33,8.35h-1.22l0.19-1.2h-0.02c-0.12,0.41-0.35,0.73-0.69,0.97C389.8,774.18,389.4,774.3,388.92,774.3z
	 M389.53,773.23c0.39,0,0.72-0.12,0.98-0.36c0.26-0.24,0.43-0.57,0.5-1.01l0.25-1.65c0.08-0.43,0.02-0.76-0.17-1
	c-0.19-0.24-0.48-0.36-0.87-0.36c-0.4,0-0.72,0.12-0.98,0.35c-0.26,0.24-0.42,0.57-0.49,1.01l-0.25,1.65
	c-0.08,0.44-0.02,0.78,0.16,1.01C388.83,773.11,389.13,773.23,389.53,773.23z M401.02,774.3c-0.47,0-0.84-0.12-1.1-0.35
	c-0.26-0.23-0.39-0.56-0.38-0.97h-0.01l-0.19,1.2h-1.22l1.33-8.35h1.24l-0.29,1.8l-0.27,1.47h0.05c0.12-0.41,0.35-0.73,0.69-0.97
	c0.34-0.23,0.74-0.35,1.21-0.35c0.63,0,1.1,0.21,1.4,0.64c0.3,0.43,0.39,1.01,0.28,1.74l-0.27,1.77c-0.11,0.73-0.39,1.31-0.84,1.73
	C402.18,774.09,401.64,774.3,401.02,774.3z M400.77,773.23c0.4,0,0.72-0.12,0.98-0.35c0.26-0.23,0.42-0.57,0.5-1.01l0.25-1.65
	c0.07-0.43,0.01-0.77-0.17-1.01c-0.18-0.24-0.47-0.35-0.87-0.35c-0.39,0-0.72,0.12-0.98,0.36c-0.26,0.24-0.43,0.57-0.5,1l-0.25,1.65
	c-0.07,0.44-0.01,0.77,0.17,1.01C400.08,773.11,400.37,773.23,400.77,773.23z M405.47,776.25l0.17-1.06h1.93
	c0.64,0,1.01-0.3,1.1-0.9l0.1-0.67l0.21-1.19h-0.03c-0.12,0.42-0.35,0.74-0.68,0.97c-0.33,0.23-0.73,0.34-1.2,0.34
	c-0.63,0-1.09-0.2-1.4-0.6c-0.31-0.4-0.41-0.94-0.3-1.63l0.58-3.6h1.24l-0.56,3.48c-0.06,0.41,0,0.73,0.18,0.96
	c0.18,0.23,0.47,0.34,0.85,0.34c0.39,0,0.72-0.12,0.98-0.37c0.27-0.24,0.43-0.58,0.49-1.02l0.54-3.4h1.24l-1.01,6.41
	c-0.1,0.6-0.37,1.08-0.81,1.42c-0.44,0.35-1,0.52-1.67,0.52H405.47z M417.79,770.09h3.22l0.54-1.85h-5.47l-1.71,6.44h2.15l0.59-2.1
	h3.03l0.44-1.71h-3.03L417.79,770.09z M424.23,772.92c-0.59,0-1.02-0.39-1.02-1.12c0-0.88,0.63-1.76,1.61-1.76
	c0.49,0,0.88,0.24,1.02,0.78l1.95-0.83c-0.29-1.17-1.27-1.9-2.64-1.9c-2.78,0-4.15,2.15-4.15,3.9c0,1.76,1.27,2.83,3.07,2.83
	c1.37,0,2.34-0.59,2.98-1.42l-1.51-1.17C425.16,772.67,424.72,772.92,424.23,772.92z M430.91,768.23h-2.15l-1.76,6.44h5.12
	l0.49-1.85h-2.93L430.91,768.23z M439.75,771.01c0-1.66-1.32-2.93-3.22-2.93c-2.2,0-3.81,1.81-3.81,3.81c0,1.66,1.32,2.93,3.22,2.93
	C438.14,774.82,439.75,773.01,439.75,771.01z M434.92,771.7c0-0.83,0.59-1.71,1.51-1.71c0.78,0,1.17,0.54,1.17,1.22
	c0,0.83-0.59,1.71-1.51,1.71C435.31,772.92,434.92,772.38,434.92,771.7z M443.21,772.23h1.07l-0.2,0.68
	c-0.15,0.05-0.34,0.1-0.59,0.1c-0.68,0-1.27-0.39-1.27-1.22c0-1.02,0.73-1.9,1.95-1.9c0.59,0,1.12,0.24,1.51,0.59l1.37-1.37
	c-0.44-0.54-1.51-1.07-2.73-1.07c-2.59,0-4.29,1.76-4.29,3.86c0,2.05,1.61,2.88,3.22,2.88c0.93,0,1.85-0.29,2.49-0.68l0.93-3.32
	h-3.12L443.21,772.23z M450.78,768.08c-2.2,0-3.81,1.81-3.81,3.81c0,1.66,1.32,2.93,3.22,2.93c2.2,0,3.81-1.81,3.81-3.81
	C454,769.35,452.68,768.08,450.78,768.08z M450.34,772.92c-0.78,0-1.17-0.54-1.17-1.22c0-0.83,0.59-1.71,1.51-1.71
	c0.78,0,1.17,0.54,1.17,1.22C451.85,772.04,451.27,772.92,450.34,772.92z M437.94,767.5c-0.05,0.29,0.1,0.49,0.44,0.49
	s0.54-0.2,0.63-0.49c0.05-0.24-0.1-0.49-0.44-0.49C438.24,767.01,437.99,767.25,437.94,767.5z M432.13,765.5
	c-0.44,0-0.73,0.24-0.78,0.59c-0.05,0.34,0.1,0.59,0.54,0.59s0.73-0.24,0.78-0.59C432.77,765.74,432.57,765.5,432.13,765.5z
	 M433.01,767.3c-0.1,0.54,0.15,0.88,0.83,0.88c0.63,0,1.07-0.39,1.17-0.88s-0.15-0.88-0.83-0.88
	C433.5,766.43,433.11,766.82,433.01,767.3z M439.6,777.55l-2.44-1.81h-1.51l4.25,3.17l1.61-3.17h-0.98L439.6,777.55z M425.84,767.16
	l-2-1.46l23.13-2.78l-2.15,4.25h1.02l2.68-5.32l-26.99,3.22l2.78,2.1H425.84z M338.72,785.79l0.61-3.83h2.32l-0.08,0.52h-1.76
	l-0.18,1.14h1.63l-0.08,0.52h-1.62l-0.26,1.64H338.72z M342.97,785.84c-0.36,0-0.62-0.1-0.8-0.3c-0.17-0.2-0.23-0.47-0.18-0.82
	l0.27-1.7c0.06-0.34,0.2-0.61,0.44-0.82c0.24-0.2,0.54-0.3,0.89-0.3c0.36,0,0.62,0.1,0.8,0.3c0.17,0.2,0.24,0.47,0.18,0.81
	l-0.27,1.71c-0.06,0.34-0.2,0.62-0.44,0.82C343.63,785.74,343.33,785.84,342.97,785.84z M343.05,785.33c0.19,0,0.35-0.05,0.47-0.16
	c0.12-0.11,0.19-0.26,0.23-0.46l0.27-1.7c0.03-0.2,0.01-0.35-0.08-0.46c-0.08-0.11-0.22-0.16-0.41-0.16s-0.35,0.05-0.46,0.16
	c-0.12,0.1-0.19,0.26-0.22,0.46l-0.27,1.7c-0.03,0.2-0.01,0.35,0.08,0.46C342.72,785.28,342.86,785.33,343.05,785.33z M345,785.79
	l0.61-3.83h1.2c0.24,0,0.44,0.05,0.6,0.14c0.16,0.09,0.28,0.22,0.36,0.39c0.07,0.17,0.09,0.37,0.05,0.59
	c-0.04,0.26-0.14,0.48-0.3,0.67c-0.16,0.19-0.37,0.32-0.6,0.39l0.54,1.64h-0.62l-0.48-1.57h-0.54l-0.25,1.57H345z M345.89,783.71
	h0.64c0.19,0,0.35-0.06,0.48-0.17c0.13-0.11,0.21-0.26,0.24-0.45c0.03-0.19,0-0.35-0.09-0.46c-0.09-0.11-0.24-0.17-0.43-0.17h-0.64
	L345.89,783.71z M349.54,785.79l0.61-3.83h1.25c0.37,0,0.65,0.1,0.84,0.31c0.19,0.21,0.26,0.49,0.2,0.84
	c-0.04,0.23-0.12,0.44-0.25,0.61s-0.29,0.31-0.49,0.4c-0.2,0.09-0.42,0.14-0.66,0.14h-0.69l-0.24,1.52H349.54z M350.43,783.75h0.69
	c0.19,0,0.36-0.06,0.49-0.18c0.14-0.12,0.22-0.27,0.25-0.47c0.03-0.2,0-0.35-0.1-0.47c-0.1-0.12-0.25-0.18-0.44-0.18h-0.69
	L350.43,783.75z M352.75,785.79l0.61-3.83h2.25l-0.08,0.5h-1.7l-0.17,1.09h1.51l-0.08,0.5h-1.51l-0.19,1.24h1.69l-0.08,0.5H352.75z
	 M355.84,785.79l0.61-3.83h1.2c0.24,0,0.44,0.05,0.6,0.14c0.16,0.09,0.28,0.22,0.36,0.39c0.07,0.17,0.09,0.37,0.05,0.59
	c-0.04,0.26-0.14,0.48-0.3,0.67c-0.16,0.19-0.37,0.32-0.6,0.39l0.54,1.64h-0.62l-0.48-1.57h-0.54l-0.25,1.57H355.84z M356.74,783.71
	h0.64c0.19,0,0.35-0.06,0.48-0.17c0.13-0.11,0.21-0.26,0.24-0.45c0.03-0.19,0-0.35-0.09-0.46c-0.09-0.11-0.24-0.17-0.43-0.17h-0.64
	L356.74,783.71z M360.13,785.84c-0.39,0-0.67-0.1-0.87-0.29c-0.19-0.19-0.26-0.45-0.22-0.78h0.57c-0.03,0.17,0.01,0.31,0.12,0.41
	c0.11,0.1,0.27,0.15,0.48,0.15c0.2,0,0.37-0.05,0.5-0.15c0.13-0.1,0.21-0.23,0.24-0.4c0.02-0.15,0-0.28-0.06-0.39
	c-0.06-0.11-0.16-0.18-0.29-0.22l-0.46-0.14c-0.27-0.08-0.46-0.22-0.59-0.41c-0.13-0.19-0.17-0.42-0.13-0.68
	c0.04-0.21,0.11-0.39,0.23-0.55c0.12-0.16,0.27-0.28,0.46-0.37c0.19-0.09,0.4-0.13,0.64-0.13c0.35,0,0.62,0.1,0.8,0.29
	c0.18,0.19,0.25,0.44,0.2,0.76h-0.57c0.03-0.17,0-0.3-0.09-0.4c-0.09-0.1-0.23-0.14-0.42-0.14c-0.19,0-0.34,0.04-0.46,0.13
	c-0.12,0.09-0.19,0.21-0.21,0.38c-0.02,0.15-0.01,0.28,0.05,0.39c0.06,0.11,0.16,0.18,0.29,0.22l0.47,0.15
	c0.26,0.08,0.46,0.22,0.58,0.41c0.12,0.19,0.17,0.42,0.12,0.69c-0.04,0.22-0.12,0.41-0.24,0.57c-0.13,0.16-0.29,0.29-0.49,0.38
	C360.6,785.79,360.38,785.84,360.13,785.84z M363.27,785.84c-0.36,0-0.62-0.1-0.8-0.3c-0.17-0.2-0.23-0.47-0.18-0.82l0.27-1.7
	c0.06-0.34,0.2-0.61,0.44-0.82c0.24-0.2,0.54-0.3,0.89-0.3c0.36,0,0.62,0.1,0.8,0.3c0.17,0.2,0.24,0.47,0.18,0.81l-0.27,1.71
	c-0.06,0.34-0.2,0.62-0.44,0.82C363.92,785.74,363.62,785.84,363.27,785.84z M363.34,785.33c0.19,0,0.35-0.05,0.47-0.16
	c0.12-0.11,0.19-0.26,0.23-0.46l0.27-1.7c0.03-0.2,0.01-0.35-0.08-0.46c-0.08-0.11-0.22-0.16-0.41-0.16c-0.19,0-0.35,0.05-0.46,0.16
	c-0.12,0.1-0.19,0.26-0.22,0.46l-0.27,1.7c-0.03,0.2-0.01,0.35,0.08,0.46C363.02,785.28,363.15,785.33,363.34,785.33z
	 M365.28,785.79l0.61-3.83h0.71l0.62,3.19c0.01-0.1,0.02-0.22,0.03-0.36c0.01-0.14,0.03-0.29,0.04-0.44
	c0.02-0.15,0.04-0.29,0.06-0.41l0.31-1.98h0.52l-0.61,3.83h-0.71l-0.61-3.19c-0.01,0.09-0.02,0.21-0.03,0.34s-0.03,0.28-0.04,0.42
	c-0.02,0.15-0.04,0.28-0.06,0.41l-0.31,2.01H365.28z M368.23,785.79l1.59-3.83h0.75l0.37,3.83h-0.56l-0.07-0.97h-1.09l-0.39,0.97
	H368.23z M369.39,784.34h0.87l-0.09-1.1c-0.02-0.2-0.03-0.37-0.04-0.51c-0.01-0.14-0.01-0.24-0.01-0.3c-0.02,0.06-0.05,0.16-0.1,0.3
	c-0.05,0.14-0.11,0.31-0.19,0.5L369.39,784.34z M371.72,785.79l0.61-3.83h0.57l-0.52,3.31h1.67l-0.08,0.52H371.72z M376.68,785.84
	c-0.37,0-0.63-0.1-0.8-0.3c-0.17-0.2-0.22-0.48-0.17-0.82l0.44-2.76h0.57l-0.44,2.76c-0.03,0.2-0.01,0.35,0.07,0.46
	c0.08,0.11,0.21,0.17,0.41,0.17c0.19,0,0.35-0.06,0.46-0.17c0.12-0.11,0.19-0.27,0.22-0.46l0.44-2.76h0.57l-0.44,2.76
	c-0.06,0.35-0.2,0.62-0.43,0.82C377.35,785.74,377.05,785.84,376.68,785.84z M379.84,785.84c-0.39,0-0.67-0.1-0.87-0.29
	c-0.19-0.19-0.26-0.45-0.22-0.78h0.57c-0.03,0.17,0.01,0.31,0.12,0.41c0.11,0.1,0.27,0.15,0.48,0.15c0.2,0,0.37-0.05,0.5-0.15
	c0.13-0.1,0.21-0.23,0.24-0.4c0.02-0.15,0-0.28-0.06-0.39c-0.06-0.11-0.16-0.18-0.29-0.22l-0.46-0.14
	c-0.27-0.08-0.46-0.22-0.59-0.41c-0.13-0.19-0.17-0.42-0.13-0.68c0.04-0.21,0.11-0.39,0.23-0.55s0.27-0.28,0.46-0.37
	c0.19-0.09,0.4-0.13,0.64-0.13c0.35,0,0.62,0.1,0.8,0.29c0.18,0.19,0.25,0.44,0.2,0.76h-0.57c0.03-0.17,0-0.3-0.09-0.4
	c-0.09-0.1-0.23-0.14-0.42-0.14c-0.19,0-0.34,0.04-0.46,0.13c-0.12,0.09-0.19,0.21-0.21,0.38c-0.02,0.15-0.01,0.28,0.05,0.39
	c0.06,0.11,0.16,0.18,0.29,0.22l0.47,0.15c0.26,0.08,0.46,0.22,0.58,0.41c0.12,0.19,0.17,0.42,0.12,0.69
	c-0.04,0.22-0.12,0.41-0.24,0.57c-0.13,0.16-0.29,0.29-0.49,0.38C380.31,785.79,380.09,785.84,379.84,785.84z M381.91,785.79
	l0.61-3.83h2.25l-0.08,0.5h-1.7l-0.17,1.09h1.51l-0.08,0.5h-1.51l-0.19,1.24h1.69l-0.08,0.5H381.91z M386.94,785.84
	c-0.36,0-0.62-0.1-0.8-0.3c-0.17-0.2-0.23-0.47-0.18-0.82l0.27-1.7c0.06-0.34,0.2-0.61,0.44-0.82c0.24-0.2,0.54-0.3,0.89-0.3
	c0.36,0,0.62,0.1,0.8,0.3c0.17,0.2,0.24,0.47,0.18,0.81l-0.27,1.71c-0.06,0.34-0.2,0.62-0.44,0.82
	C387.6,785.74,387.3,785.84,386.94,785.84z M387.02,785.33c0.19,0,0.35-0.05,0.47-0.16c0.12-0.11,0.19-0.26,0.23-0.46l0.27-1.7
	c0.03-0.2,0.01-0.35-0.08-0.46c-0.08-0.11-0.22-0.16-0.41-0.16c-0.19,0-0.35,0.05-0.46,0.16c-0.12,0.1-0.19,0.26-0.22,0.46
	l-0.27,1.7c-0.03,0.2-0.01,0.35,0.08,0.46C386.7,785.28,386.83,785.33,387.02,785.33z M388.95,785.79l0.61-3.83h0.71l0.62,3.19
	c0.01-0.1,0.02-0.22,0.03-0.36c0.01-0.14,0.03-0.29,0.04-0.44c0.02-0.15,0.04-0.29,0.06-0.41l0.31-1.98h0.52l-0.61,3.83h-0.71
	l-0.61-3.19c-0.01,0.09-0.02,0.21-0.03,0.34c-0.01,0.13-0.03,0.28-0.04,0.42c-0.02,0.15-0.04,0.28-0.06,0.41l-0.31,2.01H388.95z
	 M392.25,785.79l0.61-3.83h0.57l-0.52,3.31h1.67l-0.08,0.52H392.25z M396.12,785.79l0.22-1.41l-0.75-2.42h0.58l0.45,1.45
	c0.03,0.09,0.05,0.18,0.07,0.27c0.02,0.08,0.03,0.15,0.03,0.19c0.02-0.04,0.05-0.1,0.09-0.19c0.04-0.08,0.09-0.17,0.14-0.27
	l0.9-1.45h0.6l-1.53,2.42l-0.22,1.41H396.12z M399.22,785.79l0.61-3.83h0.71l0.62,3.19c0.01-0.1,0.02-0.22,0.03-0.36
	c0.01-0.14,0.03-0.29,0.04-0.44c0.02-0.15,0.04-0.29,0.06-0.41l0.31-1.98h0.52l-0.61,3.83h-0.71l-0.61-3.19
	c-0.01,0.09-0.02,0.21-0.03,0.34c-0.01,0.13-0.03,0.28-0.04,0.42c-0.02,0.15-0.04,0.28-0.06,0.41l-0.31,2.01H399.22z M403.51,785.84
	c-0.36,0-0.62-0.1-0.8-0.3c-0.18-0.2-0.23-0.47-0.18-0.82l0.27-1.7c0.06-0.34,0.2-0.61,0.44-0.82c0.24-0.2,0.54-0.3,0.89-0.3
	c0.36,0,0.62,0.1,0.8,0.3c0.17,0.2,0.24,0.47,0.18,0.81l-0.27,1.71c-0.06,0.34-0.2,0.62-0.44,0.82
	C404.16,785.74,403.86,785.84,403.51,785.84z M403.58,785.33c0.19,0,0.35-0.05,0.47-0.16c0.12-0.11,0.19-0.26,0.23-0.46l0.27-1.7
	c0.03-0.2,0.01-0.35-0.08-0.46c-0.08-0.11-0.22-0.16-0.41-0.16c-0.19,0-0.35,0.05-0.46,0.16c-0.12,0.1-0.19,0.26-0.22,0.46
	l-0.27,1.7c-0.03,0.2-0.01,0.35,0.08,0.46C403.26,785.28,403.4,785.33,403.58,785.33z M406.38,785.79l0.52-3.31h-1.02l0.08-0.52
	h2.62l-0.08,0.52h-1.03l-0.52,3.31H406.38z M409.52,785.79l0.61-3.83h2.32l-0.08,0.52h-1.76l-0.18,1.14h1.63l-0.08,0.52h-1.62
	l-0.26,1.64H409.52z M413.77,785.84c-0.36,0-0.62-0.1-0.8-0.3c-0.18-0.2-0.23-0.47-0.18-0.82l0.27-1.7c0.06-0.34,0.2-0.61,0.44-0.82
	c0.24-0.2,0.54-0.3,0.89-0.3c0.36,0,0.62,0.1,0.8,0.3c0.17,0.2,0.24,0.47,0.18,0.81l-0.27,1.71c-0.06,0.34-0.2,0.62-0.44,0.82
	C414.42,785.74,414.13,785.84,413.77,785.84z M413.85,785.33c0.19,0,0.35-0.05,0.47-0.16c0.12-0.11,0.19-0.26,0.23-0.46l0.27-1.7
	c0.03-0.2,0.01-0.35-0.08-0.46c-0.08-0.11-0.22-0.16-0.41-0.16c-0.19,0-0.35,0.05-0.46,0.16c-0.12,0.1-0.19,0.26-0.22,0.46
	l-0.27,1.7c-0.03,0.2-0.01,0.35,0.08,0.46C413.52,785.28,413.66,785.33,413.85,785.33z M415.8,785.79l0.61-3.83h1.2
	c0.24,0,0.44,0.05,0.6,0.14c0.16,0.09,0.28,0.22,0.36,0.39c0.07,0.17,0.09,0.37,0.05,0.59c-0.04,0.26-0.14,0.48-0.3,0.67
	c-0.16,0.19-0.37,0.32-0.6,0.39l0.54,1.64h-0.62l-0.48-1.57h-0.54l-0.25,1.57H415.8z M416.69,783.71h0.64
	c0.19,0,0.35-0.06,0.48-0.17c0.13-0.11,0.21-0.26,0.24-0.45c0.03-0.19,0-0.35-0.09-0.46c-0.09-0.11-0.24-0.17-0.43-0.17h-0.64
	L416.69,783.71z M420.91,785.84c-0.36,0-0.63-0.1-0.81-0.3c-0.18-0.2-0.24-0.47-0.19-0.82l0.27-1.7c0.06-0.35,0.21-0.62,0.45-0.82
	s0.55-0.3,0.91-0.3c0.36,0,0.63,0.1,0.81,0.3c0.18,0.2,0.24,0.47,0.19,0.82h-0.57c0.03-0.2,0-0.35-0.09-0.46
	c-0.09-0.11-0.23-0.16-0.42-0.16c-0.19,0-0.35,0.05-0.48,0.16c-0.12,0.1-0.2,0.26-0.23,0.45l-0.27,1.71c-0.03,0.2,0,0.35,0.09,0.46
	c0.09,0.11,0.23,0.16,0.42,0.16c0.19,0,0.35-0.05,0.47-0.16c0.12-0.11,0.2-0.26,0.23-0.46h0.57c-0.03,0.23-0.11,0.43-0.24,0.59
	c-0.12,0.17-0.28,0.3-0.47,0.39C421.36,785.79,421.14,785.84,420.91,785.84z M424.03,785.84c-0.36,0-0.62-0.1-0.8-0.3
	c-0.18-0.2-0.23-0.47-0.18-0.82l0.27-1.7c0.06-0.34,0.2-0.61,0.44-0.82c0.24-0.2,0.54-0.3,0.89-0.3c0.36,0,0.62,0.1,0.8,0.3
	c0.17,0.2,0.24,0.47,0.18,0.81l-0.27,1.71c-0.06,0.34-0.2,0.62-0.44,0.82C424.69,785.74,424.39,785.84,424.03,785.84z
	 M424.11,785.33c0.19,0,0.35-0.05,0.47-0.16c0.12-0.11,0.19-0.26,0.23-0.46l0.27-1.7c0.03-0.2,0.01-0.35-0.08-0.46
	c-0.08-0.11-0.22-0.16-0.41-0.16c-0.19,0-0.35,0.05-0.46,0.16c-0.12,0.1-0.19,0.26-0.22,0.46l-0.27,1.7
	c-0.03,0.2-0.01,0.35,0.08,0.46C423.79,785.28,423.92,785.33,424.11,785.33z M425.97,785.79l0.61-3.83h0.69l0.18,1.23
	c0.02,0.12,0.04,0.23,0.05,0.33c0.01,0.1,0.02,0.18,0.03,0.24c0.02-0.06,0.05-0.14,0.09-0.24c0.04-0.11,0.09-0.22,0.15-0.34
	l0.57-1.22h0.71l-0.61,3.83h-0.54l0.2-1.29c0.02-0.17,0.06-0.35,0.1-0.55c0.04-0.2,0.09-0.4,0.14-0.61c0.05-0.2,0.1-0.4,0.14-0.59
	c0.05-0.19,0.09-0.35,0.13-0.49l-0.86,1.86h-0.55l-0.28-1.86c0,0.14-0.01,0.29-0.02,0.47c-0.01,0.18-0.02,0.37-0.04,0.57
	c-0.02,0.2-0.04,0.41-0.06,0.61c-0.02,0.2-0.05,0.4-0.08,0.57l-0.2,1.29H425.97z M429.11,785.79l0.61-3.83h0.69l0.18,1.23
	c0.02,0.12,0.04,0.23,0.05,0.33c0.01,0.1,0.02,0.18,0.03,0.24c0.02-0.06,0.05-0.14,0.09-0.24c0.04-0.11,0.09-0.22,0.15-0.34
	l0.57-1.22h0.71l-0.61,3.83h-0.54l0.2-1.29c0.02-0.17,0.06-0.35,0.1-0.55c0.04-0.2,0.09-0.4,0.14-0.61c0.05-0.2,0.1-0.4,0.14-0.59
	c0.05-0.19,0.09-0.35,0.13-0.49l-0.86,1.86h-0.55l-0.28-1.86c0,0.14-0.01,0.29-0.02,0.47c-0.01,0.18-0.02,0.37-0.04,0.57
	c-0.02,0.2-0.04,0.41-0.06,0.61c-0.02,0.2-0.05,0.4-0.08,0.57l-0.2,1.29H429.11z M432.41,785.79l0.61-3.83h2.25l-0.08,0.5h-1.7
	l-0.17,1.09h1.51l-0.08,0.5h-1.51l-0.19,1.24h1.69l-0.08,0.5H432.41z M435.51,785.79l0.61-3.83h1.2c0.24,0,0.44,0.05,0.6,0.14
	c0.16,0.09,0.28,0.22,0.36,0.39c0.07,0.17,0.09,0.37,0.05,0.59c-0.04,0.26-0.14,0.48-0.3,0.67c-0.16,0.19-0.37,0.32-0.6,0.39
	l0.54,1.64h-0.62l-0.48-1.57h-0.54l-0.25,1.57H435.51z M436.4,783.71h0.64c0.19,0,0.35-0.06,0.48-0.17
	c0.13-0.11,0.21-0.26,0.24-0.45c0.03-0.19,0-0.35-0.09-0.46c-0.09-0.11-0.24-0.17-0.43-0.17h-0.64L436.4,783.71z M439.8,785.84
	c-0.36,0-0.63-0.1-0.81-0.3c-0.18-0.2-0.24-0.47-0.19-0.82l0.27-1.7c0.06-0.35,0.21-0.62,0.45-0.82s0.55-0.3,0.91-0.3
	c0.36,0,0.63,0.1,0.81,0.3c0.18,0.2,0.24,0.47,0.19,0.82h-0.57c0.03-0.2,0-0.35-0.09-0.46c-0.09-0.11-0.23-0.16-0.42-0.16
	c-0.19,0-0.35,0.05-0.47,0.16c-0.12,0.1-0.2,0.26-0.23,0.45l-0.27,1.71c-0.03,0.2,0,0.35,0.09,0.46c0.09,0.11,0.23,0.16,0.42,0.16
	s0.35-0.05,0.47-0.16c0.12-0.11,0.2-0.26,0.23-0.46h0.57c-0.03,0.23-0.11,0.43-0.24,0.59c-0.12,0.17-0.28,0.3-0.47,0.39
	C440.25,785.79,440.04,785.84,439.8,785.84z M441.88,785.79l0.08-0.5h0.78l0.45-2.82h-0.78l0.08-0.5h2.13l-0.08,0.5h-0.78
	l-0.45,2.82h0.78l-0.08,0.5H441.88z M444.74,785.79l1.59-3.83h0.75l0.37,3.83h-0.56l-0.07-0.97h-1.09l-0.39,0.97H444.74z
	 M445.9,784.34h0.87l-0.09-1.1c-0.02-0.2-0.03-0.37-0.04-0.51c-0.01-0.14-0.01-0.24-0.01-0.3c-0.02,0.06-0.05,0.16-0.1,0.3
	c-0.05,0.14-0.11,0.31-0.19,0.5L445.9,784.34z M448.24,785.79l0.61-3.83h0.57l-0.52,3.31h1.67l-0.08,0.52H448.24z M453.19,785.84
	c-0.37,0-0.63-0.1-0.8-0.3c-0.17-0.2-0.22-0.48-0.17-0.82l0.44-2.76h0.57l-0.44,2.76c-0.03,0.2-0.01,0.35,0.07,0.46
	c0.08,0.11,0.21,0.17,0.41,0.17c0.19,0,0.35-0.06,0.46-0.17c0.12-0.11,0.19-0.27,0.22-0.46l0.44-2.76h0.57l-0.44,2.76
	c-0.06,0.35-0.2,0.62-0.43,0.82C453.86,785.74,453.56,785.84,453.19,785.84z M456.36,785.84c-0.39,0-0.67-0.1-0.87-0.29
	c-0.19-0.19-0.26-0.45-0.22-0.78h0.57c-0.03,0.17,0.01,0.31,0.12,0.41c0.11,0.1,0.27,0.15,0.48,0.15c0.2,0,0.37-0.05,0.5-0.15
	s0.21-0.23,0.24-0.4c0.02-0.15,0-0.28-0.06-0.39c-0.06-0.11-0.16-0.18-0.29-0.22l-0.46-0.14c-0.27-0.08-0.46-0.22-0.59-0.41
	c-0.13-0.19-0.17-0.42-0.13-0.68c0.04-0.21,0.11-0.39,0.23-0.55c0.12-0.16,0.27-0.28,0.46-0.37c0.19-0.09,0.4-0.13,0.64-0.13
	c0.35,0,0.62,0.1,0.8,0.29c0.18,0.19,0.25,0.44,0.2,0.76h-0.57c0.03-0.17,0-0.3-0.09-0.4c-0.09-0.1-0.23-0.14-0.42-0.14
	c-0.19,0-0.34,0.04-0.46,0.13c-0.12,0.09-0.19,0.21-0.21,0.38c-0.02,0.15-0.01,0.28,0.05,0.39c0.06,0.11,0.16,0.18,0.29,0.22
	l0.47,0.15c0.26,0.08,0.46,0.22,0.58,0.41c0.12,0.19,0.17,0.42,0.12,0.69c-0.04,0.22-0.12,0.41-0.24,0.57
	c-0.13,0.16-0.29,0.29-0.49,0.38C456.82,785.79,456.6,785.84,456.36,785.84z M458.42,785.79l0.61-3.83h2.25l-0.08,0.5h-1.7
	l-0.17,1.09h1.51l-0.08,0.5h-1.51l-0.19,1.24h1.69l-0.08,0.5H458.42z"/>
<g>
	<g id="g10">
		<g id="g12">
			<path id="path14" style="fill:#2F3592;" d="M400,153.71c-147.57,49.13-241.47,15.64-241.47,15.64v212.97
				C158.53,646.67,400,750,400,750s241.47-103.33,241.47-367.68V169.35C641.47,169.35,547.56,202.84,400,153.71"/>
			<path id="path16" style="fill:#2F3592;" d="M446.78,82.59h-34.93L399.99,50l-11.86,32.59h-34.93l27.75,19.7l-11.5,31.6
				l30.53-18.08l30.55,18.08l-11.51-31.6L446.78,82.59"/>
			<path id="path18" style="fill:#2F3592;" d="M320.04,82.59h-34.93L273.25,50l-11.86,32.59h-34.93l27.76,19.7l-11.5,31.6
				l30.54-18.08l30.54,18.08l-11.51-31.6L320.04,82.59"/>
			<path id="path20" style="fill:#2F3592;" d="M573.54,82.59h-34.93L526.74,50l-11.86,32.59h-34.93l27.76,19.7l-11.5,31.6
				l30.54-18.08l30.54,18.08l-11.5-31.6L573.54,82.59"/>
			<path id="path22" style="fill:#FFFFFF;" d="M264.18,320.07c-0.91,1.16-1.81,1.73-2.68,1.71c-0.47-0.01-0.83-0.21-1.1-0.62
				l-8.45-15.36c-0.31-0.45-0.42-1.06-0.33-1.82c0.13-1.12,0.56-2.15,1.3-3.08l27.53-35.14c0.67-0.9,1.63-1.67,2.86-2.31
				c1.24-0.63,2.37-0.96,3.41-0.96l18.6-0.05c1.39-0.01,2.03,0.54,1.91,1.63c-0.06,0.5-0.31,1.05-0.74,1.64L264.18,320.07"/>
			<path id="path24" style="fill:#FFFFFF;" d="M342.08,269.04c0.43-0.6,0.67-1.15,0.73-1.66c0.12-1.1-0.51-1.66-1.9-1.65
				c-1.03,0-2.17,0.32-3.4,0.97c-1.24,0.65-2.19,1.43-2.86,2.35l-17.69,23.05c-0.43,0.59-0.68,1.14-0.74,1.64
				c-0.12,1.1,0.52,1.65,1.91,1.66c1.03,0.01,2.17-0.3,3.41-0.93c1.23-0.63,2.19-1.41,2.86-2.32L342.08,269.04z M369.42,262.34
				c1.45,0,2.11,0.55,1.98,1.66c-0.05,0.51-0.3,1.07-0.73,1.68l-22.78,29.94c-0.68,0.92-1.64,1.7-2.87,2.33
				c-1.24,0.64-2.34,0.95-3.33,0.94l-52.09-0.45c-1.45-0.01-2.11-0.56-1.98-1.65c0.06-0.5,0.3-1.04,0.73-1.63l22.79-29.4
				c0.68-0.91,1.63-1.69,2.86-2.33c1.24-0.64,2.35-0.97,3.33-0.97L369.42,262.34"/>
			<path id="path26" style="fill:#FFFFFF;" d="M431.59,262.18c1.44-0.01,2.11,0.56,1.99,1.69c-0.06,0.52-0.34,1.09-0.81,1.71
				l-22.7,30.5c-0.72,0.94-1.7,1.73-2.9,2.38c-1.21,0.65-2.34,0.97-3.37,0.96l-18.61-0.16c-1.45-0.01-2.11-0.58-1.98-1.7
				c0.06-0.51,0.33-1.07,0.81-1.68L404.17,269c0.48-0.61,0.75-1.17,0.81-1.69c0.12-1.13-0.54-1.69-1.98-1.69
				c-1.03,0-2.15,0.33-3.36,0.99c-1.21,0.66-2.17,1.45-2.9,2.39l-20.16,26.83c-0.73,0.92-1.69,1.71-2.91,2.35
				c-1.21,0.64-2.33,0.96-3.36,0.95l-18.62-0.16c-1.45-0.01-2.11-0.57-1.99-1.68c0.06-0.51,0.33-1.06,0.81-1.66l42.3-56.05
				c0.91-1.22,1.81-1.84,2.68-1.85c0.47,0,0.8,0.21,1.02,0.62l8.52,15.8c0.26,0.47,0.34,1.1,0.25,1.9
				c-0.13,1.17-0.56,2.25-1.29,3.24c-0.36,0.47-0.57,0.92-0.61,1.34c-0.13,1.07,0.59,1.61,2.14,1.61L431.59,262.18"/>
			<path id="path28" style="fill:#FFFFFF;" d="M469.98,268.96c0.43-0.62,0.67-1.19,0.73-1.72c0.13-1.15-0.51-1.72-1.9-1.72
				c-1.03,0-2.17,0.34-3.4,1.01c-1.24,0.67-2.19,1.48-2.86,2.44l-17.68,23.96c-0.44,0.62-0.68,1.18-0.74,1.7
				c-0.13,1.14,0.51,1.71,1.9,1.73c1.04,0.01,2.17-0.32,3.4-0.97c1.24-0.66,2.2-1.46,2.87-2.41L469.98,268.96z M497.32,262.01
				c1.45-0.01,2.11,0.57,1.98,1.73c-0.06,0.53-0.3,1.11-0.73,1.74l-22.77,31.11c-0.68,0.95-1.63,1.76-2.87,2.42
				c-1.24,0.66-2.35,0.99-3.33,0.98l-52.1-0.44c-1.44-0.01-2.11-0.58-1.98-1.71c0.06-0.52,0.3-1.08,0.73-1.69l22.77-30.57
				c0.68-0.95,1.63-1.75,2.87-2.42c1.24-0.67,2.34-1,3.33-1L497.32,262.01"/>
			<path id="path30" style="fill:#FFFFFF;" d="M559.42,261.84c1.44-0.01,2.1,0.58,1.98,1.76c-0.06,0.54-0.32,1.13-0.82,1.77
				l-5.01,7.07c-0.68,0.98-1.63,1.82-2.86,2.5c-1.24,0.69-2.38,1.03-3.41,1.03l-18.61-0.02c-1.39,0-2.03-0.59-1.91-1.76
				c0.06-0.53,0.3-1.12,0.73-1.75l2.55-3.5c0.43-0.63,0.67-1.22,0.73-1.75c0.13-1.17-0.53-1.75-1.98-1.75
				c-0.99,0-2.09,0.34-3.33,1.03c-1.24,0.68-2.19,1.51-2.86,2.48l-20.26,27.84c-0.68,0.97-1.64,1.8-2.87,2.47
				c-1.24,0.67-2.37,1.01-3.4,1l-18.57-0.16c-1.39-0.01-2.02-0.59-1.9-1.74c0.06-0.53,0.3-1.1,0.73-1.72l22.7-31.13
				c0.73-0.97,1.69-1.79,2.9-2.47c1.21-0.68,2.33-1.02,3.37-1.02L559.42,261.84"/>
			<path id="path32" style="fill:#FFFFFF;" d="M320.25,246.59l-11.01-4.32l0.3-11.74l-7.77,8.8l-11.01-4.32l6.3,9.65l-7.53,8.53
				l11.86-1.92l7.39,9.48l0.28-11.38L320.25,246.59"/>
			<path id="path34" style="fill:#FFFFFF;" d="M330.4,304.62l-5.92,6.1h1.62l5.89-6.1H330.4z M326.89,312.7h-10.16l9.7-10.11h10.16
				c0.8,0,1.41,0.05,1.83,0.14c0.37,0.08,0.57,0.19,0.61,0.34c0.11,0.13,0.09,0.29-0.04,0.49c-0.13,0.16-0.3,0.34-0.53,0.54
				l-7.03,7.36c-0.46,0.5-1.14,0.84-2.01,1.03C328.54,312.64,327.69,312.72,326.89,312.7"/>
			<path id="path36" style="fill:#FFFFFF;" d="M344.02,306.63h1.43l1.9-2.02h-1.58L344.02,306.63z M332.2,312.69l8.45-8.74
				c0.47-0.44,0.97-0.78,1.5-1.02c0.53-0.24,1.47-0.35,2.81-0.35h6.28c0.81,0,1.42,0.02,1.85,0.07c0.47,0.06,0.79,0.15,0.97,0.28
				c0.15,0.16,0.16,0.38,0.02,0.66c-0.15,0.25-0.45,0.59-0.89,1.01l-7.68,8.11h-5.96l3.96-4.04h-1.62l-3.81,4.04L332.2,312.69"/>
			<path id="path38" style="fill:#FFFFFF;" d="M361.33,304.63l-2.02,2.01h1.6l1.87-2.01H361.33z M347.8,312.7l9.58-10.12h8.89
				c1.15,0.01,1.96,0.12,2.44,0.32c0.54,0.21,0.76,0.57,0.66,1.09l-3.41,3.42c-0.21,0.22-0.5,0.4-0.88,0.57
				c-0.32,0.13-0.67,0.24-1.03,0.34c-0.37,0.09-0.72,0.17-1.05,0.24c-0.33,0.04-0.61,0.08-0.83,0.12l0.1,4.03h-5.74l0.08-3.19
				l-2.95,3.19L347.8,312.7"/>
			<path id="path40" style="fill:#FFFFFF;" d="M386.63,302.59l-9.67,10.1h-9.04c-1.63,0-2.56-0.16-2.8-0.48
				c-0.23-0.31-0.06-0.78,0.52-1.42l7.75-8.2h5.89l-7.78,8.08h1.72l7.45-8.08L386.63,302.59"/>
			<path id="path42" style="fill:#FFFFFF;" d="M379.14,312.69l9.63-10.13h6.08l-7.83,8.11h5.31l-1.92,2.02L379.14,312.69"/>
			<path id="path44" style="fill:#FFFFFF;" d="M410.92,312.67h-5.69l7.59-8.11h-2.77l1.85-1.99h11.47l-1.89,1.99h-2.91
				L410.92,312.67"/>
			<path id="path46" style="fill:#FFFFFF;" d="M427.75,306.6h1.43l1.91-2.02h-1.58L427.75,306.6z M415.93,312.67l8.45-8.74
				c0.48-0.44,0.98-0.78,1.51-1.02c0.52-0.23,1.46-0.35,2.81-0.35h6.28c0.81,0,1.43,0.02,1.84,0.08c0.48,0.05,0.8,0.15,0.97,0.28
				c0.15,0.16,0.16,0.38,0.03,0.66c-0.15,0.25-0.46,0.59-0.89,1.01l-7.68,8.11h-5.96l3.96-4.04h-1.62l-3.81,4.04L415.93,312.67"/>
			<path id="path48" style="fill:#FFFFFF;" d="M445.41,305.59c-1.23,0.32-2.06,0.44-2.49,0.36c-0.35-0.09-0.38-0.33-0.05-0.71
				l2.11-2.21c0.2-0.17,0.45-0.29,0.74-0.34c0.31-0.07,0.7-0.11,1.18-0.11h3.01c0.37,0,0.62,0.07,0.76,0.2
				c0.18,0.1,0.13,0.27-0.15,0.52l-1.1,1.11c-0.15,0.15-0.32,0.27-0.51,0.36c-0.2,0.06-0.53,0.13-1.02,0.24L445.41,305.59"/>
			<path id="path50" style="fill:#FFFFFF;" d="M470.7,302.57l-1.81,2.01l-12.04,6.09h6.66l-1.93,2h-13.02l1.8-2l12.05-6.09h-6.66
				l1.79-2L470.7,302.57"/>
			<path id="path52" style="fill:#FFFFFF;" d="M463.69,312.69l9.62-10.12h5.91l-9.68,10.12H463.69"/>
			<path id="path54" style="fill:#FFFFFF;" d="M478.99,312.69l7.67-8.09h-1.99l-7.6,8.09h-5.67l9.45-10.11h16.65
				c1.38,0.01,2.31,0.15,2.79,0.43c0.42,0.27,0.26,0.8-0.46,1.58l-7.42,8.09h-5.7l7.65-8.09h-2.13l-7.58,8.09H478.99"/>
			<path id="path56" style="fill:#EC1E27;" d="M610.94,384.75c0,234-210.94,325.47-210.94,325.47s-210.94-91.47-210.94-325.47
				V205.84C307.74,226.16,400,186.25,400,186.25s92.26,39.91,210.94,19.59V384.75z M400,172.14
				c-136.96,45.6-224.11,18.05-224.11,18.05v194.12C175.89,629.66,400,725.56,400,725.56s224.11-95.91,224.11-341.25V190.19
				C624.11,190.19,536.95,217.74,400,172.14"/>
			<path id="path58" style="fill:#FFFFFF;" d="M598.48,382.96V220.28c-17.1,2.05-34.46,3.06-51.84,3.06
				c-72.64,0-127.44-17.59-146.64-24.71c-19.2,7.12-73.99,24.71-146.66,24.71c-17.38,0-34.75-1.01-51.84-3.06v162.68
				c0,94.22,34.35,176.17,102.05,243.53c39.84,39.64,80.24,62.44,96.45,70.7c16.22-8.26,56.61-31.06,96.43-70.7
				C564.15,559.13,598.48,477.18,598.48,382.96z M610.93,205.86v178.9c0,234-210.93,325.46-210.93,325.46
				s-210.96-91.47-210.96-325.46v-178.9C307.72,226.15,400,186.25,400,186.25S492.26,226.15,610.93,205.86"/>
			<path id="path60" style="fill:#FFFFFF;" d="M449.3,337.41l1.94,6.09c0,0-15.5-20.21-53.15-15.23c0,0,33.5-12.74,66.16,15.23
				C464.25,343.5,452.62,337.13,449.3,337.41z M462.03,372.84c0,0-16.33,1.11-18.55-1.38c-2.21-2.49,3.05-4.15,5.82-3.87
				c0,0-3.05-2.22-10.8-0.55c0,0,6.01-16.33-7.42-19.65c0,0,3.27,10.43,0.09,15.92c-3.19,5.49-5.03-1.71-4.48-5.21
				c0.55-3.51-3.88-13.1-13.47-13.47c0,0,1.29-4.61,7.75-3.14c0,0-15.69-13.29-39.12,0.09c0,0-2.03-7.2,11.53-8.58
				c13.57-1.38,40.14,1.94,46.24,10.52h-9.69c0,0,20.16,7.24,21.59,20.53c0,0,2.77-6.69,1.94-10.29
				C453.45,353.74,465.91,358.35,462.03,372.84L462.03,372.84z M402.24,348.48h4.71v-4.98c3.6,6.92,9.13,21.32,6.64,17.16
				C411.1,356.51,402.24,348.48,402.24,348.48L402.24,348.48z M411.93,372.84l-12.42-19.1l2.73,1.39c0,0,11.21,11.35,11.97,17.71
				H411.93z M333.86,371.73c-5.91-2.58-3.33-12.92-3.33-12.92c-10.33,7.39-5.54,20.33-5.54,20.33h-7.01c0,0,1.84,5.13-0.37,5.13
				c-2.21,0-10.7,3.32-10.7,3.32c2.21-0.74,6.52-6.27,6.52-6.27h-6.52c0.73-4.06,10.7-9.97,10.7-9.97
				c18.46-38.02,58.69-30.27,58.69-30.27C333.49,341.47,333.86,371.73,333.86,371.73L333.86,371.73z M529.21,389.45
				c-10.98-29.34-49.19-39.86-49.19-39.86s-31.56-23.81-57.86-27.96c-26.3-4.15-42.91,7.75-42.91,7.75
				c-43.46-3.6-60.35,14.95-60.35,14.95c20.21-12.46,40.42-8.03,40.42-8.03c-32.67,3.05-46.51,28.24-47.06,25.47
				c-0.55-2.77,1.94-12.46,1.94-12.46l-13.84,11.07l8.58-11.07c-24.36,8.86-49.28,44.85-55.09,53.15
				c-5.81,8.3-19.38,9.97-19.38,9.97c9.13,11.07,31.56,7.37,31.56,7.37c-4.7,16.23-6.92,48.82-6.65,52.42
				c0.28,3.6,6.09,22.7,10.45,14.95c4.35-7.75,4.02-24.38,4.02-24.38l-2.68-3.37c-4.95-30.81,5.39-50.04,5.39-50.04
				c1.38-1.11,5.81,3.05,5.81,3.05c10.52-9.69,9.97-13.57,9.97-13.57c-3.32,1.94-9.97,1.38-9.97,1.38l9.97-11.63l-5.26,0.28
				c3.05-11.35,9.69-12.73,9.69-12.73c-4.15,8.3,3.05,8.43,3.05,8.43c3.05,2.62-3.05,14.27-3.05,14.27c1.94,1.66,8.31,0,8.31,0
				c8.86-8.31,24.64-10.52,28.52-5.54c3.87,4.98,8.03,5.54,8.03,5.54s1.66-2.21,6.37-4c4.71-1.78,5.26-5.42,5.26-5.42
				c0-8.03,0.83-21.59,0.83-21.59l-0.83-2.22c-0.83,0.56-3.33,2.22-3.33,2.22c-2.78-4.98,7.21-21.87,6.93-16.06
				c-0.28,5.82-0.55,14.4,3.05,11.08c3.6-3.32,15.5-12.18,13.01-7.2c-2.49,4.99-17.44,16.61-17.16,19.01
				c0.28,2.4,1.94,14.76-0.55,17.81s-9.69,7.2-1.38,6.37c8.3-0.83,24.63,0.83,29.34,6.25c4.71,5.42,6.09,1.5,6.09,1.5
				c16.61-16.89,33.85-9.14,31.37-13.56c-2.47-4.42,0-4.43,0-4.43c3.97,3.32,6,0.09,6,0.09c11.9-18.45,34.24-9.59,39.4-8.86
				c5.16,0.74,6.64-3.69,6.64-3.69l1.48-14.4c9.6,2.95,18.46,16.98,18.46,16.98h-11.45c9.6,7.01,6.28,23.09,6.28,23.09
				c7.38-0.9,19.93,12.53,19.93,12.53c1.1-6.83-14.76-27.13-14.76-27.13c5.9-5.91,10.7,2.21,10.7,2.21
				c8.49,13.29,16.98,36.17,19.47,27.05c2.5-9.12-6.45-26.19-6.45-26.19L529.21,389.45"/>
			<path id="path62" style="fill:#FFFFFF;" d="M364.5,617.19c0,0,5.17,16.98,22.15,18.82c16.98,1.85,62.38-3.32,67.92-18.82
				c5.54-15.5,4.99-16.06,8.85-10.33c3.88,5.72,4.43,26.94-12.18,39.31c-16.61,12.37-35.74,15.14-51.73,14.77
				c-16-0.37-38.33-12.73-38.7-41.16C360.81,619.77,362.1,615.9,364.5,617.19"/>
			<path id="path64" style="fill:#FFFFFF;" d="M390.52,625.31c0,0,10.89-7.19,19.57-8.3c8.67-1.1,35.25,4.24,35.43-10.33
				c0,0,3.5-30.45-2.4-21.96c-5.9,8.49-11.26,23.44-17.72,24.17c-6.46,0.74-17.17,2.4-19.56,3.14c-2.4,0.73-13.66,1.66-28.61-16.98
				C362.28,576.41,376.31,629.56,390.52,625.31"/>
			<path id="path66" style="fill:#FFFFFF;" d="M426.6,499.91c0,0,10.55-2.49,19.95,0l-2.51,48.44
				C444.04,548.35,440.99,550.29,426.6,499.91"/>
			<path id="path68" style="fill:#FFFFFF;" d="M347.22,516.06c0,0,10.08-7.54,19.62-5.7l0.13,52.49
				C366.98,562.85,365.07,565.32,347.22,516.06"/>
			<path id="path70" style="fill:#FFFFFF;" d="M375.01,508.61c0,0-3.87,0.61-0.74,9.11c3.14,8.49,5.35,4.25,8.12,2.03
				c2.77-2.22,10.52,1.11,30.08-2.96c0,0,2.95-0.74,4.98,1.85c2.03,2.59,4.8-10.33,1.85-15.13c-2.95-4.8-6.27,7.01-8.67,8.12
				c-2.4,1.11-25.1,3.69-27.69,2.77C380.37,513.47,380.18,508.92,375.01,508.61"/>
			<path id="path72" style="fill:#FFFFFF;" d="M460.65,585.17c0,0,0.83-21.59,10.24-33.77c9.41-12.18,35.71-10.8,61.73-64.78
				c0,0,5.54,10.8,11.44,7.84c5.9-2.95,5.16-56.29-21.69-87.3l-1.66-8.3c0,0,32.11,20.48,45.13,71.7l-7.75-0.55
				c0,0,14.12,40.97-21.04,75.3c0,0-2.21-5.81-4.43-8.03c0,0-14.67,16.05-33.22,18.82C480.86,558.88,471.72,565.52,460.65,585.17"/>
			<path id="path74" style="fill:#FFFFFF;" d="M356.84,597.08c0,0-2.77-23.67-20.21-34.19c-17.44-10.52-36.17-1.24-72.72-46.46
				c0,0-4.43,10.52-8.86,11.07c-4.42,0.55-19.75-63.31,9.04-105.94c0,0-32.67,12.98-36.26,87.05l8.03-2.61c0,0,0,40.3,11.35,54.62
				l1.94-6.72c0,0,8.86,13.57,25.74,19.93l1.94-8.86c0,0,5.54,9.41,26.3,10.8C323.9,577.15,341.34,573.27,356.84,597.08"/>
			<path id="path76" style="fill:#FFFFFF;" d="M365.6,692.13c0,0,23.14-2.22,33.9-2.96c0,0-0.68-8.12-22.09-21.04
				c-21.41-12.92-35.07-42.57-35.07-42.57S325,613.09,304.7,583.21c0,0-29.11,0.5-44.3-12.53c0,0,3.33,9.6,25.85,23.62
				C308.76,608.34,354.16,666.29,365.6,692.13"/>
			<path id="path78" style="fill:#FFFFFF;" d="M492.58,646.36V607.6c0,0,11.81-33.06,12.18-46.98c0,0,21.41-8.39,27.32-16.5
				c0,0,6.27,15.13,6.64,26.57c0,0,6.28-1.47,7.01-8.12c0.74-6.64-4.8-14.2-4.8-14.2s6.64-10.7,9.59-13.75
				c2.95-3.05,2.58,14.67,15.32,12.45C565.85,547.07,549.42,588.77,492.58,646.36"/>
			<path id="path80" style="fill:#FFFFFF;" d="M470.34,544.2c0,0,18.27-30.45,11.63-65.33c0,0-1.39-30.73-1.66-38.48
				c0,0,7.66,9.69,12.28,25.74c0,0-0.1-12.73,7.66-17.99c0,0,1.1-8.03,0-9.14c-1.11-1.11-13.29,3.04-28.24-14.4
				c0,0,1.39-1.38,14.95,4.98c13.56,6.37,13.29-13.01,19.38,1.11c6.09,14.12,3.6,16.89,3.6,16.89s15.64,9.37-6.92,52.87
				c0,0,2.77-0.27,8.3-8.44c5.54-8.17,17.16-32.8,1.94-49.97c0,0,5.35-15.5,2.4-27.68c0,0,13.29,10.15,10.7,33.41
				c-2.58,23.25-1.48,38.21-0.92,41.9C525.98,493.36,497.01,528.79,470.34,544.2"/>
			<path id="path82" style="fill:#FFFFFF;" d="M289.02,515.41c0,0-13.29-6.92-17.72-16.61c0,0-2.21,14.39,12.18,26.3
				c14.39,11.9,46.23,25.47,52.87,31.83c0,0-14.67-21.32-15.78-24.63c-1.11-3.32-8.31-16.61-1.39-33.5c0,0-4.52,3.05-11.35,14.67
				c0,0-6.09-12.73,1.11-25.19c0,0-22.7-1.94-23.26-27.13c0,0-0.55-5.81,3.33-9.41c3.87-3.6,27.13-22.15,27.13-22.15
				s-0.28-2.21-4.15,0c-3.88,2.22-21.59,14.67-24.08,6.64c-2.49-8.03-0.55-19.38,1.94-18.55c2.49,0.83,6.37,15.78,19.93,9.97
				c13.56-5.81,3.6-11.91,3.6-11.91s-12.73-18.27-22.97-6.92c-10.25,11.35-25.47,34.33-11.08,60.63c0,0-0.56,11.07-3.05,14.39
				C273.79,487.17,271.85,498.8,289.02,515.41"/>
			<path id="path84" style="fill:#FFFFFF;" d="M359.88,438.91c0,0,29.71,16.24,55.55-4.24c0,0,4.7-3.69,5.17,3.78
				c0.46,7.48,2.4,21.87-13.93,32.94c-16.33,11.07-3.32,19.38-3.32,19.38s6.82,4.15,17.25,2.49c10.43-1.66,19.28-0.32,23.44,0.39
				c4.15,0.72,16.79-2.23,12.18-14.37c0,0,1.29-4.75,4.43-7.34c3.14-2.58,1.29-5.35,8.12-7.01c6.83-1.66,51.49-11.81,109.99-15.69
				l-1.85-1.66c0,0-86.1,1.19-130.37,21.78c0,0-17.28,6.46-4.36-1.85c12.92-8.31,62.75-26.58,138.05-45.95l-10.7,1.29
				c0,0-46.14,10.34-108.89,31.19c0,0-8.68,2.4-1.66-4.06c7.01-6.46,67.27-32.02,117.65-51.12l-13.93,2.58
				c0,0-60.54,19.57-122.55,55.37c0,0-15.14,11.07-6.64-0.19c8.49-11.26,52.23-49.83,108.52-81.94c0,0-14.76,2.21-108.33,65.7
				c0,0-1.1,4.98-11.81-7.57c0,0-1.66-5.17,5.54,2.21c7.2,7.39,8.12-0.92,12.55-5.9c4.43-4.98,26.2-19.75,34.32-21.04
				s-16.61-4.24-23.25-4.8c-6.64-0.55-41.89-17.35-62.2,8.3c0,0-2.27,1.8-4.07-1.11c-1.79-2.91-38.34-19.38-65.75,11.07
				c0,0-1.1,1.25,1.25,2.77c2.35,1.52,26.57,23.53,27.13,24.08c0.55,0.55,4.3,4.85-4.43,0.55c0,0-12.49-5.93-40.53-8.39l-23.97-6.37
				l-55.64-12.66l80.91,24.92c0,0,30.38,8.03,37.02,14.12c6.64,6.09,12.73,9.42-0.56,6.92c0,0-8.85-3.32-12.45-3.88
				c-3.6-0.55-112.68-8.86-121.25-6.64c-8.59,2.21,0,1.94,0,1.94s80,3.05,112.67,8.86c0,0,9.14,3.88,9.14,5.81
				c0,1.94-104.92,0.55-116.83,4.43v1.24c0,0,81.39-1.52,124.85-1.8c0,0,18.27,3.48-1.66,3.54
				c-19.93,0.06-104.92,18.33-114.88,22.76l-0.28,1.38c0,0,84.43-16.61,104.09-17.99c0,0,5.82-0.74,5.63,4.84
				c-0.19,5.59,0.55,15.74,14.76,11.86c14.21-3.88,9.97-4.62,26.76-5.08c16.79-0.46,18.08-13.19,15.13-16.33
				c-2.95-3.14-30.63-11.63-31.01-41.53C354.9,440.94,355.88,437.1,359.88,438.91"/>
			<path id="path86" style="fill:#FFFFFF;" d="M341.98,404.74c0,5.31-6.39,9.63-14.27,9.63c-7.88,0-14.27-4.31-14.27-9.63
				c0-5.32,6.39-9.63,14.27-9.63C335.59,395.11,341.98,399.42,341.98,404.74"/>
			<path id="path88" style="fill:#272E73;" d="M329.54,403.29c0,0.99-0.8,1.8-1.8,1.8c-0.99,0-1.8-0.8-1.8-1.8
				c0-0.99,0.8-1.8,1.8-1.8C328.74,401.5,329.54,402.3,329.54,403.29"/>
			<path id="path90" style="fill:#FFFFFF;" d="M432.69,400.8c0,0-5.52-8.86,3.88-17.72s19.37,0,19.37,0s12.18,15.07-14.12,21.65
				L432.69,400.8"/>
			<path id="path92" style="fill:#272E73;" d="M444.51,389.73c0,0.99-0.81,1.8-1.8,1.8c-1,0-1.8-0.8-1.8-1.8c0-0.99,0.8-1.8,1.8-1.8
				C443.7,387.93,444.51,388.73,444.51,389.73"/>
			<path id="path94" style="fill:#FFFFFF;" d="M263.28,587.75l-7.73-12.93l9.3,6.47c0,0,8.29,13.05,16.85,20.23
				c8.56,7.18,45.58,34.25,70.99,70.44l4.42,12.15l-93.92-93.09L263.28,587.75"/>
		</g>
	</g>
</g>
</svg>
