<svg version="1.1" xmlns="http://www.w3.org/2000/svg" xmlns:xlink="http://www.w3.org/1999/xlink" x="0px" y="0px"
	 viewBox="0 0 800 800" enable-background="new 0 0 800 800" xml:space="preserve">
<g>
	<path fill="#A72139" d="M519,162c5.4,3.8,11.5,5.5,18.1,5.8c1,0,2.1-0.1,3.2-0.4c11.7-1.6,20.1-12.6,18.5-25
		c-0.8-6.4-4.2-11.3-9.5-14.9c-5.1-3.4-10.8-5.1-16.9-5.4c-3.6-0.2-7.1,0.4-10.3,2c-7.4,3.8-11.5,10-12.3,18.2
		C509,150.6,512.2,157.2,519,162z M531.2,130.2c8-1.5,16.5,3.9,18.1,11.6c0.2,0.9,0.2,1.9,0.3,2.5c-0.2,5.1-1.8,9.3-5.6,12.5
		c-5.1,4.2-10.7,4.2-16.5,1.6c-4.6-2.1-7.4-5.7-8.3-10.7C517.8,139.7,523.3,131.7,531.2,130.2z"/>
	<path fill="#A72139" d="M207.2,144.3c1.3-0.1,2,0.5,2.4,1.7c2.3,6,11,28.2,13,33.3c0.4,1,0.6,2-0.4,2.7c-0.6,0.5-0.4,0.9-0.1,1.3
		c0.1,0,0.2,0,0.2,0c4-1.5,7.9-3.1,11.9-4.6c0.1,0,0.3-0.1,0.3-0.2c-0.1-0.6,0.4-0.5,0.7-0.6c3.9-1.3,7.7-2.6,11.6-3.9
		c0.3-0.1,0.6-0.2,0.8-0.3c0-0.8-0.3-1-1-1c-1.3,0-1.9-0.6-2-1.8c0-0.3,0-0.6,0-0.9c0.2-2.2,0.5-4.4,0.7-6.6c0-0.4,0.2-0.6,0.6-0.7
		c5.8-2,11.7-3.9,17.5-5.9c0.2-0.1,0.6,0,0.8,0.2c1.6,1.5,3.1,3.1,4.7,4.7c1.5,1.4,1.4,2.8-0.3,3.8c0,0-0.1,0-0.1,0.1
		c0.1,0.2,0.2,0.5,0.3,0.8c1.2-0.4,2.3-0.8,3.5-1.2c3.5-1.2,7-2.5,10.5-3.5c6-1.7,12.1-3.1,18.1-4.7c3.7-1,7.5-2,11.1-3.3
		c5.3-1.9,9.1-5.4,11.1-10.8c1.3-3.6,1.4-7.4,0.7-11.2c-0.7-4.4-2.2-8.5-5-12.1c-3.2-4.1-7.4-6.5-12.6-6.9c-3-0.3-6.1,0.2-9,0.9
		c-8.3,2.1-16.5,4.2-24.7,6.3c-0.2,0.1-0.3,0.1-0.7,0.3c0.4,0.3,0.6,0.8,0.9,0.8c1.3,0.1,1.9,0.8,2.2,2c3,11.5,5.9,23.1,8.9,34.6
		c0.1,0.4,0.2,0.8,0.2,1.2c0,1.1-0.8,1.8-1.8,1.6c-0.6-0.1-1.2-0.4-1.7-0.7c-0.8-0.5-1.5-1.2-2.1-1.8c-8.8-8.6-26.8-26.7-27.1-27.1
		c-0.7-1.1-0.6-1.9,0.3-2.7c0.6-0.4,0.4-0.8,0.1-1.3c-4.8,1.7-9.6,3.3-14.3,4.9c0.2,0.9,0.2,0.9,0.8,1c1.3,0.2,1.8,0.8,2,2
		c0.1,0.6-3.4,30.4-4.3,37.8c-0.2,1.8-0.2,3.7-2.1,4.9c-0.2,0.1-0.5,0.3-0.8,0.3c-1.1-0.1-1.5-0.8-1.8-1.7c-3-7.6-11.7-30-13.1-33.6
		c-0.4-0.9-0.3-1.8,0.5-2.4c0.5-0.5,0.5-0.8,0.1-1.4c-4.1,1.6-8.2,3.2-12.2,4.8C206.8,143.8,206.5,144.4,207.2,144.3z M290.3,122.8
		c3.1-0.7,6.2-1.6,9.4-2.2c5.8-1,10.2,1.2,12.8,6.4c1.9,3.8,2.8,7.8,2.3,12.1c-0.4,3.4-2.2,6.1-5.2,7.8c-2,1.2-4.3,1.8-6.5,2.4
		c-3.4,0.9-6.7,1.7-10.1,2.6c-0.2,0.1-0.5,0.1-0.8,0.2c-2.4-9.3-4.8-18.6-7.2-27.9C286.8,123.7,288.5,123.3,290.3,122.8z
		 M247.8,139.7c3.9,4.2,7.6,8.2,11.5,12.3c-4.5,1.5-8.9,3-13.3,4.5C246.6,150.9,247.2,145.4,247.8,139.7z"/>
	<path fill="#A72139" d="M459.5,147.6c9.8,2.3,19.6,4.5,29.5,6.7c3,0.7,5.9,0.9,8.9,0.1c4.8-1.3,7.4-4.5,8.4-9.2
		c0.9-4.5-0.9-8.9-4.9-11.2c7.8-1.6,8.3-9.1,7.9-12.1c-0.6-3.7-2.8-6.3-6.1-7.8c-1.7-0.8-3.6-1.4-5.4-1.8
		c-8.4-1.9-16.8-3.8-25.2-5.7c-1.3-0.3-2.7-0.6-4.1-0.9c-0.1,0.5-0.5,0.9,0.1,1.2c1.1,0.7,1.3,1.7,1,2.9c-1.2,5.2-6.5,28.4-7.9,34.8
		c-0.2,1.1-0.6,1.9-1.8,2c-0.7,0-0.9,0.3-0.9,1C459.2,147.7,459.3,147.7,459.5,147.6z M476,124.2c0.7-2.7,1.3-5.5,1.9-8.2
		c0-0.3,0.1-0.5,0.2-0.8c2.1,0.5,4.2,0.9,6.2,1.3c3.5,0.8,6.9,1.5,10.4,2.4c1.2,0.3,2.3,0.8,3.4,1.4c1.2,0.6,1.7,1.7,1.8,2.9
		c0.1,1.5-0.2,3-1.1,4.2c-0.8,1.2-2,1.7-3.4,1.6c-1.8-0.1-3.6-0.4-5.3-0.8c-4.5-0.9-9-2-13.5-3C476,125,475.8,124.9,476,124.2z
		 M474.2,131.9c2.1,0.5,4.1,0.9,6.1,1.4c3.6,0.8,7.3,1.6,10.9,2.5c1,0.3,2,0.6,2.9,1.1c2.5,1.2,3.4,3.1,2.9,5.8
		c-0.5,3.1-2.4,4.8-5.6,4.6c-2.2-0.2-4.4-0.6-6.5-1.1c-4.1-0.9-8.3-1.9-12.5-2.8c-0.2-0.1-0.4-0.1-0.7-0.2
		C472.5,139.4,473.5,135.7,474.2,131.9z"/>
	<path fill="#A72139" d="M343.6,104.8c1,0.2,1.4,0.9,1.5,1.9c0.2,2.5,2.5,26.4,3.5,35.9c0.1,1.2-0.2,2.1-1.4,2.6
		c-0.5,0.2-0.4,0.6-0.3,0.9c0,0.1,0.4,0.2,0.6,0.2c2.7-0.3,5.3-0.5,8-0.8c1.3-0.1,2.6-0.3,3.9-0.4c0.1-0.9,0.1-0.9-0.7-1.1
		c-0.9-0.3-1.4-0.9-1.5-1.9c-0.8-7.9-2.5-25.2-2.6-26c0.3,0.2,17.9,15.2,26.6,22.5c0.5,0.4,0.9,0.8,1.3,1.3c0.5,0.6,0.4,1.3-0.3,1.7
		c-0.6,0.3-0.7,0.7-0.4,1.3c4.4-0.4,8.8-0.9,13.3-1.2c0.1-1,0.1-1-0.6-1.2c-1-0.3-1.5-0.9-1.6-1.9c-0.3-3.2-3.2-31.9-3.6-36.3
		c-0.1-1,0.3-1.8,1.2-2.2c0.7-0.3,0.7-0.7,0.4-1.3c-4.2,0.4-8.3,0.8-12.4,1.2c-0.1,0.7,0.1,1.1,0.7,1.2c1.1,0.3,1.5,0.9,1.6,2
		c0.2,1.6,2.4,24.2,2.5,25.3c-0.3-0.3-26.4-22.5-26.6-22.8c-0.7-0.9-0.5-1.8,0.4-2.4c0.2-0.1,0.3-0.5,0.3-0.7
		c-0.1-0.8-0.7-0.4-1-0.4c-3.2,0.3-6.5,0.7-9.7,1c-1.3,0.1-2.6,0.3-3.8,0.4C342.8,104.3,342.9,104.7,343.6,104.8z"/>
	<path fill="#A72139" d="M413.6,142.6c5,1.6,10.2,1.9,15.4,1.3c5.7-0.7,11.1-2.4,16.3-4.9c0.2-0.1,0.4-0.4,0.4-0.6
		c0-0.2-0.2-0.4-0.4-0.5c-1-0.5-1.5-1.2-1.4-2.3c0-0.2,0-0.4,0-0.6c0.2-2.5,0.4-5.1,0.6-7.7c0.1-1.3,0.6-2.2,1.9-2.5
		c0.2,0,0.4-0.4,0.4-0.7c0-0.1-0.3-0.4-0.5-0.4c-4.6-0.3-17.7-1.2-19.7-1.4c-1.2-0.1-1.7-0.5-2-1.6c-0.2-0.8-0.6-0.7-1.2-0.6
		c-0.2,3.3-0.5,6.6-0.7,9.8c0.7,0.3,1.1,0.1,1.3-0.5c0.3-0.9,1.1-1.3,2-1.2c2.6,0.2,9.7,0.7,10.7,0.8c-0.2,1.8-0.3,3.4-0.4,5
		c0,0.7-0.3,1-0.9,1.2c-5.3,1.9-10.7,2.3-16.2,1.1c-7.3-1.6-12.7-7.7-11.7-16.2c0.7-6.5,5.6-11.8,12.2-12.9c4.1-0.7,8.1,0,12,1.4
		c2.1,0.8,4.1,1.7,5.7,3.2c0.5,0.5,0.8,1.1,0.8,1.8c0,0.6,0.3,0.8,0.9,1c1.9-3.3,3.8-6.5,5.7-9.8c-0.5-0.5-0.9-0.7-1.2-0.2
		c-0.5,0.4-1.2,0.3-1.8,0.1c-1.1-0.5-2.1-0.9-3.2-1.4c-7.3-3.5-14.9-4.5-22.8-3c-5.7,1-10.4,3.7-13.9,8.4c-2.4,3.2-3.6,6.9-3.9,10.8
		c-0.4,4.5,0.1,9,2.5,13C403.5,137.6,408,140.9,413.6,142.6z"/>
	<path fill="#A72139" d="M444.7,172.2c-1.1-0.6-2.2-1.3-3.3-2c-2.6-1.7-5.2-3.3-8.1-4.3c-5.2-1.8-10.6-2.1-16-1.4
		c-11.1,1.4-18.8,9.8-19.3,20.4c-0.5,8.6,2.9,15.3,10.2,19.9c3.1,2,6.7,3.1,10.4,3.6c3.8,0.5,7.7,0.7,11.5-0.1
		c3.2-0.7,6.2-1.9,9.1-3.3c1.1-0.5,2.2-1,3.3-1.5c0.6-0.3,1.2-0.2,1.6,0.3c0.5,0.5,0.8,0.4,1.3-0.1c-1.7-3.1-3.5-6.1-5.2-9.2
		c-0.8,0.2-1,0.5-1,1.2c0.1,0.7-0.4,1.3-0.9,1.7c-0.5,0.3-1,0.7-1.6,1c-5.3,2.9-10.9,3.7-16.8,2.5c-7.6-1.6-12.9-7.7-12.4-15.5
		c0.3-6,4.1-11.2,10-13c5.6-1.7,11.1-1.1,16.3,1.4c1.9,0.9,3.6,2.1,5.3,3.3c0.8,0.5,1.4,1.3,1.2,2.4c-0.1,0.7,0.2,1.1,0.8,1.3
		c2.2-2.8,4.3-5.6,6.5-8.4c-0.4-0.5-0.7-0.7-1.2-0.2C445.9,172.6,445.2,172.6,444.7,172.2z"/>
	<path fill="#A72139" d="M373.8,172.4c5.7-0.5,11.5-1,17.2-1.5c1.1-0.1,1.9,0.2,2.3,1.3c0.2,0.4,0.4,0.5,0.8,0.4
		c0.4-0.1,0.3-0.4,0.3-0.7c-0.2-2.1-0.3-4.1-0.5-6.1c-0.2-1.4-0.3-2.9-0.4-4.3c-0.9,0-0.9,0-1.1,0.4c-0.5,1.4-0.9,1.7-2.4,1.8
		c-4.6,0.4-29.2,2.4-36.8,3.1c-0.2,0-0.6,0.2-0.7,0.4c-0.2,0.4,0.1,0.7,0.6,0.8c1,0.3,1.5,0.9,1.6,1.9c0.4,5,2.8,33.3,3.1,36.2
		c0.1,1-0.2,1.9-1.2,2.3c-0.7,0.3-0.7,0.7-0.4,1.3c4.4-0.3,8.8-0.7,13.2-1.1c0-0.5,0.2-0.9-0.5-1.1c-1.3-0.4-1.7-0.8-1.8-2.2
		c-0.4-4.1-1.2-14.3-1.3-15.2c0.2-0.1,0.3-0.1,0.4-0.1c5.7-0.5,11.4-1,17.1-1.5c0.9,0,1.6,0.3,2,1.2c0.3,0.6,0.7,0.7,1.3,0.4
		c-0.3-3.5-0.6-7-0.9-10.6c-0.5,0.1-0.9-0.2-0.9,0.7c-0.5,1.4-0.9,1.7-2.4,1.8c-2.5,0.2-13.3,1.1-16.2,1.4c-0.6,0-0.9-0.1-0.9-0.8
		c-0.1-2.5-0.4-5-0.6-7.5c0-0.6-0.1-1.2-0.1-1.9c0.3-0.1,0.4-0.1,0.6-0.1C368,172.9,371,172.6,373.8,172.4z"/>
	<path fill="#A72139" d="M558.8,163.8c0.2-0.7,0-1-0.6-1.3c-2.6,2.9-5.1,5.7-7.6,8.6c0.3,0.5,0.7,0.7,1.3,0.7
		c0.6-0.1,1.4-0.1,1.9,0.2c1,0.5,1.9,1.2,2.8,1.8c1.7,1.2,3.3,2.6,5.1,3.7c4.2,2.7,8.8,4.4,13.9,4c3.4-0.3,6.4-1.6,8.3-4.6
		c0.8-1.1,1.5-2.3,2-3.6c1.4-3.5,2.8-7,4.1-10.5c1.9-5,3.8-9.9,5.7-14.9c0.3-1,0.9-1.7,2-1.6c0.7,0,0.9-0.3,1-1
		c-4.1-1.6-8.2-3.1-12.6-4.8c0,0.5-0.1,1.1,0.1,1.2c1.1,0.9,1.1,2,0.6,3.2c-2,5-3.9,10.1-5.8,15.1c-1.3,3.3-2.5,6.7-3.9,9.9
		c-1.3,3-3.6,4.1-6.8,3.4c-4.2-0.9-7.6-3.1-10.5-6.3c-0.5-0.5-0.8-1.1-1-1.7C558.7,164.8,558.6,164.2,558.8,163.8z"/>
	<path fill="#A72139" d="M186.8,196.5c0.5-0.9,1.2-1.3,2.2-1.5c1.4-0.3,2.9-0.5,4.3-0.7c2.8-0.4,5.6-0.7,8.3-1.7
		c3.3-1.2,6.5-2.8,8.9-5.5c2.2-2.4,3.5-5.1,3.2-8.4c-0.2-2.1-0.9-4.2-1.7-6.2c-1.4-3.3-8.1-19.1-10.1-23.7c-0.4-1-0.5-1.9,0.4-2.6
		c0.5-0.5,0.4-0.9,0-1.4c-4,1.7-8.1,3.5-12.2,5.2c0.2,0.4,0.1,1,0.7,0.9c1.4-0.1,2.1,0.6,2.6,1.8c2.5,5.9,9.5,22.6,10.5,25
		c0.4,1,0.5,2,0.3,3.1c-0.4,1.8-1.5,3-3,3.9c-1.9,1.2-3.9,1.9-6,2.3c-2.2,0.4-4.4,0.7-6.6,0.3c-0.9-0.2-1.8-0.5-2.2-1.5
		c-0.3-0.7-0.7-0.7-1.3-0.5c0.2,3.8,0.4,7.6,0.6,11.7C186.2,196.8,186.8,196.8,186.8,196.5z"/>
	<path fill="#A72139" d="M603.1,151.2c-2.1,5.1-4.3,10.2-6.4,15.3c-2.5,5.8-4.9,11.7-7.4,17.6c-0.5,1-1,1.7-2.2,1.6
		c-0.7-0.1-0.9,0.2-1,0.9c4,1.7,8.1,3.4,12.4,5.2c0-0.5,0.1-1,0.1-1.1c-1.1-0.9-1-2-0.5-3.2c3.2-7.6,6.3-15.1,9.5-22.7
		c1.4-3.4,2.9-6.9,4.3-10.3c0.4-1,1-1.6,2.1-1.5c0.7,0.1,0.9-0.3,1-0.9c-4.1-1.8-8.2-3.5-12.3-5.2c-0.1,0.5-0.6,0.8-0.1,1.2
		C603.6,149,603.6,150,603.1,151.2z"/>
	<path fill="#A72139" d="M323.5,108.8c1.5,0.2,2,1.1,2.2,2.4c1.1,5.9,5.5,29.4,6.6,35.3c0.1,1-0.1,1.7-1,2.2
		c-0.6,0.3-0.6,0.7-0.3,1.3c4.3-0.8,8.7-1.6,13-2.4c0-0.9,0-0.9-0.6-1.2c-1.4-0.3-1.7-0.6-2-2c-0.9-4.6-5.3-28.2-6.7-35.5
		c-0.2-1.2,0.1-1.8,1.1-2.4c0.4-0.2,0.5-0.5,0.4-0.9c-0.2-0.5-0.5-0.3-0.8-0.2c-2.9,0.5-5.8,1.1-8.7,1.6c-1.2,0.3-2.4,0.5-3.9,0.8
		C323.1,108.3,323.3,108.8,323.5,108.8z"/>
	<path fill="#A72139" d="M727.5,477.7c-3.7-108.8-46.7-164.7-49.1-208.9c-2.3-44.2,16.6-91.6,42.4-133c-23-15.4-132.4-68.3-267.7-80
		C430.1,51,412.4,50,400,50c-12.4,0-30.1,1-53.1,5.8c0,0,0,0,0,0c-135.3,11.8-244.6,64.6-267.8,80c25.9,41.4,44.7,88.8,42.4,133
		S76.2,368.9,72.5,477.7s81.9,155.7,135.7,185.2S400,750,400,750s138-57.6,191.8-87.1C645.7,633.4,731.2,586.5,727.5,477.7z
		 M210.6,658.5L210.6,658.5c-27.3-14.9-61.1-33.5-88.2-62c-14.6-15.3-25.8-32.2-33.2-50.1c-8.6-20.8-12.5-43.9-11.7-68.6
		c2.3-66.4,19.1-112.3,32.7-149.1c8.3-22.5,15.5-42,16.4-59.7c2.5-49-20-97.9-40.5-131.7c16.7-10,54.9-28.3,105.3-44.6
		c30.9-10,72.6-21.1,120.6-28c-0.6,0.2-1.2,0.4-1.8,0.6c-93.8,22.3-185.9,69-203.1,79.6c9.5,11.7,37.3,57.1,35.5,129.6
		C141,336.5,84.3,421.3,107,517.3c16.8,71,72.6,119.2,115.4,147.5C218.2,662.6,214.2,660.5,210.6,658.5z M325.4,700.2
		c-45-19.6-105.3-47.1-153-97.1c-47.7-50-62.5-126.1-42.3-186.6c20.2-60.6,32.6-95.9,33.8-123.8c1.2-28-3.9-98.6-22.1-140.1
		c17.5,35.3,29.9,72.5,32.2,115.6c2.3,43.1,0,71-18.2,123.4s-24.1,89.2-9.3,134.2C159.9,567.1,206,645,356.7,712.6
		C347.4,709.3,336.9,705.2,325.4,700.2z M400,725.2c-80-30.9-143-68.1-187.4-110.5c-38.3-36.6-54.6-69.4-61.5-90.5
		c-7-21.3-9.4-41.1-7.5-62.3c1.7-19,6.9-40.1,16.8-68.7c18.7-53.7,20.8-82.1,18.5-125.3c-2-38.2-11.8-74.4-30.8-113.7
		c56.6-39,110.5-66.9,160.5-83.1C341.6,60.4,372.4,55,400,55s58.5,5.4,91.5,16.1c49.9,16.2,103.9,44.2,160.5,83.1
		c-19,39.3-28.8,75.5-30.8,113.7c-2.4,43-0.3,71.3,18.5,125.3c9.9,28.4,15.1,49.6,16.8,68.6c1.9,21.2-0.5,41-7.5,62.4
		c-6.9,21.1-23.1,53.8-61.5,90.4C543.1,657.1,480,694.3,400,725.2z M443.6,712.5C443.6,712.5,443.6,712.5,443.6,712.5
		c150.5-67.7,196.6-145.4,210-186.7c14.8-45,9-81.9-9.3-134.2c-18.2-52.4-20.6-80.3-18.2-123.4c2.3-42.2,14.2-78.8,31.1-113.4
		c-17.4,41.9-22.3,110.4-21.1,137.8c1.2,28,13.6,63.3,33.8,123.8c20.2,60.5,5.5,136.5-42.2,186.6c-47.7,50-108,77.4-153,97.1
		C463.3,705.1,452.8,709.2,443.6,712.5z M710.9,546.5c-7.4,17.9-18.6,34.8-33.2,50.1c-27.1,28.4-61,47-88.2,61.9l-0.1,0
		c-3.4,1.9-7.2,3.9-11.3,6c42.8-28.3,98.2-76.4,114.9-147.2c22.7-96.1-33.9-180.8-35.5-242.7c-1.8-72.5,26-117.8,35.5-129.6
		C675.9,134.4,583.8,87.7,490,65.4c-0.6-0.2-1.2-0.4-1.8-0.6c0,0,0,0,0,0c47.9,6.8,89.7,18,120.6,28c50.4,16.3,88.6,34.5,105.2,44.6
		c-36,59.4-42,104.3-40.5,131.7c1,17.6,8.1,37,16.4,59.5c13.6,36.9,30.5,82.8,32.7,149.3C723.4,502.6,719.5,525.7,710.9,546.5z"/>
	<path fill="#A72139" d="M618,471.6l12.4,19.2c-6.3-53.1-22.9-102-46.4-141.5c9.6-6,20.5-15.8,28.6-31.4
		c7.6-14.5,11.7-47.7-4.5-75.5c0,0-21.2,14.5-95.4,27.7c-30.8-21.8-65.5-32.4-112.5-32.4s-81.7,10.6-112.5,32.4
		c-74.3-13.2-95.4-27.7-95.4-27.7c-16.2,27.7-12.1,60.9-4.5,75.5c8.1,15.5,19,25.3,28.6,31.4c-23.5,39.5-40.1,88.4-46.4,141.5
		l12.6-19.2c0,0-7.4,67.1,32.6,109c0,0-3.5-15.1-3.3-26.6c11.6,13.8,38.3,41.1,71.5,56.1c-5.8-9.3-16.9-29.7-17.1-38.4
		c14.9,4,36.3,18.6,51.3,52.1c1.2-10.1,4.9-23.8,7.9-30.1c-0.5,9.7-1.4,39.1,26.3,60.4l-4.4-12.8c0,0,7.2,5.7,12.8,8.9
		s21,10.3,20.6,23.4c2.8-0.6,4.3-3,5.9-12c3.4,2.7,12.8,14.7,13.6,20.2c0.9-5.4,10.3-17.5,13.6-20.2c1.7,9.1,3.1,11.4,5.9,12
		c-0.4-13.1,15-20.2,20.6-23.4c5.6-3.2,12.8-8.9,12.8-8.9l-4.4,12.8c27.7-21.3,26.8-50.7,26.3-60.4c3,6.3,6.7,20,7.9,30.1
		c15-33.5,36.5-48.1,51.3-52.1c-0.1,8.7-11.3,29.1-17.1,38.4c33.2-15,59.9-42.4,71.5-56.1c0.2,11.4-3.3,26.6-3.3,26.6
		C625.5,538.8,618,471.6,618,471.6z M588.8,551c-0.9,0-1.7,0.4-2.3,1.1c-6.9,8.2-30.4,34.3-61.6,50.9c5.2-9.2,12.4-23.6,12.5-31.3
		c0-0.9-0.4-1.8-1.2-2.4c-0.5-0.4-1.2-0.6-1.8-0.6c-0.3,0-0.5,0-0.8,0.1c-6.3,1.7-16,5.8-26.8,15.7c-8.6,7.9-16,17.8-22.3,29.6
		c-1.7-8.2-4.3-16.8-6.6-21.7c-0.5-1.1-1.6-1.7-2.7-1.7c-0.2,0-0.5,0-0.7,0.1c-1.4,0.4-2.3,1.6-2.3,3.1c1,20.3-4.6,37.2-16.7,50.2
		l0.6-1.8c0.4-1.3,0-2.7-1.1-3.4c-0.5-0.4-1.1-0.6-1.7-0.6c-0.7,0-1.3,0.2-1.9,0.6c-0.1,0.1-7.1,5.6-12.4,8.6
		c-0.5,0.3-1.1,0.6-1.7,0.9c-5.5,3-15.7,8.6-19.2,17.8c-0.4-1.3-0.7-3.1-1.2-5.3c-0.2-1-0.9-1.9-1.9-2.3c-0.3-0.1-0.7-0.2-1-0.2
		c-0.7,0-1.4,0.2-1.9,0.7c-2.5,2-8.1,8.8-11.7,14.9c-3.5-6.1-9.2-12.9-11.8-14.9c-0.5-0.4-1.2-0.7-1.9-0.7c-0.4,0-0.7,0.1-1.1,0.2
		c-1,0.4-1.7,1.2-1.9,2.3c-0.4,2.3-0.8,4-1.2,5.4c-3.5-9.3-13.7-14.9-19.2-17.9c-0.6-0.3-1.2-0.7-1.7-0.9c-5.3-3-12.4-8.6-12.4-8.6
		c-0.5-0.4-1.2-0.6-1.9-0.6c-0.6,0-1.2,0.2-1.7,0.6c-1.1,0.8-1.5,2.2-1.1,3.4l0.6,1.8c-12.1-13-17.7-29.9-16.7-50.2
		c0.1-1.4-0.9-2.7-2.3-3.1c-0.2-0.1-0.5-0.1-0.7-0.1c-1.1,0-2.2,0.6-2.7,1.7c-2.3,4.9-4.9,13.5-6.6,21.7
		c-6.3-11.8-13.7-21.8-22.3-29.6c-10.8-9.9-20.6-14-26.9-15.7c-0.3-0.1-0.5-0.1-0.8-0.1c-0.7,0-1.3,0.2-1.9,0.6
		c-0.7,0.6-1.2,1.5-1.1,2.4c0.2,7.4,7,21.3,12.5,31.2c-31.4-16.8-54.7-42.8-61.6-50.9c-0.6-0.7-1.4-1.1-2.3-1.1
		c-0.3,0-0.7,0.1-1,0.2c-1.2,0.4-2,1.5-2,2.8c-0.1,5.2,0.5,11.1,1.3,16.1c-14.8-19.6-20.8-42.9-23.3-59.9c-3.1-21.4-1.3-38-1.3-38.2
		c0.2-1.4-0.7-2.7-2-3.2c-0.3-0.1-0.7-0.2-1-0.2c-1,0-1.9,0.5-2.5,1.4l-5.3,8.1c7.1-46.6,22.3-90.4,44.2-127.3
		c0.8-1.4,0.4-3.2-1-4.1c-11.7-7.4-20.9-17.6-27.5-30.3c-7.2-13.8-10.7-44.2,3-70c7.9,4.2,33.4,15.8,93.7,26.5c0.2,0,0.3,0,0.5,0
		c0.6,0,1.2-0.2,1.7-0.6c31.1-22,65.3-31.8,110.8-31.8s79.6,9.8,110.8,31.8c0.5,0.4,1.1,0.6,1.7,0.6c0.2,0,0.4,0,0.5,0
		c60.3-10.7,85.9-22.3,93.7-26.5c13.7,25.9,10.2,56.2,3,70c-6.6,12.8-15.9,23-27.5,30.2c-1.4,0.9-1.8,2.7-1,4.1
		c21.9,36.8,37.1,80.5,44.2,127l-5.1-7.9c-0.6-0.9-1.5-1.4-2.5-1.4c-0.3,0-0.7,0.1-1,0.2c-1.3,0.5-2.1,1.8-2,3.2
		c0,0.2,1.8,16.6-1.3,38c-2.4,17.1-8.5,40.5-23.3,60.1c0.7-5,1.4-10.9,1.3-16.1c0-1.2-0.8-2.4-2-2.8C589.5,551.1,589,551,588.8,551z
		"/>
	<path fill="#A72139" d="M232.2,325.2c4.5-6,9.2-11.7,14-17.1c10.6-11.8,21.2-22.1,32.2-30.9c-9.4-1-39.8-5.4-84.7-24.6
		c-2.6,13.3-5.6,37.8,11.9,61.8c-2.8-9.1-3.8-20.5,0.6-32.5C206.2,281.9,208,307.9,232.2,325.2z"/>
	<path fill="#A72139" d="M554,308.1c4.9,5.4,9.5,11.1,14,17.1c24.2-17.3,26-43.2,26-43.2c4.4,12.1,3.3,23.4,0.6,32.5
		c17.4-23.9,14.5-48.5,11.9-61.8c-44.9,19.2-75.2,23.6-84.7,24.5C532.8,285.9,543.3,296.3,554,308.1z"/>
	<path fill="#A72139" d="M342.2,346.9c-1,3.5-5.3,7.3-10.5,4.3c-5.8-3.1-3.4-10.2-1.5-11.5c0,0-4.9-2.4-11.4-3.2
		c0.4,3.4,2.5,13.5,8.7,17.6c6.3,4.1,14.5,2.7,21.1-1.1C348.7,353,346,349.7,342.2,346.9z"/>
	<path fill="#A72139" d="M602.2,528.4c0,0,15.1-47.3-3.5-102.6c0,0,14,17.1,17.1,25.5c0,0.2-18.8-81.1-54.5-120.9
		c0,0,12.7,35,10.8,74c-0.4-8.1-1.7-16.5-4.2-25.3c-9.4-33.3-26.3-62.7-45-75.1c7.5,3.4,16.1,8.4,19.2,10.6
		c-42.3-63.3-102.8-70.2-142.1-70.2c-39.3,0-99.8,6.9-142.1,70.2c3-2.2,11.6-7.2,19.2-10.6c-18.7,12.5-35.6,41.8-45,75.1
		c-2.5,8.9-3.8,17.4-4.2,25.6c-2-39.1,10.8-74.3,10.8-74.3c-35.7,39.8-54.5,121.1-54.5,120.9c3.1-8.4,17.1-25.5,17.1-25.5
		c-18.6,55.3-3.5,102.6-3.5,102.6c-2.3-10.2,0.6-30,4.5-39.6c3.1,35.2,38.8,76.6,50.4,87.2C216.3,519.7,216,466,216,457.9
		c-1.3,3.5-6.2,19.1-8.5,25.6c-8.3-62.6,11-108,14.5-116c-6.8,26-8.1,61.7-8.2,74.9c1.7-5.8,7.2-25.1,8.5-28.8
		c-4.4,52.6,17.3,90.8,24.1,100.3C233,490.3,230,462.5,229,443.7c7,47.2,48.1,76.8,57.8,81.3c-26.2-33.8-35-82.3-36.9-91.2
		c-1.5,14.3-1.2,32.3,0.6,46.9c-4.6-10.7-17.9-44.7-14.5-77c3.9-38.3,13.3-55.8,22-69.3c-9.5,29.4-13.1,74.6-13.1,74.6
		c8.4-28.8,13.6-35,13.6-35C247.4,446.7,285,478.5,285,478.5c-24.4-37.4-17.3-81.9-17.3-81.9c3.7,34.8,27.3,56.1,27.3,56.1
		c-7-21.5-2.9-38.5-0.5-45.4c2.7-7.3,10.4-21.5,25.9-30.5c1.1,5.6,3.6,17.4,27.4,33.5c-3.3-0.8-8.3-2.5-15.2-6.8
		c-9.3-5.8-18.1-14.4-18.1-14.4c-7.2,22.6,38.7,43.4,38.5,43.4c-38.4-9.9-48.3-28.5-48.3-28.5c-7.2,23.5,42.5,45.7,42.5,45.7
		c-32.7-8-46.8-24.2-46.8-24.2c-0.1,3.1-3.3,16.6,6.1,24.1c9.4,7.5,40.3,11.1,40.3,11.1c-9.7,2.6-35.2,0.8-35.2,0.8
		c33.1,11.7,62.2,7.2,68.8,5.8s9-2.1,11.1-6.2c2.1-4.1,3.6-9.4,4.8-13.8c-13.4,1.4-24.7-17.6-24.7-17.6c4.5,3.1,8.5-0.8,7.7-5.2
		c-0.8-4.4-8.4-7.9-14.1-10c-3.3-1.2-6.6-2.1-9.4-2.7c4.3-6,8.6-21.8-15-38.6c9.1,0.4,23.8,8.7,27.4,26.8c3,4,10.3,10.4,31.9,10.5
		c21.6-0.1,28.9-6.5,31.9-10.5c3.6-18.1,18.3-26.4,27.4-26.8c-23.6,16.9-19.3,32.6-15,38.6c-2.8,0.6-6.1,1.4-9.4,2.7
		c-5.7,2.1-13.3,5.6-14.1,10c-0.8,4.4,3.2,8.3,7.7,5.2c0,0-11.3,19-24.7,17.6c1.2,4.4,2.7,9.7,4.8,13.8s4.5,4.8,11.1,6.2
		c6.6,1.4,35.7,5.9,68.8-5.8c0,0-25.5,1.8-35.2-0.8c0,0,30.9-3.6,40.3-11.1c9.4-7.5,6.2-21,6.1-24.1c0,0-14.1,16.2-46.8,24.2
		c0,0,49.7-22.2,42.5-45.7c0,0-9.9,18.6-48.3,28.5c-0.2,0,45.7-20.8,38.5-43.4c0,0-8.8,8.6-18.1,14.4c-6.9,4.3-11.8,6-15.2,6.8
		c23.8-16.2,26.4-28,27.4-33.5c15.5,9,23.3,23.3,25.9,30.5c2.4,6.9,6.4,23.9-0.5,45.4c0,0,23.6-21.3,27.3-56.1
		c0,0,7.1,44.5-17.3,81.9c0,0,37.6-31.8,26.5-104.5c0,0,5.2,6.2,13.6,35c0,0-3.6-45.2-13.1-74.6c8.6,13.6,18,31,22,69.3
		c3.4,32.4-9.9,66.4-14.5,77c1.8-14.6,2.1-32.6,0.6-46.9c-1.9,8.9-10.7,57.4-36.9,91.2c9.7-4.5,50.8-34.1,57.8-81.3
		c-1,18.8-4.1,46.6-17.5,70.2c6.8-9.5,28.5-47.7,24.1-100.3c1.3,3.7,6.8,23,8.5,28.8c-0.1-13.2-1.4-48.9-8.2-74.9
		c3.5,8,22.8,53.4,14.5,116c-2.3-6.5-7.2-22.1-8.5-25.6c0,8.1-0.3,61.8-36.7,118.2c11.6-10.6,47.3-52,50.4-87.2
		C601.6,498.5,604.5,518.2,602.2,528.4z M522.3,356.1c10.9,9.8,15,21.6,10.8,27.2c-4.1,5.6-17.7-5-17.7-5s9.5,3.1,12.5-3
		C531,369.1,522.3,356.1,522.3,356.1z M532.3,349.9c0,0-4.5-2.3-8.8-2.5c0.2,0,5.9,2.7,10.8,11.8c0,0-9.7-9.3-21.6-15.3
		c0,0,1.9-0.7,5.9-0.3c0,0-4.6-1.8-10.2-1.4c0.1,0,0.3-0.1,0.5-0.1c2.5-0.6,7.5-2.1,17.1,0c-1.5-2.4-6-8.1-24.2-17
		c0.5-5.3,0.3-14.5-5.5-22.7c-2.5-3.6-5.6-6.4-9.2-8.5C513.1,304.1,527.8,331.5,532.3,349.9z M510.8,295.6
		C451.5,248,404,266.2,404,266.2C443,235.4,492,274.2,510.8,295.6z M478.2,286.9c-51.8-19.8-78.2,1.7-78.2,1.7s-26.5-21.5-78.2-1.7
		c10.5-8.8,38.8-28.3,78.2-10.6C439.5,258.6,467.8,278.1,478.2,286.9z M435.7,336.6c0,0-7.2-4.2-14.2-13.2c0,0,1.6-14.7,13.4-23.7
		c0,0-8.9,1.4-21.3,10.6c0,0,9.2-15,35.4-19.4c-0.1,0-0.2,0.1-0.2,0.1c-1.2,0.7-8.3,6-11.8,18.7
		C433.5,322.4,435.7,336.6,435.7,336.6z M473,305.4c0,0-11.3,5.1-15.1,17.5c0,0,14.1-1.8,20.4,0.4c0,0-20.9,0.9-38.7,13.4
		C439.5,336.6,446.5,309.2,473,305.4z M378.7,323.4c-0.2,0.3-0.3,0.5-0.5,0.8c0.3-0.6,0.4-0.9,0.4-0.9c-7.1,9-14.2,13.2-14.2,13.2
		s2.2-14.2-1.3-26.9s-10.5-18-11.8-18.7c26.1,4.5,35.3,19.4,35.3,19.4c-12.4-9.2-21.3-10.6-21.3-10.6
		C377,308.7,378.7,323.4,378.7,323.4z M327.2,305.4c26.4,3.9,33.4,31.3,33.4,31.3c-17.8-12.5-38.7-13.4-38.7-13.4
		c6.3-2.2,20.4-0.4,20.4-0.4C338.5,310.4,327.2,305.4,327.2,305.4z M396.2,266.1c0,0-47.5-18.2-106.9,29.4
		C308,274.2,357,235.4,396.2,266.1z M276.5,347.4c-4.3,0.2-8.8,2.5-8.8,2.5c4.6-18.2,19-45.3,44.6-55.8c-3.4,2.1-6.3,4.8-8.7,8.2
		c-5.8,8.2-5.9,17.3-5.5,22.7c-18.3,8.9-22.7,14.6-24.2,17c9.6-2.1,14.7-0.6,17.1,0c0.3,0.1,0.6,0.2,0.9,0.2
		c-5.8-0.5-10.5,1.4-10.5,1.4c4-0.4,5.9,0.3,5.9,0.3c-11.9,6-21.6,15.3-21.6,15.3C270.7,350.1,276.3,347.4,276.5,347.4z
		 M277.8,356.1c0,0-8.6,13.1-5.6,19.2c3,6.1,12.5,3,12.5,3s-13.6,10.6-17.7,5C262.8,377.6,266.8,365.9,277.8,356.1z M258.8,333
		c0-0.1,0.1-0.1,0.1-0.2c-1.7,9.9-10.9,73,35.4,74.5C248.2,406,257.1,343.5,258.8,333z M357.5,361.5c14.3,8.8,15.4,23.3,15.4,23.3
		c-3.4-6.1-12.2-21.2-38.3-21.5S296.2,375,296.2,375c10.4-11.8,18.5-13.6,25-14.7c-21.7-3.2-26.1-10.6-27.6-12.9
		c5.7,3.1,11.9,3.5,12.8,3.6c0.1,0,0.1,0,0.1,0c-0.5-0.8-1-1.4-1.5-2.1c-8.9-12.1-20.2-11.9-20.3-12c24.7-23.2,72.4,4.9,75.6,6.7
		c0.2-0.1,0.3-0.2,0.5-0.2c-0.2,0.2-0.4,0.3-0.4,0.3c10.4-3.2,20.6-15.8,20.6-15.8c-2.8,13.3-16.2,23.1-16.2,23.1
		c17.4-3.6,27.3,7.5,27.3,7.5C368.8,350.2,357.5,361.5,357.5,361.5z M400,307.9c-12.7-14.9-31.5-16.7-31.5-16.7
		c20.2-3.6,31.5,5.8,31.5,5.8s11.3-9.4,31.5-5.8C431.5,291.1,412.7,293,400,307.9z M504,375c0,0-12.4-12-38.5-11.7
		c-26.1,0.3-34.9,15.4-38.3,21.5c0,0,1.1-14.5,15.4-23.3c0,0-11.2-11.3-34.5-3c0,0,9.9-11.1,27.3-7.5c0,0-13.4-9.8-16.2-23.1
		c0,0,10.2,12.6,20.6,15.8c3.2-1.9,51-30,75.6-6.7c0,0-11.4-0.2-20.4,12.2c-0.4,0.5-0.9,1.1-1.3,1.8c0,0,0,0,0.1,0
		c0.7,0,7.1-0.5,12.8-3.6c-1.5,2.2-5.9,9.7-27.6,12.9C485.5,361.4,493.5,363.2,504,375z M505.8,407.3c46.3-1.5,37.1-64.5,35.4-74.5
		c0,0.1,0.1,0.1,0.1,0.2C543,343.4,551.8,406,505.8,407.3z"/>
	<path fill="#A72139" d="M493.8,351c-0.1,0.1-0.1,0.1-0.1,0.1C493.8,351.1,493.8,351,493.8,351z"/>
	<path fill="#A72139" d="M367.2,567.8c2.8,6.5,9.1,18.7,32.8,18.7c23.6,0,29.9-12.2,32.8-18.7c2.8-6.4,2.2-19.5,2.1-23.2
		c-9.8-6.3-23.9-7.8-28.5-7.7c-4.6,5.9-6.4,19.6-6.4,19.6s-1.9-13.7-6.4-19.6c-4.6-0.1-18.7,1.4-28.5,7.7
		C365,548.3,364.5,561.3,367.2,567.8z"/>
	<path fill="#A72139" d="M344.5,475c-6.3,0-11.3,5.9-12.3,9c0.6,26,20.8,40.9,20.8,40.9c-4.2-13.7,2.9-39.3,4.7-43.2
		C355.2,477.2,350.8,475,344.5,475z"/>
	<path fill="#A72139" d="M362.5,481.6c0,0,0.4,9.6,2.2,18.8l10.7-12.5C375.5,487.9,372.8,475.6,362.5,481.6z"/>
	<path fill="#A72139" d="M386.7,488.1c0.1-4.9-2.5-6.7-5.6-6.7c-2.3,0-4.8,2-5.1,6.3c-0.3,4.3,2.1,8.2,5,8.4
		C383.8,496.4,386.5,493.1,386.7,488.1z"/>
	<path fill="#A72139" d="M394.2,481.4c-9.7,0-7.7,14.5-1.4,14.8C401.2,496.1,402.5,482.3,394.2,481.4z"/>
	<path fill="#A72139" d="M348.8,597.7c-6.9-11.1-4-19.3-4.3-34.5c-0.3-15.3-6.1-24.4-6.1-24.4c2.6,9.1,0.8,20.3,0,34.1
		C337.7,586.7,344.2,594.2,348.8,597.7z"/>
	<path fill="#A72139" d="M350.3,568.5c0,0-2.5,20.2,3.8,29.6c6.3,9.4,12.8,4.9,14.5,0.8c1.7-4.1,3.5-9.6-1.7-12
		C361.8,584.4,350.8,577.2,350.3,568.5z"/>
	<path fill="#A72139" d="M418.5,596.6c-2.6-0.5-6.1-0.5-8.9,0.9c-2.5-0.5-6.9-0.9-9.3,0.1c-2.6-1-7-0.5-9.5-0.1
		c-2.8-1.4-6.3-1.4-8.9-0.9c-1.3-1.9-8.7-5.4-8.7-5.4c-0.3,5.6,0.9,10.7,3.6,11.1c2.7,0.3,4.1-1.2,4.8-2.9c0.5,3.4,2.3,6.1,5,6.1
		s4.6-5.1,4.6-5.1s0.2,5.3,4.1,5.3c3.9,0,4.9-4.4,4.9-4.4s1.1,4.4,4.9,4.4s4.1-5.3,4.1-5.3s1.9,5.1,4.6,5.1s4.5-2.7,5-6.1
		c0.7,1.7,2.1,3.2,4.8,2.9c2.7-0.3,3.9-5.5,3.6-11.1C427.2,591.2,419.8,594.7,418.5,596.6z"/>
	<path fill="#A72139" d="M455.5,475.1c-6.3,0-10.7,2.2-13.2,6.7c1.8,3.9,9,29.5,4.7,43.2c0,0,20.2-14.9,20.8-40.9
		C466.8,480.9,462,475.1,455.5,475.1z"/>
	<path fill="#A72139" d="M424.7,487.9l10.7,12.4c1.9-9.2,2.2-18.7,2.2-18.7C427.2,475.6,424.7,487.9,424.7,487.9z"/>
	<path fill="#A72139" d="M424.2,487.9c-0.3-4.3-2.8-6.3-5.1-6.3c-3.1,0-5.7,1.7-5.6,6.7c0.1,4.9,2.8,8.1,5.7,7.9
		C422,495.9,424.5,492.1,424.2,487.9z"/>
	<path fill="#A72139" d="M406,481.4c-8.4,0.9-7.1,14.7,1.4,14.8C413.7,495.9,415.8,481.4,406,481.4z"/>
	<path fill="#A72139" d="M461.7,572.8c-0.8-13.8-2.6-25.1,0-34.1c0,0-5.8,9.2-6.1,24.4c-0.3,15.3,2.6,23.4-4.3,34.5
		C455.8,594.2,462.5,586.7,461.7,572.8z"/>
	<path fill="#A72139" d="M431.5,598.9c1.7,4.1,8.3,8.7,14.5-0.8s3.8-29.6,3.8-29.6c-0.5,8.7-11.4,15.9-16.6,18.4
		C428,589.4,429.8,594.8,431.5,598.9z"/>
	<path fill="#A72139" d="M428,612.8c-10.9-0.2-10.8-1.5-27.9-1.5c-17.1,0-17.1,1.3-27.9,1.5c-10.9,0.2-31.8,3-38.2-23.9
		c-0.8,4.1-3.9,28.4,4.9,40.8c-1.1-6.8-0.9-10.8,0.5-14.2c1.4,6.1,4,12.4,8.1,17.1c4.1,4.7,8.6,7.3,12.7,9.9
		c4.1,2.6,17.4,9.9,20,13.6c-0.3-3.2-1-6-5.1-8.8c3.4,0.2,13.9,1.5,25.1,21.1c11.2-19.7,21.7-21,25.1-21.1c-4.2,2.8-4.8,5.6-5.1,8.8
		c2.6-3.7,15.9-11,20-13.6c4.1-2.6,8.6-5.2,12.7-9.9c4.1-4.7,6.7-11,8.1-17.1c1.4,3.4,1.6,7.4,0.5,14.2c8.8-12.4,5.7-36.8,4.9-40.8
		C459.8,615.8,438.8,613,428,612.8z"/>
	<path fill="#A72139" d="M468.3,351.2c-5.2,3-9.5-0.8-10.5-4.3c-3.8,2.8-6.4,6.1-6.4,6.1c6.6,3.8,14.8,5.2,21.1,1.1
		c6.2-4.1,8.3-14.2,8.7-17.6c-6.5,0.8-11.4,3.2-11.4,3.2C471.8,341.1,474.2,348.1,468.3,351.2z"/>
</g>
</svg>
