<svg version="1.1" xmlns="http://www.w3.org/2000/svg" xmlns:xlink="http://www.w3.org/1999/xlink" x="0px" y="0px"
	 viewBox="0 0 800 800" enable-background="new 0 0 800 800" xml:space="preserve">
<g>
	<path fill="#D9BB8F" d="M727.5,477.7c-3.7-108.8-46.7-164.7-49.1-208.9c-2.3-44.2,16.6-91.6,42.4-133
		C694.8,118.4,559,53.4,400,53.4s-294.8,65-320.9,82.4c25.9,41.4,44.7,88.8,42.4,133c-2.3,44.2-45.4,100.1-49.1,208.9
		s81.9,155.7,135.7,185.2S400,750,400,750s138-57.6,191.8-87.1S731.2,586.5,727.5,477.7z"/>
	<path fill="#4A080A" d="M657.5,274.6c-1.8-72.5,26-117.8,35.5-129.6c-22.8-14.1-177.5-91.6-293-91.6S129.8,130.9,107,145
		c9.5,11.7,37.3,57.1,35.5,129.6c-1.6,61.9-58.2,146.7-35.5,242.7s116.6,150.3,153.6,170.1C297.8,707.2,400,750,400,750
		s102.3-42.8,139.4-62.6S670.3,613.3,693,517.3C715.8,421.2,659.1,336.5,657.5,274.6z"/>
	<path fill="#D9BB8F" d="M670,416.4c-20.2-60.5-32.6-95.8-33.8-123.8c-1.2-27.9,3.9-98.5,22.1-140.1C623.8,127.3,499,73.8,400,73.8
		s-223.8,53.5-258.3,78.8c18.2,41.5,23.3,112.1,22.1,140.1c-1.2,27.9-13.6,63.2-33.8,123.8c-20.2,60.5-5.4,136.6,42.3,186.6
		s108,77.5,153,97.1S400,725,400,725s29.7-5.2,74.7-24.9S580,653,627.8,603C675.5,552.9,690.1,476.9,670,416.4z"/>
	<path fill="#A72139" d="M644.3,391.6c-18.2-52.4-20.6-80.3-18.2-123.4c2.3-43.1,14.7-80.3,32.2-115.6C524.5,59.5,437.5,50,400,50
		s-124.4,9.5-258.3,102.6c17.5,35.3,29.9,72.5,32.2,115.6s0,71-18.2,123.4s-24.1,89.2-9.3,134.2c14.7,45,68.1,133.5,253.6,204.8
		C585.5,659.2,639,570.8,653.6,525.8C668.5,480.8,662.6,443.9,644.3,391.6z"/>
</g>
<g>
	<g>
		<path fill="#4A080A" d="M630.5,490.9c-6.3-53.1-22.9-102-46.4-141.5c9.6-6,20.5-15.8,28.6-31.4c7.6-14.5,11.7-47.7-4.5-75.5
			c0,0-21.2,14.5-95.4,27.7c-30.8-21.8-65.5-32.4-112.5-32.4s-81.7,10.6-112.5,32.4c-74.3-13.2-95.4-27.7-95.4-27.7
			c-16.2,27.7-12.1,60.9-4.5,75.5c8.1,15.5,19,25.3,28.6,31.4c-23.5,39.5-40.1,88.4-46.4,141.5l12.6-19.2c0,0-7.4,67.1,32.6,109
			c0,0-3.5-15.1-3.3-26.6c11.6,13.8,38.3,41.1,71.5,56.1c-5.8-9.3-16.9-29.7-17.1-38.4c14.9,4,36.3,18.6,51.3,52.1
			c1.2-10.1,4.9-23.8,7.9-30.1c-0.5,9.7-1.4,39.1,26.3,60.4l-4.4-12.8c0,0,7.2,5.7,12.8,8.9c5.6,3.2,21,10.3,20.6,23.4
			c2.8-0.6,4.3-3,5.9-12c3.4,2.7,12.8,14.7,13.6,20.2c0.9-5.4,10.3-17.5,13.6-20.2c1.7,9.1,3.1,11.4,5.9,12
			c-0.4-13.1,15-20.2,20.6-23.4s12.8-8.9,12.8-8.9l-4.4,12.8c27.7-21.3,26.8-50.7,26.3-60.4c3,6.3,6.7,20,7.9,30.1
			c15-33.5,36.5-48.1,51.3-52.1c-0.1,8.7-11.3,29.1-17.1,38.4c33.2-15,59.9-42.4,71.5-56.1c0.2,11.4-3.3,26.6-3.3,26.6
			c40-41.9,32.6-109,32.6-109L630.5,490.9z"/>
		<path fill="#A72139" d="M206.1,282c-4.4,12-3.4,23.4-0.6,32.5c-17.5-24-14.5-48.5-11.9-61.8c44.9,19.2,75.3,23.6,84.7,24.6
			c-11,8.8-21.6,19.1-32.2,30.9c-4.8,5.4-9.5,11.1-14,17.1C207.9,308,206.1,282,206.1,282z"/>
		<path fill="#A72139" d="M606.5,252.7c2.6,13.3,5.5,37.9-11.9,61.8c2.7-9.1,3.8-20.4-0.6-32.5c0,0-1.8,25.9-26,43.2
			c-4.5-6-9.1-11.7-14-17.1c-10.6-11.8-21.2-22.1-32.2-30.9C531.2,276.3,561.5,271.9,606.5,252.7z"/>
	</g>
	<path fill="#A72139" d="M568,379.2c-9.4-33.3-26.3-62.7-45-75.1c7.5,3.4,16.1,8.4,19.2,10.6c-42.3-63.3-102.8-70.2-142.1-70.2
		s-99.8,6.9-142.1,70.2c3-2.2,11.6-7.2,19.2-10.6c-18.7,12.5-35.6,41.8-45,75.1C215.7,438.1,252,484.1,252,484.1s-20.1-41.4-16-80.4
		c4.1-39.8,14.1-57.2,23-70.9c-1.7,10-10.9,73.1,35.5,74.5c2.7-7.3,10.4-21.5,25.9-30.5c1.2,6,4,19.2,33.2,37.3
		c4.1-2.7,15-21-12.8-40.9c9.1,0.4,23.8,8.7,27.4,26.8c3,4,10.3,10.4,31.9,10.5c21.6-0.1,28.9-6.5,31.9-10.5
		c3.6-18.1,18.3-26.4,27.4-26.8c-27.8,19.9-16.9,38.1-12.8,40.9c29.2-18.1,32.1-31.3,33.2-37.3c15.5,9,23.3,23.3,25.9,30.5
		c46.4-1.4,37.2-64.5,35.5-74.5c8.9,13.8,18.9,31.1,23,70.9c4.1,39.1-16,80.4-16,80.4S584.5,438.1,568,379.2z"/>
	<path fill="#D9BB8F" d="M238.7,330.5c0,0-14.2,39.1-10.3,80.7s11.6,52.5,22,69.8c-1.8-14.7-2.1-32.8-0.6-47.2
		c1.9,8.9,10.7,57.4,36.9,91.2c-9.7-4.5-50.8-34.1-57.8-81.3c1,18.8,4.1,46.6,17.5,70.2c-6.8-9.5-28.5-47.7-24.1-100.3
		c-1.3,3.7-6.8,23-8.5,28.8c0.1-13.2,1.4-48.9,8.2-74.9c-3.5,8-22.8,53.4-14.5,116c2.3-6.5,7.2-22.1,8.5-25.6
		c0,8.1,0.3,61.8,36.7,118.2c-11.6-10.6-47.3-52-50.4-87.2c-3.9,9.6-6.8,29.4-4.5,39.6c0,0-15.1-47.3,3.5-102.6
		c0,0-14,17.1-17.1,25.5C184.2,451.6,203,370.3,238.7,330.5z"/>
	<path fill="#D9BB8F" d="M294.9,452.7c-7.2-22.3-2.6-39.7-0.3-46.1c-0.1,0.2-0.2,0.5-0.3,0.7c-46.2-1.3-37.2-64.1-35.5-74.4l0,0
		v-0.1l-0.7,0.8c-0.1,0.2-0.2,0.5-0.2,0.7c-9.5,29.4-13.1,74.7-13.1,74.7c8.4-28.8,13.6-35,13.6-35
		c-11.1,72.7,26.5,104.5,26.5,104.5c-24.4-37.4-17.3-81.9-17.3-81.9C271.3,431.4,294.9,452.7,294.9,452.7z"/>
	<path fill="#D9BB8F" d="M314.4,389.1c0,0,8.8,8.6,18.1,14.4s15,6.9,18.1,7.4s8.8,1.5,14.5,3.6s13.3,5.6,14.1,10
		c0.8,4.4-3.2,8.3-7.7,5.2c0,0,11.3,19,24.7,17.6c-1.2,4.4-2.7,9.7-4.8,13.8s-4.5,4.8-11.1,6.2s-35.7,5.9-68.8-5.8
		c0,0,25.5,1.8,35.2-0.8c0,0-30.9-3.6-40.3-11.1s-6.2-21-6.1-24.1c0,0,14.1,16.2,46.8,24.2c0,0-49.7-22.2-42.5-45.7
		c0,0,9.9,18.6,48.3,28.5C353.1,432.5,307.2,411.7,314.4,389.1z"/>
	<path fill="#4A080A" d="M277.8,356.1c0,0-8.6,13.1-5.6,19.2s12.5,3,12.5,3s-13.6,10.6-17.7,5C262.8,377.7,266.8,365.9,277.8,356.1z
		"/>
	<path fill="#4A080A" d="M265.8,359.2c0,0,9.7-9.3,21.6-15.3c0,0-1.9-0.7-5.9-0.3c0,0,16.1-6.3,25,7.4c0,0-6.8-0.3-12.9-3.6
		c1.5,2.3,5.9,9.7,27.6,12.9c-6.5,1.1-14.6,2.9-25,14.7c0,0,12.4-12,38.5-11.7s34.9,15.4,38.3,21.5c0,0-1.1-14.5-15.4-23.3
		c0,0,11.2-11.3,34.5-3c0,0-9.9-11.1-27.3-7.5c0,0,13.4-9.8,16.2-23.1c0,0-10.2,12.6-20.6,15.8c0,0,13.9-12.7,18.3-20.2
		c0,0-1.6-14.7-13.4-23.7c0,0,8.9,1.4,21.3,10.6c0,0-13.3-21.7-53.5-20.6c-38.7,1-59.6,37.5-65.3,60.1c0,0,4.5-2.3,8.8-2.5
		C276.3,347.4,270.6,350.1,265.8,359.2z"/>
	<path fill="#D9BB8F" d="M306.3,351c0,0-3.1-4.3-7.6-6.4c-4.6-2.1-5.3-1.9-7.7-2.6c-2.4-0.6-7.5-2.1-17.1,0c1.5-2.4,5.9-8.1,24.2-17
		c-0.4-5.4-0.3-14.5,5.5-22.7s14.1-12.2,26.5-13.6s19.9,1.6,21.1,2.3c1.3,0.7,8.3,6,11.8,18.7s1.3,26.9,1.3,26.9s7.1-4.2,14.2-13.2
		c0,0-5.6,14.1-18.3,20.2c-3.2-1.8-50.9-29.9-75.6-6.7C284.8,337,297.2,336.8,306.3,351z M360.5,336.7c0,0-7-27.4-33.4-31.3
		c0,0,11.4,5,15.1,17.5c0,0-14.1-1.8-20.4,0.4C321.8,323.3,342.8,324.2,360.5,336.7z"/>
	<path fill="#D9BB8F" d="M330.2,339.8c0,0-4.9-2.4-11.4-3.2c0.4,3.4,2.5,13.5,8.7,17.6c6.3,4.1,14.5,2.7,21.1-1.1
		c0,0-2.6-3.3-6.4-6.1c-1,3.5-5.3,7.3-10.5,4.3C325.9,348.2,328.3,341.1,330.2,339.8z"/>
	<path fill="#4A080A" d="M396.1,266.2c0,0-47.5-18.2-106.9,29.4C308,274.3,357,235.5,396.1,266.2z"/>
	<path fill="#D9BB8F" d="M561.3,330.5c0,0,14.2,39.1,10.3,80.7s-11.6,52.5-22,69.8c1.8-14.7,2.1-32.8,0.6-47.2
		c-1.9,8.9-10.7,57.4-36.9,91.2c9.7-4.5,50.8-34.1,57.8-81.3c-1,18.8-4.1,46.6-17.5,70.2c6.8-9.5,28.5-47.7,24.1-100.3
		c1.3,3.7,6.8,23,8.5,28.8c-0.1-13.2-1.4-48.9-8.2-74.9c3.5,8,22.8,53.4,14.5,116c-2.3-6.5-7.2-22.1-8.5-25.6
		c0,8.1-0.3,61.8-36.7,118.2c11.6-10.6,47.3-52,50.4-87.2c3.9,9.6,6.8,29.4,4.5,39.6c0,0,15.1-47.3-3.5-102.6c0,0,14,17.1,17.1,25.5
		C615.8,451.6,597,370.3,561.3,330.5z"/>
	<path fill="#D9BB8F" d="M505.1,452.7c7.2-22.3,2.6-39.7,0.3-46.1c0.1,0.2,0.2,0.5,0.3,0.7c46.2-1.3,37.2-64.1,35.5-74.4l0,0v-0.1
		l0.7,0.8c0.1,0.2,0.2,0.5,0.2,0.7c9.5,29.4,13.1,74.7,13.1,74.7c-8.4-28.8-13.6-35-13.6-35c11.1,72.7-26.5,104.5-26.5,104.5
		c24.4-37.4,17.3-81.9,17.3-81.9C528.8,431.4,505.1,452.7,505.1,452.7z"/>
	<path fill="#D9BB8F" d="M485.6,389.1c0,0-8.8,8.6-18.1,14.4s-15,6.9-18.1,7.4s-8.8,1.5-14.5,3.6s-13.3,5.6-14.1,10
		c-0.8,4.4,3.2,8.3,7.7,5.2c0,0-11.3,19-24.7,17.6c1.2,4.4,2.7,9.7,4.8,13.8s4.5,4.8,11.1,6.2s35.7,5.9,68.8-5.8
		c0,0-25.5,1.8-35.2-0.8c0,0,30.9-3.6,40.3-11.1s6.2-21,6.1-24.1c0,0-14.1,16.2-46.8,24.2c0,0,49.7-22.2,42.5-45.7
		c0,0-9.9,18.6-48.3,28.5C446.9,432.5,492.8,411.7,485.6,389.1z"/>
	<path fill="#A72139" d="M434.9,544.7c-9.8-6.3-23.9-7.8-28.5-7.7c-4.6,5.9-6.4,19.6-6.4,19.6s-1.9-13.7-6.4-19.6
		c-4.6-0.1-18.7,1.4-28.5,7.7c-0.1,3.7-0.7,16.7,2.1,23.2c2.8,6.5,9.1,18.7,32.8,18.7c23.6,0,29.9-12.2,32.8-18.7
		C435.6,561.5,435,548.4,434.9,544.7z"/>
	<g>
		<path fill="#D9BB8F" d="M353,525c-4.2-13.7,2.9-39.3,4.7-43.2c-2.5-4.5-6.9-6.7-13.2-6.7c-6.3,0-11.3,5.9-12.3,9
			C332.8,510.1,353,525,353,525z"/>
		<path fill="#D9BB8F" d="M375.4,487.9c0,0-2.6-12.3-12.9-6.3c0,0,0.4,9.6,2.2,18.8L375.4,487.9z"/>
		<path fill="#D9BB8F" d="M380.9,496.2c2.9,0.2,5.6-3,5.7-8c0.1-4.9-2.5-6.7-5.6-6.7c-2.3,0-4.8,2-5.1,6.3S378,496,380.9,496.2z"/>
		<path fill="#D9BB8F" d="M392.8,496.2c8.5-0.1,9.8-13.9,1.4-14.8C384.4,481.4,386.4,495.9,392.8,496.2z"/>
		<path fill="#D9BB8F" d="M348.8,597.7c-6.9-11.1-4-19.3-4.3-34.5c-0.3-15.3-6.1-24.4-6.1-24.4c2.6,9.1,0.8,20.3,0,34.1
			C337.6,586.7,344.2,594.3,348.8,597.7z"/>
		<path fill="#D9BB8F" d="M350.3,568.6c0,0-2.5,20.2,3.8,29.6s12.8,4.9,14.5,0.8c1.7-4.1,3.5-9.6-1.7-12
			C361.8,584.5,350.8,577.3,350.3,568.6z"/>
		<path fill="#D9BB8F" d="M390.8,597.6c-2.8-1.4-6.3-1.4-8.9-0.9c-1.3-1.9-8.7-5.4-8.7-5.4c-0.3,5.6,0.9,10.7,3.6,11.1
			c2.7,0.3,4.1-1.2,4.8-2.9c0.5,3.4,2.3,6.1,5,6.1s4.6-5.1,4.6-5.1s0.2,5.3,4.1,5.3s4.9-4.4,4.9-4.4s1.1,4.4,4.9,4.4
			s4.1-5.3,4.1-5.3s1.9,5.1,4.6,5.1s4.5-2.7,5-6.1c0.7,1.7,2.1,3.2,4.8,2.9c2.7-0.3,3.9-5.5,3.6-11.1c0,0-7.4,3.5-8.7,5.4
			c-2.6-0.5-6.1-0.5-8.9,0.9c-2.5-0.5-6.9-0.9-9.3,0.1C397.6,596.7,393.2,597.2,390.8,597.6z"/>
		<path fill="#D9BB8F" d="M447,525c0,0,20.2-14.9,20.8-40.9c-1-3.1-5.9-9-12.3-9c-6.3,0-10.7,2.2-13.2,6.7
			C444.1,485.7,451.3,511.3,447,525z"/>
		<path fill="#D9BB8F" d="M437.5,481.6c-10.3-5.9-12.9,6.3-12.9,6.3l10.7,12.4C437.2,491.1,437.5,481.6,437.5,481.6z"/>
		<path fill="#D9BB8F" d="M419.1,496.2c2.9-0.2,5.3-4,5-8.3s-2.8-6.3-5.1-6.3c-3.1,0-5.7,1.7-5.6,6.7
			C413.5,493.2,416.2,496.4,419.1,496.2z"/>
		<path fill="#D9BB8F" d="M407.3,496.2c6.3-0.3,8.4-14.8-1.4-14.8C397.5,482.3,398.8,496.1,407.3,496.2z"/>
		<path fill="#D9BB8F" d="M461.6,572.9c-0.8-13.8-2.6-25.1,0-34.1c0,0-5.8,9.2-6.1,24.4c-0.3,15.3,2.6,23.4-4.3,34.5
			C455.8,594.3,462.4,586.7,461.6,572.9z"/>
		<path fill="#D9BB8F" d="M433.1,587c-5.2,2.5-3.4,7.9-1.7,12c1.7,4.1,8.3,8.7,14.5-0.8s3.8-29.6,3.8-29.6
			C449.2,577.3,438.3,584.5,433.1,587z"/>
		<path fill="#D9BB8F" d="M427.9,612.9c-10.9-0.2-10.8-1.5-27.9-1.5s-17.1,1.3-27.9,1.5c-10.9,0.2-31.8,3-38.2-23.9
			c-0.8,4.1-3.9,28.4,4.9,40.8c-1.1-6.8-0.9-10.8,0.5-14.2c1.4,6.1,4,12.4,8.1,17.1s8.6,7.3,12.7,9.9c4.1,2.6,17.4,9.9,20,13.6
			c-0.3-3.2-1-6-5.1-8.8c3.4,0.2,13.9,1.5,25.1,21.1c11.2-19.7,21.7-21,25.1-21.1c-4.2,2.8-4.8,5.6-5.1,8.8c2.6-3.7,15.9-11,20-13.6
			s8.6-5.2,12.7-9.9s6.7-11,8.1-17.1c1.4,3.4,1.6,7.4,0.5,14.2c8.8-12.4,5.7-36.8,4.9-40.8C459.8,615.9,438.8,613.1,427.9,612.9z"/>
	</g>
	<path fill="#4A080A" d="M522.3,356.1c0,0,8.6,13.1,5.6,19.2s-12.5,3-12.5,3s13.6,10.6,17.7,5C537.3,377.7,533.2,365.9,522.3,356.1z
		"/>
	<path fill="#4A080A" d="M534.3,359.2c0,0-9.7-9.3-21.6-15.3c0,0,1.9-0.7,5.9-0.3c0,0-16.1-6.3-25,7.4c0,0,6.8-0.3,12.9-3.6
		c-1.5,2.3-5.9,9.7-27.6,12.9c6.5,1.1,14.6,2.9,25,14.7c0,0-12.4-12-38.5-11.7s-34.9,15.4-38.3,21.5c0,0,1.1-14.5,15.4-23.3
		c0,0-11.2-11.3-34.5-3c0,0,9.9-11.1,27.3-7.5c0,0-13.4-9.8-16.2-23.1c0,0,10.2,12.6,20.6,15.8c0,0-13.9-12.7-18.3-20.2
		c0,0,1.6-14.7,13.4-23.7c0,0-8.9,1.4-21.3,10.6c0,0,13.3-21.7,53.5-20.6c38.7,1,59.6,37.5,65.3,60.1c0,0-4.5-2.3-8.8-2.5
		C523.8,347.4,529.5,350.1,534.3,359.2z"/>
	<path fill="#D9BB8F" d="M515.3,337c-24.6-23.3-72.4,4.8-75.6,6.7c-12.7-6.1-18.3-20.2-18.3-20.2c7,9,14.2,13.2,14.2,13.2
		s-2.2-14.2,1.3-26.9c3.5-12.7,10.6-18,11.8-18.7c1.3-0.7,8.7-3.7,21.1-2.3c12.4,1.4,20.7,5.3,26.5,13.6c5.8,8.2,6,17.4,5.5,22.7
		c18.2,8.9,22.7,14.6,24.2,17c-9.6-2.1-14.6-0.6-17.1,0c-2.4,0.6-3.2,0.5-7.7,2.6c-4.6,2.1-7.6,6.4-7.6,6.4
		C502.8,336.8,515.3,337,515.3,337z M478.2,323.3c-6.3-2.2-20.4-0.4-20.4-0.4c3.8-12.4,15.1-17.5,15.1-17.5
		c-26.4,3.9-33.4,31.3-33.4,31.3C457.3,324.2,478.2,323.3,478.2,323.3z"/>
	<path fill="#D9BB8F" d="M469.8,339.8c0,0,4.9-2.4,11.4-3.2c-0.4,3.4-2.5,13.5-8.7,17.6c-6.3,4.1-14.5,2.7-21.1-1.1
		c0,0,2.6-3.3,6.4-6.1c1,3.5,5.3,7.3,10.5,4.3C474.1,348.2,471.8,341.1,469.8,339.8z"/>
	<path fill="#4A080A" d="M403.9,266.2c0,0,47.5-18.2,106.9,29.4C492,274.3,443,235.5,403.9,266.2z"/>
	<path fill="#4A080A" d="M400,276.3c-39.4-17.7-67.7,1.8-78.2,10.6c51.7-19.8,78.2,1.7,78.2,1.7s26.4-21.5,78.2-1.7
		C467.8,278.1,439.4,258.6,400,276.3z"/>
	<path fill="#4A080A" d="M400,297c0,0-11.3-9.4-31.5-5.8c0,0,18.8,1.8,31.5,16.7c12.6-14.9,31.5-16.7,31.5-16.7
		C411.3,287.6,400,297,400,297z"/>
</g>
<g>
	<path fill="#D9BB8F" d="M192.1,149.3l6.6,21.2c1,3.2,1.6,5.2,1.8,6.2c0.2,0.9,0.2,1.8-0.1,2.7c-0.3,0.9-0.9,1.6-1.7,2.2
		s-2.1,1.1-4,1.7l-4.1,1.3l-1.7-5.5c0.5-0.1,0.9-0.2,1.1-0.3c0.6-0.2,1-0.5,1.3-0.9c0.3-0.4,0.3-0.8,0.3-1.2
		c-0.1-0.4-0.3-1.3-0.7-2.5l-6.9-22.3L192.1,149.3z"/>
	<path fill="#D9BB8F" d="M212.6,142.7l8.7,32.1l-8.3,2.3l-8.7-32.1L212.6,142.7z"/>
	<path fill="#D9BB8F" d="M240.6,136.1l13.3,30.8l-9.4,1.9l-1.9-5.6l-3.3,0.7l0.9,5.8l-9.5,1.9l-3.4-32.8L240.6,136.1z M240.9,157.6
		c-1.4-3.5-3-7.9-4.8-13.1c0.6,6.3,1.1,10.9,1.6,13.7L240.9,157.6z"/>
	<path fill="#D9BB8F" d="M256,131.8l6.9-0.9c4.5-0.6,7.5-0.8,9.2-0.7c1.6,0.2,2.9,0.6,3.9,1.4c1,0.7,1.6,1.6,2,2.6
		c0.4,1,0.8,3.1,1.4,6.1l1.9,11.4c0.5,2.9,0.7,4.9,0.5,5.9s-0.5,1.9-1.2,2.5c-0.7,0.7-1.5,1.2-2.6,1.5c-1.1,0.4-2.7,0.7-4.9,1
		l-11.7,1.6L256,131.8z M266.2,136.1l3.6,21.3c1.3-0.2,2.1-0.5,2.3-1.1c0.2-0.5,0.2-1.9-0.2-4l-2.1-12.6c-0.2-1.5-0.5-2.4-0.6-2.8
		c-0.2-0.4-0.5-0.7-0.9-0.8C267.9,136,267.2,136,266.2,136.1z"/>
	<path fill="#D9BB8F" d="M298.5,124.6l3.8,33l-8.6,1l-3.8-33L298.5,124.6z"/>
	<path fill="#D9BB8F" d="M331,120.2l3.4,33.3l-8.1,0.7l-6.4-14.7l1.5,15.1l-7.8,0.7l-3.4-33.3l7.8-0.7l6.7,14.5l-1.5-15L331,120.2z"
		/>
	<path fill="#D9BB8F" d="M366.1,130.1l-9.5,0l0-3.1c0-1.9-0.1-3.1-0.3-3.6c-0.2-0.5-0.6-0.7-1.3-0.7c-0.6,0-1,0.2-1.2,0.6
		s-0.3,1.5-0.3,3.2l0.1,16.2c0,1.5,0.1,2.5,0.3,3c0.2,0.5,0.6,0.7,1.3,0.7c0.7,0,1.2-0.3,1.4-0.8c0.2-0.5,0.4-1.6,0.3-3.2l0-4
		l-1.9,0l0-5.1l11.1,0l0.2,18.1l-6,0l-0.9-2.4c-0.6,1-1.4,1.8-2.4,2.3c-1,0.5-2.1,0.8-3.5,0.8c-1.6,0-3.1-0.4-4.5-1.1
		c-1.4-0.7-2.5-1.6-3.2-2.7c-0.7-1.1-1.2-2.2-1.4-3.3c-0.2-1.2-0.3-2.9-0.3-5.2l-0.1-10c0-3.2,0.1-5.6,0.5-7c0.4-1.5,1.4-2.8,3.2-4
		s4.1-1.8,6.9-1.8c2.8,0,5.1,0.5,6.9,1.6c1.8,1.1,3,2.3,3.6,3.8c0.6,1.5,0.9,3.6,0.9,6.3L366.1,130.1z"/>
	<path fill="#D9BB8F" d="M414.9,116.3l0,34l-9.6,0l0-14.3l-2.9,0l0,14.3l-9.6,0l0-34l9.6,0l0,12.2l2.9,0l0-12.2L414.9,116.3z"/>
	<path fill="#D9BB8F" d="M448,117l-0.7,24c-0.1,2.7-0.2,4.6-0.4,5.7c-0.2,1.1-0.8,2.2-1.7,3.3c-0.9,1.1-2.1,2-3.5,2.5
		c-1.4,0.6-3.1,0.8-5.1,0.8c-2.1-0.1-4-0.5-5.6-1.2c-1.6-0.8-2.8-1.7-3.6-2.9c-0.8-1.2-1.2-2.4-1.3-3.6c-0.1-1.3-0.1-3.9,0-8
		l0.6-21.2l9.3,0.3l-0.7,26.9c0,1.6,0,2.6,0.2,3c0.2,0.4,0.5,0.7,1,0.7c0.6,0,1-0.2,1.2-0.7c0.2-0.5,0.3-1.6,0.3-3.4l0.7-26.4
		L448,117z"/>
	<path fill="#D9BB8F" d="M469.4,119.2l-2.7,34.6l-8.7-0.7l2.7-34.6L469.4,119.2z"/>
	<path fill="#D9BB8F" d="M506.7,124.2l-3.9,28l5.5,0.8l-1,7l-14.6-2.1l4.9-35L506.7,124.2z"/>
	<path fill="#D9BB8F" d="M541.1,150.7c-0.6,3.7-1.1,6.3-1.5,7.8c-0.4,1.5-1.2,2.8-2.3,4c-1.1,1.1-2.5,1.9-4.2,2.4
		c-1.7,0.4-3.5,0.5-5.6,0.2c-2-0.3-3.7-0.9-5.2-1.8c-1.5-0.9-2.6-2.1-3.3-3.5c-0.8-1.4-1.1-2.9-1-4.5c0.1-1.5,0.4-4.2,1-8l1-6.3
		c0.6-3.7,1.1-6.3,1.5-7.8c0.4-1.5,1.2-2.8,2.3-4c1.1-1.1,2.5-1.9,4.2-2.4s3.5-0.5,5.6-0.2c2,0.3,3.7,0.9,5.2,1.8
		c1.5,0.9,2.6,2.1,3.3,3.5c0.8,1.4,1.1,2.9,1,4.5c-0.1,1.5-0.4,4.2-1,8L541.1,150.7z M533.4,137c0.3-1.7,0.3-2.8,0.2-3.3
		c-0.1-0.5-0.5-0.8-1.1-0.9c-0.5-0.1-0.9,0.1-1.2,0.4s-0.6,1.5-0.9,3.4l-2.7,17.2c-0.3,2.1-0.5,3.5-0.4,4c0.1,0.5,0.5,0.8,1.1,0.9
		c0.7,0.1,1.1-0.1,1.4-0.7s0.6-1.9,0.9-4.1L533.4,137z"/>
	<path fill="#D9BB8F" d="M577.1,138.2l-8.7,35.6l-8.1-2l-0.9-17.4l-4,16.2l-7.7-1.9l8.7-35.6l7.7,1.9l1.3,17.3l3.9-16L577.1,138.2z"
		/>
	<path fill="#D9BB8F" d="M606.6,160.4l-9.5-2.7l1-3.3c0.6-2.1,0.9-3.4,0.9-4c0-0.6-0.4-1-1.1-1.2c-0.6-0.2-1.1-0.1-1.4,0.3
		c-0.3,0.4-0.8,1.5-1.3,3.4l-5,17.6c-0.5,1.6-0.7,2.8-0.6,3.3c0.1,0.6,0.4,1,1,1.1c0.7,0.2,1.2,0,1.7-0.5c0.4-0.5,0.9-1.6,1.4-3.3
		l1.2-4.3l-1.9-0.6l1.6-5.6l11.2,3.2l-5.6,19.7l-6-1.7l-0.1-2.9c-1,0.9-2,1.6-3.2,1.8c-1.2,0.3-2.4,0.2-3.7-0.2
		c-1.6-0.5-3-1.3-4.2-2.5c-1.2-1.2-2-2.4-2.4-3.8s-0.5-2.7-0.3-4c0.2-1.3,0.6-3.2,1.4-5.7l3.1-10.9c1-3.5,1.9-6,2.7-7.5
		s2.3-2.6,4.5-3.4c2.2-0.8,4.7-0.8,7.5,0c2.8,0.8,4.9,2,6.5,3.7c1.5,1.7,2.3,3.4,2.4,5.1c0.1,1.7-0.3,4.1-1.1,7.1L606.6,160.4z"/>
	<g>
		<path fill="#D9BB8F" d="M372.3,174h11.6v5.3h-4.7v5h4.2v5h-4.2v11.1h-6.8V174z"/>
		<path fill="#D9BB8F" d="M419.8,185.5H413v-4.6c0-1.3-0.1-2.2-0.2-2.5c-0.1-0.3-0.5-0.5-1-0.5c-0.6,0-0.9,0.2-1.1,0.6
			c-0.2,0.4-0.2,1.3-0.2,2.6v12.2c0,1.3,0.1,2.1,0.2,2.5c0.2,0.4,0.5,0.6,1,0.6c0.5,0,0.8-0.2,1-0.6c0.2-0.4,0.2-1.3,0.2-2.8v-3.3
			h6.8v1c0,2.7-0.2,4.7-0.6,5.8c-0.4,1.1-1.2,2.1-2.6,3c-1.3,0.9-2.9,1.3-4.9,1.3c-2,0-3.7-0.4-5-1.1c-1.3-0.7-2.2-1.7-2.6-3
			c-0.4-1.3-0.6-3.2-0.6-5.8v-7.7c0-1.9,0.1-3.3,0.2-4.3c0.1-0.9,0.5-1.9,1.2-2.7c0.6-0.9,1.5-1.6,2.7-2.1c1.1-0.5,2.5-0.8,3.9-0.8
			c2,0,3.7,0.4,5,1.2c1.3,0.8,2.2,1.8,2.6,2.9c0.4,1.2,0.6,3,0.6,5.4V185.5z"/>
	</g>
</g>
<g>
</g>
<g>
</g>
<g>
</g>
<g>
</g>
<g>
</g>
<g>
</g>
<g>
</g>
<g>
</g>
<g>
</g>
<g>
</g>
<g>
</g>
</svg>
