<?xml version="1.0" encoding="utf-8"?>
<!-- Created by @FCLOGO 2024-10-25 GMT+8 11:25:41 . https://fclogo.top/ -->
<!-- FOR PERSONAL USE ONLY NOT FOR COMMERCIAL USE -->
<svg version="1.1" xmlns="http://www.w3.org/2000/svg" xmlns:xlink="http://www.w3.org/1999/xlink" x="0px" y="0px"
	 viewBox="0 0 800 800" style="enable-background:new 0 0 800 800;" xml:space="preserve">
<path style="fill:#CCCCCC;" d="M348.22,774.3c-0.79,0-1.38-0.22-1.77-0.65c-0.39-0.44-0.53-1.03-0.41-1.79l0.25-1.65
	c0.12-0.75,0.45-1.35,0.98-1.78c0.53-0.44,1.19-0.65,1.98-0.65c0.76,0,1.33,0.2,1.72,0.6c0.39,0.4,0.55,0.94,0.47,1.62h-1.24
	c0.03-0.36-0.06-0.64-0.26-0.84s-0.5-0.3-0.89-0.3c-0.42,0-0.76,0.12-1.03,0.35s-0.43,0.56-0.5,0.99l-0.26,1.66
	c-0.07,0.44-0.01,0.77,0.19,1c0.19,0.23,0.5,0.35,0.92,0.35c0.39,0,0.72-0.1,0.98-0.3s0.44-0.48,0.52-0.85h1.24
	c-0.14,0.69-0.47,1.23-0.99,1.63C349.61,774.1,348.97,774.3,348.22,774.3z M352.8,774.19l1-6.29h1.19l-0.19,1.19
	c0.34-0.87,0.97-1.3,1.91-1.3c0.67,0,1.17,0.21,1.49,0.62c0.32,0.42,0.43,0.99,0.31,1.71l-0.07,0.42h-1.27l0.06-0.32
	c0.07-0.45,0.01-0.8-0.17-1.04c-0.18-0.24-0.48-0.36-0.88-0.36s-0.74,0.12-1.01,0.37c-0.27,0.24-0.43,0.59-0.5,1.03l-0.63,3.97
	L352.8,774.19L352.8,774.19z M361.91,774.3c-0.77,0-1.35-0.22-1.73-0.67s-0.51-1.04-0.4-1.77l0.25-1.65
	c0.08-0.49,0.26-0.92,0.52-1.28c0.26-0.37,0.6-0.65,1.01-0.85c0.41-0.2,0.87-0.3,1.38-0.3c0.77,0,1.35,0.22,1.73,0.67
	c0.39,0.45,0.52,1.04,0.39,1.77l-0.17,1.12h-3.85l-0.09,0.53c-0.15,0.95,0.22,1.43,1.11,1.43c0.72,0,1.17-0.25,1.37-0.74h1.22
	c-0.17,0.53-0.5,0.96-1.01,1.28C363.16,774.14,362.58,774.3,361.91,774.3z M361.23,770.22l-0.05,0.29l2.65-0.01l0.05-0.29
	c0.07-0.47,0.01-0.82-0.17-1.07c-0.18-0.25-0.49-0.37-0.92-0.37c-0.44,0-0.8,0.13-1.06,0.38
	C361.48,769.39,361.31,769.75,361.23,770.22z M368.33,774.3c-0.63,0-1.1-0.21-1.41-0.64c-0.31-0.42-0.4-1-0.27-1.73l0.27-1.77
	c0.11-0.73,0.39-1.31,0.84-1.74c0.44-0.43,0.98-0.64,1.61-0.64c0.47,0,0.83,0.12,1.09,0.35c0.26,0.24,0.39,0.56,0.38,0.96h0.02
	l0.17-1.2h1.24l-1,6.29h-1.22l0.19-1.2h-0.02c-0.12,0.41-0.35,0.73-0.69,0.97C369.2,774.18,368.8,774.3,368.33,774.3z
	 M368.93,773.23c0.39,0,0.72-0.12,0.98-0.36s0.43-0.57,0.5-1.01l0.25-1.65c0.07-0.43,0.01-0.76-0.18-1s-0.47-0.36-0.86-0.36
	c-0.4,0-0.72,0.12-0.98,0.35c-0.26,0.24-0.42,0.57-0.49,1.01l-0.25,1.65c-0.07,0.44-0.01,0.78,0.17,1.01
	C368.24,773.11,368.53,773.23,368.93,773.23z M376.35,774.19c-0.57,0-0.99-0.16-1.26-0.47c-0.27-0.31-0.36-0.75-0.27-1.32l0.54-3.39
	h-1.74l0.17-1.12h1.74l0.27-1.72h1.24l-0.27,1.72h2.47l-0.18,1.12h-2.46l-0.54,3.39c-0.08,0.44,0.1,0.66,0.53,0.66h1.72l-0.17,1.12
	h-1.79V774.19z M382.5,774.3c-0.77,0-1.35-0.22-1.73-0.67s-0.52-1.04-0.4-1.77l0.25-1.65c0.08-0.49,0.26-0.92,0.52-1.28
	c0.26-0.37,0.6-0.65,1.01-0.85c0.41-0.2,0.87-0.3,1.38-0.3c0.77,0,1.35,0.22,1.73,0.67c0.39,0.45,0.52,1.04,0.39,1.77l-0.17,1.12
	h-3.85l-0.09,0.53c-0.15,0.95,0.22,1.43,1.11,1.43c0.72,0,1.17-0.25,1.37-0.74h1.22c-0.17,0.53-0.5,0.96-1.01,1.28
	C383.76,774.14,383.18,774.3,382.5,774.3z M381.83,770.22l-0.05,0.29l2.65-0.01l0.05-0.29c0.07-0.47,0.01-0.82-0.17-1.07
	c-0.18-0.25-0.49-0.37-0.92-0.37c-0.44,0-0.8,0.13-1.06,0.38C382.08,769.39,381.91,769.75,381.83,770.22z M388.92,774.3
	c-0.63,0-1.1-0.21-1.4-0.64c-0.3-0.42-0.39-1-0.28-1.73l0.27-1.77c0.11-0.73,0.39-1.31,0.84-1.74c0.44-0.43,0.98-0.64,1.61-0.64
	c0.47,0,0.83,0.12,1.09,0.35c0.26,0.24,0.39,0.56,0.38,0.96h0.02l0.21-1.47l0.3-1.8h1.24l-1.33,8.35h-1.22l0.19-1.2h-0.02
	c-0.12,0.41-0.35,0.73-0.69,0.97C389.8,774.18,389.4,774.3,388.92,774.3z M389.53,773.23c0.39,0,0.72-0.12,0.98-0.36
	s0.43-0.57,0.5-1.01l0.25-1.65c0.08-0.43,0.02-0.76-0.17-1s-0.48-0.36-0.87-0.36c-0.4,0-0.72,0.12-0.98,0.35
	c-0.26,0.24-0.42,0.57-0.49,1.01l-0.25,1.65c-0.08,0.44-0.02,0.78,0.16,1.01C388.83,773.11,389.13,773.23,389.53,773.23z
	 M401.02,774.3c-0.47,0-0.84-0.12-1.1-0.35s-0.39-0.56-0.38-0.97h-0.01l-0.19,1.2h-1.22l1.33-8.35h1.24l-0.29,1.8l-0.27,1.47h0.05
	c0.12-0.41,0.35-0.73,0.69-0.97c0.34-0.23,0.74-0.35,1.21-0.35c0.63,0,1.1,0.21,1.4,0.64s0.39,1.01,0.28,1.74l-0.27,1.77
	c-0.11,0.73-0.39,1.31-0.84,1.73C402.18,774.09,401.64,774.3,401.02,774.3z M400.77,773.23c0.4,0,0.72-0.12,0.98-0.35
	s0.42-0.57,0.5-1.01l0.25-1.65c0.07-0.43,0.01-0.77-0.17-1.01c-0.18-0.24-0.47-0.35-0.87-0.35c-0.39,0-0.72,0.12-0.98,0.36
	s-0.43,0.57-0.5,1l-0.25,1.65c-0.07,0.44-0.01,0.77,0.17,1.01C400.08,773.11,400.37,773.23,400.77,773.23z M405.47,776.25l0.17-1.06
	h1.93c0.64,0,1.01-0.3,1.1-0.9l0.1-0.67l0.21-1.19h-0.03c-0.12,0.42-0.35,0.74-0.68,0.97s-0.73,0.34-1.2,0.34
	c-0.63,0-1.09-0.2-1.4-0.6c-0.31-0.4-0.41-0.94-0.3-1.63l0.58-3.6h1.24l-0.56,3.48c-0.06,0.41,0,0.73,0.18,0.96
	c0.18,0.23,0.47,0.34,0.85,0.34c0.39,0,0.72-0.12,0.98-0.37c0.27-0.24,0.43-0.58,0.49-1.02l0.54-3.4h1.24l-1.01,6.41
	c-0.1,0.6-0.37,1.08-0.81,1.42c-0.44,0.35-1,0.52-1.67,0.52H405.47z M417.79,770.09h3.22l0.54-1.85h-5.47l-1.71,6.44h2.15l0.59-2.1
	h3.03l0.44-1.71h-3.03L417.79,770.09z M424.23,772.92c-0.59,0-1.02-0.39-1.02-1.12c0-0.88,0.63-1.76,1.61-1.76
	c0.49,0,0.88,0.24,1.02,0.78l1.95-0.83c-0.29-1.17-1.27-1.9-2.64-1.9c-2.78,0-4.15,2.15-4.15,3.9c0,1.76,1.27,2.83,3.07,2.83
	c1.37,0,2.34-0.59,2.98-1.42l-1.51-1.17C425.16,772.67,424.72,772.92,424.23,772.92z M430.91,768.23h-2.15l-1.76,6.44h5.12
	l0.49-1.85h-2.93L430.91,768.23z M439.75,771.01c0-1.66-1.32-2.93-3.22-2.93c-2.2,0-3.81,1.81-3.81,3.81c0,1.66,1.32,2.93,3.22,2.93
	C438.14,774.82,439.75,773.01,439.75,771.01z M434.92,771.7c0-0.83,0.59-1.71,1.51-1.71c0.78,0,1.17,0.54,1.17,1.22
	c0,0.83-0.59,1.71-1.51,1.71C435.31,772.92,434.92,772.38,434.92,771.7z M443.21,772.23h1.07l-0.2,0.68
	c-0.15,0.05-0.34,0.1-0.59,0.1c-0.68,0-1.27-0.39-1.27-1.22c0-1.02,0.73-1.9,1.95-1.9c0.59,0,1.12,0.24,1.51,0.59l1.37-1.37
	c-0.44-0.54-1.51-1.07-2.73-1.07c-2.59,0-4.29,1.76-4.29,3.86c0,2.05,1.61,2.88,3.22,2.88c0.93,0,1.85-0.29,2.49-0.68l0.93-3.32
	h-3.12L443.21,772.23z M450.78,768.08c-2.2,0-3.81,1.81-3.81,3.81c0,1.66,1.32,2.93,3.22,2.93c2.2,0,3.81-1.81,3.81-3.81
	C454,769.35,452.68,768.08,450.78,768.08z M450.34,772.92c-0.78,0-1.17-0.54-1.17-1.22c0-0.83,0.59-1.71,1.51-1.71
	c0.78,0,1.17,0.54,1.17,1.22C451.85,772.04,451.27,772.92,450.34,772.92z M437.94,767.5c-0.05,0.29,0.1,0.49,0.44,0.49
	s0.54-0.2,0.63-0.49c0.05-0.24-0.1-0.49-0.44-0.49C438.24,767.01,437.99,767.25,437.94,767.5z M432.13,765.5
	c-0.44,0-0.73,0.24-0.78,0.59c-0.05,0.34,0.1,0.59,0.54,0.59s0.73-0.24,0.78-0.59C432.77,765.74,432.57,765.5,432.13,765.5z
	 M433.01,767.3c-0.1,0.54,0.15,0.88,0.83,0.88c0.63,0,1.07-0.39,1.17-0.88s-0.15-0.88-0.83-0.88
	C433.5,766.43,433.11,766.82,433.01,767.3z M439.6,777.55l-2.44-1.81h-1.51l4.25,3.17l1.61-3.17h-0.98L439.6,777.55z M425.84,767.16
	l-2-1.46l23.13-2.78l-2.15,4.25h1.02l2.68-5.32l-26.99,3.22l2.78,2.1L425.84,767.16L425.84,767.16z M338.72,785.79l0.61-3.83h2.32
	l-0.08,0.52h-1.76l-0.18,1.14h1.63l-0.08,0.52h-1.62l-0.26,1.64L338.72,785.79L338.72,785.79z M342.97,785.84
	c-0.36,0-0.62-0.1-0.8-0.3c-0.17-0.2-0.23-0.47-0.18-0.82l0.27-1.7c0.06-0.34,0.2-0.61,0.44-0.82c0.24-0.2,0.54-0.3,0.89-0.3
	c0.36,0,0.62,0.1,0.8,0.3c0.17,0.2,0.24,0.47,0.18,0.81l-0.27,1.71c-0.06,0.34-0.2,0.62-0.44,0.82
	C343.63,785.74,343.33,785.84,342.97,785.84z M343.05,785.33c0.19,0,0.35-0.05,0.47-0.16s0.19-0.26,0.23-0.46l0.27-1.7
	c0.03-0.2,0.01-0.35-0.08-0.46c-0.08-0.11-0.22-0.16-0.41-0.16s-0.35,0.05-0.46,0.16c-0.12,0.1-0.19,0.26-0.22,0.46l-0.27,1.7
	c-0.03,0.2-0.01,0.35,0.08,0.46C342.72,785.28,342.86,785.33,343.05,785.33z M345,785.79l0.61-3.83h1.2c0.24,0,0.44,0.05,0.6,0.14
	s0.28,0.22,0.36,0.39c0.07,0.17,0.09,0.37,0.05,0.59c-0.04,0.26-0.14,0.48-0.3,0.67c-0.16,0.19-0.37,0.32-0.6,0.39l0.54,1.64h-0.62
	l-0.48-1.57h-0.54l-0.25,1.57L345,785.79L345,785.79z M345.89,783.71h0.64c0.19,0,0.35-0.06,0.48-0.17s0.21-0.26,0.24-0.45
	s0-0.35-0.09-0.46c-0.09-0.11-0.24-0.17-0.43-0.17h-0.64L345.89,783.71z M349.54,785.79l0.61-3.83h1.25c0.37,0,0.65,0.1,0.84,0.31
	s0.26,0.49,0.2,0.84c-0.04,0.23-0.12,0.44-0.25,0.61s-0.29,0.31-0.49,0.4c-0.2,0.09-0.42,0.14-0.66,0.14h-0.69l-0.24,1.52
	L349.54,785.79L349.54,785.79z M350.43,783.75h0.69c0.19,0,0.36-0.06,0.49-0.18c0.14-0.12,0.22-0.27,0.25-0.47
	c0.03-0.2,0-0.35-0.1-0.47s-0.25-0.18-0.44-0.18h-0.69L350.43,783.75z M352.75,785.79l0.61-3.83h2.25l-0.08,0.5h-1.7l-0.17,1.09
	h1.51l-0.08,0.5h-1.51l-0.19,1.24h1.69l-0.08,0.5H352.75z M355.84,785.79l0.61-3.83h1.2c0.24,0,0.44,0.05,0.6,0.14
	s0.28,0.22,0.36,0.39c0.07,0.17,0.09,0.37,0.05,0.59c-0.04,0.26-0.14,0.48-0.3,0.67c-0.16,0.19-0.37,0.32-0.6,0.39l0.54,1.64h-0.62
	l-0.48-1.57h-0.54l-0.25,1.57L355.84,785.79L355.84,785.79z M356.74,783.71h0.64c0.19,0,0.35-0.06,0.48-0.17s0.21-0.26,0.24-0.45
	s0-0.35-0.09-0.46c-0.09-0.11-0.24-0.17-0.43-0.17h-0.64L356.74,783.71z M360.13,785.84c-0.39,0-0.67-0.1-0.87-0.29
	c-0.19-0.19-0.26-0.45-0.22-0.78h0.57c-0.03,0.17,0.01,0.31,0.12,0.41s0.27,0.15,0.48,0.15c0.2,0,0.37-0.05,0.5-0.15
	c0.13-0.1,0.21-0.23,0.24-0.4c0.02-0.15,0-0.28-0.06-0.39s-0.16-0.18-0.29-0.22l-0.46-0.14c-0.27-0.08-0.46-0.22-0.59-0.41
	s-0.17-0.42-0.13-0.68c0.04-0.21,0.11-0.39,0.23-0.55c0.12-0.16,0.27-0.28,0.46-0.37c0.19-0.09,0.4-0.13,0.64-0.13
	c0.35,0,0.62,0.1,0.8,0.29s0.25,0.44,0.2,0.76h-0.57c0.03-0.17,0-0.3-0.09-0.4c-0.09-0.1-0.23-0.14-0.42-0.14s-0.34,0.04-0.46,0.13
	s-0.19,0.21-0.21,0.38c-0.02,0.15-0.01,0.28,0.05,0.39s0.16,0.18,0.29,0.22l0.47,0.15c0.26,0.08,0.46,0.22,0.58,0.41
	s0.17,0.42,0.12,0.69c-0.04,0.22-0.12,0.41-0.24,0.57c-0.13,0.16-0.29,0.29-0.49,0.38C360.6,785.79,360.38,785.84,360.13,785.84z
	 M363.27,785.84c-0.36,0-0.62-0.1-0.8-0.3c-0.17-0.2-0.23-0.47-0.18-0.82l0.27-1.7c0.06-0.34,0.2-0.61,0.44-0.82
	c0.24-0.2,0.54-0.3,0.89-0.3c0.36,0,0.62,0.1,0.8,0.3c0.17,0.2,0.24,0.47,0.18,0.81l-0.27,1.71c-0.06,0.34-0.2,0.62-0.44,0.82
	C363.92,785.74,363.62,785.84,363.27,785.84z M363.34,785.33c0.19,0,0.35-0.05,0.47-0.16s0.19-0.26,0.23-0.46l0.27-1.7
	c0.03-0.2,0.01-0.35-0.08-0.46c-0.08-0.11-0.22-0.16-0.41-0.16s-0.35,0.05-0.46,0.16c-0.12,0.1-0.19,0.26-0.22,0.46l-0.27,1.7
	c-0.03,0.2-0.01,0.35,0.08,0.46C363.02,785.28,363.15,785.33,363.34,785.33z M365.28,785.79l0.61-3.83h0.71l0.62,3.19
	c0.01-0.1,0.02-0.22,0.03-0.36s0.03-0.29,0.04-0.44c0.02-0.15,0.04-0.29,0.06-0.41l0.31-1.98h0.52l-0.61,3.83h-0.71l-0.61-3.19
	c-0.01,0.09-0.02,0.21-0.03,0.34s-0.03,0.28-0.04,0.42c-0.02,0.15-0.04,0.28-0.06,0.41l-0.31,2.01L365.28,785.79L365.28,785.79z
	 M368.23,785.79l1.59-3.83h0.75l0.37,3.83h-0.56l-0.07-0.97h-1.09l-0.39,0.97H368.23z M369.39,784.34h0.87l-0.09-1.1
	c-0.02-0.2-0.03-0.37-0.04-0.51s-0.01-0.24-0.01-0.3c-0.02,0.06-0.05,0.16-0.1,0.3c-0.05,0.14-0.11,0.31-0.19,0.5L369.39,784.34z
	 M371.72,785.79l0.61-3.83h0.57l-0.52,3.31h1.67l-0.08,0.52H371.72z M376.68,785.84c-0.37,0-0.63-0.1-0.8-0.3
	c-0.17-0.2-0.22-0.48-0.17-0.82l0.44-2.76h0.57l-0.44,2.76c-0.03,0.2-0.01,0.35,0.07,0.46c0.08,0.11,0.21,0.17,0.41,0.17
	c0.19,0,0.35-0.06,0.46-0.17c0.12-0.11,0.19-0.27,0.22-0.46l0.44-2.76h0.57l-0.44,2.76c-0.06,0.35-0.2,0.62-0.43,0.82
	C377.35,785.74,377.05,785.84,376.68,785.84z M379.84,785.84c-0.39,0-0.67-0.1-0.87-0.29c-0.19-0.19-0.26-0.45-0.22-0.78h0.57
	c-0.03,0.17,0.01,0.31,0.12,0.41s0.27,0.15,0.48,0.15c0.2,0,0.37-0.05,0.5-0.15c0.13-0.1,0.21-0.23,0.24-0.4
	c0.02-0.15,0-0.28-0.06-0.39s-0.16-0.18-0.29-0.22l-0.46-0.14c-0.27-0.08-0.46-0.22-0.59-0.41s-0.17-0.42-0.13-0.68
	c0.04-0.21,0.11-0.39,0.23-0.55s0.27-0.28,0.46-0.37c0.19-0.09,0.4-0.13,0.64-0.13c0.35,0,0.62,0.1,0.8,0.29s0.25,0.44,0.2,0.76
	h-0.57c0.03-0.17,0-0.3-0.09-0.4c-0.09-0.1-0.23-0.14-0.42-0.14s-0.34,0.04-0.46,0.13s-0.19,0.21-0.21,0.38
	c-0.02,0.15-0.01,0.28,0.05,0.39s0.16,0.18,0.29,0.22l0.47,0.15c0.26,0.08,0.46,0.22,0.58,0.41s0.17,0.42,0.12,0.69
	c-0.04,0.22-0.12,0.41-0.24,0.57c-0.13,0.16-0.29,0.29-0.49,0.38C380.31,785.79,380.09,785.84,379.84,785.84z M381.91,785.79
	l0.61-3.83h2.25l-0.08,0.5h-1.7l-0.17,1.09h1.51l-0.08,0.5h-1.51l-0.19,1.24h1.69l-0.08,0.5H381.91z M386.94,785.84
	c-0.36,0-0.62-0.1-0.8-0.3c-0.17-0.2-0.23-0.47-0.18-0.82l0.27-1.7c0.06-0.34,0.2-0.61,0.44-0.82c0.24-0.2,0.54-0.3,0.89-0.3
	c0.36,0,0.62,0.1,0.8,0.3c0.17,0.2,0.24,0.47,0.18,0.81l-0.27,1.71c-0.06,0.34-0.2,0.62-0.44,0.82
	C387.6,785.74,387.3,785.84,386.94,785.84z M387.02,785.33c0.19,0,0.35-0.05,0.47-0.16s0.19-0.26,0.23-0.46l0.27-1.7
	c0.03-0.2,0.01-0.35-0.08-0.46c-0.08-0.11-0.22-0.16-0.41-0.16s-0.35,0.05-0.46,0.16c-0.12,0.1-0.19,0.26-0.22,0.46l-0.27,1.7
	c-0.03,0.2-0.01,0.35,0.08,0.46C386.7,785.28,386.83,785.33,387.02,785.33z M388.95,785.79l0.61-3.83h0.71l0.62,3.19
	c0.01-0.1,0.02-0.22,0.03-0.36s0.03-0.29,0.04-0.44c0.02-0.15,0.04-0.29,0.06-0.41l0.31-1.98h0.52l-0.61,3.83h-0.71l-0.61-3.19
	c-0.01,0.09-0.02,0.21-0.03,0.34s-0.03,0.28-0.04,0.42c-0.02,0.15-0.04,0.28-0.06,0.41l-0.31,2.01L388.95,785.79L388.95,785.79z
	 M392.25,785.79l0.61-3.83h0.57l-0.52,3.31h1.67l-0.08,0.52H392.25z M396.12,785.79l0.22-1.41l-0.75-2.42h0.58l0.45,1.45
	c0.03,0.09,0.05,0.18,0.07,0.27c0.02,0.08,0.03,0.15,0.03,0.19c0.02-0.04,0.05-0.1,0.09-0.19c0.04-0.08,0.09-0.17,0.14-0.27
	l0.9-1.45h0.6l-1.53,2.42l-0.22,1.41H396.12z M399.22,785.79l0.61-3.83h0.71l0.62,3.19c0.01-0.1,0.02-0.22,0.03-0.36
	s0.03-0.29,0.04-0.44c0.02-0.15,0.04-0.29,0.06-0.41l0.31-1.98h0.52l-0.61,3.83h-0.71l-0.61-3.19c-0.01,0.09-0.02,0.21-0.03,0.34
	s-0.03,0.28-0.04,0.42c-0.02,0.15-0.04,0.28-0.06,0.41l-0.31,2.01L399.22,785.79L399.22,785.79z M403.51,785.84
	c-0.36,0-0.62-0.1-0.8-0.3s-0.23-0.47-0.18-0.82l0.27-1.7c0.06-0.34,0.2-0.61,0.44-0.82c0.24-0.2,0.54-0.3,0.89-0.3
	c0.36,0,0.62,0.1,0.8,0.3c0.17,0.2,0.24,0.47,0.18,0.81l-0.27,1.71c-0.06,0.34-0.2,0.62-0.44,0.82
	C404.16,785.74,403.86,785.84,403.51,785.84z M403.58,785.33c0.19,0,0.35-0.05,0.47-0.16s0.19-0.26,0.23-0.46l0.27-1.7
	c0.03-0.2,0.01-0.35-0.08-0.46c-0.08-0.11-0.22-0.16-0.41-0.16s-0.35,0.05-0.46,0.16c-0.12,0.1-0.19,0.26-0.22,0.46l-0.27,1.7
	c-0.03,0.2-0.01,0.35,0.08,0.46C403.26,785.28,403.4,785.33,403.58,785.33z M406.38,785.79l0.52-3.31h-1.02l0.08-0.52h2.62
	l-0.08,0.52h-1.03l-0.52,3.31H406.38z M409.52,785.79l0.61-3.83h2.32l-0.08,0.52h-1.76l-0.18,1.14h1.63l-0.08,0.52h-1.62l-0.26,1.64
	L409.52,785.79L409.52,785.79z M413.77,785.84c-0.36,0-0.62-0.1-0.8-0.3s-0.23-0.47-0.18-0.82l0.27-1.7
	c0.06-0.34,0.2-0.61,0.44-0.82c0.24-0.2,0.54-0.3,0.89-0.3c0.36,0,0.62,0.1,0.8,0.3c0.17,0.2,0.24,0.47,0.18,0.81l-0.27,1.71
	c-0.06,0.34-0.2,0.62-0.44,0.82C414.42,785.74,414.13,785.84,413.77,785.84z M413.85,785.33c0.19,0,0.35-0.05,0.47-0.16
	s0.19-0.26,0.23-0.46l0.27-1.7c0.03-0.2,0.01-0.35-0.08-0.46c-0.08-0.11-0.22-0.16-0.41-0.16s-0.35,0.05-0.46,0.16
	c-0.12,0.1-0.19,0.26-0.22,0.46l-0.27,1.7c-0.03,0.2-0.01,0.35,0.08,0.46C413.52,785.28,413.66,785.33,413.85,785.33z M415.8,785.79
	l0.61-3.83h1.2c0.24,0,0.44,0.05,0.6,0.14s0.28,0.22,0.36,0.39c0.07,0.17,0.09,0.37,0.05,0.59c-0.04,0.26-0.14,0.48-0.3,0.67
	c-0.16,0.19-0.37,0.32-0.6,0.39l0.54,1.64h-0.62l-0.48-1.57h-0.54l-0.25,1.57L415.8,785.79L415.8,785.79z M416.69,783.71h0.64
	c0.19,0,0.35-0.06,0.48-0.17s0.21-0.26,0.24-0.45s0-0.35-0.09-0.46c-0.09-0.11-0.24-0.17-0.43-0.17h-0.64L416.69,783.71z
	 M420.91,785.84c-0.36,0-0.63-0.1-0.81-0.3s-0.24-0.47-0.19-0.82l0.27-1.7c0.06-0.35,0.21-0.62,0.45-0.82s0.55-0.3,0.91-0.3
	c0.36,0,0.63,0.1,0.81,0.3s0.24,0.47,0.19,0.82h-0.57c0.03-0.2,0-0.35-0.09-0.46c-0.09-0.11-0.23-0.16-0.42-0.16
	s-0.35,0.05-0.48,0.16c-0.12,0.1-0.2,0.26-0.23,0.45l-0.27,1.71c-0.03,0.2,0,0.35,0.09,0.46c0.09,0.11,0.23,0.16,0.42,0.16
	s0.35-0.05,0.47-0.16s0.2-0.26,0.23-0.46h0.57c-0.03,0.23-0.11,0.43-0.24,0.59c-0.12,0.17-0.28,0.3-0.47,0.39
	C421.36,785.79,421.14,785.84,420.91,785.84z M424.03,785.84c-0.36,0-0.62-0.1-0.8-0.3s-0.23-0.47-0.18-0.82l0.27-1.7
	c0.06-0.34,0.2-0.61,0.44-0.82c0.24-0.2,0.54-0.3,0.89-0.3c0.36,0,0.62,0.1,0.8,0.3c0.17,0.2,0.24,0.47,0.18,0.81l-0.27,1.71
	c-0.06,0.34-0.2,0.62-0.44,0.82C424.69,785.74,424.39,785.84,424.03,785.84z M424.11,785.33c0.19,0,0.35-0.05,0.47-0.16
	s0.19-0.26,0.23-0.46l0.27-1.7c0.03-0.2,0.01-0.35-0.08-0.46c-0.08-0.11-0.22-0.16-0.41-0.16s-0.35,0.05-0.46,0.16
	c-0.12,0.1-0.19,0.26-0.22,0.46l-0.27,1.7c-0.03,0.2-0.01,0.35,0.08,0.46C423.79,785.28,423.92,785.33,424.11,785.33z
	 M425.97,785.79l0.61-3.83h0.69l0.18,1.23c0.02,0.12,0.04,0.23,0.05,0.33c0.01,0.1,0.02,0.18,0.03,0.24
	c0.02-0.06,0.05-0.14,0.09-0.24c0.04-0.11,0.09-0.22,0.15-0.34l0.57-1.22h0.71l-0.61,3.83h-0.54l0.2-1.29
	c0.02-0.17,0.06-0.35,0.1-0.55s0.09-0.4,0.14-0.61c0.05-0.2,0.1-0.4,0.14-0.59c0.05-0.19,0.09-0.35,0.13-0.49l-0.86,1.86h-0.55
	l-0.28-1.86c0,0.14-0.01,0.29-0.02,0.47c-0.01,0.18-0.02,0.37-0.04,0.57c-0.02,0.2-0.04,0.41-0.06,0.61s-0.05,0.4-0.08,0.57
	l-0.2,1.29h-0.55V785.79z M429.11,785.79l0.61-3.83h0.69l0.18,1.23c0.02,0.12,0.04,0.23,0.05,0.33c0.01,0.1,0.02,0.18,0.03,0.24
	c0.02-0.06,0.05-0.14,0.09-0.24c0.04-0.11,0.09-0.22,0.15-0.34l0.57-1.22h0.71l-0.61,3.83h-0.54l0.2-1.29
	c0.02-0.17,0.06-0.35,0.1-0.55s0.09-0.4,0.14-0.61c0.05-0.2,0.1-0.4,0.14-0.59c0.05-0.19,0.09-0.35,0.13-0.49l-0.86,1.86h-0.55
	l-0.28-1.86c0,0.14-0.01,0.29-0.02,0.47c-0.01,0.18-0.02,0.37-0.04,0.57c-0.02,0.2-0.04,0.41-0.06,0.61s-0.05,0.4-0.08,0.57
	l-0.2,1.29h-0.55V785.79z M432.41,785.79l0.61-3.83h2.25l-0.08,0.5h-1.7l-0.17,1.09h1.51l-0.08,0.5h-1.51l-0.19,1.24h1.69l-0.08,0.5
	H432.41z M435.51,785.79l0.61-3.83h1.2c0.24,0,0.44,0.05,0.6,0.14s0.28,0.22,0.36,0.39c0.07,0.17,0.09,0.37,0.05,0.59
	c-0.04,0.26-0.14,0.48-0.3,0.67c-0.16,0.19-0.37,0.32-0.6,0.39l0.54,1.64h-0.62l-0.48-1.57h-0.54l-0.25,1.57L435.51,785.79
	L435.51,785.79z M436.4,783.71h0.64c0.19,0,0.35-0.06,0.48-0.17s0.21-0.26,0.24-0.45s0-0.35-0.09-0.46
	c-0.09-0.11-0.24-0.17-0.43-0.17h-0.64L436.4,783.71z M439.8,785.84c-0.36,0-0.63-0.1-0.81-0.3s-0.24-0.47-0.19-0.82l0.27-1.7
	c0.06-0.35,0.21-0.62,0.45-0.82s0.55-0.3,0.91-0.3c0.36,0,0.63,0.1,0.81,0.3s0.24,0.47,0.19,0.82h-0.57c0.03-0.2,0-0.35-0.09-0.46
	c-0.09-0.11-0.23-0.16-0.42-0.16s-0.35,0.05-0.47,0.16c-0.12,0.1-0.2,0.26-0.23,0.45l-0.27,1.71c-0.03,0.2,0,0.35,0.09,0.46
	c0.09,0.11,0.23,0.16,0.42,0.16s0.35-0.05,0.47-0.16s0.2-0.26,0.23-0.46h0.57c-0.03,0.23-0.11,0.43-0.24,0.59
	c-0.12,0.17-0.28,0.3-0.47,0.39C440.25,785.79,440.04,785.84,439.8,785.84z M441.88,785.79l0.08-0.5h0.78l0.45-2.82h-0.78l0.08-0.5
	h2.13l-0.08,0.5h-0.78l-0.45,2.82h0.78l-0.08,0.5H441.88z M444.74,785.79l1.59-3.83h0.75l0.37,3.83h-0.56l-0.07-0.97h-1.09
	l-0.39,0.97H444.74z M445.9,784.34h0.87l-0.09-1.1c-0.02-0.2-0.03-0.37-0.04-0.51s-0.01-0.24-0.01-0.3c-0.02,0.06-0.05,0.16-0.1,0.3
	c-0.05,0.14-0.11,0.31-0.19,0.5L445.9,784.34z M448.24,785.79l0.61-3.83h0.57l-0.52,3.31h1.67l-0.08,0.52H448.24z M453.19,785.84
	c-0.37,0-0.63-0.1-0.8-0.3c-0.17-0.2-0.22-0.48-0.17-0.82l0.44-2.76h0.57l-0.44,2.76c-0.03,0.2-0.01,0.35,0.07,0.46
	c0.08,0.11,0.21,0.17,0.41,0.17c0.19,0,0.35-0.06,0.46-0.17c0.12-0.11,0.19-0.27,0.22-0.46l0.44-2.76h0.57l-0.44,2.76
	c-0.06,0.35-0.2,0.62-0.43,0.82C453.86,785.74,453.56,785.84,453.19,785.84z M456.36,785.84c-0.39,0-0.67-0.1-0.87-0.29
	c-0.19-0.19-0.26-0.45-0.22-0.78h0.57c-0.03,0.17,0.01,0.31,0.12,0.41s0.27,0.15,0.48,0.15c0.2,0,0.37-0.05,0.5-0.15
	s0.21-0.23,0.24-0.4c0.02-0.15,0-0.28-0.06-0.39s-0.16-0.18-0.29-0.22l-0.46-0.14c-0.27-0.08-0.46-0.22-0.59-0.41
	s-0.17-0.42-0.13-0.68c0.04-0.21,0.11-0.39,0.23-0.55c0.12-0.16,0.27-0.28,0.46-0.37c0.19-0.09,0.4-0.13,0.64-0.13
	c0.35,0,0.62,0.1,0.8,0.29s0.25,0.44,0.2,0.76h-0.57c0.03-0.17,0-0.3-0.09-0.4c-0.09-0.1-0.23-0.14-0.42-0.14s-0.34,0.04-0.46,0.13
	s-0.19,0.21-0.21,0.38c-0.02,0.15-0.01,0.28,0.05,0.39s0.16,0.18,0.29,0.22l0.47,0.15c0.26,0.08,0.46,0.22,0.58,0.41
	s0.17,0.42,0.12,0.69c-0.04,0.22-0.12,0.41-0.24,0.57c-0.13,0.16-0.29,0.29-0.49,0.38C456.82,785.79,456.6,785.84,456.36,785.84z
	 M458.42,785.79l0.61-3.83h2.25l-0.08,0.5h-1.7l-0.17,1.09h1.51l-0.08,0.5h-1.51l-0.19,1.24h1.69l-0.08,0.5H458.42z"/>
<g>
	<g>
		<path style="fill:#FFFFFF;" d="M737.17,400.01c0,186.21-150.96,337.17-337.17,337.17S62.83,586.23,62.83,400.01
			S213.78,62.84,400,62.84S737.17,213.8,737.17,400.01z"/>
		<path style="fill:#1B4D3A;" d="M749.13,375.5c-3.18-45.33-14.89-88.92-34.78-129.58c-20.61-42.08-49.14-79.15-84.79-110.12
			c-32.4-28.15-69.08-49.85-109.03-64.48c-38.59-14.15-79.08-21.31-120.36-21.31h-0.04c-101.48,0-197.82,43.9-264.32,120.43
			c-30.98,35.66-54.06,76.34-68.59,120.9C53.19,334.37,47.7,379.17,50.87,424.5c3.18,45.33,14.88,88.92,34.78,129.57
			c20.61,42.08,49.14,79.15,84.79,110.12c32.4,28.15,69.08,49.85,109.04,64.48c38.59,14.15,79.08,21.31,120.37,21.31
			c101.48,0,197.83-43.9,264.33-120.44c30.98-35.66,54.06-76.34,68.59-120.9C746.81,465.63,752.3,420.83,749.13,375.5z
			 M189.51,642.25C55.72,526.01,41.5,323.31,157.75,189.52C221.2,116.48,310.44,79.08,400.14,79.08
			c74.63-0.01,149.58,25.87,210.34,78.67c133.8,116.25,148.03,318.94,31.78,452.74c-63.45,73.03-152.69,110.43-242.39,110.43
			C325.23,720.92,250.27,695.05,189.51,642.25z"/>
	</g>
	<g>
		<path style="fill:#1B4D3A;" d="M264.43,264.34c-35.96,35.95-55.77,83.78-55.77,134.66c0,49.63,18.86,96.37,53.2,132.04
			l16.85-16.96c-28.11-29.78-45.34-69.91-45.34-114.09c0-91.76,74.39-166.17,166.15-166.17c43.78,0,83.58,16.94,113.27,44.61
			l17.43-17.55c-35.54-33.78-81.89-52.32-131.11-52.32C348.24,208.56,300.41,228.37,264.43,264.34z"/>
		<path style="fill:#8F2D1E;" d="M565.7,400c0,91.77-74.4,166.17-166.17,166.17c-43.47,0-83.05-16.72-112.66-44.04l-16.81,16.91
			c35.27,32.55,80.8,50.38,129.06,50.38c50.85,0,98.67-19.79,134.65-55.75c35.98-35.98,55.78-83.8,55.78-134.68
			c0-48.71-18.16-94.6-51.26-129.97l-17.39,17.5C548.68,316.21,565.7,356.12,565.7,400z"/>
	</g>
	<g>
		<g>
			<path style="fill:#1B4D3A;" d="M109.12,394.05c0,0,16.12-2.94,20.12,30.49c0,0,3.11,39.78,21.41,81.16c0,0-24.07-4.16-29.9-26.17
				C120.75,479.53,107.38,445.17,109.12,394.05z"/>
			<path style="fill:#1B4D3A;" d="M146.1,312.11c0,0-15.94-16.37,16.23-33.74C162.33,278.37,171.69,313.66,146.1,312.11z"/>
			<path style="fill:#1B4D3A;" d="M176.77,500.19c0,0,18.03,38.47,39.38,59.77c0,0,19.62,16.27,7.23,35.69
				c0,0-35.01-28.78-53.38-64.19C159.14,510.51,176.77,500.19,176.77,500.19z"/>
			<path style="fill:#1B4D3A;" d="M163.92,534.99c0,0,19.47,34.81,53.41,64.75c0,0-23.61,6.29-38.12-11.26
				c0,0-26.51-25.62-46.32-72.78C132.89,515.7,146.31,506.3,163.92,534.99z"/>
			<path style="fill:#1B4D3A;" d="M157.86,504.52c0,0-19.76-40.8-21.63-80.64c-1.1-23.56,19.23-25.56,19.23-25.56
				s0.28,42.48,10.76,70.76C166.22,469.08,177.23,492.06,157.86,504.52z"/>
			<path style="fill:#1B4D3A;" d="M129.06,294.6c0,0,18.6,4.73,7.78,36.61c0,0-6.2,17.76-9.55,62.44c0,0-19.92-14.15-15.68-36.52
				C111.6,357.13,112.6,340.39,129.06,294.6z"/>
			<path style="fill:#1B4D3A;" d="M134.31,395.7c0,0-3.13-24.57,6.34-62.5c5.71-22.88,28.37-14.76,28.37-14.76
				s-9.14,18.85-11.88,48.88C157.15,367.32,157.15,392.81,134.31,395.7z"/>
		</g>
		<g>
			<path style="fill:#1B4D3A;" d="M690.06,394.05c0,0-16.13-2.94-20.13,30.49c0,0-3.1,39.78-21.39,81.16c0,0,24.07-4.16,29.9-26.17
				C678.42,479.53,691.79,445.17,690.06,394.05z"/>
			<path style="fill:#1B4D3A;" d="M653.07,312.11c0,0,15.94-16.37-16.23-33.74C636.84,278.37,627.47,313.66,653.07,312.11z"/>
			<path style="fill:#1B4D3A;" d="M622.4,500.19c0,0-18.03,38.47-39.38,59.77c0,0-19.62,16.27-7.25,35.69
				c0,0,35.02-28.78,53.38-64.19C640.03,510.51,622.4,500.19,622.4,500.19z"/>
			<path style="fill:#1B4D3A;" d="M635.24,534.99c0,0-19.47,34.81-53.4,64.75c0,0,23.61,6.29,38.11-11.26
				c0,0,26.52-25.62,46.32-72.78C666.28,515.7,652.86,506.3,635.24,534.99z"/>
			<path style="fill:#1B4D3A;" d="M641.31,504.52c0,0,19.76-40.8,21.63-80.64c1.1-23.56-19.23-25.56-19.23-25.56
				s-0.28,42.48-10.76,70.76C632.95,469.08,621.94,492.06,641.31,504.52z"/>
			<path style="fill:#1B4D3A;" d="M670.12,294.6c0,0-18.6,4.73-7.79,36.61c0,0,6.21,17.76,9.56,62.44c0,0,19.91-14.15,15.67-36.52
				C687.56,357.13,686.57,340.39,670.12,294.6z"/>
			<path style="fill:#1B4D3A;" d="M664.87,395.7c0,0,3.13-24.57-6.35-62.5c-5.71-22.88-28.37-14.76-28.37-14.76
				s9.14,18.85,11.88,48.88C642.03,367.32,642.02,392.81,664.87,395.7z"/>
		</g>
	</g>
	<g>
		<path style="fill:#1B4D3A;" d="M195.38,398.78c0-112.46,91.49-203.94,203.94-203.94c54.28,0,103.67,21.3,140.25,56.01l4.58-4.64
			c-18.41-17.51-39.57-31.38-62.95-41.28c-25.94-10.97-53.49-16.53-81.89-16.53s-55.94,5.56-81.89,16.53
			c-25.05,10.6-47.54,25.76-66.87,45.09c-19.31,19.31-34.48,41.82-45.08,66.87c-10.97,25.94-16.53,53.49-16.53,81.89
			c0,28.4,5.56,55.95,16.53,81.89c10.15,23.98,24.48,45.61,42.64,64.36l4.58-4.62C217.23,503.69,195.38,453.74,195.38,398.78z"/>
		<path style="fill:#8F2D1E;" d="M593.16,316.89c-9.71-22.94-23.25-43.73-40.3-61.91l-4.6,4.64c34.1,36.47,55,85.42,55,139.17
			c0,112.46-91.49,203.94-203.95,203.94c-53.05,0-101.44-20.36-137.76-53.69l-4.58,4.64c17.83,16.41,38.12,29.5,60.46,38.96
			c25.95,10.97,53.49,16.53,81.89,16.53s55.95-5.56,81.89-16.53c25.06-10.6,47.55-25.76,66.88-45.09
			c19.31-19.31,34.48-41.82,45.08-66.87c10.97-25.94,16.53-53.49,16.53-81.89C609.69,370.38,604.13,342.82,593.16,316.89z"/>
	</g>
	<g>
		<path style="fill:#8F2D1E;" d="M218.9,242.18c-3.54,6.3-9.1,14.04-13.99,20.82c-4.03,5.59-10.23,6.81-15.52,3.01l-23.8-17.13
			c-5.3-3.81-6.07-10.15-2.08-15.68c4.87-6.78,10.44-14.52,15.3-19.87l7.64,6.3l-11.09,15.42c-1.21,1.67-0.95,3.21,0.72,4.4
			l4.99,3.59l11.35-15.76l7.67,5.52l-11.34,15.76l6.24,4.5c1.67,1.19,3.21,0.94,4.4-0.73l11.09-15.41L218.9,242.18z"/>
		<path style="fill:#8F2D1E;" d="M214.16,191.63l27.55,28.93l-9.99,9.5l-27.54-28.93l-10.52,10.01l-7.33-7.7l31.05-29.57l7.33,7.68
			L214.16,191.63z"/>
		<path style="fill:#8F2D1E;" d="M255.71,160.58l21.64,33.57l-11.59,7.47l-21.63-33.57l-12.2,7.86l-5.76-8.93l36.04-23.23l5.75,8.93
			L255.71,160.58z"/>
		<path style="fill:#8F2D1E;" d="M295.01,184.45l-21.14-45.95l12.39-5.7l21.14,45.95L295.01,184.45z"/>
		<path style="fill:#8F2D1E;" d="M320.41,131.58c-2.25,0.68-3.05,2.07-2.45,4.04l2.05,6.8l17.9-5.42l2.77,9.13l-17.9,5.42
			l5.89,19.43l-13.19,4l-11.54-38.1c-1.93-6.38,1.36-11.91,7.96-13.91c7.72-2.33,16.62-5.03,23.41-6.17l2.21,9.59L320.41,131.58z"/>
		<path style="fill:#8F2D1E;" d="M362.93,150.67l-1.59,12.28l-13.99,1.63l8.33-48.26c0.25-2.25,1.99-3.85,4.17-4.11l12.66-1.47
			c2.19-0.25,4.24,0.9,5.07,3.02l19.13,45.08l-13.99,1.62l-4.37-11.59L362.93,150.67z M369.96,126.76
			c-0.56-1.63-1.22-3.47-1.56-5.14l-1.96,0.24c-0.09,1.71-0.24,3.64-0.41,5.35l-1.71,13.26l10.35-1.21L369.96,126.76z"/>
		<path style="fill:#8F2D1E;" d="M445.54,137.99c-1.87,20.51-8.31,25.67-25.02,24.13c-16.57-1.51-22.03-7.75-20.16-28.25
			c1.88-20.52,8.38-25.66,24.96-24.15C442.02,111.25,447.42,117.49,445.54,137.99z M416.4,162.94c6.77,3.19,13.95,5.25,22.6,7.29
			l-4.56,11.22c-9.19-3.42-16.31-7.67-21.66-11.99L416.4,162.94z M414.74,135.18c-1.14,12.4,0.38,15.86,6.73,16.44
			c6.44,0.58,8.48-2.54,9.62-14.94c1.14-12.41-0.32-15.86-6.74-16.45C418,119.66,415.87,122.77,414.74,135.18z"/>
		<path style="fill:#8F2D1E;" d="M501.61,180.97c-5.19-0.15-9.66-1.19-16.78-3.87c-15.17-5.67-18.32-14.21-11.55-32.26
			c6.76-18.05,14.73-22.43,29.9-16.74c7.07,2.65,10.25,4.38,14.32,7.32l-4.5,9.1c-4.62-1.88-7.62-3.07-13.92-5.44
			c-5.63-2.11-8.29,0.19-12.28,10.82c-3.99,10.64-3.48,14.11,2.15,16.23c6.66,2.49,10.6,3.88,15.17,5.05L501.61,180.97z"/>
		<path style="fill:#8F2D1E;" d="M525.05,179.89c-1.05,1.76-0.66,3.27,1.36,4.46l14.76,8.74l-4.7,9.22
			c-6.62-2.9-13.68-7.07-20.44-11.07c-6.62-3.92-7.84-9.92-4.48-15.59l20.19-34.12l11.87,7.01L525.05,179.89z"/>
		<path style="fill:#8F2D1E;" d="M584.89,217.79c-10.43,11.82-18.37,12.52-29.75,2.48c-12.21-10.76-12.77-18.98-2.34-30.8
			l19.88-22.53l10.33,9.11l-19.88,22.53c-5.72,6.49-5.96,9.4-1.56,13.29c4.4,3.88,7.27,3.28,12.99-3.19l19.88-22.53l10.33,9.11
			L584.89,217.79z"/>
		<path style="fill:#8F2D1E;" d="M615.25,247.59c4.2,6.74,2.11,11.78-4.36,16.6c-8.33,6.23-13.82,3.54-21.22-6.38
			c-6.18-8.29-9.59-12.97-13.25-18.74l40.53-30.24c4.09,4.64,7.31,8.81,12.78,16.16c8.16,10.93,8.82,16.47,0.48,22.69
			c-5.82,4.34-10.29,4.48-14.61-0.34L615.25,247.59z M595.98,250.08c3.07,4.11,4.8,4.46,8.86,1.44c4.28-3.21,4.54-5.05,1.39-9.29
			l-4.12-5.52l-10.28,7.67L595.98,250.08z M612.91,237.09c2.68,3.59,4.29,3.93,7.93,1.21c3.52-2.62,3.56-4.29,0.71-8.12l-3.81-5.11
			l-8.88,6.62L612.91,237.09z"/>
	</g>
	<g>
		<path style="fill:#1B4D3A;" d="M276.78,612.43c0.33-0.51,0.74-0.94,1.23-1.28s1.01-0.57,1.58-0.7s1.13-0.15,1.71-0.05
			c0.57,0.1,1.13,0.32,1.66,0.66c0.51,0.33,0.94,0.74,1.28,1.23c0.34,0.49,0.56,1.02,0.68,1.58c0.11,0.57,0.13,1.15,0.03,1.74
			c-0.09,0.59-0.31,1.14-0.64,1.66s-0.75,0.94-1.24,1.27c-0.5,0.33-1.03,0.55-1.58,0.68c-0.56,0.12-1.13,0.13-1.72,0.04
			c-0.59-0.09-1.14-0.31-1.66-0.64c-0.53-0.34-0.96-0.76-1.28-1.25c-0.32-0.49-0.54-1.02-0.66-1.58c-0.12-0.56-0.13-1.13-0.03-1.71
			C276.23,613.49,276.45,612.94,276.78,612.43z M267.4,606.4c0.33-0.51,0.74-0.94,1.23-1.28c0.49-0.34,1.02-0.56,1.59-0.69
			c0.57-0.12,1.15-0.14,1.72-0.04c0.57,0.1,1.13,0.32,1.66,0.66c0.51,0.33,0.94,0.74,1.26,1.22c0.33,0.48,0.55,1.01,0.66,1.58
			c0.11,0.57,0.13,1.15,0.03,1.74c-0.09,0.59-0.31,1.14-0.64,1.66c-0.33,0.52-0.75,0.94-1.24,1.27c-0.5,0.33-1.03,0.55-1.58,0.68
			c-0.56,0.12-1.13,0.14-1.71,0.05c-0.58-0.09-1.13-0.3-1.64-0.63c-0.53-0.34-0.96-0.76-1.28-1.25c-0.32-0.49-0.55-1.02-0.68-1.58
			c-0.13-0.56-0.15-1.14-0.04-1.72C266.85,607.46,267.07,606.91,267.4,606.4z M258.64,630.77c-1.04,1.62-1.5,3.13-1.37,4.53
			c0.12,1.4,0.9,2.57,2.34,3.49c1.6,1.03,3.06,1.58,4.39,1.65l2.48-3.86c0.64-0.99,1.14-1.93,1.52-2.82
			c0.38-0.89,0.59-1.71,0.64-2.47c0.05-0.76-0.09-1.46-0.41-2.09s-0.86-1.19-1.61-1.68c-0.75-0.48-1.49-0.75-2.19-0.8
			c-0.71-0.05-1.39,0.07-2.05,0.38c-0.66,0.3-1.31,0.77-1.94,1.41C259.8,629.13,259.21,629.89,258.64,630.77z M269.73,648.26
			c-1.61,2.5-3.52,4.48-5.74,5.93c-2.22,1.46-4.68,2.34-7.38,2.66c-2.7,0.32-5.6,0.04-8.71-0.82c-3.11-0.87-6.34-2.38-9.71-4.54
			c-3.07-1.97-5.59-4.03-7.57-6.17c-1.98-2.14-3.38-4.35-4.22-6.62c-0.84-2.28-1.09-4.61-0.75-6.99c0.33-2.38,1.29-4.8,2.86-7.24
			l3.97-6.18l7.61,4.89l-2.92,4.55c-1,1.56-1.67,3.09-2.01,4.58c-0.33,1.49-0.28,2.95,0.16,4.39c0.44,1.44,1.28,2.86,2.53,4.25
			c1.24,1.4,2.95,2.79,5.12,4.19c2.21,1.42,4.2,2.41,5.98,2.97c1.78,0.56,3.35,0.84,4.7,0.84c1.35,0,2.5-0.2,3.43-0.58
			c0.94-0.39,1.67-0.81,2.2-1.27c-1.41-0.44-2.94-1.19-4.59-2.25c-1.56-1-2.87-2.17-3.93-3.5c-1.06-1.33-1.77-2.79-2.15-4.38
			c-0.38-1.59-0.39-3.29-0.04-5.09c0.35-1.8,1.16-3.68,2.42-5.65c1.09-1.69,2.39-3.15,3.91-4.38c1.52-1.23,3.16-2.13,4.92-2.68
			c1.76-0.56,3.61-0.72,5.55-0.48c1.94,0.23,3.88,0.97,5.81,2.21c2.13,1.37,3.7,2.89,4.69,4.55c0.99,1.67,1.54,3.41,1.63,5.22
			c0.1,1.81-0.2,3.67-0.87,5.58c-0.68,1.9-1.62,3.79-2.82,5.67L269.73,648.26z"/>
		<path style="fill:#1B4D3A;" d="M294.34,660.39c-0.66,1.43-1.32,2.32-1.97,2.68c-0.65,0.36-1.39,0.35-2.22-0.04l-2.68-1.24
			c-1.43-0.66-2.66-1.42-3.7-2.28c-1.04-0.86-1.82-1.85-2.34-2.97c-0.53-1.12-0.74-2.4-0.65-3.84c0.09-1.44,0.56-3.07,1.41-4.9
			l15.35-33.03l8.21,3.81l-14.84,31.93c-0.34,0.73-0.55,1.35-0.63,1.86c-0.08,0.51-0.05,0.93,0.09,1.29
			c0.14,0.35,0.38,0.66,0.72,0.91c0.34,0.25,0.76,0.5,1.25,0.73l1.16,0.54c0.32,0.15,0.61,0.32,0.88,0.52
			c0.27,0.2,0.46,0.46,0.57,0.79c0.11,0.33,0.13,0.75,0.06,1.28C294.93,658.94,294.71,659.59,294.34,660.39z"/>
		<path style="fill:#1B4D3A;" d="M319.07,632.18c0.2-0.58,0.49-1.09,0.89-1.53c0.39-0.44,0.85-0.79,1.38-1.05
			c0.53-0.26,1.08-0.41,1.66-0.46c0.58-0.04,1.17,0.04,1.77,0.24c0.58,0.2,1.08,0.49,1.52,0.88c0.43,0.39,0.77,0.85,1.02,1.37
			c0.25,0.52,0.4,1.08,0.45,1.68c0.05,0.59-0.02,1.18-0.22,1.76c-0.2,0.58-0.5,1.09-0.9,1.53c-0.4,0.44-0.86,0.79-1.37,1.04
			c-0.51,0.25-1.06,0.4-1.65,0.46c-0.58,0.05-1.17-0.02-1.75-0.21c-0.6-0.2-1.11-0.51-1.54-0.91c-0.43-0.4-0.77-0.86-1.04-1.37
			c-0.26-0.52-0.41-1.07-0.46-1.66C318.79,633.34,318.87,632.76,319.07,632.18z M310.63,654.89c-0.38,1.12-0.57,2.14-0.58,3.07
			c-0.01,0.93,0.13,1.76,0.42,2.48c0.29,0.72,0.71,1.33,1.27,1.82c0.56,0.49,1.21,0.86,1.96,1.12l3.75,1.28l1.93-5.65
			c0.28-0.83,0.51-1.66,0.68-2.5c0.17-0.84,0.2-1.63,0.1-2.36c-0.11-0.73-0.39-1.39-0.84-1.97c-0.45-0.58-1.14-1.03-2.07-1.35
			c-0.89-0.3-1.69-0.4-2.4-0.28c-0.71,0.12-1.34,0.38-1.88,0.78c-0.54,0.4-1.01,0.92-1.39,1.55
			C311.18,653.52,310.87,654.19,310.63,654.89z M301.15,659.11c-0.06-0.44-0.06-0.94,0-1.51c0.06-0.57,0.14-1.16,0.26-1.77
			c0.11-0.61,0.26-1.21,0.42-1.8c0.17-0.59,0.33-1.11,0.48-1.57c0.59-1.72,1.45-3.3,2.6-4.74c1.15-1.44,2.51-2.61,4.07-3.51
			c1.56-0.9,3.3-1.46,5.2-1.69c1.9-0.23,3.91,0.02,6.02,0.74c1.65,0.56,3.05,1.27,4.18,2.12c1.13,0.85,2.04,1.78,2.74,2.79
			c0.69,1.01,1.2,2.09,1.51,3.23c0.31,1.15,0.48,2.31,0.5,3.5c0.02,1.18-0.07,2.36-0.28,3.52c-0.21,1.16-0.49,2.26-0.85,3.3l-2,5.86
			l4.19,1.43c0.35,0.12,0.67,0.26,0.96,0.43s0.51,0.41,0.65,0.73c0.15,0.32,0.2,0.73,0.18,1.26c-0.03,0.52-0.18,1.2-0.47,2.02
			c-0.51,1.49-1.06,2.45-1.66,2.88c-0.6,0.43-1.34,0.49-2.23,0.19l-34.81-11.88c-0.35-0.12-0.67-0.26-0.96-0.43
			c-0.29-0.17-0.51-0.41-0.65-0.73c-0.15-0.31-0.2-0.74-0.17-1.27c0.03-0.53,0.19-1.22,0.48-2.07c0.51-1.49,1.06-2.44,1.65-2.85
			c0.59-0.41,1.33-0.46,2.22-0.16L301.15,659.11z"/>
		<path style="fill:#1B4D3A;" d="M351.83,641.43c0.13-0.6,0.37-1.14,0.71-1.62c0.34-0.48,0.75-0.89,1.24-1.21
			c0.48-0.32,1.01-0.53,1.58-0.64c0.57-0.11,1.17-0.1,1.79,0.04c0.6,0.13,1.14,0.37,1.62,0.71c0.48,0.34,0.88,0.76,1.19,1.25
			c0.31,0.49,0.52,1.03,0.64,1.62c0.12,0.58,0.11,1.18-0.02,1.77c-0.13,0.6-0.37,1.14-0.72,1.62c-0.35,0.48-0.77,0.88-1.25,1.19
			c-0.48,0.31-1.02,0.52-1.6,0.64c-0.59,0.12-1.18,0.11-1.77-0.02c-0.62-0.13-1.16-0.38-1.64-0.73c-0.47-0.35-0.86-0.76-1.17-1.25
			s-0.52-1.01-0.62-1.6C351.69,642.62,351.7,642.03,351.83,641.43z M340.94,639.04c0.13-0.6,0.37-1.14,0.71-1.62
			c0.34-0.48,0.76-0.88,1.25-1.2c0.49-0.32,1.03-0.53,1.6-0.64c0.57-0.11,1.17-0.1,1.79,0.04c0.6,0.13,1.13,0.37,1.61,0.7
			c0.47,0.34,0.86,0.75,1.17,1.25c0.31,0.49,0.52,1.03,0.64,1.62c0.12,0.59,0.11,1.18-0.02,1.77c-0.13,0.6-0.37,1.14-0.72,1.62
			c-0.35,0.48-0.77,0.88-1.25,1.19c-0.48,0.31-1.01,0.52-1.58,0.64c-0.57,0.12-1.16,0.11-1.76-0.02c-0.62-0.14-1.16-0.38-1.64-0.73
			c-0.47-0.35-0.87-0.77-1.19-1.25c-0.32-0.48-0.53-1.02-0.64-1.6C340.8,640.23,340.81,639.64,340.94,639.04z M340.42,670.95
			l4.2-19.15l8.84,1.94l-5.9,26.9L330.98,677c-0.36-0.08-0.7-0.19-1-0.32c-0.31-0.13-0.55-0.35-0.73-0.65
			c-0.18-0.3-0.29-0.71-0.32-1.24c-0.03-0.53,0.05-1.24,0.25-2.11c0.34-1.54,0.77-2.54,1.32-3.02c0.54-0.47,1.27-0.61,2.19-0.41
			L340.42,670.95z"/>
		<path style="fill:#1B4D3A;" d="M397.25,639.57l-4.37,46.67l-35.54-3.33l0.74-7.9l11.16,1.05l-2.19-31.48l9.01,0.84l2.42,31.5
			l6.14,0.57l3.63-38.77L397.25,639.57z"/>
		<path style="fill:#1B4D3A;" d="M412.43,638.92l0.91,46.87l-9.05,0.18l-0.91-46.87L412.43,638.92z"/>
		<path style="fill:#1B4D3A;" d="M473.59,693.51c-0.14-0.6-0.16-1.19-0.06-1.77c0.1-0.58,0.3-1.12,0.6-1.62
			c0.3-0.5,0.68-0.92,1.15-1.26c0.47-0.34,1.01-0.59,1.63-0.73c0.6-0.14,1.19-0.16,1.77-0.06c0.58,0.1,1.12,0.31,1.61,0.62
			c0.49,0.31,0.91,0.71,1.27,1.19c0.36,0.48,0.61,1.01,0.74,1.61c0.14,0.6,0.15,1.19,0.04,1.77c-0.11,0.59-0.32,1.12-0.62,1.61
			c-0.3,0.49-0.69,0.91-1.17,1.27c-0.48,0.36-1.02,0.6-1.61,0.74c-0.62,0.14-1.21,0.16-1.79,0.04c-0.58-0.11-1.11-0.32-1.59-0.62
			c-0.48-0.3-0.9-0.7-1.25-1.17C473.97,694.64,473.73,694.1,473.59,693.51z M462.73,696.02c-0.14-0.6-0.16-1.19-0.06-1.77
			c0.1-0.58,0.31-1.13,0.62-1.62c0.31-0.5,0.7-0.92,1.17-1.26c0.47-0.34,1.01-0.59,1.63-0.73c0.6-0.14,1.18-0.16,1.75-0.05
			c0.57,0.1,1.1,0.31,1.59,0.62c0.49,0.31,0.91,0.71,1.27,1.19c0.36,0.48,0.61,1.01,0.74,1.61c0.14,0.6,0.15,1.19,0.04,1.77
			c-0.11,0.59-0.32,1.12-0.62,1.61c-0.3,0.48-0.69,0.9-1.15,1.26c-0.47,0.36-1,0.6-1.59,0.74c-0.62,0.14-1.21,0.16-1.79,0.04
			c-0.58-0.11-1.11-0.32-1.61-0.62c-0.5-0.3-0.92-0.69-1.26-1.17C463.11,697.16,462.87,696.62,462.73,696.02z M450.11,672.2
			c0.3,1.28,0.81,2.43,1.54,3.46c0.73,1.03,1.76,1.84,3.07,2.43c1.32,0.59,2.95,0.92,4.91,1c1.96,0.07,4.31-0.21,7.06-0.85
			c3.3-0.76,5.92-1.52,7.87-2.28c1.95-0.75,3.41-1.5,4.38-2.23c0.98-0.73,1.57-1.44,1.78-2.13c0.21-0.69,0.24-1.36,0.09-2.02
			c-0.14-0.62-0.45-1.1-0.91-1.45c-0.46-0.35-1.03-0.64-1.7-0.87c-0.67-0.23-1.42-0.41-2.25-0.56c-0.83-0.14-1.69-0.32-2.58-0.51
			c-0.89-0.2-1.76-0.45-2.63-0.75c-0.87-0.3-1.67-0.73-2.41-1.27c-0.74-0.55-1.4-1.24-1.98-2.08c-0.58-0.84-1.01-1.9-1.31-3.18
			c-0.39-1.66-0.46-3.4-0.23-5.21c0.23-1.81,0.81-3.54,1.75-5.17c0.93-1.63,2.25-3.08,3.94-4.36c1.69-1.28,3.8-2.21,6.33-2.8
			c0.83-0.19,1.62-0.32,2.38-0.38c0.76-0.06,1.46-0.1,2.11-0.1c0.65,0,1.24,0.02,1.77,0.08c0.53,0.06,0.97,0.11,1.32,0.17l1.82,7.85
			c-1.68,0.01-3.1,0.09-4.27,0.25c-1.16,0.16-2.05,0.31-2.67,0.45c-1.17,0.27-2.15,0.64-2.94,1.12c-0.79,0.48-1.41,0.99-1.88,1.56
			c-0.46,0.57-0.76,1.16-0.9,1.77c-0.14,0.62-0.14,1.2-0.01,1.75c0.15,0.64,0.46,1.15,0.94,1.53c0.48,0.38,1.06,0.7,1.75,0.94
			c0.68,0.25,1.45,0.45,2.3,0.63c0.85,0.17,1.72,0.35,2.62,0.54c0.9,0.19,1.78,0.41,2.65,0.68c0.87,0.27,1.67,0.64,2.41,1.11
			c0.74,0.47,1.38,1.06,1.95,1.79c0.56,0.72,0.96,1.62,1.21,2.68c0.44,1.92,0.48,3.84,0.1,5.78c-0.38,1.94-1.35,3.79-2.9,5.57
			c-1.55,1.77-3.79,3.42-6.71,4.94c-2.92,1.52-6.7,2.82-11.31,3.89c-4.11,0.95-7.73,1.34-10.87,1.17c-3.14-0.17-5.82-0.79-8.05-1.85
			c-2.23-1.06-4.02-2.5-5.38-4.32c-1.35-1.82-2.3-3.91-2.85-6.27l-1.66-7.15l8.81-2.04L450.11,672.2z"/>
		<path style="fill:#1B4D3A;" d="M521.49,651.23c0.45,1.09,0.71,2.2,0.76,3.32c0.05,1.13-0.14,2.21-0.57,3.25
			c-0.43,1.04-1.13,2.01-2.09,2.91s-2.23,1.67-3.81,2.33l-15.44,6.41l-3.04-7.33l12.47-5.18c0.99-0.41,1.72-0.83,2.19-1.26
			c0.47-0.43,0.6-0.9,0.39-1.41c-0.11-0.26-0.25-0.51-0.43-0.74c-0.18-0.23-0.48-0.51-0.92-0.84c-0.43-0.33-1.04-0.76-1.83-1.28
			c-0.79-0.53-1.84-1.21-3.16-2.06l-8.17-5.48l5.51-7.93l9.3,6.68c1.25,0.9,2.36,1.73,3.34,2.5c0.98,0.77,1.83,1.49,2.55,2.17
			c0.72,0.68,1.32,1.34,1.8,1.99C520.84,649.91,521.22,650.57,521.49,651.23z"/>
		<path style="fill:#1B4D3A;" d="M546.34,643.26c0.74,1.39,1.06,2.45,0.95,3.19c-0.1,0.74-0.56,1.32-1.37,1.75l-2.6,1.39
			c-1.39,0.74-2.74,1.27-4.04,1.58c-1.31,0.31-2.57,0.34-3.78,0.08c-1.21-0.26-2.37-0.86-3.46-1.8c-1.09-0.94-2.11-2.3-3.06-4.07
			l-17.11-32.15l7.99-4.25l16.54,31.08c0.38,0.71,0.75,1.25,1.1,1.62c0.36,0.37,0.72,0.6,1.08,0.71c0.36,0.1,0.75,0.1,1.16-0.02
			c0.41-0.12,0.85-0.3,1.34-0.56l1.13-0.6c0.31-0.16,0.62-0.29,0.94-0.39c0.32-0.1,0.64-0.09,0.98,0.02
			c0.33,0.11,0.68,0.35,1.05,0.72C545.54,641.92,545.93,642.49,546.34,643.26z"/>
		<path style="fill:#1B4D3A;" d="M550.29,636.22l-10.48-16.57l7.64-4.84l14.72,23.27l-14.35,9.08c-0.31,0.2-0.63,0.36-0.94,0.48
			c-0.31,0.12-0.64,0.14-0.98,0.05c-0.34-0.08-0.7-0.3-1.1-0.66c-0.39-0.36-0.83-0.92-1.31-1.67c-0.84-1.33-1.24-2.35-1.19-3.07
			c0.05-0.72,0.47-1.33,1.27-1.83L550.29,636.22z M533.59,609.78c-0.33-0.52-0.54-1.07-0.64-1.65c-0.1-0.58-0.08-1.16,0.05-1.74
			c0.13-0.57,0.36-1.1,0.69-1.58c0.33-0.48,0.76-0.89,1.3-1.23c0.52-0.33,1.06-0.54,1.64-0.63c0.57-0.09,1.14-0.07,1.71,0.06
			c0.56,0.14,1.09,0.37,1.59,0.7c0.49,0.33,0.91,0.76,1.23,1.28c0.33,0.52,0.54,1.07,0.62,1.66c0.09,0.59,0.07,1.16-0.05,1.72
			c-0.13,0.56-0.35,1.08-0.67,1.57c-0.32,0.49-0.74,0.9-1.26,1.22c-0.54,0.34-1.09,0.55-1.67,0.63c-0.58,0.08-1.16,0.07-1.72-0.05
			c-0.57-0.12-1.09-0.35-1.58-0.69C534.32,610.73,533.92,610.3,533.59,609.78z"/>
	</g>
	<g>
		<path style="fill:#1B4D3A;" d="M489.25,431.36c9.19-28.67-2.4-42.75-38.43-37.22c-4.88-7.5-12.71-13.08-22.19-14.84
			c-6.22-1.17-12.36-0.54-17.89,1.49c2.33-1.61,5.58-3.15,10.09-4.18c-9.94-4.53-20.55-13.86-29.74-34.18
			c4.61-4.41,14.68,12.36,14.68,12.36c15.1-51.89-27.26-74.2-30.23-74.96l-1.26-0.35l0.01-0.09c0,0-5.09-5.85-7.62-11.29
			c-4.16,6.15-2.04,9.6-2.04,9.6l-29.44,20.97l-0.41,10.98l7.88,2.79l7.24-8.62c10.5,6.7,20.21,2.37,20.21,2.37
			c-12.39,11.6-18.76,26.59-18.76,26.59c-11.34,4.84-14.93,17.21-15.52,22.52l0.08-0.01c0,0-0.25,1.66-0.21,4.15l0.01,0.21h-0.01
			c0.09,4.33,1.06,11.03,5.61,16.08c0,0-7.71-5.55-9.15-16.74l-19.89-3.7c0,0-0.4,2.16-3.71,19.96c-3.38,18.15,11,23.28,11,23.28
			l2.53-14.08c0,0-6.1-1.88-5.46-5.34c0.65-3.46,2.04-11.47,2.04-11.47s2.46,0.05,6.17,1.85c4.19,2.03,9.95,6.28,15.56,15.19
			l-10.63,5.18l-2.46,13.2l17.15,10.1c19.51,11.71,26.42-0.09,26.42-0.09l-11.95-6.73c-2.04,2.7-5.97,2.43-5.97,2.43l-15.48-9.18
			l0.83-4.45c0,0,9.39-2.7,14.84-4.04l13.42-3.91l-8.51,5.88c13.72,16.85,51.09,26.76,60.4,25.74c0,0-6.83,2.23-13.05,2.81
			c0,0-3.12,11.91,8.43,19.5c5.32,3.5,14.79,8.73,14.79,8.73c-4.14,2.98-9.18,6.59-12.83,9.23l-0.6,3.22
			c-2.92,18.24,12.29,21.17,12.29,21.17l2.05-12.92c0,0-6.34-0.54-5.75-4.01l0.51-2.91c2.46-1.77,7.91-5.65,12.51-8.91l6.04,4.29
			c5.34,7.27-2.86,26.82-2.86,26.82c-12.67,0-13.91,12.8-13.91,12.8l16.63,0.06c1.26-8.37,7.71-7.88,7.71-7.88l6.55-34.04
			l-10.3-8.16l3.24-3.38l-5.23-7.07c5.57-4.84,9.59-11.53,11.05-19.33c1.12-6.04,0.56-12.01-1.33-17.41
			c19.11,1.03,15.87,10.16,11.1,27.02c-11.84,41.91,34.26,48.57,34.26,48.57C480.41,464.72,489.25,431.36,489.25,431.36z"/>
		<g>
			<path style="fill:#1B4D3A;" d="M358.86,508.14v33.27h-6.43v-26.84h-3.77v-6.43H358.86z"/>
			<path style="fill:#1B4D3A;" d="M378.9,519.65c0,1.17,0.42,2.17,1.26,3.02c0.83,0.83,1.82,1.24,2.99,1.24
				c1.17,0,2.17-0.41,2.99-1.24c0.84-0.84,1.26-1.85,1.26-3.02v-1.51c0-1.17-0.42-2.17-1.26-2.99c-0.83-0.83-1.83-1.24-2.99-1.24
				c-1.17,0-2.17,0.41-2.99,1.24c-0.84,0.83-1.26,1.83-1.26,2.99V519.65z M373.65,536.29l5.57-3.22c1.01,1.73,2.32,2.6,3.95,2.6
				c1.17,0,2.17-0.41,2.99-1.24c0.84-0.84,1.26-1.84,1.26-2.99v-1.97c-1.36,0.59-2.78,0.89-4.26,0.89c-2.94,0-5.46-1.04-7.54-3.13
				c-2.1-2.1-3.15-4.62-3.15-7.56v-1.51c0-2.94,1.05-5.46,3.15-7.54c2.09-2.1,4.6-3.15,7.54-3.15c2.94,0,5.46,1.05,7.54,3.15
				c2.1,2.08,3.15,4.6,3.15,7.54v13.28c0,2.93-1.05,5.44-3.15,7.54c-2.09,2.08-4.6,3.13-7.54,3.13
				C379.08,542.1,375.91,540.16,373.65,536.29z"/>
			<path style="fill:#1B4D3A;" d="M418.11,508.14l-8.67,18.98h5.5v-7.85h6.43v7.85h2.51v6.43h-2.51v7.85h-6.43v-7.85h-13.86v-3.62
				l9.96-21.8H418.11z"/>
			<path style="fill:#1B4D3A;" d="M430.76,536.29l5.57-3.22c1.02,1.73,2.34,2.59,3.95,2.59c1.17,0,2.17-0.41,2.99-1.24
				c0.84-0.84,1.26-1.84,1.26-2.99v-1.53c0-1.17-0.42-2.17-1.26-2.99c-0.83-0.83-1.83-1.24-2.99-1.24c-1.72,0-3.03,0.89-3.95,2.66
				l-4.81-1.31l2.08-18.87h15.64v6.43h-9.82l-0.44,4.72c0.5-0.06,0.94-0.09,1.31-0.09c2.94,0,5.46,1.05,7.56,3.15
				c2.1,2.09,3.15,4.6,3.15,7.54v1.53c0,2.93-1.05,5.44-3.15,7.54c-2.1,2.08-4.62,3.13-7.56,3.13
				C436.19,542.1,433.02,540.16,430.76,536.29z"/>
		</g>
	</g>
</g>
</svg>
