<?xml version="1.0" encoding="utf-8"?>
<!-- Created by @FCLOGO 2024-10-16 GMT+8 9:58:39 . https://fclogo.top/ -->
<!-- FOR PERSONAL USE ONLY NOT FOR COMMERCIAL USE -->
<svg version="1.1" xmlns="http://www.w3.org/2000/svg" xmlns:xlink="http://www.w3.org/1999/xlink" x="0px" y="0px"
	 viewBox="0 0 800 800" style="enable-background:new 0 0 800 800;" xml:space="preserve">
<path style="fill:#CCCCCC;" d="M348.22,774.3c-0.79,0-1.38-0.22-1.77-0.65c-0.39-0.44-0.53-1.03-0.41-1.79l0.25-1.65
	c0.12-0.75,0.45-1.35,0.98-1.78c0.53-0.44,1.19-0.65,1.98-0.65c0.76,0,1.33,0.2,1.72,0.6c0.39,0.4,0.55,0.94,0.47,1.62h-1.24
	c0.03-0.36-0.06-0.64-0.26-0.84c-0.2-0.2-0.5-0.3-0.89-0.3c-0.42,0-0.76,0.12-1.03,0.35c-0.27,0.23-0.43,0.56-0.5,0.99l-0.26,1.66
	c-0.07,0.44-0.01,0.77,0.19,1c0.19,0.23,0.5,0.35,0.92,0.35c0.39,0,0.72-0.1,0.98-0.3c0.26-0.2,0.44-0.48,0.52-0.85h1.24
	c-0.14,0.69-0.47,1.23-0.99,1.63C349.61,774.1,348.97,774.3,348.22,774.3z M352.8,774.19l1-6.29h1.19l-0.19,1.19
	c0.34-0.87,0.97-1.3,1.91-1.3c0.67,0,1.17,0.21,1.49,0.62c0.32,0.42,0.43,0.99,0.31,1.71l-0.07,0.42h-1.27l0.06-0.32
	c0.07-0.45,0.01-0.8-0.17-1.04c-0.18-0.24-0.48-0.36-0.88-0.36c-0.4,0-0.74,0.12-1.01,0.37c-0.27,0.24-0.43,0.59-0.5,1.03
	l-0.63,3.97H352.8z M361.91,774.3c-0.77,0-1.35-0.22-1.73-0.67c-0.38-0.45-0.51-1.04-0.4-1.77l0.25-1.65
	c0.08-0.49,0.26-0.92,0.52-1.28c0.26-0.37,0.6-0.65,1.01-0.85c0.41-0.2,0.87-0.3,1.38-0.3c0.77,0,1.35,0.22,1.73,0.67
	c0.39,0.45,0.52,1.04,0.39,1.77l-0.17,1.12h-3.85l-0.09,0.53c-0.15,0.95,0.22,1.43,1.11,1.43c0.72,0,1.17-0.25,1.37-0.74h1.22
	c-0.17,0.53-0.5,0.96-1.01,1.28C363.16,774.14,362.58,774.3,361.91,774.3z M361.23,770.22l-0.05,0.29l2.65-0.01l0.05-0.29
	c0.07-0.47,0.01-0.82-0.17-1.07c-0.18-0.25-0.49-0.37-0.92-0.37c-0.44,0-0.8,0.13-1.06,0.38
	C361.48,769.39,361.31,769.75,361.23,770.22z M368.33,774.3c-0.63,0-1.1-0.21-1.41-0.64c-0.31-0.42-0.4-1-0.27-1.73l0.27-1.77
	c0.11-0.73,0.39-1.31,0.84-1.74c0.44-0.43,0.98-0.64,1.61-0.64c0.47,0,0.83,0.12,1.09,0.35c0.26,0.24,0.39,0.56,0.38,0.96h0.02
	l0.17-1.2h1.24l-1,6.29h-1.22l0.19-1.2h-0.02c-0.12,0.41-0.35,0.73-0.69,0.97C369.2,774.18,368.8,774.3,368.33,774.3z
	 M368.93,773.23c0.39,0,0.72-0.12,0.98-0.36c0.26-0.24,0.43-0.57,0.5-1.01l0.25-1.65c0.07-0.43,0.01-0.76-0.18-1
	c-0.19-0.24-0.47-0.36-0.86-0.36c-0.4,0-0.72,0.12-0.98,0.35c-0.26,0.24-0.42,0.57-0.49,1.01l-0.25,1.65
	c-0.07,0.44-0.01,0.78,0.17,1.01C368.24,773.11,368.53,773.23,368.93,773.23z M376.35,774.19c-0.57,0-0.99-0.16-1.26-0.47
	c-0.27-0.31-0.36-0.75-0.27-1.32l0.54-3.39h-1.74l0.17-1.12h1.74l0.27-1.72h1.24l-0.27,1.72h2.47l-0.18,1.12h-2.46l-0.54,3.39
	c-0.08,0.44,0.1,0.66,0.53,0.66h1.72l-0.17,1.12H376.35z M382.5,774.3c-0.77,0-1.35-0.22-1.73-0.67c-0.38-0.45-0.52-1.04-0.4-1.77
	l0.25-1.65c0.08-0.49,0.26-0.92,0.52-1.28c0.26-0.37,0.6-0.65,1.01-0.85c0.41-0.2,0.87-0.3,1.38-0.3c0.77,0,1.35,0.22,1.73,0.67
	c0.39,0.45,0.52,1.04,0.39,1.77l-0.17,1.12h-3.85l-0.09,0.53c-0.15,0.95,0.22,1.43,1.11,1.43c0.72,0,1.17-0.25,1.37-0.74h1.22
	c-0.17,0.53-0.5,0.96-1.01,1.28C383.76,774.14,383.18,774.3,382.5,774.3z M381.83,770.22l-0.05,0.29l2.65-0.01l0.05-0.29
	c0.07-0.47,0.01-0.82-0.17-1.07c-0.18-0.25-0.49-0.37-0.92-0.37c-0.44,0-0.8,0.13-1.06,0.38
	C382.08,769.39,381.91,769.75,381.83,770.22z M388.92,774.3c-0.63,0-1.1-0.21-1.4-0.64c-0.3-0.42-0.39-1-0.28-1.73l0.27-1.77
	c0.11-0.73,0.39-1.31,0.84-1.74c0.44-0.43,0.98-0.64,1.61-0.64c0.47,0,0.83,0.12,1.09,0.35c0.26,0.24,0.39,0.56,0.38,0.96h0.02
	l0.21-1.47l0.3-1.8h1.24l-1.33,8.35h-1.22l0.19-1.2h-0.02c-0.12,0.41-0.35,0.73-0.69,0.97C389.8,774.18,389.4,774.3,388.92,774.3z
	 M389.53,773.23c0.39,0,0.72-0.12,0.98-0.36c0.26-0.24,0.43-0.57,0.5-1.01l0.25-1.65c0.08-0.43,0.02-0.76-0.17-1
	c-0.19-0.24-0.48-0.36-0.87-0.36c-0.4,0-0.72,0.12-0.98,0.35c-0.26,0.24-0.42,0.57-0.49,1.01l-0.25,1.65
	c-0.08,0.44-0.02,0.78,0.16,1.01C388.83,773.11,389.13,773.23,389.53,773.23z M401.02,774.3c-0.47,0-0.84-0.12-1.1-0.35
	c-0.26-0.23-0.39-0.56-0.38-0.97h-0.01l-0.19,1.2h-1.22l1.33-8.35h1.24l-0.29,1.8l-0.27,1.47h0.05c0.12-0.41,0.35-0.73,0.69-0.97
	c0.34-0.23,0.74-0.35,1.21-0.35c0.63,0,1.1,0.21,1.4,0.64c0.3,0.43,0.39,1.01,0.28,1.74l-0.27,1.77c-0.11,0.73-0.39,1.31-0.84,1.73
	C402.18,774.09,401.64,774.3,401.02,774.3z M400.77,773.23c0.4,0,0.72-0.12,0.98-0.35c0.26-0.23,0.42-0.57,0.5-1.01l0.25-1.65
	c0.07-0.43,0.01-0.77-0.17-1.01c-0.18-0.24-0.47-0.35-0.87-0.35c-0.39,0-0.72,0.12-0.98,0.36c-0.26,0.24-0.43,0.57-0.5,1l-0.25,1.65
	c-0.07,0.44-0.01,0.77,0.17,1.01C400.08,773.11,400.37,773.23,400.77,773.23z M405.47,776.25l0.17-1.06h1.93
	c0.64,0,1.01-0.3,1.1-0.9l0.1-0.67l0.21-1.19h-0.03c-0.12,0.42-0.35,0.74-0.68,0.97c-0.33,0.23-0.73,0.34-1.2,0.34
	c-0.63,0-1.09-0.2-1.4-0.6c-0.31-0.4-0.41-0.94-0.3-1.63l0.58-3.6h1.24l-0.56,3.48c-0.06,0.41,0,0.73,0.18,0.96
	c0.18,0.23,0.47,0.34,0.85,0.34c0.39,0,0.72-0.12,0.98-0.37c0.27-0.24,0.43-0.58,0.49-1.02l0.54-3.4h1.24l-1.01,6.41
	c-0.1,0.6-0.37,1.08-0.81,1.42c-0.44,0.35-1,0.52-1.67,0.52H405.47z M417.79,770.09h3.22l0.54-1.85h-5.47l-1.71,6.44h2.15l0.59-2.1
	h3.03l0.44-1.71h-3.03L417.79,770.09z M424.23,772.92c-0.59,0-1.02-0.39-1.02-1.12c0-0.88,0.63-1.76,1.61-1.76
	c0.49,0,0.88,0.24,1.02,0.78l1.95-0.83c-0.29-1.17-1.27-1.9-2.64-1.9c-2.78,0-4.15,2.15-4.15,3.9c0,1.76,1.27,2.83,3.07,2.83
	c1.37,0,2.34-0.59,2.98-1.42l-1.51-1.17C425.16,772.67,424.72,772.92,424.23,772.92z M430.91,768.23h-2.15l-1.76,6.44h5.12
	l0.49-1.85h-2.93L430.91,768.23z M439.75,771.01c0-1.66-1.32-2.93-3.22-2.93c-2.2,0-3.81,1.81-3.81,3.81c0,1.66,1.32,2.93,3.22,2.93
	C438.14,774.82,439.75,773.01,439.75,771.01z M434.92,771.7c0-0.83,0.59-1.71,1.51-1.71c0.78,0,1.17,0.54,1.17,1.22
	c0,0.83-0.59,1.71-1.51,1.71C435.31,772.92,434.92,772.38,434.92,771.7z M443.21,772.23h1.07l-0.2,0.68
	c-0.15,0.05-0.34,0.1-0.59,0.1c-0.68,0-1.27-0.39-1.27-1.22c0-1.02,0.73-1.9,1.95-1.9c0.59,0,1.12,0.24,1.51,0.59l1.37-1.37
	c-0.44-0.54-1.51-1.07-2.73-1.07c-2.59,0-4.29,1.76-4.29,3.86c0,2.05,1.61,2.88,3.22,2.88c0.93,0,1.85-0.29,2.49-0.68l0.93-3.32
	h-3.12L443.21,772.23z M450.78,768.08c-2.2,0-3.81,1.81-3.81,3.81c0,1.66,1.32,2.93,3.22,2.93c2.2,0,3.81-1.81,3.81-3.81
	C454,769.35,452.68,768.08,450.78,768.08z M450.34,772.92c-0.78,0-1.17-0.54-1.17-1.22c0-0.83,0.59-1.71,1.51-1.71
	c0.78,0,1.17,0.54,1.17,1.22C451.85,772.04,451.27,772.92,450.34,772.92z M437.94,767.5c-0.05,0.29,0.1,0.49,0.44,0.49
	s0.54-0.2,0.63-0.49c0.05-0.24-0.1-0.49-0.44-0.49C438.24,767.01,437.99,767.25,437.94,767.5z M432.13,765.5
	c-0.44,0-0.73,0.24-0.78,0.59c-0.05,0.34,0.1,0.59,0.54,0.59s0.73-0.24,0.78-0.59C432.77,765.74,432.57,765.5,432.13,765.5z
	 M433.01,767.3c-0.1,0.54,0.15,0.88,0.83,0.88c0.63,0,1.07-0.39,1.17-0.88s-0.15-0.88-0.83-0.88
	C433.5,766.43,433.11,766.82,433.01,767.3z M439.6,777.55l-2.44-1.81h-1.51l4.25,3.17l1.61-3.17h-0.98L439.6,777.55z M425.84,767.16
	l-2-1.46l23.13-2.78l-2.15,4.25h1.02l2.68-5.32l-26.99,3.22l2.78,2.1H425.84z M338.72,785.79l0.61-3.83h2.32l-0.08,0.52h-1.76
	l-0.18,1.14h1.63l-0.08,0.52h-1.62l-0.26,1.64H338.72z M342.97,785.84c-0.36,0-0.62-0.1-0.8-0.3c-0.17-0.2-0.23-0.47-0.18-0.82
	l0.27-1.7c0.06-0.34,0.2-0.61,0.44-0.82c0.24-0.2,0.54-0.3,0.89-0.3c0.36,0,0.62,0.1,0.8,0.3c0.17,0.2,0.24,0.47,0.18,0.81
	l-0.27,1.71c-0.06,0.34-0.2,0.62-0.44,0.82C343.63,785.74,343.33,785.84,342.97,785.84z M343.05,785.33c0.19,0,0.35-0.05,0.47-0.16
	c0.12-0.11,0.19-0.26,0.23-0.46l0.27-1.7c0.03-0.2,0.01-0.35-0.08-0.46c-0.08-0.11-0.22-0.16-0.41-0.16s-0.35,0.05-0.46,0.16
	c-0.12,0.1-0.19,0.26-0.22,0.46l-0.27,1.7c-0.03,0.2-0.01,0.35,0.08,0.46C342.72,785.28,342.86,785.33,343.05,785.33z M345,785.79
	l0.61-3.83h1.2c0.24,0,0.44,0.05,0.6,0.14c0.16,0.09,0.28,0.22,0.36,0.39c0.07,0.17,0.09,0.37,0.05,0.59
	c-0.04,0.26-0.14,0.48-0.3,0.67c-0.16,0.19-0.37,0.32-0.6,0.39l0.54,1.64h-0.62l-0.48-1.57h-0.54l-0.25,1.57H345z M345.89,783.71
	h0.64c0.19,0,0.35-0.06,0.48-0.17c0.13-0.11,0.21-0.26,0.24-0.45c0.03-0.19,0-0.35-0.09-0.46c-0.09-0.11-0.24-0.17-0.43-0.17h-0.64
	L345.89,783.71z M349.54,785.79l0.61-3.83h1.25c0.37,0,0.65,0.1,0.84,0.31c0.19,0.21,0.26,0.49,0.2,0.84
	c-0.04,0.23-0.12,0.44-0.25,0.61s-0.29,0.31-0.49,0.4c-0.2,0.09-0.42,0.14-0.66,0.14h-0.69l-0.24,1.52H349.54z M350.43,783.75h0.69
	c0.19,0,0.36-0.06,0.49-0.18c0.14-0.12,0.22-0.27,0.25-0.47c0.03-0.2,0-0.35-0.1-0.47c-0.1-0.12-0.25-0.18-0.44-0.18h-0.69
	L350.43,783.75z M352.75,785.79l0.61-3.83h2.25l-0.08,0.5h-1.7l-0.17,1.09h1.51l-0.08,0.5h-1.51l-0.19,1.24h1.69l-0.08,0.5H352.75z
	 M355.84,785.79l0.61-3.83h1.2c0.24,0,0.44,0.05,0.6,0.14c0.16,0.09,0.28,0.22,0.36,0.39c0.07,0.17,0.09,0.37,0.05,0.59
	c-0.04,0.26-0.14,0.48-0.3,0.67c-0.16,0.19-0.37,0.32-0.6,0.39l0.54,1.64h-0.62l-0.48-1.57h-0.54l-0.25,1.57H355.84z M356.74,783.71
	h0.64c0.19,0,0.35-0.06,0.48-0.17c0.13-0.11,0.21-0.26,0.24-0.45c0.03-0.19,0-0.35-0.09-0.46c-0.09-0.11-0.24-0.17-0.43-0.17h-0.64
	L356.74,783.71z M360.13,785.84c-0.39,0-0.67-0.1-0.87-0.29c-0.19-0.19-0.26-0.45-0.22-0.78h0.57c-0.03,0.17,0.01,0.31,0.12,0.41
	c0.11,0.1,0.27,0.15,0.48,0.15c0.2,0,0.37-0.05,0.5-0.15c0.13-0.1,0.21-0.23,0.24-0.4c0.02-0.15,0-0.28-0.06-0.39
	c-0.06-0.11-0.16-0.18-0.29-0.22l-0.46-0.14c-0.27-0.08-0.46-0.22-0.59-0.41c-0.13-0.19-0.17-0.42-0.13-0.68
	c0.04-0.21,0.11-0.39,0.23-0.55c0.12-0.16,0.27-0.28,0.46-0.37c0.19-0.09,0.4-0.13,0.64-0.13c0.35,0,0.62,0.1,0.8,0.29
	c0.18,0.19,0.25,0.44,0.2,0.76h-0.57c0.03-0.17,0-0.3-0.09-0.4c-0.09-0.1-0.23-0.14-0.42-0.14c-0.19,0-0.34,0.04-0.46,0.13
	c-0.12,0.09-0.19,0.21-0.21,0.38c-0.02,0.15-0.01,0.28,0.05,0.39c0.06,0.11,0.16,0.18,0.29,0.22l0.47,0.15
	c0.26,0.08,0.46,0.22,0.58,0.41c0.12,0.19,0.17,0.42,0.12,0.69c-0.04,0.22-0.12,0.41-0.24,0.57c-0.13,0.16-0.29,0.29-0.49,0.38
	C360.6,785.79,360.38,785.84,360.13,785.84z M363.27,785.84c-0.36,0-0.62-0.1-0.8-0.3c-0.17-0.2-0.23-0.47-0.18-0.82l0.27-1.7
	c0.06-0.34,0.2-0.61,0.44-0.82c0.24-0.2,0.54-0.3,0.89-0.3c0.36,0,0.62,0.1,0.8,0.3c0.17,0.2,0.24,0.47,0.18,0.81l-0.27,1.71
	c-0.06,0.34-0.2,0.62-0.44,0.82C363.92,785.74,363.62,785.84,363.27,785.84z M363.34,785.33c0.19,0,0.35-0.05,0.47-0.16
	c0.12-0.11,0.19-0.26,0.23-0.46l0.27-1.7c0.03-0.2,0.01-0.35-0.08-0.46c-0.08-0.11-0.22-0.16-0.41-0.16c-0.19,0-0.35,0.05-0.46,0.16
	c-0.12,0.1-0.19,0.26-0.22,0.46l-0.27,1.7c-0.03,0.2-0.01,0.35,0.08,0.46C363.02,785.28,363.15,785.33,363.34,785.33z
	 M365.28,785.79l0.61-3.83h0.71l0.62,3.19c0.01-0.1,0.02-0.22,0.03-0.36c0.01-0.14,0.03-0.29,0.04-0.44
	c0.02-0.15,0.04-0.29,0.06-0.41l0.31-1.98h0.52l-0.61,3.83h-0.71l-0.61-3.19c-0.01,0.09-0.02,0.21-0.03,0.34s-0.03,0.28-0.04,0.42
	c-0.02,0.15-0.04,0.28-0.06,0.41l-0.31,2.01H365.28z M368.23,785.79l1.59-3.83h0.75l0.37,3.83h-0.56l-0.07-0.97h-1.09l-0.39,0.97
	H368.23z M369.39,784.34h0.87l-0.09-1.1c-0.02-0.2-0.03-0.37-0.04-0.51c-0.01-0.14-0.01-0.24-0.01-0.3c-0.02,0.06-0.05,0.16-0.1,0.3
	c-0.05,0.14-0.11,0.31-0.19,0.5L369.39,784.34z M371.72,785.79l0.61-3.83h0.57l-0.52,3.31h1.67l-0.08,0.52H371.72z M376.68,785.84
	c-0.37,0-0.63-0.1-0.8-0.3c-0.17-0.2-0.22-0.48-0.17-0.82l0.44-2.76h0.57l-0.44,2.76c-0.03,0.2-0.01,0.35,0.07,0.46
	c0.08,0.11,0.21,0.17,0.41,0.17c0.19,0,0.35-0.06,0.46-0.17c0.12-0.11,0.19-0.27,0.22-0.46l0.44-2.76h0.57l-0.44,2.76
	c-0.06,0.35-0.2,0.62-0.43,0.82C377.35,785.74,377.05,785.84,376.68,785.84z M379.84,785.84c-0.39,0-0.67-0.1-0.87-0.29
	c-0.19-0.19-0.26-0.45-0.22-0.78h0.57c-0.03,0.17,0.01,0.31,0.12,0.41c0.11,0.1,0.27,0.15,0.48,0.15c0.2,0,0.37-0.05,0.5-0.15
	c0.13-0.1,0.21-0.23,0.24-0.4c0.02-0.15,0-0.28-0.06-0.39c-0.06-0.11-0.16-0.18-0.29-0.22l-0.46-0.14
	c-0.27-0.08-0.46-0.22-0.59-0.41c-0.13-0.19-0.17-0.42-0.13-0.68c0.04-0.21,0.11-0.39,0.23-0.55s0.27-0.28,0.46-0.37
	c0.19-0.09,0.4-0.13,0.64-0.13c0.35,0,0.62,0.1,0.8,0.29c0.18,0.19,0.25,0.44,0.2,0.76h-0.57c0.03-0.17,0-0.3-0.09-0.4
	c-0.09-0.1-0.23-0.14-0.42-0.14c-0.19,0-0.34,0.04-0.46,0.13c-0.12,0.09-0.19,0.21-0.21,0.38c-0.02,0.15-0.01,0.28,0.05,0.39
	c0.06,0.11,0.16,0.18,0.29,0.22l0.47,0.15c0.26,0.08,0.46,0.22,0.58,0.41c0.12,0.19,0.17,0.42,0.12,0.69
	c-0.04,0.22-0.12,0.41-0.24,0.57c-0.13,0.16-0.29,0.29-0.49,0.38C380.31,785.79,380.09,785.84,379.84,785.84z M381.91,785.79
	l0.61-3.83h2.25l-0.08,0.5h-1.7l-0.17,1.09h1.51l-0.08,0.5h-1.51l-0.19,1.24h1.69l-0.08,0.5H381.91z M386.94,785.84
	c-0.36,0-0.62-0.1-0.8-0.3c-0.17-0.2-0.23-0.47-0.18-0.82l0.27-1.7c0.06-0.34,0.2-0.61,0.44-0.82c0.24-0.2,0.54-0.3,0.89-0.3
	c0.36,0,0.62,0.1,0.8,0.3c0.17,0.2,0.24,0.47,0.18,0.81l-0.27,1.71c-0.06,0.34-0.2,0.62-0.44,0.82
	C387.6,785.74,387.3,785.84,386.94,785.84z M387.02,785.33c0.19,0,0.35-0.05,0.47-0.16c0.12-0.11,0.19-0.26,0.23-0.46l0.27-1.7
	c0.03-0.2,0.01-0.35-0.08-0.46c-0.08-0.11-0.22-0.16-0.41-0.16c-0.19,0-0.35,0.05-0.46,0.16c-0.12,0.1-0.19,0.26-0.22,0.46
	l-0.27,1.7c-0.03,0.2-0.01,0.35,0.08,0.46C386.7,785.28,386.83,785.33,387.02,785.33z M388.95,785.79l0.61-3.83h0.71l0.62,3.19
	c0.01-0.1,0.02-0.22,0.03-0.36c0.01-0.14,0.03-0.29,0.04-0.44c0.02-0.15,0.04-0.29,0.06-0.41l0.31-1.98h0.52l-0.61,3.83h-0.71
	l-0.61-3.19c-0.01,0.09-0.02,0.21-0.03,0.34c-0.01,0.13-0.03,0.28-0.04,0.42c-0.02,0.15-0.04,0.28-0.06,0.41l-0.31,2.01H388.95z
	 M392.25,785.79l0.61-3.83h0.57l-0.52,3.31h1.67l-0.08,0.52H392.25z M396.12,785.79l0.22-1.41l-0.75-2.42h0.58l0.45,1.45
	c0.03,0.09,0.05,0.18,0.07,0.27c0.02,0.08,0.03,0.15,0.03,0.19c0.02-0.04,0.05-0.1,0.09-0.19c0.04-0.08,0.09-0.17,0.14-0.27
	l0.9-1.45h0.6l-1.53,2.42l-0.22,1.41H396.12z M399.22,785.79l0.61-3.83h0.71l0.62,3.19c0.01-0.1,0.02-0.22,0.03-0.36
	c0.01-0.14,0.03-0.29,0.04-0.44c0.02-0.15,0.04-0.29,0.06-0.41l0.31-1.98h0.52l-0.61,3.83h-0.71l-0.61-3.19
	c-0.01,0.09-0.02,0.21-0.03,0.34c-0.01,0.13-0.03,0.28-0.04,0.42c-0.02,0.15-0.04,0.28-0.06,0.41l-0.31,2.01H399.22z M403.51,785.84
	c-0.36,0-0.62-0.1-0.8-0.3c-0.18-0.2-0.23-0.47-0.18-0.82l0.27-1.7c0.06-0.34,0.2-0.61,0.44-0.82c0.24-0.2,0.54-0.3,0.89-0.3
	c0.36,0,0.62,0.1,0.8,0.3c0.17,0.2,0.24,0.47,0.18,0.81l-0.27,1.71c-0.06,0.34-0.2,0.62-0.44,0.82
	C404.16,785.74,403.86,785.84,403.51,785.84z M403.58,785.33c0.19,0,0.35-0.05,0.47-0.16c0.12-0.11,0.19-0.26,0.23-0.46l0.27-1.7
	c0.03-0.2,0.01-0.35-0.08-0.46c-0.08-0.11-0.22-0.16-0.41-0.16c-0.19,0-0.35,0.05-0.46,0.16c-0.12,0.1-0.19,0.26-0.22,0.46
	l-0.27,1.7c-0.03,0.2-0.01,0.35,0.08,0.46C403.26,785.28,403.4,785.33,403.58,785.33z M406.38,785.79l0.52-3.31h-1.02l0.08-0.52
	h2.62l-0.08,0.52h-1.03l-0.52,3.31H406.38z M409.52,785.79l0.61-3.83h2.32l-0.08,0.52h-1.76l-0.18,1.14h1.63l-0.08,0.52h-1.62
	l-0.26,1.64H409.52z M413.77,785.84c-0.36,0-0.62-0.1-0.8-0.3c-0.18-0.2-0.23-0.47-0.18-0.82l0.27-1.7c0.06-0.34,0.2-0.61,0.44-0.82
	c0.24-0.2,0.54-0.3,0.89-0.3c0.36,0,0.62,0.1,0.8,0.3c0.17,0.2,0.24,0.47,0.18,0.81l-0.27,1.71c-0.06,0.34-0.2,0.62-0.44,0.82
	C414.42,785.74,414.13,785.84,413.77,785.84z M413.85,785.33c0.19,0,0.35-0.05,0.47-0.16c0.12-0.11,0.19-0.26,0.23-0.46l0.27-1.7
	c0.03-0.2,0.01-0.35-0.08-0.46c-0.08-0.11-0.22-0.16-0.41-0.16c-0.19,0-0.35,0.05-0.46,0.16c-0.12,0.1-0.19,0.26-0.22,0.46
	l-0.27,1.7c-0.03,0.2-0.01,0.35,0.08,0.46C413.52,785.28,413.66,785.33,413.85,785.33z M415.8,785.79l0.61-3.83h1.2
	c0.24,0,0.44,0.05,0.6,0.14c0.16,0.09,0.28,0.22,0.36,0.39c0.07,0.17,0.09,0.37,0.05,0.59c-0.04,0.26-0.14,0.48-0.3,0.67
	c-0.16,0.19-0.37,0.32-0.6,0.39l0.54,1.64h-0.62l-0.48-1.57h-0.54l-0.25,1.57H415.8z M416.69,783.71h0.64
	c0.19,0,0.35-0.06,0.48-0.17c0.13-0.11,0.21-0.26,0.24-0.45c0.03-0.19,0-0.35-0.09-0.46c-0.09-0.11-0.24-0.17-0.43-0.17h-0.64
	L416.69,783.71z M420.91,785.84c-0.36,0-0.63-0.1-0.81-0.3c-0.18-0.2-0.24-0.47-0.19-0.82l0.27-1.7c0.06-0.35,0.21-0.62,0.45-0.82
	s0.55-0.3,0.91-0.3c0.36,0,0.63,0.1,0.81,0.3c0.18,0.2,0.24,0.47,0.19,0.82h-0.57c0.03-0.2,0-0.35-0.09-0.46
	c-0.09-0.11-0.23-0.16-0.42-0.16c-0.19,0-0.35,0.05-0.48,0.16c-0.12,0.1-0.2,0.26-0.23,0.45l-0.27,1.71c-0.03,0.2,0,0.35,0.09,0.46
	c0.09,0.11,0.23,0.16,0.42,0.16c0.19,0,0.35-0.05,0.47-0.16c0.12-0.11,0.2-0.26,0.23-0.46h0.57c-0.03,0.23-0.11,0.43-0.24,0.59
	c-0.12,0.17-0.28,0.3-0.47,0.39C421.36,785.79,421.14,785.84,420.91,785.84z M424.03,785.84c-0.36,0-0.62-0.1-0.8-0.3
	c-0.18-0.2-0.23-0.47-0.18-0.82l0.27-1.7c0.06-0.34,0.2-0.61,0.44-0.82c0.24-0.2,0.54-0.3,0.89-0.3c0.36,0,0.62,0.1,0.8,0.3
	c0.17,0.2,0.24,0.47,0.18,0.81l-0.27,1.71c-0.06,0.34-0.2,0.62-0.44,0.82C424.69,785.74,424.39,785.84,424.03,785.84z
	 M424.11,785.33c0.19,0,0.35-0.05,0.47-0.16c0.12-0.11,0.19-0.26,0.23-0.46l0.27-1.7c0.03-0.2,0.01-0.35-0.08-0.46
	c-0.08-0.11-0.22-0.16-0.41-0.16c-0.19,0-0.35,0.05-0.46,0.16c-0.12,0.1-0.19,0.26-0.22,0.46l-0.27,1.7
	c-0.03,0.2-0.01,0.35,0.08,0.46C423.79,785.28,423.92,785.33,424.11,785.33z M425.97,785.79l0.61-3.83h0.69l0.18,1.23
	c0.02,0.12,0.04,0.23,0.05,0.33c0.01,0.1,0.02,0.18,0.03,0.24c0.02-0.06,0.05-0.14,0.09-0.24c0.04-0.11,0.09-0.22,0.15-0.34
	l0.57-1.22h0.71l-0.61,3.83h-0.54l0.2-1.29c0.02-0.17,0.06-0.35,0.1-0.55c0.04-0.2,0.09-0.4,0.14-0.61c0.05-0.2,0.1-0.4,0.14-0.59
	c0.05-0.19,0.09-0.35,0.13-0.49l-0.86,1.86h-0.55l-0.28-1.86c0,0.14-0.01,0.29-0.02,0.47c-0.01,0.18-0.02,0.37-0.04,0.57
	c-0.02,0.2-0.04,0.41-0.06,0.61c-0.02,0.2-0.05,0.4-0.08,0.57l-0.2,1.29H425.97z M429.11,785.79l0.61-3.83h0.69l0.18,1.23
	c0.02,0.12,0.04,0.23,0.05,0.33c0.01,0.1,0.02,0.18,0.03,0.24c0.02-0.06,0.05-0.14,0.09-0.24c0.04-0.11,0.09-0.22,0.15-0.34
	l0.57-1.22h0.71l-0.61,3.83h-0.54l0.2-1.29c0.02-0.17,0.06-0.35,0.1-0.55c0.04-0.2,0.09-0.4,0.14-0.61c0.05-0.2,0.1-0.4,0.14-0.59
	c0.05-0.19,0.09-0.35,0.13-0.49l-0.86,1.86h-0.55l-0.28-1.86c0,0.14-0.01,0.29-0.02,0.47c-0.01,0.18-0.02,0.37-0.04,0.57
	c-0.02,0.2-0.04,0.41-0.06,0.61c-0.02,0.2-0.05,0.4-0.08,0.57l-0.2,1.29H429.11z M432.41,785.79l0.61-3.83h2.25l-0.08,0.5h-1.7
	l-0.17,1.09h1.51l-0.08,0.5h-1.51l-0.19,1.24h1.69l-0.08,0.5H432.41z M435.51,785.79l0.61-3.83h1.2c0.24,0,0.44,0.05,0.6,0.14
	c0.16,0.09,0.28,0.22,0.36,0.39c0.07,0.17,0.09,0.37,0.05,0.59c-0.04,0.26-0.14,0.48-0.3,0.67c-0.16,0.19-0.37,0.32-0.6,0.39
	l0.54,1.64h-0.62l-0.48-1.57h-0.54l-0.25,1.57H435.51z M436.4,783.71h0.64c0.19,0,0.35-0.06,0.48-0.17
	c0.13-0.11,0.21-0.26,0.24-0.45c0.03-0.19,0-0.35-0.09-0.46c-0.09-0.11-0.24-0.17-0.43-0.17h-0.64L436.4,783.71z M439.8,785.84
	c-0.36,0-0.63-0.1-0.81-0.3c-0.18-0.2-0.24-0.47-0.19-0.82l0.27-1.7c0.06-0.35,0.21-0.62,0.45-0.82s0.55-0.3,0.91-0.3
	c0.36,0,0.63,0.1,0.81,0.3c0.18,0.2,0.24,0.47,0.19,0.82h-0.57c0.03-0.2,0-0.35-0.09-0.46c-0.09-0.11-0.23-0.16-0.42-0.16
	c-0.19,0-0.35,0.05-0.47,0.16c-0.12,0.1-0.2,0.26-0.23,0.45l-0.27,1.71c-0.03,0.2,0,0.35,0.09,0.46c0.09,0.11,0.23,0.16,0.42,0.16
	s0.35-0.05,0.47-0.16c0.12-0.11,0.2-0.26,0.23-0.46h0.57c-0.03,0.23-0.11,0.43-0.24,0.59c-0.12,0.17-0.28,0.3-0.47,0.39
	C440.25,785.79,440.04,785.84,439.8,785.84z M441.88,785.79l0.08-0.5h0.78l0.45-2.82h-0.78l0.08-0.5h2.13l-0.08,0.5h-0.78
	l-0.45,2.82h0.78l-0.08,0.5H441.88z M444.74,785.79l1.59-3.83h0.75l0.37,3.83h-0.56l-0.07-0.97h-1.09l-0.39,0.97H444.74z
	 M445.9,784.34h0.87l-0.09-1.1c-0.02-0.2-0.03-0.37-0.04-0.51c-0.01-0.14-0.01-0.24-0.01-0.3c-0.02,0.06-0.05,0.16-0.1,0.3
	c-0.05,0.14-0.11,0.31-0.19,0.5L445.9,784.34z M448.24,785.79l0.61-3.83h0.57l-0.52,3.31h1.67l-0.08,0.52H448.24z M453.19,785.84
	c-0.37,0-0.63-0.1-0.8-0.3c-0.17-0.2-0.22-0.48-0.17-0.82l0.44-2.76h0.57l-0.44,2.76c-0.03,0.2-0.01,0.35,0.07,0.46
	c0.08,0.11,0.21,0.17,0.41,0.17c0.19,0,0.35-0.06,0.46-0.17c0.12-0.11,0.19-0.27,0.22-0.46l0.44-2.76h0.57l-0.44,2.76
	c-0.06,0.35-0.2,0.62-0.43,0.82C453.86,785.74,453.56,785.84,453.19,785.84z M456.36,785.84c-0.39,0-0.67-0.1-0.87-0.29
	c-0.19-0.19-0.26-0.45-0.22-0.78h0.57c-0.03,0.17,0.01,0.31,0.12,0.41c0.11,0.1,0.27,0.15,0.48,0.15c0.2,0,0.37-0.05,0.5-0.15
	s0.21-0.23,0.24-0.4c0.02-0.15,0-0.28-0.06-0.39c-0.06-0.11-0.16-0.18-0.29-0.22l-0.46-0.14c-0.27-0.08-0.46-0.22-0.59-0.41
	c-0.13-0.19-0.17-0.42-0.13-0.68c0.04-0.21,0.11-0.39,0.23-0.55c0.12-0.16,0.27-0.28,0.46-0.37c0.19-0.09,0.4-0.13,0.64-0.13
	c0.35,0,0.62,0.1,0.8,0.29c0.18,0.19,0.25,0.44,0.2,0.76h-0.57c0.03-0.17,0-0.3-0.09-0.4c-0.09-0.1-0.23-0.14-0.42-0.14
	c-0.19,0-0.34,0.04-0.46,0.13c-0.12,0.09-0.19,0.21-0.21,0.38c-0.02,0.15-0.01,0.28,0.05,0.39c0.06,0.11,0.16,0.18,0.29,0.22
	l0.47,0.15c0.26,0.08,0.46,0.22,0.58,0.41c0.12,0.19,0.17,0.42,0.12,0.69c-0.04,0.22-0.12,0.41-0.24,0.57
	c-0.13,0.16-0.29,0.29-0.49,0.38C456.82,785.79,456.6,785.84,456.36,785.84z M458.42,785.79l0.61-3.83h2.25l-0.08,0.5h-1.7
	l-0.17,1.09h1.51l-0.08,0.5h-1.51l-0.19,1.24h1.69l-0.08,0.5H458.42z"/>
<path d="M463.13,330.21c2.41-2.35,4.62-4.93,6.52-7.75c2.73-3.96,2.24-9.3-1.15-12.7c-3.89-3.9-10.2-3.9-14.1-0.01
	c0.99-4.6-1.37-9.28-5.67-11.2c-5.03-2.25-10.93-0.01-13.18,5.02c-1.39,3.12-2.4,6.37-3.12,9.67c-2.14-0.73-4.31-1.38-6.51-1.96
	c1.24-3.14,2.21-6.39,2.8-9.75c0.51-4.94-2.69-9.51-7.51-10.71c-5.34-1.33-10.75,1.92-12.09,7.27c-0.6,3.35-0.81,6.73-0.71,10.1
	c-2.8-0.23-5.61-0.43-8.46-0.43c-0.02,0-0.03,0-0.05,0c-8.89,0-17.46,1.28-25.66,3.45c-0.49-3.35-1.28-6.67-2.46-9.89
	c-2.02-4.61-7.15-7-11.98-5.57c-5.28,1.57-8.29,7.12-6.72,12.4c1.16,3.21,2.67,6.25,4.43,9.12c-1.99,0.93-3.99,1.86-5.9,2.91
	c-1.27-3.1-2.82-6.09-4.71-8.9c-2.65-3.98-7.74-5.52-12.15-3.67c-5.08,2.13-7.48,7.97-5.35,13.05v0.45
	c-3.64-2.18-8.26-1.81-11.51,0.91c-4.22,3.53-4.78,9.82-1.25,14.05c2.31,2.4,4.87,4.52,7.58,6.39
	c-15.23,17.59-24.5,40.47-24.49,65.56c0,55.32,44.85,100.16,100.16,100.16c0.03,0,0.07,0,0.1,0c37.82-0.02,70.72-21.01,87.76-51.95
	c-14.38,37.8-41.7,42.95-41.7,83.81c-0.01,3.62,0.24,7.24,0.75,10.82l15.31-8.87c0-0.85,0-1.74,0-2.64
	c0-24.03,30.56-36.25,26.67-85.11l-0.04,0.07c2.92-5.58,5.34-11.46,7.17-17.6c5.13,25.54,21,47.63,43.57,60.65l13.11-7.68
	c6.27-3.62,12.15-7.88,17.55-12.71c-1,0-1.99,0-2.99,0c-24.93,0-44.87-23.88-44.87-53.45c0-44.47,33.8-69.25,33.8-123.25
	c0.52-12.83-2.41-25.57-8.48-36.89c0,45.77-38.89,66.81-50.71,119.66c0.03,0.13,0.06,0.26,0.09,0.39
	C491.65,362.18,479.61,343.61,463.13,330.21z M497.38,431.07c0.12-0.5,0.27-0.98,0.38-1.48
	C497.65,430.09,497.49,430.58,497.38,431.07z M498.67,424.59c0.2-1.2,0.39-2.4,0.55-3.62C499.07,422.18,498.87,423.39,498.67,424.59
	z M499.75,416.13c0.13-1.56,0.18-3.14,0.24-4.72C499.93,412.99,499.88,414.56,499.75,416.13z M499.36,395.84
	c-0.15-1.25-0.37-2.48-0.57-3.71C498.99,393.37,499.21,394.6,499.36,395.84z M500.03,405.3c-0.05-1.76-0.13-3.51-0.27-5.25
	C499.9,401.8,499.98,403.54,500.03,405.3z M399.9,503.19c-52.48,0-95.18-42.7-95.18-95.18c-0.01-24.09,9.04-46.07,23.84-62.86
	c4.95,2.71,10.35,4.59,15.99,5.48c-0.71-5.67-2.45-11.13-5.01-16.22c0.33-0.27,0.69-0.5,1.02-0.77c4.43,3.47,9.4,6.22,14.76,8.01
	c0.29-5.66-0.42-11.28-2-16.64c2.29-1.29,4.65-2.46,7.05-3.56c3.39,4.43,7.51,8.29,12.25,11.37c1.65-5.41,2.33-11.02,2.1-16.59
	c8.03-2.21,16.45-3.5,25.18-3.5h0.05h0c2.99,0,5.93,0.18,8.85,0.45c0.73,5.56,2.38,10.99,4.96,16.05c4.12-3.87,7.5-8.4,10.07-13.35
	c2.63,0.68,5.22,1.47,7.76,2.37c-0.62,5.54-0.34,11.17,0.92,16.67c4.88-2.78,9.21-6.39,12.89-10.62c0.39,0.21,0.75,0.47,1.14,0.69
	c-1.52,5.41-2.17,11.03-1.81,16.65c5.31-1.85,10.22-4.59,14.57-8.04c21.83,17.46,35.87,44.25,35.89,74.3
	C495.2,460.42,452.51,503.16,399.9,503.19z M117.21,548.86l-19.59,14.26l-6.78-9.32L138,519.54l13.66,18.8l-8.73,6.38L136,535.2
	l-10.07,7.33l6.23,8.58l-8.73,6.33L117.21,548.86z M146.67,596.92c-4.59,4.14-12.86,10.67-23.98-1.7
	c-7.23-7.98-7.78-16.1,0.35-23.38l32.16-28.97l7.68,8.53l-28.07,25.23c-3.29,2.99-8.18,7.48-4.39,11.67
	c3.79,4.19,6.93,1.35,10.22-1.5l29.91-26.87l7.73,8.53L146.67,596.92z M208.4,594.58l-25.53,13.66L172,640.1l-9.27-7.78l10.97-29.57
	l-0.15-0.1l-19.05,22.73l-8.82-7.38l37.44-44.67l8.82,7.43l-16.75,19.94l0.15,0.1L199.42,587L208.4,594.58z M241.35,616.91
	l-23.13,35.65c-3.39,5.19-9.67,13.61-23.63,4.59c-9.02-5.88-11.67-13.56-5.73-22.74l23.58-36.5l9.67,6.53l-20.54,31.66
	c-2.39,3.69-5.73,9.27-1.25,12.36c4.49,3.09,7.08-0.5,9.47-4.09l21.94-33.75L241.35,616.91z M253.62,669.11
	c-4.54,9.32-13.06,13.71-23.03,8.97c-3.16-1.52-5.8-3.95-7.58-6.98l4.99-9.97c1.4,2.84,3.67,5.16,6.48,6.63
	c0.17,0.1,0.33,0.18,0.51,0.26c3.13,1.44,6.83,0.07,8.27-3.05c1.94-4.04-0.5-7.13-2.39-10.62c-3.99-6.93-6.03-12.07-2.04-20.29
	c3.99-8.23,12.31-13.06,21.19-8.73c3.24,1.57,5.98,4,7.93,7.03l-5.14,10.17c-1.06-2.96-3.15-5.44-5.88-6.98
	c-0.27-0.16-0.55-0.3-0.84-0.41c-2.72-1.06-5.78,0.29-6.84,3.01C244.99,646.78,260.55,654.95,253.62,669.11z M307.66,646.38
	l-20.89,54.39l-10.72-4.09l8.82-23.03l-10.92-4.19l-8.82,23.03l-10.77-4.14l20.89-54.39l10.77,4.09l-8.18,21.29l10.92,4.19
	l8.13-21.29L307.66,646.38z M326.56,650.82l-15.08,56.3l-11.12-2.98l15.09-56.3L326.56,650.82z M360.66,656.9l15.31,2.14
	l-2.04,58.58l-11.72-1.65L365.3,674h-0.15l-3.84,13.96l-8.73,26.67l-8.82-1.25l-1.7-28.42l-0.1-13.16l0.15-1.05l-0.15-0.05
	l-7.53,41.33l-12.26-1.7l13.16-57.04l15.01,2.14l0.8,34.85h0.15L360.66,656.9z M394.02,659.34l-12.51,58.53h11.42l1.94-9.97h11.67
	l2.34,9.97h12.27l-14.96-58.03L394.02,659.34z M396.56,698.48l2.19-15.56l1.15-8.63l1.45,8.77l3.34,15.41H396.56z M473.79,694.74
	c0.95,6.08,1.94,16.6-14.51,19.2c-10.62,1.65-17.7-2.29-19.44-13.06l-6.73-42.78l11.37-1.55l5.88,37.29
	c0.7,4.29,1.79,10.87,7.38,9.97c5.58-0.9,4.89-5.09,4.34-9.37l-6.33-39.89l11.42-1.84L473.79,694.74z M508.89,640.35l17.05,55.74
	l-10.42,3.19l-23.88-29.47l2.24,5.43l0.75,2.29l8.13,25.58l-11.02,3.34l-17.05-55.74l10.27-3.34l24.03,29.47
	c-1.45-2.59-2.6-5.33-3.44-8.18l-7.68-24.93L508.89,640.35z M526.9,632.71l21.83,54.04l-10.68,4.31l-21.83-54.04L526.9,632.71z
	 M555.36,630.57l22.29,41.93l-10.17,5.38l-22.29-41.93l-7.98,4.29l-5.09-9.57l26.18-13.91l5.09,9.52L555.36,630.57z M608.55,641.04
	l5.88,9.07l-19.54,12.71l-31.76-48.91l19.44-12.61l5.88,9.07l-9.77,6.33l6.93,10.62l8.58-5.58l5.93,9.07l-8.63,5.63l7.13,11.02
	L608.55,641.04z M595.59,591.34l-6.68,5.63l37.44,44.62l7.88-6.58c13.91-11.67,11.07-24.93,0.4-37.79
	C613.74,572.29,597.14,590.04,595.59,591.34z M628.5,626.23l-24.19-28.72c7.28-6.13,16.6,1.4,21.39,7.08
	C630.48,610.27,635.79,620.59,628.5,626.23z M659.96,577.13l17.95,16.2l-7.68,8.58l-43.33-38.99l15.56-17.3l8.08,7.23l-7.88,8.73
	l9.22,8.33l7.13-7.88l8.03,7.28L659.96,577.13z M710.31,551.3c-0.42,1.8-1.2,3.49-2.29,4.99c-9.97,13.46-28.17,11.62-39.89,3.09
	c-11.72-8.53-18.1-24.98-8.87-37.64c1.19-1.62,2.66-3.02,4.34-4.14l8.77,6.13c-1.16,0.89-2.19,1.95-3.04,3.14
	c-5.98,8.18-0.9,17.35,6.13,22.44c7.03,5.09,18.25,7.78,24.13-0.35c0.86-1.25,1.52-2.63,1.94-4.09L710.31,551.3z M373.97,472.97
	h6.83v23.73h-4.54v-19.64h-2.29V472.97z M391.52,472.58c-4.74,0-6.63,4.44-6.63,8.68c0,2.84,1.2,7.38,4.99,7.38
	c1.12-0.01,2.18-0.48,2.94-1.3l-4.54,9.27l4.44,0.05l1.94-4.04c1.99-3.6,3.14-7.61,3.34-11.72
	C398.01,476.76,396.26,472.58,391.52,472.58z M391.32,484.54c-1.79,0-1.84-2.54-1.84-3.69c0-1.15,0.45-4.19,1.99-4.19v0.05
	c1.6,0,1.99,2.59,1.99,3.74S393.12,484.54,391.32,484.54z M401.45,472.97h12.81l-8.97,23.73h-4.84l7.38-19.64h-6.38V472.97z
	 M416.85,472.97h12.81l-8.97,23.73h-4.84l7.38-19.64h-6.38V472.97z M467.21,349.68c-0.25,0-0.8-0.4-1.2-0.5
	c-0.4-0.1-0.55-0.65-0.95-0.65c-1.02,0.26-2,0.63-2.94,1.1c-0.4,0.3-0.4,2.04-0.4,2.29c0,0.25,0.45,0.85,0.4,1.2
	c-0.05,0.35-0.75,0.9-0.75,1.3c-0.05,0.3-0.05,0.6,0,0.9c-0.07,0.51-0.07,1.03,0,1.55c0,0.4,0.35,3.04,0,3.04
	c-0.91,0.09-1.83,0.09-2.74,0c-0.46,0.03-0.93,0.03-1.4,0c-0.8-0.15-2.29-0.95-2.44-1c-0.15-0.05-0.75,0.95-0.75,0.95
	c1.06,0.59,2,1.37,2.79,2.29c-0.23,0.18-0.48,0.33-0.75,0.45c-1.18-0.78-2.5-1.32-3.89-1.6c-0.57,0.15-1.1,0.42-1.55,0.8
	c-0.1-0.35-0.65-2.04-1.15-2.04c-0.51-0.22-1.05-0.37-1.6-0.45c0,0-0.9-1.05-0.9-1.35c-0.08-0.68-0.08-1.37,0-2.04
	c0.05-1.15,0.7-1.94,0.7-2.24s-0.8-1.4-0.8-1.94c0-0.55,0.7-1.25,0.65-1.45c-0.05-0.2-0.9-0.45-1.2-0.55c-0.3-0.1-1.2-0.8-1.4-0.8
	c-0.2,0-0.8,0.3-1.45,0.3c-0.44,0.1-0.9,0.1-1.35,0c-0.55-0.25-0.45-1.5-0.85-1.6c-0.4-0.1-0.75,1-1.79,0.8
	c-1.05-0.2-1.6-1.65-2.34-1.5c-0.75,0.15-0.75,1.15-0.75,1.15c-0.71,0.16-1.42,0.28-2.14,0.35h-2.29c-0.45,0.05-0.6,0.45-0.8,0.45
	c-0.2,0-0.95,0-0.95,0h-0.35c-0.72-0.72-1.21-1.64-1.4-2.64c-0.15-1.05,0.35-2.29,0.35-2.29c-1.09-0.36-2.21-0.63-3.34-0.8
	l-1.94-0.95v-1.15c-0.15,0-0.35-0.1-1.2,0c-0.85,0.1-0.45,2.04-0.85,2.19c-0.4,0.15-1.45-0.9-2.09-0.65
	c-0.65,0.25-0.35,0.9-0.65,0.9c-1.06-0.15-2.09-0.49-3.04-1c-0.6-0.38-1.19-0.8-1.74-1.25c-0.4,0-1.1-0.7-1.55-0.7
	c-0.31,0.42-0.5,0.92-0.55,1.45c0,1.2,0.7,2.74,0.7,3.44c0,0.7-1.15,1.05-1.15,1.89c-0.15,1.79-0.15,3.59,0,5.38
	c-0.24,1.1-0.43,2.22-0.55,3.34c0.05,0.55,1.25,1.3,1.84,1.65c0.6,0.35,1.2,0.3,1.1,0.95c-0.1,0.65-1,0.75-1.3,1.2
	c-0.22,0.55-0.39,1.11-0.5,1.7c-0.25,0.35-1.5,1.2-1.84,1.74c-0.35,0.55-1.05,1.65-1.35,2.19c-0.55,0.07-1.1,0.07-1.65,0
	c-1.3-0.45-2.63-0.79-3.99-1c-0.77,0.03-1.52,0.18-2.24,0.45c-0.3,0.15-0.25,1.35-0.6,1.35c-0.9,0.31-1.89,0.31-2.79,0
	c-0.8-0.4-1.3-1.8-1.65-2.14c-0.35-0.35-1-0.05-1.5-0.35c-0.5-0.3-1.4-1.99-1.6-1.89c-0.2,0.1-1.15,1-1.35,1.05
	c-0.2,0.05-2.94,1.05-3.79,1.05c-0.37-0.2-0.75-0.39-1.15-0.55c0-0.3,0.1-0.8,0-1.1c-0.1-0.3-0.65-0.3-0.65-0.65
	c-0.27-0.57-0.5-1.15-0.7-1.74c0-0.6,0.1-1.65,0-1.94c-0.1-0.3-1.15-0.5-1.25-0.6c-0.1-0.1-0.55-1.45-1.2-1.25
	c-0.65,0.2-0.2,1.65-0.65,1.65c-0.45,0-0.9,0-1.35,0c-0.79,0.33-1.64,0.51-2.49,0.55c-0.1-0.05-1.55-1.74-1.79-1.69
	c-0.25,0.05-1.45,0.85-1.7,1.15c-0.25,0.3-0.45-0.1-1.2,0.3c-0.75,0.4-1.1,1-1.3,0.95c-0.2-0.05-0.5-0.75-0.6-1.15
	c-0.1-0.4-0.2,0.3-0.65-0.4c-0.45-0.7-1.05-1.45-1.05-1.45l-1.55,0.5c-0.4,0.3-0.75,0.6-1.1,0.6c-0.35,0-0.75,0-1.1,0v0.6
	c-0.1,0-0.9,0-0.9,0c-0.49,0.45-0.94,0.93-1.35,1.45c-0.1,0.2-0.45,0.45-0.8,0.65c-0.35,0.2-0.35,0.65-0.35,0.65
	c-0.9,0.82-1.72,1.72-2.44,2.69c-0.28,0.34-0.58,0.65-0.9,0.95c-0.15,0.3-0.25,1.55-0.45,1.84c-0.2,0.3-2.39,2.69-2.79,3.29
	c-0.4,0.6,0.5,1.84,0.5,1.84c-0.44,0.08-0.88,0.19-1.3,0.35c-0.45,0.65-1,1.94-1.2,1.94c-0.2,0-0.25-0.45-0.75,0
	s-1.74,1.05-1.89,1.45c-0.15,0.4-1.55,0.2-1.6,0.4c-0.05,0.2,0.35,0.6,0.3,0.85c-0.05,0.25-0.6,0.85-0.65,1.25
	c-0.05,0.4,0.45,0.85,0.5,1.25c0.05,0.4-0.45,0.4-0.35,0.85c0.1,0.45,1.1,0.9,1.4,1.35c0.15,0.54,0.25,1.09,0.3,1.65
	c0.17,0.48,0.29,0.99,0.35,1.5c-0.11,0.56-0.11,1.14,0,1.7c-0.05,0.56-0.05,1.13,0,1.69c0.35,0.65,1.45,1.2,1.55,1.35
	c0.1,0.15-0.45,1.05-0.45,1.4c-0.39,0.47-0.89,0.84-1.45,1.1c-0.6,0.05-3.19-1.3-3.49-1.25s-0.7,0.4-1.25,0.5
	c-0.55,0.1-1.3-0.4-1.55-0.4c-0.25,0-1.2,0.85-1.45,0.9c-0.25,0.05-1.5-1.35-1.89-1.5c-0.4-0.15-1,0.4-1.65,0.4
	c-0.59,0.06-1.16,0.23-1.7,0.5c0,0.25,0.05,0.55,0,1.1c-0.05,0.55-0.6,2.04-0.6,2.39c0,0.35,0,1,0,1c-0.16,0.22-0.37,0.4-0.6,0.55
	c-0.15,0.04-0.3,0.04-0.45,0c-0.32-0.11-0.62-0.26-0.9-0.45c-0.1,0,0.15,0.15-0.6,0c-0.75-0.15-0.7-0.7-1.45-0.55
	c-0.75,0.15-1.35,1.05-1.75,1.05c-0.4,0-1.2,0-1.2,0c-0.54,0.03-1.08,0.13-1.6,0.3l-3.59,0.95c-0.25,0.35-0.95,0-0.95,0
	c-0.39,0.09-0.76,0.24-1.1,0.45c-0.5,0.35-1.55,0-1.55,0c-0.32,0.26-0.6,0.58-0.8,0.95c-0.2,0.34-0.39,0.69-0.55,1.05
	c0,0.2,0,1.05,0,1.3c-0.17,0.24-0.35,0.48-0.55,0.7c0.45,0.3,0.7,1.5,1,1.99c0.3,0.5,1.05,0,1.5,0.5c0.4,0.51,0.63,1.14,0.65,1.79
	c0.3,0.55,0,0.95,0,1.35c0.07,0.53,0.07,1.07,0,1.6c-0.4,0.75-1.1,0.85-1.15,1.05c-0.05,0.2,0.4,1.45,0.35,1.75
	c-0.05,0.3-0.4,0.4-0.65,1.1c-0.25,0.7,0.3,1.6-0.25,2.24c-0.55,0.65-1.99,1.89-2.99,3.24c-0.55,0.65-0.89,1.45-1,2.29
	c0,0.6,1.5,2.19,2.34,3.19c0.21,0.42,0.33,0.88,0.35,1.35c0.31,0.07,0.64,0.07,0.95,0c0.34-0.49,0.64-1.01,0.9-1.55
	c0.4,0.2,0.95,1.65,1.55,2.39c0.35,0.58,0.58,1.23,0.7,1.89c0,0.25,0.8,0.5,0.7,1c-0.1,0.5-0.15,1.15-0.55,1.7
	c-0.4,0.55-0.3,1.6-0.4,2.04c-0.1,0.45-0.55,0.65-0.55,1.1c-0.11,0.81-0.11,1.63,0,2.44c0.05,0.6,1.05,1,1.05,1.3s0.05,0.2,0,0.9
	c-0.05,0.7,1.05,2.09,1.05,2.79c0,0.7-1.25,2.54-1.35,3.34c-0.1,0.8,0.95,2.39,0.9,2.89c-0.05,0.5-0.5,0.75-0.5,1
	c0.13,0.57,0.13,1.17,0,1.75c-0.1,0.35-0.5,0.8-0.5,1.15c-0.01,0.25-0.01,0.5,0,0.75c-0.23,0.18-0.51,0.28-0.8,0.3
	c0.05,0.05-0.5,0.35-0.3,0.7c0.2,0.35,0.4,1,0.95,0.95c0.55-0.05,1.05-1.2,1.94-0.95c0.9,0.25,1.15,0.7,1.45,0.7s1.15,0,1.15,0
	l0.95,0.8c0.56-0.04,1.13-0.04,1.7,0c0.44,0.01,0.88-0.11,1.25-0.35c0.35-0.15,0.85,0.9,0.85,1.25c0.61-0.07,1.23-0.07,1.84,0
	c0.35,0.05,0.65,0.65,1.05,0.65c0.28,0.05,0.57,0.05,0.85,0c-0.61-0.66-1.04-1.47-1.25-2.34c0.7-0.45,1.79,0.2,2.09,0
	c0.3-0.2,0.15-1.5,0.75-1.89c0.6-0.4,1.25-0.6,1.6-1.3c0.35-0.7,0.05-1.45,0.35-1.45c0.65-0.29,1.34-0.49,2.04-0.6
	c0.5,0,0.5,0.5,0.5,0.5c0.39,0.15,0.81,0.15,1.2,0c0.3-0.25,0.35-0.5,1-1c0.65-0.5,1.4,0,1.79-0.5c0.38-0.58,0.87-1.07,1.45-1.45
	c0.15-0.1,1.65-0.35,1.89-0.75c0.25-0.4,0.25-1.2,0.55-1.2c0.3,0,1.4,0,1.99,0c0.43-0.1,0.84-0.29,1.2-0.55
	c0.45-0.4,0.25-1.55,0.45-1.55c0.2,0,0.8,0.05,1,0c0.2-0.05,0.55-0.5,0.55-0.5c0.72-0.08,1.42-0.32,2.04-0.7
	c0.45-0.25,0.45-0.85,0.45-1.15c0.41-0.34,0.88-0.6,1.4-0.75c0.5,0,1.25,0.45,1.7,0c0.24-0.31,0.57-0.54,0.95-0.65
	c0.76-0.1,1.53-0.1,2.29,0c0.5,0.05,1.5-0.9,1.75-1.15c0.25-0.25,0.1-0.45,0.75-0.85c0.65-0.4,2.49,0.3,3.79,0.3
	c0.11-0.71,0.11-1.43,0-2.14c0-0.35,0-1.15,0-1.15c0.46-0.92,1.22-1.66,2.14-2.09c0.45,0,0.95,0.05,1.35,0
	c0.4-0.05,0.8-1.05,1.1-1.05c0.84-0.33,1.71-0.56,2.59-0.7c0.5,0.05,0.8,0.55,0.8,0.55c1.03-0.17,2.04-0.4,3.04-0.7
	c0.66-0.16,1.34,0.12,1.7,0.7h1.2c1.5,0.2,1.65,0.5,2.99,0.5c0.8-0.03,1.6,0.11,2.34,0.4c0.5,0.15,1.1,1.1,1.45,1.1
	c1.25,0.55,3.14,0.55,3.69,0.55c0.9,0.51,1.71,1.17,2.39,1.94c0.2,0,0.7,0,1,0c0.35,0.2,0.65,0.49,0.85,0.85
	c0.34,0.77,0.78,1.49,1.3,2.14c0.65,0.6,1.5,0.55,2.09,0.95c0.6,0.4,0.6,0.95,0.6,1.3c0.35,0.86,0.35,1.83,0,2.69
	c-0.15,0.3,1.4,0.95,1.4,0.95c0.96,0.03,1.92-0.11,2.84-0.4c0.35,0.25,0.25,1.15,0,1.69c-0.14,0.38-0.3,0.75-0.5,1.1
	c-0.4,0.75,0.4,1.55,0.7,1.69c0.3,0.15,0.05,0.2,0,0.8c-0.05,0.6,0.65,1.15,0.5,1.5c-0.15,0.35-0.65,0.55-0.65,0.75
	c0,0.2-0.4,0.85,0,1.05c0.4,0.2,1.69,1.2,1.74,1.15c0.05-0.05,0.6,0.45,0.95,0.4c0.35-0.05,0.35-0.65,0.85-0.65
	c0.5,0,1.25,0.85,1.4,0.95c0.15,0.1,1.1,1.35,1.6,1.75c0.5,0.4,0.5,1.55,0.5,1.89c0.95,0.69,2.14,0.95,3.29,0.7
	c0.2-0.05,0.4,1.5,0.7,1.65c0.3,0.15-0.2,1.1,0,1.55c0.2,0.45,0.25,0.15,0.5,0.75c0.25,0.6,0,1.15,0.7,1.6
	c0.7,0.45,2.29,0.25,2.74,0.45c0.45,0.2,0.75,0.95,1,1.2c0.25,0.25,0.8-0.35,1.2,0c0.4,0.35,1.3,1.84,1.55,2.04
	c0.25,0.2,0.15,1.2,0.65,1.1c0.5-0.1,2.09-1.89,2.09-2.09s-0.55-0.5,0-0.9c0.55-0.4,1.4-0.1,2.04-0.7c0.43-0.58,0.77-1.21,1-1.89
	c0.18-0.69,0.6-1.3,1.2-1.7c0.83-0.33,1.7-0.57,2.59-0.7c0.25,0,0.65-0.65,1-0.65c0.29-0.25,0.63-0.44,1-0.55
	c0.15-0.25-0.95-1.5-0.95-1.89c0-0.4,0.1-0.9,0-1.3c-0.1-0.4-1.3-0.75-1.35-1.1c-0.05-0.35,0.6-1,0.6-1.2c0-0.2-0.15-0.5,0-0.9
	c0.15-0.4,1.1-1,1.5-1c0.44,0.34,0.71,0.85,0.75,1.4c-0.05,0.4,0.4,0.85,0.55,1.2c0.15,0.35,0.85,0.7,1.1,1.15
	c-0.03,0.22-0.03,0.43,0,0.65c0.55,0.29,1.14,0.49,1.75,0.6c0.3,0,0.65-0.45,1.15-0.3c0.5,0.15,0.55,0.35,1.15,0.55
	c0.6,0.2,1.4,0.25,2.24,0.5c0.85,0.25,1.75,1.55,2.34,1.55c0.6-0.07,1.2-0.07,1.79,0c0.5,0.15,0.98,0.33,1.45,0.55
	c0.25,0,0.35-0.15,0.6,0c0.25,0.15,0.2,0.45,0.55,0.8c0.35,0.35,0.8-0.05,0.9,0c0.1,0.05,0.5,0.4,0.7,0.75c0.2,0.35,0.7,0.15,0.65,0
	c-0.05-0.15-0.3-0.2-0.3-0.55c0-0.35,0.05-0.3,0-1.3c-0.05-1,2.29-3.44,2.29-3.44s0.5-0.4,0.75-0.4c0.25,0,1.3,0.35,1.3,0.35
	c0.24-0.38,0.55-0.72,0.9-1c0.25,0,0.8,0,0.8,0l0.9-0.6c0.35-0.1-0.25-0.45,0-0.75c0.25-0.3,0.75,0.15,0.95,0
	c0.2-0.15,0.3-0.8,0.7-0.8c0.4,0,1.7-0.15,1.99,0c0.3,0.15,0.5,0.9,0.8,0.85c0.3-0.05,0.75-1.2,0.75-1.2
	c0.22-0.31,0.47-0.59,0.75-0.85c0.65-0.55,2.39-2.29,2.39-2.29c-0.16-0.52-0.16-1.08,0-1.6c0.15-0.3,0.55,0,0.55-0.3
	c0.16-0.47,0.16-0.98,0-1.45c-0.15-0.4-0.5-0.4-0.5-0.85c-0.05-0.65-0.05-1.3,0-1.94c-0.09-1.15-0.09-2.3,0-3.44
	c0.18-0.93,0.41-1.84,0.7-2.74c0.25-1.05,1.15-1.4,1.15-1.94c0-0.55-0.1-2.74,0-3.09c0.1-0.35,0.45-0.9,0.45-0.9
	c0.05-0.45-0.04-0.9-0.25-1.3c-0.05-0.85-0.05-1.7,0-2.54c0.2-1.3,0.6-4.04,0.85-4.99h0.75c0-0.2,0.15-0.75,0-0.95
	c-0.15-0.2-0.9,0.1-0.9-0.55c0-0.65-0.25-0.75,0-2.39c0.25-1.65,0.5-3.89,0.75-5.48c0-0.15,0-0.7,0-0.7c0.03-0.32,0.03-0.63,0-0.95
	c0.05-1.35,0.9-3.09,0.9-3.99v-0.75c0.03-0.3,0.03-0.6,0-0.9c-0.05-0.95-0.05-1.9,0-2.84c0-0.85,0-1.45,0-2.09c0-0.65,0-2.04,0-2.84
	c0.02-0.43,0.02-0.86,0-1.3c0-0.6,0-1.3,0-1.89c-0.07-1.03-0.24-2.05-0.5-3.04c-0.02-0.28-0.02-0.57,0-0.85
	c-0.24-1.65-0.39-3.32-0.45-4.99c0.03-0.32,0.03-0.63,0-0.95c0-0.4,0-0.75,0-1.15c0.03-0.51,0.03-1.03,0-1.55
	c0-0.65-0.3-0.95-0.3-1.89c0-0.95,0.05-2.69,0-2.99c-0.05-0.3-0.35-0.3-0.35-0.8c0-0.5,0.3-1.25,0-1.79c-0.3-0.55-0.3-1.1-0.3-1.5
	c0.09-1.21,0.09-2.43,0-3.64v-0.5c0.1-0.71,0.1-1.43,0-2.14c-0.12-0.58-0.32-1.13-0.6-1.65c-0.25-0.45-1.15-1.5-1.15-1.94
	c0.03-1.67-0.09-3.34-0.35-4.99c0,0.1-0.25,0.75-0.25,0.75c0,0.95,0,1.05,0,2.09c0.07,0.68,0.07,1.36,0,2.04
	c-0.28-0.29-0.53-0.61-0.75-0.95c-0.45,0-0.4,0.5-0.45,0c-0.05-0.5,0.65-1.94,0.65-2.34s0.25-0.6,0-0.95
	c-0.25-0.35-1.15,0.15-1.15,0c0-0.15,0-0.75,0-0.75h1.55c-0.02-0.25-0.11-0.49-0.25-0.7c-0.25-0.3-1.25-1.15-1.5-1.15
	c-0.17-0.86-0.51-1.67-1-2.39c-0.27-0.74-0.44-1.51-0.5-2.29c0.06-0.41,0.06-0.83,0-1.25L467.21,349.68z M401.89,395.84
	c-0.3,0.25-0.3,0.55-0.3,0.9c0,0.35,0,0.7,0,1.05c-0.78,1.46-1.85,2.75-3.14,3.79c-0.25,0.2-0.5-0.5-0.7-0.55
	c-0.2-0.05-0.7,0.35-0.7,0.4c0,0.05,0.3-0.35,0-0.65s-1.2,0-1.2,0c-0.41-0.37-0.74-0.83-0.95-1.35c-0.07-0.38-0.07-0.77,0-1.15
	c0-0.55-1.5-1.35-2.24-2.19c-0.05-0.33-0.05-0.67,0-1c0.02-0.49-0.14-0.97-0.45-1.35c-0.3-0.15-0.45,0.75-0.75,0.65
	s-0.3-1.3-0.3-1.3c-0.25-0.31-0.44-0.66-0.55-1.05c-0.19-0.55-0.19-1.15,0-1.69c0.45-0.05,0.7,0.8,1,0.5
	c0.7-0.78,1.45-1.51,2.24-2.19c0.35,0,0.9,0,1.25,0c0.79-0.1,1.6-0.1,2.39,0c0.31,0.15,0.6,0.36,0.85,0.6c0,0.45-0.5,1.45,0,2.04
	c0.5,0.6,1.65-0.05,2.29,0.3c0.27,0.31,0.49,0.66,0.65,1.05c0.1,0.2,0.65,0.15,0.6,0.55c-0.05,0.4-0.45,0.85-0.45,1.25
	C401.5,394.94,401.66,395.41,401.89,395.84z M194.09,381.88c11.32,16,17.45,34.9,32.96,54.34c-13.86-11.52-22.64-23.63-32.81-33.16
	c0-1.84,0-3.64,0-5.48L194.09,381.88z M348.55,129.06c-0.6-5.73,3.19-9.47,6.73-13.76c0,2.99,1.5,6.33,4.64,5.98
	c12.91-1.35,19.15-4.54,33.16-6.03c14.81-1.45,37.99,3.34,45.57,15.61c-12.96-9.02-26.87-12.12-48.11-9.97
	c-16.8,1.74-28.17,10.52-35.75,11.32C352.24,132.2,348.9,132.2,348.55,129.06z M462.82,291.14v-0.15c-0.81,2.33-1.76,4.61-2.84,6.83
	c-5.21-8.35-16.09-11.08-24.63-6.18c-4.41-9.06-15.34-12.82-24.4-8.41c-5.3,2.58-9.03,7.58-10,13.39c0,0.5,0,1,0,1.5h-1.05
	c-6.69,0.01-13.36,0.61-19.94,1.79l-0.45-1.4c-1.92-5.29-6.17-9.39-11.52-11.12c0.93-4.43,1.51-8.94,1.74-13.46
	c5.88,4.84,12.66,8.46,19.94,10.67l7.33,2.39l2.94-7.18c1.63-3.88,2.68-7.98,3.14-12.17c0.32-2.73,0.49-5.48,0.5-8.23
	c3.85,1.04,7.83,1.56,11.82,1.55c16.3,0,29.22-12.41,38.44-22.49l6.03-6.88C473.59,245.52,469.7,269.95,462.82,291.14z
	 M372.98,211.47c1.3,17.8-0.85,29.91-8.58,40.98c-7.48-8.13-11.77-12.27-14.36-22.74l3.99-2.69
	C360.9,222.56,367.25,217.34,372.98,211.47z M395.41,256.19c0.45,6.99-0.58,13.99-3.04,20.54c-9.44-2.6-17.73-8.33-23.48-16.25
	l2.34-3.39c3.5-4.98,6.14-10.51,7.83-16.35C383.07,247.23,388.71,252.55,395.41,256.19z M218.82,442.46
	c-6.06-1.47-11.94-3.6-17.55-6.33c-2.24-5.7-3.97-11.59-5.19-17.6l0.05-0.15C202.55,427.41,210.18,435.52,218.82,442.46z
	 M348.4,246.67c1.42,2,2.95,3.91,4.59,5.73l4.99,5.63l3.19,3.14c0.97,8.8,0.45,17.7-1.55,26.32c-13.81-9.17-17.3-19.15-20.34-34.9
	c2.39-3.63,4.33-7.53,5.78-11.62C346.02,242.97,347.14,244.87,348.4,246.67z M204.91,268.11c-3.8,0.12-7.55-0.79-10.87-2.64
	l0.05-46.92c4.08-2.91,8.95-4.48,13.96-4.49c42.38,0,41.93,63.77,86.65,81.82c-18.33-5.47-34.44-16.65-45.97-31.91
	c2.49,20.94,30.36,40.93,56.24,42.18c-25.28,7.78-54.05,8.48-56.04-18.3c-26.82-3.04-19.24-33.65-13.56-43.63
	c-7.23-11.37-13.31-19.94-23.58-19.94c-7.47-0.22-13.72,5.64-13.96,13.11c0.68,7.04,6.91,12.22,13.96,11.62
	c3.69,0,7.13-1.88,9.12-4.99c1.46,2.35,2.23,5.06,2.24,7.83C222.57,261.36,214.42,268.62,204.91,268.11z M233.08,431.79
	c-0.05-0.08-0.09-0.16-0.14-0.25c0.07,0.06,0.12,0.13,0.19,0.2L233.08,431.79z M207.55,449.44l1.4,0.5l-0.8,0.55L207.55,449.44z
	 M229.59,345.44c0-38.09-7.93-55.04-7.93-66.41C239.41,295.98,241,309.24,229.59,345.44z M503.16,518.34l-23.13,13.36
	C484.81,523.46,493.62,518.37,503.16,518.34z M548.33,369.77c7.93-17.4,16.5-37.09,17.65-63.32c3.6,13.11,3.24,26.99-1.05,39.89
	c-2.14,8.13-4.99,16.15-6.88,24.23c-2.47,8.9-3.79,18.08-3.94,27.32c-0.06,14.67,4.96,28.9,14.21,40.28
	c-4.41,5.15-6.83,11.71-6.83,18.5c-0.05,3.48,0.56,6.94,1.78,10.21c-16.28-2.48-30.94-19.46-30.94-43.21
	c0.07-9.27,1.67-18.47,4.74-27.22C540.33,387.36,544.09,378.45,548.33,369.77z M474.04,326.99v-0.15c2.65-2.68,5.47-5.19,8.43-7.53
	c14.66-11.67,27.52-10.97,45.37-19.94c-8.33,12.31-12.71,24.18-23.43,38.94c-3.2,4.52-6.86,8.69-10.92,12.46
	C488.13,341.98,481.59,333.98,474.04,326.99z M478.58,251.66c-0.29-3.07-0.84-6.1-1.65-9.07c7.53-10.04,19.47-15.79,32.01-15.41
	c16.16,0.3,29.02,13.64,28.72,29.8c0,0.04,0,0.07,0,0.11c0,20.74-12.17,37.54-27.17,37.54c-9.02,0.19-17.65-3.63-23.58-10.42
	c-3.25-3.75-5.03-8.55-4.99-13.51l0.2-0.25c0-9.97,6.53-18,14.66-18.15c6.31,0.05,11.38,5.2,11.33,11.51
	c-0.03,3.44-1.61,6.69-4.3,8.83c8.57-1.69,14.62-9.37,14.26-18.1c-0.05-8.98-7.38-16.21-16.35-16.15c0,0,0,0,0,0
	C492.19,238.39,483.38,243.44,478.58,251.66z M509.57,497.36c7.31-0.09,14.52,1.62,21.01,4.98l-13.76,7.93
	c-4.29-1.36-8.76-2.07-13.26-2.09c-8.38-0.01-16.52,2.78-23.13,7.93C485.58,504.64,497,497.3,509.57,497.36z M509.59,497.35
	c-0.01,0-0.01,0-0.02,0c-0.01,0-0.02,0-0.03,0H509.59z M563.28,466.94c-0.01-0.02-0.01-0.04-0.02-0.06c0.02,0,0.04,0.01,0.07,0.01
	L563.28,466.94z M539.5,180.71c0-10.37,6.28-18.7,14.36-18.7v0.1c12,0.8,21.12,11.12,20.44,23.13c0,11.32-13.01,20.54-29.07,20.54
	c-8.43,0-13.41-0.85-21.79-0.85c-20.08,0.7-39.21,8.76-53.75,22.64c-0.8-1-1.69-1.99-2.59-2.94l-0.85-0.85
	c12.51-15.46,31.06-22.39,55.94-22.39c11.22,0,14.96,1.1,20.84,1.1c12.07,0,21.84-6.93,21.84-15.41c0-6.03-3.54-10.92-7.88-10.92
	c-6.48,0-11.77,6.73-11.77,14.96c0,0.45,0,0.9,0,1.35C541.58,189.67,539.46,185.31,539.5,180.71z M400.85,127.06
	c-21.09,0-32.61,10.27-49.46,10.27c-8.77,0-16.05-3.79-16.05-11.47c0.78-5.51,3.77-10.46,8.28-13.71
	c-11.98,2.58-20.86,12.71-21.84,24.93c0,3.19,1.4,12.76,16.35,12.76c23.73,0,37.59-12.46,61.77-14.56
	c-23.83,11.98-44.78,28.97-61.42,49.81c0.47,11.86,3.9,23.41,9.97,33.6c9.59-6.25,18.11-14.01,25.23-22.98
	c4.69-20.79,27.22-48.11,50.76-48.11c16.4,0,30.71,10.72,38.39,26.67c-0.52-12.2-8.1-22.98-19.39-27.62
	C438.54,128.16,415.8,127.06,400.85,127.06z M419.24,140.22c-3.94,0-7.85-0.67-11.57-1.99c3.38-2.38,7.43-3.62,11.57-3.54
	c4.12-0.09,8.16,1.15,11.52,3.54C427.07,139.56,423.17,140.23,419.24,140.22z M392.77,75.61c0-3.74,4.09-4.69,7.08-7.28
	c2.94,2.59,7.03,3.54,7.03,7.28c-0.02,1.53-0.86,2.94-2.19,3.69c4.64,1.25,7.93,4.24,7.93,7.73c-0.08,1.96-1.03,3.79-2.59,4.99
	l-0.65,0.65c-2.89,2.89-3.94,6.48-2.34,8.13c0.75,0.59,1.68,0.91,2.64,0.9h0.2l4.29,0.55h0.7c-1.2-0.97-1.75-2.53-1.45-4.04
	c0.75-3.69,4.99-3.79,8.38-5.73c2.39,3.14,6.23,4.99,5.48,8.53c-0.36,1.5-1.47,2.71-2.94,3.19h0.35c1.74,0.4,3.44,0.9,4.99,1.45
	c0.7,0.22,1.45,0.22,2.14,0c2.14-0.85,2.59-4.59,1.1-8.38l-0.4-0.85c-0.96-1.73-1.12-3.78-0.45-5.63c2.2-3.46,6.42-5.07,10.37-3.94
	c-0.95-1.22-1.18-2.85-0.6-4.29c1.5-3.44,5.63-2.74,9.37-3.94c-6.95,11.01-12.23,22.99-15.66,35.55c-23.2-7.64-48.24-7.64-71.45,0
	c-3.43-12.56-8.71-24.54-15.66-35.55c3.79,1.2,7.88,0.5,9.37,3.94c0.57,1.44,0.32,3.08-0.65,4.29c3.95-1.13,8.17,0.48,10.37,3.94
	c0.67,1.85,0.51,3.91-0.45,5.63l-0.4,0.85c-1.5,3.79-1.05,7.53,1.05,8.38c0.71,0.23,1.48,0.23,2.19,0c1.69-0.55,3.39-1.05,4.99-1.45
	h0.35c-1.47-0.48-2.58-1.69-2.94-3.19c-0.75-3.64,3.09-5.38,5.48-8.53c3.49,1.94,7.68,2.04,8.43,5.73c0.27,1.52-0.3,3.06-1.5,4.04
	h0.5l4.24-0.55h0.45c0.97,0.02,1.92-0.3,2.69-0.9c1.6-1.65,0.55-4.99-2.29-8.13l-0.7-0.65c-1.56-1.2-2.51-3.02-2.59-4.99
	c0-3.49,3.29-6.48,7.98-7.73C393.65,78.57,392.79,77.16,392.77,75.61z M509.04,154.93c0.42-6.51-4.51-12.13-11.02-12.56
	c-6.51-0.42-12.13,4.51-12.56,11.02c-0.03,0.51-0.03,1.02,0,1.53c-0.01,1.5,0.24,2.98,0.75,4.39c-9.08-0.01-16.6-7.05-17.2-16.1
	c0.72-9.55,8.98-16.75,18.55-16.15c18.98,0.14,34.26,15.62,34.15,34.6c0.05,0.98,0.05,1.96,0,2.94c4.66-4.61,10.43-7.94,16.75-9.67
	c-6.48,16.2-12.02,26.92-26.13,33.5c-14.11,6.58-24.38,4.69-38.79,14.96c-17.15,12.12-34.9,47.61-57.88,47.61
	c-17.1,0-28.37-11.47-32.91-26.13c6.87,6.06,15.78,9.28,24.93,9.02c25.98,0,35.35-19.94,56.89-40.19
	C479.77,179.51,509.04,179.96,509.04,154.93z M392.87,173.13c-2.03,5.92-3.05,12.14-3.04,18.4c0,11.37,5.78,23.28,16.6,23.28
	c11.97,0,23.43-9.12,23.43-19.49c0-2.94-3.39-5.33-7.53-5.33c-2.68-0.15-5.27,1.02-6.93,3.14c1.56-8.96,8.98-15.72,18.05-16.45
	c6.78,0.16,12.15,5.78,12.02,12.56c0,16.75-17.15,34.9-38.09,34.9c-14.21,0-23.63-8.03-23.63-22.83
	C383.36,191.13,386.59,181.15,392.87,173.13z M256.61,420.17c3.39,8.73,8.97,17.75,12.86,27.87c-4.1-2.69-8.59-4.72-13.31-6.03
	c-8.53-28.57-21.74-43.48-21.74-72.99c0-28.42,17.2-51.4,38.44-51.4c21.85,0.25,39.44,18.03,39.44,39.89v1.65
	c-5.36,9.53-9.12,19.87-11.12,30.61c-3.15,3.29-7.47,5.2-12.02,5.33c-6.04-0.4-10.66-5.57-10.37-11.62
	c-0.34-6.09,4.29-11.32,10.37-11.72c2.67,0.06,5.2,1.2,7.03,3.14c5.32-5.4,8.23-12.72,8.08-20.29c-0.33-10.9-9.34-19.51-20.24-19.34
	c-19.2,0-34.9,19.94-34.9,44.52C249.29,393.58,251.82,407.24,256.61,420.17z M267.08,218.45c0.45,19.58,4.56,38.91,12.12,56.99
	c-18.41-20.84-28.66-47.63-28.87-75.43c0-34.45,19.2-62.37,42.88-62.37c15.74,0.81,27.88,14.17,27.17,29.91
	c-0.25,14.86-10.22,26.82-22.78,26.82c-5.76,0-10.42-4.67-10.42-10.42c0-8.63,4.64-15.61,10.42-15.61
	c-1.45-0.48-2.96-0.73-4.49-0.75C278.75,167.6,267.08,190.38,267.08,218.45z M397.11,516.1c-18.85,4.19-37.94,15.66-41.53,36.2
	l-5.19-2.99C357.87,530.91,376.97,519.39,397.11,516.1z M249.23,159.57c-5.9,12.66-8.93,26.47-8.87,40.43
	c-0.02,6.31,0.45,12.61,1.4,18.85C213.03,202.45,223.75,176.27,249.23,159.57z M334.44,258.84c-0.23,13.95-3.41,27.7-9.32,40.33
	c-9.27-15.31-11.27-32.61-11.27-53.85c1.63,4.76,3.87,9.29,6.68,13.46l5.83,8.97l7.23-7.93L334.44,258.84z M339.67,223.39l1.3,2.44
	c-3.14,13.46-5.93,19.94-13.51,28.42c-6.76-9.61-9.32-21.57-7.08-33.11c2.8-7.52,6.14-14.84,9.97-21.89
	C332.25,207.71,335.4,215.85,339.67,223.39z M310.16,295.93c-17.2-8.41-28.25-25.73-28.62-44.87c0-17.95,9.97-32.51,22.24-32.51
	c5.26-0.05,9.56,4.18,9.61,9.44c0.05,5.26-4.18,9.56-9.44,9.61c-2.72,0.02-5.33-1.12-7.16-3.14c-6.02,6.08-9.18,14.44-8.68,22.98
	C288.12,272.4,296.84,284.71,310.16,295.93z M305.27,252.95c-1.7,15.61-1.4,23.38,4.99,36.89c-12.22-8.73-14.71-19.15-13.16-37.74
	c0.07-2.26,1.96-4.03,4.21-3.96c2.26,0.07,4.03,1.96,3.96,4.21C305.3,252.55,305.3,252.75,305.27,252.95z M357.17,509.02
	c-17.33,0.83-34.09,6.46-48.41,16.25l-7.68-4.44C317.47,509.61,337.65,505.35,357.17,509.02z M328.25,502.89
	c-13.42,1.25-26.47,5.07-38.44,11.27l-18.35-10.32c8.82-3.99,15.61-11.77,21.14-25.88C303.33,487.82,315.32,496.2,328.25,502.89z
	 M334.34,299.12v-0.15c2.56-6.07,4.48-12.38,5.73-18.85c2.73,4.13,6.1,7.79,9.97,10.87c-2.42,2.4-4.14,5.42-4.99,8.73
	C341.63,298.43,337.89,298.23,334.34,299.12z M259.3,379.74c0-21.54,13.21-34.55,24.93-34.55c5.49-0.17,10.08,4.13,10.27,9.62
	c0.03,2.59-0.44,5.17-1.4,7.58c-1.23-0.26-2.48-0.39-3.74-0.4c-11.6,0.38-20.71,10.08-20.34,21.69c-0.2,6.08,1.25,69.5,74.24,115.72
	C260.95,462.11,259.3,392.4,259.3,379.74z M679.12,628.94c27.47-26.96,51.51-58.34,70.88-93.89l-34.9-19.94
	c9.7-29.25,15.27-59.7,16.55-90.49l-58.68,33.9l-32.41-38.59c1.16-7.34,1.75-14.76,1.74-22.19v-49.01c9.45-8,12.38-21.1,7.72-32.3
	c13.02-11.31,25.94-22.74,38.7-34.36c8.24-7.98,11.7-19.69,9.12-30.86c-15.07,13.56-30.33,26.9-45.76,40.03
	c0.71-8.82-2.66-17.75-9.78-23.78V100.64c-78.27-28.06-160.7-42.79-243.85-43.58c-109.79,0-181.13,22.88-240.96,43.58v166.82
	c-7.04,6.03-10.39,14.88-9.74,23.65c-15.46-13.15-30.75-26.52-45.85-40.11c-2.58,11.18,0.88,22.89,9.12,30.86
	c12.79,11.66,25.75,23.13,38.81,34.48c-4.66,11.22-1.75,24.32,7.66,32.38v49.11c0,7.43,0.58,14.85,1.75,22.19l-32.16,38.49
	l-58.73-33.9c1.28,30.79,6.85,61.25,16.55,90.49L50,535.05c18.96,34.78,42.93,66.32,70.92,93.78c-5.83,2.74-11.63,5.54-17.47,8.23
	c-1.35,0.6,0,6.43,3.09,13.06c3.09,6.63,6.53,11.47,7.83,10.87c9.22-4.23,18.4-8.6,27.58-12.96c20.7,17.59,43.21,33.13,67.29,46.25
	c148.94,81.18,326.79,57.39,448.8-46.18c9.12,4.33,18.24,8.67,27.4,12.88c1.3,0.6,4.84-4.24,7.88-10.87
	c3.04-6.63,4.39-12.46,3.04-13.06C690.59,634.41,684.86,631.64,679.12,628.94z M623.08,344.36c-9.35-0.49-16.83-7.96-17.32-17.32
	c-0.01-3.13,0.8-6.2,2.34-8.92c0.93-1.62,1.78-3.28,2.54-4.99c1.16,4.6,1.75,9.32,1.74,14.06c0,6.42,5.2,11.62,11.62,11.62
	s11.62-5.2,11.62-11.62c0.01-4.74,0.62-9.47,1.79-14.06c0.74,1.71,1.59,3.38,2.54,4.99c1.54,2.72,2.35,5.8,2.34,8.92
	C641.78,337.13,633.17,344.89,623.08,344.36z M624.26,526.62c-12.62,15.56-26.83,29.77-42.39,42.39c-2.87,2.33-5.81,4.53-8.74,6.73
	c-7.89-4.22-15.79-8.41-23.65-12.73c1.07-2.51,1.4-5.28,0.95-7.98c3.14-7.68,4.39-13.06,2.89-13.91l-1.84-1
	c-1.3-0.75-4.44,2.29-8.58,7.28c-2.04-1.1-5.83,1.65-9.97,6.63c-3.04-1.68-6.18-3.44-9.31-5.19l47.3-27.26
	c13.61-7.92,25.82-18.03,36.15-29.91c-2.97,7.58-6.37,14.99-10.17,22.19L624.26,526.62z M249.38,555.24
	c-0.41,2.63-0.09,5.32,0.95,7.78c-7.9,4.34-15.83,8.54-23.75,12.77c-18.56-13.94-35.75-30.32-51.03-49.17l27.17-12.91
	c-3.71-7.21-7.04-14.62-9.97-22.19c10.32,11.89,22.54,22,36.15,29.91l47.55,27.45c-3.23,1.81-6.47,3.63-9.6,5.36
	c-4.14-4.99-7.93-7.73-9.97-6.63c-4.09-4.99-7.23-8.03-8.53-7.28l-1.84,1C244.99,542.18,246.49,547.56,249.38,555.24z M263.09,586.2
	c1.57,2.25,3.78,3.98,6.33,4.99c4.99,6.78,8.73,10.67,9.97,9.97l1.84-1.05c1.35-0.7,0.55-4.99-1.74-11.02
	c2.04-1.2,1.79-5.83,0-11.97c7.73-4.33,15.41-8.73,23.09-13.15l97.32,56.18l97.4-56.14c7.65,4.41,15.31,8.8,23.01,13.11
	c-1.79,6.13-2.04,10.77,0,11.97c-2.29,6.03-3.04,10.32-1.75,11.02l1.84,1.05c1.25,0.7,4.99-3.19,9.97-9.97
	c2.56-0.99,4.77-2.73,6.33-4.99c3.87,2.12,7.76,4.15,11.64,6.24c-92.44,55.53-207.04,53.95-296.98,0.05
	C255.27,590.38,259.19,588.34,263.09,586.2z M565.93,512.81L399.9,608.64l-166.03-95.83c-41.1-23.74-66.42-67.61-66.41-115.07
	v-50.61c2.12,0.86,4.35,1.4,6.63,1.6v49.01c-0.03,45.09,24.02,86.75,63.07,109.29l162.73,93.98l162.74-93.98
	c39.05-22.53,63.1-64.2,63.07-109.29v-49.01c2.28-0.19,4.51-0.73,6.63-1.6v50.61C632.34,445.2,607.03,489.07,565.93,512.81z
	 M242.15,498.4l157.75,91.14l157.75-91.09c35.95-20.77,58.09-59.14,58.08-100.66v-50.66c2.12,0.87,4.35,1.41,6.63,1.6v49.01
	c0.03,43.91-23.39,84.5-61.42,106.45L399.9,597.17l-161.04-92.98c-38.03-21.95-61.45-62.53-61.42-106.45v-49.01
	c2.28-0.19,4.52-0.73,6.63-1.6v50.61C184.06,439.26,206.2,477.63,242.15,498.4z M250.18,491.58l-3.04-1.75
	c-13.13-7.58-24.2-17.75-32.81-29.63c5.41,7.35,11.71,14,18.8,19.75c2.59-6.73,8.99-11.22,16.2-11.37c0.45-0.03,0.9-0.03,1.35,0
	c5.03,0.37,8.8,4.75,8.42,9.77c-0.37,5.03-4.75,8.8-9.77,8.43c-0.71,0.1-1.43,0.1-2.14,0C247.84,488.57,248.87,490.19,250.18,491.58
	z M399.88,577.96l5.67-3.24l-5.65,3.26L399.88,577.96z M577.58,469.83c1.84-1.99,3.6-4.04,5.28-6.16
	C581.19,465.79,579.42,467.84,577.58,469.83z M583.25,463.19c1.8-2.3,3.51-4.68,5.11-7.13C586.76,458.5,585.06,460.88,583.25,463.19
	z M588.85,455.28c1.34-2.07,2.59-4.2,3.78-6.36C591.44,451.08,590.18,453.2,588.85,455.28z M593.65,447
	c1.05-2.01,2.03-4.05,2.96-6.13C595.68,442.95,594.7,444.99,593.65,447z M601.91,426.12c0.08-0.27,0.16-0.55,0.24-0.82
	C602.08,425.58,601.99,425.85,601.91,426.12z M604.81,412.04c0.05-0.37,0.08-0.74,0.12-1.11
	C604.88,411.29,604.86,411.67,604.81,412.04z M596.04,285.43c-20.55-29.65-27.79-61.9-54.79-61.9c37.19,0,48.3,24.3,60.73,47.87
	C598.76,275.45,596.7,280.29,596.04,285.43z M595.8,289.22c0.05,4.76,1.27,9.43,3.58,13.6c0.98,1.7,1.85,3.47,2.59,5.28
	c-0.03,0.07-0.07,0.13-0.1,0.2c-0.72-1.75-1.55-3.45-2.49-5.09c-2.34-4.23-3.58-8.98-3.59-13.81
	C595.79,289.34,595.8,289.28,595.8,289.22z M605.76,348.73v17.86c-0.29-5.4-0.37-12.03-1.39-19.17
	C604.83,347.86,605.27,348.31,605.76,348.73z M613.89,294.68c5.57,9.93,8.49,21.12,8.48,32.51v8.08c-3.87-0.77-6.66-4.18-6.63-8.13
	c0.01-10.25-2.62-20.33-7.63-29.27c-4.33-7.69-2.53-17.38,4.29-22.98v0.05V289C612.38,290.99,612.9,292.95,613.89,294.68z
	 M623.06,308.1c0.35-1.3,0.95-2.59,0.95-3.89l0.25,0c0,1.15,1.1,2.59,0.75,3.89c-0.35,1.3-0.7,2.59-1,3.89
	C623.76,310.69,622.71,309.39,623.06,308.1z M635.63,289v-14.06c6.85,5.58,8.68,15.29,4.34,22.98c-5.01,8.94-7.63,19.02-7.63,29.27
	c0.03,3.95-2.76,7.36-6.63,8.13v-8.13c-0.01-11.38,2.91-22.58,8.48-32.51C635.15,292.95,635.65,290.99,635.63,289z M167.46,107.52
	c74.71-27.79,153.16-41.73,231.62-41.82l0.78-0.68l0.77,0.68c78.49,0.09,156.97,14.02,231.7,41.82V289
	c-0.01,1.43-0.37,2.83-1.05,4.09c-1.66,2.91-3.09,5.94-4.29,9.07c-0.86-4.33-1.3-8.74-1.3-13.16V112.16
	c-54.9-19.97-111.78-32.41-169.16-37.35L454.53,78c56.9,4.75,113.34,16.9,167.83,36.5V289c0,4.42-0.43,8.83-1.3,13.16
	c-1.2-3.13-2.63-6.16-4.29-9.07c-0.68-1.26-1.04-2.66-1.05-4.09V119.14c-53.61-18.85-109.07-30.44-164.96-34.82
	c-1.82,3.15-3.51,6.37-5.06,9.66c54.45,3.88,108.26,14.65,160.05,32.3v141.2c-0.02,0.01-0.03,0.03-0.05,0.05v-39.53
	c-5.87-6.03-13.6-9.91-21.94-11.02l0.05-0.2c3.84-10.32,6.03-21.44,1.6-30.31c0,12.31-15.31,31.96-35.25,31.96
	c-9.62,0-16.55-5.28-27.97-5.28c-18.47-0.75-36.29,6.87-48.51,20.74c0.35,0.7,0.7,1.35,1,2.04c9.97-10.57,23.81-16.64,38.34-16.8
	c37.54,0,33.85,44.52,69.15,75.88c5.94,5.45,12.2,10.54,18.74,15.25c-0.5,1.06-0.95,2.14-1.54,3.15c-1.75,3.16-2.87,6.61-3.34,10.17
	c-0.7-1.15-1.49-2.34-2.34-3.49c1.37,7.48,2.02,15.08,1.94,22.69c0,15.75-3.14,33.45-3.14,39.89c-0.11,6.57,1.36,13.07,4.29,18.95
	c2.32-3.59,5.38-6.63,8.97-8.93v5.1c0,3.02-0.17,6.02-0.42,8.99c-2.07,3.13-3.18,6.8-3.17,10.55c-0.03,1.12,0.05,2.24,0.25,3.34
	c-11.47-4.49-19.94-19.64-19.94-37.74c0-6.63,3.14-24.33,3.14-39.89c0-18.1-3.14-33.25-12.31-45.22
	c15.66,37.09-9.27,66.36-9.27,100.36c-0.11,12.38,4.11,24.4,11.92,34c4.24-2.4,9.04-3.65,13.91-3.64c3.67,0,7.31,0.64,10.76,1.88
	c-1.03,3.19-2.19,6.32-3.51,9.38c-2.32-0.86-4.78-1.29-7.25-1.29c-10.19,0-18.45,8.26-18.45,18.45c0,5.05,2.09,9.88,5.77,13.34
	c-7.07,7.59-15.27,14.23-24.51,19.56l-114.94,66.32c-1.05-5.27-1.59-10.64-1.58-16.02c-0.02-4.81,0.36-9.61,1.15-14.36
	c-1.49,1.13-3.04,2.17-4.64,3.14c-5.63,3.39-12.56,6.63-19.29,9.97c10.52,0.93,19.15,8.72,21.14,19.1l0.5-0.26l-10.23,5.9
	c0.04-0.7,0.05-1.4,0-2.1c-0.43-7.39-6.72-13.05-14.11-12.71c-6.29,0.03-11.37,5.13-11.37,11.42c-0.02,4.05,2.1,7.8,5.58,9.87
	c-1.49,0.43-3.03,0.64-4.58,0.64c-9.22,0-16.71-7.47-16.71-16.7c0-21.14,48.76-27.87,54.84-44.87
	c-7.53,6.43-22.69,10.47-30.66,12.66c-28.97,7.98-42.03,19.2-42.83,35.95l16.38,9.48l-38.46-22.19h0.24
	c5.49-11.97,14.75-21.82,26.37-28.02h-1.7c-17.5-0.42-34.72,4.41-49.46,13.86l-64.94-37.47l3.27,1.78c1.19,0.32,2.41,0.49,3.64,0.5
	c10.02-0.3,17.92-8.62,17.7-18.65c0-15.85-15.41-28.72-34.4-28.72c-10.97-0.11-21.6,3.8-29.88,10.99
	c-12.58-17.71-19.7-39.14-19.67-61.6v-49.01c0.6-0.51,1.14-1.05,1.69-1.6c10.78,13.68,8.54,57.51,37.21,84.42
	c-22.5-37.66-25-74.99-29.92-97.07c0.63-2.36,1-4.79,1-7.28c-0.02-4.83-1.25-9.58-3.59-13.81c-0.99-1.7-1.86-3.46-2.59-5.28
	c0.03-0.07,0.07-0.13,0.09-0.19l0.55,1.29c19.94,14.91,10.57,70.4,43.38,117.41c-14.71-33.95-21.74-64.42-23.63-109.69
	c-0.55-13.31-5.23-29.52-15.95-37.89l-0.05,0.05c0.05,0.13,0.06,0.26,0.11,0.38c-1.65-4.6-4.47-8.76-8.29-12v-1.99v-139.2
	c51.75-17.63,105.5-28.4,159.91-32.29c-1.54-3.29-3.24-6.5-5.06-9.66c-55.84,4.39-111.26,15.98-164.82,34.81V289
	c-0.01,1.43-0.37,2.83-1.05,4.09c-1.66,2.91-3.09,5.94-4.29,9.07c-0.86-4.33-1.3-8.74-1.3-13.16V114.5
	c54.45-19.58,110.83-31.73,167.69-36.49l-2.02-3.19c-57.33,4.95-114.16,17.39-169.01,37.34V289c0,4.42-0.43,8.83-1.3,13.16
	c-1.2-3.13-2.63-6.16-4.29-9.07c-0.68-1.26-1.04-2.66-1.05-4.09V107.52z M203.13,295.91c0.57-2.25,0.87-4.57,0.88-6.92
	c0-0.56-0.06-1.12-0.09-1.68c0.03,0.46,0.13,0.92,0.14,1.38C204.07,291.15,203.75,293.57,203.13,295.91z M203.66,284.82
	c-0.08-0.52-0.15-1.03-0.26-1.54C203.51,283.79,203.58,284.3,203.66,284.82z M191.7,297.87c-5.01,8.94-7.63,19.02-7.63,29.27
	c0.03,3.95-2.76,7.36-6.63,8.13v-8.08c-0.01-11.38,2.91-22.58,8.48-32.51c0.99-1.73,1.5-3.69,1.5-5.68v-14.06v-0.05
	C194.22,280.5,196.03,290.19,191.7,297.87z M176.74,308.1c-0.35,1.3-0.95,2.59-0.95,3.89c-0.3-1.3-1.35-2.59-1-3.89
	c0.35-1.3,0.7-2.59,1-3.89C176.04,305.35,177.09,306.8,176.74,308.1z M164.17,274.94L164.12,289c-0.03,1.99,0.47,3.95,1.45,5.68
	c5.6,9.9,8.54,21.08,8.53,32.46v8.13c-3.86-0.76-6.63-4.15-6.63-8.08c0.03-10.25-2.6-20.33-7.63-29.27
	C155.49,290.23,157.33,280.52,164.17,274.94z M157.49,327.04c-0.01-3.13,0.8-6.2,2.34-8.92c0.95-1.61,1.8-3.27,2.54-4.99
	c1.18,4.59,1.78,9.32,1.79,14.06c0.01,6.4,5.2,11.59,11.6,11.6c6.42,0.01,11.62-5.19,11.63-11.6c0-4.74,0.58-9.46,1.75-14.06
	c0.76,1.7,1.61,3.37,2.54,4.99c1.54,2.72,2.35,5.8,2.34,8.92c-0.49,9.35-7.96,16.83-17.32,17.32
	C166.63,344.89,158.02,337.13,157.49,327.04z M205.57,681.3c-59.09-34.11-108.15-83.17-142.26-142.26l33.5-19.29
	c-8.98-24.84-14.82-50.7-17.4-76.98l49.86,28.72l38.64-46.47c1.82,29.14,9.13,57.68,21.54,84.11l-48.41-14.96
	c82.8,142.96,265.83,191.73,408.79,108.93c45.2-26.18,82.75-63.73,108.93-108.93l-48.41,14.96c12.41-26.43,19.72-54.97,21.54-84.11
	l38.79,46.27l49.86-28.72c-2.61,26.36-8.51,52.28-17.55,77.18l33.4,19.29C629.09,724.9,391.44,788.59,205.57,681.3z M349.2,76.22
	l-4.77-1.5c15.54-1.31,31.12-2.05,46.7-2.25c-0.49,0.9-0.85,1.9-0.85,3.17c0,0.06,0.04,0.12,0.04,0.18
	c-11.94,0.17-23.87,0.67-35.79,1.49c-0.78-0.19-1.55-0.32-2.28-0.44C351.25,76.7,350.21,76.54,349.2,76.22z M413.04,92.52
	c1.24-1.52,1.98-3.42,2.06-5.49c0-1.64-0.55-3.19-1.46-4.59c8.5,0.18,17,0.54,25.49,1.05c-0.02,0.17-0.1,0.34-0.11,0.52
	c-3.71,0.27-7.06,2.25-9.07,5.42l-0.15,0.23l-0.09,0.26c-0.36,0.99-0.5,2.02-0.51,3.05c-1.25-0.06-2.49-0.15-3.74-0.2
	c-0.59-0.57-1.19-1.14-1.7-1.81l-1.32-1.74l-1.9,1.09c-0.92,0.53-1.91,0.89-2.87,1.25c-0.76,0.29-1.57,0.62-2.36,1.01
	C414.56,92.55,413.8,92.53,413.04,92.52z M409.38,75.61c0-1.26-0.36-2.25-0.84-3.15c15.57,0.2,31.14,0.94,46.67,2.24l-4.76,1.52
	c-1,0.32-2.04,0.48-3.03,0.64c-0.72,0.12-1.48,0.24-2.24,0.43c-11.93-0.82-23.88-1.31-35.84-1.48
	C409.34,75.74,409.38,75.68,409.38,75.61z M386.02,82.44c-0.92,1.43-1.48,3-1.48,4.69c0.09,2.02,0.84,3.93,2.03,5.39
	c-0.74,0.01-1.49,0.03-2.23,0.04c-0.81-0.4-1.64-0.74-2.42-1.03c-0.95-0.36-1.95-0.73-2.9-1.25l-1.88-1.05l-1.31,1.72
	c-0.52,0.68-1.13,1.25-1.72,1.82c-1.24,0.05-2.48,0.15-3.72,0.21c-0.01-1.03-0.15-2.07-0.51-3.06l-0.09-0.26l-0.15-0.23
	c-2.01-3.16-5.35-5.15-9.05-5.42c0-0.17-0.09-0.34-0.1-0.51C369,82.98,377.51,82.62,386.02,82.44z"/>
</svg>
