<?xml version="1.0" encoding="UTF-8"?>
<svg data-name="图层_1" xmlns="http://www.w3.org/2000/svg" version="1.1" viewBox="0 0 800 800">
  <!-- Created by @FCLOGO 2025-1-9 GMT+8 10:42:11 . https://fclogo.top/ -->
<!-- FOR PERSONAL USE ONLY NOT FOR COMMERCIAL USE -->
  <path d="M348.2194,774.301c-.786,0-1.3752-.2173-1.7682-.6519-.393-.4352-.5284-1.03-.406-1.7856l.2518-1.6478c.122-.755.4501-1.3504.9841-1.785.5339-.4352,1.1939-.6525,1.9799-.6525.7553,0,1.3293.1987,1.7223.5954.3927.3967.551.9381.4747,1.6248h-1.2358c.0304-.3589-.0553-.637-.2573-.8357-.2024-.1981-.4979-.2974-.8869-.2974-.4197,0-.763.1167-1.03.3489-.2673.2328-.4349.5631-.5035.9903l-.2632,1.659c-.0686.4352-.0056.7686.1887,1.0015.1946.2328.5017.3489.9214.3489.389,0,.7152-.0987.9785-.2974.2632-.1981.4365-.4805.5206-.8469h1.2358c-.1372.6867-.4672,1.2306-.9897,1.631-.5228.4005-1.1616.6004-1.9169.6004ZM352.7967,774.1868l.9956-6.2943h1.1902l-.1946,1.1902c.3359-.8698.9729-1.3044,1.9113-1.3044.6712,0,1.1691.208,1.4932.624.3244.416.4293.9859.3148,1.7105l-.0686.4234h-1.2703l.0571-.3204c.0689-.4501.0115-.7953-.1714-1.0356-.1832-.2403-.4771-.3607-.8813-.3607-.4045,0-.7401.1223-1.007.3663-.2673.2446-.4349.588-.5035,1.03l-.6296,3.9711h-1.2358ZM361.9058,774.301c-.7705,0-1.3463-.2229-1.7279-.6693s-.515-1.0356-.4005-1.7682l.2518-1.6478c.0838-.488.2573-.9152.5206-1.2815s.6007-.6507,1.0129-.8524c.4119-.2024.8732-.3036,1.3845-.3036.7705,0,1.3485.2235,1.7338.6693.3852.4464.5169,1.0356.3949,1.7682l-.1717,1.1213h-3.845l-.0916.5265c-.1527.9536.2173,1.4305,1.1098,1.4305.7171,0,1.175-.2477,1.3734-.7438h1.2247c-.1679.5339-.5035.9599-1.007,1.2759-.5038.3166-1.0912.475-1.7626.475ZM361.2306,770.2157l-.0456.2862,2.6548-.0118.0459-.2856c.0686-.4656.0133-.822-.1661-1.0704-.1791-.2477-.4861-.3719-.9211-.3719-.4427,0-.7953.126-1.0586.3775-.2632.2521-.4331.6109-.5094,1.076ZM368.3258,774.301c-.6333,0-1.1027-.2117-1.4078-.6351s-.3967-1.0008-.2744-1.7335l.2744-1.7738c.1145-.7326.393-1.3119.8357-1.7397.4424-.4272.98-.6407,1.6133-.6407.4653,0,.8298.1186,1.093.3545.2632.2365.3908.5575.3834.9617h.023l.1717-1.202h1.2358l-.9956,6.2943h-1.2247l.1946-1.2014h-.023c-.122.4116-.3511.7339-.6867.9667s-.7401.3489-1.2129.3489ZM368.9324,773.2257c.389,0,.7152-.1186.9782-.3551.2632-.2359.4293-.5718.4979-1.007l.2518-1.6478c.0686-.4272.0096-.7612-.1773-1.0015-.1872-.2403-.475-.3601-.8642-.3601-.3967,0-.7249.118-.9841.3545-.2595.2365-.4234.5724-.492,1.007l-.2518,1.6478c-.0686.4427-.0133.7804.1658,1.0133.1794.2328.4712.3489.8757.3489ZM376.3477,774.1868c-.5721,0-.9937-.1565-1.2644-.4694-.271-.3123-.3607-.7512-.2691-1.3156l.538-3.3874h-1.7394l.1714-1.1219h1.7397l.2747-1.7161h1.2358l-.2747,1.7161h2.472l-.1832,1.1219h-2.4605l-.5377,3.3874c-.0764.4421.099.6637.5262.6637h1.7167l-.1717,1.1213h-1.7738ZM382.5042,774.301c-.7705,0-1.3463-.2229-1.7279-.6693s-.515-1.0356-.4005-1.7682l.2518-1.6478c.0838-.488.2573-.9152.5206-1.2815s.6007-.6507,1.0129-.8524c.4119-.2024.8732-.3036,1.3845-.3036.7705,0,1.3485.2235,1.7338.6693.3852.4464.5169,1.0356.3949,1.7682l-.1717,1.1213h-3.845l-.0916.5265c-.1527.9536.2173,1.4305,1.1098,1.4305.7171,0,1.175-.2477,1.3734-.7438h1.2247c-.1679.5339-.5035.9599-1.007,1.2759-.5038.3166-1.0912.475-1.7626.475ZM381.829,770.2157l-.0456.2862,2.6548-.0118.0459-.2856c.0686-.4656.0133-.822-.1661-1.0704-.1791-.2477-.4861-.3719-.9211-.3719-.4427,0-.7953.126-1.0586.3775-.2632.2521-.4331.6109-.5094,1.076ZM388.9243,774.301c-.6333,0-1.1008-.2117-1.4019-.6351-.3014-.4234-.3949-1.0008-.2803-1.7335l.2744-1.7738c.1145-.7326.393-1.3119.8357-1.7397.4424-.4272.98-.6407,1.6133-.6407.4653,0,.8298.1186,1.093.3545.2632.2365.3908.5575.3834.9617h.023l.2058-1.4652.2977-1.7962h1.2358l-1.3274,8.3537h-1.2247l.1946-1.2014h-.023c-.122.4116-.3511.7339-.6867.9667s-.7401.3489-1.2129.3489ZM389.5309,773.2257c.389,0,.7152-.1186.9782-.3551.2632-.2359.4293-.5718.4979-1.007l.2518-1.6478c.0761-.4272.0189-.7612-.1717-1.0015-.1909-.2403-.4805-.3601-.8698-.3601-.3967,0-.7249.118-.9841.3545-.2595.2365-.4234.5724-.492,1.007l-.2518,1.6478c-.0764.4427-.023.7804.1602,1.0133s.4768.3489.8813.3489ZM401.0175,774.301c-.4731,0-.8394-.1161-1.0986-.3489-.2595-.2328-.3852-.5551-.3775-.9667h-.0115l-.1946,1.2014h-1.2243l1.3274-8.3537h1.2358l-.2862,1.7962-.2744,1.4652h.0456c.122-.4123.353-.7345.6923-.9673.3396-.2322.7419-.3489,1.2076-.3489.633,0,1.1002.2136,1.4016.6407.3014.4278.3949,1.007.2806,1.7397l-.2747,1.7738c-.1145.7326-.3949,1.31-.8413,1.7335-.4461.4234-.9822.6351-1.6077.6351ZM400.7657,773.2257c.3967,0,.7227-.1161.9785-.3489.2555-.2328.4216-.5706.4976-1.0133l.2518-1.6478c.0689-.4346.0115-.7705-.1714-1.007-.1832-.2365-.4734-.3545-.8698-.3545-.3893,0-.7152.1198-.9785.3601s-.429.5743-.4979,1.0015l-.2518,1.6478c-.0686.4352-.0112.7711.1717,1.007.1832.2365.4731.3551.8698.3551ZM405.4694,776.2468l.1717-1.0642h1.934c.6407,0,1.007-.3017,1.0986-.9046l.1028-.6749.2061-1.1902h-.0345c-.122.4197-.3471.7438-.6752.9729-.3281.2285-.7286.3433-1.2014.3433-.6258,0-1.093-.2005-1.4019-.601s-.4104-.9443-.3033-1.631l.5836-3.6047h1.2358l-.5606,3.4793c-.0612.4116,0,.732.1832.9611s.4653.3433.8469.3433c.389,0,.7168-.1217.9841-.3663.267-.244.4309-.5836.492-1.0182l.538-3.3992h1.2358l-1.007,6.4086c-.0993.6029-.37,1.0778-.8124,1.4249-.4427.3471-.9996.5209-1.6707.5209h-1.9455ZM417.787,770.0853h3.221l.5368-1.8545h-5.4659l-1.7081,6.4419h2.1473l.5856-2.0985h3.0257l.4392-1.7081h-3.0257l.244-.7808ZM424.229,772.9158c-.5856,0-1.0249-.3904-1.0249-1.1225,0-.8784.6344-1.7569,1.6105-1.7569.488,0,.8784.244,1.0248.7808l1.9521-.8296c-.2928-1.1713-1.2689-1.9033-2.6353-1.9033-2.7817,0-4.1482,2.1473-4.1482,3.9042s1.2689,2.8305,3.0746,2.8305c1.3665,0,2.3425-.5856,2.9769-1.4153l-1.5129-1.1713c-.3904.4392-.8296.6832-1.3177.6832ZM430.9149,768.2308h-2.1473l-1.7569,6.4419h5.1242l.488-1.8545h-2.9281l1.2201-4.5874ZM439.7481,771.0125c0-1.6593-1.3177-2.9281-3.221-2.9281-2.1961,0-3.8066,1.8057-3.8066,3.8066,0,1.6593,1.3177,2.9281,3.221,2.9281,2.1961,0,3.8066-1.8057,3.8066-3.8066ZM434.9167,771.6957c0-.8296.5856-1.7081,1.5129-1.7081.7808,0,1.1713.5368,1.1713,1.2201,0,.8296-.5856,1.7081-1.5129,1.7081-.7808,0-1.1713-.5368-1.1713-1.2201ZM443.2131,772.2326h1.0737l-.1952.6832c-.1464.0488-.3416.0976-.5856.0976-.6832,0-1.2689-.3904-1.2689-1.2201,0-1.0249.732-1.9033,1.9521-1.9033.5856,0,1.1225.244,1.5129.5856l1.3665-1.3665c-.4392-.5368-1.5129-1.0737-2.7329-1.0737-2.5865,0-4.2946,1.7569-4.2946,3.8554,0,2.0497,1.6105,2.8793,3.221,2.8793.9272,0,1.8545-.2928,2.4889-.6832l.9272-3.3186h-3.1234l-.3416,1.4641ZM450.7775,768.0844c-2.1961,0-3.8066,1.8057-3.8066,3.8066,0,1.6593,1.3177,2.9281,3.221,2.9281,2.1961,0,3.8066-1.8057,3.8066-3.8066,0-1.6593-1.3177-2.9281-3.221-2.9281ZM450.3382,772.9158c-.7808,0-1.1713-.5368-1.1713-1.2201,0-.8296.5856-1.7081,1.5129-1.7081.7808,0,1.1713.5368,1.1713,1.2201,0,.8296-.5856,1.7081-1.5129,1.7081ZM437.9424,767.4987c-.0488.2928.0976.488.4392.488s.5368-.1952.6344-.488c.0488-.244-.0976-.488-.4392-.488s-.5856.244-.6344.488ZM432.1349,765.4978c-.4392,0-.732.244-.7808.5856s.0976.5856.5368.5856.732-.244.7808-.5856c.0976-.3416-.0976-.5856-.5368-.5856ZM433.0134,767.3035c-.0976.5368.1464.8784.8296.8784.6344,0,1.0737-.3904,1.1713-.8784s-.1464-.8784-.8296-.8784c-.6832,0-1.0737.3904-1.1713.8784ZM439.6017,777.552l-2.4401-1.8057h-1.5129l4.2458,3.1722,1.6105-3.1722h-.976l-.9272,1.8057ZM425.8394,767.1571l-2.0009-1.4641,23.1323-2.7817-2.1473,4.2458h1.0248l2.6841-5.3195-26.9877,3.221,2.7817,2.0985h1.5129ZM338.7186,785.7853l.6088-3.8315h2.32l-.084.5194h-1.7636l-.1837,1.1445h1.6272l-.084.5248h-1.6166l-.2573,1.6428h-.5668ZM342.97,785.8377c-.3568,0-.6228-.1005-.7978-.3019-.175-.201-.2345-.473-.1784-.8161l.2677-1.7006c.056-.3429.2029-.6148.4408-.8161.2379-.201.5355-.3019.8923-.3019s.6228.1.7979.2993c.1748.1993.2361.4707.1837.8136l-.2677,1.7057c-.0561.3431-.2039.6151-.4435.8161-.2398.2013-.5381.3019-.895.3019ZM343.0487,785.3339c.1925,0,.3483-.0524.4672-.1575.119-.1051.1942-.2571.2257-.4568l.2678-1.7006c.0315-.1993.0051-.3517-.0787-.4565-.084-.1051-.2223-.1575-.4148-.1575s-.3473.0524-.4645.1575c-.1173.1048-.1916.2571-.2231.4565l-.2677,1.7006c-.0315.1996-.0053.3517.0787.4568s.2204.1575.4094.1575ZM344.9961,785.7853l.6088-3.8315h1.202c.2379,0,.4391.0464.6036.139.1645.0928.2835.223.357.391s.091.3656.0524.5932c-.0384.2591-.14.4838-.3044.6746-.1645.1905-.3656.3209-.6036.391l.5354,1.6428h-.6194l-.4777-1.5748h-.5406l-.2466,1.5748h-.5668ZM345.8883,783.7068h.6352c.1889,0,.349-.0558.4803-.168.1313-.1119.2107-.2623.2388-.4514.0316-.1925,0-.3454-.0944-.4593-.0945-.1136-.2362-.1706-.4252-.1706h-.6352l-.1995,1.2493ZM349.545,785.7853l.6088-3.8315h1.2544c.3709,0,.6508.1048.8399.315.1889.2099.2553.4898.1993.8398-.0384.2344-.1216.4383-.2493.6114s-.2905.307-.4881.4015c-.1978.0945-.419.1418-.6639.1418h-.6928l-.2415,1.5221h-.5668ZM350.432,783.754h.6928c.1924,0,.3568-.0587.4934-.176.1364-.117.2204-.2737.2519-.4696s-.0017-.3525-.0997-.4699-.245-.1757-.441-.1757h-.6876l-.2099,1.2911ZM352.7466,785.7853l.6088-3.8315h2.2518l-.0787.5038h-1.6954l-.1731,1.0867h1.5115l-.0787.4986h-1.5115l-.1942,1.2387h1.6901l-.0787.5038h-2.2518ZM355.8434,785.7853l.6088-3.8315h1.202c.2379,0,.4391.0464.6036.139.1645.0928.2835.223.357.391s.091.3656.0524.5932c-.0384.2591-.14.4838-.3044.6746-.1645.1905-.3656.3209-.6036.391l.5354,1.6428h-.6194l-.4777-1.5748h-.5406l-.2466,1.5748h-.5668ZM356.7356,783.7068h.6352c.1889,0,.349-.0558.4803-.168.1313-.1119.2107-.2623.2388-.4514.0316-.1925,0-.3454-.0944-.4593-.0945-.1136-.2362-.1706-.4252-.1706h-.6352l-.1995,1.2493ZM360.1316,785.8377c-.385,0-.6736-.0951-.8661-.2859-.1924-.1908-.2641-.4505-.2151-.7794h.5668c-.028.1748.0105.3121.1155.4121.1051.0997.266.1495.483.1495.2029,0,.3701-.049.5012-.1469.1313-.098.2109-.2327.2389-.4044.0209-.1504.0007-.2788-.0604-.3856-.0614-.1068-.1583-.1811-.2913-.2233l-.4566-.1364c-.266-.0803-.4619-.217-.5879-.4095-.126-.1922-.1697-.4197-.1313-.6823.035-.2099.1121-.3935.2309-.551s.2729-.2799.4619-.3673.4024-.1313.6404-.1313c.3498,0,.6158.0954.7978.2859.182.1908.2485.4437.1995.7586h-.5668c.0279-.168-.0027-.3001-.092-.3964-.0891-.0963-.2301-.1444-.4225-.1444-.1889,0-.343.0447-.4619.1338-.119.0894-.1889.2144-.21.3753-.0245.1506-.007.2791.0525.3859s.1575.1811.2939.223l.4672.1469c.2624.0806.4558.2173.5801.4095.1242.1925.1653.4217.1233.6877-.035.217-.1155.4058-.2415.5667-.1259.1612-.2878.2862-.4855.3753-.1976.0894-.419.1338-.6639.1338ZM363.2651,785.8377c-.3568,0-.6228-.1005-.7978-.3019-.175-.201-.2345-.473-.1784-.8161l.2677-1.7006c.056-.3429.2029-.6148.4408-.8161.2379-.201.5355-.3019.8923-.3019s.6228.1.7979.2993c.1748.1993.2361.4707.1837.8136l-.2677,1.7057c-.0561.3431-.2039.6151-.4435.8161-.2398.2013-.5381.3019-.895.3019ZM363.3439,785.3339c.1925,0,.3483-.0524.4672-.1575.119-.1051.1942-.2571.2257-.4568l.2678-1.7006c.0315-.1993.0051-.3517-.0787-.4565-.084-.1051-.2223-.1575-.4148-.1575s-.3473.0524-.4645.1575c-.1173.1048-.1916.2571-.2231.4565l-.2677,1.7006c-.0315.1996-.0053.3517.0787.4568s.2204.1575.4094.1575ZM365.2754,785.7853l.6088-3.8315h.7086l.6194,3.186c.007-.098.0165-.217.0289-.3571.0121-.1398.0271-.2851.0446-.4354.0175-.1506.0367-.2888.0577-.4146l.315-1.9788h.525l-.609,3.8315h-.7085l-.6141-3.186c-.0071.0945-.0167.209-.0289.3437s-.0272.2757-.0446.4226c-.0177.1469-.0367.2833-.0578.4095l-.315,2.0102h-.5301ZM368.2252,785.7853l1.5851-3.8315h.7454l.3726,3.8315h-.5616l-.0735-.9711h-1.0865l-.3884.9711h-.5932ZM369.3852,784.3418h.8714l-.0893-1.1023c-.0175-.1959-.0298-.3654-.0367-.5089-.0071-.1435-.0105-.2432-.0105-.2993-.0175.0561-.0517.1558-.1024.2993s-.1146.3112-.1915.5038l-.441,1.1075ZM371.7208,785.7853l.6088-3.8315h.567l-.525,3.3118h1.6744l-.0787.5197h-2.2465ZM376.6785,785.8377c-.3673,0-.6342-.1005-.8003-.3019-.1663-.201-.2214-.475-.1654-.8213l.4357-2.7608h.567l-.4357,2.7554c-.0315.1962-.008.35.0708.4619.0787.1122.2144.168.4068.168.1925,0,.3473-.0558.4646-.168.1172-.1119.1915-.2657.2231-.4619l.4355-2.7554h.567l-.4357,2.7608c-.056.35-.2003.6245-.433.8241-.2328.1993-.5328.299-.9003.299ZM379.8435,785.8377c-.385,0-.6736-.0951-.8661-.2859-.1924-.1908-.2641-.4505-.2151-.7794h.5668c-.028.1748.0105.3121.1155.4121.1051.0997.266.1495.483.1495.2029,0,.3701-.049.5012-.1469.1313-.098.2109-.2327.2389-.4044.0209-.1504.0007-.2788-.0604-.3856-.0614-.1068-.1583-.1811-.2913-.2233l-.4566-.1364c-.266-.0803-.4619-.217-.5879-.4095-.126-.1922-.1697-.4197-.1313-.6823.035-.2099.1121-.3935.2309-.551s.2729-.2799.4619-.3673.4024-.1313.6404-.1313c.3498,0,.6158.0954.7978.2859.182.1908.2485.4437.1995.7586h-.5668c.0279-.168-.0027-.3001-.092-.3964-.0891-.0963-.2301-.1444-.4225-.1444-.1889,0-.343.0447-.4619.1338-.119.0894-.1889.2144-.21.3753-.0245.1506-.007.2791.0525.3859s.1575.1811.2939.223l.4672.1469c.2624.0806.4558.2173.5801.4095.1242.1925.1653.4217.1233.6877-.035.217-.1155.4058-.2415.5667-.1259.1612-.2878.2862-.4855.3753-.1976.0894-.419.1338-.6639.1338ZM381.9062,785.7853l.6088-3.8315h2.2518l-.0787.5038h-1.6954l-.1731,1.0867h1.5115l-.0787.4986h-1.5115l-.1942,1.2387h1.6901l-.0787.5038h-2.2518ZM386.9426,785.8377c-.3568,0-.6228-.1005-.7978-.3019-.175-.201-.2345-.473-.1784-.8161l.2677-1.7006c.056-.3429.2029-.6148.4408-.8161.2379-.201.5355-.3019.8923-.3019s.6228.1.7979.2993c.1748.1993.2361.4707.1837.8136l-.2677,1.7057c-.0561.3431-.2039.6151-.4435.8161-.2398.2013-.5381.3019-.895.3019ZM387.0213,785.3339c.1925,0,.3483-.0524.4672-.1575.119-.1051.1942-.2571.2257-.4568l.2678-1.7006c.0315-.1993.0051-.3517-.0787-.4565-.084-.1051-.2223-.1575-.4148-.1575s-.3473.0524-.4645.1575c-.1173.1048-.1916.2571-.2231.4565l-.2677,1.7006c-.0315.1996-.0053.3517.0787.4568s.2204.1575.4094.1575ZM388.9529,785.7853l.6088-3.8315h.7086l.6194,3.186c.007-.098.0165-.217.0289-.3571.0121-.1398.0271-.2851.0446-.4354.0175-.1506.0367-.2888.0577-.4146l.315-1.9788h.525l-.609,3.8315h-.7085l-.6141-3.186c-.0071.0945-.0167.209-.0289.3437s-.0272.2757-.0446.4226c-.0177.1469-.0367.2833-.0578.4095l-.315,2.0102h-.5301ZM392.249,785.7853l.6088-3.8315h.567l-.525,3.3118h1.6744l-.0787.5197h-2.2465ZM396.1174,785.7853l.2204-1.4119-.7506-2.4197h.5774l.4462,1.4486c.0279.0945.0498.1837.0656.2677.0157.084.0253.1469.0288.1888.0175-.0419.0464-.1048.0867-.1888.0402-.084.0883-.1731.1442-.2677l.8976-1.4486h.5984l-1.5275,2.4197-.2204,1.4119h-.5668ZM399.217,785.7853l.6088-3.8315h.7086l.6192,3.186c.0071-.098.0165-.217.029-.3571.012-.1398.0271-.2851.0444-.4354.0177-.1506.037-.2888.0578-.4146l.315-1.9788h.5248l-.6088,3.8315h-.7085l-.6141-3.186c-.0071.0945-.0167.209-.0289.3437s-.0272.2757-.0446.4226c-.0177.1469-.0367.2833-.0578.4095l-.315,2.0102h-.5301ZM403.5053,785.8377c-.3571,0-.6231-.1005-.7979-.3019-.1751-.201-.2344-.473-.1785-.8161l.2677-1.7006c.0561-.3429.203-.6148.4411-.8161.2378-.201.5354-.3019.8922-.3019.3571,0,.6228.1.7979.2993.1748.1993.2361.4707.1837.8136l-.2677,1.7057c-.0561.3431-.2039.6151-.4437.8161-.2395.2013-.5379.3019-.8947.3019ZM403.5839,785.3339c.1925,0,.3483-.0524.4673-.1575.1187-.1051.1942-.2571.2255-.4568l.2677-1.7006c.0316-.1993.0054-.3517-.0786-.4565-.084-.1051-.2224-.1575-.4146-.1575-.1925,0-.3474.0524-.4647.1575-.117.1048-.1914.2571-.223.4565l-.2677,1.7006c-.0316.1996-.0051.3517.0789.4568.0837.1051.2204.1575.4092.1575ZM406.3814,785.7853l.5248-3.3121h-1.0234l.084-.5194h2.6193l-.084.5194h-1.0289l-.5248,3.3121h-.567ZM409.5178,785.7853l.6088-3.8315h2.32l-.084.5194h-1.7636l-.1837,1.1445h1.6272l-.084.5248h-1.6166l-.2571,1.6428h-.567ZM413.7694,785.8377c-.3571,0-.6231-.1005-.7979-.3019-.1751-.201-.2344-.473-.1785-.8161l.2677-1.7006c.0561-.3429.203-.6148.4411-.8161.2378-.201.5354-.3019.8922-.3019.3571,0,.6228.1.7979.2993.1748.1993.2361.4707.1837.8136l-.2677,1.7057c-.0561.3431-.2039.6151-.4437.8161-.2395.2013-.5379.3019-.8947.3019ZM413.848,785.3339c.1925,0,.3483-.0524.4673-.1575.1187-.1051.1942-.2571.2255-.4568l.2677-1.7006c.0316-.1993.0054-.3517-.0786-.4565-.084-.1051-.2224-.1575-.4146-.1575-.1925,0-.3474.0524-.4647.1575-.117.1048-.1914.2571-.223.4565l-.2677,1.7006c-.0316.1996-.0051.3517.0789.4568.0837.1051.2204.1575.4092.1575ZM415.7952,785.7853l.6088-3.8315h1.202c.2381,0,.4391.0464.6037.139.1643.0928.2833.223.3568.391s.0911.3656.0527.5932c-.0387.2591-.1401.4838-.3044.6746-.1646.1905-.3659.3209-.6037.391l.5354,1.6428h-.6194l-.4776-1.5748h-.5408l-.2466,1.5748h-.567ZM416.6876,783.7068h.635c.1891,0,.3491-.0558.4804-.168.131-.1119.2107-.2623.2386-.4514.0316-.1925,0-.3454-.0945-.4593-.0943-.1136-.2361-.1706-.4252-.1706h-.635l-.1993,1.2493ZM420.905,785.8377c-.3602,0-.6308-.1005-.8107-.3019-.1803-.201-.2423-.473-.1865-.8161l.2677-1.7006c.0561-.3463.2056-.6194.4488-.8187s.545-.2993.9056-.2993c.3568,0,.6253.1008.8056.3019.1803.2013.2423.4733.1865.8161h-.567c.0313-.1993.0026-.3517-.0866-.4565-.0894-.1051-.2284-.1575-.4175-.1575-.1925,0-.3508.0524-.475.1575-.1242.1048-.2019.2554-.2335.4514l-.2677,1.7057c-.0316.1996-.0026.3517.0866.4568.0894.1051.2301.1575.4226.1575s.35-.0524.4724-.1575.1993-.2571.2309-.4568h.5667c-.0347.2275-.1145.4252-.2386.5932s-.2808.2976-.4699.3884c-.1888.0908-.4024.1364-.6404.1364ZM424.0335,785.8377c-.3571,0-.6231-.1005-.7979-.3019-.1751-.201-.2344-.473-.1785-.8161l.2677-1.7006c.0561-.3429.203-.6148.4411-.8161.2378-.201.5354-.3019.8922-.3019.3571,0,.6228.1.7979.2993.1748.1993.2361.4707.1837.8136l-.2677,1.7057c-.0561.3431-.2039.6151-.4437.8161-.2395.2013-.5379.3019-.8947.3019ZM424.1121,785.3339c.1925,0,.3483-.0524.4673-.1575.1187-.1051.1942-.2571.2255-.4568l.2677-1.7006c.0316-.1993.0054-.3517-.0786-.4565-.084-.1051-.2224-.1575-.4146-.1575-.1925,0-.3474.0524-.4647.1575-.117.1048-.1914.2571-.223.4565l-.2677,1.7006c-.0316.1996-.0051.3517.0789.4568.0837.1051.2204.1575.4092.1575ZM425.9653,785.7853l.6088-3.8315h.6874l.1837,1.2282c.0211.119.0367.2301.0473.3332.0105.1034.0194.1828.0262.2389.0177-.0561.0473-.1364.0894-.2415.0419-.1051.0908-.217.1469-.336l.5667-1.2228h.7088l-.6088,3.8315h-.5354l.2045-1.2911c.0245-.168.0578-.3525.1-.5539.0419-.201.0874-.4041.1364-.6088s.0963-.3998.1418-.5852c.0453-.1854.0874-.3483.1259-.4881l-.8554,1.8632h-.5513l-.2833-1.8632c-.0037.1364-.0105.2947-.0211.475s-.0236.3719-.0393.5747c-.0157.203-.035.4069-.0578.6114-.0228.2047-.0481.3964-.076.5749l-.2047,1.2911h-.5405ZM429.1145,785.7853l.6088-3.8315h.6874l.1837,1.2282c.0211.119.0367.2301.0473.3332.0105.1034.0194.1828.0262.2389.0177-.0561.0473-.1364.0894-.2415.0419-.1051.0908-.217.1469-.336l.5667-1.2228h.7088l-.6088,3.8315h-.5354l.2045-1.2911c.0245-.168.0578-.3525.1-.5539.0419-.201.0874-.4041.1364-.6088s.0963-.3998.1418-.5852c.0453-.1854.0874-.3483.1259-.4881l-.8554,1.8632h-.5513l-.2833-1.8632c-.0037.1364-.0105.2947-.0211.475s-.0236.3719-.0393.5747c-.0157.203-.035.4069-.0578.6114-.0228.2047-.0481.3964-.076.5749l-.2047,1.2911h-.5405ZM432.4107,785.7853l.6088-3.8315h2.2516l-.0786.5038h-1.6955l-.1731,1.0867h1.5115l-.0786.4986h-1.5118l-.1942,1.2387h1.6901l-.0786.5038h-2.2516ZM435.5073,785.7853l.6088-3.8315h1.202c.2381,0,.4391.0464.6037.139.1643.0928.2833.223.3568.391s.0911.3656.0527.5932c-.0387.2591-.1401.4838-.3044.6746-.1646.1905-.3659.3209-.6037.391l.5354,1.6428h-.6194l-.4776-1.5748h-.5408l-.2466,1.5748h-.567ZM436.3997,783.7068h.635c.1891,0,.3491-.0558.4804-.168.131-.1119.2107-.2623.2386-.4514.0316-.1925,0-.3454-.0945-.4593-.0943-.1136-.2361-.1706-.4252-.1706h-.635l-.1993,1.2493ZM439.8007,785.8377c-.3602,0-.6308-.1005-.8107-.3019-.1803-.201-.2423-.473-.1865-.8161l.2677-1.7006c.0561-.3463.2056-.6194.4488-.8187s.545-.2993.9056-.2993c.3568,0,.6253.1008.8056.3019.1803.2013.2423.4733.1865.8161h-.567c.0313-.1993.0026-.3517-.0866-.4565-.0894-.1051-.2284-.1575-.4175-.1575-.1925,0-.3508.0524-.475.1575-.1242.1048-.2019.2554-.2335.4514l-.2677,1.7057c-.0316.1996-.0026.3517.0866.4568.0894.1051.2301.1575.4226.1575s.35-.0524.4724-.1575.1993-.2571.2309-.4568h.5667c-.0347.2275-.1145.4252-.2386.5932s-.2808.2976-.4699.3884c-.1888.0908-.4024.1364-.6404.1364ZM441.8792,785.7853l.0789-.5038h.7768l.4459-2.824h-.7766l.0837-.5038h2.1258l-.084.5038h-.7766l-.4462,2.824h.7768l-.0789.5038h-2.1258ZM444.7399,785.7853l1.585-3.8315h.7452l.3728,3.8315h-.5616l-.0735-.9711h-1.0867l-.3884.9711h-.5929ZM445.8998,784.3418h.8714l-.0894-1.1023c-.0174-.1959-.0296-.3654-.0367-.5089-.0068-.1435-.0103-.2432-.0103-.2993-.0177.0561-.0518.1558-.1025.2993s-.1148.3112-.1916.5038l-.4408,1.1075ZM448.2354,785.7853l.6088-3.8315h.567l-.5248,3.3118h1.6741l-.0786.5197h-2.2465ZM453.1932,785.8377c-.3676,0-.6345-.1005-.8005-.3019-.1663-.201-.2213-.475-.1654-.8213l.4357-2.7608h.567l-.4357,2.7554c-.0316.1962-.008.35.0709.4619.0786.1122.2141.168.4066.168s.3474-.0558.4645-.168c.1173-.1119.1916-.2657.2233-.4619l.4357-2.7554h.5667l-.4357,2.7608c-.0558.35-.2002.6245-.4328.8241-.2329.1993-.5328.299-.9001.299ZM456.3581,785.8377c-.385,0-.6738-.0951-.866-.2859-.1925-.1908-.2643-.4505-.2153-.7794h.567c-.0282.1748.0105.3121.1153.4121.1051.0997.266.1495.483.1495.2028,0,.3699-.049.5012-.1469s.2107-.2327.2389-.4044c.0211-.1504.0009-.2788-.0604-.3856s-.1583-.1811-.2913-.2233l-.4568-.1364c-.266-.0803-.4619-.217-.5878-.4095-.1259-.1922-.1697-.4197-.1313-.6823.035-.2099.1119-.3935.2309-.551s.2731-.2799.4619-.3673c.1891-.0874.4024-.1313.6404-.1313.3497,0,.6157.0954.7979.2859.1817.1908.2483.4437.1993.7586h-.567c.0279-.168-.0026-.3001-.0917-.3964-.0894-.0963-.2301-.1444-.4226-.1444-.1891,0-.3429.0447-.4619.1338-.119.0894-.1891.2144-.2099.3753-.0245.1506-.0071.2791.0524.3859s.1575.1811.2939.223l.4673.1469c.2623.0806.4556.2173.5798.4095.1242.1925.1654.4217.1236.6877-.035.217-.1156.4058-.2415.5667-.1262.1612-.2879.2862-.4855.3753-.1979.0894-.4192.1338-.6641.1338ZM458.4209,785.7853l.6088-3.8315h2.2516l-.0786.5038h-1.6955l-.1731,1.0867h1.5115l-.0786.4986h-1.5118l-.1942,1.2387h1.6901l-.0786.5038h-2.2516Z" style="fill: #ccc;"/>
  <g id="g841">
    <g id="g1096">
      <path id="path847" d="M399.9468,54.4529c5.6945,3.9312,11.4917,7.7628,17.494,11.2837,10.5628,6.2095,21.1177,11.2837,31.573,15.0079,16.0474,5.7992,32.0908,8.6948,48.7596,8.5953,17.3936-.1075,33.5406-3.3138,49.4805-9.6308,18.2221-7.1415,34.4726-17.8039,49.8987-29.709l48.656,175.3624-.5178.5178c-11.8015,9.6269-22.6711,21.1177-30.2308,34.2655-6.313,10.8696-10.3517,22.9817-10.6624,36.2291-.5178,20.811,6.6277,42.0323,13.3549,61.9074,1.5534,4.5525,3.1067,9.1091,4.4529,13.3509,5.4846,17.3945,9.7304,33.958,12.63,50.7268,2.8956,16.8735,4.449,33.9532,4.2419,52.1742-.1036,27.6394-6.2095,57.1429-20.2892,87.3701-12.63,27.1233-31.573,54.8655-58.3864,82.2982-12.0047,12.3193-24.9454,23.809-38.5074,34.4714-13.4585,10.6636-27.6379,20.4968-42.2394,29.6078-11.4869,7.1427-23.5991,14.183-36.6433,21.0146-10.6625,5.5889-21.9463,11.0746-33.9549,16.5622-3.0032,1.45-6.0043,2.7958-9.1099,4.1417-3.0012-1.3458-6.0039-2.6916-9.0051-4.1417-12.0079-5.4875-23.2924-10.9733-33.8505-16.5622-13.147-6.8316-25.2592-13.8719-36.6465-21.0146-14.5968-9.1111-28.7786-18.9442-42.3394-29.6078-13.5624-10.6624-26.398-22.1521-38.4062-34.4714-26.9145-27.4327-45.86-55.1749-58.4888-82.2982-13.9762-30.2272-20.0829-59.7307-20.2901-87.3701-.1024-18.2209,1.3458-35.3007,4.2447-52.1742,2.8984-16.7687,7.247-33.3323,12.7328-50.7268,1.3458-4.2419,2.8988-8.7984,4.4514-13.3509,6.6249-19.875,13.8719-41.0963,13.3537-61.9074-.3095-13.2474-4.347-25.3596-10.7664-36.2291-7.5565-13.1478-18.4256-24.6387-30.1228-34.2655l-.6221-.5178,48.7572-175.3624c15.4261,11.9051,31.6786,22.5675,49.8975,29.709,15.9415,6.317,32.0912,9.5233,49.3797,9.6308,16.7703.0996,32.8145-2.796,48.7572-8.5953,10.5597-3.7241,21.015-8.7984,31.677-15.0079,5.9-3.521,11.594-7.3525,17.2869-11.2837" style="fill: #2a7570; fill-rule: evenodd;"/>
      <path id="path849" d="M399.9468,57.4561c-16.1482,11.2798-32.0908,19.871-48.1362,25.5667-16.2525,5.8988-32.609,8.9019-49.5848,8.6948-17.5984-.1036-34.0576-3.3098-50.3117-9.7304-15.7343-6.2095-31.2632-15.422-47.6196-27.845l-47.3074,170.3916c11.6972,9.7304,22.4636,21.2213,30.1244,34.3691,6.5205,11.2837,10.6624,23.7067,10.9735,37.3723.5166,21.3248-6.7292,42.7532-13.4581,62.7318-1.4486,4.449-3.0028,8.9019-4.4514,13.3509-5.3834,17.2901-9.7316,33.7497-12.5261,50.4173-2.8984,16.7675-4.347,33.6422-4.2442,51.7587.104,27.33,6.2122,56.418,20.0829,86.3353,12.4217,26.9145,31.2632,54.3473,57.8682,81.5733,12.0079,12.3193,24.8438,23.7063,38.3019,34.2643,13.4581,10.664,27.5351,20.394,42.028,29.5039,11.3873,7.1411,23.4996,14.0786,36.5438,20.9106,12.8359,6.8332,26.7062,13.4581,41.7169,20.1869,15.1162-6.7289,28.9849-13.3538,41.9256-20.1869,13.0442-6.832,25.0529-13.7695,36.4363-20.9106,14.6016-9.1099,28.6774-18.8399,42.1359-29.5039,13.4545-10.5581,26.188-21.945,38.2007-34.2643,26.6023-27.226,45.4417-54.6587,57.9682-81.5733,13.8727-29.9173,19.8751-59.0054,20.0822-86.3353.1036-18.1166-1.3462-34.9912-4.2458-51.7588-2.8956-16.6675-7.1415-33.1272-12.626-50.4173-1.4498-4.449-2.8996-8.9019-4.4529-13.3509-6.7272-19.9786-13.9723-41.407-13.4545-62.7318.3067-13.6656,4.5526-26.0885,11.0767-37.3723,7.5557-13.1478,18.4253-24.6387,30.1232-34.3691l-47.3098-170.3916c-16.3581,12.4229-31.8837,21.6355-47.6204,27.845-16.2505,6.4206-32.7122,9.6269-50.4125,9.7304-16.9754.2071-33.3335-2.796-49.584-8.6948-15.9438-5.6956-31.8877-14.2869-48.2426-25.5667" style="fill: #fff; fill-rule: evenodd;"/>
      <path id="path867" d="M225.2066,290.476c.1028,1.7605.2067,3.4174.2067,5.1779.6209,25.7738-7.4541,49.6876-15.0106,71.9444-.8277,2.5889-1.6557,5.1779-4.1403,13.0442-5.1763,16.1486-9.1095,31.4691-11.8011,46.6868-2.5873,15.1134-3.9332,30.5382-3.8304,47.1003.2071,23.6039,5.4861,48.9655,17.5984,75.0524,11.1802,24.1205,28.2604,48.9643,52.692,73.9124,11.283,11.4913,23.1881,22.1537,35.6102,31.8853,12.7332,10.0415,25.9841,19.2537,39.5449,27.7426,10.9719,6.9359,22.5659,13.5624,34.8869,19.9786,9.0051,4.7624,18.6328,9.5249,28.9837,14.3901,10.4553-4.8652,20.1865-9.6276,29.192-14.3901,12.3193-6.4162,23.8102-13.0426,34.7833-19.9786,13.6656-8.4889,26.9169-17.7011,39.6505-27.7426,12.4189-9.7316,24.324-20.394,35.6078-31.8853,24.328-24.9481,41.5146-49.7919,52.6908-73.9124,12.1122-26.0869,17.3937-51.4485,17.4972-75.0524.1036-16.562-1.2427-31.9869-3.8316-47.1003-2.5889-15.2178-6.6237-30.5382-11.698-46.6868-2.4853-7.8664-3.4134-10.4553-4.2419-13.0442-7.5597-22.2568-15.6332-46.1706-15.0118-71.9444.1036-1.7605.2071-3.4174.3107-5.1779H225.2066" style="fill: #f8da18; fill-rule: evenodd;"/>
      <path id="path869" d="M399.9468,89.9572c-12.8355,7.7668-25.7754,14.0798-38.9224,18.8435-19.2553,6.9343-38.7173,10.4553-58.903,10.2482-21.1173-.1036-40.7864-3.9352-60.2489-11.698-7.1427-2.796-14.1814-6.1099-21.326-10.0411l-32.9185,118.4258c8.8,8.7984,16.7707,18.6323,23.0857,29.5019,2.2779,4.0388,4.347,8.181,6.211,12.4229h366.148c1.864-4.2419,3.9352-8.3841,6.317-12.4229,6.313-10.8696,14.1794-20.7035,22.9778-29.5019l-32.8118-118.4258c-7.1455,3.9312-14.2869,7.245-21.4324,10.0411-19.3573,7.7628-39.0252,11.5944-60.2465,11.698-20.1857.2071-39.5469-3.3138-58.8006-10.2482-13.1438-4.7636-26.0853-11.0767-39.1295-18.8435" style="fill: #2a7570; fill-rule: evenodd;"/>
    </g>
    <g id="g1104">
      <path id="path871" d="M286.9037,584.4732c8.0747-10.9751,31.9884-16.047,45.6532-15.8403,16.7691.2087,33.9532,5.279,47.2046,9.9375,16.5636,5.9028,37.994,13.4581,52.1734,17.0814-6.5201,3.5193-21.8438,5.5905-33.5406,5.6929-14.079.2071-29.2952-2.0692-42.4433-7.5549-7.4525-3.1071-13.8707-8.0767-21.3249-11.1822-6.5221-2.6913-12.7328-3.8288-20.5991-4.0371-11.1806-.3115-20.0829,2.6913-27.1233,5.9028" style="fill: #2a7570; fill-rule: evenodd;"/>
      <path id="path873" d="M486.6968,420.084c6.2134-8.5933,12.9407-12.8375,20.0822-12.7332,8.2806.1028,13.562,6.0039,22.0497,6.2094,5.9027,0,12.2158-2.5873,18.1146-6.0043v17.3928c-5.0703,2.1719-11.1802,3.5178-17.2861,3.6221-6.0063.1028-12.1122-1.0348-17.079-3.7261-4.453-2.485-8.0735-5.3818-13.562-6.6249-4.5565-1.0364-8.6948-.2087-12.3193,1.864" style="fill: #2a7570; fill-rule: evenodd;"/>
      <path id="path875" d="M481.5229,471.2214c5.381-14.5952,7.8664-30.0201,7.7628-36.5438l57.8646-.1028c3.6245,7.6612,5.1779,15.943,4.9708,24.0177,0,4.347-.7249,8.5913-1.864,12.6288h-68.7342" style="fill: #2a7570; fill-rule: evenodd;"/>
      <path id="path877" d="M302.7424,468.8396h46.9975c11.0774,12.0095,30.4355,19.6703,46.3765,24.3288,11.9055,3.6217,26.3987,6.8316,40.2715,6.8316,17.8039,0,34.4687-5.5901,42.9604-23.3952h69.1484c-1.0316,2.5873-2.2743,5.1747-3.8276,7.5565-4.2458,7.0403-10.2482,13.2498-16.9794,18.426-9.9375,7.7636-20.8071,14.1834-25.4631,24.2244-3.2103,6.832-3.2103,14.2861-2.6925,30.0205-36.4402-16.5636-76.6045-36.2327-116.5645-47.309-20.5991-5.6929-41.2003-9.2138-61.1789-8.7984l-19.0482-31.8853" style="fill: #2a7570; fill-rule: evenodd;"/>
      <path id="path879" d="M382.2445,324.638l112.6293,47.9271c-34.3651,33.958-57.4544,71.2235-38.9216,118.9463-19.0466-2.485-43.5833-16.0458-76.916-47.309,16.0458,22.2565,34.8869,41.2007,61.3864,51.3445-34.7813-2.483-59.1085-10.9719-75.465-23.3936-19.358-14.8023-27.226-36.0256-27.0189-58.3848.4154-33.5402,19.0482-68.1164,44.3058-89.1306" style="fill: #2a7570; fill-rule: evenodd;"/>
      <path id="path881" d="M253.467,593.5811c-.8277-2.2763.6221-5.4858,2.2779-8.1774,1.1387-1.864,2.3802-3.7277,2.7941-5.9012,1.2431-6.7292-1.8624-8.1778-5.1747-9.9375-2.796-1.4482-6.1083-3.3122-6.5221-7.4541-.7249-6.315,6.7292-13.4565,16.7703-19.8758,10.9735-7.0387,25.0525-13.2498,34.3691-16.9774,2.1735-.8277,6.6245-1.9664,9.5233-3.8288,5.4857-3.6237,2.2775-7.4541-1.864-10.4569,4.4514-1.9668,13.2514-1.6553,21.015-1.5514,31.1588.2055,57.1429,8.0751,86.0243,18.6331,29.0888,10.4553,58.2801,23.3952,86.3361,36.4394,13.9723,6.5205,33.9548,15.3205,49.6876,15.0094,6.1059-.2071,10.9731-2.2779,14.3905-5.0723-2.8996,10.8691-25.5707,23.6023-57.8686,21.4288-35.1935-2.2779-67.6986-15.115-101.4479-23.9134-20.4952-5.2806-40.7869-8.7984-61.4903-9.2122-19.9802-.4154-37.3699,3.9316-52.692,11.1786-4.1403,1.9668-20.5995,10.3529-36.1284,19.6691" style="fill: #2a7570; fill-rule: evenodd;"/>
    </g>
    <g id="g976">
      <path id="path851" d="M289.8021,286.6444l-2.7941-8.7984h-9.3166l7.5569-5.4846-2.8988-8.8024,7.4525,5.4886,7.5569-5.4886-2.8984,8.8024,7.5581,5.4846h-9.3162l-2.9004,8.7984" style="fill: #2a7570; fill-rule: evenodd;"/>
      <path id="path853" d="M378.0018,286.6444l-2.7945-8.7984h-9.3178l7.5565-5.4846-2.8984-8.8024,7.4541,5.4886,7.5565-5.4886-2.8984,8.8024,7.5569,5.4846h-9.3182l-2.8968,8.7984" style="fill: #2a7570; fill-rule: evenodd;"/>
      <path id="path855" d="M333.9028,286.6444l-2.7956-8.7984h-9.3166l7.5569-5.4846-2.8988-8.8024,7.4541,5.4886,7.5569-5.4886-2.8988,8.8024,7.5569,5.4846h-9.3166l-2.8984,8.7984" style="fill: #2a7570; fill-rule: evenodd;"/>
      <path id="path857" d="M245.8057,286.6444l-2.8984-8.7984h-9.3166l7.5585-5.4846-2.9-8.8024,7.5565,5.4886,7.4541-5.4886-2.8984,8.8024,7.5569,5.4846h-9.3166l-2.796,8.7984" style="fill: #2a7570; fill-rule: evenodd;"/>
      <path id="path859" d="M421.9974,286.6444l-2.7961-8.7984h-9.3154l7.5549-5.4846-2.8956-8.8024,7.4522,5.4886,7.5557-5.4886-2.8956,8.8024,7.4522,5.4846h-9.2126l-2.8996,8.7984" style="fill: #2a7570; fill-rule: evenodd;"/>
      <path id="path861" d="M510.1963,286.6444l-2.8996-8.7984h-9.2126l7.4522-5.4846-2.8956-8.8024,7.5557,5.4886,7.4522-5.4886-2.7961,8.8024,7.4561,5.4846h-9.2126l-2.8996,8.7984" style="fill: #2a7570; fill-rule: evenodd;"/>
      <path id="path863" d="M466.0968,286.6444l-2.7961-8.7984h-9.3162l7.4522-5.4846-2.7921-8.8024,7.4522,5.4886,7.5557-5.4886-2.8956,8.8024,7.4522,5.4846h-9.2167l-2.8956,8.7984" style="fill: #2a7570; fill-rule: evenodd;"/>
      <path id="path865" d="M554.2958,286.6444l-2.8996-8.7984h-9.2126l7.4522-5.4846-2.8956-8.8024,7.5557,5.4886,7.4522-5.4886-2.796,8.8024,7.4561,5.4846h-9.2126l-2.8996,8.7984" style="fill: #2a7570; fill-rule: evenodd;"/>
    </g>
    <g id="g1002">
      <path id="path883" d="M292.9076,207.0407l10.9735-10.9731v-20.3968h-16.7703v16.9794h-7.1431v-44.0995h7.1431v13.7691h16.7703v-17.1865l-10.9735-10.9731h-19.2537l-10.9731,10.9731v50.9342l10.9731,10.9731h19.2537" style="fill: #f8da18; fill-rule: evenodd;"/>
      <path id="path885" d="M226.6548,134.1603h32.9205v14.3905h-15.6316v13.1478h12.7328v14.3865h-12.7328v30.9557h-17.2889v-72.8805" style="fill: #f8da18; fill-rule: evenodd;"/>
      <path id="path887" d="M414.8519,134.1603h14.0798l11.2838,33.6442-1.0356-33.6442h17.083v72.8805h-14.5976l-10.9731-33.5406.4142,33.5406h-16.2545v-72.8805" style="fill: #f8da18; fill-rule: evenodd;"/>
      <path id="path889" d="M323.4458,134.1603h14.079l11.2846,33.6442-.932-33.6442h17.0802v72.8805h-14.6996l-10.8696-33.5406.4142,33.5406h-16.3569v-72.8805" style="fill: #f8da18; fill-rule: evenodd;"/>
      <path id="path891" d="M459.6763,134.1603h36.1296v14.3905h-9.4197v58.49h-17.1826v-58.49h-9.5273v-14.3905" style="fill: #f8da18; fill-rule: evenodd;"/>
      <path id="path893" d="M499.741,134.1603h31.573v14.3905h-14.2869v13.1478h11.9051v14.3865h-11.9051v16.5652h14.3905v14.3905h-31.6766v-72.8805" style="fill: #f8da18; fill-rule: evenodd;"/>
      <path id="path895" d="M376.7606,134.1619l-10.1461,72.8779h16.9782l1.2427-12.9408h8.7983l1.2427,12.9408h16.9782l-10.1461-72.8779h-24.948ZM389.077,149.273h.5192l2.7947,30.6424h-6.2137l2.8997-30.6424Z" style="fill: #f8da18; fill-rule: evenodd;"/>
      <path id="path899" d="M565.5796,207.0407l10.9731-10.9731v-21.4284l-12.8372-11.4909h-11.0767v-14.5976h7.1455v9.9375h16.7683v-13.3549l-10.9731-10.9731h-19.2537l-10.9731,10.9731v21.3249l11.698,11.8015h12.7336v14.3905h-7.1455v-8.9019h-17.2861v12.3193l10.9731,10.9731h19.2537" style="fill: #f8da18; fill-rule: evenodd;"/>
    </g>
    <g id="g1030">
      <path id="path901" d="M378.0018,225.673v12.8372h-7.2474v-22.2568h8.5933l10.1438,12.2118v-12.2118h7.1431v22.2568h-8.1774l-10.4553-12.8372" style="fill: #f8da18; fill-rule: evenodd;"/>
      <path id="path903" d="M300.3617,238.5101v-22.2568h6.6249v17.2861h12.7348v4.9708h-19.3597" style="fill: #f8da18; fill-rule: evenodd;"/>
      <path id="path905" d="M271.7903,238.5101v-17.3897h-8.2818v-4.8672h23.7062v4.8672h-8.3858v17.3897h-7.0387" style="fill: #f8da18; fill-rule: evenodd;"/>
      <path id="path907" d="M238.7645,216.2523l-10.6595,22.2584h7.1413l1.8612-4.1424h9.6327l1.7562,4.1424h7.1413l-9.5218-22.2584h-7.3514ZM242.1835,223.1895l2.7947,6.6279h-5.7994l3.0047-6.6279Z" style="fill: #f8da18; fill-rule: evenodd;"/>
      <path id="path911" d="M341.7715,216.2523l-10.6653,22.2584h7.1413l1.867-4.1424h9.6268l1.762,4.1424h7.1414l-9.5277-22.2584h-7.3456ZM345.1846,223.1895l2.7947,6.6279h-5.7936l2.9989-6.6279Z" style="fill: #f8da18; fill-rule: evenodd;"/>
      <path id="path915" d="M548.7037,238.5101v-22.2568h20.9106v4.7597h-14.1794v3.6245h13.2513v4.7636h-13.2513v4.2419h14.4901v4.8672h-21.2213" style="fill: #f8da18; fill-rule: evenodd;"/>
      <path id="path917" d="M534.0065,216.2533v12.7336c0,1.5534-.2071,2.8996-.7249,4.1383-.5178,1.2427-1.3462,2.2783-2.3818,3.1067-1.0356.932-2.1747,1.5534-3.6245,1.9676-1.4458.5178-3.517.7249-5.2774.7249s-3.7281-.2071-5.1779-.7249c-1.4458-.4142-2.585-1.0356-3.6245-1.9676-1.0316-.8284-1.8601-1.864-2.3778-3.1067-.5178-1.2387-.7249-2.585-.7249-4.1383v-12.7336h6.7273v12.5265c0,.7249.1036,1.4498.3107,2.0712.2071.6174.5178,1.1352.932,1.5494.4142.4142.932.7249,1.4498.8324.6213.3067,1.7605.4102,2.5889.4102.7249,0,1.9676-.1036,2.4814-.3107.6213-.2071,1.1391-.5178,1.5574-.932.3067-.4142.6214-.932.8245-1.5494.2071-.6214.3107-1.3462.3107-2.0712v-12.5265h6.7312" style="fill: #f8da18; fill-rule: evenodd;"/>
      <path id="path919" d="M481.4186,215.9431c-.932,0-1.7617.1006-2.6897.2042-.8285.1036-1.657.3136-2.4855.6243-.7249.2071-1.4514.5193-2.1762.9335-.7209.4142-1.3449.8241-1.9662,1.3419-.6213.6174-1.2427,1.1348-1.657,1.7562-.5138.6213-.9361,1.3463-1.2427,2.0712-.3107.6213-.5163,1.3478-.7235,2.1762-.1037.7249-.21,1.552-.21,2.3804s.1067,1.5578.21,2.3863c.207.7249.4128,1.4495.7235,2.1704.4103.7249.7289,1.3449,1.2427,1.9662.5178.6213,1.0357,1.2442,1.657,1.762s1.2453,1.0327,1.9662,1.4469c.7249.3107,1.4469.7264,2.2754.9335.7249.3107,1.5578.5149,2.3863.6184.928.1036,1.7577.21,2.6897.21,1.0316,0,1.8626-.1065,2.7947-.21.8285-.1036,1.657-.3078,2.4855-.6184.1037,0,.2055-.105.3092-.105l5.3852,5.1751,4.2417-4.2416-4.5567-4.3525c.1075-.2071.3147-.4113.4143-.6184.5178-.6213.9339-1.2413,1.2486-1.9662.3067-.7209.5145-1.4455.7176-2.1704.207-.8285.21-1.5578.21-2.3863s-.0029-1.6555-.21-2.3804c-.2031-.8285-.411-1.5549-.7176-2.1762-.3147-.7249-.7308-1.4499-1.2486-2.0712-.4142-.6213-1.0298-1.1388-1.6511-1.7562-.6213-.5178-1.2472-.9277-1.972-1.3419-.7249-.4142-1.4455-.7264-2.1704-.9335-.8284-.3107-1.657-.5207-2.4855-.6243-.932-.1036-1.7631-.2042-2.7947-.2042ZM481.5235,221.2233c.928,0,1.7562.2013,2.5847.4084.8284.3107,1.4499.7264,2.0712,1.3478s1.1363,1.2413,1.4469,1.9662.4142,1.5535.4142,2.4855-.1037,1.7606-.4142,2.4855c-.1037,0-.0992.1065-.0992.21l-1.972-1.762-4.1366,4.1366.9277,1.0385h-.8227c-1.0356,0-1.871-.1036-2.6955-.4142-.7249-.3107-1.4499-.7231-2.0712-1.2369-.6213-.6213-1.0312-1.2471-1.3419-1.972s-.5193-1.5535-.5193-2.4855.2085-1.7606.5193-2.4855c.3107-.7249.7206-1.3449,1.3419-1.9662s1.3463-1.0371,2.0712-1.3478c.8245-.2071,1.6599-.4084,2.6955-.4084Z" style="fill: #f8da18; fill-rule: evenodd;"/>
      <path id="path923" d="M445.9111,238.5101v-22.2568h6.8308v22.2568h-6.8308" style="fill: #f8da18; fill-rule: evenodd;"/>
      <path id="path925" d="M417.6479,238.5101v-17.3897h-8.2802v-4.8672h23.7062v4.8672h-8.3842v17.3897h-7.0419" style="fill: #f8da18; fill-rule: evenodd;"/>
    </g>
  </g>
</svg>