<?xml version="1.0" encoding="UTF-8"?>
<svg data-name="图层_1" xmlns="http://www.w3.org/2000/svg" version="1.1" viewBox="0 0 800 800">
  <!-- Created by @FCLOGO 2025-1-9 GMT+8 10:42:11 . https://fclogo.top/ -->
<!-- FOR PERSONAL USE ONLY NOT FOR COMMERCIAL USE -->
  <path d="M348.2194,774.301c-.786,0-1.3752-.2173-1.7682-.6519-.393-.4352-.5284-1.03-.406-1.7856l.2518-1.6478c.122-.755.4501-1.3504.9841-1.785.5339-.4352,1.1939-.6525,1.9799-.6525.7553,0,1.3293.1987,1.7223.5954.3927.3967.551.9381.4747,1.6248h-1.2358c.0304-.3589-.0553-.637-.2573-.8357-.2024-.1981-.4979-.2974-.8869-.2974-.4197,0-.763.1167-1.03.3489-.2673.2328-.4349.5631-.5035.9903l-.2632,1.659c-.0686.4352-.0056.7686.1887,1.0015.1946.2328.5017.3489.9214.3489.389,0,.7152-.0987.9785-.2974.2632-.1981.4365-.4805.5206-.8469h1.2358c-.1372.6867-.4672,1.2306-.9897,1.631-.5228.4005-1.1616.6004-1.9169.6004ZM352.7967,774.1868l.9956-6.2943h1.1902l-.1946,1.1902c.3359-.8698.9729-1.3044,1.9113-1.3044.6712,0,1.1691.208,1.4932.624.3244.416.4293.9859.3148,1.7105l-.0686.4234h-1.2703l.0571-.3204c.0689-.4501.0115-.7953-.1714-1.0356-.1832-.2403-.4771-.3607-.8813-.3607-.4045,0-.7401.1223-1.007.3663-.2673.2446-.4349.588-.5035,1.03l-.6296,3.9711h-1.2358ZM361.9058,774.301c-.7705,0-1.3463-.2229-1.7279-.6693s-.515-1.0356-.4005-1.7682l.2518-1.6478c.0838-.488.2573-.9152.5206-1.2815s.6007-.6507,1.0129-.8524c.4119-.2024.8732-.3036,1.3845-.3036.7705,0,1.3485.2235,1.7338.6693.3852.4464.5169,1.0356.3949,1.7682l-.1717,1.1213h-3.845l-.0916.5265c-.1527.9536.2173,1.4305,1.1098,1.4305.7171,0,1.175-.2477,1.3734-.7438h1.2247c-.1679.5339-.5035.9599-1.007,1.2759-.5038.3166-1.0912.475-1.7626.475ZM361.2306,770.2157l-.0456.2862,2.6548-.0118.0459-.2856c.0686-.4656.0133-.822-.1661-1.0704-.1791-.2477-.4861-.3719-.9211-.3719-.4427,0-.7953.126-1.0586.3775-.2632.2521-.4331.6109-.5094,1.076ZM368.3258,774.301c-.6333,0-1.1027-.2117-1.4078-.6351s-.3967-1.0008-.2744-1.7335l.2744-1.7738c.1145-.7326.393-1.3119.8357-1.7397.4424-.4272.98-.6407,1.6133-.6407.4653,0,.8298.1186,1.093.3545.2632.2365.3908.5575.3834.9617h.023l.1717-1.202h1.2358l-.9956,6.2943h-1.2247l.1946-1.2014h-.023c-.122.4116-.3511.7339-.6867.9667s-.7401.3489-1.2129.3489ZM368.9324,773.2257c.389,0,.7152-.1186.9782-.3551.2632-.2359.4293-.5718.4979-1.007l.2518-1.6478c.0686-.4272.0096-.7612-.1773-1.0015-.1872-.2403-.475-.3601-.8642-.3601-.3967,0-.7249.118-.9841.3545-.2595.2365-.4234.5724-.492,1.007l-.2518,1.6478c-.0686.4427-.0133.7804.1658,1.0133.1794.2328.4712.3489.8757.3489ZM376.3477,774.1868c-.5721,0-.9937-.1565-1.2644-.4694-.271-.3123-.3607-.7512-.2691-1.3156l.538-3.3874h-1.7394l.1714-1.1219h1.7397l.2747-1.7161h1.2358l-.2747,1.7161h2.472l-.1832,1.1219h-2.4605l-.5377,3.3874c-.0764.4421.099.6637.5262.6637h1.7167l-.1717,1.1213h-1.7738ZM382.5042,774.301c-.7705,0-1.3463-.2229-1.7279-.6693s-.515-1.0356-.4005-1.7682l.2518-1.6478c.0838-.488.2573-.9152.5206-1.2815s.6007-.6507,1.0129-.8524c.4119-.2024.8732-.3036,1.3845-.3036.7705,0,1.3485.2235,1.7338.6693.3852.4464.5169,1.0356.3949,1.7682l-.1717,1.1213h-3.845l-.0916.5265c-.1527.9536.2173,1.4305,1.1098,1.4305.7171,0,1.175-.2477,1.3734-.7438h1.2247c-.1679.5339-.5035.9599-1.007,1.2759-.5038.3166-1.0912.475-1.7626.475ZM381.829,770.2157l-.0456.2862,2.6548-.0118.0459-.2856c.0686-.4656.0133-.822-.1661-1.0704-.1791-.2477-.4861-.3719-.9211-.3719-.4427,0-.7953.126-1.0586.3775-.2632.2521-.4331.6109-.5094,1.076ZM388.9243,774.301c-.6333,0-1.1008-.2117-1.4019-.6351-.3014-.4234-.3949-1.0008-.2803-1.7335l.2744-1.7738c.1145-.7326.393-1.3119.8357-1.7397.4424-.4272.98-.6407,1.6133-.6407.4653,0,.8298.1186,1.093.3545.2632.2365.3908.5575.3834.9617h.023l.2058-1.4652.2977-1.7962h1.2358l-1.3274,8.3537h-1.2247l.1946-1.2014h-.023c-.122.4116-.3511.7339-.6867.9667s-.7401.3489-1.2129.3489ZM389.5309,773.2257c.389,0,.7152-.1186.9782-.3551.2632-.2359.4293-.5718.4979-1.007l.2518-1.6478c.0761-.4272.0189-.7612-.1717-1.0015-.1909-.2403-.4805-.3601-.8698-.3601-.3967,0-.7249.118-.9841.3545-.2595.2365-.4234.5724-.492,1.007l-.2518,1.6478c-.0764.4427-.023.7804.1602,1.0133s.4768.3489.8813.3489ZM401.0175,774.301c-.4731,0-.8394-.1161-1.0986-.3489-.2595-.2328-.3852-.5551-.3775-.9667h-.0115l-.1946,1.2014h-1.2243l1.3274-8.3537h1.2358l-.2862,1.7962-.2744,1.4652h.0456c.122-.4123.353-.7345.6923-.9673.3396-.2322.7419-.3489,1.2076-.3489.633,0,1.1002.2136,1.4016.6407.3014.4278.3949,1.007.2806,1.7397l-.2747,1.7738c-.1145.7326-.3949,1.31-.8413,1.7335-.4461.4234-.9822.6351-1.6077.6351ZM400.7657,773.2257c.3967,0,.7227-.1161.9785-.3489.2555-.2328.4216-.5706.4976-1.0133l.2518-1.6478c.0689-.4346.0115-.7705-.1714-1.007-.1832-.2365-.4734-.3545-.8698-.3545-.3893,0-.7152.1198-.9785.3601s-.429.5743-.4979,1.0015l-.2518,1.6478c-.0686.4352-.0112.7711.1717,1.007.1832.2365.4731.3551.8698.3551ZM405.4694,776.2468l.1717-1.0642h1.934c.6407,0,1.007-.3017,1.0986-.9046l.1028-.6749.2061-1.1902h-.0345c-.122.4197-.3471.7438-.6752.9729-.3281.2285-.7286.3433-1.2014.3433-.6258,0-1.093-.2005-1.4019-.601s-.4104-.9443-.3033-1.631l.5836-3.6047h1.2358l-.5606,3.4793c-.0612.4116,0,.732.1832.9611s.4653.3433.8469.3433c.389,0,.7168-.1217.9841-.3663.267-.244.4309-.5836.492-1.0182l.538-3.3992h1.2358l-1.007,6.4086c-.0993.6029-.37,1.0778-.8124,1.4249-.4427.3471-.9996.5209-1.6707.5209h-1.9455ZM417.787,770.0853h3.221l.5368-1.8545h-5.4659l-1.7081,6.4419h2.1473l.5856-2.0985h3.0257l.4392-1.7081h-3.0257l.244-.7808ZM424.229,772.9158c-.5856,0-1.0249-.3904-1.0249-1.1225,0-.8784.6344-1.7569,1.6105-1.7569.488,0,.8784.244,1.0248.7808l1.9521-.8296c-.2928-1.1713-1.2689-1.9033-2.6353-1.9033-2.7817,0-4.1482,2.1473-4.1482,3.9042s1.2689,2.8305,3.0746,2.8305c1.3665,0,2.3425-.5856,2.9769-1.4153l-1.5129-1.1713c-.3904.4392-.8296.6832-1.3177.6832ZM430.9149,768.2308h-2.1473l-1.7569,6.4419h5.1242l.488-1.8545h-2.9281l1.2201-4.5874ZM439.7481,771.0125c0-1.6593-1.3177-2.9281-3.221-2.9281-2.1961,0-3.8066,1.8057-3.8066,3.8066,0,1.6593,1.3177,2.9281,3.221,2.9281,2.1961,0,3.8066-1.8057,3.8066-3.8066ZM434.9167,771.6957c0-.8296.5856-1.7081,1.5129-1.7081.7808,0,1.1713.5368,1.1713,1.2201,0,.8296-.5856,1.7081-1.5129,1.7081-.7808,0-1.1713-.5368-1.1713-1.2201ZM443.2131,772.2326h1.0737l-.1952.6832c-.1464.0488-.3416.0976-.5856.0976-.6832,0-1.2689-.3904-1.2689-1.2201,0-1.0249.732-1.9033,1.9521-1.9033.5856,0,1.1225.244,1.5129.5856l1.3665-1.3665c-.4392-.5368-1.5129-1.0737-2.7329-1.0737-2.5865,0-4.2946,1.7569-4.2946,3.8554,0,2.0497,1.6105,2.8793,3.221,2.8793.9272,0,1.8545-.2928,2.4889-.6832l.9272-3.3186h-3.1234l-.3416,1.4641ZM450.7775,768.0844c-2.1961,0-3.8066,1.8057-3.8066,3.8066,0,1.6593,1.3177,2.9281,3.221,2.9281,2.1961,0,3.8066-1.8057,3.8066-3.8066,0-1.6593-1.3177-2.9281-3.221-2.9281ZM450.3382,772.9158c-.7808,0-1.1713-.5368-1.1713-1.2201,0-.8296.5856-1.7081,1.5129-1.7081.7808,0,1.1713.5368,1.1713,1.2201,0,.8296-.5856,1.7081-1.5129,1.7081ZM437.9424,767.4987c-.0488.2928.0976.488.4392.488s.5368-.1952.6344-.488c.0488-.244-.0976-.488-.4392-.488s-.5856.244-.6344.488ZM432.1349,765.4978c-.4392,0-.732.244-.7808.5856s.0976.5856.5368.5856.732-.244.7808-.5856c.0976-.3416-.0976-.5856-.5368-.5856ZM433.0134,767.3035c-.0976.5368.1464.8784.8296.8784.6344,0,1.0737-.3904,1.1713-.8784s-.1464-.8784-.8296-.8784c-.6832,0-1.0737.3904-1.1713.8784ZM439.6017,777.552l-2.4401-1.8057h-1.5129l4.2458,3.1722,1.6105-3.1722h-.976l-.9272,1.8057ZM425.8394,767.1571l-2.0009-1.4641,23.1323-2.7817-2.1473,4.2458h1.0248l2.6841-5.3195-26.9877,3.221,2.7817,2.0985h1.5129ZM338.7186,785.7853l.6088-3.8315h2.32l-.084.5194h-1.7636l-.1837,1.1445h1.6272l-.084.5248h-1.6166l-.2573,1.6428h-.5668ZM342.97,785.8377c-.3568,0-.6228-.1005-.7978-.3019-.175-.201-.2345-.473-.1784-.8161l.2677-1.7006c.056-.3429.2029-.6148.4408-.8161.2379-.201.5355-.3019.8923-.3019s.6228.1.7979.2993c.1748.1993.2361.4707.1837.8136l-.2677,1.7057c-.0561.3431-.2039.6151-.4435.8161-.2398.2013-.5381.3019-.895.3019ZM343.0487,785.3339c.1925,0,.3483-.0524.4672-.1575.119-.1051.1942-.2571.2257-.4568l.2678-1.7006c.0315-.1993.0051-.3517-.0787-.4565-.084-.1051-.2223-.1575-.4148-.1575s-.3473.0524-.4645.1575c-.1173.1048-.1916.2571-.2231.4565l-.2677,1.7006c-.0315.1996-.0053.3517.0787.4568s.2204.1575.4094.1575ZM344.9961,785.7853l.6088-3.8315h1.202c.2379,0,.4391.0464.6036.139.1645.0928.2835.223.357.391s.091.3656.0524.5932c-.0384.2591-.14.4838-.3044.6746-.1645.1905-.3656.3209-.6036.391l.5354,1.6428h-.6194l-.4777-1.5748h-.5406l-.2466,1.5748h-.5668ZM345.8883,783.7068h.6352c.1889,0,.349-.0558.4803-.168.1313-.1119.2107-.2623.2388-.4514.0316-.1925,0-.3454-.0944-.4593-.0945-.1136-.2362-.1706-.4252-.1706h-.6352l-.1995,1.2493ZM349.545,785.7853l.6088-3.8315h1.2544c.3709,0,.6508.1048.8399.315.1889.2099.2553.4898.1993.8398-.0384.2344-.1216.4383-.2493.6114s-.2905.307-.4881.4015c-.1978.0945-.419.1418-.6639.1418h-.6928l-.2415,1.5221h-.5668ZM350.432,783.754h.6928c.1924,0,.3568-.0587.4934-.176.1364-.117.2204-.2737.2519-.4696s-.0017-.3525-.0997-.4699-.245-.1757-.441-.1757h-.6876l-.2099,1.2911ZM352.7466,785.7853l.6088-3.8315h2.2518l-.0787.5038h-1.6954l-.1731,1.0867h1.5115l-.0787.4986h-1.5115l-.1942,1.2387h1.6901l-.0787.5038h-2.2518ZM355.8434,785.7853l.6088-3.8315h1.202c.2379,0,.4391.0464.6036.139.1645.0928.2835.223.357.391s.091.3656.0524.5932c-.0384.2591-.14.4838-.3044.6746-.1645.1905-.3656.3209-.6036.391l.5354,1.6428h-.6194l-.4777-1.5748h-.5406l-.2466,1.5748h-.5668ZM356.7356,783.7068h.6352c.1889,0,.349-.0558.4803-.168.1313-.1119.2107-.2623.2388-.4514.0316-.1925,0-.3454-.0944-.4593-.0945-.1136-.2362-.1706-.4252-.1706h-.6352l-.1995,1.2493ZM360.1316,785.8377c-.385,0-.6736-.0951-.8661-.2859-.1924-.1908-.2641-.4505-.2151-.7794h.5668c-.028.1748.0105.3121.1155.4121.1051.0997.266.1495.483.1495.2029,0,.3701-.049.5012-.1469.1313-.098.2109-.2327.2389-.4044.0209-.1504.0007-.2788-.0604-.3856-.0614-.1068-.1583-.1811-.2913-.2233l-.4566-.1364c-.266-.0803-.4619-.217-.5879-.4095-.126-.1922-.1697-.4197-.1313-.6823.035-.2099.1121-.3935.2309-.551s.2729-.2799.4619-.3673.4024-.1313.6404-.1313c.3498,0,.6158.0954.7978.2859.182.1908.2485.4437.1995.7586h-.5668c.0279-.168-.0027-.3001-.092-.3964-.0891-.0963-.2301-.1444-.4225-.1444-.1889,0-.343.0447-.4619.1338-.119.0894-.1889.2144-.21.3753-.0245.1506-.007.2791.0525.3859s.1575.1811.2939.223l.4672.1469c.2624.0806.4558.2173.5801.4095.1242.1925.1653.4217.1233.6877-.035.217-.1155.4058-.2415.5667-.1259.1612-.2878.2862-.4855.3753-.1976.0894-.419.1338-.6639.1338ZM363.2651,785.8377c-.3568,0-.6228-.1005-.7978-.3019-.175-.201-.2345-.473-.1784-.8161l.2677-1.7006c.056-.3429.2029-.6148.4408-.8161.2379-.201.5355-.3019.8923-.3019s.6228.1.7979.2993c.1748.1993.2361.4707.1837.8136l-.2677,1.7057c-.0561.3431-.2039.6151-.4435.8161-.2398.2013-.5381.3019-.895.3019ZM363.3439,785.3339c.1925,0,.3483-.0524.4672-.1575.119-.1051.1942-.2571.2257-.4568l.2678-1.7006c.0315-.1993.0051-.3517-.0787-.4565-.084-.1051-.2223-.1575-.4148-.1575s-.3473.0524-.4645.1575c-.1173.1048-.1916.2571-.2231.4565l-.2677,1.7006c-.0315.1996-.0053.3517.0787.4568s.2204.1575.4094.1575ZM365.2754,785.7853l.6088-3.8315h.7086l.6194,3.186c.007-.098.0165-.217.0289-.3571.0121-.1398.0271-.2851.0446-.4354.0175-.1506.0367-.2888.0577-.4146l.315-1.9788h.525l-.609,3.8315h-.7085l-.6141-3.186c-.0071.0945-.0167.209-.0289.3437s-.0272.2757-.0446.4226c-.0177.1469-.0367.2833-.0578.4095l-.315,2.0102h-.5301ZM368.2252,785.7853l1.5851-3.8315h.7454l.3726,3.8315h-.5616l-.0735-.9711h-1.0865l-.3884.9711h-.5932ZM369.3852,784.3418h.8714l-.0893-1.1023c-.0175-.1959-.0298-.3654-.0367-.5089-.0071-.1435-.0105-.2432-.0105-.2993-.0175.0561-.0517.1558-.1024.2993s-.1146.3112-.1915.5038l-.441,1.1075ZM371.7208,785.7853l.6088-3.8315h.567l-.525,3.3118h1.6744l-.0787.5197h-2.2465ZM376.6785,785.8377c-.3673,0-.6342-.1005-.8003-.3019-.1663-.201-.2214-.475-.1654-.8213l.4357-2.7608h.567l-.4357,2.7554c-.0315.1962-.008.35.0708.4619.0787.1122.2144.168.4068.168.1925,0,.3473-.0558.4646-.168.1172-.1119.1915-.2657.2231-.4619l.4355-2.7554h.567l-.4357,2.7608c-.056.35-.2003.6245-.433.8241-.2328.1993-.5328.299-.9003.299ZM379.8435,785.8377c-.385,0-.6736-.0951-.8661-.2859-.1924-.1908-.2641-.4505-.2151-.7794h.5668c-.028.1748.0105.3121.1155.4121.1051.0997.266.1495.483.1495.2029,0,.3701-.049.5012-.1469.1313-.098.2109-.2327.2389-.4044.0209-.1504.0007-.2788-.0604-.3856-.0614-.1068-.1583-.1811-.2913-.2233l-.4566-.1364c-.266-.0803-.4619-.217-.5879-.4095-.126-.1922-.1697-.4197-.1313-.6823.035-.2099.1121-.3935.2309-.551s.2729-.2799.4619-.3673.4024-.1313.6404-.1313c.3498,0,.6158.0954.7978.2859.182.1908.2485.4437.1995.7586h-.5668c.0279-.168-.0027-.3001-.092-.3964-.0891-.0963-.2301-.1444-.4225-.1444-.1889,0-.343.0447-.4619.1338-.119.0894-.1889.2144-.21.3753-.0245.1506-.007.2791.0525.3859s.1575.1811.2939.223l.4672.1469c.2624.0806.4558.2173.5801.4095.1242.1925.1653.4217.1233.6877-.035.217-.1155.4058-.2415.5667-.1259.1612-.2878.2862-.4855.3753-.1976.0894-.419.1338-.6639.1338ZM381.9062,785.7853l.6088-3.8315h2.2518l-.0787.5038h-1.6954l-.1731,1.0867h1.5115l-.0787.4986h-1.5115l-.1942,1.2387h1.6901l-.0787.5038h-2.2518ZM386.9426,785.8377c-.3568,0-.6228-.1005-.7978-.3019-.175-.201-.2345-.473-.1784-.8161l.2677-1.7006c.056-.3429.2029-.6148.4408-.8161.2379-.201.5355-.3019.8923-.3019s.6228.1.7979.2993c.1748.1993.2361.4707.1837.8136l-.2677,1.7057c-.0561.3431-.2039.6151-.4435.8161-.2398.2013-.5381.3019-.895.3019ZM387.0213,785.3339c.1925,0,.3483-.0524.4672-.1575.119-.1051.1942-.2571.2257-.4568l.2678-1.7006c.0315-.1993.0051-.3517-.0787-.4565-.084-.1051-.2223-.1575-.4148-.1575s-.3473.0524-.4645.1575c-.1173.1048-.1916.2571-.2231.4565l-.2677,1.7006c-.0315.1996-.0053.3517.0787.4568s.2204.1575.4094.1575ZM388.9529,785.7853l.6088-3.8315h.7086l.6194,3.186c.007-.098.0165-.217.0289-.3571.0121-.1398.0271-.2851.0446-.4354.0175-.1506.0367-.2888.0577-.4146l.315-1.9788h.525l-.609,3.8315h-.7085l-.6141-3.186c-.0071.0945-.0167.209-.0289.3437s-.0272.2757-.0446.4226c-.0177.1469-.0367.2833-.0578.4095l-.315,2.0102h-.5301ZM392.249,785.7853l.6088-3.8315h.567l-.525,3.3118h1.6744l-.0787.5197h-2.2465ZM396.1174,785.7853l.2204-1.4119-.7506-2.4197h.5774l.4462,1.4486c.0279.0945.0498.1837.0656.2677.0157.084.0253.1469.0288.1888.0175-.0419.0464-.1048.0867-.1888.0402-.084.0883-.1731.1442-.2677l.8976-1.4486h.5984l-1.5275,2.4197-.2204,1.4119h-.5668ZM399.217,785.7853l.6088-3.8315h.7086l.6192,3.186c.0071-.098.0165-.217.029-.3571.012-.1398.0271-.2851.0444-.4354.0177-.1506.037-.2888.0578-.4146l.315-1.9788h.5248l-.6088,3.8315h-.7085l-.6141-3.186c-.0071.0945-.0167.209-.0289.3437s-.0272.2757-.0446.4226c-.0177.1469-.0367.2833-.0578.4095l-.315,2.0102h-.5301ZM403.5053,785.8377c-.3571,0-.6231-.1005-.7979-.3019-.1751-.201-.2344-.473-.1785-.8161l.2677-1.7006c.0561-.3429.203-.6148.4411-.8161.2378-.201.5354-.3019.8922-.3019.3571,0,.6228.1.7979.2993.1748.1993.2361.4707.1837.8136l-.2677,1.7057c-.0561.3431-.2039.6151-.4437.8161-.2395.2013-.5379.3019-.8947.3019ZM403.5839,785.3339c.1925,0,.3483-.0524.4673-.1575.1187-.1051.1942-.2571.2255-.4568l.2677-1.7006c.0316-.1993.0054-.3517-.0786-.4565-.084-.1051-.2224-.1575-.4146-.1575-.1925,0-.3474.0524-.4647.1575-.117.1048-.1914.2571-.223.4565l-.2677,1.7006c-.0316.1996-.0051.3517.0789.4568.0837.1051.2204.1575.4092.1575ZM406.3814,785.7853l.5248-3.3121h-1.0234l.084-.5194h2.6193l-.084.5194h-1.0289l-.5248,3.3121h-.567ZM409.5178,785.7853l.6088-3.8315h2.32l-.084.5194h-1.7636l-.1837,1.1445h1.6272l-.084.5248h-1.6166l-.2571,1.6428h-.567ZM413.7694,785.8377c-.3571,0-.6231-.1005-.7979-.3019-.1751-.201-.2344-.473-.1785-.8161l.2677-1.7006c.0561-.3429.203-.6148.4411-.8161.2378-.201.5354-.3019.8922-.3019.3571,0,.6228.1.7979.2993.1748.1993.2361.4707.1837.8136l-.2677,1.7057c-.0561.3431-.2039.6151-.4437.8161-.2395.2013-.5379.3019-.8947.3019ZM413.848,785.3339c.1925,0,.3483-.0524.4673-.1575.1187-.1051.1942-.2571.2255-.4568l.2677-1.7006c.0316-.1993.0054-.3517-.0786-.4565-.084-.1051-.2224-.1575-.4146-.1575-.1925,0-.3474.0524-.4647.1575-.117.1048-.1914.2571-.223.4565l-.2677,1.7006c-.0316.1996-.0051.3517.0789.4568.0837.1051.2204.1575.4092.1575ZM415.7952,785.7853l.6088-3.8315h1.202c.2381,0,.4391.0464.6037.139.1643.0928.2833.223.3568.391s.0911.3656.0527.5932c-.0387.2591-.1401.4838-.3044.6746-.1646.1905-.3659.3209-.6037.391l.5354,1.6428h-.6194l-.4776-1.5748h-.5408l-.2466,1.5748h-.567ZM416.6876,783.7068h.635c.1891,0,.3491-.0558.4804-.168.131-.1119.2107-.2623.2386-.4514.0316-.1925,0-.3454-.0945-.4593-.0943-.1136-.2361-.1706-.4252-.1706h-.635l-.1993,1.2493ZM420.905,785.8377c-.3602,0-.6308-.1005-.8107-.3019-.1803-.201-.2423-.473-.1865-.8161l.2677-1.7006c.0561-.3463.2056-.6194.4488-.8187s.545-.2993.9056-.2993c.3568,0,.6253.1008.8056.3019.1803.2013.2423.4733.1865.8161h-.567c.0313-.1993.0026-.3517-.0866-.4565-.0894-.1051-.2284-.1575-.4175-.1575-.1925,0-.3508.0524-.475.1575-.1242.1048-.2019.2554-.2335.4514l-.2677,1.7057c-.0316.1996-.0026.3517.0866.4568.0894.1051.2301.1575.4226.1575s.35-.0524.4724-.1575.1993-.2571.2309-.4568h.5667c-.0347.2275-.1145.4252-.2386.5932s-.2808.2976-.4699.3884c-.1888.0908-.4024.1364-.6404.1364ZM424.0335,785.8377c-.3571,0-.6231-.1005-.7979-.3019-.1751-.201-.2344-.473-.1785-.8161l.2677-1.7006c.0561-.3429.203-.6148.4411-.8161.2378-.201.5354-.3019.8922-.3019.3571,0,.6228.1.7979.2993.1748.1993.2361.4707.1837.8136l-.2677,1.7057c-.0561.3431-.2039.6151-.4437.8161-.2395.2013-.5379.3019-.8947.3019ZM424.1121,785.3339c.1925,0,.3483-.0524.4673-.1575.1187-.1051.1942-.2571.2255-.4568l.2677-1.7006c.0316-.1993.0054-.3517-.0786-.4565-.084-.1051-.2224-.1575-.4146-.1575-.1925,0-.3474.0524-.4647.1575-.117.1048-.1914.2571-.223.4565l-.2677,1.7006c-.0316.1996-.0051.3517.0789.4568.0837.1051.2204.1575.4092.1575ZM425.9653,785.7853l.6088-3.8315h.6874l.1837,1.2282c.0211.119.0367.2301.0473.3332.0105.1034.0194.1828.0262.2389.0177-.0561.0473-.1364.0894-.2415.0419-.1051.0908-.217.1469-.336l.5667-1.2228h.7088l-.6088,3.8315h-.5354l.2045-1.2911c.0245-.168.0578-.3525.1-.5539.0419-.201.0874-.4041.1364-.6088s.0963-.3998.1418-.5852c.0453-.1854.0874-.3483.1259-.4881l-.8554,1.8632h-.5513l-.2833-1.8632c-.0037.1364-.0105.2947-.0211.475s-.0236.3719-.0393.5747c-.0157.203-.035.4069-.0578.6114-.0228.2047-.0481.3964-.076.5749l-.2047,1.2911h-.5405ZM429.1145,785.7853l.6088-3.8315h.6874l.1837,1.2282c.0211.119.0367.2301.0473.3332.0105.1034.0194.1828.0262.2389.0177-.0561.0473-.1364.0894-.2415.0419-.1051.0908-.217.1469-.336l.5667-1.2228h.7088l-.6088,3.8315h-.5354l.2045-1.2911c.0245-.168.0578-.3525.1-.5539.0419-.201.0874-.4041.1364-.6088s.0963-.3998.1418-.5852c.0453-.1854.0874-.3483.1259-.4881l-.8554,1.8632h-.5513l-.2833-1.8632c-.0037.1364-.0105.2947-.0211.475s-.0236.3719-.0393.5747c-.0157.203-.035.4069-.0578.6114-.0228.2047-.0481.3964-.076.5749l-.2047,1.2911h-.5405ZM432.4107,785.7853l.6088-3.8315h2.2516l-.0786.5038h-1.6955l-.1731,1.0867h1.5115l-.0786.4986h-1.5118l-.1942,1.2387h1.6901l-.0786.5038h-2.2516ZM435.5073,785.7853l.6088-3.8315h1.202c.2381,0,.4391.0464.6037.139.1643.0928.2833.223.3568.391s.0911.3656.0527.5932c-.0387.2591-.1401.4838-.3044.6746-.1646.1905-.3659.3209-.6037.391l.5354,1.6428h-.6194l-.4776-1.5748h-.5408l-.2466,1.5748h-.567ZM436.3997,783.7068h.635c.1891,0,.3491-.0558.4804-.168.131-.1119.2107-.2623.2386-.4514.0316-.1925,0-.3454-.0945-.4593-.0943-.1136-.2361-.1706-.4252-.1706h-.635l-.1993,1.2493ZM439.8007,785.8377c-.3602,0-.6308-.1005-.8107-.3019-.1803-.201-.2423-.473-.1865-.8161l.2677-1.7006c.0561-.3463.2056-.6194.4488-.8187s.545-.2993.9056-.2993c.3568,0,.6253.1008.8056.3019.1803.2013.2423.4733.1865.8161h-.567c.0313-.1993.0026-.3517-.0866-.4565-.0894-.1051-.2284-.1575-.4175-.1575-.1925,0-.3508.0524-.475.1575-.1242.1048-.2019.2554-.2335.4514l-.2677,1.7057c-.0316.1996-.0026.3517.0866.4568.0894.1051.2301.1575.4226.1575s.35-.0524.4724-.1575.1993-.2571.2309-.4568h.5667c-.0347.2275-.1145.4252-.2386.5932s-.2808.2976-.4699.3884c-.1888.0908-.4024.1364-.6404.1364ZM441.8792,785.7853l.0789-.5038h.7768l.4459-2.824h-.7766l.0837-.5038h2.1258l-.084.5038h-.7766l-.4462,2.824h.7768l-.0789.5038h-2.1258ZM444.7399,785.7853l1.585-3.8315h.7452l.3728,3.8315h-.5616l-.0735-.9711h-1.0867l-.3884.9711h-.5929ZM445.8998,784.3418h.8714l-.0894-1.1023c-.0174-.1959-.0296-.3654-.0367-.5089-.0068-.1435-.0103-.2432-.0103-.2993-.0177.0561-.0518.1558-.1025.2993s-.1148.3112-.1916.5038l-.4408,1.1075ZM448.2354,785.7853l.6088-3.8315h.567l-.5248,3.3118h1.6741l-.0786.5197h-2.2465ZM453.1932,785.8377c-.3676,0-.6345-.1005-.8005-.3019-.1663-.201-.2213-.475-.1654-.8213l.4357-2.7608h.567l-.4357,2.7554c-.0316.1962-.008.35.0709.4619.0786.1122.2141.168.4066.168s.3474-.0558.4645-.168c.1173-.1119.1916-.2657.2233-.4619l.4357-2.7554h.5667l-.4357,2.7608c-.0558.35-.2002.6245-.4328.8241-.2329.1993-.5328.299-.9001.299ZM456.3581,785.8377c-.385,0-.6738-.0951-.866-.2859-.1925-.1908-.2643-.4505-.2153-.7794h.567c-.0282.1748.0105.3121.1153.4121.1051.0997.266.1495.483.1495.2028,0,.3699-.049.5012-.1469s.2107-.2327.2389-.4044c.0211-.1504.0009-.2788-.0604-.3856s-.1583-.1811-.2913-.2233l-.4568-.1364c-.266-.0803-.4619-.217-.5878-.4095-.1259-.1922-.1697-.4197-.1313-.6823.035-.2099.1119-.3935.2309-.551s.2731-.2799.4619-.3673c.1891-.0874.4024-.1313.6404-.1313.3497,0,.6157.0954.7979.2859.1817.1908.2483.4437.1993.7586h-.567c.0279-.168-.0026-.3001-.0917-.3964-.0894-.0963-.2301-.1444-.4226-.1444-.1891,0-.3429.0447-.4619.1338-.119.0894-.1891.2144-.2099.3753-.0245.1506-.0071.2791.0524.3859s.1575.1811.2939.223l.4673.1469c.2623.0806.4556.2173.5798.4095.1242.1925.1654.4217.1236.6877-.035.217-.1156.4058-.2415.5667-.1262.1612-.2879.2862-.4855.3753-.1979.0894-.4192.1338-.6641.1338ZM458.4209,785.7853l.6088-3.8315h2.2516l-.0786.5038h-1.6955l-.1731,1.0867h1.5115l-.0786.4986h-1.5118l-.1942,1.2387h1.6901l-.0786.5038h-2.2516Z" style="fill: #ccc;"/>
  <g>
    <g id="g1091">
      <path id="path835" d="M655.7125,446.6509c0-5.397-.6691-54.5472-23.9896-111.0739-18.3497-44.4781-18.9352-70.2043-18.9352-70.4592,0-26.1962,23.9219-51.4285,24.1608-51.6834l17.1747-17.3539-121.5651-121.5651-16.3144,27.0127c-.1553.2469-20.5045,31.9954-46.2386,31.9954-23.1452,0-40.9094-24.1529-48.505-34.4689l-.3744-.5098c-5.1261-6.9583-13.9485-29.2193-16.9198-37.2092l-4.21-11.3356-4.222,11.3356c-2.9713,7.9899-11.7937,30.2509-16.9198,37.2092l-.3784.5098c-7.5836,10.312-25.3558,34.4689-48.505,34.4689-25.7302,0-46.0793-31.7445-46.2824-32.0671l-16.2705-26.941-121.5531,121.5651,17.2185,17.3977c.1991.2111,24.125,25.4434,24.125,51.6914-.004.2031-.5855,25.9293-18.9352,70.4075-23.3205,56.5267-23.9936,105.6729-23.9936,111.0898l-.004.5696c0,5.9347.8484,59.3307,30.3186,110.5282,1.41,2.6447,37.2012,68.6151,126.6753,128.4119,1.0435.7249,27.6141,19.1901,64.0625,41.3475,7.7868,4.7318,13.5621,8.5276,17.7801,11.2958l3.282,2.1548,13.598,9.0255,13.6179-9.0414,3.2302-2.115c4.2538-2.7921,10.0371-6.5879,17.8159-11.3197,36.4524-22.1534,63.019-40.6226,64.1342-41.3953,89.4064-59.7529,125.2016-125.7193,126.6793-128.4995,29.3985-51.062,30.2548-104.4621,30.2548-110.3808l-.0119-.5974Z" style="fill: #5b9a6d; fill-rule: evenodd;"/>
      <path id="path837" d="M399.9881,62.893s-10.8855,29.3188-17.5093,38.3125c-7.6553,10.3956-26.6662,36.8069-52.4999,36.8069-28.4705,0-49.9309-33.9192-50.0862-34.1622l-13.347-22.1017-114.3439,114.3519,14.0719,14.2193c.2549.2629,25.4275,26.6263,25.4275,54.8499,0,.2549-.4063,26.3794-19.2737,72.1202-22.9899,55.7261-23.655,104.016-23.655,109.3731l-.004.5815c0,5.8112.8404,58.096,29.7211,108.2738,2.0194,3.7878,37.0499,67.9539,125.2773,126.9183.4939.3425,27.2875,18.991,63.8992,41.2439,7.8704,4.7836,13.6896,8.6033,17.9434,11.3954l3.2501,2.1309,11.1325,7.3884,11.1365-7.3884,3.2422-2.1309c4.2538-2.7921,10.073-6.6118,17.9474-11.3953,36.6157-22.257,63.4093-40.9054,63.8992-41.2439,88.2313-58.9683,123.2619-123.1304,125.2852-126.9183,28.8767-50.1778,29.7171-102.4626,29.7171-108.2738v-.5815c0-5.3611-.6691-53.651-23.655-109.3731-18.8715-45.7447-19.2777-71.8652-19.2777-72.1202,0-28.2235,25.1726-54.591,25.4235-54.8499l14.0799-14.2193-114.3479-114.3479-13.351,22.1017c-.1553.2469-21.6118,34.1622-50.0902,34.1622-25.8258,0-44.8406-26.4113-52.4959-36.8069-6.6198-8.9936-17.5093-38.3125-17.5093-38.3125h-.008v-.004Z" style="fill: #fae540; fill-rule: evenodd;"/>
      <path id="path839" d="M634.0012,446.7265c0-.4063.243-48.0907-22.3486-102.8689-20.8112-50.4248-20.5921-78.469-20.5841-78.7439,0-35.7833,30.0278-66.532,30.3306-66.8347l2.099-2.119-86.686-86.682-1.9756,3.274c-.2549.4222-26.1006,42.4827-64.8313,42.4827-41.1364,0-67.1414-44.9561-67.4083-45.4102l-2.6009-4.5844-2.6049,4.5844c-.2589.4541-26.2678,45.4102-67.4082,45.4102-38.7267,0-64.5724-42.0605-64.8273-42.4827l-1.9796-3.274-86.682,86.682,2.099,2.119c.3027.3067,30.3305,31.0515,30.3305,66.7829.004.3306.223,28.3749-20.5802,78.7997-22.5955,54.7782-22.3605,102.4666-22.3526,102.9486-.0279,2.0313-.3903,52.1215,27.7336,100.6862.2469.482,32.7323,62.6167,119.936,120.8521.2111.1474,26.459,18.4453,62.9513,40.6226,8.1412,4.9469,14.0919,8.8622,18.4333,11.706l4.9549,3.2421,1.6251-1.0675,3.3139-2.1787c4.3415-2.8478,10.2921-6.7592,18.4373-11.706,36.4922-22.1773,62.7402-40.4752,63.0031-40.6624,87.152-58.1956,119.6373-120.3304,119.956-120.9517,28.0563-48.4253,27.6977-98.5155,27.6659-100.6265Z" style="fill-rule: evenodd;"/>
      <g id="g1083">
        <path id="path841" d="M631.006,446.7743s.4979-46.9277-22.1335-101.7736c-21.3529-51.7631-20.8032-79.9388-20.8032-79.9388,0-1.7207.0836-3.4214.2111-5.1182H211.7038c.1275,1.6928.2111,3.3975.2111,5.1182,0,0,.5497,28.1797-20.8032,79.9388-22.6274,54.8459-22.1256,101.7736-22.1256,101.7736,0,0-.705,50.8151,27.3313,99.2165,0,0,31.4418,61.386,119.008,119.8643,0,0,26.013,18.1665,62.8437,40.5549,10.3797,6.3091,17.0353,10.8218,21.8228,13.9246,4.7916-3.1028,11.4511-7.6155,21.8268-13.9246,36.8348-22.3884,62.8398-40.5549,62.8398-40.5549,87.5702-58.4784,119.008-119.8643,119.008-119.8643,28.0403-48.4014,27.3393-99.2165,27.3393-99.2165Z" style="fill: #fae540; fill-rule: evenodd;"/>
        <path id="path843" d="M588.6548,256.1998c4.2299-33.4094,30.6213-60.0278,30.6213-60.0278l-81.8706-81.8705s-26.467,43.9325-67.4003,43.9325c-43.4226,0-70.0132-46.9277-70.0132-46.9277,0,0-26.5825,46.9277-70.0132,46.9277-40.9333,0-67.3923-43.9325-67.3923-43.9325l-81.8705,81.8705s26.3874,26.6184,30.6133,60.0278h377.3253Z" style="fill: #5b9a6d; fill-rule: evenodd;"/>
      </g>
    </g>
    <g id="g1079">
      <path id="path851" d="M546.8811,574.525l-6.3409.2948c-32.5252,1.5095-50.6677,4.4729-53.9019,8.8303-.4285.5446-.6589,1.2189-.6532,1.9118v-.0159c0,1.0794.0478,3.6245,9.7026,6.7751-42.0405,7.8505-95.1379,7.9501-95.6915,7.9501-.5497,0-53.651-.0996-95.6876-7.9501,9.6588-3.1506,9.7026-5.6957,9.7026-6.7751v.0159c.0083-.6934-.2224-1.3685-.6532-1.9118-3.2382-4.3574-21.3767-7.3207-53.9059-8.8303l-6.3409-.2948,4.7438,4.218s16.2825,14.4782,20.0863,17.8518l-24.4078,13.4267,8.2528.243c.1235,0,12.411.4581,31.6011,10.0491l1.41.7089-.8603,13.582,1.6968.5218c.5098.1553,51.5997,15.5656,104.3665,15.5656s103.8607-15.4102,104.3665-15.5656l1.7047-.5218-.8643-13.582,1.41-.7089c19.1901-9.5911,31.4816-10.0491,31.6011-10.0491l8.2528-.243-24.4118-13.4267,24.8221-22.0698Z" style="fill-rule: evenodd;"/>
      <g id="g1056">
        <path id="path853" d="M281.8086,597.033l-19.9668,10.9851s12.5783.3027,32.5451,10.2921l1.8999-26.0767s15.4779-3.6882,15.4779-6.6834c0,0,1.4976-5.9904-52.4163-8.4798l22.4601,19.9628Z" style="fill: #5b9a6d; fill-rule: evenodd;"/>
        <path id="path855" d="M399.9921,648.4534c53.0456,0,103.7133-15.4819,103.7133-15.4819l-2.4973-39.4317c-43.4226,8.9856-101.216,8.9856-101.216,8.9856,0,0-57.7814,0-101.2119-8.9856l-2.4973,39.4317s50.6717,15.4819,103.7093,15.4819h0Z" style="fill: #5b9a6d; fill-rule: evenodd;"/>
        <path id="path857" d="M518.1836,597.033l19.9708,10.9851s-12.5703.3027-32.549,10.2921l-1.8999-26.0767s-15.474-3.6882-15.474-6.6834c0,0-1.5016-5.9904,52.4163-8.4798l-22.4641,19.9628Z" style="fill: #5b9a6d; fill-rule: evenodd;"/>
        <path id="path859" d="M495.6836,592.325c-9.6548-3.1506-9.7026-5.6957-9.7026-6.7751v8.4241c3.2429-.4969,6.4776-1.0466,9.7026-1.649ZM304.3045,592.325c3.1784.5974,6.4246,1.1431,9.7026,1.649v-8.2528c-.0279,1.1591-.5098,3.6086-9.7026,6.6038Z" style="fill: #5b9a6d; fill-rule: evenodd;"/>
      </g>
      <g id="g1050">
        <path id="path935" d="M465.9665,634.3417l.0159.008c2.808.008,5.608-3.6245,5.608-3.6245,0,0,1.9198,2.7841,3.4294,4.1941-1.2905-6.6277,2.581-19.8234,3.8993-24.9256-3.4931,3.9432-12.2676,14.53-18.4851,17.1707,2.0074.4581,5.393.4979,5.393.4979,0,0-1.4458,4.3574.1314,6.6834h.0159-.008v-.004Z" style="fill: #fae540; fill-rule: evenodd;"/>
        <path id="path933" d="M480.6239,602.7406c.6931-1.2985,1.8441-2.1707,3.1028-2.3579l.2708-.0478.1235.2469c.5616,1.1511.4899,2.6129-.1792,3.8914-.6931,1.2985-1.8441,2.1787-3.1028,2.3659l-.2708.0478-.1155-.2469c-.5656-1.1511-.4979-2.6089.1713-3.8994Z" style="fill: #fae540; fill-rule: evenodd;"/>
        <path id="path931" d="M473.2952,603.573c1.1511-.5616,2.6049-.4899,3.8914.1792,1.2825.6771,2.1628,1.8362,2.3579,3.1028l.0478.2708-.2469.1155c-1.1511.5696-2.6049.4979-3.8914-.1792-1.2905-.6691-2.1707-1.8282-2.3659-3.0948l-.0478-.2708.2549-.1236Z" style="fill: #fae540; fill-rule: evenodd;"/>
        <path id="path929" d="M485.0291,607.9224c1.2825.6771,2.1707,1.8362,2.3579,3.1028l.0478.2708-.2469.1155c-1.1511.5696-2.6049.4979-3.8993-.1713-1.2825-.6771-2.1628-1.8441-2.3579-3.1028l-.0398-.2708.243-.1235c1.1551-.5616,2.6089-.4899,3.8954.1792Z" style="fill: #fae540; fill-rule: evenodd;"/>
      </g>
      <g id="g1044">
        <path id="path927" d="M334.7705,634.3417l-.0159.008c-2.812.008-5.6041-3.6245-5.6041-3.6245,0,0-1.9278,2.7841-3.4333,4.1941,1.2905-6.6277-2.581-19.8234-3.8993-24.9256,3.4891,3.9432,12.2676,14.53,18.4851,17.1707-2.0074.4581-5.393.4979-5.393.4979,0,0,1.4498,4.3534-.1394,6.6795h-.008.008Z" style="fill: #fae540; fill-rule: evenodd;"/>
        <path id="path925" d="M320.1131,602.7406c-.689-1.2985-1.8441-2.1707-3.1028-2.3579l-.2708-.0478-.1195.2469c-.5616,1.1511-.4979,2.6129.1752,3.8914.689,1.2985,1.8441,2.1787,3.0988,2.3659l.2708.0478.1195-.2469c.5656-1.1511.5019-2.6089-.1713-3.8994Z" style="fill: #fae540; fill-rule: evenodd;"/>
        <path id="path923" d="M327.4497,603.573c-1.1511-.5616-2.6089-.4899-3.8954.1792-1.2825.6771-2.1667,1.8362-2.3619,3.1028l-.0438.2708.2469.1155c1.1511.5696,2.6049.4979,3.8954-.1792,1.2825-.6691,2.1667-1.8282,2.3619-3.0948l.0438-.2708-.2469-.1236Z" style="fill: #fae540; fill-rule: evenodd;"/>
        <path id="path921" d="M315.7158,607.9224c-1.2865.6771-2.1667,1.8362-2.3619,3.1028l-.0398.2708.2469.1155c1.1511.5696,2.6089.4979,3.8954-.1713,1.2825-.6771,2.1628-1.8441,2.3579-3.1028l.0438-.2708-.2469-.1235c-1.1591-.5616-2.6128-.4899-3.8954.1792Z" style="fill: #fae540; fill-rule: evenodd;"/>
      </g>
      <g id="g1038">
        <path id="path919" d="M439.7902,621.7912l.0837.219c.4085-.0569.8191-.0981,1.2307-.1235.4241-.0323.8492-.0483,1.2746-.0478,2.7244,0,4.923.6851,6.5958,2.0632,1.6649,1.3781,2.5053,3.1824,2.5053,5.4049,0,1.4936-.3744,2.9634-1.1192,4.4012-.7408,1.4459-1.8521,2.8239-3.3298,4.1463-1.7485,1.5574-3.6245,2.7443-5.6399,3.5926-1.8805.8099-3.9033,1.2377-5.9506,1.2586-1.7127,0-3.035-.3107-3.975-.924-.9066-.5421-1.4479-1.5332-1.414-2.5889,0-.7926.2469-1.4459.7528-1.9517.5058-.5058,1.1511-.7528,1.9357-.7528.5377,0,1.0515.1315,1.5255.3983s.8643.6293,1.167,1.1033c.1474.219.3425.5815.5775,1.0794.5218,1.1511,1.175,1.7207,1.9437,1.7207,1.5932,0,3.0868-.8484,4.4729-2.5371,1.3861-1.6967,2.0831-3.6405,2.0831-5.843s-.6453-3.983-1.9198-5.3452c-1.2746-1.3701-2.9474-2.0473-5.0106-2.0473-1.2507,0-3.1665.4063-5.7395,1.2068-.2031,0-.3824-.0638-.5377-.1872-.1553-.1235-.227-.2788-.227-.466,0-.5776.9121-1.2746,2.7323-2.107.8086-.3823,1.4299-.693,1.884-.924,2.0752-1.0515,3.6245-2.1468,4.6521-3.29,1.0276-1.1431,1.5494-2.342,1.5494-3.6007,0-1.0675-.3346-1.9198-.9957-2.5691-.6691-.6532-1.5494-.9719-2.6368-.9719-.7488,0-1.4379.1315-2.0831.4142-.6373.2788-1.3224.7249-2.0313,1.3383-.3163.2861-.6181.5878-.9041.9042-.482.5377-.8643.8086-1.1352.8086-.235,0-.4182-.0717-.5536-.2111-.1354-.1394-.1952-.3266-.1952-.5616,0-1.0595.9639-2.1468,2.8956-3.282s4.1224-1.7047,6.572-1.7047c2.4735,0,4.3972.4182,5.7793,1.2666,1.3781.8484,2.0711,2.0233,2.0711,3.5329,0,1.2985-.7249,2.5371-2.1707,3.7122-1.4578,1.171-3.6883,2.3301-6.7153,3.4652h.0001Z" style="fill: #fae540; fill-rule: evenodd;"/>
        <path id="path917" d="M414.6774,630.9721c0-.4262-.0478-.693-.1474-.7926-.1075-.0996-.3266-.1474-.6612-.1474h-9.133c-.7926,0-1.2905-.0916-1.5016-.2868-.2031-.1872-.3027-.5696-.3027-1.1352,0-.3664.0637-.7169.1872-1.0356s.3186-.6453.5815-.9798l15.6054-20.134c.1197-.1409.2561-.2666.4063-.3744.1284-.0532.2677-.0751.4063-.0638h1.4777c.2031,0,.3425.0239.4182.0836.0837.0558.1235.1474.1235.2629,0,.1872-.4979.8643-1.4936,2.0154-2.841,3.3128-5.6256,6.6736-8.3523,10.081-2.115,2.6686-3.5409,4.5286-4.2538,5.5841l-1.6729,2.4894c-.0488.0878-.0927.1782-.1314.2708-.0262.0673-.0397.1389-.0398.2111,0,.1075.0398.1872.1155.2469.0796.0558.1872.0836.3186.0836h7.1973c.4142,0,.6851-.0797.8245-.235s.2111-.4421.2111-.8723v-7.2491c0-.3107.227-.5815.6771-.8165.1155-.0638.2111-.0996.2629-.1315.6134-.3266,1.3383-.6054,2.1867-.8643.8324-.2469,1.41-.3744,1.7207-.3744.1314,0,.3903-.0159.7767-.0638.3864-.0478.709-.0717.9719-.0717.1155,0,.2031.0558.2549.1553.0478.0996.0796.3107.0796.6134v9.0016c0,.3664.0478.5974.1474.7169.0996.1075.3425.1713.701.1872h2.9076c.235,0,.4142.0717.5457.219.1314.1474.1952.3505.1952.6134v.8962c0,.3346-.0717.5776-.2191.7169-.1474.1474-.3744.2271-.6771.2271h-2.8638c-.2868,0-.4979.0836-.6293.2629-.1314.1713-.2031.4501-.2031.8245v4.0388c0,.466.1394.8245.4063,1.0794.2708.2549.7767.466,1.5255.6214.008.0159.0239.0318.0398.0398.0159.008.0478.008.0837.008.6851.1474,1.1192.2868,1.2905.4262.1713.1394.2629.3585.2629.6453,0,.3664-.1075.6214-.3266.7687-.227.1394-.6612.219-1.3144.219-.458,0-1.2746-.0318-2.4655-.0916s-2.1628-.0916-2.9235-.0916c-1.0874,0-2.2783.0318-3.5568.0916s-1.9995.0916-2.1787.0916c-.6612,0-1.1352-.0916-1.4299-.2629-.2931-.1604-.4681-.4749-.4501-.8086,0-.2948.0837-.5138.2469-.6612.1713-.1474.5457-.2469,1.1272-.3266.0371-.0007.0736-.0089.1075-.0239.4063-.0638.7169-.1075.9161-.1474.6453-.1952,1.0754-.4501,1.2905-.7687.2151-.3186.3266-.9161.3266-1.7963v-3.1864l.0039.0003Z" style="fill: #fae540; fill-rule: evenodd;"/>
        <path id="path915" d="M385.5776,628.9049c-2.5292,0-4.6482-.8643-6.3569-2.5969s-2.565-3.8914-2.565-6.4644c0-2.8558,1.0635-5.2655,3.1904-7.2251,2.1269-1.9597,4.7517-2.9395,7.8823-2.9395,3.3457,0,6.1697,1.2068,8.4639,3.6166,2.2982,2.4097,3.4413,5.3969,3.4413,8.9538,0,2.7403-.7209,5.4129-2.1588,8.0457-1.4379,2.6208-3.5369,5.0584-6.2852,7.2969-1.2052.9793-2.494,1.8509-3.8516,2.6049-1.5212.8567-3.1011,1.6047-4.7278,2.2384-.8603.3186-1.6689.5815-2.4217.7767-.7528.1952-1.3064.2948-1.6569.2948-.2667.0091-.5279-.0771-.7368-.243-.1952-.1633-.2947-.3505-.2947-.5696,0-.482.6811-.9798,2.0473-1.4936,1.1252-.3979,2.2162-.8868,3.2621-1.4618,3.045-1.7308,5.5797-4.234,7.3486-7.257,1.7605-3.0271,2.6447-6.2852,2.6447-9.7862,0-3.0111-.6253-5.624-1.868-7.8345-1.2467-2.2105-2.6447-3.3218-4.1861-3.3218-1.2121-.0383-2.3696.5049-3.1147,1.4618-.7807.9719-1.171,2.2783-1.171,3.9192,0,2.5889.6213,4.7916,1.8601,6.5959,1.2387,1.8123,2.7124,2.7164,4.4132,2.7164.2212-.0068.4413-.0348.6572-.0836.2084-.0455.4202-.0735.6333-.0836.2031,0,.3744.0717.5138.219.1394.1474.2071.3266.2071.5537,0,.4501-.5377.9121-1.6091,1.3781-1.0714.466-2.2623.6891-3.5608.6891h0Z" style="fill: #fae540; fill-rule: evenodd;"/>
        <path id="path861" d="M359.6563,634.0668v-17.9952c0-.6532-.0796-1.0794-.231-1.2746-.1553-.2031-.4342-.2948-.8444-.2948-.3943,0-1.1511.1952-2.2623.5776-1.1113.3904-2.0074.5815-2.6965.5815-.2596.0106-.5139-.076-.713-.243-.179-.1529-.2799-.3781-.2748-.6134,0-.5815.9878-1.1113,2.9594-1.5932.8922-.219,1.6131-.4063,2.1667-.5456,1.9119-.5377,3.7639-1.1431,5.5563-1.8123,1.7884-.6612,2.7045-.9957,2.7483-.9957.235,0,.4023.0558.5058.1713.0996.1155.1553.3107.1553.5815v23.2766c0,.94.1474,1.6092.4501,2.0233.3027.4063.8205.6771,1.5534.8086.2788.0478.6612.0916,1.1471.1315,1.3662.1633,2.0473.5537,2.0473,1.167,0,.3585-.1075.6054-.3186.7607s-.5735.235-1.0874.235c-.2788,0-1.2108-.0478-2.7961-.1394-1.5852-.0916-3.035-.1394-4.3335-.1394-.936,0-2.2902.0398-4.0587.1155-1.7685.0757-3.0709.1155-3.9034.1155-.5138,0-.8882-.0836-1.1192-.243-.235-.1633-.3505-.4142-.3505-.7528,0-.7169.7727-1.1192,2.3261-1.2068.4881-.0627.9784-.1079,1.4697-.1354.7926-.0836,1.3064-.2868,1.5494-.5895.231-.3067.3545-.9599.3545-1.9716h0Z" style="fill: #fae540; fill-rule: evenodd;"/>
      </g>
    </g>
    <g id="g1115">
      <g id="g990">
        <path id="path947" d="M410.8141,168.7733c-.8842,0-1.5295.2229-1.9278.661-.4063.4461-.8085,1.2941-1.2068,2.5528l-12.8178,41.5711c-.3744,1.2706-.7881,2.278-1.2422,3.0308-.4903.8558-1.2257,1.5452-2.1113,1.9793-.1621.08-.3299.148-.502.2033l-.1194.0396c-1.0157.458-1.5253,1.1313-1.5253,2.0195,0,.5377.1356.9363.4025,1.1912.2669.2589.6532.3863,1.1631.3863.1622-.0175.3231-.0456.4816-.084,1.5255-.3306,3.1306-.4978,4.8194-.4978,2.1116-.0016,4.2199.1649,6.3051.4978.214.0362.4293.0643.6454.084.5058,0,.8883-.1356,1.1432-.4025.2589-.2708.3821-.685.3821-1.2506,0-.8603-.6131-1.5177-1.8438-1.9757h-.0402c-.6937-.2002-1.365-.4712-2.0033-.8085-.8325-.458-1.4022-.9401-1.7088-1.4539-.3067-.5098-.4618-1.2226-.4618-2.1347.0221-.9467.1234-1.8899.3029-2.8197.1992-1.1551.5413-2.661,1.0233-4.5171.2908-1.1551.681-1.8954,1.163-2.2181.4859-.3226,1.5177-.4864,3.095-.4864h3.9353c2.0035,0,3.3138.1278,3.9113.3827.6104.2592,1.0654.7877,1.2308,1.4299l2.5726,9.1368c.0773.2433.1347.4924.1715.745.0478.2549.0636.502.0636.745,0,.5935-.1074,1.0312-.3185,1.31-.2072.2828-.745.5019-1.6093.6652-.0815-.0013-.1628.0056-.2429.0204-.0538.0141-.1059.034-.1553.0594-.6134.1354-1.0595.3509-1.3304.6496-.2668.2987-.3982.7125-.3982,1.2542,0,.5696.1555.9881.4582,1.259.3107.2708.7488.4061,1.3064.4061s1.8199-.1273,3.7716-.3743c1.9517-.2469,3.641-.3743,5.0629-.3743,1.657,0,3.4011.0951,5.2213.2903,1.8202.1952,2.8399.2909,3.059.2909.6094,0,1.0754-.1193,1.3861-.3623.3027-.243.4582-.6214.4582-1.1312,0-.8882-.5619-1.4497-1.689-1.6926-.5616-.1115-.9638-.2311-1.2068-.3665-.8325-.4302-1.5215-1.1272-2.0831-2.0951s-1.183-2.5529-1.8522-4.7594l-12.2438-39.7663c-.458-1.5494-.848-2.4857-1.1666-2.8083-.3186-.3186-.9042-.4816-1.7286-.4816h0ZM406.5879,185.0357c.0876,0,.1516.0559.2034.1793.0518.1235.1475.3699.2789.7444l3.9827,13.0487c.073.146.1253.3014.1553.4618.0268.1258.0401.2541.0396.3827,0,.2111-.0632.3584-.1788.4421-.1155.0797-.3266.1194-.6214.1194h-7.6319c-.2947,0-.4813-.0321-.565-.1038-.0757-.0637-.12-.1669-.12-.3023.0161-.1352.0442-.2687.084-.3989.0279-.0836.0396-.1392.0396-.1631l3.7758-13.4506c.0757-.2908.1717-.5215.2634-.6808s.1949-.255.2945-.2789Z" style="fill: #fae540; fill-rule: evenodd;"/>
        <path id="path945" d="M356.6411,210.232c0,2.8439.1872,4.8871.5656,6.1219.3744,1.2347.9957,1.9995,1.8521,2.2942.5098.2151,1.1949.3704,2.0552.478h.1235c1.179.1633,1.7724.6532,1.7724,1.4817.0247.4692-.1589.9255-.5019,1.2467-.3894.3218-.8856.4853-1.3901.4581-.2151,0-.9878-.0797-2.3101-.235-2.3152-.3184-4.663-.3184-6.9782,0-.6678.0995-1.3386.1778-2.0114.235-.5377,0-.9519-.1593-1.2467-.478-.2947-.3186-.4421-.7528-.4421-1.3144,0-.4501.0837-.7767.2589-.9758s.6094-.3386,1.3104-.4182c.2784-.0844.5601-.1575.8444-.2191.4023-.0916.7368-.1832,1.0037-.2629.7488-.2947,1.2706-1.0396,1.5693-2.2384s.4421-3.2541.4421-6.1856v-29.9123c0-2.3619-.1354-3.987-.4023-4.8752s-.7368-1.4339-1.406-1.6529c-.1826-.0275-.3646-.0594-.5457-.0956-.1992-.0438-.478-.0876-.8245-.1434-.7289-.0518-1.1869-.1912-1.3901-.4142s-.2987-.5975-.2987-1.1272c0-.5377.1235-.9599.3784-1.2706.2498-.3088.6307-.4815,1.0276-.466.0796,0,.3067.0119.6811.0358,2.1396.1773,4.2856.265,6.4325.2629,1.7177-.0011,3.435-.0503,5.15-.1474.482,0,.8643.0956,1.1471.2868.2828.1872.6213.6213,1.0236,1.3024l17.095,28.2355c.1101.2096.2526.4005.4222.5656.1474.1354.2748.1991.3824.1991.1633,0,.3027-.1115.4222-.3425.1274-.2558.1903-.5388.1832-.8245v-17.5531c0-2.8478-.1912-4.8871-.5696-6.1219-.3744-1.2347-.9957-1.9995-1.8561-2.2942-.6618-.2512-1.3544-.412-2.0592-.478h-.1195c-.8364-.1354-1.3542-.3027-1.5573-.5019s-.3027-.5258-.3027-.9798c0-.5337.1713-.94.5218-1.2188s.8444-.4182,1.4857-.4182c.2111,0,.9679.0637,2.2663.1872,2.3073.2522,4.6351.2522,6.9424,0,1.1909-.1235,1.8641-.1872,2.0234-.1872.5616,0,.9758.1434,1.2427.4222.2669.2828.4023.7209.4023,1.3144,0,.4979-.0876.8484-.2589,1.0555-.1752.2071-.5935.3386-1.2586.3903l-.7966.1752c-.3349.0681-.6671.1491-.9957.243-.7727.2947-1.3184,1.0635-1.641,2.2942-.3186,1.2347-.478,3.274-.478,6.1219v38.3244c0,1.2865-.1673,2.2464-.5019,2.8917-.3346.6452-.8245.9639-1.4657.9639-.5429-.0132-1.0631-.221-1.4657-.5855-.47-.3943-1.1312-1.2985-1.9875-2.7124l-23.0456-38.9617c-.0735-.1416-.169-.2706-.2828-.3824-.0952-.0718-.2055-.1209-.3226-.1434-.1075.0279-.1792.1155-.223.2629-.0438.1474-.0757.4461-.0996.9041v27.3831h.008Z" style="fill: #fae540; fill-rule: evenodd;"/>
        <path id="path943" d="M273.8665,196.2079c0-3.9113.6253-7.6075,1.872-11.0807,1.1949-3.3845,3.0329-6.5061,5.4129-9.1928,2.0513-2.2976,4.5705-4.1296,7.3885-5.3731,2.7483-1.1909,5.7913-1.7884,9.1211-1.7884,2.5491,0,4.9309.3107,7.1455.924,2.2145.6174,3.7082,1.3263,4.4888,2.1309.2669.243.5298,1.2546.7846,3.039.2549,1.7844.3824,3.7082.3824,5.7714,0,.6174-.1075,1.0874-.3226,1.41-.2006.3133-.5523.4968-.9241.4819-.6174,0-1.3303-.8723-2.1349-2.6208-.2906-.6521-.5988-1.2962-.924-1.9317-1.1272-2.0393-2.3261-3.521-3.6046-4.449-1.281-.9275-2.8279-1.4151-4.4092-1.3901-3.8117,0-6.9862,2.3022-9.5233,6.9025-2.5372,4.6043-3.8038,10.4315-3.8038,17.4893,0,6.9224,1.2547,12.6381,3.7639,17.1468,2.5093,4.5088,5.6559,6.7631,9.4437,6.7631,1.9596,0,3.7639-.709,5.4129-2.1309,1.6529-1.414,2.9713-3.3975,3.9671-5.9426.1593-.4262.3744-1.0276.6373-1.8043.7727-2.0871,1.41-3.1346,1.9158-3.1346.4541,0,.7568.2469.9201.7448.1593.4979.239,1.7605.239,3.7958v1.0834c0,1.9517-.0757,3.3457-.223,4.1901-.1474.8444-.3943,1.4896-.7448,1.9437-1.2108,1.414-2.9394,2.5252-5.1899,3.3258s-4.7876,1.2029-7.6035,1.2029c-7.0818,0-12.7695-2.5332-17.0592-7.5996-4.2817-5.0624-6.4286-11.702-6.4286-19.907h0Z" style="fill: #fae540; fill-rule: evenodd;"/>
        <path id="path941" d="M244.4441,215.0873c0,1.2905.235,2.2145.705,2.7642s1.5494.9479,3.2342,1.1869c.1593.0279.3465.0558.5656.0836,1.3662.1633,2.0512.6572,2.0512,1.4857.0259.4964-.1661.9793-.5258,1.3224-.3914.3345-.8957.5069-1.41.4819-.243,0-1.4379-.1275-3.5847-.3744s-4.1901-.3744-6.1219-.3744-3.9033.1275-5.9267.3744-3.0749.3744-3.1545.3744c-.4493.0224-.8873-.1453-1.2068-.462-.3089-.3456-.4679-.7998-.4421-1.2626,0-.8563.6532-1.394,1.9636-1.6051l.0797-.0398c.1266-.0557.264-.0829.4023-.0797,1.2546-.2151,2.0791-.6054,2.4814-1.171s.6014-1.4936.6014-2.7841v-37.3087c0-1.2945-.2071-2.2225-.6213-2.7881-.4142-.5656-1.2427-.9559-2.4734-1.175-.1455-.0361-.2932-.0628-.4421-.0797-1.394-.2708-2.0871-.8245-2.0871-1.6569,0-.5696.1513-1.0117.462-1.3343.3212-.329.7674-.5057,1.2268-.4859.1593,0,.5656.0398,1.2069.1235,2.7642.3545,5.4129.5337,7.9421.5337h7.0579c2.4622-.0139,4.9229-.1242,7.3765-.3306,1.7479-.1569,3.4997-.2658,5.2536-.3266.7767,0,1.2507.0956,1.4259.2828.1713.1912.2589.5935.2589,1.2188v9.133c0,.7209-.0876,1.1869-.2629,1.402-.1713.2151-.462.3226-.8643.3226-.5855,0-1.3662-.9599-2.3261-2.8797-.3817-.7701-.7842-1.5298-1.2069-2.2783-.574-1.0784-1.4614-1.9574-2.5451-2.5212-1.0834-.5576-2.3858-.8364-3.9113-.8364-1.8999,0-3.2342.3465-4.0109,1.0396-.7727.693-1.163,1.9079-1.163,3.6405v11.9052c0,.7488.227,1.2746.6851,1.5812.4541.3067,1.2985.462,2.5292.462,1.8481,0,3.1745-.1354,3.975-.4023.7305-.2114,1.3591-.6814,1.7685-1.3224.4023-.7488.8404-1.8481,1.3263-3.3059s1.0435-2.1827,1.6888-2.1827c.3905-.0069.7561.1911.9639.5218.239.3465.3625.8285.3625,1.4458-.2444,2.0929-.3694,4.198-.3744,6.3051,0,1.7127.0358,3.4493.1036,5.2018l.1036,2.7124c0,1.1272-.0956,1.876-.2828,2.2504-.1872.3744-.5536.5616-1.0874.5616-.7528,0-1.41-.8683-1.9756-2.6049-.1835-.5405-.3854-1.0745-.6054-1.6012-.6413-1.4936-1.3383-2.5093-2.099-3.043s-1.8879-.8006-3.3816-.8006c-.5058,0-.8962.008-1.163.0199-.2541.0129-.5078.0328-.7608.0597l-.8444.1633c-.3226.0518-.5576.1713-.705.3585-.1623.2342-.2409.5162-.223.8006v17.2982h-.012Z" style="fill: #fae540; fill-rule: evenodd;"/>
        <path id="path939" d="M316.6837,217.1147c0-1.637.474-3.0191,1.4259-4.1503s2.1389-1.6968,3.5608-1.6968,2.6168.5656,3.5807,1.6968c.9639,1.1272,1.4498,2.5093,1.4498,4.1503,0,1.6131-.4859,2.9793-1.4498,4.0905-.9639,1.1152-2.1588,1.6729-3.5807,1.6729s-2.6089-.5536-3.5608-1.6529c-.9479-1.1033-1.4259-2.4734-1.4259-4.1105h0Z" style="fill: #fae540; fill-rule: evenodd;"/>
        <path id="path937" d="M258.755,217.1147c0-1.637.474-3.0191,1.4259-4.1503.9519-1.1312,2.1389-1.6968,3.5608-1.6968,1.4179,0,2.6128.5656,3.5767,1.6968.9679,1.1272,1.4498,2.5093,1.4498,4.1503,0,1.6131-.4819,2.9793-1.4498,4.0905-.9639,1.1152-2.1588,1.6729-3.5767,1.6729-1.4219,0-2.6089-.5536-3.5608-1.6529-.9519-1.1033-1.4259-2.4734-1.4259-4.1105h0Z" style="fill: #fae540; fill-rule: evenodd;"/>
        <path id="path903" d="M550.5534,208.125c0-.5377.1315-.9718.3904-1.3104s.5974-.5019,1.0356-.5019c.7329,0,1.3303,1.1312,1.7884,3.3895.219,1.1033.4262,1.9756.6134,2.6208.701,2.6925,1.7207,4.7039,3.059,6.0342s3.0191,1.9955,5.0265,1.9955c2.5452,0,4.5804-.7767,6.106-2.334,1.5334-1.5613,2.2942-3.6126,2.2942-6.1657,0-2.2544-.5696-4.1543-1.7047-5.6997-1.1431-1.5414-3.6086-3.4174-7.4123-5.62-4.0308-2.334-6.8069-4.6442-8.3324-6.9344-1.5334-2.2902-2.3022-5.1381-2.3022-8.5435,0-4.5805,1.4459-8.44,4.3415-11.5746,2.8877-3.1346,6.4564-4.7039,10.7103-4.7039,1.8441,0,3.5767.235,5.1978.701s2.8319,1.0475,3.6325,1.7406c.3441.3136.5949.716.7249,1.163.1315.4541.2031,1.414.2031,2.8837v7.03c.023.4428-.0792.8831-.2948,1.2706-.2031.3107-.4581.462-.7847.462-.7926,0-1.5653-1.2507-2.3022-3.756-.1014-.28-.1944-.5629-.2788-.8484-.8563-2.7204-1.7565-4.5526-2.7084-5.4926s-2.2703-1.414-3.9512-1.414c-1.876,0-3.4015.6612-4.5725,1.9756-1.171,1.3144-1.7644,3.0231-1.7644,5.1221,0,3.039,1.9118,5.5642,5.7395,7.5796,1.0515.5656,1.86,1.0077,2.4496,1.3303,4.1702,2.4894,7.1256,5.0465,8.8622,7.6593,1.7366,2.6128,2.6049,5.7435,2.6049,9.3919,0,5.146-1.5852,9.4596-4.7437,12.9328-3.1665,3.4692-7.1654,5.2098-11.9968,5.2098-2.1261.0069-4.2379-.3473-6.2453-1.0475-1.9995-.697-3.4612-1.5295-4.3653-2.4973-.4189-.4236-.7007-.9635-.8086-1.5494-.1394-.6293-.2031-1.8202-.2031-3.5648v-6.9344h-.0082Z" style="fill: #fae540; fill-rule: evenodd;"/>
        <path id="path901" d="M528.404,196.6301c-.3266.0518-.5616.1713-.7089.3585-.1573.2363-.2341.5171-.219.8006v12.0048c0,4.0109.4142,6.556,1.2228,7.6354.8165,1.0754,2.3659,1.6131,4.6442,1.6131,3.0319.0148,5.8746-1.4722,7.5916-3.9711.6691-.9639,1.41-2.3062,2.2265-4.0268.8086-1.7207,1.5095-2.577,2.099-2.577.4581,0,.8245.2151,1.0953.6452.2917.5294.4322,1.1288.4063,1.7326,0,.1872-.0239.478-.0638.8683-.0398.3903-.0996.8524-.1872,1.3901l-.932,6.9384c-.1394.9519-.3744,1.633-.7089,2.0433s-.8404.6134-1.5095.6134c-.1872,0-.7528-.0398-1.6888-.1195-5.6246-.6105-11.2781-.9149-16.9357-.9121-3.4612,0-6.8986.2111-10.3.6253-.6213.0836-.9957.1235-1.1272.1235-.5138,0-.9121-.1553-1.2069-.466-.2947-.3107-.4421-.7329-.4421-1.2706,0-.8324.6532-1.402,1.9596-1.6928l.474-.1275c1.2307-.1872,2.0552-.5576,2.4655-1.1073.4102-.5497.6213-1.4697.6213-2.7562v-37.3087c0-1.2865-.2111-2.2106-.6293-2.7722-.4142-.5656-1.2387-.9519-2.4735-1.167-.1427-.0364-.2878-.063-.4342-.0797-1.402-.2708-2.0911-.8245-2.0911-1.6569,0-.5696.1474-1.0117.458-1.3343.3107-.3226.7169-.4859,1.2307-.4859.0796,0,.3903.0279.9241.0836,3.2661.3824,6.6516.5736,10.1447.5736,3.9113,0,7.9102-.1075,11.9888-.3306,4.0825-.2191,6.2095-.3266,6.3649-.3266.8324,0,1.3462.0996,1.5494.3027.2031.2031.3027.6014.3027,1.1989v8.4918c0,1.0475-.0836,1.7167-.2629,2.0154-.1713.2947-.5058.4421-.9878.4421-.5895,0-1.3861-.94-2.3819-2.82-.4051-.7711-.8221-1.5359-1.2506-2.2942-.6171-1.0488-1.5398-1.884-2.6447-2.3938-1.1511-.5497-2.5371-.8245-4.1702-.8245-1.9277,0-3.2979.3346-4.1145,1.0037-.8086.6691-1.2228,1.8521-1.2228,3.5409v11.7578c0,.7488.2271,1.2746.6851,1.5812.4581.3067,1.2985.462,2.5292.462,1.8441,0,3.1744-.1354,3.975-.4023s1.3941-.709,1.7644-1.3224c.4063-.7488.8484-1.8481,1.3303-3.3059s1.0435-2.1827,1.6888-2.1827c.3983,0,.7169.1713.9559.5218.2673.4331.3952.9377.3664,1.4458-.2432,2.0929-.3668,4.1981-.3704,6.3051,0,1.7127.0318,3.4493.0996,5.2018.0717,1.7565.0996,2.6606.0996,2.7124,0,1.1272-.0916,1.876-.2788,2.2504-.1872.3744-.5537.5616-1.0873.5616-.7528,0-1.41-.8683-1.9756-2.6049-.1835-.5405-.3854-1.0745-.6054-1.6012-.6373-1.4936-1.3383-2.5093-2.099-3.043s-1.8919-.8006-3.3856-.8006c-.641-.0182-1.2825.0084-1.9198.0797l-.8485.1594Z" style="fill: #fae540; fill-rule: evenodd;"/>
        <path id="path899" d="M498.5076,174.1142c-.2708,0-.4979.0996-.6691.3027s-.2629.4899-.2629.8643v39.818c0,1.2865.2031,2.2066.5895,2.7562.3903.5497,1.2069.9479,2.4655,1.1869.12.0367.2424.0647.3664.0836,1.1511.1872,1.7286.6572,1.7286,1.406.0223.49-.1255.9726-.4182,1.3662-.2766.3455-.7009.5392-1.1431.5218-.1075,0-.4182-.0438-.9241-.1235-5.1127-.7032-10.2976-.7032-15.4102,0-.3029.0576-.6087.0988-.9161.1235-.482,0-.8563-.1633-1.1033-.4819-.2776-.3846-.4153-.8526-.3903-1.3263,0-.8046.5616-1.3144,1.6808-1.5255l.0796-.0398.1952-.0597c.0801-.0147.1615-.0213.243-.0199,1.0674-.2151,1.7724-.6014,2.1389-1.167.3585-.5616.5377-1.4896.5377-2.7801v-39.7344c.0203-.3074-.0655-.6125-.243-.8643-.1504-.1987-.3882-.3117-.6373-.3027h-.9957c-1.2069,0-2.2862.3226-3.2342.9639s-1.8999,1.6888-2.8319,3.1346c-.458.7528-1.0117,1.7446-1.6569,2.9793-.9161,1.7685-1.641,2.6567-2.1867,2.6567-.3395.0033-.6557-.1722-.8324-.462-.2176-.3855-.3225-.8244-.3027-1.2666,0-.243.2469-1.4418.7488-3.6006.5951-2.5554,1.1264-5.1252,1.5932-7.7071.4063-2.4137.9559-3.6245,1.6569-3.6245.5377,0,.94.47,1.2148,1.414.0558.2151.0996.3943.1553.5258.1351.5511.5048,1.0154,1.0117,1.2706.482.231,1.6171.3425,3.3935.3425h14.7331c2.2265,0,4.1622-.1195,5.8271-.3585,1.6569-.243,2.6766-.5377,3.0589-.8882.1553-.1354.4501-.6293.8802-1.4896.4262-.8603.9241-1.2905,1.4936-1.2905.3744,0,.6532.1633.8404.4859s.2788.7886.2788,1.406c0,.2669-.1314,1.6808-.3983,4.2419-.2708,2.5611-.474,5.0186-.6054,7.3805-.0796,1.4458-.227,2.4097-.4421,2.8956-.1651.4497-.6007.7422-1.0794.7249-.6213,0-1.2427-1.0037-1.8919-3.0151-.4063-1.2347-.7608-2.2384-1.0874-3.0191-.5616-1.3383-1.2427-2.2942-2.0473-2.8558-.8086-.5656-1.9278-.8444-3.3776-.8444h-1.8242v-.004Z" style="fill: #fae540; fill-rule: evenodd;"/>
        <path id="path863" d="M439.0374,210.232c0,2.8439.1872,4.8871.5616,6.1219.3824,1.2347.9957,1.9995,1.8601,2.2942.5058.2151,1.1909.3704,2.0552.478h.1155c1.1829.1633,1.7724.6532,1.7724,1.4817.0258.4686-.1564.9247-.4979,1.2467-.3908.3221-.8884.4856-1.394.4581-.7723-.0542-1.5427-.1326-2.3101-.235-2.3151-.3196-4.6631-.3196-6.9782,0-.6692.0993-1.3413.1777-2.0154.235-.5377,0-.9479-.1593-1.2427-.478-.2947-.3186-.4421-.7528-.4421-1.3144,0-.4501.0837-.7767.2629-.9758.1713-.1991.6054-.3386,1.3064-.4182.1553-.0518.4342-.1275.8404-.2191s.7408-.1832,1.0037-.2629c.7528-.2947,1.2746-1.0396,1.5733-2.2384s.4421-3.2541.4421-6.1856v-29.9123c0-2.3619-.1314-3.987-.4063-4.8752s-.7408-1.4339-1.41-1.6529c-.1825-.0282-.3644-.06-.5457-.0956-.2031-.0438-.474-.0876-.8165-.1434-.7329-.0518-1.1909-.1912-1.394-.4142-.2031-.223-.3027-.5975-.3027-1.1272,0-.5377.1314-.9599.3903-1.2706.2457-.3096.6248-.4828,1.0196-.466.0837,0,.3107.0119.6851.0358,2.0911.1752,4.2379.2629,6.4325.2629,1.7177-.0012,3.435-.0504,5.15-.1474.482,0,.8643.0956,1.1511.2868.2788.1872.6213.6213,1.0196,1.3024l17.099,28.2355c.1314.243.2708.4302.4182.5656.1474.1354.2708.1991.3824.1991.1633,0,.3027-.1115.4262-.3425.1242-.2567.1856-.5393.1792-.8245v-17.5531c0-2.8478-.1872-4.8871-.5696-6.1219-.3744-1.2347-.9957-1.9995-1.8521-2.2942-.6632-.2512-1.3571-.412-2.0632-.478h-.1155c-.8404-.1354-1.3542-.3027-1.5573-.5019s-.3027-.5258-.3027-.9798c0-.5337.1713-.94.5218-1.2188s.8404-.4182,1.4857-.4182c.2111,0,.9639.0637,2.2623.1872,2.3072.253,4.6352.253,6.9424,0,1.1909-.1235,1.868-.1872,2.0234-.1872.5616,0,.9798.1434,1.2427.4222.2708.2828.4063.7209.4063,1.3144,0,.4979-.0837.8484-.2549,1.0555-.1792.2071-.5975.3386-1.2586.3903l-.8006.1752c-.3347.0691-.6668.1501-.9957.243-.7687.2947-1.3224,1.0635-1.641,2.2942-.3186,1.2347-.474,3.274-.474,6.1219v38.3244c0,1.2865-.1713,2.2464-.4979,2.8917-.3346.6452-.8245.9639-1.4697.9639-.5417-.0135-1.0605-.2213-1.4617-.5855-.466-.3943-1.1272-1.2985-1.9835-2.7124l-23.0496-38.9617c-.0738-.1404-.1677-.2692-.2788-.3824-.0962-.0726-.208-.1217-.3266-.1434-.1075.0279-.1792.1155-.2191.2629-.0398.1474-.0796.4461-.0996.9041v27.3831h-.004Z" style="fill: #fae540; fill-rule: evenodd;"/>
      </g>
      <g id="g978">
        <path id="path911" d="M314.9312,242.8408c0,.8723.2708,1.4618.8165,1.7645s1.5693.4581,3.0749.4581c1.1431,0,2.2584-.1155,3.3537-.3465,1.0953-.231,1.9835-.5417,2.6686-.936.5498-.3264,1.0804-.6841,1.5892-1.0714.9041-.6771,1.6131-1.0157,2.1389-1.0157.3306,0,.5735.0518.7289.1474.1593.0956.235.235.235.4142-.0134.1325-.0401.2632-.0796.3903l-.1314.4939-.6532,2.2663c-.077.2882-.2872.5221-.5656.6293-.2708.0996-.7568.1513-1.4617.1513-.6492,0-2.6487-.0319-5.9944-.0916-3.3497-.0637-6.3648-.0916-9.0454-.0916-2.8598,0-5.5403.0558-8.0496.1633l-.6054.0239c-.3272.0136-.6537-.0392-.9599-.1553-.239-.1036-.3545-.243-.3545-.4182.0159-.2589.5536-.4302,1.6012-.5218.1133.0019.2266-.0061.3386-.0239.944-.0717,1.5773-.1991,1.8919-.3903.3147-.1872.474-.4939.474-.9201v-12.172c0-.4182-.1593-.7209-.474-.9002-.3147-.1832-.944-.3107-1.8919-.3784h-.0916c-.0243.0004-.0475-.0098-.0637-.0279-.5003-.0119-.9981-.0746-1.4857-.1872-.2031-.0717-.3027-.1872-.3027-.3465,0-.1752.1195-.3226.3585-.4262.3067-.1196.635-.1738.9639-.1593l.7647.0239c2.2703.1075,4.5366.1633,6.791.1633,2.6511-.0034,5.3018-.0658,7.9501-.1872.474,0,.8285.0478,1.0674.1474.239.0956.3585.243.3585.4381,0,.2868-.6213.466-1.8601.5337h-.1314c-1.2188.0876-2.0194.2191-2.4017.3943-.3624.1418-.5934.4996-.5735.8882v11.2759h.0119Z" style="fill: #fae540; fill-rule: evenodd;"/>
        <path id="path909" d="M288.727,230.3661c-.2469,0-.4461.0358-.5935.1036-.1474.0677-.223.1673-.223.2908v13.0085c0,.4222.1713.7289.5138.9121s1.0595.3107,2.1548.3824c.1051.0188.2119.0268.3186.0239,1.0037.0717,1.5056.235,1.5056.4819,0,.1752-.1235.3266-.3704.4381-.3102.1282-.6444.188-.9798.1752-.1036,0-.3784-.0159-.8205-.0478-4.4989-.1825-9.0034-.1825-13.5024,0-.4421.0319-.7169.0478-.8205.0478-.4063,0-.7249-.0558-.9519-.1593s-.3425-.2469-.3425-.4262c0-.2669.4939-.4342,1.4777-.5058l.0837-.0279c.0573.001.1146-.003.1713-.0119.0659-.0094.1326-.0134.1992-.0119.9519-.0717,1.5852-.1991,1.9039-.3824.3147-.1832.474-.4899.474-.9121v-12.9846c0-.1235-.0717-.2191-.2111-.2908-.1832-.0792-.3823-.1146-.5815-.1036h-.8723c-1.0515,0-1.9915.1036-2.8239.3186-.8631.2242-1.6904.5688-2.4575,1.0236-.4908.3079-.9704.6334-1.4379.9758-.7846.5815-1.41.8683-1.884.8683-.2433.0115-.4856-.0378-.705-.1434-.1752-.0956-.2589-.231-.2589-.4103,0-.0836.2151-.4819.6413-1.179.4262-.697.8085-1.3741,1.1391-2.0194.0518-.1235.1314-.2868.239-.4979.3465-.7846.8285-1.179,1.4378-1.179.47,0,.8205.1553,1.0475.462.0518.0677.0956.1195.1314.1513.1752.2071.466.3425.8763.4103.4102.0717,1.3821.1036,2.9195.1036h12.9248c1.9198,0,3.6046-.0398,5.0465-.1155,1.4418-.0797,2.3301-.1713,2.6606-.2788.2762-.1352.5355-.3023.7727-.4979.3749-.2787.8314-.4257,1.2984-.4182.3147,0,.5536.0518.7209.1593.1631.1006.2579.2826.2469.474,0,.0876-.1115.5536-.3386,1.3861-.2186.7942-.3928,1.6001-.5218,2.4137-.0717.474-.1992.7926-.3903.9479-.1912.1553-.5019.239-.94.239-.5417,0-1.0874-.3266-1.645-.9718-.2932-.343-.5973-.6764-.9121-.9997-.4939-.4342-1.0913-.7488-1.8003-.932s-1.6848-.2788-2.9235-.2788h-1.5972v-.0119Z" style="fill: #fae540; fill-rule: evenodd;"/>
        <path id="path905" d="M252.6331,228.6773c-.7926,0-1.3661.0717-1.7166.2111-.4083.1848-.7612.473-1.0239.8361l-11.2157,13.5741c-.3306.4063-.6973.7373-1.0916.9843-.435.2636-.912.4508-1.4101.5536-.1394.0319-.2905.0673-.4499.0912-.1553.0279-.3069.0518-.4463.0678l-.1032.0282c-.8763.1434-1.3184.3623-1.3184.661,0,.1792.1155.3066.3425.3863.231.0797.5734.1194,1.0275.1194l.3941-.0318c1.3702-.1235,2.7846-.1871,4.2424-.1871,2.0319-.0031,4.0633.07,6.0898.2189.3436.0165.6874-.028,1.0155-.1314.2231-.0876.3305-.2188.3305-.3941,0-.2788-.5493-.4981-1.6447-.6574h-.0282c-.5828-.0697-1.1632-.1574-1.7406-.2627-.7408-.1434-1.2467-.2946-1.5175-.4618-.2748-.1633-.4103-.3988-.4103-.6976.0229-.3282.1168-.6474.2753-.9357.1872-.3784.4935-.8643.9117-1.4617.2205-.3703.581-.636.9999-.7372.4222-.1075,1.3264-.1589,2.7165-.1589h3.4531c1.7565,0,2.8957.0437,3.4255.1314s.8804.2466,1.0557.4696l2.2661,2.9558c.0647.0742.1184.1572.1595.2465.035.0776.0526.162.0516.2471,0,.1912-.0991.3304-.2903.4181s-.6693.1558-1.4221.2075c-.0666-.0016-.1332.0025-.1991.012-.4411.0165-.8773.0983-1.2944.2429-.235.0996-.3545.2388-.3545.4181s.1354.3145.3983.4061c.3772.1037.7679.1494,1.1588.1356.474,0,1.5654-.0476,3.2821-.1392,2.9977-.1696,6.0024-.1802,9.0012-.0318,1.6012.0717,2.4974.1074,2.6925.1074.5258,0,.9282-.0397,1.199-.1194s.4103-.1952.4103-.3545c0-.2987-.4935-.4819-1.4773-.5536-.4939-.0359-.8488-.0802-1.0599-.132-.7169-.1394-1.3303-.3703-1.8282-.685-.5019-.3186-1.0391-.8362-1.6207-1.5571l-10.7065-12.9689c-.4023-.5019-.7486-.8041-1.0275-.9117-.2788-.1075-.781-.1595-1.5019-.1595h0ZM248.9209,233.9628c.0674-.0007.1327.0234.1835.0678.0873.0746.1672.1573.2387.2471l3.5052,4.2298c.0472.047.0874.1005.1194.1589.0242.0384.0378.0824.0396.1278,0,.0677-.0554.1155-.1589.1434-.1036.0279-.2791.0396-.526.0396h-6.6992c-.1616.0081-.3236-.0038-.4822-.0354-.0797-.0239-.1194-.0563-.1194-.0882,0-.0199.024-.0597.0798-.1314l.024-.0516,3.3217-4.393c.0631-.0815.1383-.1527.2231-.2111.0758-.051.1611-.0862.2507-.1038Z" style="fill: #fae540; fill-rule: evenodd;"/>
        <path id="path865" d="M343.9553,229.7248c.2649-.3626.6188-.6507,1.0276-.8364.3505-.1394.9201-.2111,1.7127-.2111.7209,0,1.2228.0518,1.5016.1593s.6213.4103,1.0276.9121l10.7063,12.9686c.5815.7209,1.1192,1.2387,1.6211,1.5573.4979.3147,1.1073.5457,1.8322.6851.2111.0518.5616.0956,1.0555.1314.9838.0717,1.4777.2549,1.4777.5536,0,.1593-.1354.2748-.4102.3545-.2708.0797-.6691.1195-1.1989.1195-.1952,0-1.0874-.0358-2.6885-.1075s-3.1187-.1075-4.5605-.1075c-1.2467,0-2.7283.0478-4.441.1394-1.7167.0916-2.808.1394-3.278.1394-.3923.0141-.7845-.0315-1.163-.1354-.2629-.0916-.3943-.227-.3943-.4063s.1195-.3186.3545-.4182c.4157-.1447.8506-.2266,1.2905-.243.0659-.0094.1326-.0134.1992-.0119.7528-.0518,1.2307-.1195,1.4219-.2071.1912-.0876.2908-.227.2908-.4182.0009-.0851-.0168-.1694-.0518-.2469-.0411-.0895-.0947-.1727-.1593-.2469l-2.2664-2.9554c-.1752-.223-.5298-.3824-1.0555-.47-.5258-.0876-1.6689-.1314-3.4254-.1314h-3.4532c-1.3901,0-2.2942.0518-2.7164.1593-.4188.1011-.7792.3667-.9997.7369-.4222.5975-.7249,1.0834-.9081,1.4618-.1611.2875-.2563.6072-.2788.936,0,.2987.1394.5337.4102.697.2708.1673.7767.3186,1.5135.462.5792.1027,1.1609.1903,1.7446.2629h.0239c1.0953.1593,1.645.3784,1.645.6572,0,.1752-.1075.3067-.3306.3943-.3269.1031-.6693.1476-1.0117.1314-2.0265-.1491-4.058-.2222-6.09-.2191-1.4578,0-2.8717.0637-4.2419.1872l-.3943.0319c-.458,0-.8006-.0398-1.0276-.1195-.227-.0797-.3425-.2071-.3425-.3864,0-.2987.4421-.5178,1.3184-.6612l.1036-.0279c.1394-.0159.2908-.0398.4461-.0677.1593-.0239.3107-.0597.4501-.0916.5457-.1195,1.0157-.3067,1.41-.5536s.7608-.5775,1.0953-.9838l11.2081-13.5741ZM339.6855,238.9773h6.6954c.1762.0066.3526-.0067.5258-.0398.1075-.0279.1593-.0757.1593-.1434-.0019-.0452-.0156-.0892-.0398-.1275-.0306-.0594-.071-.1133-.1195-.1593l-3.505-4.2299c-.0727-.0888-.1527-.1714-.239-.247-.0507-.0442-.1159-.0683-.1832-.0677-.0897.0174-.175.0526-.2509.1036-.0848.0585-.16.1297-.223.2111l-3.3218,4.3932-.0239.0518c-.0518.0717-.0796.1115-.0796.1314,0,.0319.0398.0637.1195.0876.1599.0316.3231.0436.4859.0358h0Z" style="fill: #fae540; fill-rule: evenodd;"/>
        <path id="path965" d="M555.5401,237.7466c-.2075.0015-.4129.042-.6054.1195-.1315.0637-.2031.1434-.2031.2469v3.9272c0,1.3104.3585,2.1389,1.0595,2.4894.7089.3545,2.0553.5297,4.0388.5297,1.3224,0,2.5611-.1155,3.7201-.3505,1.1591-.235,2.115-.5576,2.8638-.9718.5815-.3147,1.2228-.7488,1.9277-1.3064.705-.5576,1.3224-.8364,1.8521-.8364.326-.0141.6501.0573.94.2071.243.1434.3585.3306.3585.5736-.0416.2517-.1124.4976-.2111.7329l-.8245,2.2783c-.0878.3082-.3104.56-.6054.6851-.4202.1544-.8673.2221-1.3144.1991-.1553,0-.6453-.0159-1.4697-.0558-4.9188-.2134-9.8416-.3196-14.765-.3186-3.035,0-6.0303.0757-8.9936.2191-.5297.0398-.8563.0637-.9798.0637-.3591.0148-.718-.0351-1.0595-.1474-.2549-.0956-.3823-.239-.3823-.4142,0-.2868.5696-.474,1.7207-.5656.1491-.0198.2967-.0491.4421-.0876,1.0794-.0518,1.7963-.1673,2.1628-.3505.3468-.1635.5597-.5213.5377-.9041v-12.2159c0-.4302-.1792-.7408-.5377-.928s-1.0754-.3186-2.1468-.3943c-.1331-.0007-.2661-.0086-.3983-.0239-1.2068-.0836-1.8123-.2549-1.8123-.5138,0-.1872.1315-.3306.3983-.4302.3381-.1155.6945-.1682,1.0515-.1553l.8165.0239c2.8558.1075,5.8032.1633,8.8303.1633,3.4134,0,6.8985-.0319,10.4474-.0916l5.5244-.0956c.7249,0,1.167.0358,1.3462.0996.1713.0677.2629.1912.2629.3744v2.808c0,.3625-.0797.5895-.2271.6891-.1553.0996-.4341.1474-.8563.1474-.5138,0-1.1989-.3147-2.0553-.944-.3685-.2591-.7363-.5193-1.1033-.7807-.5456-.3425-1.3064-.6054-2.3022-.7966-1.189-.2042-2.3943-.2988-3.6007-.2828-1.6888,0-2.8877.1115-3.5926.3386-.701.227-1.0595.6253-1.0595,1.2029v3.8675c0,.243.2031.4182.6054.5218.3983.1036,1.1272.1553,2.1946.1553,1.5932,0,2.7443-.0398,3.4374-.1275.701-.0836,1.2068-.235,1.5175-.4421.3664-.243.7528-.5975,1.175-1.0674.3592-.4389.8947-.6957,1.4618-.701.3505,0,.6214.0558.8245.1713.1952.1115.2948.2629.2948.4581-.0251.0762-.0411.1551-.0478.235-.1522.599-.2311,1.2142-.235,1.8322,0,.5576.0239,1.1192.0797,1.6888s.0797.8603.0797.8802c0,.3664-.0836.6094-.2469.7329-.1713.1235-.474.1832-.932.1832-.6688-.0117-1.2984-.3178-1.7207-.8364-.1682-.1835-.345-.3589-.5297-.5258-.5086-.4734-1.1253-.8152-1.7963-.9957-.6612-.1713-1.649-.2589-2.9474-.2589h-1.0037c-.235,0-.4581.008-.6691.0239l-.7368.0478Z" style="fill: #fae540; fill-rule: evenodd;"/>
        <path id="path963" d="M505.7128,231.561c0-.4182-.1553-.7209-.466-.9041-.3186-.1832-.9479-.3107-1.8919-.3784h-.1633c-1.1909-.1036-1.7804-.2908-1.7804-.5497,0-.1752.1155-.3147.3585-.4182.2966-.1161.6137-.1704.932-.1593l.7926.0239c4.6616.2233,9.3314.2153,13.9923-.0239.3824,0,.6851.0518.9041.1593.227.1036.3346.2509.3346.4421,0,.2629-.5138.4381-1.5414.5258l-.0996-.004h-.1075c-1.0794.0717-1.7884.1952-2.1309.3704-.3505.1752-.5218.474-.5218.8962v8.7945c0,1.8919.6373,3.1984,1.9078,3.9233,1.2666.7289,3.501,1.0913,6.6835,1.0913,1.7366,0,3.2661-.1593,4.6123-.474,1.3383-.3147,2.342-.7448,3.0271-1.2865.4269-.3345.7479-.7855.924-1.2985.1713-.5138.2549-1.4936.2549-2.9275v-2.8359c0-2.3619-.1155-3.9033-.3505-4.6322-.243-.7249-.6532-1.2029-1.2506-1.4299-.1713-.0518-.3904-.0996-.6532-.1354s-.6134-.0558-1.0515-.0558c-.7687-.0159-1.2666-.0677-1.5016-.1553-.2271-.0876-.3346-.2191-.3346-.3943,0-.2111.1315-.3545.4063-.4302.2708-.0797.7607-.1195,1.4618-.1195.3186,0,1.0037.0159,2.0473.0478,1.724.0655,3.4499.0655,5.1739,0,.9957-.0319,1.6808-.0478,2.0473-.0478.7089,0,1.1909.0398,1.4618.1195.2708.0797.4142.223.4142.4302,0,.1752-.1075.3067-.3346.3943-.219.0876-.7249.1394-1.5175.1553-.4421,0-.8006.0199-1.0754.0558s-.5058.0836-.701.1354c-.5974.227-1.0196.7169-1.2586,1.4697-.243.7528-.3585,2.2862-.3585,4.5924v3.5449c0,1.3821-.1394,2.3619-.4182,2.9474-.2788.5855-.7528,1.0874-1.4219,1.5056-1.1352.697-2.7164,1.2148-4.7358,1.5454-2.0154.3306-4.5526.4979-7.6075.4979-2.9952,0-5.5324-.1633-7.5916-.4819-2.0632-.3226-3.6962-.8165-4.9071-1.4817-.6253-.3238-1.1459-.8182-1.5016-1.4259-.2947-.5497-.4501-1.4259-.4501-2.6328v-8.9856h-.0121Z" style="fill: #fae540; fill-rule: evenodd;"/>
        <path id="path959" d="M478.1941,228.6845c-2.3739.0057-4.7434.2031-7.0855.5902-2.1074.3383-4.1675.924-6.1378,1.7448-2.0791.8802-3.6525,1.8838-4.7318,3.011-1.0794,1.1312-1.6171,2.3341-1.6171,3.6126,0,1.2228.4978,2.3777,1.4935,3.4531.9958,1.0794,2.4971,2.0749,4.5045,2.987,1.175.5417,2.4575,1.0039,3.8675,1.3783s2.8006.6331,4.1867.7725l1.3022.1476c.3784.0558.6453.235.7767.5536l.0558.1595.4259,1.0593c.4899,1.2268,1.8604,2.1745,4.1068,2.8437,2.2384.6652,5.2253.9999,8.9454.9999,2.5133,0,4.6045-.1231,6.2853-.3701,1.6728-.2469,2.5132-.5379,2.5132-.8685,0-.1394-.0917-.2508-.2789-.3305-.2545-.0879-.5233-.1271-.7923-.1158-.3242.01-.6481.026-.9717.048-.5457.0319-1.0434.048-1.4935.048-1.8202,0-3.5693-.2988-5.2501-.8883-1.6808-.5935-3.0466-1.3939-4.114-2.4016l-.4822-.4463-.0396-.0558c-.008-.0199-.0083-.0556-.0083-.1074,0-.0717.0638-.136.1793-.1877.2063-.07.4204-.1141.6376-.1314l1.151-.1673c.9479-.1235,2.0633-.3702,3.3379-.7486,1.1691-.336,2.3103-.7621,3.4135-1.2746,1.9796-.944,3.4412-1.9357,4.3971-2.9792.9638-1.0435,1.4377-2.1667,1.4377-3.3775,0-1.2785-.5377-2.4814-1.6171-3.6126-1.0834-1.1272-2.6447-2.1312-4.7078-3.0074-1.9488-.8098-3.9843-1.3925-6.0664-1.7364-2.2942-.3983-4.7119-.6016-7.257-.6016-.1222-.0007-.2443-.0009-.3665-.0006h-.0001ZM477.8636,229.709c3.1904,0,5.7953.8006,7.8346,2.3938,2.0473,1.5892,3.0668,3.6683,3.0668,6.2253.0571,2.0929-.9505,4.072-2.6763,5.2573-1.7883,1.2945-4.1705,1.944-7.1418,1.944-3.2063,0-5.8112-.7964-7.8346-2.3896-2.0234-1.5972-3.035-3.6882-3.035-6.2811,0-2.1906.8887-3.9312,2.6691-5.2177,1.7725-1.2865,4.1459-1.932,7.1173-1.932Z" style="fill: #fae540; fill-rule: evenodd;"/>
        <path id="path957" d="M442.0486,231.5809c0-.4182-.1553-.7209-.474-.9041-.3107-.1832-.94-.3107-1.8919-.3824h-.1394c-.0265-.0001-.0521-.0101-.0717-.0279-.4792-.0129-.9557-.0757-1.4219-.1872-.2031-.0717-.3027-.1872-.3027-.3465,0-.1752.1155-.3226.3505-.4262.307-.1185.6351-.1727.9639-.1593l.7608.0239c4.7703.2318,9.5493.2239,14.3189-.0239.4063,0,.7249.0518.9479.1593s.3425.2589.3425.4581c0,.2669-.5457.4342-1.6251.5058h-.1354c-1.0953.0876-1.8123.2191-2.1468.3943-.3266.1752-.4979.474-.4979.8922v12.2198c0,.4182.1713.7209.4979.9041.3346.1832,1.0515.3107,2.1468.3824.0945.0182.1906.0262.2868.0239.9798.0717,1.4697.235,1.4697.4819,0,.1952-.1155.3505-.3425.4541-.227.1036-.5457.1593-.9479.1593-.0996,0-.3744-.0159-.8165-.0478-2.2464-.0916-4.4888-.1394-6.7353-.1394s-4.5048.0558-6.7671.1633l-.7608.0239c-.3287.0122-.6565-.042-.9639-.1593-.235-.1036-.3505-.2469-.3505-.4262,0-.2669.4979-.4342,1.4936-.5058l.0796-.0279c.052.0003.104-.0037.1553-.0119.07-.0089.1405-.0129.2111-.0119.9479-.0717,1.5773-.1952,1.8919-.3824.3186-.1792.474-.4819.474-.9041v-12.172Z" style="fill: #fae540; fill-rule: evenodd;"/>
        <path id="path955" d="M424.8301,230.3661c-.2469,0-.4501.0358-.5975.1036-.1474.0677-.2191.1673-.2191.2908v13.0085c0,.4222.1633.7289.5138.9121.3425.1832,1.0595.3107,2.1468.3824.1051.0187.2119.0267.3186.0239,1.0037.0717,1.5095.235,1.5095.4819,0,.1752-.1235.3266-.3744.4381-.3074.1283-.639.1881-.9719.1752-.2752-.0091-.5501-.025-.8245-.0478-4.4989-.1827-9.0034-.1827-13.5024,0-.2717.0229-.544.0389-.8165.0478-.4063,0-.7249-.0558-.9479-.1593s-.3425-.2469-.3425-.4262c0-.2669.4899-.4342,1.4777-.5058l.0796-.0279c.0573.0012.1147-.0028.1713-.0119.0673-.0095.1352-.0135.2031-.0119.9479-.0717,1.5852-.1991,1.8999-.3824.3186-.1832.474-.4899.474-.9121v-12.9846c0-.1235-.0717-.2191-.2111-.2908s-.3346-.1036-.5775-.1036h-.8802c-1.0515,0-1.9915.1036-2.8239.3186-.8629.2249-1.6901.5695-2.4575,1.0236-.3983.2469-.8802.5736-1.4299.9758-.7846.5815-1.414.8683-1.884.8683-.2445.0115-.4881-.0378-.709-.1434-.1792-.0956-.2549-.231-.2549-.4103,0-.0836.2111-.4819.6373-1.179.5005-.8159.9604-1.656,1.3781-2.5173.3425-.7846.8245-1.179,1.4379-1.179.466,0,.8165.1553,1.0435.462.0417.0523.0855.1028.1314.1513.1792.2071.466.3425.8802.4103.4142.0717,1.3861.1036,2.9156.1036h12.9209c1.9198,0,3.6086-.0398,5.0504-.1155,1.4458-.0797,2.334-.1713,2.6686-.2788.2753-.1346.5334-.3017.7687-.4979.3749-.2787.8314-.4257,1.2984-.4182.3107,0,.5536.0518.7169.1593.1669.098.2652.2808.2549.474,0,.0876-.1155.5536-.3425,1.3861-.227.8364-.4063,1.641-.5218,2.4137-.0717.474-.2031.7926-.3983.9479-.1952.1553-.5058.239-.94.239-.5377,0-1.0874-.3266-1.641-.9718-.2933-.3441-.5988-.6776-.9161-.9997-.4899-.4342-1.0874-.7488-1.7963-.932-.709-.1832-1.6888-.2788-2.9235-.2788h-1.5932v-.012Z" style="fill: #fae540; fill-rule: evenodd;"/>
        <path id="path867" d="M372.127,242.2593c0,.932.1593,1.5972.4859,1.9995.3226.4063.8563.6492,1.6091.7369.4342.0717,1.0276.1195,1.7764.1553h.1036c1.0316.0518,1.5454.2071,1.5454.474,0,.1792-.1474.3147-.4342.4142-.3991.111-.8127.1607-1.2268.1474-.1952,0-.8643-.0319-2.0194-.0916s-2.2145-.0916-3.1824-.0916c-.9161,0-1.8919.0319-2.9275.0916s-1.629.0916-1.7685.0916c-.3637.0148-.7269-.0379-1.0714-.1553-.2549-.1036-.3824-.239-.3824-.4142,0-.1553.0757-.2629.227-.3226.1474-.0597.5218-.1075,1.1272-.1434.1434-.0159.3943-.0398.7568-.0677.2971-.0198.5934-.0503.8882-.0916.6532-.0876,1.1152-.3306,1.3781-.7249.2669-.3943.3983-1.0635.3983-2.0114v-9.7783c0-.7687-.1195-1.3024-.3585-1.5892-.243-.2908-.6612-.47-1.2586-.5377-.1394,0-.3027-.008-.478-.0239-.2386-.0236-.4776-.0422-.7169-.0558-.6373-.0199-1.0435-.0677-1.2228-.1474-.1679-.0668-.2739-.2339-.2629-.4142,0-.1713.1155-.3067.3386-.4103.286-.1138.5926-.1667.9001-.1553l.5815.0159c3.2086.0577,6.4179.0697,9.6269.0358.1672-.008.3345-.0133.5019-.0159.4222,0,.7568.0319.9997.0916.3204.0963.624.2414.9001.4302l14.9442,9.2884c.1212.07.2494.1274.3824.1713.1061.0394.2176.0622.3306.0677.1394,0,.2629-.0358.3664-.1036.1036-.0677.1593-.1593.1593-.2629v-5.7276c0-.928-.1673-1.5932-.4899-1.9955-.3226-.4023-.8643-.6611-1.6211-.7647-.5938-.0889-1.1922-.1435-1.7923-.1633h-.1075c-.7408-.0358-1.1909-.0876-1.3582-.1633-.1673-.0757-.2469-.1832-.2469-.3266,0-.1832.1514-.3226.4461-.4222.2987-.0996.7289-.1513,1.2905-.1513.1912,0,.8563.0159,1.9875.0438,2.0282.0633,4.0578.0633,6.086,0l1.7764-.0438c.478,0,.8324.0438,1.0674.1394.239.0916.3585.235.3585.4222,0,.1633-.0796.2788-.227.3425-.3557.095-.7235.1366-1.0913.1235-.2364.0418-.4742.075-.713.0996-.3704.0438-.6691.0797-.9001.0996-.6652.1036-1.1431.3625-1.4219.7647-.2828.4023-.4222,1.0674-.4222,1.9955v12.4867c.0204.3582-.1433.7021-.4342.9121-.3853.2253-.8291.3307-1.2746.3027-.458,0-.8882-.0637-1.3025-.1912-.4142-.1275-.9838-.4103-1.7207-.8484l-20.1061-12.6898c-.0719-.0611-.1561-.106-.247-.1314l-.2748-.0518c-.1036.0159-.1752.0478-.2111.0916-.0359.0438-.0637.1434-.0796.2987v8.9458h.0119Z" style="fill: #fae540; fill-rule: evenodd;"/>
      </g>
    </g>
    <g id="g1032">
      <path id="path845" d="M522.4056,385.1812v8.9856h-3.74v-71.8851s-14.6017-5.616-22.8385-5.616c-5.9904,0-17.5969,3.744-17.5969,3.744,0,0-6.7353,2.6208-22.0857,1.4976,0,0,4.1144,9.7344,19.4649,12.3552,0,0-1.1192,5.616-14.2273,9.36,0,0,23.2129,14.6017,47.1746-5.9904,0,0-13.4745,7.1136-28.4505,2.9952l4.1144-6.3648-5.2416-7.1136,34.8194-4.8672v62.8995h-9.7305v10.1089h-8.9856v-10.1089h-10.1128v13.1041h-8.6113v-13.1041h-11.5985v19.8393l-6.7512,21.3489,64.0227,5.616s14.9761-2.6208,14.9761-27.7097v-19.0945h-14.6016ZM486.8414,419.6262h-15.7209v-12.7257h15.7209v12.7257ZM514.5511,419.6262h-15.7288v-12.7257h15.7288v12.7257ZM347.532,467.0637c4.7198,0,9.4238-.0478,14.1357.235,4.7079.701,9.3999,1.1989,14.0759,2.1468,8.9354,1.8098,17.7124,4.3284,26.2479,7.5318,17.4256,6.5441,34.1383,15.5655,49.7676,25.6346,7.8585,5.0584,15.474,10.5111,23.5395,15.223,7.7031,4.4968,15.7448,8.4161,24.1171,11.5149,8.5555,3.1665,17.4655,5.3771,26.467,6.8547,8.6192,1.402,17.3101,1.0196,25.9452.3346,1.4618-.1155,2.9872-.3505,4.4171-.6612,1.633-.1633,3.748-.4182,5.2496-1.0435,1.4378-.5815,3.0868-.5776,4.4729-1.2308,1.86-.8723,3.9591-1.2905,5.8829-2.107,3.975-1.7047,7.723-3.5409,11.2321-6.09,1.6171-1.175,3.1665-2.4495,4.5964-3.8356.5895-.5775,1.41-1.1591,2.099-.3505.5776.6771-1.3144,2.3022-1.7366,2.8001-.3744.4501-.693.7926-.9161,1.3383-.1394.3425-.2271.8643-.5616,1.0674-.5895.3585-1.2746.5456-1.884.8643-1.7446.9121-2.9634,2.6925-4.7597,3.509-.5297.2469-2.8717.6373-2.573,1.5414.2549.7767,3.3298.0558,2.5212,1.3542-.5537.8962-2.581.3186-2.9235,1.2308-.243.6214.9798.4501,1.2228.3585.7409-.2948,1.4857-.5974,2.2623-.8006.6134-.1553,3.1426-.4262,2.2623.9121-.8324,1.2506-2.4177,2.2105-3.6803,2.9155-3.8834,2.1787-8.2846,3.7878-12.423,5.4049-4.2778,1.6729-8.7069,3.0709-13.108,4.3813-8.9881,2.6933-18.1617,4.7234-27.4469,6.074-9.0454,1.3224-18.1346,1.7127-27.2676,1.4219-4.5725-.1394-9.2047-.3266-13.7374-.9559-2.2525-.2917-4.4948-.6569-6.7233-1.0953-1.0196-.2111-2.0393-.3904-3.035-.6771-1.6888-.482-.709.482.0398.9798,1.649,1.1033,3.1904,2.4336,5.0425,3.1983.7408.2948,1.6171.1235,2.3898.0996.7169-.0159,1.3781.2271,2.0393.4899.932.3823,3.1028,1.3622,1.7047,2.6447-1.2507,1.1591-4.0547.5895-5.5085.2469-4.0905-.9559-7.9182-3.5568-11.6463-5.4049-4.4171-2.2026-8.9458-4.1941-13.4426-6.2175-8.6192-3.5489-17.2942-7.0101-26.2639-9.599-9.262-2.6631-18.7035-4.6571-28.2514-5.9665-9.4039-1.2985-18.9391-1.6808-28.4267-1.4936-9.38.1792-18.975.8962-28.2116,2.5611-9.0613,1.6251-18.0629,3.2223-26.945,5.7116-2.0752.5776-4.1383,1.1511-6.1896,1.8123-.9719.3107-1.5573.6612-2.4854.1633-.8484-.466-2.1389.2469-2.9275.5537-2.0632.7687-4.0587,1.5016-5.9785,2.5691-2.0313,1.1272-4.8115,1.402-7.0539,1.9676-1.8362.4581-4.0866.2469-5.7674,1.1033-.7209.3664-1.4339.6293-2.1986.219-.6532-.6453-.3226-1.0794.2908-1.5494.9621-.7622,2.0101-1.4091,3.1227-1.9277.7209-.3107,1.6171-.1235,2.3659-.0318,1.2626.1474,2.1667-.4501,3.3377-.8723,1.7844-.6373,3.5488-1.3303,5.2934-2.0473l3.1984-1.3064c1.0396-.4262,2.1986-.693,2.8996-1.6251.4421-.5895.7807-1.2905,1.3542-1.7725.478-.3904,1.1192-.4421,1.6768-.6612,2.0512-.8086,4.0746-.9042,5.5563-2.7004.243-.2948,3.1346-3.3935,2.4695-3.6484-.5178-.1952-1.5374.1075-2.0791.1235-.8962.0318-2.2464-.0558-2.9833.5616-.8205.693-1.0396.9559-2.1588,1.1829-.8285.1633-1.6091.3027-2.3858.6373-1.633.7089-2.6487,1.2228-4.3415.3904-1.4216-.713-2.9348-1.2263-4.4968-1.5255-.7993-.1701-1.6196-.2198-2.4336-.1474-1.0595.1155-1.9238.9121-2.8598,1.3861-4.1941,2.123-8.6113,3.1824-13.1917,4.0825-2.4894.4899-5.0624,2.0751-7.3925,3.0948-2.6089,1.1431-5.2815,1.649-7.974,2.5133-2.3579,1.2148-4.6482,2.4336-7.1455,3.3218-2.6328.924-5.1221,2.1468-7.735,3.1187-4.68,1.7366-8.4121,6.082-13.4147,7.0618-2.5013.2788-4.688.8802-6.8866,2.1468-.9559.5537-1.9118,1.1431-2.9753,1.4697-.5656.1713-1.1152.3027-1.6649.0398-.3864-.1872-.8245-.6134-1.2746-.6134.9798-1.7963,2.8678-2.107,4.5844-2.8638.8285-.3664,1.5334-.924,2.3779-1.2586,1.0913-.4262,2.1906-.8484,3.27-1.3064.8285-.3505,1.6968-.7607,2.6128-.7607.9519-.5058,1.9796-.8404,2.9633-1.2746,2.2663-1.0117,4.3454-2.7084,6.4126-4.0746,1.4219-.932,3.7241-1.8919,4.676-3.3616.713-1.0953-1.6012-1.1591-2.1787-1.1352-1.5414.0797-2.7483,1.41-4.1901,1.8282-.8444.2469-4.3654.9121-2.4854-.7847.924-.8404,2.1747-1.1352,3.1944-1.8441,1.1679-.8081,1.9717-2.0424,2.2384-3.4374.3306-1.5653-.3346-3.1744.8444-4.4411.7926-.8484,1.9636-1.2905,2.6487-2.2345.8563-1.1829.1792-2.3898.2987-3.6803.1952-2.1548,2.346-1.1431,3.7361-1.649,1.6689-.5974,2.8757-.5537,3.8794-2.1707.1713-.2788,1.1073-1.4538.5736-1.7804-.4541-.2629-1.2347-.1553-1.7326-.1394-1.3184.0558-2.2544.3903-3.505.7169-1.1033.2868-2.7761-1.5733-1.5374-2.2544,1.8242-1.0117,3.8237-1.9596,5.7993-2.6288,1.3463-.458,2.9315-1.1113,4.1065-1.9278,1.2427-.8723,2.3699-2.0313,3.7839-2.6288,1.5733-.6691,3.2382-1.2507,4.8314-1.9437,1.2586-.5536,3.8794-2.6288,1.9078-3.8914-1.394-.8962-3.8914.4501-5.3133.8643-2.103.6054-4.3096.6213-6.3051,1.5773-.705.3425-1.3781,1.0356-2.115,1.2507-1.0236.1075-2.0592.1952-3.0749.3664-2.2544.3824-4.6163.7767-6.7631,1.5852-1.171.4421-5.6997,3.525-6.4206,1.3064-.4939-1.5255,1.5653-1.9119,2.4854-2.2464,2.089-.7571,4.1014-1.7107,6.0103-2.8478.7647-.458,1.5255-.94,2.35-1.2825.9838-.4063,2.0911-.2469,3.1386-.2469,1.5653-.008,2.4376-.6532,3.7201-1.5335.7209-.4899,2.1946-1.2307,2.3022-2.2185.0597-.5377-.3505-2.099.6253-2.099.8046-.3266,2.1906-.2708,3.0749-.2708.478-.4501.8763-.9719,1.3502-1.4219.5218-.4979,1.0834-.6532,1.6649-1.0037.7687-.458,1.637-.709,2.4495-1.0754.9997-.4501,1.8959-1.0953,2.8797-1.5733,1.4737-.7169,3.3019-.9241,4.9031-1.2387,2.0871-.4063,4.0228-1.0953,6.0263-1.8043,1.6768-.5975,3.3377-1.0674,5.0146-1.6091.6771-.2191,1.406-.1474,2.0393-.474.5839-.2949,1.1777-.5699,1.7804-.8245,2.6487-1.1431,5.3452-1.8999,8.1373-2.5292,1.8003-.1633,3.5767-1.0874,5.3731-1.0874,1.8163-.5298,3.8316-.7249,5.4129-1.7963,1.4259-.9719,3.5688.008,4.9429-1.2148,1.1352-1.0037,3.3298-1.0356,4.8075-1.2148,3.1824-.3824,6.337-1.0435,9.5233-1.4219.8245-.3266,1.8521-.1872,2.7244-.3107.709-.1155,1.4617-.1474,2.1787-.1952,1.8879-.1155,4.0109-.0239,5.7634-.7488,1.0196.0796,1.8083.3107,2.5412-.5457.4063-.474.47-1.0794-.0478-1.5016-.6731-.5536-1.3741-.482-2.1588-.2788-1.1192.2788-2.2026.1952-3.3537.1633-4.4769-.1075-9.2724.4342-13.6577-.5616-2.2584-.5218-4.3136-.1394-6.5799.1474-2.4854.3186-4.9748.5138-7.4681.7169-2.0752.1792-4.6402.0717-6.6158.7608-.7249.2549-1.2188.8723-1.88,1.2307-.9479.5218-2.0911.2947-3.1187.2708-1.7366-.0319-3.5329.7249-5.2576.2549-1.5414-.4142-.8006-1.6251.2071-2.107,1.1033-.5218,2.3022-.6213,3.4772-.8802,1.0555-.235,2.0353-.8643,2.9992-1.3383,1.2188-.6054,2.5929-.9479,3.8794-1.3781,6.6994-2.2464,13.2873-4.3096,20.1301-5.9665,3.6668-.9487,7.4045-1.5988,11.1763-1.9437,1.5255-.3664,3.1306-.3186,4.672-.5457.8125-.0319,1.6051-.1235,2.4137-.1235.9918-.3664,2.0433.0359,3.0151-.2509l.0003.0002Z" style="fill: #5b9a6d; fill-rule: evenodd;"/>
      <path id="path847" d="M246.8378,526.8406c1.2507,0,3.055.5895,2.0313,2.1309-.5935.9042-2.4456.7607-3.3776.7847-.7608.008-2.4814-.2271-1.5653-1.4299.6452-.8324,1.9357-1.2148,2.9116-1.4857h0ZM360.5365,539.4109c9.5433,0,18.9869.2469,28.5023.9719,4.3335.4262,8.3205.4899,12.3513,2.3261,2.7283,1.2387,6.0502.7767,8.9896,1.5175,1.1989.3027,6.4405,2.334,3.1904,3.7201-1.6968.7249-3.4692.7767-5.2814.6373-2.3579-.1792-4.449-.3186-6.7711.2111-1.7087.3904-3.8436.3266-5.1739,1.5852-1.6171,1.5334-3.5927,1.1272-5.6917,1.1352-1.1511,0-2.342-.0797-3.4891.0797-1.0555.1474-1.6968-.1952-2.7244-.2868-2.35-.2111-4.5008-.7488-6.8746-.7488-1.8879.008-3.7759.4581-5.6559.3744l-6.4604-.3664c-.8285-.0478-1.4617-.5377-2.2862-.5616-.9241-.0239-1.7047-.1235-2.5292.3585-1.2268.7169-3.4692.9878-4.8473.693-.7568-.1633-1.3025-.8165-2.0154-1.1272-.8603-.3744-1.8043-.2708-2.7084-.2031-1.88.1474-3.7838.1713-5.62.6612-.9758.4501-1.5733.693-2.6527.6771-1.1551-.0159-2.3101-.0558-3.4612-.0478-1.9119.0318-4.2777.4899-6.0183-.4501-.5536-.2948-1.3064-.9719-.8086-1.6649.4262-.5895,1.3861-.6612,1.9756-1.0435,1.0635-.6851,2.3818-1.2427,3.6763-1.2427.5178-.3266,1.1352-.5815,1.4259-1.1591.3306-.6532,0-1.4378.7926-1.7725,1.0635-.4421,2.4336-.1474,3.5369-.0398.6293.0638,1.1312-.0159,1.7565-.1394.8006-.3027,1.9357-.1155,2.4535-.8324.6492-.8962.8086-2.2384,2.1827-2.2384,1.7007-.1792,3.3776-.5377,5.0783-.6054.8603-.0398,1.7167-.1394,2.577-.1872.7846-.0518,1.8441.0159,2.581-.231Z" style="fill: #5b9a6d; fill-rule: evenodd;"/>
      <path id="path849" d="M290.5552,523.7816l-6.0462-1.175-2.9952,5.385-.7448-6.1139-6.0462-1.1829,5.5881-2.6089-.7448-6.1139,4.1981,4.5127,5.5842-2.5969-2.9912,5.389,4.198,4.5048ZM368.0524,508.69l-4.6442-4.0547-5.2855,3.1744,2.4137-5.6718-4.6442-4.0427,6.1338.5377,2.4177-5.6638,1.3781,5.9984,6.1338.5417-5.2855,3.1744,1.3821,6.0064ZM315.7318,514.1109l-5.7475-2.2066-3.8834,4.7836.3266-6.1537-5.7475-2.2185,5.9506-1.5852.3306-6.1537,3.3497,5.1739,5.9506-1.5892-3.8794,4.7836,3.3497,5.166ZM341.1951,509.2875l-5.2775-3.1744-4.6561,4.0308,1.3901-5.9984-5.2775-3.1784,6.1418-.5298,1.3901-6.0064,2.4017,5.6798,6.1378-.5298-4.6521,4.0388,2.4017,5.6678ZM395.2722,512.6571l-4.2777-4.4331-5.5403,2.7005,2.8996-5.4487-4.2777-4.4331,6.0701,1.0754,2.8956-5.4328.8523,6.1019,6.0661,1.0794-5.5403,2.6925.8523,6.0979ZM422.046,520.2328l-3.8755-4.7995-5.7554,2.2106,3.3617-5.1659-3.8675-4.7916,5.9426,1.5932,3.3696-5.158.3107,6.1537,5.9506,1.5972-5.7554,2.2066.3186,6.1537ZM446.5573,530.9869l-2.9793-5.393-6.0502,1.167,4.206-4.5048-2.9793-5.389,5.5802,2.6128,4.206-4.5048-.7608,6.1139,5.5842,2.6168-6.0502,1.163-.7568,6.1178ZM470.0212,543.8759l-2.4973-5.632-6.1378.6373,4.5884-4.1224-2.4973-5.632,5.3292,3.0868,4.5844-4.1145-1.2945,6.0223,5.3372,3.0868-6.1298.6373-1.2825,6.0304Z" style="fill: #fae540; fill-rule: evenodd;"/>
      <path id="path992" d="M221.1356,560.2419c.6452,0,1.41-.1553,2.0194.1315.7807.3664-.0797,1.3064-.4939,1.5773-1.6251,1.0555-3.8197-.6094-1.5255-1.7087ZM458.57,435.9127s-26.013,31.637-81.054,16.2904l.3744-6.7432s19.8433,5.9904,31.0714,2.9952c0,0-44.1754-22.8385-53.5355-55.4115,0,0,51.293,54.6627,71.1324,54.6627,0,0-10.4793-23.9617-10.4793-37.0698,0,0,.008-8.0576,7.5836-17.812l23.7426,44.1436,1.9915-2.2464-21.7432-46.4298c.0478-.0478.0916-.0956.1474-.1434l2.5531-2.7921,24.2883,36.6436.7488-4.4888-20.7634-36.8348,2.1468-2.342,20.3651,29.1914,2.7443-2.9952-19.1901-30.4938,3.0271-3.3059,16.4139,25.5589.7488-4.9907-14.0321-23.9976,7.1495-7.8186,3.2302,1.4857c-.0868.4973-.1338,1.0008-.1394,1.5056-.0036,7.943,9.5982,11.9228,15.2153,6.3082,5.6171-5.6146,1.6416-15.2182-6.3014-15.2182-2.2265,0-4.2538.8205-5.8192,2.1707l-44.5977-20.5323-4.4092-26.8773-4.8234-.5297v-19.9508h17.2145v-5.9904h-17.2145v-11.2321h-5.9944v11.2321h-17.6048v5.9904h17.5929v8.8104l-46.6967,10.0252-7.1853-3.3098c.004-.1434.0199-.2868.0199-.4342.0108-9.8765-13.653-12.4193-17.2098-3.2206s8.2633,16.5097,14.8997,9.1951l35.8151,16.4896h-13.4585l-8.6113-8.6113-17.8438-.8723s-21.3329,24.8141-20.3292,56.2678l-22.5517,14.8685-18.4891-21.6635-4.5565,3.8874,18.0071,21.1019-2.8996,1.9078,3.2979,5.0026,3.521-2.3221,29.3587,34.4091-24.6667-.7687,22.4641,34.0746s16.1391-4.3813,45.5536.4979v-4.3016h15.9758v7.6314c3.756.932,7.6633,2.0074,11.7339,3.2422v-10.8736h15.9758v12.9766h-9.3959c19.3773,6.4724,41.929,16.5374,67.2968,32.0114,0,0,11.9092-4.4888,9.0016-19.0347-4.4888-22.5039,5.6001-25.8895,5.6001-25.8895,0,0,16.4777-4.9947,18.3497-21.3369l-43.805-2.6208-.952.9281ZM465.9983,359.0607c4.5406,0,4.5406,6.8109,0,6.8109s-4.5406-6.8109,0-6.8109ZM337.5785,306.3457c-4.5406,0-4.5406-6.8109,0-6.8109s4.5406,6.8109,0,6.8109ZM403.7242,352.3573l5.7395,4.2419c-11.1126,11.1086-22.719,38.6869-22.719,38.6869-3.4891-28.2036,16.9795-42.9288,16.9795-42.9288ZM402.4735,404.2757c-3.744-14.9761,14.984-44.4303,14.984-44.4303l9.7305,1.2467c-19.222,30.203-24.7145,43.1836-24.7145,43.1836ZM438.3524,358.7859l-8.2209-10.3,22.731,10.4673-14.5101-.1673ZM430.1275,348.4859h-13.9246l-9.9177-9.9177h-12.5465l-9.607-11.256,45.9957,21.1737ZM384.0043,320.6527l7.8943-6.325,2.6925,5.6439-7.8903,1.9278-2.6965-1.2467ZM409.0176,332.1715l-2.5133-1.1591-3.3298-6.9742,4.3335-1.0595,1.5095,9.1928ZM405.9984,313.79l.5377,3.2581-5.9944,1.4657-2.816-5.8988,8.2727,1.175ZM397.2279,325.4921l.7647,1.6051-2.5412-1.171,1.7764-.4342ZM377.9183,317.8527l-15.1951-6.9941,32.6885-7.022-17.4933,14.0162ZM378.5118,339.8787l7.735,4.4888c-17.7203,22.7151-17.2225,45.9279-17.2225,45.9279-4.9907-2.2464-5.2416-13.7294-5.2416-13.7294.004-21.9623,14.7291-36.6874,14.7291-36.6874ZM352.8015,323.405l10.9811,3.744c-16.9716,21.2174-16.7246,46.6768-16.7246,46.6768-13.3192-24.368,5.7435-50.4208,5.7435-50.4208h0ZM348.6871,440.9711h-5.2416l-6.3648-11.2321-3.5648-.1075-32.4057-37.9819,19.202-12.662c2.2066,16.2108,10.8218,33.7719,31.3701,50.377l-2.9952,11.6065ZM439.4158,471.8553h-15.9798v-12.9766h15.9798v12.9766Z" style="fill: #5b9a6d; fill-rule: evenodd;"/>
    </g>
  </g>
</svg>