<?xml version="1.0" encoding="UTF-8"?>
<svg data-name="图层_1" xmlns="http://www.w3.org/2000/svg" version="1.1" viewBox="0 0 800 800">
  <!-- Created by @FCLOGO 2025-7-2 GMT+8 22:43:45 . https://fclogo.top/ -->
<!-- FOR PERSONAL USE ONLY NOT FOR COMMERCIAL USE -->
  <path d="M400.0054,750l-204.187-460.3131h109.5619c27.7017-14.512,72.3663-20.1594,94.5682-20.2096,22.3016.0463,66.9665,5.6976,94.6679,20.2096h109.5652l-204.1762,460.3131Z" style="fill: #dc2a1b;"/>
  <path d="M400.0022,696.688l-29.3949-66.2758v-333.2367c12.2106-1.744,23.1004-2.5925,29.4416-2.6153,6.1673.0229,16.694.8344,28.5631,2.5011v335.1162l-28.6097,64.5106Z" style="fill: #fff;"/>
  <polygon points="311.9445 498.1464 253.9349 367.3616 253.9349 311.315 311.9445 311.315 311.9445 498.1464" style="fill: #fff;"/>
  <polygon points="487.2782 311.315 545.2843 311.315 545.2843 369.1192 487.2782 499.9066 487.2782 311.315" style="fill: #fff;"/>
  <path d="M477.1076,482.2565h0c-6.2848,3.0585-13.184,5.6685-20.4217,7.7362l.021,1.7651c0,35.7078-28.712,58.8695-59.3375,58.8695-18.3203,0-40.1972-7.7197-53.8703-23.4846l11.7583-18.6572c11.211,9.3305,23.5162,19.6231,41.5656,19.6231,17.8884,0,31.8466-10.7027,33.2411-33.2026-3.7623.325-7.5258.4972-11.2615.4972-47.2532,0-97.4587-22.3734-97.4587-61.229,0-20.0826,13.4116-35.7631,32.8941-46.2242-1.2713-5.09-1.9857-10.7574-1.9857-17.1505,0-30.2407,24.8811-53.0791,54.6855-53.0791,19.9614,0,36.6417,8.3643,47.3062,22.5166l-12.579,16.0848c-9.2962-8.0429-21.6013-16.0848-33.0848-16.0848-19.1421,0-29.8065,13.1901-29.8065,30.5625,0,2.508.2881,4.9101.8618,7.2649,12.5123-3.3672,25.9544-5.119,39.1672-5.119,19.9954,0,39.8498,5.6134,56.8761,13.1809l-8.1995,18.5545c-11.3359-6.1417-28.7991-10.616-48.6766-10.616-10.4772,0-19.7363,1.1964-27.8016,3.2385,5.869,6.5361,13.8912,13.6829,24.1391,22.393,18.6884,16.0311,31.8315,31.0788,37.8533,48.8659l1.2915-.3755.0098-29.3379h22.813v43.4078ZM364.5805,409.4146c-10.4436,7.8539-15.5416,17.3005-15.5416,24.7596,0,15.6623,22.4838,40.2046,69.7637,40.2046,2.6426,0,5.2249-.1252,7.7474-.3466-8.2165-18.9645-28.4626-32.5001-40.6671-43.0738-7.3414-6.7041-15.095-13.2682-21.3024-21.5438Z" style="fill: #deb500;"/>
  <path d="M400.1499,259.4593c-43.8299,0-77.937,9.4674-99.7021,21.967l-12.4995-21.6682c29.3284-16.3624,71.0818-25.3571,112.2015-25.381,41.1196.0239,82.8734,9.0185,112.2014,25.381l-12.4997,21.6682c-21.7658-12.4997-55.8733-21.967-99.6548-21.967h-.0469Z" style="fill: #deb500;"/>
  <path d="M266.9472,211.8873c-7.3113-.687-14.937-7.4988-14.937-24.0967,0-20.672,16.7565-37.4309,37.4274-37.4309,3.6723,0,7.2166.5301,10.5638,1.5163,4.846-13.5021,16.5769-23.7277,31.0424-26.371,10.1042-1.8107,20.2761-3.219,30.4411-4.2283.5364-7.4482,6.7505-13.3281,14.3366-13.3281h14.8735c-5.9451-3.2527-9.9802-9.5675-9.9802-16.822,0-9.2358,6.5298-16.9422,15.5586-18.7806v-7.6362h-7.2082v-7.214h7.2082v-7.4957h7.5546v7.4957h7.2043v7.214h-7.2043v7.6362c9.0244,1.8384,15.5584,9.5449,15.5584,18.7806,0,7.2545-4.0344,13.5694-9.9815,16.822h14.8707c7.5896,0,13.8036,5.8798,14.3402,13.3281,10.1615,1.0093,20.3376,2.4176,30.438,4.2283,14.4686,2.6433,26.1994,12.8689,31.0438,26.371,3.3455-.9862,6.894-1.5163,10.5631-1.5163,20.6724,0,37.4312,16.7589,37.4312,37.4309,0,16.5979-7.627,23.4097-14.9391,24.0967,1.6849.4863,3.2779,1.1268,4.7406,1.8577,8.074,4.3594,13.0286,12.6839,13.0286,21.8629,0,16.7179-25.0822,16.7179-25.0822,0-4.9579,8.0183-16.3269,17.634-33.8585,11.4158-7.875-2.7934-15.1995-7.7701-21.8808-15.4298-23.9653,5.8016-46.6362,3.273-70.0483-12.7781-23.4089,16.0511-46.0901,18.5797-70.0519,12.7781-6.6845,7.6597-14.0054,12.6364-21.8801,15.4298-17.5336,6.2181-28.9053-3.3975-33.8604-11.4158,0,16.7179-25.0808,16.7179-25.0808,0,0-9.179,4.9512-17.5035,13.0263-21.8629,1.4651-.7309,3.0564-1.3714,4.7416-1.8577" style="fill: #deb500;"/>
  <path d="M400.2869,159.3716h-.4722c-5.4774.0638-11.2626,2.4512-14.8915,7.2131-5.1408-3.9366-8.6921-10.2417-8.6921-18.9139l.3793-2.4719c-13.7005.8849-27.4699,2.5448-41.1238,4.9901-7.2804,1.3518-12.8012,7.761-12.8012,15.5346,0,2.0551.3898,3.9973,1.084,5.7685.8989,2.2833,1.1463,4.4603.8989,6.4488-7.6201-2.4648-16.6516.4053-21.5783,6.7514-.6671-.6879-1.2981-1.4729-1.8807-2.3612-2.0769-4.4573-6.5807-7.5093-11.7716-7.5093-7.1602,0-12.9678,5.8052-12.9678,12.9688,0,2.338.6094,4.501,1.6691,6.3731,4.4229,7.8098.9525,14.2561-4.7321,16.7141l.5062-.0067c8.5081,0,16.6344,4.4705,21.1109,11.7183.1479.0634,1.6235,1.3244,2.0526,1.334,1.9695.0405,3.9345-.5767,5.8486-1.6495-.3042-.2553-.4624-.4028-.4456-.4095-12.8681-5.7716-7.5829-22.9525,3.5419-24.0898-2.4614-14.1657,18.4115-20.4546,23.975-6.7542,8.1201-1.7708,17.6739,5.2887,15.2928,15.0413-.2208.9153-.5496,1.8545-.9921,2.8107,12.2407,1.573,23.7609-.3426,35.6938-7.0396-1.2818-1.2881-2.569-2.6227-3.8601-3.9977-9.3404-9.964,1.1533-23.2315,11.5468-21.1146.6703-7.231,6.3075-10.9261,12.0728-11.0778,6.2378.0677,11.9928,3.7591,12.6726,11.0778,10.3899-2.1168,20.884,11.1507,11.5444,21.1146-1.2912,1.375-2.575,2.7096-3.8599,3.9977,11.9356,6.697,23.4531,8.6126,35.6959,7.0396-.4414-.9561-.7706-1.8953-.9957-2.8107-2.3811-9.7526,7.177-16.8121,15.2928-15.0413,5.5671-13.7005,26.4415-7.4116,23.9793,6.7542,11.1212,1.1373,16.4059,18.3182,3.5412,24.0898.0132.0066-.1431.1542-.4492.4095,1.9156,1.0728,3.8834,1.69,5.8522,1.6495.427-.0095,1.9022-1.2705,2.0495-1.334,4.481-7.2478,12.6038-11.7183,21.1119-11.7183l.5097.0067c-5.6852-2.4579-9.1555-8.9042-4.7321-16.7141,1.0595-1.8721,1.6653-4.0351,1.6653-6.3731,0-7.1636-5.8044-12.9688-12.9678-12.9688-5.1913,0-9.6923,3.0521-11.7677,7.5093-.5868.8883-1.2187,1.6733-1.8841,2.3612-4.9234-6.3462-13.9594-9.2163-21.5761-6.7514-.2507-1.9884,0-4.1655.896-6.4488.6977-1.7711,1.0826-3.7133,1.0826-5.7685,0-7.7736-5.5156-14.1828-12.7974-15.5346-13.6517-2.4453-27.4258-4.1053-41.1232-4.9901l.3801,2.4719c0,8.6722-3.5527,14.9773-8.6984,18.9139-3.627-4.7619-9.4115-7.1493-14.8858-7.2131" style="fill: #dc2a1b;"/>
</svg>