<?xml version="1.0" encoding="UTF-8"?>
<svg data-name="图层_1" xmlns="http://www.w3.org/2000/svg" version="1.1" viewBox="0 0 800 800">
  <!-- Created by @FCLOGO 2025-3-11 GMT+8 14:45:57 . https://fclogo.top/ -->
<!-- FOR PERSONAL USE ONLY NOT FOR COMMERCIAL USE -->
  <path d="M514.0348,171.328h0c4.227-1.1178,7.5538-2.9523,9.618-4.312.5314,1.4551,1.308,3.3584,2.3509,5.3713.6168,1.1734,1.3288,2.3938,2.1381,3.591-3.8628-1.366-8.5847-2.9589-14.1069-4.6503M471.9139,161.1723h0c4.3427-1.8801,7.5594-4.6503,9.5723-6.7684.8031,2.3767,1.9083,4.9943,3.716,7.5159.5678.7937,1.2248,1.5665,1.9426,2.3221-4.7871-1.0693-9.8685-2.101-15.2309-3.0695ZM431.1831,156.0067h0c.7844-.4928,1.5307-1.0197,2.2102-1.604,1.9919-1.7044,3.5375-3.7167,4.8024-5.8701.9685,2.9897,2.2499,5.6159,4.3313,7.8451.2352.253.4993.4816.754.7198-3.929-.414-7.9625-.7804-12.098-1.0908ZM412.1221,76.8635h0c.7293-.1394,1.388-.2052,1.9766-.2046,1.9392.0316,3.0172.5924,3.8815,1.6701.8565,1.0959,1.4601,3.0128,1.4547,5.7726-.0024,8.0898-2.6739,14.316-5.3533,18.5533-.6663,1.0529-1.3327,1.9804-1.9594,2.7791v-28.5705ZM400.0033,154.8332h0c-2.4164,0-4.8042.021-7.1649.0606.645-.5942,1.2629-1.222,1.8356-1.9055,2.0989-2.4933,3.8158-5.5217,5.3272-8.8783,1.5124,3.3566,3.2282,6.385,5.3266,8.8783.5738.6835,1.1927,1.3113,1.8381,1.9055-2.3617-.0396-4.7506-.0606-7.1626-.0606ZM398.8442,88.0524h0c.3549-1.4925.786-2.666,1.1531-3.3345.4305.8302,1.0576,2.4633,1.4175,4.5147.6014,2.9984.9767,6.9621.9757,11.2882h.0009c0,4.9176-.4882,9.3762-1.2351,12.4677-.3527,1.4916-.7821,2.6639-1.1531,3.3336-.4293-.8302-1.0578-2.4633-1.4192-4.5153-.6003-2.9956-.9745-6.9637-.9745-11.286-.0016-4.9182.4872-9.3767,1.2347-12.4684ZM387.8779,105.4346h0c-3.1226-3.9938-7.3259-11.2492-7.3136-21.333-.0039-2.7586.5991-4.6746,1.4556-5.7732.8632-1.077,1.9347-1.6379,3.8815-1.6695h.0198c.5835,0,1.2369.0657,1.9567.2046v28.5711ZM356.7183,157.0975h0c.2542-.2382.5194-.4668.7568-.7198,2.0802-2.2292,3.3629-4.8554,4.3291-7.8451,1.2639,2.1525,2.8132,4.1658,4.804,5.8701.6807.5843,1.427,1.1112,2.2114,1.604-4.1366.3103-8.1696.6768-12.1013,1.0908ZM312.858,164.2414h0c.7177-.7552,1.3736-1.5291,1.9407-2.3216,1.8085-2.5212,2.913-5.1386,3.7151-7.5137,2.0129,2.1182,5.2296,4.8874,9.5723,6.7675-5.3614.9674-10.4421,1.999-15.2281,3.0679ZM271.8606,175.9772h0c.8058-1.1961,1.5217-2.4164,2.1379-3.5898,1.0418-2.0129,1.819-3.9173,2.3487-5.3719,2.064,1.3594,5.3939,3.1947,9.6225,4.3126-5.5267,1.6914-10.2459,3.2843-14.1091,4.6492ZM539.2099,216.3474l4.6029-2.1348c.883-.4078,1.3444-1.3823,1.1035-2.3209l-3.2702-12.7324c4.6696-.1895,8.2601-4.1591,8.2717-8.9038.0628-2.1483-.5656-4.5136-2.5365-6.1566-.2833-.242-.5927-.4729-.9133-.7001,4.3234-1.2874,8.4534-3.9949,12.2113-7.0258,4.7017-3.8302,8.786-8.2639,11.5869-11.4816.7955.1664,1.6194.2556,2.4666.2568,6.6292-.0039,12.0025-5.3752,12.0048-12.0097,0-2.605-.8394-5.012-2.2499-6.9798.3341-.5075.765-1.1519,1.2892-1.9164,1.9579-2.8436,5.1271-7.1797,8.6211-10.9805,3.4613-3.8137,7.3918-7.0228,10.1774-7.7205.779-.2099,1.3576-.8632,1.4678-1.6625.1103-.7986-.2656-1.5878-.9569-2.0036-.1653-.0776-7.5236-4.5395-16.9951-4.5632-5.9722-.0094-11.5926,2.1849-15.6295,6.6131-2.1689,2.3697-3.8417,5.3625-4.9467,8.899-1.7335-.883-4.2607-1.8266-7.2404-1.8515-4.3841.0348-7.9013,3.0045-10.3072,6.7696-2.4214,3.8142-3.8698,8.6398-3.883,13.3447-.0078,2.4704.7991,4.8659,2.548,6.586,1.7395,1.7224,4.276,2.6336,7.2652,2.6336h.0379c1.5589-.0012,3.2642-.2409,5.1157-.7204-2.907,2.9868-7.6637,6.6963-12.3792,6.607-3.6983-.1014-5.3221-1.0011-6.9078-3.7978-1.4222-2.6411-2.3013-7.2804-2.7036-14.0535,5.1629-1.3436,8.9814-6.0228,8.9832-11.6068-.0017-6.634-5.3774-12.0074-12.0087-12.0098-6.6323.0024-12.0103,5.378-12.0103,12.0098,0,3.3127,1.3405,6.3098,3.5111,8.4822-2.8138,3.0695-10.0773,9.7289-17.7446,9.6177-3.8893.0021-7.1301-2.3239-9.8249-6.159-1.3652-1.949-2.5179-4.2583-3.4427-6.6831,2.3867,1.5532,5.5256,2.8369,9.439,2.8738.0364.0012.0722.0012.1048.0012,5.3399,0,9.8076-1.9828,12.9942-5.5702,3.9739-4.5148,7.1262-12.5907,7.1813-19.6453.0171-2.3867-.4612-4.9397-2.5348-6.7135-2.0603-1.7268-4.9733-2.3551-9.2246-2.3694-1.4072,0-2.9852.0817-4.7396.2343,4.3046-5.4982,8.5448-12.3955,8.5978-19.4594-.0397-4.6729-3.479-8.372-8.2033-10.859-4.7754-2.5111-11.1465-3.9805-18.1625-3.9884-3.0211-.0059-6.4317.7965-9.0576,3.4103-2.6264,2.6158-4.1928,6.7828-4.185,12.8034.0015,3.3681.4993,7.3846,1.5665,12.1352-1.1642-.8901-2.3773-1.7031-3.5926-2.4208-3.4961-2.0167-6.7789-3.3306-9.4163-3.3798-1.7395-.0021-3.3044.7993-4.5197,1.953-3.5866,3.4927-5.5009,10.1852-5.5577,17.9954.0055,4.4292,1.4508,9.0511,4.4563,12.6712,2.9791,3.6119,7.6185,6.1268,13.5052,6.1268h.0622c1.0047,0,2.0432-.0776,3.1124-.222-3.4729,3.0556-8.507,6.3754-13.6852,6.2879-4.9161-.0225-8.3228-1.6123-11.118-4.4889-2.4665-2.5519-4.3847-6.2481-5.8485-10.7999,4.1871-1.875,7.1073-6.0679,7.1096-10.9531-.0023-6.6323-5.3795-12.0091-12.007-12.0091-6.6347,0-12.0064,5.3768-12.0087,12.0091,0,3.9058,1.8725,7.365,4.7606,9.5575-2.3905,2.9434-8.104,8.6806-14.8377,8.5715-1.5534-.0287-2.605-.6411-3.5756-2.0456-.9413-1.4039-1.5719-3.6703-1.568-6.4746-.0023-1.7136.2259-3.6202.7175-5.636,2.4362-2.8061,16.7081-19.6573,16.8051-38.6383.0379-6.6843-2.7213-11.7672-7.113-14.8286-3.7658-2.6451-8.5433-3.9135-13.7365-4.2208.2959-1.4558.438-2.7763.438-3.9867.0535-3.9185-1.6667-6.7741-3.9717-8.2045-2.2715-1.4447-4.7954-1.6993-6.7074-1.7097-1.9192.0104-4.4425.265-6.7156,1.7118-2.3045,1.4282-4.0227,4.2866-3.9725,8.2023.0012,1.2104.1424,2.5299.4416,3.9867-5.1944.3074-9.9721,1.5757-13.7344,4.2208-4.3935,3.0613-7.1543,8.1443-7.1124,14.8286.0947,18.9721,14.3545,35.8164,16.7956,38.6335.4927,2.0206.7225,3.926.7225,5.6408.0045,2.8043-.6288,5.0707-1.5674,6.4746-.9724,1.4045-2.0224,2.0168-3.5739,2.0456-4.5269.0154-8.5604-2.4391-11.4833-5.0537-1.4243-1.2718-2.5624-2.5521-3.3468-3.5227,2.8833-2.1933,4.754-5.6501,4.754-9.5527,0-6.6323-5.3752-12.007-12.0097-12.0103-6.6296.0033-12.0055,5.378-12.0055,12.0103,0,4.8852,2.9214,9.0781,7.107,10.9549-1.4666,4.5478-3.3814,8.2462-5.8452,10.7981-2.7991,2.8739-6.2087,4.464-11.1219,4.4899-4.7577.0249-9.4041-2.6792-12.8287-5.5435-.2993-.2499-.5777-.4979-.8577-.7453,1.0704.1432,2.1105.2199,3.1136.2199h.0712c5.8806,0,10.5186-2.5167,13.4962-6.1247,3.0079-3.6213,4.4508-8.2441,4.4563-12.6697-.0055-5.2074-.9304-9.9223-2.5377-13.5132-.8118-1.7952-1.7924-3.3232-3.0193-4.4837-1.2143-1.1527-2.778-1.9568-4.5164-1.9541-2.639.0502-5.9224,1.3653-9.4181,3.3808-1.2153.7199-2.4306,1.5324-3.5986,2.4247,1.0692-4.754,1.5649-8.771,1.5686-12.1403.0072-6.0212-1.5598-10.1876-4.1862-12.8022-2.6231-2.6138-6.0354-3.4168-9.0547-3.4086-7.016.005-13.3844,1.4771-18.1627,3.9867-4.7225,2.486-8.1624,6.1861-8.2033,10.859.0564,7.0639,4.2943,13.9597,8.6007,19.4594-1.7533-.1526-3.3363-.2332-4.7423-.2332-4.2484.0121-7.1643.6427-9.2247,2.3678-2.0736,1.7733-2.5492,4.3274-2.5348,6.7141.055,7.0546,3.2089,15.1323,7.1836,19.6441,3.1841,3.586,7.6505,5.5702,12.9841,5.5702h.1114c3.9155-.0381,7.0523-1.3216,9.4428-2.8738-.9275,2.4247-2.0811,4.7341-3.4442,6.6831-2.696,3.8341-5.9364,6.1611-9.8237,6.159-4.9706.0231-9.7748-2.6651-13.3117-5.4953-1.7638-1.4046-3.2062-2.8226-4.1946-3.8793-.0892-.092-.1526-.1664-.2302-.2523,2.1616-2.1729,3.5004-5.1664,3.5004-8.474-.001-6.6319-5.3739-12.0058-12.0068-12.0087-6.6358.003-12.0081,5.3768-12.0081,12.0087,0,5.5845,3.8164,10.2637,8.9826,11.6078-.4035,6.7731-1.2831,11.4124-2.7063,14.0535-1.5835,2.7991-3.2116,3.6941-6.908,3.7962-3.872.0292-7.7671-2.368-10.6504-4.9574-.6224-.5558-1.1851-1.1095-1.7028-1.6425,1.841.4757,3.5375.7133,5.0892.7148h.0379c2.9886,0,5.524-.9112,7.2662-2.6336,1.749-1.7212,2.5537-4.114,2.5461-6.5872-.0099-4.7053-1.4618-9.5305-3.8804-13.3413-2.4037-3.7668-5.9247-6.7371-10.3083-6.7719-2.9803.0249-5.509.9695-7.2446,1.8525-1.1025-3.5364-2.7765-6.5302-4.9447-8.8999-4.0375-4.427-9.6555-6.624-15.6233-6.6135-9.472.0242-16.8337,4.4876-16.998,4.5649-.6889.4155-1.0687,1.2038-.9574,2.0024.112.7971.6901,1.4525,1.4667,1.6625,3.7635.9134,9.3548,6.365,13.5322,11.6237,2.121,2.6242,3.963,5.18,5.2687,7.0763.5248.7643.9569,1.4087,1.2892,1.9158-1.4099,1.9694-2.2509,4.3763-2.2509,6.9823.0027,6.6319,5.3735,12.0064,12.0085,12.0091.8451,0,1.6691-.0898,2.4632-.2562,2.8012,3.2157,6.8849,7.6489,11.587,11.4779,3.7563,3.0337,7.8886,5.7422,12.2098,7.0286-.3208.2272-.6273.4581-.9094.7001-1.9726,1.643-2.6011,4.0083-2.5404,6.1566.0117,4.7435,3.6048,8.7131,8.2717,8.9038l-3.2692,12.7324c-.2419.9386.2223,1.9131,1.1025,2.3233l4.6023,2.1324h-88.5707l227.7812,533.6526,227.7811-533.6526h-88.5712Z" style="fill: #312b25;"/>
  <polygon points="399.9961 587.5761 265.8455 273.2735 263.9743 268.8899 400 268.8899 400 222.6468 181.7554 222.6468 400 733.953 400 587.5665 399.9961 587.5761" style="fill: #f8e300;"/>
  <polygon points="400 222.6468 400 268.8899 536.0197 268.8899 400 587.5665 400 733.953 618.2435 222.6468 400 222.6468" style="fill: #0051bb;"/>
  <path d="M388.2526,434.4013h0l-4.1543-4.1432c-2.4125-.4503-.8972-5.9191-4.1889-4.4034,0,1.1128-.8632,2.2141,0,3.0894-1.0891,2.6165-2.1788,5.4573-2.1788,8.108,3.9552,2.1898,2.1788,8.0741,3.7188,11.3764,1.7518.2127,3.2906-1.3273,4.8162-1.3273,3.2906-2.176,4.8174-4.1549,3.9305-8.3075-.6399-1.54-.6399-3.7067-1.9434-4.3923M424.6109,344.4246h0c1.4358-1.5979,3.5241-4.8891,5.4913-6.3585v-.938c-2.337.2337-4.6915.4387-7.0292.6162.6648,2.1848,1.0539,4.4442,1.5379,6.6803ZM472.6244,285.7038h0c0,4.1685-3.3765,7.5441-7.5447,7.5441-.8908,0-1.7317-.2001-2.4891-.5491v13.7566c.5011.0754.9777.1929,1.422.3581.786.2998,1.4833.7253,1.9921,1.3852.3338.436.5732,1.0119.5732,1.6332,0,.022-.0018.0436-.0018.0644-.0153,1.4243-.4122,2.6633-.8124,3.7045-.4122,1.0539-.8223,1.9429-.9574,2.5453-.6267,2.7102-.7502,4.3742-.7613,5.432-.0021.0286-.0021.0722,0,.1301,0,1.1314.1214,1.7439.2697,2.5695.146.819.3113,1.8177.3092,3.3445,0,.7177-.3302,1.333-.7309,1.786-.3588.4095-.7976.7424-1.3024,1.0549v17.9377c2.0448,3.512,3.3077,7.5738,2.7306,11.642-.4389,3.0828-1.9011,5.9065-2.3989,8.9744-.5164,3.205,1.2137,4.4458,1.9392,7.2238.6171,2.368.2391,5.4606,3.0364,3.0343.0187-.0161,2.7039-.1202,3.3627-.2532,1.8801-.383,6.2967-5.229,6.6461-1.2489.15,1.6989-.8015,2.5266.6267,3.822.5904.5339,1.2573.9711,1.9516,1.3652l45.9985-107.7717h-57.5909l-1.9291,3.2041c3.2564.8367,5.6607,3.7899,5.6607,7.3109ZM416.2918,355.1506h0c.1429.8743.2833,1.7516.4256,2.6258.619-.9578.4955-1.9516-.4256-2.6258ZM441.8415,451.9128h0c-.6819-.8245-.2866-2.0399-.484-3.0612-8.6227-.8583-11.2553-3.779-11.2553-3.779v-20.1505c-.9545-.3302-1.8095-.1463-2.2382,1.0257-1.3102,3.5679-2.8315,7.0998-5.1007,10.1759-1.6022,2.1739-2.3376,2.848.6117,4.1317,1.2419.5412,2.5972.8433,3.7333,1.6083,2.2079,1.4871.7269,1.4375-.0497,3.0685-.5109,1.0714.2431,2.3133.6305,3.2816-4.2589,1.1167-8.503-.8586-12.7037-1.3123,2.4043,2.6375,5.5847,4.432,7.9431,7.1151,2.0603,2.3392-4.9391,4.3313-6.8853,4.2613-2.0279-.0722-3.6385.7424-5.3492-.7922-1.1504-1.0344-2.2692-2.645-3.9834-2.6543-2.3338-.0117-4.4828.281-4.2547-3.0118.1235-1.7509,1.178-3.8263.7054-5.569-2.3022-2.2124-2.1202,2.757-2.1292,3.5772-.0192,1.7263-.9407,2.5861-2.3744,3.1731-3.6231,1.485-7.2442,2.9676-10.8666,4.4508-2.4154.9893-4.3598-.4692-6.7713-1.384-2.5581-.9668-1.9462-.4993-4.4464.8598-1.8662,1.0158-6.4153,2.9775-8.5042,2.2956-2.2052-.7193-3.7541-3.2432-6.3033-1.821-1.5444-2.1799,1.6292-4.1411,2.4253-5.8938-2.1144-.0799-4.2459-.0799-6.3558-.2376-2.2416.9987-6.139-2.2064-4.088,2.2692-.6152,0-2.4362.194-4.0182.2145l50.2701,117.7745,50.4001-118.086c-.6267.118-1.3117.0591-2.2025.097,2.3981-7.2761-4.4018.7387-6.3556-1.6271ZM382.0199,345.4046h0c-.3296-1.3648-.0225-4.8141-1.6452-4.6873-2.5305,4.6509-4.5292,9.5585-6.713,14.3848v24.5921c.0507-.0055.1066-.0132.155-.0171,3.0695-.2581,6.8816-1.6794,9.8612-.4387-.8472-.8571,1.4115-4.1026,1.4562-4.9513.0827-1.6073-2.0498-3.3441-1.0076-4.9082-.749-2.7234.8896-5.1101,1.7975-7.5492.8256-2.2136-.393-5.0112-1.0656-7.1752-.9569-3.0806-2.0829-6.1104-2.8385-9.25ZM332.4306,371.1889h0c1.5256-.3671,2.0841-1.6183,3.6779-2.0516,1.1377-.3115,2.3178-.4023,3.4697-.645.5335-.113,1.0661-.2502,1.5958-.3935v-29.0065c-.5732-.3207-1.0064-.7502-1.2732-1.1706-.5495-.8262-.6411-1.5505-.6609-1.6635l-.0132-.0882v-.0866c-.0017-2.3013.36-3.828.6796-5.2947.3191-1.4743.6185-2.9415.6212-5.5541,0-7.7866-.4338-9.3553-.4338-11.0651,0-1.708,1.0803-5.4429,1.0803-5.4456v-16.0252c-.7585.349-1.5991.5491-2.4863.5491-4.1714,0-7.5474-3.3755-7.5474-7.5441,0-3.521,2.4047-6.4742,5.6634-7.3109l-1.9303-3.2041h-61.3604l47.6244,111.5799c.8938-2.8667,2.1517-5.6833,3.3131-8.4018,1.5857-3.72,4.0285-6.2246,7.98-7.178ZM383.6954,285.7038h0c0,4.1685-3.3771,7.5441-7.5439,7.5441-.8919,0-1.7319-.2001-2.4898-.5491v29.625c.2691.0396.5479.0751.8213.1124.2794-2.2207,1.1113-4.2947,2.6853-6.1865,2.7257-3.2735,7.2823-3.6201,11.1131-4.674,4.7907-2.1485,2.2151-8.617.9353-11.8763-1.6178-4.1183-2.0553-10.495,1.6016-13.4896,4.4157-3.6163,7.1496-3.8274,12.7231-3.1224,4.9935.63,7.1356,6.4918,8.2616,10.8053,1.0521,4.0396-2.4059,7.3611-4.4089,10.4372-.9094,1.3961-1.7319,2.9802-1.6806,4.695.0833,2.9317,1.5647,2.3308,3.8434,2.9542,2.0961.5749,5.3222,1.3796,6.9988,2.7621,1.6278,1.3454,2.5542,3.3203,4.1168,4.7291.1616.2689.3268.5792.4861.904,3.1127-.2166,6.1011-.4928,8.9435-.8187v-26.8569c-.7574.349-1.5968.5491-2.4874.5491-4.1714,0-7.5458-3.3755-7.5458-7.5441,0-3.521,2.4037-6.4742,5.6601-7.3109l-1.9291-3.2041h-43.8378l-1.9275,3.2041c3.256.8367,5.6607,3.7899,5.6607,7.3109ZM474.6427,396.6475l-10.7512,25.1929c-.0099-2.1457-.0592-4.2976-.0745-6.4659-.0225-3.7045.862-5.4059,2.7609-8.826,2.4196-4.3616,3.1257-9.2544,8.0648-9.9009Z" style="fill: #fefefe;"/>
  <path d="M338.6876,289.8311h0c1.4037-.0023,2.5371-1.1359,2.5399-2.5422,0-.7638-.5479-1.3928-1.2705-1.5272.1042.2683.162.5523.162.8251,0,.9448-.6652,1.7401-2.0069,1.7401-1.1558,0-2.0108-1.3421-2.0108-2.4417.0056-1.9711,1.5997-3.5657,3.5718-3.569,1.5665,0,2.9631.727,3.8764,1.8608h27.7387c.9106-1.1338,2.3079-1.8608,3.8755-1.8608,1.9682.0033,3.5607,1.5929,3.5689,3.5624,0,.0027.0021.0043.0021.0066,0,1.0996-.8548,2.4405-2.009,2.4405-1.3427,0-2.009-.7941-2.009-1.7389,0-.2728.0579-.5567.1625-.8251-.7247.1344-1.2705.7634-1.2705,1.5272.0005,1.4062,1.1355,2.5399,2.5427,2.5422,2.2824-.0027,4.1244-1.8449,4.1277-4.1273-.0033-2.2847-1.8453-4.1261-4.1277-4.13h-37.4639c-2.2853.0039-4.1263,1.8453-4.13,4.13.0037,2.2824,1.8447,4.1245,4.13,4.1273M368.8223,288.0165h0c.113-.0667.2905-.2286.5606-.4227h-2.1315c.431.3152.6168.4783.7117.5083.0717.0291.119.0566.356.0617.3517-.022.2955-.0277.5032-.1472ZM361.5545,288.0165h0c.113-.0667.2915-.2286.5604-.4227h-2.1319c.4316.3152.6183.4783.7121.5083.0711.0291.1207.0566.3562.0617.3515-.022.2953-.0277.5032-.1472ZM354.2866,288.0165h0c.1151-.0667.2926-.2286.5612-.4227h-2.1327c.431.3152.6173.4783.7111.5083.0727.0291.1219.0566.3593.0617.3495-.022.2922-.0277.5011-.1472ZM347.0198,288.0165h0c.1142-.0667.2917-.2286.56-.4227h-2.1324c.4309.3152.6189.4783.7114.5083.0723.0291.1214.0566.3589.0617.35-.022.2942-.0277.5021-.1472ZM374.1882,278.1564h0l.7596-1.2594h-35.0592l.7595,1.2594h33.5401ZM427.6149,289.8311h0c1.4055-.0023,2.5393-1.1359,2.5408-2.5422,0-.7638-.5468-1.3928-1.2705-1.5272.1048.2683.1631.5523.1631.8251,0,.9448-.664,1.7401-2.009,1.7401-1.1558,0-2.0084-1.3421-2.0084-2.4417.0015-1.9711,1.5968-3.5657,3.5715-3.569,1.5665,0,2.9622.727,3.8755,1.8608h27.7409c.9096-1.1338,2.3052-1.8608,3.8755-1.8608,1.9672.0033,3.5584,1.5929,3.5661,3.5624v.0066c0,1.0996-.8527,2.4405-2.0069,2.4405-1.3411,0-2.009-.7941-2.009-1.7389,0-.2728.0583-.5567.1631-.8251-.7231.1344-1.2705.7634-1.2705,1.5272,0,1.4062,1.1354,2.5399,2.5425,2.5422,2.2808-.0027,4.1222-1.8449,4.1261-4.1273-.0039-2.2847-1.8453-4.1261-4.1261-4.13h-37.4649c-2.2859.0039-4.1263,1.8453-4.1279,4.13.0015,2.2824,1.842,4.1245,4.1279,4.1273ZM457.7523,288.0165h0c.1097-.0667.2884-.2286.56-.4227h-2.134c.4326.3152.6168.4783.712.5083.0716.0291.1214.0566.3566.0617.3515-.022.2944-.0277.5053-.1472ZM450.4834,288.0165h0c.1118-.0667.292-.2286.56-.4227h-2.1325c.4309.3152.6195.4783.7142.5083.07.0291.1174.0566.355.0617.3512-.022.296-.0277.5033-.1472ZM443.216,288.0165h0c.1142-.0667.2911-.2286.5606-.4227h-2.1324c.4309.3152.615.4783.712.5083.0722.0291.1214.0566.3566.0617.3518-.022.2926-.0277.5032-.1472ZM435.9476,288.0165h0c.1119-.0667.2905-.2286.56-.4227h-2.1304c.4311.3152.6168.4783.7076.5083.0745.0291.1235.0566.3595.0617.351-.022.2959-.0277.5032-.1472ZM463.1182,278.1564h0l.7577-1.2594h-35.059l.7579,1.2594h33.5433ZM423.1111,328.7776h0c-.9895,2.9538-1.1151,4.7484-.7898,6.413,10.2729-.7606,21.0242-2.1083,28.8401-3.7613,4.0826-.8586,7.3786-1.8216,9.2641-2.7415.9895-.4554,1.5229-.9706,1.5974-1.1008-.0061-1.3378-.1289-2.0582-.2717-2.8513-.1445-.7941-.3131-1.6942-.3098-3.0275,0-.0487-.0018-.112,0-.1737.0136-1.2336.1653-3.1142.8301-5.9764.1196-.4939.2866-.962.4651-1.4204-.3759.2094-.7766.4178-1.2077.6273-2.941,1.4241-7.1206,2.8502-12.4039,4.1414-7.1929,1.7545-16.4191,3.2492-27.1859,4.0237-.1686,1.976,1.3957,3.8891,1.1719,5.8475ZM342.4091,331.5313h0c.5164.1515,1.2032.35,2.0488.5808,2.052.5624,5.0334,1.3092,8.7141,2.0588,4.34.8836,9.6633,1.7626,15.5974,2.338.2034-.7424.334-1.4529.431-2.2968.393-3.4773,5.7317-4.1877,5.2903-7.9909-.0459-.3935-.076-.7805-.0949-1.1663-15.9942-2.2108-27.191-6.7372-31.5689-8.744.1289,1.5494.3047,3.9735.3037,8.9237.0049,2.8109-.3484,4.6001-.6796,6.1087-.0155.0634-.0276.124-.042.188ZM351.0528,369.165h0c3.9774.4834,4.8895-.2166,6.1457-4.151.9685-3.0316,1.8064-6.1026,2.6683-9.164.765-2.7174,1.2038-5.9246,3.1053-8.1012,1.3432-1.5396,3.0878-2.7537,4.1747-4.5066.8163-1.3117.7925-2.7454.9811-4.1772-10.3656-1.0352-18.8153-2.9688-23.5366-4.221v32.4867c.6333.1289.5268.7854,1.8171.8472,1.5511.0727,3.6229-.6438,4.6443.9872ZM363.1021,375.0714h0c.7018.2563,1.2363.786,1.6635,1.3775.7204.9993,1.1554,2.2085,2.0036,3.114.7255.7766,2.0763.8213,3.4757.6631v-18.2187c-.9353,1.3658-2.5044,2.4549-3.4046,3.9161-1.1062,1.7924-1.8917,3.759-2.5822,5.7406-.3965,1.1326-.7619,2.2757-1.156,3.4074ZM344.5914,314.2506h0c.2959.1317.6129.2707.9579.4179,2.3403,1.0002,5.7923,2.3404,10.2184,3.6807,4.0483,1.2264,8.9114,2.4533,14.4772,3.4246v-30.6375c-.0418.021-.0815.043-.1256.0646-.4954.2347-1.1278.3836-1.8001.3798-.0265.0011-.0517.0011-.0793.0011-.9789,0-1.8537-.3797-2.3547-.7463-.5279-.3809-.7374-.5695-.8422-.6035-.0722-.0298-.1214-.0564-.3572-.0624-.3509.0216-.2942.0282-.5047.1483-.1946.1151-.5799.5198-1.3295.883-.4956.2347-1.1268.3836-1.8001.3798-1.0109.021-1.92-.3693-2.4341-.7451-.5281-.3809-.7397-.5695-.8423-.6035-.0722-.0298-.1218-.0564-.357-.0612v-.0012c-.3496.0216-.2944.0282-.5032.1483-.1964.1151-.5822.5198-1.329.883-.4976.2347-1.1294.3846-1.8002.3798-.0285.0011-.0535.0011-.0787.0011-.9811,0-1.8554-.3797-2.3575-.7463-.5269-.3809-.7385-.5705-.8411-.6035-.0716-.0298-.1206-.0574-.3582-.0624-.3494.0216-.2944.0282-.5032.1483-.1962.1151-.582.5198-1.3312.883-.4955.2347-1.126.3846-1.7979.3798-.7353.0154-1.4122-.1869-1.9264-.442v23.1121ZM433.5184,319.1308h0c10.9566-1.4661,19.5114-3.6517,24.7956-5.7919.2981-.1178.5814-.2365.8604-.3549v-21.8478c-.0436.021-.0817.043-.1253.0646-.4976.2347-1.1282.3836-1.8023.3798-.0249.0011-.0513.0011-.0778.0011-.98,0-1.8537-.3797-2.3569-.7463-.5258-.3809-.7363-.5695-.841-.6035-.0739-.0298-.1214-.0564-.3566-.0624-.3533.0216-.2944.0282-.5055.1483-.1951.1151-.5808.5198-1.3273.883-.497.2347-1.1276.3836-1.8017.3798-1.0103.021-1.9198-.3693-2.4347-.7451-.5273-.3809-.7402-.5695-.841-.6035-.0739-.0298-.1219-.0564-.3589-.0612v-.0012c-.3494.0216-.292.0282-.5032.1483-.1956.1151-.5808.5198-1.3289.883-.496.2347-1.1283.3846-1.8007.3798-.0265.0011-.0529.0011-.0778.0011-.9815,0-1.8546-.3797-2.3563-.7463-.5279-.3809-.7385-.5705-.8433-.6035-.07-.0298-.1211-.0574-.3566-.0624-.3495.0216-.2942.0282-.5054.1483-.1934.1151-.5792.5198-1.3288.883-.4963.2347-1.1263.3846-1.8002.3798-.733.0154-1.4111-.1869-1.926-.442v27.9923ZM459.1745,343.7466h0v-11.7489c-.4576.1565-.9343.3109-1.436.4657-3.7651,1.1431-8.8844,2.1718-14.6664,3.0524,6.0025.0988,12.0617,3.7932,16.1024,8.2309ZM434.219,428.6138c3.0139,5.3377,4.8669,10.6163,5.8112,16.632-3.4053-.5011-5.4408-1.3428-6.5118-1.9215v-15.7098c.2928.3549.5336.6988.7006.9993Z" style="fill: #e0e0e1;"/>
  <path d="M460.5243,428.965h0c-.0225.3549-.0739.7082-.1291,1.0593l-2.3965,5.6111c-.6532.5225-1.3211.1367-2.5801-.995-2.6147-2.3547-3.6443-5.8446-4.9638-8.9876-.5143-.8466-6.251-7.0881-4.7948-7.1906,2.6357-.1787,5.1023,4.255,6.7696,6.1258.3533.3946,1.0407,1.568,1.5285,1.7163.8052.1746,2.4741-1.0539,2.5921-.9833,1.686.9779,4.1129,1.5129,3.9741,3.6439M453.5192,377.4866h0c.7144,1.728-.9926,3.979-2.6374,4.3923-1.5968.2118-.4669-2.1733.1802-2.6366.8187-.5849,1.6394-1.1708,2.4572-1.7557ZM457.0342,421.2974h0c-1.8134-.3191-6.1524-2.0207-6.1524-4.3908,2.7786.5281,3.7409-4.0594,4.474-5.8767,1.2059-3.0022,1.863,2.9791,2.9946,3.4504-.4387,2.2709-.8776,4.544-1.3162,6.8171ZM417.57,438.0659h0c-.2641,3.0133,2.7553,4.1225,4.8516,5.5466-2.1194,3.3766-5.2539-1.2968-7.8748.4366,0-3.7518.5814-7.8476.868-11.1746,0-1.8834,1.0043-4.0578.2223-5.8938,0-1.7247,1.2682-3.0216.6547-4.8195,1.0749,2.9852,4.193,4.5308,7.0072,5.4688-.1863,4.3235-5.3702,6.2907-5.729,10.436ZM457.889,391.9514h0c.678-1.5886,1.7716-3.0917,3.3023-3.9531-.6516,1.5124-1.7893,3.1906-3.3023,3.9531ZM474.3198,389.5383h0c.5357.6415,1.734,1.0858,2.6342,1.6927l-.8208,1.9242c-2.0867.0021-4.2628.3665-6.0762,1.2477-2.6717,1.2981-3.268,4.6152-4.7116,6.9361.6096-1.4126-2.0657-1.1987-2.7399-1.2264-1.8894-.0787-1.3405,4.4536-.8394,5.7887.8472,2.2538-.3109,3.3285-1.4617,5.5349-.7083-1.9009-.3494-6.5149-3.7295-5.0301-.448-1.3994.5068-3.1064-1.5289-3.528-1.2946-.1042-1.8321.7309-2.0433,1.8702-.5087,2.7607-.3395,6.0823-2.121,8.4391-1.8321,1.2738-9.5871,4.7716-9.8496.7216-.2385-3.7905,3.031-5.2319,4.3887-8.6382-3.2068.408-2.2258-1.8266-2.8387-3.8248-.3495-1.1365-1.9732-.3978-2.6396-.1069-.469,2.3824-1.4847,4.6134-2.0471,6.9714-.5886,2.4687-.5964,5.034.7315,7.2806.6851,1.7185-2.3034-.8947.6835,1.8458.716.6625,1.4012,1.3576,2.051,2.0885,2.9013,3.2603,5.0962,7.0623,7.2061,10.8615,1.0308,1.857,1.933,4.0485,3.2982,5.6871.995,1.1966,2.5978,2.1021,3.1981,3.5949.3224.8031-.7066,3.9607-1.6905,2.8424-.4915-.56-.9607-1.5136-1.6349-.3798-.7556,1.2721-.131,6.925-2.4135,2.7135-.699-1.2969-2.5295-.796-3.6874-.796-.98.9895.3473,2.4898-.8775,3.5248-2.8541-3.7448-.6339-8.5923.6609-12.4738-1.3862-.3836-3.3551-1.713-3.7256.2013-1.6275-1.6349-1.9748-3.9002-2.715-5.9815-.6576-1.8491-1.9446-2.9223-3.2019-4.3295-2.3203-2.5939-6.6741-3.2624-7.6601-6.9956-.3434-1.5758,1.7945-5.9224-.8313-6.3325-4.5764-.7123-1.4303,4.2401-2.8982,6.118-1.2721-2.3127.0474-4.6618.4581-6.9955-1.1585-.9833-1.8515-2.4986-3.2019-3.2696-3.2432-1.8515-2.493,2.6032-1.3366,3.9988,1.7965,2.1628-.5186,5.1839.6835,8.0058.8621,2.0279,4.5766,2.9225,3.6192,4.8323-3.4522,1.1375-5.3927-4.8835-5.9358-7.0144-.636-2.5046-1.6121-3.5793-1.3535-6.3117.1912-2.0051.5732-3.9877,1.1183-5.9284.7045-2.5179,1.6767-4.9546,2.8177-7.3082.8223-1.6953.4294-3.1671,1.1624-4.8884,1.1222-2.6407,4.8609-3.2062,5.2693-5.9797,2.347,3.3005-1.5042,4.9126-2.0376,7.8406-.2697,1.465.8565,2.4141,2.1457,2.547,2.6606.2738,1.1906-2.0897,2.0718-3.6142,4.8267-3.086.4086-7.8484.8527-12.0688.1307-1.2804-1.842-3.1515-2.7-1.5433-.553,1.0329-1.1053,2.066-1.6581,3.0988-1.0422-1.9158,2.03-4.0837,2.1403-5.95.0778-1.3654-1.8894-1.4558-2.8027-1.4859-1.1696,1.4004-1.9865,3.0639-3.2795,4.3692-1.4393-2.9043-.3644-6.3459-.6495-9.4209,2.2291,3.4383,3.2735-2.7355,5.917-1.315-2.8577,2.1974-1.6938,4.0555,1.0897,4.6033-.8334,1.2325-.0451,2.1498,1.2628,2.5118,1.6883.463,2.2484-1.3014,3.5171-.0876,2.2483,2.1546,2.0333,5.5928,3.3194,8.2458,1.4523,2.9917,5.9471,5.5531,9.1617,5.9626,1.4474.1829,8.4387-2.234,5.2903-4.1549,3.6003-1.3613,5.2753-5.3414,6.3556-8.7368.198-1.6777-1.4622-4.3509.4861-5.0968,2.3664-.9067,3.7223,6.6578,4.0975,8.3753-1.0726-1.7842-3.5755-2.9671-3.9476.1212-.2314,1.9236,1.4756,4.0794-.8713,5.1232-1.1013-3.5205-2.9962-1.0516-3.9311.888,1.5097,1.9417,2.4479,8.507-.2143,9.8381.7998.8052,1.5951,1.6094,2.3926,2.414,1.9865-3.722,7.1968-4.9082,8.3361-9.1842.7199,1.7912,1.5019,3.08,3.0458,1.9676.8886-.6399,1.9594-.7941,3.0227-.8542,1.4684-.0844,4.2426.1454,4.2177-1.7771ZM423.5212,387.134h0c-.8202-.2734-.7883-1.4982-.6477-2.2009.3152.3704,1.5686,1.9359.6477,2.2009ZM449.8038,385.3696h0c-.5164.5882-1.0335,1.178-1.5517,1.7644-1.3712-.4701-3.0286.4386-4.7946-1.3261,2.1435.4795,4.1565-1.0296,6.3463-.4383ZM460.9536,352.7579h0c-.1406,1.163-.285,2.3277-.4272,3.4928-.9458.3615-1.8933.7243-2.8408,1.0891-.6492-2.1821,2.6816-2.8237,3.268-4.5819ZM469.5156,386.7928h0c-1.4088,1.6343-3.1918,1.5803-4.6177,2.9589.4916-2.4049,1.3691-5.0731,3.3931-6.6253,1.4412-1.1041,1.5874.2289,3.1482-.1879,1.126-.3022,2.0658-1.1443,2.8805-1.9369-1.126,2.0234,2.1249,3.2375,3.2912,4.1316-1.3333,1.1984-2.4059,2.3199-3.5057,3.7298-1.1492-1.1309-.0363-3.6647-2.064-3.6052-1.0936.0336-1.8515.7578-2.5256,1.5349ZM460.9536,359.9785h0c.8643.5207.1383.8752-.7253,1.2892-2.0759.996-.8264-1.8636-2.3394-2.6159,1.0616.2677,1.7584,2.8512,3.0646,1.3267ZM424.6109,351.4207h0c.5831-.8042,1.1702-1.6089,1.7527-2.4153.2905.7374.5847,1.4755.8775,2.213,1.3271-.3776,3.6362-.3016,3.9537,1.303-1.8404-.6059-4.6333-1.9159-6.5839-1.1008ZM446.0397,348.7298h0c-.0529-.2226-.1647-.5534-.3076-.9358.1483.2656.2526.5754.3076.9358ZM453.947,366.9965h0c-.3082.5573-.6741.8638-.4278,1.7308-.2524-.9238-.2431-1.9275,0-2.8529h.4278v1.1221ZM438.8071,365.3243h0c1.0119-.0673,2.3926-.0673,3.6175.3479l-.6967,2.0784c-1.1569-.3947-3.0653-.3043-4.2784-.0451l-.4729-2.1343s.786-.1697,1.8305-.2469ZM426.1966,365.4433c1.7053-.2899,3.3783.2094,4.9983.6676-.1523,1.7241.4723,3.2708,1.5586,4.5831,2.0279,2.4368,4.6084,3.9453,5.5884,7.1241.5221,1.7026,1.0484,3.4174,2.0504,4.9138,2.0432,0,4.3847.2326,6.1226-1.1019,1.4941-2.8204-2.3607-2.6991-3.466-4.3775-2.5177-3.8251,4.3622-1.1023,5.013-.8301,3.9879,1.674,1.5059-4.5543,1.7418-5.7283,1.0479-2.1193-.8588-4.1889-.215-6.3463,1.6067-1.4021,3.6991-2.1959,5.6931-2.8523-3.232-4.3429.4383-8.1984,2.8976-11.7558,1.7187-2.483-3.8053-6.0414-5.9797-7.4044-.8604-.5374-4.958-2.4897-4.523.1896.3611,2.2031,3.3099,3.3808,2.6336,6.2471-.4954,2.1214-2.848,4.6117-4.8895,5.2885-1.9104-.5666-4.4205,1.6965-5.9286-.226,2.0967-1.7031,3.8248-5.7411-.098-6.0326-1.5725-.1169-3.0024.3978-2.8982-1.7061.0396-.7974,1.616-5.4092,2.3602-5.0879.8697.3747,1.7418.7517,2.6116,1.1278.3263.1415-.3837,1.5686-.0216,2.2157.9535,1.6999,3.3765,1.7946,4.2859,3.4427-.7231-1.9243-2.3942-5.3074-2.8331-4.62.7634-1.1885,1.5268-2.3785,2.2863-3.5667-2.837-1.2242-7.6184-.2283-10.4343.749-2.9754,1.0329-7.1814,3.6649-7.5099,7.1328,1.8492-1.3559,5.4291,2.8194,6.3595.2905,1.0633-2.8782,6.0134,2.6657,4.7258,5.5384-.6835,1.5174-2.2141.2629-3.5298,1.3228-.5414.4381-1.1073.8692-1.8552.7887-1.3498-.1448-.9701.4432-2.218.5849-1.3141.1499-7.2287-2.983-4.7964,1.561.1444-.2166.2921-.4338.4365-.6504.5847.5754,1.1717,1.1507,1.7545,1.7269-1.2663.5633-.6891,2.347-2.417,1.9672-2.0284-.4614-4.1549-1.8284-4.1549-4.1438-3.473,3.4613-1.3709,8.3652,0,12.2521,1.3747-1.1888,2.7795-2.9659,4.6503-3.284Z" style="fill: #f6d61d;"/>
  <path d="M361.5649,432.8745h0c-1.1961,1.5835-2.53,3.7921-.856,5.5565,3.3684,3.5546-.7076,2.3314-1.1641,5.3146-.2965,1.9312-.6316,5.0587,2.2027,4.6431,1.4937-.2205,6.5539.1235,5.2852-2.8011-2.8517-3.7271-3.7992-8.4232-5.4678-12.713M353.8948,437.0652h0c-.3677,1.1089-2.7185.8036-3.5552.3477-1.3024-.706,1.3014-2.6699.7132-3.8642-1.3565.8641-2.1369.1289-2.6781-1.1758-.7634-1.8437,1.8011-1.5013,1.8011-3.6532-2.0944-3.446-4.9021-1.492-5.0472,1.9407-.1063,2.4858,1.9822,4.377,3.3591,6.2003,1.5229,2.02,2.3271,4.2589,1.4649,6.7519,1.0854,0,2.3299,1.9711,3.4853,1.168,1.0978-.7634,1.0731-.5429,2.6566-.0568.3273-.5567,1.1354-4.4911.8268-5.0207-.6873-1.1679-2.4391-1.4755-3.0265-2.6378ZM338.1276,415.8149h0c-.4266-.2464-1.0533-.2922-1.5291-.4272-.4795,1.1813,1.594,2.1535,1.5291.4272ZM348.8623,417.9948h0c-1.5875.889-3.2877-.237-4.8421-.5579-.8886-.1824-3.8963,1.029-2.6032,2.3221,1.3613,2.0246,7.904,1.2458,7.4453-1.7642ZM400.0733,437.4906h0c-.0535,1.3559-.1063,2.7118-.1593,4.0655-.0486,1.1812,2.5702,2.1895,3.6863,1.6178,2.4984-3.0514-3.4186-2.9147-3.527-5.6833ZM360.6881,393.6948h0c-.2007-2.8937-2.4043-1.022-3.9422-.4415,1.2882.9255,2.5404.0859,3.9422.4415ZM387.4066,429.1584h0c-.4575-2.4457-1.3384-4.9276-1.3384-7.4361-1.7593,2.4424-.3035,5.3951,1.3384,7.4361ZM348.1443,397.3883h0l-.5738-2.0786c-1.2353.2922-2.4031,1.0671-3.1881,1.6502l-1.4166,1.2143,1.5616,1.5379c.8773-.8868,2.4146-1.987,3.6169-2.3238ZM383.0672,419.8617h0c-1.0406,1.3195-2.2379,2.5309-3.9945,2.7382,0-6.257,3.6318-10.0452,5.767-15.3868.9795-2.451.3248-1.5377-1.239-2.8121-1.8984-1.5384-2.3559,2.3376-2.5389,3.7448-.3257-1.6565-1.1591-8.1401-3.302-8.017-2.1078.1235-1.5295,1.3983-1.0815,2.6715.563,1.5986.0132,3.2449.0723,4.8763.0749,2.051.8608,3.1407.4404,5.3492-.3434,1.7941-.9078,3.5336-1.3759,5.2959-.837,3.1599-1.0482,6.285.4163,9.3082-1.8328-.2088-3.5354-2.6985-5.4794-1.9771.2199,3.4125,3.5155,5.5681,4.3775,8.7617-2.9202,1.8173.4993,5.406,1.9892,6.5795,0,3.7695,2.6375,8.7196-.3047,11.5527-2.0063,1.9315-4.937,3.5358-7.8031,3.3291,1.6441-2.5828,2.3744-2.6396.2238-4.8177,1.4259-.2619,1.1138-1.6993,1.2721-2.7531.2755-1.8327,1.799-.2508,2.7117-.4465,5.2671-1.1317-.5174-3.5354-2.031-4.1224-5.9076-2.2917-4.873-12.9351-7.883-17.4316,1.2054-.2998,5.817,4.4281,4.3437.2205-.4531-1.2954-3.1047-8.927-.8025-8.549,1.2651.2112,2.5476,1.1924,3.8788.8015,1.783-.5281.4933-3.3837.2127-4.6674-.36-1.637.5781-6.7392-.1853-7.5026.145-.0682.2911-.1349.4365-.2013-2.8054-.8124-2.457-1.2471-3.9029,1.1278-.8311,1.3652-.2022,1.96-.7105,3.2641-.4768,1.2192.5545,2.423.2448,3.6824-1.5091,0-1.1419-2.7002-1.6046-3.8091-.6718-1.6085-2.94-3.1693-3.71-.678-.9133,2.9622.9343,6.3706.2607,9.5398-1.6178-.657-2.7283-3.8449-4.6702-2.2978-1.3112,1.0444-1.0185,2.6908-.4575,4.0523.9634,2.3376,4.8477,7.7015,1.411,9.8475-1.7896-2.2764-4.0137-4.1489-6.236-5.9792-1.8558-1.5246-3.025-2.142-.8135-3.9443.9475-.7744,3.0012-1.7924,2.0378-3.3059-.9658-1.5208-.441-4.4928.4276-6.245,1.0655,1.5301,2.4076,1.1657,3.4582-.1103,1.5247-1.8513.1472-1.314-.8289-2.3148-.6819-1.1299-.7832-3.0778-1.1118-4.3694,1.9474.5942,3.7178,2.2102,4.7119-.4558.651-1.7467-1.6226-1.5168-2.3254-2.9851-.4007-.8367.1748-4.2177,1.3312-4.2177,1.8916,2.0841.1472,5.095,2.4257,6.9847,1.8354-1.4129,2.4986-3.6604,3.5751-5.6078.7803-1.415,3.4437-2.6612,2.4207-3.9548-2.0937-2.6495-6.8015-4.0931-6.9432-7.9563-.0688-1.8398.5855-2.5155-1.2312-3.6941-1.1813-1.2114-5.1277-.2761-6.2159.6466-1.7372,1.4756-2.4191,3.7971-2.9917,5.9126.2061,1.7047,1.8675.5484,2.6159,1.5377,1.3763-1.9038,1.6222-4.6447,4.1775-5.4924.7253,2.632,1.0446,3.3585-1.6277,4.2116-1.8883.604-1.966,2.6793-.3495,3.6962-.7766,2.0117.3121,4.255-.517,6.2162-.7303,1.7209-2.7811,1.4385-3.8103,2.8628-2.4741,3.4156.0354,6.9063-.7346,10.4267-.9916,4.5214-6.6623.2998-3.9338-.4614-.7259-.8035-1.4508-1.6082-2.179-2.4134-1.2495,1.0272-3.2733,3.9459-5.0184,1.9765,0-1.8362-.0441-3.6798-.328-5.497-.4706-3.0061-3.3126-9.2869-7.5688-7.2157,1.4348-2.66-3.6241-4.3614-.2121-6.5806-.6603-.576-1.3191-1.154-1.9755-1.7296,3.0271,1.0728,6.245,1.4955,9.4215.8754-.6918-2.697-3.4769-3.159-3.6346-6.4114-.1238-2.5447,2.3806-6.2745,4.926-6.7381-1.3636,1.2048-5.9418,6.8561-1.0566,6.6107,2.0327-.1013,1.0185-3.189,3.7716-3.0469,3.5656.1826,4.6552-1.029,7.5949-3.1273-.5771,1.7444-1.8163,4.8316-3.4532,4.804-2.276-.0385-4.4944.005-6.4373,1.3554-.3842.2683-2.2136,3.3606-.7756,3.4901,2.3509.2115,2.093-.5832,4.1967-1.0957,2.3118-.5639,4.6795.7358,6.6821-1.1074,1.3636-1.5516,1.7605-3.9173,3.6096-5.0511,1.917-1.1713,4.1405-2.0829,5.9368-3.4835,1.4271-1.1134,4.5543.5396,4.2442,2.8513,1.239,2.6781,4.7699,3.1615,6.1643,5.7737,1.0022,1.8712-.9574,3.9711.1929,6.2454,1.2645.4563.733,2.0372,1.5268,2.8739,1.0329-.1896,2.7462-.7093,3.0211-1.9071.3484-1.5141-1.6557-1.7527-1.5995-3.1555.0958-2.4368,1.7185-6.084-1.4216-7.6505,3.0211-.1565,13.4016-3.5943,13.0945,1.9826-.2536,4.6112-.9833,9.8997.0783,14.4188.6851,2.9192,1.7687,5.0974,1.7401,8.2188-.0227,2.4191-.2337,4.8785.2546,7.2728.3969,1.9522-1.921,3.0536-3.2889,4.7871ZM402.7228,402.0144h0c-.1626-.4525-.4519-.8776-.6724-1.303-.8511,6.6842-2.9577,12.001.2353,17.9465,2.5597-5.11.6477-11.2529.4372-16.6435ZM331.353,379.9021h0c2.9009-2.4275,5.6144-4.3075,9.2307-5.5495,2.1319-.7331,2.8887,1.3846,1.556,2.842-.825.9016-1.1581.5781-2.0366,1.6073,1.4126.1013,3.0629.6123,4.2772-.3022,2.2874-1.7279,1.3796-5.2903,3.5947-7.1334-3.1203-2.003-8.7984.5567-11.7165,1.6316-1.9213.7082-3.9492,1.2302-5.6634,2.3992-2.4627,1.6755,1.5869,2.2769.7579,4.5049ZM331.5668,402.6636h0c1.4749,1.9423,1.6651,4.5362,3.2801,6.3574-.9475-2.3431.055-5.7252-3.2801-6.3574ZM325.7265,397.5199h0l1.0849,2.5398c.5075-.1036.5075-.8025.14-1.3135-.1859-.5853-.6759-.9821-1.2248-1.2263ZM330.4661,388.2348h0c.4482-1.126-.4074-2.2493.4387-3.3017-1.6518.9761-3.4967,2.407-.4387,3.3017ZM400.7595,432.4358h0c.4701-1.722,2.472-3.3684.2121-4.8059.4101,1.6388-.6343,3.171-.2121,4.8059ZM328.2784,380.1148h0c-1.9874-.8896-1.7494,3.059-2.3932,3.9419,1.4402-.6228,2.3932-2.4164,2.3932-3.9419ZM324.9983,385.1332c.0733,1.1058.1495,2.2108.2232,3.3137-1.2468-.7375-.7148-2.3277-.2232-3.3137Z" style="fill: #f6d61d;"/>
  <path d="M397.3268,402.7282h0c.2782-.4768.4823-.888.5799-1.1525-.2226.3798-.4113.7667-.5799,1.1525M400.545,386.6848h0c-.9804.3549-1.9081.0304-2.6726-.6101-1.3349-1.1206-1.8371-2.9692-3.6009-3.3678-2.0327-.4608-4.8217-.6961-6.4504.9112-.1835,5.6998-.4791,11.1961.4999,16.8469.4976,2.8706,1.1492,5.7169,1.4859,8.6128.0815.6988-.4052,3.8494.8394,3.4543.8566-.2718,1.7533-.7883,2.2284.4194,1.6201,2.4516-.2904,1.7946-1.7736,2.4897-1.3973.6547-1.1575,2.9449-1.3257,4.1889-.6162,4.538.3334,8.1195,1.8289,12.4717,1.5311,4.453,2.8265,9.1677.8289,13.7078-1.9798,4.506-8.3361,3.5453-10.9575,7.4494,1.7022,0,3.2272-3.9266,4.6256-1.673.8499,1.3693,1.0567,2.4231-.4493,3.4257,4.1597-1.6691,8.4861-2.9736,12.2545-5.4705-.3985-.4426-1.6674-1.4018-1.7627-1.9672,1.5945-1.6067.9542-4.62.4459-6.4983-1.342-4.9634,1.3141-9.9688.6648-14.9631,3.4466-7.5384-3.1671-15.918.0722-23.3843-1.1873,2.0564-3.7254,5.3927-5.1166,4.2363-2.2025-1.8383,1.4309-5.2341,2.3905-6.978.6316-1.1486,1.1062-2.3716,1.3283-3.6665.7657.1489,2.842.0949,2.842,1.3168.4657-2.3121,1.4325-4.4888,1.8618-6.8104.2524-1.364.3257-2.7961-.0877-4.1415ZM414.1367,450.8793h0c-1.7428-1.1867-2.8673-2.9542-3.2471-5.0223-.7649-4.1751.8566-8.3718,1.3675-12.4777.6889-5.5823-.6819-11.5582.727-17.0062.4783-1.8492,1.0864-2.4874.7749-4.3841-.2127-1.3067-.1443-2.6318.1097-3.927.4791-2.4308,1.5781-4.6978,1.9828-7.1478,3.9535-6.4913,4.6354-16.52,2.1914-23.6513-1.0842,1.0897-2.1667,2.1778-3.2492,3.268-1.1332,1.1371-2.9566.6681-4.1245,2.1733-2.3446,3.0149-1.6899,8.0368-5.9678,9.4615.3589,3.5696.9058,7.1175,1.4961,10.6532.2623,1.5571.5279,3.1142.7898,4.6714.3152,1.8801-.2695,3.403,1.8498,3.1203,1.5151-.2034,2.6715,5.1911,2.3944,5.341-2.3757,1.282-3.4957,1.3883-3.9134-1.6971-1.7165,4.8267-3.7565,9.1391-2.3493,14.3594.9232,3.4234,2.5692,6.6875,2.8961,10.2591.2485,2.6909-2.5371,7.8655.5528,9.5663-1.0827,1.0788-4.5804,4.5656-.6367,4.2766,1.4412-.1063,2.5696-.2656,3.5568,1.0253.9061,1.1834,1.54,2.8655,3.2089,1.5057-2.4852-1.6689,1.9678-2.7531-.4101-4.3676ZM409.627,350.2125h0c-.1577,1.5694-1.0406.9348.3268,2.3601.8676.8991,1.7621,1.9204,2.8442,2.578-.0871-1.0743-1.4315-7.7447-1.3158-7.8851-1.8723,0-1.7203,1.5665-1.8552,2.9471ZM416.2142,332.831h0c-.6951,1.0275-1.443,2.0157-2.1155,3.0575,1.1283,1.7692,1.3372,3.8202,1.3257,5.8635-.0117,2.7553-1.5992,4.1586.1063,6.921,1.5494,2.5058,3.1296,5.131,5.7383,2.1982,2.6963-3.0298-.9948-8.0599-1.5797-11.2667-.4239-2.3046-1.5951-4.2099-.9404-6.6578.6438-2.4191,1.6674-4.6994.3953-7.1313h-.6626c.2829,2.6044-.847,4.9195-2.2674,7.0156ZM397.9066,315.9538h0c0-1.3928-1.4618-2.8865.2127-3.9404,1.4376.3494,2.2379-.049,2.6369,1.4396.2878,1.0792,1.3862,2.1529.2155,3.1527-.4646.5755-2.6168,1.5279-2.6168,0-.2476.4957-.6438,1.9155-1.1002,2.1916-2.1194-.2193-4.3147-.1814-6.3558-.8764-.2326,3.8368,1.7605,7.3771,1.976,11.173,2.9198.6345,1.3263,3.1313,1.9767,5.0328,1.653-.8388,4.4981.1736,4.9683-2.5939.2839-1.671-1.1581-8.7368,2.2306-7.7055,1.2798,2.5636,2.5883,7.6184,1.0879,10.3165-1.2048,2.165-4.3647,2.4621-6.5353,2.8457,1.4556,2.4352,3.0866,5.1095,5.4473,6.7725.302-1.9579,1.7395-3.9548.4492-5.8965,1.0698-2.1399,3.1395-1.7313,3.8175.3372,1.1012,3.3717-2.7228,7.3755-.0777,10.3766-.0871-2.5828,3.2299-5.2494,5.2428-2.8535.4062-2.4786.8583-6.1516-.2275-8.5322-.6702-1.4728-2.5659-1.3681-3.8932-1.6729-1.4391-.3302-3.038-2.1219-1.0041-3.0722,1.8149-.8472,3.737.5874,5.552.5874-1.9275-.523-.2545-1.8579.3704-2.7057.6685-.9127,2.1364.1974,2.6032-1.2495.7144-2.2076-.5583-5.5895,3.1599-5.0169-.1613-2.1021-.3587-3.3897-1.6502-5.1641-.8565-1.1745-1.9748-2.256-3.382-2.7234-1.6123-.5336-1.329.6345-1.6746,1.9314-.3113,1.1774-8.9209,2.3783-7.1493-.9992,1.0422-1.9855,4.6178-.4151,6.1958-1.8052-2.7244-1.5884-7.6675-.1577-7.883-4.6047-3.0016.429-6.1991,1.7127-8.9739-.2137-.4035,1.5637-3.3104,2.1418-2.8517,3.9536,2.3905.5297,4.7174,1.7609,7.2326,1.5151ZM398.1193,299.9844h0c1.8972-.2139,3.1131,2.5669,4.8995,2.9202,2.1799.4321,2.0036-2.3013,1.512-3.5123-.8324-2.0459-.511-2.3341-2.6831-1.9396-1.8581.3362-3.5586.1929-2.5119-2.2223.3325-.7645,2.3299-.9397,3.3871-.9397.7651.4867-.7111,1.5223.6531,1.7307,0-.4993.0304-1.0076,0-1.5059-1.9864-2.4528-5.25-2.2007-8.0858-2.2007-1.1404.3605-1.1961,1.443-.4387,2.2007.8368-.2833,2.2377-.6526,2.7333.4007.7346,1.5682-.2466,3.4835.5345,5.0682ZM381.0618,317.0434c1.3075,2.0168-.4639,4.2778.2001,6.391.377,6.3772-1.61,12.4567-4.4187,18.1019-.7805,1.5676-1.5875,4.2756-3.3182,4.9447-1.0068.3875-2.1066.4663-3.0948.9067-2.8865,1.2931.0379,4.7622,1.8585,2.9538-1.0675,5.2098-5.0097,8.9667-8.0185,13.1105-1.6028,2.2058-2.9659,4.6266-3.4322,7.347-.4939,2.8817-3.0304,4.0425-5.4176,5.3863,1.0395-1.716-.5561-3.5492-2.1784-3.9323,6.6446.5831,7.7066-7.5639,8.8212-12.2362,1.287-5.3927,2.8061-11.1207,7.2515-14.8214,3.6295-3.0203,2.5348-10.0071,5.7361-13.8571,1.1464-1.3769,2.7249-1.6085,2.7421-3.4796.0093-1.1764-.0342-2.3532.0055-3.527.096-2.8877,1.0064-5.3846,3.2635-7.2884Z" style="fill: #fff6d9;"/>
  <path d="M397.2546,366.7628h0c3.2486.9427,6.2162-1.6677,8.7378-3.2928-2.3509.365-5.0571,1.8239-7.4342.8776-2.4335.453-4.4084-.8616-6.5884-1.6623-2.5834-.9475-2.4693-.3109-3.2603,1.875,3.2729-1.4348,5.8001.722,8.5451,2.2025M408.1405,378.1134h0c.2431-2.9367,2.6126-2.5519,4.2078-.3903,1.9306-1.6909,5.0322-3.4492,5.5559-6.0591.4371-2.1508-.8793-4.9916-1.3862-7.1037-1.2396-1.0368-1.5192-2.8877-2.6187-4.0588-.9948-1.0577-3.0188-.6068-2.1701.9662.5375.996,1.1867,1.3306.2448,1.9771-1.4414.9938-2.8823,1.9871-4.3256,2.9803-2.4589,1.6942-5.1592,4.3482-8.378,4.1051-2.052-.1548-3.7751-1.3928-5.5952-2.2184-1.0218-.4636-2.0934-.8064-3.2138-.91-.8517,1.2874-1.8713-.6389-2.8315-.6389,0,1.1696-.2331,2.5834,0,3.7265,2.5663,2.799-.9055,6.0933,0,9.1877,3.5054-.8819,7.4107-.8884,10.7365.6625,1.1734-1.2114.1103-4.3719,2.3932-4.594,1.2957,3.9459,2.1854,8.1282,4.1543,11.8139,1.2744-2.9377,2.9664-6.2785,3.2266-9.4461ZM388.4323,355.2416h0c.4218,1.3432.3942,2.9839,1.9426,3.43,1.0059.2915,2.198.1641,3.1179.738,1.372.8565,5.2584,2.5035,7.0523,1.4442-2.7123-1.336-5.9053-7.0518-8.5449-6.5067-4.2523.8764-1.762-6.1958,1.5742-6.041,2.3744.1108,3.8423,4.8494,5.072,6.5123,1.7819,2.4086,5.0069,5.1341,8.2996,4.1928,5.1818-1.4805-1.5779-5.7776-3.3649-7.6261-2.9075-3.0068-5.7087-6.1624-8.1013-9.5999-5.3888-5.4023-6.5954-13.8369-7.85-21.0129-.5958-1.3123.1389-2.9587.0959-4.3245-.016-.5204-.1725-1.077-.7832-1.1443-1.7467-.1907-1.6806.6123-1.8173,2.0555-.6598,6.9415-1.653,13.4669-.8007,20.4813.7193,5.9368,2.322,11.7104,4.1078,17.4015ZM392.8748,289.4501c.3974-5.1376,12.5119-4.9772,13.7918-.415.2431,2.9719,2.3166,5.47,1.077,8.5356-2.6948-1.3951-.1427-6.6617-4.4755-7.9746-1.5997-.4849-3.2957-.3467-4.936-.5544-1.9709-.2487-3.5265.7412-5.4573.4083Z" style="fill: #dda916;"/>
  <path d="M423.5249,325.9428c.1384,0,.2316.0189.2734.032.0552.022.0971.0473.1367.086.0227.028.1235.1829.2508.4128l3.2449,5.7467.8262-.0859,1.8212-6.2108c.0853-.3025.1917-.4993.281-.5969.015-.021.1003-.0838.279-.135l.1536-.0447.0062.0315.7292-.1064c.0358-.0056.0661-.0078.091-.0078.0529.0021.0799.0078.0964.0144.0247.0616.0743.2308.1064.4684l.6135,4.2656c.0247.1748.0379.3154.0379.4019,0,.0319-.0015.0583-.0055.0739-.0093.0187-.0309.0391-.1769.0682l-.2485.0342-.484.07.1647,1.148,5.9567-.8603.4521-2.76-1.1091-.071-.098.3941c-.1009.4035-.2205.6862-.3121.8217-.1064.1599-.2127.2569-.3263.3175-.0838.0512-.4101.1476-.8906.2133l-.4801.0682c-.2361.0354-.4217.0562-.5263.0618-.0171-.0591-.0342-.146-.0531-.2563l-.5979-4.1537c-.0325-.225-.0457-.3941-.0457-.49v-.0447c.0109-.0093.0286-.0276.0589-.0484,0-.0072.1989-.0871.5164-.1241l.49-.0667-.1676-1.1509-3.957.5717v.0039l-.1977.0208-2.535.2641.1118,1.0786.4163.0255c.034.0011.0605.0039.0643.0039.1103.0066.1787.0171.2184.0286.0021.0011.0061.0017.0078.0017-.0134.1046-.053.302-.1273.5517l-.8411,2.8943-1.5284-2.7069c-.1198-.2061-.1902-.3782-.2222-.4729.0606-.0221.1555-.0495.2772-.0723l.4366-.0881-.1196-1.1085-3.6818.3848.1173,1.126.462-.0226c.0039,0,.0132-.0011.034-.0011" style="fill: #312b25;"/>
  <path d="M445.9085,322.7195h0c.1087-.0259.2057-.0379.2928-.0379.1707.0015.3058.0397.4386.1212.1956.1273.317.2889.393.5964.0186.0828.0288.1604.0288.2298-.0024.1787-.0475.3313-.1748.5071-.1351.1841-.3914.3632-.8223.4927l-.4272-1.8233c.1079-.0412.201-.07.2711-.086M453.7078,322.428h0l.6811.7908-.7766.2542.0955-1.045ZM437.8464,325.5354l-.0535-.4558c-.0078-.0556-.0093-.113-.0093-.168,0-.1489.0247-.2536.055-.3197.0591-.1258.112-.176.167-.2112.0155-.012.2034-.0793.4846-.1279l.3092-.0562.8223,4.5422c.0326.1869.0474.3331.0474.413,0,.0169,0,.0301-.0015.0406-.0132.0132-.0519.0369-.1787.0646l-.2299.0418-.4843.0871.2071,1.1394,3.7502-.6768-.2088-1.141-.706.1289c-.048.009-.0916.0123-.1219.0123-.034-.0018-.0535-.0033-.0667-.0072-.0279-.0667-.0776-.2261-.1157-.4443l-.8217-4.5422.4441-.0805c.1003-.0183.1875-.0259.2565-.0259.0854,0,.146.0103.1896.0247.0836.0282.1559.0739.2413.1803.015.0117.0949.1625.1688.4008l.1295.4083,1.1107-.201-.3076-1.3357.5811-.1367c.0535-.0132.0931-.0171.1272-.0171.0303,0,.0474.0033.0606.0072.0303.0595.0932.225.146.4575l.9895,4.1994c.0533.225.0761.3941.0743.4591v.0051c-.0115.0225-.0309.0436-.1709.0844l-.2452.0577-.4762.1126.2674,1.1266,3.7353-.8808-.268-1.1272-.7268.1709c-.0498.0132-.0932.0171-.1219.0171-.0285-.0006-.0457-.0039-.055-.0066-.0288-.0568-.0949-.2238-.1483-.4602l-.3209-1.3627,2.8696,2.4787,2.2972-.5402.0096.0342,2.9283-.9526-.3479-1.0687-.4381.1081c-.1273.0325-.2321.0495-.3004.0571v-.0495c0-.0667.0055-.1509.0154-.2512l.076-.8235,1.8455-.5997.469.5429c.1219.1355.2051.2574.2547.3335-.042.0237-.1048.0529-.1802.0805l-.4372.1653.3549,1.0792,3.4333-1.1167-.3494-1.0737-.4442.1141c-.091.0249-.1654.0319-.2205.0319-.0661,0-.1097-.0099-.1423-.0235-.0397-.0084-.2866-.1934-.5754-.5392l-4.1394-4.8117-.7805.2536-.5621,6.2769c-.0342.4612-.1159.7793-.1655.8764-.0225.0237-.119.0946-.2656.1709l-.1384.0722v-.0022l-.4293.0523c-.1103.0132-.2073.0187-.2921.0187-.173,0-.3098-.0226-.4161-.0607-.1445-.0445-.4521-.2364-.8334-.5732l-1.276-1.1089c.2843-.2112.5103-.4576.6664-.749.1647-.3031.2524-.6356.2524-.9751,0-.1664-.021-.3335-.0589-.5005-.1081-.4706-.3722-.8845-.7574-1.1657-.3611-.2677-.7805-.4254-1.2254-.4546-.0545-.0039-.1136-.0062-.1725-.0062-.4083.0024-.9078.0811-1.5345.2283l-2.6979.6361-.0055-.0154-.456.0826-5.8238,1.0539.3286,2.5243,1.1392-.2067Z" style="fill: #312b25;"/>
  <path d="M348.2462,323.764h0c.064.0105.1141.0225.1544.0342.195.0595.3329.1448.4408.2601.1.1052.1628.226.1931.4144.0103.0657.0154.1328.0154.1995,0,.1324-.0192.2658-.0612.4074-.0986.3125-.2326.4779-.4309.5954-.1412.0805-.2568.1103-.3731.1106-.0652,0-.1279-.0093-.2024-.0301-.0622-.0189-.1542-.053-.2656-.1027-.0105-.0039-.0216-.0093-.0315-.0132l.5612-1.8756ZM347.6982,328.9363l-.7121-.2143c-.1085-.0366-.1466-.064-.1619-.0822.0027-.0673.0319-.2409.1013-.4696l.3929-1.309c.0166.0093.0336.016.0487.0225.1874.0827.3692.1511.5462.204.3247.0958.6387.1487.9436.1487.3627,0,.7127-.0754,1.0246-.2353.5629-.279.9646-.7889,1.146-1.4126.0634-.2133.0974-.4289.0974-.6438,0-.2668-.0529-.5314-.1554-.7793-.1731-.4245-.4519-.7871-.8184-1.0545-.3677-.2689-.8451-.4752-1.4507-.6582l-2.8117-.8433-.335,1.1101.7105.2127c.1013.0332.1433.0606.1619.0817-.0027.0722-.0331.2442-.1015.4707l-1.239,4.1339c-.0512.1692-.0976.2981-.1343.378-.0129.0282-.0261.0519-.0336.0661-.0084.003-.0189.0051-.0502.0066-.0303,0-.0751-.0043-.1367-.0237l-.2388-.071-.469-.1406-.3317,1.1089,3.6758,1.1035.3311-1.1101Z" style="fill: #312b25;"/>
  <path d="M352.2115,324.7314v.0039c.0015.0727-.021.2431-.079.4696l-1.0566,4.1784c-.0441.1692-.0853.301-.1202.3825-.012.0326-.0243.0564-.0319.0696-.0105.0076-.021.0093-.0661.0132-.0282,0-.0691-.0045-.1247-.0189l-.2419-.0617-.4731-.1186-.2848,1.1224,5.8343,1.476,1.4677-2.3785-.9948-.4906-.242.3265c-.247.3338-.4645.5516-.6024.6421-.1581.1081-.2947.1565-.4233.1697-.0144.0012-.0342.0018-.0595.0018-.1472.0021-.4464-.0436-.8451-.1451l-.4729-.1184c-.2034-.0507-.3599-.0961-.4672-.1297-.015-.0054-.0277-.0103-.042-.0148.0078-.0612.0249-.1493.0523-.2547l1.0298-4.0705c.0452-.1818.0892-.3236.1239-.4171.0155-.0441.0276-.0756.0381-.0955.012-.0043.0352-.0132.0722-.0209.0039-.0016.0116-.0033.042-.0027.0815-.0006.2536.0221.484.085l.4756.124.2849-1.1266-3.878-.9811-.2845,1.1221.7183.1814c.1063.0304.1476.0574.167.0772" style="fill: #312b25;"/>
  <path d="M357.3468,326.0846c.0475.0346.0787.07.1063.1174.0144.0285.0683.2088.1274.469l1.4826,6.4311.8157.1511,3.5056-5.439c.168-.2656.3263-.4261.4392-.4951.0204-.0136.1169-.0501.2965-.0501l.4145.0231.1984-1.0807-.4783-.0892-2.5047-.4631-.1974,1.0655.3875.14c.0346.0126.0595.022.0661.0259.1009.0358.1631.0655.1984.0871.0039.0021.0062.0039.0099.0049-.044.0931-.1349.2745-.2794.4929l-1.6271,2.5375-.6983-3.0292c-.0547-.2347-.0793-.4161-.0805-.5176.0183-.0009.0408-.0015.0634-.0009.0613,0,.1367.0027.2254.0115l.4416.0382.2028-1.0936-3.6427-.6763-.204,1.1012.435.118c.1592.0414.2606.0925.2959.1208" style="fill: #312b25;"/>
  <path d="M364.4934,328.4712c0,.2677.0501.5309.1526.7776.1285.3115.3313.5954.5897.8478.2581.2496.6466.5518,1.1918.9392.5246.3683.8586.6263.9226.6891.1367.1289.2155.244.2536.3407.0385.0925.0517.1674.0517.228,0,.0171-.0015.0331-.0027.0475-.0214.1577-.0711.2512-.2391.3836-.1186.0838-.2641.1355-.4945.1367-.0535,0-.1091-.0039-.167-.0078-.2806-.0319-.5132-.1162-.7258-.258-.2226-.1509-.3516-.3041-.4278-.4645-.0761-.1593-.1536-.4801-.1851-.9322l-.0276-.4072-1.0738-.1141-.3438,3.2492,1.0852.1147.0865-.3296c.0727.0303.167.0704.2761.1178.3191.1406.5164.2232.6807.2706.1908.0541.3984.092.6146.1157.1196.0117.2353.0195.3515.0195h.015c.5682,0,1.1038-.1704,1.5415-.5017.5219-.3852.8544-.9458.9151-1.577.0076-.0772.0136-.1538.0136-.2298,0-.2617-.0495-.5258-.1443-.7739-.1235-.3236-.3203-.6162-.575-.862-.253-.2448-.6586-.5456-1.2549-.9541-.6967-.4675-1.1239-.8532-1.2104-.9987-.0589-.0922-.0728-.1472-.0751-.2166,0-.0123.0023-.0237.0023-.0354.0187-.1262.0556-.2088.2161-.3368.1235-.0892.2391-.1301.4194-.1334.0336,0,.0717.0023.1114.0072.2176.0237.4156.0976.6216.2371.1986.1406.3269.2953.4151.4912.0866.1917.1532.4939.162.9001l.0111.4272,1.0924.1151.3449-3.2684-.4844-.0519-.1824-.0192-.3932-.042-.104.322c-.0198-.01-.0402-.0216-.0612-.0348-.4249-.2419-.856-.3951-1.287-.4408-.1097-.0123-.2182-.0171-.3219-.0171-.5425-.0017-1.0566.1614-1.4756.4834-.4943.3681-.8106.9077-.8697,1.5113-.0105.0771-.012.1571-.012.2349" style="fill: #312b25;"/>
  <path d="M328.2807,230.2096c-.5495-.3038-1.4468-.6405-2.6948-1.0109-1.2342-.36-2.9412-.5727-5.1536-.6172-2.0658-.0111-4.1211.572-6.1643,1.729-2.0207,1.1459-3.7295,2.9758-5.088,5.4914-1.3588,2.5157-2.0763,5.7958-2.1337,9.826.0679,5.3338,1.3483,9.5448,3.8621,12.6106,2.5278,3.1113,5.8508,4.6492,9.9847,4.7169,1.9198-.0115,3.4814-.1466,4.7159-.4267,1.2474-.259,2.1673-.5291,2.7636-.7424l-.259-6.9724-2.0219,1.0214c-1.0212.4491-2.3683.7187-4.088.7634-2.2456-.0447-4.1092-1.0434-5.5687-2.9986-1.4369-1.9413-2.1671-4.5924-2.213-7.883.0231-3.3903.6967-6.0184,2.0658-7.9839,1.3594-1.9314,3.2245-2.9196,5.6051-2.9421,1.594.0225,2.8408.259,3.8281.6967l2.2361,1.1784.3235-6.4565Z" style="fill: #312b25;"/>
  <path d="M346.586,249.356h-6.7041l3.5375-13.8015h.0787l3.0878,13.8015ZM349.7873,262.3931h7.1416l-9.5459-33.2285h-7.6576l-9.9163,33.2285h6.7383l2.0433-7.4332h9.3542l1.8426,7.4332Z" style="fill: #312b25;"/>
  <path d="M367.036,234.9818h1.7858c2.7059.0225,4.6702,1.0218,5.9275,2.9536,1.2474,1.9539,1.8756,4.6939,1.8531,8.1404.0225,3.0784-.5831,5.594-1.7741,7.5242-1.189,1.9435-3.0535,2.9313-5.5807,2.9986h-2.2114v-21.6169ZM360.0392,262.3931h9.6804c2.5266,0,4.8841-.5495,7.0183-1.6845,2.1562-1.1336,3.8747-2.9079,5.1771-5.3227,1.3032-2.4031,1.975-5.5018,2.0092-9.31-.0436-4.1652-.6951-7.4778-1.965-9.9708-1.2573-2.4595-2.8854-4.2564-4.9181-5.3455-2.0102-1.0786-4.1549-1.6062-6.4335-1.5951h-10.5684v33.2285Z" style="fill: #312b25;"/>
  <rect x="388.5062" y="229.1646" width="6.9978" height="33.2285" style="fill: #312b25;"/>
  <polygon points="399.5683 262.3931 419.1519 262.3931 419.1519 256.3848 407.4074 256.3848 418.9712 235.2628 418.9712 229.1646 399.8484 229.1646 399.8484 235.151 411.1234 235.151 399.5683 256.0375 399.5683 262.3931" style="fill: #312b25;"/>
  <path d="M454.7407,230.2096c-.5413-.3038-1.4375-.6405-2.6987-1.0109-1.2207-.36-2.962-.5727-5.1419-.6172-2.0775-.0111-4.1207.572-6.1639,1.729-2.0432,1.1459-3.7409,2.9758-5.1094,5.4914-1.3487,2.5157-2.0796,5.7958-2.1253,9.826.0821,5.3338,1.3598,9.5448,3.8868,12.6106,2.5053,3.1113,5.8277,4.6492,9.9709,4.7169,1.8994-.0115,3.4714-.1466,4.7287-.4267,1.2153-.259,2.1457-.5291,2.7514-.7424l-.2562-6.9724-2.0222,1.0214c-1.0329.4491-2.368.7187-4.0771.7634-2.2692-.0447-4.1222-1.0434-5.5691-2.9986-1.4507-1.9413-2.2009-4.5924-2.2466-7.883.0093-3.3903.7307-6.0184,2.0757-7.9839,1.3592-1.9314,3.2486-2.9196,5.6049-2.9421,1.5841.0225,2.875.259,3.8193.6967l2.2343,1.1784.3385-6.4565Z" style="fill: #312b25;"/>
  <rect x="458.4886" y="255.2516" width="6.1321" height="7.1416" style="fill: #312b25;"/>
  <polygon points="469.9181 262.3931 476.659 262.3931 476.659 248.5028 486.0473 248.5028 486.0473 242.6856 476.659 242.6856 476.659 234.9818 486.4271 234.9818 486.4271 229.1646 469.9181 229.1646 469.9181 262.3931" style="fill: #312b25;"/>
  <rect x="486.8317" y="255.2516" width="6.1219" height="7.1416" style="fill: #312b25;"/>
  <path d="M335.9543,216.3474c17.9072-3.2597,39.1707-5.6513,64.0793-6.0603,24.8435.3975,46.0745,2.7979,63.979,6.0603h-128.0583Z" style="fill: #eb303a;"/>
  <path d="M415.7716,183.0136h0l-15.7683-6.0483-15.7749,6.0483,15.7717,6.047,15.7716-6.047ZM488.7359,195.1749h0c-.0148-1.7821-.9623-2.8883-1.8074-3.0101l-24.7861-4.9435c-.1118-.0237-.2166-.0331-.3175-.0331-.9203-.0606-2.396,1.045-2.7833,3.0342-.0667.3247-.097.6428-.097.9497.0153,1.7821.9683,2.8871,1.8134,3.0123l24.7783,4.9446c.1048.0193.2112.0303.323.0303.9172.0612,2.3983-1.0477,2.7796-3.0304.069-.3285.097-.6475.097-.9539ZM311.2641,195.1749h0c0,.3064.0303.6254.0959.9539.3852,1.9827,1.8636,3.0916,2.7823,3.0304.1103,0,.2166-.0109.3203-.0303l24.7822-4.9446c.8439-.1252,1.7941-1.2302,1.8097-3.0123,0-.3069-.0303-.625-.0961-.9497-.3852-1.9892-1.8635-3.0948-2.7805-3.0342-.1048,0-.2084.0094-.3203.0331l-24.7863,4.9435c-.8449.1218-1.7924,1.228-1.8072,3.0101ZM274.585,215.8326h0c4.5202-1.7212,9.9958-3.6896,16.3635-5.7301-5.6859-.2839-10.2078-4.9689-10.2078-10.7239,0-4.0501,2.2394-7.5726,5.5471-9.4058-8.5655,2.7924-15.0771,5.3101-19.6856,6.9919l10.1247,4.4518c.9088.3985,1.3889,1.406,1.1309,2.3667l-3.2729,12.0494ZM423.3977,183.0136h0c0-.8318-.5164-1.5797-1.2915-1.8762l-21.3865-8.2017c-.0474-.0186-.0958-.0253-.1444-.0396-.0595-.0171-.1184-.0347-.178-.0475-.0706-.0142-.1412-.0214-.2123-.028-.0577-.0061-.1162-.0116-.1773-.0116-.0729-.0009-.1445.0056-.2156.0132-.0578.0066-.1169.0122-.1746.0237-.0739.0155-.1472.0369-.2193.0595-.0399.0117-.0778.0172-.1159.0316l-21.387,8.1993c-.7788.2982-1.2931,1.0456-1.2931,1.8774s.5143,1.5784,1.2931,1.8767l21.387,8.2005c.0259.0094.0525.0133.0789.021.0406.0136.0815.0241.1235.0358.1641.0436.3306.0732.4954.0749.0078,0,.0126.0027.0199.0027.1781,0,.3572-.0331.5347-.0815.0325-.0094.0638-.0171.0941-.0277.0303-.0093.0606-.0144.091-.0253l21.3865-8.1993c.775-.2982,1.2915-1.0463,1.2915-1.8779ZM428.6824,185.4575h0c0,4.2468,2.4704,7.9067,6.0422,9.6528-10.871-1.0093-22.4562-1.6029-34.7272-1.6012-12.2666-.0017-23.8508.592-34.718,1.6,3.5727-1.7461,6.0404-5.406,6.0404-9.651,0-5.8382-4.6542-10.5784-10.4543-10.7361,11.9023-1.1927,24.9162-1.9947,39.1379-2.207,14.2359.2073,27.2874,1.0066,39.2062,2.2036-5.8314.1192-10.5271,4.876-10.5271,10.7389ZM345.0751,191.1721h0c0-.57-.0562-1.1519-.1725-1.7357-.6978-3.4448-3.3048-6.2062-6.7249-6.2675-.3731,0-.7453.0381-1.1085.1125l-24.7839,4.9412c-3.2603.6925-5.056,3.796-5.0394,6.9523,0,.5726.0541,1.1536.1725,1.7401.694,3.4399,3.3028,6.2018,6.7239,6.2625.3638,0,.7325-.0322,1.1023-.1063l24.7884-4.9448c3.2603-.6978,5.055-3.7987,5.0422-6.9543ZM349.8198,185.4581h0c0,5.0294,3.4559,9.2371,8.12,10.4117-24.0233,2.718-44.2224,7.4086-59.9577,12.0638,2.5824-1.9639,4.2574-5.0598,4.2591-8.555-.0033-5.9372-4.8135-10.7473-10.7503-10.75-.4058,0-.803.0274-1.1962.071,16.0092-4.9881,38.3288-10.5413,67.7889-13.6918-4.7369,1.1233-8.2639,5.3701-8.2639,10.4505ZM284.9209,216.3474h31.6179c21.4537-5.1971,49.0707-9.5305,83.4948-10.0795,34.3359.5363,61.9358,4.8802,83.3949,10.0795h31.649c-23.4915-8.1582-63.0807-18.8036-115.0803-18.8168-51.9969.0132-91.5828,10.6586-115.0764,18.8168ZM523.2748,201.4164h0l10.1246-4.453c-1.5136-.5522-3.1957-1.1813-5.1172-1.8922-3.9474-1.4594-8.7936-3.2167-14.5682-5.0985,3.3077,1.8323,5.5487,5.3558,5.5487,9.4082,0,5.7554-4.5251,10.4387-10.2107,10.7209,6.3673,2.0411,11.8433,4.0095,16.3647,5.7307l-3.2756-12.0494c-.258-.9617.222-1.9671,1.1338-2.3667ZM410.1092,112.5536h0c.4614,0,.9172-.1576,1.2822-.4596.1911-.167,12.0289-9.9489,12.0653-27.9924-.0078-3.2949-.6763-6.1065-2.2902-8.2236-1.6106-2.1315-4.2078-3.2707-7.0679-3.2377-1.4259,0-2.9395.247-4.5495.7187-.8604.2497-1.4468,1.0347-1.4468,1.929v35.2567c0,.7749.4536,1.4859,1.1542,1.8182.2716.1279.5644.1907.8526.1907ZM406.4103,100.5208h0c0-5.1889-.4978-9.8783-1.3444-13.4093-.4287-1.7714-.932-3.2498-1.6082-4.4463-.6571-1.1156-1.5952-2.3729-3.4565-2.4543-1.862.0814-2.8033,1.3387-3.4603,2.4543-1.9198,3.5045-2.9087,10.0337-2.9511,17.8556.0018,5.1873.4993,9.8766,1.3454,13.4086.4311,1.7711.9304,3.2498,1.6057,4.4454.6571,1.1168,1.5984,2.3735,3.4603,2.4522,1.8613-.0787,2.7994-1.3354,3.4565-2.4522,1.9236-3.5033,2.9129-10.0327,2.9526-17.8539ZM391.8987,75.2871h0c0-.8901-.5903-1.6794-1.4478-1.9281-1.6061-.4729-3.1197-.7187-4.5494-.7187-2.863-.033-5.4606,1.1041-7.0679,3.2392-1.616,2.1165-2.2814,4.9271-2.2862,8.222.0325,18.0425,11.8708,27.8254,12.0637,27.9907.3642.3037.8211.4613,1.2814.4613.2899,0,.5804-.0628.8516-.1907.701-.3308,1.1546-1.0445,1.1546-1.8194v-35.2564ZM566.3259,163.284h0c-2.666,3.0022-6.2376,6.7602-10.1852,9.9703-4.8538,3.9817-10.262,6.9631-14.7127,6.9201-1.1068,0-2.1645-.1697-3.192-.5275-.0076-.0038-.0148-.0059-.0247-.0099-.0056-.0018-.015-.0055-.021-.0078-3.5866-1.233-6.6455-5.229-8.6188-9.0934-.9932-1.9186-1.7358-3.7674-2.2235-5.1233-.4824-1.3564-.7006-2.1772-.7066-2.1787-.1803-.6676-.6913-1.1972-1.3537-1.3984-.6648-.2022-1.3847-.0478-1.9089.4079,0,0-.0676.0618-.2695.2217-1.401,1.1276-7.9921,5.8605-16.4672,5.8341-1.8871,0-3.877-.227-5.9489-.7733-6.3976-1.8569-9.9312-4.7808-12.2251-7.9518-2.2897-3.1825-3.3038-6.7206-4.2194-9.8679-.2215-.7529-.8503-1.3036-1.6215-1.4214-.7727-.1195-1.5433.2187-1.9783.868,0,0-.0728.1142-.2756.381-1.4319,1.929-8.1116,9.7817-18.4266,9.7266-1.0119-.0017-2.0603-.0738-3.15-.2315-7.1571-1.0428-10.9779-2.8804-13.3381-5.4021-2.3794-2.5161-3.5908-6.1336-4.7435-11.2793-.1971-.8592-.9188-1.4911-1.7939-1.5622-.8797-.0722-1.6977.4295-2.03,1.2458-1.4965,3.6779-3.3596,6.9746-6.1071,9.3133-2.7531,2.3299-6.4103,3.8621-12.0593,3.8781-.4256,0-.8643-.0115-1.314-.0253-3.6991-.177-6.4605-1.8213-9.0125-4.8025-2.5233-2.9796-4.6387-7.2982-6.5188-12.2781-.2977-.7833-1.0417-1.2991-1.8795-1.2991-.8351,0-1.5815.5158-1.878,1.2991-1.8789,4.9799-3.9939,9.2986-6.5215,12.2781-2.551,2.9812-5.3101,4.6255-9.013,4.8025-.4464.0171-.8853.0253-1.3102.0253-5.6514-.016-9.3085-1.5482-12.0589-3.8781-2.7498-2.3387-4.6144-5.6354-6.1099-9.3133-.3328-.8135-1.1507-1.3179-2.0267-1.2458-.8757.0711-1.601.7029-1.7957,1.5622-1.1525,5.1457-2.3651,8.7632-4.7408,11.2793-2.3644,2.5217-6.1832,4.3592-13.3412,5.4021-1.0926.1594-2.1421.2299-3.1524.2315-5.9235,0-10.5772-2.4989-13.8171-5.0643-1.6127-1.2798-2.8539-2.5683-3.683-3.5225-.414-.4773-.7226-.8715-.9253-1.1398-.2013-.2668-.2734-.381-.2734-.381-.4338-.6493-1.2038-.9875-1.9787-.868-.769.1178-1.4006.6685-1.6217,1.4214-.9172,3.1473-1.9285,6.6854-4.2204,9.8679-2.2968,3.171-5.8277,6.0949-12.2693,7.9657-2.0284.5324-4.0182.7594-5.9065.7594-4.8516.0027-9.0664-1.5145-12.0665-3.0535-1.4964-.7682-2.687-1.5361-3.4901-2.1049-.4035-.2851-.7105-.5176-.9078-.6756-.2001-.1571-.2683-.2217-.2717-.2217-.5193-.4557-1.2419-.6101-1.9032-.4079-.6621.2012-1.1762.7308-1.3588,1.3984,0,.0015-.2182.8223-.7076,2.1787-1.3891,4.113-5.4065,12.4348-10.844,14.219-.0051.0021-.0111.0037-.0155.0055-.0049.0021-.0103.0039-.0154.0049-1.029.3616-2.0913.5325-3.2068.5325-4.4514.043-9.8584-2.9384-14.71-6.9228-3.9459-3.2073-7.5176-6.9642-10.1836-9.9664,1.0969-.6934,2.0774-1.5517,2.897-2.5533.8742,1.0153,2.0222,2.2445,3.4288,3.5018,3.2509,2.8777,7.8286,5.9479,13.3265,5.9786.1093.0028.2166.0032.3259.0032,4.4332.0012,8.1613-2.003,10.1362-5.9404,1.8939-3.6363,2.7267-8.6437,3.1539-15.5832,1.5097-.1212,2.9338-.5246,4.2346-1.1534,2.8492,3.2138,10.7833,11.1751,21.0321,11.3164,5.6469,0,10.0617-3.4528,13.1231-7.8794,2.7306-3.9341,4.5969-8.7461,5.6992-13.3848.226.0121.4498.0343.679.0343,1.8593,0,3.6097-.435,5.1823-1.1879,1.0438,1.2159,2.774,3.0815,5.041,4.97,3.7988,3.1441,9.1297,6.4479,15.4,6.4737h.0938c5.7956,0,10.4922-2.1232,13.9246-5.7263,3.1136-3.247,5.2533-7.5744,6.8441-12.5829.3317.0286.6651.0512,1.0031.0512,1.2705,0,2.4935-.1995,3.64-.5648,2.3573,3.0998,8.8796,10.5589,18.4459,10.7076,2.9079.0277,5.4357-1.5323,6.9261-3.8471,1.5214-2.3156,2.2301-5.3151,2.2361-8.6938,0-2.218-.3152-4.6068-.964-7.0931-.0832-.3203-.2419-.6108-.4639-.8528-.0024-.0027-.9734-1.0567-2.4914-3.0101-4.5809-5.8398-13.6512-19.4886-13.6011-33.3183.0403-5.6585,2.0643-9.1325,5.4132-11.5452,3.3666-2.3942,8.3219-3.5678,13.973-3.5605.6312,0,1.2314-.3022,1.6091-.8069.378-.505.4954-1.1659.3175-1.7705-.6504-2.2031-.9052-3.972-.9052-5.3531.0529-2.9154.953-4.0077,2.1304-4.824,1.205-.7971,3.0205-1.0797,4.5368-1.0705,1.5103-.0093,3.3216.2734,4.5291,1.0705,1.1752.8135,2.0792,1.9086,2.1288,4.824.0037,1.3811-.2526,3.1521-.9001,5.3558-.1787.6035-.0607,1.2644.3169,1.7693.378.5065.98.8054,1.6104.8054,5.6508-.0072,10.6033,1.1663,13.9699,3.5605,3.3495,2.4126,5.3739,5.8866,5.4174,11.5452.0093,9.2174-3.9708,18.3643-8.0341,25.1609-2.0222,3.397-4.0561,6.2073-5.5712,8.1573-1.519,1.9534-2.4914,3.004-2.4891,3.0101-.2266.242-.3821.5307-.4675.8495-.6516,2.4873-.9628,4.8785-.9628,7.0965.006,3.3787.7159,6.3808,2.2373,8.6938,1.477,2.295,3.9723,3.8471,6.8489,3.8471h.0778c9.5667-.1487,16.0872-7.6096,18.4435-10.7088,1.1494.3649,2.3724.565,3.6423.565.3378,0,.6702-.0228,1.0025-.0502,1.5935,5.0073,3.7316,9.3348,6.8456,12.584,3.4273,3.5993,8.1218,5.7229,13.9114,5.7229h.1042c6.2703-.0225,11.6039-3.3273,15.4016-6.4714,2.2676-1.8894,3.9972-3.7541,5.0418-4.97,1.5724.7529,3.3246,1.1879,5.1816,1.1879.2322,0,.4542-.021.6802-.0343,1.1029,4.6405,2.9682,9.4495,5.6988,13.386,3.0629,4.4244,7.4756,7.8776,13.1231,7.8803,10.2465-.1422,18.1812-8.1046,21.0314-11.3185,1.2991.6277,2.7234,1.0311,4.2331,1.1534.4272,6.9396,1.2606,11.9499,3.1523,15.5827,1.9742,3.9342,5.7058,5.9394,10.1378,5.9394.1081,0,.2184-.0006.3263-.0038,5.4997-.0286,10.0779-3.0972,13.3249-5.9765,1.4087-1.2561,2.5597-2.4875,3.4349-3.5018.8186,1.0004,1.7965,1.8592,2.8937,2.5521ZM492.7557,195.1749h0c.0155-3.1563-1.7807-6.2598-5.041-6.9523l-24.7824-4.9412c-.3648-.0744-.7369-.1125-1.1073-.1125-3.4195.0612-6.0288,2.8227-6.7255,6.2675-.1196.5838-.1746,1.1657-.1746,1.7357-.0095,3.1556,1.7831,6.2564,5.0455,6.9543l24.7855,4.9448c.3704.0742.7387.1063,1.1035.1063,3.4195-.0606,6.0311-2.8226,6.7223-6.2625.1196-.5865.174-1.1675.174-1.7401ZM497.7617,199.3809h0c0,3.4944,1.6744,6.5909,4.2572,8.5533-15.7339-4.6555-35.9326-9.3454-59.9532-12.0644,4.6581-1.1755,8.1157-5.3822,8.1157-10.4123,0-5.0715-3.5129-9.3085-8.2297-10.4423,24.6891,2.6451,44.4186,6.9792,59.5601,11.2492,2.9093.8202,5.6453,1.6365,8.2182,2.439-.4007-.0458-.8048-.0745-1.2185-.0745-5.9362,0-10.7482,4.8114-10.7497,10.752ZM596.6795,123.3469h0c-2.7322-1.0142-6.5073-2.0185-10.5881-2.0157-5.0186.0103-9.4242,1.7741-12.6619,5.3045-3.0608,3.3518-5.1187,8.4254-5.3338,15.4255,1.4243-.5981,2.9908-.9295,4.6372-.9304,2.5425.0009,4.899.7974,6.8419,2.1485,1.3249-1.9815,3.5942-5.2375,6.344-8.641,3.3666-4.0931,7.2691-8.4386,11.42-11.0401-.2127-.0834-.4332-.1676-.6591-.2514ZM572.7329,145.1516h0c-4.4149.0077-7.9828,3.5771-7.9905,7.9868.0078,4.4128,3.5756,7.981,7.9905,7.9888,4.4072-.0078,7.9773-3.5761,7.9851-7.9888-.0078-4.4097-3.5778-7.9791-7.9851-7.9868ZM536.9027,183.4395h0c-.0093-.0053-.0241-.0077-.0376-.012-.0075-.0027-.0153-.0078-.0231-.0106-11.7974-4.1927-61.1967-24.5469-136.8387-24.5601-75.6636.0132-125.0677,20.3766-136.8503,24.5628-.0066.0018-.0117.0051-.0183.0078-.0082.0027-.0175.0055-.0274.0082-4.355,1.5333-6.7861,2.7377-7.8373,3.688-.9893.9515-1.1013,1.3697-1.1657,3.1317.0099,2.7841,2.1208,4.8958,4.5741,4.9012.3599.0286,1.8074-.2999,3.7728-.9828,1.996-.6786,4.6278-1.6728,7.8733-2.8726,6.5005-2.4031,15.4755-5.636,27.0739-8.905,23.201-6.5442,56.9131-13.24,102.574-13.9013h.0586c79.8525,1.1303,123.3346,20.8628,137.5161,25.679,1.9688.6829,3.4141,1.0114,3.7767.9828,2.4549-.0055,4.5666-2.1171,4.5743-4.9012-.0646-1.762-.1764-2.1803-1.1696-3.1317-1.05-.9497-3.4732-2.1523-7.8258-3.6842ZM259.3945,211.2687h0l10.8946,5.0484,3.2354-11.9166-11.1123-4.8852-3.0176,11.7535ZM526.4804,204.3993h0l3.2338,11.9178,10.8912-5.0478-3.0149-11.7544-11.1102,4.8844ZM227.272,141.1309h0c1.6425.0009,3.2062.3323,4.6311.9287-.2154-6.998-2.2736-12.072-5.3338-15.4226-3.2398-3.5292-7.6432-5.2954-12.6562-5.3057-4.4244-.0077-8.485,1.1802-11.2508,2.2664,4.151,2.6021,8.056,6.9475,11.4205,11.0402,2.752,3.4036,5.0214,6.6594,6.3463,8.6414,1.9423-1.3511,4.297-2.1475,6.8429-2.1485ZM440.8008,125.604h0c4.4073-.0077,7.9794-3.5789,7.9849-7.9883-.0055-4.4106-3.5776-7.9806-7.9849-7.99-4.4151.0094-7.9806,3.5794-7.9884,7.99.0078,4.4094,3.5733,7.9806,7.9884,7.9883ZM488.2895,113.6092h0c.2322,0,.4542.0221.6802.0348l4.9733-20.9543c.258-1.0809,1.3405-1.7473,2.423-1.491,1.0788.2562,1.7467,1.3399,1.4889,2.4214l-4.964,20.9069c1.3977.5799,2.6544,1.4181,3.7254,2.45.3589-.3329.7633-.7204,1.2215-1.1675,1.6365-1.6046,3.8218-3.8825,5.9963-6.5485,4.3785-5.3085,8.5488-12.2479,8.4881-17.9167.042-2.423-1.9654-5.1431-6.0573-7.3011-4.0314-2.1336-9.8459-3.5316-16.2887-3.5265-2.3756.0078-4.578.6018-6.2207,2.2378-1.6407,1.6353-2.9945,4.5702-2.9984,9.956-.0054,4.9607,1.2153,11.9391,4.2992,21.3516,1.0308-.2876,2.1133-.453,3.2333-.453ZM473.2373,133.7709h0c1.6656,0,3.5319-.2652,5.5696-.8064-1.5796-2.0317-2.5254-4.5755-2.5278-7.3472,0-.9145.1141-1.8013.3058-2.658-6.3424-2.4714-12.1242-4.5362-12.1359-4.541-1.044-.3737-1.5929-1.523-1.217-2.5692.3722-1.045,1.5229-1.5911,2.5675-1.2171.0132.0045,5.8845,2.1012,12.3255,4.6113.8505-1.3548,1.9617-2.5293,3.2697-3.4476-.3643-1.0991-.7123-2.1749-1.0292-3.2135-1.7047-2.4803-4.6993-4.9403-7.6977-6.6935-3.025-1.82-6.2339-2.8737-7.377-2.8232-.4923.0024-1.05.1995-1.7644.8616-.7021.6543-1.4601,1.7538-2.1078,3.2023-1.3102,2.8997-2.1893,7.1544-2.1838,11.8642-.0055,3.549,1.2005,7.3212,3.5228,10.1005,2.3392,2.7745,5.6814,4.6597,10.4796,4.6768ZM488.2895,117.6282h0c-4.4128.009-7.9788,3.5772-7.9899,7.989.0111,4.4116,3.5772,7.9788,7.9899,7.9855,4.4117-.0066,7.9812-3.5767,7.989-7.9855-.0078-4.4118-3.5772-7.98-7.989-7.989ZM553.9358,156.2878h0c1.7926.0015,4.1129-.435,6.9158-1.4888-.0762-.5451-.1291-1.0957-.1291-1.6606,0-1.2645.1995-2.4848.5624-3.6307-3.7067-1.0803-6.0615-2.4253-6.16-2.4793h.0015c-.9645-.5506-1.2969-1.7781-.7478-2.7427.5522-.9607,1.7807-1.2941,2.7454-.7435,0-.0039.1367.0799.4767.2496.3379.1715.8449.4124,1.4965.6859,1.0368.4365,2.4455.9497,4.0975,1.384.2772-.3604.5699-.7063.8812-1.0331-.0186-.5351-.0436-1.0752-.0457-1.5983,0-2.256.1841-4.3659.5186-6.349-.3206-.1908-.6895-.3981-1.1392-.6146-1.3581-.6532-3.2134-1.2798-5.1347-1.2739-2.347-.0363-4.9183,1.765-6.9174,4.9117-1.9865,3.1015-3.2569,7.3285-3.2492,11.1824.0075,1.6623.4936,2.8767,1.3502,3.7254.86.8424,2.2291,1.4652,4.4773,1.4757ZM534.0354,144.7216h0c4.4096-.0076,7.9773-3.5761,7.989-7.9866-.0117-4.4111-3.5794-7.9811-7.989-7.9888-4.4128.0077-7.9788,3.5777-7.9866,7.9888.0078,4.4105,3.5739,7.979,7.9866,7.9866ZM499.0127,120.2405h0c.5624,1.12.953,2.3392,1.1431,3.6267,7.527,1.1101,13.3718,1.681,13.3872,1.6834,1.1029.1079,1.9122,1.0902,1.8056,2.1958-.1025,1.0407-.9815,1.8156-2.003,1.8156-.0628,0-.1295-.0037-.1956-.01-.0192-.0027-5.6925-.5577-13.078-1.6364-.7042,3.6307-3.0413,6.671-6.2183,8.3359.4008.4157.8692.8622,1.4072,1.3087,2.0355,1.6783,4.9385,3.2867,8.702,3.2867,4.4701-.0286,7.5789-1.4595,10.1082-4.2364,3.1312-3.4063,6.2075-11.1769,6.1501-16.9583-.015-2.0151-.355-2.999-1.126-3.6598-.7861-.7099-2.7455-1.4181-6.6115-1.4034-2.2257,0-5.0493.2156-8.5395.6819-2.0113,2.1947-3.8016,3.9233-4.9315,4.9695ZM359.201,125.604h0c4.4121-.0077,7.9827-3.5777,7.9905-7.9883-.0078-4.4106-3.5784-7.9816-7.9905-7.9888-4.4091.0072-7.9785,3.5782-7.9867,7.9888.0082,4.4106,3.5776,7.9806,7.9867,7.9883ZM227.272,145.1516h0c-4.411.0089-7.9806,3.5783-7.9876,7.9877.007,4.4118,3.5766,7.9812,7.9876,7.9894,4.41-.0082,7.98-3.5776,7.9872-7.9894-.0072-4.4094-3.5772-7.9788-7.9872-7.9877ZM265.9679,144.7222h0c4.4094-.0094,7.9783-3.5772,7.9861-7.9882-.0078-4.4123-3.5766-7.979-7.9861-7.986-4.4117.007-7.9817,3.5737-7.9896,7.986.0078,4.411,3.5778,7.9788,7.9896,7.9882ZM235.9229,144.827h0c.3175.3274.6096.6768.888,1.0383,2.6898-.706,4.7147-1.6332,5.5895-2.0724.3377-.1703.4762-.2508.4789-.2508.9613-.5522,2.1877-.2172,2.7417.7435.5522.9628.2182,2.1915-.7436,2.7427-.0998.054-2.4545,1.4005-6.16,2.4793.3615,1.1459.561,2.3661.561,3.6316,0,.565-.0523,1.1157-.1283,1.6596,2.8027,1.0517,5.1205,1.4894,6.9141,1.4888,2.2499-.0116,3.6172-.6327,4.4783-1.4745.8565-.8511,1.3426-2.0663,1.3516-3.7277.0082-3.8527-1.2612-8.0813-3.2494-11.1795-1.9997-3.1468-4.5726-4.9475-6.9189-4.9133-2.5447-.0247-4.9778,1.1228-6.279,1.8846.335,1.9843.5209,4.0958.5203,6.3529,0,.5203-.0258,1.0604-.0441,1.5967ZM296.0359,140.8458h0c4.733.0408,8.2132-2.6374,10.1092-4.5942-3.1747-1.665-5.5102-4.7074-6.2156-8.3359-7.3837,1.0764-13.0576,1.6332-13.0774,1.636-.0676.0066-.134.0103-.1983.0103-1.0241,0-1.8972-.7766-1.9981-1.8171-.1079-1.1025.7006-2.0879,1.8062-2.1955.0111-.0027,5.8559-.572,13.3838-1.6822.1886-1.2876.5783-2.5068,1.1416-3.6267-1.1299-1.0462-2.9196-2.7753-4.9298-4.9707-3.4967-.463-6.3183-.6807-8.5412-.6807-3.8659-.0147-5.8254.6925-6.6086,1.4034-.7729.6625-1.113,1.6463-1.1289,3.6598-.0562,5.7802,3.0211,13.5536,6.1528,16.9598,2.5278,2.7753,5.6381,4.2062,10.1043,4.2337ZM311.7121,117.6294h0c-4.4094.0084-7.98,3.5761-7.9876,7.9879.0076,4.411,3.5782,7.98,7.9876,7.9871,4.4112-.0071,7.9806-3.5762,7.9884-7.9871-.0078-4.4118-3.5772-7.9794-7.9884-7.9879ZM298.6574,112.1689h0c1.2798,1.4255,2.4939,2.6711,3.5072,3.6385.4573.4492.8632.8355,1.2207,1.1696,1.0692-1.0319,2.3289-1.8702,3.7238-2.45l-4.964-20.9086c-.2563-1.0786.4113-2.1622,1.491-2.4196,1.0792-.254,2.1618.41,2.4208,1.4922l4.976,20.9532c.226-.0127.4492-.0348.679-.0348,1.1233,0,2.2036.1654,3.235.4542,3.08-9.4125,4.3009-16.3893,4.297-21.3539-.0078-5.385-1.3603-8.3196-3.0013-9.9549-1.6409-1.6348-3.8434-2.2312-6.2189-2.2363-6.4439-.007-12.2561,1.3901-16.2887,3.5249-4.0903,2.1589-6.0999,4.8781-6.0564,7.3011-.1283,6.7894,5.9329,15.2032,10.9239,20.7652.0165.021.0364.0387.0547.0595ZM318.6081,115.7957c.3626-1.0979.7082-2.1734,1.0234-3.2117,1.706-2.4809,4.7023-4.9397,7.7018-6.6947,3.0238-1.82,6.2348-2.8743,7.3797-2.8243.4884.003,1.0473.1997,1.7632.8622,2.2009,1.95,4.3478,8.0038,4.2926,15.0681.0045,3.5475-1.2021,7.3187-3.5265,10.0977-2.3404,2.7769-5.6833,4.6588-10.4797,4.678-1.6683,0-3.533-.2652-5.5685-.8064,1.5785-2.0317,2.5254-4.5761,2.5254-7.3472,0-.9145-.1102-1.8013-.3049-2.6568,6.3442-2.4726,12.125-4.5386,12.1367-4.5428,1.0471-.3743,1.5923-1.524,1.218-2.5686-.3737-1.0462-1.524-1.5911-2.569-1.218-.0116.0043-5.8818,2.101-12.3233,4.6134-.8538-1.356-1.9639-2.5305-3.269-3.4488Z" style="fill: #d5b416;"/>
  <path d="M298.2186,199.3786h0c-.0048-3.7169-3.0133-6.7237-6.7276-6.7309-3.7172.0072-6.725,3.014-6.7317,6.7309.0066,3.7173,3.0145,6.7239,6.7317,6.7318,3.7143-.0078,6.7228-3.0145,6.7276-6.7318M367.2988,185.4581h0c-.0076-3.7167-3.0139-6.7245-6.7287-6.7312-3.7178.0066-6.7239,3.0145-6.7317,6.7312.0078,3.7154,3.0139,6.7221,6.7317,6.7299,3.7149-.0077,6.7211-3.0117,6.7287-6.7299ZM446.1632,185.4575h0c-.0078-3.7156-3.0133-6.7233-6.7278-6.7306-3.7199.0072-6.7276,3.0149-6.7348,6.7306.0072,3.716,3.0149,6.7227,6.7348,6.7309,3.7145-.0082,6.7201-3.0149,6.7278-6.7309ZM501.7791,199.3809c.0084-3.7184,3.0157-6.7261,6.7323-6.7333,3.7137.0072,6.7255,3.0149,6.7309,6.7333-.0054,3.7149-3.0172,6.7215-6.7309,6.7294-3.7166-.0078-6.7239-3.0145-6.7323-6.7294Z" style="fill: #eb303a;"/>
</svg>