<?xml version="1.0" encoding="UTF-8"?>
<svg data-name="图层_1" xmlns="http://www.w3.org/2000/svg" version="1.1" viewBox="0 0 800 800">
  <!-- Created by @FCLOGO 2025-1-21 GMT+8 21:56:15 . https://fclogo.top/ -->
<!-- FOR PERSONAL USE ONLY NOT FOR COMMERCIAL USE -->
  <path d="M348.2194,774.301c-.786,0-1.3752-.2173-1.7682-.6519-.393-.4352-.5284-1.03-.406-1.7856l.2518-1.6478c.122-.755.4501-1.3504.9841-1.785.5339-.4352,1.1939-.6525,1.9799-.6525.7553,0,1.3293.1987,1.7223.5954.3927.3967.551.9381.4747,1.6248h-1.2358c.0304-.3589-.0553-.637-.2573-.8357-.2024-.1981-.4979-.2974-.8869-.2974-.4197,0-.763.1167-1.03.3489-.2673.2328-.4349.5631-.5035.9903l-.2632,1.659c-.0686.4352-.0056.7686.1887,1.0015.1946.2328.5017.3489.9214.3489.389,0,.7152-.0987.9785-.2974.2632-.1981.4365-.4805.5206-.8469h1.2358c-.1372.6867-.4672,1.2306-.9897,1.631-.5228.4005-1.1616.6004-1.9169.6004ZM352.7967,774.1868l.9956-6.2943h1.1902l-.1946,1.1902c.3359-.8698.9729-1.3044,1.9113-1.3044.6712,0,1.1691.208,1.4932.624.3244.416.4293.9859.3148,1.7105l-.0686.4234h-1.2703l.0571-.3204c.0689-.4501.0115-.7953-.1714-1.0356-.1832-.2403-.4771-.3607-.8813-.3607-.4045,0-.7401.1223-1.007.3663-.2673.2446-.4349.588-.5035,1.03l-.6296,3.9711h-1.2358ZM361.9058,774.301c-.7705,0-1.3463-.2229-1.7279-.6693s-.515-1.0356-.4005-1.7682l.2518-1.6478c.0838-.488.2573-.9152.5206-1.2815s.6007-.6507,1.0129-.8524c.4119-.2024.8732-.3036,1.3845-.3036.7705,0,1.3485.2235,1.7338.6693.3852.4464.5169,1.0356.3949,1.7682l-.1717,1.1213h-3.845l-.0916.5265c-.1527.9536.2173,1.4305,1.1098,1.4305.7171,0,1.175-.2477,1.3734-.7438h1.2247c-.1679.5339-.5035.9599-1.007,1.2759-.5038.3166-1.0912.475-1.7626.475ZM361.2306,770.2157l-.0456.2862,2.6548-.0118.0459-.2856c.0686-.4656.0133-.822-.1661-1.0704-.1791-.2477-.4861-.3719-.9211-.3719-.4427,0-.7953.126-1.0586.3775-.2632.2521-.4331.6109-.5094,1.076ZM368.3258,774.301c-.6333,0-1.1027-.2117-1.4078-.6351s-.3967-1.0008-.2744-1.7335l.2744-1.7738c.1145-.7326.393-1.3119.8357-1.7397.4424-.4272.98-.6407,1.6133-.6407.4653,0,.8298.1186,1.093.3545.2632.2365.3908.5575.3834.9617h.023l.1717-1.202h1.2358l-.9956,6.2943h-1.2247l.1946-1.2014h-.023c-.122.4116-.3511.7339-.6867.9667s-.7401.3489-1.2129.3489ZM368.9324,773.2257c.389,0,.7152-.1186.9782-.3551.2632-.2359.4293-.5718.4979-1.007l.2518-1.6478c.0686-.4272.0096-.7612-.1773-1.0015-.1872-.2403-.475-.3601-.8642-.3601-.3967,0-.7249.118-.9841.3545-.2595.2365-.4234.5724-.492,1.007l-.2518,1.6478c-.0686.4427-.0133.7804.1658,1.0133.1794.2328.4712.3489.8757.3489ZM376.3477,774.1868c-.5721,0-.9937-.1565-1.2644-.4694-.271-.3123-.3607-.7512-.2691-1.3156l.538-3.3874h-1.7394l.1714-1.1219h1.7397l.2747-1.7161h1.2358l-.2747,1.7161h2.472l-.1832,1.1219h-2.4605l-.5377,3.3874c-.0764.4421.099.6637.5262.6637h1.7167l-.1717,1.1213h-1.7738ZM382.5042,774.301c-.7705,0-1.3463-.2229-1.7279-.6693s-.515-1.0356-.4005-1.7682l.2518-1.6478c.0838-.488.2573-.9152.5206-1.2815s.6007-.6507,1.0129-.8524c.4119-.2024.8732-.3036,1.3845-.3036.7705,0,1.3485.2235,1.7338.6693.3852.4464.5169,1.0356.3949,1.7682l-.1717,1.1213h-3.845l-.0916.5265c-.1527.9536.2173,1.4305,1.1098,1.4305.7171,0,1.175-.2477,1.3734-.7438h1.2247c-.1679.5339-.5035.9599-1.007,1.2759-.5038.3166-1.0912.475-1.7626.475ZM381.829,770.2157l-.0456.2862,2.6548-.0118.0459-.2856c.0686-.4656.0133-.822-.1661-1.0704-.1791-.2477-.4861-.3719-.9211-.3719-.4427,0-.7953.126-1.0586.3775-.2632.2521-.4331.6109-.5094,1.076ZM388.9243,774.301c-.6333,0-1.1008-.2117-1.4019-.6351-.3014-.4234-.3949-1.0008-.2803-1.7335l.2744-1.7738c.1145-.7326.393-1.3119.8357-1.7397.4424-.4272.98-.6407,1.6133-.6407.4653,0,.8298.1186,1.093.3545.2632.2365.3908.5575.3834.9617h.023l.2058-1.4652.2977-1.7962h1.2358l-1.3274,8.3537h-1.2247l.1946-1.2014h-.023c-.122.4116-.3511.7339-.6867.9667s-.7401.3489-1.2129.3489ZM389.5309,773.2257c.389,0,.7152-.1186.9782-.3551.2632-.2359.4293-.5718.4979-1.007l.2518-1.6478c.0761-.4272.0189-.7612-.1717-1.0015-.1909-.2403-.4805-.3601-.8698-.3601-.3967,0-.7249.118-.9841.3545-.2595.2365-.4234.5724-.492,1.007l-.2518,1.6478c-.0764.4427-.023.7804.1602,1.0133s.4768.3489.8813.3489ZM401.0175,774.301c-.4731,0-.8394-.1161-1.0986-.3489-.2595-.2328-.3852-.5551-.3775-.9667h-.0115l-.1946,1.2014h-1.2243l1.3274-8.3537h1.2358l-.2862,1.7962-.2744,1.4652h.0456c.122-.4123.353-.7345.6923-.9673.3396-.2322.7419-.3489,1.2076-.3489.633,0,1.1002.2136,1.4016.6407.3014.4278.3949,1.007.2806,1.7397l-.2747,1.7738c-.1145.7326-.3949,1.31-.8413,1.7335-.4461.4234-.9822.6351-1.6077.6351ZM400.7657,773.2257c.3967,0,.7227-.1161.9785-.3489.2555-.2328.4216-.5706.4976-1.0133l.2518-1.6478c.0689-.4346.0115-.7705-.1714-1.007-.1832-.2365-.4734-.3545-.8698-.3545-.3893,0-.7152.1198-.9785.3601s-.429.5743-.4979,1.0015l-.2518,1.6478c-.0686.4352-.0112.7711.1717,1.007.1832.2365.4731.3551.8698.3551ZM405.4694,776.2468l.1717-1.0642h1.934c.6407,0,1.007-.3017,1.0986-.9046l.1028-.6749.2061-1.1902h-.0345c-.122.4197-.3471.7438-.6752.9729-.3281.2285-.7286.3433-1.2014.3433-.6258,0-1.093-.2005-1.4019-.601s-.4104-.9443-.3033-1.631l.5836-3.6047h1.2358l-.5606,3.4793c-.0612.4116,0,.732.1832.9611s.4653.3433.8469.3433c.389,0,.7168-.1217.9841-.3663.267-.244.4309-.5836.492-1.0182l.538-3.3992h1.2358l-1.007,6.4086c-.0993.6029-.37,1.0778-.8124,1.4249-.4427.3471-.9996.5209-1.6707.5209h-1.9455ZM417.787,770.0853h3.221l.5368-1.8545h-5.4659l-1.7081,6.4419h2.1473l.5856-2.0985h3.0257l.4392-1.7081h-3.0257l.244-.7808ZM424.229,772.9158c-.5856,0-1.0249-.3904-1.0249-1.1225,0-.8784.6344-1.7569,1.6105-1.7569.488,0,.8784.244,1.0248.7808l1.9521-.8296c-.2928-1.1713-1.2689-1.9033-2.6353-1.9033-2.7817,0-4.1482,2.1473-4.1482,3.9042s1.2689,2.8305,3.0746,2.8305c1.3665,0,2.3425-.5856,2.9769-1.4153l-1.5129-1.1713c-.3904.4392-.8296.6832-1.3177.6832ZM430.9149,768.2308h-2.1473l-1.7569,6.4419h5.1242l.488-1.8545h-2.9281l1.2201-4.5874ZM439.7481,771.0125c0-1.6593-1.3177-2.9281-3.221-2.9281-2.1961,0-3.8066,1.8057-3.8066,3.8066,0,1.6593,1.3177,2.9281,3.221,2.9281,2.1961,0,3.8066-1.8057,3.8066-3.8066ZM434.9167,771.6957c0-.8296.5856-1.7081,1.5129-1.7081.7808,0,1.1713.5368,1.1713,1.2201,0,.8296-.5856,1.7081-1.5129,1.7081-.7808,0-1.1713-.5368-1.1713-1.2201ZM443.2131,772.2326h1.0737l-.1952.6832c-.1464.0488-.3416.0976-.5856.0976-.6832,0-1.2689-.3904-1.2689-1.2201,0-1.0249.732-1.9033,1.9521-1.9033.5856,0,1.1225.244,1.5129.5856l1.3665-1.3665c-.4392-.5368-1.5129-1.0737-2.7329-1.0737-2.5865,0-4.2946,1.7569-4.2946,3.8554,0,2.0497,1.6105,2.8793,3.221,2.8793.9272,0,1.8545-.2928,2.4889-.6832l.9272-3.3186h-3.1234l-.3416,1.4641ZM450.7775,768.0844c-2.1961,0-3.8066,1.8057-3.8066,3.8066,0,1.6593,1.3177,2.9281,3.221,2.9281,2.1961,0,3.8066-1.8057,3.8066-3.8066,0-1.6593-1.3177-2.9281-3.221-2.9281ZM450.3382,772.9158c-.7808,0-1.1713-.5368-1.1713-1.2201,0-.8296.5856-1.7081,1.5129-1.7081.7808,0,1.1713.5368,1.1713,1.2201,0,.8296-.5856,1.7081-1.5129,1.7081ZM437.9424,767.4987c-.0488.2928.0976.488.4392.488s.5368-.1952.6344-.488c.0488-.244-.0976-.488-.4392-.488s-.5856.244-.6344.488ZM432.1349,765.4978c-.4392,0-.732.244-.7808.5856s.0976.5856.5368.5856.732-.244.7808-.5856c.0976-.3416-.0976-.5856-.5368-.5856ZM433.0134,767.3035c-.0976.5368.1464.8784.8296.8784.6344,0,1.0737-.3904,1.1713-.8784s-.1464-.8784-.8296-.8784c-.6832,0-1.0737.3904-1.1713.8784ZM439.6017,777.552l-2.4401-1.8057h-1.5129l4.2458,3.1722,1.6105-3.1722h-.976l-.9272,1.8057ZM425.8394,767.1571l-2.0009-1.4641,23.1323-2.7817-2.1473,4.2458h1.0248l2.6841-5.3195-26.9877,3.221,2.7817,2.0985h1.5129ZM338.7186,785.7853l.6088-3.8315h2.32l-.084.5194h-1.7636l-.1837,1.1445h1.6272l-.084.5248h-1.6166l-.2573,1.6428h-.5668ZM342.97,785.8377c-.3568,0-.6228-.1005-.7978-.3019-.175-.201-.2345-.473-.1784-.8161l.2677-1.7006c.056-.3429.2029-.6148.4408-.8161.2379-.201.5355-.3019.8923-.3019s.6228.1.7979.2993c.1748.1993.2361.4707.1837.8136l-.2677,1.7057c-.0561.3431-.2039.6151-.4435.8161-.2398.2013-.5381.3019-.895.3019ZM343.0487,785.3339c.1925,0,.3483-.0524.4672-.1575.119-.1051.1942-.2571.2257-.4568l.2678-1.7006c.0315-.1993.0051-.3517-.0787-.4565-.084-.1051-.2223-.1575-.4148-.1575s-.3473.0524-.4645.1575c-.1173.1048-.1916.2571-.2231.4565l-.2677,1.7006c-.0315.1996-.0053.3517.0787.4568s.2204.1575.4094.1575ZM344.9961,785.7853l.6088-3.8315h1.202c.2379,0,.4391.0464.6036.139.1645.0928.2835.223.357.391s.091.3656.0524.5932c-.0384.2591-.14.4838-.3044.6746-.1645.1905-.3656.3209-.6036.391l.5354,1.6428h-.6194l-.4777-1.5748h-.5406l-.2466,1.5748h-.5668ZM345.8883,783.7068h.6352c.1889,0,.349-.0558.4803-.168.1313-.1119.2107-.2623.2388-.4514.0316-.1925,0-.3454-.0944-.4593-.0945-.1136-.2362-.1706-.4252-.1706h-.6352l-.1995,1.2493ZM349.545,785.7853l.6088-3.8315h1.2544c.3709,0,.6508.1048.8399.315.1889.2099.2553.4898.1993.8398-.0384.2344-.1216.4383-.2493.6114s-.2905.307-.4881.4015c-.1978.0945-.419.1418-.6639.1418h-.6928l-.2415,1.5221h-.5668ZM350.432,783.754h.6928c.1924,0,.3568-.0587.4934-.176.1364-.117.2204-.2737.2519-.4696s-.0017-.3525-.0997-.4699-.245-.1757-.441-.1757h-.6876l-.2099,1.2911ZM352.7466,785.7853l.6088-3.8315h2.2518l-.0787.5038h-1.6954l-.1731,1.0867h1.5115l-.0787.4986h-1.5115l-.1942,1.2387h1.6901l-.0787.5038h-2.2518ZM355.8434,785.7853l.6088-3.8315h1.202c.2379,0,.4391.0464.6036.139.1645.0928.2835.223.357.391s.091.3656.0524.5932c-.0384.2591-.14.4838-.3044.6746-.1645.1905-.3656.3209-.6036.391l.5354,1.6428h-.6194l-.4777-1.5748h-.5406l-.2466,1.5748h-.5668ZM356.7356,783.7068h.6352c.1889,0,.349-.0558.4803-.168.1313-.1119.2107-.2623.2388-.4514.0316-.1925,0-.3454-.0944-.4593-.0945-.1136-.2362-.1706-.4252-.1706h-.6352l-.1995,1.2493ZM360.1316,785.8377c-.385,0-.6736-.0951-.8661-.2859-.1924-.1908-.2641-.4505-.2151-.7794h.5668c-.028.1748.0105.3121.1155.4121.1051.0997.266.1495.483.1495.2029,0,.3701-.049.5012-.1469.1313-.098.2109-.2327.2389-.4044.0209-.1504.0007-.2788-.0604-.3856-.0614-.1068-.1583-.1811-.2913-.2233l-.4566-.1364c-.266-.0803-.4619-.217-.5879-.4095-.126-.1922-.1697-.4197-.1313-.6823.035-.2099.1121-.3935.2309-.551s.2729-.2799.4619-.3673.4024-.1313.6404-.1313c.3498,0,.6158.0954.7978.2859.182.1908.2485.4437.1995.7586h-.5668c.0279-.168-.0027-.3001-.092-.3964-.0891-.0963-.2301-.1444-.4225-.1444-.1889,0-.343.0447-.4619.1338-.119.0894-.1889.2144-.21.3753-.0245.1506-.007.2791.0525.3859s.1575.1811.2939.223l.4672.1469c.2624.0806.4558.2173.5801.4095.1242.1925.1653.4217.1233.6877-.035.217-.1155.4058-.2415.5667-.1259.1612-.2878.2862-.4855.3753-.1976.0894-.419.1338-.6639.1338ZM363.2651,785.8377c-.3568,0-.6228-.1005-.7978-.3019-.175-.201-.2345-.473-.1784-.8161l.2677-1.7006c.056-.3429.2029-.6148.4408-.8161.2379-.201.5355-.3019.8923-.3019s.6228.1.7979.2993c.1748.1993.2361.4707.1837.8136l-.2677,1.7057c-.0561.3431-.2039.6151-.4435.8161-.2398.2013-.5381.3019-.895.3019ZM363.3439,785.3339c.1925,0,.3483-.0524.4672-.1575.119-.1051.1942-.2571.2257-.4568l.2678-1.7006c.0315-.1993.0051-.3517-.0787-.4565-.084-.1051-.2223-.1575-.4148-.1575s-.3473.0524-.4645.1575c-.1173.1048-.1916.2571-.2231.4565l-.2677,1.7006c-.0315.1996-.0053.3517.0787.4568s.2204.1575.4094.1575ZM365.2754,785.7853l.6088-3.8315h.7086l.6194,3.186c.007-.098.0165-.217.0289-.3571.0121-.1398.0271-.2851.0446-.4354.0175-.1506.0367-.2888.0577-.4146l.315-1.9788h.525l-.609,3.8315h-.7085l-.6141-3.186c-.0071.0945-.0167.209-.0289.3437s-.0272.2757-.0446.4226c-.0177.1469-.0367.2833-.0578.4095l-.315,2.0102h-.5301ZM368.2252,785.7853l1.5851-3.8315h.7454l.3726,3.8315h-.5616l-.0735-.9711h-1.0865l-.3884.9711h-.5932ZM369.3852,784.3418h.8714l-.0893-1.1023c-.0175-.1959-.0298-.3654-.0367-.5089-.0071-.1435-.0105-.2432-.0105-.2993-.0175.0561-.0517.1558-.1024.2993s-.1146.3112-.1915.5038l-.441,1.1075ZM371.7208,785.7853l.6088-3.8315h.567l-.525,3.3118h1.6744l-.0787.5197h-2.2465ZM376.6785,785.8377c-.3673,0-.6342-.1005-.8003-.3019-.1663-.201-.2214-.475-.1654-.8213l.4357-2.7608h.567l-.4357,2.7554c-.0315.1962-.008.35.0708.4619.0787.1122.2144.168.4068.168.1925,0,.3473-.0558.4646-.168.1172-.1119.1915-.2657.2231-.4619l.4355-2.7554h.567l-.4357,2.7608c-.056.35-.2003.6245-.433.8241-.2328.1993-.5328.299-.9003.299ZM379.8435,785.8377c-.385,0-.6736-.0951-.8661-.2859-.1924-.1908-.2641-.4505-.2151-.7794h.5668c-.028.1748.0105.3121.1155.4121.1051.0997.266.1495.483.1495.2029,0,.3701-.049.5012-.1469.1313-.098.2109-.2327.2389-.4044.0209-.1504.0007-.2788-.0604-.3856-.0614-.1068-.1583-.1811-.2913-.2233l-.4566-.1364c-.266-.0803-.4619-.217-.5879-.4095-.126-.1922-.1697-.4197-.1313-.6823.035-.2099.1121-.3935.2309-.551s.2729-.2799.4619-.3673.4024-.1313.6404-.1313c.3498,0,.6158.0954.7978.2859.182.1908.2485.4437.1995.7586h-.5668c.0279-.168-.0027-.3001-.092-.3964-.0891-.0963-.2301-.1444-.4225-.1444-.1889,0-.343.0447-.4619.1338-.119.0894-.1889.2144-.21.3753-.0245.1506-.007.2791.0525.3859s.1575.1811.2939.223l.4672.1469c.2624.0806.4558.2173.5801.4095.1242.1925.1653.4217.1233.6877-.035.217-.1155.4058-.2415.5667-.1259.1612-.2878.2862-.4855.3753-.1976.0894-.419.1338-.6639.1338ZM381.9062,785.7853l.6088-3.8315h2.2518l-.0787.5038h-1.6954l-.1731,1.0867h1.5115l-.0787.4986h-1.5115l-.1942,1.2387h1.6901l-.0787.5038h-2.2518ZM386.9426,785.8377c-.3568,0-.6228-.1005-.7978-.3019-.175-.201-.2345-.473-.1784-.8161l.2677-1.7006c.056-.3429.2029-.6148.4408-.8161.2379-.201.5355-.3019.8923-.3019s.6228.1.7979.2993c.1748.1993.2361.4707.1837.8136l-.2677,1.7057c-.0561.3431-.2039.6151-.4435.8161-.2398.2013-.5381.3019-.895.3019ZM387.0213,785.3339c.1925,0,.3483-.0524.4672-.1575.119-.1051.1942-.2571.2257-.4568l.2678-1.7006c.0315-.1993.0051-.3517-.0787-.4565-.084-.1051-.2223-.1575-.4148-.1575s-.3473.0524-.4645.1575c-.1173.1048-.1916.2571-.2231.4565l-.2677,1.7006c-.0315.1996-.0053.3517.0787.4568s.2204.1575.4094.1575ZM388.9529,785.7853l.6088-3.8315h.7086l.6194,3.186c.007-.098.0165-.217.0289-.3571.0121-.1398.0271-.2851.0446-.4354.0175-.1506.0367-.2888.0577-.4146l.315-1.9788h.525l-.609,3.8315h-.7085l-.6141-3.186c-.0071.0945-.0167.209-.0289.3437s-.0272.2757-.0446.4226c-.0177.1469-.0367.2833-.0578.4095l-.315,2.0102h-.5301ZM392.249,785.7853l.6088-3.8315h.567l-.525,3.3118h1.6744l-.0787.5197h-2.2465ZM396.1174,785.7853l.2204-1.4119-.7506-2.4197h.5774l.4462,1.4486c.0279.0945.0498.1837.0656.2677.0157.084.0253.1469.0288.1888.0175-.0419.0464-.1048.0867-.1888.0402-.084.0883-.1731.1442-.2677l.8976-1.4486h.5984l-1.5275,2.4197-.2204,1.4119h-.5668ZM399.217,785.7853l.6088-3.8315h.7086l.6192,3.186c.0071-.098.0165-.217.029-.3571.012-.1398.0271-.2851.0444-.4354.0177-.1506.037-.2888.0578-.4146l.315-1.9788h.5248l-.6088,3.8315h-.7085l-.6141-3.186c-.0071.0945-.0167.209-.0289.3437s-.0272.2757-.0446.4226c-.0177.1469-.0367.2833-.0578.4095l-.315,2.0102h-.5301ZM403.5053,785.8377c-.3571,0-.6231-.1005-.7979-.3019-.1751-.201-.2344-.473-.1785-.8161l.2677-1.7006c.0561-.3429.203-.6148.4411-.8161.2378-.201.5354-.3019.8922-.3019.3571,0,.6228.1.7979.2993.1748.1993.2361.4707.1837.8136l-.2677,1.7057c-.0561.3431-.2039.6151-.4437.8161-.2395.2013-.5379.3019-.8947.3019ZM403.5839,785.3339c.1925,0,.3483-.0524.4673-.1575.1187-.1051.1942-.2571.2255-.4568l.2677-1.7006c.0316-.1993.0054-.3517-.0786-.4565-.084-.1051-.2224-.1575-.4146-.1575-.1925,0-.3474.0524-.4647.1575-.117.1048-.1914.2571-.223.4565l-.2677,1.7006c-.0316.1996-.0051.3517.0789.4568.0837.1051.2204.1575.4092.1575ZM406.3814,785.7853l.5248-3.3121h-1.0234l.084-.5194h2.6193l-.084.5194h-1.0289l-.5248,3.3121h-.567ZM409.5178,785.7853l.6088-3.8315h2.32l-.084.5194h-1.7636l-.1837,1.1445h1.6272l-.084.5248h-1.6166l-.2571,1.6428h-.567ZM413.7694,785.8377c-.3571,0-.6231-.1005-.7979-.3019-.1751-.201-.2344-.473-.1785-.8161l.2677-1.7006c.0561-.3429.203-.6148.4411-.8161.2378-.201.5354-.3019.8922-.3019.3571,0,.6228.1.7979.2993.1748.1993.2361.4707.1837.8136l-.2677,1.7057c-.0561.3431-.2039.6151-.4437.8161-.2395.2013-.5379.3019-.8947.3019ZM413.848,785.3339c.1925,0,.3483-.0524.4673-.1575.1187-.1051.1942-.2571.2255-.4568l.2677-1.7006c.0316-.1993.0054-.3517-.0786-.4565-.084-.1051-.2224-.1575-.4146-.1575-.1925,0-.3474.0524-.4647.1575-.117.1048-.1914.2571-.223.4565l-.2677,1.7006c-.0316.1996-.0051.3517.0789.4568.0837.1051.2204.1575.4092.1575ZM415.7952,785.7853l.6088-3.8315h1.202c.2381,0,.4391.0464.6037.139.1643.0928.2833.223.3568.391s.0911.3656.0527.5932c-.0387.2591-.1401.4838-.3044.6746-.1646.1905-.3659.3209-.6037.391l.5354,1.6428h-.6194l-.4776-1.5748h-.5408l-.2466,1.5748h-.567ZM416.6876,783.7068h.635c.1891,0,.3491-.0558.4804-.168.131-.1119.2107-.2623.2386-.4514.0316-.1925,0-.3454-.0945-.4593-.0943-.1136-.2361-.1706-.4252-.1706h-.635l-.1993,1.2493ZM420.905,785.8377c-.3602,0-.6308-.1005-.8107-.3019-.1803-.201-.2423-.473-.1865-.8161l.2677-1.7006c.0561-.3463.2056-.6194.4488-.8187s.545-.2993.9056-.2993c.3568,0,.6253.1008.8056.3019.1803.2013.2423.4733.1865.8161h-.567c.0313-.1993.0026-.3517-.0866-.4565-.0894-.1051-.2284-.1575-.4175-.1575-.1925,0-.3508.0524-.475.1575-.1242.1048-.2019.2554-.2335.4514l-.2677,1.7057c-.0316.1996-.0026.3517.0866.4568.0894.1051.2301.1575.4226.1575s.35-.0524.4724-.1575.1993-.2571.2309-.4568h.5667c-.0347.2275-.1145.4252-.2386.5932s-.2808.2976-.4699.3884c-.1888.0908-.4024.1364-.6404.1364ZM424.0335,785.8377c-.3571,0-.6231-.1005-.7979-.3019-.1751-.201-.2344-.473-.1785-.8161l.2677-1.7006c.0561-.3429.203-.6148.4411-.8161.2378-.201.5354-.3019.8922-.3019.3571,0,.6228.1.7979.2993.1748.1993.2361.4707.1837.8136l-.2677,1.7057c-.0561.3431-.2039.6151-.4437.8161-.2395.2013-.5379.3019-.8947.3019ZM424.1121,785.3339c.1925,0,.3483-.0524.4673-.1575.1187-.1051.1942-.2571.2255-.4568l.2677-1.7006c.0316-.1993.0054-.3517-.0786-.4565-.084-.1051-.2224-.1575-.4146-.1575-.1925,0-.3474.0524-.4647.1575-.117.1048-.1914.2571-.223.4565l-.2677,1.7006c-.0316.1996-.0051.3517.0789.4568.0837.1051.2204.1575.4092.1575ZM425.9653,785.7853l.6088-3.8315h.6874l.1837,1.2282c.0211.119.0367.2301.0473.3332.0105.1034.0194.1828.0262.2389.0177-.0561.0473-.1364.0894-.2415.0419-.1051.0908-.217.1469-.336l.5667-1.2228h.7088l-.6088,3.8315h-.5354l.2045-1.2911c.0245-.168.0578-.3525.1-.5539.0419-.201.0874-.4041.1364-.6088s.0963-.3998.1418-.5852c.0453-.1854.0874-.3483.1259-.4881l-.8554,1.8632h-.5513l-.2833-1.8632c-.0037.1364-.0105.2947-.0211.475s-.0236.3719-.0393.5747c-.0157.203-.035.4069-.0578.6114-.0228.2047-.0481.3964-.076.5749l-.2047,1.2911h-.5405ZM429.1145,785.7853l.6088-3.8315h.6874l.1837,1.2282c.0211.119.0367.2301.0473.3332.0105.1034.0194.1828.0262.2389.0177-.0561.0473-.1364.0894-.2415.0419-.1051.0908-.217.1469-.336l.5667-1.2228h.7088l-.6088,3.8315h-.5354l.2045-1.2911c.0245-.168.0578-.3525.1-.5539.0419-.201.0874-.4041.1364-.6088s.0963-.3998.1418-.5852c.0453-.1854.0874-.3483.1259-.4881l-.8554,1.8632h-.5513l-.2833-1.8632c-.0037.1364-.0105.2947-.0211.475s-.0236.3719-.0393.5747c-.0157.203-.035.4069-.0578.6114-.0228.2047-.0481.3964-.076.5749l-.2047,1.2911h-.5405ZM432.4107,785.7853l.6088-3.8315h2.2516l-.0786.5038h-1.6955l-.1731,1.0867h1.5115l-.0786.4986h-1.5118l-.1942,1.2387h1.6901l-.0786.5038h-2.2516ZM435.5073,785.7853l.6088-3.8315h1.202c.2381,0,.4391.0464.6037.139.1643.0928.2833.223.3568.391s.0911.3656.0527.5932c-.0387.2591-.1401.4838-.3044.6746-.1646.1905-.3659.3209-.6037.391l.5354,1.6428h-.6194l-.4776-1.5748h-.5408l-.2466,1.5748h-.567ZM436.3997,783.7068h.635c.1891,0,.3491-.0558.4804-.168.131-.1119.2107-.2623.2386-.4514.0316-.1925,0-.3454-.0945-.4593-.0943-.1136-.2361-.1706-.4252-.1706h-.635l-.1993,1.2493ZM439.8007,785.8377c-.3602,0-.6308-.1005-.8107-.3019-.1803-.201-.2423-.473-.1865-.8161l.2677-1.7006c.0561-.3463.2056-.6194.4488-.8187s.545-.2993.9056-.2993c.3568,0,.6253.1008.8056.3019.1803.2013.2423.4733.1865.8161h-.567c.0313-.1993.0026-.3517-.0866-.4565-.0894-.1051-.2284-.1575-.4175-.1575-.1925,0-.3508.0524-.475.1575-.1242.1048-.2019.2554-.2335.4514l-.2677,1.7057c-.0316.1996-.0026.3517.0866.4568.0894.1051.2301.1575.4226.1575s.35-.0524.4724-.1575.1993-.2571.2309-.4568h.5667c-.0347.2275-.1145.4252-.2386.5932s-.2808.2976-.4699.3884c-.1888.0908-.4024.1364-.6404.1364ZM441.8792,785.7853l.0789-.5038h.7768l.4459-2.824h-.7766l.0837-.5038h2.1258l-.084.5038h-.7766l-.4462,2.824h.7768l-.0789.5038h-2.1258ZM444.7399,785.7853l1.585-3.8315h.7452l.3728,3.8315h-.5616l-.0735-.9711h-1.0867l-.3884.9711h-.5929ZM445.8998,784.3418h.8714l-.0894-1.1023c-.0174-.1959-.0296-.3654-.0367-.5089-.0068-.1435-.0103-.2432-.0103-.2993-.0177.0561-.0518.1558-.1025.2993s-.1148.3112-.1916.5038l-.4408,1.1075ZM448.2354,785.7853l.6088-3.8315h.567l-.5248,3.3118h1.6741l-.0786.5197h-2.2465ZM453.1932,785.8377c-.3676,0-.6345-.1005-.8005-.3019-.1663-.201-.2213-.475-.1654-.8213l.4357-2.7608h.567l-.4357,2.7554c-.0316.1962-.008.35.0709.4619.0786.1122.2141.168.4066.168s.3474-.0558.4645-.168c.1173-.1119.1916-.2657.2233-.4619l.4357-2.7554h.5667l-.4357,2.7608c-.0558.35-.2002.6245-.4328.8241-.2329.1993-.5328.299-.9001.299ZM456.3581,785.8377c-.385,0-.6738-.0951-.866-.2859-.1925-.1908-.2643-.4505-.2153-.7794h.567c-.0282.1748.0105.3121.1153.4121.1051.0997.266.1495.483.1495.2028,0,.3699-.049.5012-.1469s.2107-.2327.2389-.4044c.0211-.1504.0009-.2788-.0604-.3856s-.1583-.1811-.2913-.2233l-.4568-.1364c-.266-.0803-.4619-.217-.5878-.4095-.1259-.1922-.1697-.4197-.1313-.6823.035-.2099.1119-.3935.2309-.551s.2731-.2799.4619-.3673c.1891-.0874.4024-.1313.6404-.1313.3497,0,.6157.0954.7979.2859.1817.1908.2483.4437.1993.7586h-.567c.0279-.168-.0026-.3001-.0917-.3964-.0894-.0963-.2301-.1444-.4226-.1444-.1891,0-.3429.0447-.4619.1338-.119.0894-.1891.2144-.2099.3753-.0245.1506-.0071.2791.0524.3859s.1575.1811.2939.223l.4673.1469c.2623.0806.4556.2173.5798.4095.1242.1925.1654.4217.1236.6877-.035.217-.1156.4058-.2415.5667-.1262.1612-.2879.2862-.4855.3753-.1979.0894-.4192.1338-.6641.1338ZM458.4209,785.7853l.6088-3.8315h2.2516l-.0786.5038h-1.6955l-.1731,1.0867h1.5115l-.0786.4986h-1.5118l-.1942,1.2387h1.6901l-.0786.5038h-2.2516Z" style="fill: #ccc;"/>
  <g id="g7034">
    <g id="g6932">
      <path id="path6902" d="M441.1365,331.7439h72.3876v157.9339s2.8427,108.0539-119.6887,143.7202c0,0-110.6622-22.2438-123.0589-141.6687v-159.2234h56.3568l114.0032-.762Z" style="fill: #003a70; fill-rule: evenodd;"/>
      <path id="path6904" d="M439.1143,336.6674h69.3983v151.4278s2.7255,103.57-114.7358,137.7709c0,0-106.0903-21.306-117.9596-135.778v-152.6587h54.0416l109.2554-.762Z" style="fill: #fff; fill-rule: evenodd;"/>
      <path id="path6906" d="M431.2308,412.4546h57.7342v74.4684s2.2859,86.1911-95.4813,114.6479c0,0-88.2425-17.7306-98.1482-112.9774v-76.0509h44.9565l90.9388-.0879Z" style="fill: #003876; fill-rule: evenodd;"/>
      <path id="path6908" d="M429.2965,417.1437h54.8622v70.805s2.1687,81.9123-90.7336,108.9331c0,0-83.8758-16.8514-93.2833-107.3798v-72.2704h42.6999l86.4548-.0879Z" style="fill: #74d1ea; fill-rule: evenodd;"/>
      <path id="path6910" d="M357.7002,397.5375c1.0843-.1172,1.8756-.4103,2.4031-.8206.5275-.4103.9378-1.2602,1.2895-2.5204l5.5976-20.8664c.1758-.5861.2931-1.0844.3517-1.4946.0879-.381.1172-.762.1172-1.055,0-.7913-.2051-1.2895-.6447-1.4653-.4396-.2052-1.3188-.381-2.6962-.4982v-1.2016h14.4775v1.2016c-1.5826.1758-2.6669.4396-3.1944.762-.5568.3224-1.0257,1.2016-1.4067,2.579l-5.9199,22.2145c-.0586.2345-.1172.4689-.1465.6741-.0293.2345-.0293.4689-.0293.762,0,.4982.2051.8792.6741,1.1137.4396.2052,1.055.3224,1.8756.3224,3.1065,0,5.832-.5275,8.0886-1.6412,2.2859-1.0844,4.3081-3.1358,6.0372-6.1251l1.0843.2052-2.6669,9.0558h-25.2917v-1.2016Z" style="fill: #003a70; fill-rule: evenodd;"/>
      <path id="path6912" d="M416.4016,397.8892l22.742-28.1638h-3.6047c-2.96.0879-5.5097.8206-7.649,2.2566-1.4067.9085-2.9893,2.4618-4.7184,4.6012l-1.2602-.1758,3.3703-8.2938h21.7456l-.1172,1.3481-22.742,28.1345h3.2823c2.6083,0,4.8063-.3224,6.594-.9378,3.2823-1.143,5.9786-3.3996,8.0886-6.6819l1.2309.2345-3.5754,9.0265h-23.5919l.2052-1.3481Z" style="fill: #003a70; fill-rule: evenodd;"/>
      <path id="path6914" d="M444.3309,397.5375c1.1137-.1172,1.9342-.4103,2.4618-.8206.5275-.4103.9671-1.2602,1.3188-2.5204l5.7148-20.8664c.1465-.5861.2638-1.0844.3517-1.4946.0879-.381.1465-.762.1465-1.055,0-.7913-.2345-1.2895-.6447-1.4653-.4396-.2052-1.3481-.381-2.7548-.4982v-1.2016h13.8328v1.2016c-1.143.1465-1.9635.4396-2.4911.8206-.4982.381-.9085,1.2309-1.2602,2.5204l-5.7441,20.8957-.3517,1.6119c-.0293.1465-.0586.3224-.0879.4982-.0293.1465-.0293.2931-.0293.4396,0,.7913.2345,1.2895.6447,1.4946.4396.2052,1.3481.381,2.7548.4982v1.2016h-13.8328v-1.2602h-.0293Z" style="fill: #003a70; fill-rule: evenodd;"/>
      <path id="path6916" d="M361.3343,417.0851l64.9437-.0293v166.1398-.1758s-15.2981,9.7005-33.0287,13.7156c0,0-18.4925-4.396-31.9443-12.807v-166.8432h.0293Z" style="fill: #fff; fill-rule: evenodd;"/>
      <path id="path6918" d="M293.665,400.5854l2.4032-10.4039,1.3188.0879c-.0293,1.4653.0293,2.579.1465,3.253.2345,1.1137.6741,2.1101,1.3481,3.0186.6448.7913,1.3774,1.4067,2.2273,1.8463.8499.381,1.817.6154,2.8428.6154,1.8756,0,3.341-.5861,4.4546-1.7584,1.1137-1.2016,1.6998-2.579,1.817-4.1616.1465-1.9342-1.6119-4.396-5.158-7.3853-3.5754-3.1065-5.2752-5.9786-5.0994-8.6162.1758-2.4911,1.1723-4.6012,2.96-6.3596s4.1909-2.6376,7.1801-2.6376c.8206,0,1.6705.0879,2.5204.2638.5568.1172,1.0844.2345,1.4946.381l1.143.381c.2638.0879.4982.1465.762.2052.2638.0586.4982.0879.7327.0879.5275,0,.9378-.1172,1.2602-.3517.2931-.2345.5568-.4982.8206-.8499h1.3774l-2.5204,9.2902-1.2309-.1465-.0586-1.524c-.0879-1.436-.4689-2.6669-1.0844-3.6926-.9671-1.6119-2.4911-2.4325-4.5718-2.4325-1.7877-.0293-3.1358.6448-4.0443,1.9342-.6154.8792-.9378,1.817-1.0257,2.8134-.0586,1.055.1172,1.9929.6448,2.8134.2638.4689.7327.9378,1.3188,1.4653l3.7806,3.2824c1.3481,1.1723,2.4618,2.4911,3.341,3.9857.9085,1.4653,1.2895,3.1651,1.143,5.0701-.1758,2.4618-1.2895,4.6598-3.3703,6.6233-2.0515,1.9636-4.777,2.96-8.118,2.96-.8499,0-1.6998-.0879-2.579-.2638-.8206-.1465-1.6412-.3517-2.4618-.6741l-1.143-.4396c-.381-.1465-.6448-.2638-.7913-.2931s-.3224-.0586-.4982-.0586c-.5275,0-.9085.1172-1.143.381-.2345.2638-.4982.6741-.8206,1.2895h-1.3188Z" style="fill: #003a70; fill-rule: evenodd;"/>
      <path id="path6920" d="M316.1433,394.5189c.7327-.6741,1.5533-.9964,2.4911-.9964s1.7291.3224,2.3738,1.0257c.6448.6741.9085,1.4653.8499,2.4032-.0586.9378-.4689,1.7877-1.2016,2.4618-.7034.6741-1.524.9964-2.4911.9964-.9378,0-1.6998-.3224-2.3445-.9964-.6448-.6741-.9085-1.4946-.8499-2.4618.0879-.9671.4396-1.7584,1.1723-2.4325" style="fill: #003a70; fill-rule: evenodd;"/>
      <path id="path6922" d="M322.7666,400.5854l2.4032-10.3746,1.3188.0879c-.0293,1.4946.0293,2.579.1465,3.253.2052,1.1137.6741,2.1394,1.3481,3.0186.6448.7913,1.4067,1.4067,2.2566,1.8463.8499.4103,1.817.6154,2.8428.6154,1.8756,0,3.341-.5861,4.4546-1.7584,1.0844-1.2016,1.6998-2.579,1.817-4.1616.1465-1.9342-1.6119-4.396-5.158-7.3853-3.5754-3.1065-5.2752-5.9786-5.0994-8.6162.1758-2.4911,1.143-4.6012,2.96-6.3596,1.7877-1.7584,4.1909-2.6376,7.1801-2.6376.8499,0,1.6998.0879,2.5497.2638.5568.1172,1.055.2345,1.4946.381l1.143.4103c.2638.0879.4982.1465.762.1758.2638.0586.4982.0879.7327.0879.5275,0,.9378-.1172,1.2602-.3517.2931-.2345.5568-.4982.8206-.8206h1.3774l-2.5204,9.2902-1.2309-.1465-.0586-1.524c-.0879-1.436-.4689-2.6669-1.0844-3.6926-.9671-1.6119-2.4911-2.4325-4.6012-2.4325-1.7877,0-3.1065.6448-4.015,1.9342-.6154.8499-.9378,1.7877-1.0257,2.7841-.0586,1.055.1172,1.9929.6448,2.8134.2638.4689.7327.9378,1.3188,1.4653l3.7806,3.2824c1.3188,1.143,2.4325,2.4911,3.341,3.9857.9085,1.4946,1.2895,3.1651,1.143,5.0701-.1758,2.4618-1.2895,4.6598-3.3703,6.6526-2.0515,1.9342-4.777,2.9307-8.118,2.9307-.8499,0-1.6998-.0879-2.5497-.2345-.8206-.1465-1.6412-.381-2.4618-.6741l-1.143-.4396c-.381-.1465-.6448-.2638-.7913-.2931s-.3224-.0586-.5275-.0586c-.4982,0-.8792.1172-1.1137.381-.2345.2638-.4982.6741-.8206,1.2895h-1.4067v-.0586Z" style="fill: #003a70; fill-rule: evenodd;"/>
      <path id="path6924" d="M346.7395,394.5189c.7327-.6741,1.5533-.9964,2.4911-.9964.9671,0,1.7291.3224,2.3738,1.0257.6447.6741.9085,1.4653.8499,2.4032-.0879.9378-.4689,1.7877-1.2016,2.4325-.7034.6741-1.5533.9964-2.4911.9964s-1.6998-.3224-2.3445-.9964c-.6448-.6741-.9085-1.4946-.8206-2.4325.0586-.9671.4396-1.7584,1.143-2.4325" style="fill: #003a70; fill-rule: evenodd;"/>
      <path id="path6926" d="M469.7105,374.5024c4.0443-4.7477,8.5869-7.1215,13.6276-7.1215,3.341,0,6.0958.9964,8.2645,3.0186,2.1394,2.0222,3.2237,4.7477,3.2237,8.1766,0,5.0114-1.9049,9.7885-5.6855,14.2724-4.0736,4.8356-8.7334,7.2388-14.0086,7.2388-3.3117,0-6.0079-1.0257-8.1179-3.0186-2.0808-2.0222-3.1065-4.7184-3.1065-8.118,0-5.0701,1.9343-9.9057,5.8027-14.4482M471.1465,395.6912c.7327,1.8463,2.1101,2.7841,4.0443,2.7841,1.817,0,3.4875-.6741,4.9821-2.0222,1.4946-1.3481,3.0479-3.9564,4.6598-7.7663,1.0257-2.4032,1.817-4.9528,2.4031-7.6197.5568-2.6669.8499-4.8063.8499-6.4768,0-1.5533-.381-2.8721-1.143-3.9857s-1.9635-1.6705-3.6047-1.6705c-3.8685,0-7.1215,3.4289-9.7592,10.2867-2.0222,5.2166-2.9893,9.554-2.9893,13.0415,0,1.3188.2052,2.4618.5568,3.4289" style="fill: #003a70; fill-rule: evenodd;"/>
      <path id="path6928" d="M404.8548,387.4267l-.1465-11.3124-8.4696,11.3124h8.6162ZM384.1056,397.8305c.9085-.2638,1.5826-.5275,2.0222-.8499.6741-.4396,1.4653-1.2602,2.3738-2.4618l21.1008-27.3725h1.2309l.7034,26.6105c.0586,1.7877.2638,2.8721.6447,3.2824.381.4103,1.2895.6448,2.6962.7327l-.1465,1.1137h-14.1258l.1758-1.1137c1.3481-.1172,2.2859-.3224,2.8721-.6448.6154-.3517.9964-1.0257,1.143-2.0515.0586-.3517.0879-1.2016.1172-2.4911v-3.3996h-9.9936l-3.3996,4.7184c-.2345.3224-.4689.6741-.6447,1.055s-.3224.7327-.3517,1.1137c-.0879.6448.0586,1.0257.4103,1.2309.3517.1758,1.143.3224,2.3738.4689l-.1465,1.1137h-9.1437l.0879-1.055Z" style="fill: #003a70; fill-rule: evenodd;"/>
      <path id="path6930" d="M541.3947,365.3294c9.4954,0,17.1737-7.737,17.1737-17.2617,0-9.4661-7.6783-17.1737-17.1737-17.1737-9.554,0-17.2617,7.737-17.2617,17.1737,0,9.5247,7.7077,17.2617,17.2617,17.2617M541.3947,363.0435c-8.3817,0-14.5361-6.5354-14.5361-15.005,0-8.3524,6.1544-14.9171,14.5361-14.9171,8.3524,0,14.4482,6.5647,14.4482,14.9171.0293,8.4696-6.0665,15.005-14.4482,15.005M544.1789,348.8297c3.3996-.0879,6.0372-1.4946,6.0372-5.2752,0-3.1944-1.7291-5.0994-6.7991-5.0994h-8.411v19.2252h2.3738v-8.8506h4.3081l5.5097,8.8506h2.8134l-5.832-8.8506ZM537.3504,346.9541v-6.8285h5.4803c2.3738,0,4.8063.3517,4.8063,3.3703,0,3.8978-4.015,3.4582-6.7112,3.4582h-3.5754Z" style="fill: #74d1ea; fill-rule: evenodd;"/>
    </g>
    <g id="g7032">
      <path id="path6934" d="M324.7888,333.3851l-2.4618-1.4067s-5.0114-.3517-10.7849-6.1544c0,0,14.3017-4.6598,18.1702-9.6419,0,0-4.4253-1.3774-5.2459-3.6047,0,0,13.7742-4.1029,15.1516-6.8871,0,0-28.9257-5.8027-33.8786-16.5583,0,0-15.6791-.2931-21.2181-10.1987-5.5097-9.9057-.5275-.5275-.5275-.5275,0,0-10.1987,2.4618-16.2652-8.0007,0,0-11.0193,0-16.529-8.2938,0,0-18.1702-2.4911-24.266-10.4918,0,0-22.0387-3.3117-32.2374-14.0672-10.1987-10.7556,0-.5568,0-.5568,0,0-13.4811,0-23.1523-10.4918,0,0-20.3682-1.1137-31.3875-15.1809,0,0-26.1709-3.6047-37.7471-19.0201,0,0-24.7935-3.0479-39.6813-14.9171-14.8878-11.8692-12.6019-10.7556-12.6019-10.7556l234.4831.1758s47.6527-2.8721,76.725,32.9408c29.043,35.7835,60.8114,16.8514,76.4026,4.015,15.5619-12.8363,29.5998-36.6627,81.8537-36.6041,52.2539.0586,230.4094.1758,230.4094.1758,0,0-16.1773,17.7306-54.364,26.2295,0,0-14.6534,15.8842-38.7728,19.2252,0,0-7.649,11.0193-34.8457,16.4704,0,0-7.0043,9.7884-24.4418,11.8985,0,0-6.7112,10.697-25.0572,10.99s-.6154.2931-.6154.2931c0,0-8.5575,13.7742-28.7206,15.2688-20.163,1.524-.6154,0-.6154,0,0,0-4.2788,5.4804-18.3167,8.2352-14.0672,2.7255-.9085,0-.9085,0,0,0-2.4325,7.6491-18.346,9.173-15.8842,1.4946-1.2309.2931-1.2309.2931,0,0-1.8463,4.5719-10.697,5.8027-8.88,1.2016,0,0,0,0,0,0-14.6534,15.2688-37.8936,17.9943,0,0-1.2895,6.7699-14.4482,16.2359,0,0,3.4582,5.0408,3.7513,10.2867v-.1758s1.2016-4.396-.381,2.6376-15.4153,13.1587-15.4153,13.1587c8.5869-14.5654-.8792-16.0015-.8792-16.0015,2.1101,8.4403-15.6205,15.093-15.6205,15.093,8.411-11.4296-.7034-15.8256-.7034-15.8256,2.6376,11.4296-16.8514,14.5654-16.8514,14.5654,10.3453-12.6312-2.9893-16.3825-2.9893-16.3825l-12.4554-.0293c1.055,15.6498-18.2581,19.5183-18.2581,19.5183,10.1694-14.3896-.1758-16.3531-.1758-16.3531,2.2859,10.5504-14.0379,15.9722-14.0379,15.9722,8.0593-15.6205-3.0186-17.3789-3.0186-17.3789,4.5718,12.2795-21.0422,19.9872-17.3496,17.7306,3.6926-2.2859,6.5061-12.2795,6.5061-12.2795,2.8135-3.6047-8.0593-6.594-8.0593-6.594" style="fill: #d69a2d; fill-rule: evenodd;"/>
      <path id="path6936" d="M177.5518,172.286s3.8685,6.9164,14.0965,11.0486h-81.4727s-35.637.5275-45.2789-11.0486c0,0,112.655,0,112.655,0Z" style="fill: #fff; fill-rule: evenodd;"/>
      <path id="path6938" d="M218.9329,193.8265s3.8392,6.4475,14.0672,10.5797h-73.9409s-35.637.9964-45.3082-10.5797h105.1818Z" style="fill: #fff; fill-rule: evenodd;"/>
      <path id="path6940" d="M254.2768,212.6121s3.8685,5.3631,14.0965,9.4954h-73.9409s-34.8164.9964-45.3082-9.4954h105.1525Z" style="fill: #fff; fill-rule: evenodd;"/>
      <path id="path6942" d="M278.3669,227.2361s3.8685,2.9307,14.0672,7.0629h-64.8851s-35.0801.9378-45.2789-7.0629h96.0967Z" style="fill: #fff; fill-rule: evenodd;"/>
      <path id="path6944" d="M304.3327,240.7758s1.436,1.817,11.6641,5.9493h-62.4819s-35.0801,2.0515-45.2789-5.9493h96.0967Z" style="fill: #fff; fill-rule: evenodd;"/>
      <path id="path6946" d="M325.0818,252.0882s.1172,1.817,10.316,5.9786h-56.4741s-35.0801,2.0515-45.2789-5.9786h91.437Z" style="fill: #fff; fill-rule: evenodd;"/>
      <path id="path6948" d="M350.2856,263.4299s-4.3081.4982,5.9199,4.6305h-52.9865s-31.1824.6154-44.3997-4.6305h91.4663Z" style="fill: #fff; fill-rule: evenodd;"/>
      <path id="path6950" d="M355.3557,272.6029s4.1909-1.6998-3.1651,4.6305h-31.5047s-31.2117.6154-44.3997-4.6305h79.0695Z" style="fill: #fff; fill-rule: evenodd;"/>
      <path id="path6952" d="M349.084,282.2448s4.1909-2.6083-3.1651,3.7513h-8.118s-31.2117,1.4946-44.429-3.7513h55.7121Z" style="fill: #fff; fill-rule: evenodd;"/>
      <path id="path6954" d="M341.5522,289.6594s4.1909-2.6083-3.1358,3.7513h-8.1473s-8.4403,1.4946-21.6577-3.7513h32.9408Z" style="fill: #fff; fill-rule: evenodd;"/>
      <path id="path6956" d="M621.6366,172.286s-3.8685,6.9164-14.0965,11.0486h81.4727s35.637.5275,45.2789-11.0486c0,0-112.655,0-112.655,0Z" style="fill: #fff; fill-rule: evenodd;"/>
      <path id="path6958" d="M580.2555,193.8265s-3.8685,6.4475-14.0965,10.5797h73.9702s35.6077.9964,45.2789-10.5797h-105.1525Z" style="fill: #fff; fill-rule: evenodd;"/>
      <path id="path6960" d="M544.9115,212.6121s-3.8685,5.3631-14.0965,9.4954h73.9702s34.8164.9964,45.3082-9.4954h-105.1818Z" style="fill: #fff; fill-rule: evenodd;"/>
      <path id="path6962" d="M520.8214,227.2361s2.9307.9964,2.9307,6.4182h47.8872s35.0801,1.6119,45.2789-6.4182h-96.0967Z" style="fill: #fff; fill-rule: evenodd;"/>
      <path id="path6964" d="M466.3989,275.7974s.381-2.6962-2.6962,3.4582l11.5469.1758s31.1824,1.4946,44.3997-3.722l-53.2503.0879Z" style="fill: #fff; fill-rule: evenodd;"/>
      <path id="path6966" d="M459.1015,291.1834s-5.6562-2.579,1.6705,3.7806h8.1179s8.4696,1.4946,21.6577-3.7513l-31.4461-.0293Z" style="fill: #fff; fill-rule: evenodd;"/>
      <path id="path6968" d="M403.7118,223.8951h98.4413s14.2138-1.143,15.767,10.7556c0,0,1.143,2.6962-2.6962,3.0772s-39.9744,0-39.9744,0l-3.4582,4.2202h26.9329s4.6011-.381,4.2495,4.2495l16.91-7.3267h16.91s19.6062-1.5239,17.3203,20.3682c0,0-2.6962-9.6126-16.91-9.6126h-39.2417l-3.4582,4.2202,44.2239.381s9.6419.762,11.9278,7.7077h-60.7528s-3.0772-3.8392-11.1366-.762-.762,0-.762,0c0,0-19.2252,12.3088-28.4568,10.7849-9.2316-1.5533-11.5469-6.5354-6.5354-11.5468,0,0-21.9214,2.3152-5.3924-9.2316,0,0-11.9278-4.2202,8.8506-14.2138h-21.1301s-13.8621-1.143-19.6062-9.2316c-5.7441-8.0887-2.0221-3.8392-2.0221-3.8392" style="fill: #fff; fill-rule: evenodd;"/>
      <path id="path6970" d="M479.7334,266.8881s-1.0257-1.055-7.5904,3.7513h18.8735s37.6884,2.8721,44.3997-3.7513h-55.6828Z" style="fill: #fff; fill-rule: evenodd;"/>
      <path id="path6972" d="M554.2311,240.0432s-.9378-.762,3.1651,6.1837h18.0236s9.7885-.8206,17.0272-6.1837h-38.216Z" style="fill: #fff; fill-rule: evenodd;"/>
      <path id="path6974" d="M461.0064,282.5086s.381-2.6962-2.6962,3.4582l1.5533.2052s36.1352,2.6962,44.3997-3.5461l-43.2568-.1172Z" style="fill: #fff; fill-rule: evenodd;"/>
      <path id="path6976" d="M559.477,251.971l-.381,4.6012s8.4696-2.2859,7.2974-4.6012h-6.9164Z" style="fill: #fff; fill-rule: evenodd;"/>
      <path id="path6978" d="M202.2281,180.4333s-12.3088-1.6705-15.005-8.1473h107.2919s34.2302,1.2309,59.9908,27.7535c25.7606,26.5226,31.534,23.4454,43.4619,24.5883l5.3924,8.4696s-6.9164,1.5239-16.91-3.0772h-84.9895s-11.1366,0-13.8328-4.2202h89.5907s-7.7077-3.0772-11.9278-7.3267h-81.5314s-16.91.762-19.6062-5.7734h91.9352s-3.8392-8.0887-14.6241-13.0708h-101.1668s-9.6126-.381-12.6898-6.1544h107.6729s-12.3088-10.3746-25.7606-13.0708h-107.2919v.0293Z" style="fill: #fff; fill-rule: evenodd;"/>
      <path id="path6980" d="M322.5908,244.2633s-6.9164-1.524-9.5833-4.2202h80.74s8.8506-5.0115,14.6241-3.0772c0,0,5.3924,3.4582,7.7077,2.6669,0,0-9.6126,10.3746-31.915,9.2609,0,0,.381-3.4582,3.8392-5.0115l-65.4126.381Z" style="fill: #fff; fill-rule: evenodd;"/>
      <path id="path6982" d="M420.651,240.4241h12.6898s-.4103,7.3267-18.4632,6.5354l5.7734-6.5354Z" style="fill: #fff; fill-rule: evenodd;"/>
      <path id="path6984" d="M429.0914,249.2748s-5.7734,3.0772-11.1366,2.6962c0,0-1.9049,3.4582-9.2316,7.7077,0,0,13.0708,4.6012,22.6834-8.0887l-2.3152-2.3152Z" style="fill: #fff; fill-rule: evenodd;"/>
      <path id="path6986" d="M409.8662,248.1318s-8.8506,4.2202-15.386,3.4582c0,0-3.0772,5.7734-7.6783,8.8213,0,0,15.386,4.2202,26.9329-9.6126l-3.8685-2.6669Z" style="fill: #fff; fill-rule: evenodd;"/>
      <path id="path6988" d="M427.5675,260.0303s-4.6305,2.3152-8.8506,3.0772c-4.2202.762-.762.4103-.762.4103,0,0-.762,3.8392-5.3924,5.7734,0,0,11.1366,6.9164,20.7492-3.8392,0,0-5.3924-2.3152-5.3924-4.2202.0293-1.9635-.3517-1.2016-.3517-1.2016" style="fill: #fff; fill-rule: evenodd;"/>
      <path id="path6990" d="M405.265,262.3456s-8.4696,2.6962-11.1366,2.3152c0,0-.762,3.8392-5.7734,5.3924-5.0114,1.524-.762,0-.762,0,0,0,16.148,6.1544,24.5883-5.7734l-6.9164-1.9342Z" style="fill: #fff; fill-rule: evenodd;"/>
      <path id="path6992" d="M409.8662,271.5772s-3.8392,3.0772-14.6241,6.1544c0,0,8.0886,11.5175,29.2188-1.9342,0,0-10.7556-.381-12.6898-2.6962-1.9049-2.2859-1.9049-1.5239-1.9049-1.5239" style="fill: #fff; fill-rule: evenodd;"/>
      <path id="path6994" d="M411.8004,285.029s-3.4582,4.9821-8.0886,6.1544c-4.6011,1.143-1.143.4103-1.143.4103,0,0,13.3346,3.634,21.9214-9.2316,4.6011-6.9457-5.3631,2.2859-12.6898,2.6669" style="fill: #fff; fill-rule: evenodd;"/>
      <path id="path6996" d="M404.503,285.41s-9.9936.381-11.1366-4.2202c0,0-7.3267,3.8392-11.9278,3.0772-4.6305-.762-.762,0-.762,0,0,0-1.143,3.8392-5.3924,6.1544,0,0,13.8328,6.9164,25.3796-1.9342,11.5176-8.8213,3.8392-3.0772,3.8392-3.0772" style="fill: #fff; fill-rule: evenodd;"/>
      <path id="path6998" d="M382.9626,271.9582s3.4582,2.3152,9.9936,2.6962c0,0-5.7734,8.8506-22.3024,4.9821-16.5583-3.8392-.762-.381-.762-.381,0,0,4.2202-2.6962,5.3924-4.6012,0,0,4.6011-1.143,6.1544-1.9342l1.5239-.762Z" style="fill: #fff; fill-rule: evenodd;"/>
      <path id="path7000" d="M382.9626,261.9646s1.143,2.6962,5.7734,1.9049c0,0-6.9164,9.2316-24.2073,6.9457-17.3203-2.3152-.762-.381-.762-.381,0,0,8.4696-4.2202,10.3746-7.2974l8.8213-1.1723Z" style="fill: #fff; fill-rule: evenodd;"/>
      <path id="path7002" d="M360.2792,273.5114s7.3267,2.6962,8.4696,1.9049c0,0-3.4582,3.4582-12.3088,4.6305-8.8506,1.143-.762,0-.762,0l4.6011-6.5354Z" style="fill: #fff; fill-rule: evenodd;"/>
      <path id="path7004" d="M365.6423,281.5708s6.1544,3.8392,9.2316,3.0772c0,0-.762,9.6126-27.3139,5.7734-26.5226-3.8392-.7327-.381-.7327-.381,0,0,13.4518-5.3924,16.148-7.2974,2.6669-1.9342,2.6669-1.1723,2.6669-1.1723" style="fill: #fff; fill-rule: evenodd;"/>
      <path id="path7006" d="M386.4208,251.971s1.143,7.2974-15.767,8.8506c-16.9393,1.524-.762,0-.762,0l3.0772-5.3924h-33.8493s-6.5354-1.524-7.7077-3.4582h55.0087Z" style="fill: #fff; fill-rule: evenodd;"/>
      <path id="path7008" d="M354.8868,262.7266h9.6126s.6154,2.3738-3.8392,3.8392l-5.7734-3.8392Z" style="fill: #fff; fill-rule: evenodd;"/>
      <path id="path7010" d="M333.3463,314.2478s13.4811-5.7734,26.1416-15.005c0,0,18.4632-12.3088,24.6176-1.9049,6.1544,10.3746-28.8378,18.4339-28.8378,18.4339l-21.9214-1.5239Z" style="fill: #fff; fill-rule: evenodd;"/>
      <path id="path7012" d="M333.3463,318.4972s17.3203,3.4582,23.8557.762c0,0-16.529,13.0708-36.1352,8.4696-19.6355-4.6012,0-.762,0-.762,0,0,5.7734-2.6962,9.9643-6.1544,4.2495-3.4875,2.3152-2.3152,2.3152-2.3152" style="fill: #fff; fill-rule: evenodd;"/>
      <path id="path7014" d="M329.5072,333.092s13.0708-6.1544,6.5354,3.8392l-6.5354-3.8392Z" style="fill: #fff; fill-rule: evenodd;"/>
      <path id="path7016" d="M344.5122,334.2643s14.5948-9.9936,8.8506,2.6669c0,0-3.4582-3.8392-5.7734-2.2859-2.2859,1.524-.7327,0-.7327,0l-2.3445-.381Z" style="fill: #fff; fill-rule: evenodd;"/>
      <path id="path7018" d="M360.6602,334.6453s12.6898-6.5354,9.2316,3.0772c0,0-1.9342-3.0772-6.1544-2.2859l-3.0772-.7913Z" style="fill: #fff; fill-rule: evenodd;"/>
      <path id="path7020" d="M402.9498,313.8668s25.7606-14.2431,29.5998-18.8442c0,0,12.3088-12.6898,19.9872-4.2202s-17.7013,20.3682-22.3024,21.9214c-4.6012,1.5239-27.2846,1.143-27.2846,1.143" style="fill: #fff; fill-rule: evenodd;"/>
      <path id="path7022" d="M401.4258,316.944s16.529,3.8392,28.0465,0c0,0-11.8985,16.148-43.4619,9.6126,0,0,9.2316-3.8392,12.6898-7.2974,3.4875-3.4582,2.7255-2.3152,2.7255-2.3152" style="fill: #fff; fill-rule: evenodd;"/>
      <path id="path7024" d="M396.7954,332.711s13.0708-6.1544,6.5354,3.8392l-6.5354-3.8392Z" style="fill: #fff; fill-rule: evenodd;"/>
      <path id="path7026" d="M412.9434,333.8833s14.6241-9.9936,8.8506,2.6962c0,0-3.4582-3.8392-5.7734-2.3152-2.2859,1.524-.762,0-.762,0l-2.3152-.381Z" style="fill: #fff; fill-rule: evenodd;"/>
      <path id="path7028" d="M427.9484,334.2643s15.767-8.0886,9.2023,3.0772c0,0-1.9049-3.0772-6.1544-2.3152l-3.0479-.762Z" style="fill: #fff; fill-rule: evenodd;"/>
      <path id="path7030" d="M422.0871,221.1696s17.7892-9.9936,34.6992-26.9329c16.9393-16.91,40.3847-23.5919,59.2289-21.5991h93.8108s2.3152,4.3081-11.5176,8.1473h-99.6135s-6.5354-3.4582-28.0759,11.5468l101.5478.381s-4.2495,6.975-19.6355,7.737l-89.9716-.0293-16.5583,11.8985s77.6628-.381,92.6092,0c-8.2645,6.2716-19.5476,6.213-19.5476,6.213h-79.9781s-7.0922,3.5754-11.0193,3.5754c-4.6305-.0293-5.9786-.9378-5.9786-.9378" style="fill: #fff; fill-rule: evenodd;"/>
    </g>
  </g>
</svg>