<?xml version="1.0" encoding="UTF-8"?>
<svg data-name="图层_1" xmlns="http://www.w3.org/2000/svg" version="1.1" viewBox="0 0 800 800">
  <!-- Created by @FCLOGO 2025-1-21 GMT+8 21:56:15 . https://fclogo.top/ -->
<!-- FOR PERSONAL USE ONLY NOT FOR COMMERCIAL USE -->
  <path d="M348.2194,774.301c-.786,0-1.3752-.2173-1.7682-.6519-.393-.4352-.5284-1.03-.406-1.7856l.2518-1.6478c.122-.755.4501-1.3504.9841-1.785.5339-.4352,1.1939-.6525,1.9799-.6525.7553,0,1.3293.1987,1.7223.5954.3927.3967.551.9381.4747,1.6248h-1.2358c.0304-.3589-.0553-.637-.2573-.8357-.2024-.1981-.4979-.2974-.8869-.2974-.4197,0-.763.1167-1.03.3489-.2673.2328-.4349.5631-.5035.9903l-.2632,1.659c-.0686.4352-.0056.7686.1887,1.0015.1946.2328.5017.3489.9214.3489.389,0,.7152-.0987.9785-.2974.2632-.1981.4365-.4805.5206-.8469h1.2358c-.1372.6867-.4672,1.2306-.9897,1.631-.5228.4005-1.1616.6004-1.9169.6004ZM352.7967,774.1868l.9956-6.2943h1.1902l-.1946,1.1902c.3359-.8698.9729-1.3044,1.9113-1.3044.6712,0,1.1691.208,1.4932.624.3244.416.4293.9859.3148,1.7105l-.0686.4234h-1.2703l.0571-.3204c.0689-.4501.0115-.7953-.1714-1.0356-.1832-.2403-.4771-.3607-.8813-.3607-.4045,0-.7401.1223-1.007.3663-.2673.2446-.4349.588-.5035,1.03l-.6296,3.9711h-1.2358ZM361.9058,774.301c-.7705,0-1.3463-.2229-1.7279-.6693s-.515-1.0356-.4005-1.7682l.2518-1.6478c.0838-.488.2573-.9152.5206-1.2815s.6007-.6507,1.0129-.8524c.4119-.2024.8732-.3036,1.3845-.3036.7705,0,1.3485.2235,1.7338.6693.3852.4464.5169,1.0356.3949,1.7682l-.1717,1.1213h-3.845l-.0916.5265c-.1527.9536.2173,1.4305,1.1098,1.4305.7171,0,1.175-.2477,1.3734-.7438h1.2247c-.1679.5339-.5035.9599-1.007,1.2759-.5038.3166-1.0912.475-1.7626.475ZM361.2306,770.2157l-.0456.2862,2.6548-.0118.0459-.2856c.0686-.4656.0133-.822-.1661-1.0704-.1791-.2477-.4861-.3719-.9211-.3719-.4427,0-.7953.126-1.0586.3775-.2632.2521-.4331.6109-.5094,1.076ZM368.3258,774.301c-.6333,0-1.1027-.2117-1.4078-.6351s-.3967-1.0008-.2744-1.7335l.2744-1.7738c.1145-.7326.393-1.3119.8357-1.7397.4424-.4272.98-.6407,1.6133-.6407.4653,0,.8298.1186,1.093.3545.2632.2365.3908.5575.3834.9617h.023l.1717-1.202h1.2358l-.9956,6.2943h-1.2247l.1946-1.2014h-.023c-.122.4116-.3511.7339-.6867.9667s-.7401.3489-1.2129.3489ZM368.9324,773.2257c.389,0,.7152-.1186.9782-.3551.2632-.2359.4293-.5718.4979-1.007l.2518-1.6478c.0686-.4272.0096-.7612-.1773-1.0015-.1872-.2403-.475-.3601-.8642-.3601-.3967,0-.7249.118-.9841.3545-.2595.2365-.4234.5724-.492,1.007l-.2518,1.6478c-.0686.4427-.0133.7804.1658,1.0133.1794.2328.4712.3489.8757.3489ZM376.3477,774.1868c-.5721,0-.9937-.1565-1.2644-.4694-.271-.3123-.3607-.7512-.2691-1.3156l.538-3.3874h-1.7394l.1714-1.1219h1.7397l.2747-1.7161h1.2358l-.2747,1.7161h2.472l-.1832,1.1219h-2.4605l-.5377,3.3874c-.0764.4421.099.6637.5262.6637h1.7167l-.1717,1.1213h-1.7738ZM382.5042,774.301c-.7705,0-1.3463-.2229-1.7279-.6693s-.515-1.0356-.4005-1.7682l.2518-1.6478c.0838-.488.2573-.9152.5206-1.2815s.6007-.6507,1.0129-.8524c.4119-.2024.8732-.3036,1.3845-.3036.7705,0,1.3485.2235,1.7338.6693.3852.4464.5169,1.0356.3949,1.7682l-.1717,1.1213h-3.845l-.0916.5265c-.1527.9536.2173,1.4305,1.1098,1.4305.7171,0,1.175-.2477,1.3734-.7438h1.2247c-.1679.5339-.5035.9599-1.007,1.2759-.5038.3166-1.0912.475-1.7626.475ZM381.829,770.2157l-.0456.2862,2.6548-.0118.0459-.2856c.0686-.4656.0133-.822-.1661-1.0704-.1791-.2477-.4861-.3719-.9211-.3719-.4427,0-.7953.126-1.0586.3775-.2632.2521-.4331.6109-.5094,1.076ZM388.9243,774.301c-.6333,0-1.1008-.2117-1.4019-.6351-.3014-.4234-.3949-1.0008-.2803-1.7335l.2744-1.7738c.1145-.7326.393-1.3119.8357-1.7397.4424-.4272.98-.6407,1.6133-.6407.4653,0,.8298.1186,1.093.3545.2632.2365.3908.5575.3834.9617h.023l.2058-1.4652.2977-1.7962h1.2358l-1.3274,8.3537h-1.2247l.1946-1.2014h-.023c-.122.4116-.3511.7339-.6867.9667s-.7401.3489-1.2129.3489ZM389.5309,773.2257c.389,0,.7152-.1186.9782-.3551.2632-.2359.4293-.5718.4979-1.007l.2518-1.6478c.0761-.4272.0189-.7612-.1717-1.0015-.1909-.2403-.4805-.3601-.8698-.3601-.3967,0-.7249.118-.9841.3545-.2595.2365-.4234.5724-.492,1.007l-.2518,1.6478c-.0764.4427-.023.7804.1602,1.0133s.4768.3489.8813.3489ZM401.0175,774.301c-.4731,0-.8394-.1161-1.0986-.3489-.2595-.2328-.3852-.5551-.3775-.9667h-.0115l-.1946,1.2014h-1.2243l1.3274-8.3537h1.2358l-.2862,1.7962-.2744,1.4652h.0456c.122-.4123.353-.7345.6923-.9673.3396-.2322.7419-.3489,1.2076-.3489.633,0,1.1002.2136,1.4016.6407.3014.4278.3949,1.007.2806,1.7397l-.2747,1.7738c-.1145.7326-.3949,1.31-.8413,1.7335-.4461.4234-.9822.6351-1.6077.6351ZM400.7657,773.2257c.3967,0,.7227-.1161.9785-.3489.2555-.2328.4216-.5706.4976-1.0133l.2518-1.6478c.0689-.4346.0115-.7705-.1714-1.007-.1832-.2365-.4734-.3545-.8698-.3545-.3893,0-.7152.1198-.9785.3601s-.429.5743-.4979,1.0015l-.2518,1.6478c-.0686.4352-.0112.7711.1717,1.007.1832.2365.4731.3551.8698.3551ZM405.4694,776.2468l.1717-1.0642h1.934c.6407,0,1.007-.3017,1.0986-.9046l.1028-.6749.2061-1.1902h-.0345c-.122.4197-.3471.7438-.6752.9729-.3281.2285-.7286.3433-1.2014.3433-.6258,0-1.093-.2005-1.4019-.601s-.4104-.9443-.3033-1.631l.5836-3.6047h1.2358l-.5606,3.4793c-.0612.4116,0,.732.1832.9611s.4653.3433.8469.3433c.389,0,.7168-.1217.9841-.3663.267-.244.4309-.5836.492-1.0182l.538-3.3992h1.2358l-1.007,6.4086c-.0993.6029-.37,1.0778-.8124,1.4249-.4427.3471-.9996.5209-1.6707.5209h-1.9455ZM417.787,770.0853h3.221l.5368-1.8545h-5.4659l-1.7081,6.4419h2.1473l.5856-2.0985h3.0257l.4392-1.7081h-3.0257l.244-.7808ZM424.229,772.9158c-.5856,0-1.0249-.3904-1.0249-1.1225,0-.8784.6344-1.7569,1.6105-1.7569.488,0,.8784.244,1.0248.7808l1.9521-.8296c-.2928-1.1713-1.2689-1.9033-2.6353-1.9033-2.7817,0-4.1482,2.1473-4.1482,3.9042s1.2689,2.8305,3.0746,2.8305c1.3665,0,2.3425-.5856,2.9769-1.4153l-1.5129-1.1713c-.3904.4392-.8296.6832-1.3177.6832ZM430.9149,768.2308h-2.1473l-1.7569,6.4419h5.1242l.488-1.8545h-2.9281l1.2201-4.5874ZM439.7481,771.0125c0-1.6593-1.3177-2.9281-3.221-2.9281-2.1961,0-3.8066,1.8057-3.8066,3.8066,0,1.6593,1.3177,2.9281,3.221,2.9281,2.1961,0,3.8066-1.8057,3.8066-3.8066ZM434.9167,771.6957c0-.8296.5856-1.7081,1.5129-1.7081.7808,0,1.1713.5368,1.1713,1.2201,0,.8296-.5856,1.7081-1.5129,1.7081-.7808,0-1.1713-.5368-1.1713-1.2201ZM443.2131,772.2326h1.0737l-.1952.6832c-.1464.0488-.3416.0976-.5856.0976-.6832,0-1.2689-.3904-1.2689-1.2201,0-1.0249.732-1.9033,1.9521-1.9033.5856,0,1.1225.244,1.5129.5856l1.3665-1.3665c-.4392-.5368-1.5129-1.0737-2.7329-1.0737-2.5865,0-4.2946,1.7569-4.2946,3.8554,0,2.0497,1.6105,2.8793,3.221,2.8793.9272,0,1.8545-.2928,2.4889-.6832l.9272-3.3186h-3.1234l-.3416,1.4641ZM450.7775,768.0844c-2.1961,0-3.8066,1.8057-3.8066,3.8066,0,1.6593,1.3177,2.9281,3.221,2.9281,2.1961,0,3.8066-1.8057,3.8066-3.8066,0-1.6593-1.3177-2.9281-3.221-2.9281ZM450.3382,772.9158c-.7808,0-1.1713-.5368-1.1713-1.2201,0-.8296.5856-1.7081,1.5129-1.7081.7808,0,1.1713.5368,1.1713,1.2201,0,.8296-.5856,1.7081-1.5129,1.7081ZM437.9424,767.4987c-.0488.2928.0976.488.4392.488s.5368-.1952.6344-.488c.0488-.244-.0976-.488-.4392-.488s-.5856.244-.6344.488ZM432.1349,765.4978c-.4392,0-.732.244-.7808.5856s.0976.5856.5368.5856.732-.244.7808-.5856c.0976-.3416-.0976-.5856-.5368-.5856ZM433.0134,767.3035c-.0976.5368.1464.8784.8296.8784.6344,0,1.0737-.3904,1.1713-.8784s-.1464-.8784-.8296-.8784c-.6832,0-1.0737.3904-1.1713.8784ZM439.6017,777.552l-2.4401-1.8057h-1.5129l4.2458,3.1722,1.6105-3.1722h-.976l-.9272,1.8057ZM425.8394,767.1571l-2.0009-1.4641,23.1323-2.7817-2.1473,4.2458h1.0248l2.6841-5.3195-26.9877,3.221,2.7817,2.0985h1.5129ZM338.7186,785.7853l.6088-3.8315h2.32l-.084.5194h-1.7636l-.1837,1.1445h1.6272l-.084.5248h-1.6166l-.2573,1.6428h-.5668ZM342.97,785.8377c-.3568,0-.6228-.1005-.7978-.3019-.175-.201-.2345-.473-.1784-.8161l.2677-1.7006c.056-.3429.2029-.6148.4408-.8161.2379-.201.5355-.3019.8923-.3019s.6228.1.7979.2993c.1748.1993.2361.4707.1837.8136l-.2677,1.7057c-.0561.3431-.2039.6151-.4435.8161-.2398.2013-.5381.3019-.895.3019ZM343.0487,785.3339c.1925,0,.3483-.0524.4672-.1575.119-.1051.1942-.2571.2257-.4568l.2678-1.7006c.0315-.1993.0051-.3517-.0787-.4565-.084-.1051-.2223-.1575-.4148-.1575s-.3473.0524-.4645.1575c-.1173.1048-.1916.2571-.2231.4565l-.2677,1.7006c-.0315.1996-.0053.3517.0787.4568s.2204.1575.4094.1575ZM344.9961,785.7853l.6088-3.8315h1.202c.2379,0,.4391.0464.6036.139.1645.0928.2835.223.357.391s.091.3656.0524.5932c-.0384.2591-.14.4838-.3044.6746-.1645.1905-.3656.3209-.6036.391l.5354,1.6428h-.6194l-.4777-1.5748h-.5406l-.2466,1.5748h-.5668ZM345.8883,783.7068h.6352c.1889,0,.349-.0558.4803-.168.1313-.1119.2107-.2623.2388-.4514.0316-.1925,0-.3454-.0944-.4593-.0945-.1136-.2362-.1706-.4252-.1706h-.6352l-.1995,1.2493ZM349.545,785.7853l.6088-3.8315h1.2544c.3709,0,.6508.1048.8399.315.1889.2099.2553.4898.1993.8398-.0384.2344-.1216.4383-.2493.6114s-.2905.307-.4881.4015c-.1978.0945-.419.1418-.6639.1418h-.6928l-.2415,1.5221h-.5668ZM350.432,783.754h.6928c.1924,0,.3568-.0587.4934-.176.1364-.117.2204-.2737.2519-.4696s-.0017-.3525-.0997-.4699-.245-.1757-.441-.1757h-.6876l-.2099,1.2911ZM352.7466,785.7853l.6088-3.8315h2.2518l-.0787.5038h-1.6954l-.1731,1.0867h1.5115l-.0787.4986h-1.5115l-.1942,1.2387h1.6901l-.0787.5038h-2.2518ZM355.8434,785.7853l.6088-3.8315h1.202c.2379,0,.4391.0464.6036.139.1645.0928.2835.223.357.391s.091.3656.0524.5932c-.0384.2591-.14.4838-.3044.6746-.1645.1905-.3656.3209-.6036.391l.5354,1.6428h-.6194l-.4777-1.5748h-.5406l-.2466,1.5748h-.5668ZM356.7356,783.7068h.6352c.1889,0,.349-.0558.4803-.168.1313-.1119.2107-.2623.2388-.4514.0316-.1925,0-.3454-.0944-.4593-.0945-.1136-.2362-.1706-.4252-.1706h-.6352l-.1995,1.2493ZM360.1316,785.8377c-.385,0-.6736-.0951-.8661-.2859-.1924-.1908-.2641-.4505-.2151-.7794h.5668c-.028.1748.0105.3121.1155.4121.1051.0997.266.1495.483.1495.2029,0,.3701-.049.5012-.1469.1313-.098.2109-.2327.2389-.4044.0209-.1504.0007-.2788-.0604-.3856-.0614-.1068-.1583-.1811-.2913-.2233l-.4566-.1364c-.266-.0803-.4619-.217-.5879-.4095-.126-.1922-.1697-.4197-.1313-.6823.035-.2099.1121-.3935.2309-.551s.2729-.2799.4619-.3673.4024-.1313.6404-.1313c.3498,0,.6158.0954.7978.2859.182.1908.2485.4437.1995.7586h-.5668c.0279-.168-.0027-.3001-.092-.3964-.0891-.0963-.2301-.1444-.4225-.1444-.1889,0-.343.0447-.4619.1338-.119.0894-.1889.2144-.21.3753-.0245.1506-.007.2791.0525.3859s.1575.1811.2939.223l.4672.1469c.2624.0806.4558.2173.5801.4095.1242.1925.1653.4217.1233.6877-.035.217-.1155.4058-.2415.5667-.1259.1612-.2878.2862-.4855.3753-.1976.0894-.419.1338-.6639.1338ZM363.2651,785.8377c-.3568,0-.6228-.1005-.7978-.3019-.175-.201-.2345-.473-.1784-.8161l.2677-1.7006c.056-.3429.2029-.6148.4408-.8161.2379-.201.5355-.3019.8923-.3019s.6228.1.7979.2993c.1748.1993.2361.4707.1837.8136l-.2677,1.7057c-.0561.3431-.2039.6151-.4435.8161-.2398.2013-.5381.3019-.895.3019ZM363.3439,785.3339c.1925,0,.3483-.0524.4672-.1575.119-.1051.1942-.2571.2257-.4568l.2678-1.7006c.0315-.1993.0051-.3517-.0787-.4565-.084-.1051-.2223-.1575-.4148-.1575s-.3473.0524-.4645.1575c-.1173.1048-.1916.2571-.2231.4565l-.2677,1.7006c-.0315.1996-.0053.3517.0787.4568s.2204.1575.4094.1575ZM365.2754,785.7853l.6088-3.8315h.7086l.6194,3.186c.007-.098.0165-.217.0289-.3571.0121-.1398.0271-.2851.0446-.4354.0175-.1506.0367-.2888.0577-.4146l.315-1.9788h.525l-.609,3.8315h-.7085l-.6141-3.186c-.0071.0945-.0167.209-.0289.3437s-.0272.2757-.0446.4226c-.0177.1469-.0367.2833-.0578.4095l-.315,2.0102h-.5301ZM368.2252,785.7853l1.5851-3.8315h.7454l.3726,3.8315h-.5616l-.0735-.9711h-1.0865l-.3884.9711h-.5932ZM369.3852,784.3418h.8714l-.0893-1.1023c-.0175-.1959-.0298-.3654-.0367-.5089-.0071-.1435-.0105-.2432-.0105-.2993-.0175.0561-.0517.1558-.1024.2993s-.1146.3112-.1915.5038l-.441,1.1075ZM371.7208,785.7853l.6088-3.8315h.567l-.525,3.3118h1.6744l-.0787.5197h-2.2465ZM376.6785,785.8377c-.3673,0-.6342-.1005-.8003-.3019-.1663-.201-.2214-.475-.1654-.8213l.4357-2.7608h.567l-.4357,2.7554c-.0315.1962-.008.35.0708.4619.0787.1122.2144.168.4068.168.1925,0,.3473-.0558.4646-.168.1172-.1119.1915-.2657.2231-.4619l.4355-2.7554h.567l-.4357,2.7608c-.056.35-.2003.6245-.433.8241-.2328.1993-.5328.299-.9003.299ZM379.8435,785.8377c-.385,0-.6736-.0951-.8661-.2859-.1924-.1908-.2641-.4505-.2151-.7794h.5668c-.028.1748.0105.3121.1155.4121.1051.0997.266.1495.483.1495.2029,0,.3701-.049.5012-.1469.1313-.098.2109-.2327.2389-.4044.0209-.1504.0007-.2788-.0604-.3856-.0614-.1068-.1583-.1811-.2913-.2233l-.4566-.1364c-.266-.0803-.4619-.217-.5879-.4095-.126-.1922-.1697-.4197-.1313-.6823.035-.2099.1121-.3935.2309-.551s.2729-.2799.4619-.3673.4024-.1313.6404-.1313c.3498,0,.6158.0954.7978.2859.182.1908.2485.4437.1995.7586h-.5668c.0279-.168-.0027-.3001-.092-.3964-.0891-.0963-.2301-.1444-.4225-.1444-.1889,0-.343.0447-.4619.1338-.119.0894-.1889.2144-.21.3753-.0245.1506-.007.2791.0525.3859s.1575.1811.2939.223l.4672.1469c.2624.0806.4558.2173.5801.4095.1242.1925.1653.4217.1233.6877-.035.217-.1155.4058-.2415.5667-.1259.1612-.2878.2862-.4855.3753-.1976.0894-.419.1338-.6639.1338ZM381.9062,785.7853l.6088-3.8315h2.2518l-.0787.5038h-1.6954l-.1731,1.0867h1.5115l-.0787.4986h-1.5115l-.1942,1.2387h1.6901l-.0787.5038h-2.2518ZM386.9426,785.8377c-.3568,0-.6228-.1005-.7978-.3019-.175-.201-.2345-.473-.1784-.8161l.2677-1.7006c.056-.3429.2029-.6148.4408-.8161.2379-.201.5355-.3019.8923-.3019s.6228.1.7979.2993c.1748.1993.2361.4707.1837.8136l-.2677,1.7057c-.0561.3431-.2039.6151-.4435.8161-.2398.2013-.5381.3019-.895.3019ZM387.0213,785.3339c.1925,0,.3483-.0524.4672-.1575.119-.1051.1942-.2571.2257-.4568l.2678-1.7006c.0315-.1993.0051-.3517-.0787-.4565-.084-.1051-.2223-.1575-.4148-.1575s-.3473.0524-.4645.1575c-.1173.1048-.1916.2571-.2231.4565l-.2677,1.7006c-.0315.1996-.0053.3517.0787.4568s.2204.1575.4094.1575ZM388.9529,785.7853l.6088-3.8315h.7086l.6194,3.186c.007-.098.0165-.217.0289-.3571.0121-.1398.0271-.2851.0446-.4354.0175-.1506.0367-.2888.0577-.4146l.315-1.9788h.525l-.609,3.8315h-.7085l-.6141-3.186c-.0071.0945-.0167.209-.0289.3437s-.0272.2757-.0446.4226c-.0177.1469-.0367.2833-.0578.4095l-.315,2.0102h-.5301ZM392.249,785.7853l.6088-3.8315h.567l-.525,3.3118h1.6744l-.0787.5197h-2.2465ZM396.1174,785.7853l.2204-1.4119-.7506-2.4197h.5774l.4462,1.4486c.0279.0945.0498.1837.0656.2677.0157.084.0253.1469.0288.1888.0175-.0419.0464-.1048.0867-.1888.0402-.084.0883-.1731.1442-.2677l.8976-1.4486h.5984l-1.5275,2.4197-.2204,1.4119h-.5668ZM399.217,785.7853l.6088-3.8315h.7086l.6192,3.186c.0071-.098.0165-.217.029-.3571.012-.1398.0271-.2851.0444-.4354.0177-.1506.037-.2888.0578-.4146l.315-1.9788h.5248l-.6088,3.8315h-.7085l-.6141-3.186c-.0071.0945-.0167.209-.0289.3437s-.0272.2757-.0446.4226c-.0177.1469-.0367.2833-.0578.4095l-.315,2.0102h-.5301ZM403.5053,785.8377c-.3571,0-.6231-.1005-.7979-.3019-.1751-.201-.2344-.473-.1785-.8161l.2677-1.7006c.0561-.3429.203-.6148.4411-.8161.2378-.201.5354-.3019.8922-.3019.3571,0,.6228.1.7979.2993.1748.1993.2361.4707.1837.8136l-.2677,1.7057c-.0561.3431-.2039.6151-.4437.8161-.2395.2013-.5379.3019-.8947.3019ZM403.5839,785.3339c.1925,0,.3483-.0524.4673-.1575.1187-.1051.1942-.2571.2255-.4568l.2677-1.7006c.0316-.1993.0054-.3517-.0786-.4565-.084-.1051-.2224-.1575-.4146-.1575-.1925,0-.3474.0524-.4647.1575-.117.1048-.1914.2571-.223.4565l-.2677,1.7006c-.0316.1996-.0051.3517.0789.4568.0837.1051.2204.1575.4092.1575ZM406.3814,785.7853l.5248-3.3121h-1.0234l.084-.5194h2.6193l-.084.5194h-1.0289l-.5248,3.3121h-.567ZM409.5178,785.7853l.6088-3.8315h2.32l-.084.5194h-1.7636l-.1837,1.1445h1.6272l-.084.5248h-1.6166l-.2571,1.6428h-.567ZM413.7694,785.8377c-.3571,0-.6231-.1005-.7979-.3019-.1751-.201-.2344-.473-.1785-.8161l.2677-1.7006c.0561-.3429.203-.6148.4411-.8161.2378-.201.5354-.3019.8922-.3019.3571,0,.6228.1.7979.2993.1748.1993.2361.4707.1837.8136l-.2677,1.7057c-.0561.3431-.2039.6151-.4437.8161-.2395.2013-.5379.3019-.8947.3019ZM413.848,785.3339c.1925,0,.3483-.0524.4673-.1575.1187-.1051.1942-.2571.2255-.4568l.2677-1.7006c.0316-.1993.0054-.3517-.0786-.4565-.084-.1051-.2224-.1575-.4146-.1575-.1925,0-.3474.0524-.4647.1575-.117.1048-.1914.2571-.223.4565l-.2677,1.7006c-.0316.1996-.0051.3517.0789.4568.0837.1051.2204.1575.4092.1575ZM415.7952,785.7853l.6088-3.8315h1.202c.2381,0,.4391.0464.6037.139.1643.0928.2833.223.3568.391s.0911.3656.0527.5932c-.0387.2591-.1401.4838-.3044.6746-.1646.1905-.3659.3209-.6037.391l.5354,1.6428h-.6194l-.4776-1.5748h-.5408l-.2466,1.5748h-.567ZM416.6876,783.7068h.635c.1891,0,.3491-.0558.4804-.168.131-.1119.2107-.2623.2386-.4514.0316-.1925,0-.3454-.0945-.4593-.0943-.1136-.2361-.1706-.4252-.1706h-.635l-.1993,1.2493ZM420.905,785.8377c-.3602,0-.6308-.1005-.8107-.3019-.1803-.201-.2423-.473-.1865-.8161l.2677-1.7006c.0561-.3463.2056-.6194.4488-.8187s.545-.2993.9056-.2993c.3568,0,.6253.1008.8056.3019.1803.2013.2423.4733.1865.8161h-.567c.0313-.1993.0026-.3517-.0866-.4565-.0894-.1051-.2284-.1575-.4175-.1575-.1925,0-.3508.0524-.475.1575-.1242.1048-.2019.2554-.2335.4514l-.2677,1.7057c-.0316.1996-.0026.3517.0866.4568.0894.1051.2301.1575.4226.1575s.35-.0524.4724-.1575.1993-.2571.2309-.4568h.5667c-.0347.2275-.1145.4252-.2386.5932s-.2808.2976-.4699.3884c-.1888.0908-.4024.1364-.6404.1364ZM424.0335,785.8377c-.3571,0-.6231-.1005-.7979-.3019-.1751-.201-.2344-.473-.1785-.8161l.2677-1.7006c.0561-.3429.203-.6148.4411-.8161.2378-.201.5354-.3019.8922-.3019.3571,0,.6228.1.7979.2993.1748.1993.2361.4707.1837.8136l-.2677,1.7057c-.0561.3431-.2039.6151-.4437.8161-.2395.2013-.5379.3019-.8947.3019ZM424.1121,785.3339c.1925,0,.3483-.0524.4673-.1575.1187-.1051.1942-.2571.2255-.4568l.2677-1.7006c.0316-.1993.0054-.3517-.0786-.4565-.084-.1051-.2224-.1575-.4146-.1575-.1925,0-.3474.0524-.4647.1575-.117.1048-.1914.2571-.223.4565l-.2677,1.7006c-.0316.1996-.0051.3517.0789.4568.0837.1051.2204.1575.4092.1575ZM425.9653,785.7853l.6088-3.8315h.6874l.1837,1.2282c.0211.119.0367.2301.0473.3332.0105.1034.0194.1828.0262.2389.0177-.0561.0473-.1364.0894-.2415.0419-.1051.0908-.217.1469-.336l.5667-1.2228h.7088l-.6088,3.8315h-.5354l.2045-1.2911c.0245-.168.0578-.3525.1-.5539.0419-.201.0874-.4041.1364-.6088s.0963-.3998.1418-.5852c.0453-.1854.0874-.3483.1259-.4881l-.8554,1.8632h-.5513l-.2833-1.8632c-.0037.1364-.0105.2947-.0211.475s-.0236.3719-.0393.5747c-.0157.203-.035.4069-.0578.6114-.0228.2047-.0481.3964-.076.5749l-.2047,1.2911h-.5405ZM429.1145,785.7853l.6088-3.8315h.6874l.1837,1.2282c.0211.119.0367.2301.0473.3332.0105.1034.0194.1828.0262.2389.0177-.0561.0473-.1364.0894-.2415.0419-.1051.0908-.217.1469-.336l.5667-1.2228h.7088l-.6088,3.8315h-.5354l.2045-1.2911c.0245-.168.0578-.3525.1-.5539.0419-.201.0874-.4041.1364-.6088s.0963-.3998.1418-.5852c.0453-.1854.0874-.3483.1259-.4881l-.8554,1.8632h-.5513l-.2833-1.8632c-.0037.1364-.0105.2947-.0211.475s-.0236.3719-.0393.5747c-.0157.203-.035.4069-.0578.6114-.0228.2047-.0481.3964-.076.5749l-.2047,1.2911h-.5405ZM432.4107,785.7853l.6088-3.8315h2.2516l-.0786.5038h-1.6955l-.1731,1.0867h1.5115l-.0786.4986h-1.5118l-.1942,1.2387h1.6901l-.0786.5038h-2.2516ZM435.5073,785.7853l.6088-3.8315h1.202c.2381,0,.4391.0464.6037.139.1643.0928.2833.223.3568.391s.0911.3656.0527.5932c-.0387.2591-.1401.4838-.3044.6746-.1646.1905-.3659.3209-.6037.391l.5354,1.6428h-.6194l-.4776-1.5748h-.5408l-.2466,1.5748h-.567ZM436.3997,783.7068h.635c.1891,0,.3491-.0558.4804-.168.131-.1119.2107-.2623.2386-.4514.0316-.1925,0-.3454-.0945-.4593-.0943-.1136-.2361-.1706-.4252-.1706h-.635l-.1993,1.2493ZM439.8007,785.8377c-.3602,0-.6308-.1005-.8107-.3019-.1803-.201-.2423-.473-.1865-.8161l.2677-1.7006c.0561-.3463.2056-.6194.4488-.8187s.545-.2993.9056-.2993c.3568,0,.6253.1008.8056.3019.1803.2013.2423.4733.1865.8161h-.567c.0313-.1993.0026-.3517-.0866-.4565-.0894-.1051-.2284-.1575-.4175-.1575-.1925,0-.3508.0524-.475.1575-.1242.1048-.2019.2554-.2335.4514l-.2677,1.7057c-.0316.1996-.0026.3517.0866.4568.0894.1051.2301.1575.4226.1575s.35-.0524.4724-.1575.1993-.2571.2309-.4568h.5667c-.0347.2275-.1145.4252-.2386.5932s-.2808.2976-.4699.3884c-.1888.0908-.4024.1364-.6404.1364ZM441.8792,785.7853l.0789-.5038h.7768l.4459-2.824h-.7766l.0837-.5038h2.1258l-.084.5038h-.7766l-.4462,2.824h.7768l-.0789.5038h-2.1258ZM444.7399,785.7853l1.585-3.8315h.7452l.3728,3.8315h-.5616l-.0735-.9711h-1.0867l-.3884.9711h-.5929ZM445.8998,784.3418h.8714l-.0894-1.1023c-.0174-.1959-.0296-.3654-.0367-.5089-.0068-.1435-.0103-.2432-.0103-.2993-.0177.0561-.0518.1558-.1025.2993s-.1148.3112-.1916.5038l-.4408,1.1075ZM448.2354,785.7853l.6088-3.8315h.567l-.5248,3.3118h1.6741l-.0786.5197h-2.2465ZM453.1932,785.8377c-.3676,0-.6345-.1005-.8005-.3019-.1663-.201-.2213-.475-.1654-.8213l.4357-2.7608h.567l-.4357,2.7554c-.0316.1962-.008.35.0709.4619.0786.1122.2141.168.4066.168s.3474-.0558.4645-.168c.1173-.1119.1916-.2657.2233-.4619l.4357-2.7554h.5667l-.4357,2.7608c-.0558.35-.2002.6245-.4328.8241-.2329.1993-.5328.299-.9001.299ZM456.3581,785.8377c-.385,0-.6738-.0951-.866-.2859-.1925-.1908-.2643-.4505-.2153-.7794h.567c-.0282.1748.0105.3121.1153.4121.1051.0997.266.1495.483.1495.2028,0,.3699-.049.5012-.1469s.2107-.2327.2389-.4044c.0211-.1504.0009-.2788-.0604-.3856s-.1583-.1811-.2913-.2233l-.4568-.1364c-.266-.0803-.4619-.217-.5878-.4095-.1259-.1922-.1697-.4197-.1313-.6823.035-.2099.1119-.3935.2309-.551s.2731-.2799.4619-.3673c.1891-.0874.4024-.1313.6404-.1313.3497,0,.6157.0954.7979.2859.1817.1908.2483.4437.1993.7586h-.567c.0279-.168-.0026-.3001-.0917-.3964-.0894-.0963-.2301-.1444-.4226-.1444-.1891,0-.3429.0447-.4619.1338-.119.0894-.1891.2144-.2099.3753-.0245.1506-.0071.2791.0524.3859s.1575.1811.2939.223l.4673.1469c.2623.0806.4556.2173.5798.4095.1242.1925.1654.4217.1236.6877-.035.217-.1156.4058-.2415.5667-.1262.1612-.2879.2862-.4855.3753-.1979.0894-.4192.1338-.6641.1338ZM458.4209,785.7853l.6088-3.8315h2.2516l-.0786.5038h-1.6955l-.1731,1.0867h1.5115l-.0786.4986h-1.5118l-.1942,1.2387h1.6901l-.0786.5038h-2.2516Z" style="fill: #ccc;"/>
  <g>
    <g>
      <path d="M748.5882,175.26c-.4922-1.3534-1.9685-.7382-2.9529-.8612-15.6254-1.1073-31.3737-.8612-46.9991-.8612-22.2692,0-44.5384-.3691-66.8076-.2461-31.2507.123-62.5014-.6152-93.7521,0-7.136.123-13.5338,2.3376-19.5624,6.0287-12.0573,7.3821-21.531,17.4709-29.6513,28.79-15.6254,21.531-36.6642,33.5883-62.8705,36.7872-1.3534.123-16.6096-1.4764-20.6697-2.3377-11.6882-2.7068-19.9316-10.2118-27.3136-18.9473-5.1675-6.1517-8.8585-13.4107-13.4107-20.0546-7.3821-10.95-16.7327-19.9315-29.6513-24.1147-8.7354-2.8298-17.84-3.9371-27.1906-3.568-18.086.6152-36.2951,1.3534-54.3811,1.9685-47.8602,1.4764-95.5975,3.0759-143.3348,4.6753-15.2562.4921-30.5125.8612-45.7687,1.5994-4.3062.2461-8.8585-.4921-13.0416,1.8455v3.3219c1.2303,1.5994,2.5837,3.0759,3.9371,4.4292,5.1674,5.5365,12.1804,9.2276,17.1018,15.0102,14.7641,17.3478,32.8501,29.8973,53.889,38.1406,4.3062,1.7225,7.9972,4.0601,11.0731,7.259,8.9815,8.9815,19.9315,14.272,32.235,16.8557,4.7983.9843,9.2276,2.7067,13.0416,5.7826,2.3377,1.8455,4.7983,2.0916,7.5051,1.1073,3.1989-1.2303,6.5208-2.3377,9.9658-2.9528,8.3663-1.4764,16.7326-3.0759,25.099-4.5523,5.6596-.9843,11.4422-2.0916,17.2248-2.9528,1.2303-.2461,2.8298-.123,2.9528,1.3534.123,1.4764-1.4764.7382-2.3376,1.1073-.7382.2461-1.4764.3691-2.3376.4921-16.2405,2.5837-32.358,5.5365-48.1064,10.4579-1.4764.4921-3.3219.7382-3.568,2.5837-.2461,1.9685,1.2303,2.8298,2.5837,3.9371,10.4579,7.6281,22.3922,10.4579,34.9417,11.1961,16.6096.8612,32.6041-2.9528,48.3524-8.2433,1.4764-.4921,3.691-2.3377,4.4292-.3691.6152,1.5994-2.2146,1.8455-3.691,2.3377-11.6882,4.1832-23.3765,8.2433-35.0647,12.3034-1.7225.6152-3.3219,1.2303-5.0444,1.9685-1.1073.4921-2.2146,1.3534-2.0916,2.7067.123,1.2303,1.2303,1.7225,2.3376,2.0916,2.8298.8612,5.7826,1.9685,8.6124,2.5837,5.0444,1.2303,10.4579,1.5994,15.2562,3.8141,2.9528,1.3534,5.1674.8612,7.8742-.6152,7.136-3.9371,15.2562-3.691,23.1304-4.1832-6.7669,1.4764-13.4107,3.445-19.8085,6.1517-1.3534.6152-2.9528.9843-2.9528,2.7067s1.2303,2.7067,2.7067,3.568c2.8298,1.4764,5.7826,2.0916,8.8585,2.7067,10.4579,1.8455,19.0703.123,28.5439-1.8455.2461-.123.4921-.123.7382-.2461,10.2118-2.3377,19.1933-7.3821,28.0518-12.7956,1.2303-.7382,2.4607-1.9685,4.1832-1.8455.123-.123.2461-.2461.2461-.3691.2461.3691.123.4921-.2461.3691-1.2303,4.7983-4.5523,8.3663-7.7512,11.8113-6.2748,6.6438-12.9186,17.2248-21.531,19.9315-3.9371,3.0759-31.6198,18.3321-34.0805,45.7687,0,.2461,1.3534.3691,3.568.6152h-22.7613v163.1434c0,64.2239,66.1924,63.2396,116.2673,73.6975h0c50.0749-10.4579,116.2673-9.4736,116.2673-73.6975v-163.1434h-37.2793c9.5967-.8612,18.7012-1.7225,17.3478-2.3376-12.9186-5.7826-.4921-17.2248-4.7983-25.7141s-12.9186-16.2405-13.9029-18.4551c-.9843-2.0916-.2461-2.9528,2.0916-2.3376,4.3062,1.2303,8.6124.7382,12.9186-.4921,4.6753-1.3534,8.8585-3.568,13.1647-5.6596,1.8455-.8612,2.5837-2.4607,1.4764-4.1832-1.1073-1.8455-2.0916.123-2.9528.6152-4.5523,2.8298-9.4736,4.5523-14.8871,4.5523-1.4764,0-2.8298-.123-3.9371-1.5994,1.5994-.8612,3.0759-.4921,4.4292-.4921,2.7068-.123,5.2905-.6152,7.013-2.7067,3.0759-3.8141,7.013-3.9371,11.1961-3.0759,1.7225.3691,3.568.6152,5.2905.7382,7.259.3691,13.9029-1.8455,20.0546-5.5365,1.4764-.8612,2.3376-2.5837,1.5994-3.9371-.7382-1.4764-2.3376-.4921-3.568,0-9.2276,3.8141-18.9473,3.691-28.79,3.1989-.4921,0-1.1073-.2461-1.5994-.4921-2.0916-1.1073-4.4292-2.2146-3.8141-5.1674.6152-2.4607,3.3219-3.568,6.2748-2.7067,6.7669,1.9685,13.6568,3.445,20.6697,4.0601,1.4764.123,3.4449.8612,4.0601-1.1073.7382-1.9685-1.1073-2.7067-2.4607-3.445-4.6753-2.8298-9.5967-5.4135-14.6411-7.259-1.5994-.6152-4.1832-1.1073-3.1989-3.3219.7382-1.7225,2.7068,0,4.1832.3691.3691.123.6152.2461.9843.3691,6.5208,3.3219,13.5338,4.4292,20.7928,4.6753,10.0888.2461,19.6855-2.8298,29.5282-4.3062,2.4607-.3691,2.7068-1.9685,1.7225-3.9371-.3691-.7382-1.3534-1.2303-1.1073-2.4607,2.5837-.2461,4.9214.3691,7.013,1.7225,2.3376,1.4764,3.0759.7382,3.691-1.5994,1.7225-7.7512,7.136-11.6882,14.395-13.0416,7.5051-1.3534,14.8871-3.0759,22.1462-5.2905,12.7955-4.0601,25.222-9.1045,34.4496-19.1933,3.9371-4.1832,8.2433-6.8899,13.2877-9.1045,13.0416-5.5365,26.5754-10.3349,37.4024-19.9315,6.1517-5.2905,13.1646-8.6124,20.6698-11.5652,9.5967-3.691,18.086-9.2276,24.2378-17.4709,4.5523-6.1517,10.3349-9.9658,16.8557-13.2877,5.1675-2.5837,10.3349-5.2905,14.2719-9.8427.9843-.8613,2.0915-1.9686,1.4764-3.445Z" style="fill: #f2f2f2;"/>
      <path d="M374.564,627.5606l-.2517-.0529c-7.7996-1.628-16.1837-3.011-24.2914-4.347-22.4153-3.6946-45.5929-7.5154-63.1602-17.2572-20.0483-11.1187-29.7943-28.5526-29.7943-53.2976v-164.3738h19.2529c2.5496-24.6225,24.9499-39.6671,32.3511-44.6383.9648-.6476,1.7266-1.1595,2.1429-1.4845l.176-.137.2127-.0673c6.0754-1.9098,11.3831-8.2814,16.0659-13.9032,1.7055-2.0474,3.3162-3.9806,4.9394-5.6993,2.5995-2.7995,5.262-5.6663,6.7356-9.1543-.2397.1496-.4836.3178-.7377.4932-.3046.2103-.6038.4157-.9023.5947-8.4862,5.1857-17.6675,10.4573-28.2931,12.9126-.179.0739-.3388.1135-.462.1448-.0427.0102-.0853.018-.1274.0342l-.2902.0997c-9.3303,1.9386-18.1427,3.7691-29.0086,1.8527-2.898-.5791-6.1517-1.2303-9.2137-2.8277-1.6905-.9846-3.3678-2.2829-3.3678-4.6588,0-2.2889,1.8665-3.0668,3.1023-3.5811.1916-.0799.3845-.1604.5719-.2457,2.4673-1.0441,5.0067-1.9981,7.6446-2.8716-3.4309.507-6.7753,1.3968-9.8632,3.1005-2.8578,1.5572-5.4759,2.2624-8.9813.6566-3.1173-1.4394-6.6245-2.0864-10.0164-2.713-1.6527-.3046-3.3618-.6206-5.0187-1.0243-1.9759-.4295-4.0317-1.1018-6.0195-1.7518-.8933-.2926-1.7824-.5833-2.6595-.8507-.9161-.3046-2.9881-.9948-3.2038-3.1455-.1526-1.6791.8477-3.0795,2.8169-3.9542,1.6551-.7095,3.2327-1.3253,5.1292-2.0029,8.4484-2.9347,17.1028-5.9402,25.7669-8.9993-11.4648,3.3234-25.1007,6.1024-39.4424,5.3581-14.7941-.8705-26.1045-4.5026-35.603-11.4305l-.5335-.4241c-1.2688-.9991-2.8482-2.242-2.546-4.6594.3166-2.3748,2.3958-2.9942,3.7715-3.4045.2133-.0631.4241-.1262.6278-.194,16.1633-5.0511,32.7657-8.0339,48.3023-10.506.9047-.1292,1.5355-.2421,2.1423-.444.2139-.0943.4584-.1406.7041-.1634-.1958.0018-.4271.024-.6891.0763-4.1488.6194-8.2922,1.3613-12.2998,2.0792-1.6599.2974-3.3132.5935-4.9556.8795-4.1752.7365-8.3535,1.5049-12.5317,2.2726-4.1884.7702-8.3763,1.5397-12.5641,2.2787-2.8704.5124-5.8742,1.404-9.7382,2.8902-3.2206,1.1703-6.1439.7353-8.7085-1.291-3.3312-2.686-7.4253-4.496-12.5263-5.5425-13.1613-2.7641-24.2145-8.5475-32.8582-17.1911-2.8686-2.9827-6.35-5.2626-10.6604-6.9862-21.5154-8.4304-39.8107-21.3802-54.3687-38.486-2.5316-2.9749-5.7384-5.4584-8.8401-7.8603-2.8193-2.1825-5.7342-4.4402-8.2237-7.1081-1.5529-1.5505-2.8752-3.0386-4.013-4.5177l-.2553-.3316v-4.463l.6302-.352c3.4471-1.926,7.0186-1.9326,10.4717-1.9386,1.0747-.0018,2.0894-.0036,3.0999-.0613,11.4642-.5545,23.1032-.9065,34.3595-1.2466,3.813-.1153,7.6266-.2307,11.4395-.3538,46.8305-1.5692,95.2566-3.1924,143.3367-4.6757,9.0377-.3076,18.1103-.6458,27.1829-.984,9.075-.3382,18.1499-.677,27.1943-.9846,9.7058-.3827,18.9994.8374,27.6118,3.6279,11.8018,3.8214,21.7106,11.8667,30.2924,24.5966,1.6719,2.4403,3.2507,4.9995,4.7778,7.474,2.6205,4.2467,5.3299,8.6382,8.5547,12.4776,6.4251,7.6025,14.6175,15.7535,26.6488,18.5398,4.1464.8795,19.0919,2.3712,20.2838,2.3105,25.9429-3.1672,46.8107-15.3769,61.9833-36.2843,9.248-12.8922,19.0643-22.4183,30.004-29.1167,6.6299-4.0587,13.2322-6.0898,20.1841-6.2094,19.116-.3755,38.5455-.2433,57.3395-.1171,11.9406.0805,24.2884.1616,36.4297.1171,12.7372-.0685,25.6786.0216,38.1947.1105,9.3802.0661,19.0799.1352,28.6175.1352,2.3982,0,4.8-.006,7.2042-.0114,13.0832-.0306,26.611-.0643,39.8816.8759.2151.0252.465.009.7065-.0084.8519-.0583,2.6229-.1802,3.3053,1.6485.9492,2.3237-.8831,4.004-1.7482,4.7634-3.9542,4.5423-8.9512,7.2505-14.5959,10.0734-5.438,2.7701-11.6486,6.4749-16.4174,12.9186-5.8033,7.7773-14.1417,13.7945-24.7847,17.8874-6.8041,2.6776-13.9819,5.9084-20.3091,11.35-9.4811,8.4039-21.1032,13.2226-32.3433,17.8826-1.7963.7455-3.5937,1.4899-5.3803,2.2486-5.3888,2.3652-9.3633,5.086-12.8729,8.8154-9.5412,10.4303-22.4477,15.5481-34.9734,19.5227-7.054,2.1519-14.3448,3.8935-22.2999,5.3287-7.4217,1.3835-11.9358,5.4542-13.4112,12.0974-.3629,1.3823-.8555,2.6842-2.063,3.1594-1.2267.4824-2.5075-.1676-3.4868-.787-1.443-.9336-2.993-1.4556-4.627-1.5632.167.2037.34.4337.4782.7119.7666,1.5313.8783,2.8422.3316,3.8947-.5094.981-1.5091,1.5896-2.9713,1.8089-3.1696.4758-6.3824,1.1324-9.4895,1.768-6.5398,1.3379-13.2826,2.725-20.2514,2.5514-8.6496-.2932-15.3997-1.8089-21.2438-4.7694-.1694-.0595-.3184-.1183-.4674-.1778-.1334-.0529-.2667-.1069-.4253-.1598-.4385-.1057-.954-.3454-1.4538-.5773-.3532-.1646-.9143-.4253-1.2027-.474-.1286.295-.1358.4307-.1141.4824.1502.3442,1.2784.7341,1.884.9432.2559.0883.5046.1748.7341.2625,4.5597,1.6689,9.4186,4.0767,14.835,7.355l.3172.167c1.2964.6843,3.7115,1.9591,2.6589,4.7634-.2583.8278-.6909,1.3493-1.2015,1.6701.9312-.304,1.8575-.6446,2.7791-1.0255.1706-.0679.334-.14.501-.2127,1.0393-.4548,3.4772-1.5217,4.6366.8002.9985,1.8263.0937,4.2816-2.0798,5.5498-6.982,4.1891-13.7789,6.0592-20.7368,5.7023-1.8912-.1346-3.7799-.3983-5.4861-.7636-.1189-.0246-.2367-.0481-.3544-.0709.2968.2259.5659.5401.8062.9408.8435,1.3102.7714,2.4691.5587,3.2044-.3292,1.139-1.2424,2.1074-2.57,2.7274l-1.8215.8921c-3.643,1.7914-7.4109,3.6448-11.5212,4.8337-5.2314,1.4929-9.5496,1.6509-13.5986.4938-.4518-.1189-.7461-.1472-.9228-.1478.0324.1592.1093.4103.2824.778.2848.6392,1.7085,2.2504,3.2152,3.956,3.1167,3.5264,7.8254,8.8557,10.6718,14.4673,1.932,3.8088.9107,7.9335-.0781,11.9225-1.4094,5.6867-2.5232,10.1792,4.281,13.225.7509.3406.9228,1.0027.8435,1.467-.0505.2986-.0925.5437-.346.763h20.1625v164.3738c0,24.745-9.7454,42.1789-29.7949,53.2976-17.566,9.7418-40.7443,13.5626-63.1596,17.2572-8.1078,1.3361-16.4919,2.719-24.2914,4.347l-.2517.0529ZM259.527,390.6927v161.9131c0,53.1438,46.2075,60.7602,90.8939,68.1266,8.0465,1.3265,16.3639,2.6974,24.1431,4.3146,7.7791-1.6172,16.0966-2.9881,24.1431-4.3146,44.6864-7.3664,90.8939-14.9828,90.8939-68.1266v-161.9131h-36.0488l-.1105-2.4559c4.0347-.3617,10.6261-.9528,14.3099-1.455-5.6651-3.9229-4.269-9.5568-3.0194-14.5971.9204-3.7157,1.7902-7.2247.2727-10.217-2.7046-5.3311-7.2883-10.5186-10.3209-13.9507-2.0906-2.3664-3.2008-3.6442-3.6093-4.5615-.6945-1.4736-.7101-2.6433-.0372-3.4525.6861-.823,1.8828-1.0153,3.5661-.5749,3.6129,1.0327,7.5046.8759,12.2674-.4854,3.8989-1.1282,7.4037-2.8524,11.1163-4.6775l1.8491-.9053c.6909-.3232,1.1342-.7425,1.2628-1.1889.1033-.3574.0084-.769-.2836-1.2225-.0144-.0234-.0276-.0445-.0396-.0643-.1141.1009-.2415.2241-.3328.3142-.2848.2769-.5791.5641-.936.7678-5.0884,3.1648-10.1695,4.7147-15.497,4.7147-1.622,0-3.4736-.1616-4.9214-2.0912l-.8579-1.1432,1.258-.6783c1.5463-.8326,2.9917-.7461,4.1512-.6758.2932.018.5803.036.8627.036,3.0855-.1412,4.8577-.7954,6.0616-2.2582,3.709-4.5982,8.5715-4.2846,12.3959-3.4988,1.6052.3436,3.375.5911,5.1292.7161,6.4401.3256,12.772-1.4274,19.3334-5.3641.8879-.5178,1.5535-1.5578,1.1522-2.2931-.0637-.125-.0925-.1514-.0925-.152-.2019-.0445-.996.3004-1.3781.4674-.191.0835-.3797.1658-.5599.2379-9.4679,3.9139-19.2698,3.7895-29.3083,3.2849h-.006c-.5455.0006-1.246-.2031-2.081-.6194l-.2559-.1352c-2.1074-1.1114-4.9947-2.6331-4.2125-6.3848.3436-1.3817,1.1895-2.4967,2.3898-3.1858,1.4935-.8573,3.4748-1.0219,5.4332-.4512,7.3628,2.1423,14.0468,3.4555,20.4316,4.016.2824.0234.5875.0679.8975.1135,1.6917.2517,1.7446.0715,1.8816-.3623.2379-.641.2259-.8861-1.4827-1.7878l-.3929-.2103c-5.3275-3.2224-10.0458-5.5636-14.4745-7.1838-.2235-.0853-.4446-.1616-.6716-.2403-1.2279-.4241-2.7563-.9522-3.3378-2.2883-.3208-.7395-.2848-1.5632.1081-2.4487.3496-.8152.9119-1.1763,1.3205-1.3325,1.0862-.4169,2.1988.1033,3.1816.5599.3953.1832.8026.3731,1.1054.4482.3004.0967.4746.1658.6488.2355.1334.0535.2667.1069.4253.1598l.1694.0709c5.5293,2.8175,11.9718,4.2605,20.2766,4.5423,6.6587.1718,13.2802-1.1919,19.6867-2.5027,3.1383-.6416,6.3824-1.3054,9.6169-1.7902.6128-.0919,1.0321-.2775,1.1522-.5094.1189-.2289.0901-.7852-.3484-1.6611-.0481-.0967-.1766-.2499-.3016-.3977-.4482-.5317-1.1979-1.422-.9107-2.8548l.179-.8963.9107-.0871c2.7899-.2625,5.4224.3767,7.7978,1.914.9576.605,1.2688.5629,1.2784.5653.006-.0162.2355-.2319.5551-1.4442,1.6977-7.65,6.869-12.3551,15.3576-13.9381,7.8675-1.419,15.0657-3.1383,22.0128-5.2578,12.1869-3.867,24.739-8.8305,33.9005-18.8468,3.7607-3.995,7.9828-6.89,13.702-9.4006,1.8071-.7678,3.6105-1.5151,5.414-2.263,11.0527-4.5825,22.4802-9.3207,31.6669-17.4633,6.6191-5.6921,14.0204-9.0293,21.0348-11.7892,10.2116-3.9271,18.1836-9.6667,23.7021-17.062,5.0704-6.8504,11.5825-10.7433,17.2837-13.6479,5.4404-2.7202,10.2344-5.3131,13.899-9.5514l.1214-.1214c1.2339-1.079,1.3565-1.5517,1.151-2.0456l-.0204-.0535c-.0216-.0565-.036-.0769-.0372-.0769-.0913-.033-.5335-.0036-.7978.015-.3593.024-.7305.0499-1.1138.0018-13.1156-.9276-26.6061-.8975-39.6365-.8633-2.4066.0054-4.8096.0114-7.2102.0114-9.546,0-19.2505-.0691-28.6343-.1358-12.5113-.0889-25.4527-.1802-38.1658-.1099-12.1592.0457-24.5119-.036-36.4585-.1171-18.7747-.1262-38.1911-.2589-57.277.1171-6.5038.1117-12.6999,2.0245-18.9441,5.8477-10.655,6.523-20.237,15.8316-29.2939,28.4577-15.5943,21.4883-37.0328,34.0333-63.7219,37.2911-1.6665.1532-17.0434-1.5007-21.0744-2.3556-12.7552-2.9539-21.3087-11.4419-27.9969-19.3563-3.3432-3.9794-6.1006-8.449-8.7674-12.7708-1.5121-2.4505-3.0753-4.9838-4.7189-7.3827-8.2676-12.2638-17.7571-19.9937-29.0152-23.6396-8.3354-2.7004-17.3425-3.8755-26.7629-3.5096-9.0485.3082-18.1211.6464-27.1937.9846-9.075.3382-18.1499.677-27.1943.9846-48.0813,1.4833-96.5056,3.1065-143.3354,4.6757-3.8166.1232-7.6314.2385-11.4461.3538-11.2455.34-22.8731.6915-34.3042,1.2448-1.0675.0607-2.1645.0625-3.2254.0643-3.0464.0054-5.9366.0108-8.6454,1.3006v2.1513c1.0153,1.2874,2.1885,2.5935,3.5769,3.9806,2.3838,2.5538,5.2193,4.7496,7.9612,6.8726,3.2008,2.4787,6.5104,5.0415,9.2077,8.2111,14.2919,16.7934,32.2586,29.5084,53.4003,37.7922,4.6498,1.8599,8.4123,4.329,11.511,7.5521,8.4003,8.3997,18.7429,13.8041,31.6014,16.5045,5.4897,1.1258,9.9274,3.0981,13.5614,6.0286,1.8918,1.4941,3.9031,1.786,6.3115.9089,3.9944-1.5361,7.1375-2.4667,10.1701-3.008,4.1848-.7383,8.3673-1.5073,12.5491-2.2757,4.1842-.7696,8.3679-1.5385,12.5521-2.2769,1.6413-.2854,3.2903-.5809,4.9466-.8777,4.025-.7209,8.1871-1.4664,12.3106-2.0804.7383-.149,2.2378-.295,3.324.5227.6104.4596.969,1.1318,1.0369,1.9452.0565.6837-.1093,1.2418-.4944,1.6599-.6044.6572-1.4418.6572-2.0534.6572-.1802,0-.4536,0-.5431.0282-.9486.3196-1.7848.453-2.6367.5743-15.4261,2.4547-31.9228,5.4176-47.9137,10.4147-.2061.0685-.4428.1394-.6813.2109-1.4712.4385-1.9434.6831-2.0341,1.3613-.1171.9384.3532,1.407,1.6274,2.4102.1718.1352.3448.2715.516.4115,9.0455,6.5963,19.9414,10.0794,34.2345,10.9205,18.0737.9312,35.0846-3.8809,47.889-8.1817.28-.0937.6386-.2715,1.0183-.4596,1.1066-.5473,2.3598-1.1667,3.5541-.6975.4446.1754,1.0477.5821,1.4004,1.5223.3064.7972.1316,1.428-.0697,1.8155-.5977,1.1504-2.0954,1.5259-3.4165,1.8569-.3502.0877-.6861.1706-.9684.2643-11.7249,4.1963-23.5826,8.315-35.0497,12.2986-1.8365.656-3.3702,1.2544-4.9628,1.9368-.6428.286-1.4136.778-1.3511,1.4646.0342.3472.292.6332,1.5007,1.0357.8627.2619,1.768.5581,2.6782.8561,1.929.6308,3.9241,1.2832,5.8069,1.6929,1.6196.3947,3.2939.7035,4.913,1.0027,3.5408.6536,7.2024,1.3295,10.5973,2.8968,2.5941,1.1889,4.4486.6885,6.7705-.5785,6.3055-3.4796,13.3127-3.8166,20.0898-4.1428,1.1871-.0571,2.3724-.1141,3.5523-.188l.3388,2.43c-7.2433,1.58-13.6515,3.5697-19.5912,6.0826-.1814.0829-.3983.1736-.614.2637-1.3355.5563-1.5878.7642-1.5878,1.3096,0,.9354.5683,1.6142,2.096,2.5051,2.7004,1.4076,5.6387,1.9951,8.4802,2.5634,10.3203,1.8215,18.8805.0619,27.9248-1.8173.1736-.0697.328-.1087.4488-.1388.0421-.0102.0853-.018.1274-.0348l.2655-.0937c10.3143-2.361,19.3316-7.5419,27.6845-12.6465.2637-.158.5191-.3352.7792-.5148.8296-.5725,1.8185-1.255,3.0614-1.4592v-3.2567l2.254,3.3846c.6038.9053.2439,1.5596.0607,1.7987-.0547.0721-.1706.2037-.352.3172-1.4358,4.7003-4.6715,8.1841-7.8056,11.5591-1.5998,1.6947-3.187,3.5997-4.8673,5.617-4.8493,5.8213-10.3384,12.4116-17.0097,14.6085-.4848.3623-1.1823.8308-2.1062,1.4514-7.8741,5.2884-28.6079,19.2145-31.2265,42.3291.486.0655,1.1384.1376,1.7776.2073l.6002.0667-.1358,2.4529h-21.531ZM453.0055,341.4298h0ZM478.9268,328.3718c-2.7923,0-4.7772.9732-6.4545,3.053-.8014.9738-1.741,1.6461-2.7478,2.1122,2.8548-.6921,5.6759-1.914,8.5223-3.6838.1262-.0733.3376-.28.4782-.4169.3605-.3514.8086-.7882,1.3733-1.0117-.4061-.0348-.7954-.0529-1.1715-.0529ZM476.2078,314.6146c-.7185,0-1.3769.1556-1.9128.4626-.632.3635-1.0417.9023-1.2171,1.6016-.3544,1.7061.6296,2.4282,2.9629,3.6586l.2331.1232c.6801.3388.99.349,1.0237.349,8.282.4121,16.3393.5701,24.0686-1.631-.6909.0565-1.3793-.0457-1.8948-.1226-.2559-.0378-.507-.0763-.7449-.0961-6.553-.5749-13.3908-1.9176-20.911-4.1055-.5503-.1598-1.0934-.2397-1.6076-.2397ZM277.9893,290.2168c-.1045.0066-.4373.1526-.7876.3184.316-.0937.6158-.1982.799-.3016-.0072-.012-.0108-.0168-.0114-.0168Z" style="fill: #002069;"/>
    </g>
    <g>
      <g>
        <path d="M258.4199,389.5856v163.1434c0,64.2239,66.1924,63.2396,116.2673,73.6975h0c50.0749-10.4579,116.2673-9.4736,116.2673-73.6975v-163.1434h-232.5346Z" style="fill: #fff;"/>
        <path d="M374.6871,628.1854l-.352-.0733c-7.7894-1.6268-16.1681-3.0074-24.271-4.3434-22.4561-3.7018-45.677-7.5298-63.3188-17.3125-20.2189-11.2137-30.0479-28.7881-30.0479-53.7277v-164.8652h235.9794v164.8652c0,24.9397-9.8283,42.5141-30.0473,53.7265-17.6417,9.7839-40.8632,13.6119-63.3194,17.3137-8.1024,1.3361-16.4811,2.7166-24.271,4.3434l-.352.0733ZM260.1422,391.3079v161.4205c0,52.7257,45.9985,60.3084,90.4818,67.6412,8.0176,1.3217,16.3026,2.6878,24.0632,4.2978,7.7605-1.61,16.0461-2.9761,24.0632-4.2978,44.4846-7.3328,90.483-14.9155,90.483-67.6412v-161.4205h-229.0911Z" style="fill: #002d92;"/>
      </g>
      <g>
        <g>
          <path d="M275.2756,460.4533v85.7548c0,30.2664,17.2248,43.5541,39.7401,50.9362v-136.691h-39.7401Z" style="fill: #00b2ff;"/>
          <path d="M316.7379,599.5211l-2.2588-.7401c-36.6832-12.0271-40.9257-35.764-40.9257-52.5731v-87.4768h43.1845v140.7901ZM276.9981,462.1745v84.0333c0,24.6261,11.2173,39.6773,36.2951,48.5312v-132.5645h-36.2951Z" style="fill: #002d92;"/>
        </g>
        <g>
          <path d="M315.0157,460.4533v136.814c12.3034,4.0601,26.2063,6.2748,39.7401,8.4894v-145.3034h-39.7401Z" style="fill: #fff;"/>
          <path d="M356.4783,607.7838l-3.1113-.5094c-13.1739-2.1531-26.796-4.3807-38.8909-8.3721l-1.1829-.3905v-139.7808h43.1851v149.0528ZM316.7379,596.0151c11.2779,3.5829,23.964,5.6975,36.2957,7.7149v-141.5554h-36.2957v133.8405Z" style="fill: #002d92;"/>
        </g>
        <g>
          <path d="M394.6188,460.4533v145.3034c13.6568-2.2146,27.4366-4.5523,39.74-8.4894v-136.8141h-39.74Z" style="fill: #fff;"/>
          <path d="M392.8966,607.7802v-149.0492h43.1845v139.7928l-1.1967.3833c-12.0992,3.8725-25.2689,6.1625-39.9897,8.5499l-1.9981.3232ZM396.3413,462.1745v141.5578c13.2947-2.1723,25.2941-4.3242,36.2963-7.7293v-133.8285h-36.2963Z" style="fill: #002d92;"/>
        </g>
        <g>
          <path d="M354.7557,460.4533v145.3034c6.7669,1.1073,13.5338,2.2146,19.9315,3.568h0c6.3978-1.3534,13.1647-2.4607,19.9316-3.568v-145.3034h-39.8631Z" style="fill: #00b2ff;"/>
          <path d="M374.6871,611.0844l-.3562-.0757c-6.3836-1.3493-13.231-2.4691-19.8531-3.5517l-1.4442-.2367v-148.4893h43.3077v148.4893l-1.4442.2367c-6.6221,1.0826-13.4695,2.2024-19.8537,3.5517l-.3562.0757ZM356.4783,604.2935c6.0844.996,12.3178,2.0354,18.2088,3.2705,5.8916-1.2351,12.125-2.2745,18.2094-3.2705v-142.1189h-36.4182v142.1189Z" style="fill: #002d92;"/>
        </g>
        <g>
          <path d="M434.3588,597.2673c22.6383-7.3821,39.74-20.6697,39.74-50.9362v-85.7548h-39.74v136.691Z" style="fill: #00b2ff;"/>
          <path d="M432.6376,599.64v-140.7853h43.1833v87.4768c0,35.1597-23.3573,46.8431-40.9281,52.5731l-2.2552.7353ZM436.0811,462.2983v132.5682c25.0766-8.8106,36.2963-23.8643,36.2963-48.5348v-84.0333h-36.2963Z" style="fill: #002d92;"/>
        </g>
      </g>
      <g>
        <path d="M292.9926,419.3598c-.2461-.2461-.6152-.6152-1.1073-.9843s-1.1073-.6152-1.8455-.9843c-.7382-.2461-1.4764-.4921-2.2146-.7382-.8612-.2461-1.5994-.2461-2.4607-.2461-1.8455,0-3.3219.3691-4.1832.9843-.8612.7382-1.3534,1.5994-1.3534,2.8298,0,.7382.123,1.2303.3691,1.7225s.7382.8612,1.3534,1.1073c.6152.3691,1.3534.6152,2.2146.8612s1.9686.4921,3.0759.8612c1.4764.3691,2.7067.7382,3.9371,1.1073,1.1073.3691,2.0916.9843,2.9528,1.5994s1.4764,1.3534,1.8455,2.2146c.4921.8612.6152,1.9686.6152,3.3219,0,1.4764-.2461,2.7067-.8612,3.691-.4921.9843-1.3534,1.8455-2.2146,2.5837-.9843.6152-2.0916,1.1073-3.3219,1.4764-1.2303.2461-2.5837.4921-4.0601.4921-2.2146,0-4.3062-.3691-6.2748-.9843s-3.8141-1.5994-5.5365-2.8298l2.0916-3.8141c.3691.3691.8612.7382,1.4764,1.1073.6152.3691,1.4764.8612,2.3376,1.2303s1.8455.6152,2.8298.8612,2.0916.3691,3.1989.3691c1.7225,0,3.0759-.2461,4.0601-.8612s1.4764-1.4764,1.4764-2.7067c0-.7382-.123-1.3534-.4921-1.8455-.3691-.4921-.8612-.8612-1.5994-1.2303-.6152-.3691-1.4764-.7382-2.4607-.9843s-2.0916-.6152-3.3219-.8612c-1.4764-.3691-2.7067-.7382-3.691-1.2303-1.1073-.3691-1.9686-.8612-2.5837-1.4764-.7382-.6152-1.2303-1.2303-1.5994-2.0916-.3691-.7382-.4921-1.7225-.4921-2.8298,0-1.3534.2461-2.5837.8612-3.691.4921-1.1073,1.2303-1.9686,2.2146-2.7067.9843-.7382,1.9686-1.2303,3.3219-1.7225,1.2303-.3691,2.5837-.6152,4.0601-.6152,1.9686,0,3.691.2461,5.2905.8612s3.0759,1.3534,4.3062,2.3376l-2.2146,3.8141Z" style="fill: #002069;"/>
        <path d="M301.1128,441.1369v-5.1674h3.691v5.1674h-3.691Z" style="fill: #002069;"/>
        <path d="M328.5494,419.3598c-.2461-.2461-.6152-.6152-1.1073-.9843s-1.1073-.6152-1.8455-.9843c-.7382-.2461-1.4764-.4921-2.2146-.7382-.8612-.2461-1.5994-.2461-2.4607-.2461-1.8455,0-3.3219.3691-4.1832.9843-.8612.7382-1.3534,1.5994-1.3534,2.8298,0,.7382.123,1.2303.3691,1.7225s.7382.8612,1.3534,1.1073c.6152.3691,1.3534.6152,2.2146.8612s1.9686.4921,3.0759.8612c1.4764.3691,2.7067.7382,3.9371,1.1073,1.1073.3691,2.0916.9843,2.9528,1.5994s1.4764,1.3534,1.8455,2.2146c.4921.8612.6152,1.9686.6152,3.3219,0,1.4764-.2461,2.7067-.8612,3.691-.4921.9843-1.3534,1.8455-2.2146,2.5837-.9843.6152-2.0916,1.1073-3.3219,1.4764-1.2303.2461-2.5837.4921-4.0601.4921-2.2146,0-4.3062-.3691-6.2748-.9843s-3.8141-1.5994-5.5365-2.8298l2.0916-3.8141c.3691.3691.8612.7382,1.4764,1.1073.6152.3691,1.4764.8612,2.3376,1.2303s1.8455.6152,2.8298.8612,2.0916.3691,3.1989.3691c1.7225,0,3.0759-.2461,4.0601-.8612s1.4764-1.4764,1.4764-2.7067c0-.7382-.123-1.3534-.4921-1.8455-.3691-.4921-.8612-.8612-1.5994-1.2303-.6152-.3691-1.4764-.7382-2.4607-.9843s-2.0916-.6152-3.3219-.8612c-1.4764-.3691-2.7067-.7382-3.691-1.2303-1.1073-.3691-1.9686-.8612-2.5837-1.4764-.7382-.6152-1.2303-1.2303-1.5994-2.0916-.3691-.7382-.4921-1.7225-.4921-2.8298,0-1.3534.2461-2.5837.8612-3.691.4921-1.1073,1.2303-1.9686,2.2146-2.7067.9843-.7382,1.9686-1.2303,3.3219-1.7225,1.2303-.3691,2.5837-.6152,4.0601-.6152,1.9686,0,3.691.2461,5.2905.8612s3.0759,1.3534,4.3062,2.3376l-2.2146,3.8141Z" style="fill: #002069;"/>
        <path d="M336.6697,441.1369v-5.1674h3.691v5.1674h-3.691Z" style="fill: #002069;"/>
        <path d="M358.3237,441.1369v-28.4209h4.5523v24.4838h15.2563v3.9371h-19.8085Z" style="fill: #002069;"/>
        <path d="M391.2969,412.5929h3.9371l11.1961,28.4209h-4.7983l-2.9528-7.7512h-10.95l-2.9528,7.7512h-4.7983l11.3191-28.4209ZM397.9407,430.0638l-4.5523-12.1804-4.7983,12.1804h9.3506Z" style="fill: #002069;"/>
        <path d="M409.2599,437.5689l17.3478-21.0389h-16.8557v-3.9371h22.1462v3.445l-16.8557,21.0389h16.9787v3.9371h-22.7613v-3.445Z" style="fill: #002069;"/>
        <path d="M437.6808,441.1369v-28.4209h4.5523v28.4209h-4.5523Z" style="fill: #002069;"/>
        <path d="M461.6725,441.2599c-2.0916,0-3.9371-.3691-5.5365-1.2303-1.7225-.8612-3.0759-1.8455-4.3062-3.1989s-2.0916-2.9528-2.8298-4.6753c-.6152-1.7225-.9843-3.568-.9843-5.2905,0-1.8455.3691-3.691.9843-5.4135.7382-1.7225,1.5994-3.3219,2.8298-4.5523,1.2303-1.3534,2.7068-2.3376,4.3062-3.1989,1.7225-.7382,3.4449-1.2303,5.5365-1.2303s3.9371.3691,5.5365,1.2303c1.7225.8612,3.0759,1.9686,4.3062,3.3219,1.2303,1.3534,2.0916,2.9528,2.8298,4.6753.6152,1.7225.9843,3.445.9843,5.2905s-.3691,3.691-.9843,5.4135c-.7382,1.7225-1.5994,3.3219-2.8298,4.5523-1.2303,1.3534-2.7068,2.3376-4.3062,3.1989-1.7225.7382-3.568,1.1073-5.5365,1.1073ZM452.5679,426.8649c0,1.3534.2461,2.5837.6152,3.9371.3691,1.2303.9843,2.3376,1.8455,3.3219.7382.9843,1.7225,1.7225,2.8298,2.3376s2.3376.8612,3.8141.8612,2.7068-.2461,3.8141-.8612,2.0916-1.3534,2.8298-2.3376c.7382-.9843,1.3534-2.0916,1.7225-3.3219s.6152-2.4607.6152-3.8141-.2461-2.7067-.6152-3.9371-.9843-2.3376-1.8455-3.3219c-.7382-.9843-1.7225-1.7225-2.8298-2.3376s-2.3376-.8612-3.691-.8612c-1.4764,0-2.7068.2461-3.8141.8612s-2.0916,1.3534-2.8298,2.3376c-.7382.9843-1.3534,2.0916-1.8455,3.3219-.3691,1.2303-.6152,2.4607-.6152,3.8141Z" style="fill: #002069;"/>
      </g>
      <g>
        <path d="M403.9694,287.8363c-1.5994-1.1073-2.9528,1.4764-4.6753,1.8455-1.4764.3691-3.1989.9843-2.8298,2.7067,1.2303,4.7983-2.5837,7.259-4.7983,10.3349-.9843,1.3534-2.4607,1.8455-2.9528-.6152-.2461-1.4764-.6152-1.9685-2.0916-1.2303-4.7983,2.3377-8.6124,5.5365-10.95,10.3349-.7382,1.3534-1.1073,2.8298.2461,3.9371,1.9686,1.5994.9843,2.7067-.4921,3.9371-2.5837,1.9685-5.0444,4.0601-7.3821,6.2747-2.4607,2.3377-2.2146,3.8141.9843,5.1674,4.3062,1.8455,10.95,0,13.7798-3.8141.8613-1.2303.4921-1.9685-.4921-2.8298-1.4764-1.2303-1.2303-2.5837-.6152-4.1832,1.9686-5.1674,4.9214-8.9815,10.4579-10.827,3.0759-.9843,6.8899-1.7225,7.013-6.3978,0-.6152.9843-1.5994,1.7225-1.8455,3.568-1.4764,4.4292-4.1832,3.8141-7.6281-.3692-1.5994.9842-4.0601-.7383-5.1674Z" style="fill: #002069;"/>
        <path d="M389.2053,297.3099c2.2146-.2461,3.0759-1.9685,3.4449-3.9371.3691-1.3534.8613-2.8298.3691-4.5523-1.4764.2461-3.691,2.2146-3.8141-.9843-.123-2.8298-1.3534-1.8455-2.5837-.9843-.9843.7382-1.9686,1.4764-2.7068,2.4607-1.2303,1.7225-1.4764,3.8141-.3691,5.6596,1.3534,1.7225,3.445,2.5837,5.6596,2.3377Z" style="fill: #002069;"/>
        <path d="M430.6678,266.6744c-4.6753,1.5994-9.4736,3.1989-14.272,4.6753-1.5994.4921-2.2146,1.5994-1.9686,2.9528.2461,1.7225,1.8455,1.7225,3.0759,1.9685.3691-.123.7382-.123.9843-.2461,4.3062-2.8298,8.8585-4.9214,13.7798-6.5208.6152-.2461,1.7225-.8612.9843-2.0916-.6151-.8612-1.4764-1.1073-2.5837-.7382Z" style="fill: #002069;"/>
        <path d="M407.6604,271.7188c2.0916.123,3.0759-1.5994,3.9371-3.1989.8613-1.7225.3691-2.5837-1.5994-2.3377-2.0916.3691-3.9371-.3691-5.7826-.9843-.7382-.2461-1.4764-1.1073-2.3376-.123-1.3534,1.5994-2.9528,3.0759-4.3062,4.6753-.4921.6152-1.1073,1.5994-.3691,2.4607.6152.6152,1.4764.3691,2.2146.123,2.5837-1.1073,5.2904-1.7225,8.2433-.6152Z" style="fill: #002069;"/>
        <path d="M416.5189,280.4542c-3.0759.4921-5.9056-.3691-9.4736-1.2303-.6152-.123-1.8455.123-1.4764,1.5994.4921,2.0916.2461,5.5365,2.9528,5.4135,3.0759-.123,6.1517-1.5994,8.9815-3.1989.6152-.3691,1.1073-1.1073.7382-1.9685-.3691-.4921-1.1073-.7382-1.7224-.6152Z" style="fill: #002069;"/>
        <path d="M748.5882,175.26c-.4922-1.3534-1.9685-.7382-2.9529-.8612-15.6254-1.1073-31.3737-.8612-46.9991-.8612-22.2692,0-44.5384-.3691-66.8076-.2461-31.2507.123-62.5014-.6152-93.7521,0-7.136.123-13.5338,2.3376-19.5624,6.0287-12.0573,7.3821-21.531,17.4709-29.6513,28.79-15.6254,21.531-36.6642,33.5883-62.8705,36.7872-1.3534.123-16.6096-1.4764-20.6697-2.3377-11.6882-2.7068-19.9316-10.2118-27.3136-18.9473-5.1675-6.1517-8.8585-13.4107-13.4107-20.0546-7.3821-10.95-16.7327-19.9315-29.6513-24.1147-8.7354-2.8298-17.84-3.9371-27.1906-3.568-18.086.6152-36.2951,1.3534-54.3811,1.9685-47.8602,1.4764-95.5975,3.0759-143.3348,4.6753-15.2562.4921-30.5125.8612-45.7687,1.5994-4.3062.2461-8.8585-.4921-13.0416,1.8455v3.3219c1.2303,1.5994,2.5837,3.0759,3.9371,4.4292,5.1674,5.5365,12.1804,9.2276,17.1018,15.0102,14.7641,17.3478,32.8501,29.8973,53.889,38.1406,4.3062,1.7225,7.9972,4.0601,11.0731,7.259,8.9815,8.9815,19.9315,14.272,32.235,16.8557,4.7983.9843,9.2276,2.7067,13.0416,5.7826,2.3377,1.8455,4.7983,2.0916,7.5051,1.1073,3.1989-1.2303,6.5208-2.3377,9.9658-2.9528,8.3663-1.4764,16.7326-3.0759,25.099-4.5523,5.6596-.9843,11.4422-2.0916,17.2248-2.9528,1.2303-.2461,2.8298-.123,2.9528,1.3534.123,1.4764-1.4764.7382-2.3376,1.1073-.7382.2461-1.4764.3691-2.3376.4921-16.2405,2.5837-32.358,5.5365-48.1064,10.4579-1.4764.4921-3.3219.7382-3.568,2.5837-.2461,1.9685,1.2303,2.8298,2.5837,3.9371,10.4579,7.6281,22.3922,10.4579,34.9417,11.1961,16.6096.8612,32.6041-2.9528,48.3524-8.2433,1.4764-.4921,3.691-2.3377,4.4292-.3691.6152,1.5994-2.2146,1.8455-3.691,2.3377-11.6882,4.1832-23.3765,8.2433-35.0647,12.3034-1.7225.6152-3.3219,1.2303-5.0444,1.9685-1.1073.4921-2.2146,1.3534-2.0916,2.7067.123,1.2303,1.2303,1.7225,2.3376,2.0916,2.8298.8612,5.7826,1.9685,8.6124,2.5837,5.0444,1.2303,10.4579,1.5994,15.2562,3.8141,2.9528,1.3534,5.1674.8612,7.8742-.6152,7.136-3.9371,15.2562-3.691,23.1304-4.1832-6.7669,1.4764-13.4107,3.445-19.8085,6.1517-1.3534.6152-2.9528.9843-2.9528,2.7067s1.2303,2.7067,2.7067,3.568c2.8298,1.4764,5.7826,2.0916,8.8585,2.7067,10.4579,1.8455,19.0703.123,28.5439-1.8455.2461-.123.4921-.123.7382-.2461,10.2118-2.3377,19.1933-7.3821,28.0518-12.7956,1.2303-.7382,2.4607-1.9685,4.1832-1.8455.123-.123.2461-.2461.2461-.3691.2461.3691.123.4921-.2461.3691-1.2303,4.7983-4.5523,8.3663-7.7512,11.8113-6.2748,6.6438-12.9186,17.2248-21.531,19.9315-3.9371,3.0759-31.6198,18.3321-34.0805,45.7687-.123,1.1073,29.7743.7382,31.0046,3.0759h8.7354c.3691.2461.7382.4921,1.1073.7382h8.8585c0,.123-.123.2461-.123.3691-.4921,1.4764-1.3534,3.1989-1.9686,4.7983-.7382,1.7225-1.3534,3.445-1.9686,5.4135,1.7225-.9843,3.1989-2.2146,4.5523-3.691,1.3534-1.4764,2.4607-2.9528,3.445-4.9214.2461-.4921.4921-.9843.6152-1.5994,0-.123.123-.3691.123-.4921h6.7669c0,.123-.123.2461-.123.3691-.4921,1.4764-1.3534,3.1989-1.9686,4.7983-.7382,1.7225-1.3534,3.445-1.9686,5.4135,1.7225-.9843,3.1989-2.2146,4.5523-3.691,1.3534-1.4764,2.4607-2.9528,3.445-4.9214.2461-.4921.4921-.9843.6152-1.5994,0-.123.123-.3691.123-.4921h6.7669c0,.123-.123.2461-.123.3691-.4921,1.4764-1.3534,3.1989-1.9686,4.7983-.7382,1.7225-1.3534,3.445-1.9686,5.4135,1.7225-.9843,3.1989-2.2146,4.5523-3.691,1.3534-1.4764,2.4607-2.9528,3.445-4.9214.2461-.4921.4921-.9843.6152-1.5994,0-.123.123-.3691.123-.4921h58.1953c0-.2461-.123-.4921-.123-.7382h13.2877v.123c-.123.2461-.123.6152-.3691.9843-.4921,1.4764-1.3534,3.1989-1.9686,4.7983-.7382,1.7225-1.3534,3.445-1.9686,5.4135,1.7225-.9843,3.1989-2.2146,4.5523-3.691s2.4607-2.9528,3.4449-4.9214c.2461-.4921.4921-.9843.6152-1.5994.123-.2461.123-.6152.2461-.9843v-.9843c0-1.2303-.4921-2.5837-1.1073-3.568-.6152-.8612-1.3534-1.4764-2.0916-2.0916.6152-5.4135,2.5837-10.4579,3.691-15.7484.2461-1.4764.9843-2.8298,0-4.3062-1.5994.6152-1.8455,1.9686-2.3376,2.9528-2.9528,6.3978-5.9056,12.7955-8.6124,19.1933-1.2303,2.8298-3.3219,4.1832-6.2748,4.0601-4.0601-.123-7.6281-2.0916-11.3192-3.568-1.8455-.7382-2.2146-2.7067-1.5994-4.6753.7382-2.3376,1.9686-4.5523,3.1989-6.6438,2.7068-4.7983,3.8141-4.7983,6.8899-.4921,2.3376,3.1989,4.6753,3.3219,6.7669-.123,1.3534-2.3376,2.3376-4.7983,3.3219-7.259,2.4607-6.8899,6.2748-12.7955,11.0731-18.2091,2.3376-2.8298,5.4135-4.6753,8.9815-5.7826,2.5837-.8612,4.5523.3691,6.2748,2.0916s.9843,3.445.123,5.1674c-2.2146,4.5523-4.1832,9.2276-6.7669,13.5338-3.9371,6.5208-4.3062,14.1489-7.136,21.0389-.4921,1.3534-.7382,2.9528-.3691,4.5523.6152-.123,2.2146-.3691,4.4292-.6152v.7382c0,.123,0,.2461-.123.3691-.123.2461-.123.6152-.3691.9843-.4921,1.4764-1.3534,3.1989-1.9686,4.7983-.7382,1.7225-1.3534,3.445-1.9686,5.4135,1.7225-.9843,3.1989-2.2146,4.5523-3.691s2.4607-2.9528,3.4449-4.9214c.2461-.4921.4921-.9843.6152-1.5994.123-.2461.123-.6152.2461-.9843v-.9843c0-.2461,0-.4921-.123-.7382,2.0916-.2461,4.4292-.3691,6.8899-.6152.123.4921.123.9843.123,1.4764v.3691c0,.123,0,.2461-.123.3691-.123.2461-.123.6152-.3691.9843-.4921,1.4764-1.3534,3.1989-1.9686,4.7983-.7382,1.7225-1.3534,3.445-1.9686,5.4135,1.7225-.9843,3.1989-2.2146,4.5523-3.691s2.4607-2.9528,3.4449-4.9214c.2461-.4921.4921-.9843.6152-1.5994.123-.2461.123-.6152.2461-.9843v-.9843c0-.6152-.123-1.2303-.2461-1.7225,9.7197-.8612,18.8242-1.7225,17.4709-2.3376-12.9186-5.7826-.4921-17.2248-4.7983-25.7141-4.3062-8.3663-12.9186-16.2405-13.9029-18.4551-.9843-2.0916-.2461-2.9528,2.0916-2.3376,4.3062,1.2303,8.6124.7382,12.9186-.4921,4.6753-1.3534,8.8585-3.568,13.1647-5.6596,1.8455-.8612,2.5837-2.4607,1.4764-4.1832-1.1073-1.8455-2.0916.123-2.9528.6152-4.5523,2.8298-9.4736,4.5523-14.8871,4.5523-1.4764,0-2.8298-.123-3.9371-1.5994,1.5994-.8612,3.0759-.4921,4.4292-.4921,2.7068-.123,5.2905-.6152,7.013-2.7067,3.0759-3.8141,7.013-3.9371,11.1961-3.0759,1.7225.3691,3.568.6152,5.2905.7382,7.259.3691,13.9029-1.8455,20.0546-5.5365,1.4764-.8612,2.3376-2.5837,1.5994-3.9371-.7382-1.4764-2.3376-.4921-3.568,0-9.2276,3.8141-18.9473,3.691-28.79,3.1989-.4921,0-1.1073-.2461-1.5994-.4921-2.0916-1.1073-4.4292-2.2146-3.8141-5.1674.6152-2.4607,3.3219-3.568,6.2748-2.7067,6.7669,1.9685,13.6568,3.445,20.6697,4.0601,1.4764.123,3.4449.8612,4.0601-1.1073.7382-1.9685-1.1073-2.7067-2.4607-3.445-4.6753-2.8298-9.5967-5.4135-14.6411-7.259-1.5994-.6152-4.1832-1.1073-3.1989-3.3219.7382-1.7225,2.7068,0,4.1832.3691.3691.123.6152.2461.9843.3691,6.5208,3.3219,13.5338,4.4292,20.7928,4.6753,10.0888.2461,19.6855-2.8298,29.5282-4.3062,2.4607-.3691,2.7068-1.9685,1.7225-3.9371-.3691-.7382-1.3534-1.2303-1.1073-2.4607,2.5837-.2461,4.9214.3691,7.013,1.7225,2.3376,1.4764,3.0759.7382,3.691-1.5994,1.7225-7.7512,7.136-11.6882,14.395-13.0416,7.5051-1.3534,14.8871-3.0759,22.1462-5.2905,12.7955-4.0601,25.222-9.1045,34.4496-19.1933,3.9371-4.1832,8.2433-6.8899,13.2877-9.1045,13.0416-5.5365,26.5754-10.3349,37.4024-19.9315,6.1517-5.2905,13.1647-8.6124,20.6697-11.5652,9.5967-3.691,18.086-9.2276,24.2378-17.4709,4.5523-6.1517,10.3349-9.9658,16.8557-13.2877,5.1675-2.5837,10.3349-5.2905,14.2719-9.8427,1.1073.1231,2.2145-.9843,1.5994-2.4607ZM69.0703,197.2831c-.7382-.4921-2.0916-.9843-1.4764-2.2146.3691-.9843,1.5994-.4921,2.4607-.4921,12.7956.2461,25.4681,1.2303,38.1406,1.9685,9.3506.6152,18.7012,1.1073,28.1748,1.4764,15.0102.6152,29.8973,1.3534,44.9075,2.7068,3.8141.3691,7.259,3.691,7.5051,7.3821.2461,2.9528-1.7225,3.8141-4.1832,3.9371-11.5652.7382-23.1304,2.0916-32.358,2.2146-15.1332.8612-27.6827-.9843-40.2322-2.5837-9.1045-1.1073-18.2091-2.3376-26.6984-5.6596-5.6596-2.3377-11.1961-5.0444-16.2405-8.7354ZM96.753,220.6596c-.6152-.4921-1.2303-.9843-1.7225-1.5994-.2461-.2461-.2461-.6152-.6152-1.1073,5.5365,1.2303,10.827,2.3377,16.1175,3.568,10.5809,2.4607,21.408,2.9528,32.235,3.8141,18.8242,1.5994,37.5254-.3691,56.2266-1.7225,1.4764-.123,2.7067,0,3.691,1.1073,3.1989,3.445,6.3978,6.7669,9.8427,10.4579-6.5208,2.4607-13.1647,3.1989-19.6855,4.1832-10.95,1.5994-22.0231,2.4607-33.0962,2.0916-23.1304-.6152-43.9232-7.9972-62.9935-20.7928ZM214.1276,224.4737c.9843,2.2146,3.445.9843,5.1674.9843,14.395-.6152,28.79-1.4764,43.062-3.691,6.0287-.9843,12.1804-1.1073,18.3321-1.4764,1.8455-.123,3.445-.4921,4.0601-2.2146,1.1073-3.1989,3.8141-4.5523,6.5208-5.9056,6.1517-2.8298,12.6725-4.1832,19.3164-5.2905.7382-.123,1.7225-.4921,2.0916.4921.3691.8612-.4921,1.3534-.9843,1.9685-1.9686,1.9685-4.4292,2.4607-7.0129,2.5837-4.0601.2461-7.8742,1.4764-11.4422,3.3219-3.1989,1.5994-3.568,3.1989-1.5994,6.1517.7382,1.1073,1.5994,2.2146.8612,3.3219-.8612,1.4764-2.3376.8612-3.568.3691-1.9686-.7382-3.445.4921-5.0444,1.1073-7.136,2.9528-14.1489,6.2747-21.7771,7.5051-14.0259,2.4607-27.9288,2.5837-41.7086-2.0916-6.0287-2.0916-11.1961-5.5365-15.3793-10.3349-.6152-.7382-1.7225-1.5994-1.3534-2.4607.6152-1.2303,1.7225-.2461,2.7067-.123,3.568.4921,7.136,1.1073,11.0731,1.5994-1.3533,1.7225-4.3062,2.0916-3.3219,4.1832ZM232.3367,259.6614c-.4921,1.4764-2.9528.9843-4.5523,1.1073-12.0574,1.4764-24.1147,3.0759-36.2951,2.8298-13.2877-.3691-26.2063-2.4607-38.2636-8.3663-.9843-.4921-2.0916-.6152-2.9528-2.2146,7.259.8612,14.0259,1.8455,20.9158,2.3377,14.8871.9843,29.6512.123,44.2923-2.5837,1.8455-.3691,3.8141-.6152,5.5365-1.1073,3.9371-1.1073,5.9056,1.8455,8.1203,3.9371,1.3534,1.2303,3.814,2.2146,3.1989,4.0601ZM203.3006,285.2525c20.6697.6152,40.7243-3.8141,61.025-3.3219,1.4764,0,3.0759.4921,4.5523.8612-5.2905,8.1203-58.5643,11.9343-65.5772,2.4607ZM253.1295,265.198c-.6152-.4921-1.7225-.6152-1.4764-1.5994.123-.7382,1.1073-.8612,1.8455-1.2303,1.4764-.8612,2.8298-.2461,4.1832.3691,20.5467,8.9815,40.3552,4.9214,59.9177-3.445,3.691-1.5994,3.691-3.568.3691-6.0287-3.691-2.5837-6.5208-5.7826-8.1203-9.9658-.8612-2.3377-1.8455-2.4607-3.9371-1.4764-10.4579,5.1674-21.2849,8.9815-32.8501,10.95-16.4866,2.5837-32.481,2.5837-47.3682-6.2747-1.8455-1.1073-4.6753-2.5837-3.8141-4.4292,1.1073-2.2146,3.691-.3691,5.6596.2461,6.2748,2.0916,12.6725,3.1989,19.3164,3.568,15.0102.8612,29.5282-1.8455,43.9232-5.6596,2.4607-.6152,4.9214-1.2303,7.5051-1.7225,1.2303-.2461,2.4607-.8612,3.0759-1.8455,3.1989-5.1674,8.3663-3.8141,12.9186-4.0601,1.8455-.123,1.8455,1.2303,1.3534,2.5837-2.3376,7.259-.9843,11.1961,5.2905,15.6253,4.0601,2.8298,8.7354,3.9371,13.2877,5.2905,1.1073.3691,2.8298.4921,2.9528,1.7225.2461,1.4764-1.5994,1.5994-2.5837,2.2146-11.8113,6.7669-24.2377,11.9343-37.6485,14.395-3.9371.7382-7.9972,1.3534-12.0574,1.1073-11.3191-.7382-22.3922-2.5837-31.7428-10.3349ZM367.9204,272.9491c-8.1203,4.1832-15.5023,9.2276-21.1619,16.4866-.7382.8612-1.7225,1.8455-3.0759.7382-1.4764-1.1073-.9843-2.3377,0-3.445,5.9056-7.7512,12.9186-14.1489,22.3922-17.3478,2.3376-.8612,4.0601-.2461,3.9371,1.4764-.3691,1.1073-1.2303,1.7225-2.0916,2.0916ZM375.5485,278.4857c1.5994,3.3219,1.3534,5.9056-1.3534,8.1203-6.0287,4.7983-11.3191,9.9658-14.7641,16.9787-.2461.4921-.6152.9843-1.1073,1.2303-1.1073.7382-2.3376,1.9685-3.568.9843-1.2303-.9843.123-2.2146.7382-3.1989,2.8298-4.9214,5.9056-9.7197,9.4736-14.1489,3.0758-3.691,6.8899-6.3978,10.5809-9.9658ZM354.5097,269.7502c-13.2877,7.9972-26.6984,15.3793-42.8159,15.5023-3.568,0-7.136.3691-10.704-.123-.6152-.123-1.3534,0-1.8455-1.1073,2.9528-1.4764,6.1517-1.4764,9.2276-2.0916,11.3191-2.0916,21.1619-7.5051,31.3737-12.3034,1.5994-.7382,2.3376-2.2146,2.7067-4.0601.6152-3.445,3.0759-4.3062,6.2748-3.9371,3.0759.2461,7.0129,2.5837,7.5051,4.7983.3691,1.7225-.6152,2.7067-1.7225,3.3219ZM349.9574,256.4626c-.9843,1.1073-2.0916,1.4764-3.568.4921-1.4764-1.1073-.9843-2.3377-.3691-3.568,1.4764-3.0759,4.0601-4.1832,9.2276-3.568-1.9686,2.5837-3.568,4.6753-5.2905,6.6438ZM347.4967,234.5625c-.3691,1.9685-2.4607.6152-3.691.7382-1.8455.123-3.8141,0-5.6596,0-5.4135-.2461-10.704.3691-15.7484,2.3377-1.2303.4921-2.7067,1.2303-3.3219-.6152-.6152-1.7225-.3691-3.445,1.4764-4.3062,1.4764-.6152,3.1989-1.1073,4.7983-1.2303,5.4135-.4921,10.95-.8612,16.3636-.6152.8612,0,1.8455,0,2.5837.3691,1.4764.6152,3.445,1.4764,3.1989,3.3219ZM264.2026,308.0139c-.3691,0-.8612-.123-1.5994-.2461,1.1073-1.7225,2.4607-1.9685,3.691-2.3377,10.827-3.445,21.654-6.7669,32.481-10.2118,4.9214-1.5994,9.9658-.4921,15.0102-.3691.6152,0,1.3534.4921,1.5994.9843.4921.8612-.4921,1.3534-.9843,1.8455-1.3534,1.2303-2.8298,2.0916-4.5523,2.7067-14.7641,5.1674-30.0203,7.259-45.6457,7.6281ZM334.5781,306.9066c-12.1804,7.136-25.099,12.6725-39.0018,15.3793-3.568.7382-7.259.6152-11.0731-.123,4.0601-2.4607,8.3663-4.0601,12.7955-5.4135,13.6568-4.4292,26.2063-10.827,37.1563-20.1776,3.691-3.1989,7.0129-2.7067,10.0888,1.2303.9843,1.3534-.123,1.7225-.7382,2.3377-2.7067,2.8298-5.9056,4.9214-9.2275,6.7669ZM357.5855,368.7928c-2.3376,3.1989-7.9972,7.7512-12.4265,9.9658-.4921-1.8455.7382-2.7067,1.5994-3.691,1.8455-2.4607,3.8141-4.9214,5.6596-7.3821.8612-1.1073,1.7225-1.9686,3.1989-2.2146.9843-.123,2.0916-.2461,2.7067.6152.6152,1.1073-.2461,1.9685-.7382,2.7067ZM388.098,348.6152c-.7382.7382-1.7225.9843-2.8298.6152-2.7068-.9843-4.7983-.123-6.6438,1.8455-1.1073,1.2303-2.0916.9843-2.8298-.4921-.3691-.8612-.8613-1.8455-1.1073-2.8298-.3691-1.1073-.8613-2.4607,0-3.568.9843-1.2303,2.2146-.6152,3.4449-.123,4.1832,1.4764,8.1203.7382,11.8113-1.3534,1.1073-.6152,2.2146-1.5994,3.9371-1.1073-1.5995,2.8298-3.568,5.0444-5.7827,7.0129ZM400.0323,354.7669c2.0916-1.7225,4.0601-2.9528,6.2748-3.8141-.123,3.445-1.4764,4.3062-6.2748,3.8141ZM409.9981,342.4635c-2.0916.7382-4.3062,1.1073-6.3978,1.7225-1.3534.123-2.0916-.3691-1.7225-1.7225.7382-3.445,5.9056-5.2905,8.4894-3.0759,1.5995,1.2303,1.7225,2.3377-.3691,3.0759ZM415.7807,305.4302c-1.3534-.3691-1.9686-1.3534-1.1073-2.7067,1.1073-1.5994,2.8298-2.8298,4.5523-3.8141.3691-.2461.9843.123.9843.6152-.123,1.8455-1.5994,2.9528-2.4607,4.4292-.4921.7382-.9843,1.3534-1.9686,1.4764ZM417.2571,310.7206c-.2461.8612-.6152,1.5994-1.1073,2.3377-.4921.8612-1.3534,1.1073-2.2146.7382-.4921-.2461-1.4764-.2461-1.3534-1.1073,0-.8612.8613-1.2303,1.4764-1.5994.7382-.4921,1.4764-.9843,2.0916-1.4764.7382-.123,1.2303.3691,1.1073,1.1073ZM441.8639,293.4958c-5.1675,1.3534-8.6124,4.9214-11.4422,9.1045-1.3534,2.0916-1.1073,3.9371.8613,5.6596,2.9528,2.4607,6.1517,4.0601,10.0888,2.5837.9843-.3691,2.0916-.4921,3.3219,0-.4921,1.9685-1.8455,3.568-2.9528,5.1674-.8613,1.4764-1.1073,2.8298.3691,4.1832,2.5837,2.2146.2461,2.7067-1.2303,2.9528-3.8141.3691-6.7669,2.0916-9.4736,4.5523-1.5994,1.4764-1.7225,2.9528,0,4.4292.7382.6152,2.7068,1.1073.9843,2.7067-1.2303,1.1073-2.7068,1.4764-4.1832.2461-2.9528-2.4607-3.0759-6.6438-.123-9.2276,1.7225-1.5994,3.568-3.0759,5.4135-4.5523,1.2303-.9843,2.0916-2.3377,2.5837-3.8141.9843-3.0759.123-4.0601-2.9528-3.1989-2.7068.7382-4.7983.9843-4.3062-2.8298.123-1.4764-.8613-2.4607-1.9686-3.3219-2.8298-2.2146-3.1989-4.9214-1.2303-7.8742.9843-1.3534,1.7225-2.8298,2.8298-4.1832s1.9686-2.5837,1.2303-4.4292c-.3691-.9843-.3691-1.9685.6152-2.7067s1.8455-.3691,2.7068.3691c1.1073.9843,2.5837,1.2303,4.0601,1.1073,1.3534,0,2.7068-.123,4.0601,0,1.8455.123,4.7983.123,5.0444,1.5994,0,1.9685-2.8298,1.1073-4.3062,1.4764ZM547.5503,293.7419c-1.5994.123-2.2146-1.2303-3.0759-2.0916-4.7983-4.7983-10.4579-6.8899-17.2248-6.5208-8.4894.4921-16.9787.6152-25.4681.8612-3.3219.123-6.5208-.3691-9.2276-2.4607-1.1073-.8612-2.4607-1.2303-3.691-.4921-.8613.4921-.9843,1.4764-.8613,2.3377.2461,1.4764.9843,2.3377,2.4607,2.8298,5.5365,1.4764,11.0731,1.3534,16.6096.9843,9.1045-.6152,18.086-.2461,27.0675.8612,2.3376.2461,4.0601,1.4764,6.0287,3.0759-4.6753,1.3534-9.3506,1.1073-13.7798,1.4764-10.95,1.1073-21.7771,1.9685-32.7271,2.4607-8.2433.3691-17.1017-1.7225-19.4394-11.5652-.3691-1.4764-1.3534-2.3377-2.9528-1.5994-8.3663,3.568-15.6254.9843-22.5152-3.691-4.6753-3.1989-9.7197-3.691-15.0102-1.4764-2.4607.9843-5.0444,1.7225-7.6281,2.4607-1.9686.6152-3.3219,1.4764-3.4449,3.8141,0,1.3534-.2461,2.7067-2.4607,1.5994-2.4607-1.3534-3.9371-.2461-4.1832,2.5837-.2461,2.5837-.7382,4.3062-3.8141,2.3377-1.1073-.7382-2.3376-.123-3.3219.9843-.9843,1.1073-1.1073,2.3377-.2461,3.691,1.9686,3.445,1.5994,4.4292-1.9686,5.9056-2.2146.9843-6.1517,1.2303-2.2146,5.0444.9843.8612-.2461,1.8455-.7382,2.5837-2.0916,2.9528-4.1832,5.7826-6.1517,8.7354-1.5994,2.4607-1.1073,3.691,1.8455,4.5523,4.4292,1.3534,8.1203-.3691,11.4422-3.0759,1.9686-1.5994,3.9371-2.8298,6.6438-1.8455,1.8455.6152,2.0916,1.3534,1.3534,2.9528-.8613,1.7225-1.7225,3.3219-2.5837,5.0444-.9843,1.9685-1.8455,3.9371,1.1073,5.2905.7382.2461.9843.8612.4921,1.5994-.9843,1.3534-2.0916,2.7067-3.9371,2.7067-.8613,0-1.4764-.4921-1.5994-1.4764-.123-.6152,0-1.3534.123-1.9686.6152-5.0444-.4921-5.7826-5.5365-4.7983-3.3219.6152-5.9056,2.5837-8.7354,4.1832-1.2303.7382-2.5837,1.3534-3.8141.4921-1.2303-.7382-.123-2.0916-.123-3.0759,0-4.5523,1.7225-8.7354,2.4607-13.0416.2461-1.3534.7382-2.8298-.9843-3.8141-1.7225-.9843-2.5837.2461-3.4449,1.1073-1.8455,1.7225-3.8141,3.568-5.5365,5.4135-2.0916,2.3377-1.8455,3.568.7382,5.2905q4.6753,3.0759-.3691,5.6596c-3.691,1.9686-7.136,4.0601-11.0731,5.4135-4.1832,1.4764-7.8742.8612-11.1961-2.2146-1.1073-1.1073-2.3376-2.0916-4.1832-1.4764-2.2146.7382-1.3534,2.4607-1.4764,3.9371,0,.4921,0,1.2303-.2461,1.5994-1.5994,2.0916-2.4607,3.8141.9843,4.9214,1.1073.3691.7382,1.5994.6152,2.3376-.2461,1.9686.8612,3.3219,1.4764,4.9214.2461.7382-2.0916,2.5837-2.0916,4.5523,0,.6152-.123,1.3534,0,1.9686.4921,2.4607-.6152,3.691-2.9528,3.9371-5.2905.3691-8.7354,3.445-11.6882,7.5051-2.4607,3.3219-5.1674,6.3978-7.9972,9.4736-1.3534,1.5994-2.9528,2.9528-5.6596,3.568,2.8298-7.136,9.2276-12.1804,9.7197-20.0546-6.8899,10.2118-15.2562,18.8242-25.222,25.8372-.6152-.6152-.6152-.9843-.3691-1.4764,4.1832-5.9056,6.6438-12.5495,9.3506-19.1933.6152-1.4764.2461-2.8298.3691-4.3062,0-2.0916-.2461-4.1832,1.8455-5.7826.6152-.4921,1.2303-1.4764.4921-2.3376-.9843-.9843-1.5994.2461-2.2146.7382-4.9214,4.1832-9.5967,8.7354-15.5023,11.6882-.9843.4921-1.9686,2.2146-3.445.4921-1.2303-1.4764-1.3534-2.8298-.3691-4.4292,1.9686-3.3219,4.5523-6.0287,7.6281-8.3663,1.3534-.9843,2.8298-1.9686,2.0916-4.0601-.4921-1.3534.8612-1.3534,1.4764-1.7225,4.0601-2.4607,8.3663-4.4292,13.1647-4.5523,2.2146-.123,2.7067-1.7225,3.1989-3.1989,2.4607-7.0129,7.136-12.3034,13.2877-16.3636,1.1073-.7382,2.2146-1.5994,3.8141-.8612-.123,1.5994-1.5994,2.2146-2.5837,3.1989-2.4607,2.4607-4.4292,5.2905-6.1517,8.2433-.6152.9843-1.4764,2.3376-.6152,3.3219.7382.8612,2.0916.123,3.0759-.123,5.4135-1.2303,9.8427-4.1832,14.0259-7.6281.9843-.8612,1.9686-1.5994,3.445-1.9685,4.3062-1.1073,7.6281-5.2905,7.9972-9.7197.123-1.4764.3691-3.3219-1.3534-4.1832-1.5994-.7382-3.3219-.2461-4.6753.8612-1.8455,1.5994-3.568,3.445-5.2905,5.1674-.7382.7382-1.3534,1.5994-2.3376,1.7225-1.7225-5.1674,3.8141-12.5495,9.4736-12.4265,3.568.123,6.0287-1.3534,7.7511-4.1832,1.2303-1.9685,2.9528-3.3219,4.6753-4.7983.7382-.6152,1.2303-1.3534,1.1073-2.3377-.2461-1.2303-1.3534-.9843-2.2146-.9843-2.3376.123-2.0916-.9843-1.2303-2.3377.4921-.7382.8613-1.5994,1.4764-2.2146,2.0916-1.7225,4.1832-3.3219,2.5837-6.5208-.4921-.9843.6152-1.8455,1.3534-2.4607,3.0759-2.7067,8.3663-2.4607,11.1961.3691,2.7068,2.7067,7.013,3.3219,9.7197,1.2303.9843-.7382,1.7225-1.7225,1.2303-2.8298s-1.4764-.3691-2.3376-.2461c-2.4607.2461-4.5523-.2461-5.2905-2.9528-.4921-1.7225-1.5994-2.0916-3.3219-2.2146-2.0916-.123-4.1832-.3691-6.2748-.8612-3.3219-.7382-3.9371-2.0916-2.0916-4.9214,2.3376-3.8141,5.6596-6.5208,9.2276-9.2276,1.3534-.9843,3.691-1.5994,3.1989-3.8141-.3691-1.8455-2.5837-1.8455-4.1832-2.2146-13.0416-2.8298-21.531-11.5652-29.1591-21.654-7.9972-10.4579-15.6253-21.2849-24.3608-31.1277-8.9815-10.0888-20.1776-15.9944-34.0805-14.6411-9.9658.9843-19.1933,5.0444-28.1748,9.2276-1.1073.4921-2.2146,1.3534-1.9686,2.8298.3691,1.4764,1.1073,2.3376,2.9528,2.7068,6.0287,1.3534,12.0574.3691,17.963-.3691,2.3376-.2461,6.2748-1.1073,6.3978.2461.123,2.3376-3.445,2.0916-5.5365,2.7068-6.7669,1.9685-13.6568,2.4607-20.4237-.123-5.9056-2.2146-7.0129-5.6596-3.445-10.95,1.1073-1.5994,2.4607-2.8298,3.691-4.3062.7382-.8612,1.3534-1.8455.9843-3.0759-.4921-1.3534-1.7225-1.1073-2.8298-1.1073-9.5967-.3691-19.1933.3691-28.913.8612-14.395.8612-28.79,1.2303-43.308,1.7225-1.7225,0-3.445-.3691-4.0601,1.8455-.7382,2.3377.6152,3.691,2.3377,4.6753,5.0444,3.0759,10.827,3.9371,16.6096,4.9214,13.7798,2.4607,27.5597,2.2146,41.4625.7382,3.8141-.3691,7.136.123,9.2276,3.9371,1.7225,3.445,1.3534,5.0444-2.2146,6.6438-3.691,1.5994-7.7512,1.9685-11.6882,2.5837-11.5652,1.7225-23.2535.6152-34.6956-.9843-2.7067-.3691-5.5365-.6152-8.3663-.9843-8.8585-1.3534-15.5023-6.3978-21.2849-12.9186-1.2303-1.3534-.8612-2.4607,0-3.568,1.3534-1.5994,2.7067-3.1989,4.0601-4.9214.4921-.6152,1.3534-1.4764.8612-2.3376-.4921-.7382-1.4764-.3691-2.2146-.3691-7.8742.2461-15.6253.4921-23.4995.8612-20.0546.9843-40.1091.4921-60.1637.6152-15.1332.123-30.2664,0-45.3996,0,12.5496-.8612,25.3451-.9842,38.1407-1.4764,25.099-.9843,50.0749-1.7225,75.1739-2.5837,18.5782-.6152,37.1563-1.2303,55.7345-1.4764,23.6226-.3691,47.3682-1.9685,71.1138-1.4764,10.3349.2461,20.5467.2461,30.3894,4.1832,10.4579,4.3062,18.3321,11.6882,24.7299,20.9158,6.1517,8.7354,11.3191,18.3321,18.5782,26.3293,11.0731,12.3034,24.9759,17.5939,41.4625,15.1332,2.8298-.3691,6.6438,3.9371,6.0287,6.7669-.123.7382-.9843.9843-1.4764.9843-3.9371.2461-7.3821,3.3219-11.6882,1.7225-1.3534-.4921-1.5994.8612-1.1073,1.9685,1.1073,2.8298,5.0444,3.9371,7.6281,2.2146,4.5523-3.0759,8.9815-3.8141,14.0259-.6152,4.0601,2.5837,8.7354,3.8141,13.6568,4.3062,1.1073.123,2.5837.2461,2.8298-1.1073.3691-1.4764-1.1073-1.5994-2.2146-1.8455-2.3376-.4921-4.6753-1.3534-7.136-1.7225-5.1675-.8612-7.8742-4.3062-9.8427-8.6124-.9843-2.0916-.3691-3.1989,1.8455-3.445.6152,0,1.1073,0,1.7225-.123,14.6411-.2461,29.2821-.4921,44.0462-.7382,7.259-.123,14.395-1.9685,21.7771-1.3534,7.9972.6152,15.6254,6.5208,17.84,14.1489.7382,2.5837-.4921,3.445-2.8298,3.445-7.259,0-14.518-.2461-21.654-1.5994-5.4135-1.1073-10.704-.4921-15.9944.6152-1.2303.2461-2.5837.6152-2.3376,2.2146.2461,1.7225,1.5994,1.4764,2.8298,1.4764,6.5208.3691,13.0416-1.1073,19.4394.6152,3.568.9843,7.7511,1.1073,10.2118,4.9214.8613,1.3534,3.0759,2.0916,4.5523.123,5.4135-7.3821,12.7955-9.9658,21.4079-8.2433,11.6882,2.5837,19.1933,15.5023,15.3793,29.2821ZM514.7002,230.3793c3.691-1.9685,6.7669-1.7225,9.5967.3691,2.5837,1.8455,2.7068,4.9214.4921,6.7669-1.5994,1.3534-3.1989,1.3534-4.0601-.6152-1.1073-2.7067-2.9528-4.7983-6.0287-6.5208ZM532.4171,245.6355c-.6152-.123-1.3534-.2461-1.9686-.4921-1.2303-.4921-3.4449-.4921-3.1989-2.2146.2461-2.0916,2.3376-2.5837,4.1832-2.3377,4.5523.3691,9.1045.2461,13.6568-.123,5.7826-.6152,11.5652-.9843,17.3478-1.4764,1.1073-.123,1.9686-.3691,2.7068-1.1073,4.6753-4.4292,10.95-3.3219,16.3635-4.9214-.9843,1.9685-2.7068,3.0759-4.4292,4.0601-13.9029,7.259-28.79,10.4579-44.6614,8.6124ZM562.6835,195.3145c-.4921-.3691-1.1073-.4921-.6152-1.1073,1.5994-1.8455,3.691-2.3376,6.0287-2.3376,1.9686,0,3.0759.9843,3.8141,2.7068.123.2461.123.6152.123,1.2303-1.5994,4.1832-4.4292,7.7512-8.4894,10.2118-1.7225.9843-3.3219,2.2146-5.5365,1.5994-1.8455-.4921-2.4607-1.2303-.7382-2.5837,1.7225-1.4764,3.568-2.7068,5.2905-4.0601,2.5837-2.0916,2.7067-3.691.123-5.6596ZM583.5994,219.1832c4.0601-.4921,8.1203-1.1073,12.3034-1.7225,1.2303-.123,2.5837-.4921,2.9528-1.7225s-.8613-1.7225-1.5994-2.2146c-1.4764-.9843-1.3534-1.7225.3691-2.0916,4.7983-.9843,9.5967-1.8455,14.395-2.7068.6152-.123,1.3534-.4921,1.5994.4921.2461.8612-.4921,1.1073-.9843,1.5994-4.4292,3.568-9.2276,6.6438-14.518,8.9815-14.8871,6.6438-30.5125,9.5967-46.876,8.4894-.7382,0-1.5994,0-2.3376-.3691-1.2303-.7382-3.691-.6152-3.568-2.3377.2461-1.8455,2.3376-2.9528,4.3062-3.1989,1.8455-.2461,3.8141,0,5.6596,0,9.5966-.3691,18.9472-2.0916,28.2978-3.1989ZM546.5661,215.1231c-.8613,5.9056-5.0444,10.95-10.2118,11.5652,1.4764-3.3219,3.9371-5.7826,4.1832-9.3506.4921-5.6596-1.4764-7.3821-7.013-6.0287-.3691.123-.8613.123-1.3534.123,2.2146-5.1674,9.4736-6.8899,13.2877-2.9528,1.8456,1.7225,1.4764,4.3062,1.1073,6.6439ZM585.4449,271.1036c-5.1675.8612-10.3349,1.4764-15.5023,1.9685-2.8298.2461-5.7826.123-8.6124-.4921-1.4764-.3691-3.1989-.3691-3.0759-2.2146.123-1.3534,1.4764-2.4607,3.0759-2.5837,4.3062-.3691,8.6124-.8612,12.9186-1.3534,7.6281-.7382,15.3793-.9843,22.8844-2.7067,1.2303-.2461,2.3376-.6152,3.4449-1.2303,5.2905-3.1989,6.7669-3.568,13.2877-3.1989-8.7354,5.7826-18.086,9.9658-28.4209,11.8113ZM663.3255,231.6096c-12.5495,7.7512-26.5754,11.9343-40.8474,15.2562-12.1804,2.9528-24.6068,4.0601-37.0333,5.4135-4.0601.4921-8.2433.8612-12.3034,1.2303-.8613.123-1.9686.4921-2.3376-.6152-.2461-.8612.6152-1.3534,1.2303-1.8455,2.9528-2.3377,5.7826-4.5523,8.7354-6.7669,1.3534-1.1073,3.0759-1.3534,4.6753-1.3534,7.8742-.123,15.6254-.2461,23.4995-.4921,9.8427-.3691,19.5624-1.5994,29.1591-4.1832,1.1073-.2461,2.4607-.4921,2.9528-1.3534,3.9371-5.4135,9.9658-5.4135,15.6254-6.5208,3.1989-.6152,6.3978-.8612,9.7197-1.2303-.6152,1.4764-1.9686,1.8455-3.0759,2.4607ZM696.1757,212.2933c-16.7327,7.8742-34.2035,12.7956-52.6586,13.9029-10.827.6152-21.654,1.2303-32.481,1.8455-1.4764.123-3.3219.4921-4.0601-1.4764-.6152-1.7225.4921-2.9528,1.5994-4.1832,2.4607-2.7068,5.6596-3.568,9.1045-3.445,11.4422,0,22.8844-.3691,34.2035-1.4764,17.84-1.8455,35.6799-4.0601,52.1665-12.0574.4922-.2461.9843-.4921,1.5994-.6152.123,0,.3691.123.9843.2461-3.0759,3.3219-6.6439,5.4135-10.4579,7.259ZM740.3449,181.2886c-11.0731,6.5208-22.6383,12.0574-35.4338,14.6411-15.8714,3.3219-31.9889,4.5523-48.2294,4.9214-6.1517.123-12.3034.4921-18.4551,0-.9843-.123-2.3376,0-2.5837-.9843s.8613-1.7225,1.7225-2.3376c3.1989-2.3376,6.0287-4.9214,10.704-4.5523,4.4292.3691,8.6124-2.2146,12.9186-3.0759,8.9815-1.5994,18.209-1.8455,27.3136-2.7068,12.6725-1.2303,25.345-2.7068,37.8945-4.7983.4922-.123.9843-.4921,2.2146-.9843-10.827,0-20.7928-.123-30.8816,0-14.641.2461-29.036,2.8298-43.4311,1.5994-5.6596-.4921-8.4894,1.7225-11.9343,5.1674-7.3821,7.6281-17.2248,10.5809-27.0675,13.1647-10.5809,2.7068-21.2849,3.568-32.1119,4.1832-2.2146.123-4.4292.4921-6.6438.4921-1.5994,0-3.3219-.3691-3.568-2.3376-.2461-1.7225.7382-2.8298,2.2146-3.8141,3.9371-2.2146,8.2433-2.5837,12.5495-3.0759,17.1017-2.0916,33.8344-5.6596,50.321-10.5809.6152-.2461,1.3534-.123,1.8455-1.1073-.7382-.9843-1.9686-.6152-2.9528-.6152-12.7955.123-25.4681.3691-38.2636.4921-2.0916,0-3.9371.3691-5.5365,1.8455-2.0916,1.8455-3.691,1.2303-4.5523-1.2303-.6152-1.8455-1.8455-2.4607-3.8141-2.4607-12.6725,0-25.222,1.9685-37.7715,2.3376-14.8871.4921-23.9917,9.3506-32.7271,19.5624-6.7669,8.1203-13.6568,15.9944-20.9158,23.4995-9.7197,10.0888-21.4079,15.8714-35.3108,17.1018-2.7068.2461-5.2905,1.2303-8.2433.4921.3691-1.3534,1.5994-1.4764,2.3376-1.8455,17.3478-6.2747,30.3895-17.84,41.7086-32.1119,7.136-8.9815,14.6411-17.84,23.7456-24.9759,7.5051-5.7826,15.6254-8.8585,25.3451-8.8585,31.6198.123,63.3626-.2461,94.9824-.7382,21.7771-.3691,43.4311-.2461,65.2081-.6152,12.1804-.123,24.3608-.8612,36.5412,0,1.3533.123,3.4449-.6152,3.9371.9843.2462,1.8455-1.8454,2.5837-3.0758,3.3219Z" style="fill: #002069;"/>
      </g>
    </g>
  </g>
</svg>