<?xml version="1.0" encoding="UTF-8"?>
<svg id="_图层_1" data-name="图层_1" xmlns="http://www.w3.org/2000/svg" xmlns:xlink="http://www.w3.org/1999/xlink" version="1.1" viewBox="0 0 800 800">
  <!-- Generator: Adobe Illustrator 29.1.0, SVG Export Plug-In . SVG Version: 2.1.0 Build 142)  -->
  <defs>
    <mask id="mask" x="202.4906" y="275.13" width="409.9418" height="457.9539" maskUnits="userSpaceOnUse">
      <g id="b">
        <path d="M247.6666,511.6685c0-80.8368,68.2498-146.4078,152.3727-146.4078,84.08,0,152.2727,65.5853,152.2727,146.4078s-68.1998,146.3649-152.2727,146.3649c-84.13,0-152.3727-65.5424-152.3727-146.3649" style="fill: #fff;"/>
      </g>
    </mask>
  </defs>
  <path d="M348.2194,774.301c-.786,0-1.3752-.2173-1.7682-.6519-.393-.4352-.5284-1.03-.406-1.7856l.2518-1.6478c.122-.755.4501-1.3504.9841-1.785.5339-.4352,1.1939-.6525,1.9799-.6525.7553,0,1.3293.1987,1.7223.5954.3927.3967.551.9381.4747,1.6248h-1.2358c.0304-.3589-.0553-.637-.2573-.8357-.2024-.1981-.4979-.2974-.8869-.2974-.4197,0-.763.1167-1.03.3489-.2673.2328-.4349.5631-.5035.9903l-.2632,1.659c-.0686.4352-.0056.7686.1887,1.0015.1946.2328.5017.3489.9214.3489.389,0,.7152-.0987.9785-.2974.2632-.1981.4365-.4805.5206-.8469h1.2358c-.1372.6867-.4672,1.2306-.9897,1.631-.5228.4005-1.1616.6004-1.9169.6004ZM352.7967,774.1868l.9956-6.2943h1.1902l-.1946,1.1902c.3359-.8698.9729-1.3044,1.9113-1.3044.6712,0,1.1691.208,1.4932.624.3244.416.4293.9859.3148,1.7105l-.0686.4234h-1.2703l.0571-.3204c.0689-.4501.0115-.7953-.1714-1.0356-.1832-.2403-.4771-.3607-.8813-.3607-.4045,0-.7401.1223-1.007.3663-.2673.2446-.4349.588-.5035,1.03l-.6296,3.9711h-1.2358ZM361.9058,774.301c-.7705,0-1.3463-.2229-1.7279-.6693s-.515-1.0356-.4005-1.7682l.2518-1.6478c.0838-.488.2573-.9152.5206-1.2815s.6007-.6507,1.0129-.8524c.4119-.2024.8732-.3036,1.3845-.3036.7705,0,1.3485.2235,1.7338.6693.3852.4464.5169,1.0356.3949,1.7682l-.1717,1.1213h-3.845l-.0916.5265c-.1527.9536.2173,1.4305,1.1098,1.4305.7171,0,1.175-.2477,1.3734-.7438h1.2247c-.1679.5339-.5035.9599-1.007,1.2759-.5038.3166-1.0912.475-1.7626.475ZM361.2306,770.2157l-.0456.2862,2.6548-.0118.0459-.2856c.0686-.4656.0133-.822-.1661-1.0704-.1791-.2477-.4861-.3719-.9211-.3719-.4427,0-.7953.126-1.0586.3775-.2632.2521-.4331.6109-.5094,1.076ZM368.3258,774.301c-.6333,0-1.1027-.2117-1.4078-.6351s-.3967-1.0008-.2744-1.7335l.2744-1.7738c.1145-.7326.393-1.3119.8357-1.7397.4424-.4272.98-.6407,1.6133-.6407.4653,0,.8298.1186,1.093.3545.2632.2365.3908.5575.3834.9617h.023l.1717-1.202h1.2358l-.9956,6.2943h-1.2247l.1946-1.2014h-.023c-.122.4116-.3511.7339-.6867.9667s-.7401.3489-1.2129.3489ZM368.9324,773.2257c.389,0,.7152-.1186.9782-.3551.2632-.2359.4293-.5718.4979-1.007l.2518-1.6478c.0686-.4272.0096-.7612-.1773-1.0015-.1872-.2403-.475-.3601-.8642-.3601-.3967,0-.7249.118-.9841.3545-.2595.2365-.4234.5724-.492,1.007l-.2518,1.6478c-.0686.4427-.0133.7804.1658,1.0133.1794.2328.4712.3489.8757.3489ZM376.3477,774.1868c-.5721,0-.9937-.1565-1.2644-.4694-.271-.3123-.3607-.7512-.2691-1.3156l.538-3.3874h-1.7394l.1714-1.1219h1.7397l.2747-1.7161h1.2358l-.2747,1.7161h2.472l-.1832,1.1219h-2.4605l-.5377,3.3874c-.0764.4421.099.6637.5262.6637h1.7167l-.1717,1.1213h-1.7738ZM382.5042,774.301c-.7705,0-1.3463-.2229-1.7279-.6693s-.515-1.0356-.4005-1.7682l.2518-1.6478c.0838-.488.2573-.9152.5206-1.2815s.6007-.6507,1.0129-.8524c.4119-.2024.8732-.3036,1.3845-.3036.7705,0,1.3485.2235,1.7338.6693.3852.4464.5169,1.0356.3949,1.7682l-.1717,1.1213h-3.845l-.0916.5265c-.1527.9536.2173,1.4305,1.1098,1.4305.7171,0,1.175-.2477,1.3734-.7438h1.2247c-.1679.5339-.5035.9599-1.007,1.2759-.5038.3166-1.0912.475-1.7626.475ZM381.829,770.2157l-.0456.2862,2.6548-.0118.0459-.2856c.0686-.4656.0133-.822-.1661-1.0704-.1791-.2477-.4861-.3719-.9211-.3719-.4427,0-.7953.126-1.0586.3775-.2632.2521-.4331.6109-.5094,1.076ZM388.9243,774.301c-.6333,0-1.1008-.2117-1.4019-.6351-.3014-.4234-.3949-1.0008-.2803-1.7335l.2744-1.7738c.1145-.7326.393-1.3119.8357-1.7397.4424-.4272.98-.6407,1.6133-.6407.4653,0,.8298.1186,1.093.3545.2632.2365.3908.5575.3834.9617h.023l.2058-1.4652.2977-1.7962h1.2358l-1.3274,8.3537h-1.2247l.1946-1.2014h-.023c-.122.4116-.3511.7339-.6867.9667s-.7401.3489-1.2129.3489ZM389.5309,773.2257c.389,0,.7152-.1186.9782-.3551.2632-.2359.4293-.5718.4979-1.007l.2518-1.6478c.0761-.4272.0189-.7612-.1717-1.0015-.1909-.2403-.4805-.3601-.8698-.3601-.3967,0-.7249.118-.9841.3545-.2595.2365-.4234.5724-.492,1.007l-.2518,1.6478c-.0764.4427-.023.7804.1602,1.0133s.4768.3489.8813.3489ZM401.0175,774.301c-.4731,0-.8394-.1161-1.0986-.3489-.2595-.2328-.3852-.5551-.3775-.9667h-.0115l-.1946,1.2014h-1.2243l1.3274-8.3537h1.2358l-.2862,1.7962-.2744,1.4652h.0456c.122-.4123.353-.7345.6923-.9673.3396-.2322.7419-.3489,1.2076-.3489.633,0,1.1002.2136,1.4016.6407.3014.4278.3949,1.007.2806,1.7397l-.2747,1.7738c-.1145.7326-.3949,1.31-.8413,1.7335-.4461.4234-.9822.6351-1.6077.6351ZM400.7657,773.2257c.3967,0,.7227-.1161.9785-.3489.2555-.2328.4216-.5706.4976-1.0133l.2518-1.6478c.0689-.4346.0115-.7705-.1714-1.007-.1832-.2365-.4734-.3545-.8698-.3545-.3893,0-.7152.1198-.9785.3601s-.429.5743-.4979,1.0015l-.2518,1.6478c-.0686.4352-.0112.7711.1717,1.007.1832.2365.4731.3551.8698.3551ZM405.4694,776.2468l.1717-1.0642h1.934c.6407,0,1.007-.3017,1.0986-.9046l.1028-.6749.2061-1.1902h-.0345c-.122.4197-.3471.7438-.6752.9729-.3281.2285-.7286.3433-1.2014.3433-.6258,0-1.093-.2005-1.4019-.601s-.4104-.9443-.3033-1.631l.5836-3.6047h1.2358l-.5606,3.4793c-.0612.4116,0,.732.1832.9611s.4653.3433.8469.3433c.389,0,.7168-.1217.9841-.3663.267-.244.4309-.5836.492-1.0182l.538-3.3992h1.2358l-1.007,6.4086c-.0993.6029-.37,1.0778-.8124,1.4249-.4427.3471-.9996.5209-1.6707.5209h-1.9455ZM417.787,770.0853h3.221l.5368-1.8545h-5.4659l-1.7081,6.4419h2.1473l.5856-2.0985h3.0257l.4392-1.7081h-3.0257l.244-.7808ZM424.229,772.9158c-.5856,0-1.0249-.3904-1.0249-1.1225,0-.8784.6344-1.7569,1.6105-1.7569.488,0,.8784.244,1.0248.7808l1.9521-.8296c-.2928-1.1713-1.2689-1.9033-2.6353-1.9033-2.7817,0-4.1482,2.1473-4.1482,3.9042s1.2689,2.8305,3.0746,2.8305c1.3665,0,2.3425-.5856,2.9769-1.4153l-1.5129-1.1713c-.3904.4392-.8296.6832-1.3177.6832ZM430.9149,768.2308h-2.1473l-1.7569,6.4419h5.1242l.488-1.8545h-2.9281l1.2201-4.5874ZM439.7481,771.0125c0-1.6593-1.3177-2.9281-3.221-2.9281-2.1961,0-3.8066,1.8057-3.8066,3.8066,0,1.6593,1.3177,2.9281,3.221,2.9281,2.1961,0,3.8066-1.8057,3.8066-3.8066ZM434.9167,771.6957c0-.8296.5856-1.7081,1.5129-1.7081.7808,0,1.1713.5368,1.1713,1.2201,0,.8296-.5856,1.7081-1.5129,1.7081-.7808,0-1.1713-.5368-1.1713-1.2201ZM443.2131,772.2326h1.0737l-.1952.6832c-.1464.0488-.3416.0976-.5856.0976-.6832,0-1.2689-.3904-1.2689-1.2201,0-1.0249.732-1.9033,1.9521-1.9033.5856,0,1.1225.244,1.5129.5856l1.3665-1.3665c-.4392-.5368-1.5129-1.0737-2.7329-1.0737-2.5865,0-4.2946,1.7569-4.2946,3.8554,0,2.0497,1.6105,2.8793,3.221,2.8793.9272,0,1.8545-.2928,2.4889-.6832l.9272-3.3186h-3.1234l-.3416,1.4641ZM450.7775,768.0844c-2.1961,0-3.8066,1.8057-3.8066,3.8066,0,1.6593,1.3177,2.9281,3.221,2.9281,2.1961,0,3.8066-1.8057,3.8066-3.8066,0-1.6593-1.3177-2.9281-3.221-2.9281ZM450.3382,772.9158c-.7808,0-1.1713-.5368-1.1713-1.2201,0-.8296.5856-1.7081,1.5129-1.7081.7808,0,1.1713.5368,1.1713,1.2201,0,.8296-.5856,1.7081-1.5129,1.7081ZM437.9424,767.4987c-.0488.2928.0976.488.4392.488s.5368-.1952.6344-.488c.0488-.244-.0976-.488-.4392-.488s-.5856.244-.6344.488ZM432.1349,765.4978c-.4392,0-.732.244-.7808.5856s.0976.5856.5368.5856.732-.244.7808-.5856c.0976-.3416-.0976-.5856-.5368-.5856ZM433.0134,767.3035c-.0976.5368.1464.8784.8296.8784.6344,0,1.0737-.3904,1.1713-.8784s-.1464-.8784-.8296-.8784c-.6832,0-1.0737.3904-1.1713.8784ZM439.6017,777.552l-2.4401-1.8057h-1.5129l4.2458,3.1722,1.6105-3.1722h-.976l-.9272,1.8057ZM425.8394,767.1571l-2.0009-1.4641,23.1323-2.7817-2.1473,4.2458h1.0248l2.6841-5.3195-26.9877,3.221,2.7817,2.0985h1.5129ZM338.7186,785.7853l.6088-3.8315h2.32l-.084.5194h-1.7636l-.1837,1.1445h1.6272l-.084.5248h-1.6166l-.2573,1.6428h-.5668ZM342.97,785.8377c-.3568,0-.6228-.1005-.7978-.3019-.175-.201-.2345-.473-.1784-.8161l.2677-1.7006c.056-.3429.2029-.6148.4408-.8161.2379-.201.5355-.3019.8923-.3019s.6228.1.7979.2993c.1748.1993.2361.4707.1837.8136l-.2677,1.7057c-.0561.3431-.2039.6151-.4435.8161-.2398.2013-.5381.3019-.895.3019ZM343.0487,785.3339c.1925,0,.3483-.0524.4672-.1575.119-.1051.1942-.2571.2257-.4568l.2678-1.7006c.0315-.1993.0051-.3517-.0787-.4565-.084-.1051-.2223-.1575-.4148-.1575s-.3473.0524-.4645.1575c-.1173.1048-.1916.2571-.2231.4565l-.2677,1.7006c-.0315.1996-.0053.3517.0787.4568s.2204.1575.4094.1575ZM344.9961,785.7853l.6088-3.8315h1.202c.2379,0,.4391.0464.6036.139.1645.0928.2835.223.357.391s.091.3656.0524.5932c-.0384.2591-.14.4838-.3044.6746-.1645.1905-.3656.3209-.6036.391l.5354,1.6428h-.6194l-.4777-1.5748h-.5406l-.2466,1.5748h-.5668ZM345.8883,783.7068h.6352c.1889,0,.349-.0558.4803-.168.1313-.1119.2107-.2623.2388-.4514.0316-.1925,0-.3454-.0944-.4593-.0945-.1136-.2362-.1706-.4252-.1706h-.6352l-.1995,1.2493ZM349.545,785.7853l.6088-3.8315h1.2544c.3709,0,.6508.1048.8399.315.1889.2099.2553.4898.1993.8398-.0384.2344-.1216.4383-.2493.6114s-.2905.307-.4881.4015c-.1978.0945-.419.1418-.6639.1418h-.6928l-.2415,1.5221h-.5668ZM350.432,783.754h.6928c.1924,0,.3568-.0587.4934-.176.1364-.117.2204-.2737.2519-.4696s-.0017-.3525-.0997-.4699-.245-.1757-.441-.1757h-.6876l-.2099,1.2911ZM352.7466,785.7853l.6088-3.8315h2.2518l-.0787.5038h-1.6954l-.1731,1.0867h1.5115l-.0787.4986h-1.5115l-.1942,1.2387h1.6901l-.0787.5038h-2.2518ZM355.8434,785.7853l.6088-3.8315h1.202c.2379,0,.4391.0464.6036.139.1645.0928.2835.223.357.391s.091.3656.0524.5932c-.0384.2591-.14.4838-.3044.6746-.1645.1905-.3656.3209-.6036.391l.5354,1.6428h-.6194l-.4777-1.5748h-.5406l-.2466,1.5748h-.5668ZM356.7356,783.7068h.6352c.1889,0,.349-.0558.4803-.168.1313-.1119.2107-.2623.2388-.4514.0316-.1925,0-.3454-.0944-.4593-.0945-.1136-.2362-.1706-.4252-.1706h-.6352l-.1995,1.2493ZM360.1316,785.8377c-.385,0-.6736-.0951-.8661-.2859-.1924-.1908-.2641-.4505-.2151-.7794h.5668c-.028.1748.0105.3121.1155.4121.1051.0997.266.1495.483.1495.2029,0,.3701-.049.5012-.1469.1313-.098.2109-.2327.2389-.4044.0209-.1504.0007-.2788-.0604-.3856-.0614-.1068-.1583-.1811-.2913-.2233l-.4566-.1364c-.266-.0803-.4619-.217-.5879-.4095-.126-.1922-.1697-.4197-.1313-.6823.035-.2099.1121-.3935.2309-.551s.2729-.2799.4619-.3673.4024-.1313.6404-.1313c.3498,0,.6158.0954.7978.2859.182.1908.2485.4437.1995.7586h-.5668c.0279-.168-.0027-.3001-.092-.3964-.0891-.0963-.2301-.1444-.4225-.1444-.1889,0-.343.0447-.4619.1338-.119.0894-.1889.2144-.21.3753-.0245.1506-.007.2791.0525.3859s.1575.1811.2939.223l.4672.1469c.2624.0806.4558.2173.5801.4095.1242.1925.1653.4217.1233.6877-.035.217-.1155.4058-.2415.5667-.1259.1612-.2878.2862-.4855.3753-.1976.0894-.419.1338-.6639.1338ZM363.2651,785.8377c-.3568,0-.6228-.1005-.7978-.3019-.175-.201-.2345-.473-.1784-.8161l.2677-1.7006c.056-.3429.2029-.6148.4408-.8161.2379-.201.5355-.3019.8923-.3019s.6228.1.7979.2993c.1748.1993.2361.4707.1837.8136l-.2677,1.7057c-.0561.3431-.2039.6151-.4435.8161-.2398.2013-.5381.3019-.895.3019ZM363.3439,785.3339c.1925,0,.3483-.0524.4672-.1575.119-.1051.1942-.2571.2257-.4568l.2678-1.7006c.0315-.1993.0051-.3517-.0787-.4565-.084-.1051-.2223-.1575-.4148-.1575s-.3473.0524-.4645.1575c-.1173.1048-.1916.2571-.2231.4565l-.2677,1.7006c-.0315.1996-.0053.3517.0787.4568s.2204.1575.4094.1575ZM365.2754,785.7853l.6088-3.8315h.7086l.6194,3.186c.007-.098.0165-.217.0289-.3571.0121-.1398.0271-.2851.0446-.4354.0175-.1506.0367-.2888.0577-.4146l.315-1.9788h.525l-.609,3.8315h-.7085l-.6141-3.186c-.0071.0945-.0167.209-.0289.3437s-.0272.2757-.0446.4226c-.0177.1469-.0367.2833-.0578.4095l-.315,2.0102h-.5301ZM368.2252,785.7853l1.5851-3.8315h.7454l.3726,3.8315h-.5616l-.0735-.9711h-1.0865l-.3884.9711h-.5932ZM369.3852,784.3418h.8714l-.0893-1.1023c-.0175-.1959-.0298-.3654-.0367-.5089-.0071-.1435-.0105-.2432-.0105-.2993-.0175.0561-.0517.1558-.1024.2993s-.1146.3112-.1915.5038l-.441,1.1075ZM371.7208,785.7853l.6088-3.8315h.567l-.525,3.3118h1.6744l-.0787.5197h-2.2465ZM376.6785,785.8377c-.3673,0-.6342-.1005-.8003-.3019-.1663-.201-.2214-.475-.1654-.8213l.4357-2.7608h.567l-.4357,2.7554c-.0315.1962-.008.35.0708.4619.0787.1122.2144.168.4068.168.1925,0,.3473-.0558.4646-.168.1172-.1119.1915-.2657.2231-.4619l.4355-2.7554h.567l-.4357,2.7608c-.056.35-.2003.6245-.433.8241-.2328.1993-.5328.299-.9003.299ZM379.8435,785.8377c-.385,0-.6736-.0951-.8661-.2859-.1924-.1908-.2641-.4505-.2151-.7794h.5668c-.028.1748.0105.3121.1155.4121.1051.0997.266.1495.483.1495.2029,0,.3701-.049.5012-.1469.1313-.098.2109-.2327.2389-.4044.0209-.1504.0007-.2788-.0604-.3856-.0614-.1068-.1583-.1811-.2913-.2233l-.4566-.1364c-.266-.0803-.4619-.217-.5879-.4095-.126-.1922-.1697-.4197-.1313-.6823.035-.2099.1121-.3935.2309-.551s.2729-.2799.4619-.3673.4024-.1313.6404-.1313c.3498,0,.6158.0954.7978.2859.182.1908.2485.4437.1995.7586h-.5668c.0279-.168-.0027-.3001-.092-.3964-.0891-.0963-.2301-.1444-.4225-.1444-.1889,0-.343.0447-.4619.1338-.119.0894-.1889.2144-.21.3753-.0245.1506-.007.2791.0525.3859s.1575.1811.2939.223l.4672.1469c.2624.0806.4558.2173.5801.4095.1242.1925.1653.4217.1233.6877-.035.217-.1155.4058-.2415.5667-.1259.1612-.2878.2862-.4855.3753-.1976.0894-.419.1338-.6639.1338ZM381.9062,785.7853l.6088-3.8315h2.2518l-.0787.5038h-1.6954l-.1731,1.0867h1.5115l-.0787.4986h-1.5115l-.1942,1.2387h1.6901l-.0787.5038h-2.2518ZM386.9426,785.8377c-.3568,0-.6228-.1005-.7978-.3019-.175-.201-.2345-.473-.1784-.8161l.2677-1.7006c.056-.3429.2029-.6148.4408-.8161.2379-.201.5355-.3019.8923-.3019s.6228.1.7979.2993c.1748.1993.2361.4707.1837.8136l-.2677,1.7057c-.0561.3431-.2039.6151-.4435.8161-.2398.2013-.5381.3019-.895.3019ZM387.0213,785.3339c.1925,0,.3483-.0524.4672-.1575.119-.1051.1942-.2571.2257-.4568l.2678-1.7006c.0315-.1993.0051-.3517-.0787-.4565-.084-.1051-.2223-.1575-.4148-.1575s-.3473.0524-.4645.1575c-.1173.1048-.1916.2571-.2231.4565l-.2677,1.7006c-.0315.1996-.0053.3517.0787.4568s.2204.1575.4094.1575ZM388.9529,785.7853l.6088-3.8315h.7086l.6194,3.186c.007-.098.0165-.217.0289-.3571.0121-.1398.0271-.2851.0446-.4354.0175-.1506.0367-.2888.0577-.4146l.315-1.9788h.525l-.609,3.8315h-.7085l-.6141-3.186c-.0071.0945-.0167.209-.0289.3437s-.0272.2757-.0446.4226c-.0177.1469-.0367.2833-.0578.4095l-.315,2.0102h-.5301ZM392.249,785.7853l.6088-3.8315h.567l-.525,3.3118h1.6744l-.0787.5197h-2.2465ZM396.1174,785.7853l.2204-1.4119-.7506-2.4197h.5774l.4462,1.4486c.0279.0945.0498.1837.0656.2677.0157.084.0253.1469.0288.1888.0175-.0419.0464-.1048.0867-.1888.0402-.084.0883-.1731.1442-.2677l.8976-1.4486h.5984l-1.5275,2.4197-.2204,1.4119h-.5668ZM399.217,785.7853l.6088-3.8315h.7086l.6192,3.186c.0071-.098.0165-.217.029-.3571.012-.1398.0271-.2851.0444-.4354.0177-.1506.037-.2888.0578-.4146l.315-1.9788h.5248l-.6088,3.8315h-.7085l-.6141-3.186c-.0071.0945-.0167.209-.0289.3437s-.0272.2757-.0446.4226c-.0177.1469-.0367.2833-.0578.4095l-.315,2.0102h-.5301ZM403.5053,785.8377c-.3571,0-.6231-.1005-.7979-.3019-.1751-.201-.2344-.473-.1785-.8161l.2677-1.7006c.0561-.3429.203-.6148.4411-.8161.2378-.201.5354-.3019.8922-.3019.3571,0,.6228.1.7979.2993.1748.1993.2361.4707.1837.8136l-.2677,1.7057c-.0561.3431-.2039.6151-.4437.8161-.2395.2013-.5379.3019-.8947.3019ZM403.5839,785.3339c.1925,0,.3483-.0524.4673-.1575.1187-.1051.1942-.2571.2255-.4568l.2677-1.7006c.0316-.1993.0054-.3517-.0786-.4565-.084-.1051-.2224-.1575-.4146-.1575-.1925,0-.3474.0524-.4647.1575-.117.1048-.1914.2571-.223.4565l-.2677,1.7006c-.0316.1996-.0051.3517.0789.4568.0837.1051.2204.1575.4092.1575ZM406.3814,785.7853l.5248-3.3121h-1.0234l.084-.5194h2.6193l-.084.5194h-1.0289l-.5248,3.3121h-.567ZM409.5178,785.7853l.6088-3.8315h2.32l-.084.5194h-1.7636l-.1837,1.1445h1.6272l-.084.5248h-1.6166l-.2571,1.6428h-.567ZM413.7694,785.8377c-.3571,0-.6231-.1005-.7979-.3019-.1751-.201-.2344-.473-.1785-.8161l.2677-1.7006c.0561-.3429.203-.6148.4411-.8161.2378-.201.5354-.3019.8922-.3019.3571,0,.6228.1.7979.2993.1748.1993.2361.4707.1837.8136l-.2677,1.7057c-.0561.3431-.2039.6151-.4437.8161-.2395.2013-.5379.3019-.8947.3019ZM413.848,785.3339c.1925,0,.3483-.0524.4673-.1575.1187-.1051.1942-.2571.2255-.4568l.2677-1.7006c.0316-.1993.0054-.3517-.0786-.4565-.084-.1051-.2224-.1575-.4146-.1575-.1925,0-.3474.0524-.4647.1575-.117.1048-.1914.2571-.223.4565l-.2677,1.7006c-.0316.1996-.0051.3517.0789.4568.0837.1051.2204.1575.4092.1575ZM415.7952,785.7853l.6088-3.8315h1.202c.2381,0,.4391.0464.6037.139.1643.0928.2833.223.3568.391s.0911.3656.0527.5932c-.0387.2591-.1401.4838-.3044.6746-.1646.1905-.3659.3209-.6037.391l.5354,1.6428h-.6194l-.4776-1.5748h-.5408l-.2466,1.5748h-.567ZM416.6876,783.7068h.635c.1891,0,.3491-.0558.4804-.168.131-.1119.2107-.2623.2386-.4514.0316-.1925,0-.3454-.0945-.4593-.0943-.1136-.2361-.1706-.4252-.1706h-.635l-.1993,1.2493ZM420.905,785.8377c-.3602,0-.6308-.1005-.8107-.3019-.1803-.201-.2423-.473-.1865-.8161l.2677-1.7006c.0561-.3463.2056-.6194.4488-.8187s.545-.2993.9056-.2993c.3568,0,.6253.1008.8056.3019.1803.2013.2423.4733.1865.8161h-.567c.0313-.1993.0026-.3517-.0866-.4565-.0894-.1051-.2284-.1575-.4175-.1575-.1925,0-.3508.0524-.475.1575-.1242.1048-.2019.2554-.2335.4514l-.2677,1.7057c-.0316.1996-.0026.3517.0866.4568.0894.1051.2301.1575.4226.1575s.35-.0524.4724-.1575.1993-.2571.2309-.4568h.5667c-.0347.2275-.1145.4252-.2386.5932s-.2808.2976-.4699.3884c-.1888.0908-.4024.1364-.6404.1364ZM424.0335,785.8377c-.3571,0-.6231-.1005-.7979-.3019-.1751-.201-.2344-.473-.1785-.8161l.2677-1.7006c.0561-.3429.203-.6148.4411-.8161.2378-.201.5354-.3019.8922-.3019.3571,0,.6228.1.7979.2993.1748.1993.2361.4707.1837.8136l-.2677,1.7057c-.0561.3431-.2039.6151-.4437.8161-.2395.2013-.5379.3019-.8947.3019ZM424.1121,785.3339c.1925,0,.3483-.0524.4673-.1575.1187-.1051.1942-.2571.2255-.4568l.2677-1.7006c.0316-.1993.0054-.3517-.0786-.4565-.084-.1051-.2224-.1575-.4146-.1575-.1925,0-.3474.0524-.4647.1575-.117.1048-.1914.2571-.223.4565l-.2677,1.7006c-.0316.1996-.0051.3517.0789.4568.0837.1051.2204.1575.4092.1575ZM425.9653,785.7853l.6088-3.8315h.6874l.1837,1.2282c.0211.119.0367.2301.0473.3332.0105.1034.0194.1828.0262.2389.0177-.0561.0473-.1364.0894-.2415.0419-.1051.0908-.217.1469-.336l.5667-1.2228h.7088l-.6088,3.8315h-.5354l.2045-1.2911c.0245-.168.0578-.3525.1-.5539.0419-.201.0874-.4041.1364-.6088s.0963-.3998.1418-.5852c.0453-.1854.0874-.3483.1259-.4881l-.8554,1.8632h-.5513l-.2833-1.8632c-.0037.1364-.0105.2947-.0211.475s-.0236.3719-.0393.5747c-.0157.203-.035.4069-.0578.6114-.0228.2047-.0481.3964-.076.5749l-.2047,1.2911h-.5405ZM429.1145,785.7853l.6088-3.8315h.6874l.1837,1.2282c.0211.119.0367.2301.0473.3332.0105.1034.0194.1828.0262.2389.0177-.0561.0473-.1364.0894-.2415.0419-.1051.0908-.217.1469-.336l.5667-1.2228h.7088l-.6088,3.8315h-.5354l.2045-1.2911c.0245-.168.0578-.3525.1-.5539.0419-.201.0874-.4041.1364-.6088s.0963-.3998.1418-.5852c.0453-.1854.0874-.3483.1259-.4881l-.8554,1.8632h-.5513l-.2833-1.8632c-.0037.1364-.0105.2947-.0211.475s-.0236.3719-.0393.5747c-.0157.203-.035.4069-.0578.6114-.0228.2047-.0481.3964-.076.5749l-.2047,1.2911h-.5405ZM432.4107,785.7853l.6088-3.8315h2.2516l-.0786.5038h-1.6955l-.1731,1.0867h1.5115l-.0786.4986h-1.5118l-.1942,1.2387h1.6901l-.0786.5038h-2.2516ZM435.5073,785.7853l.6088-3.8315h1.202c.2381,0,.4391.0464.6037.139.1643.0928.2833.223.3568.391s.0911.3656.0527.5932c-.0387.2591-.1401.4838-.3044.6746-.1646.1905-.3659.3209-.6037.391l.5354,1.6428h-.6194l-.4776-1.5748h-.5408l-.2466,1.5748h-.567ZM436.3997,783.7068h.635c.1891,0,.3491-.0558.4804-.168.131-.1119.2107-.2623.2386-.4514.0316-.1925,0-.3454-.0945-.4593-.0943-.1136-.2361-.1706-.4252-.1706h-.635l-.1993,1.2493ZM439.8007,785.8377c-.3602,0-.6308-.1005-.8107-.3019-.1803-.201-.2423-.473-.1865-.8161l.2677-1.7006c.0561-.3463.2056-.6194.4488-.8187s.545-.2993.9056-.2993c.3568,0,.6253.1008.8056.3019.1803.2013.2423.4733.1865.8161h-.567c.0313-.1993.0026-.3517-.0866-.4565-.0894-.1051-.2284-.1575-.4175-.1575-.1925,0-.3508.0524-.475.1575-.1242.1048-.2019.2554-.2335.4514l-.2677,1.7057c-.0316.1996-.0026.3517.0866.4568.0894.1051.2301.1575.4226.1575s.35-.0524.4724-.1575.1993-.2571.2309-.4568h.5667c-.0347.2275-.1145.4252-.2386.5932s-.2808.2976-.4699.3884c-.1888.0908-.4024.1364-.6404.1364ZM441.8792,785.7853l.0789-.5038h.7768l.4459-2.824h-.7766l.0837-.5038h2.1258l-.084.5038h-.7766l-.4462,2.824h.7768l-.0789.5038h-2.1258ZM444.7399,785.7853l1.585-3.8315h.7452l.3728,3.8315h-.5616l-.0735-.9711h-1.0867l-.3884.9711h-.5929ZM445.8998,784.3418h.8714l-.0894-1.1023c-.0174-.1959-.0296-.3654-.0367-.5089-.0068-.1435-.0103-.2432-.0103-.2993-.0177.0561-.0518.1558-.1025.2993s-.1148.3112-.1916.5038l-.4408,1.1075ZM448.2354,785.7853l.6088-3.8315h.567l-.5248,3.3118h1.6741l-.0786.5197h-2.2465ZM453.1932,785.8377c-.3676,0-.6345-.1005-.8005-.3019-.1663-.201-.2213-.475-.1654-.8213l.4357-2.7608h.567l-.4357,2.7554c-.0316.1962-.008.35.0709.4619.0786.1122.2141.168.4066.168s.3474-.0558.4645-.168c.1173-.1119.1916-.2657.2233-.4619l.4357-2.7554h.5667l-.4357,2.7608c-.0558.35-.2002.6245-.4328.8241-.2329.1993-.5328.299-.9001.299ZM456.3581,785.8377c-.385,0-.6738-.0951-.866-.2859-.1925-.1908-.2643-.4505-.2153-.7794h.567c-.0282.1748.0105.3121.1153.4121.1051.0997.266.1495.483.1495.2028,0,.3699-.049.5012-.1469s.2107-.2327.2389-.4044c.0211-.1504.0009-.2788-.0604-.3856s-.1583-.1811-.2913-.2233l-.4568-.1364c-.266-.0803-.4619-.217-.5878-.4095-.1259-.1922-.1697-.4197-.1313-.6823.035-.2099.1119-.3935.2309-.551s.2731-.2799.4619-.3673c.1891-.0874.4024-.1313.6404-.1313.3497,0,.6157.0954.7979.2859.1817.1908.2483.4437.1993.7586h-.567c.0279-.168-.0026-.3001-.0917-.3964-.0894-.0963-.2301-.1444-.4226-.1444-.1891,0-.3429.0447-.4619.1338-.119.0894-.1891.2144-.2099.3753-.0245.1506-.0071.2791.0524.3859s.1575.1811.2939.223l.4673.1469c.2623.0806.4556.2173.5798.4095.1242.1925.1654.4217.1236.6877-.035.217-.1156.4058-.2415.5667-.1262.1612-.2879.2862-.4855.3753-.1979.0894-.4192.1338-.6641.1338ZM458.4209,785.7853l.6088-3.8315h2.2516l-.0786.5038h-1.6955l-.1731,1.0867h1.5115l-.0786.4986h-1.5118l-.1942,1.2387h1.6901l-.0786.5038h-2.2516Z" style="fill: #ccc;"/>
  <g>
    <path d="M157.2502,50.2715h485.4995v699.7285H157.2502V50.2715Z" style="fill: none;"/>
    <path d="M599.1882,374.1259c-25.3604-35.8515-59.9921-64.1322-100.1888-81.8155,6.2947-1.4071,12.1087-4.4447,16.8589-8.8081,7.4293-6.9721,10.1082-17.809,6.8578-27.6885,1.2501-1.593,2.2431-3.1789,3.2075-4.7148l1.0501-1.643c6.3707-9.9545,11.5587-20.6181,15.4587-31.7747,3.879-11.3083,7.3293-23.9739,6.2792-39.9612-.4929-6.5507-2.3217-11.6726-3.929-16.1945l-.6143-1.7502c-1.9931-5.3934-4.5933-9.0866-7.1079-12.6656l-.4929-.7144c-8.4794-12.1084-20.895-19.8877-35.8822-22.488-6.8078-1.2144-15.4301-1.0072-21.9165.5286-1.0413.2487-2.067.5588-3.0717.9287-2.1676-2.3621-4.531-4.5367-7.065-6.5007-8.1151-6.4292-22.5237-12.8299-38.6897-11.5155-.4643.0429-.9287.1-1.3859.1572-.194-.8439-.4276-1.6783-.7001-2.5003-.2975-.9847-.6651-1.9467-1.1001-2.8789-.2088-.4927-.4279-.9809-.6572-1.4644l-.6643-1.2144c-.2958-.5319-.6055-1.0559-.9287-1.5716-.3412-.5828-.7257-1.1392-1.1501-1.6645-.5323-.7299-1.0972-1.4355-1.693-2.1145l-.8144-.8501-.1429-.1429h5.6077v-31.2175h-11.3083v-11.6083h-30.3388v11.6155h-11.2797v31.2175h5.572c-3.5315,3.61-6.0858,8.0597-7.4222,12.9299-.2076.6911-.391,1.3892-.5501,2.0931-1.5193-.1525-3.045-.2336-4.5719-.2429-13.8728,0-26.6884,4.6433-36.068,13.0299-1.8372,1.6383-3.556,3.4048-5.1434,5.2863-1.7539-.5704-3.5438-1.0238-5.3577-1.3573-1.8502-.2631-3.7085-.4656-5.572-.6072l-1.3716-.1429-.5429-.0714-2.7003-.3929-.0214.2143c-3.6147-.1286-6.9721.5429-9.4081,1.0001-.3929.0857-.7644.1286-1.4001.2143l-1.7002.2857c-22.4666,5.3005-39.1897,23.3095-43.633,46.9619-1.0069,5.2704-1.3287,10.6488-.9572,16.0016,1.5502,22.7952,8.7866,38.2396,16.7017,53.3554l.8787,1.643c2.1788,4.1218,4.8362,9.1438,8.358,13.4085-1.7145,5.2577-1.693,11.544.1214,17.1732,2.6145,7.9437,8.8223,14.1229,17.4661,17.4018,1.3716.5215,2.7931.9572,4.2576,1.3144-40.1528,17.8166-74.7054,46.2159-99.9603,82.1584-28.2029,40.1041-43.1115,87.1232-43.1115,135.9853,0,131.9206,108.9183,239.2458,242.7891,239.2458s242.7105-107.3253,242.7105-239.2459c0-49.1407-15.0658-96.3813-43.5616-136.6282" style="fill: #fefefe;"/>
    <path d="M169.2515,511.7186c0-125.3699,103.3105-227.0232,230.7878-227.0232,127.3987,0,230.7093,101.6532,230.7093,227.0232s-103.3106,227.016-230.7093,227.016c-127.4773,0-230.7878-101.6461-230.7878-227.016" style="fill: #e01517;"/>
    <path d="M196.99,511.9329c0-4.3505,4.2862-7.8579,9.5938-7.8579,5.2077,0,9.5295,3.5003,9.5295,7.8579,0,4.3004-4.3147,7.8437-9.5295,7.8437-5.3077,0-9.5938-3.5432-9.5938-7.8437M580.1005,511.9329c0-4.3505,4.2576-7.8579,9.5295-7.8579,5.3148,0,9.5653,3.5003,9.5653,7.8579,0,4.3004-4.2504,7.8437-9.5653,7.8437-5.272,0-9.5295-3.5432-9.5295-7.8437M254.1673,412.5441l-9.0938,1.9216c1.6645,3.2789,1.4359,6.5864-.5072,9.7438-3.2432,5.0862-10.0725,3.6075-15.2158.7215-5.1362-2.9431-9.8439-8.0937-7.5008-13.6371,1.4073-3.4004,3.7147-5.3077,7.1436-5.9506l-2.6574-8.5723c-5.8649,1.3287-9.5367,4.4719-12.5013,9.9439-5.0434,9.3795,1.0001,21.7808,10.6082,27.2742,9.6296,5.4434,22.7595,4.679,28.1243-5.2148,2.9217-5.4934,3.5718-10.3153,1.6002-16.2302M268.2687,372.6829c4.4362,4.0576,6.1721,11.4369,2.0788,15.8445l-2.836,2.986-16.4803-16.4517,2.7789-2.9431c3.8861-4.1218,10.3439-3.2646,14.4586.5643M275.298,365.2035c-8.0937-7.465-20.6307-7.7436-28.1386.2857l-9.7296,10.3439,29.8888,29.6173,9.6438-10.3153c7.8579-8.3223,6.665-22.1165-1.6645-29.9316M503.357,378.212l21.9951-36.2394-8.4152-5.4577-12.5084,20.5592.3929-28.26-8.4294-5.4648-21.9737,36.1894,8.4794,5.4291,12.4299-20.4878-.4,28.2743,8.4294,5.4577ZM453.7805,335.9291l-7.215-1.8788,6.5721-11.3083.6429,13.1871ZM464.953,355.1311l-4.6076-44.2331-8.1865-2.1288-24.2596,36.8395,9.1224,4.729,4.5362-7.7294,12.7299,3.2932.4786,8.9795s10.1867.25,10.1867.2501ZM411.6262,317.8845c0,3.6575-3.7575,5.7506-7.2579,5.7506h-1.6073v-11.5226h1.6073c3.5004,0,7.2579,2.1431,7.2579,5.772M421.6915,317.8916c0-9.0866-8.4937-15.3159-17.3161-15.3159h-11.5583v42.7115h9.951v-12.1084h1.6073c8.8223,0,17.3161-6.1578,17.3161-15.2873M376.9155,333.9218c-1.2001-6.3435-6.1006-9.1652-12.1727-10.9083l-2.9074-.8001c-3.0503-.8787-5.622-1.3359-5.422-3.8718.0643-1.6145,1.1001-3.0289,2.5503-3.3432,2.2788-.5715,4.6576-.7358,6.2006.9358l4.4576-8.0365c-3.8647-2.9003-7.7865-3.3075-12.587-2.2145-6.0363,1.3144-11.644,7.8294-10.4154,14.7015,1.2858,6.9293,7.2293,9.2009,13.8014,11.2297l2.4431.8072c2.0431.6858,3.9361,1.3859,4.3004,3.5718.3571,2.1105-.8588,4.1712-2.8789,4.8791-2.8003.9072-6.0649.2357-7.3079-2.4717l-4.7862,8.358c4.0218,3.8718,9.5224,4.4005,14.0729,3.4646,7.215-1.5787,12.0441-8.8795,10.6511-16.3017M339.4331,355.4097l-3.7361-8.658-13.5728,6.1792-3.2432-7.4222,11.0654-5.0219-3.7504-8.6937-11.0726,5.0362-2.3717-5.472,12.9585-5.922-3.8004-8.708-22.0237,10.1439,16.9303,38.9754s22.6166-10.4368,22.6166-10.4368ZM565.2919,383.734l-4.2933-9.5367-19.2805,5.7363,6.915-19.4163-8.9723-5.1077-8.1437,27.1956-11.5155,11.0225,6.9007,7.6079,11.4583-11.044s26.9313-6.4578,26.9314-6.4578ZM573.1284,428.7529c-5.9363,3.5432-12.4155,4.6076-15.4016-.7072-2.9717-5.3291,1.1358-10.5154,7.1436-14.0943,5.972-3.5718,12.4084-4.5862,15.373.7287,3.0146,5.3005-1.1358,10.5011-7.115,14.0729M578.1432,437.7467c9.6653-5.722,15.5659-17.8304,10.0296-27.7528-5.5863-9.9439-18.7448-10.7725-28.3886-4.9719-9.6081,5.6934-15.5016,17.8232-9.9724,27.7385,5.6149,9.9082,18.7448,10.7297,28.3315,4.9862M569.8781,485.423l8.9866-2.3074-3.5575-14.4729,31.2675-8.0223-2.3717-9.9439-40.2684,10.3082s5.9435,24.4382,5.9435,24.4382ZM218.6279,567.5814c-5.7292,1.6645-12.6656-.6929-14.1657-6.6078l-.9572-4.0361,22.2666-5.7149.993,4.0075c1.3073,5.5791-2.7431,10.7439-8.1365,12.3512M221.071,577.6038c10.4296-3.0432,17.2446-13.8514,14.6944-24.6525l-3.3932-13.9657-40.2398,10.2939,3.3861,13.9157c2.6574,11.294,14.7015,17.6232,25.5526,14.4086M223.0641,626.0444l8.1008-4.6148-7.215-13.3799,6.8936-3.9504,5.8792,10.9368,8.0723-4.6219-5.8435-10.8654,5.1077-2.9575,6.8364,12.7585,8.0937-4.6505-11.6512-21.6308-36.3251,20.645,12.0512,22.3308h0ZM279.0841,665.2484c-1.7859,2.3074-4.6433,1.3573-8.0151-1.2644l-1.2001-1.043,4.8148-6.3721,1.2644,1.0001c3.5575,2.8432,4.8862,5.3791,3.136,7.6793M287.3992,651.3755c-1.2858,1.7502-3.1503,1.643-6.2221-.7715l-1.193-.9144,4.0004-5.3077,1.1073.8572c3.086,2.5074,3.5718,4.5291,2.3074,6.1363M286.3706,672.3777c2.9432-3.8718,2.5003-8.708-.0714-12.9156,4.0147.9501,7.7365-.0286,10.2868-3.4218,4.4719-5.8577.3286-13.3799-5.9006-18.4305l-8.858-7.0579-25.5312,33.6391,9.6653,7.6579c6.715,5.4863,15.5516,6.9793,20.4092.5286M323.2243,686.6792l-6.8078-3.1289,8.4009-9.9796s-1.593,13.1085-1.593,13.1085ZM331.0108,707.5742l2.9432-44.3759-7.7151-3.5075-30.1102,31.9533,8.2294,6.2078,5.7292-6.7364,12.0084,5.4863-1.0715,8.9295s9.9867,2.0431,9.9867,2.043ZM372.3293,688.1507c-.4358,2.9575-3.9504,4.0861-6.8721,3.6432l-1.5644-.2357,1.4359-9.4224,1.5787.2143c4.6005.7715,5.9006,2.686,5.422,5.8006ZM382.5804,715.425l-8.9509-15.323c4.5683-1.6218,7.8951-5.5971,8.6866-10.3797,1.2787-8.4437-5.7863-15.4016-14.0014-16.8017l-11.3797-1.793-6.4792,42.14,9.8439,1.6144,2.1217-13.9157,1.543.2286,9.2152,17.2089,9.401-2.9789ZM430.7924,711.896l-6.4935-6.8221c-1.6716,3.1932-4.5576,4.8648-8.158,4.8648-5.8792,0-8.4866-6.7864-8.8723-12.8084-.4429-6.0006,1.243-12.8013,7.0579-13.8729,3.4646-.6644,6.3221.2929,8.6937,2.9717l5.5863-6.9935c-4.3433-4.3576-8.8581-5.8006-14.973-5.3149-10.3796.7429-17.1803,12.6942-16.4302,23.9381.7715,11.3154,8.5723,22.2523,19.5163,21.4879,6.1292-.4858,10.3939-2.586,14.0729-7.4508M475.4256,705.181l-2.6788-9.1581-14.2157,4.4933-2.3217-7.7579,11.594-3.6218-2.7003-9.1152-11.6083,3.6861-1.6573-5.7363,13.5442-4.2861-2.7503-9.0652-23.0524,7.1864,12.1012,40.8756s23.7453-7.5008,23.7453-7.5007ZM537.039,640.0029c4.7934,5.0719,7.3579,11.2869,3.0932,15.5016-4.2861,4.3004-10.2082,1.4502-14.9515-3.6789-4.8862-5.0862-7.4222-11.2726-3.1575-15.5158,4.3147-4.2576,10.1939-1.4502,15.0158,3.6932M544.3183,632.7165c-7.7579-8.1866-20.595-11.1511-28.5886-3.1575-7.9508,7.9294-5.622,21.2807,2.1217,29.4887,7.7579,8.2151,20.5807,11.2011,28.6172,3.2432,8.0294-7.9437,5.5791-21.2879-2.1502-29.5744M519.1729,682.7073l-4.4933-8.3009-12.6442,7.2507-15.6087-28.9815-8.7795,4.9577,20.2163,37.3181s21.3093-12.2441,21.3094-12.2441ZM589.7444,552.4654l-1.5716,7.5365-11.2297-6.4221,12.8013-1.1144ZM608.0463,540.3713l-42.8758,6.2078-1.743,8.4723,36.6466,23.6595,4.229-9.5224-7.6365-4.3147,2.736-13.2514,8.7295-.7572s-.0857-10.4939-.0857-10.4939ZM592.3875,597.6844l-36.3037-20.6807-4.8005,8.9795,20.5664,11.7012-27.4314,1.0715-4.8934,8.9509,36.318,20.6664,4.8434-8.9366-20.6092-11.7083,27.5028-1.093,4.8076-8.9509ZM207.5697,458.1917c2.9003.6715,3.7718,4.3147,3.1289,7.315l-.3572,1.5502-9.0223-2.1002.35-1.6073c1.0287-4.6433,3.0503-5.8363,5.9006-5.1577ZM234.7796,449.6051l-15.4301,8.0865c-1.393-5.0148-5.0648-8.5866-9.501-9.651-8.0937-1.893-15.3444,4.8934-17.1732,13.1156l-2.636,11.5726,40.4327,9.651,2.2359-9.9724-13.3371-3.1718.3215-1.5359,17.2946-8.3151-2.2074-9.7938v.0143Z" style="fill: #f5d10d;"/>
    <path d="M247.6737,511.6685c0-80.8368,68.2427-146.4078,152.3727-146.4078,84.0657,0,152.2584,65.5853,152.2584,146.4078s-68.1998,146.3649-152.2655,146.3649c-84.1229,0-152.3727-65.5424-152.3656-146.3649" style="fill: #fefefe;"/>
    <g>
      <path d="M247.6666,511.6685c0-80.8368,68.2498-146.4078,152.3727-146.4078,84.08,0,152.2727,65.5853,152.2727,146.4078s-68.1998,146.3649-152.2727,146.3649c-84.13,0-152.3727-65.5424-152.3727-146.3649" style="fill: #fefefe;"/>
      <g style="mask: url(#mask);">
        <path d="M571.4139,421.195l41.0185,42.24-262.0553,269.6489-41.0399-42.2543,262.0767-269.6347ZM510.422,355.9883l40.9899,42.2757-262.0553,269.6061-41.0042-42.2757s262.0696-269.6061,262.0696-269.6061ZM464.5244,275.13l41.0042,42.2829-262.0196,269.599-41.0185-42.2186s262.0339-269.6632,262.0339-269.6633Z" style="fill: #0077bd;"/>
      </g>
    </g>
    <path d="M509.3576,191.6859c-.4581,4.8531-1.4548,9.6402-2.9717,14.2729-.1214.4143-.3143.7786-.45,1.1858-.1429.5786-.3572,1.0287-.4429,1.4716-.2714.6929-.3929,1.1787-.5929,1.7502-.2.6072-.5,1.1073-.7358,1.6645-.1907.6701-.4442,1.3206-.7572,1.9431-.2857.6929-.6001,1.3501-.8787,2.1145-.3715.7144-.7858,1.5073-1.1644,2.2645-.4215.8358-.8787,1.6287-1.293,2.436-.5072.9358-1.0001,1.8788-1.5001,2.836-1.5073,2.686-3.2932,5.372-5.0791,7.8651-2.9217,4.0933-5.872,7.5722-5.5648,15.0444-5.0931.0446-10.0554,1.6174-14.2443,4.5147-1.1858.8287-2.1431,2.2431-3.2718,3.0503-.0357.0714-.3143.1286-.45.1143,0,0-.0571-.4-.0857-.4715,0,0,.15-.2857.0857-.3929-.0978-.9192-.2312-1.8343-.4-2.7431-.6156-2.925-2.0329-5.621-4.0933-7.7865-1.0144-1.0215-1.9716-2.0002-3.1503-2.8574-2.3431-1.8073-1.8073-1.0858,0-2.9503,3.1503-3.186,4.9648-9.2509,7.0722-13.7514,5.4291-12.0012,9.9939-25.1669,11.9226-40.9185.6072-5.1934,1.0501-11.4797.2714-17.0946,2.0359-.6429,4.4647-.9144,6.9722-1.1358,7.7722-.6572,13.53,3.2503,16.9446,7.6579.5858.8358,1.4359,1.6573,1.9359,2.7003,2.0645,4.1647,2.2145,8.8366,2.0002,14.4586.1071.0071-.0786,2.3502-.0786,2.7574M445.7368,208.309c-1.4144,3.3932-2.8789,6.7793-4.3147,10.1439-1.4716,3.4289-3.6289,6.565-3.9361,11.2869-.15,2.4217.5286,4.229.8644,6.1435-6.4007,1.8359-11.8155,5.1434-14.5372,10.8797-3.2075-7.315-5.8077-9.6153-12.4727-13.0942,1.1716-1.7859,2.2359-4.129,2.6503-6.865.3429-2.2359.1643-4.9148.1643-7.4508v-66.3568c4.2576-2.1288,9.0795-3.9647,14.7872-4.4147,7.7865-.6215,13.6014,1.7859,17.6447,5.3577,2.3074,2.0716,4.329,4.2862,5.5863,7.5579,5.1719,13.5228-2.3217,36.6895-6.4364,46.8119M377.3799,245.6414c-.1714.5143-.2857.9858-.4286,1.6216-.8429-.8358-1.2858-1.8145-2.0002-2.8146-2.8217-3.8718-7.7436-6.8721-13.0013-8.0008,1.9645-8.1937-.5072-11.8798-3.0217-17.6804-1.6716-3.6789-3.4932-7.5008-4.8576-11.3869-7.9865-22.1237-16.566-55.6628,14.5372-58.2131,7.0221-.5858,12.7013,2.2502,17.6089,4.2719.5072,5.372.1071,11.6012.1071,17.1803v39.054c0,5.6434-.7001,13.1871.2,18.309.4358,2.4074,1.5073,4.3004,2.5574,6.0506-4.9791,2.5503-9.8653,5.6934-11.7012,11.6083M338.1259,240.7695c-1.384,1.0459-2.6109,2.2848-3.6432,3.6789-2.1431,2.6431-3.7218,5.6934-3.7218,10.5582-3.136-2.386-5.9577-5.1434-10.1582-6.3435-2.3145-.7572-4.6148-1.0144-7.6936-1.5144.6858-6.9007-2.4431-10.4296-4.9291-14.1586-1.8288-2.6931-3.8575-5.4577-5.4006-8.3294-2.386-4.4004-4.9577-8.9438-6.6507-13.93-3.2146-9.2295-7.265-26.7313-1.5216-36.2466,3.1432-5.4077,8.2151-9.0081,15.7659-9.5581,3.036-.1143,6.0721.2929,8.9795,1.1858-.7286,5.2863-.4143,11.0511.2143,16.1231,1.9645,16.5803,6.7578,29.7316,12.237,42.4258,1.7788,4.2504,3.4146,9.2509,6.1792,12.5227.7001.7715,1.5001,1.6359,2.2359,2.2717-.7215.4286-1.243.8501-1.893,1.3144M537.7391,180.3347c-.4286-5.8577-2.3074-10.5582-3.8932-15.073-1.643-4.4433-3.9647-7.5722-6.3721-11.0226-6.5721-9.4081-16.5088-16.1159-29.453-18.3733-5.6434-1.0001-12.8942-.7858-18.0947.4572-1.3287.2643-7.7151,2.8289-8.3008,2.6217-.2714-.0714-2.2431-2.9289-2.5646-3.3146-1.7859-2.2859-4.679-4.8934-6.8936-6.6221-7.0222-5.572-18.7948-10.4582-31.6532-9.401-4.0218.3715-7.5293,1.4287-11.1583,1.9645.0714-1.3216.2072-2.7003.2786-4.1719v-.6786c0-.4929-.0714-.993-.0929-1.4859-.0429-.1786-.0429-.3215-.0429-.5-.0143-.1643-.0143-.3429-.0714-.5715,0-.1786-.0786-.3072-.0929-.4715-.1398-.8453-.3258-1.6824-.5572-2.5074-.041-.1718-.0984-.3393-.1714-.5-.2053-.7309-.4779-1.4411-.8144-2.1216-.1258-.3277-.2664-.6495-.4215-.9644-.3715-.6429-.7501-1.343-1.1644-1.9788-.143-.2414-.3055-.4708-.4858-.6858-.3804-.5354-.7857-1.0527-1.2144-1.5502-.15-.1143-.2357-.2715-.4072-.4-2.3498-2.5643-5.341-4.4557-8.6652-5.4791v-11.3654h11.1868v-11.4797h-11.1869v-11.494h-11.1584v11.5012h-11.144v11.4726h11.144v11.3583c-.1094.0396-.2167.0849-.3214.1357-1.5859.5215-3.0717,1.2144-4.4647,2.1431-.2143.1072-.4286.2-.6215.3572-.8358.5429-1.643,1.2144-2.4502,2.0216-2.6646,2.5574-4.5862,5.7863-5.5506,9.3438-1.043,3.4289-1.1787,7.0721-.3786,10.5654-4.379-.7215-8.6223-1.8859-13.6871-1.8859-12.3084,0-22.688,4.4005-29.6102,10.5939-3.0432,2.6431-5.4363,6.0792-8.358,8.858l-.1286.2429c-.5715.1572-1.7859-.7144-2.2859-.9287-2.2359-.7787-4.6648-1.6645-7.0507-2.0931-2.5503-.3858-4.9148-.4572-7.3507-.8072h-.1786c-2.9646-.3357-6.1006.2357-8.5366.6929-1.0501.2143-1.9788.3072-2.9503.4643-18.0733,4.2647-32.3033,19.0662-36.0537,38.9897-.7644,3.8004-1.0715,8.5866-.7644,13.1656,1.4144,20.8235,8.0294,34.7607,15.4087,48.8478,3.3003,6.2006,7.0579,13.9228,12.6656,17.4946-.8715,1.3359-1.9431,2.5288-2.5217,4.1076-1.4859,3.4789-1.4073,8.1865-.25,11.7869,4.3862,13.3014,24.6239,16.6588,36.9323,9.1152,5.4863-3.3146,8.4866-7.2007,9.2867-15.3944,10.2368,10.7011,32.4533,10.2582,40.647-2.2859.993-1.5716,1.6287-3.4646,2.3431-5.4863,1.4001,2.1288,2.6931,4.3719,4.6005,5.922,8.8795,7.6079,26.2027,7.5936,35.125,0,1.9359-1.6287,3.2146-3.8504,4.6433-5.9935,4.4719,13.3156,20.9021,18.5376,35.4322,12.5941,3.0217-1.2144,5.4291-3.4361,7.8151-5.4291,0,13.0371,13.4871,20.7021,26.7884,19.3806,5.8986-.5411,11.4581-2.9973,15.8302-6.9936,3.8932-3.6432,6.6007-10.1868,4.1147-17.3589-.6358-1.8859-1.9645-3.1432-2.7574-4.8719,4.0647-2.6217,5.5077-5.522,8.1365-9.6224,5.8838-9.1843,10.6717-19.0262,14.2658-29.3244,3.3861-9.8224,6.6293-21.3808,5.7006-35.5108M157.2502,50" style="fill: #f5d10d; isolation: isolate;"/>
  </g>
</svg>