<?xml version="1.0" encoding="iso-8859-1"?>
<!-- Created by @FCLOGO 2024-10-21 GMT+8 20:57:49 . https://fclogo.top/ -->
<!-- FOR PERSONAL USE ONLY NOT FOR COMMERCIAL USE -->
<svg version="1.1" id="&#x56FE;&#x5C42;_1" xmlns="http://www.w3.org/2000/svg" xmlns:xlink="http://www.w3.org/1999/xlink" x="0px"
	 y="0px" viewBox="0 0 800 800" style="enable-background:new 0 0 800 800;" xml:space="preserve">
<path style="fill:#CCCCCC;" d="M348.219,774.301c-0.786,0-1.375-0.217-1.768-0.652c-0.393-0.435-0.528-1.03-0.406-1.786l0.252-1.648
	c0.122-0.755,0.45-1.35,0.984-1.785c0.534-0.435,1.194-0.653,1.98-0.653c0.755,0,1.329,0.199,1.722,0.595
	c0.393,0.397,0.551,0.938,0.475,1.625h-1.236c0.03-0.359-0.055-0.637-0.257-0.836c-0.202-0.198-0.498-0.297-0.887-0.297
	c-0.42,0-0.763,0.117-1.03,0.349c-0.267,0.233-0.435,0.563-0.504,0.99l-0.263,1.659c-0.069,0.435-0.006,0.769,0.189,1.001
	c0.195,0.233,0.502,0.349,0.921,0.349c0.389,0,0.715-0.099,0.978-0.297c0.263-0.198,0.436-0.481,0.521-0.847h1.236
	c-0.137,0.687-0.467,1.231-0.99,1.631C349.614,774.101,348.975,774.301,348.219,774.301z M352.797,774.187l0.996-6.294h1.19
	l-0.195,1.19c0.336-0.87,0.973-1.304,1.911-1.304c0.671,0,1.169,0.208,1.493,0.624c0.324,0.416,0.429,0.986,0.315,1.71l-0.069,0.423
	h-1.27l0.057-0.32c0.069-0.45,0.011-0.795-0.171-1.036c-0.183-0.24-0.477-0.361-0.881-0.361c-0.405,0-0.74,0.122-1.007,0.366
	c-0.267,0.245-0.435,0.588-0.504,1.03l-0.63,3.971H352.797z M361.906,774.301c-0.77,0-1.346-0.223-1.728-0.669
	c-0.382-0.446-0.515-1.036-0.4-1.768l0.252-1.648c0.084-0.488,0.257-0.915,0.521-1.281c0.263-0.366,0.601-0.651,1.013-0.852
	c0.412-0.202,0.873-0.304,1.385-0.304c0.771,0,1.349,0.224,1.734,0.669c0.385,0.446,0.517,1.036,0.395,1.768l-0.172,1.121h-3.845
	l-0.092,0.526c-0.153,0.954,0.217,1.43,1.11,1.43c0.717,0,1.175-0.248,1.373-0.744h1.225c-0.168,0.534-0.504,0.96-1.007,1.276
	C363.165,774.143,362.577,774.301,361.906,774.301z M361.231,770.216l-0.046,0.286l2.655-0.012l0.046-0.286
	c0.069-0.466,0.013-0.822-0.166-1.07c-0.179-0.248-0.486-0.372-0.921-0.372c-0.443,0-0.795,0.126-1.059,0.378
	C361.477,769.392,361.307,769.751,361.231,770.216z M368.326,774.301c-0.633,0-1.103-0.212-1.408-0.635
	c-0.305-0.423-0.397-1.001-0.274-1.733l0.274-1.774c0.115-0.733,0.393-1.312,0.836-1.74c0.442-0.427,0.98-0.641,1.613-0.641
	c0.465,0,0.83,0.119,1.093,0.354c0.263,0.237,0.391,0.558,0.383,0.962h0.023l0.172-1.202h1.236l-0.996,6.294h-1.225l0.195-1.201
	h-0.023c-0.122,0.412-0.351,0.734-0.687,0.967C369.203,774.185,368.799,774.301,368.326,774.301z M368.932,773.226
	c0.389,0,0.715-0.119,0.978-0.355c0.263-0.236,0.429-0.572,0.498-1.007l0.252-1.648c0.069-0.427,0.01-0.761-0.177-1.001
	c-0.187-0.24-0.475-0.36-0.864-0.36c-0.397,0-0.725,0.118-0.984,0.355c-0.26,0.237-0.423,0.572-0.492,1.007l-0.252,1.648
	c-0.069,0.443-0.013,0.78,0.166,1.013C368.236,773.11,368.528,773.226,368.932,773.226z M376.348,774.187
	c-0.572,0-0.994-0.156-1.264-0.469c-0.271-0.312-0.361-0.751-0.269-1.316l0.538-3.387h-1.739l0.171-1.122h1.74l0.275-1.716h1.236
	l-0.275,1.716h2.472l-0.183,1.122h-2.46l-0.538,3.387c-0.076,0.442,0.099,0.664,0.526,0.664h1.717l-0.172,1.121H376.348z
	 M382.504,774.301c-0.77,0-1.346-0.223-1.728-0.669c-0.382-0.446-0.515-1.036-0.4-1.768l0.252-1.648
	c0.084-0.488,0.257-0.915,0.521-1.281c0.263-0.366,0.601-0.651,1.013-0.852c0.412-0.202,0.873-0.304,1.385-0.304
	c0.771,0,1.349,0.224,1.734,0.669c0.385,0.446,0.517,1.036,0.395,1.768l-0.172,1.121h-3.845l-0.092,0.526
	c-0.153,0.954,0.217,1.43,1.11,1.43c0.717,0,1.175-0.248,1.373-0.744h1.225c-0.168,0.534-0.504,0.96-1.007,1.276
	C383.763,774.143,383.176,774.301,382.504,774.301z M381.829,770.216l-0.046,0.286l2.655-0.012l0.046-0.286
	c0.069-0.466,0.013-0.822-0.166-1.07c-0.179-0.248-0.486-0.372-0.921-0.372c-0.443,0-0.795,0.126-1.059,0.378
	C382.075,769.392,381.905,769.751,381.829,770.216z M388.924,774.301c-0.633,0-1.101-0.212-1.402-0.635
	c-0.301-0.423-0.395-1.001-0.28-1.733l0.274-1.774c0.115-0.733,0.393-1.312,0.836-1.74c0.442-0.427,0.98-0.641,1.613-0.641
	c0.465,0,0.83,0.119,1.093,0.354c0.263,0.237,0.391,0.558,0.383,0.962h0.023l0.206-1.465l0.298-1.796h1.236l-1.327,8.354h-1.225
	l0.195-1.201h-0.023c-0.122,0.412-0.351,0.734-0.687,0.967C389.802,774.185,389.397,774.301,388.924,774.301z M389.531,773.226
	c0.389,0,0.715-0.119,0.978-0.355c0.263-0.236,0.429-0.572,0.498-1.007l0.252-1.648c0.076-0.427,0.019-0.761-0.172-1.001
	c-0.191-0.24-0.481-0.36-0.87-0.36c-0.397,0-0.725,0.118-0.984,0.355c-0.26,0.237-0.423,0.572-0.492,1.007l-0.252,1.648
	c-0.076,0.443-0.023,0.78,0.16,1.013C388.833,773.11,389.126,773.226,389.531,773.226z M401.017,774.301
	c-0.473,0-0.839-0.116-1.099-0.349c-0.26-0.233-0.385-0.555-0.377-0.967h-0.011l-0.195,1.201h-1.224l1.327-8.354h1.236l-0.286,1.796
	l-0.274,1.465h0.046c0.122-0.412,0.353-0.734,0.692-0.967c0.34-0.232,0.742-0.349,1.208-0.349c0.633,0,1.1,0.214,1.402,0.641
	c0.301,0.428,0.395,1.007,0.281,1.74l-0.275,1.774c-0.115,0.733-0.395,1.31-0.841,1.733
	C402.179,774.089,401.643,774.301,401.017,774.301z M400.766,773.226c0.397,0,0.723-0.116,0.978-0.349
	c0.255-0.233,0.422-0.571,0.498-1.013l0.252-1.648c0.069-0.435,0.011-0.771-0.171-1.007c-0.183-0.237-0.473-0.355-0.87-0.355
	c-0.389,0-0.715,0.12-0.978,0.36c-0.263,0.24-0.429,0.574-0.498,1.001l-0.252,1.648c-0.069,0.435-0.011,0.771,0.172,1.007
	C400.079,773.107,400.369,773.226,400.766,773.226z M405.469,776.247l0.172-1.064h1.934c0.641,0,1.007-0.302,1.099-0.905
	l0.103-0.675l0.206-1.19h-0.034c-0.122,0.42-0.347,0.744-0.675,0.973c-0.328,0.228-0.729,0.343-1.201,0.343
	c-0.626,0-1.093-0.201-1.402-0.601c-0.309-0.4-0.41-0.944-0.303-1.631l0.584-3.605h1.236l-0.561,3.479
	c-0.061,0.412,0,0.732,0.183,0.961c0.183,0.229,0.465,0.343,0.847,0.343c0.389,0,0.717-0.122,0.984-0.366
	c0.267-0.244,0.431-0.584,0.492-1.018l0.538-3.399h1.236l-1.007,6.409c-0.099,0.603-0.37,1.078-0.812,1.425
	c-0.443,0.347-1,0.521-1.671,0.521H405.469z M417.787,770.085h3.221l0.537-1.854h-5.466l-1.708,6.442h2.147l0.586-2.099h3.026
	l0.439-1.708h-3.026L417.787,770.085z M424.229,772.916c-0.586,0-1.025-0.39-1.025-1.122c0-0.878,0.634-1.757,1.61-1.757
	c0.488,0,0.878,0.244,1.025,0.781l1.952-0.83c-0.293-1.171-1.269-1.903-2.635-1.903c-2.782,0-4.148,2.147-4.148,3.904
	c0,1.757,1.269,2.831,3.075,2.831c1.366,0,2.343-0.586,2.977-1.415l-1.513-1.171C425.156,772.672,424.717,772.916,424.229,772.916z
	 M430.915,768.231h-2.147l-1.757,6.442h5.124l0.488-1.854h-2.928L430.915,768.231z M439.748,771.013
	c0-1.659-1.318-2.928-3.221-2.928c-2.196,0-3.807,1.806-3.807,3.807c0,1.659,1.318,2.928,3.221,2.928
	C438.138,774.819,439.748,773.013,439.748,771.013z M434.917,771.696c0-0.83,0.586-1.708,1.513-1.708
	c0.781,0,1.171,0.537,1.171,1.22c0,0.83-0.586,1.708-1.513,1.708C435.307,772.916,434.917,772.379,434.917,771.696z
	 M443.213,772.233h1.074l-0.195,0.683c-0.146,0.049-0.342,0.098-0.586,0.098c-0.683,0-1.269-0.39-1.269-1.22
	c0-1.025,0.732-1.903,1.952-1.903c0.586,0,1.122,0.244,1.513,0.586l1.366-1.367c-0.439-0.537-1.513-1.074-2.733-1.074
	c-2.587,0-4.295,1.757-4.295,3.855c0,2.05,1.61,2.879,3.221,2.879c0.927,0,1.854-0.293,2.489-0.683l0.927-3.319h-3.123
	L443.213,772.233z M450.777,768.084c-2.196,0-3.807,1.806-3.807,3.807c0,1.659,1.318,2.928,3.221,2.928
	c2.196,0,3.807-1.806,3.807-3.807C453.998,769.353,452.681,768.084,450.777,768.084z M450.338,772.916
	c-0.781,0-1.171-0.537-1.171-1.22c0-0.83,0.586-1.708,1.513-1.708c0.781,0,1.171,0.537,1.171,1.22
	C451.851,772.037,451.265,772.916,450.338,772.916z M437.942,767.499c-0.049,0.293,0.098,0.488,0.439,0.488s0.537-0.195,0.634-0.488
	c0.049-0.244-0.098-0.488-0.439-0.488C438.235,767.011,437.991,767.255,437.942,767.499z M432.135,765.498
	c-0.439,0-0.732,0.244-0.781,0.586c-0.049,0.342,0.098,0.586,0.537,0.586s0.732-0.244,0.781-0.586
	C432.769,765.742,432.574,765.498,432.135,765.498z M433.013,767.304c-0.098,0.537,0.146,0.878,0.83,0.878
	c0.634,0,1.074-0.39,1.171-0.878s-0.146-0.878-0.83-0.878C433.501,766.425,433.111,766.815,433.013,767.304z M439.602,777.552
	l-2.44-1.806h-1.513l4.246,3.172l1.61-3.172h-0.976L439.602,777.552z M425.839,767.157l-2.001-1.464l23.132-2.782l-2.147,4.246
	h1.025l2.684-5.319l-26.988,3.221l2.782,2.099H425.839z M338.719,785.785l0.609-3.832h2.32l-0.084,0.519H339.8l-0.184,1.144h1.627
	l-0.084,0.525h-1.617l-0.257,1.643H338.719z M342.97,785.838c-0.357,0-0.623-0.101-0.798-0.302
	c-0.175-0.201-0.234-0.473-0.178-0.816l0.268-1.701c0.056-0.343,0.203-0.615,0.441-0.816c0.238-0.201,0.536-0.302,0.892-0.302
	c0.357,0,0.623,0.1,0.798,0.299c0.175,0.199,0.236,0.471,0.184,0.814l-0.268,1.706c-0.056,0.343-0.204,0.615-0.444,0.816
	C343.625,785.737,343.327,785.838,342.97,785.838z M343.049,785.334c0.193,0,0.348-0.052,0.467-0.157
	c0.119-0.105,0.194-0.257,0.226-0.457l0.268-1.701c0.031-0.199,0.005-0.352-0.079-0.456c-0.084-0.105-0.222-0.157-0.415-0.157
	s-0.347,0.052-0.464,0.157c-0.117,0.105-0.192,0.257-0.223,0.456l-0.268,1.701c-0.031,0.2-0.005,0.352,0.079,0.457
	C342.723,785.281,342.86,785.334,343.049,785.334z M344.996,785.785l0.609-3.832h1.202c0.238,0,0.439,0.046,0.604,0.139
	c0.164,0.093,0.283,0.223,0.357,0.391c0.073,0.168,0.091,0.366,0.052,0.593c-0.038,0.259-0.14,0.484-0.304,0.675
	c-0.164,0.19-0.366,0.321-0.604,0.391l0.535,1.643h-0.619l-0.478-1.575h-0.541l-0.247,1.575H344.996z M345.888,783.707h0.635
	c0.189,0,0.349-0.056,0.48-0.168c0.131-0.112,0.211-0.262,0.239-0.451c0.032-0.193,0-0.345-0.094-0.459
	c-0.095-0.114-0.236-0.171-0.425-0.171h-0.635L345.888,783.707z M349.545,785.785l0.609-3.832h1.254c0.371,0,0.651,0.105,0.84,0.315
	c0.189,0.21,0.255,0.49,0.199,0.84c-0.038,0.234-0.122,0.438-0.249,0.611s-0.29,0.307-0.488,0.402
	c-0.198,0.095-0.419,0.142-0.664,0.142h-0.693l-0.241,1.522H349.545z M350.432,783.754h0.693c0.192,0,0.357-0.059,0.493-0.176
	c0.136-0.117,0.22-0.274,0.252-0.47c0.031-0.196-0.002-0.353-0.1-0.47c-0.098-0.117-0.245-0.176-0.441-0.176h-0.688L350.432,783.754
	z M352.747,785.785l0.609-3.832h2.252l-0.079,0.504h-1.695l-0.173,1.087h1.512l-0.079,0.499h-1.512l-0.194,1.239h1.69l-0.079,0.504
	H352.747z M355.843,785.785l0.609-3.832h1.202c0.238,0,0.439,0.046,0.604,0.139c0.164,0.093,0.284,0.223,0.357,0.391
	c0.073,0.168,0.091,0.366,0.052,0.593c-0.038,0.259-0.14,0.484-0.304,0.675c-0.164,0.19-0.366,0.321-0.604,0.391l0.535,1.643h-0.619
	l-0.478-1.575h-0.541l-0.247,1.575H355.843z M356.736,783.707h0.635c0.189,0,0.349-0.056,0.48-0.168
	c0.131-0.112,0.211-0.262,0.239-0.451c0.032-0.193,0-0.345-0.094-0.459c-0.095-0.114-0.236-0.171-0.425-0.171h-0.635
	L356.736,783.707z M360.132,785.838c-0.385,0-0.674-0.095-0.866-0.286c-0.192-0.191-0.264-0.451-0.215-0.779h0.567
	c-0.028,0.175,0.011,0.312,0.115,0.412c0.105,0.1,0.266,0.15,0.483,0.15c0.203,0,0.37-0.049,0.501-0.147
	c0.131-0.098,0.211-0.233,0.239-0.404c0.021-0.15,0.001-0.279-0.06-0.386c-0.061-0.107-0.158-0.181-0.291-0.223l-0.457-0.136
	c-0.266-0.08-0.462-0.217-0.588-0.409c-0.126-0.192-0.17-0.42-0.131-0.682c0.035-0.21,0.112-0.394,0.231-0.551
	c0.119-0.157,0.273-0.28,0.462-0.367c0.189-0.087,0.402-0.131,0.64-0.131c0.35,0,0.616,0.095,0.798,0.286
	c0.182,0.191,0.248,0.444,0.199,0.759h-0.567c0.028-0.168-0.003-0.3-0.092-0.396c-0.089-0.096-0.23-0.144-0.422-0.144
	c-0.189,0-0.343,0.045-0.462,0.134c-0.119,0.089-0.189,0.214-0.21,0.375c-0.025,0.151-0.007,0.279,0.053,0.386
	c0.06,0.107,0.158,0.181,0.294,0.223l0.467,0.147c0.262,0.081,0.456,0.217,0.58,0.409c0.124,0.193,0.165,0.422,0.123,0.688
	c-0.035,0.217-0.115,0.406-0.241,0.567c-0.126,0.161-0.288,0.286-0.486,0.375C360.598,785.793,360.376,785.838,360.132,785.838z
	 M363.265,785.838c-0.357,0-0.623-0.101-0.798-0.302c-0.175-0.201-0.234-0.473-0.178-0.816l0.268-1.701
	c0.056-0.343,0.203-0.615,0.441-0.816c0.238-0.201,0.535-0.302,0.892-0.302c0.357,0,0.623,0.1,0.798,0.299
	c0.175,0.199,0.236,0.471,0.184,0.814l-0.268,1.706c-0.056,0.343-0.204,0.615-0.444,0.816
	C363.92,785.737,363.622,785.838,363.265,785.838z M363.344,785.334c0.192,0,0.348-0.052,0.467-0.157
	c0.119-0.105,0.194-0.257,0.226-0.457l0.268-1.701c0.031-0.199,0.005-0.352-0.079-0.456c-0.084-0.105-0.222-0.157-0.415-0.157
	c-0.192,0-0.347,0.052-0.464,0.157c-0.117,0.105-0.192,0.257-0.223,0.456l-0.268,1.701c-0.031,0.2-0.005,0.352,0.079,0.457
	C363.019,785.281,363.155,785.334,363.344,785.334z M365.275,785.785l0.609-3.832h0.709l0.619,3.186
	c0.007-0.098,0.017-0.217,0.029-0.357c0.012-0.14,0.027-0.285,0.045-0.435c0.018-0.151,0.037-0.289,0.058-0.415l0.315-1.979h0.525
	l-0.609,3.832h-0.708l-0.614-3.186c-0.007,0.095-0.017,0.209-0.029,0.344s-0.027,0.276-0.045,0.423
	c-0.018,0.147-0.037,0.283-0.058,0.409l-0.315,2.01H365.275z M368.225,785.785l1.585-3.832h0.745l0.373,3.832h-0.562l-0.073-0.971
	h-1.087l-0.388,0.971H368.225z M369.385,784.342h0.871l-0.089-1.102c-0.017-0.196-0.03-0.365-0.037-0.509
	c-0.007-0.144-0.011-0.243-0.011-0.299c-0.017,0.056-0.052,0.156-0.102,0.299c-0.051,0.143-0.115,0.311-0.191,0.504L369.385,784.342
	z M371.721,785.785l0.609-3.832h0.567l-0.525,3.312h1.674l-0.079,0.52H371.721z M376.678,785.838c-0.367,0-0.634-0.101-0.8-0.302
	c-0.166-0.201-0.221-0.475-0.165-0.821l0.436-2.761h0.567l-0.436,2.755c-0.031,0.196-0.008,0.35,0.071,0.462
	c0.079,0.112,0.214,0.168,0.407,0.168c0.192,0,0.347-0.056,0.465-0.168c0.117-0.112,0.192-0.266,0.223-0.462l0.436-2.755h0.567
	l-0.436,2.761c-0.056,0.35-0.2,0.625-0.433,0.824C377.346,785.738,377.046,785.838,376.678,785.838z M379.843,785.838
	c-0.385,0-0.674-0.095-0.866-0.286c-0.192-0.191-0.264-0.451-0.215-0.779h0.567c-0.028,0.175,0.011,0.312,0.115,0.412
	c0.105,0.1,0.266,0.15,0.483,0.15c0.203,0,0.37-0.049,0.501-0.147c0.131-0.098,0.211-0.233,0.239-0.404
	c0.021-0.15,0.001-0.279-0.06-0.386c-0.061-0.107-0.158-0.181-0.291-0.223l-0.457-0.136c-0.266-0.08-0.462-0.217-0.588-0.409
	c-0.126-0.192-0.17-0.42-0.131-0.682c0.035-0.21,0.112-0.394,0.231-0.551s0.273-0.28,0.462-0.367
	c0.189-0.087,0.402-0.131,0.64-0.131c0.35,0,0.616,0.095,0.798,0.286c0.182,0.191,0.248,0.444,0.199,0.759h-0.567
	c0.028-0.168-0.003-0.3-0.092-0.396c-0.089-0.096-0.23-0.144-0.422-0.144c-0.189,0-0.343,0.045-0.462,0.134
	c-0.119,0.089-0.189,0.214-0.21,0.375c-0.024,0.151-0.007,0.279,0.053,0.386c0.06,0.107,0.157,0.181,0.294,0.223l0.467,0.147
	c0.262,0.081,0.456,0.217,0.58,0.409c0.124,0.193,0.165,0.422,0.123,0.688c-0.035,0.217-0.115,0.406-0.241,0.567
	c-0.126,0.161-0.288,0.286-0.486,0.375C380.31,785.793,380.088,785.838,379.843,785.838z M381.906,785.785l0.609-3.832h2.252
	l-0.079,0.504h-1.695l-0.173,1.087h1.512l-0.079,0.499h-1.512l-0.194,1.239h1.69l-0.079,0.504H381.906z M386.943,785.838
	c-0.357,0-0.623-0.101-0.798-0.302c-0.175-0.201-0.234-0.473-0.178-0.816l0.268-1.701c0.056-0.343,0.203-0.615,0.441-0.816
	c0.238-0.201,0.536-0.302,0.892-0.302c0.357,0,0.623,0.1,0.798,0.299c0.175,0.199,0.236,0.471,0.184,0.814l-0.268,1.706
	c-0.056,0.343-0.204,0.615-0.444,0.816C387.598,785.737,387.299,785.838,386.943,785.838z M387.021,785.334
	c0.193,0,0.348-0.052,0.467-0.157c0.119-0.105,0.194-0.257,0.226-0.457l0.268-1.701c0.031-0.199,0.005-0.352-0.079-0.456
	c-0.084-0.105-0.222-0.157-0.415-0.157c-0.193,0-0.347,0.052-0.464,0.157c-0.117,0.105-0.192,0.257-0.223,0.456l-0.268,1.701
	c-0.031,0.2-0.005,0.352,0.079,0.457C386.696,785.281,386.832,785.334,387.021,785.334z M388.953,785.785l0.609-3.832h0.709
	l0.619,3.186c0.007-0.098,0.017-0.217,0.029-0.357c0.012-0.14,0.027-0.285,0.045-0.435c0.018-0.151,0.037-0.289,0.058-0.415
	l0.315-1.979h0.525l-0.609,3.832h-0.708l-0.614-3.186c-0.007,0.095-0.017,0.209-0.029,0.344c-0.012,0.135-0.027,0.276-0.045,0.423
	c-0.018,0.147-0.037,0.283-0.058,0.409l-0.315,2.01H388.953z M392.249,785.785l0.609-3.832h0.567l-0.525,3.312h1.674l-0.079,0.52
	H392.249z M396.117,785.785l0.22-1.412l-0.751-2.42h0.577l0.446,1.449c0.028,0.095,0.05,0.184,0.066,0.268
	c0.016,0.084,0.025,0.147,0.029,0.189c0.017-0.042,0.046-0.105,0.087-0.189c0.04-0.084,0.088-0.173,0.144-0.268l0.898-1.449h0.598
	l-1.527,2.42l-0.22,1.412H396.117z M399.217,785.785l0.609-3.832h0.709l0.619,3.186c0.007-0.098,0.017-0.217,0.029-0.357
	c0.012-0.14,0.027-0.285,0.044-0.435c0.018-0.151,0.037-0.289,0.058-0.415l0.315-1.979h0.525l-0.609,3.832h-0.708l-0.614-3.186
	c-0.007,0.095-0.017,0.209-0.029,0.344c-0.012,0.135-0.027,0.276-0.045,0.423c-0.018,0.147-0.037,0.283-0.058,0.409l-0.315,2.01
	H399.217z M403.505,785.838c-0.357,0-0.623-0.101-0.798-0.302c-0.175-0.201-0.234-0.473-0.179-0.816l0.268-1.701
	c0.056-0.343,0.203-0.615,0.441-0.816c0.238-0.201,0.535-0.302,0.892-0.302c0.357,0,0.623,0.1,0.798,0.299
	c0.175,0.199,0.236,0.471,0.184,0.814l-0.268,1.706c-0.056,0.343-0.204,0.615-0.444,0.816
	C404.16,785.737,403.862,785.838,403.505,785.838z M403.584,785.334c0.193,0,0.348-0.052,0.467-0.157
	c0.119-0.105,0.194-0.257,0.226-0.457l0.268-1.701c0.032-0.199,0.005-0.352-0.079-0.456c-0.084-0.105-0.222-0.157-0.415-0.157
	c-0.193,0-0.347,0.052-0.465,0.157c-0.117,0.105-0.191,0.257-0.223,0.456l-0.268,1.701c-0.032,0.2-0.005,0.352,0.079,0.457
	C403.258,785.281,403.395,785.334,403.584,785.334z M406.381,785.785l0.525-3.312h-1.023l0.084-0.519h2.619l-0.084,0.519h-1.029
	l-0.525,3.312H406.381z M409.518,785.785l0.609-3.832h2.32l-0.084,0.519h-1.764l-0.184,1.144h1.627l-0.084,0.525h-1.617
	l-0.257,1.643H409.518z M413.769,785.838c-0.357,0-0.623-0.101-0.798-0.302c-0.175-0.201-0.234-0.473-0.179-0.816l0.268-1.701
	c0.056-0.343,0.203-0.615,0.441-0.816c0.238-0.201,0.535-0.302,0.892-0.302c0.357,0,0.623,0.1,0.798,0.299
	c0.175,0.199,0.236,0.471,0.184,0.814l-0.268,1.706c-0.056,0.343-0.204,0.615-0.444,0.816
	C414.425,785.737,414.126,785.838,413.769,785.838z M413.848,785.334c0.193,0,0.348-0.052,0.467-0.157
	c0.119-0.105,0.194-0.257,0.226-0.457l0.268-1.701c0.032-0.199,0.005-0.352-0.079-0.456c-0.084-0.105-0.222-0.157-0.415-0.157
	c-0.193,0-0.347,0.052-0.465,0.157c-0.117,0.105-0.191,0.257-0.223,0.456l-0.268,1.701c-0.032,0.2-0.005,0.352,0.079,0.457
	C413.522,785.281,413.659,785.334,413.848,785.334z M415.795,785.785l0.609-3.832h1.202c0.238,0,0.439,0.046,0.604,0.139
	c0.164,0.093,0.283,0.223,0.357,0.391c0.073,0.168,0.091,0.366,0.053,0.593c-0.039,0.259-0.14,0.484-0.304,0.675
	c-0.165,0.19-0.366,0.321-0.604,0.391l0.535,1.643h-0.619l-0.478-1.575h-0.541l-0.247,1.575H415.795z M416.688,783.707h0.635
	c0.189,0,0.349-0.056,0.48-0.168c0.131-0.112,0.211-0.262,0.239-0.451c0.032-0.193,0-0.345-0.095-0.459
	c-0.094-0.114-0.236-0.171-0.425-0.171h-0.635L416.688,783.707z M420.905,785.838c-0.36,0-0.631-0.101-0.811-0.302
	c-0.18-0.201-0.242-0.473-0.187-0.816l0.268-1.701c0.056-0.346,0.206-0.619,0.449-0.819s0.545-0.299,0.906-0.299
	c0.357,0,0.625,0.101,0.806,0.302c0.18,0.201,0.242,0.473,0.186,0.816h-0.567c0.031-0.199,0.003-0.352-0.087-0.456
	c-0.089-0.105-0.228-0.157-0.417-0.157c-0.193,0-0.351,0.052-0.475,0.157c-0.124,0.105-0.202,0.255-0.233,0.451l-0.268,1.706
	c-0.032,0.2-0.003,0.352,0.087,0.457c0.089,0.105,0.23,0.157,0.423,0.157c0.192,0,0.35-0.052,0.472-0.157
	c0.122-0.105,0.199-0.257,0.231-0.457h0.567c-0.035,0.228-0.114,0.425-0.239,0.593c-0.124,0.168-0.281,0.298-0.47,0.388
	C421.357,785.792,421.143,785.838,420.905,785.838z M424.033,785.838c-0.357,0-0.623-0.101-0.798-0.302
	c-0.175-0.201-0.234-0.473-0.179-0.816l0.268-1.701c0.056-0.343,0.203-0.615,0.441-0.816c0.238-0.201,0.535-0.302,0.892-0.302
	c0.357,0,0.623,0.1,0.798,0.299c0.175,0.199,0.236,0.471,0.184,0.814l-0.268,1.706c-0.056,0.343-0.204,0.615-0.444,0.816
	C424.689,785.737,424.39,785.838,424.033,785.838z M424.112,785.334c0.193,0,0.348-0.052,0.467-0.157
	c0.119-0.105,0.194-0.257,0.226-0.457l0.268-1.701c0.032-0.199,0.005-0.352-0.079-0.456c-0.084-0.105-0.222-0.157-0.415-0.157
	c-0.192,0-0.347,0.052-0.465,0.157c-0.117,0.105-0.191,0.257-0.223,0.456l-0.268,1.701c-0.032,0.2-0.005,0.352,0.079,0.457
	C423.787,785.281,423.923,785.334,424.112,785.334z M425.965,785.785l0.609-3.832h0.687l0.184,1.228
	c0.021,0.119,0.037,0.23,0.047,0.333c0.011,0.103,0.019,0.183,0.026,0.239c0.018-0.056,0.047-0.136,0.089-0.241
	c0.042-0.105,0.091-0.217,0.147-0.336l0.567-1.223h0.709l-0.609,3.832h-0.535l0.204-1.291c0.024-0.168,0.058-0.353,0.1-0.554
	c0.042-0.201,0.087-0.404,0.136-0.609c0.049-0.205,0.096-0.4,0.142-0.585c0.045-0.185,0.087-0.348,0.126-0.488l-0.855,1.863h-0.551
	l-0.283-1.863c-0.004,0.136-0.011,0.295-0.021,0.475c-0.011,0.18-0.024,0.372-0.039,0.575c-0.016,0.203-0.035,0.407-0.058,0.611
	c-0.023,0.205-0.048,0.396-0.076,0.575l-0.205,1.291H425.965z M429.115,785.785l0.609-3.832h0.687l0.184,1.228
	c0.021,0.119,0.037,0.23,0.047,0.333c0.011,0.103,0.019,0.183,0.026,0.239c0.018-0.056,0.047-0.136,0.089-0.241
	c0.042-0.105,0.091-0.217,0.147-0.336l0.567-1.223h0.709l-0.609,3.832h-0.535l0.204-1.291c0.025-0.168,0.058-0.353,0.1-0.554
	c0.042-0.201,0.087-0.404,0.136-0.609c0.049-0.205,0.096-0.4,0.142-0.585c0.045-0.185,0.087-0.348,0.126-0.488l-0.855,1.863h-0.551
	l-0.283-1.863c-0.004,0.136-0.011,0.295-0.021,0.475c-0.011,0.18-0.024,0.372-0.039,0.575c-0.016,0.203-0.035,0.407-0.058,0.611
	c-0.023,0.205-0.048,0.396-0.076,0.575l-0.205,1.291H429.115z M432.411,785.785l0.609-3.832h2.252l-0.079,0.504h-1.695l-0.173,1.087
	h1.512l-0.079,0.499h-1.512l-0.194,1.239h1.69l-0.079,0.504H432.411z M435.507,785.785l0.609-3.832h1.202
	c0.238,0,0.439,0.046,0.604,0.139c0.164,0.093,0.283,0.223,0.357,0.391c0.073,0.168,0.091,0.366,0.053,0.593
	c-0.039,0.259-0.14,0.484-0.304,0.675c-0.165,0.19-0.366,0.321-0.604,0.391l0.535,1.643h-0.619l-0.478-1.575h-0.541l-0.247,1.575
	H435.507z M436.4,783.707h0.635c0.189,0,0.349-0.056,0.48-0.168c0.131-0.112,0.211-0.262,0.239-0.451
	c0.032-0.193,0-0.345-0.095-0.459c-0.094-0.114-0.236-0.171-0.425-0.171h-0.635L436.4,783.707z M439.801,785.838
	c-0.36,0-0.631-0.101-0.811-0.302c-0.18-0.201-0.242-0.473-0.187-0.816l0.268-1.701c0.056-0.346,0.206-0.619,0.449-0.819
	s0.545-0.299,0.906-0.299c0.357,0,0.625,0.101,0.806,0.302c0.18,0.201,0.242,0.473,0.187,0.816h-0.567
	c0.031-0.199,0.003-0.352-0.087-0.456c-0.089-0.105-0.228-0.157-0.417-0.157c-0.193,0-0.351,0.052-0.475,0.157
	c-0.124,0.105-0.202,0.255-0.234,0.451l-0.268,1.706c-0.032,0.2-0.003,0.352,0.087,0.457c0.089,0.105,0.23,0.157,0.423,0.157
	s0.35-0.052,0.472-0.157c0.122-0.105,0.199-0.257,0.231-0.457h0.567c-0.035,0.228-0.114,0.425-0.239,0.593
	c-0.124,0.168-0.281,0.298-0.47,0.388C440.252,785.792,440.039,785.838,439.801,785.838z M441.879,785.785l0.079-0.504h0.777
	l0.446-2.824h-0.777l0.084-0.504h2.126l-0.084,0.504h-0.777l-0.446,2.824h0.777l-0.079,0.504H441.879z M444.74,785.785l1.585-3.832
	h0.745l0.373,3.832h-0.562l-0.073-0.971h-1.087l-0.388,0.971H444.74z M445.9,784.342h0.871l-0.089-1.102
	c-0.017-0.196-0.03-0.365-0.037-0.509c-0.007-0.144-0.01-0.243-0.01-0.299c-0.018,0.056-0.052,0.156-0.103,0.299
	c-0.051,0.143-0.115,0.311-0.192,0.504L445.9,784.342z M448.235,785.785l0.609-3.832h0.567l-0.525,3.312h1.674l-0.079,0.52H448.235z
	 M453.193,785.838c-0.368,0-0.634-0.101-0.8-0.302c-0.166-0.201-0.221-0.475-0.165-0.821l0.436-2.761h0.567l-0.436,2.755
	c-0.032,0.196-0.008,0.35,0.071,0.462c0.079,0.112,0.214,0.168,0.407,0.168c0.192,0,0.347-0.056,0.464-0.168
	c0.117-0.112,0.192-0.266,0.223-0.462l0.436-2.755h0.567l-0.436,2.761c-0.056,0.35-0.2,0.625-0.433,0.824
	C453.86,785.738,453.561,785.838,453.193,785.838z M456.358,785.838c-0.385,0-0.674-0.095-0.866-0.286
	c-0.193-0.191-0.264-0.451-0.215-0.779h0.567c-0.028,0.175,0.011,0.312,0.115,0.412c0.105,0.1,0.266,0.15,0.483,0.15
	c0.203,0,0.37-0.049,0.501-0.147s0.211-0.233,0.239-0.404c0.021-0.15,0.001-0.279-0.06-0.386c-0.061-0.107-0.158-0.181-0.291-0.223
	l-0.457-0.136c-0.266-0.08-0.462-0.217-0.588-0.409c-0.126-0.192-0.17-0.42-0.131-0.682c0.035-0.21,0.112-0.394,0.231-0.551
	c0.119-0.157,0.273-0.28,0.462-0.367c0.189-0.087,0.402-0.131,0.64-0.131c0.35,0,0.616,0.095,0.798,0.286
	c0.182,0.191,0.248,0.444,0.199,0.759h-0.567c0.028-0.168-0.003-0.3-0.092-0.396c-0.089-0.096-0.23-0.144-0.423-0.144
	c-0.189,0-0.343,0.045-0.462,0.134c-0.119,0.089-0.189,0.214-0.21,0.375c-0.025,0.151-0.007,0.279,0.052,0.386
	c0.06,0.107,0.157,0.181,0.294,0.223l0.467,0.147c0.262,0.081,0.456,0.217,0.58,0.409c0.124,0.193,0.165,0.422,0.124,0.688
	c-0.035,0.217-0.116,0.406-0.241,0.567c-0.126,0.161-0.288,0.286-0.486,0.375C456.824,785.793,456.603,785.838,456.358,785.838z
	 M458.421,785.785l0.609-3.832h2.252l-0.079,0.504h-1.695l-0.173,1.087h1.512l-0.079,0.499h-1.512l-0.194,1.239h1.69l-0.079,0.504
	H458.421z"/>
<g>
	<path style="fill:#F4CD11;" d="M536.48,177.721c-137.611,24.163-272.966,0-272.966,0c-7.326,61.045-44.516,102.202-100.361,111.392
		c15.36,171.43,96.623,344.447,236.844,433.724l0,0c0,0,0,0,0.002,0h0.002l0,0c140.219-89.278,221.486-262.294,236.841-433.724
		C580.995,279.923,543.806,238.766,536.48,177.721z"/>
	<g>
		<path style="fill:#FFDE00;" d="M309.763,183.709c-9.949-0.996-18.534-2.012-25.522-2.926l-23.485,12.914
			c-0.043,0.183-0.108,0.349-0.149,0.534c-1.547,6.911-3.509,13.514-5.878,19.794L309.763,183.709z"/>
		<path style="fill:#FFDE00;" d="M442.999,187.607c-11.046,0.486-21.861,0.755-32.343,0.826l-10.637,5.848l-10.821-5.95
			c-11.519-0.191-22.503-0.589-32.88-1.117l43.701,24.027L442.999,187.607z"/>
		<path style="fill:#FFDE00;" d="M543.781,210.154l-0.278-0.649c-0.344-1.001-0.555-2.106-0.876-3.122
			c-0.936-2.987-1.803-6.027-2.565-9.144c-0.31-1.254-0.748-2.41-1.034-3.684l-22.955-12.624
			c-8.438,1.205-16.834,2.242-25.171,3.122l54.34,29.907C544.76,212.686,544.228,211.456,543.781,210.154z"/>
		<path style="fill:#FFDE00;" d="M329.823,645.588l-13.443,7.391c3.515,3.752,7.087,7.442,10.711,11.068l2.732-1.502l49.577,27.258
			v18.94c5.055,3.666,10.195,7.223,15.419,10.661v-38.079L329.823,645.588z"/>
		<path style="fill:#FFDE00;" d="M405.156,681.379v38.034c5.224-3.438,10.368-6.991,15.424-10.663v-18.891l49.573-27.258
			l2.709,1.491c3.627-3.63,7.199-7.318,10.712-11.072l-13.421-7.38L405.156,681.379z"/>
		<g>
			<path style="fill:#FFDE00;" d="M226.148,519.669c0.108,0.23,0.226,0.448,0.336,0.677c-0.11-0.228-0.213-0.456-0.325-0.682
				L226.148,519.669z"/>
			<path style="fill:#FFDE00;" d="M232.769,532.987l0.045-0.024c-0.955-1.85-1.891-3.707-2.825-5.57
				C230.92,529.256,231.824,531.136,232.769,532.987z"/>
			<path style="fill:#FFDE00;" d="M237.636,542.265c2.336,4.374,4.721,8.716,7.167,13.017l0.099-0.056
				c-2.453-4.295-4.852-8.63-7.201-12.998L237.636,542.265z"/>
			<path style="fill:#FFDE00;" d="M299.369,634.311c3.251,3.888,6.56,7.724,9.927,11.5l0.394-0.217
				c-3.378-3.77-6.702-7.595-9.972-11.474L299.369,634.311z"/>
			<path style="fill:#FFDE00;" d="M490.59,645.728c3.369-3.776,6.676-7.612,9.925-11.504l-0.224-0.123
				c-3.27,3.881-6.595,7.707-9.973,11.477L490.59,645.728z"/>
			<path style="fill:#FFDE00;" d="M226.08,289.618h28.41V214.64c-4.038,10.558-9.194,20.194-15.422,28.778v39.055L226.08,289.618z"
				/>
			<path style="fill:#FFDE00;" d="M264.83,289.618h28.408l-12.989-7.145V227.96l49.573-27.259l49.577,27.259v54.513l-12.991,7.145
				h28.41v-70.139l-61.29-33.7c-2.205-0.165-4.368-0.333-6.489-0.507l-62.211,34.206V289.618z"/>
			<path style="fill:#FFDE00;" d="M405.156,289.618h28.412l-12.989-7.145V227.96l49.573-27.259l49.575,27.259v54.513l-12.993,7.145
				h28.414v-70.139l-61.453-33.79c-2.752,0.228-5.48,0.421-8.211,0.618l-60.33,33.171V289.618z"/>
			<path style="fill:#FFDE00;" d="M573.894,289.618l-12.989-7.145v-39.081c-2.548-3.518-4.904-7.225-7.098-11.087
				c-0.25-0.432-0.504-0.856-0.747-1.289c-2.111-3.825-4.09-7.767-5.84-11.903c-0.073-0.161-0.163-0.303-0.228-0.461l-0.31-0.931
				c-0.42-1.024-0.798-2.081-1.196-3.122v75.019H573.894z"/>
			<path style="fill:#FFDE00;" d="M254.491,488.916h-15.422v23.646l-12.91,7.102c0.112,0.226,0.215,0.454,0.325,0.682
				c1.145,2.365,2.331,4.703,3.505,7.047c0.934,1.863,1.87,3.72,2.825,5.57l21.677-11.92V488.916z"/>
			<polygon style="fill:#FFDE00;" points="379.401,512.562 329.823,539.823 280.25,512.562 280.25,488.916 264.83,488.916 
				264.83,521.043 329.823,556.781 394.82,521.043 394.82,488.916 379.401,488.916 			"/>
			<polygon style="fill:#FFDE00;" points="519.728,512.562 470.152,539.823 420.579,512.562 420.579,488.916 405.156,488.916 
				405.156,521.043 470.152,556.781 535.149,521.043 535.149,488.916 519.728,488.916 			"/>
			<path style="fill:#FFDE00;" d="M545.485,521.043l21.593,11.873c2.257-4.409,4.469-8.845,6.625-13.317l-12.798-7.036v-23.646
				h-15.42V521.043z"/>
			<path style="fill:#FFDE00;" d="M324.685,565.872l-64.995-35.738l-21.989,12.094c2.349,4.368,4.747,8.703,7.201,12.998
				l14.788-8.133l49.573,27.259v54.517l-9.546,5.25c3.27,3.878,6.594,7.703,9.972,11.474l14.995-8.247V565.872z"/>
			<path style="fill:#FFDE00;" d="M335.023,565.872v71.474l64.997,35.738l64.993-35.738v-71.474l-64.993-35.738L335.023,565.872z
				 M449.591,628.87l-49.572,27.257l-49.575-27.257v-54.517l49.575-27.259l49.572,27.259V628.87z"/>
			<path style="fill:#FFDE00;" d="M540.345,530.134l-64.993,35.738v71.474l14.966,8.232c3.378-3.77,6.703-7.597,9.973-11.477
				l-9.519-5.231v-54.517l49.573-27.259l14.704,8.086c1.435-2.515,2.808-5.075,4.209-7.613c0.987-1.803,2.003-3.584,2.969-5.398
				L540.345,530.134z"/>
			<path style="fill:#FFDE00;" d="M555.064,555.185c1.433-2.515,2.802-5.073,4.194-7.619c-1.401,2.539-2.774,5.099-4.209,7.613
				L555.064,555.185z"/>
		</g>
	</g>
	<g>
		<path style="fill:#023C90;" d="M694.911,269.428c-11.722,0.693-29.343,1.091-45.992-1.009
			c-54.022-7.617-87.574-51.868-90.868-104.242c-0.009-0.101-0.028-0.194-0.034-0.293c-0.602-7.214-0.902-11.754-1.719-16.412
			c-1.143-6.541-5.145-7.258-8.11-3.496c-7.39,9.381-13.897,10.59-13.897,10.59s-1.197,0.344-4.547,0.889
			c-18.082,2.662-35.972,4.621-53.469,5.996c-0.005-11.169,2.975-23.922,10.226-40.147c3.167-7.085,5.134-14.7,5.259-22.46
			c0.047-2.967-0.144-5.577-0.45-7.81c-0.43-3.131-4.561-3.911-6.16-1.185c-8.262,14.092-22.536,15.121-22.843,15.218
			c3.432-17.705-2.012-46.199-18.078-54.687c-2.447-1.291-5.25,0.899-4.755,3.621c5.958,32.924-10.618,58.502-10.573,58.433v-0.002
			c-22.944,4.213-28.81,20.821-28.988,21.34h-0.006c-0.178-0.519-6.042-17.127-28.986-21.34v0.002
			c0.043,0.069-16.531-25.509-10.573-58.433c0.494-2.722-2.307-4.912-4.753-3.621c-16.068,8.488-21.514,36.982-18.082,54.687
			c-0.306-0.097-14.581-1.126-22.841-15.218c-1.599-2.726-5.73-1.946-6.158,1.185c-0.308,2.233-0.499,4.843-0.452,7.81
			c0.123,7.76,2.095,15.375,5.259,22.46c7.143,15.982,10.149,28.597,10.229,39.645c-24.115-1.93-43.992-4.377-58.104-6.394
			c-0.536-0.114-6.779-1.609-13.845-10.579c-2.965-3.763-6.965-3.045-8.11,3.496c-0.826,4.703-1.123,9.278-1.734,16.612
			c-1.833,29.457-13.241,56.348-32.469,75.613c-15.107,16.4-42.739,26.067-64.623,28.612h-0.003
			c-15.382,2.029-29.647,1.876-39.552,1.301c-4.426-0.256-6.731,5.168-3.462,8.163l41.197,37.724v161.661
			c0,6.494,5.263,11.759,11.757,11.759h32.668C228.734,593.339,297.265,686.051,399.9,750c0,0,0,0,0.002,0l0,0
			c102.635-63.949,171.17-156.661,212.629-261.084h32.867c6.491,0,11.755-5.265,11.755-11.759V315.311l41.196-37.72
			C701.613,274.605,699.328,269.166,694.911,269.428z M536.382,177.721c4.77,39.738,22.204,71.037,49.192,90.588h-35.856
			c-4.527,0-8.865,1.797-12.066,4.996l-9.639,9.639c-15.597-50.373-37.539-73.649-47.047-97.893
			C499.182,183.371,517.758,180.991,536.382,177.721z M263.42,177.721c0,0,21.316,3.802,55.61,6.881
			c-9.359,24.266-31.274,47.393-46.952,97.475l-8.777-8.774c-3.201-3.197-7.535-4.994-12.06-4.994h-37.011
			C241.218,248.758,258.648,217.459,263.42,177.721z M399.904,722.837L399.904,722.837h-0.002c-0.002,0-0.002,0-0.002,0l0,0
			c-84.482-53.79-147.526-137.997-187.689-233.921h58.463h133.209h102.114h25.027h56.569
			C547.432,584.84,484.388,669.047,399.904,722.837z"/>
	</g>
	<g>
		<path style="fill:#FFFFFF;" d="M249.536,289.726h-86.32h-16.698l17.843,16.335v114.277v48.775h15.491h19.283v-14.409v-64.193
			h38.782v78.602h34.772V321.658v-8.787l-6.949-6.946L249.536,289.726z M237.917,355.739h-38.782v-31.241h36.002l2.78,2.78V355.739z
			"/>
		<polygon style="fill:#FFFFFF;" points="324.508,364.84 327.286,362.06 380.676,362.06 380.676,327.288 312.875,327.288 
			289.735,350.442 289.735,415.235 347.793,415.235 347.793,434.339 289.735,434.339 289.735,469.113 382.564,469.113 
			382.564,380.463 324.508,380.463 		"/>
		<path style="fill:#FFFFFF;" d="M401.378,327.288v141.826h34.77v-53.878h38.785v53.878h34.771V350.437l-23.149-23.149H401.378z
			 M474.934,380.463h-38.785V362.06h36l2.786,2.784V380.463z"/>
		<path style="fill:#FFFFFF;" d="M636.779,289.726h-0.949h-0.196h-84.017c-6.833,6.832-11.5,11.498-17.135,17.135
			c-2.13,2.132-4.39,4.391-6.974,6.975v7.823v147.455h34.774V324.498h35.998l2.78,2.78v126.866v14.969h19.083h15.687v-49.471
			V312.875v-6.994l17.651-16.156H636.779z"/>
	</g>
	<g>
		<polygon style="fill:#023C90;" points="454.914,581.324 454.914,563.241 422.403,563.241 420.957,561.795 420.957,553.675 
			420.936,544.453 420.957,535.227 420.957,527.106 422.403,525.661 454.914,525.661 454.914,507.579 414.907,507.579 
			402.876,519.617 402.876,520.916 402.876,535.594 402.876,538.998 402.876,549.909 402.876,553.309 402.876,567.987 
			402.876,569.286 414.907,581.324 		"/>
		<polygon style="fill:#023C90;" points="362.559,555.703 388.26,555.703 388.26,537.624 362.587,537.624 362.593,535.227 
			362.593,527.104 364.035,525.661 396.548,525.661 396.548,507.579 356.543,507.579 344.511,519.617 344.511,553.309 
			344.511,563.241 344.511,581.324 362.518,581.324 		"/>
	</g>
	<g>
		<path style="fill:#023C90;" d="M379.447,652.557c0-3.916-2.452-5.949-7.623-5.949c-2.483,0-4.605,0.387-6.192,1.194l0.45,3.858
			c1.106-0.48,2.87-0.958,3.888-0.958c2.3,0,3.767,0.478,3.767,2.69c0,2.124-2.812,5.175-5.624,8.197l-2.72,2.959v3.169h13.813
			v-4.067h-6.844l1.375-1.467C374.903,660.929,379.447,656.443,379.447,652.557z"/>
		<path style="fill:#023C90;" d="M390.235,646.608c-4.605,0-8.942,2.958-8.942,10.644v0.658c0,7.266,3.92,10.195,8.79,10.195
			c4.667,0,9.032-2.631,9.032-10.437v-0.538C399.115,649.625,394.932,646.608,390.235,646.608z M393.376,657.818
			c0,4.514-0.99,6.28-3.229,6.28c-2.244,0-3.083-2.121-3.083-6.517v-0.628c0-4.456,0.898-6.341,3.111-6.341
			c2.124,0,3.2,2.005,3.2,6.55V657.818z"/>
		<path style="fill:#023C90;" d="M414.929,652.557c0-3.916-2.449-5.949-7.623-5.949c-2.481,0-4.604,0.387-6.19,1.194l0.448,3.858
			c1.106-0.48,2.868-0.958,3.888-0.958c2.3,0,3.767,0.478,3.767,2.69c0,2.124-2.812,5.175-5.622,8.197l-2.719,2.959v3.169h13.813
			v-4.067h-6.848l1.375-1.467C410.387,660.929,414.929,656.443,414.929,652.557z"/>
		<path style="fill:#023C90;" d="M425.719,646.608c-4.605,0-8.942,2.958-8.942,10.644v0.658c0,7.266,3.918,10.195,8.791,10.195
			c4.665,0,9.031-2.631,9.031-10.437v-0.538C434.599,649.625,430.414,646.608,425.719,646.608z M428.856,657.818
			c0,4.514-0.985,6.28-3.229,6.28c-2.24,0-3.077-2.121-3.077-6.517v-0.628c0-4.456,0.893-6.341,3.109-6.341
			c2.121,0,3.197,2.005,3.197,6.55V657.818z"/>
		<path style="fill:#023C90;" d="M314.951,635.639h26.484v-18.964c-7.913,0.727-16.72,1.158-26.484,1.158V635.639z"/>
		<path style="fill:#023C90;" d="M370.159,612.142c-7.315,1.725-16.103,3.275-26.501,4.322v19.175h26.501V612.142z"/>
		<path style="fill:#023C90;" d="M458.556,635.639h26.484v-17.805c-9.762,0-18.57-0.432-26.484-1.158V635.639z"/>
		<path style="fill:#023C90;" d="M429.831,635.639h26.505v-19.175c-10.399-1.046-19.186-2.597-26.505-4.322V635.639z"/>
		<path style="fill:#023C90;" d="M404.28,617.579h-3.171v18.06h26.499v-24.036c-11.913-2.988-19.618-6.377-23.329-8.544V617.579z"/>
		<path style="fill:#023C90;" d="M372.385,611.602v24.036h26.501v-18.06h-3.171v-14.521
			C392.003,605.226,384.299,608.615,372.385,611.602z"/>
		<path style="fill:#023C90;" d="M402.088,601.454c0-6.829-0.911-11.078-0.911-11.078s1.975-1.517,2.124-2.885h-6.61
			c0.153,1.368,2.126,2.885,2.126,2.885s-0.912,4.249-0.912,11.078v14.037h2.093h2.09V601.454z"/>
	</g>
	<g>
		<path style="fill:#F4CD11;" d="M288.6,300.069c0,0.669,0.034,1.289,0.071,1.906c0.012,0.207,0.015,0.426,0.034,0.628
			c0.051,0.645,0.125,1.254,0.22,1.837c0.03,0.192,0.071,0.374,0.109,0.559c0.207,1.076,0.489,2.046,0.852,2.9
			c0.043,0.103,0.078,0.213,0.121,0.312c0.207,0.447,0.437,0.86,0.688,1.243c0.067,0.103,0.144,0.196,0.215,0.295
			c0.521,0.725,1.123,1.33,1.822,1.805c0.037,0.024,0.069,0.056,0.104,0.082c0.362,0.235,0.757,0.432,1.164,0.602
			c0.914,0.379,1.941,0.6,3.09,0.652c0.491,0.025,1.005,0.017,1.54-0.017c0.237-0.017,0.489-0.052,0.736-0.08
			c0.447-0.051,0.89-0.091,1.366-0.183c4.273-0.809,6.42-1.192,10.693-1.91c0-2.537,0-3.819,0-6.367
			c-3.034,0.51-4.55,0.777-7.578,1.33c-5.392,0.988-8.083-0.745-8.083-5.325c0-1.141,0-2.212,0-3.21
			c0-4.708,2.691-7.604,8.083-8.563c3.029-0.553,4.544-0.82,7.578-1.329c0-2.586,0-3.879,0-6.465
			c-4.295,0.723-6.442,1.106-10.728,1.919c-7.653,1.446-11.627,6.844-12.045,15.855l0.03,0.03
			C288.658,299.077,288.6,299.544,288.6,300.069z"/>
		<path style="fill:#F4CD11;" d="M314.816,310.138c2.747-0.443,4.129-0.658,6.868-1.065c0-4.6,0-6.911,0-11.522
			c3.979-0.592,5.971-0.869,9.96-1.382c0,3.959,0,6.231,0,9.704h0.034c0,0.57,0,1.164,0,1.814c2.754-0.357,4.142-0.529,6.885-0.844
			c0-11.961,0-17.955,0-29.924c-2.769,0.319-4.154,0.489-6.919,0.846c0,4.777,0,7.165,0,11.939c-3.989,0.518-5.981,0.794-9.96,1.383
			c0-4.773,0-7.161,0-11.939c-2.763,0.411-4.142,0.624-6.902,1.071c0,10.459,0,16.356,0,25.655h0.034V310.138z"/>
		<path style="fill:#F4CD11;" d="M354.512,305.693c8.346-0.716,12.525-5.289,12.525-14.02c0-6.915,0-10.373,0-17.288
			c-2.903,0.179-4.353,0.28-7.257,0.499c0,6.915,0,10.373,0,17.29c0,4.294-1.756,6.564-5.269,6.866
			c-3.526,0.301-5.29-1.669-5.29-5.962c0-6.915,0-10.373,0-17.29c-2.917,0.28-4.374,0.43-7.289,0.749c0,6.915,0,10.373,0,17.288
			C341.934,302.556,346.123,306.412,354.512,305.693z"/>
		<path style="fill:#F4CD11;" d="M377.499,287.874c4.458,5.736,6.685,8.626,11.145,14.454c0.448,0.575,1.044,0.958,1.76,1.164
			c0.732,0.207,1.467,0.2,2.188-0.035c0.734-0.239,1.325-0.66,1.76-1.241c0.445-0.59,0.678-1.248,0.678-1.975
			c0-10.726,0-16.089,0-26.811c-2.834,0.026-4.252,0.049-7.087,0.112c0,6.274,0,9.411,0,15.685
			c-4.447-5.814-6.672-8.697-11.119-14.418c-0.467-0.564-1.067-0.934-1.784-1.117c-0.732-0.187-1.463-0.157-2.186,0.106
			c-0.721,0.265-1.313,0.704-1.758,1.313c-0.45,0.617-0.676,1.291-0.676,2.007c0,10.818,0,16.227,0,27.044
			c2.832-0.157,4.247-0.226,7.079-0.347C377.499,297.44,377.499,294.251,377.499,287.874z"/>
		<path style="fill:#F4CD11;" d="M410.686,303.426c4.243,0.086,6.364,0.148,10.607,0.32c0-5.803,0-8.705,0-14.509
			c-2.861-0.112-4.294-0.161-7.152-0.236c0,3.242,0,4.863,0,8.109c-0.236-0.008-0.353-0.01-0.589-0.017
			c-5.233-0.133-7.851-2.431-7.851-7.01c0-1.281,0-1.926,0-3.208c0-4.68,2.72-7.01,8.17-6.87c2.965,0.078,4.452,0.127,7.421,0.246
			c0-2.584,0-3.879,0-6.463c-4.243-0.17-6.364-0.233-10.607-0.319c-8.182-0.164-12.273,4.89-12.273,14.874
			C398.413,298.33,402.505,303.262,410.686,303.426z"/>
		<path style="fill:#F4CD11;" d="M431.754,288.347c4.454,6.188,6.677,9.307,11.13,15.59c0.45,0.621,1.04,1.065,1.754,1.342
			c0.736,0.284,1.467,0.351,2.188,0.189c0.731-0.165,1.319-0.527,1.754-1.061c0.441-0.544,0.676-1.179,0.676-1.906
			c0-10.727,0-16.089,0-26.813c-2.829-0.261-4.243-0.383-7.073-0.609c0,6.274,0,9.411,0,15.685
			c-4.439-6.267-6.661-9.377-11.106-15.551c-0.467-0.613-1.067-1.042-1.784-1.3c-0.73-0.262-1.463-0.308-2.182-0.116
			c-0.727,0.191-1.314,0.57-1.762,1.132c-0.45,0.572-0.675,1.224-0.675,1.937c0,10.82,0,16.229,0,27.047
			c2.83,0.133,4.247,0.207,7.079,0.375C431.754,297.911,431.754,294.724,431.754,288.347z"/>
		<path style="fill:#F4CD11;" d="M458.741,306.505c0.708-1.672,1.071-2.528,1.78-4.209c4.167,0.475,6.244,0.732,10.401,1.291
			c0.353,0.91,0.616,1.601,0.88,2.285h0.052c0.274,0.719,0.553,1.437,0.923,2.397c2.868,0.396,4.32,0.605,7.167,1.035
			c-4.49-11.965-6.741-17.94-11.244-29.827c-0.256-0.59-0.669-1.1-1.235-1.506c-0.562-0.404-1.177-0.641-1.822-0.721
			c-0.656-0.082-1.263,0.004-1.795,0.273c-0.538,0.269-0.944,0.678-1.213,1.201c-4.449,10.781-6.676,16.195-11.132,27.069
			c0.297,0.03,0.533,0.052,0.802,0.078h0.417C454.871,306.083,456.291,306.235,458.741,306.505z M465.67,290.07
			c1.041,2.672,1.56,4.008,2.603,6.685c-2.064-0.267-3.097-0.394-5.164-0.641C464.131,293.694,464.645,292.486,465.67,290.07z"/>
		<path style="fill:#F4CD11;" d="M483.358,309.833c2.765,0.437,4.157,0.667,6.9,1.138c0-5.499,0-8.265,0-13.781
			c1.53,3.503,2.36,5.403,3.78,8.682h0.056c0.103,0.243,0.207,0.474,0.319,0.734c0.293,0.581,0.729,1.08,1.294,1.495
			c0.562,0.419,1.17,0.686,1.811,0.805c0.347,0.065,0.68,0.077,0.998,0.051l0.023,0.026c0.267-0.028,0.529-0.077,0.773-0.168
			c0.561-0.209,0.988-0.553,1.271-1.043c1.582-3.075,2.371-4.611,3.95-7.679c0,5.427,0,8.14,0,13.566
			c0.579,0.116,1.074,0.215,1.558,0.312v-0.043c1.84,0.37,3.172,0.646,5.349,1.112c0-10.764,0-16.161,0-26.938
			c0-0.729-0.252-1.431-0.757-2.108c-0.504-0.678-1.147-1.172-1.915-1.493c-0.784-0.329-1.861-0.547-2.943-0.388
			c-0.682,0.099-1.265,0.536-1.605,1.112c-2.694,4.882-4.041,7.331-6.739,12.249c-2.762-5.999-4.14-8.989-6.907-14.951
			c-0.357-0.704-0.928-1.353-1.633-1.713c-1.073-0.546-2.162-0.734-2.931-0.701c-0.787,0.038-1.435,0.327-1.926,0.804
			c-0.492,0.474-0.764,1.076-0.764,1.805c0,9.441,0,14.786,0,23.155h0.039V309.833z"/>
	</g>
	<g>
		<path style="fill:#F4CD11;" d="M405.363,164.207c-1.353-0.8-3.092-1.334-5.355-1.334c-2.214,0-3.922,0.516-5.258,1.286
			c-4.286,2.47-4.637,7.66-4.637,7.66c0.697,6.922,2.189,12.391,3.81,16.576c2.845,7.364,6.085,10.712,6.085,10.712
			s3.221-3.33,6.061-10.648c1.629-4.194,3.135-9.685,3.832-16.64C409.901,171.819,409.563,166.699,405.363,164.207z"/>
		<path style="fill:#FFFFFF;" d="M426.633,205.92l37.733,34.987c-2.218-5.872-4.295-10.852-6.1-14.643
			c-7.722-16.221-14.801-27.715-21.552-38.387c-3.776-5.97-7.451-11.687-11.074-17.822l-0.005-0.01l0.011,0.008l0,0v-0.006
			c0.065,0.032,6.933,3.376,13.861,3.389c3.15,0.003,6.313-0.68,8.85-2.679c2.988-2.347,4.69-5.03,5.581-7.836
			c1.549-4.861,0.651-10.095-0.334-14.614c-1.545-7.089,3.826-13.471,3.885-13.538c-0.2,0.056-14.033,3.968-22.133,11.044
			c-4.852,4.241-10.792,10.883-14.977,18.265c-2.857,5.026-4.906,10.392-5.218,15.59c-0.194,3.146-0.719,6.04-1.512,8.744
			c-2.444,8.32-7.483,14.783-13.637,20.834h-0.008c-6.18-6.078-11.206-12.595-13.634-20.967c-0.138-0.467-0.297-0.916-0.415-1.392
			c-0.198-0.798-0.377-1.607-0.525-2.438c-0.011-0.052-0.024-0.103-0.034-0.155c-0.047-0.275-0.078-0.561-0.121-0.837
			c-0.191-1.228-0.338-2.481-0.419-3.789c-0.099-1.603-0.357-3.223-0.755-4.847c-0.91-3.701-2.556-7.401-4.581-10.934
			c-2.855-4.983-6.48-9.626-10.035-13.402c-1.106-1.175-2.203-2.264-3.266-3.258c-0.531-0.495-1.052-0.968-1.56-1.415
			c-1.016-0.887-2.122-1.723-3.279-2.509c-2.896-1.968-6.115-3.614-9.064-4.92c-4.125-1.827-7.72-2.987-9.146-3.423
			c-0.409-0.123-0.641-0.189-0.656-0.194c0.007,0.01,0.099,0.116,0.246,0.312c0.598,0.779,2.141,2.959,3.102,5.846
			c0.723,2.165,1.117,4.723,0.536,7.382c-0.68,3.12-1.321,6.58-1.149,10.02c0.075,1.398,0.293,2.791,0.688,4.159
			c0.019,0.077,0.028,0.155,0.052,0.23c0.146,0.48,0.314,0.957,0.512,1.429c0.973,2.362,2.593,4.609,5.142,6.612
			c2.541,1.999,5.706,2.683,8.856,2.679c2.519-0.004,5.031-0.45,7.215-1.017c1.087-0.282,2.095-0.596,2.978-0.9
			c2.211-0.76,3.647-1.459,3.679-1.474l-0.004,0.004l-0.004,0.006c-3.559,6.025-7.169,11.647-10.874,17.503
			c-6.81,10.762-13.953,22.323-21.751,38.707c-0.677,1.422-1.392,3.01-2.139,4.751c-0.747,1.741-1.525,3.632-2.328,5.659
			c-0.533,1.351-1.078,2.763-1.633,4.23l37.733-34.985l-10.27,52.249l36.9-38.909l0,0l0,0l36.897,38.909L426.633,205.92z"/>
	</g>
</g>
</svg>
