<?xml version="1.0" encoding="utf-8"?>
<!-- Created by @FCLOGO 2024-10-25 GMT+8 11:25:41 . https://fclogo.top/ -->
<!-- FOR PERSONAL USE ONLY NOT FOR COMMERCIAL USE -->
<svg version="1.1" xmlns="http://www.w3.org/2000/svg" xmlns:xlink="http://www.w3.org/1999/xlink" x="0px" y="0px"
	 viewBox="0 0 800 800" style="enable-background:new 0 0 800 800;" xml:space="preserve">
<path style="fill:#CCCCCC;" d="M348.22,774.3c-0.79,0-1.38-0.22-1.77-0.65c-0.39-0.44-0.53-1.03-0.41-1.79l0.25-1.65
	c0.12-0.75,0.45-1.35,0.98-1.78c0.53-0.44,1.19-0.65,1.98-0.65c0.76,0,1.33,0.2,1.72,0.6c0.39,0.4,0.55,0.94,0.47,1.62h-1.24
	c0.03-0.36-0.06-0.64-0.26-0.84c-0.2-0.2-0.5-0.3-0.89-0.3c-0.42,0-0.76,0.12-1.03,0.35c-0.27,0.23-0.43,0.56-0.5,0.99l-0.26,1.66
	c-0.07,0.44-0.01,0.77,0.19,1c0.19,0.23,0.5,0.35,0.92,0.35c0.39,0,0.72-0.1,0.98-0.3c0.26-0.2,0.44-0.48,0.52-0.85h1.24
	c-0.14,0.69-0.47,1.23-0.99,1.63C349.61,774.1,348.97,774.3,348.22,774.3z M352.8,774.19l1-6.29h1.19l-0.19,1.19
	c0.34-0.87,0.97-1.3,1.91-1.3c0.67,0,1.17,0.21,1.49,0.62c0.32,0.42,0.43,0.99,0.31,1.71l-0.07,0.42h-1.27l0.06-0.32
	c0.07-0.45,0.01-0.8-0.17-1.04c-0.18-0.24-0.48-0.36-0.88-0.36c-0.4,0-0.74,0.12-1.01,0.37c-0.27,0.24-0.43,0.59-0.5,1.03
	l-0.63,3.97H352.8z M361.91,774.3c-0.77,0-1.35-0.22-1.73-0.67c-0.38-0.45-0.51-1.04-0.4-1.77l0.25-1.65
	c0.08-0.49,0.26-0.92,0.52-1.28c0.26-0.37,0.6-0.65,1.01-0.85c0.41-0.2,0.87-0.3,1.38-0.3c0.77,0,1.35,0.22,1.73,0.67
	c0.39,0.45,0.52,1.04,0.39,1.77l-0.17,1.12h-3.85l-0.09,0.53c-0.15,0.95,0.22,1.43,1.11,1.43c0.72,0,1.17-0.25,1.37-0.74h1.22
	c-0.17,0.53-0.5,0.96-1.01,1.28C363.16,774.14,362.58,774.3,361.91,774.3z M361.23,770.22l-0.05,0.29l2.65-0.01l0.05-0.29
	c0.07-0.47,0.01-0.82-0.17-1.07c-0.18-0.25-0.49-0.37-0.92-0.37c-0.44,0-0.8,0.13-1.06,0.38
	C361.48,769.39,361.31,769.75,361.23,770.22z M368.33,774.3c-0.63,0-1.1-0.21-1.41-0.64c-0.31-0.42-0.4-1-0.27-1.73l0.27-1.77
	c0.11-0.73,0.39-1.31,0.84-1.74c0.44-0.43,0.98-0.64,1.61-0.64c0.47,0,0.83,0.12,1.09,0.35c0.26,0.24,0.39,0.56,0.38,0.96h0.02
	l0.17-1.2h1.24l-1,6.29h-1.22l0.19-1.2h-0.02c-0.12,0.41-0.35,0.73-0.69,0.97C369.2,774.18,368.8,774.3,368.33,774.3z
	 M368.93,773.23c0.39,0,0.72-0.12,0.98-0.36c0.26-0.24,0.43-0.57,0.5-1.01l0.25-1.65c0.07-0.43,0.01-0.76-0.18-1
	c-0.19-0.24-0.47-0.36-0.86-0.36c-0.4,0-0.72,0.12-0.98,0.35c-0.26,0.24-0.42,0.57-0.49,1.01l-0.25,1.65
	c-0.07,0.44-0.01,0.78,0.17,1.01C368.24,773.11,368.53,773.23,368.93,773.23z M376.35,774.19c-0.57,0-0.99-0.16-1.26-0.47
	c-0.27-0.31-0.36-0.75-0.27-1.32l0.54-3.39h-1.74l0.17-1.12h1.74l0.27-1.72h1.24l-0.27,1.72h2.47l-0.18,1.12h-2.46l-0.54,3.39
	c-0.08,0.44,0.1,0.66,0.53,0.66h1.72l-0.17,1.12H376.35z M382.5,774.3c-0.77,0-1.35-0.22-1.73-0.67c-0.38-0.45-0.52-1.04-0.4-1.77
	l0.25-1.65c0.08-0.49,0.26-0.92,0.52-1.28c0.26-0.37,0.6-0.65,1.01-0.85c0.41-0.2,0.87-0.3,1.38-0.3c0.77,0,1.35,0.22,1.73,0.67
	c0.39,0.45,0.52,1.04,0.39,1.77l-0.17,1.12h-3.85l-0.09,0.53c-0.15,0.95,0.22,1.43,1.11,1.43c0.72,0,1.17-0.25,1.37-0.74h1.22
	c-0.17,0.53-0.5,0.96-1.01,1.28C383.76,774.14,383.18,774.3,382.5,774.3z M381.83,770.22l-0.05,0.29l2.65-0.01l0.05-0.29
	c0.07-0.47,0.01-0.82-0.17-1.07c-0.18-0.25-0.49-0.37-0.92-0.37c-0.44,0-0.8,0.13-1.06,0.38
	C382.08,769.39,381.91,769.75,381.83,770.22z M388.92,774.3c-0.63,0-1.1-0.21-1.4-0.64c-0.3-0.42-0.39-1-0.28-1.73l0.27-1.77
	c0.11-0.73,0.39-1.31,0.84-1.74c0.44-0.43,0.98-0.64,1.61-0.64c0.47,0,0.83,0.12,1.09,0.35c0.26,0.24,0.39,0.56,0.38,0.96h0.02
	l0.21-1.47l0.3-1.8h1.24l-1.33,8.35h-1.22l0.19-1.2h-0.02c-0.12,0.41-0.35,0.73-0.69,0.97C389.8,774.18,389.4,774.3,388.92,774.3z
	 M389.53,773.23c0.39,0,0.72-0.12,0.98-0.36c0.26-0.24,0.43-0.57,0.5-1.01l0.25-1.65c0.08-0.43,0.02-0.76-0.17-1
	c-0.19-0.24-0.48-0.36-0.87-0.36c-0.4,0-0.72,0.12-0.98,0.35c-0.26,0.24-0.42,0.57-0.49,1.01l-0.25,1.65
	c-0.08,0.44-0.02,0.78,0.16,1.01C388.83,773.11,389.13,773.23,389.53,773.23z M401.02,774.3c-0.47,0-0.84-0.12-1.1-0.35
	c-0.26-0.23-0.39-0.56-0.38-0.97h-0.01l-0.19,1.2h-1.22l1.33-8.35h1.24l-0.29,1.8l-0.27,1.47h0.05c0.12-0.41,0.35-0.73,0.69-0.97
	c0.34-0.23,0.74-0.35,1.21-0.35c0.63,0,1.1,0.21,1.4,0.64c0.3,0.43,0.39,1.01,0.28,1.74l-0.27,1.77c-0.11,0.73-0.39,1.31-0.84,1.73
	C402.18,774.09,401.64,774.3,401.02,774.3z M400.77,773.23c0.4,0,0.72-0.12,0.98-0.35c0.26-0.23,0.42-0.57,0.5-1.01l0.25-1.65
	c0.07-0.43,0.01-0.77-0.17-1.01c-0.18-0.24-0.47-0.35-0.87-0.35c-0.39,0-0.72,0.12-0.98,0.36c-0.26,0.24-0.43,0.57-0.5,1l-0.25,1.65
	c-0.07,0.44-0.01,0.77,0.17,1.01C400.08,773.11,400.37,773.23,400.77,773.23z M405.47,776.25l0.17-1.06h1.93
	c0.64,0,1.01-0.3,1.1-0.9l0.1-0.67l0.21-1.19h-0.03c-0.12,0.42-0.35,0.74-0.68,0.97c-0.33,0.23-0.73,0.34-1.2,0.34
	c-0.63,0-1.09-0.2-1.4-0.6c-0.31-0.4-0.41-0.94-0.3-1.63l0.58-3.6h1.24l-0.56,3.48c-0.06,0.41,0,0.73,0.18,0.96
	c0.18,0.23,0.47,0.34,0.85,0.34c0.39,0,0.72-0.12,0.98-0.37c0.27-0.24,0.43-0.58,0.49-1.02l0.54-3.4h1.24l-1.01,6.41
	c-0.1,0.6-0.37,1.08-0.81,1.42c-0.44,0.35-1,0.52-1.67,0.52H405.47z M417.79,770.09h3.22l0.54-1.85h-5.47l-1.71,6.44h2.15l0.59-2.1
	h3.03l0.44-1.71h-3.03L417.79,770.09z M424.23,772.92c-0.59,0-1.02-0.39-1.02-1.12c0-0.88,0.63-1.76,1.61-1.76
	c0.49,0,0.88,0.24,1.02,0.78l1.95-0.83c-0.29-1.17-1.27-1.9-2.64-1.9c-2.78,0-4.15,2.15-4.15,3.9c0,1.76,1.27,2.83,3.07,2.83
	c1.37,0,2.34-0.59,2.98-1.42l-1.51-1.17C425.16,772.67,424.72,772.92,424.23,772.92z M430.91,768.23h-2.15l-1.76,6.44h5.12
	l0.49-1.85h-2.93L430.91,768.23z M439.75,771.01c0-1.66-1.32-2.93-3.22-2.93c-2.2,0-3.81,1.81-3.81,3.81c0,1.66,1.32,2.93,3.22,2.93
	C438.14,774.82,439.75,773.01,439.75,771.01z M434.92,771.7c0-0.83,0.59-1.71,1.51-1.71c0.78,0,1.17,0.54,1.17,1.22
	c0,0.83-0.59,1.71-1.51,1.71C435.31,772.92,434.92,772.38,434.92,771.7z M443.21,772.23h1.07l-0.2,0.68
	c-0.15,0.05-0.34,0.1-0.59,0.1c-0.68,0-1.27-0.39-1.27-1.22c0-1.02,0.73-1.9,1.95-1.9c0.59,0,1.12,0.24,1.51,0.59l1.37-1.37
	c-0.44-0.54-1.51-1.07-2.73-1.07c-2.59,0-4.29,1.76-4.29,3.86c0,2.05,1.61,2.88,3.22,2.88c0.93,0,1.85-0.29,2.49-0.68l0.93-3.32
	h-3.12L443.21,772.23z M450.78,768.08c-2.2,0-3.81,1.81-3.81,3.81c0,1.66,1.32,2.93,3.22,2.93c2.2,0,3.81-1.81,3.81-3.81
	C454,769.35,452.68,768.08,450.78,768.08z M450.34,772.92c-0.78,0-1.17-0.54-1.17-1.22c0-0.83,0.59-1.71,1.51-1.71
	c0.78,0,1.17,0.54,1.17,1.22C451.85,772.04,451.27,772.92,450.34,772.92z M437.94,767.5c-0.05,0.29,0.1,0.49,0.44,0.49
	s0.54-0.2,0.63-0.49c0.05-0.24-0.1-0.49-0.44-0.49C438.24,767.01,437.99,767.25,437.94,767.5z M432.13,765.5
	c-0.44,0-0.73,0.24-0.78,0.59c-0.05,0.34,0.1,0.59,0.54,0.59s0.73-0.24,0.78-0.59C432.77,765.74,432.57,765.5,432.13,765.5z
	 M433.01,767.3c-0.1,0.54,0.15,0.88,0.83,0.88c0.63,0,1.07-0.39,1.17-0.88s-0.15-0.88-0.83-0.88
	C433.5,766.43,433.11,766.82,433.01,767.3z M439.6,777.55l-2.44-1.81h-1.51l4.25,3.17l1.61-3.17h-0.98L439.6,777.55z M425.84,767.16
	l-2-1.46l23.13-2.78l-2.15,4.25h1.02l2.68-5.32l-26.99,3.22l2.78,2.1H425.84z M338.72,785.79l0.61-3.83h2.32l-0.08,0.52h-1.76
	l-0.18,1.14h1.63l-0.08,0.52h-1.62l-0.26,1.64H338.72z M342.97,785.84c-0.36,0-0.62-0.1-0.8-0.3c-0.17-0.2-0.23-0.47-0.18-0.82
	l0.27-1.7c0.06-0.34,0.2-0.61,0.44-0.82c0.24-0.2,0.54-0.3,0.89-0.3c0.36,0,0.62,0.1,0.8,0.3c0.17,0.2,0.24,0.47,0.18,0.81
	l-0.27,1.71c-0.06,0.34-0.2,0.62-0.44,0.82C343.63,785.74,343.33,785.84,342.97,785.84z M343.05,785.33c0.19,0,0.35-0.05,0.47-0.16
	c0.12-0.11,0.19-0.26,0.23-0.46l0.27-1.7c0.03-0.2,0.01-0.35-0.08-0.46c-0.08-0.11-0.22-0.16-0.41-0.16s-0.35,0.05-0.46,0.16
	c-0.12,0.1-0.19,0.26-0.22,0.46l-0.27,1.7c-0.03,0.2-0.01,0.35,0.08,0.46C342.72,785.28,342.86,785.33,343.05,785.33z M345,785.79
	l0.61-3.83h1.2c0.24,0,0.44,0.05,0.6,0.14c0.16,0.09,0.28,0.22,0.36,0.39c0.07,0.17,0.09,0.37,0.05,0.59
	c-0.04,0.26-0.14,0.48-0.3,0.67c-0.16,0.19-0.37,0.32-0.6,0.39l0.54,1.64h-0.62l-0.48-1.57h-0.54l-0.25,1.57H345z M345.89,783.71
	h0.64c0.19,0,0.35-0.06,0.48-0.17c0.13-0.11,0.21-0.26,0.24-0.45c0.03-0.19,0-0.35-0.09-0.46c-0.09-0.11-0.24-0.17-0.43-0.17h-0.64
	L345.89,783.71z M349.54,785.79l0.61-3.83h1.25c0.37,0,0.65,0.1,0.84,0.31c0.19,0.21,0.26,0.49,0.2,0.84
	c-0.04,0.23-0.12,0.44-0.25,0.61s-0.29,0.31-0.49,0.4c-0.2,0.09-0.42,0.14-0.66,0.14h-0.69l-0.24,1.52H349.54z M350.43,783.75h0.69
	c0.19,0,0.36-0.06,0.49-0.18c0.14-0.12,0.22-0.27,0.25-0.47c0.03-0.2,0-0.35-0.1-0.47c-0.1-0.12-0.25-0.18-0.44-0.18h-0.69
	L350.43,783.75z M352.75,785.79l0.61-3.83h2.25l-0.08,0.5h-1.7l-0.17,1.09h1.51l-0.08,0.5h-1.51l-0.19,1.24h1.69l-0.08,0.5H352.75z
	 M355.84,785.79l0.61-3.83h1.2c0.24,0,0.44,0.05,0.6,0.14c0.16,0.09,0.28,0.22,0.36,0.39c0.07,0.17,0.09,0.37,0.05,0.59
	c-0.04,0.26-0.14,0.48-0.3,0.67c-0.16,0.19-0.37,0.32-0.6,0.39l0.54,1.64h-0.62l-0.48-1.57h-0.54l-0.25,1.57H355.84z M356.74,783.71
	h0.64c0.19,0,0.35-0.06,0.48-0.17c0.13-0.11,0.21-0.26,0.24-0.45c0.03-0.19,0-0.35-0.09-0.46c-0.09-0.11-0.24-0.17-0.43-0.17h-0.64
	L356.74,783.71z M360.13,785.84c-0.39,0-0.67-0.1-0.87-0.29c-0.19-0.19-0.26-0.45-0.22-0.78h0.57c-0.03,0.17,0.01,0.31,0.12,0.41
	c0.11,0.1,0.27,0.15,0.48,0.15c0.2,0,0.37-0.05,0.5-0.15c0.13-0.1,0.21-0.23,0.24-0.4c0.02-0.15,0-0.28-0.06-0.39
	c-0.06-0.11-0.16-0.18-0.29-0.22l-0.46-0.14c-0.27-0.08-0.46-0.22-0.59-0.41c-0.13-0.19-0.17-0.42-0.13-0.68
	c0.04-0.21,0.11-0.39,0.23-0.55c0.12-0.16,0.27-0.28,0.46-0.37c0.19-0.09,0.4-0.13,0.64-0.13c0.35,0,0.62,0.1,0.8,0.29
	c0.18,0.19,0.25,0.44,0.2,0.76h-0.57c0.03-0.17,0-0.3-0.09-0.4c-0.09-0.1-0.23-0.14-0.42-0.14c-0.19,0-0.34,0.04-0.46,0.13
	c-0.12,0.09-0.19,0.21-0.21,0.38c-0.02,0.15-0.01,0.28,0.05,0.39c0.06,0.11,0.16,0.18,0.29,0.22l0.47,0.15
	c0.26,0.08,0.46,0.22,0.58,0.41c0.12,0.19,0.17,0.42,0.12,0.69c-0.04,0.22-0.12,0.41-0.24,0.57c-0.13,0.16-0.29,0.29-0.49,0.38
	C360.6,785.79,360.38,785.84,360.13,785.84z M363.27,785.84c-0.36,0-0.62-0.1-0.8-0.3c-0.17-0.2-0.23-0.47-0.18-0.82l0.27-1.7
	c0.06-0.34,0.2-0.61,0.44-0.82c0.24-0.2,0.54-0.3,0.89-0.3c0.36,0,0.62,0.1,0.8,0.3c0.17,0.2,0.24,0.47,0.18,0.81l-0.27,1.71
	c-0.06,0.34-0.2,0.62-0.44,0.82C363.92,785.74,363.62,785.84,363.27,785.84z M363.34,785.33c0.19,0,0.35-0.05,0.47-0.16
	c0.12-0.11,0.19-0.26,0.23-0.46l0.27-1.7c0.03-0.2,0.01-0.35-0.08-0.46c-0.08-0.11-0.22-0.16-0.41-0.16c-0.19,0-0.35,0.05-0.46,0.16
	c-0.12,0.1-0.19,0.26-0.22,0.46l-0.27,1.7c-0.03,0.2-0.01,0.35,0.08,0.46C363.02,785.28,363.15,785.33,363.34,785.33z
	 M365.28,785.79l0.61-3.83h0.71l0.62,3.19c0.01-0.1,0.02-0.22,0.03-0.36c0.01-0.14,0.03-0.29,0.04-0.44
	c0.02-0.15,0.04-0.29,0.06-0.41l0.31-1.98h0.52l-0.61,3.83h-0.71l-0.61-3.19c-0.01,0.09-0.02,0.21-0.03,0.34s-0.03,0.28-0.04,0.42
	c-0.02,0.15-0.04,0.28-0.06,0.41l-0.31,2.01H365.28z M368.23,785.79l1.59-3.83h0.75l0.37,3.83h-0.56l-0.07-0.97h-1.09l-0.39,0.97
	H368.23z M369.39,784.34h0.87l-0.09-1.1c-0.02-0.2-0.03-0.37-0.04-0.51c-0.01-0.14-0.01-0.24-0.01-0.3c-0.02,0.06-0.05,0.16-0.1,0.3
	c-0.05,0.14-0.11,0.31-0.19,0.5L369.39,784.34z M371.72,785.79l0.61-3.83h0.57l-0.52,3.31h1.67l-0.08,0.52H371.72z M376.68,785.84
	c-0.37,0-0.63-0.1-0.8-0.3c-0.17-0.2-0.22-0.48-0.17-0.82l0.44-2.76h0.57l-0.44,2.76c-0.03,0.2-0.01,0.35,0.07,0.46
	c0.08,0.11,0.21,0.17,0.41,0.17c0.19,0,0.35-0.06,0.46-0.17c0.12-0.11,0.19-0.27,0.22-0.46l0.44-2.76h0.57l-0.44,2.76
	c-0.06,0.35-0.2,0.62-0.43,0.82C377.35,785.74,377.05,785.84,376.68,785.84z M379.84,785.84c-0.39,0-0.67-0.1-0.87-0.29
	c-0.19-0.19-0.26-0.45-0.22-0.78h0.57c-0.03,0.17,0.01,0.31,0.12,0.41c0.11,0.1,0.27,0.15,0.48,0.15c0.2,0,0.37-0.05,0.5-0.15
	c0.13-0.1,0.21-0.23,0.24-0.4c0.02-0.15,0-0.28-0.06-0.39c-0.06-0.11-0.16-0.18-0.29-0.22l-0.46-0.14
	c-0.27-0.08-0.46-0.22-0.59-0.41c-0.13-0.19-0.17-0.42-0.13-0.68c0.04-0.21,0.11-0.39,0.23-0.55s0.27-0.28,0.46-0.37
	c0.19-0.09,0.4-0.13,0.64-0.13c0.35,0,0.62,0.1,0.8,0.29c0.18,0.19,0.25,0.44,0.2,0.76h-0.57c0.03-0.17,0-0.3-0.09-0.4
	c-0.09-0.1-0.23-0.14-0.42-0.14c-0.19,0-0.34,0.04-0.46,0.13c-0.12,0.09-0.19,0.21-0.21,0.38c-0.02,0.15-0.01,0.28,0.05,0.39
	c0.06,0.11,0.16,0.18,0.29,0.22l0.47,0.15c0.26,0.08,0.46,0.22,0.58,0.41c0.12,0.19,0.17,0.42,0.12,0.69
	c-0.04,0.22-0.12,0.41-0.24,0.57c-0.13,0.16-0.29,0.29-0.49,0.38C380.31,785.79,380.09,785.84,379.84,785.84z M381.91,785.79
	l0.61-3.83h2.25l-0.08,0.5h-1.7l-0.17,1.09h1.51l-0.08,0.5h-1.51l-0.19,1.24h1.69l-0.08,0.5H381.91z M386.94,785.84
	c-0.36,0-0.62-0.1-0.8-0.3c-0.17-0.2-0.23-0.47-0.18-0.82l0.27-1.7c0.06-0.34,0.2-0.61,0.44-0.82c0.24-0.2,0.54-0.3,0.89-0.3
	c0.36,0,0.62,0.1,0.8,0.3c0.17,0.2,0.24,0.47,0.18,0.81l-0.27,1.71c-0.06,0.34-0.2,0.62-0.44,0.82
	C387.6,785.74,387.3,785.84,386.94,785.84z M387.02,785.33c0.19,0,0.35-0.05,0.47-0.16c0.12-0.11,0.19-0.26,0.23-0.46l0.27-1.7
	c0.03-0.2,0.01-0.35-0.08-0.46c-0.08-0.11-0.22-0.16-0.41-0.16c-0.19,0-0.35,0.05-0.46,0.16c-0.12,0.1-0.19,0.26-0.22,0.46
	l-0.27,1.7c-0.03,0.2-0.01,0.35,0.08,0.46C386.7,785.28,386.83,785.33,387.02,785.33z M388.95,785.79l0.61-3.83h0.71l0.62,3.19
	c0.01-0.1,0.02-0.22,0.03-0.36c0.01-0.14,0.03-0.29,0.04-0.44c0.02-0.15,0.04-0.29,0.06-0.41l0.31-1.98h0.52l-0.61,3.83h-0.71
	l-0.61-3.19c-0.01,0.09-0.02,0.21-0.03,0.34c-0.01,0.13-0.03,0.28-0.04,0.42c-0.02,0.15-0.04,0.28-0.06,0.41l-0.31,2.01H388.95z
	 M392.25,785.79l0.61-3.83h0.57l-0.52,3.31h1.67l-0.08,0.52H392.25z M396.12,785.79l0.22-1.41l-0.75-2.42h0.58l0.45,1.45
	c0.03,0.09,0.05,0.18,0.07,0.27c0.02,0.08,0.03,0.15,0.03,0.19c0.02-0.04,0.05-0.1,0.09-0.19c0.04-0.08,0.09-0.17,0.14-0.27
	l0.9-1.45h0.6l-1.53,2.42l-0.22,1.41H396.12z M399.22,785.79l0.61-3.83h0.71l0.62,3.19c0.01-0.1,0.02-0.22,0.03-0.36
	c0.01-0.14,0.03-0.29,0.04-0.44c0.02-0.15,0.04-0.29,0.06-0.41l0.31-1.98h0.52l-0.61,3.83h-0.71l-0.61-3.19
	c-0.01,0.09-0.02,0.21-0.03,0.34c-0.01,0.13-0.03,0.28-0.04,0.42c-0.02,0.15-0.04,0.28-0.06,0.41l-0.31,2.01H399.22z M403.51,785.84
	c-0.36,0-0.62-0.1-0.8-0.3c-0.18-0.2-0.23-0.47-0.18-0.82l0.27-1.7c0.06-0.34,0.2-0.61,0.44-0.82c0.24-0.2,0.54-0.3,0.89-0.3
	c0.36,0,0.62,0.1,0.8,0.3c0.17,0.2,0.24,0.47,0.18,0.81l-0.27,1.71c-0.06,0.34-0.2,0.62-0.44,0.82
	C404.16,785.74,403.86,785.84,403.51,785.84z M403.58,785.33c0.19,0,0.35-0.05,0.47-0.16c0.12-0.11,0.19-0.26,0.23-0.46l0.27-1.7
	c0.03-0.2,0.01-0.35-0.08-0.46c-0.08-0.11-0.22-0.16-0.41-0.16c-0.19,0-0.35,0.05-0.46,0.16c-0.12,0.1-0.19,0.26-0.22,0.46
	l-0.27,1.7c-0.03,0.2-0.01,0.35,0.08,0.46C403.26,785.28,403.4,785.33,403.58,785.33z M406.38,785.79l0.52-3.31h-1.02l0.08-0.52
	h2.62l-0.08,0.52h-1.03l-0.52,3.31H406.38z M409.52,785.79l0.61-3.83h2.32l-0.08,0.52h-1.76l-0.18,1.14h1.63l-0.08,0.52h-1.62
	l-0.26,1.64H409.52z M413.77,785.84c-0.36,0-0.62-0.1-0.8-0.3c-0.18-0.2-0.23-0.47-0.18-0.82l0.27-1.7c0.06-0.34,0.2-0.61,0.44-0.82
	c0.24-0.2,0.54-0.3,0.89-0.3c0.36,0,0.62,0.1,0.8,0.3c0.17,0.2,0.24,0.47,0.18,0.81l-0.27,1.71c-0.06,0.34-0.2,0.62-0.44,0.82
	C414.42,785.74,414.13,785.84,413.77,785.84z M413.85,785.33c0.19,0,0.35-0.05,0.47-0.16c0.12-0.11,0.19-0.26,0.23-0.46l0.27-1.7
	c0.03-0.2,0.01-0.35-0.08-0.46c-0.08-0.11-0.22-0.16-0.41-0.16c-0.19,0-0.35,0.05-0.46,0.16c-0.12,0.1-0.19,0.26-0.22,0.46
	l-0.27,1.7c-0.03,0.2-0.01,0.35,0.08,0.46C413.52,785.28,413.66,785.33,413.85,785.33z M415.8,785.79l0.61-3.83h1.2
	c0.24,0,0.44,0.05,0.6,0.14c0.16,0.09,0.28,0.22,0.36,0.39c0.07,0.17,0.09,0.37,0.05,0.59c-0.04,0.26-0.14,0.48-0.3,0.67
	c-0.16,0.19-0.37,0.32-0.6,0.39l0.54,1.64h-0.62l-0.48-1.57h-0.54l-0.25,1.57H415.8z M416.69,783.71h0.64
	c0.19,0,0.35-0.06,0.48-0.17c0.13-0.11,0.21-0.26,0.24-0.45c0.03-0.19,0-0.35-0.09-0.46c-0.09-0.11-0.24-0.17-0.43-0.17h-0.64
	L416.69,783.71z M420.91,785.84c-0.36,0-0.63-0.1-0.81-0.3c-0.18-0.2-0.24-0.47-0.19-0.82l0.27-1.7c0.06-0.35,0.21-0.62,0.45-0.82
	s0.55-0.3,0.91-0.3c0.36,0,0.63,0.1,0.81,0.3c0.18,0.2,0.24,0.47,0.19,0.82h-0.57c0.03-0.2,0-0.35-0.09-0.46
	c-0.09-0.11-0.23-0.16-0.42-0.16c-0.19,0-0.35,0.05-0.48,0.16c-0.12,0.1-0.2,0.26-0.23,0.45l-0.27,1.71c-0.03,0.2,0,0.35,0.09,0.46
	c0.09,0.11,0.23,0.16,0.42,0.16c0.19,0,0.35-0.05,0.47-0.16c0.12-0.11,0.2-0.26,0.23-0.46h0.57c-0.03,0.23-0.11,0.43-0.24,0.59
	c-0.12,0.17-0.28,0.3-0.47,0.39C421.36,785.79,421.14,785.84,420.91,785.84z M424.03,785.84c-0.36,0-0.62-0.1-0.8-0.3
	c-0.18-0.2-0.23-0.47-0.18-0.82l0.27-1.7c0.06-0.34,0.2-0.61,0.44-0.82c0.24-0.2,0.54-0.3,0.89-0.3c0.36,0,0.62,0.1,0.8,0.3
	c0.17,0.2,0.24,0.47,0.18,0.81l-0.27,1.71c-0.06,0.34-0.2,0.62-0.44,0.82C424.69,785.74,424.39,785.84,424.03,785.84z
	 M424.11,785.33c0.19,0,0.35-0.05,0.47-0.16c0.12-0.11,0.19-0.26,0.23-0.46l0.27-1.7c0.03-0.2,0.01-0.35-0.08-0.46
	c-0.08-0.11-0.22-0.16-0.41-0.16c-0.19,0-0.35,0.05-0.46,0.16c-0.12,0.1-0.19,0.26-0.22,0.46l-0.27,1.7
	c-0.03,0.2-0.01,0.35,0.08,0.46C423.79,785.28,423.92,785.33,424.11,785.33z M425.97,785.79l0.61-3.83h0.69l0.18,1.23
	c0.02,0.12,0.04,0.23,0.05,0.33c0.01,0.1,0.02,0.18,0.03,0.24c0.02-0.06,0.05-0.14,0.09-0.24c0.04-0.11,0.09-0.22,0.15-0.34
	l0.57-1.22h0.71l-0.61,3.83h-0.54l0.2-1.29c0.02-0.17,0.06-0.35,0.1-0.55c0.04-0.2,0.09-0.4,0.14-0.61c0.05-0.2,0.1-0.4,0.14-0.59
	c0.05-0.19,0.09-0.35,0.13-0.49l-0.86,1.86h-0.55l-0.28-1.86c0,0.14-0.01,0.29-0.02,0.47c-0.01,0.18-0.02,0.37-0.04,0.57
	c-0.02,0.2-0.04,0.41-0.06,0.61c-0.02,0.2-0.05,0.4-0.08,0.57l-0.2,1.29H425.97z M429.11,785.79l0.61-3.83h0.69l0.18,1.23
	c0.02,0.12,0.04,0.23,0.05,0.33c0.01,0.1,0.02,0.18,0.03,0.24c0.02-0.06,0.05-0.14,0.09-0.24c0.04-0.11,0.09-0.22,0.15-0.34
	l0.57-1.22h0.71l-0.61,3.83h-0.54l0.2-1.29c0.02-0.17,0.06-0.35,0.1-0.55c0.04-0.2,0.09-0.4,0.14-0.61c0.05-0.2,0.1-0.4,0.14-0.59
	c0.05-0.19,0.09-0.35,0.13-0.49l-0.86,1.86h-0.55l-0.28-1.86c0,0.14-0.01,0.29-0.02,0.47c-0.01,0.18-0.02,0.37-0.04,0.57
	c-0.02,0.2-0.04,0.41-0.06,0.61c-0.02,0.2-0.05,0.4-0.08,0.57l-0.2,1.29H429.11z M432.41,785.79l0.61-3.83h2.25l-0.08,0.5h-1.7
	l-0.17,1.09h1.51l-0.08,0.5h-1.51l-0.19,1.24h1.69l-0.08,0.5H432.41z M435.51,785.79l0.61-3.83h1.2c0.24,0,0.44,0.05,0.6,0.14
	c0.16,0.09,0.28,0.22,0.36,0.39c0.07,0.17,0.09,0.37,0.05,0.59c-0.04,0.26-0.14,0.48-0.3,0.67c-0.16,0.19-0.37,0.32-0.6,0.39
	l0.54,1.64h-0.62l-0.48-1.57h-0.54l-0.25,1.57H435.51z M436.4,783.71h0.64c0.19,0,0.35-0.06,0.48-0.17
	c0.13-0.11,0.21-0.26,0.24-0.45c0.03-0.19,0-0.35-0.09-0.46c-0.09-0.11-0.24-0.17-0.43-0.17h-0.64L436.4,783.71z M439.8,785.84
	c-0.36,0-0.63-0.1-0.81-0.3c-0.18-0.2-0.24-0.47-0.19-0.82l0.27-1.7c0.06-0.35,0.21-0.62,0.45-0.82s0.55-0.3,0.91-0.3
	c0.36,0,0.63,0.1,0.81,0.3c0.18,0.2,0.24,0.47,0.19,0.82h-0.57c0.03-0.2,0-0.35-0.09-0.46c-0.09-0.11-0.23-0.16-0.42-0.16
	c-0.19,0-0.35,0.05-0.47,0.16c-0.12,0.1-0.2,0.26-0.23,0.45l-0.27,1.71c-0.03,0.2,0,0.35,0.09,0.46c0.09,0.11,0.23,0.16,0.42,0.16
	s0.35-0.05,0.47-0.16c0.12-0.11,0.2-0.26,0.23-0.46h0.57c-0.03,0.23-0.11,0.43-0.24,0.59c-0.12,0.17-0.28,0.3-0.47,0.39
	C440.25,785.79,440.04,785.84,439.8,785.84z M441.88,785.79l0.08-0.5h0.78l0.45-2.82h-0.78l0.08-0.5h2.13l-0.08,0.5h-0.78
	l-0.45,2.82h0.78l-0.08,0.5H441.88z M444.74,785.79l1.59-3.83h0.75l0.37,3.83h-0.56l-0.07-0.97h-1.09l-0.39,0.97H444.74z
	 M445.9,784.34h0.87l-0.09-1.1c-0.02-0.2-0.03-0.37-0.04-0.51c-0.01-0.14-0.01-0.24-0.01-0.3c-0.02,0.06-0.05,0.16-0.1,0.3
	c-0.05,0.14-0.11,0.31-0.19,0.5L445.9,784.34z M448.24,785.79l0.61-3.83h0.57l-0.52,3.31h1.67l-0.08,0.52H448.24z M453.19,785.84
	c-0.37,0-0.63-0.1-0.8-0.3c-0.17-0.2-0.22-0.48-0.17-0.82l0.44-2.76h0.57l-0.44,2.76c-0.03,0.2-0.01,0.35,0.07,0.46
	c0.08,0.11,0.21,0.17,0.41,0.17c0.19,0,0.35-0.06,0.46-0.17c0.12-0.11,0.19-0.27,0.22-0.46l0.44-2.76h0.57l-0.44,2.76
	c-0.06,0.35-0.2,0.62-0.43,0.82C453.86,785.74,453.56,785.84,453.19,785.84z M456.36,785.84c-0.39,0-0.67-0.1-0.87-0.29
	c-0.19-0.19-0.26-0.45-0.22-0.78h0.57c-0.03,0.17,0.01,0.31,0.12,0.41c0.11,0.1,0.27,0.15,0.48,0.15c0.2,0,0.37-0.05,0.5-0.15
	s0.21-0.23,0.24-0.4c0.02-0.15,0-0.28-0.06-0.39c-0.06-0.11-0.16-0.18-0.29-0.22l-0.46-0.14c-0.27-0.08-0.46-0.22-0.59-0.41
	c-0.13-0.19-0.17-0.42-0.13-0.68c0.04-0.21,0.11-0.39,0.23-0.55c0.12-0.16,0.27-0.28,0.46-0.37c0.19-0.09,0.4-0.13,0.64-0.13
	c0.35,0,0.62,0.1,0.8,0.29c0.18,0.19,0.25,0.44,0.2,0.76h-0.57c0.03-0.17,0-0.3-0.09-0.4c-0.09-0.1-0.23-0.14-0.42-0.14
	c-0.19,0-0.34,0.04-0.46,0.13c-0.12,0.09-0.19,0.21-0.21,0.38c-0.02,0.15-0.01,0.28,0.05,0.39c0.06,0.11,0.16,0.18,0.29,0.22
	l0.47,0.15c0.26,0.08,0.46,0.22,0.58,0.41c0.12,0.19,0.17,0.42,0.12,0.69c-0.04,0.22-0.12,0.41-0.24,0.57
	c-0.13,0.16-0.29,0.29-0.49,0.38C456.82,785.79,456.6,785.84,456.36,785.84z M458.42,785.79l0.61-3.83h2.25l-0.08,0.5h-1.7
	l-0.17,1.09h1.51l-0.08,0.5h-1.51l-0.19,1.24h1.69l-0.08,0.5H458.42z"/>
<path style="fill:#223268;" d="M700.28,366.32V50.71l-32.69-0.05l-535.11-0.63L99.73,50v316.75c-0.31,13.23,0.05,76.9,30.93,151.08
	c19.72,47.34,47.84,89.39,83.6,124.95c44.1,43.87,99.5,77.5,164.64,99.94l10.45,3.59L400,750l10.67-3.68l10.44-3.59
	c65.17-22.46,120.56-56.11,164.68-100.04c35.75-35.6,63.87-77.69,83.57-125.11C700.23,443.3,700.58,379.55,700.28,366.32z
	 M680.66,71.11v0.01l-46.16,0.04L680.66,71.11z M677.92,414.44c-4.42,34.25-13.38,67.76-26.63,99.65
	c-18.68,44.95-45.33,84.84-79.21,118.58c-41.91,41.74-94.71,73.78-156.91,95.22L400,733.12l-15.16-5.22
	c-62.19-21.43-114.99-53.44-156.9-95.13c-33.87-33.69-60.52-73.53-79.21-118.42c-13.26-31.84-22.22-65.31-26.64-99.52
	c-2.06-15.24-2.98-30.6-2.76-45.98V71.65h0.01v2.37l46.51-0.05l468.22-0.44l46.59-0.05v294.92
	C680.88,383.8,679.96,399.19,677.92,414.44z M657.11,94.71l-23.01,0.01l-468.22,0.45l-22.98,0.01v273.96
	c-0.21,6.68-1,65.15,27.57,133.78c17.5,42.01,42.42,79.28,74.09,110.78l0,0c39.36,39.17,89.15,69.29,147.95,89.56l7.49,2.58
	l7.5-2.58c58.82-20.27,108.59-50.43,147.96-89.63c31.67-31.54,56.59-68.87,74.08-110.94c28.57-68.75,27.76-127.32,27.57-133.99
	V94.71z M643.99,407.93c-4.1,31.23-12.26,61.8-24.29,90.91c-16.95,40.78-41.09,76.93-71.76,107.48
	c-38.21,38.06-86.63,67.37-143.91,87.1L400,694.8l-4.01-1.38c-57.27-19.73-105.69-49.02-143.91-87.03
	c-30.67-30.51-54.8-66.62-71.76-107.33c-12.03-29.06-20.19-59.57-24.29-90.75c-2.85-22-2.54-36.51-2.47-38.76V106.06h12.35
	l468.22,0.12l12.33,0.01v262.92C646.53,371.36,646.84,385.89,643.99,407.93z M637.19,115.47l-474.37-0.14V369.7
	c-0.01,0.29-0.05,1.38-0.05,3.19c-0.01,15.97,2.28,73.03,32.4,136.82c17.39,36.83,41.13,69.46,70.56,96.97
	c36.02,33.68,80.86,59.91,133.27,77.97l1,0.35l1-0.35c52.41-18.06,97.25-44.31,133.27-78.03c29.43-27.55,53.17-60.22,70.56-97.11
	c30.12-63.89,32.42-121.06,32.4-137.08c-0.01-2-0.05-3.11-0.05-3.12V115.47z M631.05,121.61l0,81.67H168.97l0-81.8L631.05,121.61z
	 M342.53,599.13l-1.55-4.63c1.64-0.6,3.15-1.53,4.43-2.73c1.16-1.1,2.13-2.38,2.88-3.8h0.7l4.43,2.39v48.02h-6.68v-40.51
	L342.53,599.13z M377.29,632.28h0.98c1.78,0,2.67-0.98,2.67-2.95v-12.21l-4.21,2.81h-1.55c-5.38,0-8.08-2.99-8.08-8.98v-14.11
	c0-5.9,2.7-8.85,8.08-8.85h4.43c5.38,0,8.08,2.95,8.08,8.85v32.58c0,6-2.7,8.98-8.08,8.98h-4c-5.39,0-8.08-2.99-8.08-8.98v-2.81
	h6.74v2.03C374.26,631.07,375.28,632.28,377.29,632.28z M410.08,632.28h0.77c2.01,0,3.01-0.98,3.01-2.95v-11.51
	c0-2.2-0.93-3.3-2.81-3.3h-10.18v-26.54h19.03v6.25H407.2v14.18h5.33c5.38,0,8.08,2.97,8.08,8.91v12.15c0,5.95-2.7,8.92-8.08,8.92
	h-3.8c-5.38,0-8.08-2.87-8.08-8.57v-3.23h6.75v2.73C407.41,631.3,408.3,632.28,410.08,632.28z M444.13,594.09h-1.12
	c-1.78,0-2.66,0.98-2.66,2.94v15.32l4.21-2.82h2.04c5.15,0,7.73,2.88,7.73,8.65v11.72c0,5.67-2.58,8.5-7.73,8.5h-5.27
	c-5.15,0-7.73-2.83-7.73-8.5v-33.28c0-5.77,2.58-8.65,7.73-8.65h4.85c5.15,0,7.73,2.88,7.73,8.65v5.61h-6.75v-4.49
	C447.16,595.31,446.15,594.09,444.13,594.09z M415.59,541.03c-10.04-2.72-20.63-2.72-30.67,0l-53.17,14.27
	c-10.45,2.83-21.63,0-29.47-7.47c-5.91-5.58-9.39-13.27-9.66-21.39l-1.77-46.75c-0.35-9.03-2.81-18.02-7.11-25.96l-37.6-69.35
	c-4.21-7.66-4.96-16.74-2.06-24.98c2.81-8.27,9.01-14.96,17.05-18.38l52.35-22.63c9.13-3.95,17.12-10.14,23.23-17.99l38.99-50.14
	c5.94-7.63,14.87-12.01,24.55-12.01c9.6-0.03,18.68,4.41,24.55,12.01l38.99,50.14c6.11,7.85,14.1,14.04,23.23,17.99l52.35,22.63
	c8.04,3.42,14.24,10.11,17.05,18.38c2.89,8.34,2.16,17.22-2.04,24.98l-37.61,69.35c-4.3,7.94-6.76,16.93-7.11,25.96l-1.75,46.75
	c-0.31,8.2-3.75,15.78-9.66,21.39c-7.85,7.47-19.02,10.3-29.48,7.47L415.59,541.03z M200.74,507.09
	c-29.57-62.63-31.83-118.55-31.81-134.2c0-1.93,0.05-2.98,0.05-2.99l0-145.13h160.25v62.42l-3.56,4.57
	c-4.65,5.99-10.75,10.72-17.72,13.73l-52.36,22.63c-22.88,9.9-33.4,36.47-23.5,59.36c0.53,1.22,1.11,2.41,1.74,3.57l37.61,69.35
	c3.3,6.1,5.15,12.88,5.42,19.81l1.77,46.75c0.96,24.92,21.93,44.34,46.85,43.39c1.25-0.05,2.51-0.15,3.75-0.3v76.12
	c-21.83-12.78-41.64-27.46-59.28-43.96C241.07,575.22,217.79,543.22,200.74,507.09z M599.28,506.9
	c-17.06,36.18-40.34,68.23-69.2,95.24c-17.94,16.8-38.14,31.7-60.41,44.64v-76.97c24.63,3.93,47.79-12.85,51.72-37.48
	c0.28-1.78,0.46-3.57,0.53-5.38l1.75-46.75c0.27-6.93,2.13-13.71,5.43-19.81l37.6-69.35c11.88-21.9,3.76-49.29-18.15-61.17
	c-1.18-0.64-2.39-1.23-3.62-1.76l-52.35-22.63c-6.97-3.01-13.07-7.73-17.73-13.73l-5.19-6.68v-60.32h161.37l0,144.66
	c0,0.03,0.03,1.08,0.05,3.03C631.11,388.14,628.86,444.16,599.28,506.9z M189.51,178.28h10.05l1.61,10.19h7.96l-10.31-53.75h-8.44
	l-10.39,53.61v0.15h7.92L189.51,178.28z M194.52,147.16l3.92,24.22h-7.86L194.52,147.16z M241.74,188.46h-21.1v-53.68h8.03v46.51
	h13.07V188.46z M260.01,141.88h-8.85v-7.1h25.68v7.1h-8.84v46.58h-7.99V141.88z M295.54,178.28h10.05l1.61,10.19h7.96l-10.31-53.75
	h-8.44l-10.39,53.61v0.15h7.92L295.54,178.28z M300.55,147.16l3.92,24.22h-7.86L300.55,147.16z M334.26,178.28h10.05l1.61,10.19
	h7.96l-10.32-53.75h-8.44l-10.39,53.61v0.15h7.92L334.26,178.28z M339.27,147.16l3.92,24.22h-7.86L339.27,147.16z M371.29,188.52
	l-7.85-53.74h8.13l4.15,31.83l0.28,4.91c0.05-1.64,0.16-3.28,0.3-4.91l4.63-31.83h6.59l4.63,31.83l0.3,4.91
	c0.06-1.64,0.15-3.28,0.28-4.91l4.15-31.83H405l-7.85,53.74h-7.86l-4.8-30.41c-0.05-1.1-0.13-2.73-0.27-4.91
	c0,1.1-0.1,2.73-0.28,4.91l-4.76,30.41H371.29z M421.29,188.46h17.43c3.24,0,4.87-1.63,4.87-4.91v-43.82c0-3.3-1.63-4.95-4.87-4.95
	h0h-17.43c-3.18,0-4.76,1.64-4.76,4.95v43.82C416.53,186.83,418.11,188.46,421.29,188.46z M424.54,141.67h11.02v39.89h-11.02V141.67
	z M457.06,183.56v-48.78h8.02v46.79h10.81v-46.79h8.03v48.78c0,3.27-1.66,4.9-4.95,4.9h-17.04
	C458.68,188.46,457.06,186.83,457.06,183.56z M505.2,188.46h-7.82v-53.68h7.04l12.87,33.11c-0.35-1.66-0.52-2.94-0.52-3.88v-29.23
	h7.82v53.68h-7.04l-12.85-33.77c0.34,1.64,0.51,2.93,0.51,3.87V188.46z M545.15,188.46h-7.72v-8.31h7.72V188.46z M566.04,188.46
	h-8.03v-53.68h21.91v7.1h-13.88v15.89h11.86v6.95h-11.86V188.46z M591.52,183.55v-43.84c0-3.29,1.58-4.93,4.76-4.93h16.74
	c3.27,0,4.91,1.64,4.91,4.93v12.56h-7.99v-10.61h-10.4v39.89h10.4v-11.28h7.99v13.27c0,3.28-1.64,4.91-4.91,4.91h-16.74
	C593.1,188.46,591.52,186.83,591.52,183.55z M380.94,613.81h-4.08c-2.01,0-3.01-1.22-3.01-3.65V597.1c0-2.01,1-3.02,3.01-3.02h0.77
	c2.2,0,3.3,1.02,3.3,3.02V613.81z M440.35,615.65h4.21c2.02,0,3.02,1.21,3.02,3.65v9.96c0,2.01-1,3.02-3.02,3.02h-1.26
	c-1.97,0-2.95-1.02-2.95-3.02V615.65z M480.86,529.8c-1.66-5.03-3.62-9.81-5.64-14.58c-3.14-7.47-6.03-15.05-8.68-22.71
	c-2.79-8.19-5.38-16.45-7.76-24.77c-0.65-2.24-1.22-4.5-1.83-6.75c-0.1-0.39-0.19-0.81,0.22-1.05c0.29-0.17,0.46,0.17,0.59,0.35
	c2.71,3.42,5.32,6.89,8.13,10.24c2.91,3.45,5.72,6.95,9.15,9.94c3.37,2.94,6.99,5.45,11.04,7.35c4.33,2.02,8.97,2.54,13.63,2.94
	c-2.49-1.25-5.13-2.25-7.07-4.27c-2.3-2.38-4.53-4.84-6.63-7.4c-3.7-4.58-6.78-9.59-10.01-14.5c-5.01-7.61-9.94-15.26-15.5-22.49
	c-4.46-5.8-9.25-11.31-14.41-16.49c-1.62-1.62-1.4-2.12-0.17-3.7c4.86-6.24,8.44-13.16,11-20.62c1.32-3.77,2.28-7.66,2.87-11.61
	c0.56-4.06,1.38-8.1,0.76-12.25c-0.3-2.07-1.21-3.62-3.34-4.22c-2.64-0.73-5.37-1.08-8.11-1.04c-2.82,0-5.65-0.1-8.48,0.04
	c-2.55,0.11-5.1,0.47-7.65,0.76c-1.04,0.11-1.4-0.16-1.4-1.31c0.01-3.11,0.22-6.22-0.21-9.34c-0.4-2.88-1.43-4.52-4.43-4.22
	c-2.08,0.18-4.15,0.48-6.2,0.88c-3.9,0.84-7.71,2.08-11.35,3.69c-2.52,1.16-5.43,1.05-7.86-0.28c-2.36-1.22-4.92-2.08-7.42-3
	c-6.42-2.38-13.14-3.69-19.74-5.45c-6.12-1.62-11.76-4.69-16.43-8.96c-2.97-2.7-5.82-5.53-8.79-8.23c-3.18-2.93-6.26-5.95-9.44-8.89
	c-2.09-1.93-4.51-2.55-7.29-1.11c-1.74,0.89-3.38,1.97-4.89,3.22c-3.07,2.54-5.34,5.67-5.36,9.79c0.12,2.38-0.87,4.68-2.67,6.24
	c-3.23,2.88-8.32,10.87-7.88,11.35c0.42,0.48,0.83,0,1.16-0.1c2.47-0.79,5.01-0.88,7.53-0.69c1.55,0.14,2.98,0.88,3.98,2.07
	c1.89,2.15,2.81,4.82,3.56,7.55c1.5,5.47,2.24,11.16,4.9,16.3c0.51,0.98,0.05,1.72-1.14,2.16c-3.77,1.49-7.9,1.78-11.84,0.82
	c-2.04-0.47-3.95-1.38-5.59-2.67c-1.64-1.37-1.9-3.43-1.08-5.91c0.4-1.21,1.05-2.31,1.71-3.41c0.41-0.7,0.21-1.05-0.6-1.04
	c-0.81,0.03-1.61,0.19-2.37,0.47c-3.29,1.08-5.65,3.41-7.59,6.09c-4.44,6.11-5.14,12.73-1.89,19.55c1.85,3.92,5.12,6.68,8.63,9.11
	c4.84,3.34,10.09,6,15.08,9.08c7.45,4.6,14.63,9.53,20.69,15.91l0,0c0.71,0.75,3.81,5.2,4.61,6.7c2.64,4.93,4.44,10.21,5.95,15.56
	c1.29,4.61,2.52,9.25,3.87,13.85c1.58,5.39,3.81,10.52,6.51,15.48c2.76,5.02,6.18,9.52,9.99,13.74c1.65,1.89,3.48,3.62,5.45,5.18
	c0.82,0.63,3.1,2.42,3.43,2.2c0.52-0.31-1.08-3.26-1.62-4.38c-2.67-5.64-4.82-11.52-6.41-17.56c-1.27-4.5-2.18-9.1-2.72-13.75
	c-0.18-1.74-0.4-3.48-0.67-5.21c-0.07-0.52-0.31-1.14,0.06-1.46c0.47-0.39,7.92,5.14,10.68,7.61c1.62,1.45,3.27,2.9,4.75,4.55
	c1.91,2.09,3.74,4.26,5.48,6.49c0.21-1.72-0.28-3.17-0.6-4.61c-1.33-5.7-3.46-11.08-6.25-16.24c-2.75-5-5.89-9.78-9.38-14.28
	c-2.31-3.01-4.57-6.09-7.13-8.88c-2.12-2.3-25.06-22.99-27.85-25.09c-4.26-3.2-9.08-5.51-13.68-8.19c-1.33-0.79-2.61-1.62-4.22-2.61
	c1.44-0.13,2.44-0.48,3.53-0.37c3.43,0.35,6.87,0.4,10.33,0.02c4.49-0.48,8.45-2.16,12.02-4.85c2.13-1.6,2.58-3.02,1.57-4.8
	c-0.76-1.33-1.52-2.65-2.27-3.99c-2.62-4.48-4.66-9.28-6.09-14.27c-0.87-3.52-1.46-7.09-1.79-10.7c-0.12-1.11-0.01-2.25-0.01-3.37
	l0.37-0.02c1.19,2.3,2.26,4.67,3.59,6.88c4.72,7.9,36.79,46.85,37.55,48.59c0.3,0.69,0.04,1.09-0.79,1.14
	c-1.23,0.05-22.41-8.8-23.21-8.42c-0.83,0.39,10.9,15.08,14.49,18.2c3.02,2.62,5.79,5.56,8.54,8.49c2.38,2.54,4.68,5.18,6.82,7.92
	c3.37,4.33,6.47,8.85,9.27,13.58c2.53,4.23,4.74,8.61,6.63,13.11c2.27,5.42,4.41,10.87,6.99,16.14c1.8,3.66,3.75,7.26,5.86,10.76
	c4.05,6.7,8.86,12.75,15.1,17.53c6.31,4.84,13.3,8.36,21.02,10.41c4.19,1.16,8.47,1.94,12.79,2.33c2.01,0.15,4.11,0.11,5.9,1.39
	c0.6,0.4,1.27,0.7,1.97,0.88C478.42,528.71,479.49,529.59,480.86,529.8z M410.56,390.4c-6.36-2.08-12.49-5.22-19.59-5.2
	c8.53,13.16,16.05,26.62,18.92,42.34c-1-0.47-1.38-1.31-1.67-2.03c-0.67-1.63-15.96-26.54-19.08-30.23
	c-3.92-4.62-7.98-9.12-12.04-13.63c-4.23-4.69-8.55-9.36-11.92-14.75c-0.23-0.36-0.4-0.75-0.63-1.1c-0.24-0.35-0.41-0.81-0.1-1.05
	c0.36-0.28,0.86-0.22,1.29,0.12c4.34,3.36,9.15,5.9,14.02,8.38c1.81,0.92,3.62,1.84,5.39,2.79c2.97,1.61,5.9,3.29,8.72,5.18
	l0.19-0.19c0.02-0.9-0.21-1.79-0.67-2.58c-0.74-1.49-1.48-2.99-2.24-4.47c-0.27-0.52-0.46-1.08-0.06-1.56
	c0.48-0.58,0.94-0.02,1.38,0.16c4.67,1.99,8.83,5,12.18,8.82c2.32,2.56,4.32,5.38,5.91,8.46
	C410.65,390.01,410.78,390.14,410.56,390.4z M435.86,382.1c0.48-0.1,0.98-0.16,1.48-0.19c1.66-0.13,3.33-0.04,4.98-0.11
	c0.48-0.02,1.37,0.12,2.25,0.36c1.41,0.39,2.83,1.04,2.71,1.72c-0.64,3.47-1.57,6.87-2.78,10.18c-1.83,5.05-4.37,9.81-7.56,14.14
	c-0.35,0.48-0.52,0.99-1.26,0.57c-0.33-0.21,0.6-4.91,1.62-9.64c0.87-4.09,1.81-8.17,2.06-9.35c0.35-1.63-0.33-2.71-2-3.18
	c-0.07-0.02-0.11-0.06-0.19-0.07c-2.92-0.76-5.81-1.64-8.65-2.66C431.05,382.73,433.49,382.56,435.86,382.1z M460.13,511.04
	c-0.36,0.4-0.92,0.35-1.54,0.22c-5.59-1.24-10.8-3.81-15.19-7.49c-5.38-4.46-10.01-9.75-13.71-15.68
	c-4.57-7.28-7.97-15.23-10.06-23.57c-0.36-1.4-0.56-2.84-0.81-4.26c-0.05-0.28,0-0.57,0-1.14c5.16,5.08,9.42,10.77,15.82,14.26
	c0.29-1.68-1.62-11.69-2.27-15.16c-1.88-9.96-4.14-19.86-6.76-29.65c-0.64-2.37-3.34-11.56-3.6-13.17
	c-0.12-0.79,0.76-1.16,1.46-0.85c0.96,0.42,6.06,9.23,7.76,12.89c4.16,8.95,7.68,18.11,10.31,27.64c2.1,7.59,3.99,15.25,6.36,22.78
	c2.54,8.27,5.49,16.41,8.82,24.4c1.06,2.47,2.08,4.93,3.3,7.33C460.28,510.07,460.51,510.64,460.13,511.04z"/>
</svg>
