<?xml version="1.0" encoding="utf-8"?>
<!-- Created by @FCLOGO 2023-11-13 GMT+8 15:15:14 . https://fclogo.top/ -->
<!-- FOR PERSONAL USE ONLY NOT FOR COMMERCIAL USE -->
<svg version="1.1" xmlns="http://www.w3.org/2000/svg" xmlns:xlink="http://www.w3.org/1999/xlink" x="0px" y="0px"
	 viewBox="0 0 800 800" style="enable-background:new 0 0 800 800;" xml:space="preserve">
<style type="text/css">
	.st0{fill:#FFFFFF;}
	.st1{fill:#1C1E84;}
	.st2{fill:#FBC600;}
	.st3{fill:#E50012;}
</style>
<g>
	<g>
		<path class="st0" d="M573.8,93.6C534.3,70.9,468.2,53,400,53.3c-66.6,0.3-135.3,18.2-173.8,40.4c-64,36.9-96.6,42.7-96.6,42.7
			s0.4,206.3,4.9,263.9C154.8,655.5,400,746.5,400,746.5s245.2-91,265.4-346.3c4.6-57.6,4.9-263.9,4.9-263.9S637.8,130.5,573.8,93.6
			z"/>
		<path class="st1" d="M400,750l-1.1-0.4c-0.6-0.2-62.6-23.6-126.1-78c-58.7-50.3-130.9-138.1-141.4-271.1c-4.5-57-5-262.1-5-264.1
			l0-2.7l2.7-0.5c0.3-0.1,33-6.3,95.6-42.3C266.5,66.7,337,50.3,400,50l1.6,0c62.6,0,130.8,16,173.8,40.8
			c62.6,36.1,95.2,42.3,95.5,42.3l2.7,0.5l0,2.7c0,2.1-0.4,207.1-5,264.1c-10.5,133-82.7,220.8-141.4,271.1
			c-63.5,54.4-125.5,77.8-126.1,78L400,750L400,750z M132.9,139c0.1,24.2,0.7,207.7,4.9,261c10.4,130.7,81.3,217.1,139,266.5
			c58,49.7,114.5,73.1,123.2,76.5c8.6-3.4,65.2-26.9,123.2-76.5c57.7-49.5,128.6-135.8,139-266.5c4.2-53.3,4.9-236.8,4.9-261
			c-9.1-2.2-40.7-11.3-95-42.5c-42.1-24.3-109-39.9-170.6-39.9l-1.6,0c-62,0.3-131.2,16.3-172.1,39.9
			C173.6,127.7,142,136.8,132.9,139L132.9,139z"/>
	</g>
	<path class="st1" d="M400,119.5c63.7-0.2,133.5,16,177.6,41.4c39.4,22.7,66.8,34.3,81.6,39.8c0.2-24.8,0.3-45.1,0.3-55.9
		c-14.1-4.1-44.6-14.9-91.1-41.7c-41-23.6-106.5-38.9-166.8-38.9l-1.5,0c-70.2,0.3-135.1,19.7-168.4,38.9
		c-46.5,26.8-77,37.7-91.1,41.7c0,10.6,0.1,30.3,0.3,54.4c14.7-4.8,42.1-15.5,81.6-38.3C264.9,136.4,336.3,119.8,400,119.5z"/>
	<path class="st1" d="M401.5,134.7c-0.5,0-1,0-1.5,0c-61.3,0.3-129.6,16.1-170,39.3c-45,25.9-74.7,36.8-89.1,41.1
		c0.6,64.6,1.8,150.6,4.5,184.3c8.2,102.9,54.1,190.9,136.5,261.5c52.7,45.2,104,68.1,118,74c14.1-5.9,65.8-29.1,118.6-74.5
		c82.1-70.5,127.8-158.3,136-261c2.6-33.3,3.9-118.2,4.4-182.6c-14.1-4.8-43.8-16.7-89.1-42.7C528.4,150.1,462.4,134.7,401.5,134.7z
		"/>
	<g>
		<path class="st0" d="M215,510.4c-14.2-34.8-23-72-26.1-111.4c-2-24.7-3.4-92.3-4.4-201.1c-3,1.4-5.9,2.7-8.7,3.9
			c1,106.7,2.4,173.2,4.4,197.8c3.3,41.6,12.7,80.7,28.1,117.3C210.2,514.8,212.5,512.6,215,510.4z"/>
		<path class="st0" d="M624.2,202.5c-2.8-1.3-5.6-2.6-8.6-4.1c-1,108.5-2.4,176-4.4,200.7c-6.3,79-35.1,149.2-85.9,209.3
			c1.5,2.9,2.6,6,3.3,9.5c54.1-62.3,84.7-135.5,91.3-218.1C621.8,375.2,623.2,308.8,624.2,202.5z"/>
	</g>
	<g>
		<g>
			<path class="st0" d="M166.2,167.9c0,3.9-0.8,6.9-2.3,9.1c-1.6,2.2-3.5,4-6,5.4c-2.9,1.7-4.3,2.6-7.2,4.3c0-11.2,0-22.5,0-33.7
				c3-1.8,4.5-2.7,7.5-4.4c2.4-1.4,4.2-1.6,5.4-0.7c1.2,0.9,1.8,2.6,1.8,4.9c0,2.4-0.4,4.4-1.2,6c-0.8,1.6-2.5,3.8-2.5,3.8
				c0,0,2.2,0,3.1,0.8C165.7,164.2,166.2,165.7,166.2,167.9z M162.2,154.5c0-1.8-0.4-2.8-1.1-3.2c-0.7-0.4-1.7-0.2-2.8,0.4
				c-1.8,1-2.7,1.5-4.5,2.6c0,4,0,6.3,0,10.8c1.7-1,2.6-1.5,4.3-2.5c1.1-0.6,2-1.6,2.9-3C161.8,158.2,162.2,156.5,162.2,154.5z
				 M162.7,169.9c0-2.2-0.5-3.5-1.6-3.9c-1-0.3-2.2-0.1-3.5,0.6c-1.5,0.9-2.3,1.3-3.8,2.3c0,5.3,0,7.9,0,12.7c1.3-0.8,2-1.2,3.4-2
				c1.8-1,3.1-2.3,4.1-3.7C162.2,174.3,162.7,172.4,162.7,169.9z"/>
			<path class="st0" d="M185.8,167.2c-1.4,0.7-2,1-3.4,1.7c-0.8-3.3-1.2-5.2-2-8.9c-2.8,1.4-4.2,2.2-7,3.7
				c-0.8,4.6-1.2,6.9-1.9,11.1c-1.3,0.7-2,1.1-3.4,1.8c2.6-12.5,4.7-25,7.3-37.5c1.2-0.6,1.8-0.9,3-1.4
				C181,147.4,183.1,157.4,185.8,167.2z M179.6,156.8c-1-4.5-1.5-6.8-2.5-11.1c-0.2,0.1-0.3,0.2-0.5,0.3c-1,5.3-1.5,8.2-2.5,13.7
				C176.3,158.4,177.4,157.9,179.6,156.8z"/>
			<path class="st0" d="M204.5,158.3c-1.5,0.7-2.2,1-3.7,1.7c-2-3.8-3.1-6.1-5.1-10.6c-2,6.3-2.9,9.5-4.9,15.3
				c-1.5,0.7-2.2,1.1-3.7,1.8c2.8-7.6,4.1-12,6.9-20.3c-2.5-5.3-3.7-8.1-6.2-12.7c1.5-0.7,2.2-1,3.7-1.6c1.7,3.5,2.6,5.5,4.3,9.6
				c1.7-5.5,2.5-8.2,4.2-13.2c1.5-0.6,2.2-0.9,3.7-1.5c-2.5,6.6-3.8,10.3-6.3,17.7C200.3,150.3,201.7,153.3,204.5,158.3z"/>
			<path class="st0" d="M223.9,118.8c-2.8,7.6-4.2,11.8-7,20c0,5.8,0,8.8,0,14.1c-1.3,0.6-2,0.8-3.4,1.4c0-5.3,0-8.3,0-14.1
				c-2.8-6-4.2-9.2-7-14.6c1.4-0.6,2.1-0.9,3.5-1.4c2,4.2,3,6.5,5,11.2c0.1,0,0.1,0,0.2-0.1c2-6.3,3-9.4,5-15.1
				C221.7,119.6,222.4,119.4,223.9,118.8z"/>
			<path class="st0" d="M244.2,138.4c-0.6,1.8-0.8,2.7-1.4,4.5c-0.6-0.3-1.2-0.5-1.6-0.7c-0.5-0.2-1.4-1-1.5-1
				c-0.4,0.1-1.7,2.4-2.7,3.3c-0.9,0.9-2,1.6-3.3,2.1c-2.1,0.8-3.9,0.8-5.4,0c-1.5-0.8-2.2-2.7-2.2-5.8c0-2,0.4-3.8,1.3-5.4
				c0.9-1.6,3-3.9,3.2-4.9c0.1-0.6-0.9-2.4-1.2-3.6c-0.3-1.2-0.5-2.4-0.5-3.5c0-2.2,0.5-4.1,1.6-5.6c1.1-1.6,2.4-2.7,4-3.3
				c1.4-0.5,2.5-0.5,3.4,0.1c0.9,0.6,1.4,1.9,1.4,3.8c0,2.3-0.6,4.4-1.6,6.3c-1.1,1.9-3.6,4.3-3.7,5.1c-0.1,0.6,1.5,2.3,2.3,3.3
				c0.8,1,2.7,2.9,2.7,2.9c0.2,0,0.5-1.9,0.6-2.7c0.1-0.8,0.2-1.9,0.2-3.1c1.3-0.5,1.9-0.8,3.1-1.3c0,1.6-0.1,3.1-0.4,4.5
				c-0.3,1.4-1.3,3.6-1.2,4.1c0,0.1,0.8,0.5,1.3,0.7C243.3,138.2,243.8,138.3,244.2,138.4z M237.5,139.7c-0.1-0.6-2.5-2.3-3.4-3.4
				c-0.9-1.1-2.3-3.5-2.3-3.5c-0.2,0-1.5,2.2-1.9,3.3c-0.4,1.1-0.6,2.3-0.6,3.7c0,1.8,0.5,3,1.4,3.6c1,0.5,2.1,0.5,3.3,0
				c0.7-0.3,1.4-0.7,1.9-1.3C236.4,141.4,237.6,140.1,237.5,139.7z M236.6,119.4c0-0.8-0.2-1.4-0.6-1.8c-0.4-0.3-0.9-0.4-1.6-0.1
				c-0.7,0.3-1.3,0.8-1.8,1.6c-0.6,0.8-0.8,1.8-0.8,2.9c0,0.9,0.1,1.7,0.3,2.6c0.2,0.9,0.9,2.7,1,2.7c0.2,0,1.7-1.9,2.4-3.3
				C236.2,122.7,236.6,121.1,236.6,119.4z"/>
			<path class="st0" d="M263.5,125c0,2.8-0.8,5.3-2.3,7.5c-1.5,2.3-3.6,3.9-6.2,5.1c-2.6,1.1-4.7,1.2-6.2,0.2
				c-1.5-1-2.2-2.8-2.2-5.4c0-0.5,0-0.8,0-1.3c1.4-0.6,2.1-0.9,3.5-1.5c0,0.5,0,0.7,0,1.1c0,1.9,0.5,3.1,1.5,3.6
				c1,0.6,2.1,0.5,3.4,0c1.7-0.8,3-1.8,3.8-3.2c0.8-1.4,1.2-2.8,1.2-4.3c0-1.2-0.5-2.2-1.4-2.8c-1-0.6-2.4-1.1-4.2-1.1
				c-2.5-0.1-4.4-0.5-5.5-1.4c-1.1-0.9-1.7-2.3-1.7-4.1c0-2.6,0.8-4.9,2.3-7.1c1.5-2.2,3.3-3.6,5.4-4.5c2.7-1.1,4.7-1,5.9,0.3
				c1.2,1.3,1.8,3.1,1.8,5.2c-1.4,0.6-2.1,0.9-3.5,1.4c0.1-1.4-0.2-2.4-1-3.2c-0.8-0.8-1.9-0.8-3.3-0.3c-1.3,0.5-2.4,1.3-3.1,2.4
				c-0.8,1.1-1.1,2.3-1.1,3.6c0,1.1,0.3,1.9,0.9,2.4c0.6,0.5,2.2,0.8,4.6,0.9c2.3,0.1,4.1,0.7,5.4,1.7
				C262.8,121.6,263.5,123.1,263.5,125z"/>
			<path class="st0" d="M283.6,125.4c-1.4,0.5-2.1,0.8-3.5,1.3c0-5.6,0-8.5,0-14.2c-3.8,1.4-5.7,2.2-9.4,3.7c0,5.8,0,8.8,0,14.4
				c-1.4,0.6-2.1,0.9-3.5,1.5c0-10.2,0-20.3,0-30.5c1.4-0.5,2.1-0.8,3.5-1.4c0,5,0,7.6,0,12.8c3.8-1.5,5.6-2.2,9.4-3.6
				c0-5.1,0-7.7,0-12.7c1.4-0.5,2.1-0.8,3.5-1.2C283.6,105.4,283.6,115.4,283.6,125.4z"/>
			<path class="st0" d="M304.5,118.7c-6.6,1.7-9.9,2.7-16.4,5.1c0-10,0-19.9,0-29.9c6.2-2,9.4-3,15.6-4.5c0,1.2,0,1.9,0,3.1
				c-4.8,1.2-7.3,1.9-12.1,3.4c0,3.8,0,5.7,0,9.6c4.4-1.4,6.7-2.1,11.1-3.2c0,1.3,0,1.9,0,3.1c-4.5,1.2-6.7,1.8-11.1,3.3
				c0,4.4,0,6.5,0,10.8c5.1-1.7,7.7-2.5,12.9-3.8C304.5,116.9,304.5,117.5,304.5,118.7z"/>
			<path class="st0" d="M324.8,114.8c-1.6,0.2-2.3,0.4-3.9,0.6c-3.7-7.9-5.5-12-9.1-19.8c-0.1,0-0.1,0-0.2,0c0,8.6,0,12.9,0,21.5
				c-1.4,0.3-2.1,0.4-3.6,0.8c-0.1-9.8-0.1-19.7,0-29.5c1.6-0.3,2.3-0.5,3.9-0.8c3.6,7.9,5.4,11.9,9.1,19.9c0.1,0,0.1,0,0.2,0
				c0-8.6,0-13,0-21.5c1.4-0.3,2.1-0.4,3.6-0.6C324.7,95.1,324.7,104.9,324.8,114.8z"/>
			<path class="st0" d="M345.8,112.3c-1,0.1-1.6,0.2-2.6,0.3c-0.3-0.9-0.4-1.4-0.7-2.3c-0.4,0.7-1.1,1.4-2,2c-0.9,0.6-1.9,0.9-3,1.1
				c-2.3,0.3-4.3-0.5-6.1-2.5c-1.8-2-2.7-5.5-2.7-10.4c0-5.5,0.8-9.6,2.5-12.6c1.6-2.9,3.9-4.6,6.7-5c2.5-0.4,4.5,0.3,5.9,2.1
				c1.4,1.8,2.1,4.2,2.1,7.4c-1.4,0.2-2.2,0.3-3.6,0.5c0-2.5-0.4-4.3-1.1-5.5c-0.8-1.1-1.8-1.6-3.3-1.4c-1.7,0.3-3.1,1.4-3.9,3.5
				c-0.9,2.1-1.3,5.4-1.3,10c0,4.4,0.6,7.3,1.6,8.8c1.1,1.5,2.3,2.1,3.8,1.9c1.4-0.2,2.5-0.9,3.3-2.1c0.8-1.3,1.2-3.1,1.2-5.5
				c0-0.8,0-1.2,0-2c-2,0.3-3,0.4-5.1,0.7c0-1.3,0-1.9,0-3.2c3.3-0.5,5-0.7,8.3-1.1C345.8,103.1,345.8,106.2,345.8,112.3z"/>
			<path class="st0" d="M367.1,101.4c0,2.8-0.8,5-2.4,6.7c-1.6,1.7-3.7,2.7-6.5,2.9c-2.7,0.2-4.9-0.4-6.4-1.8
				c-1.5-1.5-2.3-3.4-2.3-5.9c0-0.5,0-0.7,0-1.2c1.4-0.2,2.2-0.2,3.6-0.4c0,0.4,0,0.7,0,1.1c0,1.8,0.5,3.2,1.5,4
				c1,0.9,2.2,1.2,3.6,1.1c1.8-0.2,3.1-0.8,4-1.9c0.8-1.1,1.3-2.4,1.3-3.8c0-1.2-0.5-2.3-1.5-3.2c-1-0.9-2.5-1.8-4.3-2.4
				c-2.6-0.8-4.6-1.8-5.7-2.9c-1.2-1.2-1.7-2.6-1.7-4.4c0-2.5,0.8-4.6,2.4-6.3c1.6-1.7,3.5-2.7,5.7-2.9c2.8-0.3,4.9,0.4,6.1,2
				c1.3,1.7,1.9,3.6,1.9,5.8c-1.4,0.1-2.2,0.2-3.6,0.3c0.1-1.3-0.2-2.5-1-3.5c-0.8-1-1.9-1.4-3.4-1.2c-1.4,0.2-2.4,0.7-3.2,1.5
				c-0.8,0.8-1.2,1.9-1.2,3.2c0,1,0.3,1.9,0.9,2.6c0.6,0.7,2.3,1.4,4.8,2.2c2.4,0.8,4.3,2,5.6,3.4
				C366.5,97.8,367.1,99.5,367.1,101.4z"/>
			<path class="st0" d="M387.8,109c-1.4,0-2.2,0.1-3.6,0.1c0-5.6,0-8.7,0-14.6c-3.9,0.2-5.8,0.3-9.7,0.5c0,5.9,0,8.9,0,14.5
				c-1.4,0.1-2.2,0.1-3.6,0.2c0-10.2,0-20.4,0-30.6c1.4-0.1,2.2-0.2,3.6-0.3c0,5,0,7.6,0,12.9c3.9-0.3,5.8-0.4,9.7-0.5
				c0-5.3,0-8,0-13c1.4-0.1,2.2-0.1,3.6-0.2C387.8,88.3,387.8,98.7,387.8,109z"/>
			<path class="st0" d="M402.1,108.8c-1.5,0-2.2,0-3.6,0c0-10.4,0-20.7,0-31.1c1.4,0,2.2,0,3.6,0C402.1,88.1,402.1,98.5,402.1,108.8
				z"/>
			<path class="st0" d="M430.5,82.3c-5.5-0.5-8.2-0.7-13.7-0.9c0,4.1,0,6.3,0,10.5c4.2,0.2,6.2,0.3,10.4,0.6c0,1.3,0,2,0,3.3
				c-4.1-0.3-6.2-0.4-10.4-0.6c0,5.7,0,8.5,0,13.9c-1.5-0.1-2.2-0.1-3.6-0.1c0-10.3,0-20.6,0-31c6.9,0.3,10.4,0.5,17.3,1.1
				C430.5,80.4,430.5,81,430.5,82.3z"/>
			<path class="st0" d="M451.7,96.5c0,5.6-0.8,9.4-2.4,11.7c-1.6,2.2-3.8,3.2-6.6,2.9c-2.8-0.3-5.1-1.6-6.8-4.1
				c-1.7-2.5-2.5-6.6-2.5-12.3c0-5.7,0.8-9.6,2.5-11.8c1.7-2.2,3.9-3.1,6.8-2.8c2.8,0.3,5.1,1.8,6.6,4.3
				C450.9,86.9,451.7,90.9,451.7,96.5z M447.7,96c0-5.1-0.5-8.4-1.5-10.1c-1-1.7-2.2-2.6-3.6-2.7c-1.4-0.2-2.7,0.5-3.7,1.9
				c-1,1.4-1.6,4.7-1.6,9.9c0,5.1,0.5,8.5,1.6,10.2c1,1.7,2.3,2.6,3.7,2.7c1.4,0.1,2.6-0.6,3.6-2.1
				C447.2,104.4,447.7,101.1,447.7,96z"/>
			<path class="st0" d="M472.6,99.5c0,5.5-0.8,9.2-2.4,11.4c-1.6,2.1-3.8,3-6.6,2.6c-2.8-0.4-5.1-1.8-6.7-4.4
				c-1.6-2.6-2.5-6.6-2.5-12.2c0-5.6,0.8-9.4,2.5-11.5c1.6-2.1,3.9-2.9,6.7-2.5c2.8,0.4,5,1.9,6.6,4.5C471.8,90,472.6,94,472.6,99.5
				z M468.7,98.9c0-5-0.5-8.3-1.5-10c-1-1.7-2.2-2.6-3.6-2.9c-1.4-0.2-2.6,0.4-3.7,1.7c-1,1.4-1.6,4.6-1.6,9.6c0,5,0.5,8.4,1.6,10.1
				c1,1.7,2.3,2.7,3.7,2.9c1.4,0.2,2.6-0.4,3.6-1.9S468.7,103.8,468.7,98.9z"/>
			<path class="st0" d="M492.6,91.5c-2.5-0.6-3.8-0.8-6.4-1.3c0,10.6,0,15.9,0,26.4c-1.4-0.3-2.1-0.4-3.6-0.6c0-10.5,0-15.9,0-26.4
				c-2.6-0.5-3.9-0.7-6.5-1.2c0-1.2,0-1.9,0-3.1c6.7,1.2,10,1.7,16.5,3.1C492.6,89.7,492.6,90.3,492.6,91.5z"/>
			<path class="st0" d="M513.7,115.3c0,3.4-0.8,5.4-2.5,6.1c-1.7,0.7-3.8,0.6-6.5-0.2c-3.2-1-4.8-1.4-7.9-2.3c0-9.9,0-19.7,0-29.6
				c3.3,0.8,5,1.3,8.3,2.2c2.6,0.8,4.6,2.1,5.9,4.1c1.3,1.9,2,3.9,2,6c0,2.1-0.5,3.5-1.3,4.2c-0.9,0.7-2.8,1.1-2.8,1.1
				c0,0.1,2.4,1.9,3.4,3.3C513.2,111.8,513.7,113.4,513.7,115.3z M509.4,100.5c0-1.5-0.4-2.8-1.2-3.8c-0.8-1-1.8-1.6-3-2
				c-2-0.6-3-0.9-4.9-1.4c0,3.7,0,5.6,0,9.4c1.9,0.5,2.9,0.8,4.8,1.4c1.2,0.4,2.2,0.3,3.1-0.2C508.9,103.4,509.4,102.3,509.4,100.5z
				 M509.9,114.1c0-1.9-0.6-3.5-1.7-4.6c-1.1-1.1-2.4-1.9-3.8-2.4c-1.7-0.5-2.5-0.7-4.2-1.2c0,4.4,0,6.6,0,10.9
				c1.5,0.4,2.2,0.6,3.7,1.1c1.9,0.6,3.4,0.7,4.4,0.2C509.4,117.6,509.9,116.2,509.9,114.1z"/>
			<path class="st0" d="M534.6,132.6c-1.4-0.6-2.2-0.9-3.6-1.5c-0.8-4-1.3-6.1-2.1-10.2c-3-1.2-4.5-1.8-7.5-3
				c-0.8,3.4-1.2,5.1-2.1,8.5c-1.4-0.6-2.2-0.8-3.6-1.4c2.7-9.2,5.2-18.3,7.9-27.5c1.3,0.5,1.9,0.7,3.1,1.2
				C529.4,110,532,121.3,534.6,132.6z M528.1,117.3c-1.1-4.9-1.6-7.3-2.6-12.1c-0.2-0.1-0.3-0.1-0.6-0.2c-1.1,4-1.6,6-2.7,10
				C524.6,115.9,525.8,116.4,528.1,117.3z"/>
			<path class="st0" d="M553.5,140.8c-6.4-2.8-9.7-4.2-16.2-7c0-10.2,0-20.4,0-30.6c1.4,0.6,2.1,0.8,3.4,1.4c0,10.6,0,16.7,0,27.5
				c5.1,2.2,7.7,3.4,12.8,5.5C553.4,138.9,553.4,139.6,553.5,140.8z"/>
			<path class="st0" d="M573.2,148.9c-6.4-2.5-9.6-3.7-16-6.5c0-10.4,0-20.7,0-31.1c1.4,0.6,2,0.8,3.4,1.4c0,10.6,0,17,0,28
				c5.1,2.1,7.6,3.1,12.6,5C573.2,147,573.2,147.6,573.2,148.9z"/>
			<path class="st0" d="M593.1,144.7c-0.1,4.8-0.9,7.7-2.4,9c-1.5,1.2-3.3,1.4-5.4,0.5c-2.4-1-4.5-3-6.2-6c-1.7-3-2.6-7.2-2.6-12.6
				c0-5.9,0.8-9.9,2.5-12c1.7-2.1,3.8-2.6,6.5-1.5c2.2,0.9,4.1,2.5,5.5,5.1c1.5,2.5,2.1,5.7,2,9.4c-1.3-0.6-2-0.8-3.3-1.4
				c0-2.8-0.4-5.1-1.1-6.7c-0.7-1.6-1.8-2.7-3.2-3.3c-1.6-0.6-2.9-0.2-3.9,1.5c-1,1.7-1.4,5-1.4,9.9c0,4.6,0.5,8,1.5,10.1
				c1,2.2,2.2,3.6,3.8,4.2c1.1,0.5,2.2,0.3,3.1-0.6c0.9-0.9,1.4-3.2,1.4-7.1C591.1,143.8,591.7,144.1,593.1,144.7z"/>
			<path class="st0" d="M611.8,165.9c-6.2-3.1-9.3-4.5-15.5-7.4c0-10.6,0-21.2,0-31.8c1.3,0.5,2,0.8,3.3,1.4c0,9.6,0,19.2,0,28.8
				c4.9,2.3,7.4,3.4,12.2,5.8C611.8,164,611.8,164.7,611.8,165.9z"/>
			<path class="st0" d="M630.5,166.2c0,3.2-0.6,5.3-1.8,6.3c-1.2,1-3.1,0.8-5.8-0.6c-2.6-1.4-4.6-3.2-5.8-5.5
				c-1.2-2.3-1.8-5-1.9-8.1c0-9.5,0-15,0-23.4c1.3,0.6,2,0.9,3.3,1.5c0,8.5,0,14.1,0,23.7c0,2.2,0.4,4,1.2,5.5
				c0.8,1.4,1.9,2.5,3.2,3.2c1.3,0.7,2.4,0.8,3.2,0.2c0.8-0.6,1.2-2,1.2-4.2c0-9.7,0-15.4,0-23.9c1.3,0.6,1.9,1,3.2,1.6
				C630.5,150.8,630.5,156.6,630.5,166.2z"/>
			<path class="st0" d="M649.4,176.9c0,4-0.8,6-2.3,6.4c-1.5,0.4-3.5-0.1-5.9-1.5c-2.9-1.7-4.3-2.5-7.2-4.2c0-11.2,0-22.3,0-33.5
				c3,1.6,4.5,2.4,7.5,4.1c2.4,1.4,4.2,3.2,5.4,5.5c1.2,2.3,1.8,4.6,1.8,7c0,2.4-0.4,4-1.2,4.7c-0.8,0.7-2.5,0.9-2.5,0.9
				c0,0.1,2.2,2.6,3.1,4.5C649,172.7,649.4,174.7,649.4,176.9z M645.5,158.9c0-1.8-0.4-3.2-1.1-4.4c-0.7-1.2-1.7-2.1-2.8-2.7
				c-1.8-1-2.7-1.5-4.5-2.5c0,4,0,6.3,0,10.7c1.7,1,2.6,1.5,4.3,2.5c1.1,0.6,2,0.7,2.8,0.3C645.1,162.2,645.5,160.9,645.5,158.9z
				 M646,174.9c0-2.2-0.5-4.2-1.5-5.7c-1-1.5-2.2-2.7-3.4-3.4c-1.5-0.9-2.3-1.3-3.8-2.2c0,5.2,0,7.9,0,12.6c1.4,0.8,2,1.2,3.4,2
				c1.8,1,3.1,1.4,4,1C645.5,178.8,646,177.4,646,174.9z"/>
		</g>
	</g>
	<g>
		<path class="st2" d="M172.4,288.1c13-13.6,20.6-32.7,22.7-57.2c5.4,1.3,9.5,2.3,12.3,2.9c0,0.2-0.2,0.8-0.7,1.6
			c-0.4,0.9-0.7,1.4-0.7,1.6c-5.2,24-12.9,42.8-23.1,56.2C179.2,290.7,175.7,289,172.4,288.1z M239.6,294.3c-10-9.5-17-21-21.1-34.4
			c-1.7-4.5-3.4-12.1-4.9-22.7c-0.7-5.2-1.2-9.2-1.6-12c1.1,0.2,2.1,0.3,2.9,0.3c6.1,0.2,9,0.4,8.8,0.7c0,0.4-0.1,1-0.3,1.6
			c-0.2,0.9-0.3,1.6-0.3,2.3c0.4,24.3,9.2,42.4,26.3,54.6C244.8,288.3,241.6,291.5,239.6,294.3z"/>
		<path class="st2" d="M291.7,263.5l4.9-1.6h-12.3v-16.2h55.2v16.2h-13l5.2,1.9c-0.2,0.4-1.3,1.4-3.2,2.9h20.1v6.8h-74.4v-6.8h19.5
			c-0.2-0.2-0.7-0.9-1.3-1.9C291.9,264.1,291.7,263.7,291.7,263.5z M275.8,232.6v-6.8H306v-4.5h3.2c6.1,0,8.9,0.4,8.4,1.3
			c0,0.4-0.2,0.9-0.7,1.3c-0.2,0.6-0.3,1.3-0.3,1.9h29.6v6.8h-29.6v3.6H342v6.2H281v-6.2h25v-3.6H275.8z M295.3,294v3.6h-10.4v-20.5
			h53.9v20.8h-11.4V294H295.3z M328.1,255.3v-3.6h-33.1v3.6H328.1z M327.7,288.1v-4.2h-32.5v4.2H327.7z M306,266.7h11
			c1.1-1.9,1.8-3.6,2.3-4.9h-15.6L306,266.7z"/>
		<path class="st2" d="M460.8,244.6v-14.3h31.5c-0.2-1.7-0.3-3.5-0.3-5.2c-0.2-1.9-0.2-3.1,0-3.6c1.7,0.2,2.3,0.3,1.6,0.3
			c6.3,0.2,9.2,0.3,8.8,0.3c0.2,0.2,0.2,0.8,0,1.6c-0.4,1.9-0.4,4.1,0,6.5h6.8c-0.4-0.4-1.4-1.5-2.9-3.2c-0.7-0.9-1-1.4-1-1.6
			l6.5-3.9c1.9,1.9,4.1,4.2,6.5,6.8l-3.2,1.9h9.7v8.1h-22.4c0.4,3.7,1.2,6.8,2.3,9.4c0.4-0.4,1.6-2.1,3.6-4.9
			c1.1-1.1,2.1-2.3,2.9-3.6c5.8,3.2,9.1,5.1,9.7,5.5c-5.6,4.5-9.5,8.2-11.7,11c2.8,3.2,5.2,4.8,7.1,4.5c1.1,0,1.9-1.6,2.6-4.9
			c3.2,1.5,5.6,2.6,7.1,3.2c0.7,0.2,1.2,0.3,1.6,0.3c-0.4,1.3-0.8,2.5-1,3.6c-0.7,3.7-1.4,6.3-2.3,7.8c-0.9,1.3-2.1,1.9-3.6,1.9
			c-1.5,0-3-0.3-4.5-1v15.3h10.7v8.4h-73.7v-8.4h10.1v-15.6c-0.4,0.4-0.8,1-1,1.6l-1,1c-1.1-0.6-3-1.6-5.8-2.9
			c-0.9-0.7-1.8-1.3-2.9-1.9C457.9,262.7,460.6,254.6,460.8,244.6z M480,255v-4.2h-9.4c-0.4,5.4-2.4,11.5-5.8,18.2h27
			c-1.1-1.3-2.7-2.9-4.9-4.9c-3.7,1.3-7.5,1.9-11.4,1.9c0-1.5-0.9-4.4-2.6-8.8C478,257.5,480.4,256.7,480,255z M493,238.4h-22.1v4.5
			h18.8v14.6c0,1.7-0.4,3.1-1.3,4.2c3.9-2.6,6.8-5,8.8-7.1C495,251,493.6,245.6,493,238.4z M472.8,276.8v10.1h5.2v-10.1H472.8z
			 M492.3,286.8v-10.1h-5.5v10.1H492.3z M493.9,269h15.9c-2.2-1.1-4.8-3.2-7.8-6.5C499.5,264.9,496.7,267,493.9,269z M501.1,276.8
			v10.1h5.2v-10.1H501.1z"/>
		<path class="st2" d="M602.2,244.3v-20.5c1.7,0,3.2,0,4.5,0c4.8,0,7.1,0.3,7.1,1c0,0.2-0.1,0.7-0.3,1.3c-0.4,1.7-0.6,3.7-0.6,5.8
			v12.3h14.9v9.4h-14.9v22.1H582v-22.1h-7.8v31.5h48.4v8.8h-58.8v-40.3h-12.3v-9.4h12.3V228c5.2,0,8.1,0.1,8.8,0.3
			c1.1,0,1.8,0.2,2.3,0.7c0.2,0.4,0.2,1,0,1.6c-0.4,1.3-0.6,2.9-0.6,4.9v8.8h7.8v-20.1c5.2,0,8.1,0.1,8.8,0.3c1.1,0,1.8,0.1,2.3,0.3
			c0,0.2-0.1,0.7-0.3,1.3c-0.4,1.7-0.6,3.7-0.6,5.8v12.3H602.2z M602.2,267v-13.3h-10.1V267H602.2z"/>
	</g>
	<g>
		<path class="st2" d="M441,466.5c0,10.6-8.6,19.2-19.2,19.2c-10.6,0-19.2-8.6-19.2-19.2c0-10.6,8.6-19.2,19.2-19.2
			C432.4,447.3,441,455.9,441,466.5z"/>
		<path class="st2" d="M296.2,390.4c0,10.6-8.6,19.2-19.2,19.2s-19.2-8.6-19.2-19.2c0-10.6,8.6-19.2,19.2-19.2
			S296.2,379.9,296.2,390.4z"/>
		<path class="st2" d="M431.5,257.2c0,10.6-8.6,19.2-19.2,19.2c-10.6,0-19.2-8.6-19.2-19.2c0-10.6,8.6-19.2,19.2-19.2
			C423,238.1,431.5,246.6,431.5,257.2z"/>
		<path class="st3" d="M309.4,543c-7.4-16.7-33.5-18-33.5-23c0-5.8,17.4-10.9,17.4-21c0-10.1-21.5-19.4-21.5-33.1
			c0-13.8,57-28.8,57.7-67.5c0.3-15.9-15.4-30.8-15.4-30.8c9.2,64.6-84.2,53.2-84.5,90.9c-0.2,21,27.5,28.2,11.6,35.5
			c-34.8,15.8-46.2,42.3-48.7,60.3c11.9,20.8,26,40.7,42.3,59.6C243.4,577.8,272.7,549.8,309.4,543z"/>
		<path class="st3" d="M465.6,543.9c0-26.8,38-56.8,38-89.4s-21.7-45.6-21.7-45.6c4.3,23.4-16.3,94.5-60.1,94.5
			c-20.4,0-36.9-16.5-36.9-36.9c0-20.4,16.5-36.9,36.9-36.9c6.4,0,12.5,1.6,17.7,4.5c1.6-0.1,2.9-0.3,3.8-0.7
			c14.1-6.5,25.5-15.4,25.2-40.7c-0.5-37.5-68.1-38.6-74.6-104.3c-2.1-21.1-26.1-26.1-26.1-26.1s3.3,13,1.1,21.7
			c-2.1,8.4-17.4,14.5-17.4,47.8s22.1,31.1,22.1,48.5c0,17.4-65.9,44.2-65.9,93.4c0,33.6,15.8,54,25.9,68
			c49.1,3.5,87.8,44.4,87.8,94.4c0,36.8-21,68.7-51.7,84.4c14.2,7.5,25,12.2,30.3,14.4c10.7-4.5,43.1-18.9,81.1-45.4
			c-5.6-0.3-11.1-1.9-13.6-2.9c-14-5.7-26.2-14-26.2-35.4c0-11.4,7.3-24.2,24.1-24.2c14.1,0,19.3,14.6,19.3,14.6s-7.9-7.6-18-7.6
			c-10.6,0-15.7,8.3-15.7,19.4c0,11.8,11.4,19.1,21,21.5c5.6,1.4,13.4,2.4,25.9,2.3c3.3-2.6,6.7-5.2,10.1-7.9c0.1,0,0.1-0.1,0.2-0.1
			c1.5-1.2,3.1-2.5,4.6-3.8c0.2-0.2,0.4-0.3,0.6-0.5c1.7-1.4,3.4-2.9,5.1-4.3c1.1-0.9,2.2-1.9,3.3-2.9c4.4-9.2,7.4-19.8,7.4-31.8
			C529.3,580.7,465.6,585.4,465.6,543.9z"/>
		<path class="st3" d="M374.9,152.6c0,0,42.9,4.3,42.9,38c0,32-36.9,42.7-36.9,42.7s12.7-23.2,12.7-42S374.9,152.6,374.9,152.6z"/>
	</g>
	<path class="st2" d="M399.2,687.4c10.1-14.2,16.1-31.6,16.3-50.3l-26.4,4.8l-21.5-16.9l-0.9-31.3l15.4-9.8l18,2.1
		c-4.6-6.8-10.1-12.8-16.4-18.1l-3.1,11.8l-15.5,9.8L334,575.2l-6.9-17l3.7-10.9c-1.4-0.1-2.7-0.1-4.1-0.1c-8.3,0-16.2,1.1-23.8,3.3
		l19.9,8.7l6.8,16.9l-23.1,27.5l-25.9,2.8L260.3,577c-10.4,11.7-17.8,26.3-20.9,42.3c6.4,7.2,13.2,14.3,20.3,21.2l21.2-29.9
		l24.4-2.7l24.8,28.3l-10.5,27.4l-30.1,3.5c16.9,13.9,33.5,25.5,48.5,35l10.8-14.7l28.6-4L399.2,687.4z M323.9,664.7l10.5-27.4
		l30.9-8.7l20.7,16.3l-11.6,34.5l-26.5,3.7L323.9,664.7z"/>
</g>
</svg>
