<?xml version="1.0" encoding="UTF-8"?>
<svg data-name="图层_1" xmlns="http://www.w3.org/2000/svg" version="1.1" viewBox="0 0 800 800">
  <!-- Created by @FCLOGO 2025-7-17 GMT+8 10:29:03 . https://fclogo.top/ -->
<!-- FOR PERSONAL USE ONLY NOT FOR COMMERCIAL USE -->
  <path d="M473.3401,552.0209c-26.1059-22.5204-56.1231-39.1842-82.7177-33.1441-22.7344,5.1744-35.538,25.8412-37.6768,35.5482-6.5597-7.8534-8.9532-10.1654-8.5968-12.5897,3.2594-22.1027,62.1632-74.5387,128.9913,10.1855ZM398.7608,269.8066c-6.9263,61.0328-24.7512,256.4244-135.8056,309.1455,123.3179-1.9251,150.3202-258.9809,135.8056-309.1455ZM408.3091,377.425c-3.1354.0294-6.2987-.033-9.528-.2603v-.0011c-.2544,3.1876-.6621,6.3052-1.212,9.4323,3.9212.4533,7.8184.4694,11.6287.1758,2.5863,24.2186,7.3783,47.243,13.9026,68.4674-11.9507,2.5202-25.5034,4.1743-38.8236,3.0741-.7233,2.7602-1.5687,5.4695-2.5058,8.1686,14.4181,1.1298,29.9298-1.5698,43.1046-5.61,25.0007,76.5318,72.4746,128.1192,118.0836,124.3754-19.8554-11.2208-68.8102-59.8458-98.8819-131.9446,5.1628-2.6146,9.0713-5.2261,11.1018-7.4364-3.1018,1.1217-7.3427,2.6256-12.4027,4.2071-8.2478-20.3481-14.9485-42.511-19.0848-66.1926,6.6816-2.1753,12.6303-5.3298,17.1666-9.1412-6.2648.6602-12.31,1.3854-18.3327,1.9241-.9257-6.159-1.7194-12.3913-2.2731-18.7409v.0002c-2.5667-29.4264-2.2407-57.7832.5501-84.1233,2.3326-22.0419-16.2564-27.3384-10.695-45.9781-8.4234,17.2748,7.5985,22.4899,3.178,45.3158-6.0851,31.2467-8.0402,66.8317-4.9764,104.2878ZM403.7822,266.5164c-4.4715-1.9247-16.3174-1.2933-9.9412-8.077,5.3679-5.7139,14.7387-18.5989,10.4199-35.0591.9168,22.806-15.8081,32.1665-17.4888,34.7127-6.59,10.0226,16.2768,8.0163,17.0101,8.4234ZM394.7272,178.0337l-1.8028-62.8865-15.3602.4381,1.7927,62.876,15.3702-.4276ZM315.6354,183.6367l-6.0401-62.6218,32.0237-3.0874c7.5985-.733,13.2414.3042,16.9286,3.1375,3.901,2.7503,6.1725,7.4153,6.804,13.9747.4686,4.8687-.2343,8.9515-2.1186,12.2737v.0027c-1.6604,2.9759-4.217,5.1547-7.6494,6.5291l17.6415,24.2319-16.6332,1.5977-15.4109-22.4187-13.1599,1.2741,2.2815,23.6818-14.6673,1.4245ZM325.5054,132.5966l1.2629,13.0272,14.3314-1.3858c3.8602-.3657,6.5086-1.1511,7.9447-2.3328v.0004c1.2732-1.1612,1.7929-2.9227,1.5586-5.2557-.2343-2.3518-1.0391-3.9612-2.4549-4.8079-1.5787-.7856-4.3492-1.0203-8.3116-.6314l-14.3312,1.386ZM521.8645,161.5686l35.6906,5.6125,1.9661-12.5181-35.7009-5.6125c.6621-4.217,2.3426-7.1504,5.0419-8.7901l.0002.0152c2.6685-1.7208,6.4883-2.179,11.4791-1.3976l21.1251,3.3223,1.986-12.6096-20.1166-3.1569c-3.0862-.477-5.7652-.7618-8.0873-.8465-2.3734-.0794-4.5938.0266-6.6717.3467-2.0882.3076-3.9419.7858-5.5206,1.3626-1.6195.5812-3.178,1.3936-4.6957,2.433-2.8517,2.2019-4.9604,5.0216-6.3762,8.4642-1.4872,3.4841-2.8622,9.1262-4.0945,16.9592l-4.5123,28.6625,14.6264,2.2906,3.8604-24.5376ZM262.1199,193.0172l-15.6046,2.872,14.5249-66.6246,14.7387-2.7196,37.4934,57.0803-16.2766,2.9951-8.0366-13.2106-24.1808,4.4411-2.6584,15.1663ZM267.2738,164.1612l14.4128-2.6487-10.8274-17.4888-3.5855,20.1375ZM424.7545,153.5474l14.9424.5387c1.589.0794,2.8825.1924,3.8604.3969.9268.1924,1.6807.5309,2.3121,1.0087,1.0797,1.0778,1.5992,2.6601,1.5278,4.7362-.082,2.0174-.7537,3.4531-2.0065,4.3085-.6722.5079-1.5685.8351-2.7296.9971-1.212.1924-2.6484.2698-4.2373.2311l-32.645-1.1817-.4787,12.9157,34.6312,1.2741c7.4459.2698,13.0479-1.101,16.786-4.0945,3.7178-2.9835,5.7346-7.7618,5.9486-14.3008.2343-6.5088-1.1308-11.2451-4.1253-14.2089-2.9945-2.9643-8.1384-4.5734-15.4314-4.8383v-.0057l-16.7046-.6006c-2.2612-.0794-4.003-.6314-5.2151-1.6285-1.0083-1.0201-1.487-2.3943-1.4158-4.1352.082-2.4638.7742-4.1559,2.0677-5.0624,1.314-1.051,3.5752-1.5168,6.804-1.3976l32.3192,1.1319.4685-13.0071-34.1932-1.2434c-7.5579-.2698-13.1702,1.101-16.8472,4.1454-3.7279,3.0952-5.7346,7.9958-5.9687,14.698-.214,6.3455,1.2935,11.0818,4.5732,14.2393,3.5243,3.1375,8.7699,4.8283,15.7572,5.0829ZM563.066,177.5869c.5397,4.3287,2.0269,8.1891,4.4715,11.5911,2.0065,2.6987,4.278,4.777,6.8143,6.2234,2.475,1.4551,6.0196,2.7602,10.6542,3.9216l21.8482,5.4798,3.1271-12.3653-21.2881-5.3373c-4.9502-1.2512-8.067-3.2991-9.3504-6.1626-1.3752-2.891-1.2631-7.4457.2964-13.6895,1.8336-7.3336,4.1762-12.2329,6.9875-14.7077l-.0013-.0011c1.4464-1.232,3.0454-2.0289,4.8484-2.3829,1.7724-.2698,3.901-.0794,6.3253.5503l21.2881,5.3271,3.0659-12.2023-21.5121-5.3985c-9.7477-2.4446-17.5602-1.6824-23.4271,2.333-5.9178,4.0129-10.2264,11.367-12.9154,22.0723-1.3957,5.4695-1.7929,10.3895-1.2324,14.7489ZM194.5888,210.6733l-17.061-60.5539,27.3996-7.7107c4.5529-1.2857,8.2096-2.0438,10.9903-2.3136,1.6602-.1367,3.0456-.1808,4.1659-.1542,1.1612.1118,2.2409.3122,3.2288.6198,3.2697,1.0592,6.0299,2.8327,8.2912,5.2965l-.0002-.0061c2.2511,2.475,3.9113,5.5806,4.9809,9.3301,1.0286,3.6565,1.3138,6.9377.886,9.8595-.5193,3.2087-1.6602,5.896-3.3918,8.0672-1.7416,2.1708-3.789,3.8724-6.1522,5.1235-1.4055.6929-2.9639,1.3664-4.6752,2.0174-1.7927.7045-3.9419,1.4162-6.4883,2.1288l-13.7507,3.8703,5.7652,20.4324-14.1888,3.9929ZM195.2612,158.7036l4.2474,15.0748,13.771-3.8805c1.7316-.489,3.1983-1.0393,4.39-1.6822,1.1408-.6122,2.027-1.3976,2.6584-2.3639v.0046c1.1917-1.6503,1.4361-3.7476.7333-6.2847-.7639-2.7006-2.0472-4.4217-3.8705-5.1644-1.8945-.7159-4.8484-.5119-8.882.62l-13.0477,3.6764ZM460.8118,645.8822c0,33.5208-27.2874,60.8083-60.8186,60.8083s-60.7983-27.2876-60.7983-60.8083c0-33.5413,27.2773-60.7985,60.7983-60.7985s60.8186,27.2467,60.8186,60.7985ZM455.1791,645.8518c0-30.4146-24.7512-55.1862-55.186-55.1862s-55.1757,24.7715-55.1757,55.1862c0,30.4346,24.751,55.186,55.1757,55.186s55.186-24.721,55.186-55.186ZM413.7947,666.8237c31.8302-23.0297,18.2018-61.603,2.3835-63.4466-10.7662,5.7344-57.6611,33.9999-57.6611,33.9999,26.055-6.5088,64.2208-6.4679,55.2777,29.4468ZM400.5433,687.6433c25.9428-.4071,37.9009-20.5443,37.9009-20.5443h-74.6s10.7867,20.9719,36.6991,20.5443ZM228.6295,232.6392c-11.9479,2.4638-38.1047,9.7883-48.6571,12.6708-17.2342,41.0278-24.6595,340.5479,152.1333,451.5614-170.6304-142.5383-123.3179-403.3219-103.4762-464.2322ZM575.9915,232.6394c19.8314,60.9107,67.1437,321.694-103.4762,464.2322,176.7825-111.0037,169.3572-410.5232,152.1333-451.5614-10.5627-2.8834-36.7092-10.2059-48.6571-12.6708ZM688.5228,349.031c-12.4775,91.1312-46.4774,219.0939-137.6697,311.2031-73.8052,74.5387-136.9972,89.7659-149.8821,89.7659-13.0377,0-78.9796-17.1117-147.3969-89.9596C103.5901,500.3597,93.0886,197.9163,112.2886,140.4794c14.1988-42.4643,143.3531-90.5145,288.6008-90.4794,145.2272.0507,251.3926,39.5,279.5764,84.8667,12.5795,20.2496,14.4436,117.584,14.4331,117.9809.1832.1428-1.7113,61.8987-6.3762,96.1834ZM668.8554,254.9477c-59.763-26.2141-166.0484-47.844-267.375-47.844h-2.3935c-101.3373,0-207.6249,21.634-267.3842,47.8521-.1529-3.1677-.2548-6.3065-.326-9.3709,59.688-26.2889,166.1486-48.0255,267.71-48.0255h2.3937c101.2843,0,207.4187,21.6149,267.1912,47.8037-.0004-.0175-.0006-.0355-.0009-.053-1.2529-44.2669-6.9975-76.576-13.4655-87.933-24.7715-43.5132-148.6904-69.7666-254.1834-70.0365h-1.2732c-109.9544,0-241.7367,38.0232-261.0996,75.3636-5.2865,10.2165-8.5968,41.3337-7.3336,84.3475.0716,3.0559.1836,6.1837.326,9.3404,4.5632,109.3333,37.3711,286.187,135.449,398.6266,61.1344,70.0771,122.1875,85.2438,134.0129,85.2438,11.7136,0,69.171-14.4533,136.2743-85.081,82.9011-87.2401,113.8148-208.4903,125.1309-294.8546h.0013c5.0318-38.4098,6.7938-74.446,6.3457-105.3792Z" style="fill: #0a0f2d;"/>
</svg>