<?xml version="1.0" encoding="utf-8"?>
<!-- Created by @FCLOGO 2024-9-25 GMT+8 16:07:21 . https://fclogo.top/ -->
<!-- FOR PERSONAL USE ONLY NOT FOR COMMERCIAL USE -->
<svg version="1.1" xmlns="http://www.w3.org/2000/svg" xmlns:xlink="http://www.w3.org/1999/xlink" x="0px" y="0px"
	 viewBox="0 0 800 800" style="enable-background:new 0 0 800 800;" xml:space="preserve">
<path style="fill:#CCCCCC;" d="M348.22,774.3c-0.79,0-1.38-0.22-1.77-0.65c-0.39-0.44-0.53-1.03-0.41-1.79l0.25-1.65
	c0.12-0.75,0.45-1.35,0.98-1.78c0.53-0.44,1.19-0.65,1.98-0.65c0.76,0,1.33,0.2,1.72,0.6c0.39,0.4,0.55,0.94,0.47,1.62h-1.24
	c0.03-0.36-0.06-0.64-0.26-0.84c-0.2-0.2-0.5-0.3-0.89-0.3c-0.42,0-0.76,0.12-1.03,0.35c-0.27,0.23-0.43,0.56-0.5,0.99l-0.26,1.66
	c-0.07,0.44-0.01,0.77,0.19,1c0.19,0.23,0.5,0.35,0.92,0.35c0.39,0,0.72-0.1,0.98-0.3c0.26-0.2,0.44-0.48,0.52-0.85h1.24
	c-0.14,0.69-0.47,1.23-0.99,1.63C349.61,774.1,348.97,774.3,348.22,774.3z M352.8,774.19l1-6.29h1.19l-0.19,1.19
	c0.34-0.87,0.97-1.3,1.91-1.3c0.67,0,1.17,0.21,1.49,0.62c0.32,0.42,0.43,0.99,0.31,1.71l-0.07,0.42h-1.27l0.06-0.32
	c0.07-0.45,0.01-0.8-0.17-1.04c-0.18-0.24-0.48-0.36-0.88-0.36c-0.4,0-0.74,0.12-1.01,0.37c-0.27,0.24-0.43,0.59-0.5,1.03
	l-0.63,3.97H352.8z M361.91,774.3c-0.77,0-1.35-0.22-1.73-0.67c-0.38-0.45-0.51-1.04-0.4-1.77l0.25-1.65
	c0.08-0.49,0.26-0.92,0.52-1.28c0.26-0.37,0.6-0.65,1.01-0.85c0.41-0.2,0.87-0.3,1.38-0.3c0.77,0,1.35,0.22,1.73,0.67
	c0.39,0.45,0.52,1.04,0.39,1.77l-0.17,1.12h-3.85l-0.09,0.53c-0.15,0.95,0.22,1.43,1.11,1.43c0.72,0,1.17-0.25,1.37-0.74h1.22
	c-0.17,0.53-0.5,0.96-1.01,1.28C363.16,774.14,362.58,774.3,361.91,774.3z M361.23,770.22l-0.05,0.29l2.65-0.01l0.05-0.29
	c0.07-0.47,0.01-0.82-0.17-1.07c-0.18-0.25-0.49-0.37-0.92-0.37c-0.44,0-0.8,0.13-1.06,0.38
	C361.48,769.39,361.31,769.75,361.23,770.22z M368.33,774.3c-0.63,0-1.1-0.21-1.41-0.64c-0.31-0.42-0.4-1-0.27-1.73l0.27-1.77
	c0.11-0.73,0.39-1.31,0.84-1.74c0.44-0.43,0.98-0.64,1.61-0.64c0.47,0,0.83,0.12,1.09,0.35c0.26,0.24,0.39,0.56,0.38,0.96h0.02
	l0.17-1.2h1.24l-1,6.29h-1.22l0.19-1.2h-0.02c-0.12,0.41-0.35,0.73-0.69,0.97C369.2,774.18,368.8,774.3,368.33,774.3z
	 M368.93,773.23c0.39,0,0.72-0.12,0.98-0.36c0.26-0.24,0.43-0.57,0.5-1.01l0.25-1.65c0.07-0.43,0.01-0.76-0.18-1
	c-0.19-0.24-0.47-0.36-0.86-0.36c-0.4,0-0.72,0.12-0.98,0.35c-0.26,0.24-0.42,0.57-0.49,1.01l-0.25,1.65
	c-0.07,0.44-0.01,0.78,0.17,1.01C368.24,773.11,368.53,773.23,368.93,773.23z M376.35,774.19c-0.57,0-0.99-0.16-1.26-0.47
	c-0.27-0.31-0.36-0.75-0.27-1.32l0.54-3.39h-1.74l0.17-1.12h1.74l0.27-1.72h1.24l-0.27,1.72h2.47l-0.18,1.12h-2.46l-0.54,3.39
	c-0.08,0.44,0.1,0.66,0.53,0.66h1.72l-0.17,1.12H376.35z M382.5,774.3c-0.77,0-1.35-0.22-1.73-0.67c-0.38-0.45-0.52-1.04-0.4-1.77
	l0.25-1.65c0.08-0.49,0.26-0.92,0.52-1.28c0.26-0.37,0.6-0.65,1.01-0.85c0.41-0.2,0.87-0.3,1.38-0.3c0.77,0,1.35,0.22,1.73,0.67
	c0.39,0.45,0.52,1.04,0.39,1.77l-0.17,1.12h-3.85l-0.09,0.53c-0.15,0.95,0.22,1.43,1.11,1.43c0.72,0,1.17-0.25,1.37-0.74h1.22
	c-0.17,0.53-0.5,0.96-1.01,1.28C383.76,774.14,383.18,774.3,382.5,774.3z M381.83,770.22l-0.05,0.29l2.65-0.01l0.05-0.29
	c0.07-0.47,0.01-0.82-0.17-1.07c-0.18-0.25-0.49-0.37-0.92-0.37c-0.44,0-0.8,0.13-1.06,0.38
	C382.08,769.39,381.91,769.75,381.83,770.22z M388.92,774.3c-0.63,0-1.1-0.21-1.4-0.64c-0.3-0.42-0.39-1-0.28-1.73l0.27-1.77
	c0.11-0.73,0.39-1.31,0.84-1.74c0.44-0.43,0.98-0.64,1.61-0.64c0.47,0,0.83,0.12,1.09,0.35c0.26,0.24,0.39,0.56,0.38,0.96h0.02
	l0.21-1.47l0.3-1.8h1.24l-1.33,8.35h-1.22l0.19-1.2h-0.02c-0.12,0.41-0.35,0.73-0.69,0.97C389.8,774.18,389.4,774.3,388.92,774.3z
	 M389.53,773.23c0.39,0,0.72-0.12,0.98-0.36c0.26-0.24,0.43-0.57,0.5-1.01l0.25-1.65c0.08-0.43,0.02-0.76-0.17-1
	c-0.19-0.24-0.48-0.36-0.87-0.36c-0.4,0-0.72,0.12-0.98,0.35c-0.26,0.24-0.42,0.57-0.49,1.01l-0.25,1.65
	c-0.08,0.44-0.02,0.78,0.16,1.01C388.83,773.11,389.13,773.23,389.53,773.23z M401.02,774.3c-0.47,0-0.84-0.12-1.1-0.35
	c-0.26-0.23-0.39-0.56-0.38-0.97h-0.01l-0.19,1.2h-1.22l1.33-8.35h1.24l-0.29,1.8l-0.27,1.47h0.05c0.12-0.41,0.35-0.73,0.69-0.97
	c0.34-0.23,0.74-0.35,1.21-0.35c0.63,0,1.1,0.21,1.4,0.64c0.3,0.43,0.39,1.01,0.28,1.74l-0.27,1.77c-0.11,0.73-0.39,1.31-0.84,1.73
	C402.18,774.09,401.64,774.3,401.02,774.3z M400.77,773.23c0.4,0,0.72-0.12,0.98-0.35c0.26-0.23,0.42-0.57,0.5-1.01l0.25-1.65
	c0.07-0.43,0.01-0.77-0.17-1.01c-0.18-0.24-0.47-0.35-0.87-0.35c-0.39,0-0.72,0.12-0.98,0.36c-0.26,0.24-0.43,0.57-0.5,1l-0.25,1.65
	c-0.07,0.44-0.01,0.77,0.17,1.01C400.08,773.11,400.37,773.23,400.77,773.23z M405.47,776.25l0.17-1.06h1.93
	c0.64,0,1.01-0.3,1.1-0.9l0.1-0.67l0.21-1.19h-0.03c-0.12,0.42-0.35,0.74-0.68,0.97c-0.33,0.23-0.73,0.34-1.2,0.34
	c-0.63,0-1.09-0.2-1.4-0.6c-0.31-0.4-0.41-0.94-0.3-1.63l0.58-3.6h1.24l-0.56,3.48c-0.06,0.41,0,0.73,0.18,0.96
	c0.18,0.23,0.47,0.34,0.85,0.34c0.39,0,0.72-0.12,0.98-0.37c0.27-0.24,0.43-0.58,0.49-1.02l0.54-3.4h1.24l-1.01,6.41
	c-0.1,0.6-0.37,1.08-0.81,1.42c-0.44,0.35-1,0.52-1.67,0.52H405.47z M417.79,770.09h3.22l0.54-1.85h-5.47l-1.71,6.44h2.15l0.59-2.1
	h3.03l0.44-1.71h-3.03L417.79,770.09z M424.23,772.92c-0.59,0-1.02-0.39-1.02-1.12c0-0.88,0.63-1.76,1.61-1.76
	c0.49,0,0.88,0.24,1.02,0.78l1.95-0.83c-0.29-1.17-1.27-1.9-2.64-1.9c-2.78,0-4.15,2.15-4.15,3.9c0,1.76,1.27,2.83,3.07,2.83
	c1.37,0,2.34-0.59,2.98-1.42l-1.51-1.17C425.16,772.67,424.72,772.92,424.23,772.92z M430.91,768.23h-2.15l-1.76,6.44h5.12
	l0.49-1.85h-2.93L430.91,768.23z M439.75,771.01c0-1.66-1.32-2.93-3.22-2.93c-2.2,0-3.81,1.81-3.81,3.81c0,1.66,1.32,2.93,3.22,2.93
	C438.14,774.82,439.75,773.01,439.75,771.01z M434.92,771.7c0-0.83,0.59-1.71,1.51-1.71c0.78,0,1.17,0.54,1.17,1.22
	c0,0.83-0.59,1.71-1.51,1.71C435.31,772.92,434.92,772.38,434.92,771.7z M443.21,772.23h1.07l-0.2,0.68
	c-0.15,0.05-0.34,0.1-0.59,0.1c-0.68,0-1.27-0.39-1.27-1.22c0-1.02,0.73-1.9,1.95-1.9c0.59,0,1.12,0.24,1.51,0.59l1.37-1.37
	c-0.44-0.54-1.51-1.07-2.73-1.07c-2.59,0-4.29,1.76-4.29,3.86c0,2.05,1.61,2.88,3.22,2.88c0.93,0,1.85-0.29,2.49-0.68l0.93-3.32
	h-3.12L443.21,772.23z M450.78,768.08c-2.2,0-3.81,1.81-3.81,3.81c0,1.66,1.32,2.93,3.22,2.93c2.2,0,3.81-1.81,3.81-3.81
	C454,769.35,452.68,768.08,450.78,768.08z M450.34,772.92c-0.78,0-1.17-0.54-1.17-1.22c0-0.83,0.59-1.71,1.51-1.71
	c0.78,0,1.17,0.54,1.17,1.22C451.85,772.04,451.27,772.92,450.34,772.92z M437.94,767.5c-0.05,0.29,0.1,0.49,0.44,0.49
	s0.54-0.2,0.63-0.49c0.05-0.24-0.1-0.49-0.44-0.49C438.24,767.01,437.99,767.25,437.94,767.5z M432.13,765.5
	c-0.44,0-0.73,0.24-0.78,0.59c-0.05,0.34,0.1,0.59,0.54,0.59s0.73-0.24,0.78-0.59C432.77,765.74,432.57,765.5,432.13,765.5z
	 M433.01,767.3c-0.1,0.54,0.15,0.88,0.83,0.88c0.63,0,1.07-0.39,1.17-0.88s-0.15-0.88-0.83-0.88
	C433.5,766.43,433.11,766.82,433.01,767.3z M439.6,777.55l-2.44-1.81h-1.51l4.25,3.17l1.61-3.17h-0.98L439.6,777.55z M425.84,767.16
	l-2-1.46l23.13-2.78l-2.15,4.25h1.02l2.68-5.32l-26.99,3.22l2.78,2.1H425.84z M338.72,785.79l0.61-3.83h2.32l-0.08,0.52h-1.76
	l-0.18,1.14h1.63l-0.08,0.52h-1.62l-0.26,1.64H338.72z M342.97,785.84c-0.36,0-0.62-0.1-0.8-0.3c-0.17-0.2-0.23-0.47-0.18-0.82
	l0.27-1.7c0.06-0.34,0.2-0.61,0.44-0.82c0.24-0.2,0.54-0.3,0.89-0.3c0.36,0,0.62,0.1,0.8,0.3c0.17,0.2,0.24,0.47,0.18,0.81
	l-0.27,1.71c-0.06,0.34-0.2,0.62-0.44,0.82C343.63,785.74,343.33,785.84,342.97,785.84z M343.05,785.33c0.19,0,0.35-0.05,0.47-0.16
	c0.12-0.11,0.19-0.26,0.23-0.46l0.27-1.7c0.03-0.2,0.01-0.35-0.08-0.46c-0.08-0.11-0.22-0.16-0.41-0.16s-0.35,0.05-0.46,0.16
	c-0.12,0.1-0.19,0.26-0.22,0.46l-0.27,1.7c-0.03,0.2-0.01,0.35,0.08,0.46C342.72,785.28,342.86,785.33,343.05,785.33z M345,785.79
	l0.61-3.83h1.2c0.24,0,0.44,0.05,0.6,0.14c0.16,0.09,0.28,0.22,0.36,0.39c0.07,0.17,0.09,0.37,0.05,0.59
	c-0.04,0.26-0.14,0.48-0.3,0.67c-0.16,0.19-0.37,0.32-0.6,0.39l0.54,1.64h-0.62l-0.48-1.57h-0.54l-0.25,1.57H345z M345.89,783.71
	h0.64c0.19,0,0.35-0.06,0.48-0.17c0.13-0.11,0.21-0.26,0.24-0.45c0.03-0.19,0-0.35-0.09-0.46c-0.09-0.11-0.24-0.17-0.43-0.17h-0.64
	L345.89,783.71z M349.54,785.79l0.61-3.83h1.25c0.37,0,0.65,0.1,0.84,0.31c0.19,0.21,0.26,0.49,0.2,0.84
	c-0.04,0.23-0.12,0.44-0.25,0.61s-0.29,0.31-0.49,0.4c-0.2,0.09-0.42,0.14-0.66,0.14h-0.69l-0.24,1.52H349.54z M350.43,783.75h0.69
	c0.19,0,0.36-0.06,0.49-0.18c0.14-0.12,0.22-0.27,0.25-0.47c0.03-0.2,0-0.35-0.1-0.47c-0.1-0.12-0.25-0.18-0.44-0.18h-0.69
	L350.43,783.75z M352.75,785.79l0.61-3.83h2.25l-0.08,0.5h-1.7l-0.17,1.09h1.51l-0.08,0.5h-1.51l-0.19,1.24h1.69l-0.08,0.5H352.75z
	 M355.84,785.79l0.61-3.83h1.2c0.24,0,0.44,0.05,0.6,0.14c0.16,0.09,0.28,0.22,0.36,0.39c0.07,0.17,0.09,0.37,0.05,0.59
	c-0.04,0.26-0.14,0.48-0.3,0.67c-0.16,0.19-0.37,0.32-0.6,0.39l0.54,1.64h-0.62l-0.48-1.57h-0.54l-0.25,1.57H355.84z M356.74,783.71
	h0.64c0.19,0,0.35-0.06,0.48-0.17c0.13-0.11,0.21-0.26,0.24-0.45c0.03-0.19,0-0.35-0.09-0.46c-0.09-0.11-0.24-0.17-0.43-0.17h-0.64
	L356.74,783.71z M360.13,785.84c-0.39,0-0.67-0.1-0.87-0.29c-0.19-0.19-0.26-0.45-0.22-0.78h0.57c-0.03,0.17,0.01,0.31,0.12,0.41
	c0.11,0.1,0.27,0.15,0.48,0.15c0.2,0,0.37-0.05,0.5-0.15c0.13-0.1,0.21-0.23,0.24-0.4c0.02-0.15,0-0.28-0.06-0.39
	c-0.06-0.11-0.16-0.18-0.29-0.22l-0.46-0.14c-0.27-0.08-0.46-0.22-0.59-0.41c-0.13-0.19-0.17-0.42-0.13-0.68
	c0.04-0.21,0.11-0.39,0.23-0.55c0.12-0.16,0.27-0.28,0.46-0.37c0.19-0.09,0.4-0.13,0.64-0.13c0.35,0,0.62,0.1,0.8,0.29
	c0.18,0.19,0.25,0.44,0.2,0.76h-0.57c0.03-0.17,0-0.3-0.09-0.4c-0.09-0.1-0.23-0.14-0.42-0.14c-0.19,0-0.34,0.04-0.46,0.13
	c-0.12,0.09-0.19,0.21-0.21,0.38c-0.02,0.15-0.01,0.28,0.05,0.39c0.06,0.11,0.16,0.18,0.29,0.22l0.47,0.15
	c0.26,0.08,0.46,0.22,0.58,0.41c0.12,0.19,0.17,0.42,0.12,0.69c-0.04,0.22-0.12,0.41-0.24,0.57c-0.13,0.16-0.29,0.29-0.49,0.38
	C360.6,785.79,360.38,785.84,360.13,785.84z M363.27,785.84c-0.36,0-0.62-0.1-0.8-0.3c-0.17-0.2-0.23-0.47-0.18-0.82l0.27-1.7
	c0.06-0.34,0.2-0.61,0.44-0.82c0.24-0.2,0.54-0.3,0.89-0.3c0.36,0,0.62,0.1,0.8,0.3c0.17,0.2,0.24,0.47,0.18,0.81l-0.27,1.71
	c-0.06,0.34-0.2,0.62-0.44,0.82C363.92,785.74,363.62,785.84,363.27,785.84z M363.34,785.33c0.19,0,0.35-0.05,0.47-0.16
	c0.12-0.11,0.19-0.26,0.23-0.46l0.27-1.7c0.03-0.2,0.01-0.35-0.08-0.46c-0.08-0.11-0.22-0.16-0.41-0.16c-0.19,0-0.35,0.05-0.46,0.16
	c-0.12,0.1-0.19,0.26-0.22,0.46l-0.27,1.7c-0.03,0.2-0.01,0.35,0.08,0.46C363.02,785.28,363.15,785.33,363.34,785.33z
	 M365.28,785.79l0.61-3.83h0.71l0.62,3.19c0.01-0.1,0.02-0.22,0.03-0.36c0.01-0.14,0.03-0.29,0.04-0.44
	c0.02-0.15,0.04-0.29,0.06-0.41l0.31-1.98h0.52l-0.61,3.83h-0.71l-0.61-3.19c-0.01,0.09-0.02,0.21-0.03,0.34s-0.03,0.28-0.04,0.42
	c-0.02,0.15-0.04,0.28-0.06,0.41l-0.31,2.01H365.28z M368.23,785.79l1.59-3.83h0.75l0.37,3.83h-0.56l-0.07-0.97h-1.09l-0.39,0.97
	H368.23z M369.39,784.34h0.87l-0.09-1.1c-0.02-0.2-0.03-0.37-0.04-0.51c-0.01-0.14-0.01-0.24-0.01-0.3c-0.02,0.06-0.05,0.16-0.1,0.3
	c-0.05,0.14-0.11,0.31-0.19,0.5L369.39,784.34z M371.72,785.79l0.61-3.83h0.57l-0.52,3.31h1.67l-0.08,0.52H371.72z M376.68,785.84
	c-0.37,0-0.63-0.1-0.8-0.3c-0.17-0.2-0.22-0.48-0.17-0.82l0.44-2.76h0.57l-0.44,2.76c-0.03,0.2-0.01,0.35,0.07,0.46
	c0.08,0.11,0.21,0.17,0.41,0.17c0.19,0,0.35-0.06,0.46-0.17c0.12-0.11,0.19-0.27,0.22-0.46l0.44-2.76h0.57l-0.44,2.76
	c-0.06,0.35-0.2,0.62-0.43,0.82C377.35,785.74,377.05,785.84,376.68,785.84z M379.84,785.84c-0.39,0-0.67-0.1-0.87-0.29
	c-0.19-0.19-0.26-0.45-0.22-0.78h0.57c-0.03,0.17,0.01,0.31,0.12,0.41c0.11,0.1,0.27,0.15,0.48,0.15c0.2,0,0.37-0.05,0.5-0.15
	c0.13-0.1,0.21-0.23,0.24-0.4c0.02-0.15,0-0.28-0.06-0.39c-0.06-0.11-0.16-0.18-0.29-0.22l-0.46-0.14
	c-0.27-0.08-0.46-0.22-0.59-0.41c-0.13-0.19-0.17-0.42-0.13-0.68c0.04-0.21,0.11-0.39,0.23-0.55s0.27-0.28,0.46-0.37
	c0.19-0.09,0.4-0.13,0.64-0.13c0.35,0,0.62,0.1,0.8,0.29c0.18,0.19,0.25,0.44,0.2,0.76h-0.57c0.03-0.17,0-0.3-0.09-0.4
	c-0.09-0.1-0.23-0.14-0.42-0.14c-0.19,0-0.34,0.04-0.46,0.13c-0.12,0.09-0.19,0.21-0.21,0.38c-0.02,0.15-0.01,0.28,0.05,0.39
	c0.06,0.11,0.16,0.18,0.29,0.22l0.47,0.15c0.26,0.08,0.46,0.22,0.58,0.41c0.12,0.19,0.17,0.42,0.12,0.69
	c-0.04,0.22-0.12,0.41-0.24,0.57c-0.13,0.16-0.29,0.29-0.49,0.38C380.31,785.79,380.09,785.84,379.84,785.84z M381.91,785.79
	l0.61-3.83h2.25l-0.08,0.5h-1.7l-0.17,1.09h1.51l-0.08,0.5h-1.51l-0.19,1.24h1.69l-0.08,0.5H381.91z M386.94,785.84
	c-0.36,0-0.62-0.1-0.8-0.3c-0.17-0.2-0.23-0.47-0.18-0.82l0.27-1.7c0.06-0.34,0.2-0.61,0.44-0.82c0.24-0.2,0.54-0.3,0.89-0.3
	c0.36,0,0.62,0.1,0.8,0.3c0.17,0.2,0.24,0.47,0.18,0.81l-0.27,1.71c-0.06,0.34-0.2,0.62-0.44,0.82
	C387.6,785.74,387.3,785.84,386.94,785.84z M387.02,785.33c0.19,0,0.35-0.05,0.47-0.16c0.12-0.11,0.19-0.26,0.23-0.46l0.27-1.7
	c0.03-0.2,0.01-0.35-0.08-0.46c-0.08-0.11-0.22-0.16-0.41-0.16c-0.19,0-0.35,0.05-0.46,0.16c-0.12,0.1-0.19,0.26-0.22,0.46
	l-0.27,1.7c-0.03,0.2-0.01,0.35,0.08,0.46C386.7,785.28,386.83,785.33,387.02,785.33z M388.95,785.79l0.61-3.83h0.71l0.62,3.19
	c0.01-0.1,0.02-0.22,0.03-0.36c0.01-0.14,0.03-0.29,0.04-0.44c0.02-0.15,0.04-0.29,0.06-0.41l0.31-1.98h0.52l-0.61,3.83h-0.71
	l-0.61-3.19c-0.01,0.09-0.02,0.21-0.03,0.34c-0.01,0.13-0.03,0.28-0.04,0.42c-0.02,0.15-0.04,0.28-0.06,0.41l-0.31,2.01H388.95z
	 M392.25,785.79l0.61-3.83h0.57l-0.52,3.31h1.67l-0.08,0.52H392.25z M396.12,785.79l0.22-1.41l-0.75-2.42h0.58l0.45,1.45
	c0.03,0.09,0.05,0.18,0.07,0.27c0.02,0.08,0.03,0.15,0.03,0.19c0.02-0.04,0.05-0.1,0.09-0.19c0.04-0.08,0.09-0.17,0.14-0.27
	l0.9-1.45h0.6l-1.53,2.42l-0.22,1.41H396.12z M399.22,785.79l0.61-3.83h0.71l0.62,3.19c0.01-0.1,0.02-0.22,0.03-0.36
	c0.01-0.14,0.03-0.29,0.04-0.44c0.02-0.15,0.04-0.29,0.06-0.41l0.31-1.98h0.52l-0.61,3.83h-0.71l-0.61-3.19
	c-0.01,0.09-0.02,0.21-0.03,0.34c-0.01,0.13-0.03,0.28-0.04,0.42c-0.02,0.15-0.04,0.28-0.06,0.41l-0.31,2.01H399.22z M403.51,785.84
	c-0.36,0-0.62-0.1-0.8-0.3c-0.18-0.2-0.23-0.47-0.18-0.82l0.27-1.7c0.06-0.34,0.2-0.61,0.44-0.82c0.24-0.2,0.54-0.3,0.89-0.3
	c0.36,0,0.62,0.1,0.8,0.3c0.17,0.2,0.24,0.47,0.18,0.81l-0.27,1.71c-0.06,0.34-0.2,0.62-0.44,0.82
	C404.16,785.74,403.86,785.84,403.51,785.84z M403.58,785.33c0.19,0,0.35-0.05,0.47-0.16c0.12-0.11,0.19-0.26,0.23-0.46l0.27-1.7
	c0.03-0.2,0.01-0.35-0.08-0.46c-0.08-0.11-0.22-0.16-0.41-0.16c-0.19,0-0.35,0.05-0.46,0.16c-0.12,0.1-0.19,0.26-0.22,0.46
	l-0.27,1.7c-0.03,0.2-0.01,0.35,0.08,0.46C403.26,785.28,403.4,785.33,403.58,785.33z M406.38,785.79l0.52-3.31h-1.02l0.08-0.52
	h2.62l-0.08,0.52h-1.03l-0.52,3.31H406.38z M409.52,785.79l0.61-3.83h2.32l-0.08,0.52h-1.76l-0.18,1.14h1.63l-0.08,0.52h-1.62
	l-0.26,1.64H409.52z M413.77,785.84c-0.36,0-0.62-0.1-0.8-0.3c-0.18-0.2-0.23-0.47-0.18-0.82l0.27-1.7c0.06-0.34,0.2-0.61,0.44-0.82
	c0.24-0.2,0.54-0.3,0.89-0.3c0.36,0,0.62,0.1,0.8,0.3c0.17,0.2,0.24,0.47,0.18,0.81l-0.27,1.71c-0.06,0.34-0.2,0.62-0.44,0.82
	C414.42,785.74,414.13,785.84,413.77,785.84z M413.85,785.33c0.19,0,0.35-0.05,0.47-0.16c0.12-0.11,0.19-0.26,0.23-0.46l0.27-1.7
	c0.03-0.2,0.01-0.35-0.08-0.46c-0.08-0.11-0.22-0.16-0.41-0.16c-0.19,0-0.35,0.05-0.46,0.16c-0.12,0.1-0.19,0.26-0.22,0.46
	l-0.27,1.7c-0.03,0.2-0.01,0.35,0.08,0.46C413.52,785.28,413.66,785.33,413.85,785.33z M415.8,785.79l0.61-3.83h1.2
	c0.24,0,0.44,0.05,0.6,0.14c0.16,0.09,0.28,0.22,0.36,0.39c0.07,0.17,0.09,0.37,0.05,0.59c-0.04,0.26-0.14,0.48-0.3,0.67
	c-0.16,0.19-0.37,0.32-0.6,0.39l0.54,1.64h-0.62l-0.48-1.57h-0.54l-0.25,1.57H415.8z M416.69,783.71h0.64
	c0.19,0,0.35-0.06,0.48-0.17c0.13-0.11,0.21-0.26,0.24-0.45c0.03-0.19,0-0.35-0.09-0.46c-0.09-0.11-0.24-0.17-0.43-0.17h-0.64
	L416.69,783.71z M420.91,785.84c-0.36,0-0.63-0.1-0.81-0.3c-0.18-0.2-0.24-0.47-0.19-0.82l0.27-1.7c0.06-0.35,0.21-0.62,0.45-0.82
	s0.55-0.3,0.91-0.3c0.36,0,0.63,0.1,0.81,0.3c0.18,0.2,0.24,0.47,0.19,0.82h-0.57c0.03-0.2,0-0.35-0.09-0.46
	c-0.09-0.11-0.23-0.16-0.42-0.16c-0.19,0-0.35,0.05-0.48,0.16c-0.12,0.1-0.2,0.26-0.23,0.45l-0.27,1.71c-0.03,0.2,0,0.35,0.09,0.46
	c0.09,0.11,0.23,0.16,0.42,0.16c0.19,0,0.35-0.05,0.47-0.16c0.12-0.11,0.2-0.26,0.23-0.46h0.57c-0.03,0.23-0.11,0.43-0.24,0.59
	c-0.12,0.17-0.28,0.3-0.47,0.39C421.36,785.79,421.14,785.84,420.91,785.84z M424.03,785.84c-0.36,0-0.62-0.1-0.8-0.3
	c-0.18-0.2-0.23-0.47-0.18-0.82l0.27-1.7c0.06-0.34,0.2-0.61,0.44-0.82c0.24-0.2,0.54-0.3,0.89-0.3c0.36,0,0.62,0.1,0.8,0.3
	c0.17,0.2,0.24,0.47,0.18,0.81l-0.27,1.71c-0.06,0.34-0.2,0.62-0.44,0.82C424.69,785.74,424.39,785.84,424.03,785.84z
	 M424.11,785.33c0.19,0,0.35-0.05,0.47-0.16c0.12-0.11,0.19-0.26,0.23-0.46l0.27-1.7c0.03-0.2,0.01-0.35-0.08-0.46
	c-0.08-0.11-0.22-0.16-0.41-0.16c-0.19,0-0.35,0.05-0.46,0.16c-0.12,0.1-0.19,0.26-0.22,0.46l-0.27,1.7
	c-0.03,0.2-0.01,0.35,0.08,0.46C423.79,785.28,423.92,785.33,424.11,785.33z M425.97,785.79l0.61-3.83h0.69l0.18,1.23
	c0.02,0.12,0.04,0.23,0.05,0.33c0.01,0.1,0.02,0.18,0.03,0.24c0.02-0.06,0.05-0.14,0.09-0.24c0.04-0.11,0.09-0.22,0.15-0.34
	l0.57-1.22h0.71l-0.61,3.83h-0.54l0.2-1.29c0.02-0.17,0.06-0.35,0.1-0.55c0.04-0.2,0.09-0.4,0.14-0.61c0.05-0.2,0.1-0.4,0.14-0.59
	c0.05-0.19,0.09-0.35,0.13-0.49l-0.86,1.86h-0.55l-0.28-1.86c0,0.14-0.01,0.29-0.02,0.47c-0.01,0.18-0.02,0.37-0.04,0.57
	c-0.02,0.2-0.04,0.41-0.06,0.61c-0.02,0.2-0.05,0.4-0.08,0.57l-0.2,1.29H425.97z M429.11,785.79l0.61-3.83h0.69l0.18,1.23
	c0.02,0.12,0.04,0.23,0.05,0.33c0.01,0.1,0.02,0.18,0.03,0.24c0.02-0.06,0.05-0.14,0.09-0.24c0.04-0.11,0.09-0.22,0.15-0.34
	l0.57-1.22h0.71l-0.61,3.83h-0.54l0.2-1.29c0.02-0.17,0.06-0.35,0.1-0.55c0.04-0.2,0.09-0.4,0.14-0.61c0.05-0.2,0.1-0.4,0.14-0.59
	c0.05-0.19,0.09-0.35,0.13-0.49l-0.86,1.86h-0.55l-0.28-1.86c0,0.14-0.01,0.29-0.02,0.47c-0.01,0.18-0.02,0.37-0.04,0.57
	c-0.02,0.2-0.04,0.41-0.06,0.61c-0.02,0.2-0.05,0.4-0.08,0.57l-0.2,1.29H429.11z M432.41,785.79l0.61-3.83h2.25l-0.08,0.5h-1.7
	l-0.17,1.09h1.51l-0.08,0.5h-1.51l-0.19,1.24h1.69l-0.08,0.5H432.41z M435.51,785.79l0.61-3.83h1.2c0.24,0,0.44,0.05,0.6,0.14
	c0.16,0.09,0.28,0.22,0.36,0.39c0.07,0.17,0.09,0.37,0.05,0.59c-0.04,0.26-0.14,0.48-0.3,0.67c-0.16,0.19-0.37,0.32-0.6,0.39
	l0.54,1.64h-0.62l-0.48-1.57h-0.54l-0.25,1.57H435.51z M436.4,783.71h0.64c0.19,0,0.35-0.06,0.48-0.17
	c0.13-0.11,0.21-0.26,0.24-0.45c0.03-0.19,0-0.35-0.09-0.46c-0.09-0.11-0.24-0.17-0.43-0.17h-0.64L436.4,783.71z M439.8,785.84
	c-0.36,0-0.63-0.1-0.81-0.3c-0.18-0.2-0.24-0.47-0.19-0.82l0.27-1.7c0.06-0.35,0.21-0.62,0.45-0.82s0.55-0.3,0.91-0.3
	c0.36,0,0.63,0.1,0.81,0.3c0.18,0.2,0.24,0.47,0.19,0.82h-0.57c0.03-0.2,0-0.35-0.09-0.46c-0.09-0.11-0.23-0.16-0.42-0.16
	c-0.19,0-0.35,0.05-0.47,0.16c-0.12,0.1-0.2,0.26-0.23,0.45l-0.27,1.71c-0.03,0.2,0,0.35,0.09,0.46c0.09,0.11,0.23,0.16,0.42,0.16
	s0.35-0.05,0.47-0.16c0.12-0.11,0.2-0.26,0.23-0.46h0.57c-0.03,0.23-0.11,0.43-0.24,0.59c-0.12,0.17-0.28,0.3-0.47,0.39
	C440.25,785.79,440.04,785.84,439.8,785.84z M441.88,785.79l0.08-0.5h0.78l0.45-2.82h-0.78l0.08-0.5h2.13l-0.08,0.5h-0.78
	l-0.45,2.82h0.78l-0.08,0.5H441.88z M444.74,785.79l1.59-3.83h0.75l0.37,3.83h-0.56l-0.07-0.97h-1.09l-0.39,0.97H444.74z
	 M445.9,784.34h0.87l-0.09-1.1c-0.02-0.2-0.03-0.37-0.04-0.51c-0.01-0.14-0.01-0.24-0.01-0.3c-0.02,0.06-0.05,0.16-0.1,0.3
	c-0.05,0.14-0.11,0.31-0.19,0.5L445.9,784.34z M448.24,785.79l0.61-3.83h0.57l-0.52,3.31h1.67l-0.08,0.52H448.24z M453.19,785.84
	c-0.37,0-0.63-0.1-0.8-0.3c-0.17-0.2-0.22-0.48-0.17-0.82l0.44-2.76h0.57l-0.44,2.76c-0.03,0.2-0.01,0.35,0.07,0.46
	c0.08,0.11,0.21,0.17,0.41,0.17c0.19,0,0.35-0.06,0.46-0.17c0.12-0.11,0.19-0.27,0.22-0.46l0.44-2.76h0.57l-0.44,2.76
	c-0.06,0.35-0.2,0.62-0.43,0.82C453.86,785.74,453.56,785.84,453.19,785.84z M456.36,785.84c-0.39,0-0.67-0.1-0.87-0.29
	c-0.19-0.19-0.26-0.45-0.22-0.78h0.57c-0.03,0.17,0.01,0.31,0.12,0.41c0.11,0.1,0.27,0.15,0.48,0.15c0.2,0,0.37-0.05,0.5-0.15
	s0.21-0.23,0.24-0.4c0.02-0.15,0-0.28-0.06-0.39c-0.06-0.11-0.16-0.18-0.29-0.22l-0.46-0.14c-0.27-0.08-0.46-0.22-0.59-0.41
	c-0.13-0.19-0.17-0.42-0.13-0.68c0.04-0.21,0.11-0.39,0.23-0.55c0.12-0.16,0.27-0.28,0.46-0.37c0.19-0.09,0.4-0.13,0.64-0.13
	c0.35,0,0.62,0.1,0.8,0.29c0.18,0.19,0.25,0.44,0.2,0.76h-0.57c0.03-0.17,0-0.3-0.09-0.4c-0.09-0.1-0.23-0.14-0.42-0.14
	c-0.19,0-0.34,0.04-0.46,0.13c-0.12,0.09-0.19,0.21-0.21,0.38c-0.02,0.15-0.01,0.28,0.05,0.39c0.06,0.11,0.16,0.18,0.29,0.22
	l0.47,0.15c0.26,0.08,0.46,0.22,0.58,0.41c0.12,0.19,0.17,0.42,0.12,0.69c-0.04,0.22-0.12,0.41-0.24,0.57
	c-0.13,0.16-0.29,0.29-0.49,0.38C456.82,785.79,456.6,785.84,456.36,785.84z M458.42,785.79l0.61-3.83h2.25l-0.08,0.5h-1.7
	l-0.17,1.09h1.51l-0.08,0.5h-1.51l-0.19,1.24h1.69l-0.08,0.5H458.42z"/>
<g>
	<path style="fill:#0062B1;" d="M647.33,50H152.67v452.67C152.67,639.02,263.66,750,400,750s247.33-110.98,247.33-247.33V50
		L647.33,50z"/>
	<path style="fill:#FFFFFF;" d="M622.07,502.67c0,122.61-99.46,222.07-222.07,222.07s-222.07-99.46-222.07-222.07V227.55h444.15
		C622.07,227.55,622.07,502.67,622.07,502.67z"/>
	<g>
		<path style="fill:#231916;" d="M201.08,469.89v-10.3h155.4V250.25h243.34v219.64c0,11.41,0,22.93-0.33,34.34
			c-0.33,11.52-1.22,22.82-3.1,34.22c-3.88,22.82-11.74,44.3-23.37,64.35c-35.66,61.58-101.46,99.35-172.67,99.24
			c-71.11,0.22-137.01-37.55-172.67-99.24c-11.52-19.94-19.49-41.53-23.37-64.35c-1.88-11.41-2.77-22.71-3.1-34.22
			c-0.33-11.41-0.33-22.93-0.33-34.34H201.08z"/>
		<circle style="fill:#FFFFFF;" cx="400.55" cy="502.34" r="61.36"/>
		<circle style="fill:#E60013;" cx="487.28" cy="589.07" r="61.36"/>
	</g>
	<g>
		<path style="fill:#FFFFFF;" d="M204.51,87.1l6.53,25.03c0.89,3.54,1.33,5.32,1.77,7.86c0.44-2.55,1-5.21,1.77-8.09l6.76-24.81
			h12.85l4.43,49.95h-9.86l-1.88-26.69c-0.22-3.1-0.33-5.65-0.33-8.31c-0.55,2.88-1,4.65-1.88,7.64l-7.86,27.36h-8.53l-7.09-26.25
			c-0.66-2.44-1.55-5.98-1.99-8.86c0,2.99-0.11,5.87-0.33,8.97l-1.77,26.14h-9.97l4.65-49.95h12.85H204.51z"/>
		<polygon style="fill:#FFFFFF;" points="277.72,87.1 276.39,95.3 259.34,95.3 259.34,106.93 273.62,106.93 273.62,115.02 
			259.45,115.02 259.45,128.42 278.28,128.42 278.28,137.06 249.26,137.06 249.26,87.1 		"/>
		<rect x="287.69" y="87.1" style="fill:#FFFFFF;" width="10.52" height="49.95"/>
		<path style="fill:#FFFFFF;" d="M320.25,87.1v40.21c0,6.42-0.22,7.75-0.78,9.75c-1.44,6.09-7.09,9.97-11.63,11.74l-4.65-5.21
			c2.55-1.55,4.98-3.99,5.76-6.09c0.78-1.77,1-3.77,1-9.19V86.99h10.19L320.25,87.1z"/>
		<rect x="332.33" y="87.1" style="fill:#FFFFFF;" width="10.52" height="49.95"/>
		<path style="fill:#FFFFFF;" d="M369.76,87.1l6.42,13.62c1.33,2.77,1.88,4.54,2.55,6.42c0.55-1.44,1.55-3.88,2.66-6.2l6.42-13.84
			h11.85l-15.95,29.35v20.6H373.2v-20.6L357.69,87.1C357.69,87.1,369.76,87.1,369.76,87.1z"/>
		<path style="fill:#FFFFFF;" d="M410.74,116.9c1.11-3.32,1.77-5.65,2.66-9.3c1-3.77,2.33-9.64,2.33-9.64s1.55,6.53,1.99,8.86
			c1.11,4.76,2.77,10.08,2.77,10.08H410.74z M410.74,86.99l-16.39,50.06h10.52l3.54-11.85h14.62l3.54,11.85h10.74L421.6,86.99
			C421.6,86.99,410.74,86.99,410.74,86.99z"/>
		<path style="fill:#FFFFFF;" d="M471.55,97.85c-4.54-2.77-7.86-3.77-11.63-3.77c-4.1,0-6.98,2.33-6.98,5.76
			c0,2.55,1.33,3.88,5.54,4.98l5.98,1.66c8.2,2.22,12.63,7.42,12.63,14.84c0,10.08-8.2,16.84-20.6,16.84
			c-5.65,0-11.96-1.66-17.06-4.54l3.77-7.86c4.65,2.44,8.75,3.99,13.73,3.99c5.76,0,8.75-2.33,8.75-6.87c0-3.21-2.1-5.21-6.53-6.42
			l-5.54-1.55c-4.98-1.33-8.09-3.32-9.86-6.31c-1.33-2.22-2.1-4.87-2.1-7.64c0-9.08,7.31-15.51,17.94-15.51
			c6.09,0,12.29,1.88,16.61,5.09l-4.76,7.2L471.55,97.85z"/>
		<path style="fill:#FFFFFF;" d="M496.25,87.1v32.78c0,3.1,0.33,4.87,0.89,5.98c1.22,2.22,3.54,3.43,6.87,3.43
			c4.43,0,7.2-2.1,7.64-5.87c0.11-1.11,0.11-1.77,0.11-4.43V86.99h10.19v33.67c0,4.76,0,5.65-0.78,7.86
			c-1.33,3.99-6.2,9.41-16.95,9.41c-7.64,0-13.18-2.33-16.06-6.65c-1.66-2.66-2.1-4.65-2.1-9.41V87.1h10.3L496.25,87.1z"/>
		<path style="fill:#FFFFFF;" d="M543.88,95.08h4.65c3.99,0,6.2,1.44,7.86,4.21c1.99,3.32,2.55,8.2,2.55,13.96
			c0,10.52-2.99,15.62-9.64,15.62h-5.43C543.88,128.86,543.88,95.08,543.88,95.08z M533.69,87.22v49.95h12.18
			c2.88,0,5.32-0.11,7.2-0.33c4.65-0.33,9.08-3.1,12.07-7.2c3.32-4.54,4.98-10.52,4.98-17.28c0-8.97-2.22-15.4-6.87-19.94
			c-2.99-2.99-6.65-4.54-10.97-4.98c-1.99-0.11-5.87-0.33-8.75-0.33h-10.08L533.69,87.22z"/>
		<path style="fill:#FFFFFF;" d="M588.07,116.9c1.11-3.32,1.77-5.65,2.66-9.3c0.89-3.77,2.33-9.64,2.33-9.64s1.55,6.53,1.99,8.86
			c1.11,4.76,2.77,10.08,2.77,10.08H588.07z M588.07,86.99l-16.39,50.06h10.52l3.54-11.85h14.62l3.54,11.85h10.74l-15.73-50.06
			C598.92,86.99,588.07,86.99,588.07,86.99z"/>
	</g>
	<g>
		<g>
			<path style="fill:#FFFFFF;" d="M266.87,193.43l-3.77,4.54c5.98,7.09,17.94,3.1,17.94-7.2v-17.83h4.21v-5.43h-14.18v5.43h4.21
				v17.61c0,5.21-5.32,6.65-8.31,2.99L266.87,193.43z"/>
			<g>
				<polygon style="fill:#FFFFFF;" points="371.2,185.02 371.2,194.1 383.16,194.1 383.16,188.56 388.7,188.56 388.7,199.53 
					361.57,199.53 361.57,194.1 365.66,194.1 365.66,172.83 361.57,172.83 361.57,167.41 388.7,167.41 388.7,177.04 383.16,177.04 
					383.16,172.83 371.2,172.83 371.2,179.81 380.4,179.81 380.4,185.02 				"/>
				<path style="fill:#FFFFFF;" d="M454.6,176.71c-2.33-2.55-4.87-4.32-8.42-4.32c-6.42,0-11.41,4.54-11.41,10.97
					s4.87,11.08,11.19,11.08c4.76,0,8.42-2.77,9.86-6.87h-10.19v-5.65h16.61c0,0,0,0.78,0,1c0,10.52-7.75,17.17-16.5,17.17
					c-10.19,0-16.72-7.64-16.72-17.17s7.64-16.61,16.72-16.61c3.43,0,6.2,0.89,8.75,2.66v-1.77h5.65v11.41h-5.65v-2.1L454.6,176.71z
					"/>
				<polygon style="fill:#FFFFFF;" points="419.83,167.41 419.83,172.83 416.28,172.83 424.81,194.1 428.24,194.1 428.24,199.53 
					415.17,199.53 415.17,194.1 418.72,194.1 411.08,174.05 403.43,194.1 406.87,194.1 406.87,199.53 393.8,199.53 393.8,194.1 
					397.23,194.1 405.76,172.83 402.22,172.83 402.22,167.41 				"/>
				<path style="fill:#FFFFFF;" d="M483.29,200.41c-6.53,0-13.07-4.98-13.07-13.73v-13.84h-4.21v-5.43h13.96v5.43h-4.21v13.62
					c0,4.54,3.32,8.2,7.64,8.2c4.32,0,7.64-3.66,7.64-8.2v-13.62h-4.21v-5.43h13.96v5.43h-4.21v13.84c0,8.86-6.53,13.73-13.07,13.73
					H483.29z"/>
				<polygon style="fill:#FFFFFF;" points="515.3,185.02 515.3,194.1 527.26,194.1 527.26,188.56 532.8,188.56 532.8,199.53 
					505.55,199.53 505.55,194.1 509.76,194.1 509.76,172.83 505.55,172.83 505.55,167.41 532.8,167.41 532.8,177.04 527.26,177.04 
					527.26,172.83 515.3,172.83 515.3,179.81 524.49,179.81 524.49,185.02 				"/>
				<polygon style="fill:#FFFFFF;" points="344.84,167.41 330.78,167.41 330.78,172.83 334.98,172.83 334.98,194.1 330.78,194.1 
					330.78,199.53 356.58,199.53 356.58,188.56 350.93,188.56 350.93,194.1 340.52,194.1 340.52,172.83 344.84,172.83 				"/>
			</g>
		</g>
		<path style="fill:#FFFFFF;" d="M308.62,182.14c2.1-1.11,3.32-3.1,3.32-5.98c0-2.88-1.11-5.43-3.21-7.09
			c-1.88-1.55-3.99-2.33-6.42-2.33h-0.78c-3.1,0-5.43,0.55-6.98,1.77c-2.33,1.77-3.77,4.54-4.21,8.2v0.33l5.32,1.44v-0.44
			c0-2.22,0.78-3.66,2.22-4.65c1-0.66,2.33-1,3.88-1c1.66,0,2.88,0.44,3.66,1.22c0.66,0.66,1,1.77,1,3.1s-0.55,2.44-1.88,3.21
			c-0.89,0.55-1.77,0.89-2.66,0.89h-3.1v5.21h0.44c0.66-0.11,1.33-0.22,2.1-0.22c2.44,0,4.1,0.44,5.09,1.44c0.66,0.66,1,1.44,1,2.55
			c0,2.22-0.66,3.54-1.99,4.32c-0.89,0.55-2.33,0.78-4.21,0.78c-4.21,0-6.42-2.1-6.65-6.65v-0.55l-4.98,2.44v0.22
			c0.44,2.88,1.33,5.09,2.66,6.65c1.99,2.33,5.09,3.43,9.19,3.43c4.1,0,7.2-1.44,9.19-4.21c1.44-1.88,2.22-4.1,2.22-6.31
			c0-4.1-1.44-6.65-4.21-7.86V182.14z"/>
	</g>
</g>
</svg>
