<?xml version="1.0" encoding="UTF-8"?>
<svg id="_图层_1" data-name="图层_1" xmlns="http://www.w3.org/2000/svg" version="1.1" viewBox="0 0 800 800">
  <!-- Created by @FCLOGO 2024-12-5 GMT+8 15:27:32 . https://fclogo.top/ -->
<!-- FOR PERSONAL USE ONLY NOT FOR COMMERCIAL USE -->
  <defs>
    <style>
      .st0 {
        fill: #ccc;
      }

      .st1 {
        fill: #0a2240;
      }
    </style>
  </defs>
  <path class="st0" d="M348.22,774.3c-.79,0-1.38-.22-1.77-.65-.39-.44-.53-1.03-.41-1.79l.25-1.65c.12-.75.45-1.35.98-1.78.53-.44,1.19-.65,1.98-.65s1.33.2,1.72.6c.39.4.55.94.47,1.62h-1.24c.03-.36-.06-.64-.26-.84-.2-.2-.5-.3-.89-.3-.42,0-.76.12-1.03.35-.27.23-.43.56-.5.99l-.26,1.66c-.07.44,0,.77.19,1,.19.23.5.35.92.35.39,0,.72-.1.98-.3.26-.2.44-.48.52-.85h1.24c-.14.69-.47,1.23-.99,1.63-.52.4-1.16.6-1.92.6ZM352.8,774.19l1-6.29h1.19l-.19,1.19c.34-.87.97-1.3,1.91-1.3.67,0,1.17.21,1.49.62.32.42.43.99.31,1.71l-.07.42h-1.27l.06-.32c.07-.45.01-.8-.17-1.04-.18-.24-.48-.36-.88-.36s-.74.12-1.01.37c-.27.24-.43.59-.5,1.03l-.63,3.97h-1.24ZM361.91,774.3c-.77,0-1.35-.22-1.73-.67s-.52-1.04-.4-1.77l.25-1.65c.08-.49.26-.92.52-1.28s.6-.65,1.01-.85c.41-.2.87-.3,1.38-.3.77,0,1.35.22,1.73.67.39.45.52,1.04.39,1.77l-.17,1.12h-3.85l-.09.53c-.15.95.22,1.43,1.11,1.43.72,0,1.17-.25,1.37-.74h1.22c-.17.53-.5.96-1.01,1.28-.5.32-1.09.47-1.76.47ZM361.23,770.22l-.05.29h2.65s.05-.3.05-.3c.07-.47.01-.82-.17-1.07-.18-.25-.49-.37-.92-.37s-.8.13-1.06.38c-.26.25-.43.61-.51,1.08ZM368.33,774.3c-.63,0-1.1-.21-1.41-.64s-.4-1-.27-1.73l.27-1.77c.11-.73.39-1.31.84-1.74.44-.43.98-.64,1.61-.64.47,0,.83.12,1.09.35.26.24.39.56.38.96h.02l.17-1.2h1.24l-1,6.29h-1.22l.19-1.2h-.02c-.12.41-.35.73-.69.97s-.74.35-1.21.35ZM368.93,773.23c.39,0,.72-.12.98-.36.26-.24.43-.57.5-1.01l.25-1.65c.07-.43,0-.76-.18-1-.19-.24-.47-.36-.86-.36s-.72.12-.98.35c-.26.24-.42.57-.49,1.01l-.25,1.65c-.07.44-.01.78.17,1.01.18.23.47.35.88.35ZM376.35,774.19c-.57,0-.99-.16-1.26-.47-.27-.31-.36-.75-.27-1.32l.54-3.39h-1.74l.17-1.12h1.74l.27-1.72h1.24l-.27,1.72h2.47l-.18,1.12h-2.46l-.54,3.39c-.08.44.1.66.53.66h1.72l-.17,1.12h-1.77ZM382.5,774.3c-.77,0-1.35-.22-1.73-.67s-.52-1.04-.4-1.77l.25-1.65c.08-.49.26-.92.52-1.28s.6-.65,1.01-.85c.41-.2.87-.3,1.38-.3.77,0,1.35.22,1.73.67.39.45.52,1.04.39,1.77l-.17,1.12h-3.85l-.09.53c-.15.95.22,1.43,1.11,1.43.72,0,1.17-.25,1.37-.74h1.22c-.17.53-.5.96-1.01,1.28-.5.32-1.09.47-1.76.47ZM381.83,770.22l-.05.29h2.65s.05-.3.05-.3c.07-.47.01-.82-.17-1.07-.18-.25-.49-.37-.92-.37s-.8.13-1.06.38c-.26.25-.43.61-.51,1.08ZM388.92,774.3c-.63,0-1.1-.21-1.4-.64-.3-.42-.39-1-.28-1.73l.27-1.77c.11-.73.39-1.31.84-1.74.44-.43.98-.64,1.61-.64.47,0,.83.12,1.09.35.26.24.39.56.38.96h.02l.21-1.47.3-1.8h1.24l-1.33,8.35h-1.22l.19-1.2h-.02c-.12.41-.35.73-.69.97s-.74.35-1.21.35ZM389.53,773.23c.39,0,.72-.12.98-.36.26-.24.43-.57.5-1.01l.25-1.65c.08-.43.02-.76-.17-1-.19-.24-.48-.36-.87-.36s-.72.12-.98.35c-.26.24-.42.57-.49,1.01l-.25,1.65c-.08.44-.02.78.16,1.01s.48.35.88.35ZM401.02,774.3c-.47,0-.84-.12-1.1-.35-.26-.23-.39-.56-.38-.97h-.01l-.19,1.2h-1.22l1.33-8.35h1.24l-.29,1.8-.27,1.47h.05c.12-.41.35-.73.69-.97.34-.23.74-.35,1.21-.35.63,0,1.1.21,1.4.64.3.43.39,1.01.28,1.74l-.27,1.77c-.11.73-.39,1.31-.84,1.73-.45.42-.98.64-1.61.64ZM400.77,773.23c.4,0,.72-.12.98-.35.26-.23.42-.57.5-1.01l.25-1.65c.07-.43.01-.77-.17-1.01-.18-.24-.47-.35-.87-.35s-.72.12-.98.36-.43.57-.5,1l-.25,1.65c-.07.44-.01.77.17,1.01.18.24.47.36.87.36ZM405.47,776.25l.17-1.06h1.93c.64,0,1.01-.3,1.1-.9l.1-.67.21-1.19h-.03c-.12.42-.35.74-.68.97-.33.23-.73.34-1.2.34-.63,0-1.09-.2-1.4-.6s-.41-.94-.3-1.63l.58-3.6h1.24l-.56,3.48c-.06.41,0,.73.18.96s.47.34.85.34.72-.12.98-.37c.27-.24.43-.58.49-1.02l.54-3.4h1.24l-1.01,6.41c-.1.6-.37,1.08-.81,1.42-.44.35-1,.52-1.67.52h-1.95ZM417.79,770.09h3.22l.54-1.85h-5.47l-1.71,6.44h2.15l.59-2.1h3.03l.44-1.71h-3.03l.24-.78ZM424.23,772.92c-.59,0-1.02-.39-1.02-1.12,0-.88.63-1.76,1.61-1.76.49,0,.88.24,1.02.78l1.95-.83c-.29-1.17-1.27-1.9-2.64-1.9-2.78,0-4.15,2.15-4.15,3.9s1.27,2.83,3.07,2.83c1.37,0,2.34-.59,2.98-1.42l-1.51-1.17c-.39.44-.83.68-1.32.68ZM430.91,768.23h-2.15l-1.76,6.44h5.12l.49-1.85h-2.93l1.22-4.59ZM439.75,771.01c0-1.66-1.32-2.93-3.22-2.93-2.2,0-3.81,1.81-3.81,3.81,0,1.66,1.32,2.93,3.22,2.93,2.2,0,3.81-1.81,3.81-3.81ZM434.92,771.7c0-.83.59-1.71,1.51-1.71.78,0,1.17.54,1.17,1.22,0,.83-.59,1.71-1.51,1.71-.78,0-1.17-.54-1.17-1.22ZM443.21,772.23h1.07l-.2.68c-.15.05-.34.1-.59.1-.68,0-1.27-.39-1.27-1.22,0-1.02.73-1.9,1.95-1.9.59,0,1.12.24,1.51.59l1.37-1.37c-.44-.54-1.51-1.07-2.73-1.07-2.59,0-4.29,1.76-4.29,3.86s1.61,2.88,3.22,2.88c.93,0,1.85-.29,2.49-.68l.93-3.32h-3.12l-.34,1.46ZM450.78,768.08c-2.2,0-3.81,1.81-3.81,3.81,0,1.66,1.32,2.93,3.22,2.93,2.2,0,3.81-1.81,3.81-3.81,0-1.66-1.32-2.93-3.22-2.93ZM450.34,772.92c-.78,0-1.17-.54-1.17-1.22,0-.83.59-1.71,1.51-1.71.78,0,1.17.54,1.17,1.22,0,.83-.59,1.71-1.51,1.71ZM437.94,767.5c-.05.29.1.49.44.49s.54-.2.63-.49c.05-.24-.1-.49-.44-.49s-.59.24-.63.49ZM432.13,765.5c-.44,0-.73.24-.78.59s.1.59.54.59.73-.24.78-.59c.1-.34-.1-.59-.54-.59ZM433.01,767.3c-.1.54.15.88.83.88.63,0,1.07-.39,1.17-.88s-.15-.88-.83-.88c-.68,0-1.07.39-1.17.88ZM439.6,777.55l-2.44-1.81h-1.51l4.25,3.17,1.61-3.17h-.98l-.93,1.81ZM425.84,767.16l-2-1.46,23.13-2.78-2.15,4.25h1.02l2.68-5.32-26.99,3.22,2.78,2.1h1.51ZM338.72,785.79l.61-3.83h2.32l-.08.52h-1.76l-.18,1.14h1.63l-.08.52h-1.62l-.26,1.64h-.57ZM342.97,785.84c-.36,0-.62-.1-.8-.3-.17-.2-.23-.47-.18-.82l.27-1.7c.06-.34.2-.61.44-.82.24-.2.54-.3.89-.3s.62.1.8.3c.17.2.24.47.18.81l-.27,1.71c-.06.34-.2.62-.44.82-.24.2-.54.3-.9.3ZM343.05,785.33c.19,0,.35-.05.47-.16.12-.11.19-.26.23-.46l.27-1.7c.03-.2,0-.35-.08-.46-.08-.11-.22-.16-.41-.16s-.35.05-.46.16c-.12.1-.19.26-.22.46l-.27,1.7c-.03.2,0,.35.08.46s.22.16.41.16ZM345,785.79l.61-3.83h1.2c.24,0,.44.05.6.14.16.09.28.22.36.39s.09.37.05.59c-.04.26-.14.48-.3.67-.16.19-.37.32-.6.39l.54,1.64h-.62l-.48-1.57h-.54l-.25,1.57h-.57ZM345.89,783.71h.64c.19,0,.35-.06.48-.17.13-.11.21-.26.24-.45.03-.19,0-.35-.09-.46-.09-.11-.24-.17-.43-.17h-.64l-.2,1.25ZM349.54,785.79l.61-3.83h1.25c.37,0,.65.1.84.31.19.21.26.49.2.84-.04.23-.12.44-.25.61s-.29.31-.49.4c-.2.09-.42.14-.66.14h-.69l-.24,1.52h-.57ZM350.43,783.75h.69c.19,0,.36-.06.49-.18.14-.12.22-.27.25-.47s0-.35-.1-.47-.25-.18-.44-.18h-.69l-.21,1.29ZM352.75,785.79l.61-3.83h2.25l-.08.5h-1.7l-.17,1.09h1.51l-.08.5h-1.51l-.19,1.24h1.69l-.08.5h-2.25ZM355.84,785.79l.61-3.83h1.2c.24,0,.44.05.6.14.16.09.28.22.36.39s.09.37.05.59c-.04.26-.14.48-.3.67-.16.19-.37.32-.6.39l.54,1.64h-.62l-.48-1.57h-.54l-.25,1.57h-.57ZM356.74,783.71h.64c.19,0,.35-.06.48-.17.13-.11.21-.26.24-.45.03-.19,0-.35-.09-.46-.09-.11-.24-.17-.43-.17h-.64l-.2,1.25ZM360.13,785.84c-.39,0-.67-.1-.87-.29-.19-.19-.26-.45-.22-.78h.57c-.03.17.01.31.12.41.11.1.27.15.48.15.2,0,.37-.05.5-.15.13-.1.21-.23.24-.4.02-.15,0-.28-.06-.39-.06-.11-.16-.18-.29-.22l-.46-.14c-.27-.08-.46-.22-.59-.41-.13-.19-.17-.42-.13-.68.04-.21.11-.39.23-.55s.27-.28.46-.37.4-.13.64-.13c.35,0,.62.1.8.29.18.19.25.44.2.76h-.57c.03-.17,0-.3-.09-.4-.09-.1-.23-.14-.42-.14s-.34.04-.46.13c-.12.09-.19.21-.21.38-.02.15,0,.28.05.39s.16.18.29.22l.47.15c.26.08.46.22.58.41.12.19.17.42.12.69-.04.22-.12.41-.24.57-.13.16-.29.29-.49.38-.2.09-.42.13-.66.13ZM363.27,785.84c-.36,0-.62-.1-.8-.3-.17-.2-.23-.47-.18-.82l.27-1.7c.06-.34.2-.61.44-.82.24-.2.54-.3.89-.3s.62.1.8.3c.17.2.24.47.18.81l-.27,1.71c-.06.34-.2.62-.44.82-.24.2-.54.3-.9.3ZM363.34,785.33c.19,0,.35-.05.47-.16.12-.11.19-.26.23-.46l.27-1.7c.03-.2,0-.35-.08-.46-.08-.11-.22-.16-.41-.16s-.35.05-.46.16c-.12.1-.19.26-.22.46l-.27,1.7c-.03.2,0,.35.08.46s.22.16.41.16ZM365.28,785.79l.61-3.83h.71l.62,3.19c0-.1.02-.22.03-.36.01-.14.03-.29.04-.44.02-.15.04-.29.06-.41l.31-1.98h.52l-.61,3.83h-.71l-.61-3.19c0,.09-.02.21-.03.34s-.03.28-.04.42c-.02.15-.04.28-.06.41l-.31,2.01h-.53ZM368.23,785.79l1.59-3.83h.75l.37,3.83h-.56l-.07-.97h-1.09l-.39.97h-.59ZM369.39,784.34h.87l-.09-1.1c-.02-.2-.03-.37-.04-.51,0-.14-.01-.24-.01-.3-.02.06-.05.16-.1.3s-.11.31-.19.5l-.44,1.11ZM371.72,785.79l.61-3.83h.57l-.52,3.31h1.67l-.08.52h-2.25ZM376.68,785.84c-.37,0-.63-.1-.8-.3-.17-.2-.22-.47-.17-.82l.44-2.76h.57l-.44,2.76c-.03.2,0,.35.07.46.08.11.21.17.41.17s.35-.06.46-.17c.12-.11.19-.27.22-.46l.44-2.76h.57l-.44,2.76c-.06.35-.2.62-.43.82-.23.2-.53.3-.9.3ZM379.84,785.84c-.39,0-.67-.1-.87-.29-.19-.19-.26-.45-.22-.78h.57c-.03.17.01.31.12.41.11.1.27.15.48.15.2,0,.37-.05.5-.15.13-.1.21-.23.24-.4.02-.15,0-.28-.06-.39-.06-.11-.16-.18-.29-.22l-.46-.14c-.27-.08-.46-.22-.59-.41-.13-.19-.17-.42-.13-.68.04-.21.11-.39.23-.55s.27-.28.46-.37.4-.13.64-.13c.35,0,.62.1.8.29.18.19.25.44.2.76h-.57c.03-.17,0-.3-.09-.4-.09-.1-.23-.14-.42-.14s-.34.04-.46.13c-.12.09-.19.21-.21.38-.02.15,0,.28.05.39s.16.18.29.22l.47.15c.26.08.46.22.58.41.12.19.17.42.12.69-.04.22-.12.41-.24.57-.13.16-.29.29-.49.38-.2.09-.42.13-.66.13ZM381.91,785.79l.61-3.83h2.25l-.08.5h-1.7l-.17,1.09h1.51l-.08.5h-1.51l-.19,1.24h1.69l-.08.5h-2.25ZM386.94,785.84c-.36,0-.62-.1-.8-.3-.17-.2-.23-.47-.18-.82l.27-1.7c.06-.34.2-.61.44-.82.24-.2.54-.3.89-.3s.62.1.8.3c.17.2.24.47.18.81l-.27,1.71c-.06.34-.2.62-.44.82-.24.2-.54.3-.9.3ZM387.02,785.33c.19,0,.35-.05.47-.16.12-.11.19-.26.23-.46l.27-1.7c.03-.2,0-.35-.08-.46-.08-.11-.22-.16-.41-.16s-.35.05-.46.16c-.12.1-.19.26-.22.46l-.27,1.7c-.03.2,0,.35.08.46s.22.16.41.16ZM388.95,785.79l.61-3.83h.71l.62,3.19c0-.1.02-.22.03-.36.01-.14.03-.29.04-.44.02-.15.04-.29.06-.41l.31-1.98h.52l-.61,3.83h-.71l-.61-3.19c0,.09-.02.21-.03.34s-.03.28-.04.42c-.02.15-.04.28-.06.41l-.31,2.01h-.53ZM392.25,785.79l.61-3.83h.57l-.52,3.31h1.67l-.08.52h-2.25ZM396.12,785.79l.22-1.41-.75-2.42h.58l.45,1.45c.03.09.05.18.07.27.02.08.03.15.03.19.02-.04.05-.1.09-.19.04-.08.09-.17.14-.27l.9-1.45h.6l-1.53,2.42-.22,1.41h-.57ZM399.22,785.79l.61-3.83h.71l.62,3.19c0-.1.02-.22.03-.36.01-.14.03-.29.04-.44.02-.15.04-.29.06-.41l.31-1.98h.52l-.61,3.83h-.71l-.61-3.19c0,.09-.02.21-.03.34s-.03.28-.04.42c-.02.15-.04.28-.06.41l-.31,2.01h-.53ZM403.51,785.84c-.36,0-.62-.1-.8-.3-.18-.2-.23-.47-.18-.82l.27-1.7c.06-.34.2-.61.44-.82.24-.2.54-.3.89-.3s.62.1.8.3c.17.2.24.47.18.81l-.27,1.71c-.06.34-.2.62-.44.82-.24.2-.54.3-.89.3ZM403.58,785.33c.19,0,.35-.05.47-.16.12-.11.19-.26.23-.46l.27-1.7c.03-.2,0-.35-.08-.46-.08-.11-.22-.16-.41-.16s-.35.05-.46.16c-.12.1-.19.26-.22.46l-.27,1.7c-.03.2,0,.35.08.46.08.11.22.16.41.16ZM406.38,785.79l.52-3.31h-1.02l.08-.52h2.62l-.08.52h-1.03l-.52,3.31h-.57ZM409.52,785.79l.61-3.83h2.32l-.08.52h-1.76l-.18,1.14h1.63l-.08.52h-1.62l-.26,1.64h-.57ZM413.77,785.84c-.36,0-.62-.1-.8-.3-.18-.2-.23-.47-.18-.82l.27-1.7c.06-.34.2-.61.44-.82.24-.2.54-.3.89-.3s.62.1.8.3c.17.2.24.47.18.81l-.27,1.71c-.06.34-.2.62-.44.82-.24.2-.54.3-.89.3ZM413.85,785.33c.19,0,.35-.05.47-.16.12-.11.19-.26.23-.46l.27-1.7c.03-.2,0-.35-.08-.46-.08-.11-.22-.16-.41-.16s-.35.05-.46.16c-.12.1-.19.26-.22.46l-.27,1.7c-.03.2,0,.35.08.46.08.11.22.16.41.16ZM415.8,785.79l.61-3.83h1.2c.24,0,.44.05.6.14.16.09.28.22.36.39s.09.37.05.59c-.04.26-.14.48-.3.67-.16.19-.37.32-.6.39l.54,1.64h-.62l-.48-1.57h-.54l-.25,1.57h-.57ZM416.69,783.71h.64c.19,0,.35-.06.48-.17.13-.11.21-.26.24-.45.03-.19,0-.35-.09-.46-.09-.11-.24-.17-.43-.17h-.64l-.2,1.25ZM420.91,785.84c-.36,0-.63-.1-.81-.3-.18-.2-.24-.47-.19-.82l.27-1.7c.06-.35.21-.62.45-.82s.55-.3.91-.3.63.1.81.3c.18.2.24.47.19.82h-.57c.03-.2,0-.35-.09-.46-.09-.11-.23-.16-.42-.16s-.35.05-.47.16c-.12.1-.2.26-.23.45l-.27,1.71c-.03.2,0,.35.09.46.09.11.23.16.42.16s.35-.05.47-.16.2-.26.23-.46h.57c-.03.23-.11.43-.24.59s-.28.3-.47.39c-.19.09-.4.14-.64.14ZM424.03,785.84c-.36,0-.62-.1-.8-.3-.18-.2-.23-.47-.18-.82l.27-1.7c.06-.34.2-.61.44-.82.24-.2.54-.3.89-.3s.62.1.8.3c.17.2.24.47.18.81l-.27,1.71c-.06.34-.2.62-.44.82-.24.2-.54.3-.89.3ZM424.11,785.33c.19,0,.35-.05.47-.16.12-.11.19-.26.23-.46l.27-1.7c.03-.2,0-.35-.08-.46-.08-.11-.22-.16-.41-.16s-.35.05-.46.16c-.12.1-.19.26-.22.46l-.27,1.7c-.03.2,0,.35.08.46.08.11.22.16.41.16ZM425.97,785.79l.61-3.83h.69l.18,1.23c.02.12.04.23.05.33.01.1.02.18.03.24.02-.06.05-.14.09-.24.04-.11.09-.22.15-.34l.57-1.22h.71l-.61,3.83h-.54l.2-1.29c.02-.17.06-.35.1-.55.04-.2.09-.4.14-.61s.1-.4.14-.59c.05-.19.09-.35.13-.49l-.86,1.86h-.55l-.28-1.86c0,.14-.01.29-.02.47s-.02.37-.04.57c-.02.2-.04.41-.06.61-.02.2-.05.4-.08.57l-.2,1.29h-.54ZM429.11,785.79l.61-3.83h.69l.18,1.23c.02.12.04.23.05.33.01.1.02.18.03.24.02-.06.05-.14.09-.24.04-.11.09-.22.15-.34l.57-1.22h.71l-.61,3.83h-.54l.2-1.29c.02-.17.06-.35.1-.55.04-.2.09-.4.14-.61s.1-.4.14-.59c.05-.19.09-.35.13-.49l-.86,1.86h-.55l-.28-1.86c0,.14-.01.29-.02.47s-.02.37-.04.57c-.02.2-.04.41-.06.61-.02.2-.05.4-.08.57l-.2,1.29h-.54ZM432.41,785.79l.61-3.83h2.25l-.08.5h-1.7l-.17,1.09h1.51l-.08.5h-1.51l-.19,1.24h1.69l-.08.5h-2.25ZM435.51,785.79l.61-3.83h1.2c.24,0,.44.05.6.14.16.09.28.22.36.39s.09.37.05.59c-.04.26-.14.48-.3.67-.16.19-.37.32-.6.39l.54,1.64h-.62l-.48-1.57h-.54l-.25,1.57h-.57ZM436.4,783.71h.64c.19,0,.35-.06.48-.17.13-.11.21-.26.24-.45.03-.19,0-.35-.09-.46-.09-.11-.24-.17-.43-.17h-.64l-.2,1.25ZM439.8,785.84c-.36,0-.63-.1-.81-.3-.18-.2-.24-.47-.19-.82l.27-1.7c.06-.35.21-.62.45-.82s.55-.3.91-.3.63.1.81.3c.18.2.24.47.19.82h-.57c.03-.2,0-.35-.09-.46-.09-.11-.23-.16-.42-.16s-.35.05-.47.16c-.12.1-.2.26-.23.45l-.27,1.71c-.03.2,0,.35.09.46.09.11.23.16.42.16s.35-.05.47-.16.2-.26.23-.46h.57c-.03.23-.11.43-.24.59s-.28.3-.47.39c-.19.09-.4.14-.64.14ZM441.88,785.79l.08-.5h.78l.45-2.82h-.78l.08-.5h2.13l-.08.5h-.78l-.45,2.82h.78l-.08.5h-2.13ZM444.74,785.79l1.59-3.83h.75l.37,3.83h-.56l-.07-.97h-1.09l-.39.97h-.59ZM445.9,784.34h.87l-.09-1.1c-.02-.2-.03-.37-.04-.51,0-.14-.01-.24-.01-.3-.02.06-.05.16-.1.3s-.11.31-.19.5l-.44,1.11ZM448.24,785.79l.61-3.83h.57l-.52,3.31h1.67l-.08.52h-2.25ZM453.19,785.84c-.37,0-.63-.1-.8-.3-.17-.2-.22-.47-.17-.82l.44-2.76h.57l-.44,2.76c-.03.2,0,.35.07.46.08.11.21.17.41.17s.35-.06.46-.17c.12-.11.19-.27.22-.46l.44-2.76h.57l-.44,2.76c-.06.35-.2.62-.43.82-.23.2-.53.3-.9.3ZM456.36,785.84c-.39,0-.67-.1-.87-.29-.19-.19-.26-.45-.22-.78h.57c-.03.17.01.31.12.41.11.1.27.15.48.15.2,0,.37-.05.5-.15s.21-.23.24-.4c.02-.15,0-.28-.06-.39s-.16-.18-.29-.22l-.46-.14c-.27-.08-.46-.22-.59-.41-.13-.19-.17-.42-.13-.68.04-.21.11-.39.23-.55s.27-.28.46-.37c.19-.09.4-.13.64-.13.35,0,.62.1.8.29.18.19.25.44.2.76h-.57c.03-.17,0-.3-.09-.4-.09-.1-.23-.14-.42-.14s-.34.04-.46.13c-.12.09-.19.21-.21.38-.02.15,0,.28.05.39s.16.18.29.22l.47.15c.26.08.46.22.58.41.12.19.17.42.12.69-.04.22-.12.41-.24.57-.13.16-.29.29-.49.38-.2.09-.42.13-.66.13ZM458.42,785.79l.61-3.83h2.25l-.08.5h-1.7l-.17,1.09h1.51l-.08.5h-1.51l-.19,1.24h1.69l-.08.5h-2.25Z"/>
  <path class="st1" d="M663.54,180.71l-1.66-4.16-3.72-2.48c-4.38-2.9-108.7-71-258.43-71s-254.08,68.1-258.42,71l-3.79,2.48-1.66,4.16c-76.43,192.99-1.68,333.09,74.5,416.66,81.55,89.43,179.44,133.13,183.57,134.94l5.79,2.54,5.77-2.54c4.12-1.81,102.02-45.48,183.56-134.94,76.17-83.56,150.89-223.67,74.47-416.66ZM399.67,719.25S6.77,546.47,149.01,186.48c.12-.27.3-.5.53-.68,6.91-4.47,108.14-68.36,250.13-68.36s242.55,63.44,250.04,68.27c.27.2.49.47.64.78,142.17,359.97-250.68,532.76-250.68,532.76ZM489.97,401.05l-.19.79c-.1.36-.14.72-.24,1.07.03-.11.07-.21.11-.31.21-.49.32-1.01.31-1.55ZM517.81,347.03c-1.2.39-.38,1.64.25,2.39,1.09,1.27,7.59,9.33,8.7,10.37.95.95,1.06,1.66,2.84,1.45,1.76-.53,3.54-.98,5.35-1.34,2.8-.49,5.62-.81,8.46-.95l1.55-.05c5.32-.19,10.64.21,15.86,1.19,19.13,3.2,20.86,19.1,20.95,19.71v.49c.15,3.63.41,11.2-7.59,17.37-.33.25-.47.69-.35,1.09.1.41.45.7.86.73,3.15.32,6.32.48,9.48.47h2.65c7.54-.19,13.27-1.9,17.07-5.23s5.77-8.27,5.62-14.57c0-.24-.07-22.99-32.89-33.45-10-3.2-20.61-3.87-27.77-3.87-3.13-.02-6.27.12-9.39.43-4.1.28-8.18.83-12.2,1.65-3.5.63-6.12,1.24-9.43,2.11ZM611.9,497.29c-.34-.29-.84-.31-1.2-.06-10.34,7.01-22.66,10.55-36.64,10.55-8.55-.04-17.06-1.3-25.26-3.74-1.74-.48-3.46-1.06-5.14-1.72-2.48-.92-4.91-1.99-7.26-3.19-4.52-2.28-8.82-4.98-12.85-8.06-1.57-1.21-3.08-2.46-4.49-3.7-10.44-9.25-18.66-20.74-24.06-33.6-4.67-11.69-7.59-21.65-7.41-35.36.07-5.21.71-10.4,1.9-15.47v-.05c.09-.35.27-1.68.27-1.68.14-.63-.08-1.28-.57-1.7-.99-1.17-16.16-19.62-17.11-20.58-.82-.79-1.37-2.24-2.48-1.95-3.07,4.17-5.71,8.65-7.87,13.36-.3.69-.64,1.41-.95,2.11-.18.39-.34.73-.48,1.09-.01.06-.01.12,0,.18-4.39,10.71-6.47,22.93-6.11,36.35,0,.37,1.52,37.93,29.04,63.61,7.29,6.82,15.46,12.62,24.3,17.26,1.7.87,3.32,1.65,4.99,2.42,6.83,3.12,13.98,5.49,21.33,7.06,2.19.46,4.19.83,5.97,1.09,4.55.71,9.14,1.07,13.74,1.08,2.03.02,4.05-.07,6.07-.27,33.96-1.23,48.98-15.58,52.56-23.86.16-.42.05-.89-.29-1.19ZM480,364.3l21.88,27.11c.04.08.1.16.17.22l.26.32c1.01,1.25,2.03,2.48,3.02,3.73l.46.72c16.69,24.02,25.12,46.66,25.12,67.32,0,1.74-.07,3.48-.15,5.2l-.12,1.36c-.09,1.25-.24,2.47-.39,3.72v.27c-.08.55-.14,1.08-.24,1.65-.11.81-.25,1.6-.38,2.39-.64,3.15-1.45,6.27-2.42,9.33-.27.81.72,1.29,1.49,1.78,6.51,3.98,13.43,7.25,20.63,9.76.82.27,1.1.27,1.37-.27,1.95-4.6,3.56-9.34,4.83-14.18,0-.13.06-.26.09-.41,2.79-10.17,4.21-20.67,4.22-31.22.02-17.8-3.9-35.38-11.48-51.48-4.61-9.57-10.1-18.68-16.4-27.22-1.04-1.49-2.13-2.95-3.22-4.44-.29-.39-.6-.77-.95-1.18l-.83-1.1c-1.13-1.46-2.29-2.95-3.48-4.41-.6-.8-1.21-1.57-1.9-2.38-.87-1.01-1.72-2.03-2.57-3.06l-1.84-2.16c-1.07-1.28-2.15-2.55-3.22-3.86l-4.62-5.47c-6.55-7.81-13.11-15.66-19.55-23.48-18.3-23.23-27.89-40.64-28.45-51.73-.37-6.41,1.81-11.38,6.64-15.17,5.2-4.1,10.43-5.77,18.02-5.77,4.74,0,10.01,2.62,13.56,6.64,3.38,4.21,5.01,8.03,5.01,11.66v.52c0,3.63.08,11.23-8.06,17.19-.34.23-.5.66-.38,1.05.11.4.45.7.86.76,4.02.51,8.06.76,12.11.75,15.17,0,23.03-6.49,23.22-19.28.14-6.24-2-15.4-13.08-23.57-8.48-6.26-19.41-10.28-29.25-10.77-14.49-.79-28.84,3.12-40.92,11.15-11.68,7.59-17.85,19.12-17.85,33.19,0,15.35,8.77,34.43,26.02,56.73,7.67,9.32,15.28,18.68,22.8,28.08ZM508.86,527.53c-1.63-.75-2.06-.71-3.04.66-1.65,2.18-3.4,4.42-5.22,6.64-17.48,20.58-39.92,38.13-66.75,52.15-.49.28-.66.9-.38,1.38.18.31.5.5.86.51h.16c30.16-4.83,56.47-17.38,78.36-37.39.12-.1.23-.21.34-.32l.3-.29c2.99-2.78,5.69-5.41,8.12-8.06,2.46-2.56,4.77-5.26,6.9-8.1.34-.41,0-.84-.41-.95-6.65-1.24-13.12-3.34-19.24-6.24ZM489.53,402.95v-.05s0,.04,0,.05ZM210.59,177.36c-13.2,5.84-25.95,11.96-38.66,19.13-2.44,1.4-4.28,3.64-5.18,6.31-1.05,3.62-2.37,7.92-3.42,11.54-.55,1.9-.27,2.65,1.75,2.02,10.22-3,20.79-5.57,31.73-7.73-.48,1.95-1.2,5.07-1.67,7.02-8.93,4.13-17.97,9.03-26.66,13.72.62-2.29,1.23-4.3,1.9-6.64-3.79,2.02-7.59,4.37-11.3,6.5-1.01,3.5-1.9,6.72-2.84,10.21-.71,2.41.52,2.97,3.17,1.48,13.42-7.59,27.41-15.04,41.37-21.2,2.76-1.2,4.88-3.48,5.41-5.8.85-3.79,1.76-8.07,2.62-11.86.43-1.79-.1-2.62-2.11-2.27-10.97,1.9-21.63,4.25-31.88,7.01.43-1.71,1.41-4.74,1.9-6.46,8.1-4.46,16.4-8.53,25.28-12.59-.48,1.94-.95,3.87-1.4,5.83,3.79-1.75,7.59-3.44,11.38-5.08.73-3.07,1.41-6.14,2.11-9.23.37-2.28-.9-3.02-3.47-1.9ZM274.17,154.86c-15.05,4.17-29.86,9.16-44.37,14.95-2.91,13.59-5.98,27.98-8.87,41.57,3.94-1.59,7.92-3.15,11.9-4.63,2.18-10.98,4.55-22.91,6.71-33.87,8.7-3.25,17.43-6.09,26.28-8.76-.68,4.17-1.49,9.16-2.17,13.35-8.34,2.52-16.63,5.26-24.84,8.24,2.69,1.3,5.41,2.63,8.21,3.96,7.59-2.6,15.22-4.98,22.9-7.15,2.78-.81,4.74-2.72,5.04-5.03.95-6.54,2.01-13.58,2.95-20.14.34-2.24-1.06-3.26-3.75-2.5ZM342.59,141.74c-15.63,1.85-31.16,4.51-46.52,7.96-2.75.63-4.61,2.51-4.9,4.81-1.48,10.76-3,21.94-4.44,32.5-.33,2.22,1.2,3.24,4.09,2.58,16.02-3.64,32.21-6.47,48.51-8.46,2.84-.35,4.74-1.96,5-4.17.81-10.48,1.63-21.33,2.47-32,.16-2.29-1.47-3.57-4.21-3.22ZM331.95,175.29c-10.88,1.53-21.64,3.36-32.38,5.63,1.01-8.15,2.15-17.49,3.17-25.73,9.98-2.1,20.97-3.95,31.58-5.43-.77,8.26-1.62,17.46-2.37,25.54ZM410.5,164.07c2.84.08,4.66-1.23,4.59-3.4-.12-5.96-.24-12.25-.37-18.28,0-2.27-1.9-3.79-4.6-3.84-15.78-.39-31.57.09-47.3,1.41-.5,13.05-.95,26.19-1.51,38.96,4.12-.32,8.28-.59,12.41-.81.27-10.37.54-21.44.82-31.99,9.34-.53,18.73-.69,28.15-.64,0,3.79.06,7.79.09,11.56-8.99-.07-18.02.06-26.96.5,2.11,1.44,22.45,14.85,30.57,20.15,5.1.09,10.21.26,15.32.52v-.36c-7.4-4.79-13.64-9.48-20.75-13.92,3.61-.03,5.91.05,9.53.13ZM425.07,146.19c7.16.37,14.35.95,21.51,1.7.77,10.65,1.55,22.03,2.3,32.4,4.08.43,8.18.95,12.27,1.46-.86-10.43-1.74-21.81-2.64-32.46,7.16.95,14.35,2.08,21.46,3.38-.25-2.57-.4-4.58-.68-7.18-18.06-3.27-36.3-5.4-54.63-6.37.15,2.56.26,4.53.4,7.07ZM494.33,186.75c4.15.84,8.31,1.71,12.45,2.64-1.66-13.11-3.37-26.74-5.07-39.82-3.91-.87-7.84-1.69-11.79-2.47,1.47,13.02,2.95,26.61,4.41,39.65ZM563.39,193.57c-11.67-12.33-23.4-25.46-34.9-37.26-3.91-1.08-7.97-2.18-11.91-3.2,2.1,13.43,4.18,27.24,6.18,40.22,4.14,1,8.23,2.15,12.33,3.26-1.46-8.88-3.02-18.75-4.54-27.85,11.63,11.89,23.71,25.36,35.51,37.77,3.87,1.36,7.43,2.76,11.56,4.36-2.59-12.93-5.49-27.39-8.14-40.77-3.79-1.47-7.59-2.89-11.38-4.28,1.67,8.96,3.63,18.94,5.29,27.74ZM642.88,238.43c-1.79-6.64-4.08-15.25-5.11-19.09-10.24-5.75-14.01-7.83-25.99-13.84l6.28,8.84c5.4,2.8,6.38,3.31,10.73,5.69,1,3.26,2.1,7.41,2.84,9.96-9.93-5.6-16.95-8.97-26.97-13.78-2.64-10.26-4.79-19.3-6.88-27.92,10.24,4.74,16.9,8.07,26.09,12.95.48,2.06,1.17,4.59,1.17,4.59l10.69,6.03s-1.52-5.43-2.41-8.53c-.68-2.64-2.45-4.87-4.86-6.13-13.44-7.26-22.86-12.09-39.47-19.51-2.57-1.16-4.01-.18-3.44,2.19,2.59,11.14,5.3,23.62,7.9,34.71.54,2.35,2.6,4.21,5.33,5.4,14.31,6.34,26.06,12.24,40.16,20.11,3.33,1.82,4.94,1.83,3.96-1.68ZM167.08,140.72c-3.06-1.56-6.05-3.04-8.98-4.49-1.05,3.5-2.12,7.08-3.21,10.78-2.11,1.14-4.24,2.28-6.36,3.45,2.94-9.09,5.69-17.62,8.25-25.6,1.9-.95,3.7-1.84,5.53-2.71-.87,2.96-2.71,9.06-2.71,9.06l13.27-14.22s5.01-2.11,7.18-3.05c0,0,.95-.39.95-.33-4.65,5.05-12.09,12.99-17.21,18.71,3.63,1.78,6.14,3.08,9.99,5.04,0,.06,0,.13,0,.19-2.58,1.23-4.08,1.9-6.69,3.19ZM215.88,119.95c-.34-1.1-.68-2.2-1.01-3.29-4.46,1.65-8.98,3.39-13.47,5.23-1.01,1.63-2.01,3.27-3.03,4.91l-6,2.53s0-.04,0-.07c5.93-9.36,11.67-18.46,17.21-27.29,1.9-.74,3.86-1.48,5.77-2.18,1.78,6,3.68,12.07,5.69,18.22,0,.02,0,.04,0,.06l-5.15,1.87ZM211.41,105.45c-2.32,3.79-4.67,7.71-7.07,11.62,3.19-1.25,6.34-2.48,9.48-3.67-.81-2.65-1.63-5.31-2.41-7.95ZM266.66,104.29l-12.03-10.67c-.95,4.88-1.85,9.78-2.78,14.73l-5.86,1.76c1.44-7.26,2.87-14.42,4.28-21.48,1.9-.54,3.68-1.07,5.52-1.56l11.93,10.2c.76-4.67,1.51-9.3,2.26-13.87,1.85-.47,3.67-.89,5.52-1.32-1.06,6.85-2.11,13.77-3.18,20.78-1.89.46-3.75.94-5.65,1.42ZM324.33,92.97c-6.77.94-13.57,2.02-20.39,3.24-1.35.26-2.11-.31-1.98-1.5.21-1.66.4-3.35.6-5.02,1.9-.36,3.79-.7,5.69-1.01-.12,1.11-.24,2.23-.37,3.34,4.42-.74,8.81-1.46,13.2-2.09.08-.95.2-1.9.27-2.84-5.63-.78-11.24-1.46-16.85-2.04-1.11-.08-1.36-.55-1.25-1.48.21-1.74.4-3.47.62-5.21.18-1.21,1.15-2.15,2.37-2.29,6.67-1.16,13.31-2.17,19.91-3.05,1.29-.15,2.01.44,1.9,1.57-.12,1.5-.25,3.01-.38,4.51-1.9.26-3.79.49-5.69.77.09-.95.17-1.9.28-2.84-4.32.6-8.67,1.26-12.99,1.98-.09.82-.17,1.65-.27,2.47,5.58.63,11.17,1.34,16.79,2.18,1.04.13,1.37.65,1.27,1.53-.14,1.9-.31,3.73-.46,5.59-.14,1.17-1.09,2.08-2.27,2.18ZM379.03,88.05c-.61-1.14-1.22-2.27-1.85-3.4-4.59.21-9.15.47-13.72.82-.74,1.21-1.46,2.43-2.21,3.65l-5.97.5h0c4.3-6.9,8.51-13.74,12.62-20.51,1.99-.14,3.98-.27,6-.37,3.65,6.32,7.4,12.68,11.23,19.08v.06c-2.02-.05-4.08.05-6.1.17ZM370.74,72.88c-1.71,2.96-3.43,5.93-5.16,8.9,3.24-.22,6.5-.42,9.73-.57-1.54-2.77-3.08-5.55-4.57-8.33ZM438.7,89.07c-6.88-.5-13.81-.87-20.74-1.07-1.37,0-2.29-.8-2.31-1.9,0-1.64-.08-3.27-.12-4.91,1.96,0,3.93.13,5.86.2,0,1.09.08,2.18.1,3.27,4.49.19,8.96.42,13.41.7-.06-.95-.09-1.9-.14-2.84-5.98-1.97-11.92-3.84-17.85-5.6-1.16-.32-1.5-.84-1.54-1.73,0-1.73-.08-3.39-.1-5.1-.06-1.13.8-1.81,2.11-1.77,6.77.25,13.51.64,20.23,1.16,1.15-.07,2.15.79,2.24,1.94.11,1.48.21,2.97.29,4.43l-5.69-.42c-.05-.95-.08-1.9-.14-2.78-4.38-.31-8.75-.55-13.14-.74,0,.81,0,1.6.05,2.41,5.93,1.8,11.86,3.69,17.78,5.69.89.16,1.54.93,1.56,1.83.12,1.84.23,3.68.36,5.52-.03,1.16-.83,1.81-2.2,1.72ZM517.85,100.94c-7.23-1.68-14.44-3.16-21.67-4.48-1.19-.15-2.12-1.07-2.29-2.26-.62-5.46-1.26-10.91-1.9-16.42-.12-1.18.56-1.78,1.83-1.56,7.08,1.2,14.2,2.59,21.37,4.16,1.23.23,2.19,1.2,2.4,2.44.22,1.9.48,3.79.73,5.69-1.9-.44-3.79-.86-5.69-1.27-.17-1.23-.33-2.48-.48-3.72-4.82-1.02-9.61-1.97-14.38-2.84.5,4.26,1,8.53,1.51,12.7,4.85.87,9.69,1.85,14.53,2.94-.14-1.29-.32-2.61-.49-3.91l5.69,1.29c.25,1.95.51,3.9.79,5.83.19,1.19-.6,1.72-1.93,1.4ZM547.94,108.53c-1.37-7.11-2.72-14.17-4.1-21.13,1.9.53,3.7,1.08,5.56,1.63,1.43,7.02,2.84,14.1,4.32,21.26-1.92-.6-3.89-1.2-5.78-1.76ZM589.3,105.69c1.47,6.01,2.96,12.16,4.49,18.43-1.95-.84-3.88-1.69-5.79-2.48-1.41-6.11-2.84-12.11-4.14-18.02-3.16-1.15-6.25-2.23-9.3-3.25-.29-1.32-.57-2.65-.83-3.95,7.78,2.53,16.02,5.46,24.73,8.81.39,1.48.81,2.96,1.2,4.43-3.54-1.36-6.98-2.69-10.35-3.96ZM638.97,136.21c.82,2.69,1.9,6.89,2.73,9.6-1.98-1.08-3.91-2.14-5.85-3.17-.77-2.64-1.48-5.69-2.24-8.36-5.18-6.75-10.55-14.33-15.36-20.6v-.18c1.85.81,6.09,2.69,7.97,3.55,3.59,4.8,7.12,9.98,9.48,12.9,2.23-2.41,4.98-6,4.98-6,0,0,3.32,1.74,5.46,2.84.03.07.05.14.07.21-2.45,3.11-4.85,6.18-7.24,9.22ZM399.7,431.92v-49.41c-91.37,4.27-174.66,33.98-240.1,80.92,5.83,13.78,12.57,27.15,20.18,40.03,60.52-40.66,136.53-66.74,219.92-71.54ZM134.13,338.9c50.53-33.97,109.28-58.69,173.17-71.35-13.75-16.31-26.76-31.29-39.2-45.23-44.01,11.79-86.14,29.71-125.16,53.23-5.58,23.16-8.53,43.18-8.81,63.35ZM333.82,299.5c-73.66,11.63-140.93,39.56-196.92,79.48,1.63,11.47,3.99,23.54,7.09,36.76.95,4.13,2.04,8.25,3.2,12.33,62.14-44.43,139.51-73.85,224.6-81.55-13.26-16.63-25.92-32.31-37.99-47.02ZM399.7,650.74c-20.92,2.54-41.63,6.61-61.97,12.18,19.88,13.22,40.58,25.17,61.97,35.79v-47.96ZM399.7,519.2v-47.59c-74.98,5.4-143.55,28.29-199.12,63.53,8.5,11.69,17.77,23.16,27.82,34.4,49.06-27.16,107.63-45.07,171.3-50.34ZM399.7,606.78v-45.8c-51.92,5.1-100.17,18.71-141.99,38.88,12.18,11.55,24.53,22.12,36.65,31.72,33.92-12.71,69.31-21.04,105.34-24.8ZM400.98,55c93.74,0,186.23,24.59,267.58,71.13,18.38,45.54,31.17,98.16,36.05,148.37,6.28,64.64-.02,124.03-18.74,176.53-17.24,48.4-40.36,90.58-70.7,128.97-26.22,33.18-57.26,62.71-94.9,90.28-65.62,48.07-114.87,71.83-120.27,74.38l-.08.04-.07-.03-.05-.02c-1.24-.57-51.72-24.14-120.25-74.37-37.64-27.59-68.68-57.13-94.88-90.3-30.31-38.37-53.43-80.56-70.67-128.96-18.69-52.41-24.93-111.86-18.56-176.72,4.95-50.4,17.81-103.22,36.24-148.89,39.48-22.66,82.01-40.15,126.44-52.01,45.76-12.21,93.44-18.4,141.71-18.4h1.15M400.98,50c-.32,0-.64,0-.96,0h-.19c-98.81,0-191.89,25.6-271.85,71.78-.16.14-.3.3-.41.48-32.83,80.65-60.02,213.35-18.27,330.44,36.65,102.9,98.13,170.91,167.3,221.61,69.17,50.7,120.63,74.67,121.18,74.91.69.33,1.41.59,2.15.78.73-.19,1.44-.45,2.12-.78.57-.27,52.01-24.25,121.17-74.91,69.16-50.66,130.71-118.71,167.36-221.61,41.8-117.23,14.88-249.3-17.99-329.93-.05-.1-.13-.18-.23-.23-82.56-47.53-176.14-72.55-271.39-72.55h0Z"/>
</svg>