<?xml version="1.0" encoding="UTF-8"?>
<svg data-name="图层_1" xmlns="http://www.w3.org/2000/svg" version="1.1" viewBox="0 0 800 800">
  <!-- Created by @FCLOGO 2025-1-21 GMT+8 21:56:15 . https://fclogo.top/ -->
<!-- FOR PERSONAL USE ONLY NOT FOR COMMERCIAL USE -->
  <path d="M348.2194,774.301c-.786,0-1.3752-.2173-1.7682-.6519-.393-.4352-.5284-1.03-.406-1.7856l.2518-1.6478c.122-.755.4501-1.3504.9841-1.785.5339-.4352,1.1939-.6525,1.9799-.6525.7553,0,1.3293.1987,1.7223.5954.3927.3967.551.9381.4747,1.6248h-1.2358c.0304-.3589-.0553-.637-.2573-.8357-.2024-.1981-.4979-.2974-.8869-.2974-.4197,0-.763.1167-1.03.3489-.2673.2328-.4349.5631-.5035.9903l-.2632,1.659c-.0686.4352-.0056.7686.1887,1.0015.1946.2328.5017.3489.9214.3489.389,0,.7152-.0987.9785-.2974.2632-.1981.4365-.4805.5206-.8469h1.2358c-.1372.6867-.4672,1.2306-.9897,1.631-.5228.4005-1.1616.6004-1.9169.6004ZM352.7967,774.1868l.9956-6.2943h1.1902l-.1946,1.1902c.3359-.8698.9729-1.3044,1.9113-1.3044.6712,0,1.1691.208,1.4932.624.3244.416.4293.9859.3148,1.7105l-.0686.4234h-1.2703l.0571-.3204c.0689-.4501.0115-.7953-.1714-1.0356-.1832-.2403-.4771-.3607-.8813-.3607-.4045,0-.7401.1223-1.007.3663-.2673.2446-.4349.588-.5035,1.03l-.6296,3.9711h-1.2358ZM361.9058,774.301c-.7705,0-1.3463-.2229-1.7279-.6693s-.515-1.0356-.4005-1.7682l.2518-1.6478c.0838-.488.2573-.9152.5206-1.2815s.6007-.6507,1.0129-.8524c.4119-.2024.8732-.3036,1.3845-.3036.7705,0,1.3485.2235,1.7338.6693.3852.4464.5169,1.0356.3949,1.7682l-.1717,1.1213h-3.845l-.0916.5265c-.1527.9536.2173,1.4305,1.1098,1.4305.7171,0,1.175-.2477,1.3734-.7438h1.2247c-.1679.5339-.5035.9599-1.007,1.2759-.5038.3166-1.0912.475-1.7626.475ZM361.2306,770.2157l-.0456.2862,2.6548-.0118.0459-.2856c.0686-.4656.0133-.822-.1661-1.0704-.1791-.2477-.4861-.3719-.9211-.3719-.4427,0-.7953.126-1.0586.3775-.2632.2521-.4331.6109-.5094,1.076ZM368.3258,774.301c-.6333,0-1.1027-.2117-1.4078-.6351s-.3967-1.0008-.2744-1.7335l.2744-1.7738c.1145-.7326.393-1.3119.8357-1.7397.4424-.4272.98-.6407,1.6133-.6407.4653,0,.8298.1186,1.093.3545.2632.2365.3908.5575.3834.9617h.023l.1717-1.202h1.2358l-.9956,6.2943h-1.2247l.1946-1.2014h-.023c-.122.4116-.3511.7339-.6867.9667s-.7401.3489-1.2129.3489ZM368.9324,773.2257c.389,0,.7152-.1186.9782-.3551.2632-.2359.4293-.5718.4979-1.007l.2518-1.6478c.0686-.4272.0096-.7612-.1773-1.0015-.1872-.2403-.475-.3601-.8642-.3601-.3967,0-.7249.118-.9841.3545-.2595.2365-.4234.5724-.492,1.007l-.2518,1.6478c-.0686.4427-.0133.7804.1658,1.0133.1794.2328.4712.3489.8757.3489ZM376.3477,774.1868c-.5721,0-.9937-.1565-1.2644-.4694-.271-.3123-.3607-.7512-.2691-1.3156l.538-3.3874h-1.7394l.1714-1.1219h1.7397l.2747-1.7161h1.2358l-.2747,1.7161h2.472l-.1832,1.1219h-2.4605l-.5377,3.3874c-.0764.4421.099.6637.5262.6637h1.7167l-.1717,1.1213h-1.7738ZM382.5042,774.301c-.7705,0-1.3463-.2229-1.7279-.6693s-.515-1.0356-.4005-1.7682l.2518-1.6478c.0838-.488.2573-.9152.5206-1.2815s.6007-.6507,1.0129-.8524c.4119-.2024.8732-.3036,1.3845-.3036.7705,0,1.3485.2235,1.7338.6693.3852.4464.5169,1.0356.3949,1.7682l-.1717,1.1213h-3.845l-.0916.5265c-.1527.9536.2173,1.4305,1.1098,1.4305.7171,0,1.175-.2477,1.3734-.7438h1.2247c-.1679.5339-.5035.9599-1.007,1.2759-.5038.3166-1.0912.475-1.7626.475ZM381.829,770.2157l-.0456.2862,2.6548-.0118.0459-.2856c.0686-.4656.0133-.822-.1661-1.0704-.1791-.2477-.4861-.3719-.9211-.3719-.4427,0-.7953.126-1.0586.3775-.2632.2521-.4331.6109-.5094,1.076ZM388.9243,774.301c-.6333,0-1.1008-.2117-1.4019-.6351-.3014-.4234-.3949-1.0008-.2803-1.7335l.2744-1.7738c.1145-.7326.393-1.3119.8357-1.7397.4424-.4272.98-.6407,1.6133-.6407.4653,0,.8298.1186,1.093.3545.2632.2365.3908.5575.3834.9617h.023l.2058-1.4652.2977-1.7962h1.2358l-1.3274,8.3537h-1.2247l.1946-1.2014h-.023c-.122.4116-.3511.7339-.6867.9667s-.7401.3489-1.2129.3489ZM389.5309,773.2257c.389,0,.7152-.1186.9782-.3551.2632-.2359.4293-.5718.4979-1.007l.2518-1.6478c.0761-.4272.0189-.7612-.1717-1.0015-.1909-.2403-.4805-.3601-.8698-.3601-.3967,0-.7249.118-.9841.3545-.2595.2365-.4234.5724-.492,1.007l-.2518,1.6478c-.0764.4427-.023.7804.1602,1.0133s.4768.3489.8813.3489ZM401.0175,774.301c-.4731,0-.8394-.1161-1.0986-.3489-.2595-.2328-.3852-.5551-.3775-.9667h-.0115l-.1946,1.2014h-1.2243l1.3274-8.3537h1.2358l-.2862,1.7962-.2744,1.4652h.0456c.122-.4123.353-.7345.6923-.9673.3396-.2322.7419-.3489,1.2076-.3489.633,0,1.1002.2136,1.4016.6407.3014.4278.3949,1.007.2806,1.7397l-.2747,1.7738c-.1145.7326-.3949,1.31-.8413,1.7335-.4461.4234-.9822.6351-1.6077.6351ZM400.7657,773.2257c.3967,0,.7227-.1161.9785-.3489.2555-.2328.4216-.5706.4976-1.0133l.2518-1.6478c.0689-.4346.0115-.7705-.1714-1.007-.1832-.2365-.4734-.3545-.8698-.3545-.3893,0-.7152.1198-.9785.3601s-.429.5743-.4979,1.0015l-.2518,1.6478c-.0686.4352-.0112.7711.1717,1.007.1832.2365.4731.3551.8698.3551ZM405.4694,776.2468l.1717-1.0642h1.934c.6407,0,1.007-.3017,1.0986-.9046l.1028-.6749.2061-1.1902h-.0345c-.122.4197-.3471.7438-.6752.9729-.3281.2285-.7286.3433-1.2014.3433-.6258,0-1.093-.2005-1.4019-.601s-.4104-.9443-.3033-1.631l.5836-3.6047h1.2358l-.5606,3.4793c-.0612.4116,0,.732.1832.9611s.4653.3433.8469.3433c.389,0,.7168-.1217.9841-.3663.267-.244.4309-.5836.492-1.0182l.538-3.3992h1.2358l-1.007,6.4086c-.0993.6029-.37,1.0778-.8124,1.4249-.4427.3471-.9996.5209-1.6707.5209h-1.9455ZM417.787,770.0853h3.221l.5368-1.8545h-5.4659l-1.7081,6.4419h2.1473l.5856-2.0985h3.0257l.4392-1.7081h-3.0257l.244-.7808ZM424.229,772.9158c-.5856,0-1.0249-.3904-1.0249-1.1225,0-.8784.6344-1.7569,1.6105-1.7569.488,0,.8784.244,1.0248.7808l1.9521-.8296c-.2928-1.1713-1.2689-1.9033-2.6353-1.9033-2.7817,0-4.1482,2.1473-4.1482,3.9042s1.2689,2.8305,3.0746,2.8305c1.3665,0,2.3425-.5856,2.9769-1.4153l-1.5129-1.1713c-.3904.4392-.8296.6832-1.3177.6832ZM430.9149,768.2308h-2.1473l-1.7569,6.4419h5.1242l.488-1.8545h-2.9281l1.2201-4.5874ZM439.7481,771.0125c0-1.6593-1.3177-2.9281-3.221-2.9281-2.1961,0-3.8066,1.8057-3.8066,3.8066,0,1.6593,1.3177,2.9281,3.221,2.9281,2.1961,0,3.8066-1.8057,3.8066-3.8066ZM434.9167,771.6957c0-.8296.5856-1.7081,1.5129-1.7081.7808,0,1.1713.5368,1.1713,1.2201,0,.8296-.5856,1.7081-1.5129,1.7081-.7808,0-1.1713-.5368-1.1713-1.2201ZM443.2131,772.2326h1.0737l-.1952.6832c-.1464.0488-.3416.0976-.5856.0976-.6832,0-1.2689-.3904-1.2689-1.2201,0-1.0249.732-1.9033,1.9521-1.9033.5856,0,1.1225.244,1.5129.5856l1.3665-1.3665c-.4392-.5368-1.5129-1.0737-2.7329-1.0737-2.5865,0-4.2946,1.7569-4.2946,3.8554,0,2.0497,1.6105,2.8793,3.221,2.8793.9272,0,1.8545-.2928,2.4889-.6832l.9272-3.3186h-3.1234l-.3416,1.4641ZM450.7775,768.0844c-2.1961,0-3.8066,1.8057-3.8066,3.8066,0,1.6593,1.3177,2.9281,3.221,2.9281,2.1961,0,3.8066-1.8057,3.8066-3.8066,0-1.6593-1.3177-2.9281-3.221-2.9281ZM450.3382,772.9158c-.7808,0-1.1713-.5368-1.1713-1.2201,0-.8296.5856-1.7081,1.5129-1.7081.7808,0,1.1713.5368,1.1713,1.2201,0,.8296-.5856,1.7081-1.5129,1.7081ZM437.9424,767.4987c-.0488.2928.0976.488.4392.488s.5368-.1952.6344-.488c.0488-.244-.0976-.488-.4392-.488s-.5856.244-.6344.488ZM432.1349,765.4978c-.4392,0-.732.244-.7808.5856s.0976.5856.5368.5856.732-.244.7808-.5856c.0976-.3416-.0976-.5856-.5368-.5856ZM433.0134,767.3035c-.0976.5368.1464.8784.8296.8784.6344,0,1.0737-.3904,1.1713-.8784s-.1464-.8784-.8296-.8784c-.6832,0-1.0737.3904-1.1713.8784ZM439.6017,777.552l-2.4401-1.8057h-1.5129l4.2458,3.1722,1.6105-3.1722h-.976l-.9272,1.8057ZM425.8394,767.1571l-2.0009-1.4641,23.1323-2.7817-2.1473,4.2458h1.0248l2.6841-5.3195-26.9877,3.221,2.7817,2.0985h1.5129ZM338.7186,785.7853l.6088-3.8315h2.32l-.084.5194h-1.7636l-.1837,1.1445h1.6272l-.084.5248h-1.6166l-.2573,1.6428h-.5668ZM342.97,785.8377c-.3568,0-.6228-.1005-.7978-.3019-.175-.201-.2345-.473-.1784-.8161l.2677-1.7006c.056-.3429.2029-.6148.4408-.8161.2379-.201.5355-.3019.8923-.3019s.6228.1.7979.2993c.1748.1993.2361.4707.1837.8136l-.2677,1.7057c-.0561.3431-.2039.6151-.4435.8161-.2398.2013-.5381.3019-.895.3019ZM343.0487,785.3339c.1925,0,.3483-.0524.4672-.1575.119-.1051.1942-.2571.2257-.4568l.2678-1.7006c.0315-.1993.0051-.3517-.0787-.4565-.084-.1051-.2223-.1575-.4148-.1575s-.3473.0524-.4645.1575c-.1173.1048-.1916.2571-.2231.4565l-.2677,1.7006c-.0315.1996-.0053.3517.0787.4568s.2204.1575.4094.1575ZM344.9961,785.7853l.6088-3.8315h1.202c.2379,0,.4391.0464.6036.139.1645.0928.2835.223.357.391s.091.3656.0524.5932c-.0384.2591-.14.4838-.3044.6746-.1645.1905-.3656.3209-.6036.391l.5354,1.6428h-.6194l-.4777-1.5748h-.5406l-.2466,1.5748h-.5668ZM345.8883,783.7068h.6352c.1889,0,.349-.0558.4803-.168.1313-.1119.2107-.2623.2388-.4514.0316-.1925,0-.3454-.0944-.4593-.0945-.1136-.2362-.1706-.4252-.1706h-.6352l-.1995,1.2493ZM349.545,785.7853l.6088-3.8315h1.2544c.3709,0,.6508.1048.8399.315.1889.2099.2553.4898.1993.8398-.0384.2344-.1216.4383-.2493.6114s-.2905.307-.4881.4015c-.1978.0945-.419.1418-.6639.1418h-.6928l-.2415,1.5221h-.5668ZM350.432,783.754h.6928c.1924,0,.3568-.0587.4934-.176.1364-.117.2204-.2737.2519-.4696s-.0017-.3525-.0997-.4699-.245-.1757-.441-.1757h-.6876l-.2099,1.2911ZM352.7466,785.7853l.6088-3.8315h2.2518l-.0787.5038h-1.6954l-.1731,1.0867h1.5115l-.0787.4986h-1.5115l-.1942,1.2387h1.6901l-.0787.5038h-2.2518ZM355.8434,785.7853l.6088-3.8315h1.202c.2379,0,.4391.0464.6036.139.1645.0928.2835.223.357.391s.091.3656.0524.5932c-.0384.2591-.14.4838-.3044.6746-.1645.1905-.3656.3209-.6036.391l.5354,1.6428h-.6194l-.4777-1.5748h-.5406l-.2466,1.5748h-.5668ZM356.7356,783.7068h.6352c.1889,0,.349-.0558.4803-.168.1313-.1119.2107-.2623.2388-.4514.0316-.1925,0-.3454-.0944-.4593-.0945-.1136-.2362-.1706-.4252-.1706h-.6352l-.1995,1.2493ZM360.1316,785.8377c-.385,0-.6736-.0951-.8661-.2859-.1924-.1908-.2641-.4505-.2151-.7794h.5668c-.028.1748.0105.3121.1155.4121.1051.0997.266.1495.483.1495.2029,0,.3701-.049.5012-.1469.1313-.098.2109-.2327.2389-.4044.0209-.1504.0007-.2788-.0604-.3856-.0614-.1068-.1583-.1811-.2913-.2233l-.4566-.1364c-.266-.0803-.4619-.217-.5879-.4095-.126-.1922-.1697-.4197-.1313-.6823.035-.2099.1121-.3935.2309-.551s.2729-.2799.4619-.3673.4024-.1313.6404-.1313c.3498,0,.6158.0954.7978.2859.182.1908.2485.4437.1995.7586h-.5668c.0279-.168-.0027-.3001-.092-.3964-.0891-.0963-.2301-.1444-.4225-.1444-.1889,0-.343.0447-.4619.1338-.119.0894-.1889.2144-.21.3753-.0245.1506-.007.2791.0525.3859s.1575.1811.2939.223l.4672.1469c.2624.0806.4558.2173.5801.4095.1242.1925.1653.4217.1233.6877-.035.217-.1155.4058-.2415.5667-.1259.1612-.2878.2862-.4855.3753-.1976.0894-.419.1338-.6639.1338ZM363.2651,785.8377c-.3568,0-.6228-.1005-.7978-.3019-.175-.201-.2345-.473-.1784-.8161l.2677-1.7006c.056-.3429.2029-.6148.4408-.8161.2379-.201.5355-.3019.8923-.3019s.6228.1.7979.2993c.1748.1993.2361.4707.1837.8136l-.2677,1.7057c-.0561.3431-.2039.6151-.4435.8161-.2398.2013-.5381.3019-.895.3019ZM363.3439,785.3339c.1925,0,.3483-.0524.4672-.1575.119-.1051.1942-.2571.2257-.4568l.2678-1.7006c.0315-.1993.0051-.3517-.0787-.4565-.084-.1051-.2223-.1575-.4148-.1575s-.3473.0524-.4645.1575c-.1173.1048-.1916.2571-.2231.4565l-.2677,1.7006c-.0315.1996-.0053.3517.0787.4568s.2204.1575.4094.1575ZM365.2754,785.7853l.6088-3.8315h.7086l.6194,3.186c.007-.098.0165-.217.0289-.3571.0121-.1398.0271-.2851.0446-.4354.0175-.1506.0367-.2888.0577-.4146l.315-1.9788h.525l-.609,3.8315h-.7085l-.6141-3.186c-.0071.0945-.0167.209-.0289.3437s-.0272.2757-.0446.4226c-.0177.1469-.0367.2833-.0578.4095l-.315,2.0102h-.5301ZM368.2252,785.7853l1.5851-3.8315h.7454l.3726,3.8315h-.5616l-.0735-.9711h-1.0865l-.3884.9711h-.5932ZM369.3852,784.3418h.8714l-.0893-1.1023c-.0175-.1959-.0298-.3654-.0367-.5089-.0071-.1435-.0105-.2432-.0105-.2993-.0175.0561-.0517.1558-.1024.2993s-.1146.3112-.1915.5038l-.441,1.1075ZM371.7208,785.7853l.6088-3.8315h.567l-.525,3.3118h1.6744l-.0787.5197h-2.2465ZM376.6785,785.8377c-.3673,0-.6342-.1005-.8003-.3019-.1663-.201-.2214-.475-.1654-.8213l.4357-2.7608h.567l-.4357,2.7554c-.0315.1962-.008.35.0708.4619.0787.1122.2144.168.4068.168.1925,0,.3473-.0558.4646-.168.1172-.1119.1915-.2657.2231-.4619l.4355-2.7554h.567l-.4357,2.7608c-.056.35-.2003.6245-.433.8241-.2328.1993-.5328.299-.9003.299ZM379.8435,785.8377c-.385,0-.6736-.0951-.8661-.2859-.1924-.1908-.2641-.4505-.2151-.7794h.5668c-.028.1748.0105.3121.1155.4121.1051.0997.266.1495.483.1495.2029,0,.3701-.049.5012-.1469.1313-.098.2109-.2327.2389-.4044.0209-.1504.0007-.2788-.0604-.3856-.0614-.1068-.1583-.1811-.2913-.2233l-.4566-.1364c-.266-.0803-.4619-.217-.5879-.4095-.126-.1922-.1697-.4197-.1313-.6823.035-.2099.1121-.3935.2309-.551s.2729-.2799.4619-.3673.4024-.1313.6404-.1313c.3498,0,.6158.0954.7978.2859.182.1908.2485.4437.1995.7586h-.5668c.0279-.168-.0027-.3001-.092-.3964-.0891-.0963-.2301-.1444-.4225-.1444-.1889,0-.343.0447-.4619.1338-.119.0894-.1889.2144-.21.3753-.0245.1506-.007.2791.0525.3859s.1575.1811.2939.223l.4672.1469c.2624.0806.4558.2173.5801.4095.1242.1925.1653.4217.1233.6877-.035.217-.1155.4058-.2415.5667-.1259.1612-.2878.2862-.4855.3753-.1976.0894-.419.1338-.6639.1338ZM381.9062,785.7853l.6088-3.8315h2.2518l-.0787.5038h-1.6954l-.1731,1.0867h1.5115l-.0787.4986h-1.5115l-.1942,1.2387h1.6901l-.0787.5038h-2.2518ZM386.9426,785.8377c-.3568,0-.6228-.1005-.7978-.3019-.175-.201-.2345-.473-.1784-.8161l.2677-1.7006c.056-.3429.2029-.6148.4408-.8161.2379-.201.5355-.3019.8923-.3019s.6228.1.7979.2993c.1748.1993.2361.4707.1837.8136l-.2677,1.7057c-.0561.3431-.2039.6151-.4435.8161-.2398.2013-.5381.3019-.895.3019ZM387.0213,785.3339c.1925,0,.3483-.0524.4672-.1575.119-.1051.1942-.2571.2257-.4568l.2678-1.7006c.0315-.1993.0051-.3517-.0787-.4565-.084-.1051-.2223-.1575-.4148-.1575s-.3473.0524-.4645.1575c-.1173.1048-.1916.2571-.2231.4565l-.2677,1.7006c-.0315.1996-.0053.3517.0787.4568s.2204.1575.4094.1575ZM388.9529,785.7853l.6088-3.8315h.7086l.6194,3.186c.007-.098.0165-.217.0289-.3571.0121-.1398.0271-.2851.0446-.4354.0175-.1506.0367-.2888.0577-.4146l.315-1.9788h.525l-.609,3.8315h-.7085l-.6141-3.186c-.0071.0945-.0167.209-.0289.3437s-.0272.2757-.0446.4226c-.0177.1469-.0367.2833-.0578.4095l-.315,2.0102h-.5301ZM392.249,785.7853l.6088-3.8315h.567l-.525,3.3118h1.6744l-.0787.5197h-2.2465ZM396.1174,785.7853l.2204-1.4119-.7506-2.4197h.5774l.4462,1.4486c.0279.0945.0498.1837.0656.2677.0157.084.0253.1469.0288.1888.0175-.0419.0464-.1048.0867-.1888.0402-.084.0883-.1731.1442-.2677l.8976-1.4486h.5984l-1.5275,2.4197-.2204,1.4119h-.5668ZM399.217,785.7853l.6088-3.8315h.7086l.6192,3.186c.0071-.098.0165-.217.029-.3571.012-.1398.0271-.2851.0444-.4354.0177-.1506.037-.2888.0578-.4146l.315-1.9788h.5248l-.6088,3.8315h-.7085l-.6141-3.186c-.0071.0945-.0167.209-.0289.3437s-.0272.2757-.0446.4226c-.0177.1469-.0367.2833-.0578.4095l-.315,2.0102h-.5301ZM403.5053,785.8377c-.3571,0-.6231-.1005-.7979-.3019-.1751-.201-.2344-.473-.1785-.8161l.2677-1.7006c.0561-.3429.203-.6148.4411-.8161.2378-.201.5354-.3019.8922-.3019.3571,0,.6228.1.7979.2993.1748.1993.2361.4707.1837.8136l-.2677,1.7057c-.0561.3431-.2039.6151-.4437.8161-.2395.2013-.5379.3019-.8947.3019ZM403.5839,785.3339c.1925,0,.3483-.0524.4673-.1575.1187-.1051.1942-.2571.2255-.4568l.2677-1.7006c.0316-.1993.0054-.3517-.0786-.4565-.084-.1051-.2224-.1575-.4146-.1575-.1925,0-.3474.0524-.4647.1575-.117.1048-.1914.2571-.223.4565l-.2677,1.7006c-.0316.1996-.0051.3517.0789.4568.0837.1051.2204.1575.4092.1575ZM406.3814,785.7853l.5248-3.3121h-1.0234l.084-.5194h2.6193l-.084.5194h-1.0289l-.5248,3.3121h-.567ZM409.5178,785.7853l.6088-3.8315h2.32l-.084.5194h-1.7636l-.1837,1.1445h1.6272l-.084.5248h-1.6166l-.2571,1.6428h-.567ZM413.7694,785.8377c-.3571,0-.6231-.1005-.7979-.3019-.1751-.201-.2344-.473-.1785-.8161l.2677-1.7006c.0561-.3429.203-.6148.4411-.8161.2378-.201.5354-.3019.8922-.3019.3571,0,.6228.1.7979.2993.1748.1993.2361.4707.1837.8136l-.2677,1.7057c-.0561.3431-.2039.6151-.4437.8161-.2395.2013-.5379.3019-.8947.3019ZM413.848,785.3339c.1925,0,.3483-.0524.4673-.1575.1187-.1051.1942-.2571.2255-.4568l.2677-1.7006c.0316-.1993.0054-.3517-.0786-.4565-.084-.1051-.2224-.1575-.4146-.1575-.1925,0-.3474.0524-.4647.1575-.117.1048-.1914.2571-.223.4565l-.2677,1.7006c-.0316.1996-.0051.3517.0789.4568.0837.1051.2204.1575.4092.1575ZM415.7952,785.7853l.6088-3.8315h1.202c.2381,0,.4391.0464.6037.139.1643.0928.2833.223.3568.391s.0911.3656.0527.5932c-.0387.2591-.1401.4838-.3044.6746-.1646.1905-.3659.3209-.6037.391l.5354,1.6428h-.6194l-.4776-1.5748h-.5408l-.2466,1.5748h-.567ZM416.6876,783.7068h.635c.1891,0,.3491-.0558.4804-.168.131-.1119.2107-.2623.2386-.4514.0316-.1925,0-.3454-.0945-.4593-.0943-.1136-.2361-.1706-.4252-.1706h-.635l-.1993,1.2493ZM420.905,785.8377c-.3602,0-.6308-.1005-.8107-.3019-.1803-.201-.2423-.473-.1865-.8161l.2677-1.7006c.0561-.3463.2056-.6194.4488-.8187s.545-.2993.9056-.2993c.3568,0,.6253.1008.8056.3019.1803.2013.2423.4733.1865.8161h-.567c.0313-.1993.0026-.3517-.0866-.4565-.0894-.1051-.2284-.1575-.4175-.1575-.1925,0-.3508.0524-.475.1575-.1242.1048-.2019.2554-.2335.4514l-.2677,1.7057c-.0316.1996-.0026.3517.0866.4568.0894.1051.2301.1575.4226.1575s.35-.0524.4724-.1575.1993-.2571.2309-.4568h.5667c-.0347.2275-.1145.4252-.2386.5932s-.2808.2976-.4699.3884c-.1888.0908-.4024.1364-.6404.1364ZM424.0335,785.8377c-.3571,0-.6231-.1005-.7979-.3019-.1751-.201-.2344-.473-.1785-.8161l.2677-1.7006c.0561-.3429.203-.6148.4411-.8161.2378-.201.5354-.3019.8922-.3019.3571,0,.6228.1.7979.2993.1748.1993.2361.4707.1837.8136l-.2677,1.7057c-.0561.3431-.2039.6151-.4437.8161-.2395.2013-.5379.3019-.8947.3019ZM424.1121,785.3339c.1925,0,.3483-.0524.4673-.1575.1187-.1051.1942-.2571.2255-.4568l.2677-1.7006c.0316-.1993.0054-.3517-.0786-.4565-.084-.1051-.2224-.1575-.4146-.1575-.1925,0-.3474.0524-.4647.1575-.117.1048-.1914.2571-.223.4565l-.2677,1.7006c-.0316.1996-.0051.3517.0789.4568.0837.1051.2204.1575.4092.1575ZM425.9653,785.7853l.6088-3.8315h.6874l.1837,1.2282c.0211.119.0367.2301.0473.3332.0105.1034.0194.1828.0262.2389.0177-.0561.0473-.1364.0894-.2415.0419-.1051.0908-.217.1469-.336l.5667-1.2228h.7088l-.6088,3.8315h-.5354l.2045-1.2911c.0245-.168.0578-.3525.1-.5539.0419-.201.0874-.4041.1364-.6088s.0963-.3998.1418-.5852c.0453-.1854.0874-.3483.1259-.4881l-.8554,1.8632h-.5513l-.2833-1.8632c-.0037.1364-.0105.2947-.0211.475s-.0236.3719-.0393.5747c-.0157.203-.035.4069-.0578.6114-.0228.2047-.0481.3964-.076.5749l-.2047,1.2911h-.5405ZM429.1145,785.7853l.6088-3.8315h.6874l.1837,1.2282c.0211.119.0367.2301.0473.3332.0105.1034.0194.1828.0262.2389.0177-.0561.0473-.1364.0894-.2415.0419-.1051.0908-.217.1469-.336l.5667-1.2228h.7088l-.6088,3.8315h-.5354l.2045-1.2911c.0245-.168.0578-.3525.1-.5539.0419-.201.0874-.4041.1364-.6088s.0963-.3998.1418-.5852c.0453-.1854.0874-.3483.1259-.4881l-.8554,1.8632h-.5513l-.2833-1.8632c-.0037.1364-.0105.2947-.0211.475s-.0236.3719-.0393.5747c-.0157.203-.035.4069-.0578.6114-.0228.2047-.0481.3964-.076.5749l-.2047,1.2911h-.5405ZM432.4107,785.7853l.6088-3.8315h2.2516l-.0786.5038h-1.6955l-.1731,1.0867h1.5115l-.0786.4986h-1.5118l-.1942,1.2387h1.6901l-.0786.5038h-2.2516ZM435.5073,785.7853l.6088-3.8315h1.202c.2381,0,.4391.0464.6037.139.1643.0928.2833.223.3568.391s.0911.3656.0527.5932c-.0387.2591-.1401.4838-.3044.6746-.1646.1905-.3659.3209-.6037.391l.5354,1.6428h-.6194l-.4776-1.5748h-.5408l-.2466,1.5748h-.567ZM436.3997,783.7068h.635c.1891,0,.3491-.0558.4804-.168.131-.1119.2107-.2623.2386-.4514.0316-.1925,0-.3454-.0945-.4593-.0943-.1136-.2361-.1706-.4252-.1706h-.635l-.1993,1.2493ZM439.8007,785.8377c-.3602,0-.6308-.1005-.8107-.3019-.1803-.201-.2423-.473-.1865-.8161l.2677-1.7006c.0561-.3463.2056-.6194.4488-.8187s.545-.2993.9056-.2993c.3568,0,.6253.1008.8056.3019.1803.2013.2423.4733.1865.8161h-.567c.0313-.1993.0026-.3517-.0866-.4565-.0894-.1051-.2284-.1575-.4175-.1575-.1925,0-.3508.0524-.475.1575-.1242.1048-.2019.2554-.2335.4514l-.2677,1.7057c-.0316.1996-.0026.3517.0866.4568.0894.1051.2301.1575.4226.1575s.35-.0524.4724-.1575.1993-.2571.2309-.4568h.5667c-.0347.2275-.1145.4252-.2386.5932s-.2808.2976-.4699.3884c-.1888.0908-.4024.1364-.6404.1364ZM441.8792,785.7853l.0789-.5038h.7768l.4459-2.824h-.7766l.0837-.5038h2.1258l-.084.5038h-.7766l-.4462,2.824h.7768l-.0789.5038h-2.1258ZM444.7399,785.7853l1.585-3.8315h.7452l.3728,3.8315h-.5616l-.0735-.9711h-1.0867l-.3884.9711h-.5929ZM445.8998,784.3418h.8714l-.0894-1.1023c-.0174-.1959-.0296-.3654-.0367-.5089-.0068-.1435-.0103-.2432-.0103-.2993-.0177.0561-.0518.1558-.1025.2993s-.1148.3112-.1916.5038l-.4408,1.1075ZM448.2354,785.7853l.6088-3.8315h.567l-.5248,3.3118h1.6741l-.0786.5197h-2.2465ZM453.1932,785.8377c-.3676,0-.6345-.1005-.8005-.3019-.1663-.201-.2213-.475-.1654-.8213l.4357-2.7608h.567l-.4357,2.7554c-.0316.1962-.008.35.0709.4619.0786.1122.2141.168.4066.168s.3474-.0558.4645-.168c.1173-.1119.1916-.2657.2233-.4619l.4357-2.7554h.5667l-.4357,2.7608c-.0558.35-.2002.6245-.4328.8241-.2329.1993-.5328.299-.9001.299ZM456.3581,785.8377c-.385,0-.6738-.0951-.866-.2859-.1925-.1908-.2643-.4505-.2153-.7794h.567c-.0282.1748.0105.3121.1153.4121.1051.0997.266.1495.483.1495.2028,0,.3699-.049.5012-.1469s.2107-.2327.2389-.4044c.0211-.1504.0009-.2788-.0604-.3856s-.1583-.1811-.2913-.2233l-.4568-.1364c-.266-.0803-.4619-.217-.5878-.4095-.1259-.1922-.1697-.4197-.1313-.6823.035-.2099.1119-.3935.2309-.551s.2731-.2799.4619-.3673c.1891-.0874.4024-.1313.6404-.1313.3497,0,.6157.0954.7979.2859.1817.1908.2483.4437.1993.7586h-.567c.0279-.168-.0026-.3001-.0917-.3964-.0894-.0963-.2301-.1444-.4226-.1444-.1891,0-.3429.0447-.4619.1338-.119.0894-.1891.2144-.2099.3753-.0245.1506-.0071.2791.0524.3859s.1575.1811.2939.223l.4673.1469c.2623.0806.4556.2173.5798.4095.1242.1925.1654.4217.1236.6877-.035.217-.1156.4058-.2415.5667-.1262.1612-.2879.2862-.4855.3753-.1979.0894-.4192.1338-.6641.1338ZM458.4209,785.7853l.6088-3.8315h2.2516l-.0786.5038h-1.6955l-.1731,1.0867h1.5115l-.0786.4986h-1.5118l-.1942,1.2387h1.6901l-.0786.5038h-2.2516Z" style="fill: #ccc;"/>
  <g>
    <g>
      <g>
        <path d="M660.4395,197.6727l-1.8904-10.0233-9.9666-2.0814c-.6774-.1258-66.6334-13.9705-125.3233-46.7319-83.6334-46.8435-111.8128-76.406-112.0587-76.6794l-11.1756-12.1567-11.1766,12.097c-.2885.3075-28.5284,29.9362-112.0994,76.7286-58.6605,32.7406-124.6686,46.6166-125.3508,46.7423l-9.9787,2.0814-1.8582,10.0233c-11.6515,62.5709-11.818,125.6147-.4749,187.4939l5.0664,24.6362,1.4108,5.6994c15.9667,64.9154,44.1649,125.558,83.8993,180.2685,43.0893,59.3691,97.8593,109.0954,162.7509,147.8486l7.7725,4.6492,7.8008-4.6492c64.885-38.7532,119.6371-88.4795,162.7463-147.8486,39.7333-54.7106,67.9277-115.3304,83.8944-180.2685l6.4772-30.3356c11.346-61.8791,11.1946-124.8994-.4654-187.4939"/>
        <path d="M645.5135,200.4437s-68.3346-14.0829-129.653-48.3638c-88.2013-49.3696-115.8536-79.6711-115.8536-79.6711,0,0-27.6891,30.3015-115.8526,79.6711-61.3533,34.2809-129.6718,48.3638-129.6718,48.3638-12.6004,67.646-11.1198,135.3703,3.1392,199.8769h484.7354c14.2714-64.5083,15.7359-132.2328,3.1564-199.8769" style="fill: #f89728;"/>
        <path d="M400.0154,730.5686c128.3377-76.6284,212.8379-196.5703,242.3455-330.2441H157.618c29.553,133.6739,113.9983,253.6157,242.3974,330.2441" style="fill: #b30838;"/>
        <line x1="153.7673" y1="400.3245" x2="646.2324" y2="400.3245" style="fill: none; stroke: #000; stroke-linecap: round; stroke-miterlimit: 10; stroke-width: .418px;"/>
      </g>
      <g style="isolation: isolate;">
        <path d="M436.6474,737.7003v-1.6292h11.3345v1.6292h-4.7306v12.2997h-1.8658v-12.2997h-4.7382Z"/>
        <path d="M449.6906,750v-13.9289h2.6813l3.9511,11.7773,3.9623-11.7773h2.6813v13.9289h-1.7427v-11.836l-3.9623,11.836h-1.8658l-3.9625-11.836v11.836h-1.7427Z"/>
      </g>
    </g>
    <g>
      <path d="M343.354,610.7591v-7.6388c0-1.3947,0-2.0721-.8704-2.0721-1.087,0-5.4212,2.2235-6.6729,2.759-.2887.1228-.5914.2534-.8194.2534-.1769,0-.4654-.3255-.4654-.6774,0-.3443.2885-.617.5714-.791.2469-.1513,11.328-7.4573,13.3489-8.9731.5156-.3329,1.0312-.7568,1.4862-.7568.5309,0,.6974.6567.6974,1.232,0,.4654-.3548,6.2141-.3548,15.136v10.7744c0,5.5973,0,10.5399.2383,13.1247.1666,1.8619.4656,2.7096,2.3002,3.1336.8799.155,3.3502.3443,3.8195.3443.2288,0,.5156.1723.5156.5865,0,.403-.2868.5146-.9206.5146-4.3909,0-8.0742-.1701-9.6458-.1701-1.3037,0-6.1602.1701-9.8728.1701-.6216,0-.9584-.1116-.9584-.5146,0-.4143.2166-.5865.4645-.5865.6321,0,3.568-.1893,4.6134-.424,1.8448-.4011,2.1316-1.192,2.3085-3.0503.2166-2.5885.3426-7.5272.2782-13.1265l-.0616-9.2475Z" style="fill: #010101;"/>
      <path d="M343.354,610.7591v-7.6388c0-1.3947,0-2.0721-.8704-2.0721-1.087,0-5.4212,2.2235-6.6729,2.759-.2887.1228-.5914.2534-.8194.2534-.1769,0-.4654-.3255-.4654-.6774,0-.3443.2885-.617.5714-.791.2469-.1513,11.328-7.4573,13.3489-8.9731.5156-.3329,1.0312-.7568,1.4862-.7568.5309,0,.6974.6567.6974,1.232,0,.4654-.3548,6.2141-.3548,15.136v10.7744c0,5.5973,0,10.5399.2383,13.1247.1666,1.8619.4656,2.7096,2.3002,3.1336.8799.155,3.3502.3443,3.8195.3443.2288,0,.5156.1723.5156.598,0,.3935-.2868.5071-.9206.5071-4.3909,0-8.0742-.174-9.6458-.174-1.3037,0-6.1602.174-9.8728.174-.6216,0-.9584-.1135-.9584-.5071,0-.424.2166-.598.4645-.598.6321,0,3.568-.1893,4.6134-.424,1.8448-.4011,2.1316-1.192,2.3085-3.0503.2166-2.5885.3426-7.5272.2782-13.1265l-.0616-9.2475Z" style="fill: none; stroke: #000; stroke-miterlimit: 10; stroke-width: .165px;"/>
      <path d="M394.861,608.6966c0,16.3093-14.137,26.567-21.2774,29.9618-.2773.1513-.5658.2327-1.019.2327-.2527,0-.5412-.2934-.5412-.596,0-.424.403-.7568.6917-.9688,5.9916-3.6899,14.9959-13.2571,14.9959-26.991,0-10.3089-4.3247-14.8465-8.7762-14.8465-4.1383,0-6.9114,3.7277-6.9114,8.6722,0,8.901,5.7145,11.0034,7.6787,11.0034,2.0171,0,3.1743-.3426,3.9226-.6964.6216-.3443.9272-.617,1.1467-.617.2271,0,.4551.231.4551.5053,0,.1723-.1722.5563-.2885.6357-1.6662,1.8109-4.6578,2.6775-7.6032,2.6775-8.3126,0-11.7678-6.3464-11.7678-11.2361,0-7.8717,5.8773-13.5824,14.769-13.5824,9.392.0017,14.5249,7.005,14.5249,15.8456" style="fill: #010101;"/>
      <path d="M394.861,608.6966c0,16.3093-14.137,26.567-21.2774,29.9618-.2773.1513-.5658.2327-1.019.2327-.2527,0-.5412-.2934-.5412-.596,0-.424.403-.7568.6917-.9688,5.9916-3.6899,14.9959-13.2571,14.9959-26.991,0-10.3089-4.3247-14.8465-8.7762-14.8465-4.1383,0-6.9114,3.7277-6.9114,8.6722,0,8.901,5.7145,11.0034,7.6787,11.0034,2.0171,0,3.1743-.3426,3.9226-.6964.6216-.3443.9272-.617,1.1467-.617.2271,0,.4551.231.4551.5053,0,.1723-.1722.5563-.2885.6357-1.6662,1.8109-4.6578,2.6775-7.6032,2.6775-8.3126,0-11.7678-6.3464-11.7678-11.2361,0-7.8717,5.8773-13.5712,14.769-13.5712,9.392,0,14.5249,6.9938,14.5249,15.8344Z" style="fill: none; stroke: #000; stroke-miterlimit: 10; stroke-width: .165px;"/>
      <path d="M400.8129,637.5383c-.405,0-.7975-.3445-.7975-.8099s.5611-.9898,1.1411-1.5251c8.0684-7.1451,19.5525-16.26,19.5525-28.5388,0-9.2058-5.0276-11.0772-7.9115-11.0772-2.4637,0-4.3807.4769-6.1195,2.1041-1.3548,1.3548-2.4184,4.0722-2.4184,5.5783,0,.598-.1664,1.1411-.7342,1.1411-.3027,0-.4693-.4259-.5298-1.1411-.0492-.5071-.3368-5.3476-.3368-7.024,0-.5261.0605-.7568.7001-1.1808,2.2347-1.1638,5.3512-2.2045,10.43-2.2045,10.1537,0,14.4606,5.5993,14.4606,12.4,0,11.308-12.3809,21.159-19.8327,27.1631-.2895.191-.1721.384.1155.384h3.9321c.9839,0,7.7808-.0415,9.9229-.3253,3.9813-.4844,5.8622-2.4562,6.5698-5.1924.1591-.7001.3331-.931.6964-.931.3823,0,.4542.5261.4542,1.1014,0,.9403-1.0919,6.3654-1.6672,8.3184-.4654,1.5649-1.3945,1.7559-5.0238,1.7559h-22.604v.0039Z" style="fill: #010101;"/>
      <path d="M400.8129,637.5383c-.405,0-.7975-.3445-.7975-.8099s.5611-.9898,1.1411-1.5251c8.0684-7.1451,19.5525-16.26,19.5525-28.5388,0-9.2058-5.0276-11.064-7.9115-11.064-2.4637,0-4.3807.4637-6.1195,2.0909-1.3548,1.3662-2.4184,4.0759-2.4184,5.5803,0,.596-.1664,1.1411-.7342,1.1411-.3027,0-.4693-.424-.5298-1.1411-.0492-.5053-.3368-5.3456-.3368-7.024,0-.5242.0605-.7588.7001-1.1827,2.2347-1.1618,5.3512-2.2025,10.43-2.2025,10.1537,0,14.4606,5.5973,14.4606,12.3981,0,11.308-12.3809,21.159-19.8327,27.165-.2895.193-.1721.3821.1155.3821h3.9321c.9839,0,7.7808-.0378,9.9229-.3122,3.9813-.4976,5.8622-2.4655,6.5698-5.2055.1591-.6964.3331-.9291.6964-.9291.3823,0,.4542.5356.4542,1.1031,0,.9386-1.0919,6.3656-1.6672,8.3147-.4654,1.5666-1.3945,1.7598-5.0238,1.7598h-22.604Z" style="fill: none; stroke: #000; stroke-miterlimit: 10; stroke-width: .165px;"/>
      <path d="M464.0812,593.8425c1.0919,0,1.3738.193,1.3738.4654,0,.3633-.2234.8287-.4013,1.0597-4.7816,6.8707-13.783,30.0035-14.6535,37.4513-.0907,1.0029,0,1.3738,0,2.1818,0,1.1411-4.6473,3.5176-7.2567,3.5176-.6565,0-.808-.1703-.808-.6774,0-.617.1098-1.4873.403-2.3955,1.6065-5.5973,8.9938-22.775,16.9469-36.2158h-14.9355c-1.6084,0-4.0228.1099-5.408,1.039-1.0597.7001-1.7976,2.5658-1.9206,3.4779-.0512.4654-.2215.7873-.5658.7873-.403,0-.4654-.3218-.4654-.9198,0-2.1117.8685-8.9427.8685-9.5387,0-.5431.2232-.808.5658-.808.3443,0,1.6784.5753,7.7923.5753h18.4645Z" style="fill: #010101;"/>
      <path d="M464.0812,593.8425c1.0919,0,1.3738.193,1.3738.4654,0,.3633-.2234.8287-.4013,1.0597-4.7816,6.8707-13.783,30.0035-14.6535,37.4513-.0907,1.0029,0,1.3738,0,2.1818,0,1.1411-4.6473,3.5176-7.2567,3.5176-.6565,0-.808-.1703-.808-.6774,0-.617.1098-1.4873.403-2.3955,1.6065-5.5973,8.9938-22.775,16.9469-36.2158h-14.9355c-1.6084,0-4.0228.1099-5.408,1.039-1.0597.7001-1.7976,2.5658-1.9206,3.4779-.0512.4654-.2215.7873-.5658.7873-.403,0-.4654-.3218-.4654-.9198,0-2.1117.8685-8.9427.8685-9.5387,0-.5431.2232-.808.5658-.808.3443,0,1.6784.5753,7.7923.5753h18.4645Z" style="fill: none; stroke: #000; stroke-miterlimit: 10; stroke-width: .165px;"/>
      <path d="M343.354,608.655v-7.6069c0-1.4059,0-2.1041-.8704-2.1041-1.087,0-5.4014,2.2442-6.6729,2.7815-.2887.1211-.5914.2517-.8194.2517-.157,0-.4654-.2934-.4654-.6567,0-.3443.3085-.6357.5714-.8097.2469-.1401,11.328-7.4555,13.3489-8.9617.4937-.3652,1.0312-.789,1.4862-.789.5309,0,.6974.6565.6974,1.2507,0,.4447-.3548,6.2178-.3548,15.1397v10.7726c0,5.5973,0,10.5606.2383,13.0868.1666,1.8979.4656,2.7476,2.3002,3.1714.8799.1515,3.3502.3255,3.8195.3255.2288,0,.5156.1911.5156.6357,0,.386-.2868.4656-.9206.4656-4.3909,0-8.0742-.1515-9.6458-.1515-1.3037,0-6.1602.1515-9.8509.1515-.6435,0-.9803-.0796-.9803-.4656,0-.4428.2166-.6357.4645-.6357.6321,0,3.568-.174,4.6134-.384,1.8448-.4259,2.1316-1.213,2.3085-3.1128.2166-2.5261.3426-7.4858.2792-13.0829l-.0626-9.2721Z" style="fill: #c9cacc;"/>
      <path d="M343.354,608.655v-7.6069c0-1.4059,0-2.1041-.8704-2.1041-1.087,0-5.4014,2.2537-6.6729,2.7815-.2887.1211-.5914.2517-.8194.2517-.157,0-.4654-.2934-.4654-.6567,0-.3443.3085-.6357.5714-.8097.2469-.1401,11.328-7.4555,13.3489-8.9617.4937-.3652,1.0312-.789,1.4862-.789.5309,0,.6974.6565.6974,1.2507,0,.4447-.3548,6.2178-.3548,15.1397v10.7726c0,5.5973,0,10.5606.2383,13.0868.1666,1.9094.4656,2.7476,2.3002,3.1714.8799.1515,3.3502.3255,3.8195.3255.2288,0,.5156.1911.5156.6357,0,.386-.2868.4656-.9206.4656-4.3909,0-8.0742-.1515-9.6458-.1515-1.3037,0-6.1602.1515-9.8509.1515-.6435,0-.9803-.0796-.9803-.4656,0-.4428.2166-.6357.4645-.6357.6321,0,3.568-.174,4.6134-.384,1.8448-.4259,2.1316-1.2035,2.3085-3.1128.2166-2.5261.3426-7.4858.2792-13.0829l-.0626-9.2721Z" style="fill: none; stroke: #c9cacc; stroke-miterlimit: 10; stroke-width: .165px;"/>
      <path d="M394.861,606.6152c0,16.311-14.137,26.567-21.2774,29.9618-.299.1513-.5658.2347-1.0407.2347-.2327,0-.5214-.3255-.5214-.617,0-.405.4032-.7381.6917-.9727,5.9918-3.686,14.9959-13.2381,14.9959-26.9681,0-10.3072-4.3247-14.877-8.7563-14.877-4.1582,0-6.9331,3.7391-6.9331,8.7007,0,8.9049,5.7145,11.0241,7.6787,11.0241,2.0171,0,3.1741-.3633,3.9216-.6962.6226-.3823.9281-.6567,1.1477-.6567.2261,0,.455.2517.455.5241,0,.1552-.1721.5071-.2885.6396-1.6662,1.809-4.6578,2.6472-7.603,2.6472-8.3128,0-11.768-6.3164-11.768-11.2173,0-7.8622,5.8773-13.5712,14.769-13.5712,9.3959-.0019,14.5287,6.9994,14.5287,15.8438" style="fill: #c9cacc;"/>
      <path d="M394.861,606.6152c0,16.311-14.137,26.567-21.2774,29.9618-.299.1513-.5658.2347-1.0407.2347-.2327,0-.5214-.3255-.5214-.617,0-.405.4032-.7381.6917-.9727,5.9918-3.686,14.9959-13.2381,14.9959-26.9681,0-10.3072-4.3247-14.877-8.7563-14.877-4.1582,0-6.9331,3.7391-6.9331,8.7007,0,8.9049,5.7145,11.0241,7.6787,11.0241,2.0171,0,3.1741-.3633,3.9216-.6962.6226-.3823.9281-.6567,1.1477-.6567.2261,0,.455.2517.455.5241,0,.1552-.1721.5071-.2885.6396-1.6662,1.809-4.6578,2.6567-7.603,2.6567-8.3128,0-11.768-6.3259-11.768-11.2268,0-7.8622,5.8773-13.5712,14.769-13.5712,9.3959-.0019,14.5287,6.9994,14.5287,15.8438Z" style="fill: none; stroke: #c9cacc; stroke-miterlimit: 10; stroke-width: .165px;"/>
      <path d="M400.8129,635.4567c-.405,0-.7975-.3141-.7975-.8287,0-.4466.5611-.9915,1.1411-1.5061,8.0684-7.166,19.5525-16.2393,19.5525-28.539,0-9.2056-5.0276-11.0638-7.9115-11.0638-2.4637,0-4.3807.4654-6.1195,2.0719-1.3548,1.3624-2.4184,4.091-2.4184,5.5993,0,.6148-.1664,1.1221-.7342,1.1221-.3027,0-.4693-.424-.5298-1.1221-.0587-.5053-.3368-5.3456-.3368-7.043,0-.5242.0605-.7588.7001-1.1638,2.2347-1.1618,5.3512-2.2025,10.43-2.2025,10.1537,0,14.4606,5.601,14.4606,12.4208,0,11.2663-12.3809,21.1211-19.8327,27.1423-.2895.193-.1721.403.1155.403h3.9321c.9839,0,7.7808-.0814,9.9229-.3538,3.9813-.4751,5.8622-2.4637,6.5698-5.1735.1591-.7266.3521-.9403.6964-.9403.403,0,.4542.5354.4542,1.0804,0,.9613-1.0919,6.3883-1.6672,8.3372-.4654,1.5668-1.3945,1.7598-5.0238,1.7598h-22.604Z" style="fill: #c9cacc;"/>
      <path d="M400.8129,635.4567c-.405,0-.7975-.3141-.7975-.8287,0-.4466.5611-.9915,1.1411-1.5061,8.0684-7.166,19.5525-16.2393,19.5525-28.539,0-9.2056-5.0276-11.0638-7.9115-11.0638-2.4637,0-4.3807.4654-6.1195,2.0719-1.3548,1.3624-2.4184,4.091-2.4184,5.5993,0,.6148-.1664,1.1221-.7342,1.1221-.3027,0-.4693-.424-.5298-1.1221-.0587-.5053-.3368-5.3456-.3368-7.0335,0-.5336.0605-.7683.7001-1.1733,2.2347-1.1618,5.3512-2.2025,10.43-2.2025,10.1537,0,14.4606,5.601,14.4606,12.4301,0,11.257-12.3809,21.1118-19.8327,27.133-.2895.193-.1721.403.1155.403h3.9321c.9839,0,7.7808-.0814,9.9229-.3538,3.9813-.4751,5.8622-2.4637,6.5698-5.1735.1591-.7266.3521-.9403.6964-.9403.403,0,.4542.5354.4542,1.0804,0,.9613-1.0919,6.3883-1.6672,8.3372-.4654,1.5668-1.3945,1.7598-5.0238,1.7598h-22.604Z" style="fill: none; stroke: #c9cacc; stroke-miterlimit: 10; stroke-width: .165px;"/>
      <path d="M464.0812,591.7611c1.0919,0,1.3738.2118,1.3738.4635,0,.3652-.2234.8307-.4013,1.0407-4.7816,6.8934-13.783,30.0015-14.6535,37.4912-.0907.9688,0,1.3736,0,2.1609,0,1.1221-4.6473,3.5157-7.2567,3.5157-.6565,0-.808-.1701-.808-.6962,0-.598.1098-1.4457.403-2.3767,1.6065-5.5973,8.9938-22.7977,16.9469-36.2365h-14.9355c-1.6084,0-4.0228.1004-5.408,1.0407-1.0597.6964-1.7976,2.5848-1.9206,3.5159-.0512.4654-.2215.7493-.5658.7493-.403,0-.4654-.2839-.4654-.8704,0-2.1913.8495-8.9731.8495-9.5691,0-.5753.2422-.8287.5848-.8287.3443,0,1.6784.596,7.7923.596h18.4645v.0039Z" style="fill: #c9cacc;"/>
      <path d="M464.0812,591.7611c1.0919,0,1.3738.2118,1.3738.4635,0,.3652-.2234.8307-.4013,1.0407-4.7816,6.8934-13.783,30.0015-14.6535,37.4912-.0907.9801,0,1.3736,0,2.1609,0,1.1221-4.6473,3.5157-7.2567,3.5157-.6565,0-.808-.1701-.808-.6962,0-.598.1098-1.4457.403-2.3767,1.6065-5.5973,8.9938-22.7977,16.9469-36.2365h-14.9355c-1.6084,0-4.0228.1099-5.408,1.0407-1.0597.6964-1.7976,2.5848-1.9206,3.5159-.0512.4654-.2215.7493-.5658.7493-.403,0-.4654-.2839-.4654-.8704,0-2.1913.8495-8.9731.8495-9.5691,0-.5753.2422-.8287.5848-.8287.3443,0,1.6784.596,7.7923.596h18.4645v.0039Z" style="fill: none; stroke: #c9cacc; stroke-miterlimit: 10; stroke-width: .165px;"/>
    </g>
    <g>
      <path d="M228.4814,491.2317c0-16.4492,0-19.4826-.2261-22.9378-.2176-3.669-1.0775-5.4061-4.6587-6.1934-.8789-.2156-2.7125-.3141-4.2233-.3141-1.1884,0-1.8394-.2118-1.8394-.9801,0-.7381.7522-.9688,2.3796-.9688,5.7335,0,12.5597.3519,14.8407.3519,3.6738,0,11.8986-.3519,15.2629-.3519,6.8169,0,14.0612.6547,19.9073,4.6568,3.0305,2.0607,7.3476,7.5993,7.3476,14.8258,0,8.0116-3.3539,15.3687-14.259,24.2415,9.6108,12.1255,17.0936,21.7665,23.4685,28.4764,6.0751,6.2935,10.5258,7.0523,12.1257,7.3571,1.194.2308,2.1741.3329,3.0227.3329.8894,0,1.3048.3426,1.3048.8477,0,.8706-.7324,1.1033-2.0371,1.1033h-10.2768c-6.0732,0-8.7762-.5241-11.6108-2.0531-4.6426-2.5054-8.7565-7.5879-14.8097-15.9024-4.3436-5.9833-9.3221-13.3404-10.7271-14.945-.5402-.6586-1.2025-.7683-1.9452-.7683l-9.4188-.212c-.541,0-.858.212-.858.8497v1.5271c0,10.0743,0,18.6424.5251,23.161.3329,3.1526.984,5.5272,4.2235,5.9531,1.6377.2308,4.0172.4428,5.3115.4428.8694,0,1.3037.3424,1.3037.8477,0,.789-.7768,1.1031-2.1524,1.1031-6.3173,0-14.3139-.3141-15.9262-.3141-2.0615,0-8.8878.3141-13.2011.3141-1.4203,0-2.1781-.3141-2.1781-1.1031,0-.5053.4344-.8477,1.7286-.8477,1.6377,0,2.9321-.212,3.916-.4428,2.1525-.4259,2.7088-2.8005,3.1336-5.9531.5497-4.5186.5497-13.0868.5497-23.0287v-19.0757h-.0039ZM241.2495,499.7808c0,1.1922.2166,1.6369.9708,1.9301,2.2593.808,5.5159,1.1221,8.2407,1.1221,4.3154,0,5.7099-.4654,7.6656-1.8619,3.2376-2.3616,6.3956-7.3647,6.3956-16.2279,0-15.3689-10.1613-19.8042-16.5788-19.8042-2.6928,0-4.6482.1097-5.7231.4238-.7541.212-.9708.6359-.9708,1.5063v32.9117Z" style="fill: #010101;"/>
      <path d="M298.4057,500.7516c0-18.4835,12.2427-42.4014,44.7004-42.4014,26.9569,0,43.7401,15.7133,43.7401,40.4506,0,24.8073-17.3103,44.3825-44.8159,44.3825-31.0744,0-43.6246-23.2821-43.6246-42.4316M371.6903,502.8349c0-24.2736-13.9703-39.3095-31.696-39.3095-12.4907,0-26.657,6.9124-26.657,33.8805,0,22.4951,12.45,40.3731,33.2155,40.3731,7.6096,0,25.1375-3.6672,25.1375-34.9441" style="fill: #010101;"/>
      <path d="M403.7431,461.1582c.3141-1.8373.9651-2.7966,1.8336-2.7966.8704,0,1.51.4844,2.9274,3.3246l29.5474,60.1866,29.4472-60.9436c.8665-1.7199,1.3831-2.5676,2.3841-2.5676.95,0,1.6065,1.0407,1.9301,3.3246l9.8511,66.2493c.9915,6.8025,2.0626,9.9456,5.3059,10.9371,3.1411.9802,5.3059,1.0899,6.7194,1.0899.9706,0,1.7388.1004,1.7388.7361,0,.8687-1.3132,1.2015-2.8195,1.2015-2.7191,0-17.6546-.2213-21.9802-.5449-2.4864-.212-3.1336-.5451-3.1336-1.1922,0-.5449.4164-.8704,1.1733-1.1845.666-.2308.9801-1.6348.5468-4.6889l-6.4884-47.0489h-.4352l-23.5945,48.2826c-2.4864,5.0637-3.0295,6.0439-4.002,6.0439-.9898,0-2.0607-2.163-3.7883-5.4082-2.6094-4.9614-11.1379-21.5224-12.4605-24.5765-.9706-2.2725-7.4687-15.0357-11.2475-23.161h-.4333l-5.6312,42.2009c-.2064,1.9491-.3226,3.3758-.3226,5.092,0,2.0531,1.4182,3.0295,3.2442,3.4762,1.9659.4238,3.4665.5468,4.5527.5468.8685,0,1.6311.2215,1.6311.7475,0,.9725-.9898,1.194-2.6075,1.194-4.5415,0-9.4281-.3236-11.362-.3236-2.0673,0-7.2511.3236-10.7271.3236-1.0777,0-1.9452-.2215-1.9452-1.194,0-.5261.6414-.7475,1.7379-.7475.8706,0,1.6218,0,3.2491-.3331,3.021-.6565,3.8914-4.88,4.4372-8.5491l10.7215-69.697Z" style="fill: #010101;"/>
      <path d="M522.4001,514.0805c-.5751,0-.7681.193-1.0027.8477l-5.8395,14.8465c-1.0709,2.687-1.616,5.3059-1.616,6.619,0,1.9301.9688,3.3456,4.3144,3.3456h1.6272c1.2944,0,1.616.212,1.616.8477,0,.8704-.6245,1.0824-1.8185,1.0824-3.4553,0-8.1045-.3141-11.4783-.3141-1.192,0-7.1356.3141-12.7746.3141-1.4135,0-2.0607-.212-2.0607-1.0824,0-.6357.4447-.8477,1.3153-.8477.9688,0,2.4845-.1211,3.3529-.2327,4.9616-.6377,7.0145-4.3239,9.1963-9.7319l27.1424-67.1066c1.3133-3.1448,1.9605-4.3066,3.0522-4.3066.9688,0,1.637.9498,2.7079,3.4362,2.5961,5.9531,19.9159,49.2514,26.8397,65.714,4.1136,9.7317,7.2662,11.2361,9.5387,11.7848,1.6272.3217,3.2338.4428,4.5471.4428.8497,0,1.3965.1097,1.3965.8477,0,.8704-.9688,1.0824-4.9728,1.0824-3.9019,0-11.8019,0-20.4553-.212-1.9603-.1002-3.2508-.1002-3.2508-.8704,0-.6357.424-.8477,1.5139-.9688.7493-.212,1.5176-1.192.9915-2.4864l-8.6722-22.2831c-.2422-.5753-.5563-.7663-1.0919-.7663h-24.1186v-.0019ZM544.4694,508.6555c.5241,0,.6377-.2934.5241-.6377l-9.7526-26.6277c-.0794-.4428-.2005-.9801-.5241-.9801-.3426,0-.5356.5334-.6377.9801l-9.9532,26.5273c-.1211.4447,0,.7381.403.7381h19.9404Z" style="fill: #010101;"/>
      <path d="M228.4814,488.8266c0-16.4511,0-19.4826-.2261-22.9378-.2176-3.6899-1.0775-5.4041-4.6587-6.1951-.8789-.1912-2.7125-.3331-4.2233-.3331-1.1884,0-1.8394-.1912-1.8394-.9802,0-.7152.7522-.9498,2.3796-.9498,5.7335,0,12.5597.3141,14.8407.3141,3.6738,0,11.8986-.3141,15.2629-.3141,6.8169,0,14.0612.6793,19.9073,4.6397,3.0305,2.0588,7.3476,7.5974,7.3476,14.8446,0,8.0118-3.3539,15.3689-14.259,24.2417,9.6108,12.1255,17.0936,21.7646,23.4685,28.4745,6.0751,6.2784,10.5258,7.0354,12.1257,7.3778,1.194.21,2.1741.2934,3.0227.2934.8894,0,1.3048.3424,1.3048.8667,0,.8704-.7324,1.1012-2.0371,1.1012h-10.2768c-6.0732,0-8.7762-.5449-11.6108-2.0512-4.6426-2.5281-8.7565-7.5917-14.8097-15.9062-4.3436-5.9604-9.3221-13.3365-10.7271-14.945-.5402-.6545-1.2025-.7663-1.9452-.7663l-9.4188-.2327c-.541,0-.858.2327-.858.8687v1.5269c0,10.0745,0,18.6122.5251,23.1612.3329,3.1336.984,5.5291,4.2235,5.9341,1.6377.2308,4.0172.4428,5.3115.4428.8694,0,1.3037.3424,1.3037.8667,0,.791-.7768,1.1012-2.1524,1.1012-6.3173,0-14.3139-.3141-15.9262-.3141-2.0615,0-8.8878.3141-13.2011.3141-1.4203,0-2.1781-.3141-2.1781-1.1012,0-.5243.4344-.8667,1.7286-.8667,1.6377,0,2.9321-.212,3.916-.4428,2.1525-.405,2.7088-2.8005,3.1336-5.9341.5497-4.549.5497-13.0868.5497-23.0514v-19.0474h-.0039ZM241.2495,497.3758c0,1.2149.2166,1.616.9708,1.9528,2.2593.7342,5.5159,1.0804,8.2407,1.0804,4.3154,0,5.7099-.4257,7.6656-1.8183,3.2376-2.4033,6.3956-7.4063,6.3956-16.2696,0-15.3499-10.1613-19.8042-16.5788-19.8042-2.6928,0-4.6482.1287-5.7231.4238-.7541.212-.9708.6567-.9708,1.5251v32.91Z" style="fill: #f89728;"/>
      <path d="M298.4057,498.3485c0-18.5043,12.2427-42.4223,44.7004-42.4223,26.9569,0,43.7401,15.7037,43.7401,40.4808s-17.3103,44.3732-44.8159,44.3732c-31.0744,0-43.6246-23.2821-43.6246-42.4316M371.6903,500.409c0-24.2529-13.9703-39.3095-31.696-39.3095-12.4907,0-26.657,6.9521-26.657,33.9034,0,22.4951,12.45,40.3502,33.2155,40.3502,7.6096,0,25.1375-3.6879,25.1375-34.9441" style="fill: #f89728;"/>
      <path d="M403.7431,458.7135c.3141-1.8392.9651-2.8005,1.8336-2.8005.8704,0,1.51.5563,2.9274,3.3568l29.5474,60.1771,29.4472-60.9245c.8665-1.739,1.3831-2.6094,2.3841-2.6094.95,0,1.6274,1.0824,1.9301,3.3568l9.8737,66.2398c.9688,6.8103,2.04,9.9646,5.2852,10.9639,3.1429.9498,5.304,1.0595,6.7192,1.0595.9708,0,1.7371.1023,1.7371.7381,0,.8911-1.3132,1.2147-2.8195,1.2147-2.7172,0-17.6526-.2137-21.9765-.5354-2.4864-.2327-3.1334-.547-3.1334-1.1827,0-.5563.4143-.8894,1.1713-1.211.6679-.212.982-1.6273.5468-4.6587l-6.4867-47.1018h-.4371l-23.5943,48.3053c-2.4864,5.092-3.0315,6.0627-4.0003,6.0627-.9915,0-2.0624-2.1628-3.792-5.427-2.6075-4.9614-11.134-21.5243-12.4586-24.5536-.9708-2.2859-7.4668-15.0585-11.2475-23.1537h-.4352l-5.6275,42.1896c-.2081,1.9603-.3246,3.3758-.3246,5.0939,0,2.0398,1.4184,3.0295,3.2442,3.4742,1.9661.4238,3.4667.5354,4.5529.5354.8685,0,1.6329.21,1.6329.7588,0,.9803-.9915,1.1903-2.6093,1.1903-4.5415,0-9.4283-.3236-11.362-.3236-2.0673,0-7.2511.3236-10.7273.3236-1.0775,0-1.9452-.21-1.9452-1.1903,0-.5487.6415-.7588,1.7381-.7588.8704,0,1.6216,0,3.2491-.3236,3.021-.6565,3.8914-4.8819,4.4372-8.5586l10.7195-69.7273Z" style="fill: #f89728;"/>
      <path d="M522.4001,511.6548c-.5751,0-.7681.2327-1.0027.8477l-5.8395,14.8653c-1.0709,2.7098-1.616,5.2947-1.616,6.5888,0,1.9415.9688,3.3551,4.3144,3.3551h1.6272c1.2944,0,1.616.2137,1.616.8685,0,.8704-.6245,1.0824-1.8185,1.0824-3.4553,0-8.1045-.3141-11.4783-.3141-1.192,0-7.1356.3141-12.7746.3141-1.4135,0-2.0607-.212-2.0607-1.0824,0-.6547.4447-.8685,1.3153-.8685.9688,0,2.4845-.1004,3.3529-.2327,4.9616-.617,7.0145-4.3068,9.1963-9.7112l27.1424-67.1102c1.3133-3.1411,1.9605-4.3334,3.0522-4.3334.9688,0,1.637.9576,2.7079,3.4364,2.5961,5.9794,19.9159,49.2627,26.8397,65.7138,4.1136,9.7526,7.2662,11.2685,9.5387,11.7926,1.6272.3443,3.2338.4447,4.5471.4447.8497,0,1.3965.1306,1.3965.8685,0,.8704-.9688,1.0824-4.9728,1.0824-3.9019,0-11.8019,0-20.4553-.212-1.9603-.1002-3.2508-.1002-3.2508-.8704,0-.6547.424-.8685,1.5139-.9688.7493-.1891,1.5176-1.192.9915-2.5054l-8.6722-22.2906c-.2422-.5259-.5563-.7588-1.0919-.7588h-24.1186v-.0017ZM544.4694,506.2485c.5241,0,.6377-.3236.5241-.6377l-9.7526-26.6579c-.0794-.4238-.2005-.9498-.5241-.9498-.3426,0-.5356.5261-.6377.9498l-9.9532,26.5463c-.1211.4238,0,.7474.403.7474h19.9404v.0019Z" style="fill: #f89728;"/>
    </g>
    <g>
      <path d="M600.0787,358.0044c-1.3341-1.6974-2.8517-3.5169-4.4051-5.4024-6.9521-8.4422-22.4534-29.2447-22.4534-29.2447,0-67.5588-12.0858-80.1497-24.5368-90.7605-10.9751-9.343-28.4745-14.1238-47.2626-17.0218-5.1034-.8041-10.712-1.1477-17.1684-1.1477-6.2443,0-12.5795.3236-18.6746.6613-5.0428.2887-93.1514,3.9871-121.4158-.7834-12.3231-2.0824-29.4055.318-39.5668,1.5404-4.6587.5354-30.0944,4.6019-33.0859-.2073-.5753-.9101-.5346-2.9102-.2868-5.1734.3435-3.5422,1.7883-7.8471-.9706-11.7073-3.8091-5.3049-7.9673-11.01-10.256-11.01-.7227,0-7.0126,5.1546-8.5492,6.7109-2.5612,2.5866-3.3692,6.8242-3.2584,11.7612.0651,3.0305-.1325,2.4391-.3587,2.6682-.384.3831-16.579.3831-20.687.6859-.0095-.8289-.1467-5.0325-2.9007-9.0355-1.7788-2.5651-3.2586-11.1359-3.2586-11.1359,0,0-5.8659,10.1613-7.8423,12.8957-2.2083,2.9896-4.4818,6.1034-5.8149,9.6864-.509,1.3643-.6104,3.0105-.7266,4.6039-.0502,1.1504-.2261,3.5612-.6917,3.9406-3.1117,2.2698-4.8403,5.391-5.1544,9.3182-.0597,1.1355.2583,2.6662.5914,4.445.2269,1.1316.6026,2.9102.6026,3.7589-.3141.229-.6121.4249-.9338.6321-2.7693,1.7578-6.5596,4.2396-6.321,8.6049.3641,6.6039,1.8855,9.169,3.9765,12.7539.5848,1.0093,1.1874,2.0171,1.8487,3.2593.9301,1.7693,1.3226,4.3059,1.7276,6.7448.5507,3.4355-2.6577,7.1943-.4645,9.3571,2.8751,2.809,10.308,2.9662,13.5266,2.9662.8686,0,4.2491-.0909,5.0571-.0909,1.2537,0,2.2281.0719,3.0522.2385,6.1999,1.213,12.4301,1.6974,18.4209,2.2035,8.2663.6404,16.0671,1.2725,23.9247,3.582,14.4861,4.2596,28.7744,10.2219,43.6531,18.1599.808.4342,1.5773.8175,2.2905,1.2035,5.5169,2.8441,6.6948,2.4608,9.2816,10.0346,2.5866,7.604-2.1818,66.9021-3.2301,73.0275-1.6662,9.903-4.8188,15.8863-9.9636,17.7652-6.8803,2.4845-9.7054,7.8642-12.4303,13.0868-.8694,1.6955-.7417,3.7279-1.7976,5.4233,0,0-2.2498,2.4655-1.492,3.0937.7417.6452,7.7307-1.0312,7.7307-1.0312,2.3797.142-.1874,1.3965,2.1942,1.3965,5.8856,0,12.9949-.0417,20.2309-4.1931,3.0303,0,.9991,3.86,3.8034,3.3434,8.6398-1.5685,9.4478-8.2256,10.4944-14.5873,1.7693-10.6912,1.511-12.557,2.703-13.5446,1.1874-.9973,5.0276.6321,6.0532-.5317.7824-.8706-.0756-8.6712.3682-15.7189.6319-10.045,3.3851-21.8337,6.3863-31.5276l.157-.5053c.6508-2.1411,1.6311-4.7494,2.6774-7.4838,2.8253-7.4071,6.2606-16.4,5.8556-23.6199,3.0873.5251,3.5924.7133,5.3522,3.1533.2573.3833.738,1.1523,1.2517,1.9547,3.406,5.5783,5.1545,7.1405,7.3883,7.1405.2271,0,.4749-.0219.6727-.0814,3.6738-.95,5.6539-4.0673,7.7307-8.1661,2.0721-4.0011,4.1933-8.1649,7.6505-8.9266.1314-.0246.279-.0653.474-.0653,2.8044,0,7.7317,2.5054,10.536,6.8508,6.199,9.6052,11.4841,2.8914,11.9798,2.1014.7171-1.107,5.6863-9.3126,6.9048-11.2171,1.4968-2.2888,2.4258-2.5054,2.7703-2.5054h.0814c3.0293.4645,16.1882,16.2676,20.8771,15.2023,4.5488-.509,9.6013-17.8307,12.3904-17.8307.1325,0,.2724.02.4239.0606.6584.5507,2.2233,2.9102,3.2849,4.4818,3.4969,5.321,4.2652,8.8567,7.024,8.8567.8894,0,2.4258-.7627,3.3454-3.0712.2536-.6311,1.3133-3.2301,1.4647-3.5167.174.2071,2.5054,8.0779,8.2068,1.0965-.0587-.0853-.1004-.2071-.142-.3141-.0207.0663-.0397.107-.0605.1457.0207-.0407.0415-.0814.0605-.1457-.0207-.0397-.0397-.0597-.0605-.1116.0207.05.0415.0719.0605.1116.7683-1.7788,11.3194,8.6096,16.3509,12.6979,4.5659,4.2026,8.43,7.9078,8.7516,8.1849,10.854,9.6666,24.3438,21.7117,26.972,34.7577,1.5044,7.5435,1.1391,16.2393-.9801,24.5056-.4656,1.7286-.9122,2.7428-1.3341,3.0115-.4259.3178-1.6085.3633-3.0939.3823-.6755.0227-1.4135.051-2.2632.1323-3.7162.2081-6.2443,4.1743-8.5075,7.6693-1.0105,1.6121-2.3351,2.9501-3.0315,4.1384-.6867,1.1921.424,3.1789,1.09,3.5839.6851.4238,7.3761,1.9944,9.3781,1.9944.5865,0,1.1504-.0397,1.597-.1874,1.4343.5317,3.1526.8307,5.1317.8307,5.8622,0,13.1267-2.4428,15.2005-6.4791,3.5176-6.88,5.9019-14.3536,8.2256-21.6047.2422-.8078.5147-1.6472.7871-2.455.4844-1.5924,1.2149-3.3692,1.9208-5.235,2.5374-6.6446,6.8518-13.7444,4.9311-20.2821-1.001-3.4467-4.4866-6.795-6.7099-9.746-1.9603-2.6273-9.3591-12.2824-11.6013-15.6487,6.9124,6.6946,26.0941,16.5978,30.9628,28.1991,1.7181,4.0664-.0606,21.0984-.3538,25.6616-.1515,2.1535-.2536,4.3655-.3255,6.5747-.21,6.9748-2.2423,8.2256-9.2455,8.939-6.0628.6206-8.8596,9.5935-10.3467,14.4265-.0814.2724-.161.5241-.2422.7663l-.7078,2.2442,2.3541.403c.9006.1401,1.9111.3331,2.9935.5451,4.3748.8097,11.7507,3.5498,16.8939,3.5498,6.1348,0,10.4395-1.4647,13.1664-4.4582,3.5271-3.8205,4.8725-10.71,6.0854-16.7727.4427-2.2632,2.9708-10.3886,3.879-13.3206,5.7676-18.5572,11.4746-25.6501,1.7542-36.3017M209.0861,268.7349c-2.1221,1.3132-2.9199-2.3794-2.9199-2.3794-.5761-1.4808-.6414-3.0115.2073-3.6238,1.6055.9963,3.5205.9746,4.0863,1.9045.6007,1.0248-.2697,3.4165-1.3738,4.0987"/>
      <path d="M571.572,411.7252c-.6774,1.2715-3.0427,1.529-3.8714,1.8166-1.7183.7286-3.3153,1.7635-3.232,2.9518,0,.4637-.2839,6.1346,0,6.619.3424.6359,2.6453,1.4457,3.1524.6547.3633-.5032-.0188-4.4996.424-7.2341.0814-.3765.3443-2.0057,1.1316-2.3709.2838-.0682,3.0125-1.3095,2.3955-2.4372" style="fill: #c9cacc;"/>
      <path d="M374.5486,313.0153c2.0826-.2071,5.0069-.7227,6.0023-.0188,1.0161.7417,2.4401,3.3283,2.37,4.916-.0946,1.5714-5.2584,9.8774-5.5981,10.2616-.3331.384-.8487,1.5771-1.7788.3443-.9338-1.2725-2.5554-14.0205-2.5554-14.0205,0,0-.2697-1.2746,1.56-1.4827" style="fill: #c9cacc;"/>
      <path d="M597.8667,362.2477c-2.8195-4.0863-9.8832-11.3175-12.7027-14.7993-3.7598-4.6019-20.9792-24.8139-20.9792-24.8139,0,0-4.9501-30.5588-7.0732-37.4902-1.3321-4.4467-5.0712-36.6433-29.9921-54.1304,1.3453-2.2537,17.4806,10.4149,23.3238,20.2716,10.5889,17.8902,15.1058,64.6041,15.1058,64.6041,0,0,6.7194-71.3489-31.0347-86.4471-27.0819-11.3214-40.6019-9.4982-40.6019-9.4982,0,0-18.754,11.258-7.4385,32.6554,2.1648,4.1733,26.8416,42.0022,28.4177,44.9731,14.0368,26.3153,58.6522,56.9538,66.7773,65.2853.424.4654,8.1139,5.4723,8.6288,11.0507.1021,1.0341-10.4263-6.0439-10.2882-4.7296,1.4362,13.1937-.123,38.5271-.3236,41.4109-.2422,3.3549-.4239,3.8393-2.4637,4.5886-2.021.7134-4.1441-1.213-5.3778,2.2442-1.3738,3.8395-.8665,6.6778,2.6682,6.6778,3.5366,0,8.9125,1.8714,12.3299-11.1301,3.4155-13.1323,10.8538-36.4749,13.0961-45.0649.5356-2.0342-1.0917-4.2623-2.0719-5.6578" style="fill: #c9cacc;"/>
      <path d="M220.5644,200.9471s2.9708,8.7319,2.9065,11.1766c-.0407,2.4806-.8041,2.666-.8041,2.666l-8.7972,3.8404s1.915-2.2225,2.915-5.0069c1.0266-2.8129,3.8404-10.027,3.7798-12.6762" style="fill: #c9cacc;"/>
      <path d="M325.6085,420.7172c-.1854.1286-.4238.1513-.4939.0417l-.5619-.7627c-.0597-.1077.0217-.3141.2176-.4691l.4437-.2897c.1854-.1362.4333-.155.4995-.049l.5563.7644c.0948.106-.0198.3027-.2071.4693l-.4542.2951Z" style="fill: #c9cacc;"/>
      <path d="M528.8773,406.673s-1.0919-.3445-1.6974.4428c-.8287,1.1277-1.2128,5.391-1.2128,5.391,0,0,1.0312,1.2924,2.9102.528,1.8789-.7059,5.6975-3.5688,4.4865-4.4998-1.2337-.9347-4.4865-1.8619-4.4865-1.8619" style="fill: #c9cacc;"/>
      <path d="M525.5015,404.6294s-1.6972-.019-2.4655.8287c-.8251.931-2.3124,3.4364-2.2215,4.4677.1211,1.0047,1.597,2.685,2.3444,1.6557.7475-1.0332,4.2218-7.0506,2.3426-6.9521" style="fill: #c9cacc;"/>
      <path d="M202.5653,245.8349c-1.984,3.1119,3.725,5.8366,5.1641,4.1582,1.087-4.2396-3.2281-5.7742-5.1641-4.1582" style="fill: #c9cacc;"/>
      <path d="M210.0956,247.4319c-.0312-.0198-.0407-.0407-.0407-.0407,0,0,.0095.0209.0407.0407" style="fill: #c9cacc;"/>
      <path d="M248.5271,251.3319c-2.8858-3.4155-5.0069-9.114-3.1119-10.1803,1.8894-1.0368,3.7145.403,4.8707,1.0663,1.7191.9491,2.5875.317,2.4655-1.9764-.086-1.7825-.2829-3.4572-.4805-5.0732-.5763-4.8753-3.1431-10.2303-5.1487-12.3733-3.3134-3.5622-12.8353-7.7204-18.7854-3.6994-1.7172,1.1723-3.0115,3.0768-4.1175,5.3305-.403.8192.7673,1.9452.3955,2.879-2.1845,5.3059-5.5035,11.4556-9.3845,15.4162-.1666.2071,13.1937,1.3141,32.0744,15.1777,1.6774,1.194-1.512,7.939-2.6065,7.621-.5753-.0814,1.914-5.6797.0407-6.726-8.6495-4.8554-13.7785-5.5064-20.2916-7.8281-1.5612-.5441-6.1034,2.3198-7.2596,1.2347-1.6263-2.1221-6.583-4.532-7.0883-4.7703.1864.1002.808.5714,1.0246,2.6482.617,5.3503-9.3467,0-.895,8.5689,2.3814,2.3692,4.6587,4.2028,6.4175,3.4355,2.7125-.0407,1.4808.3424,1.758.9708l1.4389,3.4153c.2583.6416.5819.6009.704-.0812l.6604-3.6019c.1165-.6822.7985-1.2281,1.4997-1.2093,0,0,12.7829.2887,15.3717.547,2.5961.279,2.7474,1.2128,2.7474,1.2128.1259.6917,1.1316,2.162-1.0303,3.8999-1.5753,1.2546-5.3503-1.3736-8.3732,1.0777-3.0305,2.4401-9.0932,3.548-9.0932,3.548-.7191.1258-1.4806-.2575-1.7635-.9206l-1.5402-3.4562c-.2678-.652-.5346-.6321-.6009.0907l-.3794,4.513c-.0663.6879-.2734,1.2537-.4437,1.2924-.1978,0-.5819-.5061-.8799-1.1362l-.1165-.2166c-.298-.6509-.9299-.701-1.3736-.2071l-.7768.9082c-.4552.5526-1.1279.4712-1.4808-.1296l-.3075-.4703c-.3548-.6263-.9347-.6263-1.3046,0l-.4807.7475c-.3585.6121-.858.5468-1.0653-.1004l-.1721-.49c-.2073-.6633-.6321-.6822-.8998-.0719-.2071.4645-.509.5619-.7266.2771-.4333.4439-.7417.7475-.8894.8894-.3831.3643-1.2517,1.1525-1.2924,1.8848-.0302.7227.8799,1.1277,5.2898,2.0371,4.4165.8931,24.9152-7.4782,31.3829-6.1034,7.4829,1.5515,10.3686-4.5831,10.8776-12.5504,0-.2081-.0653-.6416-.1571-1.2734-1.317-2.1212-3.2121-4.2842-4.7021-6.0439" style="fill: #c9cacc;"/>
      <path d="M228.3869,227.3014s2.5678-4.4723,5.724-5.3617c2.3351-.6623,4.7608.6728,8.3666,3.0985,3.6331,2.4108,5.5281,6.1829,9.0799,5.1953,1.2281-.3455-2.7342,4.108-6.2104,2.8346-.8392-.3143-6.0532-8.9855-11.1262-8.8567,0,0-3.2681.6292-5.8339,3.09"/>
      <path d="M237.6816,223.1337c-4.2547-1.2072-6.725,1.6974-6.725,1.6974,1.106-2.8441,6.1753-1.0465,8.3759-.1382,1.2225.5317,2.9199,3.3161,4.1336,5.6237-1.3699-1.3585-3.2384-2.8137-4.8564-2.9708-3.2186-.2866-3.5166,3.9728-3.5166,3.9728l-1.6275,2.0305s.2071.5156,2.6833.5156c2.4703,0,11.1103-.0909,12.2636-1.1477,1.1391-1.0227-6.0761-8.2226-10.731-9.5833M238.5927,232.3546c-.7673,0-1.3955-.788-1.3955-1.7569,0-.9301.6282-1.7381,1.3955-1.7381.7788,0,1.7788.808,1.7788,1.7976,0,.9301-1.002,1.6974-1.7788,1.6974"/>
      <path d="M303.9537,416.6961s-3.2783,6.5869-3.3539,7.2757c-.0719.6774.0756,1.1221.4588,1.1221.3784,0,1.5507.3331,2.3889-.2517.8241-.598,3.9416-7.111,4.3446-8.0231.1031-.2498-2.4552-1.6955-3.8385-.123" style="fill: #c9cacc;"/>
      <path d="M558.6159,368.3105c1.6575-5.8356-3.7903-6.4658-5.6882,1.0872-.6262,2.6065-8.1763,30.0186-8.9748,37.192-.0719.3577.2025.7115.5449.2875.1023,2.4827,13.401-35.9583,14.1182-38.5668" style="fill: #c9cacc;"/>
      <path d="M515.8208,276.4751c-.0302.1664-.3538.2385-.7266.1864l-2.7077-.4654c-.3935-.0853-.6662-.2668-.6472-.424l.0833-.3738c.0188-.157.3633-.2176.7474-.1769l2.687.4844c.3426.0663.6567.2641.6377.403l-.0738.3662Z" style="fill: #c9cacc;"/>
      <path d="M514.801,277.6067c-.0227.1674-.2347.2583-.4844.2176l-1.8109-.3197c-.2744-.0446-.4637-.2015-.403-.3643l.0492-.3643c.0417-.1864.2744-.2583.5373-.2071l1.7673.3131c.2651.0407.4447.1976.405.3585l-.0605.3662Z" style="fill: #c9cacc;"/>
      <path d="M314.4926,219.3181c-13.2439,2.5271-31.7974,3.6434-41.8868,2.264-7.9787-1.0975-8.3315-5.9974-6.8915-10.3477-7.3883,7.2955-11.3336,4.4411-11.5002,3.5422-.279-1.1572,2.7335,0,4.689-1.9452,1.9766-1.915,3.1374-8.8169,1.5867-12.1472-1.5678-3.3134.1296-2.7125.1296-2.7125,0,0,4.1175.4143,5.9217,5.3398,1.1572-4.9255-5.6634-11.0563-7.8764-9.6457-2.2035,1.3994-6.6636,5.0571-6.0438,10.4093.7985,6.6152.3141,9.884-1.8289,9.8121-14.4701-.6509-30.6753-2.5866-39.6738,6.7857,0,0,10.9135-7.1907,19.2952-6.408,8.361.7671,25.5246,2.4645,26.5614,22.5914,0,0-.1874,4.532.1978,9.7906.1881,2.7844-2.4608,1.002-2.4296,2.2347.1002,5.5783,4.0673,4.7277,3.7438,9.5387-1.3738,19.7854-10.5009,19.3805-10.5009,19.3805,0,0,11.0222,1.5402,16.4823-16.947-.0217,10.605-1.1372,13.2732-5.4222,17.4124,8.4232.529,15.0366-7.427,15.2345-8.6305,1.2479,2.0115,3.6368,8.5179,9.9324,11.1766-3.1082-5.1327-2.3484-11.3469-1.7069-16.8561,1.8884,12.3526,5.0371,16.9601,11.4027,19.65-2.5668-2.5868-7.7696-8.1849-6.2104-18.2082,1.2072,8.5681,11.2266,16.1928,11.2266,16.1928,0,0-3.1894-5.1544-4.0361-14.2276,4.2964,9.2302,8.9078,9.9939,8.9078,9.9939,0,0-7.1186-7.4923-8.3354-17.2204-.1475-.1759,4.9964,6.6152,9.1841,6.6152-3.2189-3.8592-8.3164-9.3523-8.8786-16.2893,3.2093,4.145,5.5283,6.8518,9.2314,7.2757-3.1221-3.598-5.689-9.3316-6.6636-16.2649,3.5727,4.4818,2.9606,5.9569,9.6761,7.8018-2.5963-2.5366-4.3843-9.5199-3.0919-12.8843,1.1562,2.3502,5.6171,4.7496,10.9344,5.4431-1.7173-1.0965-4.4762-7.7158-4.077-10.3469,2.4145,1.1913,7.6183,2.9511,11.7358,2.3853-1.9547-1.1533-3.3341-6.9777-2.7335-8.342,1.0967.702,8.9533.5819,10.6164,0-2.5498-1.5866-4.7589-3.9662-4.1685-3.7494,1.895.6726,4.9974-.9491,9.0336-1.5904,4.2964-.6822,5.0476-.7229,7.7412-.6822-2.6141-1.2649-19.14-2.7552-29.5086-.1901" style="fill: #c9cacc;"/>
      <path d="M447.9327,301.921s-8.4887-.5714-9.1339,2.0361c-.6263,2.6124,3.8697,16.4162,4.5471,18.0691,1.0597,2.6075,3.9209-3.4362,3.9209-3.4362.9082-1.652,4.3861-9.7575,4.3861-10.8615.019-1.3823.1116-5.8291-3.7201-5.8074" style="fill: #c9cacc;"/>
      <path d="M488.7181,318.4915c-.5449.2383-1.0709.3434-1.4759.4844.403.1476.808.2639,1.1733.2829.0207-.2403.1438-.5081.3027-.7673" style="fill: #c9cacc;"/>
      <path d="M414.7579,303.2324s-8.4621-.5251-9.1244,2.0617c-.6604,2.6083,2.9671,14.6933,3.5386,16.3717.8477,2.5205,2.6587-1.2924,2.6587-1.2924.9138-1.6377,7.6693-10.2275,7.6919-11.3243-.0039-1.3424-.9045-5.8356-4.7647-5.8167" style="fill: #c9cacc;"/>
      <path d="M474.1574,219.601c-2.6284.1475-24.7487,2.6282-39.5025,2.668-11.7622.0455-24.1849-.5241-30.821-.2866-.5203-.0711-1.3529,0-2.1212.1068-9.8727-.4238-41.4818-.9338-41.4818-.9338-2.3597-.4749-34.419,7.8264-39.0673,43.4828-2.8658,21.969-1.4647,28.9969,3.5016,39.4259,2.9547,6.2094,8.8973,17.6631,8.6902,26.6116-.0814,3.7494-6.7355-15.6735-6.6343-13.471.9651,22.5699-2.9604,73.3946-5.2046,84.1889-2.6775,12.8634-5.2642,6.3542-8.2757,11.7242-.4713.8497-7.0496,12.8031-6.9019,12.9563.141.1002,3.3-.3843,6.6502-.6983,3.8962-.1306,7.0893-10.7176,9.7517-10.7176.4344,0-2.9292,8.5265-2.4097,8.3825,2.7589-.6755,7.2596-1.8468,6.9616.3652,1,.3141,1.7881-.2025,2.3984-.9404.8088-.9688,4.4628-17.4126,6.7051-25.9559.5051-1.3994,4.1677-.5914,5.1631-.2073,1.9962-4.0266-1.1874-17.457,4.5612-36.1162,5.705-18.3359,11.7035-34.2421,9.0146-38.9661-.2885-.5412-10.0043,12.3733-10.2485,11.8643-.6063-1.4749,31.6867-55.7199,25.4261-83.814-.1221-1.0058-.5658-2.1411-.5658-2.9511-.0198-.2166,3.7335,1.3548,8.4017,2.5868,6.0532,1.8638,11.3743,2.8449,13.1935,9.8435,2.1818,13.5001,8.4424,32.6344,21.1714,33.7906-5.7864-5.2954-13.1823-32.2116-12.2646-43.2718,3.5717,18.0435,14.5619,44.1868,23.6332,43.0032-1.8582-2.9065-9.4234-19.3615-9.4234-29.7103,3.2679,8.5891,11.0791,27.4101,16.9716,27.5456,15.4104.3141,19.333-6.7043,30.7206-9.2721,25.5151-5.7667,32.206,4.0266,36.104,6.0439-3.1109-3.0115-13.7622-21.6049-20.8374-36.1127-5.639-11.4895,3.8829-22.9642,20.0313-30.0932,3.194-1.4145-18.2489-1.2167-23.2916-1.0719" style="fill: #c9cacc;"/>
      <path d="M485.1532,318.7744s-.8497-.7475-1.5668-.8677c-.2327-.0407-.384-.0605-.5261-.0605-.3217,0-.4844.0605-.4844.0605l-.3424.1666.1002-.3548c.0417-.2385.3652-.6822,1.0105-.6822.2422,0,.4959.0606.7683.1666,1.001.3585,1.3132,1.3643,1.3132,1.3831l.1911.5914-.4635-.403Z"/>
      <path d="M477.8264,317.3816c.0606-.2176.3633-.6821,1.0295-.6821.2327,0,.4844.0502.7683.1372.1608.0814.4428.2459.4428.2459l.2025.1126-.6869.5309-.0794-.0407s-.2744-.0965-.4164-.1165c-.2118-.0407-.3935-.0595-.5336-.0595-.3329,0-.4844.0595-.4844.0595l-.3443.1571.1021-.3445Z"/>
      <path d="M479.5635,316.9976c.142.0605.403.2071.403.2071l-.403.318s-.3027-.1221-.4428-.1411c-.789-.1457-1.1316.0407-1.1316.0407,0,0,.2498-.8892,1.5743-.4247"/>
      <path d="M493.5377,415.1995c-9.0431,0-10.2161-14.6915-10.4186-17.3197-2.1818-.1571-4.5471-1.6567-6.1631-2.9301-.0814-.0597-.2422-.1666-.4238-.2573.0397,1.087.0907,2.213.1097,3.2688.0909,1.6974.424,6.0854.5563,7.2548l.0302.125c.1932,1.6557.6586,5.5367-3.1524,7.6578-1.1316.5848-2.3767.9291-3.7277.9291-1.1543,0-2.1818-.2383-2.8687-.384-.1628-.0209-.3065-.0606-.4257-.0814l-.6662-.0606c-.9688-.1362-2.3029-.3027-3.3132-.3633h-.2839c-1.8979,0-7.2662.3445-8.1234.424-.2025.0188-.3842.0416-.5848.0416-3.0313,0-5.4989-2.4221-5.5386-2.4618-1.5271-1.5007-1.6557-3.8792-.3046-5.7847l.3443-.5071.5073-.3842c.3027-.1986,1.2508-.8495,2.6056-1.0463,1.1107-.7115,2.8704-1.7371,5.5272-3.2169-2.3351-4.5432-12.6211-20.2923-3.6482-25.2585,3.3039-1.8043,8.4168-3.6236,13.2174-4.7496.0397-.3131.123-.6121.2025-.8894.0984-.3641.2005-1.5866.0587-2.5668-1.3947.7636-2.81,1.1667-3.9813,1.1667-.403,0-.7663-.0407-1.1316-.1221-3.0522-.6416-6.9938-5.1546-7.4573-5.7552-.6869-.9301-3.2737-5.6597-5.6806-10.151-6.5282-.3046-7.1337-.4844-7.5803-.6226-.666-.2261-1.4155-.4645-5.6578-4.0067-1.3945-1.2074-2.1024-2.8158-1.8789-4.4062.1816-1.3141,1.0086-2.4645,2.2025-3.071.1002-.0407.1608-.0853.2819-.1362.5449-.7324,1.4569-1.4798,2.9898-1.7978l.4257-.107h.5166c1.0407,0,1.9282.3643,2.6755.828.0606-.5061.1837-1.0151.4447-1.4808.7892-1.5308,2.3938-2.4608,4.3049-2.4608,1.0521,0,2.1837.2792,3.4779.8487l.1818.1011.2005.1259c.424.2573.4844.2573.4844.2573.7985.1664,2.6908.7417,3.3151.9905,1.0899.4683,1.8809,1.0711,3.9321,4.6078l3.2435,3.2688c1.4871-3.4572,3.2735-5.0069,3.9321-5.5783.9309-.8043,2.07-1.1477,3.264-1.51.2329-.0814.5658-.1874.8307-.2573.4656-.4249,1.0295-.8175,1.6369-1.1572.0302-.1759.1002-.3643.1608-.51-.4844-.6813-1.0711-1.5705-1.5478-2.319-1.3321-2.2223-1.162-4.2187-1.0597-5.4619l.0188-.403c.1932-3.4355,4.5188-6.3617,4.5585-6.3807.4844-.3236,1.02-.5819,1.4854-.7673.8704-1.0151,2.3843-2.7087,3.4552-3.6643.8704-.8297,2.0436-1.3833,3.1524-1.7883.9291-1.9262,2.8914-2.8563,5.9002-2.8563.9498,0,4.0834.2281,5.1146.3794,2.2235.3643,3.7277,1.7637,4.4979,3.4572,1.9301.6509,3.1526,2.3889,3.3833,4.7277l.6774.7381c.4958.4844,1.5554,1.7578,1.9111,3.6738,1.1922,2.2632.9898,4.9784.8477,6.1858-.0605,3.6775-1.0105,5.8413-2.0303,7.0684-.1306.4437-.2327.7977-.3842,1.0965,3.5273,2.1818,4.6172,7.0686,4.9426,8.994.3009,1.1277,1.6767,5.9217,2.3824,9.0353.9898,4.4516-.5468,8.6505-.7076,9.1149l-.2025.4844-.3029.4249c-.2837.3831-1.7976,2.3595-2.4238,3.1363-1.1922,1.4108-2.4771,2.0371-3.5783,2.2793.3745,1.4959.7588,3.1119,1.0105,4.6134,2.8288,3.5262,4.3654,8.4015,4.3654,10.1396,0,1.1277-.3538,2.3482-.7059,3.2281h.019c.3029.8704.3426,1.9669.3029,4.3247,1.211,1.3331,2.2423,3.2186,3.3341,5.34.1211.2573.2006.4447.2629.5261,5.3551,11.7073-8.1045,12.6155-8.9334,12.326-1.7369,1.6367-7.4534,1.8431-8.3959,1.8431"/>
      <path d="M492.6617,316.2283c-.7985-.1475-3.7013-.3643-4.5281-.3643-3.9908,0-1.9094,2.021-1.9094,2.021,0,0-3.1845.4247-4.4979,1.6321-1.3339,1.2223-3.7598,4.0476-3.7598,4.0476,0,0-1.0709.3831-1.7181.8078-.6452.4032-2.4959,1.8175-2.7703,3.3692-.2005,1.0351-.3406,2.3076.4844,3.6833.8099,1.3804,2.2045,3.2092,2.2045,3.2092,0,0,.3426.6511,0,1.4184-.3331.789-.8894,2.7532-.8894,2.7532,0,0-1.9301.9403-2.4959,1.5914-.5753.6623-3.2659,1.0558-3.9509,1.616-.6472.5656-2.3843,2.0965-3.5763,6.1846-1.3965,1.211-2.1231,2.7627-2.1231,2.7627l-7.1434-7.1885s-.9403-2.8904-2.2537-3.3748c-.4654-.1666-3.6178-1.211-4.3654-1.5309-2.6472-.9962-3.1127-.2271-2.5866.5156.5468.7361,2.1628,1.4997,2.5866,1.7183.3842.2269.5658,3.0559-6.1251,1.984-.3029-.0814-2.1212-1.1562-3.234-1.6311-2.8894-.9281-2.3824,1.8288-1.7976,2.3407.6263.4844,3.5252,3.476,4.2026,3.6928.6377.2081,8.7933.5505,8.7933.5505,0,0,5.6068,10.5701,6.3863,11.5948.808,1.0558,3.9208,4.0268,5.1735,4.2842,1.2734.2866,5.0332-1.0872,6.8707-4.5027l.7474,13.8041s-12.8143,2.8695-15.1682,4.8147c-4.8195,3.8158,3.7087,18.3671,6.5793,22.2263.9101,1.2734.2744,1.5517.2744,1.5517,0,0-8.9843,4.935-9.0847,5.34-.8497-.2385-1.5573.28-1.5573.28,0,0-.424.6092-.1401.9082.3029.2897,1.7978,1.4211,2.9708,1.3133,1.1126-.1306,7.4575-.4844,8.9541-.424,1.4949.0663,3.3531.3141,4.3239.424.9498.1077,2.9708.8894,4.6265,0,1.6158-.9084,1.3548-2.4601,1.1826-3.9908-.1911-1.5402-.6075-7.5235-.6075-7.5235,0,0-.1494-6.9331-.3007-7.7818,1.7464.2271,4.5981.8894,5.1222.5658.9008-.5053,1.8204,1.0256,1.8204,1.0256,0,0,2.9197,2.3095,4.265,2.071,1.3039-.2478,1.5556-.3548,2.212-2.3095.4939-.702.9216-.5251.9216,1.2924,0,1.8638-.9216,18.7002,7.0922,18.3671,4.9311-.1986,8.4678-2.5678,8.4678-2.5678,0,0,1.3738,1.9036,3.2944,1.2337,5.0732-1.8317,2.3048-6.409,1.8582-7.111-.3823-.7039-2.706-5.7657-4.1631-5.8649.0721-2.1431-.2819-5.3514-.6545-6.2199.261-.4645,1.1107-2.3502,1.1107-3.2396s-1.4457-5.6293-4.1536-8.4829c-.6073-4.4506-2.8307-11.1567-2.8307-11.1567,0,0,2.9518,1.0558,3.8412,1.1674.9084.1269,1.6387-.298,2.2215-.9991.617-.7191,2.2954-2.9728,2.2954-2.9728,0,0,1.3226-3.4448.5356-6.9019-.7683-3.4165-2.4052-9.0648-2.4052-9.0648,0,0-.7588-5.4874-3.476-6.7345-2.7059-1.2327-3.2547-1.1316-3.2547-1.1316,0,0-.8685-1.157-.2215-1.4145.6567-.2176,1.6786-.9962,1.9605-1.3548.3141-.3434.7776-2.2688.7776-2.2688,0,0,1.6085-.7673,1.6085-5.3503,0,0,.5146-3.1772-.6981-4.6889,0-1.3548-.9613-2.2442-.9613-2.2442l-1.739-1.8638s.2347-2.3597-.8287-2.6275c-1.0899-.2573-1.8791-.5346-1.8791-.5346,0,0-.0397-2.4664-1.9167-2.7457" style="fill: #c9cacc;"/>
      <path d="M478.2201,324.6356c.8685-.0407,1.5042,1.3955,1.5439,1.7191.0417.279-.1589.279-.6055.1883-.4238-.0663-.808-.9963-1.7067-.915-.8894.0444-.9121.6859-1.2225.6216-.3443-.0426,1.1014-1.5734,1.9908-1.6141"/>
      <path d="M484.9905,322.2911c.9481.3236,1.23,1.2736,1.23,1.2736,0,0-.8894-.7485-1.6652-.8894-.789-.1666-1.1316.0188-1.1316.0188,0,0,.2631-.8874,1.5668-.403"/>
      <path d="M494.0543,329.6084c-.1228-.299-.2649-.4654-.4844-.4654l-.1626.0188-.0984.0814c-.3652.4844-.7683.6869-1.2754.6869-.5867,0-1.0711-.3652-1.0711-.3652,0,0-.1002,1.2944,1.3133,1.2944,1.0729,0,1.7201-.9547,1.7389-.9954l.1004-.1106-.0606-.1447Z"/>
      <path d="M498.2987,372.9616l-.8382-3.7808-.3937-1.3548-6.8707-12.854-.2517-.4844c-.2422-.2176-.4352-.4844-.9801-1.0151-.1628-.1323-.0606-.3397.1513-.3197,2.3938.298,6.5774-.8487,7.5671-1.2329.2819.3435,6.9332,8.1651,7.4365,7.8415.5166-.3387-6.7099-9.8774-6.7686-9.903,0-.0597.685-3.9406.5241-4.4043-.3236-.9299-2.2632-2.3595-3.0522-2.3595l-.1211.0302c-.1418-.2782-.2839-.4958-.3141-.5563l-.1097-.1854c-.5261-.9301-.931-1.5517-1.2149-2.002,1.3341.4503,2.6682.8741,2.7703.9148l.7266.0407.7873-1.0756-5.62-1.8848c-.492-.1571-1.0483-1.2291-1.0711-2.1221-.0397-.6216,3.8829-4.4781,3.1336-4.7041-1.5137-.5319-5.1034,3.3502-5.1941,4.4855-.0814.7474.3443,2.4041.9896,3.0512-.2232.3236-.3935.6669-.3935,1.0719-6.973.4647-9.4687,2.9662-9.7716,4.2586,0,0,5.5783-2.1932,7.5501-2.5205-1.2924,1.2281.7568,3.5763.7568,3.5763-.2517-.0814-.9082-.5241-1.6046-.019-1.3056,1.0351.0397,3.1781.2914,3.6626-.5261.0095-.9084.1163-1.0899.3197-.6869.788.6243,2.4447,1.5554,3.4798.4428.4844-1.5875.3587-7.4592-4.0266.1818,4.2652,7.2265,6.8111,9.4802,6.8301.0605.1031,9.094,16.6801,9.3988,17.2421M486.5855,350.2036c.4032-.4437,1.5044.6102,1.8394.3426.3122-.2829-2.3351-3.3153-1.4968-3.9472.9915-.6623,2.1345,1.6972,2.6587,1.2922.5563-.4428.3538-.6623.2025-1.0463-.0719-.1816-1.2149-2.2432-1.2339-2.2632-.0605-.1002-1.2942-1.9952-.4844-2.4002.8289-.2868,1.6993,1.106,1.8696,1.3443.0605.0606,1.6272,2.8346,2.2744,2.5366.6245-.3833-1.1731-4.532-1.1731-4.532-.1099-.384-.8667-1.4589-.4939-1.7578.384-.3019.7776-.2166,1.8487,1.2072.1021.1259,2.9708,5.341,3.3341,5.1546,0,0,.0605-1.0463-.3823-1.8507.5639.4437,1.6765.7824,1.616,1.5507-.019.2668-.1021,2.5054-.5261,3.0512-1.2527,1.5309-7.1641,3.5169-9.0033,3.2188-.1703-.1847-1.3341-1.3294-.8497-1.9008"/>
      <path d="M470.1856,372.3542l-.9688.5914-1.4759.9093c.2515.5997,6.0438,14.6516,11.9249,19.0737l.1589-.5402c-7.8605-10.6364-9.6391-20.0342-9.6391-20.0342"/>
      <path d="M491.8707,379.5685c-3.5254.5061-6.0118,12.1472-6.0118,12.1472.8497-1.0965.8894.808.8894.808,0,0,2.8385-9.903,5.2852-10.9181,2.4976-1.0219,6.1951-.5763,6.1951-.5763,0,0-2.8005-2.0105-6.3578-1.4608"/>
      <path d="M464.7284,361.1975c.405-.2573-.9688-11.2985-.9688-11.2985l-.5053.5468-.8685-.5468c-.4654.9518,1.9377,11.5558,2.3426,11.2985"/>
      <path d="M467.3169,352.3248l.8477,9.0148,1.5554-.8704-.4238-6.6344s.7871.3538,1.0614.1259c.2744-.2422-1.2432-1.5972-1.3263-3.2537-.0587-1.2093,1.3151-2.7883,1.0729-2.9255-.2422-.1457-.7076.3197-.7076.3197.0812-1.0975.1608-2.3047.2422-3.071.1002-1.0777,1.5364-3.2593,1.5364-3.2593-3.215,1.1372-3.7996,4.7891-3.7996,4.7891l-.2025,2.8546c0,.0444-.2819.9148-.2819,1.5176,0,.6253.403,1.3926.403,1.3926h.0227Z"/>
      <path d="M503.4418,395.9184s-.0814,10.9588-2.4145,13.7254h1.2924c.4654-.424,1.3945-3.9472,1.7181-5.2813.3519-1.4703.2932-7.4716.2932-7.4716l-.8892-.9725Z"/>
      <path d="M463.4757,380.8826c-.4164,2.3095,9.0828,11.1359,9.0828,11.1359l2.6075-1.211s-9.0033-6.5908-11.6903-9.9249"/>
      <path d="M489.4562,320.2296c.1306.1475.0794.9299-.0417,1.4996,0,.0312-.2724,1.1277,1.2016,1.8762.9708.4645,1.5366,1.2725,1.9094,1.8383.0926.1267.174.262.212.3434.2649.298.3443.5658.1419,1.2727-.0814.299-.2232.4844-.3538.6509-.1325.1306-.2933.3377-.193.6009l.0227.0822c.0794.3189.3406,1.0967,1.0483,1.3947.1418.1068.5071.6026.1021,1.8042l-.1228.3387c-.4447,1.2924-.0587,4.3909.6869,4.1838.7663-.1976.6282-2.8914.8288-3.2092.4427-.5904.7493-2.2281.5865-3.1175-.0397-.318-.1589-.5451-.3633-.6511-.6869-.4437-.9082-.8041-.9082-.9091,0-.0302.1002-.1759.1816-.279.1591-.1761.3236-.424.4656-.7266.2422-.5848.0794-1.4335-.1628-1.9842-.2215-.4844-1.5763-2.2025-2.3653-2.4798-.685-.1976-1.0899-.5912-1.0899-.9744-.0114-.1769.0188-.4437.0397-.702.1002-.6121.1419-1.1684-.1099-1.511-2.2952-3.178-5.6578-2.7939-5.6578-2.7939l-1.4664,1.5904c0-.0017,2.6094-1.3161,5.408,1.8621"/>
      <path d="M471.268,340.9875c.4238.2771,2.668.5912,6.6985,3.1572.6075-1.0163-3.6368-3.3758-5.6161-4.0268-1.1733,0-1.2546.2573-1.2944.3643-.0417.1221-.0417.298.212.5053"/>
      <path d="M459.1008,403.2348c-3.5366-4.85-11.2363-5.0476-13.8058-2.5868-.1496-.1477-.2498-.2385-.3823-.3426-1.0824-.8448-4.1933-2.7087-5.6994-3.5573-2.3539-2.4864-3.3456-3.0929-3.8488-3.3541-1.9415-1.1684-5.6502-2.4806-8.8142-3.2384-.6055-6.725-1.1202-8.2967-1.4854-8.9882.0322-.2176.7588-6.1697.6377-9.904,2.0022.3641,4.6475.7834,6.7913.7834,1.1922,0,2.1401-.1316,2.9311-.4193,2.0607-.5402,5.4648-1.7181,6.8613-3.9755l.3218-.4844.1418-.5697c.1306-.4844,1.0407-4.897-1.5875-9.0543-1.7978-2.8251-6.8293-8.1254-9.6486-10.8143.1306-1.5507.21-3.1127.21-3.1373.1135-1.2678-.231-2.5868-1.7181-4.1175-.4429-.4654-3.8187-4.3059-4.7893-4.8905-.9103-.5412-2.405-.9557-3.618-.9557-.4447,0-.8382.0663-1.2546.1864-3.2925.7227-2.9784,5.7855-2.8458,6.2104-.4259-.2488-.8704-.4656-1.3341-.6728-1.1411-1.2517-2.8005-1.9764-4.4487-2.32-.8477-.6102-2.0948-1.244-3.7013-1.244-.1135,0-.2383,0-.3633.0217-2.1287.1258-2.1835.3548-3.2206,1.1816-1.5895.3397-3.0293,1.2736-4.1261,2.6284-.9091.5146-2.0369,1.4503-2.914,2.9916-.9754.7824-2.0218,2.0768-2.8704,4.3456l-.317.828c-.7578,1.9764-1.6026,4.1987-.9962,6.5082.0349.0314.0444.1354.0651.1978-1.8439.5051-4.4409,1.5714-5.88,4.3863-.6321,1.2734-1.3141,2.9499-1.8582,4.4316-.7985.051-10.0601,1.1884-9.8633,5.5593.0605,1.3738.7227,2.7381,1.9764,3.6085-.8696,1.4798-.9301,3.0361-.1562,4.3493.6662,1.1572,1.5867,1.9842,2.6236,2.3891.3482,1.1068.8677,2.2535,1.652,3.2479.9148,1.1686,1.9055,2.0266,2.7437,2.6275-1.7276.5658-3.5726,1.3926-5.3305,2.6662-2.5668,1.7379-6.3807,5.5593-3.0712,11.4802.5251.9091,2.1535,2.7087,10.2777,10.6864-.2829.3331-6.6758,12.0801,3.7742,12.5646,2.3814,4.0115,10.5256-1.7522,10.8029-1.9094.6102.1345,11.5511.1759,8.641-8.2445.7568-.1211,4.5299-1.1694,4.7287-1.1882,1.2223.5354,3.9112,1.6311,5.5084,1.79.7152.0587,1.8884.106,2.7588.106,1.1107,0,3.8185-.0455,5.1222-.3029.3426-.0605.7266-.1664,1.1506-.2383,1.1411,1.8354,2.9197,4.1175,5.2245,5.4119,2.7494,1.5743,9.0448,4.3861,11.1452,5.3247.4144.4238,4.8404,4.091,7.7506,4.091,9.2777,0,6.4072-8.4412,6.5586-8.9125.7607-2.1855,2.1345-11.6827-.4503-15.1814"/>
      <path d="M426.6412,358.6297c-.3728-.4645-3.9699-1.3945-5.4458-1.5497-.5053-.5117-2.1611-1.0151-2.1611-1.0151,0,0,2.2632-1.6974,2.2027-2.8658-1.5668-8.0297-4.2842-8.6495-4.2842-8.6495,0,0-.8497-1.8241-3.1411-2.1022-.3916-1.7191-3.7484-2.0059-3.7484-2.0059,0,0-.8384-1.1126-2.1818-1.0463-.9708.0719-1.2829.4654-1.7788,1.0653,0,0-2.0095-.3236-3.3531,1.9869,0,0-1.5912.3387-2.5678,2.6577,0,0-1.176.2932-2.2442,3.0776-.7227,1.8989-1.5809,3.7742-1.2223,5.1943.3935,1.4145,1.5497,2.8858,1.5497,2.8858,0,0-1.087.8892-2.2839,1.263-1.211.3587-4.1394.5809-5.341,2.9708-1.211,2.3794-2.7067,6.9521-2.7067,6.9521,0,0-.7266-.4247-1.6065-.51-.7787-.0814-4.3144.0663-5.1034.6452-.4344.2887-1.9766.4844-1.9359,1.0721.0948,1.7162,2.8139,1.1097,2.8139,1.1097l-.616,3.6387s-1.1419,1.1109-.8392,1.6379c.3075.5307.8392.7266,1.1969.6102.4654-.0814,1.2035-.9557,1.2035-.9557,0,0,0,3.5517,1.5809,5.5576,1.5714,2.002,3.3948,2.7125,3.3948,2.7125,0,0,1.1882.4749,2.2233,0,1.0558-.403,3.0105-1.9669,3.1772-2.5668.1475-.5914.6633-2.6085.6633-2.6085,0,0,.8382-3.1969,1.2223-3.2783.3586-.0663.7417.4437.7417.4437v6.4877s-2.5668,4.8298-2.5668,6.0835c-1.3548.1664-7.2009-.4645-12.2522,3.178-4.1385,2.8251-2.687,5.4318-1.9452,6.7667.7361,1.354,13.3799,13.5258,13.7537,13.9705-.1664.4238.2166.965-.3738.965h-1.3643s-1.9262-.7474-2.2535,0c-.808,1.8375,1.2279,1.6708,1.3132,1.9849.0512.3406-1.6462-.2459-1.8941.7229-.3435,1.1921.0302,2.3085.8382,3.2888.5061.6735,1.8175.3558,2.1921.49.405.1608.5307.7834,1.53.9896,2.2147.8704,7.11-3.1107,7.7506-3.0105,2.3804,1.194,5.1544-.9896,5.321-2.3293.1891-1.3548-.019-2.0171-.509-3.0503-.4844-1.0029-2.0173-2.6379-2.0173-2.6379,0,0,1.8943-.5904,2.2992-.7776,0,0,.2686-.1988.9082.1077.6245.318,3.427.8289,4.2576.7873.8363-.0246,3.9586-1.5366,4.4431-1.2717.4957.2668,3.5895,1.5612,4.7399,1.652,1.1411.1267,5.5595.1077,6.7913-.1306,1.213-.2271,3.6994-.9764,3.6994-.9764,0,0,2.0531,4.7911,5.1733,6.5735,3.1336,1.76,11.5107,5.4328,11.5107,5.4328,0,0,3.3644,3.476,5.5876,3.476,2.2027,0,2.7685-1.8923,2.7685-2.3351-.019-.4654-.0814-2.861.3633-4.091.4447-1.2944.8495-5.0939.9498-6.8727.1326-1.7786.7493-6.7345-4.023-7.4573-.7454-.1267-2.3824-.403-2.6755-.403-.6983.0605-.3557,1.6974-.5753,1.0785-.2744-.7588-1.0729-.9347-1.3965-.8192-.8667.3935-1.2527,1.1372-1.232,1.5422.0587.7266.3842,2.6906.3842,2.6906,0,0-3.8792-3.0956-4.9426-3.966-1.0597-.8706-5.6692-3.5159-5.6692-3.5159,0,0-2.4959-2.6273-3.2527-2.9509-.4257-.5063-6.9729-3.4979-10.5114-3.4355-.0587-2.6899-.2005-8.9702-1.7371-12.027.019-.8431.9688-9.659.403-11.9807-.2422-1.0151,1.3151-1.7978,2.1024-1.7978.789,0,8.3259,1.7183,10.3696.844,0,0,4.0001-1.0095,4.8895-2.4703,0,0,.808-3.2898-1.1126-6.2813-1.9189-3.0115-8.6288-9.8823-10.3676-11.2987.2213-1.7379.384-4.8658.384-4.8658,0,0,0-.6728-.4447-1.0965-.4844-.4844-3.5366-3.9879-3.9604-4.3466-.3443-.3236-1.7371-.788-2.3048-.6216-.5639.1759-.3821,1.3833-.0585,1.6974.3424.3604,1.2734,1.1277,1.2734,1.1277l.4844,1.354s-.6282.3236-.7493.6224c-.1004.2668-.1004,1.8233.1228,2.1818.2215.3141.9708.4656.9708.4656,0,0-.685,1.5203-1.3548,1.5649-.5865-.827-1.5459-3.3246-2.3767-2.5054-.3935.403-.5941,1.087-.3726,1.7693.1835.6509,1.2941,3.8385,1.8599,4.4316.5867.5658,1.0105.8894,1.0105.8894,0,0,4.2272,6.5679,4.4392,7.7789" style="fill: #c9cacc;"/>
      <path d="M386.1991,390.4622c6.0534-.6321,17.0956,18.0879,17.457,18.4909.3842.405,1.0653-.4635,1.0653-.4635-.4617-.8061-10.1084-20.6936-18.5223-18.0274"/>
      <path d="M385.4016,370.636c1.0768-.1664,2.8346-2.2223,2.5461-2.3293-.2678-.1108-1.1723,1.2442-2.7949,1.2442-.5212,0-1.1467-.1259-1.8231-.248l-.1608-.0407c-.1978.3606-1.6065.5867-1.6065.5867l.1769.8685,1.3831-.3368c.229.0889,1.2035.422,2.2793.2554"/>
      <path d="M394.5375,359.3393c-1.2736.1476.1854,17.3407.1854,17.3407l1.3254-1.7191c-.1759-.9688-.3443-5.9976-.3234-6.7138.4493.2924,6.3059-.9403,7.6096-3.1431,0,0-4.0985.7419-5.1327.5158-1.845-.299-2.3294-1.0872-2.4201-1.653.0093-.1769-.6937-4.668-1.2442-4.6275"/>
      <path d="M393.7482,386.4411l-1.156.8297c8.3352,4.4041,13.3989,20.6737,13.4386,20.8364l.0417.174,2.6926.9349c0,.0037-6.3635-18.8951-15.0169-22.775"/>
      <path d="M413.4447,408.289c.3633.5714,2.2669-.443,2.2669-.443v-.1891c0-.0719-.2081-7.8983,6.0893-13.8986,0,0-6.8766,1.3872-8.3562,14.5307"/>
      <path d="M447.5392,406.8736l-1.5648-1.0748s.7378,3.5159.6981,5.0561c-.0302.2649-.1021.3253-.212.4257-.0605.0663-.0814.106-.1399.1343-.5772.632-.1742,3.0939-.1742,3.0939,0,0,.6774-1.406,1.3965-2.2045.0606-.0719.1116-.1343.1912-.1967.3329-.3199.4048-.5658.2213-1.9681-.0322-.471-.4162-3.2659-.4162-3.2659"/>
      <path d="M422.6713,359.1767c-.3029.0407-.8704,4.1582-.8497,4.7087,0,.0814-.1608,2.7741-3.1733,2.3039-3.0049-.4844-4.2442-1.0502-4.2442-1.0502,1.0653,2.1155,6.0627,3.1526,7.2984,4.8905.2612.3643.4637,2.2888.5034,2.5261h.9915v-3.4353l.9896-.298c-.4447-7.1848-1.213-9.7063-1.5156-9.6457"/>
      <path d="M402.2974,356.0242c-1.7976,0-4.4618.2773-4.5537.3019l-3.0227.6472.8799.6669c.0605-.0217,3.9916-.808,6.6039-.808.4352,0,.7834.019,1.0597.1004,2.2593.49,4.9728,1.4589,5.0125,1.0663.0095-.3587-3.2074-1.6123-4.7401-1.8952-.2875-.0388-.704-.0794-1.2395-.0794"/>
      <path d="M421.8406,357.1557l.2025-.1258.0794-.0918.0833-.1664-.1023-.2261-1.211-.704c-.123,0-5.9132-.019-5.9132-.019-1.425.0407-5.9058,1.8383-5.618,2.1818.2875.3197,3.5422-1.0558,5.7845-1.3331,2.3521-.3046,6.4923.4844,6.6948.4844"/>
      <path d="M417.1914,346.0586c1.1543-1.211-1.0711-2.5866-1.1109-2.7532,0,0,1.5461,2.0305.2934,1.4591-1.0673-1.6974-5.2662-2.9301-5.4119-3.0929-.2195-.2631.5299-.9744,2.8422.7634.1476-.298-1.2564-1.6718-3.2679-1.5308-.0397-.2773-.2252-.5848-.4145-.701-.0302-.019-.0605-.019-.0605-.019-.0814,0-.2081,0-.1666.0397.1779.1988.4751.6832.1457.7229-.3936.0415-.6319-.6511-.7133-.7627-.2044-.384-1.1694.1562-.6094.5809.1401.142.405.2232.6435.3994.2856.1664.1589.2734-.0872.1664-.3253-.1004-.6716-.1664-1.1163-.1664-.4542,0-.8687.106-1.2622.2734-.176.0407-.3368-.0446-.1306-.2073.1703-.157.4352-.2176.598-.3234.808-.5668-.5356-1.5007-.7644-.1676-.1552.2488-.3141.4249-.4334.4712-.6112.0407.0397-.915.0095-.915,0,0-.0719.0853-.106.107-.193.1221-.4428.3643-.4957.6321-.1591-.0219-2.4922.1314-2.827,1.404,1.7296-1.2727,2.6377-1.1874,2.5281-.701-.0302.2071-2.1004,1.3955-2.9406,2.1816-.6509.4844-1.6321,1.6786-1.8185,1.7191-.3331.0597-.3841-.6102.0597-1.4996-1.0863,1.0748-.8789,1.9235-.5904,2.3692-.5468,1.3141-.4342,2.9708.2829,4.284.616,1.087,4.4165,4.3059,4.7382,4.0873.3217-.2271-3.934-3.9606-4.2518-5.5688-.6728-3.8395,4.5016-7.2104,6.1743-7.4083.0833,0,.3027.4844,1.2527.4249,1.1808-.0446,1.3132-.4249,1.3132-.4249,1.3397-.1664,7.6505,2.2225,6.9938,6.8926-.2327,1.4701-.8119,3.2281-.5563,3.4163.2517.1506.5146-.6319,1.1523-1.9055.6964-1.3368.7152-2.9935.1079-4.2472"/>
      <path d="M433.6861,366.9586c-.808-.8894-7.5406-8.9948-7.5786-9.0138-.0624-.123-.2232-.384-.4654-.384-.1325,0-.9803.0444-1.0105.2422,1.4155,2.3653,4.6304,6.1251,6.9029,7.9634,1.02.913,1.8696,1.4496,2.1516,1.1922"/>
      <path d="M392.0321,410.9986c.3426.4428.9301,1.3132.9301,1.3132,0,0,.8268-2.0361,2.2688-2.8459,1.4145-.7985,3.8904-1.9035,4.9567-1.9452-4.0693-1.037-7.9891,1.964-8.1556,3.4779"/>
      <path d="M389.9989,377.9724c.7634.0207.9962-.7266,1.0056-1.5309l.1513-.1476c.02-.0188.7485-.6726,1.213-2.1409.3548,1.9547,1.3331,5.8554.6104,6.8707l-1.1155,1.1721,1.1665-.666c.4552-.1608,1.1932-.9905.9603-2.37-.1221-.7419-1.2668-6.9521-1.2668-6.9521l-.0558-.2583c-.0604-.808-.299-1.5707-.7539-2.162-.758-1.0368-1.9652-1.5714-2.7637-1.6377,0,0,3.2092,2.1411,2.7949,4.4109-.3842,2.1618-.7892,2.3388-.7892,2.3597l-.4437-.5119-.0407,1.2734c-.0699.6311-.2771.8894-.6915.8696-1.2328-.0209-2.1429,1.6575-3.4572,1.2734-1.2318-.3587-1.8846-1.3833-2.6623-1.9764-.703-.546.3747-1.6377.3747-1.6377,0,0-.0407-.424-.3587-.6472-.3331-.2224-.8855,1.157-.8855,1.157,0,0-.7417,1.8952.3036,2.5678,1.8392,1.2083,1.2422,1.1874,3.2281,1.7883,1.9964.614,1.8412-1.143,3.4762-1.1041"/>
      <path d="M477.0961,318.5729c-1.3531,0-3.0807-.8487-3.5064-3.2301-.1513-.4654-1.3416-3.2376-2.3539-5.639-5.8205-13.606-5.357-8.6296-4.8083-10.7924.9688-3.9009,6.3125-4.3692,10.275-4.3692.9214,0,1.6158.0446,1.8714.0653,1.9206.0219,3.5971.7229,4.9104,1.9964,2.1646,2.1411,2.7077,5.2993,2.7077,6.7704,0,.1608-2.9102,8.9475-4.3843,11.5948l-.0605.106c-2.1421,3.4572-4.0003,3.4979-4.6285,3.4979h-.0227Z"/>
      <path d="M478.4623,297.5557s-8.4773-.5468-9.1546,2.0398c-.6377,2.6085,5.3871,12.4907,7.2245,15.2403,1.3151,1.9547,2.668-1.2924,2.668-1.2924.9101-1.6121,3.9813-9.0762,4.0003-10.1812,0-1.3777-.9084-5.8281-4.7382-5.8064" style="fill: #c9cacc;"/>
      <path d="M237.5303,213.296s23.6474,1.4806,27.7942,28.1772c1.3331-4.916-4.0267-21.0796-10.8123-25.021-.7673-.4437-3.6926-1.8848-1.5308-6.6531-7.9485-1.1516-15.4511,3.4969-15.4511,3.4969"/>
      <path d="M350.378,224.0893s14.4454-5.4535,17.8714,17.7445c1.561-8.4829-.3955-18.5725-6.2416-21.6266-5.8556-3.0493-11.6298,3.8821-11.6298,3.8821"/>
      <path d="M282.3584,248.908s1.4401,4.8753,2.9708,5.8366c1.5498.9281,5.5566-5.0693,5.5566-5.0693,0,0-2.7939,7.2292-5.2699,9.076-1.9849-1.5108-2.7637-3.3558-3.2576-9.8433"/>
      <path d="M288.2197,254.3653s2.32,4.8298,3.8507,5.7855c1.5498.9206,5.1224-4.7959,5.1224-4.7959,0,0-3.1772,7.4024-4.8244,8.8065-1.4825-1.3349-4.3871-3.0729-4.1487-9.796"/>
      <path d="M274.7374,262.6116s2.8251,5.1943,4.5225,5.8763c2.8858,1.1628,3.0929-6.4478,3.0929-6.4478,0,0,1.2223,8.4319-1.9652,11.1973-2.668-1.5327-4.0673-2.5668-5.6502-10.6259"/>
      <path d="M281.9223,259.5386s1.5327,4.582,2.9823,5.6787c1.4362,1.087,4.4467-7.0998,4.4467-7.0998,0,0-.9802,8.094-3.2688,12.1321-1.4798-1.6974-3.9623-4.2433-4.1602-10.711"/>
      <path d="M287.7835,263.237c.0219.2176,2.7751,4.3057,4.4723,5.0929,1.7381.7417,2.8546-6.2803,2.8546-6.2803,0,0,.4939,8.0175-1.5809,10.3467-1.2017-.8487-5.1641-2.879-5.7459-9.1593"/>
      <path d="M289.3513,243.8358s2.703,6.1478,4.5016,7.0996c1.7978.9198,4.4913-5.6795,4.4913-5.6795,0,0-1.3794,7.1905-4.5981,9.4347-2.1913-1.9036-2.8641-3.176-4.3948-10.8548"/>
      <path d="M284.8041,238.5592s1.6974,4.5831,3.2301,5.3929c1.53.8175,4.1989-5.3929,4.1989-5.3929,0,0-1.5819,7.9285-4.0323,10.3488-1.6586-1.335-2.4259-3.5376-3.3967-10.3488"/>
      <path d="M294.151,236.9434s1.4143,3.9604,2.7437,4.8091c1.3036.8487,3.3502-2.6275,3.3502-2.6275,0,0-.8175,5.4969-3.2491,6.2396-1.0056-.8997-2.1031-2.6821-2.8449-8.4213"/>
      <path d="M301.3671,232.2949s.788,3.7335,1.914,4.5225c1.0663.7985,3.071-2.618,3.071-2.618,0,0-.2573,4.1582-3.1894,6.0033-1.0729-1.2944-2.367-2.8819-1.7956-7.9078"/>
      <path d="M308.0967,226.8577s.7883,3.7145,1.8848,4.513c1.0946.7824,3.0929-2.6275,3.0929-2.6275,0,0-.3738,5.0683-3.1024,5.638.3368.4749-2.3909-3.0105-1.8753-7.5235"/>
      <path d="M276.2455,253.6168s2.4601,4.3655,3.6114,4.4913c1.1372.1126,3.3312-4.4913,3.3312-4.4913,0,0-1.0368,6.1887-3.3312,7.4424-1.0246-1.2537-3.0522-3.2396-3.6114-7.4424"/>
      <path d="M290.8973,232.839s1.0368,3.6738,2.1723,4.3872c1.1372.7483,2.9206-2.8158,2.9206-2.8158,0,0-.5819,5.2596-2.5678,6.7411-1.2612-1.1409-2.7827-3.0322-2.5252-8.3126"/>
      <path d="M396.932,290.421c-3.9918-1.3738-8.8973-9.6864-10.3874-13.2325-1.4902-3.5829-4.1838-14.0775-2.5556-17.9121.8582,3.7939,3.1582,11.9089,4.8963,15.5619,2.6056,5.4714,5.8944,12.6099,8.0467,15.5827" style="fill: #c9cacc;"/>
      <path d="M483.1815,397.4955c-.7266-1.5015-4.5488-3.0105-6.2236-3.2489-1.5346-.229-1.8714-.2678-2.0115,1.2924-.1323,1.2725-.193,2.618.0606,3.9509.4143,2.3275.596,1.6462,2.6775,1.7637,1.5763.1211,2.9916.3577,4.5262.2459,1.4761-.087,1.7883-.1267,1.7883-1.5005-.0209-.9962.3745-2.2281-.8195-2.5866"/>
    </g>
  </g>
</svg>