<?xml version="1.0" encoding="UTF-8"?>
<svg data-name="图层_1" xmlns="http://www.w3.org/2000/svg" version="1.1" viewBox="0 0 800 800">
  <!-- Created by @FCLOGO 2024-12-10 GMT+8 17:23:24 . https://fclogo.top/ -->
<!-- FOR PERSONAL USE ONLY NOT FOR COMMERCIAL USE -->
<!-- Created by @FCLOGO 2024-12-10 GMT+8 17:23:24 . https://fclogo.top/ -->
<!-- FOR PERSONAL USE ONLY NOT FOR COMMERCIAL USE -->
  <path d="M348.22,774.3c-.79,0-1.38-.22-1.77-.65-.39-.44-.53-1.03-.41-1.79l.25-1.65c.12-.75.45-1.35.98-1.78.53-.44,1.19-.65,1.98-.65s1.33.2,1.72.6c.39.4.55.94.47,1.62h-1.24c.03-.36-.06-.64-.26-.84s-.5-.3-.89-.3c-.42,0-.76.12-1.03.35s-.43.56-.5.99l-.26,1.66c-.07.44,0,.77.19,1s.5.35.92.35c.39,0,.72-.1.98-.3s.44-.48.52-.85h1.24c-.14.69-.47,1.23-.99,1.63s-1.16.6-1.92.6l.02.0102ZM352.8,774.19l1-6.29h1.19l-.19,1.19c.34-.87.97-1.3,1.91-1.3.67,0,1.17.21,1.49.62.32.42.43.99.31,1.71l-.07.42h-1.27l.06-.32c.07-.45.01-.8-.17-1.04-.18-.24-.48-.36-.88-.36s-.74.12-1.01.37c-.27.24-.43.59-.5,1.03l-.63,3.97h-1.24,0ZM361.91,774.3c-.77,0-1.35-.22-1.73-.67s-.52-1.04-.4-1.77l.25-1.65c.08-.49.26-.92.52-1.28s.6-.65,1.01-.85c.41-.2.87-.3,1.38-.3.77,0,1.35.22,1.73.67.39.45.52,1.04.39,1.77l-.17,1.12h-3.85l-.09.53c-.15.95.22,1.43,1.11,1.43.72,0,1.17-.25,1.37-.74h1.22c-.17.53-.5.96-1.01,1.28-.5.32-1.09.47-1.76.47l.03-.01ZM361.23,770.22l-.05.29h2.65l.05-.3c.07-.47.01-.82-.17-1.07-.18-.25-.49-.37-.92-.37s-.8.13-1.06.38-.43.61-.51,1.08l.01-.01ZM368.33,774.3c-.63,0-1.1-.21-1.41-.64s-.4-1-.27-1.73l.27-1.77c.11-.73.39-1.31.84-1.74.44-.43.98-.64,1.61-.64.47,0,.83.12,1.09.35.26.24.39.56.38.96h.02l.17-1.2h1.24l-1,6.29h-1.22l.19-1.2h-.02c-.12.41-.35.73-.69.97s-.74.35-1.21.35h.01ZM368.93,773.23c.39,0,.72-.12.98-.36s.43-.57.5-1.01l.25-1.65c.07-.43,0-.76-.18-1-.19-.24-.47-.36-.86-.36s-.72.12-.98.35c-.26.24-.42.57-.49,1.01l-.25,1.65c-.07.44-.01.78.17,1.01.18.23.47.35.88.35l-.0201.01ZM376.35,774.19c-.57,0-.99-.16-1.26-.47-.27-.31-.36-.75-.27-1.32l.54-3.39h-1.74l.17-1.12h1.74l.27-1.72h1.24l-.27,1.72h2.47l-.18,1.12h-2.46l-.54,3.39c-.08.44.1.66.53.66h1.72l-.17,1.12h-1.77l-.02.01ZM382.5,774.3c-.77,0-1.35-.22-1.73-.67s-.52-1.04-.4-1.77l.25-1.65c.08-.49.26-.92.52-1.28s.6-.65,1.01-.85c.41-.2.87-.3,1.38-.3.77,0,1.35.22,1.73.67.39.45.52,1.04.39,1.77l-.17,1.12h-3.85l-.09.53c-.15.95.22,1.43,1.11,1.43.72,0,1.17-.25,1.37-.74h1.22c-.17.53-.5.96-1.01,1.28-.5.32-1.09.47-1.76.47l.03-.01ZM381.83,770.22l-.05.29h2.65l.05-.3c.07-.47.01-.82-.17-1.07-.18-.25-.49-.37-.92-.37s-.8.13-1.06.38-.43.61-.51,1.08l.01-.01ZM388.92,774.3c-.63,0-1.1-.21-1.4-.64-.3-.42-.39-1-.28-1.73l.27-1.77c.11-.73.39-1.31.84-1.74.44-.43.98-.64,1.61-.64.47,0,.83.12,1.09.35.26.24.39.56.38.96h.02l.21-1.47.3-1.8h1.24l-1.33,8.35h-1.22l.19-1.2h-.02c-.12.41-.35.73-.69.97s-.74.35-1.21.35v.0101ZM389.53,773.23c.39,0,.72-.12.98-.36s.43-.57.5-1.01l.25-1.65c.08-.43.02-.76-.17-1s-.48-.36-.87-.36-.72.12-.98.35c-.26.24-.42.57-.49,1.01l-.25,1.65c-.08.44-.02.78.16,1.01s.48.35.88.35l-.01.01ZM401.02,774.3c-.47,0-.84-.12-1.1-.35s-.39-.56-.38-.97h-.01l-.19,1.2h-1.22l1.33-8.35h1.24l-.29,1.8-.27,1.47h.05c.12-.41.35-.73.69-.97.34-.23.74-.35,1.21-.35.63,0,1.1.21,1.4.64s.39,1.01.28,1.74l-.27,1.77c-.11.73-.39,1.31-.84,1.73-.45.42-.98.64-1.61.64h-.02ZM400.77,773.23c.4,0,.72-.12.98-.35s.42-.57.5-1.01l.25-1.65c.07-.43.01-.77-.17-1.01-.18-.24-.47-.35-.87-.35s-.72.12-.98.36-.43.57-.5,1l-.25,1.65c-.07.44-.01.77.17,1.01.18.24.47.36.87.36v-.01ZM405.47,776.25l.17-1.06h1.93c.64,0,1.01-.3,1.1-.9l.1-.67.21-1.19h-.03c-.12.42-.35.74-.68.97s-.73.34-1.2.34c-.63,0-1.09-.2-1.4-.6s-.41-.94-.3-1.63l.58-3.6h1.24l-.56,3.48c-.06.41,0,.73.18.96s.47.34.85.34.72-.12.98-.37c.27-.24.43-.58.49-1.02l.54-3.4h1.24l-1.01,6.41c-.1.6-.37,1.08-.81,1.42-.44.35-1,.52-1.67.52h-1.95,0ZM417.79,770.09h3.22l.54-1.85h-5.47l-1.71,6.44h2.15l.59-2.1h3.03l.44-1.71h-3.03l.24-.78ZM424.23,772.92c-.59,0-1.02-.39-1.02-1.12,0-.88.63-1.76,1.61-1.76.49,0,.88.24,1.02.78l1.95-.83c-.29-1.17-1.27-1.9-2.64-1.9-2.78,0-4.15,2.15-4.15,3.9s1.27,2.83,3.07,2.83c1.37,0,2.34-.59,2.98-1.42l-1.51-1.17c-.39.44-.83.68-1.32.68l.01.0099ZM430.91,768.23h-2.15l-1.76,6.44h5.12l.49-1.85h-2.93l1.22-4.59h.01ZM439.75,771.01c0-1.66-1.32-2.93-3.22-2.93-2.2,0-3.81,1.81-3.81,3.81,0,1.66,1.32,2.93,3.22,2.93,2.2,0,3.81-1.81,3.81-3.81ZM434.92,771.7c0-.83.59-1.71,1.51-1.71.78,0,1.17.54,1.17,1.22,0,.83-.59,1.71-1.51,1.71-.78,0-1.17-.54-1.17-1.22ZM443.21,772.23h1.07l-.2.68c-.15.05-.34.1-.59.1-.68,0-1.27-.39-1.27-1.22,0-1.02.73-1.9,1.95-1.9.59,0,1.12.24,1.51.59l1.37-1.37c-.44-.54-1.51-1.07-2.73-1.07-2.59,0-4.29,1.76-4.29,3.86s1.61,2.88,3.22,2.88c.93,0,1.85-.29,2.49-.68l.93-3.32h-3.12l-.34,1.46v-.01ZM450.78,768.08c-2.2,0-3.81,1.81-3.81,3.81,0,1.66,1.32,2.93,3.22,2.93,2.2,0,3.81-1.81,3.81-3.81,0-1.66-1.32-2.93-3.22-2.93ZM450.34,772.92c-.78,0-1.17-.54-1.17-1.22,0-.83.59-1.71,1.51-1.71.78,0,1.17.54,1.17,1.22,0,.83-.59,1.71-1.51,1.71ZM437.94,767.5c-.05.29.1.49.44.49s.54-.2.63-.49c.05-.24-.1-.49-.44-.49s-.59.24-.63.49ZM432.13,765.5c-.44,0-.73.24-.78.59s.1.59.54.59.73-.24.78-.59c.1-.34-.1-.59-.54-.59ZM433.01,767.3c-.1.54.15.88.83.88.63,0,1.07-.39,1.17-.88s-.15-.88-.83-.88-1.07.39-1.17.88ZM439.6,777.55l-2.44-1.81h-1.51l4.25,3.17,1.61-3.17h-.98l-.93,1.81h0ZM425.84,767.16l-2-1.46,23.13-2.78-2.15,4.25h1.02l2.68-5.32-26.99,3.22,2.78,2.1h1.51l.02-.0099ZM338.72,785.79l.61-3.83h2.32l-.08.52h-1.76l-.18,1.14h1.63l-.08.52h-1.62l-.26,1.64h-.57l-.01.0099ZM342.97,785.84c-.36,0-.62-.1-.8-.3-.17-.2-.23-.47-.18-.82l.27-1.7c.06-.34.2-.61.44-.82.24-.2.54-.3.89-.3s.62.1.8.3c.17.2.24.47.18.81l-.27,1.71c-.06.34-.2.62-.44.82s-.54.3-.9.3h.01ZM343.05,785.33c.19,0,.35-.05.47-.16s.19-.26.23-.46l.27-1.7c.03-.2,0-.35-.08-.46-.08-.11-.22-.16-.41-.16s-.35.05-.46.16c-.12.1-.19.26-.22.46l-.27,1.7c-.03.2,0,.35.08.46s.22.16.41.16h-.02ZM345,785.79l.61-3.83h1.2c.24,0,.44.05.6.14s.28.22.36.39.09.37.05.59c-.04.26-.14.48-.3.67-.16.19-.37.32-.6.39l.54,1.64h-.62l-.48-1.57h-.54l-.25,1.57h-.57v.0099ZM345.89,783.71h.64c.19,0,.35-.06.48-.17s.21-.26.24-.45,0-.35-.09-.46c-.09-.11-.24-.17-.43-.17h-.64l-.2,1.25ZM349.54,785.79l.61-3.83h1.25c.37,0,.65.1.84.31s.26.49.2.84c-.04.23-.12.44-.25.61s-.29.31-.49.4c-.2.09-.42.14-.66.14h-.69l-.24,1.52h-.57v.0099ZM350.43,783.75h.69c.19,0,.36-.06.49-.18.14-.12.22-.27.25-.47s0-.35-.1-.47-.25-.18-.44-.18h-.69l-.21,1.29.01.0099ZM352.75,785.79l.61-3.83h2.25l-.08.5h-1.7l-.17,1.09h1.51l-.08.5h-1.51l-.19,1.24h1.69l-.08.5h-2.25ZM355.84,785.79l.61-3.83h1.2c.24,0,.44.05.6.14s.28.22.36.39.09.37.05.59c-.04.26-.14.48-.3.67-.16.19-.37.32-.6.39l.54,1.64h-.62l-.48-1.57h-.54l-.25,1.57h-.57v.0099ZM356.74,783.71h.64c.19,0,.35-.06.48-.17s.21-.26.24-.45,0-.35-.09-.46c-.09-.11-.24-.17-.43-.17h-.64l-.2,1.25ZM360.13,785.84c-.39,0-.67-.1-.87-.29-.19-.19-.26-.45-.22-.78h.57c-.03.17.01.31.12.41s.27.15.48.15c.2,0,.37-.05.5-.15.13-.1.21-.23.24-.4.02-.15,0-.28-.06-.39s-.16-.18-.29-.22l-.46-.14c-.27-.08-.46-.22-.59-.41s-.17-.42-.13-.68c.04-.21.11-.39.23-.55s.27-.28.46-.37.4-.13.64-.13c.35,0,.62.1.8.29s.25.44.2.76h-.57c.03-.17,0-.3-.09-.4-.09-.1-.23-.14-.42-.14s-.34.04-.46.13-.19.21-.21.38c-.02.15,0,.28.05.39s.16.18.29.22l.47.15c.26.08.46.22.58.41s.17.42.12.69c-.04.22-.12.41-.24.57-.13.16-.29.29-.49.38-.2.09-.42.13-.66.13l.01-.0099ZM363.27,785.84c-.36,0-.62-.1-.8-.3-.17-.2-.23-.47-.18-.82l.27-1.7c.06-.34.2-.61.44-.82.24-.2.54-.3.89-.3s.62.1.8.3c.17.2.24.47.18.81l-.27,1.71c-.06.34-.2.62-.44.82s-.54.3-.9.3h.01ZM363.34,785.33c.19,0,.35-.05.47-.16s.19-.26.23-.46l.27-1.7c.03-.2,0-.35-.08-.46-.08-.11-.22-.16-.41-.16s-.35.05-.46.16c-.12.1-.19.26-.22.46l-.27,1.7c-.03.2,0,.35.08.46s.22.16.41.16h-.02ZM365.28,785.79l.61-3.83h.71l.62,3.19c0-.1.02-.22.03-.36s.03-.29.04-.44c.02-.15.04-.29.06-.41l.31-1.98h.52l-.61,3.83h-.71l-.61-3.19c0,.09-.02.21-.03.34s-.03.28-.04.42c-.02.15-.04.28-.06.41l-.31,2.01h-.53v.0099ZM368.23,785.79l1.59-3.83h.75l.37,3.83h-.56l-.07-.97h-1.09l-.39.97h-.6ZM369.39,784.34h.87l-.09-1.1c-.02-.2-.03-.37-.04-.51,0-.14-.01-.24-.01-.3-.02.06-.05.16-.1.3s-.11.31-.19.5l-.44,1.11h0ZM371.72,785.79l.61-3.83h.57l-.52,3.31h1.67l-.08.52h-2.25ZM376.68,785.84c-.37,0-.63-.1-.8-.3-.17-.2-.22-.47-.17-.82l.44-2.76h.57l-.44,2.76c-.03.2,0,.35.07.46.08.11.21.17.41.17s.35-.06.46-.17c.12-.11.19-.27.22-.46l.44-2.76h.57l-.44,2.76c-.06.35-.2.62-.43.82-.23.2-.53.3-.9.3h0ZM379.84,785.84c-.39,0-.67-.1-.87-.29-.19-.19-.26-.45-.22-.78h.57c-.03.17.01.31.12.41s.27.15.48.15c.2,0,.37-.05.5-.15.13-.1.21-.23.24-.4.02-.15,0-.28-.06-.39s-.16-.18-.29-.22l-.46-.14c-.27-.08-.46-.22-.59-.41s-.17-.42-.13-.68c.04-.21.11-.39.23-.55s.27-.28.46-.37.4-.13.64-.13c.35,0,.62.1.8.29s.25.44.2.76h-.57c.03-.17,0-.3-.09-.4-.09-.1-.23-.14-.42-.14s-.34.04-.46.13-.19.21-.21.38c-.02.15,0,.28.05.39s.16.18.29.22l.47.15c.26.08.46.22.58.41s.17.42.12.69c-.04.22-.12.41-.24.57-.13.16-.29.29-.49.38-.2.09-.42.13-.66.13l.01-.0099ZM381.91,785.79l.61-3.83h2.25l-.08.5h-1.7l-.17,1.09h1.51l-.08.5h-1.51l-.19,1.24h1.69l-.08.5h-2.25ZM386.94,785.84c-.36,0-.62-.1-.8-.3-.17-.2-.23-.47-.18-.82l.27-1.7c.06-.34.2-.61.44-.82.24-.2.54-.3.89-.3s.62.1.8.3c.17.2.24.47.18.81l-.27,1.71c-.06.34-.2.62-.44.82s-.54.3-.9.3h.01ZM387.02,785.33c.19,0,.35-.05.47-.16s.19-.26.23-.46l.27-1.7c.03-.2,0-.35-.08-.46-.08-.11-.22-.16-.41-.16s-.35.05-.46.16c-.12.1-.19.26-.22.46l-.27,1.7c-.03.2,0,.35.08.46s.22.16.41.16h-.02ZM388.95,785.79l.61-3.83h.71l.62,3.19c0-.1.02-.22.03-.36s.03-.29.04-.44c.02-.15.04-.29.06-.41l.31-1.98h.52l-.61,3.83h-.71l-.61-3.19c0,.09-.02.21-.03.34s-.03.28-.04.42c-.02.15-.04.28-.06.41l-.31,2.01h-.53v.0099ZM392.25,785.79l.61-3.83h.57l-.52,3.31h1.67l-.08.52h-2.25ZM396.12,785.79l.22-1.41-.75-2.42h.58l.45,1.45c.03.09.05.18.07.27.02.08.03.15.03.19.02-.04.05-.1.09-.19.04-.08.09-.17.14-.27l.9-1.45h.6l-1.53,2.42-.22,1.41h-.58ZM399.22,785.79l.61-3.83h.71l.62,3.19c0-.1.02-.22.03-.36s.03-.29.04-.44c.02-.15.04-.29.06-.41l.31-1.98h.52l-.61,3.83h-.71l-.61-3.19c0,.09-.02.21-.03.34s-.03.28-.04.42c-.02.15-.04.28-.06.41l-.31,2.01h-.53v.0099ZM403.51,785.84c-.36,0-.62-.1-.8-.3s-.23-.47-.18-.82l.27-1.7c.06-.34.2-.61.44-.82.24-.2.54-.3.89-.3s.62.1.8.3c.17.2.24.47.18.81l-.27,1.71c-.06.34-.2.62-.44.82s-.54.3-.89.3ZM403.58,785.33c.19,0,.35-.05.47-.16s.19-.26.23-.46l.27-1.7c.03-.2,0-.35-.08-.46-.08-.11-.22-.16-.41-.16s-.35.05-.46.16c-.12.1-.19.26-.22.46l-.27,1.7c-.03.2,0,.35.08.46.08.11.22.16.41.16h-.02ZM406.38,785.79l.52-3.31h-1.02l.08-.52h2.62l-.08.52h-1.03l-.52,3.31h-.57ZM409.52,785.79l.61-3.83h2.32l-.08.52h-1.76l-.18,1.14h1.63l-.08.52h-1.62l-.26,1.64h-.57l-.01.0099ZM413.77,785.84c-.36,0-.62-.1-.8-.3s-.23-.47-.18-.82l.27-1.7c.06-.34.2-.61.44-.82.24-.2.54-.3.89-.3s.62.1.8.3c.17.2.24.47.18.81l-.27,1.71c-.06.34-.2.62-.44.82s-.54.3-.89.3ZM413.85,785.33c.19,0,.35-.05.47-.16s.19-.26.23-.46l.27-1.7c.03-.2,0-.35-.08-.46-.08-.11-.22-.16-.41-.16s-.35.05-.46.16c-.12.1-.19.26-.22.46l-.27,1.7c-.03.2,0,.35.08.46.08.11.22.16.41.16h-.02ZM415.8,785.79l.61-3.83h1.2c.24,0,.44.05.6.14s.28.22.36.39.09.37.05.59c-.04.26-.14.48-.3.67-.16.19-.37.32-.6.39l.54,1.64h-.62l-.48-1.57h-.54l-.25,1.57h-.57v.0099ZM416.69,783.71h.64c.19,0,.35-.06.48-.17s.21-.26.24-.45,0-.35-.09-.46c-.09-.11-.24-.17-.43-.17h-.64l-.2,1.25ZM420.91,785.84c-.36,0-.63-.1-.81-.3s-.24-.47-.19-.82l.27-1.7c.06-.35.21-.62.45-.82s.55-.3.91-.3.63.1.81.3.24.47.19.82h-.57c.03-.2,0-.35-.09-.46-.09-.11-.23-.16-.42-.16s-.35.05-.47.16c-.12.1-.2.26-.23.45l-.27,1.71c-.03.2,0,.35.09.46.09.11.23.16.42.16s.35-.05.47-.16.2-.26.23-.46h.57c-.03.23-.11.43-.24.59s-.28.3-.47.39-.4.14-.64.14h-.01ZM424.03,785.84c-.36,0-.62-.1-.8-.3s-.23-.47-.18-.82l.27-1.7c.06-.34.2-.61.44-.82.24-.2.54-.3.89-.3s.62.1.8.3c.17.2.24.47.18.81l-.27,1.71c-.06.34-.2.62-.44.82s-.54.3-.89.3ZM424.11,785.33c.19,0,.35-.05.47-.16s.19-.26.23-.46l.27-1.7c.03-.2,0-.35-.08-.46-.08-.11-.22-.16-.41-.16s-.35.05-.46.16c-.12.1-.19.26-.22.46l-.27,1.7c-.03.2,0,.35.08.46.08.11.22.16.41.16h-.02ZM425.97,785.79l.61-3.83h.69l.18,1.23c.02.12.04.23.05.33.01.1.02.18.03.24.02-.06.05-.14.09-.24.04-.11.09-.22.15-.34l.57-1.22h.71l-.61,3.83h-.54l.2-1.29c.02-.17.06-.35.1-.55s.09-.4.14-.61.1-.4.14-.59c.05-.19.09-.35.13-.49l-.86,1.86h-.55l-.28-1.86c0,.14-.01.29-.02.47s-.02.37-.04.57c-.02.2-.04.41-.06.61s-.05.4-.08.57l-.2,1.29h-.54l-.01.02ZM429.11,785.79l.61-3.83h.69l.18,1.23c.02.12.04.23.05.33.01.1.02.18.03.24.02-.06.05-.14.09-.24.04-.11.09-.22.15-.34l.57-1.22h.71l-.61,3.83h-.54l.2-1.29c.02-.17.06-.35.1-.55s.09-.4.14-.61.1-.4.14-.59c.05-.19.09-.35.13-.49l-.86,1.86h-.55l-.28-1.86c0,.14-.01.29-.02.47s-.02.37-.04.57c-.02.2-.04.41-.06.61s-.05.4-.08.57l-.2,1.29h-.54l-.01.02ZM432.41,785.79l.61-3.83h2.25l-.08.5h-1.7l-.17,1.09h1.51l-.08.5h-1.51l-.19,1.24h1.69l-.08.5h-2.25ZM435.51,785.79l.61-3.83h1.2c.24,0,.44.05.6.14s.28.22.36.39.09.37.05.59c-.04.26-.14.48-.3.67-.16.19-.37.32-.6.39l.54,1.64h-.62l-.48-1.57h-.54l-.25,1.57h-.57v.0099ZM436.4,783.71h.64c.19,0,.35-.06.48-.17s.21-.26.24-.45,0-.35-.09-.46c-.09-.11-.24-.17-.43-.17h-.64l-.2,1.25ZM439.8,785.84c-.36,0-.63-.1-.81-.3s-.24-.47-.19-.82l.27-1.7c.06-.35.21-.62.45-.82s.55-.3.91-.3.63.1.81.3.24.47.19.82h-.57c.03-.2,0-.35-.09-.46-.09-.11-.23-.16-.42-.16s-.35.05-.47.16c-.12.1-.2.26-.23.45l-.27,1.71c-.03.2,0,.35.09.46.09.11.23.16.42.16s.35-.05.47-.16.2-.26.23-.46h.57c-.03.23-.11.43-.24.59s-.28.3-.47.39-.4.14-.64.14h-.01ZM441.88,785.79l.08-.5h.78l.45-2.82h-.78l.08-.5h2.13l-.08.5h-.78l-.45,2.82h.78l-.08.5h-2.13ZM444.74,785.79l1.59-3.83h.75l.37,3.83h-.56l-.07-.97h-1.09l-.39.97h-.6ZM445.9,784.34h.87l-.09-1.1c-.02-.2-.03-.37-.04-.51,0-.14-.01-.24-.01-.3-.02.06-.05.16-.1.3s-.11.31-.19.5l-.44,1.11h0ZM448.24,785.79l.61-3.83h.57l-.52,3.31h1.67l-.08.52h-2.25ZM453.19,785.84c-.37,0-.63-.1-.8-.3-.17-.2-.22-.47-.17-.82l.44-2.76h.57l-.44,2.76c-.03.2,0,.35.07.46.08.11.21.17.41.17s.35-.06.46-.17c.12-.11.19-.27.22-.46l.44-2.76h.57l-.44,2.76c-.06.35-.2.62-.43.82-.23.2-.53.3-.9.3h0ZM456.36,785.84c-.39,0-.67-.1-.87-.29-.19-.19-.26-.45-.22-.78h.57c-.03.17.01.31.12.41s.27.15.48.15c.2,0,.37-.05.5-.15s.21-.23.24-.4c.02-.15,0-.28-.06-.39s-.16-.18-.29-.22l-.46-.14c-.27-.08-.46-.22-.59-.41s-.17-.42-.13-.68c.04-.21.11-.39.23-.55s.27-.28.46-.37c.19-.09.4-.13.64-.13.35,0,.62.1.8.29s.25.44.2.76h-.57c.03-.17,0-.3-.09-.4-.09-.1-.23-.14-.42-.14s-.34.04-.46.13-.19.21-.21.38c-.02.15,0,.28.05.39s.16.18.29.22l.47.15c.26.08.46.22.58.41s.17.42.12.69c-.04.22-.12.41-.24.57-.13.16-.29.29-.49.38-.2.09-.42.13-.66.13l.01-.0099ZM458.42,785.79l.61-3.83h2.25l-.08.5h-1.7l-.17,1.09h1.51l-.08.5h-1.51l-.19,1.24h1.69l-.08.5h-2.25Z" style="fill: #ccc;"/>
  <g>
    <g>
      <path d="M657.4304,99.7383l-1.0582-3.2213-3.0701-1.442c-79.4976-37.5741-176.5205-43.9237-245.3541-44.9122v-.1628l-8.0126.0581h-.0232l-7.8381.0233v.0698c-68.8452.9885-165.903,7.3497-245.3774,44.9122l-3.0585,1.442-1.0699,3.2213c-121.2815,363.8679,106.7334,562.1235,253.4364,647.9358l4.0121,2.3375,4.0005-2.3375c146.6915-85.8007,374.6948-284.0795,253.4132-647.9358" style="fill: #fff;"/>
      <path d="M649.9528,102.134c-82.7422-39.0976-184.754-43.6446-249.9244-44.2028h0c-65.182.5466-167.1822,5.0936-249.9244,44.2028-119.5837,358.7277,105.5472,554.2388,249.9244,638.6906h0c144.3656-84.4517,369.4965-279.9511,249.9244-638.6906" style="fill: #73308a;"/>
      <g>
        <path d="M221.1355,407.7626v134.504c21.5141,32.0154,46.1798,59.8326,71.5432,83.6725v-168.0661c-26.7473-12.4666-50.9245-29.5151-71.5432-50.1105" style="fill: #884e9b;"/>
        <path d="M578.8981,542.2549v-136.9462c-20.5257,21.0722-44.7145,38.551-71.5548,51.4129v169.229c25.375-23.8516,50.0407-51.6688,71.5548-83.6842" style="fill: #884e9b;"/>
        <path d="M398.7957,481.3176c-11.7223,0-23.2585-.8024-34.5505-2.3608v204.0819c12.4549,8.4429,24.4912,15.9088,35.7716,22.4328,11.292-6.5356,23.3167-14.0016,35.7716-22.4328v-204.4424c-12.0712,1.7793-24.4214,2.7213-36.9927,2.7213" style="fill: #884e9b;"/>
      </g>
      <path d="M631.881,123.1713c-83.8353-39.1557-195.139-40.1675-231.6665-41.2955h-.3721c-36.5391,1.128-147.8428,2.1398-231.6781,41.2955-120.5605,360.8559,140.0512,539.4116,231.8642,591.5456,91.813-52.134,352.4363-230.6896,231.8526-591.5456M400.0168,705.4716c-102.5352-59.3441-266.7636-196.0112-249.0987-433.469,20.0372,118.7929,123.3864,209.315,247.8777,209.315s233.8644-95.8483,249.436-219.7349c23.3516,243.8888-144.1796,383.6958-248.2149,443.8888" style="fill: #b99a45;"/>
    </g>
    <g>
      <path d="M245.4174,189.3185c-4.4889-3.3725-10.3384-5.1518-16.9089-5.1518s-12.327,1.7909-16.8159,5.1518c-6.4542,4.8029-10.3035,12.8271-10.3035,21.4792v38.4231c0,.6163.4884,1.1048,1.1164,1.1048h13.6876c.628,0,1.1164-.4884,1.1164-1.1048v-17.8625h22.5142v17.8625c0,.6163.4768,1.1048,1.1164,1.1048h13.6993c.6163,0,1.1048-.4884,1.1048-1.1048v-38.4231c0-8.6522-3.8493-16.688-10.3035-21.4792M239.8121,217.4032h-22.5142v-5.8263c0-4.3842,1.2211-7.78,3.6283-10.0593,1.9653-1.7909,4.3726-2.6166,7.5823-2.6166s5.7449.8838,7.6637,2.6166c2.4189,2.291,3.6283,5.6751,3.6283,10.0593v5.8263h.0116Z" style="fill: #fff;"/>
      <path d="M306.157,236.3821h-26.3635v-50.2268c0-.628-.4884-1.1048-1.1164-1.1048h-13.6876c-.628,0-1.1048.4768-1.1048,1.1048v63.0655c0,.6163.4768,1.1164,1.1048,1.1164h41.1559c.628,0,1.1048-.4884,1.1048-1.1164v-11.7456c0-.6163-.4768-1.1048-1.1048-1.1048" style="fill: #fff;"/>
      <path d="M369.1644,189.3185c-4.5005-3.3725-10.3384-5.1518-16.9206-5.1518s-12.327,1.7909-16.8159,5.1518c-6.4542,4.8029-10.2919,12.8271-10.2919,21.4792v38.4231c0,.6163.4884,1.1048,1.1048,1.1048h13.6876c.628,0,1.1164-.4884,1.1164-1.1048v-17.8625h22.5143v17.8625c0,.6163.4768,1.1048,1.1048,1.1048h13.6876c.6163,0,1.1164-.4884,1.1164-1.1048v-38.4231c0-8.6522-3.8609-16.688-10.3035-21.4792M363.5474,217.4032h-22.5143v-5.8263c0-4.3842,1.2095-7.78,3.6167-10.0593,1.9653-1.7909,4.3726-2.6166,7.5823-2.6166s5.7449.8838,7.6753,2.6166c2.4189,2.291,3.64,5.6751,3.64,10.0593v5.8263h0Z" style="fill: #fff;"/>
      <path d="M402.4822,185.0506h-13.6876c-.6163,0-1.0932.4884-1.0932,1.1048v63.0655c0,.6163.4884,1.1164,1.0932,1.1164h13.6876c.628,0,1.1164-.4884,1.1164-1.1164v-63.0655c0-.628-.4884-1.1048-1.1164-1.1048" style="fill: #fff;"/>
      <path d="M469.3156,185.0506h-12.9085c-.628,0-1.1048.4884-1.1048,1.1048v38.0393l-28.0614-37.6439c-1.0117-1.2908-1.5467-1.5002-2.6166-1.5002h-12.0246c-.628,0-1.1164.4884-1.1164,1.1048v63.0655c0,.6163.4884,1.1164,1.1164,1.1164h12.9085c.6163,0,1.1048-.4884,1.1048-1.1164v-38.0393l28.1544,37.6323c.8489,1.2792,1.4304,1.5118,2.6166,1.5118h11.9316c.6163,0,1.1164-.4884,1.1164-1.1164v-63.0655c0-.628-.5-1.1048-1.1164-1.1048" style="fill: #fff;"/>
      <path d="M493.2137,250.3256h13.6993c.6163,0,1.1164-.4884,1.1164-1.1164v-24.7936h26.0612c.628,0,1.1164-.4884,1.1164-1.1164v-11.7223c0-.628-.4884-1.1164-1.1164-1.1164h-26.0612v-11.4664h30.271c.6164,0,1.1164-.4884,1.1164-1.1048v-11.7339c0-.6163-.5-1.1048-1.1164-1.1048h-45.0866c-.628,0-1.1048.4884-1.1048,1.1048v63.0655c0,.628.4768,1.1164,1.1048,1.1164" style="fill: #fff;"/>
      <path d="M577.7584,251.3025c9.9779,0,16.2577-2.3724,20.6419-4.4307.628-.314.7326-.628.4652-1.3258l-5.5588-11.7921c-.2442-.4884-.4186-.4884-.5-.4884-.1628,0-.3838.0698-.6862.2093-4.7564,2.384-9.2918,3.4888-14.2691,3.4888-10.6873,0-18.444-8.1288-18.444-19.3162s8.0591-19.2348,18.351-19.2348c5.617,0,9.8849,1.6281,13.6644,3.3958.3838.1163.8955.3373,1.3141-.4186l5.5472-11.606c.407-.8141.0233-1.1629-.407-1.3839-3.6865-1.8142-9.757-4.2331-19.6302-4.2331-20.2581,0-35.5274,14.397-35.5274,33.4806,0,21.0839,13.0946,33.6667,35.0506,33.6667" style="fill: #fff;"/>
    </g>
    <g>
      <path d="M365.9779,650.5582h-12.5015c-.3024,0-.5117-.2093-.5117-.5117v-3.5586c0-.3024.2093-.5117.5117-.5117h3.7214v-19.2813l-4.2796.628c-.2907.0349-.5117-.2558-.5117-.5465v-3.2213c0-.3024.2675-.4303.5582-.5117l5.0006-1.6165c.1163-.0349.3721-.1279.5582-.1279h3.3027c.3024,0,.5117.221.5117.5117v24.154h3.64c.3024,0,.5582.221.5582.5117v3.5586c0,.3024-.2558.5117-.5582.5117" style="fill: #fff;"/>
      <path d="M381.2937,650.942c-4.5819,0-6.4426-1.4886-7.873-2.4654-.221-.1628-.2675-.5117-.093-.721l2.4538-3.1283c.1744-.221.5117-.2675.721-.0931,1.6514,1.3141,3.0934,1.6979,4.7912,1.6979,3.733,0,5.6402-3.4655,6.2333-7.966-1.442,1.1862-3.4888,2.0351-5.7681,2.0351-5.3146,0-9.1173-3.5586-9.0359-9.7802.093-5.3029,4.1517-9.1987,9.8035-9.1987,6.1054,0,10.257,3.605,10.257,13.4434,0,6.3612-1.6979,16.1995-11.4897,16.1995M382.5147,626.0088c-2.919,0-4.7098,2.163-4.7564,4.5005-.0349,3.6865,1.8839,5.082,3.9888,5.082,1.7793,0,4.0237-.4652,5.8495-3.2213-.3721-4.4424-2.0235-6.3612-5.082-6.3612" style="fill: #fff;"/>
      <path d="M409.7737,650.942c-6.1054,0-10.2454-3.605-10.2454-13.4318,0-6.3612,1.6979-16.1995,11.4897-16.1995,4.6168,0,6.431,1.4769,7.8846,2.4654.2558.1628.2558.5117.093.7094l-2.4654,3.1399c-.1628.2093-.5.2442-.721.0698-1.663-1.3258-3.0934-1.6979-4.7912-1.6979-3.7446,0-5.6053,3.4771-6.2333,7.966,1.4537-1.1862,3.4655-2.0351,5.803-2.0351,5.2564,0,9.0824,3.5586,8.9894,9.7918-.0814,5.3029-4.1517,9.1987-9.8035,9.1987M410.5878,636.6496c-1.7793,0-4.0702.4652-5.896,3.233.3837,4.454,2.0468,6.3496,5.0936,6.3496s4.7098-2.163,4.7564-4.4889c.0465-3.6748-1.8607-5.0936-3.9539-5.0936" style="fill: #fff;"/>
      <path d="M437.7305,650.942c-6.6985,0-10.6059-3.0934-10.6059-7.8962s3.1864-6.6868,5.5588-7.7916c-1.8258-.9303-4.4191-2.6282-4.4191-6.6054,0-4.1981,3.5702-7.3381,9.4197-7.3381s9.4546,3.1399,9.4546,7.3381c0,3.5935-1.9537,5.3379-4.4424,6.6868,3.9772,2.1282,5.5007,3.8609,5.5007,7.7102,0,4.8029-3.8144,7.8962-10.4663,7.8962M437.6491,637.7428c-2.7678,1.1513-5.4309,2.8143-5.4309,5.3029,0,.8955.4652,3.1864,5.5123,3.1864s5.4192-2.2444,5.4192-3.1864c0-2.3259-2.5468-3.8144-5.5123-5.3029M437.6956,626.0088c-4.0354,0-4.4075,2.0351-4.4075,2.6399,0,1.8258,2.3724,3.2213,4.5703,4.2679,2.4305-1.0932,4.2098-2.1979,4.2098-4.2679,0-.4768-.3954-2.6399-4.361-2.6399" style="fill: #fff;"/>
    </g>
    <g>
      <path d="M578.0957,512.17l.8024,3.5818c-1.6979-.721-3.6167-1.4187-5.7565-2.1165l-.4303-2.5933-6.0123-15.7344-4.6866,12.0712.5233,3.326c-1.6513-.407-3.3841-.8024-5.1867-1.1978l-.4419-2.698-6.7566-16.0367-6.3263,15.0133c-1.4304-8.7336-3.419-21.6537-5.1634-33.6318-.221-1.4885-.7559-3.0701-1.7327-4.6982l-.5117-3.5702-2.8608-12.6759-1.8956,4.8727.8141,6.3263c-1.2094-1.0466-2.6515-2.0933-4.3028-3.1515l-.4186-3.6981-4.5936-14.2458-3.2329,8.2917.5815,5.5239c-1.2676-.5815-2.6166-1.1746-4.047-1.756l-.4186-4.0702-4.3959-14.1644-2.0002,3.6749-5.6169-43.1329s-.3489-1.0234-1.4537-2.698l-2.3259-10.2803-.6978,2.4422.6163,4.7215c-.9769-1.1048-2.163-2.3259-3.6516-3.6167l-.1977-1.977-2.8375-9.8151-1.6397,4.6633.5,3.8609c-1.2676-.8954-2.6515-1.8025-4.1981-2.7212l-.1977-2.0816-3.3376-10.0477-2.2793,5.8495.3256,3.326c-1.3722-.6745-2.8259-1.349-4.3726-2.0235l-.1977-2.0584-3.8493-10.792-3.9772,6.9543.2675,2.9073c-1.3839-.4768-2.8259-.942-4.3144-1.4071l-.1744-2.1049-4.6168-10.9315-4.8145,7.6055.1977,2.8608c-1.5234-.3721-3.0934-.721-4.7098-1.0699l-.1512-2.3142-5.6286-11.1641-4.9773,7.1753c-.628-6.7915-1.6979-19.1301-2.6049-29.4802h6.9892c-.1977-.7908-.628-1.7211-1.3839-2.0816-.8722-.3954-3.0236-.8373-5.9076-1.2327-.3721-4.3493-.7094-8.1521-.9303-10.7222-.5-1.1862-1.128-2.2328-1.8258-3.2562l-1.756-7.3032-1.6746,3.4306c-.7559-.6629-1.5583-1.2676-2.3956-1.8374l-3.5818-9.129-3.3725,5.6169c-.7908-.3024-1.6048-.5698-2.4073-.8257l-3.8842-8.7917-4.14,6.9427c-.8489-.1279-1.663-.2558-2.477-.3489l-4.0702-8.5591-4.5122,7.8498c-.407-.0116-.8257-.0349-1.1862-.0349h-.1744c-.314.0116-.6978.0349-1.0466.0465l-4.5122-7.8614-4.0819,8.5824c-.8024.093-1.6165.221-2.4654.3489l-4.14-6.9659-3.8958,8.815c-.8024.2442-1.6048.5117-2.4073.8024l-3.3609-5.6169-3.5586,9.0824c-.8489.5698-1.663,1.1746-2.4422,1.8258l-1.6746-3.4423-1.8723,7.3381c-.7443,1.0699-1.4304,2.1863-1.9421,3.4423-.2558,2.7561-.5698,6.4426-.9187,10.5477-3.0352.3837-5.2797.8489-6.1868,1.2676-.7675.3605-1.1862,1.2792-1.3955,2.0816h7.2915c-.8954,10.3733-1.9188,22.491-2.5236,29.5383l-4.989-7.1869-5.6286,11.1641-.1395,2.4422c-1.6281.314-3.1864.6629-4.7098,1.0117l.1977-2.9306-4.8261-7.5939-4.6052,10.9315-.1861,2.0584c-1.4885.4419-2.9306.8954-4.3144,1.3606l.2558-2.8259-3.9772-6.9659-3.8493,10.792-.1861,1.9305c-1.5351.6512-3.0003,1.3025-4.361,1.977l.3024-3.1515-2.2793-5.8495-3.3376,10.0593-.1861,1.8723c-1.5351.9187-2.919,1.8142-4.1865,2.7096l.4652-3.64-1.6281-4.6517-2.8841,9.9779-.1395,1.5583c-1.4653,1.2676-2.6631,2.4654-3.64,3.5702l.5698-4.4307-.6861-2.4538-2.2328,9.8849c-1.1164,1.6397-1.4885,2.6398-1.4885,2.6398l-5.4192,44.0749-2.1979-3.5586-3.9888,13.769-.3837,3.7795c-1.3839.5349-2.7329,1.1164-4.0354,1.6979l.5698-5.3611-3.2562-8.2917-4.6285,14.4436-.3605,3.3027c-1.5816,1.0117-3.0003,2.07-4.2912,3.1515l.8024-6.1402-1.8025-5.2797-2.9771,13.1992-.4419,3.0701c-1.0815,1.6281-1.8025,3.3143-2.0584,5.0355-1.349,8.9894-3.0817,21.3164-4.9541,32.434l-.8373-.0814-.1047.0465-.1047-.0698v-.1512l-5.6402-13.4201-6.7566,16.0367-.4536,2.6864c-1.7909.3838-3.5237.7791-5.175,1.1746l.5233-3.3027-4.6866-12.0595-6.0239,15.839-.4187,2.5119c-2.1514.721-4.0586,1.442-5.7565,2.1979l.814-3.6981-2.4422-9.8384-5.6402,16.4321c.2093.3372.4187.6745.6163,1.0234-.0349.0233-.0698.0581-.093.0931,7.4078,12.3968,15.3274,24.2005,23.6307,35.4343.0116-.0698.0232-.1395.0349-.1977,1.57,2.1282,3.1283,4.2796,4.7215,6.3612l84.4749.0349c-.1512.4536-.2791.8373-.3605,1.0932h72.9504s.0116-.2558.0465-.6977c.0232.4419.0465.6977.0465.6977h156.0531c10.6175-13.7458,20.6652-28.4103,29.9104-43.9935l-5.6402-16.4089-2.4305,9.8499.0234-.0232Z" style="fill: #73308a;"/>
      <g>
        <polygon points="429.6947 579.4918 437.1723 585.039 521.8449 579.4918 429.6947 579.4918" style="fill: #fff;"/>
        <path d="M447.0455,591.9235l49.5058,35.0855c1.756-1.5816,3.4888-3.1748,5.2332-4.8029l-54.7389-30.2942v.0116Z" style="fill: #fff;"/>
        <polygon points="534.9627 570.0605 422.9613 570.0605 430.8227 574.2819 534.9627 570.0605" style="fill: #fff;"/>
        <path d="M282.6543,530.707s3.6632.1047,3.6632-2.3723l.5698-4.8494c.1744-2.1282-.6745-3.7795-3.3027-3.6981-2.9771.0931-3.2678,1.8491-3.6167,4.047l-.5698,4.8377c0,2.477,1.3606,2.07,3.2562,2.0235" style="fill: #fff;"/>
        <path d="M504.3778,397.8544h-.0116c.0116.093.0232.1279.0116,0" style="fill: #fff;"/>
        <path d="M389.19,301.9363s-.0465,0-.0698.0116l-5.4192-9.1057-5.1053,11.5711h-.0232l-4.5936-7.6637-4.9541,12.6178h0l-2.8375-5.8146-3.4888,13.6993v.1279c-.0349.3373-.0814.721-.1047,1.0815.4303-.8722.9652-1.7327,1.5932-2.5352,5.6053-7.1404,19.2813-12.0479,35.9809-12.327,16.7229.2675,30.4687,5.1401,36.0739,12.2805.5233.6629.9652,1.3374,1.349,2.0468l-.0698-.8024-3.2329-13.5481-2.8375,5.8146-4.9657-12.6178-4.5703,7.6288s-.0465-.0116-.0581-.0232l-5.082-11.5362-5.396,9.0708s-.0698,0-.1163-.0116l-5.2332-10.9897-5.7797,10.0826h-.0116l-5.803-10.0942-5.2448,11.0129v.0232Z" style="fill: #fff;"/>
        <polygon points="437.6142 317.9498 437.6142 317.9498 437.6142 317.9498 437.6142 317.9498" style="fill: #fff;"/>
        <path d="M319.7516,406.0879l1.2559-12.955s-2.0468.8024-2.8375,1.128c-.093,1.2792-1.1862,12.013-1.3141,13.0131,1.7095-.6629,2.8957-1.1862,2.8957-1.1862" style="fill: #fff;"/>
        <path d="M414.2626,509.065c.1512,16.0484.3489,38.1556.3721,39.4697-7.8846.2093-14.7924.2326-14.7924.2326v-.0349c-.7326,0-7.3148-.0233-14.7575-.2326.0349-1.1978.2093-20.1767.3605-35.7018-44.4819,11.8967-57.0531,45.482-58.2742,49.7384h229.201c8.7452-11.3502,17.1067-23.305,24.9564-35.9112-24.7936-12.0479-95.2669-17.0485-167.0892-17.5602M417.2397,557.0822h-33.4806v-4.4075h33.4806v4.4075ZM453.6975,527.0671s-4.5819.5465-4.5819-1.9421l-.1744-4.8029c0-2.4887.6163-4.047,3.9656-3.9655,3.7911.0931,4.6168,1.0467,4.8843,3.9655l.1279,4.2331c0,2.4887-1.7793,2.7213-4.2214,2.5119M517.4607,530.742s-3.6632.1163-3.6632-2.3723l-.5698-4.8494c-.1744-2.1165.6745-3.7911,3.3027-3.7097,2.9654.1047,3.2678,1.8607,3.6167,4.047l.5698,4.8494c0,2.4887-1.3606,2.07-3.2562,2.0351" style="fill: #fff;"/>
        <path d="M218.6585,526.5787c6.2449,10.0244,12.8038,19.6302,19.6302,28.8638,1.7211-9.9896,4.4656-26.3403,5.9891-36.4461l-.2907.0581c-10.6873,2.1165-19.3278,4.6052-25.3285,7.5125" style="fill: #fff;"/>
        <polygon points="370.304 574.3168 378.1654 570.0953 266.1524 570.0953 370.304 574.3168" style="fill: #fff;"/>
        <path d="M303.994,627.4509l50.0872-35.5157-55.3902,30.6664c1.7676,1.6397,3.5353,3.2562,5.3146,4.8494" style="fill: #fff;"/>
        <polygon points="371.4321 579.5151 279.2818 579.5151 363.9312 585.0622 371.4321 579.5151" style="fill: #fff;"/>
        <rect x="376.7699" y="579.4685" width="47.1799" height="4.6284" style="fill: #fff;"/>
        <rect x="380.375" y="570.0838" width="40.3535" height="3.7097" style="fill: #fff;"/>
        <path d="M299.9121,378.294l-3.3376,14.8041-.6512,4.9657c.6163-1.3025,1.3606-2.5701,2.2677-3.8144,14.7575-20.6885,67.4497-29.9337,102.0119-29.3406l.0349.0349.0232-.0349c34.5622-.5931,87.266,8.6522,102.0119,29.3406.7908,1.1048,1.5118,2.4538,2.07,3.5934-.0581-.4186-.2791-2.3375-.2791-2.3375v-.0349l-.3373-2.4305-3.3376-14.8041-1.8956,6.6636.4652,3.4423c-.3954-.3954-.8024-.8024-1.2559-1.2327l-.314-3.105-3.7795-13.1759-2.8259,8.0126.407,3.1632c-.6047-.407-1.2327-.8141-1.8956-1.2327l-.2907-2.9887-4.2912-12.9434-3.4306,8.815.2907,2.9306c-.6978-.3256-1.4188-.6629-2.1398-.9885l-.2675-2.791-4.6633-13.0829-5.2913,9.2569.2442,2.7678c-.6978-.221-1.3955-.4652-2.1281-.6978l-.2326-2.6864-5.4541-12.955-6.0821,9.6174.1861,2.8724c-.8373-.1861-1.7095-.3721-2.5701-.5698l-.1861-2.8259-6.5124-12.955-5.2681,7.5939c-.6047-6.745-1.5467-17.4439-2.3607-26.7705h8.1521s-.1395-3.1515-2.1863-4.0935c-1.3258-.6047-4.4191-1.0932-6.431-1.349-.0116-.221-.0232-.407-.0581-.628,0,.0465.0232.0698.0232.0698-.2791-2.5585-.1395-3.9423-1.7444-6.3961-5.9193-8.9661-20.5373-11.6758-29.6081-12.4317-2.0002,1.1164-3.7679,2.6747-5.3146,4.5703.5931.5,1.1629,1.2908,1.1862,2.5119.0581,5.3844.1047,7.8614.0232,8.6522-1.0001-.0232-2.4073-.0232-2.6166-.0232v.0232s-1.5816,0-2.6864.0232c-.0465-.5349-.0465-1.8839-.0232-4.3726-3.8609,8.3614-5.71,19.2697-6.6403,28.5033l-8.2103,12.2805-.0465,2.4073c-1.0815.1047-2.163.221-3.2562.3373l.0698-2.5817-6.8729-11.3269-2.9538,4.6866c.9187-14.1063,2.4887-37.4113,2.6631-40.2838.0581-.0581.1512-.1047.221-.1628-3.5353,1.7793-6.6054,4.1284-8.6405,7.2102-1.6281,2.4654-1.6979,3.8842-1.9653,6.4426l-.0349.4303c-2.0002.2558-5.3378.7559-6.7334,1.3955-2.0468.942-2.1747,4.0935-2.1747,4.0935h8.4312c-.8024,9.3615-1.6979,19.9209-2.291,26.8287l-5.2797-7.5939-6.5124,12.9434-.1977,2.9422c-.8606.1861-1.7327.3489-2.5468.5349l.1861-2.9538-6.0821-9.5941-5.4658,12.955-.221,2.6282c-.7326.2326-1.4304.4536-2.1281.6861l.2326-2.698-5.2797-9.2453-4.6749,13.0829-.2442,2.6282c-.7326.3256-1.442.6512-2.1398.9769l.2791-2.7794-3.4423-8.815-4.2912,12.955-.2791,2.7794c-.6629.407-1.2908.8141-1.8956,1.2211l.3721-2.9422-2.8143-8.0126-3.7911,13.1643-.2907,2.8957c-.4419.407-.8489.8024-1.2327,1.1978l.3954-3.198-1.8723-6.6752v.0233ZM430.5785,318.4963c.5815.4536,1.0815,2.0468,1.1862,3.0701.2558,2.8724.5117,7.7916.6745,9.9779-.9652-.628-2.3259-1.4885-2.3259-1.4885,0,0-.5815-9.0941-.5931-9.6872-.0116-.5931.1279-1.6514,1.0583-1.8839M424.9848,318.4266c.0349.9536.4536,8.7568.5233,9.3499-1.0583-.3954-2.6864-.9536-2.6864-.9536l-.4884-9.2453s1.2908.3605,2.6398.8606M418.1701,316.4845c.1047,2.8375.3605,8.9545.3605,8.9545,0,0-.9885-.2791-2.8724-.6978-.0581-2.0468-.3256-8.8498-.3256-8.8498,0,0,1.5583.3024,2.8375.5931M410.3785,315.1936c.1279,2.1514.1977,7.2683.1977,8.6754-1.4304-.1279-2.9771-.2907-2.9771-.2907l-.1861-8.6871s2.2328.1628,2.9538.3024" style="fill: #fff;"/>
        <path d="M375.4674,318.4615c-.0232.9536-.4536,8.7452-.5233,9.3499,1.0583-.3954,2.6864-.9652,2.6864-.9652l.5-9.2453s-1.2908.3605-2.6515.8606" style="fill: #fff;"/>
        <path d="M385.1313,315.903s-1.5467.3024-2.8492.6047c-.1047,2.8375-.3721,8.9545-.3721,8.9545,0,0,1.0001-.2675,2.8724-.6978.0698-2.0468.3373-8.8498.3373-8.8498" style="fill: #fff;"/>
        <path d="M322.438,460.0942c-.9536.2093-3.1748.5582-3.6981.6629-.5233.1047-.7908.4768-.8838,1.0117-.0814.5233-.407,3.733-.4419,4.6401-.0232.8024.4419.7792.8954.721,1.0583-.1395,2.3491-.3373,3.5004-.5582.7094-.1512,1.0001-.4652,1.0234-.8954.0349-.4303.2326-3.5004.3721-4.6285.0814-.6978-.1628-1.0815-.7675-.9536" style="fill: #fff;"/>
        <path d="M400.04,441.0804c41.2955-.3605,99.0697,4.3726,127.8637,21.235,4.3377,2.5352,8.0474,5.5355,10.6292,8.6056l-1.0117-7.3497-3.64-16.1298-3.2678,8.3266.7094,5.5123c-.6164-.4768-1.2559-.9536-1.9653-1.4304l-.5117-4.5936-5.5471-17.2811-4.4307,11.3036.5466,5.1634c-.5815-.2675-1.1862-.5233-1.8142-.7908l-.4884-4.6517-5.1866-16.7578-2.4887,4.5819-3.5934-27.5381c-.7675-4.3842-4.2214-13.3969-15.6181-20.5256-4.7215-2.9422-10.792-5.4658-17.5718-7.7218-15.4553-5.1169-36.0507-8.8731-58.3556-9.9314-11.827,1.0234-20.8745,4.768-27.7939,10.0244-.1047,4.3842-.2907,12.3968-.2907,12.3968,0,0-2.1747.0698-4.0354.1279.0465-.8606.1977-5.2215.2558-9.0708-11.7223,11.2455-16.06,27.0846-17.8044,38.551l-.1628.314c.4303-10.0128.9071-20.6419,1.0466-21.9677.2675-2.5468-3.3027-2.2096-3.3958.3489-.0465,1.5351-.7443,16.6647-1.3025,28.5963l-1.4885,2.8375-.221,4.6517c-1.3258.1279-2.7212.2558-4.1865.4186l.2791-4.7796-7.7218-14.8041-8.3382,16.5019-.3489,5.2099c-1.1862.1744-2.384.3605-3.5586.5466l.3605-5.0471-7.8846-14.2342-8.3266,16.7461-.4768,5.3495c-1.2443.2442-2.4305.4884-3.5586.7094l.4652-5.3378-3.9539-8.9894-1.9886-4.5122-.4419.8606c.4419-4.3261.8257-8.2335,1.0117-10.0709.1977-2.0816,1.6746-3.419,2.5119-3.2446.942-9.2336,1.9537-18.9208,2.8492-27.5265-2.0002.9536-3.8725,1.9653-5.5704,3.012-13.0597,8.1637-15.7111,18.8161-15.8158,22.1305,0-.1628,0-.3256.0116-.5l-3.3376,27.131-2.7561-4.4889-4.6633,16.06-.4768,4.5122c-.6047.2558-1.2211.5-1.8025.7559l.5233-5.0006-4.4307-11.3036-5.5471,17.2927-.5,4.3959c-.6861.4536-1.3374.9303-1.9653,1.4071l.6861-5.2913-3.0934-9.0476-3.8028,16.8508-1.2327,7.3032c2.5701-3.0236,6.0123-5.7565,10.3035-8.2568,28.7941-16.8624,86.3705-21.9793,127.6893-21.6188M490.004,416.5194c.1744,1.6979.5233,5.1983.9187,9.1406l-2.2793,5.175c-.7094-7.1869-1.4769-14.7808-1.6746-16.1647-.3954-2.7794,2.7329-1.2559,3.0352,1.849M482.1426,394.261c.1047,1.2792,1.1862,12.013,1.3141,13.0131-1.7095-.6629-2.9073-1.1862-2.9073-1.1862l-1.2559-12.955s2.0584.8024,2.8492,1.128M474.1417,391.0978c.093,1.2908.9303,12.0479,1.0583,13.048-2.1863-.6978-3.3725-1.1746-3.3725-1.1746l-1.0583-12.8736s2.1398.5698,3.3725,1.0117M468.1293,430.6024l-1.5002,2.7212-3.5353-.7443s-.2675-2.9771-.7908-9.7919c-.3024-3.9307,2.5119-4.6285,2.5119-4.6285,0,0,2.4538,1.4537,2.7794,5.6169.3024,3.826.4419,5.5588.5349,6.8147M462.1752,383.8412c1.0001.5349,2.3026,2.3491,2.6282,5.7565.3837,4.3377.7559,9.443.8838,11.5478-2.4654-.6163-5.0238-1.3141-5.0238-1.3141,0,0-.3954-4.8959-.8489-11.2339-.314-4.5122,2.3491-4.7564,2.3491-4.7564M453.8835,385.6902c.221,3.6516.628,11.8037.7675,12.7922-1.9188-.2675-3.2795-.6047-3.2795-.6047l-.7559-12.8736s1.6746.3721,3.2678.6861M443.1497,383.6783c.1977,2.6398.628,11.7688.7675,12.7573-1.9188-.3024-4.0702-.5931-4.0702-.5931l-.628-12.7805s2.4073.3721,3.9307.628M438.3352,401.8549c.0465,1.4885.721,15.9553,1.2559,27.7474l-3.6516-6.9776c-.4186-9.757-.8722-19.8395-1.0001-21.1304-.2558-2.5468,3.3143-2.2096,3.3958.3489M431.346,382.2014l.5117,12.7457-4.0702-.4303s-.3605-8.8848-.5233-12.7573c2.3026.1977,4.0819.4303,4.0819.4303M417.8096,380.9804c0,4.0354.2326,11.5246.3024,12.6875-1.8607-.0581-4.0354-.1279-4.0354-.1279,0,0-.1977-8.4893-.2907-12.7805,1.5583.0698,3.1399.1628,4.0354.2326M403.4358,425.439c-1.442-.0698-4.9773-.0698-6.431,0-.1512-1.8956.0814-2.7794.2093-8.2684.0814-3.9539,3.012-6.338,3.012-6.338,0,0,2.919,2.3956,3.0236,6.338.1279,5.4774.3373,6.3728.1861,8.2684M396.8652,381.0966c.0581-2.6282,1.9188-4.0237,3.3725-4.2912,1.442.2675,3.1399,1.663,3.198,4.2912.1395,6.1751-.0581,10.9431-.0581,12.0944h-6.4426c0-1.1513-.1977-5.9193-.0698-12.0944" style="fill: #fff;"/>
        <path d="M294.8883,466.4089c-1.4537.4186-2.8027.8489-3.8725,1.1862-.5117.1628-.6745,1.1513-.7326,1.6863-.1047.9187-.2675,2.0816-.3024,2.9887-.0232.8141.3489,1.0233.7675.9071,1.5932-.4303,2.0468-.5233,3.4423-.8838.6978-.1861,1.0815-.7326,1.1164-1.1513.0465-.4419.3605-2.8375.5-3.9656.0814-.6978-.3373-.942-.9187-.7559" style="fill: #fff;"/>
        <path d="M393.0625,314.9145s-2.2561.1628-2.9771.3024c-.1395,2.1514-.1977,7.2683-.1977,8.6871,1.4304-.1279,2.9654-.3024,2.9654-.3024l.2093-8.6871h0Z" style="fill: #fff;"/>
        <path d="M328.4852,402.9713l1.0583-12.8736s-2.1398.5698-3.3725,1.0117c-.093,1.2908-.9187,12.0479-1.0466,13.0364,2.1747-.6978,3.3725-1.1629,3.3725-1.1629" style="fill: #fff;"/>
        <path d="M372.5252,394.5168s.3605-8.8848.5233-12.7573c-2.3142.1977-4.1051.4303-4.1051.4303l-.5,12.7457,4.0702-.4303.0116.0116Z" style="fill: #fff;"/>
        <path d="M335.5209,389.5976c-.3954,4.3377-.7675,9.443-.8838,11.5478,2.4654-.6163,5.0122-1.3141,5.0122-1.3141,0,0,.3954-4.8959.8373-11.2339.314-4.5122-2.3375-4.7564-2.3375-4.7564-1.0117.5349-2.3259,2.3491-2.6282,5.7565" style="fill: #fff;"/>
        <path d="M577.049,511.9723l.6862,3.1166c-1.0582-.4186-2.2096-.8373-3.4306-1.256l-.5117-3.1516-7.0473-18.5021-5.7797,14.8971.5117,3.1748c-.9652-.221-1.9537-.4536-2.9654-.6862l-.5465-3.2445-7.7683-18.4673-6.6287,15.7693c-.9071-5.5704-1.9886-12.5015-3.0701-19.7-1.977-7.9893-6.6054-12.4549-15.5948-17.0717-27.1194-14.6063-79.265-18.2812-112.4201-18.9208-40.6326,1.9072-54.297,20.4907-60.6001,35.8181l-3.3376-6.6752-10.6059,18.8394-.1861,2.7794c-2.477.1279-5.175.2675-8.0126.4419l.2093-3.0701-8.815-17.6648-10.1872,18.8859-.2675,3.1166c-2.5119.186-5.0238.3838-7.5009.5931l.2791-2.8492-8.7336-17.1415-10.0593,18.979-.3373,2.8608c-1.3025.1628-2.5701.3257-3.7679.4884.942-7.5707,3.5934-27.2938,5.2099-40.7373-3.733,1.4071-7.2334,2.9422-10.3849,4.6401-9.0359,4.6401-13.4667,9.0243-15.3739,17.0718-.9536,6.4775-2.0235,13.4551-3.1283,20.0372v-.3954l-6.6985-15.9553-7.7683,18.4673-.5349,3.2213c-1.0117.221-2.0002.4536-2.9654.6862l.5-3.1748-5.7797-14.8738-7.0357,18.4906-.535,3.1864c-1.2211.4419-2.3607.8606-3.4423,1.2908l.721-3.198-3.3492-13.583-6.6287,19.2813c.942,1.5932,1.8956,3.198,2.8608,4.7796,2.8492-1.3374,6.4659-2.5352,11.0594-3.9307,41.8886-12.7922,126.5147-16.5601,172.6713-16.2112h0c46.1565-.3372,130.7827,3.4306,172.6597,16.2228,4.6633,1.4187,8.3265,2.6166,11.199,3.9772,1.0582-1.7327,2.0933-3.4539,3.1283-5.2099l-6.5473-19.0371-3.3376,13.5713-.0117.0231Z" style="fill: #fff;"/>
        <path d="M346.4176,527.0322s4.5936.5465,4.5936-1.9304l.1628-4.8145c0-2.477-.6163-4.047-3.9656-3.9655-3.7795.1047-4.6285,1.0699-4.8959,3.9655l-.1279,4.2447c0,2.477,1.7793,2.698,4.2214,2.5003" style="fill: #fff;"/>
        <path d="M360.454,395.8426l.6396-12.7805s-2.4189.3605-3.9307.628c-.2093,2.6398-.628,11.7572-.7675,12.7573,1.9072-.3024,4.0586-.5931,4.0586-.5931" style="fill: #fff;"/>
        <path d="M348.9527,397.8777l.7443-12.8852s-1.6746.3837-3.2678.6861c-.221,3.6516-.6396,11.8037-.7559,12.7922,1.9072-.2675,3.2795-.6047,3.2795-.6047" style="fill: #fff;"/>
      </g>
    </g>
    <g>
      <path d="M213.8789,131.335c-5.8379,1.0583-10.4082,7.1753-10.4082,13.676,0,3.4539,1.4885,5.2564,3.9656,4.7796,1.6281-.3024,2.6747-1.5583,3.012-2.2561.3838-.7559.5698-1.1164.942-1.849,0,0-.7443.5466-1.4769.2675-.6512-.2442-1.0583-1.3722-1.0583-2.8143,0-5.9426,3.198-8.1521,4.8959-8.4661,2.07-.3721,4.5005,1.3955,4.5005,7.3962,0,6.9659-3.5586,7.6055-5.082,7.8846-.3372.0581-.5.093-.8373.1512-7.1753,1.3025-8.2335,5.7797-8.2335,8.3731v7.78c1.977-.3721,2.9655-.5582,4.9308-.9187v-6.7101c0-2.3491.4768-2.9306,2.7096-3.3376.6745-.1163,1.0117-.1861,1.6862-.3024,5.8611-1.0699,10.8152-7.3264,10.8152-13.6062,0-6.8961-4.2679-11.1641-10.3849-10.0593" style="fill: #fff;"/>
      <path d="M285.1546,136.7543c0,1.9188-.721,2.791-2.5119,3.0004-2.7445.314-4.1168.4652-6.8613.8024-.9536.1047-1.4188.1628-2.3724.2791-.3489.0465-.5233.0581-.8606.1047-1.3141.1628-2.5701-.6978-3.3143-1.4071.5582-1.5234.8489-3.198.8489-4.9075,0-6.0472-3.419-11.9316-9.943-11.0478-4.2214.5698-7.4195,3.7562-7.4195,7.2799,0,4.4191,4.0702,6.117,7.3381,7.5241,1.349.5815,2.6282,1.128,3.4771,1.7677-.5117,1.2443-1.3839,2.1165-3.3958,2.384-3.8493.5233-5.7797.7908-9.629,1.3374-.8722.1279-1.3141.1861-2.1979.3256.1512-.5.2326-1.0117.2326-1.5234,0-1.4885-.6861-3.7446-3.9423-6.0589-.0232-.0116-3.0352-1.9305-9.8267-6.9776-.4536-.3372-.6745-.5-1.128-.8489-.8722,2.1282-1.3141,3.1864-2.1863,5.2681,4.0819,2.7212,6.1286,4.047,10.2105,6.7566,1.8723,1.2908,2.7212,2.791,2.7212,3.64,0,.314-.0698.3256-.2675.3489-6.7682,1.0234-10.1524,1.5583-16.9089,2.6864v5.082c7.8847-1.3141,11.8386-1.9421,19.7348-3.105,1.4304-.2093,2.1514-.3256,3.5702-.5233,3.7097-.535,5.5588-.7908,9.2685-1.3025,2.8259-.3721,5.2913-1.8025,7.1287-4.0237,1.0117,1.1978,3.1864,2.6747,6.3612,2.291.0581,0,.0814,0,.1395-.0116.942-.1163,1.4188-.1744,2.3724-.2791,2.8027-.3489,4.1981-.5117,7.0008-.8257,3.5702-.407,7.3962-2.6631,7.3962-7.6637v-25.0378c-2.0002.2093-3.012.314-5.0122.535v24.0958l-.0232.0349ZM260.1052,126.9624c2.6515-.3605,4.7912,3.4888,4.7912,8.4545,0,.2558,0,.4768-.0116.6861-.721-.4187-1.5118-.7908-2.291-1.1397-2.5003-1.1513-4.861-2.2212-4.861-4.9889,0-1.6514,1.2327-2.8608,2.3724-3.012" style="fill: #fff;"/>
      <path d="M296.7838,143.3248c2.0119-.1977,3.012-.3024,5.0355-.4884v-31.8758c-2.0119.1861-3.0236.2907-5.0355.4884v31.8874" style="fill: #fff;"/>
      <path d="M446.1966,140.685c-1.6979-.0698-3.0585,1.2792-3.0585,3.0352s1.3722,3.2911,3.0585,3.3609c1.6863.0814,3.0003-1.3141,3.0003-3.105s-1.3141-3.2213-3.0003-3.2911" style="fill: #fff;"/>
      <path d="M439.5214,140.3826c-1.663-.0581-3.0585,1.3257-3.0585,3.0585s1.3722,3.326,3.0585,3.3841c1.6746.0581,3.012-1.3955,3.012-3.1748s-1.3722-3.2097-3.012-3.2678" style="fill: #fff;"/>
      <path d="M320.8681,117.4264c-6.0239.4535-10.9083,6.4426-10.9083,13.0597,0,7.3148,4.2796,11.7921,10.9083,11.2688,6.0356-.4652,10.9315-6.3031,10.9315-12.955,0-7.059-4.5005-11.8735-10.9315-11.3734M315.3558,129.8c0-6.7101,3.3841-8.8266,5.3844-8.9894,1.9072-.1512,5.5239,1.4304,5.5239,8.1405,0,6.0821-3.2213,9.0824-5.5239,9.2569-2.1747.1744-5.3844-2.4189-5.3844-8.4196" style="fill: #fff;"/>
      <path d="M324.3336,115.5658c1.6863-.1163,3.012-1.5932,3.012-3.4074s-1.3258-3.1864-3.012-3.0585c-1.6863.1279-3.0469,1.7211-3.0469,3.5004s1.3606,3.0817,3.0469,2.9655" style="fill: #fff;"/>
      <path d="M317.6816,116.0775c1.663-.1395,3.012-1.663,3.012-3.4888s-1.3839-3.1632-3.012-3.0236c-1.6514.1279-3.0585,1.7677-3.0585,3.5237s1.3606,3.1166,3.0585,2.9887" style="fill: #fff;"/>
      <path d="M263.5591,121.7991c1.6863-.221,3.0003-1.7677,3.0003-3.5818s-1.3025-3.105-3.0003-2.8841c-1.6746.221-3.0352,1.8956-3.0352,3.6749s1.3606,3.012,3.0352,2.791" style="fill: #fff;"/>
      <path d="M256.942,122.7061c1.6514-.2326,3.0003-1.849,3.0003-3.6516s-1.3722-3.0934-3.0003-2.8608c-1.6514.2326-3.0352,1.9421-3.0352,3.6865s1.349,3.0469,3.0352,2.8259" style="fill: #fff;"/>
      <path d="M385.2825,130.428c0,1.9305-.7326,2.7212-2.5352,2.7561-3.105.0581-4.6517.1047-7.7451.1744-1.5234.0349-2.2677.0581-3.7795.093-.221,0-.3373,0-.5582.0116-1.6165-2.9422-3.8958-7.0706-4.3493-7.9777-1.4885-2.9073-3.6516-4.1749-5.3378-4.6633,2.8957-3.4306,5.8612-6.7217,9.0243-10.3035,1.3606-1.5467,2.0351-2.3375,3.3958-3.9307-2.5352.0698-3.8028.1047-6.338.1861-.1395.1744-.2093.2558-.3373.4303,0,0-6.6636,8.1754-7.8265,9.536-3.1166,3.5934-2.9422,6.5822-2.9771,6.8845v5.7681c.0465-.5698,1.8956-4.1982,2.9306-5.7797.8606.8024,2.0235,2.1049,2.9422,3.9888,1.349,2.4073,2.0351,3.6051,3.3725,6.0472-5.803.1977-8.6987.3256-14.5017.6047-.4884.0233-.7443.0349-1.2443.0581-.4419.0233-.6512.0349-1.0932.0465-1.2443.0698-3.7446-1.3839-3.8725-2.3724v-13.5946c-2.0002.1047-2.9887.1628-4.9773.2675v23.7935c0,2.6864-2.8143,3.7679-4.2912,3.012-1.1862-.6047-1.7676-.9071-2.9538-1.4885.9536,2.1398,1.442,3.2329,2.4073,5.4774.2326.0233.3489.0465.5815.0814,1.0699.1395,2.0002.093,2.0351.093,4.2447-.2675,7.1985-3.7097,7.1985-8.1056v-3.3957c1.2095.8024,2.7678,1.3839,4.5936,1.2908.1512,0,.221,0,.3721-.0116.5-.0233.7559-.0349,1.2443-.0581,8.2219-.3954,12.3386-.5582,20.5489-.7908,1.5118-.0465,2.2677-.0698,3.7795-.1047,3.1515-.0698,4.7331-.1163,7.873-.1628,3.6051-.0698,7.4311-1.9653,7.4311-6.9543v-25.0378c-2.0235.0233-3.0352.0349-5.0355.0698v24.0842" style="fill: #fff;"/>
      <path d="M415.2046,119.008c1.6863.0233,3.012-1.2908,3.012-3.0352s-1.3258-3.1515-3.012-3.1748c-1.6746-.0233-3.0585,1.4188-3.0585,3.105s1.3955,3.0817,3.0585,3.105" style="fill: #fff;"/>
      <path d="M492.2368,134.1377c0,1.9188-.7326,2.6515-2.5236,2.5119-1.8839-.1628-2.8375-.2326-4.7564-.3954-4.2796-.3372-6.4193-.4884-10.7222-.7792-6.2449-.4303-6.9194-5.0587-6.9194-7.0357,0-4.1168,2.7212-8.6173,6.3496-8.3731,2.5468.1744,4.6052,3.1632,4.6168,3.198.0465-2.1747.0698-3.2562.1163-5.4774-1.3606-.6745-4.1168-1.1513-5.7797-1.1862-6.8497-.1163-10.5942,5.8844-10.5942,11.699,0,2.477.7326,4.7215,2.0816,6.5124-4.5587-.2558-6.838-.3838-11.3967-.6047-.6163-.0233-.9303-.0465-1.5467-.0698-.2326,0-.3489-.0116-.5815-.0349-1.8142-.0698-3.5353-2.0933-3.8609-2.7212v-13.5946c-2.0235-.0814-3.0352-.1163-5.0587-.1977v13.6993c0,1.663-.942,2.4073-2.9654,2.3375-.942-.0349-1.4188-.0581-2.384-.0814-.2675-.0116-.407-.0116-.6861-.0233-.5466-.0233-.8024-.0233-1.3374-.0465-1.7793-.0581-3.419-1.8839-3.826-2.5817v-11.5595c-2.0119-.0581-3.0352-.0814-5.0587-.1279v12.1293c0,7.466-4.989,10.3035-6.5008,11.0013-.3721.1628-1.6979.628-3.3958.6047-6.338-.0698-9.7337-6.5356-9.7337-12.3503v-11.5944h-5.0587v7.5009c0,4.2563.0465,4.5936.1628,5.9891.0581.5931.0814.8838.1279,1.4769,1.3839,7.5706,7.0357,12.8968,14.4436,13.0015,6.5705.0814,12.1061-4.3145,14.1528-10.5245,1.4304,1.256,3.4539,2.0933,5.582,2.1514.1744,0,.2675,0,.4303.0116.2791.0116.407.0233.6861.0349.9303.0349,1.3722.0465,2.291.0698,3.8376.1279,5.8263-.9885,6.8845-2.2096,1.1862,1.2327,3.1864,2.4887,5.8612,2.7212.1744.0116.2675.0116.4419.0233.3605.0233.5349.0349.8954.0465,12.9201.6163,19.3627,1.0234,32.2479,2.0351,1.9653.1512,2.9538.2326,4.9075.3954.2093.0233.314.0233.5233.0465v-.0349c3.4306.1163,6.8845-1.4653,6.8845-6.21v-25.0378c-2.0119-.1861-3.012-.2791-5.0238-.4419v24.0842l.0232.0116Z" style="fill: #fff;"/>
      <path d="M503.8661,142.9992c2.0235.1861,3.0236.2907,5.0355.4884v-31.8874c-2.0002-.2093-3.012-.3024-5.0355-.5v31.899Z" style="fill: #fff;"/>
      <path d="M537.0211,133.0213c.5-9.943,5.2215-11.0943,9.6406-10.5128.6629.0814.9885.1163,1.6513.2093-.5465-1.4769-.8141-2.2212-1.3606-3.7214-.3024-.0349-.4536-.0581-.7559-.1047-13.4434-1.849-13.9784,10.5477-14.3621,19.2348-.0233.4652-.0349.6978-.0581,1.1629,4.5005.5582,6.7566.8489,11.2455,1.4537-1.256,4.0819-5.1401,6.7217-9.5244,6.1635-5.9658-.7326-9.1871-7.1404-9.1871-12.6991v-8.1289c-2.0119-.2326-3.012-.3489-5.0238-.5698v7.8149c0,8.8848,6.1286,16.5717,14.2574,17.5951,9.036,1.128,14.2808-3.5702,15.1645-13.176.0465-.4768.0698-.721.1163-1.2094-4.8029-.6745-7.2102-.9885-12.0247-1.6048.1628-.6861.1977-1.3839.2326-1.9305" style="fill: #fff;"/>
      <path d="M564.0591,133.0562c-1.4187-1.4304-3.012-3.0352-4.7796-4.861-.4186-.4419-.6396-.6629-1.0582-1.1048-.9769,1.7677-1.4537,2.6282-2.4305,4.361,4.0237,3.8958,6.0356,5.8263,10.0477,9.7221,2.9073,2.8259,2.9422,4.6866,2.9422,4.6866,0,.1047-.1279.3024-.1745.3372-6.7682-1.0815-10.1523-1.5816-16.9206-2.5584v5.082c6.745.9652,10.1175,1.4653,16.8508,2.5468,1.2211-1.0815,1.8374-1.6048,3.0469-2.6631.5465-.4768,1.4886-1.5467,1.4886-3.2795,0-3.2678-3.012-6.2682-9.001-12.2689" style="fill: #fff;"/>
      <path d="M597.5397,130.8699c1.6979.314,3.012-.8257,3.012-2.6631s-1.349-3.4888-3.012-3.8028c-1.6397-.3024-3.0236.942-3.0236,2.6631,0,1.8142,1.3606,3.5004,3.0236,3.8028" style="fill: #fff;"/>
      <path d="M595.1325,148.0463c0,1.8956-.7443,2.5701-2.4887,2.2444-.2791-.0465-.4303-.0698-.721-.1279-2.4887-.4535-3.733-.6745-6.2333-1.1164-.314-.0581-.4768-.0814-.8024-.1395-.0233,0-2.7213-.5466-2.7213-3.1748v-24.0958c-2.0002-.3372-3.0004-.5-4.9889-.8373v25.0727c0,6.7333,6.3147,7.8846,8.3847,8.2451.0581,0,.0814.0116.1279.0233,2.5003.4419,3.733.6629,6.2333,1.1164.3372.0581.4768.0814.8024.1512,3.5818.6629,7.3962-.4768,7.3962-5.4657v-16.7461c-2.0118-.3838-2.9887-.5582-5.0006-.942v15.7925h.0116Z" style="fill: #fff;"/>
      <path d="M537.4049,152.5236c-1.6863-.0698-3.0701,1.2792-3.0701,3.0469s1.3839,3.2795,3.0701,3.3492,3.0004-1.3025,3.0004-3.105-1.3141-3.2213-3.0004-3.2911" style="fill: #fff;"/>
      <path d="M530.7413,152.2328c-1.663-.0581-3.0585,1.3257-3.0585,3.0585s1.3839,3.326,3.0585,3.3957c1.6746.0581,3.0236-1.3955,3.0236-3.1748s-1.3839-3.2213-3.0236-3.2678" style="fill: #fff;"/>
    </g>
  </g>
</svg>