<?xml version="1.0" encoding="UTF-8"?>
<svg id="_图层_1" data-name="图层_1" xmlns="http://www.w3.org/2000/svg" version="1.1" viewBox="0 0 800 800">
  <!-- Created by @FCLOGO 2024-12-10 GMT+8 9:49:07 . https://fclogo.top/ -->
<!-- FOR PERSONAL USE ONLY NOT FOR COMMERCIAL USE -->
  <defs>
    <style>
      .st0 {
        fill: #ccc;
      }

      .st1 {
        fill: #73308a;
      }
    </style>
  </defs>
  <path class="st0" d="M348.22,774.3c-.79,0-1.38-.22-1.77-.65-.39-.44-.53-1.03-.41-1.79l.25-1.65c.12-.75.45-1.35.98-1.78.53-.44,1.19-.65,1.98-.65s1.33.2,1.72.6c.39.4.55.94.47,1.62h-1.24c.03-.36-.06-.64-.26-.84-.2-.2-.5-.3-.89-.3-.42,0-.76.12-1.03.35-.27.23-.43.56-.5.99l-.26,1.66c-.07.44,0,.77.19,1,.19.23.5.35.92.35.39,0,.72-.1.98-.3.26-.2.44-.48.52-.85h1.24c-.14.69-.47,1.23-.99,1.63-.52.4-1.16.6-1.92.6ZM352.8,774.19l1-6.29h1.19l-.19,1.19c.34-.87.97-1.3,1.91-1.3.67,0,1.17.21,1.49.62.32.42.43.99.31,1.71l-.07.42h-1.27l.06-.32c.07-.45.01-.8-.17-1.04-.18-.24-.48-.36-.88-.36s-.74.12-1.01.37c-.27.24-.43.59-.5,1.03l-.63,3.97h-1.24ZM361.91,774.3c-.77,0-1.35-.22-1.73-.67s-.52-1.04-.4-1.77l.25-1.65c.08-.49.26-.92.52-1.28s.6-.65,1.01-.85c.41-.2.87-.3,1.38-.3.77,0,1.35.22,1.73.67.39.45.52,1.04.39,1.77l-.17,1.12h-3.85l-.09.53c-.15.95.22,1.43,1.11,1.43.72,0,1.17-.25,1.37-.74h1.22c-.17.53-.5.96-1.01,1.28-.5.32-1.09.47-1.76.47ZM361.23,770.22l-.05.29h2.65s.05-.3.05-.3c.07-.47.01-.82-.17-1.07-.18-.25-.49-.37-.92-.37s-.8.13-1.06.38c-.26.25-.43.61-.51,1.08ZM368.33,774.3c-.63,0-1.1-.21-1.41-.64s-.4-1-.27-1.73l.27-1.77c.11-.73.39-1.31.84-1.74.44-.43.98-.64,1.61-.64.47,0,.83.12,1.09.35.26.24.39.56.38.96h.02l.17-1.2h1.24l-1,6.29h-1.22l.19-1.2h-.02c-.12.41-.35.73-.69.97s-.74.35-1.21.35ZM368.93,773.23c.39,0,.72-.12.98-.36.26-.24.43-.57.5-1.01l.25-1.65c.07-.43,0-.76-.18-1-.19-.24-.47-.36-.86-.36s-.72.12-.98.35c-.26.24-.42.57-.49,1.01l-.25,1.65c-.07.44-.01.78.17,1.01.18.23.47.35.88.35ZM376.35,774.19c-.57,0-.99-.16-1.26-.47-.27-.31-.36-.75-.27-1.32l.54-3.39h-1.74l.17-1.12h1.74l.27-1.72h1.24l-.27,1.72h2.47l-.18,1.12h-2.46l-.54,3.39c-.08.44.1.66.53.66h1.72l-.17,1.12h-1.77ZM382.5,774.3c-.77,0-1.35-.22-1.73-.67s-.52-1.04-.4-1.77l.25-1.65c.08-.49.26-.92.52-1.28s.6-.65,1.01-.85c.41-.2.87-.3,1.38-.3.77,0,1.35.22,1.73.67.39.45.52,1.04.39,1.77l-.17,1.12h-3.85l-.09.53c-.15.95.22,1.43,1.11,1.43.72,0,1.17-.25,1.37-.74h1.22c-.17.53-.5.96-1.01,1.28-.5.32-1.09.47-1.76.47ZM381.83,770.22l-.05.29h2.65s.05-.3.05-.3c.07-.47.01-.82-.17-1.07-.18-.25-.49-.37-.92-.37s-.8.13-1.06.38c-.26.25-.43.61-.51,1.08ZM388.92,774.3c-.63,0-1.1-.21-1.4-.64-.3-.42-.39-1-.28-1.73l.27-1.77c.11-.73.39-1.31.84-1.74.44-.43.98-.64,1.61-.64.47,0,.83.12,1.09.35.26.24.39.56.38.96h.02l.21-1.47.3-1.8h1.24l-1.33,8.35h-1.22l.19-1.2h-.02c-.12.41-.35.73-.69.97s-.74.35-1.21.35ZM389.53,773.23c.39,0,.72-.12.98-.36.26-.24.43-.57.5-1.01l.25-1.65c.08-.43.02-.76-.17-1-.19-.24-.48-.36-.87-.36s-.72.12-.98.35c-.26.24-.42.57-.49,1.01l-.25,1.65c-.08.44-.02.78.16,1.01s.48.35.88.35ZM401.02,774.3c-.47,0-.84-.12-1.1-.35-.26-.23-.39-.56-.38-.97h-.01l-.19,1.2h-1.22l1.33-8.35h1.24l-.29,1.8-.27,1.47h.05c.12-.41.35-.73.69-.97.34-.23.74-.35,1.21-.35.63,0,1.1.21,1.4.64.3.43.39,1.01.28,1.74l-.27,1.77c-.11.73-.39,1.31-.84,1.73-.45.42-.98.64-1.61.64ZM400.77,773.23c.4,0,.72-.12.98-.35.26-.23.42-.57.5-1.01l.25-1.65c.07-.43.01-.77-.17-1.01-.18-.24-.47-.35-.87-.35s-.72.12-.98.36-.43.57-.5,1l-.25,1.65c-.07.44-.01.77.17,1.01.18.24.47.36.87.36ZM405.47,776.25l.17-1.06h1.93c.64,0,1.01-.3,1.1-.9l.1-.67.21-1.19h-.03c-.12.42-.35.74-.68.97-.33.23-.73.34-1.2.34-.63,0-1.09-.2-1.4-.6s-.41-.94-.3-1.63l.58-3.6h1.24l-.56,3.48c-.06.41,0,.73.18.96s.47.34.85.34.72-.12.98-.37c.27-.24.43-.58.49-1.02l.54-3.4h1.24l-1.01,6.41c-.1.6-.37,1.08-.81,1.42-.44.35-1,.52-1.67.52h-1.95ZM417.79,770.09h3.22l.54-1.85h-5.47l-1.71,6.44h2.15l.59-2.1h3.03l.44-1.71h-3.03l.24-.78ZM424.23,772.92c-.59,0-1.02-.39-1.02-1.12,0-.88.63-1.76,1.61-1.76.49,0,.88.24,1.02.78l1.95-.83c-.29-1.17-1.27-1.9-2.64-1.9-2.78,0-4.15,2.15-4.15,3.9s1.27,2.83,3.07,2.83c1.37,0,2.34-.59,2.98-1.42l-1.51-1.17c-.39.44-.83.68-1.32.68ZM430.91,768.23h-2.15l-1.76,6.44h5.12l.49-1.85h-2.93l1.22-4.59ZM439.75,771.01c0-1.66-1.32-2.93-3.22-2.93-2.2,0-3.81,1.81-3.81,3.81,0,1.66,1.32,2.93,3.22,2.93,2.2,0,3.81-1.81,3.81-3.81ZM434.92,771.7c0-.83.59-1.71,1.51-1.71.78,0,1.17.54,1.17,1.22,0,.83-.59,1.71-1.51,1.71-.78,0-1.17-.54-1.17-1.22ZM443.21,772.23h1.07l-.2.68c-.15.05-.34.1-.59.1-.68,0-1.27-.39-1.27-1.22,0-1.02.73-1.9,1.95-1.9.59,0,1.12.24,1.51.59l1.37-1.37c-.44-.54-1.51-1.07-2.73-1.07-2.59,0-4.29,1.76-4.29,3.86s1.61,2.88,3.22,2.88c.93,0,1.85-.29,2.49-.68l.93-3.32h-3.12l-.34,1.46ZM450.78,768.08c-2.2,0-3.81,1.81-3.81,3.81,0,1.66,1.32,2.93,3.22,2.93,2.2,0,3.81-1.81,3.81-3.81,0-1.66-1.32-2.93-3.22-2.93ZM450.34,772.92c-.78,0-1.17-.54-1.17-1.22,0-.83.59-1.71,1.51-1.71.78,0,1.17.54,1.17,1.22,0,.83-.59,1.71-1.51,1.71ZM437.94,767.5c-.05.29.1.49.44.49s.54-.2.63-.49c.05-.24-.1-.49-.44-.49s-.59.24-.63.49ZM432.13,765.5c-.44,0-.73.24-.78.59s.1.59.54.59.73-.24.78-.59c.1-.34-.1-.59-.54-.59ZM433.01,767.3c-.1.54.15.88.83.88.63,0,1.07-.39,1.17-.88s-.15-.88-.83-.88c-.68,0-1.07.39-1.17.88ZM439.6,777.55l-2.44-1.81h-1.51l4.25,3.17,1.61-3.17h-.98l-.93,1.81ZM425.84,767.16l-2-1.46,23.13-2.78-2.15,4.25h1.02l2.68-5.32-26.99,3.22,2.78,2.1h1.51ZM338.72,785.79l.61-3.83h2.32l-.08.52h-1.76l-.18,1.14h1.63l-.08.52h-1.62l-.26,1.64h-.57ZM342.97,785.84c-.36,0-.62-.1-.8-.3-.17-.2-.23-.47-.18-.82l.27-1.7c.06-.34.2-.61.44-.82.24-.2.54-.3.89-.3s.62.1.8.3c.17.2.24.47.18.81l-.27,1.71c-.06.34-.2.62-.44.82-.24.2-.54.3-.9.3ZM343.05,785.33c.19,0,.35-.05.47-.16.12-.11.19-.26.23-.46l.27-1.7c.03-.2,0-.35-.08-.46-.08-.11-.22-.16-.41-.16s-.35.05-.46.16c-.12.1-.19.26-.22.46l-.27,1.7c-.03.2,0,.35.08.46s.22.16.41.16ZM345,785.79l.61-3.83h1.2c.24,0,.44.05.6.14.16.09.28.22.36.39s.09.37.05.59c-.04.26-.14.48-.3.67-.16.19-.37.32-.6.39l.54,1.64h-.62l-.48-1.57h-.54l-.25,1.57h-.57ZM345.89,783.71h.64c.19,0,.35-.06.48-.17.13-.11.21-.26.24-.45.03-.19,0-.35-.09-.46-.09-.11-.24-.17-.43-.17h-.64l-.2,1.25ZM349.54,785.79l.61-3.83h1.25c.37,0,.65.1.84.31.19.21.26.49.2.84-.04.23-.12.44-.25.61s-.29.31-.49.4c-.2.09-.42.14-.66.14h-.69l-.24,1.52h-.57ZM350.43,783.75h.69c.19,0,.36-.06.49-.18.14-.12.22-.27.25-.47s0-.35-.1-.47-.25-.18-.44-.18h-.69l-.21,1.29ZM352.75,785.79l.61-3.83h2.25l-.08.5h-1.7l-.17,1.09h1.51l-.08.5h-1.51l-.19,1.24h1.69l-.08.5h-2.25ZM355.84,785.79l.61-3.83h1.2c.24,0,.44.05.6.14.16.09.28.22.36.39s.09.37.05.59c-.04.26-.14.48-.3.67-.16.19-.37.32-.6.39l.54,1.64h-.62l-.48-1.57h-.54l-.25,1.57h-.57ZM356.74,783.71h.64c.19,0,.35-.06.48-.17.13-.11.21-.26.24-.45.03-.19,0-.35-.09-.46-.09-.11-.24-.17-.43-.17h-.64l-.2,1.25ZM360.13,785.84c-.39,0-.67-.1-.87-.29-.19-.19-.26-.45-.22-.78h.57c-.03.17.01.31.12.41.11.1.27.15.48.15.2,0,.37-.05.5-.15.13-.1.21-.23.24-.4.02-.15,0-.28-.06-.39-.06-.11-.16-.18-.29-.22l-.46-.14c-.27-.08-.46-.22-.59-.41-.13-.19-.17-.42-.13-.68.04-.21.11-.39.23-.55s.27-.28.46-.37.4-.13.64-.13c.35,0,.62.1.8.29.18.19.25.44.2.76h-.57c.03-.17,0-.3-.09-.4-.09-.1-.23-.14-.42-.14s-.34.04-.46.13c-.12.09-.19.21-.21.38-.02.15,0,.28.05.39s.16.18.29.22l.47.15c.26.08.46.22.58.41.12.19.17.42.12.69-.04.22-.12.41-.24.57-.13.16-.29.29-.49.38-.2.09-.42.13-.66.13ZM363.27,785.84c-.36,0-.62-.1-.8-.3-.17-.2-.23-.47-.18-.82l.27-1.7c.06-.34.2-.61.44-.82.24-.2.54-.3.89-.3s.62.1.8.3c.17.2.24.47.18.81l-.27,1.71c-.06.34-.2.62-.44.82-.24.2-.54.3-.9.3ZM363.34,785.33c.19,0,.35-.05.47-.16.12-.11.19-.26.23-.46l.27-1.7c.03-.2,0-.35-.08-.46-.08-.11-.22-.16-.41-.16s-.35.05-.46.16c-.12.1-.19.26-.22.46l-.27,1.7c-.03.2,0,.35.08.46s.22.16.41.16ZM365.28,785.79l.61-3.83h.71l.62,3.19c0-.1.02-.22.03-.36.01-.14.03-.29.04-.44.02-.15.04-.29.06-.41l.31-1.98h.52l-.61,3.83h-.71l-.61-3.19c0,.09-.02.21-.03.34s-.03.28-.04.42c-.02.15-.04.28-.06.41l-.31,2.01h-.53ZM368.23,785.79l1.59-3.83h.75l.37,3.83h-.56l-.07-.97h-1.09l-.39.97h-.59ZM369.39,784.34h.87l-.09-1.1c-.02-.2-.03-.37-.04-.51,0-.14-.01-.24-.01-.3-.02.06-.05.16-.1.3s-.11.31-.19.5l-.44,1.11ZM371.72,785.79l.61-3.83h.57l-.52,3.31h1.67l-.08.52h-2.25ZM376.68,785.84c-.37,0-.63-.1-.8-.3-.17-.2-.22-.47-.17-.82l.44-2.76h.57l-.44,2.76c-.03.2,0,.35.07.46.08.11.21.17.41.17s.35-.06.46-.17c.12-.11.19-.27.22-.46l.44-2.76h.57l-.44,2.76c-.06.35-.2.62-.43.82-.23.2-.53.3-.9.3ZM379.84,785.84c-.39,0-.67-.1-.87-.29-.19-.19-.26-.45-.22-.78h.57c-.03.17.01.31.12.41.11.1.27.15.48.15.2,0,.37-.05.5-.15.13-.1.21-.23.24-.4.02-.15,0-.28-.06-.39-.06-.11-.16-.18-.29-.22l-.46-.14c-.27-.08-.46-.22-.59-.41-.13-.19-.17-.42-.13-.68.04-.21.11-.39.23-.55s.27-.28.46-.37.4-.13.64-.13c.35,0,.62.1.8.29.18.19.25.44.2.76h-.57c.03-.17,0-.3-.09-.4-.09-.1-.23-.14-.42-.14s-.34.04-.46.13c-.12.09-.19.21-.21.38-.02.15,0,.28.05.39s.16.18.29.22l.47.15c.26.08.46.22.58.41.12.19.17.42.12.69-.04.22-.12.41-.24.57-.13.16-.29.29-.49.38-.2.09-.42.13-.66.13ZM381.91,785.79l.61-3.83h2.25l-.08.5h-1.7l-.17,1.09h1.51l-.08.5h-1.51l-.19,1.24h1.69l-.08.5h-2.25ZM386.94,785.84c-.36,0-.62-.1-.8-.3-.17-.2-.23-.47-.18-.82l.27-1.7c.06-.34.2-.61.44-.82.24-.2.54-.3.89-.3s.62.1.8.3c.17.2.24.47.18.81l-.27,1.71c-.06.34-.2.62-.44.82-.24.2-.54.3-.9.3ZM387.02,785.33c.19,0,.35-.05.47-.16.12-.11.19-.26.23-.46l.27-1.7c.03-.2,0-.35-.08-.46-.08-.11-.22-.16-.41-.16s-.35.05-.46.16c-.12.1-.19.26-.22.46l-.27,1.7c-.03.2,0,.35.08.46s.22.16.41.16ZM388.95,785.79l.61-3.83h.71l.62,3.19c0-.1.02-.22.03-.36.01-.14.03-.29.04-.44.02-.15.04-.29.06-.41l.31-1.98h.52l-.61,3.83h-.71l-.61-3.19c0,.09-.02.21-.03.34s-.03.28-.04.42c-.02.15-.04.28-.06.41l-.31,2.01h-.53ZM392.25,785.79l.61-3.83h.57l-.52,3.31h1.67l-.08.52h-2.25ZM396.12,785.79l.22-1.41-.75-2.42h.58l.45,1.45c.03.09.05.18.07.27.02.08.03.15.03.19.02-.04.05-.1.09-.19.04-.08.09-.17.14-.27l.9-1.45h.6l-1.53,2.42-.22,1.41h-.57ZM399.22,785.79l.61-3.83h.71l.62,3.19c0-.1.02-.22.03-.36.01-.14.03-.29.04-.44.02-.15.04-.29.06-.41l.31-1.98h.52l-.61,3.83h-.71l-.61-3.19c0,.09-.02.21-.03.34s-.03.28-.04.42c-.02.15-.04.28-.06.41l-.31,2.01h-.53ZM403.51,785.84c-.36,0-.62-.1-.8-.3-.18-.2-.23-.47-.18-.82l.27-1.7c.06-.34.2-.61.44-.82.24-.2.54-.3.89-.3s.62.1.8.3c.17.2.24.47.18.81l-.27,1.71c-.06.34-.2.62-.44.82-.24.2-.54.3-.89.3ZM403.58,785.33c.19,0,.35-.05.47-.16.12-.11.19-.26.23-.46l.27-1.7c.03-.2,0-.35-.08-.46-.08-.11-.22-.16-.41-.16s-.35.05-.46.16c-.12.1-.19.26-.22.46l-.27,1.7c-.03.2,0,.35.08.46.08.11.22.16.41.16ZM406.38,785.79l.52-3.31h-1.02l.08-.52h2.62l-.08.52h-1.03l-.52,3.31h-.57ZM409.52,785.79l.61-3.83h2.32l-.08.52h-1.76l-.18,1.14h1.63l-.08.52h-1.62l-.26,1.64h-.57ZM413.77,785.84c-.36,0-.62-.1-.8-.3-.18-.2-.23-.47-.18-.82l.27-1.7c.06-.34.2-.61.44-.82.24-.2.54-.3.89-.3s.62.1.8.3c.17.2.24.47.18.81l-.27,1.71c-.06.34-.2.62-.44.82-.24.2-.54.3-.89.3ZM413.85,785.33c.19,0,.35-.05.47-.16.12-.11.19-.26.23-.46l.27-1.7c.03-.2,0-.35-.08-.46-.08-.11-.22-.16-.41-.16s-.35.05-.46.16c-.12.1-.19.26-.22.46l-.27,1.7c-.03.2,0,.35.08.46.08.11.22.16.41.16ZM415.8,785.79l.61-3.83h1.2c.24,0,.44.05.6.14.16.09.28.22.36.39s.09.37.05.59c-.04.26-.14.48-.3.67-.16.19-.37.32-.6.39l.54,1.64h-.62l-.48-1.57h-.54l-.25,1.57h-.57ZM416.69,783.71h.64c.19,0,.35-.06.48-.17.13-.11.21-.26.24-.45.03-.19,0-.35-.09-.46-.09-.11-.24-.17-.43-.17h-.64l-.2,1.25ZM420.91,785.84c-.36,0-.63-.1-.81-.3-.18-.2-.24-.47-.19-.82l.27-1.7c.06-.35.21-.62.45-.82s.55-.3.91-.3.63.1.81.3c.18.2.24.47.19.82h-.57c.03-.2,0-.35-.09-.46-.09-.11-.23-.16-.42-.16s-.35.05-.47.16c-.12.1-.2.26-.23.45l-.27,1.71c-.03.2,0,.35.09.46.09.11.23.16.42.16s.35-.05.47-.16.2-.26.23-.46h.57c-.03.23-.11.43-.24.59s-.28.3-.47.39c-.19.09-.4.14-.64.14ZM424.03,785.84c-.36,0-.62-.1-.8-.3-.18-.2-.23-.47-.18-.82l.27-1.7c.06-.34.2-.61.44-.82.24-.2.54-.3.89-.3s.62.1.8.3c.17.2.24.47.18.81l-.27,1.71c-.06.34-.2.62-.44.82-.24.2-.54.3-.89.3ZM424.11,785.33c.19,0,.35-.05.47-.16.12-.11.19-.26.23-.46l.27-1.7c.03-.2,0-.35-.08-.46-.08-.11-.22-.16-.41-.16s-.35.05-.46.16c-.12.1-.19.26-.22.46l-.27,1.7c-.03.2,0,.35.08.46.08.11.22.16.41.16ZM425.97,785.79l.61-3.83h.69l.18,1.23c.02.12.04.23.05.33.01.1.02.18.03.24.02-.06.05-.14.09-.24.04-.11.09-.22.15-.34l.57-1.22h.71l-.61,3.83h-.54l.2-1.29c.02-.17.06-.35.1-.55.04-.2.09-.4.14-.61s.1-.4.14-.59c.05-.19.09-.35.13-.49l-.86,1.86h-.55l-.28-1.86c0,.14-.01.29-.02.47s-.02.37-.04.57c-.02.2-.04.41-.06.61-.02.2-.05.4-.08.57l-.2,1.29h-.54ZM429.11,785.79l.61-3.83h.69l.18,1.23c.02.12.04.23.05.33.01.1.02.18.03.24.02-.06.05-.14.09-.24.04-.11.09-.22.15-.34l.57-1.22h.71l-.61,3.83h-.54l.2-1.29c.02-.17.06-.35.1-.55.04-.2.09-.4.14-.61s.1-.4.14-.59c.05-.19.09-.35.13-.49l-.86,1.86h-.55l-.28-1.86c0,.14-.01.29-.02.47s-.02.37-.04.57c-.02.2-.04.41-.06.61-.02.2-.05.4-.08.57l-.2,1.29h-.54ZM432.41,785.79l.61-3.83h2.25l-.08.5h-1.7l-.17,1.09h1.51l-.08.5h-1.51l-.19,1.24h1.69l-.08.5h-2.25ZM435.51,785.79l.61-3.83h1.2c.24,0,.44.05.6.14.16.09.28.22.36.39s.09.37.05.59c-.04.26-.14.48-.3.67-.16.19-.37.32-.6.39l.54,1.64h-.62l-.48-1.57h-.54l-.25,1.57h-.57ZM436.4,783.71h.64c.19,0,.35-.06.48-.17.13-.11.21-.26.24-.45.03-.19,0-.35-.09-.46-.09-.11-.24-.17-.43-.17h-.64l-.2,1.25ZM439.8,785.84c-.36,0-.63-.1-.81-.3-.18-.2-.24-.47-.19-.82l.27-1.7c.06-.35.21-.62.45-.82s.55-.3.91-.3.63.1.81.3c.18.2.24.47.19.82h-.57c.03-.2,0-.35-.09-.46-.09-.11-.23-.16-.42-.16s-.35.05-.47.16c-.12.1-.2.26-.23.45l-.27,1.71c-.03.2,0,.35.09.46.09.11.23.16.42.16s.35-.05.47-.16.2-.26.23-.46h.57c-.03.23-.11.43-.24.59s-.28.3-.47.39c-.19.09-.4.14-.64.14ZM441.88,785.79l.08-.5h.78l.45-2.82h-.78l.08-.5h2.13l-.08.5h-.78l-.45,2.82h.78l-.08.5h-2.13ZM444.74,785.79l1.59-3.83h.75l.37,3.83h-.56l-.07-.97h-1.09l-.39.97h-.59ZM445.9,784.34h.87l-.09-1.1c-.02-.2-.03-.37-.04-.51,0-.14-.01-.24-.01-.3-.02.06-.05.16-.1.3s-.11.31-.19.5l-.44,1.11ZM448.24,785.79l.61-3.83h.57l-.52,3.31h1.67l-.08.52h-2.25ZM453.19,785.84c-.37,0-.63-.1-.8-.3-.17-.2-.22-.47-.17-.82l.44-2.76h.57l-.44,2.76c-.03.2,0,.35.07.46.08.11.21.17.41.17s.35-.06.46-.17c.12-.11.19-.27.22-.46l.44-2.76h.57l-.44,2.76c-.06.35-.2.62-.43.82-.23.2-.53.3-.9.3ZM456.36,785.84c-.39,0-.67-.1-.87-.29-.19-.19-.26-.45-.22-.78h.57c-.03.17.01.31.12.41.11.1.27.15.48.15.2,0,.37-.05.5-.15s.21-.23.24-.4c.02-.15,0-.28-.06-.39s-.16-.18-.29-.22l-.46-.14c-.27-.08-.46-.22-.59-.41-.13-.19-.17-.42-.13-.68.04-.21.11-.39.23-.55s.27-.28.46-.37c.19-.09.4-.13.64-.13.35,0,.62.1.8.29.18.19.25.44.2.76h-.57c.03-.17,0-.3-.09-.4-.09-.1-.23-.14-.42-.14s-.34.04-.46.13c-.12.09-.19.21-.21.38-.02.15,0,.28.05.39s.16.18.29.22l.47.15c.26.08.46.22.58.41.12.19.17.42.12.69-.04.22-.12.41-.24.57-.13.16-.29.29-.49.38-.2.09-.42.13-.66.13ZM458.42,785.79l.61-3.83h2.25l-.08.5h-1.7l-.17,1.09h1.51l-.08.5h-1.51l-.19,1.24h1.69l-.08.5h-2.25Z"/>
  <path class="st1" d="M266.41,268.92c-3.88-2.91-8.94-4.45-14.61-4.45s-10.65,1.54-14.53,4.45c-5.58,4.15-8.91,11.08-8.91,18.56v33.21c0,.53.43.95.96.95h11.83c.54,0,.96-.42.96-.95v-15.44h19.45v15.44c0,.53.42.95.96.95h11.83c.53,0,.95-.42.95-.95v-33.21c0-7.48-3.33-14.42-8.9-18.56M261.56,293.2h-19.45v-5.04c0-3.79,1.05-6.72,3.14-8.69,1.7-1.55,3.78-2.26,6.55-2.26s4.97.76,6.63,2.26c2.09,1.98,3.14,4.9,3.14,8.7v5.04ZM318.89,309.59c.54,0,.95.42.95.95v10.15c0,.53-.41.96-.95.96h-35.57c-.54,0-.96-.43-.96-.96v-54.5c0-.54.41-.95.96-.95h11.83c.54,0,.96.41.96.95v43.4h22.78M373.33,268.92c-3.89-2.91-8.94-4.45-14.62-4.45s-10.65,1.54-14.53,4.45c-5.57,4.15-8.9,11.08-8.9,18.56v33.21c0,.53.42.95.95.95h11.83c.55,0,.97-.42.97-.95v-15.44h19.45v15.44c0,.53.41.95.95.95h11.83c.54,0,.96-.42.96-.95v-33.21c0-7.48-3.34-14.42-8.9-18.56M368.49,293.2h-19.45v-5.04c0-3.79,1.04-6.72,3.13-8.69,1.7-1.55,3.78-2.26,6.55-2.26s4.97.76,6.63,2.26c2.09,1.98,3.14,4.9,3.14,8.7v5.04ZM402.13,265.23c.54,0,.96.42.96.96v54.5c0,.53-.42.96-.96.96h-11.83c-.53,0-.95-.43-.95-.96v-54.5c0-.54.42-.96.95-.96h11.83M459.88,265.23c.54,0,.96.42.96.96v54.5c0,.53-.43.96-.96.96h-10.31c-1.02,0-1.52-.2-2.26-1.3l-24.32-32.52v32.87c0,.53-.43.96-.96.96h-11.16c-.54,0-.96-.43-.96-.96v-54.5c0-.54.42-.96.96-.96h10.39c.92,0,1.39.18,2.26,1.29l24.24,32.53v-32.87c0-.54.42-.96.96-.96h11.15M480.53,321.65c-.54,0-.95-.42-.95-.96v-54.49c0-.53.41-.96.95-.96h38.95c.53,0,.96.43.96.96v10.14c0,.53-.43.96-.96.96h-26.16v9.91h22.52c.54,0,.96.42.96.96v10.13c0,.54-.42.97-.96.97h-22.52v21.42c0,.54-.43.96-.96.96h-11.83M553.58,322.49c-18.96,0-30.28-10.88-30.28-29.09,0-16.49,13.2-28.93,30.7-28.93,8.53,0,13.78,2.09,16.96,3.66.38.19.71.49.35,1.2l-4.8,10.03c-.36.66-.81.46-1.14.36-3.26-1.52-6.95-2.94-11.81-2.94-8.89,0-15.86,7.3-15.86,16.62s6.7,16.69,15.93,16.69c4.31,0,8.22-.95,12.33-3.02.26-.12.45-.18.59-.18.07,0,.22,0,.43.42l4.81,10.19c.24.61.14.88-.4,1.14-3.79,1.79-9.22,3.83-17.84,3.83M370.58,667.49h-10.8c-.27,0-.44-.18-.44-.44v-3.07c0-.26.18-.44.44-.44h3.22v-16.67l-3.7.55c-.25.03-.45-.22-.45-.48v-2.78c0-.26.23-.37.48-.44l4.32-1.4c.1-.03.33-.11.48-.11h2.85c.26,0,.44.19.44.44v20.88h3.15c.26,0,.48.19.48.44v3.07c0,.26-.22.44-.48.44M383.81,667.82c-3.96,0-5.57-1.28-6.8-2.13-.19-.14-.23-.44-.08-.62l2.12-2.71c.15-.19.44-.23.63-.08,1.43,1.14,2.67,1.46,4.14,1.46,3.23,0,4.88-3,5.39-6.88-1.25,1.02-3.01,1.75-4.98,1.75-4.59,0-7.87-3.08-7.81-8.46.08-4.58,3.59-7.95,8.47-7.95,5.27,0,8.86,3.11,8.86,11.62,0,5.5-1.47,13.99-9.93,13.99M384.88,646.27c-2.53,0-4.07,1.87-4.11,3.89-.03,3.18,1.62,4.4,3.45,4.4,1.54,0,3.48-.4,5.05-2.79-.32-3.84-1.75-5.5-4.39-5.5M408.43,667.82c-5.27,0-8.86-3.11-8.86-11.61,0-5.5,1.46-14,9.93-14,3.98,0,5.56,1.28,6.81,2.13.22.14.22.44.08.62l-2.13,2.72c-.14.18-.43.21-.62.07-1.44-1.14-2.67-1.47-4.14-1.47-3.23,0-4.84,3-5.39,6.89,1.25-1.02,3-1.76,5.01-1.76,4.55,0,7.84,3.08,7.77,8.46-.07,4.58-3.59,7.95-8.47,7.95M409.13,655.47c-1.54,0-3.52.4-5.09,2.79.33,3.84,1.77,5.49,4.4,5.49s4.07-1.87,4.11-3.88c.04-3.18-1.61-4.4-3.41-4.4M432.59,667.82c-5.79,0-9.16-2.67-9.16-6.82s2.75-5.78,4.81-6.73c-1.58-.8-3.82-2.27-3.82-5.71,0-3.63,3.08-6.34,8.14-6.34s8.17,2.72,8.17,6.34c0,3.11-1.69,4.61-3.84,5.78,3.43,1.84,4.75,3.34,4.75,6.67,0,4.15-3.3,6.82-9.05,6.82M432.51,656.41c-2.39,1-4.69,2.43-4.69,4.58,0,.78.4,2.75,4.76,2.75s4.69-1.94,4.69-2.75c0-2.01-2.2-3.29-4.76-4.58M432.55,646.27c-3.48,0-3.81,1.76-3.81,2.28,0,1.57,2.05,2.78,3.95,3.69,2.1-.95,3.63-1.9,3.63-3.69,0-.41-.34-2.28-3.77-2.28M239.15,218.82c5.28-.95,8.97,2.73,8.97,8.7,0,5.43-4.28,10.84-9.35,11.76-.58.1-.88.16-1.46.26-1.93.35-2.34.85-2.34,2.89v5.8c-1.7.31-2.56.47-4.26.8v-6.73c0-2.25.91-6.11,7.11-7.24.29-.05.43-.08.72-.13,1.32-.24,4.4-.8,4.4-6.81,0-5.19-2.1-6.72-3.89-6.39-1.47.27-4.23,2.18-4.23,7.31,0,1.25.35,2.21.91,2.43.63.24,1.27-.23,1.27-.23-.32.64-.48.95-.81,1.6-.3.6-1.2,1.68-2.61,1.95-2.14.41-3.43-1.14-3.43-4.13,0-5.62,3.95-10.91,9-11.82M300.75,223.51c0,1.66-.63,2.42-2.17,2.59-2.37.27-3.56.4-5.93.69-.82.09-1.23.14-2.05.24-.3.04-.45.05-.74.09-1.13.14-2.22-.6-2.86-1.21.48-1.32.74-2.76.74-4.24,0-5.23-2.96-10.31-8.59-9.55-3.65.49-6.41,3.25-6.41,6.29,0,3.82,3.52,5.29,6.34,6.51,1.16.5,2.27.98,3,1.53-.44,1.08-1.19,1.83-2.94,2.06-3.33.45-4.99.68-8.32,1.16-.76.11-1.14.16-1.9.28.13-.43.2-.87.2-1.32,0-1.28-.59-3.24-3.41-5.24-.02-.01-2.62-1.66-8.49-6.03-.4-.29-.59-.43-.98-.73-.75,1.84-1.13,2.75-1.89,4.55,3.53,2.35,5.29,3.49,8.83,5.84,1.62,1.11,2.35,2.41,2.35,3.15,0,.27-.06.28-.23.3-5.85.88-8.77,1.35-14.61,2.33v4.39c6.82-1.13,10.23-1.67,17.05-2.68,1.24-.18,1.86-.28,3.09-.46,3.21-.46,4.81-.68,8.01-1.12,2.44-.33,4.58-1.56,6.16-3.48.87,1.03,2.76,2.31,5.49,1.98.05,0,.07,0,.12-.01.82-.1,1.23-.15,2.05-.24,2.42-.3,3.63-.44,6.05-.71,3.09-.35,6.39-2.3,6.39-6.62v-21.63c-1.73.18-2.6.28-4.34.46v20.82ZM279.1,215.05c2.29-.31,4.14,3.01,4.14,7.31,0,.22,0,.41-.01.59-.63-.37-1.31-.68-1.98-.98-2.16-1-4.2-1.92-4.2-4.31,0-1.43,1.06-2.47,2.05-2.6M310.79,229.18v-27.55c1.74-.17,2.61-.26,4.35-.42v27.55c-1.74.17-2.61.25-4.35.43M439.9,226.9c1.46.06,2.6,1.3,2.6,2.85s-1.13,2.75-2.6,2.68c-1.46-.06-2.65-1.38-2.65-2.9s1.18-2.68,2.65-2.62M434.14,226.64c1.42.05,2.61,1.33,2.61,2.83s-1.16,2.79-2.61,2.75c-1.45-.06-2.64-1.38-2.64-2.93s1.21-2.7,2.64-2.65M331.6,206.8c-5.2.4-9.43,5.57-9.43,11.28,0,6.33,3.7,10.19,9.43,9.74,5.21-.4,9.45-5.45,9.45-11.19,0-6.1-3.89-10.26-9.45-9.83M326.84,217.5c0-5.8,2.92-7.63,4.66-7.76,1.65-.13,4.77,1.24,4.77,7.04,0,5.25-2.78,7.84-4.77,8-1.88.15-4.66-2.09-4.66-7.27M334.6,205.2c-1.46.11-2.64-1.02-2.64-2.56s1.18-2.92,2.64-3.03c1.46-.11,2.6,1.07,2.6,2.64s-1.14,2.84-2.6,2.94M328.85,205.64c-1.46.11-2.64-1.02-2.64-2.58s1.22-2.94,2.64-3.05c1.41-.12,2.61,1.1,2.61,2.62s-1.17,2.89-2.61,3.01M282.09,210.58c-1.45.19-2.62-.86-2.62-2.41s1.18-2.98,2.62-3.18c1.46-.19,2.59.92,2.59,2.49s-1.13,2.91-2.59,3.1M276.36,211.36c-1.46.2-2.63-.88-2.63-2.44s1.2-2.99,2.63-3.19c1.41-.2,2.6.96,2.6,2.48s-1.17,2.95-2.6,3.15M387.26,218.04v-20.81c1.74-.03,2.61-.04,4.35-.06v21.64c0,4.31-3.31,5.95-6.42,6.01-2.72.05-4.08.08-6.81.15-1.31.03-1.96.05-3.27.09-7.1.21-10.66.34-17.76.69-.43.02-.64.03-1.07.05-.13,0-.19,0-.33.01-1.57.08-2.92-.41-3.97-1.11v2.94c0,3.8-2.56,6.77-6.22,7-.03,0-.83.04-1.76-.08-.2-.04-.31-.05-.5-.07-.83-1.94-1.25-2.88-2.08-4.73,1.02.51,1.53.77,2.55,1.29,1.27.65,3.71-.29,3.71-2.61v-20.56c1.72-.1,2.58-.15,4.31-.23v11.75c.11.85,2.27,2.11,3.35,2.05.38-.02.56-.02.94-.04.43-.02.65-.03,1.07-.05,5.01-.24,7.51-.35,12.53-.52-1.16-2.11-1.75-3.14-2.91-5.23-.79-1.63-1.8-2.76-2.55-3.45-.9,1.36-2.49,4.51-2.53,5v-4.98c.03-.27-.12-2.85,2.57-5.95,1-1.17,6.76-8.24,6.76-8.24.11-.15.18-.22.29-.37,2.19-.07,3.29-.1,5.48-.16-1.18,1.38-1.76,2.06-2.93,3.4-2.73,3.1-5.3,5.94-7.8,8.9,1.46.43,3.32,1.51,4.61,4.03.39.79,2.36,4.35,3.75,6.89.19,0,.29,0,.48-.01,1.31-.04,1.96-.05,3.27-.08,2.67-.07,4.01-.1,6.69-.15,1.56-.03,2.19-.71,2.19-2.38M413.12,208.17c-1.44-.02-2.65-1.23-2.65-2.68s1.2-2.71,2.65-2.68c1.46.02,2.61,1.24,2.61,2.74s-1.15,2.65-2.61,2.62M479.68,200.43c1.74.15,2.61.23,4.34.39v21.64c0,4.1-2.98,5.46-5.95,5.37v.03c-.18-.01-.28-.02-.46-.04-1.69-.14-2.54-.21-4.24-.34-11.13-.88-16.7-1.23-27.87-1.76-.31-.01-.47-.02-.78-.04-.16,0-.24,0-.39-.02-2.32-.21-4.05-1.29-5.07-2.35-.91,1.05-2.63,2.02-5.94,1.91-.79-.03-1.18-.04-1.98-.07-.23,0-.35-.01-.59-.03-.15,0-.23,0-.38-.01-1.84-.05-3.59-.78-4.83-1.86-1.76,5.37-6.54,9.17-12.23,9.1-6.4-.09-11.29-4.68-12.48-11.23-.04-.51-.06-.77-.11-1.28-.11-1.21-.14-1.5-.14-5.17v-6.49c1.74,0,2.62,0,4.37,0v10.02c0,5.03,2.94,10.61,8.41,10.67,1.46.02,2.61-.38,2.93-.52,1.31-.6,5.62-3.05,5.62-9.5v-10.48c1.74.04,2.62.06,4.37.11v9.99c.35.61,1.77,2.19,3.31,2.23.46.01.68.02,1.15.04.24,0,.36,0,.59.02.83.02,1.24.04,2.06.07,1.75.06,2.57-.58,2.57-2.02v-11.84c1.74.07,2.62.1,4.37.17v11.74c.29.54,1.77,2.29,3.34,2.35.2.01.3.02.5.03.53.02.8.04,1.33.07,3.94.19,5.91.3,9.85.52-1.17-1.54-1.8-3.49-1.8-5.63,0-5.03,3.24-10.2,9.16-10.11,1.44.02,3.82.44,4.99,1.02-.04,1.92-.06,2.85-.1,4.73-.01-.04-1.79-2.62-3.99-2.77-3.13-.21-5.49,3.68-5.49,7.23,0,1.71.59,5.7,5.98,6.08,3.71.25,5.56.38,9.26.68,1.66.13,2.48.2,4.11.34,1.56.12,2.18-.51,2.18-2.17v-20.82ZM489.74,201.35c1.74.17,2.61.25,4.35.43v27.55c-1.73-.17-2.6-.27-4.35-.43v-27.56ZM518.39,220.28c-.03.47-.07,1.07-.2,1.66,4.15.53,6.24.81,10.39,1.39-.03.42-.06.63-.1,1.04-.77,8.3-5.3,12.35-13.1,11.38-7.02-.88-12.32-7.52-12.32-15.2v-6.75c1.74.19,2.6.29,4.34.49v7.02c0,4.8,2.78,10.34,7.94,10.97,3.78.48,7.14-1.8,8.23-5.33-3.88-.52-5.83-.77-9.72-1.26.02-.4.04-.6.05-1,.33-7.51.8-18.23,12.42-16.63.26.04.39.05.65.09.47,1.3.71,1.94,1.18,3.21-.57-.08-.86-.11-1.43-.18-3.81-.5-7.9.49-8.33,9.09M541.75,220.3c5.18,5.19,7.78,7.78,7.78,10.6,0,1.5-.81,2.43-1.28,2.84-1.05.91-1.58,1.36-2.64,2.3-5.82-.93-8.73-1.36-14.56-2.2v-4.4c5.85.84,8.78,1.28,14.63,2.21.04-.02.15-.19.15-.29,0,0-.02-1.6-2.54-4.05-3.47-3.37-5.21-5.03-8.68-8.4.84-1.49,1.26-2.24,2.1-3.76.36.38.55.57.91.95,1.53,1.58,2.91,2.97,4.13,4.2M570.68,218.42c-1.44-.27-2.61-1.72-2.61-3.29s1.19-2.56,2.61-2.3c1.44.27,2.6,1.77,2.6,3.29s-1.13,2.58-2.6,2.3M568.6,219.61c1.73.33,2.58.48,4.32.81v14.47c0,4.31-3.3,5.29-6.39,4.72-.28-.05-.41-.08-.69-.13-2.15-.4-3.23-.58-5.38-.97-.03,0-.06-.01-.11-.02-1.79-.31-7.25-1.31-7.25-7.12v-21.67c1.72.29,2.59.43,4.31.73v20.82c0,2.27,2.33,2.74,2.35,2.74.28.05.42.08.7.12,2.16.38,3.23.57,5.38.97.25.04.38.07.62.11,1.51.28,2.15-.31,2.15-1.94v-13.65ZM518.72,237.14c1.46.07,2.6,1.3,2.6,2.85s-1.14,2.75-2.6,2.68c-1.46-.06-2.65-1.37-2.65-2.9s1.19-2.69,2.65-2.63M512.96,236.88c1.42.05,2.61,1.33,2.61,2.83s-1.17,2.79-2.61,2.74c-1.45-.06-2.64-1.39-2.64-2.93s1.2-2.69,2.64-2.64M342.48,50l10.06,30.9h32.48l-26.26,19.1,10.03,30.93-26.3-19.09-26.27,19.09,10.03-30.93-26.3-19.1h32.51l10.03-30.9h0ZM455.42,50l10.06,30.9h32.48l-26.26,19.1,10.03,30.93-26.3-19.09-26.27,19.09,10.03-30.93-26.3-19.1h32.51l10.03-30.9h0ZM400,750l-1.97-1.15c-126.01-73.71-321.86-244.02-217.69-556.5l.53-1.58,1.51-.71c70.9-33.51,158.14-38.06,217.59-38.57,59.52.51,146.76,5.07,217.66,38.57l1.51.71.53,1.58c104.17,312.48-91.67,482.79-217.69,556.5l-1.97,1.15ZM187.21,196.4c-100.72,304.64,88.97,471.56,212.79,544.56,123.82-73,313.5-239.92,212.79-544.56-69.25-32.21-154.53-36.62-212.82-37.12-58.23.5-143.51,4.91-212.75,37.12ZM616.93,273.75c0-.12-.02-.23-.03-.34h-.04c-4.19-19.83-9.72-40.35-16.83-61.64-72.44-33.83-168.62-34.71-200.19-35.68-31.57.97-127.75,1.85-200.19,35.68-104.11,311.61,120.72,465.9,200.19,511.06,74.02-42.06,274.05-178.8,217.09-449.08ZM399.83,716.09c-80.45-46.41-238.52-166.52-219.66-385.56.78,5.54,1.76,11.17,2.93,16.76,12.9,64.91,53.4,118.3,108.07,148.89l1.81-5.66c-40.83-23.13-73.44-59.38-91.86-103.73l.08-.03c-.74-1.72-1.46-3.49-2.17-5.29-.11-.3-.23-.59-.34-.89-.66-1.71-1.3-3.44-1.91-5.21-.21-.6-.41-1.22-.61-1.82-1.11-3.29-2.17-6.65-3.15-10.08-.13-.45-.26-.89-.38-1.34-.5-1.8-.99-3.62-1.45-5.44-1.38-5.51-2.59-11.09-3.55-16.77h-.09c-3.38-18.55-4.45-36.4-2.24-48.14h-.05c4.19-24.15,10.45-49.37,19.14-75.74,67.25-30.54,156.3-32.99,190.06-33.92l5.56-.16,5.2.16c33.76.93,122.81,3.39,190.06,33.92,6.67,20.25,11.88,39.8,15.86,58.73,1.88,23.39,2.15,40.58.41,56.47-8.59,67.84-48.68,125.01-104.42,157.69l1.84,5.69c45.79-26.5,81.44-69.06,98.7-120.46l.2.06c6.38-19.86,9.65-35.95,10.48-55.26,25.57,226.41-136.65,349.94-218.52,397.16ZM505.27,606.08l-73.16,4.8-6.47-4.8h79.63ZM487.93,642.99c-1.51,1.41-3.01,2.79-4.52,4.15l-42.78-30.32,47.3,26.17ZM426.61,601.58l-6.79-3.65h96.79l-90,3.65ZM298.59,563.93c-1.63.04-2.81.38-2.81-1.75l.49-4.19c.3-1.9.55-3.42,3.12-3.5,2.27-.07,3,1.36,2.85,3.2l-.49,4.19c0,2.14-3.17,2.05-3.17,2.05M490.17,449.13c.01.11,0,.08-.01,0h.01M395.18,356.73l5.02,8.72h.01l4.99-8.72,4.52,9.5s.06,0,.1.01l4.67-7.84,4.4,9.97s.02.01.05.02l3.95-6.59,4.29,10.9,2.45-5.03,2.8,11.71.06.7c-.34-.61-.72-1.2-1.17-1.77-4.85-6.18-16.72-10.38-31.17-10.62-14.43.24-26.26,4.48-31.1,10.66-.55.69-1.01,1.43-1.38,2.19.03-.32.06-.65.08-.94v-.11s3.02-11.84,3.02-11.84l2.45,5.03h0s4.28-10.91,4.28-10.91l3.97,6.62s.01,0,.02,0l4.41-10,4.68,7.86s.04,0,.07-.01l4.53-9.52ZM432.48,380.08h0s0,0,0,0ZM330.64,456.24s-1.02.45-2.5,1.03c.11-.87,1.05-10.14,1.13-11.25.68-.28,2.46-.98,2.46-.98l-1.09,11.2M412.31,545.22c.14,13.87.3,32.97.33,34.1-6.81.18-12.78.2-12.78.2v-.03c-.63,0-6.32-.02-12.75-.2.03-1.04.18-17.43.31-30.85-38.44,10.28-49.3,39.3-50.35,42.98h198.06c7.56-9.81,14.79-20.14,21.57-31.03-21.42-10.41-82.32-14.73-144.38-15.18M414.88,586.71h-28.93v-3.81h28.93v3.81ZM446.38,560.77s-3.96.47-3.96-1.67l-.15-4.15c0-2.15.53-3.5,3.43-3.42,3.27.08,3.99.91,4.22,3.42l.11,3.65c0,2.15-1.54,2.35-3.65,2.17M501.48,563.95s-3.17.1-3.17-2.05l-.49-4.19c-.15-1.83.59-3.27,2.86-3.2,2.57.09,2.82,1.6,3.13,3.5l.49,4.19c0,2.15-1.18,1.79-2.81,1.75M243.28,560.35c5.19-2.51,12.65-4.66,21.89-6.49l.25-.05c-1.32,8.73-3.69,22.86-5.18,31.49-5.9-7.98-11.56-16.28-16.96-24.94M284.32,597.96h96.8l-6.79,3.65-90-3.65ZM317.02,647.52c-1.53-1.38-3.07-2.78-4.59-4.2l47.87-26.5-43.28,30.69M368.82,610.89l-73.15-4.8h79.63l-6.47,4.8ZM420.67,610.06h-40.77v-4h40.77v4ZM383.03,597.94h34.87v3.2h-34.87v-3.2ZM313.5,432.22l-2.89,12.79-.57,4.29c.53-1.12,1.18-2.22,1.96-3.3,12.75-17.87,58.29-25.86,88.15-25.35l.03.03.02-.03c29.86-.51,75.41,7.48,88.15,25.35.69.95,1.31,2.12,1.79,3.1-.05-.37-.24-2.02-.24-2.02v-.03s-.29-2.1-.29-2.1l-2.89-12.79-1.64,5.76.4,2.98c-.34-.34-.7-.7-1.08-1.06l-.27-2.69-3.27-11.38-2.44,6.92.35,2.73c-.52-.36-1.07-.71-1.64-1.06l-.25-2.58-3.71-11.19-2.97,7.62.25,2.53c-.6-.28-1.23-.57-1.85-.85l-.23-2.41-4.03-11.3-4.57,8,.21,2.39c-.6-.2-1.21-.4-1.84-.6l-.2-2.32-4.71-11.2-5.25,8.31.16,2.48c-.72-.16-1.48-.32-2.22-.49l-.16-2.45-5.63-11.2-4.55,6.56c-.53-5.83-1.34-15.07-2.04-23.13h7.04s-.12-2.72-1.89-3.54c-1.15-.52-3.82-.94-5.56-1.16-.01-.19-.02-.35-.05-.54,0,.04.02.06.02.06-.24-2.21-.12-3.41-1.51-5.53-5.11-7.75-17.75-10.09-25.58-10.74-1.73.97-3.25,2.31-4.59,3.95.51.44,1.01,1.12,1.02,2.17.05,4.65.09,6.79.02,7.48-.86-.02-2.08-.02-2.26-.02v.02s-1.37,0-2.32.02c-.04-.46-.04-1.63-.02-3.78-3.34,7.23-4.94,16.65-5.74,24.63l-7.1,10.61-.04,2.08c-.93.09-1.87.19-2.82.3l.06-2.23-5.94-9.78-2.55,4.05c.8-12.19,2.15-32.32,2.3-34.81.05-.05.13-.09.19-.14-3.05,1.54-5.71,3.56-7.47,6.23-1.41,2.13-1.47,3.36-1.7,5.56l-.03.38c-1.73.22-4.61.65-5.82,1.2-1.76.82-1.88,3.54-1.88,3.54h7.28c-.69,8.09-1.47,17.22-1.98,23.18l-4.56-6.56-5.63,11.19-.17,2.54c-.74.16-1.5.31-2.2.46l.16-2.55-5.26-8.29-4.72,11.19-.19,2.27c-.63.2-1.24.39-1.84.59l.21-2.33-4.57-7.99-4.04,11.3-.22,2.28c-.64.28-1.25.56-1.85.85l.24-2.4-2.97-7.62-3.71,11.19-.24,2.4c-.57.35-1.11.7-1.63,1.05l.33-2.54-2.43-6.93-3.27,11.38-.25,2.5c-.39.35-.73.69-1.06,1.04l.35-2.77-1.62-5.76ZM426.4,380.55c.5.4.94,1.77,1.02,2.66.23,2.48.45,6.73.58,8.63-.83-.54-2.01-1.28-2.01-1.28,0,0-.5-7.86-.52-8.37-.01-.51.11-1.43.92-1.63M421.57,380.49c.03.83.39,7.57.46,8.08-.91-.34-2.32-.83-2.32-.83l-.42-7.99s1.11.31,2.28.74M415.69,378.81c.09,2.45.32,7.74.32,7.74,0,0-.86-.24-2.49-.61-.05-1.77-.28-7.65-.28-7.65,0,0,1.35.26,2.45.51M408.95,377.7c.11,1.86.17,6.28.17,7.5-1.23-.11-2.57-.25-2.57-.25l-.16-7.51s1.93.14,2.56.26M378.79,380.52c1.17-.43,2.29-.75,2.29-.75l-.43,7.99s-1.4.49-2.32.83c.06-.52.43-7.25.46-8.08M387.13,378.31s-.23,5.88-.3,7.65c-1.62.38-2.48.61-2.48.61,0,0,.23-5.29.32-7.74,1.12-.26,2.46-.52,2.46-.52M332.96,502.91c.52-.11.73.22.66.82-.12.98-.29,3.63-.32,4-.02.37-.28.65-.89.78-1,.2-2.11.36-3.03.48-.38.04-.79.07-.77-.63.04-.79.31-3.56.38-4.01.08-.46.31-.78.76-.87.45-.08,2.37-.39,3.2-.57M400.02,486.48c35.69-.31,85.61,3.78,110.49,18.35,3.75,2.2,6.95,4.78,9.19,7.43l-.88-6.35-3.15-13.94-2.82,7.19.62,4.76c-.53-.42-1.08-.83-1.69-1.24l-.45-3.97-4.79-14.93-3.83,9.77.47,4.47c-.5-.23-1.02-.45-1.56-.68l-.42-4.02-4.48-14.48-2.15,3.96-3.1-23.8c-.66-3.78-3.64-11.58-13.5-17.74-4.08-2.55-9.33-4.73-15.18-6.67-13.35-4.43-31.15-7.66-50.43-8.58-10.22.88-18.04,4.12-24.02,8.66-.09,3.79-.25,10.71-.25,10.71,0,0-1.88.06-3.48.11.04-.74.17-4.51.22-7.84-10.13,9.72-13.88,23.41-15.39,33.32l-.14.28c.37-8.65.78-17.84.9-18.98.23-2.2-2.86-1.9-2.94.31-.04,1.32-.64,14.4-1.13,24.71l-1.28,2.46-.19,4.02c-1.15.11-2.35.22-3.62.36l.24-4.13-6.67-12.79-7.21,14.26-.3,4.51c-1.02.15-2.06.31-3.07.47l.31-4.36-6.81-12.3-7.19,14.47-.41,4.63c-1.07.21-2.1.42-3.08.61l.4-4.61-3.42-7.77-1.72-3.9-.39.74c.38-3.74.71-7.12.87-8.7.17-1.8,1.45-2.96,2.17-2.8.82-7.98,1.69-16.35,2.46-23.78-1.73.82-3.35,1.69-4.81,2.61-11.29,7.05-13.58,16.26-13.66,19.13,0-.14,0-.29.01-.43l-2.89,23.44-2.38-3.88-4.03,13.88-.41,3.9c-.52.22-1.05.43-1.56.65l.46-4.32-3.83-9.77-4.79,14.94-.43,3.8c-.59.39-1.15.81-1.69,1.21l.6-4.58-2.67-7.82-3.29,14.56-1.07,6.31c2.22-2.61,5.19-4.97,8.9-7.14,24.89-14.57,74.64-19,110.33-18.68M477.75,465.25c.15,1.47.45,4.49.79,7.9l-1.97,4.48c-.61-6.21-1.28-12.77-1.45-13.97-.34-2.4,2.36-1.08,2.62,1.59M470.96,446.02c.09,1.11,1.03,10.38,1.13,11.25-1.47-.58-2.51-1.03-2.51-1.03l-1.08-11.2s1.77.69,2.46.98M464.05,443.29c.08,1.11.8,10.41.92,11.27-1.89-.61-2.92-1.02-2.92-1.02l-.91-11.13s1.85.49,2.91.87M458.86,477.42l-1.3,2.36-3.05-.65s-.23-2.57-.68-8.46c-.26-3.4,2.17-4,2.17-4,0,0,2.12,1.26,2.4,4.85.27,3.31.38,4.8.46,5.89M453.71,437.01c.87.46,1.99,2.03,2.27,4.97.33,3.75.65,8.15.77,9.98-2.13-.53-4.34-1.14-4.34-1.14,0,0-.35-4.23-.73-9.7-.27-3.9,2.03-4.11,2.03-4.11M446.54,438.61c.19,3.16.54,10.2.66,11.06-1.66-.23-2.84-.52-2.84-.52l-.65-11.12s1.44.33,2.82.59M437.27,436.87c.17,2.29.54,10.17.66,11.02-1.66-.26-3.51-.52-3.51-.52l-.54-11.05s2.08.32,3.39.54M433.11,452.58c.04,1.29.62,13.79,1.09,23.98l-3.15-6.02c-.37-8.43-.76-17.15-.87-18.26-.22-2.2,2.86-1.9,2.93.31M427.07,435.6l.44,11.01-3.52-.37s-.31-7.68-.45-11.02c1.99.17,3.52.37,3.52.37M415.38,434.54c0,3.48.2,9.96.26,10.96-1.6-.05-3.49-.11-3.49-.11,0,0-.17-7.34-.25-11.05,1.34.06,2.72.14,3.48.2M402.96,472.96c-1.25-.06-4.3-.06-5.56,0-.13-1.64.07-2.4.18-7.14.07-3.41,2.6-5.48,2.6-5.48,0,0,2.53,2.07,2.61,5.48.11,4.74.3,5.5.16,7.14M397.27,434.65c.05-2.28,1.66-3.48,2.92-3.71,1.25.23,2.71,1.44,2.76,3.71.12,5.33-.05,9.46-.05,10.45h-5.57c0-.99-.17-5.12-.06-10.45M309.15,508.36c.51-.16.87.05.8.65-.12.97-.39,3.05-.43,3.43-.02.36-.36.83-.96,1-1.21.31-1.6.4-2.97.77-.37.1-.69-.08-.67-.78.04-.79.18-1.79.26-2.58.04-.46.19-1.32.63-1.46.92-.29,2.08-.66,3.34-1.03M393.8,384.96s-1.33.15-2.56.26c0-1.23.05-5.65.18-7.51.62-.11,2.57-.26,2.57-.26l-.18,7.51ZM338.19,453.55s-1.03.41-2.91,1.01c.11-.85.82-10.15.91-11.27,1.07-.38,2.92-.87,2.92-.87l-.91,11.13M372.72,446.61l.43-11.01s1.54-.21,3.54-.37c-.15,3.34-.46,11.02-.46,11.02l-3.52.37ZM344.26,441.99c.27-2.94,1.4-4.51,2.27-4.97,0,0,2.29.22,2.02,4.11-.38,5.48-.72,9.7-.72,9.7,0,0-2.21.6-4.34,1.14.11-1.83.42-6.23.77-9.98M555.86,536.01l5.65,16.45c-.89,1.51-1.79,3-2.7,4.5-2.48-1.17-5.65-2.2-9.67-3.43-36.19-11.05-109.3-14.32-149.19-14.01h0c-39.89-.31-113.02,2.95-149.21,14-3.97,1.21-7.1,2.24-9.56,3.4-.84-1.36-1.66-2.75-2.48-4.13l5.73-16.66,2.89,11.73-.62,2.76c.93-.37,1.92-.74,2.97-1.12l.46-2.76,6.08-15.98,5,12.86-.43,2.74c.83-.2,1.68-.4,2.56-.59l.47-2.79,6.72-15.96,5.8,13.79v.34c.94-5.68,1.86-11.72,2.69-17.31,1.65-6.95,5.47-10.75,13.29-14.75,2.72-1.46,5.74-2.79,8.97-4.01-1.4,11.61-3.69,28.66-4.5,35.2,1.04-.14,2.13-.28,3.26-.42l.29-2.47,8.7-16.4,7.54,14.81-.24,2.46c2.14-.18,4.31-.35,6.49-.51l.23-2.69,8.8-16.32,7.62,15.27-.18,2.65c2.45-.15,4.78-.27,6.92-.38l.17-2.4,9.16-16.28,2.88,5.77c5.44-13.24,17.25-29.3,52.36-30.95,28.66.55,73.71,3.72,97.15,16.35,7.77,3.99,11.77,7.85,13.48,14.75.94,6.22,1.87,12.21,2.66,17.02l5.73-13.62,6.72,15.96.47,2.8c.87.2,1.73.4,2.56.59l-.44-2.74,5-12.87,6.09,15.98.44,2.72c1.05.35,2.04.72,2.96,1.08l-.59-2.7,2.89-11.73ZM353.68,560.74c-2.11.17-3.65-.02-3.65-2.16l.11-3.67c.23-2.5.96-3.33,4.23-3.42,2.9-.07,3.43,1.28,3.43,3.42l-.15,4.16c0,2.14-3.97,1.67-3.97,1.67M365.81,447.38s-1.86.26-3.51.52c.11-.86.48-8.74.66-11.02,1.31-.23,3.4-.54,3.4-.54l-.55,11.04M355.87,449.14s-1.19.29-2.84.52c.11-.85.47-7.9.66-11.06,1.37-.26,2.82-.6,2.82-.6l-.64,11.13"/>
</svg>