<?xml version="1.0" encoding="UTF-8"?>
<svg data-name="图层_1" xmlns="http://www.w3.org/2000/svg" version="1.1" viewBox="0 0 800 800">
  <!-- Created by @FCLOGO 2025-1-9 GMT+8 10:42:11 . https://fclogo.top/ -->
<!-- FOR PERSONAL USE ONLY NOT FOR COMMERCIAL USE -->
  <path d="M348.2194,774.301c-.786,0-1.3752-.2173-1.7682-.6519-.393-.4352-.5284-1.03-.406-1.7856l.2518-1.6478c.122-.755.4501-1.3504.9841-1.785.5339-.4352,1.1939-.6525,1.9799-.6525.7553,0,1.3293.1987,1.7223.5954.3927.3967.551.9381.4747,1.6248h-1.2358c.0304-.3589-.0553-.637-.2573-.8357-.2024-.1981-.4979-.2974-.8869-.2974-.4197,0-.763.1167-1.03.3489-.2673.2328-.4349.5631-.5035.9903l-.2632,1.659c-.0686.4352-.0056.7686.1887,1.0015.1946.2328.5017.3489.9214.3489.389,0,.7152-.0987.9785-.2974.2632-.1981.4365-.4805.5206-.8469h1.2358c-.1372.6867-.4672,1.2306-.9897,1.631-.5228.4005-1.1616.6004-1.9169.6004ZM352.7967,774.1868l.9956-6.2943h1.1902l-.1946,1.1902c.3359-.8698.9729-1.3044,1.9113-1.3044.6712,0,1.1691.208,1.4932.624.3244.416.4293.9859.3148,1.7105l-.0686.4234h-1.2703l.0571-.3204c.0689-.4501.0115-.7953-.1714-1.0356-.1832-.2403-.4771-.3607-.8813-.3607-.4045,0-.7401.1223-1.007.3663-.2673.2446-.4349.588-.5035,1.03l-.6296,3.9711h-1.2358ZM361.9058,774.301c-.7705,0-1.3463-.2229-1.7279-.6693s-.515-1.0356-.4005-1.7682l.2518-1.6478c.0838-.488.2573-.9152.5206-1.2815s.6007-.6507,1.0129-.8524c.4119-.2024.8732-.3036,1.3845-.3036.7705,0,1.3485.2235,1.7338.6693.3852.4464.5169,1.0356.3949,1.7682l-.1717,1.1213h-3.845l-.0916.5265c-.1527.9536.2173,1.4305,1.1098,1.4305.7171,0,1.175-.2477,1.3734-.7438h1.2247c-.1679.5339-.5035.9599-1.007,1.2759-.5038.3166-1.0912.475-1.7626.475ZM361.2306,770.2157l-.0456.2862,2.6548-.0118.0459-.2856c.0686-.4656.0133-.822-.1661-1.0704-.1791-.2477-.4861-.3719-.9211-.3719-.4427,0-.7953.126-1.0586.3775-.2632.2521-.4331.6109-.5094,1.076ZM368.3258,774.301c-.6333,0-1.1027-.2117-1.4078-.6351s-.3967-1.0008-.2744-1.7335l.2744-1.7738c.1145-.7326.393-1.3119.8357-1.7397.4424-.4272.98-.6407,1.6133-.6407.4653,0,.8298.1186,1.093.3545.2632.2365.3908.5575.3834.9617h.023l.1717-1.202h1.2358l-.9956,6.2943h-1.2247l.1946-1.2014h-.023c-.122.4116-.3511.7339-.6867.9667s-.7401.3489-1.2129.3489ZM368.9324,773.2257c.389,0,.7152-.1186.9782-.3551.2632-.2359.4293-.5718.4979-1.007l.2518-1.6478c.0686-.4272.0096-.7612-.1773-1.0015-.1872-.2403-.475-.3601-.8642-.3601-.3967,0-.7249.118-.9841.3545-.2595.2365-.4234.5724-.492,1.007l-.2518,1.6478c-.0686.4427-.0133.7804.1658,1.0133.1794.2328.4712.3489.8757.3489ZM376.3477,774.1868c-.5721,0-.9937-.1565-1.2644-.4694-.271-.3123-.3607-.7512-.2691-1.3156l.538-3.3874h-1.7394l.1714-1.1219h1.7397l.2747-1.7161h1.2358l-.2747,1.7161h2.472l-.1832,1.1219h-2.4605l-.5377,3.3874c-.0764.4421.099.6637.5262.6637h1.7167l-.1717,1.1213h-1.7738ZM382.5042,774.301c-.7705,0-1.3463-.2229-1.7279-.6693s-.515-1.0356-.4005-1.7682l.2518-1.6478c.0838-.488.2573-.9152.5206-1.2815s.6007-.6507,1.0129-.8524c.4119-.2024.8732-.3036,1.3845-.3036.7705,0,1.3485.2235,1.7338.6693.3852.4464.5169,1.0356.3949,1.7682l-.1717,1.1213h-3.845l-.0916.5265c-.1527.9536.2173,1.4305,1.1098,1.4305.7171,0,1.175-.2477,1.3734-.7438h1.2247c-.1679.5339-.5035.9599-1.007,1.2759-.5038.3166-1.0912.475-1.7626.475ZM381.829,770.2157l-.0456.2862,2.6548-.0118.0459-.2856c.0686-.4656.0133-.822-.1661-1.0704-.1791-.2477-.4861-.3719-.9211-.3719-.4427,0-.7953.126-1.0586.3775-.2632.2521-.4331.6109-.5094,1.076ZM388.9243,774.301c-.6333,0-1.1008-.2117-1.4019-.6351-.3014-.4234-.3949-1.0008-.2803-1.7335l.2744-1.7738c.1145-.7326.393-1.3119.8357-1.7397.4424-.4272.98-.6407,1.6133-.6407.4653,0,.8298.1186,1.093.3545.2632.2365.3908.5575.3834.9617h.023l.2058-1.4652.2977-1.7962h1.2358l-1.3274,8.3537h-1.2247l.1946-1.2014h-.023c-.122.4116-.3511.7339-.6867.9667s-.7401.3489-1.2129.3489ZM389.5309,773.2257c.389,0,.7152-.1186.9782-.3551.2632-.2359.4293-.5718.4979-1.007l.2518-1.6478c.0761-.4272.0189-.7612-.1717-1.0015-.1909-.2403-.4805-.3601-.8698-.3601-.3967,0-.7249.118-.9841.3545-.2595.2365-.4234.5724-.492,1.007l-.2518,1.6478c-.0764.4427-.023.7804.1602,1.0133s.4768.3489.8813.3489ZM401.0175,774.301c-.4731,0-.8394-.1161-1.0986-.3489-.2595-.2328-.3852-.5551-.3775-.9667h-.0115l-.1946,1.2014h-1.2243l1.3274-8.3537h1.2358l-.2862,1.7962-.2744,1.4652h.0456c.122-.4123.353-.7345.6923-.9673.3396-.2322.7419-.3489,1.2076-.3489.633,0,1.1002.2136,1.4016.6407.3014.4278.3949,1.007.2806,1.7397l-.2747,1.7738c-.1145.7326-.3949,1.31-.8413,1.7335-.4461.4234-.9822.6351-1.6077.6351ZM400.7657,773.2257c.3967,0,.7227-.1161.9785-.3489.2555-.2328.4216-.5706.4976-1.0133l.2518-1.6478c.0689-.4346.0115-.7705-.1714-1.007-.1832-.2365-.4734-.3545-.8698-.3545-.3893,0-.7152.1198-.9785.3601s-.429.5743-.4979,1.0015l-.2518,1.6478c-.0686.4352-.0112.7711.1717,1.007.1832.2365.4731.3551.8698.3551ZM405.4694,776.2468l.1717-1.0642h1.934c.6407,0,1.007-.3017,1.0986-.9046l.1028-.6749.2061-1.1902h-.0345c-.122.4197-.3471.7438-.6752.9729-.3281.2285-.7286.3433-1.2014.3433-.6258,0-1.093-.2005-1.4019-.601s-.4104-.9443-.3033-1.631l.5836-3.6047h1.2358l-.5606,3.4793c-.0612.4116,0,.732.1832.9611s.4653.3433.8469.3433c.389,0,.7168-.1217.9841-.3663.267-.244.4309-.5836.492-1.0182l.538-3.3992h1.2358l-1.007,6.4086c-.0993.6029-.37,1.0778-.8124,1.4249-.4427.3471-.9996.5209-1.6707.5209h-1.9455ZM417.787,770.0853h3.221l.5368-1.8545h-5.4659l-1.7081,6.4419h2.1473l.5856-2.0985h3.0257l.4392-1.7081h-3.0257l.244-.7808ZM424.229,772.9158c-.5856,0-1.0249-.3904-1.0249-1.1225,0-.8784.6344-1.7569,1.6105-1.7569.488,0,.8784.244,1.0248.7808l1.9521-.8296c-.2928-1.1713-1.2689-1.9033-2.6353-1.9033-2.7817,0-4.1482,2.1473-4.1482,3.9042s1.2689,2.8305,3.0746,2.8305c1.3665,0,2.3425-.5856,2.9769-1.4153l-1.5129-1.1713c-.3904.4392-.8296.6832-1.3177.6832ZM430.9149,768.2308h-2.1473l-1.7569,6.4419h5.1242l.488-1.8545h-2.9281l1.2201-4.5874ZM439.7481,771.0125c0-1.6593-1.3177-2.9281-3.221-2.9281-2.1961,0-3.8066,1.8057-3.8066,3.8066,0,1.6593,1.3177,2.9281,3.221,2.9281,2.1961,0,3.8066-1.8057,3.8066-3.8066ZM434.9167,771.6957c0-.8296.5856-1.7081,1.5129-1.7081.7808,0,1.1713.5368,1.1713,1.2201,0,.8296-.5856,1.7081-1.5129,1.7081-.7808,0-1.1713-.5368-1.1713-1.2201ZM443.2131,772.2326h1.0737l-.1952.6832c-.1464.0488-.3416.0976-.5856.0976-.6832,0-1.2689-.3904-1.2689-1.2201,0-1.0249.732-1.9033,1.9521-1.9033.5856,0,1.1225.244,1.5129.5856l1.3665-1.3665c-.4392-.5368-1.5129-1.0737-2.7329-1.0737-2.5865,0-4.2946,1.7569-4.2946,3.8554,0,2.0497,1.6105,2.8793,3.221,2.8793.9272,0,1.8545-.2928,2.4889-.6832l.9272-3.3186h-3.1234l-.3416,1.4641ZM450.7775,768.0844c-2.1961,0-3.8066,1.8057-3.8066,3.8066,0,1.6593,1.3177,2.9281,3.221,2.9281,2.1961,0,3.8066-1.8057,3.8066-3.8066,0-1.6593-1.3177-2.9281-3.221-2.9281ZM450.3382,772.9158c-.7808,0-1.1713-.5368-1.1713-1.2201,0-.8296.5856-1.7081,1.5129-1.7081.7808,0,1.1713.5368,1.1713,1.2201,0,.8296-.5856,1.7081-1.5129,1.7081ZM437.9424,767.4987c-.0488.2928.0976.488.4392.488s.5368-.1952.6344-.488c.0488-.244-.0976-.488-.4392-.488s-.5856.244-.6344.488ZM432.1349,765.4978c-.4392,0-.732.244-.7808.5856s.0976.5856.5368.5856.732-.244.7808-.5856c.0976-.3416-.0976-.5856-.5368-.5856ZM433.0134,767.3035c-.0976.5368.1464.8784.8296.8784.6344,0,1.0737-.3904,1.1713-.8784s-.1464-.8784-.8296-.8784c-.6832,0-1.0737.3904-1.1713.8784ZM439.6017,777.552l-2.4401-1.8057h-1.5129l4.2458,3.1722,1.6105-3.1722h-.976l-.9272,1.8057ZM425.8394,767.1571l-2.0009-1.4641,23.1323-2.7817-2.1473,4.2458h1.0248l2.6841-5.3195-26.9877,3.221,2.7817,2.0985h1.5129ZM338.7186,785.7853l.6088-3.8315h2.32l-.084.5194h-1.7636l-.1837,1.1445h1.6272l-.084.5248h-1.6166l-.2573,1.6428h-.5668ZM342.97,785.8377c-.3568,0-.6228-.1005-.7978-.3019-.175-.201-.2345-.473-.1784-.8161l.2677-1.7006c.056-.3429.2029-.6148.4408-.8161.2379-.201.5355-.3019.8923-.3019s.6228.1.7979.2993c.1748.1993.2361.4707.1837.8136l-.2677,1.7057c-.0561.3431-.2039.6151-.4435.8161-.2398.2013-.5381.3019-.895.3019ZM343.0487,785.3339c.1925,0,.3483-.0524.4672-.1575.119-.1051.1942-.2571.2257-.4568l.2678-1.7006c.0315-.1993.0051-.3517-.0787-.4565-.084-.1051-.2223-.1575-.4148-.1575s-.3473.0524-.4645.1575c-.1173.1048-.1916.2571-.2231.4565l-.2677,1.7006c-.0315.1996-.0053.3517.0787.4568s.2204.1575.4094.1575ZM344.9961,785.7853l.6088-3.8315h1.202c.2379,0,.4391.0464.6036.139.1645.0928.2835.223.357.391s.091.3656.0524.5932c-.0384.2591-.14.4838-.3044.6746-.1645.1905-.3656.3209-.6036.391l.5354,1.6428h-.6194l-.4777-1.5748h-.5406l-.2466,1.5748h-.5668ZM345.8883,783.7068h.6352c.1889,0,.349-.0558.4803-.168.1313-.1119.2107-.2623.2388-.4514.0316-.1925,0-.3454-.0944-.4593-.0945-.1136-.2362-.1706-.4252-.1706h-.6352l-.1995,1.2493ZM349.545,785.7853l.6088-3.8315h1.2544c.3709,0,.6508.1048.8399.315.1889.2099.2553.4898.1993.8398-.0384.2344-.1216.4383-.2493.6114s-.2905.307-.4881.4015c-.1978.0945-.419.1418-.6639.1418h-.6928l-.2415,1.5221h-.5668ZM350.432,783.754h.6928c.1924,0,.3568-.0587.4934-.176.1364-.117.2204-.2737.2519-.4696s-.0017-.3525-.0997-.4699-.245-.1757-.441-.1757h-.6876l-.2099,1.2911ZM352.7466,785.7853l.6088-3.8315h2.2518l-.0787.5038h-1.6954l-.1731,1.0867h1.5115l-.0787.4986h-1.5115l-.1942,1.2387h1.6901l-.0787.5038h-2.2518ZM355.8434,785.7853l.6088-3.8315h1.202c.2379,0,.4391.0464.6036.139.1645.0928.2835.223.357.391s.091.3656.0524.5932c-.0384.2591-.14.4838-.3044.6746-.1645.1905-.3656.3209-.6036.391l.5354,1.6428h-.6194l-.4777-1.5748h-.5406l-.2466,1.5748h-.5668ZM356.7356,783.7068h.6352c.1889,0,.349-.0558.4803-.168.1313-.1119.2107-.2623.2388-.4514.0316-.1925,0-.3454-.0944-.4593-.0945-.1136-.2362-.1706-.4252-.1706h-.6352l-.1995,1.2493ZM360.1316,785.8377c-.385,0-.6736-.0951-.8661-.2859-.1924-.1908-.2641-.4505-.2151-.7794h.5668c-.028.1748.0105.3121.1155.4121.1051.0997.266.1495.483.1495.2029,0,.3701-.049.5012-.1469.1313-.098.2109-.2327.2389-.4044.0209-.1504.0007-.2788-.0604-.3856-.0614-.1068-.1583-.1811-.2913-.2233l-.4566-.1364c-.266-.0803-.4619-.217-.5879-.4095-.126-.1922-.1697-.4197-.1313-.6823.035-.2099.1121-.3935.2309-.551s.2729-.2799.4619-.3673.4024-.1313.6404-.1313c.3498,0,.6158.0954.7978.2859.182.1908.2485.4437.1995.7586h-.5668c.0279-.168-.0027-.3001-.092-.3964-.0891-.0963-.2301-.1444-.4225-.1444-.1889,0-.343.0447-.4619.1338-.119.0894-.1889.2144-.21.3753-.0245.1506-.007.2791.0525.3859s.1575.1811.2939.223l.4672.1469c.2624.0806.4558.2173.5801.4095.1242.1925.1653.4217.1233.6877-.035.217-.1155.4058-.2415.5667-.1259.1612-.2878.2862-.4855.3753-.1976.0894-.419.1338-.6639.1338ZM363.2651,785.8377c-.3568,0-.6228-.1005-.7978-.3019-.175-.201-.2345-.473-.1784-.8161l.2677-1.7006c.056-.3429.2029-.6148.4408-.8161.2379-.201.5355-.3019.8923-.3019s.6228.1.7979.2993c.1748.1993.2361.4707.1837.8136l-.2677,1.7057c-.0561.3431-.2039.6151-.4435.8161-.2398.2013-.5381.3019-.895.3019ZM363.3439,785.3339c.1925,0,.3483-.0524.4672-.1575.119-.1051.1942-.2571.2257-.4568l.2678-1.7006c.0315-.1993.0051-.3517-.0787-.4565-.084-.1051-.2223-.1575-.4148-.1575s-.3473.0524-.4645.1575c-.1173.1048-.1916.2571-.2231.4565l-.2677,1.7006c-.0315.1996-.0053.3517.0787.4568s.2204.1575.4094.1575ZM365.2754,785.7853l.6088-3.8315h.7086l.6194,3.186c.007-.098.0165-.217.0289-.3571.0121-.1398.0271-.2851.0446-.4354.0175-.1506.0367-.2888.0577-.4146l.315-1.9788h.525l-.609,3.8315h-.7085l-.6141-3.186c-.0071.0945-.0167.209-.0289.3437s-.0272.2757-.0446.4226c-.0177.1469-.0367.2833-.0578.4095l-.315,2.0102h-.5301ZM368.2252,785.7853l1.5851-3.8315h.7454l.3726,3.8315h-.5616l-.0735-.9711h-1.0865l-.3884.9711h-.5932ZM369.3852,784.3418h.8714l-.0893-1.1023c-.0175-.1959-.0298-.3654-.0367-.5089-.0071-.1435-.0105-.2432-.0105-.2993-.0175.0561-.0517.1558-.1024.2993s-.1146.3112-.1915.5038l-.441,1.1075ZM371.7208,785.7853l.6088-3.8315h.567l-.525,3.3118h1.6744l-.0787.5197h-2.2465ZM376.6785,785.8377c-.3673,0-.6342-.1005-.8003-.3019-.1663-.201-.2214-.475-.1654-.8213l.4357-2.7608h.567l-.4357,2.7554c-.0315.1962-.008.35.0708.4619.0787.1122.2144.168.4068.168.1925,0,.3473-.0558.4646-.168.1172-.1119.1915-.2657.2231-.4619l.4355-2.7554h.567l-.4357,2.7608c-.056.35-.2003.6245-.433.8241-.2328.1993-.5328.299-.9003.299ZM379.8435,785.8377c-.385,0-.6736-.0951-.8661-.2859-.1924-.1908-.2641-.4505-.2151-.7794h.5668c-.028.1748.0105.3121.1155.4121.1051.0997.266.1495.483.1495.2029,0,.3701-.049.5012-.1469.1313-.098.2109-.2327.2389-.4044.0209-.1504.0007-.2788-.0604-.3856-.0614-.1068-.1583-.1811-.2913-.2233l-.4566-.1364c-.266-.0803-.4619-.217-.5879-.4095-.126-.1922-.1697-.4197-.1313-.6823.035-.2099.1121-.3935.2309-.551s.2729-.2799.4619-.3673.4024-.1313.6404-.1313c.3498,0,.6158.0954.7978.2859.182.1908.2485.4437.1995.7586h-.5668c.0279-.168-.0027-.3001-.092-.3964-.0891-.0963-.2301-.1444-.4225-.1444-.1889,0-.343.0447-.4619.1338-.119.0894-.1889.2144-.21.3753-.0245.1506-.007.2791.0525.3859s.1575.1811.2939.223l.4672.1469c.2624.0806.4558.2173.5801.4095.1242.1925.1653.4217.1233.6877-.035.217-.1155.4058-.2415.5667-.1259.1612-.2878.2862-.4855.3753-.1976.0894-.419.1338-.6639.1338ZM381.9062,785.7853l.6088-3.8315h2.2518l-.0787.5038h-1.6954l-.1731,1.0867h1.5115l-.0787.4986h-1.5115l-.1942,1.2387h1.6901l-.0787.5038h-2.2518ZM386.9426,785.8377c-.3568,0-.6228-.1005-.7978-.3019-.175-.201-.2345-.473-.1784-.8161l.2677-1.7006c.056-.3429.2029-.6148.4408-.8161.2379-.201.5355-.3019.8923-.3019s.6228.1.7979.2993c.1748.1993.2361.4707.1837.8136l-.2677,1.7057c-.0561.3431-.2039.6151-.4435.8161-.2398.2013-.5381.3019-.895.3019ZM387.0213,785.3339c.1925,0,.3483-.0524.4672-.1575.119-.1051.1942-.2571.2257-.4568l.2678-1.7006c.0315-.1993.0051-.3517-.0787-.4565-.084-.1051-.2223-.1575-.4148-.1575s-.3473.0524-.4645.1575c-.1173.1048-.1916.2571-.2231.4565l-.2677,1.7006c-.0315.1996-.0053.3517.0787.4568s.2204.1575.4094.1575ZM388.9529,785.7853l.6088-3.8315h.7086l.6194,3.186c.007-.098.0165-.217.0289-.3571.0121-.1398.0271-.2851.0446-.4354.0175-.1506.0367-.2888.0577-.4146l.315-1.9788h.525l-.609,3.8315h-.7085l-.6141-3.186c-.0071.0945-.0167.209-.0289.3437s-.0272.2757-.0446.4226c-.0177.1469-.0367.2833-.0578.4095l-.315,2.0102h-.5301ZM392.249,785.7853l.6088-3.8315h.567l-.525,3.3118h1.6744l-.0787.5197h-2.2465ZM396.1174,785.7853l.2204-1.4119-.7506-2.4197h.5774l.4462,1.4486c.0279.0945.0498.1837.0656.2677.0157.084.0253.1469.0288.1888.0175-.0419.0464-.1048.0867-.1888.0402-.084.0883-.1731.1442-.2677l.8976-1.4486h.5984l-1.5275,2.4197-.2204,1.4119h-.5668ZM399.217,785.7853l.6088-3.8315h.7086l.6192,3.186c.0071-.098.0165-.217.029-.3571.012-.1398.0271-.2851.0444-.4354.0177-.1506.037-.2888.0578-.4146l.315-1.9788h.5248l-.6088,3.8315h-.7085l-.6141-3.186c-.0071.0945-.0167.209-.0289.3437s-.0272.2757-.0446.4226c-.0177.1469-.0367.2833-.0578.4095l-.315,2.0102h-.5301ZM403.5053,785.8377c-.3571,0-.6231-.1005-.7979-.3019-.1751-.201-.2344-.473-.1785-.8161l.2677-1.7006c.0561-.3429.203-.6148.4411-.8161.2378-.201.5354-.3019.8922-.3019.3571,0,.6228.1.7979.2993.1748.1993.2361.4707.1837.8136l-.2677,1.7057c-.0561.3431-.2039.6151-.4437.8161-.2395.2013-.5379.3019-.8947.3019ZM403.5839,785.3339c.1925,0,.3483-.0524.4673-.1575.1187-.1051.1942-.2571.2255-.4568l.2677-1.7006c.0316-.1993.0054-.3517-.0786-.4565-.084-.1051-.2224-.1575-.4146-.1575-.1925,0-.3474.0524-.4647.1575-.117.1048-.1914.2571-.223.4565l-.2677,1.7006c-.0316.1996-.0051.3517.0789.4568.0837.1051.2204.1575.4092.1575ZM406.3814,785.7853l.5248-3.3121h-1.0234l.084-.5194h2.6193l-.084.5194h-1.0289l-.5248,3.3121h-.567ZM409.5178,785.7853l.6088-3.8315h2.32l-.084.5194h-1.7636l-.1837,1.1445h1.6272l-.084.5248h-1.6166l-.2571,1.6428h-.567ZM413.7694,785.8377c-.3571,0-.6231-.1005-.7979-.3019-.1751-.201-.2344-.473-.1785-.8161l.2677-1.7006c.0561-.3429.203-.6148.4411-.8161.2378-.201.5354-.3019.8922-.3019.3571,0,.6228.1.7979.2993.1748.1993.2361.4707.1837.8136l-.2677,1.7057c-.0561.3431-.2039.6151-.4437.8161-.2395.2013-.5379.3019-.8947.3019ZM413.848,785.3339c.1925,0,.3483-.0524.4673-.1575.1187-.1051.1942-.2571.2255-.4568l.2677-1.7006c.0316-.1993.0054-.3517-.0786-.4565-.084-.1051-.2224-.1575-.4146-.1575-.1925,0-.3474.0524-.4647.1575-.117.1048-.1914.2571-.223.4565l-.2677,1.7006c-.0316.1996-.0051.3517.0789.4568.0837.1051.2204.1575.4092.1575ZM415.7952,785.7853l.6088-3.8315h1.202c.2381,0,.4391.0464.6037.139.1643.0928.2833.223.3568.391s.0911.3656.0527.5932c-.0387.2591-.1401.4838-.3044.6746-.1646.1905-.3659.3209-.6037.391l.5354,1.6428h-.6194l-.4776-1.5748h-.5408l-.2466,1.5748h-.567ZM416.6876,783.7068h.635c.1891,0,.3491-.0558.4804-.168.131-.1119.2107-.2623.2386-.4514.0316-.1925,0-.3454-.0945-.4593-.0943-.1136-.2361-.1706-.4252-.1706h-.635l-.1993,1.2493ZM420.905,785.8377c-.3602,0-.6308-.1005-.8107-.3019-.1803-.201-.2423-.473-.1865-.8161l.2677-1.7006c.0561-.3463.2056-.6194.4488-.8187s.545-.2993.9056-.2993c.3568,0,.6253.1008.8056.3019.1803.2013.2423.4733.1865.8161h-.567c.0313-.1993.0026-.3517-.0866-.4565-.0894-.1051-.2284-.1575-.4175-.1575-.1925,0-.3508.0524-.475.1575-.1242.1048-.2019.2554-.2335.4514l-.2677,1.7057c-.0316.1996-.0026.3517.0866.4568.0894.1051.2301.1575.4226.1575s.35-.0524.4724-.1575.1993-.2571.2309-.4568h.5667c-.0347.2275-.1145.4252-.2386.5932s-.2808.2976-.4699.3884c-.1888.0908-.4024.1364-.6404.1364ZM424.0335,785.8377c-.3571,0-.6231-.1005-.7979-.3019-.1751-.201-.2344-.473-.1785-.8161l.2677-1.7006c.0561-.3429.203-.6148.4411-.8161.2378-.201.5354-.3019.8922-.3019.3571,0,.6228.1.7979.2993.1748.1993.2361.4707.1837.8136l-.2677,1.7057c-.0561.3431-.2039.6151-.4437.8161-.2395.2013-.5379.3019-.8947.3019ZM424.1121,785.3339c.1925,0,.3483-.0524.4673-.1575.1187-.1051.1942-.2571.2255-.4568l.2677-1.7006c.0316-.1993.0054-.3517-.0786-.4565-.084-.1051-.2224-.1575-.4146-.1575-.1925,0-.3474.0524-.4647.1575-.117.1048-.1914.2571-.223.4565l-.2677,1.7006c-.0316.1996-.0051.3517.0789.4568.0837.1051.2204.1575.4092.1575ZM425.9653,785.7853l.6088-3.8315h.6874l.1837,1.2282c.0211.119.0367.2301.0473.3332.0105.1034.0194.1828.0262.2389.0177-.0561.0473-.1364.0894-.2415.0419-.1051.0908-.217.1469-.336l.5667-1.2228h.7088l-.6088,3.8315h-.5354l.2045-1.2911c.0245-.168.0578-.3525.1-.5539.0419-.201.0874-.4041.1364-.6088s.0963-.3998.1418-.5852c.0453-.1854.0874-.3483.1259-.4881l-.8554,1.8632h-.5513l-.2833-1.8632c-.0037.1364-.0105.2947-.0211.475s-.0236.3719-.0393.5747c-.0157.203-.035.4069-.0578.6114-.0228.2047-.0481.3964-.076.5749l-.2047,1.2911h-.5405ZM429.1145,785.7853l.6088-3.8315h.6874l.1837,1.2282c.0211.119.0367.2301.0473.3332.0105.1034.0194.1828.0262.2389.0177-.0561.0473-.1364.0894-.2415.0419-.1051.0908-.217.1469-.336l.5667-1.2228h.7088l-.6088,3.8315h-.5354l.2045-1.2911c.0245-.168.0578-.3525.1-.5539.0419-.201.0874-.4041.1364-.6088s.0963-.3998.1418-.5852c.0453-.1854.0874-.3483.1259-.4881l-.8554,1.8632h-.5513l-.2833-1.8632c-.0037.1364-.0105.2947-.0211.475s-.0236.3719-.0393.5747c-.0157.203-.035.4069-.0578.6114-.0228.2047-.0481.3964-.076.5749l-.2047,1.2911h-.5405ZM432.4107,785.7853l.6088-3.8315h2.2516l-.0786.5038h-1.6955l-.1731,1.0867h1.5115l-.0786.4986h-1.5118l-.1942,1.2387h1.6901l-.0786.5038h-2.2516ZM435.5073,785.7853l.6088-3.8315h1.202c.2381,0,.4391.0464.6037.139.1643.0928.2833.223.3568.391s.0911.3656.0527.5932c-.0387.2591-.1401.4838-.3044.6746-.1646.1905-.3659.3209-.6037.391l.5354,1.6428h-.6194l-.4776-1.5748h-.5408l-.2466,1.5748h-.567ZM436.3997,783.7068h.635c.1891,0,.3491-.0558.4804-.168.131-.1119.2107-.2623.2386-.4514.0316-.1925,0-.3454-.0945-.4593-.0943-.1136-.2361-.1706-.4252-.1706h-.635l-.1993,1.2493ZM439.8007,785.8377c-.3602,0-.6308-.1005-.8107-.3019-.1803-.201-.2423-.473-.1865-.8161l.2677-1.7006c.0561-.3463.2056-.6194.4488-.8187s.545-.2993.9056-.2993c.3568,0,.6253.1008.8056.3019.1803.2013.2423.4733.1865.8161h-.567c.0313-.1993.0026-.3517-.0866-.4565-.0894-.1051-.2284-.1575-.4175-.1575-.1925,0-.3508.0524-.475.1575-.1242.1048-.2019.2554-.2335.4514l-.2677,1.7057c-.0316.1996-.0026.3517.0866.4568.0894.1051.2301.1575.4226.1575s.35-.0524.4724-.1575.1993-.2571.2309-.4568h.5667c-.0347.2275-.1145.4252-.2386.5932s-.2808.2976-.4699.3884c-.1888.0908-.4024.1364-.6404.1364ZM441.8792,785.7853l.0789-.5038h.7768l.4459-2.824h-.7766l.0837-.5038h2.1258l-.084.5038h-.7766l-.4462,2.824h.7768l-.0789.5038h-2.1258ZM444.7399,785.7853l1.585-3.8315h.7452l.3728,3.8315h-.5616l-.0735-.9711h-1.0867l-.3884.9711h-.5929ZM445.8998,784.3418h.8714l-.0894-1.1023c-.0174-.1959-.0296-.3654-.0367-.5089-.0068-.1435-.0103-.2432-.0103-.2993-.0177.0561-.0518.1558-.1025.2993s-.1148.3112-.1916.5038l-.4408,1.1075ZM448.2354,785.7853l.6088-3.8315h.567l-.5248,3.3118h1.6741l-.0786.5197h-2.2465ZM453.1932,785.8377c-.3676,0-.6345-.1005-.8005-.3019-.1663-.201-.2213-.475-.1654-.8213l.4357-2.7608h.567l-.4357,2.7554c-.0316.1962-.008.35.0709.4619.0786.1122.2141.168.4066.168s.3474-.0558.4645-.168c.1173-.1119.1916-.2657.2233-.4619l.4357-2.7554h.5667l-.4357,2.7608c-.0558.35-.2002.6245-.4328.8241-.2329.1993-.5328.299-.9001.299ZM456.3581,785.8377c-.385,0-.6738-.0951-.866-.2859-.1925-.1908-.2643-.4505-.2153-.7794h.567c-.0282.1748.0105.3121.1153.4121.1051.0997.266.1495.483.1495.2028,0,.3699-.049.5012-.1469s.2107-.2327.2389-.4044c.0211-.1504.0009-.2788-.0604-.3856s-.1583-.1811-.2913-.2233l-.4568-.1364c-.266-.0803-.4619-.217-.5878-.4095-.1259-.1922-.1697-.4197-.1313-.6823.035-.2099.1119-.3935.2309-.551s.2731-.2799.4619-.3673c.1891-.0874.4024-.1313.6404-.1313.3497,0,.6157.0954.7979.2859.1817.1908.2483.4437.1993.7586h-.567c.0279-.168-.0026-.3001-.0917-.3964-.0894-.0963-.2301-.1444-.4226-.1444-.1891,0-.3429.0447-.4619.1338-.119.0894-.1891.2144-.2099.3753-.0245.1506-.0071.2791.0524.3859s.1575.1811.2939.223l.4673.1469c.2623.0806.4556.2173.5798.4095.1242.1925.1654.4217.1236.6877-.035.217-.1156.4058-.2415.5667-.1262.1612-.2879.2862-.4855.3753-.1979.0894-.4192.1338-.6641.1338ZM458.4209,785.7853l.6088-3.8315h2.2516l-.0786.5038h-1.6955l-.1731,1.0867h1.5115l-.0786.4986h-1.5118l-.1942,1.2387h1.6901l-.0786.5038h-2.2516Z" style="fill: #ccc;"/>
  <g id="layer1">
    <g id="g1713">
      <path id="path1715" d="M701.744,50H98.2483l-.0544,514.5785c0,31.6297,8.4957,56.0994,25.2463,72.7335,16.6264,16.5021,40.9796,24.2989,72.353,25.1841,90.4316,2.5238,147.4163,22.5671,192.1001,72.749l12.1067,14.7548,12.0989-14.7548c44.6838-50.1819,101.6685-70.2252,192.1001-72.749,31.3812-.8853,55.7344-8.682,72.353-25.1841,16.7584-16.6341,25.2541-41.1038,25.2541-72.7335l-.0621-514.5785Z" style="fill: #dfa73a;"/>
    </g>
    <g id="g1717">
      <path id="path1719" d="M604.2022,651.4855c-94.4464,3.0364-159.158,24.4387-204.2068,76.2514-45.0411-51.8127-109.7604-73.215-204.199-76.2514-54.2434-1.7085-86.9156-31.8412-86.9156-86.9078l.0388-299.6081h582.1593l.0311,299.6081c0,55.0666-32.6722,85.1993-86.9078,86.9078" style="fill: #00408a;"/>
    </g>
    <g id="g1721">
      <path id="path1723" d="M108.9461,59.3992h582.105l.0233,197.2491H108.9228l.0233-197.2491Z" style="fill: #e53027;"/>
    </g>
    <g id="g1182">
      <g id="g1008">
        <path id="path947" d="M177.3226,118.1559c0,2.7887.4232,5.3605,1.2696,7.7154.8464,2.3549,1.9916,4.3999,3.4355,6.1351s3.1118,3.0985,5.0038,4.0901c1.9418.9296,3.9831,1.3943,6.1241,1.3943,2.1409,0,4.1574-.4648,6.0494-1.3943,1.9418-.9915,3.6346-2.3549,5.0785-4.0901,1.4937-1.7352,2.6637-3.7802,3.5101-6.1351.8464-2.3549,1.2696-4.9267,1.2696-7.7154s-.4232-5.3605-1.2696-7.7154c-.8464-2.3549-2.0165-4.3999-3.5101-6.1351-1.4439-1.7352-3.1367-3.0676-5.0785-3.9971-1.892-.9915-3.9085-1.4873-6.0494-1.4873s-4.1823.4958-6.1241,1.4873c-1.892.9296-3.5599,2.2619-5.0038,3.9971-1.4439,1.7352-2.589,3.7802-3.4355,6.1351-.8464,2.3549-1.2696,4.9267-1.2696,7.7154ZM162.0124,118.1559c0-5.2055.7717-10.0393,2.3152-14.5012,1.5435-4.5239,3.6844-8.459,6.4228-11.8054,2.7384-3.3464,5.9996-5.9492,9.7836-7.8083,3.8338-1.9211,8.041-2.8816,12.6216-2.8816,4.5308,0,8.7131.9605,12.5469,2.8816,3.8338,1.8591,7.1199,4.4619,9.8583,7.8083,2.7882,3.3464,4.954,7.2816,6.4975,11.8054,1.5435,4.4619,2.3152,9.2956,2.3152,14.5012s-.7717,10.0703-2.3152,14.5941c-1.5435,4.4619-3.7093,8.3661-6.4975,11.7125-2.7384,3.3464-6.0245,5.9802-9.8583,7.9013-3.8338,1.8591-8.0161,2.7887-12.5469,2.7887-4.5806,0-8.7878-.9296-12.6216-2.7887-3.784-1.9211-7.0452-4.5549-9.7836-7.9013-2.7384-3.3464-4.8794-7.2506-6.4228-11.7125-1.5435-4.5239-2.3152-9.3886-2.3152-14.5941Z" style="fill: #dfa73a;"/>
        <path id="path949" d="M248.3306,83.1114v54.6582h17.5507v15.4307h-32.1888v-70.0889h14.638Z" style="fill: #dfa73a;"/>
        <path id="path951" d="M281.2721,119.5502l-20.5381-36.4388h17.476l10.4558,19.149,10.3811-19.149h17.476l-20.6128,36.4388v33.6501h-14.638v-33.6501Z" style="fill: #dfa73a;"/>
        <path id="path953" d="M319.1112,153.2004l9.5595-70.0889h14.4887l11.2773,37.3684,11.2026-37.3684h14.4887l9.5595,70.0889h-14.5634l-4.8545-40.343-13.2937,40.343h-5.8253l-12.6216-40.343-4.8545,40.343h-14.5634Z" style="fill: #dfa73a;"/>
        <path id="path955" d="M413.598,115.2742h4.8545c5.3772,0,8.0659-2.9126,8.0659-8.7379s-2.6886-8.7379-8.0659-8.7379h-4.8545v17.4758ZM413.598,153.2004h-14.638v-70.0889h23.3014c6.3232,0,11.1528,2.045,14.4887,6.1351,3.3857,4.0901,5.0785,9.8534,5.0785,17.2898s-1.6928,13.1998-5.0785,17.2898c-3.3359,4.0901-8.1654,6.1351-14.4887,6.1351h-8.6633v23.239Z" style="fill: #dfa73a;"/>
        <path id="path957" d="M464.2138,83.1114v70.0889h-14.638v-70.0889h14.638Z" style="fill: #dfa73a;"/>
        <path id="path959" d="M473.4385,118.1559c0-5.2055.7717-10.0393,2.3152-14.5012,1.5435-4.5239,3.6844-8.459,6.4228-11.8054,2.7384-3.3464,5.9996-5.9492,9.7836-7.8083,3.8338-1.9211,8.041-2.8816,12.6216-2.8816,4.5308,0,8.7131.9605,12.5469,2.8816,3.8338,1.8591,7.1199,4.4619,9.8583,7.8083,2.7882,3.3464,4.954,7.2816,6.4975,11.8054,1.5435,4.4619,2.3152,9.2956,2.3152,14.5012,0,4.8337-.6473,9.3266-1.9418,13.4786-1.2447,4.152-3.062,7.8393-5.4519,11.0618l9.5595,12.4561-13.4431,2.6028-5.1532-6.5999c-2.1907,1.2394-4.5308,2.2-7.0203,2.8816-2.4397.7437-5.0287,1.1155-7.7671,1.1155-4.5806,0-8.7878-.9296-12.6216-2.7887-3.784-1.9211-7.0452-4.5549-9.7836-7.9013-2.7384-3.3464-4.8793-7.2506-6.4228-11.7125-1.5435-4.5239-2.3152-9.3886-2.3152-14.5941ZM488.7487,118.1559c0,2.7887.4232,5.3605,1.2696,7.7154s1.9916,4.3999,3.4355,6.1351,3.1118,3.0985,5.0038,4.0901c1.9418.9296,3.9831,1.3943,6.1241,1.3943,1.2945,0,2.589-.1859,3.8836-.5577l-8.3646-10.9688,13.8165-2.138,3.8836,5.1126c1.7924-3.0985,2.6886-6.6928,2.6886-10.7829,0-2.7887-.4232-5.3605-1.2696-7.7154s-2.0165-4.3999-3.5101-6.1351c-1.4439-1.7352-3.1367-3.0676-5.0785-3.9971-1.892-.9915-3.9085-1.4873-6.0494-1.4873s-4.1823.4958-6.1241,1.4873c-1.892.9296-3.5599,2.2619-5.0038,3.9971-1.4439,1.7352-2.589,3.7802-3.4355,6.1351-.8464,2.3549-1.2696,4.9267-1.2696,7.7154Z" style="fill: #dfa73a;"/>
        <path id="path961" d="M559.7567,83.1114v38.112c0,2.045.0498,4.152.1494,6.321.1494,2.107.5228,4.0281,1.1203,5.7633.6473,1.7352,1.643,3.1605,2.9874,4.276,1.3443,1.0535,3.2363,1.5803,5.676,1.5803s4.3068-.5268,5.6013-1.5803c1.3443-1.1155,2.3401-2.5408,2.9874-4.276.6473-1.7352,1.0207-3.6563,1.1203-5.7633.1494-2.169.224-4.276.224-6.321v-38.112h14.5634v40.6218c0,10.9069-2.0165,18.8701-6.0494,23.8897-3.9831,5.0196-10.1321,7.5294-18.4469,7.5294s-14.4887-2.5098-18.5216-7.5294c-4.0329-5.0196-6.0494-12.9829-6.0494-23.8897v-40.6218h14.6381Z" style="fill: #dfa73a;"/>
        <path id="path963" d="M637.9846,98.5421h-17.4013v11.7125h16.4305v15.4307h-16.4305v12.0843h17.4013v15.4307h-32.0394v-70.0889h32.0394v15.4307Z" style="fill: #dfa73a;"/>
      </g>
      <g id="g1018">
        <path id="path965" d="M176.7076,165.0419v54.6582h17.5507v15.4307h-32.1888v-70.089h14.6381Z" style="fill: #dfa73a;"/>
        <path id="path967" d="M222.1364,201.4807l-20.5381-36.4388h17.476l10.4557,19.149,10.3811-19.149h17.476l-20.6127,36.4388v33.6501h-14.6381v-33.6501Z" style="fill: #dfa73a;"/>
        <path id="path969" d="M280.9115,200.0864c0,2.7887.4232,5.3605,1.2696,7.7154.8464,2.3549,1.9916,4.3999,3.4355,6.1351,1.4439,1.7352,3.1118,3.0985,5.0038,4.0901,1.9418.9296,3.9832,1.3943,6.1241,1.3943s4.1574-.4648,6.0494-1.3943c1.9418-.9915,3.6346-2.3549,5.0785-4.0901,1.4937-1.7352,2.6637-3.7802,3.5102-6.1351.8464-2.3549,1.2696-4.9267,1.2696-7.7154s-.4232-5.3605-1.2696-7.7154c-.8464-2.3549-2.0165-4.3999-3.5102-6.1351-1.4439-1.7352-3.1367-3.0676-5.0785-3.9971-1.892-.9915-3.9085-1.4873-6.0494-1.4873s-4.1823.4958-6.1241,1.4873c-1.892.9296-3.5599,2.2619-5.0038,3.9971-1.4439,1.7352-2.589,3.7802-3.4355,6.1351-.8464,2.3549-1.2696,4.9267-1.2696,7.7154ZM265.6013,200.0864c0-5.2055.7717-10.0393,2.3152-14.5012,1.5435-4.5239,3.6844-8.459,6.4228-11.8054,2.7384-3.3464,5.9996-5.9492,9.7836-7.8083,3.8338-1.9211,8.041-2.8816,12.6216-2.8816,4.5308,0,8.7131.9606,12.5469,2.8816,3.8338,1.8591,7.1199,4.4619,9.8583,7.8083,2.7882,3.3464,4.954,7.2816,6.4975,11.8054,1.5435,4.4619,2.3152,9.2956,2.3152,14.5012s-.7717,10.0703-2.3152,14.5941c-1.5435,4.4619-3.7093,8.366-6.4975,11.7125-2.7384,3.3464-6.0245,5.9802-9.8583,7.9013-3.8338,1.8591-8.0161,2.7887-12.5469,2.7887-4.5806,0-8.7878-.9295-12.6216-2.7887-3.784-1.9211-7.0452-4.5549-9.7836-7.9013-2.7384-3.3464-4.8794-7.2506-6.4228-11.7125-1.5435-4.5239-2.3152-9.3886-2.3152-14.5941Z" style="fill: #dfa73a;"/>
        <path id="path971" d="M344.7826,235.1309v-70.089h14.638l27.0356,42.8528v-42.8528h14.5634v70.089h-14.5634l-27.0356-42.8528v42.8528h-14.6381Z" style="fill: #dfa73a;"/>
        <path id="path973" d="M420.3219,235.1309v-70.089h14.638l27.0356,42.8528v-42.8528h14.5634v70.089h-14.5634l-27.0356-42.8528v42.8528h-14.638Z" style="fill: #dfa73a;"/>
        <path id="path975" d="M526.7629,209.1032l-6.5722-23.332-6.5722,23.332h13.1444ZM530.6464,222.9536h-20.9115l-3.3608,12.1773h-15.6089l21.4343-70.0889h15.9824l21.4343,70.089h-15.6089l-3.3608-12.1773Z" style="fill: #dfa73a;"/>
        <path id="path977" d="M577.996,165.0419v70.0889h-14.638v-70.0889h14.638Z" style="fill: #dfa73a;"/>
        <path id="path979" d="M628.0202,182.9825c-1.5933-1.6112-3.1865-2.7887-4.7798-3.5323-1.5933-.8056-3.1367-1.2084-4.6304-1.2084-1.892,0-3.4355.5577-4.6304,1.6732-1.1949,1.1155-1.7924,2.5718-1.7924,4.3689,0,1.2394.2987,2.2619.8962,3.0676.5975.8056,1.3692,1.5183,2.3152,2.138.9958.5577,2.0911,1.0535,3.2861,1.4873,1.2447.4338,2.4646.8986,3.6595,1.3943,4.7798,1.9831,8.265,4.6478,10.4557,7.9942,2.2405,3.2844,3.3608,7.5914,3.3608,12.9209,0,3.5943-.4979,6.8478-1.4937,9.7604-.946,2.9126-2.365,5.4224-4.257,7.5295-1.8422,2.045-4.1325,3.6253-6.8709,4.7408-2.6886,1.1774-5.7506,1.7662-9.1861,1.7662-7.1199,0-13.717-2.6338-19.7912-7.9013l6.2735-14.6871c2.1907,2.4169,4.3565,4.214,6.4975,5.3915,2.1409,1.1774,4.257,1.7662,6.3481,1.7662,2.3899,0,4.1574-.6817,5.3025-2.045,1.1949-1.3634,1.7924-2.9126,1.7924-4.6478,0-1.0535-.1494-1.9521-.4481-2.6957-.2987-.8056-.7966-1.5183-1.4937-2.138-.697-.6817-1.6181-1.3014-2.7633-1.8591-1.0954-.5577-2.4397-1.1774-4.0329-1.8591-1.892-.7437-3.7591-1.5493-5.6013-2.4169-1.7924-.9296-3.4106-2.138-4.8545-3.6253-1.3941-1.4873-2.5392-3.3464-3.4354-5.5774-.8464-2.2929-1.2696-5.1746-1.2696-8.6449s.4481-6.5999,1.3443-9.3886c.946-2.8507,2.2405-5.2675,3.8835-7.2506,1.6928-2.045,3.7342-3.6253,6.1241-4.7408,2.4397-1.1155,5.1532-1.6732,8.1405-1.6732,2.7882,0,5.7009.4958,8.738,1.4873,3.0371.9296,5.9498,2.3239,8.738,4.183l-5.8254,14.2223Z" style="fill: #dfa73a;"/>
      </g>
    </g>
    <g id="g1218">
      <g id="g1725">
        <path id="path1727" d="M468.1833,300.6739v312.0827h198.9912v-99.2539h-88.947v-212.8288h-110.0443Z" style="fill: #dfa73a;"/>
      </g>
      <g id="g1729">
        <path id="path1731" d="M570.2034,308.6938v212.8201h88.9556v83.2193h-182.9566v-296.0395h94.001Z" style="fill: #fff;"/>
      </g>
    </g>
    <g id="g1212">
      <g id="g1733">
        <path id="path1735" d="M126.403,456.7109c0,90.2246,73.4003,163.6248,163.6162,163.6248s163.6334-73.4003,163.6334-163.6248-73.4003-163.6162-163.6334-163.6162-163.6162,73.3916-163.6162,163.6162" style="fill: #dfa73a;"/>
      </g>
      <g id="g1737">
        <path id="path1739" d="M135.5345,456.7108c0-85.1859,69.3012-154.4871,154.4871-154.4871s154.496,69.3012,154.496,154.4871-69.3012,154.496-154.496,154.496-154.4871-69.3101-154.4871-154.496" style="fill: #fff;"/>
      </g>
      <g id="g1741">
        <path id="path1743" d="M376.8858,363.9303c-9.1934,3.8155-13.6217-2.9522-14.8993-7.605-5.4642,5.4642-2.4429,12.206-.2762,14.1051-1.7869.9237-9.2538,5.188-9.5905,14.3296,7.5446,2.1408,14.649-1.3294,16.8329-2.8832.4748,2.4688,3.85,6.6469,11.0579,5.2571-3.7205-3.9536-5.4642-11.0407-.164-14.0016l1.3898-.7165c7.7777-3.3493,12.3873,2.4775,13.6304,5.2657,2.5638,5.7405.3453,12.6118-4.9549,15.3223l-34.7881,17.9724c-17.8429,9.0035-16.0819,25.776-12.2233,33.4501l15.987,31.6718c2.9868,6.3102-1.4848,10.6609-4.6787,12.1197-5.1103,2.3393-11.2651.3194-13.6822-4.4111l-21.4944-42.0133c1.1913.9582,4.4197,2.1322,7.2684.846-9.4351-15.2964,7.2856-14.7008,1.8041-28.5383,1.2258,1.6315,5.1966,2.6328,7.1303,1.9336-8.4251-18.9219,10.635-18.7407.9496-33.709,1.0272.846,5.0758.5956,6.785-.846-11.8003-11.7572-1.174-19.7075-15.5467-24.5157,2.089.095,4.7305-2.0976,5.2571-4.5924-9.8581.6819-14.5454-12.0248-28.6764-10.2379-5.7836.7424-10.8767,2.3221-16.056,3.9536-2.9609.9409-5.2053-.1467-7.9331,1.2172-1.0359,1.0359-2.1926,4.2902-2.1926,4.2902-3.6773.7855-9.7027,2.4861-11.3601,4.2643-.5007,1.8646,0,3.6428.7165,5.0671,0,0,.8632.3021,1.0704,1.3553,1.0272,5.1794,2.7105,9.7027,5.6973,12.3959l8.7359-2.1753s6.9317,3.8414,9.1588,9.5991c1.2948,3.3493.7424,5.447-3.3493,5.5074-3.5047.0604-10.376-1.4416-13.1038-1.8732-1.1567,2.9522-1.6919,8.6236.8805,10.5659,1.4071,1.0445,8.7531.6733,10.9975.5093-.5611,8.0108-6.3361,12.8966-16.2287,9.6768-28.357-9.202-46.5452-11.8607-56.8694-34.9089.3798-1.6056,2.3566-17.3768-9.0121-21.3994,1.4157,4.4284,2.6069,9.5991,1.3639,13.898-1.8732-7.3288-7.372-12.1542-16.0042-11.291,4.8945,3.4702,7.9331,7.8208,7.9762,12.2665-3.6428-2.676-10.3069-3.5479-15.2446-1.4416,23.4884,10.6177,15.4949,28.711,5.1189,30.3683,4.2816,3.5479,11.2047,2.5811,15.3914,0l14.062,17.9983c-2.6156.5525-5.2139,2.6328-6.1807,4.3938,2.84-.164,7.3633.3021,9.2452,2.1494,1.0618,2.8487,2.4602,7.9331.5784,15.2878,5.5074-2.8659,7.7345-6.854,8.5114-10.4278l20.7002,12.1111c-10.4451,5.4988-41.668,21.2095-57.6204,13.8634-2.4257-1.1222-18.1278-7.864-26.7773.9323,5.8613-.1985,11.55,2.2012,12.5772,4.5492-6.0426.6647-13.3455,3.3062-15.1928,10.0566,2.2789-1.4675,9.9099-2.0113,13.8462-1.3294-3.4357,2.7192-6.1721,7.6137-5.775,13.9152,0,0,12.6118-11.6622,22.9705-8.6668,4.8254,1.3984,2.4775,9.8408,1.5279,11.8694,7.8122-1.1308,9.7976-8.8654,9.8235-9.4955l24.0927-1.0013c1.6142.7855,2.3048,4.2212.8114,6.9662,4.1262-1.1481,5.9563-3.591,6.9921-7.4842,5.0585.6129,7.864,4.0572,8.451,9.202,3.5047-3.6256,3.0299-9.2279,1.5883-12.0938l26.2421-6.3361,9.1157,10.0566s-46.9596,29.3497-62.9466,28.5815c2.4775,5.6628,13.9843,5.024,19.2931,3.0299-1.6229,2.9436-.4661,7.2079-.4661,7.2079,0,0,3.5479.2331,7.208-4.4197,0,0,7.0439,14.062,5.9045,16.5394-3.2889,7.2425-26.268,8.7963-26.268,8.7963-4.178-3.3234-15.6676-7.1993-22.0727-2.3393,4.9118.2158,8.8654,3.9536,9.4955,6.2843-2.6933.0173-12.0852,1.1395-14.2174,9.8667,5.2743-2.4084,11.6449-2.4084,13.5958-1.3639-2.9868,2.1322-6.6728,7.0871-5.7146,13.2333,6.7763-7.1562,16.1855-10.3846,22.4526-8.9862,3.6601.8114,3.8586,6.3016,2.7969,10.2206,5.2225-1.3725,8.2179-6.7591,9.3315-9.5991l25.1199-7.8295s.8114,2.2358.7683,5.8182c3.1335-.3626,6.2325-4.2298,6.4656-7.0094,0,0,4.7132,7.1562,12.1283,5.9045-4.3075-7.2597-10.2292-25.9659-10.2034-30.7654.0345-6.0599,18.335-9.6682,21.4081-10.5832l8.8654,12.9398s-9.0121,4.4111-10.5659,10.1861c7.9072-3.4874,14.2692-3.1422,16.2891-2.6415,1.7265,1.83,3.4529,5.0758,4.178,8.9171,1.7178-1.0963,3.9449-4.3507,4.178-7.6741,20.0873,6.3706,20.1132,9.4523,15.2187,29.7209-9.1157-.8978-23.6611-1.3553-26.8119,7.959,5.516-1.5193,11.8521-.5352,15.2791.7855-4.273,1.4502-11.9384,5.9045-10.0998,14.6835,0,0,7.4151-8.3042,15.9524-6.8281-4.5665,2.8141-10.281,8.71-5.2657,16.0819,4.5319-9.3401,15.1324-10.2724,19.5607-9.3833l6.2929-13.6131c2.5552-5.5419,9.5905-4.8427,10.376,2.2012,6.6469-8.1834-.8287-17.1264-2.9609-18.1796l5.7405-12.3528c1.8473.1813,6.621,1.3898,9.4178-1.9164-2.9263-.8978-5.5074-2.8055-6.6469-4.8341,2.9263.1985,10.7299,1.3984,14.4245-3.6946-12.5341-2.5034-41.7284-20.3204-43.9297-31.2834,5.7232,4.6355,14.0102,5.9735,21.1836,2.7623,4.6355-2.0717,8.1402-5.68,9.9616-10.212,5.188-10.7127,18.8874-2.0113,21.0196-21.8483-5.4729,7.769-17.558,2.6069-19.9406,12.2492-4.86-21.3563,25.9745-7.4065,26.1903-39.6653-7.605,13.1901-34.814,8.4855-32.5782,25.1717-11.6449-34.46,40.5631-12.137,37.7058-56.8608-10.1861,20.2082-50.6715,14.8561-46.8474,38.7503l-2.2099-4.3938c-3.0645-6.3016-2.3566-15.072,7.1475-20.2168l35.7204-18.4126c9.7286-4.9895,13.8375-16.9797,9.297-27.701-2.7537-6.4829-12.8707-16.3409-26.6824-9.8495M282.5609,355.0736c0-.0086-.8546-2.771,2.6242-3.4529,3.8845-.7683,7.5878,1.5538,10.7558,2.6415-1.9941,2.417-9.6509,3.85-13.38.8114M282.7163,375.9206c-15.3655,6.9145-28.193,6.4915-39.9674-.0863,2.5552,8.3215,24.8696,19.2154,39.9674.0863" style="fill: #dfa73a;"/>
      </g>
    </g>
  </g>
</svg>