<?xml version="1.0" encoding="utf-8"?>
<!-- Created by @FCLOGO 2023-10-12 GMT+8 21:05:06 . https://fclogo.top/ -->
<!-- FOR PERSONAL USE ONLY NOT FOR COMMERCIAL USE -->
<svg version="1.1" xmlns="http://www.w3.org/2000/svg" xmlns:xlink="http://www.w3.org/1999/xlink" x="0px" y="0px"
	 viewBox="0 0 800 800" style="enable-background:new 0 0 800 800;" xml:space="preserve">
<style type="text/css">
	.st0{fill:#272724;}
	.st1{fill:#C02041;}
	.st2{fill-rule:evenodd;clip-rule:evenodd;fill:#C02041;}
</style>
<g>
	<g>
		<path class="st0" d="M229.9,179.1v1.6c-0.4,10.6,29.4,62,73.8,100.1c5.5,5.1,11.8,9.8,18,13.7c0-2,0.4-4.3,0.4-7.1
			c0.8-5.9,2.4-12.6,6.7-16.5l13.3-12.9l1.2,18.4c0.8,14.1,26.3,31,47.1,36.1c5.1,1.2,9.4,3.9,12.9,6.7
			c78.1,30.2,126.7,44.7,168.3,45.5c36.5-1.6,34.1-17.3,37.7-30.6c0.4-1.2,1.6-11.4,2-12.9c2.4-13.3-0.4-25.5-7.8-37.3
			c-35.7,9.4-104.4-18-177-47.1c-81.6-32.6-146.4-58.5-189.5-58.5C234.6,178.7,232.3,178.7,229.9,179.1"/>
		<path class="st0" d="M187.1,203.8l2.7,11c3.1,13.7,12.6,29,23.5,42.4c3.1,0,6.7,0.4,10.2,0.8c-14.5-22.8-24.3-49-13.7-74.6
			C200.5,187.3,192.6,194,187.1,203.8"/>
		<path class="st1" d="M239.3,439.2c7.8,7.1,18.4,16.1,27.1,22.4c6.7,4.3,15.7,10.2,22.8,14.5c53,27.5,111.4,28.3,111.8,28.3
			c-1.6-2-2-2-34.1-12.6c-40-13.3-114.2-36.9-145.6-72.2C226.8,425.5,233.4,433.4,239.3,439.2"/>
		<path class="st1" d="M380.2,50.8c-2.7,0.4-5.1,0.4-7.5,0.8c-27.5,3.5-86.3,15.7-42,51.4c22,18,62,37.7,109.1,61.2
			c80.4,40.4,141.3,73.4,167.2,109.1c1.6,2.4,3.1,4.7,4.7,7.5c7.8,13.3,11,27.5,8.6,42.4l2-12.6v-0.4c0.4-5.1,0.8-11,1.6-16.5
			c0.8-5.5,0,0,0-0.4c0.4-7.1,0.8-13.7,0.8-20c0-0.4,0-0.8,0-1.6c0-3.9,0.4-7.5,0-11c-0.4-5.5-2-12.2-2.7-18.4v-0.4
			c-0.4-2-0.4-4.3-0.8-6.3l-2.7-12.2C605,181.1,563,155.5,452,105.7c-54.5-23.2-111-48.7-71-54.5c2-0.4,4.3-0.4,7.1-0.8
			C385.7,50.8,382.9,50.8,380.2,50.8"/>
		<path class="st1" d="M394.3,50.4c2.7,2,3.1,2.4,33.7,12.6c64.7,22,120.5,42.4,147.9,73c-5.9-7.1-13.3-15.3-19.2-21.6
			c-7.8-7.1-18.4-16.1-27.1-22.4c-6.3-4.3-14.9-9.8-21.6-13.7c-53-27.1-112.2-28.3-113-28.3C395.1,50.4,394.3,50.4,394.3,50.4"/>
		<path class="st1" d="M234.6,259.9c2,3.1,4.3,6.7,6.7,9.8c0.4,0.4,0.4,0.4,0.4,0.8c10.6,14.5,24.3,27.5,30.2,43.2
			c-12.9,3.5-25.1-5.1-33.4-13.7c-9.4-9.8-20.4-21.2-30.2-33c-2-2.7-4.3-5.5-6.3-7.8c-10.2-13.7-18.4-27.9-21.6-41.2
			c-0.4,2.4-1.2,5.1-1.6,7.8c-2,13.7,0.4,28.3,5.5,42c1.2,3.1,2.4,6.3,3.9,9c9,20,23.2,38.5,38.1,53c11.4,11,26.3,22.4,23.2,36.5
			c-34.9-9-60.4-35.3-70.6-64.7c-1.2-3.1-2-6.7-3.1-10.2v-0.4c-0.4,1.6-0.4,2.7-0.4,4.3c-0.4,2-0.4,4.3-0.4,6.7
			c-1.2,38.5,22.8,76.5,55.3,102.8c35.7,29.4,126.7,62.4,102.8,37.7c-12.2-12.2-22.8-27.9-19.6-43.6c27.9,23.5,59.2,42,94.2,56.5
			c-0.4,6.3-0.8,12.6-1.2,18.8c6.7-3.1,13.7-6.3,20.8-9c-3.5,4.3-5.5,9-5.5,14.5c14.5-12.2,29.4-31.4,43.2-35.3
			c-20.4,2.7-53.8-2.7-55.7-6.3c-9.8-15.7-35.7-27.1-29.4-42c15.7,2,36.5,9.8,40,21.6c16.1-12.6,48.3-17.7,74.6-20.4
			c1.2,0,2.7,0.4,4.3,0.8c1.6,0.4,3.1,0.8,3.9,0.8c2.7-0.8,1.6-7.8,1.6-10.2c-0.4-14.1-13.3-26.3-29.8-28.6
			c-6.7-0.8-10.2,6.7-16.5,9.8c-4.3,2-9.8,1.6-14.5,1.2c-11.4-1.2-21.6-5.1-34.1-3.5c-14.5,1.6-21.6-5.5-26.3-20.8
			c4.7,7.8,16.5,7.5,22.8,9c-1.6,2.7-5.5,5.1-6.3,4.3l0.8,0.8c-2,2.4-1.6,2.7-3.1,5.5c4.3-1.6,5.5-5.1,8.6-10.2
			c2.7,0.8,4.3,1.6,4.3,3.9c6.7-4.3,1.2-19.2-4.3-24.3c-2.7-2.7-5.1-5.1-7.8-7.5c-3.1-2.7-6.7-5.1-10.6-6.3
			c-14.5-3.5-33-12.9-43.9-25.1c-5.5-5.9-9-12.2-9.8-19.2c-2.7,2.4-3.9,7.8-4.3,13.7c0.8,3.5,0.8,6.7,1.6,9.8
			c-10.6-4.3-21.2-8.2-31.4-12.2c-5.5-5.1-11.4-9.8-16.5-14.9c-37.7-37.3-62.4-81.2-62-93.4C206,205.8,217.3,234,234.6,259.9"/>
	</g>
	<g>
		<g>
			<g>
				<path class="st1" d="M200.9,631.1v59.2h-13.7v-24.7h-22.8v24.7h-13.7v-59.2h13.7v22h22.8v-22H200.9z"/>
				<path class="st1" d="M224.4,660.9c0-11.4,5.5-20,14.5-20c9.4,0,14.5,9,14.5,19.2c0,11.4-5.5,20-14.5,20
					C230.3,680.5,224.4,672.3,224.4,660.9 M209.9,661.3c0,16.5,10.6,30.2,28.6,30.2c18,0,29.8-11.4,29.8-31
					c0-16.1-10.2-29.8-29-29.8C221.7,630.3,209.9,643.7,209.9,661.3"/>
				<path class="st1" d="M314.3,631.1V648c0,9,0.4,16.5,1.2,24.3h-0.4c-2.7-6.7-6.3-13.7-9.8-20l-12.6-21.6h-16.1v58.9h12.6v-17.7
					c0-9.8-0.4-17.7-0.4-25.5h0.4c3.1,7.1,7.1,14.1,10.6,20.4l12.9,22.8h14.5v-58.9L314.3,631.1z"/>
				<path class="st1" d="M336.2,661.7c0,8.6,3.1,16.1,8.6,21.2c5.5,5.5,13.7,7.8,24.7,7.8c7.8,0,16.1-2,20.4-3.1v-31h-22.8v10.6h9.4
					v12.2c-1.2,0.4-3.5,0.8-6.7,0.8c-11.4,0-19.2-7.5-19.2-19.2c0-12.6,8.6-18.8,20-18.8c6.7,0,11,1.2,14.1,2.7l2.7-11
					c-3.1-1.6-9-2.7-16.9-2.7C351.1,630.7,336.2,642.1,336.2,661.7"/>
			</g>
			<g>
				<path class="st1" d="M450,631.1l-13.7,19.2c-1.6,2-2.7,4.3-4.3,6.7v-25.9h-13.7v58.5H432v-18.8l5.1-6.3L452,690h16.1l-21.2-33.7
					l20.4-25.1L450,631.1z"/>
				<path class="st1" d="M482.6,660.9c0-11.4,5.5-20,14.5-20c9.4,0,14.5,9,14.5,19.2c0,11.4-5.5,20-14.5,20
					C488.1,680.2,482.6,672.3,482.6,660.9 M467.7,661.3c0,16.5,10.6,30.2,28.6,30.2s29.8-11.4,29.8-31c0-16.1-10.2-29.8-29-29.8
					C479.5,630.3,467.7,643.7,467.7,661.3"/>
				<path class="st1" d="M572.4,631.1V648c0,9,0.4,16.5,1.2,24.3h-0.4c-2.7-6.7-6.3-13.7-9.8-20l-12.6-21.6h-16.1v58.9h12.6v-17.7
					c0-9.8-0.4-17.7-0.4-25.5h0.4c3.1,7.1,6.7,14.1,10.6,20.4l12.9,22.8h14.5v-58.9L572.4,631.1z"/>
				<path class="st1" d="M594,661.7c0,8.6,3.1,16.1,8.6,21.2c5.5,5.5,13.7,7.8,24.7,7.8c7.8,0,16.1-2,20.4-3.1v-31H625v10.6h9.4
					v12.2c-1.2,0.4-3.5,0.8-6.7,0.8c-11.4,0-19.2-7.5-19.2-19.2c0-12.6,8.6-18.8,20.4-18.8c6.7,0,11,1.2,14.1,2.7l2.7-11
					c-3.1-1.6-9-2.7-16.9-2.7C608.9,630.7,594.4,642.1,594,661.7"/>
			</g>
		</g>
		<g>
			<path class="st0" d="M149.9,705.7c3.1-0.4,7.5-0.8,13.7-0.8s10.6,1.2,13.7,3.5c2.7,2.4,4.7,5.9,4.7,10.2s-1.6,7.8-3.9,10.6
				c-3.5,3.1-8.6,4.7-14.5,4.7c-1.6,0-2.7,0-3.5-0.4v15.3h-10.2V705.7z M160.1,725.7c0.8,0.4,2,0.4,3.1,0.4c5.5,0,8.6-2.7,8.6-7.5
				c0-3.9-2.7-6.7-7.8-6.7c-2,0-3.5,0.4-4.3,0.4L160.1,725.7z"/>
			<path class="st0" d="M187.9,705.7c3.1-0.4,7.8-0.8,13.3-0.8c6.7,0,11.4,0.8,14.5,3.5c2.7,2,3.9,5.1,3.9,9c0,5.5-3.9,9.8-7.8,11
				v0.4c3.1,1.2,4.7,4.3,5.9,8.2c1.6,5.1,2.7,11,3.5,12.2h-10.2c-0.8-1.2-2-5.1-3.1-10.2c-1.2-5.5-3.1-7.1-7.1-7.1h-3.1v16.9h-9.8
				V705.7z M197.7,724.5h3.9c5.1,0,7.8-2.7,7.8-6.3c0-3.9-2.7-6.3-7.5-6.3c-2.4,0-3.9,0.4-4.3,0.4V724.5z"/>
			<path class="st0" d="M253.1,730.8h-16.5v10.6h18v8.2h-28.3v-43.6h27.5v8.2h-17.3v9h16.5C253.1,722.5,253.1,730.8,253.1,730.8z"/>
			<path class="st0" d="M299.4,732.3c-0.4-5.5-0.4-11.4-0.4-17.7h-0.4c-1.6,5.5-3.1,11.8-5.1,16.9l-5.5,16.9h-7.8l-4.7-16.9
				c-1.6-5.1-3.1-11.4-3.9-16.9h-0.4c-0.4,5.9-0.4,12.2-0.8,18l-0.8,16.5h-9l2.7-43.6h13.3l4.3,14.5c1.6,5.1,2.7,10.6,3.9,15.3h0.4
				c1.2-5.1,2.7-11,4.3-15.7l4.7-14.5h12.9l2.4,43.6h-9.8L299.4,732.3z"/>
			<path class="st0" d="M317,705.3h10.2v43.6H317V705.3z"/>
			<path class="st0" d="M362.1,730.8H346v10.6h18v8.2h-28.3v-43.6h27.5v8.2H346v9h16.1L362.1,730.8z"/>
			<path class="st0" d="M370.8,705.7c3.1-0.4,7.8-0.8,13.3-0.8c6.7,0,11.4,0.8,14.5,3.5c2.7,2,3.9,5.1,3.9,9c0,5.5-3.9,9.8-7.8,11
				v0.4c3.1,1.2,4.7,4.3,5.9,8.2c1.6,5.1,2.7,11,3.5,12.2h-10.2c-0.8-1.2-2-5.1-3.1-10.2c-1.2-5.5-3.1-7.1-7.1-7.1h-3.1v16.9h-9.8
				V705.7z M380.6,724.5h3.9c5.1,0,7.8-2.7,7.8-6.3c0-3.9-2.7-6.3-7.5-6.3c-2.4,0-3.9,0.4-4.3,0.4V724.5z"/>
			<path class="st0" d="M423,705.3h10.2v35.3h17.7v8.6H423V705.3z"/>
			<path class="st0" d="M482.6,730.8h-16.1v10.6h18v8.2h-28.3v-43.6h27.5v8.2h-17.3v9h16.1V730.8z"/>
			<path class="st0" d="M501.4,737.8l-3.1,11.4h-10.2l13.7-43.6h13.3l13.7,43.6h-11l-3.5-11.4H501.4z M512.8,730.4l-2.7-9.4
				c-0.8-2.7-1.6-5.9-2-8.6h-0.4c-0.8,2.7-1.6,5.9-2,8.6l-2.7,9.4H512.8z"/>
			<path class="st0" d="M569.3,746.9c-3.1,0.8-9,2.7-14.9,2.7c-7.8,0-13.7-2-18-5.9c-3.9-3.9-6.3-9.8-6.3-15.7
				c0-14.5,11-22.8,25.5-22.8c5.5,0,10.2,1.2,12.2,2l-2,7.8c-2.4-1.2-5.5-2-10.2-2c-8.2,0-14.5,4.7-14.5,14.1
				c0,9,5.5,14.1,13.7,14.1c2.4,0,4.3-0.4,5.1-0.8v-9h-6.3v-7.8h16.5L569.3,746.9z"/>
			<path class="st0" d="M587.4,705.3v25.1c0,7.5,2.7,11.4,7.8,11.4c5.1,0,8.2-3.9,8.2-11.4v-25.1h9.8V730c0,13.3-6.7,20-18.4,20
				c-11.4,0-17.7-6.3-17.7-20v-24.3L587.4,705.3z"/>
			<path class="st0" d="M648.2,730.8h-16.1v10.6h18v8.2h-28.3v-43.6h27.5v8.2h-17.3v9h16.1V730.8z"/>
		</g>
	</g>
	<g>
		<path class="st2" d="M224,522c-24.7,0-44.3,20-44.3,44.3c0,24.7,20,44.3,44.3,44.3s44.3-20,44.3-44.3C268.4,542,248.3,522,224,522
			 M189.5,566.4c0-17.3,12.6-31.4,29.4-33.7v16.1h-4.7c-5.9,0-11,4.7-11,11v14.9c0,5.9,4.7,11,11,11h4.3v16.1
			C202,597.8,189.5,584.4,189.5,566.4 M233.8,557.7c0.8,0,1.6,0.8,1.6,1.6v14.5c0,0.8-0.8,1.6-1.6,1.6h-20.4c-0.8,0-1.6-0.8-1.6-1.6
			v-14.5c0-0.8,0.8-1.6,1.6-1.6H233.8z M228.7,600.5v-16.1h4.7c5.9,0,11-4.7,11-11v-14.5c0-5.9-4.7-11-11-11h-4.7v-15.3
			c16.9,2.4,29.4,16.9,29.4,33.7C257.8,584.4,245.2,597.8,228.7,600.5"/>
		<g>
			<g>
				<path class="st0" d="M304.1,587.2c4.3-0.4,5.1-1.2,5.1-4.7v-29.8c0-3.5-1.2-4.3-5.1-4.7v-1.6h18.8c10.2,0,15.7,3.5,15.7,9.8
					c0,4.7-2.7,7.1-9.8,9.4c4.3,0.8,6.3,2,8.6,3.9c2.4,2,3.5,4.7,3.5,7.1c0,6.7-6.7,11.8-17.3,11.8h-19.6V587.2z M319.4,565.6
					c7.5-0.4,9.4-2,9.4-8.2c0-5.5-2-8.2-6.3-8.2c-2.4,0-3.5,0.8-3.5,3.1L319.4,565.6z M319.4,582.8c0,2.7,1.2,3.9,3.9,3.9
					c5.1,0,7.5-3.1,7.5-9c0-6.7-3.1-10.2-9.4-10.2h-2V582.8z"/>
				<path class="st0" d="M392,568.3c0,12.6-9,21.6-21.6,21.6s-21.6-9-21.6-21.6s9-21.6,21.6-21.6S392,555.8,392,568.3z M359.4,569.1
					c0,12.2,3.9,19.2,11,19.2s11-6.7,11-19.2s-3.9-20-10.6-20C363.7,548.7,359.4,555.8,359.4,569.1z"/>
				<path class="st0" d="M438.6,580.9c-5.9,6.7-10.6,9-17.3,9c-12.6,0-21.6-9-21.6-21.2c0-12.6,9-22,21.2-22c3.1,0,5.9,0.8,9.4,2.4
					c1.6,0.4,2.4,0.8,2.7,0.8c1.2,0,2-0.8,2.7-2.7h1.6v14.1h-1.2c-2.4-4.3-3.5-6.7-6.3-9c-2.7-2.4-5.1-3.5-8.2-3.5
					c-7.5,0-11,6.7-11,19.2c0,5.9,0.8,10.6,2.7,13.7c2,3.1,5.5,5.1,9.8,5.1c2,0,3.5-0.4,5.5-1.2c3.1-1.2,4.7-2.7,8.6-6.3
					L438.6,580.9z"/>
			</g>
			<g>
				<path class="st0" d="M505.4,588.7h-35.7v-1.6c4.3-0.4,5.1-1.2,5.1-4.7v-29.8c0-3.1-1.2-4.3-5.1-4.7v-1.6h21.6v1.6
					c-5.1,0.4-5.9,0.8-5.9,5.5v29c0,2.7,1.2,3.5,5.1,3.5c5.1,0,8.2-1.2,11-3.5c2.4-2,3.5-3.9,5.1-8.6h2L505.4,588.7z"/>
				<path class="st0" d="M535.6,588.7H514v-1.6c4.7-0.4,5.5-1.2,5.5-4.7v-29.8c0-3.1-1.6-4.3-5.5-4.7v-1.6h21.6v1.6
					c-4.7,0-5.5,1.2-5.5,4.7v29.8c0,3.1,1.2,4.3,5.5,4.7V588.7z"/>
				<path class="st0" d="M540.7,546.7h34.9v12.6H574c-0.8-3.9-1.6-5.5-3.1-7.1c-2-2.4-5.5-3.1-11.4-3.1c-3.1,0-3.9,0.4-3.9,3.1v14.1
					c5.9,0,8.2-2.4,9.4-9h1.6v20.8h-1.2c-0.8-7.1-3.1-9.4-9.4-9.4v14.1c0,3.5,1.2,4.3,6.7,4.3v1.6h-22.4v-1.6
					c4.7-0.4,5.1-1.2,5.1-4.3v-29.4c0-3.5-1.2-4.3-5.1-4.3L540.7,546.7z"/>
				<path class="st0" d="M581.1,546.7h35.3v12.6h-1.6c-1.6-8.2-4.7-10.2-14.5-10.2c-3.1,0-4.3,0.4-4.3,3.1v14.5c6.3,0,9-2.4,9.8-9
					h1.6v20.8h-1.6c-0.8-7.1-3.5-9.4-9.8-9.4v14.5c0,2.7,1.2,3.5,4.7,3.5c4.7,0,7.8-1.2,11-3.5c2.4-2,3.5-3.5,5.1-7.5h1.6l-2.4,12.9
					h-34.9v-1.6c4.7-0.4,5.1-1.2,5.1-4.7V553c0-3.5-1.2-4.3-5.1-4.7L581.1,546.7z"/>
			</g>
		</g>
	</g>
</g>
</svg>
