<?xml version="1.0" encoding="UTF-8"?>
<svg data-name="图层_1" xmlns="http://www.w3.org/2000/svg" version="1.1" viewBox="0 0 800 800">
  <!-- Created by @FCLOGO 2025-7-2 GMT+8 22:43:45 . https://fclogo.top/ -->
<!-- FOR PERSONAL USE ONLY NOT FOR COMMERCIAL USE -->
  <path d="M582.2917,274.0253h3.5586c5.2191,0,9.441,5.2263,9.441,11.6844s-4.222,12.7682-9.441,12.7682h-3.5586v-24.4526ZM402.1667,116.1916c.0958.1224,17.156,26.514,48.876,39.2404.1878.0749.3836.1106.5744.1106.6139,0,1.1943-.3671,1.4374-.971.3159-.7943-.0683-1.6944-.862-2.012-15.3472-6.1444-27.2285-15.675-35.2636-23.6705-4.0158-3.9975-7.0694-7.6095-9.1087-10.2116-2.0462-2.6056-3.0499-4.1654-3.0565-4.1681-.464-.7187-1.4231-.9232-2.1397-.4547-.7187.463-.9232,1.4208-.4573,2.1397v-.0027ZM480.4455,160.6047c28.9085-.0297,52.7785-15.0533,58.7058-19.0985,15.9705,26.61,43.3985,37.3993,43.5361,37.4726.1865.075.3788.1103.5678.1103.6146,0,1.1984-.3704,1.4391-.9789.3164-.7965-.0742-1.6938-.8703-2.0081-.0049-.0021-1.6737-.6631-4.5041-2.1021-8.4955-4.3196-26.9732-15.5434-38.3393-35.494-.2193-.3836-.5952-.657-1.0272-.7478-.435-.0883-.8875.0093-1.2447.2771-.0015.0017-1.5863,1.1857-4.5346,3.0145-8.8447,5.4914-29.6639,16.4725-53.7286,16.4593-.8571,0-1.5484.6924-1.5484,1.5457,0,.8553.6912,1.5498,1.5484,1.5498M604.3369,182.0759c.0187,0,.037,0,.0568-.0009,24.3853-.9493,43.9406-11.1669,44.0532-11.2165.7572-.3959,1.0516-1.33.6558-2.0879-.3941-.758-1.3284-1.0539-2.0862-.6558-.0045,0-1.1569.6008-3.3143,1.5504-6.4737,2.8451-21.7376,8.6419-39.4282,9.3128-.8556.0342-1.5219.754-1.4877,1.6094.0319.8355.7204,1.4886,1.5505,1.4886M543.3855,124.1792c-3.2708-7.8812,6.7485-9.7262,4.3586-16.3491-1.9269.657-1.5097,1.8437-3.6896,1.8437,0-4.6951,2.0967-4.7786,1.3423-7.6294-1.2964.2293-2.557,1.945-3.9405,2.5993,0-3.3362.9215-6.0365.9215-6.0365-7.0436,1.0897-11.3184,21.2113,1.0076,25.572M348.385,155.5437c.1908,0,.3852-.0357.5744-.1108,31.7176-12.7263,48.7802-39.119,48.876-39.2386.4636-.7177.2601-1.6756-.4575-2.1419-.7171-.4651-1.6755-.2591-2.1418.4581-.0023.0027-1.0082,1.5613-3.0548,4.1658-6.1252,7.8196-21.3533,24.6742-44.3717,33.8817-.7937.3179-1.1801,1.2192-.8621,2.0129.2431.6036.8235.9728,1.4375.9728M216.7445,179.0881c.1902,0,.3821-.0355.5699-.1093.1355-.0737,27.5629-10.8599,43.5352-37.4726,5.9245,4.0419,29.7946,19.0689,58.7069,19.0973.8548,0,1.5466-.6933,1.5466-1.5477s-.6918-1.5454-1.5466-1.5454c-16.0438.0015-30.6447-4.8642-41.2164-9.7511-5.2874-2.4389-9.5646-4.8828-12.5123-6.7094-2.9499-1.8278-4.5308-3.0161-4.5383-3.0161-.3523-.2645-.8075-.3659-1.2413-.2755-.4344.092-.8108.3636-1.029.7502-7.5822,13.2977-18.3081,22.7206-27.1492,28.8031-4.4187,3.0413-8.3607,5.2471-11.1899,6.6885-2.8288,1.4402-4.5022,2.0945-4.5043,2.1021-.7949.3133-1.1851,1.2143-.8715,2.0092.2421.6057.8229.9767,1.4403.9767M150.8981,168.7716c-.3969.7544-.1036,1.6908.6553,2.0867v-.003c.112.0502,19.6696,10.2708,44.0538,11.2167.0222,0,.042.0023.0646.0023.8241,0,1.5097-.6543,1.5412-1.4888.0331-.8526-.6333-1.5735-1.485-1.6067-11.7931-.4502-22.5103-3.1709-30.2605-5.784-3.8747-1.3063-7.0088-2.584-9.1689-3.531-2.1589-.9464-3.3087-1.5504-3.3143-1.5504-.7577-.3969-1.692-.0998-2.0862.6582M256.6181,124.1792c12.3255-4.3608,8.0494-24.4823,1.007-25.572,0,0,.9211,2.7003.9211,6.0365-1.3829-.6543-2.6441-2.37-3.9398-2.5993-.7552,2.8508,1.3415,2.9344,1.3415,7.6294-2.1799,0-1.7611-1.1867-3.6884-1.8437-2.3899,6.6229,7.6294,8.4679,4.3587,16.3491M391.1308,92.2267c0,2.4897,8.1995-.1449,8.1995,1.4651,0,8.9301-4.9784,10.102.6707,10.102,2.8661,0,5.1845-5.0421,5.1845-11.2734,0-6.4421-2.553-9.5161-5.7091-9.5161-3.0746,0-1.6106,2.1607-1.6106,4.8306,0,2.4891-6.735.147-6.735,4.3917M370.9884,110.5546c-1.8948-.8391-2.2814-1.798-2.3779-4.1654-.0373-3.6322,1.9269-9.3733,2.3929-15.6881h1.023c.8548,0,1.5466-.6957,1.5466-1.5472,0-.8559-.6918-1.5477-1.5466-1.5477v-.0033h-2.4897c-.8346,0-1.5219.668-1.5451,1.5053-.1643,6.3115-2.4323,12.4026-2.4747,17.2811-.097,2.8745,1.1365,5.8559,4.3262,7.0403.189.075.383.1103.5726.1103.6151,0,1.1961-.3704,1.4376-.9761.3169-.7937-.0712-1.6917-.8649-2.009M679.8118,160.711c-.7457.6389-1.5416,1.2767-2.3827,1.9166,1.8227,1.3029,3.2167,4.3547,3.2167,9.5641,0,8.0983-4.7516,14.6514-10.1109,14.6514-1.961,0-.414-5.3663-.414-7.0178,0-2.623-3.6443-4.7449-8.1498-4.7449-4.7015,0-12.9738,4.5974-12.9738,4.5974-.006.0039-.0103.0054-.0169.0082l-60.791,33.7196h62.4362l-250.6252,536.5944L149.3752,213.4056h62.4374l-60.7928-33.7184c-.0048-.004-.0114-.0055-.0165-.0094-.028-.0159-.0551-.0304-.0826-.0447-.8085-.4437-8.443-4.5538-12.8921-4.5538-4.5049,0-8.1498,2.1221-8.1498,4.7457,0,1.6507,1.5466,7.017-.4139,7.017-5.3608,0-10.111-6.554-10.111-14.6514,0-5.2083,1.3924-8.2612,3.2161-9.563-.8404-.6399-1.6368-1.2777-2.3833-1.9166-6.3898-5.337-9.2599-11.6442-9.1374-19.4722.0121-9.8505,8.1729-17.677,18.1085-17.6956,5.4501.0287,9.9208,2.6191,13.0624,5.0024,1.5941,1.2183,2.863,2.4181,3.7448,3.3221,1.6452-.3196,3.2431-.4758,4.7816-.4758,4.8763-.0082,9.1931,1.6006,12.2609,4.4833,3.0761,2.8711,4.8003,6.9698,4.7888,11.3964-.0078,5.0444-2.1369,10.4426-6.4886,15.5328.2232.1632.4741.3384.7541.5171,1.6481,1.0666,4.255,2.3176,7.7015,3.4631,6.8948,2.2996,17.1584,4.2237,30.4142,4.2198,11.2387.0734,23.6561-7.4337,33.8293-16.2874,8.6829-7.5054,15.7325-15.797,19.4732-20.5068-2.6708-1.3151-4.9539-3.5316-6.7435-6.182-2.9274-4.3418-4.8014-10.0692-5.2099-16.4368h-.001c-.0519-.8361-.0767-1.6585-.0767-2.4644.0067-5.9881,1.3679-11.4629,3.8555-15.7302,2.4521-4.2232,6.2955-7.4685,11.1162-7.7854.2778-.0198.5314-.0261.7585-.0261,5.0394.0289,9.2256,3.1855,12.1259,7.4819,2.929,4.3438,4.8036,10.0717,5.2115,16.4488.0511.8226.076,1.6376.076,2.4467-.0078,5.9891-1.3669,11.4653-3.8539,15.733-1.2026,2.073-2.7454,3.9052-4.5759,5.276,2.7349,1.5923,6.5121,3.587,11.2232,5.5818,10.6373,4.5118,25.9908,9.0306,44.8132,9.0306,25.4441.0821,47.8177-14.8103,56.9321-25.7414,3.0746-3.5369,4.426-6.8407,4.301-7.6366.0027-.3008-.0463-.5743-.1147-.7842-.2299.1641-.5138.3867-.8274.6564-1.0488.9006-2.4164,2.2917-3.9966,3.754-3.1582,2.8673-7.3147,6.3652-13.0658,6.4324-3.3615.0067-6.3403-1.6586-8.3339-4.0671-2.0101-2.4192-3.1653-5.6171-3.1671-9.0853-.0203-3.1847.9454-5.5459,1.6469-7.2242.7018-1.7292,1.1389-2.7709,1.1564-4.7458.0156-.9205-.3824-2.0486-1.0675-3.7199-.6548-1.6453-1.5312-3.8317-1.5334-6.5975.0109-2.8568.9545-5.5879,2.6919-7.7519,1.7142-2.1524,4.4211-3.7618,7.5765-3.7503,7.1187-.043,11.0363,4.1615,12.965,5.1956.3284.1879.5638.296.7451.3576.0342-.1526.0629-.3665.0618-.6541.0253-.3314-.2336-1.4177-.8357-2.7439-.5886-1.3365-1.449-2.9432-2.3512-4.657-1.7693-3.4714-3.859-7.2562-3.9299-11.5842-.0156-3.3456,1.0449-6.8116,3.6553-9.3574,2.605-2.553,6.4637-3.8931,11.1862-3.8792,3.9355.0043,8.5665.873,14.1087,2.7769,5.5367-1.9011,10.1648-2.7725,14.1025-2.7769,4.7192-.0139,8.5779,1.3261,11.1856,3.8758,2.6116,2.5491,3.671,6.0152,3.6577,9.3608-.0315,3.2575-1.2717,6.1683-2.5768,8.9209-1.3261,2.7289-2.8237,5.3068-3.7055,7.3203-.6041,1.3262-.8595,2.4125-.8358,2.7439,0,.2743.0265.4954.0607.6552.1824-.0618.4178-.1697.7435-.3588.6417-.3665,1.524-1.039,2.6429-1.8107,2.2163-1.5516,5.6156-3.4191,10.3264-3.3849,3.155-.0115,5.8629,1.5979,7.5765,3.7503,1.7362,2.164,2.6798,4.8951,2.6888,7.7519-.0027,2.7658-.8781,4.9523-1.5334,6.5975-.6858,1.6713-1.0803,2.7994-1.0656,3.7199.0204,1.9749.4554,3.0166,1.1575,4.7458.6979,1.6783,1.6662,4.0395,1.6464,7.2242-.0027,3.4681-1.1575,6.6661-3.1693,9.0853-1.9909,2.4086-4.9711,4.0738-8.3322,4.0671-4.0209-.0095-7.3268-1.8278-9.9697-3.817-2.653-2.003-4.814-4.3054-6.4727-5.8151-.561-.5368-1.0786-.9458-1.4469-1.2075-.0667.2094-.1184.48-.114.7809-.1291.7959,1.2241,4.0997,4.2968,7.6366,3.0283,3.6043,7.5497,7.7238,13.1606,11.5533,11.2327,7.6829,26.7941,14.2013,43.7738,14.188,27.1546.0132,47.131-9.4319,56.0358-14.6114-1.8299-1.3718-3.3736-3.204-4.5765-5.2747-2.4885-4.269-3.8482-9.7461-3.856-15.7341,0-.8054.0244-1.6277.0784-2.4506.4077-6.3738,2.2823-12.1033,5.2103-16.446,2.8997-4.2943,7.0865-7.4531,12.1271-7.4819.2242,0,.4778.0051.7236.0237,4.8564.3203,8.7004,3.5652,11.1522,7.7866,2.4846,4.2666,3.845,9.7438,3.8527,15.7319,0,.8118-.0252,1.6277-.0739,2.4434l-3.2452-.1913,3.2452.2045c-.4083,6.3706-2.2836,12.1007-5.2125,16.4434-1.7897,2.6507-4.072,4.8647-6.7422,6.1799.6032.7623,1.2903,1.6112,2.0594,2.542,3.1996,3.8616,7.7673,9.0168,13.1937,14.1461,10.8278,10.3221,25.2015,20.2191,38.0485,20.1088,18.6251.0221,31.4064-3.8433,37.0907-7.0657.7171-.39,1.3113-.7859,1.7781-1.1365-4.3549-5.0869-6.4824-10.4883-6.4891-15.5305-.0138-4.4238,1.7109-8.5253,4.787-11.3964,3.0685-2.8827,7.3852-4.4937,12.2611-4.487,1.54,0,3.1383.1575,4.787.4789.8807-.9052,2.1502-2.1044,3.7413-3.3215,3.1458-2.3833,7.6168-4.9738,13.0663-5.0024,9.9351.0186,18.0948,7.8451,18.1059,17.6956.1244,7.828-2.7466,14.1352-9.1387,19.4722ZM638.8932,145.2873c4.1151.3578,7.7775.9584,11.0549,1.7482.1886-.1873.3765-.3737.5789-.5455,1.2495-1.0792,2.7571-1.8729,4.4128-2.3154-.2971-1.4586-.64-3.369-.9569-5.6552-1.7115-.4288-3.295-.6295-4.733-.6295-3.494.0088-6.0735,1.1014-7.8141,2.7261-1.2985,1.2293-2.1787,2.7863-2.5425,4.6714ZM654.7755,151.4105c-.7673.6756-1.1063,1.4249-1.1129,2.208.0066.7854.3455,1.5334,1.1129,2.2112.7633.6636,1.9275,1.147,3.2734,1.1443,1.3492.0027,2.5113-.4807,3.2746-1.1443.7683-.6778,1.1078-1.4258,1.1101-2.2112-.0023-.7831-.3418-1.5324-1.1101-2.208-.7633-.6649-1.9254-1.1483-3.2746-1.1443-1.3459-.0039-2.5101.4795-3.2734,1.1443ZM534.8707,124.414c1.8135,3.0635,3.9527,4.4707,5.9419,4.5814.108.0089.2178.0116.3209.0116,2.0663.0276,4.5566-1.406,6.7474-4.6245,2.1558-3.1675,3.7763-7.8746,4.1064-13.1936h-.0029c.043-.7028.0657-1.3901.0628-2.0613.0105-4.9805-1.1828-9.4286-2.962-12.4468-1.8146-3.0656-3.9509-4.4752-5.9759-4.5848-.0826-.0076-.1724-.0115-.2888-.0115h-.0606c-2.0516,0-4.5154,1.4374-6.6821,4.6244-2.1573,3.1727-3.78,7.8847-4.1084,13.224-.0463.6753-.0646,1.3542-.0646,2.0311-.0076,4.9778,1.1862,9.4269,2.9658,12.4501ZM258.8642,129.0082c.103,0,.2123-.0051.3142-.0095,1.9997-.1113,4.1384-1.5212,5.9518-4.5847,1.778-3.0231,2.9713-7.4723,2.9635-12.4512,0-.6702-.0225-1.3558-.0643-2.0421-.3275-5.3271-1.9485-10.0388-4.1053-13.2119-2.1881-3.2194-4.6805-4.6508-6.7447-4.6244-.1219,0-.2133.0055-.3176.0133-1.9952.1102-4.1345,1.5175-5.9488,4.5818-1.7804,3.0193-2.9736,7.4686-2.9649,12.4474,0,.6757.0215,1.3564.0646,2.042l-3.2405.2106,3.2432-.2022c.3263,5.3245,1.9474,10.0347,4.1051,13.2057,2.1865,3.2194,4.6764,4.6525,6.7438,4.6251ZM145.0629,144.1746c1.6551.4441,3.1627,1.2378,4.4142,2.3182.1992.1703.3881.356.5744.5428,3.2762-.7898,6.9399-1.3895,11.0552-1.7482-.3655-1.8839-1.2468-3.4388-2.5455-4.6714-1.7374-1.6247-4.3217-2.7155-7.8145-2.7233-1.431-.0027-3.0168.1992-4.7275.629-.317,2.2852-.6598,4.1943-.9563,5.653ZM145.2236,151.4083c-.7616-.6627-1.9258-1.1461-3.2729-1.1432-1.3471-.0029-2.511.4805-3.2734,1.1432-.7682.679-1.1074,1.4246-1.1122,2.2129.0049.7833.344,1.5307,1.1122,2.2103.7624.6619,1.9263,1.1431,3.2734,1.1414,1.3471.0018,2.5113-.4795,3.2729-1.1414.769-.6796,1.1097-1.427,1.1124-2.2103-.0027-.7883-.3434-1.5339-1.1124-2.2129ZM131.3642,155.8931c-.1896-.728-.301-1.4865-.2998-2.2719-.0012-.9211.1526-1.8029.4101-2.6429-1.4601-.2939-3.3826-.5474-5.7704-.5474-1.3613,0-2.8672.0826-4.5031.2888-.8511.1063-1.6248-.4946-1.7311-1.3414-.1069-.8517.4949-1.6245,1.3426-1.7308,1.7699-.2222,3.4058-.3115,4.8917-.3115,3.0635,0,5.4954.3815,7.2172.7856.1671-.2266.3452-.4422.5291-.6517-.1223-.1036-.2374-.2033-.3708-.3125-1.8995-1.5582-4.9023-3.6862-9.2594-5.876-.765-.3854-1.0726-1.3152-.689-2.0786.3831-.765,1.3156-1.0739,2.078-.6879,5.223,2.6258,8.6474,5.1942,10.6509,6.941.0039-.0015.0072-.0043.0111-.0067-.6388-2.9079-2.1502-5.384-3.0149-6.5677-.3704-.5098-.5843-.7529-.5843-.7529-.5618-.6439-.4945-1.6229.1511-2.1823.6448-.5611,1.6215-.4954,2.1827.1494.061.1042,2.9487,3.3478,4.1508,8.1052,1.0159-.2823,2.0879-.4327,3.1941-.4339.0117,0,.0226.0012.0354.0016.0082-.0412.0159-.0775.0241-.1201.2889-1.4093.629-3.2871.9409-5.547-.2343-.1675-.4497-.3655-.6366-.5959-.0021,0-.0579-.071-.2332-.2689-.1742-.1989-.4476-.4979-.8009-.861-.7054-.7252-1.744-1.7037-3.0049-2.666-2.5305-1.9523-5.8998-3.6945-9.1177-3.6659-6.4874.0088-11.5974,5.0758-11.6079,11.1949.1234,6.536,1.5528,9.7925,6.881,14.5452,1.0803.9365,2.3355,1.9027,3.7574,2.9091.965-.9343,2.024-1.8741,3.1758-2.8ZM220.1426,210.5941l9.8391-13.9614-34.045.5336,24.2059,13.4279ZM206.0207,192.0535l33.6166-.5281-13.2712,18.8345c22.744-7.0346,77.5551-20.7504,162.0242-21.9211l-23.6457-12.1128,23.2302-11.8988c-77.6064,1.6182-148.6466,18.4464-181.954,27.6263ZM298.4628,165.8635c-16.6171-3.7055-29.614-10.3937-35.0249-13.4631-5.4264,7.6669-13.6813,16.4478-24.004,23.6904-.6613.4636-1.3339.9187-2.0112,1.3679,17.3192-3.9645,38.0635-8.1262,61.0401-11.5952ZM412.0301,164.4277l23.2277,11.8994-23.6418,12.1116c84.461,1.1707,139.27,14.8859,162.0167,21.9211l-13.269-18.8306,33.618.5264c-11.1378-3.0717-26.4897-6.9977-44.9052-10.9228-36.6431-7.8162-85.3992-15.6238-137.0464-16.7051ZM562.5793,177.4598c-.6786-.4504-1.3499-.9055-2.0119-1.3691-10.324-7.2426-18.5814-16.0246-24.0056-23.6921-5.4071,3.0701-18.4056,9.7594-35.0215,13.4649,22.976,3.469,43.7186,7.6317,61.0389,11.5963ZM424.3946,176.3271l-23.4753-12.0256c-.3058-.0005-.6113-.0045-.916-.0045-.3064,0-.6125.0039-.9199.0039l-23.4783,12.025,23.4891,12.0346c.3049,0,.603-.0034.909-.0034.3026,0,.6003.0034.9028.0034l23.4885-12.0334ZM439.447,159.1071c-20.373-9.6164-34.121-23.7394-37.8817-27.8251h-3.1281c-3.7617,4.0858-17.5109,18.2087-37.8821,27.8251,12.8983-.8318,26.0941-1.3083,39.4482-1.3089,13.3512.0005,26.5455.4771,39.4437,1.3089ZM228.7731,294.2712l-4.2039-4.4052s-3.5033,4.2045-10.01,4.2045c-6.0311,0-10.9101-4.7044-10.9101-13.6143,0-6.9708,4.7577-12.4886,11.0478-12.4886,2.6573,0,5.3317,1.3784,5.3317,1.3784l2.3386-4.8051s-3.7777-3.1104-10.5854-3.1104c-8.9622,0-15.842,9.2413-15.842,20.5287,0,10.9261,8.8431,19.7682,19.7708,19.7682,8.1575,0,13.0626-7.4564,13.0626-7.4564ZM421.8024,627.3489l-21.8021,23.2151-21.8019-23.2151v37.9169h6.3453v-19.0352l15.4566,14.5474,15.4564-14.5474v19.0352h6.3456v-37.9169ZM431.4376,550.4525h-62.8755l31.4383,67.3091,31.4372-67.3091ZM468.9582,509.3789h-137.9155v34.5729h137.9155v-34.5729ZM488.7827,427.675c-2.8529-1.7573-6.7525-2.9208-11.0931-2.912-4.6989-.0067-8.9083,1.3365-11.7991,3.3495-2.9125,2.0416-4.4034,4.5649-4.4012,7.133v30.5834h-19.3984v-30.5834c.0062-2.5681-1.4847-5.0914-4.4005-7.133-2.89-2.0129-7.1009-3.3561-11.7975-3.3495-4.6978-.0067-8.906,1.3365-11.7948,3.3495-2.913,2.0416-4.4041,4.5649-4.4007,7.133v30.5834h-19.3976v-30.5834c.0049-2.5681-1.4889-5.0914-4.4012-7.133-2.892-2.0129-7.097-3.3561-11.7969-3.3495-4.6978-.0067-8.9066,1.3365-11.7958,3.3495-2.9157,2.0416-4.4061,4.5649-4.4019,7.133v30.5834h-19.3966v-30.5834c.0017-2.5681-1.4886-5.0914-4.4044-7.133-2.8892-2.0129-7.0981-3.3561-11.7942-3.3495-4.3389-.0076-8.2402,1.1515-11.0919,2.9097l35.1251,75.205h107.3162l35.1247-75.2026ZM500.6154,402.3422h-201.2311l9.7285,20.8257c3.6625-2.127,8.2291-3.3495,13.1958-3.3585,5.6237.0062,10.7524,1.5632,14.6195,4.2364,3.8419,2.6491,6.5266,6.6076,6.5316,11.1996v25.6282h9.4918v-25.6282c.0021-4.592,2.687-8.5505,6.5316-11.1996,3.8642-2.6732,8.994-4.2302,14.6184-4.2364,5.6254.0062,10.7553,1.5632,14.6201,4.2364,3.8445,2.6491,6.5278,6.6076,6.5305,11.1996v25.6282h9.4918v-25.6282c.0023-4.592,2.686-8.5505,6.5304-11.1996,3.865-2.6732,8.9937-4.2302,14.6186-4.2364,5.627.0062,10.7551,1.5632,14.6211,4.2364,3.8434,2.6491,6.5289,6.6076,6.5331,11.1996v25.6282h9.4899v-25.6282c.0015-4.592,2.6885-8.5505,6.5308-11.1996,3.8671-2.6732,8.9942-4.2302,14.6218-4.2364,4.9634.0096,9.5438,1.2165,13.2051,3.343l9.7207-20.8102ZM311.8146,371.5817l-4.5648,25.8069h15.6068v-15.1323c0-2.1677,2.4467-3.9205,5.4688-3.9205s5.4688,1.7529,5.4688,3.9205v15.1323h15.6061l-4.566-25.8054,5.6718-11.7672v-14.4976h-6.1882v12.5883h-13.2069v-12.5883h-5.5712v12.5883h-13.2063v-12.5883h-6.1903v14.4976l5.6715,11.7657ZM362.6569,345.6865c3.5168-2.7294,8.1871.3049,12.1605-1.1882,2.5125-.9437,4.2877-5.3829,4.8648-8.023.8842-4.0501,1.4451-8.1934,1.824-11.8853-1.5109-2.8104-4.361-1.524-7.2977-3.5667-2.1237-1.4778-2.7889-5.4858-6.0789-5.348-2.2902.0958-3.025,2.375-4.8631,3.5656-1.0451.6751-2.4479.8577-3.3446,1.486-3.2084,2.2438-4.6398,5.7919-8.5125,7.1313-2.4214.8367-4.5092.0732-6.9928,1.7824-1.9765,4.2778,2.7007,6.8784,3.2795,10.7266h7.7634v20.5812l-5.4699,11.3466,4.4398,25.0937h91.1407l4.4404-25.0948-5.4699-11.3478v-20.5789h7.7638c.581-3.8488,5.2578-6.4493,3.28-10.7266-2.4825-1.7092-4.5714-.9457-6.9916-1.7824-3.8726-1.3394-5.3052-4.8875-8.5135-7.1313-.8968-.6282-2.2995-.8109-3.3435-1.486-1.8377-1.1906-2.5734-3.4697-4.863-3.5656-3.2912-.1378-3.9564,3.8702-6.0813,5.348-2.9349,2.0427-5.7851.7562-7.2953,3.5667.3776,3.692.941,7.8352,1.8239,11.8853.5771,2.6401,2.3524,7.0793,4.8646,8.023,3.9734,1.4931,8.6436-1.5412,12.1596,1.1882-.1428,2.1354-2.2503,4.1351-3.9519,5.6458-3.5352,3.1385-6.5491,4.8218-12.7686,5.6453,1.0477,4.4548,5.0746,7.0259,10.0326,6.2405,1.9577-.3091,3.0881-2.1998,4.5609-2.0792,1.3769.1108,2.7411,1.9269,2.7345,2.9703-.0159,2.5091-6.4454,5.8394-9.1204,6.2399-4.7225.7095-6.9063-2.079-11.2479-1.7819.5841,3.4284,1.3256,8.75,5.4727,9.8054,2.0982.5336,5.105-.8938,6.6879,1.1879-2.1247,9.8535-12.4736-.2144-17.3279,1.1888.2491,3.9068,4.8201,8.226,8.2077,10.9957,2.0459-.0198,4.335-.2772,4.8635,1.1877-1.5073,3.5595-8.2297,1.9832-10.64,1.1885-6.8246-2.2556-9.9139-8.9789-14.8466-12.4799-4.9326,3.501-8.0218,10.2243-14.8467,12.4799-2.4086.7947-9.1313,2.371-10.64-1.1885.5298-1.4649,2.8177-1.2075,4.8647-1.1877,3.3886-2.7697,7.9563-7.0889,8.2078-10.9957-4.8532-1.4033-15.2044,8.6647-17.3281-1.1888,1.582-2.0817,4.5896-.6542,6.688-1.1879,4.1472-1.0554,4.8874-6.377,5.4715-9.8054-4.3416-.2971-6.5242,2.4914-11.2478,1.7819-2.6729-.4005-9.1045-3.7308-9.1205-6.2399-.0066-1.0434,1.3586-2.8595,2.7355-2.9703,1.4733-.1205,2.6032,1.7701,4.5611,2.0792,4.9567.7853,8.9843-1.7858,10.0325-6.2405-6.2216-.8234-9.2334-2.5067-12.7691-5.6453-1.7017-1.5106-3.8083-3.5103-3.9525-5.6458ZM474.4612,357.9068v-12.5874h-5.5723v12.5874h-13.2064v-12.5874h-6.1888v14.5006l5.67,11.7632-4.5659,25.8054h15.61v-15.1323h-.001c0-2.1677,2.4455-3.9205,5.4688-3.9205s5.4688,1.7529,5.4688,3.9205v15.1323h15.604l-4.5648-25.8054,5.6728-11.7632v-14.5006h-6.1888v12.5874h-13.2064ZM502.9293,397.3886l82.896-177.4833H214.1743l82.8961,177.4833h5.1493l4.4398-25.0964-5.4711-11.3472v-20.5779h4.4608c1.2511-5.1575,3.4967-9.1286,8.3664-10.4294,4.4205-1.1801,9.2373.8004,13.3766-.8907,3.4498-1.4099,5.7841-6.818,9.1199-8.6182,6.0717-3.2758,14.5483-4.1964,17.3303-10.1016.5744-1.2219,1.3179-3.936.9105-5.6463-.5269-2.2163-6.2074-5.4435-9.1192-6.8348-8.0566-3.8467-23.3923-1.1894-34.6584-2.0801-3.8109-.3008-7.9706-1.5112-8.5114-5.348,3.5298-1.0858,7.0261-.4158,11.2474-1.486,2.2048-.559,8.2027-3.2911,8.2093-5.0528.0198-5.4838-12.4026-.7292-14.2894-.2948-7.2275,1.6575-18.8592,2.7177-25.2331-.5958-3.0277-1.5742-5.2263-3.9395-6.0801-6.8336,3.1797.4564,5.9407,1.1393,9.7288.5941,3.4979-.5032,11.3268-2.946,10.9443-5.348-.5071-3.1891-7.475-2.6855-11.5516-2.3773-4.6818.3517-9.5471,2.3668-13.6815,2.6732-11.5671.8583-17.2645-3.57-21.28-8.9143,5.8956.769,10.7944-.6372,14.2872-1.486,1.5466-.3737,3.5595-.1553,5.1689-.5942,1.5559-.4233,3.5327-1.3426,3.3446-2.6738-14.6498-.2816-26.6487,2.5867-33.1371-5.6463-2.3992-3.0431-4.9507-6.8604-4.5611-12.1833,3.5745.9641,5.6331,3.4092,7.6003,5.944,3.2338-.1481,7.5898,1.6596,11.5527,1.7831,9.5482.295,19.5306-3.8533,29.4895-.8917,4.3845,1.3046,8.3586,6.0167,12.4643,8.023,3.7878,1.8503,8.4099,3.3236,12.7676,5.348,4.4541,2.0687,9.4461,4.0497,13.9856,4.4575,6.7047.603,19.7457-.4756,17.9356-8.0224-.9493-3.9591-7.9629-2.7985-11.5518-5.0521-2.95-1.8503-1.9616-3.8926-3.9513-6.8341-5.378,3.4979-11.7988-1.8515-17.6331-1.485-4.0979.2547-5.9873,3.9857-10.0331,3.268,1.0341-6.5977,5.4689-10.0233,11.8571-10.4003,3.8803-.2277,8.5655,1.6552,12.7676.5948,2.6027-.657,3.8419-4.7221,7.2966-5.6465,4.0798-1.0912,10.0178.8439,14.8968.2977,4.4602-.5011,6.4886-3.5688,10.3358-3.2684,2.4401,1.4926-.3098,4.6371,1.2161,6.8342,4.5935,2.3867,8.3696-3.5938,12.4648-2.3767.5452,3.0419-.188,4.9886-1.5196,7.427-1.0969,2.0092-3.9783,3.107-3.345,5.3494.4976,1.7615,8.3493,4.6471,11.5527,4.7538,5.1927.1769,6.5474-4.5003,10.3369-4.1592,1.121,2.6689-.4543,5.1355-1.8239,7.1324-1.4397,2.0949-2.3448,4.3509-3.6489,6.2388-1.1663,1.6887-4.0676,2.434-3.6476,4.7556,4.3879,2.9307,8.7516,1.2341,13.6804,2.9709,4.5582,1.6061,4.5438,6.8324,9.3738,6.8324s4.8157-5.2263,9.374-6.8324c4.9288-1.7368,9.2925-.0402,13.6815-2.9709.4194-2.3215-2.4821-3.0668-3.6478-4.7556-1.3051-1.8879-2.2085-4.1439-3.6499-6.2388-1.3685-1.9969-2.9439-4.4635-1.8216-7.1324,3.7881-.3411,5.1418,4.3362,10.3357,4.1592,3.2035-.1068,11.054-2.9924,11.5507-4.7538.6348-2.2424-2.2473-3.3401-3.3441-5.3494-1.3312-2.4384-2.0648-4.3851-1.519-7.427,4.0969-1.217,7.8719,4.7634,12.4643,2.3767,1.5274-2.197-1.2231-5.3416,1.2161-6.8342,3.847-.3004,5.8771,2.7673,10.3369,3.2684,4.8777.5462,10.8167-1.3889,14.8956-.2977,3.4547.9244,4.6949,4.9895,7.2972,5.6465,4.2021,1.0604,8.8867-.8225,12.767-.5948,6.3881.377,10.823,3.8026,11.8575,10.4003-4.0462.7177-5.9344-3.0133-10.0326-3.268-5.8331-.3665-12.256,4.9828-17.6328,1.485-1.9909,2.9415-1.0016,4.9838-3.9525,6.8341-3.5888,2.2536-10.6015,1.093-11.5518,5.0521-1.8101,7.5468,11.231,8.6254,17.9365,8.0224,4.5386-.4077,9.5317-2.3887,13.9847-4.4575,4.3587-2.0244,8.9799-3.4976,12.7687-5.348,4.1047-2.0063,8.0798-6.7184,12.4645-8.023,9.9583-2.9616,19.9407,1.1867,29.4883.8917,3.9639-.1235,8.3199-1.9312,11.5538-1.7831,1.9672-2.5347,4.0248-4.9799,7.6002-5.944.3887,5.3229-2.1616,9.1403-4.5609,12.1833-6.4886,8.233-18.4884,5.3647-33.1371,5.6463-.1886,1.3312,1.7874,2.2504,3.3445,2.6738,1.6094.4389,3.6225.2205,5.168.5942,3.4928.8488,8.3928,2.255,14.2878,1.486-4.0149,5.3443-9.7125,9.7726-21.2797,8.9143-4.136-.3065-9.0006-2.3215-13.6801-2.6732-4.0789-.3082-11.0447-.8118-11.554,2.3773-.3815,2.402,7.4474,4.8448,10.9453,5.348,3.7872.5452,6.5482-.1376,9.7278-.5941-.8538,2.8941-3.0514,5.2593-6.0795,6.8336-6.3734,3.3135-18.0062,2.2533-25.2332.5958-1.8863-.4344-14.3088-5.189-14.2889.2948.0066,1.7617,6.004,4.4938,8.2077,5.0528,4.2231,1.0702,7.7192.4001,11.248,1.486-.5392,3.8368-4.7006,5.0472-8.5103,5.348-11.2673.8907-26.603-1.7666-34.659,2.0801-2.9112,1.3913-8.5929,4.6185-9.1187,6.8348-.408,1.7103.335,4.4244.9112,5.6463,2.7799,5.9052,11.2568,6.8257,17.3279,10.1016,3.3362,1.8002,5.6711,7.2083,9.1226,8.6182,4.1371,1.6911,8.9539-.2893,13.3757.8907,4.8696,1.3008,7.1151,5.272,8.3663,10.4294h4.4575v20.5789l-5.4695,11.3478,4.4388,25.0948h5.1497ZM583.6835,264.2755h-8.0472v42.8698h8.0472c10.7777,0,18.3013-5.9208,18.3013-22.5577,0-14.1207-7.5236-20.3121-18.3013-20.3121ZM604.0707,197.1647l-34.0515-.5336,9.8403,13.9642,24.2112-13.4306ZM669.1906,160.4752c-.5959-.5629-1.2188-1.1238-1.8834-1.6812-.4956.7271-1.0749,1.389-1.7319,1.9517-2.0024,1.7302-4.6552,2.723-7.5264,2.7263-2.8682-.0034-5.524-.9961-7.5219-2.7263-1.9981-1.7108-3.3677-4.2638-3.3633-7.1272-.0018-1.3759.3203-2.6765.8691-3.85-2.7697-.6097-5.8458-1.0815-9.2598-1.3852.3235,3.4351,2.188,7.6504,6.5022,11.9667.782.7821,1.1129,1.9143.8754,2.9974-.3275,1.3708-1.0236,2.2835-1.8002,3.1245-.7954.8307-1.7505,1.577-2.8909,2.3151-2.2787,1.4646-5.3179,2.8794-9.1652,4.1648-7.6844,2.5579-18.5831,4.5516-32.4723,4.5516-16.0652-.1097-31.1313-11.2083-42.5148-21.8836-8.022-7.5876-14.1601-15.1206-17.0967-18.9244-7.4834,4.8132-30.0751,17.3696-62.4092,17.3882-28.0199-.0832-51.4576-15.7142-61.9071-28.058-3.4475-4.2219-5.7037-7.8698-5.8275-11.8195.0066-1.8228.5069-3.5286,1.5139-4.9551.9752-1.3961,2.6898-2.6258,4.8329-2.6287,2.5966.1313,3.9155,1.4051,5.3332,2.5272,1.3796,1.1895,2.7338,2.5857,4.1685,3.9062,2.8788,2.7035,5.9485,4.7795,8.658,4.7122,1.1982-.006,2.3441-.5573,3.3385-1.733.9778-1.1641,1.6661-2.9167,1.664-4.9227-.0183-1.9786-.4557-3.0193-1.1581-4.7496-.7-1.6739-1.665-4.0383-1.6503-7.2205.0162-2.59.9222-4.5569,1.5385-6.134.6415-1.6034,1.0659-2.8227,1.0632-4.1835.011-1.3621-.4994-2.7598-1.2468-3.6675-.7684-.9185-1.5686-1.3261-2.5178-1.3367-4.0721.0364-5.7945,1.7136-8.5604,3.5793-.317,1.7908-1.2903,3.5177-2.2972,5.2732-.2758.4652-.5567.9276-.8358,1.3813l4.2562.8708c.855.0381,1.5186.7606,1.4805,1.615-.0353.83-.7209,1.4811-1.55,1.4811-.0214,0-.0435-.0012-.0661-.0012l-5.272.3858c.275.3721.5874.7756.9348,1.1884,1.3257,1.6044,3.1875,3.2651,4.8525,3.7419.8201.248,1.2822,1.1128,1.0367,1.9291-.2021.6703-.819,1.1013-1.4847,1.1013-.1472,0-.2971-.021-.4443-.0655-5.3089-1.7401-8.671-8.0947-8.8002-8.1786-.2508-.4348-.2767-.9701-.0616-1.4237.7809-1.6605,2.1353-3.6343,3.2883-5.597.3782-.623.7209-1.2497,1.0142-1.8438-.5153.114-1.0488.1968-1.626.1968-1.8416.037-3.6962-.9625-4.701-2.3928-1.0383-1.4264-1.4315-3.1031-1.4364-4.8402.0249-1.9882.6559-3.665,1.3874-5.3654.7463-1.6899,1.6662-3.3787,2.5414-5.0576,1.7926-3.3114,3.2575-6.6963,3.1864-8.562-.0127-2.0955-.5935-3.623-1.6999-4.7083-1.1116-1.0812-3.0502-2.0145-6.6416-2.0276-3.1479-.0061-7.4657.7765-13.002,2.7784-.7049.2535-1.4985.2535-2.2052,0-5.5378-2.0019-9.8568-2.7845-13.0041-2.7784-3.5947.0131-5.5306.9464-6.6422,2.0276-1.1062,1.0853-1.6855,2.6128-1.7004,4.7083-.0315,1.3873.7325,3.6677,1.9281,6.0879,1.1744,2.4377,2.6815,5.0073,3.8008,7.5317.7321,1.7004,1.366,3.3772,1.3892,5.3654-.0051,1.7371-.3996,3.4138-1.4364,4.8402-.3887.5519-.904,1.0374-1.4949,1.4261l3.9183,6.6224c.0684.1147.1014.2419.1549.3627-.0457-.6163-.0682-1.2402-.0706-1.8708.0089-5.0172,1.4297-9.6042,3.8947-13.0795,1.4899-2.1082,3.4427-3.8307,5.7042-4.858l-6.4484-4.899c-.6818-.5165-.8157-1.4875-.2993-2.1694.5176-.6796,1.4887-.8118,2.1706-.2954l6.763,5.138v-9.0017c-4.2535-.5964-7.0243-2.3723-9.8955-2.2886-1.4496.0104-2.4653.598-3.3363,1.4507-.8532.8444-1.4544,1.9512-1.7698,2.6843-.2143.4879-.2905.7546-.2905.7546v.0027c-.1972.6752-.8145,1.1129-1.486,1.1129-.1433,0-.2881-.0198-.4338-.0618-.819-.2419-1.2903-1.1023-1.0476-1.9213.0303-.0988.502-1.7346,1.7466-3.4724,1.2142-1.7142,3.3991-3.6489,6.6174-3.6417,4.8003.0985,7.7194,2.5509,12.3659,2.4875.0027,0,.0043-.0024.0043-.0024,4.6494.0696,7.5657-2.3876,12.3692-2.4863,3.2194-.006,5.4059,1.9293,6.6164,3.645,1.2429,1.7357,1.7158,3.3715,1.7488,3.4681l.0027.0027c.2391.8206-.2314,1.6788-1.0528,1.9203-.1454.0412-.2916.061-.4371.061-.6679,0-1.2853-.4365-1.4826-1.1123-.0067,0-.076-.2694-.2894-.7567-.209-.4873-.5462-1.1453-.9999-1.7765-.9459-1.2849-2.202-2.353-4.1063-2.3585-2.8723-.0837-5.6408,1.6929-9.8928,2.2886v9.0002l6.7603-5.1365c.6796-.5164,1.6519-.3842,2.1706.2966.5154.6796.3842,1.6518-.2971,2.1694l-6.45,4.8979c2.2626,1.0285,4.215,2.7498,5.7036,4.858,2.4666,3.4753,3.887,8.0623,3.8936,13.0795-.0067,5.0181-1.4271,9.6056-3.8936,13.0807-2.4384,3.4531-6.1047,5.8884-10.3639,5.8906-4.2589-.0021-7.9265-2.4374-10.3649-5.8906-1.8256-2.575-3.0752-5.762-3.6058-9.2809-.0663.3353-.17.666-.3445.974-.5176.9028-1.4292,1.47-2.4451,1.5908-2.2536,4.0776-6.3353,6.0001-6.4229,6.0893-.2221.1121-.4585.1632-.6901.1632-.5666,0-1.1143-.3131-1.3845-.8559-.383-.7641-.0739-1.6944.6905-2.0748,0-.006.2668-.1322.7547-.4398.4872-.3065,1.1553-.7715,1.8503-1.377.4872-.421.9772-.9109,1.433-1.4538h-4.5158c-1.7975,0-3.251-1.4559-3.251-3.2521s1.4535-3.251,3.251-3.251h2.2047l-1.3415-2.2664c-.4537-.767-.5555-1.6436-.3545-2.4443-.4982-.2073-.9701-.4332-1.3818-.6753-1.1641-.6884-2.1017-1.4265-3.0349-2.062-1.8948-1.2628-3.5496-2.2135-6.65-2.2466-.9529.0106-1.7533.4182-2.5194,1.3367-.7447.9078-1.255,2.3055-1.248,3.6675-.0027,1.3608.4206,2.5801,1.0677,4.1835.6141,1.577,1.5169,3.544,1.5328,6.134.0182,3.1821-.9502,5.5466-1.6469,7.2205-.7043,1.7302-1.1393,2.7709-1.1603,4.7496-.0027,2.0059.6885,3.7585,1.6635,4.9227.9938,1.1757,2.1397,1.7269,3.3408,1.733,2.0538.0175,4.2415-1.0626,6.4749-2.8326,2.2289-1.7439,4.2986-4.0043,6.3523-5.7858,1.4154-1.1221,2.7361-2.3959,5.332-2.5272,2.143.0029,3.859,1.2326,4.8345,2.6287,1.0077,1.4265,1.5037,3.1323,1.5124,4.9551-.125,3.9497-2.3794,7.5975-5.8265,11.8195-3.4962,4.1532-8.4133,8.5974-14.4669,12.7391-12.0995,8.2562-28.78,15.3057-47.4413,15.3189-32.334-.0186-54.926-12.5762-62.4094-17.3885-2.9377,3.8026-9.0767,11.3371-17.0987,18.9247-11.3796,10.6754-26.4462,21.7739-42.5138,21.8836-12.1485,0-22.0175-1.528-29.4391-3.6214-7.447-2.15-12.3405-4.6138-15.0903-7.4101-.7755-.841-1.4722-1.7537-1.7963-3.1245-.2415-1.0831.0892-2.2124.8736-2.9974,4.3124-4.3163,6.1787-8.5316,6.5023-11.9667-3.4141.3036-6.4912.7755-9.2614,1.3852.55,1.1735.8724,2.4765.8707,3.8527.0027,2.8607-1.3658,5.4137-3.36,7.1245-2.0012,1.7281-4.6573,2.723-7.5264,2.7263-2.8694-.0034-5.5239-.9982-7.5242-2.7263-.6568-.5627-1.2372-1.2247-1.7305-1.9511-.666.5568-1.2888,1.1177-1.8867,1.6816,5.5466,3.6291,13.1979,7.8959,23.3447,13.5151l.0005-.0006.1142.0622c10.8262,6.0654,35.2338,9.8249,44.0168,9.7444,13.769.0082,26.6794-5.502,37.4192-13.0312,10.7283-7.5041,19.2253-17.0198,24.0226-24.4811.9734-1.5059,2.9775-1.9435,4.4896-.9734.0027,0,.3527.2308,1.1083.679.7579.447,1.8867,1.093,3.3429,1.874,2.9157,1.5632,7.1454,3.6582,12.3449,5.7516,10.399,4.1927,24.6675,8.3525,39.992,8.3477,37.1562.1048,65.7886-27.6523,72.1785-34.5537.9122-.976,1.3427-1.4832,1.3427-1.4832.6168-.7271,1.5217-1.1459,2.4771-1.1459h5.9969c.9529,0,1.8591.4188,2.4759,1.1459.0021,0,.431.5071,1.3443,1.4832.9128.9734,2.278,2.3833,4.0562,4.0788,3.561,3.3926,8.7786,7.9316,15.3343,12.4599,13.1221,9.0731,31.5354,18.027,52.7867,18.015,26.8206.039,50.3935-12.82,55.6761-15.9733.7545-.4482,1.1089-.6769,1.1116-.679.5429-.3496,1.1521-.5154,1.7518-.5154,1.0681,0,2.1115.5254,2.7343,1.4888,4.8014,7.4612,13.2979,16.977,24.0277,24.4811,10.7382,7.5292,23.6484,13.0394,37.417,13.0312,8.8024.0804,33.2982-3.6946,44.0884-9.7829l.0408-.0222h.0012c10.1473-5.6202,17.7987-9.887,23.3442-13.517ZM393.9238,103.6306c1.7681,2.4612,3.9155,3.6835,6.0771,3.6808,2.1618.0027,4.3069-1.2197,6.0768-3.6808,1.7446-2.4373,2.9235-6.0217,2.9159-10.0283.0076-4.0065-1.1713-7.5875-2.9159-10.0275-1.7698-2.4599-3.915-3.683-6.0783-3.6808h-.0051c-2.16.0005-4.3046,1.2225-6.0705,3.6808-1.744,2.44-2.9241,6.0209-2.9186,10.0275-.0054,4.0066,1.1746,7.591,2.9186,10.0283ZM682.4487,141.2388c-.0105-6.1191-5.1166-11.1862-11.6041-11.1949-5.6373-.1824-11.7396,5.7015-12.9263,7.1929-.1758.1979-.2308.2689-.2308.2689-.1868.2303-.4034.4283-.6389.5941.3141,2.2617.6531,4.1406.9421,5.5478.0081.0436.0169.0799.0253.1207.0105,0,.0225-.0012.033-.0012,1.1074.0012,2.1787.1516,3.1957.4339,1.2017-4.7574,4.0888-7.9998,4.1516-8.1036.5606-.6449,1.5378-.7122,2.1821-.1522.6465.5618.7104,1.5374.1517,2.1835.0033.0027-.2139.2418-.5831.7532-.3704.5134-.8698,1.2624-1.3676,2.1868-.6549,1.2153-1.2919,2.7261-1.6518,4.3767.0049.0039.0093.0078.0154.0099,2.0029-1.7495,5.4275-4.3157,10.6478-6.9399.7634-.3841,1.6926-.0782,2.0772.6874.3854.7634.0751,1.6944-.6835,2.0779-4.6606,2.3431-7.7667,4.6074-9.6362,6.1864.1852.2107.3638.4272.532.6533,1.7203-.403,4.1519-.7845,7.2149-.7845,1.4849,0,3.1196.0894,4.8945.3115.8455.1075,1.4474.8802,1.3411,1.7278-.1054.8467-.8793,1.4468-1.7275,1.3432-1.642-.2061-3.1478-.2875-4.5081-.2875-2.381,0-4.3109.2529-5.7698.5461.2575.8383.4113,1.7215.4101,2.6414.0012.786-.1102,1.5443-.2998,2.2746,1.1525.926,2.2114,1.8658,3.1776,2.8,1.4214-1.0064,2.6766-1.9726,3.757-2.9091,5.3305-4.7527,6.7552-8.0092,6.8787-14.5452ZM513.5468,183.821c0,.4073-.0276.8262-.0723,1.223-.5898,4.8058-4.5363,8.4584-9.2608,8.4716-.3644,0-.7261-.0198-1.0897-.0637l-21.5564-2.6414c-4.7538-.597-8.1023-4.749-8.0918-9.4374,0-.3941.0198-.8108.0739-1.2198.5898-4.8063,4.5356-8.4616,9.2581-8.4738.3566,0,.7255.021,1.0926.0667l21.5562,2.6413c4.754.5942,8.0996,4.7451,8.0903,9.4335ZM508.7161,183.821c-.0089-2.4296-1.6976-4.3923-3.8457-4.6389l-21.567-2.6435c-.1627-.0215-.3235-.0292-.4957-.0292h-.0274c-2.1155,0-4.1263,1.7319-4.4376,4.2552-.0259.189-.0364.3924-.0364.6083.0076,2.4281,1.6998,4.3942,3.8482,4.6426l21.5513,2.642c.1719.0198.3416.0308.5078.0308,2.1241.0127,4.1492-1.7166,4.4634-4.2161.0275-.2308.0391-.4481.0391-.6514ZM326.5224,181.3752c.0093,4.6863-3.3363,8.8372-8.0876,9.4365l-21.5654,2.6411c-.3593.043-.7216.0628-1.0854.0628-4.7213-.0114-8.6678-3.667-9.2566-8.4716h.0006c-.0517-.4177-.0754-.8261-.0754-1.2214-.0089-4.69,3.3369-8.8408,8.0918-9.4344l21.5392-2.6386c.3813-.0511.7505-.071,1.1077-.071,4.7231.0153,8.669,3.6669,9.2589,8.4842.0463.402.0721.806.0721,1.2125ZM321.6945,181.3752c0-.2099-.0126-.4254-.038-.6342-.3102-2.5095-2.3375-4.248-4.4652-4.2315-.1742,0-.3377.0093-.5043.0303l-21.5562,2.6413c-2.1502.2498-3.8395,2.2112-3.8489,4.6415,0,.215.0144.4316.0397.6356.3086,2.5083,2.337,4.243,4.4623,4.2297.1643,0,.3358-.0104.5071-.0302l21.554-2.642c2.149-.2463,3.8395-2.2136,3.8494-4.6405ZM323.373,363.6855h-5.3642v5.3652h5.3642v-5.3652ZM338.6418,363.6855h-5.3642v5.3652h5.3642v-5.3652ZM481.9921,363.6855h-5.3642v5.3652h5.3642v-5.3652ZM461.3592,369.0507h5.3635v-5.3652h-5.3635v5.3652ZM339.7689,539.5274h4.4007v-19.4131h.0472l2.9478,19.4131h4.4959l2.949-19.4131h.0469v19.4131h4.4005v-25.7231h-7.1863l-2.4335,17.7485h-.0472l-2.3646-17.7485h-7.2563v25.7231ZM373.9599,516.439c-1.0764-2.218-3.2536-3.2598-5.3365-3.2598-3.9564,0-7.3732,3.1208-7.3732,13.4869,0,7.4521,2.1539,13.4847,7.1157,13.4847,2.5278,0,4.5638-1.7677,5.594-3.4664v-6.6903c-1.0064,2.3575-2.5284,4.0556-4.4707,4.0556-2.8321,0-3.8385-3.1207-3.8385-6.8991,0-4.194,1.3339-7.0363,3.7922-7.0363,2.0829,0,3.4631,1.455,4.5169,4.0898v-7.765ZM376.1564,539.5274h4.4007v-19.4131h.0463l2.9487,19.4131h4.495l2.9499-19.4131h.0463v19.4131h4.4001v-25.7231h-7.1859l-2.4338,17.7485h-.0469l-2.364-17.7485h-7.2563v25.7231ZM397.0984,539.5274h5.3828l2.8089-8.7025,2.8094,8.7025h5.3822l-5.0559-12.9323,5.0559-12.7908h-5.336l-2.8556,9.1878-2.8552-9.1878h-5.3365l5.0544,12.7908-5.0544,12.9323ZM413.9916,539.5274h5.384l2.8088-8.7025,2.8093,8.7025h5.3824l-5.0559-12.9323,5.0559-12.7908h-5.336l-2.8558,9.1878-2.8574-9.1878h-5.3354l5.0554,12.7908-5.0554,12.9323ZM445.9371,513.8042h-4.6587l-2.855,17.9916h-.0475l-2.6689-17.9916h-4.7737l4.7511,25.7231h5.4297l4.823-25.7231ZM447.7807,539.5274h4.6824v-25.7231h-4.6824v25.7231ZM455.5497,539.5274h4.681v-25.7231h-4.681v25.7231Z"/>
</svg>