<?xml version="1.0" encoding="UTF-8"?>
<svg data-name="图层_1" xmlns="http://www.w3.org/2000/svg" version="1.1" viewBox="0 0 800 800">
  <!-- Created by @FCLOGO 2025-7-2 GMT+8 22:43:45 . https://fclogo.top/ -->
<!-- FOR PERSONAL USE ONLY NOT FOR COMMERCIAL USE -->
  <path d="M688.9505,141.2388c-.0111-9.8505-8.1707-17.677-18.1059-17.6956-5.4495.0287-9.9206,2.6191-13.0663,5.0025-1.5911,1.2171-2.8607,2.4163-3.7413,3.3215-1.6487-.3214-3.247-.4789-4.787-.4789-4.8759-.0066-9.1926,1.6043-12.2611,4.487-3.0761,2.8711-4.8008,6.9725-4.7871,11.3963.0066,5.0422,2.1342,10.4437,6.489,15.5305-.4667.3506-1.0609.7465-1.7781,1.1365-5.6843,3.2224-18.4656,7.0878-37.0907,7.0657-12.847.1103-27.2207-9.7867-38.0485-20.1088-5.4264-5.1292-9.9941-10.2844-13.1937-14.146-.769-.9308-1.4562-1.7797-2.0594-2.542,2.6701-1.3152,4.9525-3.5292,6.7422-6.1799,2.929-4.3427,4.8042-10.0728,5.2125-16.4434l-3.2452-.2045,3.2452.1913c.0487-.8157.0739-1.6316.0739-2.4434-.0078-5.9881-1.3681-11.4653-3.8527-15.7319-2.4517-4.2214-6.2957-7.4663-11.1522-7.7866-.2457-.0186-.4993-.0237-.7235-.0237-5.0406.0288-9.2273,3.1876-12.1271,7.4819-2.9279,4.3427-4.8026,10.0722-5.2103,16.446-.0541.8229-.0784,1.6453-.0784,2.4506.0078,5.988,1.3675,11.465,3.856,15.7341,1.2029,2.0707,2.7465,3.9029,4.5765,5.2747-8.9048,5.1794-28.8812,14.6247-56.0358,14.6114-16.9797.0133-32.5411-6.5052-43.7738-14.188-5.6109-3.8296-10.1323-7.949-13.1606-11.5533-3.0728-3.5369-4.4259-6.8407-4.2968-7.6366-.0045-.3009.0472-.5716.1139-.7809.3683.2617.8859.6707,1.4469,1.2074,1.6586,1.5097,3.8196,3.8121,6.4727,5.8151,2.6429,1.9892,5.9488,3.8075,9.9697,3.817,3.361.0066,6.3412-1.6585,8.3321-4.0672,2.0117-2.4192,3.1666-5.6171,3.1693-9.0853.0198-3.1846-.9485-5.5459-1.6464-7.2241-.7021-1.7293-1.1371-2.7709-1.1575-4.7459-.0148-.9205.3798-2.0486,1.0656-3.7199.6553-1.6453,1.5307-3.8317,1.5334-6.5975-.009-2.8567-.9526-5.5879-2.6887-7.7519-1.7137-2.1524-4.4215-3.7618-7.5766-3.7503-4.7108-.0342-8.1101,1.8332-10.3264,3.3849-1.1189.7717-2.0012,1.4442-2.6429,1.8107-.3257.1891-.5612.2969-.7436.3588-.0342-.1599-.0606-.381-.0606-.6552-.0237-.3314.2316-1.4177.8357-2.7439.8818-2.0135,2.3794-4.5914,3.7055-7.3203,1.3051-2.7525,2.5453-5.6634,2.5768-8.9209.0132-3.3456-1.0461-6.8116-3.6577-9.3607-2.6077-2.5497-6.4664-3.8897-11.1856-3.8758-3.9377.0044-8.5659.8757-14.1025,2.7769-5.5422-1.9039-10.1732-2.7725-14.1087-2.7769-4.7225-.0139-8.5813,1.3261-11.1862,3.8792-2.6104,2.5458-3.6709,6.0118-3.6554,9.3574.071,4.328,2.1607,8.1128,3.93,11.5842.9022,1.7137,1.7626,3.3204,2.3512,4.657.602,1.3261.861,2.4125.8357,2.7439.001.2876-.0276.5014-.0618.654-.1812-.0616-.4167-.1697-.7451-.3576-1.9287-1.0341-5.8464-5.2385-12.965-5.1956-3.1554-.0115-5.8623,1.5979-7.5765,3.7503-1.7374,2.164-2.681,4.8952-2.6919,7.7519.0021,2.7658.8785,4.9523,1.5334,6.5975.685,1.6712,1.0831,2.7994,1.0675,3.7199-.0175,1.9749-.4546,3.0166-1.1564,4.7459-.7015,1.6782-1.6672,4.0395-1.6469,7.2241.0017,3.4682,1.1569,6.6661,3.1671,9.0853,1.9936,2.4086,4.9724,4.0738,8.3339,4.0672,5.7511-.0673,9.9076-3.5651,13.0657-6.4324,1.5802-1.4623,2.9478-2.8534,3.9966-3.754.3136-.2696.5975-.4923.8274-.6564.0684.2099.1174.4834.1147.7842.125.7959-1.2264,4.0997-4.301,7.6366-9.1144,10.9311-31.488,25.8235-56.9321,25.7414-18.8224,0-34.176-4.5187-44.8133-9.0306-4.711-1.9948-8.4883-3.9894-11.2232-5.5817,1.8305-1.3709,3.3732-3.203,4.5759-5.276,2.487-4.2677,3.8461-9.7438,3.8539-15.733,0-.809-.0249-1.6241-.076-2.4467-.4079-6.3771-2.2826-12.105-5.2115-16.4488-2.9003-4.2964-7.0865-7.4531-12.1259-7.4819-.2271,0-.4807.0063-.7585.0261-4.8207.3169-8.6641,3.5622-11.1162,7.7854-2.4876,4.2672-3.8488,9.7421-3.8555,15.7302,0,.8058.0247,1.6283.0766,2.4644h.001c.4085,6.3676,2.2826,12.095,5.2099,16.4368,1.7897,2.6505,4.0726,4.8669,6.7435,6.182-3.7407,4.7098-10.7903,13.0014-19.4733,20.5068-10.1732,8.8536-22.5906,16.3607-33.8293,16.2874-13.2559.0039-23.5194-1.9202-30.4142-4.2198-3.4465-1.1455-6.0535-2.3965-7.7016-3.4631-.28-.1787-.5309-.3539-.7541-.5171,4.3517-5.0902,6.4808-10.4884,6.4886-15.5328.0115-4.4265-1.7127-8.5252-4.7888-11.3963-3.0678-2.8827-7.3846-4.4916-12.2609-4.4834-1.5385,0-3.1364.1562-4.7816.4758-.8818-.904-2.1507-2.1038-3.7448-3.3221-3.1416-2.3833-7.6123-4.9737-13.0624-5.0025-9.9355.0186-18.0964,7.8451-18.1084,17.6956-.1225,7.828,2.7475,14.1352,9.1374,19.4722.7465.6389,1.5429,1.2766,2.3833,1.9166-1.8237,1.3018-3.2161,4.3547-3.2161,9.563,0,8.0974,4.7501,14.6514,10.1109,14.6514,1.9606,0,.414-5.3662.414-7.0169,0-2.6237,3.6449-4.7458,8.1498-4.7458,4.4491,0,12.0836,4.1101,12.8921,4.5539.0276.0144.0547.0288.0826.0447.0051.0039.0117.0055.0165.0094l60.7928,33.7184h-62.4374l250.6251,536.5944,250.6253-536.5944h-62.4362l60.791-33.7196c.0066-.0027.0109-.0043.0169-.0082,0,0,8.2723-4.5974,12.9738-4.5974,4.5055,0,8.1497,2.1219,8.1497,4.7449,0,1.6514-1.547,7.0178.414,7.0178,5.3593,0,10.1109-6.553,10.1109-14.6514,0-5.2094-1.394-8.2613-3.2167-9.5642.8411-.6399,1.637-1.2777,2.3827-1.9166,6.3921-5.337,9.2631-11.6443,9.1387-19.4722"/>
  <path d="M657.6875,137.5057s.055-.071.2308-.2689c1.1867-1.4914,7.2889-7.3753,12.9263-7.1929,6.4874.0088,11.5936,5.0758,11.6041,11.1949-.1235,6.536-1.5482,9.7925-6.8787,14.5453-1.0803.9365-2.3355,1.9027-3.7569,2.9091-.9662-.9342-2.0251-1.8741-3.1776-2.8.1896-.7304.301-1.4886.2998-2.2746.0012-.9199-.1526-1.8031-.4101-2.6413,1.4589-.2933,3.3888-.5462,5.7698-.5462,1.3603,0,2.8661.0814,4.5082.2876.8482.1036,1.6221-.4966,1.7274-1.3432.1064-.8476-.4956-1.6203-1.3411-1.7279-1.7749-.2222-3.4096-.3115-4.8945-.3115-3.0629,0-5.4946.3816-7.2149.7845-.1682-.226-.3467-.4426-.532-.6532,1.8696-1.579,4.9756-3.8433,9.6363-6.1864.7585-.3836,1.0689-1.3146.6835-2.078-.3846-.7656-1.3138-1.0714-2.0773-.6874-5.2202,2.6242-8.6448,5.1905-10.6478,6.9399-.0061-.0021-.0105-.0061-.0154-.01.3599-1.6506.9969-3.1614,1.6518-4.3767.4978-.9244.9971-1.6734,1.3675-2.1868.3692-.5114.5865-.7505.5831-.7533.5588-.6461.4948-1.6216-.1517-2.1835-.6442-.5599-1.6215-.4926-2.182.1523-.0628.1037-2.95,3.3462-4.1516,8.1036-1.017-.2823-2.0883-.4327-3.1957-.4339-.0105,0-.0225.0012-.0331.0012-.0084-.0408-.0171-.0771-.0253-.1207-.289-1.4072-.6279-3.2861-.9421-5.5478.2355-.1658.4521-.3638.6389-.5941" style="fill: #fff;"/>
  <path d="M654.7755,151.4105c.7633-.6648,1.9275-1.1482,3.2735-1.1443,1.3492-.0039,2.5113.4795,3.2746,1.1443.7683.6756,1.1078,1.4249,1.1101,2.208-.0023.7854-.3418,1.5335-1.1101,2.2112-.7633.6637-1.9254,1.147-3.2746,1.1443-1.3459.0027-2.5101-.4807-3.2735-1.1443-.7673-.6778-1.1062-1.4258-1.1128-2.2112.0066-.7832.3455-1.5324,1.1128-2.208" style="fill: #d8291a;"/>
  <path d="M649.2499,137.8899c1.4379,0,3.0215.2007,4.7329.6295.317,2.2862.6598,4.1966.9569,5.6552-1.6557.4426-3.1632,1.2363-4.4127,2.3154-.2024.1718-.3903.3583-.5789.5456-3.2774-.7898-6.9399-1.3905-11.055-1.7483.3638-1.8851,1.2441-3.4421,2.5425-4.6714,1.7407-1.6247,4.3202-2.7173,7.8142-2.7261" style="fill: #fff;"/>
  <path d="M531.9048,111.9639c0-.6768.0183-1.3558.0646-2.0311.3284-5.3393,1.9511-10.0513,4.1085-13.224,2.1667-3.187,4.6305-4.6244,6.6821-4.6244h.0606c.1163,0,.2061.0039.2887.0115,2.025.1097,4.1613,1.5192,5.9759,4.5848,1.7792,3.0181,2.9725,7.4663,2.962,12.4468.0029.6713-.0198,1.3585-.0628,2.0613h.003c-.3302,5.319-1.9507,10.0261-4.1065,13.1936-2.1908,3.2185-4.6811,4.6521-6.7474,4.6245-.1031,0-.2129-.0027-.3209-.0116-1.9892-.1107-4.1284-1.5179-5.9419-4.5814-1.7797-3.0231-2.9734-7.4723-2.9659-12.4501" style="fill: #7acae6;"/>
  <path d="M248.0153,111.1775l-3.2431.2022,3.2404-.2107c-.043-.6856-.0646-1.3664-.0646-2.042-.0088-4.9787,1.1845-9.428,2.9649-12.4474,1.8144-3.0644,3.9536-4.4716,5.9488-4.5819.1042-.0078.1956-.0133.3175-.0133,2.0642-.0265,4.5566,1.4049,6.7447,4.6244,2.1568,3.1731,3.7779,7.8847,4.1053,13.2119.0418.6862.0644,1.3718.0644,2.042.0078,4.979-1.1855,9.4281-2.9635,12.4513-1.8134,3.0635-3.9521,4.4734-5.9518,4.5847-.1019.0044-.2112.0095-.3142.0095-2.0673.0274-4.5572-1.4056-6.7437-4.6251-2.1577-3.171-3.7788-7.8813-4.1051-13.2057" style="fill: #7acae6;"/>
  <path d="M170.7385,173.882c7.4216,2.0934,17.2906,3.6214,29.4391,3.6214,16.0676-.1097,31.1341-11.2082,42.5138-21.8836,8.022-7.5877,14.161-15.1222,17.0987-18.9248,7.4834,4.8123,30.0754,17.37,62.4094,17.3886,18.6612-.0132,35.3417-7.0627,47.4412-15.3189,6.0536-4.1417,10.9707-8.5859,14.4669-12.7391,3.4471-4.2219,5.7015-7.8698,5.8265-11.8194-.0087-1.8228-.5047-3.5286-1.5124-4.9551-.9755-1.396-2.6915-2.6258-4.8345-2.6286-2.596.1313-3.9167,1.405-5.332,2.5272-2.0538,1.7815-4.1234,4.0419-6.3523,5.7858-2.2334,1.77-4.4211,2.8501-6.4748,2.8326-1.2011-.0061-2.3469-.5573-3.3408-1.733-.975-1.1641-1.6662-2.9168-1.6635-4.9227.021-1.9786.456-3.0193,1.1603-4.7496.6967-1.6739,1.6652-4.0383,1.6469-7.2205-.0159-2.5899-.9187-4.5569-1.5328-6.134-.6471-1.6034-1.0704-2.8227-1.0677-4.1835-.007-1.3621.5033-2.7598,1.248-3.6676.7661-.9185,1.5665-1.3261,2.5194-1.3367,3.1004.0331,4.7552.9839,6.65,2.2466.9331.6355,1.8707,1.3736,3.0349,2.0619.4116.2421.8836.468,1.3817.6753-.201.8007-.0992,1.6773.3545,2.4443l1.3415,2.2664h-2.2047c-1.7975,0-3.2509,1.4547-3.2509,3.251s1.4535,3.2521,3.2509,3.2521h4.5158c-.4558.543-.9458,1.0329-1.4331,1.4538-.695.6054-1.3631,1.0705-1.8503,1.3769-.4879.3076-.7547.4338-.7547.4398-.7644.3804-1.0735,1.3107-.6905,2.0748.2701.5428.8179.8559,1.3845.8559.2316,0,.468-.0512.6901-.1632.0876-.0892,4.1693-2.0117,6.4229-6.0893,1.016-.1208,1.9275-.688,2.4452-1.5908.1746-.308.2782-.6387.3445-.974.5306,3.5189,1.7801,6.7059,3.6058,9.2809,2.4383,3.4531,6.1059,5.8884,10.3649,5.8905,4.2591-.0021,7.9255-2.4374,10.3639-5.8905,2.4665-3.4752,3.8869-8.0626,3.8936-13.0808-.0066-5.0172-1.4271-9.6042-3.8936-13.0794-1.4887-2.1082-3.4411-3.8296-5.7036-4.858l6.4499-4.8979c.6813-.5176.8125-1.4898.2971-2.1693-.5186-.6807-1.491-.813-2.1706-.2966l-6.7603,5.1365v-9.0002c4.2519-.5958,7.0204-2.3723,9.8928-2.2886,1.9042.0056,3.1603,1.0737,4.1063,2.3585.4537.6313.7908,1.2892.9999,1.7765.2133.4873.2827.7567.2893.7567.1973.6758.8147,1.1123,1.4826,1.1123.1454,0,.2917-.0198.4371-.061.8214-.2415,1.2919-1.0998,1.0527-1.9204l-.0027-.0027c-.0331-.0966-.5059-1.7325-1.7488-3.4682-1.2105-1.7158-3.397-3.6511-6.6164-3.645-4.8036.0987-7.7199,2.556-12.3692,2.4863,0,0-.0015.0024-.0043.0024-4.6465.0634-7.5657-2.389-12.3659-2.4875-3.2182-.0072-5.4032,1.9275-6.6173,3.6417-1.2447,1.7378-1.7163,3.3737-1.7467,3.4724-.2427.819.2286,1.6794,1.0476,1.9213.1457.042.2905.0618.4338.0618.6714,0,1.2887-.4377,1.4859-1.1129v-.0027s.0763-.2667.2905-.7546c.3154-.7331.9166-1.8399,1.7698-2.6843.8709-.8527,1.8867-1.4403,3.3363-1.4507,2.8712-.0837,5.642,1.6923,9.8955,2.2886v9.0017l-6.763-5.138c-.6819-.5164-1.653-.3842-2.1706.2954-.5164.6819-.3825,1.653.2993,2.1695l6.4483,4.899c-2.2616,1.0273-4.2144,2.7498-5.7042,4.858-2.465,3.4753-3.8858,8.0623-3.8947,13.0794.0023.6307.0249,1.2546.0706,1.8709-.0535-.1208-.0865-.2479-.1549-.3627l-3.9183-6.6224c.5909-.3887,1.1062-.8742,1.4949-1.4261,1.0368-1.4264,1.4313-3.1031,1.4364-4.8402-.0231-1.9882-.6571-3.6649-1.3891-5.3654-1.1194-2.5244-2.6264-5.0941-3.8008-7.5318-1.1956-2.4202-1.9596-4.7005-1.9281-6.0879.015-2.0955.5942-3.6229,1.7004-4.7083,1.1117-1.0813,3.0476-2.0145,6.6423-2.0276,3.1473-.0061,7.4663.7765,13.0041,2.7784.7066.2535,1.5003.2535,2.2052,0,5.5362-2.0019,9.854-2.7845,13.0019-2.7784,3.5914.0132,5.53.9464,6.6416,2.0276,1.1064,1.0853,1.6872,2.6127,1.6998,4.7083.0711,1.8658-1.3938,5.2506-3.1864,8.562-.8752,1.679-1.7951,3.3678-2.5414,5.0577-.7315,1.7004-1.3624,3.3771-1.3874,5.3654.0049,1.7371.3981,3.4138,1.4364,4.8402,1.0049,1.4303,2.8595,2.4298,4.7011,2.3928.5771,0,1.1107-.0828,1.626-.1968-.2933.5941-.6361,1.2207-1.0142,1.8438-1.153,1.9627-2.5073,3.9365-3.2883,5.5971-.215.4536-.1892.989.0617,1.4237.1291.0839,3.4913,6.4385,8.8002,8.1786.1472.0445.2971.0655.4443.0655.6658,0,1.2826-.431,1.4847-1.1013.2454-.8163-.2166-1.681-1.0367-1.929-1.6651-.4769-3.5269-2.1375-4.8526-3.742-.3473-.4128-.6597-.8163-.9347-1.1883l5.272-.3858c.0225,0,.0447.0012.0661.0012.8291,0,1.5147-.6511,1.55-1.4811.0381-.8544-.6256-1.5769-1.4805-1.615l-4.2562-.8708c.279-.4537.56-.9161.8357-1.3813,1.0068-1.7555,1.9802-3.4824,2.2972-5.2732,2.7659-1.8658,4.4883-3.5429,8.5604-3.5794.9493.0106,1.7494.4182,2.5178,1.3367.7474.9078,1.2579,2.3055,1.2468,3.6676.0027,1.3608-.4217,2.5801-1.0632,4.1835-.6162,1.577-1.5223,3.544-1.5384,6.134-.0148,3.1822.9502,5.5466,1.6502,7.2205.7023,1.7302,1.1398,2.7709,1.1581,4.7496.0021,2.0059-.6861,3.7586-1.664,4.9227-.9944,1.1756-2.1403,1.7269-3.3385,1.733-2.7096.0673-5.7793-2.0087-8.658-4.7122-1.4348-1.3205-2.7889-2.7168-4.1685-3.9062-1.4177-1.1221-2.7366-2.3959-5.3332-2.5272-2.1432.0028-3.8578,1.2326-4.8329,2.6286-1.007,1.4265-1.5074,3.1323-1.5139,4.9551.1238,3.9497,2.38,7.5975,5.8275,11.8194,10.4494,12.3438,33.8872,27.9748,61.9071,28.058,32.334-.0186,54.9258-12.5751,62.4092-17.3882,2.9367,3.8038,9.0747,11.3368,17.0968,18.9244,11.3834,10.6754,26.4495,21.7739,42.5147,21.8836,13.8892,0,24.7878-1.9937,32.4723-4.5516,3.8473-1.2854,6.8864-2.7002,9.1652-4.1648,1.1404-.7381,2.0955-1.4843,2.891-2.3151.7766-.841,1.4728-1.7536,1.8002-3.1245.2374-1.0831-.0933-2.2153-.8754-2.9974-4.3142-4.3163-6.1787-8.5316-6.5022-11.9667,3.4141.3037,6.4902.7755,9.2598,1.3852-.5489,1.1735-.8709,2.4741-.8692,3.85-.0045,2.8634,1.3652,5.4164,3.3633,7.1272,1.9979,1.7302,4.6537,2.723,7.5219,2.7263,2.8712-.0033,5.5239-.9961,7.5264-2.7263.657-.5627,1.2363-1.2247,1.7319-1.9517.6646.5573,1.2874,1.1183,1.8834,1.6812-5.5455,3.6301-13.1969,7.8968-23.3442,13.517h-.0012l-.0408.0222c-10.7903,6.0883-35.2861,9.8633-44.0884,9.7829-13.7686.0082-26.6788-5.502-37.417-13.0311-10.7299-7.5041-19.2263-17.0198-24.0278-24.4811-.6228-.9634-1.6662-1.4888-2.7343-1.4888-.5997,0-1.2089.1658-1.7518.5154-.0027.0021-.3572.2308-1.1116.679-5.2827,3.1533-28.8556,16.0124-55.6761,15.9733-21.2513.012-39.6646-8.9419-52.7867-18.015-6.5557-4.5283-11.7733-9.0674-15.3343-12.4599-1.7782-1.6955-3.1434-3.1054-4.0562-4.0788-.9133-.976-1.3422-1.4831-1.3443-1.4831-.6168-.727-1.5229-1.1459-2.4759-1.1459h-5.9969c-.9553,0-1.8602.4188-2.477,1.1459,0,0-.4305.5071-1.3426,1.4831-6.3898,6.9015-35.0222,34.6585-72.1785,34.5537-15.3246.0049-29.593-4.155-39.992-8.3477-5.1994-2.0934-9.4292-4.1884-12.3449-5.7516-1.4562-.781-2.5849-1.427-3.3429-1.8741-.7556-.4481-1.1056-.679-1.1083-.679-1.512-.9701-3.5161-.5325-4.4895.9734-4.7973,7.4613-13.2944,16.977-24.0227,24.4811-10.7398,7.5292-23.6501,13.0393-37.4192,13.0311-8.7831.0805-33.1905-3.6791-44.0168-9.7444l-.1141-.0622-.0006.0006c-10.1467-5.6192-17.7981-9.886-23.3446-13.5151.5979-.5638,1.2207-1.1248,1.8867-1.6816.4933.7264,1.0737,1.3884,1.7306,1.9511,2.0003,1.7281,4.6548,2.723,7.5242,2.7263,2.869-.0033,5.5251-.9982,7.5264-2.7263,1.9942-1.7108,3.3627-4.2638,3.36-7.1245.0018-1.3762-.3206-2.6792-.8707-3.8527,2.7703-.6098,5.8473-1.0815,9.2614-1.3852-.3236,3.4351-2.1898,7.6504-6.5022,11.9667-.7844.7849-1.1151,1.9143-.8736,2.9974.3241,1.3709,1.0208,2.2835,1.7963,3.1245,2.7498,2.7963,7.6432,5.2601,15.0903,7.4101" style="fill: #fff;"/>
  <path d="M399.9943,79.894h.0051c2.1634-.0021,4.3085,1.221,6.0783,3.6808,1.7446,2.4401,2.9235,6.021,2.9159,10.0275.0076,4.0066-1.1713,7.591-2.9159,10.0283-1.7698,2.4612-3.9149,3.6836-6.0768,3.6808-2.1616.0027-4.3091-1.2197-6.0772-3.6808-1.744-2.4373-2.9241-6.0217-2.9186-10.0283-.0055-4.0065,1.1746-7.5874,2.9186-10.0275,1.766-2.4583,3.9104-3.6803,6.0705-3.6808" style="fill: #d8291a;"/>
  <polygon points="604.0707 197.1647 579.8594 210.5953 570.0192 196.6311 604.0707 197.1647" style="fill: #7acae6;"/>
  <path d="M560.3636,191.5292l13.2691,18.8307c-22.7467-7.0352-77.5557-20.7504-162.0167-21.9211l23.6418-12.1116-23.2277-11.8994c51.6473,1.0813,100.4033,8.8889,137.0464,16.7051,18.4155,3.9251,33.7674,7.8511,44.9052,10.9228l-33.6181-.5265Z" style="fill: #fff;"/>
  <path d="M398.4372,131.2819h3.128c3.7607,4.0858,17.5088,18.2088,37.8817,27.8252-12.8983-.8318-26.0926-1.3083-39.4437-1.3089-13.3541.0006-26.5499.4771-39.4482,1.3089,20.3712-9.6164,34.1204-23.7394,37.8821-27.8252" style="fill: #d8291a;"/>
  <path d="M400.0033,188.3572c-.3061,0-.6041.0033-.909.0033l-23.4891-12.0346,23.4783-12.025c.3074,0,.6135-.0039.9199-.0039.3047,0,.6102.0039.916.0045l23.4753,12.0256-23.4885,12.0334c-.3025,0-.6002-.0033-.9028-.0033" style="fill: #7acae6;"/>
  <path d="M239.6373,191.5254l-33.6166.5281c33.3074-9.18,104.3476-26.0082,181.954-27.6264l-23.2301,11.8988,23.6457,12.1128c-84.4691,1.1707-139.2802,14.8865-162.0242,21.9211l13.2712-18.8345Z" style="fill: #fff;"/>
  <polygon points="220.1426 210.5941 195.9368 197.1662 229.9817 196.6326 220.1426 210.5941" style="fill: #7acae6;"/>
  <path d="M237.4227,177.4586c.6773-.4492,1.3498-.9043,2.0111-1.3679,10.3227-7.2425,18.5776-16.0234,24.004-23.6904,5.411,3.0694,18.4079,9.7576,35.0249,13.4631-22.9766,3.469-43.7209,7.6306-61.0401,11.5951" style="fill: #d8291a;"/>
  <path d="M501.5403,165.8635c16.6159-3.7055,29.6144-10.3948,35.0215-13.4649,5.4242,7.6675,13.6815,16.4496,24.0056,23.6921.6621.4636,1.3333.9187,2.0119,1.3691-17.3204-3.9646-38.0629-8.1273-61.039-11.5963" style="fill: #d8291a;"/>
  <path d="M141.9508,150.2651c1.3471-.0028,2.5113.4805,3.2729,1.1432.769.679,1.1097,1.4246,1.1124,2.2129-.0027.7833-.3434,1.5307-1.1124,2.2103-.7616.6619-1.9258,1.1431-3.2729,1.1413-1.3471.0018-2.5111-.4795-3.2735-1.1413-.7682-.6796-1.1074-1.427-1.1122-2.2103.0049-.7883.344-1.5339,1.1122-2.2129.7624-.6627,1.9264-1.1461,3.2735-1.1432" style="fill: #d8291a;"/>
  <path d="M158.5612,140.6159c1.2987,1.2326,2.1799,2.7874,2.5455,4.6714-4.1152.3588-7.7789.9585-11.0552,1.7483-.1863-.1868-.3753-.3725-.5744-.5428-1.2516-1.0803-2.7592-1.8741-4.4143-2.3182.2965-1.4586.6393-3.3678.9563-5.6529,1.7107-.4299,3.2966-.6317,4.7275-.629,3.4928.0078,6.0772,1.0986,7.8145,2.7233" style="fill: #fff;"/>
  <path d="M117.5499,141.2388c.0105-6.1191,5.1205-11.1862,11.6079-11.1949,3.2179-.0286,6.5872,1.7136,9.1177,3.6659,1.261.9623,2.2995,1.9408,3.005,2.666.3533.3632.6267.6621.8009.861.1752.198.231.2689.2331.2689.1869.2304.4023.4283.6366.5959-.3119,2.2599-.652,4.1376-.9409,5.547-.0082.0426-.0159.0789-.0241.1201-.0128-.0004-.0237-.0015-.0354-.0015-1.1062.0012-2.1782.1516-3.1941.4339-1.202-4.7574-4.0898-8.001-4.1508-8.1052-.5612-.6448-1.5379-.7105-2.1826-.1494-.6456.5595-.7128,1.5384-.1511,2.1823,0,0,.2139.2431.5843.7529.8647,1.1837,2.3761,3.6598,3.0149,6.5677-.0039.0024-.0072.0051-.0111.0066-2.0035-1.7467-5.4279-4.3152-10.6509-6.941-.7624-.3859-1.695-.0771-2.078.6879-.3836.7633-.076,1.6932.6889,2.0786,4.3571,2.1899,7.3599,4.3178,9.2594,5.8761.1334.1092.2485.2089.3708.3125-.184.2095-.3621.4251-.5291.6517-1.7218-.4041-4.1537-.7857-7.2172-.7857-1.4859,0-3.1218.0894-4.8916.3115-.8478.1063-1.4496.8791-1.3426,1.7308.1064.8469.88,1.4478,1.7312,1.3414,1.6359-.2061,3.1418-.2887,4.5031-.2887,2.3878,0,4.3103.2535,5.7704.5474-.2574.84-.4113,1.7218-.4101,2.6429-.0012.7854.1103,1.5439.2998,2.2719-1.1519.9259-2.2108,1.8658-3.1759,2.8-1.422-1.0064-2.6771-1.9726-3.7575-2.9091-5.3282-4.7528-6.7575-8.0092-6.881-14.5453" style="fill: #fff;"/>
  <path d="M402.1667,116.1916c.0958.1224,17.156,26.514,48.876,39.2404.1878.0749.3836.1106.5744.1106.6139,0,1.1943-.3671,1.4374-.971.3159-.7943-.0683-1.6944-.862-2.012-15.3472-6.1444-27.2285-15.675-35.2636-23.6705-4.0158-3.9975-7.0694-7.6095-9.1087-10.2116-2.0462-2.6056-3.0499-4.1654-3.0565-4.1681-.464-.7187-1.4231-.9232-2.1397-.4547-.7187.463-.9232,1.4208-.4573,2.1397v-.0027Z"/>
  <path d="M480.4455,160.6047c28.9085-.0297,52.7785-15.0533,58.7058-19.0985,15.9705,26.61,43.3985,37.3993,43.5361,37.4726.1865.075.3788.1103.5678.1103.6146,0,1.1984-.3704,1.4391-.9789.3164-.7965-.0742-1.6938-.8703-2.0081-.0049-.0021-1.6737-.6631-4.5041-2.1021-8.4955-4.3196-26.9732-15.5434-38.3393-35.494-.2193-.3836-.5952-.657-1.0272-.7478-.435-.0883-.8875.0093-1.2447.2771-.0015.0017-1.5863,1.1857-4.5346,3.0145-8.8447,5.4914-29.6639,16.4725-53.7286,16.4593-.8571,0-1.5484.6924-1.5484,1.5457,0,.8553.6912,1.5498,1.5484,1.5498"/>
  <path d="M604.3369,182.0759c.0187,0,.037,0,.0568-.0009,24.3853-.9493,43.9406-11.1669,44.0532-11.2165.7572-.3959,1.0516-1.33.6558-2.0879-.3941-.758-1.3284-1.0539-2.0862-.6558-.0045,0-1.1569.6008-3.3143,1.5504-6.4737,2.8451-21.7376,8.6419-39.4282,9.3128-.8556.0342-1.5219.754-1.4877,1.6094.0319.8355.7204,1.4886,1.5505,1.4886"/>
  <path d="M543.3855,124.1792c-3.2708-7.8812,6.7485-9.7262,4.3586-16.3491-1.9269.657-1.5097,1.8437-3.6896,1.8437,0-4.6951,2.0967-4.7786,1.3423-7.6294-1.2964.2293-2.557,1.945-3.9405,2.5993,0-3.3362.9215-6.0365.9215-6.0365-7.0436,1.0897-11.3184,21.2113,1.0076,25.572"/>
  <path d="M348.385,155.5437c.1908,0,.3852-.0357.5744-.1108,31.7176-12.7263,48.7802-39.119,48.876-39.2386.4636-.7177.2601-1.6756-.4575-2.1419-.7171-.4651-1.6755-.2591-2.1418.4581-.0023.0027-1.0082,1.5613-3.0548,4.1658-6.1252,7.8196-21.3533,24.6742-44.3717,33.8817-.7937.3179-1.1801,1.2192-.8621,2.0129.2431.6036.8235.9728,1.4375.9728"/>
  <path d="M216.7445,179.0881c.1902,0,.3821-.0355.5699-.1093.1355-.0737,27.5629-10.8599,43.5352-37.4726,5.9245,4.0419,29.7946,19.0689,58.7069,19.0973.8548,0,1.5466-.6933,1.5466-1.5477s-.6918-1.5454-1.5466-1.5454c-16.0438.0015-30.6447-4.8642-41.2164-9.7511-5.2874-2.4389-9.5646-4.8828-12.5123-6.7094-2.9499-1.8278-4.5308-3.0161-4.5383-3.0161-.3523-.2645-.8075-.3659-1.2413-.2755-.4344.092-.8108.3636-1.029.7502-7.5822,13.2977-18.3081,22.7206-27.1492,28.8031-4.4187,3.0413-8.3607,5.2471-11.1899,6.6885-2.8288,1.4402-4.5022,2.0945-4.5043,2.1021-.7949.3133-1.1851,1.2143-.8715,2.0092.2421.6057.8229.9767,1.4403.9767"/>
  <path d="M150.8981,168.7716c-.3969.7544-.1036,1.6908.6553,2.0867v-.003c.112.0502,19.6696,10.2708,44.0538,11.2167.0222,0,.042.0023.0646.0023.8241,0,1.5097-.6543,1.5412-1.4888.0331-.8526-.6333-1.5735-1.485-1.6067-11.7931-.4502-22.5103-3.1709-30.2605-5.784-3.8747-1.3063-7.0088-2.584-9.1689-3.531-2.1589-.9464-3.3087-1.5504-3.3143-1.5504-.7577-.3969-1.692-.0998-2.0862.6582"/>
  <path d="M256.6181,124.1792c12.3255-4.3608,8.0494-24.4823,1.007-25.572,0,0,.9211,2.7003.9211,6.0365-1.3829-.6543-2.6441-2.37-3.9398-2.5993-.7552,2.8508,1.3415,2.9344,1.3415,7.6294-2.1799,0-1.7611-1.1867-3.6884-1.8437-2.3899,6.6229,7.6294,8.4679,4.3587,16.3491"/>
  <path d="M391.1308,92.2267c0,2.4897,8.1995-.1449,8.1995,1.4651,0,8.9301-4.9784,10.102.6707,10.102,2.8661,0,5.1845-5.0421,5.1845-11.2734,0-6.4421-2.553-9.5161-5.7091-9.5161-3.0746,0-1.6106,2.1607-1.6106,4.8306,0,2.4891-6.735.147-6.735,4.3917"/>
  <path d="M370.9884,110.5546c-1.8948-.8391-2.2814-1.798-2.3779-4.1654-.0373-3.6322,1.9269-9.3733,2.3929-15.6881h1.023c.8548,0,1.5466-.6957,1.5466-1.5472,0-.8559-.6918-1.5477-1.5466-1.5477v-.0033h-2.4897c-.8346,0-1.5219.668-1.5451,1.5053-.1643,6.3115-2.4323,12.4026-2.4747,17.2811-.097,2.8745,1.1365,5.8559,4.3262,7.0403.189.075.383.1103.5726.1103.6151,0,1.1961-.3704,1.4376-.9761.3169-.7937-.0712-1.6917-.8649-2.009"/>
  <path d="M505.4565,174.3875l-21.5561-2.6413c-.3671-.0457-.736-.0667-1.0926-.0667-4.7225.0122-8.6684,3.6676-9.2581,8.4738-.0541.409-.0739.8257-.0739,1.2198-.0105,4.6884,3.338,8.8404,8.0918,9.4374l21.5564,2.6413c.3636.0439.7253.0637,1.0897.0637,4.7246-.0132,8.671-3.6658,9.2608-8.4716.0447-.3967.0723-.8157.0723-1.223.0093-4.6884-3.3363-8.8393-8.0903-9.4335"/>
  <path d="M508.6771,184.4725c-.3143,2.4995-2.3394,4.2288-4.4635,4.2161-.1661,0-.3358-.011-.5077-.0309l-21.5513-2.6419c-2.1484-.2485-3.8407-2.2146-3.8482-4.6426,0-.216.0105-.4194.0364-.6084.3113-2.5234,2.322-4.2553,4.4376-4.2553h.0274c.1721,0,.3329.0077.4956.0292l21.5671,2.6435c2.148.2465,3.8368,2.2092,3.8457,4.6388,0,.2034-.0116.4206-.039.6514" style="fill: #d8291a;"/>
  <path d="M326.4502,180.1627c-.5899-4.8173-4.5358-8.4689-9.2589-8.4842-.3572,0-.7264.0198-1.1078.071l-21.5392,2.6386c-4.7549.5936-8.1007,4.7445-8.0918,9.4344,0,.3953.0237.8037.0755,1.2215h-.0006c.5888,4.8046,4.5353,8.4602,9.2566,8.4716.3638,0,.7261-.0198,1.0854-.0628l21.5655-2.6411c4.7513-.5993,8.0969-4.7502,8.0875-9.4365,0-.4066-.0259-.8106-.0722-1.2126"/>
  <path d="M317.8451,186.0158l-21.554,2.6419c-.1713.0198-.3428.0303-.5071.0303-2.1253.0133-4.1537-1.7214-4.4623-4.2297-.0253-.204-.0397-.4206-.0397-.6356.0093-2.4302,1.6987-4.3917,3.8488-4.6414l21.5561-2.6413c.1667-.021.3302-.0303.5044-.0303,2.1276-.0165,4.1549,1.722,4.4652,4.2315.0253.2088.0379.4243.0379.6342-.0099,2.4269-1.7004,4.3941-3.8494,4.6405" style="fill: #d8291a;"/>
  <path d="M585.8253,219.9053l-82.896,177.4833h-5.1497l-4.4388-25.0948,5.4695-11.3478v-20.5789h-4.4574c-1.2513-5.1575-3.4967-9.1286-8.3664-10.4294-4.4217-1.1801-9.2385.8003-13.3757-.8908-3.4514-1.4099-5.7863-6.818-9.1225-8.6182-6.0712-3.2759-14.548-4.1963-17.3279-10.1016-.5762-1.2219-1.3191-3.936-.9112-5.6463.5258-2.2163,6.2074-5.4435,9.1186-6.8348,8.056-3.8467,23.3917-1.1894,34.659-2.0802,3.8097-.3008,7.9711-1.5112,8.5103-5.348-3.5288-1.0858-7.0249-.4157-11.248-1.4859-2.2036-.559-8.2011-3.2912-8.2077-5.0528-.0199-5.4838,12.4026-.7292,14.2889-.2948,7.2269,1.6575,18.8598,2.7178,25.2331-.5958,3.0281-1.5742,5.2257-3.9395,6.0795-6.8336-3.1797.4564-5.9407,1.1393-9.7279.5941-3.4978-.5033-11.3268-2.946-10.9453-5.348.5093-3.1891,7.475-2.6855,11.5539-2.3773,4.6795.3517,9.5441,2.3668,13.6801,2.6732,11.5671.8583,17.2647-3.57,21.2796-8.9143-5.8949.769-10.795-.6372-14.2878-1.4859-1.5454-.3737-3.5586-.1554-5.168-.5942-1.5571-.4233-3.533-1.3426-3.3445-2.6738,14.6487-.2816,26.6484,2.5867,33.1371-5.6463,2.3993-3.0431,4.9496-6.8604,4.5609-12.1834-3.5755.9641-5.6331,3.4093-7.6002,5.944-3.2338-.1482-7.5898,1.6596-11.5538,1.783-9.5476.295-19.53-3.8533-29.4883-.8917-4.3847,1.3045-8.3598,6.0167-12.4645,8.023-3.7888,1.8503-8.4099,3.3236-12.7686,5.348-4.453,2.0687-9.4461,4.0497-13.9847,4.4574-6.7056.603-19.7466-.4756-17.9365-8.0224.9503-3.9591,7.9629-2.7985,11.5517-5.0521,2.9509-1.8503,1.9616-3.8926,3.9525-6.8341,5.3768,3.4978,11.7997-1.8515,17.6328-1.485,4.0981.2547,5.9864,3.9857,10.0326,3.268-1.0345-6.5977-5.4694-10.0233-11.8575-10.4003-3.8804-.2277-8.5649,1.6551-12.767.5948-2.6023-.657-3.8424-4.7221-7.2971-5.6465-4.0788-1.0912-10.0178.8439-14.8956.2977-4.4598-.5011-6.4898-3.5688-10.3369-3.2684-2.4392,1.4926.3113,4.6372-1.2161,6.8342-4.5924,2.3866-8.3674-3.5937-12.4643-2.3767-.5458,3.0419.1878,4.9886,1.519,7.427,1.0969,2.0092,3.979,3.107,3.3441,5.3494-.4966,1.7615-8.3472,4.6471-11.5506,4.7538-5.1938.177-6.5476-4.5003-10.3357-4.1592-1.1224,2.6689.4531,5.1354,1.8216,7.1324,1.4414,2.0949,2.3448,4.3509,3.6499,6.2388,1.1657,1.6888,4.0672,2.4341,3.6477,4.7556-4.389,2.9307-8.7527,1.2341-13.6815,2.9709-4.5582,1.6062-4.5439,6.8324-9.374,6.8324s-4.8156-5.2262-9.3738-6.8324c-4.9288-1.7368-9.2925-.0402-13.6804-2.9709-.4199-2.3215,2.4814-3.0668,3.6476-4.7556,1.3041-1.8878,2.2093-4.1438,3.6489-6.2388,1.3697-1.997,2.9449-4.4635,1.8239-7.1324-3.7896-.3411-5.1442,4.3361-10.3369,4.1592-3.2035-.1068-11.0552-2.9923-11.5528-4.7538-.6333-2.2423,2.2481-3.3401,3.345-5.3494,1.3315-2.4383,2.0648-4.3851,1.5196-7.427-4.0952-1.2171-7.8713,4.7633-12.4649,2.3767-1.5258-2.197,1.224-5.3416-1.2161-6.8342-3.8471-.3004-5.8755,2.7674-10.3358,3.2684-4.879.5462-10.8169-1.3889-14.8968-.2977-3.4547.9244-4.6939,4.9895-7.2965,5.6465-4.2021,1.0603-8.8873-.8225-12.7676-.5948-6.3881.377-10.823,3.8026-11.857,10.4003,4.0458.7177,5.9352-3.0133,10.0331-3.268,5.8343-.3665,12.2551,4.9828,17.633,1.485,1.9897,2.9415,1.0014,4.9838,3.9513,6.8341,3.5889,2.2536,10.6025,1.093,11.5517,5.0521,1.8101,7.5468-11.231,8.6254-17.9356,8.0224-4.5395-.4077-9.5315-2.3887-13.9856-4.4574-4.3577-2.0244-8.9798-3.4977-12.7676-5.348-4.1057-2.0063-8.0798-6.7185-12.4643-8.023-9.9589-2.9616-19.9413,1.1867-29.4895.8917-3.963-.1235-8.3189-1.9312-11.5528-1.783-1.9672-2.5348-4.0258-4.9799-7.6002-5.944-.3897,5.323,2.1618,9.1403,4.5611,12.1834,6.4884,8.233,18.4872,5.3647,33.1371,5.6463.188,1.3312-1.7887,2.2505-3.3446,2.6738-1.6094.4389-3.6223.2205-5.1689.5942-3.4928.8487-8.3916,2.255-14.2872,1.4859,4.0155,5.3443,9.7129,9.7726,21.28,8.9143,4.1345-.3064,8.9997-2.3215,13.6815-2.6732,4.0765-.3082,11.0444-.8118,11.5516,2.3773.3825,2.402-7.4464,4.8447-10.9443,5.348-3.7882.5452-6.5491-.1377-9.7289-.5941.8538,2.8941,3.0524,5.2593,6.0801,6.8336,6.3739,3.3135,18.0056,2.2533,25.2331.5958,1.8867-.4344,14.3092-5.189,14.2894.2948-.0066,1.7617-6.0044,4.4938-8.2093,5.0528-4.2214,1.0702-7.7177.4001-11.2475,1.4859.5408,3.8368,4.7005,5.0472,8.5114,5.348,11.2661.8908,26.6018-1.7665,34.6584,2.0802,2.9118,1.3913,8.5923,4.6185,9.1192,6.8348.4074,1.7104-.3362,4.4244-.9106,5.6463-2.7819,5.9053-11.2585,6.8257-17.3303,10.1016-3.3357,1.8001-5.67,7.2082-9.1199,8.6182-4.1393,1.6911-8.9561-.2893-13.3766.8908-4.8697,1.3008-7.1153,5.272-8.3664,10.4294h-4.4608v20.5779l5.4711,11.3472-4.4397,25.0964h-5.1493l-82.8961-177.4833h371.651Z" style="fill: #fff;"/>
  <path d="M346.3418,502.8776l-35.1251-75.205c2.8517-1.7582,6.7531-2.9173,11.0919-2.9097,4.696-.0066,8.905,1.3366,11.7942,3.3495,2.9157,2.0416,4.4061,4.565,4.4044,7.133v30.5835h19.3966v-30.5835c-.0043-2.568,1.4861-5.0914,4.4018-7.133,2.8893-2.0129,7.098-3.3561,11.7958-3.3495,4.6999-.0066,8.905,1.3366,11.7969,3.3495,2.9124,2.0416,4.4062,4.565,4.4013,7.133v30.5835h19.3976v-30.5835c-.0033-2.568,1.4877-5.0914,4.4007-7.133,2.8888-2.0129,7.097-3.3561,11.7948-3.3495,4.6966-.0066,8.9075,1.3366,11.7975,3.3495,2.9157,2.0416,4.4067,4.565,4.4005,7.133v30.5835h19.3984v-30.5835c-.0021-2.568,1.4887-5.0914,4.4012-7.133,2.8908-2.0129,7.1002-3.3561,11.7991-3.3495,4.3406-.0088,8.2402,1.1548,11.093,2.912l-35.1247,75.2027h-107.3162Z" style="fill: #7acae6;"/>
  <polygon points="431.4376 550.4525 400.0003 617.7616 368.5621 550.4525 431.4376 550.4525" style="fill: #7acae6;"/>
  <path d="M490.8947,423.1524c-3.6614-2.1264-8.2418-3.3334-13.2051-3.3429-5.6276.0062-10.7548,1.5631-14.6219,4.2364-3.8423,2.6491-6.5293,6.6076-6.5308,11.1996v25.6282h-9.4899v-25.6282c-.0043-4.592-2.6898-8.5505-6.5331-11.1996-3.866-2.6733-8.9941-4.2302-14.6211-4.2364-5.6249.0062-10.7536,1.5631-14.6185,4.2364-3.8444,2.6491-6.5281,6.6076-6.5304,11.1996v25.6282h-9.4918v-25.6282c-.0027-4.592-2.6859-8.5505-6.5305-11.1996-3.8647-2.6733-8.9946-4.2302-14.6201-4.2364-5.6243.0062-10.7542,1.5631-14.6184,4.2364-3.8446,2.6491-6.5295,6.6076-6.5316,11.1996v25.6282h-9.4918v-25.6282c-.005-4.592-2.6898-8.5505-6.5316-11.1996-3.8671-2.6733-8.9958-4.2302-14.6195-4.2364-4.9667.009-9.5333,1.2314-13.1958,3.3585l-9.7285-20.8258h201.2311l-9.7207,20.8102Z" style="fill: #fff;"/>
  <path d="M344.4165,329.6406c2.4837-1.7092,4.5714-.9458,6.9928-1.7824,3.8726-1.3394,5.304-4.8874,8.5124-7.1313.8967-.6282,2.2995-.8108,3.3446-1.4859,1.8381-1.1906,2.5729-3.4697,4.8631-3.5656,3.29-.1378,3.9552,3.8702,6.0789,5.348,2.9367,2.0427,5.7869.7562,7.2977,3.5667-.3788,3.6919-.9398,7.8352-1.8239,11.8853-.5771,2.6401-2.3523,7.0793-4.8648,8.023-3.9735,1.4931-8.6437-1.5412-12.1606,1.1882.1443,2.1354,2.2509,4.1351,3.9525,5.6457,3.5358,3.1385,6.5475,4.8218,12.7692,5.6453-1.0482,4.4548-5.0758,7.0259-10.0326,6.2405-1.9579-.3092-3.0877-2.1998-4.5611-2.0792-1.3769.1108-2.742,1.9269-2.7354,2.9703.016,2.5091,6.4476,5.8394,9.1205,6.2399,4.7236.7095,6.9063-2.079,11.2478-1.7819-.5841,3.4284-1.3243,8.75-5.4715,9.8054-2.0984.5336-5.1061-.8938-6.6881,1.1879,2.1237,9.8535,12.475-.2145,17.3281,1.1888-.2514,3.9068-4.8191,8.226-8.2077,10.9957-2.0471-.0198-4.335-.2772-4.8648,1.1877,1.5087,3.5595,8.2314,1.9831,10.64,1.1885,6.8249-2.2556,9.9141-8.9789,14.8466-12.4799,4.9327,3.501,8.022,10.2243,14.8466,12.4799,2.4103.7947,9.1327,2.371,10.64-1.1885-.5285-1.4649-2.8175-1.2075-4.8634-1.1877-3.3876-2.7696-7.9586-7.0889-8.2077-10.9957,4.8543-1.4033,15.2032,8.6647,17.3279-1.1888-1.5829-2.0817-4.5897-.6543-6.688-1.1879-4.1471-1.0554-4.8885-6.377-5.4726-9.8054,4.3415-.2971,6.5254,2.4914,11.2479,1.7819,2.675-.4005,9.1045-3.7308,9.1204-6.2399.0066-1.0434-1.3576-2.8595-2.7345-2.9703-1.4727-.1206-2.6032,1.77-4.5609,2.0792-4.958.7854-8.9849-1.7858-10.0326-6.2405,6.2195-.8235,9.2334-2.5068,12.7686-5.6453,1.7016-1.5106,3.8091-3.5103,3.9519-5.6457-3.5159-2.7294-8.1861.3049-12.1596-1.1882-2.5123-.9437-4.2875-5.3828-4.8646-8.023-.883-4.0501-1.4463-8.1933-1.8239-11.8853,1.5103-2.8105,4.3604-1.524,7.2954-3.5667,2.1249-1.4778,2.7901-5.4858,6.0813-5.348,2.2896.0958,3.0254,2.375,4.8631,3.5656,1.044.6751,2.4467.8577,3.3435,1.4859,3.2083,2.2439,4.641,5.7919,8.5135,7.1313,2.4202.8367,4.5092.0733,6.9917,1.7824,1.9777,4.2772-2.6991,6.8777-3.2801,10.7266h-7.7638v20.5789l5.4699,11.3478-4.4403,25.0948h-91.1407l-4.4397-25.0937,5.4699-11.3466v-20.5812h-7.7634c-.5789-3.8482-5.256-6.4488-3.2795-10.7266" style="fill: #fff;"/>
  <path d="M471.6756,378.3358c-3.0232,0-5.4688,1.7529-5.4688,3.9206h.0009v15.1322h-15.6101l4.566-25.8053-5.67-11.7633v-14.5006h6.1888v12.5874h13.2063v-12.5874h5.5724v12.5874h13.2063v-12.5874h6.1888v14.5006l-5.6728,11.7633,4.5648,25.8053h-15.604v-15.1322c0-2.1677-2.4462-3.9206-5.4688-3.9206" style="fill: #fff;"/>
  <path d="M306.143,345.3185h6.1903v12.5884h13.2063v-12.5884h5.5712v12.5884h13.2069v-12.5884h6.1882v14.4976l-5.6718,11.7672,4.566,25.8053h-15.6061v-15.1322c0-2.1677-2.4456-3.9206-5.4688-3.9206s-5.4688,1.7529-5.4688,3.9206v15.1322h-15.6067l4.5648-25.8069-5.6716-11.7657v-14.4976Z" style="fill: #fff;"/>
  <polygon points="387.9482 654.1098 387.9482 668.6704 374.7927 668.6704 374.7927 618.7504 400.0003 645.5908 400.0003 633.1226 361.3884 550.4525 324.5432 550.4525 324.5432 502.8776 339.1675 502.8776 207.0007 219.9053 159.5848 219.9053 400.0003 734.6414 400.0003 665.4527 387.9482 654.1098" style="fill: #d8291a;"/>
  <rect x="318.0088" y="363.6855" width="5.3642" height="5.3652"/>
  <rect x="333.2776" y="363.6855" width="5.3653" height="5.3652"/>
  <rect x="476.6279" y="363.6855" width="5.3642" height="5.3652"/>
  <rect x="461.3592" y="363.6855" width="5.3635" height="5.3652"/>
  <rect x="331.0427" y="509.3789" width="137.9156" height="34.5729" style="fill: #d8291a;"/>
  <polygon points="339.7689 513.8042 347.0252 513.8042 349.3899 531.5528 349.4371 531.5528 351.8706 513.8042 359.0569 513.8042 359.0569 539.5274 354.6564 539.5274 354.6564 520.1142 354.6095 520.1142 351.6606 539.5274 347.1646 539.5274 344.2169 520.1142 344.1696 520.1142 344.1696 539.5274 339.7689 539.5274 339.7689 513.8042" style="fill: #fff;"/>
  <path d="M373.9599,524.204c-1.0539-2.6347-2.4341-4.0898-4.5169-4.0898-2.4583,0-3.7922,2.8424-3.7922,7.0363,0,3.7785,1.0065,6.8991,3.8385,6.8991,1.9423,0,3.4643-1.6981,4.4707-4.0556v6.6903c-1.0301,1.6987-3.0661,3.4664-5.594,3.4664-4.9618,0-7.1157-6.0327-7.1157-13.4847,0-10.3661,3.4168-13.4869,7.3732-13.4869,2.0829,0,4.2601,1.0418,5.3365,3.2598v7.765Z" style="fill: #fff;"/>
  <polygon points="376.1564 513.8042 383.4127 513.8042 385.7767 531.5528 385.8236 531.5528 388.2574 513.8042 395.4433 513.8042 395.4433 539.5274 391.0432 539.5274 391.0432 520.1142 390.9969 520.1142 388.047 539.5274 383.5521 539.5274 380.6033 520.1142 380.5571 520.1142 380.5571 539.5274 376.1564 539.5274 376.1564 513.8042" style="fill: #fff;"/>
  <polygon points="402.1528 526.5951 397.0984 513.8042 402.435 513.8042 405.2902 522.992 408.1458 513.8042 413.4818 513.8042 408.4258 526.5951 413.4818 539.5274 408.0996 539.5274 405.2902 530.8248 402.4813 539.5274 397.0984 539.5274 402.1528 526.5951" style="fill: #fff;"/>
  <polygon points="419.047 526.5951 413.9916 513.8042 419.327 513.8042 422.1844 522.992 425.0401 513.8042 430.3761 513.8042 425.3202 526.5951 430.3761 539.5274 424.9937 539.5274 422.1844 530.8248 419.3756 539.5274 413.9916 539.5274 419.047 526.5951" style="fill: #fff;"/>
  <polygon points="441.1141 539.5274 435.6845 539.5274 430.9334 513.8042 435.707 513.8042 438.3759 531.7958 438.4234 531.7958 441.2784 513.8042 445.9371 513.8042 441.1141 539.5274" style="fill: #fff;"/>
  <rect x="447.7807" y="513.8042" width="4.6824" height="25.7231" style="fill: #fff;"/>
  <rect x="455.5497" y="513.8042" width="4.681" height="25.7231" style="fill: #fff;"/>
  <polygon points="400.0003 650.5641 378.1984 627.3489 378.1984 665.2658 384.5437 665.2658 384.5437 646.2307 400.0003 660.7781 415.4568 646.2307 415.4568 665.2658 421.8024 665.2658 421.8024 627.3489 400.0003 650.5641" style="fill: #fff;"/>
  <path d="M585.8503,298.4779h-3.5586v-24.4526h3.5586c5.2191,0,9.4411,5.2263,9.4411,11.6844s-4.222,12.7682-9.4411,12.7682M583.6835,264.2755h-8.0473v42.8698h8.0473c10.7777,0,18.3014-5.9209,18.3014-22.5577,0-14.1207-7.5236-20.3121-18.3014-20.3121Z" style="fill: #fff;"/>
  <path d="M231.2357,291.9199l-4.2039-4.4044-2.5713-2.6927-2.4813,2.8331c-.1075.1229-2.6909,3.01-7.42,3.01-4.6305,0-7.5056-3.9116-7.5056-10.2095,0-5.1776,3.2851-9.084,7.6432-9.084,1.4685,0,3.2289.727,3.7845,1.0076l3.0833,1.5559,1.5252-3.0999,2.338-4.8039,1.1746-2.4136-2.0714-1.7055c-.4834-.3978-4.9457-3.8869-12.7494-3.8869-10.7921,0-19.2467,10.5122-19.2467,23.9334,0,12.7775,10.3976,23.1727,23.1755,23.1727,9.879,0,15.6658-8.6226,15.9071-8.9897l1.4889-2.2626-1.8708-1.96Z"/>
  <path d="M220.0285,269.3462s-2.6744-1.3784-5.3317-1.3784c-6.2901,0-11.0478,5.5178-11.0478,12.4886,0,8.9099,4.879,13.6143,10.9101,13.6143,6.5067,0,10.01-4.2045,10.01-4.2045l4.2039,4.4052s-4.9051,7.4564-13.0626,7.4564c-10.9276,0-19.7708-8.8422-19.7708-19.7682,0-11.2875,6.8798-20.5287,15.842-20.5287,6.8077,0,10.5854,3.1104,10.5854,3.1104l-2.3386,4.8051Z" style="fill: #fff;"/>
</svg>