<?xml version="1.0" encoding="UTF-8"?>
<svg data-name="图层_1" xmlns="http://www.w3.org/2000/svg" version="1.1" viewBox="0 0 800 800">
  <!-- Created by @FCLOGO 2024-12-10 GMT+8 17:23:24 . https://fclogo.top/ -->
<!-- FOR PERSONAL USE ONLY NOT FOR COMMERCIAL USE -->
  <path d="M348.2194,774.301c-.786,0-1.3752-.2173-1.7682-.6519-.393-.4352-.5284-1.03-.406-1.7856l.2518-1.6478c.122-.755.4501-1.3504.9841-1.785.5339-.4352,1.1939-.6525,1.9799-.6525.7553,0,1.3293.1987,1.7223.5954.3927.3967.551.9381.4747,1.6248h-1.2358c.0304-.3589-.0553-.637-.2573-.8357-.2024-.1981-.4979-.2974-.8869-.2974-.4197,0-.763.1167-1.03.3489-.2673.2328-.4349.5631-.5035.9903l-.2632,1.659c-.0686.4352-.0056.7686.1887,1.0015.1946.2328.5017.3489.9214.3489.389,0,.7152-.0987.9785-.2974.2632-.1981.4365-.4805.5206-.8469h1.2358c-.1372.6867-.4672,1.2306-.9897,1.631-.5228.4005-1.1616.6004-1.9169.6004ZM352.7967,774.1868l.9956-6.2943h1.1902l-.1946,1.1902c.3359-.8698.9729-1.3044,1.9113-1.3044.6712,0,1.1691.208,1.4932.624.3244.416.4293.9859.3148,1.7105l-.0686.4234h-1.2703l.0571-.3204c.0689-.4501.0115-.7953-.1714-1.0356-.1832-.2403-.4771-.3607-.8813-.3607-.4045,0-.7401.1223-1.007.3663-.2673.2446-.4349.588-.5035,1.03l-.6296,3.9711h-1.2358ZM361.9058,774.301c-.7705,0-1.3463-.2229-1.7279-.6693s-.515-1.0356-.4005-1.7682l.2518-1.6478c.0838-.488.2573-.9152.5206-1.2815s.6007-.6507,1.0129-.8524c.4119-.2024.8732-.3036,1.3845-.3036.7705,0,1.3485.2235,1.7338.6693.3852.4464.5169,1.0356.3949,1.7682l-.1717,1.1213h-3.845l-.0916.5265c-.1527.9536.2173,1.4305,1.1098,1.4305.7171,0,1.175-.2477,1.3734-.7438h1.2247c-.1679.5339-.5035.9599-1.007,1.2759-.5038.3166-1.0912.475-1.7626.475ZM361.2306,770.2157l-.0456.2862,2.6548-.0118.0459-.2856c.0686-.4656.0133-.822-.1661-1.0704-.1791-.2477-.4861-.3719-.9211-.3719-.4427,0-.7953.126-1.0586.3775-.2632.2521-.4331.6109-.5094,1.076ZM368.3258,774.301c-.6333,0-1.1027-.2117-1.4078-.6351s-.3967-1.0008-.2744-1.7335l.2744-1.7738c.1145-.7326.393-1.3119.8357-1.7397.4424-.4272.98-.6407,1.6133-.6407.4653,0,.8298.1186,1.093.3545.2632.2365.3908.5575.3834.9617h.023l.1717-1.202h1.2358l-.9956,6.2943h-1.2247l.1946-1.2014h-.023c-.122.4116-.3511.7339-.6867.9667s-.7401.3489-1.2129.3489ZM368.9324,773.2257c.389,0,.7152-.1186.9782-.3551.2632-.2359.4293-.5718.4979-1.007l.2518-1.6478c.0686-.4272.0096-.7612-.1773-1.0015-.1872-.2403-.475-.3601-.8642-.3601-.3967,0-.7249.118-.9841.3545-.2595.2365-.4234.5724-.492,1.007l-.2518,1.6478c-.0686.4427-.0133.7804.1658,1.0133.1794.2328.4712.3489.8757.3489ZM376.3477,774.1868c-.5721,0-.9937-.1565-1.2644-.4694-.271-.3123-.3607-.7512-.2691-1.3156l.538-3.3874h-1.7394l.1714-1.1219h1.7397l.2747-1.7161h1.2358l-.2747,1.7161h2.472l-.1832,1.1219h-2.4605l-.5377,3.3874c-.0764.4421.099.6637.5262.6637h1.7167l-.1717,1.1213h-1.7738ZM382.5042,774.301c-.7705,0-1.3463-.2229-1.7279-.6693s-.515-1.0356-.4005-1.7682l.2518-1.6478c.0838-.488.2573-.9152.5206-1.2815s.6007-.6507,1.0129-.8524c.4119-.2024.8732-.3036,1.3845-.3036.7705,0,1.3485.2235,1.7338.6693.3852.4464.5169,1.0356.3949,1.7682l-.1717,1.1213h-3.845l-.0916.5265c-.1527.9536.2173,1.4305,1.1098,1.4305.7171,0,1.175-.2477,1.3734-.7438h1.2247c-.1679.5339-.5035.9599-1.007,1.2759-.5038.3166-1.0912.475-1.7626.475ZM381.829,770.2157l-.0456.2862,2.6548-.0118.0459-.2856c.0686-.4656.0133-.822-.1661-1.0704-.1791-.2477-.4861-.3719-.9211-.3719-.4427,0-.7953.126-1.0586.3775-.2632.2521-.4331.6109-.5094,1.076ZM388.9243,774.301c-.6333,0-1.1008-.2117-1.4019-.6351-.3014-.4234-.3949-1.0008-.2803-1.7335l.2744-1.7738c.1145-.7326.393-1.3119.8357-1.7397.4424-.4272.98-.6407,1.6133-.6407.4653,0,.8298.1186,1.093.3545.2632.2365.3908.5575.3834.9617h.023l.2058-1.4652.2977-1.7962h1.2358l-1.3274,8.3537h-1.2247l.1946-1.2014h-.023c-.122.4116-.3511.7339-.6867.9667s-.7401.3489-1.2129.3489ZM389.5309,773.2257c.389,0,.7152-.1186.9782-.3551.2632-.2359.4293-.5718.4979-1.007l.2518-1.6478c.0761-.4272.0189-.7612-.1717-1.0015-.1909-.2403-.4805-.3601-.8698-.3601-.3967,0-.7249.118-.9841.3545-.2595.2365-.4234.5724-.492,1.007l-.2518,1.6478c-.0764.4427-.023.7804.1602,1.0133s.4768.3489.8813.3489ZM401.0175,774.301c-.4731,0-.8394-.1161-1.0986-.3489-.2595-.2328-.3852-.5551-.3775-.9667h-.0115l-.1946,1.2014h-1.2243l1.3274-8.3537h1.2358l-.2862,1.7962-.2744,1.4652h.0456c.122-.4123.353-.7345.6923-.9673.3396-.2322.7419-.3489,1.2076-.3489.633,0,1.1002.2136,1.4016.6407.3014.4278.3949,1.007.2806,1.7397l-.2747,1.7738c-.1145.7326-.3949,1.31-.8413,1.7335-.4461.4234-.9822.6351-1.6077.6351ZM400.7657,773.2257c.3967,0,.7227-.1161.9785-.3489.2555-.2328.4216-.5706.4976-1.0133l.2518-1.6478c.0689-.4346.0115-.7705-.1714-1.007-.1832-.2365-.4734-.3545-.8698-.3545-.3893,0-.7152.1198-.9785.3601s-.429.5743-.4979,1.0015l-.2518,1.6478c-.0686.4352-.0112.7711.1717,1.007.1832.2365.4731.3551.8698.3551ZM405.4694,776.2468l.1717-1.0642h1.934c.6407,0,1.007-.3017,1.0986-.9046l.1028-.6749.2061-1.1902h-.0345c-.122.4197-.3471.7438-.6752.9729-.3281.2285-.7286.3433-1.2014.3433-.6258,0-1.093-.2005-1.4019-.601s-.4104-.9443-.3033-1.631l.5836-3.6047h1.2358l-.5606,3.4793c-.0612.4116,0,.732.1832.9611s.4653.3433.8469.3433c.389,0,.7168-.1217.9841-.3663.267-.244.4309-.5836.492-1.0182l.538-3.3992h1.2358l-1.007,6.4086c-.0993.6029-.37,1.0778-.8124,1.4249-.4427.3471-.9996.5209-1.6707.5209h-1.9455ZM417.787,770.0853h3.221l.5368-1.8545h-5.4659l-1.7081,6.4419h2.1473l.5856-2.0985h3.0257l.4392-1.7081h-3.0257l.244-.7808ZM424.229,772.9158c-.5856,0-1.0249-.3904-1.0249-1.1225,0-.8784.6344-1.7569,1.6105-1.7569.488,0,.8784.244,1.0248.7808l1.9521-.8296c-.2928-1.1713-1.2689-1.9033-2.6353-1.9033-2.7817,0-4.1482,2.1473-4.1482,3.9042s1.2689,2.8305,3.0746,2.8305c1.3665,0,2.3425-.5856,2.9769-1.4153l-1.5129-1.1713c-.3904.4392-.8296.6832-1.3177.6832ZM430.9149,768.2308h-2.1473l-1.7569,6.4419h5.1242l.488-1.8545h-2.9281l1.2201-4.5874ZM439.7481,771.0125c0-1.6593-1.3177-2.9281-3.221-2.9281-2.1961,0-3.8066,1.8057-3.8066,3.8066,0,1.6593,1.3177,2.9281,3.221,2.9281,2.1961,0,3.8066-1.8057,3.8066-3.8066ZM434.9167,771.6957c0-.8296.5856-1.7081,1.5129-1.7081.7808,0,1.1713.5368,1.1713,1.2201,0,.8296-.5856,1.7081-1.5129,1.7081-.7808,0-1.1713-.5368-1.1713-1.2201ZM443.2131,772.2326h1.0737l-.1952.6832c-.1464.0488-.3416.0976-.5856.0976-.6832,0-1.2689-.3904-1.2689-1.2201,0-1.0249.732-1.9033,1.9521-1.9033.5856,0,1.1225.244,1.5129.5856l1.3665-1.3665c-.4392-.5368-1.5129-1.0737-2.7329-1.0737-2.5865,0-4.2946,1.7569-4.2946,3.8554,0,2.0497,1.6105,2.8793,3.221,2.8793.9272,0,1.8545-.2928,2.4889-.6832l.9272-3.3186h-3.1234l-.3416,1.4641ZM450.7775,768.0844c-2.1961,0-3.8066,1.8057-3.8066,3.8066,0,1.6593,1.3177,2.9281,3.221,2.9281,2.1961,0,3.8066-1.8057,3.8066-3.8066,0-1.6593-1.3177-2.9281-3.221-2.9281ZM450.3382,772.9158c-.7808,0-1.1713-.5368-1.1713-1.2201,0-.8296.5856-1.7081,1.5129-1.7081.7808,0,1.1713.5368,1.1713,1.2201,0,.8296-.5856,1.7081-1.5129,1.7081ZM437.9424,767.4987c-.0488.2928.0976.488.4392.488s.5368-.1952.6344-.488c.0488-.244-.0976-.488-.4392-.488s-.5856.244-.6344.488ZM432.1349,765.4978c-.4392,0-.732.244-.7808.5856s.0976.5856.5368.5856.732-.244.7808-.5856c.0976-.3416-.0976-.5856-.5368-.5856ZM433.0134,767.3035c-.0976.5368.1464.8784.8296.8784.6344,0,1.0737-.3904,1.1713-.8784s-.1464-.8784-.8296-.8784c-.6832,0-1.0737.3904-1.1713.8784ZM439.6017,777.552l-2.4401-1.8057h-1.5129l4.2458,3.1722,1.6105-3.1722h-.976l-.9272,1.8057ZM425.8394,767.1571l-2.0009-1.4641,23.1323-2.7817-2.1473,4.2458h1.0248l2.6841-5.3195-26.9877,3.221,2.7817,2.0985h1.5129ZM338.7186,785.7853l.6088-3.8315h2.32l-.084.5194h-1.7636l-.1837,1.1445h1.6272l-.084.5248h-1.6166l-.2573,1.6428h-.5668ZM342.97,785.8377c-.3568,0-.6228-.1005-.7978-.3019-.175-.201-.2345-.473-.1784-.8161l.2677-1.7006c.056-.3429.2029-.6148.4408-.8161.2379-.201.5355-.3019.8923-.3019s.6228.1.7979.2993c.1748.1993.2361.4707.1837.8136l-.2677,1.7057c-.0561.3431-.2039.6151-.4435.8161-.2398.2013-.5381.3019-.895.3019ZM343.0487,785.3339c.1925,0,.3483-.0524.4672-.1575.119-.1051.1942-.2571.2257-.4568l.2678-1.7006c.0315-.1993.0051-.3517-.0787-.4565-.084-.1051-.2223-.1575-.4148-.1575s-.3473.0524-.4645.1575c-.1173.1048-.1916.2571-.2231.4565l-.2677,1.7006c-.0315.1996-.0053.3517.0787.4568s.2204.1575.4094.1575ZM344.9961,785.7853l.6088-3.8315h1.202c.2379,0,.4391.0464.6036.139.1645.0928.2835.223.357.391s.091.3656.0524.5932c-.0384.2591-.14.4838-.3044.6746-.1645.1905-.3656.3209-.6036.391l.5354,1.6428h-.6194l-.4777-1.5748h-.5406l-.2466,1.5748h-.5668ZM345.8883,783.7068h.6352c.1889,0,.349-.0558.4803-.168.1313-.1119.2107-.2623.2388-.4514.0316-.1925,0-.3454-.0944-.4593-.0945-.1136-.2362-.1706-.4252-.1706h-.6352l-.1995,1.2493ZM349.545,785.7853l.6088-3.8315h1.2544c.3709,0,.6508.1048.8399.315.1889.2099.2553.4898.1993.8398-.0384.2344-.1216.4383-.2493.6114s-.2905.307-.4881.4015c-.1978.0945-.419.1418-.6639.1418h-.6928l-.2415,1.5221h-.5668ZM350.432,783.754h.6928c.1924,0,.3568-.0587.4934-.176.1364-.117.2204-.2737.2519-.4696s-.0017-.3525-.0997-.4699-.245-.1757-.441-.1757h-.6876l-.2099,1.2911ZM352.7466,785.7853l.6088-3.8315h2.2518l-.0787.5038h-1.6954l-.1731,1.0867h1.5115l-.0787.4986h-1.5115l-.1942,1.2387h1.6901l-.0787.5038h-2.2518ZM355.8434,785.7853l.6088-3.8315h1.202c.2379,0,.4391.0464.6036.139.1645.0928.2835.223.357.391s.091.3656.0524.5932c-.0384.2591-.14.4838-.3044.6746-.1645.1905-.3656.3209-.6036.391l.5354,1.6428h-.6194l-.4777-1.5748h-.5406l-.2466,1.5748h-.5668ZM356.7356,783.7068h.6352c.1889,0,.349-.0558.4803-.168.1313-.1119.2107-.2623.2388-.4514.0316-.1925,0-.3454-.0944-.4593-.0945-.1136-.2362-.1706-.4252-.1706h-.6352l-.1995,1.2493ZM360.1316,785.8377c-.385,0-.6736-.0951-.8661-.2859-.1924-.1908-.2641-.4505-.2151-.7794h.5668c-.028.1748.0105.3121.1155.4121.1051.0997.266.1495.483.1495.2029,0,.3701-.049.5012-.1469.1313-.098.2109-.2327.2389-.4044.0209-.1504.0007-.2788-.0604-.3856-.0614-.1068-.1583-.1811-.2913-.2233l-.4566-.1364c-.266-.0803-.4619-.217-.5879-.4095-.126-.1922-.1697-.4197-.1313-.6823.035-.2099.1121-.3935.2309-.551s.2729-.2799.4619-.3673.4024-.1313.6404-.1313c.3498,0,.6158.0954.7978.2859.182.1908.2485.4437.1995.7586h-.5668c.0279-.168-.0027-.3001-.092-.3964-.0891-.0963-.2301-.1444-.4225-.1444-.1889,0-.343.0447-.4619.1338-.119.0894-.1889.2144-.21.3753-.0245.1506-.007.2791.0525.3859s.1575.1811.2939.223l.4672.1469c.2624.0806.4558.2173.5801.4095.1242.1925.1653.4217.1233.6877-.035.217-.1155.4058-.2415.5667-.1259.1612-.2878.2862-.4855.3753-.1976.0894-.419.1338-.6639.1338ZM363.2651,785.8377c-.3568,0-.6228-.1005-.7978-.3019-.175-.201-.2345-.473-.1784-.8161l.2677-1.7006c.056-.3429.2029-.6148.4408-.8161.2379-.201.5355-.3019.8923-.3019s.6228.1.7979.2993c.1748.1993.2361.4707.1837.8136l-.2677,1.7057c-.0561.3431-.2039.6151-.4435.8161-.2398.2013-.5381.3019-.895.3019ZM363.3439,785.3339c.1925,0,.3483-.0524.4672-.1575.119-.1051.1942-.2571.2257-.4568l.2678-1.7006c.0315-.1993.0051-.3517-.0787-.4565-.084-.1051-.2223-.1575-.4148-.1575s-.3473.0524-.4645.1575c-.1173.1048-.1916.2571-.2231.4565l-.2677,1.7006c-.0315.1996-.0053.3517.0787.4568s.2204.1575.4094.1575ZM365.2754,785.7853l.6088-3.8315h.7086l.6194,3.186c.007-.098.0165-.217.0289-.3571.0121-.1398.0271-.2851.0446-.4354.0175-.1506.0367-.2888.0577-.4146l.315-1.9788h.525l-.609,3.8315h-.7085l-.6141-3.186c-.0071.0945-.0167.209-.0289.3437s-.0272.2757-.0446.4226c-.0177.1469-.0367.2833-.0578.4095l-.315,2.0102h-.5301ZM368.2252,785.7853l1.5851-3.8315h.7454l.3726,3.8315h-.5616l-.0735-.9711h-1.0865l-.3884.9711h-.5932ZM369.3852,784.3418h.8714l-.0893-1.1023c-.0175-.1959-.0298-.3654-.0367-.5089-.0071-.1435-.0105-.2432-.0105-.2993-.0175.0561-.0517.1558-.1024.2993s-.1146.3112-.1915.5038l-.441,1.1075ZM371.7208,785.7853l.6088-3.8315h.567l-.525,3.3118h1.6744l-.0787.5197h-2.2465ZM376.6785,785.8377c-.3673,0-.6342-.1005-.8003-.3019-.1663-.201-.2214-.475-.1654-.8213l.4357-2.7608h.567l-.4357,2.7554c-.0315.1962-.008.35.0708.4619.0787.1122.2144.168.4068.168.1925,0,.3473-.0558.4646-.168.1172-.1119.1915-.2657.2231-.4619l.4355-2.7554h.567l-.4357,2.7608c-.056.35-.2003.6245-.433.8241-.2328.1993-.5328.299-.9003.299ZM379.8435,785.8377c-.385,0-.6736-.0951-.8661-.2859-.1924-.1908-.2641-.4505-.2151-.7794h.5668c-.028.1748.0105.3121.1155.4121.1051.0997.266.1495.483.1495.2029,0,.3701-.049.5012-.1469.1313-.098.2109-.2327.2389-.4044.0209-.1504.0007-.2788-.0604-.3856-.0614-.1068-.1583-.1811-.2913-.2233l-.4566-.1364c-.266-.0803-.4619-.217-.5879-.4095-.126-.1922-.1697-.4197-.1313-.6823.035-.2099.1121-.3935.2309-.551s.2729-.2799.4619-.3673.4024-.1313.6404-.1313c.3498,0,.6158.0954.7978.2859.182.1908.2485.4437.1995.7586h-.5668c.0279-.168-.0027-.3001-.092-.3964-.0891-.0963-.2301-.1444-.4225-.1444-.1889,0-.343.0447-.4619.1338-.119.0894-.1889.2144-.21.3753-.0245.1506-.007.2791.0525.3859s.1575.1811.2939.223l.4672.1469c.2624.0806.4558.2173.5801.4095.1242.1925.1653.4217.1233.6877-.035.217-.1155.4058-.2415.5667-.1259.1612-.2878.2862-.4855.3753-.1976.0894-.419.1338-.6639.1338ZM381.9062,785.7853l.6088-3.8315h2.2518l-.0787.5038h-1.6954l-.1731,1.0867h1.5115l-.0787.4986h-1.5115l-.1942,1.2387h1.6901l-.0787.5038h-2.2518ZM386.9426,785.8377c-.3568,0-.6228-.1005-.7978-.3019-.175-.201-.2345-.473-.1784-.8161l.2677-1.7006c.056-.3429.2029-.6148.4408-.8161.2379-.201.5355-.3019.8923-.3019s.6228.1.7979.2993c.1748.1993.2361.4707.1837.8136l-.2677,1.7057c-.0561.3431-.2039.6151-.4435.8161-.2398.2013-.5381.3019-.895.3019ZM387.0213,785.3339c.1925,0,.3483-.0524.4672-.1575.119-.1051.1942-.2571.2257-.4568l.2678-1.7006c.0315-.1993.0051-.3517-.0787-.4565-.084-.1051-.2223-.1575-.4148-.1575s-.3473.0524-.4645.1575c-.1173.1048-.1916.2571-.2231.4565l-.2677,1.7006c-.0315.1996-.0053.3517.0787.4568s.2204.1575.4094.1575ZM388.9529,785.7853l.6088-3.8315h.7086l.6194,3.186c.007-.098.0165-.217.0289-.3571.0121-.1398.0271-.2851.0446-.4354.0175-.1506.0367-.2888.0577-.4146l.315-1.9788h.525l-.609,3.8315h-.7085l-.6141-3.186c-.0071.0945-.0167.209-.0289.3437s-.0272.2757-.0446.4226c-.0177.1469-.0367.2833-.0578.4095l-.315,2.0102h-.5301ZM392.249,785.7853l.6088-3.8315h.567l-.525,3.3118h1.6744l-.0787.5197h-2.2465ZM396.1174,785.7853l.2204-1.4119-.7506-2.4197h.5774l.4462,1.4486c.0279.0945.0498.1837.0656.2677.0157.084.0253.1469.0288.1888.0175-.0419.0464-.1048.0867-.1888.0402-.084.0883-.1731.1442-.2677l.8976-1.4486h.5984l-1.5275,2.4197-.2204,1.4119h-.5668ZM399.217,785.7853l.6088-3.8315h.7086l.6192,3.186c.0071-.098.0165-.217.029-.3571.012-.1398.0271-.2851.0444-.4354.0177-.1506.037-.2888.0578-.4146l.315-1.9788h.5248l-.6088,3.8315h-.7085l-.6141-3.186c-.0071.0945-.0167.209-.0289.3437s-.0272.2757-.0446.4226c-.0177.1469-.0367.2833-.0578.4095l-.315,2.0102h-.5301ZM403.5053,785.8377c-.3571,0-.6231-.1005-.7979-.3019-.1751-.201-.2344-.473-.1785-.8161l.2677-1.7006c.0561-.3429.203-.6148.4411-.8161.2378-.201.5354-.3019.8922-.3019.3571,0,.6228.1.7979.2993.1748.1993.2361.4707.1837.8136l-.2677,1.7057c-.0561.3431-.2039.6151-.4437.8161-.2395.2013-.5379.3019-.8947.3019ZM403.5839,785.3339c.1925,0,.3483-.0524.4673-.1575.1187-.1051.1942-.2571.2255-.4568l.2677-1.7006c.0316-.1993.0054-.3517-.0786-.4565-.084-.1051-.2224-.1575-.4146-.1575-.1925,0-.3474.0524-.4647.1575-.117.1048-.1914.2571-.223.4565l-.2677,1.7006c-.0316.1996-.0051.3517.0789.4568.0837.1051.2204.1575.4092.1575ZM406.3814,785.7853l.5248-3.3121h-1.0234l.084-.5194h2.6193l-.084.5194h-1.0289l-.5248,3.3121h-.567ZM409.5178,785.7853l.6088-3.8315h2.32l-.084.5194h-1.7636l-.1837,1.1445h1.6272l-.084.5248h-1.6166l-.2571,1.6428h-.567ZM413.7694,785.8377c-.3571,0-.6231-.1005-.7979-.3019-.1751-.201-.2344-.473-.1785-.8161l.2677-1.7006c.0561-.3429.203-.6148.4411-.8161.2378-.201.5354-.3019.8922-.3019.3571,0,.6228.1.7979.2993.1748.1993.2361.4707.1837.8136l-.2677,1.7057c-.0561.3431-.2039.6151-.4437.8161-.2395.2013-.5379.3019-.8947.3019ZM413.848,785.3339c.1925,0,.3483-.0524.4673-.1575.1187-.1051.1942-.2571.2255-.4568l.2677-1.7006c.0316-.1993.0054-.3517-.0786-.4565-.084-.1051-.2224-.1575-.4146-.1575-.1925,0-.3474.0524-.4647.1575-.117.1048-.1914.2571-.223.4565l-.2677,1.7006c-.0316.1996-.0051.3517.0789.4568.0837.1051.2204.1575.4092.1575ZM415.7952,785.7853l.6088-3.8315h1.202c.2381,0,.4391.0464.6037.139.1643.0928.2833.223.3568.391s.0911.3656.0527.5932c-.0387.2591-.1401.4838-.3044.6746-.1646.1905-.3659.3209-.6037.391l.5354,1.6428h-.6194l-.4776-1.5748h-.5408l-.2466,1.5748h-.567ZM416.6876,783.7068h.635c.1891,0,.3491-.0558.4804-.168.131-.1119.2107-.2623.2386-.4514.0316-.1925,0-.3454-.0945-.4593-.0943-.1136-.2361-.1706-.4252-.1706h-.635l-.1993,1.2493ZM420.905,785.8377c-.3602,0-.6308-.1005-.8107-.3019-.1803-.201-.2423-.473-.1865-.8161l.2677-1.7006c.0561-.3463.2056-.6194.4488-.8187s.545-.2993.9056-.2993c.3568,0,.6253.1008.8056.3019.1803.2013.2423.4733.1865.8161h-.567c.0313-.1993.0026-.3517-.0866-.4565-.0894-.1051-.2284-.1575-.4175-.1575-.1925,0-.3508.0524-.475.1575-.1242.1048-.2019.2554-.2335.4514l-.2677,1.7057c-.0316.1996-.0026.3517.0866.4568.0894.1051.2301.1575.4226.1575s.35-.0524.4724-.1575.1993-.2571.2309-.4568h.5667c-.0347.2275-.1145.4252-.2386.5932s-.2808.2976-.4699.3884c-.1888.0908-.4024.1364-.6404.1364ZM424.0335,785.8377c-.3571,0-.6231-.1005-.7979-.3019-.1751-.201-.2344-.473-.1785-.8161l.2677-1.7006c.0561-.3429.203-.6148.4411-.8161.2378-.201.5354-.3019.8922-.3019.3571,0,.6228.1.7979.2993.1748.1993.2361.4707.1837.8136l-.2677,1.7057c-.0561.3431-.2039.6151-.4437.8161-.2395.2013-.5379.3019-.8947.3019ZM424.1121,785.3339c.1925,0,.3483-.0524.4673-.1575.1187-.1051.1942-.2571.2255-.4568l.2677-1.7006c.0316-.1993.0054-.3517-.0786-.4565-.084-.1051-.2224-.1575-.4146-.1575-.1925,0-.3474.0524-.4647.1575-.117.1048-.1914.2571-.223.4565l-.2677,1.7006c-.0316.1996-.0051.3517.0789.4568.0837.1051.2204.1575.4092.1575ZM425.9653,785.7853l.6088-3.8315h.6874l.1837,1.2282c.0211.119.0367.2301.0473.3332.0105.1034.0194.1828.0262.2389.0177-.0561.0473-.1364.0894-.2415.0419-.1051.0908-.217.1469-.336l.5667-1.2228h.7088l-.6088,3.8315h-.5354l.2045-1.2911c.0245-.168.0578-.3525.1-.5539.0419-.201.0874-.4041.1364-.6088s.0963-.3998.1418-.5852c.0453-.1854.0874-.3483.1259-.4881l-.8554,1.8632h-.5513l-.2833-1.8632c-.0037.1364-.0105.2947-.0211.475s-.0236.3719-.0393.5747c-.0157.203-.035.4069-.0578.6114-.0228.2047-.0481.3964-.076.5749l-.2047,1.2911h-.5405ZM429.1145,785.7853l.6088-3.8315h.6874l.1837,1.2282c.0211.119.0367.2301.0473.3332.0105.1034.0194.1828.0262.2389.0177-.0561.0473-.1364.0894-.2415.0419-.1051.0908-.217.1469-.336l.5667-1.2228h.7088l-.6088,3.8315h-.5354l.2045-1.2911c.0245-.168.0578-.3525.1-.5539.0419-.201.0874-.4041.1364-.6088s.0963-.3998.1418-.5852c.0453-.1854.0874-.3483.1259-.4881l-.8554,1.8632h-.5513l-.2833-1.8632c-.0037.1364-.0105.2947-.0211.475s-.0236.3719-.0393.5747c-.0157.203-.035.4069-.0578.6114-.0228.2047-.0481.3964-.076.5749l-.2047,1.2911h-.5405ZM432.4107,785.7853l.6088-3.8315h2.2516l-.0786.5038h-1.6955l-.1731,1.0867h1.5115l-.0786.4986h-1.5118l-.1942,1.2387h1.6901l-.0786.5038h-2.2516ZM435.5073,785.7853l.6088-3.8315h1.202c.2381,0,.4391.0464.6037.139.1643.0928.2833.223.3568.391s.0911.3656.0527.5932c-.0387.2591-.1401.4838-.3044.6746-.1646.1905-.3659.3209-.6037.391l.5354,1.6428h-.6194l-.4776-1.5748h-.5408l-.2466,1.5748h-.567ZM436.3997,783.7068h.635c.1891,0,.3491-.0558.4804-.168.131-.1119.2107-.2623.2386-.4514.0316-.1925,0-.3454-.0945-.4593-.0943-.1136-.2361-.1706-.4252-.1706h-.635l-.1993,1.2493ZM439.8007,785.8377c-.3602,0-.6308-.1005-.8107-.3019-.1803-.201-.2423-.473-.1865-.8161l.2677-1.7006c.0561-.3463.2056-.6194.4488-.8187s.545-.2993.9056-.2993c.3568,0,.6253.1008.8056.3019.1803.2013.2423.4733.1865.8161h-.567c.0313-.1993.0026-.3517-.0866-.4565-.0894-.1051-.2284-.1575-.4175-.1575-.1925,0-.3508.0524-.475.1575-.1242.1048-.2019.2554-.2335.4514l-.2677,1.7057c-.0316.1996-.0026.3517.0866.4568.0894.1051.2301.1575.4226.1575s.35-.0524.4724-.1575.1993-.2571.2309-.4568h.5667c-.0347.2275-.1145.4252-.2386.5932s-.2808.2976-.4699.3884c-.1888.0908-.4024.1364-.6404.1364ZM441.8792,785.7853l.0789-.5038h.7768l.4459-2.824h-.7766l.0837-.5038h2.1258l-.084.5038h-.7766l-.4462,2.824h.7768l-.0789.5038h-2.1258ZM444.7399,785.7853l1.585-3.8315h.7452l.3728,3.8315h-.5616l-.0735-.9711h-1.0867l-.3884.9711h-.5929ZM445.8998,784.3418h.8714l-.0894-1.1023c-.0174-.1959-.0296-.3654-.0367-.5089-.0068-.1435-.0103-.2432-.0103-.2993-.0177.0561-.0518.1558-.1025.2993s-.1148.3112-.1916.5038l-.4408,1.1075ZM448.2354,785.7853l.6088-3.8315h.567l-.5248,3.3118h1.6741l-.0786.5197h-2.2465ZM453.1932,785.8377c-.3676,0-.6345-.1005-.8005-.3019-.1663-.201-.2213-.475-.1654-.8213l.4357-2.7608h.567l-.4357,2.7554c-.0316.1962-.008.35.0709.4619.0786.1122.2141.168.4066.168s.3474-.0558.4645-.168c.1173-.1119.1916-.2657.2233-.4619l.4357-2.7554h.5667l-.4357,2.7608c-.0558.35-.2002.6245-.4328.8241-.2329.1993-.5328.299-.9001.299ZM456.3581,785.8377c-.385,0-.6738-.0951-.866-.2859-.1925-.1908-.2643-.4505-.2153-.7794h.567c-.0282.1748.0105.3121.1153.4121.1051.0997.266.1495.483.1495.2028,0,.3699-.049.5012-.1469s.2107-.2327.2389-.4044c.0211-.1504.0009-.2788-.0604-.3856s-.1583-.1811-.2913-.2233l-.4568-.1364c-.266-.0803-.4619-.217-.5878-.4095-.1259-.1922-.1697-.4197-.1313-.6823.035-.2099.1119-.3935.2309-.551s.2731-.2799.4619-.3673c.1891-.0874.4024-.1313.6404-.1313.3497,0,.6157.0954.7979.2859.1817.1908.2483.4437.1993.7586h-.567c.0279-.168-.0026-.3001-.0917-.3964-.0894-.0963-.2301-.1444-.4226-.1444-.1891,0-.3429.0447-.4619.1338-.119.0894-.1891.2144-.2099.3753-.0245.1506-.0071.2791.0524.3859s.1575.1811.2939.223l.4673.1469c.2623.0806.4556.2173.5798.4095.1242.1925.1654.4217.1236.6877-.035.217-.1156.4058-.2415.5667-.1262.1612-.2879.2862-.4855.3753-.1979.0894-.4192.1338-.6641.1338ZM458.4209,785.7853l.6088-3.8315h2.2516l-.0786.5038h-1.6955l-.1731,1.0867h1.5115l-.0786.4986h-1.5118l-.1942,1.2387h1.6901l-.0786.5038h-2.2516Z" style="fill: #ccc;"/>
  <path d="M288.5619,515.8958l-14.0531,1.6492.4732,4.0096,4.97-.5824,1.6968,14.4619,4.1076-.4816-1.694-14.4647,4.97-.5796-.4704-4.0124ZM297.6562,520.009c-.7224.0588-1.4364.2968-2.1252.7112l-.5516-6.6276-4.0236.3332,1.6408,19.7931,4.0236-.3332-.784-9.422c.4732-.5852,1.0808-.9016,1.8508-.966.7308-.0504,1.246.112,1.5876.5264.378.4536.616,1.232.7056,2.3072l.5992,7.2268,4.0236-.3332-.5992-7.2268c-.3444-4.2336-2.562-6.3084-6.3476-5.9892ZM312.5634,518.945c-1.9964.1232-3.5588.9128-4.6424,2.3436-1.0696,1.4084-1.5512,3.1052-1.4336,5.0428.1204,1.9796.8652,3.612,2.212,4.8608,1.2152,1.1256,2.8364,1.6968,4.8272,1.6968.224,0,.4536-.0084.686-.0224,1.6604-.1036,3.1304-.532,4.3652-1.2824l.2492-.1512-.4312-3.6288-.602.3696c-.4928.3024-1.092.574-1.7808.8064-.6916.2324-1.3076.3696-1.8312.4004-.8204.0448-1.5344-.1484-2.2064-.6048-.5348-.3668-.9128-.8932-1.1508-1.6016l7.9576-.4872.0504-.364c.098-.6776.1316-1.2908.098-1.8228-.112-1.7696-.7728-3.178-1.9684-4.1944-1.19-1.0052-2.6544-1.456-4.3988-1.3608ZM313.1066,522.4058c.5348,0,.9324.1624,1.2096.4928.2464.2968.4116.6272.4956.9968l-4.0068.2464c.1344-.4256.336-.7868.602-1.0808.3668-.3976.8652-.6132,1.5232-.6496.0588-.0028.1204-.0056.1764-.0056ZM340.7005,522.739c-.3752-.3836-.742-.7084-1.0808-.9688-.3724-.2828-.8652-.5208-1.5036-.7308l-2.8364-.9296c-1.1872-.3024-2.0888-.6076-2.674-.9072-.4676-.2408-.6944-.5684-.7112-1.0276-.0196-.4788.1848-.7952.6636-1.0248.5824-.28,1.2824-.4368,2.0776-.4648,1.4364-.0588,3.1416.392,5.0512,1.33l.6104.2996.2548-4.2924-.2352-.14c-.5824-.35-1.4168-.6468-2.5424-.9072-1.1032-.2604-2.254-.3668-3.4244-.3192-2.2792.0896-3.9788.7504-5.054,1.9684-1.0696,1.2124-1.582,2.5872-1.5232,4.0936.0196.4788.1036.9324.2492,1.3412.14.3976.3024.7448.4844,1.036.1932.3108.4788.6076.8512.8848.3444.2576.6356.4536.8736.5964.2576.1512.63.3108,1.1452.4872l1.0304.3276c.2072.084.5796.2016,1.1088.3584l1.2992.4172c.2492.0784.5936.2128,1.036.3976.5124.2156.7504.378.8596.4732.1652.1484.3276.3444.4844.588.1344.2156.2072.4508.2156.7224.0196.4788-.1512.8204-.532,1.0724-.4424.294-1.1592.4592-2.128.4984-1.1536.0588-2.2176-.084-3.1416-.3864-.9156-.3024-1.6352-.686-2.142-1.1396l-.6944-.6216-.3024,4.914.238.14c.6132.364,1.4476.6496,2.5592.8792.8792.1792,1.8312.2688,2.8448.2688.2352,0,.476-.0056.7196-.014,1.1816-.0448,2.2316-.2128,3.1164-.4928.8932-.2856,1.6044-.63,2.1112-1.0276.5152-.4004.9296-.8848,1.2348-1.4364.2996-.5432.4928-1.0556.5684-1.5204.0728-.4424.098-.9212.0812-1.4252-.0252-.6692-.14-1.2852-.3332-1.8312-.1988-.5741-.5067-1.0724-.9099-1.4869ZM356.106,517.3742l-4.6704.1288-3.2228,4.4128-.2996-10.6344-4.0376.112.56,19.8547,4.0376-.112-.1344-4.6648,3.4664,4.5724,4.6396-.1344-5.1324-6.8712,4.7936-6.664ZM363.7668,524.6346l-3.1612-7.35-4.4856.0868,5.6924,12.166-2.9708,7.4452,4.1356-.0784,7.8988-19.8127-4.1328.0784-2.9764,7.4648ZM379.57,511.9563l4.0376-.0335.0335,4.0376-4.0376.0335-.0335-4.0376ZM379.6261,516.9991l4.0376-.0343.1151,13.5435-4.0376.0343-.1151-13.5435ZM392.6627,522.2126l-1.4112-.3752c-.1624-.0588-.2856-.1064-.3752-.1456-.084-.0392-.1904-.0896-.3164-.1512-.112-.056-.1512-.0952-.1568-.1036-.056-.0644-.112-.1344-.1736-.2156-.028-.0364-.0448-.0784-.0588-.1344-.0168-.0672-.0252-.1512-.0252-.2492-.0028-.294.1092-.4872.3584-.63.3192-.182.7448-.2744,1.2684-.28h.0112c.5684,0,1.1592.126,1.7556.3752.5964.2492,1.0584.5348,1.372.8456l.6748.672.3892-3.92-.2184-.1512c-.4172-.2912-1.0164-.532-1.8256-.7336-.7784-.196-1.5708-.2352-2.394-.2912-1.7556.0056-3.0632.4732-3.8836,1.3916-.8092.9072-1.218,1.9656-1.2124,3.1472,0,.5208.0896.994.2688,1.4084.1736.406.3696.728.5964.9884.2324.266.5684.5124.9996.7252.406.2044.742.3444,1.0164.434l1.0948.3528c.7532.2212,1.3132.448,1.6604.672.2548.1652.3696.3836.3724.7112.0028.2688-.0924.4844-.294.6748-.2016.1904-.602.2912-1.1592.294h-.0112c-.6272,0-1.302-.1204-1.9992-.3584-.7112-.2436-1.2684-.5124-1.6548-.8008l-.6384-.4788-.378,3.7212.2352.1512c1.0248.6524,2.492.9688,4.4884.9688h.07c4.4548-.014,5.3844-2.2568,5.3788-4.1356-.0056-1.3188-.3752-2.3156-1.1004-2.9652-.6775-.616-1.5932-1.0892-2.7243-1.414ZM410.8094,527.0874c-.0084-.0084-.168-.2352-.1652-1.4112l.0196-5.2612,2.7804.0112.014-3.4832-2.7804-.0112.0112-3.1584-4.0404.4088-.0112,2.7356-1.47-.0056-.3892,3.4804,1.8452.0084-.0252,6.552c-.0028,1.0192.3192,1.9068.9632,2.6404.658.7504,1.6212,1.1312,2.8616,1.1368l2.6544.0112.3892-3.4804-1.3636-.0028c-1.0808-.0084-1.2908-.1708-1.2936-.1708ZM422.1522,516.8198c-.728.0168-1.456.1652-2.184.5124l.07-6.65-4.0376-.0448-.21,19.8631,4.0376.042.098-9.4556c.5264-.5376,1.1172-.826,1.932-.7896.7252.0084,1.2264.2268,1.5316.672.336.4872.4984,1.2824.4872,2.3604l-.0784,7.252,4.0376.0448.0756-7.252c.0532-4.2476-1.9432-6.5156-5.7596-6.5548ZM436.9109,517.0382c-1.96-.0756-3.6204.6216-4.8188,1.96-1.1788,1.3216-1.7976,2.9736-1.834,4.914-.0364,1.9796.574,3.6708,1.8116,5.0232,1.2488,1.3608,3.052,2.0692,5.362,2.1112.0756.0028.1512.0028.2268.0028,1.5792,0,3.0016-.3108,4.228-.9296l.2604-.1316-.1344-3.654-.63.322c-.5124.2604-1.134.4844-1.8396.6608-.7.1764-1.2936.2604-1.8564.252-.8148-.0168-1.5176-.2716-2.1504-.7784-.504-.406-.84-.9632-1.0164-1.6884l7.9716.1512.0812-.3584c.1512-.6692.2324-1.2768.2408-1.8088.0336-1.7696-.5124-3.2312-1.624-4.3372-1.1087-1.1031-2.548-1.6799-4.2783-1.7108ZM434.7381,522.0782c.1652-.4144.3976-.7588.6888-1.0304.3948-.3668.9296-.5432,1.568-.5264.63.0112,1.0696.2072,1.3468.5964.2212.3164.3584.658.4116,1.036l-4.0152-.0756ZM457.3564,512.7094l-4.1356-.1372-.6216,18.5863,11.4128.3808.1344-4.0348-7.2772-.2436.4872-14.5515ZM466.5504,517.1022l.1676-4.034,4.034.1676-.1676,4.034-4.034-.1676ZM465.9602,531.6425l.5742-13.5314,4.034.1712-.5742,13.5314-4.034-.1712ZM488.4951,519.001c-1.1116-.0588-2.0972.1036-2.9372.4928-.574.2688-1.022.5628-1.3552.8876-.378-.476-.8512-.868-1.4028-1.1704-.7308-.3976-1.526-.6244-2.366-.672-1.0416-.0504-2.0272.168-2.94.6776l-.0728-.6496-3.4328-.196-.7728,13.5184,4.032.2324.5432-9.4892c.518-.4816,1.1508-.7056,1.9124-.6496.7588.0448,1.2824.2632,1.5596.6496.2044.2912.4312.9548.3416,2.4752l-.4116,7.2408,4.032.2296.4732-8.2516c.0364-.644.2128-1.1452.5208-1.4784.2856-.308.8288-.4536,1.6268-.4004.6944.0392,1.1508.2688,1.3916.7028.2744.4956.3836,1.3076.322,2.4108l-.4144,7.2408,4.032.2296.4144-7.238c.112-1.9292-.2604-3.5252-1.1004-4.746-.868-1.2544-2.212-1.946-3.9956-2.0468ZM497.3509,518.812l.3101-4.0255,4.0255.3101-.3101,4.0255-4.0255-.3101ZM496.2741,533.3142l1.0535-13.5001,4.0227.3139-1.0535,13.5001-4.0227-.3139ZM509.1282,524.3126l2.7692.2576.3248-3.4664-2.7692-.2576.294-3.1472-4.0572.0476-.2548,2.7216-1.4644-.1344-.6972,3.43,1.8396.1736-.6076,6.524c-.0952,1.0136.1484,1.9264.7224,2.716.5852.8036,1.512,1.2712,2.7496,1.3888l2.646.2464.6972-3.4328-1.3552-.126c-1.078-.1008-1.2796-.28-1.2796-.28-.0056-.0084-.1484-.2492-.0364-1.4224l.4788-5.2388ZM660.6188,549.4172l73.4298-44.5394-161.3073-.6021s2.1839-1.9458,1.5036-5.1155c-.9017-4.214-9.9316-11.4351-41.5295-14.7476-13.9707-1.4634-28.4772-2.7497-45.9529-3.7304,43.1329-28.7045,71.5701-77.7429,71.5701-133.4382,0-88.4714-71.7219-160.1931-160.1931-160.1931s-160.1929,71.7217-160.1929,160.1931c0,55.8265,28.5746,104.9601,71.8786,133.6359-15.9694.9533-29.4908,2.1656-42.5431,3.5326-31.6007,3.3096-40.6279,10.5336-41.5295,14.7476-.6803,3.1695,1.5036,5.1155,1.5036,5.1155l-161.3073.6021,73.4298,44.5394-89.3785,57.481s92.6936,6.552,145.6582,6.02c89.6808-.9017,110.7481-.6021,117.0675-6.3196,2.1431-1.9388,2.9967-6.4088,1.7743-12.6345-1.8727,4.6283-13.2687,8.441-68.8872,9.3221-95.0961,1.5036-168.3774-2.4079-168.3774-2.4079l86.2229-49.6578-68.0146-36.1143,143.4352.5964,30.9315,53.8745.2408-.1372c5.8204,6.637,36.29,13.7279,43.3169,20.1888-.7506-2.3982-1.724-4.955-3.0504-7.7065-4.9671-10.3068-8.4253-16.8531-8.4253-16.8531,0,0,44.24-4.214,96.6025-4.214h3.01c52.3653,0,96.6024,4.214,96.6024,4.214,0,0-3.4607,6.5462-8.4251,16.8531-1.327,2.7527-2.3006,5.3108-3.051,7.7101,7.0254-6.461,37.4969-13.5524,43.3176-20.1895l.2408.1371,30.9315-53.8745,143.435-.5964-68.0146,36.1143,86.2229,49.6578s-73.2784,3.9117-168.3772,2.4079c-55.6177-.8811-67.0141-4.6937-68.887-9.322-1.2212,6.2251-.3671,10.6948,1.7739,12.6316,6.3196,5.7176,27.3867,5.418,117.0675,6.3196,52.9646.532,145.6582-6.02,145.6582-6.02l-89.3812-57.481ZM560.7909,512.9222l-.1121-.0672-30.4106,52.9703c-6.3924-7.4368-60.9811-11.4408-128.7604-11.4408h-3.01c-67.7793,0-122.3707,4.004-128.7604,11.4408l-30.4106-52.9703-.1176.0672c-1.0808-2.9735-1.9012-7.7054,1.8927-11.0544,6.3685-5.6198,58.9876-11.8586,119.5426-13.8179-62.2933-16.5463-108.2055-73.3044-108.2055-140.8057,0-80.4681,65.2322-145.7003,145.7003-145.7003s145.7003,65.2322,145.7003,145.7003c0,67.3638-45.7278,124.0224-107.8276,140.6984,61.9516,1.8332,116.3981,8.2021,122.8859,13.9253,3.7939,3.3489,2.9736,8.0809,1.8929,11.0544ZM398.1394,480.7895c-73.6369,0-133.5455-59.9086-133.5455-133.5455s59.9086-133.5455,133.5455-133.5455,133.5427,59.9086,133.5427,133.5455c.0028,73.6369-59.9058,133.5455-133.5427,133.5455ZM398.1394,218.2122c-71.1477,0-129.0319,57.8842-129.0319,129.0319s57.8842,129.0319,129.0319,129.0319,129.0291-57.8842,129.0291-129.0319-57.8814-129.0319-129.0291-129.0319ZM398.1394,438.2577c-50.1842,0-91.0137-40.8294-91.0137-91.0136s40.8294-91.0136,91.0137-91.0136,91.0108,40.8294,91.0108,91.0136-40.8266,91.0136-91.0108,91.0136ZM398.1394,263.4516c-46.2026,0-83.7897,37.5871-83.7897,83.7897s37.587,83.7897,83.7897,83.7897,83.7897-37.587,83.7897-83.7897-37.587-83.7897-83.7897-83.7897ZM364.8074,352.7987c.0287-.2871.2516-1.7363,1.7363-1.9988,1.4355-.2502,2.6223-.0424,3.0488.0588.1053.3541.3131,1.1949.16,1.8908-.1791.8094-1.225,1.8553-3.0023,1.6461-1.493-.175-1.8785-1.3535-1.9428-1.5969ZM376.5227,355.7162c-1.3672-1.158-2.249-2.9641-2.357-4.8303-.0123-.2037.1723-.5988.6111-1.0213.5797-.5578,1.575-1.1115,2.7207-1.1115.1135,0,.2297.0055.3459.0178,2.1711.2174,3.0748,1.4205,3.5656,2.3051.5236.9406.6781,4.6922.0779,5.2076-.6357.5414-3.6148.5742-4.9642-.5674ZM363.8722,330.5792c.0205.0547,2.1547,5.548,3.8199,8.7677,1.5832,3.0599,4.7898,11.2668,4.7675,13.4884.0304.0925,1.681,4.98,5.0119,5.3951,1.9551.2488,3.6709-.1477,4.8412-1.1019.8463-.6918,1.3385-1.6434,1.4246-2.7521.0682-.8805.0024-1.7351-.114-2.5766-.0455-.0989-.0779-.1718-.0856-.1892l.0602-.0263c-.1656-1.0903-.4264-2.1548-.6932-3.1975-.1832-.7137-.365-1.4273-.5168-2.1492-.1121-.5373-.2734-1.2756-.4607-2.1369-.7793-3.5683-1.9578-8.9619-2.141-11.3367-.2201-2.8642-1.776-8.2277-1.7924-8.281l.3326-.0974c-.0164-.0292-2.1525-3.8314-4.9613-3.9457-2.8224-.1119-5.8688,1.1284-8.2374,3.4973-2.3647,2.3645-1.5823,6.7525-1.5796,6.7676l.3242-.1254ZM374.2929,349.3588c.9693-.9311,2.3215-1.415,3.6203-1.2852,1.8758.1887,3.2197,1.0596,4.1084,2.6633.5893,1.0596.9078,5.2295-.0779,6.0771-.3924.3363-1.2496.5291-2.2244.5291-1.2728,0-2.7453-.3281-3.6476-1.0937-1.5121-1.2783-2.4855-3.2689-2.6058-5.3224-.0273-.4648.2748-1.0363.8271-1.5682ZM378.6665,324.2861c.0643.2229,1.5914,5.4879,1.817,8.4232.1805,2.3283,1.3986,7.9078,2.1273,11.2423.1887.8641.35,1.6037.4635,2.1437.1477.7109.3281,1.4137.5086,2.1178.2811,1.0994.5539,2.2241.7222,3.3853.3823.8159,1.6558,3.378,2.8899,4.0809.9119.5223,3.2853.6357,5.0955.0123.7478-.2584,1.7158-.7533,2.0809-1.6475.9297-2.2723,1.1279-5.6601.5441-9.2927-.3295-2.0344-.5045-5.116-.6603-7.834-.1107-1.9414-.216-3.7762-.3582-4.8125-.1312-.9693-.1285-2.3775-.1271-3.8678.0041-2.301.0082-4.9096-.5154-5.9541l.3209-.1612c-.7889-1.4747-1.7423-3.2086-2.4919-4.1629-1.2404-1.5793-4.6283-2.4837-6.9971-1.918-2.3688.5655-4.4016,2.0299-5.0793,3.4971-.6742,1.4598-.6776,4.8128-.6776,4.8465l.337-.0986ZM389.3606,343.4485c2.9299-.2529,4.4051,2.1451,4.5513,3.4713.0793.715.324,5.7312-.89,6.9439-.6152.6152-2.1588.9898-3.6271.9898-1.1512,0-2.2559-.2297-2.8342-.7506-1.2441-1.1156-2.2613-5.466-2.2613-6.5816,0-1.2592,1.9715-3.824,5.0613-4.0728ZM387.0282,353.582c-1.0199-.9146-2.0289-4.9383-2.0289-6.0607,0-.8969,1.7144-3.1582,4.4187-3.3756.1176-.0096.2338-.0137.3459-.0137,2.383,0,3.3646,2.0672,3.4535,2.8642.1449,1.3152.1326,5.5508-.6904,6.3724-.9146.9133-4.5609,1.0596-5.4988.2133ZM446.0686,328.5136c.0745,1.6604-.6296,3.824-1.1525,4.4505-.362.4319-1.6469,1.9289-2.8514,3.5125-.0943-.4216-.3734-2.0381.3577-3.9532.7364-1.9334,3.0249-3.588,3.6463-4.0098ZM441.4188,336.7862c-.0246-.0834-.5852-2.0617.3473-4.5117.9379-2.4527,3.9648-4.3805,4.0933-4.4625l.1818.29c-.2369-1.6842-2.9331-1.9084-3.8327-2.0202-.9017-.1121-3.724-.3389-6.0928.2268-2.3686.5655-4.9642,3.0463-7.1092,5.3031-2.1448,2.2567-3.3851,5.8688-4.2895,7.6748-.9017,1.8059-2.5956,4.4015-4.6284,6.7703-2.0299,2.3688-3.7239,3.4973-4.7404,3.6119-1.0163.1121-2.5956-2.2567-2.5956-4.5136s-.6776-11.9615-.9015-22.0079c-.2268-10.0435-.2268-23.9259-.3389-28.7783-.1119-4.8523-.6776-9.8194-2.5956-11.0598-1.918-1.2405-5.7567-.7897-7.4479,1.1283-1.6941,1.918-1.918,4.8525-2.1449,10.4945-.2268,5.6418,0,11.3987-.2268,12.8659s-.7895,4.0628-.7895,6.9972.1119,9.5927-.2268,10.9479c-.3389,1.3552-.6776,2.8224-.6776,2.8224,0,0-.7895,0-1.1284-.3387-.3387-.3389-.7895-2.7077-1.4672-3.836-.1376-.2292-.3307-.584-.5472-.9878.2037,1.3255.2124,3.0886.2095,4.8357-.0014,1.4656-.0041,2.8506.1217,3.7721.1449,1.0637.2461,2.826.3623,4.8672.1545,2.7016.3295,5.7627.6535,7.7615.6111,3.8131.4033,7.2461-.5879,9.6701-.3678.8996-1.2332,1.6064-2.5006,2.0439-.9037.3117-1.9756.4662-2.9777.4662-1.0773,0-2.0726-.1791-2.6933-.5332-.9078-.517-1.7809-1.8084-2.4064-2.9073.0053.3486.0212.6944-.0067,1.052-.1012,1.3043-.6809,2.424-1.6789,3.2389-1.0691.8723-2.5252,1.3316-4.1781,1.3316-.3883,0-.7861-.026-1.1936-.0766-2.8721-.3579-4.5584-3.4209-5.2389-4.9794-.4527.8359-1.3421,1.6526-2.442,2.1453-.6973.3117-1.3959.4676-2.0658.4676-.9174,0-1.7801-.2912-2.5033-.8641-2.7521-2.1807-6.8468-7.756-8.6693-11.2861-1.2795-2.4768-2.1063-5.1772-2.4886-6.5708-.0776.4517-.1586.8171-.2475.9955-.3387.6776-.7895,2.3688-1.0163,4.6284-.2268,2.2569-.1119,14.1064-.1119,16.478,0,2.3688.7895,6.0928.7895,9.3659s.3387,8.5765.6776,11.6228c.3387,3.0464,3.0463,8.0136,3.9508,10.1556.9044,2.142,2.8224,7.4481,3.6119,8.6912.7895,1.2404,1.6939,2.3688,1.6939,4.2895s-.0027,6.5408-.0027,6.5408h40.0622s-.1119-5.9807,0-6.9971c.1121-1.0165.7897-3.2732,1.4673-4.0629.6774-.7895,2.3686-2.0299,3.7239-2.3686,1.3552-.3389,3.724-2.1449,4.4016-2.8225.6776-.6774,3.6119-3.0463,5.1912-5.3031,1.5793-2.2567,4.1749-5.1912,5.0793-7.1092.9015-1.918,3.0463-5.5299,3.3851-6.7703.3387-1.2404,2.4835-3.836,3.6119-5.3033,1.1284-1.4672,2.3688-3.836,2.7075-5.5299.3389-1.6939,1.918-6.4316,2.1449-8.6912.2268-2.2567,1.0163-7.1092,1.6939-9.3659.6776-2.2569,2.2567-5.0793,3.4971-7.224.4208-.7275,1.0269-1.5842,1.662-2.4261l-.5308.1553ZM402.4828,359.9449c-1.4437,0-6.2453,1.7555-10.2703,5.1105-3.8514,3.2074-8.1074,9.4841-8.5668,14.4347-.4361,4.6908,1.858,9.2435,1.8812,9.2886l-.6234.3199c-.0984-.1928-2.4103-4.7756-1.9551-9.6742.1651-1.7796.8205-3.7203,1.7447-5.6355-.4724-.1338-3.1943-.9883-3.9814-3.124-.2775-.7547-.4443-1.5449-.6057-2.3105-.2967-1.4164-.5551-2.64-1.3945-3.1555l.3664-.5961c1.0965.6727,1.3959,2.0986,1.7131,3.608.1559.741.3172,1.5066.577,2.2121.7164,1.9428,3.567,2.7084,3.5957,2.7152l-.0367.1422c1.7474-3.4248,4.3729-6.7105,6.8371-8.7636,4.2123-3.5096,9.1423-5.2719,10.7187-5.2719v.7ZM407.8982,333.3108c-.0374,0-.6718-.0115-1.7021-.0938-.2792.0877-1.4813.4765-2.5525.9647-.6207.283-1.3316.3596-1.9223.3596-.6727,0-1.1853-.0998-1.225-.108l.1367-.6863c.0164.0027,1.5996.3104,2.7207-.2023.4057-.1851.8172-.3479,1.2098-.4965-.2264-.0273-.4158-.0443-.6629-.0778-2.5771-.3527-3.9881-1.8525-4.0469-1.9154l.5141-.4758c.0123.0137,1.3111,1.3809,3.6258,1.6967,2.4254.3309,3.891.335,3.9047.335v.7ZM354.4099,336.722c.0082.0396.9119,3.9512,2.6756,7.3664,1.791,3.4658,5.7982,8.9304,8.4834,11.0564,1.0418.8258,2.4459.9365,3.8486.3076,1.2701-.5701,2.3051-1.683,2.3543-2.5361.1066-1.8184-2.9805-9.923-4.7004-13.2466-1.683-3.2539-3.8308-8.7828-3.8527-8.8375l.3262-.1263c-.0186-.0089-1.9279-.8979-4.625-.4493-2.7075.4508-3.9508,2.5956-4.2895,3.6121-.1866.5597-.3394,1.7984-.4949,2.9159l.2745-.0625ZM364.1033,352.8055c.0451-.7984.5852-2.3885,2.3174-2.6947,1.981-.3486,3.4863.1012,3.5492.1217l.1668.052.0602.1627c.0191.0547.4826,1.3494.2393,2.4527-.2529,1.1512-1.5094,2.2217-3.2498,2.2217-.1682,0-.3418-.0096-.5182-.0314-1.7172-.201-2.424-1.5244-2.558-2.1971l-.0082-.0437.0014-.0437ZM322.1869,418.3638c.1204.35.2044.6524.252.9072l.1484.784,5.1212-1.8788-.1204-.574c-.1988-.9352-.63-1.9824-1.2824-3.1136-.6356-1.1032-1.4196-2.1952-2.3324-3.2452-.798-.9212-1.652-1.6884-2.5368-2.2848-.9072-.6076-1.8368-1.0108-2.7608-1.2068-.9464-.196-1.9124-.1596-2.8756.112-.9492.2688-1.8788.7924-2.7552,1.5512-1.0444.9044-1.7136,1.8928-1.9852,2.9316-.2604.994-.322,2.0132-.182,3.0296.1372.9828.406,1.96.7952,2.9064.3668.8848.6888,1.7192.9688,2.5088.266.7476.434,1.4224.4956,2.0076.0476.4228-.0728.7308-.3836,1.0024-.4312.3752-.8596.4536-1.3832.2604-.644-.238-1.3776-.8288-2.184-1.7556-.3528-.4088-.6776-.8428-.9632-1.2908-.2912-.4536-.5404-.8988-.7504-1.3356-.2128-.4396-.392-.8512-.5404-1.2292-.1372-.3556-.2324-.644-.2828-.8708l-.1652-.7504-5.1856,1.8367.154.5992c.0868.336.2352.7588.4508,1.26.2044.4844.4732,1.0192.8008,1.61.322.5824.7,1.1928,1.1312,1.8368.434.644.9408,1.302,1.5064,1.9544.8512.9828,1.75,1.8088,2.6796,2.45.952.6636,1.9432,1.1088,2.9428,1.3216.4396.0952.8876.1428,1.3328.1428.5796,0,1.1592-.0784,1.736-.238,1.0108-.28,2.016-.8456,2.9876-1.6884.9996-.868,1.6352-1.8312,1.8928-2.8588.2436-.9828.294-1.9908.1428-2.9988-.1456-.9688-.4116-1.9404-.7924-2.8924-.3584-.8932-.6748-1.736-.9492-2.5256-.2548-.7504-.4172-1.4336-.4732-2.0244-.0392-.4368.0812-.7504.3948-1.022.3024-.2632.6216-.3276,1.0416-.2016.5068.1512,1.064.5684,1.6464,1.2404.3556.4116.6804.8372.9744,1.2796.294.4452.5544.882.784,1.3076.2127.406.3807.7868.5039,1.1452ZM341.7701,428.231l-8.47,11.3371c-.8176,1.0948-1.6156,1.7164-2.3688,1.8396-.7476.1316-1.5848-.1624-2.506-.8512-.9884-.7364-1.568-1.5036-1.722-2.2736-.1484-.7448.2128-1.7024,1.0668-2.8476l8.47-11.3371-4.7236-3.528-8.9656,12.0008c-1.6268,2.1756-2.1924,4.3512-1.6856,6.4596.4956,2.0636,1.9796,4.032,4.41,5.8464,1.0164.7616,2.072,1.3356,3.1304,1.708.8708.308,1.7416.4592,2.6012.4592.2184,0,.4368-.0084.6496-.0308,1.0752-.098,2.1364-.4704,3.1556-1.106.9968-.6216,1.9516-1.5316,2.8336-2.7132l8.6548-11.5864-4.5304-3.3768ZM357.6544,450.3789l-3.7716-14.8259-3.9452-1.6912-9.0664,21.1287,5.1912,2.2288,4.7068-10.9843.0084-.0364,3.7772,14.8343,3.9424,1.6912,9.0692-21.1315-5.1912-2.2288-4.7208,11.0152ZM387.7907,449.0265c-.8176-1.1788-1.96-2.1924-3.3992-3.0128-1.4224-.8092-3.2004-1.3944-5.2864-1.7388-.4704-.0756-.9968-.1596-1.5876-.2464s-1.1984-.1708-1.82-.2548c-.6272-.0812-1.2376-.1512-1.8256-.2072-.5992-.056-1.1312-.0924-1.6016-.1036l-.588-.0168-3.6932,22.3915.5572.1792c.2884.0924.7224.2016,1.2992.3304l1.778.3892c.6356.1344,1.2488.2604,1.8452.3808.602.1204,1.078.2072,1.4252.266,1.0892.1792,2.1196.2688,3.0828.2688,1.0304,0,1.9824-.1036,2.8504-.308,1.6884-.4032,3.1388-1.0836,4.3148-2.03,1.1704-.9436,2.1056-2.1028,2.7804-3.4496.6636-1.3244,1.12-2.7412,1.3636-4.2112.266-1.6156.2912-3.1696.0756-4.6172-.224-1.4812-.7532-2.828-1.5708-4.0096ZM383.1847,456.7096c-.14.8484-.3752,1.666-.6944,2.4332-.3024.7224-.728,1.3552-1.2656,1.8732-.5208.504-1.1928.8792-1.9964,1.1088-.812.2352-1.8256.2548-3.0072.0588-.0952-.0168-.2408-.0448-.4424-.0896l-1.1536-.2436,2.0664-12.5271c.1428.0168.2996.0364.4704.0588.4788.07.9492.14,1.4112.2156,1.1508.1904,2.0636.5376,2.7076,1.0332.6496.5012,1.1396,1.0836,1.456,1.7276.3248.6664.5096,1.3776.5516,2.1168.0448.7895.0084,1.5371-.1036,2.2343ZM415.0766,452.0617c-.5544-1.4168-1.3216-2.6264-2.2848-3.6036-.9688-.9856-2.1532-1.7276-3.5252-2.2092-1.3608-.476-2.9344-.6496-4.6676-.518-1.6324.126-3.0968.5068-4.3568,1.1368-1.274.6384-2.3436,1.5148-3.1752,2.604-.8288,1.0836-1.4336,2.3968-1.7976,3.906-.3584,1.484-.4704,3.1556-.3304,4.9756.1316,1.7136.4676,3.2844.9996,4.6732.5432,1.4168,1.3076,2.6348,2.2708,3.612.9716.9884,2.1588,1.7304,3.5252,2.2092,1.064.3724,2.2568.56,3.5588.56.3612,0,.7308-.0168,1.1088-.0448,1.6072-.1204,3.0632-.504,4.326-1.134,1.274-.6356,2.3464-1.512,3.1892-2.604.84-1.0892,1.4532-2.4024,1.8256-3.9032.3696-1.484.4872-3.1612.3472-4.9812-.1288-1.7136-.4704-3.2872-1.0136-4.6788ZM409.1322,462.3824c-.6972,1.0024-1.7248,1.5456-3.136,1.652-.7644.056-1.4308-.0392-1.9936-.2912-.5684-.252-1.0332-.6272-1.4224-1.1396-.406-.5348-.7364-1.204-.9856-1.988-.252-.8036-.42-1.7248-.4984-2.7328-.1792-2.3212.098-4.046.8176-5.124.6944-1.0388,1.7052-1.5932,3.0912-1.6996.1512-.0112.294-.0168.4368-.0168.616,0,1.1564.1064,1.6128.3164.5656.2604,1.0528.6552,1.4504,1.1732.4172.546.742,1.2124.9632,1.9908.238.812.3948,1.7164.4704,2.688.1849,2.3996-.0867,4.1384-.8063,5.1716ZM440.2093,437.5521l1.3132,12.2276-7.868-9.8728-3.682,1.3216.1456,12.5608-6.9412-10.122-6.0284,2.1644,14.1875,19.3395,3.9592-1.4224-.0532-12.9723,8.2263,10.038,3.8136-1.3664-1.3244-23.9567-5.7484,2.0608ZM458.7088,425.4002l6.9468,9.7608-14.6215-4.494-3.4972,2.4892,13.3252,18.7375,4.6032-3.2732-6.9299-9.7356-.0252-.028,14.6299,4.4968,3.5-2.4892-13.3279-18.7375-4.6032,3.2732ZM489.2567,417.0758c-.9828-.8848-2.0188-1.3972-3.0744-1.5232-.9968-.1204-2.002-.0448-2.9932.2268-.9436.2632-1.876.6496-2.7692,1.1452-.84.4676-1.638.8848-2.394,1.2544-.7084.3472-1.3636.5908-1.9516.7224-.4256.1008-.7532.014-1.0612-.266-.2968-.266-.3976-.5768-.3276-1.008.0868-.5264.4312-1.1284,1.0276-1.7892.364-.4032.7448-.7756,1.1452-1.1228.406-.3472.8064-.6608,1.2012-.938.378-.2688.7364-.4844,1.0752-.6496.3304-.1596.6216-.2828.868-.3612l.7616-.2464-2.5004-4.8496-.5544.1932c-.8988.3108-1.8844.8708-2.9288,1.6604-1.022.7728-2.0104,1.6884-2.9316,2.7132-.8176.9072-1.4728,1.848-1.9516,2.8028-.4928.98-.7784,1.9516-.854,2.884-.0812.9632.0756,1.918.4676,2.842.3864.91,1.0164,1.764,1.8788,2.5424,1.0276.9212,2.0888,1.4644,3.1556,1.6072,1.0192.1344,2.0412.07,3.0268-.1988.9604-.2576,1.8984-.644,2.786-1.1508.8344-.4732,1.624-.8988,2.3716-1.274.7028-.3556,1.3524-.6048,1.9264-.742.4172-.098.7364-.0196,1.0416.2576.4256.3836.56.7952.4312,1.3412-.154.6692-.6496,1.47-1.4728,2.3828-.3584.3976-.7504.7728-1.162,1.1172-.4172.3472-.826.6496-1.2292.9128-.4116.2632-.7952.4956-1.1564.6888-.336.1792-.6076.308-.826.3836l-.728.2548,2.4696,4.9252.574-.224c.322-.126.7224-.3276,1.1956-.6048.4536-.266.952-.5964,1.4952-.994.5376-.392,1.0976-.8428,1.6828-1.3496.5852-.5096,1.176-1.092,1.75-1.736.8652-.9604,1.5736-1.9572,2.1-2.9596.5404-1.0276.8596-2.0636.9492-3.0828.0896-1.036-.07-2.0552-.476-3.0352-.3977-.9688-1.0865-1.8928-2.0385-2.7524ZM325.1913,281.3659l-7.8876-8.4784-.2212-.1792,9.3212,2.2932,1.5792-1.4644-1.8872-9.6124,8.2236,8.9628,4.3232-4.0124-15.5455-16.7383-3.7688,3.5,2.4724,11.7235.4564,1.2432-1.3132-.4984-11.6536-3.1444-3.7856,3.5168,15.5455,16.7355,4.1412-3.8472ZM346.3088,264.5128l-.6076-4.858,5.5776-2.9736,3.7772,3.1696,5.5328-2.9456-18.7319-16.0747-3.7688,2.0076,2.926,24.4971,5.2948-2.8224ZM344.1809,249.9165l.5264.6188,2.8448,2.5284-2.6236,1.3972-.5404-3.8276-.2072-.7168ZM365.2368,243.1965l6.972,6.5996,2.0972-.4928,3.1108-9.2876,2.7188,11.8552,5.74-1.3524-5.2416-22.2319-5.0036,1.1788-3.6484,11.41-.2156,1.3076-.896-1.0836-8.5764-8.4896-5.0288,1.1844,5.2416,22.2319,5.502-1.2936-2.6656-11.27-.1064-.266ZM405.7666,244.9157l-9.4528-.1512.056-3.4944,8.442.1344.084-5.3424-8.442-.1372.0532-3.3096,9.2988.1484.0868-5.3452-15.1983-.2408-.3612,22.8395,15.3495.2408.084-5.3424ZM426.9177,248.8525l-10.0379-2.0944,3.5784-17.1275-5.7708-1.2068-4.6704,22.3579,15.8087,3.3012,1.092-5.2304ZM432.4953,255.7852c.994,1.0444,2.31,1.9152,3.9144,2.5928,1.4896.6272,2.9596.9492,4.368.9688h.1064c1.3832,0,2.702-.2884,3.92-.8596,1.2404-.5796,2.3884-1.4672,3.4104-2.6376,1.008-1.1536,1.8788-2.5928,2.5844-4.2728.6664-1.5848,1.0836-3.1416,1.232-4.6256.154-1.5064.0252-2.9372-.3836-4.2504-.4116-1.3216-1.1284-2.5256-2.128-3.5756-.9884-1.0444-2.3072-1.918-3.9144-2.5928-1.5064-.6356-2.9848-.9632-4.3932-.98-1.4364-.0112-2.7776.2744-4.0124.8652-1.232.5824-2.3716,1.4756-3.3852,2.6516-.9968,1.1592-1.862,2.5984-2.5676,4.2756-.6636,1.5792-1.0836,3.1304-1.246,4.6116-.1652,1.5064-.0392,2.9372.3696,4.2504.4116,1.3216,1.1284,2.5256,2.1252,3.5784ZM436.1325,248.3961c.14-.8288.4116-1.722.8036-2.6572.9016-2.1448,1.9348-3.5532,3.0688-4.1804,1.092-.6048,2.2512-.6412,3.528-.1008.7364.3108,1.3048.7168,1.6856,1.2012.3836.49.6384,1.064.7532,1.708.1204.6692.1036,1.414-.0504,2.2092-.1596.8316-.434,1.708-.812,2.604-.9352,2.2176-1.9712,3.64-3.0828,4.2336-1.0808.574-2.2372.588-3.542.0364-.7056-.2968-1.2572-.6916-1.6408-1.1676-.3892-.4872-.6356-1.0332-.7448-1.666-.1176-.6664-.1064-1.4112.0336-2.2204ZM450.7988,265.0084c.2156.2128.5488.5124,1.0024.8904l1.3972,1.1648c.5012.4116.9856.8064,1.4616,1.19.4788.3836.8596.6832,1.1396.8932,1.8256,1.3692,3.6036,2.2792,5.2808,2.702.9884.2492,1.9488.3752,2.87.3752.6496,0,1.2824-.0616,1.8956-.1876,1.4728-.2968,2.842-.8932,4.06-1.778,1.1984-.868,2.2596-1.9124,3.15-3.108.9828-1.3104,1.722-2.6768,2.1952-4.06.4872-1.4168.6412-2.856.4592-4.2784-.1792-1.4224-.7252-2.8476-1.624-4.242-.8848-1.372-2.1924-2.7132-3.8892-3.9844-.378-.2828-.812-.602-1.2964-.952s-.9828-.7028-1.498-1.064c-.5208-.364-1.0276-.7028-1.526-1.0276-.504-.3248-.9604-.602-1.3692-.8288l-.5152-.2856-13.6079,18.1635.4145.4172ZM458.1124,264.1152l7.6132-10.1612c.1176.0784.2464.1708.3892.2716.3948.2828.7784.5656,1.1536.8456.9352.7,1.5848,1.4308,1.9264,2.1644.3444.7476.5124,1.4896.4956,2.2064-.0196.7364-.182,1.4532-.4844,2.1308-.322.7168-.7,1.3636-1.12,1.9264-.5208.6916-1.106,1.3132-1.7388,1.8396-.6048.5012-1.274.8652-1.988,1.078-.6944.2072-1.4616.2324-2.2848.0644-.8288-.1652-1.736-.616-2.7076-1.344-.0728-.056-.1876-.1456-.336-.2688l-.9184-.7532ZM473.5627,278.6751l-1.6436-1.8312-2.8336,2.548,7.224,8.0416,2.8336-2.548-1.6408-1.8256,11.326-10.1724,1.6408,1.8284,2.8336-2.548-7.224-8.0388-2.8336,2.5452,1.6408,1.8256-11.3232,10.1752Z" style="fill: #008852;"/>
</svg>