<?xml version="1.0" encoding="UTF-8"?>
<svg data-name="图层_1" xmlns="http://www.w3.org/2000/svg" version="1.1" viewBox="0 0 800 800">
  <!-- Created by @FCLOGO 2024-12-10 GMT+8 17:23:24 . https://fclogo.top/ -->
<!-- FOR PERSONAL USE ONLY NOT FOR COMMERCIAL USE -->
  <path d="M348.2194,774.301c-.786,0-1.3752-.2173-1.7682-.6519-.393-.4352-.5284-1.03-.406-1.7856l.2518-1.6478c.122-.755.4501-1.3504.9841-1.785.5339-.4352,1.1939-.6525,1.9799-.6525.7553,0,1.3293.1987,1.7223.5954.3927.3967.551.9381.4747,1.6248h-1.2358c.0304-.3589-.0553-.637-.2573-.8357-.2024-.1981-.4979-.2974-.8869-.2974-.4197,0-.763.1167-1.03.3489-.2673.2328-.4349.5631-.5035.9903l-.2632,1.659c-.0686.4352-.0056.7686.1887,1.0015.1946.2328.5017.3489.9214.3489.389,0,.7152-.0987.9785-.2974.2632-.1981.4365-.4805.5206-.8469h1.2358c-.1372.6867-.4672,1.2306-.9897,1.631-.5228.4005-1.1616.6004-1.9169.6004ZM352.7967,774.1868l.9956-6.2943h1.1902l-.1946,1.1902c.3359-.8698.9729-1.3044,1.9113-1.3044.6712,0,1.1691.208,1.4932.624.3244.416.4293.9859.3148,1.7105l-.0686.4234h-1.2703l.0571-.3204c.0689-.4501.0115-.7953-.1714-1.0356-.1832-.2403-.4771-.3607-.8813-.3607-.4045,0-.7401.1223-1.007.3663-.2673.2446-.4349.588-.5035,1.03l-.6296,3.9711h-1.2358ZM361.9058,774.301c-.7705,0-1.3463-.2229-1.7279-.6693s-.515-1.0356-.4005-1.7682l.2518-1.6478c.0838-.488.2573-.9152.5206-1.2815s.6007-.6507,1.0129-.8524c.4119-.2024.8732-.3036,1.3845-.3036.7705,0,1.3485.2235,1.7338.6693.3852.4464.5169,1.0356.3949,1.7682l-.1717,1.1213h-3.845l-.0916.5265c-.1527.9536.2173,1.4305,1.1098,1.4305.7171,0,1.175-.2477,1.3734-.7438h1.2247c-.1679.5339-.5035.9599-1.007,1.2759-.5038.3166-1.0912.475-1.7626.475ZM361.2306,770.2157l-.0456.2862,2.6548-.0118.0459-.2856c.0686-.4656.0133-.822-.1661-1.0704-.1791-.2477-.4861-.3719-.9211-.3719-.4427,0-.7953.126-1.0586.3775-.2632.2521-.4331.6109-.5094,1.076ZM368.3258,774.301c-.6333,0-1.1027-.2117-1.4078-.6351s-.3967-1.0008-.2744-1.7335l.2744-1.7738c.1145-.7326.393-1.3119.8357-1.7397.4424-.4272.98-.6407,1.6133-.6407.4653,0,.8298.1186,1.093.3545.2632.2365.3908.5575.3834.9617h.023l.1717-1.202h1.2358l-.9956,6.2943h-1.2247l.1946-1.2014h-.023c-.122.4116-.3511.7339-.6867.9667s-.7401.3489-1.2129.3489ZM368.9324,773.2257c.389,0,.7152-.1186.9782-.3551.2632-.2359.4293-.5718.4979-1.007l.2518-1.6478c.0686-.4272.0096-.7612-.1773-1.0015-.1872-.2403-.475-.3601-.8642-.3601-.3967,0-.7249.118-.9841.3545-.2595.2365-.4234.5724-.492,1.007l-.2518,1.6478c-.0686.4427-.0133.7804.1658,1.0133.1794.2328.4712.3489.8757.3489ZM376.3477,774.1868c-.5721,0-.9937-.1565-1.2644-.4694-.271-.3123-.3607-.7512-.2691-1.3156l.538-3.3874h-1.7394l.1714-1.1219h1.7397l.2747-1.7161h1.2358l-.2747,1.7161h2.472l-.1832,1.1219h-2.4605l-.5377,3.3874c-.0764.4421.099.6637.5262.6637h1.7167l-.1717,1.1213h-1.7738ZM382.5042,774.301c-.7705,0-1.3463-.2229-1.7279-.6693s-.515-1.0356-.4005-1.7682l.2518-1.6478c.0838-.488.2573-.9152.5206-1.2815s.6007-.6507,1.0129-.8524c.4119-.2024.8732-.3036,1.3845-.3036.7705,0,1.3485.2235,1.7338.6693.3852.4464.5169,1.0356.3949,1.7682l-.1717,1.1213h-3.845l-.0916.5265c-.1527.9536.2173,1.4305,1.1098,1.4305.7171,0,1.175-.2477,1.3734-.7438h1.2247c-.1679.5339-.5035.9599-1.007,1.2759-.5038.3166-1.0912.475-1.7626.475ZM381.829,770.2157l-.0456.2862,2.6548-.0118.0459-.2856c.0686-.4656.0133-.822-.1661-1.0704-.1791-.2477-.4861-.3719-.9211-.3719-.4427,0-.7953.126-1.0586.3775-.2632.2521-.4331.6109-.5094,1.076ZM388.9243,774.301c-.6333,0-1.1008-.2117-1.4019-.6351-.3014-.4234-.3949-1.0008-.2803-1.7335l.2744-1.7738c.1145-.7326.393-1.3119.8357-1.7397.4424-.4272.98-.6407,1.6133-.6407.4653,0,.8298.1186,1.093.3545.2632.2365.3908.5575.3834.9617h.023l.2058-1.4652.2977-1.7962h1.2358l-1.3274,8.3537h-1.2247l.1946-1.2014h-.023c-.122.4116-.3511.7339-.6867.9667s-.7401.3489-1.2129.3489ZM389.5309,773.2257c.389,0,.7152-.1186.9782-.3551.2632-.2359.4293-.5718.4979-1.007l.2518-1.6478c.0761-.4272.0189-.7612-.1717-1.0015-.1909-.2403-.4805-.3601-.8698-.3601-.3967,0-.7249.118-.9841.3545-.2595.2365-.4234.5724-.492,1.007l-.2518,1.6478c-.0764.4427-.023.7804.1602,1.0133s.4768.3489.8813.3489ZM401.0175,774.301c-.4731,0-.8394-.1161-1.0986-.3489-.2595-.2328-.3852-.5551-.3775-.9667h-.0115l-.1946,1.2014h-1.2243l1.3274-8.3537h1.2358l-.2862,1.7962-.2744,1.4652h.0456c.122-.4123.353-.7345.6923-.9673.3396-.2322.7419-.3489,1.2076-.3489.633,0,1.1002.2136,1.4016.6407.3014.4278.3949,1.007.2806,1.7397l-.2747,1.7738c-.1145.7326-.3949,1.31-.8413,1.7335-.4461.4234-.9822.6351-1.6077.6351ZM400.7657,773.2257c.3967,0,.7227-.1161.9785-.3489.2555-.2328.4216-.5706.4976-1.0133l.2518-1.6478c.0689-.4346.0115-.7705-.1714-1.007-.1832-.2365-.4734-.3545-.8698-.3545-.3893,0-.7152.1198-.9785.3601s-.429.5743-.4979,1.0015l-.2518,1.6478c-.0686.4352-.0112.7711.1717,1.007.1832.2365.4731.3551.8698.3551ZM405.4694,776.2468l.1717-1.0642h1.934c.6407,0,1.007-.3017,1.0986-.9046l.1028-.6749.2061-1.1902h-.0345c-.122.4197-.3471.7438-.6752.9729-.3281.2285-.7286.3433-1.2014.3433-.6258,0-1.093-.2005-1.4019-.601s-.4104-.9443-.3033-1.631l.5836-3.6047h1.2358l-.5606,3.4793c-.0612.4116,0,.732.1832.9611s.4653.3433.8469.3433c.389,0,.7168-.1217.9841-.3663.267-.244.4309-.5836.492-1.0182l.538-3.3992h1.2358l-1.007,6.4086c-.0993.6029-.37,1.0778-.8124,1.4249-.4427.3471-.9996.5209-1.6707.5209h-1.9455ZM417.787,770.0853h3.221l.5368-1.8545h-5.4659l-1.7081,6.4419h2.1473l.5856-2.0985h3.0257l.4392-1.7081h-3.0257l.244-.7808ZM424.229,772.9158c-.5856,0-1.0249-.3904-1.0249-1.1225,0-.8784.6344-1.7569,1.6105-1.7569.488,0,.8784.244,1.0248.7808l1.9521-.8296c-.2928-1.1713-1.2689-1.9033-2.6353-1.9033-2.7817,0-4.1482,2.1473-4.1482,3.9042s1.2689,2.8305,3.0746,2.8305c1.3665,0,2.3425-.5856,2.9769-1.4153l-1.5129-1.1713c-.3904.4392-.8296.6832-1.3177.6832ZM430.9149,768.2308h-2.1473l-1.7569,6.4419h5.1242l.488-1.8545h-2.9281l1.2201-4.5874ZM439.7481,771.0125c0-1.6593-1.3177-2.9281-3.221-2.9281-2.1961,0-3.8066,1.8057-3.8066,3.8066,0,1.6593,1.3177,2.9281,3.221,2.9281,2.1961,0,3.8066-1.8057,3.8066-3.8066ZM434.9167,771.6957c0-.8296.5856-1.7081,1.5129-1.7081.7808,0,1.1713.5368,1.1713,1.2201,0,.8296-.5856,1.7081-1.5129,1.7081-.7808,0-1.1713-.5368-1.1713-1.2201ZM443.2131,772.2326h1.0737l-.1952.6832c-.1464.0488-.3416.0976-.5856.0976-.6832,0-1.2689-.3904-1.2689-1.2201,0-1.0249.732-1.9033,1.9521-1.9033.5856,0,1.1225.244,1.5129.5856l1.3665-1.3665c-.4392-.5368-1.5129-1.0737-2.7329-1.0737-2.5865,0-4.2946,1.7569-4.2946,3.8554,0,2.0497,1.6105,2.8793,3.221,2.8793.9272,0,1.8545-.2928,2.4889-.6832l.9272-3.3186h-3.1234l-.3416,1.4641ZM450.7775,768.0844c-2.1961,0-3.8066,1.8057-3.8066,3.8066,0,1.6593,1.3177,2.9281,3.221,2.9281,2.1961,0,3.8066-1.8057,3.8066-3.8066,0-1.6593-1.3177-2.9281-3.221-2.9281ZM450.3382,772.9158c-.7808,0-1.1713-.5368-1.1713-1.2201,0-.8296.5856-1.7081,1.5129-1.7081.7808,0,1.1713.5368,1.1713,1.2201,0,.8296-.5856,1.7081-1.5129,1.7081ZM437.9424,767.4987c-.0488.2928.0976.488.4392.488s.5368-.1952.6344-.488c.0488-.244-.0976-.488-.4392-.488s-.5856.244-.6344.488ZM432.1349,765.4978c-.4392,0-.732.244-.7808.5856s.0976.5856.5368.5856.732-.244.7808-.5856c.0976-.3416-.0976-.5856-.5368-.5856ZM433.0134,767.3035c-.0976.5368.1464.8784.8296.8784.6344,0,1.0737-.3904,1.1713-.8784s-.1464-.8784-.8296-.8784c-.6832,0-1.0737.3904-1.1713.8784ZM439.6017,777.552l-2.4401-1.8057h-1.5129l4.2458,3.1722,1.6105-3.1722h-.976l-.9272,1.8057ZM425.8394,767.1571l-2.0009-1.4641,23.1323-2.7817-2.1473,4.2458h1.0248l2.6841-5.3195-26.9877,3.221,2.7817,2.0985h1.5129ZM338.7186,785.7853l.6088-3.8315h2.32l-.084.5194h-1.7636l-.1837,1.1445h1.6272l-.084.5248h-1.6166l-.2573,1.6428h-.5668ZM342.97,785.8377c-.3568,0-.6228-.1005-.7978-.3019-.175-.201-.2345-.473-.1784-.8161l.2677-1.7006c.056-.3429.2029-.6148.4408-.8161.2379-.201.5355-.3019.8923-.3019s.6228.1.7979.2993c.1748.1993.2361.4707.1837.8136l-.2677,1.7057c-.0561.3431-.2039.6151-.4435.8161-.2398.2013-.5381.3019-.895.3019ZM343.0487,785.3339c.1925,0,.3483-.0524.4672-.1575.119-.1051.1942-.2571.2257-.4568l.2678-1.7006c.0315-.1993.0051-.3517-.0787-.4565-.084-.1051-.2223-.1575-.4148-.1575s-.3473.0524-.4645.1575c-.1173.1048-.1916.2571-.2231.4565l-.2677,1.7006c-.0315.1996-.0053.3517.0787.4568s.2204.1575.4094.1575ZM344.9961,785.7853l.6088-3.8315h1.202c.2379,0,.4391.0464.6036.139.1645.0928.2835.223.357.391s.091.3656.0524.5932c-.0384.2591-.14.4838-.3044.6746-.1645.1905-.3656.3209-.6036.391l.5354,1.6428h-.6194l-.4777-1.5748h-.5406l-.2466,1.5748h-.5668ZM345.8883,783.7068h.6352c.1889,0,.349-.0558.4803-.168.1313-.1119.2107-.2623.2388-.4514.0316-.1925,0-.3454-.0944-.4593-.0945-.1136-.2362-.1706-.4252-.1706h-.6352l-.1995,1.2493ZM349.545,785.7853l.6088-3.8315h1.2544c.3709,0,.6508.1048.8399.315.1889.2099.2553.4898.1993.8398-.0384.2344-.1216.4383-.2493.6114s-.2905.307-.4881.4015c-.1978.0945-.419.1418-.6639.1418h-.6928l-.2415,1.5221h-.5668ZM350.432,783.754h.6928c.1924,0,.3568-.0587.4934-.176.1364-.117.2204-.2737.2519-.4696s-.0017-.3525-.0997-.4699-.245-.1757-.441-.1757h-.6876l-.2099,1.2911ZM352.7466,785.7853l.6088-3.8315h2.2518l-.0787.5038h-1.6954l-.1731,1.0867h1.5115l-.0787.4986h-1.5115l-.1942,1.2387h1.6901l-.0787.5038h-2.2518ZM355.8434,785.7853l.6088-3.8315h1.202c.2379,0,.4391.0464.6036.139.1645.0928.2835.223.357.391s.091.3656.0524.5932c-.0384.2591-.14.4838-.3044.6746-.1645.1905-.3656.3209-.6036.391l.5354,1.6428h-.6194l-.4777-1.5748h-.5406l-.2466,1.5748h-.5668ZM356.7356,783.7068h.6352c.1889,0,.349-.0558.4803-.168.1313-.1119.2107-.2623.2388-.4514.0316-.1925,0-.3454-.0944-.4593-.0945-.1136-.2362-.1706-.4252-.1706h-.6352l-.1995,1.2493ZM360.1316,785.8377c-.385,0-.6736-.0951-.8661-.2859-.1924-.1908-.2641-.4505-.2151-.7794h.5668c-.028.1748.0105.3121.1155.4121.1051.0997.266.1495.483.1495.2029,0,.3701-.049.5012-.1469.1313-.098.2109-.2327.2389-.4044.0209-.1504.0007-.2788-.0604-.3856-.0614-.1068-.1583-.1811-.2913-.2233l-.4566-.1364c-.266-.0803-.4619-.217-.5879-.4095-.126-.1922-.1697-.4197-.1313-.6823.035-.2099.1121-.3935.2309-.551s.2729-.2799.4619-.3673.4024-.1313.6404-.1313c.3498,0,.6158.0954.7978.2859.182.1908.2485.4437.1995.7586h-.5668c.0279-.168-.0027-.3001-.092-.3964-.0891-.0963-.2301-.1444-.4225-.1444-.1889,0-.343.0447-.4619.1338-.119.0894-.1889.2144-.21.3753-.0245.1506-.007.2791.0525.3859s.1575.1811.2939.223l.4672.1469c.2624.0806.4558.2173.5801.4095.1242.1925.1653.4217.1233.6877-.035.217-.1155.4058-.2415.5667-.1259.1612-.2878.2862-.4855.3753-.1976.0894-.419.1338-.6639.1338ZM363.2651,785.8377c-.3568,0-.6228-.1005-.7978-.3019-.175-.201-.2345-.473-.1784-.8161l.2677-1.7006c.056-.3429.2029-.6148.4408-.8161.2379-.201.5355-.3019.8923-.3019s.6228.1.7979.2993c.1748.1993.2361.4707.1837.8136l-.2677,1.7057c-.0561.3431-.2039.6151-.4435.8161-.2398.2013-.5381.3019-.895.3019ZM363.3439,785.3339c.1925,0,.3483-.0524.4672-.1575.119-.1051.1942-.2571.2257-.4568l.2678-1.7006c.0315-.1993.0051-.3517-.0787-.4565-.084-.1051-.2223-.1575-.4148-.1575s-.3473.0524-.4645.1575c-.1173.1048-.1916.2571-.2231.4565l-.2677,1.7006c-.0315.1996-.0053.3517.0787.4568s.2204.1575.4094.1575ZM365.2754,785.7853l.6088-3.8315h.7086l.6194,3.186c.007-.098.0165-.217.0289-.3571.0121-.1398.0271-.2851.0446-.4354.0175-.1506.0367-.2888.0577-.4146l.315-1.9788h.525l-.609,3.8315h-.7085l-.6141-3.186c-.0071.0945-.0167.209-.0289.3437s-.0272.2757-.0446.4226c-.0177.1469-.0367.2833-.0578.4095l-.315,2.0102h-.5301ZM368.2252,785.7853l1.5851-3.8315h.7454l.3726,3.8315h-.5616l-.0735-.9711h-1.0865l-.3884.9711h-.5932ZM369.3852,784.3418h.8714l-.0893-1.1023c-.0175-.1959-.0298-.3654-.0367-.5089-.0071-.1435-.0105-.2432-.0105-.2993-.0175.0561-.0517.1558-.1024.2993s-.1146.3112-.1915.5038l-.441,1.1075ZM371.7208,785.7853l.6088-3.8315h.567l-.525,3.3118h1.6744l-.0787.5197h-2.2465ZM376.6785,785.8377c-.3673,0-.6342-.1005-.8003-.3019-.1663-.201-.2214-.475-.1654-.8213l.4357-2.7608h.567l-.4357,2.7554c-.0315.1962-.008.35.0708.4619.0787.1122.2144.168.4068.168.1925,0,.3473-.0558.4646-.168.1172-.1119.1915-.2657.2231-.4619l.4355-2.7554h.567l-.4357,2.7608c-.056.35-.2003.6245-.433.8241-.2328.1993-.5328.299-.9003.299ZM379.8435,785.8377c-.385,0-.6736-.0951-.8661-.2859-.1924-.1908-.2641-.4505-.2151-.7794h.5668c-.028.1748.0105.3121.1155.4121.1051.0997.266.1495.483.1495.2029,0,.3701-.049.5012-.1469.1313-.098.2109-.2327.2389-.4044.0209-.1504.0007-.2788-.0604-.3856-.0614-.1068-.1583-.1811-.2913-.2233l-.4566-.1364c-.266-.0803-.4619-.217-.5879-.4095-.126-.1922-.1697-.4197-.1313-.6823.035-.2099.1121-.3935.2309-.551s.2729-.2799.4619-.3673.4024-.1313.6404-.1313c.3498,0,.6158.0954.7978.2859.182.1908.2485.4437.1995.7586h-.5668c.0279-.168-.0027-.3001-.092-.3964-.0891-.0963-.2301-.1444-.4225-.1444-.1889,0-.343.0447-.4619.1338-.119.0894-.1889.2144-.21.3753-.0245.1506-.007.2791.0525.3859s.1575.1811.2939.223l.4672.1469c.2624.0806.4558.2173.5801.4095.1242.1925.1653.4217.1233.6877-.035.217-.1155.4058-.2415.5667-.1259.1612-.2878.2862-.4855.3753-.1976.0894-.419.1338-.6639.1338ZM381.9062,785.7853l.6088-3.8315h2.2518l-.0787.5038h-1.6954l-.1731,1.0867h1.5115l-.0787.4986h-1.5115l-.1942,1.2387h1.6901l-.0787.5038h-2.2518ZM386.9426,785.8377c-.3568,0-.6228-.1005-.7978-.3019-.175-.201-.2345-.473-.1784-.8161l.2677-1.7006c.056-.3429.2029-.6148.4408-.8161.2379-.201.5355-.3019.8923-.3019s.6228.1.7979.2993c.1748.1993.2361.4707.1837.8136l-.2677,1.7057c-.0561.3431-.2039.6151-.4435.8161-.2398.2013-.5381.3019-.895.3019ZM387.0213,785.3339c.1925,0,.3483-.0524.4672-.1575.119-.1051.1942-.2571.2257-.4568l.2678-1.7006c.0315-.1993.0051-.3517-.0787-.4565-.084-.1051-.2223-.1575-.4148-.1575s-.3473.0524-.4645.1575c-.1173.1048-.1916.2571-.2231.4565l-.2677,1.7006c-.0315.1996-.0053.3517.0787.4568s.2204.1575.4094.1575ZM388.9529,785.7853l.6088-3.8315h.7086l.6194,3.186c.007-.098.0165-.217.0289-.3571.0121-.1398.0271-.2851.0446-.4354.0175-.1506.0367-.2888.0577-.4146l.315-1.9788h.525l-.609,3.8315h-.7085l-.6141-3.186c-.0071.0945-.0167.209-.0289.3437s-.0272.2757-.0446.4226c-.0177.1469-.0367.2833-.0578.4095l-.315,2.0102h-.5301ZM392.249,785.7853l.6088-3.8315h.567l-.525,3.3118h1.6744l-.0787.5197h-2.2465ZM396.1174,785.7853l.2204-1.4119-.7506-2.4197h.5774l.4462,1.4486c.0279.0945.0498.1837.0656.2677.0157.084.0253.1469.0288.1888.0175-.0419.0464-.1048.0867-.1888.0402-.084.0883-.1731.1442-.2677l.8976-1.4486h.5984l-1.5275,2.4197-.2204,1.4119h-.5668ZM399.217,785.7853l.6088-3.8315h.7086l.6192,3.186c.0071-.098.0165-.217.029-.3571.012-.1398.0271-.2851.0444-.4354.0177-.1506.037-.2888.0578-.4146l.315-1.9788h.5248l-.6088,3.8315h-.7085l-.6141-3.186c-.0071.0945-.0167.209-.0289.3437s-.0272.2757-.0446.4226c-.0177.1469-.0367.2833-.0578.4095l-.315,2.0102h-.5301ZM403.5053,785.8377c-.3571,0-.6231-.1005-.7979-.3019-.1751-.201-.2344-.473-.1785-.8161l.2677-1.7006c.0561-.3429.203-.6148.4411-.8161.2378-.201.5354-.3019.8922-.3019.3571,0,.6228.1.7979.2993.1748.1993.2361.4707.1837.8136l-.2677,1.7057c-.0561.3431-.2039.6151-.4437.8161-.2395.2013-.5379.3019-.8947.3019ZM403.5839,785.3339c.1925,0,.3483-.0524.4673-.1575.1187-.1051.1942-.2571.2255-.4568l.2677-1.7006c.0316-.1993.0054-.3517-.0786-.4565-.084-.1051-.2224-.1575-.4146-.1575-.1925,0-.3474.0524-.4647.1575-.117.1048-.1914.2571-.223.4565l-.2677,1.7006c-.0316.1996-.0051.3517.0789.4568.0837.1051.2204.1575.4092.1575ZM406.3814,785.7853l.5248-3.3121h-1.0234l.084-.5194h2.6193l-.084.5194h-1.0289l-.5248,3.3121h-.567ZM409.5178,785.7853l.6088-3.8315h2.32l-.084.5194h-1.7636l-.1837,1.1445h1.6272l-.084.5248h-1.6166l-.2571,1.6428h-.567ZM413.7694,785.8377c-.3571,0-.6231-.1005-.7979-.3019-.1751-.201-.2344-.473-.1785-.8161l.2677-1.7006c.0561-.3429.203-.6148.4411-.8161.2378-.201.5354-.3019.8922-.3019.3571,0,.6228.1.7979.2993.1748.1993.2361.4707.1837.8136l-.2677,1.7057c-.0561.3431-.2039.6151-.4437.8161-.2395.2013-.5379.3019-.8947.3019ZM413.848,785.3339c.1925,0,.3483-.0524.4673-.1575.1187-.1051.1942-.2571.2255-.4568l.2677-1.7006c.0316-.1993.0054-.3517-.0786-.4565-.084-.1051-.2224-.1575-.4146-.1575-.1925,0-.3474.0524-.4647.1575-.117.1048-.1914.2571-.223.4565l-.2677,1.7006c-.0316.1996-.0051.3517.0789.4568.0837.1051.2204.1575.4092.1575ZM415.7952,785.7853l.6088-3.8315h1.202c.2381,0,.4391.0464.6037.139.1643.0928.2833.223.3568.391s.0911.3656.0527.5932c-.0387.2591-.1401.4838-.3044.6746-.1646.1905-.3659.3209-.6037.391l.5354,1.6428h-.6194l-.4776-1.5748h-.5408l-.2466,1.5748h-.567ZM416.6876,783.7068h.635c.1891,0,.3491-.0558.4804-.168.131-.1119.2107-.2623.2386-.4514.0316-.1925,0-.3454-.0945-.4593-.0943-.1136-.2361-.1706-.4252-.1706h-.635l-.1993,1.2493ZM420.905,785.8377c-.3602,0-.6308-.1005-.8107-.3019-.1803-.201-.2423-.473-.1865-.8161l.2677-1.7006c.0561-.3463.2056-.6194.4488-.8187s.545-.2993.9056-.2993c.3568,0,.6253.1008.8056.3019.1803.2013.2423.4733.1865.8161h-.567c.0313-.1993.0026-.3517-.0866-.4565-.0894-.1051-.2284-.1575-.4175-.1575-.1925,0-.3508.0524-.475.1575-.1242.1048-.2019.2554-.2335.4514l-.2677,1.7057c-.0316.1996-.0026.3517.0866.4568.0894.1051.2301.1575.4226.1575s.35-.0524.4724-.1575.1993-.2571.2309-.4568h.5667c-.0347.2275-.1145.4252-.2386.5932s-.2808.2976-.4699.3884c-.1888.0908-.4024.1364-.6404.1364ZM424.0335,785.8377c-.3571,0-.6231-.1005-.7979-.3019-.1751-.201-.2344-.473-.1785-.8161l.2677-1.7006c.0561-.3429.203-.6148.4411-.8161.2378-.201.5354-.3019.8922-.3019.3571,0,.6228.1.7979.2993.1748.1993.2361.4707.1837.8136l-.2677,1.7057c-.0561.3431-.2039.6151-.4437.8161-.2395.2013-.5379.3019-.8947.3019ZM424.1121,785.3339c.1925,0,.3483-.0524.4673-.1575.1187-.1051.1942-.2571.2255-.4568l.2677-1.7006c.0316-.1993.0054-.3517-.0786-.4565-.084-.1051-.2224-.1575-.4146-.1575-.1925,0-.3474.0524-.4647.1575-.117.1048-.1914.2571-.223.4565l-.2677,1.7006c-.0316.1996-.0051.3517.0789.4568.0837.1051.2204.1575.4092.1575ZM425.9653,785.7853l.6088-3.8315h.6874l.1837,1.2282c.0211.119.0367.2301.0473.3332.0105.1034.0194.1828.0262.2389.0177-.0561.0473-.1364.0894-.2415.0419-.1051.0908-.217.1469-.336l.5667-1.2228h.7088l-.6088,3.8315h-.5354l.2045-1.2911c.0245-.168.0578-.3525.1-.5539.0419-.201.0874-.4041.1364-.6088s.0963-.3998.1418-.5852c.0453-.1854.0874-.3483.1259-.4881l-.8554,1.8632h-.5513l-.2833-1.8632c-.0037.1364-.0105.2947-.0211.475s-.0236.3719-.0393.5747c-.0157.203-.035.4069-.0578.6114-.0228.2047-.0481.3964-.076.5749l-.2047,1.2911h-.5405ZM429.1145,785.7853l.6088-3.8315h.6874l.1837,1.2282c.0211.119.0367.2301.0473.3332.0105.1034.0194.1828.0262.2389.0177-.0561.0473-.1364.0894-.2415.0419-.1051.0908-.217.1469-.336l.5667-1.2228h.7088l-.6088,3.8315h-.5354l.2045-1.2911c.0245-.168.0578-.3525.1-.5539.0419-.201.0874-.4041.1364-.6088s.0963-.3998.1418-.5852c.0453-.1854.0874-.3483.1259-.4881l-.8554,1.8632h-.5513l-.2833-1.8632c-.0037.1364-.0105.2947-.0211.475s-.0236.3719-.0393.5747c-.0157.203-.035.4069-.0578.6114-.0228.2047-.0481.3964-.076.5749l-.2047,1.2911h-.5405ZM432.4107,785.7853l.6088-3.8315h2.2516l-.0786.5038h-1.6955l-.1731,1.0867h1.5115l-.0786.4986h-1.5118l-.1942,1.2387h1.6901l-.0786.5038h-2.2516ZM435.5073,785.7853l.6088-3.8315h1.202c.2381,0,.4391.0464.6037.139.1643.0928.2833.223.3568.391s.0911.3656.0527.5932c-.0387.2591-.1401.4838-.3044.6746-.1646.1905-.3659.3209-.6037.391l.5354,1.6428h-.6194l-.4776-1.5748h-.5408l-.2466,1.5748h-.567ZM436.3997,783.7068h.635c.1891,0,.3491-.0558.4804-.168.131-.1119.2107-.2623.2386-.4514.0316-.1925,0-.3454-.0945-.4593-.0943-.1136-.2361-.1706-.4252-.1706h-.635l-.1993,1.2493ZM439.8007,785.8377c-.3602,0-.6308-.1005-.8107-.3019-.1803-.201-.2423-.473-.1865-.8161l.2677-1.7006c.0561-.3463.2056-.6194.4488-.8187s.545-.2993.9056-.2993c.3568,0,.6253.1008.8056.3019.1803.2013.2423.4733.1865.8161h-.567c.0313-.1993.0026-.3517-.0866-.4565-.0894-.1051-.2284-.1575-.4175-.1575-.1925,0-.3508.0524-.475.1575-.1242.1048-.2019.2554-.2335.4514l-.2677,1.7057c-.0316.1996-.0026.3517.0866.4568.0894.1051.2301.1575.4226.1575s.35-.0524.4724-.1575.1993-.2571.2309-.4568h.5667c-.0347.2275-.1145.4252-.2386.5932s-.2808.2976-.4699.3884c-.1888.0908-.4024.1364-.6404.1364ZM441.8792,785.7853l.0789-.5038h.7768l.4459-2.824h-.7766l.0837-.5038h2.1258l-.084.5038h-.7766l-.4462,2.824h.7768l-.0789.5038h-2.1258ZM444.7399,785.7853l1.585-3.8315h.7452l.3728,3.8315h-.5616l-.0735-.9711h-1.0867l-.3884.9711h-.5929ZM445.8998,784.3418h.8714l-.0894-1.1023c-.0174-.1959-.0296-.3654-.0367-.5089-.0068-.1435-.0103-.2432-.0103-.2993-.0177.0561-.0518.1558-.1025.2993s-.1148.3112-.1916.5038l-.4408,1.1075ZM448.2354,785.7853l.6088-3.8315h.567l-.5248,3.3118h1.6741l-.0786.5197h-2.2465ZM453.1932,785.8377c-.3676,0-.6345-.1005-.8005-.3019-.1663-.201-.2213-.475-.1654-.8213l.4357-2.7608h.567l-.4357,2.7554c-.0316.1962-.008.35.0709.4619.0786.1122.2141.168.4066.168s.3474-.0558.4645-.168c.1173-.1119.1916-.2657.2233-.4619l.4357-2.7554h.5667l-.4357,2.7608c-.0558.35-.2002.6245-.4328.8241-.2329.1993-.5328.299-.9001.299ZM456.3581,785.8377c-.385,0-.6738-.0951-.866-.2859-.1925-.1908-.2643-.4505-.2153-.7794h.567c-.0282.1748.0105.3121.1153.4121.1051.0997.266.1495.483.1495.2028,0,.3699-.049.5012-.1469s.2107-.2327.2389-.4044c.0211-.1504.0009-.2788-.0604-.3856s-.1583-.1811-.2913-.2233l-.4568-.1364c-.266-.0803-.4619-.217-.5878-.4095-.1259-.1922-.1697-.4197-.1313-.6823.035-.2099.1119-.3935.2309-.551s.2731-.2799.4619-.3673c.1891-.0874.4024-.1313.6404-.1313.3497,0,.6157.0954.7979.2859.1817.1908.2483.4437.1993.7586h-.567c.0279-.168-.0026-.3001-.0917-.3964-.0894-.0963-.2301-.1444-.4226-.1444-.1891,0-.3429.0447-.4619.1338-.119.0894-.1891.2144-.2099.3753-.0245.1506-.0071.2791.0524.3859s.1575.1811.2939.223l.4673.1469c.2623.0806.4556.2173.5798.4095.1242.1925.1654.4217.1236.6877-.035.217-.1156.4058-.2415.5667-.1262.1612-.2879.2862-.4855.3753-.1979.0894-.4192.1338-.6641.1338ZM458.4209,785.7853l.6088-3.8315h2.2516l-.0786.5038h-1.6955l-.1731,1.0867h1.5115l-.0786.4986h-1.5118l-.1942,1.2387h1.6901l-.0786.5038h-2.2516Z" style="fill: #ccc;"/>
  <path d="M381.248,155.4517l-26.3639-19.1323,32.5745.0179,10.049-30.9857,10.0491,30.9857,32.5743-.0179-26.3638,19.1323,10.0831,30.9745-26.3427-19.1614-26.3427,19.1614,10.0831-30.9745ZM400.4237,537.7073c-86.0808,0-156.1129-70.0321-156.1129-156.1134s70.0321-156.1129,156.1129-156.1129,156.1129,70.0321,156.1129,156.1129-70.0321,156.1134-156.1129,156.1134ZM552.5337,381.5939c0-83.8736-68.2359-152.11-152.11-152.11s-152.11,68.2364-152.11,152.11,68.2364,152.1105,152.11,152.1105,152.11-68.2369,152.11-152.1105ZM318.3681,298.3021l-11.3239-12.527,10.8992,4.5295,3.0433-2.9017-3.751-10.8284,11.8192,11.8192,4.1049-3.8926-17.2688-18.4012-5.0957,4.8126,4.388,13.3055-12.8809-5.3788-5.308,4.8126,17.3396,18.4012,4.0341-3.751ZM365.2632,268.568l-3.9865-16.4092,7.424,9.1757,4.0582-1.101,1.8619-11.3074,4.7593,16.0229,5.4637-1.4662-6.4142-24.4064-6.7733,1.803-2.4822,13.7887-8.7615-10.8666-6.9599,1.7019,6.4764,24.4401,5.334-1.3755ZM335.92,282.8734l-4.8834-26.2571,5.8743-3.4679,20.0997,18.118-5.8742,2.9725-3.8407-3.6437-7.1555,3.9623,1.0878,5.2018-5.308,3.1141ZM337.3354,261.1458l1.846,8.8273,4.7579-2.562-6.6039-6.2653ZM407.9795,263.0331v-4.3408l-10.9464-.0944-.1172-6.6854,10.1199-.2977v-4.4351h-10.203l-.0828-4.7183,10.9464-.0944-.0944-4.7183-17.0801.1887.4718,25.4786,16.9857-.2831ZM430.1553,262.231l-10.616-2.2648,3.6802-20.3828-6.0865-1.1324-4.2465,24.9124,16.5611,3.2556.7077-4.388ZM436.1003,253.8326c2.5479-4.7183,7.9266-10.3802,15.8533-6.983,6.4266,2.7543,10.1915,9.5308,6.5112,17.3632-3.6802,7.8323-9.7196,10.6632-17.2687,6.983-7.5493-3.6802-7.6436-12.6449-5.0958-17.3631ZM443.5552,267.138c4.7182,2.3591,7.5491-1.9816,9.3421-5.8506,1.7929-3.869,1.3826-8.325-2.2648-10.0026-4.7183-2.1704-7.1718,2.6422-8.3041,4.7182-1.1323,2.076-3.4915,8.7759,1.2268,11.1351ZM457.8042,278.1787l14.5323-20.666s6.8886,4.8126,10.0027,7.2661c3.114,2.4535,6.4168,9.1534,1.1323,16.2308-5.2844,7.0774-12.7392,5.9449-16.1364,3.5858-3.3971-2.3591-9.5309-6.4168-9.5309-6.4168ZM465.4478,277.99s1.6985,1.2267,3.1141,2.2648c1.4155,1.038,6.4168,2.1703,9.7196-2.9254,3.3027-5.0956,1.7929-8.8703-.4719-10.4745-2.2647-1.6042-3.1141-2.1704-3.1141-2.1704l-9.2477,13.3055ZM483.8218,293.6376l-2.6151-2.7197-2.9253,3.1141,9.1534,9.5309,3.2084-2.831-2.7285-2.8376,12.4043-11.7776,2.5917,2.7252,3.0197-2.9252-9.4365-9.6252-2.7366,2.9253,2.461,2.5878-12.3965,11.8331ZM307.5751,460.3505c4.5059.519,6.6637,8.1682,6.9064,10.2091l4.3702-4.1049c-3.9633-9.7137-13.5258-16.0278-19.4097-8.9352-5.656,6.8179,5.7385,14.6738,2.5065,17.8586-3.0354,2.9911-8.9883-3.2792-9.6016-11.1351l-4.8362,4.5767c3.2321,6.7,8.3749,13.565,15.6411,12.7865,4.7605-1.3177,7.5071-5.5807,6.0747-9.4719-2.1232-5.7681-5.9739-9.3598-4.0341-11.1232,1.038-.9437,1.8856-.7178,2.3827-.6606ZM503.502,461.0544c-5.7072,2.2817-9.1912,6.2302-11.0076,4.3398-.9719-1.0115-.7697-1.865-.7261-2.3635.3943-4.5186,7.981-6.8868,10.0144-7.1858l-4.2241-4.2552c-9.6005,4.2302-15.6479,13.9635-8.3955,19.6492,6.9716,5.4655,14.5096-6.1418,17.7825-2.999,3.0738,2.9516-3.0296,9.0754-10.8655,9.9056l4.7086,4.7079c6.6081-3.4159,13.3284-8.7465,12.3495-15.9883-1.4487-4.7223-5.786-7.35-9.6362-5.8107ZM336.4036,478.3388l-1.5571,2.0524-8.6344,12.3854c-.9333,1.3441-2.3568,2.273-3.2556,2.4535-.8917.1902-2.0723-.1143-3.2084-.8965-1.2189-.8362-1.9517-1.9414-2.1704-2.8546-.3067-1.0852.535-3.2179,1.5098-4.6239l9.4247-13.966-5.0395-3.6232-10.2355,14.734c-1.8572,2.6712-2.4406,5.2955-1.7396,7.7922.6857,2.4436,2.5536,4.7299,5.551,6.7903,1.2536.8651,2.546,1.5043,3.8329,1.9025,1.0589.3295,2.111.4717,3.1428.4338.2622-.0097.524-.0294.7785-.0655,1.2864-.1646,2.544-.6564,3.7396-1.4608,1.1693-.7867,2.2755-1.9161,3.2823-3.3668l9.7097-13.9713-5.1311-3.7156ZM355.489,505.1149l-2.312-17.835-7.3682-3.0797-10.0896,25.2051,5.4263,2.1264,7.0774-17.5048,2.8309,21.6096,5.6968,2.3868,10.0929-25.2085-5.5983-2.185-5.7562,14.485ZM474.3057,471.929l8.9399,12.7682-16.1719-7.8677-6.462,4.812,15.3563,21.9313,4.7581-3.3655-10.7371-15.5312,19.3922,9.2447,5.2726-3.6448-15.4466-21.824-4.9016,3.477ZM390.2035,500.1254c5.709,7.0773,2.6689,20.2056-7.0464,22.1496-3.8013.7606-9.8568-.5046-15.2394-.8597l2.7552-26.6559c5.2224.3057,15.3875.23,19.5305,5.366ZM386.3581,508.052c.1694-6.4359-4.7418-7.62-9.6682-7.9023l-1.75,17.103c8.3513,1.557,11.2294-2.0289,11.4182-9.2006ZM424.1524,509.8248c.1706,2.1722.0273,4.174-.4231,5.9452-.4539,1.7912-1.2011,3.3586-2.2248,4.6585-1.027,1.3033-2.334,2.3494-3.8865,3.108-1.5389.7519-3.3132,1.2098-5.2719,1.3535-.4606.0334-.9111.0535-1.3513.0535-1.5867,0-3.0403-.2239-4.3369-.6684-1.6652-.5714-3.1119-1.457-4.296-2.6367-1.1738-1.1663-2.1053-2.62-2.7673-4.311-.6483-1.6575-1.0578-3.5323-1.2181-5.5775-.1706-2.1722-.0341-4.1673.4026-5.9385.4436-1.8013,1.1806-3.3686,2.1906-4.6619,1.0134-1.3,2.317-2.346,3.8694-3.108,1.5355-.7519,3.3201-1.2064,5.3094-1.3568,2.1122-.157,4.0298.0502,5.6881.6183,1.672.5748,3.1154,1.4604,4.296,2.6367,1.1738,1.1663,2.1087,2.61,2.7843,4.301h0c.662,1.6609,1.0782,3.539,1.2352,5.5842ZM417.33,510.4426c-.0944-1.3664-.3012-2.6391-.6206-3.7827-.2966-1.0963-.7368-2.0361-1.3054-2.8075-.5419-.7319-1.2082-1.2915-1.9837-1.663-.6257-.2996-1.3681-.4543-2.2155-.4603-.1965-.0013-.3929.0051-.6011.0194-1.9077.1362-3.3037.9056-4.2693,2.359-1.0005,1.5082-1.3989,3.9298-1.1754,7.1942.0979,1.4175.3199,2.714.6587,3.8459.3351,1.1044.783,2.0482,1.3362,2.8038.5303.7239,1.1661,1.2557,1.9455,1.6155.7718.3596,1.6876.4999,2.7397.4286,1.9424-.1359,3.3614-.8895,4.3304-2.2917h.0001c1.0002-1.4453,1.391-3.8866,1.1603-7.2611ZM453.6876,486.7963l1.7458,18.6843-9.9556-15.9949-5.9921,2.1232,1.1324,18.7786-9.3893-16.1836-6.2753,2.1232,14.5794,23.4025,6.983-2.2648-.9908-17.2688,9.3421,14.485,6.8415-2.312-1.793-27.6018-6.2281,2.0289ZM260.8555,377.5894l-.519,2.3355c1.0616,0,2.5007.0472,3.7982.0236l-2.1523,10.0246,3.3555.0253,3.2556-15.4286-2.5714-.0236c-.7785,1.6278-1.5806,2.6187-5.1665,3.0433ZM281.8016,376.0176c.8585,1.1235,1.1805,2.6308,1.1147,4.4941-.1016,2.8751-.7761,5.3534-2.2825,7.2897s-3.4732,2.6084-5.8187,2.5255c-1.3744-.0486-2.4608-.435-3.2592-1.1592-.7984-.7242-1.0944-1.7386-1.1489-2.9941l3.0433-.0531c.0437.6283.3544,1.0296.6212,1.2941.2667.2645.6968.5294,1.1659.546.6008.0212,1.2761-.1499,1.7516-.5485.8492-.5662,1.5216-1.4686,2.424-3.9633-.8493.7962-1.3447,1.4332-3.3579,1.5216-1.3986.0615-2.6316-.6312-3.5071-1.5039-.8756-.8727-1.1924-1.9163-1.1409-3.372.0576-1.6304.689-3.0584,1.8942-4.2839,1.2052-1.2255,2.6903-1.7186,4.6078-1.6508,1.6953.0599,3.0341.7343,3.8926,1.8578ZM279.7668,379.5563c.0298-.8444-.1839-1.5893-.5485-1.9993-.3646-.4101-.9974-.7057-1.557-.7255-.6913-.0244-1.4941.2026-2.0525.7078-.5573.5043-1.0252,1.3836-.9731,2.6717.062,1.5305,1.4348,2.1313,1.964,2.2117,1.3978.2123,2.5131-.6066,2.7956-1.2562.2825-.6495.3476-.9332.3715-1.6101ZM524.0043,374.5104h-11.0046l-.634,2.8384,7.5692.0341c-1.3371,1.4495-6.1219,6.4935-7.4667,12.6331l3.3264-.0707c1.1855-4.8657,4.4588-9.3776,5.4319-10.5099.887-1.0321,1.5577-1.701,2.2647-2.2294l.5131-2.6956ZM535.7527,379.748c0,1.6193-.2224,3.1804-.9031,4.9833s-1.5997,3.1848-2.7573,4.1456-2.4618,1.4412-3.9128,1.4412-2.6473-.4642-3.5887-1.3926c-.9415-.9284-1.4123-2.2707-1.4123-4.0269,0-1.5906.2143-3.3517.8257-4.9855.7499-1.9936,1.5392-3.3691,2.713-4.3408s2.7421-1.4155,4.1768-1.4155c1.451,0,2.4862.6522,3.4196,1.5806.9333.9285,1.4391,2.2401,1.4391,4.0106ZM530.7514,376.8934c-2.5479-.4954-3.5763,2.9389-4.0577,4.8362-.401,1.5806-.9672,5.827,1.3041,6.1594,2.4301.3555,3.5397-2.7702,4.0983-4.8147.4454-1.623,1.1306-5.6996-1.3447-6.1809ZM380.2162,384.7925c-.5394,1.1801.5873,3.1708,3.0911,5.4615,2.0322,1.8588,3.3251,1.6003,5.7917.5683,2.064-.863,1.5827-2.5297.4764-5.6457-.8947-2.5223-2.7207-2.6646-4.6537-2.8146l-.1984-.0156c-.2189-.0176-.4271-.0259-.625-.0259-2.4084,0-3.3168,1.2353-3.8822,2.472ZM384.1609,348.6942l.7931,1.0357c.5482,2.4543,2.5906,11.619,3.116,14.2849.389,1.9745,1.8994,9.158,3.1131,14.9302.5847,2.7812,1.1002,5.2339,1.399,6.6691l-.0372.0032c.3987,4.6982-1.7957,6.169-5.4654,7.0192-3.5895.8341-7.4081-3.6442-8.2452-5.7375-.2747-.6865-.7053-1.8479-1.2151-3.248-.0378-.1923-.0732-.3834-.1306-.5844l-.074.0211c-.4008-1.1047-.8407-2.3272-1.2927-3.5837-.925-2.5717-1.9072-5.3022-2.7095-7.4561-1.4439-3.8749-4.3431-9.7173-5.4159-11.8422l-.5401-2.1689c-.0797-.325-1.8837-8.0473,5.203-11.5273,1.5641-.7676,3.1086-1.1571,4.5907-1.1571,4.3019,0,6.8854,3.3085,6.9108,3.3418ZM384.8025,381.3486c-3.5631-.2746-4.8404,1.593-5.4962,3.0276-.9523,2.0826,1.2827,4.7476,3.3257,6.6166,1.309,1.1971,2.43,1.6364,3.5548,1.6364,1.0457,0,2.0938-.3796,3.2983-.8834,3.0339-1.269,2.062-4.0063,1.0334-6.9039-1.1121-3.1351-3.5558-3.3252-5.5191-3.4776l-.197-.0157ZM389.0522,363.8214c-.5511-2.7967-2.7595-12.6902-3.187-14.6019l.0895-1.0466c.474-5.6056,3.0403-8.448,7.6276-8.448,1.5925,0,3.3897.3455,5.3413,1.0276,1.639.5729,3.0573,1.8173,4.2744,3.3539,1.5568,4.5612,2.486,13.5981,2.7961,16.6258l.0225.2175c.1149,1.1221.2765,4.254.4268,7.9204-1.1744-2.0992-2.8344-3.7086-2.9335-3.8036l-.6919.7227c.0322.0312,3.2357,3.1331,3.7214,6.1358l.0219-.0035c.1866,5.1296.3252,10.5074.2782,12.6519-.0939,4.2369-3.8807,5.417-6.1304,5.7439-2.8101.4041-6.3982-1.2734-6.987-4.1353-.2424-1.1771-.8531-4.0821-1.5597-7.4424-1.2133-5.7693-2.7227-12.9493-3.1102-14.918ZM394.1301,384.5233c.3137,1.915,1.2485,3.528,2.5648,4.4256.8674.5917,1.8813.8883,3.0286.8883.5253,0,1.0784-.0626,1.6589-.1871,4.3361-.9323,4.2814-4.5629,4.2277-8.0742-.0059-.3958-.0117-.7935-.0117-1.1908,0-2.2946-1.0359-5.03-5.9731-5.03-2.1954,0-3.1629.3381-4.6298,1.1473-1.7375.9592-1.288,5.437-.8654,8.0209ZM397.2588,388.1221c1.0295.7021,2.3479.8868,3.9125.5497,3.5338-.7598,3.4899-3.6891,3.438-7.0808-.0059-.4006-.0117-.8038-.0117-1.2059,0-2.7114-1.6262-4.0293-4.9724-4.0293-2.0659,0-2.8859.3274-4.1461,1.0232-.8121.4481-.9606,3.3193-.3611,6.9831.2692,1.6458,1.0496,3.0164,2.1407,3.7601ZM371.6304,388.3303c.7794-.0181,1.4273-.2985,1.9766-.8961.7457-.8126,1.0911-1.9428,1.1849-2.602-.7086-.0513-2.1456-.1368-3.8715-.1368-2.6709,0-2.9455.6205-3.0046,1.3115-.0337.3943.1412.8331.4803,1.2045.3787.4144,1.3027,1.1107,3.2343,1.119ZM364.2442,380.9289l-.944-.3332c-.2985.8463-.3899,1.7516-.4035,2.5142-5.2001-7.4653-7.9927-16.3403-8.3914-17.6626.7834-3.1109,2.2467-6.4642,4.706-7.4407.9186-.3645,1.8207-.5497,2.6816-.5497,2.4251,0,3.7996,1.44,3.8568,1.5011l1.0749,1.1492c.6797,1.334,4.0612,8.0252,5.6497,12.2902.8019,2.151,1.7826,4.8776,2.7061,7.4454.5235,1.4554,1.0308,2.8653,1.4798,4.0988.5959,3.3919-2.3364,5.139-2.6926,5.3367-.4642.2589-4.5775,2.2534-9.999-4.7043-.0566-.4445-.234-2.2005.2757-3.645ZM366.919,385.9213c-.0587.6816.2032,1.3794.7383,1.9648.8448.9245,2.2546,1.4376,3.9692,1.4449h.0157c1.0349,0,1.9687-.4217,2.7021-1.2201,1.1492-1.2524,1.5284-3.1116,1.4683-3.784l-.0371-.4144-.4144-.0386c-.0191-.002-1.9335-.1793-4.4407-.1793-1.9794,0-3.8338.2697-4.0014,2.2267ZM467.2318,360.9858c-1.0422,2.6714-1.2078,4.9531-1.0936,6.4655.8729-1.5519,1.8474-3.1165,2.9387-4.6174l.1847-.2536c1.52-2.0891,2.7375-3.7769,3.299-5.1158-2.0566-.0024-4.1738.5617-5.3288,3.5214ZM404.9541,346.725c1.9213,3.3724,3.09,7.1599,3.5457,8.8145.1398.5135.5932.8595,1.1259.8595.6147,0,1.1258-.4803,1.1639-1.0936l.1046-1.7811c.4075-6.9215,1.4327-24.357,1.6017-27.4633.214-3.8929,1.0632-20.5275,1.205-23.3596.0733-1.4855.8287-5.03,6.2291-5.8544.3058-.0469.6108-.0709.9059-.0709,3.8544,0,5.9594,4.0459,6.2301,6.212.3577,2.8639,1.2206,12.1802,1.5529,16.0966.3557,4.2042.9098,22.3712.8453,24.4429-.0255.8322-.0801,1.741-.1534,2.9523-.1281,2.1271-.304,5.0403-.4828,9.9941-.2824,7.8416,1.7141,25.3362,1.7991,26.0775l.1857,1.6169,1.3594-.8957c.0195-.0137,2.064-1.3589,3.525-2.1808,1.6066-.9034,3.5231-2.4231,4.559-3.6129.5893-.6777,1.3712-2.17,2.7031-4.7496.8385-1.6242,1.7894-3.4654,2.7902-5.2264,2.7227-4.791,7.3471-11.3192,11.4213-13.9505,1.7581-1.1356,4.1231-1.761,6.6581-1.761,2.8419,0,5.6506.7745,7.5142,2.0723,1.2323.858,1.4669,1.5035,1.5363,1.9145.0357.2119.0239.4433-.0131.6859-1.6691-.0543-4.9963.1334-6.5669,4.158-1.4664,3.7584-1.3211,6.8135-.9531,8.2838-1.8971,3.6092-3.2282,7.0125-4.0837,9.204-1.5548,3.9843-4.1231,14.4944-4.7925,20.6267-.5072,4.643-.8757,5.1913-1.3858,5.9506-.171.2541-.3538.5277-.5551.9069-.6206,1.1678-2.7452,4.2863-4.1505,6.3493-.5404.7935-.9929,1.4581-1.2509,1.851-.3196.4838-.7662,1.0417-1.2392,1.632-.8893,1.1102-1.8979,2.3679-2.5135,3.7-.6958,1.5021-2.5497,4.3567-3.5455,5.89-.2258.3469-.4105.6313-.5326.8239-.4066.643-1.4141,1.7336-2.2233,2.6113-.4193.4534-.7984.8649-1.0564,1.1697-.6274.7418-8.7084,10.4275-10.1401,12.2941-1.1444,1.4943-2.0288,1.8715-4.6547,2.9894l-.559.2375c-3.3462,1.4317-4.4759,3.1341-4.4759,6.748v9.2762l-52.239-.4544-.0439-11.1428-.131-.2287c-1.4185-2.4822-8.8907-21.1745-10.191-25.8175-1.2924-4.6147-1.6589-7.0803-2.6069-22.7215-.7124-11.7526.1017-21.4408.539-26.6453.1402-1.6677.2414-2.8727.2414-3.5616,0-.7273.1042-1.8765.332-3.1883,1.159,3.3983,4.0006,10.8237,8.5367,17.0474,3.7703,5.1737,7.1277,6.2751,9.3036,6.2751,1.3975,0,2.3073-.455,2.5258-.5766.3226-.1791,2.4245-1.4356,3.0891-3.8195.1364.3605.2615.6873.3616.9375.9636,2.4084,4.5927,6.4656,8.3014,6.4656.3665,0,.7335-.0396,1.0989-.1241,2.917-.6763,5.6016-1.8575,6.1693-5.4802,1.3172,2.0273,3.9821,3.2441,6.4062,3.2441.3298,0,.6553-.0229.9729-.0689,2.5614-.3718,6.877-1.7385,6.9865-6.7119.0919-4.2076-.5267-20.811-.8287-23.7481l-.0215-.2165c-.2563-2.4964-.9285-9.04-2.0358-13.9056ZM418.7113,363.3327l-.0488-.9998c-2.5869.1241-3.8885-1.2836-3.9433-1.3438l-.3734.3337-.3743.3318c.0635.0718,1.5284,1.6873,4.3645,1.6873.1221,0,.2482-.0029.3752-.0093ZM413.4536,358.5891c.1329.149,2.9709,3.2557,8.3077,3.2557.688,0,1.419-.0518,2.1901-.1681l-.1485-.9899c-6.2057.9343-9.5695-2.7276-9.6036-2.7642l-.7457.6665ZM403.5451,402.2285c-3.2666,2.8093-6.236,5.5728-8.5308,9.3419-1.2012.2019-2.4266.1486-4.0096-.2034-1.353-.3-1.7591-2.3914-2.0709-3.9951-.3455-1.7776-2.8482-5.4991-2.9543-5.6564l-.8297.559c.6929,1.0272,2.5468,3.9785,2.8165,5.3652.3494,1.7982.8278,4.2618,2.8214,4.7046,1.0726.2385,1.999.3557,2.8683.3557.2485,0,.4888-.02.7299-.0392-.8606,1.5784-1.6118,3.3268-2.2222,5.3234-2.2243,7.2758-.559,12.5354.2414,15.0626l.0899.2853.9548-.299-.0909-.2883c-.7696-2.4314-2.3718-7.4897-.2385-14.4675,2.2111-7.2318,6.3249-11.2034,11.0773-15.2903,4.6118-3.9658,12.2677-7.6286,12.3448-7.6647l-.43-.904c-.3185.1515-7.8524,3.7557-12.5676,7.8104ZM750,689.1199s-135.3195,7.3605-180.2372,5.0957c-44.9178-2.2648-89.8356.7549-95.8749-23.4025-4.907-16.6083,42.2756-32.8391,42.2756-32.8391,0,0-142.3025-7.1718-231.7606-.3774,0,0,42.8291,16.9869,42.653,30.1968-.1887,14.1548-16.7969,23.78-62.6584,24.9124-52.6805,1.3007-125.6943,3.7746-214.3974-3.7746l108.7086-66.433-84.7398-55.2979,124.9393-.3774s-15.8533-16.9857,35.4813-23.4025c17.2953-2.1619,40.2473-3.3375,63.715-3.9327-51.6489-33.5391-85.8167-91.7232-85.8167-157.8934,0-103.9036,84.2325-188.136,188.136-188.136h0c103.9036,0,188.136,84.2324,188.136,188.136,0,65.837-33.8266,123.7651-85.0396,157.382,56.0853,1.3905,112.0041,7.3945,98.1381,27.4692l125.3168.7549-85.6835,54.7318,108.7086,67.1879ZM251.4222,643.7775c-.099-.2806-.1829-.5539-.2589-.8239l-.3917.2157-34.2458-62.1061-104.2448-1.0294,80.399,42.4643-101.348,57.374c11.89,2.6423,87.1933,4.152,162.3079,1.1324s52.0895-13.3998,34.1602-20.949c-17.9293-7.5492-34.113-9.8611-36.3777-16.278ZM548.2475,637.2191c1.1907,1.1133,1.8689,2.161,2.1384,3.1596l35.0375-63.8986c3.4819-8.3099,3.5916-12.8485-12.8297-16.2628-17.2491-3.5864-77.9388-7.3069-142.1753-9.1193,80.6603-14.2335,142.1298-84.8232,142.1298-169.504,0-94.9099-77.215-172.1245-172.1245-172.1245s-172.1245,77.2145-172.1245,172.1245c0,83.5121,59.7864,153.313,138.8035,168.8763-67.5466.9775-127.876,7.0029-143.0935,10.1245-11.4762,2.3541-11.2065,9.7359-9.3786,14.9592l36.2263,65.6977c-.3181-5.6604,7.6827-8.8314,43.7374-11.7704,33.7613-2.752,119.8436-4.907,149.663-3.2084s94.5538,2.1232,103.9903,10.9464ZM709.423,680.0608l-100.9706-57.9401,80.2103-42.0869-104.4579.7502-33.9439,61.9043c-.1396.3585-.3359.7108-.5802,1.058l-.6407,1.1684-.2394-.1311c-4.2755,4.2285-15.7368,7.7498-25.8429,12.0634-15.4758,6.6056-60.7239,18.2597,15.0984,23.4026,75.9658,5.1526,171.3669-.1888,171.3669-.1888ZM378.9346,575.71l-.2228.3707v3.0392s4.755,0,4.755,0v-3.1875l-.2229-.2224h-4.3093ZM510.4854,585.6597c-1.7504.1913-3.1688,1.4634-4.5488,2.4542-1.0748-2.1761-2.674-3.2929-5.1313-3.0697-1.4482.1315-2.8307,1.265-3.7509,2.0081-.0774-.3978,0-1.557,0-1.9109l-4.4996-.1747-.1188.1779-.8912,15.0065c.5988.1283,4.3089.4832,4.5209.1788l.8407-10.8735c.9476-.7828,2.8009-1.3151,3.8378-.3365.82.7739.6215,2.3526.5857,3.4156-.0863,2.5575-.4013,5.7955-.5598,8.353.0027.2007,3.7156.46,4.6711.2831.2477-3.291.4503-6.7352.6016-9.6252.0692-1.3222.5678-2.0345,1.9165-2.1804,1.0759-.1163,2.7263-.0563,2.7241,1.2532-.0049,2.9088-.1738,5.6057-.2526,8.3584-.017.5907-.0708,1.4862-.0524,2.4432l4.476.3829c.2828-4.4185.7783-8.1696.5922-12.3787-.1108-2.5061-2.5254-4.0315-4.9611-3.7654ZM324.4731,585.2737c-2.5189-.8418-2.3155-3.0545.0054-3.8515,3.1094-1.0678,5.7594.366,8.4656,1.7006v-4.077c0-.1124-.5707-.5176-.7422-.5937-5.4694-2.426-17.174-.1161-14.1881,7.9289,1.6283,4.3873,6.8685,3.3714,9.9845,4.8639.6426.3079,1.08,1.0282,1.0941,1.7374.0564,2.8237-4.738,2.5375-6.58,2.1052-1.6423-.3854-3.0894-1.3027-4.5031-2.176l.0155.7303c.0524.8824,0,2.6917-.012,3.7112.2791.6194,2.754,1.182,3.4552,1.2969,5.1487.8431,13.0205-.2317,12.6714-7.0093-.2757-5.3525-5.8803-5.1016-9.6663-6.3668ZM427.4838,583.9972l.051-7.8518c-.184-.2632-2.0848-.1183-2.5418-.1328-.689-.0218-1.0479-.0129-2.0033.0579-.1949,3.7424-.2389,7.5261-.2876,11.2838-.038,2.9228-.0309,5.6666-.1623,9.6381-.0072.2172.0184.3812.2305.5114l4.572-.0948c0-.9908-.0677-1.5676-.0338-2.3453.1022-2.337-.0016-5.5106.2107-7.9523.1662-1.9117,4.5858-2.5436,4.9896.2123.2781,1.8986.0447,5.2268,0,7.2543-.0106.48-.0354,1.0616-.1062,3.0079h4.6711c-.0354-.637.0049-.7719.0413-1.1888.2318-2.6526.2295-7.7341.0001-10.3885-.4322-5.0024-6.5526-5.6915-9.6312-2.0113ZM289.1707,588.3567c-.9371-3.0125-3.7619-4.0658-6.5818-2.8809-.5234.2199-3.0701,2.4182-2.9899,1.502l-.3627-7.2743-4.0423.0736-.3926-.028.6659,21.3156c1.0304.1262,3.3015.021,4.5776-.0021-.0713-2.1495-.1721-4.2671-.2318-6.4185-.0378-1.3636-.1472-3.0912-.0348-4.4478.1135-1.3711,3.5852-1.8309,4.4899-.5394.56.7994.6107,2.5999.6857,3.6153.158,2.1382.0952,4.3789.1429,6.6772.0315,1.5189.0154.1409.0575.8979.9078-.028,3.8755-.0987,4.6893-.2944-.0421-1.4089-.0799-3.9086-.1262-5.3832-.0698-2.2227.1036-4.7228-.5468-6.8131ZM351.3701,582.2333h-4.978l-.523.4088-4.3048,5.8173c-.4252-3.9412.1421-7.9693-.3264-11.9062l-.1952-.2501h-4.1606c-.2121.1302-.2309.2941-.2305.5114.0043,2.2198.1367,4.5254.1623,6.673.0449,3.7732-.026,7.5086.1486,11.2675.0452.9724.0298,1.7607.0579,3.0225l4.6542.028c0-.3715.049-.2993.0444-.5165-.0444-2.105-.1285-3.3036-.1398-4.7354-.0037-.4662.2032-1.3337.8016-1.2925l.4438.1664,4.1619,6.2245h5.2751l-5.764-8.6953,4.8724-6.7233ZM455.2272,591.0746l-10.5485-.0295c-.659,3.6277,3.5038,4.4167,6.2863,3.8999,1.4316-.2659,2.7256-.9487,4.0144-1.5349.1229.6798.0708,1.6985-.1769,3.7864-1.0262.4601-2.4601.7892-2.9183.8894-6.7967,1.4852-13.0124-1.6129-11.8734-9.3469.8474-5.7542,6.8843-8.4058,11.91-5.9385,2.9423,1.4445,3.8681,5.3315,3.3063,8.2741ZM450.6387,587.6537c-.0258-1.8839-1.8578-2.9929-3.6119-2.7155-.6719.1063-1.5568.6002-1.9573,1.1595-.2781.3885-.8533,1.8247-.3906,2.1494.2427.1703,3.607.0443,4.2503.0585.7177.0159,1.7266.5977,1.7095-.6519ZM307.0444,588.5782c.1565.6023.4734,3.3742.3998,3.8158l-10.469.7266c-.5421.3802.3403,2.0338.689,2.4442,1.592,1.8738,5.1041,1.4807,7.1479.6312.9052-.3762,1.4265-.6267,2.4238-1.3611.012.8746.0295,3.3945-.0633,3.8645-.082.4149-3.4719,1.1757-4.0656,1.2809-6.6501,1.1783-11.683-2.0983-11.0242-9.2199.7256-7.8436,12.9962-9.7456,14.9615-2.1821ZM302.764,589.7711c-.0682-3.4957-4.8337-4.0937-5.9359-.9479-.6935,1.9794.1088,1.4504,1.4205,1.4173.7042-.0177,3.5039-.0544,4.5153-.4694ZM363.2969,582.3465l-2.7153,9.2272c-.2592.2628-.5027-.5753-.5562-.7036-1.1429-2.7418-1.9174-5.6707-2.9746-8.4483-.0558-.1599-.4416-.485-.5541-.485h-4.3836l5.7686,14.939-2.0536,6.1133h4.9036l7.4298-21.2006h-4.3836c-.0511,0-.4451.4205-.4809.558ZM267.0771,585.7352c.7289-.111,4.2687-.2734,5.5166-.4096l-.2671-3.6206-16.7225.8289-.429.005.0575,3.3221c.0242.1768-.0189.4419.0967.4419.2243,0,2.8806-.069,3.4066-.0841.3435-.0099,2.0888-.0701,2.6019-.0446l1.071,16.7409.6183-.0732,3.867-.2969.4142-.0294-.7139-16.5776c-.0641-.1958.2543-.1681.4826-.2028ZM395.9503,587.9395c-1.2211-.4-5.8384-.7203-4.527-2.7352.7799-1.1984,3.5592-.819,4.7533-.4556.9904.3014,1.8003.9516,2.744,1.3393v-3.6323c-4.0168-2.4738-13.3765-1.4917-12.4434,4.8537.5375,3.6548,5.078,3.7244,7.8254,4.6461.8105.4808.6125,1.8486-.3123,2.1859-1.3804.5034-3.4031.262-4.7692-.2294-.9602-.3453-1.8173-1.1022-2.7826-1.3008v3.6323c2.4384,1.4932,6.1953,1.738,8.9478.9215,2.7703-.8218,4.9351-3.3089,4.0269-6.3054-.5038-1.6623-1.9133-2.4124-3.463-2.9201ZM471.6494,595.1265l.3983-16.5907-.3964-.0159-4.3932-.0833-.7026,20.362,13.47.4549c.0197-1.019.1612-3.0007.0432-3.5905-.7854-.225-7.7143-.3067-8.4193-.5366ZM415.564,581.8975l-.0006-.1831v-3.8547c0-.0256-.2292-.2615-.2994-.2943-.257-.1199-3.5219-.1519-3.9355-.0763-.1664.0304-.278.0754-.3715.2223v3.2617c0,.139-.0086.7562-.1138.8613l-1.8084.1577-.0096.1671v2.891l1.7759.1382c.2947.9705.1561,4.6903.1619,5.1187.0477,3.5187-.5106,6.819,4.0959,7.3291,1.5021.1664,3.7571.1193,5.1108-.5032v-3.0392c-1.0967.3713-2.8014.5908-3.9409.0031-.665-.343-.6656-.9687-.6656-1.1151v-7.7834c-.0204-.1046.3223-.1483.3715-.1483h4.235v-2.891l-.2229-.2224-4.3829-.0392ZM533.3342,587.7417l.0063-.183.1462-3.8519c.0009-.0256-.2192-.27-.2881-.3054-.2523-.1295-3.5135-.2853-3.9297-.2255-.1675.0241-.2806.0648-.3797.2081l-.1237,3.2593c-.0053.139-.0373.7553-.1464.8564l-1.8131.089-.0159.1666-.1097,2.8889,1.7695.2055c.2577.9809-.0219,4.6929-.0323,5.1212-.0858,3.5179-.7689,6.7948,3.815,7.4792,1.4947.2232,3.7499.2617,5.1263-.309l.1153-3.037c-1.11.3294-2.8218.4841-3.9382-.1464-.6515-.368-.6284-.9932-.6228-1.1395l.2952-7.7778c-.0164-.1053.3278-.1359.3768-.1341l4.2319.1606.1097-2.8889-.2143-.2307-4.3784-.2055ZM382.9427,581.6441c-.4079-.0779-3.6716-.049-3.9316.0725-.0685.032-.2856.245-.2994.2943v14.8256l.2229.2224h4.3093l.2229-.2224v-14.8256c0-.1109-.361-.3357-.524-.3668ZM487.7008,584.3089c-.8197-.072-3.0358-.1895-3.7631-.0994-.1769,1.6631-.7786,12.5269-.9201,15.3932l4.5649.1062.7916-15.1532c-.0416-.1777-.5063-.2322-.6734-.2469ZM487.9011,581.7678c.1885,0,.2128-.4308.2364-.6153l.0817-2.7385c-.1418-.2467-.3348-.2701-.5906-.3033-.6703-.087-1.9456-.1267-2.6739-.1478-.3875-.0113-1.1583-.0536-1.4691.1428-.0432,1.0435-.3077,3.2644-.0786,3.4019.9612.0046,3.1848.2603,4.4941.2603ZM523.4949,587.0387c-.4041-.0958-3.6658-.2112-3.931-.1013-.0698.0289-.2961.2321-.3121.2808l-.6552,14.8111.2128.232,4.3051.1905.2325-.2123.6552-14.8111c.0049-.1108-.3457-.3513-.5072-.3896ZM520.1495,580.6027l-.239.3605-.1344,3.0362,4.7504.2101.1409-3.1844-.2128-.2321-4.3051-.1904Z" style="fill: #00a04a;"/>
</svg>