<?xml version="1.0" encoding="UTF-8"?>
<svg data-name="图层_1" xmlns="http://www.w3.org/2000/svg" xmlns:xlink="http://www.w3.org/1999/xlink" version="1.1" viewBox="0 0 800 800">
  <!-- Created by @FCLOGO 2024-12-10 GMT+8 17:23:24 . https://fclogo.top/ -->
<!-- FOR PERSONAL USE ONLY NOT FOR COMMERCIAL USE -->
  <defs>
    <linearGradient id="_未命名的渐变_35" data-name="未命名的渐变 35" x1="402.2011" y1="131.5731" x2="380.1946" y2="119.4252" gradientUnits="userSpaceOnUse">
      <stop offset=".15" stop-color="#fff" stop-opacity=".15"/>
      <stop offset=".4863" stop-color="#fff" stop-opacity="0"/>
    </linearGradient>
    <linearGradient id="_未命名的渐变_37" data-name="未命名的渐变 37" x1="378.0213" y1="142.9166" x2="389.4211" y2="129.8231" gradientUnits="userSpaceOnUse">
      <stop offset=".15" stop-color="#fff" stop-opacity=".15"/>
      <stop offset=".8331" stop-color="#fff" stop-opacity="0"/>
    </linearGradient>
    <linearGradient id="_未命名的渐变_371" data-name="未命名的渐变 37" x1="377.826" y1="155.464" x2="377.2873" y2="141.2125" xlink:href="#_未命名的渐变_37"/>
    <linearGradient id="_未命名的渐变_38" data-name="未命名的渐变 38" x1="382.9229" y1="165.8655" x2="394.0388" y2="173.5562" gradientUnits="userSpaceOnUse">
      <stop offset=".1631" stop-color="#fff" stop-opacity=".15"/>
      <stop offset=".8331" stop-color="#fff" stop-opacity="0"/>
    </linearGradient>
    <linearGradient id="_未命名的渐变_381" data-name="未命名的渐变 38" x1="410.9638" y1="166.6513" x2="390.9314" y2="181.4832" xlink:href="#_未命名的渐变_38"/>
    <linearGradient id="_未命名的渐变_39" data-name="未命名的渐变 39" x1="416.9758" y1="161.9078" x2="406.2515" y2="170.2978" gradientUnits="userSpaceOnUse">
      <stop offset=".1631" stop-color="#fff" stop-opacity=".15"/>
      <stop offset=".4963" stop-color="#fff" stop-opacity="0"/>
    </linearGradient>
    <linearGradient id="_未命名的渐变_40" data-name="未命名的渐变 40" x1="418.233" y1="140.3587" x2="415.5213" y2="157.4386" gradientUnits="userSpaceOnUse">
      <stop offset=".1631" stop-color="#fff" stop-opacity=".15"/>
      <stop offset=".6884" stop-color="#fff" stop-opacity="0"/>
    </linearGradient>
    <linearGradient id="_未命名的渐变_43" data-name="未命名的渐变 43" x1="417.7215" y1="143.7067" x2="415.2988" y2="132.5944" gradientUnits="userSpaceOnUse">
      <stop offset=".1631" stop-color="#fff" stop-opacity=".15"/>
      <stop offset=".5845" stop-color="#fff" stop-opacity="0"/>
    </linearGradient>
    <linearGradient id="_未命名的渐变_44" data-name="未命名的渐变 44" x1="404.8528" y1="126.0097" x2="396.0538" y2="129.6134" gradientUnits="userSpaceOnUse">
      <stop offset=".2159" stop-color="#fff" stop-opacity=".15"/>
      <stop offset="1" stop-color="#fff" stop-opacity="0"/>
    </linearGradient>
    <linearGradient id="_未命名的渐变_45" data-name="未命名的渐变 45" x1="388.6031" y1="168.6087" x2="377.6332" y2="164.7162" gradientUnits="userSpaceOnUse">
      <stop offset=".1556" stop-color="#fff" stop-opacity=".15"/>
      <stop offset=".6647" stop-color="#fff" stop-opacity="0"/>
    </linearGradient>
  </defs>
  <path d="M348.2194,774.301c-.786,0-1.3752-.2173-1.7682-.6519-.393-.4352-.5284-1.03-.406-1.7856l.2518-1.6478c.122-.755.4501-1.3504.9841-1.785.5339-.4352,1.1939-.6525,1.9799-.6525.7553,0,1.3293.1987,1.7223.5954.3927.3967.551.9381.4747,1.6248h-1.2358c.0304-.3589-.0553-.637-.2573-.8357-.2024-.1981-.4979-.2974-.8869-.2974-.4197,0-.763.1167-1.03.3489-.2673.2328-.4349.5631-.5035.9903l-.2632,1.659c-.0686.4352-.0056.7686.1887,1.0015.1946.2328.5017.3489.9214.3489.389,0,.7152-.0987.9785-.2974.2632-.1981.4365-.4805.5206-.8469h1.2358c-.1372.6867-.4672,1.2306-.9897,1.631-.5228.4005-1.1616.6004-1.9169.6004ZM352.7967,774.1868l.9956-6.2943h1.1902l-.1946,1.1902c.3359-.8698.9729-1.3044,1.9113-1.3044.6712,0,1.1691.208,1.4932.624.3244.416.4293.9859.3148,1.7105l-.0686.4234h-1.2703l.0571-.3204c.0689-.4501.0115-.7953-.1714-1.0356-.1832-.2403-.4771-.3607-.8813-.3607-.4045,0-.7401.1223-1.007.3663-.2673.2446-.4349.588-.5035,1.03l-.6296,3.9711h-1.2358ZM361.9058,774.301c-.7705,0-1.3463-.2229-1.7279-.6693s-.515-1.0356-.4005-1.7682l.2518-1.6478c.0838-.488.2573-.9152.5206-1.2815s.6007-.6507,1.0129-.8524c.4119-.2024.8732-.3036,1.3845-.3036.7705,0,1.3485.2235,1.7338.6693.3852.4464.5169,1.0356.3949,1.7682l-.1717,1.1213h-3.845l-.0916.5265c-.1527.9536.2173,1.4305,1.1098,1.4305.7171,0,1.175-.2477,1.3734-.7438h1.2247c-.1679.5339-.5035.9599-1.007,1.2759-.5038.3166-1.0912.475-1.7626.475ZM361.2306,770.2157l-.0456.2862,2.6548-.0118.0459-.2856c.0686-.4656.0133-.822-.1661-1.0704-.1791-.2477-.4861-.3719-.9211-.3719-.4427,0-.7953.126-1.0586.3775-.2632.2521-.4331.6109-.5094,1.076ZM368.3258,774.301c-.6333,0-1.1027-.2117-1.4078-.6351s-.3967-1.0008-.2744-1.7335l.2744-1.7738c.1145-.7326.393-1.3119.8357-1.7397.4424-.4272.98-.6407,1.6133-.6407.4653,0,.8298.1186,1.093.3545.2632.2365.3908.5575.3834.9617h.023l.1717-1.202h1.2358l-.9956,6.2943h-1.2247l.1946-1.2014h-.023c-.122.4116-.3511.7339-.6867.9667s-.7401.3489-1.2129.3489ZM368.9324,773.2257c.389,0,.7152-.1186.9782-.3551.2632-.2359.4293-.5718.4979-1.007l.2518-1.6478c.0686-.4272.0096-.7612-.1773-1.0015-.1872-.2403-.475-.3601-.8642-.3601-.3967,0-.7249.118-.9841.3545-.2595.2365-.4234.5724-.492,1.007l-.2518,1.6478c-.0686.4427-.0133.7804.1658,1.0133.1794.2328.4712.3489.8757.3489ZM376.3477,774.1868c-.5721,0-.9937-.1565-1.2644-.4694-.271-.3123-.3607-.7512-.2691-1.3156l.538-3.3874h-1.7394l.1714-1.1219h1.7397l.2747-1.7161h1.2358l-.2747,1.7161h2.472l-.1832,1.1219h-2.4605l-.5377,3.3874c-.0764.4421.099.6637.5262.6637h1.7167l-.1717,1.1213h-1.7738ZM382.5042,774.301c-.7705,0-1.3463-.2229-1.7279-.6693s-.515-1.0356-.4005-1.7682l.2518-1.6478c.0838-.488.2573-.9152.5206-1.2815s.6007-.6507,1.0129-.8524c.4119-.2024.8732-.3036,1.3845-.3036.7705,0,1.3485.2235,1.7338.6693.3852.4464.5169,1.0356.3949,1.7682l-.1717,1.1213h-3.845l-.0916.5265c-.1527.9536.2173,1.4305,1.1098,1.4305.7171,0,1.175-.2477,1.3734-.7438h1.2247c-.1679.5339-.5035.9599-1.007,1.2759-.5038.3166-1.0912.475-1.7626.475ZM381.829,770.2157l-.0456.2862,2.6548-.0118.0459-.2856c.0686-.4656.0133-.822-.1661-1.0704-.1791-.2477-.4861-.3719-.9211-.3719-.4427,0-.7953.126-1.0586.3775-.2632.2521-.4331.6109-.5094,1.076ZM388.9243,774.301c-.6333,0-1.1008-.2117-1.4019-.6351-.3014-.4234-.3949-1.0008-.2803-1.7335l.2744-1.7738c.1145-.7326.393-1.3119.8357-1.7397.4424-.4272.98-.6407,1.6133-.6407.4653,0,.8298.1186,1.093.3545.2632.2365.3908.5575.3834.9617h.023l.2058-1.4652.2977-1.7962h1.2358l-1.3274,8.3537h-1.2247l.1946-1.2014h-.023c-.122.4116-.3511.7339-.6867.9667s-.7401.3489-1.2129.3489ZM389.5309,773.2257c.389,0,.7152-.1186.9782-.3551.2632-.2359.4293-.5718.4979-1.007l.2518-1.6478c.0761-.4272.0189-.7612-.1717-1.0015-.1909-.2403-.4805-.3601-.8698-.3601-.3967,0-.7249.118-.9841.3545-.2595.2365-.4234.5724-.492,1.007l-.2518,1.6478c-.0764.4427-.023.7804.1602,1.0133s.4768.3489.8813.3489ZM401.0175,774.301c-.4731,0-.8394-.1161-1.0986-.3489-.2595-.2328-.3852-.5551-.3775-.9667h-.0115l-.1946,1.2014h-1.2243l1.3274-8.3537h1.2358l-.2862,1.7962-.2744,1.4652h.0456c.122-.4123.353-.7345.6923-.9673.3396-.2322.7419-.3489,1.2076-.3489.633,0,1.1002.2136,1.4016.6407.3014.4278.3949,1.007.2806,1.7397l-.2747,1.7738c-.1145.7326-.3949,1.31-.8413,1.7335-.4461.4234-.9822.6351-1.6077.6351ZM400.7657,773.2257c.3967,0,.7227-.1161.9785-.3489.2555-.2328.4216-.5706.4976-1.0133l.2518-1.6478c.0689-.4346.0115-.7705-.1714-1.007-.1832-.2365-.4734-.3545-.8698-.3545-.3893,0-.7152.1198-.9785.3601s-.429.5743-.4979,1.0015l-.2518,1.6478c-.0686.4352-.0112.7711.1717,1.007.1832.2365.4731.3551.8698.3551ZM405.4694,776.2468l.1717-1.0642h1.934c.6407,0,1.007-.3017,1.0986-.9046l.1028-.6749.2061-1.1902h-.0345c-.122.4197-.3471.7438-.6752.9729-.3281.2285-.7286.3433-1.2014.3433-.6258,0-1.093-.2005-1.4019-.601s-.4104-.9443-.3033-1.631l.5836-3.6047h1.2358l-.5606,3.4793c-.0612.4116,0,.732.1832.9611s.4653.3433.8469.3433c.389,0,.7168-.1217.9841-.3663.267-.244.4309-.5836.492-1.0182l.538-3.3992h1.2358l-1.007,6.4086c-.0993.6029-.37,1.0778-.8124,1.4249-.4427.3471-.9996.5209-1.6707.5209h-1.9455ZM417.787,770.0853h3.221l.5368-1.8545h-5.4659l-1.7081,6.4419h2.1473l.5856-2.0985h3.0257l.4392-1.7081h-3.0257l.244-.7808ZM424.229,772.9158c-.5856,0-1.0249-.3904-1.0249-1.1225,0-.8784.6344-1.7569,1.6105-1.7569.488,0,.8784.244,1.0248.7808l1.9521-.8296c-.2928-1.1713-1.2689-1.9033-2.6353-1.9033-2.7817,0-4.1482,2.1473-4.1482,3.9042s1.2689,2.8305,3.0746,2.8305c1.3665,0,2.3425-.5856,2.9769-1.4153l-1.5129-1.1713c-.3904.4392-.8296.6832-1.3177.6832ZM430.9149,768.2308h-2.1473l-1.7569,6.4419h5.1242l.488-1.8545h-2.9281l1.2201-4.5874ZM439.7481,771.0125c0-1.6593-1.3177-2.9281-3.221-2.9281-2.1961,0-3.8066,1.8057-3.8066,3.8066,0,1.6593,1.3177,2.9281,3.221,2.9281,2.1961,0,3.8066-1.8057,3.8066-3.8066ZM434.9167,771.6957c0-.8296.5856-1.7081,1.5129-1.7081.7808,0,1.1713.5368,1.1713,1.2201,0,.8296-.5856,1.7081-1.5129,1.7081-.7808,0-1.1713-.5368-1.1713-1.2201ZM443.2131,772.2326h1.0737l-.1952.6832c-.1464.0488-.3416.0976-.5856.0976-.6832,0-1.2689-.3904-1.2689-1.2201,0-1.0249.732-1.9033,1.9521-1.9033.5856,0,1.1225.244,1.5129.5856l1.3665-1.3665c-.4392-.5368-1.5129-1.0737-2.7329-1.0737-2.5865,0-4.2946,1.7569-4.2946,3.8554,0,2.0497,1.6105,2.8793,3.221,2.8793.9272,0,1.8545-.2928,2.4889-.6832l.9272-3.3186h-3.1234l-.3416,1.4641ZM450.7775,768.0844c-2.1961,0-3.8066,1.8057-3.8066,3.8066,0,1.6593,1.3177,2.9281,3.221,2.9281,2.1961,0,3.8066-1.8057,3.8066-3.8066,0-1.6593-1.3177-2.9281-3.221-2.9281ZM450.3382,772.9158c-.7808,0-1.1713-.5368-1.1713-1.2201,0-.8296.5856-1.7081,1.5129-1.7081.7808,0,1.1713.5368,1.1713,1.2201,0,.8296-.5856,1.7081-1.5129,1.7081ZM437.9424,767.4987c-.0488.2928.0976.488.4392.488s.5368-.1952.6344-.488c.0488-.244-.0976-.488-.4392-.488s-.5856.244-.6344.488ZM432.1349,765.4978c-.4392,0-.732.244-.7808.5856s.0976.5856.5368.5856.732-.244.7808-.5856c.0976-.3416-.0976-.5856-.5368-.5856ZM433.0134,767.3035c-.0976.5368.1464.8784.8296.8784.6344,0,1.0737-.3904,1.1713-.8784s-.1464-.8784-.8296-.8784c-.6832,0-1.0737.3904-1.1713.8784ZM439.6017,777.552l-2.4401-1.8057h-1.5129l4.2458,3.1722,1.6105-3.1722h-.976l-.9272,1.8057ZM425.8394,767.1571l-2.0009-1.4641,23.1323-2.7817-2.1473,4.2458h1.0248l2.6841-5.3195-26.9877,3.221,2.7817,2.0985h1.5129ZM338.7186,785.7853l.6088-3.8315h2.32l-.084.5194h-1.7636l-.1837,1.1445h1.6272l-.084.5248h-1.6166l-.2573,1.6428h-.5668ZM342.97,785.8377c-.3568,0-.6228-.1005-.7978-.3019-.175-.201-.2345-.473-.1784-.8161l.2677-1.7006c.056-.3429.2029-.6148.4408-.8161.2379-.201.5355-.3019.8923-.3019s.6228.1.7979.2993c.1748.1993.2361.4707.1837.8136l-.2677,1.7057c-.0561.3431-.2039.6151-.4435.8161-.2398.2013-.5381.3019-.895.3019ZM343.0487,785.3339c.1925,0,.3483-.0524.4672-.1575.119-.1051.1942-.2571.2257-.4568l.2678-1.7006c.0315-.1993.0051-.3517-.0787-.4565-.084-.1051-.2223-.1575-.4148-.1575s-.3473.0524-.4645.1575c-.1173.1048-.1916.2571-.2231.4565l-.2677,1.7006c-.0315.1996-.0053.3517.0787.4568s.2204.1575.4094.1575ZM344.9961,785.7853l.6088-3.8315h1.202c.2379,0,.4391.0464.6036.139.1645.0928.2835.223.357.391s.091.3656.0524.5932c-.0384.2591-.14.4838-.3044.6746-.1645.1905-.3656.3209-.6036.391l.5354,1.6428h-.6194l-.4777-1.5748h-.5406l-.2466,1.5748h-.5668ZM345.8883,783.7068h.6352c.1889,0,.349-.0558.4803-.168.1313-.1119.2107-.2623.2388-.4514.0316-.1925,0-.3454-.0944-.4593-.0945-.1136-.2362-.1706-.4252-.1706h-.6352l-.1995,1.2493ZM349.545,785.7853l.6088-3.8315h1.2544c.3709,0,.6508.1048.8399.315.1889.2099.2553.4898.1993.8398-.0384.2344-.1216.4383-.2493.6114s-.2905.307-.4881.4015c-.1978.0945-.419.1418-.6639.1418h-.6928l-.2415,1.5221h-.5668ZM350.432,783.754h.6928c.1924,0,.3568-.0587.4934-.176.1364-.117.2204-.2737.2519-.4696s-.0017-.3525-.0997-.4699-.245-.1757-.441-.1757h-.6876l-.2099,1.2911ZM352.7466,785.7853l.6088-3.8315h2.2518l-.0787.5038h-1.6954l-.1731,1.0867h1.5115l-.0787.4986h-1.5115l-.1942,1.2387h1.6901l-.0787.5038h-2.2518ZM355.8434,785.7853l.6088-3.8315h1.202c.2379,0,.4391.0464.6036.139.1645.0928.2835.223.357.391s.091.3656.0524.5932c-.0384.2591-.14.4838-.3044.6746-.1645.1905-.3656.3209-.6036.391l.5354,1.6428h-.6194l-.4777-1.5748h-.5406l-.2466,1.5748h-.5668ZM356.7356,783.7068h.6352c.1889,0,.349-.0558.4803-.168.1313-.1119.2107-.2623.2388-.4514.0316-.1925,0-.3454-.0944-.4593-.0945-.1136-.2362-.1706-.4252-.1706h-.6352l-.1995,1.2493ZM360.1316,785.8377c-.385,0-.6736-.0951-.8661-.2859-.1924-.1908-.2641-.4505-.2151-.7794h.5668c-.028.1748.0105.3121.1155.4121.1051.0997.266.1495.483.1495.2029,0,.3701-.049.5012-.1469.1313-.098.2109-.2327.2389-.4044.0209-.1504.0007-.2788-.0604-.3856-.0614-.1068-.1583-.1811-.2913-.2233l-.4566-.1364c-.266-.0803-.4619-.217-.5879-.4095-.126-.1922-.1697-.4197-.1313-.6823.035-.2099.1121-.3935.2309-.551s.2729-.2799.4619-.3673.4024-.1313.6404-.1313c.3498,0,.6158.0954.7978.2859.182.1908.2485.4437.1995.7586h-.5668c.0279-.168-.0027-.3001-.092-.3964-.0891-.0963-.2301-.1444-.4225-.1444-.1889,0-.343.0447-.4619.1338-.119.0894-.1889.2144-.21.3753-.0245.1506-.007.2791.0525.3859s.1575.1811.2939.223l.4672.1469c.2624.0806.4558.2173.5801.4095.1242.1925.1653.4217.1233.6877-.035.217-.1155.4058-.2415.5667-.1259.1612-.2878.2862-.4855.3753-.1976.0894-.419.1338-.6639.1338ZM363.2651,785.8377c-.3568,0-.6228-.1005-.7978-.3019-.175-.201-.2345-.473-.1784-.8161l.2677-1.7006c.056-.3429.2029-.6148.4408-.8161.2379-.201.5355-.3019.8923-.3019s.6228.1.7979.2993c.1748.1993.2361.4707.1837.8136l-.2677,1.7057c-.0561.3431-.2039.6151-.4435.8161-.2398.2013-.5381.3019-.895.3019ZM363.3439,785.3339c.1925,0,.3483-.0524.4672-.1575.119-.1051.1942-.2571.2257-.4568l.2678-1.7006c.0315-.1993.0051-.3517-.0787-.4565-.084-.1051-.2223-.1575-.4148-.1575s-.3473.0524-.4645.1575c-.1173.1048-.1916.2571-.2231.4565l-.2677,1.7006c-.0315.1996-.0053.3517.0787.4568s.2204.1575.4094.1575ZM365.2754,785.7853l.6088-3.8315h.7086l.6194,3.186c.007-.098.0165-.217.0289-.3571.0121-.1398.0271-.2851.0446-.4354.0175-.1506.0367-.2888.0577-.4146l.315-1.9788h.525l-.609,3.8315h-.7085l-.6141-3.186c-.0071.0945-.0167.209-.0289.3437s-.0272.2757-.0446.4226c-.0177.1469-.0367.2833-.0578.4095l-.315,2.0102h-.5301ZM368.2252,785.7853l1.5851-3.8315h.7454l.3726,3.8315h-.5616l-.0735-.9711h-1.0865l-.3884.9711h-.5932ZM369.3852,784.3418h.8714l-.0893-1.1023c-.0175-.1959-.0298-.3654-.0367-.5089-.0071-.1435-.0105-.2432-.0105-.2993-.0175.0561-.0517.1558-.1024.2993s-.1146.3112-.1915.5038l-.441,1.1075ZM371.7208,785.7853l.6088-3.8315h.567l-.525,3.3118h1.6744l-.0787.5197h-2.2465ZM376.6785,785.8377c-.3673,0-.6342-.1005-.8003-.3019-.1663-.201-.2214-.475-.1654-.8213l.4357-2.7608h.567l-.4357,2.7554c-.0315.1962-.008.35.0708.4619.0787.1122.2144.168.4068.168.1925,0,.3473-.0558.4646-.168.1172-.1119.1915-.2657.2231-.4619l.4355-2.7554h.567l-.4357,2.7608c-.056.35-.2003.6245-.433.8241-.2328.1993-.5328.299-.9003.299ZM379.8435,785.8377c-.385,0-.6736-.0951-.8661-.2859-.1924-.1908-.2641-.4505-.2151-.7794h.5668c-.028.1748.0105.3121.1155.4121.1051.0997.266.1495.483.1495.2029,0,.3701-.049.5012-.1469.1313-.098.2109-.2327.2389-.4044.0209-.1504.0007-.2788-.0604-.3856-.0614-.1068-.1583-.1811-.2913-.2233l-.4566-.1364c-.266-.0803-.4619-.217-.5879-.4095-.126-.1922-.1697-.4197-.1313-.6823.035-.2099.1121-.3935.2309-.551s.2729-.2799.4619-.3673.4024-.1313.6404-.1313c.3498,0,.6158.0954.7978.2859.182.1908.2485.4437.1995.7586h-.5668c.0279-.168-.0027-.3001-.092-.3964-.0891-.0963-.2301-.1444-.4225-.1444-.1889,0-.343.0447-.4619.1338-.119.0894-.1889.2144-.21.3753-.0245.1506-.007.2791.0525.3859s.1575.1811.2939.223l.4672.1469c.2624.0806.4558.2173.5801.4095.1242.1925.1653.4217.1233.6877-.035.217-.1155.4058-.2415.5667-.1259.1612-.2878.2862-.4855.3753-.1976.0894-.419.1338-.6639.1338ZM381.9062,785.7853l.6088-3.8315h2.2518l-.0787.5038h-1.6954l-.1731,1.0867h1.5115l-.0787.4986h-1.5115l-.1942,1.2387h1.6901l-.0787.5038h-2.2518ZM386.9426,785.8377c-.3568,0-.6228-.1005-.7978-.3019-.175-.201-.2345-.473-.1784-.8161l.2677-1.7006c.056-.3429.2029-.6148.4408-.8161.2379-.201.5355-.3019.8923-.3019s.6228.1.7979.2993c.1748.1993.2361.4707.1837.8136l-.2677,1.7057c-.0561.3431-.2039.6151-.4435.8161-.2398.2013-.5381.3019-.895.3019ZM387.0213,785.3339c.1925,0,.3483-.0524.4672-.1575.119-.1051.1942-.2571.2257-.4568l.2678-1.7006c.0315-.1993.0051-.3517-.0787-.4565-.084-.1051-.2223-.1575-.4148-.1575s-.3473.0524-.4645.1575c-.1173.1048-.1916.2571-.2231.4565l-.2677,1.7006c-.0315.1996-.0053.3517.0787.4568s.2204.1575.4094.1575ZM388.9529,785.7853l.6088-3.8315h.7086l.6194,3.186c.007-.098.0165-.217.0289-.3571.0121-.1398.0271-.2851.0446-.4354.0175-.1506.0367-.2888.0577-.4146l.315-1.9788h.525l-.609,3.8315h-.7085l-.6141-3.186c-.0071.0945-.0167.209-.0289.3437s-.0272.2757-.0446.4226c-.0177.1469-.0367.2833-.0578.4095l-.315,2.0102h-.5301ZM392.249,785.7853l.6088-3.8315h.567l-.525,3.3118h1.6744l-.0787.5197h-2.2465ZM396.1174,785.7853l.2204-1.4119-.7506-2.4197h.5774l.4462,1.4486c.0279.0945.0498.1837.0656.2677.0157.084.0253.1469.0288.1888.0175-.0419.0464-.1048.0867-.1888.0402-.084.0883-.1731.1442-.2677l.8976-1.4486h.5984l-1.5275,2.4197-.2204,1.4119h-.5668ZM399.217,785.7853l.6088-3.8315h.7086l.6192,3.186c.0071-.098.0165-.217.029-.3571.012-.1398.0271-.2851.0444-.4354.0177-.1506.037-.2888.0578-.4146l.315-1.9788h.5248l-.6088,3.8315h-.7085l-.6141-3.186c-.0071.0945-.0167.209-.0289.3437s-.0272.2757-.0446.4226c-.0177.1469-.0367.2833-.0578.4095l-.315,2.0102h-.5301ZM403.5053,785.8377c-.3571,0-.6231-.1005-.7979-.3019-.1751-.201-.2344-.473-.1785-.8161l.2677-1.7006c.0561-.3429.203-.6148.4411-.8161.2378-.201.5354-.3019.8922-.3019.3571,0,.6228.1.7979.2993.1748.1993.2361.4707.1837.8136l-.2677,1.7057c-.0561.3431-.2039.6151-.4437.8161-.2395.2013-.5379.3019-.8947.3019ZM403.5839,785.3339c.1925,0,.3483-.0524.4673-.1575.1187-.1051.1942-.2571.2255-.4568l.2677-1.7006c.0316-.1993.0054-.3517-.0786-.4565-.084-.1051-.2224-.1575-.4146-.1575-.1925,0-.3474.0524-.4647.1575-.117.1048-.1914.2571-.223.4565l-.2677,1.7006c-.0316.1996-.0051.3517.0789.4568.0837.1051.2204.1575.4092.1575ZM406.3814,785.7853l.5248-3.3121h-1.0234l.084-.5194h2.6193l-.084.5194h-1.0289l-.5248,3.3121h-.567ZM409.5178,785.7853l.6088-3.8315h2.32l-.084.5194h-1.7636l-.1837,1.1445h1.6272l-.084.5248h-1.6166l-.2571,1.6428h-.567ZM413.7694,785.8377c-.3571,0-.6231-.1005-.7979-.3019-.1751-.201-.2344-.473-.1785-.8161l.2677-1.7006c.0561-.3429.203-.6148.4411-.8161.2378-.201.5354-.3019.8922-.3019.3571,0,.6228.1.7979.2993.1748.1993.2361.4707.1837.8136l-.2677,1.7057c-.0561.3431-.2039.6151-.4437.8161-.2395.2013-.5379.3019-.8947.3019ZM413.848,785.3339c.1925,0,.3483-.0524.4673-.1575.1187-.1051.1942-.2571.2255-.4568l.2677-1.7006c.0316-.1993.0054-.3517-.0786-.4565-.084-.1051-.2224-.1575-.4146-.1575-.1925,0-.3474.0524-.4647.1575-.117.1048-.1914.2571-.223.4565l-.2677,1.7006c-.0316.1996-.0051.3517.0789.4568.0837.1051.2204.1575.4092.1575ZM415.7952,785.7853l.6088-3.8315h1.202c.2381,0,.4391.0464.6037.139.1643.0928.2833.223.3568.391s.0911.3656.0527.5932c-.0387.2591-.1401.4838-.3044.6746-.1646.1905-.3659.3209-.6037.391l.5354,1.6428h-.6194l-.4776-1.5748h-.5408l-.2466,1.5748h-.567ZM416.6876,783.7068h.635c.1891,0,.3491-.0558.4804-.168.131-.1119.2107-.2623.2386-.4514.0316-.1925,0-.3454-.0945-.4593-.0943-.1136-.2361-.1706-.4252-.1706h-.635l-.1993,1.2493ZM420.905,785.8377c-.3602,0-.6308-.1005-.8107-.3019-.1803-.201-.2423-.473-.1865-.8161l.2677-1.7006c.0561-.3463.2056-.6194.4488-.8187s.545-.2993.9056-.2993c.3568,0,.6253.1008.8056.3019.1803.2013.2423.4733.1865.8161h-.567c.0313-.1993.0026-.3517-.0866-.4565-.0894-.1051-.2284-.1575-.4175-.1575-.1925,0-.3508.0524-.475.1575-.1242.1048-.2019.2554-.2335.4514l-.2677,1.7057c-.0316.1996-.0026.3517.0866.4568.0894.1051.2301.1575.4226.1575s.35-.0524.4724-.1575.1993-.2571.2309-.4568h.5667c-.0347.2275-.1145.4252-.2386.5932s-.2808.2976-.4699.3884c-.1888.0908-.4024.1364-.6404.1364ZM424.0335,785.8377c-.3571,0-.6231-.1005-.7979-.3019-.1751-.201-.2344-.473-.1785-.8161l.2677-1.7006c.0561-.3429.203-.6148.4411-.8161.2378-.201.5354-.3019.8922-.3019.3571,0,.6228.1.7979.2993.1748.1993.2361.4707.1837.8136l-.2677,1.7057c-.0561.3431-.2039.6151-.4437.8161-.2395.2013-.5379.3019-.8947.3019ZM424.1121,785.3339c.1925,0,.3483-.0524.4673-.1575.1187-.1051.1942-.2571.2255-.4568l.2677-1.7006c.0316-.1993.0054-.3517-.0786-.4565-.084-.1051-.2224-.1575-.4146-.1575-.1925,0-.3474.0524-.4647.1575-.117.1048-.1914.2571-.223.4565l-.2677,1.7006c-.0316.1996-.0051.3517.0789.4568.0837.1051.2204.1575.4092.1575ZM425.9653,785.7853l.6088-3.8315h.6874l.1837,1.2282c.0211.119.0367.2301.0473.3332.0105.1034.0194.1828.0262.2389.0177-.0561.0473-.1364.0894-.2415.0419-.1051.0908-.217.1469-.336l.5667-1.2228h.7088l-.6088,3.8315h-.5354l.2045-1.2911c.0245-.168.0578-.3525.1-.5539.0419-.201.0874-.4041.1364-.6088s.0963-.3998.1418-.5852c.0453-.1854.0874-.3483.1259-.4881l-.8554,1.8632h-.5513l-.2833-1.8632c-.0037.1364-.0105.2947-.0211.475s-.0236.3719-.0393.5747c-.0157.203-.035.4069-.0578.6114-.0228.2047-.0481.3964-.076.5749l-.2047,1.2911h-.5405ZM429.1145,785.7853l.6088-3.8315h.6874l.1837,1.2282c.0211.119.0367.2301.0473.3332.0105.1034.0194.1828.0262.2389.0177-.0561.0473-.1364.0894-.2415.0419-.1051.0908-.217.1469-.336l.5667-1.2228h.7088l-.6088,3.8315h-.5354l.2045-1.2911c.0245-.168.0578-.3525.1-.5539.0419-.201.0874-.4041.1364-.6088s.0963-.3998.1418-.5852c.0453-.1854.0874-.3483.1259-.4881l-.8554,1.8632h-.5513l-.2833-1.8632c-.0037.1364-.0105.2947-.0211.475s-.0236.3719-.0393.5747c-.0157.203-.035.4069-.0578.6114-.0228.2047-.0481.3964-.076.5749l-.2047,1.2911h-.5405ZM432.4107,785.7853l.6088-3.8315h2.2516l-.0786.5038h-1.6955l-.1731,1.0867h1.5115l-.0786.4986h-1.5118l-.1942,1.2387h1.6901l-.0786.5038h-2.2516ZM435.5073,785.7853l.6088-3.8315h1.202c.2381,0,.4391.0464.6037.139.1643.0928.2833.223.3568.391s.0911.3656.0527.5932c-.0387.2591-.1401.4838-.3044.6746-.1646.1905-.3659.3209-.6037.391l.5354,1.6428h-.6194l-.4776-1.5748h-.5408l-.2466,1.5748h-.567ZM436.3997,783.7068h.635c.1891,0,.3491-.0558.4804-.168.131-.1119.2107-.2623.2386-.4514.0316-.1925,0-.3454-.0945-.4593-.0943-.1136-.2361-.1706-.4252-.1706h-.635l-.1993,1.2493ZM439.8007,785.8377c-.3602,0-.6308-.1005-.8107-.3019-.1803-.201-.2423-.473-.1865-.8161l.2677-1.7006c.0561-.3463.2056-.6194.4488-.8187s.545-.2993.9056-.2993c.3568,0,.6253.1008.8056.3019.1803.2013.2423.4733.1865.8161h-.567c.0313-.1993.0026-.3517-.0866-.4565-.0894-.1051-.2284-.1575-.4175-.1575-.1925,0-.3508.0524-.475.1575-.1242.1048-.2019.2554-.2335.4514l-.2677,1.7057c-.0316.1996-.0026.3517.0866.4568.0894.1051.2301.1575.4226.1575s.35-.0524.4724-.1575.1993-.2571.2309-.4568h.5667c-.0347.2275-.1145.4252-.2386.5932s-.2808.2976-.4699.3884c-.1888.0908-.4024.1364-.6404.1364ZM441.8792,785.7853l.0789-.5038h.7768l.4459-2.824h-.7766l.0837-.5038h2.1258l-.084.5038h-.7766l-.4462,2.824h.7768l-.0789.5038h-2.1258ZM444.7399,785.7853l1.585-3.8315h.7452l.3728,3.8315h-.5616l-.0735-.9711h-1.0867l-.3884.9711h-.5929ZM445.8998,784.3418h.8714l-.0894-1.1023c-.0174-.1959-.0296-.3654-.0367-.5089-.0068-.1435-.0103-.2432-.0103-.2993-.0177.0561-.0518.1558-.1025.2993s-.1148.3112-.1916.5038l-.4408,1.1075ZM448.2354,785.7853l.6088-3.8315h.567l-.5248,3.3118h1.6741l-.0786.5197h-2.2465ZM453.1932,785.8377c-.3676,0-.6345-.1005-.8005-.3019-.1663-.201-.2213-.475-.1654-.8213l.4357-2.7608h.567l-.4357,2.7554c-.0316.1962-.008.35.0709.4619.0786.1122.2141.168.4066.168s.3474-.0558.4645-.168c.1173-.1119.1916-.2657.2233-.4619l.4357-2.7554h.5667l-.4357,2.7608c-.0558.35-.2002.6245-.4328.8241-.2329.1993-.5328.299-.9001.299ZM456.3581,785.8377c-.385,0-.6738-.0951-.866-.2859-.1925-.1908-.2643-.4505-.2153-.7794h.567c-.0282.1748.0105.3121.1153.4121.1051.0997.266.1495.483.1495.2028,0,.3699-.049.5012-.1469s.2107-.2327.2389-.4044c.0211-.1504.0009-.2788-.0604-.3856s-.1583-.1811-.2913-.2233l-.4568-.1364c-.266-.0803-.4619-.217-.5878-.4095-.1259-.1922-.1697-.4197-.1313-.6823.035-.2099.1119-.3935.2309-.551s.2731-.2799.4619-.3673c.1891-.0874.4024-.1313.6404-.1313.3497,0,.6157.0954.7979.2859.1817.1908.2483.4437.1993.7586h-.567c.0279-.168-.0026-.3001-.0917-.3964-.0894-.0963-.2301-.1444-.4226-.1444-.1891,0-.3429.0447-.4619.1338-.119.0894-.1891.2144-.2099.3753-.0245.1506-.0071.2791.0524.3859s.1575.1811.2939.223l.4673.1469c.2623.0806.4556.2173.5798.4095.1242.1925.1654.4217.1236.6877-.035.217-.1156.4058-.2415.5667-.1262.1612-.2879.2862-.4855.3753-.1979.0894-.4192.1338-.6641.1338ZM458.4209,785.7853l.6088-3.8315h2.2516l-.0786.5038h-1.6955l-.1731,1.0867h1.5115l-.0786.4986h-1.5118l-.1942,1.2387h1.6901l-.0786.5038h-2.2516Z" style="fill: #ccc;"/>
  <g>
    <g>
      <polygon points="397.5076 167.2648 371.1649 186.4262 381.248 155.4517 354.8841 136.3193 387.4586 136.3372 397.5076 105.3516 407.5567 136.3372 440.131 136.3193 413.7672 155.4517 423.8503 186.4262 397.5076 167.2648" style="fill: #00a04a;"/>
      <polygon points="382.1227 155.1674 357.1772 137.0644 387.9992 137.0813 397.5076 107.7626 407.016 137.0813 437.8379 137.0644 412.8924 155.1674 422.4332 184.4757 397.5076 166.3451 372.582 184.4757 382.1227 155.1674" style="fill: #ceac38;"/>
      <g>
        <polygon points="397.5076 107.7626 397.582 150.2429 387.9992 137.0813 397.5076 107.7626" style="fill: url(#_未命名的渐变_35);"/>
        <polygon points="397.582 150.2429 357.1772 137.0644 387.9992 137.0813 397.582 150.2429" style="fill: url(#_未命名的渐变_37);"/>
        <polygon points="397.582 150.2429 382.1227 155.1674 357.1772 137.0644 397.582 150.2429" style="fill: url(#_未命名的渐变_371);"/>
        <polygon points="397.5076 166.3451 397.582 150.2429 372.582 184.4757 397.5076 166.3451" style="fill: url(#_未命名的渐变_38);"/>
        <polygon points="422.4332 184.4757 397.582 150.2429 397.5076 166.3451 422.4332 184.4757" style="fill: url(#_未命名的渐变_381);"/>
        <polygon points="412.8924 155.1674 397.582 150.2429 422.4332 184.4757 412.8924 155.1674" style="fill: url(#_未命名的渐变_39);"/>
        <polygon points="437.8379 137.0644 397.582 150.2429 412.8924 155.1674 437.8379 137.0644" style="fill: url(#_未命名的渐变_40);"/>
        <polygon points="407.016 137.0813 397.582 150.2429 437.8379 137.0644 407.016 137.0813" style="fill: url(#_未命名的渐变_43);"/>
        <polygon points="397.5076 107.7626 397.582 150.2429 407.016 137.0813 397.5076 107.7626" style="fill: url(#_未命名的渐变_44);"/>
        <polygon points="397.582 150.2429 382.1227 155.1674 372.582 184.4757 397.582 150.2429" style="fill: url(#_未命名的渐变_45);"/>
      </g>
    </g>
    <path d="M400.4237,193.4581c-103.9035,0-188.136,84.2324-188.136,188.136s84.2324,188.136,188.136,188.136,188.136-84.2324,188.136-188.136-84.2324-188.136-188.136-188.136h0Z" style="fill: #00a04a;"/>
    <path d="M73.9687,567.2002l124.9393-.3775s-15.8533-16.9857,35.4813-23.4025c51.3346-6.4168,152.4939-4.1521,169.1022-3.7746,16.6083.3775,223.4565-9.814,198.1666,26.7997l125.3168.7549-85.6835,54.7317,108.7085,67.1879s-135.3195,7.3605-180.2373,5.0957c-44.9178-2.2648-89.8355.7549-95.8749-23.4025-4.907-16.6083,42.2755-32.839,42.2755-32.839,0,0-142.3025-7.1717-231.7606-.3775,0,0,42.8291,16.9869,42.653,30.1968-.1887,14.1548-16.797,23.78-62.6584,24.9124-52.6806,1.3008-125.6943,3.7746-214.3974-3.7746l108.7085-66.433-84.7398-55.2979Z" style="fill: #00a04a;"/>
    <g>
      <path d="M400.4237,553.7189c-94.9099,0-172.1245-77.215-172.1245-172.125s77.2145-172.1245,172.1245-172.1245,172.1245,77.2145,172.1245,172.1245-77.215,172.125-172.1245,172.125Z" style="fill: #f6e600;"/>
      <path d="M400.4237,225.4811c-86.0808,0-156.1129,70.0321-156.1129,156.1129s70.0321,156.1134,156.1129,156.1134,156.1129-70.0321,156.1129-156.1134-70.0321-156.1129-156.1129-156.1129ZM400.4237,533.7045c-83.8736,0-152.11-68.2368-152.11-152.1105s68.2364-152.11,152.11-152.11,152.11,68.2364,152.11,152.11-68.2359,152.1105-152.11,152.1105Z" style="fill: #00a04a;"/>
      <g>
        <g>
          <polygon points="314.334 302.0531 296.9944 283.6519 302.3024 278.8393 315.1833 284.2181 310.7953 270.9126 315.891 266.1 333.1598 284.5012 329.0549 288.3938 317.2357 276.5745 320.9867 287.4029 317.9434 290.3046 307.0443 285.7751 318.3681 298.3021 314.334 302.0531" style="fill: #00a04a;"/>
          <polygon points="359.9292 269.9436 353.4527 245.5034 360.4126 243.8015 369.1742 254.6681 371.6564 240.8794 378.4296 239.0764 384.8438 263.4828 379.3801 264.9491 374.6208 248.9261 372.7589 260.2335 368.7006 261.3345 361.2766 252.1588 365.2632 268.568 359.9292 269.9436" style="fill: #00a04a;"/>
          <path d="M351.1363,274.239l5.8742-2.9725-20.0997-18.1181-5.8742,3.4679,4.8834,26.2571,5.308-3.1141-1.0878-5.2018,7.1554-3.9623,3.8407,3.6437ZM339.1815,269.9731l-1.846-8.8272,6.604,6.2653-4.758,2.562Z" style="fill: #00a04a;"/>
          <polygon points="397.0332 258.598 396.9159 251.9126 407.0358 251.615 407.0358 247.1798 396.8328 247.1798 396.7501 242.4616 407.6964 242.3672 407.602 237.6489 390.522 237.8377 390.9938 263.3162 407.9795 263.0331 407.9795 258.6924 397.0332 258.598" style="fill: #00a04a;"/>
          <polygon points="417.1329 238.451 412.8865 263.3634 429.4475 266.619 430.1553 262.231 419.5392 259.9663 423.2195 239.5834 417.1329 238.451" style="fill: #00a04a;"/>
          <path d="M451.9536,246.8496c-7.9267-3.3972-13.3055,2.2648-15.8533,6.983-2.5479,4.7182-2.4535,13.6829,5.0957,17.3631,7.5492,3.6802,13.5886.8493,17.2688-6.983,3.6803-7.8323-.0846-14.6089-6.5112-17.3631ZM452.8973,261.2874c-1.793,3.869-4.6239,8.2098-9.3421,5.8507s-2.3591-9.059-1.2268-11.1351c1.1324-2.0761,3.5859-6.8886,8.3042-4.7183,3.6473,1.6777,4.0577,6.1337,2.2648,10.0027Z" style="fill: #00a04a;"/>
          <path d="M482.3392,264.7789c-3.1141-2.4535-10.0027-7.2661-10.0027-7.2661l-14.5322,20.6659s6.1338,4.0577,9.5309,6.4168c3.3972,2.3591,10.852,3.4915,16.1364-3.5858,5.2845-7.0774,1.9817-13.7773-1.1323-16.2308ZM478.2815,277.3294c-3.3028,5.0957-8.3042,3.9634-9.7196,2.9253-1.4155-1.038-3.1141-2.2648-3.1141-2.2648l9.2478-13.3055s.8493.5662,3.1141,2.1704,3.7746,5.3788.4718,10.4745Z" style="fill: #00a04a;"/>
          <polygon points="502.9108 288.842 505.9305 285.9167 496.4939 276.2914 493.7573 279.2168 496.2184 281.8046 483.8218 293.6377 481.2068 290.918 478.2815 294.0321 487.4349 303.5629 490.6433 300.732 487.9148 297.8943 500.3191 286.1167 502.9108 288.842" style="fill: #00a04a;"/>
        </g>
        <g>
          <path d="M303.1517,481.6062c-7.2661.7785-12.409-6.0865-15.641-12.7865l4.8362-4.5767c.6134,7.8559,6.5663,14.1262,9.6016,11.1351,3.232-3.1848-8.1626-11.0407-2.5066-17.8586,5.8839-7.0926,15.4464-.7785,19.4097,8.9352l-4.3703,4.1049c-.2426-2.0409-2.4004-9.6901-6.9063-10.2091-.4972-.0573-1.3447-.2831-2.3827.6606-1.9398,1.7635,1.9109,5.3552,4.0341,11.1233,1.4323,3.8912-1.3143,8.1542-6.0748,9.4719Z" style="fill: #00a04a;"/>
          <path d="M513.1381,466.8651c.979,7.2418-5.7414,12.5724-12.3494,15.9883l-4.7086-4.7079c7.8359-.8302,13.9393-6.954,10.8655-9.9056-3.2729-3.1428-10.811,8.4645-17.7825,2.999-7.2524-5.6857-1.205-15.419,8.3955-19.6492l4.2241,4.2552c-2.0334.2989-9.6201,2.6672-10.0144,7.1858-.0435.4986-.2458,1.352.7261,2.3636,1.8164,1.8904,5.3004-2.0581,11.0076-4.3399,3.8501-1.5393,8.1874,1.0885,9.6361,5.8107Z" style="fill: #00a04a;"/>
          <path d="M334.8466,480.3913l-8.6344,12.3854c-.9334,1.3441-2.3568,2.273-3.2556,2.4535-.8917.1902-2.0723-.1142-3.2084-.8965-1.2189-.8362-1.9517-1.9414-2.1704-2.8545-.3067-1.0852.535-3.2179,1.5098-4.6239l9.4247-13.966-5.0395-3.6233-10.2354,14.7341c-1.8573,2.6712-2.4407,5.2955-1.7396,7.7921.6857,2.4436,2.5537,4.7299,5.551,6.7903,1.2536.865,2.5461,1.5042,3.833,1.9024,1.0589.3295,2.1109.4717,3.1428.4338.2622-.0096.524-.0293.7785-.0655,1.2864-.1646,2.544-.6564,3.7396-1.4608,1.1693-.7867,2.2755-1.9161,3.2824-3.3668l9.7097-13.9712-5.1311-3.7156-1.557,2.0524Z" style="fill: #00a04a;"/>
          <polygon points="355.4889 505.1149 353.177 487.2799 345.8088 484.2002 335.7192 509.4053 341.1454 511.5317 348.2228 494.027 351.0538 515.6366 356.7506 518.0234 366.8435 492.8149 361.2452 490.6299 355.4889 505.1149" style="fill: #00a04a;"/>
          <polygon points="483.2456 484.6973 467.0736 476.8296 460.6116 481.6416 475.9679 503.5729 480.726 500.2074 469.989 484.6761 489.3812 493.9208 494.6538 490.276 479.2072 468.4521 474.3056 471.929 483.2456 484.6973" style="fill: #00a04a;"/>
          <path d="M370.673,494.7593l-2.7553,26.656c5.3826.355,11.4382,1.6203,15.2394.8596,9.7153-1.944,12.7555-15.0722,7.0464-22.1496-4.143-5.136-14.3081-5.0603-19.5305-5.366ZM374.9399,517.2526l1.75-17.1029c4.9263.2823,9.8375,1.4664,9.6682,7.9023-.1887,7.1717-3.0669,10.7576-11.4182,9.2006Z" style="fill: #00a04a;"/>
          <path d="M422.9172,504.2406c-.6756-1.691-1.6106-3.1347-2.7843-4.301-1.1806-1.1763-2.624-2.0619-4.296-2.6367-1.6583-.5681-3.576-.7753-5.6882-.6182-1.9893.1504-3.7739.6049-5.3094,1.3568-1.5525.7619-2.856,1.8079-3.8694,3.1079-1.01,1.2933-1.747,2.8606-2.1906,4.6619-.4368,1.7712-.5732,3.7663-.4027,5.9385.1604,2.0452.5698,3.92,1.2182,5.5775.662,1.691,1.5935,3.1447,2.7673,4.311,1.184,1.1797,2.6308,2.0653,4.296,2.6367,1.2966.4445,2.7502.6684,4.3369.6684.4402,0,.8906-.0201,1.3512-.0535,1.9586-.1437,3.733-.6015,5.2718-1.3535,1.5525-.7586,2.8594-1.8046,3.8865-3.1079,1.0237-1.3,1.7709-2.8673,2.2247-4.6585.4504-1.7712.5937-3.7729.4231-5.9452-.157-2.0452-.5732-3.9233-1.2352-5.5842h0ZM416.1696,517.7037c-.969,1.4022-2.388,2.1557-4.3304,2.2917-1.0521.0713-1.9679-.069-2.7397-.4286-.7794-.3597-1.4152-.8916-1.9455-1.6155-.5532-.7556-1.0011-1.6994-1.3362-2.8038-.3388-1.1319-.5608-2.4284-.6587-3.8459-.2236-3.2643.1748-5.6859,1.1754-7.1942.9655-1.4534,2.3615-2.2228,4.2693-2.359.2081-.0143.4046-.0208.6011-.0194.8474.006,1.5898.1608,2.2156.4603.7755.3715,1.4418.9311,1.9837,1.663.5685.7715,1.0088,1.7113,1.3054,2.8075.3194,1.1436.5262,2.4163.6206,3.7827.2307,3.3746-.1602,5.8159-1.1603,7.2612h-.0001Z" style="fill: #00a04a;"/>
          <polygon points="424.9534 496.3272 431.2287 494.2039 440.618 510.3876 439.4856 491.6089 445.4778 489.4857 455.4333 505.4806 453.6876 486.7963 459.9157 484.7674 461.7086 512.3692 454.8671 514.6812 445.525 500.1961 446.5158 517.4649 439.5328 519.7297 424.9534 496.3272" style="fill: #00a04a;"/>
        </g>
      </g>
      <g>
        <path d="M260.3365,379.9249l.519-2.3355c3.5859-.4246,4.388-1.4155,5.1665-3.0433l2.5714.0236-3.2556,15.4287-3.3555-.0253,2.1523-10.0246c-1.2975.0236-2.7366-.0236-3.7982-.0236Z" style="fill: #00a04a;"/>
        <path d="M270.407,386.1736l3.0433-.0531c.0437.6283.3544,1.0296.6211,1.2941s.6968.5294,1.1659.546c.6008.0212,1.2761-.1499,1.7517-.5485.8493-.5662,1.5216-1.4686,2.424-3.9633-.8493.7962-1.3447,1.4332-3.3579,1.5216-1.3986.0614-2.6316-.6312-3.5072-1.5039s-1.1924-1.9162-1.1409-3.372c.0576-1.6304.689-3.0584,1.8942-4.2839s2.6903-1.7186,4.6078-1.6508c1.6953.0599,3.0341.7343,3.8926,1.8578s1.1806,2.6308,1.1147,4.4941c-.1016,2.8751-.7761,5.3534-2.2825,7.2897s-3.4732,2.6084-5.8187,2.5255c-1.3744-.0486-2.4608-.435-3.2592-1.1592s-1.0945-1.7387-1.149-2.9941ZM279.7669,379.5563c.0298-.8443-.1839-1.5893-.5485-1.9994s-.9974-.7056-1.557-.7254c-.6913-.0244-1.4941.2026-2.0524.7077-.5573.5043-1.0253,1.3836-.9731,2.6717.0619,1.5305,1.4348,2.1313,1.964,2.2117,1.3978.2123,2.513-.6067,2.7956-1.2562s.3476-.9332.3716-1.6101Z" style="fill: #00a04a;"/>
        <path d="M512.3656,377.3489l.634-2.8384h11.0047l-.5131,2.6955c-.707.5284-1.3778,1.1973-2.2648,2.2294-.9731,1.1324-4.2464,5.6442-5.4319,10.5099l-3.3264.0708c1.3447-6.1396,6.1295-11.1836,7.4666-12.6331l-7.5691-.0341Z" style="fill: #00a04a;"/>
        <path d="M523.1786,384.8987c0-1.5906.2143-3.3518.8257-4.9855.75-1.9936,1.5392-3.3692,2.713-4.3408s2.7421-1.4155,4.1768-1.4155c1.451,0,2.4862.6522,3.4196,1.5806s1.4391,2.24,1.4391,4.0105c0,1.6194-.2224,3.1805-.903,4.9834s-1.5998,3.1848-2.7573,4.1456-2.4618,1.4412-3.9128,1.4412-2.6472-.4642-3.5888-1.3927-1.4123-2.2707-1.4123-4.0268ZM527.9978,387.889c2.4301.3556,3.5397-2.7702,4.0983-4.8147.4454-1.623,1.1306-5.6996-1.3447-6.1809-2.5479-.4954-3.5763,2.9389-4.0577,4.8362-.4011,1.5806-.9672,5.827,1.3041,6.1594Z" style="fill: #00a04a;"/>
      </g>
      <g>
        <path d="M364.952,461.704l54.2363.4718v-10.2858c0-3.0905.7785-4.5059,3.869-5.827s4.2228-1.7222,5.6147-3.5387,9.3303-11.3356,10.1089-12.2557,2.6894-2.831,3.3618-3.8926,3.2556-4.9188,4.1403-6.8297,2.7248-3.751,3.6802-5.2019,4.5649-6.6173,5.4496-8.2805,1.3801-1.0616,2.0524-7.2189,3.2202-16.5021,4.73-20.3711,3.9161-9.8611,7.6908-15.0512,5.7563-7.7851,2.0288-10.3802-10.7576-3.2556-15.2871-.3303-9.3893,10.1442-11.7484,14.2963-4.4352,8.7288-5.3788,9.814-2.7838,2.5479-4.2936,3.3971-3.5859,2.2176-3.5859,2.2176c0,0-2.076-18.0709-1.7929-25.9268.2831-7.8559.5662-10.6868.637-12.9516s-.4954-20.3829-.8493-24.5585-1.2032-13.3055-1.557-16.1364-3.1848-7.7851-8.2805-7.0066-6.9358,3.9633-7.0774,6.7943-.9908,19.4628-1.2032,23.3554c-.1869,3.4257-1.4152,24.2829-1.7072,29.2364-.0111.1885-.2763.2122-.3263.0302-.8984-3.2655-4.1232-13.3382-10.2104-15.4657-7.2897-2.5479-13.5178-.9201-14.2963,8.2805,0,0-4.8126-6.3696-12.7393-2.4771s-5.7327,12.6685-5.7327,12.6685c0,0-2.831-3.114-7.6436-1.2032-4.8126,1.9109-6.0865,10.8284-6.0865,13.5178s-1.7222,14.6974-.7785,30.2676,1.3211,18.2125,2.6422,22.9307,8.776,23.4025,10.2858,26.0448l.0472,11.8664Z"/>
        <path d="M365.9486,460.7122l-.044-11.1428-.131-.2287c-1.4185-2.4823-8.8907-21.1745-10.191-25.8175-1.2924-4.6147-1.6589-7.0803-2.6069-22.7215-.7124-11.7526.1016-21.4408.539-26.6452.1402-1.6677.2414-2.8727.2414-3.5617,0-2.6714,1.3428-10.9552,5.4551-12.5882.9186-.3645,1.8207-.5497,2.6816-.5497,2.4251,0,3.7996,1.44,3.8568,1.5011l2.6386,2.8209-.9318-3.742c-.0796-.3249-1.8837-8.0473,5.203-11.5274,1.5641-.7676,3.1087-1.1571,4.5907-1.1571,4.3019,0,6.8854,3.3085,6.9108,3.3418l1.5734,2.0547.2204-2.5761c.474-5.6056,3.0403-8.448,7.6276-8.448,1.5925,0,3.3897.3455,5.3413,1.0276,5.6515,1.9755,8.7583,11.8176,9.5763,14.7871.1397.5136.5932.8595,1.1258.8595.6147,0,1.1258-.4803,1.1639-1.0936l.1046-1.7811c.4075-6.9215,1.4327-24.357,1.6017-27.4632.214-3.893,1.0633-20.5275,1.205-23.3597.0733-1.4854.8287-5.03,6.2291-5.8543.3059-.0469.6108-.0709.9059-.0709,3.8543,0,5.9594,4.0459,6.2301,6.212.3577,2.8639,1.2206,12.1802,1.5529,16.0966.3557,4.2042.9098,22.3712.8453,24.443-.0254.8321-.0801,1.741-.1534,2.9523-.128,2.127-.3039,5.0403-.4828,9.994-.2824,7.8416,1.7141,25.3362,1.7992,26.0775l.1857,1.6169,1.3594-.8957c.0195-.0137,2.064-1.3589,3.525-2.1808,1.6066-.9035,3.5231-2.4231,4.559-3.613.5893-.6777,1.3711-2.17,2.7031-4.7495.8385-1.6242,1.7894-3.4654,2.7901-5.2264,2.7227-4.7911,7.3471-11.3192,11.4213-13.9505,1.7581-1.1356,4.1231-1.761,6.6581-1.761,2.8419,0,5.6506.7745,7.5142,2.0723,1.2323.858,1.4669,1.5035,1.5363,1.9145.2502,1.485-1.3721,3.7151-3.6179,6.8018l-.1847.2536c-3.998,5.4986-6.4803,11.8592-7.8142,15.2762-1.5548,3.9843-4.1231,14.4944-4.7925,20.6267-.5072,4.643-.8756,5.1913-1.3858,5.9506-.171.2541-.3538.5277-.5551.9069-.6206,1.1678-2.7451,4.2863-4.1505,6.3493-.5404.7935-.9929,1.4581-1.2509,1.8509-.3196.4837-.7662,1.0418-1.2392,1.632-.8893,1.1102-1.8979,2.3679-2.5135,3.6999-.6958,1.5021-2.5497,4.3567-3.5455,5.89-.2257.3469-.4105.6313-.5326.8238-.4065.643-1.4141,1.7337-2.2233,2.6113-.4192.4535-.7984.8649-1.0564,1.1698-.6274.7417-8.7084,10.4275-10.1401,12.294-1.1444,1.4942-2.0288,1.8715-4.6547,2.9895l-.559.2375c-3.3462,1.4317-4.4759,3.1341-4.4759,6.748v9.2762l-52.2389-.4544Z" style="fill: #00a04a;"/>
        <g>
          <path d="M371.6421,389.331c1.0349,0,1.9687-.4217,2.7021-1.2201,1.1493-1.2524,1.5284-3.1116,1.4683-3.784l-.0371-.4144-.4144-.0386c-.0191-.002-1.9335-.1793-4.4407-.1793-1.9795,0-3.8338.2697-4.0014,2.2267-.0586.6816.2033,1.3794.7383,1.9648.8448.9245,2.2546,1.4376,3.9692,1.4449h.0156ZM367.9158,386.0068c.0591-.6909.3337-1.3115,3.0046-1.3115,1.7259,0,3.1629.0855,3.8715.1368-.0938.6592-.4393,1.7894-1.1849,2.602-.5492.5976-1.1972.8781-1.9765.8962-1.9316-.0083-2.8556-.7046-3.2343-1.119-.3391-.3714-.514-.8102-.4803-1.2045Z"/>
          <path d="M387.3053,393.6119c2.917-.6763,5.6016-1.8575,6.1693-5.4802,1.3172,2.0273,3.9821,3.2442,6.4062,3.2442.3298,0,.6553-.023.9729-.0689,2.5614-.3719,6.877-1.7386,6.9865-6.7119.0919-4.2076-.5267-20.8109-.8287-23.7481l-.0215-.2165c-.3225-3.1409-1.3007-12.6986-2.9797-17.2449l-.9382.3469c1.634,4.427,2.6034,13.8899,2.922,16.9996l.0225.2174c.1149,1.1221.2765,4.2541.4268,7.9204-1.1744-2.0992-2.8344-3.7086-2.9335-3.8037l-.6919.7227c.0322.0313,3.2357,3.1331,3.7214,6.1358l.0219-.0035c.1866,5.1296.3252,10.5074.2782,12.6518-.0938,4.237-3.8807,5.417-6.1304,5.7439-2.8101.4041-6.3982-1.2734-6.987-4.1353-.2424-1.1771-.8532-4.0821-1.5597-7.4424-1.2133-5.7693-2.7227-12.9493-3.1102-14.918-.6079-3.0848-3.2323-14.8042-3.2587-14.9224l-.9763.2189c.0264.1178,2.6474,11.825,3.2528,14.897.389,1.9746,1.8993,9.158,3.1131,14.9302.5847,2.7812,1.1002,5.2339,1.399,6.6691l-.0372.0032c.3987,4.6982-1.7957,6.169-5.4654,7.0192-3.5895.8341-7.4082-3.6442-8.2452-5.7375-.2747-.6865-.7053-1.8479-1.2151-3.248-.0378-.1922-.0732-.3834-.1306-.5843l-.074.0211c-.4007-1.1047-.8407-2.3272-1.2927-3.5838-.925-2.5717-1.9071-5.3022-2.7095-7.4561-1.783-4.7852-5.7874-12.5745-5.8279-12.6527l-.8893.4583c.0396.0777,4.0176,7.8142,5.7791,12.5437.8018,2.151,1.7825,4.8776,2.7061,7.4453.5234,1.4555,1.0308,2.8653,1.4798,4.0989.596,3.3919-2.3363,5.139-2.6926,5.3367-.4642.2589-4.5775,2.2533-9.9991-4.7043-.0566-.4444-.234-2.2005.2757-3.645l-.944-.3332c-.2984.8463-.3899,1.7516-.4035,2.5143-5.6041-8.0452-8.4168-17.7428-8.4452-17.8427l-.9626.2746c.0303.1051,3.0672,10.5853,9.136,18.9121,3.7703,5.1737,7.1277,6.275,9.3036,6.275,1.3975,0,2.3073-.4549,2.5258-.5766.3226-.1791,2.4245-1.4356,3.0891-3.8195.1363.3606.2615.6873.3616.9375.9636,2.4085,4.5927,6.4656,8.3014,6.4656.3665,0,.7334-.0396,1.0989-.1241Z"/>
          <path d="M382.632,390.9929c1.3091,1.1972,2.43,1.6364,3.5548,1.6364,1.0457,0,2.0938-.3797,3.2983-.8835,3.0339-1.269,2.062-4.0063,1.0335-6.9039-1.1121-3.1351-3.5558-3.3252-5.5191-3.4776l-.1969-.0156c-3.5631-.2746-4.8404,1.5929-5.4962,3.0276-.9523,2.0826,1.2827,4.7476,3.3256,6.6166ZM380.2162,384.7926c.5654-1.2367,1.4737-2.472,3.8822-2.472.1979,0,.4061.0083.625.0259l.1984.0156c1.933.15,3.7591.2922,4.6538,2.8145,1.1063,3.116,1.5876,4.7828-.4764,5.6457-2.4666,1.032-3.7596,1.2905-5.7918-.5683-2.5038-2.2907-3.6306-4.2814-3.0911-5.4615Z"/>
          <path d="M396.6949,388.9489c.8673.5917,1.8812.8883,3.0286.8883.5253,0,1.0784-.0625,1.6589-.1871,4.3361-.9323,4.2814-4.5629,4.2277-8.0742-.0059-.3958-.0117-.7935-.0117-1.1908,0-2.2946-1.0359-5.03-5.9731-5.03-2.1954,0-3.1629.3381-4.6298,1.1473-1.7376.9592-1.288,5.437-.8654,8.0209.3137,1.915,1.2485,3.5279,2.5648,4.4256ZM395.4792,377.379c1.2602-.6958,2.0801-1.0232,4.1461-1.0232,3.3462,0,4.9723,1.3178,4.9723,4.0293,0,.4021.0059.8053.0117,1.206.0518,3.3916.0958,6.321-3.438,7.0808-1.5646.3372-2.8829.1525-3.9125-.5497-1.0911-.7437-1.8715-2.1143-2.1407-3.76-.5996-3.6638-.451-6.535.3611-6.9831Z"/>
          <path d="M414.1993,357.9226l-.7457.6665c.1329.149,2.9709,3.2558,8.3078,3.2558.688,0,1.419-.0518,2.1901-.1681l-.1485-.99c-6.2057.9343-9.5694-2.7276-9.6036-2.7642Z"/>
          <path d="M414.7192,360.9892l-.3733.3337-.3743.3318c.0635.0718,1.5284,1.6873,4.3645,1.6873.1222,0,.2482-.0029.3753-.0093l-.0489-.9997c-2.5868.1241-3.8886-1.2836-3.9433-1.3437Z"/>
          <path d="M466.2994,360.6223c-1.591,4.0777-1.288,7.352-.858,8.6439l.9499-.3157c-.3616-1.0848-.6499-4.1446.8405-7.9647,1.2851-3.2929,3.7615-3.6227,6.02-3.5035l.0508-.9997c-1.4454-.0743-5.2821-.2702-7.0031,4.1397Z"/>
          <path d="M403.5451,402.2285c-3.2666,2.8093-6.236,5.5728-8.5307,9.3418-1.2012.2019-2.4266.1487-4.0096-.2034-1.353-.3-1.7591-2.3914-2.0708-3.9951-.3455-1.7777-2.8483-5.4991-2.9543-5.6564l-.8297.559c.6929,1.0271,2.5468,3.9785,2.8165,5.3652.3494,1.7982.8277,4.2619,2.8214,4.7046,1.0726.2385,1.999.3557,2.8683.3557.2485,0,.4888-.02.7299-.0392-.8606,1.5784-1.6118,3.3268-2.2222,5.3233-2.2243,7.2758-.559,12.5354.2414,15.0626l.0899.2854.9548-.299-.0909-.2883c-.7696-2.4314-2.3718-7.4898-.2385-14.4675,2.2111-7.2318,6.3249-11.2034,11.0773-15.2904,4.6117-3.9658,12.2677-7.6286,12.3449-7.6647l-.43-.904c-.3186.1515-7.8524,3.7556-12.5677,7.8103Z"/>
        </g>
      </g>
    </g>
    <g>
      <path d="M287.7999,660.0555c-17.9293-7.5492-34.113-9.8612-36.3777-16.278-.099-.2805-.1829-.5539-.2589-.8238l-.3918.2157-34.2458-62.1061-104.2448-1.0294,80.399,42.4643-101.3481,57.3739c11.89,2.6422,87.1933,4.1521,162.3079,1.1323,75.1146-3.0196,52.0895-13.3998,34.1601-20.949Z" style="fill: #f6e600;"/>
      <path d="M550.3859,640.3787l35.0375-63.8986c3.4818-8.31,3.5916-12.8485-12.8297-16.2629-19.0618-3.9633-91.1732-8.0906-162.4967-9.6252-83.3244-1.7929-167.6867,6.2281-186.0879,10.0027-11.4762,2.3541-11.2065,9.7359-9.3786,14.9592l36.2262,65.6977c-.318-5.6604,7.6827-8.8313,43.7374-11.7704,33.7613-2.7521,119.8436-4.907,149.663-3.2084s94.5538,2.1232,103.9903,10.9463c1.1907,1.1133,1.8689,2.161,2.1384,3.1596Z" style="fill: #f6e600;"/>
      <path d="M608.4524,622.1207l80.2103-42.0868-104.458.7502-33.9439,61.9043c-.1396.3585-.3359.7108-.5802,1.0581l-.6407,1.1684-.2394-.1311c-4.2756,4.2285-15.7368,7.7499-25.8429,12.0634-15.4759,6.6055-60.7239,18.2597,15.0984,23.4025,75.9658,5.1526,171.3669-.1887,171.3669-.1887l-100.9706-57.9402Z" style="fill: #f6e600;"/>
    </g>
    <g>
      <polygon points="383.4667 579.1199 378.7116 579.1199 378.7117 576.0808 378.9345 575.7101 383.2438 575.7101 383.4667 575.9324 383.4667 579.1199" style="fill: #00a04a;"/>
      <path d="M497.0545,587.0523c.9201-.7431,2.3026-1.8766,3.7508-2.0081,2.4573-.2232,4.0565.8937,5.1313,3.0697,1.3801-.9908,2.7984-2.2629,4.5489-2.4542,2.4357-.2661,4.8503,1.2593,4.9611,3.7654.1861,4.2091-.3094,7.9602-.5922,12.3787l-4.476-.3829c-.0183-.957.0355-1.8525.0524-2.4432.0789-2.7527.2477-5.4496.2526-8.3584.0022-1.3095-1.6482-1.3695-2.7241-1.2532-1.3487.1458-1.8473.8582-1.9165,2.1804-.1512,2.89-.3539,6.3343-.6016,9.6252-.9554.1769-4.6683-.0824-4.6711-.2831.1585-2.5574.4735-5.7955.5597-8.353.0359-1.063.2344-2.6416-.5857-3.4155-1.0369-.9786-2.8903-.4463-3.8378.3364l-.8407,10.8735c-.212.3043-3.9221-.0505-4.5209-.1788l.8912-15.0065.1189-.1779,4.4997.1747c0,.3539-.0774,1.513,0,1.9109Z" style="fill: #00a04a;"/>
      <path d="M332.9442,583.1228c-2.7063-1.3347-5.3562-2.7685-8.4657-1.7007-2.3209.797-2.5243,3.0097-.0054,3.8515,3.786,1.2652,9.3906,1.0143,9.6663,6.3668.3491,6.7777-7.5227,7.8525-12.6714,7.0093-.7012-.1148-3.1762-.6774-3.4552-1.2969.0121-1.0196.0644-2.8288.0121-3.7112l-.0155-.7304c1.4137.8733,2.8608,1.7906,4.5031,2.1761,1.842.4323,6.6364.7186,6.58-2.1052-.0142-.7092-.4515-1.4295-1.0941-1.7374-3.1159-1.4925-8.3562-.4767-9.9845-4.8639-2.9859-8.045,8.7188-10.3549,14.1881-7.9289.1716.0761.7423.4813.7423.5937v4.077Z" style="fill: #00a04a;"/>
      <path d="M422.7702,597.5037c-.212-.1301-.2376-.2941-.2305-.5113.1314-3.9714.1244-6.7152.1623-9.6381.0488-3.7576.0927-7.5414.2876-11.2837.9554-.0708,1.3143-.0797,2.0033-.0579.457.0144,2.3579-.1305,2.5418.1328l-.051,7.8518c3.0787-3.6802,9.199-2.9911,9.6312,2.0113.2293,2.6544.2316,7.7359-.0001,10.3885-.0364.4169-.0767.5518-.0413,1.1888h-4.6711c.0708-1.9463.0956-2.5279.1062-3.0079.0448-2.0275.2782-5.3557,0-7.2543-.4038-2.7559-4.8233-2.124-4.9896-.2123-.2123,2.4417-.1085,5.6154-.2107,7.9523-.034.7777.0337,1.3545.0337,2.3453l-4.572.0948Z" style="fill: #00a04a;"/>
      <path d="M279.5991,586.9779c-.0803.9162,2.4664-1.2821,2.9898-1.5021,2.8199-1.1849,5.6447-.1316,6.5818,2.8809.6503,2.0904.477,4.5905.5467,6.8131.0463,1.4746.0841,3.9743.1262,5.3832-.8138.1957-3.7814.2664-4.6893.2944-.0421-.757-.026.6209-.0575-.8979-.0476-2.2983.0151-4.539-.1429-6.6772-.075-1.0155-.1257-2.8159-.6857-3.6153-.9047-1.2916-4.3764-.8317-4.4899.5394-.1124,1.3567-.0031,3.0843.0348,4.4478.0598,2.1514.1605,4.269.2318,6.4185-1.2762.0232-3.5472.1283-4.5776.0021l-.6659-21.3155.3925.028,4.0423-.0736.3628,7.2743Z" style="fill: #00a04a;"/>
      <path d="M341.0427,576.3031l.1952.2501c.4686,3.9369-.0988,7.9651.3264,11.9062l4.3049-5.8172.523-.4088h4.978l-4.8724,6.7233,5.764,8.6953h-5.2751l-4.1618-6.2245-.4439-.1664c-.5984-.0412-.8053.8262-.8016,1.2925.0113,1.4318.0954,2.6304.1398,4.7354.0046.2172-.0444.145-.0444.5165l-4.6542-.028c-.028-1.2617-.0127-2.0501-.0579-3.0225-.1746-3.7588-.1037-7.4942-.1486-11.2674-.0256-2.1476-.158-4.4532-.1623-6.6729-.0004-.2173.0184-.3812.2305-.5113h4.1607Z" style="fill: #00a04a;"/>
      <path d="M455.2272,591.0746l-10.5484-.0294c-.659,3.6277,3.5037,4.4167,6.2863,3.8999,1.4317-.2659,2.7256-.9487,4.0144-1.5349.1229.6798.0708,1.6986-.1769,3.7864-1.0262.46-2.4601.7892-2.9184.8894-6.7967,1.4853-13.0124-1.6129-11.8733-9.3468.8475-5.7542,6.8843-8.4058,11.9101-5.9385,2.9422,1.4444,3.8681,5.3315,3.3063,8.2741ZM447.0268,584.9383c-.6719.1063-1.5568.6001-1.9573,1.1596-.2781.3885-.8533,1.8247-.3906,2.1493.2428.1703,3.607.0443,4.2503.0585.7177.0159,1.7266.5976,1.7095-.652-.0258-1.8839-1.8579-2.9929-3.6119-2.7154Z" style="fill: #00a04a;"/>
      <path d="M307.4442,592.3941l-10.469.7266c-.542.3803.3403,2.0337.689,2.4442,1.5919,1.8738,5.1041,1.4807,7.1479.6312.9051-.3762,1.4264-.6267,2.4238-1.3611.012.8746.0296,3.3945-.0633,3.8645-.0819.4149-3.4718,1.1757-4.0656,1.2809-6.6501,1.1783-11.683-2.0983-11.0242-9.2199.7256-7.8436,12.9961-9.7456,14.9615-2.1821.1565.6022.4734,3.3742.3998,3.8158ZM302.764,589.7711c-.0682-3.4957-4.8337-4.0937-5.9358-.9479-.6935,1.9794.1088,1.4503,1.4205,1.4173.7042-.0177,3.5039-.0545,4.5153-.4694Z" style="fill: #00a04a;"/>
      <path d="M368.1614,581.7885l-7.4298,21.2006h-4.9037l2.0537-6.1133-5.7686-14.939h4.3836c.1125,0,.4983.3251.5541.485,1.0572,2.7776,1.8318,5.7065,2.9747,8.4483.0535.1284.297.9664.5562.7036l2.7153-9.2272c.0358-.1374.4298-.558.4809-.558h4.3836Z" style="fill: #00a04a;"/>
      <path d="M272.5938,585.3256c-1.2479.1362-4.7877.2986-5.5166.4096-.2282.0348-.5467.007-.4826.2029l.7139,16.5776-.4142.0294-3.867.2969-.6183.0732-1.071-16.7409c-.5131-.0256-2.2584.0346-2.6019.0445-.526.0152-3.1823.0841-3.4066.0841-.1156,0-.0726-.2651-.0967-.4419l-.0575-3.3222.429-.005,16.7225-.8289.2671,3.6206Z" style="fill: #00a04a;"/>
      <path d="M398.9206,586.088c-.9437-.3877-1.7537-1.0379-2.744-1.3393-1.1941-.3634-3.9734-.7427-4.7533.4556-1.3115,2.015,3.3059,2.3352,4.527,2.7353,1.5497.5077,2.9591,1.2578,3.463,2.9201.9082,2.9964-1.2566,5.4835-4.0269,6.3053-2.7525.8166-6.5094.5717-8.9478-.9215v-3.6323c.9653.1986,1.8224.9555,2.7826,1.3008,1.366.4913,3.3888.7328,4.7692.2294.9248-.3372,1.1228-1.7051.3122-2.1859-2.7474-.9217-7.2879-.9914-7.8254-4.6461-.9331-6.3454,8.4265-7.3275,12.4433-4.8537v3.6323Z" style="fill: #00a04a;"/>
      <path d="M480.0255,599.2536l-13.47-.4549.7027-20.362,4.3932.0833.3964.0158-.3983,16.5907c.705.2299,7.6339.3115,8.4193.5365.118.5898-.0236,2.5714-.0432,3.5905Z" style="fill: #00a04a;"/>
      <path d="M420.1698,585.0502h-4.235c-.0491,0-.3919.0436-.3715.1483v7.7834c0,.1464.0006.7721.6656,1.115,1.1395.5877,2.8442.3682,3.9409-.0031v3.0392c-1.3537.6225-3.6088.6696-5.1109.5033-4.6065-.5101-4.0482-3.8105-4.0959-7.3291-.0058-.4284.1328-4.1483-.1619-5.1187l-1.7759-.1383v-2.891l.0096-.167,1.8084-.1577c.1051-.1051.1138-.7222.1138-.8613v-3.2616c.0936-.1469.2051-.1919.3716-.2223.4136-.0755,3.6785-.0436,3.9355.0763.0702.0328.2994.2686.2994.2943v3.8546l.0006.1831,4.383.0393.2229.2224v2.891Z" style="fill: #00a04a;"/>
      <path d="M537.8172,591.0668l-4.2319-.1606c-.0491-.0019-.3933.0287-.3768.1341l-.2952,7.7778c-.0056.1463-.0287.7715.6228,1.1395,1.1164.6305,2.8282.4758,3.9382.1464l-.1153,3.0371c-1.3764.5707-3.6316.5322-5.1263.309-4.5839-.6844-3.9008-3.9613-3.815-7.4792.0104-.4283.2901-4.1402.0323-5.1211l-1.7694-.2055.1096-2.8889.0159-.1665,1.8131-.089c.1091-.1011.1411-.7174.1463-.8564l.1237-3.2593c.0991-.1433.2123-.184.3797-.208.4162-.0598,3.6775.096,3.9297.2255.0689.0354.289.2798.2881.3054l-.1462,3.8519-.0063.183,4.3783.2055.2143.2307-.1096,2.8889Z" style="fill: #00a04a;"/>
      <path d="M378.7116,582.0109c.0138-.0493.231-.2623.2994-.2943.2601-.1215,3.5238-.1504,3.9317-.0725.163.0311.5239.2559.5239.3668v14.8256l-.2229.2224h-4.3093l-.2229-.2224v-14.8256Z" style="fill: #00a04a;"/>
      <path d="M483.0177,599.6028c.1415-2.8663.7431-13.7301.9201-15.3933.7273-.0901,2.9434.0274,3.7631.0994.1671.0147.6318.0692.6734.2469l-.7917,15.1532-4.5649-.1062Z" style="fill: #00a04a;"/>
      <path d="M483.4069,581.5076c-.229-.1374.0354-2.3584.0786-3.4018.3108-.1964,1.0816-.1541,1.4691-.1428.7282.0211,2.0035.0608,2.6739.1479.2558.0332.4489.0566.5907.3033l-.0817,2.7385c-.0236.1845-.0479.6153-.2364.6153-1.3093,0-3.5329-.2557-4.4941-.2603Z" style="fill: #00a04a;"/>
      <path d="M519.2517,587.2182c.016-.0487.2423-.2518.3121-.2808.2652-.1099,3.527.0055,3.931.1013.1615.0383.5121.2788.5072.3896l-.6552,14.8111-.2325.2123-4.3051-.1904-.2128-.232.6552-14.8111Z" style="fill: #00a04a;"/>
      <polygon points="524.5265 584.2095 519.7761 583.9994 519.9105 580.9632 520.1494 580.6027 524.4545 580.7931 524.6674 581.0251 524.5265 584.2095" style="fill: #00a04a;"/>
    </g>
  </g>
</svg>