<?xml version="1.0" encoding="UTF-8"?>
<svg data-name="图层_1" xmlns="http://www.w3.org/2000/svg" version="1.1" viewBox="0 0 800 800">
  <!-- Created by @FCLOGO 2025-3-11 GMT+8 14:45:57 . https://fclogo.top/ -->
<!-- FOR PERSONAL USE ONLY NOT FOR COMMERCIAL USE -->
  <path d="M668.4267,273.6326c-6.9897-28.8841-21.425-50.324-40.8998-66.7242-15.5913-11.889-32.9474-21.0964-49.3159-31.3468-33.1938-20.7639-65.3-42.4204-89.9316-71.3669-12.4341-14.5742-24.8638-29.1861-42.0778-38.8702-16.2482-9.2131-38.2542-20.1335-62.3721-13.0563-20.3027,5.9602-37.4626,16.7574-51.6485,29.0129-7.2413,6.2658-12.8602,13.6372-19.1425,21.1758-18.4839,22.2037-41.7642,39.4793-64.9699,56.2748-21.4944,14.4161-44.4742,27.3116-66.4431,41.1981-21.657,14.3191-37.5449,34.4207-46.701,61.2346-10.102,25.0973-8.9979,65.9653-1.4595,93.1108,22.7175,87.5303,67.5858,152.9024,113.1454,217.6046,46.7736,63.5477,97.6592,122.9992,152.8925,178.1201,54.3876-53.4288,104.117-111.2933,149.6957-173.1925,45.512-61.793,88.525-127.6949,113.4269-209.4752,8.2981-25.1603,14.0177-64.1398,5.8012-93.6996ZM644.3434,411.1407c-19.3118,45.4454-43.0496,86.3148-69.041,123.8745-52.7718,76.2128-110.9643,147.0717-175.2237,210.6172-51.86-50.455-98.6149-105.7026-142.4549-163.9294-43.7131-58.0597-84.776-120.3184-111.3935-194.9261-9.5542-27.7751-19.5405-60.8383-14.7943-97.7689,4.228-32.9684,19.8517-58.3922,38.8653-76.0178,12.8592-12.6619,30.6165-20.4319,46.1246-30.4501,31.8383-19.2433,62.1909-39.9414,87.6207-65.5662,12.3127-13.224,22.3519-28.736,37.4245-39.1813,14.9811-11.4178,31.0817-20.3772,53.9612-23.4946,10.7148-1.4584,23.5074,2.2085,32.5026,5.8049,9.5587,3.845,17.7751,8.5389,24.9283,13.6296,16.3359,11.6234,27.8279,25.2799,38.5872,38.5777,24.7169,26.7509,55.1185,47.8133,87.0439,67.3207,15.7208,10.4134,33.179,18.1204,47.2968,29.8922,14.0883,11.7308,24.6991,26.5444,32.486,44.6648,11.2733,22.2512,13.1783,55.2531,8.4177,82.9598-4.5975,26.6811-13.1153,52.24-22.3514,73.9929ZM648.7048,262.0247c-7.4376-17.2095-17.6877-31.6256-31.0479-42.9485-9.9333-8.8774-21.8868-15.1453-33.3614-22.0346-34.7188-20.8991-68.7565-42.4398-95.4352-71.0746-18.3721-23.0522-40.277-46.5527-73.9839-55.4246-28.0859-7.3824-52.7899,7.2502-69.3359,19.4485-14.497,10.668-25.0974,24.1041-36.2742,37.4305-24.3347,24.8677-53.2651,45.1517-84.1301,63.517-14.7281,9.8215-31.758,17.375-44.6864,29.0115-18.9111,16.9283-33.0306,40.8502-37.9868,72.5271-5.4083,34.5175,4.194,67.254,13.0585,94.2998,25.5908,72.7546,65.5018,131.1788,107.0437,187.9818,39.3973,52.3059,82.0152,102.8939,127.9451,148.8238,1.088,1.1221,8.0135,9.3557,9.2702,9.2896.419-.0342,3.095-3.3744,4.3477-4.6315,47.962-47.9731,92.3179-99.4248,132.8869-153.7799,30.8986-42.0541,61.3984-86.395,85.5692-136.3407,11.7253-24.2013,22.8151-51.1799,29.8917-80.937,3.4349-14.4828,6.8246-31.9728,6.0806-49.3323-.6912-17.0635-4.463-32.3991-9.8519-45.8259ZM183.3638,221.125c23.1255-18.0716,50.4188-30.8506,74.5562-47.5779,24.0854-16.7008,46.3084-34.9828,64.4087-57.4501,8.8972-11.2249,19.4119-20.9372,32.2039-29.0154,11.9352-7.5135,27.7095-15.5289,45.5462-15.3652,17.9708.1592,33.3453,8.0924,45.2497,15.6542,12.7472,8.1061,23.0922,17.6973,32.2012,28.7264,26.9008,33.7729,63.7507,58.4433,101.8416,81.2369,12.6315,7.5429,26.121,13.9678,36.8311,24.0707,21.2574,19.3755,36.1067,45.1151,38.8846,82.9763h-94.0016c-5.9512-26.7169-12.0025-53.366-17.9861-80.0844.2299-.048.2966-.2965.5793-.2646-17.2453-18.3481-35.5963-39.1943-53.9451-58.6198-2.8618-3.0076-6.0197-6.4163-9.2907-9.5722-3.8341-3.6874-7.953-7.9184-12.4684-9.8661-10.2976-4.4018-24.1708-3.278-34.8137,0-3.3743,1.0539-7.3411,3.3059-10.7458,2.9069-3.9001-.4653-5.3398-3.6385-7.8367-6.084-6.5623-11.1443.0303-35.4292-13.0603-40.051-2.2307-.6189-5.4032-1.3294-8.1002-.5694-7.6685,2.2158-11.507,8.2182-14.8151,14.7977,2.7802-.5281,7.1466-4.7264,11.605-2.6111,2.2499,7.4377-3.6184,13.8483-5.783,19.7181-3.5358,5.457-6.2475,11.7422-10.4514,16.5525-9.934-7.1097-30.136-10.6148-43.2325-4.0865-.2441.07-.2771.3191-.5742.3191-14.7624,10.3792-25.2128,25.0594-37.7278,37.6924-12.0649,13.0718-24.3014,25.9861-36.5532,38.8793-.5754.5941.1163.5622.581.8587,1.325.5336,2.7111.9926,4.0654,1.4579,12.0052,5.8167,24.5364,0,32.502-6.084,5.4209-4.1642,10.5651-7.8687,16.5344-10.7475,6.5464-3.139,13.1584-5.0914,19.1436-8.114,6.181-3.0915,10.9404-7.2914,16.8276-10.4343,9.2581-2.643,22.7809-1.0067,34.2216-1.4545,5.6232,22.2341-16.0663,25.1128-14.4982,46.701.3456,1.7714.8118,3.4535,1.4413,4.9291.0667.2491.2965.2833.2965.5793h.0006c0,1.0903.0132,3.6725,0,5.5201,0,1.6689.6555,4.151-.8593,4.3466-1.954.1484-1.1609-2.7933-1.1609-4.3466-.0165-1.9216,0-3.8356,0-5.2275-5.3227-.6895-11.9009-.0952-17.7033-.2926-1.2429,5.4384-1.8712,11.5037-2.6159,17.4051-6.5259,15.147-12.8452,30.4733-19.1403,45.8463h-82.9769c5.821-26.3867,11.9534-52.4395,17.9861-78.6265-1.352-.4632-2.7393-.9244-4.0643-1.4579-5.95,26.7184-12.0196,53.3676-17.99,80.0844h-93.9835c2.678-38.0228,17.9044-63.5193,38.8707-83.2559ZM406.7432,287.5494h-13.6226c-3.5369,2.7438-6.1808,6.3821-8.9924,9.8574v6.9763h-54.5569c6.2128-14.9821,12.481-29.8921,18.863-44.671.5137-4.8955,1.1378-9.7036,1.7374-14.5147h10.7454v9.5717c2.8099.6763,6.8567.097,10.1494.2773v-9.849h11.0263v9.5717c2.7934.6763,6.8616.097,10.1494.2773.6818-2.6924.0997-6.6461.2977-9.849h14.5015v9.5717c2.8066.6763,6.8567.097,10.1494.2773.6741-2.6924.1009-6.6461.2965-9.849h11.0131v9.849h10.1634v-9.849c3.4899.1935,7.7396-.3798,10.7302.296.6774,4.5284,1.1431,9.289,1.7529,13.9207,6.2128,15.0428,12.6634,29.8578,18.8475,44.9691h-54.5408v-6.6804c-2.3965-3.9023-5.6057-6.9444-8.7104-10.1533ZM411.9656,304.3831h-24.3699c-1.0214-7.5098,3.9023-9.0652,6.6804-12.7643h10.7298c3.1577,3.4024,7.8842,5.2545,6.9598,12.7643ZM413.1198,250.9962h-1.4337c-1.3389-2.1496-.2166-6.741-.581-9.8666,3.2927-4.4338,3.7386-11.7369,8.993-14.2166,5.9891,1.5875,7.3065,7.7832,8.4022,14.2166h-14.7803c-.8621,2.611.2789,7.2706-.6002,9.8666ZM388.1921,250.9962h-1.4547c-1.3387-2.1496-.2155-6.741-.5952-9.8666h-15.0758c1.0884-6.4334,2.4334-12.6292,8.4165-14.2166,5.2543,2.4797,5.6992,9.7828,8.9918,14.2166h-.0009c-.1953,3.2073.3792,7.1758-.2817,9.8666ZM393.4177,241.1296c1.8323-4.6317.8926-12.0521,6.9432-12.466,4.5121,1.5874,4.2651,7.9376,5.8205,12.466h-12.7637ZM454.9174,258.5347c-.5807-5.9967-1.6899-11.454-2.3166-17.4051h-18.0009c0,1.5554.0132,3.5375,0,5.5201,0,1.5057.6762,4.0351-.8793,4.3466-2.1472.4311-.7578-2.7249-1.1563-4.0633v-5.8033c-.0472-.2332.1351-.268.2982-.296.4801-1.6216,1.0422-3.2112,1.4547-4.9297,1.9003-21.425-20.1359-24.731-14.517-46.9837,11.4407.4479,24.981-1.1885,34.2402,1.4545,10.3639,6.8301,20.6142,13.7877,34.239,17.392,11.4728,4.1354,19.5068,15.804,31.9061,19.4423,5.7196,1.6712,13.7536.9421,19.1425-1.4545,5.5696,26.5481,12.1547,52.0424,17.7072,78.6265h-82.9749c-6.2966-15.3729-12.6334-30.6993-19.143-45.8463ZM360.9158,638.8704c.2981-2.976,3.2382-7.1417,5.2257-9.8535,6.1462-8.4293,16.1324-15.9352,28.4316-16.8275,10.5142.4915,10.9134,16.4632,3.7734,20.893-7.4437-5.8145-17.7899.4332-18.2894,8.6949-7.9326-2.611-13.8865,2.2178-15.9505,8.1348-1.4724-3.1732-3.5546-7.3715-3.1909-11.0417ZM398.9081,611.027c-19.6749-1.7164-30.5876,10.1555-37.9923,22.6215,1.4061-21.8923,14.2509-34.8522,37.1285-36.2402,4.9261,1.6845,5.6895,11.2397.8638,13.6187ZM402.1121,597.6724c7.2079.6284,12.3465,3.3059,17.1124,6.382,4.0826,13.8199,6.8628,38.5188-11.0269,38.8854-4.3972-1.0957-7.3752-3.6384-8.6948-7.8367,5.9495-3.6384,8.4292-17.8571,1.1564-22.0554,3.8665-3.0421,4.1835-11.8053,1.4529-15.3752ZM394.5731,671.6694c-14.1031-1.0274-24.3187-9.7889-29.3102-19.439,1.2733-6.2549,7.2579-11.2105,15.0924-8.1344,5.9357,13.8865,20.3039,19.3377,38.8692,20.5948-6.1654,4.7606-14.4347,7.7078-24.6514,6.9786ZM421.5568,662.9405c-7.8367-.4939-16.3343-1.3543-23.2103-4.3295-5.8553-2.514-12.7654-7.4764-15.0963-12.2021-4.3649-8.8642,5.536-18.1531,14.2166-11.608.2506,8.8635,11.7582,12.2363,19.143,7.8367,2.5828,4.9618,7.3599,7.7399,14.798,7.8367-2.5618,4.8934-5.5084,9.3901-9.8511,12.4662ZM432.2678,648.1594c-7.4089.7292-10.683-2.6754-13.624-6.3821,6.8964-7.9658,7.3428-24.07,2.913-35.6741,10.4475,6.7469,17.323,26.3849,10.711,42.0562ZM649.0014,359.4956h-40.04v98.0495c-6.118,12.563-13.2255,24.1042-20.2988,35.678-10.9128,7.6675-24.1038,13.0585-39.4641,16.2676v-149.9951h-59.765v159.5503c-23.508,6.0173-42.7513,16.2675-59.7631,28.7336v-188.2839h-59.4633v188.5822c-16.9931-12.696-36.437-22.9464-60.0618-29.0319v-159.5503h-59.764v149.9951c-15.3414-3.2092-28.5522-8.6001-39.4452-16.2676-7.1588-11.312-13.7867-23.1436-20.3176-35.0833v-98.6442h-40.0406c-3.6575-15.2744-6.7762-31.1091-6.3826-50.4871h511.1898c.3969,19.378-2.7114,35.2127-6.3837,50.4871ZM224.0803,343.4045l4.3476,4.3962c-3.479,3.431-7.9706,5.0238-12.8506,5.0238-12.5603,0-17.8743-8.6467-17.9229-17.4387-.0479-8.8414,5.6997-17.8269,17.9229-17.8269,4.5897,0,8.9379,1.7396,12.4159,5.169l-4.2519,4.1068c-2.2224-2.1737-5.217-3.1879-8.164-3.1879-8.1631,0-11.6917,6.0861-11.6433,11.739.0486,5.6033,3.2852,11.4481,11.6433,11.4481,2.947,0,6.2806-1.2078,8.5031-3.4294ZM248.2318,318.2353h-13.285v33.8165h13.285c11.8361,0,17.053-8.6473,16.9087-17.1978-.1456-8.3571-5.3151-16.6188-16.9087-16.6188ZM248.2318,345.9167h-6.9576v-21.6432h6.9576c7.3422,0,10.4345,5.2653,10.5788,10.5313.145,5.5085-2.8975,11.1119-10.5788,11.1119ZM312.2868,343.4045l4.347,4.3962c-3.4784,3.431-7.9704,5.0238-12.85,5.0238-12.5615,0-17.8754-8.6467-17.9229-17.4387-.0485-8.8414,5.6993-17.8269,17.9229-17.8269,4.5891,0,8.9379,1.7396,12.4153,5.169l-4.2513,4.1068c-2.2229-2.1737-5.2173-3.1879-8.164-3.1879-8.1635,0-11.6917,6.0861-11.6433,11.739.0486,5.6033,3.2852,11.4481,11.6433,11.4481,2.9467,0,6.28-1.2078,8.5031-3.4294ZM334.2639,318.2353l-15.169,33.8165h6.909l2.8988-6.376h17.6802l2.8502,6.376h6.957l-15.1686-33.8165h-6.9576ZM331.4623,339.7319l6.2796-14.3951,6.2802,14.3951h-12.5598ZM389.6245,342.1479c0,7.5384-6.6671,10.7737-14.2034,10.7737-6.9078,0-12.2224-2.1247-14.734-8.3096l5.3138-2.7532c1.497,3.7199,5.4104,5.3624,9.5173,5.3624,4.0093,0,7.7766-1.401,7.7766-5.0734,0-3.1882-3.3324-4.4929-7.8251-4.9756-6.9091-.8202-13.2846-2.6577-13.2846-10.242,0-6.9558,6.8588-9.806,13.0918-9.8535,5.2653,0,10.7247,1.4964,13.2844,6.7144l-5.0731,2.6094c-1.1591-1.933-4.3472-3.7695-8.0186-3.7695-4.7353,0-7.005,1.9802-7.005,4.4926,0,2.9472,3.4775,3.7673,7.5363,4.2517,7.0529.8698,13.6235,2.7057,13.6235,10.7725ZM396.4334,318.2353h27.8251v5.7968h-10.7248v28.0198h-6.3765v-28.0198h-10.7238v-5.7968ZM431.8903,318.2353h25.3134v6.1825h-18.9865v7.7796h18.3108v5.9416h-18.3108v7.6339h18.9865v6.2789h-25.3134v-33.8165ZM472.3701,346.158h17.3918v5.8938h-23.7681v-33.8165h6.3763v27.9227ZM504.4956,346.158h17.3897v5.8938h-23.7684v-33.8165h6.3787v27.9227ZM545.1215,317.559c-11.6912,0-17.3913,8.938-17.3913,17.8269s5.5068,17.4387,17.3913,17.4387,17.2458-8.7437,17.3422-17.4861c.0971-8.8414-5.7001-17.7794-17.3422-17.7794ZM545.1215,346.9805c-7.9711,0-10.9657-5.9418-11.1118-11.4998-.1466-5.6989,3.1407-12.1262,11.1118-12.1262s11.1597,6.3784,11.0612,12.0787c-.0949,5.5543-3.0917,11.5472-11.0612,11.5472ZM547.5847,315.9772h-5.218v-.2905l3.5754-6.5701h6.9553v.2431l-5.3128,6.6176ZM593.2336,318.1879h6.376v33.864h-3.9608v.0496l-17.7773-22.8507v22.8011h-6.3765v-33.8165h5.1689l16.5698,20.9669v-21.0143Z"/>
</svg>