<?xml version="1.0" encoding="UTF-8"?>
<svg data-name="图层_1" xmlns="http://www.w3.org/2000/svg" version="1.1" viewBox="0 0 800 800">
  <!-- Created by @FCLOGO 2025-3-11 GMT+8 14:45:57 . https://fclogo.top/ -->
<!-- FOR PERSONAL USE ONLY NOT FOR COMMERCIAL USE -->
  <path d="M668.4267,273.6327c-6.9897-28.8841-21.425-50.324-40.8998-66.7243-15.5913-11.8889-32.9474-21.0964-49.316-31.3468-33.1937-20.7639-65.3-42.4204-89.9316-71.3669-12.4342-14.5742-24.8638-29.1861-42.0778-38.8702-16.2482-9.2131-38.2542-20.1335-62.3721-13.0563-20.3027,5.9602-37.4626,16.7574-51.6485,29.013-7.2413,6.2658-12.8602,13.6372-19.1425,21.1758-18.4839,22.2037-41.7641,39.4793-64.9699,56.2748-21.4944,14.4161-44.4743,27.3117-66.4432,41.1981-21.657,14.3191-37.5449,34.4208-46.701,61.2346-10.102,25.0973-8.9979,65.9653-1.4595,93.1109,22.7175,87.5303,67.5857,152.9024,113.1454,217.6045,46.7736,63.5477,97.6592,122.9992,152.8925,178.1201,54.3877-53.4288,104.117-111.2933,149.6957-173.1925,45.512-61.793,88.525-127.6949,113.4269-209.4752,8.2981-25.1603,14.0177-64.1398,5.8012-93.6996"/>
  <path d="M658.2771,254.1881c-7.7869-18.1204-18.3977-32.9339-32.486-44.6648-14.1179-11.7717-31.576-19.4787-47.2968-29.8921-31.9255-19.5074-62.327-40.5698-87.044-67.3208-10.7592-13.2978-22.2513-26.9543-38.5871-38.5777-7.1532-5.0908-15.3696-9.7846-24.9283-13.6296-8.9952-3.5965-21.7877-7.2634-32.5025-5.805-22.8795,3.1174-38.9801,12.0768-53.9612,23.4946-15.0726,10.4453-25.1117,25.9573-37.4245,39.1813-25.4298,25.6248-55.7824,46.3228-87.6207,65.5662-15.5081,10.0182-33.2653,17.7881-46.1245,30.45-19.0135,17.6255-34.6373,43.0493-38.8653,76.0178-4.7462,36.9306,5.2401,69.9937,14.7943,97.7689,26.6175,74.6077,67.6804,136.8664,111.3934,194.9261,43.84,58.2267,90.5949,113.4744,142.4549,163.9294,64.2594-63.5455,122.4519-134.4044,175.2237-210.6172,25.9914-37.5596,49.7292-78.4291,69.041-123.8744,9.2361-21.7529,17.7539-47.3118,22.3514-73.9929,4.7606-27.7068,2.8556-60.7086-8.4177-82.9599" style="fill: #fff;"/>
  <path d="M658.5567,307.8506c-.6912-17.0635-4.4631-32.3991-9.8519-45.8258-7.4376-17.2095-17.6878-31.6256-31.0479-42.9485-9.9333-8.8773-21.8869-15.1453-33.3614-22.0346-34.7188-20.8991-68.7565-42.4397-95.4352-71.0746-18.3721-23.0522-40.277-46.5527-73.984-55.4246-28.0859-7.3825-52.7898,7.2502-69.3359,19.4485-14.497,10.668-25.0973,24.1041-36.2742,37.4305-24.3347,24.8677-53.2651,45.1517-84.13,63.517-14.7282,9.8215-31.758,17.375-44.6864,29.0115-18.9111,16.9283-33.0306,40.8502-37.9868,72.5271-5.4083,34.5175,4.194,67.254,13.0585,94.2998,25.5908,72.7546,65.5018,131.1787,107.0437,187.9817,39.3973,52.3059,82.0152,102.8939,127.9451,148.8238,1.0879,1.1221,8.0135,9.3557,9.2702,9.2896.419-.0342,3.095-3.3744,4.3478-4.6315,47.962-47.9731,92.3179-99.4248,132.8869-153.78,30.8986-42.054,61.3984-86.3949,85.5691-136.3406,11.7253-24.2013,22.8151-51.1799,29.8917-80.937,3.4349-14.4828,6.8246-31.9729,6.0807-49.3323" style="fill: #f1d113;"/>
  <path d="M144.1954,309.0085c-.3935,19.378,2.7251,35.2127,6.3826,50.4871h498.4234c3.6724-15.2744,6.7806-31.1091,6.3838-50.4871H144.1954Z" style="fill: #fff;"/>
  <path d="M561.0853,304.381h94.0016c-2.7779-37.8612-17.6272-63.6008-38.8846-82.9763-10.71-10.1028-24.1996-16.5278-36.8311-24.0707-38.0909-22.7936-74.9408-47.4639-101.8416-81.2369-9.1089-11.0291-19.454-20.6203-32.2012-28.7265-11.9044-7.5618-27.279-15.4949-45.2497-15.6542-17.8367-.1637-33.611,7.8517-45.5462,15.3652-12.7919,8.0783-23.3067,17.7905-32.2038,29.0154-18.1003,22.4672-40.3233,40.7493-64.4087,57.4501-24.1373,16.7273-51.4307,29.5063-74.5562,47.5779-20.9663,19.7366-36.1927,45.2332-38.8708,83.256h93.9835c5.9704-26.7169,12.04-53.366,17.99-80.0844,1.3249.5336,2.7123.9948,4.0643,1.458-6.0326,26.187-12.165,52.2398-17.9861,78.6265h82.977c6.2951-15.373,12.6144-30.6993,19.1403-45.8463.7447-5.9014,1.373-11.9667,2.6159-17.4051,5.8024.1974,12.3806-.3969,17.7033.2926,0,1.3919-.0165,3.3059,0,5.2275,0,1.5532-.7931,4.495,1.1609,4.3466,1.5147-.1956.8592-2.6776.8592-4.3466.0132-1.8476,0-4.4298,0-5.5201h19.1409c.3798,3.1257-.7435,7.7171.5952,9.8666h1.4547c.6609-2.6909.0865-6.6593.2817-9.8666h22.6314c.3644,3.1257-.7579,7.7171.581,9.8666h1.4336c.8791-2.596-.2619-7.2556.6002-9.8666h18.8442v5.8034c.3986,1.3383-.9909,4.4944,1.1564,4.0633,1.5555-.3115.8793-2.8408.8793-4.3466.0132-1.9826,0-3.9647,0-5.5201h18.0009c.6267,5.9511,1.7358,11.4084,2.3166,17.4051,6.5096,15.147,12.8464,30.4733,19.143,45.8463h82.9749c-5.5526-26.5841-12.1376-52.0784-17.7073-78.6265,1.0749-.6609,2.596-.8964,3.7712-1.458,5.9836,26.7184,12.0349,53.3676,17.9861,80.0844" style="fill: #fff;"/>
  <path d="M250.3826,509.4907h0c18.5792,4.5305,42.2574,3.9684,59.7628,9.5552v-159.5503h-59.7628v149.9951ZM370.2071,548.0778h0c10.7292,7.6354,20.2018,16.4972,29.8717,25.2264,8.9583-9.3899,19.1271-17.6252,29.5917-25.5247v-188.2839h-59.4634v188.5822ZM608.9614,359.4956h0v98.0495l.1009.1196c3.6631-6.8549,7.2364-13.818,10.6752-20.9234,13.5983-28.0655,22.8206-52.7067,28.9145-77.2457h-39.6905ZM158.5267,385.7913h0c9.0592,25.7578,19.9846,49.7497,32.0543,72.4015l.0375-.0529v-98.6443h-39.9523c2.3617,9.1297,5.116,17.9293,7.8604,26.2957ZM489.4336,359.4956h59.765v149.9951c-18.5996,4.5305-42.2596,3.9684-59.765,9.5552v-159.5503Z" style="fill: #f1d113;"/>
  <path d="M310.1454,519.0459h0c23.6248,6.0855,43.0686,16.3359,60.0617,29.0319v-188.5822h-60.0617v159.5503ZM190.6186,458.1399h0c6.531,11.9397,13.1588,23.7712,20.3177,35.0832,10.893,7.6675,24.1037,13.0585,39.4452,16.2676v-149.9951h-59.7628v98.6443ZM429.6705,547.7795h0c17.0117-12.466,36.2551-22.7163,59.7631-28.7336v-159.5503h-59.7631v188.2839ZM608.9614,359.4956v98.0495c-6.118,12.563-13.2255,24.1043-20.2988,35.678-10.9128,7.6675-24.1037,13.0585-39.464,16.2676v-149.9951h59.7628Z" style="fill: #ca3631;"/>
  <path d="M469.9944,304.3831c-6.1841-15.1113-12.6346-29.9264-18.8475-44.9692-.6098-4.6316-1.0755-9.3922-1.7529-13.9206-2.9906-.6757-7.2403-.1025-10.7302-.296v9.849h-10.1634v-9.849h-11.0131c-.1956,3.2029.3776,7.1565-.2965,9.849-3.2927-.1803-7.3428.399-10.1494-.2773v-9.5717h-14.5015c-.198,3.2029.384,7.1565-.2977,9.849-3.2878-.1803-7.356.399-10.1494-.2773v-9.5717h-11.0263v9.849c-3.2927-.1803-7.3395.399-10.1494-.2773v-9.5717h-10.7454c-.5996,4.8111-1.2236,9.6192-1.7373,14.5147-6.382,14.7789-12.6502,29.6889-18.863,44.671h54.557v-6.9763c2.8116-3.4753,5.4555-7.1136,8.9925-9.8574h13.6226c3.1047,3.2089,6.3138,6.251,8.7104,10.1533v6.6803h54.5408Z" style="fill: #602020;"/>
  <path d="M405.0058,291.6188h-10.7298c-2.778,3.6991-7.7018,5.2545-6.6803,12.7643h24.3699c.9244-7.5099-3.802-9.3619-6.9598-12.7643" style="fill: #d6411f;"/>
  <path d="M400.3616,228.6636h0c-6.0513.4122-5.1116,7.8367-6.9438,12.466h12.7637c-1.5554-4.5284-1.3084-10.8786-5.8199-12.466M388.4747,241.1296h0c-3.2927-4.432-3.7386-11.7369-8.9919-14.2166-5.9842,1.5875-7.3286,7.7816-8.4165,14.2166h15.0758c.3798,3.1235-.7435,7.7171.5952,9.8666h1.4547c.6619-2.6909.0865-6.6617.2827-9.8666ZM420.0982,226.913h0c-5.2545,2.4797-5.7003,9.7846-8.993,14.2166.3644,3.1235-.7579,7.7171.581,9.8666h1.4352c.8775-2.596-.2656-7.2541.5987-9.8666h14.7803c-1.0957-6.435-2.413-12.6291-8.4021-14.2166ZM367.0007,241.1296h0c0-.296-.2298-.3302-.2969-.5793-.6291-1.4733-1.0954-3.1578-1.4399-4.9292-1.5692-21.5882,20.1203-24.4669,14.4972-46.6989-11.4407.4442-24.9635-1.1906-34.2206,1.4524-5.8882,3.1429-10.6476,7.3428-16.8286,10.4327-5.9852,3.0242-12.5973,4.9766-19.1424,8.1155-5.9704,2.8788-11.1147,6.5833-16.5365,10.749-7.9658,6.0825-20.4958,11.8991-32.5022,6.0825-6.0315,26.187-12.1638,52.2398-17.9849,78.6265h82.9746c6.2967-15.373,12.6167-30.7008,19.1409-45.8463.7442-5.9014,1.373-11.9683,2.6155-17.4051,5.8034.1974,12.3805-.3969,17.7044.2926,0,1.3919-.0153,3.3077,0,5.2275,0,1.5532-.7931,4.495,1.1603,4.3466,1.5163-.1956.8592-2.6776.8592-4.3466.0138-1.8476,0-4.4298,0-5.5201ZM557.0352,304.381h-82.9749c-6.2967-15.373-12.6313-30.7008-19.143-45.8463-.5808-5.9967-1.6899-11.454-2.3166-17.4051h-18.0032c0,1.5554.0155,3.5375,0,5.5201,0,1.5057.6786,4.0351-.8769,4.3466-2.1473.4311-.7578-2.7249-1.1564-4.0633v-5.8034c-.0472-.2331.1351-.268.2982-.296.4801-1.6216,1.0422-3.2112,1.4523-4.9297,1.9026-21.4251-20.1335-24.731-14.5147-46.9816,11.4407.4442,24.981-1.1906,34.2381,1.4524,10.366,6.8286,20.6163,13.7877,34.2411,17.392,11.4728,4.1354,19.5069,15.8039,31.9061,19.4422,5.7196,1.6712,13.7536.9421,19.1425-1.4544,5.5696,26.548,12.1547,52.0439,17.7073,78.6265Z" style="fill: #426d93;"/>
  <path d="M489.7334,165.4121c-2.8618-3.0076-6.0197-6.4163-9.2908-9.5722-3.8341-3.6875-7.953-7.9184-12.4683-9.8662-10.2976-4.4018-24.1708-3.2779-34.8137,0-3.3742,1.0539-7.3411,3.3059-10.7458,2.9069-3.9002-.4653-5.3399-3.6385-7.8367-6.084-6.5623-11.1443.0303-35.4292-13.0603-40.051-2.2307-.6189-5.4032-1.3294-8.1002-.5694-7.6685,2.2157-11.507,8.2182-14.8151,14.7977,2.7802-.5281,7.1466-4.7264,11.605-2.6111,2.2499,7.4378-3.6184,13.8483-5.7829,19.7181-3.5358,5.457-6.2475,11.7423-10.4514,16.5525-9.9339-7.1097-30.136-10.6148-43.2325-4.0865-.2441.07-.2771.3191-.5742.3191-14.7624,10.3792-25.2128,25.0594-37.7278,37.6925-12.0649,13.0718-24.3014,25.986-36.5532,38.8792-.5754.594.1163.5622.581.8587,1.3249.5336,2.7111.9926,4.0655,1.458,12.0052,5.8166,24.5363,0,32.5019-6.084,5.4209-4.1642,10.5651-7.8687,16.5344-10.7475,6.5464-3.139,13.1584-5.0913,19.1436-8.114,6.181-3.0915,10.9405-7.2914,16.8276-10.4343,9.2581-2.643,22.7809-1.0066,34.2216-1.4545,5.6231,22.2341-16.0663,25.1128-14.4982,46.701.3455,1.7714.8118,3.4535,1.4412,4.9292.0667.2491.2965.2833.2965.5793h4.0657c1.0885-6.4334,2.4335-12.6291,8.4165-14.2166,5.2543,2.4797,5.6992,9.7829,8.9919,14.2166h4.943c1.8322-4.6317.8925-12.0521,6.9432-12.466,4.5121,1.5875,4.2652,7.9376,5.8205,12.466h4.9237c3.2927-4.4337,3.7386-11.7369,8.993-14.2166,5.9891,1.5875,7.3064,7.7832,8.4021,14.2166h4.0639c-.0472-.2331.1351-.268.2982-.296.4801-1.6216,1.0422-3.2112,1.4547-4.9297,1.9003-21.4251-20.1359-24.731-14.517-46.9837,11.4407.4479,24.981-1.1885,34.2402,1.4545,10.3639,6.8301,20.6142,13.7877,34.2389,17.392,11.4728,4.1354,19.5069,15.8039,31.9061,19.4422,5.7196,1.6712,13.7536.9421,19.1425-1.4544,1.0749-.6609,2.596-.8964,3.7712-1.458.2298-.048.2965-.2965.5793-.2647-17.2453-18.3481-35.5963-39.1943-53.9451-58.6197"/>
  <path d="M549.1986,509.4907c-18.5996,4.5305-42.2596,3.9684-59.765,9.5552-23.508,6.0173-42.7513,16.2676-59.7631,28.7336-10.4646,7.8995-20.6334,16.1348-29.5917,25.5247-9.6699-8.7292-19.1424-17.591-29.8717-25.2264-16.9931-12.696-36.4375-22.9464-60.0617-29.0319-17.5066-5.5868-41.1837-5.0246-59.7628-9.5552-15.342-3.2091-28.5545-8.6001-39.4463-16.2676-.0342.4272.1355.6625.2641.8923,54.6534,86.1672,117.8418,163.7663,188.8785,233.5309,70.3301-70.657,134.4738-147.4986,188.5838-234.4232-10.9128,7.6675-24.1037,13.0585-39.464,16.2676"/>
  <path d="M380.0571,641.7773h0c.4995-8.2617,10.8457-14.5094,18.2894-8.6949,7.14-4.4298,6.7408-20.4015-3.7734-20.893-12.2992.8923-22.2855,8.3982-28.4317,16.8275-1.9876,2.7118-4.9276,6.8775-5.2257,9.8535-.3638,3.6703,1.7185,7.8686,3.1908,11.0418,2.0641-5.9169,8.0179-10.7458,15.9505-8.1348M398.9081,611.027h0c4.8257-2.379,4.0623-11.9342-.8637-13.6187-22.8777,1.388-35.7225,14.3479-37.1285,36.2402,7.4046-12.466,18.3174-24.3378,37.9923-22.6215ZM400.6593,613.0476h0c7.2728,4.1983,4.793,18.417-1.1564,22.0554,1.3195,4.1983,4.2976,6.741,8.6948,7.8367,17.8897-.3665,15.1095-25.0654,11.0269-38.8854-4.766-3.0761-9.9046-5.7536-17.1124-6.382,2.7306,3.57,2.4136,12.3332-1.4529,15.3753ZM380.3554,644.0961h0c-7.8346-3.0761-13.8191,1.8795-15.0924,8.1344,4.9914,9.6501,15.2071,18.4116,29.3102,19.439,10.2167.7292,18.486-2.218,24.6514-6.9786-18.5653-1.2571-32.9336-6.7084-38.8692-20.5948ZM421.5567,606.1033h0c4.4298,11.6041,3.9834,27.7083-2.913,35.6741,2.941,3.7067,6.2151,7.1113,13.624,6.3821,6.612-15.6713-.2635-35.3092-10.711-42.0562ZM431.4079,650.4743c-2.5618,4.8934-5.5084,9.3901-9.8512,12.4662-7.8367-.4939-16.3343-1.3543-23.2102-4.3295-5.8553-2.514-12.7655-7.4764-15.0963-12.2021-4.3648-8.8642,5.536-18.1531,14.2166-11.608.2507,8.8636,11.7582,12.2364,19.143,7.8367,2.5828,4.9618,7.3599,7.7399,14.798,7.8367Z" style="fill: #fff;"/>
  <path d="M228.4279,347.8008c-3.479,3.431-7.9707,5.0238-12.8506,5.0238-12.5603,0-17.8743-8.6467-17.9229-17.4387-.0478-8.8414,5.6998-17.8269,17.9229-17.8269,4.5897,0,8.9378,1.7395,12.4159,5.169l-4.2519,4.1068c-2.2223-2.1737-5.2169-3.1879-8.164-3.1879-8.1632,0-11.6917,6.0861-11.6433,11.739.0486,5.6033,3.2851,11.4481,11.6433,11.4481,2.947,0,6.2806-1.2077,8.5031-3.4294l4.3476,4.3962Z"/>
  <path d="M241.2742,345.9168h6.9576c7.6813,0,10.7238-5.6033,10.5788-11.1119-.1443-5.266-3.2365-10.5313-10.5788-10.5313h-6.9576v21.6432ZM265.1405,334.8541c.1443,8.5505-5.0727,17.1978-16.9087,17.1978h-13.285v-33.8166h13.285c11.5936,0,16.763,8.2617,16.9087,16.6188Z"/>
  <path d="M316.6338,347.8008c-3.4784,3.431-7.9704,5.0238-12.85,5.0238-12.5615,0-17.8755-8.6467-17.9229-17.4387-.0484-8.8414,5.6994-17.8269,17.9229-17.8269,4.5891,0,8.9378,1.7395,12.4153,5.169l-4.2513,4.1068c-2.2229-2.1737-5.2173-3.1879-8.164-3.1879-8.1635,0-11.6917,6.0861-11.6433,11.739.0486,5.6033,3.2851,11.4481,11.6433,11.4481,2.9466,0,6.28-1.2077,8.5031-3.4294l4.347,4.3962Z"/>
  <path d="M337.7419,325.3368h0l-6.2796,14.3951h12.5597l-6.2802-14.3951ZM346.5829,345.6759h-17.6803l-2.8988,6.376h-6.909l15.169-33.8166h6.9576l15.1686,33.8166h-6.957l-2.8501-6.376Z"/>
  <path d="M383.4883,326.4006c-1.1591-1.933-4.3472-3.7695-8.0185-3.7695-4.7353,0-7.0051,1.9802-7.0051,4.4926,0,2.9472,3.4775,3.7674,7.5363,4.2517,7.0529.8697,13.6236,2.7057,13.6236,10.7724,0,7.5384-6.6671,10.7738-14.2034,10.7738-6.9079,0-12.2224-2.1247-14.734-8.3096l5.3138-2.7532c1.497,3.7199,5.4104,5.3624,9.5173,5.3624,4.0093,0,7.7766-1.401,7.7766-5.0734,0-3.1881-3.3324-4.4928-7.8251-4.9756-6.9092-.8202-13.2846-2.6577-13.2846-10.242,0-6.9559,6.8588-9.8061,13.0918-9.8535,5.2653,0,10.7248,1.4964,13.2844,6.7143l-5.0731,2.6095Z"/>
  <polygon points="407.1572 324.0321 396.4334 324.0321 396.4334 318.2353 424.2585 318.2353 424.2585 324.0321 413.5338 324.0321 413.5338 352.0518 407.1572 352.0518 407.1572 324.0321"/>
  <polygon points="457.2036 352.0518 431.8903 352.0518 431.8903 318.2353 457.2036 318.2353 457.2036 324.4178 438.2171 324.4178 438.2171 332.1974 456.5279 332.1974 456.5279 338.139 438.2171 338.139 438.2171 345.7729 457.2036 345.7729 457.2036 352.0518"/>
  <polygon points="472.3701 318.2353 472.3701 346.158 489.762 346.158 489.762 352.0518 465.9939 352.0518 465.9939 318.2353 472.3701 318.2353"/>
  <polygon points="504.4956 318.2353 504.4956 346.158 521.8853 346.158 521.8853 352.0518 498.1169 352.0518 498.1169 318.2353 504.4956 318.2353"/>
  <path d="M552.8974,309.1166h-6.9553l-3.5755,6.5701v.2905h5.2179l5.3128-6.6176v-.2431ZM545.1214,323.3546h0c-7.971,0-11.2583,6.4273-11.1117,12.1261.146,5.558,3.1407,11.4998,11.1117,11.4998s10.9663-5.993,11.0612-11.5473c.0986-5.7003-3.0917-12.0787-11.0612-12.0787ZM545.1214,317.559c11.6422,0,17.4393,8.938,17.3423,17.7794-.0964,8.7424-5.4588,17.4862-17.3423,17.4862s-17.3913-8.5503-17.3913-17.4387,5.7001-17.8269,17.3913-17.8269Z"/>
  <polygon points="593.2336 318.1879 599.6096 318.1879 599.6096 352.0518 595.6488 352.0518 595.6488 352.1015 577.8715 329.2507 577.8715 352.0518 571.4949 352.0518 571.4949 318.2353 576.6638 318.2353 593.2336 339.2022 593.2336 318.1879"/>
</svg>